<?xml version="1.0" encoding="utf-8" standalone="no"?>
<!DOCTYPE svg PUBLIC "-//W3C//DTD SVG 1.1//EN"
  "http://www.w3.org/Graphics/SVG/1.1/DTD/svg11.dtd">
<svg xmlns:xlink="http://www.w3.org/1999/xlink" width="144pt" height="216pt" viewBox="0 0 144 216" xmlns="http://www.w3.org/2000/svg" version="1.1">
 <metadata>
  <rdf:RDF xmlns:dc="http://purl.org/dc/elements/1.1/" xmlns:cc="http://creativecommons.org/ns#" xmlns:rdf="http://www.w3.org/1999/02/22-rdf-syntax-ns#">
   <cc:Work>
    <dc:type rdf:resource="http://purl.org/dc/dcmitype/StillImage"/>
    <dc:date>2022-06-22T17:23:55.665582</dc:date>
    <dc:format>image/svg+xml</dc:format>
    <dc:creator>
     <cc:Agent>
      <dc:title>Matplotlib v3.5.1, https://matplotlib.org/</dc:title>
     </cc:Agent>
    </dc:creator>
   </cc:Work>
  </rdf:RDF>
 </metadata>
 <defs>
  <style type="text/css">*{stroke-linejoin: round; stroke-linecap: butt}</style>
 </defs>
 <g id="figure_1">
  <g id="patch_1">
   <path d="M 0 216 
L 144 216 
L 144 0 
L 0 0 
L 0 216 
z
" style="fill: none"/>
  </g>
  <g id="axes_1">
   <g id="patch_2">
    <path d="M 18 189 
L 129.6 189 
L 129.6 25.92 
L 18 25.92 
z
" style="fill: #ffffff"/>
   </g>
   <g id="PathCollection_1">
    <defs>
     <path id="ma38b5b2a55" d="M 0 2.738613 
C 0.726289 2.738613 1.422928 2.450055 1.936492 1.936492 
C 2.450055 1.422928 2.738613 0.726289 2.738613 0 
C 2.738613 -0.726289 2.450055 -1.422928 1.936492 -1.936492 
C 1.422928 -2.450055 0.726289 -2.738613 0 -2.738613 
C -0.726289 -2.738613 -1.422928 -2.450055 -1.936492 -1.936492 
C -2.450055 -1.422928 -2.738613 -0.726289 -2.738613 0 
C -2.738613 0.726289 -2.450055 1.422928 -1.936492 1.936492 
C -1.422928 2.450055 -0.726289 2.738613 0 2.738613 
z
" style="stroke: #ff0000; stroke-width: 1.75"/>
    </defs>
    <g clip-path="url(#pa075d21bea)">
     <use xlink:href="#ma38b5b2a55" x="80.775" y="107.46" style="fill: #ff0000; stroke: #ff0000; stroke-width: 1.75"/>
     <use xlink:href="#ma38b5b2a55" x="94.725" y="107.46" style="fill: #ff0000; stroke: #ff0000; stroke-width: 1.75"/>
     <use xlink:href="#ma38b5b2a55" x="59.85" y="119.229285" style="fill: #ff0000; stroke: #ff0000; stroke-width: 1.75"/>
     <use xlink:href="#ma38b5b2a55" x="73.8" y="119.229285" style="fill: #ff0000; stroke: #ff0000; stroke-width: 1.75"/>
     <use xlink:href="#ma38b5b2a55" x="87.75" y="119.229285" style="fill: #ff0000; stroke: #ff0000; stroke-width: 1.75"/>
     <use xlink:href="#ma38b5b2a55" x="66.825" y="130.99857" style="fill: #ff0000; stroke: #ff0000; stroke-width: 1.75"/>
     <use xlink:href="#ma38b5b2a55" x="80.775" y="130.99857" style="fill: #ff0000; stroke: #ff0000; stroke-width: 1.75"/>
    </g>
   </g>
   <g id="PathCollection_2">
    <defs>
     <path id="C0_0_33587c50ba" d="M 0 2.738613 
C 0.726289 2.738613 1.422928 2.450055 1.936492 1.936492 
C 2.450055 1.422928 2.738613 0.726289 2.738613 -0 
C 2.738613 -0.726289 2.450055 -1.422928 1.936492 -1.936492 
C 1.422928 -2.450055 0.726289 -2.738613 0 -2.738613 
C -0.726289 -2.738613 -1.422928 -2.450055 -1.936492 -1.936492 
C -2.450055 -1.422928 -2.738613 -0.726289 -2.738613 0 
C -2.738613 0.726289 -2.450055 1.422928 -1.936492 1.936492 
C -1.422928 2.450055 -0.726289 2.738613 0 2.738613 
z
"/>
    </defs>
    <g clip-path="url(#pa075d21bea)">
     <use xlink:href="#C0_0_33587c50ba" x="66.825" y="83.92143" style="fill: none; stroke: #ff0000; stroke-width: 1.75"/>
    </g>
    <g clip-path="url(#pa075d21bea)">
     <use xlink:href="#C0_0_33587c50ba" x="80.775" y="83.92143" style="fill: none; stroke: #ff0000; stroke-width: 1.75"/>
    </g>
    <g clip-path="url(#pa075d21bea)">
     <use xlink:href="#C0_0_33587c50ba" x="59.85" y="95.690715" style="fill: none; stroke: #ff0000; stroke-width: 1.75"/>
    </g>
    <g clip-path="url(#pa075d21bea)">
     <use xlink:href="#C0_0_33587c50ba" x="73.8" y="95.690715" style="fill: none; stroke: #ff0000; stroke-width: 1.75"/>
    </g>
    <g clip-path="url(#pa075d21bea)">
     <use xlink:href="#C0_0_33587c50ba" x="87.75" y="95.690715" style="fill: none; stroke: #ff0000; stroke-width: 1.75"/>
    </g>
    <g clip-path="url(#pa075d21bea)">
     <use xlink:href="#C0_0_33587c50ba" x="52.875" y="107.46" style="fill: none; stroke: #ff0000; stroke-width: 1.75"/>
    </g>
    <g clip-path="url(#pa075d21bea)">
     <use xlink:href="#C0_0_33587c50ba" x="66.825" y="107.46" style="fill: none; stroke: #ff0000; stroke-width: 1.75"/>
    </g>
   </g>
   <g id="PathCollection_3">
    <path d="M 121.858803 140.238345 
C 121.858803 140.238345 121.858803 140.238345 121.858803 140.238345 
C 121.858803 140.238345 121.858803 140.238345 121.858803 140.238345 
C 121.858803 140.238345 121.858803 140.238345 121.858803 140.238345 
C 121.858803 140.238345 121.858803 140.238345 121.858803 140.238345 
C 121.858803 140.238345 121.858803 140.238345 121.858803 140.238345 
C 121.858803 140.238345 121.858803 140.238345 121.858803 140.238345 
C 121.858803 140.238345 121.858803 140.238345 121.858803 140.238345 
C 121.858803 140.238345 121.858803 140.238345 121.858803 140.238345 
z
" clip-path="url(#pa075d21bea)" style="stroke: #000000"/>
    <path d="M 114.930363 129.960365 
C 115.28341 129.960365 115.622045 129.820097 115.871687 129.570455 
C 116.121329 129.320813 116.261596 128.982179 116.261596 128.629132 
C 116.261596 128.276085 116.121329 127.93745 115.871687 127.687808 
C 115.622045 127.438166 115.28341 127.297899 114.930363 127.297899 
C 114.577316 127.297899 114.238681 127.438166 113.989039 127.687808 
C 113.739397 127.93745 113.59913 128.276085 113.59913 128.629132 
C 113.59913 128.982179 113.739397 129.320813 113.989039 129.570455 
C 114.238681 129.820097 114.577316 129.960365 114.930363 129.960365 
z
" clip-path="url(#pa075d21bea)" style="stroke: #000000"/>
    <path d="M 117.480892 125.950255 
C 117.833939 125.950255 118.172574 125.809988 118.422216 125.560346 
C 118.671858 125.310704 118.812125 124.972069 118.812125 124.619022 
C 118.812125 124.265975 118.671858 123.92734 118.422216 123.677698 
C 118.172574 123.428056 117.833939 123.287789 117.480892 123.287789 
C 117.127845 123.287789 116.78921 123.428056 116.539568 123.677698 
C 116.289926 123.92734 116.149659 124.265975 116.149659 124.619022 
C 116.149659 124.972069 116.289926 125.310704 116.539568 125.560346 
C 116.78921 125.809988 117.127845 125.950255 117.480892 125.950255 
z
" clip-path="url(#pa075d21bea)" style="stroke: #000000"/>
    <path d="M 113.571185 107.339011 
C 113.927694 107.339011 114.269649 107.197368 114.521739 106.945279 
C 114.773828 106.693189 114.915471 106.351234 114.915471 105.994725 
C 114.915471 105.638216 114.773828 105.296261 114.521739 105.044172 
C 114.269649 104.792082 113.927694 104.650439 113.571185 104.650439 
C 113.214676 104.650439 112.872721 104.792082 112.620632 105.044172 
C 112.368542 105.296261 112.226899 105.638216 112.226899 105.994725 
C 112.226899 106.351234 112.368542 106.693189 112.620632 106.945279 
C 112.872721 107.197368 113.214676 107.339011 113.571185 107.339011 
z
" clip-path="url(#pa075d21bea)" style="stroke: #000000"/>
    <path d="M 109.351475 97.752331 
C 109.351475 97.752331 109.351475 97.752331 109.351475 97.752331 
C 109.351475 97.752331 109.351475 97.752331 109.351475 97.752331 
C 109.351475 97.752331 109.351475 97.752331 109.351475 97.752331 
C 109.351475 97.752331 109.351475 97.752331 109.351475 97.752331 
C 109.351475 97.752331 109.351475 97.752331 109.351475 97.752331 
C 109.351475 97.752331 109.351475 97.752331 109.351475 97.752331 
C 109.351475 97.752331 109.351475 97.752331 109.351475 97.752331 
C 109.351475 97.752331 109.351475 97.752331 109.351475 97.752331 
z
" clip-path="url(#pa075d21bea)" style="stroke: #000000"/>
    <path d="M 108.619176 92.797915 
C 108.619176 92.797915 108.619176 92.797915 108.619176 92.797915 
C 108.619176 92.797915 108.619176 92.797915 108.619176 92.797915 
C 108.619176 92.797915 108.619176 92.797915 108.619176 92.797915 
C 108.619176 92.797915 108.619176 92.797915 108.619176 92.797915 
C 108.619176 92.797915 108.619176 92.797915 108.619176 92.797915 
C 108.619176 92.797915 108.619176 92.797915 108.619176 92.797915 
C 108.619176 92.797915 108.619176 92.797915 108.619176 92.797915 
C 108.619176 92.797915 108.619176 92.797915 108.619176 92.797915 
z
" clip-path="url(#pa075d21bea)" style="stroke: #000000"/>
    <path d="M 103.820358 77.731879 
C 103.820358 77.731879 103.820358 77.731879 103.820358 77.731879 
C 103.820358 77.731879 103.820358 77.731879 103.820358 77.731879 
C 103.820358 77.731879 103.820358 77.731879 103.820358 77.731879 
C 103.820358 77.731879 103.820358 77.731879 103.820358 77.731879 
C 103.820358 77.731879 103.820358 77.731879 103.820358 77.731879 
C 103.820358 77.731879 103.820358 77.731879 103.820358 77.731879 
C 103.820358 77.731879 103.820358 77.731879 103.820358 77.731879 
C 103.820358 77.731879 103.820358 77.731879 103.820358 77.731879 
z
" clip-path="url(#pa075d21bea)" style="stroke: #000000"/>
    <path d="M 101.274556 66.904052 
C 101.274556 66.904052 101.274556 66.904052 101.274556 66.904052 
C 101.274556 66.904052 101.274556 66.904052 101.274556 66.904052 
C 101.274556 66.904052 101.274556 66.904052 101.274556 66.904052 
C 101.274556 66.904052 101.274556 66.904052 101.274556 66.904052 
C 101.274556 66.904052 101.274556 66.904052 101.274556 66.904052 
C 101.274556 66.904052 101.274556 66.904052 101.274556 66.904052 
C 101.274556 66.904052 101.274556 66.904052 101.274556 66.904052 
C 101.274556 66.904052 101.274556 66.904052 101.274556 66.904052 
z
" clip-path="url(#pa075d21bea)" style="stroke: #000000"/>
    <path d="M 97.128525 59.098166 
C 97.128525 59.098166 97.128525 59.098166 97.128525 59.098166 
C 97.128525 59.098166 97.128525 59.098166 97.128525 59.098166 
C 97.128525 59.098166 97.128525 59.098166 97.128525 59.098166 
C 97.128525 59.098166 97.128525 59.098166 97.128525 59.098166 
C 97.128525 59.098166 97.128525 59.098166 97.128525 59.098166 
C 97.128525 59.098166 97.128525 59.098166 97.128525 59.098166 
C 97.128525 59.098166 97.128525 59.098166 97.128525 59.098166 
C 97.128525 59.098166 97.128525 59.098166 97.128525 59.098166 
z
" clip-path="url(#pa075d21bea)" style="stroke: #000000"/>
    <path d="M 91.683975 53.233157 
C 92.033907 53.233157 92.369554 53.094127 92.616994 52.846687 
C 92.864433 52.599248 93.003463 52.263601 93.003463 51.913669 
C 93.003463 51.563736 92.864433 51.228089 92.616994 50.98065 
C 92.369554 50.73321 92.033907 50.594181 91.683975 50.594181 
C 91.334043 50.594181 90.998396 50.73321 90.750956 50.98065 
C 90.503517 51.228089 90.364487 51.563736 90.364487 51.913669 
C 90.364487 52.263601 90.503517 52.599248 90.750956 52.846687 
C 90.998396 53.094127 91.334043 53.233157 91.683975 53.233157 
z
" clip-path="url(#pa075d21bea)" style="stroke: #000000"/>
    <path d="M 86.056475 34.636976 
C 86.227233 34.636976 86.39102 34.569133 86.511765 34.448388 
C 86.632509 34.327644 86.700352 34.163856 86.700352 33.993098 
C 86.700352 33.82234 86.632509 33.658552 86.511765 33.537808 
C 86.39102 33.417064 86.227233 33.349221 86.056475 33.349221 
C 85.885716 33.349221 85.721929 33.417064 85.601184 33.537808 
C 85.48044 33.658552 85.412597 33.82234 85.412597 33.993098 
C 85.412597 34.163856 85.48044 34.327644 85.601184 34.448388 
C 85.721929 34.569133 85.885716 34.636976 86.056475 34.636976 
z
" clip-path="url(#pa075d21bea)" style="stroke: #000000"/>
    <path d="M 120.906622 164.671913 
C 120.906622 164.671913 120.906622 164.671913 120.906622 164.671913 
C 120.906622 164.671913 120.906622 164.671913 120.906622 164.671913 
C 120.906622 164.671913 120.906622 164.671913 120.906622 164.671913 
C 120.906622 164.671913 120.906622 164.671913 120.906622 164.671913 
C 120.906622 164.671913 120.906622 164.671913 120.906622 164.671913 
C 120.906622 164.671913 120.906622 164.671913 120.906622 164.671913 
C 120.906622 164.671913 120.906622 164.671913 120.906622 164.671913 
C 120.906622 164.671913 120.906622 164.671913 120.906622 164.671913 
z
" clip-path="url(#pa075d21bea)" style="stroke: #000000"/>
    <path d="M 115.11993 154.272466 
C 115.11993 154.272466 115.11993 154.272466 115.11993 154.272466 
C 115.11993 154.272466 115.11993 154.272466 115.11993 154.272466 
C 115.11993 154.272466 115.11993 154.272466 115.11993 154.272466 
C 115.11993 154.272466 115.11993 154.272466 115.11993 154.272466 
C 115.11993 154.272466 115.11993 154.272466 115.11993 154.272466 
C 115.11993 154.272466 115.11993 154.272466 115.11993 154.272466 
C 115.11993 154.272466 115.11993 154.272466 115.11993 154.272466 
C 115.11993 154.272466 115.11993 154.272466 115.11993 154.272466 
z
" clip-path="url(#pa075d21bea)" style="stroke: #000000"/>
    <path d="M 112.92353 142.615956 
C 112.92353 142.615956 112.92353 142.615956 112.92353 142.615956 
C 112.92353 142.615956 112.92353 142.615956 112.92353 142.615956 
C 112.92353 142.615956 112.92353 142.615956 112.92353 142.615956 
C 112.92353 142.615956 112.92353 142.615956 112.92353 142.615956 
C 112.92353 142.615956 112.92353 142.615956 112.92353 142.615956 
C 112.92353 142.615956 112.92353 142.615956 112.92353 142.615956 
C 112.92353 142.615956 112.92353 142.615956 112.92353 142.615956 
C 112.92353 142.615956 112.92353 142.615956 112.92353 142.615956 
z
" clip-path="url(#pa075d21bea)" style="stroke: #000000"/>
    <path d="M 109.136096 131.875878 
C 109.136096 131.875878 109.136096 131.875878 109.136096 131.875878 
C 109.136096 131.875878 109.136096 131.875878 109.136096 131.875878 
C 109.136096 131.875878 109.136096 131.875878 109.136096 131.875878 
C 109.136096 131.875878 109.136096 131.875878 109.136096 131.875878 
C 109.136096 131.875878 109.136096 131.875878 109.136096 131.875878 
C 109.136096 131.875878 109.136096 131.875878 109.136096 131.875878 
C 109.136096 131.875878 109.136096 131.875878 109.136096 131.875878 
C 109.136096 131.875878 109.136096 131.875878 109.136096 131.875878 
z
" clip-path="url(#pa075d21bea)" style="stroke: #000000"/>
    <path d="M 106.817516 120.681872 
C 106.817516 120.681872 106.817516 120.681872 106.817516 120.681872 
C 106.817516 120.681872 106.817516 120.681872 106.817516 120.681872 
C 106.817516 120.681872 106.817516 120.681872 106.817516 120.681872 
C 106.817516 120.681872 106.817516 120.681872 106.817516 120.681872 
C 106.817516 120.681872 106.817516 120.681872 106.817516 120.681872 
C 106.817516 120.681872 106.817516 120.681872 106.817516 120.681872 
C 106.817516 120.681872 106.817516 120.681872 106.817516 120.681872 
C 106.817516 120.681872 106.817516 120.681872 106.817516 120.681872 
z
" clip-path="url(#pa075d21bea)" style="stroke: #000000"/>
    <path d="M 100.853483 114.039452 
C 101.273068 114.039452 101.675524 113.872749 101.972215 113.576058 
C 102.268906 113.279366 102.435609 112.87691 102.435609 112.457325 
C 102.435609 112.037741 102.268906 111.635285 101.972215 111.338593 
C 101.675524 111.041902 101.273068 110.875199 100.853483 110.875199 
C 100.433898 110.875199 100.031442 111.041902 99.734751 111.338593 
C 99.438059 111.635285 99.271357 112.037741 99.271357 112.457325 
C 99.271357 112.87691 99.438059 113.279366 99.734751 113.576058 
C 100.031442 113.872749 100.433898 114.039452 100.853483 114.039452 
z
" clip-path="url(#pa075d21bea)" style="stroke: #000000"/>
    <path d="M 96.555706 105.230818 
C 96.555706 105.230818 96.555706 105.230818 96.555706 105.230818 
C 96.555706 105.230818 96.555706 105.230818 96.555706 105.230818 
C 96.555706 105.230818 96.555706 105.230818 96.555706 105.230818 
C 96.555706 105.230818 96.555706 105.230818 96.555706 105.230818 
C 96.555706 105.230818 96.555706 105.230818 96.555706 105.230818 
C 96.555706 105.230818 96.555706 105.230818 96.555706 105.230818 
C 96.555706 105.230818 96.555706 105.230818 96.555706 105.230818 
C 96.555706 105.230818 96.555706 105.230818 96.555706 105.230818 
z
" clip-path="url(#pa075d21bea)" style="stroke: #000000"/>
    <path d="M 92.945038 93.420222 
C 93.038801 93.420222 93.128737 93.382969 93.195038 93.316668 
C 93.261339 93.250368 93.298591 93.160432 93.298591 93.066668 
C 93.298591 92.972905 93.261339 92.882969 93.195038 92.816668 
C 93.128737 92.750368 93.038801 92.713115 92.945038 92.713115 
C 92.851274 92.713115 92.761339 92.750368 92.695038 92.816668 
C 92.628737 92.882969 92.591484 92.972905 92.591484 93.066668 
C 92.591484 93.160432 92.628737 93.250368 92.695038 93.316668 
C 92.761339 93.382969 92.851274 93.420222 92.945038 93.420222 
z
" clip-path="url(#pa075d21bea)" style="stroke: #000000"/>
    <path d="M 91.835985 83.837924 
C 92.255308 83.837924 92.657513 83.671325 92.954019 83.374819 
C 93.250525 83.078313 93.417124 82.676108 93.417124 82.256785 
C 93.417124 81.837462 93.250525 81.435257 92.954019 81.138751 
C 92.657513 80.842245 92.255308 80.675646 91.835985 80.675646 
C 91.416662 80.675646 91.014457 80.842245 90.717951 81.138751 
C 90.421445 81.435257 90.254846 81.837462 90.254846 82.256785 
C 90.254846 82.676108 90.421445 83.078313 90.717951 83.374819 
C 91.014457 83.671325 91.416662 83.837924 91.835985 83.837924 
z
" clip-path="url(#pa075d21bea)" style="stroke: #000000"/>
    <path d="M 87.568904 74.952966 
C 87.926263 74.952966 88.269033 74.810986 88.521724 74.558295 
C 88.774414 74.305605 88.916394 73.962834 88.916394 73.605476 
C 88.916394 73.248117 88.774414 72.905347 88.521724 72.652656 
C 88.269033 72.399966 87.926263 72.257986 87.568904 72.257986 
C 87.211546 72.257986 86.868775 72.399966 86.616085 72.652656 
C 86.363394 72.905347 86.221414 73.248117 86.221414 73.605476 
C 86.221414 73.962834 86.363394 74.305605 86.616085 74.558295 
C 86.868775 74.810986 87.211546 74.952966 87.568904 74.952966 
z
" clip-path="url(#pa075d21bea)" style="stroke: #000000"/>
    <path d="M 83.790761 63.638301 
C 83.790761 63.638301 83.790761 63.638301 83.790761 63.638301 
C 83.790761 63.638301 83.790761 63.638301 83.790761 63.638301 
C 83.790761 63.638301 83.790761 63.638301 83.790761 63.638301 
C 83.790761 63.638301 83.790761 63.638301 83.790761 63.638301 
C 83.790761 63.638301 83.790761 63.638301 83.790761 63.638301 
C 83.790761 63.638301 83.790761 63.638301 83.790761 63.638301 
C 83.790761 63.638301 83.790761 63.638301 83.790761 63.638301 
C 83.790761 63.638301 83.790761 63.638301 83.790761 63.638301 
z
" clip-path="url(#pa075d21bea)" style="stroke: #000000"/>
    <path d="M 83.018858 53.937979 
C 83.018858 53.937979 83.018858 53.937979 83.018858 53.937979 
C 83.018858 53.937979 83.018858 53.937979 83.018858 53.937979 
C 83.018858 53.937979 83.018858 53.937979 83.018858 53.937979 
C 83.018858 53.937979 83.018858 53.937979 83.018858 53.937979 
C 83.018858 53.937979 83.018858 53.937979 83.018858 53.937979 
C 83.018858 53.937979 83.018858 53.937979 83.018858 53.937979 
C 83.018858 53.937979 83.018858 53.937979 83.018858 53.937979 
C 83.018858 53.937979 83.018858 53.937979 83.018858 53.937979 
z
" clip-path="url(#pa075d21bea)" style="stroke: #000000"/>
    <path d="M 83.681483 45.700416 
C 83.983047 45.700416 84.272301 45.580603 84.485539 45.367365 
C 84.698777 45.154127 84.818589 44.864874 84.818589 44.56331 
C 84.818589 44.261746 84.698777 43.972492 84.485539 43.759254 
C 84.272301 43.546016 83.983047 43.426204 83.681483 43.426204 
C 83.379919 43.426204 83.090666 43.546016 82.877428 43.759254 
C 82.66419 43.972492 82.544377 44.261746 82.544377 44.56331 
C 82.544377 44.864874 82.66419 45.154127 82.877428 45.367365 
C 83.090666 45.580603 83.379919 45.700416 83.681483 45.700416 
z
" clip-path="url(#pa075d21bea)" style="stroke: #000000"/>
    <path d="M 77.553824 31.424397 
C 77.553824 31.424397 77.553824 31.424397 77.553824 31.424397 
C 77.553824 31.424397 77.553824 31.424397 77.553824 31.424397 
C 77.553824 31.424397 77.553824 31.424397 77.553824 31.424397 
C 77.553824 31.424397 77.553824 31.424397 77.553824 31.424397 
C 77.553824 31.424397 77.553824 31.424397 77.553824 31.424397 
C 77.553824 31.424397 77.553824 31.424397 77.553824 31.424397 
C 77.553824 31.424397 77.553824 31.424397 77.553824 31.424397 
C 77.553824 31.424397 77.553824 31.424397 77.553824 31.424397 
z
" clip-path="url(#pa075d21bea)" style="stroke: #000000"/>
    <path d="M 111.149512 166.059452 
C 111.149512 166.059452 111.149512 166.059452 111.149512 166.059452 
C 111.149512 166.059452 111.149512 166.059452 111.149512 166.059452 
C 111.149512 166.059452 111.149512 166.059452 111.149512 166.059452 
C 111.149512 166.059452 111.149512 166.059452 111.149512 166.059452 
C 111.149512 166.059452 111.149512 166.059452 111.149512 166.059452 
C 111.149512 166.059452 111.149512 166.059452 111.149512 166.059452 
C 111.149512 166.059452 111.149512 166.059452 111.149512 166.059452 
C 111.149512 166.059452 111.149512 166.059452 111.149512 166.059452 
z
" clip-path="url(#pa075d21bea)" style="stroke: #000000"/>
    <path d="M 104.782073 157.198074 
C 104.782073 157.198074 104.782073 157.198074 104.782073 157.198074 
C 104.782073 157.198074 104.782073 157.198074 104.782073 157.198074 
C 104.782073 157.198074 104.782073 157.198074 104.782073 157.198074 
C 104.782073 157.198074 104.782073 157.198074 104.782073 157.198074 
C 104.782073 157.198074 104.782073 157.198074 104.782073 157.198074 
C 104.782073 157.198074 104.782073 157.198074 104.782073 157.198074 
C 104.782073 157.198074 104.782073 157.198074 104.782073 157.198074 
C 104.782073 157.198074 104.782073 157.198074 104.782073 157.198074 
z
" clip-path="url(#pa075d21bea)" style="stroke: #000000"/>
    <path d="M 107.941356 146.708086 
C 107.941356 146.708086 107.941356 146.708086 107.941356 146.708086 
C 107.941356 146.708086 107.941356 146.708086 107.941356 146.708086 
C 107.941356 146.708086 107.941356 146.708086 107.941356 146.708086 
C 107.941356 146.708086 107.941356 146.708086 107.941356 146.708086 
C 107.941356 146.708086 107.941356 146.708086 107.941356 146.708086 
C 107.941356 146.708086 107.941356 146.708086 107.941356 146.708086 
C 107.941356 146.708086 107.941356 146.708086 107.941356 146.708086 
C 107.941356 146.708086 107.941356 146.708086 107.941356 146.708086 
z
" clip-path="url(#pa075d21bea)" style="stroke: #000000"/>
    <path d="M 100.463152 140.326319 
C 100.882475 140.326319 101.28468 140.15972 101.581186 139.863214 
C 101.877692 139.566708 102.044291 139.164503 102.044291 138.74518 
C 102.044291 138.325857 101.877692 137.923652 101.581186 137.627146 
C 101.28468 137.33064 100.882475 137.164041 100.463152 137.164041 
C 100.043829 137.164041 99.641624 137.33064 99.345118 137.627146 
C 99.048612 137.923652 98.882013 138.325857 98.882013 138.74518 
C 98.882013 139.164503 99.048612 139.566708 99.345118 139.863214 
C 99.641624 140.15972 100.043829 140.326319 100.463152 140.326319 
z
" clip-path="url(#pa075d21bea)" style="stroke: #000000"/>
    <path d="M 97.159495 130.603901 
C 97.577766 130.603901 97.978961 130.43772 98.274723 130.141958 
C 98.570485 129.846196 98.736666 129.445001 98.736666 129.02673 
C 98.736666 128.608459 98.570485 128.207264 98.274723 127.911502 
C 97.978961 127.61574 97.577766 127.449559 97.159495 127.449559 
C 96.741224 127.449559 96.340029 127.61574 96.044267 127.911502 
C 95.748504 128.207264 95.582324 128.608459 95.582324 129.02673 
C 95.582324 129.445001 95.748504 129.846196 96.044267 130.141958 
C 96.340029 130.43772 96.741224 130.603901 97.159495 130.603901 
z
" clip-path="url(#pa075d21bea)" style="stroke: #000000"/>
    <path d="M 94.031068 120.497035 
C 94.450653 120.497035 94.853109 120.330332 95.1498 120.033641 
C 95.446492 119.73695 95.613194 119.334493 95.613194 118.914909 
C 95.613194 118.495324 95.446492 118.092868 95.1498 117.796177 
C 94.853109 117.499485 94.450653 117.332783 94.031068 117.332783 
C 93.611483 117.332783 93.209027 117.499485 92.912336 117.796177 
C 92.615645 118.092868 92.448942 118.495324 92.448942 118.914909 
C 92.448942 119.334493 92.615645 119.73695 92.912336 120.033641 
C 93.209027 120.330332 93.611483 120.497035 94.031068 120.497035 
z
" clip-path="url(#pa075d21bea)" style="stroke: #000000"/>
    <path d="M 86.574146 108.323524 
C 86.993731 108.323524 87.396187 108.156821 87.692878 107.86013 
C 87.98957 107.563439 88.156272 107.160982 88.156272 106.741398 
C 88.156272 106.321813 87.98957 105.919357 87.692878 105.622666 
C 87.396187 105.325974 86.993731 105.159272 86.574146 105.159272 
C 86.154561 105.159272 85.752105 105.325974 85.455414 105.622666 
C 85.158723 105.919357 84.99202 106.321813 84.99202 106.741398 
C 84.99202 107.160982 85.158723 107.563439 85.455414 107.86013 
C 85.752105 108.156821 86.154561 108.323524 86.574146 108.323524 
z
" clip-path="url(#pa075d21bea)" style="stroke: #000000"/>
    <path d="M 87.342737 101.325551 
C 87.342737 101.325551 87.342737 101.325551 87.342737 101.325551 
C 87.342737 101.325551 87.342737 101.325551 87.342737 101.325551 
C 87.342737 101.325551 87.342737 101.325551 87.342737 101.325551 
C 87.342737 101.325551 87.342737 101.325551 87.342737 101.325551 
C 87.342737 101.325551 87.342737 101.325551 87.342737 101.325551 
C 87.342737 101.325551 87.342737 101.325551 87.342737 101.325551 
C 87.342737 101.325551 87.342737 101.325551 87.342737 101.325551 
C 87.342737 101.325551 87.342737 101.325551 87.342737 101.325551 
z
" clip-path="url(#pa075d21bea)" style="stroke: #000000"/>
    <path d="M 82.893406 87.027112 
C 83.016805 87.027112 83.135167 86.978085 83.222424 86.890828 
C 83.309681 86.803571 83.358708 86.685209 83.358708 86.561809 
C 83.358708 86.43841 83.309681 86.320048 83.222424 86.232791 
C 83.135167 86.145534 83.016805 86.096507 82.893406 86.096507 
C 82.770006 86.096507 82.651644 86.145534 82.564387 86.232791 
C 82.47713 86.320048 82.428103 86.43841 82.428103 86.561809 
C 82.428103 86.685209 82.47713 86.803571 82.564387 86.890828 
C 82.651644 86.978085 82.770006 87.027112 82.893406 87.027112 
z
" clip-path="url(#pa075d21bea)" style="stroke: #000000"/>
    <path d="M 77.33501 72.124868 
C 77.428774 72.124868 77.518709 72.087616 77.58501 72.021315 
C 77.651311 71.955014 77.688564 71.865079 77.688564 71.771315 
C 77.688564 71.677552 77.651311 71.587616 77.58501 71.521315 
C 77.518709 71.455014 77.428774 71.417762 77.33501 71.417762 
C 77.241247 71.417762 77.151311 71.455014 77.08501 71.521315 
C 77.018709 71.587616 76.981457 71.677552 76.981457 71.771315 
C 76.981457 71.865079 77.018709 71.955014 77.08501 72.021315 
C 77.151311 72.087616 77.241247 72.124868 77.33501 72.124868 
z
" clip-path="url(#pa075d21bea)" style="stroke: #000000"/>
    <path d="M 72.563759 66.237174 
C 72.958458 66.237174 73.337045 66.080358 73.616139 65.801264 
C 73.895233 65.52217 74.052049 65.143583 74.052049 64.748884 
C 74.052049 64.354186 73.895233 63.975599 73.616139 63.696505 
C 73.337045 63.417411 72.958458 63.260595 72.563759 63.260595 
C 72.16906 63.260595 71.790474 63.417411 71.51138 63.696505 
C 71.232286 63.975599 71.07547 64.354186 71.07547 64.748884 
C 71.07547 65.143583 71.232286 65.52217 71.51138 65.801264 
C 71.790474 66.080358 72.16906 66.237174 72.563759 66.237174 
z
" clip-path="url(#pa075d21bea)" style="stroke: #000000"/>
    <path d="M 71.117739 56.030871 
C 71.470786 56.030871 71.809421 55.890604 72.059063 55.640962 
C 72.308705 55.39132 72.448972 55.052686 72.448972 54.699638 
C 72.448972 54.346591 72.308705 54.007957 72.059063 53.758315 
C 71.809421 53.508673 71.470786 53.368406 71.117739 53.368406 
C 70.764692 53.368406 70.426057 53.508673 70.176415 53.758315 
C 69.926773 54.007957 69.786506 54.346591 69.786506 54.699638 
C 69.786506 55.052686 69.926773 55.39132 70.176415 55.640962 
C 70.426057 55.890604 70.764692 56.030871 71.117739 56.030871 
z
" clip-path="url(#pa075d21bea)" style="stroke: #000000"/>
    <path d="M 64.79368 45.916251 
C 65.12922 45.916251 65.451063 45.782939 65.688325 45.545677 
C 65.925588 45.308414 66.0589 44.986571 66.0589 44.651031 
C 66.0589 44.315491 65.925588 43.993648 65.688325 43.756386 
C 65.451063 43.519123 65.12922 43.385811 64.79368 43.385811 
C 64.45814 43.385811 64.136297 43.519123 63.899035 43.756386 
C 63.661772 43.993648 63.52846 44.315491 63.52846 44.651031 
C 63.52846 44.986571 63.661772 45.308414 63.899035 45.545677 
C 64.136297 45.782939 64.45814 45.916251 64.79368 45.916251 
z
" clip-path="url(#pa075d21bea)" style="stroke: #000000"/>
    <path d="M 65.85491 34.338567 
C 66.021647 34.338567 66.181578 34.272321 66.299479 34.15442 
C 66.417381 34.036519 66.483626 33.876588 66.483626 33.70985 
C 66.483626 33.543112 66.417381 33.383182 66.299479 33.26528 
C 66.181578 33.147379 66.021647 33.081133 65.85491 33.081133 
C 65.688172 33.081133 65.528241 33.147379 65.41034 33.26528 
C 65.292438 33.383182 65.226193 33.543112 65.226193 33.70985 
C 65.226193 33.876588 65.292438 34.036519 65.41034 34.15442 
C 65.528241 34.272321 65.688172 34.338567 65.85491 34.338567 
z
" clip-path="url(#pa075d21bea)" style="stroke: #000000"/>
    <path d="M 99.170463 171.423682 
C 99.170463 171.423682 99.170463 171.423682 99.170463 171.423682 
C 99.170463 171.423682 99.170463 171.423682 99.170463 171.423682 
C 99.170463 171.423682 99.170463 171.423682 99.170463 171.423682 
C 99.170463 171.423682 99.170463 171.423682 99.170463 171.423682 
C 99.170463 171.423682 99.170463 171.423682 99.170463 171.423682 
C 99.170463 171.423682 99.170463 171.423682 99.170463 171.423682 
C 99.170463 171.423682 99.170463 171.423682 99.170463 171.423682 
C 99.170463 171.423682 99.170463 171.423682 99.170463 171.423682 
z
" clip-path="url(#pa075d21bea)" style="stroke: #000000"/>
    <path d="M 97.149519 158.571826 
C 97.149519 158.571826 97.149519 158.571826 97.149519 158.571826 
C 97.149519 158.571826 97.149519 158.571826 97.149519 158.571826 
C 97.149519 158.571826 97.149519 158.571826 97.149519 158.571826 
C 97.149519 158.571826 97.149519 158.571826 97.149519 158.571826 
C 97.149519 158.571826 97.149519 158.571826 97.149519 158.571826 
C 97.149519 158.571826 97.149519 158.571826 97.149519 158.571826 
C 97.149519 158.571826 97.149519 158.571826 97.149519 158.571826 
C 97.149519 158.571826 97.149519 158.571826 97.149519 158.571826 
z
" clip-path="url(#pa075d21bea)" style="stroke: #000000"/>
    <path d="M 94.439222 147.800301 
C 94.439222 147.800301 94.439222 147.800301 94.439222 147.800301 
C 94.439222 147.800301 94.439222 147.800301 94.439222 147.800301 
C 94.439222 147.800301 94.439222 147.800301 94.439222 147.800301 
C 94.439222 147.800301 94.439222 147.800301 94.439222 147.800301 
C 94.439222 147.800301 94.439222 147.800301 94.439222 147.800301 
C 94.439222 147.800301 94.439222 147.800301 94.439222 147.800301 
C 94.439222 147.800301 94.439222 147.800301 94.439222 147.800301 
C 94.439222 147.800301 94.439222 147.800301 94.439222 147.800301 
z
" clip-path="url(#pa075d21bea)" style="stroke: #000000"/>
    <path d="M 89.847014 141.194321 
C 89.847014 141.194321 89.847014 141.194321 89.847014 141.194321 
C 89.847014 141.194321 89.847014 141.194321 89.847014 141.194321 
C 89.847014 141.194321 89.847014 141.194321 89.847014 141.194321 
C 89.847014 141.194321 89.847014 141.194321 89.847014 141.194321 
C 89.847014 141.194321 89.847014 141.194321 89.847014 141.194321 
C 89.847014 141.194321 89.847014 141.194321 89.847014 141.194321 
C 89.847014 141.194321 89.847014 141.194321 89.847014 141.194321 
C 89.847014 141.194321 89.847014 141.194321 89.847014 141.194321 
z
" clip-path="url(#pa075d21bea)" style="stroke: #000000"/>
    <path d="M 84.114026 129.837979 
C 84.237426 129.837979 84.355788 129.788952 84.443045 129.701696 
C 84.530302 129.614439 84.579329 129.496077 84.579329 129.372677 
C 84.579329 129.249277 84.530302 129.130915 84.443045 129.043659 
C 84.355788 128.956402 84.237426 128.907375 84.114026 128.907375 
C 83.990627 128.907375 83.872265 128.956402 83.785008 129.043659 
C 83.697751 129.130915 83.648724 129.249277 83.648724 129.372677 
C 83.648724 129.496077 83.697751 129.614439 83.785008 129.701696 
C 83.872265 129.788952 83.990627 129.837979 84.114026 129.837979 
z
" clip-path="url(#pa075d21bea)" style="stroke: #000000"/>
    <path d="M 84.100624 120.82831 
C 84.100624 120.82831 84.100624 120.82831 84.100624 120.82831 
C 84.100624 120.82831 84.100624 120.82831 84.100624 120.82831 
C 84.100624 120.82831 84.100624 120.82831 84.100624 120.82831 
C 84.100624 120.82831 84.100624 120.82831 84.100624 120.82831 
C 84.100624 120.82831 84.100624 120.82831 84.100624 120.82831 
C 84.100624 120.82831 84.100624 120.82831 84.100624 120.82831 
C 84.100624 120.82831 84.100624 120.82831 84.100624 120.82831 
C 84.100624 120.82831 84.100624 120.82831 84.100624 120.82831 
z
" clip-path="url(#pa075d21bea)" style="stroke: #000000"/>
    <path d="M 77.2299 107.305757 
C 77.323664 107.305757 77.413599 107.268505 77.4799 107.202204 
C 77.546201 107.135903 77.583454 107.045967 77.583454 106.952204 
C 77.583454 106.85844 77.546201 106.768505 77.4799 106.702204 
C 77.413599 106.635903 77.323664 106.59865 77.2299 106.59865 
C 77.136137 106.59865 77.046201 106.635903 76.9799 106.702204 
C 76.913599 106.768505 76.876347 106.85844 76.876347 106.952204 
C 76.876347 107.045967 76.913599 107.135903 76.9799 107.202204 
C 77.046201 107.268505 77.136137 107.305757 77.2299 107.305757 
z
" clip-path="url(#pa075d21bea)" style="stroke: #000000"/>
    <path d="M 72.47083 99.547059 
C 72.890415 99.547059 73.292871 99.380356 73.589562 99.083665 
C 73.886253 98.786974 74.052956 98.384517 74.052956 97.964933 
C 74.052956 97.545348 73.886253 97.142892 73.589562 96.846201 
C 73.292871 96.549509 72.890415 96.382807 72.47083 96.382807 
C 72.051245 96.382807 71.648789 96.549509 71.352098 96.846201 
C 71.055406 97.142892 70.888704 97.545348 70.888704 97.964933 
C 70.888704 98.384517 71.055406 98.786974 71.352098 99.083665 
C 71.648789 99.380356 72.051245 99.547059 72.47083 99.547059 
z
" clip-path="url(#pa075d21bea)" style="stroke: #000000"/>
    <path d="M 70.62496 88.829443 
C 70.981895 88.829443 71.324258 88.687632 71.576649 88.435241 
C 71.82904 88.18285 71.970851 87.840487 71.970851 87.483553 
C 71.970851 87.126618 71.82904 86.784255 71.576649 86.531864 
C 71.324258 86.279473 70.981895 86.137662 70.62496 86.137662 
C 70.268026 86.137662 69.925663 86.279473 69.673272 86.531864 
C 69.420881 86.784255 69.27907 87.126618 69.27907 87.483553 
C 69.27907 87.840487 69.420881 88.18285 69.673272 88.435241 
C 69.925663 88.687632 70.268026 88.829443 70.62496 88.829443 
z
" clip-path="url(#pa075d21bea)" style="stroke: #000000"/>
    <path d="M 70.276713 77.470896 
C 70.370476 77.470896 70.460412 77.433643 70.526713 77.367342 
C 70.593014 77.301042 70.630266 77.211106 70.630266 77.117342 
C 70.630266 77.023579 70.593014 76.933643 70.526713 76.867342 
C 70.460412 76.801042 70.370476 76.763789 70.276713 76.763789 
C 70.182949 76.763789 70.093014 76.801042 70.026713 76.867342 
C 69.960412 76.933643 69.923159 77.023579 69.923159 77.117342 
C 69.923159 77.211106 69.960412 77.301042 70.026713 77.367342 
C 70.093014 77.433643 70.182949 77.470896 70.276713 77.470896 
z
" clip-path="url(#pa075d21bea)" style="stroke: #000000"/>
    <path d="M 63.938945 67.107232 
C 63.938945 67.107232 63.938945 67.107232 63.938945 67.107232 
C 63.938945 67.107232 63.938945 67.107232 63.938945 67.107232 
C 63.938945 67.107232 63.938945 67.107232 63.938945 67.107232 
C 63.938945 67.107232 63.938945 67.107232 63.938945 67.107232 
C 63.938945 67.107232 63.938945 67.107232 63.938945 67.107232 
C 63.938945 67.107232 63.938945 67.107232 63.938945 67.107232 
C 63.938945 67.107232 63.938945 67.107232 63.938945 67.107232 
C 63.938945 67.107232 63.938945 67.107232 63.938945 67.107232 
z
" clip-path="url(#pa075d21bea)" style="stroke: #000000"/>
    <path d="M 56.659775 59.167034 
C 57.012822 59.167034 57.351457 59.026767 57.601099 58.777125 
C 57.850741 58.527483 57.991008 58.188848 57.991008 57.835801 
C 57.991008 57.482754 57.850741 57.144119 57.601099 56.894477 
C 57.351457 56.644835 57.012822 56.504568 56.659775 56.504568 
C 56.306728 56.504568 55.968093 56.644835 55.718451 56.894477 
C 55.468809 57.144119 55.328542 57.482754 55.328542 57.835801 
C 55.328542 58.188848 55.468809 58.527483 55.718451 58.777125 
C 55.968093 59.026767 56.306728 59.167034 56.659775 59.167034 
z
" clip-path="url(#pa075d21bea)" style="stroke: #000000"/>
    <path d="M 57.485508 44.414567 
C 57.579271 44.414567 57.669207 44.377315 57.735508 44.311014 
C 57.801808 44.244713 57.839061 44.154777 57.839061 44.061014 
C 57.839061 43.96725 57.801808 43.877315 57.735508 43.811014 
C 57.669207 43.744713 57.579271 43.707461 57.485508 43.707461 
C 57.391744 43.707461 57.301808 43.744713 57.235508 43.811014 
C 57.169207 43.877315 57.131954 43.96725 57.131954 44.061014 
C 57.131954 44.154777 57.169207 44.244713 57.235508 44.311014 
C 57.301808 44.377315 57.391744 44.414567 57.485508 44.414567 
z
" clip-path="url(#pa075d21bea)" style="stroke: #000000"/>
    <path d="M 55.721806 37.017897 
C 55.721806 37.017897 55.721806 37.017897 55.721806 37.017897 
C 55.721806 37.017897 55.721806 37.017897 55.721806 37.017897 
C 55.721806 37.017897 55.721806 37.017897 55.721806 37.017897 
C 55.721806 37.017897 55.721806 37.017897 55.721806 37.017897 
C 55.721806 37.017897 55.721806 37.017897 55.721806 37.017897 
C 55.721806 37.017897 55.721806 37.017897 55.721806 37.017897 
C 55.721806 37.017897 55.721806 37.017897 55.721806 37.017897 
C 55.721806 37.017897 55.721806 37.017897 55.721806 37.017897 
z
" clip-path="url(#pa075d21bea)" style="stroke: #000000"/>
    <path d="M 87.708814 174.791652 
C 87.708814 174.791652 87.708814 174.791652 87.708814 174.791652 
C 87.708814 174.791652 87.708814 174.791652 87.708814 174.791652 
C 87.708814 174.791652 87.708814 174.791652 87.708814 174.791652 
C 87.708814 174.791652 87.708814 174.791652 87.708814 174.791652 
C 87.708814 174.791652 87.708814 174.791652 87.708814 174.791652 
C 87.708814 174.791652 87.708814 174.791652 87.708814 174.791652 
C 87.708814 174.791652 87.708814 174.791652 87.708814 174.791652 
C 87.708814 174.791652 87.708814 174.791652 87.708814 174.791652 
z
" clip-path="url(#pa075d21bea)" style="stroke: #000000"/>
    <path d="M 83.715802 160.600697 
C 83.715802 160.600697 83.715802 160.600697 83.715802 160.600697 
C 83.715802 160.600697 83.715802 160.600697 83.715802 160.600697 
C 83.715802 160.600697 83.715802 160.600697 83.715802 160.600697 
C 83.715802 160.600697 83.715802 160.600697 83.715802 160.600697 
C 83.715802 160.600697 83.715802 160.600697 83.715802 160.600697 
C 83.715802 160.600697 83.715802 160.600697 83.715802 160.600697 
C 83.715802 160.600697 83.715802 160.600697 83.715802 160.600697 
C 83.715802 160.600697 83.715802 160.600697 83.715802 160.600697 
z
" clip-path="url(#pa075d21bea)" style="stroke: #000000"/>
    <path d="M 77.731568 154.082095 
C 77.731568 154.082095 77.731568 154.082095 77.731568 154.082095 
C 77.731568 154.082095 77.731568 154.082095 77.731568 154.082095 
C 77.731568 154.082095 77.731568 154.082095 77.731568 154.082095 
C 77.731568 154.082095 77.731568 154.082095 77.731568 154.082095 
C 77.731568 154.082095 77.731568 154.082095 77.731568 154.082095 
C 77.731568 154.082095 77.731568 154.082095 77.731568 154.082095 
C 77.731568 154.082095 77.731568 154.082095 77.731568 154.082095 
C 77.731568 154.082095 77.731568 154.082095 77.731568 154.082095 
z
" clip-path="url(#pa075d21bea)" style="stroke: #000000"/>
    <path d="M 78.594597 145.843166 
C 78.594597 145.843166 78.594597 145.843166 78.594597 145.843166 
C 78.594597 145.843166 78.594597 145.843166 78.594597 145.843166 
C 78.594597 145.843166 78.594597 145.843166 78.594597 145.843166 
C 78.594597 145.843166 78.594597 145.843166 78.594597 145.843166 
C 78.594597 145.843166 78.594597 145.843166 78.594597 145.843166 
C 78.594597 145.843166 78.594597 145.843166 78.594597 145.843166 
C 78.594597 145.843166 78.594597 145.843166 78.594597 145.843166 
C 78.594597 145.843166 78.594597 145.843166 78.594597 145.843166 
z
" clip-path="url(#pa075d21bea)" style="stroke: #000000"/>
    <path d="M 74.622372 133.651664 
C 75.041957 133.651664 75.444413 133.484961 75.741104 133.18827 
C 76.037795 132.891579 76.204498 132.489123 76.204498 132.069538 
C 76.204498 131.649953 76.037795 131.247497 75.741104 130.950806 
C 75.444413 130.654115 75.041957 130.487412 74.622372 130.487412 
C 74.202787 130.487412 73.800331 130.654115 73.50364 130.950806 
C 73.206949 131.247497 73.040246 131.649953 73.040246 132.069538 
C 73.040246 132.489123 73.206949 132.891579 73.50364 133.18827 
C 73.800331 133.484961 74.202787 133.651664 74.622372 133.651664 
z
" clip-path="url(#pa075d21bea)" style="stroke: #000000"/>
    <path d="M 68.901093 126.546123 
C 68.901093 126.546123 68.901093 126.546123 68.901093 126.546123 
C 68.901093 126.546123 68.901093 126.546123 68.901093 126.546123 
C 68.901093 126.546123 68.901093 126.546123 68.901093 126.546123 
C 68.901093 126.546123 68.901093 126.546123 68.901093 126.546123 
C 68.901093 126.546123 68.901093 126.546123 68.901093 126.546123 
C 68.901093 126.546123 68.901093 126.546123 68.901093 126.546123 
C 68.901093 126.546123 68.901093 126.546123 68.901093 126.546123 
C 68.901093 126.546123 68.901093 126.546123 68.901093 126.546123 
z
" clip-path="url(#pa075d21bea)" style="stroke: #000000"/>
    <path d="M 69.555114 115.714443 
C 69.648877 115.714443 69.738813 115.677191 69.805114 115.61089 
C 69.871415 115.544589 69.908667 115.454653 69.908667 115.36089 
C 69.908667 115.267127 69.871415 115.177191 69.805114 115.11089 
C 69.738813 115.044589 69.648877 115.007337 69.555114 115.007337 
C 69.46135 115.007337 69.371415 115.044589 69.305114 115.11089 
C 69.238813 115.177191 69.20156 115.267127 69.20156 115.36089 
C 69.20156 115.454653 69.238813 115.544589 69.305114 115.61089 
C 69.371415 115.677191 69.46135 115.714443 69.555114 115.714443 
z
" clip-path="url(#pa075d21bea)" style="stroke: #000000"/>
    <path d="M 65.078069 106.707453 
C 65.497654 106.707453 65.90011 106.54075 66.196801 106.244059 
C 66.493492 105.947368 66.660195 105.544912 66.660195 105.125327 
C 66.660195 104.705742 66.493492 104.303286 66.196801 104.006595 
C 65.90011 103.709903 65.497654 103.543201 65.078069 103.543201 
C 64.658484 103.543201 64.256028 103.709903 63.959337 104.006595 
C 63.662646 104.303286 63.495943 104.705742 63.495943 105.125327 
C 63.495943 105.544912 63.662646 105.947368 63.959337 106.244059 
C 64.256028 106.54075 64.658484 106.707453 65.078069 106.707453 
z
" clip-path="url(#pa075d21bea)" style="stroke: #000000"/>
    <path d="M 61.901678 93.654651 
C 62.321263 93.654651 62.723719 93.487949 63.02041 93.191257 
C 63.317101 92.894566 63.483804 92.49211 63.483804 92.072525 
C 63.483804 91.65294 63.317101 91.250484 63.02041 90.953793 
C 62.723719 90.657102 62.321263 90.490399 61.901678 90.490399 
C 61.482093 90.490399 61.079637 90.657102 60.782946 90.953793 
C 60.486255 91.250484 60.319552 91.65294 60.319552 92.072525 
C 60.319552 92.49211 60.486255 92.894566 60.782946 93.191257 
C 61.079637 93.487949 61.482093 93.654651 61.901678 93.654651 
z
" clip-path="url(#pa075d21bea)" style="stroke: #000000"/>
    <path d="M 57.124229 81.505596 
C 57.539564 81.505596 57.937944 81.340581 58.231631 81.046895 
C 58.525317 80.753208 58.690332 80.354828 58.690332 79.939493 
C 58.690332 79.524158 58.525317 79.125778 58.231631 78.832091 
C 57.937944 78.538405 57.539564 78.373391 57.124229 78.373391 
C 56.708894 78.373391 56.310514 78.538405 56.016827 78.832091 
C 55.723141 79.125778 55.558127 79.524158 55.558127 79.939493 
C 55.558127 80.354828 55.723141 80.753208 56.016827 81.046895 
C 56.310514 81.340581 56.708894 81.505596 57.124229 81.505596 
z
" clip-path="url(#pa075d21bea)" style="stroke: #000000"/>
    <path d="M 54.225453 75.437405 
C 54.644776 75.437405 55.046981 75.270806 55.343487 74.9743 
C 55.639993 74.677794 55.806592 74.275589 55.806592 73.856266 
C 55.806592 73.436943 55.639993 73.034738 55.343487 72.738232 
C 55.046981 72.441726 54.644776 72.275127 54.225453 72.275127 
C 53.80613 72.275127 53.403925 72.441726 53.107419 72.738232 
C 52.810913 73.034738 52.644314 73.436943 52.644314 73.856266 
C 52.644314 74.275589 52.810913 74.677794 53.107419 74.9743 
C 53.403925 75.270806 53.80613 75.437405 54.225453 75.437405 
z
" clip-path="url(#pa075d21bea)" style="stroke: #000000"/>
    <path d="M 50.780831 67.560944 
C 50.780831 67.560944 50.780831 67.560944 50.780831 67.560944 
C 50.780831 67.560944 50.780831 67.560944 50.780831 67.560944 
C 50.780831 67.560944 50.780831 67.560944 50.780831 67.560944 
C 50.780831 67.560944 50.780831 67.560944 50.780831 67.560944 
C 50.780831 67.560944 50.780831 67.560944 50.780831 67.560944 
C 50.780831 67.560944 50.780831 67.560944 50.780831 67.560944 
C 50.780831 67.560944 50.780831 67.560944 50.780831 67.560944 
C 50.780831 67.560944 50.780831 67.560944 50.780831 67.560944 
z
" clip-path="url(#pa075d21bea)" style="stroke: #000000"/>
    <path d="M 45.318699 48.015491 
C 45.318699 48.015491 45.318699 48.015491 45.318699 48.015491 
C 45.318699 48.015491 45.318699 48.015491 45.318699 48.015491 
C 45.318699 48.015491 45.318699 48.015491 45.318699 48.015491 
C 45.318699 48.015491 45.318699 48.015491 45.318699 48.015491 
C 45.318699 48.015491 45.318699 48.015491 45.318699 48.015491 
C 45.318699 48.015491 45.318699 48.015491 45.318699 48.015491 
C 45.318699 48.015491 45.318699 48.015491 45.318699 48.015491 
C 45.318699 48.015491 45.318699 48.015491 45.318699 48.015491 
z
" clip-path="url(#pa075d21bea)" style="stroke: #000000"/>
    <path d="M 79.227472 178.16539 
C 79.227472 178.16539 79.227472 178.16539 79.227472 178.16539 
C 79.227472 178.16539 79.227472 178.16539 79.227472 178.16539 
C 79.227472 178.16539 79.227472 178.16539 79.227472 178.16539 
C 79.227472 178.16539 79.227472 178.16539 79.227472 178.16539 
C 79.227472 178.16539 79.227472 178.16539 79.227472 178.16539 
C 79.227472 178.16539 79.227472 178.16539 79.227472 178.16539 
C 79.227472 178.16539 79.227472 178.16539 79.227472 178.16539 
C 79.227472 178.16539 79.227472 178.16539 79.227472 178.16539 
z
" clip-path="url(#pa075d21bea)" style="stroke: #000000"/>
    <path d="M 73.95339 170.359119 
C 73.95339 170.359119 73.95339 170.359119 73.95339 170.359119 
C 73.95339 170.359119 73.95339 170.359119 73.95339 170.359119 
C 73.95339 170.359119 73.95339 170.359119 73.95339 170.359119 
C 73.95339 170.359119 73.95339 170.359119 73.95339 170.359119 
C 73.95339 170.359119 73.95339 170.359119 73.95339 170.359119 
C 73.95339 170.359119 73.95339 170.359119 73.95339 170.359119 
C 73.95339 170.359119 73.95339 170.359119 73.95339 170.359119 
C 73.95339 170.359119 73.95339 170.359119 73.95339 170.359119 
z
" clip-path="url(#pa075d21bea)" style="stroke: #000000"/>
    <path d="M 71.088998 155.231623 
C 71.088998 155.231623 71.088998 155.231623 71.088998 155.231623 
C 71.088998 155.231623 71.088998 155.231623 71.088998 155.231623 
C 71.088998 155.231623 71.088998 155.231623 71.088998 155.231623 
C 71.088998 155.231623 71.088998 155.231623 71.088998 155.231623 
C 71.088998 155.231623 71.088998 155.231623 71.088998 155.231623 
C 71.088998 155.231623 71.088998 155.231623 71.088998 155.231623 
C 71.088998 155.231623 71.088998 155.231623 71.088998 155.231623 
C 71.088998 155.231623 71.088998 155.231623 71.088998 155.231623 
z
" clip-path="url(#pa075d21bea)" style="stroke: #000000"/>
    <path d="M 68.916954 146.418565 
C 68.916954 146.418565 68.916954 146.418565 68.916954 146.418565 
C 68.916954 146.418565 68.916954 146.418565 68.916954 146.418565 
C 68.916954 146.418565 68.916954 146.418565 68.916954 146.418565 
C 68.916954 146.418565 68.916954 146.418565 68.916954 146.418565 
C 68.916954 146.418565 68.916954 146.418565 68.916954 146.418565 
C 68.916954 146.418565 68.916954 146.418565 68.916954 146.418565 
C 68.916954 146.418565 68.916954 146.418565 68.916954 146.418565 
C 68.916954 146.418565 68.916954 146.418565 68.916954 146.418565 
z
" clip-path="url(#pa075d21bea)" style="stroke: #000000"/>
    <path d="M 62.778643 137.982891 
C 62.778643 137.982891 62.778643 137.982891 62.778643 137.982891 
C 62.778643 137.982891 62.778643 137.982891 62.778643 137.982891 
C 62.778643 137.982891 62.778643 137.982891 62.778643 137.982891 
C 62.778643 137.982891 62.778643 137.982891 62.778643 137.982891 
C 62.778643 137.982891 62.778643 137.982891 62.778643 137.982891 
C 62.778643 137.982891 62.778643 137.982891 62.778643 137.982891 
C 62.778643 137.982891 62.778643 137.982891 62.778643 137.982891 
C 62.778643 137.982891 62.778643 137.982891 62.778643 137.982891 
z
" clip-path="url(#pa075d21bea)" style="stroke: #000000"/>
    <path d="M 66.044216 126.700852 
C 66.463801 126.700852 66.866257 126.534149 67.162949 126.237458 
C 67.45964 125.940767 67.626343 125.538311 67.626343 125.118726 
C 67.626343 124.699141 67.45964 124.296685 67.162949 123.999994 
C 66.866257 123.703303 66.463801 123.5366 66.044216 123.5366 
C 65.624632 123.5366 65.222176 123.703303 64.925484 123.999994 
C 64.628793 124.296685 64.46209 124.699141 64.46209 125.118726 
C 64.46209 125.538311 64.628793 125.940767 64.925484 126.237458 
C 65.222176 126.534149 65.624632 126.700852 66.044216 126.700852 
z
" clip-path="url(#pa075d21bea)" style="stroke: #000000"/>
    <path d="M 58.729733 119.339032 
C 59.122213 119.339032 59.498672 119.183098 59.776198 118.905572 
C 60.053723 118.628046 60.209657 118.251588 60.209657 117.859107 
C 60.209657 117.466627 60.053723 117.090168 59.776198 116.812642 
C 59.498672 116.535117 59.122213 116.379183 58.729733 116.379183 
C 58.337252 116.379183 57.960794 116.535117 57.683268 116.812642 
C 57.405742 117.090168 57.249808 117.466627 57.249808 117.859107 
C 57.249808 118.251588 57.405742 118.628046 57.683268 118.905572 
C 57.960794 119.183098 58.337252 119.339032 58.729733 119.339032 
z
" clip-path="url(#pa075d21bea)" style="stroke: #000000"/>
    <path d="M 54.483114 105.39077 
C 54.862134 105.39077 55.225681 105.240184 55.493688 104.972177 
C 55.761695 104.70417 55.912281 104.340623 55.912281 103.961604 
C 55.912281 103.582584 55.761695 103.219038 55.493688 102.95103 
C 55.225681 102.683023 54.862134 102.532437 54.483114 102.532437 
C 54.104095 102.532437 53.740548 102.683023 53.472541 102.95103 
C 53.204534 103.219038 53.053948 103.582584 53.053948 103.961604 
C 53.053948 104.340623 53.204534 104.70417 53.472541 104.972177 
C 53.740548 105.240184 54.104095 105.39077 54.483114 105.39077 
z
" clip-path="url(#pa075d21bea)" style="stroke: #000000"/>
    <path d="M 47.443806 96.435335 
C 47.85166 96.435335 48.242864 96.273293 48.53126 95.984897 
C 48.819656 95.696501 48.981698 95.305297 48.981698 94.897443 
C 48.981698 94.489589 48.819656 94.098385 48.53126 93.809989 
C 48.242864 93.521593 47.85166 93.359551 47.443806 93.359551 
C 47.035953 93.359551 46.644749 93.521593 46.356353 93.809989 
C 46.067956 94.098385 45.905914 94.489589 45.905914 94.897443 
C 45.905914 95.305297 46.067956 95.696501 46.356353 95.984897 
C 46.644749 96.273293 47.035953 96.435335 47.443806 96.435335 
z
" clip-path="url(#pa075d21bea)" style="stroke: #000000"/>
    <path d="M 43.876639 85.674089 
C 44.10789 85.674089 44.329701 85.582212 44.49322 85.418692 
C 44.65674 85.255173 44.748617 85.033362 44.748617 84.802111 
C 44.748617 84.57086 44.65674 84.349049 44.49322 84.185529 
C 44.329701 84.02201 44.10789 83.930133 43.876639 83.930133 
C 43.645388 83.930133 43.423577 84.02201 43.260057 84.185529 
C 43.096538 84.349049 43.004661 84.57086 43.004661 84.802111 
C 43.004661 85.033362 43.096538 85.255173 43.260057 85.418692 
C 43.423577 85.582212 43.645388 85.674089 43.876639 85.674089 
z
" clip-path="url(#pa075d21bea)" style="stroke: #000000"/>
    <path d="M 43.260586 76.497615 
C 43.260586 76.497615 43.260586 76.497615 43.260586 76.497615 
C 43.260586 76.497615 43.260586 76.497615 43.260586 76.497615 
C 43.260586 76.497615 43.260586 76.497615 43.260586 76.497615 
C 43.260586 76.497615 43.260586 76.497615 43.260586 76.497615 
C 43.260586 76.497615 43.260586 76.497615 43.260586 76.497615 
C 43.260586 76.497615 43.260586 76.497615 43.260586 76.497615 
C 43.260586 76.497615 43.260586 76.497615 43.260586 76.497615 
C 43.260586 76.497615 43.260586 76.497615 43.260586 76.497615 
z
" clip-path="url(#pa075d21bea)" style="stroke: #000000"/>
    <path d="M 38.5628 67.351801 
C 38.5628 67.351801 38.5628 67.351801 38.5628 67.351801 
C 38.5628 67.351801 38.5628 67.351801 38.5628 67.351801 
C 38.5628 67.351801 38.5628 67.351801 38.5628 67.351801 
C 38.5628 67.351801 38.5628 67.351801 38.5628 67.351801 
C 38.5628 67.351801 38.5628 67.351801 38.5628 67.351801 
C 38.5628 67.351801 38.5628 67.351801 38.5628 67.351801 
C 38.5628 67.351801 38.5628 67.351801 38.5628 67.351801 
C 38.5628 67.351801 38.5628 67.351801 38.5628 67.351801 
z
" clip-path="url(#pa075d21bea)" style="stroke: #000000"/>
    <path d="M 67.719869 169.766744 
C 67.719869 169.766744 67.719869 169.766744 67.719869 169.766744 
C 67.719869 169.766744 67.719869 169.766744 67.719869 169.766744 
C 67.719869 169.766744 67.719869 169.766744 67.719869 169.766744 
C 67.719869 169.766744 67.719869 169.766744 67.719869 169.766744 
C 67.719869 169.766744 67.719869 169.766744 67.719869 169.766744 
C 67.719869 169.766744 67.719869 169.766744 67.719869 169.766744 
C 67.719869 169.766744 67.719869 169.766744 67.719869 169.766744 
C 67.719869 169.766744 67.719869 169.766744 67.719869 169.766744 
z
" clip-path="url(#pa075d21bea)" style="stroke: #000000"/>
    <path d="M 61.468775 158.171998 
C 61.822697 158.171998 62.162171 158.031383 62.412432 157.781123 
C 62.662693 157.530862 62.803307 157.191388 62.803307 156.837466 
C 62.803307 156.483544 62.662693 156.14407 62.412432 155.893809 
C 62.162171 155.643549 61.822697 155.502934 61.468775 155.502934 
C 61.114853 155.502934 60.775379 155.643549 60.525119 155.893809 
C 60.274858 156.14407 60.134243 156.483544 60.134243 156.837466 
C 60.134243 157.191388 60.274858 157.530862 60.525119 157.781123 
C 60.775379 158.031383 61.114853 158.171998 61.468775 158.171998 
z
" clip-path="url(#pa075d21bea)" style="stroke: #000000"/>
    <path d="M 54.980703 152.087103 
C 54.980703 152.087103 54.980703 152.087103 54.980703 152.087103 
C 54.980703 152.087103 54.980703 152.087103 54.980703 152.087103 
C 54.980703 152.087103 54.980703 152.087103 54.980703 152.087103 
C 54.980703 152.087103 54.980703 152.087103 54.980703 152.087103 
C 54.980703 152.087103 54.980703 152.087103 54.980703 152.087103 
C 54.980703 152.087103 54.980703 152.087103 54.980703 152.087103 
C 54.980703 152.087103 54.980703 152.087103 54.980703 152.087103 
C 54.980703 152.087103 54.980703 152.087103 54.980703 152.087103 
z
" clip-path="url(#pa075d21bea)" style="stroke: #000000"/>
    <path d="M 53.809391 140.702413 
C 53.809391 140.702413 53.809391 140.702413 53.809391 140.702413 
C 53.809391 140.702413 53.809391 140.702413 53.809391 140.702413 
C 53.809391 140.702413 53.809391 140.702413 53.809391 140.702413 
C 53.809391 140.702413 53.809391 140.702413 53.809391 140.702413 
C 53.809391 140.702413 53.809391 140.702413 53.809391 140.702413 
C 53.809391 140.702413 53.809391 140.702413 53.809391 140.702413 
C 53.809391 140.702413 53.809391 140.702413 53.809391 140.702413 
C 53.809391 140.702413 53.809391 140.702413 53.809391 140.702413 
z
" clip-path="url(#pa075d21bea)" style="stroke: #000000"/>
    <path d="M 50.518849 129.514511 
C 50.518849 129.514511 50.518849 129.514511 50.518849 129.514511 
C 50.518849 129.514511 50.518849 129.514511 50.518849 129.514511 
C 50.518849 129.514511 50.518849 129.514511 50.518849 129.514511 
C 50.518849 129.514511 50.518849 129.514511 50.518849 129.514511 
C 50.518849 129.514511 50.518849 129.514511 50.518849 129.514511 
C 50.518849 129.514511 50.518849 129.514511 50.518849 129.514511 
C 50.518849 129.514511 50.518849 129.514511 50.518849 129.514511 
C 50.518849 129.514511 50.518849 129.514511 50.518849 129.514511 
z
" clip-path="url(#pa075d21bea)" style="stroke: #000000"/>
    <path d="M 46.745219 123.141358 
C 46.989406 123.141358 47.223625 123.044341 47.396291 122.871675 
C 47.568958 122.699008 47.665975 122.464789 47.665975 122.220602 
C 47.665975 121.976415 47.568958 121.742196 47.396291 121.569529 
C 47.223625 121.396863 46.989406 121.299846 46.745219 121.299846 
C 46.501032 121.299846 46.266813 121.396863 46.094146 121.569529 
C 45.92148 121.742196 45.824463 121.976415 45.824463 122.220602 
C 45.824463 122.464789 45.92148 122.699008 46.094146 122.871675 
C 46.266813 123.044341 46.501032 123.141358 46.745219 123.141358 
z
" clip-path="url(#pa075d21bea)" style="stroke: #000000"/>
    <path d="M 46.648359 112.282707 
C 46.742123 112.282707 46.832059 112.245455 46.898359 112.179154 
C 46.96466 112.112853 47.001913 112.022917 47.001913 111.929154 
C 47.001913 111.835391 46.96466 111.745455 46.898359 111.679154 
C 46.832059 111.612853 46.742123 111.575601 46.648359 111.575601 
C 46.554596 111.575601 46.46466 111.612853 46.398359 111.679154 
C 46.332059 111.745455 46.294806 111.835391 46.294806 111.929154 
C 46.294806 112.022917 46.332059 112.112853 46.398359 112.179154 
C 46.46466 112.245455 46.554596 112.282707 46.648359 112.282707 
z
" clip-path="url(#pa075d21bea)" style="stroke: #000000"/>
    <path d="M 42.969617 103.432646 
C 43.388939 103.432646 43.791144 103.266047 44.087651 102.969541 
C 44.384157 102.673035 44.550755 102.27083 44.550755 101.851507 
C 44.550755 101.432184 44.384157 101.029979 44.087651 100.733473 
C 43.791144 100.436967 43.388939 100.270368 42.969617 100.270368 
C 42.550294 100.270368 42.148089 100.436967 41.851583 100.733473 
C 41.555076 101.029979 41.388478 101.432184 41.388478 101.851507 
C 41.388478 102.27083 41.555076 102.673035 41.851583 102.969541 
C 42.148089 103.266047 42.550294 103.432646 42.969617 103.432646 
z
" clip-path="url(#pa075d21bea)" style="stroke: #000000"/>
    <path d="M 35.060537 90.794092 
C 35.414022 90.794092 35.753077 90.653651 36.003029 90.403699 
C 36.252981 90.153747 36.393422 89.814692 36.393422 89.461206 
C 36.393422 89.107721 36.252981 88.768666 36.003029 88.518714 
C 35.753077 88.268762 35.414022 88.128321 35.060537 88.128321 
C 34.707051 88.128321 34.367996 88.268762 34.118044 88.518714 
C 33.868092 88.768666 33.727651 89.107721 33.727651 89.461206 
C 33.727651 89.814692 33.868092 90.153747 34.118044 90.403699 
C 34.367996 90.653651 34.707051 90.794092 35.060537 90.794092 
z
" clip-path="url(#pa075d21bea)" style="stroke: #000000"/>
    <path d="M 34.49274 76.655066 
C 34.49274 76.655066 34.49274 76.655066 34.49274 76.655066 
C 34.49274 76.655066 34.49274 76.655066 34.49274 76.655066 
C 34.49274 76.655066 34.49274 76.655066 34.49274 76.655066 
C 34.49274 76.655066 34.49274 76.655066 34.49274 76.655066 
C 34.49274 76.655066 34.49274 76.655066 34.49274 76.655066 
C 34.49274 76.655066 34.49274 76.655066 34.49274 76.655066 
C 34.49274 76.655066 34.49274 76.655066 34.49274 76.655066 
C 34.49274 76.655066 34.49274 76.655066 34.49274 76.655066 
z
" clip-path="url(#pa075d21bea)" style="stroke: #000000"/>
    <path d="M 53.337566 174.305126 
C 53.337566 174.305126 53.337566 174.305126 53.337566 174.305126 
C 53.337566 174.305126 53.337566 174.305126 53.337566 174.305126 
C 53.337566 174.305126 53.337566 174.305126 53.337566 174.305126 
C 53.337566 174.305126 53.337566 174.305126 53.337566 174.305126 
C 53.337566 174.305126 53.337566 174.305126 53.337566 174.305126 
C 53.337566 174.305126 53.337566 174.305126 53.337566 174.305126 
C 53.337566 174.305126 53.337566 174.305126 53.337566 174.305126 
C 53.337566 174.305126 53.337566 174.305126 53.337566 174.305126 
z
" clip-path="url(#pa075d21bea)" style="stroke: #000000"/>
    <path d="M 50.452275 166.238845 
C 50.452275 166.238845 50.452275 166.238845 50.452275 166.238845 
C 50.452275 166.238845 50.452275 166.238845 50.452275 166.238845 
C 50.452275 166.238845 50.452275 166.238845 50.452275 166.238845 
C 50.452275 166.238845 50.452275 166.238845 50.452275 166.238845 
C 50.452275 166.238845 50.452275 166.238845 50.452275 166.238845 
C 50.452275 166.238845 50.452275 166.238845 50.452275 166.238845 
C 50.452275 166.238845 50.452275 166.238845 50.452275 166.238845 
C 50.452275 166.238845 50.452275 166.238845 50.452275 166.238845 
z
" clip-path="url(#pa075d21bea)" style="stroke: #000000"/>
    <path d="M 47.452486 158.851775 
C 47.452486 158.851775 47.452486 158.851775 47.452486 158.851775 
C 47.452486 158.851775 47.452486 158.851775 47.452486 158.851775 
C 47.452486 158.851775 47.452486 158.851775 47.452486 158.851775 
C 47.452486 158.851775 47.452486 158.851775 47.452486 158.851775 
C 47.452486 158.851775 47.452486 158.851775 47.452486 158.851775 
C 47.452486 158.851775 47.452486 158.851775 47.452486 158.851775 
C 47.452486 158.851775 47.452486 158.851775 47.452486 158.851775 
C 47.452486 158.851775 47.452486 158.851775 47.452486 158.851775 
z
" clip-path="url(#pa075d21bea)" style="stroke: #000000"/>
    <path d="M 43.51095 146.098645 
C 43.863997 146.098645 44.202632 145.958378 44.452274 145.708736 
C 44.701916 145.459094 44.842183 145.120459 44.842183 144.767412 
C 44.842183 144.414365 44.701916 144.075731 44.452274 143.826089 
C 44.202632 143.576447 43.863997 143.43618 43.51095 143.43618 
C 43.157903 143.43618 42.819268 143.576447 42.569626 143.826089 
C 42.319984 144.075731 42.179717 144.414365 42.179717 144.767412 
C 42.179717 145.120459 42.319984 145.459094 42.569626 145.708736 
C 42.819268 145.958378 43.157903 146.098645 43.51095 146.098645 
z
" clip-path="url(#pa075d21bea)" style="stroke: #000000"/>
    <path d="M 40.614137 134.297351 
C 40.614137 134.297351 40.614137 134.297351 40.614137 134.297351 
C 40.614137 134.297351 40.614137 134.297351 40.614137 134.297351 
C 40.614137 134.297351 40.614137 134.297351 40.614137 134.297351 
C 40.614137 134.297351 40.614137 134.297351 40.614137 134.297351 
C 40.614137 134.297351 40.614137 134.297351 40.614137 134.297351 
C 40.614137 134.297351 40.614137 134.297351 40.614137 134.297351 
C 40.614137 134.297351 40.614137 134.297351 40.614137 134.297351 
C 40.614137 134.297351 40.614137 134.297351 40.614137 134.297351 
z
" clip-path="url(#pa075d21bea)" style="stroke: #000000"/>
    <path d="M 33.397828 129.313852 
C 33.397828 129.313852 33.397828 129.313852 33.397828 129.313852 
C 33.397828 129.313852 33.397828 129.313852 33.397828 129.313852 
C 33.397828 129.313852 33.397828 129.313852 33.397828 129.313852 
C 33.397828 129.313852 33.397828 129.313852 33.397828 129.313852 
C 33.397828 129.313852 33.397828 129.313852 33.397828 129.313852 
C 33.397828 129.313852 33.397828 129.313852 33.397828 129.313852 
C 33.397828 129.313852 33.397828 129.313852 33.397828 129.313852 
C 33.397828 129.313852 33.397828 129.313852 33.397828 129.313852 
z
" clip-path="url(#pa075d21bea)" style="stroke: #000000"/>
    <path d="M 32.791171 114.844445 
C 32.791171 114.844445 32.791171 114.844445 32.791171 114.844445 
C 32.791171 114.844445 32.791171 114.844445 32.791171 114.844445 
C 32.791171 114.844445 32.791171 114.844445 32.791171 114.844445 
C 32.791171 114.844445 32.791171 114.844445 32.791171 114.844445 
C 32.791171 114.844445 32.791171 114.844445 32.791171 114.844445 
C 32.791171 114.844445 32.791171 114.844445 32.791171 114.844445 
C 32.791171 114.844445 32.791171 114.844445 32.791171 114.844445 
C 32.791171 114.844445 32.791171 114.844445 32.791171 114.844445 
z
" clip-path="url(#pa075d21bea)" style="stroke: #000000"/>
    <path d="M 29.516788 105.395006 
C 29.516788 105.395006 29.516788 105.395006 29.516788 105.395006 
C 29.516788 105.395006 29.516788 105.395006 29.516788 105.395006 
C 29.516788 105.395006 29.516788 105.395006 29.516788 105.395006 
C 29.516788 105.395006 29.516788 105.395006 29.516788 105.395006 
C 29.516788 105.395006 29.516788 105.395006 29.516788 105.395006 
C 29.516788 105.395006 29.516788 105.395006 29.516788 105.395006 
C 29.516788 105.395006 29.516788 105.395006 29.516788 105.395006 
C 29.516788 105.395006 29.516788 105.395006 29.516788 105.395006 
z
" clip-path="url(#pa075d21bea)" style="stroke: #000000"/>
    <path d="M 40.700042 172.1232 
C 40.700042 172.1232 40.700042 172.1232 40.700042 172.1232 
C 40.700042 172.1232 40.700042 172.1232 40.700042 172.1232 
C 40.700042 172.1232 40.700042 172.1232 40.700042 172.1232 
C 40.700042 172.1232 40.700042 172.1232 40.700042 172.1232 
C 40.700042 172.1232 40.700042 172.1232 40.700042 172.1232 
C 40.700042 172.1232 40.700042 172.1232 40.700042 172.1232 
C 40.700042 172.1232 40.700042 172.1232 40.700042 172.1232 
C 40.700042 172.1232 40.700042 172.1232 40.700042 172.1232 
z
" clip-path="url(#pa075d21bea)" style="stroke: #000000"/>
    <path d="M 35.429944 155.704697 
C 35.429944 155.704697 35.429944 155.704697 35.429944 155.704697 
C 35.429944 155.704697 35.429944 155.704697 35.429944 155.704697 
C 35.429944 155.704697 35.429944 155.704697 35.429944 155.704697 
C 35.429944 155.704697 35.429944 155.704697 35.429944 155.704697 
C 35.429944 155.704697 35.429944 155.704697 35.429944 155.704697 
C 35.429944 155.704697 35.429944 155.704697 35.429944 155.704697 
C 35.429944 155.704697 35.429944 155.704697 35.429944 155.704697 
C 35.429944 155.704697 35.429944 155.704697 35.429944 155.704697 
z
" clip-path="url(#pa075d21bea)" style="stroke: #000000"/>
    <path d="M 31.259594 150.194826 
C 31.259594 150.194826 31.259594 150.194826 31.259594 150.194826 
C 31.259594 150.194826 31.259594 150.194826 31.259594 150.194826 
C 31.259594 150.194826 31.259594 150.194826 31.259594 150.194826 
C 31.259594 150.194826 31.259594 150.194826 31.259594 150.194826 
C 31.259594 150.194826 31.259594 150.194826 31.259594 150.194826 
C 31.259594 150.194826 31.259594 150.194826 31.259594 150.194826 
C 31.259594 150.194826 31.259594 150.194826 31.259594 150.194826 
C 31.259594 150.194826 31.259594 150.194826 31.259594 150.194826 
z
" clip-path="url(#pa075d21bea)" style="stroke: #000000"/>
    <path d="M 29.932562 139.524094 
C 29.932562 139.524094 29.932562 139.524094 29.932562 139.524094 
C 29.932562 139.524094 29.932562 139.524094 29.932562 139.524094 
C 29.932562 139.524094 29.932562 139.524094 29.932562 139.524094 
C 29.932562 139.524094 29.932562 139.524094 29.932562 139.524094 
C 29.932562 139.524094 29.932562 139.524094 29.932562 139.524094 
C 29.932562 139.524094 29.932562 139.524094 29.932562 139.524094 
C 29.932562 139.524094 29.932562 139.524094 29.932562 139.524094 
C 29.932562 139.524094 29.932562 139.524094 29.932562 139.524094 
z
" clip-path="url(#pa075d21bea)" style="stroke: #000000"/>
   </g>
   <g id="matplotlib.axis_1">
    <g id="xtick_1">
     <g id="line2d_1">
      <defs>
       <path id="m8e743c6de1" d="M 0 0 
L 0 3.5 
" style="stroke: #000000; stroke-width: 0.8"/>
      </defs>
      <g>
       <use xlink:href="#m8e743c6de1" x="18" y="189" style="stroke: #000000; stroke-width: 0.8"/>
      </g>
     </g>
     <g id="text_1">
      <!-- 10 -->
      <g transform="translate(7.447656 203.598437)scale(0.1 -0.1)">
       <defs>
        <path id="DejaVuSans-2212" d="M 678 2272 
L 4684 2272 
L 4684 1741 
L 678 1741 
L 678 2272 
z
" transform="scale(0.015625)"/>
        <path id="DejaVuSans-31" d="M 794 531 
L 1825 531 
L 1825 4091 
L 703 3866 
L 703 4441 
L 1819 4666 
L 2450 4666 
L 2450 531 
L 3481 531 
L 3481 0 
L 794 0 
L 794 531 
z
" transform="scale(0.015625)"/>
        <path id="DejaVuSans-30" d="M 2034 4250 
Q 1547 4250 1301 3770 
Q 1056 3291 1056 2328 
Q 1056 1369 1301 889 
Q 1547 409 2034 409 
Q 2525 409 2770 889 
Q 3016 1369 3016 2328 
Q 3016 3291 2770 3770 
Q 2525 4250 2034 4250 
z
M 2034 4750 
Q 2819 4750 3233 4129 
Q 3647 3509 3647 2328 
Q 3647 1150 3233 529 
Q 2819 -91 2034 -91 
Q 1250 -91 836 529 
Q 422 1150 422 2328 
Q 422 3509 836 4129 
Q 1250 4750 2034 4750 
z
" transform="scale(0.015625)"/>
       </defs>
       <use xlink:href="#DejaVuSans-2212"/>
       <use xlink:href="#DejaVuSans-31" x="83.789062"/>
       <use xlink:href="#DejaVuSans-30" x="147.412109"/>
      </g>
     </g>
    </g>
    <g id="xtick_2">
     <g id="line2d_2">
      <g>
       <use xlink:href="#m8e743c6de1" x="73.8" y="189" style="stroke: #000000; stroke-width: 0.8"/>
      </g>
     </g>
     <g id="text_2">
      <!-- 0 -->
      <g transform="translate(70.61875 203.598437)scale(0.1 -0.1)">
       <use xlink:href="#DejaVuSans-30"/>
      </g>
     </g>
    </g>
    <g id="xtick_3">
     <g id="line2d_3">
      <g>
       <use xlink:href="#m8e743c6de1" x="129.6" y="189" style="stroke: #000000; stroke-width: 0.8"/>
      </g>
     </g>
     <g id="text_3">
      <!-- 10 -->
      <g transform="translate(123.2375 203.598437)scale(0.1 -0.1)">
       <use xlink:href="#DejaVuSans-31"/>
       <use xlink:href="#DejaVuSans-30" x="63.623047"/>
      </g>
     </g>
    </g>
   </g>
   <g id="matplotlib.axis_2">
    <g id="ytick_1">
     <g id="line2d_4">
      <defs>
       <path id="m3d1cac6797" d="M 0 0 
L -3.5 0 
" style="stroke: #000000; stroke-width: 0.8"/>
      </defs>
      <g>
       <use xlink:href="#m3d1cac6797" x="18" y="189" style="stroke: #000000; stroke-width: 0.8"/>
      </g>
     </g>
     <g id="text_4">
      <!-- 15 -->
      <g transform="translate(-10.104688 192.799219)scale(0.1 -0.1)">
       <defs>
        <path id="DejaVuSans-35" d="M 691 4666 
L 3169 4666 
L 3169 4134 
L 1269 4134 
L 1269 2991 
Q 1406 3038 1543 3061 
Q 1681 3084 1819 3084 
Q 2600 3084 3056 2656 
Q 3513 2228 3513 1497 
Q 3513 744 3044 326 
Q 2575 -91 1722 -91 
Q 1428 -91 1123 -41 
Q 819 9 494 109 
L 494 744 
Q 775 591 1075 516 
Q 1375 441 1709 441 
Q 2250 441 2565 725 
Q 2881 1009 2881 1497 
Q 2881 1984 2565 2268 
Q 2250 2553 1709 2553 
Q 1456 2553 1204 2497 
Q 953 2441 691 2322 
L 691 4666 
z
" transform="scale(0.015625)"/>
       </defs>
       <use xlink:href="#DejaVuSans-2212"/>
       <use xlink:href="#DejaVuSans-31" x="83.789062"/>
       <use xlink:href="#DejaVuSans-35" x="147.412109"/>
      </g>
     </g>
    </g>
    <g id="ytick_2">
     <g id="line2d_5">
      <g>
       <use xlink:href="#m3d1cac6797" x="18" y="161.82" style="stroke: #000000; stroke-width: 0.8"/>
      </g>
     </g>
     <g id="text_5">
      <!-- 10 -->
      <g transform="translate(-10.104688 165.619219)scale(0.1 -0.1)">
       <use xlink:href="#DejaVuSans-2212"/>
       <use xlink:href="#DejaVuSans-31" x="83.789062"/>
       <use xlink:href="#DejaVuSans-30" x="147.412109"/>
      </g>
     </g>
    </g>
    <g id="ytick_3">
     <g id="line2d_6">
      <g>
       <use xlink:href="#m3d1cac6797" x="18" y="134.64" style="stroke: #000000; stroke-width: 0.8"/>
      </g>
     </g>
     <g id="text_6">
      <!-- 5 -->
      <g transform="translate(-3.742188 138.439219)scale(0.1 -0.1)">
       <use xlink:href="#DejaVuSans-2212"/>
       <use xlink:href="#DejaVuSans-35" x="83.789062"/>
      </g>
     </g>
    </g>
    <g id="ytick_4">
     <g id="line2d_7">
      <g>
       <use xlink:href="#m3d1cac6797" x="18" y="107.46" style="stroke: #000000; stroke-width: 0.8"/>
      </g>
     </g>
     <g id="text_7">
      <!-- 0 -->
      <g transform="translate(4.6375 111.259219)scale(0.1 -0.1)">
       <use xlink:href="#DejaVuSans-30"/>
      </g>
     </g>
    </g>
    <g id="ytick_5">
     <g id="line2d_8">
      <g>
       <use xlink:href="#m3d1cac6797" x="18" y="80.28" style="stroke: #000000; stroke-width: 0.8"/>
      </g>
     </g>
     <g id="text_8">
      <!-- 5 -->
      <g transform="translate(4.6375 84.079219)scale(0.1 -0.1)">
       <use xlink:href="#DejaVuSans-35"/>
      </g>
     </g>
    </g>
    <g id="ytick_6">
     <g id="line2d_9">
      <g>
       <use xlink:href="#m3d1cac6797" x="18" y="53.1" style="stroke: #000000; stroke-width: 0.8"/>
      </g>
     </g>
     <g id="text_9">
      <!-- 10 -->
      <g transform="translate(-1.725 56.899219)scale(0.1 -0.1)">
       <use xlink:href="#DejaVuSans-31"/>
       <use xlink:href="#DejaVuSans-30" x="63.623047"/>
      </g>
     </g>
    </g>
    <g id="ytick_7">
     <g id="line2d_10">
      <g>
       <use xlink:href="#m3d1cac6797" x="18" y="25.92" style="stroke: #000000; stroke-width: 0.8"/>
      </g>
     </g>
     <g id="text_10">
      <!-- 15 -->
      <g transform="translate(-1.725 29.719219)scale(0.1 -0.1)">
       <use xlink:href="#DejaVuSans-31"/>
       <use xlink:href="#DejaVuSans-35" x="63.623047"/>
      </g>
     </g>
    </g>
   </g>
   <g id="patch_3">
    <path d="M 18 189 
L 18 25.92 
" style="fill: none; stroke: #000000; stroke-width: 0.8; stroke-linejoin: miter; stroke-linecap: square"/>
   </g>
   <g id="patch_4">
    <path d="M 129.6 189 
L 129.6 25.92 
" style="fill: none; stroke: #000000; stroke-width: 0.8; stroke-linejoin: miter; stroke-linecap: square"/>
   </g>
   <g id="patch_5">
    <path d="M 18 189 
L 129.6 189 
" style="fill: none; stroke: #000000; stroke-width: 0.8; stroke-linejoin: miter; stroke-linecap: square"/>
   </g>
   <g id="patch_6">
    <path d="M 18 25.92 
L 129.6 25.92 
" style="fill: none; stroke: #000000; stroke-width: 0.8; stroke-linejoin: miter; stroke-linecap: square"/>
   </g>
  </g>
 </g>
 <defs>
  <clipPath id="pa075d21bea">
   <rect x="18" y="25.92" width="111.6" height="163.08"/>
  </clipPath>
 </defs>
</svg>
