<?xml version="1.0" encoding="utf-8" standalone="no"?>
<!DOCTYPE svg PUBLIC "-//W3C//DTD SVG 1.1//EN"
  "http://www.w3.org/Graphics/SVG/1.1/DTD/svg11.dtd">
<svg xmlns:xlink="http://www.w3.org/1999/xlink" width="144pt" height="216pt" viewBox="0 0 144 216" xmlns="http://www.w3.org/2000/svg" version="1.1">
 <metadata>
  <rdf:RDF xmlns:dc="http://purl.org/dc/elements/1.1/" xmlns:cc="http://creativecommons.org/ns#" xmlns:rdf="http://www.w3.org/1999/02/22-rdf-syntax-ns#">
   <cc:Work>
    <dc:type rdf:resource="http://purl.org/dc/dcmitype/StillImage"/>
    <dc:date>2022-06-23T12:16:58.522600</dc:date>
    <dc:format>image/svg+xml</dc:format>
    <dc:creator>
     <cc:Agent>
      <dc:title>Matplotlib v3.5.1, https://matplotlib.org/</dc:title>
     </cc:Agent>
    </dc:creator>
   </cc:Work>
  </rdf:RDF>
 </metadata>
 <defs>
  <style type="text/css">*{stroke-linejoin: round; stroke-linecap: butt}</style>
 </defs>
 <g id="figure_1">
  <g id="patch_1">
   <path d="M 0 216 
L 144 216 
L 144 0 
L 0 0 
L 0 216 
z
" style="fill: none"/>
  </g>
  <g id="axes_1">
   <g id="patch_2">
    <path d="M 18 189 
L 129.6 189 
L 129.6 25.92 
L 18 25.92 
z
" style="fill: #ffffff"/>
   </g>
   <g id="PathCollection_1">
    <defs>
     <path id="m52d97c237f" d="M 0 2.738613 
C 0.726289 2.738613 1.422928 2.450055 1.936492 1.936492 
C 2.450055 1.422928 2.738613 0.726289 2.738613 0 
C 2.738613 -0.726289 2.450055 -1.422928 1.936492 -1.936492 
C 1.422928 -2.450055 0.726289 -2.738613 0 -2.738613 
C -0.726289 -2.738613 -1.422928 -2.450055 -1.936492 -1.936492 
C -2.450055 -1.422928 -2.738613 -0.726289 -2.738613 0 
C -2.738613 0.726289 -2.450055 1.422928 -1.936492 1.936492 
C -1.422928 2.450055 -0.726289 2.738613 0 2.738613 
z
" style="stroke: #ff0000; stroke-width: 1.75"/>
    </defs>
    <g clip-path="url(#p8e5bfd39a0)">
     <use xlink:href="#m52d97c237f" x="80.775" y="107.46" style="fill: #ff0000; stroke: #ff0000; stroke-width: 1.75"/>
     <use xlink:href="#m52d97c237f" x="94.725" y="107.46" style="fill: #ff0000; stroke: #ff0000; stroke-width: 1.75"/>
     <use xlink:href="#m52d97c237f" x="59.85" y="119.229285" style="fill: #ff0000; stroke: #ff0000; stroke-width: 1.75"/>
     <use xlink:href="#m52d97c237f" x="73.8" y="119.229285" style="fill: #ff0000; stroke: #ff0000; stroke-width: 1.75"/>
     <use xlink:href="#m52d97c237f" x="87.75" y="119.229285" style="fill: #ff0000; stroke: #ff0000; stroke-width: 1.75"/>
     <use xlink:href="#m52d97c237f" x="66.825" y="130.99857" style="fill: #ff0000; stroke: #ff0000; stroke-width: 1.75"/>
     <use xlink:href="#m52d97c237f" x="80.775" y="130.99857" style="fill: #ff0000; stroke: #ff0000; stroke-width: 1.75"/>
    </g>
   </g>
   <g id="PathCollection_2">
    <defs>
     <path id="C0_0_d18cb9f44a" d="M 0 2.738613 
C 0.726289 2.738613 1.422928 2.450055 1.936492 1.936492 
C 2.450055 1.422928 2.738613 0.726289 2.738613 -0 
C 2.738613 -0.726289 2.450055 -1.422928 1.936492 -1.936492 
C 1.422928 -2.450055 0.726289 -2.738613 0 -2.738613 
C -0.726289 -2.738613 -1.422928 -2.450055 -1.936492 -1.936492 
C -2.450055 -1.422928 -2.738613 -0.726289 -2.738613 0 
C -2.738613 0.726289 -2.450055 1.422928 -1.936492 1.936492 
C -1.422928 2.450055 -0.726289 2.738613 0 2.738613 
z
"/>
    </defs>
    <g clip-path="url(#p8e5bfd39a0)">
     <use xlink:href="#C0_0_d18cb9f44a" x="66.825" y="83.92143" style="fill: none; stroke: #ff0000; stroke-width: 1.75"/>
    </g>
    <g clip-path="url(#p8e5bfd39a0)">
     <use xlink:href="#C0_0_d18cb9f44a" x="80.775" y="83.92143" style="fill: none; stroke: #ff0000; stroke-width: 1.75"/>
    </g>
    <g clip-path="url(#p8e5bfd39a0)">
     <use xlink:href="#C0_0_d18cb9f44a" x="59.85" y="95.690715" style="fill: none; stroke: #ff0000; stroke-width: 1.75"/>
    </g>
    <g clip-path="url(#p8e5bfd39a0)">
     <use xlink:href="#C0_0_d18cb9f44a" x="73.8" y="95.690715" style="fill: none; stroke: #ff0000; stroke-width: 1.75"/>
    </g>
    <g clip-path="url(#p8e5bfd39a0)">
     <use xlink:href="#C0_0_d18cb9f44a" x="87.75" y="95.690715" style="fill: none; stroke: #ff0000; stroke-width: 1.75"/>
    </g>
    <g clip-path="url(#p8e5bfd39a0)">
     <use xlink:href="#C0_0_d18cb9f44a" x="52.875" y="107.46" style="fill: none; stroke: #ff0000; stroke-width: 1.75"/>
    </g>
    <g clip-path="url(#p8e5bfd39a0)">
     <use xlink:href="#C0_0_d18cb9f44a" x="66.825" y="107.46" style="fill: none; stroke: #ff0000; stroke-width: 1.75"/>
    </g>
   </g>
   <g id="PathCollection_3">
    <path d="M 105.720289 57.581297 
C 105.720289 57.581297 105.720289 57.581297 105.720289 57.581297 
C 105.720289 57.581297 105.720289 57.581297 105.720289 57.581297 
C 105.720289 57.581297 105.720289 57.581297 105.720289 57.581297 
C 105.720289 57.581297 105.720289 57.581297 105.720289 57.581297 
C 105.720289 57.581297 105.720289 57.581297 105.720289 57.581297 
C 105.720289 57.581297 105.720289 57.581297 105.720289 57.581297 
C 105.720289 57.581297 105.720289 57.581297 105.720289 57.581297 
C 105.720289 57.581297 105.720289 57.581297 105.720289 57.581297 
z
" clip-path="url(#p8e5bfd39a0)" style="stroke: #000000"/>
    <path d="M 116.306218 124.320224 
C 116.306218 124.320224 116.306218 124.320224 116.306218 124.320224 
C 116.306218 124.320224 116.306218 124.320224 116.306218 124.320224 
C 116.306218 124.320224 116.306218 124.320224 116.306218 124.320224 
C 116.306218 124.320224 116.306218 124.320224 116.306218 124.320224 
C 116.306218 124.320224 116.306218 124.320224 116.306218 124.320224 
C 116.306218 124.320224 116.306218 124.320224 116.306218 124.320224 
C 116.306218 124.320224 116.306218 124.320224 116.306218 124.320224 
C 116.306218 124.320224 116.306218 124.320224 116.306218 124.320224 
z
" clip-path="url(#p8e5bfd39a0)" style="stroke: #000000"/>
    <path d="M 113.318008 105.738547 
C 113.318008 105.738547 113.318008 105.738547 113.318008 105.738547 
C 113.318008 105.738547 113.318008 105.738547 113.318008 105.738547 
C 113.318008 105.738547 113.318008 105.738547 113.318008 105.738547 
C 113.318008 105.738547 113.318008 105.738547 113.318008 105.738547 
C 113.318008 105.738547 113.318008 105.738547 113.318008 105.738547 
C 113.318008 105.738547 113.318008 105.738547 113.318008 105.738547 
C 113.318008 105.738547 113.318008 105.738547 113.318008 105.738547 
C 113.318008 105.738547 113.318008 105.738547 113.318008 105.738547 
z
" clip-path="url(#p8e5bfd39a0)" style="stroke: #000000"/>
    <path d="M 111.136447 101.432774 
C 111.136447 101.432774 111.136447 101.432774 111.136447 101.432774 
C 111.136447 101.432774 111.136447 101.432774 111.136447 101.432774 
C 111.136447 101.432774 111.136447 101.432774 111.136447 101.432774 
C 111.136447 101.432774 111.136447 101.432774 111.136447 101.432774 
C 111.136447 101.432774 111.136447 101.432774 111.136447 101.432774 
C 111.136447 101.432774 111.136447 101.432774 111.136447 101.432774 
C 111.136447 101.432774 111.136447 101.432774 111.136447 101.432774 
C 111.136447 101.432774 111.136447 101.432774 111.136447 101.432774 
z
" clip-path="url(#p8e5bfd39a0)" style="stroke: #000000"/>
    <path d="M 108.505215 86.720562 
C 108.505215 86.720562 108.505215 86.720562 108.505215 86.720562 
C 108.505215 86.720562 108.505215 86.720562 108.505215 86.720562 
C 108.505215 86.720562 108.505215 86.720562 108.505215 86.720562 
C 108.505215 86.720562 108.505215 86.720562 108.505215 86.720562 
C 108.505215 86.720562 108.505215 86.720562 108.505215 86.720562 
C 108.505215 86.720562 108.505215 86.720562 108.505215 86.720562 
C 108.505215 86.720562 108.505215 86.720562 108.505215 86.720562 
C 108.505215 86.720562 108.505215 86.720562 108.505215 86.720562 
z
" clip-path="url(#p8e5bfd39a0)" style="stroke: #000000"/>
    <path d="M 105.850867 82.358913 
C 105.850867 82.358913 105.850867 82.358913 105.850867 82.358913 
C 105.850867 82.358913 105.850867 82.358913 105.850867 82.358913 
C 105.850867 82.358913 105.850867 82.358913 105.850867 82.358913 
C 105.850867 82.358913 105.850867 82.358913 105.850867 82.358913 
C 105.850867 82.358913 105.850867 82.358913 105.850867 82.358913 
C 105.850867 82.358913 105.850867 82.358913 105.850867 82.358913 
C 105.850867 82.358913 105.850867 82.358913 105.850867 82.358913 
C 105.850867 82.358913 105.850867 82.358913 105.850867 82.358913 
z
" clip-path="url(#p8e5bfd39a0)" style="stroke: #000000"/>
    <path d="M 97.637708 70.722323 
C 97.637708 70.722323 97.637708 70.722323 97.637708 70.722323 
C 97.637708 70.722323 97.637708 70.722323 97.637708 70.722323 
C 97.637708 70.722323 97.637708 70.722323 97.637708 70.722323 
C 97.637708 70.722323 97.637708 70.722323 97.637708 70.722323 
C 97.637708 70.722323 97.637708 70.722323 97.637708 70.722323 
C 97.637708 70.722323 97.637708 70.722323 97.637708 70.722323 
C 97.637708 70.722323 97.637708 70.722323 97.637708 70.722323 
C 97.637708 70.722323 97.637708 70.722323 97.637708 70.722323 
z
" clip-path="url(#p8e5bfd39a0)" style="stroke: #000000"/>
    <path d="M 95.635892 60.277126 
C 95.635892 60.277126 95.635892 60.277126 95.635892 60.277126 
C 95.635892 60.277126 95.635892 60.277126 95.635892 60.277126 
C 95.635892 60.277126 95.635892 60.277126 95.635892 60.277126 
C 95.635892 60.277126 95.635892 60.277126 95.635892 60.277126 
C 95.635892 60.277126 95.635892 60.277126 95.635892 60.277126 
C 95.635892 60.277126 95.635892 60.277126 95.635892 60.277126 
C 95.635892 60.277126 95.635892 60.277126 95.635892 60.277126 
C 95.635892 60.277126 95.635892 60.277126 95.635892 60.277126 
z
" clip-path="url(#p8e5bfd39a0)" style="stroke: #000000"/>
    <path d="M 91.801901 46.514623 
C 91.801901 46.514623 91.801901 46.514623 91.801901 46.514623 
C 91.801901 46.514623 91.801901 46.514623 91.801901 46.514623 
C 91.801901 46.514623 91.801901 46.514623 91.801901 46.514623 
C 91.801901 46.514623 91.801901 46.514623 91.801901 46.514623 
C 91.801901 46.514623 91.801901 46.514623 91.801901 46.514623 
C 91.801901 46.514623 91.801901 46.514623 91.801901 46.514623 
C 91.801901 46.514623 91.801901 46.514623 91.801901 46.514623 
C 91.801901 46.514623 91.801901 46.514623 91.801901 46.514623 
z
" clip-path="url(#p8e5bfd39a0)" style="stroke: #000000"/>
    <path d="M 119.107596 163.112864 
C 119.107596 163.112864 119.107596 163.112864 119.107596 163.112864 
C 119.107596 163.112864 119.107596 163.112864 119.107596 163.112864 
C 119.107596 163.112864 119.107596 163.112864 119.107596 163.112864 
C 119.107596 163.112864 119.107596 163.112864 119.107596 163.112864 
C 119.107596 163.112864 119.107596 163.112864 119.107596 163.112864 
C 119.107596 163.112864 119.107596 163.112864 119.107596 163.112864 
C 119.107596 163.112864 119.107596 163.112864 119.107596 163.112864 
C 119.107596 163.112864 119.107596 163.112864 119.107596 163.112864 
z
" clip-path="url(#p8e5bfd39a0)" style="stroke: #000000"/>
    <path d="M 112.928961 155.64197 
C 113.384266 155.64197 113.820984 155.461075 114.142933 155.139126 
C 114.464882 154.817177 114.645777 154.380459 114.645777 153.925154 
C 114.645777 153.469849 114.464882 153.033131 114.142933 152.711182 
C 113.820984 152.389233 113.384266 152.208338 112.928961 152.208338 
C 112.473656 152.208338 112.036938 152.389233 111.714989 152.711182 
C 111.39304 153.033131 111.212145 153.469849 111.212145 153.925154 
C 111.212145 154.380459 111.39304 154.817177 111.714989 155.139126 
C 112.036938 155.461075 112.473656 155.64197 112.928961 155.64197 
z
" clip-path="url(#p8e5bfd39a0)" style="stroke: #000000"/>
    <path d="M 115.379334 146.530448 
C 115.869687 146.530448 116.340023 146.335629 116.686755 145.988897 
C 117.033487 145.642165 117.228306 145.171829 117.228306 144.681476 
C 117.228306 144.191123 117.033487 143.720787 116.686755 143.374055 
C 116.340023 143.027323 115.869687 142.832504 115.379334 142.832504 
C 114.888981 142.832504 114.418645 143.027323 114.071913 143.374055 
C 113.725181 143.720787 113.530361 144.191123 113.530361 144.681476 
C 113.530361 145.171829 113.725181 145.642165 114.071913 145.988897 
C 114.418645 146.335629 114.888981 146.530448 115.379334 146.530448 
z
" clip-path="url(#p8e5bfd39a0)" style="stroke: #000000"/>
    <path d="M 111.119797 132.450234 
C 111.619081 132.450234 112.097983 132.251866 112.45103 131.898819 
C 112.804077 131.545772 113.002445 131.06687 113.002445 130.567586 
C 113.002445 130.068303 112.804077 129.589401 112.45103 129.236354 
C 112.097983 128.883307 111.619081 128.684939 111.119797 128.684939 
C 110.620513 128.684939 110.141611 128.883307 109.788564 129.236354 
C 109.435517 129.589401 109.237149 130.068303 109.237149 130.567586 
C 109.237149 131.06687 109.435517 131.545772 109.788564 131.898819 
C 110.141611 132.251866 110.620513 132.450234 111.119797 132.450234 
z
" clip-path="url(#p8e5bfd39a0)" style="stroke: #000000"/>
    <path d="M 109.051857 127.212208 
C 109.551141 127.212208 110.030043 127.013841 110.38309 126.660794 
C 110.736137 126.307747 110.934504 125.828845 110.934504 125.329561 
C 110.934504 124.830277 110.736137 124.351375 110.38309 123.998328 
C 110.030043 123.645281 109.551141 123.446913 109.051857 123.446913 
C 108.552573 123.446913 108.073671 123.645281 107.720624 123.998328 
C 107.367577 124.351375 107.169209 124.830277 107.169209 125.329561 
C 107.169209 125.828845 107.367577 126.307747 107.720624 126.660794 
C 108.073671 127.013841 108.552573 127.212208 109.051857 127.212208 
z
" clip-path="url(#p8e5bfd39a0)" style="stroke: #000000"/>
    <path d="M 103.757187 110.621146 
C 104.246883 110.621146 104.716589 110.426587 105.062856 110.08032 
C 105.409124 109.734052 105.603682 109.264347 105.603682 108.77465 
C 105.603682 108.284954 105.409124 107.815248 105.062856 107.468981 
C 104.716589 107.122713 104.246883 106.928155 103.757187 106.928155 
C 103.26749 106.928155 102.797785 107.122713 102.451517 107.468981 
C 102.10525 107.815248 101.910691 108.284954 101.910691 108.77465 
C 101.910691 109.264347 102.10525 109.734052 102.451517 110.08032 
C 102.797785 110.426587 103.26749 110.621146 103.757187 110.621146 
z
" clip-path="url(#p8e5bfd39a0)" style="stroke: #000000"/>
    <path d="M 100.481304 100.115226 
C 100.481304 100.115226 100.481304 100.115226 100.481304 100.115226 
C 100.481304 100.115226 100.481304 100.115226 100.481304 100.115226 
C 100.481304 100.115226 100.481304 100.115226 100.481304 100.115226 
C 100.481304 100.115226 100.481304 100.115226 100.481304 100.115226 
C 100.481304 100.115226 100.481304 100.115226 100.481304 100.115226 
C 100.481304 100.115226 100.481304 100.115226 100.481304 100.115226 
C 100.481304 100.115226 100.481304 100.115226 100.481304 100.115226 
C 100.481304 100.115226 100.481304 100.115226 100.481304 100.115226 
z
" clip-path="url(#p8e5bfd39a0)" style="stroke: #000000"/>
    <path d="M 96.090063 94.575457 
C 96.683075 94.575457 97.251878 94.339851 97.671201 93.920528 
C 98.090524 93.501205 98.32613 92.932401 98.32613 92.339389 
C 98.32613 91.746377 98.090524 91.177573 97.671201 90.75825 
C 97.251878 90.338928 96.683075 90.103321 96.090063 90.103321 
C 95.49705 90.103321 94.928247 90.338928 94.508924 90.75825 
C 94.089601 91.177573 93.853995 91.746377 93.853995 92.339389 
C 93.853995 92.932401 94.089601 93.501205 94.508924 93.920528 
C 94.928247 94.339851 95.49705 94.575457 96.090063 94.575457 
z
" clip-path="url(#p8e5bfd39a0)" style="stroke: #000000"/>
    <path d="M 92.903645 85.222947 
C 93.496657 85.222947 94.065461 84.987341 94.484783 84.568018 
C 94.904106 84.148695 95.139713 83.579891 95.139713 82.986879 
C 95.139713 82.393867 94.904106 81.825063 94.484783 81.40574 
C 94.065461 80.986417 93.496657 80.750811 92.903645 80.750811 
C 92.310632 80.750811 91.741829 80.986417 91.322506 81.40574 
C 90.903183 81.825063 90.667577 82.393867 90.667577 82.986879 
C 90.667577 83.579891 90.903183 84.148695 91.322506 84.568018 
C 91.741829 84.987341 92.310632 85.222947 92.903645 85.222947 
z
" clip-path="url(#p8e5bfd39a0)" style="stroke: #000000"/>
    <path d="M 85.515222 75.170823 
C 86.107492 75.170823 86.675583 74.935512 87.094381 74.516714 
C 87.513179 74.097916 87.74849 73.529825 87.74849 72.937556 
C 87.74849 72.345286 87.513179 71.777195 87.094381 71.358397 
C 86.675583 70.939599 86.107492 70.704288 85.515222 70.704288 
C 84.922953 70.704288 84.354861 70.939599 83.936064 71.358397 
C 83.517266 71.777195 83.281955 72.345286 83.281955 72.937556 
C 83.281955 73.529825 83.517266 74.097916 83.936064 74.516714 
C 84.354861 74.935512 84.922953 75.170823 85.515222 75.170823 
z
" clip-path="url(#p8e5bfd39a0)" style="stroke: #000000"/>
    <path d="M 90.07014 60.351879 
C 90.568802 60.351879 91.047107 60.153758 91.399714 59.801151 
C 91.752321 59.448544 91.950442 58.970239 91.950442 58.471577 
C 91.950442 57.972916 91.752321 57.494611 91.399714 57.142003 
C 91.047107 56.789396 90.568802 56.591276 90.07014 56.591276 
C 89.571479 56.591276 89.093174 56.789396 88.740566 57.142003 
C 88.387959 57.494611 88.189839 57.972916 88.189839 58.471577 
C 88.189839 58.970239 88.387959 59.448544 88.740566 59.801151 
C 89.093174 60.153758 89.571479 60.351879 90.07014 60.351879 
z
" clip-path="url(#p8e5bfd39a0)" style="stroke: #000000"/>
    <path d="M 79.826109 54.225517 
C 80.324771 54.225517 80.803076 54.027397 81.155683 53.674789 
C 81.50829 53.322182 81.706411 52.843877 81.706411 52.345215 
C 81.706411 51.846554 81.50829 51.368249 81.155683 51.015641 
C 80.803076 50.663034 80.324771 50.464914 79.826109 50.464914 
C 79.327447 50.464914 78.849142 50.663034 78.496535 51.015641 
C 78.143928 51.368249 77.945807 51.846554 77.945807 52.345215 
C 77.945807 52.843877 78.143928 53.322182 78.496535 53.674789 
C 78.849142 54.027397 79.327447 54.225517 79.826109 54.225517 
z
" clip-path="url(#p8e5bfd39a0)" style="stroke: #000000"/>
    <path d="M 79.098925 43.508193 
C 79.098925 43.508193 79.098925 43.508193 79.098925 43.508193 
C 79.098925 43.508193 79.098925 43.508193 79.098925 43.508193 
C 79.098925 43.508193 79.098925 43.508193 79.098925 43.508193 
C 79.098925 43.508193 79.098925 43.508193 79.098925 43.508193 
C 79.098925 43.508193 79.098925 43.508193 79.098925 43.508193 
C 79.098925 43.508193 79.098925 43.508193 79.098925 43.508193 
C 79.098925 43.508193 79.098925 43.508193 79.098925 43.508193 
C 79.098925 43.508193 79.098925 43.508193 79.098925 43.508193 
z
" clip-path="url(#p8e5bfd39a0)" style="stroke: #000000"/>
    <path d="M 71.477619 25.874755 
C 71.477619 25.874755 71.477619 25.874755 71.477619 25.874755 
C 71.477619 25.874755 71.477619 25.874755 71.477619 25.874755 
C 71.477619 25.874755 71.477619 25.874755 71.477619 25.874755 
C 71.477619 25.874755 71.477619 25.874755 71.477619 25.874755 
C 71.477619 25.874755 71.477619 25.874755 71.477619 25.874755 
C 71.477619 25.874755 71.477619 25.874755 71.477619 25.874755 
C 71.477619 25.874755 71.477619 25.874755 71.477619 25.874755 
C 71.477619 25.874755 71.477619 25.874755 71.477619 25.874755 
z
" clip-path="url(#p8e5bfd39a0)" style="stroke: #000000"/>
    <path d="M 115.974616 176.367299 
C 115.974616 176.367299 115.974616 176.367299 115.974616 176.367299 
C 115.974616 176.367299 115.974616 176.367299 115.974616 176.367299 
C 115.974616 176.367299 115.974616 176.367299 115.974616 176.367299 
C 115.974616 176.367299 115.974616 176.367299 115.974616 176.367299 
C 115.974616 176.367299 115.974616 176.367299 115.974616 176.367299 
C 115.974616 176.367299 115.974616 176.367299 115.974616 176.367299 
C 115.974616 176.367299 115.974616 176.367299 115.974616 176.367299 
C 115.974616 176.367299 115.974616 176.367299 115.974616 176.367299 
z
" clip-path="url(#p8e5bfd39a0)" style="stroke: #000000"/>
    <path d="M 113.009955 166.919899 
C 113.167646 166.919899 113.318899 166.857248 113.430403 166.745744 
C 113.541908 166.63424 113.604559 166.482986 113.604559 166.325296 
C 113.604559 166.167605 113.541908 166.016352 113.430403 165.904847 
C 113.318899 165.793343 113.167646 165.730692 113.009955 165.730692 
C 112.852264 165.730692 112.701011 165.793343 112.589507 165.904847 
C 112.478003 166.016352 112.415352 166.167605 112.415352 166.325296 
C 112.415352 166.482986 112.478003 166.63424 112.589507 166.745744 
C 112.701011 166.857248 112.852264 166.919899 113.009955 166.919899 
z
" clip-path="url(#p8e5bfd39a0)" style="stroke: #000000"/>
    <path d="M 109.448494 157.268886 
C 109.448494 157.268886 109.448494 157.268886 109.448494 157.268886 
C 109.448494 157.268886 109.448494 157.268886 109.448494 157.268886 
C 109.448494 157.268886 109.448494 157.268886 109.448494 157.268886 
C 109.448494 157.268886 109.448494 157.268886 109.448494 157.268886 
C 109.448494 157.268886 109.448494 157.268886 109.448494 157.268886 
C 109.448494 157.268886 109.448494 157.268886 109.448494 157.268886 
C 109.448494 157.268886 109.448494 157.268886 109.448494 157.268886 
C 109.448494 157.268886 109.448494 157.268886 109.448494 157.268886 
z
" clip-path="url(#p8e5bfd39a0)" style="stroke: #000000"/>
    <path d="M 101.130752 151.283997 
C 101.630036 151.283997 102.108938 151.08563 102.461985 150.732583 
C 102.815032 150.379536 103.0134 149.900634 103.0134 149.40135 
C 103.0134 148.902066 102.815032 148.423164 102.461985 148.070117 
C 102.108938 147.71707 101.630036 147.518702 101.130752 147.518702 
C 100.631468 147.518702 100.152566 147.71707 99.799519 148.070117 
C 99.446472 148.423164 99.248105 148.902066 99.248105 149.40135 
C 99.248105 149.900634 99.446472 150.379536 99.799519 150.732583 
C 100.152566 151.08563 100.631468 151.283997 101.130752 151.283997 
z
" clip-path="url(#p8e5bfd39a0)" style="stroke: #000000"/>
    <path d="M 99.22774 140.412955 
C 99.757627 140.412955 100.265883 140.202428 100.64057 139.827741 
C 101.015257 139.453054 101.225784 138.944798 101.225784 138.414911 
C 101.225784 137.885023 101.015257 137.376767 100.64057 137.00208 
C 100.265883 136.627393 99.757627 136.416867 99.22774 136.416867 
C 98.697852 136.416867 98.189596 136.627393 97.814909 137.00208 
C 97.440222 137.376767 97.229696 137.885023 97.229696 138.414911 
C 97.229696 138.944798 97.440222 139.453054 97.814909 139.827741 
C 98.189596 140.202428 98.697852 140.412955 99.22774 140.412955 
z
" clip-path="url(#p8e5bfd39a0)" style="stroke: #000000"/>
    <path d="M 100.277804 127.23032 
C 100.277804 127.23032 100.277804 127.23032 100.277804 127.23032 
C 100.277804 127.23032 100.277804 127.23032 100.277804 127.23032 
C 100.277804 127.23032 100.277804 127.23032 100.277804 127.23032 
C 100.277804 127.23032 100.277804 127.23032 100.277804 127.23032 
C 100.277804 127.23032 100.277804 127.23032 100.277804 127.23032 
C 100.277804 127.23032 100.277804 127.23032 100.277804 127.23032 
C 100.277804 127.23032 100.277804 127.23032 100.277804 127.23032 
C 100.277804 127.23032 100.277804 127.23032 100.277804 127.23032 
z
" clip-path="url(#p8e5bfd39a0)" style="stroke: #000000"/>
    <path d="M 91.226147 120.588355 
C 91.81953 120.588355 92.388689 120.352601 92.808273 119.933017 
C 93.227858 119.513432 93.463611 118.944273 93.463611 118.35089 
C 93.463611 117.757508 93.227858 117.188349 92.808273 116.768764 
C 92.388689 116.34918 91.81953 116.113426 91.226147 116.113426 
C 90.632765 116.113426 90.063606 116.34918 89.644021 116.768764 
C 89.224436 117.188349 88.988683 117.757508 88.988683 118.35089 
C 88.988683 118.944273 89.224436 119.513432 89.644021 119.933017 
C 90.063606 120.352601 90.632765 120.588355 91.226147 120.588355 
z
" clip-path="url(#p8e5bfd39a0)" style="stroke: #000000"/>
    <path d="M 90.322307 106.18088 
C 90.89585 106.18088 91.445979 105.953009 91.851535 105.547454 
C 92.257091 105.141898 92.484961 104.591769 92.484961 104.018226 
C 92.484961 103.444684 92.257091 102.894555 91.851535 102.488999 
C 91.445979 102.083443 90.89585 101.855572 90.322307 101.855572 
C 89.748765 101.855572 89.198636 102.083443 88.79308 102.488999 
C 88.387524 102.894555 88.159654 103.444684 88.159654 104.018226 
C 88.159654 104.591769 88.387524 105.141898 88.79308 105.547454 
C 89.198636 105.953009 89.748765 106.18088 90.322307 106.18088 
z
" clip-path="url(#p8e5bfd39a0)" style="stroke: #000000"/>
    <path d="M 86.263886 97.786208 
C 86.520382 97.786208 86.766407 97.684301 86.947777 97.502931 
C 87.129147 97.321561 87.231054 97.075536 87.231054 96.81904 
C 87.231054 96.562544 87.129147 96.316519 86.947777 96.135149 
C 86.766407 95.953779 86.520382 95.851872 86.263886 95.851872 
C 86.00739 95.851872 85.761365 95.953779 85.579995 96.135149 
C 85.398625 96.316519 85.296718 96.562544 85.296718 96.81904 
C 85.296718 97.075536 85.398625 97.321561 85.579995 97.502931 
C 85.761365 97.684301 86.00739 97.786208 86.263886 97.786208 
z
" clip-path="url(#p8e5bfd39a0)" style="stroke: #000000"/>
    <path d="M 82.390562 85.997834 
C 82.598094 85.997834 82.797155 85.91538 82.943903 85.768632 
C 83.09065 85.621885 83.173104 85.422824 83.173104 85.215291 
C 83.173104 85.007759 83.09065 84.808698 82.943903 84.66195 
C 82.797155 84.515203 82.598094 84.432749 82.390562 84.432749 
C 82.183029 84.432749 81.983969 84.515203 81.837221 84.66195 
C 81.690473 84.808698 81.608019 85.007759 81.608019 85.215291 
C 81.608019 85.422824 81.690473 85.621885 81.837221 85.768632 
C 81.983969 85.91538 82.183029 85.997834 82.390562 85.997834 
z
" clip-path="url(#p8e5bfd39a0)" style="stroke: #000000"/>
    <path d="M 78.748842 78.702529 
C 78.881443 78.702529 79.008632 78.649846 79.102395 78.556083 
C 79.196158 78.462319 79.248842 78.335131 79.248842 78.202529 
C 79.248842 78.069928 79.196158 77.94274 79.102395 77.848976 
C 79.008632 77.755213 78.881443 77.702529 78.748842 77.702529 
C 78.61624 77.702529 78.489052 77.755213 78.395288 77.848976 
C 78.301525 77.94274 78.248842 78.069928 78.248842 78.202529 
C 78.248842 78.335131 78.301525 78.462319 78.395288 78.556083 
C 78.489052 78.649846 78.61624 78.702529 78.748842 78.702529 
z
" clip-path="url(#p8e5bfd39a0)" style="stroke: #000000"/>
    <path d="M 75.287939 62.462552 
C 75.287939 62.462552 75.287939 62.462552 75.287939 62.462552 
C 75.287939 62.462552 75.287939 62.462552 75.287939 62.462552 
C 75.287939 62.462552 75.287939 62.462552 75.287939 62.462552 
C 75.287939 62.462552 75.287939 62.462552 75.287939 62.462552 
C 75.287939 62.462552 75.287939 62.462552 75.287939 62.462552 
C 75.287939 62.462552 75.287939 62.462552 75.287939 62.462552 
C 75.287939 62.462552 75.287939 62.462552 75.287939 62.462552 
C 75.287939 62.462552 75.287939 62.462552 75.287939 62.462552 
z
" clip-path="url(#p8e5bfd39a0)" style="stroke: #000000"/>
    <path d="M 72.17439 51.779465 
C 72.306992 51.779465 72.43418 51.726782 72.527944 51.633019 
C 72.621707 51.539255 72.67439 51.412067 72.67439 51.279465 
C 72.67439 51.146864 72.621707 51.019675 72.527944 50.925912 
C 72.43418 50.832149 72.306992 50.779465 72.17439 50.779465 
C 72.041789 50.779465 71.9146 50.832149 71.820837 50.925912 
C 71.727073 51.019675 71.67439 51.146864 71.67439 51.279465 
C 71.67439 51.412067 71.727073 51.539255 71.820837 51.633019 
C 71.9146 51.726782 72.041789 51.779465 72.17439 51.779465 
z
" clip-path="url(#p8e5bfd39a0)" style="stroke: #000000"/>
    <path d="M 65.936606 41.948098 
C 65.936606 41.948098 65.936606 41.948098 65.936606 41.948098 
C 65.936606 41.948098 65.936606 41.948098 65.936606 41.948098 
C 65.936606 41.948098 65.936606 41.948098 65.936606 41.948098 
C 65.936606 41.948098 65.936606 41.948098 65.936606 41.948098 
C 65.936606 41.948098 65.936606 41.948098 65.936606 41.948098 
C 65.936606 41.948098 65.936606 41.948098 65.936606 41.948098 
C 65.936606 41.948098 65.936606 41.948098 65.936606 41.948098 
C 65.936606 41.948098 65.936606 41.948098 65.936606 41.948098 
z
" clip-path="url(#p8e5bfd39a0)" style="stroke: #000000"/>
    <path d="M 65.524276 33.146254 
C 65.524276 33.146254 65.524276 33.146254 65.524276 33.146254 
C 65.524276 33.146254 65.524276 33.146254 65.524276 33.146254 
C 65.524276 33.146254 65.524276 33.146254 65.524276 33.146254 
C 65.524276 33.146254 65.524276 33.146254 65.524276 33.146254 
C 65.524276 33.146254 65.524276 33.146254 65.524276 33.146254 
C 65.524276 33.146254 65.524276 33.146254 65.524276 33.146254 
C 65.524276 33.146254 65.524276 33.146254 65.524276 33.146254 
C 65.524276 33.146254 65.524276 33.146254 65.524276 33.146254 
z
" clip-path="url(#p8e5bfd39a0)" style="stroke: #000000"/>
    <path d="M 62.545257 25.595664 
C 62.545257 25.595664 62.545257 25.595664 62.545257 25.595664 
C 62.545257 25.595664 62.545257 25.595664 62.545257 25.595664 
C 62.545257 25.595664 62.545257 25.595664 62.545257 25.595664 
C 62.545257 25.595664 62.545257 25.595664 62.545257 25.595664 
C 62.545257 25.595664 62.545257 25.595664 62.545257 25.595664 
C 62.545257 25.595664 62.545257 25.595664 62.545257 25.595664 
C 62.545257 25.595664 62.545257 25.595664 62.545257 25.595664 
C 62.545257 25.595664 62.545257 25.595664 62.545257 25.595664 
z
" clip-path="url(#p8e5bfd39a0)" style="stroke: #000000"/>
    <path d="M 102.982342 179.099374 
C 102.982342 179.099374 102.982342 179.099374 102.982342 179.099374 
C 102.982342 179.099374 102.982342 179.099374 102.982342 179.099374 
C 102.982342 179.099374 102.982342 179.099374 102.982342 179.099374 
C 102.982342 179.099374 102.982342 179.099374 102.982342 179.099374 
C 102.982342 179.099374 102.982342 179.099374 102.982342 179.099374 
C 102.982342 179.099374 102.982342 179.099374 102.982342 179.099374 
C 102.982342 179.099374 102.982342 179.099374 102.982342 179.099374 
C 102.982342 179.099374 102.982342 179.099374 102.982342 179.099374 
z
" clip-path="url(#p8e5bfd39a0)" style="stroke: #000000"/>
    <path d="M 104.712765 172.397915 
C 104.712765 172.397915 104.712765 172.397915 104.712765 172.397915 
C 104.712765 172.397915 104.712765 172.397915 104.712765 172.397915 
C 104.712765 172.397915 104.712765 172.397915 104.712765 172.397915 
C 104.712765 172.397915 104.712765 172.397915 104.712765 172.397915 
C 104.712765 172.397915 104.712765 172.397915 104.712765 172.397915 
C 104.712765 172.397915 104.712765 172.397915 104.712765 172.397915 
C 104.712765 172.397915 104.712765 172.397915 104.712765 172.397915 
C 104.712765 172.397915 104.712765 172.397915 104.712765 172.397915 
z
" clip-path="url(#p8e5bfd39a0)" style="stroke: #000000"/>
    <path d="M 100.395918 164.17354 
C 100.888872 164.17354 101.361703 163.977687 101.710275 163.629115 
C 102.058846 163.280543 102.254699 162.807713 102.254699 162.314758 
C 102.254699 161.821803 102.058846 161.348973 101.710275 161.000401 
C 101.361703 160.651829 100.888872 160.455976 100.395918 160.455976 
C 99.902963 160.455976 99.430132 160.651829 99.081561 161.000401 
C 98.732989 161.348973 98.537136 161.821803 98.537136 162.314758 
C 98.537136 162.807713 98.732989 163.280543 99.081561 163.629115 
C 99.430132 163.977687 99.902963 164.17354 100.395918 164.17354 
z
" clip-path="url(#p8e5bfd39a0)" style="stroke: #000000"/>
    <path d="M 92.170591 149.11375 
C 92.170591 149.11375 92.170591 149.11375 92.170591 149.11375 
C 92.170591 149.11375 92.170591 149.11375 92.170591 149.11375 
C 92.170591 149.11375 92.170591 149.11375 92.170591 149.11375 
C 92.170591 149.11375 92.170591 149.11375 92.170591 149.11375 
C 92.170591 149.11375 92.170591 149.11375 92.170591 149.11375 
C 92.170591 149.11375 92.170591 149.11375 92.170591 149.11375 
C 92.170591 149.11375 92.170591 149.11375 92.170591 149.11375 
C 92.170591 149.11375 92.170591 149.11375 92.170591 149.11375 
z
" clip-path="url(#p8e5bfd39a0)" style="stroke: #000000"/>
    <path d="M 90.595342 145.567507 
C 91.135327 145.567507 91.653268 145.352969 92.035096 144.971142 
C 92.416923 144.589314 92.631461 144.071373 92.631461 143.531388 
C 92.631461 142.991403 92.416923 142.473461 92.035096 142.091634 
C 91.653268 141.709807 91.135327 141.495269 90.595342 141.495269 
C 90.055357 141.495269 89.537415 141.709807 89.155588 142.091634 
C 88.773761 142.473461 88.559223 142.991403 88.559223 143.531388 
C 88.559223 144.071373 88.773761 144.589314 89.155588 144.971142 
C 89.537415 145.352969 90.055357 145.567507 90.595342 145.567507 
z
" clip-path="url(#p8e5bfd39a0)" style="stroke: #000000"/>
    <path d="M 83.637784 133.76895 
C 84.191474 133.76895 84.722561 133.548966 85.11408 133.157448 
C 85.505598 132.76593 85.725582 132.234843 85.725582 131.681152 
C 85.725582 131.127462 85.505598 130.596375 85.11408 130.204856 
C 84.722561 129.813338 84.191474 129.593355 83.637784 129.593355 
C 83.084093 129.593355 82.553006 129.813338 82.161488 130.204856 
C 81.76997 130.596375 81.549986 131.127462 81.549986 131.681152 
C 81.549986 132.234843 81.76997 132.76593 82.161488 133.157448 
C 82.553006 133.548966 83.084093 133.76895 83.637784 133.76895 
z
" clip-path="url(#p8e5bfd39a0)" style="stroke: #000000"/>
    <path d="M 82.280087 128.570407 
C 82.87347 128.570407 83.442629 128.334653 83.862213 127.915069 
C 84.281798 127.495484 84.517551 126.926325 84.517551 126.332942 
C 84.517551 125.73956 84.281798 125.170401 83.862213 124.750816 
C 83.442629 124.331232 82.87347 124.095478 82.280087 124.095478 
C 81.686705 124.095478 81.117546 124.331232 80.697961 124.750816 
C 80.278376 125.170401 80.042623 125.73956 80.042623 126.332942 
C 80.042623 126.926325 80.278376 127.495484 80.697961 127.915069 
C 81.117546 128.334653 81.686705 128.570407 82.280087 128.570407 
z
" clip-path="url(#p8e5bfd39a0)" style="stroke: #000000"/>
    <path d="M 77.122765 109.168806 
C 77.122765 109.168806 77.122765 109.168806 77.122765 109.168806 
C 77.122765 109.168806 77.122765 109.168806 77.122765 109.168806 
C 77.122765 109.168806 77.122765 109.168806 77.122765 109.168806 
C 77.122765 109.168806 77.122765 109.168806 77.122765 109.168806 
C 77.122765 109.168806 77.122765 109.168806 77.122765 109.168806 
C 77.122765 109.168806 77.122765 109.168806 77.122765 109.168806 
C 77.122765 109.168806 77.122765 109.168806 77.122765 109.168806 
C 77.122765 109.168806 77.122765 109.168806 77.122765 109.168806 
z
" clip-path="url(#p8e5bfd39a0)" style="stroke: #000000"/>
    <path d="M 75.170796 100.639958 
C 75.303397 100.639958 75.430586 100.587275 75.524349 100.493512 
C 75.618112 100.399748 75.670796 100.27256 75.670796 100.139958 
C 75.670796 100.007357 75.618112 99.880168 75.524349 99.786405 
C 75.430586 99.692642 75.303397 99.639958 75.170796 99.639958 
C 75.038194 99.639958 74.911006 99.692642 74.817242 99.786405 
C 74.723479 99.880168 74.670796 100.007357 74.670796 100.139958 
C 74.670796 100.27256 74.723479 100.399748 74.817242 100.493512 
C 74.911006 100.587275 75.038194 100.639958 75.170796 100.639958 
z
" clip-path="url(#p8e5bfd39a0)" style="stroke: #000000"/>
    <path d="M 71.432322 89.314449 
C 71.564924 89.314449 71.692112 89.261766 71.785876 89.168003 
C 71.879639 89.074239 71.932322 88.947051 71.932322 88.814449 
C 71.932322 88.681848 71.879639 88.554659 71.785876 88.460896 
C 71.692112 88.367132 71.564924 88.314449 71.432322 88.314449 
C 71.299721 88.314449 71.172533 88.367132 71.078769 88.460896 
C 70.985006 88.554659 70.932322 88.681848 70.932322 88.814449 
C 70.932322 88.947051 70.985006 89.074239 71.078769 89.168003 
C 71.172533 89.261766 71.299721 89.314449 71.432322 89.314449 
z
" clip-path="url(#p8e5bfd39a0)" style="stroke: #000000"/>
    <path d="M 68.84628 76.814369 
C 68.978881 76.814369 69.10607 76.761686 69.199833 76.667922 
C 69.293597 76.574159 69.34628 76.44697 69.34628 76.314369 
C 69.34628 76.181767 69.293597 76.054579 69.199833 75.960815 
C 69.10607 75.867052 68.978881 75.814369 68.84628 75.814369 
C 68.713678 75.814369 68.58649 75.867052 68.492727 75.960815 
C 68.398963 76.054579 68.34628 76.181767 68.34628 76.314369 
C 68.34628 76.44697 68.398963 76.574159 68.492727 76.667922 
C 68.58649 76.761686 68.713678 76.814369 68.84628 76.814369 
z
" clip-path="url(#p8e5bfd39a0)" style="stroke: #000000"/>
    <path d="M 62.624455 67.213966 
C 62.624455 67.213966 62.624455 67.213966 62.624455 67.213966 
C 62.624455 67.213966 62.624455 67.213966 62.624455 67.213966 
C 62.624455 67.213966 62.624455 67.213966 62.624455 67.213966 
C 62.624455 67.213966 62.624455 67.213966 62.624455 67.213966 
C 62.624455 67.213966 62.624455 67.213966 62.624455 67.213966 
C 62.624455 67.213966 62.624455 67.213966 62.624455 67.213966 
C 62.624455 67.213966 62.624455 67.213966 62.624455 67.213966 
C 62.624455 67.213966 62.624455 67.213966 62.624455 67.213966 
z
" clip-path="url(#p8e5bfd39a0)" style="stroke: #000000"/>
    <path d="M 61.908869 58.627036 
C 61.908869 58.627036 61.908869 58.627036 61.908869 58.627036 
C 61.908869 58.627036 61.908869 58.627036 61.908869 58.627036 
C 61.908869 58.627036 61.908869 58.627036 61.908869 58.627036 
C 61.908869 58.627036 61.908869 58.627036 61.908869 58.627036 
C 61.908869 58.627036 61.908869 58.627036 61.908869 58.627036 
C 61.908869 58.627036 61.908869 58.627036 61.908869 58.627036 
C 61.908869 58.627036 61.908869 58.627036 61.908869 58.627036 
C 61.908869 58.627036 61.908869 58.627036 61.908869 58.627036 
z
" clip-path="url(#p8e5bfd39a0)" style="stroke: #000000"/>
    <path d="M 62.04298 52.198395 
C 62.536579 52.198395 63.010027 52.002286 63.359054 51.653259 
C 63.708081 51.304233 63.90419 50.830784 63.90419 50.337185 
C 63.90419 49.843587 63.708081 49.370138 63.359054 49.021111 
C 63.010027 48.672085 62.536579 48.475976 62.04298 48.475976 
C 61.549382 48.475976 61.075933 48.672085 60.726906 49.021111 
C 60.377879 49.370138 60.181771 49.843587 60.181771 50.337185 
C 60.181771 50.830784 60.377879 51.304233 60.726906 51.653259 
C 61.075933 52.002286 61.549382 52.198395 62.04298 52.198395 
z
" clip-path="url(#p8e5bfd39a0)" style="stroke: #000000"/>
    <path d="M 48.781984 36.504549 
C 48.781984 36.504549 48.781984 36.504549 48.781984 36.504549 
C 48.781984 36.504549 48.781984 36.504549 48.781984 36.504549 
C 48.781984 36.504549 48.781984 36.504549 48.781984 36.504549 
C 48.781984 36.504549 48.781984 36.504549 48.781984 36.504549 
C 48.781984 36.504549 48.781984 36.504549 48.781984 36.504549 
C 48.781984 36.504549 48.781984 36.504549 48.781984 36.504549 
C 48.781984 36.504549 48.781984 36.504549 48.781984 36.504549 
C 48.781984 36.504549 48.781984 36.504549 48.781984 36.504549 
z
" clip-path="url(#p8e5bfd39a0)" style="stroke: #000000"/>
    <path d="M 90.906534 174.690761 
C 90.906534 174.690761 90.906534 174.690761 90.906534 174.690761 
C 90.906534 174.690761 90.906534 174.690761 90.906534 174.690761 
C 90.906534 174.690761 90.906534 174.690761 90.906534 174.690761 
C 90.906534 174.690761 90.906534 174.690761 90.906534 174.690761 
C 90.906534 174.690761 90.906534 174.690761 90.906534 174.690761 
C 90.906534 174.690761 90.906534 174.690761 90.906534 174.690761 
C 90.906534 174.690761 90.906534 174.690761 90.906534 174.690761 
C 90.906534 174.690761 90.906534 174.690761 90.906534 174.690761 
z
" clip-path="url(#p8e5bfd39a0)" style="stroke: #000000"/>
    <path d="M 89.967445 160.996387 
C 89.967445 160.996387 89.967445 160.996387 89.967445 160.996387 
C 89.967445 160.996387 89.967445 160.996387 89.967445 160.996387 
C 89.967445 160.996387 89.967445 160.996387 89.967445 160.996387 
C 89.967445 160.996387 89.967445 160.996387 89.967445 160.996387 
C 89.967445 160.996387 89.967445 160.996387 89.967445 160.996387 
C 89.967445 160.996387 89.967445 160.996387 89.967445 160.996387 
C 89.967445 160.996387 89.967445 160.996387 89.967445 160.996387 
C 89.967445 160.996387 89.967445 160.996387 89.967445 160.996387 
z
" clip-path="url(#p8e5bfd39a0)" style="stroke: #000000"/>
    <path d="M 78.48115 153.67284 
C 78.48115 153.67284 78.48115 153.67284 78.48115 153.67284 
C 78.48115 153.67284 78.48115 153.67284 78.48115 153.67284 
C 78.48115 153.67284 78.48115 153.67284 78.48115 153.67284 
C 78.48115 153.67284 78.48115 153.67284 78.48115 153.67284 
C 78.48115 153.67284 78.48115 153.67284 78.48115 153.67284 
C 78.48115 153.67284 78.48115 153.67284 78.48115 153.67284 
C 78.48115 153.67284 78.48115 153.67284 78.48115 153.67284 
C 78.48115 153.67284 78.48115 153.67284 78.48115 153.67284 
z
" clip-path="url(#p8e5bfd39a0)" style="stroke: #000000"/>
    <path d="M 80.958875 147.065764 
C 80.958875 147.065764 80.958875 147.065764 80.958875 147.065764 
C 80.958875 147.065764 80.958875 147.065764 80.958875 147.065764 
C 80.958875 147.065764 80.958875 147.065764 80.958875 147.065764 
C 80.958875 147.065764 80.958875 147.065764 80.958875 147.065764 
C 80.958875 147.065764 80.958875 147.065764 80.958875 147.065764 
C 80.958875 147.065764 80.958875 147.065764 80.958875 147.065764 
C 80.958875 147.065764 80.958875 147.065764 80.958875 147.065764 
C 80.958875 147.065764 80.958875 147.065764 80.958875 147.065764 
z
" clip-path="url(#p8e5bfd39a0)" style="stroke: #000000"/>
    <path d="M 75.564297 137.090807 
C 76.157679 137.090807 76.726838 136.855053 77.146423 136.435468 
C 77.566008 136.015884 77.801761 135.446725 77.801761 134.853342 
C 77.801761 134.25996 77.566008 133.690801 77.146423 133.271216 
C 76.726838 132.851631 76.157679 132.615878 75.564297 132.615878 
C 74.970914 132.615878 74.401755 132.851631 73.982171 133.271216 
C 73.562586 133.690801 73.326833 134.25996 73.326833 134.853342 
C 73.326833 135.446725 73.562586 136.015884 73.982171 136.435468 
C 74.401755 136.855053 74.970914 137.090807 75.564297 137.090807 
z
" clip-path="url(#p8e5bfd39a0)" style="stroke: #000000"/>
    <path d="M 71.169918 123.769391 
C 71.169918 123.769391 71.169918 123.769391 71.169918 123.769391 
C 71.169918 123.769391 71.169918 123.769391 71.169918 123.769391 
C 71.169918 123.769391 71.169918 123.769391 71.169918 123.769391 
C 71.169918 123.769391 71.169918 123.769391 71.169918 123.769391 
C 71.169918 123.769391 71.169918 123.769391 71.169918 123.769391 
C 71.169918 123.769391 71.169918 123.769391 71.169918 123.769391 
C 71.169918 123.769391 71.169918 123.769391 71.169918 123.769391 
C 71.169918 123.769391 71.169918 123.769391 71.169918 123.769391 
z
" clip-path="url(#p8e5bfd39a0)" style="stroke: #000000"/>
    <path d="M 65.784115 115.930764 
C 66.192537 115.930764 66.584286 115.768496 66.873084 115.479698 
C 67.161882 115.1909 67.32415 114.799151 67.32415 114.390729 
C 67.32415 113.982307 67.161882 113.590557 66.873084 113.301759 
C 66.584286 113.012961 66.192537 112.850694 65.784115 112.850694 
C 65.375693 112.850694 64.983943 113.012961 64.695145 113.301759 
C 64.406347 113.590557 64.24408 113.982307 64.24408 114.390729 
C 64.24408 114.799151 64.406347 115.1909 64.695145 115.479698 
C 64.983943 115.768496 65.375693 115.930764 65.784115 115.930764 
z
" clip-path="url(#p8e5bfd39a0)" style="stroke: #000000"/>
    <path d="M 65.858028 104.791098 
C 66.45104 104.791098 67.019843 104.555492 67.439166 104.136169 
C 67.858489 103.716846 68.094096 103.148042 68.094096 102.55503 
C 68.094096 101.962018 67.858489 101.393214 67.439166 100.973891 
C 67.019843 100.554568 66.45104 100.318962 65.858028 100.318962 
C 65.265015 100.318962 64.696212 100.554568 64.276889 100.973891 
C 63.857566 101.393214 63.62196 101.962018 63.62196 102.55503 
C 63.62196 103.148042 63.857566 103.716846 64.276889 104.136169 
C 64.696212 104.555492 65.265015 104.791098 65.858028 104.791098 
z
" clip-path="url(#p8e5bfd39a0)" style="stroke: #000000"/>
    <path d="M 60.337978 99.613473 
C 60.93136 99.613473 61.500519 99.37772 61.920104 98.958135 
C 62.339689 98.53855 62.575442 97.969391 62.575442 97.376009 
C 62.575442 96.782626 62.339689 96.213468 61.920104 95.793883 
C 61.500519 95.374298 60.93136 95.138545 60.337978 95.138545 
C 59.744596 95.138545 59.175437 95.374298 58.755852 95.793883 
C 58.336267 96.213468 58.100514 96.782626 58.100514 97.376009 
C 58.100514 97.969391 58.336267 98.53855 58.755852 98.958135 
C 59.175437 99.37772 59.744596 99.613473 60.337978 99.613473 
z
" clip-path="url(#p8e5bfd39a0)" style="stroke: #000000"/>
    <path d="M 53.477774 83.92748 
C 53.477774 83.92748 53.477774 83.92748 53.477774 83.92748 
C 53.477774 83.92748 53.477774 83.92748 53.477774 83.92748 
C 53.477774 83.92748 53.477774 83.92748 53.477774 83.92748 
C 53.477774 83.92748 53.477774 83.92748 53.477774 83.92748 
C 53.477774 83.92748 53.477774 83.92748 53.477774 83.92748 
C 53.477774 83.92748 53.477774 83.92748 53.477774 83.92748 
C 53.477774 83.92748 53.477774 83.92748 53.477774 83.92748 
C 53.477774 83.92748 53.477774 83.92748 53.477774 83.92748 
z
" clip-path="url(#p8e5bfd39a0)" style="stroke: #000000"/>
    <path d="M 53.613907 69.357622 
C 53.613907 69.357622 53.613907 69.357622 53.613907 69.357622 
C 53.613907 69.357622 53.613907 69.357622 53.613907 69.357622 
C 53.613907 69.357622 53.613907 69.357622 53.613907 69.357622 
C 53.613907 69.357622 53.613907 69.357622 53.613907 69.357622 
C 53.613907 69.357622 53.613907 69.357622 53.613907 69.357622 
C 53.613907 69.357622 53.613907 69.357622 53.613907 69.357622 
C 53.613907 69.357622 53.613907 69.357622 53.613907 69.357622 
C 53.613907 69.357622 53.613907 69.357622 53.613907 69.357622 
z
" clip-path="url(#p8e5bfd39a0)" style="stroke: #000000"/>
    <path d="M 50.191537 61.852571 
C 50.690821 61.852571 51.169723 61.654204 51.52277 61.301157 
C 51.875817 60.94811 52.074184 60.469208 52.074184 59.969924 
C 52.074184 59.47064 51.875817 58.991738 51.52277 58.638691 
C 51.169723 58.285644 50.690821 58.087276 50.191537 58.087276 
C 49.692253 58.087276 49.213351 58.285644 48.860304 58.638691 
C 48.507257 58.991738 48.308889 59.47064 48.308889 59.969924 
C 48.308889 60.469208 48.507257 60.94811 48.860304 61.301157 
C 49.213351 61.654204 49.692253 61.852571 50.191537 61.852571 
z
" clip-path="url(#p8e5bfd39a0)" style="stroke: #000000"/>
    <path d="M 46.102448 48.836071 
C 46.549333 48.836071 46.977975 48.658521 47.293971 48.342526 
C 47.609967 48.02653 47.787516 47.597888 47.787516 47.151003 
C 47.787516 46.704117 47.609967 46.275475 47.293971 45.95948 
C 46.977975 45.643484 46.549333 45.465935 46.102448 45.465935 
C 45.655563 45.465935 45.226921 45.643484 44.910925 45.95948 
C 44.594929 46.275475 44.41738 46.704117 44.41738 47.151003 
C 44.41738 47.597888 44.594929 48.02653 44.910925 48.342526 
C 45.226921 48.658521 45.655563 48.836071 46.102448 48.836071 
z
" clip-path="url(#p8e5bfd39a0)" style="stroke: #000000"/>
    <path d="M 77.580449 177.858166 
C 77.580449 177.858166 77.580449 177.858166 77.580449 177.858166 
C 77.580449 177.858166 77.580449 177.858166 77.580449 177.858166 
C 77.580449 177.858166 77.580449 177.858166 77.580449 177.858166 
C 77.580449 177.858166 77.580449 177.858166 77.580449 177.858166 
C 77.580449 177.858166 77.580449 177.858166 77.580449 177.858166 
C 77.580449 177.858166 77.580449 177.858166 77.580449 177.858166 
C 77.580449 177.858166 77.580449 177.858166 77.580449 177.858166 
C 77.580449 177.858166 77.580449 177.858166 77.580449 177.858166 
z
" clip-path="url(#p8e5bfd39a0)" style="stroke: #000000"/>
    <path d="M 74.845082 167.031149 
C 74.845082 167.031149 74.845082 167.031149 74.845082 167.031149 
C 74.845082 167.031149 74.845082 167.031149 74.845082 167.031149 
C 74.845082 167.031149 74.845082 167.031149 74.845082 167.031149 
C 74.845082 167.031149 74.845082 167.031149 74.845082 167.031149 
C 74.845082 167.031149 74.845082 167.031149 74.845082 167.031149 
C 74.845082 167.031149 74.845082 167.031149 74.845082 167.031149 
C 74.845082 167.031149 74.845082 167.031149 74.845082 167.031149 
C 74.845082 167.031149 74.845082 167.031149 74.845082 167.031149 
z
" clip-path="url(#p8e5bfd39a0)" style="stroke: #000000"/>
    <path d="M 73.750866 157.058218 
C 74.25015 157.058218 74.729052 156.85985 75.082099 156.506803 
C 75.435146 156.153756 75.633514 155.674854 75.633514 155.17557 
C 75.633514 154.676286 75.435146 154.197385 75.082099 153.844337 
C 74.729052 153.49129 74.25015 153.292923 73.750866 153.292923 
C 73.251582 153.292923 72.77268 153.49129 72.419633 153.844337 
C 72.066586 154.197385 71.868219 154.676286 71.868219 155.17557 
C 71.868219 155.674854 72.066586 156.153756 72.419633 156.506803 
C 72.77268 156.85985 73.251582 157.058218 73.750866 157.058218 
z
" clip-path="url(#p8e5bfd39a0)" style="stroke: #000000"/>
    <path d="M 68.826476 148.332657 
C 69.000989 148.332657 69.168378 148.263322 69.291778 148.139922 
C 69.415178 148.016523 69.484513 147.849133 69.484513 147.67462 
C 69.484513 147.500106 69.415178 147.332717 69.291778 147.209318 
C 69.168378 147.085918 69.000989 147.016583 68.826476 147.016583 
C 68.651962 147.016583 68.484573 147.085918 68.361173 147.209318 
C 68.237773 147.332717 68.168439 147.500106 68.168439 147.67462 
C 68.168439 147.849133 68.237773 148.016523 68.361173 148.139922 
C 68.484573 148.263322 68.651962 148.332657 68.826476 148.332657 
z
" clip-path="url(#p8e5bfd39a0)" style="stroke: #000000"/>
    <path d="M 66.289416 138.714275 
C 66.422017 138.714275 66.549206 138.661592 66.642969 138.567828 
C 66.736733 138.474065 66.789416 138.346877 66.789416 138.214275 
C 66.789416 138.081673 66.736733 137.954485 66.642969 137.860722 
C 66.549206 137.766958 66.422017 137.714275 66.289416 137.714275 
C 66.156814 137.714275 66.029626 137.766958 65.935862 137.860722 
C 65.842099 137.954485 65.789416 138.081673 65.789416 138.214275 
C 65.789416 138.346877 65.842099 138.474065 65.935862 138.567828 
C 66.029626 138.661592 66.156814 138.714275 66.289416 138.714275 
z
" clip-path="url(#p8e5bfd39a0)" style="stroke: #000000"/>
    <path d="M 62.821868 130.529043 
C 62.821868 130.529043 62.821868 130.529043 62.821868 130.529043 
C 62.821868 130.529043 62.821868 130.529043 62.821868 130.529043 
C 62.821868 130.529043 62.821868 130.529043 62.821868 130.529043 
C 62.821868 130.529043 62.821868 130.529043 62.821868 130.529043 
C 62.821868 130.529043 62.821868 130.529043 62.821868 130.529043 
C 62.821868 130.529043 62.821868 130.529043 62.821868 130.529043 
C 62.821868 130.529043 62.821868 130.529043 62.821868 130.529043 
C 62.821868 130.529043 62.821868 130.529043 62.821868 130.529043 
z
" clip-path="url(#p8e5bfd39a0)" style="stroke: #000000"/>
    <path d="M 60.74702 117.966142 
C 60.74702 117.966142 60.74702 117.966142 60.74702 117.966142 
C 60.74702 117.966142 60.74702 117.966142 60.74702 117.966142 
C 60.74702 117.966142 60.74702 117.966142 60.74702 117.966142 
C 60.74702 117.966142 60.74702 117.966142 60.74702 117.966142 
C 60.74702 117.966142 60.74702 117.966142 60.74702 117.966142 
C 60.74702 117.966142 60.74702 117.966142 60.74702 117.966142 
C 60.74702 117.966142 60.74702 117.966142 60.74702 117.966142 
C 60.74702 117.966142 60.74702 117.966142 60.74702 117.966142 
z
" clip-path="url(#p8e5bfd39a0)" style="stroke: #000000"/>
    <path d="M 53.261968 103.112663 
C 53.39457 103.112663 53.521758 103.05998 53.615522 102.966216 
C 53.709285 102.872453 53.761968 102.745265 53.761968 102.612663 
C 53.761968 102.480061 53.709285 102.352873 53.615522 102.25911 
C 53.521758 102.165346 53.39457 102.112663 53.261968 102.112663 
C 53.129367 102.112663 53.002178 102.165346 52.908415 102.25911 
C 52.814651 102.352873 52.761968 102.480061 52.761968 102.612663 
C 52.761968 102.745265 52.814651 102.872453 52.908415 102.966216 
C 53.002178 103.05998 53.129367 103.112663 53.261968 103.112663 
z
" clip-path="url(#p8e5bfd39a0)" style="stroke: #000000"/>
    <path d="M 47.056352 95.726822 
C 47.188953 95.726822 47.316142 95.674139 47.409905 95.580376 
C 47.503669 95.486612 47.556352 95.359424 47.556352 95.226822 
C 47.556352 95.094221 47.503669 94.967032 47.409905 94.873269 
C 47.316142 94.779505 47.188953 94.726822 47.056352 94.726822 
C 46.92375 94.726822 46.796562 94.779505 46.702798 94.873269 
C 46.609035 94.967032 46.556352 95.094221 46.556352 95.226822 
C 46.556352 95.359424 46.609035 95.486612 46.702798 95.580376 
C 46.796562 95.674139 46.92375 95.726822 47.056352 95.726822 
z
" clip-path="url(#p8e5bfd39a0)" style="stroke: #000000"/>
    <path d="M 46.558794 88.719058 
C 46.691396 88.719058 46.818584 88.666375 46.912348 88.572612 
C 47.006111 88.478848 47.058794 88.35166 47.058794 88.219058 
C 47.058794 88.086457 47.006111 87.959269 46.912348 87.865505 
C 46.818584 87.771742 46.691396 87.719058 46.558794 87.719058 
C 46.426193 87.719058 46.299004 87.771742 46.205241 87.865505 
C 46.111478 87.959269 46.058794 88.086457 46.058794 88.219058 
C 46.058794 88.35166 46.111478 88.478848 46.205241 88.572612 
C 46.299004 88.666375 46.426193 88.719058 46.558794 88.719058 
z
" clip-path="url(#p8e5bfd39a0)" style="stroke: #000000"/>
    <path d="M 44.015618 74.781579 
C 44.514902 74.781579 44.993804 74.583212 45.346851 74.230164 
C 45.699898 73.877117 45.898266 73.398216 45.898266 72.898932 
C 45.898266 72.399648 45.699898 71.920746 45.346851 71.567699 
C 44.993804 71.214652 44.514902 71.016284 44.015618 71.016284 
C 43.516334 71.016284 43.037433 71.214652 42.684386 71.567699 
C 42.331339 71.920746 42.132971 72.399648 42.132971 72.898932 
C 42.132971 73.398216 42.331339 73.877117 42.684386 74.230164 
C 43.037433 74.583212 43.516334 74.781579 44.015618 74.781579 
z
" clip-path="url(#p8e5bfd39a0)" style="stroke: #000000"/>
    <path d="M 40.870513 65.777054 
C 41.003115 65.777054 41.130303 65.724371 41.224067 65.630607 
C 41.31783 65.536844 41.370513 65.409656 41.370513 65.277054 
C 41.370513 65.144452 41.31783 65.017264 41.224067 64.923501 
C 41.130303 64.829737 41.003115 64.777054 40.870513 64.777054 
C 40.737912 64.777054 40.610723 64.829737 40.51696 64.923501 
C 40.423197 65.017264 40.370513 65.144452 40.370513 65.277054 
C 40.370513 65.409656 40.423197 65.536844 40.51696 65.630607 
C 40.610723 65.724371 40.737912 65.777054 40.870513 65.777054 
z
" clip-path="url(#p8e5bfd39a0)" style="stroke: #000000"/>
    <path d="M 64.003455 170.080353 
C 64.003455 170.080353 64.003455 170.080353 64.003455 170.080353 
C 64.003455 170.080353 64.003455 170.080353 64.003455 170.080353 
C 64.003455 170.080353 64.003455 170.080353 64.003455 170.080353 
C 64.003455 170.080353 64.003455 170.080353 64.003455 170.080353 
C 64.003455 170.080353 64.003455 170.080353 64.003455 170.080353 
C 64.003455 170.080353 64.003455 170.080353 64.003455 170.080353 
C 64.003455 170.080353 64.003455 170.080353 64.003455 170.080353 
C 64.003455 170.080353 64.003455 170.080353 64.003455 170.080353 
z
" clip-path="url(#p8e5bfd39a0)" style="stroke: #000000"/>
    <path d="M 60.869355 169.107574 
C 61.21655 169.107574 61.549571 168.969632 61.795075 168.724128 
C 62.040579 168.478625 62.178521 168.145603 62.178521 167.798409 
C 62.178521 167.451214 62.040579 167.118193 61.795075 166.872689 
C 61.549571 166.627185 61.21655 166.489243 60.869355 166.489243 
C 60.522161 166.489243 60.18914 166.627185 59.943636 166.872689 
C 59.698132 167.118193 59.56019 167.451214 59.56019 167.798409 
C 59.56019 168.145603 59.698132 168.478625 59.943636 168.724128 
C 60.18914 168.969632 60.522161 169.107574 60.869355 169.107574 
z
" clip-path="url(#p8e5bfd39a0)" style="stroke: #000000"/>
    <path d="M 59.800054 152.37311 
C 59.800054 152.37311 59.800054 152.37311 59.800054 152.37311 
C 59.800054 152.37311 59.800054 152.37311 59.800054 152.37311 
C 59.800054 152.37311 59.800054 152.37311 59.800054 152.37311 
C 59.800054 152.37311 59.800054 152.37311 59.800054 152.37311 
C 59.800054 152.37311 59.800054 152.37311 59.800054 152.37311 
C 59.800054 152.37311 59.800054 152.37311 59.800054 152.37311 
C 59.800054 152.37311 59.800054 152.37311 59.800054 152.37311 
C 59.800054 152.37311 59.800054 152.37311 59.800054 152.37311 
z
" clip-path="url(#p8e5bfd39a0)" style="stroke: #000000"/>
    <path d="M 52.573229 141.504457 
C 52.573229 141.504457 52.573229 141.504457 52.573229 141.504457 
C 52.573229 141.504457 52.573229 141.504457 52.573229 141.504457 
C 52.573229 141.504457 52.573229 141.504457 52.573229 141.504457 
C 52.573229 141.504457 52.573229 141.504457 52.573229 141.504457 
C 52.573229 141.504457 52.573229 141.504457 52.573229 141.504457 
C 52.573229 141.504457 52.573229 141.504457 52.573229 141.504457 
C 52.573229 141.504457 52.573229 141.504457 52.573229 141.504457 
C 52.573229 141.504457 52.573229 141.504457 52.573229 141.504457 
z
" clip-path="url(#p8e5bfd39a0)" style="stroke: #000000"/>
    <path d="M 50.233638 129.858655 
C 50.456646 129.858655 50.67055 129.770052 50.828241 129.612362 
C 50.985932 129.454671 51.074534 129.240767 51.074534 129.017758 
C 51.074534 128.79475 50.985932 128.580845 50.828241 128.423155 
C 50.67055 128.265464 50.456646 128.176862 50.233638 128.176862 
C 50.010629 128.176862 49.796725 128.265464 49.639034 128.423155 
C 49.481343 128.580845 49.392741 128.79475 49.392741 129.017758 
C 49.392741 129.240767 49.481343 129.454671 49.639034 129.612362 
C 49.796725 129.770052 50.010629 129.858655 50.233638 129.858655 
z
" clip-path="url(#p8e5bfd39a0)" style="stroke: #000000"/>
    <path d="M 46.01441 120.818759 
C 46.01441 120.818759 46.01441 120.818759 46.01441 120.818759 
C 46.01441 120.818759 46.01441 120.818759 46.01441 120.818759 
C 46.01441 120.818759 46.01441 120.818759 46.01441 120.818759 
C 46.01441 120.818759 46.01441 120.818759 46.01441 120.818759 
C 46.01441 120.818759 46.01441 120.818759 46.01441 120.818759 
C 46.01441 120.818759 46.01441 120.818759 46.01441 120.818759 
C 46.01441 120.818759 46.01441 120.818759 46.01441 120.818759 
C 46.01441 120.818759 46.01441 120.818759 46.01441 120.818759 
z
" clip-path="url(#p8e5bfd39a0)" style="stroke: #000000"/>
    <path d="M 45.419074 109.795606 
C 45.914589 109.795606 46.389877 109.598736 46.740259 109.248354 
C 47.090641 108.897971 47.287512 108.422684 47.287512 107.927169 
C 47.287512 107.431653 47.090641 106.956366 46.740259 106.605984 
C 46.389877 106.255601 45.914589 106.058731 45.419074 106.058731 
C 44.923558 106.058731 44.448271 106.255601 44.097889 106.605984 
C 43.747506 106.956366 43.550636 107.431653 43.550636 107.927169 
C 43.550636 108.422684 43.747506 108.897971 44.097889 109.248354 
C 44.448271 109.598736 44.923558 109.795606 45.419074 109.795606 
z
" clip-path="url(#p8e5bfd39a0)" style="stroke: #000000"/>
    <path d="M 39.276536 97.556581 
C 39.409138 97.556581 39.536326 97.503898 39.630089 97.410135 
C 39.723853 97.316371 39.776536 97.189183 39.776536 97.056581 
C 39.776536 96.92398 39.723853 96.796791 39.630089 96.703028 
C 39.536326 96.609264 39.409138 96.556581 39.276536 96.556581 
C 39.143934 96.556581 39.016746 96.609264 38.922983 96.703028 
C 38.829219 96.796791 38.776536 96.92398 38.776536 97.056581 
C 38.776536 97.189183 38.829219 97.316371 38.922983 97.410135 
C 39.016746 97.503898 39.143934 97.556581 39.276536 97.556581 
z
" clip-path="url(#p8e5bfd39a0)" style="stroke: #000000"/>
    <path d="M 34.480663 90.859185 
C 34.480663 90.859185 34.480663 90.859185 34.480663 90.859185 
C 34.480663 90.859185 34.480663 90.859185 34.480663 90.859185 
C 34.480663 90.859185 34.480663 90.859185 34.480663 90.859185 
C 34.480663 90.859185 34.480663 90.859185 34.480663 90.859185 
C 34.480663 90.859185 34.480663 90.859185 34.480663 90.859185 
C 34.480663 90.859185 34.480663 90.859185 34.480663 90.859185 
C 34.480663 90.859185 34.480663 90.859185 34.480663 90.859185 
C 34.480663 90.859185 34.480663 90.859185 34.480663 90.859185 
z
" clip-path="url(#p8e5bfd39a0)" style="stroke: #000000"/>
    <path d="M 56.449255 176.185321 
C 56.449255 176.185321 56.449255 176.185321 56.449255 176.185321 
C 56.449255 176.185321 56.449255 176.185321 56.449255 176.185321 
C 56.449255 176.185321 56.449255 176.185321 56.449255 176.185321 
C 56.449255 176.185321 56.449255 176.185321 56.449255 176.185321 
C 56.449255 176.185321 56.449255 176.185321 56.449255 176.185321 
C 56.449255 176.185321 56.449255 176.185321 56.449255 176.185321 
C 56.449255 176.185321 56.449255 176.185321 56.449255 176.185321 
C 56.449255 176.185321 56.449255 176.185321 56.449255 176.185321 
z
" clip-path="url(#p8e5bfd39a0)" style="stroke: #000000"/>
    <path d="M 48.81329 164.333341 
C 48.81329 164.333341 48.81329 164.333341 48.81329 164.333341 
C 48.81329 164.333341 48.81329 164.333341 48.81329 164.333341 
C 48.81329 164.333341 48.81329 164.333341 48.81329 164.333341 
C 48.81329 164.333341 48.81329 164.333341 48.81329 164.333341 
C 48.81329 164.333341 48.81329 164.333341 48.81329 164.333341 
C 48.81329 164.333341 48.81329 164.333341 48.81329 164.333341 
C 48.81329 164.333341 48.81329 164.333341 48.81329 164.333341 
C 48.81329 164.333341 48.81329 164.333341 48.81329 164.333341 
z
" clip-path="url(#p8e5bfd39a0)" style="stroke: #000000"/>
    <path d="M 47.772452 157.851186 
C 48.113969 157.851186 48.441544 157.7155 48.683032 157.474012 
C 48.924521 157.232523 49.060207 156.904948 49.060207 156.563432 
C 49.060207 156.221915 48.924521 155.89434 48.683032 155.652851 
C 48.441544 155.411363 48.113969 155.275677 47.772452 155.275677 
C 47.430936 155.275677 47.103361 155.411363 46.861872 155.652851 
C 46.620383 155.89434 46.484697 156.221915 46.484697 156.563432 
C 46.484697 156.904948 46.620383 157.232523 46.861872 157.474012 
C 47.103361 157.7155 47.430936 157.851186 47.772452 157.851186 
z
" clip-path="url(#p8e5bfd39a0)" style="stroke: #000000"/>
    <path d="M 45.553512 147.703823 
C 45.553512 147.703823 45.553512 147.703823 45.553512 147.703823 
C 45.553512 147.703823 45.553512 147.703823 45.553512 147.703823 
C 45.553512 147.703823 45.553512 147.703823 45.553512 147.703823 
C 45.553512 147.703823 45.553512 147.703823 45.553512 147.703823 
C 45.553512 147.703823 45.553512 147.703823 45.553512 147.703823 
C 45.553512 147.703823 45.553512 147.703823 45.553512 147.703823 
C 45.553512 147.703823 45.553512 147.703823 45.553512 147.703823 
C 45.553512 147.703823 45.553512 147.703823 45.553512 147.703823 
z
" clip-path="url(#p8e5bfd39a0)" style="stroke: #000000"/>
    <path d="M 40.704527 135.120996 
C 40.704527 135.120996 40.704527 135.120996 40.704527 135.120996 
C 40.704527 135.120996 40.704527 135.120996 40.704527 135.120996 
C 40.704527 135.120996 40.704527 135.120996 40.704527 135.120996 
C 40.704527 135.120996 40.704527 135.120996 40.704527 135.120996 
C 40.704527 135.120996 40.704527 135.120996 40.704527 135.120996 
C 40.704527 135.120996 40.704527 135.120996 40.704527 135.120996 
C 40.704527 135.120996 40.704527 135.120996 40.704527 135.120996 
C 40.704527 135.120996 40.704527 135.120996 40.704527 135.120996 
z
" clip-path="url(#p8e5bfd39a0)" style="stroke: #000000"/>
    <path d="M 33.380051 120.303753 
C 33.380051 120.303753 33.380051 120.303753 33.380051 120.303753 
C 33.380051 120.303753 33.380051 120.303753 33.380051 120.303753 
C 33.380051 120.303753 33.380051 120.303753 33.380051 120.303753 
C 33.380051 120.303753 33.380051 120.303753 33.380051 120.303753 
C 33.380051 120.303753 33.380051 120.303753 33.380051 120.303753 
C 33.380051 120.303753 33.380051 120.303753 33.380051 120.303753 
C 33.380051 120.303753 33.380051 120.303753 33.380051 120.303753 
C 33.380051 120.303753 33.380051 120.303753 33.380051 120.303753 
z
" clip-path="url(#p8e5bfd39a0)" style="stroke: #000000"/>
    <path d="M 33.695407 112.874824 
C 33.695407 112.874824 33.695407 112.874824 33.695407 112.874824 
C 33.695407 112.874824 33.695407 112.874824 33.695407 112.874824 
C 33.695407 112.874824 33.695407 112.874824 33.695407 112.874824 
C 33.695407 112.874824 33.695407 112.874824 33.695407 112.874824 
C 33.695407 112.874824 33.695407 112.874824 33.695407 112.874824 
C 33.695407 112.874824 33.695407 112.874824 33.695407 112.874824 
C 33.695407 112.874824 33.695407 112.874824 33.695407 112.874824 
C 33.695407 112.874824 33.695407 112.874824 33.695407 112.874824 
z
" clip-path="url(#p8e5bfd39a0)" style="stroke: #000000"/>
    <path d="M 32.278831 103.143475 
C 32.278831 103.143475 32.278831 103.143475 32.278831 103.143475 
C 32.278831 103.143475 32.278831 103.143475 32.278831 103.143475 
C 32.278831 103.143475 32.278831 103.143475 32.278831 103.143475 
C 32.278831 103.143475 32.278831 103.143475 32.278831 103.143475 
C 32.278831 103.143475 32.278831 103.143475 32.278831 103.143475 
C 32.278831 103.143475 32.278831 103.143475 32.278831 103.143475 
C 32.278831 103.143475 32.278831 103.143475 32.278831 103.143475 
C 32.278831 103.143475 32.278831 103.143475 32.278831 103.143475 
z
" clip-path="url(#p8e5bfd39a0)" style="stroke: #000000"/>
    <path d="M 40.591985 172.258959 
C 40.591985 172.258959 40.591985 172.258959 40.591985 172.258959 
C 40.591985 172.258959 40.591985 172.258959 40.591985 172.258959 
C 40.591985 172.258959 40.591985 172.258959 40.591985 172.258959 
C 40.591985 172.258959 40.591985 172.258959 40.591985 172.258959 
C 40.591985 172.258959 40.591985 172.258959 40.591985 172.258959 
C 40.591985 172.258959 40.591985 172.258959 40.591985 172.258959 
C 40.591985 172.258959 40.591985 172.258959 40.591985 172.258959 
C 40.591985 172.258959 40.591985 172.258959 40.591985 172.258959 
z
" clip-path="url(#p8e5bfd39a0)" style="stroke: #000000"/>
    <path d="M 36.142548 156.968036 
C 36.142548 156.968036 36.142548 156.968036 36.142548 156.968036 
C 36.142548 156.968036 36.142548 156.968036 36.142548 156.968036 
C 36.142548 156.968036 36.142548 156.968036 36.142548 156.968036 
C 36.142548 156.968036 36.142548 156.968036 36.142548 156.968036 
C 36.142548 156.968036 36.142548 156.968036 36.142548 156.968036 
C 36.142548 156.968036 36.142548 156.968036 36.142548 156.968036 
C 36.142548 156.968036 36.142548 156.968036 36.142548 156.968036 
C 36.142548 156.968036 36.142548 156.968036 36.142548 156.968036 
z
" clip-path="url(#p8e5bfd39a0)" style="stroke: #000000"/>
    <path d="M 36.417645 147.163899 
C 36.417645 147.163899 36.417645 147.163899 36.417645 147.163899 
C 36.417645 147.163899 36.417645 147.163899 36.417645 147.163899 
C 36.417645 147.163899 36.417645 147.163899 36.417645 147.163899 
C 36.417645 147.163899 36.417645 147.163899 36.417645 147.163899 
C 36.417645 147.163899 36.417645 147.163899 36.417645 147.163899 
C 36.417645 147.163899 36.417645 147.163899 36.417645 147.163899 
C 36.417645 147.163899 36.417645 147.163899 36.417645 147.163899 
C 36.417645 147.163899 36.417645 147.163899 36.417645 147.163899 
z
" clip-path="url(#p8e5bfd39a0)" style="stroke: #000000"/>
    <path d="M 29.515264 137.590629 
C 29.515264 137.590629 29.515264 137.590629 29.515264 137.590629 
C 29.515264 137.590629 29.515264 137.590629 29.515264 137.590629 
C 29.515264 137.590629 29.515264 137.590629 29.515264 137.590629 
C 29.515264 137.590629 29.515264 137.590629 29.515264 137.590629 
C 29.515264 137.590629 29.515264 137.590629 29.515264 137.590629 
C 29.515264 137.590629 29.515264 137.590629 29.515264 137.590629 
C 29.515264 137.590629 29.515264 137.590629 29.515264 137.590629 
C 29.515264 137.590629 29.515264 137.590629 29.515264 137.590629 
z
" clip-path="url(#p8e5bfd39a0)" style="stroke: #000000"/>
    <path d="M 28.073785 127.784605 
C 28.073785 127.784605 28.073785 127.784605 28.073785 127.784605 
C 28.073785 127.784605 28.073785 127.784605 28.073785 127.784605 
C 28.073785 127.784605 28.073785 127.784605 28.073785 127.784605 
C 28.073785 127.784605 28.073785 127.784605 28.073785 127.784605 
C 28.073785 127.784605 28.073785 127.784605 28.073785 127.784605 
C 28.073785 127.784605 28.073785 127.784605 28.073785 127.784605 
C 28.073785 127.784605 28.073785 127.784605 28.073785 127.784605 
C 28.073785 127.784605 28.073785 127.784605 28.073785 127.784605 
z
" clip-path="url(#p8e5bfd39a0)" style="stroke: #000000"/>
   </g>
   <g id="matplotlib.axis_1">
    <g id="xtick_1">
     <g id="line2d_1">
      <defs>
       <path id="m8640d84f3d" d="M 0 0 
L 0 3.5 
" style="stroke: #000000; stroke-width: 0.8"/>
      </defs>
      <g>
       <use xlink:href="#m8640d84f3d" x="18" y="189" style="stroke: #000000; stroke-width: 0.8"/>
      </g>
     </g>
     <g id="text_1">
      <!-- 10 -->
      <g transform="translate(7.447656 203.598437)scale(0.1 -0.1)">
       <defs>
        <path id="DejaVuSans-2212" d="M 678 2272 
L 4684 2272 
L 4684 1741 
L 678 1741 
L 678 2272 
z
" transform="scale(0.015625)"/>
        <path id="DejaVuSans-31" d="M 794 531 
L 1825 531 
L 1825 4091 
L 703 3866 
L 703 4441 
L 1819 4666 
L 2450 4666 
L 2450 531 
L 3481 531 
L 3481 0 
L 794 0 
L 794 531 
z
" transform="scale(0.015625)"/>
        <path id="DejaVuSans-30" d="M 2034 4250 
Q 1547 4250 1301 3770 
Q 1056 3291 1056 2328 
Q 1056 1369 1301 889 
Q 1547 409 2034 409 
Q 2525 409 2770 889 
Q 3016 1369 3016 2328 
Q 3016 3291 2770 3770 
Q 2525 4250 2034 4250 
z
M 2034 4750 
Q 2819 4750 3233 4129 
Q 3647 3509 3647 2328 
Q 3647 1150 3233 529 
Q 2819 -91 2034 -91 
Q 1250 -91 836 529 
Q 422 1150 422 2328 
Q 422 3509 836 4129 
Q 1250 4750 2034 4750 
z
" transform="scale(0.015625)"/>
       </defs>
       <use xlink:href="#DejaVuSans-2212"/>
       <use xlink:href="#DejaVuSans-31" x="83.789062"/>
       <use xlink:href="#DejaVuSans-30" x="147.412109"/>
      </g>
     </g>
    </g>
    <g id="xtick_2">
     <g id="line2d_2">
      <g>
       <use xlink:href="#m8640d84f3d" x="73.8" y="189" style="stroke: #000000; stroke-width: 0.8"/>
      </g>
     </g>
     <g id="text_2">
      <!-- 0 -->
      <g transform="translate(70.61875 203.598437)scale(0.1 -0.1)">
       <use xlink:href="#DejaVuSans-30"/>
      </g>
     </g>
    </g>
    <g id="xtick_3">
     <g id="line2d_3">
      <g>
       <use xlink:href="#m8640d84f3d" x="129.6" y="189" style="stroke: #000000; stroke-width: 0.8"/>
      </g>
     </g>
     <g id="text_3">
      <!-- 10 -->
      <g transform="translate(123.2375 203.598437)scale(0.1 -0.1)">
       <use xlink:href="#DejaVuSans-31"/>
       <use xlink:href="#DejaVuSans-30" x="63.623047"/>
      </g>
     </g>
    </g>
   </g>
   <g id="matplotlib.axis_2">
    <g id="ytick_1">
     <g id="line2d_4">
      <defs>
       <path id="mcf84e6ce6a" d="M 0 0 
L -3.5 0 
" style="stroke: #000000; stroke-width: 0.8"/>
      </defs>
      <g>
       <use xlink:href="#mcf84e6ce6a" x="18" y="189" style="stroke: #000000; stroke-width: 0.8"/>
      </g>
     </g>
     <g id="text_4">
      <!-- 15 -->
      <g transform="translate(-10.104688 192.799219)scale(0.1 -0.1)">
       <defs>
        <path id="DejaVuSans-35" d="M 691 4666 
L 3169 4666 
L 3169 4134 
L 1269 4134 
L 1269 2991 
Q 1406 3038 1543 3061 
Q 1681 3084 1819 3084 
Q 2600 3084 3056 2656 
Q 3513 2228 3513 1497 
Q 3513 744 3044 326 
Q 2575 -91 1722 -91 
Q 1428 -91 1123 -41 
Q 819 9 494 109 
L 494 744 
Q 775 591 1075 516 
Q 1375 441 1709 441 
Q 2250 441 2565 725 
Q 2881 1009 2881 1497 
Q 2881 1984 2565 2268 
Q 2250 2553 1709 2553 
Q 1456 2553 1204 2497 
Q 953 2441 691 2322 
L 691 4666 
z
" transform="scale(0.015625)"/>
       </defs>
       <use xlink:href="#DejaVuSans-2212"/>
       <use xlink:href="#DejaVuSans-31" x="83.789062"/>
       <use xlink:href="#DejaVuSans-35" x="147.412109"/>
      </g>
     </g>
    </g>
    <g id="ytick_2">
     <g id="line2d_5">
      <g>
       <use xlink:href="#mcf84e6ce6a" x="18" y="161.82" style="stroke: #000000; stroke-width: 0.8"/>
      </g>
     </g>
     <g id="text_5">
      <!-- 10 -->
      <g transform="translate(-10.104688 165.619219)scale(0.1 -0.1)">
       <use xlink:href="#DejaVuSans-2212"/>
       <use xlink:href="#DejaVuSans-31" x="83.789062"/>
       <use xlink:href="#DejaVuSans-30" x="147.412109"/>
      </g>
     </g>
    </g>
    <g id="ytick_3">
     <g id="line2d_6">
      <g>
       <use xlink:href="#mcf84e6ce6a" x="18" y="134.64" style="stroke: #000000; stroke-width: 0.8"/>
      </g>
     </g>
     <g id="text_6">
      <!-- 5 -->
      <g transform="translate(-3.742188 138.439219)scale(0.1 -0.1)">
       <use xlink:href="#DejaVuSans-2212"/>
       <use xlink:href="#DejaVuSans-35" x="83.789062"/>
      </g>
     </g>
    </g>
    <g id="ytick_4">
     <g id="line2d_7">
      <g>
       <use xlink:href="#mcf84e6ce6a" x="18" y="107.46" style="stroke: #000000; stroke-width: 0.8"/>
      </g>
     </g>
     <g id="text_7">
      <!-- 0 -->
      <g transform="translate(4.6375 111.259219)scale(0.1 -0.1)">
       <use xlink:href="#DejaVuSans-30"/>
      </g>
     </g>
    </g>
    <g id="ytick_5">
     <g id="line2d_8">
      <g>
       <use xlink:href="#mcf84e6ce6a" x="18" y="80.28" style="stroke: #000000; stroke-width: 0.8"/>
      </g>
     </g>
     <g id="text_8">
      <!-- 5 -->
      <g transform="translate(4.6375 84.079219)scale(0.1 -0.1)">
       <use xlink:href="#DejaVuSans-35"/>
      </g>
     </g>
    </g>
    <g id="ytick_6">
     <g id="line2d_9">
      <g>
       <use xlink:href="#mcf84e6ce6a" x="18" y="53.1" style="stroke: #000000; stroke-width: 0.8"/>
      </g>
     </g>
     <g id="text_9">
      <!-- 10 -->
      <g transform="translate(-1.725 56.899219)scale(0.1 -0.1)">
       <use xlink:href="#DejaVuSans-31"/>
       <use xlink:href="#DejaVuSans-30" x="63.623047"/>
      </g>
     </g>
    </g>
    <g id="ytick_7">
     <g id="line2d_10">
      <g>
       <use xlink:href="#mcf84e6ce6a" x="18" y="25.92" style="stroke: #000000; stroke-width: 0.8"/>
      </g>
     </g>
     <g id="text_10">
      <!-- 15 -->
      <g transform="translate(-1.725 29.719219)scale(0.1 -0.1)">
       <use xlink:href="#DejaVuSans-31"/>
       <use xlink:href="#DejaVuSans-35" x="63.623047"/>
      </g>
     </g>
    </g>
   </g>
   <g id="patch_3">
    <path d="M 18 189 
L 18 25.92 
" style="fill: none; stroke: #000000; stroke-width: 0.8; stroke-linejoin: miter; stroke-linecap: square"/>
   </g>
   <g id="patch_4">
    <path d="M 129.6 189 
L 129.6 25.92 
" style="fill: none; stroke: #000000; stroke-width: 0.8; stroke-linejoin: miter; stroke-linecap: square"/>
   </g>
   <g id="patch_5">
    <path d="M 18 189 
L 129.6 189 
" style="fill: none; stroke: #000000; stroke-width: 0.8; stroke-linejoin: miter; stroke-linecap: square"/>
   </g>
   <g id="patch_6">
    <path d="M 18 25.92 
L 129.6 25.92 
" style="fill: none; stroke: #000000; stroke-width: 0.8; stroke-linejoin: miter; stroke-linecap: square"/>
   </g>
  </g>
 </g>
 <defs>
  <clipPath id="p8e5bfd39a0">
   <rect x="18" y="25.92" width="111.6" height="163.08"/>
  </clipPath>
 </defs>
</svg>
