<?xml version="1.0" encoding="utf-8" standalone="no"?>
<!DOCTYPE svg PUBLIC "-//W3C//DTD SVG 1.1//EN"
  "http://www.w3.org/Graphics/SVG/1.1/DTD/svg11.dtd">
<svg xmlns:xlink="http://www.w3.org/1999/xlink" width="144pt" height="216pt" viewBox="0 0 144 216" xmlns="http://www.w3.org/2000/svg" version="1.1">
 <metadata>
  <rdf:RDF xmlns:dc="http://purl.org/dc/elements/1.1/" xmlns:cc="http://creativecommons.org/ns#" xmlns:rdf="http://www.w3.org/1999/02/22-rdf-syntax-ns#">
   <cc:Work>
    <dc:type rdf:resource="http://purl.org/dc/dcmitype/StillImage"/>
    <dc:date>2022-06-23T12:14:04.074310</dc:date>
    <dc:format>image/svg+xml</dc:format>
    <dc:creator>
     <cc:Agent>
      <dc:title>Matplotlib v3.5.1, https://matplotlib.org/</dc:title>
     </cc:Agent>
    </dc:creator>
   </cc:Work>
  </rdf:RDF>
 </metadata>
 <defs>
  <style type="text/css">*{stroke-linejoin: round; stroke-linecap: butt}</style>
 </defs>
 <g id="figure_1">
  <g id="patch_1">
   <path d="M 0 216 
L 144 216 
L 144 0 
L 0 0 
L 0 216 
z
" style="fill: none"/>
  </g>
  <g id="axes_1">
   <g id="patch_2">
    <path d="M 18 189 
L 129.6 189 
L 129.6 25.92 
L 18 25.92 
z
" style="fill: #ffffff"/>
   </g>
   <g id="PathCollection_1">
    <defs>
     <path id="m5f6dee6a9f" d="M 0 2.738613 
C 0.726289 2.738613 1.422928 2.450055 1.936492 1.936492 
C 2.450055 1.422928 2.738613 0.726289 2.738613 0 
C 2.738613 -0.726289 2.450055 -1.422928 1.936492 -1.936492 
C 1.422928 -2.450055 0.726289 -2.738613 0 -2.738613 
C -0.726289 -2.738613 -1.422928 -2.450055 -1.936492 -1.936492 
C -2.450055 -1.422928 -2.738613 -0.726289 -2.738613 0 
C -2.738613 0.726289 -2.450055 1.422928 -1.936492 1.936492 
C -1.422928 2.450055 -0.726289 2.738613 0 2.738613 
z
" style="stroke: #ff0000; stroke-width: 1.75"/>
    </defs>
    <g clip-path="url(#pcebaf9bd15)">
     <use xlink:href="#m5f6dee6a9f" x="66.825" y="83.92143" style="fill: #ff0000; stroke: #ff0000; stroke-width: 1.75"/>
     <use xlink:href="#m5f6dee6a9f" x="87.75" y="95.690715" style="fill: #ff0000; stroke: #ff0000; stroke-width: 1.75"/>
     <use xlink:href="#m5f6dee6a9f" x="66.825" y="107.46" style="fill: #ff0000; stroke: #ff0000; stroke-width: 1.75"/>
     <use xlink:href="#m5f6dee6a9f" x="73.8" y="119.229285" style="fill: #ff0000; stroke: #ff0000; stroke-width: 1.75"/>
     <use xlink:href="#m5f6dee6a9f" x="87.75" y="119.229285" style="fill: #ff0000; stroke: #ff0000; stroke-width: 1.75"/>
     <use xlink:href="#m5f6dee6a9f" x="66.825" y="130.99857" style="fill: #ff0000; stroke: #ff0000; stroke-width: 1.75"/>
     <use xlink:href="#m5f6dee6a9f" x="80.775" y="130.99857" style="fill: #ff0000; stroke: #ff0000; stroke-width: 1.75"/>
    </g>
   </g>
   <g id="PathCollection_2">
    <defs>
     <path id="C0_0_bd317b522f" d="M 0 2.738613 
C 0.726289 2.738613 1.422928 2.450055 1.936492 1.936492 
C 2.450055 1.422928 2.738613 0.726289 2.738613 -0 
C 2.738613 -0.726289 2.450055 -1.422928 1.936492 -1.936492 
C 1.422928 -2.450055 0.726289 -2.738613 0 -2.738613 
C -0.726289 -2.738613 -1.422928 -2.450055 -1.936492 -1.936492 
C -2.450055 -1.422928 -2.738613 -0.726289 -2.738613 0 
C -2.738613 0.726289 -2.450055 1.422928 -1.936492 1.936492 
C -1.422928 2.450055 -0.726289 2.738613 0 2.738613 
z
"/>
    </defs>
    <g clip-path="url(#pcebaf9bd15)">
     <use xlink:href="#C0_0_bd317b522f" x="80.775" y="83.92143" style="fill: none; stroke: #ff0000; stroke-width: 1.75"/>
    </g>
    <g clip-path="url(#pcebaf9bd15)">
     <use xlink:href="#C0_0_bd317b522f" x="59.85" y="95.690715" style="fill: none; stroke: #ff0000; stroke-width: 1.75"/>
    </g>
    <g clip-path="url(#pcebaf9bd15)">
     <use xlink:href="#C0_0_bd317b522f" x="73.8" y="95.690715" style="fill: none; stroke: #ff0000; stroke-width: 1.75"/>
    </g>
    <g clip-path="url(#pcebaf9bd15)">
     <use xlink:href="#C0_0_bd317b522f" x="52.875" y="107.46" style="fill: none; stroke: #ff0000; stroke-width: 1.75"/>
    </g>
    <g clip-path="url(#pcebaf9bd15)">
     <use xlink:href="#C0_0_bd317b522f" x="80.775" y="107.46" style="fill: none; stroke: #ff0000; stroke-width: 1.75"/>
    </g>
    <g clip-path="url(#pcebaf9bd15)">
     <use xlink:href="#C0_0_bd317b522f" x="94.725" y="107.46" style="fill: none; stroke: #ff0000; stroke-width: 1.75"/>
    </g>
    <g clip-path="url(#pcebaf9bd15)">
     <use xlink:href="#C0_0_bd317b522f" x="59.85" y="119.229285" style="fill: none; stroke: #ff0000; stroke-width: 1.75"/>
    </g>
   </g>
   <g id="PathCollection_3">
    <path d="M 116.870537 125.121099 
C 117.463549 125.121099 118.032353 124.885493 118.451676 124.46617 
C 118.870999 124.046847 119.106605 123.478044 119.106605 122.885031 
C 119.106605 122.292019 118.870999 121.723216 118.451676 121.303893 
C 118.032353 120.88457 117.463549 120.648964 116.870537 120.648964 
C 116.277525 120.648964 115.708721 120.88457 115.289398 121.303893 
C 114.870075 121.723216 114.634469 122.292019 114.634469 122.885031 
C 114.634469 123.478044 114.870075 124.046847 115.289398 124.46617 
C 115.708721 124.885493 116.277525 125.121099 116.870537 125.121099 
z
" clip-path="url(#pcebaf9bd15)" style="stroke: #000000"/>
    <path d="M 116.735658 111.778463 
C 117.390837 111.778463 118.01927 111.518158 118.482552 111.054876 
C 118.945834 110.591594 119.206139 109.963161 119.206139 109.307982 
C 119.206139 108.652803 118.945834 108.02437 118.482552 107.561088 
C 118.01927 107.097806 117.390837 106.837501 116.735658 106.837501 
C 116.080479 106.837501 115.452046 107.097806 114.988764 107.561088 
C 114.525482 108.02437 114.265177 108.652803 114.265177 109.307982 
C 114.265177 109.963161 114.525482 110.591594 114.988764 111.054876 
C 115.452046 111.518158 116.080479 111.778463 116.735658 111.778463 
z
" clip-path="url(#pcebaf9bd15)" style="stroke: #000000"/>
    <path d="M 108.507857 103.668381 
C 109.213071 103.668381 109.889497 103.388197 110.388159 102.889535 
C 110.88682 102.390873 111.167005 101.714448 111.167005 101.009233 
C 111.167005 100.304019 110.88682 99.627593 110.388159 99.128932 
C 109.889497 98.63027 109.213071 98.350085 108.507857 98.350085 
C 107.802643 98.350085 107.126217 98.63027 106.627556 99.128932 
C 106.128894 99.627593 105.848709 100.304019 105.848709 101.009233 
C 105.848709 101.714448 106.128894 102.390873 106.627556 102.889535 
C 107.126217 103.388197 107.802643 103.668381 108.507857 103.668381 
z
" clip-path="url(#pcebaf9bd15)" style="stroke: #000000"/>
    <path d="M 106.222175 91.298795 
C 106.92739 91.298795 107.603815 91.01861 108.102477 90.519949 
C 108.601139 90.021287 108.881323 89.344861 108.881323 88.639647 
C 108.881323 87.934433 108.601139 87.258007 108.102477 86.759346 
C 107.603815 86.260684 106.92739 85.980499 106.222175 85.980499 
C 105.516961 85.980499 104.840536 86.260684 104.341874 86.759346 
C 103.843212 87.258007 103.563028 87.934433 103.563028 88.639647 
C 103.563028 89.344861 103.843212 90.021287 104.341874 90.519949 
C 104.840536 91.01861 105.516961 91.298795 106.222175 91.298795 
z
" clip-path="url(#pcebaf9bd15)" style="stroke: #000000"/>
    <path d="M 101.852818 77.217301 
C 102.4462 77.217301 103.015359 76.981547 103.434944 76.561963 
C 103.854529 76.142378 104.090282 75.573219 104.090282 74.979837 
C 104.090282 74.386454 103.854529 73.817295 103.434944 73.397711 
C 103.015359 72.978126 102.4462 72.742372 101.852818 72.742372 
C 101.259436 72.742372 100.690277 72.978126 100.270692 73.397711 
C 99.851107 73.817295 99.615354 74.386454 99.615354 74.979837 
C 99.615354 75.573219 99.851107 76.142378 100.270692 76.561963 
C 100.690277 76.981547 101.259436 77.217301 101.852818 77.217301 
z
" clip-path="url(#pcebaf9bd15)" style="stroke: #000000"/>
    <path d="M 98.420698 70.13367 
C 98.420698 70.13367 98.420698 70.13367 98.420698 70.13367 
C 98.420698 70.13367 98.420698 70.13367 98.420698 70.13367 
C 98.420698 70.13367 98.420698 70.13367 98.420698 70.13367 
C 98.420698 70.13367 98.420698 70.13367 98.420698 70.13367 
C 98.420698 70.13367 98.420698 70.13367 98.420698 70.13367 
C 98.420698 70.13367 98.420698 70.13367 98.420698 70.13367 
C 98.420698 70.13367 98.420698 70.13367 98.420698 70.13367 
C 98.420698 70.13367 98.420698 70.13367 98.420698 70.13367 
z
" clip-path="url(#pcebaf9bd15)" style="stroke: #000000"/>
    <path d="M 95.708108 59.784151 
C 95.708108 59.784151 95.708108 59.784151 95.708108 59.784151 
C 95.708108 59.784151 95.708108 59.784151 95.708108 59.784151 
C 95.708108 59.784151 95.708108 59.784151 95.708108 59.784151 
C 95.708108 59.784151 95.708108 59.784151 95.708108 59.784151 
C 95.708108 59.784151 95.708108 59.784151 95.708108 59.784151 
C 95.708108 59.784151 95.708108 59.784151 95.708108 59.784151 
C 95.708108 59.784151 95.708108 59.784151 95.708108 59.784151 
C 95.708108 59.784151 95.708108 59.784151 95.708108 59.784151 
z
" clip-path="url(#pcebaf9bd15)" style="stroke: #000000"/>
    <path d="M 91.103235 48.877591 
C 91.103235 48.877591 91.103235 48.877591 91.103235 48.877591 
C 91.103235 48.877591 91.103235 48.877591 91.103235 48.877591 
C 91.103235 48.877591 91.103235 48.877591 91.103235 48.877591 
C 91.103235 48.877591 91.103235 48.877591 91.103235 48.877591 
C 91.103235 48.877591 91.103235 48.877591 91.103235 48.877591 
C 91.103235 48.877591 91.103235 48.877591 91.103235 48.877591 
C 91.103235 48.877591 91.103235 48.877591 91.103235 48.877591 
C 91.103235 48.877591 91.103235 48.877591 91.103235 48.877591 
z
" clip-path="url(#pcebaf9bd15)" style="stroke: #000000"/>
    <path d="M 89.462567 43.275903 
C 90.055579 43.275903 90.624383 43.040297 91.043706 42.620974 
C 91.463029 42.201651 91.698635 41.632847 91.698635 41.039835 
C 91.698635 40.446823 91.463029 39.878019 91.043706 39.458696 
C 90.624383 39.039373 90.055579 38.803767 89.462567 38.803767 
C 88.869555 38.803767 88.300751 39.039373 87.881428 39.458696 
C 87.462105 39.878019 87.226499 40.446823 87.226499 41.039835 
C 87.226499 41.632847 87.462105 42.201651 87.881428 42.620974 
C 88.300751 43.040297 88.869555 43.275903 89.462567 43.275903 
z
" clip-path="url(#pcebaf9bd15)" style="stroke: #000000"/>
    <path d="M 121.437119 165.955604 
C 121.437119 165.955604 121.437119 165.955604 121.437119 165.955604 
C 121.437119 165.955604 121.437119 165.955604 121.437119 165.955604 
C 121.437119 165.955604 121.437119 165.955604 121.437119 165.955604 
C 121.437119 165.955604 121.437119 165.955604 121.437119 165.955604 
C 121.437119 165.955604 121.437119 165.955604 121.437119 165.955604 
C 121.437119 165.955604 121.437119 165.955604 121.437119 165.955604 
C 121.437119 165.955604 121.437119 165.955604 121.437119 165.955604 
C 121.437119 165.955604 121.437119 165.955604 121.437119 165.955604 
z
" clip-path="url(#pcebaf9bd15)" style="stroke: #000000"/>
    <path d="M 119.188315 153.861309 
C 119.77454 153.861309 120.336834 153.628399 120.751358 153.213875 
C 121.165882 152.799351 121.398791 152.237058 121.398791 151.650832 
C 121.398791 151.064607 121.165882 150.502313 120.751358 150.08779 
C 120.336834 149.673266 119.77454 149.440356 119.188315 149.440356 
C 118.60209 149.440356 118.039796 149.673266 117.625273 150.08779 
C 117.210749 150.502313 116.977839 151.064607 116.977839 151.650832 
C 116.977839 152.237058 117.210749 152.799351 117.625273 153.213875 
C 118.039796 153.628399 118.60209 153.861309 119.188315 153.861309 
z
" clip-path="url(#pcebaf9bd15)" style="stroke: #000000"/>
    <path d="M 117.028277 146.051859 
C 117.62166 146.051859 118.190819 145.816106 118.610403 145.396521 
C 119.029988 144.976936 119.265742 144.407778 119.265742 143.814395 
C 119.265742 143.221013 119.029988 142.651854 118.610403 142.232269 
C 118.190819 141.812684 117.62166 141.576931 117.028277 141.576931 
C 116.434895 141.576931 115.865736 141.812684 115.446151 142.232269 
C 115.026566 142.651854 114.790813 143.221013 114.790813 143.814395 
C 114.790813 144.407778 115.026566 144.976936 115.446151 145.396521 
C 115.865736 145.816106 116.434895 146.051859 117.028277 146.051859 
z
" clip-path="url(#pcebaf9bd15)" style="stroke: #000000"/>
    <path d="M 113.856431 133.032739 
C 113.856431 133.032739 113.856431 133.032739 113.856431 133.032739 
C 113.856431 133.032739 113.856431 133.032739 113.856431 133.032739 
C 113.856431 133.032739 113.856431 133.032739 113.856431 133.032739 
C 113.856431 133.032739 113.856431 133.032739 113.856431 133.032739 
C 113.856431 133.032739 113.856431 133.032739 113.856431 133.032739 
C 113.856431 133.032739 113.856431 133.032739 113.856431 133.032739 
C 113.856431 133.032739 113.856431 133.032739 113.856431 133.032739 
C 113.856431 133.032739 113.856431 133.032739 113.856431 133.032739 
z
" clip-path="url(#pcebaf9bd15)" style="stroke: #000000"/>
    <path d="M 102.421802 124.312806 
C 102.421802 124.312806 102.421802 124.312806 102.421802 124.312806 
C 102.421802 124.312806 102.421802 124.312806 102.421802 124.312806 
C 102.421802 124.312806 102.421802 124.312806 102.421802 124.312806 
C 102.421802 124.312806 102.421802 124.312806 102.421802 124.312806 
C 102.421802 124.312806 102.421802 124.312806 102.421802 124.312806 
C 102.421802 124.312806 102.421802 124.312806 102.421802 124.312806 
C 102.421802 124.312806 102.421802 124.312806 102.421802 124.312806 
C 102.421802 124.312806 102.421802 124.312806 102.421802 124.312806 
z
" clip-path="url(#pcebaf9bd15)" style="stroke: #000000"/>
    <path d="M 102.041508 112.218779 
C 102.603219 112.218779 103.141999 111.995609 103.539188 111.59842 
C 103.936377 111.20123 104.159547 110.66245 104.159547 110.10074 
C 104.159547 109.539029 103.936377 109.000249 103.539188 108.60306 
C 103.141999 108.205871 102.603219 107.982701 102.041508 107.982701 
C 101.479798 107.982701 100.941018 108.205871 100.543828 108.60306 
C 100.146639 109.000249 99.923469 109.539029 99.923469 110.10074 
C 99.923469 110.66245 100.146639 111.20123 100.543828 111.59842 
C 100.941018 111.995609 101.479798 112.218779 102.041508 112.218779 
z
" clip-path="url(#pcebaf9bd15)" style="stroke: #000000"/>
    <path d="M 101.57867 108.14077 
C 102.284105 108.14077 102.960742 107.860497 103.459559 107.36168 
C 103.958377 106.862862 104.238649 106.186226 104.238649 105.480791 
C 104.238649 104.775357 103.958377 104.09872 103.459559 103.599902 
C 102.960742 103.101085 102.284105 102.820813 101.57867 102.820813 
C 100.873236 102.820813 100.196599 103.101085 99.697782 103.599902 
C 99.198964 104.09872 98.918692 104.775357 98.918692 105.480791 
C 98.918692 106.186226 99.198964 106.862862 99.697782 107.36168 
C 100.196599 107.860497 100.873236 108.14077 101.57867 108.14077 
z
" clip-path="url(#pcebaf9bd15)" style="stroke: #000000"/>
    <path d="M 97.179733 92.63132 
C 97.885167 92.63132 98.561804 92.351048 99.060622 91.85223 
C 99.559439 91.353412 99.839711 90.676776 99.839711 89.971341 
C 99.839711 89.265907 99.559439 88.58927 99.060622 88.090452 
C 98.561804 87.591635 97.885167 87.311363 97.179733 87.311363 
C 96.474298 87.311363 95.797662 87.591635 95.298844 88.090452 
C 94.800026 88.58927 94.519754 89.265907 94.519754 89.971341 
C 94.519754 90.676776 94.800026 91.353412 95.298844 91.85223 
C 95.797662 92.351048 96.474298 92.63132 97.179733 92.63132 
z
" clip-path="url(#pcebaf9bd15)" style="stroke: #000000"/>
    <path d="M 92.058438 85.30248 
C 92.058438 85.30248 92.058438 85.30248 92.058438 85.30248 
C 92.058438 85.30248 92.058438 85.30248 92.058438 85.30248 
C 92.058438 85.30248 92.058438 85.30248 92.058438 85.30248 
C 92.058438 85.30248 92.058438 85.30248 92.058438 85.30248 
C 92.058438 85.30248 92.058438 85.30248 92.058438 85.30248 
C 92.058438 85.30248 92.058438 85.30248 92.058438 85.30248 
C 92.058438 85.30248 92.058438 85.30248 92.058438 85.30248 
C 92.058438 85.30248 92.058438 85.30248 92.058438 85.30248 
z
" clip-path="url(#pcebaf9bd15)" style="stroke: #000000"/>
    <path d="M 88.704682 74.666485 
C 89.336367 74.666485 89.942265 74.415514 90.388933 73.968845 
C 90.835602 73.522176 91.086573 72.916279 91.086573 72.284594 
C 91.086573 71.652909 90.835602 71.047012 90.388933 70.600343 
C 89.942265 70.153674 89.336367 69.902703 88.704682 69.902703 
C 88.072998 69.902703 87.4671 70.153674 87.020431 70.600343 
C 86.573763 71.047012 86.322792 71.652909 86.322792 72.284594 
C 86.322792 72.916279 86.573763 73.522176 87.020431 73.968845 
C 87.4671 74.415514 88.072998 74.666485 88.704682 74.666485 
z
" clip-path="url(#pcebaf9bd15)" style="stroke: #000000"/>
    <path d="M 85.046749 59.845746 
C 85.046749 59.845746 85.046749 59.845746 85.046749 59.845746 
C 85.046749 59.845746 85.046749 59.845746 85.046749 59.845746 
C 85.046749 59.845746 85.046749 59.845746 85.046749 59.845746 
C 85.046749 59.845746 85.046749 59.845746 85.046749 59.845746 
C 85.046749 59.845746 85.046749 59.845746 85.046749 59.845746 
C 85.046749 59.845746 85.046749 59.845746 85.046749 59.845746 
C 85.046749 59.845746 85.046749 59.845746 85.046749 59.845746 
C 85.046749 59.845746 85.046749 59.845746 85.046749 59.845746 
z
" clip-path="url(#pcebaf9bd15)" style="stroke: #000000"/>
    <path d="M 82.897308 55.438243 
C 83.49069 55.438243 84.059849 55.20249 84.479434 54.782905 
C 84.899019 54.36332 85.134772 53.794161 85.134772 53.200779 
C 85.134772 52.607396 84.899019 52.038238 84.479434 51.618653 
C 84.059849 51.199068 83.49069 50.963315 82.897308 50.963315 
C 82.303925 50.963315 81.734766 51.199068 81.315182 51.618653 
C 80.895597 52.038238 80.659843 52.607396 80.659843 53.200779 
C 80.659843 53.794161 80.895597 54.36332 81.315182 54.782905 
C 81.734766 55.20249 82.303925 55.438243 82.897308 55.438243 
z
" clip-path="url(#pcebaf9bd15)" style="stroke: #000000"/>
    <path d="M 77.758126 42.161091 
C 78.351138 42.161091 78.919942 41.925485 79.339265 41.506162 
C 79.758588 41.086839 79.994194 40.518035 79.994194 39.925023 
C 79.994194 39.332011 79.758588 38.763207 79.339265 38.343884 
C 78.919942 37.924561 78.351138 37.688955 77.758126 37.688955 
C 77.165114 37.688955 76.59631 37.924561 76.176987 38.343884 
C 75.757664 38.763207 75.522058 39.332011 75.522058 39.925023 
C 75.522058 40.518035 75.757664 41.086839 76.176987 41.506162 
C 76.59631 41.925485 77.165114 42.161091 77.758126 42.161091 
z
" clip-path="url(#pcebaf9bd15)" style="stroke: #000000"/>
    <path d="M 76.289968 31.666722 
C 76.289968 31.666722 76.289968 31.666722 76.289968 31.666722 
C 76.289968 31.666722 76.289968 31.666722 76.289968 31.666722 
C 76.289968 31.666722 76.289968 31.666722 76.289968 31.666722 
C 76.289968 31.666722 76.289968 31.666722 76.289968 31.666722 
C 76.289968 31.666722 76.289968 31.666722 76.289968 31.666722 
C 76.289968 31.666722 76.289968 31.666722 76.289968 31.666722 
C 76.289968 31.666722 76.289968 31.666722 76.289968 31.666722 
C 76.289968 31.666722 76.289968 31.666722 76.289968 31.666722 
z
" clip-path="url(#pcebaf9bd15)" style="stroke: #000000"/>
    <path d="M 69.770574 23.156264 
C 69.770574 23.156264 69.770574 23.156264 69.770574 23.156264 
C 69.770574 23.156264 69.770574 23.156264 69.770574 23.156264 
C 69.770574 23.156264 69.770574 23.156264 69.770574 23.156264 
C 69.770574 23.156264 69.770574 23.156264 69.770574 23.156264 
C 69.770574 23.156264 69.770574 23.156264 69.770574 23.156264 
C 69.770574 23.156264 69.770574 23.156264 69.770574 23.156264 
C 69.770574 23.156264 69.770574 23.156264 69.770574 23.156264 
C 69.770574 23.156264 69.770574 23.156264 69.770574 23.156264 
z
" clip-path="url(#pcebaf9bd15)" style="stroke: #000000"/>
    <path d="M 113.173344 178.619399 
C 113.766726 178.619399 114.335885 178.383646 114.75547 177.964061 
C 115.175055 177.544476 115.410808 176.975317 115.410808 176.381935 
C 115.410808 175.788552 115.175055 175.219393 114.75547 174.799809 
C 114.335885 174.380224 113.766726 174.14447 113.173344 174.14447 
C 112.579961 174.14447 112.010802 174.380224 111.591218 174.799809 
C 111.171633 175.219393 110.93588 175.788552 110.93588 176.381935 
C 110.93588 176.975317 111.171633 177.544476 111.591218 177.964061 
C 112.010802 178.383646 112.579961 178.619399 113.173344 178.619399 
z
" clip-path="url(#pcebaf9bd15)" style="stroke: #000000"/>
    <path d="M 109.637434 168.713293 
C 109.637434 168.713293 109.637434 168.713293 109.637434 168.713293 
C 109.637434 168.713293 109.637434 168.713293 109.637434 168.713293 
C 109.637434 168.713293 109.637434 168.713293 109.637434 168.713293 
C 109.637434 168.713293 109.637434 168.713293 109.637434 168.713293 
C 109.637434 168.713293 109.637434 168.713293 109.637434 168.713293 
C 109.637434 168.713293 109.637434 168.713293 109.637434 168.713293 
C 109.637434 168.713293 109.637434 168.713293 109.637434 168.713293 
C 109.637434 168.713293 109.637434 168.713293 109.637434 168.713293 
z
" clip-path="url(#pcebaf9bd15)" style="stroke: #000000"/>
    <path d="M 105.464822 158.881443 
C 105.464822 158.881443 105.464822 158.881443 105.464822 158.881443 
C 105.464822 158.881443 105.464822 158.881443 105.464822 158.881443 
C 105.464822 158.881443 105.464822 158.881443 105.464822 158.881443 
C 105.464822 158.881443 105.464822 158.881443 105.464822 158.881443 
C 105.464822 158.881443 105.464822 158.881443 105.464822 158.881443 
C 105.464822 158.881443 105.464822 158.881443 105.464822 158.881443 
C 105.464822 158.881443 105.464822 158.881443 105.464822 158.881443 
C 105.464822 158.881443 105.464822 158.881443 105.464822 158.881443 
z
" clip-path="url(#pcebaf9bd15)" style="stroke: #000000"/>
    <path d="M 105.925169 150.70705 
C 106.518181 150.70705 107.086985 150.471443 107.506308 150.05212 
C 107.925631 149.632797 108.161237 149.063994 108.161237 148.470982 
C 108.161237 147.877969 107.925631 147.309166 107.506308 146.889843 
C 107.086985 146.47052 106.518181 146.234914 105.925169 146.234914 
C 105.332157 146.234914 104.763353 146.47052 104.34403 146.889843 
C 103.924707 147.309166 103.689101 147.877969 103.689101 148.470982 
C 103.689101 149.063994 103.924707 149.632797 104.34403 150.05212 
C 104.763353 150.471443 105.332157 150.70705 105.925169 150.70705 
z
" clip-path="url(#pcebaf9bd15)" style="stroke: #000000"/>
    <path d="M 102.250058 142.414529 
C 102.843441 142.414529 103.4126 142.178776 103.832185 141.759191 
C 104.251769 141.339606 104.487523 140.770447 104.487523 140.177065 
C 104.487523 139.583683 104.251769 139.014524 103.832185 138.594939 
C 103.4126 138.175354 102.843441 137.939601 102.250058 137.939601 
C 101.656676 137.939601 101.087517 138.175354 100.667932 138.594939 
C 100.248348 139.014524 100.012594 139.583683 100.012594 140.177065 
C 100.012594 140.770447 100.248348 141.339606 100.667932 141.759191 
C 101.087517 142.178776 101.656676 142.414529 102.250058 142.414529 
z
" clip-path="url(#pcebaf9bd15)" style="stroke: #000000"/>
    <path d="M 95.11838 126.964166 
C 95.659344 126.964166 96.178225 126.749239 96.560744 126.366719 
C 96.943263 125.9842 97.158191 125.465319 97.158191 124.924355 
C 97.158191 124.383391 96.943263 123.86451 96.560744 123.481991 
C 96.178225 123.099471 95.659344 122.884544 95.11838 122.884544 
C 94.577416 122.884544 94.058535 123.099471 93.676016 123.481991 
C 93.293496 123.86451 93.078569 124.383391 93.078569 124.924355 
C 93.078569 125.465319 93.293496 125.9842 93.676016 126.366719 
C 94.058535 126.749239 94.577416 126.964166 95.11838 126.964166 
z
" clip-path="url(#pcebaf9bd15)" style="stroke: #000000"/>
    <path d="M 94.522461 116.061551 
C 94.522461 116.061551 94.522461 116.061551 94.522461 116.061551 
C 94.522461 116.061551 94.522461 116.061551 94.522461 116.061551 
C 94.522461 116.061551 94.522461 116.061551 94.522461 116.061551 
C 94.522461 116.061551 94.522461 116.061551 94.522461 116.061551 
C 94.522461 116.061551 94.522461 116.061551 94.522461 116.061551 
C 94.522461 116.061551 94.522461 116.061551 94.522461 116.061551 
C 94.522461 116.061551 94.522461 116.061551 94.522461 116.061551 
C 94.522461 116.061551 94.522461 116.061551 94.522461 116.061551 
z
" clip-path="url(#pcebaf9bd15)" style="stroke: #000000"/>
    <path d="M 85.627091 106.024575 
C 86.196492 106.024575 86.742648 105.798349 87.145276 105.395722 
C 87.547903 104.993094 87.774129 104.446938 87.774129 103.877537 
C 87.774129 103.308136 87.547903 102.761979 87.145276 102.359352 
C 86.742648 101.956724 86.196492 101.730499 85.627091 101.730499 
C 85.057689 101.730499 84.511533 101.956724 84.108905 102.359352 
C 83.706278 102.761979 83.480053 103.308136 83.480053 103.877537 
C 83.480053 104.446938 83.706278 104.993094 84.108905 105.395722 
C 84.511533 105.798349 85.057689 106.024575 85.627091 106.024575 
z
" clip-path="url(#pcebaf9bd15)" style="stroke: #000000"/>
    <path d="M 85.762937 101.624429 
C 86.340934 101.624429 86.895335 101.394789 87.304041 100.986083 
C 87.712746 100.577378 87.942386 100.022977 87.942386 99.44498 
C 87.942386 98.866983 87.712746 98.312582 87.304041 97.903876 
C 86.895335 97.495171 86.340934 97.26553 85.762937 97.26553 
C 85.18494 97.26553 84.630539 97.495171 84.221834 97.903876 
C 83.813128 98.312582 83.583488 98.866983 83.583488 99.44498 
C 83.583488 100.022977 83.813128 100.577378 84.221834 100.986083 
C 84.630539 101.394789 85.18494 101.624429 85.762937 101.624429 
z
" clip-path="url(#pcebaf9bd15)" style="stroke: #000000"/>
    <path d="M 83.255953 87.298526 
C 83.849336 87.298526 84.418495 87.062773 84.838079 86.643188 
C 85.257664 86.223603 85.493417 85.654444 85.493417 85.061062 
C 85.493417 84.467679 85.257664 83.898521 84.838079 83.478936 
C 84.418495 83.059351 83.849336 82.823598 83.255953 82.823598 
C 82.662571 82.823598 82.093412 83.059351 81.673827 83.478936 
C 81.254242 83.898521 81.018489 84.467679 81.018489 85.061062 
C 81.018489 85.654444 81.254242 86.223603 81.673827 86.643188 
C 82.093412 87.062773 82.662571 87.298526 83.255953 87.298526 
z
" clip-path="url(#pcebaf9bd15)" style="stroke: #000000"/>
    <path d="M 80.932521 78.829449 
C 81.637515 78.829449 82.313728 78.549352 82.812234 78.050846 
C 83.31074 77.55234 83.590837 76.876126 83.590837 76.171133 
C 83.590837 75.466139 83.31074 74.789925 82.812234 74.291419 
C 82.313728 73.792913 81.637515 73.512816 80.932521 73.512816 
C 80.227527 73.512816 79.551313 73.792913 79.052807 74.291419 
C 78.554301 74.789925 78.274204 75.466139 78.274204 76.171133 
C 78.274204 76.876126 78.554301 77.55234 79.052807 78.050846 
C 79.551313 78.549352 80.227527 78.829449 80.932521 78.829449 
z
" clip-path="url(#pcebaf9bd15)" style="stroke: #000000"/>
    <path d="M 73.268224 73.169605 
C 73.941847 73.169605 74.587972 72.901971 75.064295 72.425648 
C 75.540619 71.949324 75.808252 71.3032 75.808252 70.629576 
C 75.808252 69.955953 75.540619 69.309829 75.064295 68.833505 
C 74.587972 68.357182 73.941847 68.089548 73.268224 68.089548 
C 72.594601 68.089548 71.948476 68.357182 71.472153 68.833505 
C 70.995829 69.309829 70.728196 69.955953 70.728196 70.629576 
C 70.728196 71.3032 70.995829 71.949324 71.472153 72.425648 
C 71.948476 72.901971 72.594601 73.169605 73.268224 73.169605 
z
" clip-path="url(#pcebaf9bd15)" style="stroke: #000000"/>
    <path d="M 72.817055 61.342821 
C 73.410437 61.342821 73.979596 61.107068 74.399181 60.687483 
C 74.818766 60.267898 75.054519 59.698739 75.054519 59.105357 
C 75.054519 58.511974 74.818766 57.942815 74.399181 57.523231 
C 73.979596 57.103646 73.410437 56.867892 72.817055 56.867892 
C 72.223672 56.867892 71.654513 57.103646 71.234929 57.523231 
C 70.815344 57.942815 70.57959 58.511974 70.57959 59.105357 
C 70.57959 59.698739 70.815344 60.267898 71.234929 60.687483 
C 71.654513 61.107068 72.223672 61.342821 72.817055 61.342821 
z
" clip-path="url(#pcebaf9bd15)" style="stroke: #000000"/>
    <path d="M 66.727204 48.705712 
C 67.320216 48.705712 67.88902 48.470106 68.308343 48.050783 
C 68.727665 47.63146 68.963272 47.062656 68.963272 46.469644 
C 68.963272 45.876632 68.727665 45.307828 68.308343 44.888505 
C 67.88902 44.469182 67.320216 44.233576 66.727204 44.233576 
C 66.134192 44.233576 65.565388 44.469182 65.146065 44.888505 
C 64.726742 45.307828 64.491136 45.876632 64.491136 46.469644 
C 64.491136 47.062656 64.726742 47.63146 65.146065 48.050783 
C 65.565388 48.470106 66.134192 48.705712 66.727204 48.705712 
z
" clip-path="url(#pcebaf9bd15)" style="stroke: #000000"/>
    <path d="M 67.228874 36.286474 
C 67.228874 36.286474 67.228874 36.286474 67.228874 36.286474 
C 67.228874 36.286474 67.228874 36.286474 67.228874 36.286474 
C 67.228874 36.286474 67.228874 36.286474 67.228874 36.286474 
C 67.228874 36.286474 67.228874 36.286474 67.228874 36.286474 
C 67.228874 36.286474 67.228874 36.286474 67.228874 36.286474 
C 67.228874 36.286474 67.228874 36.286474 67.228874 36.286474 
C 67.228874 36.286474 67.228874 36.286474 67.228874 36.286474 
C 67.228874 36.286474 67.228874 36.286474 67.228874 36.286474 
z
" clip-path="url(#pcebaf9bd15)" style="stroke: #000000"/>
    <path d="M 57.343777 30.052709 
C 57.531304 30.052709 57.711175 29.978204 57.843777 29.845602 
C 57.976378 29.713001 58.050884 29.533129 58.050884 29.345602 
C 58.050884 29.158075 57.976378 28.978204 57.843777 28.845602 
C 57.711175 28.713001 57.531304 28.638496 57.343777 28.638496 
C 57.15625 28.638496 56.976378 28.713001 56.843777 28.845602 
C 56.711175 28.978204 56.63667 29.158075 56.63667 29.345602 
C 56.63667 29.533129 56.711175 29.713001 56.843777 29.845602 
C 56.976378 29.978204 57.15625 30.052709 57.343777 30.052709 
z
" clip-path="url(#pcebaf9bd15)" style="stroke: #000000"/>
    <path d="M 101.38649 181.452724 
C 101.38649 181.452724 101.38649 181.452724 101.38649 181.452724 
C 101.38649 181.452724 101.38649 181.452724 101.38649 181.452724 
C 101.38649 181.452724 101.38649 181.452724 101.38649 181.452724 
C 101.38649 181.452724 101.38649 181.452724 101.38649 181.452724 
C 101.38649 181.452724 101.38649 181.452724 101.38649 181.452724 
C 101.38649 181.452724 101.38649 181.452724 101.38649 181.452724 
C 101.38649 181.452724 101.38649 181.452724 101.38649 181.452724 
C 101.38649 181.452724 101.38649 181.452724 101.38649 181.452724 
z
" clip-path="url(#pcebaf9bd15)" style="stroke: #000000"/>
    <path d="M 101.138828 174.594385 
C 101.138828 174.594385 101.138828 174.594385 101.138828 174.594385 
C 101.138828 174.594385 101.138828 174.594385 101.138828 174.594385 
C 101.138828 174.594385 101.138828 174.594385 101.138828 174.594385 
C 101.138828 174.594385 101.138828 174.594385 101.138828 174.594385 
C 101.138828 174.594385 101.138828 174.594385 101.138828 174.594385 
C 101.138828 174.594385 101.138828 174.594385 101.138828 174.594385 
C 101.138828 174.594385 101.138828 174.594385 101.138828 174.594385 
C 101.138828 174.594385 101.138828 174.594385 101.138828 174.594385 
z
" clip-path="url(#pcebaf9bd15)" style="stroke: #000000"/>
    <path d="M 94.958784 157.72803 
C 94.958784 157.72803 94.958784 157.72803 94.958784 157.72803 
C 94.958784 157.72803 94.958784 157.72803 94.958784 157.72803 
C 94.958784 157.72803 94.958784 157.72803 94.958784 157.72803 
C 94.958784 157.72803 94.958784 157.72803 94.958784 157.72803 
C 94.958784 157.72803 94.958784 157.72803 94.958784 157.72803 
C 94.958784 157.72803 94.958784 157.72803 94.958784 157.72803 
C 94.958784 157.72803 94.958784 157.72803 94.958784 157.72803 
C 94.958784 157.72803 94.958784 157.72803 94.958784 157.72803 
z
" clip-path="url(#pcebaf9bd15)" style="stroke: #000000"/>
    <path d="M 94.713957 151.14881 
C 94.713957 151.14881 94.713957 151.14881 94.713957 151.14881 
C 94.713957 151.14881 94.713957 151.14881 94.713957 151.14881 
C 94.713957 151.14881 94.713957 151.14881 94.713957 151.14881 
C 94.713957 151.14881 94.713957 151.14881 94.713957 151.14881 
C 94.713957 151.14881 94.713957 151.14881 94.713957 151.14881 
C 94.713957 151.14881 94.713957 151.14881 94.713957 151.14881 
C 94.713957 151.14881 94.713957 151.14881 94.713957 151.14881 
C 94.713957 151.14881 94.713957 151.14881 94.713957 151.14881 
z
" clip-path="url(#pcebaf9bd15)" style="stroke: #000000"/>
    <path d="M 87.965938 137.243138 
C 87.965938 137.243138 87.965938 137.243138 87.965938 137.243138 
C 87.965938 137.243138 87.965938 137.243138 87.965938 137.243138 
C 87.965938 137.243138 87.965938 137.243138 87.965938 137.243138 
C 87.965938 137.243138 87.965938 137.243138 87.965938 137.243138 
C 87.965938 137.243138 87.965938 137.243138 87.965938 137.243138 
C 87.965938 137.243138 87.965938 137.243138 87.965938 137.243138 
C 87.965938 137.243138 87.965938 137.243138 87.965938 137.243138 
C 87.965938 137.243138 87.965938 137.243138 87.965938 137.243138 
z
" clip-path="url(#pcebaf9bd15)" style="stroke: #000000"/>
    <path d="M 87.076666 129.830713 
C 87.7821 129.830713 88.458737 129.550441 88.957555 129.051623 
C 89.456372 128.552806 89.736644 127.876169 89.736644 127.170735 
C 89.736644 126.4653 89.456372 125.788663 88.957555 125.289846 
C 88.458737 124.791028 87.7821 124.510756 87.076666 124.510756 
C 86.371231 124.510756 85.694595 124.791028 85.195777 125.289846 
C 84.696959 125.788663 84.416687 126.4653 84.416687 127.170735 
C 84.416687 127.876169 84.696959 128.552806 85.195777 129.051623 
C 85.694595 129.550441 86.371231 129.830713 87.076666 129.830713 
z
" clip-path="url(#pcebaf9bd15)" style="stroke: #000000"/>
    <path d="M 83.177008 121.827365 
C 83.882223 121.827365 84.558648 121.547181 85.05731 121.048519 
C 85.555972 120.549857 85.836156 119.873432 85.836156 119.168217 
C 85.836156 118.463003 85.555972 117.786578 85.05731 117.287916 
C 84.558648 116.789254 83.882223 116.509069 83.177008 116.509069 
C 82.471794 116.509069 81.795369 116.789254 81.296707 117.287916 
C 80.798045 117.786578 80.51786 118.463003 80.51786 119.168217 
C 80.51786 119.873432 80.798045 120.549857 81.296707 121.048519 
C 81.795369 121.547181 82.471794 121.827365 83.177008 121.827365 
z
" clip-path="url(#pcebaf9bd15)" style="stroke: #000000"/>
    <path d="M 79.087636 108.07796 
C 79.792851 108.07796 80.469276 107.797775 80.967938 107.299113 
C 81.4666 106.800451 81.746784 106.124026 81.746784 105.418812 
C 81.746784 104.713597 81.4666 104.037172 80.967938 103.53851 
C 80.469276 103.039848 79.792851 102.759664 79.087636 102.759664 
C 78.382422 102.759664 77.705997 103.039848 77.207335 103.53851 
C 76.708673 104.037172 76.428488 104.713597 76.428488 105.418812 
C 76.428488 106.124026 76.708673 106.800451 77.207335 107.299113 
C 77.705997 107.797775 78.382422 108.07796 79.087636 108.07796 
z
" clip-path="url(#pcebaf9bd15)" style="stroke: #000000"/>
    <path d="M 74.923141 104.430612 
C 74.923141 104.430612 74.923141 104.430612 74.923141 104.430612 
C 74.923141 104.430612 74.923141 104.430612 74.923141 104.430612 
C 74.923141 104.430612 74.923141 104.430612 74.923141 104.430612 
C 74.923141 104.430612 74.923141 104.430612 74.923141 104.430612 
C 74.923141 104.430612 74.923141 104.430612 74.923141 104.430612 
C 74.923141 104.430612 74.923141 104.430612 74.923141 104.430612 
C 74.923141 104.430612 74.923141 104.430612 74.923141 104.430612 
C 74.923141 104.430612 74.923141 104.430612 74.923141 104.430612 
z
" clip-path="url(#pcebaf9bd15)" style="stroke: #000000"/>
    <path d="M 70.977766 89.176299 
C 70.977766 89.176299 70.977766 89.176299 70.977766 89.176299 
C 70.977766 89.176299 70.977766 89.176299 70.977766 89.176299 
C 70.977766 89.176299 70.977766 89.176299 70.977766 89.176299 
C 70.977766 89.176299 70.977766 89.176299 70.977766 89.176299 
C 70.977766 89.176299 70.977766 89.176299 70.977766 89.176299 
C 70.977766 89.176299 70.977766 89.176299 70.977766 89.176299 
C 70.977766 89.176299 70.977766 89.176299 70.977766 89.176299 
C 70.977766 89.176299 70.977766 89.176299 70.977766 89.176299 
z
" clip-path="url(#pcebaf9bd15)" style="stroke: #000000"/>
    <path d="M 66.181627 82.116802 
C 66.886841 82.116802 67.563267 81.836617 68.061928 81.337956 
C 68.56059 80.839294 68.840775 80.162868 68.840775 79.457654 
C 68.840775 78.75244 68.56059 78.076014 68.061928 77.577352 
C 67.563267 77.078691 66.886841 76.798506 66.181627 76.798506 
C 65.476413 76.798506 64.799987 77.078691 64.301325 77.577352 
C 63.802664 78.076014 63.522479 78.75244 63.522479 79.457654 
C 63.522479 80.162868 63.802664 80.839294 64.301325 81.337956 
C 64.799987 81.836617 65.476413 82.116802 66.181627 82.116802 
z
" clip-path="url(#pcebaf9bd15)" style="stroke: #000000"/>
    <path d="M 66.959589 69.715267 
C 66.959589 69.715267 66.959589 69.715267 66.959589 69.715267 
C 66.959589 69.715267 66.959589 69.715267 66.959589 69.715267 
C 66.959589 69.715267 66.959589 69.715267 66.959589 69.715267 
C 66.959589 69.715267 66.959589 69.715267 66.959589 69.715267 
C 66.959589 69.715267 66.959589 69.715267 66.959589 69.715267 
C 66.959589 69.715267 66.959589 69.715267 66.959589 69.715267 
C 66.959589 69.715267 66.959589 69.715267 66.959589 69.715267 
C 66.959589 69.715267 66.959589 69.715267 66.959589 69.715267 
z
" clip-path="url(#pcebaf9bd15)" style="stroke: #000000"/>
    <path d="M 63.651203 58.612885 
C 63.651203 58.612885 63.651203 58.612885 63.651203 58.612885 
C 63.651203 58.612885 63.651203 58.612885 63.651203 58.612885 
C 63.651203 58.612885 63.651203 58.612885 63.651203 58.612885 
C 63.651203 58.612885 63.651203 58.612885 63.651203 58.612885 
C 63.651203 58.612885 63.651203 58.612885 63.651203 58.612885 
C 63.651203 58.612885 63.651203 58.612885 63.651203 58.612885 
C 63.651203 58.612885 63.651203 58.612885 63.651203 58.612885 
C 63.651203 58.612885 63.651203 58.612885 63.651203 58.612885 
z
" clip-path="url(#pcebaf9bd15)" style="stroke: #000000"/>
    <path d="M 59.221849 49.192398 
C 59.752773 49.192398 60.262022 48.98146 60.637442 48.60604 
C 61.012861 48.230621 61.2238 47.721371 61.2238 47.190448 
C 61.2238 46.659524 61.012861 46.150275 60.637442 45.774855 
C 60.262022 45.399436 59.752773 45.188498 59.221849 45.188498 
C 58.690926 45.188498 58.181676 45.399436 57.806257 45.774855 
C 57.430837 46.150275 57.219899 46.659524 57.219899 47.190448 
C 57.219899 47.721371 57.430837 48.230621 57.806257 48.60604 
C 58.181676 48.98146 58.690926 49.192398 59.221849 49.192398 
z
" clip-path="url(#pcebaf9bd15)" style="stroke: #000000"/>
    <path d="M 54.570662 37.909316 
C 54.570662 37.909316 54.570662 37.909316 54.570662 37.909316 
C 54.570662 37.909316 54.570662 37.909316 54.570662 37.909316 
C 54.570662 37.909316 54.570662 37.909316 54.570662 37.909316 
C 54.570662 37.909316 54.570662 37.909316 54.570662 37.909316 
C 54.570662 37.909316 54.570662 37.909316 54.570662 37.909316 
C 54.570662 37.909316 54.570662 37.909316 54.570662 37.909316 
C 54.570662 37.909316 54.570662 37.909316 54.570662 37.909316 
C 54.570662 37.909316 54.570662 37.909316 54.570662 37.909316 
z
" clip-path="url(#pcebaf9bd15)" style="stroke: #000000"/>
    <path d="M 90.846857 175.009316 
C 91.388795 175.009316 91.90861 174.794002 92.291818 174.410793 
C 92.675026 174.027585 92.890341 173.507771 92.890341 172.965833 
C 92.890341 172.423895 92.675026 171.90408 92.291818 171.520872 
C 91.90861 171.137664 91.388795 170.92235 90.846857 170.92235 
C 90.304919 170.92235 89.785105 171.137664 89.401897 171.520872 
C 89.018689 171.90408 88.803374 172.423895 88.803374 172.965833 
C 88.803374 173.507771 89.018689 174.027585 89.401897 174.410793 
C 89.785105 174.794002 90.304919 175.009316 90.846857 175.009316 
z
" clip-path="url(#pcebaf9bd15)" style="stroke: #000000"/>
    <path d="M 83.856219 164.825153 
C 84.449601 164.825153 85.01876 164.589399 85.438345 164.169815 
C 85.857929 163.75023 86.093683 163.181071 86.093683 162.587689 
C 86.093683 161.994306 85.857929 161.425147 85.438345 161.005562 
C 85.01876 160.585978 84.449601 160.350224 83.856219 160.350224 
C 83.262836 160.350224 82.693677 160.585978 82.274093 161.005562 
C 81.854508 161.425147 81.618754 161.994306 81.618754 162.587689 
C 81.618754 163.181071 81.854508 163.75023 82.274093 164.169815 
C 82.693677 164.589399 83.262836 164.825153 83.856219 164.825153 
z
" clip-path="url(#pcebaf9bd15)" style="stroke: #000000"/>
    <path d="M 87.591573 154.977932 
C 87.591573 154.977932 87.591573 154.977932 87.591573 154.977932 
C 87.591573 154.977932 87.591573 154.977932 87.591573 154.977932 
C 87.591573 154.977932 87.591573 154.977932 87.591573 154.977932 
C 87.591573 154.977932 87.591573 154.977932 87.591573 154.977932 
C 87.591573 154.977932 87.591573 154.977932 87.591573 154.977932 
C 87.591573 154.977932 87.591573 154.977932 87.591573 154.977932 
C 87.591573 154.977932 87.591573 154.977932 87.591573 154.977932 
C 87.591573 154.977932 87.591573 154.977932 87.591573 154.977932 
z
" clip-path="url(#pcebaf9bd15)" style="stroke: #000000"/>
    <path d="M 83.14042 145.897959 
C 83.14042 145.897959 83.14042 145.897959 83.14042 145.897959 
C 83.14042 145.897959 83.14042 145.897959 83.14042 145.897959 
C 83.14042 145.897959 83.14042 145.897959 83.14042 145.897959 
C 83.14042 145.897959 83.14042 145.897959 83.14042 145.897959 
C 83.14042 145.897959 83.14042 145.897959 83.14042 145.897959 
C 83.14042 145.897959 83.14042 145.897959 83.14042 145.897959 
C 83.14042 145.897959 83.14042 145.897959 83.14042 145.897959 
C 83.14042 145.897959 83.14042 145.897959 83.14042 145.897959 
z
" clip-path="url(#pcebaf9bd15)" style="stroke: #000000"/>
    <path d="M 72.911067 137.570952 
C 73.616281 137.570952 74.292706 137.290768 74.791368 136.792106 
C 75.29003 136.293444 75.570215 135.617019 75.570215 134.911804 
C 75.570215 134.20659 75.29003 133.530165 74.791368 133.031503 
C 74.292706 132.532841 73.616281 132.252657 72.911067 132.252657 
C 72.205852 132.252657 71.529427 132.532841 71.030765 133.031503 
C 70.532103 133.530165 70.251919 134.20659 70.251919 134.911804 
C 70.251919 135.617019 70.532103 136.293444 71.030765 136.792106 
C 71.529427 137.290768 72.205852 137.570952 72.911067 137.570952 
z
" clip-path="url(#pcebaf9bd15)" style="stroke: #000000"/>
    <path d="M 70.464073 123.384151 
C 71.057086 123.384151 71.625889 123.148545 72.045212 122.729222 
C 72.464535 122.309899 72.700141 121.741096 72.700141 121.148083 
C 72.700141 120.555071 72.464535 119.986268 72.045212 119.566945 
C 71.625889 119.147622 71.057086 118.912016 70.464073 118.912016 
C 69.871061 118.912016 69.302257 119.147622 68.882935 119.566945 
C 68.463612 119.986268 68.228005 120.555071 68.228005 121.148083 
C 68.228005 121.741096 68.463612 122.309899 68.882935 122.729222 
C 69.302257 123.148545 69.871061 123.384151 70.464073 123.384151 
z
" clip-path="url(#pcebaf9bd15)" style="stroke: #000000"/>
    <path d="M 68.416143 116.070127 
C 69.121357 116.070127 69.797783 115.789943 70.296445 115.291281 
C 70.795106 114.792619 71.075291 114.116194 71.075291 113.410979 
C 71.075291 112.705765 70.795106 112.029339 70.296445 111.530678 
C 69.797783 111.032016 69.121357 110.751831 68.416143 110.751831 
C 67.710929 110.751831 67.034503 111.032016 66.535841 111.530678 
C 66.03718 112.029339 65.756995 112.705765 65.756995 113.410979 
C 65.756995 114.116194 66.03718 114.792619 66.535841 115.291281 
C 67.034503 115.789943 67.710929 116.070127 68.416143 116.070127 
z
" clip-path="url(#pcebaf9bd15)" style="stroke: #000000"/>
    <path d="M 64.008075 105.354315 
C 64.570656 105.354315 65.11027 105.130799 65.508075 104.732994 
C 65.90588 104.33519 66.129395 103.795575 66.129395 103.232994 
C 66.129395 102.670414 65.90588 102.130799 65.508075 101.732994 
C 65.11027 101.33519 64.570656 101.111674 64.008075 101.111674 
C 63.445494 101.111674 62.90588 101.33519 62.508075 101.732994 
C 62.11027 102.130799 61.886755 102.670414 61.886755 103.232994 
C 61.886755 103.795575 62.11027 104.33519 62.508075 104.732994 
C 62.90588 105.130799 63.445494 105.354315 64.008075 105.354315 
z
" clip-path="url(#pcebaf9bd15)" style="stroke: #000000"/>
    <path d="M 59.881687 94.540859 
C 60.586902 94.540859 61.263327 94.260675 61.761989 93.762013 
C 62.260651 93.263351 62.540835 92.586926 62.540835 91.881711 
C 62.540835 91.176497 62.260651 90.500072 61.761989 90.00141 
C 61.263327 89.502748 60.586902 89.222563 59.881687 89.222563 
C 59.176473 89.222563 58.500048 89.502748 58.001386 90.00141 
C 57.502724 90.500072 57.22254 91.176497 57.22254 91.881711 
C 57.22254 92.586926 57.502724 93.263351 58.001386 93.762013 
C 58.500048 94.260675 59.176473 94.540859 59.881687 94.540859 
z
" clip-path="url(#pcebaf9bd15)" style="stroke: #000000"/>
    <path d="M 56.316865 84.669795 
C 56.738269 84.669795 57.14247 84.502369 57.440448 84.204391 
C 57.738425 83.906414 57.905851 83.502213 57.905851 83.080809 
C 57.905851 82.659405 57.738425 82.255203 57.440448 81.957226 
C 57.14247 81.659248 56.738269 81.491823 56.316865 81.491823 
C 55.895461 81.491823 55.49126 81.659248 55.193282 81.957226 
C 54.895304 82.255203 54.727879 82.659405 54.727879 83.080809 
C 54.727879 83.502213 54.895304 83.906414 55.193282 84.204391 
C 55.49126 84.502369 55.895461 84.669795 56.316865 84.669795 
z
" clip-path="url(#pcebaf9bd15)" style="stroke: #000000"/>
    <path d="M 51.540893 78.338018 
C 52.135014 78.338018 52.704881 78.101971 53.124988 77.681864 
C 53.545095 77.261757 53.781142 76.69189 53.781142 76.097769 
C 53.781142 75.503648 53.545095 74.933781 53.124988 74.513674 
C 52.704881 74.093567 52.135014 73.85752 51.540893 73.85752 
C 50.946772 73.85752 50.376905 74.093567 49.956798 74.513674 
C 49.536691 74.933781 49.300644 75.503648 49.300644 76.097769 
C 49.300644 76.69189 49.536691 77.261757 49.956798 77.681864 
C 50.376905 78.101971 50.946772 78.338018 51.540893 78.338018 
z
" clip-path="url(#pcebaf9bd15)" style="stroke: #000000"/>
    <path d="M 47.010046 59.758006 
C 47.603058 59.758006 48.171862 59.5224 48.591185 59.103077 
C 49.010508 58.683754 49.246114 58.11495 49.246114 57.521938 
C 49.246114 56.928926 49.010508 56.360122 48.591185 55.940799 
C 48.171862 55.521476 47.603058 55.28587 47.010046 55.28587 
C 46.417034 55.28587 45.84823 55.521476 45.428907 55.940799 
C 45.009584 56.360122 44.773978 56.928926 44.773978 57.521938 
C 44.773978 58.11495 45.009584 58.683754 45.428907 59.103077 
C 45.84823 59.5224 46.417034 59.758006 47.010046 59.758006 
z
" clip-path="url(#pcebaf9bd15)" style="stroke: #000000"/>
    <path d="M 48.431204 51.380876 
C 49.024586 51.380876 49.593745 51.145123 50.01333 50.725538 
C 50.432915 50.305953 50.668668 49.736794 50.668668 49.143412 
C 50.668668 48.550029 50.432915 47.98087 50.01333 47.561286 
C 49.593745 47.141701 49.024586 46.905948 48.431204 46.905948 
C 47.837821 46.905948 47.268663 47.141701 46.849078 47.561286 
C 46.429493 47.98087 46.19374 48.550029 46.19374 49.143412 
C 46.19374 49.736794 46.429493 50.305953 46.849078 50.725538 
C 47.268663 51.145123 47.837821 51.380876 48.431204 51.380876 
z
" clip-path="url(#pcebaf9bd15)" style="stroke: #000000"/>
    <path d="M 44.178432 39.180652 
C 44.178432 39.180652 44.178432 39.180652 44.178432 39.180652 
C 44.178432 39.180652 44.178432 39.180652 44.178432 39.180652 
C 44.178432 39.180652 44.178432 39.180652 44.178432 39.180652 
C 44.178432 39.180652 44.178432 39.180652 44.178432 39.180652 
C 44.178432 39.180652 44.178432 39.180652 44.178432 39.180652 
C 44.178432 39.180652 44.178432 39.180652 44.178432 39.180652 
C 44.178432 39.180652 44.178432 39.180652 44.178432 39.180652 
C 44.178432 39.180652 44.178432 39.180652 44.178432 39.180652 
z
" clip-path="url(#pcebaf9bd15)" style="stroke: #000000"/>
    <path d="M 79.269626 180.515999 
C 79.794774 180.515999 80.298485 180.307355 80.669822 179.936019 
C 81.041158 179.564683 81.249802 179.060972 81.249802 178.535823 
C 81.249802 178.010674 81.041158 177.506964 80.669822 177.135627 
C 80.298485 176.764291 79.794774 176.555647 79.269626 176.555647 
C 78.744477 176.555647 78.240766 176.764291 77.86943 177.135627 
C 77.498094 177.506964 77.28945 178.010674 77.28945 178.535823 
C 77.28945 179.060972 77.498094 179.564683 77.86943 179.936019 
C 78.240766 180.307355 78.744477 180.515999 79.269626 180.515999 
z
" clip-path="url(#pcebaf9bd15)" style="stroke: #000000"/>
    <path d="M 77.904478 169.289069 
C 77.904478 169.289069 77.904478 169.289069 77.904478 169.289069 
C 77.904478 169.289069 77.904478 169.289069 77.904478 169.289069 
C 77.904478 169.289069 77.904478 169.289069 77.904478 169.289069 
C 77.904478 169.289069 77.904478 169.289069 77.904478 169.289069 
C 77.904478 169.289069 77.904478 169.289069 77.904478 169.289069 
C 77.904478 169.289069 77.904478 169.289069 77.904478 169.289069 
C 77.904478 169.289069 77.904478 169.289069 77.904478 169.289069 
C 77.904478 169.289069 77.904478 169.289069 77.904478 169.289069 
z
" clip-path="url(#pcebaf9bd15)" style="stroke: #000000"/>
    <path d="M 70.817272 156.288761 
C 70.817272 156.288761 70.817272 156.288761 70.817272 156.288761 
C 70.817272 156.288761 70.817272 156.288761 70.817272 156.288761 
C 70.817272 156.288761 70.817272 156.288761 70.817272 156.288761 
C 70.817272 156.288761 70.817272 156.288761 70.817272 156.288761 
C 70.817272 156.288761 70.817272 156.288761 70.817272 156.288761 
C 70.817272 156.288761 70.817272 156.288761 70.817272 156.288761 
C 70.817272 156.288761 70.817272 156.288761 70.817272 156.288761 
C 70.817272 156.288761 70.817272 156.288761 70.817272 156.288761 
z
" clip-path="url(#pcebaf9bd15)" style="stroke: #000000"/>
    <path d="M 69.518783 150.507127 
C 69.779741 150.507127 70.030047 150.403447 70.214572 150.218922 
C 70.399098 150.034396 70.502778 149.784091 70.502778 149.523133 
C 70.502778 149.262174 70.399098 149.011869 70.214572 148.827343 
C 70.030047 148.642818 69.779741 148.539138 69.518783 148.539138 
C 69.257824 148.539138 69.007519 148.642818 68.822993 148.827343 
C 68.638468 149.011869 68.534788 149.262174 68.534788 149.523133 
C 68.534788 149.784091 68.638468 150.034396 68.822993 150.218922 
C 69.007519 150.403447 69.257824 150.507127 69.518783 150.507127 
z
" clip-path="url(#pcebaf9bd15)" style="stroke: #000000"/>
    <path d="M 64.454316 138.235804 
C 65.159751 138.235804 65.836388 137.955531 66.335205 137.456714 
C 66.834023 136.957896 67.114295 136.28126 67.114295 135.575825 
C 67.114295 134.87039 66.834023 134.193754 66.335205 133.694936 
C 65.836388 133.196119 65.159751 132.915846 64.454316 132.915846 
C 63.748882 132.915846 63.072245 133.196119 62.573428 133.694936 
C 62.07461 134.193754 61.794338 134.87039 61.794338 135.575825 
C 61.794338 136.28126 62.07461 136.957896 62.573428 137.456714 
C 63.072245 137.955531 63.748882 138.235804 64.454316 138.235804 
z
" clip-path="url(#pcebaf9bd15)" style="stroke: #000000"/>
    <path d="M 58.726886 129.00528 
C 59.28816 129.00528 59.826521 128.782283 60.223401 128.385403 
C 60.620282 127.988522 60.843279 127.450161 60.843279 126.888887 
C 60.843279 126.327613 60.620282 125.789252 60.223401 125.392372 
C 59.826521 124.995491 59.28816 124.772494 58.726886 124.772494 
C 58.165612 124.772494 57.627251 124.995491 57.23037 125.392372 
C 56.83349 125.789252 56.610493 126.327613 56.610493 126.888887 
C 56.610493 127.450161 56.83349 127.988522 57.23037 128.385403 
C 57.627251 128.782283 58.165612 129.00528 58.726886 129.00528 
z
" clip-path="url(#pcebaf9bd15)" style="stroke: #000000"/>
    <path d="M 56.510851 120.321438 
C 57.216286 120.321438 57.892923 120.041166 58.39174 119.542348 
C 58.890558 119.04353 59.17083 118.366894 59.17083 117.661459 
C 59.17083 116.956025 58.890558 116.279388 58.39174 115.78057 
C 57.892923 115.281753 57.216286 115.001481 56.510851 115.001481 
C 55.805417 115.001481 55.12878 115.281753 54.629962 115.78057 
C 54.131145 116.279388 53.850873 116.956025 53.850873 117.661459 
C 53.850873 118.366894 54.131145 119.04353 54.629962 119.542348 
C 55.12878 120.041166 55.805417 120.321438 56.510851 120.321438 
z
" clip-path="url(#pcebaf9bd15)" style="stroke: #000000"/>
    <path d="M 52.357097 106.542379 
C 52.992429 106.542379 53.601826 106.289959 54.051074 105.840711 
C 54.500322 105.391462 54.752743 104.782066 54.752743 104.146733 
C 54.752743 103.5114 54.500322 102.902003 54.051074 102.452755 
C 53.601826 102.003507 52.992429 101.751087 52.357097 101.751087 
C 51.721764 101.751087 51.112367 102.003507 50.663119 102.452755 
C 50.213871 102.902003 49.961451 103.5114 49.961451 104.146733 
C 49.961451 104.782066 50.213871 105.391462 50.663119 105.840711 
C 51.112367 106.289959 51.721764 106.542379 52.357097 106.542379 
z
" clip-path="url(#pcebaf9bd15)" style="stroke: #000000"/>
    <path d="M 53.348168 97.693622 
C 54.053161 97.693622 54.729375 97.413525 55.227881 96.91502 
C 55.726387 96.416514 56.006484 95.7403 56.006484 95.035306 
C 56.006484 94.330312 55.726387 93.654098 55.227881 93.155592 
C 54.729375 92.657086 54.053161 92.376989 53.348168 92.376989 
C 52.643174 92.376989 51.96696 92.657086 51.468454 93.155592 
C 50.969948 93.654098 50.689851 94.330312 50.689851 95.035306 
C 50.689851 95.7403 50.969948 96.416514 51.468454 96.91502 
C 51.96696 97.413525 52.643174 97.693622 53.348168 97.693622 
z
" clip-path="url(#pcebaf9bd15)" style="stroke: #000000"/>
    <path d="M 46.869217 85.585187 
C 47.13847 85.585187 47.396732 85.478212 47.587122 85.287821 
C 47.777513 85.09743 47.884488 84.839169 47.884488 84.569915 
C 47.884488 84.300662 47.777513 84.042401 47.587122 83.85201 
C 47.396732 83.661619 47.13847 83.554644 46.869217 83.554644 
C 46.599964 83.554644 46.341702 83.661619 46.151311 83.85201 
C 45.960921 84.042401 45.853945 84.300662 45.853945 84.569915 
C 45.853945 84.839169 45.960921 85.09743 46.151311 85.287821 
C 46.341702 85.478212 46.599964 85.585187 46.869217 85.585187 
z
" clip-path="url(#pcebaf9bd15)" style="stroke: #000000"/>
    <path d="M 40.44999 80.876455 
C 40.44999 80.876455 40.44999 80.876455 40.44999 80.876455 
C 40.44999 80.876455 40.44999 80.876455 40.44999 80.876455 
C 40.44999 80.876455 40.44999 80.876455 40.44999 80.876455 
C 40.44999 80.876455 40.44999 80.876455 40.44999 80.876455 
C 40.44999 80.876455 40.44999 80.876455 40.44999 80.876455 
C 40.44999 80.876455 40.44999 80.876455 40.44999 80.876455 
C 40.44999 80.876455 40.44999 80.876455 40.44999 80.876455 
C 40.44999 80.876455 40.44999 80.876455 40.44999 80.876455 
z
" clip-path="url(#pcebaf9bd15)" style="stroke: #000000"/>
    <path d="M 39.793158 65.116936 
C 40.386541 65.116936 40.9557 64.881183 41.375285 64.461598 
C 41.794869 64.042014 42.030623 63.472855 42.030623 62.879472 
C 42.030623 62.28609 41.794869 61.716931 41.375285 61.297346 
C 40.9557 60.877761 40.386541 60.642008 39.793158 60.642008 
C 39.199776 60.642008 38.630617 60.877761 38.211032 61.297346 
C 37.791448 61.716931 37.555694 62.28609 37.555694 62.879472 
C 37.555694 63.472855 37.791448 64.042014 38.211032 64.461598 
C 38.630617 64.881183 39.199776 65.116936 39.793158 65.116936 
z
" clip-path="url(#pcebaf9bd15)" style="stroke: #000000"/>
    <path d="M 38.997071 55.767054 
C 38.997071 55.767054 38.997071 55.767054 38.997071 55.767054 
C 38.997071 55.767054 38.997071 55.767054 38.997071 55.767054 
C 38.997071 55.767054 38.997071 55.767054 38.997071 55.767054 
C 38.997071 55.767054 38.997071 55.767054 38.997071 55.767054 
C 38.997071 55.767054 38.997071 55.767054 38.997071 55.767054 
C 38.997071 55.767054 38.997071 55.767054 38.997071 55.767054 
C 38.997071 55.767054 38.997071 55.767054 38.997071 55.767054 
C 38.997071 55.767054 38.997071 55.767054 38.997071 55.767054 
z
" clip-path="url(#pcebaf9bd15)" style="stroke: #000000"/>
    <path d="M 66.386896 175.134782 
C 66.980278 175.134782 67.549437 174.899029 67.969022 174.479444 
C 68.388607 174.059859 68.62436 173.490701 68.62436 172.897318 
C 68.62436 172.303936 68.388607 171.734777 67.969022 171.315192 
C 67.549437 170.895607 66.980278 170.659854 66.386896 170.659854 
C 65.793513 170.659854 65.224355 170.895607 64.80477 171.315192 
C 64.385185 171.734777 64.149432 172.303936 64.149432 172.897318 
C 64.149432 173.490701 64.385185 174.059859 64.80477 174.479444 
C 65.224355 174.899029 65.793513 175.134782 66.386896 175.134782 
z
" clip-path="url(#pcebaf9bd15)" style="stroke: #000000"/>
    <path d="M 59.110741 161.646857 
C 59.110741 161.646857 59.110741 161.646857 59.110741 161.646857 
C 59.110741 161.646857 59.110741 161.646857 59.110741 161.646857 
C 59.110741 161.646857 59.110741 161.646857 59.110741 161.646857 
C 59.110741 161.646857 59.110741 161.646857 59.110741 161.646857 
C 59.110741 161.646857 59.110741 161.646857 59.110741 161.646857 
C 59.110741 161.646857 59.110741 161.646857 59.110741 161.646857 
C 59.110741 161.646857 59.110741 161.646857 59.110741 161.646857 
C 59.110741 161.646857 59.110741 161.646857 59.110741 161.646857 
z
" clip-path="url(#pcebaf9bd15)" style="stroke: #000000"/>
    <path d="M 57.778646 153.123471 
C 57.778646 153.123471 57.778646 153.123471 57.778646 153.123471 
C 57.778646 153.123471 57.778646 153.123471 57.778646 153.123471 
C 57.778646 153.123471 57.778646 153.123471 57.778646 153.123471 
C 57.778646 153.123471 57.778646 153.123471 57.778646 153.123471 
C 57.778646 153.123471 57.778646 153.123471 57.778646 153.123471 
C 57.778646 153.123471 57.778646 153.123471 57.778646 153.123471 
C 57.778646 153.123471 57.778646 153.123471 57.778646 153.123471 
C 57.778646 153.123471 57.778646 153.123471 57.778646 153.123471 
z
" clip-path="url(#pcebaf9bd15)" style="stroke: #000000"/>
    <path d="M 57.305066 143.311099 
C 57.305066 143.311099 57.305066 143.311099 57.305066 143.311099 
C 57.305066 143.311099 57.305066 143.311099 57.305066 143.311099 
C 57.305066 143.311099 57.305066 143.311099 57.305066 143.311099 
C 57.305066 143.311099 57.305066 143.311099 57.305066 143.311099 
C 57.305066 143.311099 57.305066 143.311099 57.305066 143.311099 
C 57.305066 143.311099 57.305066 143.311099 57.305066 143.311099 
C 57.305066 143.311099 57.305066 143.311099 57.305066 143.311099 
C 57.305066 143.311099 57.305066 143.311099 57.305066 143.311099 
z
" clip-path="url(#pcebaf9bd15)" style="stroke: #000000"/>
    <path d="M 51.247378 131.397247 
C 51.952592 131.397247 52.629017 131.117062 53.127679 130.618401 
C 53.626341 130.119739 53.906525 129.443313 53.906525 128.738099 
C 53.906525 128.032885 53.626341 127.356459 53.127679 126.857798 
C 52.629017 126.359136 51.952592 126.078951 51.247378 126.078951 
C 50.542163 126.078951 49.865738 126.359136 49.367076 126.857798 
C 48.868414 127.356459 48.58823 128.032885 48.58823 128.738099 
C 48.58823 129.443313 48.868414 130.119739 49.367076 130.618401 
C 49.865738 131.117062 50.542163 131.397247 51.247378 131.397247 
z
" clip-path="url(#pcebaf9bd15)" style="stroke: #000000"/>
    <path d="M 43.59813 124.449724 
C 44.103511 124.449724 44.588262 124.248934 44.94562 123.891575 
C 45.302979 123.534216 45.503769 123.049466 45.503769 122.544085 
C 45.503769 122.038703 45.302979 121.553953 44.94562 121.196595 
C 44.588262 120.839236 44.103511 120.638446 43.59813 120.638446 
C 43.092749 120.638446 42.607998 120.839236 42.25064 121.196595 
C 41.893281 121.553953 41.692491 122.038703 41.692491 122.544085 
C 41.692491 123.049466 41.893281 123.534216 42.25064 123.891575 
C 42.607998 124.248934 43.092749 124.449724 43.59813 124.449724 
z
" clip-path="url(#pcebaf9bd15)" style="stroke: #000000"/>
    <path d="M 43.858257 114.373018 
C 44.563472 114.373018 45.239897 114.092834 45.738559 113.594172 
C 46.237221 113.09551 46.517405 112.419085 46.517405 111.71387 
C 46.517405 111.008656 46.237221 110.332231 45.738559 109.833569 
C 45.239897 109.334907 44.563472 109.054722 43.858257 109.054722 
C 43.153043 109.054722 42.476618 109.334907 41.977956 109.833569 
C 41.479294 110.332231 41.199109 111.008656 41.199109 111.71387 
C 41.199109 112.419085 41.479294 113.09551 41.977956 113.594172 
C 42.476618 114.092834 43.153043 114.373018 43.858257 114.373018 
z
" clip-path="url(#pcebaf9bd15)" style="stroke: #000000"/>
    <path d="M 38.560474 102.238256 
C 39.265688 102.238256 39.942113 101.958071 40.440775 101.459409 
C 40.939437 100.960748 41.219622 100.284322 41.219622 99.579108 
C 41.219622 98.873894 40.939437 98.197468 40.440775 97.698806 
C 39.942113 97.200145 39.265688 96.91996 38.560474 96.91996 
C 37.855259 96.91996 37.178834 97.200145 36.680172 97.698806 
C 36.18151 98.197468 35.901326 98.873894 35.901326 99.579108 
C 35.901326 100.284322 36.18151 100.960748 36.680172 101.459409 
C 37.178834 101.958071 37.855259 102.238256 38.560474 102.238256 
z
" clip-path="url(#pcebaf9bd15)" style="stroke: #000000"/>
    <path d="M 39.699527 91.972288 
C 39.699527 91.972288 39.699527 91.972288 39.699527 91.972288 
C 39.699527 91.972288 39.699527 91.972288 39.699527 91.972288 
C 39.699527 91.972288 39.699527 91.972288 39.699527 91.972288 
C 39.699527 91.972288 39.699527 91.972288 39.699527 91.972288 
C 39.699527 91.972288 39.699527 91.972288 39.699527 91.972288 
C 39.699527 91.972288 39.699527 91.972288 39.699527 91.972288 
C 39.699527 91.972288 39.699527 91.972288 39.699527 91.972288 
C 39.699527 91.972288 39.699527 91.972288 39.699527 91.972288 
z
" clip-path="url(#pcebaf9bd15)" style="stroke: #000000"/>
    <path d="M 36.605573 77.263782 
C 36.605573 77.263782 36.605573 77.263782 36.605573 77.263782 
C 36.605573 77.263782 36.605573 77.263782 36.605573 77.263782 
C 36.605573 77.263782 36.605573 77.263782 36.605573 77.263782 
C 36.605573 77.263782 36.605573 77.263782 36.605573 77.263782 
C 36.605573 77.263782 36.605573 77.263782 36.605573 77.263782 
C 36.605573 77.263782 36.605573 77.263782 36.605573 77.263782 
C 36.605573 77.263782 36.605573 77.263782 36.605573 77.263782 
C 36.605573 77.263782 36.605573 77.263782 36.605573 77.263782 
z
" clip-path="url(#pcebaf9bd15)" style="stroke: #000000"/>
    <path d="M 51.168461 179.201324 
C 51.761844 179.201324 52.331003 178.96557 52.750587 178.545986 
C 53.170172 178.126401 53.405925 177.557242 53.405925 176.963859 
C 53.405925 176.370477 53.170172 175.801318 52.750587 175.381733 
C 52.331003 174.962149 51.761844 174.726395 51.168461 174.726395 
C 50.575079 174.726395 50.00592 174.962149 49.586335 175.381733 
C 49.16675 175.801318 48.930997 176.370477 48.930997 176.963859 
C 48.930997 177.557242 49.16675 178.126401 49.586335 178.545986 
C 50.00592 178.96557 50.575079 179.201324 51.168461 179.201324 
z
" clip-path="url(#pcebaf9bd15)" style="stroke: #000000"/>
    <path d="M 50.467798 164.184437 
C 50.467798 164.184437 50.467798 164.184437 50.467798 164.184437 
C 50.467798 164.184437 50.467798 164.184437 50.467798 164.184437 
C 50.467798 164.184437 50.467798 164.184437 50.467798 164.184437 
C 50.467798 164.184437 50.467798 164.184437 50.467798 164.184437 
C 50.467798 164.184437 50.467798 164.184437 50.467798 164.184437 
C 50.467798 164.184437 50.467798 164.184437 50.467798 164.184437 
C 50.467798 164.184437 50.467798 164.184437 50.467798 164.184437 
C 50.467798 164.184437 50.467798 164.184437 50.467798 164.184437 
z
" clip-path="url(#pcebaf9bd15)" style="stroke: #000000"/>
    <path d="M 44.461608 157.656476 
C 45.054991 157.656476 45.62415 157.420723 46.043735 157.001138 
C 46.463319 156.581553 46.699073 156.012394 46.699073 155.419012 
C 46.699073 154.825629 46.463319 154.25647 46.043735 153.836886 
C 45.62415 153.417301 45.054991 153.181547 44.461608 153.181547 
C 43.868226 153.181547 43.299067 153.417301 42.879482 153.836886 
C 42.459898 154.25647 42.224144 154.825629 42.224144 155.419012 
C 42.224144 156.012394 42.459898 156.581553 42.879482 157.001138 
C 43.299067 157.420723 43.868226 157.656476 44.461608 157.656476 
z
" clip-path="url(#pcebaf9bd15)" style="stroke: #000000"/>
    <path d="M 44.717537 144.917201 
C 44.717537 144.917201 44.717537 144.917201 44.717537 144.917201 
C 44.717537 144.917201 44.717537 144.917201 44.717537 144.917201 
C 44.717537 144.917201 44.717537 144.917201 44.717537 144.917201 
C 44.717537 144.917201 44.717537 144.917201 44.717537 144.917201 
C 44.717537 144.917201 44.717537 144.917201 44.717537 144.917201 
C 44.717537 144.917201 44.717537 144.917201 44.717537 144.917201 
C 44.717537 144.917201 44.717537 144.917201 44.717537 144.917201 
C 44.717537 144.917201 44.717537 144.917201 44.717537 144.917201 
z
" clip-path="url(#pcebaf9bd15)" style="stroke: #000000"/>
    <path d="M 43.708437 131.819584 
C 43.866128 131.819584 44.017381 131.756933 44.128886 131.645429 
C 44.24039 131.533925 44.303041 131.382671 44.303041 131.224981 
C 44.303041 131.06729 44.24039 130.916037 44.128886 130.804533 
C 44.017381 130.693028 43.866128 130.630377 43.708437 130.630377 
C 43.550747 130.630377 43.399493 130.693028 43.287989 130.804533 
C 43.176485 130.916037 43.113834 131.06729 43.113834 131.224981 
C 43.113834 131.382671 43.176485 131.533925 43.287989 131.645429 
C 43.399493 131.756933 43.550747 131.819584 43.708437 131.819584 
z
" clip-path="url(#pcebaf9bd15)" style="stroke: #000000"/>
    <path d="M 41.183339 122.30397 
C 41.886783 122.30397 42.561512 122.024488 43.058922 121.527078 
C 43.556332 121.029668 43.835814 120.35494 43.835814 119.651495 
C 43.835814 118.94805 43.556332 118.273322 43.058922 117.775912 
C 42.561512 117.278501 41.886783 116.99902 41.183339 116.99902 
C 40.479894 116.99902 39.805166 117.278501 39.307756 117.775912 
C 38.810345 118.273322 38.530864 118.94805 38.530864 119.651495 
C 38.530864 120.35494 38.810345 121.029668 39.307756 121.527078 
C 39.805166 122.024488 40.479894 122.30397 41.183339 122.30397 
z
" clip-path="url(#pcebaf9bd15)" style="stroke: #000000"/>
    <path d="M 34.815107 115.270768 
C 35.520541 115.270768 36.197178 114.990496 36.695995 114.491678 
C 37.194813 113.992861 37.475085 113.316224 37.475085 112.610789 
C 37.475085 111.905355 37.194813 111.228718 36.695995 110.7299 
C 36.197178 110.231083 35.520541 109.950811 34.815107 109.950811 
C 34.109672 109.950811 33.433035 110.231083 32.934218 110.7299 
C 32.4354 111.228718 32.155128 111.905355 32.155128 112.610789 
C 32.155128 113.316224 32.4354 113.992861 32.934218 114.491678 
C 33.433035 114.990496 34.109672 115.270768 34.815107 115.270768 
z
" clip-path="url(#pcebaf9bd15)" style="stroke: #000000"/>
    <path d="M 47.437436 177.285233 
C 48.030818 177.285233 48.599977 177.049479 49.019562 176.629895 
C 49.439147 176.21031 49.6749 175.641151 49.6749 175.047768 
C 49.6749 174.454386 49.439147 173.885227 49.019562 173.465642 
C 48.599977 173.046058 48.030818 172.810304 47.437436 172.810304 
C 46.844053 172.810304 46.274894 173.046058 45.85531 173.465642 
C 45.435725 173.885227 45.199972 174.454386 45.199972 175.047768 
C 45.199972 175.641151 45.435725 176.21031 45.85531 176.629895 
C 46.274894 177.049479 46.844053 177.285233 47.437436 177.285233 
z
" clip-path="url(#pcebaf9bd15)" style="stroke: #000000"/>
    <path d="M 41.331058 168.738441 
C 41.331058 168.738441 41.331058 168.738441 41.331058 168.738441 
C 41.331058 168.738441 41.331058 168.738441 41.331058 168.738441 
C 41.331058 168.738441 41.331058 168.738441 41.331058 168.738441 
C 41.331058 168.738441 41.331058 168.738441 41.331058 168.738441 
C 41.331058 168.738441 41.331058 168.738441 41.331058 168.738441 
C 41.331058 168.738441 41.331058 168.738441 41.331058 168.738441 
C 41.331058 168.738441 41.331058 168.738441 41.331058 168.738441 
C 41.331058 168.738441 41.331058 168.738441 41.331058 168.738441 
z
" clip-path="url(#pcebaf9bd15)" style="stroke: #000000"/>
    <path d="M 37.857705 158.070279 
C 38.451087 158.070279 39.020246 157.834526 39.439831 157.414941 
C 39.859416 156.995356 40.095169 156.426197 40.095169 155.832815 
C 40.095169 155.239432 39.859416 154.670273 39.439831 154.250689 
C 39.020246 153.831104 38.451087 153.59535 37.857705 153.59535 
C 37.264322 153.59535 36.695163 153.831104 36.275579 154.250689 
C 35.855994 154.670273 35.620241 155.239432 35.620241 155.832815 
C 35.620241 156.426197 35.855994 156.995356 36.275579 157.414941 
C 36.695163 157.834526 37.264322 158.070279 37.857705 158.070279 
z
" clip-path="url(#pcebaf9bd15)" style="stroke: #000000"/>
    <path d="M 31.522453 146.793994 
C 32.115836 146.793994 32.684995 146.558241 33.10458 146.138656 
C 33.524164 145.719071 33.759918 145.149913 33.759918 144.55653 
C 33.759918 143.963148 33.524164 143.393989 33.10458 142.974404 
C 32.684995 142.554819 32.115836 142.319066 31.522453 142.319066 
C 30.929071 142.319066 30.359912 142.554819 29.940327 142.974404 
C 29.520743 143.393989 29.284989 143.963148 29.284989 144.55653 
C 29.284989 145.149913 29.520743 145.719071 29.940327 146.138656 
C 30.359912 146.558241 30.929071 146.793994 31.522453 146.793994 
z
" clip-path="url(#pcebaf9bd15)" style="stroke: #000000"/>
    <path d="M 26.870115 134.328761 
C 26.870115 134.328761 26.870115 134.328761 26.870115 134.328761 
C 26.870115 134.328761 26.870115 134.328761 26.870115 134.328761 
C 26.870115 134.328761 26.870115 134.328761 26.870115 134.328761 
C 26.870115 134.328761 26.870115 134.328761 26.870115 134.328761 
C 26.870115 134.328761 26.870115 134.328761 26.870115 134.328761 
C 26.870115 134.328761 26.870115 134.328761 26.870115 134.328761 
C 26.870115 134.328761 26.870115 134.328761 26.870115 134.328761 
C 26.870115 134.328761 26.870115 134.328761 26.870115 134.328761 
z
" clip-path="url(#pcebaf9bd15)" style="stroke: #000000"/>
   </g>
   <g id="matplotlib.axis_1">
    <g id="xtick_1">
     <g id="line2d_1">
      <defs>
       <path id="mc992fd5347" d="M 0 0 
L 0 3.5 
" style="stroke: #000000; stroke-width: 0.8"/>
      </defs>
      <g>
       <use xlink:href="#mc992fd5347" x="18" y="189" style="stroke: #000000; stroke-width: 0.8"/>
      </g>
     </g>
     <g id="text_1">
      <!-- 10 -->
      <g transform="translate(7.447656 203.598437)scale(0.1 -0.1)">
       <defs>
        <path id="DejaVuSans-2212" d="M 678 2272 
L 4684 2272 
L 4684 1741 
L 678 1741 
L 678 2272 
z
" transform="scale(0.015625)"/>
        <path id="DejaVuSans-31" d="M 794 531 
L 1825 531 
L 1825 4091 
L 703 3866 
L 703 4441 
L 1819 4666 
L 2450 4666 
L 2450 531 
L 3481 531 
L 3481 0 
L 794 0 
L 794 531 
z
" transform="scale(0.015625)"/>
        <path id="DejaVuSans-30" d="M 2034 4250 
Q 1547 4250 1301 3770 
Q 1056 3291 1056 2328 
Q 1056 1369 1301 889 
Q 1547 409 2034 409 
Q 2525 409 2770 889 
Q 3016 1369 3016 2328 
Q 3016 3291 2770 3770 
Q 2525 4250 2034 4250 
z
M 2034 4750 
Q 2819 4750 3233 4129 
Q 3647 3509 3647 2328 
Q 3647 1150 3233 529 
Q 2819 -91 2034 -91 
Q 1250 -91 836 529 
Q 422 1150 422 2328 
Q 422 3509 836 4129 
Q 1250 4750 2034 4750 
z
" transform="scale(0.015625)"/>
       </defs>
       <use xlink:href="#DejaVuSans-2212"/>
       <use xlink:href="#DejaVuSans-31" x="83.789062"/>
       <use xlink:href="#DejaVuSans-30" x="147.412109"/>
      </g>
     </g>
    </g>
    <g id="xtick_2">
     <g id="line2d_2">
      <g>
       <use xlink:href="#mc992fd5347" x="73.8" y="189" style="stroke: #000000; stroke-width: 0.8"/>
      </g>
     </g>
     <g id="text_2">
      <!-- 0 -->
      <g transform="translate(70.61875 203.598437)scale(0.1 -0.1)">
       <use xlink:href="#DejaVuSans-30"/>
      </g>
     </g>
    </g>
    <g id="xtick_3">
     <g id="line2d_3">
      <g>
       <use xlink:href="#mc992fd5347" x="129.6" y="189" style="stroke: #000000; stroke-width: 0.8"/>
      </g>
     </g>
     <g id="text_3">
      <!-- 10 -->
      <g transform="translate(123.2375 203.598437)scale(0.1 -0.1)">
       <use xlink:href="#DejaVuSans-31"/>
       <use xlink:href="#DejaVuSans-30" x="63.623047"/>
      </g>
     </g>
    </g>
   </g>
   <g id="matplotlib.axis_2">
    <g id="ytick_1">
     <g id="line2d_4">
      <defs>
       <path id="m1ccb4a4fff" d="M 0 0 
L -3.5 0 
" style="stroke: #000000; stroke-width: 0.8"/>
      </defs>
      <g>
       <use xlink:href="#m1ccb4a4fff" x="18" y="189" style="stroke: #000000; stroke-width: 0.8"/>
      </g>
     </g>
     <g id="text_4">
      <!-- 15 -->
      <g transform="translate(-10.104688 192.799219)scale(0.1 -0.1)">
       <defs>
        <path id="DejaVuSans-35" d="M 691 4666 
L 3169 4666 
L 3169 4134 
L 1269 4134 
L 1269 2991 
Q 1406 3038 1543 3061 
Q 1681 3084 1819 3084 
Q 2600 3084 3056 2656 
Q 3513 2228 3513 1497 
Q 3513 744 3044 326 
Q 2575 -91 1722 -91 
Q 1428 -91 1123 -41 
Q 819 9 494 109 
L 494 744 
Q 775 591 1075 516 
Q 1375 441 1709 441 
Q 2250 441 2565 725 
Q 2881 1009 2881 1497 
Q 2881 1984 2565 2268 
Q 2250 2553 1709 2553 
Q 1456 2553 1204 2497 
Q 953 2441 691 2322 
L 691 4666 
z
" transform="scale(0.015625)"/>
       </defs>
       <use xlink:href="#DejaVuSans-2212"/>
       <use xlink:href="#DejaVuSans-31" x="83.789062"/>
       <use xlink:href="#DejaVuSans-35" x="147.412109"/>
      </g>
     </g>
    </g>
    <g id="ytick_2">
     <g id="line2d_5">
      <g>
       <use xlink:href="#m1ccb4a4fff" x="18" y="161.82" style="stroke: #000000; stroke-width: 0.8"/>
      </g>
     </g>
     <g id="text_5">
      <!-- 10 -->
      <g transform="translate(-10.104688 165.619219)scale(0.1 -0.1)">
       <use xlink:href="#DejaVuSans-2212"/>
       <use xlink:href="#DejaVuSans-31" x="83.789062"/>
       <use xlink:href="#DejaVuSans-30" x="147.412109"/>
      </g>
     </g>
    </g>
    <g id="ytick_3">
     <g id="line2d_6">
      <g>
       <use xlink:href="#m1ccb4a4fff" x="18" y="134.64" style="stroke: #000000; stroke-width: 0.8"/>
      </g>
     </g>
     <g id="text_6">
      <!-- 5 -->
      <g transform="translate(-3.742188 138.439219)scale(0.1 -0.1)">
       <use xlink:href="#DejaVuSans-2212"/>
       <use xlink:href="#DejaVuSans-35" x="83.789062"/>
      </g>
     </g>
    </g>
    <g id="ytick_4">
     <g id="line2d_7">
      <g>
       <use xlink:href="#m1ccb4a4fff" x="18" y="107.46" style="stroke: #000000; stroke-width: 0.8"/>
      </g>
     </g>
     <g id="text_7">
      <!-- 0 -->
      <g transform="translate(4.6375 111.259219)scale(0.1 -0.1)">
       <use xlink:href="#DejaVuSans-30"/>
      </g>
     </g>
    </g>
    <g id="ytick_5">
     <g id="line2d_8">
      <g>
       <use xlink:href="#m1ccb4a4fff" x="18" y="80.28" style="stroke: #000000; stroke-width: 0.8"/>
      </g>
     </g>
     <g id="text_8">
      <!-- 5 -->
      <g transform="translate(4.6375 84.079219)scale(0.1 -0.1)">
       <use xlink:href="#DejaVuSans-35"/>
      </g>
     </g>
    </g>
    <g id="ytick_6">
     <g id="line2d_9">
      <g>
       <use xlink:href="#m1ccb4a4fff" x="18" y="53.1" style="stroke: #000000; stroke-width: 0.8"/>
      </g>
     </g>
     <g id="text_9">
      <!-- 10 -->
      <g transform="translate(-1.725 56.899219)scale(0.1 -0.1)">
       <use xlink:href="#DejaVuSans-31"/>
       <use xlink:href="#DejaVuSans-30" x="63.623047"/>
      </g>
     </g>
    </g>
    <g id="ytick_7">
     <g id="line2d_10">
      <g>
       <use xlink:href="#m1ccb4a4fff" x="18" y="25.92" style="stroke: #000000; stroke-width: 0.8"/>
      </g>
     </g>
     <g id="text_10">
      <!-- 15 -->
      <g transform="translate(-1.725 29.719219)scale(0.1 -0.1)">
       <use xlink:href="#DejaVuSans-31"/>
       <use xlink:href="#DejaVuSans-35" x="63.623047"/>
      </g>
     </g>
    </g>
   </g>
   <g id="patch_3">
    <path d="M 18 189 
L 18 25.92 
" style="fill: none; stroke: #000000; stroke-width: 0.8; stroke-linejoin: miter; stroke-linecap: square"/>
   </g>
   <g id="patch_4">
    <path d="M 129.6 189 
L 129.6 25.92 
" style="fill: none; stroke: #000000; stroke-width: 0.8; stroke-linejoin: miter; stroke-linecap: square"/>
   </g>
   <g id="patch_5">
    <path d="M 18 189 
L 129.6 189 
" style="fill: none; stroke: #000000; stroke-width: 0.8; stroke-linejoin: miter; stroke-linecap: square"/>
   </g>
   <g id="patch_6">
    <path d="M 18 25.92 
L 129.6 25.92 
" style="fill: none; stroke: #000000; stroke-width: 0.8; stroke-linejoin: miter; stroke-linecap: square"/>
   </g>
  </g>
 </g>
 <defs>
  <clipPath id="pcebaf9bd15">
   <rect x="18" y="25.92" width="111.6" height="163.08"/>
  </clipPath>
 </defs>
</svg>
