<?xml version="1.0" encoding="utf-8" standalone="no"?>
<!DOCTYPE svg PUBLIC "-//W3C//DTD SVG 1.1//EN"
  "http://www.w3.org/Graphics/SVG/1.1/DTD/svg11.dtd">
<svg xmlns:xlink="http://www.w3.org/1999/xlink" width="144pt" height="216pt" viewBox="0 0 144 216" xmlns="http://www.w3.org/2000/svg" version="1.1">
 <metadata>
  <rdf:RDF xmlns:dc="http://purl.org/dc/elements/1.1/" xmlns:cc="http://creativecommons.org/ns#" xmlns:rdf="http://www.w3.org/1999/02/22-rdf-syntax-ns#">
   <cc:Work>
    <dc:type rdf:resource="http://purl.org/dc/dcmitype/StillImage"/>
    <dc:date>2022-06-28T09:15:56.110414</dc:date>
    <dc:format>image/svg+xml</dc:format>
    <dc:creator>
     <cc:Agent>
      <dc:title>Matplotlib v3.5.1, https://matplotlib.org/</dc:title>
     </cc:Agent>
    </dc:creator>
   </cc:Work>
  </rdf:RDF>
 </metadata>
 <defs>
  <style type="text/css">*{stroke-linejoin: round; stroke-linecap: butt}</style>
 </defs>
 <g id="figure_1">
  <g id="patch_1">
   <path d="M 0 216 
L 144 216 
L 144 0 
L 0 0 
L 0 216 
z
" style="fill: none"/>
  </g>
  <g id="axes_1">
   <g id="patch_2">
    <path d="M 18 189 
L 129.6 189 
L 129.6 25.92 
L 18 25.92 
z
" style="fill: #ffffff"/>
   </g>
   <g id="PathCollection_1">
    <defs>
     <path id="m9148b1125c" d="M 0 2.738613 
C 0.726289 2.738613 1.422928 2.450055 1.936492 1.936492 
C 2.450055 1.422928 2.738613 0.726289 2.738613 0 
C 2.738613 -0.726289 2.450055 -1.422928 1.936492 -1.936492 
C 1.422928 -2.450055 0.726289 -2.738613 0 -2.738613 
C -0.726289 -2.738613 -1.422928 -2.450055 -1.936492 -1.936492 
C -2.450055 -1.422928 -2.738613 -0.726289 -2.738613 0 
C -2.738613 0.726289 -2.450055 1.422928 -1.936492 1.936492 
C -1.422928 2.450055 -0.726289 2.738613 0 2.738613 
z
" style="stroke: #ff0000; stroke-width: 1.75"/>
    </defs>
    <g clip-path="url(#pc2bb450969)">
     <use xlink:href="#m9148b1125c" x="66.825" y="83.92143" style="fill: #ff0000; stroke: #ff0000; stroke-width: 1.75"/>
     <use xlink:href="#m9148b1125c" x="87.75" y="95.690715" style="fill: #ff0000; stroke: #ff0000; stroke-width: 1.75"/>
     <use xlink:href="#m9148b1125c" x="66.825" y="107.46" style="fill: #ff0000; stroke: #ff0000; stroke-width: 1.75"/>
     <use xlink:href="#m9148b1125c" x="73.8" y="119.229285" style="fill: #ff0000; stroke: #ff0000; stroke-width: 1.75"/>
     <use xlink:href="#m9148b1125c" x="87.75" y="119.229285" style="fill: #ff0000; stroke: #ff0000; stroke-width: 1.75"/>
     <use xlink:href="#m9148b1125c" x="66.825" y="130.99857" style="fill: #ff0000; stroke: #ff0000; stroke-width: 1.75"/>
     <use xlink:href="#m9148b1125c" x="80.775" y="130.99857" style="fill: #ff0000; stroke: #ff0000; stroke-width: 1.75"/>
    </g>
   </g>
   <g id="PathCollection_2">
    <defs>
     <path id="C0_0_f8197c773c" d="M 0 2.738613 
C 0.726289 2.738613 1.422928 2.450055 1.936492 1.936492 
C 2.450055 1.422928 2.738613 0.726289 2.738613 -0 
C 2.738613 -0.726289 2.450055 -1.422928 1.936492 -1.936492 
C 1.422928 -2.450055 0.726289 -2.738613 0 -2.738613 
C -0.726289 -2.738613 -1.422928 -2.450055 -1.936492 -1.936492 
C -2.450055 -1.422928 -2.738613 -0.726289 -2.738613 0 
C -2.738613 0.726289 -2.450055 1.422928 -1.936492 1.936492 
C -1.422928 2.450055 -0.726289 2.738613 0 2.738613 
z
"/>
    </defs>
    <g clip-path="url(#pc2bb450969)">
     <use xlink:href="#C0_0_f8197c773c" x="80.775" y="83.92143" style="fill: none; stroke: #ff0000; stroke-width: 1.75"/>
    </g>
    <g clip-path="url(#pc2bb450969)">
     <use xlink:href="#C0_0_f8197c773c" x="59.85" y="95.690715" style="fill: none; stroke: #ff0000; stroke-width: 1.75"/>
    </g>
    <g clip-path="url(#pc2bb450969)">
     <use xlink:href="#C0_0_f8197c773c" x="73.8" y="95.690715" style="fill: none; stroke: #ff0000; stroke-width: 1.75"/>
    </g>
    <g clip-path="url(#pc2bb450969)">
     <use xlink:href="#C0_0_f8197c773c" x="52.875" y="107.46" style="fill: none; stroke: #ff0000; stroke-width: 1.75"/>
    </g>
    <g clip-path="url(#pc2bb450969)">
     <use xlink:href="#C0_0_f8197c773c" x="80.775" y="107.46" style="fill: none; stroke: #ff0000; stroke-width: 1.75"/>
    </g>
    <g clip-path="url(#pc2bb450969)">
     <use xlink:href="#C0_0_f8197c773c" x="94.725" y="107.46" style="fill: none; stroke: #ff0000; stroke-width: 1.75"/>
    </g>
    <g clip-path="url(#pc2bb450969)">
     <use xlink:href="#C0_0_f8197c773c" x="59.85" y="119.229285" style="fill: none; stroke: #ff0000; stroke-width: 1.75"/>
    </g>
   </g>
   <g id="PathCollection_3">
    <path d="M 100.400129 108.673763 
C 100.623137 108.673763 100.837042 108.585161 100.994732 108.42747 
C 101.152423 108.269779 101.241025 108.055875 101.241025 107.832867 
C 101.241025 107.609858 101.152423 107.395954 100.994732 107.238263 
C 100.837042 107.080572 100.623137 106.99197 100.400129 106.99197 
C 100.17712 106.99197 99.963216 107.080572 99.805525 107.238263 
C 99.647834 107.395954 99.559232 107.609858 99.559232 107.832867 
C 99.559232 108.055875 99.647834 108.269779 99.805525 108.42747 
C 99.963216 108.585161 100.17712 108.673763 100.400129 108.673763 
z
" clip-path="url(#pc2bb450969)" style="stroke: #000000"/>
    <path d="M 91.633331 95.95916 
C 91.99444 95.95916 92.340809 95.81569 92.596152 95.560347 
C 92.851495 95.305004 92.994965 94.958635 92.994965 94.597525 
C 92.994965 94.236416 92.851495 93.890047 92.596152 93.634704 
C 92.340809 93.379361 91.99444 93.235891 91.633331 93.235891 
C 91.272221 93.235891 90.925852 93.379361 90.670509 93.634704 
C 90.415166 93.890047 90.271696 94.236416 90.271696 94.597525 
C 90.271696 94.958635 90.415166 95.305004 90.670509 95.560347 
C 90.925852 95.81569 91.272221 95.95916 91.633331 95.95916 
z
" clip-path="url(#pc2bb450969)" style="stroke: #000000"/>
    <path d="M 89.693969 94.701537 
C 90.067549 94.701537 90.425878 94.553113 90.690039 94.288951 
C 90.9542 94.02479 91.102625 93.666461 91.102625 93.292881 
C 91.102625 92.919301 90.9542 92.560971 90.690039 92.29681 
C 90.425878 92.032649 90.067549 91.884224 89.693969 91.884224 
C 89.320388 91.884224 88.962059 92.032649 88.697898 92.29681 
C 88.433737 92.560971 88.285312 92.919301 88.285312 93.292881 
C 88.285312 93.666461 88.433737 94.02479 88.697898 94.288951 
C 88.962059 94.553113 89.320388 94.701537 89.693969 94.701537 
z
" clip-path="url(#pc2bb450969)" style="stroke: #000000"/>
    <path d="M 88.902013 86.074387 
C 89.059704 86.074387 89.210957 86.011735 89.322461 85.900231 
C 89.433966 85.788727 89.496617 85.637474 89.496617 85.479783 
C 89.496617 85.322092 89.433966 85.170839 89.322461 85.059335 
C 89.210957 84.947831 89.059704 84.885179 88.902013 84.885179 
C 88.744323 84.885179 88.593069 84.947831 88.481565 85.059335 
C 88.370061 85.170839 88.30741 85.322092 88.30741 85.479783 
C 88.30741 85.637474 88.370061 85.788727 88.481565 85.900231 
C 88.593069 86.011735 88.744323 86.074387 88.902013 86.074387 
z
" clip-path="url(#pc2bb450969)" style="stroke: #000000"/>
    <path d="M 84.271448 78.007803 
C 84.458975 78.007803 84.638847 77.933298 84.771448 77.800696 
C 84.90405 77.668095 84.978555 77.488223 84.978555 77.300696 
C 84.978555 77.113169 84.90405 76.933298 84.771448 76.800696 
C 84.638847 76.668095 84.458975 76.59359 84.271448 76.59359 
C 84.083921 76.59359 83.90405 76.668095 83.771448 76.800696 
C 83.638847 76.933298 83.564341 77.113169 83.564341 77.300696 
C 83.564341 77.488223 83.638847 77.668095 83.771448 77.800696 
C 83.90405 77.933298 84.083921 78.007803 84.271448 78.007803 
z
" clip-path="url(#pc2bb450969)" style="stroke: #000000"/>
    <path d="M 92.208641 119.386059 
C 92.577692 119.386059 92.931677 119.239433 93.192636 118.978475 
C 93.453594 118.717516 93.60022 118.363531 93.60022 117.99448 
C 93.60022 117.625429 93.453594 117.271444 93.192636 117.010485 
C 92.931677 116.749527 92.577692 116.602901 92.208641 116.602901 
C 91.83959 116.602901 91.485604 116.749527 91.224646 117.010485 
C 90.963688 117.271444 90.817062 117.625429 90.817062 117.99448 
C 90.817062 118.363531 90.963688 118.717516 91.224646 118.978475 
C 91.485604 119.239433 91.83959 119.386059 92.208641 119.386059 
z
" clip-path="url(#pc2bb450969)" style="stroke: #000000"/>
    <path d="M 86.489578 98.521015 
C 86.825118 98.521015 87.14696 98.387703 87.384223 98.15044 
C 87.621486 97.913178 87.754797 97.591335 87.754797 97.255795 
C 87.754797 96.920255 87.621486 96.598412 87.384223 96.36115 
C 87.14696 96.123887 86.825118 95.990575 86.489578 95.990575 
C 86.154037 95.990575 85.832195 96.123887 85.594932 96.36115 
C 85.357669 96.598412 85.224358 96.920255 85.224358 97.255795 
C 85.224358 97.591335 85.357669 97.913178 85.594932 98.15044 
C 85.832195 98.387703 86.154037 98.521015 86.489578 98.521015 
z
" clip-path="url(#pc2bb450969)" style="stroke: #000000"/>
    <path d="M 84.201085 94.906222 
C 84.466288 94.906222 84.720665 94.800855 84.908192 94.613328 
C 85.095719 94.425801 85.201085 94.171425 85.201085 93.906222 
C 85.201085 93.641018 85.095719 93.386642 84.908192 93.199115 
C 84.720665 93.011588 84.466288 92.906222 84.201085 92.906222 
C 83.935882 92.906222 83.681505 93.011588 83.493978 93.199115 
C 83.306451 93.386642 83.201085 93.641018 83.201085 93.906222 
C 83.201085 94.171425 83.306451 94.425801 83.493978 94.613328 
C 83.681505 94.800855 83.935882 94.906222 84.201085 94.906222 
z
" clip-path="url(#pc2bb450969)" style="stroke: #000000"/>
    <path d="M 82.501217 88.214098 
C 82.867154 88.214098 83.218152 88.06871 83.476908 87.809954 
C 83.735664 87.551198 83.881052 87.2002 83.881052 86.834263 
C 83.881052 86.468327 83.735664 86.117329 83.476908 85.858573 
C 83.218152 85.599817 82.867154 85.454429 82.501217 85.454429 
C 82.135281 85.454429 81.784283 85.599817 81.525527 85.858573 
C 81.266771 86.117329 81.121383 86.468327 81.121383 86.834263 
C 81.121383 87.2002 81.266771 87.551198 81.525527 87.809954 
C 81.784283 88.06871 82.135281 88.214098 82.501217 88.214098 
z
" clip-path="url(#pc2bb450969)" style="stroke: #000000"/>
    <path d="M 90.188148 131.208468 
C 90.362662 131.208468 90.530051 131.139133 90.653451 131.015734 
C 90.776851 130.892334 90.846185 130.724945 90.846185 130.550431 
C 90.846185 130.375918 90.776851 130.208529 90.653451 130.085129 
C 90.530051 129.961729 90.362662 129.892394 90.188148 129.892394 
C 90.013635 129.892394 89.846246 129.961729 89.722846 130.085129 
C 89.599446 130.208529 89.530111 130.375918 89.530111 130.550431 
C 89.530111 130.724945 89.599446 130.892334 89.722846 131.015734 
C 89.846246 131.139133 90.013635 131.208468 90.188148 131.208468 
z
" clip-path="url(#pc2bb450969)" style="stroke: #000000"/>
    <path d="M 86.187604 119.731354 
C 86.362117 119.731354 86.529507 119.662019 86.652906 119.538619 
C 86.776306 119.41522 86.845641 119.24783 86.845641 119.073317 
C 86.845641 118.898803 86.776306 118.731414 86.652906 118.608014 
C 86.529507 118.484615 86.362117 118.41528 86.187604 118.41528 
C 86.01309 118.41528 85.845701 118.484615 85.722301 118.608014 
C 85.598902 118.731414 85.529567 118.898803 85.529567 119.073317 
C 85.529567 119.24783 85.598902 119.41522 85.722301 119.538619 
C 85.845701 119.662019 86.01309 119.731354 86.187604 119.731354 
z
" clip-path="url(#pc2bb450969)" style="stroke: #000000"/>
    <path d="M 80.854057 101.518502 
C 81.144447 101.518502 81.422981 101.403129 81.628318 101.197793 
C 81.833654 100.992457 81.949027 100.713922 81.949027 100.423533 
C 81.949027 100.133144 81.833654 99.854609 81.628318 99.649273 
C 81.422981 99.443936 81.144447 99.328564 80.854057 99.328564 
C 80.563668 99.328564 80.285133 99.443936 80.079797 99.649273 
C 79.874461 99.854609 79.759088 100.133144 79.759088 100.423533 
C 79.759088 100.713922 79.874461 100.992457 80.079797 101.197793 
C 80.285133 101.403129 80.563668 101.518502 80.854057 101.518502 
z
" clip-path="url(#pc2bb450969)" style="stroke: #000000"/>
    <path d="M 76.774826 94.899477 
C 76.949339 94.899477 77.116729 94.830142 77.240128 94.706742 
C 77.363528 94.583343 77.432863 94.415953 77.432863 94.24144 
C 77.432863 94.066927 77.363528 93.899537 77.240128 93.776138 
C 77.116729 93.652738 76.949339 93.583403 76.774826 93.583403 
C 76.600312 93.583403 76.432923 93.652738 76.309523 93.776138 
C 76.186124 93.899537 76.116789 94.066927 76.116789 94.24144 
C 76.116789 94.415953 76.186124 94.583343 76.309523 94.706742 
C 76.432923 94.830142 76.600312 94.899477 76.774826 94.899477 
z
" clip-path="url(#pc2bb450969)" style="stroke: #000000"/>
    <path d="M 75.687092 89.10817 
C 75.894625 89.10817 76.093685 89.025717 76.240433 88.878969 
C 76.387181 88.732221 76.469634 88.533161 76.469634 88.325628 
C 76.469634 88.118095 76.387181 87.919035 76.240433 87.772287 
C 76.093685 87.625539 75.894625 87.543086 75.687092 87.543086 
C 75.47956 87.543086 75.280499 87.625539 75.133751 87.772287 
C 74.987004 87.919035 74.90455 88.118095 74.90455 88.325628 
C 74.90455 88.533161 74.987004 88.732221 75.133751 88.878969 
C 75.280499 89.025717 75.47956 89.10817 75.687092 89.10817 
z
" clip-path="url(#pc2bb450969)" style="stroke: #000000"/>
    <path d="M 84.718055 137.049602 
C 84.892569 137.049602 85.059958 136.980268 85.183358 136.856868 
C 85.306757 136.733468 85.376092 136.566079 85.376092 136.391565 
C 85.376092 136.217052 85.306757 136.049663 85.183358 135.926263 
C 85.059958 135.802863 84.892569 135.733528 84.718055 135.733528 
C 84.543542 135.733528 84.376152 135.802863 84.252753 135.926263 
C 84.129353 136.049663 84.060018 136.217052 84.060018 136.391565 
C 84.060018 136.566079 84.129353 136.733468 84.252753 136.856868 
C 84.376152 136.980268 84.543542 137.049602 84.718055 137.049602 
z
" clip-path="url(#pc2bb450969)" style="stroke: #000000"/>
    <path d="M 85.076806 132.80448 
C 85.209408 132.80448 85.336596 132.751797 85.430359 132.658034 
C 85.524123 132.56427 85.576806 132.437082 85.576806 132.30448 
C 85.576806 132.171879 85.524123 132.04469 85.430359 131.950927 
C 85.336596 131.857163 85.209408 131.80448 85.076806 131.80448 
C 84.944204 131.80448 84.817016 131.857163 84.723253 131.950927 
C 84.629489 132.04469 84.576806 132.171879 84.576806 132.30448 
C 84.576806 132.437082 84.629489 132.56427 84.723253 132.658034 
C 84.817016 132.751797 84.944204 132.80448 85.076806 132.80448 
z
" clip-path="url(#pc2bb450969)" style="stroke: #000000"/>
    <path d="M 83.724625 129.212141 
C 83.947633 129.212141 84.161538 129.123539 84.319228 128.965848 
C 84.476919 128.808157 84.565521 128.594253 84.565521 128.371244 
C 84.565521 128.148236 84.476919 127.934332 84.319228 127.776641 
C 84.161538 127.61895 83.947633 127.530348 83.724625 127.530348 
C 83.501617 127.530348 83.287712 127.61895 83.130021 127.776641 
C 82.972331 127.934332 82.883728 128.148236 82.883728 128.371244 
C 82.883728 128.594253 82.972331 128.808157 83.130021 128.965848 
C 83.287712 129.123539 83.501617 129.212141 83.724625 129.212141 
z
" clip-path="url(#pc2bb450969)" style="stroke: #000000"/>
    <path d="M 71.408623 97.972795 
C 71.689041 97.972795 71.958011 97.861384 72.156297 97.663098 
C 72.354583 97.464813 72.465994 97.195842 72.465994 96.915424 
C 72.465994 96.635006 72.354583 96.366035 72.156297 96.167749 
C 71.958011 95.969464 71.689041 95.858052 71.408623 95.858052 
C 71.128204 95.858052 70.859234 95.969464 70.660948 96.167749 
C 70.462663 96.366035 70.351251 96.635006 70.351251 96.915424 
C 70.351251 97.195842 70.462663 97.464813 70.660948 97.663098 
C 70.859234 97.861384 71.128204 97.972795 71.408623 97.972795 
z
" clip-path="url(#pc2bb450969)" style="stroke: #000000"/>
    <path d="M 69.561976 89.823229 
C 69.694577 89.823229 69.821766 89.770546 69.915529 89.676782 
C 70.009293 89.583019 70.061976 89.45583 70.061976 89.323229 
C 70.061976 89.190627 70.009293 89.063439 69.915529 88.969675 
C 69.821766 88.875912 69.694577 88.823229 69.561976 88.823229 
C 69.429374 88.823229 69.302186 88.875912 69.208422 88.969675 
C 69.114659 89.063439 69.061976 89.190627 69.061976 89.323229 
C 69.061976 89.45583 69.114659 89.583019 69.208422 89.676782 
C 69.302186 89.770546 69.429374 89.823229 69.561976 89.823229 
z
" clip-path="url(#pc2bb450969)" style="stroke: #000000"/>
    <path d="M 67.910537 84.7607 
C 68.268319 84.7607 68.611494 84.618552 68.864484 84.365562 
C 69.117473 84.112573 69.259621 83.769397 69.259621 83.411616 
C 69.259621 83.053835 69.117473 82.710659 68.864484 82.457669 
C 68.611494 82.20468 68.268319 82.062532 67.910537 82.062532 
C 67.552756 82.062532 67.20958 82.20468 66.956591 82.457669 
C 66.703601 82.710659 66.561453 83.053835 66.561453 83.411616 
C 66.561453 83.769397 66.703601 84.112573 66.956591 84.365562 
C 67.20958 84.618552 67.552756 84.7607 67.910537 84.7607 
z
" clip-path="url(#pc2bb450969)" style="stroke: #000000"/>
    <path d="M 58.085036 59.848669 
C 58.217637 59.848669 58.344826 59.795986 58.438589 59.702223 
C 58.532353 59.608459 58.585036 59.481271 58.585036 59.348669 
C 58.585036 59.216068 58.532353 59.088879 58.438589 58.995116 
C 58.344826 58.901352 58.217637 58.848669 58.085036 58.848669 
C 57.952434 58.848669 57.825246 58.901352 57.731482 58.995116 
C 57.637719 59.088879 57.585036 59.216068 57.585036 59.348669 
C 57.585036 59.481271 57.637719 59.608459 57.731482 59.702223 
C 57.825246 59.795986 57.952434 59.848669 58.085036 59.848669 
z
" clip-path="url(#pc2bb450969)" style="stroke: #000000"/>
    <path d="M 77.437965 130.507182 
C 77.740231 130.507182 78.030158 130.38709 78.243892 130.173356 
C 78.457627 129.959621 78.577718 129.669694 78.577718 129.367428 
C 78.577718 129.065162 78.457627 128.775235 78.243892 128.561501 
C 78.030158 128.347766 77.740231 128.227675 77.437965 128.227675 
C 77.135698 128.227675 76.845772 128.347766 76.632037 128.561501 
C 76.418303 128.775235 76.298211 129.065162 76.298211 129.367428 
C 76.298211 129.669694 76.418303 129.959621 76.632037 130.173356 
C 76.845772 130.38709 77.135698 130.507182 77.437965 130.507182 
z
" clip-path="url(#pc2bb450969)" style="stroke: #000000"/>
    <path d="M 71.69859 124.21592 
C 71.979008 124.21592 72.247979 124.104509 72.446264 123.906223 
C 72.64455 123.707938 72.755961 123.438967 72.755961 123.158549 
C 72.755961 122.878131 72.64455 122.60916 72.446264 122.410874 
C 72.247979 122.212589 71.979008 122.101178 71.69859 122.101178 
C 71.418172 122.101178 71.149201 122.212589 70.950915 122.410874 
C 70.75263 122.60916 70.641218 122.878131 70.641218 123.158549 
C 70.641218 123.438967 70.75263 123.707938 70.950915 123.906223 
C 71.149201 124.104509 71.418172 124.21592 71.69859 124.21592 
z
" clip-path="url(#pc2bb450969)" style="stroke: #000000"/>
    <path d="M 71.908513 116.736966 
C 72.287887 116.736966 72.651773 116.586239 72.920031 116.317981 
C 73.188289 116.049724 73.339016 115.685837 73.339016 115.306463 
C 73.339016 114.927089 73.188289 114.563203 72.920031 114.294945 
C 72.651773 114.026687 72.287887 113.87596 71.908513 113.87596 
C 71.529139 113.87596 71.165252 114.026687 70.896995 114.294945 
C 70.628737 114.563203 70.47801 114.927089 70.47801 115.306463 
C 70.47801 115.685837 70.628737 116.049724 70.896995 116.317981 
C 71.165252 116.586239 71.529139 116.736966 71.908513 116.736966 
z
" clip-path="url(#pc2bb450969)" style="stroke: #000000"/>
    <path d="M 70.919521 111.881332 
C 71.203381 111.881332 71.475652 111.768554 71.676371 111.567835 
C 71.87709 111.367116 71.989869 111.094844 71.989869 110.810985 
C 71.989869 110.527125 71.87709 110.254854 71.676371 110.054135 
C 71.475652 109.853416 71.203381 109.740637 70.919521 109.740637 
C 70.635662 109.740637 70.36339 109.853416 70.162671 110.054135 
C 69.961952 110.254854 69.849174 110.527125 69.849174 110.810985 
C 69.849174 111.094844 69.961952 111.367116 70.162671 111.567835 
C 70.36339 111.768554 70.635662 111.881332 70.919521 111.881332 
z
" clip-path="url(#pc2bb450969)" style="stroke: #000000"/>
    <path d="M 62.675533 99.935413 
C 62.99806 99.935413 63.30742 99.807271 63.535481 99.579211 
C 63.763542 99.35115 63.891683 99.04179 63.891683 98.719263 
C 63.891683 98.396736 63.763542 98.087376 63.535481 97.859315 
C 63.30742 97.631255 62.99806 97.503113 62.675533 97.503113 
C 62.353006 97.503113 62.043646 97.631255 61.815585 97.859315 
C 61.587525 98.087376 61.459383 98.396736 61.459383 98.719263 
C 61.459383 99.04179 61.587525 99.35115 61.815585 99.579211 
C 62.043646 99.807271 62.353006 99.935413 62.675533 99.935413 
z
" clip-path="url(#pc2bb450969)" style="stroke: #000000"/>
    <path d="M 59.874362 81.126992 
C 60.006964 81.126992 60.134152 81.074309 60.227916 80.980545 
C 60.321679 80.886782 60.374362 80.759593 60.374362 80.626992 
C 60.374362 80.49439 60.321679 80.367202 60.227916 80.273438 
C 60.134152 80.179675 60.006964 80.126992 59.874362 80.126992 
C 59.741761 80.126992 59.614572 80.179675 59.520809 80.273438 
C 59.427045 80.367202 59.374362 80.49439 59.374362 80.626992 
C 59.374362 80.759593 59.427045 80.886782 59.520809 80.980545 
C 59.614572 81.074309 59.741761 81.126992 59.874362 81.126992 
z
" clip-path="url(#pc2bb450969)" style="stroke: #000000"/>
    <path d="M 69.537406 125.634063 
C 69.695097 125.634063 69.84635 125.571411 69.957854 125.459907 
C 70.069358 125.348403 70.132009 125.19715 70.132009 125.039459 
C 70.132009 124.881768 70.069358 124.730515 69.957854 124.619011 
C 69.84635 124.507507 69.695097 124.444855 69.537406 124.444855 
C 69.379715 124.444855 69.228462 124.507507 69.116958 124.619011 
C 69.005454 124.730515 68.942802 124.881768 68.942802 125.039459 
C 68.942802 125.19715 69.005454 125.348403 69.116958 125.459907 
C 69.228462 125.571411 69.379715 125.634063 69.537406 125.634063 
z
" clip-path="url(#pc2bb450969)" style="stroke: #000000"/>
    <path d="M 62.440807 113.992808 
C 62.64834 113.992808 62.8474 113.910355 62.994148 113.763607 
C 63.140896 113.616859 63.223349 113.417799 63.223349 113.210266 
C 63.223349 113.002733 63.140896 112.803673 62.994148 112.656925 
C 62.8474 112.510177 62.64834 112.427724 62.440807 112.427724 
C 62.233274 112.427724 62.034214 112.510177 61.887466 112.656925 
C 61.740718 112.803673 61.658265 113.002733 61.658265 113.210266 
C 61.658265 113.417799 61.740718 113.616859 61.887466 113.763607 
C 62.034214 113.910355 62.233274 113.992808 62.440807 113.992808 
z
" clip-path="url(#pc2bb450969)" style="stroke: #000000"/>
    <path d="M 60.602963 103.983021 
C 60.81865 103.983021 61.025532 103.897328 61.178045 103.744814 
C 61.330558 103.592301 61.416252 103.385419 61.416252 103.169733 
C 61.416252 102.954046 61.330558 102.747165 61.178045 102.594651 
C 61.025532 102.442138 60.81865 102.356444 60.602963 102.356444 
C 60.387277 102.356444 60.180395 102.442138 60.027882 102.594651 
C 59.875368 102.747165 59.789675 102.954046 59.789675 103.169733 
C 59.789675 103.385419 59.875368 103.592301 60.027882 103.744814 
C 60.180395 103.897328 60.387277 103.983021 60.602963 103.983021 
z
" clip-path="url(#pc2bb450969)" style="stroke: #000000"/>
    <path d="M 58.369509 93.526392 
C 58.544023 93.526392 58.711412 93.457057 58.834812 93.333657 
C 58.958211 93.210257 59.027546 93.042868 59.027546 92.868355 
C 59.027546 92.693841 58.958211 92.526452 58.834812 92.403052 
C 58.711412 92.279653 58.544023 92.210318 58.369509 92.210318 
C 58.194996 92.210318 58.027607 92.279653 57.904207 92.403052 
C 57.780807 92.526452 57.711472 92.693841 57.711472 92.868355 
C 57.711472 93.042868 57.780807 93.210257 57.904207 93.333657 
C 58.027607 93.457057 58.194996 93.526392 58.369509 93.526392 
z
" clip-path="url(#pc2bb450969)" style="stroke: #000000"/>
    <path d="M 67.977229 145.850668 
C 68.10983 145.850668 68.237019 145.797985 68.330782 145.704221 
C 68.424546 145.610458 68.477229 145.483269 68.477229 145.350668 
C 68.477229 145.218066 68.424546 145.090878 68.330782 144.997114 
C 68.237019 144.903351 68.10983 144.850668 67.977229 144.850668 
C 67.844627 144.850668 67.717439 144.903351 67.623675 144.997114 
C 67.529912 145.090878 67.477229 145.218066 67.477229 145.350668 
C 67.477229 145.483269 67.529912 145.610458 67.623675 145.704221 
C 67.717439 145.797985 67.844627 145.850668 67.977229 145.850668 
z
" clip-path="url(#pc2bb450969)" style="stroke: #000000"/>
    <path d="M 65.655204 135.799542 
C 66.024255 135.799542 66.37824 135.652916 66.639199 135.391958 
C 66.900157 135.130999 67.046783 134.777014 67.046783 134.407963 
C 67.046783 134.038912 66.900157 133.684926 66.639199 133.423968 
C 66.37824 133.163009 66.024255 133.016384 65.655204 133.016384 
C 65.286153 133.016384 64.932168 133.163009 64.671209 133.423968 
C 64.410251 133.684926 64.263625 134.038912 64.263625 134.407963 
C 64.263625 134.777014 64.410251 135.130999 64.671209 135.391958 
C 64.932168 135.652916 65.286153 135.799542 65.655204 135.799542 
z
" clip-path="url(#pc2bb450969)" style="stroke: #000000"/>
    <path d="M 59.907971 121.35936 
C 60.277022 121.35936 60.631007 121.212734 60.891966 120.951776 
C 61.152924 120.690817 61.29955 120.336832 61.29955 119.967781 
C 61.29955 119.59873 61.152924 119.244745 60.891966 118.983786 
C 60.631007 118.722828 60.277022 118.576202 59.907971 118.576202 
C 59.53892 118.576202 59.184935 118.722828 58.923976 118.983786 
C 58.663018 119.244745 58.516392 119.59873 58.516392 119.967781 
C 58.516392 120.336832 58.663018 120.690817 58.923976 120.951776 
C 59.184935 121.212734 59.53892 121.35936 59.907971 121.35936 
z
" clip-path="url(#pc2bb450969)" style="stroke: #000000"/>
    <path d="M 55.67479 111.75575 
C 55.807392 111.75575 55.93458 111.703067 56.028343 111.609303 
C 56.122107 111.51554 56.17479 111.388351 56.17479 111.25575 
C 56.17479 111.123148 56.122107 110.99596 56.028343 110.902196 
C 55.93458 110.808433 55.807392 110.75575 55.67479 110.75575 
C 55.542189 110.75575 55.415 110.808433 55.321237 110.902196 
C 55.227473 110.99596 55.17479 111.123148 55.17479 111.25575 
C 55.17479 111.388351 55.227473 111.51554 55.321237 111.609303 
C 55.415 111.703067 55.542189 111.75575 55.67479 111.75575 
z
" clip-path="url(#pc2bb450969)" style="stroke: #000000"/>
    <path d="M 50.69043 101.707168 
C 50.84812 101.707168 50.999374 101.644517 51.110878 101.533013 
C 51.222382 101.421508 51.285033 101.270255 51.285033 101.112564 
C 51.285033 100.954874 51.222382 100.80362 51.110878 100.692116 
C 50.999374 100.580612 50.84812 100.517961 50.69043 100.517961 
C 50.532739 100.517961 50.381486 100.580612 50.269982 100.692116 
C 50.158477 100.80362 50.095826 100.954874 50.095826 101.112564 
C 50.095826 101.270255 50.158477 101.421508 50.269982 101.533013 
C 50.381486 101.644517 50.532739 101.707168 50.69043 101.707168 
z
" clip-path="url(#pc2bb450969)" style="stroke: #000000"/>
    <path d="M 49.206067 94.402688 
C 49.338668 94.402688 49.465857 94.350005 49.55962 94.256241 
C 49.653384 94.162478 49.706067 94.03529 49.706067 93.902688 
C 49.706067 93.770086 49.653384 93.642898 49.55962 93.549135 
C 49.465857 93.455371 49.338668 93.402688 49.206067 93.402688 
C 49.073465 93.402688 48.946277 93.455371 48.852514 93.549135 
C 48.75875 93.642898 48.706067 93.770086 48.706067 93.902688 
C 48.706067 94.03529 48.75875 94.162478 48.852514 94.256241 
C 48.946277 94.350005 49.073465 94.402688 49.206067 94.402688 
z
" clip-path="url(#pc2bb450969)" style="stroke: #000000"/>
    <path d="M 49.575423 118.192449 
C 49.782956 118.192449 49.982017 118.109995 50.128764 117.963247 
C 50.275512 117.816499 50.357966 117.617439 50.357966 117.409906 
C 50.357966 117.202374 50.275512 117.003313 50.128764 116.856565 
C 49.982017 116.709818 49.782956 116.627364 49.575423 116.627364 
C 49.367891 116.627364 49.16883 116.709818 49.022083 116.856565 
C 48.875335 117.003313 48.792881 117.202374 48.792881 117.409906 
C 48.792881 117.617439 48.875335 117.816499 49.022083 117.963247 
C 49.16883 118.109995 49.367891 118.192449 49.575423 118.192449 
z
" clip-path="url(#pc2bb450969)" style="stroke: #000000"/>
    <path d="M 47.853181 112.274756 
C 48.010872 112.274756 48.162125 112.212105 48.273629 112.1006 
C 48.385133 111.989096 48.447784 111.837843 48.447784 111.680152 
C 48.447784 111.522462 48.385133 111.371208 48.273629 111.259704 
C 48.162125 111.1482 48.010872 111.085549 47.853181 111.085549 
C 47.69549 111.085549 47.544237 111.1482 47.432733 111.259704 
C 47.321229 111.371208 47.258577 111.522462 47.258577 111.680152 
C 47.258577 111.837843 47.321229 111.989096 47.432733 112.1006 
C 47.544237 112.212105 47.69549 112.274756 47.853181 112.274756 
z
" clip-path="url(#pc2bb450969)" style="stroke: #000000"/>
    <path d="M 44.253418 123.572807 
C 44.386019 123.572807 44.513208 123.520124 44.606971 123.42636 
C 44.700735 123.332597 44.753418 123.205408 44.753418 123.072807 
C 44.753418 122.940205 44.700735 122.813017 44.606971 122.719253 
C 44.513208 122.62549 44.386019 122.572807 44.253418 122.572807 
C 44.120816 122.572807 43.993628 122.62549 43.899864 122.719253 
C 43.806101 122.813017 43.753418 122.940205 43.753418 123.072807 
C 43.753418 123.205408 43.806101 123.332597 43.899864 123.42636 
C 43.993628 123.520124 44.120816 123.572807 44.253418 123.572807 
z
" clip-path="url(#pc2bb450969)" style="stroke: #000000"/>
    <path d="M 39.487471 105.421312 
C 39.620072 105.421312 39.747261 105.368628 39.841024 105.274865 
C 39.934787 105.181102 39.987471 105.053913 39.987471 104.921312 
C 39.987471 104.78871 39.934787 104.661522 39.841024 104.567758 
C 39.747261 104.473995 39.620072 104.421312 39.487471 104.421312 
C 39.354869 104.421312 39.227681 104.473995 39.133917 104.567758 
C 39.040154 104.661522 38.987471 104.78871 38.987471 104.921312 
C 38.987471 105.053913 39.040154 105.181102 39.133917 105.274865 
C 39.227681 105.368628 39.354869 105.421312 39.487471 105.421312 
z
" clip-path="url(#pc2bb450969)" style="stroke: #000000"/>
   </g>
   <g id="matplotlib.axis_1">
    <g id="xtick_1">
     <g id="line2d_1">
      <defs>
       <path id="mdfb8826e05" d="M 0 0 
L 0 3.5 
" style="stroke: #000000; stroke-width: 0.8"/>
      </defs>
      <g>
       <use xlink:href="#mdfb8826e05" x="18" y="189" style="stroke: #000000; stroke-width: 0.8"/>
      </g>
     </g>
     <g id="text_1">
      <!-- −10 -->
      <g transform="translate(7.447656 203.598437)scale(0.1 -0.1)">
       <defs>
        <path id="DejaVuSans-2212" d="M 678 2272 
L 4684 2272 
L 4684 1741 
L 678 1741 
L 678 2272 
z
" transform="scale(0.015625)"/>
        <path id="DejaVuSans-31" d="M 794 531 
L 1825 531 
L 1825 4091 
L 703 3866 
L 703 4441 
L 1819 4666 
L 2450 4666 
L 2450 531 
L 3481 531 
L 3481 0 
L 794 0 
L 794 531 
z
" transform="scale(0.015625)"/>
        <path id="DejaVuSans-30" d="M 2034 4250 
Q 1547 4250 1301 3770 
Q 1056 3291 1056 2328 
Q 1056 1369 1301 889 
Q 1547 409 2034 409 
Q 2525 409 2770 889 
Q 3016 1369 3016 2328 
Q 3016 3291 2770 3770 
Q 2525 4250 2034 4250 
z
M 2034 4750 
Q 2819 4750 3233 4129 
Q 3647 3509 3647 2328 
Q 3647 1150 3233 529 
Q 2819 -91 2034 -91 
Q 1250 -91 836 529 
Q 422 1150 422 2328 
Q 422 3509 836 4129 
Q 1250 4750 2034 4750 
z
" transform="scale(0.015625)"/>
       </defs>
       <use xlink:href="#DejaVuSans-2212"/>
       <use xlink:href="#DejaVuSans-31" x="83.789062"/>
       <use xlink:href="#DejaVuSans-30" x="147.412109"/>
      </g>
     </g>
    </g>
    <g id="xtick_2">
     <g id="line2d_2">
      <g>
       <use xlink:href="#mdfb8826e05" x="73.8" y="189" style="stroke: #000000; stroke-width: 0.8"/>
      </g>
     </g>
     <g id="text_2">
      <!-- 0 -->
      <g transform="translate(70.61875 203.598437)scale(0.1 -0.1)">
       <use xlink:href="#DejaVuSans-30"/>
      </g>
     </g>
    </g>
    <g id="xtick_3">
     <g id="line2d_3">
      <g>
       <use xlink:href="#mdfb8826e05" x="129.6" y="189" style="stroke: #000000; stroke-width: 0.8"/>
      </g>
     </g>
     <g id="text_3">
      <!-- 10 -->
      <g transform="translate(123.2375 203.598437)scale(0.1 -0.1)">
       <use xlink:href="#DejaVuSans-31"/>
       <use xlink:href="#DejaVuSans-30" x="63.623047"/>
      </g>
     </g>
    </g>
   </g>
   <g id="matplotlib.axis_2">
    <g id="ytick_1">
     <g id="line2d_4">
      <defs>
       <path id="mcb4a3064a7" d="M 0 0 
L -3.5 0 
" style="stroke: #000000; stroke-width: 0.8"/>
      </defs>
      <g>
       <use xlink:href="#mcb4a3064a7" x="18" y="189" style="stroke: #000000; stroke-width: 0.8"/>
      </g>
     </g>
     <g id="text_4">
      <!-- −15 -->
      <g transform="translate(-10.104688 192.799219)scale(0.1 -0.1)">
       <defs>
        <path id="DejaVuSans-35" d="M 691 4666 
L 3169 4666 
L 3169 4134 
L 1269 4134 
L 1269 2991 
Q 1406 3038 1543 3061 
Q 1681 3084 1819 3084 
Q 2600 3084 3056 2656 
Q 3513 2228 3513 1497 
Q 3513 744 3044 326 
Q 2575 -91 1722 -91 
Q 1428 -91 1123 -41 
Q 819 9 494 109 
L 494 744 
Q 775 591 1075 516 
Q 1375 441 1709 441 
Q 2250 441 2565 725 
Q 2881 1009 2881 1497 
Q 2881 1984 2565 2268 
Q 2250 2553 1709 2553 
Q 1456 2553 1204 2497 
Q 953 2441 691 2322 
L 691 4666 
z
" transform="scale(0.015625)"/>
       </defs>
       <use xlink:href="#DejaVuSans-2212"/>
       <use xlink:href="#DejaVuSans-31" x="83.789062"/>
       <use xlink:href="#DejaVuSans-35" x="147.412109"/>
      </g>
     </g>
    </g>
    <g id="ytick_2">
     <g id="line2d_5">
      <g>
       <use xlink:href="#mcb4a3064a7" x="18" y="161.82" style="stroke: #000000; stroke-width: 0.8"/>
      </g>
     </g>
     <g id="text_5">
      <!-- −10 -->
      <g transform="translate(-10.104688 165.619219)scale(0.1 -0.1)">
       <use xlink:href="#DejaVuSans-2212"/>
       <use xlink:href="#DejaVuSans-31" x="83.789062"/>
       <use xlink:href="#DejaVuSans-30" x="147.412109"/>
      </g>
     </g>
    </g>
    <g id="ytick_3">
     <g id="line2d_6">
      <g>
       <use xlink:href="#mcb4a3064a7" x="18" y="134.64" style="stroke: #000000; stroke-width: 0.8"/>
      </g>
     </g>
     <g id="text_6">
      <!-- −5 -->
      <g transform="translate(-3.742188 138.439219)scale(0.1 -0.1)">
       <use xlink:href="#DejaVuSans-2212"/>
       <use xlink:href="#DejaVuSans-35" x="83.789062"/>
      </g>
     </g>
    </g>
    <g id="ytick_4">
     <g id="line2d_7">
      <g>
       <use xlink:href="#mcb4a3064a7" x="18" y="107.46" style="stroke: #000000; stroke-width: 0.8"/>
      </g>
     </g>
     <g id="text_7">
      <!-- 0 -->
      <g transform="translate(4.6375 111.259219)scale(0.1 -0.1)">
       <use xlink:href="#DejaVuSans-30"/>
      </g>
     </g>
    </g>
    <g id="ytick_5">
     <g id="line2d_8">
      <g>
       <use xlink:href="#mcb4a3064a7" x="18" y="80.28" style="stroke: #000000; stroke-width: 0.8"/>
      </g>
     </g>
     <g id="text_8">
      <!-- 5 -->
      <g transform="translate(4.6375 84.079219)scale(0.1 -0.1)">
       <use xlink:href="#DejaVuSans-35"/>
      </g>
     </g>
    </g>
    <g id="ytick_6">
     <g id="line2d_9">
      <g>
       <use xlink:href="#mcb4a3064a7" x="18" y="53.1" style="stroke: #000000; stroke-width: 0.8"/>
      </g>
     </g>
     <g id="text_9">
      <!-- 10 -->
      <g transform="translate(-1.725 56.899219)scale(0.1 -0.1)">
       <use xlink:href="#DejaVuSans-31"/>
       <use xlink:href="#DejaVuSans-30" x="63.623047"/>
      </g>
     </g>
    </g>
    <g id="ytick_7">
     <g id="line2d_10">
      <g>
       <use xlink:href="#mcb4a3064a7" x="18" y="25.92" style="stroke: #000000; stroke-width: 0.8"/>
      </g>
     </g>
     <g id="text_10">
      <!-- 15 -->
      <g transform="translate(-1.725 29.719219)scale(0.1 -0.1)">
       <use xlink:href="#DejaVuSans-31"/>
       <use xlink:href="#DejaVuSans-35" x="63.623047"/>
      </g>
     </g>
    </g>
   </g>
   <g id="patch_3">
    <path d="M 18 189 
L 18 25.92 
" style="fill: none; stroke: #000000; stroke-width: 0.8; stroke-linejoin: miter; stroke-linecap: square"/>
   </g>
   <g id="patch_4">
    <path d="M 129.6 189 
L 129.6 25.92 
" style="fill: none; stroke: #000000; stroke-width: 0.8; stroke-linejoin: miter; stroke-linecap: square"/>
   </g>
   <g id="patch_5">
    <path d="M 18 189 
L 129.6 189 
" style="fill: none; stroke: #000000; stroke-width: 0.8; stroke-linejoin: miter; stroke-linecap: square"/>
   </g>
   <g id="patch_6">
    <path d="M 18 25.92 
L 129.6 25.92 
" style="fill: none; stroke: #000000; stroke-width: 0.8; stroke-linejoin: miter; stroke-linecap: square"/>
   </g>
  </g>
 </g>
 <defs>
  <clipPath id="pc2bb450969">
   <rect x="18" y="25.92" width="111.6" height="163.08"/>
  </clipPath>
 </defs>
</svg>
