<?xml version="1.0" encoding="utf-8" standalone="no"?>
<!DOCTYPE svg PUBLIC "-//W3C//DTD SVG 1.1//EN"
  "http://www.w3.org/Graphics/SVG/1.1/DTD/svg11.dtd">
<svg xmlns:xlink="http://www.w3.org/1999/xlink" width="144pt" height="216pt" viewBox="0 0 144 216" xmlns="http://www.w3.org/2000/svg" version="1.1">
 <metadata>
  <rdf:RDF xmlns:dc="http://purl.org/dc/elements/1.1/" xmlns:cc="http://creativecommons.org/ns#" xmlns:rdf="http://www.w3.org/1999/02/22-rdf-syntax-ns#">
   <cc:Work>
    <dc:type rdf:resource="http://purl.org/dc/dcmitype/StillImage"/>
    <dc:date>2022-06-22T17:52:24.389748</dc:date>
    <dc:format>image/svg+xml</dc:format>
    <dc:creator>
     <cc:Agent>
      <dc:title>Matplotlib v3.5.1, https://matplotlib.org/</dc:title>
     </cc:Agent>
    </dc:creator>
   </cc:Work>
  </rdf:RDF>
 </metadata>
 <defs>
  <style type="text/css">*{stroke-linejoin: round; stroke-linecap: butt}</style>
 </defs>
 <g id="figure_1">
  <g id="patch_1">
   <path d="M 0 216 
L 144 216 
L 144 0 
L 0 0 
L 0 216 
z
" style="fill: none"/>
  </g>
  <g id="axes_1">
   <g id="patch_2">
    <path d="M 18 189 
L 129.6 189 
L 129.6 25.92 
L 18 25.92 
z
" style="fill: #ffffff"/>
   </g>
   <g id="PathCollection_1">
    <defs>
     <path id="m98f48b60f4" d="M 0 2.738613 
C 0.726289 2.738613 1.422928 2.450055 1.936492 1.936492 
C 2.450055 1.422928 2.738613 0.726289 2.738613 0 
C 2.738613 -0.726289 2.450055 -1.422928 1.936492 -1.936492 
C 1.422928 -2.450055 0.726289 -2.738613 0 -2.738613 
C -0.726289 -2.738613 -1.422928 -2.450055 -1.936492 -1.936492 
C -2.450055 -1.422928 -2.738613 -0.726289 -2.738613 0 
C -2.738613 0.726289 -2.450055 1.422928 -1.936492 1.936492 
C -1.422928 2.450055 -0.726289 2.738613 0 2.738613 
z
" style="stroke: #ff0000; stroke-width: 1.75"/>
    </defs>
    <g clip-path="url(#p2088b99b71)">
     <use xlink:href="#m98f48b60f4" x="80.775" y="107.46" style="fill: #ff0000; stroke: #ff0000; stroke-width: 1.75"/>
     <use xlink:href="#m98f48b60f4" x="94.725" y="107.46" style="fill: #ff0000; stroke: #ff0000; stroke-width: 1.75"/>
     <use xlink:href="#m98f48b60f4" x="59.85" y="119.229285" style="fill: #ff0000; stroke: #ff0000; stroke-width: 1.75"/>
     <use xlink:href="#m98f48b60f4" x="73.8" y="119.229285" style="fill: #ff0000; stroke: #ff0000; stroke-width: 1.75"/>
     <use xlink:href="#m98f48b60f4" x="87.75" y="119.229285" style="fill: #ff0000; stroke: #ff0000; stroke-width: 1.75"/>
     <use xlink:href="#m98f48b60f4" x="66.825" y="130.99857" style="fill: #ff0000; stroke: #ff0000; stroke-width: 1.75"/>
     <use xlink:href="#m98f48b60f4" x="80.775" y="130.99857" style="fill: #ff0000; stroke: #ff0000; stroke-width: 1.75"/>
    </g>
   </g>
   <g id="PathCollection_2">
    <defs>
     <path id="C0_0_5a28cfd884" d="M 0 2.738613 
C 0.726289 2.738613 1.422928 2.450055 1.936492 1.936492 
C 2.450055 1.422928 2.738613 0.726289 2.738613 -0 
C 2.738613 -0.726289 2.450055 -1.422928 1.936492 -1.936492 
C 1.422928 -2.450055 0.726289 -2.738613 0 -2.738613 
C -0.726289 -2.738613 -1.422928 -2.450055 -1.936492 -1.936492 
C -2.450055 -1.422928 -2.738613 -0.726289 -2.738613 0 
C -2.738613 0.726289 -2.450055 1.422928 -1.936492 1.936492 
C -1.422928 2.450055 -0.726289 2.738613 0 2.738613 
z
"/>
    </defs>
    <g clip-path="url(#p2088b99b71)">
     <use xlink:href="#C0_0_5a28cfd884" x="66.825" y="83.92143" style="fill: none; stroke: #ff0000; stroke-width: 1.75"/>
    </g>
    <g clip-path="url(#p2088b99b71)">
     <use xlink:href="#C0_0_5a28cfd884" x="80.775" y="83.92143" style="fill: none; stroke: #ff0000; stroke-width: 1.75"/>
    </g>
    <g clip-path="url(#p2088b99b71)">
     <use xlink:href="#C0_0_5a28cfd884" x="59.85" y="95.690715" style="fill: none; stroke: #ff0000; stroke-width: 1.75"/>
    </g>
    <g clip-path="url(#p2088b99b71)">
     <use xlink:href="#C0_0_5a28cfd884" x="73.8" y="95.690715" style="fill: none; stroke: #ff0000; stroke-width: 1.75"/>
    </g>
    <g clip-path="url(#p2088b99b71)">
     <use xlink:href="#C0_0_5a28cfd884" x="87.75" y="95.690715" style="fill: none; stroke: #ff0000; stroke-width: 1.75"/>
    </g>
    <g clip-path="url(#p2088b99b71)">
     <use xlink:href="#C0_0_5a28cfd884" x="52.875" y="107.46" style="fill: none; stroke: #ff0000; stroke-width: 1.75"/>
    </g>
    <g clip-path="url(#p2088b99b71)">
     <use xlink:href="#C0_0_5a28cfd884" x="66.825" y="107.46" style="fill: none; stroke: #ff0000; stroke-width: 1.75"/>
    </g>
   </g>
   <g id="PathCollection_3">
    <path d="M 108.342784 69.633083 
C 108.342784 69.633083 108.342784 69.633083 108.342784 69.633083 
C 108.342784 69.633083 108.342784 69.633083 108.342784 69.633083 
C 108.342784 69.633083 108.342784 69.633083 108.342784 69.633083 
C 108.342784 69.633083 108.342784 69.633083 108.342784 69.633083 
C 108.342784 69.633083 108.342784 69.633083 108.342784 69.633083 
C 108.342784 69.633083 108.342784 69.633083 108.342784 69.633083 
C 108.342784 69.633083 108.342784 69.633083 108.342784 69.633083 
C 108.342784 69.633083 108.342784 69.633083 108.342784 69.633083 
z
" clip-path="url(#p2088b99b71)" style="stroke: #000000"/>
    <path d="M 102.328667 53.128168 
C 102.328667 53.128168 102.328667 53.128168 102.328667 53.128168 
C 102.328667 53.128168 102.328667 53.128168 102.328667 53.128168 
C 102.328667 53.128168 102.328667 53.128168 102.328667 53.128168 
C 102.328667 53.128168 102.328667 53.128168 102.328667 53.128168 
C 102.328667 53.128168 102.328667 53.128168 102.328667 53.128168 
C 102.328667 53.128168 102.328667 53.128168 102.328667 53.128168 
C 102.328667 53.128168 102.328667 53.128168 102.328667 53.128168 
C 102.328667 53.128168 102.328667 53.128168 102.328667 53.128168 
z
" clip-path="url(#p2088b99b71)" style="stroke: #000000"/>
    <path d="M 117.297567 124.095658 
C 117.717152 124.095658 118.119608 123.928955 118.416299 123.632264 
C 118.71299 123.335573 118.879693 122.933117 118.879693 122.513532 
C 118.879693 122.093947 118.71299 121.691491 118.416299 121.3948 
C 118.119608 121.098108 117.717152 120.931406 117.297567 120.931406 
C 116.877982 120.931406 116.475526 121.098108 116.178835 121.3948 
C 115.882144 121.691491 115.715441 122.093947 115.715441 122.513532 
C 115.715441 122.933117 115.882144 123.335573 116.178835 123.632264 
C 116.475526 123.928955 116.877982 124.095658 117.297567 124.095658 
z
" clip-path="url(#p2088b99b71)" style="stroke: #000000"/>
    <path d="M 115.445108 108.706839 
C 115.864431 108.706839 116.266636 108.54024 116.563142 108.243734 
C 116.859648 107.947228 117.026247 107.545023 117.026247 107.1257 
C 117.026247 106.706377 116.859648 106.304172 116.563142 106.007666 
C 116.266636 105.71116 115.864431 105.544561 115.445108 105.544561 
C 115.025785 105.544561 114.62358 105.71116 114.327074 106.007666 
C 114.030568 106.304172 113.86397 106.706377 113.86397 107.1257 
C 113.86397 107.545023 114.030568 107.947228 114.327074 108.243734 
C 114.62358 108.54024 115.025785 108.706839 115.445108 108.706839 
z
" clip-path="url(#p2088b99b71)" style="stroke: #000000"/>
    <path d="M 113.815717 105.16324 
C 114.050032 105.16324 114.274781 105.070146 114.440467 104.90446 
C 114.606153 104.738775 114.699247 104.514025 114.699247 104.27971 
C 114.699247 104.045396 114.606153 103.820646 114.440467 103.654961 
C 114.274781 103.489275 114.050032 103.396181 113.815717 103.396181 
C 113.581402 103.396181 113.356653 103.489275 113.190967 103.654961 
C 113.025282 103.820646 112.932188 104.045396 112.932188 104.27971 
C 112.932188 104.514025 113.025282 104.738775 113.190967 104.90446 
C 113.356653 105.070146 113.581402 105.16324 113.815717 105.16324 
z
" clip-path="url(#p2088b99b71)" style="stroke: #000000"/>
    <path d="M 104.843076 93.00436 
C 105.262398 93.00436 105.664603 92.837762 105.96111 92.541256 
C 106.257616 92.24475 106.424214 91.842545 106.424214 91.423222 
C 106.424214 91.003899 106.257616 90.601694 105.96111 90.305188 
C 105.664603 90.008682 105.262398 89.842083 104.843076 89.842083 
C 104.423753 89.842083 104.021548 90.008682 103.725042 90.305188 
C 103.428535 90.601694 103.261937 91.003899 103.261937 91.423222 
C 103.261937 91.842545 103.428535 92.24475 103.725042 92.541256 
C 104.021548 92.837762 104.423753 93.00436 104.843076 93.00436 
z
" clip-path="url(#p2088b99b71)" style="stroke: #000000"/>
    <path d="M 99.969417 76.957071 
C 100.06318 76.957071 100.153116 76.919818 100.219417 76.853518 
C 100.285717 76.787217 100.32297 76.697281 100.32297 76.603518 
C 100.32297 76.509754 100.285717 76.419818 100.219417 76.353518 
C 100.153116 76.287217 100.06318 76.249964 99.969417 76.249964 
C 99.875653 76.249964 99.785717 76.287217 99.719417 76.353518 
C 99.653116 76.419818 99.615863 76.509754 99.615863 76.603518 
C 99.615863 76.697281 99.653116 76.787217 99.719417 76.853518 
C 99.785717 76.919818 99.875653 76.957071 99.969417 76.957071 
z
" clip-path="url(#p2088b99b71)" style="stroke: #000000"/>
    <path d="M 98.664815 74.235245 
C 99.084137 74.235245 99.486342 74.068646 99.782849 73.77214 
C 100.079355 73.475634 100.245953 73.073429 100.245953 72.654106 
C 100.245953 72.234783 100.079355 71.832578 99.782849 71.536072 
C 99.486342 71.239566 99.084137 71.072967 98.664815 71.072967 
C 98.245492 71.072967 97.843287 71.239566 97.546781 71.536072 
C 97.250274 71.832578 97.083676 72.234783 97.083676 72.654106 
C 97.083676 73.073429 97.250274 73.475634 97.546781 73.77214 
C 97.843287 74.068646 98.245492 74.235245 98.664815 74.235245 
z
" clip-path="url(#p2088b99b71)" style="stroke: #000000"/>
    <path d="M 92.884061 63.285094 
C 93.303384 63.285094 93.705589 63.118495 94.002095 62.821989 
C 94.298601 62.525483 94.4652 62.123278 94.4652 61.703955 
C 94.4652 61.284632 94.298601 60.882427 94.002095 60.585921 
C 93.705589 60.289415 93.303384 60.122816 92.884061 60.122816 
C 92.464738 60.122816 92.062533 60.289415 91.766027 60.585921 
C 91.469521 60.882427 91.302922 61.284632 91.302922 61.703955 
C 91.302922 62.123278 91.469521 62.525483 91.766027 62.821989 
C 92.062533 63.118495 92.464738 63.285094 92.884061 63.285094 
z
" clip-path="url(#p2088b99b71)" style="stroke: #000000"/>
    <path d="M 92.057103 47.006193 
C 92.416144 47.006193 92.760527 46.863544 93.014407 46.609665 
C 93.268287 46.355785 93.410935 46.011401 93.410935 45.652361 
C 93.410935 45.293321 93.268287 44.948938 93.014407 44.695058 
C 92.760527 44.441178 92.416144 44.29853 92.057103 44.29853 
C 91.698063 44.29853 91.35368 44.441178 91.0998 44.695058 
C 90.84592 44.948938 90.703272 45.293321 90.703272 45.652361 
C 90.703272 46.011401 90.84592 46.355785 91.0998 46.609665 
C 91.35368 46.863544 91.698063 47.006193 92.057103 47.006193 
z
" clip-path="url(#p2088b99b71)" style="stroke: #000000"/>
    <path d="M 87.126839 36.991657 
C 87.532972 36.991657 87.922527 36.830298 88.209707 36.543118 
C 88.496887 36.255938 88.658246 35.866383 88.658246 35.460249 
C 88.658246 35.054115 88.496887 34.664561 88.209707 34.377381 
C 87.922527 34.090201 87.532972 33.928842 87.126839 33.928842 
C 86.720705 33.928842 86.33115 34.090201 86.04397 34.377381 
C 85.75679 34.664561 85.595431 35.054115 85.595431 35.460249 
C 85.595431 35.866383 85.75679 36.255938 86.04397 36.543118 
C 86.33115 36.830298 86.720705 36.991657 87.126839 36.991657 
z
" clip-path="url(#p2088b99b71)" style="stroke: #000000"/>
    <path d="M 86.091722 33.081484 
C 86.249413 33.081484 86.400666 33.018832 86.51217 32.907328 
C 86.623674 32.795824 86.686325 32.644571 86.686325 32.48688 
C 86.686325 32.329189 86.623674 32.177936 86.51217 32.066432 
C 86.400666 31.954928 86.249413 31.892276 86.091722 31.892276 
C 85.934031 31.892276 85.782778 31.954928 85.671274 32.066432 
C 85.559769 32.177936 85.497118 32.329189 85.497118 32.48688 
C 85.497118 32.644571 85.559769 32.795824 85.671274 32.907328 
C 85.782778 33.018832 85.934031 33.081484 86.091722 33.081484 
z
" clip-path="url(#p2088b99b71)" style="stroke: #000000"/>
    <path d="M 120.275675 165.961341 
C 120.694998 165.961341 121.097203 165.794743 121.393709 165.498237 
C 121.690215 165.20173 121.856814 164.799525 121.856814 164.380203 
C 121.856814 163.96088 121.690215 163.558675 121.393709 163.262169 
C 121.097203 162.965663 120.694998 162.799064 120.275675 162.799064 
C 119.856352 162.799064 119.454147 162.965663 119.157641 163.262169 
C 118.861135 163.558675 118.694536 163.96088 118.694536 164.380203 
C 118.694536 164.799525 118.861135 165.20173 119.157641 165.498237 
C 119.454147 165.794743 119.856352 165.961341 120.275675 165.961341 
z
" clip-path="url(#p2088b99b71)" style="stroke: #000000"/>
    <path d="M 120.468516 156.209614 
C 120.888101 156.209614 121.290557 156.042912 121.587248 155.74622 
C 121.883939 155.449529 122.050642 155.047073 122.050642 154.627488 
C 122.050642 154.207904 121.883939 153.805447 121.587248 153.508756 
C 121.290557 153.212065 120.888101 153.045362 120.468516 153.045362 
C 120.048931 153.045362 119.646475 153.212065 119.349784 153.508756 
C 119.053093 153.805447 118.88639 154.207904 118.88639 154.627488 
C 118.88639 155.047073 119.053093 155.449529 119.349784 155.74622 
C 119.646475 156.042912 120.048931 156.209614 120.468516 156.209614 
z
" clip-path="url(#p2088b99b71)" style="stroke: #000000"/>
    <path d="M 114.265829 146.457805 
C 114.685152 146.457805 115.087357 146.291207 115.383863 145.9947 
C 115.680369 145.698194 115.846968 145.295989 115.846968 144.876666 
C 115.846968 144.457344 115.680369 144.055139 115.383863 143.758632 
C 115.087357 143.462126 114.685152 143.295528 114.265829 143.295528 
C 113.846506 143.295528 113.444301 143.462126 113.147795 143.758632 
C 112.851289 144.055139 112.68469 144.457344 112.68469 144.876666 
C 112.68469 145.295989 112.851289 145.698194 113.147795 145.9947 
C 113.444301 146.291207 113.846506 146.457805 114.265829 146.457805 
z
" clip-path="url(#p2088b99b71)" style="stroke: #000000"/>
    <path d="M 110.610193 137.252143 
C 111.029778 137.252143 111.432234 137.08544 111.728925 136.788749 
C 112.025616 136.492058 112.192319 136.089602 112.192319 135.670017 
C 112.192319 135.250432 112.025616 134.847976 111.728925 134.551285 
C 111.432234 134.254594 111.029778 134.087891 110.610193 134.087891 
C 110.190608 134.087891 109.788152 134.254594 109.491461 134.551285 
C 109.19477 134.847976 109.028067 135.250432 109.028067 135.670017 
C 109.028067 136.089602 109.19477 136.492058 109.491461 136.788749 
C 109.788152 137.08544 110.190608 137.252143 110.610193 137.252143 
z
" clip-path="url(#p2088b99b71)" style="stroke: #000000"/>
    <path d="M 109.38997 126.092005 
C 109.809555 126.092005 110.212011 125.925302 110.508702 125.628611 
C 110.805394 125.331919 110.972096 124.929463 110.972096 124.509878 
C 110.972096 124.090294 110.805394 123.687838 110.508702 123.391146 
C 110.212011 123.094455 109.809555 122.927752 109.38997 122.927752 
C 108.970386 122.927752 108.567929 123.094455 108.271238 123.391146 
C 107.974547 123.687838 107.807844 124.090294 107.807844 124.509878 
C 107.807844 124.929463 107.974547 125.331919 108.271238 125.628611 
C 108.567929 125.925302 108.970386 126.092005 109.38997 126.092005 
z
" clip-path="url(#p2088b99b71)" style="stroke: #000000"/>
    <path d="M 103.492305 116.453534 
C 103.91189 116.453534 104.314346 116.286831 104.611038 115.99014 
C 104.907729 115.693449 105.074432 115.290993 105.074432 114.871408 
C 105.074432 114.451823 104.907729 114.049367 104.611038 113.752676 
C 104.314346 113.455984 103.91189 113.289282 103.492305 113.289282 
C 103.072721 113.289282 102.670265 113.455984 102.373573 113.752676 
C 102.076882 114.049367 101.910179 114.451823 101.910179 114.871408 
C 101.910179 115.290993 102.076882 115.693449 102.373573 115.99014 
C 102.670265 116.286831 103.072721 116.453534 103.492305 116.453534 
z
" clip-path="url(#p2088b99b71)" style="stroke: #000000"/>
    <path d="M 98.715002 100.31603 
C 99.094021 100.31603 99.457568 100.165444 99.725575 99.897436 
C 99.993582 99.629429 100.144168 99.265883 100.144168 98.886863 
C 100.144168 98.507844 99.993582 98.144297 99.725575 97.87629 
C 99.457568 97.608283 99.094021 97.457697 98.715002 97.457697 
C 98.335982 97.457697 97.972436 97.608283 97.704428 97.87629 
C 97.436421 98.144297 97.285835 98.507844 97.285835 98.886863 
C 97.285835 99.265883 97.436421 99.629429 97.704428 99.897436 
C 97.972436 100.165444 98.335982 100.31603 98.715002 100.31603 
z
" clip-path="url(#p2088b99b71)" style="stroke: #000000"/>
    <path d="M 96.009852 94.14358 
C 96.009852 94.14358 96.009852 94.14358 96.009852 94.14358 
C 96.009852 94.14358 96.009852 94.14358 96.009852 94.14358 
C 96.009852 94.14358 96.009852 94.14358 96.009852 94.14358 
C 96.009852 94.14358 96.009852 94.14358 96.009852 94.14358 
C 96.009852 94.14358 96.009852 94.14358 96.009852 94.14358 
C 96.009852 94.14358 96.009852 94.14358 96.009852 94.14358 
C 96.009852 94.14358 96.009852 94.14358 96.009852 94.14358 
C 96.009852 94.14358 96.009852 94.14358 96.009852 94.14358 
z
" clip-path="url(#p2088b99b71)" style="stroke: #000000"/>
    <path d="M 95.543517 80.206456 
C 95.543517 80.206456 95.543517 80.206456 95.543517 80.206456 
C 95.543517 80.206456 95.543517 80.206456 95.543517 80.206456 
C 95.543517 80.206456 95.543517 80.206456 95.543517 80.206456 
C 95.543517 80.206456 95.543517 80.206456 95.543517 80.206456 
C 95.543517 80.206456 95.543517 80.206456 95.543517 80.206456 
C 95.543517 80.206456 95.543517 80.206456 95.543517 80.206456 
C 95.543517 80.206456 95.543517 80.206456 95.543517 80.206456 
C 95.543517 80.206456 95.543517 80.206456 95.543517 80.206456 
z
" clip-path="url(#p2088b99b71)" style="stroke: #000000"/>
    <path d="M 86.790327 74.286888 
C 87.209912 74.286888 87.612368 74.120186 87.909059 73.823494 
C 88.20575 73.526803 88.372453 73.124347 88.372453 72.704762 
C 88.372453 72.285178 88.20575 71.882721 87.909059 71.58603 
C 87.612368 71.289339 87.209912 71.122636 86.790327 71.122636 
C 86.370742 71.122636 85.968286 71.289339 85.671595 71.58603 
C 85.374904 71.882721 85.208201 72.285178 85.208201 72.704762 
C 85.208201 73.124347 85.374904 73.526803 85.671595 73.823494 
C 85.968286 74.120186 86.370742 74.286888 86.790327 74.286888 
z
" clip-path="url(#p2088b99b71)" style="stroke: #000000"/>
    <path d="M 85.714552 64.150501 
C 86.133875 64.150501 86.53608 63.983902 86.832586 63.687396 
C 87.129092 63.39089 87.295691 62.988685 87.295691 62.569362 
C 87.295691 62.150039 87.129092 61.747834 86.832586 61.451328 
C 86.53608 61.154822 86.133875 60.988223 85.714552 60.988223 
C 85.295229 60.988223 84.893024 61.154822 84.596518 61.451328 
C 84.300012 61.747834 84.133413 62.150039 84.133413 62.569362 
C 84.133413 62.988685 84.300012 63.39089 84.596518 63.687396 
C 84.893024 63.983902 85.295229 64.150501 85.714552 64.150501 
z
" clip-path="url(#p2088b99b71)" style="stroke: #000000"/>
    <path d="M 79.685118 48.976249 
C 80.104441 48.976249 80.506646 48.80965 80.803152 48.513144 
C 81.099658 48.216638 81.266257 47.814433 81.266257 47.39511 
C 81.266257 46.975787 81.099658 46.573582 80.803152 46.277076 
C 80.506646 45.98057 80.104441 45.813971 79.685118 45.813971 
C 79.265795 45.813971 78.86359 45.98057 78.567084 46.277076 
C 78.270578 46.573582 78.103979 46.975787 78.103979 47.39511 
C 78.103979 47.814433 78.270578 48.216638 78.567084 48.513144 
C 78.86359 48.80965 79.265795 48.976249 79.685118 48.976249 
z
" clip-path="url(#p2088b99b71)" style="stroke: #000000"/>
    <path d="M 79.66235 41.574402 
C 79.756113 41.574402 79.846049 41.53715 79.91235 41.470849 
C 79.97865 41.404548 80.015903 41.314612 80.015903 41.220849 
C 80.015903 41.127085 79.97865 41.03715 79.91235 40.970849 
C 79.846049 40.904548 79.756113 40.867295 79.66235 40.867295 
C 79.568586 40.867295 79.47865 40.904548 79.41235 40.970849 
C 79.346049 41.03715 79.308796 41.127085 79.308796 41.220849 
C 79.308796 41.314612 79.346049 41.404548 79.41235 41.470849 
C 79.47865 41.53715 79.568586 41.574402 79.66235 41.574402 
z
" clip-path="url(#p2088b99b71)" style="stroke: #000000"/>
    <path d="M 75.402628 32.518308 
C 75.800125 32.518308 76.181396 32.360381 76.462469 32.079308 
C 76.743542 31.798235 76.901469 31.416964 76.901469 31.019467 
C 76.901469 30.62197 76.743542 30.240699 76.462469 29.959626 
C 76.181396 29.678553 75.800125 29.520626 75.402628 29.520626 
C 75.00513 29.520626 74.62386 29.678553 74.342787 29.959626 
C 74.061714 30.240699 73.903787 30.62197 73.903787 31.019467 
C 73.903787 31.416964 74.061714 31.798235 74.342787 32.079308 
C 74.62386 32.360381 75.00513 32.518308 75.402628 32.518308 
z
" clip-path="url(#p2088b99b71)" style="stroke: #000000"/>
    <path d="M 114.045423 171.353374 
C 114.456374 171.353374 114.850549 171.190102 115.141135 170.899515 
C 115.431722 170.608929 115.594994 170.214754 115.594994 169.803803 
C 115.594994 169.392852 115.431722 168.998677 115.141135 168.70809 
C 114.850549 168.417504 114.456374 168.254231 114.045423 168.254231 
C 113.634472 168.254231 113.240297 168.417504 112.94971 168.70809 
C 112.659124 168.998677 112.495851 169.392852 112.495851 169.803803 
C 112.495851 170.214754 112.659124 170.608929 112.94971 170.899515 
C 113.240297 171.190102 113.634472 171.353374 114.045423 171.353374 
z
" clip-path="url(#p2088b99b71)" style="stroke: #000000"/>
    <path d="M 104.49906 157.519429 
C 104.918383 157.519429 105.320588 157.35283 105.617094 157.056324 
C 105.9136 156.759818 106.080199 156.357613 106.080199 155.93829 
C 106.080199 155.518967 105.9136 155.116762 105.617094 154.820256 
C 105.320588 154.52375 104.918383 154.357151 104.49906 154.357151 
C 104.079737 154.357151 103.677532 154.52375 103.381026 154.820256 
C 103.08452 155.116762 102.917922 155.518967 102.917922 155.93829 
C 102.917922 156.357613 103.08452 156.759818 103.381026 157.056324 
C 103.677532 157.35283 104.079737 157.519429 104.49906 157.519429 
z
" clip-path="url(#p2088b99b71)" style="stroke: #000000"/>
    <path d="M 100.442581 145.563699 
C 100.862166 145.563699 101.264622 145.396997 101.561313 145.100305 
C 101.858005 144.803614 102.024707 144.401158 102.024707 143.981573 
C 102.024707 143.561988 101.858005 143.159532 101.561313 142.862841 
C 101.264622 142.56615 100.862166 142.399447 100.442581 142.399447 
C 100.022997 142.399447 99.62054 142.56615 99.323849 142.862841 
C 99.027158 143.159532 98.860455 143.561988 98.860455 143.981573 
C 98.860455 144.401158 99.027158 144.803614 99.323849 145.100305 
C 99.62054 145.396997 100.022997 145.563699 100.442581 145.563699 
z
" clip-path="url(#p2088b99b71)" style="stroke: #000000"/>
    <path d="M 98.213715 136.510025 
C 98.213715 136.510025 98.213715 136.510025 98.213715 136.510025 
C 98.213715 136.510025 98.213715 136.510025 98.213715 136.510025 
C 98.213715 136.510025 98.213715 136.510025 98.213715 136.510025 
C 98.213715 136.510025 98.213715 136.510025 98.213715 136.510025 
C 98.213715 136.510025 98.213715 136.510025 98.213715 136.510025 
C 98.213715 136.510025 98.213715 136.510025 98.213715 136.510025 
C 98.213715 136.510025 98.213715 136.510025 98.213715 136.510025 
C 98.213715 136.510025 98.213715 136.510025 98.213715 136.510025 
z
" clip-path="url(#p2088b99b71)" style="stroke: #000000"/>
    <path d="M 98.874741 127.100677 
C 99.294326 127.100677 99.696782 126.933974 99.993473 126.637283 
C 100.290164 126.340591 100.456867 125.938135 100.456867 125.518551 
C 100.456867 125.098966 100.290164 124.69651 99.993473 124.399818 
C 99.696782 124.103127 99.294326 123.936424 98.874741 123.936424 
C 98.455156 123.936424 98.0527 124.103127 97.756009 124.399818 
C 97.459318 124.69651 97.292615 125.098966 97.292615 125.518551 
C 97.292615 125.938135 97.459318 126.340591 97.756009 126.637283 
C 98.0527 126.933974 98.455156 127.100677 98.874741 127.100677 
z
" clip-path="url(#p2088b99b71)" style="stroke: #000000"/>
    <path d="M 94.514143 117.9988 
C 94.933466 117.9988 95.335671 117.832201 95.632177 117.535695 
C 95.928683 117.239189 96.095282 116.836984 96.095282 116.417661 
C 96.095282 115.998338 95.928683 115.596133 95.632177 115.299627 
C 95.335671 115.003121 94.933466 114.836522 94.514143 114.836522 
C 94.09482 114.836522 93.692615 115.003121 93.396109 115.299627 
C 93.099603 115.596133 92.933004 115.998338 92.933004 116.417661 
C 92.933004 116.836984 93.099603 117.239189 93.396109 117.535695 
C 93.692615 117.832201 94.09482 117.9988 94.514143 117.9988 
z
" clip-path="url(#p2088b99b71)" style="stroke: #000000"/>
    <path d="M 91.573182 105.534753 
C 91.992767 105.534753 92.395223 105.368051 92.691914 105.071359 
C 92.988605 104.774668 93.155308 104.372212 93.155308 103.952627 
C 93.155308 103.533043 92.988605 103.130586 92.691914 102.833895 
C 92.395223 102.537204 91.992767 102.370501 91.573182 102.370501 
C 91.153597 102.370501 90.751141 102.537204 90.45445 102.833895 
C 90.157758 103.130586 89.991056 103.533043 89.991056 103.952627 
C 89.991056 104.372212 90.157758 104.774668 90.45445 105.071359 
C 90.751141 105.368051 91.153597 105.534753 91.573182 105.534753 
z
" clip-path="url(#p2088b99b71)" style="stroke: #000000"/>
    <path d="M 88.23432 97.489122 
C 88.695054 97.489122 89.13698 97.30607 89.462769 96.980281 
C 89.788557 96.654493 89.971609 96.212567 89.971609 95.751832 
C 89.971609 95.291098 89.788557 94.849172 89.462769 94.523383 
C 89.13698 94.197595 88.695054 94.014543 88.23432 94.014543 
C 87.773585 94.014543 87.331659 94.197595 87.005871 94.523383 
C 86.680082 94.849172 86.49703 95.291098 86.49703 95.751832 
C 86.49703 96.212567 86.680082 96.654493 87.005871 96.980281 
C 87.331659 97.30607 87.773585 97.489122 88.23432 97.489122 
z
" clip-path="url(#p2088b99b71)" style="stroke: #000000"/>
    <path d="M 83.963584 84.301776 
C 84.383169 84.301776 84.785625 84.135074 85.082316 83.838382 
C 85.379007 83.541691 85.54571 83.139235 85.54571 82.71965 
C 85.54571 82.300066 85.379007 81.897609 85.082316 81.600918 
C 84.785625 81.304227 84.383169 81.137524 83.963584 81.137524 
C 83.543999 81.137524 83.141543 81.304227 82.844852 81.600918 
C 82.548161 81.897609 82.381458 82.300066 82.381458 82.71965 
C 82.381458 83.139235 82.548161 83.541691 82.844852 83.838382 
C 83.141543 84.135074 83.543999 84.301776 83.963584 84.301776 
z
" clip-path="url(#p2088b99b71)" style="stroke: #000000"/>
    <path d="M 77.352446 75.210126 
C 77.44621 75.210126 77.536146 75.172874 77.602446 75.106573 
C 77.668747 75.040272 77.706 74.950336 77.706 74.856573 
C 77.706 74.762809 77.668747 74.672874 77.602446 74.606573 
C 77.536146 74.540272 77.44621 74.503019 77.352446 74.503019 
C 77.258683 74.503019 77.168747 74.540272 77.102446 74.606573 
C 77.036146 74.672874 76.998893 74.762809 76.998893 74.856573 
C 76.998893 74.950336 77.036146 75.040272 77.102446 75.106573 
C 77.168747 75.172874 77.258683 75.210126 77.352446 75.210126 
z
" clip-path="url(#p2088b99b71)" style="stroke: #000000"/>
    <path d="M 76.753516 66.03453 
C 77.173101 66.03453 77.575557 65.867827 77.872249 65.571136 
C 78.16894 65.274444 78.335643 64.871988 78.335643 64.452403 
C 78.335643 64.032819 78.16894 63.630363 77.872249 63.333671 
C 77.575557 63.03698 77.173101 62.870277 76.753516 62.870277 
C 76.333932 62.870277 75.931476 63.03698 75.634784 63.333671 
C 75.338093 63.630363 75.17139 64.032819 75.17139 64.452403 
C 75.17139 64.871988 75.338093 65.274444 75.634784 65.571136 
C 75.931476 65.867827 76.333932 66.03453 76.753516 66.03453 
z
" clip-path="url(#p2088b99b71)" style="stroke: #000000"/>
    <path d="M 70.216512 55.417471 
C 70.310276 55.417471 70.400212 55.380218 70.466512 55.313918 
C 70.532813 55.247617 70.570066 55.157681 70.570066 55.063918 
C 70.570066 54.970154 70.532813 54.880218 70.466512 54.813918 
C 70.400212 54.747617 70.310276 54.710364 70.216512 54.710364 
C 70.122749 54.710364 70.032813 54.747617 69.966512 54.813918 
C 69.900212 54.880218 69.862959 54.970154 69.862959 55.063918 
C 69.862959 55.157681 69.900212 55.247617 69.966512 55.313918 
C 70.032813 55.380218 70.122749 55.417471 70.216512 55.417471 
z
" clip-path="url(#p2088b99b71)" style="stroke: #000000"/>
    <path d="M 70.276774 46.824172 
C 70.696097 46.824172 71.098302 46.657573 71.394808 46.361067 
C 71.691314 46.064561 71.857913 45.662356 71.857913 45.243033 
C 71.857913 44.82371 71.691314 44.421505 71.394808 44.124999 
C 71.098302 43.828493 70.696097 43.661894 70.276774 43.661894 
C 69.857451 43.661894 69.455246 43.828493 69.15874 44.124999 
C 68.862234 44.421505 68.695635 44.82371 68.695635 45.243033 
C 68.695635 45.662356 68.862234 46.064561 69.15874 46.361067 
C 69.455246 46.657573 69.857451 46.824172 70.276774 46.824172 
z
" clip-path="url(#p2088b99b71)" style="stroke: #000000"/>
    <path d="M 65.547646 36.297028 
C 65.641409 36.297028 65.731345 36.259775 65.797646 36.193474 
C 65.863946 36.127173 65.901199 36.037238 65.901199 35.943474 
C 65.901199 35.849711 65.863946 35.759775 65.797646 35.693474 
C 65.731345 35.627173 65.641409 35.589921 65.547646 35.589921 
C 65.453882 35.589921 65.363946 35.627173 65.297646 35.693474 
C 65.231345 35.759775 65.194092 35.849711 65.194092 35.943474 
C 65.194092 36.037238 65.231345 36.127173 65.297646 36.193474 
C 65.363946 36.259775 65.453882 36.297028 65.547646 36.297028 
z
" clip-path="url(#p2088b99b71)" style="stroke: #000000"/>
    <path d="M 61.760205 26.058754 
C 61.760205 26.058754 61.760205 26.058754 61.760205 26.058754 
C 61.760205 26.058754 61.760205 26.058754 61.760205 26.058754 
C 61.760205 26.058754 61.760205 26.058754 61.760205 26.058754 
C 61.760205 26.058754 61.760205 26.058754 61.760205 26.058754 
C 61.760205 26.058754 61.760205 26.058754 61.760205 26.058754 
C 61.760205 26.058754 61.760205 26.058754 61.760205 26.058754 
C 61.760205 26.058754 61.760205 26.058754 61.760205 26.058754 
C 61.760205 26.058754 61.760205 26.058754 61.760205 26.058754 
z
" clip-path="url(#p2088b99b71)" style="stroke: #000000"/>
    <path d="M 101.819847 179.363804 
C 101.819847 179.363804 101.819847 179.363804 101.819847 179.363804 
C 101.819847 179.363804 101.819847 179.363804 101.819847 179.363804 
C 101.819847 179.363804 101.819847 179.363804 101.819847 179.363804 
C 101.819847 179.363804 101.819847 179.363804 101.819847 179.363804 
C 101.819847 179.363804 101.819847 179.363804 101.819847 179.363804 
C 101.819847 179.363804 101.819847 179.363804 101.819847 179.363804 
C 101.819847 179.363804 101.819847 179.363804 101.819847 179.363804 
C 101.819847 179.363804 101.819847 179.363804 101.819847 179.363804 
z
" clip-path="url(#p2088b99b71)" style="stroke: #000000"/>
    <path d="M 100.191237 170.845919 
C 100.610822 170.845919 101.013278 170.679216 101.309969 170.382525 
C 101.60666 170.085834 101.773363 169.683378 101.773363 169.263793 
C 101.773363 168.844208 101.60666 168.441752 101.309969 168.145061 
C 101.013278 167.84837 100.610822 167.681667 100.191237 167.681667 
C 99.771652 167.681667 99.369196 167.84837 99.072505 168.145061 
C 98.775814 168.441752 98.609111 168.844208 98.609111 169.263793 
C 98.609111 169.683378 98.775814 170.085834 99.072505 170.382525 
C 99.369196 170.679216 99.771652 170.845919 100.191237 170.845919 
z
" clip-path="url(#p2088b99b71)" style="stroke: #000000"/>
    <path d="M 98.747732 163.419774 
C 99.167055 163.419774 99.56926 163.253176 99.865766 162.956669 
C 100.162272 162.660163 100.328871 162.257958 100.328871 161.838635 
C 100.328871 161.419313 100.162272 161.017108 99.865766 160.720602 
C 99.56926 160.424095 99.167055 160.257497 98.747732 160.257497 
C 98.328409 160.257497 97.926204 160.424095 97.629698 160.720602 
C 97.333192 161.017108 97.166593 161.419313 97.166593 161.838635 
C 97.166593 162.257958 97.333192 162.660163 97.629698 162.956669 
C 97.926204 163.253176 98.328409 163.419774 98.747732 163.419774 
z
" clip-path="url(#p2088b99b71)" style="stroke: #000000"/>
    <path d="M 91.504801 157.341739 
C 91.924386 157.341739 92.326842 157.175036 92.623533 156.878345 
C 92.920224 156.581653 93.086927 156.179197 93.086927 155.759612 
C 93.086927 155.340028 92.920224 154.937572 92.623533 154.64088 
C 92.326842 154.344189 91.924386 154.177486 91.504801 154.177486 
C 91.085216 154.177486 90.68276 154.344189 90.386069 154.64088 
C 90.089378 154.937572 89.922675 155.340028 89.922675 155.759612 
C 89.922675 156.179197 90.089378 156.581653 90.386069 156.878345 
C 90.68276 157.175036 91.085216 157.341739 91.504801 157.341739 
z
" clip-path="url(#p2088b99b71)" style="stroke: #000000"/>
    <path d="M 90.052389 140.704195 
C 90.471973 140.704195 90.87443 140.537492 91.171121 140.240801 
C 91.467812 139.94411 91.634515 139.541653 91.634515 139.122069 
C 91.634515 138.702484 91.467812 138.300028 91.171121 138.003337 
C 90.87443 137.706645 90.471973 137.539943 90.052389 137.539943 
C 89.632804 137.539943 89.230348 137.706645 88.933657 138.003337 
C 88.636965 138.300028 88.470263 138.702484 88.470263 139.122069 
C 88.470263 139.541653 88.636965 139.94411 88.933657 140.240801 
C 89.230348 140.537492 89.632804 140.704195 90.052389 140.704195 
z
" clip-path="url(#p2088b99b71)" style="stroke: #000000"/>
    <path d="M 85.32574 132.16791 
C 85.824401 132.16791 86.302706 131.96979 86.655314 131.617183 
C 87.007921 131.264575 87.206041 130.78627 87.206041 130.287609 
C 87.206041 129.788947 87.007921 129.310642 86.655314 128.958035 
C 86.302706 128.605428 85.824401 128.407307 85.32574 128.407307 
C 84.827078 128.407307 84.348773 128.605428 83.996166 128.958035 
C 83.643558 129.310642 83.445438 129.788947 83.445438 130.287609 
C 83.445438 130.78627 83.643558 131.264575 83.996166 131.617183 
C 84.348773 131.96979 84.827078 132.16791 85.32574 132.16791 
z
" clip-path="url(#p2088b99b71)" style="stroke: #000000"/>
    <path d="M 77.438308 122.737443 
C 77.85763 122.737443 78.259835 122.570844 78.556341 122.274338 
C 78.852848 121.977832 79.019446 121.575627 79.019446 121.156304 
C 79.019446 120.736981 78.852848 120.334776 78.556341 120.03827 
C 78.259835 119.741764 77.85763 119.575165 77.438308 119.575165 
C 77.018985 119.575165 76.61678 119.741764 76.320274 120.03827 
C 76.023767 120.334776 75.857169 120.736981 75.857169 121.156304 
C 75.857169 121.575627 76.023767 121.977832 76.320274 122.274338 
C 76.61678 122.570844 77.018985 122.737443 77.438308 122.737443 
z
" clip-path="url(#p2088b99b71)" style="stroke: #000000"/>
    <path d="M 75.369492 111.053443 
C 75.480996 111.053443 75.587949 111.009142 75.666794 110.930296 
C 75.745639 110.851451 75.78994 110.744499 75.78994 110.632995 
C 75.78994 110.52149 75.745639 110.414538 75.666794 110.335693 
C 75.587949 110.256847 75.480996 110.212546 75.369492 110.212546 
C 75.257988 110.212546 75.151036 110.256847 75.07219 110.335693 
C 74.993345 110.414538 74.949044 110.52149 74.949044 110.632995 
C 74.949044 110.744499 74.993345 110.851451 75.07219 110.930296 
C 75.151036 111.009142 75.257988 111.053443 75.369492 111.053443 
z
" clip-path="url(#p2088b99b71)" style="stroke: #000000"/>
    <path d="M 77.136637 100.725994 
C 77.556222 100.725994 77.958678 100.559291 78.255369 100.2626 
C 78.552061 99.965909 78.718763 99.563453 78.718763 99.143868 
C 78.718763 98.724283 78.552061 98.321827 78.255369 98.025136 
C 77.958678 97.728445 77.556222 97.561742 77.136637 97.561742 
C 76.717053 97.561742 76.314596 97.728445 76.017905 98.025136 
C 75.721214 98.321827 75.554511 98.724283 75.554511 99.143868 
C 75.554511 99.563453 75.721214 99.965909 76.017905 100.2626 
C 76.314596 100.559291 76.717053 100.725994 77.136637 100.725994 
z
" clip-path="url(#p2088b99b71)" style="stroke: #000000"/>
    <path d="M 67.881423 88.736675 
C 68.260087 88.736675 68.623293 88.58623 68.891049 88.318474 
C 69.158805 88.050718 69.30925 87.687513 69.30925 87.308849 
C 69.30925 86.930185 69.158805 86.566979 68.891049 86.299223 
C 68.623293 86.031467 68.260087 85.881022 67.881423 85.881022 
C 67.502759 85.881022 67.139553 86.031467 66.871798 86.299223 
C 66.604042 86.566979 66.453597 86.930185 66.453597 87.308849 
C 66.453597 87.687513 66.604042 88.050718 66.871798 88.318474 
C 67.139553 88.58623 67.502759 88.736675 67.881423 88.736675 
z
" clip-path="url(#p2088b99b71)" style="stroke: #000000"/>
    <path d="M 71.207783 82.288162 
C 71.627368 82.288162 72.029824 82.121459 72.326516 81.824768 
C 72.623207 81.528077 72.78991 81.12562 72.78991 80.706036 
C 72.78991 80.286451 72.623207 79.883995 72.326516 79.587304 
C 72.029824 79.290612 71.627368 79.12391 71.207783 79.12391 
C 70.788199 79.12391 70.385743 79.290612 70.089051 79.587304 
C 69.79236 79.883995 69.625657 80.286451 69.625657 80.706036 
C 69.625657 81.12562 69.79236 81.528077 70.089051 81.824768 
C 70.385743 82.121459 70.788199 82.288162 71.207783 82.288162 
z
" clip-path="url(#p2088b99b71)" style="stroke: #000000"/>
    <path d="M 66.259092 69.815373 
C 66.678677 69.815373 67.081133 69.64867 67.377824 69.351979 
C 67.674515 69.055288 67.841218 68.652832 67.841218 68.233247 
C 67.841218 67.813662 67.674515 67.411206 67.377824 67.114515 
C 67.081133 66.817824 66.678677 66.651121 66.259092 66.651121 
C 65.839507 66.651121 65.437051 66.817824 65.14036 67.114515 
C 64.843668 67.411206 64.676966 67.813662 64.676966 68.233247 
C 64.676966 68.652832 64.843668 69.055288 65.14036 69.351979 
C 65.437051 69.64867 65.839507 69.815373 66.259092 69.815373 
z
" clip-path="url(#p2088b99b71)" style="stroke: #000000"/>
    <path d="M 58.648251 58.154711 
C 58.742014 58.154711 58.83195 58.117459 58.898251 58.051158 
C 58.964552 57.984857 59.001804 57.894921 59.001804 57.801158 
C 59.001804 57.707395 58.964552 57.617459 58.898251 57.551158 
C 58.83195 57.484857 58.742014 57.447605 58.648251 57.447605 
C 58.554487 57.447605 58.464552 57.484857 58.398251 57.551158 
C 58.33195 57.617459 58.294697 57.707395 58.294697 57.801158 
C 58.294697 57.894921 58.33195 57.984857 58.398251 58.051158 
C 58.464552 58.117459 58.554487 58.154711 58.648251 58.154711 
z
" clip-path="url(#p2088b99b71)" style="stroke: #000000"/>
    <path d="M 58.209221 48.182352 
C 58.302984 48.182352 58.39292 48.1451 58.459221 48.078799 
C 58.525521 48.012498 58.562774 47.922562 58.562774 47.828799 
C 58.562774 47.735035 58.525521 47.6451 58.459221 47.578799 
C 58.39292 47.512498 58.302984 47.475245 58.209221 47.475245 
C 58.115457 47.475245 58.025521 47.512498 57.959221 47.578799 
C 57.89292 47.6451 57.855667 47.735035 57.855667 47.828799 
C 57.855667 47.922562 57.89292 48.012498 57.959221 48.078799 
C 58.025521 48.1451 58.115457 48.182352 58.209221 48.182352 
z
" clip-path="url(#p2088b99b71)" style="stroke: #000000"/>
    <path d="M 57.175543 38.383928 
C 57.594077 38.383928 57.995526 38.217643 58.291475 37.921694 
C 58.587423 37.625746 58.753709 37.224297 58.753709 36.805762 
C 58.753709 36.387228 58.587423 35.985779 58.291475 35.689831 
C 57.995526 35.393882 57.594077 35.227597 57.175543 35.227597 
C 56.757008 35.227597 56.35556 35.393882 56.059611 35.689831 
C 55.763662 35.985779 55.597377 36.387228 55.597377 36.805762 
C 55.597377 37.224297 55.763662 37.625746 56.059611 37.921694 
C 56.35556 38.217643 56.757008 38.383928 57.175543 38.383928 
z
" clip-path="url(#p2088b99b71)" style="stroke: #000000"/>
    <path d="M 89.883824 173.535104 
C 90.303147 173.535104 90.705352 173.368505 91.001858 173.071999 
C 91.298364 172.775493 91.464962 172.373288 91.464962 171.953965 
C 91.464962 171.534642 91.298364 171.132437 91.001858 170.835931 
C 90.705352 170.539425 90.303147 170.372826 89.883824 170.372826 
C 89.464501 170.372826 89.062296 170.539425 88.76579 170.835931 
C 88.469284 171.132437 88.302685 171.534642 88.302685 171.953965 
C 88.302685 172.373288 88.469284 172.775493 88.76579 173.071999 
C 89.062296 173.368505 89.464501 173.535104 89.883824 173.535104 
z
" clip-path="url(#p2088b99b71)" style="stroke: #000000"/>
    <path d="M 85.081098 166.432077 
C 85.174861 166.432077 85.264797 166.394825 85.331098 166.328524 
C 85.397399 166.262223 85.434651 166.172287 85.434651 166.078524 
C 85.434651 165.984761 85.397399 165.894825 85.331098 165.828524 
C 85.264797 165.762223 85.174861 165.724971 85.081098 165.724971 
C 84.987335 165.724971 84.897399 165.762223 84.831098 165.828524 
C 84.764797 165.894825 84.727545 165.984761 84.727545 166.078524 
C 84.727545 166.172287 84.764797 166.262223 84.831098 166.328524 
C 84.897399 166.394825 84.987335 166.432077 85.081098 166.432077 
z
" clip-path="url(#p2088b99b71)" style="stroke: #000000"/>
    <path d="M 81.887285 154.826502 
C 82.30687 154.826502 82.709326 154.659799 83.006017 154.363108 
C 83.302708 154.066417 83.469411 153.663961 83.469411 153.244376 
C 83.469411 152.824791 83.302708 152.422335 83.006017 152.125644 
C 82.709326 151.828953 82.30687 151.66225 81.887285 151.66225 
C 81.4677 151.66225 81.065244 151.828953 80.768553 152.125644 
C 80.471862 152.422335 80.305159 152.824791 80.305159 153.244376 
C 80.305159 153.663961 80.471862 154.066417 80.768553 154.363108 
C 81.065244 154.659799 81.4677 154.826502 81.887285 154.826502 
z
" clip-path="url(#p2088b99b71)" style="stroke: #000000"/>
    <path d="M 77.832244 142.479601 
C 77.832244 142.479601 77.832244 142.479601 77.832244 142.479601 
C 77.832244 142.479601 77.832244 142.479601 77.832244 142.479601 
C 77.832244 142.479601 77.832244 142.479601 77.832244 142.479601 
C 77.832244 142.479601 77.832244 142.479601 77.832244 142.479601 
C 77.832244 142.479601 77.832244 142.479601 77.832244 142.479601 
C 77.832244 142.479601 77.832244 142.479601 77.832244 142.479601 
C 77.832244 142.479601 77.832244 142.479601 77.832244 142.479601 
C 77.832244 142.479601 77.832244 142.479601 77.832244 142.479601 
z
" clip-path="url(#p2088b99b71)" style="stroke: #000000"/>
    <path d="M 74.754084 137.93627 
C 75.173669 137.93627 75.576125 137.769567 75.872817 137.472876 
C 76.169508 137.176184 76.336211 136.773728 76.336211 136.354143 
C 76.336211 135.934559 76.169508 135.532103 75.872817 135.235411 
C 75.576125 134.93872 75.173669 134.772017 74.754084 134.772017 
C 74.3345 134.772017 73.932044 134.93872 73.635352 135.235411 
C 73.338661 135.532103 73.171958 135.934559 73.171958 136.354143 
C 73.171958 136.773728 73.338661 137.176184 73.635352 137.472876 
C 73.932044 137.769567 74.3345 137.93627 74.754084 137.93627 
z
" clip-path="url(#p2088b99b71)" style="stroke: #000000"/>
    <path d="M 71.557146 125.712889 
C 71.976469 125.712889 72.378674 125.54629 72.67518 125.249784 
C 72.971686 124.953278 73.138285 124.551073 73.138285 124.13175 
C 73.138285 123.712427 72.971686 123.310222 72.67518 123.013716 
C 72.378674 122.71721 71.976469 122.550611 71.557146 122.550611 
C 71.137823 122.550611 70.735618 122.71721 70.439112 123.013716 
C 70.142606 123.310222 69.976007 123.712427 69.976007 124.13175 
C 69.976007 124.551073 70.142606 124.953278 70.439112 125.249784 
C 70.735618 125.54629 71.137823 125.712889 71.557146 125.712889 
z
" clip-path="url(#p2088b99b71)" style="stroke: #000000"/>
    <path d="M 68.837267 116.270797 
C 69.237505 116.270797 69.621404 116.111781 69.904415 115.82877 
C 70.187426 115.545759 70.346442 115.16186 70.346442 114.761622 
C 70.346442 114.361385 70.187426 113.977486 69.904415 113.694475 
C 69.621404 113.411464 69.237505 113.252448 68.837267 113.252448 
C 68.437029 113.252448 68.05313 113.411464 67.770119 113.694475 
C 67.487109 113.977486 67.328092 114.361385 67.328092 114.761622 
C 67.328092 115.16186 67.487109 115.545759 67.770119 115.82877 
C 68.05313 116.111781 68.437029 116.270797 68.837267 116.270797 
z
" clip-path="url(#p2088b99b71)" style="stroke: #000000"/>
    <path d="M 66.296758 105.590597 
C 66.681333 105.590597 67.050207 105.437804 67.322143 105.165869 
C 67.594078 104.893934 67.746871 104.525059 67.746871 104.140485 
C 67.746871 103.755911 67.594078 103.387036 67.322143 103.115101 
C 67.050207 102.843166 66.681333 102.690373 66.296758 102.690373 
C 65.912184 102.690373 65.543309 102.843166 65.271374 103.115101 
C 64.999439 103.387036 64.846646 103.755911 64.846646 104.140485 
C 64.846646 104.525059 64.999439 104.893934 65.271374 105.165869 
C 65.543309 105.437804 65.912184 105.590597 66.296758 105.590597 
z
" clip-path="url(#p2088b99b71)" style="stroke: #000000"/>
    <path d="M 61.782798 90.206676 
C 62.202383 90.206676 62.604839 90.039973 62.90153 89.743282 
C 63.198221 89.44659 63.364924 89.044134 63.364924 88.624549 
C 63.364924 88.204965 63.198221 87.802509 62.90153 87.505817 
C 62.604839 87.209126 62.202383 87.042423 61.782798 87.042423 
C 61.363213 87.042423 60.960757 87.209126 60.664066 87.505817 
C 60.367374 87.802509 60.200672 88.204965 60.200672 88.624549 
C 60.200672 89.044134 60.367374 89.44659 60.664066 89.743282 
C 60.960757 90.039973 61.363213 90.206676 61.782798 90.206676 
z
" clip-path="url(#p2088b99b71)" style="stroke: #000000"/>
    <path d="M 56.701706 79.426486 
C 57.121291 79.426486 57.523747 79.259784 57.820438 78.963092 
C 58.117129 78.666401 58.283832 78.263945 58.283832 77.84436 
C 58.283832 77.424776 58.117129 77.022319 57.820438 76.725628 
C 57.523747 76.428937 57.121291 76.262234 56.701706 76.262234 
C 56.282121 76.262234 55.879665 76.428937 55.582974 76.725628 
C 55.286283 77.022319 55.11958 77.424776 55.11958 77.84436 
C 55.11958 78.263945 55.286283 78.666401 55.582974 78.963092 
C 55.879665 79.259784 56.282121 79.426486 56.701706 79.426486 
z
" clip-path="url(#p2088b99b71)" style="stroke: #000000"/>
    <path d="M 54.20837 71.354576 
C 54.20837 71.354576 54.20837 71.354576 54.20837 71.354576 
C 54.20837 71.354576 54.20837 71.354576 54.20837 71.354576 
C 54.20837 71.354576 54.20837 71.354576 54.20837 71.354576 
C 54.20837 71.354576 54.20837 71.354576 54.20837 71.354576 
C 54.20837 71.354576 54.20837 71.354576 54.20837 71.354576 
C 54.20837 71.354576 54.20837 71.354576 54.20837 71.354576 
C 54.20837 71.354576 54.20837 71.354576 54.20837 71.354576 
C 54.20837 71.354576 54.20837 71.354576 54.20837 71.354576 
z
" clip-path="url(#p2088b99b71)" style="stroke: #000000"/>
    <path d="M 49.938638 65.588818 
C 50.050142 65.588818 50.157094 65.544517 50.23594 65.465672 
C 50.314785 65.386827 50.359086 65.279874 50.359086 65.16837 
C 50.359086 65.056866 50.314785 64.949914 50.23594 64.871068 
C 50.157094 64.792223 50.050142 64.747922 49.938638 64.747922 
C 49.827134 64.747922 49.720181 64.792223 49.641336 64.871068 
C 49.562491 64.949914 49.51819 65.056866 49.51819 65.16837 
C 49.51819 65.279874 49.562491 65.386827 49.641336 65.465672 
C 49.720181 65.544517 49.827134 65.588818 49.938638 65.588818 
z
" clip-path="url(#p2088b99b71)" style="stroke: #000000"/>
    <path d="M 47.424474 54.604357 
C 47.843797 54.604357 48.246002 54.437758 48.542508 54.141252 
C 48.839014 53.844746 49.005613 53.442541 49.005613 53.023218 
C 49.005613 52.603895 48.839014 52.20169 48.542508 51.905184 
C 48.246002 51.608678 47.843797 51.442079 47.424474 51.442079 
C 47.005151 51.442079 46.602946 51.608678 46.30644 51.905184 
C 46.009934 52.20169 45.843335 52.603895 45.843335 53.023218 
C 45.843335 53.442541 46.009934 53.844746 46.30644 54.141252 
C 46.602946 54.437758 47.005151 54.604357 47.424474 54.604357 
z
" clip-path="url(#p2088b99b71)" style="stroke: #000000"/>
    <path d="M 42.548193 44.920818 
C 42.960805 44.920818 43.356573 44.756886 43.648333 44.465125 
C 43.940093 44.173365 44.104026 43.777597 44.104026 43.364986 
C 44.104026 42.952374 43.940093 42.556607 43.648333 42.264846 
C 43.356573 41.973086 42.960805 41.809153 42.548193 41.809153 
C 42.135582 41.809153 41.739814 41.973086 41.448054 42.264846 
C 41.156293 42.556607 40.992361 42.952374 40.992361 43.364986 
C 40.992361 43.777597 41.156293 44.173365 41.448054 44.465125 
C 41.739814 44.756886 42.135582 44.920818 42.548193 44.920818 
z
" clip-path="url(#p2088b99b71)" style="stroke: #000000"/>
    <path d="M 79.346657 176.870475 
C 79.346657 176.870475 79.346657 176.870475 79.346657 176.870475 
C 79.346657 176.870475 79.346657 176.870475 79.346657 176.870475 
C 79.346657 176.870475 79.346657 176.870475 79.346657 176.870475 
C 79.346657 176.870475 79.346657 176.870475 79.346657 176.870475 
C 79.346657 176.870475 79.346657 176.870475 79.346657 176.870475 
C 79.346657 176.870475 79.346657 176.870475 79.346657 176.870475 
C 79.346657 176.870475 79.346657 176.870475 79.346657 176.870475 
C 79.346657 176.870475 79.346657 176.870475 79.346657 176.870475 
z
" clip-path="url(#p2088b99b71)" style="stroke: #000000"/>
    <path d="M 74.552885 169.891541 
C 74.972208 169.891541 75.374413 169.724943 75.670919 169.428436 
C 75.967425 169.13193 76.134024 168.729725 76.134024 168.310402 
C 76.134024 167.89108 75.967425 167.488875 75.670919 167.192369 
C 75.374413 166.895862 74.972208 166.729264 74.552885 166.729264 
C 74.133562 166.729264 73.731357 166.895862 73.434851 167.192369 
C 73.138345 167.488875 72.971746 167.89108 72.971746 168.310402 
C 72.971746 168.729725 73.138345 169.13193 73.434851 169.428436 
C 73.731357 169.724943 74.133562 169.891541 74.552885 169.891541 
z
" clip-path="url(#p2088b99b71)" style="stroke: #000000"/>
    <path d="M 75.760801 161.231726 
C 75.938842 161.231726 76.109615 161.160989 76.235508 161.035096 
C 76.361402 160.909202 76.432139 160.738429 76.432139 160.560388 
C 76.432139 160.382348 76.361402 160.211575 76.235508 160.085681 
C 76.109615 159.959787 75.938842 159.889051 75.760801 159.889051 
C 75.58276 159.889051 75.411988 159.959787 75.286094 160.085681 
C 75.1602 160.211575 75.089464 160.382348 75.089464 160.560388 
C 75.089464 160.738429 75.1602 160.909202 75.286094 161.035096 
C 75.411988 161.160989 75.58276 161.231726 75.760801 161.231726 
z
" clip-path="url(#p2088b99b71)" style="stroke: #000000"/>
    <path d="M 66.453095 146.772091 
C 66.453095 146.772091 66.453095 146.772091 66.453095 146.772091 
C 66.453095 146.772091 66.453095 146.772091 66.453095 146.772091 
C 66.453095 146.772091 66.453095 146.772091 66.453095 146.772091 
C 66.453095 146.772091 66.453095 146.772091 66.453095 146.772091 
C 66.453095 146.772091 66.453095 146.772091 66.453095 146.772091 
C 66.453095 146.772091 66.453095 146.772091 66.453095 146.772091 
C 66.453095 146.772091 66.453095 146.772091 66.453095 146.772091 
C 66.453095 146.772091 66.453095 146.772091 66.453095 146.772091 
z
" clip-path="url(#p2088b99b71)" style="stroke: #000000"/>
    <path d="M 64.407072 136.903828 
C 64.826657 136.903828 65.229113 136.737125 65.525804 136.440434 
C 65.822495 136.143743 65.989198 135.741287 65.989198 135.321702 
C 65.989198 134.902117 65.822495 134.499661 65.525804 134.20297 
C 65.229113 133.906279 64.826657 133.739576 64.407072 133.739576 
C 63.987487 133.739576 63.585031 133.906279 63.28834 134.20297 
C 62.991649 134.499661 62.824946 134.902117 62.824946 135.321702 
C 62.824946 135.741287 62.991649 136.143743 63.28834 136.440434 
C 63.585031 136.737125 63.987487 136.903828 64.407072 136.903828 
z
" clip-path="url(#p2088b99b71)" style="stroke: #000000"/>
    <path d="M 62.823399 124.897696 
C 63.242984 124.897696 63.64544 124.730993 63.942131 124.434302 
C 64.238823 124.13761 64.405525 123.735154 64.405525 123.31557 
C 64.405525 122.895985 64.238823 122.493529 63.942131 122.196837 
C 63.64544 121.900146 63.242984 121.733443 62.823399 121.733443 
C 62.403815 121.733443 62.001358 121.900146 61.704667 122.196837 
C 61.407976 122.493529 61.241273 122.895985 61.241273 123.31557 
C 61.241273 123.735154 61.407976 124.13761 61.704667 124.434302 
C 62.001358 124.730993 62.403815 124.897696 62.823399 124.897696 
z
" clip-path="url(#p2088b99b71)" style="stroke: #000000"/>
    <path d="M 59.044499 120.500012 
C 59.539378 120.500012 60.014055 120.303395 60.363987 119.953463 
C 60.713919 119.60353 60.910537 119.128854 60.910537 118.633975 
C 60.910537 118.139096 60.713919 117.664419 60.363987 117.314487 
C 60.014055 116.964554 59.539378 116.767937 59.044499 116.767937 
C 58.54962 116.767937 58.074943 116.964554 57.725011 117.314487 
C 57.375079 117.664419 57.178461 118.139096 57.178461 118.633975 
C 57.178461 119.128854 57.375079 119.60353 57.725011 119.953463 
C 58.074943 120.303395 58.54962 120.500012 59.044499 120.500012 
z
" clip-path="url(#p2088b99b71)" style="stroke: #000000"/>
    <path d="M 51.47744 108.350386 
C 51.907361 108.350386 52.319732 108.179577 52.623733 107.875576 
C 52.927733 107.571576 53.098543 107.159205 53.098543 106.729284 
C 53.098543 106.299362 52.927733 105.886991 52.623733 105.582991 
C 52.319732 105.27899 51.907361 105.108181 51.47744 105.108181 
C 51.047518 105.108181 50.635148 105.27899 50.331147 105.582991 
C 50.027147 105.886991 49.856337 106.299362 49.856337 106.729284 
C 49.856337 107.159205 50.027147 107.571576 50.331147 107.875576 
C 50.635148 108.179577 51.047518 108.350386 51.47744 108.350386 
z
" clip-path="url(#p2088b99b71)" style="stroke: #000000"/>
    <path d="M 47.456007 96.505149 
C 47.875592 96.505149 48.278048 96.338446 48.574739 96.041755 
C 48.871431 95.745063 49.038134 95.342607 49.038134 94.923022 
C 49.038134 94.503438 48.871431 94.100982 48.574739 93.80429 
C 48.278048 93.507599 47.875592 93.340896 47.456007 93.340896 
C 47.036423 93.340896 46.633967 93.507599 46.337275 93.80429 
C 46.040584 94.100982 45.873881 94.503438 45.873881 94.923022 
C 45.873881 95.342607 46.040584 95.745063 46.337275 96.041755 
C 46.633967 96.338446 47.036423 96.505149 47.456007 96.505149 
z
" clip-path="url(#p2088b99b71)" style="stroke: #000000"/>
    <path d="M 45.876106 86.221225 
C 46.29569 86.221225 46.698147 86.054522 46.994838 85.757831 
C 47.291529 85.46114 47.458232 85.058684 47.458232 84.639099 
C 47.458232 84.219514 47.291529 83.817058 46.994838 83.520367 
C 46.698147 83.223676 46.29569 83.056973 45.876106 83.056973 
C 45.456521 83.056973 45.054065 83.223676 44.757374 83.520367 
C 44.460682 83.817058 44.29398 84.219514 44.29398 84.639099 
C 44.29398 85.058684 44.460682 85.46114 44.757374 85.757831 
C 45.054065 86.054522 45.456521 86.221225 45.876106 86.221225 
z
" clip-path="url(#p2088b99b71)" style="stroke: #000000"/>
    <path d="M 42.964049 75.974375 
C 42.964049 75.974375 42.964049 75.974375 42.964049 75.974375 
C 42.964049 75.974375 42.964049 75.974375 42.964049 75.974375 
C 42.964049 75.974375 42.964049 75.974375 42.964049 75.974375 
C 42.964049 75.974375 42.964049 75.974375 42.964049 75.974375 
C 42.964049 75.974375 42.964049 75.974375 42.964049 75.974375 
C 42.964049 75.974375 42.964049 75.974375 42.964049 75.974375 
C 42.964049 75.974375 42.964049 75.974375 42.964049 75.974375 
C 42.964049 75.974375 42.964049 75.974375 42.964049 75.974375 
z
" clip-path="url(#p2088b99b71)" style="stroke: #000000"/>
    <path d="M 42.798653 68.215569 
C 42.892416 68.215569 42.982352 68.178316 43.048653 68.112016 
C 43.114953 68.045715 43.152206 67.955779 43.152206 67.862016 
C 43.152206 67.768252 43.114953 67.678316 43.048653 67.612016 
C 42.982352 67.545715 42.892416 67.508462 42.798653 67.508462 
C 42.704889 67.508462 42.614953 67.545715 42.548653 67.612016 
C 42.482352 67.678316 42.445099 67.768252 42.445099 67.862016 
C 42.445099 67.955779 42.482352 68.045715 42.548653 68.112016 
C 42.614953 68.178316 42.704889 68.215569 42.798653 68.215569 
z
" clip-path="url(#p2088b99b71)" style="stroke: #000000"/>
    <path d="M 40.015898 59.536147 
C 40.383791 59.536147 40.736664 59.389982 40.996804 59.129843 
C 41.256943 58.869704 41.403108 58.51683 41.403108 58.148938 
C 41.403108 57.781045 41.256943 57.428172 40.996804 57.168032 
C 40.736664 56.907893 40.383791 56.761728 40.015898 56.761728 
C 39.648006 56.761728 39.295132 56.907893 39.034993 57.168032 
C 38.774854 57.428172 38.628689 57.781045 38.628689 58.148938 
C 38.628689 58.51683 38.774854 58.869704 39.034993 59.129843 
C 39.295132 59.389982 39.648006 59.536147 40.015898 59.536147 
z
" clip-path="url(#p2088b99b71)" style="stroke: #000000"/>
    <path d="M 64.609616 172.675576 
C 64.70338 172.675576 64.793315 172.638323 64.859616 172.572023 
C 64.925917 172.505722 64.96317 172.415786 64.96317 172.322023 
C 64.96317 172.228259 64.925917 172.138323 64.859616 172.072023 
C 64.793315 172.005722 64.70338 171.968469 64.609616 171.968469 
C 64.515853 171.968469 64.425917 172.005722 64.359616 172.072023 
C 64.293315 172.138323 64.256063 172.228259 64.256063 172.322023 
C 64.256063 172.415786 64.293315 172.505722 64.359616 172.572023 
C 64.425917 172.638323 64.515853 172.675576 64.609616 172.675576 
z
" clip-path="url(#p2088b99b71)" style="stroke: #000000"/>
    <path d="M 60.815897 160.115715 
C 60.815897 160.115715 60.815897 160.115715 60.815897 160.115715 
C 60.815897 160.115715 60.815897 160.115715 60.815897 160.115715 
C 60.815897 160.115715 60.815897 160.115715 60.815897 160.115715 
C 60.815897 160.115715 60.815897 160.115715 60.815897 160.115715 
C 60.815897 160.115715 60.815897 160.115715 60.815897 160.115715 
C 60.815897 160.115715 60.815897 160.115715 60.815897 160.115715 
C 60.815897 160.115715 60.815897 160.115715 60.815897 160.115715 
C 60.815897 160.115715 60.815897 160.115715 60.815897 160.115715 
z
" clip-path="url(#p2088b99b71)" style="stroke: #000000"/>
    <path d="M 56.520063 145.144172 
C 56.520063 145.144172 56.520063 145.144172 56.520063 145.144172 
C 56.520063 145.144172 56.520063 145.144172 56.520063 145.144172 
C 56.520063 145.144172 56.520063 145.144172 56.520063 145.144172 
C 56.520063 145.144172 56.520063 145.144172 56.520063 145.144172 
C 56.520063 145.144172 56.520063 145.144172 56.520063 145.144172 
C 56.520063 145.144172 56.520063 145.144172 56.520063 145.144172 
C 56.520063 145.144172 56.520063 145.144172 56.520063 145.144172 
C 56.520063 145.144172 56.520063 145.144172 56.520063 145.144172 
z
" clip-path="url(#p2088b99b71)" style="stroke: #000000"/>
    <path d="M 52.406724 141.944796 
C 52.783235 141.944796 53.144375 141.795207 53.410608 141.528974 
C 53.676841 141.262741 53.82643 140.9016 53.82643 140.52509 
C 53.82643 140.14858 53.676841 139.787439 53.410608 139.521206 
C 53.144375 139.254973 52.783235 139.105384 52.406724 139.105384 
C 52.030214 139.105384 51.669074 139.254973 51.402841 139.521206 
C 51.136608 139.787439 50.987019 140.14858 50.987019 140.52509 
C 50.987019 140.9016 51.136608 141.262741 51.402841 141.528974 
C 51.669074 141.795207 52.030214 141.944796 52.406724 141.944796 
z
" clip-path="url(#p2088b99b71)" style="stroke: #000000"/>
    <path d="M 47.460417 129.512792 
C 47.880002 129.512792 48.282458 129.346089 48.579149 129.049398 
C 48.875841 128.752706 49.042543 128.35025 49.042543 127.930665 
C 49.042543 127.511081 48.875841 127.108625 48.579149 126.811933 
C 48.282458 126.515242 47.880002 126.348539 47.460417 126.348539 
C 47.040832 126.348539 46.638376 126.515242 46.341685 126.811933 
C 46.044994 127.108625 45.878291 127.511081 45.878291 127.930665 
C 45.878291 128.35025 46.044994 128.752706 46.341685 129.049398 
C 46.638376 129.346089 47.040832 129.512792 47.460417 129.512792 
z
" clip-path="url(#p2088b99b71)" style="stroke: #000000"/>
    <path d="M 47.015062 118.265231 
C 47.434647 118.265231 47.837103 118.098528 48.133794 117.801837 
C 48.430486 117.505146 48.597188 117.10269 48.597188 116.683105 
C 48.597188 116.26352 48.430486 115.861064 48.133794 115.564373 
C 47.837103 115.267682 47.434647 115.100979 47.015062 115.100979 
C 46.595477 115.100979 46.193021 115.267682 45.89633 115.564373 
C 45.599639 115.861064 45.432936 116.26352 45.432936 116.683105 
C 45.432936 117.10269 45.599639 117.505146 45.89633 117.801837 
C 46.193021 118.098528 46.595477 118.265231 47.015062 118.265231 
z
" clip-path="url(#p2088b99b71)" style="stroke: #000000"/>
    <path d="M 42.29494 112.12499 
C 42.714525 112.12499 43.116981 111.958287 43.413672 111.661596 
C 43.710364 111.364905 43.877066 110.962449 43.877066 110.542864 
C 43.877066 110.123279 43.710364 109.720823 43.413672 109.424132 
C 43.116981 109.12744 42.714525 108.960738 42.29494 108.960738 
C 41.875356 108.960738 41.472899 109.12744 41.176208 109.424132 
C 40.879517 109.720823 40.712814 110.123279 40.712814 110.542864 
C 40.712814 110.962449 40.879517 111.364905 41.176208 111.661596 
C 41.472899 111.958287 41.875356 112.12499 42.29494 112.12499 
z
" clip-path="url(#p2088b99b71)" style="stroke: #000000"/>
    <path d="M 34.702251 99.10536 
C 34.936565 99.10536 35.161315 99.012266 35.327 98.84658 
C 35.492686 98.680895 35.58578 98.456145 35.58578 98.22183 
C 35.58578 97.987516 35.492686 97.762766 35.327 97.59708 
C 35.161315 97.431395 34.936565 97.338301 34.702251 97.338301 
C 34.467936 97.338301 34.243186 97.431395 34.077501 97.59708 
C 33.911815 97.762766 33.818721 97.987516 33.818721 98.22183 
C 33.818721 98.456145 33.911815 98.680895 34.077501 98.84658 
C 34.243186 99.012266 34.467936 99.10536 34.702251 99.10536 
z
" clip-path="url(#p2088b99b71)" style="stroke: #000000"/>
    <path d="M 38.797752 90.879667 
C 38.797752 90.879667 38.797752 90.879667 38.797752 90.879667 
C 38.797752 90.879667 38.797752 90.879667 38.797752 90.879667 
C 38.797752 90.879667 38.797752 90.879667 38.797752 90.879667 
C 38.797752 90.879667 38.797752 90.879667 38.797752 90.879667 
C 38.797752 90.879667 38.797752 90.879667 38.797752 90.879667 
C 38.797752 90.879667 38.797752 90.879667 38.797752 90.879667 
C 38.797752 90.879667 38.797752 90.879667 38.797752 90.879667 
C 38.797752 90.879667 38.797752 90.879667 38.797752 90.879667 
z
" clip-path="url(#p2088b99b71)" style="stroke: #000000"/>
    <path d="M 51.933185 173.05846 
C 52.352508 173.05846 52.754713 172.891861 53.051219 172.595355 
C 53.347725 172.298849 53.514324 171.896644 53.514324 171.477321 
C 53.514324 171.057998 53.347725 170.655793 53.051219 170.359287 
C 52.754713 170.062781 52.352508 169.896182 51.933185 169.896182 
C 51.513862 169.896182 51.111657 170.062781 50.815151 170.359287 
C 50.518645 170.655793 50.352046 171.057998 50.352046 171.477321 
C 50.352046 171.896644 50.518645 172.298849 50.815151 172.595355 
C 51.111657 172.891861 51.513862 173.05846 51.933185 173.05846 
z
" clip-path="url(#p2088b99b71)" style="stroke: #000000"/>
    <path d="M 48.316854 167.634129 
C 48.736176 167.634129 49.138381 167.46753 49.434888 167.171024 
C 49.731394 166.874518 49.897992 166.472313 49.897992 166.05299 
C 49.897992 165.633667 49.731394 165.231462 49.434888 164.934956 
C 49.138381 164.63845 48.736176 164.471851 48.316854 164.471851 
C 47.897531 164.471851 47.495326 164.63845 47.19882 164.934956 
C 46.902313 165.231462 46.735715 165.633667 46.735715 166.05299 
C 46.735715 166.472313 46.902313 166.874518 47.19882 167.171024 
C 47.495326 167.46753 47.897531 167.634129 48.316854 167.634129 
z
" clip-path="url(#p2088b99b71)" style="stroke: #000000"/>
    <path d="M 47.795801 155.557831 
C 47.889565 155.557831 47.979501 155.520579 48.045801 155.454278 
C 48.112102 155.387977 48.149355 155.298042 48.149355 155.204278 
C 48.149355 155.110515 48.112102 155.020579 48.045801 154.954278 
C 47.979501 154.887977 47.889565 154.850725 47.795801 154.850725 
C 47.702038 154.850725 47.612102 154.887977 47.545801 154.954278 
C 47.479501 155.020579 47.442248 155.110515 47.442248 155.204278 
C 47.442248 155.298042 47.479501 155.387977 47.545801 155.454278 
C 47.612102 155.520579 47.702038 155.557831 47.795801 155.557831 
z
" clip-path="url(#p2088b99b71)" style="stroke: #000000"/>
    <path d="M 43.399957 143.900126 
C 43.493721 143.900126 43.583656 143.862873 43.649957 143.796573 
C 43.716258 143.730272 43.75351 143.640336 43.75351 143.546573 
C 43.75351 143.452809 43.716258 143.362873 43.649957 143.296573 
C 43.583656 143.230272 43.493721 143.193019 43.399957 143.193019 
C 43.306194 143.193019 43.216258 143.230272 43.149957 143.296573 
C 43.083656 143.362873 43.046404 143.452809 43.046404 143.546573 
C 43.046404 143.640336 43.083656 143.730272 43.149957 143.796573 
C 43.216258 143.862873 43.306194 143.900126 43.399957 143.900126 
z
" clip-path="url(#p2088b99b71)" style="stroke: #000000"/>
    <path d="M 40.49137 136.569479 
C 40.585133 136.569479 40.675069 136.532226 40.74137 136.465926 
C 40.807671 136.399625 40.844923 136.309689 40.844923 136.215926 
C 40.844923 136.122162 40.807671 136.032226 40.74137 135.965926 
C 40.675069 135.899625 40.585133 135.862372 40.49137 135.862372 
C 40.397606 135.862372 40.307671 135.899625 40.24137 135.965926 
C 40.175069 136.032226 40.137817 136.122162 40.137817 136.215926 
C 40.137817 136.309689 40.175069 136.399625 40.24137 136.465926 
C 40.307671 136.532226 40.397606 136.569479 40.49137 136.569479 
z
" clip-path="url(#p2088b99b71)" style="stroke: #000000"/>
    <path d="M 36.844904 124.430671 
C 37.264227 124.430671 37.666432 124.264072 37.962938 123.967566 
C 38.259444 123.67106 38.426043 123.268855 38.426043 122.849532 
C 38.426043 122.430209 38.259444 122.028004 37.962938 121.731498 
C 37.666432 121.434992 37.264227 121.268394 36.844904 121.268394 
C 36.425581 121.268394 36.023376 121.434992 35.72687 121.731498 
C 35.430364 122.028004 35.263765 122.430209 35.263765 122.849532 
C 35.263765 123.268855 35.430364 123.67106 35.72687 123.967566 
C 36.023376 124.264072 36.425581 124.430671 36.844904 124.430671 
z
" clip-path="url(#p2088b99b71)" style="stroke: #000000"/>
    <path d="M 31.759588 114.931525 
C 32.178911 114.931525 32.581116 114.764926 32.877622 114.46842 
C 33.174128 114.171914 33.340727 113.769709 33.340727 113.350386 
C 33.340727 112.931063 33.174128 112.528858 32.877622 112.232352 
C 32.581116 111.935846 32.178911 111.769247 31.759588 111.769247 
C 31.340265 111.769247 30.93806 111.935846 30.641554 112.232352 
C 30.345048 112.528858 30.178449 112.931063 30.178449 113.350386 
C 30.178449 113.769709 30.345048 114.171914 30.641554 114.46842 
C 30.93806 114.764926 31.340265 114.931525 31.759588 114.931525 
z
" clip-path="url(#p2088b99b71)" style="stroke: #000000"/>
    <path d="M 30.813978 104.256607 
C 30.813978 104.256607 30.813978 104.256607 30.813978 104.256607 
C 30.813978 104.256607 30.813978 104.256607 30.813978 104.256607 
C 30.813978 104.256607 30.813978 104.256607 30.813978 104.256607 
C 30.813978 104.256607 30.813978 104.256607 30.813978 104.256607 
C 30.813978 104.256607 30.813978 104.256607 30.813978 104.256607 
C 30.813978 104.256607 30.813978 104.256607 30.813978 104.256607 
C 30.813978 104.256607 30.813978 104.256607 30.813978 104.256607 
C 30.813978 104.256607 30.813978 104.256607 30.813978 104.256607 
z
" clip-path="url(#p2088b99b71)" style="stroke: #000000"/>
    <path d="M 39.87788 168.61765 
C 39.87788 168.61765 39.87788 168.61765 39.87788 168.61765 
C 39.87788 168.61765 39.87788 168.61765 39.87788 168.61765 
C 39.87788 168.61765 39.87788 168.61765 39.87788 168.61765 
C 39.87788 168.61765 39.87788 168.61765 39.87788 168.61765 
C 39.87788 168.61765 39.87788 168.61765 39.87788 168.61765 
C 39.87788 168.61765 39.87788 168.61765 39.87788 168.61765 
C 39.87788 168.61765 39.87788 168.61765 39.87788 168.61765 
C 39.87788 168.61765 39.87788 168.61765 39.87788 168.61765 
z
" clip-path="url(#p2088b99b71)" style="stroke: #000000"/>
    <path d="M 42.831574 162.718097 
C 43.251158 162.718097 43.653615 162.551394 43.950306 162.254703 
C 44.246997 161.958011 44.4137 161.555555 44.4137 161.135971 
C 44.4137 160.716386 44.246997 160.31393 43.950306 160.017238 
C 43.653615 159.720547 43.251158 159.553844 42.831574 159.553844 
C 42.411989 159.553844 42.009533 159.720547 41.712842 160.017238 
C 41.41615 160.31393 41.249448 160.716386 41.249448 161.135971 
C 41.249448 161.555555 41.41615 161.958011 41.712842 162.254703 
C 42.009533 162.551394 42.411989 162.718097 42.831574 162.718097 
z
" clip-path="url(#p2088b99b71)" style="stroke: #000000"/>
    <path d="M 33.591296 147.615811 
C 34.010619 147.615811 34.412824 147.449212 34.70933 147.152706 
C 35.005836 146.8562 35.172435 146.453995 35.172435 146.034672 
C 35.172435 145.615349 35.005836 145.213144 34.70933 144.916638 
C 34.412824 144.620132 34.010619 144.453533 33.591296 144.453533 
C 33.171973 144.453533 32.769768 144.620132 32.473262 144.916638 
C 32.176756 145.213144 32.010157 145.615349 32.010157 146.034672 
C 32.010157 146.453995 32.176756 146.8562 32.473262 147.152706 
C 32.769768 147.449212 33.171973 147.615811 33.591296 147.615811 
z
" clip-path="url(#p2088b99b71)" style="stroke: #000000"/>
    <path d="M 28.625238 137.823129 
C 28.625238 137.823129 28.625238 137.823129 28.625238 137.823129 
C 28.625238 137.823129 28.625238 137.823129 28.625238 137.823129 
C 28.625238 137.823129 28.625238 137.823129 28.625238 137.823129 
C 28.625238 137.823129 28.625238 137.823129 28.625238 137.823129 
C 28.625238 137.823129 28.625238 137.823129 28.625238 137.823129 
C 28.625238 137.823129 28.625238 137.823129 28.625238 137.823129 
C 28.625238 137.823129 28.625238 137.823129 28.625238 137.823129 
C 28.625238 137.823129 28.625238 137.823129 28.625238 137.823129 
z
" clip-path="url(#p2088b99b71)" style="stroke: #000000"/>
   </g>
   <g id="matplotlib.axis_1">
    <g id="xtick_1">
     <g id="line2d_1">
      <defs>
       <path id="ma5aa0ecefc" d="M 0 0 
L 0 3.5 
" style="stroke: #000000; stroke-width: 0.8"/>
      </defs>
      <g>
       <use xlink:href="#ma5aa0ecefc" x="18" y="189" style="stroke: #000000; stroke-width: 0.8"/>
      </g>
     </g>
     <g id="text_1">
      <!-- 10 -->
      <g transform="translate(7.447656 203.598437)scale(0.1 -0.1)">
       <defs>
        <path id="DejaVuSans-2212" d="M 678 2272 
L 4684 2272 
L 4684 1741 
L 678 1741 
L 678 2272 
z
" transform="scale(0.015625)"/>
        <path id="DejaVuSans-31" d="M 794 531 
L 1825 531 
L 1825 4091 
L 703 3866 
L 703 4441 
L 1819 4666 
L 2450 4666 
L 2450 531 
L 3481 531 
L 3481 0 
L 794 0 
L 794 531 
z
" transform="scale(0.015625)"/>
        <path id="DejaVuSans-30" d="M 2034 4250 
Q 1547 4250 1301 3770 
Q 1056 3291 1056 2328 
Q 1056 1369 1301 889 
Q 1547 409 2034 409 
Q 2525 409 2770 889 
Q 3016 1369 3016 2328 
Q 3016 3291 2770 3770 
Q 2525 4250 2034 4250 
z
M 2034 4750 
Q 2819 4750 3233 4129 
Q 3647 3509 3647 2328 
Q 3647 1150 3233 529 
Q 2819 -91 2034 -91 
Q 1250 -91 836 529 
Q 422 1150 422 2328 
Q 422 3509 836 4129 
Q 1250 4750 2034 4750 
z
" transform="scale(0.015625)"/>
       </defs>
       <use xlink:href="#DejaVuSans-2212"/>
       <use xlink:href="#DejaVuSans-31" x="83.789062"/>
       <use xlink:href="#DejaVuSans-30" x="147.412109"/>
      </g>
     </g>
    </g>
    <g id="xtick_2">
     <g id="line2d_2">
      <g>
       <use xlink:href="#ma5aa0ecefc" x="73.8" y="189" style="stroke: #000000; stroke-width: 0.8"/>
      </g>
     </g>
     <g id="text_2">
      <!-- 0 -->
      <g transform="translate(70.61875 203.598437)scale(0.1 -0.1)">
       <use xlink:href="#DejaVuSans-30"/>
      </g>
     </g>
    </g>
    <g id="xtick_3">
     <g id="line2d_3">
      <g>
       <use xlink:href="#ma5aa0ecefc" x="129.6" y="189" style="stroke: #000000; stroke-width: 0.8"/>
      </g>
     </g>
     <g id="text_3">
      <!-- 10 -->
      <g transform="translate(123.2375 203.598437)scale(0.1 -0.1)">
       <use xlink:href="#DejaVuSans-31"/>
       <use xlink:href="#DejaVuSans-30" x="63.623047"/>
      </g>
     </g>
    </g>
   </g>
   <g id="matplotlib.axis_2">
    <g id="ytick_1">
     <g id="line2d_4">
      <defs>
       <path id="md8a7f895fe" d="M 0 0 
L -3.5 0 
" style="stroke: #000000; stroke-width: 0.8"/>
      </defs>
      <g>
       <use xlink:href="#md8a7f895fe" x="18" y="189" style="stroke: #000000; stroke-width: 0.8"/>
      </g>
     </g>
     <g id="text_4">
      <!-- 15 -->
      <g transform="translate(-10.104688 192.799219)scale(0.1 -0.1)">
       <defs>
        <path id="DejaVuSans-35" d="M 691 4666 
L 3169 4666 
L 3169 4134 
L 1269 4134 
L 1269 2991 
Q 1406 3038 1543 3061 
Q 1681 3084 1819 3084 
Q 2600 3084 3056 2656 
Q 3513 2228 3513 1497 
Q 3513 744 3044 326 
Q 2575 -91 1722 -91 
Q 1428 -91 1123 -41 
Q 819 9 494 109 
L 494 744 
Q 775 591 1075 516 
Q 1375 441 1709 441 
Q 2250 441 2565 725 
Q 2881 1009 2881 1497 
Q 2881 1984 2565 2268 
Q 2250 2553 1709 2553 
Q 1456 2553 1204 2497 
Q 953 2441 691 2322 
L 691 4666 
z
" transform="scale(0.015625)"/>
       </defs>
       <use xlink:href="#DejaVuSans-2212"/>
       <use xlink:href="#DejaVuSans-31" x="83.789062"/>
       <use xlink:href="#DejaVuSans-35" x="147.412109"/>
      </g>
     </g>
    </g>
    <g id="ytick_2">
     <g id="line2d_5">
      <g>
       <use xlink:href="#md8a7f895fe" x="18" y="161.82" style="stroke: #000000; stroke-width: 0.8"/>
      </g>
     </g>
     <g id="text_5">
      <!-- 10 -->
      <g transform="translate(-10.104688 165.619219)scale(0.1 -0.1)">
       <use xlink:href="#DejaVuSans-2212"/>
       <use xlink:href="#DejaVuSans-31" x="83.789062"/>
       <use xlink:href="#DejaVuSans-30" x="147.412109"/>
      </g>
     </g>
    </g>
    <g id="ytick_3">
     <g id="line2d_6">
      <g>
       <use xlink:href="#md8a7f895fe" x="18" y="134.64" style="stroke: #000000; stroke-width: 0.8"/>
      </g>
     </g>
     <g id="text_6">
      <!-- 5 -->
      <g transform="translate(-3.742188 138.439219)scale(0.1 -0.1)">
       <use xlink:href="#DejaVuSans-2212"/>
       <use xlink:href="#DejaVuSans-35" x="83.789062"/>
      </g>
     </g>
    </g>
    <g id="ytick_4">
     <g id="line2d_7">
      <g>
       <use xlink:href="#md8a7f895fe" x="18" y="107.46" style="stroke: #000000; stroke-width: 0.8"/>
      </g>
     </g>
     <g id="text_7">
      <!-- 0 -->
      <g transform="translate(4.6375 111.259219)scale(0.1 -0.1)">
       <use xlink:href="#DejaVuSans-30"/>
      </g>
     </g>
    </g>
    <g id="ytick_5">
     <g id="line2d_8">
      <g>
       <use xlink:href="#md8a7f895fe" x="18" y="80.28" style="stroke: #000000; stroke-width: 0.8"/>
      </g>
     </g>
     <g id="text_8">
      <!-- 5 -->
      <g transform="translate(4.6375 84.079219)scale(0.1 -0.1)">
       <use xlink:href="#DejaVuSans-35"/>
      </g>
     </g>
    </g>
    <g id="ytick_6">
     <g id="line2d_9">
      <g>
       <use xlink:href="#md8a7f895fe" x="18" y="53.1" style="stroke: #000000; stroke-width: 0.8"/>
      </g>
     </g>
     <g id="text_9">
      <!-- 10 -->
      <g transform="translate(-1.725 56.899219)scale(0.1 -0.1)">
       <use xlink:href="#DejaVuSans-31"/>
       <use xlink:href="#DejaVuSans-30" x="63.623047"/>
      </g>
     </g>
    </g>
    <g id="ytick_7">
     <g id="line2d_10">
      <g>
       <use xlink:href="#md8a7f895fe" x="18" y="25.92" style="stroke: #000000; stroke-width: 0.8"/>
      </g>
     </g>
     <g id="text_10">
      <!-- 15 -->
      <g transform="translate(-1.725 29.719219)scale(0.1 -0.1)">
       <use xlink:href="#DejaVuSans-31"/>
       <use xlink:href="#DejaVuSans-35" x="63.623047"/>
      </g>
     </g>
    </g>
   </g>
   <g id="patch_3">
    <path d="M 18 189 
L 18 25.92 
" style="fill: none; stroke: #000000; stroke-width: 0.8; stroke-linejoin: miter; stroke-linecap: square"/>
   </g>
   <g id="patch_4">
    <path d="M 129.6 189 
L 129.6 25.92 
" style="fill: none; stroke: #000000; stroke-width: 0.8; stroke-linejoin: miter; stroke-linecap: square"/>
   </g>
   <g id="patch_5">
    <path d="M 18 189 
L 129.6 189 
" style="fill: none; stroke: #000000; stroke-width: 0.8; stroke-linejoin: miter; stroke-linecap: square"/>
   </g>
   <g id="patch_6">
    <path d="M 18 25.92 
L 129.6 25.92 
" style="fill: none; stroke: #000000; stroke-width: 0.8; stroke-linejoin: miter; stroke-linecap: square"/>
   </g>
  </g>
 </g>
 <defs>
  <clipPath id="p2088b99b71">
   <rect x="18" y="25.92" width="111.6" height="163.08"/>
  </clipPath>
 </defs>
</svg>
