<?xml version="1.0" encoding="utf-8" standalone="no"?>
<!DOCTYPE svg PUBLIC "-//W3C//DTD SVG 1.1//EN"
  "http://www.w3.org/Graphics/SVG/1.1/DTD/svg11.dtd">
<svg xmlns:xlink="http://www.w3.org/1999/xlink" width="144pt" height="216pt" viewBox="0 0 144 216" xmlns="http://www.w3.org/2000/svg" version="1.1">
 <metadata>
  <rdf:RDF xmlns:dc="http://purl.org/dc/elements/1.1/" xmlns:cc="http://creativecommons.org/ns#" xmlns:rdf="http://www.w3.org/1999/02/22-rdf-syntax-ns#">
   <cc:Work>
    <dc:type rdf:resource="http://purl.org/dc/dcmitype/StillImage"/>
    <dc:date>2022-06-23T12:06:21.927397</dc:date>
    <dc:format>image/svg+xml</dc:format>
    <dc:creator>
     <cc:Agent>
      <dc:title>Matplotlib v3.5.1, https://matplotlib.org/</dc:title>
     </cc:Agent>
    </dc:creator>
   </cc:Work>
  </rdf:RDF>
 </metadata>
 <defs>
  <style type="text/css">*{stroke-linejoin: round; stroke-linecap: butt}</style>
 </defs>
 <g id="figure_1">
  <g id="patch_1">
   <path d="M 0 216 
L 144 216 
L 144 0 
L 0 0 
L 0 216 
z
" style="fill: none"/>
  </g>
  <g id="axes_1">
   <g id="patch_2">
    <path d="M 18 189 
L 129.6 189 
L 129.6 25.92 
L 18 25.92 
z
" style="fill: #ffffff"/>
   </g>
   <g id="PathCollection_1">
    <defs>
     <path id="m8218462a8b" d="M 0 2.738613 
C 0.726289 2.738613 1.422928 2.450055 1.936492 1.936492 
C 2.450055 1.422928 2.738613 0.726289 2.738613 0 
C 2.738613 -0.726289 2.450055 -1.422928 1.936492 -1.936492 
C 1.422928 -2.450055 0.726289 -2.738613 0 -2.738613 
C -0.726289 -2.738613 -1.422928 -2.450055 -1.936492 -1.936492 
C -2.450055 -1.422928 -2.738613 -0.726289 -2.738613 0 
C -2.738613 0.726289 -2.450055 1.422928 -1.936492 1.936492 
C -1.422928 2.450055 -0.726289 2.738613 0 2.738613 
z
" style="stroke: #ff0000; stroke-width: 1.75"/>
    </defs>
    <g clip-path="url(#p3b9dc9c75b)">
     <use xlink:href="#m8218462a8b" x="80.775" y="107.46" style="fill: #ff0000; stroke: #ff0000; stroke-width: 1.75"/>
     <use xlink:href="#m8218462a8b" x="94.725" y="107.46" style="fill: #ff0000; stroke: #ff0000; stroke-width: 1.75"/>
     <use xlink:href="#m8218462a8b" x="59.85" y="119.229285" style="fill: #ff0000; stroke: #ff0000; stroke-width: 1.75"/>
     <use xlink:href="#m8218462a8b" x="73.8" y="119.229285" style="fill: #ff0000; stroke: #ff0000; stroke-width: 1.75"/>
     <use xlink:href="#m8218462a8b" x="87.75" y="119.229285" style="fill: #ff0000; stroke: #ff0000; stroke-width: 1.75"/>
     <use xlink:href="#m8218462a8b" x="66.825" y="130.99857" style="fill: #ff0000; stroke: #ff0000; stroke-width: 1.75"/>
     <use xlink:href="#m8218462a8b" x="80.775" y="130.99857" style="fill: #ff0000; stroke: #ff0000; stroke-width: 1.75"/>
    </g>
   </g>
   <g id="PathCollection_2">
    <defs>
     <path id="C0_0_dcac2ab7b4" d="M 0 2.738613 
C 0.726289 2.738613 1.422928 2.450055 1.936492 1.936492 
C 2.450055 1.422928 2.738613 0.726289 2.738613 -0 
C 2.738613 -0.726289 2.450055 -1.422928 1.936492 -1.936492 
C 1.422928 -2.450055 0.726289 -2.738613 0 -2.738613 
C -0.726289 -2.738613 -1.422928 -2.450055 -1.936492 -1.936492 
C -2.450055 -1.422928 -2.738613 -0.726289 -2.738613 0 
C -2.738613 0.726289 -2.450055 1.422928 -1.936492 1.936492 
C -1.422928 2.450055 -0.726289 2.738613 0 2.738613 
z
"/>
    </defs>
    <g clip-path="url(#p3b9dc9c75b)">
     <use xlink:href="#C0_0_dcac2ab7b4" x="66.825" y="83.92143" style="fill: none; stroke: #ff0000; stroke-width: 1.75"/>
    </g>
    <g clip-path="url(#p3b9dc9c75b)">
     <use xlink:href="#C0_0_dcac2ab7b4" x="80.775" y="83.92143" style="fill: none; stroke: #ff0000; stroke-width: 1.75"/>
    </g>
    <g clip-path="url(#p3b9dc9c75b)">
     <use xlink:href="#C0_0_dcac2ab7b4" x="59.85" y="95.690715" style="fill: none; stroke: #ff0000; stroke-width: 1.75"/>
    </g>
    <g clip-path="url(#p3b9dc9c75b)">
     <use xlink:href="#C0_0_dcac2ab7b4" x="73.8" y="95.690715" style="fill: none; stroke: #ff0000; stroke-width: 1.75"/>
    </g>
    <g clip-path="url(#p3b9dc9c75b)">
     <use xlink:href="#C0_0_dcac2ab7b4" x="87.75" y="95.690715" style="fill: none; stroke: #ff0000; stroke-width: 1.75"/>
    </g>
    <g clip-path="url(#p3b9dc9c75b)">
     <use xlink:href="#C0_0_dcac2ab7b4" x="52.875" y="107.46" style="fill: none; stroke: #ff0000; stroke-width: 1.75"/>
    </g>
    <g clip-path="url(#p3b9dc9c75b)">
     <use xlink:href="#C0_0_dcac2ab7b4" x="66.825" y="107.46" style="fill: none; stroke: #ff0000; stroke-width: 1.75"/>
    </g>
   </g>
   <g id="PathCollection_3">
    <path d="M 107.192706 56.610734 
C 107.192706 56.610734 107.192706 56.610734 107.192706 56.610734 
C 107.192706 56.610734 107.192706 56.610734 107.192706 56.610734 
C 107.192706 56.610734 107.192706 56.610734 107.192706 56.610734 
C 107.192706 56.610734 107.192706 56.610734 107.192706 56.610734 
C 107.192706 56.610734 107.192706 56.610734 107.192706 56.610734 
C 107.192706 56.610734 107.192706 56.610734 107.192706 56.610734 
C 107.192706 56.610734 107.192706 56.610734 107.192706 56.610734 
C 107.192706 56.610734 107.192706 56.610734 107.192706 56.610734 
z
" clip-path="url(#p3b9dc9c75b)" style="stroke: #000000"/>
    <path d="M 97.371398 48.164908 
C 97.96441 48.164908 98.533214 47.929302 98.952537 47.509979 
C 99.37186 47.090656 99.607466 46.521852 99.607466 45.92884 
C 99.607466 45.335828 99.37186 44.767024 98.952537 44.347701 
C 98.533214 43.928378 97.96441 43.692772 97.371398 43.692772 
C 96.778386 43.692772 96.209582 43.928378 95.790259 44.347701 
C 95.370936 44.767024 95.13533 45.335828 95.13533 45.92884 
C 95.13533 46.521852 95.370936 47.090656 95.790259 47.509979 
C 96.209582 47.929302 96.778386 48.164908 97.371398 48.164908 
z
" clip-path="url(#p3b9dc9c75b)" style="stroke: #000000"/>
    <path d="M 95.59317 40.523212 
C 96.186182 40.523212 96.754986 40.287605 97.174309 39.868282 
C 97.593631 39.44896 97.829238 38.880156 97.829238 38.287144 
C 97.829238 37.694131 97.593631 37.125328 97.174309 36.706005 
C 96.754986 36.286682 96.186182 36.051076 95.59317 36.051076 
C 95.000158 36.051076 94.431354 36.286682 94.012031 36.706005 
C 93.592708 37.125328 93.357102 37.694131 93.357102 38.287144 
C 93.357102 38.880156 93.592708 39.44896 94.012031 39.868282 
C 94.431354 40.287605 95.000158 40.523212 95.59317 40.523212 
z
" clip-path="url(#p3b9dc9c75b)" style="stroke: #000000"/>
    <path d="M 119.148436 128.302254 
C 119.741818 128.302254 120.310977 128.066501 120.730562 127.646916 
C 121.150147 127.227331 121.3859 126.658172 121.3859 126.06479 
C 121.3859 125.471407 121.150147 124.902248 120.730562 124.482664 
C 120.310977 124.063079 119.741818 123.827326 119.148436 123.827326 
C 118.555053 123.827326 117.985895 124.063079 117.56631 124.482664 
C 117.146725 124.902248 116.910972 125.471407 116.910972 126.06479 
C 116.910972 126.658172 117.146725 127.227331 117.56631 127.646916 
C 117.985895 128.066501 118.555053 128.302254 119.148436 128.302254 
z
" clip-path="url(#p3b9dc9c75b)" style="stroke: #000000"/>
    <path d="M 112.776699 120.579519 
C 113.370082 120.579519 113.939241 120.343765 114.358825 119.924181 
C 114.77841 119.504596 115.014164 118.935437 115.014164 118.342055 
C 115.014164 117.748672 114.77841 117.179513 114.358825 116.759928 
C 113.939241 116.340344 113.370082 116.10459 112.776699 116.10459 
C 112.183317 116.10459 111.614158 116.340344 111.194573 116.759928 
C 110.774988 117.179513 110.539235 117.748672 110.539235 118.342055 
C 110.539235 118.935437 110.774988 119.504596 111.194573 119.924181 
C 111.614158 120.343765 112.183317 120.579519 112.776699 120.579519 
z
" clip-path="url(#p3b9dc9c75b)" style="stroke: #000000"/>
    <path d="M 113.400707 114.288564 
C 113.99409 114.288564 114.563249 114.052811 114.982833 113.633226 
C 115.402418 113.213641 115.638172 112.644482 115.638172 112.0511 
C 115.638172 111.457717 115.402418 110.888558 114.982833 110.468974 
C 114.563249 110.049389 113.99409 109.813636 113.400707 109.813636 
C 112.807325 109.813636 112.238166 110.049389 111.818581 110.468974 
C 111.398996 110.888558 111.163243 111.457717 111.163243 112.0511 
C 111.163243 112.644482 111.398996 113.213641 111.818581 113.633226 
C 112.238166 114.052811 112.807325 114.288564 113.400707 114.288564 
z
" clip-path="url(#p3b9dc9c75b)" style="stroke: #000000"/>
    <path d="M 112.277086 98.735622 
C 112.277086 98.735622 112.277086 98.735622 112.277086 98.735622 
C 112.277086 98.735622 112.277086 98.735622 112.277086 98.735622 
C 112.277086 98.735622 112.277086 98.735622 112.277086 98.735622 
C 112.277086 98.735622 112.277086 98.735622 112.277086 98.735622 
C 112.277086 98.735622 112.277086 98.735622 112.277086 98.735622 
C 112.277086 98.735622 112.277086 98.735622 112.277086 98.735622 
C 112.277086 98.735622 112.277086 98.735622 112.277086 98.735622 
C 112.277086 98.735622 112.277086 98.735622 112.277086 98.735622 
z
" clip-path="url(#p3b9dc9c75b)" style="stroke: #000000"/>
    <path d="M 108.816641 89.205109 
C 109.410023 89.205109 109.979182 88.969356 110.398767 88.549771 
C 110.818352 88.130186 111.054105 87.561027 111.054105 86.967645 
C 111.054105 86.374262 110.818352 85.805103 110.398767 85.385519 
C 109.979182 84.965934 109.410023 84.73018 108.816641 84.73018 
C 108.223258 84.73018 107.654099 84.965934 107.234515 85.385519 
C 106.81493 85.805103 106.579176 86.374262 106.579176 86.967645 
C 106.579176 87.561027 106.81493 88.130186 107.234515 88.549771 
C 107.654099 88.969356 108.223258 89.205109 108.816641 89.205109 
z
" clip-path="url(#p3b9dc9c75b)" style="stroke: #000000"/>
    <path d="M 98.515176 78.509415 
C 99.108188 78.509415 99.676992 78.273808 100.096315 77.854486 
C 100.515638 77.435163 100.751244 76.866359 100.751244 76.273347 
C 100.751244 75.680335 100.515638 75.111531 100.096315 74.692208 
C 99.676992 74.272885 99.108188 74.037279 98.515176 74.037279 
C 97.922164 74.037279 97.35336 74.272885 96.934037 74.692208 
C 96.514715 75.111531 96.279108 75.680335 96.279108 76.273347 
C 96.279108 76.866359 96.514715 77.435163 96.934037 77.854486 
C 97.35336 78.273808 97.922164 78.509415 98.515176 78.509415 
z
" clip-path="url(#p3b9dc9c75b)" style="stroke: #000000"/>
    <path d="M 100.179513 68.533172 
C 100.772895 68.533172 101.342054 68.297419 101.761639 67.877834 
C 102.181224 67.458249 102.416977 66.88909 102.416977 66.295708 
C 102.416977 65.702326 102.181224 65.133167 101.761639 64.713582 
C 101.342054 64.293997 100.772895 64.058244 100.179513 64.058244 
C 99.58613 64.058244 99.016971 64.293997 98.597387 64.713582 
C 98.177802 65.133167 97.942048 65.702326 97.942048 66.295708 
C 97.942048 66.88909 98.177802 67.458249 98.597387 67.877834 
C 99.016971 68.297419 99.58613 68.533172 100.179513 68.533172 
z
" clip-path="url(#p3b9dc9c75b)" style="stroke: #000000"/>
    <path d="M 100.097858 60.699592 
C 100.69087 60.699592 101.259674 60.463986 101.678997 60.044663 
C 102.09832 59.62534 102.333926 59.056537 102.333926 58.463524 
C 102.333926 57.870512 102.09832 57.301708 101.678997 56.882386 
C 101.259674 56.463063 100.69087 56.227456 100.097858 56.227456 
C 99.504846 56.227456 98.936042 56.463063 98.516719 56.882386 
C 98.097397 57.301708 97.86179 57.870512 97.86179 58.463524 
C 97.86179 59.056537 98.097397 59.62534 98.516719 60.044663 
C 98.936042 60.463986 99.504846 60.699592 100.097858 60.699592 
z
" clip-path="url(#p3b9dc9c75b)" style="stroke: #000000"/>
    <path d="M 90.02367 50.052964 
C 90.198183 50.052964 90.365573 49.983629 90.488972 49.860229 
C 90.612372 49.736829 90.681707 49.56944 90.681707 49.394927 
C 90.681707 49.220413 90.612372 49.053024 90.488972 48.929624 
C 90.365573 48.806224 90.198183 48.73689 90.02367 48.73689 
C 89.849157 48.73689 89.681767 48.806224 89.558368 48.929624 
C 89.434968 49.053024 89.365633 49.220413 89.365633 49.394927 
C 89.365633 49.56944 89.434968 49.736829 89.558368 49.860229 
C 89.681767 49.983629 89.849157 50.052964 90.02367 50.052964 
z
" clip-path="url(#p3b9dc9c75b)" style="stroke: #000000"/>
    <path d="M 89.496245 38.702268 
C 90.089257 38.702268 90.658061 38.466662 91.077383 38.047339 
C 91.496706 37.628016 91.732313 37.059212 91.732313 36.4662 
C 91.732313 35.873188 91.496706 35.304384 91.077383 34.885061 
C 90.658061 34.465738 90.089257 34.230132 89.496245 34.230132 
C 88.903232 34.230132 88.334429 34.465738 87.915106 34.885061 
C 87.495783 35.304384 87.260177 35.873188 87.260177 36.4662 
C 87.260177 37.059212 87.495783 37.628016 87.915106 38.047339 
C 88.334429 38.466662 88.903232 38.702268 89.496245 38.702268 
z
" clip-path="url(#p3b9dc9c75b)" style="stroke: #000000"/>
    <path d="M 120.140677 173.612974 
C 120.140677 173.612974 120.140677 173.612974 120.140677 173.612974 
C 120.140677 173.612974 120.140677 173.612974 120.140677 173.612974 
C 120.140677 173.612974 120.140677 173.612974 120.140677 173.612974 
C 120.140677 173.612974 120.140677 173.612974 120.140677 173.612974 
C 120.140677 173.612974 120.140677 173.612974 120.140677 173.612974 
C 120.140677 173.612974 120.140677 173.612974 120.140677 173.612974 
C 120.140677 173.612974 120.140677 173.612974 120.140677 173.612974 
C 120.140677 173.612974 120.140677 173.612974 120.140677 173.612974 
z
" clip-path="url(#p3b9dc9c75b)" style="stroke: #000000"/>
    <path d="M 123.261552 161.84095 
C 123.261552 161.84095 123.261552 161.84095 123.261552 161.84095 
C 123.261552 161.84095 123.261552 161.84095 123.261552 161.84095 
C 123.261552 161.84095 123.261552 161.84095 123.261552 161.84095 
C 123.261552 161.84095 123.261552 161.84095 123.261552 161.84095 
C 123.261552 161.84095 123.261552 161.84095 123.261552 161.84095 
C 123.261552 161.84095 123.261552 161.84095 123.261552 161.84095 
C 123.261552 161.84095 123.261552 161.84095 123.261552 161.84095 
C 123.261552 161.84095 123.261552 161.84095 123.261552 161.84095 
z
" clip-path="url(#p3b9dc9c75b)" style="stroke: #000000"/>
    <path d="M 119.092357 160.823753 
C 119.092357 160.823753 119.092357 160.823753 119.092357 160.823753 
C 119.092357 160.823753 119.092357 160.823753 119.092357 160.823753 
C 119.092357 160.823753 119.092357 160.823753 119.092357 160.823753 
C 119.092357 160.823753 119.092357 160.823753 119.092357 160.823753 
C 119.092357 160.823753 119.092357 160.823753 119.092357 160.823753 
C 119.092357 160.823753 119.092357 160.823753 119.092357 160.823753 
C 119.092357 160.823753 119.092357 160.823753 119.092357 160.823753 
C 119.092357 160.823753 119.092357 160.823753 119.092357 160.823753 
z
" clip-path="url(#p3b9dc9c75b)" style="stroke: #000000"/>
    <path d="M 114.318103 142.832444 
C 114.843252 142.832444 115.346962 142.6238 115.718299 142.252464 
C 116.089635 141.881127 116.298279 141.377417 116.298279 140.852268 
C 116.298279 140.327119 116.089635 139.823408 115.718299 139.452072 
C 115.346962 139.080736 114.843252 138.872092 114.318103 138.872092 
C 113.792954 138.872092 113.289243 139.080736 112.917907 139.452072 
C 112.546571 139.823408 112.337927 140.327119 112.337927 140.852268 
C 112.337927 141.377417 112.546571 141.881127 112.917907 142.252464 
C 113.289243 142.6238 113.792954 142.832444 114.318103 142.832444 
z
" clip-path="url(#p3b9dc9c75b)" style="stroke: #000000"/>
    <path d="M 110.397867 134.582339 
C 110.99125 134.582339 111.560409 134.346586 111.979993 133.927001 
C 112.399578 133.507416 112.635331 132.938257 112.635331 132.344875 
C 112.635331 131.751492 112.399578 131.182333 111.979993 130.762749 
C 111.560409 130.343164 110.99125 130.107411 110.397867 130.107411 
C 109.804485 130.107411 109.235326 130.343164 108.815741 130.762749 
C 108.396156 131.182333 108.160403 131.751492 108.160403 132.344875 
C 108.160403 132.938257 108.396156 133.507416 108.815741 133.927001 
C 109.235326 134.346586 109.804485 134.582339 110.397867 134.582339 
z
" clip-path="url(#p3b9dc9c75b)" style="stroke: #000000"/>
    <path d="M 108.021173 124.985295 
C 108.614555 124.985295 109.183714 124.749542 109.603299 124.329957 
C 110.022884 123.910373 110.258637 123.341214 110.258637 122.747831 
C 110.258637 122.154449 110.022884 121.58529 109.603299 121.165705 
C 109.183714 120.74612 108.614555 120.510367 108.021173 120.510367 
C 107.42779 120.510367 106.858632 120.74612 106.439047 121.165705 
C 106.019462 121.58529 105.783709 122.154449 105.783709 122.747831 
C 105.783709 123.341214 106.019462 123.910373 106.439047 124.329957 
C 106.858632 124.749542 107.42779 124.985295 108.021173 124.985295 
z
" clip-path="url(#p3b9dc9c75b)" style="stroke: #000000"/>
    <path d="M 101.139906 113.68664 
C 101.611512 113.68664 102.063865 113.499269 102.39734 113.165794 
C 102.730815 112.832319 102.918186 112.379966 102.918186 111.908361 
C 102.918186 111.436755 102.730815 110.984402 102.39734 110.650927 
C 102.063865 110.317452 101.611512 110.130081 101.139906 110.130081 
C 100.668301 110.130081 100.215948 110.317452 99.882473 110.650927 
C 99.548998 110.984402 99.361627 111.436755 99.361627 111.908361 
C 99.361627 112.379966 99.548998 112.832319 99.882473 113.165794 
C 100.215948 113.499269 100.668301 113.68664 101.139906 113.68664 
z
" clip-path="url(#p3b9dc9c75b)" style="stroke: #000000"/>
    <path d="M 99.700433 102.867435 
C 100.293816 102.867435 100.862975 102.631681 101.282559 102.212097 
C 101.702144 101.792512 101.937898 101.223353 101.937898 100.62997 
C 101.937898 100.036588 101.702144 99.467429 101.282559 99.047844 
C 100.862975 98.62826 100.293816 98.392506 99.700433 98.392506 
C 99.107051 98.392506 98.537892 98.62826 98.118307 99.047844 
C 97.698722 99.467429 97.462969 100.036588 97.462969 100.62997 
C 97.462969 101.223353 97.698722 101.792512 98.118307 102.212097 
C 98.537892 102.631681 99.107051 102.867435 99.700433 102.867435 
z
" clip-path="url(#p3b9dc9c75b)" style="stroke: #000000"/>
    <path d="M 100.158313 94.380384 
C 100.751325 94.380384 101.320128 94.144778 101.739451 93.725455 
C 102.158774 93.306132 102.394381 92.737329 102.394381 92.144316 
C 102.394381 91.551304 102.158774 90.982501 101.739451 90.563178 
C 101.320128 90.143855 100.751325 89.908248 100.158313 89.908248 
C 99.5653 89.908248 98.996497 90.143855 98.577174 90.563178 
C 98.157851 90.982501 97.922245 91.551304 97.922245 92.144316 
C 97.922245 92.737329 98.157851 93.306132 98.577174 93.725455 
C 98.996497 94.144778 99.5653 94.380384 100.158313 94.380384 
z
" clip-path="url(#p3b9dc9c75b)" style="stroke: #000000"/>
    <path d="M 90.047531 81.95219 
C 90.640914 81.95219 91.210073 81.716437 91.629657 81.296852 
C 92.049242 80.877267 92.284995 80.308109 92.284995 79.714726 
C 92.284995 79.121344 92.049242 78.552185 91.629657 78.1326 
C 91.210073 77.713015 90.640914 77.477262 90.047531 77.477262 
C 89.454149 77.477262 88.88499 77.713015 88.465405 78.1326 
C 88.04582 78.552185 87.810067 79.121344 87.810067 79.714726 
C 87.810067 80.308109 88.04582 80.877267 88.465405 81.296852 
C 88.88499 81.716437 89.454149 81.95219 90.047531 81.95219 
z
" clip-path="url(#p3b9dc9c75b)" style="stroke: #000000"/>
    <path d="M 88.541483 73.048554 
C 89.134496 73.048554 89.703299 72.812948 90.122622 72.393625 
C 90.541945 71.974302 90.777551 71.405499 90.777551 70.812486 
C 90.777551 70.219474 90.541945 69.65067 90.122622 69.231348 
C 89.703299 68.812025 89.134496 68.576418 88.541483 68.576418 
C 87.948471 68.576418 87.379668 68.812025 86.960345 69.231348 
C 86.541022 69.65067 86.305416 70.219474 86.305416 70.812486 
C 86.305416 71.405499 86.541022 71.974302 86.960345 72.393625 
C 87.379668 72.812948 87.948471 73.048554 88.541483 73.048554 
z
" clip-path="url(#p3b9dc9c75b)" style="stroke: #000000"/>
    <path d="M 86.522789 64.998824 
C 87.057291 64.998824 87.569973 64.786464 87.947923 64.408514 
C 88.325874 64.030564 88.538234 63.517881 88.538234 62.983379 
C 88.538234 62.448877 88.325874 61.936194 87.947923 61.558244 
C 87.569973 61.180294 87.057291 60.967934 86.522789 60.967934 
C 85.988286 60.967934 85.475604 61.180294 85.097654 61.558244 
C 84.719703 61.936194 84.507343 62.448877 84.507343 62.983379 
C 84.507343 63.517881 84.719703 64.030564 85.097654 64.408514 
C 85.475604 64.786464 85.988286 64.998824 86.522789 64.998824 
z
" clip-path="url(#p3b9dc9c75b)" style="stroke: #000000"/>
    <path d="M 80.527593 49.733424 
C 80.527593 49.733424 80.527593 49.733424 80.527593 49.733424 
C 80.527593 49.733424 80.527593 49.733424 80.527593 49.733424 
C 80.527593 49.733424 80.527593 49.733424 80.527593 49.733424 
C 80.527593 49.733424 80.527593 49.733424 80.527593 49.733424 
C 80.527593 49.733424 80.527593 49.733424 80.527593 49.733424 
C 80.527593 49.733424 80.527593 49.733424 80.527593 49.733424 
C 80.527593 49.733424 80.527593 49.733424 80.527593 49.733424 
C 80.527593 49.733424 80.527593 49.733424 80.527593 49.733424 
z
" clip-path="url(#p3b9dc9c75b)" style="stroke: #000000"/>
    <path d="M 76.992136 44.099181 
C 77.585148 44.099181 78.153952 43.863575 78.573275 43.444252 
C 78.992597 43.024929 79.228204 42.456125 79.228204 41.863113 
C 79.228204 41.270101 78.992597 40.701297 78.573275 40.281974 
C 78.153952 39.862651 77.585148 39.627045 76.992136 39.627045 
C 76.399124 39.627045 75.83032 39.862651 75.410997 40.281974 
C 74.991674 40.701297 74.756068 41.270101 74.756068 41.863113 
C 74.756068 42.456125 74.991674 43.024929 75.410997 43.444252 
C 75.83032 43.863575 76.399124 44.099181 76.992136 44.099181 
z
" clip-path="url(#p3b9dc9c75b)" style="stroke: #000000"/>
    <path d="M 77.06232 31.949511 
C 77.655332 31.949511 78.224136 31.713904 78.643459 31.294581 
C 79.062782 30.875259 79.298388 30.306455 79.298388 29.713443 
C 79.298388 29.12043 79.062782 28.551627 78.643459 28.132304 
C 78.224136 27.712981 77.655332 27.477375 77.06232 27.477375 
C 76.469308 27.477375 75.900504 27.712981 75.481181 28.132304 
C 75.061858 28.551627 74.826252 29.12043 74.826252 29.713443 
C 74.826252 30.306455 75.061858 30.875259 75.481181 31.294581 
C 75.900504 31.713904 76.469308 31.949511 77.06232 31.949511 
z
" clip-path="url(#p3b9dc9c75b)" style="stroke: #000000"/>
    <path d="M 110.93534 170.361127 
C 111.528352 170.361127 112.097156 170.12552 112.516479 169.706198 
C 112.935802 169.286875 113.171408 168.718071 113.171408 168.125059 
C 113.171408 167.532047 112.935802 166.963243 112.516479 166.54392 
C 112.097156 166.124597 111.528352 165.888991 110.93534 165.888991 
C 110.342328 165.888991 109.773524 166.124597 109.354201 166.54392 
C 108.934879 166.963243 108.699272 167.532047 108.699272 168.125059 
C 108.699272 168.718071 108.934879 169.286875 109.354201 169.706198 
C 109.773524 170.12552 110.342328 170.361127 110.93534 170.361127 
z
" clip-path="url(#p3b9dc9c75b)" style="stroke: #000000"/>
    <path d="M 105.224969 161.037212 
C 105.713344 161.037212 106.181781 160.843179 106.527114 160.497846 
C 106.872447 160.152513 107.066481 159.684075 107.066481 159.1957 
C 107.066481 158.707326 106.872447 158.238888 106.527114 157.893555 
C 106.181781 157.548222 105.713344 157.354189 105.224969 157.354189 
C 104.736595 157.354189 104.268157 157.548222 103.922824 157.893555 
C 103.577491 158.238888 103.383458 158.707326 103.383458 159.1957 
C 103.383458 159.684075 103.577491 160.152513 103.922824 160.497846 
C 104.268157 160.843179 104.736595 161.037212 105.224969 161.037212 
z
" clip-path="url(#p3b9dc9c75b)" style="stroke: #000000"/>
    <path d="M 102.827703 149.434152 
C 103.421085 149.434152 103.990244 149.198399 104.409829 148.778814 
C 104.829414 148.35923 105.065167 147.790071 105.065167 147.196688 
C 105.065167 146.603306 104.829414 146.034147 104.409829 145.614562 
C 103.990244 145.194977 103.421085 144.959224 102.827703 144.959224 
C 102.234321 144.959224 101.665162 145.194977 101.245577 145.614562 
C 100.825992 146.034147 100.590239 146.603306 100.590239 147.196688 
C 100.590239 147.790071 100.825992 148.35923 101.245577 148.778814 
C 101.665162 149.198399 102.234321 149.434152 102.827703 149.434152 
z
" clip-path="url(#p3b9dc9c75b)" style="stroke: #000000"/>
    <path d="M 103.88882 135.391777 
C 104.424834 135.391777 104.938967 135.178817 105.317986 134.799797 
C 105.697005 134.420778 105.909966 133.906645 105.909966 133.370631 
C 105.909966 132.834616 105.697005 132.320484 105.317986 131.941464 
C 104.938967 131.562445 104.424834 131.349484 103.88882 131.349484 
C 103.352805 131.349484 102.838673 131.562445 102.459653 131.941464 
C 102.080634 132.320484 101.867673 132.834616 101.867673 133.370631 
C 101.867673 133.906645 102.080634 134.420778 102.459653 134.799797 
C 102.838673 135.178817 103.352805 135.391777 103.88882 135.391777 
z
" clip-path="url(#p3b9dc9c75b)" style="stroke: #000000"/>
    <path d="M 94.329174 127.225355 
C 94.922186 127.225355 95.49099 126.989748 95.910313 126.570426 
C 96.329636 126.151103 96.565242 125.582299 96.565242 124.989287 
C 96.565242 124.396275 96.329636 123.827471 95.910313 123.408148 
C 95.49099 122.988825 94.922186 122.753219 94.329174 122.753219 
C 93.736162 122.753219 93.167358 122.988825 92.748035 123.408148 
C 92.328712 123.827471 92.093106 124.396275 92.093106 124.989287 
C 92.093106 125.582299 92.328712 126.151103 92.748035 126.570426 
C 93.167358 126.989748 93.736162 127.225355 94.329174 127.225355 
z
" clip-path="url(#p3b9dc9c75b)" style="stroke: #000000"/>
    <path d="M 94.085298 119.006654 
C 94.67868 119.006654 95.247839 118.770901 95.667424 118.351316 
C 96.087009 117.931731 96.322762 117.362572 96.322762 116.76919 
C 96.322762 116.175807 96.087009 115.606648 95.667424 115.187064 
C 95.247839 114.767479 94.67868 114.531725 94.085298 114.531725 
C 93.491915 114.531725 92.922757 114.767479 92.503172 115.187064 
C 92.083587 115.606648 91.847834 116.175807 91.847834 116.76919 
C 91.847834 117.362572 92.083587 117.931731 92.503172 118.351316 
C 92.922757 118.770901 93.491915 119.006654 94.085298 119.006654 
z
" clip-path="url(#p3b9dc9c75b)" style="stroke: #000000"/>
    <path d="M 88.690628 110.367632 
C 89.28364 110.367632 89.852444 110.132026 90.271767 109.712703 
C 90.69109 109.29338 90.926696 108.724576 90.926696 108.131564 
C 90.926696 107.538552 90.69109 106.969748 90.271767 106.550425 
C 89.852444 106.131102 89.28364 105.895496 88.690628 105.895496 
C 88.097616 105.895496 87.528812 106.131102 87.109489 106.550425 
C 86.690166 106.969748 86.45456 107.538552 86.45456 108.131564 
C 86.45456 108.724576 86.690166 109.29338 87.109489 109.712703 
C 87.528812 110.132026 88.097616 110.367632 88.690628 110.367632 
z
" clip-path="url(#p3b9dc9c75b)" style="stroke: #000000"/>
    <path d="M 84.100415 97.685661 
C 84.693427 97.685661 85.262231 97.450055 85.681554 97.030732 
C 86.100876 96.611409 86.336483 96.042605 86.336483 95.449593 
C 86.336483 94.856581 86.100876 94.287777 85.681554 93.868454 
C 85.262231 93.449131 84.693427 93.213525 84.100415 93.213525 
C 83.507403 93.213525 82.938599 93.449131 82.519276 93.868454 
C 82.099953 94.287777 81.864347 94.856581 81.864347 95.449593 
C 81.864347 96.042605 82.099953 96.611409 82.519276 97.030732 
C 82.938599 97.450055 83.507403 97.685661 84.100415 97.685661 
z
" clip-path="url(#p3b9dc9c75b)" style="stroke: #000000"/>
    <path d="M 81.359699 85.441522 
C 81.953081 85.441522 82.52224 85.205768 82.941825 84.786184 
C 83.361409 84.366599 83.597163 83.79744 83.597163 83.204057 
C 83.597163 82.610675 83.361409 82.041516 82.941825 81.621931 
C 82.52224 81.202347 81.953081 80.966593 81.359699 80.966593 
C 80.766316 80.966593 80.197157 81.202347 79.777572 81.621931 
C 79.357988 82.041516 79.122234 82.610675 79.122234 83.204057 
C 79.122234 83.79744 79.357988 84.366599 79.777572 84.786184 
C 80.197157 85.205768 80.766316 85.441522 81.359699 85.441522 
z
" clip-path="url(#p3b9dc9c75b)" style="stroke: #000000"/>
    <path d="M 76.983486 81.705385 
C 77.576869 81.705385 78.146028 81.469632 78.565612 81.050047 
C 78.985197 80.630462 79.22095 80.061304 79.22095 79.467921 
C 79.22095 78.874539 78.985197 78.30538 78.565612 77.885795 
C 78.146028 77.46621 77.576869 77.230457 76.983486 77.230457 
C 76.390104 77.230457 75.820945 77.46621 75.40136 77.885795 
C 74.981775 78.30538 74.746022 78.874539 74.746022 79.467921 
C 74.746022 80.061304 74.981775 80.630462 75.40136 81.050047 
C 75.820945 81.469632 76.390104 81.705385 76.983486 81.705385 
z
" clip-path="url(#p3b9dc9c75b)" style="stroke: #000000"/>
    <path d="M 73.325986 62.235595 
C 73.325986 62.235595 73.325986 62.235595 73.325986 62.235595 
C 73.325986 62.235595 73.325986 62.235595 73.325986 62.235595 
C 73.325986 62.235595 73.325986 62.235595 73.325986 62.235595 
C 73.325986 62.235595 73.325986 62.235595 73.325986 62.235595 
C 73.325986 62.235595 73.325986 62.235595 73.325986 62.235595 
C 73.325986 62.235595 73.325986 62.235595 73.325986 62.235595 
C 73.325986 62.235595 73.325986 62.235595 73.325986 62.235595 
C 73.325986 62.235595 73.325986 62.235595 73.325986 62.235595 
z
" clip-path="url(#p3b9dc9c75b)" style="stroke: #000000"/>
    <path d="M 72.383961 58.304697 
C 72.383961 58.304697 72.383961 58.304697 72.383961 58.304697 
C 72.383961 58.304697 72.383961 58.304697 72.383961 58.304697 
C 72.383961 58.304697 72.383961 58.304697 72.383961 58.304697 
C 72.383961 58.304697 72.383961 58.304697 72.383961 58.304697 
C 72.383961 58.304697 72.383961 58.304697 72.383961 58.304697 
C 72.383961 58.304697 72.383961 58.304697 72.383961 58.304697 
C 72.383961 58.304697 72.383961 58.304697 72.383961 58.304697 
C 72.383961 58.304697 72.383961 58.304697 72.383961 58.304697 
z
" clip-path="url(#p3b9dc9c75b)" style="stroke: #000000"/>
    <path d="M 71.07833 43.913289 
C 71.671713 43.913289 72.240872 43.677536 72.660457 43.257951 
C 73.080041 42.838366 73.315795 42.269207 73.315795 41.675825 
C 73.315795 41.082442 73.080041 40.513283 72.660457 40.093699 
C 72.240872 39.674114 71.671713 39.438361 71.07833 39.438361 
C 70.484948 39.438361 69.915789 39.674114 69.496204 40.093699 
C 69.07662 40.513283 68.840866 41.082442 68.840866 41.675825 
C 68.840866 42.269207 69.07662 42.838366 69.496204 43.257951 
C 69.915789 43.677536 70.484948 43.913289 71.07833 43.913289 
z
" clip-path="url(#p3b9dc9c75b)" style="stroke: #000000"/>
    <path d="M 63.085904 36.398838 
C 63.678917 36.398838 64.24772 36.163232 64.667043 35.743909 
C 65.086366 35.324586 65.321972 34.755782 65.321972 34.16277 
C 65.321972 33.569758 65.086366 33.000954 64.667043 32.581631 
C 64.24772 32.162308 63.678917 31.926702 63.085904 31.926702 
C 62.492892 31.926702 61.924088 32.162308 61.504766 32.581631 
C 61.085443 33.000954 60.849836 33.569758 60.849836 34.16277 
C 60.849836 34.755782 61.085443 35.324586 61.504766 35.743909 
C 61.924088 36.163232 62.492892 36.398838 63.085904 36.398838 
z
" clip-path="url(#p3b9dc9c75b)" style="stroke: #000000"/>
    <path d="M 98.37029 173.917575 
C 98.568576 173.917575 98.758767 173.838795 98.898976 173.698586 
C 99.039185 173.558377 99.117964 173.368186 99.117964 173.169901 
C 99.117964 172.971615 99.039185 172.781424 98.898976 172.641215 
C 98.758767 172.501006 98.568576 172.422226 98.37029 172.422226 
C 98.172004 172.422226 97.981813 172.501006 97.841604 172.641215 
C 97.701395 172.781424 97.622616 172.971615 97.622616 173.169901 
C 97.622616 173.368186 97.701395 173.558377 97.841604 173.698586 
C 97.981813 173.838795 98.172004 173.917575 98.37029 173.917575 
z
" clip-path="url(#p3b9dc9c75b)" style="stroke: #000000"/>
    <path d="M 96.347052 162.394461 
C 96.86678 162.394461 97.365292 162.187971 97.732796 161.820468 
C 98.100299 161.452964 98.30679 160.954452 98.30679 160.434724 
C 98.30679 159.914995 98.100299 159.416483 97.732796 159.04898 
C 97.365292 158.681476 96.86678 158.474986 96.347052 158.474986 
C 95.827323 158.474986 95.328811 158.681476 94.961308 159.04898 
C 94.593804 159.416483 94.387314 159.914995 94.387314 160.434724 
C 94.387314 160.954452 94.593804 161.452964 94.961308 161.820468 
C 95.328811 162.187971 95.827323 162.394461 96.347052 162.394461 
z
" clip-path="url(#p3b9dc9c75b)" style="stroke: #000000"/>
    <path d="M 87.026123 154.06284 
C 87.619505 154.06284 88.188664 153.827086 88.608249 153.407502 
C 89.027833 152.987917 89.263587 152.418758 89.263587 151.825375 
C 89.263587 151.231993 89.027833 150.662834 88.608249 150.243249 
C 88.188664 149.823665 87.619505 149.587911 87.026123 149.587911 
C 86.43274 149.587911 85.863581 149.823665 85.443996 150.243249 
C 85.024412 150.662834 84.788658 151.231993 84.788658 151.825375 
C 84.788658 152.418758 85.024412 152.987917 85.443996 153.407502 
C 85.863581 153.827086 86.43274 154.06284 87.026123 154.06284 
z
" clip-path="url(#p3b9dc9c75b)" style="stroke: #000000"/>
    <path d="M 88.486709 144.661958 
C 89.080092 144.661958 89.649251 144.426205 90.068835 144.00662 
C 90.48842 143.587035 90.724173 143.017877 90.724173 142.424494 
C 90.724173 141.831112 90.48842 141.261953 90.068835 140.842368 
C 89.649251 140.422783 89.080092 140.18703 88.486709 140.18703 
C 87.893327 140.18703 87.324168 140.422783 86.904583 140.842368 
C 86.484998 141.261953 86.249245 141.831112 86.249245 142.424494 
C 86.249245 143.017877 86.484998 143.587035 86.904583 144.00662 
C 87.324168 144.426205 87.893327 144.661958 88.486709 144.661958 
z
" clip-path="url(#p3b9dc9c75b)" style="stroke: #000000"/>
    <path d="M 87.447647 131.691941 
C 87.986648 131.691941 88.503645 131.477794 88.884776 131.096663 
C 89.265907 130.715532 89.480054 130.198535 89.480054 129.659534 
C 89.480054 129.120534 89.265907 128.603537 88.884776 128.222406 
C 88.503645 127.841275 87.986648 127.627127 87.447647 127.627127 
C 86.908647 127.627127 86.39165 127.841275 86.010519 128.222406 
C 85.629388 128.603537 85.41524 129.120534 85.41524 129.659534 
C 85.41524 130.198535 85.629388 130.715532 86.010519 131.096663 
C 86.39165 131.477794 86.908647 131.691941 87.447647 131.691941 
z
" clip-path="url(#p3b9dc9c75b)" style="stroke: #000000"/>
    <path d="M 86.167038 119.837532 
C 86.76005 119.837532 87.328854 119.601926 87.748177 119.182603 
C 88.1675 118.76328 88.403106 118.194476 88.403106 117.601464 
C 88.403106 117.008452 88.1675 116.439648 87.748177 116.020325 
C 87.328854 115.601002 86.76005 115.365396 86.167038 115.365396 
C 85.574026 115.365396 85.005222 115.601002 84.585899 116.020325 
C 84.166576 116.439648 83.93097 117.008452 83.93097 117.601464 
C 83.93097 118.194476 84.166576 118.76328 84.585899 119.182603 
C 85.005222 119.601926 85.574026 119.837532 86.167038 119.837532 
z
" clip-path="url(#p3b9dc9c75b)" style="stroke: #000000"/>
    <path d="M 79.745468 110.007987 
C 80.33848 110.007987 80.907284 109.772381 81.326607 109.353058 
C 81.74593 108.933735 81.981536 108.364931 81.981536 107.771919 
C 81.981536 107.178907 81.74593 106.610103 81.326607 106.19078 
C 80.907284 105.771457 80.33848 105.535851 79.745468 105.535851 
C 79.152456 105.535851 78.583652 105.771457 78.164329 106.19078 
C 77.745006 106.610103 77.5094 107.178907 77.5094 107.771919 
C 77.5094 108.364931 77.745006 108.933735 78.164329 109.353058 
C 78.583652 109.772381 79.152456 110.007987 79.745468 110.007987 
z
" clip-path="url(#p3b9dc9c75b)" style="stroke: #000000"/>
    <path d="M 79.012951 101.194961 
C 79.606333 101.194961 80.175492 100.959208 80.595077 100.539623 
C 81.014662 100.120038 81.250415 99.550879 81.250415 98.957497 
C 81.250415 98.364114 81.014662 97.794955 80.595077 97.375371 
C 80.175492 96.955786 79.606333 96.720032 79.012951 96.720032 
C 78.419568 96.720032 77.850409 96.955786 77.430825 97.375371 
C 77.01124 97.794955 76.775486 98.364114 76.775486 98.957497 
C 76.775486 99.550879 77.01124 100.120038 77.430825 100.539623 
C 77.850409 100.959208 78.419568 101.194961 79.012951 101.194961 
z
" clip-path="url(#p3b9dc9c75b)" style="stroke: #000000"/>
    <path d="M 73.154414 90.583138 
C 73.747426 90.583138 74.31623 90.347532 74.735553 89.928209 
C 75.154876 89.508886 75.390482 88.940082 75.390482 88.34707 
C 75.390482 87.754058 75.154876 87.185254 74.735553 86.765931 
C 74.31623 86.346609 73.747426 86.111002 73.154414 86.111002 
C 72.561402 86.111002 71.992598 86.346609 71.573275 86.765931 
C 71.153952 87.185254 70.918346 87.754058 70.918346 88.34707 
C 70.918346 88.940082 71.153952 89.508886 71.573275 89.928209 
C 71.992598 90.347532 72.561402 90.583138 73.154414 90.583138 
z
" clip-path="url(#p3b9dc9c75b)" style="stroke: #000000"/>
    <path d="M 65.902601 82.561171 
C 66.495614 82.561171 67.064417 82.325564 67.48374 81.906242 
C 67.903063 81.486919 68.138669 80.918115 68.138669 80.325103 
C 68.138669 79.732091 67.903063 79.163287 67.48374 78.743964 
C 67.064417 78.324641 66.495614 78.089035 65.902601 78.089035 
C 65.309589 78.089035 64.740786 78.324641 64.321463 78.743964 
C 63.90214 79.163287 63.666533 79.732091 63.666533 80.325103 
C 63.666533 80.918115 63.90214 81.486919 64.321463 81.906242 
C 64.740786 82.325564 65.309589 82.561171 65.902601 82.561171 
z
" clip-path="url(#p3b9dc9c75b)" style="stroke: #000000"/>
    <path d="M 66.807648 68.365392 
C 67.40066 68.365392 67.969464 68.129786 68.388787 67.710463 
C 68.80811 67.29114 69.043716 66.722336 69.043716 66.129324 
C 69.043716 65.536312 68.80811 64.967508 68.388787 64.548185 
C 67.969464 64.128862 67.40066 63.893256 66.807648 63.893256 
C 66.214636 63.893256 65.645832 64.128862 65.226509 64.548185 
C 64.807186 64.967508 64.57158 65.536312 64.57158 66.129324 
C 64.57158 66.722336 64.807186 67.29114 65.226509 67.710463 
C 65.645832 68.129786 66.214636 68.365392 66.807648 68.365392 
z
" clip-path="url(#p3b9dc9c75b)" style="stroke: #000000"/>
    <path d="M 61.85166 51.558355 
C 61.85166 51.558355 61.85166 51.558355 61.85166 51.558355 
C 61.85166 51.558355 61.85166 51.558355 61.85166 51.558355 
C 61.85166 51.558355 61.85166 51.558355 61.85166 51.558355 
C 61.85166 51.558355 61.85166 51.558355 61.85166 51.558355 
C 61.85166 51.558355 61.85166 51.558355 61.85166 51.558355 
C 61.85166 51.558355 61.85166 51.558355 61.85166 51.558355 
C 61.85166 51.558355 61.85166 51.558355 61.85166 51.558355 
C 61.85166 51.558355 61.85166 51.558355 61.85166 51.558355 
z
" clip-path="url(#p3b9dc9c75b)" style="stroke: #000000"/>
    <path d="M 57.18596 47.624649 
C 57.318561 47.624649 57.44575 47.571966 57.539513 47.478202 
C 57.633277 47.384439 57.68596 47.257251 57.68596 47.124649 
C 57.68596 46.992048 57.633277 46.864859 57.539513 46.771096 
C 57.44575 46.677332 57.318561 46.624649 57.18596 46.624649 
C 57.053358 46.624649 56.92617 46.677332 56.832407 46.771096 
C 56.738643 46.864859 56.68596 46.992048 56.68596 47.124649 
C 56.68596 47.257251 56.738643 47.384439 56.832407 47.478202 
C 56.92617 47.571966 57.053358 47.624649 57.18596 47.624649 
z
" clip-path="url(#p3b9dc9c75b)" style="stroke: #000000"/>
    <path d="M 55.130815 42.323033 
C 55.723827 42.323033 56.29263 42.087427 56.711953 41.668104 
C 57.131276 41.248781 57.366882 40.679977 57.366882 40.086965 
C 57.366882 39.493953 57.131276 38.925149 56.711953 38.505826 
C 56.29263 38.086503 55.723827 37.850897 55.130815 37.850897 
C 54.537802 37.850897 53.968999 38.086503 53.549676 38.505826 
C 53.130353 38.925149 52.894747 39.493953 52.894747 40.086965 
C 52.894747 40.679977 53.130353 41.248781 53.549676 41.668104 
C 53.968999 42.087427 54.537802 42.323033 55.130815 42.323033 
z
" clip-path="url(#p3b9dc9c75b)" style="stroke: #000000"/>
    <path d="M 87.650668 179.007521 
C 87.808359 179.007521 87.959613 178.94487 88.071117 178.833366 
C 88.182621 178.721862 88.245272 178.570609 88.245272 178.412918 
C 88.245272 178.255227 88.182621 178.103974 88.071117 177.99247 
C 87.959613 177.880965 87.808359 177.818314 87.650668 177.818314 
C 87.492978 177.818314 87.341724 177.880965 87.23022 177.99247 
C 87.118716 178.103974 87.056065 178.255227 87.056065 178.412918 
C 87.056065 178.570609 87.118716 178.721862 87.23022 178.833366 
C 87.341724 178.94487 87.492978 179.007521 87.650668 179.007521 
z
" clip-path="url(#p3b9dc9c75b)" style="stroke: #000000"/>
    <path d="M 88.282001 168.082073 
C 88.875383 168.082073 89.444542 167.84632 89.864127 167.426735 
C 90.283712 167.007151 90.519465 166.437992 90.519465 165.844609 
C 90.519465 165.251227 90.283712 164.682068 89.864127 164.262483 
C 89.444542 163.842898 88.875383 163.607145 88.282001 163.607145 
C 87.688618 163.607145 87.119459 163.842898 86.699875 164.262483 
C 86.28029 164.682068 86.044537 165.251227 86.044537 165.844609 
C 86.044537 166.437992 86.28029 167.007151 86.699875 167.426735 
C 87.119459 167.84632 87.688618 168.082073 88.282001 168.082073 
z
" clip-path="url(#p3b9dc9c75b)" style="stroke: #000000"/>
    <path d="M 78.352262 156.439589 
C 78.945645 156.439589 79.514803 156.203835 79.934388 155.784251 
C 80.353973 155.364666 80.589726 154.795507 80.589726 154.202125 
C 80.589726 153.608742 80.353973 153.039583 79.934388 152.619998 
C 79.514803 152.200414 78.945645 151.96466 78.352262 151.96466 
C 77.75888 151.96466 77.189721 152.200414 76.770136 152.619998 
C 76.350551 153.039583 76.114798 153.608742 76.114798 154.202125 
C 76.114798 154.795507 76.350551 155.364666 76.770136 155.784251 
C 77.189721 156.203835 77.75888 156.439589 78.352262 156.439589 
z
" clip-path="url(#p3b9dc9c75b)" style="stroke: #000000"/>
    <path d="M 76.503196 147.063804 
C 77.03921 147.063804 77.553343 146.850843 77.932362 146.471824 
C 78.311382 146.092804 78.524343 145.578672 78.524343 145.042657 
C 78.524343 144.506643 78.311382 143.99251 77.932362 143.613491 
C 77.553343 143.234471 77.03921 143.021511 76.503196 143.021511 
C 75.967182 143.021511 75.453049 143.234471 75.074029 143.613491 
C 74.69501 143.99251 74.482049 144.506643 74.482049 145.042657 
C 74.482049 145.578672 74.69501 146.092804 75.074029 146.471824 
C 75.453049 146.850843 75.967182 147.063804 76.503196 147.063804 
z
" clip-path="url(#p3b9dc9c75b)" style="stroke: #000000"/>
    <path d="M 73.509132 137.692566 
C 74.102514 137.692566 74.671673 137.456813 75.091258 137.037228 
C 75.510843 136.617643 75.746596 136.048484 75.746596 135.455102 
C 75.746596 134.86172 75.510843 134.292561 75.091258 133.872976 
C 74.671673 133.453391 74.102514 133.217638 73.509132 133.217638 
C 72.91575 133.217638 72.346591 133.453391 71.927006 133.872976 
C 71.507421 134.292561 71.271668 134.86172 71.271668 135.455102 
C 71.271668 136.048484 71.507421 136.617643 71.927006 137.037228 
C 72.346591 137.456813 72.91575 137.692566 73.509132 137.692566 
z
" clip-path="url(#p3b9dc9c75b)" style="stroke: #000000"/>
    <path d="M 74.000182 126.526282 
C 74.593565 126.526282 75.162723 126.290529 75.582308 125.870944 
C 76.001893 125.45136 76.237646 124.882201 76.237646 124.288818 
C 76.237646 123.695436 76.001893 123.126277 75.582308 122.706692 
C 75.162723 122.287107 74.593565 122.051354 74.000182 122.051354 
C 73.4068 122.051354 72.837641 122.287107 72.418056 122.706692 
C 71.998471 123.126277 71.762718 123.695436 71.762718 124.288818 
C 71.762718 124.882201 71.998471 125.45136 72.418056 125.870944 
C 72.837641 126.290529 73.4068 126.526282 74.000182 126.526282 
z
" clip-path="url(#p3b9dc9c75b)" style="stroke: #000000"/>
    <path d="M 70.032702 113.734138 
C 70.625714 113.734138 71.194518 113.498532 71.613841 113.079209 
C 72.033164 112.659886 72.26877 112.091082 72.26877 111.49807 
C 72.26877 110.905058 72.033164 110.336254 71.613841 109.916931 
C 71.194518 109.497608 70.625714 109.262002 70.032702 109.262002 
C 69.43969 109.262002 68.870886 109.497608 68.451563 109.916931 
C 68.03224 110.336254 67.796634 110.905058 67.796634 111.49807 
C 67.796634 112.091082 68.03224 112.659886 68.451563 113.079209 
C 68.870886 113.498532 69.43969 113.734138 70.032702 113.734138 
z
" clip-path="url(#p3b9dc9c75b)" style="stroke: #000000"/>
    <path d="M 65.367789 105.551941 
C 65.960802 105.551941 66.529605 105.316335 66.948928 104.897012 
C 67.368251 104.477689 67.603857 103.908885 67.603857 103.315873 
C 67.603857 102.722861 67.368251 102.154057 66.948928 101.734734 
C 66.529605 101.315411 65.960802 101.079805 65.367789 101.079805 
C 64.774777 101.079805 64.205973 101.315411 63.786651 101.734734 
C 63.367328 102.154057 63.131721 102.722861 63.131721 103.315873 
C 63.131721 103.908885 63.367328 104.477689 63.786651 104.897012 
C 64.205973 105.316335 64.774777 105.551941 65.367789 105.551941 
z
" clip-path="url(#p3b9dc9c75b)" style="stroke: #000000"/>
    <path d="M 59.985527 94.960237 
C 60.57891 94.960237 61.148069 94.724484 61.567653 94.304899 
C 61.987238 93.885315 62.222991 93.316156 62.222991 92.722773 
C 62.222991 92.129391 61.987238 91.560232 61.567653 91.140647 
C 61.148069 90.721062 60.57891 90.485309 59.985527 90.485309 
C 59.392145 90.485309 58.822986 90.721062 58.403401 91.140647 
C 57.983816 91.560232 57.748063 92.129391 57.748063 92.722773 
C 57.748063 93.316156 57.983816 93.885315 58.403401 94.304899 
C 58.822986 94.724484 59.392145 94.960237 59.985527 94.960237 
z
" clip-path="url(#p3b9dc9c75b)" style="stroke: #000000"/>
    <path d="M 52.454887 84.650864 
C 52.991902 84.650864 53.506995 84.437506 53.886722 84.057779 
C 54.266449 83.678051 54.479808 83.162959 54.479808 82.625943 
C 54.479808 82.088928 54.266449 81.573835 53.886722 81.194108 
C 53.506995 80.814381 52.991902 80.601022 52.454887 80.601022 
C 51.917872 80.601022 51.402779 80.814381 51.023052 81.194108 
C 50.643324 81.573835 50.429966 82.088928 50.429966 82.625943 
C 50.429966 83.162959 50.643324 83.678051 51.023052 84.057779 
C 51.402779 84.437506 51.917872 84.650864 52.454887 84.650864 
z
" clip-path="url(#p3b9dc9c75b)" style="stroke: #000000"/>
    <path d="M 54.119895 75.534124 
C 54.712907 75.534124 55.281711 75.298517 55.701034 74.879194 
C 56.120357 74.459872 56.355963 73.891068 56.355963 73.298056 
C 56.355963 72.705043 56.120357 72.13624 55.701034 71.716917 
C 55.281711 71.297594 54.712907 71.061988 54.119895 71.061988 
C 53.526883 71.061988 52.958079 71.297594 52.538756 71.716917 
C 52.119433 72.13624 51.883827 72.705043 51.883827 73.298056 
C 51.883827 73.891068 52.119433 74.459872 52.538756 74.879194 
C 52.958079 75.298517 53.526883 75.534124 54.119895 75.534124 
z
" clip-path="url(#p3b9dc9c75b)" style="stroke: #000000"/>
    <path d="M 51.39991 64.766795 
C 51.874435 64.766795 52.329589 64.578264 52.66513 64.242723 
C 53.00067 63.907183 53.189201 63.452029 53.189201 62.977504 
C 53.189201 62.502978 53.00067 62.047824 52.66513 61.712284 
C 52.329589 61.376744 51.874435 61.188213 51.39991 61.188213 
C 50.925384 61.188213 50.47023 61.376744 50.13469 61.712284 
C 49.79915 62.047824 49.610619 62.502978 49.610619 62.977504 
C 49.610619 63.452029 49.79915 63.907183 50.13469 64.242723 
C 50.47023 64.578264 50.925384 64.766795 51.39991 64.766795 
z
" clip-path="url(#p3b9dc9c75b)" style="stroke: #000000"/>
    <path d="M 50.578927 54.761685 
C 50.578927 54.761685 50.578927 54.761685 50.578927 54.761685 
C 50.578927 54.761685 50.578927 54.761685 50.578927 54.761685 
C 50.578927 54.761685 50.578927 54.761685 50.578927 54.761685 
C 50.578927 54.761685 50.578927 54.761685 50.578927 54.761685 
C 50.578927 54.761685 50.578927 54.761685 50.578927 54.761685 
C 50.578927 54.761685 50.578927 54.761685 50.578927 54.761685 
C 50.578927 54.761685 50.578927 54.761685 50.578927 54.761685 
C 50.578927 54.761685 50.578927 54.761685 50.578927 54.761685 
z
" clip-path="url(#p3b9dc9c75b)" style="stroke: #000000"/>
    <path d="M 44.837371 42.030385 
C 45.430383 42.030385 45.999187 41.794778 46.41851 41.375456 
C 46.837833 40.956133 47.073439 40.387329 47.073439 39.794317 
C 47.073439 39.201305 46.837833 38.632501 46.41851 38.213178 
C 45.999187 37.793855 45.430383 37.558249 44.837371 37.558249 
C 44.244359 37.558249 43.675555 37.793855 43.256232 38.213178 
C 42.836909 38.632501 42.601303 39.201305 42.601303 39.794317 
C 42.601303 40.387329 42.836909 40.956133 43.256232 41.375456 
C 43.675555 41.794778 44.244359 42.030385 44.837371 42.030385 
z
" clip-path="url(#p3b9dc9c75b)" style="stroke: #000000"/>
    <path d="M 74.715744 172.38928 
C 75.309127 172.38928 75.878286 172.153527 76.29787 171.733942 
C 76.717455 171.314357 76.953208 170.745198 76.953208 170.151816 
C 76.953208 169.558433 76.717455 168.989274 76.29787 168.56969 
C 75.878286 168.150105 75.309127 167.914352 74.715744 167.914352 
C 74.122362 167.914352 73.553203 168.150105 73.133618 168.56969 
C 72.714033 168.989274 72.47828 169.558433 72.47828 170.151816 
C 72.47828 170.745198 72.714033 171.314357 73.133618 171.733942 
C 73.553203 172.153527 74.122362 172.38928 74.715744 172.38928 
z
" clip-path="url(#p3b9dc9c75b)" style="stroke: #000000"/>
    <path d="M 75.89064 158.562515 
C 75.89064 158.562515 75.89064 158.562515 75.89064 158.562515 
C 75.89064 158.562515 75.89064 158.562515 75.89064 158.562515 
C 75.89064 158.562515 75.89064 158.562515 75.89064 158.562515 
C 75.89064 158.562515 75.89064 158.562515 75.89064 158.562515 
C 75.89064 158.562515 75.89064 158.562515 75.89064 158.562515 
C 75.89064 158.562515 75.89064 158.562515 75.89064 158.562515 
C 75.89064 158.562515 75.89064 158.562515 75.89064 158.562515 
C 75.89064 158.562515 75.89064 158.562515 75.89064 158.562515 
z
" clip-path="url(#p3b9dc9c75b)" style="stroke: #000000"/>
    <path d="M 70.531989 148.084786 
C 71.125371 148.084786 71.69453 147.849032 72.114115 147.429448 
C 72.533699 147.009863 72.769453 146.440704 72.769453 145.847321 
C 72.769453 145.253939 72.533699 144.68478 72.114115 144.265195 
C 71.69453 143.845611 71.125371 143.609857 70.531989 143.609857 
C 69.938606 143.609857 69.369447 143.845611 68.949862 144.265195 
C 68.530278 144.68478 68.294524 145.253939 68.294524 145.847321 
C 68.294524 146.440704 68.530278 147.009863 68.949862 147.429448 
C 69.369447 147.849032 69.938606 148.084786 70.531989 148.084786 
z
" clip-path="url(#p3b9dc9c75b)" style="stroke: #000000"/>
    <path d="M 60.60597 137.914505 
C 61.199352 137.914505 61.768511 137.678752 62.188096 137.259167 
C 62.607681 136.839582 62.843434 136.270423 62.843434 135.677041 
C 62.843434 135.083658 62.607681 134.514499 62.188096 134.094915 
C 61.768511 133.67533 61.199352 133.439577 60.60597 133.439577 
C 60.012587 133.439577 59.443429 133.67533 59.023844 134.094915 
C 58.604259 134.514499 58.368506 135.083658 58.368506 135.677041 
C 58.368506 136.270423 58.604259 136.839582 59.023844 137.259167 
C 59.443429 137.678752 60.012587 137.914505 60.60597 137.914505 
z
" clip-path="url(#p3b9dc9c75b)" style="stroke: #000000"/>
    <path d="M 62.924507 130.211198 
C 63.51789 130.211198 64.087049 129.975445 64.506633 129.55586 
C 64.926218 129.136275 65.161972 128.567116 65.161972 127.973734 
C 65.161972 127.380352 64.926218 126.811193 64.506633 126.391608 
C 64.087049 125.972023 63.51789 125.73627 62.924507 125.73627 
C 62.331125 125.73627 61.761966 125.972023 61.342381 126.391608 
C 60.922796 126.811193 60.687043 127.380352 60.687043 127.973734 
C 60.687043 128.567116 60.922796 129.136275 61.342381 129.55586 
C 61.761966 129.975445 62.331125 130.211198 62.924507 130.211198 
z
" clip-path="url(#p3b9dc9c75b)" style="stroke: #000000"/>
    <path d="M 55.660049 117.570429 
C 56.152357 117.570429 56.624567 117.374833 56.972682 117.026719 
C 57.320796 116.678605 57.516392 116.206394 57.516392 115.714086 
C 57.516392 115.221778 57.320796 114.749567 56.972682 114.401452 
C 56.624567 114.053338 56.152357 113.857742 55.660049 113.857742 
C 55.16774 113.857742 54.69553 114.053338 54.347415 114.401452 
C 53.999301 114.749567 53.803705 115.221778 53.803705 115.714086 
C 53.803705 116.206394 53.999301 116.678605 54.347415 117.026719 
C 54.69553 117.374833 55.16774 117.570429 55.660049 117.570429 
z
" clip-path="url(#p3b9dc9c75b)" style="stroke: #000000"/>
    <path d="M 52.081171 109.148996 
C 52.674183 109.148996 53.242987 108.913389 53.66231 108.494066 
C 54.081633 108.074744 54.317239 107.50594 54.317239 106.912928 
C 54.317239 106.319915 54.081633 105.751112 53.66231 105.331789 
C 53.242987 104.912466 52.674183 104.67686 52.081171 104.67686 
C 51.488159 104.67686 50.919355 104.912466 50.500032 105.331789 
C 50.080709 105.751112 49.845103 106.319915 49.845103 106.912928 
C 49.845103 107.50594 50.080709 108.074744 50.500032 108.494066 
C 50.919355 108.913389 51.488159 109.148996 52.081171 109.148996 
z
" clip-path="url(#p3b9dc9c75b)" style="stroke: #000000"/>
    <path d="M 49.429479 102.103843 
C 50.022491 102.103843 50.591295 101.868237 51.010617 101.448914 
C 51.42994 101.029591 51.665547 100.460787 51.665547 99.867775 
C 51.665547 99.274763 51.42994 98.705959 51.010617 98.286636 
C 50.591295 97.867314 50.022491 97.631707 49.429479 97.631707 
C 48.836466 97.631707 48.267663 97.867314 47.84834 98.286636 
C 47.429017 98.705959 47.193411 99.274763 47.193411 99.867775 
C 47.193411 100.460787 47.429017 101.029591 47.84834 101.448914 
C 48.267663 101.868237 48.836466 102.103843 49.429479 102.103843 
z
" clip-path="url(#p3b9dc9c75b)" style="stroke: #000000"/>
    <path d="M 47.98028 84.869673 
C 47.98028 84.869673 47.98028 84.869673 47.98028 84.869673 
C 47.98028 84.869673 47.98028 84.869673 47.98028 84.869673 
C 47.98028 84.869673 47.98028 84.869673 47.98028 84.869673 
C 47.98028 84.869673 47.98028 84.869673 47.98028 84.869673 
C 47.98028 84.869673 47.98028 84.869673 47.98028 84.869673 
C 47.98028 84.869673 47.98028 84.869673 47.98028 84.869673 
C 47.98028 84.869673 47.98028 84.869673 47.98028 84.869673 
C 47.98028 84.869673 47.98028 84.869673 47.98028 84.869673 
z
" clip-path="url(#p3b9dc9c75b)" style="stroke: #000000"/>
    <path d="M 42.56556 73.439618 
C 42.56556 73.439618 42.56556 73.439618 42.56556 73.439618 
C 42.56556 73.439618 42.56556 73.439618 42.56556 73.439618 
C 42.56556 73.439618 42.56556 73.439618 42.56556 73.439618 
C 42.56556 73.439618 42.56556 73.439618 42.56556 73.439618 
C 42.56556 73.439618 42.56556 73.439618 42.56556 73.439618 
C 42.56556 73.439618 42.56556 73.439618 42.56556 73.439618 
C 42.56556 73.439618 42.56556 73.439618 42.56556 73.439618 
C 42.56556 73.439618 42.56556 73.439618 42.56556 73.439618 
z
" clip-path="url(#p3b9dc9c75b)" style="stroke: #000000"/>
    <path d="M 41.004675 67.33815 
C 41.598058 67.33815 42.167217 67.102397 42.586801 66.682812 
C 43.006386 66.263228 43.242139 65.694069 43.242139 65.100686 
C 43.242139 64.507304 43.006386 63.938145 42.586801 63.51856 
C 42.167217 63.098975 41.598058 62.863222 41.004675 62.863222 
C 40.411293 62.863222 39.842134 63.098975 39.422549 63.51856 
C 39.002964 63.938145 38.767211 64.507304 38.767211 65.100686 
C 38.767211 65.694069 39.002964 66.263228 39.422549 66.682812 
C 39.842134 67.102397 40.411293 67.33815 41.004675 67.33815 
z
" clip-path="url(#p3b9dc9c75b)" style="stroke: #000000"/>
    <path d="M 66.972563 170.4382 
C 67.565946 170.4382 68.135105 170.202447 68.554689 169.782862 
C 68.974274 169.363277 69.210027 168.794118 69.210027 168.200736 
C 69.210027 167.607353 68.974274 167.038194 68.554689 166.61861 
C 68.135105 166.199025 67.565946 165.963271 66.972563 165.963271 
C 66.379181 165.963271 65.810022 166.199025 65.390437 166.61861 
C 64.970852 167.038194 64.735099 167.607353 64.735099 168.200736 
C 64.735099 168.794118 64.970852 169.363277 65.390437 169.782862 
C 65.810022 170.202447 66.379181 170.4382 66.972563 170.4382 
z
" clip-path="url(#p3b9dc9c75b)" style="stroke: #000000"/>
    <path d="M 60.194636 166.944442 
C 60.788018 166.944442 61.357177 166.708689 61.776762 166.289104 
C 62.196347 165.869519 62.4321 165.30036 62.4321 164.706978 
C 62.4321 164.113595 62.196347 163.544437 61.776762 163.124852 
C 61.357177 162.705267 60.788018 162.469514 60.194636 162.469514 
C 59.601253 162.469514 59.032095 162.705267 58.61251 163.124852 
C 58.192925 163.544437 57.957172 164.113595 57.957172 164.706978 
C 57.957172 165.30036 58.192925 165.869519 58.61251 166.289104 
C 59.032095 166.708689 59.601253 166.944442 60.194636 166.944442 
z
" clip-path="url(#p3b9dc9c75b)" style="stroke: #000000"/>
    <path d="M 58.487872 151.967665 
C 59.081254 151.967665 59.650413 151.731911 60.069998 151.312327 
C 60.489582 150.892742 60.725336 150.323583 60.725336 149.730201 
C 60.725336 149.136818 60.489582 148.567659 60.069998 148.148074 
C 59.650413 147.72849 59.081254 147.492736 58.487872 147.492736 
C 57.894489 147.492736 57.32533 147.72849 56.905745 148.148074 
C 56.486161 148.567659 56.250407 149.136818 56.250407 149.730201 
C 56.250407 150.323583 56.486161 150.892742 56.905745 151.312327 
C 57.32533 151.731911 57.894489 151.967665 58.487872 151.967665 
z
" clip-path="url(#p3b9dc9c75b)" style="stroke: #000000"/>
    <path d="M 52.61287 143.365077 
C 53.206252 143.365077 53.775411 143.129324 54.194996 142.709739 
C 54.614581 142.290154 54.850334 141.720995 54.850334 141.127613 
C 54.850334 140.534231 54.614581 139.965072 54.194996 139.545487 
C 53.775411 139.125902 53.206252 138.890149 52.61287 138.890149 
C 52.019487 138.890149 51.450329 139.125902 51.030744 139.545487 
C 50.611159 139.965072 50.375406 140.534231 50.375406 141.127613 
C 50.375406 141.720995 50.611159 142.290154 51.030744 142.709739 
C 51.450329 143.129324 52.019487 143.365077 52.61287 143.365077 
z
" clip-path="url(#p3b9dc9c75b)" style="stroke: #000000"/>
    <path d="M 49.206024 134.478461 
C 49.799406 134.478461 50.368565 134.242708 50.78815 133.823123 
C 51.207735 133.403539 51.443488 132.83438 51.443488 132.240997 
C 51.443488 131.647615 51.207735 131.078456 50.78815 130.658871 
C 50.368565 130.239286 49.799406 130.003533 49.206024 130.003533 
C 48.612641 130.003533 48.043482 130.239286 47.623898 130.658871 
C 47.204313 131.078456 46.968559 131.647615 46.968559 132.240997 
C 46.968559 132.83438 47.204313 133.403539 47.623898 133.823123 
C 48.043482 134.242708 48.612641 134.478461 49.206024 134.478461 
z
" clip-path="url(#p3b9dc9c75b)" style="stroke: #000000"/>
    <path d="M 47.304686 115.328781 
C 47.304686 115.328781 47.304686 115.328781 47.304686 115.328781 
C 47.304686 115.328781 47.304686 115.328781 47.304686 115.328781 
C 47.304686 115.328781 47.304686 115.328781 47.304686 115.328781 
C 47.304686 115.328781 47.304686 115.328781 47.304686 115.328781 
C 47.304686 115.328781 47.304686 115.328781 47.304686 115.328781 
C 47.304686 115.328781 47.304686 115.328781 47.304686 115.328781 
C 47.304686 115.328781 47.304686 115.328781 47.304686 115.328781 
C 47.304686 115.328781 47.304686 115.328781 47.304686 115.328781 
z
" clip-path="url(#p3b9dc9c75b)" style="stroke: #000000"/>
    <path d="M 40.291359 110.581548 
C 40.827373 110.581548 41.341506 110.368587 41.720525 109.989568 
C 42.099545 109.610548 42.312505 109.096416 42.312505 108.560401 
C 42.312505 108.024387 42.099545 107.510254 41.720525 107.131235 
C 41.341506 106.752215 40.827373 106.539255 40.291359 106.539255 
C 39.755344 106.539255 39.241212 106.752215 38.862192 107.131235 
C 38.483173 107.510254 38.270212 108.024387 38.270212 108.560401 
C 38.270212 109.096416 38.483173 109.610548 38.862192 109.989568 
C 39.241212 110.368587 39.755344 110.581548 40.291359 110.581548 
z
" clip-path="url(#p3b9dc9c75b)" style="stroke: #000000"/>
    <path d="M 39.356505 104.842463 
C 39.949887 104.842463 40.519046 104.606709 40.938631 104.187125 
C 41.358216 103.76754 41.593969 103.198381 41.593969 102.604999 
C 41.593969 102.011616 41.358216 101.442457 40.938631 101.022872 
C 40.519046 100.603288 39.949887 100.367534 39.356505 100.367534 
C 38.763122 100.367534 38.193964 100.603288 37.774379 101.022872 
C 37.354794 101.442457 37.119041 102.011616 37.119041 102.604999 
C 37.119041 103.198381 37.354794 103.76754 37.774379 104.187125 
C 38.193964 104.606709 38.763122 104.842463 39.356505 104.842463 
z
" clip-path="url(#p3b9dc9c75b)" style="stroke: #000000"/>
    <path d="M 33.353701 91.531204 
C 33.946713 91.531204 34.515517 91.295597 34.93484 90.876275 
C 35.354162 90.456952 35.589769 89.888148 35.589769 89.295136 
C 35.589769 88.702124 35.354162 88.13332 34.93484 87.713997 
C 34.515517 87.294674 33.946713 87.059068 33.353701 87.059068 
C 32.760689 87.059068 32.191885 87.294674 31.772562 87.713997 
C 31.353239 88.13332 31.117633 88.702124 31.117633 89.295136 
C 31.117633 89.888148 31.353239 90.456952 31.772562 90.876275 
C 32.191885 91.295597 32.760689 91.531204 33.353701 91.531204 
z
" clip-path="url(#p3b9dc9c75b)" style="stroke: #000000"/>
    <path d="M 35.445345 84.825787 
C 36.038727 84.825787 36.607886 84.590033 37.027471 84.170449 
C 37.447056 83.750864 37.682809 83.181705 37.682809 82.588322 
C 37.682809 81.99494 37.447056 81.425781 37.027471 81.006196 
C 36.607886 80.586612 36.038727 80.350858 35.445345 80.350858 
C 34.851962 80.350858 34.282803 80.586612 33.863219 81.006196 
C 33.443634 81.425781 33.20788 81.99494 33.20788 82.588322 
C 33.20788 83.181705 33.443634 83.750864 33.863219 84.170449 
C 34.282803 84.590033 34.851962 84.825787 35.445345 84.825787 
z
" clip-path="url(#p3b9dc9c75b)" style="stroke: #000000"/>
    <path d="M 47.943633 164.078462 
C 47.943633 164.078462 47.943633 164.078462 47.943633 164.078462 
C 47.943633 164.078462 47.943633 164.078462 47.943633 164.078462 
C 47.943633 164.078462 47.943633 164.078462 47.943633 164.078462 
C 47.943633 164.078462 47.943633 164.078462 47.943633 164.078462 
C 47.943633 164.078462 47.943633 164.078462 47.943633 164.078462 
C 47.943633 164.078462 47.943633 164.078462 47.943633 164.078462 
C 47.943633 164.078462 47.943633 164.078462 47.943633 164.078462 
C 47.943633 164.078462 47.943633 164.078462 47.943633 164.078462 
z
" clip-path="url(#p3b9dc9c75b)" style="stroke: #000000"/>
    <path d="M 46.670321 159.502514 
C 47.263703 159.502514 47.832862 159.266761 48.252447 158.847176 
C 48.672032 158.427591 48.907785 157.858433 48.907785 157.26505 
C 48.907785 156.671668 48.672032 156.102509 48.252447 155.682924 
C 47.832862 155.263339 47.263703 155.027586 46.670321 155.027586 
C 46.076938 155.027586 45.507779 155.263339 45.088195 155.682924 
C 44.66861 156.102509 44.432857 156.671668 44.432857 157.26505 
C 44.432857 157.858433 44.66861 158.427591 45.088195 158.847176 
C 45.507779 159.266761 46.076938 159.502514 46.670321 159.502514 
z
" clip-path="url(#p3b9dc9c75b)" style="stroke: #000000"/>
    <path d="M 42.738166 142.546607 
C 42.738166 142.546607 42.738166 142.546607 42.738166 142.546607 
C 42.738166 142.546607 42.738166 142.546607 42.738166 142.546607 
C 42.738166 142.546607 42.738166 142.546607 42.738166 142.546607 
C 42.738166 142.546607 42.738166 142.546607 42.738166 142.546607 
C 42.738166 142.546607 42.738166 142.546607 42.738166 142.546607 
C 42.738166 142.546607 42.738166 142.546607 42.738166 142.546607 
C 42.738166 142.546607 42.738166 142.546607 42.738166 142.546607 
C 42.738166 142.546607 42.738166 142.546607 42.738166 142.546607 
z
" clip-path="url(#p3b9dc9c75b)" style="stroke: #000000"/>
    <path d="M 38.175964 133.874299 
C 38.711979 133.874299 39.226112 133.661338 39.605131 133.282319 
C 39.98415 132.9033 40.197111 132.389167 40.197111 131.853153 
C 40.197111 131.317138 39.98415 130.803006 39.605131 130.423986 
C 39.226112 130.044967 38.711979 129.832006 38.175964 129.832006 
C 37.63995 129.832006 37.125817 130.044967 36.746798 130.423986 
C 36.367779 130.803006 36.154818 131.317138 36.154818 131.853153 
C 36.154818 132.389167 36.367779 132.9033 36.746798 133.282319 
C 37.125817 133.661338 37.63995 133.874299 38.175964 133.874299 
z
" clip-path="url(#p3b9dc9c75b)" style="stroke: #000000"/>
    <path d="M 34.944921 126.610362 
C 35.538304 126.610362 36.107463 126.374608 36.527047 125.955024 
C 36.946632 125.535439 37.182385 124.96628 37.182385 124.372898 
C 37.182385 123.779515 36.946632 123.210356 36.527047 122.790771 
C 36.107463 122.371187 35.538304 122.135433 34.944921 122.135433 
C 34.351539 122.135433 33.78238 122.371187 33.362795 122.790771 
C 32.94321 123.210356 32.707457 123.779515 32.707457 124.372898 
C 32.707457 124.96628 32.94321 125.535439 33.362795 125.955024 
C 33.78238 126.374608 34.351539 126.610362 34.944921 126.610362 
z
" clip-path="url(#p3b9dc9c75b)" style="stroke: #000000"/>
    <path d="M 34.359351 111.562717 
C 34.359351 111.562717 34.359351 111.562717 34.359351 111.562717 
C 34.359351 111.562717 34.359351 111.562717 34.359351 111.562717 
C 34.359351 111.562717 34.359351 111.562717 34.359351 111.562717 
C 34.359351 111.562717 34.359351 111.562717 34.359351 111.562717 
C 34.359351 111.562717 34.359351 111.562717 34.359351 111.562717 
C 34.359351 111.562717 34.359351 111.562717 34.359351 111.562717 
C 34.359351 111.562717 34.359351 111.562717 34.359351 111.562717 
C 34.359351 111.562717 34.359351 111.562717 34.359351 111.562717 
z
" clip-path="url(#p3b9dc9c75b)" style="stroke: #000000"/>
    <path d="M 44.359923 175.302878 
C 44.517614 175.302878 44.668867 175.240227 44.780371 175.128722 
C 44.891876 175.017218 44.954527 174.865965 44.954527 174.708274 
C 44.954527 174.550584 44.891876 174.39933 44.780371 174.287826 
C 44.668867 174.176322 44.517614 174.113671 44.359923 174.113671 
C 44.202233 174.113671 44.050979 174.176322 43.939475 174.287826 
C 43.827971 174.39933 43.76532 174.550584 43.76532 174.708274 
C 43.76532 174.865965 43.827971 175.017218 43.939475 175.128722 
C 44.050979 175.240227 44.202233 175.302878 44.359923 175.302878 
z
" clip-path="url(#p3b9dc9c75b)" style="stroke: #000000"/>
    <path d="M 41.646471 168.985049 
C 41.646471 168.985049 41.646471 168.985049 41.646471 168.985049 
C 41.646471 168.985049 41.646471 168.985049 41.646471 168.985049 
C 41.646471 168.985049 41.646471 168.985049 41.646471 168.985049 
C 41.646471 168.985049 41.646471 168.985049 41.646471 168.985049 
C 41.646471 168.985049 41.646471 168.985049 41.646471 168.985049 
C 41.646471 168.985049 41.646471 168.985049 41.646471 168.985049 
C 41.646471 168.985049 41.646471 168.985049 41.646471 168.985049 
C 41.646471 168.985049 41.646471 168.985049 41.646471 168.985049 
z
" clip-path="url(#p3b9dc9c75b)" style="stroke: #000000"/>
    <path d="M 34.534 156.55206 
C 34.534 156.55206 34.534 156.55206 34.534 156.55206 
C 34.534 156.55206 34.534 156.55206 34.534 156.55206 
C 34.534 156.55206 34.534 156.55206 34.534 156.55206 
C 34.534 156.55206 34.534 156.55206 34.534 156.55206 
C 34.534 156.55206 34.534 156.55206 34.534 156.55206 
C 34.534 156.55206 34.534 156.55206 34.534 156.55206 
C 34.534 156.55206 34.534 156.55206 34.534 156.55206 
C 34.534 156.55206 34.534 156.55206 34.534 156.55206 
z
" clip-path="url(#p3b9dc9c75b)" style="stroke: #000000"/>
    <path d="M 33.380609 149.400905 
C 33.973621 149.400905 34.542425 149.165299 34.961748 148.745976 
C 35.38107 148.326653 35.616677 147.757849 35.616677 147.164837 
C 35.616677 146.571825 35.38107 146.003021 34.961748 145.583698 
C 34.542425 145.164375 33.973621 144.928769 33.380609 144.928769 
C 32.787597 144.928769 32.218793 145.164375 31.79947 145.583698 
C 31.380147 146.003021 31.144541 146.571825 31.144541 147.164837 
C 31.144541 147.757849 31.380147 148.326653 31.79947 148.745976 
C 32.218793 149.165299 32.787597 149.400905 33.380609 149.400905 
z
" clip-path="url(#p3b9dc9c75b)" style="stroke: #000000"/>
    <path d="M 28.697044 138.156067 
C 29.290427 138.156067 29.859586 137.920314 30.27917 137.500729 
C 30.698755 137.081144 30.934509 136.511985 30.934509 135.918603 
C 30.934509 135.32522 30.698755 134.756061 30.27917 134.336477 
C 29.859586 133.916892 29.290427 133.681138 28.697044 133.681138 
C 28.103662 133.681138 27.534503 133.916892 27.114918 134.336477 
C 26.695333 134.756061 26.45958 135.32522 26.45958 135.918603 
C 26.45958 136.511985 26.695333 137.081144 27.114918 137.500729 
C 27.534503 137.920314 28.103662 138.156067 28.697044 138.156067 
z
" clip-path="url(#p3b9dc9c75b)" style="stroke: #000000"/>
   </g>
   <g id="matplotlib.axis_1">
    <g id="xtick_1">
     <g id="line2d_1">
      <defs>
       <path id="ma97bf5e360" d="M 0 0 
L 0 3.5 
" style="stroke: #000000; stroke-width: 0.8"/>
      </defs>
      <g>
       <use xlink:href="#ma97bf5e360" x="18" y="189" style="stroke: #000000; stroke-width: 0.8"/>
      </g>
     </g>
     <g id="text_1">
      <!-- 10 -->
      <g transform="translate(7.447656 203.598437)scale(0.1 -0.1)">
       <defs>
        <path id="DejaVuSans-2212" d="M 678 2272 
L 4684 2272 
L 4684 1741 
L 678 1741 
L 678 2272 
z
" transform="scale(0.015625)"/>
        <path id="DejaVuSans-31" d="M 794 531 
L 1825 531 
L 1825 4091 
L 703 3866 
L 703 4441 
L 1819 4666 
L 2450 4666 
L 2450 531 
L 3481 531 
L 3481 0 
L 794 0 
L 794 531 
z
" transform="scale(0.015625)"/>
        <path id="DejaVuSans-30" d="M 2034 4250 
Q 1547 4250 1301 3770 
Q 1056 3291 1056 2328 
Q 1056 1369 1301 889 
Q 1547 409 2034 409 
Q 2525 409 2770 889 
Q 3016 1369 3016 2328 
Q 3016 3291 2770 3770 
Q 2525 4250 2034 4250 
z
M 2034 4750 
Q 2819 4750 3233 4129 
Q 3647 3509 3647 2328 
Q 3647 1150 3233 529 
Q 2819 -91 2034 -91 
Q 1250 -91 836 529 
Q 422 1150 422 2328 
Q 422 3509 836 4129 
Q 1250 4750 2034 4750 
z
" transform="scale(0.015625)"/>
       </defs>
       <use xlink:href="#DejaVuSans-2212"/>
       <use xlink:href="#DejaVuSans-31" x="83.789062"/>
       <use xlink:href="#DejaVuSans-30" x="147.412109"/>
      </g>
     </g>
    </g>
    <g id="xtick_2">
     <g id="line2d_2">
      <g>
       <use xlink:href="#ma97bf5e360" x="73.8" y="189" style="stroke: #000000; stroke-width: 0.8"/>
      </g>
     </g>
     <g id="text_2">
      <!-- 0 -->
      <g transform="translate(70.61875 203.598437)scale(0.1 -0.1)">
       <use xlink:href="#DejaVuSans-30"/>
      </g>
     </g>
    </g>
    <g id="xtick_3">
     <g id="line2d_3">
      <g>
       <use xlink:href="#ma97bf5e360" x="129.6" y="189" style="stroke: #000000; stroke-width: 0.8"/>
      </g>
     </g>
     <g id="text_3">
      <!-- 10 -->
      <g transform="translate(123.2375 203.598437)scale(0.1 -0.1)">
       <use xlink:href="#DejaVuSans-31"/>
       <use xlink:href="#DejaVuSans-30" x="63.623047"/>
      </g>
     </g>
    </g>
   </g>
   <g id="matplotlib.axis_2">
    <g id="ytick_1">
     <g id="line2d_4">
      <defs>
       <path id="m7a1c85aab4" d="M 0 0 
L -3.5 0 
" style="stroke: #000000; stroke-width: 0.8"/>
      </defs>
      <g>
       <use xlink:href="#m7a1c85aab4" x="18" y="189" style="stroke: #000000; stroke-width: 0.8"/>
      </g>
     </g>
     <g id="text_4">
      <!-- 15 -->
      <g transform="translate(-10.104688 192.799219)scale(0.1 -0.1)">
       <defs>
        <path id="DejaVuSans-35" d="M 691 4666 
L 3169 4666 
L 3169 4134 
L 1269 4134 
L 1269 2991 
Q 1406 3038 1543 3061 
Q 1681 3084 1819 3084 
Q 2600 3084 3056 2656 
Q 3513 2228 3513 1497 
Q 3513 744 3044 326 
Q 2575 -91 1722 -91 
Q 1428 -91 1123 -41 
Q 819 9 494 109 
L 494 744 
Q 775 591 1075 516 
Q 1375 441 1709 441 
Q 2250 441 2565 725 
Q 2881 1009 2881 1497 
Q 2881 1984 2565 2268 
Q 2250 2553 1709 2553 
Q 1456 2553 1204 2497 
Q 953 2441 691 2322 
L 691 4666 
z
" transform="scale(0.015625)"/>
       </defs>
       <use xlink:href="#DejaVuSans-2212"/>
       <use xlink:href="#DejaVuSans-31" x="83.789062"/>
       <use xlink:href="#DejaVuSans-35" x="147.412109"/>
      </g>
     </g>
    </g>
    <g id="ytick_2">
     <g id="line2d_5">
      <g>
       <use xlink:href="#m7a1c85aab4" x="18" y="161.82" style="stroke: #000000; stroke-width: 0.8"/>
      </g>
     </g>
     <g id="text_5">
      <!-- 10 -->
      <g transform="translate(-10.104688 165.619219)scale(0.1 -0.1)">
       <use xlink:href="#DejaVuSans-2212"/>
       <use xlink:href="#DejaVuSans-31" x="83.789062"/>
       <use xlink:href="#DejaVuSans-30" x="147.412109"/>
      </g>
     </g>
    </g>
    <g id="ytick_3">
     <g id="line2d_6">
      <g>
       <use xlink:href="#m7a1c85aab4" x="18" y="134.64" style="stroke: #000000; stroke-width: 0.8"/>
      </g>
     </g>
     <g id="text_6">
      <!-- 5 -->
      <g transform="translate(-3.742188 138.439219)scale(0.1 -0.1)">
       <use xlink:href="#DejaVuSans-2212"/>
       <use xlink:href="#DejaVuSans-35" x="83.789062"/>
      </g>
     </g>
    </g>
    <g id="ytick_4">
     <g id="line2d_7">
      <g>
       <use xlink:href="#m7a1c85aab4" x="18" y="107.46" style="stroke: #000000; stroke-width: 0.8"/>
      </g>
     </g>
     <g id="text_7">
      <!-- 0 -->
      <g transform="translate(4.6375 111.259219)scale(0.1 -0.1)">
       <use xlink:href="#DejaVuSans-30"/>
      </g>
     </g>
    </g>
    <g id="ytick_5">
     <g id="line2d_8">
      <g>
       <use xlink:href="#m7a1c85aab4" x="18" y="80.28" style="stroke: #000000; stroke-width: 0.8"/>
      </g>
     </g>
     <g id="text_8">
      <!-- 5 -->
      <g transform="translate(4.6375 84.079219)scale(0.1 -0.1)">
       <use xlink:href="#DejaVuSans-35"/>
      </g>
     </g>
    </g>
    <g id="ytick_6">
     <g id="line2d_9">
      <g>
       <use xlink:href="#m7a1c85aab4" x="18" y="53.1" style="stroke: #000000; stroke-width: 0.8"/>
      </g>
     </g>
     <g id="text_9">
      <!-- 10 -->
      <g transform="translate(-1.725 56.899219)scale(0.1 -0.1)">
       <use xlink:href="#DejaVuSans-31"/>
       <use xlink:href="#DejaVuSans-30" x="63.623047"/>
      </g>
     </g>
    </g>
    <g id="ytick_7">
     <g id="line2d_10">
      <g>
       <use xlink:href="#m7a1c85aab4" x="18" y="25.92" style="stroke: #000000; stroke-width: 0.8"/>
      </g>
     </g>
     <g id="text_10">
      <!-- 15 -->
      <g transform="translate(-1.725 29.719219)scale(0.1 -0.1)">
       <use xlink:href="#DejaVuSans-31"/>
       <use xlink:href="#DejaVuSans-35" x="63.623047"/>
      </g>
     </g>
    </g>
   </g>
   <g id="patch_3">
    <path d="M 18 189 
L 18 25.92 
" style="fill: none; stroke: #000000; stroke-width: 0.8; stroke-linejoin: miter; stroke-linecap: square"/>
   </g>
   <g id="patch_4">
    <path d="M 129.6 189 
L 129.6 25.92 
" style="fill: none; stroke: #000000; stroke-width: 0.8; stroke-linejoin: miter; stroke-linecap: square"/>
   </g>
   <g id="patch_5">
    <path d="M 18 189 
L 129.6 189 
" style="fill: none; stroke: #000000; stroke-width: 0.8; stroke-linejoin: miter; stroke-linecap: square"/>
   </g>
   <g id="patch_6">
    <path d="M 18 25.92 
L 129.6 25.92 
" style="fill: none; stroke: #000000; stroke-width: 0.8; stroke-linejoin: miter; stroke-linecap: square"/>
   </g>
  </g>
 </g>
 <defs>
  <clipPath id="p3b9dc9c75b">
   <rect x="18" y="25.92" width="111.6" height="163.08"/>
  </clipPath>
 </defs>
</svg>
