<?xml version="1.0" encoding="utf-8" standalone="no"?>
<!DOCTYPE svg PUBLIC "-//W3C//DTD SVG 1.1//EN"
  "http://www.w3.org/Graphics/SVG/1.1/DTD/svg11.dtd">
<svg xmlns:xlink="http://www.w3.org/1999/xlink" width="144pt" height="216pt" viewBox="0 0 144 216" xmlns="http://www.w3.org/2000/svg" version="1.1">
 <metadata>
  <rdf:RDF xmlns:dc="http://purl.org/dc/elements/1.1/" xmlns:cc="http://creativecommons.org/ns#" xmlns:rdf="http://www.w3.org/1999/02/22-rdf-syntax-ns#">
   <cc:Work>
    <dc:type rdf:resource="http://purl.org/dc/dcmitype/StillImage"/>
    <dc:date>2022-06-23T14:46:36.361106</dc:date>
    <dc:format>image/svg+xml</dc:format>
    <dc:creator>
     <cc:Agent>
      <dc:title>Matplotlib v3.5.1, https://matplotlib.org/</dc:title>
     </cc:Agent>
    </dc:creator>
   </cc:Work>
  </rdf:RDF>
 </metadata>
 <defs>
  <style type="text/css">*{stroke-linejoin: round; stroke-linecap: butt}</style>
 </defs>
 <g id="figure_1">
  <g id="patch_1">
   <path d="M 0 216 
L 144 216 
L 144 0 
L 0 0 
L 0 216 
z
" style="fill: none"/>
  </g>
  <g id="axes_1">
   <g id="patch_2">
    <path d="M 18 189 
L 129.6 189 
L 129.6 25.92 
L 18 25.92 
z
" style="fill: #ffffff"/>
   </g>
   <g id="PathCollection_1">
    <defs>
     <path id="me37487de68" d="M 0 2.738613 
C 0.726289 2.738613 1.422928 2.450055 1.936492 1.936492 
C 2.450055 1.422928 2.738613 0.726289 2.738613 0 
C 2.738613 -0.726289 2.450055 -1.422928 1.936492 -1.936492 
C 1.422928 -2.450055 0.726289 -2.738613 0 -2.738613 
C -0.726289 -2.738613 -1.422928 -2.450055 -1.936492 -1.936492 
C -2.450055 -1.422928 -2.738613 -0.726289 -2.738613 0 
C -2.738613 0.726289 -2.450055 1.422928 -1.936492 1.936492 
C -1.422928 2.450055 -0.726289 2.738613 0 2.738613 
z
" style="stroke: #ff0000; stroke-width: 1.75"/>
    </defs>
    <g clip-path="url(#pc6ab04e1fb)">
     <use xlink:href="#me37487de68" x="80.775" y="83.92143" style="fill: #ff0000; stroke: #ff0000; stroke-width: 1.75"/>
     <use xlink:href="#me37487de68" x="59.85" y="95.690715" style="fill: #ff0000; stroke: #ff0000; stroke-width: 1.75"/>
     <use xlink:href="#me37487de68" x="66.825" y="107.46" style="fill: #ff0000; stroke: #ff0000; stroke-width: 1.75"/>
     <use xlink:href="#me37487de68" x="80.775" y="107.46" style="fill: #ff0000; stroke: #ff0000; stroke-width: 1.75"/>
     <use xlink:href="#me37487de68" x="94.725" y="107.46" style="fill: #ff0000; stroke: #ff0000; stroke-width: 1.75"/>
     <use xlink:href="#me37487de68" x="59.85" y="119.229285" style="fill: #ff0000; stroke: #ff0000; stroke-width: 1.75"/>
     <use xlink:href="#me37487de68" x="80.775" y="130.99857" style="fill: #ff0000; stroke: #ff0000; stroke-width: 1.75"/>
    </g>
   </g>
   <g id="PathCollection_2">
    <defs>
     <path id="C0_0_ad74e27c4c" d="M 0 2.738613 
C 0.726289 2.738613 1.422928 2.450055 1.936492 1.936492 
C 2.450055 1.422928 2.738613 0.726289 2.738613 -0 
C 2.738613 -0.726289 2.450055 -1.422928 1.936492 -1.936492 
C 1.422928 -2.450055 0.726289 -2.738613 0 -2.738613 
C -0.726289 -2.738613 -1.422928 -2.450055 -1.936492 -1.936492 
C -2.450055 -1.422928 -2.738613 -0.726289 -2.738613 0 
C -2.738613 0.726289 -2.450055 1.422928 -1.936492 1.936492 
C -1.422928 2.450055 -0.726289 2.738613 0 2.738613 
z
"/>
    </defs>
    <g clip-path="url(#pc6ab04e1fb)">
     <use xlink:href="#C0_0_ad74e27c4c" x="66.825" y="83.92143" style="fill: none; stroke: #ff0000; stroke-width: 1.75"/>
    </g>
    <g clip-path="url(#pc6ab04e1fb)">
     <use xlink:href="#C0_0_ad74e27c4c" x="73.8" y="95.690715" style="fill: none; stroke: #ff0000; stroke-width: 1.75"/>
    </g>
    <g clip-path="url(#pc6ab04e1fb)">
     <use xlink:href="#C0_0_ad74e27c4c" x="87.75" y="95.690715" style="fill: none; stroke: #ff0000; stroke-width: 1.75"/>
    </g>
    <g clip-path="url(#pc6ab04e1fb)">
     <use xlink:href="#C0_0_ad74e27c4c" x="52.875" y="107.46" style="fill: none; stroke: #ff0000; stroke-width: 1.75"/>
    </g>
    <g clip-path="url(#pc6ab04e1fb)">
     <use xlink:href="#C0_0_ad74e27c4c" x="73.8" y="119.229285" style="fill: none; stroke: #ff0000; stroke-width: 1.75"/>
    </g>
    <g clip-path="url(#pc6ab04e1fb)">
     <use xlink:href="#C0_0_ad74e27c4c" x="87.75" y="119.229285" style="fill: none; stroke: #ff0000; stroke-width: 1.75"/>
    </g>
    <g clip-path="url(#pc6ab04e1fb)">
     <use xlink:href="#C0_0_ad74e27c4c" x="66.825" y="130.99857" style="fill: none; stroke: #ff0000; stroke-width: 1.75"/>
    </g>
   </g>
   <g id="PathCollection_3">
    <path d="M 94.247548 98.732641 
C 94.435075 98.732641 94.614946 98.658136 94.747548 98.525535 
C 94.880149 98.392933 94.954655 98.213062 94.954655 98.025535 
C 94.954655 97.838008 94.880149 97.658136 94.747548 97.525535 
C 94.614946 97.392933 94.435075 97.318428 94.247548 97.318428 
C 94.060021 97.318428 93.880149 97.392933 93.747548 97.525535 
C 93.614946 97.658136 93.540441 97.838008 93.540441 98.025535 
C 93.540441 98.213062 93.614946 98.392933 93.747548 98.525535 
C 93.880149 98.658136 94.060021 98.732641 94.247548 98.732641 
z
" clip-path="url(#pc6ab04e1fb)" style="stroke: #000000"/>
    <path d="M 90.380371 93.184351 
C 90.616174 93.184351 90.84235 93.090665 91.009088 92.923928 
C 91.175825 92.75719 91.269511 92.531014 91.269511 92.295211 
C 91.269511 92.059408 91.175825 91.833232 91.009088 91.666494 
C 90.84235 91.499757 90.616174 91.406071 90.380371 91.406071 
C 90.144568 91.406071 89.918392 91.499757 89.751654 91.666494 
C 89.584917 91.833232 89.491231 92.059408 89.491231 92.295211 
C 89.491231 92.531014 89.584917 92.75719 89.751654 92.923928 
C 89.918392 93.090665 90.144568 93.184351 90.380371 93.184351 
z
" clip-path="url(#pc6ab04e1fb)" style="stroke: #000000"/>
    <path d="M 88.84217 83.452402 
C 88.974772 83.452402 89.10196 83.399719 89.195724 83.305955 
C 89.289487 83.212192 89.34217 83.085003 89.34217 82.952402 
C 89.34217 82.8198 89.289487 82.692612 89.195724 82.598848 
C 89.10196 82.505085 88.974772 82.452402 88.84217 82.452402 
C 88.709569 82.452402 88.58238 82.505085 88.488617 82.598848 
C 88.394854 82.692612 88.34217 82.8198 88.34217 82.952402 
C 88.34217 83.085003 88.394854 83.212192 88.488617 83.305955 
C 88.58238 83.399719 88.709569 83.452402 88.84217 83.452402 
z
" clip-path="url(#pc6ab04e1fb)" style="stroke: #000000"/>
    <path d="M 91.485729 113.575386 
C 91.660242 113.575386 91.827631 113.506051 91.951031 113.382652 
C 92.074431 113.259252 92.143766 113.091863 92.143766 112.917349 
C 92.143766 112.742836 92.074431 112.575447 91.951031 112.452047 
C 91.827631 112.328647 91.660242 112.259312 91.485729 112.259312 
C 91.311215 112.259312 91.143826 112.328647 91.020426 112.452047 
C 90.897027 112.575447 90.827692 112.742836 90.827692 112.917349 
C 90.827692 113.091863 90.897027 113.259252 91.020426 113.382652 
C 91.143826 113.506051 91.311215 113.575386 91.485729 113.575386 
z
" clip-path="url(#pc6ab04e1fb)" style="stroke: #000000"/>
    <path d="M 86.398645 99.862117 
C 86.805927 99.862117 87.196584 99.700302 87.484576 99.41231 
C 87.772569 99.124317 87.934384 98.733661 87.934384 98.326378 
C 87.934384 97.919095 87.772569 97.528439 87.484576 97.240446 
C 87.196584 96.952454 86.805927 96.790639 86.398645 96.790639 
C 85.991362 96.790639 85.600705 96.952454 85.312713 97.240446 
C 85.02472 97.528439 84.862905 97.919095 84.862905 98.326378 
C 84.862905 98.733661 85.02472 99.124317 85.312713 99.41231 
C 85.600705 99.700302 85.991362 99.862117 86.398645 99.862117 
z
" clip-path="url(#pc6ab04e1fb)" style="stroke: #000000"/>
    <path d="M 80.936873 88.392162 
C 81.311927 88.392162 81.67167 88.243152 81.936873 87.977949 
C 82.202076 87.712746 82.351087 87.353003 82.351087 86.977949 
C 82.351087 86.602895 82.202076 86.243152 81.936873 85.977949 
C 81.67167 85.712746 81.311927 85.563735 80.936873 85.563735 
C 80.561819 85.563735 80.202076 85.712746 79.936873 85.977949 
C 79.67167 86.243152 79.52266 86.602895 79.52266 86.977949 
C 79.52266 87.353003 79.67167 87.712746 79.936873 87.977949 
C 80.202076 88.243152 80.561819 88.392162 80.936873 88.392162 
z
" clip-path="url(#pc6ab04e1fb)" style="stroke: #000000"/>
    <path d="M 85.915692 119.442656 
C 86.103219 119.442656 86.28309 119.368151 86.415692 119.235549 
C 86.548293 119.102948 86.622798 118.923076 86.622798 118.735549 
C 86.622798 118.548022 86.548293 118.368151 86.415692 118.235549 
C 86.28309 118.102948 86.103219 118.028442 85.915692 118.028442 
C 85.728165 118.028442 85.548293 118.102948 85.415692 118.235549 
C 85.28309 118.368151 85.208585 118.548022 85.208585 118.735549 
C 85.208585 118.923076 85.28309 119.102948 85.415692 119.235549 
C 85.548293 119.368151 85.728165 119.442656 85.915692 119.442656 
z
" clip-path="url(#pc6ab04e1fb)" style="stroke: #000000"/>
    <path d="M 83.105417 110.605031 
C 83.542455 110.605031 83.961652 110.431394 84.270684 110.122362 
C 84.579717 109.81333 84.753354 109.394133 84.753354 108.957095 
C 84.753354 108.520057 84.579717 108.10086 84.270684 107.791828 
C 83.961652 107.482795 83.542455 107.309158 83.105417 107.309158 
C 82.668379 107.309158 82.249182 107.482795 81.94015 107.791828 
C 81.631117 108.10086 81.45748 108.520057 81.45748 108.957095 
C 81.45748 109.394133 81.631117 109.81333 81.94015 110.122362 
C 82.249182 110.431394 82.668379 110.605031 83.105417 110.605031 
z
" clip-path="url(#pc6ab04e1fb)" style="stroke: #000000"/>
    <path d="M 79.557251 100.567753 
C 79.731765 100.567753 79.899154 100.498418 80.022554 100.375018 
C 80.145953 100.251619 80.215288 100.084229 80.215288 99.909716 
C 80.215288 99.735203 80.145953 99.567813 80.022554 99.444414 
C 79.899154 99.321014 79.731765 99.251679 79.557251 99.251679 
C 79.382738 99.251679 79.215349 99.321014 79.091949 99.444414 
C 78.968549 99.567813 78.899214 99.735203 78.899214 99.909716 
C 78.899214 100.084229 78.968549 100.251619 79.091949 100.375018 
C 79.215349 100.498418 79.382738 100.567753 79.557251 100.567753 
z
" clip-path="url(#pc6ab04e1fb)" style="stroke: #000000"/>
    <path d="M 77.377059 94.884513 
C 77.592746 94.884513 77.799627 94.79882 77.952141 94.646307 
C 78.104654 94.493793 78.190347 94.286912 78.190347 94.071225 
C 78.190347 93.855538 78.104654 93.648657 77.952141 93.496143 
C 77.799627 93.34363 77.592746 93.257937 77.377059 93.257937 
C 77.161373 93.257937 76.954491 93.34363 76.801978 93.496143 
C 76.649464 93.648657 76.563771 93.855538 76.563771 94.071225 
C 76.563771 94.286912 76.649464 94.493793 76.801978 94.646307 
C 76.954491 94.79882 77.161373 94.884513 77.377059 94.884513 
z
" clip-path="url(#pc6ab04e1fb)" style="stroke: #000000"/>
    <path d="M 75.726811 91.425615 
C 76.037145 91.425615 76.33481 91.302318 76.554249 91.082879 
C 76.773688 90.86344 76.896985 90.565775 76.896985 90.255442 
C 76.896985 89.945108 76.773688 89.647443 76.554249 89.428004 
C 76.33481 89.208565 76.037145 89.085268 75.726811 89.085268 
C 75.416477 89.085268 75.118812 89.208565 74.899373 89.428004 
C 74.679934 89.647443 74.556637 89.945108 74.556637 90.255442 
C 74.556637 90.565775 74.679934 90.86344 74.899373 91.082879 
C 75.118812 91.302318 75.416477 91.425615 75.726811 91.425615 
z
" clip-path="url(#pc6ab04e1fb)" style="stroke: #000000"/>
    <path d="M 83.378084 132.764903 
C 83.725279 132.764903 84.0583 132.626962 84.303804 132.381458 
C 84.549308 132.135954 84.68725 131.802933 84.68725 131.455738 
C 84.68725 131.108544 84.549308 130.775522 84.303804 130.530019 
C 84.0583 130.284515 83.725279 130.146573 83.378084 130.146573 
C 83.03089 130.146573 82.697869 130.284515 82.452365 130.530019 
C 82.206861 130.775522 82.068919 131.108544 82.068919 131.455738 
C 82.068919 131.802933 82.206861 132.135954 82.452365 132.381458 
C 82.697869 132.626962 83.03089 132.764903 83.378084 132.764903 
z
" clip-path="url(#pc6ab04e1fb)" style="stroke: #000000"/>
    <path d="M 78.599213 113.560576 
C 78.731814 113.560576 78.859003 113.507893 78.952766 113.41413 
C 79.04653 113.320366 79.099213 113.193178 79.099213 113.060576 
C 79.099213 112.927975 79.04653 112.800787 78.952766 112.707023 
C 78.859003 112.61326 78.731814 112.560576 78.599213 112.560576 
C 78.466611 112.560576 78.339423 112.61326 78.245659 112.707023 
C 78.151896 112.800787 78.099213 112.927975 78.099213 113.060576 
C 78.099213 113.193178 78.151896 113.320366 78.245659 113.41413 
C 78.339423 113.507893 78.466611 113.560576 78.599213 113.560576 
z
" clip-path="url(#pc6ab04e1fb)" style="stroke: #000000"/>
    <path d="M 73.085965 109.565472 
C 73.218567 109.565472 73.345755 109.512788 73.439518 109.419025 
C 73.533282 109.325261 73.585965 109.198073 73.585965 109.065472 
C 73.585965 108.93287 73.533282 108.805682 73.439518 108.711918 
C 73.345755 108.618155 73.218567 108.565472 73.085965 108.565472 
C 72.953363 108.565472 72.826175 108.618155 72.732412 108.711918 
C 72.638648 108.805682 72.585965 108.93287 72.585965 109.065472 
C 72.585965 109.198073 72.638648 109.325261 72.732412 109.419025 
C 72.826175 109.512788 72.953363 109.565472 73.085965 109.565472 
z
" clip-path="url(#pc6ab04e1fb)" style="stroke: #000000"/>
    <path d="M 74.138148 100.696576 
C 74.295839 100.696576 74.447092 100.633925 74.558596 100.522421 
C 74.6701 100.410917 74.732751 100.259664 74.732751 100.101973 
C 74.732751 99.944282 74.6701 99.793029 74.558596 99.681525 
C 74.447092 99.57002 74.295839 99.507369 74.138148 99.507369 
C 73.980457 99.507369 73.829204 99.57002 73.7177 99.681525 
C 73.606195 99.793029 73.543544 99.944282 73.543544 100.101973 
C 73.543544 100.259664 73.606195 100.410917 73.7177 100.522421 
C 73.829204 100.633925 73.980457 100.696576 74.138148 100.696576 
z
" clip-path="url(#pc6ab04e1fb)" style="stroke: #000000"/>
    <path d="M 70.799017 95.695346 
C 71.050805 95.695346 71.292314 95.59531 71.470355 95.417269 
C 71.648395 95.239229 71.748432 94.99772 71.748432 94.745932 
C 71.748432 94.494144 71.648395 94.252635 71.470355 94.074595 
C 71.292314 93.896554 71.050805 93.796517 70.799017 93.796517 
C 70.54723 93.796517 70.305721 93.896554 70.12768 94.074595 
C 69.949639 94.252635 69.849603 94.494144 69.849603 94.745932 
C 69.849603 94.99772 69.949639 95.239229 70.12768 95.417269 
C 70.305721 95.59531 70.54723 95.695346 70.799017 95.695346 
z
" clip-path="url(#pc6ab04e1fb)" style="stroke: #000000"/>
    <path d="M 67.021344 85.105253 
C 67.489973 85.105253 67.939472 84.919065 68.270843 84.587693 
C 68.602215 84.256322 68.788403 83.806823 68.788403 83.338194 
C 68.788403 82.869564 68.602215 82.420065 68.270843 82.088694 
C 67.939472 81.757323 67.489973 81.571134 67.021344 81.571134 
C 66.552714 81.571134 66.103215 81.757323 65.771844 82.088694 
C 65.440473 82.420065 65.254284 82.869564 65.254284 83.338194 
C 65.254284 83.806823 65.440473 84.256322 65.771844 84.587693 
C 66.103215 84.919065 66.552714 85.105253 67.021344 85.105253 
z
" clip-path="url(#pc6ab04e1fb)" style="stroke: #000000"/>
    <path d="M 71.688623 120.276652 
C 72.104765 120.276652 72.503919 120.111317 72.798176 119.81706 
C 73.092432 119.522804 73.257767 119.12365 73.257767 118.707508 
C 73.257767 118.291366 73.092432 117.892212 72.798176 117.597955 
C 72.503919 117.303698 72.104765 117.138363 71.688623 117.138363 
C 71.272481 117.138363 70.873327 117.303698 70.57907 117.597955 
C 70.284813 117.892212 70.119478 118.291366 70.119478 118.707508 
C 70.119478 119.12365 70.284813 119.522804 70.57907 119.81706 
C 70.873327 120.111317 71.272481 120.276652 71.688623 120.276652 
z
" clip-path="url(#pc6ab04e1fb)" style="stroke: #000000"/>
    <path d="M 69.06778 109.401615 
C 69.475062 109.401615 69.865719 109.2398 70.153711 108.951807 
C 70.441704 108.663815 70.603519 108.273159 70.603519 107.865876 
C 70.603519 107.458593 70.441704 107.067937 70.153711 106.779944 
C 69.865719 106.491952 69.475062 106.330136 69.06778 106.330136 
C 68.660497 106.330136 68.26984 106.491952 67.981848 106.779944 
C 67.693855 107.067937 67.53204 107.458593 67.53204 107.865876 
C 67.53204 108.273159 67.693855 108.663815 67.981848 108.951807 
C 68.26984 109.2398 68.660497 109.401615 69.06778 109.401615 
z
" clip-path="url(#pc6ab04e1fb)" style="stroke: #000000"/>
    <path d="M 67.185273 104.951398 
C 67.478769 104.951398 67.760283 104.834791 67.967816 104.627259 
C 68.175348 104.419726 68.291955 104.138212 68.291955 103.844716 
C 68.291955 103.551221 68.175348 103.269707 67.967816 103.062174 
C 67.760283 102.854641 67.478769 102.738034 67.185273 102.738034 
C 66.891778 102.738034 66.610264 102.854641 66.402731 103.062174 
C 66.195198 103.269707 66.078591 103.551221 66.078591 103.844716 
C 66.078591 104.138212 66.195198 104.419726 66.402731 104.627259 
C 66.610264 104.834791 66.891778 104.951398 67.185273 104.951398 
z
" clip-path="url(#pc6ab04e1fb)" style="stroke: #000000"/>
    <path d="M 69.476704 131.856451 
C 69.810179 131.856451 70.130041 131.723959 70.365843 131.488157 
C 70.601646 131.252354 70.734137 130.932492 70.734137 130.599017 
C 70.734137 130.265542 70.601646 129.94568 70.365843 129.709877 
C 70.130041 129.474075 69.810179 129.341584 69.476704 129.341584 
C 69.143228 129.341584 68.823367 129.474075 68.587564 129.709877 
C 68.351761 129.94568 68.21927 130.265542 68.21927 130.599017 
C 68.21927 130.932492 68.351761 131.252354 68.587564 131.488157 
C 68.823367 131.723959 69.143228 131.856451 69.476704 131.856451 
z
" clip-path="url(#pc6ab04e1fb)" style="stroke: #000000"/>
    <path d="M 68.258796 124.570396 
C 68.391398 124.570396 68.518586 124.517713 68.61235 124.42395 
C 68.706113 124.330186 68.758796 124.202998 68.758796 124.070396 
C 68.758796 123.937795 68.706113 123.810606 68.61235 123.716843 
C 68.518586 123.623079 68.391398 123.570396 68.258796 123.570396 
C 68.126195 123.570396 67.999006 123.623079 67.905243 123.716843 
C 67.811479 123.810606 67.758796 123.937795 67.758796 124.070396 
C 67.758796 124.202998 67.811479 124.330186 67.905243 124.42395 
C 67.999006 124.517713 68.126195 124.570396 68.258796 124.570396 
z
" clip-path="url(#pc6ab04e1fb)" style="stroke: #000000"/>
    <path d="M 64.329109 122.561011 
C 64.564912 122.561011 64.791088 122.467325 64.957826 122.300588 
C 65.124564 122.13385 65.218249 121.907674 65.218249 121.671871 
C 65.218249 121.436068 65.124564 121.209892 64.957826 121.043154 
C 64.791088 120.876417 64.564912 120.782731 64.329109 120.782731 
C 64.093307 120.782731 63.86713 120.876417 63.700393 121.043154 
C 63.533655 121.209892 63.43997 121.436068 63.43997 121.671871 
C 63.43997 121.907674 63.533655 122.13385 63.700393 122.300588 
C 63.86713 122.467325 64.093307 122.561011 64.329109 122.561011 
z
" clip-path="url(#pc6ab04e1fb)" style="stroke: #000000"/>
    <path d="M 63.808288 107.661008 
C 64.178867 107.661008 64.534318 107.513775 64.796358 107.251736 
C 65.058397 106.989697 65.205629 106.634246 65.205629 106.263666 
C 65.205629 105.893087 65.058397 105.537636 64.796358 105.275597 
C 64.534318 105.013558 64.178867 104.866325 63.808288 104.866325 
C 63.437709 104.866325 63.082258 105.013558 62.820219 105.275597 
C 62.55818 105.537636 62.410947 105.893087 62.410947 106.263666 
C 62.410947 106.634246 62.55818 106.989697 62.820219 107.251736 
C 63.082258 107.513775 63.437709 107.661008 63.808288 107.661008 
z
" clip-path="url(#pc6ab04e1fb)" style="stroke: #000000"/>
    <path d="M 59.282985 102.402498 
C 59.498672 102.402498 59.705553 102.316805 59.858067 102.164292 
C 60.01058 102.011778 60.096273 101.804897 60.096273 101.58921 
C 60.096273 101.373524 60.01058 101.166642 59.858067 101.014128 
C 59.705553 100.861615 59.498672 100.775922 59.282985 100.775922 
C 59.067299 100.775922 58.860417 100.861615 58.707903 101.014128 
C 58.55539 101.166642 58.469697 101.373524 58.469697 101.58921 
C 58.469697 101.804897 58.55539 102.011778 58.707903 102.164292 
C 58.860417 102.316805 59.067299 102.402498 59.282985 102.402498 
z
" clip-path="url(#pc6ab04e1fb)" style="stroke: #000000"/>
    <path d="M 56.097587 95.896116 
C 56.399854 95.896116 56.68978 95.776024 56.903515 95.56229 
C 57.117249 95.348555 57.237341 95.058629 57.237341 94.756362 
C 57.237341 94.454096 57.117249 94.164169 56.903515 93.950435 
C 56.68978 93.7367 56.399854 93.616609 56.097587 93.616609 
C 55.795321 93.616609 55.505394 93.7367 55.29166 93.950435 
C 55.077926 94.164169 54.957834 94.454096 54.957834 94.756362 
C 54.957834 95.058629 55.077926 95.348555 55.29166 95.56229 
C 55.505394 95.776024 55.795321 95.896116 56.097587 95.896116 
z
" clip-path="url(#pc6ab04e1fb)" style="stroke: #000000"/>
    <path d="M 62.848649 135.553103 
C 62.98125 135.553103 63.108438 135.50042 63.202202 135.406656 
C 63.295965 135.312893 63.348649 135.185705 63.348649 135.053103 
C 63.348649 134.920502 63.295965 134.793313 63.202202 134.69955 
C 63.108438 134.605786 62.98125 134.553103 62.848649 134.553103 
C 62.716047 134.553103 62.588859 134.605786 62.495095 134.69955 
C 62.401332 134.793313 62.348649 134.920502 62.348649 135.053103 
C 62.348649 135.185705 62.401332 135.312893 62.495095 135.406656 
C 62.588859 135.50042 62.716047 135.553103 62.848649 135.553103 
z
" clip-path="url(#pc6ab04e1fb)" style="stroke: #000000"/>
    <path d="M 62.293915 126.530266 
C 62.426517 126.530266 62.553705 126.477583 62.647469 126.383819 
C 62.741232 126.290056 62.793915 126.162867 62.793915 126.030266 
C 62.793915 125.897664 62.741232 125.770476 62.647469 125.676712 
C 62.553705 125.582949 62.426517 125.530266 62.293915 125.530266 
C 62.161314 125.530266 62.034126 125.582949 61.940362 125.676712 
C 61.846599 125.770476 61.793915 125.897664 61.793915 126.030266 
C 61.793915 126.162867 61.846599 126.290056 61.940362 126.383819 
C 62.034126 126.477583 62.161314 126.530266 62.293915 126.530266 
z
" clip-path="url(#pc6ab04e1fb)" style="stroke: #000000"/>
    <path d="M 59.293419 119.73853 
C 59.760539 119.73853 60.20859 119.552941 60.538894 119.222637 
C 60.869198 118.892333 61.054787 118.444282 61.054787 117.977162 
C 61.054787 117.510041 60.869198 117.06199 60.538894 116.731686 
C 60.20859 116.401382 59.760539 116.215793 59.293419 116.215793 
C 58.826299 116.215793 58.378247 116.401382 58.047943 116.731686 
C 57.717639 117.06199 57.532051 117.510041 57.532051 117.977162 
C 57.532051 118.444282 57.717639 118.892333 58.047943 119.222637 
C 58.378247 119.552941 58.826299 119.73853 59.293419 119.73853 
z
" clip-path="url(#pc6ab04e1fb)" style="stroke: #000000"/>
    <path d="M 59.485677 117.425556 
C 59.808203 117.425556 60.117564 117.297415 60.345624 117.069354 
C 60.573685 116.841293 60.701826 116.531933 60.701826 116.209407 
C 60.701826 115.88688 60.573685 115.57752 60.345624 115.349459 
C 60.117564 115.121398 59.808203 114.993257 59.485677 114.993257 
C 59.16315 114.993257 58.85379 115.121398 58.625729 115.349459 
C 58.397668 115.57752 58.269527 115.88688 58.269527 116.209407 
C 58.269527 116.531933 58.397668 116.841293 58.625729 117.069354 
C 58.85379 117.297415 59.16315 117.425556 59.485677 117.425556 
z
" clip-path="url(#pc6ab04e1fb)" style="stroke: #000000"/>
    <path d="M 55.597356 108.282931 
C 55.729958 108.282931 55.857146 108.230248 55.95091 108.136484 
C 56.044673 108.042721 56.097356 107.915533 56.097356 107.782931 
C 56.097356 107.65033 56.044673 107.523141 55.95091 107.429378 
C 55.857146 107.335614 55.729958 107.282931 55.597356 107.282931 
C 55.464755 107.282931 55.337566 107.335614 55.243803 107.429378 
C 55.150039 107.523141 55.097356 107.65033 55.097356 107.782931 
C 55.097356 107.915533 55.150039 108.042721 55.243803 108.136484 
C 55.337566 108.230248 55.464755 108.282931 55.597356 108.282931 
z
" clip-path="url(#pc6ab04e1fb)" style="stroke: #000000"/>
    <path d="M 50.771547 103.733632 
C 50.929238 103.733632 51.080491 103.670981 51.191995 103.559477 
C 51.3035 103.447973 51.366151 103.296719 51.366151 103.139029 
C 51.366151 102.981338 51.3035 102.830085 51.191995 102.71858 
C 51.080491 102.607076 50.929238 102.544425 50.771547 102.544425 
C 50.613856 102.544425 50.462603 102.607076 50.351099 102.71858 
C 50.239595 102.830085 50.176944 102.981338 50.176944 103.139029 
C 50.176944 103.296719 50.239595 103.447973 50.351099 103.559477 
C 50.462603 103.670981 50.613856 103.733632 50.771547 103.733632 
z
" clip-path="url(#pc6ab04e1fb)" style="stroke: #000000"/>
    <path d="M 52.320804 117.620893 
C 52.453406 117.620893 52.580594 117.56821 52.674358 117.474447 
C 52.768121 117.380683 52.820804 117.253495 52.820804 117.120893 
C 52.820804 116.988292 52.768121 116.861103 52.674358 116.76734 
C 52.580594 116.673577 52.453406 116.620893 52.320804 116.620893 
C 52.188203 116.620893 52.061014 116.673577 51.967251 116.76734 
C 51.873487 116.861103 51.820804 116.988292 51.820804 117.120893 
C 51.820804 117.253495 51.873487 117.380683 51.967251 117.474447 
C 52.061014 117.56821 52.188203 117.620893 52.320804 117.620893 
z
" clip-path="url(#pc6ab04e1fb)" style="stroke: #000000"/>
   </g>
   <g id="matplotlib.axis_1">
    <g id="xtick_1">
     <g id="line2d_1">
      <defs>
       <path id="mb298941520" d="M 0 0 
L 0 3.5 
" style="stroke: #000000; stroke-width: 0.8"/>
      </defs>
      <g>
       <use xlink:href="#mb298941520" x="18" y="189" style="stroke: #000000; stroke-width: 0.8"/>
      </g>
     </g>
     <g id="text_1">
      <!-- −10 -->
      <g transform="translate(7.447656 203.598437)scale(0.1 -0.1)">
       <defs>
        <path id="DejaVuSans-2212" d="M 678 2272 
L 4684 2272 
L 4684 1741 
L 678 1741 
L 678 2272 
z
" transform="scale(0.015625)"/>
        <path id="DejaVuSans-31" d="M 794 531 
L 1825 531 
L 1825 4091 
L 703 3866 
L 703 4441 
L 1819 4666 
L 2450 4666 
L 2450 531 
L 3481 531 
L 3481 0 
L 794 0 
L 794 531 
z
" transform="scale(0.015625)"/>
        <path id="DejaVuSans-30" d="M 2034 4250 
Q 1547 4250 1301 3770 
Q 1056 3291 1056 2328 
Q 1056 1369 1301 889 
Q 1547 409 2034 409 
Q 2525 409 2770 889 
Q 3016 1369 3016 2328 
Q 3016 3291 2770 3770 
Q 2525 4250 2034 4250 
z
M 2034 4750 
Q 2819 4750 3233 4129 
Q 3647 3509 3647 2328 
Q 3647 1150 3233 529 
Q 2819 -91 2034 -91 
Q 1250 -91 836 529 
Q 422 1150 422 2328 
Q 422 3509 836 4129 
Q 1250 4750 2034 4750 
z
" transform="scale(0.015625)"/>
       </defs>
       <use xlink:href="#DejaVuSans-2212"/>
       <use xlink:href="#DejaVuSans-31" x="83.789062"/>
       <use xlink:href="#DejaVuSans-30" x="147.412109"/>
      </g>
     </g>
    </g>
    <g id="xtick_2">
     <g id="line2d_2">
      <g>
       <use xlink:href="#mb298941520" x="73.8" y="189" style="stroke: #000000; stroke-width: 0.8"/>
      </g>
     </g>
     <g id="text_2">
      <!-- 0 -->
      <g transform="translate(70.61875 203.598437)scale(0.1 -0.1)">
       <use xlink:href="#DejaVuSans-30"/>
      </g>
     </g>
    </g>
    <g id="xtick_3">
     <g id="line2d_3">
      <g>
       <use xlink:href="#mb298941520" x="129.6" y="189" style="stroke: #000000; stroke-width: 0.8"/>
      </g>
     </g>
     <g id="text_3">
      <!-- 10 -->
      <g transform="translate(123.2375 203.598437)scale(0.1 -0.1)">
       <use xlink:href="#DejaVuSans-31"/>
       <use xlink:href="#DejaVuSans-30" x="63.623047"/>
      </g>
     </g>
    </g>
   </g>
   <g id="matplotlib.axis_2">
    <g id="ytick_1">
     <g id="line2d_4">
      <defs>
       <path id="m0e824fd817" d="M 0 0 
L -3.5 0 
" style="stroke: #000000; stroke-width: 0.8"/>
      </defs>
      <g>
       <use xlink:href="#m0e824fd817" x="18" y="189" style="stroke: #000000; stroke-width: 0.8"/>
      </g>
     </g>
     <g id="text_4">
      <!-- −15 -->
      <g transform="translate(-10.104688 192.799219)scale(0.1 -0.1)">
       <defs>
        <path id="DejaVuSans-35" d="M 691 4666 
L 3169 4666 
L 3169 4134 
L 1269 4134 
L 1269 2991 
Q 1406 3038 1543 3061 
Q 1681 3084 1819 3084 
Q 2600 3084 3056 2656 
Q 3513 2228 3513 1497 
Q 3513 744 3044 326 
Q 2575 -91 1722 -91 
Q 1428 -91 1123 -41 
Q 819 9 494 109 
L 494 744 
Q 775 591 1075 516 
Q 1375 441 1709 441 
Q 2250 441 2565 725 
Q 2881 1009 2881 1497 
Q 2881 1984 2565 2268 
Q 2250 2553 1709 2553 
Q 1456 2553 1204 2497 
Q 953 2441 691 2322 
L 691 4666 
z
" transform="scale(0.015625)"/>
       </defs>
       <use xlink:href="#DejaVuSans-2212"/>
       <use xlink:href="#DejaVuSans-31" x="83.789062"/>
       <use xlink:href="#DejaVuSans-35" x="147.412109"/>
      </g>
     </g>
    </g>
    <g id="ytick_2">
     <g id="line2d_5">
      <g>
       <use xlink:href="#m0e824fd817" x="18" y="161.82" style="stroke: #000000; stroke-width: 0.8"/>
      </g>
     </g>
     <g id="text_5">
      <!-- −10 -->
      <g transform="translate(-10.104688 165.619219)scale(0.1 -0.1)">
       <use xlink:href="#DejaVuSans-2212"/>
       <use xlink:href="#DejaVuSans-31" x="83.789062"/>
       <use xlink:href="#DejaVuSans-30" x="147.412109"/>
      </g>
     </g>
    </g>
    <g id="ytick_3">
     <g id="line2d_6">
      <g>
       <use xlink:href="#m0e824fd817" x="18" y="134.64" style="stroke: #000000; stroke-width: 0.8"/>
      </g>
     </g>
     <g id="text_6">
      <!-- −5 -->
      <g transform="translate(-3.742188 138.439219)scale(0.1 -0.1)">
       <use xlink:href="#DejaVuSans-2212"/>
       <use xlink:href="#DejaVuSans-35" x="83.789062"/>
      </g>
     </g>
    </g>
    <g id="ytick_4">
     <g id="line2d_7">
      <g>
       <use xlink:href="#m0e824fd817" x="18" y="107.46" style="stroke: #000000; stroke-width: 0.8"/>
      </g>
     </g>
     <g id="text_7">
      <!-- 0 -->
      <g transform="translate(4.6375 111.259219)scale(0.1 -0.1)">
       <use xlink:href="#DejaVuSans-30"/>
      </g>
     </g>
    </g>
    <g id="ytick_5">
     <g id="line2d_8">
      <g>
       <use xlink:href="#m0e824fd817" x="18" y="80.28" style="stroke: #000000; stroke-width: 0.8"/>
      </g>
     </g>
     <g id="text_8">
      <!-- 5 -->
      <g transform="translate(4.6375 84.079219)scale(0.1 -0.1)">
       <use xlink:href="#DejaVuSans-35"/>
      </g>
     </g>
    </g>
    <g id="ytick_6">
     <g id="line2d_9">
      <g>
       <use xlink:href="#m0e824fd817" x="18" y="53.1" style="stroke: #000000; stroke-width: 0.8"/>
      </g>
     </g>
     <g id="text_9">
      <!-- 10 -->
      <g transform="translate(-1.725 56.899219)scale(0.1 -0.1)">
       <use xlink:href="#DejaVuSans-31"/>
       <use xlink:href="#DejaVuSans-30" x="63.623047"/>
      </g>
     </g>
    </g>
    <g id="ytick_7">
     <g id="line2d_10">
      <g>
       <use xlink:href="#m0e824fd817" x="18" y="25.92" style="stroke: #000000; stroke-width: 0.8"/>
      </g>
     </g>
     <g id="text_10">
      <!-- 15 -->
      <g transform="translate(-1.725 29.719219)scale(0.1 -0.1)">
       <use xlink:href="#DejaVuSans-31"/>
       <use xlink:href="#DejaVuSans-35" x="63.623047"/>
      </g>
     </g>
    </g>
   </g>
   <g id="patch_3">
    <path d="M 18 189 
L 18 25.92 
" style="fill: none; stroke: #000000; stroke-width: 0.8; stroke-linejoin: miter; stroke-linecap: square"/>
   </g>
   <g id="patch_4">
    <path d="M 129.6 189 
L 129.6 25.92 
" style="fill: none; stroke: #000000; stroke-width: 0.8; stroke-linejoin: miter; stroke-linecap: square"/>
   </g>
   <g id="patch_5">
    <path d="M 18 189 
L 129.6 189 
" style="fill: none; stroke: #000000; stroke-width: 0.8; stroke-linejoin: miter; stroke-linecap: square"/>
   </g>
   <g id="patch_6">
    <path d="M 18 25.92 
L 129.6 25.92 
" style="fill: none; stroke: #000000; stroke-width: 0.8; stroke-linejoin: miter; stroke-linecap: square"/>
   </g>
  </g>
 </g>
 <defs>
  <clipPath id="pc6ab04e1fb">
   <rect x="18" y="25.92" width="111.6" height="163.08"/>
  </clipPath>
 </defs>
</svg>
