<?xml version="1.0" encoding="utf-8" standalone="no"?>
<!DOCTYPE svg PUBLIC "-//W3C//DTD SVG 1.1//EN"
  "http://www.w3.org/Graphics/SVG/1.1/DTD/svg11.dtd">
<svg xmlns:xlink="http://www.w3.org/1999/xlink" width="144pt" height="216pt" viewBox="0 0 144 216" xmlns="http://www.w3.org/2000/svg" version="1.1">
 <metadata>
  <rdf:RDF xmlns:dc="http://purl.org/dc/elements/1.1/" xmlns:cc="http://creativecommons.org/ns#" xmlns:rdf="http://www.w3.org/1999/02/22-rdf-syntax-ns#">
   <cc:Work>
    <dc:type rdf:resource="http://purl.org/dc/dcmitype/StillImage"/>
    <dc:date>2022-06-23T14:48:52.086263</dc:date>
    <dc:format>image/svg+xml</dc:format>
    <dc:creator>
     <cc:Agent>
      <dc:title>Matplotlib v3.5.1, https://matplotlib.org/</dc:title>
     </cc:Agent>
    </dc:creator>
   </cc:Work>
  </rdf:RDF>
 </metadata>
 <defs>
  <style type="text/css">*{stroke-linejoin: round; stroke-linecap: butt}</style>
 </defs>
 <g id="figure_1">
  <g id="patch_1">
   <path d="M 0 216 
L 144 216 
L 144 0 
L 0 0 
L 0 216 
z
" style="fill: none"/>
  </g>
  <g id="axes_1">
   <g id="patch_2">
    <path d="M 18 189 
L 129.6 189 
L 129.6 25.92 
L 18 25.92 
z
" style="fill: #ffffff"/>
   </g>
   <g id="PathCollection_1">
    <defs>
     <path id="m8d2c98e2a1" d="M 0 2.738613 
C 0.726289 2.738613 1.422928 2.450055 1.936492 1.936492 
C 2.450055 1.422928 2.738613 0.726289 2.738613 0 
C 2.738613 -0.726289 2.450055 -1.422928 1.936492 -1.936492 
C 1.422928 -2.450055 0.726289 -2.738613 0 -2.738613 
C -0.726289 -2.738613 -1.422928 -2.450055 -1.936492 -1.936492 
C -2.450055 -1.422928 -2.738613 -0.726289 -2.738613 0 
C -2.738613 0.726289 -2.450055 1.422928 -1.936492 1.936492 
C -1.422928 2.450055 -0.726289 2.738613 0 2.738613 
z
" style="stroke: #ff0000; stroke-width: 1.75"/>
    </defs>
    <g clip-path="url(#pf5084dba7a)">
     <use xlink:href="#m8d2c98e2a1" x="80.775" y="83.92143" style="fill: #ff0000; stroke: #ff0000; stroke-width: 1.75"/>
     <use xlink:href="#m8d2c98e2a1" x="59.85" y="95.690715" style="fill: #ff0000; stroke: #ff0000; stroke-width: 1.75"/>
     <use xlink:href="#m8d2c98e2a1" x="66.825" y="107.46" style="fill: #ff0000; stroke: #ff0000; stroke-width: 1.75"/>
     <use xlink:href="#m8d2c98e2a1" x="80.775" y="107.46" style="fill: #ff0000; stroke: #ff0000; stroke-width: 1.75"/>
     <use xlink:href="#m8d2c98e2a1" x="94.725" y="107.46" style="fill: #ff0000; stroke: #ff0000; stroke-width: 1.75"/>
     <use xlink:href="#m8d2c98e2a1" x="59.85" y="119.229285" style="fill: #ff0000; stroke: #ff0000; stroke-width: 1.75"/>
     <use xlink:href="#m8d2c98e2a1" x="80.775" y="130.99857" style="fill: #ff0000; stroke: #ff0000; stroke-width: 1.75"/>
    </g>
   </g>
   <g id="PathCollection_2">
    <defs>
     <path id="C0_0_ee70548892" d="M 0 2.738613 
C 0.726289 2.738613 1.422928 2.450055 1.936492 1.936492 
C 2.450055 1.422928 2.738613 0.726289 2.738613 -0 
C 2.738613 -0.726289 2.450055 -1.422928 1.936492 -1.936492 
C 1.422928 -2.450055 0.726289 -2.738613 0 -2.738613 
C -0.726289 -2.738613 -1.422928 -2.450055 -1.936492 -1.936492 
C -2.450055 -1.422928 -2.738613 -0.726289 -2.738613 0 
C -2.738613 0.726289 -2.450055 1.422928 -1.936492 1.936492 
C -1.422928 2.450055 -0.726289 2.738613 0 2.738613 
z
"/>
    </defs>
    <g clip-path="url(#pf5084dba7a)">
     <use xlink:href="#C0_0_ee70548892" x="66.825" y="83.92143" style="fill: none; stroke: #ff0000; stroke-width: 1.75"/>
    </g>
    <g clip-path="url(#pf5084dba7a)">
     <use xlink:href="#C0_0_ee70548892" x="73.8" y="95.690715" style="fill: none; stroke: #ff0000; stroke-width: 1.75"/>
    </g>
    <g clip-path="url(#pf5084dba7a)">
     <use xlink:href="#C0_0_ee70548892" x="87.75" y="95.690715" style="fill: none; stroke: #ff0000; stroke-width: 1.75"/>
    </g>
    <g clip-path="url(#pf5084dba7a)">
     <use xlink:href="#C0_0_ee70548892" x="52.875" y="107.46" style="fill: none; stroke: #ff0000; stroke-width: 1.75"/>
    </g>
    <g clip-path="url(#pf5084dba7a)">
     <use xlink:href="#C0_0_ee70548892" x="73.8" y="119.229285" style="fill: none; stroke: #ff0000; stroke-width: 1.75"/>
    </g>
    <g clip-path="url(#pf5084dba7a)">
     <use xlink:href="#C0_0_ee70548892" x="87.75" y="119.229285" style="fill: none; stroke: #ff0000; stroke-width: 1.75"/>
    </g>
    <g clip-path="url(#pf5084dba7a)">
     <use xlink:href="#C0_0_ee70548892" x="66.825" y="130.99857" style="fill: none; stroke: #ff0000; stroke-width: 1.75"/>
    </g>
   </g>
   <g id="PathCollection_3">
    <path d="M 109.286626 90.506795 
C 109.880008 90.506795 110.449167 90.271041 110.868752 89.851457 
C 111.288337 89.431872 111.52409 88.862713 111.52409 88.269331 
C 111.52409 87.675948 111.288337 87.106789 110.868752 86.687204 
C 110.449167 86.26762 109.880008 86.031866 109.286626 86.031866 
C 108.693244 86.031866 108.124085 86.26762 107.7045 86.687204 
C 107.284915 87.106789 107.049162 87.675948 107.049162 88.269331 
C 107.049162 88.862713 107.284915 89.431872 107.7045 89.851457 
C 108.124085 90.271041 108.693244 90.506795 109.286626 90.506795 
z
" clip-path="url(#pf5084dba7a)" style="stroke: #000000"/>
    <path d="M 103.200178 84.242155 
C 103.793561 84.242155 104.36272 84.006402 104.782304 83.586817 
C 105.201889 83.167232 105.437643 82.598073 105.437643 82.004691 
C 105.437643 81.411309 105.201889 80.84215 104.782304 80.422565 
C 104.36272 80.00298 103.793561 79.767227 103.200178 79.767227 
C 102.606796 79.767227 102.037637 80.00298 101.618052 80.422565 
C 101.198468 80.84215 100.962714 81.411309 100.962714 82.004691 
C 100.962714 82.598073 101.198468 83.167232 101.618052 83.586817 
C 102.037637 84.006402 102.606796 84.242155 103.200178 84.242155 
z
" clip-path="url(#pf5084dba7a)" style="stroke: #000000"/>
    <path d="M 101.770475 70.72169 
C 102.314345 70.72169 102.836013 70.505608 103.220587 70.121034 
C 103.605161 69.73646 103.821243 69.214792 103.821243 68.670922 
C 103.821243 68.127052 103.605161 67.605384 103.220587 67.220809 
C 102.836013 66.836235 102.314345 66.620153 101.770475 66.620153 
C 101.226605 66.620153 100.704937 66.836235 100.320363 67.220809 
C 99.935788 67.605384 99.719706 68.127052 99.719706 68.670922 
C 99.719706 69.214792 99.935788 69.73646 100.320363 70.121034 
C 100.704937 70.505608 101.226605 70.72169 101.770475 70.72169 
z
" clip-path="url(#pf5084dba7a)" style="stroke: #000000"/>
    <path d="M 99.655898 58.67042 
C 100.079353 58.67042 100.485521 58.502179 100.784949 58.202752 
C 101.084376 57.903324 101.252617 57.497156 101.252617 57.073701 
C 101.252617 56.650246 101.084376 56.244078 100.784949 55.944651 
C 100.485521 55.645223 100.079353 55.476983 99.655898 55.476983 
C 99.232444 55.476983 98.826275 55.645223 98.526848 55.944651 
C 98.22742 56.244078 98.05918 56.650246 98.05918 57.073701 
C 98.05918 57.497156 98.22742 57.903324 98.526848 58.202752 
C 98.826275 58.502179 99.232444 58.67042 99.655898 58.67042 
z
" clip-path="url(#pf5084dba7a)" style="stroke: #000000"/>
    <path d="M 120.867269 155.173587 
C 121.412575 155.173587 121.93562 154.956935 122.321209 154.571345 
C 122.706798 154.185756 122.923451 153.662711 122.923451 153.117405 
C 122.923451 152.572099 122.706798 152.049054 122.321209 151.663465 
C 121.93562 151.277875 121.412575 151.061223 120.867269 151.061223 
C 120.321963 151.061223 119.798918 151.277875 119.413329 151.663465 
C 119.027739 152.049054 118.811087 152.572099 118.811087 153.117405 
C 118.811087 153.662711 119.027739 154.185756 119.413329 154.571345 
C 119.798918 154.956935 120.321963 155.173587 120.867269 155.173587 
z
" clip-path="url(#pf5084dba7a)" style="stroke: #000000"/>
    <path d="M 109.541955 132.30904 
C 110.134967 132.30904 110.703771 132.073433 111.123093 131.65411 
C 111.542416 131.234788 111.778023 130.665984 111.778023 130.072972 
C 111.778023 129.479959 111.542416 128.911156 111.123093 128.491833 
C 110.703771 128.07251 110.134967 127.836904 109.541955 127.836904 
C 108.948942 127.836904 108.380139 128.07251 107.960816 128.491833 
C 107.541493 128.911156 107.305887 129.479959 107.305887 130.072972 
C 107.305887 130.665984 107.541493 131.234788 107.960816 131.65411 
C 108.380139 132.073433 108.948942 132.30904 109.541955 132.30904 
z
" clip-path="url(#pf5084dba7a)" style="stroke: #000000"/>
    <path d="M 100.059073 102.173063 
C 100.652455 102.173063 101.221614 101.937309 101.641199 101.517724 
C 102.060784 101.09814 102.296537 100.528981 102.296537 99.935598 
C 102.296537 99.342216 102.060784 98.773057 101.641199 98.353472 
C 101.221614 97.933887 100.652455 97.698134 100.059073 97.698134 
C 99.46569 97.698134 98.896531 97.933887 98.476947 98.353472 
C 98.057362 98.773057 97.821608 99.342216 97.821608 99.935598 
C 97.821608 100.528981 98.057362 101.09814 98.476947 101.517724 
C 98.896531 101.937309 99.46569 102.173063 100.059073 102.173063 
z
" clip-path="url(#pf5084dba7a)" style="stroke: #000000"/>
    <path d="M 95.010949 95.365995 
C 95.603961 95.365995 96.172765 95.130389 96.592087 94.711066 
C 97.01141 94.291743 97.247017 93.722939 97.247017 93.129927 
C 97.247017 92.536915 97.01141 91.968111 96.592087 91.548788 
C 96.172765 91.129465 95.603961 90.893859 95.010949 90.893859 
C 94.417936 90.893859 93.849133 91.129465 93.42981 91.548788 
C 93.010487 91.968111 92.774881 92.536915 92.774881 93.129927 
C 92.774881 93.722939 93.010487 94.291743 93.42981 94.711066 
C 93.849133 95.130389 94.417936 95.365995 95.010949 95.365995 
z
" clip-path="url(#pf5084dba7a)" style="stroke: #000000"/>
    <path d="M 93.267149 82.852942 
C 93.474682 82.852942 93.673743 82.770488 93.82049 82.623741 
C 93.967238 82.476993 94.049692 82.277932 94.049692 82.0704 
C 94.049692 81.862867 93.967238 81.663806 93.82049 81.517059 
C 93.673743 81.370311 93.474682 81.287857 93.267149 81.287857 
C 93.059617 81.287857 92.860556 81.370311 92.713808 81.517059 
C 92.567061 81.663806 92.484607 81.862867 92.484607 82.0704 
C 92.484607 82.277932 92.567061 82.476993 92.713808 82.623741 
C 92.860556 82.770488 93.059617 82.852942 93.267149 82.852942 
z
" clip-path="url(#pf5084dba7a)" style="stroke: #000000"/>
    <path d="M 78.647527 52.543726 
C 79.240539 52.543726 79.809342 52.30812 80.228665 51.888797 
C 80.647988 51.469474 80.883595 50.90067 80.883595 50.307658 
C 80.883595 49.714646 80.647988 49.145842 80.228665 48.726519 
C 79.809342 48.307197 79.240539 48.07159 78.647527 48.07159 
C 78.054514 48.07159 77.485711 48.307197 77.066388 48.726519 
C 76.647065 49.145842 76.411459 49.714646 76.411459 50.307658 
C 76.411459 50.90067 76.647065 51.469474 77.066388 51.888797 
C 77.485711 52.30812 78.054514 52.543726 78.647527 52.543726 
z
" clip-path="url(#pf5084dba7a)" style="stroke: #000000"/>
    <path d="M 76.978059 39.472452 
C 77.110661 39.472452 77.237849 39.419769 77.331612 39.326005 
C 77.425376 39.232242 77.478059 39.105054 77.478059 38.972452 
C 77.478059 38.83985 77.425376 38.712662 77.331612 38.618899 
C 77.237849 38.525135 77.110661 38.472452 76.978059 38.472452 
C 76.845457 38.472452 76.718269 38.525135 76.624506 38.618899 
C 76.530742 38.712662 76.478059 38.83985 76.478059 38.972452 
C 76.478059 39.105054 76.530742 39.232242 76.624506 39.326005 
C 76.718269 39.419769 76.845457 39.472452 76.978059 39.472452 
z
" clip-path="url(#pf5084dba7a)" style="stroke: #000000"/>
    <path d="M 73.207817 31.380465 
C 73.707101 31.380465 74.186003 31.182097 74.53905 30.82905 
C 74.892097 30.476003 75.090465 29.997101 75.090465 29.497817 
C 75.090465 28.998533 74.892097 28.519631 74.53905 28.166584 
C 74.186003 27.813537 73.707101 27.61517 73.207817 27.61517 
C 72.708533 27.61517 72.229631 27.813537 71.876584 28.166584 
C 71.523537 28.519631 71.32517 28.998533 71.32517 29.497817 
C 71.32517 29.997101 71.523537 30.476003 71.876584 30.82905 
C 72.229631 31.182097 72.708533 31.380465 73.207817 31.380465 
z
" clip-path="url(#pf5084dba7a)" style="stroke: #000000"/>
    <path d="M 107.945253 157.027873 
C 108.537894 157.027873 109.106342 156.792415 109.525402 156.373354 
C 109.944463 155.954293 110.179922 155.385845 110.179922 154.793204 
C 110.179922 154.200563 109.944463 153.632115 109.525402 153.213055 
C 109.106342 152.793994 108.537894 152.558535 107.945253 152.558535 
C 107.352612 152.558535 106.784164 152.793994 106.365103 153.213055 
C 105.946042 153.632115 105.710584 154.200563 105.710584 154.793204 
C 105.710584 155.385845 105.946042 155.954293 106.365103 156.373354 
C 106.784164 156.792415 107.352612 157.027873 107.945253 157.027873 
z
" clip-path="url(#pf5084dba7a)" style="stroke: #000000"/>
    <path d="M 93.808342 128.666111 
C 94.401355 128.666111 94.970158 128.430505 95.389481 128.011182 
C 95.808804 127.591859 96.04441 127.023055 96.04441 126.430043 
C 96.04441 125.837031 95.808804 125.268227 95.389481 124.848904 
C 94.970158 124.429581 94.401355 124.193975 93.808342 124.193975 
C 93.21533 124.193975 92.646527 124.429581 92.227204 124.848904 
C 91.807881 125.268227 91.572274 125.837031 91.572274 126.430043 
C 91.572274 127.023055 91.807881 127.591859 92.227204 128.011182 
C 92.646527 128.430505 93.21533 128.666111 93.808342 128.666111 
z
" clip-path="url(#pf5084dba7a)" style="stroke: #000000"/>
    <path d="M 89.325892 120.077678 
C 89.877752 120.077678 90.407083 119.858421 90.797307 119.468197 
C 91.187531 119.077973 91.406788 118.548642 91.406788 117.996782 
C 91.406788 117.444922 91.187531 116.91559 90.797307 116.525366 
C 90.407083 116.135142 89.877752 115.915886 89.325892 115.915886 
C 88.774032 115.915886 88.2447 116.135142 87.854476 116.525366 
C 87.464252 116.91559 87.244996 117.444922 87.244996 117.996782 
C 87.244996 118.548642 87.464252 119.077973 87.854476 119.468197 
C 88.2447 119.858421 88.774032 120.077678 89.325892 120.077678 
z
" clip-path="url(#pf5084dba7a)" style="stroke: #000000"/>
    <path d="M 87.849475 110.121703 
C 88.384987 110.121703 88.898637 109.908942 89.277301 109.530278 
C 89.655965 109.151614 89.868727 108.637963 89.868727 108.102451 
C 89.868727 107.566939 89.655965 107.053289 89.277301 106.674625 
C 88.898637 106.295961 88.384987 106.0832 87.849475 106.0832 
C 87.313963 106.0832 86.800313 106.295961 86.421649 106.674625 
C 86.042985 107.053289 85.830224 107.566939 85.830224 108.102451 
C 85.830224 108.637963 86.042985 109.151614 86.421649 109.530278 
C 86.800313 109.908942 87.313963 110.121703 87.849475 110.121703 
z
" clip-path="url(#pf5084dba7a)" style="stroke: #000000"/>
    <path d="M 88.687915 97.404533 
C 89.281297 97.404533 89.850456 97.16878 90.270041 96.749195 
C 90.689625 96.32961 90.925379 95.760452 90.925379 95.167069 
C 90.925379 94.573687 90.689625 94.004528 90.270041 93.584943 
C 89.850456 93.165358 89.281297 92.929605 88.687915 92.929605 
C 88.094532 92.929605 87.525373 93.165358 87.105789 93.584943 
C 86.686204 94.004528 86.45045 94.573687 86.45045 95.167069 
C 86.45045 95.760452 86.686204 96.32961 87.105789 96.749195 
C 87.525373 97.16878 88.094532 97.404533 88.687915 97.404533 
z
" clip-path="url(#pf5084dba7a)" style="stroke: #000000"/>
    <path d="M 68.777351 48.183534 
C 69.350893 48.183534 69.901022 47.955663 70.306578 47.550107 
C 70.712134 47.144551 70.940004 46.594422 70.940004 46.02088 
C 70.940004 45.447337 70.712134 44.897208 70.306578 44.491653 
C 69.901022 44.086097 69.350893 43.858226 68.777351 43.858226 
C 68.203808 43.858226 67.653679 44.086097 67.248123 44.491653 
C 66.842568 44.897208 66.614697 45.447337 66.614697 46.02088 
C 66.614697 46.594422 66.842568 47.144551 67.248123 47.550107 
C 67.653679 47.955663 68.203808 48.183534 68.777351 48.183534 
z
" clip-path="url(#pf5084dba7a)" style="stroke: #000000"/>
    <path d="M 89.382831 155.539166 
C 89.975843 155.539166 90.544647 155.30356 90.96397 154.884237 
C 91.383293 154.464914 91.618899 153.89611 91.618899 153.303098 
C 91.618899 152.710086 91.383293 152.141282 90.96397 151.721959 
C 90.544647 151.302637 89.975843 151.06703 89.382831 151.06703 
C 88.789819 151.06703 88.221015 151.302637 87.801692 151.721959 
C 87.382369 152.141282 87.146763 152.710086 87.146763 153.303098 
C 87.146763 153.89611 87.382369 154.464914 87.801692 154.884237 
C 88.221015 155.30356 88.789819 155.539166 89.382831 155.539166 
z
" clip-path="url(#pf5084dba7a)" style="stroke: #000000"/>
    <path d="M 87.937242 132.959451 
C 88.405119 132.959451 88.853896 132.773562 89.184734 132.442723 
C 89.515573 132.111884 89.701463 131.663107 89.701463 131.195231 
C 89.701463 130.727354 89.515573 130.278577 89.184734 129.947738 
C 88.853896 129.616899 88.405119 129.43101 87.937242 129.43101 
C 87.469365 129.43101 87.020588 129.616899 86.68975 129.947738 
C 86.358911 130.278577 86.173021 130.727354 86.173021 131.195231 
C 86.173021 131.663107 86.358911 132.111884 86.68975 132.442723 
C 87.020588 132.773562 87.469365 132.959451 87.937242 132.959451 
z
" clip-path="url(#pf5084dba7a)" style="stroke: #000000"/>
    <path d="M 78.618985 122.712131 
C 79.155 122.712131 79.669132 122.49917 80.048152 122.120151 
C 80.427171 121.741131 80.640132 121.226998 80.640132 120.690984 
C 80.640132 120.15497 80.427171 119.640837 80.048152 119.261818 
C 79.669132 118.882798 79.155 118.669837 78.618985 118.669837 
C 78.082971 118.669837 77.568838 118.882798 77.189819 119.261818 
C 76.8108 119.640837 76.597839 120.15497 76.597839 120.690984 
C 76.597839 121.226998 76.8108 121.741131 77.189819 122.120151 
C 77.568838 122.49917 78.082971 122.712131 78.618985 122.712131 
z
" clip-path="url(#pf5084dba7a)" style="stroke: #000000"/>
    <path d="M 76.464276 110.963415 
C 77.000291 110.963415 77.514423 110.750454 77.893443 110.371434 
C 78.272462 109.992415 78.485423 109.478282 78.485423 108.942268 
C 78.485423 108.406254 78.272462 107.892121 77.893443 107.513101 
C 77.514423 107.134082 77.000291 106.921121 76.464276 106.921121 
C 75.928262 106.921121 75.414129 107.134082 75.03511 107.513101 
C 74.65609 107.892121 74.44313 108.406254 74.44313 108.942268 
C 74.44313 109.478282 74.65609 109.992415 75.03511 110.371434 
C 75.414129 110.750454 75.928262 110.963415 76.464276 110.963415 
z
" clip-path="url(#pf5084dba7a)" style="stroke: #000000"/>
    <path d="M 76.488574 104.781851 
C 77.024589 104.781851 77.538721 104.568891 77.917741 104.189871 
C 78.29676 103.810852 78.509721 103.296719 78.509721 102.760705 
C 78.509721 102.22469 78.29676 101.710558 77.917741 101.331538 
C 77.538721 100.952519 77.024589 100.739558 76.488574 100.739558 
C 75.95256 100.739558 75.438427 100.952519 75.059408 101.331538 
C 74.680388 101.710558 74.467428 102.22469 74.467428 102.760705 
C 74.467428 103.296719 74.680388 103.810852 75.059408 104.189871 
C 75.438427 104.568891 75.95256 104.781851 76.488574 104.781851 
z
" clip-path="url(#pf5084dba7a)" style="stroke: #000000"/>
    <path d="M 71.933478 89.608747 
C 72.52686 89.608747 73.096019 89.372994 73.515604 88.953409 
C 73.935189 88.533824 74.170942 87.964665 74.170942 87.371283 
C 74.170942 86.7779 73.935189 86.208741 73.515604 85.789157 
C 73.096019 85.369572 72.52686 85.133818 71.933478 85.133818 
C 71.340095 85.133818 70.770936 85.369572 70.351352 85.789157 
C 69.931767 86.208741 69.696014 86.7779 69.696014 87.371283 
C 69.696014 87.964665 69.931767 88.533824 70.351352 88.953409 
C 70.770936 89.372994 71.340095 89.608747 71.933478 89.608747 
z
" clip-path="url(#pf5084dba7a)" style="stroke: #000000"/>
    <path d="M 64.228764 81.437969 
C 64.736523 81.437969 65.223555 81.236234 65.582595 80.877193 
C 65.941635 80.518153 66.143371 80.031121 66.143371 79.523362 
C 66.143371 79.015602 65.941635 78.52857 65.582595 78.16953 
C 65.223555 77.81049 64.736523 77.608755 64.228764 77.608755 
C 63.721004 77.608755 63.233972 77.81049 62.874932 78.16953 
C 62.515892 78.52857 62.314157 79.015602 62.314157 79.523362 
C 62.314157 80.031121 62.515892 80.518153 62.874932 80.877193 
C 63.233972 81.236234 63.721004 81.437969 64.228764 81.437969 
z
" clip-path="url(#pf5084dba7a)" style="stroke: #000000"/>
    <path d="M 54.148526 37.744699 
C 54.281127 37.744699 54.408316 37.692016 54.502079 37.598252 
C 54.595843 37.504489 54.648526 37.3773 54.648526 37.244699 
C 54.648526 37.112097 54.595843 36.984909 54.502079 36.891145 
C 54.408316 36.797382 54.281127 36.744699 54.148526 36.744699 
C 54.015924 36.744699 53.888736 36.797382 53.794972 36.891145 
C 53.701209 36.984909 53.648526 37.112097 53.648526 37.244699 
C 53.648526 37.3773 53.701209 37.504489 53.794972 37.598252 
C 53.888736 37.692016 54.015924 37.744699 54.148526 37.744699 
z
" clip-path="url(#pf5084dba7a)" style="stroke: #000000"/>
    <path d="M 89.612146 177.204048 
C 90.132424 177.204048 90.631463 176.997339 90.999356 176.629447 
C 91.367248 176.261555 91.573957 175.762516 91.573957 175.242238 
C 91.573957 174.721959 91.367248 174.22292 90.999356 173.855028 
C 90.631463 173.487136 90.132424 173.280427 89.612146 173.280427 
C 89.091868 173.280427 88.592829 173.487136 88.224936 173.855028 
C 87.857044 174.22292 87.650335 174.721959 87.650335 175.242238 
C 87.650335 175.762516 87.857044 176.261555 88.224936 176.629447 
C 88.592829 176.997339 89.091868 177.204048 89.612146 177.204048 
z
" clip-path="url(#pf5084dba7a)" style="stroke: #000000"/>
    <path d="M 84.722553 165.821766 
C 85.147022 165.821766 85.554163 165.653123 85.854308 165.352978 
C 86.154453 165.052833 86.323096 164.645692 86.323096 164.221223 
C 86.323096 163.796754 86.154453 163.389613 85.854308 163.089469 
C 85.554163 162.789324 85.147022 162.62068 84.722553 162.62068 
C 84.298084 162.62068 83.890943 162.789324 83.590798 163.089469 
C 83.290653 163.389613 83.12201 163.796754 83.12201 164.221223 
C 83.12201 164.645692 83.290653 165.052833 83.590798 165.352978 
C 83.890943 165.653123 84.298084 165.821766 84.722553 165.821766 
z
" clip-path="url(#pf5084dba7a)" style="stroke: #000000"/>
    <path d="M 72.616074 135.490566 
C 73.110953 135.490566 73.58563 135.293949 73.935562 134.944016 
C 74.285495 134.594084 74.482112 134.119407 74.482112 133.624528 
C 74.482112 133.129649 74.285495 132.654973 73.935562 132.30504 
C 73.58563 131.955108 73.110953 131.758491 72.616074 131.758491 
C 72.121195 131.758491 71.646519 131.955108 71.296586 132.30504 
C 70.946654 132.654973 70.750037 133.129649 70.750037 133.624528 
C 70.750037 134.119407 70.946654 134.594084 71.296586 134.944016 
C 71.646519 135.293949 72.121195 135.490566 72.616074 135.490566 
z
" clip-path="url(#pf5084dba7a)" style="stroke: #000000"/>
    <path d="M 67.07251 105.636715 
C 67.608524 105.636715 68.122657 105.423754 68.501676 105.044735 
C 68.880696 104.665715 69.093656 104.151583 69.093656 103.615568 
C 69.093656 103.079554 68.880696 102.565421 68.501676 102.186402 
C 68.122657 101.807382 67.608524 101.594422 67.07251 101.594422 
C 66.536495 101.594422 66.022363 101.807382 65.643343 102.186402 
C 65.264324 102.565421 65.051363 103.079554 65.051363 103.615568 
C 65.051363 104.151583 65.264324 104.665715 65.643343 105.044735 
C 66.022363 105.423754 66.536495 105.636715 67.07251 105.636715 
z
" clip-path="url(#pf5084dba7a)" style="stroke: #000000"/>
    <path d="M 57.287197 88.067306 
C 57.880579 88.067306 58.449738 87.831553 58.869323 87.411968 
C 59.288908 86.992383 59.524661 86.423224 59.524661 85.829842 
C 59.524661 85.236459 59.288908 84.667301 58.869323 84.247716 
C 58.449738 83.828131 57.880579 83.592378 57.287197 83.592378 
C 56.693815 83.592378 56.124656 83.828131 55.705071 84.247716 
C 55.285486 84.667301 55.049733 85.236459 55.049733 85.829842 
C 55.049733 86.423224 55.285486 86.992383 55.705071 87.411968 
C 56.124656 87.831553 56.693815 88.067306 57.287197 88.067306 
z
" clip-path="url(#pf5084dba7a)" style="stroke: #000000"/>
    <path d="M 49.836179 56.483611 
C 50.429191 56.483611 50.997995 56.248004 51.417318 55.828681 
C 51.836641 55.409359 52.072247 54.840555 52.072247 54.247543 
C 52.072247 53.65453 51.836641 53.085727 51.417318 52.666404 
C 50.997995 52.247081 50.429191 52.011475 49.836179 52.011475 
C 49.243167 52.011475 48.674363 52.247081 48.25504 52.666404 
C 47.835717 53.085727 47.600111 53.65453 47.600111 54.247543 
C 47.600111 54.840555 47.835717 55.409359 48.25504 55.828681 
C 48.674363 56.248004 49.243167 56.483611 49.836179 56.483611 
z
" clip-path="url(#pf5084dba7a)" style="stroke: #000000"/>
    <path d="M 68.02785 162.918168 
C 68.620862 162.918168 69.189666 162.682562 69.608988 162.263239 
C 70.028311 161.843916 70.263918 161.275113 70.263918 160.6821 
C 70.263918 160.089088 70.028311 159.520284 69.608988 159.100962 
C 69.189666 158.681639 68.620862 158.446032 68.02785 158.446032 
C 67.434837 158.446032 66.866034 158.681639 66.446711 159.100962 
C 66.027388 159.520284 65.791782 160.089088 65.791782 160.6821 
C 65.791782 161.275113 66.027388 161.843916 66.446711 162.263239 
C 66.866034 162.682562 67.434837 162.918168 68.02785 162.918168 
z
" clip-path="url(#pf5084dba7a)" style="stroke: #000000"/>
    <path d="M 67.370581 151.993858 
C 67.955652 151.993858 68.516839 151.761407 68.930546 151.3477 
C 69.344254 150.933992 69.576705 150.372806 69.576705 149.787735 
C 69.576705 149.202664 69.344254 148.641477 68.930546 148.22777 
C 68.516839 147.814062 67.955652 147.581611 67.370581 147.581611 
C 66.78551 147.581611 66.224324 147.814062 65.810616 148.22777 
C 65.396909 148.641477 65.164458 149.202664 65.164458 149.787735 
C 65.164458 150.372806 65.396909 150.933992 65.810616 151.3477 
C 66.224324 151.761407 66.78551 151.993858 67.370581 151.993858 
z
" clip-path="url(#pf5084dba7a)" style="stroke: #000000"/>
    <path d="M 64.656978 137.284441 
C 65.096767 137.284441 65.518603 137.109711 65.829582 136.798733 
C 66.14056 136.487755 66.31529 136.065918 66.31529 135.626129 
C 66.31529 135.186339 66.14056 134.764503 65.829582 134.453525 
C 65.518603 134.142547 65.096767 133.967816 64.656978 133.967816 
C 64.217188 133.967816 63.795352 134.142547 63.484374 134.453525 
C 63.173396 134.764503 62.998665 135.186339 62.998665 135.626129 
C 62.998665 136.065918 63.173396 136.487755 63.484374 136.798733 
C 63.795352 137.109711 64.217188 137.284441 64.656978 137.284441 
z
" clip-path="url(#pf5084dba7a)" style="stroke: #000000"/>
    <path d="M 57.681088 132.505557 
C 58.274471 132.505557 58.84363 132.269803 59.263214 131.850218 
C 59.682799 131.430634 59.918552 130.861475 59.918552 130.268092 
C 59.918552 129.67471 59.682799 129.105551 59.263214 128.685966 
C 58.84363 128.266381 58.274471 128.030628 57.681088 128.030628 
C 57.087706 128.030628 56.518547 128.266381 56.098962 128.685966 
C 55.679377 129.105551 55.443624 129.67471 55.443624 130.268092 
C 55.443624 130.861475 55.679377 131.430634 56.098962 131.850218 
C 56.518547 132.269803 57.087706 132.505557 57.681088 132.505557 
z
" clip-path="url(#pf5084dba7a)" style="stroke: #000000"/>
    <path d="M 59.792903 121.410509 
C 60.386285 121.410509 60.955444 121.174755 61.375029 120.75517 
C 61.794614 120.335586 62.030367 119.766427 62.030367 119.173044 
C 62.030367 118.579662 61.794614 118.010503 61.375029 117.590918 
C 60.955444 117.171334 60.386285 116.93558 59.792903 116.93558 
C 59.199521 116.93558 58.630362 117.171334 58.210777 117.590918 
C 57.791192 118.010503 57.555439 118.579662 57.555439 119.173044 
C 57.555439 119.766427 57.791192 120.335586 58.210777 120.75517 
C 58.630362 121.174755 59.199521 121.410509 59.792903 121.410509 
z
" clip-path="url(#pf5084dba7a)" style="stroke: #000000"/>
    <path d="M 53.433592 110.915175 
C 54.026974 110.915175 54.596133 110.679422 55.015718 110.259837 
C 55.435303 109.840252 55.671056 109.271093 55.671056 108.677711 
C 55.671056 108.084329 55.435303 107.51517 55.015718 107.095585 
C 54.596133 106.676 54.026974 106.440247 53.433592 106.440247 
C 52.840209 106.440247 52.27105 106.676 51.851466 107.095585 
C 51.431881 107.51517 51.196128 108.084329 51.196128 108.677711 
C 51.196128 109.271093 51.431881 109.840252 51.851466 110.259837 
C 52.27105 110.679422 52.840209 110.915175 53.433592 110.915175 
z
" clip-path="url(#pf5084dba7a)" style="stroke: #000000"/>
    <path d="M 47.645284 90.517476 
C 48.238666 90.517476 48.807825 90.281722 49.22741 89.862137 
C 49.646995 89.442553 49.882748 88.873394 49.882748 88.280011 
C 49.882748 87.686629 49.646995 87.11747 49.22741 86.697885 
C 48.807825 86.2783 48.238666 86.042547 47.645284 86.042547 
C 47.051902 86.042547 46.482743 86.2783 46.063158 86.697885 
C 45.643573 87.11747 45.40782 87.686629 45.40782 88.280011 
C 45.40782 88.873394 45.643573 89.442553 46.063158 89.862137 
C 46.482743 90.281722 47.051902 90.517476 47.645284 90.517476 
z
" clip-path="url(#pf5084dba7a)" style="stroke: #000000"/>
    <path d="M 38.70288 77.882577 
C 39.241386 77.882577 39.757909 77.668627 40.138691 77.287845 
C 40.519472 76.907064 40.733423 76.390541 40.733423 75.852034 
C 40.733423 75.313528 40.519472 74.797005 40.138691 74.416223 
C 39.757909 74.035442 39.241386 73.821491 38.70288 73.821491 
C 38.164373 73.821491 37.64785 74.035442 37.267069 74.416223 
C 36.886287 74.797005 36.672337 75.313528 36.672337 75.852034 
C 36.672337 76.390541 36.886287 76.907064 37.267069 77.287845 
C 37.64785 77.668627 38.164373 77.882577 38.70288 77.882577 
z
" clip-path="url(#pf5084dba7a)" style="stroke: #000000"/>
    <path d="M 62.366131 166.034585 
C 62.959144 166.034585 63.527947 165.798978 63.94727 165.379655 
C 64.366593 164.960333 64.602199 164.391529 64.602199 163.798517 
C 64.602199 163.205504 64.366593 162.636701 63.94727 162.217378 
C 63.527947 161.798055 62.959144 161.562449 62.366131 161.562449 
C 61.773119 161.562449 61.204316 161.798055 60.784993 162.217378 
C 60.36567 162.636701 60.130063 163.205504 60.130063 163.798517 
C 60.130063 164.391529 60.36567 164.960333 60.784993 165.379655 
C 61.204316 165.798978 61.773119 166.034585 62.366131 166.034585 
z
" clip-path="url(#pf5084dba7a)" style="stroke: #000000"/>
    <path d="M 56.017739 143.116699 
C 56.611122 143.116699 57.18028 142.880946 57.599865 142.461361 
C 58.01945 142.041777 58.255203 141.472618 58.255203 140.879235 
C 58.255203 140.285853 58.01945 139.716694 57.599865 139.297109 
C 57.18028 138.877524 56.611122 138.641771 56.017739 138.641771 
C 55.424357 138.641771 54.855198 138.877524 54.435613 139.297109 
C 54.016028 139.716694 53.780275 140.285853 53.780275 140.879235 
C 53.780275 141.472618 54.016028 142.041777 54.435613 142.461361 
C 54.855198 142.880946 55.424357 143.116699 56.017739 143.116699 
z
" clip-path="url(#pf5084dba7a)" style="stroke: #000000"/>
    <path d="M 50.831674 129.445324 
C 51.425057 129.445324 51.994216 129.209571 52.413801 128.789986 
C 52.833385 128.370402 53.069139 127.801243 53.069139 127.20786 
C 53.069139 126.614478 52.833385 126.045319 52.413801 125.625734 
C 51.994216 125.206149 51.425057 124.970396 50.831674 124.970396 
C 50.238292 124.970396 49.669133 125.206149 49.249548 125.625734 
C 48.829964 126.045319 48.59421 126.614478 48.59421 127.20786 
C 48.59421 127.801243 48.829964 128.370402 49.249548 128.789986 
C 49.669133 129.209571 50.238292 129.445324 50.831674 129.445324 
z
" clip-path="url(#pf5084dba7a)" style="stroke: #000000"/>
    <path d="M 51.638802 124.746423 
C 52.232184 124.746423 52.801343 124.510669 53.220928 124.091084 
C 53.640513 123.6715 53.876266 123.102341 53.876266 122.508958 
C 53.876266 121.915576 53.640513 121.346417 53.220928 120.926832 
C 52.801343 120.507247 52.232184 120.271494 51.638802 120.271494 
C 51.04542 120.271494 50.476261 120.507247 50.056676 120.926832 
C 49.637091 121.346417 49.401338 121.915576 49.401338 122.508958 
C 49.401338 123.102341 49.637091 123.6715 50.056676 124.091084 
C 50.476261 124.510669 51.04542 124.746423 51.638802 124.746423 
z
" clip-path="url(#pf5084dba7a)" style="stroke: #000000"/>
    <path d="M 41.107961 112.215156 
C 41.701343 112.215156 42.270502 111.979402 42.690087 111.559818 
C 43.109671 111.140233 43.345425 110.571074 43.345425 109.977691 
C 43.345425 109.384309 43.109671 108.81515 42.690087 108.395565 
C 42.270502 107.975981 41.701343 107.740227 41.107961 107.740227 
C 40.514578 107.740227 39.945419 107.975981 39.525834 108.395565 
C 39.10625 108.81515 38.870496 109.384309 38.870496 109.977691 
C 38.870496 110.571074 39.10625 111.140233 39.525834 111.559818 
C 39.945419 111.979402 40.514578 112.215156 41.107961 112.215156 
z
" clip-path="url(#pf5084dba7a)" style="stroke: #000000"/>
    <path d="M 39.048288 90.369569 
C 39.64093 90.369569 40.209378 90.13411 40.628438 89.715049 
C 41.047499 89.295989 41.282958 88.727541 41.282958 88.134899 
C 41.282958 87.542258 41.047499 86.97381 40.628438 86.55475 
C 40.209378 86.135689 39.64093 85.90023 39.048288 85.90023 
C 38.455647 85.90023 37.887199 86.135689 37.468139 86.55475 
C 37.049078 86.97381 36.813619 87.542258 36.813619 88.134899 
C 36.813619 88.727541 37.049078 89.295989 37.468139 89.715049 
C 37.887199 90.13411 38.455647 90.369569 39.048288 90.369569 
z
" clip-path="url(#pf5084dba7a)" style="stroke: #000000"/>
    <path d="M 56.162004 175.303885 
C 56.349531 175.303885 56.529402 175.229379 56.662004 175.096778 
C 56.794605 174.964176 56.86911 174.784305 56.86911 174.596778 
C 56.86911 174.409251 56.794605 174.229379 56.662004 174.096778 
C 56.529402 173.964176 56.349531 173.889671 56.162004 173.889671 
C 55.974477 173.889671 55.794605 173.964176 55.662004 174.096778 
C 55.529402 174.229379 55.454897 174.409251 55.454897 174.596778 
C 55.454897 174.784305 55.529402 174.964176 55.662004 175.096778 
C 55.794605 175.229379 55.974477 175.303885 56.162004 175.303885 
z
" clip-path="url(#pf5084dba7a)" style="stroke: #000000"/>
    <path d="M 47.106434 157.371132 
C 47.560918 157.371132 47.996848 157.190563 48.318217 156.869195 
C 48.639585 156.547826 48.820153 156.111896 48.820153 155.657412 
C 48.820153 155.202928 48.639585 154.766998 48.318217 154.445629 
C 47.996848 154.124261 47.560918 153.943692 47.106434 153.943692 
C 46.65195 153.943692 46.21602 154.124261 45.894651 154.445629 
C 45.573282 154.766998 45.392714 155.202928 45.392714 155.657412 
C 45.392714 156.111896 45.573282 156.547826 45.894651 156.869195 
C 46.21602 157.190563 46.65195 157.371132 47.106434 157.371132 
z
" clip-path="url(#pf5084dba7a)" style="stroke: #000000"/>
    <path d="M 34.885801 137.225285 
C 35.402195 137.225285 35.897507 137.02012 36.262652 136.654975 
C 36.627798 136.289829 36.832963 135.794517 36.832963 135.278124 
C 36.832963 134.76173 36.627798 134.266418 36.262652 133.901273 
C 35.897507 133.536127 35.402195 133.330962 34.885801 133.330962 
C 34.369408 133.330962 33.874095 133.536127 33.50895 133.901273 
C 33.143805 134.266418 32.93864 134.76173 32.93864 135.278124 
C 32.93864 135.794517 33.143805 136.289829 33.50895 136.654975 
C 33.874095 137.02012 34.369408 137.225285 34.885801 137.225285 
z
" clip-path="url(#pf5084dba7a)" style="stroke: #000000"/>
    <path d="M 38.313824 126.624753 
C 38.907207 126.624753 39.476366 126.388999 39.89595 125.969415 
C 40.315535 125.54983 40.551289 124.980671 40.551289 124.387288 
C 40.551289 123.793906 40.315535 123.224747 39.89595 122.805162 
C 39.476366 122.385578 38.907207 122.149824 38.313824 122.149824 
C 37.720442 122.149824 37.151283 122.385578 36.731698 122.805162 
C 36.312113 123.224747 36.07636 123.793906 36.07636 124.387288 
C 36.07636 124.980671 36.312113 125.54983 36.731698 125.969415 
C 37.151283 126.388999 37.720442 126.624753 38.313824 126.624753 
z
" clip-path="url(#pf5084dba7a)" style="stroke: #000000"/>
    <path d="M 32.853914 149.076502 
C 33.446926 149.076502 34.01573 148.840896 34.435053 148.421573 
C 34.854376 148.00225 35.089982 147.433446 35.089982 146.840434 
C 35.089982 146.247422 34.854376 145.678618 34.435053 145.259295 
C 34.01573 144.839972 33.446926 144.604366 32.853914 144.604366 
C 32.260902 144.604366 31.692098 144.839972 31.272775 145.259295 
C 30.853452 145.678618 30.617846 146.247422 30.617846 146.840434 
C 30.617846 147.433446 30.853452 148.00225 31.272775 148.421573 
C 31.692098 148.840896 32.260902 149.076502 32.853914 149.076502 
z
" clip-path="url(#pf5084dba7a)" style="stroke: #000000"/>
   </g>
   <g id="matplotlib.axis_1">
    <g id="xtick_1">
     <g id="line2d_1">
      <defs>
       <path id="m0358a4bd21" d="M 0 0 
L 0 3.5 
" style="stroke: #000000; stroke-width: 0.8"/>
      </defs>
      <g>
       <use xlink:href="#m0358a4bd21" x="18" y="189" style="stroke: #000000; stroke-width: 0.8"/>
      </g>
     </g>
     <g id="text_1">
      <!-- −10 -->
      <g transform="translate(7.447656 203.598437)scale(0.1 -0.1)">
       <defs>
        <path id="DejaVuSans-2212" d="M 678 2272 
L 4684 2272 
L 4684 1741 
L 678 1741 
L 678 2272 
z
" transform="scale(0.015625)"/>
        <path id="DejaVuSans-31" d="M 794 531 
L 1825 531 
L 1825 4091 
L 703 3866 
L 703 4441 
L 1819 4666 
L 2450 4666 
L 2450 531 
L 3481 531 
L 3481 0 
L 794 0 
L 794 531 
z
" transform="scale(0.015625)"/>
        <path id="DejaVuSans-30" d="M 2034 4250 
Q 1547 4250 1301 3770 
Q 1056 3291 1056 2328 
Q 1056 1369 1301 889 
Q 1547 409 2034 409 
Q 2525 409 2770 889 
Q 3016 1369 3016 2328 
Q 3016 3291 2770 3770 
Q 2525 4250 2034 4250 
z
M 2034 4750 
Q 2819 4750 3233 4129 
Q 3647 3509 3647 2328 
Q 3647 1150 3233 529 
Q 2819 -91 2034 -91 
Q 1250 -91 836 529 
Q 422 1150 422 2328 
Q 422 3509 836 4129 
Q 1250 4750 2034 4750 
z
" transform="scale(0.015625)"/>
       </defs>
       <use xlink:href="#DejaVuSans-2212"/>
       <use xlink:href="#DejaVuSans-31" x="83.789062"/>
       <use xlink:href="#DejaVuSans-30" x="147.412109"/>
      </g>
     </g>
    </g>
    <g id="xtick_2">
     <g id="line2d_2">
      <g>
       <use xlink:href="#m0358a4bd21" x="73.8" y="189" style="stroke: #000000; stroke-width: 0.8"/>
      </g>
     </g>
     <g id="text_2">
      <!-- 0 -->
      <g transform="translate(70.61875 203.598437)scale(0.1 -0.1)">
       <use xlink:href="#DejaVuSans-30"/>
      </g>
     </g>
    </g>
    <g id="xtick_3">
     <g id="line2d_3">
      <g>
       <use xlink:href="#m0358a4bd21" x="129.6" y="189" style="stroke: #000000; stroke-width: 0.8"/>
      </g>
     </g>
     <g id="text_3">
      <!-- 10 -->
      <g transform="translate(123.2375 203.598437)scale(0.1 -0.1)">
       <use xlink:href="#DejaVuSans-31"/>
       <use xlink:href="#DejaVuSans-30" x="63.623047"/>
      </g>
     </g>
    </g>
   </g>
   <g id="matplotlib.axis_2">
    <g id="ytick_1">
     <g id="line2d_4">
      <defs>
       <path id="m047016f168" d="M 0 0 
L -3.5 0 
" style="stroke: #000000; stroke-width: 0.8"/>
      </defs>
      <g>
       <use xlink:href="#m047016f168" x="18" y="189" style="stroke: #000000; stroke-width: 0.8"/>
      </g>
     </g>
     <g id="text_4">
      <!-- −15 -->
      <g transform="translate(-10.104688 192.799219)scale(0.1 -0.1)">
       <defs>
        <path id="DejaVuSans-35" d="M 691 4666 
L 3169 4666 
L 3169 4134 
L 1269 4134 
L 1269 2991 
Q 1406 3038 1543 3061 
Q 1681 3084 1819 3084 
Q 2600 3084 3056 2656 
Q 3513 2228 3513 1497 
Q 3513 744 3044 326 
Q 2575 -91 1722 -91 
Q 1428 -91 1123 -41 
Q 819 9 494 109 
L 494 744 
Q 775 591 1075 516 
Q 1375 441 1709 441 
Q 2250 441 2565 725 
Q 2881 1009 2881 1497 
Q 2881 1984 2565 2268 
Q 2250 2553 1709 2553 
Q 1456 2553 1204 2497 
Q 953 2441 691 2322 
L 691 4666 
z
" transform="scale(0.015625)"/>
       </defs>
       <use xlink:href="#DejaVuSans-2212"/>
       <use xlink:href="#DejaVuSans-31" x="83.789062"/>
       <use xlink:href="#DejaVuSans-35" x="147.412109"/>
      </g>
     </g>
    </g>
    <g id="ytick_2">
     <g id="line2d_5">
      <g>
       <use xlink:href="#m047016f168" x="18" y="161.82" style="stroke: #000000; stroke-width: 0.8"/>
      </g>
     </g>
     <g id="text_5">
      <!-- −10 -->
      <g transform="translate(-10.104688 165.619219)scale(0.1 -0.1)">
       <use xlink:href="#DejaVuSans-2212"/>
       <use xlink:href="#DejaVuSans-31" x="83.789062"/>
       <use xlink:href="#DejaVuSans-30" x="147.412109"/>
      </g>
     </g>
    </g>
    <g id="ytick_3">
     <g id="line2d_6">
      <g>
       <use xlink:href="#m047016f168" x="18" y="134.64" style="stroke: #000000; stroke-width: 0.8"/>
      </g>
     </g>
     <g id="text_6">
      <!-- −5 -->
      <g transform="translate(-3.742188 138.439219)scale(0.1 -0.1)">
       <use xlink:href="#DejaVuSans-2212"/>
       <use xlink:href="#DejaVuSans-35" x="83.789062"/>
      </g>
     </g>
    </g>
    <g id="ytick_4">
     <g id="line2d_7">
      <g>
       <use xlink:href="#m047016f168" x="18" y="107.46" style="stroke: #000000; stroke-width: 0.8"/>
      </g>
     </g>
     <g id="text_7">
      <!-- 0 -->
      <g transform="translate(4.6375 111.259219)scale(0.1 -0.1)">
       <use xlink:href="#DejaVuSans-30"/>
      </g>
     </g>
    </g>
    <g id="ytick_5">
     <g id="line2d_8">
      <g>
       <use xlink:href="#m047016f168" x="18" y="80.28" style="stroke: #000000; stroke-width: 0.8"/>
      </g>
     </g>
     <g id="text_8">
      <!-- 5 -->
      <g transform="translate(4.6375 84.079219)scale(0.1 -0.1)">
       <use xlink:href="#DejaVuSans-35"/>
      </g>
     </g>
    </g>
    <g id="ytick_6">
     <g id="line2d_9">
      <g>
       <use xlink:href="#m047016f168" x="18" y="53.1" style="stroke: #000000; stroke-width: 0.8"/>
      </g>
     </g>
     <g id="text_9">
      <!-- 10 -->
      <g transform="translate(-1.725 56.899219)scale(0.1 -0.1)">
       <use xlink:href="#DejaVuSans-31"/>
       <use xlink:href="#DejaVuSans-30" x="63.623047"/>
      </g>
     </g>
    </g>
    <g id="ytick_7">
     <g id="line2d_10">
      <g>
       <use xlink:href="#m047016f168" x="18" y="25.92" style="stroke: #000000; stroke-width: 0.8"/>
      </g>
     </g>
     <g id="text_10">
      <!-- 15 -->
      <g transform="translate(-1.725 29.719219)scale(0.1 -0.1)">
       <use xlink:href="#DejaVuSans-31"/>
       <use xlink:href="#DejaVuSans-35" x="63.623047"/>
      </g>
     </g>
    </g>
   </g>
   <g id="patch_3">
    <path d="M 18 189 
L 18 25.92 
" style="fill: none; stroke: #000000; stroke-width: 0.8; stroke-linejoin: miter; stroke-linecap: square"/>
   </g>
   <g id="patch_4">
    <path d="M 129.6 189 
L 129.6 25.92 
" style="fill: none; stroke: #000000; stroke-width: 0.8; stroke-linejoin: miter; stroke-linecap: square"/>
   </g>
   <g id="patch_5">
    <path d="M 18 189 
L 129.6 189 
" style="fill: none; stroke: #000000; stroke-width: 0.8; stroke-linejoin: miter; stroke-linecap: square"/>
   </g>
   <g id="patch_6">
    <path d="M 18 25.92 
L 129.6 25.92 
" style="fill: none; stroke: #000000; stroke-width: 0.8; stroke-linejoin: miter; stroke-linecap: square"/>
   </g>
  </g>
 </g>
 <defs>
  <clipPath id="pf5084dba7a">
   <rect x="18" y="25.92" width="111.6" height="163.08"/>
  </clipPath>
 </defs>
</svg>
