<?xml version="1.0" encoding="utf-8" standalone="no"?>
<!DOCTYPE svg PUBLIC "-//W3C//DTD SVG 1.1//EN"
  "http://www.w3.org/Graphics/SVG/1.1/DTD/svg11.dtd">
<svg xmlns:xlink="http://www.w3.org/1999/xlink" width="144pt" height="216pt" viewBox="0 0 144 216" xmlns="http://www.w3.org/2000/svg" version="1.1">
 <metadata>
  <rdf:RDF xmlns:dc="http://purl.org/dc/elements/1.1/" xmlns:cc="http://creativecommons.org/ns#" xmlns:rdf="http://www.w3.org/1999/02/22-rdf-syntax-ns#">
   <cc:Work>
    <dc:type rdf:resource="http://purl.org/dc/dcmitype/StillImage"/>
    <dc:date>2022-06-23T14:49:53.957067</dc:date>
    <dc:format>image/svg+xml</dc:format>
    <dc:creator>
     <cc:Agent>
      <dc:title>Matplotlib v3.5.1, https://matplotlib.org/</dc:title>
     </cc:Agent>
    </dc:creator>
   </cc:Work>
  </rdf:RDF>
 </metadata>
 <defs>
  <style type="text/css">*{stroke-linejoin: round; stroke-linecap: butt}</style>
 </defs>
 <g id="figure_1">
  <g id="patch_1">
   <path d="M 0 216 
L 144 216 
L 144 0 
L 0 0 
L 0 216 
z
" style="fill: none"/>
  </g>
  <g id="axes_1">
   <g id="patch_2">
    <path d="M 18 189 
L 129.6 189 
L 129.6 25.92 
L 18 25.92 
z
" style="fill: #ffffff"/>
   </g>
   <g id="PathCollection_1">
    <defs>
     <path id="m5ba0459621" d="M 0 2.738613 
C 0.726289 2.738613 1.422928 2.450055 1.936492 1.936492 
C 2.450055 1.422928 2.738613 0.726289 2.738613 0 
C 2.738613 -0.726289 2.450055 -1.422928 1.936492 -1.936492 
C 1.422928 -2.450055 0.726289 -2.738613 0 -2.738613 
C -0.726289 -2.738613 -1.422928 -2.450055 -1.936492 -1.936492 
C -2.450055 -1.422928 -2.738613 -0.726289 -2.738613 0 
C -2.738613 0.726289 -2.450055 1.422928 -1.936492 1.936492 
C -1.422928 2.450055 -0.726289 2.738613 0 2.738613 
z
" style="stroke: #ff0000; stroke-width: 1.75"/>
    </defs>
    <g clip-path="url(#p595bd250b2)">
     <use xlink:href="#m5ba0459621" x="80.775" y="107.46" style="fill: #ff0000; stroke: #ff0000; stroke-width: 1.75"/>
     <use xlink:href="#m5ba0459621" x="94.725" y="107.46" style="fill: #ff0000; stroke: #ff0000; stroke-width: 1.75"/>
     <use xlink:href="#m5ba0459621" x="59.85" y="119.229285" style="fill: #ff0000; stroke: #ff0000; stroke-width: 1.75"/>
     <use xlink:href="#m5ba0459621" x="73.8" y="119.229285" style="fill: #ff0000; stroke: #ff0000; stroke-width: 1.75"/>
     <use xlink:href="#m5ba0459621" x="87.75" y="119.229285" style="fill: #ff0000; stroke: #ff0000; stroke-width: 1.75"/>
     <use xlink:href="#m5ba0459621" x="66.825" y="130.99857" style="fill: #ff0000; stroke: #ff0000; stroke-width: 1.75"/>
     <use xlink:href="#m5ba0459621" x="80.775" y="130.99857" style="fill: #ff0000; stroke: #ff0000; stroke-width: 1.75"/>
    </g>
   </g>
   <g id="PathCollection_2">
    <defs>
     <path id="C0_0_ab0aea9417" d="M 0 2.738613 
C 0.726289 2.738613 1.422928 2.450055 1.936492 1.936492 
C 2.450055 1.422928 2.738613 0.726289 2.738613 -0 
C 2.738613 -0.726289 2.450055 -1.422928 1.936492 -1.936492 
C 1.422928 -2.450055 0.726289 -2.738613 0 -2.738613 
C -0.726289 -2.738613 -1.422928 -2.450055 -1.936492 -1.936492 
C -2.450055 -1.422928 -2.738613 -0.726289 -2.738613 0 
C -2.738613 0.726289 -2.450055 1.422928 -1.936492 1.936492 
C -1.422928 2.450055 -0.726289 2.738613 0 2.738613 
z
"/>
    </defs>
    <g clip-path="url(#p595bd250b2)">
     <use xlink:href="#C0_0_ab0aea9417" x="66.825" y="83.92143" style="fill: none; stroke: #ff0000; stroke-width: 1.75"/>
    </g>
    <g clip-path="url(#p595bd250b2)">
     <use xlink:href="#C0_0_ab0aea9417" x="80.775" y="83.92143" style="fill: none; stroke: #ff0000; stroke-width: 1.75"/>
    </g>
    <g clip-path="url(#p595bd250b2)">
     <use xlink:href="#C0_0_ab0aea9417" x="59.85" y="95.690715" style="fill: none; stroke: #ff0000; stroke-width: 1.75"/>
    </g>
    <g clip-path="url(#p595bd250b2)">
     <use xlink:href="#C0_0_ab0aea9417" x="73.8" y="95.690715" style="fill: none; stroke: #ff0000; stroke-width: 1.75"/>
    </g>
    <g clip-path="url(#p595bd250b2)">
     <use xlink:href="#C0_0_ab0aea9417" x="87.75" y="95.690715" style="fill: none; stroke: #ff0000; stroke-width: 1.75"/>
    </g>
    <g clip-path="url(#p595bd250b2)">
     <use xlink:href="#C0_0_ab0aea9417" x="52.875" y="107.46" style="fill: none; stroke: #ff0000; stroke-width: 1.75"/>
    </g>
    <g clip-path="url(#p595bd250b2)">
     <use xlink:href="#C0_0_ab0aea9417" x="66.825" y="107.46" style="fill: none; stroke: #ff0000; stroke-width: 1.75"/>
    </g>
   </g>
   <g id="PathCollection_3">
    <path d="M 103.204311 107.822249 
C 103.419998 107.822249 103.626879 107.736555 103.779393 107.584042 
C 103.931906 107.431528 104.0176 107.224647 104.0176 107.00896 
C 104.0176 106.793274 103.931906 106.586392 103.779393 106.433879 
C 103.626879 106.281365 103.419998 106.195672 103.204311 106.195672 
C 102.988625 106.195672 102.781743 106.281365 102.62923 106.433879 
C 102.476716 106.586392 102.391023 106.793274 102.391023 107.00896 
C 102.391023 107.224647 102.476716 107.431528 102.62923 107.584042 
C 102.781743 107.736555 102.988625 107.822249 103.204311 107.822249 
z
" clip-path="url(#p595bd250b2)" style="stroke: #000000"/>
    <path d="M 93.563396 76.764763 
C 93.721086 76.764763 93.87234 76.702112 93.983844 76.590608 
C 94.095348 76.479103 94.157999 76.32785 94.157999 76.170159 
C 94.157999 76.012469 94.095348 75.861215 93.983844 75.749711 
C 93.87234 75.638207 93.721086 75.575556 93.563396 75.575556 
C 93.405705 75.575556 93.254451 75.638207 93.142947 75.749711 
C 93.031443 75.861215 92.968792 76.012469 92.968792 76.170159 
C 92.968792 76.32785 93.031443 76.479103 93.142947 76.590608 
C 93.254451 76.702112 93.405705 76.764763 93.563396 76.764763 
z
" clip-path="url(#p595bd250b2)" style="stroke: #000000"/>
    <path d="M 105.230482 127.910985 
C 105.363083 127.910985 105.490271 127.858302 105.584035 127.764538 
C 105.677798 127.670775 105.730482 127.543586 105.730482 127.410985 
C 105.730482 127.278383 105.677798 127.151195 105.584035 127.057431 
C 105.490271 126.963668 105.363083 126.910985 105.230482 126.910985 
C 105.09788 126.910985 104.970692 126.963668 104.876928 127.057431 
C 104.783165 127.151195 104.730482 127.278383 104.730482 127.410985 
C 104.730482 127.543586 104.783165 127.670775 104.876928 127.764538 
C 104.970692 127.858302 105.09788 127.910985 105.230482 127.910985 
z
" clip-path="url(#p595bd250b2)" style="stroke: #000000"/>
    <path d="M 99.369922 114.736328 
C 99.672188 114.736328 99.962115 114.616236 100.175849 114.402502 
C 100.389584 114.188768 100.509676 113.898841 100.509676 113.596575 
C 100.509676 113.294308 100.389584 113.004382 100.175849 112.790647 
C 99.962115 112.576913 99.672188 112.456821 99.369922 112.456821 
C 99.067656 112.456821 98.777729 112.576913 98.563995 112.790647 
C 98.35026 113.004382 98.230168 113.294308 98.230168 113.596575 
C 98.230168 113.898841 98.35026 114.188768 98.563995 114.402502 
C 98.777729 114.616236 99.067656 114.736328 99.369922 114.736328 
z
" clip-path="url(#p595bd250b2)" style="stroke: #000000"/>
    <path d="M 97.602931 111.678937 
C 98.055759 111.678937 98.490101 111.499027 98.810299 111.178829 
C 99.130497 110.858631 99.310407 110.424289 99.310407 109.971461 
C 99.310407 109.518633 99.130497 109.08429 98.810299 108.764092 
C 98.490101 108.443895 98.055759 108.263984 97.602931 108.263984 
C 97.150103 108.263984 96.71576 108.443895 96.395563 108.764092 
C 96.075365 109.08429 95.895454 109.518633 95.895454 109.971461 
C 95.895454 110.424289 96.075365 110.858631 96.395563 111.178829 
C 96.71576 111.499027 97.150103 111.678937 97.602931 111.678937 
z
" clip-path="url(#p595bd250b2)" style="stroke: #000000"/>
    <path d="M 93.388876 104.677731 
C 93.701765 104.677731 94.00188 104.553419 94.223125 104.332174 
C 94.44437 104.110929 94.568682 103.810814 94.568682 103.497926 
C 94.568682 103.185038 94.44437 102.884922 94.223125 102.663677 
C 94.00188 102.442432 93.701765 102.31812 93.388876 102.31812 
C 93.075988 102.31812 92.775873 102.442432 92.554628 102.663677 
C 92.333383 102.884922 92.209071 103.185038 92.209071 103.497926 
C 92.209071 103.810814 92.333383 104.110929 92.554628 104.332174 
C 92.775873 104.553419 93.075988 104.677731 93.388876 104.677731 
z
" clip-path="url(#p595bd250b2)" style="stroke: #000000"/>
    <path d="M 94.031847 96.798994 
C 94.219374 96.798994 94.399246 96.724489 94.531847 96.591887 
C 94.664449 96.459286 94.738954 96.279414 94.738954 96.091887 
C 94.738954 95.90436 94.664449 95.724489 94.531847 95.591887 
C 94.399246 95.459286 94.219374 95.384781 94.031847 95.384781 
C 93.84432 95.384781 93.664449 95.459286 93.531847 95.591887 
C 93.399246 95.724489 93.32474 95.90436 93.32474 96.091887 
C 93.32474 96.279414 93.399246 96.459286 93.531847 96.591887 
C 93.664449 96.724489 93.84432 96.798994 94.031847 96.798994 
z
" clip-path="url(#p595bd250b2)" style="stroke: #000000"/>
    <path d="M 92.913204 91.261299 
C 93.200384 91.261299 93.47584 91.147201 93.678907 90.944134 
C 93.881974 90.741067 93.996072 90.465611 93.996072 90.178431 
C 93.996072 89.891251 93.881974 89.615794 93.678907 89.412727 
C 93.47584 89.20966 93.200384 89.095562 92.913204 89.095562 
C 92.626024 89.095562 92.350567 89.20966 92.1475 89.412727 
C 91.944433 89.615794 91.830335 89.891251 91.830335 90.178431 
C 91.830335 90.465611 91.944433 90.741067 92.1475 90.944134 
C 92.350567 91.147201 92.626024 91.261299 92.913204 91.261299 
z
" clip-path="url(#p595bd250b2)" style="stroke: #000000"/>
    <path d="M 89.257601 83.278405 
C 89.493403 83.278405 89.71958 83.18472 89.886318 83.017982 
C 90.053055 82.851245 90.146741 82.625068 90.146741 82.389266 
C 90.146741 82.153463 90.053055 81.927286 89.886318 81.760549 
C 89.71958 81.593811 89.493403 81.500126 89.257601 81.500126 
C 89.021798 81.500126 88.795622 81.593811 88.628884 81.760549 
C 88.462146 81.927286 88.368461 82.153463 88.368461 82.389266 
C 88.368461 82.625068 88.462146 82.851245 88.628884 83.017982 
C 88.795622 83.18472 89.021798 83.278405 89.257601 83.278405 
z
" clip-path="url(#p595bd250b2)" style="stroke: #000000"/>
    <path d="M 83.510881 73.865491 
C 83.643483 73.865491 83.770671 73.812807 83.864435 73.719044 
C 83.958198 73.62528 84.010881 73.498092 84.010881 73.365491 
C 84.010881 73.232889 83.958198 73.105701 83.864435 73.011937 
C 83.770671 72.918174 83.643483 72.865491 83.510881 72.865491 
C 83.37828 72.865491 83.251092 72.918174 83.157328 73.011937 
C 83.063565 73.105701 83.010881 73.232889 83.010881 73.365491 
C 83.010881 73.498092 83.063565 73.62528 83.157328 73.719044 
C 83.251092 73.812807 83.37828 73.865491 83.510881 73.865491 
z
" clip-path="url(#p595bd250b2)" style="stroke: #000000"/>
    <path d="M 93.225483 124.051048 
C 93.383174 124.051048 93.534428 123.988397 93.645932 123.876893 
C 93.757436 123.765389 93.820087 123.614135 93.820087 123.456445 
C 93.820087 123.298754 93.757436 123.147501 93.645932 123.035996 
C 93.534428 122.924492 93.383174 122.861841 93.225483 122.861841 
C 93.067793 122.861841 92.916539 122.924492 92.805035 123.035996 
C 92.693531 123.147501 92.63088 123.298754 92.63088 123.456445 
C 92.63088 123.614135 92.693531 123.765389 92.805035 123.876893 
C 92.916539 123.988397 93.067793 124.051048 93.225483 124.051048 
z
" clip-path="url(#p595bd250b2)" style="stroke: #000000"/>
    <path d="M 93.657496 116.039041 
C 93.873182 116.039041 94.080064 115.953347 94.232577 115.800834 
C 94.385091 115.64832 94.470784 115.441439 94.470784 115.225752 
C 94.470784 115.010066 94.385091 114.803184 94.232577 114.650671 
C 94.080064 114.498157 93.873182 114.412464 93.657496 114.412464 
C 93.441809 114.412464 93.234927 114.498157 93.082414 114.650671 
C 92.929901 114.803184 92.844207 115.010066 92.844207 115.225752 
C 92.844207 115.441439 92.929901 115.64832 93.082414 115.800834 
C 93.234927 115.953347 93.441809 116.039041 93.657496 116.039041 
z
" clip-path="url(#p595bd250b2)" style="stroke: #000000"/>
    <path d="M 91.949993 111.386618 
C 92.398601 111.386618 92.828895 111.208384 93.146108 110.891171 
C 93.463321 110.573957 93.641555 110.143663 93.641555 109.695056 
C 93.641555 109.246449 93.463321 108.816155 93.146108 108.498941 
C 92.828895 108.181728 92.398601 108.003494 91.949993 108.003494 
C 91.501386 108.003494 91.071092 108.181728 90.753878 108.498941 
C 90.436665 108.816155 90.258431 109.246449 90.258431 109.695056 
C 90.258431 110.143663 90.436665 110.573957 90.753878 110.891171 
C 91.071092 111.208384 91.501386 111.386618 91.949993 111.386618 
z
" clip-path="url(#p595bd250b2)" style="stroke: #000000"/>
    <path d="M 88.230803 99.443314 
C 88.388494 99.443314 88.539747 99.380663 88.651252 99.269158 
C 88.762756 99.157654 88.825407 99.006401 88.825407 98.84871 
C 88.825407 98.69102 88.762756 98.539766 88.651252 98.428262 
C 88.539747 98.316758 88.388494 98.254107 88.230803 98.254107 
C 88.073113 98.254107 87.921859 98.316758 87.810355 98.428262 
C 87.698851 98.539766 87.6362 98.69102 87.6362 98.84871 
C 87.6362 99.006401 87.698851 99.157654 87.810355 99.269158 
C 87.921859 99.380663 88.073113 99.443314 88.230803 99.443314 
z
" clip-path="url(#p595bd250b2)" style="stroke: #000000"/>
    <path d="M 80.088996 88.0489 
C 80.590132 88.0489 81.070811 87.849796 81.425168 87.495439 
C 81.779525 87.141082 81.978629 86.660403 81.978629 86.159266 
C 81.978629 85.65813 81.779525 85.177451 81.425168 84.823094 
C 81.070811 84.468737 80.590132 84.269633 80.088996 84.269633 
C 79.587859 84.269633 79.10718 84.468737 78.752823 84.823094 
C 78.398466 85.177451 78.199362 85.65813 78.199362 86.159266 
C 78.199362 86.660403 78.398466 87.141082 78.752823 87.495439 
C 79.10718 87.849796 79.587859 88.0489 80.088996 88.0489 
z
" clip-path="url(#p595bd250b2)" style="stroke: #000000"/>
    <path d="M 82.171731 79.610046 
C 82.304332 79.610046 82.431521 79.557363 82.525284 79.4636 
C 82.619048 79.369836 82.671731 79.242648 82.671731 79.110046 
C 82.671731 78.977445 82.619048 78.850256 82.525284 78.756493 
C 82.431521 78.66273 82.304332 78.610046 82.171731 78.610046 
C 82.039129 78.610046 81.911941 78.66273 81.818177 78.756493 
C 81.724414 78.850256 81.671731 78.977445 81.671731 79.110046 
C 81.671731 79.242648 81.724414 79.369836 81.818177 79.4636 
C 81.911941 79.557363 82.039129 79.610046 82.171731 79.610046 
z
" clip-path="url(#p595bd250b2)" style="stroke: #000000"/>
    <path d="M 79.180019 73.835424 
C 79.312621 73.835424 79.439809 73.782741 79.533573 73.688978 
C 79.627336 73.595214 79.680019 73.468026 79.680019 73.335424 
C 79.680019 73.202823 79.627336 73.075634 79.533573 72.981871 
C 79.439809 72.888108 79.312621 72.835424 79.180019 72.835424 
C 79.047418 72.835424 78.920229 72.888108 78.826466 72.981871 
C 78.732703 73.075634 78.680019 73.202823 78.680019 73.335424 
C 78.680019 73.468026 78.732703 73.595214 78.826466 73.688978 
C 78.920229 73.782741 79.047418 73.835424 79.180019 73.835424 
z
" clip-path="url(#p595bd250b2)" style="stroke: #000000"/>
    <path d="M 74.932176 67.173777 
C 75.064778 67.173777 75.191966 67.121094 75.285729 67.02733 
C 75.379493 66.933567 75.432176 66.806378 75.432176 66.673777 
C 75.432176 66.541175 75.379493 66.413987 75.285729 66.320223 
C 75.191966 66.22646 75.064778 66.173777 74.932176 66.173777 
C 74.799574 66.173777 74.672386 66.22646 74.578623 66.320223 
C 74.484859 66.413987 74.432176 66.541175 74.432176 66.673777 
C 74.432176 66.806378 74.484859 66.933567 74.578623 67.02733 
C 74.672386 67.121094 74.799574 67.173777 74.932176 67.173777 
z
" clip-path="url(#p595bd250b2)" style="stroke: #000000"/>
    <path d="M 90.016307 127.577603 
C 90.372388 127.577603 90.713934 127.43613 90.965721 127.184343 
C 91.217509 126.932555 91.358982 126.59101 91.358982 126.234928 
C 91.358982 125.878847 91.217509 125.537302 90.965721 125.285514 
C 90.713934 125.033726 90.372388 124.892254 90.016307 124.892254 
C 89.660225 124.892254 89.31868 125.033726 89.066892 125.285514 
C 88.815105 125.537302 88.673632 125.878847 88.673632 126.234928 
C 88.673632 126.59101 88.815105 126.932555 89.066892 127.184343 
C 89.31868 127.43613 89.660225 127.577603 90.016307 127.577603 
z
" clip-path="url(#p595bd250b2)" style="stroke: #000000"/>
    <path d="M 84.894981 120.314963 
C 85.299956 120.314963 85.688399 120.154064 85.97476 119.867704 
C 86.261121 119.581343 86.422019 119.1929 86.422019 118.787925 
C 86.422019 118.38295 86.261121 117.994507 85.97476 117.708146 
C 85.688399 117.421785 85.299956 117.260887 84.894981 117.260887 
C 84.490006 117.260887 84.101563 117.421785 83.815202 117.708146 
C 83.528842 117.994507 83.367943 118.38295 83.367943 118.787925 
C 83.367943 119.1929 83.528842 119.581343 83.815202 119.867704 
C 84.101563 120.154064 84.490006 120.314963 84.894981 120.314963 
z
" clip-path="url(#p595bd250b2)" style="stroke: #000000"/>
    <path d="M 85.600715 112.566642 
C 85.816402 112.566642 86.023284 112.480949 86.175797 112.328435 
C 86.32831 112.175922 86.414004 111.96904 86.414004 111.753354 
C 86.414004 111.537667 86.32831 111.330785 86.175797 111.178272 
C 86.023284 111.025759 85.816402 110.940065 85.600715 110.940065 
C 85.385029 110.940065 85.178147 111.025759 85.025634 111.178272 
C 84.87312 111.330785 84.787427 111.537667 84.787427 111.753354 
C 84.787427 111.96904 84.87312 112.175922 85.025634 112.328435 
C 85.178147 112.480949 85.385029 112.566642 85.600715 112.566642 
z
" clip-path="url(#p595bd250b2)" style="stroke: #000000"/>
    <path d="M 83.390685 108.934546 
C 83.888095 108.934546 84.3652 108.736923 84.716922 108.3852 
C 85.068645 108.033478 85.266268 107.556373 85.266268 107.058963 
C 85.266268 106.561553 85.068645 106.084448 84.716922 105.732725 
C 84.3652 105.381003 83.888095 105.18338 83.390685 105.18338 
C 82.893274 105.18338 82.41617 105.381003 82.064447 105.732725 
C 81.712725 106.084448 81.515102 106.561553 81.515102 107.058963 
C 81.515102 107.556373 81.712725 108.033478 82.064447 108.3852 
C 82.41617 108.736923 82.893274 108.934546 83.390685 108.934546 
z
" clip-path="url(#p595bd250b2)" style="stroke: #000000"/>
    <path d="M 77.101916 90.223518 
C 77.528391 90.223518 77.937457 90.054078 78.239022 89.752514 
C 78.540586 89.45095 78.710026 89.041884 78.710026 88.615408 
C 78.710026 88.188932 78.540586 87.779866 78.239022 87.478302 
C 77.937457 87.176738 77.528391 87.007297 77.101916 87.007297 
C 76.67544 87.007297 76.266374 87.176738 75.96481 87.478302 
C 75.663245 87.779866 75.493805 88.188932 75.493805 88.615408 
C 75.493805 89.041884 75.663245 89.45095 75.96481 89.752514 
C 76.266374 90.054078 76.67544 90.223518 77.101916 90.223518 
z
" clip-path="url(#p595bd250b2)" style="stroke: #000000"/>
    <path d="M 73.635771 83.256392 
C 74.004822 83.256392 74.358807 83.109767 74.619766 82.848808 
C 74.880724 82.58785 75.02735 82.233865 75.02735 81.864814 
C 75.02735 81.495763 74.880724 81.141777 74.619766 80.880819 
C 74.358807 80.61986 74.004822 80.473235 73.635771 80.473235 
C 73.26672 80.473235 72.912735 80.61986 72.651776 80.880819 
C 72.390818 81.141777 72.244192 81.495763 72.244192 81.864814 
C 72.244192 82.233865 72.390818 82.58785 72.651776 82.848808 
C 72.912735 83.109767 73.26672 83.256392 73.635771 83.256392 
z
" clip-path="url(#p595bd250b2)" style="stroke: #000000"/>
    <path d="M 72.79435 78.312566 
C 73.059553 78.312566 73.31393 78.2072 73.501457 78.019673 
C 73.688984 77.832146 73.79435 77.577769 73.79435 77.312566 
C 73.79435 77.047363 73.688984 76.792987 73.501457 76.60546 
C 73.31393 76.417933 73.059553 76.312566 72.79435 76.312566 
C 72.529147 76.312566 72.27477 76.417933 72.087243 76.60546 
C 71.899717 76.792987 71.79435 77.047363 71.79435 77.312566 
C 71.79435 77.577769 71.899717 77.832146 72.087243 78.019673 
C 72.27477 78.2072 72.529147 78.312566 72.79435 78.312566 
z
" clip-path="url(#p595bd250b2)" style="stroke: #000000"/>
    <path d="M 88.246924 140.519174 
C 88.469933 140.519174 88.683837 140.430572 88.841528 140.272881 
C 88.999218 140.11519 89.087821 139.901286 89.087821 139.678278 
C 89.087821 139.455269 88.999218 139.241365 88.841528 139.083674 
C 88.683837 138.925983 88.469933 138.837381 88.246924 138.837381 
C 88.023916 138.837381 87.810011 138.925983 87.652321 139.083674 
C 87.49463 139.241365 87.406028 139.455269 87.406028 139.678278 
C 87.406028 139.901286 87.49463 140.11519 87.652321 140.272881 
C 87.810011 140.430572 88.023916 140.519174 88.246924 140.519174 
z
" clip-path="url(#p595bd250b2)" style="stroke: #000000"/>
    <path d="M 84.601198 135.708478 
C 85.040076 135.708478 85.461038 135.53411 85.771372 135.223776 
C 86.081706 134.913443 86.256074 134.492481 86.256074 134.053603 
C 86.256074 133.614725 86.081706 133.193763 85.771372 132.883429 
C 85.461038 132.573095 85.040076 132.398727 84.601198 132.398727 
C 84.16232 132.398727 83.741358 132.573095 83.431025 132.883429 
C 83.120691 133.193763 82.946323 133.614725 82.946323 134.053603 
C 82.946323 134.492481 83.120691 134.913443 83.431025 135.223776 
C 83.741358 135.53411 84.16232 135.708478 84.601198 135.708478 
z
" clip-path="url(#p595bd250b2)" style="stroke: #000000"/>
    <path d="M 79.120942 127.126844 
C 79.278633 127.126844 79.429886 127.064193 79.54139 126.952689 
C 79.652894 126.841184 79.715546 126.689931 79.715546 126.53224 
C 79.715546 126.37455 79.652894 126.223296 79.54139 126.111792 
C 79.429886 126.000288 79.278633 125.937637 79.120942 125.937637 
C 78.963251 125.937637 78.811998 126.000288 78.700494 126.111792 
C 78.58899 126.223296 78.526339 126.37455 78.526339 126.53224 
C 78.526339 126.689931 78.58899 126.841184 78.700494 126.952689 
C 78.811998 127.064193 78.963251 127.126844 79.120942 127.126844 
z
" clip-path="url(#p595bd250b2)" style="stroke: #000000"/>
    <path d="M 79.190911 120.956565 
C 79.323513 120.956565 79.450701 120.903881 79.544464 120.810118 
C 79.638228 120.716354 79.690911 120.589166 79.690911 120.456565 
C 79.690911 120.323963 79.638228 120.196775 79.544464 120.103011 
C 79.450701 120.009248 79.323513 119.956565 79.190911 119.956565 
C 79.058309 119.956565 78.931121 120.009248 78.837358 120.103011 
C 78.743594 120.196775 78.690911 120.323963 78.690911 120.456565 
C 78.690911 120.589166 78.743594 120.716354 78.837358 120.810118 
C 78.931121 120.903881 79.058309 120.956565 79.190911 120.956565 
z
" clip-path="url(#p595bd250b2)" style="stroke: #000000"/>
    <path d="M 76.953499 117.92419 
C 77.384873 117.92419 77.798636 117.752804 78.103663 117.447777 
C 78.40869 117.14275 78.580076 116.728987 78.580076 116.297614 
C 78.580076 115.866241 78.40869 115.452477 78.103663 115.147451 
C 77.798636 114.842424 77.384873 114.671037 76.953499 114.671037 
C 76.522126 114.671037 76.108363 114.842424 75.803336 115.147451 
C 75.498309 115.452477 75.326923 115.866241 75.326923 116.297614 
C 75.326923 116.728987 75.498309 117.14275 75.803336 117.447777 
C 76.108363 117.752804 76.522126 117.92419 76.953499 117.92419 
z
" clip-path="url(#p595bd250b2)" style="stroke: #000000"/>
    <path d="M 71.906731 97.561643 
C 72.171934 97.561643 72.426311 97.456277 72.613838 97.26875 
C 72.801364 97.081223 72.906731 96.826846 72.906731 96.561643 
C 72.906731 96.29644 72.801364 96.042063 72.613838 95.854536 
C 72.426311 95.667009 72.171934 95.561643 71.906731 95.561643 
C 71.641528 95.561643 71.387151 95.667009 71.199624 95.854536 
C 71.012097 96.042063 70.906731 96.29644 70.906731 96.561643 
C 70.906731 96.826846 71.012097 97.081223 71.199624 97.26875 
C 71.387151 97.456277 71.641528 97.561643 71.906731 97.561643 
z
" clip-path="url(#p595bd250b2)" style="stroke: #000000"/>
    <path d="M 69.630408 90.176105 
C 70.055884 90.176105 70.463991 90.007062 70.764848 89.706205 
C 71.065705 89.405348 71.234748 88.997241 71.234748 88.571765 
C 71.234748 88.146289 71.065705 87.738182 70.764848 87.437325 
C 70.463991 87.136468 70.055884 86.967425 69.630408 86.967425 
C 69.204932 86.967425 68.796825 87.136468 68.495968 87.437325 
C 68.195111 87.738182 68.026068 88.146289 68.026068 88.571765 
C 68.026068 88.997241 68.195111 89.405348 68.495968 89.706205 
C 68.796825 90.007062 69.204932 90.176105 69.630408 90.176105 
z
" clip-path="url(#p595bd250b2)" style="stroke: #000000"/>
    <path d="M 68.66272 84.459457 
C 69.196715 84.459457 69.708912 84.247298 70.086503 83.869706 
C 70.464095 83.492114 70.676254 82.979918 70.676254 82.445923 
C 70.676254 81.911927 70.464095 81.399731 70.086503 81.022139 
C 69.708912 80.644547 69.196715 80.432389 68.66272 80.432389 
C 68.128724 80.432389 67.616528 80.644547 67.238936 81.022139 
C 66.861345 81.399731 66.649186 81.911927 66.649186 82.445923 
C 66.649186 82.979918 66.861345 83.492114 67.238936 83.869706 
C 67.616528 84.247298 68.128724 84.459457 68.66272 84.459457 
z
" clip-path="url(#p595bd250b2)" style="stroke: #000000"/>
    <path d="M 64.634285 76.914716 
C 64.918144 76.914716 65.190416 76.801937 65.391135 76.601218 
C 65.591854 76.400499 65.704632 76.128228 65.704632 75.844368 
C 65.704632 75.560509 65.591854 75.288237 65.391135 75.087518 
C 65.190416 74.886799 64.918144 74.774021 64.634285 74.774021 
C 64.350425 74.774021 64.078153 74.886799 63.877434 75.087518 
C 63.676716 75.288237 63.563937 75.560509 63.563937 75.844368 
C 63.563937 76.128228 63.676716 76.400499 63.877434 76.601218 
C 64.078153 76.801937 64.350425 76.914716 64.634285 76.914716 
z
" clip-path="url(#p595bd250b2)" style="stroke: #000000"/>
    <path d="M 61.448356 71.800214 
C 61.622869 71.800214 61.790258 71.730879 61.913658 71.60748 
C 62.037058 71.48408 62.106393 71.316691 62.106393 71.142177 
C 62.106393 70.967664 62.037058 70.800274 61.913658 70.676875 
C 61.790258 70.553475 61.622869 70.48414 61.448356 70.48414 
C 61.273842 70.48414 61.106453 70.553475 60.983053 70.676875 
C 60.859653 70.800274 60.790319 70.967664 60.790319 71.142177 
C 60.790319 71.316691 60.859653 71.48408 60.983053 71.60748 
C 61.106453 71.730879 61.273842 71.800214 61.448356 71.800214 
z
" clip-path="url(#p595bd250b2)" style="stroke: #000000"/>
    <path d="M 79.337735 145.960512 
C 79.525262 145.960512 79.705133 145.886007 79.837735 145.753406 
C 79.970336 145.620804 80.044842 145.440933 80.044842 145.253406 
C 80.044842 145.065879 79.970336 144.886007 79.837735 144.753406 
C 79.705133 144.620804 79.525262 144.546299 79.337735 144.546299 
C 79.150208 144.546299 78.970336 144.620804 78.837735 144.753406 
C 78.705133 144.886007 78.630628 145.065879 78.630628 145.253406 
C 78.630628 145.440933 78.705133 145.620804 78.837735 145.753406 
C 78.970336 145.886007 79.150208 145.960512 79.337735 145.960512 
z
" clip-path="url(#p595bd250b2)" style="stroke: #000000"/>
    <path d="M 80.50191 137.073017 
C 80.869414 137.073017 81.221915 136.927006 81.481779 136.667142 
C 81.741644 136.407278 81.887654 136.054777 81.887654 135.687273 
C 81.887654 135.319769 81.741644 134.967268 81.481779 134.707404 
C 81.221915 134.44754 80.869414 134.301529 80.50191 134.301529 
C 80.134407 134.301529 79.781906 134.44754 79.522041 134.707404 
C 79.262177 134.967268 79.116166 135.319769 79.116166 135.687273 
C 79.116166 136.054777 79.262177 136.407278 79.522041 136.667142 
C 79.781906 136.927006 80.134407 137.073017 80.50191 137.073017 
z
" clip-path="url(#p595bd250b2)" style="stroke: #000000"/>
    <path d="M 75.250296 132.034633 
C 75.424809 132.034633 75.592198 131.965298 75.715598 131.841898 
C 75.838998 131.718498 75.908333 131.551109 75.908333 131.376596 
C 75.908333 131.202082 75.838998 131.034693 75.715598 130.911293 
C 75.592198 130.787893 75.424809 130.718558 75.250296 130.718558 
C 75.075782 130.718558 74.908393 130.787893 74.784993 130.911293 
C 74.661594 131.034693 74.592259 131.202082 74.592259 131.376596 
C 74.592259 131.551109 74.661594 131.718498 74.784993 131.841898 
C 74.908393 131.965298 75.075782 132.034633 75.250296 132.034633 
z
" clip-path="url(#p595bd250b2)" style="stroke: #000000"/>
    <path d="M 74.975442 123.090245 
C 75.149955 123.090245 75.317344 123.02091 75.440744 122.89751 
C 75.564144 122.77411 75.633479 122.606721 75.633479 122.432208 
C 75.633479 122.257694 75.564144 122.090305 75.440744 121.966905 
C 75.317344 121.843505 75.149955 121.774171 74.975442 121.774171 
C 74.800928 121.774171 74.633539 121.843505 74.510139 121.966905 
C 74.38674 122.090305 74.317405 122.257694 74.317405 122.432208 
C 74.317405 122.606721 74.38674 122.77411 74.510139 122.89751 
C 74.633539 123.02091 74.800928 123.090245 74.975442 123.090245 
z
" clip-path="url(#p595bd250b2)" style="stroke: #000000"/>
    <path d="M 71.616043 117.944563 
C 72.108351 117.944563 72.580562 117.748967 72.928677 117.400852 
C 73.276791 117.052738 73.472387 116.580527 73.472387 116.088219 
C 73.472387 115.595911 73.276791 115.1237 72.928677 114.775586 
C 72.580562 114.427472 72.108351 114.231875 71.616043 114.231875 
C 71.123735 114.231875 70.651524 114.427472 70.30341 114.775586 
C 69.955296 115.1237 69.7597 115.595911 69.7597 116.088219 
C 69.7597 116.580527 69.955296 117.052738 70.30341 117.400852 
C 70.651524 117.748967 71.123735 117.944563 71.616043 117.944563 
z
" clip-path="url(#p595bd250b2)" style="stroke: #000000"/>
    <path d="M 68.452467 107.561025 
C 68.973839 107.561025 69.473928 107.353882 69.842594 106.985216 
C 70.21126 106.61655 70.418403 106.116461 70.418403 105.595089 
C 70.418403 105.073716 70.21126 104.573628 69.842594 104.204962 
C 69.473928 103.836296 68.973839 103.629152 68.452467 103.629152 
C 67.931094 103.629152 67.431006 103.836296 67.06234 104.204962 
C 66.693674 104.573628 66.48653 105.073716 66.48653 105.595089 
C 66.48653 106.116461 66.693674 106.61655 67.06234 106.985216 
C 67.431006 107.353882 67.931094 107.561025 68.452467 107.561025 
z
" clip-path="url(#p595bd250b2)" style="stroke: #000000"/>
    <path d="M 66.643731 99.799798 
C 67.018784 99.799798 67.378528 99.650788 67.643731 99.385585 
C 67.908934 99.120382 68.057944 98.760639 68.057944 98.385585 
C 68.057944 98.010531 67.908934 97.650788 67.643731 97.385585 
C 67.378528 97.120382 67.018784 96.971371 66.643731 96.971371 
C 66.268677 96.971371 65.908934 97.120382 65.643731 97.385585 
C 65.378528 97.650788 65.229517 98.010531 65.229517 98.385585 
C 65.229517 98.760639 65.378528 99.120382 65.643731 99.385585 
C 65.908934 99.650788 66.268677 99.799798 66.643731 99.799798 
z
" clip-path="url(#p595bd250b2)" style="stroke: #000000"/>
    <path d="M 62.169135 94.056101 
C 62.603368 94.056101 63.019875 93.883579 63.326924 93.576529 
C 63.633973 93.26948 63.806496 92.852973 63.806496 92.41874 
C 63.806496 91.984507 63.633973 91.568 63.326924 91.260951 
C 63.019875 90.953902 62.603368 90.781379 62.169135 90.781379 
C 61.734901 90.781379 61.318395 90.953902 61.011346 91.260951 
C 60.704296 91.568 60.531774 91.984507 60.531774 92.41874 
C 60.531774 92.852973 60.704296 93.26948 61.011346 93.576529 
C 61.318395 93.883579 61.734901 94.056101 62.169135 94.056101 
z
" clip-path="url(#p595bd250b2)" style="stroke: #000000"/>
    <path d="M 60.870911 87.307998 
C 61.267483 87.307998 61.647865 87.150438 61.928283 86.87002 
C 62.208701 86.589602 62.36626 86.20922 62.36626 85.812649 
C 62.36626 85.416078 62.208701 85.035696 61.928283 84.755278 
C 61.647865 84.47486 61.267483 84.3173 60.870911 84.3173 
C 60.47434 84.3173 60.093958 84.47486 59.81354 84.755278 
C 59.533122 85.035696 59.375563 85.416078 59.375563 85.812649 
C 59.375563 86.20922 59.533122 86.589602 59.81354 86.87002 
C 60.093958 87.150438 60.47434 87.307998 60.870911 87.307998 
z
" clip-path="url(#p595bd250b2)" style="stroke: #000000"/>
    <path d="M 58.633446 81.167644 
C 58.946334 81.167644 59.246449 81.043333 59.467695 80.822087 
C 59.68894 80.600842 59.813252 80.300727 59.813252 79.987839 
C 59.813252 79.674951 59.68894 79.374836 59.467695 79.15359 
C 59.246449 78.932345 58.946334 78.808033 58.633446 78.808033 
C 58.320558 78.808033 58.020443 78.932345 57.799198 79.15359 
C 57.577953 79.374836 57.453641 79.674951 57.453641 79.987839 
C 57.453641 80.300727 57.577953 80.600842 57.799198 80.822087 
C 58.020443 81.043333 58.320558 81.167644 58.633446 81.167644 
z
" clip-path="url(#p595bd250b2)" style="stroke: #000000"/>
    <path d="M 70.053504 138.038704 
C 70.38273 138.038704 70.698516 137.907901 70.931314 137.675103 
C 71.164113 137.442305 71.294916 137.126519 71.294916 136.797292 
C 71.294916 136.468066 71.164113 136.15228 70.931314 135.919481 
C 70.698516 135.686683 70.38273 135.55588 70.053504 135.55588 
C 69.724277 135.55588 69.408491 135.686683 69.175693 135.919481 
C 68.942895 136.15228 68.812092 136.468066 68.812092 136.797292 
C 68.812092 137.126519 68.942895 137.442305 69.175693 137.675103 
C 69.408491 137.907901 69.724277 138.038704 70.053504 138.038704 
z
" clip-path="url(#p595bd250b2)" style="stroke: #000000"/>
    <path d="M 69.043225 132.720493 
C 69.345491 132.720493 69.635418 132.600402 69.849152 132.386667 
C 70.062886 132.172933 70.182978 131.883006 70.182978 131.58074 
C 70.182978 131.278474 70.062886 130.988547 69.849152 130.774812 
C 69.635418 130.561078 69.345491 130.440986 69.043225 130.440986 
C 68.740958 130.440986 68.451032 130.561078 68.237297 130.774812 
C 68.023563 130.988547 67.903471 131.278474 67.903471 131.58074 
C 67.903471 131.883006 68.023563 132.172933 68.237297 132.386667 
C 68.451032 132.600402 68.740958 132.720493 69.043225 132.720493 
z
" clip-path="url(#p595bd250b2)" style="stroke: #000000"/>
    <path d="M 67.344501 126.125946 
C 67.750635 126.125946 68.140189 125.964587 68.427369 125.677407 
C 68.714549 125.390227 68.875908 125.000672 68.875908 124.594539 
C 68.875908 124.188405 68.714549 123.79885 68.427369 123.51167 
C 68.140189 123.22449 67.750635 123.063131 67.344501 123.063131 
C 66.938367 123.063131 66.548813 123.22449 66.261632 123.51167 
C 65.974452 123.79885 65.813094 124.188405 65.813094 124.594539 
C 65.813094 125.000672 65.974452 125.390227 66.261632 125.677407 
C 66.548813 125.964587 66.938367 126.125946 67.344501 126.125946 
z
" clip-path="url(#p595bd250b2)" style="stroke: #000000"/>
    <path d="M 65.884838 117.131143 
C 66.042529 117.131143 66.193782 117.068492 66.305287 116.956987 
C 66.416791 116.845483 66.479442 116.69423 66.479442 116.536539 
C 66.479442 116.378849 66.416791 116.227595 66.305287 116.116091 
C 66.193782 116.004587 66.042529 115.941936 65.884838 115.941936 
C 65.727148 115.941936 65.575894 116.004587 65.46439 116.116091 
C 65.352886 116.227595 65.290235 116.378849 65.290235 116.536539 
C 65.290235 116.69423 65.352886 116.845483 65.46439 116.956987 
C 65.575894 117.068492 65.727148 117.131143 65.884838 117.131143 
z
" clip-path="url(#p595bd250b2)" style="stroke: #000000"/>
    <path d="M 61.729127 108.744887 
C 62.178588 108.744887 62.609701 108.566314 62.927518 108.248497 
C 63.245335 107.93068 63.423907 107.499568 63.423907 107.050107 
C 63.423907 106.600645 63.245335 106.169533 62.927518 105.851716 
C 62.609701 105.533899 62.178588 105.355326 61.729127 105.355326 
C 61.279666 105.355326 60.848553 105.533899 60.530736 105.851716 
C 60.212919 106.169533 60.034346 106.600645 60.034346 107.050107 
C 60.034346 107.499568 60.212919 107.93068 60.530736 108.248497 
C 60.848553 108.566314 61.279666 108.744887 61.729127 108.744887 
z
" clip-path="url(#p595bd250b2)" style="stroke: #000000"/>
    <path d="M 56.626926 103.863324 
C 57.040906 103.863324 57.437986 103.698848 57.730714 103.40612 
C 58.023443 103.113391 58.187919 102.716311 58.187919 102.302331 
C 58.187919 101.888351 58.023443 101.49127 57.730714 101.198542 
C 57.437986 100.905814 57.040906 100.741338 56.626926 100.741338 
C 56.212946 100.741338 55.815865 100.905814 55.523137 101.198542 
C 55.230409 101.49127 55.065933 101.888351 55.065933 102.302331 
C 55.065933 102.716311 55.230409 103.113391 55.523137 103.40612 
C 55.815865 103.698848 56.212946 103.863324 56.626926 103.863324 
z
" clip-path="url(#p595bd250b2)" style="stroke: #000000"/>
    <path d="M 57.000413 97.644306 
C 57.449874 97.644306 57.880987 97.465733 58.198804 97.147916 
C 58.516621 96.830099 58.695194 96.398987 58.695194 95.949525 
C 58.695194 95.500064 58.516621 95.068952 58.198804 94.751135 
C 57.880987 94.433318 57.449874 94.254745 57.000413 94.254745 
C 56.550952 94.254745 56.119839 94.433318 55.802022 94.751135 
C 55.484206 95.068952 55.305633 95.500064 55.305633 95.949525 
C 55.305633 96.398987 55.484206 96.830099 55.802022 97.147916 
C 56.119839 97.465733 56.550952 97.644306 57.000413 97.644306 
z
" clip-path="url(#p595bd250b2)" style="stroke: #000000"/>
    <path d="M 51.399268 75.963291 
C 51.556958 75.963291 51.708212 75.90064 51.819716 75.789136 
C 51.93122 75.677632 51.993871 75.526379 51.993871 75.368688 
C 51.993871 75.210997 51.93122 75.059744 51.819716 74.94824 
C 51.708212 74.836735 51.556958 74.774084 51.399268 74.774084 
C 51.241577 74.774084 51.090324 74.836735 50.97882 74.94824 
C 50.867315 75.059744 50.804664 75.210997 50.804664 75.368688 
C 50.804664 75.526379 50.867315 75.677632 50.97882 75.789136 
C 51.090324 75.90064 51.241577 75.963291 51.399268 75.963291 
z
" clip-path="url(#p595bd250b2)" style="stroke: #000000"/>
    <path d="M 41.785584 45.144972 
C 41.918186 45.144972 42.045374 45.092289 42.139138 44.998525 
C 42.232901 44.904762 42.285584 44.777574 42.285584 44.644972 
C 42.285584 44.512371 42.232901 44.385182 42.139138 44.291419 
C 42.045374 44.197655 41.918186 44.144972 41.785584 44.144972 
C 41.652983 44.144972 41.525794 44.197655 41.432031 44.291419 
C 41.338267 44.385182 41.285584 44.512371 41.285584 44.644972 
C 41.285584 44.777574 41.338267 44.904762 41.432031 44.998525 
C 41.525794 45.092289 41.652983 45.144972 41.785584 45.144972 
z
" clip-path="url(#p595bd250b2)" style="stroke: #000000"/>
    <path d="M 73.673289 164.733194 
C 73.80589 164.733194 73.933079 164.680511 74.026842 164.586748 
C 74.120606 164.492984 74.173289 164.365796 74.173289 164.233194 
C 74.173289 164.100593 74.120606 163.973404 74.026842 163.879641 
C 73.933079 163.785877 73.80589 163.733194 73.673289 163.733194 
C 73.540687 163.733194 73.413499 163.785877 73.319736 163.879641 
C 73.225972 163.973404 73.173289 164.100593 73.173289 164.233194 
C 73.173289 164.365796 73.225972 164.492984 73.319736 164.586748 
C 73.413499 164.680511 73.540687 164.733194 73.673289 164.733194 
z
" clip-path="url(#p595bd250b2)" style="stroke: #000000"/>
    <path d="M 68.56346 144.080353 
C 68.696061 144.080353 68.82325 144.02767 68.917013 143.933906 
C 69.010777 143.840143 69.06346 143.712955 69.06346 143.580353 
C 69.06346 143.447751 69.010777 143.320563 68.917013 143.2268 
C 68.82325 143.133036 68.696061 143.080353 68.56346 143.080353 
C 68.430858 143.080353 68.30367 143.133036 68.209906 143.2268 
C 68.116143 143.320563 68.06346 143.447751 68.06346 143.580353 
C 68.06346 143.712955 68.116143 143.840143 68.209906 143.933906 
C 68.30367 144.02767 68.430858 144.080353 68.56346 144.080353 
z
" clip-path="url(#p595bd250b2)" style="stroke: #000000"/>
    <path d="M 65.776765 140.585977 
C 65.909366 140.585977 66.036555 140.533294 66.130318 140.43953 
C 66.224082 140.345767 66.276765 140.218579 66.276765 140.085977 
C 66.276765 139.953375 66.224082 139.826187 66.130318 139.732424 
C 66.036555 139.63866 65.909366 139.585977 65.776765 139.585977 
C 65.644163 139.585977 65.516975 139.63866 65.423211 139.732424 
C 65.329448 139.826187 65.276765 139.953375 65.276765 140.085977 
C 65.276765 140.218579 65.329448 140.345767 65.423211 140.43953 
C 65.516975 140.533294 65.644163 140.585977 65.776765 140.585977 
z
" clip-path="url(#p595bd250b2)" style="stroke: #000000"/>
    <path d="M 62.246899 134.120141 
C 62.721424 134.120141 63.176578 133.93161 63.512118 133.596069 
C 63.847659 133.260529 64.03619 132.805375 64.03619 132.33085 
C 64.03619 131.856324 63.847659 131.40117 63.512118 131.06563 
C 63.176578 130.73009 62.721424 130.541559 62.246899 130.541559 
C 61.772373 130.541559 61.317219 130.73009 60.981679 131.06563 
C 60.646139 131.40117 60.457608 131.856324 60.457608 132.33085 
C 60.457608 132.805375 60.646139 133.260529 60.981679 133.596069 
C 61.317219 133.93161 61.772373 134.120141 62.246899 134.120141 
z
" clip-path="url(#p595bd250b2)" style="stroke: #000000"/>
    <path d="M 63.257107 129.194073 
C 63.64202 129.194073 64.011221 129.041145 64.283395 128.76897 
C 64.55557 128.496795 64.708498 128.127595 64.708498 127.742681 
C 64.708498 127.357768 64.55557 126.988568 64.283395 126.716393 
C 64.011221 126.444218 63.64202 126.29129 63.257107 126.29129 
C 62.872193 126.29129 62.502993 126.444218 62.230818 126.716393 
C 61.958643 126.988568 61.805715 127.357768 61.805715 127.742681 
C 61.805715 128.127595 61.958643 128.496795 62.230818 128.76897 
C 62.502993 129.041145 62.872193 129.194073 63.257107 129.194073 
z
" clip-path="url(#p595bd250b2)" style="stroke: #000000"/>
    <path d="M 60.824216 121.336849 
C 61.327792 121.336849 61.81081 121.136777 62.166891 120.780695 
C 62.522973 120.424614 62.723045 119.941596 62.723045 119.43802 
C 62.723045 118.934445 62.522973 118.451427 62.166891 118.095346 
C 61.81081 117.739264 61.327792 117.539191 60.824216 117.539191 
C 60.320641 117.539191 59.837623 117.739264 59.481541 118.095346 
C 59.12546 118.451427 58.925387 118.934445 58.925387 119.43802 
C 58.925387 119.941596 59.12546 120.424614 59.481541 120.780695 
C 59.837623 121.136777 60.320641 121.336849 60.824216 121.336849 
z
" clip-path="url(#p595bd250b2)" style="stroke: #000000"/>
    <path d="M 55.19567 110.603644 
C 55.393955 110.603644 55.584146 110.524864 55.724355 110.384655 
C 55.864564 110.244446 55.943344 110.054255 55.943344 109.85597 
C 55.943344 109.657684 55.864564 109.467493 55.724355 109.327284 
C 55.584146 109.187075 55.393955 109.108295 55.19567 109.108295 
C 54.997384 109.108295 54.807193 109.187075 54.666984 109.327284 
C 54.526775 109.467493 54.447995 109.657684 54.447995 109.85597 
C 54.447995 110.054255 54.526775 110.244446 54.666984 110.384655 
C 54.807193 110.524864 54.997384 110.603644 55.19567 110.603644 
z
" clip-path="url(#p595bd250b2)" style="stroke: #000000"/>
    <path d="M 51.261332 104.65386 
C 51.666307 104.65386 52.05475 104.492961 52.341111 104.206601 
C 52.627471 103.92024 52.78837 103.531797 52.78837 103.126822 
C 52.78837 102.721847 52.627471 102.333404 52.341111 102.047043 
C 52.05475 101.760682 51.666307 101.599784 51.261332 101.599784 
C 50.856356 101.599784 50.467914 101.760682 50.181553 102.047043 
C 49.895192 102.333404 49.734294 102.721847 49.734294 103.126822 
C 49.734294 103.531797 49.895192 103.92024 50.181553 104.206601 
C 50.467914 104.492961 50.856356 104.65386 51.261332 104.65386 
z
" clip-path="url(#p595bd250b2)" style="stroke: #000000"/>
    <path d="M 47.380709 88.974467 
C 47.588242 88.974467 47.787303 88.892013 47.93405 88.745266 
C 48.080798 88.598518 48.163252 88.399457 48.163252 88.191925 
C 48.163252 87.984392 48.080798 87.785331 47.93405 87.638584 
C 47.787303 87.491836 47.588242 87.409382 47.380709 87.409382 
C 47.173177 87.409382 46.974116 87.491836 46.827369 87.638584 
C 46.680621 87.785331 46.598167 87.984392 46.598167 88.191925 
C 46.598167 88.399457 46.680621 88.598518 46.827369 88.745266 
C 46.974116 88.892013 47.173177 88.974467 47.380709 88.974467 
z
" clip-path="url(#p595bd250b2)" style="stroke: #000000"/>
    <path d="M 59.777693 149.819215 
C 59.910294 149.819215 60.037482 149.766532 60.131246 149.672769 
C 60.225009 149.579005 60.277693 149.451817 60.277693 149.319215 
C 60.277693 149.186614 60.225009 149.059425 60.131246 148.965662 
C 60.037482 148.871898 59.910294 148.819215 59.777693 148.819215 
C 59.645091 148.819215 59.517903 148.871898 59.424139 148.965662 
C 59.330376 149.059425 59.277693 149.186614 59.277693 149.319215 
C 59.277693 149.451817 59.330376 149.579005 59.424139 149.672769 
C 59.517903 149.766532 59.645091 149.819215 59.777693 149.819215 
z
" clip-path="url(#p595bd250b2)" style="stroke: #000000"/>
    <path d="M 48.011045 111.651108 
C 48.20933 111.651108 48.399521 111.572328 48.53973 111.432119 
C 48.679939 111.29191 48.758719 111.101719 48.758719 110.903433 
C 48.758719 110.705148 48.679939 110.514957 48.53973 110.374748 
C 48.399521 110.234539 48.20933 110.155759 48.011045 110.155759 
C 47.812759 110.155759 47.622568 110.234539 47.482359 110.374748 
C 47.34215 110.514957 47.26337 110.705148 47.26337 110.903433 
C 47.26337 111.101719 47.34215 111.29191 47.482359 111.432119 
C 47.622568 111.572328 47.812759 111.651108 48.011045 111.651108 
z
" clip-path="url(#p595bd250b2)" style="stroke: #000000"/>
    <path d="M 46.760397 100.060623 
C 47.02965 100.060623 47.287911 99.953648 47.478302 99.763257 
C 47.668693 99.572866 47.775668 99.314605 47.775668 99.045351 
C 47.775668 98.776098 47.668693 98.517837 47.478302 98.327446 
C 47.287911 98.137055 47.02965 98.03008 46.760397 98.03008 
C 46.491143 98.03008 46.232882 98.137055 46.042491 98.327446 
C 45.8521 98.517837 45.745125 98.776098 45.745125 99.045351 
C 45.745125 99.314605 45.8521 99.572866 46.042491 99.763257 
C 46.232882 99.953648 46.491143 100.060623 46.760397 100.060623 
z
" clip-path="url(#p595bd250b2)" style="stroke: #000000"/>
   </g>
   <g id="matplotlib.axis_1">
    <g id="xtick_1">
     <g id="line2d_1">
      <defs>
       <path id="mdc59a3c541" d="M 0 0 
L 0 3.5 
" style="stroke: #000000; stroke-width: 0.8"/>
      </defs>
      <g>
       <use xlink:href="#mdc59a3c541" x="18" y="189" style="stroke: #000000; stroke-width: 0.8"/>
      </g>
     </g>
     <g id="text_1">
      <!-- −10 -->
      <g transform="translate(7.447656 203.598437)scale(0.1 -0.1)">
       <defs>
        <path id="DejaVuSans-2212" d="M 678 2272 
L 4684 2272 
L 4684 1741 
L 678 1741 
L 678 2272 
z
" transform="scale(0.015625)"/>
        <path id="DejaVuSans-31" d="M 794 531 
L 1825 531 
L 1825 4091 
L 703 3866 
L 703 4441 
L 1819 4666 
L 2450 4666 
L 2450 531 
L 3481 531 
L 3481 0 
L 794 0 
L 794 531 
z
" transform="scale(0.015625)"/>
        <path id="DejaVuSans-30" d="M 2034 4250 
Q 1547 4250 1301 3770 
Q 1056 3291 1056 2328 
Q 1056 1369 1301 889 
Q 1547 409 2034 409 
Q 2525 409 2770 889 
Q 3016 1369 3016 2328 
Q 3016 3291 2770 3770 
Q 2525 4250 2034 4250 
z
M 2034 4750 
Q 2819 4750 3233 4129 
Q 3647 3509 3647 2328 
Q 3647 1150 3233 529 
Q 2819 -91 2034 -91 
Q 1250 -91 836 529 
Q 422 1150 422 2328 
Q 422 3509 836 4129 
Q 1250 4750 2034 4750 
z
" transform="scale(0.015625)"/>
       </defs>
       <use xlink:href="#DejaVuSans-2212"/>
       <use xlink:href="#DejaVuSans-31" x="83.789062"/>
       <use xlink:href="#DejaVuSans-30" x="147.412109"/>
      </g>
     </g>
    </g>
    <g id="xtick_2">
     <g id="line2d_2">
      <g>
       <use xlink:href="#mdc59a3c541" x="73.8" y="189" style="stroke: #000000; stroke-width: 0.8"/>
      </g>
     </g>
     <g id="text_2">
      <!-- 0 -->
      <g transform="translate(70.61875 203.598437)scale(0.1 -0.1)">
       <use xlink:href="#DejaVuSans-30"/>
      </g>
     </g>
    </g>
    <g id="xtick_3">
     <g id="line2d_3">
      <g>
       <use xlink:href="#mdc59a3c541" x="129.6" y="189" style="stroke: #000000; stroke-width: 0.8"/>
      </g>
     </g>
     <g id="text_3">
      <!-- 10 -->
      <g transform="translate(123.2375 203.598437)scale(0.1 -0.1)">
       <use xlink:href="#DejaVuSans-31"/>
       <use xlink:href="#DejaVuSans-30" x="63.623047"/>
      </g>
     </g>
    </g>
   </g>
   <g id="matplotlib.axis_2">
    <g id="ytick_1">
     <g id="line2d_4">
      <defs>
       <path id="m406e0a806d" d="M 0 0 
L -3.5 0 
" style="stroke: #000000; stroke-width: 0.8"/>
      </defs>
      <g>
       <use xlink:href="#m406e0a806d" x="18" y="189" style="stroke: #000000; stroke-width: 0.8"/>
      </g>
     </g>
     <g id="text_4">
      <!-- −15 -->
      <g transform="translate(-10.104688 192.799219)scale(0.1 -0.1)">
       <defs>
        <path id="DejaVuSans-35" d="M 691 4666 
L 3169 4666 
L 3169 4134 
L 1269 4134 
L 1269 2991 
Q 1406 3038 1543 3061 
Q 1681 3084 1819 3084 
Q 2600 3084 3056 2656 
Q 3513 2228 3513 1497 
Q 3513 744 3044 326 
Q 2575 -91 1722 -91 
Q 1428 -91 1123 -41 
Q 819 9 494 109 
L 494 744 
Q 775 591 1075 516 
Q 1375 441 1709 441 
Q 2250 441 2565 725 
Q 2881 1009 2881 1497 
Q 2881 1984 2565 2268 
Q 2250 2553 1709 2553 
Q 1456 2553 1204 2497 
Q 953 2441 691 2322 
L 691 4666 
z
" transform="scale(0.015625)"/>
       </defs>
       <use xlink:href="#DejaVuSans-2212"/>
       <use xlink:href="#DejaVuSans-31" x="83.789062"/>
       <use xlink:href="#DejaVuSans-35" x="147.412109"/>
      </g>
     </g>
    </g>
    <g id="ytick_2">
     <g id="line2d_5">
      <g>
       <use xlink:href="#m406e0a806d" x="18" y="161.82" style="stroke: #000000; stroke-width: 0.8"/>
      </g>
     </g>
     <g id="text_5">
      <!-- −10 -->
      <g transform="translate(-10.104688 165.619219)scale(0.1 -0.1)">
       <use xlink:href="#DejaVuSans-2212"/>
       <use xlink:href="#DejaVuSans-31" x="83.789062"/>
       <use xlink:href="#DejaVuSans-30" x="147.412109"/>
      </g>
     </g>
    </g>
    <g id="ytick_3">
     <g id="line2d_6">
      <g>
       <use xlink:href="#m406e0a806d" x="18" y="134.64" style="stroke: #000000; stroke-width: 0.8"/>
      </g>
     </g>
     <g id="text_6">
      <!-- −5 -->
      <g transform="translate(-3.742188 138.439219)scale(0.1 -0.1)">
       <use xlink:href="#DejaVuSans-2212"/>
       <use xlink:href="#DejaVuSans-35" x="83.789062"/>
      </g>
     </g>
    </g>
    <g id="ytick_4">
     <g id="line2d_7">
      <g>
       <use xlink:href="#m406e0a806d" x="18" y="107.46" style="stroke: #000000; stroke-width: 0.8"/>
      </g>
     </g>
     <g id="text_7">
      <!-- 0 -->
      <g transform="translate(4.6375 111.259219)scale(0.1 -0.1)">
       <use xlink:href="#DejaVuSans-30"/>
      </g>
     </g>
    </g>
    <g id="ytick_5">
     <g id="line2d_8">
      <g>
       <use xlink:href="#m406e0a806d" x="18" y="80.28" style="stroke: #000000; stroke-width: 0.8"/>
      </g>
     </g>
     <g id="text_8">
      <!-- 5 -->
      <g transform="translate(4.6375 84.079219)scale(0.1 -0.1)">
       <use xlink:href="#DejaVuSans-35"/>
      </g>
     </g>
    </g>
    <g id="ytick_6">
     <g id="line2d_9">
      <g>
       <use xlink:href="#m406e0a806d" x="18" y="53.1" style="stroke: #000000; stroke-width: 0.8"/>
      </g>
     </g>
     <g id="text_9">
      <!-- 10 -->
      <g transform="translate(-1.725 56.899219)scale(0.1 -0.1)">
       <use xlink:href="#DejaVuSans-31"/>
       <use xlink:href="#DejaVuSans-30" x="63.623047"/>
      </g>
     </g>
    </g>
    <g id="ytick_7">
     <g id="line2d_10">
      <g>
       <use xlink:href="#m406e0a806d" x="18" y="25.92" style="stroke: #000000; stroke-width: 0.8"/>
      </g>
     </g>
     <g id="text_10">
      <!-- 15 -->
      <g transform="translate(-1.725 29.719219)scale(0.1 -0.1)">
       <use xlink:href="#DejaVuSans-31"/>
       <use xlink:href="#DejaVuSans-35" x="63.623047"/>
      </g>
     </g>
    </g>
   </g>
   <g id="patch_3">
    <path d="M 18 189 
L 18 25.92 
" style="fill: none; stroke: #000000; stroke-width: 0.8; stroke-linejoin: miter; stroke-linecap: square"/>
   </g>
   <g id="patch_4">
    <path d="M 129.6 189 
L 129.6 25.92 
" style="fill: none; stroke: #000000; stroke-width: 0.8; stroke-linejoin: miter; stroke-linecap: square"/>
   </g>
   <g id="patch_5">
    <path d="M 18 189 
L 129.6 189 
" style="fill: none; stroke: #000000; stroke-width: 0.8; stroke-linejoin: miter; stroke-linecap: square"/>
   </g>
   <g id="patch_6">
    <path d="M 18 25.92 
L 129.6 25.92 
" style="fill: none; stroke: #000000; stroke-width: 0.8; stroke-linejoin: miter; stroke-linecap: square"/>
   </g>
  </g>
 </g>
 <defs>
  <clipPath id="p595bd250b2">
   <rect x="18" y="25.92" width="111.6" height="163.08"/>
  </clipPath>
 </defs>
</svg>
