<?xml version="1.0" encoding="utf-8" standalone="no"?>
<!DOCTYPE svg PUBLIC "-//W3C//DTD SVG 1.1//EN"
  "http://www.w3.org/Graphics/SVG/1.1/DTD/svg11.dtd">
<svg xmlns:xlink="http://www.w3.org/1999/xlink" width="144pt" height="216pt" viewBox="0 0 144 216" xmlns="http://www.w3.org/2000/svg" version="1.1">
 <metadata>
  <rdf:RDF xmlns:dc="http://purl.org/dc/elements/1.1/" xmlns:cc="http://creativecommons.org/ns#" xmlns:rdf="http://www.w3.org/1999/02/22-rdf-syntax-ns#">
   <cc:Work>
    <dc:type rdf:resource="http://purl.org/dc/dcmitype/StillImage"/>
    <dc:date>2022-06-28T09:24:41.100255</dc:date>
    <dc:format>image/svg+xml</dc:format>
    <dc:creator>
     <cc:Agent>
      <dc:title>Matplotlib v3.5.1, https://matplotlib.org/</dc:title>
     </cc:Agent>
    </dc:creator>
   </cc:Work>
  </rdf:RDF>
 </metadata>
 <defs>
  <style type="text/css">*{stroke-linejoin: round; stroke-linecap: butt}</style>
 </defs>
 <g id="figure_1">
  <g id="patch_1">
   <path d="M 0 216 
L 144 216 
L 144 0 
L 0 0 
L 0 216 
z
" style="fill: none"/>
  </g>
  <g id="axes_1">
   <g id="patch_2">
    <path d="M 18 189 
L 129.6 189 
L 129.6 25.92 
L 18 25.92 
z
" style="fill: #ffffff"/>
   </g>
   <g id="PathCollection_1">
    <defs>
     <path id="m1b5a089932" d="M 0 2.738613 
C 0.726289 2.738613 1.422928 2.450055 1.936492 1.936492 
C 2.450055 1.422928 2.738613 0.726289 2.738613 0 
C 2.738613 -0.726289 2.450055 -1.422928 1.936492 -1.936492 
C 1.422928 -2.450055 0.726289 -2.738613 0 -2.738613 
C -0.726289 -2.738613 -1.422928 -2.450055 -1.936492 -1.936492 
C -2.450055 -1.422928 -2.738613 -0.726289 -2.738613 0 
C -2.738613 0.726289 -2.450055 1.422928 -1.936492 1.936492 
C -1.422928 2.450055 -0.726289 2.738613 0 2.738613 
z
" style="stroke: #ff0000; stroke-width: 1.75"/>
    </defs>
    <g clip-path="url(#p7084003ae5)">
     <use xlink:href="#m1b5a089932" x="66.825" y="83.92143" style="fill: #ff0000; stroke: #ff0000; stroke-width: 1.75"/>
     <use xlink:href="#m1b5a089932" x="87.75" y="95.690715" style="fill: #ff0000; stroke: #ff0000; stroke-width: 1.75"/>
     <use xlink:href="#m1b5a089932" x="66.825" y="107.46" style="fill: #ff0000; stroke: #ff0000; stroke-width: 1.75"/>
     <use xlink:href="#m1b5a089932" x="73.8" y="119.229285" style="fill: #ff0000; stroke: #ff0000; stroke-width: 1.75"/>
     <use xlink:href="#m1b5a089932" x="87.75" y="119.229285" style="fill: #ff0000; stroke: #ff0000; stroke-width: 1.75"/>
     <use xlink:href="#m1b5a089932" x="66.825" y="130.99857" style="fill: #ff0000; stroke: #ff0000; stroke-width: 1.75"/>
     <use xlink:href="#m1b5a089932" x="80.775" y="130.99857" style="fill: #ff0000; stroke: #ff0000; stroke-width: 1.75"/>
    </g>
   </g>
   <g id="PathCollection_2">
    <defs>
     <path id="C0_0_3a26aaf3f5" d="M 0 2.738613 
C 0.726289 2.738613 1.422928 2.450055 1.936492 1.936492 
C 2.450055 1.422928 2.738613 0.726289 2.738613 -0 
C 2.738613 -0.726289 2.450055 -1.422928 1.936492 -1.936492 
C 1.422928 -2.450055 0.726289 -2.738613 0 -2.738613 
C -0.726289 -2.738613 -1.422928 -2.450055 -1.936492 -1.936492 
C -2.450055 -1.422928 -2.738613 -0.726289 -2.738613 0 
C -2.738613 0.726289 -2.450055 1.422928 -1.936492 1.936492 
C -1.422928 2.450055 -0.726289 2.738613 0 2.738613 
z
"/>
    </defs>
    <g clip-path="url(#p7084003ae5)">
     <use xlink:href="#C0_0_3a26aaf3f5" x="80.775" y="83.92143" style="fill: none; stroke: #ff0000; stroke-width: 1.75"/>
    </g>
    <g clip-path="url(#p7084003ae5)">
     <use xlink:href="#C0_0_3a26aaf3f5" x="59.85" y="95.690715" style="fill: none; stroke: #ff0000; stroke-width: 1.75"/>
    </g>
    <g clip-path="url(#p7084003ae5)">
     <use xlink:href="#C0_0_3a26aaf3f5" x="73.8" y="95.690715" style="fill: none; stroke: #ff0000; stroke-width: 1.75"/>
    </g>
    <g clip-path="url(#p7084003ae5)">
     <use xlink:href="#C0_0_3a26aaf3f5" x="52.875" y="107.46" style="fill: none; stroke: #ff0000; stroke-width: 1.75"/>
    </g>
    <g clip-path="url(#p7084003ae5)">
     <use xlink:href="#C0_0_3a26aaf3f5" x="80.775" y="107.46" style="fill: none; stroke: #ff0000; stroke-width: 1.75"/>
    </g>
    <g clip-path="url(#p7084003ae5)">
     <use xlink:href="#C0_0_3a26aaf3f5" x="94.725" y="107.46" style="fill: none; stroke: #ff0000; stroke-width: 1.75"/>
    </g>
    <g clip-path="url(#p7084003ae5)">
     <use xlink:href="#C0_0_3a26aaf3f5" x="59.85" y="119.229285" style="fill: none; stroke: #ff0000; stroke-width: 1.75"/>
    </g>
   </g>
   <g id="PathCollection_3">
    <path d="M 84.876122 56.793638 
C 85.008724 56.793638 85.135912 56.740955 85.229675 56.647191 
C 85.323439 56.553428 85.376122 56.426239 85.376122 56.293638 
C 85.376122 56.161036 85.323439 56.033848 85.229675 55.940084 
C 85.135912 55.846321 85.008724 55.793638 84.876122 55.793638 
C 84.74352 55.793638 84.616332 55.846321 84.522569 55.940084 
C 84.428805 56.033848 84.376122 56.161036 84.376122 56.293638 
C 84.376122 56.426239 84.428805 56.553428 84.522569 56.647191 
C 84.616332 56.740955 84.74352 56.793638 84.876122 56.793638 
z
" clip-path="url(#p7084003ae5)" style="stroke: #000000"/>
    <path d="M 97.43029 109.83192 
C 98.032358 109.83192 98.609848 109.592716 99.035575 109.166989 
C 99.461302 108.741262 99.700506 108.163772 99.700506 107.561704 
C 99.700506 106.959635 99.461302 106.382145 99.035575 105.956418 
C 98.609848 105.530692 98.032358 105.291487 97.43029 105.291487 
C 96.828221 105.291487 96.250731 105.530692 95.825004 105.956418 
C 95.399278 106.382145 95.160073 106.959635 95.160073 107.561704 
C 95.160073 108.163772 95.399278 108.741262 95.825004 109.166989 
C 96.250731 109.592716 96.828221 109.83192 97.43029 109.83192 
z
" clip-path="url(#p7084003ae5)" style="stroke: #000000"/>
    <path d="M 91.655833 110.272205 
C 91.788434 110.272205 91.915623 110.219521 92.009386 110.125758 
C 92.10315 110.031994 92.155833 109.904806 92.155833 109.772205 
C 92.155833 109.639603 92.10315 109.512415 92.009386 109.418651 
C 91.915623 109.324888 91.788434 109.272205 91.655833 109.272205 
C 91.523231 109.272205 91.396043 109.324888 91.302279 109.418651 
C 91.208516 109.512415 91.155833 109.639603 91.155833 109.772205 
C 91.155833 109.904806 91.208516 110.031994 91.302279 110.125758 
C 91.396043 110.219521 91.523231 110.272205 91.655833 110.272205 
z
" clip-path="url(#p7084003ae5)" style="stroke: #000000"/>
    <path d="M 85.073589 107.083119 
C 85.503023 107.083119 85.914927 106.912503 86.218583 106.608847 
C 86.522239 106.305191 86.692855 105.893287 86.692855 105.463853 
C 86.692855 105.034419 86.522239 104.622515 86.218583 104.318859 
C 85.914927 104.015203 85.503023 103.844587 85.073589 103.844587 
C 84.644154 103.844587 84.232251 104.015203 83.928595 104.318859 
C 83.624939 104.622515 83.454323 105.034419 83.454323 105.463853 
C 83.454323 105.893287 83.624939 106.305191 83.928595 106.608847 
C 84.232251 106.912503 84.644154 107.083119 85.073589 107.083119 
z
" clip-path="url(#p7084003ae5)" style="stroke: #000000"/>
    <path d="M 88.826632 100.209036 
C 89.278625 100.209036 89.712167 100.029457 90.031775 99.709849 
C 90.351382 99.390242 90.530961 98.9567 90.530961 98.504707 
C 90.530961 98.052714 90.351382 97.619172 90.031775 97.299564 
C 89.712167 96.979957 89.278625 96.800378 88.826632 96.800378 
C 88.374639 96.800378 87.941097 96.979957 87.621489 97.299564 
C 87.301882 97.619172 87.122303 98.052714 87.122303 98.504707 
C 87.122303 98.9567 87.301882 99.390242 87.621489 99.709849 
C 87.941097 100.029457 88.374639 100.209036 88.826632 100.209036 
z
" clip-path="url(#p7084003ae5)" style="stroke: #000000"/>
    <path d="M 83.208467 87.20879 
C 83.817839 87.20879 84.402334 86.966685 84.833225 86.535794 
C 85.264116 86.104903 85.506222 85.520407 85.506222 84.911035 
C 85.506222 84.301664 85.264116 83.717168 84.833225 83.286277 
C 84.402334 82.855386 83.817839 82.61328 83.208467 82.61328 
C 82.599095 82.61328 82.0146 82.855386 81.583709 83.286277 
C 81.152818 83.717168 80.910712 84.301664 80.910712 84.911035 
C 80.910712 85.520407 81.152818 86.104903 81.583709 86.535794 
C 82.0146 86.966685 82.599095 87.20879 83.208467 87.20879 
z
" clip-path="url(#p7084003ae5)" style="stroke: #000000"/>
    <path d="M 80.460069 80.274911 
C 80.61776 80.274911 80.769013 80.21226 80.880517 80.100756 
C 80.992021 79.989252 81.054673 79.837998 81.054673 79.680307 
C 81.054673 79.522617 80.992021 79.371363 80.880517 79.259859 
C 80.769013 79.148355 80.61776 79.085704 80.460069 79.085704 
C 80.302378 79.085704 80.151125 79.148355 80.039621 79.259859 
C 79.928117 79.371363 79.865465 79.522617 79.865465 79.680307 
C 79.865465 79.837998 79.928117 79.989252 80.039621 80.100756 
C 80.151125 80.21226 80.302378 80.274911 80.460069 80.274911 
z
" clip-path="url(#p7084003ae5)" style="stroke: #000000"/>
    <path d="M 86.8111 120.101393 
C 87.327493 120.101393 87.822805 119.896228 88.187951 119.531083 
C 88.553096 119.165938 88.758261 118.670625 88.758261 118.154232 
C 88.758261 117.637838 88.553096 117.142526 88.187951 116.777381 
C 87.822805 116.412236 87.327493 116.20707 86.8111 116.20707 
C 86.294706 116.20707 85.799394 116.412236 85.434248 116.777381 
C 85.069103 117.142526 84.863938 117.637838 84.863938 118.154232 
C 84.863938 118.670625 85.069103 119.165938 85.434248 119.531083 
C 85.799394 119.896228 86.294706 120.101393 86.8111 120.101393 
z
" clip-path="url(#p7084003ae5)" style="stroke: #000000"/>
    <path d="M 82.17071 108.162023 
C 82.702149 108.162023 83.211893 107.95088 83.587678 107.575096 
C 83.963462 107.199312 84.174605 106.689568 84.174605 106.158128 
C 84.174605 105.626689 83.963462 105.116945 83.587678 104.741161 
C 83.211893 104.365377 82.702149 104.154234 82.17071 104.154234 
C 81.639271 104.154234 81.129526 104.365377 80.753742 104.741161 
C 80.377958 105.116945 80.166815 105.626689 80.166815 106.158128 
C 80.166815 106.689568 80.377958 107.199312 80.753742 107.575096 
C 81.129526 107.95088 81.639271 108.162023 82.17071 108.162023 
z
" clip-path="url(#p7084003ae5)" style="stroke: #000000"/>
    <path d="M 77.89278 95.856205 
C 78.05047 95.856205 78.201724 95.793554 78.313228 95.68205 
C 78.424732 95.570546 78.487383 95.419292 78.487383 95.261602 
C 78.487383 95.103911 78.424732 94.952658 78.313228 94.841153 
C 78.201724 94.729649 78.05047 94.666998 77.89278 94.666998 
C 77.735089 94.666998 77.583836 94.729649 77.472332 94.841153 
C 77.360827 94.952658 77.298176 95.103911 77.298176 95.261602 
C 77.298176 95.419292 77.360827 95.570546 77.472332 95.68205 
C 77.583836 95.793554 77.735089 95.856205 77.89278 95.856205 
z
" clip-path="url(#p7084003ae5)" style="stroke: #000000"/>
    <path d="M 79.451148 130.040139 
C 79.973608 130.040139 80.474739 129.832564 80.844174 129.463129 
C 81.213609 129.093694 81.421184 128.592563 81.421184 128.070103 
C 81.421184 127.547643 81.213609 127.046512 80.844174 126.677077 
C 80.474739 126.307642 79.973608 126.100066 79.451148 126.100066 
C 78.928688 126.100066 78.427557 126.307642 78.058122 126.677077 
C 77.688687 127.046512 77.481111 127.547643 77.481111 128.070103 
C 77.481111 128.592563 77.688687 129.093694 78.058122 129.463129 
C 78.427557 129.832564 78.928688 130.040139 79.451148 130.040139 
z
" clip-path="url(#p7084003ae5)" style="stroke: #000000"/>
    <path d="M 75.8959 107.658037 
C 76.028502 107.658037 76.15569 107.605353 76.249454 107.51159 
C 76.343217 107.417827 76.3959 107.290638 76.3959 107.158037 
C 76.3959 107.025435 76.343217 106.898247 76.249454 106.804483 
C 76.15569 106.71072 76.028502 106.658037 75.8959 106.658037 
C 75.763299 106.658037 75.63611 106.71072 75.542347 106.804483 
C 75.448583 106.898247 75.3959 107.025435 75.3959 107.158037 
C 75.3959 107.290638 75.448583 107.417827 75.542347 107.51159 
C 75.63611 107.605353 75.763299 107.658037 75.8959 107.658037 
z
" clip-path="url(#p7084003ae5)" style="stroke: #000000"/>
    <path d="M 72.54799 95.899594 
C 73.067719 95.899594 73.566231 95.693104 73.933734 95.3256 
C 74.301238 94.958097 74.507728 94.459585 74.507728 93.939856 
C 74.507728 93.420128 74.301238 92.921616 73.933734 92.554112 
C 73.566231 92.186609 73.067719 91.980118 72.54799 91.980118 
C 72.028262 91.980118 71.52975 92.186609 71.162246 92.554112 
C 70.794743 92.921616 70.588253 93.420128 70.588253 93.939856 
C 70.588253 94.459585 70.794743 94.958097 71.162246 95.3256 
C 71.52975 95.693104 72.028262 95.899594 72.54799 95.899594 
z
" clip-path="url(#p7084003ae5)" style="stroke: #000000"/>
    <path d="M 68.884622 86.781226 
C 69.406538 86.781226 69.907149 86.573866 70.2762 86.204815 
C 70.645251 85.835764 70.852611 85.335153 70.852611 84.813236 
C 70.852611 84.291319 70.645251 83.790708 70.2762 83.421657 
C 69.907149 83.052606 69.406538 82.845246 68.884622 82.845246 
C 68.362705 82.845246 67.862094 83.052606 67.493043 83.421657 
C 67.123992 83.790708 66.916632 84.291319 66.916632 84.813236 
C 66.916632 85.335153 67.123992 85.835764 67.493043 86.204815 
C 67.862094 86.573866 68.362705 86.781226 68.884622 86.781226 
z
" clip-path="url(#p7084003ae5)" style="stroke: #000000"/>
    <path d="M 76.877193 130.624863 
C 77.100202 130.624863 77.314106 130.536261 77.471797 130.37857 
C 77.629488 130.22088 77.71809 130.006975 77.71809 129.783967 
C 77.71809 129.560958 77.629488 129.347054 77.471797 129.189363 
C 77.314106 129.031672 77.100202 128.94307 76.877193 128.94307 
C 76.654185 128.94307 76.44028 129.031672 76.28259 129.189363 
C 76.124899 129.347054 76.036297 129.560958 76.036297 129.783967 
C 76.036297 130.006975 76.124899 130.22088 76.28259 130.37857 
C 76.44028 130.536261 76.654185 130.624863 76.877193 130.624863 
z
" clip-path="url(#p7084003ae5)" style="stroke: #000000"/>
    <path d="M 74.837685 122.828171 
C 75.285433 122.828171 75.714904 122.650278 76.03151 122.333672 
C 76.348116 122.017066 76.526009 121.587595 76.526009 121.139846 
C 76.526009 120.692098 76.348116 120.262627 76.03151 119.946021 
C 75.714904 119.629415 75.285433 119.451522 74.837685 119.451522 
C 74.389936 119.451522 73.960465 119.629415 73.643859 119.946021 
C 73.327253 120.262627 73.14936 120.692098 73.14936 121.139846 
C 73.14936 121.587595 73.327253 122.017066 73.643859 122.333672 
C 73.960465 122.650278 74.389936 122.828171 74.837685 122.828171 
z
" clip-path="url(#p7084003ae5)" style="stroke: #000000"/>
    <path d="M 71.823752 120.48199 
C 72.350494 120.48199 72.855734 120.272713 73.228197 119.90025 
C 73.600661 119.527786 73.809938 119.022547 73.809938 118.495804 
C 73.809938 117.969062 73.600661 117.463822 73.228197 117.091359 
C 72.855734 116.718896 72.350494 116.509619 71.823752 116.509619 
C 71.297009 116.509619 70.79177 116.718896 70.419307 117.091359 
C 70.046843 117.463822 69.837566 117.969062 69.837566 118.495804 
C 69.837566 119.022547 70.046843 119.527786 70.419307 119.90025 
C 70.79177 120.272713 71.297009 120.48199 71.823752 120.48199 
z
" clip-path="url(#p7084003ae5)" style="stroke: #000000"/>
    <path d="M 67.938949 107.801813 
C 68.463564 107.801813 68.966762 107.593381 69.33772 107.222423 
C 69.708679 106.851465 69.91711 106.348266 69.91711 105.823652 
C 69.91711 105.299038 69.708679 104.79584 69.33772 104.424881 
C 68.966762 104.053923 68.463564 103.845492 67.938949 103.845492 
C 67.414335 103.845492 66.911137 104.053923 66.540179 104.424881 
C 66.16922 104.79584 65.960789 105.299038 65.960789 105.823652 
C 65.960789 106.348266 66.16922 106.851465 66.540179 107.222423 
C 66.911137 107.593381 67.414335 107.801813 67.938949 107.801813 
z
" clip-path="url(#p7084003ae5)" style="stroke: #000000"/>
    <path d="M 62.659 95.282694 
C 63.123057 95.282694 63.56817 95.098322 63.896308 94.770184 
C 64.224446 94.442046 64.408817 93.996933 64.408817 93.532876 
C 64.408817 93.068819 64.224446 92.623706 63.896308 92.295568 
C 63.56817 91.96743 63.123057 91.783058 62.659 91.783058 
C 62.194943 91.783058 61.74983 91.96743 61.421692 92.295568 
C 61.093554 92.623706 60.909182 93.068819 60.909182 93.532876 
C 60.909182 93.996933 61.093554 94.442046 61.421692 94.770184 
C 61.74983 95.098322 62.194943 95.282694 62.659 95.282694 
z
" clip-path="url(#p7084003ae5)" style="stroke: #000000"/>
    <path d="M 69.486775 134.732156 
C 69.91023 134.732156 70.316398 134.563916 70.615825 134.264488 
C 70.915253 133.96506 71.083493 133.558892 71.083493 133.135438 
C 71.083493 132.711983 70.915253 132.305815 70.615825 132.006387 
C 70.316398 131.70696 69.91023 131.538719 69.486775 131.538719 
C 69.06332 131.538719 68.657152 131.70696 68.357724 132.006387 
C 68.058297 132.305815 67.890056 132.711983 67.890056 133.135438 
C 67.890056 133.558892 68.058297 133.96506 68.357724 134.264488 
C 68.657152 134.563916 69.06332 134.732156 69.486775 134.732156 
z
" clip-path="url(#p7084003ae5)" style="stroke: #000000"/>
    <path d="M 62.110978 106.08815 
C 62.24358 106.08815 62.370768 106.035467 62.464532 105.941704 
C 62.558295 105.84794 62.610978 105.720752 62.610978 105.58815 
C 62.610978 105.455549 62.558295 105.32836 62.464532 105.234597 
C 62.370768 105.140833 62.24358 105.08815 62.110978 105.08815 
C 61.978377 105.08815 61.851188 105.140833 61.757425 105.234597 
C 61.663662 105.32836 61.610978 105.455549 61.610978 105.58815 
C 61.610978 105.720752 61.663662 105.84794 61.757425 105.941704 
C 61.851188 106.035467 61.978377 106.08815 62.110978 106.08815 
z
" clip-path="url(#p7084003ae5)" style="stroke: #000000"/>
    <path d="M 59.835462 100.313685 
C 60.355191 100.313685 60.853703 100.107195 61.221206 99.739691 
C 61.58871 99.372187 61.7952 98.873675 61.7952 98.353947 
C 61.7952 97.834218 61.58871 97.335707 61.221206 96.968203 
C 60.853703 96.600699 60.355191 96.394209 59.835462 96.394209 
C 59.315734 96.394209 58.817222 96.600699 58.449718 96.968203 
C 58.082215 97.335707 57.875724 97.834218 57.875724 98.353947 
C 57.875724 98.873675 58.082215 99.372187 58.449718 99.739691 
C 58.817222 100.107195 59.315734 100.313685 59.835462 100.313685 
z
" clip-path="url(#p7084003ae5)" style="stroke: #000000"/>
    <path d="M 58.410556 98.247538 
C 58.967406 98.247538 59.501525 98.026299 59.895277 97.632546 
C 60.28903 97.238794 60.510269 96.704675 60.510269 96.147825 
C 60.510269 95.590974 60.28903 95.056855 59.895277 94.663103 
C 59.501525 94.26935 58.967406 94.048111 58.410556 94.048111 
C 57.853705 94.048111 57.319587 94.26935 56.925834 94.663103 
C 56.532081 95.056855 56.310842 95.590974 56.310842 96.147825 
C 56.310842 96.704675 56.532081 97.238794 56.925834 97.632546 
C 57.319587 98.026299 57.853705 98.247538 58.410556 98.247538 
z
" clip-path="url(#p7084003ae5)" style="stroke: #000000"/>
    <path d="M 63.896264 134.651586 
C 64.211645 134.651586 64.514152 134.526283 64.73716 134.303275 
C 64.960169 134.080267 65.085471 133.77776 65.085471 133.462379 
C 65.085471 133.146997 64.960169 132.844491 64.73716 132.621482 
C 64.514152 132.398474 64.211645 132.273172 63.896264 132.273172 
C 63.580883 132.273172 63.278376 132.398474 63.055368 132.621482 
C 62.832359 132.844491 62.707057 133.146997 62.707057 133.462379 
C 62.707057 133.77776 62.832359 134.080267 63.055368 134.303275 
C 63.278376 134.526283 63.580883 134.651586 63.896264 134.651586 
z
" clip-path="url(#p7084003ae5)" style="stroke: #000000"/>
    <path d="M 58.915627 123.724042 
C 59.389427 123.724042 59.843886 123.5358 60.178914 123.200772 
C 60.513941 122.865744 60.702184 122.411286 60.702184 121.937485 
C 60.702184 121.463685 60.513941 121.009226 60.178914 120.674199 
C 59.843886 120.339171 59.389427 120.150928 58.915627 120.150928 
C 58.441826 120.150928 57.987368 120.339171 57.65234 120.674199 
C 57.317313 121.009226 57.12907 121.463685 57.12907 121.937485 
C 57.12907 122.411286 57.317313 122.865744 57.65234 123.200772 
C 57.987368 123.5358 58.441826 123.724042 58.915627 123.724042 
z
" clip-path="url(#p7084003ae5)" style="stroke: #000000"/>
    <path d="M 52.837971 110.87418 
C 53.372473 110.87418 53.885155 110.66182 54.263105 110.28387 
C 54.641056 109.90592 54.853416 109.393237 54.853416 108.858735 
C 54.853416 108.324233 54.641056 107.81155 54.263105 107.4336 
C 53.885155 107.05565 53.372473 106.84329 52.837971 106.84329 
C 52.303468 106.84329 51.790786 107.05565 51.412836 107.4336 
C 51.034885 107.81155 50.822525 108.324233 50.822525 108.858735 
C 50.822525 109.393237 51.034885 109.90592 51.412836 110.28387 
C 51.790786 110.66182 52.303468 110.87418 52.837971 110.87418 
z
" clip-path="url(#p7084003ae5)" style="stroke: #000000"/>
   </g>
   <g id="matplotlib.axis_1">
    <g id="xtick_1">
     <g id="line2d_1">
      <defs>
       <path id="m2c9a2b5b4c" d="M 0 0 
L 0 3.5 
" style="stroke: #000000; stroke-width: 0.8"/>
      </defs>
      <g>
       <use xlink:href="#m2c9a2b5b4c" x="18" y="189" style="stroke: #000000; stroke-width: 0.8"/>
      </g>
     </g>
     <g id="text_1">
      <!-- −10 -->
      <g transform="translate(7.447656 203.598437)scale(0.1 -0.1)">
       <defs>
        <path id="DejaVuSans-2212" d="M 678 2272 
L 4684 2272 
L 4684 1741 
L 678 1741 
L 678 2272 
z
" transform="scale(0.015625)"/>
        <path id="DejaVuSans-31" d="M 794 531 
L 1825 531 
L 1825 4091 
L 703 3866 
L 703 4441 
L 1819 4666 
L 2450 4666 
L 2450 531 
L 3481 531 
L 3481 0 
L 794 0 
L 794 531 
z
" transform="scale(0.015625)"/>
        <path id="DejaVuSans-30" d="M 2034 4250 
Q 1547 4250 1301 3770 
Q 1056 3291 1056 2328 
Q 1056 1369 1301 889 
Q 1547 409 2034 409 
Q 2525 409 2770 889 
Q 3016 1369 3016 2328 
Q 3016 3291 2770 3770 
Q 2525 4250 2034 4250 
z
M 2034 4750 
Q 2819 4750 3233 4129 
Q 3647 3509 3647 2328 
Q 3647 1150 3233 529 
Q 2819 -91 2034 -91 
Q 1250 -91 836 529 
Q 422 1150 422 2328 
Q 422 3509 836 4129 
Q 1250 4750 2034 4750 
z
" transform="scale(0.015625)"/>
       </defs>
       <use xlink:href="#DejaVuSans-2212"/>
       <use xlink:href="#DejaVuSans-31" x="83.789062"/>
       <use xlink:href="#DejaVuSans-30" x="147.412109"/>
      </g>
     </g>
    </g>
    <g id="xtick_2">
     <g id="line2d_2">
      <g>
       <use xlink:href="#m2c9a2b5b4c" x="73.8" y="189" style="stroke: #000000; stroke-width: 0.8"/>
      </g>
     </g>
     <g id="text_2">
      <!-- 0 -->
      <g transform="translate(70.61875 203.598437)scale(0.1 -0.1)">
       <use xlink:href="#DejaVuSans-30"/>
      </g>
     </g>
    </g>
    <g id="xtick_3">
     <g id="line2d_3">
      <g>
       <use xlink:href="#m2c9a2b5b4c" x="129.6" y="189" style="stroke: #000000; stroke-width: 0.8"/>
      </g>
     </g>
     <g id="text_3">
      <!-- 10 -->
      <g transform="translate(123.2375 203.598437)scale(0.1 -0.1)">
       <use xlink:href="#DejaVuSans-31"/>
       <use xlink:href="#DejaVuSans-30" x="63.623047"/>
      </g>
     </g>
    </g>
   </g>
   <g id="matplotlib.axis_2">
    <g id="ytick_1">
     <g id="line2d_4">
      <defs>
       <path id="m918e3c5dd1" d="M 0 0 
L -3.5 0 
" style="stroke: #000000; stroke-width: 0.8"/>
      </defs>
      <g>
       <use xlink:href="#m918e3c5dd1" x="18" y="189" style="stroke: #000000; stroke-width: 0.8"/>
      </g>
     </g>
     <g id="text_4">
      <!-- −15 -->
      <g transform="translate(-10.104688 192.799219)scale(0.1 -0.1)">
       <defs>
        <path id="DejaVuSans-35" d="M 691 4666 
L 3169 4666 
L 3169 4134 
L 1269 4134 
L 1269 2991 
Q 1406 3038 1543 3061 
Q 1681 3084 1819 3084 
Q 2600 3084 3056 2656 
Q 3513 2228 3513 1497 
Q 3513 744 3044 326 
Q 2575 -91 1722 -91 
Q 1428 -91 1123 -41 
Q 819 9 494 109 
L 494 744 
Q 775 591 1075 516 
Q 1375 441 1709 441 
Q 2250 441 2565 725 
Q 2881 1009 2881 1497 
Q 2881 1984 2565 2268 
Q 2250 2553 1709 2553 
Q 1456 2553 1204 2497 
Q 953 2441 691 2322 
L 691 4666 
z
" transform="scale(0.015625)"/>
       </defs>
       <use xlink:href="#DejaVuSans-2212"/>
       <use xlink:href="#DejaVuSans-31" x="83.789062"/>
       <use xlink:href="#DejaVuSans-35" x="147.412109"/>
      </g>
     </g>
    </g>
    <g id="ytick_2">
     <g id="line2d_5">
      <g>
       <use xlink:href="#m918e3c5dd1" x="18" y="161.82" style="stroke: #000000; stroke-width: 0.8"/>
      </g>
     </g>
     <g id="text_5">
      <!-- −10 -->
      <g transform="translate(-10.104688 165.619219)scale(0.1 -0.1)">
       <use xlink:href="#DejaVuSans-2212"/>
       <use xlink:href="#DejaVuSans-31" x="83.789062"/>
       <use xlink:href="#DejaVuSans-30" x="147.412109"/>
      </g>
     </g>
    </g>
    <g id="ytick_3">
     <g id="line2d_6">
      <g>
       <use xlink:href="#m918e3c5dd1" x="18" y="134.64" style="stroke: #000000; stroke-width: 0.8"/>
      </g>
     </g>
     <g id="text_6">
      <!-- −5 -->
      <g transform="translate(-3.742188 138.439219)scale(0.1 -0.1)">
       <use xlink:href="#DejaVuSans-2212"/>
       <use xlink:href="#DejaVuSans-35" x="83.789062"/>
      </g>
     </g>
    </g>
    <g id="ytick_4">
     <g id="line2d_7">
      <g>
       <use xlink:href="#m918e3c5dd1" x="18" y="107.46" style="stroke: #000000; stroke-width: 0.8"/>
      </g>
     </g>
     <g id="text_7">
      <!-- 0 -->
      <g transform="translate(4.6375 111.259219)scale(0.1 -0.1)">
       <use xlink:href="#DejaVuSans-30"/>
      </g>
     </g>
    </g>
    <g id="ytick_5">
     <g id="line2d_8">
      <g>
       <use xlink:href="#m918e3c5dd1" x="18" y="80.28" style="stroke: #000000; stroke-width: 0.8"/>
      </g>
     </g>
     <g id="text_8">
      <!-- 5 -->
      <g transform="translate(4.6375 84.079219)scale(0.1 -0.1)">
       <use xlink:href="#DejaVuSans-35"/>
      </g>
     </g>
    </g>
    <g id="ytick_6">
     <g id="line2d_9">
      <g>
       <use xlink:href="#m918e3c5dd1" x="18" y="53.1" style="stroke: #000000; stroke-width: 0.8"/>
      </g>
     </g>
     <g id="text_9">
      <!-- 10 -->
      <g transform="translate(-1.725 56.899219)scale(0.1 -0.1)">
       <use xlink:href="#DejaVuSans-31"/>
       <use xlink:href="#DejaVuSans-30" x="63.623047"/>
      </g>
     </g>
    </g>
    <g id="ytick_7">
     <g id="line2d_10">
      <g>
       <use xlink:href="#m918e3c5dd1" x="18" y="25.92" style="stroke: #000000; stroke-width: 0.8"/>
      </g>
     </g>
     <g id="text_10">
      <!-- 15 -->
      <g transform="translate(-1.725 29.719219)scale(0.1 -0.1)">
       <use xlink:href="#DejaVuSans-31"/>
       <use xlink:href="#DejaVuSans-35" x="63.623047"/>
      </g>
     </g>
    </g>
   </g>
   <g id="patch_3">
    <path d="M 18 189 
L 18 25.92 
" style="fill: none; stroke: #000000; stroke-width: 0.8; stroke-linejoin: miter; stroke-linecap: square"/>
   </g>
   <g id="patch_4">
    <path d="M 129.6 189 
L 129.6 25.92 
" style="fill: none; stroke: #000000; stroke-width: 0.8; stroke-linejoin: miter; stroke-linecap: square"/>
   </g>
   <g id="patch_5">
    <path d="M 18 189 
L 129.6 189 
" style="fill: none; stroke: #000000; stroke-width: 0.8; stroke-linejoin: miter; stroke-linecap: square"/>
   </g>
   <g id="patch_6">
    <path d="M 18 25.92 
L 129.6 25.92 
" style="fill: none; stroke: #000000; stroke-width: 0.8; stroke-linejoin: miter; stroke-linecap: square"/>
   </g>
  </g>
 </g>
 <defs>
  <clipPath id="p7084003ae5">
   <rect x="18" y="25.92" width="111.6" height="163.08"/>
  </clipPath>
 </defs>
</svg>
