<?xml version="1.0" encoding="utf-8" standalone="no"?>
<!DOCTYPE svg PUBLIC "-//W3C//DTD SVG 1.1//EN"
  "http://www.w3.org/Graphics/SVG/1.1/DTD/svg11.dtd">
<svg xmlns:xlink="http://www.w3.org/1999/xlink" width="144pt" height="216pt" viewBox="0 0 144 216" xmlns="http://www.w3.org/2000/svg" version="1.1">
 <metadata>
  <rdf:RDF xmlns:dc="http://purl.org/dc/elements/1.1/" xmlns:cc="http://creativecommons.org/ns#" xmlns:rdf="http://www.w3.org/1999/02/22-rdf-syntax-ns#">
   <cc:Work>
    <dc:type rdf:resource="http://purl.org/dc/dcmitype/StillImage"/>
    <dc:date>2022-06-23T14:43:28.008642</dc:date>
    <dc:format>image/svg+xml</dc:format>
    <dc:creator>
     <cc:Agent>
      <dc:title>Matplotlib v3.5.1, https://matplotlib.org/</dc:title>
     </cc:Agent>
    </dc:creator>
   </cc:Work>
  </rdf:RDF>
 </metadata>
 <defs>
  <style type="text/css">*{stroke-linejoin: round; stroke-linecap: butt}</style>
 </defs>
 <g id="figure_1">
  <g id="patch_1">
   <path d="M 0 216 
L 144 216 
L 144 0 
L 0 0 
L 0 216 
z
" style="fill: none"/>
  </g>
  <g id="axes_1">
   <g id="patch_2">
    <path d="M 18 189 
L 129.6 189 
L 129.6 25.92 
L 18 25.92 
z
" style="fill: #ffffff"/>
   </g>
   <g id="PathCollection_1">
    <defs>
     <path id="mc8b8e63f4c" d="M 0 2.738613 
C 0.726289 2.738613 1.422928 2.450055 1.936492 1.936492 
C 2.450055 1.422928 2.738613 0.726289 2.738613 0 
C 2.738613 -0.726289 2.450055 -1.422928 1.936492 -1.936492 
C 1.422928 -2.450055 0.726289 -2.738613 0 -2.738613 
C -0.726289 -2.738613 -1.422928 -2.450055 -1.936492 -1.936492 
C -2.450055 -1.422928 -2.738613 -0.726289 -2.738613 0 
C -2.738613 0.726289 -2.450055 1.422928 -1.936492 1.936492 
C -1.422928 2.450055 -0.726289 2.738613 0 2.738613 
z
" style="stroke: #ff0000; stroke-width: 1.75"/>
    </defs>
    <g clip-path="url(#p16579fe256)">
     <use xlink:href="#mc8b8e63f4c" x="66.825" y="83.92143" style="fill: #ff0000; stroke: #ff0000; stroke-width: 1.75"/>
     <use xlink:href="#mc8b8e63f4c" x="87.75" y="95.690715" style="fill: #ff0000; stroke: #ff0000; stroke-width: 1.75"/>
     <use xlink:href="#mc8b8e63f4c" x="66.825" y="107.46" style="fill: #ff0000; stroke: #ff0000; stroke-width: 1.75"/>
     <use xlink:href="#mc8b8e63f4c" x="73.8" y="119.229285" style="fill: #ff0000; stroke: #ff0000; stroke-width: 1.75"/>
     <use xlink:href="#mc8b8e63f4c" x="87.75" y="119.229285" style="fill: #ff0000; stroke: #ff0000; stroke-width: 1.75"/>
     <use xlink:href="#mc8b8e63f4c" x="66.825" y="130.99857" style="fill: #ff0000; stroke: #ff0000; stroke-width: 1.75"/>
     <use xlink:href="#mc8b8e63f4c" x="80.775" y="130.99857" style="fill: #ff0000; stroke: #ff0000; stroke-width: 1.75"/>
    </g>
   </g>
   <g id="PathCollection_2">
    <defs>
     <path id="C0_0_40df43bec1" d="M 0 2.738613 
C 0.726289 2.738613 1.422928 2.450055 1.936492 1.936492 
C 2.450055 1.422928 2.738613 0.726289 2.738613 -0 
C 2.738613 -0.726289 2.450055 -1.422928 1.936492 -1.936492 
C 1.422928 -2.450055 0.726289 -2.738613 0 -2.738613 
C -0.726289 -2.738613 -1.422928 -2.450055 -1.936492 -1.936492 
C -2.450055 -1.422928 -2.738613 -0.726289 -2.738613 0 
C -2.738613 0.726289 -2.450055 1.422928 -1.936492 1.936492 
C -1.422928 2.450055 -0.726289 2.738613 0 2.738613 
z
"/>
    </defs>
    <g clip-path="url(#p16579fe256)">
     <use xlink:href="#C0_0_40df43bec1" x="80.775" y="83.92143" style="fill: none; stroke: #ff0000; stroke-width: 1.75"/>
    </g>
    <g clip-path="url(#p16579fe256)">
     <use xlink:href="#C0_0_40df43bec1" x="59.85" y="95.690715" style="fill: none; stroke: #ff0000; stroke-width: 1.75"/>
    </g>
    <g clip-path="url(#p16579fe256)">
     <use xlink:href="#C0_0_40df43bec1" x="73.8" y="95.690715" style="fill: none; stroke: #ff0000; stroke-width: 1.75"/>
    </g>
    <g clip-path="url(#p16579fe256)">
     <use xlink:href="#C0_0_40df43bec1" x="52.875" y="107.46" style="fill: none; stroke: #ff0000; stroke-width: 1.75"/>
    </g>
    <g clip-path="url(#p16579fe256)">
     <use xlink:href="#C0_0_40df43bec1" x="80.775" y="107.46" style="fill: none; stroke: #ff0000; stroke-width: 1.75"/>
    </g>
    <g clip-path="url(#p16579fe256)">
     <use xlink:href="#C0_0_40df43bec1" x="94.725" y="107.46" style="fill: none; stroke: #ff0000; stroke-width: 1.75"/>
    </g>
    <g clip-path="url(#p16579fe256)">
     <use xlink:href="#C0_0_40df43bec1" x="59.85" y="119.229285" style="fill: none; stroke: #ff0000; stroke-width: 1.75"/>
    </g>
   </g>
   <g id="PathCollection_3">
    <path d="M 98.008779 109.44617 
C 98.56247 109.44617 99.093557 109.226187 99.485075 108.834668 
C 99.876593 108.44315 100.096577 107.912063 100.096577 107.358373 
C 100.096577 106.804682 99.876593 106.273595 99.485075 105.882077 
C 99.093557 105.490558 98.56247 105.270575 98.008779 105.270575 
C 97.455089 105.270575 96.924002 105.490558 96.532483 105.882077 
C 96.140965 106.273595 95.920982 106.804682 95.920982 107.358373 
C 95.920982 107.912063 96.140965 108.44315 96.532483 108.834668 
C 96.924002 109.226187 97.455089 109.44617 98.008779 109.44617 
z
" clip-path="url(#p16579fe256)" style="stroke: #000000"/>
    <path d="M 92.926597 116.821712 
C 93.059198 116.821712 93.186387 116.769029 93.28015 116.675265 
C 93.373914 116.581502 93.426597 116.454313 93.426597 116.321712 
C 93.426597 116.18911 93.373914 116.061922 93.28015 115.968158 
C 93.186387 115.874395 93.059198 115.821712 92.926597 115.821712 
C 92.793995 115.821712 92.666807 115.874395 92.573044 115.968158 
C 92.47928 116.061922 92.426597 116.18911 92.426597 116.321712 
C 92.426597 116.454313 92.47928 116.581502 92.573044 116.675265 
C 92.666807 116.769029 92.793995 116.821712 92.926597 116.821712 
z
" clip-path="url(#p16579fe256)" style="stroke: #000000"/>
    <path d="M 91.201616 111.446039 
C 91.478461 111.446039 91.744005 111.336047 91.939764 111.140288 
C 92.135523 110.944529 92.245515 110.678986 92.245515 110.40214 
C 92.245515 110.125295 92.135523 109.859751 91.939764 109.663992 
C 91.744005 109.468233 91.478461 109.358241 91.201616 109.358241 
C 90.924771 109.358241 90.659227 109.468233 90.463468 109.663992 
C 90.267709 109.859751 90.157717 110.125295 90.157717 110.40214 
C 90.157717 110.678986 90.267709 110.944529 90.463468 111.140288 
C 90.659227 111.336047 90.924771 111.446039 91.201616 111.446039 
z
" clip-path="url(#p16579fe256)" style="stroke: #000000"/>
    <path d="M 84.753346 98.745881 
C 85.274718 98.745881 85.774807 98.538738 86.143473 98.170072 
C 86.512139 97.801406 86.719282 97.301317 86.719282 96.779945 
C 86.719282 96.258572 86.512139 95.758484 86.143473 95.389818 
C 85.774807 95.021152 85.274718 94.814008 84.753346 94.814008 
C 84.231974 94.814008 83.731885 95.021152 83.363219 95.389818 
C 82.994553 95.758484 82.787409 96.258572 82.787409 96.779945 
C 82.787409 97.301317 82.994553 97.801406 83.363219 98.170072 
C 83.731885 98.538738 84.231974 98.745881 84.753346 98.745881 
z
" clip-path="url(#p16579fe256)" style="stroke: #000000"/>
    <path d="M 81.552985 86.831179 
C 82.08183 86.831179 82.589087 86.621067 82.963037 86.247117 
C 83.336987 85.873167 83.547099 85.36591 83.547099 84.837065 
C 83.547099 84.308219 83.336987 83.800963 82.963037 83.427013 
C 82.589087 83.053063 82.08183 82.84295 81.552985 82.84295 
C 81.024139 82.84295 80.516883 83.053063 80.142933 83.427013 
C 79.768982 83.800963 79.55887 84.308219 79.55887 84.837065 
C 79.55887 85.36591 79.768982 85.873167 80.142933 86.247117 
C 80.516883 86.621067 81.024139 86.831179 81.552985 86.831179 
z
" clip-path="url(#p16579fe256)" style="stroke: #000000"/>
    <path d="M 83.488968 83.38941 
C 83.880486 83.38941 84.256021 83.233858 84.532867 82.957013 
C 84.809712 82.680168 84.965264 82.304633 84.965264 81.913114 
C 84.965264 81.521596 84.809712 81.146061 84.532867 80.869216 
C 84.256021 80.59237 83.880486 80.436819 83.488968 80.436819 
C 83.09745 80.436819 82.721914 80.59237 82.445069 80.869216 
C 82.168224 81.146061 82.012672 81.521596 82.012672 81.913114 
C 82.012672 82.304633 82.168224 82.680168 82.445069 82.957013 
C 82.721914 83.233858 83.09745 83.38941 83.488968 83.38941 
z
" clip-path="url(#p16579fe256)" style="stroke: #000000"/>
    <path d="M 87.156478 120.817618 
C 87.768565 120.817618 88.355664 120.574434 88.788474 120.141624 
C 89.221284 119.708813 89.464469 119.121714 89.464469 118.509628 
C 89.464469 117.897542 89.221284 117.310443 88.788474 116.877633 
C 88.355664 116.444822 87.768565 116.201638 87.156478 116.201638 
C 86.544392 116.201638 85.957293 116.444822 85.524483 116.877633 
C 85.091673 117.310443 84.848488 117.897542 84.848488 118.509628 
C 84.848488 119.121714 85.091673 119.708813 85.524483 120.141624 
C 85.957293 120.574434 86.544392 120.817618 87.156478 120.817618 
z
" clip-path="url(#p16579fe256)" style="stroke: #000000"/>
    <path d="M 82.87718 106.830143 
C 83.304649 106.830143 83.714667 106.660308 84.016933 106.358042 
C 84.319199 106.055776 84.489035 105.645757 84.489035 105.218288 
C 84.489035 104.79082 84.319199 104.380801 84.016933 104.078535 
C 83.714667 103.776269 83.304649 103.606434 82.87718 103.606434 
C 82.449711 103.606434 82.039692 103.776269 81.737426 104.078535 
C 81.43516 104.380801 81.265325 104.79082 81.265325 105.218288 
C 81.265325 105.645757 81.43516 106.055776 81.737426 106.358042 
C 82.039692 106.660308 82.449711 106.830143 82.87718 106.830143 
z
" clip-path="url(#p16579fe256)" style="stroke: #000000"/>
    <path d="M 75.300486 95.515401 
C 75.770611 95.515401 76.221543 95.328619 76.553972 94.99619 
C 76.8864 94.663762 77.073182 94.212829 77.073182 93.742705 
C 77.073182 93.27258 76.8864 92.821648 76.553972 92.48922 
C 76.221543 92.156791 75.770611 91.970009 75.300486 91.970009 
C 74.830362 91.970009 74.379429 92.156791 74.047001 92.48922 
C 73.714573 92.821648 73.52779 93.27258 73.52779 93.742705 
C 73.52779 94.212829 73.714573 94.663762 74.047001 94.99619 
C 74.379429 95.328619 74.830362 95.515401 75.300486 95.515401 
z
" clip-path="url(#p16579fe256)" style="stroke: #000000"/>
    <path d="M 76.444142 86.684848 
C 76.775513 86.684848 77.093357 86.553193 77.327671 86.318878 
C 77.561986 86.084563 77.693641 85.766719 77.693641 85.435348 
C 77.693641 85.103977 77.561986 84.786133 77.327671 84.551818 
C 77.093357 84.317503 76.775513 84.185848 76.444142 84.185848 
C 76.11277 84.185848 75.794927 84.317503 75.560612 84.551818 
C 75.326297 84.786133 75.194642 85.103977 75.194642 85.435348 
C 75.194642 85.766719 75.326297 86.084563 75.560612 86.318878 
C 75.794927 86.553193 76.11277 86.684848 76.444142 86.684848 
z
" clip-path="url(#p16579fe256)" style="stroke: #000000"/>
    <path d="M 84.274408 134.509852 
C 84.40701 134.509852 84.534198 134.457168 84.627962 134.363405 
C 84.721725 134.269642 84.774408 134.142453 84.774408 134.009852 
C 84.774408 133.87725 84.721725 133.750062 84.627962 133.656298 
C 84.534198 133.562535 84.40701 133.509852 84.274408 133.509852 
C 84.141807 133.509852 84.014618 133.562535 83.920855 133.656298 
C 83.827091 133.750062 83.774408 133.87725 83.774408 134.009852 
C 83.774408 134.142453 83.827091 134.269642 83.920855 134.363405 
C 84.014618 134.457168 84.141807 134.509852 84.274408 134.509852 
z
" clip-path="url(#p16579fe256)" style="stroke: #000000"/>
    <path d="M 83.85413 127.181559 
C 83.986732 127.181559 84.11392 127.128875 84.207684 127.035112 
C 84.301447 126.941349 84.35413 126.81416 84.35413 126.681559 
C 84.35413 126.548957 84.301447 126.421769 84.207684 126.328005 
C 84.11392 126.234242 83.986732 126.181559 83.85413 126.181559 
C 83.721529 126.181559 83.59434 126.234242 83.500577 126.328005 
C 83.406813 126.421769 83.35413 126.548957 83.35413 126.681559 
C 83.35413 126.81416 83.406813 126.941349 83.500577 127.035112 
C 83.59434 127.128875 83.721529 127.181559 83.85413 127.181559 
z
" clip-path="url(#p16579fe256)" style="stroke: #000000"/>
    <path d="M 74.191025 98.033269 
C 74.704017 98.033269 75.196068 97.829456 75.558808 97.466715 
C 75.921548 97.103975 76.125362 96.611925 76.125362 96.098933 
C 76.125362 95.585941 75.921548 95.093891 75.558808 94.731151 
C 75.196068 94.368411 74.704017 94.164597 74.191025 94.164597 
C 73.678033 94.164597 73.185983 94.368411 72.823243 94.731151 
C 72.460503 95.093891 72.256689 95.585941 72.256689 96.098933 
C 72.256689 96.611925 72.460503 97.103975 72.823243 97.466715 
C 73.185983 97.829456 73.678033 98.033269 74.191025 98.033269 
z
" clip-path="url(#p16579fe256)" style="stroke: #000000"/>
    <path d="M 67.726982 87.831131 
C 68.293429 87.831131 68.836753 87.606079 69.237292 87.20554 
C 69.63783 86.805001 69.862882 86.261678 69.862882 85.69523 
C 69.862882 85.128783 69.63783 84.585459 69.237292 84.18492 
C 68.836753 83.784382 68.293429 83.55933 67.726982 83.55933 
C 67.160534 83.55933 66.617211 83.784382 66.216672 84.18492 
C 65.816133 84.585459 65.591081 85.128783 65.591081 85.69523 
C 65.591081 86.261678 65.816133 86.805001 66.216672 87.20554 
C 66.617211 87.606079 67.160534 87.831131 67.726982 87.831131 
z
" clip-path="url(#p16579fe256)" style="stroke: #000000"/>
    <path d="M 76.969601 130.503817 
C 77.325683 130.503817 77.667228 130.362344 77.919016 130.110556 
C 78.170803 129.858769 78.312276 129.517224 78.312276 129.161142 
C 78.312276 128.805061 78.170803 128.463515 77.919016 128.211728 
C 77.667228 127.95994 77.325683 127.818467 76.969601 127.818467 
C 76.61352 127.818467 76.271974 127.95994 76.020187 128.211728 
C 75.768399 128.463515 75.626926 128.805061 75.626926 129.161142 
C 75.626926 129.517224 75.768399 129.858769 76.020187 130.110556 
C 76.271974 130.362344 76.61352 130.503817 76.969601 130.503817 
z
" clip-path="url(#p16579fe256)" style="stroke: #000000"/>
    <path d="M 74.348924 124.355728 
C 74.697951 124.355728 75.032729 124.217058 75.279528 123.970259 
C 75.526328 123.723459 75.664998 123.388681 75.664998 123.039654 
C 75.664998 122.690627 75.526328 122.355848 75.279528 122.109049 
C 75.032729 121.86225 74.697951 121.72358 74.348924 121.72358 
C 73.999897 121.72358 73.665118 121.86225 73.418319 122.109049 
C 73.171519 122.355848 73.03285 122.690627 73.03285 123.039654 
C 73.03285 123.388681 73.171519 123.723459 73.418319 123.970259 
C 73.665118 124.217058 73.999897 124.355728 74.348924 124.355728 
z
" clip-path="url(#p16579fe256)" style="stroke: #000000"/>
    <path d="M 73.674052 117.278825 
C 74.005423 117.278825 74.323267 117.14717 74.557582 116.912855 
C 74.791897 116.67854 74.923552 116.360696 74.923552 116.029325 
C 74.923552 115.697954 74.791897 115.38011 74.557582 115.145795 
C 74.323267 114.911481 74.005423 114.779825 73.674052 114.779825 
C 73.342681 114.779825 73.024837 114.911481 72.790523 115.145795 
C 72.556208 115.38011 72.424553 115.697954 72.424553 116.029325 
C 72.424553 116.360696 72.556208 116.67854 72.790523 116.912855 
C 73.024837 117.14717 73.342681 117.278825 73.674052 117.278825 
z
" clip-path="url(#p16579fe256)" style="stroke: #000000"/>
    <path d="M 62.343992 87.496105 
C 62.579795 87.496105 62.805971 87.40242 62.972709 87.235682 
C 63.139447 87.068944 63.233132 86.842768 63.233132 86.606965 
C 63.233132 86.371163 63.139447 86.144986 62.972709 85.978249 
C 62.805971 85.811511 62.579795 85.717826 62.343992 85.717826 
C 62.10819 85.717826 61.882013 85.811511 61.715276 85.978249 
C 61.548538 86.144986 61.454853 86.371163 61.454853 86.606965 
C 61.454853 86.842768 61.548538 87.068944 61.715276 87.235682 
C 61.882013 87.40242 62.10819 87.496105 62.343992 87.496105 
z
" clip-path="url(#p16579fe256)" style="stroke: #000000"/>
    <path d="M 71.797972 129.992732 
C 71.930574 129.992732 72.057762 129.940049 72.151526 129.846285 
C 72.245289 129.752522 72.297972 129.625333 72.297972 129.492732 
C 72.297972 129.36013 72.245289 129.232942 72.151526 129.139178 
C 72.057762 129.045415 71.930574 128.992732 71.797972 128.992732 
C 71.665371 128.992732 71.538182 129.045415 71.444419 129.139178 
C 71.350655 129.232942 71.297972 129.36013 71.297972 129.492732 
C 71.297972 129.625333 71.350655 129.752522 71.444419 129.846285 
C 71.538182 129.940049 71.665371 129.992732 71.797972 129.992732 
z
" clip-path="url(#p16579fe256)" style="stroke: #000000"/>
    <path d="M 58.760401 101.331974 
C 59.037247 101.331974 59.30279 101.221982 59.498549 101.026223 
C 59.694308 100.830464 59.8043 100.56492 59.8043 100.288075 
C 59.8043 100.01123 59.694308 99.745686 59.498549 99.549927 
C 59.30279 99.354168 59.037247 99.244176 58.760401 99.244176 
C 58.483556 99.244176 58.218013 99.354168 58.022253 99.549927 
C 57.826494 99.745686 57.716503 100.01123 57.716503 100.288075 
C 57.716503 100.56492 57.826494 100.830464 58.022253 101.026223 
C 58.218013 101.221982 58.483556 101.331974 58.760401 101.331974 
z
" clip-path="url(#p16579fe256)" style="stroke: #000000"/>
    <path d="M 55.790045 95.929788 
C 56.083541 95.929788 56.365055 95.813181 56.572588 95.605648 
C 56.78012 95.398115 56.896727 95.116601 56.896727 94.823106 
C 56.896727 94.52961 56.78012 94.248096 56.572588 94.040563 
C 56.365055 93.833031 56.083541 93.716424 55.790045 93.716424 
C 55.49655 93.716424 55.215036 93.833031 55.007503 94.040563 
C 54.79997 94.248096 54.683363 94.52961 54.683363 94.823106 
C 54.683363 95.116601 54.79997 95.398115 55.007503 95.605648 
C 55.215036 95.813181 55.49655 95.929788 55.790045 95.929788 
z
" clip-path="url(#p16579fe256)" style="stroke: #000000"/>
    <path d="M 64.24106 133.899801 
C 64.779566 133.899801 65.296089 133.68585 65.676871 133.305069 
C 66.057652 132.924287 66.271603 132.407764 66.271603 131.869258 
C 66.271603 131.330751 66.057652 130.814228 65.676871 130.433447 
C 65.296089 130.052665 64.779566 129.838714 64.24106 129.838714 
C 63.702554 129.838714 63.186031 130.052665 62.805249 130.433447 
C 62.424468 130.814228 62.210517 131.330751 62.210517 131.869258 
C 62.210517 132.407764 62.424468 132.924287 62.805249 133.305069 
C 63.186031 133.68585 63.702554 133.899801 64.24106 133.899801 
z
" clip-path="url(#p16579fe256)" style="stroke: #000000"/>
    <path d="M 59.068395 123.411284 
C 59.616069 123.411284 60.141385 123.193691 60.528649 122.806427 
C 60.915912 122.419163 61.133505 121.893847 61.133505 121.346174 
C 61.133505 120.7985 60.915912 120.273184 60.528649 119.88592 
C 60.141385 119.498656 59.616069 119.281063 59.068395 119.281063 
C 58.520722 119.281063 57.995405 119.498656 57.608142 119.88592 
C 57.220878 120.273184 57.003285 120.7985 57.003285 121.346174 
C 57.003285 121.893847 57.220878 122.419163 57.608142 122.806427 
C 57.995405 123.193691 58.520722 123.411284 59.068395 123.411284 
z
" clip-path="url(#p16579fe256)" style="stroke: #000000"/>
    <path d="M 59.717937 118.683826 
C 60.224512 118.683826 60.710407 118.482562 61.068609 118.124359 
C 61.426812 117.766157 61.628076 117.280262 61.628076 116.773687 
C 61.628076 116.267113 61.426812 115.781218 61.068609 115.423015 
C 60.710407 115.064813 60.224512 114.863549 59.717937 114.863549 
C 59.211363 114.863549 58.725468 115.064813 58.367265 115.423015 
C 58.009063 115.781218 57.807799 116.267113 57.807799 116.773687 
C 57.807799 117.280262 58.009063 117.766157 58.367265 118.124359 
C 58.725468 118.482562 59.211363 118.683826 59.717937 118.683826 
z
" clip-path="url(#p16579fe256)" style="stroke: #000000"/>
    <path d="M 54.696897 112.029273 
C 55.021703 112.029273 55.33325 111.900226 55.562922 111.670554 
C 55.792595 111.440881 55.921642 111.129334 55.921642 110.804528 
C 55.921642 110.479722 55.792595 110.168175 55.562922 109.938503 
C 55.33325 109.70883 55.021703 109.579783 54.696897 109.579783 
C 54.372091 109.579783 54.060544 109.70883 53.830871 109.938503 
C 53.601199 110.168175 53.472152 110.479722 53.472152 110.804528 
C 53.472152 111.129334 53.601199 111.440881 53.830871 111.670554 
C 54.060544 111.900226 54.372091 112.029273 54.696897 112.029273 
z
" clip-path="url(#p16579fe256)" style="stroke: #000000"/>
    <path d="M 51.49129 103.081881 
C 51.623891 103.081881 51.75108 103.029198 51.844843 102.935435 
C 51.938607 102.841671 51.99129 102.714483 51.99129 102.581881 
C 51.99129 102.44928 51.938607 102.322091 51.844843 102.228328 
C 51.75108 102.134564 51.623891 102.081881 51.49129 102.081881 
C 51.358688 102.081881 51.2315 102.134564 51.137737 102.228328 
C 51.043973 102.322091 50.99129 102.44928 50.99129 102.581881 
C 50.99129 102.714483 51.043973 102.841671 51.137737 102.935435 
C 51.2315 103.029198 51.358688 103.081881 51.49129 103.081881 
z
" clip-path="url(#p16579fe256)" style="stroke: #000000"/>
    <path d="M 47.400257 105.992591 
C 47.587784 105.992591 47.767656 105.918086 47.900257 105.785484 
C 48.032859 105.652882 48.107364 105.473011 48.107364 105.285484 
C 48.107364 105.097957 48.032859 104.918086 47.900257 104.785484 
C 47.767656 104.652882 47.587784 104.578377 47.400257 104.578377 
C 47.21273 104.578377 47.032859 104.652882 46.900257 104.785484 
C 46.767656 104.918086 46.69315 105.097957 46.69315 105.285484 
C 46.69315 105.473011 46.767656 105.652882 46.900257 105.785484 
C 47.032859 105.918086 47.21273 105.992591 47.400257 105.992591 
z
" clip-path="url(#p16579fe256)" style="stroke: #000000"/>
   </g>
   <g id="matplotlib.axis_1">
    <g id="xtick_1">
     <g id="line2d_1">
      <defs>
       <path id="mc9c19f8594" d="M 0 0 
L 0 3.5 
" style="stroke: #000000; stroke-width: 0.8"/>
      </defs>
      <g>
       <use xlink:href="#mc9c19f8594" x="18" y="189" style="stroke: #000000; stroke-width: 0.8"/>
      </g>
     </g>
     <g id="text_1">
      <!-- −10 -->
      <g transform="translate(7.447656 203.598437)scale(0.1 -0.1)">
       <defs>
        <path id="DejaVuSans-2212" d="M 678 2272 
L 4684 2272 
L 4684 1741 
L 678 1741 
L 678 2272 
z
" transform="scale(0.015625)"/>
        <path id="DejaVuSans-31" d="M 794 531 
L 1825 531 
L 1825 4091 
L 703 3866 
L 703 4441 
L 1819 4666 
L 2450 4666 
L 2450 531 
L 3481 531 
L 3481 0 
L 794 0 
L 794 531 
z
" transform="scale(0.015625)"/>
        <path id="DejaVuSans-30" d="M 2034 4250 
Q 1547 4250 1301 3770 
Q 1056 3291 1056 2328 
Q 1056 1369 1301 889 
Q 1547 409 2034 409 
Q 2525 409 2770 889 
Q 3016 1369 3016 2328 
Q 3016 3291 2770 3770 
Q 2525 4250 2034 4250 
z
M 2034 4750 
Q 2819 4750 3233 4129 
Q 3647 3509 3647 2328 
Q 3647 1150 3233 529 
Q 2819 -91 2034 -91 
Q 1250 -91 836 529 
Q 422 1150 422 2328 
Q 422 3509 836 4129 
Q 1250 4750 2034 4750 
z
" transform="scale(0.015625)"/>
       </defs>
       <use xlink:href="#DejaVuSans-2212"/>
       <use xlink:href="#DejaVuSans-31" x="83.789062"/>
       <use xlink:href="#DejaVuSans-30" x="147.412109"/>
      </g>
     </g>
    </g>
    <g id="xtick_2">
     <g id="line2d_2">
      <g>
       <use xlink:href="#mc9c19f8594" x="73.8" y="189" style="stroke: #000000; stroke-width: 0.8"/>
      </g>
     </g>
     <g id="text_2">
      <!-- 0 -->
      <g transform="translate(70.61875 203.598437)scale(0.1 -0.1)">
       <use xlink:href="#DejaVuSans-30"/>
      </g>
     </g>
    </g>
    <g id="xtick_3">
     <g id="line2d_3">
      <g>
       <use xlink:href="#mc9c19f8594" x="129.6" y="189" style="stroke: #000000; stroke-width: 0.8"/>
      </g>
     </g>
     <g id="text_3">
      <!-- 10 -->
      <g transform="translate(123.2375 203.598437)scale(0.1 -0.1)">
       <use xlink:href="#DejaVuSans-31"/>
       <use xlink:href="#DejaVuSans-30" x="63.623047"/>
      </g>
     </g>
    </g>
   </g>
   <g id="matplotlib.axis_2">
    <g id="ytick_1">
     <g id="line2d_4">
      <defs>
       <path id="m39f27b9cbd" d="M 0 0 
L -3.5 0 
" style="stroke: #000000; stroke-width: 0.8"/>
      </defs>
      <g>
       <use xlink:href="#m39f27b9cbd" x="18" y="189" style="stroke: #000000; stroke-width: 0.8"/>
      </g>
     </g>
     <g id="text_4">
      <!-- −15 -->
      <g transform="translate(-10.104688 192.799219)scale(0.1 -0.1)">
       <defs>
        <path id="DejaVuSans-35" d="M 691 4666 
L 3169 4666 
L 3169 4134 
L 1269 4134 
L 1269 2991 
Q 1406 3038 1543 3061 
Q 1681 3084 1819 3084 
Q 2600 3084 3056 2656 
Q 3513 2228 3513 1497 
Q 3513 744 3044 326 
Q 2575 -91 1722 -91 
Q 1428 -91 1123 -41 
Q 819 9 494 109 
L 494 744 
Q 775 591 1075 516 
Q 1375 441 1709 441 
Q 2250 441 2565 725 
Q 2881 1009 2881 1497 
Q 2881 1984 2565 2268 
Q 2250 2553 1709 2553 
Q 1456 2553 1204 2497 
Q 953 2441 691 2322 
L 691 4666 
z
" transform="scale(0.015625)"/>
       </defs>
       <use xlink:href="#DejaVuSans-2212"/>
       <use xlink:href="#DejaVuSans-31" x="83.789062"/>
       <use xlink:href="#DejaVuSans-35" x="147.412109"/>
      </g>
     </g>
    </g>
    <g id="ytick_2">
     <g id="line2d_5">
      <g>
       <use xlink:href="#m39f27b9cbd" x="18" y="161.82" style="stroke: #000000; stroke-width: 0.8"/>
      </g>
     </g>
     <g id="text_5">
      <!-- −10 -->
      <g transform="translate(-10.104688 165.619219)scale(0.1 -0.1)">
       <use xlink:href="#DejaVuSans-2212"/>
       <use xlink:href="#DejaVuSans-31" x="83.789062"/>
       <use xlink:href="#DejaVuSans-30" x="147.412109"/>
      </g>
     </g>
    </g>
    <g id="ytick_3">
     <g id="line2d_6">
      <g>
       <use xlink:href="#m39f27b9cbd" x="18" y="134.64" style="stroke: #000000; stroke-width: 0.8"/>
      </g>
     </g>
     <g id="text_6">
      <!-- −5 -->
      <g transform="translate(-3.742188 138.439219)scale(0.1 -0.1)">
       <use xlink:href="#DejaVuSans-2212"/>
       <use xlink:href="#DejaVuSans-35" x="83.789062"/>
      </g>
     </g>
    </g>
    <g id="ytick_4">
     <g id="line2d_7">
      <g>
       <use xlink:href="#m39f27b9cbd" x="18" y="107.46" style="stroke: #000000; stroke-width: 0.8"/>
      </g>
     </g>
     <g id="text_7">
      <!-- 0 -->
      <g transform="translate(4.6375 111.259219)scale(0.1 -0.1)">
       <use xlink:href="#DejaVuSans-30"/>
      </g>
     </g>
    </g>
    <g id="ytick_5">
     <g id="line2d_8">
      <g>
       <use xlink:href="#m39f27b9cbd" x="18" y="80.28" style="stroke: #000000; stroke-width: 0.8"/>
      </g>
     </g>
     <g id="text_8">
      <!-- 5 -->
      <g transform="translate(4.6375 84.079219)scale(0.1 -0.1)">
       <use xlink:href="#DejaVuSans-35"/>
      </g>
     </g>
    </g>
    <g id="ytick_6">
     <g id="line2d_9">
      <g>
       <use xlink:href="#m39f27b9cbd" x="18" y="53.1" style="stroke: #000000; stroke-width: 0.8"/>
      </g>
     </g>
     <g id="text_9">
      <!-- 10 -->
      <g transform="translate(-1.725 56.899219)scale(0.1 -0.1)">
       <use xlink:href="#DejaVuSans-31"/>
       <use xlink:href="#DejaVuSans-30" x="63.623047"/>
      </g>
     </g>
    </g>
    <g id="ytick_7">
     <g id="line2d_10">
      <g>
       <use xlink:href="#m39f27b9cbd" x="18" y="25.92" style="stroke: #000000; stroke-width: 0.8"/>
      </g>
     </g>
     <g id="text_10">
      <!-- 15 -->
      <g transform="translate(-1.725 29.719219)scale(0.1 -0.1)">
       <use xlink:href="#DejaVuSans-31"/>
       <use xlink:href="#DejaVuSans-35" x="63.623047"/>
      </g>
     </g>
    </g>
   </g>
   <g id="patch_3">
    <path d="M 18 189 
L 18 25.92 
" style="fill: none; stroke: #000000; stroke-width: 0.8; stroke-linejoin: miter; stroke-linecap: square"/>
   </g>
   <g id="patch_4">
    <path d="M 129.6 189 
L 129.6 25.92 
" style="fill: none; stroke: #000000; stroke-width: 0.8; stroke-linejoin: miter; stroke-linecap: square"/>
   </g>
   <g id="patch_5">
    <path d="M 18 189 
L 129.6 189 
" style="fill: none; stroke: #000000; stroke-width: 0.8; stroke-linejoin: miter; stroke-linecap: square"/>
   </g>
   <g id="patch_6">
    <path d="M 18 25.92 
L 129.6 25.92 
" style="fill: none; stroke: #000000; stroke-width: 0.8; stroke-linejoin: miter; stroke-linecap: square"/>
   </g>
  </g>
 </g>
 <defs>
  <clipPath id="p16579fe256">
   <rect x="18" y="25.92" width="111.6" height="163.08"/>
  </clipPath>
 </defs>
</svg>
