<?xml version="1.0" encoding="utf-8" standalone="no"?>
<!DOCTYPE svg PUBLIC "-//W3C//DTD SVG 1.1//EN"
  "http://www.w3.org/Graphics/SVG/1.1/DTD/svg11.dtd">
<svg xmlns:xlink="http://www.w3.org/1999/xlink" width="144pt" height="216pt" viewBox="0 0 144 216" xmlns="http://www.w3.org/2000/svg" version="1.1">
 <metadata>
  <rdf:RDF xmlns:dc="http://purl.org/dc/elements/1.1/" xmlns:cc="http://creativecommons.org/ns#" xmlns:rdf="http://www.w3.org/1999/02/22-rdf-syntax-ns#">
   <cc:Work>
    <dc:type rdf:resource="http://purl.org/dc/dcmitype/StillImage"/>
    <dc:date>2022-06-23T14:46:31.050304</dc:date>
    <dc:format>image/svg+xml</dc:format>
    <dc:creator>
     <cc:Agent>
      <dc:title>Matplotlib v3.5.1, https://matplotlib.org/</dc:title>
     </cc:Agent>
    </dc:creator>
   </cc:Work>
  </rdf:RDF>
 </metadata>
 <defs>
  <style type="text/css">*{stroke-linejoin: round; stroke-linecap: butt}</style>
 </defs>
 <g id="figure_1">
  <g id="patch_1">
   <path d="M 0 216 
L 144 216 
L 144 0 
L 0 0 
L 0 216 
z
" style="fill: none"/>
  </g>
  <g id="axes_1">
   <g id="patch_2">
    <path d="M 18 189 
L 129.6 189 
L 129.6 25.92 
L 18 25.92 
z
" style="fill: #ffffff"/>
   </g>
   <g id="PathCollection_1">
    <defs>
     <path id="m1476a1111e" d="M 0 2.738613 
C 0.726289 2.738613 1.422928 2.450055 1.936492 1.936492 
C 2.450055 1.422928 2.738613 0.726289 2.738613 0 
C 2.738613 -0.726289 2.450055 -1.422928 1.936492 -1.936492 
C 1.422928 -2.450055 0.726289 -2.738613 0 -2.738613 
C -0.726289 -2.738613 -1.422928 -2.450055 -1.936492 -1.936492 
C -2.450055 -1.422928 -2.738613 -0.726289 -2.738613 0 
C -2.738613 0.726289 -2.450055 1.422928 -1.936492 1.936492 
C -1.422928 2.450055 -0.726289 2.738613 0 2.738613 
z
" style="stroke: #ff0000; stroke-width: 1.75"/>
    </defs>
    <g clip-path="url(#p9fa2e8f75c)">
     <use xlink:href="#m1476a1111e" x="66.825" y="83.92143" style="fill: #ff0000; stroke: #ff0000; stroke-width: 1.75"/>
     <use xlink:href="#m1476a1111e" x="87.75" y="95.690715" style="fill: #ff0000; stroke: #ff0000; stroke-width: 1.75"/>
     <use xlink:href="#m1476a1111e" x="66.825" y="107.46" style="fill: #ff0000; stroke: #ff0000; stroke-width: 1.75"/>
     <use xlink:href="#m1476a1111e" x="73.8" y="119.229285" style="fill: #ff0000; stroke: #ff0000; stroke-width: 1.75"/>
     <use xlink:href="#m1476a1111e" x="87.75" y="119.229285" style="fill: #ff0000; stroke: #ff0000; stroke-width: 1.75"/>
     <use xlink:href="#m1476a1111e" x="66.825" y="130.99857" style="fill: #ff0000; stroke: #ff0000; stroke-width: 1.75"/>
     <use xlink:href="#m1476a1111e" x="80.775" y="130.99857" style="fill: #ff0000; stroke: #ff0000; stroke-width: 1.75"/>
    </g>
   </g>
   <g id="PathCollection_2">
    <defs>
     <path id="C0_0_069ed0eb5f" d="M 0 2.738613 
C 0.726289 2.738613 1.422928 2.450055 1.936492 1.936492 
C 2.450055 1.422928 2.738613 0.726289 2.738613 -0 
C 2.738613 -0.726289 2.450055 -1.422928 1.936492 -1.936492 
C 1.422928 -2.450055 0.726289 -2.738613 0 -2.738613 
C -0.726289 -2.738613 -1.422928 -2.450055 -1.936492 -1.936492 
C -2.450055 -1.422928 -2.738613 -0.726289 -2.738613 0 
C -2.738613 0.726289 -2.450055 1.422928 -1.936492 1.936492 
C -1.422928 2.450055 -0.726289 2.738613 0 2.738613 
z
"/>
    </defs>
    <g clip-path="url(#p9fa2e8f75c)">
     <use xlink:href="#C0_0_069ed0eb5f" x="80.775" y="83.92143" style="fill: none; stroke: #ff0000; stroke-width: 1.75"/>
    </g>
    <g clip-path="url(#p9fa2e8f75c)">
     <use xlink:href="#C0_0_069ed0eb5f" x="59.85" y="95.690715" style="fill: none; stroke: #ff0000; stroke-width: 1.75"/>
    </g>
    <g clip-path="url(#p9fa2e8f75c)">
     <use xlink:href="#C0_0_069ed0eb5f" x="73.8" y="95.690715" style="fill: none; stroke: #ff0000; stroke-width: 1.75"/>
    </g>
    <g clip-path="url(#p9fa2e8f75c)">
     <use xlink:href="#C0_0_069ed0eb5f" x="52.875" y="107.46" style="fill: none; stroke: #ff0000; stroke-width: 1.75"/>
    </g>
    <g clip-path="url(#p9fa2e8f75c)">
     <use xlink:href="#C0_0_069ed0eb5f" x="80.775" y="107.46" style="fill: none; stroke: #ff0000; stroke-width: 1.75"/>
    </g>
    <g clip-path="url(#p9fa2e8f75c)">
     <use xlink:href="#C0_0_069ed0eb5f" x="94.725" y="107.46" style="fill: none; stroke: #ff0000; stroke-width: 1.75"/>
    </g>
    <g clip-path="url(#p9fa2e8f75c)">
     <use xlink:href="#C0_0_069ed0eb5f" x="59.85" y="119.229285" style="fill: none; stroke: #ff0000; stroke-width: 1.75"/>
    </g>
   </g>
   <g id="PathCollection_3">
    <path d="M 82.792255 47.548154 
C 82.924857 47.548154 83.052045 47.495471 83.145808 47.401707 
C 83.239572 47.307944 83.292255 47.180755 83.292255 47.048154 
C 83.292255 46.915552 83.239572 46.788364 83.145808 46.6946 
C 83.052045 46.600837 82.924857 46.548154 82.792255 46.548154 
C 82.659653 46.548154 82.532465 46.600837 82.438702 46.6946 
C 82.344938 46.788364 82.292255 46.915552 82.292255 47.048154 
C 82.292255 47.180755 82.344938 47.307944 82.438702 47.401707 
C 82.532465 47.495471 82.659653 47.548154 82.792255 47.548154 
z
" clip-path="url(#p9fa2e8f75c)" style="stroke: #000000"/>
    <path d="M 90.380371 92.953248 
C 90.554884 92.953248 90.722274 92.883913 90.845673 92.760513 
C 90.969073 92.637114 91.038408 92.469725 91.038408 92.295211 
C 91.038408 92.120698 90.969073 91.953308 90.845673 91.829909 
C 90.722274 91.706509 90.554884 91.637174 90.380371 91.637174 
C 90.205858 91.637174 90.038468 91.706509 89.915069 91.829909 
C 89.791669 91.953308 89.722334 92.120698 89.722334 92.295211 
C 89.722334 92.469725 89.791669 92.637114 89.915069 92.760513 
C 90.038468 92.883913 90.205858 92.953248 90.380371 92.953248 
z
" clip-path="url(#p9fa2e8f75c)" style="stroke: #000000"/>
    <path d="M 91.485729 113.417349 
C 91.61833 113.417349 91.745519 113.364666 91.839282 113.270903 
C 91.933045 113.177139 91.985729 113.049951 91.985729 112.917349 
C 91.985729 112.784748 91.933045 112.657559 91.839282 112.563796 
C 91.745519 112.470032 91.61833 112.417349 91.485729 112.417349 
C 91.353127 112.417349 91.225939 112.470032 91.132175 112.563796 
C 91.038412 112.657559 90.985729 112.784748 90.985729 112.917349 
C 90.985729 113.049951 91.038412 113.177139 91.132175 113.270903 
C 91.225939 113.364666 91.353127 113.417349 91.485729 113.417349 
z
" clip-path="url(#p9fa2e8f75c)" style="stroke: #000000"/>
    <path d="M 86.398645 99.688013 
C 86.759754 99.688013 87.106123 99.544543 87.361466 99.289199 
C 87.616809 99.033856 87.760279 98.687488 87.760279 98.326378 
C 87.760279 97.965268 87.616809 97.6189 87.361466 97.363557 
C 87.106123 97.108214 86.759754 96.964743 86.398645 96.964743 
C 86.037535 96.964743 85.691166 97.108214 85.435823 97.363557 
C 85.18048 97.6189 85.03701 97.965268 85.03701 98.326378 
C 85.03701 98.687488 85.18048 99.033856 85.435823 99.289199 
C 85.691166 99.544543 86.037535 99.688013 86.398645 99.688013 
z
" clip-path="url(#p9fa2e8f75c)" style="stroke: #000000"/>
    <path d="M 80.936873 88.333352 
C 81.29633 88.333352 81.641113 88.190538 81.895288 87.936364 
C 82.149462 87.682189 82.292276 87.337406 82.292276 86.977949 
C 82.292276 86.618492 82.149462 86.273709 81.895288 86.019534 
C 81.641113 85.76536 81.29633 85.622546 80.936873 85.622546 
C 80.577416 85.622546 80.232633 85.76536 79.978459 86.019534 
C 79.724284 86.273709 79.58147 86.618492 79.58147 86.977949 
C 79.58147 87.337406 79.724284 87.682189 79.978459 87.936364 
C 80.232633 88.190538 80.577416 88.333352 80.936873 88.333352 
z
" clip-path="url(#p9fa2e8f75c)" style="stroke: #000000"/>
    <path d="M 85.915692 119.483224 
C 86.113977 119.483224 86.304168 119.404444 86.444377 119.264235 
C 86.584586 119.124026 86.663366 118.933835 86.663366 118.735549 
C 86.663366 118.537264 86.584586 118.347073 86.444377 118.206864 
C 86.304168 118.066654 86.113977 117.987875 85.915692 117.987875 
C 85.717406 117.987875 85.527215 118.066654 85.387006 118.206864 
C 85.246797 118.347073 85.168017 118.537264 85.168017 118.735549 
C 85.168017 118.933835 85.246797 119.124026 85.387006 119.264235 
C 85.527215 119.404444 85.717406 119.483224 85.915692 119.483224 
z
" clip-path="url(#p9fa2e8f75c)" style="stroke: #000000"/>
    <path d="M 83.105417 110.618823 
C 83.546112 110.618823 83.968818 110.443733 84.280436 110.132114 
C 84.592055 109.820495 84.767145 109.39779 84.767145 108.957095 
C 84.767145 108.516399 84.592055 108.093694 84.280436 107.782076 
C 83.968818 107.470457 83.546112 107.295367 83.105417 107.295367 
C 82.664722 107.295367 82.242017 107.470457 81.930398 107.782076 
C 81.618779 108.093694 81.443689 108.516399 81.443689 108.957095 
C 81.443689 109.39779 81.618779 109.820495 81.930398 110.132114 
C 82.242017 110.443733 82.664722 110.618823 83.105417 110.618823 
z
" clip-path="url(#p9fa2e8f75c)" style="stroke: #000000"/>
    <path d="M 77.377059 94.93725 
C 77.606732 94.93725 77.827029 94.846001 77.989432 94.683598 
C 78.151835 94.521194 78.243085 94.300898 78.243085 94.071225 
C 78.243085 93.841552 78.151835 93.621256 77.989432 93.458853 
C 77.827029 93.29645 77.606732 93.2052 77.377059 93.2052 
C 77.147387 93.2052 76.92709 93.29645 76.764687 93.458853 
C 76.602284 93.621256 76.511034 93.841552 76.511034 94.071225 
C 76.511034 94.300898 76.602284 94.521194 76.764687 94.683598 
C 76.92709 94.846001 77.147387 94.93725 77.377059 94.93725 
z
" clip-path="url(#p9fa2e8f75c)" style="stroke: #000000"/>
    <path d="M 75.726811 91.350411 
C 76.0172 91.350411 76.295735 91.235038 76.501071 91.029702 
C 76.706407 90.824366 76.82178 90.545831 76.82178 90.255442 
C 76.82178 89.965052 76.706407 89.686517 76.501071 89.481181 
C 76.295735 89.275845 76.0172 89.160472 75.726811 89.160472 
C 75.436422 89.160472 75.157887 89.275845 74.952551 89.481181 
C 74.747214 89.686517 74.631842 89.965052 74.631842 90.255442 
C 74.631842 90.545831 74.747214 90.824366 74.952551 91.029702 
C 75.157887 91.235038 75.436422 91.350411 75.726811 91.350411 
z
" clip-path="url(#p9fa2e8f75c)" style="stroke: #000000"/>
    <path d="M 83.378084 132.713172 
C 83.71156 132.713172 84.031422 132.58068 84.267224 132.344878 
C 84.503027 132.109075 84.635518 131.789213 84.635518 131.455738 
C 84.635518 131.122263 84.503027 130.802401 84.267224 130.566598 
C 84.031422 130.330796 83.71156 130.198305 83.378084 130.198305 
C 83.044609 130.198305 82.724747 130.330796 82.488945 130.566598 
C 82.253142 130.802401 82.120651 131.122263 82.120651 131.455738 
C 82.120651 131.789213 82.253142 132.109075 82.488945 132.344878 
C 82.724747 132.58068 83.044609 132.713172 83.378084 132.713172 
z
" clip-path="url(#p9fa2e8f75c)" style="stroke: #000000"/>
    <path d="M 70.799017 95.803303 
C 71.079435 95.803303 71.348406 95.691892 71.546692 95.493606 
C 71.744977 95.295321 71.856388 95.02635 71.856388 94.745932 
C 71.856388 94.465514 71.744977 94.196543 71.546692 93.998258 
C 71.348406 93.799972 71.079435 93.688561 70.799017 93.688561 
C 70.518599 93.688561 70.249628 93.799972 70.051343 93.998258 
C 69.853057 94.196543 69.741646 94.465514 69.741646 94.745932 
C 69.741646 95.02635 69.853057 95.295321 70.051343 95.493606 
C 70.249628 95.691892 70.518599 95.803303 70.799017 95.803303 
z
" clip-path="url(#p9fa2e8f75c)" style="stroke: #000000"/>
    <path d="M 67.021344 85.11089 
C 67.491468 85.11089 67.942401 84.924107 68.274829 84.591679 
C 68.607257 84.259251 68.79404 83.808318 68.79404 83.338194 
C 68.79404 82.868069 68.607257 82.417137 68.274829 82.084708 
C 67.942401 81.75228 67.491468 81.565498 67.021344 81.565498 
C 66.551219 81.565498 66.100287 81.75228 65.767858 82.084708 
C 65.43543 82.417137 65.248648 82.868069 65.248648 83.338194 
C 65.248648 83.808318 65.43543 84.259251 65.767858 84.591679 
C 66.100287 84.924107 66.551219 85.11089 67.021344 85.11089 
z
" clip-path="url(#p9fa2e8f75c)" style="stroke: #000000"/>
    <path d="M 71.688623 120.296494 
C 72.110027 120.296494 72.514228 120.129068 72.812206 119.83109 
C 73.110183 119.533113 73.277609 119.128912 73.277609 118.707508 
C 73.277609 118.286104 73.110183 117.881903 72.812206 117.583925 
C 72.514228 117.285947 72.110027 117.118522 71.688623 117.118522 
C 71.267219 117.118522 70.863018 117.285947 70.56504 117.583925 
C 70.267063 117.881903 70.099637 118.286104 70.099637 118.707508 
C 70.099637 119.128912 70.267063 119.533113 70.56504 119.83109 
C 70.863018 120.129068 71.267219 120.296494 71.688623 120.296494 
z
" clip-path="url(#p9fa2e8f75c)" style="stroke: #000000"/>
    <path d="M 69.06778 109.43096 
C 69.482845 109.43096 69.880966 109.266053 70.174462 108.972558 
C 70.467957 108.679062 70.632864 108.280941 70.632864 107.865876 
C 70.632864 107.45081 70.467957 107.052689 70.174462 106.759194 
C 69.880966 106.465698 69.482845 106.300791 69.06778 106.300791 
C 68.652714 106.300791 68.254593 106.465698 67.961098 106.759194 
C 67.667602 107.052689 67.502695 107.45081 67.502695 107.865876 
C 67.502695 108.280941 67.667602 108.679062 67.961098 108.972558 
C 68.254593 109.266053 68.652714 109.43096 69.06778 109.43096 
z
" clip-path="url(#p9fa2e8f75c)" style="stroke: #000000"/>
    <path d="M 67.185273 104.627259 
C 67.392806 104.627259 67.591867 104.544805 67.738614 104.398057 
C 67.885362 104.25131 67.967816 104.052249 67.967816 103.844716 
C 67.967816 103.637184 67.885362 103.438123 67.738614 103.291375 
C 67.591867 103.144628 67.392806 103.062174 67.185273 103.062174 
C 66.977741 103.062174 66.77868 103.144628 66.631932 103.291375 
C 66.485185 103.438123 66.402731 103.637184 66.402731 103.844716 
C 66.402731 104.052249 66.485185 104.25131 66.631932 104.398057 
C 66.77868 104.544805 66.977741 104.627259 67.185273 104.627259 
z
" clip-path="url(#p9fa2e8f75c)" style="stroke: #000000"/>
    <path d="M 69.476704 131.83218 
C 69.803742 131.83218 70.11743 131.702246 70.348681 131.470995 
C 70.579933 131.239744 70.709867 130.926056 70.709867 130.599017 
C 70.709867 130.271978 70.579933 129.95829 70.348681 129.727039 
C 70.11743 129.495788 69.803742 129.365854 69.476704 129.365854 
C 69.149665 129.365854 68.835977 129.495788 68.604726 129.727039 
C 68.373475 129.95829 68.243541 130.271978 68.243541 130.599017 
C 68.243541 130.926056 68.373475 131.239744 68.604726 131.470995 
C 68.835977 131.702246 69.149665 131.83218 69.476704 131.83218 
z
" clip-path="url(#p9fa2e8f75c)" style="stroke: #000000"/>
    <path d="M 63.808288 107.452873 
C 64.12367 107.452873 64.426176 107.327571 64.649185 107.104563 
C 64.872193 106.881554 64.997495 106.579048 64.997495 106.263666 
C 64.997495 105.948285 64.872193 105.645778 64.649185 105.42277 
C 64.426176 105.199762 64.12367 105.074459 63.808288 105.074459 
C 63.492907 105.074459 63.1904 105.199762 62.967392 105.42277 
C 62.744383 105.645778 62.619081 105.948285 62.619081 106.263666 
C 62.619081 106.579048 62.744383 106.881554 62.967392 107.104563 
C 63.1904 107.327571 63.492907 107.452873 63.808288 107.452873 
z
" clip-path="url(#p9fa2e8f75c)" style="stroke: #000000"/>
    <path d="M 56.097587 95.723531 
C 56.354083 95.723531 56.600109 95.621624 56.781479 95.440254 
C 56.962849 95.258883 57.064756 95.012858 57.064756 94.756362 
C 57.064756 94.499866 56.962849 94.253841 56.781479 94.072471 
C 56.600109 93.891101 56.354083 93.789194 56.097587 93.789194 
C 55.841091 93.789194 55.595066 93.891101 55.413696 94.072471 
C 55.232326 94.253841 55.130419 94.499866 55.130419 94.756362 
C 55.130419 95.012858 55.232326 95.258883 55.413696 95.440254 
C 55.595066 95.621624 55.841091 95.723531 56.097587 95.723531 
z
" clip-path="url(#p9fa2e8f75c)" style="stroke: #000000"/>
    <path d="M 62.848649 135.553103 
C 62.98125 135.553103 63.108438 135.50042 63.202202 135.406656 
C 63.295965 135.312893 63.348649 135.185705 63.348649 135.053103 
C 63.348649 134.920502 63.295965 134.793313 63.202202 134.69955 
C 63.108438 134.605786 62.98125 134.553103 62.848649 134.553103 
C 62.716047 134.553103 62.588859 134.605786 62.495095 134.69955 
C 62.401332 134.793313 62.348649 134.920502 62.348649 135.053103 
C 62.348649 135.185705 62.401332 135.312893 62.495095 135.406656 
C 62.588859 135.50042 62.716047 135.553103 62.848649 135.553103 
z
" clip-path="url(#p9fa2e8f75c)" style="stroke: #000000"/>
    <path d="M 59.293419 119.729889 
C 59.758248 119.729889 60.204101 119.54521 60.532784 119.216527 
C 60.861467 118.887843 61.046146 118.44199 61.046146 117.977162 
C 61.046146 117.512333 60.861467 117.06648 60.532784 116.737797 
C 60.204101 116.409113 59.758248 116.224435 59.293419 116.224435 
C 58.82859 116.224435 58.382737 116.409113 58.054054 116.737797 
C 57.72537 117.06648 57.540692 117.512333 57.540692 117.977162 
C 57.540692 118.44199 57.72537 118.887843 58.054054 119.216527 
C 58.382737 119.54521 58.82859 119.729889 59.293419 119.729889 
z
" clip-path="url(#p9fa2e8f75c)" style="stroke: #000000"/>
   </g>
   <g id="matplotlib.axis_1">
    <g id="xtick_1">
     <g id="line2d_1">
      <defs>
       <path id="m0b9cc9d211" d="M 0 0 
L 0 3.5 
" style="stroke: #000000; stroke-width: 0.8"/>
      </defs>
      <g>
       <use xlink:href="#m0b9cc9d211" x="18" y="189" style="stroke: #000000; stroke-width: 0.8"/>
      </g>
     </g>
     <g id="text_1">
      <!-- −10 -->
      <g transform="translate(7.447656 203.598437)scale(0.1 -0.1)">
       <defs>
        <path id="DejaVuSans-2212" d="M 678 2272 
L 4684 2272 
L 4684 1741 
L 678 1741 
L 678 2272 
z
" transform="scale(0.015625)"/>
        <path id="DejaVuSans-31" d="M 794 531 
L 1825 531 
L 1825 4091 
L 703 3866 
L 703 4441 
L 1819 4666 
L 2450 4666 
L 2450 531 
L 3481 531 
L 3481 0 
L 794 0 
L 794 531 
z
" transform="scale(0.015625)"/>
        <path id="DejaVuSans-30" d="M 2034 4250 
Q 1547 4250 1301 3770 
Q 1056 3291 1056 2328 
Q 1056 1369 1301 889 
Q 1547 409 2034 409 
Q 2525 409 2770 889 
Q 3016 1369 3016 2328 
Q 3016 3291 2770 3770 
Q 2525 4250 2034 4250 
z
M 2034 4750 
Q 2819 4750 3233 4129 
Q 3647 3509 3647 2328 
Q 3647 1150 3233 529 
Q 2819 -91 2034 -91 
Q 1250 -91 836 529 
Q 422 1150 422 2328 
Q 422 3509 836 4129 
Q 1250 4750 2034 4750 
z
" transform="scale(0.015625)"/>
       </defs>
       <use xlink:href="#DejaVuSans-2212"/>
       <use xlink:href="#DejaVuSans-31" x="83.789062"/>
       <use xlink:href="#DejaVuSans-30" x="147.412109"/>
      </g>
     </g>
    </g>
    <g id="xtick_2">
     <g id="line2d_2">
      <g>
       <use xlink:href="#m0b9cc9d211" x="73.8" y="189" style="stroke: #000000; stroke-width: 0.8"/>
      </g>
     </g>
     <g id="text_2">
      <!-- 0 -->
      <g transform="translate(70.61875 203.598437)scale(0.1 -0.1)">
       <use xlink:href="#DejaVuSans-30"/>
      </g>
     </g>
    </g>
    <g id="xtick_3">
     <g id="line2d_3">
      <g>
       <use xlink:href="#m0b9cc9d211" x="129.6" y="189" style="stroke: #000000; stroke-width: 0.8"/>
      </g>
     </g>
     <g id="text_3">
      <!-- 10 -->
      <g transform="translate(123.2375 203.598437)scale(0.1 -0.1)">
       <use xlink:href="#DejaVuSans-31"/>
       <use xlink:href="#DejaVuSans-30" x="63.623047"/>
      </g>
     </g>
    </g>
   </g>
   <g id="matplotlib.axis_2">
    <g id="ytick_1">
     <g id="line2d_4">
      <defs>
       <path id="m3dfcad19e2" d="M 0 0 
L -3.5 0 
" style="stroke: #000000; stroke-width: 0.8"/>
      </defs>
      <g>
       <use xlink:href="#m3dfcad19e2" x="18" y="189" style="stroke: #000000; stroke-width: 0.8"/>
      </g>
     </g>
     <g id="text_4">
      <!-- −15 -->
      <g transform="translate(-10.104688 192.799219)scale(0.1 -0.1)">
       <defs>
        <path id="DejaVuSans-35" d="M 691 4666 
L 3169 4666 
L 3169 4134 
L 1269 4134 
L 1269 2991 
Q 1406 3038 1543 3061 
Q 1681 3084 1819 3084 
Q 2600 3084 3056 2656 
Q 3513 2228 3513 1497 
Q 3513 744 3044 326 
Q 2575 -91 1722 -91 
Q 1428 -91 1123 -41 
Q 819 9 494 109 
L 494 744 
Q 775 591 1075 516 
Q 1375 441 1709 441 
Q 2250 441 2565 725 
Q 2881 1009 2881 1497 
Q 2881 1984 2565 2268 
Q 2250 2553 1709 2553 
Q 1456 2553 1204 2497 
Q 953 2441 691 2322 
L 691 4666 
z
" transform="scale(0.015625)"/>
       </defs>
       <use xlink:href="#DejaVuSans-2212"/>
       <use xlink:href="#DejaVuSans-31" x="83.789062"/>
       <use xlink:href="#DejaVuSans-35" x="147.412109"/>
      </g>
     </g>
    </g>
    <g id="ytick_2">
     <g id="line2d_5">
      <g>
       <use xlink:href="#m3dfcad19e2" x="18" y="161.82" style="stroke: #000000; stroke-width: 0.8"/>
      </g>
     </g>
     <g id="text_5">
      <!-- −10 -->
      <g transform="translate(-10.104688 165.619219)scale(0.1 -0.1)">
       <use xlink:href="#DejaVuSans-2212"/>
       <use xlink:href="#DejaVuSans-31" x="83.789062"/>
       <use xlink:href="#DejaVuSans-30" x="147.412109"/>
      </g>
     </g>
    </g>
    <g id="ytick_3">
     <g id="line2d_6">
      <g>
       <use xlink:href="#m3dfcad19e2" x="18" y="134.64" style="stroke: #000000; stroke-width: 0.8"/>
      </g>
     </g>
     <g id="text_6">
      <!-- −5 -->
      <g transform="translate(-3.742188 138.439219)scale(0.1 -0.1)">
       <use xlink:href="#DejaVuSans-2212"/>
       <use xlink:href="#DejaVuSans-35" x="83.789062"/>
      </g>
     </g>
    </g>
    <g id="ytick_4">
     <g id="line2d_7">
      <g>
       <use xlink:href="#m3dfcad19e2" x="18" y="107.46" style="stroke: #000000; stroke-width: 0.8"/>
      </g>
     </g>
     <g id="text_7">
      <!-- 0 -->
      <g transform="translate(4.6375 111.259219)scale(0.1 -0.1)">
       <use xlink:href="#DejaVuSans-30"/>
      </g>
     </g>
    </g>
    <g id="ytick_5">
     <g id="line2d_8">
      <g>
       <use xlink:href="#m3dfcad19e2" x="18" y="80.28" style="stroke: #000000; stroke-width: 0.8"/>
      </g>
     </g>
     <g id="text_8">
      <!-- 5 -->
      <g transform="translate(4.6375 84.079219)scale(0.1 -0.1)">
       <use xlink:href="#DejaVuSans-35"/>
      </g>
     </g>
    </g>
    <g id="ytick_6">
     <g id="line2d_9">
      <g>
       <use xlink:href="#m3dfcad19e2" x="18" y="53.1" style="stroke: #000000; stroke-width: 0.8"/>
      </g>
     </g>
     <g id="text_9">
      <!-- 10 -->
      <g transform="translate(-1.725 56.899219)scale(0.1 -0.1)">
       <use xlink:href="#DejaVuSans-31"/>
       <use xlink:href="#DejaVuSans-30" x="63.623047"/>
      </g>
     </g>
    </g>
    <g id="ytick_7">
     <g id="line2d_10">
      <g>
       <use xlink:href="#m3dfcad19e2" x="18" y="25.92" style="stroke: #000000; stroke-width: 0.8"/>
      </g>
     </g>
     <g id="text_10">
      <!-- 15 -->
      <g transform="translate(-1.725 29.719219)scale(0.1 -0.1)">
       <use xlink:href="#DejaVuSans-31"/>
       <use xlink:href="#DejaVuSans-35" x="63.623047"/>
      </g>
     </g>
    </g>
   </g>
   <g id="patch_3">
    <path d="M 18 189 
L 18 25.92 
" style="fill: none; stroke: #000000; stroke-width: 0.8; stroke-linejoin: miter; stroke-linecap: square"/>
   </g>
   <g id="patch_4">
    <path d="M 129.6 189 
L 129.6 25.92 
" style="fill: none; stroke: #000000; stroke-width: 0.8; stroke-linejoin: miter; stroke-linecap: square"/>
   </g>
   <g id="patch_5">
    <path d="M 18 189 
L 129.6 189 
" style="fill: none; stroke: #000000; stroke-width: 0.8; stroke-linejoin: miter; stroke-linecap: square"/>
   </g>
   <g id="patch_6">
    <path d="M 18 25.92 
L 129.6 25.92 
" style="fill: none; stroke: #000000; stroke-width: 0.8; stroke-linejoin: miter; stroke-linecap: square"/>
   </g>
  </g>
 </g>
 <defs>
  <clipPath id="p9fa2e8f75c">
   <rect x="18" y="25.92" width="111.6" height="163.08"/>
  </clipPath>
 </defs>
</svg>
