<?xml version="1.0" encoding="utf-8" standalone="no"?>
<!DOCTYPE svg PUBLIC "-//W3C//DTD SVG 1.1//EN"
  "http://www.w3.org/Graphics/SVG/1.1/DTD/svg11.dtd">
<svg xmlns:xlink="http://www.w3.org/1999/xlink" width="144pt" height="216pt" viewBox="0 0 144 216" xmlns="http://www.w3.org/2000/svg" version="1.1">
 <metadata>
  <rdf:RDF xmlns:dc="http://purl.org/dc/elements/1.1/" xmlns:cc="http://creativecommons.org/ns#" xmlns:rdf="http://www.w3.org/1999/02/22-rdf-syntax-ns#">
   <cc:Work>
    <dc:type rdf:resource="http://purl.org/dc/dcmitype/StillImage"/>
    <dc:date>2022-06-23T14:47:53.156803</dc:date>
    <dc:format>image/svg+xml</dc:format>
    <dc:creator>
     <cc:Agent>
      <dc:title>Matplotlib v3.5.1, https://matplotlib.org/</dc:title>
     </cc:Agent>
    </dc:creator>
   </cc:Work>
  </rdf:RDF>
 </metadata>
 <defs>
  <style type="text/css">*{stroke-linejoin: round; stroke-linecap: butt}</style>
 </defs>
 <g id="figure_1">
  <g id="patch_1">
   <path d="M 0 216 
L 144 216 
L 144 0 
L 0 0 
L 0 216 
z
" style="fill: none"/>
  </g>
  <g id="axes_1">
   <g id="patch_2">
    <path d="M 18 189 
L 129.6 189 
L 129.6 25.92 
L 18 25.92 
z
" style="fill: #ffffff"/>
   </g>
   <g id="PathCollection_1">
    <defs>
     <path id="m9ff93c2fbd" d="M 0 2.738613 
C 0.726289 2.738613 1.422928 2.450055 1.936492 1.936492 
C 2.450055 1.422928 2.738613 0.726289 2.738613 0 
C 2.738613 -0.726289 2.450055 -1.422928 1.936492 -1.936492 
C 1.422928 -2.450055 0.726289 -2.738613 0 -2.738613 
C -0.726289 -2.738613 -1.422928 -2.450055 -1.936492 -1.936492 
C -2.450055 -1.422928 -2.738613 -0.726289 -2.738613 0 
C -2.738613 0.726289 -2.450055 1.422928 -1.936492 1.936492 
C -1.422928 2.450055 -0.726289 2.738613 0 2.738613 
z
" style="stroke: #ff0000; stroke-width: 1.75"/>
    </defs>
    <g clip-path="url(#pd52bca3d5d)">
     <use xlink:href="#m9ff93c2fbd" x="80.775" y="83.92143" style="fill: #ff0000; stroke: #ff0000; stroke-width: 1.75"/>
     <use xlink:href="#m9ff93c2fbd" x="59.85" y="95.690715" style="fill: #ff0000; stroke: #ff0000; stroke-width: 1.75"/>
     <use xlink:href="#m9ff93c2fbd" x="66.825" y="107.46" style="fill: #ff0000; stroke: #ff0000; stroke-width: 1.75"/>
     <use xlink:href="#m9ff93c2fbd" x="80.775" y="107.46" style="fill: #ff0000; stroke: #ff0000; stroke-width: 1.75"/>
     <use xlink:href="#m9ff93c2fbd" x="94.725" y="107.46" style="fill: #ff0000; stroke: #ff0000; stroke-width: 1.75"/>
     <use xlink:href="#m9ff93c2fbd" x="59.85" y="119.229285" style="fill: #ff0000; stroke: #ff0000; stroke-width: 1.75"/>
     <use xlink:href="#m9ff93c2fbd" x="80.775" y="130.99857" style="fill: #ff0000; stroke: #ff0000; stroke-width: 1.75"/>
    </g>
   </g>
   <g id="PathCollection_2">
    <defs>
     <path id="C0_0_de35d2e400" d="M 0 2.738613 
C 0.726289 2.738613 1.422928 2.450055 1.936492 1.936492 
C 2.450055 1.422928 2.738613 0.726289 2.738613 -0 
C 2.738613 -0.726289 2.450055 -1.422928 1.936492 -1.936492 
C 1.422928 -2.450055 0.726289 -2.738613 0 -2.738613 
C -0.726289 -2.738613 -1.422928 -2.450055 -1.936492 -1.936492 
C -2.450055 -1.422928 -2.738613 -0.726289 -2.738613 0 
C -2.738613 0.726289 -2.450055 1.422928 -1.936492 1.936492 
C -1.422928 2.450055 -0.726289 2.738613 0 2.738613 
z
"/>
    </defs>
    <g clip-path="url(#pd52bca3d5d)">
     <use xlink:href="#C0_0_de35d2e400" x="66.825" y="83.92143" style="fill: none; stroke: #ff0000; stroke-width: 1.75"/>
    </g>
    <g clip-path="url(#pd52bca3d5d)">
     <use xlink:href="#C0_0_de35d2e400" x="73.8" y="95.690715" style="fill: none; stroke: #ff0000; stroke-width: 1.75"/>
    </g>
    <g clip-path="url(#pd52bca3d5d)">
     <use xlink:href="#C0_0_de35d2e400" x="87.75" y="95.690715" style="fill: none; stroke: #ff0000; stroke-width: 1.75"/>
    </g>
    <g clip-path="url(#pd52bca3d5d)">
     <use xlink:href="#C0_0_de35d2e400" x="52.875" y="107.46" style="fill: none; stroke: #ff0000; stroke-width: 1.75"/>
    </g>
    <g clip-path="url(#pd52bca3d5d)">
     <use xlink:href="#C0_0_de35d2e400" x="73.8" y="119.229285" style="fill: none; stroke: #ff0000; stroke-width: 1.75"/>
    </g>
    <g clip-path="url(#pd52bca3d5d)">
     <use xlink:href="#C0_0_de35d2e400" x="87.75" y="119.229285" style="fill: none; stroke: #ff0000; stroke-width: 1.75"/>
    </g>
    <g clip-path="url(#pd52bca3d5d)">
     <use xlink:href="#C0_0_de35d2e400" x="66.825" y="130.99857" style="fill: none; stroke: #ff0000; stroke-width: 1.75"/>
    </g>
   </g>
   <g id="PathCollection_3">
    <path d="M 111.841877 111.565235 
C 111.974478 111.565235 112.101667 111.512551 112.19543 111.418788 
C 112.289194 111.325024 112.341877 111.197836 112.341877 111.065235 
C 112.341877 110.932633 112.289194 110.805445 112.19543 110.711681 
C 112.101667 110.617918 111.974478 110.565235 111.841877 110.565235 
C 111.709275 110.565235 111.582087 110.617918 111.488323 110.711681 
C 111.39456 110.805445 111.341877 110.932633 111.341877 111.065235 
C 111.341877 111.197836 111.39456 111.325024 111.488323 111.418788 
C 111.582087 111.512551 111.709275 111.565235 111.841877 111.565235 
z
" clip-path="url(#pd52bca3d5d)" style="stroke: #000000"/>
    <path d="M 117.272516 139.486902 
C 117.405118 139.486902 117.532306 139.434219 117.626069 139.340455 
C 117.719833 139.246692 117.772516 139.119503 117.772516 138.986902 
C 117.772516 138.8543 117.719833 138.727112 117.626069 138.633349 
C 117.532306 138.539585 117.405118 138.486902 117.272516 138.486902 
C 117.139915 138.486902 117.012726 138.539585 116.918963 138.633349 
C 116.825199 138.727112 116.772516 138.8543 116.772516 138.986902 
C 116.772516 139.119503 116.825199 139.246692 116.918963 139.340455 
C 117.012726 139.434219 117.139915 139.486902 117.272516 139.486902 
z
" clip-path="url(#pd52bca3d5d)" style="stroke: #000000"/>
    <path d="M 97.04953 101.406655 
C 97.182132 101.406655 97.30932 101.353972 97.403084 101.260209 
C 97.496847 101.166445 97.54953 101.039257 97.54953 100.906655 
C 97.54953 100.774054 97.496847 100.646865 97.403084 100.553102 
C 97.30932 100.459338 97.182132 100.406655 97.04953 100.406655 
C 96.916929 100.406655 96.78974 100.459338 96.695977 100.553102 
C 96.602213 100.646865 96.54953 100.774054 96.54953 100.906655 
C 96.54953 101.039257 96.602213 101.166445 96.695977 101.260209 
C 96.78974 101.353972 96.916929 101.406655 97.04953 101.406655 
z
" clip-path="url(#pd52bca3d5d)" style="stroke: #000000"/>
    <path d="M 101.202681 124.43626 
C 101.335282 124.43626 101.462471 124.383576 101.556234 124.289813 
C 101.649998 124.196049 101.702681 124.068861 101.702681 123.93626 
C 101.702681 123.803658 101.649998 123.67647 101.556234 123.582706 
C 101.462471 123.488943 101.335282 123.43626 101.202681 123.43626 
C 101.070079 123.43626 100.942891 123.488943 100.849127 123.582706 
C 100.755364 123.67647 100.702681 123.803658 100.702681 123.93626 
C 100.702681 124.068861 100.755364 124.196049 100.849127 124.289813 
C 100.942891 124.383576 101.070079 124.43626 101.202681 124.43626 
z
" clip-path="url(#pd52bca3d5d)" style="stroke: #000000"/>
    <path d="M 97.951923 116.067333 
C 98.084524 116.067333 98.211713 116.01465 98.305476 115.920887 
C 98.399239 115.827123 98.451923 115.699935 98.451923 115.567333 
C 98.451923 115.434732 98.399239 115.307544 98.305476 115.21378 
C 98.211713 115.120017 98.084524 115.067333 97.951923 115.067333 
C 97.819321 115.067333 97.692133 115.120017 97.598369 115.21378 
C 97.504606 115.307544 97.451923 115.434732 97.451923 115.567333 
C 97.451923 115.699935 97.504606 115.827123 97.598369 115.920887 
C 97.692133 116.01465 97.819321 116.067333 97.951923 116.067333 
z
" clip-path="url(#pd52bca3d5d)" style="stroke: #000000"/>
    <path d="M 96.931097 113.794646 
C 97.088788 113.794646 97.240041 113.731995 97.351546 113.620491 
C 97.46305 113.508987 97.525701 113.357733 97.525701 113.200043 
C 97.525701 113.042352 97.46305 112.891099 97.351546 112.779595 
C 97.240041 112.66809 97.088788 112.605439 96.931097 112.605439 
C 96.773407 112.605439 96.622153 112.66809 96.510649 112.779595 
C 96.399145 112.891099 96.336494 113.042352 96.336494 113.200043 
C 96.336494 113.357733 96.399145 113.508987 96.510649 113.620491 
C 96.622153 113.731995 96.773407 113.794646 96.931097 113.794646 
z
" clip-path="url(#pd52bca3d5d)" style="stroke: #000000"/>
    <path d="M 94.437509 108.848887 
C 94.93492 108.848887 95.412024 108.651264 95.763747 108.299541 
C 96.115469 107.947819 96.313092 107.470714 96.313092 106.973304 
C 96.313092 106.475893 96.115469 105.998789 95.763747 105.647066 
C 95.412024 105.295344 94.93492 105.097721 94.437509 105.097721 
C 93.940099 105.097721 93.462994 105.295344 93.111272 105.647066 
C 92.759549 105.998789 92.561926 106.475893 92.561926 106.973304 
C 92.561926 107.470714 92.759549 107.947819 93.111272 108.299541 
C 93.462994 108.651264 93.940099 108.848887 94.437509 108.848887 
z
" clip-path="url(#pd52bca3d5d)" style="stroke: #000000"/>
    <path d="M 89.65851 95.794667 
C 90.24966 95.794667 90.816678 95.559801 91.234685 95.141794 
C 91.652691 94.723788 91.887557 94.15677 91.887557 93.56562 
C 91.887557 92.97447 91.652691 92.407452 91.234685 91.989446 
C 90.816678 91.571439 90.24966 91.336573 89.65851 91.336573 
C 89.06736 91.336573 88.500342 91.571439 88.082336 91.989446 
C 87.664329 92.407452 87.429463 92.97447 87.429463 93.56562 
C 87.429463 94.15677 87.664329 94.723788 88.082336 95.141794 
C 88.500342 95.559801 89.06736 95.794667 89.65851 95.794667 
z
" clip-path="url(#pd52bca3d5d)" style="stroke: #000000"/>
    <path d="M 85.458433 86.409179 
C 85.591035 86.409179 85.718223 86.356496 85.811987 86.262732 
C 85.90575 86.168969 85.958433 86.04178 85.958433 85.909179 
C 85.958433 85.776577 85.90575 85.649389 85.811987 85.555625 
C 85.718223 85.461862 85.591035 85.409179 85.458433 85.409179 
C 85.325832 85.409179 85.198643 85.461862 85.10488 85.555625 
C 85.011116 85.649389 84.958433 85.776577 84.958433 85.909179 
C 84.958433 86.04178 85.011116 86.168969 85.10488 86.262732 
C 85.198643 86.356496 85.325832 86.409179 85.458433 86.409179 
z
" clip-path="url(#pd52bca3d5d)" style="stroke: #000000"/>
    <path d="M 84.108279 82.808845 
C 84.457306 82.808845 84.792085 82.670175 85.038884 82.423376 
C 85.285684 82.176576 85.424353 81.841798 85.424353 81.492771 
C 85.424353 81.143744 85.285684 80.808965 85.038884 80.562166 
C 84.792085 80.315367 84.457306 80.176697 84.108279 80.176697 
C 83.759252 80.176697 83.424474 80.315367 83.177674 80.562166 
C 82.930875 80.808965 82.792205 81.143744 82.792205 81.492771 
C 82.792205 81.841798 82.930875 82.176576 83.177674 82.423376 
C 83.424474 82.670175 83.759252 82.808845 84.108279 82.808845 
z
" clip-path="url(#pd52bca3d5d)" style="stroke: #000000"/>
    <path d="M 91.454581 114.569824 
C 91.587183 114.569824 91.714371 114.517141 91.808135 114.423377 
C 91.901898 114.329614 91.954581 114.202425 91.954581 114.069824 
C 91.954581 113.937222 91.901898 113.810034 91.808135 113.71627 
C 91.714371 113.622507 91.587183 113.569824 91.454581 113.569824 
C 91.32198 113.569824 91.194791 113.622507 91.101028 113.71627 
C 91.007264 113.810034 90.954581 113.937222 90.954581 114.069824 
C 90.954581 114.202425 91.007264 114.329614 91.101028 114.423377 
C 91.194791 114.517141 91.32198 114.569824 91.454581 114.569824 
z
" clip-path="url(#pd52bca3d5d)" style="stroke: #000000"/>
    <path d="M 87.955932 101.246605 
C 88.113622 101.246605 88.264876 101.183954 88.37638 101.07245 
C 88.487884 100.960946 88.550535 100.809692 88.550535 100.652002 
C 88.550535 100.494311 88.487884 100.343058 88.37638 100.231553 
C 88.264876 100.120049 88.113622 100.057398 87.955932 100.057398 
C 87.798241 100.057398 87.646988 100.120049 87.535483 100.231553 
C 87.423979 100.343058 87.361328 100.494311 87.361328 100.652002 
C 87.361328 100.809692 87.423979 100.960946 87.535483 101.07245 
C 87.646988 101.183954 87.798241 101.246605 87.955932 101.246605 
z
" clip-path="url(#pd52bca3d5d)" style="stroke: #000000"/>
    <path d="M 87.138921 97.733548 
C 87.636331 97.733548 88.113436 97.535924 88.465158 97.184202 
C 88.81688 96.83248 89.014504 96.355375 89.014504 95.857965 
C 89.014504 95.360554 88.81688 94.883449 88.465158 94.531727 
C 88.113436 94.180005 87.636331 93.982382 87.138921 93.982382 
C 86.64151 93.982382 86.164405 94.180005 85.812683 94.531727 
C 85.460961 94.883449 85.263338 95.360554 85.263338 95.857965 
C 85.263338 96.355375 85.460961 96.83248 85.812683 97.184202 
C 86.164405 97.535924 86.64151 97.733548 87.138921 97.733548 
z
" clip-path="url(#pd52bca3d5d)" style="stroke: #000000"/>
    <path d="M 83.09894 88.342369 
C 83.273453 88.342369 83.440842 88.273034 83.564242 88.149634 
C 83.687642 88.026234 83.756977 87.858845 83.756977 87.684332 
C 83.756977 87.509818 83.687642 87.342429 83.564242 87.219029 
C 83.440842 87.09563 83.273453 87.026295 83.09894 87.026295 
C 82.924426 87.026295 82.757037 87.09563 82.633637 87.219029 
C 82.510237 87.342429 82.440903 87.509818 82.440903 87.684332 
C 82.440903 87.858845 82.510237 88.026234 82.633637 88.149634 
C 82.757037 88.273034 82.924426 88.342369 83.09894 88.342369 
z
" clip-path="url(#pd52bca3d5d)" style="stroke: #000000"/>
    <path d="M 82.076926 84.72132 
C 82.376354 84.72132 82.663558 84.602356 82.875285 84.390629 
C 83.087012 84.178902 83.205976 83.891697 83.205976 83.59227 
C 83.205976 83.292842 83.087012 83.005638 82.875285 82.79391 
C 82.663558 82.582183 82.376354 82.463219 82.076926 82.463219 
C 81.777498 82.463219 81.490294 82.582183 81.278567 82.79391 
C 81.066839 83.005638 80.947875 83.292842 80.947875 83.59227 
C 80.947875 83.891697 81.066839 84.178902 81.278567 84.390629 
C 81.490294 84.602356 81.777498 84.72132 82.076926 84.72132 
z
" clip-path="url(#pd52bca3d5d)" style="stroke: #000000"/>
    <path d="M 88.661441 120.935611 
C 89.147139 120.935611 89.61301 120.742641 89.956451 120.3992 
C 90.299892 120.05576 90.492862 119.589889 90.492862 119.10419 
C 90.492862 118.618492 90.299892 118.152621 89.956451 117.80918 
C 89.61301 117.46574 89.147139 117.27277 88.661441 117.27277 
C 88.175743 117.27277 87.709872 117.46574 87.366431 117.80918 
C 87.02299 118.152621 86.83002 118.618492 86.83002 119.10419 
C 86.83002 119.589889 87.02299 120.05576 87.366431 120.3992 
C 87.709872 120.742641 88.175743 120.935611 88.661441 120.935611 
z
" clip-path="url(#pd52bca3d5d)" style="stroke: #000000"/>
    <path d="M 84.309559 107.73756 
C 84.883919 107.73756 85.434832 107.509364 85.840966 107.10323 
C 86.2471 106.697097 86.475296 106.146183 86.475296 105.571823 
C 86.475296 104.997463 86.2471 104.44655 85.840966 104.040416 
C 85.434832 103.634282 84.883919 103.406087 84.309559 103.406087 
C 83.735199 103.406087 83.184286 103.634282 82.778152 104.040416 
C 82.372018 104.44655 82.143822 104.997463 82.143822 105.571823 
C 82.143822 106.146183 82.372018 106.697097 82.778152 107.10323 
C 83.184286 107.509364 83.735199 107.73756 84.309559 107.73756 
z
" clip-path="url(#pd52bca3d5d)" style="stroke: #000000"/>
    <path d="M 82.536184 97.511089 
C 82.743717 97.511089 82.942777 97.428636 83.089525 97.281888 
C 83.236273 97.13514 83.318727 96.93608 83.318727 96.728547 
C 83.318727 96.521014 83.236273 96.321954 83.089525 96.175206 
C 82.942777 96.028458 82.743717 95.946005 82.536184 95.946005 
C 82.328652 95.946005 82.129591 96.028458 81.982843 96.175206 
C 81.836096 96.321954 81.753642 96.521014 81.753642 96.728547 
C 81.753642 96.93608 81.836096 97.13514 81.982843 97.281888 
C 82.129591 97.428636 82.328652 97.511089 82.536184 97.511089 
z
" clip-path="url(#pd52bca3d5d)" style="stroke: #000000"/>
    <path d="M 78.505777 86.848519 
C 79.003814 86.848519 79.48152 86.650647 79.833686 86.298481 
C 80.185851 85.946315 80.383723 85.468609 80.383723 84.970572 
C 80.383723 84.472535 80.185851 83.994829 79.833686 83.642663 
C 79.48152 83.290498 79.003814 83.092625 78.505777 83.092625 
C 78.007739 83.092625 77.530033 83.290498 77.177868 83.642663 
C 76.825702 83.994829 76.62783 84.472535 76.62783 84.970572 
C 76.62783 85.468609 76.825702 85.946315 77.177868 86.298481 
C 77.530033 86.650647 78.007739 86.848519 78.505777 86.848519 
z
" clip-path="url(#pd52bca3d5d)" style="stroke: #000000"/>
    <path d="M 84.964843 122.148325 
C 85.463505 122.148325 85.94181 121.950204 86.294417 121.597597 
C 86.647024 121.24499 86.845144 120.766685 86.845144 120.268023 
C 86.845144 119.769361 86.647024 119.291056 86.294417 118.938449 
C 85.94181 118.585842 85.463505 118.387722 84.964843 118.387722 
C 84.466181 118.387722 83.987876 118.585842 83.635269 118.938449 
C 83.282662 119.291056 83.084541 119.769361 83.084541 120.268023 
C 83.084541 120.766685 83.282662 121.24499 83.635269 121.597597 
C 83.987876 121.950204 84.466181 122.148325 84.964843 122.148325 
z
" clip-path="url(#pd52bca3d5d)" style="stroke: #000000"/>
    <path d="M 83.373067 115.550203 
C 83.505668 115.550203 83.632857 115.49752 83.72662 115.403756 
C 83.820384 115.309993 83.873067 115.182804 83.873067 115.050203 
C 83.873067 114.917601 83.820384 114.790413 83.72662 114.69665 
C 83.632857 114.602886 83.505668 114.550203 83.373067 114.550203 
C 83.240465 114.550203 83.113277 114.602886 83.019513 114.69665 
C 82.92575 114.790413 82.873067 114.917601 82.873067 115.050203 
C 82.873067 115.182804 82.92575 115.309993 83.019513 115.403756 
C 83.113277 115.49752 83.240465 115.550203 83.373067 115.550203 
z
" clip-path="url(#pd52bca3d5d)" style="stroke: #000000"/>
    <path d="M 80.136484 108.293831 
C 80.449372 108.293831 80.749487 108.169519 80.970732 107.948274 
C 81.191978 107.727028 81.316289 107.426913 81.316289 107.114025 
C 81.316289 106.801137 81.191978 106.501022 80.970732 106.279777 
C 80.749487 106.058531 80.449372 105.93422 80.136484 105.93422 
C 79.823596 105.93422 79.523481 106.058531 79.302235 106.279777 
C 79.08099 106.501022 78.956678 106.801137 78.956678 107.114025 
C 78.956678 107.426913 79.08099 107.727028 79.302235 107.948274 
C 79.523481 108.169519 79.823596 108.293831 80.136484 108.293831 
z
" clip-path="url(#pd52bca3d5d)" style="stroke: #000000"/>
    <path d="M 80.141978 103.971131 
C 80.274579 103.971131 80.401768 103.918448 80.495531 103.824684 
C 80.589295 103.730921 80.641978 103.603732 80.641978 103.471131 
C 80.641978 103.338529 80.589295 103.211341 80.495531 103.117577 
C 80.401768 103.023814 80.274579 102.971131 80.141978 102.971131 
C 80.009376 102.971131 79.882188 103.023814 79.788424 103.117577 
C 79.694661 103.211341 79.641978 103.338529 79.641978 103.471131 
C 79.641978 103.603732 79.694661 103.730921 79.788424 103.824684 
C 79.882188 103.918448 80.009376 103.971131 80.141978 103.971131 
z
" clip-path="url(#pd52bca3d5d)" style="stroke: #000000"/>
    <path d="M 75.376783 94.335938 
C 75.667172 94.335938 75.945707 94.220565 76.151043 94.015229 
C 76.35638 93.809893 76.471752 93.531358 76.471752 93.240969 
C 76.471752 92.950579 76.35638 92.672045 76.151043 92.466708 
C 75.945707 92.261372 75.667172 92.145999 75.376783 92.145999 
C 75.086394 92.145999 74.807859 92.261372 74.602523 92.466708 
C 74.397187 92.672045 74.281814 92.950579 74.281814 93.240969 
C 74.281814 93.531358 74.397187 93.809893 74.602523 94.015229 
C 74.807859 94.220565 75.086394 94.335938 75.376783 94.335938 
z
" clip-path="url(#pd52bca3d5d)" style="stroke: #000000"/>
    <path d="M 73.598205 93.021107 
C 74.090513 93.021107 74.562724 92.825511 74.910838 92.477397 
C 75.258953 92.129283 75.454549 91.657072 75.454549 91.164764 
C 75.454549 90.672456 75.258953 90.200245 74.910838 89.85213 
C 74.562724 89.504016 74.090513 89.30842 73.598205 89.30842 
C 73.105897 89.30842 72.633686 89.504016 72.285572 89.85213 
C 71.937457 90.200245 71.741861 90.672456 71.741861 91.164764 
C 71.741861 91.657072 71.937457 92.129283 72.285572 92.477397 
C 72.633686 92.825511 73.105897 93.021107 73.598205 93.021107 
z
" clip-path="url(#pd52bca3d5d)" style="stroke: #000000"/>
    <path d="M 83.103528 136.63772 
C 83.69654 136.63772 84.265344 136.402113 84.684667 135.98279 
C 85.10399 135.563468 85.339596 134.994664 85.339596 134.401652 
C 85.339596 133.80864 85.10399 133.239836 84.684667 132.820513 
C 84.265344 132.40119 83.69654 132.165584 83.103528 132.165584 
C 82.510516 132.165584 81.941712 132.40119 81.522389 132.820513 
C 81.103066 133.239836 80.86746 133.80864 80.86746 134.401652 
C 80.86746 134.994664 81.103066 135.563468 81.522389 135.98279 
C 81.941712 136.402113 82.510516 136.63772 83.103528 136.63772 
z
" clip-path="url(#pd52bca3d5d)" style="stroke: #000000"/>
    <path d="M 84.351494 132.794164 
C 84.944506 132.794164 85.51331 132.558558 85.932633 132.139235 
C 86.351956 131.719912 86.587562 131.151109 86.587562 130.558096 
C 86.587562 129.965084 86.351956 129.396281 85.932633 128.976958 
C 85.51331 128.557635 84.944506 128.322029 84.351494 128.322029 
C 83.758482 128.322029 83.189678 128.557635 82.770355 128.976958 
C 82.351032 129.396281 82.115426 129.965084 82.115426 130.558096 
C 82.115426 131.151109 82.351032 131.719912 82.770355 132.139235 
C 83.189678 132.558558 83.758482 132.794164 84.351494 132.794164 
z
" clip-path="url(#pd52bca3d5d)" style="stroke: #000000"/>
    <path d="M 72.417173 96.768035 
C 72.730061 96.768035 73.030177 96.643723 73.251422 96.422478 
C 73.472667 96.201232 73.596979 95.901117 73.596979 95.588229 
C 73.596979 95.275341 73.472667 94.975226 73.251422 94.753981 
C 73.030177 94.532735 72.730061 94.408424 72.417173 94.408424 
C 72.104285 94.408424 71.80417 94.532735 71.582925 94.753981 
C 71.36168 94.975226 71.237368 95.275341 71.237368 95.588229 
C 71.237368 95.901117 71.36168 96.201232 71.582925 96.422478 
C 71.80417 96.643723 72.104285 96.768035 72.417173 96.768035 
z
" clip-path="url(#pd52bca3d5d)" style="stroke: #000000"/>
    <path d="M 68.060019 86.792237 
C 68.21771 86.792237 68.368963 86.729586 68.480467 86.618082 
C 68.591972 86.506577 68.654623 86.355324 68.654623 86.197633 
C 68.654623 86.039943 68.591972 85.888689 68.480467 85.777185 
C 68.368963 85.665681 68.21771 85.60303 68.060019 85.60303 
C 67.902328 85.60303 67.751075 85.665681 67.639571 85.777185 
C 67.528067 85.888689 67.465416 86.039943 67.465416 86.197633 
C 67.465416 86.355324 67.528067 86.506577 67.639571 86.618082 
C 67.751075 86.729586 67.902328 86.792237 68.060019 86.792237 
z
" clip-path="url(#pd52bca3d5d)" style="stroke: #000000"/>
    <path d="M 67.674574 83.482445 
C 67.882106 83.482445 68.081167 83.399992 68.227915 83.253244 
C 68.374662 83.106496 68.457116 82.907436 68.457116 82.699903 
C 68.457116 82.49237 68.374662 82.29331 68.227915 82.146562 
C 68.081167 81.999814 67.882106 81.917361 67.674574 81.917361 
C 67.467041 81.917361 67.26798 81.999814 67.121233 82.146562 
C 66.974485 82.29331 66.892031 82.49237 66.892031 82.699903 
C 66.892031 82.907436 66.974485 83.106496 67.121233 83.253244 
C 67.26798 83.399992 67.467041 83.482445 67.674574 83.482445 
z
" clip-path="url(#pd52bca3d5d)" style="stroke: #000000"/>
    <path d="M 73.578082 120.07101 
C 74.076119 120.07101 74.553825 119.873138 74.90599 119.520972 
C 75.258156 119.168806 75.456028 118.6911 75.456028 118.193063 
C 75.456028 117.695026 75.258156 117.21732 74.90599 116.865154 
C 74.553825 116.512989 74.076119 116.315116 73.578082 116.315116 
C 73.080044 116.315116 72.602338 116.512989 72.250173 116.865154 
C 71.898007 117.21732 71.700135 117.695026 71.700135 118.193063 
C 71.700135 118.6911 71.898007 119.168806 72.250173 119.520972 
C 72.602338 119.873138 73.080044 120.07101 73.578082 120.07101 
z
" clip-path="url(#pd52bca3d5d)" style="stroke: #000000"/>
    <path d="M 62.20189 89.404012 
C 62.334491 89.404012 62.46168 89.351329 62.555443 89.257566 
C 62.649207 89.163802 62.70189 89.036614 62.70189 88.904012 
C 62.70189 88.771411 62.649207 88.644222 62.555443 88.550459 
C 62.46168 88.456695 62.334491 88.404012 62.20189 88.404012 
C 62.069288 88.404012 61.9421 88.456695 61.848336 88.550459 
C 61.754573 88.644222 61.70189 88.771411 61.70189 88.904012 
C 61.70189 89.036614 61.754573 89.163802 61.848336 89.257566 
C 61.9421 89.351329 62.069288 89.404012 62.20189 89.404012 
z
" clip-path="url(#pd52bca3d5d)" style="stroke: #000000"/>
    <path d="M 61.847915 84.458024 
C 62.172721 84.458024 62.484268 84.328977 62.71394 84.099304 
C 62.943613 83.869632 63.07266 83.558085 63.07266 83.233279 
C 63.07266 82.908473 62.943613 82.596926 62.71394 82.367253 
C 62.484268 82.137581 62.172721 82.008534 61.847915 82.008534 
C 61.523109 82.008534 61.211562 82.137581 60.981889 82.367253 
C 60.752217 82.596926 60.62317 82.908473 60.62317 83.233279 
C 60.62317 83.558085 60.752217 83.869632 60.981889 84.099304 
C 61.211562 84.328977 61.523109 84.458024 61.847915 84.458024 
z
" clip-path="url(#pd52bca3d5d)" style="stroke: #000000"/>
    <path d="M 70.35661 122.340102 
C 70.949622 122.340102 71.518426 122.104495 71.937749 121.685172 
C 72.357072 121.265849 72.592678 120.697046 72.592678 120.104034 
C 72.592678 119.511021 72.357072 118.942218 71.937749 118.522895 
C 71.518426 118.103572 70.949622 117.867966 70.35661 117.867966 
C 69.763598 117.867966 69.194794 118.103572 68.775471 118.522895 
C 68.356148 118.942218 68.120542 119.511021 68.120542 120.104034 
C 68.120542 120.697046 68.356148 121.265849 68.775471 121.685172 
C 69.194794 122.104495 69.763598 122.340102 70.35661 122.340102 
z
" clip-path="url(#pd52bca3d5d)" style="stroke: #000000"/>
    <path d="M 66.352217 117.560952 
C 66.484819 117.560952 66.612007 117.508269 66.705771 117.414506 
C 66.799534 117.320742 66.852217 117.193554 66.852217 117.060952 
C 66.852217 116.928351 66.799534 116.801162 66.705771 116.707399 
C 66.612007 116.613635 66.484819 116.560952 66.352217 116.560952 
C 66.219616 116.560952 66.092427 116.613635 65.998664 116.707399 
C 65.9049 116.801162 65.852217 116.928351 65.852217 117.060952 
C 65.852217 117.193554 65.9049 117.320742 65.998664 117.414506 
C 66.092427 117.508269 66.219616 117.560952 66.352217 117.560952 
z
" clip-path="url(#pd52bca3d5d)" style="stroke: #000000"/>
    <path d="M 65.952059 112.681679 
C 66.126573 112.681679 66.293962 112.612344 66.417362 112.488944 
C 66.540761 112.365545 66.610096 112.198155 66.610096 112.023642 
C 66.610096 111.849129 66.540761 111.681739 66.417362 111.55834 
C 66.293962 111.43494 66.126573 111.365605 65.952059 111.365605 
C 65.777546 111.365605 65.610156 111.43494 65.486757 111.55834 
C 65.363357 111.681739 65.294022 111.849129 65.294022 112.023642 
C 65.294022 112.198155 65.363357 112.365545 65.486757 112.488944 
C 65.610156 112.612344 65.777546 112.681679 65.952059 112.681679 
z
" clip-path="url(#pd52bca3d5d)" style="stroke: #000000"/>
    <path d="M 64.939799 109.789988 
C 65.526024 109.789988 66.088317 109.557078 66.502841 109.142555 
C 66.917365 108.728031 67.150275 108.165737 67.150275 107.579512 
C 67.150275 106.993287 66.917365 106.430993 66.502841 106.016469 
C 66.088317 105.601945 65.526024 105.369036 64.939799 105.369036 
C 64.353573 105.369036 63.79128 105.601945 63.376756 106.016469 
C 62.962232 106.430993 62.729322 106.993287 62.729322 107.579512 
C 62.729322 108.165737 62.962232 108.728031 63.376756 109.142555 
C 63.79128 109.557078 64.353573 109.789988 64.939799 109.789988 
z
" clip-path="url(#pd52bca3d5d)" style="stroke: #000000"/>
    <path d="M 64.98608 105.63179 
C 65.27647 105.63179 65.555004 105.516417 65.760341 105.311081 
C 65.965677 105.105745 66.08105 104.82721 66.08105 104.536821 
C 66.08105 104.246431 65.965677 103.967897 65.760341 103.76256 
C 65.555004 103.557224 65.27647 103.441851 64.98608 103.441851 
C 64.695691 103.441851 64.417156 103.557224 64.21182 103.76256 
C 64.006484 103.967897 63.891111 104.246431 63.891111 104.536821 
C 63.891111 104.82721 64.006484 105.105745 64.21182 105.311081 
C 64.417156 105.516417 64.695691 105.63179 64.98608 105.63179 
z
" clip-path="url(#pd52bca3d5d)" style="stroke: #000000"/>
    <path d="M 61.637348 99.398343 
C 61.824875 99.398343 62.004747 99.323837 62.137348 99.191236 
C 62.26995 99.058634 62.344455 98.878763 62.344455 98.691236 
C 62.344455 98.503709 62.26995 98.323837 62.137348 98.191236 
C 62.004747 98.058634 61.824875 97.984129 61.637348 97.984129 
C 61.449821 97.984129 61.26995 98.058634 61.137348 98.191236 
C 61.004747 98.323837 60.930241 98.503709 60.930241 98.691236 
C 60.930241 98.878763 61.004747 99.058634 61.137348 99.191236 
C 61.26995 99.323837 61.449821 99.398343 61.637348 99.398343 
z
" clip-path="url(#pd52bca3d5d)" style="stroke: #000000"/>
    <path d="M 61.281389 95.42849 
C 61.568569 95.42849 61.844025 95.314392 62.047092 95.111325 
C 62.250159 94.908258 62.364257 94.632802 62.364257 94.345622 
C 62.364257 94.058442 62.250159 93.782985 62.047092 93.579918 
C 61.844025 93.376851 61.568569 93.262753 61.281389 93.262753 
C 60.994209 93.262753 60.718752 93.376851 60.515685 93.579918 
C 60.312618 93.782985 60.19852 94.058442 60.19852 94.345622 
C 60.19852 94.632802 60.312618 94.908258 60.515685 95.111325 
C 60.718752 95.314392 60.994209 95.42849 61.281389 95.42849 
z
" clip-path="url(#pd52bca3d5d)" style="stroke: #000000"/>
    <path d="M 61.407374 91.441664 
C 61.565065 91.441664 61.716318 91.379012 61.827822 91.267508 
C 61.939327 91.156004 62.001978 91.004751 62.001978 90.84706 
C 62.001978 90.689369 61.939327 90.538116 61.827822 90.426612 
C 61.716318 90.315108 61.565065 90.252456 61.407374 90.252456 
C 61.249683 90.252456 61.09843 90.315108 60.986926 90.426612 
C 60.875422 90.538116 60.812771 90.689369 60.812771 90.84706 
C 60.812771 91.004751 60.875422 91.156004 60.986926 91.267508 
C 61.09843 91.379012 61.249683 91.441664 61.407374 91.441664 
z
" clip-path="url(#pd52bca3d5d)" style="stroke: #000000"/>
    <path d="M 68.92457 135.21901 
C 69.218066 135.21901 69.49958 135.102403 69.707113 134.894871 
C 69.914645 134.687338 70.031252 134.405824 70.031252 134.112329 
C 70.031252 133.818833 69.914645 133.537319 69.707113 133.329786 
C 69.49958 133.122254 69.218066 133.005647 68.92457 133.005647 
C 68.631075 133.005647 68.349561 133.122254 68.142028 133.329786 
C 67.934496 133.537319 67.817889 133.818833 67.817889 134.112329 
C 67.817889 134.405824 67.934496 134.687338 68.142028 134.894871 
C 68.349561 135.102403 68.631075 135.21901 68.92457 135.21901 
z
" clip-path="url(#pd52bca3d5d)" style="stroke: #000000"/>
    <path d="M 67.176911 131.72044 
C 67.663953 131.72044 68.131113 131.526936 68.475504 131.182545 
C 68.819895 130.838155 69.013398 130.370995 69.013398 129.883953 
C 69.013398 129.396911 68.819895 128.929751 68.475504 128.585361 
C 68.131113 128.24097 67.663953 128.047466 67.176911 128.047466 
C 66.689869 128.047466 66.22271 128.24097 65.878319 128.585361 
C 65.533928 128.929751 65.340424 129.396911 65.340424 129.883953 
C 65.340424 130.370995 65.533928 130.838155 65.878319 131.182545 
C 66.22271 131.526936 66.689869 131.72044 67.176911 131.72044 
z
" clip-path="url(#pd52bca3d5d)" style="stroke: #000000"/>
    <path d="M 58.524185 106.463972 
C 58.711712 106.463972 58.891583 106.389467 59.024185 106.256865 
C 59.156787 106.124264 59.231292 105.944392 59.231292 105.756865 
C 59.231292 105.569339 59.156787 105.389467 59.024185 105.256865 
C 58.891583 105.124264 58.711712 105.049759 58.524185 105.049759 
C 58.336658 105.049759 58.156787 105.124264 58.024185 105.256865 
C 57.891583 105.389467 57.817078 105.569339 57.817078 105.756865 
C 57.817078 105.944392 57.891583 106.124264 58.024185 106.256865 
C 58.156787 106.389467 58.336658 106.463972 58.524185 106.463972 
z
" clip-path="url(#pd52bca3d5d)" style="stroke: #000000"/>
    <path d="M 57.78089 100.913869 
C 58.06807 100.913869 58.343526 100.799772 58.546593 100.596705 
C 58.74966 100.393638 58.863758 100.118181 58.863758 99.831001 
C 58.863758 99.543821 58.74966 99.268364 58.546593 99.065298 
C 58.343526 98.862231 58.06807 98.748133 57.78089 98.748133 
C 57.49371 98.748133 57.218253 98.862231 57.015186 99.065298 
C 56.812119 99.268364 56.698021 99.543821 56.698021 99.831001 
C 56.698021 100.118181 56.812119 100.393638 57.015186 100.596705 
C 57.218253 100.799772 57.49371 100.913869 57.78089 100.913869 
z
" clip-path="url(#pd52bca3d5d)" style="stroke: #000000"/>
    <path d="M 57.452691 97.226972 
C 57.660224 97.226972 57.859284 97.144519 58.006032 96.997771 
C 58.15278 96.851023 58.235233 96.651962 58.235233 96.44443 
C 58.235233 96.236897 58.15278 96.037837 58.006032 95.891089 
C 57.859284 95.744341 57.660224 95.661888 57.452691 95.661888 
C 57.245158 95.661888 57.046098 95.744341 56.89935 95.891089 
C 56.752602 96.037837 56.670149 96.236897 56.670149 96.44443 
C 56.670149 96.651962 56.752602 96.851023 56.89935 96.997771 
C 57.046098 97.144519 57.245158 97.226972 57.452691 97.226972 
z
" clip-path="url(#pd52bca3d5d)" style="stroke: #000000"/>
    <path d="M 61.457183 122.494992 
C 61.589785 122.494992 61.716973 122.442308 61.810736 122.348545 
C 61.9045 122.254782 61.957183 122.127593 61.957183 121.994992 
C 61.957183 121.86239 61.9045 121.735202 61.810736 121.641438 
C 61.716973 121.547675 61.589785 121.494992 61.457183 121.494992 
C 61.324581 121.494992 61.197393 121.547675 61.10363 121.641438 
C 61.009866 121.735202 60.957183 121.86239 60.957183 121.994992 
C 60.957183 122.127593 61.009866 122.254782 61.10363 122.348545 
C 61.197393 122.442308 61.324581 122.494992 61.457183 122.494992 
z
" clip-path="url(#pd52bca3d5d)" style="stroke: #000000"/>
    <path d="M 59.618018 120.415201 
C 60.012087 120.415201 60.390069 120.258635 60.668718 119.979986 
C 60.947367 119.701338 61.103932 119.323356 61.103932 118.929287 
C 61.103932 118.535218 60.947367 118.157236 60.668718 117.878587 
C 60.390069 117.599938 60.012087 117.443373 59.618018 117.443373 
C 59.223949 117.443373 58.845967 117.599938 58.567318 117.878587 
C 58.288669 118.157236 58.132104 118.535218 58.132104 118.929287 
C 58.132104 119.323356 58.288669 119.701338 58.567318 119.979986 
C 58.845967 120.258635 59.223949 120.415201 59.618018 120.415201 
z
" clip-path="url(#pd52bca3d5d)" style="stroke: #000000"/>
    <path d="M 56.545023 124.54246 
C 56.865221 124.54246 57.172348 124.415244 57.398762 124.18883 
C 57.625176 123.962416 57.752392 123.65529 57.752392 123.335092 
C 57.752392 123.014894 57.625176 122.707768 57.398762 122.481354 
C 57.172348 122.25494 56.865221 122.127724 56.545023 122.127724 
C 56.224826 122.127724 55.917699 122.25494 55.691285 122.481354 
C 55.464871 122.707768 55.337655 123.014894 55.337655 123.335092 
C 55.337655 123.65529 55.464871 123.962416 55.691285 124.18883 
C 55.917699 124.415244 56.224826 124.54246 56.545023 124.54246 
z
" clip-path="url(#pd52bca3d5d)" style="stroke: #000000"/>
    <path d="M 61.644406 151.703269 
C 61.777008 151.703269 61.904196 151.650586 61.997959 151.556822 
C 62.091723 151.463059 62.144406 151.33587 62.144406 151.203269 
C 62.144406 151.070667 62.091723 150.943479 61.997959 150.849715 
C 61.904196 150.755952 61.777008 150.703269 61.644406 150.703269 
C 61.511805 150.703269 61.384616 150.755952 61.290853 150.849715 
C 61.197089 150.943479 61.144406 151.070667 61.144406 151.203269 
C 61.144406 151.33587 61.197089 151.463059 61.290853 151.556822 
C 61.384616 151.650586 61.511805 151.703269 61.644406 151.703269 
z
" clip-path="url(#pd52bca3d5d)" style="stroke: #000000"/>
    <path d="M 34.106379 89.645966 
C 34.23898 89.645966 34.366169 89.593283 34.459932 89.49952 
C 34.553696 89.405756 34.606379 89.278568 34.606379 89.145966 
C 34.606379 89.013365 34.553696 88.886176 34.459932 88.792413 
C 34.366169 88.69865 34.23898 88.645966 34.106379 88.645966 
C 33.973777 88.645966 33.846589 88.69865 33.752826 88.792413 
C 33.659062 88.886176 33.606379 89.013365 33.606379 89.145966 
C 33.606379 89.278568 33.659062 89.405756 33.752826 89.49952 
C 33.846589 89.593283 33.973777 89.645966 34.106379 89.645966 
z
" clip-path="url(#pd52bca3d5d)" style="stroke: #000000"/>
   </g>
   <g id="matplotlib.axis_1">
    <g id="xtick_1">
     <g id="line2d_1">
      <defs>
       <path id="m294c6ded75" d="M 0 0 
L 0 3.5 
" style="stroke: #000000; stroke-width: 0.8"/>
      </defs>
      <g>
       <use xlink:href="#m294c6ded75" x="18" y="189" style="stroke: #000000; stroke-width: 0.8"/>
      </g>
     </g>
     <g id="text_1">
      <!-- −10 -->
      <g transform="translate(7.447656 203.598437)scale(0.1 -0.1)">
       <defs>
        <path id="DejaVuSans-2212" d="M 678 2272 
L 4684 2272 
L 4684 1741 
L 678 1741 
L 678 2272 
z
" transform="scale(0.015625)"/>
        <path id="DejaVuSans-31" d="M 794 531 
L 1825 531 
L 1825 4091 
L 703 3866 
L 703 4441 
L 1819 4666 
L 2450 4666 
L 2450 531 
L 3481 531 
L 3481 0 
L 794 0 
L 794 531 
z
" transform="scale(0.015625)"/>
        <path id="DejaVuSans-30" d="M 2034 4250 
Q 1547 4250 1301 3770 
Q 1056 3291 1056 2328 
Q 1056 1369 1301 889 
Q 1547 409 2034 409 
Q 2525 409 2770 889 
Q 3016 1369 3016 2328 
Q 3016 3291 2770 3770 
Q 2525 4250 2034 4250 
z
M 2034 4750 
Q 2819 4750 3233 4129 
Q 3647 3509 3647 2328 
Q 3647 1150 3233 529 
Q 2819 -91 2034 -91 
Q 1250 -91 836 529 
Q 422 1150 422 2328 
Q 422 3509 836 4129 
Q 1250 4750 2034 4750 
z
" transform="scale(0.015625)"/>
       </defs>
       <use xlink:href="#DejaVuSans-2212"/>
       <use xlink:href="#DejaVuSans-31" x="83.789062"/>
       <use xlink:href="#DejaVuSans-30" x="147.412109"/>
      </g>
     </g>
    </g>
    <g id="xtick_2">
     <g id="line2d_2">
      <g>
       <use xlink:href="#m294c6ded75" x="73.8" y="189" style="stroke: #000000; stroke-width: 0.8"/>
      </g>
     </g>
     <g id="text_2">
      <!-- 0 -->
      <g transform="translate(70.61875 203.598437)scale(0.1 -0.1)">
       <use xlink:href="#DejaVuSans-30"/>
      </g>
     </g>
    </g>
    <g id="xtick_3">
     <g id="line2d_3">
      <g>
       <use xlink:href="#m294c6ded75" x="129.6" y="189" style="stroke: #000000; stroke-width: 0.8"/>
      </g>
     </g>
     <g id="text_3">
      <!-- 10 -->
      <g transform="translate(123.2375 203.598437)scale(0.1 -0.1)">
       <use xlink:href="#DejaVuSans-31"/>
       <use xlink:href="#DejaVuSans-30" x="63.623047"/>
      </g>
     </g>
    </g>
   </g>
   <g id="matplotlib.axis_2">
    <g id="ytick_1">
     <g id="line2d_4">
      <defs>
       <path id="m56b8b207ab" d="M 0 0 
L -3.5 0 
" style="stroke: #000000; stroke-width: 0.8"/>
      </defs>
      <g>
       <use xlink:href="#m56b8b207ab" x="18" y="189" style="stroke: #000000; stroke-width: 0.8"/>
      </g>
     </g>
     <g id="text_4">
      <!-- −15 -->
      <g transform="translate(-10.104688 192.799219)scale(0.1 -0.1)">
       <defs>
        <path id="DejaVuSans-35" d="M 691 4666 
L 3169 4666 
L 3169 4134 
L 1269 4134 
L 1269 2991 
Q 1406 3038 1543 3061 
Q 1681 3084 1819 3084 
Q 2600 3084 3056 2656 
Q 3513 2228 3513 1497 
Q 3513 744 3044 326 
Q 2575 -91 1722 -91 
Q 1428 -91 1123 -41 
Q 819 9 494 109 
L 494 744 
Q 775 591 1075 516 
Q 1375 441 1709 441 
Q 2250 441 2565 725 
Q 2881 1009 2881 1497 
Q 2881 1984 2565 2268 
Q 2250 2553 1709 2553 
Q 1456 2553 1204 2497 
Q 953 2441 691 2322 
L 691 4666 
z
" transform="scale(0.015625)"/>
       </defs>
       <use xlink:href="#DejaVuSans-2212"/>
       <use xlink:href="#DejaVuSans-31" x="83.789062"/>
       <use xlink:href="#DejaVuSans-35" x="147.412109"/>
      </g>
     </g>
    </g>
    <g id="ytick_2">
     <g id="line2d_5">
      <g>
       <use xlink:href="#m56b8b207ab" x="18" y="161.82" style="stroke: #000000; stroke-width: 0.8"/>
      </g>
     </g>
     <g id="text_5">
      <!-- −10 -->
      <g transform="translate(-10.104688 165.619219)scale(0.1 -0.1)">
       <use xlink:href="#DejaVuSans-2212"/>
       <use xlink:href="#DejaVuSans-31" x="83.789062"/>
       <use xlink:href="#DejaVuSans-30" x="147.412109"/>
      </g>
     </g>
    </g>
    <g id="ytick_3">
     <g id="line2d_6">
      <g>
       <use xlink:href="#m56b8b207ab" x="18" y="134.64" style="stroke: #000000; stroke-width: 0.8"/>
      </g>
     </g>
     <g id="text_6">
      <!-- −5 -->
      <g transform="translate(-3.742188 138.439219)scale(0.1 -0.1)">
       <use xlink:href="#DejaVuSans-2212"/>
       <use xlink:href="#DejaVuSans-35" x="83.789062"/>
      </g>
     </g>
    </g>
    <g id="ytick_4">
     <g id="line2d_7">
      <g>
       <use xlink:href="#m56b8b207ab" x="18" y="107.46" style="stroke: #000000; stroke-width: 0.8"/>
      </g>
     </g>
     <g id="text_7">
      <!-- 0 -->
      <g transform="translate(4.6375 111.259219)scale(0.1 -0.1)">
       <use xlink:href="#DejaVuSans-30"/>
      </g>
     </g>
    </g>
    <g id="ytick_5">
     <g id="line2d_8">
      <g>
       <use xlink:href="#m56b8b207ab" x="18" y="80.28" style="stroke: #000000; stroke-width: 0.8"/>
      </g>
     </g>
     <g id="text_8">
      <!-- 5 -->
      <g transform="translate(4.6375 84.079219)scale(0.1 -0.1)">
       <use xlink:href="#DejaVuSans-35"/>
      </g>
     </g>
    </g>
    <g id="ytick_6">
     <g id="line2d_9">
      <g>
       <use xlink:href="#m56b8b207ab" x="18" y="53.1" style="stroke: #000000; stroke-width: 0.8"/>
      </g>
     </g>
     <g id="text_9">
      <!-- 10 -->
      <g transform="translate(-1.725 56.899219)scale(0.1 -0.1)">
       <use xlink:href="#DejaVuSans-31"/>
       <use xlink:href="#DejaVuSans-30" x="63.623047"/>
      </g>
     </g>
    </g>
    <g id="ytick_7">
     <g id="line2d_10">
      <g>
       <use xlink:href="#m56b8b207ab" x="18" y="25.92" style="stroke: #000000; stroke-width: 0.8"/>
      </g>
     </g>
     <g id="text_10">
      <!-- 15 -->
      <g transform="translate(-1.725 29.719219)scale(0.1 -0.1)">
       <use xlink:href="#DejaVuSans-31"/>
       <use xlink:href="#DejaVuSans-35" x="63.623047"/>
      </g>
     </g>
    </g>
   </g>
   <g id="patch_3">
    <path d="M 18 189 
L 18 25.92 
" style="fill: none; stroke: #000000; stroke-width: 0.8; stroke-linejoin: miter; stroke-linecap: square"/>
   </g>
   <g id="patch_4">
    <path d="M 129.6 189 
L 129.6 25.92 
" style="fill: none; stroke: #000000; stroke-width: 0.8; stroke-linejoin: miter; stroke-linecap: square"/>
   </g>
   <g id="patch_5">
    <path d="M 18 189 
L 129.6 189 
" style="fill: none; stroke: #000000; stroke-width: 0.8; stroke-linejoin: miter; stroke-linecap: square"/>
   </g>
   <g id="patch_6">
    <path d="M 18 25.92 
L 129.6 25.92 
" style="fill: none; stroke: #000000; stroke-width: 0.8; stroke-linejoin: miter; stroke-linecap: square"/>
   </g>
  </g>
 </g>
 <defs>
  <clipPath id="pd52bca3d5d">
   <rect x="18" y="25.92" width="111.6" height="163.08"/>
  </clipPath>
 </defs>
</svg>
