<?xml version="1.0" encoding="utf-8" standalone="no"?>
<!DOCTYPE svg PUBLIC "-//W3C//DTD SVG 1.1//EN"
  "http://www.w3.org/Graphics/SVG/1.1/DTD/svg11.dtd">
<svg xmlns:xlink="http://www.w3.org/1999/xlink" width="144pt" height="216pt" viewBox="0 0 144 216" xmlns="http://www.w3.org/2000/svg" version="1.1">
 <metadata>
  <rdf:RDF xmlns:dc="http://purl.org/dc/elements/1.1/" xmlns:cc="http://creativecommons.org/ns#" xmlns:rdf="http://www.w3.org/1999/02/22-rdf-syntax-ns#">
   <cc:Work>
    <dc:type rdf:resource="http://purl.org/dc/dcmitype/StillImage"/>
    <dc:date>2022-06-23T14:46:04.299819</dc:date>
    <dc:format>image/svg+xml</dc:format>
    <dc:creator>
     <cc:Agent>
      <dc:title>Matplotlib v3.5.1, https://matplotlib.org/</dc:title>
     </cc:Agent>
    </dc:creator>
   </cc:Work>
  </rdf:RDF>
 </metadata>
 <defs>
  <style type="text/css">*{stroke-linejoin: round; stroke-linecap: butt}</style>
 </defs>
 <g id="figure_1">
  <g id="patch_1">
   <path d="M 0 216 
L 144 216 
L 144 0 
L 0 0 
L 0 216 
z
" style="fill: none"/>
  </g>
  <g id="axes_1">
   <g id="patch_2">
    <path d="M 18 189 
L 129.6 189 
L 129.6 25.92 
L 18 25.92 
z
" style="fill: #ffffff"/>
   </g>
   <g id="PathCollection_1">
    <defs>
     <path id="m6ae84a7e27" d="M 0 2.738613 
C 0.726289 2.738613 1.422928 2.450055 1.936492 1.936492 
C 2.450055 1.422928 2.738613 0.726289 2.738613 0 
C 2.738613 -0.726289 2.450055 -1.422928 1.936492 -1.936492 
C 1.422928 -2.450055 0.726289 -2.738613 0 -2.738613 
C -0.726289 -2.738613 -1.422928 -2.450055 -1.936492 -1.936492 
C -2.450055 -1.422928 -2.738613 -0.726289 -2.738613 0 
C -2.738613 0.726289 -2.450055 1.422928 -1.936492 1.936492 
C -1.422928 2.450055 -0.726289 2.738613 0 2.738613 
z
" style="stroke: #ff0000; stroke-width: 1.75"/>
    </defs>
    <g clip-path="url(#pd4eaed65c1)">
     <use xlink:href="#m6ae84a7e27" x="80.775" y="83.92143" style="fill: #ff0000; stroke: #ff0000; stroke-width: 1.75"/>
     <use xlink:href="#m6ae84a7e27" x="59.85" y="95.690715" style="fill: #ff0000; stroke: #ff0000; stroke-width: 1.75"/>
     <use xlink:href="#m6ae84a7e27" x="66.825" y="107.46" style="fill: #ff0000; stroke: #ff0000; stroke-width: 1.75"/>
     <use xlink:href="#m6ae84a7e27" x="80.775" y="107.46" style="fill: #ff0000; stroke: #ff0000; stroke-width: 1.75"/>
     <use xlink:href="#m6ae84a7e27" x="94.725" y="107.46" style="fill: #ff0000; stroke: #ff0000; stroke-width: 1.75"/>
     <use xlink:href="#m6ae84a7e27" x="59.85" y="119.229285" style="fill: #ff0000; stroke: #ff0000; stroke-width: 1.75"/>
     <use xlink:href="#m6ae84a7e27" x="80.775" y="130.99857" style="fill: #ff0000; stroke: #ff0000; stroke-width: 1.75"/>
    </g>
   </g>
   <g id="PathCollection_2">
    <defs>
     <path id="C0_0_b16412a4a1" d="M 0 2.738613 
C 0.726289 2.738613 1.422928 2.450055 1.936492 1.936492 
C 2.450055 1.422928 2.738613 0.726289 2.738613 -0 
C 2.738613 -0.726289 2.450055 -1.422928 1.936492 -1.936492 
C 1.422928 -2.450055 0.726289 -2.738613 0 -2.738613 
C -0.726289 -2.738613 -1.422928 -2.450055 -1.936492 -1.936492 
C -2.450055 -1.422928 -2.738613 -0.726289 -2.738613 0 
C -2.738613 0.726289 -2.450055 1.422928 -1.936492 1.936492 
C -1.422928 2.450055 -0.726289 2.738613 0 2.738613 
z
"/>
    </defs>
    <g clip-path="url(#pd4eaed65c1)">
     <use xlink:href="#C0_0_b16412a4a1" x="66.825" y="83.92143" style="fill: none; stroke: #ff0000; stroke-width: 1.75"/>
    </g>
    <g clip-path="url(#pd4eaed65c1)">
     <use xlink:href="#C0_0_b16412a4a1" x="73.8" y="95.690715" style="fill: none; stroke: #ff0000; stroke-width: 1.75"/>
    </g>
    <g clip-path="url(#pd4eaed65c1)">
     <use xlink:href="#C0_0_b16412a4a1" x="87.75" y="95.690715" style="fill: none; stroke: #ff0000; stroke-width: 1.75"/>
    </g>
    <g clip-path="url(#pd4eaed65c1)">
     <use xlink:href="#C0_0_b16412a4a1" x="52.875" y="107.46" style="fill: none; stroke: #ff0000; stroke-width: 1.75"/>
    </g>
    <g clip-path="url(#pd4eaed65c1)">
     <use xlink:href="#C0_0_b16412a4a1" x="73.8" y="119.229285" style="fill: none; stroke: #ff0000; stroke-width: 1.75"/>
    </g>
    <g clip-path="url(#pd4eaed65c1)">
     <use xlink:href="#C0_0_b16412a4a1" x="87.75" y="119.229285" style="fill: none; stroke: #ff0000; stroke-width: 1.75"/>
    </g>
    <g clip-path="url(#pd4eaed65c1)">
     <use xlink:href="#C0_0_b16412a4a1" x="66.825" y="130.99857" style="fill: none; stroke: #ff0000; stroke-width: 1.75"/>
    </g>
   </g>
   <g id="PathCollection_3">
    <path d="M 113.538817 101.569107 
C 114.131458 101.569107 114.699906 101.333648 115.118966 100.914587 
C 115.538027 100.495527 115.773486 99.927079 115.773486 99.334438 
C 115.773486 98.741797 115.538027 98.173349 115.118966 97.754288 
C 114.699906 97.335228 114.131458 97.099769 113.538817 97.099769 
C 112.946176 97.099769 112.377728 97.335228 111.958667 97.754288 
C 111.539606 98.173349 111.304148 98.741797 111.304148 99.334438 
C 111.304148 99.927079 111.539606 100.495527 111.958667 100.914587 
C 112.377728 101.333648 112.946176 101.569107 113.538817 101.569107 
z
" clip-path="url(#pd4eaed65c1)" style="stroke: #000000"/>
    <path d="M 109.849647 91.924152 
C 110.403337 91.924152 110.934425 91.704169 111.325943 91.312651 
C 111.717461 90.921132 111.937445 90.390045 111.937445 89.836355 
C 111.937445 89.282664 111.717461 88.751577 111.325943 88.360059 
C 110.934425 87.968541 110.403337 87.748557 109.849647 87.748557 
C 109.295957 87.748557 108.764869 87.968541 108.373351 88.360059 
C 107.981833 88.751577 107.761849 89.282664 107.761849 89.836355 
C 107.761849 90.390045 107.981833 90.921132 108.373351 91.312651 
C 108.764869 91.704169 109.295957 91.924152 109.849647 91.924152 
z
" clip-path="url(#pd4eaed65c1)" style="stroke: #000000"/>
    <path d="M 104.703081 78.659673 
C 105.296093 78.659673 105.864897 78.424067 106.28422 78.004744 
C 106.703543 77.585421 106.939149 77.016617 106.939149 76.423605 
C 106.939149 75.830593 106.703543 75.261789 106.28422 74.842466 
C 105.864897 74.423144 105.296093 74.187537 104.703081 74.187537 
C 104.110069 74.187537 103.541265 74.423144 103.121942 74.842466 
C 102.702619 75.261789 102.467013 75.830593 102.467013 76.423605 
C 102.467013 77.016617 102.702619 77.585421 103.121942 78.004744 
C 103.541265 78.424067 104.110069 78.659673 104.703081 78.659673 
z
" clip-path="url(#pd4eaed65c1)" style="stroke: #000000"/>
    <path d="M 100.135534 73.333611 
C 100.728916 73.333611 101.298075 73.097858 101.71766 72.678273 
C 102.137245 72.258688 102.372998 71.68953 102.372998 71.096147 
C 102.372998 70.502765 102.137245 69.933606 101.71766 69.514021 
C 101.298075 69.094436 100.728916 68.858683 100.135534 68.858683 
C 99.542152 68.858683 98.972993 69.094436 98.553408 69.514021 
C 98.133823 69.933606 97.89807 70.502765 97.89807 71.096147 
C 97.89807 71.68953 98.133823 72.258688 98.553408 72.678273 
C 98.972993 73.097858 99.542152 73.333611 100.135534 73.333611 
z
" clip-path="url(#pd4eaed65c1)" style="stroke: #000000"/>
    <path d="M 94.700942 61.388052 
C 95.293954 61.388052 95.862757 61.152445 96.28208 60.733122 
C 96.701403 60.3138 96.93701 59.744996 96.93701 59.151984 
C 96.93701 58.558971 96.701403 57.990168 96.28208 57.570845 
C 95.862757 57.151522 95.293954 56.915916 94.700942 56.915916 
C 94.107929 56.915916 93.539126 57.151522 93.119803 57.570845 
C 92.70048 57.990168 92.464874 58.558971 92.464874 59.151984 
C 92.464874 59.744996 92.70048 60.3138 93.119803 60.733122 
C 93.539126 61.152445 94.107929 61.388052 94.700942 61.388052 
z
" clip-path="url(#pd4eaed65c1)" style="stroke: #000000"/>
    <path d="M 90.288723 45.649504 
C 90.881735 45.649504 91.450539 45.413898 91.869862 44.994575 
C 92.289185 44.575252 92.524791 44.006448 92.524791 43.413436 
C 92.524791 42.820424 92.289185 42.25162 91.869862 41.832297 
C 91.450539 41.412974 90.881735 41.177368 90.288723 41.177368 
C 89.695711 41.177368 89.126907 41.412974 88.707584 41.832297 
C 88.288261 42.25162 88.052655 42.820424 88.052655 43.413436 
C 88.052655 44.006448 88.288261 44.575252 88.707584 44.994575 
C 89.126907 45.413898 89.695711 45.649504 90.288723 45.649504 
z
" clip-path="url(#pd4eaed65c1)" style="stroke: #000000"/>
    <path d="M 104.552852 116.27279 
C 105.146234 116.27279 105.715393 116.037036 106.134978 115.617452 
C 106.554563 115.197867 106.790316 114.628708 106.790316 114.035325 
C 106.790316 113.441943 106.554563 112.872784 106.134978 112.453199 
C 105.715393 112.033615 105.146234 111.797861 104.552852 111.797861 
C 103.95947 111.797861 103.390311 112.033615 102.970726 112.453199 
C 102.551141 112.872784 102.315388 113.441943 102.315388 114.035325 
C 102.315388 114.628708 102.551141 115.197867 102.970726 115.617452 
C 103.390311 116.037036 103.95947 116.27279 104.552852 116.27279 
z
" clip-path="url(#pd4eaed65c1)" style="stroke: #000000"/>
    <path d="M 95.980206 85.822977 
C 96.573589 85.822977 97.142748 85.587224 97.562333 85.167639 
C 97.981917 84.748055 98.217671 84.178896 98.217671 83.585513 
C 98.217671 82.992131 97.981917 82.422972 97.562333 82.003387 
C 97.142748 81.583802 96.573589 81.348049 95.980206 81.348049 
C 95.386824 81.348049 94.817665 81.583802 94.39808 82.003387 
C 93.978496 82.422972 93.742742 82.992131 93.742742 83.585513 
C 93.742742 84.178896 93.978496 84.748055 94.39808 85.167639 
C 94.817665 85.587224 95.386824 85.822977 95.980206 85.822977 
z
" clip-path="url(#pd4eaed65c1)" style="stroke: #000000"/>
    <path d="M 84.585762 64.153648 
C 85.157658 64.153648 85.706209 63.926431 86.110601 63.522039 
C 86.514993 63.117647 86.74221 62.569097 86.74221 61.9972 
C 86.74221 61.425303 86.514993 60.876753 86.110601 60.472361 
C 85.706209 60.067969 85.157658 59.840752 84.585762 59.840752 
C 84.013865 59.840752 83.465315 60.067969 83.060923 60.472361 
C 82.656531 60.876753 82.429314 61.425303 82.429314 61.9972 
C 82.429314 62.569097 82.656531 63.117647 83.060923 63.522039 
C 83.465315 63.926431 84.013865 64.153648 84.585762 64.153648 
z
" clip-path="url(#pd4eaed65c1)" style="stroke: #000000"/>
    <path d="M 78.786689 52.153134 
C 79.328627 52.153134 79.848442 51.93782 80.23165 51.554612 
C 80.614858 51.171404 80.830172 50.651589 80.830172 50.109651 
C 80.830172 49.567713 80.614858 49.047898 80.23165 48.66469 
C 79.848442 48.281482 79.328627 48.066168 78.786689 48.066168 
C 78.244751 48.066168 77.724937 48.281482 77.341729 48.66469 
C 76.95852 49.047898 76.743206 49.567713 76.743206 50.109651 
C 76.743206 50.651589 76.95852 51.171404 77.341729 51.554612 
C 77.724937 51.93782 78.244751 52.153134 78.786689 52.153134 
z
" clip-path="url(#pd4eaed65c1)" style="stroke: #000000"/>
    <path d="M 75.381983 36.575958 
C 75.917997 36.575958 76.43213 36.362997 76.811149 35.983978 
C 77.190169 35.604959 77.403129 35.090826 77.403129 34.554812 
C 77.403129 34.018797 77.190169 33.504664 76.811149 33.125645 
C 76.43213 32.746626 75.917997 32.533665 75.381983 32.533665 
C 74.845968 32.533665 74.331836 32.746626 73.952816 33.125645 
C 73.573797 33.504664 73.360836 34.018797 73.360836 34.554812 
C 73.360836 35.090826 73.573797 35.604959 73.952816 35.983978 
C 74.331836 36.362997 74.845968 36.575958 75.381983 36.575958 
z
" clip-path="url(#pd4eaed65c1)" style="stroke: #000000"/>
    <path d="M 114.467865 170.568244 
C 115.003879 170.568244 115.518012 170.355283 115.897031 169.976264 
C 116.276051 169.597244 116.489011 169.083112 116.489011 168.547097 
C 116.489011 168.011083 116.276051 167.49695 115.897031 167.117931 
C 115.518012 166.738911 115.003879 166.525951 114.467865 166.525951 
C 113.93185 166.525951 113.417718 166.738911 113.038698 167.117931 
C 112.659679 167.49695 112.446718 168.011083 112.446718 168.547097 
C 112.446718 169.083112 112.659679 169.597244 113.038698 169.976264 
C 113.417718 170.355283 113.93185 170.568244 114.467865 170.568244 
z
" clip-path="url(#pd4eaed65c1)" style="stroke: #000000"/>
    <path d="M 102.022431 149.152916 
C 102.615444 149.152916 103.184247 148.91731 103.60357 148.497987 
C 104.022893 148.078664 104.258499 147.509861 104.258499 146.916848 
C 104.258499 146.323836 104.022893 145.755033 103.60357 145.33571 
C 103.184247 144.916387 102.615444 144.68078 102.022431 144.68078 
C 101.429419 144.68078 100.860615 144.916387 100.441293 145.33571 
C 100.02197 145.755033 99.786363 146.323836 99.786363 146.916848 
C 99.786363 147.509861 100.02197 148.078664 100.441293 148.497987 
C 100.860615 148.91731 101.429419 149.152916 102.022431 149.152916 
z
" clip-path="url(#pd4eaed65c1)" style="stroke: #000000"/>
    <path d="M 98.350769 137.480195 
C 98.943782 137.480195 99.512585 137.244588 99.931908 136.825265 
C 100.351231 136.405942 100.586837 135.837139 100.586837 135.244127 
C 100.586837 134.651114 100.351231 134.082311 99.931908 133.662988 
C 99.512585 133.243665 98.943782 133.008059 98.350769 133.008059 
C 97.757757 133.008059 97.188954 133.243665 96.769631 133.662988 
C 96.350308 134.082311 96.114702 134.651114 96.114702 135.244127 
C 96.114702 135.837139 96.350308 136.405942 96.769631 136.825265 
C 97.188954 137.244588 97.757757 137.480195 98.350769 137.480195 
z
" clip-path="url(#pd4eaed65c1)" style="stroke: #000000"/>
    <path d="M 94.214171 118.41455 
C 94.743538 118.41455 95.251295 118.204231 95.625614 117.829912 
C 95.999933 117.455592 96.210253 116.947835 96.210253 116.418468 
C 96.210253 115.889101 95.999933 115.381344 95.625614 115.007025 
C 95.251295 114.632706 94.743538 114.422386 94.214171 114.422386 
C 93.684803 114.422386 93.177047 114.632706 92.802727 115.007025 
C 92.428408 115.381344 92.218088 115.889101 92.218088 116.418468 
C 92.218088 116.947835 92.428408 117.455592 92.802727 117.829912 
C 93.177047 118.204231 93.684803 118.41455 94.214171 118.41455 
z
" clip-path="url(#pd4eaed65c1)" style="stroke: #000000"/>
    <path d="M 81.207001 87.246186 
C 81.744016 87.246186 82.259109 87.032827 82.638836 86.6531 
C 83.018563 86.273373 83.231922 85.75828 83.231922 85.221265 
C 83.231922 84.68425 83.018563 84.169157 82.638836 83.78943 
C 82.259109 83.409702 81.744016 83.196344 81.207001 83.196344 
C 80.669985 83.196344 80.154893 83.409702 79.775165 83.78943 
C 79.395438 84.169157 79.18208 84.68425 79.18208 85.221265 
C 79.18208 85.75828 79.395438 86.273373 79.775165 86.6531 
C 80.154893 87.032827 80.669985 87.246186 81.207001 87.246186 
z
" clip-path="url(#pd4eaed65c1)" style="stroke: #000000"/>
    <path d="M 77.311818 64.538401 
C 77.905201 64.538401 78.47436 64.302648 78.893944 63.883063 
C 79.313529 63.463478 79.549282 62.894319 79.549282 62.300937 
C 79.549282 61.707554 79.313529 61.138395 78.893944 60.718811 
C 78.47436 60.299226 77.905201 60.063473 77.311818 60.063473 
C 76.718436 60.063473 76.149277 60.299226 75.729692 60.718811 
C 75.310107 61.138395 75.074354 61.707554 75.074354 62.300937 
C 75.074354 62.894319 75.310107 63.463478 75.729692 63.883063 
C 76.149277 64.302648 76.718436 64.538401 77.311818 64.538401 
z
" clip-path="url(#pd4eaed65c1)" style="stroke: #000000"/>
    <path d="M 61.452651 32.846987 
C 61.998907 32.846987 62.522864 32.629957 62.909126 32.243695 
C 63.295388 31.857433 63.512418 31.333476 63.512418 30.78722 
C 63.512418 30.240963 63.295388 29.717006 62.909126 29.330744 
C 62.522864 28.944483 61.998907 28.727453 61.452651 28.727453 
C 60.906394 28.727453 60.382437 28.944483 59.996175 29.330744 
C 59.609914 29.717006 59.392884 30.240963 59.392884 30.78722 
C 59.392884 31.333476 59.609914 31.857433 59.996175 32.243695 
C 60.382437 32.629957 60.906394 32.846987 61.452651 32.846987 
z
" clip-path="url(#pd4eaed65c1)" style="stroke: #000000"/>
    <path d="M 102.321707 174.790247 
C 102.858222 174.790247 103.372836 174.577087 103.752209 174.197713 
C 104.131583 173.818339 104.344743 173.303726 104.344743 172.76721 
C 104.344743 172.230695 104.131583 171.716081 103.752209 171.336708 
C 103.372836 170.957334 102.858222 170.744174 102.321707 170.744174 
C 101.785191 170.744174 101.270578 170.957334 100.891204 171.336708 
C 100.51183 171.716081 100.29867 172.230695 100.29867 172.76721 
C 100.29867 173.303726 100.51183 173.818339 100.891204 174.197713 
C 101.270578 174.577087 101.785191 174.790247 102.321707 174.790247 
z
" clip-path="url(#pd4eaed65c1)" style="stroke: #000000"/>
    <path d="M 94.928142 151.837834 
C 95.521154 151.837834 96.089958 151.602228 96.509281 151.182905 
C 96.928604 150.763582 97.16421 150.194778 97.16421 149.601766 
C 97.16421 149.008754 96.928604 148.43995 96.509281 148.020627 
C 96.089958 147.601304 95.521154 147.365698 94.928142 147.365698 
C 94.33513 147.365698 93.766326 147.601304 93.347003 148.020627 
C 92.92768 148.43995 92.692074 149.008754 92.692074 149.601766 
C 92.692074 150.194778 92.92768 150.763582 93.347003 151.182905 
C 93.766326 151.602228 94.33513 151.837834 94.928142 151.837834 
z
" clip-path="url(#pd4eaed65c1)" style="stroke: #000000"/>
    <path d="M 91.02337 144.111591 
C 91.616752 144.111591 92.185911 143.875838 92.605496 143.456253 
C 93.025081 143.036668 93.260834 142.467509 93.260834 141.874127 
C 93.260834 141.280744 93.025081 140.711585 92.605496 140.292001 
C 92.185911 139.872416 91.616752 139.636662 91.02337 139.636662 
C 90.429987 139.636662 89.860828 139.872416 89.441244 140.292001 
C 89.021659 140.711585 88.785905 141.280744 88.785905 141.874127 
C 88.785905 142.467509 89.021659 143.036668 89.441244 143.456253 
C 89.860828 143.875838 90.429987 144.111591 91.02337 144.111591 
z
" clip-path="url(#pd4eaed65c1)" style="stroke: #000000"/>
    <path d="M 82.496118 135.710435 
C 83.033133 135.710435 83.548226 135.497076 83.927953 135.117349 
C 84.30768 134.737622 84.521039 134.222529 84.521039 133.685514 
C 84.521039 133.148499 84.30768 132.633406 83.927953 132.253679 
C 83.548226 131.873951 83.033133 131.660593 82.496118 131.660593 
C 81.959102 131.660593 81.44401 131.873951 81.064282 132.253679 
C 80.684555 132.633406 80.471197 133.148499 80.471197 133.685514 
C 80.471197 134.222529 80.684555 134.737622 81.064282 135.117349 
C 81.44401 135.497076 81.959102 135.710435 82.496118 135.710435 
z
" clip-path="url(#pd4eaed65c1)" style="stroke: #000000"/>
    <path d="M 86.103442 122.553925 
C 86.808876 122.553925 87.485513 122.273653 87.98433 121.774835 
C 88.483148 121.276018 88.76342 120.599381 88.76342 119.893946 
C 88.76342 119.188512 88.483148 118.511875 87.98433 118.013058 
C 87.485513 117.51424 86.808876 117.233968 86.103442 117.233968 
C 85.398007 117.233968 84.72137 117.51424 84.222553 118.013058 
C 83.723735 118.511875 83.443463 119.188512 83.443463 119.893946 
C 83.443463 120.599381 83.723735 121.276018 84.222553 121.774835 
C 84.72137 122.273653 85.398007 122.553925 86.103442 122.553925 
z
" clip-path="url(#pd4eaed65c1)" style="stroke: #000000"/>
    <path d="M 77.13128 110.03284 
C 77.836715 110.03284 78.513351 109.752568 79.012169 109.253751 
C 79.510986 108.754933 79.791259 108.078296 79.791259 107.372862 
C 79.791259 106.667427 79.510986 105.99079 79.012169 105.491973 
C 78.513351 104.993155 77.836715 104.712883 77.13128 104.712883 
C 76.425845 104.712883 75.749209 104.993155 75.250391 105.491973 
C 74.751574 105.99079 74.471301 106.667427 74.471301 107.372862 
C 74.471301 108.078296 74.751574 108.754933 75.250391 109.253751 
C 75.749209 109.752568 76.425845 110.03284 77.13128 110.03284 
z
" clip-path="url(#pd4eaed65c1)" style="stroke: #000000"/>
    <path d="M 77.96754 101.501671 
C 78.672974 101.501671 79.349611 101.221398 79.848429 100.722581 
C 80.347246 100.223763 80.627518 99.547127 80.627518 98.841692 
C 80.627518 98.136257 80.347246 97.459621 79.848429 96.960803 
C 79.349611 96.461986 78.672974 96.181713 77.96754 96.181713 
C 77.262105 96.181713 76.585469 96.461986 76.086651 96.960803 
C 75.587833 97.459621 75.307561 98.136257 75.307561 98.841692 
C 75.307561 99.547127 75.587833 100.223763 76.086651 100.722581 
C 76.585469 101.221398 77.262105 101.501671 77.96754 101.501671 
z
" clip-path="url(#pd4eaed65c1)" style="stroke: #000000"/>
    <path d="M 72.619707 94.253771 
C 73.25684 94.253771 73.867964 94.000635 74.318485 93.550113 
C 74.769007 93.099592 75.022143 92.488468 75.022143 91.851335 
C 75.022143 91.214201 74.769007 90.603077 74.318485 90.152556 
C 73.867964 89.702035 73.25684 89.448899 72.619707 89.448899 
C 71.982573 89.448899 71.371449 89.702035 70.920928 90.152556 
C 70.470407 90.603077 70.217271 91.214201 70.217271 91.851335 
C 70.217271 92.488468 70.470407 93.099592 70.920928 93.550113 
C 71.371449 94.000635 71.982573 94.253771 72.619707 94.253771 
z
" clip-path="url(#pd4eaed65c1)" style="stroke: #000000"/>
    <path d="M 73.260253 84.94488 
C 73.965467 84.94488 74.641892 84.664696 75.140554 84.166034 
C 75.639216 83.667372 75.919401 82.990947 75.919401 82.285733 
C 75.919401 81.580518 75.639216 80.904093 75.140554 80.405431 
C 74.641892 79.906769 73.965467 79.626585 73.260253 79.626585 
C 72.555038 79.626585 71.878613 79.906769 71.379951 80.405431 
C 70.881289 80.904093 70.601105 81.580518 70.601105 82.285733 
C 70.601105 82.990947 70.881289 83.667372 71.379951 84.166034 
C 71.878613 84.664696 72.555038 84.94488 73.260253 84.94488 
z
" clip-path="url(#pd4eaed65c1)" style="stroke: #000000"/>
    <path d="M 63.982717 59.154316 
C 64.57573 59.154316 65.144533 58.91871 65.563856 58.499387 
C 65.983179 58.080064 66.218785 57.51126 66.218785 56.918248 
C 66.218785 56.325236 65.983179 55.756432 65.563856 55.337109 
C 65.144533 54.917786 64.57573 54.68218 63.982717 54.68218 
C 63.389705 54.68218 62.820902 54.917786 62.401579 55.337109 
C 61.982256 55.756432 61.746649 56.325236 61.746649 56.918248 
C 61.746649 57.51126 61.982256 58.080064 62.401579 58.499387 
C 62.820902 58.91871 63.389705 59.154316 63.982717 59.154316 
z
" clip-path="url(#pd4eaed65c1)" style="stroke: #000000"/>
    <path d="M 53.557649 39.683155 
C 53.755934 39.683155 53.946125 39.604375 54.086334 39.464166 
C 54.226543 39.323957 54.305323 39.133766 54.305323 38.935481 
C 54.305323 38.737195 54.226543 38.547004 54.086334 38.406795 
C 53.946125 38.266586 53.755934 38.187806 53.557649 38.187806 
C 53.359363 38.187806 53.169172 38.266586 53.028963 38.406795 
C 52.888754 38.547004 52.809974 38.737195 52.809974 38.935481 
C 52.809974 39.133766 52.888754 39.323957 53.028963 39.464166 
C 53.169172 39.604375 53.359363 39.683155 53.557649 39.683155 
z
" clip-path="url(#pd4eaed65c1)" style="stroke: #000000"/>
    <path d="M 75.851835 134.089529 
C 76.412671 134.089529 76.950612 133.866707 77.347183 133.470136 
C 77.743754 133.073564 77.966577 132.535623 77.966577 131.974787 
C 77.966577 131.413951 77.743754 130.876009 77.347183 130.479438 
C 76.950612 130.082867 76.412671 129.860044 75.851835 129.860044 
C 75.290998 129.860044 74.753057 130.082867 74.356486 130.479438 
C 73.959915 130.876009 73.737092 131.413951 73.737092 131.974787 
C 73.737092 132.535623 73.959915 133.073564 74.356486 133.470136 
C 74.753057 133.866707 75.290998 134.089529 75.851835 134.089529 
z
" clip-path="url(#pd4eaed65c1)" style="stroke: #000000"/>
    <path d="M 61.245077 97.494976 
C 61.864122 97.494976 62.457896 97.249027 62.895626 96.811296 
C 63.333357 96.373565 63.579306 95.779792 63.579306 95.160747 
C 63.579306 94.541702 63.333357 93.947929 62.895626 93.510198 
C 62.457896 93.072467 61.864122 92.826518 61.245077 92.826518 
C 60.626033 92.826518 60.032259 93.072467 59.594528 93.510198 
C 59.156798 93.947929 58.910849 94.541702 58.910849 95.160747 
C 58.910849 95.779792 59.156798 96.373565 59.594528 96.811296 
C 60.032259 97.249027 60.626033 97.494976 61.245077 97.494976 
z
" clip-path="url(#pd4eaed65c1)" style="stroke: #000000"/>
    <path d="M 60.161563 87.590823 
C 60.866998 87.590823 61.543635 87.310551 62.042452 86.811734 
C 62.54127 86.312916 62.821542 85.636279 62.821542 84.930845 
C 62.821542 84.22541 62.54127 83.548774 62.042452 83.049956 
C 61.543635 82.551138 60.866998 82.270866 60.161563 82.270866 
C 59.456129 82.270866 58.779492 82.551138 58.280675 83.049956 
C 57.781857 83.548774 57.501585 84.22541 57.501585 84.930845 
C 57.501585 85.636279 57.781857 86.312916 58.280675 86.811734 
C 58.779492 87.310551 59.456129 87.590823 60.161563 87.590823 
z
" clip-path="url(#pd4eaed65c1)" style="stroke: #000000"/>
    <path d="M 67.213407 139.658179 
C 67.918621 139.658179 68.595047 139.377995 69.093709 138.879333 
C 69.59237 138.380671 69.872555 137.704246 69.872555 136.999031 
C 69.872555 136.293817 69.59237 135.617392 69.093709 135.11873 
C 68.595047 134.620068 67.918621 134.339883 67.213407 134.339883 
C 66.508193 134.339883 65.831767 134.620068 65.333105 135.11873 
C 64.834444 135.617392 64.554259 136.293817 64.554259 136.999031 
C 64.554259 137.704246 64.834444 138.380671 65.333105 138.879333 
C 65.831767 139.377995 66.508193 139.658179 67.213407 139.658179 
z
" clip-path="url(#pd4eaed65c1)" style="stroke: #000000"/>
    <path d="M 60.087019 132.280157 
C 60.792233 132.280157 61.468659 131.999972 61.967321 131.50131 
C 62.465982 131.002649 62.746167 130.326223 62.746167 129.621009 
C 62.746167 128.915794 62.465982 128.239369 61.967321 127.740707 
C 61.468659 127.242045 60.792233 126.961861 60.087019 126.961861 
C 59.381805 126.961861 58.705379 127.242045 58.206717 127.740707 
C 57.708056 128.239369 57.427871 128.915794 57.427871 129.621009 
C 57.427871 130.326223 57.708056 131.002649 58.206717 131.50131 
C 58.705379 131.999972 59.381805 132.280157 60.087019 132.280157 
z
" clip-path="url(#pd4eaed65c1)" style="stroke: #000000"/>
    <path d="M 58.993056 116.116488 
C 59.438199 116.116488 59.86517 115.939631 60.179934 115.624867 
C 60.494698 115.310104 60.671555 114.883133 60.671555 114.43799 
C 60.671555 113.992847 60.494698 113.565876 60.179934 113.251112 
C 59.86517 112.936349 59.438199 112.759491 58.993056 112.759491 
C 58.547913 112.759491 58.120942 112.936349 57.806179 113.251112 
C 57.491415 113.565876 57.314558 113.992847 57.314558 114.43799 
C 57.314558 114.883133 57.491415 115.310104 57.806179 115.624867 
C 58.120942 115.939631 58.547913 116.116488 58.993056 116.116488 
z
" clip-path="url(#pd4eaed65c1)" style="stroke: #000000"/>
    <path d="M 48.64347 94.735425 
C 49.092931 94.735425 49.524044 94.556852 49.841861 94.239035 
C 50.159678 93.921218 50.338251 93.490106 50.338251 93.040645 
C 50.338251 92.591183 50.159678 92.160071 49.841861 91.842254 
C 49.524044 91.524437 49.092931 91.345864 48.64347 91.345864 
C 48.194009 91.345864 47.762896 91.524437 47.445079 91.842254 
C 47.127262 92.160071 46.948689 92.591183 46.948689 93.040645 
C 46.948689 93.490106 47.127262 93.921218 47.445079 94.239035 
C 47.762896 94.556852 48.194009 94.735425 48.64347 94.735425 
z
" clip-path="url(#pd4eaed65c1)" style="stroke: #000000"/>
    <path d="M 47.004396 88.328677 
C 47.597408 88.328677 48.166211 88.093071 48.585534 87.673748 
C 49.004857 87.254425 49.240464 86.685621 49.240464 86.092609 
C 49.240464 85.499597 49.004857 84.930793 48.585534 84.51147 
C 48.166211 84.092147 47.597408 83.856541 47.004396 83.856541 
C 46.411383 83.856541 45.84258 84.092147 45.423257 84.51147 
C 45.003934 84.930793 44.768328 85.499597 44.768328 86.092609 
C 44.768328 86.685621 45.003934 87.254425 45.423257 87.673748 
C 45.84258 88.093071 46.411383 88.328677 47.004396 88.328677 
z
" clip-path="url(#pd4eaed65c1)" style="stroke: #000000"/>
    <path d="M 39.078823 77.770362 
C 39.503292 77.770362 39.910433 77.601719 40.210578 77.301574 
C 40.510723 77.001429 40.679366 76.594288 40.679366 76.169819 
C 40.679366 75.745351 40.510723 75.33821 40.210578 75.038065 
C 39.910433 74.73792 39.503292 74.569277 39.078823 74.569277 
C 38.654354 74.569277 38.247213 74.73792 37.947069 75.038065 
C 37.646924 75.33821 37.47828 75.745351 37.47828 76.169819 
C 37.47828 76.594288 37.646924 77.001429 37.947069 77.301574 
C 38.247213 77.601719 38.654354 77.770362 39.078823 77.770362 
z
" clip-path="url(#pd4eaed65c1)" style="stroke: #000000"/>
    <path d="M 49.486676 140.144196 
C 50.00363 140.144196 50.49948 139.938808 50.865021 139.573266 
C 51.230563 139.207725 51.435951 138.711875 51.435951 138.194921 
C 51.435951 137.677967 51.230563 137.182117 50.865021 136.816576 
C 50.49948 136.451034 50.00363 136.245647 49.486676 136.245647 
C 48.969722 136.245647 48.473872 136.451034 48.108331 136.816576 
C 47.742789 137.182117 47.537402 137.677967 47.537402 138.194921 
C 47.537402 138.711875 47.742789 139.207725 48.108331 139.573266 
C 48.473872 139.938808 48.969722 140.144196 49.486676 140.144196 
z
" clip-path="url(#pd4eaed65c1)" style="stroke: #000000"/>
    <path d="M 44.970759 120.753299 
C 45.564141 120.753299 46.1333 120.517546 46.552885 120.097961 
C 46.97247 119.678376 47.208223 119.109217 47.208223 118.515835 
C 47.208223 117.922452 46.97247 117.353293 46.552885 116.933709 
C 46.1333 116.514124 45.564141 116.27837 44.970759 116.27837 
C 44.377376 116.27837 43.808217 116.514124 43.388633 116.933709 
C 42.969048 117.353293 42.733294 117.922452 42.733294 118.515835 
C 42.733294 119.109217 42.969048 119.678376 43.388633 120.097961 
C 43.808217 120.517546 44.377376 120.753299 44.970759 120.753299 
z
" clip-path="url(#pd4eaed65c1)" style="stroke: #000000"/>
    <path d="M 34.800361 92.015691 
C 35.393373 92.015691 35.962177 91.780084 36.3815 91.360762 
C 36.800823 90.941439 37.036429 90.372635 37.036429 89.779623 
C 37.036429 89.186611 36.800823 88.617807 36.3815 88.198484 
C 35.962177 87.779161 35.393373 87.543555 34.800361 87.543555 
C 34.207349 87.543555 33.638545 87.779161 33.219222 88.198484 
C 32.799899 88.617807 32.564293 89.186611 32.564293 89.779623 
C 32.564293 90.372635 32.799899 90.941439 33.219222 91.360762 
C 33.638545 91.780084 34.207349 92.015691 34.800361 92.015691 
z
" clip-path="url(#pd4eaed65c1)" style="stroke: #000000"/>
    <path d="M 34.033423 81.014759 
C 34.317283 81.014759 34.589554 80.90198 34.790273 80.701261 
C 34.990992 80.500542 35.103771 80.228271 35.103771 79.944411 
C 35.103771 79.660552 34.990992 79.38828 34.790273 79.187561 
C 34.589554 78.986842 34.317283 78.874064 34.033423 78.874064 
C 33.749564 78.874064 33.477292 78.986842 33.276573 79.187561 
C 33.075854 79.38828 32.963076 79.660552 32.963076 79.944411 
C 32.963076 80.228271 33.075854 80.500542 33.276573 80.701261 
C 33.477292 80.90198 33.749564 81.014759 34.033423 81.014759 
z
" clip-path="url(#pd4eaed65c1)" style="stroke: #000000"/>
    <path d="M 50.700238 164.451886 
C 51.236253 164.451886 51.750385 164.238926 52.129405 163.859906 
C 52.508424 163.480887 52.721385 162.966754 52.721385 162.43074 
C 52.721385 161.894725 52.508424 161.380593 52.129405 161.001573 
C 51.750385 160.622554 51.236253 160.409593 50.700238 160.409593 
C 50.164224 160.409593 49.650091 160.622554 49.271072 161.001573 
C 48.892052 161.380593 48.679092 161.894725 48.679092 162.43074 
C 48.679092 162.966754 48.892052 163.480887 49.271072 163.859906 
C 49.650091 164.238926 50.164224 164.451886 50.700238 164.451886 
z
" clip-path="url(#pd4eaed65c1)" style="stroke: #000000"/>
    <path d="M 42.214328 137.830346 
C 42.715465 137.830346 43.196144 137.631242 43.550501 137.276885 
C 43.904858 136.922528 44.103962 136.441849 44.103962 135.940713 
C 44.103962 135.439576 43.904858 134.958897 43.550501 134.60454 
C 43.196144 134.250183 42.715465 134.051079 42.214328 134.051079 
C 41.713192 134.051079 41.232513 134.250183 40.878156 134.60454 
C 40.523799 134.958897 40.324695 135.439576 40.324695 135.940713 
C 40.324695 136.441849 40.523799 136.922528 40.878156 137.276885 
C 41.232513 137.631242 41.713192 137.830346 42.214328 137.830346 
z
" clip-path="url(#pd4eaed65c1)" style="stroke: #000000"/>
   </g>
   <g id="matplotlib.axis_1">
    <g id="xtick_1">
     <g id="line2d_1">
      <defs>
       <path id="m5f96d17ad6" d="M 0 0 
L 0 3.5 
" style="stroke: #000000; stroke-width: 0.8"/>
      </defs>
      <g>
       <use xlink:href="#m5f96d17ad6" x="18" y="189" style="stroke: #000000; stroke-width: 0.8"/>
      </g>
     </g>
     <g id="text_1">
      <!-- −10 -->
      <g transform="translate(7.447656 203.598437)scale(0.1 -0.1)">
       <defs>
        <path id="DejaVuSans-2212" d="M 678 2272 
L 4684 2272 
L 4684 1741 
L 678 1741 
L 678 2272 
z
" transform="scale(0.015625)"/>
        <path id="DejaVuSans-31" d="M 794 531 
L 1825 531 
L 1825 4091 
L 703 3866 
L 703 4441 
L 1819 4666 
L 2450 4666 
L 2450 531 
L 3481 531 
L 3481 0 
L 794 0 
L 794 531 
z
" transform="scale(0.015625)"/>
        <path id="DejaVuSans-30" d="M 2034 4250 
Q 1547 4250 1301 3770 
Q 1056 3291 1056 2328 
Q 1056 1369 1301 889 
Q 1547 409 2034 409 
Q 2525 409 2770 889 
Q 3016 1369 3016 2328 
Q 3016 3291 2770 3770 
Q 2525 4250 2034 4250 
z
M 2034 4750 
Q 2819 4750 3233 4129 
Q 3647 3509 3647 2328 
Q 3647 1150 3233 529 
Q 2819 -91 2034 -91 
Q 1250 -91 836 529 
Q 422 1150 422 2328 
Q 422 3509 836 4129 
Q 1250 4750 2034 4750 
z
" transform="scale(0.015625)"/>
       </defs>
       <use xlink:href="#DejaVuSans-2212"/>
       <use xlink:href="#DejaVuSans-31" x="83.789062"/>
       <use xlink:href="#DejaVuSans-30" x="147.412109"/>
      </g>
     </g>
    </g>
    <g id="xtick_2">
     <g id="line2d_2">
      <g>
       <use xlink:href="#m5f96d17ad6" x="73.8" y="189" style="stroke: #000000; stroke-width: 0.8"/>
      </g>
     </g>
     <g id="text_2">
      <!-- 0 -->
      <g transform="translate(70.61875 203.598437)scale(0.1 -0.1)">
       <use xlink:href="#DejaVuSans-30"/>
      </g>
     </g>
    </g>
    <g id="xtick_3">
     <g id="line2d_3">
      <g>
       <use xlink:href="#m5f96d17ad6" x="129.6" y="189" style="stroke: #000000; stroke-width: 0.8"/>
      </g>
     </g>
     <g id="text_3">
      <!-- 10 -->
      <g transform="translate(123.2375 203.598437)scale(0.1 -0.1)">
       <use xlink:href="#DejaVuSans-31"/>
       <use xlink:href="#DejaVuSans-30" x="63.623047"/>
      </g>
     </g>
    </g>
   </g>
   <g id="matplotlib.axis_2">
    <g id="ytick_1">
     <g id="line2d_4">
      <defs>
       <path id="m1da633fd54" d="M 0 0 
L -3.5 0 
" style="stroke: #000000; stroke-width: 0.8"/>
      </defs>
      <g>
       <use xlink:href="#m1da633fd54" x="18" y="189" style="stroke: #000000; stroke-width: 0.8"/>
      </g>
     </g>
     <g id="text_4">
      <!-- −15 -->
      <g transform="translate(-10.104688 192.799219)scale(0.1 -0.1)">
       <defs>
        <path id="DejaVuSans-35" d="M 691 4666 
L 3169 4666 
L 3169 4134 
L 1269 4134 
L 1269 2991 
Q 1406 3038 1543 3061 
Q 1681 3084 1819 3084 
Q 2600 3084 3056 2656 
Q 3513 2228 3513 1497 
Q 3513 744 3044 326 
Q 2575 -91 1722 -91 
Q 1428 -91 1123 -41 
Q 819 9 494 109 
L 494 744 
Q 775 591 1075 516 
Q 1375 441 1709 441 
Q 2250 441 2565 725 
Q 2881 1009 2881 1497 
Q 2881 1984 2565 2268 
Q 2250 2553 1709 2553 
Q 1456 2553 1204 2497 
Q 953 2441 691 2322 
L 691 4666 
z
" transform="scale(0.015625)"/>
       </defs>
       <use xlink:href="#DejaVuSans-2212"/>
       <use xlink:href="#DejaVuSans-31" x="83.789062"/>
       <use xlink:href="#DejaVuSans-35" x="147.412109"/>
      </g>
     </g>
    </g>
    <g id="ytick_2">
     <g id="line2d_5">
      <g>
       <use xlink:href="#m1da633fd54" x="18" y="161.82" style="stroke: #000000; stroke-width: 0.8"/>
      </g>
     </g>
     <g id="text_5">
      <!-- −10 -->
      <g transform="translate(-10.104688 165.619219)scale(0.1 -0.1)">
       <use xlink:href="#DejaVuSans-2212"/>
       <use xlink:href="#DejaVuSans-31" x="83.789062"/>
       <use xlink:href="#DejaVuSans-30" x="147.412109"/>
      </g>
     </g>
    </g>
    <g id="ytick_3">
     <g id="line2d_6">
      <g>
       <use xlink:href="#m1da633fd54" x="18" y="134.64" style="stroke: #000000; stroke-width: 0.8"/>
      </g>
     </g>
     <g id="text_6">
      <!-- −5 -->
      <g transform="translate(-3.742188 138.439219)scale(0.1 -0.1)">
       <use xlink:href="#DejaVuSans-2212"/>
       <use xlink:href="#DejaVuSans-35" x="83.789062"/>
      </g>
     </g>
    </g>
    <g id="ytick_4">
     <g id="line2d_7">
      <g>
       <use xlink:href="#m1da633fd54" x="18" y="107.46" style="stroke: #000000; stroke-width: 0.8"/>
      </g>
     </g>
     <g id="text_7">
      <!-- 0 -->
      <g transform="translate(4.6375 111.259219)scale(0.1 -0.1)">
       <use xlink:href="#DejaVuSans-30"/>
      </g>
     </g>
    </g>
    <g id="ytick_5">
     <g id="line2d_8">
      <g>
       <use xlink:href="#m1da633fd54" x="18" y="80.28" style="stroke: #000000; stroke-width: 0.8"/>
      </g>
     </g>
     <g id="text_8">
      <!-- 5 -->
      <g transform="translate(4.6375 84.079219)scale(0.1 -0.1)">
       <use xlink:href="#DejaVuSans-35"/>
      </g>
     </g>
    </g>
    <g id="ytick_6">
     <g id="line2d_9">
      <g>
       <use xlink:href="#m1da633fd54" x="18" y="53.1" style="stroke: #000000; stroke-width: 0.8"/>
      </g>
     </g>
     <g id="text_9">
      <!-- 10 -->
      <g transform="translate(-1.725 56.899219)scale(0.1 -0.1)">
       <use xlink:href="#DejaVuSans-31"/>
       <use xlink:href="#DejaVuSans-30" x="63.623047"/>
      </g>
     </g>
    </g>
    <g id="ytick_7">
     <g id="line2d_10">
      <g>
       <use xlink:href="#m1da633fd54" x="18" y="25.92" style="stroke: #000000; stroke-width: 0.8"/>
      </g>
     </g>
     <g id="text_10">
      <!-- 15 -->
      <g transform="translate(-1.725 29.719219)scale(0.1 -0.1)">
       <use xlink:href="#DejaVuSans-31"/>
       <use xlink:href="#DejaVuSans-35" x="63.623047"/>
      </g>
     </g>
    </g>
   </g>
   <g id="patch_3">
    <path d="M 18 189 
L 18 25.92 
" style="fill: none; stroke: #000000; stroke-width: 0.8; stroke-linejoin: miter; stroke-linecap: square"/>
   </g>
   <g id="patch_4">
    <path d="M 129.6 189 
L 129.6 25.92 
" style="fill: none; stroke: #000000; stroke-width: 0.8; stroke-linejoin: miter; stroke-linecap: square"/>
   </g>
   <g id="patch_5">
    <path d="M 18 189 
L 129.6 189 
" style="fill: none; stroke: #000000; stroke-width: 0.8; stroke-linejoin: miter; stroke-linecap: square"/>
   </g>
   <g id="patch_6">
    <path d="M 18 25.92 
L 129.6 25.92 
" style="fill: none; stroke: #000000; stroke-width: 0.8; stroke-linejoin: miter; stroke-linecap: square"/>
   </g>
  </g>
 </g>
 <defs>
  <clipPath id="pd4eaed65c1">
   <rect x="18" y="25.92" width="111.6" height="163.08"/>
  </clipPath>
 </defs>
</svg>
