<?xml version="1.0" encoding="utf-8" standalone="no"?>
<!DOCTYPE svg PUBLIC "-//W3C//DTD SVG 1.1//EN"
  "http://www.w3.org/Graphics/SVG/1.1/DTD/svg11.dtd">
<svg xmlns:xlink="http://www.w3.org/1999/xlink" width="144pt" height="216pt" viewBox="0 0 144 216" xmlns="http://www.w3.org/2000/svg" version="1.1">
 <metadata>
  <rdf:RDF xmlns:dc="http://purl.org/dc/elements/1.1/" xmlns:cc="http://creativecommons.org/ns#" xmlns:rdf="http://www.w3.org/1999/02/22-rdf-syntax-ns#">
   <cc:Work>
    <dc:type rdf:resource="http://purl.org/dc/dcmitype/StillImage"/>
    <dc:date>2022-06-23T14:53:18.478185</dc:date>
    <dc:format>image/svg+xml</dc:format>
    <dc:creator>
     <cc:Agent>
      <dc:title>Matplotlib v3.5.1, https://matplotlib.org/</dc:title>
     </cc:Agent>
    </dc:creator>
   </cc:Work>
  </rdf:RDF>
 </metadata>
 <defs>
  <style type="text/css">*{stroke-linejoin: round; stroke-linecap: butt}</style>
 </defs>
 <g id="figure_1">
  <g id="patch_1">
   <path d="M 0 216 
L 144 216 
L 144 0 
L 0 0 
L 0 216 
z
" style="fill: none"/>
  </g>
  <g id="axes_1">
   <g id="patch_2">
    <path d="M 18 189 
L 129.6 189 
L 129.6 25.92 
L 18 25.92 
z
" style="fill: #ffffff"/>
   </g>
   <g id="PathCollection_1">
    <defs>
     <path id="mc8e2f78c03" d="M 0 2.738613 
C 0.726289 2.738613 1.422928 2.450055 1.936492 1.936492 
C 2.450055 1.422928 2.738613 0.726289 2.738613 0 
C 2.738613 -0.726289 2.450055 -1.422928 1.936492 -1.936492 
C 1.422928 -2.450055 0.726289 -2.738613 0 -2.738613 
C -0.726289 -2.738613 -1.422928 -2.450055 -1.936492 -1.936492 
C -2.450055 -1.422928 -2.738613 -0.726289 -2.738613 0 
C -2.738613 0.726289 -2.450055 1.422928 -1.936492 1.936492 
C -1.422928 2.450055 -0.726289 2.738613 0 2.738613 
z
" style="stroke: #ff0000; stroke-width: 1.75"/>
    </defs>
    <g clip-path="url(#pe7a845944a)">
     <use xlink:href="#mc8e2f78c03" x="80.775" y="83.92143" style="fill: #ff0000; stroke: #ff0000; stroke-width: 1.75"/>
     <use xlink:href="#mc8e2f78c03" x="59.85" y="95.690715" style="fill: #ff0000; stroke: #ff0000; stroke-width: 1.75"/>
     <use xlink:href="#mc8e2f78c03" x="66.825" y="107.46" style="fill: #ff0000; stroke: #ff0000; stroke-width: 1.75"/>
     <use xlink:href="#mc8e2f78c03" x="80.775" y="107.46" style="fill: #ff0000; stroke: #ff0000; stroke-width: 1.75"/>
     <use xlink:href="#mc8e2f78c03" x="94.725" y="107.46" style="fill: #ff0000; stroke: #ff0000; stroke-width: 1.75"/>
     <use xlink:href="#mc8e2f78c03" x="59.85" y="119.229285" style="fill: #ff0000; stroke: #ff0000; stroke-width: 1.75"/>
     <use xlink:href="#mc8e2f78c03" x="80.775" y="130.99857" style="fill: #ff0000; stroke: #ff0000; stroke-width: 1.75"/>
    </g>
   </g>
   <g id="PathCollection_2">
    <defs>
     <path id="C0_0_97dde14956" d="M 0 2.738613 
C 0.726289 2.738613 1.422928 2.450055 1.936492 1.936492 
C 2.450055 1.422928 2.738613 0.726289 2.738613 -0 
C 2.738613 -0.726289 2.450055 -1.422928 1.936492 -1.936492 
C 1.422928 -2.450055 0.726289 -2.738613 0 -2.738613 
C -0.726289 -2.738613 -1.422928 -2.450055 -1.936492 -1.936492 
C -2.450055 -1.422928 -2.738613 -0.726289 -2.738613 0 
C -2.738613 0.726289 -2.450055 1.422928 -1.936492 1.936492 
C -1.422928 2.450055 -0.726289 2.738613 0 2.738613 
z
"/>
    </defs>
    <g clip-path="url(#pe7a845944a)">
     <use xlink:href="#C0_0_97dde14956" x="66.825" y="83.92143" style="fill: none; stroke: #ff0000; stroke-width: 1.75"/>
    </g>
    <g clip-path="url(#pe7a845944a)">
     <use xlink:href="#C0_0_97dde14956" x="73.8" y="95.690715" style="fill: none; stroke: #ff0000; stroke-width: 1.75"/>
    </g>
    <g clip-path="url(#pe7a845944a)">
     <use xlink:href="#C0_0_97dde14956" x="87.75" y="95.690715" style="fill: none; stroke: #ff0000; stroke-width: 1.75"/>
    </g>
    <g clip-path="url(#pe7a845944a)">
     <use xlink:href="#C0_0_97dde14956" x="52.875" y="107.46" style="fill: none; stroke: #ff0000; stroke-width: 1.75"/>
    </g>
    <g clip-path="url(#pe7a845944a)">
     <use xlink:href="#C0_0_97dde14956" x="73.8" y="119.229285" style="fill: none; stroke: #ff0000; stroke-width: 1.75"/>
    </g>
    <g clip-path="url(#pe7a845944a)">
     <use xlink:href="#C0_0_97dde14956" x="87.75" y="119.229285" style="fill: none; stroke: #ff0000; stroke-width: 1.75"/>
    </g>
    <g clip-path="url(#pe7a845944a)">
     <use xlink:href="#C0_0_97dde14956" x="66.825" y="130.99857" style="fill: none; stroke: #ff0000; stroke-width: 1.75"/>
    </g>
   </g>
   <g id="PathCollection_3">
    <path d="M 102.659629 123.430136 
C 102.792231 123.430136 102.919419 123.377453 103.013183 123.28369 
C 103.106946 123.189926 103.159629 123.062738 103.159629 122.930136 
C 103.159629 122.797535 103.106946 122.670347 103.013183 122.576583 
C 102.919419 122.48282 102.792231 122.430136 102.659629 122.430136 
C 102.527028 122.430136 102.399839 122.48282 102.306076 122.576583 
C 102.212312 122.670347 102.159629 122.797535 102.159629 122.930136 
C 102.159629 123.062738 102.212312 123.189926 102.306076 123.28369 
C 102.399839 123.377453 102.527028 123.430136 102.659629 123.430136 
z
" clip-path="url(#pe7a845944a)" style="stroke: #000000"/>
    <path d="M 98.789024 113.420003 
C 98.976551 113.420003 99.156423 113.345498 99.289024 113.212896 
C 99.421626 113.080294 99.496131 112.900423 99.496131 112.712896 
C 99.496131 112.525369 99.421626 112.345498 99.289024 112.212896 
C 99.156423 112.080294 98.976551 112.005789 98.789024 112.005789 
C 98.601498 112.005789 98.421626 112.080294 98.289024 112.212896 
C 98.156423 112.345498 98.081918 112.525369 98.081918 112.712896 
C 98.081918 112.900423 98.156423 113.080294 98.289024 113.212896 
C 98.421626 113.345498 98.601498 113.420003 98.789024 113.420003 
z
" clip-path="url(#pe7a845944a)" style="stroke: #000000"/>
    <path d="M 94.502199 110.146615 
C 95.151812 110.146615 95.774905 109.888522 96.23425 109.429176 
C 96.693595 108.969831 96.951689 108.346738 96.951689 107.697126 
C 96.951689 107.047513 96.693595 106.42442 96.23425 105.965075 
C 95.774905 105.50573 95.151812 105.247636 94.502199 105.247636 
C 93.852587 105.247636 93.229494 105.50573 92.770149 105.965075 
C 92.310803 106.42442 92.05271 107.047513 92.05271 107.697126 
C 92.05271 108.346738 92.310803 108.969831 92.770149 109.429176 
C 93.229494 109.888522 93.852587 110.146615 94.502199 110.146615 
z
" clip-path="url(#pe7a845944a)" style="stroke: #000000"/>
    <path d="M 92.916212 106.201351 
C 93.406565 106.201351 93.8769 106.006532 94.223632 105.6598 
C 94.570365 105.313068 94.765184 104.842732 94.765184 104.352379 
C 94.765184 103.862026 94.570365 103.39169 94.223632 103.044958 
C 93.8769 102.698226 93.406565 102.503406 92.916212 102.503406 
C 92.425858 102.503406 91.955523 102.698226 91.608791 103.044958 
C 91.262059 103.39169 91.067239 103.862026 91.067239 104.352379 
C 91.067239 104.842732 91.262059 105.313068 91.608791 105.6598 
C 91.955523 106.006532 92.425858 106.201351 92.916212 106.201351 
z
" clip-path="url(#pe7a845944a)" style="stroke: #000000"/>
    <path d="M 88.19712 83.99383 
C 88.432922 83.99383 88.659099 83.900145 88.825836 83.733407 
C 88.992574 83.56667 89.086259 83.340493 89.086259 83.10469 
C 89.086259 82.868888 88.992574 82.642711 88.825836 82.475974 
C 88.659099 82.309236 88.432922 82.215551 88.19712 82.215551 
C 87.961317 82.215551 87.735141 82.309236 87.568403 82.475974 
C 87.401665 82.642711 87.30798 82.868888 87.30798 83.10469 
C 87.30798 83.340493 87.401665 83.56667 87.568403 83.733407 
C 87.735141 83.900145 87.961317 83.99383 88.19712 83.99383 
z
" clip-path="url(#pe7a845944a)" style="stroke: #000000"/>
    <path d="M 84.167287 79.411907 
C 84.299889 79.411907 84.427077 79.359224 84.520841 79.26546 
C 84.614604 79.171697 84.667287 79.044508 84.667287 78.911907 
C 84.667287 78.779305 84.614604 78.652117 84.520841 78.558353 
C 84.427077 78.46459 84.299889 78.411907 84.167287 78.411907 
C 84.034686 78.411907 83.907497 78.46459 83.813734 78.558353 
C 83.719971 78.652117 83.667287 78.779305 83.667287 78.911907 
C 83.667287 79.044508 83.719971 79.171697 83.813734 79.26546 
C 83.907497 79.359224 84.034686 79.411907 84.167287 79.411907 
z
" clip-path="url(#pe7a845944a)" style="stroke: #000000"/>
    <path d="M 91.579617 119.382279 
C 92.005093 119.382279 92.4132 119.213236 92.714056 118.912379 
C 93.014913 118.611522 93.183957 118.203415 93.183957 117.777939 
C 93.183957 117.352463 93.014913 116.944356 92.714056 116.643499 
C 92.4132 116.342642 92.005093 116.173599 91.579617 116.173599 
C 91.154141 116.173599 90.746034 116.342642 90.445177 116.643499 
C 90.14432 116.944356 89.975276 117.352463 89.975276 117.777939 
C 89.975276 118.203415 90.14432 118.611522 90.445177 118.912379 
C 90.746034 119.213236 91.154141 119.382279 91.579617 119.382279 
z
" clip-path="url(#pe7a845944a)" style="stroke: #000000"/>
    <path d="M 90.651267 110.474707 
C 90.808958 110.474707 90.960211 110.412056 91.071715 110.300551 
C 91.183219 110.189047 91.245871 110.037794 91.245871 109.880103 
C 91.245871 109.722412 91.183219 109.571159 91.071715 109.459655 
C 90.960211 109.348151 90.808958 109.2855 90.651267 109.2855 
C 90.493576 109.2855 90.342323 109.348151 90.230819 109.459655 
C 90.119315 109.571159 90.056663 109.722412 90.056663 109.880103 
C 90.056663 110.037794 90.119315 110.189047 90.230819 110.300551 
C 90.342323 110.412056 90.493576 110.474707 90.651267 110.474707 
z
" clip-path="url(#pe7a845944a)" style="stroke: #000000"/>
    <path d="M 83.224922 96.901101 
C 83.46641 96.901101 83.698041 96.805157 83.868799 96.634398 
C 84.039557 96.46364 84.135502 96.23201 84.135502 95.990521 
C 84.135502 95.749032 84.039557 95.517402 83.868799 95.346643 
C 83.698041 95.175885 83.46641 95.079941 83.224922 95.079941 
C 82.983433 95.079941 82.751802 95.175885 82.581044 95.346643 
C 82.410286 95.517402 82.314341 95.749032 82.314341 95.990521 
C 82.314341 96.23201 82.410286 96.46364 82.581044 96.634398 
C 82.751802 96.805157 82.983433 96.901101 83.224922 96.901101 
z
" clip-path="url(#pe7a845944a)" style="stroke: #000000"/>
    <path d="M 85.127702 95.87767 
C 85.674432 95.87767 86.198843 95.660452 86.58544 95.273855 
C 86.972037 94.887258 87.189255 94.362847 87.189255 93.816117 
C 87.189255 93.269387 86.972037 92.744976 86.58544 92.358379 
C 86.198843 91.971782 85.674432 91.754564 85.127702 91.754564 
C 84.580972 91.754564 84.056561 91.971782 83.669964 92.358379 
C 83.283367 92.744976 83.066149 93.269387 83.066149 93.816117 
C 83.066149 94.362847 83.283367 94.887258 83.669964 95.273855 
C 84.056561 95.660452 84.580972 95.87767 85.127702 95.87767 
z
" clip-path="url(#pe7a845944a)" style="stroke: #000000"/>
    <path d="M 79.734091 88.669335 
C 80.346514 88.669335 80.933936 88.426017 81.366984 87.992968 
C 81.800033 87.55992 82.043351 86.972498 82.043351 86.360075 
C 82.043351 85.747652 81.800033 85.16023 81.366984 84.727181 
C 80.933936 84.294133 80.346514 84.050815 79.734091 84.050815 
C 79.121668 84.050815 78.534246 84.294133 78.101197 84.727181 
C 77.668149 85.16023 77.424831 85.747652 77.424831 86.360075 
C 77.424831 86.972498 77.668149 87.55992 78.101197 87.992968 
C 78.534246 88.426017 79.121668 88.669335 79.734091 88.669335 
z
" clip-path="url(#pe7a845944a)" style="stroke: #000000"/>
    <path d="M 78.805993 78.855105 
C 78.963684 78.855105 79.114937 78.792454 79.226441 78.68095 
C 79.337946 78.569446 79.400597 78.418193 79.400597 78.260502 
C 79.400597 78.102811 79.337946 77.951558 79.226441 77.840054 
C 79.114937 77.72855 78.963684 77.665898 78.805993 77.665898 
C 78.648303 77.665898 78.497049 77.72855 78.385545 77.840054 
C 78.274041 77.951558 78.21139 78.102811 78.21139 78.260502 
C 78.21139 78.418193 78.274041 78.569446 78.385545 78.68095 
C 78.497049 78.792454 78.648303 78.855105 78.805993 78.855105 
z
" clip-path="url(#pe7a845944a)" style="stroke: #000000"/>
    <path d="M 91.08786 123.987536 
C 91.408057 123.987536 91.715184 123.86032 91.941598 123.633906 
C 92.168012 123.407492 92.295228 123.100365 92.295228 122.780167 
C 92.295228 122.45997 92.168012 122.152843 91.941598 121.926429 
C 91.715184 121.700015 91.408057 121.572799 91.08786 121.572799 
C 90.767662 121.572799 90.460535 121.700015 90.234121 121.926429 
C 90.007707 122.152843 89.880491 122.45997 89.880491 122.780167 
C 89.880491 123.100365 90.007707 123.407492 90.234121 123.633906 
C 90.460535 123.86032 90.767662 123.987536 91.08786 123.987536 
z
" clip-path="url(#pe7a845944a)" style="stroke: #000000"/>
    <path d="M 85.532232 119.187923 
C 86.048063 119.187923 86.542836 118.982981 86.907584 118.618233 
C 87.272331 118.253485 87.477273 117.758712 87.477273 117.242881 
C 87.477273 116.72705 87.272331 116.232277 86.907584 115.867529 
C 86.542836 115.502781 86.048063 115.29784 85.532232 115.29784 
C 85.0164 115.29784 84.521627 115.502781 84.156879 115.867529 
C 83.792132 116.232277 83.58719 116.72705 83.58719 117.242881 
C 83.58719 117.758712 83.792132 118.253485 84.156879 118.618233 
C 84.521627 118.982981 85.0164 119.187923 85.532232 119.187923 
z
" clip-path="url(#pe7a845944a)" style="stroke: #000000"/>
    <path d="M 84.588058 113.416768 
C 84.927617 113.416768 85.253315 113.28186 85.493419 113.041755 
C 85.733524 112.80165 85.868432 112.475953 85.868432 112.136393 
C 85.868432 111.796834 85.733524 111.471136 85.493419 111.231032 
C 85.253315 110.990927 84.927617 110.856018 84.588058 110.856018 
C 84.248498 110.856018 83.922801 110.990927 83.682696 111.231032 
C 83.442591 111.471136 83.307683 111.796834 83.307683 112.136393 
C 83.307683 112.475953 83.442591 112.80165 83.682696 113.041755 
C 83.922801 113.28186 84.248498 113.416768 84.588058 113.416768 
z
" clip-path="url(#pe7a845944a)" style="stroke: #000000"/>
    <path d="M 82.682966 108.925503 
C 83.235743 108.925503 83.765955 108.705882 84.156827 108.31501 
C 84.5477 107.924137 84.767321 107.393925 84.767321 106.841148 
C 84.767321 106.28837 84.5477 105.758159 84.156827 105.367286 
C 83.765955 104.976413 83.235743 104.756793 82.682966 104.756793 
C 82.130188 104.756793 81.599977 104.976413 81.209104 105.367286 
C 80.818231 105.758159 80.59861 106.28837 80.59861 106.841148 
C 80.59861 107.393925 80.818231 107.924137 81.209104 108.31501 
C 81.599977 108.705882 82.130188 108.925503 82.682966 108.925503 
z
" clip-path="url(#pe7a845944a)" style="stroke: #000000"/>
    <path d="M 78.399909 94.614048 
C 78.699337 94.614048 78.986541 94.495084 79.198269 94.283357 
C 79.409996 94.071629 79.52896 93.784425 79.52896 93.484997 
C 79.52896 93.18557 79.409996 92.898366 79.198269 92.686638 
C 78.986541 92.474911 78.699337 92.355947 78.399909 92.355947 
C 78.100482 92.355947 77.813277 92.474911 77.60155 92.686638 
C 77.389823 92.898366 77.270859 93.18557 77.270859 93.484997 
C 77.270859 93.784425 77.389823 94.071629 77.60155 94.283357 
C 77.813277 94.495084 78.100482 94.614048 78.399909 94.614048 
z
" clip-path="url(#pe7a845944a)" style="stroke: #000000"/>
    <path d="M 78.671917 89.171671 
C 79.055468 89.171671 79.423361 89.019285 79.694573 88.748073 
C 79.965784 88.476862 80.118171 88.108968 80.118171 87.725417 
C 80.118171 87.341866 79.965784 86.973973 79.694573 86.702761 
C 79.423361 86.43155 79.055468 86.279163 78.671917 86.279163 
C 78.288366 86.279163 77.920472 86.43155 77.649261 86.702761 
C 77.378049 86.973973 77.225663 87.341866 77.225663 87.725417 
C 77.225663 88.108968 77.378049 88.476862 77.649261 88.748073 
C 77.920472 89.019285 78.288366 89.171671 78.671917 89.171671 
z
" clip-path="url(#pe7a845944a)" style="stroke: #000000"/>
    <path d="M 83.263385 134.786404 
C 83.7999 134.786404 84.314514 134.573244 84.693887 134.19387 
C 85.073261 133.814497 85.286421 133.299883 85.286421 132.763368 
C 85.286421 132.226852 85.073261 131.712239 84.693887 131.332865 
C 84.314514 130.953491 83.7999 130.740331 83.263385 130.740331 
C 82.726869 130.740331 82.212256 130.953491 81.832882 131.332865 
C 81.453508 131.712239 81.240348 132.226852 81.240348 132.763368 
C 81.240348 133.299883 81.453508 133.814497 81.832882 134.19387 
C 82.212256 134.573244 82.726869 134.786404 83.263385 134.786404 
z
" clip-path="url(#pe7a845944a)" style="stroke: #000000"/>
    <path d="M 76.694809 123.894507 
C 76.82741 123.894507 76.954599 123.841824 77.048362 123.74806 
C 77.142126 123.654297 77.194809 123.527108 77.194809 123.394507 
C 77.194809 123.261905 77.142126 123.134717 77.048362 123.040953 
C 76.954599 122.94719 76.82741 122.894507 76.694809 122.894507 
C 76.562207 122.894507 76.435019 122.94719 76.341255 123.040953 
C 76.247492 123.134717 76.194809 123.261905 76.194809 123.394507 
C 76.194809 123.527108 76.247492 123.654297 76.341255 123.74806 
C 76.435019 123.841824 76.562207 123.894507 76.694809 123.894507 
z
" clip-path="url(#pe7a845944a)" style="stroke: #000000"/>
    <path d="M 76.918908 110.830278 
C 77.273265 110.830278 77.613156 110.68949 77.863725 110.438922 
C 78.114293 110.188354 78.25508 109.848462 78.25508 109.494105 
C 78.25508 109.139748 78.114293 108.799857 77.863725 108.549289 
C 77.613156 108.29872 77.273265 108.157933 76.918908 108.157933 
C 76.564551 108.157933 76.224659 108.29872 75.974091 108.549289 
C 75.723523 108.799857 75.582735 109.139748 75.582735 109.494105 
C 75.582735 109.848462 75.723523 110.188354 75.974091 110.438922 
C 76.224659 110.68949 76.564551 110.830278 76.918908 110.830278 
z
" clip-path="url(#pe7a845944a)" style="stroke: #000000"/>
    <path d="M 75.434302 97.369632 
C 76.061649 97.369632 76.663387 97.120384 77.106988 96.676783 
C 77.55059 96.233181 77.799837 95.631444 77.799837 95.004097 
C 77.799837 94.376749 77.55059 93.775012 77.106988 93.33141 
C 76.663387 92.887809 76.061649 92.638561 75.434302 92.638561 
C 74.806955 92.638561 74.205218 92.887809 73.761616 93.33141 
C 73.318015 93.775012 73.068767 94.376749 73.068767 95.004097 
C 73.068767 95.631444 73.318015 96.233181 73.761616 96.676783 
C 74.205218 97.120384 74.806955 97.369632 75.434302 97.369632 
z
" clip-path="url(#pe7a845944a)" style="stroke: #000000"/>
    <path d="M 70.712485 93.418741 
C 71.148594 93.418741 71.5669 93.245473 71.875275 92.937098 
C 72.183651 92.628722 72.356919 92.210416 72.356919 91.774307 
C 72.356919 91.338198 72.183651 90.919892 71.875275 90.611517 
C 71.5669 90.303141 71.148594 90.129873 70.712485 90.129873 
C 70.276376 90.129873 69.85807 90.303141 69.549694 90.611517 
C 69.241319 90.919892 69.068051 91.338198 69.068051 91.774307 
C 69.068051 92.210416 69.241319 92.628722 69.549694 92.937098 
C 69.85807 93.245473 70.276376 93.418741 70.712485 93.418741 
z
" clip-path="url(#pe7a845944a)" style="stroke: #000000"/>
    <path d="M 66.947754 86.01923 
C 67.535507 86.01923 68.099268 85.785713 68.514872 85.370109 
C 68.930477 84.954504 69.163994 84.390744 69.163994 83.80299 
C 69.163994 83.215236 68.930477 82.651476 68.514872 82.235872 
C 68.099268 81.820267 67.535507 81.58675 66.947754 81.58675 
C 66.36 81.58675 65.79624 81.820267 65.380635 82.235872 
C 64.965031 82.651476 64.731514 83.215236 64.731514 83.80299 
C 64.731514 84.390744 64.965031 84.954504 65.380635 85.370109 
C 65.79624 85.785713 66.36 86.01923 66.947754 86.01923 
z
" clip-path="url(#pe7a845944a)" style="stroke: #000000"/>
    <path d="M 78.007494 135.107191 
C 78.527223 135.107191 79.025734 134.900701 79.393238 134.533197 
C 79.760742 134.165694 79.967232 133.667182 79.967232 133.147453 
C 79.967232 132.627725 79.760742 132.129213 79.393238 131.761709 
C 79.025734 131.394206 78.527223 131.187716 78.007494 131.187716 
C 77.487765 131.187716 76.989254 131.394206 76.62175 131.761709 
C 76.254246 132.129213 76.047756 132.627725 76.047756 133.147453 
C 76.047756 133.667182 76.254246 134.165694 76.62175 134.533197 
C 76.989254 134.900701 77.487765 135.107191 78.007494 135.107191 
z
" clip-path="url(#pe7a845944a)" style="stroke: #000000"/>
    <path d="M 77.344779 132.067616 
C 77.779012 132.067616 78.195519 131.895094 78.502568 131.588044 
C 78.809617 131.280995 78.98214 130.864488 78.98214 130.430255 
C 78.98214 129.996022 78.809617 129.579515 78.502568 129.272466 
C 78.195519 128.965417 77.779012 128.792894 77.344779 128.792894 
C 76.910546 128.792894 76.494039 128.965417 76.18699 129.272466 
C 75.87994 129.579515 75.707418 129.996022 75.707418 130.430255 
C 75.707418 130.864488 75.87994 131.280995 76.18699 131.588044 
C 76.494039 131.895094 76.910546 132.067616 77.344779 132.067616 
z
" clip-path="url(#pe7a845944a)" style="stroke: #000000"/>
    <path d="M 74.634208 124.071372 
C 74.977648 124.071372 75.307069 123.934921 75.549918 123.692072 
C 75.792767 123.449223 75.929218 123.119802 75.929218 122.776362 
C 75.929218 122.432921 75.792767 122.1035 75.549918 121.860651 
C 75.307069 121.617802 74.977648 121.481352 74.634208 121.481352 
C 74.290767 121.481352 73.961346 121.617802 73.718497 121.860651 
C 73.475648 122.1035 73.339198 122.432921 73.339198 122.776362 
C 73.339198 123.119802 73.475648 123.449223 73.718497 123.692072 
C 73.961346 123.934921 74.290767 124.071372 74.634208 124.071372 
z
" clip-path="url(#pe7a845944a)" style="stroke: #000000"/>
    <path d="M 72.485386 118.797386 
C 73.027809 118.797386 73.548088 118.581879 73.931639 118.198328 
C 74.31519 117.814777 74.530697 117.294497 74.530697 116.752074 
C 74.530697 116.209651 74.31519 115.689371 73.931639 115.30582 
C 73.548088 114.922269 73.027809 114.706762 72.485386 114.706762 
C 71.942963 114.706762 71.422683 114.922269 71.039132 115.30582 
C 70.655581 115.689371 70.440074 116.209651 70.440074 116.752074 
C 70.440074 117.294497 70.655581 117.814777 71.039132 118.198328 
C 71.422683 118.581879 71.942963 118.797386 72.485386 118.797386 
z
" clip-path="url(#pe7a845944a)" style="stroke: #000000"/>
    <path d="M 69.372522 111.972559 
C 69.731979 111.972559 70.076762 111.829746 70.330936 111.575571 
C 70.585111 111.321396 70.727925 110.976613 70.727925 110.617156 
C 70.727925 110.257699 70.585111 109.912916 70.330936 109.658742 
C 70.076762 109.404567 69.731979 109.261753 69.372522 109.261753 
C 69.013065 109.261753 68.668281 109.404567 68.414107 109.658742 
C 68.159932 109.912916 68.017119 110.257699 68.017119 110.617156 
C 68.017119 110.976613 68.159932 111.321396 68.414107 111.575571 
C 68.668281 111.829746 69.013065 111.972559 69.372522 111.972559 
z
" clip-path="url(#pe7a845944a)" style="stroke: #000000"/>
    <path d="M 66.260288 106.897257 
C 66.770975 106.897257 67.260813 106.694359 67.621923 106.333249 
C 67.983033 105.972139 68.185931 105.4823 68.185931 104.971614 
C 68.185931 104.460928 67.983033 103.971089 67.621923 103.609979 
C 67.260813 103.248869 66.770975 103.045972 66.260288 103.045972 
C 65.749602 103.045972 65.259763 103.248869 64.898653 103.609979 
C 64.537544 103.971089 64.334646 104.460928 64.334646 104.971614 
C 64.334646 105.4823 64.537544 105.972139 64.898653 106.333249 
C 65.259763 106.694359 65.749602 106.897257 66.260288 106.897257 
z
" clip-path="url(#pe7a845944a)" style="stroke: #000000"/>
    <path d="M 59.420825 81.416547 
C 59.578516 81.416547 59.729769 81.353895 59.841274 81.242391 
C 59.952778 81.130887 60.015429 80.979634 60.015429 80.821943 
C 60.015429 80.664252 59.952778 80.512999 59.841274 80.401495 
C 59.729769 80.289991 59.578516 80.22734 59.420825 80.22734 
C 59.263135 80.22734 59.111881 80.289991 59.000377 80.401495 
C 58.888873 80.512999 58.826222 80.664252 58.826222 80.821943 
C 58.826222 80.979634 58.888873 81.130887 59.000377 81.242391 
C 59.111881 81.353895 59.263135 81.416547 59.420825 81.416547 
z
" clip-path="url(#pe7a845944a)" style="stroke: #000000"/>
    <path d="M 69.586454 132.823217 
C 70.154595 132.823217 70.699543 132.597493 71.101279 132.195756 
C 71.503015 131.79402 71.72874 131.249072 71.72874 130.680931 
C 71.72874 130.11279 71.503015 129.567842 71.101279 129.166106 
C 70.699543 128.76437 70.154595 128.538645 69.586454 128.538645 
C 69.018313 128.538645 68.473365 128.76437 68.071629 129.166106 
C 67.669893 129.567842 67.444168 130.11279 67.444168 130.680931 
C 67.444168 131.249072 67.669893 131.79402 68.071629 132.195756 
C 68.473365 132.597493 69.018313 132.823217 69.586454 132.823217 
z
" clip-path="url(#pe7a845944a)" style="stroke: #000000"/>
    <path d="M 68.840551 129.670305 
C 69.240789 129.670305 69.624688 129.511289 69.907699 129.228278 
C 70.190709 128.945267 70.349726 128.561368 70.349726 128.161131 
C 70.349726 127.760893 70.190709 127.376994 69.907699 127.093983 
C 69.624688 126.810972 69.240789 126.651956 68.840551 126.651956 
C 68.440313 126.651956 68.056414 126.810972 67.773403 127.093983 
C 67.490392 127.376994 67.331376 127.760893 67.331376 128.161131 
C 67.331376 128.561368 67.490392 128.945267 67.773403 129.228278 
C 68.056414 129.511289 68.440313 129.670305 68.840551 129.670305 
z
" clip-path="url(#pe7a845944a)" style="stroke: #000000"/>
    <path d="M 68.196208 118.94055 
C 68.383735 118.94055 68.563607 118.866045 68.696208 118.733443 
C 68.82881 118.600842 68.903315 118.42097 68.903315 118.233443 
C 68.903315 118.045916 68.82881 117.866045 68.696208 117.733443 
C 68.563607 117.600842 68.383735 117.526336 68.196208 117.526336 
C 68.008682 117.526336 67.82881 117.600842 67.696208 117.733443 
C 67.563607 117.866045 67.489102 118.045916 67.489102 118.233443 
C 67.489102 118.42097 67.563607 118.600842 67.696208 118.733443 
C 67.82881 118.866045 68.008682 118.94055 68.196208 118.94055 
z
" clip-path="url(#pe7a845944a)" style="stroke: #000000"/>
    <path d="M 60.587575 109.522294 
C 60.897909 109.522294 61.195574 109.398997 61.415013 109.179558 
C 61.634452 108.960119 61.757749 108.662454 61.757749 108.352121 
C 61.757749 108.041787 61.634452 107.744122 61.415013 107.524683 
C 61.195574 107.305244 60.897909 107.181947 60.587575 107.181947 
C 60.277241 107.181947 59.979576 107.305244 59.760137 107.524683 
C 59.540698 107.744122 59.417401 108.041787 59.417401 108.352121 
C 59.417401 108.662454 59.540698 108.960119 59.760137 109.179558 
C 59.979576 109.398997 60.277241 109.522294 60.587575 109.522294 
z
" clip-path="url(#pe7a845944a)" style="stroke: #000000"/>
    <path d="M 56.983817 96.646813 
C 57.545963 96.646813 58.085161 96.423469 58.482658 96.025972 
C 58.880156 95.628475 59.103499 95.089277 59.103499 94.527131 
C 59.103499 93.964985 58.880156 93.425787 58.482658 93.02829 
C 58.085161 92.630792 57.545963 92.407449 56.983817 92.407449 
C 56.421671 92.407449 55.882473 92.630792 55.484976 93.02829 
C 55.087479 93.425787 54.864136 93.964985 54.864136 94.527131 
C 54.864136 95.089277 55.087479 95.628475 55.484976 96.025972 
C 55.882473 96.423469 56.421671 96.646813 56.983817 96.646813 
z
" clip-path="url(#pe7a845944a)" style="stroke: #000000"/>
    <path d="M 60.868576 126.448791 
C 61.026267 126.448791 61.17752 126.38614 61.289025 126.274636 
C 61.400529 126.163132 61.46318 126.011878 61.46318 125.854188 
C 61.46318 125.696497 61.400529 125.545243 61.289025 125.433739 
C 61.17752 125.322235 61.026267 125.259584 60.868576 125.259584 
C 60.710886 125.259584 60.559632 125.322235 60.448128 125.433739 
C 60.336624 125.545243 60.273973 125.696497 60.273973 125.854188 
C 60.273973 126.011878 60.336624 126.163132 60.448128 126.274636 
C 60.559632 126.38614 60.710886 126.448791 60.868576 126.448791 
z
" clip-path="url(#pe7a845944a)" style="stroke: #000000"/>
    <path d="M 57.174877 122.141966 
C 57.719706 122.141966 58.242293 121.925504 58.627545 121.540252 
C 59.012797 121.155 59.229259 120.632413 59.229259 120.087584 
C 59.229259 119.542756 59.012797 119.020169 58.627545 118.634917 
C 58.242293 118.249665 57.719706 118.033202 57.174877 118.033202 
C 56.630049 118.033202 56.107462 118.249665 55.72221 118.634917 
C 55.336958 119.020169 55.120495 119.542756 55.120495 120.087584 
C 55.120495 120.632413 55.336958 121.155 55.72221 121.540252 
C 56.107462 121.925504 56.630049 122.141966 57.174877 122.141966 
z
" clip-path="url(#pe7a845944a)" style="stroke: #000000"/>
    <path d="M 54.09081 110.22631 
C 54.625818 110.22631 55.138985 110.013749 55.517293 109.635442 
C 55.8956 109.257134 56.108161 108.743967 56.108161 108.208959 
C 56.108161 107.673952 55.8956 107.160784 55.517293 106.782477 
C 55.138985 106.404169 54.625818 106.191608 54.09081 106.191608 
C 53.555802 106.191608 53.042635 106.404169 52.664328 106.782477 
C 52.28602 107.160784 52.073459 107.673952 52.073459 108.208959 
C 52.073459 108.743967 52.28602 109.257134 52.664328 109.635442 
C 53.042635 110.013749 53.555802 110.22631 54.09081 110.22631 
z
" clip-path="url(#pe7a845944a)" style="stroke: #000000"/>
    <path d="M 49.747189 112.343788 
C 50.169622 112.343788 50.574811 112.175953 50.873516 111.877248 
C 51.172221 111.578543 51.340056 111.173355 51.340056 110.750921 
C 51.340056 110.328488 51.172221 109.9233 50.873516 109.624595 
C 50.574811 109.32589 50.169622 109.158055 49.747189 109.158055 
C 49.324756 109.158055 48.919568 109.32589 48.620863 109.624595 
C 48.322158 109.9233 48.154323 110.328488 48.154323 110.750921 
C 48.154323 111.173355 48.322158 111.578543 48.620863 111.877248 
C 48.919568 112.175953 49.324756 112.343788 49.747189 112.343788 
z
" clip-path="url(#pe7a845944a)" style="stroke: #000000"/>
    <path d="M 47.379607 105.695228 
C 47.60928 105.695228 47.829576 105.603978 47.991979 105.441575 
C 48.154383 105.279172 48.245632 105.058876 48.245632 104.829203 
C 48.245632 104.59953 48.154383 104.379234 47.991979 104.21683 
C 47.829576 104.054427 47.60928 103.963178 47.379607 103.963178 
C 47.149934 103.963178 46.929638 104.054427 46.767235 104.21683 
C 46.604832 104.379234 46.513582 104.59953 46.513582 104.829203 
C 46.513582 105.058876 46.604832 105.279172 46.767235 105.441575 
C 46.929638 105.603978 47.149934 105.695228 47.379607 105.695228 
z
" clip-path="url(#pe7a845944a)" style="stroke: #000000"/>
   </g>
   <g id="matplotlib.axis_1">
    <g id="xtick_1">
     <g id="line2d_1">
      <defs>
       <path id="m89dfd1e68d" d="M 0 0 
L 0 3.5 
" style="stroke: #000000; stroke-width: 0.8"/>
      </defs>
      <g>
       <use xlink:href="#m89dfd1e68d" x="18" y="189" style="stroke: #000000; stroke-width: 0.8"/>
      </g>
     </g>
     <g id="text_1">
      <!-- −10 -->
      <g transform="translate(7.447656 203.598437)scale(0.1 -0.1)">
       <defs>
        <path id="DejaVuSans-2212" d="M 678 2272 
L 4684 2272 
L 4684 1741 
L 678 1741 
L 678 2272 
z
" transform="scale(0.015625)"/>
        <path id="DejaVuSans-31" d="M 794 531 
L 1825 531 
L 1825 4091 
L 703 3866 
L 703 4441 
L 1819 4666 
L 2450 4666 
L 2450 531 
L 3481 531 
L 3481 0 
L 794 0 
L 794 531 
z
" transform="scale(0.015625)"/>
        <path id="DejaVuSans-30" d="M 2034 4250 
Q 1547 4250 1301 3770 
Q 1056 3291 1056 2328 
Q 1056 1369 1301 889 
Q 1547 409 2034 409 
Q 2525 409 2770 889 
Q 3016 1369 3016 2328 
Q 3016 3291 2770 3770 
Q 2525 4250 2034 4250 
z
M 2034 4750 
Q 2819 4750 3233 4129 
Q 3647 3509 3647 2328 
Q 3647 1150 3233 529 
Q 2819 -91 2034 -91 
Q 1250 -91 836 529 
Q 422 1150 422 2328 
Q 422 3509 836 4129 
Q 1250 4750 2034 4750 
z
" transform="scale(0.015625)"/>
       </defs>
       <use xlink:href="#DejaVuSans-2212"/>
       <use xlink:href="#DejaVuSans-31" x="83.789062"/>
       <use xlink:href="#DejaVuSans-30" x="147.412109"/>
      </g>
     </g>
    </g>
    <g id="xtick_2">
     <g id="line2d_2">
      <g>
       <use xlink:href="#m89dfd1e68d" x="73.8" y="189" style="stroke: #000000; stroke-width: 0.8"/>
      </g>
     </g>
     <g id="text_2">
      <!-- 0 -->
      <g transform="translate(70.61875 203.598437)scale(0.1 -0.1)">
       <use xlink:href="#DejaVuSans-30"/>
      </g>
     </g>
    </g>
    <g id="xtick_3">
     <g id="line2d_3">
      <g>
       <use xlink:href="#m89dfd1e68d" x="129.6" y="189" style="stroke: #000000; stroke-width: 0.8"/>
      </g>
     </g>
     <g id="text_3">
      <!-- 10 -->
      <g transform="translate(123.2375 203.598437)scale(0.1 -0.1)">
       <use xlink:href="#DejaVuSans-31"/>
       <use xlink:href="#DejaVuSans-30" x="63.623047"/>
      </g>
     </g>
    </g>
   </g>
   <g id="matplotlib.axis_2">
    <g id="ytick_1">
     <g id="line2d_4">
      <defs>
       <path id="m6e930b37b6" d="M 0 0 
L -3.5 0 
" style="stroke: #000000; stroke-width: 0.8"/>
      </defs>
      <g>
       <use xlink:href="#m6e930b37b6" x="18" y="189" style="stroke: #000000; stroke-width: 0.8"/>
      </g>
     </g>
     <g id="text_4">
      <!-- −15 -->
      <g transform="translate(-10.104688 192.799219)scale(0.1 -0.1)">
       <defs>
        <path id="DejaVuSans-35" d="M 691 4666 
L 3169 4666 
L 3169 4134 
L 1269 4134 
L 1269 2991 
Q 1406 3038 1543 3061 
Q 1681 3084 1819 3084 
Q 2600 3084 3056 2656 
Q 3513 2228 3513 1497 
Q 3513 744 3044 326 
Q 2575 -91 1722 -91 
Q 1428 -91 1123 -41 
Q 819 9 494 109 
L 494 744 
Q 775 591 1075 516 
Q 1375 441 1709 441 
Q 2250 441 2565 725 
Q 2881 1009 2881 1497 
Q 2881 1984 2565 2268 
Q 2250 2553 1709 2553 
Q 1456 2553 1204 2497 
Q 953 2441 691 2322 
L 691 4666 
z
" transform="scale(0.015625)"/>
       </defs>
       <use xlink:href="#DejaVuSans-2212"/>
       <use xlink:href="#DejaVuSans-31" x="83.789062"/>
       <use xlink:href="#DejaVuSans-35" x="147.412109"/>
      </g>
     </g>
    </g>
    <g id="ytick_2">
     <g id="line2d_5">
      <g>
       <use xlink:href="#m6e930b37b6" x="18" y="161.82" style="stroke: #000000; stroke-width: 0.8"/>
      </g>
     </g>
     <g id="text_5">
      <!-- −10 -->
      <g transform="translate(-10.104688 165.619219)scale(0.1 -0.1)">
       <use xlink:href="#DejaVuSans-2212"/>
       <use xlink:href="#DejaVuSans-31" x="83.789062"/>
       <use xlink:href="#DejaVuSans-30" x="147.412109"/>
      </g>
     </g>
    </g>
    <g id="ytick_3">
     <g id="line2d_6">
      <g>
       <use xlink:href="#m6e930b37b6" x="18" y="134.64" style="stroke: #000000; stroke-width: 0.8"/>
      </g>
     </g>
     <g id="text_6">
      <!-- −5 -->
      <g transform="translate(-3.742188 138.439219)scale(0.1 -0.1)">
       <use xlink:href="#DejaVuSans-2212"/>
       <use xlink:href="#DejaVuSans-35" x="83.789062"/>
      </g>
     </g>
    </g>
    <g id="ytick_4">
     <g id="line2d_7">
      <g>
       <use xlink:href="#m6e930b37b6" x="18" y="107.46" style="stroke: #000000; stroke-width: 0.8"/>
      </g>
     </g>
     <g id="text_7">
      <!-- 0 -->
      <g transform="translate(4.6375 111.259219)scale(0.1 -0.1)">
       <use xlink:href="#DejaVuSans-30"/>
      </g>
     </g>
    </g>
    <g id="ytick_5">
     <g id="line2d_8">
      <g>
       <use xlink:href="#m6e930b37b6" x="18" y="80.28" style="stroke: #000000; stroke-width: 0.8"/>
      </g>
     </g>
     <g id="text_8">
      <!-- 5 -->
      <g transform="translate(4.6375 84.079219)scale(0.1 -0.1)">
       <use xlink:href="#DejaVuSans-35"/>
      </g>
     </g>
    </g>
    <g id="ytick_6">
     <g id="line2d_9">
      <g>
       <use xlink:href="#m6e930b37b6" x="18" y="53.1" style="stroke: #000000; stroke-width: 0.8"/>
      </g>
     </g>
     <g id="text_9">
      <!-- 10 -->
      <g transform="translate(-1.725 56.899219)scale(0.1 -0.1)">
       <use xlink:href="#DejaVuSans-31"/>
       <use xlink:href="#DejaVuSans-30" x="63.623047"/>
      </g>
     </g>
    </g>
    <g id="ytick_7">
     <g id="line2d_10">
      <g>
       <use xlink:href="#m6e930b37b6" x="18" y="25.92" style="stroke: #000000; stroke-width: 0.8"/>
      </g>
     </g>
     <g id="text_10">
      <!-- 15 -->
      <g transform="translate(-1.725 29.719219)scale(0.1 -0.1)">
       <use xlink:href="#DejaVuSans-31"/>
       <use xlink:href="#DejaVuSans-35" x="63.623047"/>
      </g>
     </g>
    </g>
   </g>
   <g id="patch_3">
    <path d="M 18 189 
L 18 25.92 
" style="fill: none; stroke: #000000; stroke-width: 0.8; stroke-linejoin: miter; stroke-linecap: square"/>
   </g>
   <g id="patch_4">
    <path d="M 129.6 189 
L 129.6 25.92 
" style="fill: none; stroke: #000000; stroke-width: 0.8; stroke-linejoin: miter; stroke-linecap: square"/>
   </g>
   <g id="patch_5">
    <path d="M 18 189 
L 129.6 189 
" style="fill: none; stroke: #000000; stroke-width: 0.8; stroke-linejoin: miter; stroke-linecap: square"/>
   </g>
   <g id="patch_6">
    <path d="M 18 25.92 
L 129.6 25.92 
" style="fill: none; stroke: #000000; stroke-width: 0.8; stroke-linejoin: miter; stroke-linecap: square"/>
   </g>
  </g>
 </g>
 <defs>
  <clipPath id="pe7a845944a">
   <rect x="18" y="25.92" width="111.6" height="163.08"/>
  </clipPath>
 </defs>
</svg>
