<?xml version="1.0" encoding="utf-8" standalone="no"?>
<!DOCTYPE svg PUBLIC "-//W3C//DTD SVG 1.1//EN"
  "http://www.w3.org/Graphics/SVG/1.1/DTD/svg11.dtd">
<svg xmlns:xlink="http://www.w3.org/1999/xlink" width="144pt" height="216pt" viewBox="0 0 144 216" xmlns="http://www.w3.org/2000/svg" version="1.1">
 <metadata>
  <rdf:RDF xmlns:dc="http://purl.org/dc/elements/1.1/" xmlns:cc="http://creativecommons.org/ns#" xmlns:rdf="http://www.w3.org/1999/02/22-rdf-syntax-ns#">
   <cc:Work>
    <dc:type rdf:resource="http://purl.org/dc/dcmitype/StillImage"/>
    <dc:date>2022-06-23T14:55:00.061390</dc:date>
    <dc:format>image/svg+xml</dc:format>
    <dc:creator>
     <cc:Agent>
      <dc:title>Matplotlib v3.5.1, https://matplotlib.org/</dc:title>
     </cc:Agent>
    </dc:creator>
   </cc:Work>
  </rdf:RDF>
 </metadata>
 <defs>
  <style type="text/css">*{stroke-linejoin: round; stroke-linecap: butt}</style>
 </defs>
 <g id="figure_1">
  <g id="patch_1">
   <path d="M 0 216 
L 144 216 
L 144 0 
L 0 0 
L 0 216 
z
" style="fill: none"/>
  </g>
  <g id="axes_1">
   <g id="patch_2">
    <path d="M 18 189 
L 129.6 189 
L 129.6 25.92 
L 18 25.92 
z
" style="fill: #ffffff"/>
   </g>
   <g id="PathCollection_1">
    <defs>
     <path id="m853e9fb6d0" d="M 0 2.738613 
C 0.726289 2.738613 1.422928 2.450055 1.936492 1.936492 
C 2.450055 1.422928 2.738613 0.726289 2.738613 0 
C 2.738613 -0.726289 2.450055 -1.422928 1.936492 -1.936492 
C 1.422928 -2.450055 0.726289 -2.738613 0 -2.738613 
C -0.726289 -2.738613 -1.422928 -2.450055 -1.936492 -1.936492 
C -2.450055 -1.422928 -2.738613 -0.726289 -2.738613 0 
C -2.738613 0.726289 -2.450055 1.422928 -1.936492 1.936492 
C -1.422928 2.450055 -0.726289 2.738613 0 2.738613 
z
" style="stroke: #ff0000; stroke-width: 1.75"/>
    </defs>
    <g clip-path="url(#pd2d1015a92)">
     <use xlink:href="#m853e9fb6d0" x="66.825" y="83.92143" style="fill: #ff0000; stroke: #ff0000; stroke-width: 1.75"/>
     <use xlink:href="#m853e9fb6d0" x="87.75" y="95.690715" style="fill: #ff0000; stroke: #ff0000; stroke-width: 1.75"/>
     <use xlink:href="#m853e9fb6d0" x="66.825" y="107.46" style="fill: #ff0000; stroke: #ff0000; stroke-width: 1.75"/>
     <use xlink:href="#m853e9fb6d0" x="73.8" y="119.229285" style="fill: #ff0000; stroke: #ff0000; stroke-width: 1.75"/>
     <use xlink:href="#m853e9fb6d0" x="87.75" y="119.229285" style="fill: #ff0000; stroke: #ff0000; stroke-width: 1.75"/>
     <use xlink:href="#m853e9fb6d0" x="66.825" y="130.99857" style="fill: #ff0000; stroke: #ff0000; stroke-width: 1.75"/>
     <use xlink:href="#m853e9fb6d0" x="80.775" y="130.99857" style="fill: #ff0000; stroke: #ff0000; stroke-width: 1.75"/>
    </g>
   </g>
   <g id="PathCollection_2">
    <defs>
     <path id="C0_0_85e4bd5996" d="M 0 2.738613 
C 0.726289 2.738613 1.422928 2.450055 1.936492 1.936492 
C 2.450055 1.422928 2.738613 0.726289 2.738613 -0 
C 2.738613 -0.726289 2.450055 -1.422928 1.936492 -1.936492 
C 1.422928 -2.450055 0.726289 -2.738613 0 -2.738613 
C -0.726289 -2.738613 -1.422928 -2.450055 -1.936492 -1.936492 
C -2.450055 -1.422928 -2.738613 -0.726289 -2.738613 0 
C -2.738613 0.726289 -2.450055 1.422928 -1.936492 1.936492 
C -1.422928 2.450055 -0.726289 2.738613 0 2.738613 
z
"/>
    </defs>
    <g clip-path="url(#pd2d1015a92)">
     <use xlink:href="#C0_0_85e4bd5996" x="80.775" y="83.92143" style="fill: none; stroke: #ff0000; stroke-width: 1.75"/>
    </g>
    <g clip-path="url(#pd2d1015a92)">
     <use xlink:href="#C0_0_85e4bd5996" x="59.85" y="95.690715" style="fill: none; stroke: #ff0000; stroke-width: 1.75"/>
    </g>
    <g clip-path="url(#pd2d1015a92)">
     <use xlink:href="#C0_0_85e4bd5996" x="73.8" y="95.690715" style="fill: none; stroke: #ff0000; stroke-width: 1.75"/>
    </g>
    <g clip-path="url(#pd2d1015a92)">
     <use xlink:href="#C0_0_85e4bd5996" x="52.875" y="107.46" style="fill: none; stroke: #ff0000; stroke-width: 1.75"/>
    </g>
    <g clip-path="url(#pd2d1015a92)">
     <use xlink:href="#C0_0_85e4bd5996" x="80.775" y="107.46" style="fill: none; stroke: #ff0000; stroke-width: 1.75"/>
    </g>
    <g clip-path="url(#pd2d1015a92)">
     <use xlink:href="#C0_0_85e4bd5996" x="94.725" y="107.46" style="fill: none; stroke: #ff0000; stroke-width: 1.75"/>
    </g>
    <g clip-path="url(#pd2d1015a92)">
     <use xlink:href="#C0_0_85e4bd5996" x="59.85" y="119.229285" style="fill: none; stroke: #ff0000; stroke-width: 1.75"/>
    </g>
   </g>
   <g id="PathCollection_3">
    <path d="M 109.342891 64.66891 
C 109.61602 64.66891 109.877998 64.560395 110.071129 64.367264 
C 110.26426 64.174133 110.372775 63.912155 110.372775 63.639026 
C 110.372775 63.365898 110.26426 63.10392 110.071129 62.910789 
C 109.877998 62.717658 109.61602 62.609143 109.342891 62.609143 
C 109.069763 62.609143 108.807785 62.717658 108.614654 62.910789 
C 108.421523 63.10392 108.313008 63.365898 108.313008 63.639026 
C 108.313008 63.912155 108.421523 64.174133 108.614654 64.367264 
C 108.807785 64.560395 109.069763 64.66891 109.342891 64.66891 
z
" clip-path="url(#pd2d1015a92)" style="stroke: #000000"/>
    <path d="M 105.895356 57.593673 
C 106.093642 57.593673 106.283833 57.514893 106.424042 57.374684 
C 106.564251 57.234475 106.643031 57.044284 106.643031 56.845998 
C 106.643031 56.647713 106.564251 56.457522 106.424042 56.317313 
C 106.283833 56.177103 106.093642 56.098324 105.895356 56.098324 
C 105.697071 56.098324 105.50688 56.177103 105.366671 56.317313 
C 105.226462 56.457522 105.147682 56.647713 105.147682 56.845998 
C 105.147682 57.044284 105.226462 57.234475 105.366671 57.374684 
C 105.50688 57.514893 105.697071 57.593673 105.895356 57.593673 
z
" clip-path="url(#pd2d1015a92)" style="stroke: #000000"/>
    <path d="M 97.752449 48.266022 
C 98.345462 48.266022 98.914265 48.030415 99.333588 47.611092 
C 99.752911 47.19177 99.988517 46.622966 99.988517 46.029954 
C 99.988517 45.436941 99.752911 44.868138 99.333588 44.448815 
C 98.914265 44.029492 98.345462 43.793886 97.752449 43.793886 
C 97.159437 43.793886 96.590634 44.029492 96.171311 44.448815 
C 95.751988 44.868138 95.516381 45.436941 95.516381 46.029954 
C 95.516381 46.622966 95.751988 47.19177 96.171311 47.611092 
C 96.590634 48.030415 97.159437 48.266022 97.752449 48.266022 
z
" clip-path="url(#pd2d1015a92)" style="stroke: #000000"/>
    <path d="M 114.729221 123.540651 
C 115.265236 123.540651 115.779368 123.32769 116.158388 122.948671 
C 116.537407 122.569651 116.750368 122.055519 116.750368 121.519504 
C 116.750368 120.98349 116.537407 120.469357 116.158388 120.090338 
C 115.779368 119.711318 115.265236 119.498358 114.729221 119.498358 
C 114.193207 119.498358 113.679074 119.711318 113.300055 120.090338 
C 112.921035 120.469357 112.708075 120.98349 112.708075 121.519504 
C 112.708075 122.055519 112.921035 122.569651 113.300055 122.948671 
C 113.679074 123.32769 114.193207 123.540651 114.729221 123.540651 
z
" clip-path="url(#pd2d1015a92)" style="stroke: #000000"/>
    <path d="M 113.921564 115.826883 
C 114.514946 115.826883 115.084105 115.59113 115.50369 115.171545 
C 115.923274 114.75196 116.159028 114.182802 116.159028 113.589419 
C 116.159028 112.996037 115.923274 112.426878 115.50369 112.007293 
C 115.084105 111.587708 114.514946 111.351955 113.921564 111.351955 
C 113.328181 111.351955 112.759022 111.587708 112.339437 112.007293 
C 111.919853 112.426878 111.684099 112.996037 111.684099 113.589419 
C 111.684099 114.182802 111.919853 114.75196 112.339437 115.171545 
C 112.759022 115.59113 113.328181 115.826883 113.921564 115.826883 
z
" clip-path="url(#pd2d1015a92)" style="stroke: #000000"/>
    <path d="M 108.042418 100.421948 
C 108.635801 100.421948 109.204959 100.186195 109.624544 99.76661 
C 110.044129 99.347025 110.279882 98.777866 110.279882 98.184484 
C 110.279882 97.591101 110.044129 97.021942 109.624544 96.602358 
C 109.204959 96.182773 108.635801 95.947019 108.042418 95.947019 
C 107.449036 95.947019 106.879877 96.182773 106.460292 96.602358 
C 106.040707 97.021942 105.804954 97.591101 105.804954 98.184484 
C 105.804954 98.777866 106.040707 99.347025 106.460292 99.76661 
C 106.879877 100.186195 107.449036 100.421948 108.042418 100.421948 
z
" clip-path="url(#pd2d1015a92)" style="stroke: #000000"/>
    <path d="M 101.898174 66.404489 
C 102.491557 66.404489 103.060716 66.168736 103.4803 65.749151 
C 103.899885 65.329566 104.135639 64.760407 104.135639 64.167025 
C 104.135639 63.573642 103.899885 63.004484 103.4803 62.584899 
C 103.060716 62.165314 102.491557 61.929561 101.898174 61.929561 
C 101.304792 61.929561 100.735633 62.165314 100.316048 62.584899 
C 99.896463 63.004484 99.66071 63.573642 99.66071 64.167025 
C 99.66071 64.760407 99.896463 65.329566 100.316048 65.749151 
C 100.735633 66.168736 101.304792 66.404489 101.898174 66.404489 
z
" clip-path="url(#pd2d1015a92)" style="stroke: #000000"/>
    <path d="M 94.403569 63.371896 
C 94.910143 63.371896 95.396038 63.170631 95.754241 62.812429 
C 96.112443 62.454227 96.313707 61.968332 96.313707 61.461757 
C 96.313707 60.955182 96.112443 60.469287 95.754241 60.111085 
C 95.396038 59.752882 94.910143 59.551618 94.403569 59.551618 
C 93.896994 59.551618 93.411099 59.752882 93.052897 60.111085 
C 92.694694 60.469287 92.49343 60.955182 92.49343 61.461757 
C 92.49343 61.968332 92.694694 62.454227 93.052897 62.812429 
C 93.411099 63.170631 93.896994 63.371896 94.403569 63.371896 
z
" clip-path="url(#pd2d1015a92)" style="stroke: #000000"/>
    <path d="M 86.798433 49.058134 
C 87.391816 49.058134 87.960974 48.822381 88.380559 48.402796 
C 88.800144 47.983211 89.035897 47.414053 89.035897 46.82067 
C 89.035897 46.227288 88.800144 45.658129 88.380559 45.238544 
C 87.960974 44.818959 87.391816 44.583206 86.798433 44.583206 
C 86.205051 44.583206 85.635892 44.818959 85.216307 45.238544 
C 84.796722 45.658129 84.560969 46.227288 84.560969 46.82067 
C 84.560969 47.414053 84.796722 47.983211 85.216307 48.402796 
C 85.635892 48.822381 86.205051 49.058134 86.798433 49.058134 
z
" clip-path="url(#pd2d1015a92)" style="stroke: #000000"/>
    <path d="M 82.548806 29.94369 
C 83.141818 29.94369 83.710622 29.708083 84.129945 29.28876 
C 84.549267 28.869438 84.784874 28.300634 84.784874 27.707622 
C 84.784874 27.114609 84.549267 26.545806 84.129945 26.126483 
C 83.710622 25.70716 83.141818 25.471554 82.548806 25.471554 
C 81.955794 25.471554 81.38699 25.70716 80.967667 26.126483 
C 80.548344 26.545806 80.312738 27.114609 80.312738 27.707622 
C 80.312738 28.300634 80.548344 28.869438 80.967667 29.28876 
C 81.38699 29.708083 81.955794 29.94369 82.548806 29.94369 
z
" clip-path="url(#pd2d1015a92)" style="stroke: #000000"/>
    <path d="M 121.668565 165.964632 
C 122.261947 165.964632 122.831106 165.728879 123.250691 165.309294 
C 123.670276 164.889709 123.906029 164.32055 123.906029 163.727168 
C 123.906029 163.133786 123.670276 162.564627 123.250691 162.145042 
C 122.831106 161.725457 122.261947 161.489704 121.668565 161.489704 
C 121.075182 161.489704 120.506023 161.725457 120.086439 162.145042 
C 119.666854 162.564627 119.431101 163.133786 119.431101 163.727168 
C 119.431101 164.32055 119.666854 164.889709 120.086439 165.309294 
C 120.506023 165.728879 121.075182 165.964632 121.668565 165.964632 
z
" clip-path="url(#pd2d1015a92)" style="stroke: #000000"/>
    <path d="M 113.027495 143.726875 
C 113.620877 143.726875 114.190036 143.491121 114.609621 143.071537 
C 115.029206 142.651952 115.264959 142.082793 115.264959 141.48941 
C 115.264959 140.896028 115.029206 140.326869 114.609621 139.907284 
C 114.190036 139.4877 113.620877 139.251946 113.027495 139.251946 
C 112.434112 139.251946 111.864954 139.4877 111.445369 139.907284 
C 111.025784 140.326869 110.790031 140.896028 110.790031 141.48941 
C 110.790031 142.082793 111.025784 142.651952 111.445369 143.071537 
C 111.864954 143.491121 112.434112 143.726875 113.027495 143.726875 
z
" clip-path="url(#pd2d1015a92)" style="stroke: #000000"/>
    <path d="M 112.479408 138.694475 
C 113.07279 138.694475 113.641949 138.458721 114.061534 138.039137 
C 114.481119 137.619552 114.716872 137.050393 114.716872 136.45701 
C 114.716872 135.863628 114.481119 135.294469 114.061534 134.874884 
C 113.641949 134.4553 113.07279 134.219546 112.479408 134.219546 
C 111.886025 134.219546 111.316866 134.4553 110.897282 134.874884 
C 110.477697 135.294469 110.241943 135.863628 110.241943 136.45701 
C 110.241943 137.050393 110.477697 137.619552 110.897282 138.039137 
C 111.316866 138.458721 111.886025 138.694475 112.479408 138.694475 
z
" clip-path="url(#pd2d1015a92)" style="stroke: #000000"/>
    <path d="M 103.51358 124.64769 
C 104.106962 124.64769 104.676121 124.411936 105.095706 123.992351 
C 105.515291 123.572767 105.751044 123.003608 105.751044 122.410225 
C 105.751044 121.816843 105.515291 121.247684 105.095706 120.828099 
C 104.676121 120.408514 104.106962 120.172761 103.51358 120.172761 
C 102.920197 120.172761 102.351038 120.408514 101.931454 120.828099 
C 101.511869 121.247684 101.276115 121.816843 101.276115 122.410225 
C 101.276115 123.003608 101.511869 123.572767 101.931454 123.992351 
C 102.351038 124.411936 102.920197 124.64769 103.51358 124.64769 
z
" clip-path="url(#pd2d1015a92)" style="stroke: #000000"/>
    <path d="M 104.63812 113.191873 
C 105.221252 113.191873 105.780578 112.960192 106.192914 112.547856 
C 106.605251 112.13552 106.836931 111.576193 106.836931 110.993062 
C 106.836931 110.40993 106.605251 109.850604 106.192914 109.438268 
C 105.780578 109.025931 105.221252 108.794251 104.63812 108.794251 
C 104.054989 108.794251 103.495662 109.025931 103.083326 109.438268 
C 102.67099 109.850604 102.439309 110.40993 102.439309 110.993062 
C 102.439309 111.576193 102.67099 112.13552 103.083326 112.547856 
C 103.495662 112.960192 104.054989 113.191873 104.63812 113.191873 
z
" clip-path="url(#pd2d1015a92)" style="stroke: #000000"/>
    <path d="M 99.943213 102.51355 
C 100.536595 102.51355 101.105754 102.277797 101.525339 101.858212 
C 101.944924 101.438627 102.180677 100.869468 102.180677 100.276086 
C 102.180677 99.682703 101.944924 99.113544 101.525339 98.69396 
C 101.105754 98.274375 100.536595 98.038622 99.943213 98.038622 
C 99.34983 98.038622 98.780672 98.274375 98.361087 98.69396 
C 97.941502 99.113544 97.705749 99.682703 97.705749 100.276086 
C 97.705749 100.869468 97.941502 101.438627 98.361087 101.858212 
C 98.780672 102.277797 99.34983 102.51355 99.943213 102.51355 
z
" clip-path="url(#pd2d1015a92)" style="stroke: #000000"/>
    <path d="M 92.691362 85.93271 
C 93.229868 85.93271 93.746391 85.718759 94.127173 85.337977 
C 94.507954 84.957196 94.721905 84.440673 94.721905 83.902166 
C 94.721905 83.36366 94.507954 82.847137 94.127173 82.466356 
C 93.746391 82.085574 93.229868 81.871623 92.691362 81.871623 
C 92.152856 81.871623 91.636333 82.085574 91.255551 82.466356 
C 90.87477 82.847137 90.660819 83.36366 90.660819 83.902166 
C 90.660819 84.440673 90.87477 84.957196 91.255551 85.337977 
C 91.636333 85.718759 92.152856 85.93271 92.691362 85.93271 
z
" clip-path="url(#pd2d1015a92)" style="stroke: #000000"/>
    <path d="M 81.585727 38.809658 
C 81.718328 38.809658 81.845517 38.756975 81.93928 38.663212 
C 82.033044 38.569448 82.085727 38.44226 82.085727 38.309658 
C 82.085727 38.177057 82.033044 38.049868 81.93928 37.956105 
C 81.845517 37.862341 81.718328 37.809658 81.585727 37.809658 
C 81.453125 37.809658 81.325937 37.862341 81.232173 37.956105 
C 81.13841 38.049868 81.085727 38.177057 81.085727 38.309658 
C 81.085727 38.44226 81.13841 38.569448 81.232173 38.663212 
C 81.325937 38.756975 81.453125 38.809658 81.585727 38.809658 
z
" clip-path="url(#pd2d1015a92)" style="stroke: #000000"/>
    <path d="M 75.546681 35.420441 
C 76.139693 35.420441 76.708496 35.184834 77.127819 34.765511 
C 77.547142 34.346188 77.782748 33.777385 77.782748 33.184373 
C 77.782748 32.59136 77.547142 32.022557 77.127819 31.603234 
C 76.708496 31.183911 76.139693 30.948305 75.546681 30.948305 
C 74.953668 30.948305 74.384865 31.183911 73.965542 31.603234 
C 73.546219 32.022557 73.310613 32.59136 73.310613 33.184373 
C 73.310613 33.777385 73.546219 34.346188 73.965542 34.765511 
C 74.384865 35.184834 74.953668 35.420441 75.546681 35.420441 
z
" clip-path="url(#pd2d1015a92)" style="stroke: #000000"/>
    <path d="M 109.224553 168.725965 
C 109.357154 168.725965 109.484343 168.673282 109.578106 168.579519 
C 109.67187 168.485755 109.724553 168.358567 109.724553 168.225965 
C 109.724553 168.093364 109.67187 167.966175 109.578106 167.872412 
C 109.484343 167.778648 109.357154 167.725965 109.224553 167.725965 
C 109.091951 167.725965 108.964763 167.778648 108.870999 167.872412 
C 108.777236 167.966175 108.724553 168.093364 108.724553 168.225965 
C 108.724553 168.358567 108.777236 168.485755 108.870999 168.579519 
C 108.964763 168.673282 109.091951 168.725965 109.224553 168.725965 
z
" clip-path="url(#pd2d1015a92)" style="stroke: #000000"/>
    <path d="M 106.978548 156.410804 
C 107.571931 156.410804 108.14109 156.17505 108.560674 155.755466 
C 108.980259 155.335881 109.216012 154.766722 109.216012 154.173339 
C 109.216012 153.579957 108.980259 153.010798 108.560674 152.591213 
C 108.14109 152.171629 107.571931 151.935875 106.978548 151.935875 
C 106.385166 151.935875 105.816007 152.171629 105.396422 152.591213 
C 104.976837 153.010798 104.741084 153.579957 104.741084 154.173339 
C 104.741084 154.766722 104.976837 155.335881 105.396422 155.755466 
C 105.816007 156.17505 106.385166 156.410804 106.978548 156.410804 
z
" clip-path="url(#pd2d1015a92)" style="stroke: #000000"/>
    <path d="M 105.476283 146.608432 
C 106.004605 146.608432 106.51136 146.398527 106.88494 146.024947 
C 107.25852 145.651367 107.468425 145.144612 107.468425 144.61629 
C 107.468425 144.087968 107.25852 143.581214 106.88494 143.207634 
C 106.51136 142.834054 106.004605 142.624149 105.476283 142.624149 
C 104.947961 142.624149 104.441207 142.834054 104.067627 143.207634 
C 103.694047 143.581214 103.484142 144.087968 103.484142 144.61629 
C 103.484142 145.144612 103.694047 145.651367 104.067627 146.024947 
C 104.441207 146.398527 104.947961 146.608432 105.476283 146.608432 
z
" clip-path="url(#pd2d1015a92)" style="stroke: #000000"/>
    <path d="M 100.839045 140.615331 
C 101.373548 140.615331 101.88623 140.402971 102.26418 140.025021 
C 102.64213 139.64707 102.854491 139.134388 102.854491 138.599886 
C 102.854491 138.065383 102.64213 137.552701 102.26418 137.174751 
C 101.88623 136.796801 101.373548 136.584441 100.839045 136.584441 
C 100.304543 136.584441 99.791861 136.796801 99.41391 137.174751 
C 99.03596 137.552701 98.8236 138.065383 98.8236 138.599886 
C 98.8236 139.134388 99.03596 139.64707 99.41391 140.025021 
C 99.791861 140.402971 100.304543 140.615331 100.839045 140.615331 
z
" clip-path="url(#pd2d1015a92)" style="stroke: #000000"/>
    <path d="M 92.596639 122.401651 
C 93.190021 122.401651 93.75918 122.165898 94.178765 121.746313 
C 94.598349 121.326729 94.834103 120.75757 94.834103 120.164187 
C 94.834103 119.570805 94.598349 119.001646 94.178765 118.582061 
C 93.75918 118.162476 93.190021 117.926723 92.596639 117.926723 
C 92.003256 117.926723 91.434097 118.162476 91.014512 118.582061 
C 90.594928 119.001646 90.359174 119.570805 90.359174 120.164187 
C 90.359174 120.75757 90.594928 121.326729 91.014512 121.746313 
C 91.434097 122.165898 92.003256 122.401651 92.596639 122.401651 
z
" clip-path="url(#pd2d1015a92)" style="stroke: #000000"/>
    <path d="M 87.601451 106.301801 
C 88.116718 106.301801 88.61095 106.097083 88.975299 105.732734 
C 89.339648 105.368386 89.544365 104.874153 89.544365 104.358886 
C 89.544365 103.843619 89.339648 103.349387 88.975299 102.985038 
C 88.61095 102.620689 88.116718 102.415972 87.601451 102.415972 
C 87.086184 102.415972 86.591951 102.620689 86.227603 102.985038 
C 85.863254 103.349387 85.658536 103.843619 85.658536 104.358886 
C 85.658536 104.874153 85.863254 105.368386 86.227603 105.732734 
C 86.591951 106.097083 87.086184 106.301801 87.601451 106.301801 
z
" clip-path="url(#pd2d1015a92)" style="stroke: #000000"/>
    <path d="M 88.774319 99.24188 
C 89.479533 99.24188 90.155959 98.961695 90.654621 98.463033 
C 91.153282 97.964372 91.433467 97.287946 91.433467 96.582732 
C 91.433467 95.877518 91.153282 95.201092 90.654621 94.70243 
C 90.155959 94.203769 89.479533 93.923584 88.774319 93.923584 
C 88.069105 93.923584 87.392679 94.203769 86.894017 94.70243 
C 86.395356 95.201092 86.115171 95.877518 86.115171 96.582732 
C 86.115171 97.287946 86.395356 97.964372 86.894017 98.463033 
C 87.392679 98.961695 88.069105 99.24188 88.774319 99.24188 
z
" clip-path="url(#pd2d1015a92)" style="stroke: #000000"/>
    <path d="M 84.406385 90.106754 
C 84.999768 90.106754 85.568927 89.871 85.988512 89.451415 
C 86.408096 89.031831 86.64385 88.462672 86.64385 87.869289 
C 86.64385 87.275907 86.408096 86.706748 85.988512 86.287163 
C 85.568927 85.867579 84.999768 85.631825 84.406385 85.631825 
C 83.813003 85.631825 83.243844 85.867579 82.824259 86.287163 
C 82.404675 86.706748 82.168921 87.275907 82.168921 87.869289 
C 82.168921 88.462672 82.404675 89.031831 82.824259 89.451415 
C 83.243844 89.871 83.813003 90.106754 84.406385 90.106754 
z
" clip-path="url(#pd2d1015a92)" style="stroke: #000000"/>
    <path d="M 78.667654 78.949058 
C 79.261037 78.949058 79.830196 78.713305 80.24978 78.29372 
C 80.669365 77.874135 80.905119 77.304977 80.905119 76.711594 
C 80.905119 76.118212 80.669365 75.549053 80.24978 75.129468 
C 79.830196 74.709883 79.261037 74.47413 78.667654 74.47413 
C 78.074272 74.47413 77.505113 74.709883 77.085528 75.129468 
C 76.665943 75.549053 76.43019 76.118212 76.43019 76.711594 
C 76.43019 77.304977 76.665943 77.874135 77.085528 78.29372 
C 77.505113 78.713305 78.074272 78.949058 78.667654 78.949058 
z
" clip-path="url(#pd2d1015a92)" style="stroke: #000000"/>
    <path d="M 76.762915 70.681291 
C 77.356298 70.681291 77.925457 70.445538 78.345041 70.025953 
C 78.764626 69.606369 79.000379 69.03721 79.000379 68.443827 
C 79.000379 67.850445 78.764626 67.281286 78.345041 66.861701 
C 77.925457 66.442116 77.356298 66.206363 76.762915 66.206363 
C 76.169533 66.206363 75.600374 66.442116 75.180789 66.861701 
C 74.761204 67.281286 74.525451 67.850445 74.525451 68.443827 
C 74.525451 69.03721 74.761204 69.606369 75.180789 70.025953 
C 75.600374 70.445538 76.169533 70.681291 76.762915 70.681291 
z
" clip-path="url(#pd2d1015a92)" style="stroke: #000000"/>
    <path d="M 70.916434 55.832821 
C 71.509446 55.832821 72.07825 55.597215 72.497573 55.177892 
C 72.916896 54.758569 73.152502 54.189766 73.152502 53.596753 
C 73.152502 53.003741 72.916896 52.434937 72.497573 52.015615 
C 72.07825 51.596292 71.509446 51.360685 70.916434 51.360685 
C 70.323422 51.360685 69.754618 51.596292 69.335295 52.015615 
C 68.915972 52.434937 68.680366 53.003741 68.680366 53.596753 
C 68.680366 54.189766 68.915972 54.758569 69.335295 55.177892 
C 69.754618 55.597215 70.323422 55.832821 70.916434 55.832821 
z
" clip-path="url(#pd2d1015a92)" style="stroke: #000000"/>
    <path d="M 68.075415 46.62529 
C 68.668428 46.62529 69.237231 46.389684 69.656554 45.970361 
C 70.075877 45.551038 70.311483 44.982234 70.311483 44.389222 
C 70.311483 43.79621 70.075877 43.227406 69.656554 42.808083 
C 69.237231 42.388761 68.668428 42.153154 68.075415 42.153154 
C 67.482403 42.153154 66.9136 42.388761 66.494277 42.808083 
C 66.074954 43.227406 65.839347 43.79621 65.839347 44.389222 
C 65.839347 44.982234 66.074954 45.551038 66.494277 45.970361 
C 66.9136 46.389684 67.482403 46.62529 68.075415 46.62529 
z
" clip-path="url(#pd2d1015a92)" style="stroke: #000000"/>
    <path d="M 60.748139 28.98686 
C 61.338915 28.98686 61.905574 28.752143 62.323315 28.334401 
C 62.741057 27.91666 62.975774 27.350001 62.975774 26.759225 
C 62.975774 26.16845 62.741057 25.601791 62.323315 25.184049 
C 61.905574 24.766308 61.338915 24.53159 60.748139 24.53159 
C 60.157363 24.53159 59.590705 24.766308 59.172963 25.184049 
C 58.755222 25.601791 58.520504 26.16845 58.520504 26.759225 
C 58.520504 27.350001 58.755222 27.91666 59.172963 28.334401 
C 59.590705 28.752143 60.157363 28.98686 60.748139 28.98686 
z
" clip-path="url(#pd2d1015a92)" style="stroke: #000000"/>
    <path d="M 95.180291 147.73138 
C 95.773303 147.73138 96.342107 147.495774 96.76143 147.076451 
C 97.180753 146.657128 97.416359 146.088324 97.416359 145.495312 
C 97.416359 144.9023 97.180753 144.333496 96.76143 143.914173 
C 96.342107 143.49485 95.773303 143.259244 95.180291 143.259244 
C 94.587279 143.259244 94.018475 143.49485 93.599152 143.914173 
C 93.179829 144.333496 92.944223 144.9023 92.944223 145.495312 
C 92.944223 146.088324 93.179829 146.657128 93.599152 147.076451 
C 94.018475 147.495774 94.587279 147.73138 95.180291 147.73138 
z
" clip-path="url(#pd2d1015a92)" style="stroke: #000000"/>
    <path d="M 89.978833 139.664243 
C 90.514847 139.664243 91.02898 139.451282 91.407999 139.072263 
C 91.787019 138.693244 91.999979 138.179111 91.999979 137.643097 
C 91.999979 137.107082 91.787019 136.59295 91.407999 136.21393 
C 91.02898 135.834911 90.514847 135.62195 89.978833 135.62195 
C 89.442818 135.62195 88.928686 135.834911 88.549666 136.21393 
C 88.170647 136.59295 87.957686 137.107082 87.957686 137.643097 
C 87.957686 138.179111 88.170647 138.693244 88.549666 139.072263 
C 88.928686 139.451282 89.442818 139.664243 89.978833 139.664243 
z
" clip-path="url(#pd2d1015a92)" style="stroke: #000000"/>
    <path d="M 84.96955 135.381384 
C 85.562562 135.381384 86.131366 135.145778 86.550689 134.726455 
C 86.970012 134.307132 87.205618 133.738329 87.205618 133.145316 
C 87.205618 132.552304 86.970012 131.983501 86.550689 131.564178 
C 86.131366 131.144855 85.562562 130.909249 84.96955 130.909249 
C 84.376538 130.909249 83.807734 131.144855 83.388411 131.564178 
C 82.969088 131.983501 82.733482 132.552304 82.733482 133.145316 
C 82.733482 133.738329 82.969088 134.307132 83.388411 134.726455 
C 83.807734 135.145778 84.376538 135.381384 84.96955 135.381384 
z
" clip-path="url(#pd2d1015a92)" style="stroke: #000000"/>
    <path d="M 85.389496 119.206713 
C 85.982878 119.206713 86.552037 118.970959 86.971622 118.551375 
C 87.391207 118.13179 87.62696 117.562631 87.62696 116.969248 
C 87.62696 116.375866 87.391207 115.806707 86.971622 115.387122 
C 86.552037 114.967538 85.982878 114.731784 85.389496 114.731784 
C 84.796113 114.731784 84.226955 114.967538 83.80737 115.387122 
C 83.387785 115.806707 83.152032 116.375866 83.152032 116.969248 
C 83.152032 117.562631 83.387785 118.13179 83.80737 118.551375 
C 84.226955 118.970959 84.796113 119.206713 85.389496 119.206713 
z
" clip-path="url(#pd2d1015a92)" style="stroke: #000000"/>
    <path d="M 77.772233 105.971421 
C 78.365245 105.971421 78.934049 105.735815 79.353371 105.316492 
C 79.772694 104.897169 80.008301 104.328365 80.008301 103.735353 
C 80.008301 103.142341 79.772694 102.573537 79.353371 102.154214 
C 78.934049 101.734891 78.365245 101.499285 77.772233 101.499285 
C 77.17922 101.499285 76.610417 101.734891 76.191094 102.154214 
C 75.771771 102.573537 75.536165 103.142341 75.536165 103.735353 
C 75.536165 104.328365 75.771771 104.897169 76.191094 105.316492 
C 76.610417 105.735815 77.17922 105.971421 77.772233 105.971421 
z
" clip-path="url(#pd2d1015a92)" style="stroke: #000000"/>
    <path d="M 74.739492 100.562895 
C 75.332875 100.562895 75.902034 100.327142 76.321618 99.907557 
C 76.741203 99.487973 76.976956 98.918814 76.976956 98.325431 
C 76.976956 97.732049 76.741203 97.16289 76.321618 96.743305 
C 75.902034 96.32372 75.332875 96.087967 74.739492 96.087967 
C 74.14611 96.087967 73.576951 96.32372 73.157366 96.743305 
C 72.737781 97.16289 72.502028 97.732049 72.502028 98.325431 
C 72.502028 98.918814 72.737781 99.487973 73.157366 99.907557 
C 73.576951 100.327142 74.14611 100.562895 74.739492 100.562895 
z
" clip-path="url(#pd2d1015a92)" style="stroke: #000000"/>
    <path d="M 66.839557 91.756513 
C 67.376572 91.756513 67.891665 91.543155 68.271392 91.163427 
C 68.651119 90.7837 68.864478 90.268607 68.864478 89.731592 
C 68.864478 89.194577 68.651119 88.679484 68.271392 88.299757 
C 67.891665 87.92003 67.376572 87.706671 66.839557 87.706671 
C 66.302541 87.706671 65.787449 87.92003 65.407721 88.299757 
C 65.027994 88.679484 64.814636 89.194577 64.814636 89.731592 
C 64.814636 90.268607 65.027994 90.7837 65.407721 91.163427 
C 65.787449 91.543155 66.302541 91.756513 66.839557 91.756513 
z
" clip-path="url(#pd2d1015a92)" style="stroke: #000000"/>
    <path d="M 62.771273 85.186236 
C 63.364656 85.186236 63.933815 84.950483 64.353399 84.530898 
C 64.772984 84.111313 65.008737 83.542154 65.008737 82.948772 
C 65.008737 82.355389 64.772984 81.786231 64.353399 81.366646 
C 63.933815 80.947061 63.364656 80.711308 62.771273 80.711308 
C 62.177891 80.711308 61.608732 80.947061 61.189147 81.366646 
C 60.769562 81.786231 60.533809 82.355389 60.533809 82.948772 
C 60.533809 83.542154 60.769562 84.111313 61.189147 84.530898 
C 61.608732 84.950483 62.177891 85.186236 62.771273 85.186236 
z
" clip-path="url(#pd2d1015a92)" style="stroke: #000000"/>
    <path d="M 57.223293 59.806771 
C 57.816675 59.806771 58.385834 59.571018 58.805419 59.151433 
C 59.225004 58.731849 59.460757 58.16269 59.460757 57.569307 
C 59.460757 56.975925 59.225004 56.406766 58.805419 55.987181 
C 58.385834 55.567596 57.816675 55.331843 57.223293 55.331843 
C 56.62991 55.331843 56.060751 55.567596 55.641167 55.987181 
C 55.221582 56.406766 54.985829 56.975925 54.985829 57.569307 
C 54.985829 58.16269 55.221582 58.731849 55.641167 59.151433 
C 56.060751 59.571018 56.62991 59.806771 57.223293 59.806771 
z
" clip-path="url(#pd2d1015a92)" style="stroke: #000000"/>
    <path d="M 53.626637 41.79304 
C 54.219649 41.79304 54.788453 41.557434 55.207776 41.138111 
C 55.627099 40.718788 55.862705 40.149984 55.862705 39.556972 
C 55.862705 38.96396 55.627099 38.395156 55.207776 37.975833 
C 54.788453 37.55651 54.219649 37.320904 53.626637 37.320904 
C 53.033625 37.320904 52.464821 37.55651 52.045498 37.975833 
C 51.626175 38.395156 51.390569 38.96396 51.390569 39.556972 
C 51.390569 40.149984 51.626175 40.718788 52.045498 41.138111 
C 52.464821 41.557434 53.033625 41.79304 53.626637 41.79304 
z
" clip-path="url(#pd2d1015a92)" style="stroke: #000000"/>
    <path d="M 90.401776 177.977206 
C 90.994788 177.977206 91.563592 177.7416 91.982915 177.322277 
C 92.402238 176.902954 92.637844 176.33415 92.637844 175.741138 
C 92.637844 175.148126 92.402238 174.579322 91.982915 174.159999 
C 91.563592 173.740677 90.994788 173.50507 90.401776 173.50507 
C 89.808764 173.50507 89.23996 173.740677 88.820637 174.159999 
C 88.401315 174.579322 88.165708 175.148126 88.165708 175.741138 
C 88.165708 176.33415 88.401315 176.902954 88.820637 177.322277 
C 89.23996 177.7416 89.808764 177.977206 90.401776 177.977206 
z
" clip-path="url(#pd2d1015a92)" style="stroke: #000000"/>
    <path d="M 83.661661 170.227803 
C 84.254673 170.227803 84.823477 169.992197 85.2428 169.572874 
C 85.662123 169.153551 85.897729 168.584747 85.897729 167.991735 
C 85.897729 167.398723 85.662123 166.829919 85.2428 166.410596 
C 84.823477 165.991273 84.254673 165.755667 83.661661 165.755667 
C 83.068649 165.755667 82.499845 165.991273 82.080522 166.410596 
C 81.661199 166.829919 81.425593 167.398723 81.425593 167.991735 
C 81.425593 168.584747 81.661199 169.153551 82.080522 169.572874 
C 82.499845 169.992197 83.068649 170.227803 83.661661 170.227803 
z
" clip-path="url(#pd2d1015a92)" style="stroke: #000000"/>
    <path d="M 79.882519 144.357239 
C 80.475902 144.357239 81.045061 144.121486 81.464646 143.701901 
C 81.88423 143.282316 82.119984 142.713158 82.119984 142.119775 
C 82.119984 141.526393 81.88423 140.957234 81.464646 140.537649 
C 81.045061 140.118064 80.475902 139.882311 79.882519 139.882311 
C 79.289137 139.882311 78.719978 140.118064 78.300393 140.537649 
C 77.880809 140.957234 77.645055 141.526393 77.645055 142.119775 
C 77.645055 142.713158 77.880809 143.282316 78.300393 143.701901 
C 78.719978 144.121486 79.289137 144.357239 79.882519 144.357239 
z
" clip-path="url(#pd2d1015a92)" style="stroke: #000000"/>
    <path d="M 76.595005 136.061029 
C 77.089245 136.061029 77.563309 135.864665 77.91279 135.515185 
C 78.26227 135.165704 78.458634 134.691641 78.458634 134.197401 
C 78.458634 133.703161 78.26227 133.229097 77.91279 132.879616 
C 77.563309 132.530136 77.089245 132.333772 76.595005 132.333772 
C 76.100765 132.333772 75.626702 132.530136 75.277221 132.879616 
C 74.927741 133.229097 74.731377 133.703161 74.731377 134.197401 
C 74.731377 134.691641 74.927741 135.165704 75.277221 135.515185 
C 75.626702 135.864665 76.100765 136.061029 76.595005 136.061029 
z
" clip-path="url(#pd2d1015a92)" style="stroke: #000000"/>
    <path d="M 72.181078 120.78282 
C 72.77446 120.78282 73.343619 120.547066 73.763204 120.127482 
C 74.182789 119.707897 74.418542 119.138738 74.418542 118.545356 
C 74.418542 117.951973 74.182789 117.382814 73.763204 116.963229 
C 73.343619 116.543645 72.77446 116.307891 72.181078 116.307891 
C 71.587695 116.307891 71.018536 116.543645 70.598952 116.963229 
C 70.179367 117.382814 69.943614 117.951973 69.943614 118.545356 
C 69.943614 119.138738 70.179367 119.707897 70.598952 120.127482 
C 71.018536 120.547066 71.587695 120.78282 72.181078 120.78282 
z
" clip-path="url(#pd2d1015a92)" style="stroke: #000000"/>
    <path d="M 70.839412 114.719148 
C 71.432794 114.719148 72.001953 114.483395 72.421538 114.06381 
C 72.841122 113.644226 73.076876 113.075067 73.076876 112.481684 
C 73.076876 111.888302 72.841122 111.319143 72.421538 110.899558 
C 72.001953 110.479973 71.432794 110.24422 70.839412 110.24422 
C 70.246029 110.24422 69.67687 110.479973 69.257285 110.899558 
C 68.837701 111.319143 68.601947 111.888302 68.601947 112.481684 
C 68.601947 113.075067 68.837701 113.644226 69.257285 114.06381 
C 69.67687 114.483395 70.246029 114.719148 70.839412 114.719148 
z
" clip-path="url(#pd2d1015a92)" style="stroke: #000000"/>
    <path d="M 66.459153 104.352791 
C 67.052535 104.352791 67.621694 104.117038 68.041279 103.697453 
C 68.460864 103.277869 68.696617 102.70871 68.696617 102.115327 
C 68.696617 101.521945 68.460864 100.952786 68.041279 100.533201 
C 67.621694 100.113616 67.052535 99.877863 66.459153 99.877863 
C 65.86577 99.877863 65.296611 100.113616 64.877027 100.533201 
C 64.457442 100.952786 64.221688 101.521945 64.221688 102.115327 
C 64.221688 102.70871 64.457442 103.277869 64.877027 103.697453 
C 65.296611 104.117038 65.86577 104.352791 66.459153 104.352791 
z
" clip-path="url(#pd2d1015a92)" style="stroke: #000000"/>
    <path d="M 60.034744 98.115765 
C 60.635391 98.115765 61.211518 97.877125 61.636239 97.452404 
C 62.06096 97.027683 62.2996 96.451556 62.2996 95.850909 
C 62.2996 95.250262 62.06096 94.674136 61.636239 94.249414 
C 61.211518 93.824693 60.635391 93.586054 60.034744 93.586054 
C 59.434097 93.586054 58.857971 93.824693 58.433249 94.249414 
C 58.008528 94.674136 57.769889 95.250262 57.769889 95.850909 
C 57.769889 96.451556 58.008528 97.027683 58.433249 97.452404 
C 58.857971 97.877125 59.434097 98.115765 60.034744 98.115765 
z
" clip-path="url(#pd2d1015a92)" style="stroke: #000000"/>
    <path d="M 52.601925 72.527789 
C 53.194937 72.527789 53.763741 72.292183 54.183064 71.87286 
C 54.602387 71.453537 54.837993 70.884733 54.837993 70.291721 
C 54.837993 69.698709 54.602387 69.129905 54.183064 68.710582 
C 53.763741 68.29126 53.194937 68.055653 52.601925 68.055653 
C 52.008913 68.055653 51.440109 68.29126 51.020786 68.710582 
C 50.601463 69.129905 50.365857 69.698709 50.365857 70.291721 
C 50.365857 70.884733 50.601463 71.453537 51.020786 71.87286 
C 51.440109 72.292183 52.008913 72.527789 52.601925 72.527789 
z
" clip-path="url(#pd2d1015a92)" style="stroke: #000000"/>
    <path d="M 50.522974 63.748956 
C 51.116357 63.748956 51.685516 63.513203 52.1051 63.093618 
C 52.524685 62.674033 52.760439 62.104875 52.760439 61.511492 
C 52.760439 60.91811 52.524685 60.348951 52.1051 59.929366 
C 51.685516 59.509781 51.116357 59.274028 50.522974 59.274028 
C 49.929592 59.274028 49.360433 59.509781 48.940848 59.929366 
C 48.521263 60.348951 48.28551 60.91811 48.28551 61.511492 
C 48.28551 62.104875 48.521263 62.674033 48.940848 63.093618 
C 49.360433 63.513203 49.929592 63.748956 50.522974 63.748956 
z
" clip-path="url(#pd2d1015a92)" style="stroke: #000000"/>
    <path d="M 52.48212 54.626637 
C 53.075132 54.626637 53.643936 54.391031 54.063259 53.971708 
C 54.482581 53.552385 54.718188 52.983582 54.718188 52.390569 
C 54.718188 51.797557 54.482581 51.228754 54.063259 50.809431 
C 53.643936 50.390108 53.075132 50.154501 52.48212 50.154501 
C 51.889108 50.154501 51.320304 50.390108 50.900981 50.809431 
C 50.481658 51.228754 50.246052 51.797557 50.246052 52.390569 
C 50.246052 52.983582 50.481658 53.552385 50.900981 53.971708 
C 51.320304 54.391031 51.889108 54.626637 52.48212 54.626637 
z
" clip-path="url(#pd2d1015a92)" style="stroke: #000000"/>
    <path d="M 77.804483 169.456681 
C 78.397495 169.456681 78.966299 169.221075 79.385622 168.801752 
C 79.804945 168.382429 80.040551 167.813625 80.040551 167.220613 
C 80.040551 166.627601 79.804945 166.058797 79.385622 165.639474 
C 78.966299 165.220151 78.397495 164.984545 77.804483 164.984545 
C 77.211471 164.984545 76.642667 165.220151 76.223344 165.639474 
C 75.804021 166.058797 75.568415 166.627601 75.568415 167.220613 
C 75.568415 167.813625 75.804021 168.382429 76.223344 168.801752 
C 76.642667 169.221075 77.211471 169.456681 77.804483 169.456681 
z
" clip-path="url(#pd2d1015a92)" style="stroke: #000000"/>
    <path d="M 75.304906 157.562578 
C 75.898289 157.562578 76.467447 157.326824 76.887032 156.907239 
C 77.306617 156.487655 77.54237 155.918496 77.54237 155.325113 
C 77.54237 154.731731 77.306617 154.162572 76.887032 153.742987 
C 76.467447 153.323402 75.898289 153.087649 75.304906 153.087649 
C 74.711524 153.087649 74.142365 153.323402 73.72278 153.742987 
C 73.303195 154.162572 73.067442 154.731731 73.067442 155.325113 
C 73.067442 155.918496 73.303195 156.487655 73.72278 156.907239 
C 74.142365 157.326824 74.711524 157.562578 75.304906 157.562578 
z
" clip-path="url(#pd2d1015a92)" style="stroke: #000000"/>
    <path d="M 69.843737 149.403128 
C 70.437119 149.403128 71.006278 149.167374 71.425863 148.74779 
C 71.845448 148.328205 72.081201 147.759046 72.081201 147.165663 
C 72.081201 146.572281 71.845448 146.003122 71.425863 145.583537 
C 71.006278 145.163953 70.437119 144.928199 69.843737 144.928199 
C 69.250354 144.928199 68.681196 145.163953 68.261611 145.583537 
C 67.842026 146.003122 67.606273 146.572281 67.606273 147.165663 
C 67.606273 147.759046 67.842026 148.328205 68.261611 148.74779 
C 68.681196 149.167374 69.250354 149.403128 69.843737 149.403128 
z
" clip-path="url(#pd2d1015a92)" style="stroke: #000000"/>
    <path d="M 57.786031 128.630018 
C 58.379044 128.630018 58.947847 128.394412 59.36717 127.975089 
C 59.786493 127.555766 60.022099 126.986962 60.022099 126.39395 
C 60.022099 125.800938 59.786493 125.232134 59.36717 124.812811 
C 58.947847 124.393488 58.379044 124.157882 57.786031 124.157882 
C 57.193019 124.157882 56.624215 124.393488 56.204893 124.812811 
C 55.78557 125.232134 55.549963 125.800938 55.549963 126.39395 
C 55.549963 126.986962 55.78557 127.555766 56.204893 127.975089 
C 56.624215 128.394412 57.193019 128.630018 57.786031 128.630018 
z
" clip-path="url(#pd2d1015a92)" style="stroke: #000000"/>
    <path d="M 57.367322 116.49554 
C 57.889239 116.49554 58.38985 116.28818 58.758901 115.919129 
C 59.127952 115.550078 59.335312 115.049467 59.335312 114.52755 
C 59.335312 114.005633 59.127952 113.505022 58.758901 113.135971 
C 58.38985 112.76692 57.889239 112.559561 57.367322 112.559561 
C 56.845405 112.559561 56.344794 112.76692 55.975743 113.135971 
C 55.606692 113.505022 55.399332 114.005633 55.399332 114.52755 
C 55.399332 115.049467 55.606692 115.550078 55.975743 115.919129 
C 56.344794 116.28818 56.845405 116.49554 57.367322 116.49554 
z
" clip-path="url(#pd2d1015a92)" style="stroke: #000000"/>
    <path d="M 53.730407 107.783131 
C 54.383376 107.783131 55.00969 107.523703 55.471409 107.061984 
C 55.933128 106.600265 56.192556 105.973951 56.192556 105.320982 
C 56.192556 104.668012 55.933128 104.041699 55.471409 103.579979 
C 55.00969 103.11826 54.383376 102.858833 53.730407 102.858833 
C 53.077437 102.858833 52.451124 103.11826 51.989404 103.579979 
C 51.527685 104.041699 51.268258 104.668012 51.268258 105.320982 
C 51.268258 105.973951 51.527685 106.600265 51.989404 107.061984 
C 52.451124 107.523703 53.077437 107.783131 53.730407 107.783131 
z
" clip-path="url(#pd2d1015a92)" style="stroke: #000000"/>
    <path d="M 50.585797 96.753623 
C 51.178809 96.753623 51.747613 96.518016 52.166936 96.098693 
C 52.586259 95.67937 52.821865 95.110567 52.821865 94.517555 
C 52.821865 93.924542 52.586259 93.355739 52.166936 92.936416 
C 51.747613 92.517093 51.178809 92.281487 50.585797 92.281487 
C 49.992785 92.281487 49.423981 92.517093 49.004658 92.936416 
C 48.585335 93.355739 48.349729 93.924542 48.349729 94.517555 
C 48.349729 95.110567 48.585335 95.67937 49.004658 96.098693 
C 49.423981 96.518016 49.992785 96.753623 50.585797 96.753623 
z
" clip-path="url(#pd2d1015a92)" style="stroke: #000000"/>
    <path d="M 44.593882 87.972177 
C 45.129896 87.972177 45.644029 87.759217 46.023048 87.380197 
C 46.402068 87.001178 46.615029 86.487045 46.615029 85.951031 
C 46.615029 85.415016 46.402068 84.900884 46.023048 84.521864 
C 45.644029 84.142845 45.129896 83.929884 44.593882 83.929884 
C 44.057868 83.929884 43.543735 84.142845 43.164716 84.521864 
C 42.785696 84.900884 42.572735 85.415016 42.572735 85.951031 
C 42.572735 86.487045 42.785696 87.001178 43.164716 87.380197 
C 43.543735 87.759217 44.057868 87.972177 44.593882 87.972177 
z
" clip-path="url(#pd2d1015a92)" style="stroke: #000000"/>
    <path d="M 40.859559 75.408471 
C 41.388926 75.408471 41.896683 75.198151 42.271002 74.823832 
C 42.645321 74.449513 42.855641 73.941756 42.855641 73.412389 
C 42.855641 72.883022 42.645321 72.375265 42.271002 72.000946 
C 41.896683 71.626627 41.388926 71.416307 40.859559 71.416307 
C 40.330192 71.416307 39.822435 71.626627 39.448115 72.000946 
C 39.073796 72.375265 38.863477 72.883022 38.863477 73.412389 
C 38.863477 73.941756 39.073796 74.449513 39.448115 74.823832 
C 39.822435 75.198151 40.330192 75.408471 40.859559 75.408471 
z
" clip-path="url(#pd2d1015a92)" style="stroke: #000000"/>
    <path d="M 38.967174 67.94876 
C 39.30065 67.94876 39.620511 67.816269 39.856314 67.580466 
C 40.092117 67.344664 40.224608 67.024802 40.224608 66.691327 
C 40.224608 66.357851 40.092117 66.03799 39.856314 65.802187 
C 39.620511 65.566384 39.30065 65.433893 38.967174 65.433893 
C 38.633699 65.433893 38.313837 65.566384 38.078035 65.802187 
C 37.842232 66.03799 37.709741 66.357851 37.709741 66.691327 
C 37.709741 67.024802 37.842232 67.344664 38.078035 67.580466 
C 38.313837 67.816269 38.633699 67.94876 38.967174 67.94876 
z
" clip-path="url(#pd2d1015a92)" style="stroke: #000000"/>
    <path d="M 62.620334 156.264824 
C 63.156348 156.264824 63.670481 156.051863 64.049501 155.672844 
C 64.42852 155.293825 64.641481 154.779692 64.641481 154.243677 
C 64.641481 153.707663 64.42852 153.19353 64.049501 152.814511 
C 63.670481 152.435492 63.156348 152.222531 62.620334 152.222531 
C 62.08432 152.222531 61.570187 152.435492 61.191168 152.814511 
C 60.812148 153.19353 60.599188 153.707663 60.599188 154.243677 
C 60.599188 154.779692 60.812148 155.293825 61.191168 155.672844 
C 61.570187 156.051863 62.08432 156.264824 62.620334 156.264824 
z
" clip-path="url(#pd2d1015a92)" style="stroke: #000000"/>
    <path d="M 55.477896 149.300813 
C 56.071279 149.300813 56.640438 149.06506 57.060023 148.645475 
C 57.479607 148.22589 57.715361 147.656731 57.715361 147.063349 
C 57.715361 146.469967 57.479607 145.900808 57.060023 145.481223 
C 56.640438 145.061638 56.071279 144.825885 55.477896 144.825885 
C 54.884514 144.825885 54.315355 145.061638 53.89577 145.481223 
C 53.476186 145.900808 53.240432 146.469967 53.240432 147.063349 
C 53.240432 147.656731 53.476186 148.22589 53.89577 148.645475 
C 54.315355 149.06506 54.884514 149.300813 55.477896 149.300813 
z
" clip-path="url(#pd2d1015a92)" style="stroke: #000000"/>
    <path d="M 50.604186 134.227411 
C 51.197569 134.227411 51.766728 133.991658 52.186312 133.572073 
C 52.605897 133.152488 52.841651 132.583329 52.841651 131.989947 
C 52.841651 131.396564 52.605897 130.827405 52.186312 130.407821 
C 51.766728 129.988236 51.197569 129.752483 50.604186 129.752483 
C 50.010804 129.752483 49.441645 129.988236 49.02206 130.407821 
C 48.602475 130.827405 48.366722 131.396564 48.366722 131.989947 
C 48.366722 132.583329 48.602475 133.152488 49.02206 133.572073 
C 49.441645 133.991658 50.010804 134.227411 50.604186 134.227411 
z
" clip-path="url(#pd2d1015a92)" style="stroke: #000000"/>
    <path d="M 48.89999 122.887099 
C 49.493372 122.887099 50.062531 122.651345 50.482116 122.231761 
C 50.901701 121.812176 51.137454 121.243017 51.137454 120.649635 
C 51.137454 120.056252 50.901701 119.487093 50.482116 119.067508 
C 50.062531 118.647924 49.493372 118.41217 48.89999 118.41217 
C 48.306608 118.41217 47.737449 118.647924 47.317864 119.067508 
C 46.898279 119.487093 46.662526 120.056252 46.662526 120.649635 
C 46.662526 121.243017 46.898279 121.812176 47.317864 122.231761 
C 47.737449 122.651345 48.306608 122.887099 48.89999 122.887099 
z
" clip-path="url(#pd2d1015a92)" style="stroke: #000000"/>
    <path d="M 42.849747 109.907772 
C 43.44313 109.907772 44.012289 109.672019 44.431873 109.252434 
C 44.851458 108.832849 45.087211 108.263691 45.087211 107.670308 
C 45.087211 107.076926 44.851458 106.507767 44.431873 106.088182 
C 44.012289 105.668597 43.44313 105.432844 42.849747 105.432844 
C 42.256365 105.432844 41.687206 105.668597 41.267621 106.088182 
C 40.848036 106.507767 40.612283 107.076926 40.612283 107.670308 
C 40.612283 108.263691 40.848036 108.832849 41.267621 109.252434 
C 41.687206 109.672019 42.256365 109.907772 42.849747 109.907772 
z
" clip-path="url(#pd2d1015a92)" style="stroke: #000000"/>
    <path d="M 33.272655 82.069422 
C 33.866037 82.069422 34.435196 81.833669 34.854781 81.414084 
C 35.274366 80.994499 35.510119 80.42534 35.510119 79.831958 
C 35.510119 79.238575 35.274366 78.669417 34.854781 78.249832 
C 34.435196 77.830247 33.866037 77.594494 33.272655 77.594494 
C 32.679273 77.594494 32.110114 77.830247 31.690529 78.249832 
C 31.270944 78.669417 31.035191 79.238575 31.035191 79.831958 
C 31.035191 80.42534 31.270944 80.994499 31.690529 81.414084 
C 32.110114 81.833669 32.679273 82.069422 33.272655 82.069422 
z
" clip-path="url(#pd2d1015a92)" style="stroke: #000000"/>
    <path d="M 44.545117 168.837225 
C 45.138499 168.837225 45.707658 168.601472 46.127243 168.181887 
C 46.546827 167.762303 46.782581 167.193144 46.782581 166.599761 
C 46.782581 166.006379 46.546827 165.43722 46.127243 165.017635 
C 45.707658 164.59805 45.138499 164.362297 44.545117 164.362297 
C 43.951734 164.362297 43.382575 164.59805 42.96299 165.017635 
C 42.543406 165.43722 42.307652 166.006379 42.307652 166.599761 
C 42.307652 167.193144 42.543406 167.762303 42.96299 168.181887 
C 43.382575 168.601472 43.951734 168.837225 44.545117 168.837225 
z
" clip-path="url(#pd2d1015a92)" style="stroke: #000000"/>
    <path d="M 42.817539 154.941885 
C 43.410921 154.941885 43.98008 154.706132 44.399665 154.286547 
C 44.81925 153.866962 45.055003 153.297804 45.055003 152.704421 
C 45.055003 152.111039 44.81925 151.54188 44.399665 151.122295 
C 43.98008 150.70271 43.410921 150.466957 42.817539 150.466957 
C 42.224156 150.466957 41.654997 150.70271 41.235413 151.122295 
C 40.815828 151.54188 40.580075 152.111039 40.580075 152.704421 
C 40.580075 153.297804 40.815828 153.866962 41.235413 154.286547 
C 41.654997 154.706132 42.224156 154.941885 42.817539 154.941885 
z
" clip-path="url(#pd2d1015a92)" style="stroke: #000000"/>
    <path d="M 40.527829 148.921794 
C 41.121211 148.921794 41.69037 148.686041 42.109955 148.266456 
C 42.529539 147.846871 42.765293 147.277712 42.765293 146.68433 
C 42.765293 146.090947 42.529539 145.521788 42.109955 145.102204 
C 41.69037 144.682619 41.121211 144.446866 40.527829 144.446866 
C 39.934446 144.446866 39.365287 144.682619 38.945702 145.102204 
C 38.526118 145.521788 38.290364 146.090947 38.290364 146.68433 
C 38.290364 147.277712 38.526118 147.846871 38.945702 148.266456 
C 39.365287 148.686041 39.934446 148.921794 40.527829 148.921794 
z
" clip-path="url(#pd2d1015a92)" style="stroke: #000000"/>
    <path d="M 33.712716 115.189366 
C 34.24873 115.189366 34.762863 114.976406 35.141883 114.597386 
C 35.520902 114.218367 35.733863 113.704234 35.733863 113.16822 
C 35.733863 112.632205 35.520902 112.118073 35.141883 111.739053 
C 34.762863 111.360034 34.24873 111.147073 33.712716 111.147073 
C 33.176702 111.147073 32.662569 111.360034 32.28355 111.739053 
C 31.90453 112.118073 31.691569 112.632205 31.691569 113.16822 
C 31.691569 113.704234 31.90453 114.218367 32.28355 114.597386 
C 32.662569 114.976406 33.176702 115.189366 33.712716 115.189366 
z
" clip-path="url(#pd2d1015a92)" style="stroke: #000000"/>
    <path d="M 40.04136 160.09005 
C 40.634742 160.09005 41.203901 159.854297 41.623486 159.434712 
C 42.043071 159.015128 42.278824 158.445969 42.278824 157.852586 
C 42.278824 157.259204 42.043071 156.690045 41.623486 156.27046 
C 41.203901 155.850875 40.634742 155.615122 40.04136 155.615122 
C 39.447977 155.615122 38.878818 155.850875 38.459234 156.27046 
C 38.039649 156.690045 37.803896 157.259204 37.803896 157.852586 
C 37.803896 158.445969 38.039649 159.015128 38.459234 159.434712 
C 38.878818 159.854297 39.447977 160.09005 40.04136 160.09005 
z
" clip-path="url(#pd2d1015a92)" style="stroke: #000000"/>
   </g>
   <g id="matplotlib.axis_1">
    <g id="xtick_1">
     <g id="line2d_1">
      <defs>
       <path id="m4ea380d819" d="M 0 0 
L 0 3.5 
" style="stroke: #000000; stroke-width: 0.8"/>
      </defs>
      <g>
       <use xlink:href="#m4ea380d819" x="18" y="189" style="stroke: #000000; stroke-width: 0.8"/>
      </g>
     </g>
     <g id="text_1">
      <!-- 10 -->
      <g transform="translate(7.447656 203.598437)scale(0.1 -0.1)">
       <defs>
        <path id="DejaVuSans-2212" d="M 678 2272 
L 4684 2272 
L 4684 1741 
L 678 1741 
L 678 2272 
z
" transform="scale(0.015625)"/>
        <path id="DejaVuSans-31" d="M 794 531 
L 1825 531 
L 1825 4091 
L 703 3866 
L 703 4441 
L 1819 4666 
L 2450 4666 
L 2450 531 
L 3481 531 
L 3481 0 
L 794 0 
L 794 531 
z
" transform="scale(0.015625)"/>
        <path id="DejaVuSans-30" d="M 2034 4250 
Q 1547 4250 1301 3770 
Q 1056 3291 1056 2328 
Q 1056 1369 1301 889 
Q 1547 409 2034 409 
Q 2525 409 2770 889 
Q 3016 1369 3016 2328 
Q 3016 3291 2770 3770 
Q 2525 4250 2034 4250 
z
M 2034 4750 
Q 2819 4750 3233 4129 
Q 3647 3509 3647 2328 
Q 3647 1150 3233 529 
Q 2819 -91 2034 -91 
Q 1250 -91 836 529 
Q 422 1150 422 2328 
Q 422 3509 836 4129 
Q 1250 4750 2034 4750 
z
" transform="scale(0.015625)"/>
       </defs>
       <use xlink:href="#DejaVuSans-2212"/>
       <use xlink:href="#DejaVuSans-31" x="83.789062"/>
       <use xlink:href="#DejaVuSans-30" x="147.412109"/>
      </g>
     </g>
    </g>
    <g id="xtick_2">
     <g id="line2d_2">
      <g>
       <use xlink:href="#m4ea380d819" x="73.8" y="189" style="stroke: #000000; stroke-width: 0.8"/>
      </g>
     </g>
     <g id="text_2">
      <!-- 0 -->
      <g transform="translate(70.61875 203.598437)scale(0.1 -0.1)">
       <use xlink:href="#DejaVuSans-30"/>
      </g>
     </g>
    </g>
    <g id="xtick_3">
     <g id="line2d_3">
      <g>
       <use xlink:href="#m4ea380d819" x="129.6" y="189" style="stroke: #000000; stroke-width: 0.8"/>
      </g>
     </g>
     <g id="text_3">
      <!-- 10 -->
      <g transform="translate(123.2375 203.598437)scale(0.1 -0.1)">
       <use xlink:href="#DejaVuSans-31"/>
       <use xlink:href="#DejaVuSans-30" x="63.623047"/>
      </g>
     </g>
    </g>
   </g>
   <g id="matplotlib.axis_2">
    <g id="ytick_1">
     <g id="line2d_4">
      <defs>
       <path id="m8cb7774b63" d="M 0 0 
L -3.5 0 
" style="stroke: #000000; stroke-width: 0.8"/>
      </defs>
      <g>
       <use xlink:href="#m8cb7774b63" x="18" y="189" style="stroke: #000000; stroke-width: 0.8"/>
      </g>
     </g>
     <g id="text_4">
      <!-- 15 -->
      <g transform="translate(-10.104688 192.799219)scale(0.1 -0.1)">
       <defs>
        <path id="DejaVuSans-35" d="M 691 4666 
L 3169 4666 
L 3169 4134 
L 1269 4134 
L 1269 2991 
Q 1406 3038 1543 3061 
Q 1681 3084 1819 3084 
Q 2600 3084 3056 2656 
Q 3513 2228 3513 1497 
Q 3513 744 3044 326 
Q 2575 -91 1722 -91 
Q 1428 -91 1123 -41 
Q 819 9 494 109 
L 494 744 
Q 775 591 1075 516 
Q 1375 441 1709 441 
Q 2250 441 2565 725 
Q 2881 1009 2881 1497 
Q 2881 1984 2565 2268 
Q 2250 2553 1709 2553 
Q 1456 2553 1204 2497 
Q 953 2441 691 2322 
L 691 4666 
z
" transform="scale(0.015625)"/>
       </defs>
       <use xlink:href="#DejaVuSans-2212"/>
       <use xlink:href="#DejaVuSans-31" x="83.789062"/>
       <use xlink:href="#DejaVuSans-35" x="147.412109"/>
      </g>
     </g>
    </g>
    <g id="ytick_2">
     <g id="line2d_5">
      <g>
       <use xlink:href="#m8cb7774b63" x="18" y="161.82" style="stroke: #000000; stroke-width: 0.8"/>
      </g>
     </g>
     <g id="text_5">
      <!-- 10 -->
      <g transform="translate(-10.104688 165.619219)scale(0.1 -0.1)">
       <use xlink:href="#DejaVuSans-2212"/>
       <use xlink:href="#DejaVuSans-31" x="83.789062"/>
       <use xlink:href="#DejaVuSans-30" x="147.412109"/>
      </g>
     </g>
    </g>
    <g id="ytick_3">
     <g id="line2d_6">
      <g>
       <use xlink:href="#m8cb7774b63" x="18" y="134.64" style="stroke: #000000; stroke-width: 0.8"/>
      </g>
     </g>
     <g id="text_6">
      <!-- 5 -->
      <g transform="translate(-3.742188 138.439219)scale(0.1 -0.1)">
       <use xlink:href="#DejaVuSans-2212"/>
       <use xlink:href="#DejaVuSans-35" x="83.789062"/>
      </g>
     </g>
    </g>
    <g id="ytick_4">
     <g id="line2d_7">
      <g>
       <use xlink:href="#m8cb7774b63" x="18" y="107.46" style="stroke: #000000; stroke-width: 0.8"/>
      </g>
     </g>
     <g id="text_7">
      <!-- 0 -->
      <g transform="translate(4.6375 111.259219)scale(0.1 -0.1)">
       <use xlink:href="#DejaVuSans-30"/>
      </g>
     </g>
    </g>
    <g id="ytick_5">
     <g id="line2d_8">
      <g>
       <use xlink:href="#m8cb7774b63" x="18" y="80.28" style="stroke: #000000; stroke-width: 0.8"/>
      </g>
     </g>
     <g id="text_8">
      <!-- 5 -->
      <g transform="translate(4.6375 84.079219)scale(0.1 -0.1)">
       <use xlink:href="#DejaVuSans-35"/>
      </g>
     </g>
    </g>
    <g id="ytick_6">
     <g id="line2d_9">
      <g>
       <use xlink:href="#m8cb7774b63" x="18" y="53.1" style="stroke: #000000; stroke-width: 0.8"/>
      </g>
     </g>
     <g id="text_9">
      <!-- 10 -->
      <g transform="translate(-1.725 56.899219)scale(0.1 -0.1)">
       <use xlink:href="#DejaVuSans-31"/>
       <use xlink:href="#DejaVuSans-30" x="63.623047"/>
      </g>
     </g>
    </g>
    <g id="ytick_7">
     <g id="line2d_10">
      <g>
       <use xlink:href="#m8cb7774b63" x="18" y="25.92" style="stroke: #000000; stroke-width: 0.8"/>
      </g>
     </g>
     <g id="text_10">
      <!-- 15 -->
      <g transform="translate(-1.725 29.719219)scale(0.1 -0.1)">
       <use xlink:href="#DejaVuSans-31"/>
       <use xlink:href="#DejaVuSans-35" x="63.623047"/>
      </g>
     </g>
    </g>
   </g>
   <g id="patch_3">
    <path d="M 18 189 
L 18 25.92 
" style="fill: none; stroke: #000000; stroke-width: 0.8; stroke-linejoin: miter; stroke-linecap: square"/>
   </g>
   <g id="patch_4">
    <path d="M 129.6 189 
L 129.6 25.92 
" style="fill: none; stroke: #000000; stroke-width: 0.8; stroke-linejoin: miter; stroke-linecap: square"/>
   </g>
   <g id="patch_5">
    <path d="M 18 189 
L 129.6 189 
" style="fill: none; stroke: #000000; stroke-width: 0.8; stroke-linejoin: miter; stroke-linecap: square"/>
   </g>
   <g id="patch_6">
    <path d="M 18 25.92 
L 129.6 25.92 
" style="fill: none; stroke: #000000; stroke-width: 0.8; stroke-linejoin: miter; stroke-linecap: square"/>
   </g>
  </g>
 </g>
 <defs>
  <clipPath id="pd2d1015a92">
   <rect x="18" y="25.92" width="111.6" height="163.08"/>
  </clipPath>
 </defs>
</svg>
