<?xml version="1.0" encoding="utf-8" standalone="no"?>
<!DOCTYPE svg PUBLIC "-//W3C//DTD SVG 1.1//EN"
  "http://www.w3.org/Graphics/SVG/1.1/DTD/svg11.dtd">
<svg xmlns:xlink="http://www.w3.org/1999/xlink" width="144pt" height="216pt" viewBox="0 0 144 216" xmlns="http://www.w3.org/2000/svg" version="1.1">
 <metadata>
  <rdf:RDF xmlns:dc="http://purl.org/dc/elements/1.1/" xmlns:cc="http://creativecommons.org/ns#" xmlns:rdf="http://www.w3.org/1999/02/22-rdf-syntax-ns#">
   <cc:Work>
    <dc:type rdf:resource="http://purl.org/dc/dcmitype/StillImage"/>
    <dc:date>2022-06-23T14:53:50.279169</dc:date>
    <dc:format>image/svg+xml</dc:format>
    <dc:creator>
     <cc:Agent>
      <dc:title>Matplotlib v3.5.1, https://matplotlib.org/</dc:title>
     </cc:Agent>
    </dc:creator>
   </cc:Work>
  </rdf:RDF>
 </metadata>
 <defs>
  <style type="text/css">*{stroke-linejoin: round; stroke-linecap: butt}</style>
 </defs>
 <g id="figure_1">
  <g id="patch_1">
   <path d="M 0 216 
L 144 216 
L 144 0 
L 0 0 
L 0 216 
z
" style="fill: none"/>
  </g>
  <g id="axes_1">
   <g id="patch_2">
    <path d="M 18 189 
L 129.6 189 
L 129.6 25.92 
L 18 25.92 
z
" style="fill: #ffffff"/>
   </g>
   <g id="PathCollection_1">
    <defs>
     <path id="m200d0cfdad" d="M 0 2.738613 
C 0.726289 2.738613 1.422928 2.450055 1.936492 1.936492 
C 2.450055 1.422928 2.738613 0.726289 2.738613 0 
C 2.738613 -0.726289 2.450055 -1.422928 1.936492 -1.936492 
C 1.422928 -2.450055 0.726289 -2.738613 0 -2.738613 
C -0.726289 -2.738613 -1.422928 -2.450055 -1.936492 -1.936492 
C -2.450055 -1.422928 -2.738613 -0.726289 -2.738613 0 
C -2.738613 0.726289 -2.450055 1.422928 -1.936492 1.936492 
C -1.422928 2.450055 -0.726289 2.738613 0 2.738613 
z
" style="stroke: #ff0000; stroke-width: 1.75"/>
    </defs>
    <g clip-path="url(#pb7336c0439)">
     <use xlink:href="#m200d0cfdad" x="66.825" y="83.92143" style="fill: #ff0000; stroke: #ff0000; stroke-width: 1.75"/>
     <use xlink:href="#m200d0cfdad" x="87.75" y="95.690715" style="fill: #ff0000; stroke: #ff0000; stroke-width: 1.75"/>
     <use xlink:href="#m200d0cfdad" x="66.825" y="107.46" style="fill: #ff0000; stroke: #ff0000; stroke-width: 1.75"/>
     <use xlink:href="#m200d0cfdad" x="73.8" y="119.229285" style="fill: #ff0000; stroke: #ff0000; stroke-width: 1.75"/>
     <use xlink:href="#m200d0cfdad" x="87.75" y="119.229285" style="fill: #ff0000; stroke: #ff0000; stroke-width: 1.75"/>
     <use xlink:href="#m200d0cfdad" x="66.825" y="130.99857" style="fill: #ff0000; stroke: #ff0000; stroke-width: 1.75"/>
     <use xlink:href="#m200d0cfdad" x="80.775" y="130.99857" style="fill: #ff0000; stroke: #ff0000; stroke-width: 1.75"/>
    </g>
   </g>
   <g id="PathCollection_2">
    <defs>
     <path id="C0_0_3c040f7f19" d="M 0 2.738613 
C 0.726289 2.738613 1.422928 2.450055 1.936492 1.936492 
C 2.450055 1.422928 2.738613 0.726289 2.738613 -0 
C 2.738613 -0.726289 2.450055 -1.422928 1.936492 -1.936492 
C 1.422928 -2.450055 0.726289 -2.738613 0 -2.738613 
C -0.726289 -2.738613 -1.422928 -2.450055 -1.936492 -1.936492 
C -2.450055 -1.422928 -2.738613 -0.726289 -2.738613 0 
C -2.738613 0.726289 -2.450055 1.422928 -1.936492 1.936492 
C -1.422928 2.450055 -0.726289 2.738613 0 2.738613 
z
"/>
    </defs>
    <g clip-path="url(#pb7336c0439)">
     <use xlink:href="#C0_0_3c040f7f19" x="80.775" y="83.92143" style="fill: none; stroke: #ff0000; stroke-width: 1.75"/>
    </g>
    <g clip-path="url(#pb7336c0439)">
     <use xlink:href="#C0_0_3c040f7f19" x="59.85" y="95.690715" style="fill: none; stroke: #ff0000; stroke-width: 1.75"/>
    </g>
    <g clip-path="url(#pb7336c0439)">
     <use xlink:href="#C0_0_3c040f7f19" x="73.8" y="95.690715" style="fill: none; stroke: #ff0000; stroke-width: 1.75"/>
    </g>
    <g clip-path="url(#pb7336c0439)">
     <use xlink:href="#C0_0_3c040f7f19" x="52.875" y="107.46" style="fill: none; stroke: #ff0000; stroke-width: 1.75"/>
    </g>
    <g clip-path="url(#pb7336c0439)">
     <use xlink:href="#C0_0_3c040f7f19" x="80.775" y="107.46" style="fill: none; stroke: #ff0000; stroke-width: 1.75"/>
    </g>
    <g clip-path="url(#pb7336c0439)">
     <use xlink:href="#C0_0_3c040f7f19" x="94.725" y="107.46" style="fill: none; stroke: #ff0000; stroke-width: 1.75"/>
    </g>
    <g clip-path="url(#pb7336c0439)">
     <use xlink:href="#C0_0_3c040f7f19" x="59.85" y="119.229285" style="fill: none; stroke: #ff0000; stroke-width: 1.75"/>
    </g>
   </g>
   <g id="PathCollection_3">
    <path d="M 108.714758 101.940666 
C 108.847359 101.940666 108.974548 101.887983 109.068311 101.794219 
C 109.162075 101.700456 109.214758 101.573267 109.214758 101.440666 
C 109.214758 101.308064 109.162075 101.180876 109.068311 101.087113 
C 108.974548 100.993349 108.847359 100.940666 108.714758 100.940666 
C 108.582156 100.940666 108.454968 100.993349 108.361205 101.087113 
C 108.267441 101.180876 108.214758 101.308064 108.214758 101.440666 
C 108.214758 101.573267 108.267441 101.700456 108.361205 101.794219 
C 108.454968 101.887983 108.582156 101.940666 108.714758 101.940666 
z
" clip-path="url(#pb7336c0439)" style="stroke: #000000"/>
    <path d="M 104.740656 108.925556 
C 105.111235 108.925556 105.466686 108.778323 105.728725 108.516284 
C 105.990765 108.254245 106.137997 107.898794 106.137997 107.528214 
C 106.137997 107.157635 105.990765 106.802184 105.728725 106.540145 
C 105.466686 106.278106 105.111235 106.130873 104.740656 106.130873 
C 104.370077 106.130873 104.014626 106.278106 103.752587 106.540145 
C 103.490547 106.802184 103.343315 107.157635 103.343315 107.528214 
C 103.343315 107.898794 103.490547 108.254245 103.752587 108.516284 
C 104.014626 108.778323 104.370077 108.925556 104.740656 108.925556 
z
" clip-path="url(#pb7336c0439)" style="stroke: #000000"/>
    <path d="M 104.465965 104.328495 
C 104.623656 104.328495 104.774909 104.265844 104.886413 104.15434 
C 104.997918 104.042835 105.060569 103.891582 105.060569 103.733891 
C 105.060569 103.576201 104.997918 103.424947 104.886413 103.313443 
C 104.774909 103.201939 104.623656 103.139288 104.465965 103.139288 
C 104.308275 103.139288 104.157021 103.201939 104.045517 103.313443 
C 103.934013 103.424947 103.871362 103.576201 103.871362 103.733891 
C 103.871362 103.891582 103.934013 104.042835 104.045517 104.15434 
C 104.157021 104.265844 104.308275 104.328495 104.465965 104.328495 
z
" clip-path="url(#pb7336c0439)" style="stroke: #000000"/>
    <path d="M 102.797508 101.367206 
C 103.013194 101.367206 103.220076 101.281513 103.372589 101.128999 
C 103.525103 100.976486 103.610796 100.769604 103.610796 100.553918 
C 103.610796 100.338231 103.525103 100.131349 103.372589 99.978836 
C 103.220076 99.826323 103.013194 99.740629 102.797508 99.740629 
C 102.581821 99.740629 102.374939 99.826323 102.222426 99.978836 
C 102.069913 100.131349 101.984219 100.338231 101.984219 100.553918 
C 101.984219 100.769604 102.069913 100.976486 102.222426 101.128999 
C 102.374939 101.281513 102.581821 101.367206 102.797508 101.367206 
z
" clip-path="url(#pb7336c0439)" style="stroke: #000000"/>
    <path d="M 99.53599 96.470964 
C 99.743523 96.470964 99.942584 96.388511 100.089331 96.241763 
C 100.236079 96.095015 100.318533 95.895954 100.318533 95.688422 
C 100.318533 95.480889 100.236079 95.281829 100.089331 95.135081 
C 99.942584 94.988333 99.743523 94.90588 99.53599 94.90588 
C 99.328458 94.90588 99.129397 94.988333 98.982649 95.135081 
C 98.835902 95.281829 98.753448 95.480889 98.753448 95.688422 
C 98.753448 95.895954 98.835902 96.095015 98.982649 96.241763 
C 99.129397 96.388511 99.328458 96.470964 99.53599 96.470964 
z
" clip-path="url(#pb7336c0439)" style="stroke: #000000"/>
    <path d="M 91.316525 69.565427 
C 91.449127 69.565427 91.576315 69.512743 91.670078 69.41898 
C 91.763842 69.325217 91.816525 69.198028 91.816525 69.065427 
C 91.816525 68.932825 91.763842 68.805637 91.670078 68.711873 
C 91.576315 68.61811 91.449127 68.565427 91.316525 68.565427 
C 91.183923 68.565427 91.056735 68.61811 90.962972 68.711873 
C 90.869208 68.805637 90.816525 68.932825 90.816525 69.065427 
C 90.816525 69.198028 90.869208 69.325217 90.962972 69.41898 
C 91.056735 69.512743 91.183923 69.565427 91.316525 69.565427 
z
" clip-path="url(#pb7336c0439)" style="stroke: #000000"/>
    <path d="M 103.292783 120.032303 
C 103.515791 120.032303 103.729696 119.943701 103.887386 119.78601 
C 104.045077 119.628319 104.133679 119.414415 104.133679 119.191406 
C 104.133679 118.968398 104.045077 118.754494 103.887386 118.596803 
C 103.729696 118.439112 103.515791 118.35051 103.292783 118.35051 
C 103.069774 118.35051 102.85587 118.439112 102.698179 118.596803 
C 102.540489 118.754494 102.451886 118.968398 102.451886 119.191406 
C 102.451886 119.414415 102.540489 119.628319 102.698179 119.78601 
C 102.85587 119.943701 103.069774 120.032303 103.292783 120.032303 
z
" clip-path="url(#pb7336c0439)" style="stroke: #000000"/>
    <path d="M 101.96978 111.081834 
C 102.501219 111.081834 103.010963 110.870691 103.386747 110.494907 
C 103.762531 110.119123 103.973674 109.609379 103.973674 109.077939 
C 103.973674 108.5465 103.762531 108.036756 103.386747 107.660972 
C 103.010963 107.285188 102.501219 107.074045 101.96978 107.074045 
C 101.43834 107.074045 100.928596 107.285188 100.552812 107.660972 
C 100.177028 108.036756 99.965885 108.5465 99.965885 109.077939 
C 99.965885 109.609379 100.177028 110.119123 100.552812 110.494907 
C 100.928596 110.870691 101.43834 111.081834 101.96978 111.081834 
z
" clip-path="url(#pb7336c0439)" style="stroke: #000000"/>
    <path d="M 99.012392 107.679413 
C 99.395943 107.679413 99.763836 107.527027 100.035048 107.255815 
C 100.306259 106.984604 100.458645 106.61671 100.458645 106.233159 
C 100.458645 105.849608 100.306259 105.481715 100.035048 105.210504 
C 99.763836 104.939292 99.395943 104.786906 99.012392 104.786906 
C 98.628841 104.786906 98.260947 104.939292 97.989736 105.210504 
C 97.718524 105.481715 97.566138 105.849608 97.566138 106.233159 
C 97.566138 106.61671 97.718524 106.984604 97.989736 107.255815 
C 98.260947 107.527027 98.628841 107.679413 99.012392 107.679413 
z
" clip-path="url(#pb7336c0439)" style="stroke: #000000"/>
    <path d="M 98.462096 103.039306 
C 98.660381 103.039306 98.850572 102.960527 98.990781 102.820318 
C 99.13099 102.680109 99.20977 102.489918 99.20977 102.291632 
C 99.20977 102.093347 99.13099 101.903156 98.990781 101.762946 
C 98.850572 101.622737 98.660381 101.543958 98.462096 101.543958 
C 98.26381 101.543958 98.073619 101.622737 97.93341 101.762946 
C 97.793201 101.903156 97.714421 102.093347 97.714421 102.291632 
C 97.714421 102.489918 97.793201 102.680109 97.93341 102.820318 
C 98.073619 102.960527 98.26381 103.039306 98.462096 103.039306 
z
" clip-path="url(#pb7336c0439)" style="stroke: #000000"/>
    <path d="M 93.987669 94.692898 
C 94.314707 94.692898 94.628395 94.562964 94.859646 94.331713 
C 95.090898 94.100462 95.220831 93.786774 95.220831 93.459735 
C 95.220831 93.132697 95.090898 92.819009 94.859646 92.587757 
C 94.628395 92.356506 94.314707 92.226572 93.987669 92.226572 
C 93.66063 92.226572 93.346942 92.356506 93.115691 92.587757 
C 92.884439 92.819009 92.754506 93.132697 92.754506 93.459735 
C 92.754506 93.786774 92.884439 94.100462 93.115691 94.331713 
C 93.346942 94.562964 93.66063 94.692898 93.987669 94.692898 
z
" clip-path="url(#pb7336c0439)" style="stroke: #000000"/>
    <path d="M 90.094643 79.673306 
C 90.269156 79.673306 90.436545 79.603971 90.559945 79.480571 
C 90.683345 79.357172 90.75268 79.189782 90.75268 79.015269 
C 90.75268 78.840755 90.683345 78.673366 90.559945 78.549966 
C 90.436545 78.426567 90.269156 78.357232 90.094643 78.357232 
C 89.920129 78.357232 89.75274 78.426567 89.62934 78.549966 
C 89.505941 78.673366 89.436606 78.840755 89.436606 79.015269 
C 89.436606 79.189782 89.505941 79.357172 89.62934 79.480571 
C 89.75274 79.603971 89.920129 79.673306 90.094643 79.673306 
z
" clip-path="url(#pb7336c0439)" style="stroke: #000000"/>
    <path d="M 100.522523 122.627111 
C 100.994863 122.627111 101.447921 122.439448 101.781916 122.105453 
C 102.115911 121.771458 102.303574 121.3184 102.303574 120.84606 
C 102.303574 120.373719 102.115911 119.920661 101.781916 119.586666 
C 101.447921 119.252671 100.994863 119.065008 100.522523 119.065008 
C 100.050182 119.065008 99.597124 119.252671 99.263129 119.586666 
C 98.929134 119.920661 98.741471 120.373719 98.741471 120.84606 
C 98.741471 121.3184 98.929134 121.771458 99.263129 122.105453 
C 99.597124 122.439448 100.050182 122.627111 100.522523 122.627111 
z
" clip-path="url(#pb7336c0439)" style="stroke: #000000"/>
    <path d="M 98.339898 117.690051 
C 98.472499 117.690051 98.599688 117.637368 98.693451 117.543605 
C 98.787215 117.449841 98.839898 117.322653 98.839898 117.190051 
C 98.839898 117.05745 98.787215 116.930261 98.693451 116.836498 
C 98.599688 116.742734 98.472499 116.690051 98.339898 116.690051 
C 98.207296 116.690051 98.080108 116.742734 97.986344 116.836498 
C 97.892581 116.930261 97.839898 117.05745 97.839898 117.190051 
C 97.839898 117.322653 97.892581 117.449841 97.986344 117.543605 
C 98.080108 117.637368 98.207296 117.690051 98.339898 117.690051 
z
" clip-path="url(#pb7336c0439)" style="stroke: #000000"/>
    <path d="M 96.425228 113.73262 
C 97.01824 113.73262 97.587044 113.497014 98.006367 113.077691 
C 98.42569 112.658368 98.661296 112.089564 98.661296 111.496552 
C 98.661296 110.90354 98.42569 110.334736 98.006367 109.915413 
C 97.587044 109.49609 97.01824 109.260484 96.425228 109.260484 
C 95.832216 109.260484 95.263412 109.49609 94.844089 109.915413 
C 94.424766 110.334736 94.18916 110.90354 94.18916 111.496552 
C 94.18916 112.089564 94.424766 112.658368 94.844089 113.077691 
C 95.263412 113.497014 95.832216 113.73262 96.425228 113.73262 
z
" clip-path="url(#pb7336c0439)" style="stroke: #000000"/>
    <path d="M 94.726485 109.08838 
C 95.316133 109.08838 95.88171 108.85411 96.298654 108.437166 
C 96.715598 108.020222 96.949867 107.454645 96.949867 106.864997 
C 96.949867 106.275349 96.715598 105.709772 96.298654 105.292828 
C 95.88171 104.875884 95.316133 104.641614 94.726485 104.641614 
C 94.136837 104.641614 93.57126 104.875884 93.154316 105.292828 
C 92.737372 105.709772 92.503102 106.275349 92.503102 106.864997 
C 92.503102 107.454645 92.737372 108.020222 93.154316 108.437166 
C 93.57126 108.85411 94.136837 109.08838 94.726485 109.08838 
z
" clip-path="url(#pb7336c0439)" style="stroke: #000000"/>
    <path d="M 94.932798 104.863958 
C 95.430208 104.863958 95.907313 104.666335 96.259036 104.314613 
C 96.610758 103.96289 96.808381 103.485786 96.808381 102.988375 
C 96.808381 102.490965 96.610758 102.01386 96.259036 101.662138 
C 95.907313 101.310415 95.430208 101.112792 94.932798 101.112792 
C 94.435388 101.112792 93.958283 101.310415 93.606561 101.662138 
C 93.254838 102.01386 93.057215 102.490965 93.057215 102.988375 
C 93.057215 103.485786 93.254838 103.96289 93.606561 104.314613 
C 93.958283 104.666335 94.435388 104.863958 94.932798 104.863958 
z
" clip-path="url(#pb7336c0439)" style="stroke: #000000"/>
    <path d="M 91.930411 99.883509 
C 92.469412 99.883509 92.986409 99.669362 93.36754 99.288231 
C 93.748671 98.9071 93.962818 98.390103 93.962818 97.851102 
C 93.962818 97.312102 93.748671 96.795105 93.36754 96.413974 
C 92.986409 96.032843 92.469412 95.818695 91.930411 95.818695 
C 91.39141 95.818695 90.874413 96.032843 90.493282 96.413974 
C 90.112151 96.795105 89.898004 97.312102 89.898004 97.851102 
C 89.898004 98.390103 90.112151 98.9071 90.493282 99.288231 
C 90.874413 99.669362 91.39141 99.883509 91.930411 99.883509 
z
" clip-path="url(#pb7336c0439)" style="stroke: #000000"/>
    <path d="M 90.768596 95.360039 
C 91.361608 95.360039 91.930412 95.124433 92.349735 94.70511 
C 92.769058 94.285787 93.004664 93.716983 93.004664 93.123971 
C 93.004664 92.530959 92.769058 91.962155 92.349735 91.542832 
C 91.930412 91.123509 91.361608 90.887903 90.768596 90.887903 
C 90.175584 90.887903 89.60678 91.123509 89.187457 91.542832 
C 88.768134 91.962155 88.532528 92.530959 88.532528 93.123971 
C 88.532528 93.716983 88.768134 94.285787 89.187457 94.70511 
C 89.60678 95.124433 90.175584 95.360039 90.768596 95.360039 
z
" clip-path="url(#pb7336c0439)" style="stroke: #000000"/>
    <path d="M 87.549903 84.902598 
C 87.724417 84.902598 87.891806 84.833263 88.015206 84.709864 
C 88.138605 84.586464 88.20794 84.419075 88.20794 84.244561 
C 88.20794 84.070048 88.138605 83.902659 88.015206 83.779259 
C 87.891806 83.655859 87.724417 83.586524 87.549903 83.586524 
C 87.37539 83.586524 87.208001 83.655859 87.084601 83.779259 
C 86.961201 83.902659 86.891866 84.070048 86.891866 84.244561 
C 86.891866 84.419075 86.961201 84.586464 87.084601 84.709864 
C 87.208001 84.833263 87.37539 84.902598 87.549903 84.902598 
z
" clip-path="url(#pb7336c0439)" style="stroke: #000000"/>
    <path d="M 86.303228 83.379991 
C 86.628034 83.379991 86.939581 83.250944 87.169254 83.021271 
C 87.398926 82.791599 87.527973 82.480052 87.527973 82.155246 
C 87.527973 81.83044 87.398926 81.518893 87.169254 81.28922 
C 86.939581 81.059548 86.628034 80.930501 86.303228 80.930501 
C 85.978422 80.930501 85.666876 81.059548 85.437203 81.28922 
C 85.20753 81.518893 85.078483 81.83044 85.078483 82.155246 
C 85.078483 82.480052 85.20753 82.791599 85.437203 83.021271 
C 85.666876 83.250944 85.978422 83.379991 86.303228 83.379991 
z
" clip-path="url(#pb7336c0439)" style="stroke: #000000"/>
    <path d="M 84.686037 77.686456 
C 84.962883 77.686456 85.228426 77.576464 85.424185 77.380705 
C 85.619945 77.184946 85.729936 76.919402 85.729936 76.642557 
C 85.729936 76.365712 85.619945 76.100168 85.424185 75.904409 
C 85.228426 75.70865 84.962883 75.598658 84.686037 75.598658 
C 84.409192 75.598658 84.143649 75.70865 83.94789 75.904409 
C 83.75213 76.100168 83.642139 76.365712 83.642139 76.642557 
C 83.642139 76.919402 83.75213 77.184946 83.94789 77.380705 
C 84.143649 77.576464 84.409192 77.686456 84.686037 77.686456 
z
" clip-path="url(#pb7336c0439)" style="stroke: #000000"/>
    <path d="M 80.298374 65.641449 
C 80.430975 65.641449 80.558163 65.588766 80.651927 65.495003 
C 80.74569 65.401239 80.798374 65.274051 80.798374 65.141449 
C 80.798374 65.008848 80.74569 64.881659 80.651927 64.787896 
C 80.558163 64.694133 80.430975 64.641449 80.298374 64.641449 
C 80.165772 64.641449 80.038584 64.694133 79.94482 64.787896 
C 79.851057 64.881659 79.798374 65.008848 79.798374 65.141449 
C 79.798374 65.274051 79.851057 65.401239 79.94482 65.495003 
C 80.038584 65.588766 80.165772 65.641449 80.298374 65.641449 
z
" clip-path="url(#pb7336c0439)" style="stroke: #000000"/>
    <path d="M 94.836424 124.303581 
C 95.245976 124.303581 95.638809 124.140865 95.928406 123.851268 
C 96.218003 123.561671 96.38072 123.168838 96.38072 122.759286 
C 96.38072 122.349734 96.218003 121.956901 95.928406 121.667304 
C 95.638809 121.377707 95.245976 121.214991 94.836424 121.214991 
C 94.426872 121.214991 94.03404 121.377707 93.744443 121.667304 
C 93.454846 121.956901 93.292129 122.349734 93.292129 122.759286 
C 93.292129 123.168838 93.454846 123.561671 93.744443 123.851268 
C 94.03404 124.140865 94.426872 124.303581 94.836424 124.303581 
z
" clip-path="url(#pb7336c0439)" style="stroke: #000000"/>
    <path d="M 93.149255 119.728493 
C 93.656423 119.728493 94.142887 119.526993 94.501509 119.168371 
C 94.860131 118.809749 95.061631 118.323285 95.061631 117.816117 
C 95.061631 117.308948 94.860131 116.822484 94.501509 116.463862 
C 94.142887 116.10524 93.656423 115.90374 93.149255 115.90374 
C 92.642087 115.90374 92.155622 116.10524 91.797 116.463862 
C 91.438378 116.822484 91.236878 117.308948 91.236878 117.816117 
C 91.236878 118.323285 91.438378 118.809749 91.797 119.168371 
C 92.155622 119.526993 92.642087 119.728493 93.149255 119.728493 
z
" clip-path="url(#pb7336c0439)" style="stroke: #000000"/>
    <path d="M 91.957406 114.872998 
C 92.447759 114.872998 92.918095 114.678178 93.264827 114.331446 
C 93.611559 113.984714 93.806378 113.514379 93.806378 113.024026 
C 93.806378 112.533672 93.611559 112.063337 93.264827 111.716605 
C 92.918095 111.369873 92.447759 111.175053 91.957406 111.175053 
C 91.467053 111.175053 90.996717 111.369873 90.649985 111.716605 
C 90.303253 112.063337 90.108434 112.533672 90.108434 113.024026 
C 90.108434 113.514379 90.303253 113.984714 90.649985 114.331446 
C 90.996717 114.678178 91.467053 114.872998 91.957406 114.872998 
z
" clip-path="url(#pb7336c0439)" style="stroke: #000000"/>
    <path d="M 90.839418 110.376563 
C 91.141684 110.376563 91.431611 110.256471 91.645345 110.042737 
C 91.85908 109.829002 91.979171 109.539075 91.979171 109.236809 
C 91.979171 108.934543 91.85908 108.644616 91.645345 108.430882 
C 91.431611 108.217147 91.141684 108.097056 90.839418 108.097056 
C 90.537152 108.097056 90.247225 108.217147 90.03349 108.430882 
C 89.819756 108.644616 89.699664 108.934543 89.699664 109.236809 
C 89.699664 109.539075 89.819756 109.829002 90.03349 110.042737 
C 90.247225 110.256471 90.537152 110.376563 90.839418 110.376563 
z
" clip-path="url(#pb7336c0439)" style="stroke: #000000"/>
    <path d="M 87.702927 100.878076 
C 88.295939 100.878076 88.864743 100.642469 89.284066 100.223146 
C 89.703389 99.803824 89.938995 99.23502 89.938995 98.642008 
C 89.938995 98.048995 89.703389 97.480192 89.284066 97.060869 
C 88.864743 96.641546 88.295939 96.40594 87.702927 96.40594 
C 87.109915 96.40594 86.541111 96.641546 86.121788 97.060869 
C 85.702465 97.480192 85.466859 98.048995 85.466859 98.642008 
C 85.466859 99.23502 85.702465 99.803824 86.121788 100.223146 
C 86.541111 100.642469 87.109915 100.878076 87.702927 100.878076 
z
" clip-path="url(#pb7336c0439)" style="stroke: #000000"/>
    <path d="M 85.507295 97.184201 
C 86.100307 97.184201 86.669111 96.948594 87.088434 96.529271 
C 87.507757 96.109948 87.743363 95.541145 87.743363 94.948133 
C 87.743363 94.35512 87.507757 93.786317 87.088434 93.366994 
C 86.669111 92.947671 86.100307 92.712065 85.507295 92.712065 
C 84.914283 92.712065 84.345479 92.947671 83.926156 93.366994 
C 83.506833 93.786317 83.271227 94.35512 83.271227 94.948133 
C 83.271227 95.541145 83.506833 96.109948 83.926156 96.529271 
C 84.345479 96.948594 84.914283 97.184201 85.507295 97.184201 
z
" clip-path="url(#pb7336c0439)" style="stroke: #000000"/>
    <path d="M 83.549503 94.44614 
C 84.009644 94.44614 84.451 94.263324 84.776369 93.937955 
C 85.101737 93.612587 85.284553 93.17123 85.284553 92.71109 
C 85.284553 92.250949 85.101737 91.809592 84.776369 91.484224 
C 84.451 91.158855 84.009644 90.976039 83.549503 90.976039 
C 83.089362 90.976039 82.648006 91.158855 82.322637 91.484224 
C 81.997269 91.809592 81.814453 92.250949 81.814453 92.71109 
C 81.814453 93.17123 81.997269 93.612587 82.322637 93.937955 
C 82.648006 94.263324 83.089362 94.44614 83.549503 94.44614 
z
" clip-path="url(#pb7336c0439)" style="stroke: #000000"/>
    <path d="M 81.634984 89.687722 
C 82.198431 89.687722 82.738876 89.463862 83.137293 89.065445 
C 83.53571 88.667028 83.75957 88.126582 83.75957 87.563136 
C 83.75957 86.999689 83.53571 86.459243 83.137293 86.060826 
C 82.738876 85.662409 82.198431 85.438549 81.634984 85.438549 
C 81.071537 85.438549 80.531091 85.662409 80.132674 86.060826 
C 79.734257 86.459243 79.510397 86.999689 79.510397 87.563136 
C 79.510397 88.126582 79.734257 88.667028 80.132674 89.065445 
C 80.531091 89.463862 81.071537 89.687722 81.634984 89.687722 
z
" clip-path="url(#pb7336c0439)" style="stroke: #000000"/>
    <path d="M 81.832705 84.180444 
C 82.426087 84.180444 82.995246 83.94469 83.414831 83.525105 
C 83.834416 83.105521 84.070169 82.536362 84.070169 81.942979 
C 84.070169 81.349597 83.834416 80.780438 83.414831 80.360853 
C 82.995246 79.941268 82.426087 79.705515 81.832705 79.705515 
C 81.239322 79.705515 80.670163 79.941268 80.250579 80.360853 
C 79.830994 80.780438 79.595241 81.349597 79.595241 81.942979 
C 79.595241 82.536362 79.830994 83.105521 80.250579 83.525105 
C 80.670163 83.94469 81.239322 84.180444 81.832705 84.180444 
z
" clip-path="url(#pb7336c0439)" style="stroke: #000000"/>
    <path d="M 80.563016 78.798867 
C 80.880833 78.798867 81.185676 78.672597 81.410406 78.447867 
C 81.635137 78.223136 81.761407 77.918293 81.761407 77.600477 
C 81.761407 77.28266 81.635137 76.977817 81.410406 76.753086 
C 81.185676 76.528356 80.880833 76.402086 80.563016 76.402086 
C 80.245199 76.402086 79.940356 76.528356 79.715626 76.753086 
C 79.490895 76.977817 79.364625 77.28266 79.364625 77.600477 
C 79.364625 77.918293 79.490895 78.223136 79.715626 78.447867 
C 79.940356 78.672597 80.245199 78.798867 80.563016 78.798867 
z
" clip-path="url(#pb7336c0439)" style="stroke: #000000"/>
    <path d="M 78.808697 74.309226 
C 78.941299 74.309226 79.068487 74.256543 79.162251 74.162779 
C 79.256014 74.069016 79.308697 73.941827 79.308697 73.809226 
C 79.308697 73.676624 79.256014 73.549436 79.162251 73.455672 
C 79.068487 73.361909 78.941299 73.309226 78.808697 73.309226 
C 78.676096 73.309226 78.548907 73.361909 78.455144 73.455672 
C 78.36138 73.549436 78.308697 73.676624 78.308697 73.809226 
C 78.308697 73.941827 78.36138 74.069016 78.455144 74.162779 
C 78.548907 74.256543 78.676096 74.309226 78.808697 74.309226 
z
" clip-path="url(#pb7336c0439)" style="stroke: #000000"/>
    <path d="M 75.14879 65.752276 
C 75.281392 65.752276 75.40858 65.699593 75.502344 65.605829 
C 75.596107 65.512066 75.64879 65.384877 75.64879 65.252276 
C 75.64879 65.119674 75.596107 64.992486 75.502344 64.898722 
C 75.40858 64.804959 75.281392 64.752276 75.14879 64.752276 
C 75.016189 64.752276 74.889 64.804959 74.795237 64.898722 
C 74.701474 64.992486 74.64879 65.119674 74.64879 65.252276 
C 74.64879 65.384877 74.701474 65.512066 74.795237 65.605829 
C 74.889 65.699593 75.016189 65.752276 75.14879 65.752276 
z
" clip-path="url(#pb7336c0439)" style="stroke: #000000"/>
    <path d="M 90.247821 124.090935 
C 90.380423 124.090935 90.507611 124.038252 90.601375 123.944488 
C 90.695138 123.850725 90.747821 123.723536 90.747821 123.590935 
C 90.747821 123.458333 90.695138 123.331145 90.601375 123.237381 
C 90.507611 123.143618 90.380423 123.090935 90.247821 123.090935 
C 90.11522 123.090935 89.988031 123.143618 89.894268 123.237381 
C 89.800505 123.331145 89.747821 123.458333 89.747821 123.590935 
C 89.747821 123.723536 89.800505 123.850725 89.894268 123.944488 
C 89.988031 124.038252 90.11522 124.090935 90.247821 124.090935 
z
" clip-path="url(#pb7336c0439)" style="stroke: #000000"/>
    <path d="M 89.745148 122.525973 
C 90.33816 122.525973 90.906963 122.290367 91.326286 121.871044 
C 91.745609 121.451721 91.981216 120.882917 91.981216 120.289905 
C 91.981216 119.696893 91.745609 119.128089 91.326286 118.708766 
C 90.906963 118.289443 90.33816 118.053837 89.745148 118.053837 
C 89.152135 118.053837 88.583332 118.289443 88.164009 118.708766 
C 87.744686 119.128089 87.50908 119.696893 87.50908 120.289905 
C 87.50908 120.882917 87.744686 121.451721 88.164009 121.871044 
C 88.583332 122.290367 89.152135 122.525973 89.745148 122.525973 
z
" clip-path="url(#pb7336c0439)" style="stroke: #000000"/>
    <path d="M 88.656111 117.248429 
C 89.249123 117.248429 89.817927 117.012823 90.23725 116.5935 
C 90.656572 116.174177 90.892179 115.605374 90.892179 115.012361 
C 90.892179 114.419349 90.656572 113.850546 90.23725 113.431223 
C 89.817927 113.0119 89.249123 112.776293 88.656111 112.776293 
C 88.063099 112.776293 87.494295 113.0119 87.074972 113.431223 
C 86.655649 113.850546 86.420043 114.419349 86.420043 115.012361 
C 86.420043 115.605374 86.655649 116.174177 87.074972 116.5935 
C 87.494295 117.012823 88.063099 117.248429 88.656111 117.248429 
z
" clip-path="url(#pb7336c0439)" style="stroke: #000000"/>
    <path d="M 83.333585 107.327093 
C 83.848286 107.327093 84.341976 107.1226 84.705924 106.758652 
C 85.069873 106.394703 85.274366 105.901014 85.274366 105.386313 
C 85.274366 104.871611 85.069873 104.377922 84.705924 104.013973 
C 84.341976 103.650025 83.848286 103.445532 83.333585 103.445532 
C 82.818884 103.445532 82.325194 103.650025 81.961246 104.013973 
C 81.597297 104.377922 81.392804 104.871611 81.392804 105.386313 
C 81.392804 105.901014 81.597297 106.394703 81.961246 106.758652 
C 82.325194 107.1226 82.818884 107.327093 83.333585 107.327093 
z
" clip-path="url(#pb7336c0439)" style="stroke: #000000"/>
    <path d="M 79.677417 92.882691 
C 79.94667 92.882691 80.204932 92.775716 80.395323 92.585325 
C 80.585713 92.394934 80.692689 92.136673 80.692689 91.867419 
C 80.692689 91.598166 80.585713 91.339905 80.395323 91.149514 
C 80.204932 90.959123 79.94667 90.852148 79.677417 90.852148 
C 79.408164 90.852148 79.149903 90.959123 78.959512 91.149514 
C 78.769121 91.339905 78.662146 91.598166 78.662146 91.867419 
C 78.662146 92.136673 78.769121 92.394934 78.959512 92.585325 
C 79.149903 92.775716 79.408164 92.882691 79.677417 92.882691 
z
" clip-path="url(#pb7336c0439)" style="stroke: #000000"/>
    <path d="M 77.838097 92.0609 
C 78.340458 92.0609 78.82231 91.86131 79.177533 91.506088 
C 79.532755 91.150865 79.732345 90.669013 79.732345 90.166652 
C 79.732345 89.664292 79.532755 89.182439 79.177533 88.827217 
C 78.82231 88.471994 78.340458 88.272404 77.838097 88.272404 
C 77.335737 88.272404 76.853884 88.471994 76.498662 88.827217 
C 76.143439 89.182439 75.943849 89.664292 75.943849 90.166652 
C 75.943849 90.669013 76.143439 91.150865 76.498662 91.506088 
C 76.853884 91.86131 77.335737 92.0609 77.838097 92.0609 
z
" clip-path="url(#pb7336c0439)" style="stroke: #000000"/>
    <path d="M 76.595438 84.957014 
C 76.959787 84.957014 77.309262 84.812257 77.566895 84.554624 
C 77.824529 84.29699 77.969286 83.947515 77.969286 83.583166 
C 77.969286 83.218817 77.824529 82.869342 77.566895 82.611709 
C 77.309262 82.354075 76.959787 82.209318 76.595438 82.209318 
C 76.231089 82.209318 75.881614 82.354075 75.623981 82.611709 
C 75.366347 82.869342 75.22159 83.218817 75.22159 83.583166 
C 75.22159 83.947515 75.366347 84.29699 75.623981 84.554624 
C 75.881614 84.812257 76.231089 84.957014 76.595438 84.957014 
z
" clip-path="url(#pb7336c0439)" style="stroke: #000000"/>
    <path d="M 75.766162 81.113539 
C 76.118769 81.113539 76.456982 80.973447 76.706313 80.724116 
C 76.955644 80.474785 77.095736 80.136573 77.095736 79.783966 
C 77.095736 79.431358 76.955644 79.093146 76.706313 78.843815 
C 76.456982 78.594484 76.118769 78.454392 75.766162 78.454392 
C 75.413555 78.454392 75.075342 78.594484 74.826011 78.843815 
C 74.576681 79.093146 74.436588 79.431358 74.436588 79.783966 
C 74.436588 80.136573 74.576681 80.474785 74.826011 80.724116 
C 75.075342 80.973447 75.413555 81.113539 75.766162 81.113539 
z
" clip-path="url(#pb7336c0439)" style="stroke: #000000"/>
    <path d="M 72.732407 72.480882 
C 73.201037 72.480882 73.650536 72.294693 73.981907 71.963322 
C 74.313278 71.631951 74.499467 71.182452 74.499467 70.713823 
C 74.499467 70.245193 74.313278 69.795694 73.981907 69.464323 
C 73.650536 69.132952 73.201037 68.946763 72.732407 68.946763 
C 72.263778 68.946763 71.814279 69.132952 71.482907 69.464323 
C 71.151536 69.795694 70.965348 70.245193 70.965348 70.713823 
C 70.965348 71.182452 71.151536 71.631951 71.482907 71.963322 
C 71.814279 72.294693 72.263778 72.480882 72.732407 72.480882 
z
" clip-path="url(#pb7336c0439)" style="stroke: #000000"/>
    <path d="M 85.044472 122.344204 
C 85.637484 122.344204 86.206288 122.108597 86.625611 121.689274 
C 87.044934 121.269951 87.28054 120.701148 87.28054 120.108136 
C 87.28054 119.515123 87.044934 118.94632 86.625611 118.526997 
C 86.206288 118.107674 85.637484 117.872068 85.044472 117.872068 
C 84.45146 117.872068 83.882656 118.107674 83.463333 118.526997 
C 83.04401 118.94632 82.808404 119.515123 82.808404 120.108136 
C 82.808404 120.701148 83.04401 121.269951 83.463333 121.689274 
C 83.882656 122.108597 84.45146 122.344204 85.044472 122.344204 
z
" clip-path="url(#pb7336c0439)" style="stroke: #000000"/>
    <path d="M 82.318394 115.382006 
C 82.492907 115.382006 82.660296 115.312671 82.783696 115.189272 
C 82.907096 115.065872 82.976431 114.898483 82.976431 114.723969 
C 82.976431 114.549456 82.907096 114.382067 82.783696 114.258667 
C 82.660296 114.135267 82.492907 114.065932 82.318394 114.065932 
C 82.14388 114.065932 81.976491 114.135267 81.853091 114.258667 
C 81.729692 114.382067 81.660357 114.549456 81.660357 114.723969 
C 81.660357 114.898483 81.729692 115.065872 81.853091 115.189272 
C 81.976491 115.312671 82.14388 115.382006 82.318394 115.382006 
z
" clip-path="url(#pb7336c0439)" style="stroke: #000000"/>
    <path d="M 80.64678 113.620494 
C 81.150355 113.620494 81.633373 113.420421 81.989454 113.06434 
C 82.345536 112.708258 82.545609 112.22524 82.545609 111.721665 
C 82.545609 111.218089 82.345536 110.735072 81.989454 110.37899 
C 81.633373 110.022908 81.150355 109.822836 80.64678 109.822836 
C 80.143204 109.822836 79.660186 110.022908 79.304105 110.37899 
C 78.948023 110.735072 78.747951 111.218089 78.747951 111.721665 
C 78.747951 112.22524 78.948023 112.708258 79.304105 113.06434 
C 79.660186 113.420421 80.143204 113.620494 80.64678 113.620494 
z
" clip-path="url(#pb7336c0439)" style="stroke: #000000"/>
    <path d="M 79.734309 108.516227 
C 80.268304 108.516227 80.780501 108.304069 81.158093 107.926477 
C 81.535684 107.548885 81.747843 107.036689 81.747843 106.502694 
C 81.747843 105.968698 81.535684 105.456502 81.158093 105.07891 
C 80.780501 104.701318 80.268304 104.48916 79.734309 104.48916 
C 79.200314 104.48916 78.688117 104.701318 78.310526 105.07891 
C 77.932934 105.456502 77.720775 105.968698 77.720775 106.502694 
C 77.720775 107.036689 77.932934 107.548885 78.310526 107.926477 
C 78.688117 108.304069 79.200314 108.516227 79.734309 108.516227 
z
" clip-path="url(#pb7336c0439)" style="stroke: #000000"/>
    <path d="M 76.153682 100.115146 
C 76.648561 100.115146 77.123237 99.918529 77.47317 99.568596 
C 77.823102 99.218664 78.01972 98.743987 78.01972 98.249108 
C 78.01972 97.754229 77.823102 97.279553 77.47317 96.92962 
C 77.123237 96.579688 76.648561 96.383071 76.153682 96.383071 
C 75.658803 96.383071 75.184126 96.579688 74.834194 96.92962 
C 74.484261 97.279553 74.287644 97.754229 74.287644 98.249108 
C 74.287644 98.743987 74.484261 99.218664 74.834194 99.568596 
C 75.184126 99.918529 75.658803 100.115146 76.153682 100.115146 
z
" clip-path="url(#pb7336c0439)" style="stroke: #000000"/>
    <path d="M 75.412342 96.974767 
C 76.005355 96.974767 76.574158 96.739161 76.993481 96.319838 
C 77.412804 95.900515 77.64841 95.331711 77.64841 94.738699 
C 77.64841 94.145687 77.412804 93.576883 76.993481 93.15756 
C 76.574158 92.738237 76.005355 92.502631 75.412342 92.502631 
C 74.81933 92.502631 74.250527 92.738237 73.831204 93.15756 
C 73.411881 93.576883 73.176274 94.145687 73.176274 94.738699 
C 73.176274 95.331711 73.411881 95.900515 73.831204 96.319838 
C 74.250527 96.739161 74.81933 96.974767 75.412342 96.974767 
z
" clip-path="url(#pb7336c0439)" style="stroke: #000000"/>
    <path d="M 74.807036 91.9154 
C 75.400048 91.9154 75.968852 91.679794 76.388175 91.260471 
C 76.807498 90.841148 77.043104 90.272344 77.043104 89.679332 
C 77.043104 89.08632 76.807498 88.517516 76.388175 88.098193 
C 75.968852 87.67887 75.400048 87.443264 74.807036 87.443264 
C 74.214024 87.443264 73.64522 87.67887 73.225898 88.098193 
C 72.806575 88.517516 72.570968 89.08632 72.570968 89.679332 
C 72.570968 90.272344 72.806575 90.841148 73.225898 91.260471 
C 73.64522 91.679794 74.214024 91.9154 74.807036 91.9154 
z
" clip-path="url(#pb7336c0439)" style="stroke: #000000"/>
    <path d="M 73.553222 86.434365 
C 73.882449 86.434365 74.198235 86.303562 74.431033 86.070764 
C 74.663831 85.837966 74.794634 85.52218 74.794634 85.192953 
C 74.794634 84.863727 74.663831 84.547941 74.431033 84.315142 
C 74.198235 84.082344 73.882449 83.951541 73.553222 83.951541 
C 73.223996 83.951541 72.90821 84.082344 72.675411 84.315142 
C 72.442613 84.547941 72.31181 84.863727 72.31181 85.192953 
C 72.31181 85.52218 72.442613 85.837966 72.675411 86.070764 
C 72.90821 86.303562 73.223996 86.434365 73.553222 86.434365 
z
" clip-path="url(#pb7336c0439)" style="stroke: #000000"/>
    <path d="M 72.177228 84.287395 
C 72.607635 84.287395 73.020472 84.116392 73.324816 83.812048 
C 73.629159 83.507705 73.800162 83.094868 73.800162 82.664461 
C 73.800162 82.234054 73.629159 81.821217 73.324816 81.516874 
C 73.020472 81.21253 72.607635 81.041527 72.177228 81.041527 
C 71.746821 81.041527 71.333985 81.21253 71.029641 81.516874 
C 70.725297 81.821217 70.554295 82.234054 70.554295 82.664461 
C 70.554295 83.094868 70.725297 83.507705 71.029641 83.812048 
C 71.333985 84.116392 71.746821 84.287395 72.177228 84.287395 
z
" clip-path="url(#pb7336c0439)" style="stroke: #000000"/>
    <path d="M 70.946166 77.476972 
C 71.161853 77.476972 71.368734 77.391279 71.521248 77.238766 
C 71.673761 77.086252 71.759454 76.879371 71.759454 76.663684 
C 71.759454 76.447998 71.673761 76.241116 71.521248 76.088603 
C 71.368734 75.936089 71.161853 75.850396 70.946166 75.850396 
C 70.730479 75.850396 70.523598 75.936089 70.371084 76.088603 
C 70.218571 76.241116 70.132878 76.447998 70.132878 76.663684 
C 70.132878 76.879371 70.218571 77.086252 70.371084 77.238766 
C 70.523598 77.391279 70.730479 77.476972 70.946166 77.476972 
z
" clip-path="url(#pb7336c0439)" style="stroke: #000000"/>
    <path d="M 68.254093 73.155731 
C 68.411784 73.155731 68.563037 73.09308 68.674541 72.981576 
C 68.786046 72.870072 68.848697 72.718819 68.848697 72.561128 
C 68.848697 72.403437 68.786046 72.252184 68.674541 72.14068 
C 68.563037 72.029175 68.411784 71.966524 68.254093 71.966524 
C 68.096403 71.966524 67.945149 72.029175 67.833645 72.14068 
C 67.722141 72.252184 67.65949 72.403437 67.65949 72.561128 
C 67.65949 72.718819 67.722141 72.870072 67.833645 72.981576 
C 67.945149 73.09308 68.096403 73.155731 68.254093 73.155731 
z
" clip-path="url(#pb7336c0439)" style="stroke: #000000"/>
    <path d="M 84.497717 137.262986 
C 84.953839 137.262986 85.39134 137.081767 85.713867 136.75924 
C 86.036393 136.436713 86.217612 135.999212 86.217612 135.54309 
C 86.217612 135.086969 86.036393 134.649468 85.713867 134.326941 
C 85.39134 134.004414 84.953839 133.823195 84.497717 133.823195 
C 84.041596 133.823195 83.604094 134.004414 83.281567 134.326941 
C 82.959041 134.649468 82.777822 135.086969 82.777822 135.54309 
C 82.777822 135.999212 82.959041 136.436713 83.281567 136.75924 
C 83.604094 137.081767 84.041596 137.262986 84.497717 137.262986 
z
" clip-path="url(#pb7336c0439)" style="stroke: #000000"/>
    <path d="M 83.959386 131.975675 
C 84.552398 131.975675 85.121202 131.740069 85.540525 131.320746 
C 85.959848 130.901423 86.195454 130.332619 86.195454 129.739607 
C 86.195454 129.146595 85.959848 128.577791 85.540525 128.158468 
C 85.121202 127.739145 84.552398 127.503539 83.959386 127.503539 
C 83.366374 127.503539 82.79757 127.739145 82.378247 128.158468 
C 81.958924 128.577791 81.723318 129.146595 81.723318 129.739607 
C 81.723318 130.332619 81.958924 130.901423 82.378247 131.320746 
C 82.79757 131.740069 83.366374 131.975675 83.959386 131.975675 
z
" clip-path="url(#pb7336c0439)" style="stroke: #000000"/>
    <path d="M 79.95344 120.413507 
C 80.086042 120.413507 80.21323 120.360824 80.306993 120.26706 
C 80.400757 120.173297 80.45344 120.046108 80.45344 119.913507 
C 80.45344 119.780905 80.400757 119.653717 80.306993 119.559953 
C 80.21323 119.46619 80.086042 119.413507 79.95344 119.413507 
C 79.820838 119.413507 79.69365 119.46619 79.599887 119.559953 
C 79.506123 119.653717 79.45344 119.780905 79.45344 119.913507 
C 79.45344 120.046108 79.506123 120.173297 79.599887 120.26706 
C 79.69365 120.360824 79.820838 120.413507 79.95344 120.413507 
z
" clip-path="url(#pb7336c0439)" style="stroke: #000000"/>
    <path d="M 71.03427 98.259441 
C 71.49441 98.259441 71.935767 98.076625 72.261135 97.751257 
C 72.586504 97.425888 72.76932 96.984532 72.76932 96.524391 
C 72.76932 96.064251 72.586504 95.622894 72.261135 95.297526 
C 71.935767 94.972157 71.49441 94.789341 71.03427 94.789341 
C 70.574129 94.789341 70.132773 94.972157 69.807404 95.297526 
C 69.482036 95.622894 69.29922 96.064251 69.29922 96.524391 
C 69.29922 96.984532 69.482036 97.425888 69.807404 97.751257 
C 70.132773 98.076625 70.574129 98.259441 71.03427 98.259441 
z
" clip-path="url(#pb7336c0439)" style="stroke: #000000"/>
    <path d="M 69.923767 93.553596 
C 70.449449 93.553596 70.953671 93.344741 71.325384 92.973028 
C 71.697097 92.601315 71.905953 92.097093 71.905953 91.571411 
C 71.905953 91.045729 71.697097 90.541508 71.325384 90.169794 
C 70.953671 89.798081 70.449449 89.589226 69.923767 89.589226 
C 69.398086 89.589226 68.893864 89.798081 68.522151 90.169794 
C 68.150438 90.541508 67.941582 91.045729 67.941582 91.571411 
C 67.941582 92.097093 68.150438 92.601315 68.522151 92.973028 
C 68.893864 93.344741 69.398086 93.553596 69.923767 93.553596 
z
" clip-path="url(#pb7336c0439)" style="stroke: #000000"/>
    <path d="M 69.127097 86.619074 
C 69.687933 86.619074 70.225874 86.396251 70.622445 85.99968 
C 71.019017 85.603109 71.241839 85.065168 71.241839 84.504331 
C 71.241839 83.943495 71.019017 83.405554 70.622445 83.008983 
C 70.225874 82.612412 69.687933 82.389589 69.127097 82.389589 
C 68.56626 82.389589 68.028319 82.612412 67.631748 83.008983 
C 67.235177 83.405554 67.012354 83.943495 67.012354 84.504331 
C 67.012354 85.065168 67.235177 85.603109 67.631748 85.99968 
C 68.028319 86.396251 68.56626 86.619074 69.127097 86.619074 
z
" clip-path="url(#pb7336c0439)" style="stroke: #000000"/>
    <path d="M 67.446222 85.192076 
C 68.039234 85.192076 68.608038 84.95647 69.027361 84.537147 
C 69.446684 84.117824 69.68229 83.54902 69.68229 82.956008 
C 69.68229 82.362996 69.446684 81.794192 69.027361 81.374869 
C 68.608038 80.955546 68.039234 80.71994 67.446222 80.71994 
C 66.85321 80.71994 66.284406 80.955546 65.865083 81.374869 
C 65.44576 81.794192 65.210154 82.362996 65.210154 82.956008 
C 65.210154 83.54902 65.44576 84.117824 65.865083 84.537147 
C 66.284406 84.95647 66.85321 85.192076 67.446222 85.192076 
z
" clip-path="url(#pb7336c0439)" style="stroke: #000000"/>
    <path d="M 64.863023 78.144711 
C 65.305514 78.144711 65.729941 77.968908 66.042829 77.656019 
C 66.355717 77.343131 66.53152 76.918704 66.53152 76.476214 
C 66.53152 76.033723 66.355717 75.609296 66.042829 75.296408 
C 65.729941 74.98352 65.305514 74.807717 64.863023 74.807717 
C 64.420533 74.807717 63.996106 74.98352 63.683218 75.296408 
C 63.37033 75.609296 63.194526 76.033723 63.194526 76.476214 
C 63.194526 76.918704 63.37033 77.343131 63.683218 77.656019 
C 63.996106 77.968908 64.420533 78.144711 64.863023 78.144711 
z
" clip-path="url(#pb7336c0439)" style="stroke: #000000"/>
    <path d="M 81.067342 136.925409 
C 81.549632 136.925409 82.012233 136.733794 82.353264 136.392763 
C 82.694294 136.051733 82.88591 135.589131 82.88591 135.106841 
C 82.88591 134.624552 82.694294 134.16195 82.353264 133.82092 
C 82.012233 133.479889 81.549632 133.288274 81.067342 133.288274 
C 80.585052 133.288274 80.122451 133.479889 79.78142 133.82092 
C 79.44039 134.16195 79.248774 134.624552 79.248774 135.106841 
C 79.248774 135.589131 79.44039 136.051733 79.78142 136.392763 
C 80.122451 136.733794 80.585052 136.925409 81.067342 136.925409 
z
" clip-path="url(#pb7336c0439)" style="stroke: #000000"/>
    <path d="M 78.708963 133.749388 
C 79.301975 133.749388 79.870779 133.513781 80.290102 133.094458 
C 80.709425 132.675135 80.945031 132.106332 80.945031 131.51332 
C 80.945031 130.920307 80.709425 130.351504 80.290102 129.932181 
C 79.870779 129.512858 79.301975 129.277252 78.708963 129.277252 
C 78.115951 129.277252 77.547147 129.512858 77.127824 129.932181 
C 76.708501 130.351504 76.472895 130.920307 76.472895 131.51332 
C 76.472895 132.106332 76.708501 132.675135 77.127824 133.094458 
C 77.547147 133.513781 78.115951 133.749388 78.708963 133.749388 
z
" clip-path="url(#pb7336c0439)" style="stroke: #000000"/>
    <path d="M 74.611154 124.342295 
C 75.201554 124.342295 75.767853 124.107726 76.185329 123.69025 
C 76.602806 123.272774 76.837374 122.706475 76.837374 122.116074 
C 76.837374 121.525674 76.602806 120.959375 76.185329 120.541899 
C 75.767853 120.124423 75.201554 119.889854 74.611154 119.889854 
C 74.020753 119.889854 73.454455 120.124423 73.036978 120.541899 
C 72.619502 120.959375 72.384934 121.525674 72.384934 122.116074 
C 72.384934 122.706475 72.619502 123.272774 73.036978 123.69025 
C 73.454455 124.107726 74.020753 124.342295 74.611154 124.342295 
z
" clip-path="url(#pb7336c0439)" style="stroke: #000000"/>
    <path d="M 74.010222 120.660469 
C 74.603234 120.660469 75.172038 120.424863 75.591361 120.00554 
C 76.010684 119.586217 76.24629 119.017413 76.24629 118.424401 
C 76.24629 117.831389 76.010684 117.262585 75.591361 116.843262 
C 75.172038 116.423939 74.603234 116.188333 74.010222 116.188333 
C 73.41721 116.188333 72.848406 116.423939 72.429083 116.843262 
C 72.00976 117.262585 71.774154 117.831389 71.774154 118.424401 
C 71.774154 119.017413 72.00976 119.586217 72.429083 120.00554 
C 72.848406 120.424863 73.41721 120.660469 74.010222 120.660469 
z
" clip-path="url(#pb7336c0439)" style="stroke: #000000"/>
    <path d="M 73.014625 117.531321 
C 73.607637 117.531321 74.176441 117.295715 74.595764 116.876392 
C 75.015086 116.457069 75.250693 115.888265 75.250693 115.295253 
C 75.250693 114.702241 75.015086 114.133437 74.595764 113.714114 
C 74.176441 113.294791 73.607637 113.059185 73.014625 113.059185 
C 72.421613 113.059185 71.852809 113.294791 71.433486 113.714114 
C 71.014163 114.133437 70.778557 114.702241 70.778557 115.295253 
C 70.778557 115.888265 71.014163 116.457069 71.433486 116.876392 
C 71.852809 117.295715 72.421613 117.531321 73.014625 117.531321 
z
" clip-path="url(#pb7336c0439)" style="stroke: #000000"/>
    <path d="M 68.119911 108.218903 
C 68.713663 108.218903 69.283176 107.983002 69.703022 107.563156 
C 70.122868 107.14331 70.358768 106.573797 70.358768 105.980045 
C 70.358768 105.386293 70.122868 104.816779 69.703022 104.396933 
C 69.283176 103.977087 68.713663 103.741187 68.119911 103.741187 
C 67.526159 103.741187 66.956645 103.977087 66.536799 104.396933 
C 66.116953 104.816779 65.881053 105.386293 65.881053 105.980045 
C 65.881053 106.573797 66.116953 107.14331 66.536799 107.563156 
C 66.956645 107.983002 67.526159 108.218903 68.119911 108.218903 
z
" clip-path="url(#pb7336c0439)" style="stroke: #000000"/>
    <path d="M 65.263722 99.314778 
C 65.730082 99.314778 66.177404 99.129491 66.507171 98.799724 
C 66.836937 98.469958 67.022224 98.022636 67.022224 97.556276 
C 67.022224 97.089916 66.836937 96.642593 66.507171 96.312827 
C 66.177404 95.983061 65.730082 95.797774 65.263722 95.797774 
C 64.797362 95.797774 64.35004 95.983061 64.020273 96.312827 
C 63.690507 96.642593 63.50522 97.089916 63.50522 97.556276 
C 63.50522 98.022636 63.690507 98.469958 64.020273 98.799724 
C 64.35004 99.129491 64.797362 99.314778 65.263722 99.314778 
z
" clip-path="url(#pb7336c0439)" style="stroke: #000000"/>
    <path d="M 65.286034 94.356184 
C 65.566452 94.356184 65.835423 94.244773 66.033708 94.046488 
C 66.231994 93.848202 66.343405 93.579231 66.343405 93.298813 
C 66.343405 93.018395 66.231994 92.749424 66.033708 92.551139 
C 65.835423 92.352853 65.566452 92.241442 65.286034 92.241442 
C 65.005616 92.241442 64.736645 92.352853 64.538359 92.551139 
C 64.340074 92.749424 64.228663 93.018395 64.228663 93.298813 
C 64.228663 93.579231 64.340074 93.848202 64.538359 94.046488 
C 64.736645 94.244773 65.005616 94.356184 65.286034 94.356184 
z
" clip-path="url(#pb7336c0439)" style="stroke: #000000"/>
    <path d="M 64.395159 91.379256 
C 64.912113 91.379256 65.407963 91.173869 65.773505 90.808327 
C 66.139046 90.442786 66.344434 89.946936 66.344434 89.429982 
C 66.344434 88.913028 66.139046 88.417178 65.773505 88.051637 
C 65.407963 87.686095 64.912113 87.480707 64.395159 87.480707 
C 63.878206 87.480707 63.382356 87.686095 63.016814 88.051637 
C 62.651273 88.417178 62.445885 88.913028 62.445885 89.429982 
C 62.445885 89.946936 62.651273 90.442786 63.016814 90.808327 
C 63.382356 91.173869 63.878206 91.379256 64.395159 91.379256 
z
" clip-path="url(#pb7336c0439)" style="stroke: #000000"/>
    <path d="M 61.708381 86.944439 
C 62.301393 86.944439 62.870197 86.708833 63.28952 86.28951 
C 63.708843 85.870187 63.944449 85.301383 63.944449 84.708371 
C 63.944449 84.115359 63.708843 83.546555 63.28952 83.127232 
C 62.870197 82.707909 62.301393 82.472303 61.708381 82.472303 
C 61.115369 82.472303 60.546565 82.707909 60.127242 83.127232 
C 59.707919 83.546555 59.472313 84.115359 59.472313 84.708371 
C 59.472313 85.301383 59.707919 85.870187 60.127242 86.28951 
C 60.546565 86.708833 61.115369 86.944439 61.708381 86.944439 
z
" clip-path="url(#pb7336c0439)" style="stroke: #000000"/>
    <path d="M 60.613519 82.284087 
C 61.111556 82.284087 61.589263 82.086214 61.941428 81.734049 
C 62.293594 81.381883 62.491466 80.904177 62.491466 80.40614 
C 62.491466 79.908103 62.293594 79.430397 61.941428 79.078231 
C 61.589263 78.726066 61.111556 78.528193 60.613519 78.528193 
C 60.115482 78.528193 59.637776 78.726066 59.28561 79.078231 
C 58.933445 79.430397 58.735572 79.908103 58.735572 80.40614 
C 58.735572 80.904177 58.933445 81.381883 59.28561 81.734049 
C 59.637776 82.086214 60.115482 82.284087 60.613519 82.284087 
z
" clip-path="url(#pb7336c0439)" style="stroke: #000000"/>
    <path d="M 58.349932 78.256411 
C 58.80276 78.256411 59.237102 78.0765 59.5573 77.756303 
C 59.877498 77.436105 60.057408 77.001762 60.057408 76.548934 
C 60.057408 76.096106 59.877498 75.661764 59.5573 75.341566 
C 59.237102 75.021368 58.80276 74.841458 58.349932 74.841458 
C 57.897103 74.841458 57.462761 75.021368 57.142563 75.341566 
C 56.822366 75.661764 56.642455 76.096106 56.642455 76.548934 
C 56.642455 77.001762 56.822366 77.436105 57.142563 77.756303 
C 57.462761 78.0765 57.897103 78.256411 58.349932 78.256411 
z
" clip-path="url(#pb7336c0439)" style="stroke: #000000"/>
    <path d="M 71.792185 131.488997 
C 72.211508 131.488997 72.613713 131.322398 72.910219 131.025892 
C 73.206725 130.729386 73.373324 130.327181 73.373324 129.907858 
C 73.373324 129.488535 73.206725 129.08633 72.910219 128.789824 
C 72.613713 128.493318 72.211508 128.32672 71.792185 128.32672 
C 71.372862 128.32672 70.970657 128.493318 70.674151 128.789824 
C 70.377645 129.08633 70.211046 129.488535 70.211046 129.907858 
C 70.211046 130.327181 70.377645 130.729386 70.674151 131.025892 
C 70.970657 131.322398 71.372862 131.488997 71.792185 131.488997 
z
" clip-path="url(#pb7336c0439)" style="stroke: #000000"/>
    <path d="M 71.705938 125.517636 
C 72.232681 125.517636 72.73792 125.308359 73.110384 124.935896 
C 73.482847 124.563432 73.692124 124.058193 73.692124 123.53145 
C 73.692124 123.004708 73.482847 122.499468 73.110384 122.127005 
C 72.73792 121.754542 72.232681 121.545265 71.705938 121.545265 
C 71.179196 121.545265 70.673956 121.754542 70.301493 122.127005 
C 69.92903 122.499468 69.719753 123.004708 69.719753 123.53145 
C 69.719753 124.058193 69.92903 124.563432 70.301493 124.935896 
C 70.673956 125.308359 71.179196 125.517636 71.705938 125.517636 
z
" clip-path="url(#pb7336c0439)" style="stroke: #000000"/>
    <path d="M 68.370109 121.171152 
C 68.963121 121.171152 69.531925 120.935546 69.951248 120.516223 
C 70.370571 120.0969 70.606177 119.528096 70.606177 118.935084 
C 70.606177 118.342072 70.370571 117.773268 69.951248 117.353945 
C 69.531925 116.934622 68.963121 116.699016 68.370109 116.699016 
C 67.777097 116.699016 67.208293 116.934622 66.78897 117.353945 
C 66.369647 117.773268 66.134041 118.342072 66.134041 118.935084 
C 66.134041 119.528096 66.369647 120.0969 66.78897 120.516223 
C 67.208293 120.935546 67.777097 121.171152 68.370109 121.171152 
z
" clip-path="url(#pb7336c0439)" style="stroke: #000000"/>
    <path d="M 69.467131 117.49598 
C 70.04352 117.49598 70.596379 117.266979 71.003947 116.85941 
C 71.411516 116.451842 71.640518 115.898982 71.640518 115.322593 
C 71.640518 114.746205 71.411516 114.193345 71.003947 113.785777 
C 70.596379 113.378208 70.04352 113.149207 69.467131 113.149207 
C 68.890742 113.149207 68.337882 113.378208 67.930314 113.785777 
C 67.522745 114.193345 67.293744 114.746205 67.293744 115.322593 
C 67.293744 115.898982 67.522745 116.451842 67.930314 116.85941 
C 68.337882 117.266979 68.890742 117.49598 69.467131 117.49598 
z
" clip-path="url(#pb7336c0439)" style="stroke: #000000"/>
    <path d="M 65.215437 112.17675 
C 65.709677 112.17675 66.183741 111.980386 66.533221 111.630906 
C 66.882702 111.281425 67.079065 110.807361 67.079065 110.313121 
C 67.079065 109.818881 66.882702 109.344818 66.533221 108.995337 
C 66.183741 108.645857 65.709677 108.449493 65.215437 108.449493 
C 64.721197 108.449493 64.247133 108.645857 63.897653 108.995337 
C 63.548172 109.344818 63.351808 109.818881 63.351808 110.313121 
C 63.351808 110.807361 63.548172 111.281425 63.897653 111.630906 
C 64.247133 111.980386 64.721197 112.17675 65.215437 112.17675 
z
" clip-path="url(#pb7336c0439)" style="stroke: #000000"/>
    <path d="M 65.389498 108.830806 
C 65.98325 108.830806 66.552763 108.594905 66.972609 108.175059 
C 67.392455 107.755213 67.628356 107.1857 67.628356 106.591948 
C 67.628356 105.998196 67.392455 105.428682 66.972609 105.008836 
C 66.552763 104.58899 65.98325 104.35309 65.389498 104.35309 
C 64.795746 104.35309 64.226232 104.58899 63.806386 105.008836 
C 63.38654 105.428682 63.15064 105.998196 63.15064 106.591948 
C 63.15064 107.1857 63.38654 107.755213 63.806386 108.175059 
C 64.226232 108.594905 64.795746 108.830806 65.389498 108.830806 
z
" clip-path="url(#pb7336c0439)" style="stroke: #000000"/>
    <path d="M 61.571044 101.61796 
C 61.703646 101.61796 61.830834 101.565277 61.924597 101.471513 
C 62.018361 101.37775 62.071044 101.250561 62.071044 101.11796 
C 62.071044 100.985358 62.018361 100.85817 61.924597 100.764406 
C 61.830834 100.670643 61.703646 100.61796 61.571044 100.61796 
C 61.438442 100.61796 61.311254 100.670643 61.217491 100.764406 
C 61.123727 100.85817 61.071044 100.985358 61.071044 101.11796 
C 61.071044 101.250561 61.123727 101.37775 61.217491 101.471513 
C 61.311254 101.565277 61.438442 101.61796 61.571044 101.61796 
z
" clip-path="url(#pb7336c0439)" style="stroke: #000000"/>
    <path d="M 60.238762 95.759866 
C 60.831774 95.759866 61.400578 95.52426 61.819901 95.104937 
C 62.239224 94.685614 62.47483 94.11681 62.47483 93.523798 
C 62.47483 92.930786 62.239224 92.361982 61.819901 91.942659 
C 61.400578 91.523336 60.831774 91.28773 60.238762 91.28773 
C 59.64575 91.28773 59.076946 91.523336 58.657623 91.942659 
C 58.2383 92.361982 58.002694 92.930786 58.002694 93.523798 
C 58.002694 94.11681 58.2383 94.685614 58.657623 95.104937 
C 59.076946 95.52426 59.64575 95.759866 60.238762 95.759866 
z
" clip-path="url(#pb7336c0439)" style="stroke: #000000"/>
    <path d="M 59.31276 90.212122 
C 59.548562 90.212122 59.774739 90.118437 59.941477 89.951699 
C 60.108214 89.784962 60.2019 89.558785 60.2019 89.322983 
C 60.2019 89.08718 60.108214 88.861003 59.941477 88.694266 
C 59.774739 88.527528 59.548562 88.433843 59.31276 88.433843 
C 59.076957 88.433843 58.850781 88.527528 58.684043 88.694266 
C 58.517306 88.861003 58.42362 89.08718 58.42362 89.322983 
C 58.42362 89.558785 58.517306 89.784962 58.684043 89.951699 
C 58.850781 90.118437 59.076957 90.212122 59.31276 90.212122 
z
" clip-path="url(#pb7336c0439)" style="stroke: #000000"/>
    <path d="M 56.487004 87.684876 
C 56.763849 87.684876 57.029392 87.574884 57.225151 87.379125 
C 57.420911 87.183366 57.530902 86.917822 57.530902 86.640977 
C 57.530902 86.364132 57.420911 86.098588 57.225151 85.902829 
C 57.029392 85.70707 56.763849 85.597078 56.487004 85.597078 
C 56.210158 85.597078 55.944615 85.70707 55.748856 85.902829 
C 55.553096 86.098588 55.443105 86.364132 55.443105 86.640977 
C 55.443105 86.917822 55.553096 87.183366 55.748856 87.379125 
C 55.944615 87.574884 56.210158 87.684876 56.487004 87.684876 
z
" clip-path="url(#pb7336c0439)" style="stroke: #000000"/>
    <path d="M 56.215735 84.774844 
C 56.718095 84.774844 57.199948 84.575254 57.55517 84.220032 
C 57.910393 83.864809 58.109983 83.382956 58.109983 82.880596 
C 58.109983 82.378236 57.910393 81.896383 57.55517 81.541161 
C 57.199948 81.185938 56.718095 80.986348 56.215735 80.986348 
C 55.713374 80.986348 55.231522 81.185938 54.876299 81.541161 
C 54.521077 81.896383 54.321487 82.378236 54.321487 82.880596 
C 54.321487 83.382956 54.521077 83.864809 54.876299 84.220032 
C 55.231522 84.575254 55.713374 84.774844 56.215735 84.774844 
z
" clip-path="url(#pb7336c0439)" style="stroke: #000000"/>
    <path d="M 77.874185 156.488449 
C 78.006787 156.488449 78.133975 156.435765 78.227738 156.342002 
C 78.321502 156.248239 78.374185 156.12105 78.374185 155.988449 
C 78.374185 155.855847 78.321502 155.728659 78.227738 155.634895 
C 78.133975 155.541132 78.006787 155.488449 77.874185 155.488449 
C 77.741584 155.488449 77.614395 155.541132 77.520632 155.634895 
C 77.426868 155.728659 77.374185 155.855847 77.374185 155.988449 
C 77.374185 156.12105 77.426868 156.248239 77.520632 156.342002 
C 77.614395 156.435765 77.741584 156.488449 77.874185 156.488449 
z
" clip-path="url(#pb7336c0439)" style="stroke: #000000"/>
    <path d="M 70.163795 135.806211 
C 70.756808 135.806211 71.325611 135.570604 71.744934 135.151281 
C 72.164257 134.731958 72.399863 134.163155 72.399863 133.570143 
C 72.399863 132.97713 72.164257 132.408327 71.744934 131.989004 
C 71.325611 131.569681 70.756808 131.334075 70.163795 131.334075 
C 69.570783 131.334075 69.00198 131.569681 68.582657 131.989004 
C 68.163334 132.408327 67.927727 132.97713 67.927727 133.570143 
C 67.927727 134.163155 68.163334 134.731958 68.582657 135.151281 
C 69.00198 135.570604 69.570783 135.806211 70.163795 135.806211 
z
" clip-path="url(#pb7336c0439)" style="stroke: #000000"/>
    <path d="M 68.689684 132.478699 
C 69.282325 132.478699 69.850773 132.243241 70.269833 131.82418 
C 70.688894 131.405119 70.924353 130.836671 70.924353 130.24403 
C 70.924353 129.651389 70.688894 129.082941 70.269833 128.663881 
C 69.850773 128.24482 69.282325 128.009361 68.689684 128.009361 
C 68.097043 128.009361 67.528595 128.24482 67.109534 128.663881 
C 66.690474 129.082941 66.455015 129.651389 66.455015 130.24403 
C 66.455015 130.836671 66.690474 131.405119 67.109534 131.82418 
C 67.528595 132.243241 68.097043 132.478699 68.689684 132.478699 
z
" clip-path="url(#pb7336c0439)" style="stroke: #000000"/>
    <path d="M 66.458665 130.610616 
C 66.984878 130.610616 67.489609 130.40155 67.861698 130.029461 
C 68.233787 129.657372 68.442854 129.152641 68.442854 128.626428 
C 68.442854 128.100215 68.233787 127.595483 67.861698 127.223395 
C 67.489609 126.851306 66.984878 126.642239 66.458665 126.642239 
C 65.932452 126.642239 65.427721 126.851306 65.055632 127.223395 
C 64.683543 127.595483 64.474477 128.100215 64.474477 128.626428 
C 64.474477 129.152641 64.683543 129.657372 65.055632 130.029461 
C 65.427721 130.40155 65.932452 130.610616 66.458665 130.610616 
z
" clip-path="url(#pb7336c0439)" style="stroke: #000000"/>
    <path d="M 62.95576 113.551099 
C 63.484606 113.551099 63.991862 113.340986 64.365812 112.967036 
C 64.739762 112.593086 64.949875 112.08583 64.949875 111.556984 
C 64.949875 111.028139 64.739762 110.520882 64.365812 110.146932 
C 63.991862 109.772982 63.484606 109.562869 62.95576 109.562869 
C 62.426915 109.562869 61.919658 109.772982 61.545708 110.146932 
C 61.171758 110.520882 60.961645 111.028139 60.961645 111.556984 
C 60.961645 112.08583 61.171758 112.593086 61.545708 112.967036 
C 61.919658 113.340986 62.426915 113.551099 62.95576 113.551099 
z
" clip-path="url(#pb7336c0439)" style="stroke: #000000"/>
    <path d="M 57.348522 106.494798 
C 57.663904 106.494798 57.966411 106.369495 58.189419 106.146487 
C 58.412427 105.923479 58.53773 105.620972 58.53773 105.305591 
C 58.53773 104.990209 58.412427 104.687703 58.189419 104.464694 
C 57.966411 104.241686 57.663904 104.116383 57.348522 104.116383 
C 57.033141 104.116383 56.730634 104.241686 56.507626 104.464694 
C 56.284618 104.687703 56.159315 104.990209 56.159315 105.305591 
C 56.159315 105.620972 56.284618 105.923479 56.507626 106.146487 
C 56.730634 106.369495 57.033141 106.494798 57.348522 106.494798 
z
" clip-path="url(#pb7336c0439)" style="stroke: #000000"/>
    <path d="M 57.369924 101.40486 
C 57.717119 101.40486 58.05014 101.266918 58.295644 101.021414 
C 58.541148 100.77591 58.67909 100.442889 58.67909 100.095694 
C 58.67909 99.7485 58.541148 99.415478 58.295644 99.169975 
C 58.05014 98.924471 57.717119 98.786529 57.369924 98.786529 
C 57.02273 98.786529 56.689709 98.924471 56.444205 99.169975 
C 56.198701 99.415478 56.060759 99.7485 56.060759 100.095694 
C 56.060759 100.442889 56.198701 100.77591 56.444205 101.021414 
C 56.689709 101.266918 57.02273 101.40486 57.369924 101.40486 
z
" clip-path="url(#pb7336c0439)" style="stroke: #000000"/>
    <path d="M 55.407199 97.503012 
C 55.897553 97.503012 56.367888 97.308193 56.71462 96.961461 
C 57.061352 96.614729 57.256172 96.144393 57.256172 95.65404 
C 57.256172 95.163687 57.061352 94.693351 56.71462 94.346619 
C 56.367888 93.999887 55.897553 93.805068 55.407199 93.805068 
C 54.916846 93.805068 54.446511 93.999887 54.099779 94.346619 
C 53.753047 94.693351 53.558227 95.163687 53.558227 95.65404 
C 53.558227 96.144393 53.753047 96.614729 54.099779 96.961461 
C 54.446511 97.308193 54.916846 97.503012 55.407199 97.503012 
z
" clip-path="url(#pb7336c0439)" style="stroke: #000000"/>
    <path d="M 51.920529 87.089111 
C 52.197374 87.089111 52.462918 86.979119 52.658677 86.78336 
C 52.854436 86.587601 52.964428 86.322057 52.964428 86.045212 
C 52.964428 85.768367 52.854436 85.502823 52.658677 85.307064 
C 52.462918 85.111305 52.197374 85.001313 51.920529 85.001313 
C 51.643684 85.001313 51.37814 85.111305 51.182381 85.307064 
C 50.986622 85.502823 50.87663 85.768367 50.87663 86.045212 
C 50.87663 86.322057 50.986622 86.587601 51.182381 86.78336 
C 51.37814 86.979119 51.643684 87.089111 51.920529 87.089111 
z
" clip-path="url(#pb7336c0439)" style="stroke: #000000"/>
    <path d="M 50.001619 80.09505 
C 50.217306 80.09505 50.424188 80.009357 50.576701 79.856843 
C 50.729215 79.70433 50.814908 79.497448 50.814908 79.281761 
C 50.814908 79.066075 50.729215 78.859193 50.576701 78.70668 
C 50.424188 78.554166 50.217306 78.468473 50.001619 78.468473 
C 49.785933 78.468473 49.579051 78.554166 49.426538 78.70668 
C 49.274024 78.859193 49.188331 79.066075 49.188331 79.281761 
C 49.188331 79.497448 49.274024 79.70433 49.426538 79.856843 
C 49.579051 80.009357 49.785933 80.09505 50.001619 80.09505 
z
" clip-path="url(#pb7336c0439)" style="stroke: #000000"/>
    <path d="M 66.596713 137.232458 
C 66.907047 137.232458 67.204712 137.109161 67.424151 136.889722 
C 67.64359 136.670283 67.766887 136.372618 67.766887 136.062285 
C 67.766887 135.751951 67.64359 135.454286 67.424151 135.234847 
C 67.204712 135.015408 66.907047 134.892111 66.596713 134.892111 
C 66.286379 134.892111 65.988714 135.015408 65.769275 135.234847 
C 65.549836 135.454286 65.426539 135.751951 65.426539 136.062285 
C 65.426539 136.372618 65.549836 136.670283 65.769275 136.889722 
C 65.988714 137.109161 66.286379 137.232458 66.596713 137.232458 
z
" clip-path="url(#pb7336c0439)" style="stroke: #000000"/>
    <path d="M 63.381074 135.524569 
C 63.974456 135.524569 64.543615 135.288816 64.9632 134.869231 
C 65.382784 134.449646 65.618538 133.880487 65.618538 133.287105 
C 65.618538 132.693722 65.382784 132.124563 64.9632 131.704979 
C 64.543615 131.285394 63.974456 131.04964 63.381074 131.04964 
C 62.787691 131.04964 62.218532 131.285394 61.798948 131.704979 
C 61.379363 132.124563 61.143609 132.693722 61.143609 133.287105 
C 61.143609 133.880487 61.379363 134.449646 61.798948 134.869231 
C 62.218532 135.288816 62.787691 135.524569 63.381074 135.524569 
z
" clip-path="url(#pb7336c0439)" style="stroke: #000000"/>
    <path d="M 60.386457 125.311581 
C 60.979839 125.311581 61.548998 125.075828 61.968583 124.656243 
C 62.388167 124.236658 62.623921 123.667499 62.623921 123.074117 
C 62.623921 122.480735 62.388167 121.911576 61.968583 121.491991 
C 61.548998 121.072406 60.979839 120.836653 60.386457 120.836653 
C 59.793074 120.836653 59.223915 121.072406 58.80433 121.491991 
C 58.384746 121.911576 58.148992 122.480735 58.148992 123.074117 
C 58.148992 123.667499 58.384746 124.236658 58.80433 124.656243 
C 59.223915 125.075828 59.793074 125.311581 60.386457 125.311581 
z
" clip-path="url(#pb7336c0439)" style="stroke: #000000"/>
    <path d="M 58.661357 121.424899 
C 59.25474 121.424899 59.823898 121.189146 60.243483 120.769561 
C 60.663068 120.349976 60.898821 119.780818 60.898821 119.187435 
C 60.898821 118.594053 60.663068 118.024894 60.243483 117.605309 
C 59.823898 117.185724 59.25474 116.949971 58.661357 116.949971 
C 58.067975 116.949971 57.498816 117.185724 57.079231 117.605309 
C 56.659646 118.024894 56.423893 118.594053 56.423893 119.187435 
C 56.423893 119.780818 56.659646 120.349976 57.079231 120.769561 
C 57.498816 121.189146 58.067975 121.424899 58.661357 121.424899 
z
" clip-path="url(#pb7336c0439)" style="stroke: #000000"/>
    <path d="M 55.874253 112.563307 
C 56.403099 112.563307 56.910355 112.353194 57.284305 111.979244 
C 57.658255 111.605294 57.868368 111.098037 57.868368 110.569192 
C 57.868368 110.040346 57.658255 109.53309 57.284305 109.15914 
C 56.910355 108.78519 56.403099 108.575077 55.874253 108.575077 
C 55.345408 108.575077 54.838151 108.78519 54.464201 109.15914 
C 54.090251 109.53309 53.880138 110.040346 53.880138 110.569192 
C 53.880138 111.098037 54.090251 111.605294 54.464201 111.979244 
C 54.838151 112.353194 55.345408 112.563307 55.874253 112.563307 
z
" clip-path="url(#pb7336c0439)" style="stroke: #000000"/>
    <path d="M 53.412234 108.737192 
C 54.044837 108.737192 54.651615 108.485856 55.098933 108.038539 
C 55.546251 107.591221 55.797586 106.984443 55.797586 106.35184 
C 55.797586 105.719238 55.546251 105.112459 55.098933 104.665142 
C 54.651615 104.217824 54.044837 103.966488 53.412234 103.966488 
C 52.779632 103.966488 52.172854 104.217824 51.725536 104.665142 
C 51.278218 105.112459 51.026883 105.719238 51.026883 106.35184 
C 51.026883 106.984443 51.278218 107.591221 51.725536 108.038539 
C 52.172854 108.485856 52.779632 108.737192 53.412234 108.737192 
z
" clip-path="url(#pb7336c0439)" style="stroke: #000000"/>
    <path d="M 48.574206 93.355631 
C 48.706808 93.355631 48.833996 93.302948 48.92776 93.209184 
C 49.021523 93.115421 49.074206 92.988232 49.074206 92.855631 
C 49.074206 92.723029 49.021523 92.595841 48.92776 92.502077 
C 48.833996 92.408314 48.706808 92.355631 48.574206 92.355631 
C 48.441605 92.355631 48.314416 92.408314 48.220653 92.502077 
C 48.126889 92.595841 48.074206 92.723029 48.074206 92.855631 
C 48.074206 92.988232 48.126889 93.115421 48.220653 93.209184 
C 48.314416 93.302948 48.441605 93.355631 48.574206 93.355631 
z
" clip-path="url(#pb7336c0439)" style="stroke: #000000"/>
    <path d="M 62.86054 143.223354 
C 63.01823 143.223354 63.169484 143.160703 63.280988 143.049199 
C 63.392492 142.937695 63.455143 142.786441 63.455143 142.628751 
C 63.455143 142.47106 63.392492 142.319807 63.280988 142.208302 
C 63.169484 142.096798 63.01823 142.034147 62.86054 142.034147 
C 62.702849 142.034147 62.551596 142.096798 62.440091 142.208302 
C 62.328587 142.319807 62.265936 142.47106 62.265936 142.628751 
C 62.265936 142.786441 62.328587 142.937695 62.440091 143.049199 
C 62.551596 143.160703 62.702849 143.223354 62.86054 143.223354 
z
" clip-path="url(#pb7336c0439)" style="stroke: #000000"/>
    <path d="M 53.129509 122.305628 
C 53.304023 122.305628 53.471412 122.236293 53.594812 122.112893 
C 53.718211 121.989494 53.787546 121.822104 53.787546 121.647591 
C 53.787546 121.473077 53.718211 121.305688 53.594812 121.182289 
C 53.471412 121.058889 53.304023 120.989554 53.129509 120.989554 
C 52.954996 120.989554 52.787607 121.058889 52.664207 121.182289 
C 52.540807 121.305688 52.471472 121.473077 52.471472 121.647591 
C 52.471472 121.822104 52.540807 121.989494 52.664207 122.112893 
C 52.787607 122.236293 52.954996 122.305628 53.129509 122.305628 
z
" clip-path="url(#pb7336c0439)" style="stroke: #000000"/>
    <path d="M 50.698009 109.298482 
C 51.291021 109.298482 51.859824 109.062876 52.279147 108.643553 
C 52.69847 108.22423 52.934077 107.655427 52.934077 107.062414 
C 52.934077 106.469402 52.69847 105.900599 52.279147 105.481276 
C 51.859824 105.061953 51.291021 104.826347 50.698009 104.826347 
C 50.104996 104.826347 49.536193 105.061953 49.11687 105.481276 
C 48.697547 105.900599 48.461941 106.469402 48.461941 107.062414 
C 48.461941 107.655427 48.697547 108.22423 49.11687 108.643553 
C 49.536193 109.062876 50.104996 109.298482 50.698009 109.298482 
z
" clip-path="url(#pb7336c0439)" style="stroke: #000000"/>
    <path d="M 43.604766 84.839933 
C 43.737368 84.839933 43.864556 84.78725 43.958319 84.693486 
C 44.052083 84.599723 44.104766 84.472534 44.104766 84.339933 
C 44.104766 84.207331 44.052083 84.080143 43.958319 83.986379 
C 43.864556 83.892616 43.737368 83.839933 43.604766 83.839933 
C 43.472164 83.839933 43.344976 83.892616 43.251213 83.986379 
C 43.157449 84.080143 43.104766 84.207331 43.104766 84.339933 
C 43.104766 84.472534 43.157449 84.599723 43.251213 84.693486 
C 43.344976 84.78725 43.472164 84.839933 43.604766 84.839933 
z
" clip-path="url(#pb7336c0439)" style="stroke: #000000"/>
    <path d="M 44.771588 109.709533 
C 44.929279 109.709533 45.080532 109.646882 45.192036 109.535378 
C 45.30354 109.423874 45.366192 109.27262 45.366192 109.11493 
C 45.366192 108.957239 45.30354 108.805986 45.192036 108.694481 
C 45.080532 108.582977 44.929279 108.520326 44.771588 108.520326 
C 44.613897 108.520326 44.462644 108.582977 44.35114 108.694481 
C 44.239636 108.805986 44.176984 108.957239 44.176984 109.11493 
C 44.176984 109.27262 44.239636 109.423874 44.35114 109.535378 
C 44.462644 109.646882 44.613897 109.709533 44.771588 109.709533 
z
" clip-path="url(#pb7336c0439)" style="stroke: #000000"/>
    <path d="M 45.183962 163.993987 
C 45.316563 163.993987 45.443752 163.941303 45.537515 163.84754 
C 45.631278 163.753777 45.683962 163.626588 45.683962 163.493987 
C 45.683962 163.361385 45.631278 163.234197 45.537515 163.140433 
C 45.443752 163.04667 45.316563 162.993987 45.183962 162.993987 
C 45.05136 162.993987 44.924172 163.04667 44.830408 163.140433 
C 44.736645 163.234197 44.683962 163.361385 44.683962 163.493987 
C 44.683962 163.626588 44.736645 163.753777 44.830408 163.84754 
C 44.924172 163.941303 45.05136 163.993987 45.183962 163.993987 
z
" clip-path="url(#pb7336c0439)" style="stroke: #000000"/>
   </g>
   <g id="matplotlib.axis_1">
    <g id="xtick_1">
     <g id="line2d_1">
      <defs>
       <path id="mc28a909a76" d="M 0 0 
L 0 3.5 
" style="stroke: #000000; stroke-width: 0.8"/>
      </defs>
      <g>
       <use xlink:href="#mc28a909a76" x="18" y="189" style="stroke: #000000; stroke-width: 0.8"/>
      </g>
     </g>
     <g id="text_1">
      <!-- 10 -->
      <g transform="translate(7.447656 203.598437)scale(0.1 -0.1)">
       <defs>
        <path id="DejaVuSans-2212" d="M 678 2272 
L 4684 2272 
L 4684 1741 
L 678 1741 
L 678 2272 
z
" transform="scale(0.015625)"/>
        <path id="DejaVuSans-31" d="M 794 531 
L 1825 531 
L 1825 4091 
L 703 3866 
L 703 4441 
L 1819 4666 
L 2450 4666 
L 2450 531 
L 3481 531 
L 3481 0 
L 794 0 
L 794 531 
z
" transform="scale(0.015625)"/>
        <path id="DejaVuSans-30" d="M 2034 4250 
Q 1547 4250 1301 3770 
Q 1056 3291 1056 2328 
Q 1056 1369 1301 889 
Q 1547 409 2034 409 
Q 2525 409 2770 889 
Q 3016 1369 3016 2328 
Q 3016 3291 2770 3770 
Q 2525 4250 2034 4250 
z
M 2034 4750 
Q 2819 4750 3233 4129 
Q 3647 3509 3647 2328 
Q 3647 1150 3233 529 
Q 2819 -91 2034 -91 
Q 1250 -91 836 529 
Q 422 1150 422 2328 
Q 422 3509 836 4129 
Q 1250 4750 2034 4750 
z
" transform="scale(0.015625)"/>
       </defs>
       <use xlink:href="#DejaVuSans-2212"/>
       <use xlink:href="#DejaVuSans-31" x="83.789062"/>
       <use xlink:href="#DejaVuSans-30" x="147.412109"/>
      </g>
     </g>
    </g>
    <g id="xtick_2">
     <g id="line2d_2">
      <g>
       <use xlink:href="#mc28a909a76" x="73.8" y="189" style="stroke: #000000; stroke-width: 0.8"/>
      </g>
     </g>
     <g id="text_2">
      <!-- 0 -->
      <g transform="translate(70.61875 203.598437)scale(0.1 -0.1)">
       <use xlink:href="#DejaVuSans-30"/>
      </g>
     </g>
    </g>
    <g id="xtick_3">
     <g id="line2d_3">
      <g>
       <use xlink:href="#mc28a909a76" x="129.6" y="189" style="stroke: #000000; stroke-width: 0.8"/>
      </g>
     </g>
     <g id="text_3">
      <!-- 10 -->
      <g transform="translate(123.2375 203.598437)scale(0.1 -0.1)">
       <use xlink:href="#DejaVuSans-31"/>
       <use xlink:href="#DejaVuSans-30" x="63.623047"/>
      </g>
     </g>
    </g>
   </g>
   <g id="matplotlib.axis_2">
    <g id="ytick_1">
     <g id="line2d_4">
      <defs>
       <path id="m8f1f7f7d39" d="M 0 0 
L -3.5 0 
" style="stroke: #000000; stroke-width: 0.8"/>
      </defs>
      <g>
       <use xlink:href="#m8f1f7f7d39" x="18" y="189" style="stroke: #000000; stroke-width: 0.8"/>
      </g>
     </g>
     <g id="text_4">
      <!-- 15 -->
      <g transform="translate(-10.104688 192.799219)scale(0.1 -0.1)">
       <defs>
        <path id="DejaVuSans-35" d="M 691 4666 
L 3169 4666 
L 3169 4134 
L 1269 4134 
L 1269 2991 
Q 1406 3038 1543 3061 
Q 1681 3084 1819 3084 
Q 2600 3084 3056 2656 
Q 3513 2228 3513 1497 
Q 3513 744 3044 326 
Q 2575 -91 1722 -91 
Q 1428 -91 1123 -41 
Q 819 9 494 109 
L 494 744 
Q 775 591 1075 516 
Q 1375 441 1709 441 
Q 2250 441 2565 725 
Q 2881 1009 2881 1497 
Q 2881 1984 2565 2268 
Q 2250 2553 1709 2553 
Q 1456 2553 1204 2497 
Q 953 2441 691 2322 
L 691 4666 
z
" transform="scale(0.015625)"/>
       </defs>
       <use xlink:href="#DejaVuSans-2212"/>
       <use xlink:href="#DejaVuSans-31" x="83.789062"/>
       <use xlink:href="#DejaVuSans-35" x="147.412109"/>
      </g>
     </g>
    </g>
    <g id="ytick_2">
     <g id="line2d_5">
      <g>
       <use xlink:href="#m8f1f7f7d39" x="18" y="161.82" style="stroke: #000000; stroke-width: 0.8"/>
      </g>
     </g>
     <g id="text_5">
      <!-- 10 -->
      <g transform="translate(-10.104688 165.619219)scale(0.1 -0.1)">
       <use xlink:href="#DejaVuSans-2212"/>
       <use xlink:href="#DejaVuSans-31" x="83.789062"/>
       <use xlink:href="#DejaVuSans-30" x="147.412109"/>
      </g>
     </g>
    </g>
    <g id="ytick_3">
     <g id="line2d_6">
      <g>
       <use xlink:href="#m8f1f7f7d39" x="18" y="134.64" style="stroke: #000000; stroke-width: 0.8"/>
      </g>
     </g>
     <g id="text_6">
      <!-- 5 -->
      <g transform="translate(-3.742188 138.439219)scale(0.1 -0.1)">
       <use xlink:href="#DejaVuSans-2212"/>
       <use xlink:href="#DejaVuSans-35" x="83.789062"/>
      </g>
     </g>
    </g>
    <g id="ytick_4">
     <g id="line2d_7">
      <g>
       <use xlink:href="#m8f1f7f7d39" x="18" y="107.46" style="stroke: #000000; stroke-width: 0.8"/>
      </g>
     </g>
     <g id="text_7">
      <!-- 0 -->
      <g transform="translate(4.6375 111.259219)scale(0.1 -0.1)">
       <use xlink:href="#DejaVuSans-30"/>
      </g>
     </g>
    </g>
    <g id="ytick_5">
     <g id="line2d_8">
      <g>
       <use xlink:href="#m8f1f7f7d39" x="18" y="80.28" style="stroke: #000000; stroke-width: 0.8"/>
      </g>
     </g>
     <g id="text_8">
      <!-- 5 -->
      <g transform="translate(4.6375 84.079219)scale(0.1 -0.1)">
       <use xlink:href="#DejaVuSans-35"/>
      </g>
     </g>
    </g>
    <g id="ytick_6">
     <g id="line2d_9">
      <g>
       <use xlink:href="#m8f1f7f7d39" x="18" y="53.1" style="stroke: #000000; stroke-width: 0.8"/>
      </g>
     </g>
     <g id="text_9">
      <!-- 10 -->
      <g transform="translate(-1.725 56.899219)scale(0.1 -0.1)">
       <use xlink:href="#DejaVuSans-31"/>
       <use xlink:href="#DejaVuSans-30" x="63.623047"/>
      </g>
     </g>
    </g>
    <g id="ytick_7">
     <g id="line2d_10">
      <g>
       <use xlink:href="#m8f1f7f7d39" x="18" y="25.92" style="stroke: #000000; stroke-width: 0.8"/>
      </g>
     </g>
     <g id="text_10">
      <!-- 15 -->
      <g transform="translate(-1.725 29.719219)scale(0.1 -0.1)">
       <use xlink:href="#DejaVuSans-31"/>
       <use xlink:href="#DejaVuSans-35" x="63.623047"/>
      </g>
     </g>
    </g>
   </g>
   <g id="patch_3">
    <path d="M 18 189 
L 18 25.92 
" style="fill: none; stroke: #000000; stroke-width: 0.8; stroke-linejoin: miter; stroke-linecap: square"/>
   </g>
   <g id="patch_4">
    <path d="M 129.6 189 
L 129.6 25.92 
" style="fill: none; stroke: #000000; stroke-width: 0.8; stroke-linejoin: miter; stroke-linecap: square"/>
   </g>
   <g id="patch_5">
    <path d="M 18 189 
L 129.6 189 
" style="fill: none; stroke: #000000; stroke-width: 0.8; stroke-linejoin: miter; stroke-linecap: square"/>
   </g>
   <g id="patch_6">
    <path d="M 18 25.92 
L 129.6 25.92 
" style="fill: none; stroke: #000000; stroke-width: 0.8; stroke-linejoin: miter; stroke-linecap: square"/>
   </g>
  </g>
 </g>
 <defs>
  <clipPath id="pb7336c0439">
   <rect x="18" y="25.92" width="111.6" height="163.08"/>
  </clipPath>
 </defs>
</svg>
