<?xml version="1.0" encoding="utf-8" standalone="no"?>
<!DOCTYPE svg PUBLIC "-//W3C//DTD SVG 1.1//EN"
  "http://www.w3.org/Graphics/SVG/1.1/DTD/svg11.dtd">
<svg xmlns:xlink="http://www.w3.org/1999/xlink" width="144pt" height="216pt" viewBox="0 0 144 216" xmlns="http://www.w3.org/2000/svg" version="1.1">
 <metadata>
  <rdf:RDF xmlns:dc="http://purl.org/dc/elements/1.1/" xmlns:cc="http://creativecommons.org/ns#" xmlns:rdf="http://www.w3.org/1999/02/22-rdf-syntax-ns#">
   <cc:Work>
    <dc:type rdf:resource="http://purl.org/dc/dcmitype/StillImage"/>
    <dc:date>2022-06-23T14:43:54.067987</dc:date>
    <dc:format>image/svg+xml</dc:format>
    <dc:creator>
     <cc:Agent>
      <dc:title>Matplotlib v3.5.1, https://matplotlib.org/</dc:title>
     </cc:Agent>
    </dc:creator>
   </cc:Work>
  </rdf:RDF>
 </metadata>
 <defs>
  <style type="text/css">*{stroke-linejoin: round; stroke-linecap: butt}</style>
 </defs>
 <g id="figure_1">
  <g id="patch_1">
   <path d="M 0 216 
L 144 216 
L 144 0 
L 0 0 
L 0 216 
z
" style="fill: none"/>
  </g>
  <g id="axes_1">
   <g id="patch_2">
    <path d="M 18 189 
L 129.6 189 
L 129.6 25.92 
L 18 25.92 
z
" style="fill: #ffffff"/>
   </g>
   <g id="PathCollection_1">
    <defs>
     <path id="m390a50996f" d="M 0 2.738613 
C 0.726289 2.738613 1.422928 2.450055 1.936492 1.936492 
C 2.450055 1.422928 2.738613 0.726289 2.738613 0 
C 2.738613 -0.726289 2.450055 -1.422928 1.936492 -1.936492 
C 1.422928 -2.450055 0.726289 -2.738613 0 -2.738613 
C -0.726289 -2.738613 -1.422928 -2.450055 -1.936492 -1.936492 
C -2.450055 -1.422928 -2.738613 -0.726289 -2.738613 0 
C -2.738613 0.726289 -2.450055 1.422928 -1.936492 1.936492 
C -1.422928 2.450055 -0.726289 2.738613 0 2.738613 
z
" style="stroke: #ff0000; stroke-width: 1.75"/>
    </defs>
    <g clip-path="url(#pf22ca1c85c)">
     <use xlink:href="#m390a50996f" x="66.825" y="83.92143" style="fill: #ff0000; stroke: #ff0000; stroke-width: 1.75"/>
     <use xlink:href="#m390a50996f" x="87.75" y="95.690715" style="fill: #ff0000; stroke: #ff0000; stroke-width: 1.75"/>
     <use xlink:href="#m390a50996f" x="66.825" y="107.46" style="fill: #ff0000; stroke: #ff0000; stroke-width: 1.75"/>
     <use xlink:href="#m390a50996f" x="73.8" y="119.229285" style="fill: #ff0000; stroke: #ff0000; stroke-width: 1.75"/>
     <use xlink:href="#m390a50996f" x="87.75" y="119.229285" style="fill: #ff0000; stroke: #ff0000; stroke-width: 1.75"/>
     <use xlink:href="#m390a50996f" x="66.825" y="130.99857" style="fill: #ff0000; stroke: #ff0000; stroke-width: 1.75"/>
     <use xlink:href="#m390a50996f" x="80.775" y="130.99857" style="fill: #ff0000; stroke: #ff0000; stroke-width: 1.75"/>
    </g>
   </g>
   <g id="PathCollection_2">
    <defs>
     <path id="C0_0_819dc7d26e" d="M 0 2.738613 
C 0.726289 2.738613 1.422928 2.450055 1.936492 1.936492 
C 2.450055 1.422928 2.738613 0.726289 2.738613 -0 
C 2.738613 -0.726289 2.450055 -1.422928 1.936492 -1.936492 
C 1.422928 -2.450055 0.726289 -2.738613 0 -2.738613 
C -0.726289 -2.738613 -1.422928 -2.450055 -1.936492 -1.936492 
C -2.450055 -1.422928 -2.738613 -0.726289 -2.738613 0 
C -2.738613 0.726289 -2.450055 1.422928 -1.936492 1.936492 
C -1.422928 2.450055 -0.726289 2.738613 0 2.738613 
z
"/>
    </defs>
    <g clip-path="url(#pf22ca1c85c)">
     <use xlink:href="#C0_0_819dc7d26e" x="80.775" y="83.92143" style="fill: none; stroke: #ff0000; stroke-width: 1.75"/>
    </g>
    <g clip-path="url(#pf22ca1c85c)">
     <use xlink:href="#C0_0_819dc7d26e" x="59.85" y="95.690715" style="fill: none; stroke: #ff0000; stroke-width: 1.75"/>
    </g>
    <g clip-path="url(#pf22ca1c85c)">
     <use xlink:href="#C0_0_819dc7d26e" x="73.8" y="95.690715" style="fill: none; stroke: #ff0000; stroke-width: 1.75"/>
    </g>
    <g clip-path="url(#pf22ca1c85c)">
     <use xlink:href="#C0_0_819dc7d26e" x="52.875" y="107.46" style="fill: none; stroke: #ff0000; stroke-width: 1.75"/>
    </g>
    <g clip-path="url(#pf22ca1c85c)">
     <use xlink:href="#C0_0_819dc7d26e" x="80.775" y="107.46" style="fill: none; stroke: #ff0000; stroke-width: 1.75"/>
    </g>
    <g clip-path="url(#pf22ca1c85c)">
     <use xlink:href="#C0_0_819dc7d26e" x="94.725" y="107.46" style="fill: none; stroke: #ff0000; stroke-width: 1.75"/>
    </g>
    <g clip-path="url(#pf22ca1c85c)">
     <use xlink:href="#C0_0_819dc7d26e" x="59.85" y="119.229285" style="fill: none; stroke: #ff0000; stroke-width: 1.75"/>
    </g>
   </g>
   <g id="PathCollection_3">
    <path d="M 98.008779 109.419925 
C 98.555509 109.419925 99.079921 109.202707 99.466517 108.81611 
C 99.853114 108.429514 100.070332 107.905103 100.070332 107.358373 
C 100.070332 106.811642 99.853114 106.287231 99.466517 105.900635 
C 99.079921 105.514038 98.555509 105.29682 98.008779 105.29682 
C 97.462049 105.29682 96.937638 105.514038 96.551041 105.900635 
C 96.164445 106.287231 95.947226 106.811642 95.947226 107.358373 
C 95.947226 107.905103 96.164445 108.429514 96.551041 108.81611 
C 96.937638 109.202707 97.462049 109.419925 98.008779 109.419925 
z
" clip-path="url(#pf22ca1c85c)" style="stroke: #000000"/>
    <path d="M 92.926597 116.821712 
C 93.059198 116.821712 93.186387 116.769029 93.28015 116.675265 
C 93.373914 116.581502 93.426597 116.454313 93.426597 116.321712 
C 93.426597 116.18911 93.373914 116.061922 93.28015 115.968158 
C 93.186387 115.874395 93.059198 115.821712 92.926597 115.821712 
C 92.793995 115.821712 92.666807 115.874395 92.573044 115.968158 
C 92.47928 116.061922 92.426597 116.18911 92.426597 116.321712 
C 92.426597 116.454313 92.47928 116.581502 92.573044 116.675265 
C 92.666807 116.769029 92.793995 116.821712 92.926597 116.821712 
z
" clip-path="url(#pf22ca1c85c)" style="stroke: #000000"/>
    <path d="M 91.201616 111.40214 
C 91.466819 111.40214 91.721196 111.296774 91.908723 111.109247 
C 92.09625 110.92172 92.201616 110.667343 92.201616 110.40214 
C 92.201616 110.136937 92.09625 109.88256 91.908723 109.695034 
C 91.721196 109.507507 91.466819 109.40214 91.201616 109.40214 
C 90.936413 109.40214 90.682036 109.507507 90.494509 109.695034 
C 90.306982 109.88256 90.201616 110.136937 90.201616 110.40214 
C 90.201616 110.667343 90.306982 110.92172 90.494509 111.109247 
C 90.682036 111.296774 90.936413 111.40214 91.201616 111.40214 
z
" clip-path="url(#pf22ca1c85c)" style="stroke: #000000"/>
    <path d="M 84.753346 98.76213 
C 85.279028 98.76213 85.78325 98.553274 86.154963 98.181561 
C 86.526676 97.809848 86.735531 97.305626 86.735531 96.779945 
C 86.735531 96.254263 86.526676 95.750041 86.154963 95.378328 
C 85.78325 95.006615 85.279028 94.79776 84.753346 94.79776 
C 84.227664 94.79776 83.723442 95.006615 83.351729 95.378328 
C 82.980016 95.750041 82.771161 96.254263 82.771161 96.779945 
C 82.771161 97.305626 82.980016 97.809848 83.351729 98.181561 
C 83.723442 98.553274 84.227664 98.76213 84.753346 98.76213 
z
" clip-path="url(#pf22ca1c85c)" style="stroke: #000000"/>
    <path d="M 81.552985 86.825242 
C 82.080255 86.825242 82.586001 86.615755 82.958838 86.242918 
C 83.331675 85.870081 83.541161 85.364335 83.541161 84.837065 
C 83.541161 84.309794 83.331675 83.804048 82.958838 83.431211 
C 82.586001 83.058375 82.080255 82.848888 81.552985 82.848888 
C 81.025714 82.848888 80.519968 83.058375 80.147131 83.431211 
C 79.774295 83.804048 79.564808 84.309794 79.564808 84.837065 
C 79.564808 85.364335 79.774295 85.870081 80.147131 86.242918 
C 80.519968 86.615755 81.025714 86.825242 81.552985 86.825242 
z
" clip-path="url(#pf22ca1c85c)" style="stroke: #000000"/>
    <path d="M 83.488968 83.316148 
C 83.861056 83.316148 84.217956 83.168315 84.481062 82.905209 
C 84.744168 82.642102 84.892001 82.285203 84.892001 81.913114 
C 84.892001 81.541026 84.744168 81.184127 84.481062 80.92102 
C 84.217956 80.657914 83.861056 80.510081 83.488968 80.510081 
C 83.116879 80.510081 82.75998 80.657914 82.496874 80.92102 
C 82.233767 81.184127 82.085935 81.541026 82.085935 81.913114 
C 82.085935 82.285203 82.233767 82.642102 82.496874 82.905209 
C 82.75998 83.168315 83.116879 83.316148 83.488968 83.316148 
z
" clip-path="url(#pf22ca1c85c)" style="stroke: #000000"/>
    <path d="M 87.156478 120.802214 
C 87.764479 120.802214 88.34766 120.560653 88.777581 120.130731 
C 89.207503 119.70081 89.449064 119.117629 89.449064 118.509628 
C 89.449064 117.901627 89.207503 117.318447 88.777581 116.888525 
C 88.34766 116.458604 87.764479 116.217043 87.156478 116.217043 
C 86.548478 116.217043 85.965297 116.458604 85.535376 116.888525 
C 85.105454 117.318447 84.863893 117.901627 84.863893 118.509628 
C 84.863893 119.117629 85.105454 119.70081 85.535376 120.130731 
C 85.965297 120.560653 86.548478 120.802214 87.156478 120.802214 
z
" clip-path="url(#pf22ca1c85c)" style="stroke: #000000"/>
    <path d="M 82.87718 106.830143 
C 83.304649 106.830143 83.714667 106.660308 84.016933 106.358042 
C 84.319199 106.055776 84.489035 105.645757 84.489035 105.218288 
C 84.489035 104.79082 84.319199 104.380801 84.016933 104.078535 
C 83.714667 103.776269 83.304649 103.606434 82.87718 103.606434 
C 82.449711 103.606434 82.039692 103.776269 81.737426 104.078535 
C 81.43516 104.380801 81.265325 104.79082 81.265325 105.218288 
C 81.265325 105.645757 81.43516 106.055776 81.737426 106.358042 
C 82.039692 106.660308 82.449711 106.830143 82.87718 106.830143 
z
" clip-path="url(#pf22ca1c85c)" style="stroke: #000000"/>
    <path d="M 75.300486 95.498326 
C 75.766082 95.498326 76.212672 95.313343 76.541898 94.984117 
C 76.871124 94.654891 77.056108 94.208301 77.056108 93.742705 
C 77.056108 93.277109 76.871124 92.830519 76.541898 92.501293 
C 76.212672 92.172067 75.766082 91.987083 75.300486 91.987083 
C 74.83489 91.987083 74.388301 92.172067 74.059074 92.501293 
C 73.729848 92.830519 73.544865 93.277109 73.544865 93.742705 
C 73.544865 94.208301 73.729848 94.654891 74.059074 94.984117 
C 74.388301 95.313343 74.83489 95.498326 75.300486 95.498326 
z
" clip-path="url(#pf22ca1c85c)" style="stroke: #000000"/>
    <path d="M 76.444142 86.518216 
C 76.731322 86.518216 77.006778 86.404119 77.209845 86.201052 
C 77.412912 85.997985 77.52701 85.722528 77.52701 85.435348 
C 77.52701 85.148168 77.412912 84.872711 77.209845 84.669644 
C 77.006778 84.466577 76.731322 84.35248 76.444142 84.35248 
C 76.156962 84.35248 75.881505 84.466577 75.678438 84.669644 
C 75.475371 84.872711 75.361273 85.148168 75.361273 85.435348 
C 75.361273 85.722528 75.475371 85.997985 75.678438 86.201052 
C 75.881505 86.404119 76.156962 86.518216 76.444142 86.518216 
z
" clip-path="url(#pf22ca1c85c)" style="stroke: #000000"/>
    <path d="M 84.274408 134.509852 
C 84.40701 134.509852 84.534198 134.457168 84.627962 134.363405 
C 84.721725 134.269642 84.774408 134.142453 84.774408 134.009852 
C 84.774408 133.87725 84.721725 133.750062 84.627962 133.656298 
C 84.534198 133.562535 84.40701 133.509852 84.274408 133.509852 
C 84.141807 133.509852 84.014618 133.562535 83.920855 133.656298 
C 83.827091 133.750062 83.774408 133.87725 83.774408 134.009852 
C 83.774408 134.142453 83.827091 134.269642 83.920855 134.363405 
C 84.014618 134.457168 84.141807 134.509852 84.274408 134.509852 
z
" clip-path="url(#pf22ca1c85c)" style="stroke: #000000"/>
    <path d="M 83.85413 127.181559 
C 83.986732 127.181559 84.11392 127.128875 84.207684 127.035112 
C 84.301447 126.941349 84.35413 126.81416 84.35413 126.681559 
C 84.35413 126.548957 84.301447 126.421769 84.207684 126.328005 
C 84.11392 126.234242 83.986732 126.181559 83.85413 126.181559 
C 83.721529 126.181559 83.59434 126.234242 83.500577 126.328005 
C 83.406813 126.421769 83.35413 126.548957 83.35413 126.681559 
C 83.35413 126.81416 83.406813 126.941349 83.500577 127.035112 
C 83.59434 127.128875 83.721529 127.181559 83.85413 127.181559 
z
" clip-path="url(#pf22ca1c85c)" style="stroke: #000000"/>
    <path d="M 74.191025 98.020184 
C 74.700547 98.020184 75.189269 97.817749 75.549555 97.457463 
C 75.909841 97.097176 76.112277 96.608455 76.112277 96.098933 
C 76.112277 95.589411 75.909841 95.10069 75.549555 94.740403 
C 75.189269 94.380117 74.700547 94.177682 74.191025 94.177682 
C 73.681504 94.177682 73.192782 94.380117 72.832496 94.740403 
C 72.47221 95.10069 72.269774 95.589411 72.269774 96.098933 
C 72.269774 96.608455 72.47221 97.097176 72.832496 97.457463 
C 73.192782 97.817749 73.681504 98.020184 74.191025 98.020184 
z
" clip-path="url(#pf22ca1c85c)" style="stroke: #000000"/>
    <path d="M 67.726982 87.824688 
C 68.29172 87.824688 68.833405 87.600315 69.232736 87.200984 
C 69.632066 86.801654 69.856439 86.259969 69.856439 85.69523 
C 69.856439 85.130492 69.632066 84.588807 69.232736 84.189476 
C 68.833405 83.790146 68.29172 83.565773 67.726982 83.565773 
C 67.162243 83.565773 66.620558 83.790146 66.221228 84.189476 
C 65.821897 84.588807 65.597524 85.130492 65.597524 85.69523 
C 65.597524 86.259969 65.821897 86.801654 66.221228 87.200984 
C 66.620558 87.600315 67.162243 87.824688 67.726982 87.824688 
z
" clip-path="url(#pf22ca1c85c)" style="stroke: #000000"/>
    <path d="M 76.969601 130.591645 
C 77.348975 130.591645 77.712862 130.440918 77.981119 130.17266 
C 78.249377 129.904402 78.400104 129.540516 78.400104 129.161142 
C 78.400104 128.781768 78.249377 128.417882 77.981119 128.149624 
C 77.712862 127.881366 77.348975 127.730639 76.969601 127.730639 
C 76.590227 127.730639 76.226341 127.881366 75.958083 128.149624 
C 75.689825 128.417882 75.539098 128.781768 75.539098 129.161142 
C 75.539098 129.540516 75.689825 129.904402 75.958083 130.17266 
C 76.226341 130.440918 76.590227 130.591645 76.969601 130.591645 
z
" clip-path="url(#pf22ca1c85c)" style="stroke: #000000"/>
    <path d="M 74.348924 124.334664 
C 74.692364 124.334664 75.021785 124.198213 75.264634 123.955364 
C 75.507483 123.712515 75.643934 123.383094 75.643934 123.039654 
C 75.643934 122.696213 75.507483 122.366793 75.264634 122.123943 
C 75.021785 121.881094 74.692364 121.744644 74.348924 121.744644 
C 74.005483 121.744644 73.676062 121.881094 73.433213 122.123943 
C 73.190364 122.366793 73.053914 122.696213 73.053914 123.039654 
C 73.053914 123.383094 73.190364 123.712515 73.433213 123.955364 
C 73.676062 124.198213 74.005483 124.334664 74.348924 124.334664 
z
" clip-path="url(#pf22ca1c85c)" style="stroke: #000000"/>
    <path d="M 73.674052 117.270737 
C 74.003279 117.270737 74.319065 117.139934 74.551863 116.907136 
C 74.784661 116.674338 74.915464 116.358551 74.915464 116.029325 
C 74.915464 115.700099 74.784661 115.384312 74.551863 115.151514 
C 74.319065 114.918716 74.003279 114.787913 73.674052 114.787913 
C 73.344826 114.787913 73.02904 114.918716 72.796241 115.151514 
C 72.563443 115.384312 72.43264 115.700099 72.43264 116.029325 
C 72.43264 116.358551 72.563443 116.674338 72.796241 116.907136 
C 73.02904 117.139934 73.344826 117.270737 73.674052 117.270737 
z
" clip-path="url(#pf22ca1c85c)" style="stroke: #000000"/>
    <path d="M 62.343992 87.265002 
C 62.518506 87.265002 62.685895 87.195667 62.809295 87.072268 
C 62.932694 86.948868 63.002029 86.781479 63.002029 86.606965 
C 63.002029 86.432452 62.932694 86.265063 62.809295 86.141663 
C 62.685895 86.018263 62.518506 85.948928 62.343992 85.948928 
C 62.169479 85.948928 62.00209 86.018263 61.87869 86.141663 
C 61.75529 86.265063 61.685955 86.432452 61.685955 86.606965 
C 61.685955 86.781479 61.75529 86.948868 61.87869 87.072268 
C 62.00209 87.195667 62.169479 87.265002 62.343992 87.265002 
z
" clip-path="url(#pf22ca1c85c)" style="stroke: #000000"/>
    <path d="M 67.310872 124.739593 
C 67.443474 124.739593 67.570662 124.68691 67.664426 124.593146 
C 67.758189 124.499383 67.810872 124.372194 67.810872 124.239593 
C 67.810872 124.106991 67.758189 123.979803 67.664426 123.886039 
C 67.570662 123.792276 67.443474 123.739593 67.310872 123.739593 
C 67.178271 123.739593 67.051082 123.792276 66.957319 123.886039 
C 66.863555 123.979803 66.810872 124.106991 66.810872 124.239593 
C 66.810872 124.372194 66.863555 124.499383 66.957319 124.593146 
C 67.051082 124.68691 67.178271 124.739593 67.310872 124.739593 
z
" clip-path="url(#pf22ca1c85c)" style="stroke: #000000"/>
    <path d="M 64.246373 117.074398 
C 64.378975 117.074398 64.506163 117.021715 64.599927 116.927951 
C 64.69369 116.834188 64.746373 116.706999 64.746373 116.574398 
C 64.746373 116.441796 64.69369 116.314608 64.599927 116.220844 
C 64.506163 116.127081 64.378975 116.074398 64.246373 116.074398 
C 64.113772 116.074398 63.986583 116.127081 63.89282 116.220844 
C 63.799056 116.314608 63.746373 116.441796 63.746373 116.574398 
C 63.746373 116.706999 63.799056 116.834188 63.89282 116.927951 
C 63.986583 117.021715 64.113772 117.074398 64.246373 117.074398 
z
" clip-path="url(#pf22ca1c85c)" style="stroke: #000000"/>
    <path d="M 58.760401 101.101363 
C 58.976088 101.101363 59.18297 101.01567 59.335483 100.863157 
C 59.487996 100.710643 59.57369 100.503762 59.57369 100.288075 
C 59.57369 100.072388 59.487996 99.865507 59.335483 99.712993 
C 59.18297 99.56048 58.976088 99.474787 58.760401 99.474787 
C 58.544715 99.474787 58.337833 99.56048 58.18532 99.712993 
C 58.032806 99.865507 57.947113 100.072388 57.947113 100.288075 
C 57.947113 100.503762 58.032806 100.710643 58.18532 100.863157 
C 58.337833 101.01567 58.544715 101.101363 58.760401 101.101363 
z
" clip-path="url(#pf22ca1c85c)" style="stroke: #000000"/>
    <path d="M 55.790045 95.77252 
C 56.041833 95.77252 56.283342 95.672484 56.461383 95.494443 
C 56.639423 95.316402 56.73946 95.074893 56.73946 94.823106 
C 56.73946 94.571318 56.639423 94.329809 56.461383 94.151768 
C 56.283342 93.973728 56.041833 93.873691 55.790045 93.873691 
C 55.538258 93.873691 55.296749 93.973728 55.118708 94.151768 
C 54.940667 94.329809 54.840631 94.571318 54.840631 94.823106 
C 54.840631 95.074893 54.940667 95.316402 55.118708 95.494443 
C 55.296749 95.672484 55.538258 95.77252 55.790045 95.77252 
z
" clip-path="url(#pf22ca1c85c)" style="stroke: #000000"/>
    <path d="M 64.24106 133.897932 
C 64.779071 133.897932 65.295118 133.684178 65.675549 133.303747 
C 66.05598 132.923316 66.269734 132.407268 66.269734 131.869258 
C 66.269734 131.331247 66.05598 130.815199 65.675549 130.434768 
C 65.295118 130.054337 64.779071 129.840583 64.24106 129.840583 
C 63.703049 129.840583 63.187002 130.054337 62.806571 130.434768 
C 62.42614 130.815199 62.212386 131.331247 62.212386 131.869258 
C 62.212386 132.407268 62.42614 132.923316 62.806571 133.303747 
C 63.187002 133.684178 63.703049 133.897932 64.24106 133.897932 
z
" clip-path="url(#pf22ca1c85c)" style="stroke: #000000"/>
    <path d="M 59.068395 123.389657 
C 59.610333 123.389657 60.130148 123.174343 60.513356 122.791135 
C 60.896564 122.407926 61.111878 121.888112 61.111878 121.346174 
C 61.111878 120.804236 60.896564 120.284421 60.513356 119.901213 
C 60.130148 119.518005 59.610333 119.302691 59.068395 119.302691 
C 58.526457 119.302691 58.006642 119.518005 57.623434 119.901213 
C 57.240226 120.284421 57.024912 120.804236 57.024912 121.346174 
C 57.024912 121.888112 57.240226 122.407926 57.623434 122.791135 
C 58.006642 123.174343 58.526457 123.389657 59.068395 123.389657 
z
" clip-path="url(#pf22ca1c85c)" style="stroke: #000000"/>
    <path d="M 59.717937 118.694938 
C 60.227459 118.694938 60.716181 118.492503 61.076467 118.132217 
C 61.436753 117.771931 61.639188 117.283209 61.639188 116.773687 
C 61.639188 116.264165 61.436753 115.775444 61.076467 115.415158 
C 60.716181 115.054871 60.227459 114.852436 59.717937 114.852436 
C 59.208415 114.852436 58.719694 115.054871 58.359408 115.415158 
C 57.999121 115.775444 57.796686 116.264165 57.796686 116.773687 
C 57.796686 117.283209 57.999121 117.771931 58.359408 118.132217 
C 58.719694 118.492503 59.208415 118.694938 59.717937 118.694938 
z
" clip-path="url(#pf22ca1c85c)" style="stroke: #000000"/>
    <path d="M 54.696897 112.037691 
C 55.023935 112.037691 55.337623 111.907757 55.568875 111.676506 
C 55.800126 111.445255 55.93006 111.131567 55.93006 110.804528 
C 55.93006 110.47749 55.800126 110.163802 55.568875 109.93255 
C 55.337623 109.701299 55.023935 109.571365 54.696897 109.571365 
C 54.369858 109.571365 54.05617 109.701299 53.824919 109.93255 
C 53.593668 110.163802 53.463734 110.47749 53.463734 110.804528 
C 53.463734 111.131567 53.593668 111.445255 53.824919 111.676506 
C 54.05617 111.907757 54.369858 112.037691 54.696897 112.037691 
z
" clip-path="url(#pf22ca1c85c)" style="stroke: #000000"/>
    <path d="M 51.49129 103.176485 
C 51.648981 103.176485 51.800234 103.113834 51.911738 103.002329 
C 52.023242 102.890825 52.085893 102.739572 52.085893 102.581881 
C 52.085893 102.42419 52.023242 102.272937 51.911738 102.161433 
C 51.800234 102.049929 51.648981 101.987278 51.49129 101.987278 
C 51.333599 101.987278 51.182346 102.049929 51.070842 102.161433 
C 50.959338 102.272937 50.896686 102.42419 50.896686 102.581881 
C 50.896686 102.739572 50.959338 102.890825 51.070842 103.002329 
C 51.182346 103.113834 51.333599 103.176485 51.49129 103.176485 
z
" clip-path="url(#pf22ca1c85c)" style="stroke: #000000"/>
    <path d="M 47.400257 105.785484 
C 47.532859 105.785484 47.660047 105.732801 47.75381 105.639037 
C 47.847574 105.545274 47.900257 105.418086 47.900257 105.285484 
C 47.900257 105.152882 47.847574 105.025694 47.75381 104.931931 
C 47.660047 104.838167 47.532859 104.785484 47.400257 104.785484 
C 47.267656 104.785484 47.140467 104.838167 47.046704 104.931931 
C 46.95294 105.025694 46.900257 105.152882 46.900257 105.285484 
C 46.900257 105.418086 46.95294 105.545274 47.046704 105.639037 
C 47.140467 105.732801 47.267656 105.785484 47.400257 105.785484 
z
" clip-path="url(#pf22ca1c85c)" style="stroke: #000000"/>
    <path d="M 34.261088 129.615297 
C 34.393689 129.615297 34.520878 129.562614 34.614641 129.46885 
C 34.708404 129.375087 34.761088 129.247898 34.761088 129.115297 
C 34.761088 128.982695 34.708404 128.855507 34.614641 128.761743 
C 34.520878 128.66798 34.393689 128.615297 34.261088 128.615297 
C 34.128486 128.615297 34.001298 128.66798 33.907534 128.761743 
C 33.813771 128.855507 33.761088 128.982695 33.761088 129.115297 
C 33.761088 129.247898 33.813771 129.375087 33.907534 129.46885 
C 34.001298 129.562614 34.128486 129.615297 34.261088 129.615297 
z
" clip-path="url(#pf22ca1c85c)" style="stroke: #000000"/>
   </g>
   <g id="matplotlib.axis_1">
    <g id="xtick_1">
     <g id="line2d_1">
      <defs>
       <path id="mdc35930b43" d="M 0 0 
L 0 3.5 
" style="stroke: #000000; stroke-width: 0.8"/>
      </defs>
      <g>
       <use xlink:href="#mdc35930b43" x="18" y="189" style="stroke: #000000; stroke-width: 0.8"/>
      </g>
     </g>
     <g id="text_1">
      <!-- −10 -->
      <g transform="translate(7.447656 203.598437)scale(0.1 -0.1)">
       <defs>
        <path id="DejaVuSans-2212" d="M 678 2272 
L 4684 2272 
L 4684 1741 
L 678 1741 
L 678 2272 
z
" transform="scale(0.015625)"/>
        <path id="DejaVuSans-31" d="M 794 531 
L 1825 531 
L 1825 4091 
L 703 3866 
L 703 4441 
L 1819 4666 
L 2450 4666 
L 2450 531 
L 3481 531 
L 3481 0 
L 794 0 
L 794 531 
z
" transform="scale(0.015625)"/>
        <path id="DejaVuSans-30" d="M 2034 4250 
Q 1547 4250 1301 3770 
Q 1056 3291 1056 2328 
Q 1056 1369 1301 889 
Q 1547 409 2034 409 
Q 2525 409 2770 889 
Q 3016 1369 3016 2328 
Q 3016 3291 2770 3770 
Q 2525 4250 2034 4250 
z
M 2034 4750 
Q 2819 4750 3233 4129 
Q 3647 3509 3647 2328 
Q 3647 1150 3233 529 
Q 2819 -91 2034 -91 
Q 1250 -91 836 529 
Q 422 1150 422 2328 
Q 422 3509 836 4129 
Q 1250 4750 2034 4750 
z
" transform="scale(0.015625)"/>
       </defs>
       <use xlink:href="#DejaVuSans-2212"/>
       <use xlink:href="#DejaVuSans-31" x="83.789062"/>
       <use xlink:href="#DejaVuSans-30" x="147.412109"/>
      </g>
     </g>
    </g>
    <g id="xtick_2">
     <g id="line2d_2">
      <g>
       <use xlink:href="#mdc35930b43" x="73.8" y="189" style="stroke: #000000; stroke-width: 0.8"/>
      </g>
     </g>
     <g id="text_2">
      <!-- 0 -->
      <g transform="translate(70.61875 203.598437)scale(0.1 -0.1)">
       <use xlink:href="#DejaVuSans-30"/>
      </g>
     </g>
    </g>
    <g id="xtick_3">
     <g id="line2d_3">
      <g>
       <use xlink:href="#mdc35930b43" x="129.6" y="189" style="stroke: #000000; stroke-width: 0.8"/>
      </g>
     </g>
     <g id="text_3">
      <!-- 10 -->
      <g transform="translate(123.2375 203.598437)scale(0.1 -0.1)">
       <use xlink:href="#DejaVuSans-31"/>
       <use xlink:href="#DejaVuSans-30" x="63.623047"/>
      </g>
     </g>
    </g>
   </g>
   <g id="matplotlib.axis_2">
    <g id="ytick_1">
     <g id="line2d_4">
      <defs>
       <path id="m51f653d217" d="M 0 0 
L -3.5 0 
" style="stroke: #000000; stroke-width: 0.8"/>
      </defs>
      <g>
       <use xlink:href="#m51f653d217" x="18" y="189" style="stroke: #000000; stroke-width: 0.8"/>
      </g>
     </g>
     <g id="text_4">
      <!-- −15 -->
      <g transform="translate(-10.104688 192.799219)scale(0.1 -0.1)">
       <defs>
        <path id="DejaVuSans-35" d="M 691 4666 
L 3169 4666 
L 3169 4134 
L 1269 4134 
L 1269 2991 
Q 1406 3038 1543 3061 
Q 1681 3084 1819 3084 
Q 2600 3084 3056 2656 
Q 3513 2228 3513 1497 
Q 3513 744 3044 326 
Q 2575 -91 1722 -91 
Q 1428 -91 1123 -41 
Q 819 9 494 109 
L 494 744 
Q 775 591 1075 516 
Q 1375 441 1709 441 
Q 2250 441 2565 725 
Q 2881 1009 2881 1497 
Q 2881 1984 2565 2268 
Q 2250 2553 1709 2553 
Q 1456 2553 1204 2497 
Q 953 2441 691 2322 
L 691 4666 
z
" transform="scale(0.015625)"/>
       </defs>
       <use xlink:href="#DejaVuSans-2212"/>
       <use xlink:href="#DejaVuSans-31" x="83.789062"/>
       <use xlink:href="#DejaVuSans-35" x="147.412109"/>
      </g>
     </g>
    </g>
    <g id="ytick_2">
     <g id="line2d_5">
      <g>
       <use xlink:href="#m51f653d217" x="18" y="161.82" style="stroke: #000000; stroke-width: 0.8"/>
      </g>
     </g>
     <g id="text_5">
      <!-- −10 -->
      <g transform="translate(-10.104688 165.619219)scale(0.1 -0.1)">
       <use xlink:href="#DejaVuSans-2212"/>
       <use xlink:href="#DejaVuSans-31" x="83.789062"/>
       <use xlink:href="#DejaVuSans-30" x="147.412109"/>
      </g>
     </g>
    </g>
    <g id="ytick_3">
     <g id="line2d_6">
      <g>
       <use xlink:href="#m51f653d217" x="18" y="134.64" style="stroke: #000000; stroke-width: 0.8"/>
      </g>
     </g>
     <g id="text_6">
      <!-- −5 -->
      <g transform="translate(-3.742188 138.439219)scale(0.1 -0.1)">
       <use xlink:href="#DejaVuSans-2212"/>
       <use xlink:href="#DejaVuSans-35" x="83.789062"/>
      </g>
     </g>
    </g>
    <g id="ytick_4">
     <g id="line2d_7">
      <g>
       <use xlink:href="#m51f653d217" x="18" y="107.46" style="stroke: #000000; stroke-width: 0.8"/>
      </g>
     </g>
     <g id="text_7">
      <!-- 0 -->
      <g transform="translate(4.6375 111.259219)scale(0.1 -0.1)">
       <use xlink:href="#DejaVuSans-30"/>
      </g>
     </g>
    </g>
    <g id="ytick_5">
     <g id="line2d_8">
      <g>
       <use xlink:href="#m51f653d217" x="18" y="80.28" style="stroke: #000000; stroke-width: 0.8"/>
      </g>
     </g>
     <g id="text_8">
      <!-- 5 -->
      <g transform="translate(4.6375 84.079219)scale(0.1 -0.1)">
       <use xlink:href="#DejaVuSans-35"/>
      </g>
     </g>
    </g>
    <g id="ytick_6">
     <g id="line2d_9">
      <g>
       <use xlink:href="#m51f653d217" x="18" y="53.1" style="stroke: #000000; stroke-width: 0.8"/>
      </g>
     </g>
     <g id="text_9">
      <!-- 10 -->
      <g transform="translate(-1.725 56.899219)scale(0.1 -0.1)">
       <use xlink:href="#DejaVuSans-31"/>
       <use xlink:href="#DejaVuSans-30" x="63.623047"/>
      </g>
     </g>
    </g>
    <g id="ytick_7">
     <g id="line2d_10">
      <g>
       <use xlink:href="#m51f653d217" x="18" y="25.92" style="stroke: #000000; stroke-width: 0.8"/>
      </g>
     </g>
     <g id="text_10">
      <!-- 15 -->
      <g transform="translate(-1.725 29.719219)scale(0.1 -0.1)">
       <use xlink:href="#DejaVuSans-31"/>
       <use xlink:href="#DejaVuSans-35" x="63.623047"/>
      </g>
     </g>
    </g>
   </g>
   <g id="patch_3">
    <path d="M 18 189 
L 18 25.92 
" style="fill: none; stroke: #000000; stroke-width: 0.8; stroke-linejoin: miter; stroke-linecap: square"/>
   </g>
   <g id="patch_4">
    <path d="M 129.6 189 
L 129.6 25.92 
" style="fill: none; stroke: #000000; stroke-width: 0.8; stroke-linejoin: miter; stroke-linecap: square"/>
   </g>
   <g id="patch_5">
    <path d="M 18 189 
L 129.6 189 
" style="fill: none; stroke: #000000; stroke-width: 0.8; stroke-linejoin: miter; stroke-linecap: square"/>
   </g>
   <g id="patch_6">
    <path d="M 18 25.92 
L 129.6 25.92 
" style="fill: none; stroke: #000000; stroke-width: 0.8; stroke-linejoin: miter; stroke-linecap: square"/>
   </g>
  </g>
 </g>
 <defs>
  <clipPath id="pf22ca1c85c">
   <rect x="18" y="25.92" width="111.6" height="163.08"/>
  </clipPath>
 </defs>
</svg>
