<?xml version="1.0" encoding="utf-8" standalone="no"?>
<!DOCTYPE svg PUBLIC "-//W3C//DTD SVG 1.1//EN"
  "http://www.w3.org/Graphics/SVG/1.1/DTD/svg11.dtd">
<svg xmlns:xlink="http://www.w3.org/1999/xlink" width="144pt" height="216pt" viewBox="0 0 144 216" xmlns="http://www.w3.org/2000/svg" version="1.1">
 <metadata>
  <rdf:RDF xmlns:dc="http://purl.org/dc/elements/1.1/" xmlns:cc="http://creativecommons.org/ns#" xmlns:rdf="http://www.w3.org/1999/02/22-rdf-syntax-ns#">
   <cc:Work>
    <dc:type rdf:resource="http://purl.org/dc/dcmitype/StillImage"/>
    <dc:date>2022-06-28T09:26:42.656046</dc:date>
    <dc:format>image/svg+xml</dc:format>
    <dc:creator>
     <cc:Agent>
      <dc:title>Matplotlib v3.5.1, https://matplotlib.org/</dc:title>
     </cc:Agent>
    </dc:creator>
   </cc:Work>
  </rdf:RDF>
 </metadata>
 <defs>
  <style type="text/css">*{stroke-linejoin: round; stroke-linecap: butt}</style>
 </defs>
 <g id="figure_1">
  <g id="patch_1">
   <path d="M 0 216 
L 144 216 
L 144 0 
L 0 0 
L 0 216 
z
" style="fill: none"/>
  </g>
  <g id="axes_1">
   <g id="patch_2">
    <path d="M 18 189 
L 129.6 189 
L 129.6 25.92 
L 18 25.92 
z
" style="fill: #ffffff"/>
   </g>
   <g id="PathCollection_1">
    <defs>
     <path id="m12dc6d0351" d="M 0 2.738613 
C 0.726289 2.738613 1.422928 2.450055 1.936492 1.936492 
C 2.450055 1.422928 2.738613 0.726289 2.738613 0 
C 2.738613 -0.726289 2.450055 -1.422928 1.936492 -1.936492 
C 1.422928 -2.450055 0.726289 -2.738613 0 -2.738613 
C -0.726289 -2.738613 -1.422928 -2.450055 -1.936492 -1.936492 
C -2.450055 -1.422928 -2.738613 -0.726289 -2.738613 0 
C -2.738613 0.726289 -2.450055 1.422928 -1.936492 1.936492 
C -1.422928 2.450055 -0.726289 2.738613 0 2.738613 
z
" style="stroke: #ff0000; stroke-width: 1.75"/>
    </defs>
    <g clip-path="url(#pfd34f49e09)">
     <use xlink:href="#m12dc6d0351" x="80.775" y="83.92143" style="fill: #ff0000; stroke: #ff0000; stroke-width: 1.75"/>
     <use xlink:href="#m12dc6d0351" x="59.85" y="95.690715" style="fill: #ff0000; stroke: #ff0000; stroke-width: 1.75"/>
     <use xlink:href="#m12dc6d0351" x="66.825" y="107.46" style="fill: #ff0000; stroke: #ff0000; stroke-width: 1.75"/>
     <use xlink:href="#m12dc6d0351" x="80.775" y="107.46" style="fill: #ff0000; stroke: #ff0000; stroke-width: 1.75"/>
     <use xlink:href="#m12dc6d0351" x="94.725" y="107.46" style="fill: #ff0000; stroke: #ff0000; stroke-width: 1.75"/>
     <use xlink:href="#m12dc6d0351" x="59.85" y="119.229285" style="fill: #ff0000; stroke: #ff0000; stroke-width: 1.75"/>
     <use xlink:href="#m12dc6d0351" x="80.775" y="130.99857" style="fill: #ff0000; stroke: #ff0000; stroke-width: 1.75"/>
    </g>
   </g>
   <g id="PathCollection_2">
    <defs>
     <path id="C0_0_2d17801a11" d="M 0 2.738613 
C 0.726289 2.738613 1.422928 2.450055 1.936492 1.936492 
C 2.450055 1.422928 2.738613 0.726289 2.738613 -0 
C 2.738613 -0.726289 2.450055 -1.422928 1.936492 -1.936492 
C 1.422928 -2.450055 0.726289 -2.738613 0 -2.738613 
C -0.726289 -2.738613 -1.422928 -2.450055 -1.936492 -1.936492 
C -2.450055 -1.422928 -2.738613 -0.726289 -2.738613 0 
C -2.738613 0.726289 -2.450055 1.422928 -1.936492 1.936492 
C -1.422928 2.450055 -0.726289 2.738613 0 2.738613 
z
"/>
    </defs>
    <g clip-path="url(#pfd34f49e09)">
     <use xlink:href="#C0_0_2d17801a11" x="66.825" y="83.92143" style="fill: none; stroke: #ff0000; stroke-width: 1.75"/>
    </g>
    <g clip-path="url(#pfd34f49e09)">
     <use xlink:href="#C0_0_2d17801a11" x="73.8" y="95.690715" style="fill: none; stroke: #ff0000; stroke-width: 1.75"/>
    </g>
    <g clip-path="url(#pfd34f49e09)">
     <use xlink:href="#C0_0_2d17801a11" x="87.75" y="95.690715" style="fill: none; stroke: #ff0000; stroke-width: 1.75"/>
    </g>
    <g clip-path="url(#pfd34f49e09)">
     <use xlink:href="#C0_0_2d17801a11" x="52.875" y="107.46" style="fill: none; stroke: #ff0000; stroke-width: 1.75"/>
    </g>
    <g clip-path="url(#pfd34f49e09)">
     <use xlink:href="#C0_0_2d17801a11" x="73.8" y="119.229285" style="fill: none; stroke: #ff0000; stroke-width: 1.75"/>
    </g>
    <g clip-path="url(#pfd34f49e09)">
     <use xlink:href="#C0_0_2d17801a11" x="87.75" y="119.229285" style="fill: none; stroke: #ff0000; stroke-width: 1.75"/>
    </g>
    <g clip-path="url(#pfd34f49e09)">
     <use xlink:href="#C0_0_2d17801a11" x="66.825" y="130.99857" style="fill: none; stroke: #ff0000; stroke-width: 1.75"/>
    </g>
   </g>
   <g id="PathCollection_3">
    <path d="M 95.898739 109.566062 
C 96.394888 109.566062 96.870784 109.368939 97.221614 109.018109 
C 97.572445 108.667278 97.769567 108.191383 97.769567 107.695233 
C 97.769567 107.199083 97.572445 106.723188 97.221614 106.372357 
C 96.870784 106.021527 96.394888 105.824404 95.898739 105.824404 
C 95.402589 105.824404 94.926694 106.021527 94.575863 106.372357 
C 94.225032 106.723188 94.02791 107.199083 94.02791 107.695233 
C 94.02791 108.191383 94.225032 108.667278 94.575863 109.018109 
C 94.926694 109.368939 95.402589 109.566062 95.898739 109.566062 
z
" clip-path="url(#pfd34f49e09)" style="stroke: #000000"/>
    <path d="M 90.950318 96.752336 
C 91.414375 96.752336 91.859488 96.567964 92.187626 96.239826 
C 92.515764 95.911688 92.700136 95.466575 92.700136 95.002518 
C 92.700136 94.538461 92.515764 94.093348 92.187626 93.76521 
C 91.859488 93.437072 91.414375 93.2527 90.950318 93.2527 
C 90.486261 93.2527 90.041148 93.437072 89.71301 93.76521 
C 89.384872 94.093348 89.2005 94.538461 89.2005 95.002518 
C 89.2005 95.466575 89.384872 95.911688 89.71301 96.239826 
C 90.041148 96.567964 90.486261 96.752336 90.950318 96.752336 
z
" clip-path="url(#pfd34f49e09)" style="stroke: #000000"/>
    <path d="M 83.806265 88.205489 
C 84.116599 88.205489 84.414264 88.082192 84.633703 87.862753 
C 84.853142 87.643314 84.976439 87.345649 84.976439 87.035315 
C 84.976439 86.724981 84.853142 86.427316 84.633703 86.207877 
C 84.414264 85.988438 84.116599 85.865141 83.806265 85.865141 
C 83.495931 85.865141 83.198266 85.988438 82.978827 86.207877 
C 82.759388 86.427316 82.636091 86.724981 82.636091 87.035315 
C 82.636091 87.345649 82.759388 87.643314 82.978827 87.862753 
C 83.198266 88.082192 83.495931 88.205489 83.806265 88.205489 
z
" clip-path="url(#pfd34f49e09)" style="stroke: #000000"/>
    <path d="M 66.490518 84.600932 
C 66.984758 84.600932 67.458822 84.404568 67.808302 84.055088 
C 68.157783 83.705607 68.354147 83.231543 68.354147 82.737303 
C 68.354147 82.243063 68.157783 81.768999 67.808302 81.419519 
C 67.458822 81.070038 66.984758 80.873675 66.490518 80.873675 
C 65.996278 80.873675 65.522214 81.070038 65.172734 81.419519 
C 64.823253 81.768999 64.62689 82.243063 64.62689 82.737303 
C 64.62689 83.231543 64.823253 83.705607 65.172734 84.055088 
C 65.522214 84.404568 65.996278 84.600932 66.490518 84.600932 
z
" clip-path="url(#pfd34f49e09)" style="stroke: #000000"/>
    <path d="M 79.467518 133.477468 
C 79.92845 133.477468 80.370565 133.294337 80.696493 132.968409 
C 81.022421 132.642481 81.205552 132.200366 81.205552 131.739434 
C 81.205552 131.278502 81.022421 130.836387 80.696493 130.510458 
C 80.370565 130.18453 79.92845 130.0014 79.467518 130.0014 
C 79.006586 130.0014 78.56447 130.18453 78.238542 130.510458 
C 77.912614 130.836387 77.729484 131.278502 77.729484 131.739434 
C 77.729484 132.200366 77.912614 132.642481 78.238542 132.968409 
C 78.56447 133.294337 79.006586 133.477468 79.467518 133.477468 
z
" clip-path="url(#pfd34f49e09)" style="stroke: #000000"/>
    <path d="M 62.046783 86.485451 
C 62.524176 86.485451 62.98208 86.295781 63.319648 85.958213 
C 63.657216 85.620645 63.846886 85.162741 63.846886 84.685348 
C 63.846886 84.207955 63.657216 83.750051 63.319648 83.412483 
C 62.98208 83.074915 62.524176 82.885245 62.046783 82.885245 
C 61.56939 82.885245 61.111486 83.074915 60.773918 83.412483 
C 60.43635 83.750051 60.24668 84.207955 60.24668 84.685348 
C 60.24668 85.162741 60.43635 85.620645 60.773918 85.958213 
C 61.111486 86.295781 61.56939 86.485451 62.046783 86.485451 
z
" clip-path="url(#pfd34f49e09)" style="stroke: #000000"/>
    <path d="M 70.499911 120.303658 
C 70.817728 120.303658 71.12257 120.177388 71.347301 119.952657 
C 71.572031 119.727926 71.698301 119.423084 71.698301 119.105267 
C 71.698301 118.78745 71.572031 118.482607 71.347301 118.257876 
C 71.12257 118.033146 70.817728 117.906876 70.499911 117.906876 
C 70.182094 117.906876 69.877251 118.033146 69.65252 118.257876 
C 69.42779 118.482607 69.30152 118.78745 69.30152 119.105267 
C 69.30152 119.423084 69.42779 119.727926 69.65252 119.952657 
C 69.877251 120.177388 70.182094 120.303658 70.499911 120.303658 
z
" clip-path="url(#pfd34f49e09)" style="stroke: #000000"/>
    <path d="M 62.742106 97.189554 
C 63.218072 97.189554 63.674607 97.000451 64.011166 96.663893 
C 64.347724 96.327334 64.536827 95.870799 64.536827 95.394833 
C 64.536827 94.918867 64.347724 94.462332 64.011166 94.125773 
C 63.674607 93.789215 63.218072 93.600112 62.742106 93.600112 
C 62.26614 93.600112 61.809605 93.789215 61.473046 94.125773 
C 61.136488 94.462332 60.947385 94.918867 60.947385 95.394833 
C 60.947385 95.870799 61.136488 96.327334 61.473046 96.663893 
C 61.809605 97.000451 62.26614 97.189554 62.742106 97.189554 
z
" clip-path="url(#pfd34f49e09)" style="stroke: #000000"/>
    <path d="M 69.23935 131.50951 
C 69.397041 131.50951 69.548294 131.446859 69.659798 131.335355 
C 69.771303 131.223851 69.833954 131.072597 69.833954 130.914907 
C 69.833954 130.757216 69.771303 130.605963 69.659798 130.494458 
C 69.548294 130.382954 69.397041 130.320303 69.23935 130.320303 
C 69.08166 130.320303 68.930406 130.382954 68.818902 130.494458 
C 68.707398 130.605963 68.644747 130.757216 68.644747 130.914907 
C 68.644747 131.072597 68.707398 131.223851 68.818902 131.335355 
C 68.930406 131.446859 69.08166 131.50951 69.23935 131.50951 
z
" clip-path="url(#pfd34f49e09)" style="stroke: #000000"/>
    <path d="M 56.935216 97.777681 
C 57.240243 97.777681 57.532817 97.656493 57.748504 97.440806 
C 57.964191 97.22512 58.085379 96.932545 58.085379 96.627518 
C 58.085379 96.322491 57.964191 96.029916 57.748504 95.81423 
C 57.532817 95.598543 57.240243 95.477355 56.935216 95.477355 
C 56.630189 95.477355 56.337614 95.598543 56.121927 95.81423 
C 55.906241 96.029916 55.785052 96.322491 55.785052 96.627518 
C 55.785052 96.932545 55.906241 97.22512 56.121927 97.440806 
C 56.337614 97.656493 56.630189 97.777681 56.935216 97.777681 
z
" clip-path="url(#pfd34f49e09)" style="stroke: #000000"/>
    <path d="M 62.503196 133.45554 
C 62.976268 133.45554 63.430028 133.267587 63.764541 132.933074 
C 64.099053 132.598562 64.287007 132.144802 64.287007 131.67173 
C 64.287007 131.198658 64.099053 130.744898 63.764541 130.410385 
C 63.430028 130.075873 62.976268 129.887919 62.503196 129.887919 
C 62.030124 129.887919 61.576364 130.075873 61.241851 130.410385 
C 60.907339 130.744898 60.719385 131.198658 60.719385 131.67173 
C 60.719385 132.144802 60.907339 132.598562 61.241851 132.933074 
C 61.576364 133.267587 62.030124 133.45554 62.503196 133.45554 
z
" clip-path="url(#pfd34f49e09)" style="stroke: #000000"/>
    <path d="M 59.683574 125.357939 
C 60.036181 125.357939 60.374393 125.217847 60.623724 124.968516 
C 60.873055 124.719185 61.013148 124.380972 61.013148 124.028365 
C 61.013148 123.675758 60.873055 123.337545 60.623724 123.088214 
C 60.374393 122.838883 60.036181 122.698791 59.683574 122.698791 
C 59.330966 122.698791 58.992754 122.838883 58.743423 123.088214 
C 58.494092 123.337545 58.354 123.675758 58.354 124.028365 
C 58.354 124.380972 58.494092 124.719185 58.743423 124.968516 
C 58.992754 125.217847 59.330966 125.357939 59.683574 125.357939 
z
" clip-path="url(#pfd34f49e09)" style="stroke: #000000"/>
    <path d="M 51.061648 109.119208 
C 51.615338 109.119208 52.146425 108.899225 52.537944 108.507707 
C 52.929462 108.116188 53.149445 107.585101 53.149445 107.031411 
C 53.149445 106.47772 52.929462 105.946633 52.537944 105.555115 
C 52.146425 105.163597 51.615338 104.943613 51.061648 104.943613 
C 50.507957 104.943613 49.97687 105.163597 49.585352 105.555115 
C 49.193834 105.946633 48.97385 106.47772 48.97385 107.031411 
C 48.97385 107.585101 49.193834 108.116188 49.585352 108.507707 
C 49.97687 108.899225 50.507957 109.119208 51.061648 109.119208 
z
" clip-path="url(#pfd34f49e09)" style="stroke: #000000"/>
   </g>
   <g id="matplotlib.axis_1">
    <g id="xtick_1">
     <g id="line2d_1">
      <defs>
       <path id="m65fce2f7a7" d="M 0 0 
L 0 3.5 
" style="stroke: #000000; stroke-width: 0.8"/>
      </defs>
      <g>
       <use xlink:href="#m65fce2f7a7" x="18" y="189" style="stroke: #000000; stroke-width: 0.8"/>
      </g>
     </g>
     <g id="text_1">
      <!-- −10 -->
      <g transform="translate(7.447656 203.598437)scale(0.1 -0.1)">
       <defs>
        <path id="DejaVuSans-2212" d="M 678 2272 
L 4684 2272 
L 4684 1741 
L 678 1741 
L 678 2272 
z
" transform="scale(0.015625)"/>
        <path id="DejaVuSans-31" d="M 794 531 
L 1825 531 
L 1825 4091 
L 703 3866 
L 703 4441 
L 1819 4666 
L 2450 4666 
L 2450 531 
L 3481 531 
L 3481 0 
L 794 0 
L 794 531 
z
" transform="scale(0.015625)"/>
        <path id="DejaVuSans-30" d="M 2034 4250 
Q 1547 4250 1301 3770 
Q 1056 3291 1056 2328 
Q 1056 1369 1301 889 
Q 1547 409 2034 409 
Q 2525 409 2770 889 
Q 3016 1369 3016 2328 
Q 3016 3291 2770 3770 
Q 2525 4250 2034 4250 
z
M 2034 4750 
Q 2819 4750 3233 4129 
Q 3647 3509 3647 2328 
Q 3647 1150 3233 529 
Q 2819 -91 2034 -91 
Q 1250 -91 836 529 
Q 422 1150 422 2328 
Q 422 3509 836 4129 
Q 1250 4750 2034 4750 
z
" transform="scale(0.015625)"/>
       </defs>
       <use xlink:href="#DejaVuSans-2212"/>
       <use xlink:href="#DejaVuSans-31" x="83.789062"/>
       <use xlink:href="#DejaVuSans-30" x="147.412109"/>
      </g>
     </g>
    </g>
    <g id="xtick_2">
     <g id="line2d_2">
      <g>
       <use xlink:href="#m65fce2f7a7" x="73.8" y="189" style="stroke: #000000; stroke-width: 0.8"/>
      </g>
     </g>
     <g id="text_2">
      <!-- 0 -->
      <g transform="translate(70.61875 203.598437)scale(0.1 -0.1)">
       <use xlink:href="#DejaVuSans-30"/>
      </g>
     </g>
    </g>
    <g id="xtick_3">
     <g id="line2d_3">
      <g>
       <use xlink:href="#m65fce2f7a7" x="129.6" y="189" style="stroke: #000000; stroke-width: 0.8"/>
      </g>
     </g>
     <g id="text_3">
      <!-- 10 -->
      <g transform="translate(123.2375 203.598437)scale(0.1 -0.1)">
       <use xlink:href="#DejaVuSans-31"/>
       <use xlink:href="#DejaVuSans-30" x="63.623047"/>
      </g>
     </g>
    </g>
   </g>
   <g id="matplotlib.axis_2">
    <g id="ytick_1">
     <g id="line2d_4">
      <defs>
       <path id="m9453846e86" d="M 0 0 
L -3.5 0 
" style="stroke: #000000; stroke-width: 0.8"/>
      </defs>
      <g>
       <use xlink:href="#m9453846e86" x="18" y="189" style="stroke: #000000; stroke-width: 0.8"/>
      </g>
     </g>
     <g id="text_4">
      <!-- −15 -->
      <g transform="translate(-10.104688 192.799219)scale(0.1 -0.1)">
       <defs>
        <path id="DejaVuSans-35" d="M 691 4666 
L 3169 4666 
L 3169 4134 
L 1269 4134 
L 1269 2991 
Q 1406 3038 1543 3061 
Q 1681 3084 1819 3084 
Q 2600 3084 3056 2656 
Q 3513 2228 3513 1497 
Q 3513 744 3044 326 
Q 2575 -91 1722 -91 
Q 1428 -91 1123 -41 
Q 819 9 494 109 
L 494 744 
Q 775 591 1075 516 
Q 1375 441 1709 441 
Q 2250 441 2565 725 
Q 2881 1009 2881 1497 
Q 2881 1984 2565 2268 
Q 2250 2553 1709 2553 
Q 1456 2553 1204 2497 
Q 953 2441 691 2322 
L 691 4666 
z
" transform="scale(0.015625)"/>
       </defs>
       <use xlink:href="#DejaVuSans-2212"/>
       <use xlink:href="#DejaVuSans-31" x="83.789062"/>
       <use xlink:href="#DejaVuSans-35" x="147.412109"/>
      </g>
     </g>
    </g>
    <g id="ytick_2">
     <g id="line2d_5">
      <g>
       <use xlink:href="#m9453846e86" x="18" y="161.82" style="stroke: #000000; stroke-width: 0.8"/>
      </g>
     </g>
     <g id="text_5">
      <!-- −10 -->
      <g transform="translate(-10.104688 165.619219)scale(0.1 -0.1)">
       <use xlink:href="#DejaVuSans-2212"/>
       <use xlink:href="#DejaVuSans-31" x="83.789062"/>
       <use xlink:href="#DejaVuSans-30" x="147.412109"/>
      </g>
     </g>
    </g>
    <g id="ytick_3">
     <g id="line2d_6">
      <g>
       <use xlink:href="#m9453846e86" x="18" y="134.64" style="stroke: #000000; stroke-width: 0.8"/>
      </g>
     </g>
     <g id="text_6">
      <!-- −5 -->
      <g transform="translate(-3.742188 138.439219)scale(0.1 -0.1)">
       <use xlink:href="#DejaVuSans-2212"/>
       <use xlink:href="#DejaVuSans-35" x="83.789062"/>
      </g>
     </g>
    </g>
    <g id="ytick_4">
     <g id="line2d_7">
      <g>
       <use xlink:href="#m9453846e86" x="18" y="107.46" style="stroke: #000000; stroke-width: 0.8"/>
      </g>
     </g>
     <g id="text_7">
      <!-- 0 -->
      <g transform="translate(4.6375 111.259219)scale(0.1 -0.1)">
       <use xlink:href="#DejaVuSans-30"/>
      </g>
     </g>
    </g>
    <g id="ytick_5">
     <g id="line2d_8">
      <g>
       <use xlink:href="#m9453846e86" x="18" y="80.28" style="stroke: #000000; stroke-width: 0.8"/>
      </g>
     </g>
     <g id="text_8">
      <!-- 5 -->
      <g transform="translate(4.6375 84.079219)scale(0.1 -0.1)">
       <use xlink:href="#DejaVuSans-35"/>
      </g>
     </g>
    </g>
    <g id="ytick_6">
     <g id="line2d_9">
      <g>
       <use xlink:href="#m9453846e86" x="18" y="53.1" style="stroke: #000000; stroke-width: 0.8"/>
      </g>
     </g>
     <g id="text_9">
      <!-- 10 -->
      <g transform="translate(-1.725 56.899219)scale(0.1 -0.1)">
       <use xlink:href="#DejaVuSans-31"/>
       <use xlink:href="#DejaVuSans-30" x="63.623047"/>
      </g>
     </g>
    </g>
    <g id="ytick_7">
     <g id="line2d_10">
      <g>
       <use xlink:href="#m9453846e86" x="18" y="25.92" style="stroke: #000000; stroke-width: 0.8"/>
      </g>
     </g>
     <g id="text_10">
      <!-- 15 -->
      <g transform="translate(-1.725 29.719219)scale(0.1 -0.1)">
       <use xlink:href="#DejaVuSans-31"/>
       <use xlink:href="#DejaVuSans-35" x="63.623047"/>
      </g>
     </g>
    </g>
   </g>
   <g id="patch_3">
    <path d="M 18 189 
L 18 25.92 
" style="fill: none; stroke: #000000; stroke-width: 0.8; stroke-linejoin: miter; stroke-linecap: square"/>
   </g>
   <g id="patch_4">
    <path d="M 129.6 189 
L 129.6 25.92 
" style="fill: none; stroke: #000000; stroke-width: 0.8; stroke-linejoin: miter; stroke-linecap: square"/>
   </g>
   <g id="patch_5">
    <path d="M 18 189 
L 129.6 189 
" style="fill: none; stroke: #000000; stroke-width: 0.8; stroke-linejoin: miter; stroke-linecap: square"/>
   </g>
   <g id="patch_6">
    <path d="M 18 25.92 
L 129.6 25.92 
" style="fill: none; stroke: #000000; stroke-width: 0.8; stroke-linejoin: miter; stroke-linecap: square"/>
   </g>
  </g>
 </g>
 <defs>
  <clipPath id="pfd34f49e09">
   <rect x="18" y="25.92" width="111.6" height="163.08"/>
  </clipPath>
 </defs>
</svg>
