<?xml version="1.0" encoding="utf-8" standalone="no"?>
<!DOCTYPE svg PUBLIC "-//W3C//DTD SVG 1.1//EN"
  "http://www.w3.org/Graphics/SVG/1.1/DTD/svg11.dtd">
<svg xmlns:xlink="http://www.w3.org/1999/xlink" width="144pt" height="216pt" viewBox="0 0 144 216" xmlns="http://www.w3.org/2000/svg" version="1.1">
 <metadata>
  <rdf:RDF xmlns:dc="http://purl.org/dc/elements/1.1/" xmlns:cc="http://creativecommons.org/ns#" xmlns:rdf="http://www.w3.org/1999/02/22-rdf-syntax-ns#">
   <cc:Work>
    <dc:type rdf:resource="http://purl.org/dc/dcmitype/StillImage"/>
    <dc:date>2022-06-23T14:52:07.398488</dc:date>
    <dc:format>image/svg+xml</dc:format>
    <dc:creator>
     <cc:Agent>
      <dc:title>Matplotlib v3.5.1, https://matplotlib.org/</dc:title>
     </cc:Agent>
    </dc:creator>
   </cc:Work>
  </rdf:RDF>
 </metadata>
 <defs>
  <style type="text/css">*{stroke-linejoin: round; stroke-linecap: butt}</style>
 </defs>
 <g id="figure_1">
  <g id="patch_1">
   <path d="M 0 216 
L 144 216 
L 144 0 
L 0 0 
L 0 216 
z
" style="fill: none"/>
  </g>
  <g id="axes_1">
   <g id="patch_2">
    <path d="M 18 189 
L 129.6 189 
L 129.6 25.92 
L 18 25.92 
z
" style="fill: #ffffff"/>
   </g>
   <g id="PathCollection_1">
    <defs>
     <path id="m500856838d" d="M 0 2.738613 
C 0.726289 2.738613 1.422928 2.450055 1.936492 1.936492 
C 2.450055 1.422928 2.738613 0.726289 2.738613 0 
C 2.738613 -0.726289 2.450055 -1.422928 1.936492 -1.936492 
C 1.422928 -2.450055 0.726289 -2.738613 0 -2.738613 
C -0.726289 -2.738613 -1.422928 -2.450055 -1.936492 -1.936492 
C -2.450055 -1.422928 -2.738613 -0.726289 -2.738613 0 
C -2.738613 0.726289 -2.450055 1.422928 -1.936492 1.936492 
C -1.422928 2.450055 -0.726289 2.738613 0 2.738613 
z
" style="stroke: #ff0000; stroke-width: 1.75"/>
    </defs>
    <g clip-path="url(#p9b2ac20c26)">
     <use xlink:href="#m500856838d" x="66.825" y="83.92143" style="fill: #ff0000; stroke: #ff0000; stroke-width: 1.75"/>
     <use xlink:href="#m500856838d" x="87.75" y="95.690715" style="fill: #ff0000; stroke: #ff0000; stroke-width: 1.75"/>
     <use xlink:href="#m500856838d" x="66.825" y="107.46" style="fill: #ff0000; stroke: #ff0000; stroke-width: 1.75"/>
     <use xlink:href="#m500856838d" x="73.8" y="119.229285" style="fill: #ff0000; stroke: #ff0000; stroke-width: 1.75"/>
     <use xlink:href="#m500856838d" x="87.75" y="119.229285" style="fill: #ff0000; stroke: #ff0000; stroke-width: 1.75"/>
     <use xlink:href="#m500856838d" x="66.825" y="130.99857" style="fill: #ff0000; stroke: #ff0000; stroke-width: 1.75"/>
     <use xlink:href="#m500856838d" x="80.775" y="130.99857" style="fill: #ff0000; stroke: #ff0000; stroke-width: 1.75"/>
    </g>
   </g>
   <g id="PathCollection_2">
    <defs>
     <path id="C0_0_105ca5707a" d="M 0 2.738613 
C 0.726289 2.738613 1.422928 2.450055 1.936492 1.936492 
C 2.450055 1.422928 2.738613 0.726289 2.738613 -0 
C 2.738613 -0.726289 2.450055 -1.422928 1.936492 -1.936492 
C 1.422928 -2.450055 0.726289 -2.738613 0 -2.738613 
C -0.726289 -2.738613 -1.422928 -2.450055 -1.936492 -1.936492 
C -2.450055 -1.422928 -2.738613 -0.726289 -2.738613 0 
C -2.738613 0.726289 -2.450055 1.422928 -1.936492 1.936492 
C -1.422928 2.450055 -0.726289 2.738613 0 2.738613 
z
"/>
    </defs>
    <g clip-path="url(#p9b2ac20c26)">
     <use xlink:href="#C0_0_105ca5707a" x="80.775" y="83.92143" style="fill: none; stroke: #ff0000; stroke-width: 1.75"/>
    </g>
    <g clip-path="url(#p9b2ac20c26)">
     <use xlink:href="#C0_0_105ca5707a" x="59.85" y="95.690715" style="fill: none; stroke: #ff0000; stroke-width: 1.75"/>
    </g>
    <g clip-path="url(#p9b2ac20c26)">
     <use xlink:href="#C0_0_105ca5707a" x="73.8" y="95.690715" style="fill: none; stroke: #ff0000; stroke-width: 1.75"/>
    </g>
    <g clip-path="url(#p9b2ac20c26)">
     <use xlink:href="#C0_0_105ca5707a" x="52.875" y="107.46" style="fill: none; stroke: #ff0000; stroke-width: 1.75"/>
    </g>
    <g clip-path="url(#p9b2ac20c26)">
     <use xlink:href="#C0_0_105ca5707a" x="80.775" y="107.46" style="fill: none; stroke: #ff0000; stroke-width: 1.75"/>
    </g>
    <g clip-path="url(#p9b2ac20c26)">
     <use xlink:href="#C0_0_105ca5707a" x="94.725" y="107.46" style="fill: none; stroke: #ff0000; stroke-width: 1.75"/>
    </g>
    <g clip-path="url(#p9b2ac20c26)">
     <use xlink:href="#C0_0_105ca5707a" x="59.85" y="119.229285" style="fill: none; stroke: #ff0000; stroke-width: 1.75"/>
    </g>
   </g>
   <g id="PathCollection_3">
    <path d="M 113.295812 114.36883 
C 114.001246 114.36883 114.677883 114.088557 115.176701 113.58974 
C 115.675518 113.090922 115.95579 112.414286 115.95579 111.708851 
C 115.95579 111.003416 115.675518 110.32678 115.176701 109.827962 
C 114.677883 109.329145 114.001246 109.048872 113.295812 109.048872 
C 112.590377 109.048872 111.913741 109.329145 111.414923 109.827962 
C 110.916105 110.32678 110.635833 111.003416 110.635833 111.708851 
C 110.635833 112.414286 110.916105 113.090922 111.414923 113.58974 
C 111.913741 114.088557 112.590377 114.36883 113.295812 114.36883 
z
" clip-path="url(#p9b2ac20c26)" style="stroke: #000000"/>
    <path d="M 106.756985 97.756605 
C 107.262964 97.756605 107.748287 97.555577 108.106069 97.197796 
C 108.46385 96.840015 108.664878 96.354691 108.664878 95.848712 
C 108.664878 95.342733 108.46385 94.857409 108.106069 94.499628 
C 107.748287 94.141847 107.262964 93.940819 106.756985 93.940819 
C 106.251006 93.940819 105.765682 94.141847 105.407901 94.499628 
C 105.05012 94.857409 104.849092 95.342733 104.849092 95.848712 
C 104.849092 96.354691 105.05012 96.840015 105.407901 97.197796 
C 105.765682 97.555577 106.251006 97.756605 106.756985 97.756605 
z
" clip-path="url(#p9b2ac20c26)" style="stroke: #000000"/>
    <path d="M 109.782914 91.3941 
C 110.488348 91.3941 111.164985 91.113827 111.663803 90.61501 
C 112.16262 90.116192 112.442892 89.439556 112.442892 88.734121 
C 112.442892 88.028686 112.16262 87.35205 111.663803 86.853232 
C 111.164985 86.354415 110.488348 86.074142 109.782914 86.074142 
C 109.077479 86.074142 108.400842 86.354415 107.902025 86.853232 
C 107.403207 87.35205 107.122935 88.028686 107.122935 88.734121 
C 107.122935 89.439556 107.403207 90.116192 107.902025 90.61501 
C 108.400842 91.113827 109.077479 91.3941 109.782914 91.3941 
z
" clip-path="url(#p9b2ac20c26)" style="stroke: #000000"/>
    <path d="M 103.770559 82.392246 
C 103.92825 82.392246 104.079503 82.329595 104.191007 82.21809 
C 104.302511 82.106586 104.365162 81.955333 104.365162 81.797642 
C 104.365162 81.639952 104.302511 81.488698 104.191007 81.377194 
C 104.079503 81.26569 103.92825 81.203039 103.770559 81.203039 
C 103.612868 81.203039 103.461615 81.26569 103.350111 81.377194 
C 103.238607 81.488698 103.175955 81.639952 103.175955 81.797642 
C 103.175955 81.955333 103.238607 82.106586 103.350111 82.21809 
C 103.461615 82.329595 103.612868 82.392246 103.770559 82.392246 
z
" clip-path="url(#p9b2ac20c26)" style="stroke: #000000"/>
    <path d="M 100.505583 60.329356 
C 101.211017 60.329356 101.887654 60.049084 102.386471 59.550267 
C 102.885289 59.051449 103.165561 58.374812 103.165561 57.669378 
C 103.165561 56.963943 102.885289 56.287306 102.386471 55.788489 
C 101.887654 55.289671 101.211017 55.009399 100.505583 55.009399 
C 99.800148 55.009399 99.123511 55.289671 98.624694 55.788489 
C 98.125876 56.287306 97.845604 56.963943 97.845604 57.669378 
C 97.845604 58.374812 98.125876 59.051449 98.624694 59.550267 
C 99.123511 60.049084 99.800148 60.329356 100.505583 60.329356 
z
" clip-path="url(#p9b2ac20c26)" style="stroke: #000000"/>
    <path d="M 91.470625 49.337352 
C 92.016407 49.337352 92.539908 49.120511 92.925834 48.734584 
C 93.31176 48.348658 93.528602 47.825157 93.528602 47.279375 
C 93.528602 46.733593 93.31176 46.210092 92.925834 45.824166 
C 92.539908 45.43824 92.016407 45.221398 91.470625 45.221398 
C 90.924843 45.221398 90.401341 45.43824 90.015415 45.824166 
C 89.629489 46.210092 89.412648 46.733593 89.412648 47.279375 
C 89.412648 47.825157 89.629489 48.348658 90.015415 48.734584 
C 90.401341 49.120511 90.924843 49.337352 91.470625 49.337352 
z
" clip-path="url(#p9b2ac20c26)" style="stroke: #000000"/>
    <path d="M 122.423578 169.122233 
C 123.128792 169.122233 123.805218 168.842048 124.30388 168.343387 
C 124.802541 167.844725 125.082726 167.168299 125.082726 166.463085 
C 125.082726 165.757871 124.802541 165.081445 124.30388 164.582784 
C 123.805218 164.084122 123.128792 163.803937 122.423578 163.803937 
C 121.718364 163.803937 121.041938 164.084122 120.543277 164.582784 
C 120.044615 165.081445 119.76443 165.757871 119.76443 166.463085 
C 119.76443 167.168299 120.044615 167.844725 120.543277 168.343387 
C 121.041938 168.842048 121.718364 169.122233 122.423578 169.122233 
z
" clip-path="url(#p9b2ac20c26)" style="stroke: #000000"/>
    <path d="M 118.973866 157.110399 
C 119.534702 157.110399 120.072644 156.887576 120.469215 156.491005 
C 120.865786 156.094434 121.088609 155.556492 121.088609 154.995656 
C 121.088609 154.43482 120.865786 153.896878 120.469215 153.500307 
C 120.072644 153.103736 119.534702 152.880914 118.973866 152.880914 
C 118.41303 152.880914 117.875089 153.103736 117.478517 153.500307 
C 117.081946 153.896878 116.859124 154.43482 116.859124 154.995656 
C 116.859124 155.556492 117.081946 156.094434 117.478517 156.491005 
C 117.875089 156.887576 118.41303 157.110399 118.973866 157.110399 
z
" clip-path="url(#p9b2ac20c26)" style="stroke: #000000"/>
    <path d="M 118.887742 148.049221 
C 119.449453 148.049221 119.988233 147.826051 120.385422 147.428862 
C 120.782611 147.031672 121.005781 146.492892 121.005781 145.931182 
C 121.005781 145.369471 120.782611 144.830691 120.385422 144.433502 
C 119.988233 144.036313 119.449453 143.813143 118.887742 143.813143 
C 118.326032 143.813143 117.787252 144.036313 117.390062 144.433502 
C 116.992873 144.830691 116.769703 145.369471 116.769703 145.931182 
C 116.769703 146.492892 116.992873 147.031672 117.390062 147.428862 
C 117.787252 147.826051 118.326032 148.049221 118.887742 148.049221 
z
" clip-path="url(#p9b2ac20c26)" style="stroke: #000000"/>
    <path d="M 114.831705 131.477839 
C 115.53714 131.477839 116.213776 131.197566 116.712594 130.698749 
C 117.211411 130.199931 117.491684 129.523295 117.491684 128.81786 
C 117.491684 128.112425 117.211411 127.435789 116.712594 126.936971 
C 116.213776 126.438154 115.53714 126.157881 114.831705 126.157881 
C 114.12627 126.157881 113.449634 126.438154 112.950816 126.936971 
C 112.451999 127.435789 112.171726 128.112425 112.171726 128.81786 
C 112.171726 129.523295 112.451999 130.199931 112.950816 130.698749 
C 113.449634 131.197566 114.12627 131.477839 114.831705 131.477839 
z
" clip-path="url(#p9b2ac20c26)" style="stroke: #000000"/>
    <path d="M 106.990108 126.344149 
C 107.695542 126.344149 108.372179 126.063877 108.870997 125.565059 
C 109.369814 125.066242 109.650086 124.389605 109.650086 123.68417 
C 109.650086 122.978736 109.369814 122.302099 108.870997 121.803281 
C 108.372179 121.304464 107.695542 121.024192 106.990108 121.024192 
C 106.284673 121.024192 105.608037 121.304464 105.109219 121.803281 
C 104.610401 122.302099 104.330129 122.978736 104.330129 123.68417 
C 104.330129 124.389605 104.610401 125.066242 105.109219 125.565059 
C 105.608037 126.063877 106.284673 126.344149 106.990108 126.344149 
z
" clip-path="url(#p9b2ac20c26)" style="stroke: #000000"/>
    <path d="M 109.841248 113.784659 
C 110.43463 113.784659 111.003789 113.548906 111.423374 113.129321 
C 111.842958 112.709736 112.078712 112.140577 112.078712 111.547195 
C 112.078712 110.953812 111.842958 110.384654 111.423374 109.965069 
C 111.003789 109.545484 110.43463 109.309731 109.841248 109.309731 
C 109.247865 109.309731 108.678706 109.545484 108.259122 109.965069 
C 107.839537 110.384654 107.603783 110.953812 107.603783 111.547195 
C 107.603783 112.140577 107.839537 112.709736 108.259122 113.129321 
C 108.678706 113.548906 109.247865 113.784659 109.841248 113.784659 
z
" clip-path="url(#p9b2ac20c26)" style="stroke: #000000"/>
    <path d="M 100.465747 105.111491 
C 101.103477 105.111491 101.715174 104.858118 102.166117 104.407175 
C 102.617061 103.956232 102.870433 103.344535 102.870433 102.706805 
C 102.870433 102.069075 102.617061 101.457378 102.166117 101.006435 
C 101.715174 100.555492 101.103477 100.302119 100.465747 100.302119 
C 99.828017 100.302119 99.21632 100.555492 98.765377 101.006435 
C 98.314434 101.457378 98.061061 102.069075 98.061061 102.706805 
C 98.061061 103.344535 98.314434 103.956232 98.765377 104.407175 
C 99.21632 104.858118 99.828017 105.111491 100.465747 105.111491 
z
" clip-path="url(#p9b2ac20c26)" style="stroke: #000000"/>
    <path d="M 95.960647 90.514758 
C 96.665861 90.514758 97.342286 90.234573 97.840948 89.735911 
C 98.33961 89.23725 98.619794 88.560824 98.619794 87.85561 
C 98.619794 87.150396 98.33961 86.47397 97.840948 85.975308 
C 97.342286 85.476646 96.665861 85.196462 95.960647 85.196462 
C 95.255432 85.196462 94.579007 85.476646 94.080345 85.975308 
C 93.581683 86.47397 93.301499 87.150396 93.301499 87.85561 
C 93.301499 88.560824 93.581683 89.23725 94.080345 89.735911 
C 94.579007 90.234573 95.255432 90.514758 95.960647 90.514758 
z
" clip-path="url(#p9b2ac20c26)" style="stroke: #000000"/>
    <path d="M 94.670645 89.939266 
C 95.263657 89.939266 95.832461 89.70366 96.251784 89.284337 
C 96.671107 88.865014 96.906713 88.296211 96.906713 87.703198 
C 96.906713 87.110186 96.671107 86.541382 96.251784 86.12206 
C 95.832461 85.702737 95.263657 85.46713 94.670645 85.46713 
C 94.077633 85.46713 93.508829 85.702737 93.089506 86.12206 
C 92.670183 86.541382 92.434577 87.110186 92.434577 87.703198 
C 92.434577 88.296211 92.670183 88.865014 93.089506 89.284337 
C 93.508829 89.70366 94.077633 89.939266 94.670645 89.939266 
z
" clip-path="url(#p9b2ac20c26)" style="stroke: #000000"/>
    <path d="M 86.272393 75.110049 
C 86.977827 75.110049 87.654464 74.829777 88.153281 74.330959 
C 88.652099 73.832142 88.932371 73.155505 88.932371 72.45007 
C 88.932371 71.744636 88.652099 71.067999 88.153281 70.569181 
C 87.654464 70.070364 86.977827 69.790092 86.272393 69.790092 
C 85.566958 69.790092 84.890321 70.070364 84.391504 70.569181 
C 83.892686 71.067999 83.612414 71.744636 83.612414 72.45007 
C 83.612414 73.155505 83.892686 73.832142 84.391504 74.330959 
C 84.890321 74.829777 85.566958 75.110049 86.272393 75.110049 
z
" clip-path="url(#p9b2ac20c26)" style="stroke: #000000"/>
    <path d="M 82.612611 63.874703 
C 83.177778 63.874703 83.719874 63.650159 84.119508 63.250526 
C 84.519141 62.850892 84.743685 62.308796 84.743685 61.743629 
C 84.743685 61.178462 84.519141 60.636366 84.119508 60.236732 
C 83.719874 59.837099 83.177778 59.612555 82.612611 59.612555 
C 82.047444 59.612555 81.505348 59.837099 81.105714 60.236732 
C 80.706081 60.636366 80.481537 61.178462 80.481537 61.743629 
C 80.481537 62.308796 80.706081 62.850892 81.105714 63.250526 
C 81.505348 63.650159 82.047444 63.874703 82.612611 63.874703 
z
" clip-path="url(#p9b2ac20c26)" style="stroke: #000000"/>
    <path d="M 82.561196 54.925288 
C 83.266631 54.925288 83.943267 54.645016 84.442085 54.146198 
C 84.940902 53.64738 85.221174 52.970744 85.221174 52.265309 
C 85.221174 51.559875 84.940902 50.883238 84.442085 50.38442 
C 83.943267 49.885603 83.266631 49.605331 82.561196 49.605331 
C 81.855761 49.605331 81.179125 49.885603 80.680307 50.38442 
C 80.18149 50.883238 79.901217 51.559875 79.901217 52.265309 
C 79.901217 52.970744 80.18149 53.64738 80.680307 54.146198 
C 81.179125 54.645016 81.855761 54.925288 82.561196 54.925288 
z
" clip-path="url(#p9b2ac20c26)" style="stroke: #000000"/>
    <path d="M 107.705668 162.997529 
C 108.266504 162.997529 108.804445 162.774706 109.201016 162.378135 
C 109.597587 161.981564 109.82041 161.443623 109.82041 160.882786 
C 109.82041 160.32195 109.597587 159.784009 109.201016 159.387438 
C 108.804445 158.990866 108.266504 158.768044 107.705668 158.768044 
C 107.144831 158.768044 106.60689 158.990866 106.210319 159.387438 
C 105.813748 159.784009 105.590925 160.32195 105.590925 160.882786 
C 105.590925 161.443623 105.813748 161.981564 106.210319 162.378135 
C 106.60689 162.774706 107.144831 162.997529 107.705668 162.997529 
z
" clip-path="url(#p9b2ac20c26)" style="stroke: #000000"/>
    <path d="M 103.408822 148.49464 
C 104.114036 148.49464 104.790462 148.214455 105.289124 147.715794 
C 105.787785 147.217132 106.06797 146.540706 106.06797 145.835492 
C 106.06797 145.130278 105.787785 144.453852 105.289124 143.95519 
C 104.790462 143.456529 104.114036 143.176344 103.408822 143.176344 
C 102.703608 143.176344 102.027182 143.456529 101.52852 143.95519 
C 101.029859 144.453852 100.749674 145.130278 100.749674 145.835492 
C 100.749674 146.540706 101.029859 147.217132 101.52852 147.715794 
C 102.027182 148.214455 102.703608 148.49464 103.408822 148.49464 
z
" clip-path="url(#p9b2ac20c26)" style="stroke: #000000"/>
    <path d="M 97.046819 137.458909 
C 97.752034 137.458909 98.428459 137.178725 98.927121 136.680063 
C 99.425783 136.181401 99.705967 135.504976 99.705967 134.799761 
C 99.705967 134.094547 99.425783 133.418122 98.927121 132.91946 
C 98.428459 132.420798 97.752034 132.140613 97.046819 132.140613 
C 96.341605 132.140613 95.665179 132.420798 95.166518 132.91946 
C 94.667856 133.418122 94.387671 134.094547 94.387671 134.799761 
C 94.387671 135.504976 94.667856 136.181401 95.166518 136.680063 
C 95.665179 137.178725 96.341605 137.458909 97.046819 137.458909 
z
" clip-path="url(#p9b2ac20c26)" style="stroke: #000000"/>
    <path d="M 92.093536 127.284744 
C 92.633029 127.284744 93.150499 127.070401 93.531979 126.688921 
C 93.913458 126.307442 94.127801 125.789972 94.127801 125.250478 
C 94.127801 124.710985 93.913458 124.193515 93.531979 123.812035 
C 93.150499 123.430556 92.633029 123.216213 92.093536 123.216213 
C 91.554042 123.216213 91.036572 123.430556 90.655093 123.812035 
C 90.273613 124.193515 90.05927 124.710985 90.05927 125.250478 
C 90.05927 125.789972 90.273613 126.307442 90.655093 126.688921 
C 91.036572 127.070401 91.554042 127.284744 92.093536 127.284744 
z
" clip-path="url(#p9b2ac20c26)" style="stroke: #000000"/>
    <path d="M 92.072125 120.251984 
C 92.713695 120.251984 93.329073 119.997086 93.782732 119.543428 
C 94.23639 119.08977 94.491288 118.474391 94.491288 117.832821 
C 94.491288 117.191252 94.23639 116.575873 93.782732 116.122215 
C 93.329073 115.668557 92.713695 115.413658 92.072125 115.413658 
C 91.430556 115.413658 90.815177 115.668557 90.361518 116.122215 
C 89.90786 116.575873 89.652962 117.191252 89.652962 117.832821 
C 89.652962 118.474391 89.90786 119.08977 90.361518 119.543428 
C 90.815177 119.997086 91.430556 120.251984 92.072125 120.251984 
z
" clip-path="url(#p9b2ac20c26)" style="stroke: #000000"/>
    <path d="M 92.008432 109.963544 
C 92.847208 109.963544 93.651744 109.630294 94.244849 109.03719 
C 94.837954 108.444085 95.171203 107.639549 95.171203 106.800772 
C 95.171203 105.961995 94.837954 105.15746 94.244849 104.564355 
C 93.651744 103.97125 92.847208 103.638001 92.008432 103.638001 
C 91.169655 103.638001 90.365119 103.97125 89.772014 104.564355 
C 89.178909 105.15746 88.84566 105.961995 88.84566 106.800772 
C 88.84566 107.639549 89.178909 108.444085 89.772014 109.03719 
C 90.365119 109.630294 91.169655 109.963544 92.008432 109.963544 
z
" clip-path="url(#p9b2ac20c26)" style="stroke: #000000"/>
    <path d="M 83.414151 97.815963 
C 84.119366 97.815963 84.795791 97.535779 85.294453 97.037117 
C 85.793115 96.538455 86.073299 95.86203 86.073299 95.156816 
C 86.073299 94.451601 85.793115 93.775176 85.294453 93.276514 
C 84.795791 92.777852 84.119366 92.497668 83.414151 92.497668 
C 82.708937 92.497668 82.032512 92.777852 81.53385 93.276514 
C 81.035188 93.775176 80.755003 94.451601 80.755003 95.156816 
C 80.755003 95.86203 81.035188 96.538455 81.53385 97.037117 
C 82.032512 97.535779 82.708937 97.815963 83.414151 97.815963 
z
" clip-path="url(#p9b2ac20c26)" style="stroke: #000000"/>
    <path d="M 80.463576 84.135903 
C 81.169011 84.135903 81.845648 83.855631 82.344465 83.356813 
C 82.843283 82.857995 83.123555 82.181359 83.123555 81.475924 
C 83.123555 80.77049 82.843283 80.093853 82.344465 79.595035 
C 81.845648 79.096218 81.169011 78.815946 80.463576 78.815946 
C 79.758142 78.815946 79.081505 79.096218 78.582688 79.595035 
C 78.08387 80.093853 77.803598 80.77049 77.803598 81.475924 
C 77.803598 82.181359 78.08387 82.857995 78.582688 83.356813 
C 79.081505 83.855631 79.758142 84.135903 80.463576 84.135903 
z
" clip-path="url(#p9b2ac20c26)" style="stroke: #000000"/>
    <path d="M 76.291298 78.49423 
C 76.88431 78.49423 77.453114 78.258624 77.872436 77.839301 
C 78.291759 77.419978 78.527366 76.851174 78.527366 76.258162 
C 78.527366 75.66515 78.291759 75.096346 77.872436 74.677023 
C 77.453114 74.2577 76.88431 74.022094 76.291298 74.022094 
C 75.698285 74.022094 75.129482 74.2577 74.710159 74.677023 
C 74.290836 75.096346 74.05523 75.66515 74.05523 76.258162 
C 74.05523 76.851174 74.290836 77.419978 74.710159 77.839301 
C 75.129482 78.258624 75.698285 78.49423 76.291298 78.49423 
z
" clip-path="url(#p9b2ac20c26)" style="stroke: #000000"/>
    <path d="M 75.855517 65.849284 
C 76.560732 65.849284 77.237157 65.569099 77.735819 65.070438 
C 78.234481 64.571776 78.514665 63.89535 78.514665 63.190136 
C 78.514665 62.484922 78.234481 61.808496 77.735819 61.309835 
C 77.237157 60.811173 76.560732 60.530988 75.855517 60.530988 
C 75.150303 60.530988 74.473877 60.811173 73.975216 61.309835 
C 73.476554 61.808496 73.196369 62.484922 73.196369 63.190136 
C 73.196369 63.89535 73.476554 64.571776 73.975216 65.070438 
C 74.473877 65.569099 75.150303 65.849284 75.855517 65.849284 
z
" clip-path="url(#p9b2ac20c26)" style="stroke: #000000"/>
    <path d="M 70.203015 59.415722 
C 70.781412 59.415722 71.336197 59.185923 71.745185 58.776935 
C 72.154173 58.367947 72.383972 57.813162 72.383972 57.234765 
C 72.383972 56.656368 72.154173 56.101584 71.745185 55.692595 
C 71.336197 55.283607 70.781412 55.053808 70.203015 55.053808 
C 69.624618 55.053808 69.069834 55.283607 68.660845 55.692595 
C 68.251857 56.101584 68.022058 56.656368 68.022058 57.234765 
C 68.022058 57.813162 68.251857 58.367947 68.660845 58.776935 
C 69.069834 59.185923 69.624618 59.415722 70.203015 59.415722 
z
" clip-path="url(#p9b2ac20c26)" style="stroke: #000000"/>
    <path d="M 70.000084 43.731541 
C 70.705518 43.731541 71.382155 43.451268 71.880972 42.952451 
C 72.37979 42.453633 72.660062 41.776997 72.660062 41.071562 
C 72.660062 40.366127 72.37979 39.689491 71.880972 39.190673 
C 71.382155 38.691856 70.705518 38.411583 70.000084 38.411583 
C 69.294649 38.411583 68.618012 38.691856 68.119195 39.190673 
C 67.620377 39.689491 67.340105 40.366127 67.340105 41.071562 
C 67.340105 41.776997 67.620377 42.453633 68.119195 42.952451 
C 68.618012 43.451268 69.294649 43.731541 70.000084 43.731541 
z
" clip-path="url(#p9b2ac20c26)" style="stroke: #000000"/>
    <path d="M 97.421602 174.204361 
C 98.127037 174.204361 98.803673 173.924089 99.302491 173.425271 
C 99.801308 172.926453 100.08158 172.249817 100.08158 171.544382 
C 100.08158 170.838948 99.801308 170.162311 99.302491 169.663493 
C 98.803673 169.164676 98.127037 168.884404 97.421602 168.884404 
C 96.716167 168.884404 96.039531 169.164676 95.540713 169.663493 
C 95.041896 170.162311 94.761623 170.838948 94.761623 171.544382 
C 94.761623 172.249817 95.041896 172.926453 95.540713 173.425271 
C 96.039531 173.924089 96.716167 174.204361 97.421602 174.204361 
z
" clip-path="url(#p9b2ac20c26)" style="stroke: #000000"/>
    <path d="M 93.559608 150.604281 
C 94.264822 150.604281 94.941248 150.324096 95.43991 149.825434 
C 95.938571 149.326772 96.218756 148.650347 96.218756 147.945133 
C 96.218756 147.239918 95.938571 146.563493 95.43991 146.064831 
C 94.941248 145.566169 94.264822 145.285985 93.559608 145.285985 
C 92.854394 145.285985 92.177968 145.566169 91.679307 146.064831 
C 91.180645 146.563493 90.90046 147.239918 90.90046 147.945133 
C 90.90046 148.650347 91.180645 149.326772 91.679307 149.825434 
C 92.177968 150.324096 92.854394 150.604281 93.559608 150.604281 
z
" clip-path="url(#p9b2ac20c26)" style="stroke: #000000"/>
    <path d="M 86.90527 132.263528 
C 87.542702 132.263528 88.154113 132.010274 88.604845 131.559541 
C 89.055578 131.108809 89.308832 130.497398 89.308832 129.859966 
C 89.308832 129.222534 89.055578 128.611124 88.604845 128.160391 
C 88.154113 127.709659 87.542702 127.456404 86.90527 127.456404 
C 86.267838 127.456404 85.656428 127.709659 85.205695 128.160391 
C 84.754963 128.611124 84.501708 129.222534 84.501708 129.859966 
C 84.501708 130.497398 84.754963 131.108809 85.205695 131.559541 
C 85.656428 132.010274 86.267838 132.263528 86.90527 132.263528 
z
" clip-path="url(#p9b2ac20c26)" style="stroke: #000000"/>
    <path d="M 85.722434 124.818503 
C 86.493276 124.818503 87.232649 124.512244 87.777716 123.967177 
C 88.322784 123.42211 88.629042 122.682736 88.629042 121.911894 
C 88.629042 121.141053 88.322784 120.401679 87.777716 119.856612 
C 87.232649 119.311545 86.493276 119.005286 85.722434 119.005286 
C 84.951592 119.005286 84.212219 119.311545 83.667151 119.856612 
C 83.122084 120.401679 82.815826 121.141053 82.815826 121.911894 
C 82.815826 122.682736 83.122084 123.42211 83.667151 123.967177 
C 84.212219 124.512244 84.951592 124.818503 85.722434 124.818503 
z
" clip-path="url(#p9b2ac20c26)" style="stroke: #000000"/>
    <path d="M 83.862072 111.017554 
C 84.567286 111.017554 85.243711 110.73737 85.742373 110.238708 
C 86.241035 109.740046 86.52122 109.063621 86.52122 108.358406 
C 86.52122 107.653192 86.241035 106.976767 85.742373 106.478105 
C 85.243711 105.979443 84.567286 105.699258 83.862072 105.699258 
C 83.156857 105.699258 82.480432 105.979443 81.98177 106.478105 
C 81.483108 106.976767 81.202924 107.653192 81.202924 108.358406 
C 81.202924 109.063621 81.483108 109.740046 81.98177 110.238708 
C 82.480432 110.73737 83.156857 111.017554 83.862072 111.017554 
z
" clip-path="url(#p9b2ac20c26)" style="stroke: #000000"/>
    <path d="M 78.262651 101.575303 
C 78.900083 101.575303 79.511493 101.322049 79.962225 100.871316 
C 80.412958 100.420584 80.666212 99.809173 80.666212 99.171741 
C 80.666212 98.534309 80.412958 97.922899 79.962225 97.472166 
C 79.511493 97.021434 78.900083 96.768179 78.262651 96.768179 
C 77.625218 96.768179 77.013808 97.021434 76.563076 97.472166 
C 76.112343 97.922899 75.859089 98.534309 75.859089 99.171741 
C 75.859089 99.809173 76.112343 100.420584 76.563076 100.871316 
C 77.013808 101.322049 77.625218 101.575303 78.262651 101.575303 
z
" clip-path="url(#p9b2ac20c26)" style="stroke: #000000"/>
    <path d="M 65.227287 93.256127 
C 65.932501 93.256127 66.608927 92.975942 67.107588 92.47728 
C 67.60625 91.978618 67.886435 91.302193 67.886435 90.596979 
C 67.886435 89.891764 67.60625 89.215339 67.107588 88.716677 
C 66.608927 88.218015 65.932501 87.937831 65.227287 87.937831 
C 64.522072 87.937831 63.845647 88.218015 63.346985 88.716677 
C 62.848323 89.215339 62.568139 89.891764 62.568139 90.596979 
C 62.568139 91.302193 62.848323 91.978618 63.346985 92.47728 
C 63.845647 92.975942 64.522072 93.256127 65.227287 93.256127 
z
" clip-path="url(#p9b2ac20c26)" style="stroke: #000000"/>
    <path d="M 72.65288 81.818411 
C 73.358314 81.818411 74.034951 81.538139 74.533768 81.039321 
C 75.032586 80.540503 75.312858 79.863867 75.312858 79.158432 
C 75.312858 78.452998 75.032586 77.776361 74.533768 77.277543 
C 74.034951 76.778726 73.358314 76.498454 72.65288 76.498454 
C 71.947445 76.498454 71.270808 76.778726 70.771991 77.277543 
C 70.273173 77.776361 69.992901 78.452998 69.992901 79.158432 
C 69.992901 79.863867 70.273173 80.540503 70.771991 81.039321 
C 71.270808 81.538139 71.947445 81.818411 72.65288 81.818411 
z
" clip-path="url(#p9b2ac20c26)" style="stroke: #000000"/>
    <path d="M 62.421411 72.447935 
C 63.126845 72.447935 63.803482 72.167663 64.3023 71.668846 
C 64.801117 71.170028 65.081389 70.493391 65.081389 69.787957 
C 65.081389 69.082522 64.801117 68.405885 64.3023 67.907068 
C 63.803482 67.40825 63.126845 67.127978 62.421411 67.127978 
C 61.715976 67.127978 61.039339 67.40825 60.540522 67.907068 
C 60.041704 68.405885 59.761432 69.082522 59.761432 69.787957 
C 59.761432 70.493391 60.041704 71.170028 60.540522 71.668846 
C 61.039339 72.167663 61.715976 72.447935 62.421411 72.447935 
z
" clip-path="url(#p9b2ac20c26)" style="stroke: #000000"/>
    <path d="M 64.140654 60.938571 
C 64.846088 60.938571 65.522725 60.658299 66.021543 60.159482 
C 66.52036 59.660664 66.800632 58.984027 66.800632 58.278593 
C 66.800632 57.573158 66.52036 56.896522 66.021543 56.397704 
C 65.522725 55.898886 64.846088 55.618614 64.140654 55.618614 
C 63.435219 55.618614 62.758582 55.898886 62.259765 56.397704 
C 61.760947 56.896522 61.480675 57.573158 61.480675 58.278593 
C 61.480675 58.984027 61.760947 59.660664 62.259765 60.159482 
C 62.758582 60.658299 63.435219 60.938571 64.140654 60.938571 
z
" clip-path="url(#p9b2ac20c26)" style="stroke: #000000"/>
    <path d="M 61.431365 48.797787 
C 62.136799 48.797787 62.813436 48.517514 63.312254 48.018697 
C 63.811071 47.519879 64.091343 46.843243 64.091343 46.137808 
C 64.091343 45.432373 63.811071 44.755737 63.312254 44.256919 
C 62.813436 43.758102 62.136799 43.477829 61.431365 43.477829 
C 60.72593 43.477829 60.049293 43.758102 59.550476 44.256919 
C 59.051658 44.755737 58.771386 45.432373 58.771386 46.137808 
C 58.771386 46.843243 59.051658 47.519879 59.550476 48.018697 
C 60.049293 48.517514 60.72593 48.797787 61.431365 48.797787 
z
" clip-path="url(#p9b2ac20c26)" style="stroke: #000000"/>
    <path d="M 52.481593 37.482517 
C 52.723081 37.482517 52.954712 37.386572 53.12547 37.215814 
C 53.296228 37.045056 53.392173 36.813425 53.392173 36.571937 
C 53.392173 36.330448 53.296228 36.098817 53.12547 35.928059 
C 52.954712 35.757301 52.723081 35.661356 52.481593 35.661356 
C 52.240104 35.661356 52.008474 35.757301 51.837715 35.928059 
C 51.666957 36.098817 51.571013 36.330448 51.571013 36.571937 
C 51.571013 36.813425 51.666957 37.045056 51.837715 37.215814 
C 52.008474 37.386572 52.240104 37.482517 52.481593 37.482517 
z
" clip-path="url(#p9b2ac20c26)" style="stroke: #000000"/>
    <path d="M 91.682565 177.110219 
C 92.235799 177.110219 92.766449 176.890417 93.157645 176.499221 
C 93.548841 176.108025 93.768643 175.577375 93.768643 175.024141 
C 93.768643 174.470906 93.548841 173.940256 93.157645 173.549061 
C 92.766449 173.157865 92.235799 172.938062 91.682565 172.938062 
C 91.12933 172.938062 90.59868 173.157865 90.207485 173.549061 
C 89.816289 173.940256 89.596486 174.470906 89.596486 175.024141 
C 89.596486 175.577375 89.816289 176.108025 90.207485 176.499221 
C 90.59868 176.890417 91.12933 177.110219 91.682565 177.110219 
z
" clip-path="url(#p9b2ac20c26)" style="stroke: #000000"/>
    <path d="M 88.608875 168.785724 
C 89.31409 168.785724 89.990515 168.50554 90.489177 168.006878 
C 90.987839 167.508216 91.268023 166.831791 91.268023 166.126576 
C 91.268023 165.421362 90.987839 164.744937 90.489177 164.246275 
C 89.990515 163.747613 89.31409 163.467428 88.608875 163.467428 
C 87.903661 163.467428 87.227236 163.747613 86.728574 164.246275 
C 86.229912 164.744937 85.949727 165.421362 85.949727 166.126576 
C 85.949727 166.831791 86.229912 167.508216 86.728574 168.006878 
C 87.227236 168.50554 87.903661 168.785724 88.608875 168.785724 
z
" clip-path="url(#p9b2ac20c26)" style="stroke: #000000"/>
    <path d="M 82.992186 156.010691 
C 83.69762 156.010691 84.374257 155.730419 84.873075 155.231601 
C 85.371892 154.732784 85.652164 154.056147 85.652164 153.350712 
C 85.652164 152.645278 85.371892 151.968641 84.873075 151.469824 
C 84.374257 150.971006 83.69762 150.690734 82.992186 150.690734 
C 82.286751 150.690734 81.610114 150.971006 81.111297 151.469824 
C 80.612479 151.968641 80.332207 152.645278 80.332207 153.350712 
C 80.332207 154.056147 80.612479 154.732784 81.111297 155.231601 
C 81.610114 155.730419 82.286751 156.010691 82.992186 156.010691 
z
" clip-path="url(#p9b2ac20c26)" style="stroke: #000000"/>
    <path d="M 79.137377 149.495636 
C 79.842811 149.495636 80.519448 149.215364 81.018265 148.716546 
C 81.517083 148.217729 81.797355 147.541092 81.797355 146.835657 
C 81.797355 146.130223 81.517083 145.453586 81.018265 144.954768 
C 80.519448 144.455951 79.842811 144.175679 79.137377 144.175679 
C 78.431942 144.175679 77.755305 144.455951 77.256488 144.954768 
C 76.75767 145.453586 76.477398 146.130223 76.477398 146.835657 
C 76.477398 147.541092 76.75767 148.217729 77.256488 148.716546 
C 77.755305 149.215364 78.431942 149.495636 79.137377 149.495636 
z
" clip-path="url(#p9b2ac20c26)" style="stroke: #000000"/>
    <path d="M 73.331917 136.957348 
C 74.037352 136.957348 74.713989 136.677075 75.212806 136.178258 
C 75.711624 135.67944 75.991896 135.002804 75.991896 134.297369 
C 75.991896 133.591934 75.711624 132.915298 75.212806 132.41648 
C 74.713989 131.917663 74.037352 131.63739 73.331917 131.63739 
C 72.626483 131.63739 71.949846 131.917663 71.451028 132.41648 
C 70.952211 132.915298 70.671939 133.591934 70.671939 134.297369 
C 70.671939 135.002804 70.952211 135.67944 71.451028 136.178258 
C 71.949846 136.677075 72.626483 136.957348 73.331917 136.957348 
z
" clip-path="url(#p9b2ac20c26)" style="stroke: #000000"/>
    <path d="M 71.571647 124.979006 
C 72.406998 124.979006 73.208247 124.647118 73.798929 124.056436 
C 74.389611 123.465754 74.721499 122.664505 74.721499 121.829154 
C 74.721499 120.993804 74.389611 120.192555 73.798929 119.601873 
C 73.208247 119.011191 72.406998 118.679302 71.571647 118.679302 
C 70.736297 118.679302 69.935048 119.011191 69.344366 119.601873 
C 68.753684 120.192555 68.421795 120.993804 68.421795 121.829154 
C 68.421795 122.664505 68.753684 123.465754 69.344366 124.056436 
C 69.935048 124.647118 70.736297 124.979006 71.571647 124.979006 
z
" clip-path="url(#p9b2ac20c26)" style="stroke: #000000"/>
    <path d="M 70.555405 114.297093 
C 71.148417 114.297093 71.717221 114.061487 72.136544 113.642164 
C 72.555867 113.222841 72.791473 112.654037 72.791473 112.061025 
C 72.791473 111.468013 72.555867 110.899209 72.136544 110.479886 
C 71.717221 110.060563 71.148417 109.824957 70.555405 109.824957 
C 69.962393 109.824957 69.393589 110.060563 68.974266 110.479886 
C 68.554944 110.899209 68.319337 111.468013 68.319337 112.061025 
C 68.319337 112.654037 68.554944 113.222841 68.974266 113.642164 
C 69.393589 114.061487 69.962393 114.297093 70.555405 114.297093 
z
" clip-path="url(#p9b2ac20c26)" style="stroke: #000000"/>
    <path d="M 67.160546 106.037534 
C 67.865981 106.037534 68.542618 105.757262 69.041435 105.258444 
C 69.540253 104.759627 69.820525 104.08299 69.820525 103.377556 
C 69.820525 102.672121 69.540253 101.995484 69.041435 101.496667 
C 68.542618 100.997849 67.865981 100.717577 67.160546 100.717577 
C 66.455112 100.717577 65.778475 100.997849 65.279657 101.496667 
C 64.78084 101.995484 64.500568 102.672121 64.500568 103.377556 
C 64.500568 104.08299 64.78084 104.759627 65.279657 105.258444 
C 65.778475 105.757262 66.455112 106.037534 67.160546 106.037534 
z
" clip-path="url(#p9b2ac20c26)" style="stroke: #000000"/>
    <path d="M 60.557264 97.106013 
C 61.150276 97.106013 61.71908 96.870407 62.138403 96.451084 
C 62.557725 96.031761 62.793332 95.462957 62.793332 94.869945 
C 62.793332 94.276933 62.557725 93.708129 62.138403 93.288806 
C 61.71908 92.869483 61.150276 92.633877 60.557264 92.633877 
C 59.964252 92.633877 59.395448 92.869483 58.976125 93.288806 
C 58.556802 93.708129 58.321196 94.276933 58.321196 94.869945 
C 58.321196 95.462957 58.556802 96.031761 58.976125 96.451084 
C 59.395448 96.870407 59.964252 97.106013 60.557264 97.106013 
z
" clip-path="url(#p9b2ac20c26)" style="stroke: #000000"/>
    <path d="M 58.408863 86.097143 
C 58.854006 86.097143 59.280977 85.920286 59.595741 85.605523 
C 59.910504 85.290759 60.087362 84.863788 60.087362 84.418645 
C 60.087362 83.973502 59.910504 83.546531 59.595741 83.231767 
C 59.280977 82.917004 58.854006 82.740147 58.408863 82.740147 
C 57.96372 82.740147 57.536749 82.917004 57.221986 83.231767 
C 56.907222 83.546531 56.730365 83.973502 56.730365 84.418645 
C 56.730365 84.863788 56.907222 85.290759 57.221986 85.605523 
C 57.536749 85.920286 57.96372 86.097143 58.408863 86.097143 
z
" clip-path="url(#p9b2ac20c26)" style="stroke: #000000"/>
    <path d="M 53.523285 75.602197 
C 54.22872 75.602197 54.905357 75.321925 55.404174 74.823108 
C 55.902992 74.32429 56.183264 73.647653 56.183264 72.942219 
C 56.183264 72.236784 55.902992 71.560147 55.404174 71.06133 
C 54.905357 70.562512 54.22872 70.28224 53.523285 70.28224 
C 52.817851 70.28224 52.141214 70.562512 51.642397 71.06133 
C 51.143579 71.560147 50.863307 72.236784 50.863307 72.942219 
C 50.863307 73.647653 51.143579 74.32429 51.642397 74.823108 
C 52.141214 75.321925 52.817851 75.602197 53.523285 75.602197 
z
" clip-path="url(#p9b2ac20c26)" style="stroke: #000000"/>
    <path d="M 48.929949 67.209548 
C 49.635383 67.209548 50.31202 66.929276 50.810837 66.430458 
C 51.309655 65.931641 51.589927 65.255004 51.589927 64.549569 
C 51.589927 63.844135 51.309655 63.167498 50.810837 62.668681 
C 50.31202 62.169863 49.635383 61.889591 48.929949 61.889591 
C 48.224514 61.889591 47.547877 62.169863 47.04906 62.668681 
C 46.550242 63.167498 46.26997 63.844135 46.26997 64.549569 
C 46.26997 65.255004 46.550242 65.931641 47.04906 66.430458 
C 47.547877 66.929276 48.224514 67.209548 48.929949 67.209548 
z
" clip-path="url(#p9b2ac20c26)" style="stroke: #000000"/>
    <path d="M 48.275672 54.523988 
C 48.980887 54.523988 49.657312 54.243804 50.155974 53.745142 
C 50.654636 53.24648 50.93482 52.570055 50.93482 51.86484 
C 50.93482 51.159626 50.654636 50.483201 50.155974 49.984539 
C 49.657312 49.485877 48.980887 49.205692 48.275672 49.205692 
C 47.570458 49.205692 46.894033 49.485877 46.395371 49.984539 
C 45.896709 50.483201 45.616525 51.159626 45.616525 51.86484 
C 45.616525 52.570055 45.896709 53.24648 46.395371 53.745142 
C 46.894033 54.243804 47.570458 54.523988 48.275672 54.523988 
z
" clip-path="url(#p9b2ac20c26)" style="stroke: #000000"/>
    <path d="M 46.011047 44.212314 
C 46.711362 44.212314 47.383089 43.934076 47.878286 43.438879 
C 48.373484 42.943681 48.651722 42.271955 48.651722 41.57164 
C 48.651722 40.871325 48.373484 40.199598 47.878286 39.704401 
C 47.383089 39.209203 46.711362 38.930965 46.011047 38.930965 
C 45.310732 38.930965 44.639006 39.209203 44.143808 39.704401 
C 43.648611 40.199598 43.370372 40.871325 43.370372 41.57164 
C 43.370372 42.271955 43.648611 42.943681 44.143808 43.438879 
C 44.639006 43.934076 45.310732 44.212314 46.011047 44.212314 
z
" clip-path="url(#p9b2ac20c26)" style="stroke: #000000"/>
    <path d="M 74.385301 179.240986 
C 74.932974 179.240986 75.45829 179.023393 75.845554 178.63613 
C 76.232818 178.248866 76.450411 177.72355 76.450411 177.175876 
C 76.450411 176.628202 76.232818 176.102886 75.845554 175.715623 
C 75.45829 175.328359 74.932974 175.110766 74.385301 175.110766 
C 73.837627 175.110766 73.312311 175.328359 72.925047 175.715623 
C 72.537783 176.102886 72.32019 176.628202 72.32019 177.175876 
C 72.32019 177.72355 72.537783 178.248866 72.925047 178.63613 
C 73.312311 179.023393 73.837627 179.240986 74.385301 179.240986 
z
" clip-path="url(#p9b2ac20c26)" style="stroke: #000000"/>
    <path d="M 78.655601 173.645696 
C 79.361035 173.645696 80.037672 173.365424 80.53649 172.866607 
C 81.035307 172.367789 81.315579 171.691152 81.315579 170.985718 
C 81.315579 170.280283 81.035307 169.603647 80.53649 169.104829 
C 80.037672 168.606011 79.361035 168.325739 78.655601 168.325739 
C 77.950166 168.325739 77.273529 168.606011 76.774712 169.104829 
C 76.275894 169.603647 75.995622 170.280283 75.995622 170.985718 
C 75.995622 171.691152 76.275894 172.367789 76.774712 172.866607 
C 77.273529 173.365424 77.950166 173.645696 78.655601 173.645696 
z
" clip-path="url(#p9b2ac20c26)" style="stroke: #000000"/>
    <path d="M 72.325264 149.397584 
C 73.030478 149.397584 73.706904 149.117399 74.205565 148.618737 
C 74.704227 148.120076 74.984412 147.44365 74.984412 146.738436 
C 74.984412 146.033222 74.704227 145.356796 74.205565 144.858134 
C 73.706904 144.359473 73.030478 144.079288 72.325264 144.079288 
C 71.62005 144.079288 70.943624 144.359473 70.444962 144.858134 
C 69.946301 145.356796 69.666116 146.033222 69.666116 146.738436 
C 69.666116 147.44365 69.946301 148.120076 70.444962 148.618737 
C 70.943624 149.117399 71.62005 149.397584 72.325264 149.397584 
z
" clip-path="url(#p9b2ac20c26)" style="stroke: #000000"/>
    <path d="M 63.227525 137.613154 
C 63.820537 137.613154 64.38934 137.377548 64.808663 136.958225 
C 65.227986 136.538902 65.463592 135.970099 65.463592 135.377086 
C 65.463592 134.784074 65.227986 134.21527 64.808663 133.795948 
C 64.38934 133.376625 63.820537 133.141018 63.227525 133.141018 
C 62.634512 133.141018 62.065709 133.376625 61.646386 133.795948 
C 61.227063 134.21527 60.991457 134.784074 60.991457 135.377086 
C 60.991457 135.970099 61.227063 136.538902 61.646386 136.958225 
C 62.065709 137.377548 62.634512 137.613154 63.227525 137.613154 
z
" clip-path="url(#p9b2ac20c26)" style="stroke: #000000"/>
    <path d="M 57.445644 128.263023 
C 58.015045 128.263023 58.561202 128.036797 58.963829 127.63417 
C 59.366457 127.231543 59.592682 126.685386 59.592682 126.115985 
C 59.592682 125.546584 59.366457 125.000427 58.963829 124.5978 
C 58.561202 124.195172 58.015045 123.968947 57.445644 123.968947 
C 56.876243 123.968947 56.330086 124.195172 55.927459 124.5978 
C 55.524832 125.000427 55.298606 125.546584 55.298606 126.115985 
C 55.298606 126.685386 55.524832 127.231543 55.927459 127.63417 
C 56.330086 128.036797 56.876243 128.263023 57.445644 128.263023 
z
" clip-path="url(#p9b2ac20c26)" style="stroke: #000000"/>
    <path d="M 57.466778 117.245664 
C 58.054532 117.245664 58.618292 117.012147 59.033897 116.596542 
C 59.449501 116.180938 59.683018 115.617178 59.683018 115.029424 
C 59.683018 114.44167 59.449501 113.87791 59.033897 113.462305 
C 58.618292 113.046701 58.054532 112.813184 57.466778 112.813184 
C 56.879024 112.813184 56.315264 113.046701 55.89966 113.462305 
C 55.484055 113.87791 55.250538 114.44167 55.250538 115.029424 
C 55.250538 115.617178 55.484055 116.180938 55.89966 116.596542 
C 56.315264 117.012147 56.879024 117.245664 57.466778 117.245664 
z
" clip-path="url(#p9b2ac20c26)" style="stroke: #000000"/>
    <path d="M 53.605723 108.220027 
C 54.311158 108.220027 54.987795 107.939755 55.486612 107.440937 
C 55.98543 106.94212 56.265702 106.265483 56.265702 105.560048 
C 56.265702 104.854614 55.98543 104.177977 55.486612 103.679159 
C 54.987795 103.180342 54.311158 102.90007 53.605723 102.90007 
C 52.900289 102.90007 52.223652 103.180342 51.724835 103.679159 
C 51.226017 104.177977 50.945745 104.854614 50.945745 105.560048 
C 50.945745 106.265483 51.226017 106.94212 51.724835 107.440937 
C 52.223652 107.939755 52.900289 108.220027 53.605723 108.220027 
z
" clip-path="url(#p9b2ac20c26)" style="stroke: #000000"/>
    <path d="M 52.660323 96.919953 
C 53.365537 96.919953 54.041962 96.639768 54.540624 96.141107 
C 55.039286 95.642445 55.319471 94.966019 55.319471 94.260805 
C 55.319471 93.555591 55.039286 92.879165 54.540624 92.380504 
C 54.041962 91.881842 53.365537 91.601657 52.660323 91.601657 
C 51.955108 91.601657 51.278683 91.881842 50.780021 92.380504 
C 50.281359 92.879165 50.001175 93.555591 50.001175 94.260805 
C 50.001175 94.966019 50.281359 95.642445 50.780021 96.141107 
C 51.278683 96.639768 51.955108 96.919953 52.660323 96.919953 
z
" clip-path="url(#p9b2ac20c26)" style="stroke: #000000"/>
    <path d="M 46.982268 87.493343 
C 47.57528 87.493343 48.144084 87.257737 48.563407 86.838414 
C 48.98273 86.419091 49.218336 85.850287 49.218336 85.257275 
C 49.218336 84.664263 48.98273 84.095459 48.563407 83.676137 
C 48.144084 83.256814 47.57528 83.021207 46.982268 83.021207 
C 46.389256 83.021207 45.820452 83.256814 45.401129 83.676137 
C 44.981806 84.095459 44.7462 84.664263 44.7462 85.257275 
C 44.7462 85.850287 44.981806 86.419091 45.401129 86.838414 
C 45.820452 87.257737 46.389256 87.493343 46.982268 87.493343 
z
" clip-path="url(#p9b2ac20c26)" style="stroke: #000000"/>
    <path d="M 40.92 79.246107 
C 41.625435 79.246107 42.302071 78.965835 42.800889 78.467017 
C 43.299706 77.9682 43.579979 77.291563 43.579979 76.586129 
C 43.579979 75.880694 43.299706 75.204057 42.800889 74.70524 
C 42.302071 74.206422 41.625435 73.92615 40.92 73.92615 
C 40.214566 73.92615 39.537929 74.206422 39.039111 74.70524 
C 38.540294 75.204057 38.260022 75.880694 38.260022 76.586129 
C 38.260022 77.291563 38.540294 77.9682 39.039111 78.467017 
C 39.537929 78.965835 40.214566 79.246107 40.92 79.246107 
z
" clip-path="url(#p9b2ac20c26)" style="stroke: #000000"/>
    <path d="M 39.439603 66.069298 
C 40.144817 66.069298 40.821243 65.789113 41.319905 65.290452 
C 41.818567 64.79179 42.098751 64.115364 42.098751 63.41015 
C 42.098751 62.704936 41.818567 62.02851 41.319905 61.529849 
C 40.821243 61.031187 40.144817 60.751002 39.439603 60.751002 
C 38.734389 60.751002 38.057963 61.031187 37.559302 61.529849 
C 37.06064 62.02851 36.780455 62.704936 36.780455 63.41015 
C 36.780455 64.115364 37.06064 64.79179 37.559302 65.290452 
C 38.057963 65.789113 38.734389 66.069298 39.439603 66.069298 
z
" clip-path="url(#p9b2ac20c26)" style="stroke: #000000"/>
    <path d="M 69.114602 173.860737 
C 69.819816 173.860737 70.496242 173.580553 70.994904 173.081891 
C 71.493566 172.583229 71.77375 171.906804 71.77375 171.20159 
C 71.77375 170.496375 71.493566 169.81995 70.994904 169.321288 
C 70.496242 168.822626 69.819816 168.542442 69.114602 168.542442 
C 68.409388 168.542442 67.732962 168.822626 67.234301 169.321288 
C 66.735639 169.81995 66.455454 170.496375 66.455454 171.20159 
C 66.455454 171.906804 66.735639 172.583229 67.234301 173.081891 
C 67.732962 173.580553 68.409388 173.860737 69.114602 173.860737 
z
" clip-path="url(#p9b2ac20c26)" style="stroke: #000000"/>
    <path d="M 60.551234 162.642694 
C 61.256448 162.642694 61.932874 162.36251 62.431536 161.863848 
C 62.930198 161.365186 63.210382 160.688761 63.210382 159.983547 
C 63.210382 159.278332 62.930198 158.601907 62.431536 158.103245 
C 61.932874 157.604583 61.256448 157.324399 60.551234 157.324399 
C 59.84602 157.324399 59.169594 157.604583 58.670933 158.103245 
C 58.172271 158.601907 57.892086 159.278332 57.892086 159.983547 
C 57.892086 160.688761 58.172271 161.365186 58.670933 161.863848 
C 59.169594 162.36251 59.84602 162.642694 60.551234 162.642694 
z
" clip-path="url(#p9b2ac20c26)" style="stroke: #000000"/>
    <path d="M 52.874443 143.681537 
C 53.467455 143.681537 54.036258 143.445931 54.455581 143.026608 
C 54.874904 142.607285 55.110511 142.038481 55.110511 141.445469 
C 55.110511 140.852457 54.874904 140.283653 54.455581 139.86433 
C 54.036258 139.445007 53.467455 139.209401 52.874443 139.209401 
C 52.28143 139.209401 51.712627 139.445007 51.293304 139.86433 
C 50.873981 140.283653 50.638375 140.852457 50.638375 141.445469 
C 50.638375 142.038481 50.873981 142.607285 51.293304 143.026608 
C 51.712627 143.445931 52.28143 143.681537 52.874443 143.681537 
z
" clip-path="url(#p9b2ac20c26)" style="stroke: #000000"/>
    <path d="M 50.569639 129.317572 
C 51.09532 129.317572 51.599542 129.108716 51.971255 128.737003 
C 52.342968 128.36529 52.551824 127.861068 52.551824 127.335387 
C 52.551824 126.809705 52.342968 126.305483 51.971255 125.93377 
C 51.599542 125.562057 51.09532 125.353202 50.569639 125.353202 
C 50.043957 125.353202 49.539735 125.562057 49.168022 125.93377 
C 48.796309 126.305483 48.587453 126.809705 48.587453 127.335387 
C 48.587453 127.861068 48.796309 128.36529 49.168022 128.737003 
C 49.539735 129.108716 50.043957 129.317572 50.569639 129.317572 
z
" clip-path="url(#p9b2ac20c26)" style="stroke: #000000"/>
    <path d="M 49.777598 122.972061 
C 50.3121 122.972061 50.824783 122.759701 51.202733 122.381751 
C 51.580683 122.0038 51.793043 121.491118 51.793043 120.956616 
C 51.793043 120.422113 51.580683 119.909431 51.202733 119.531481 
C 50.824783 119.15353 50.3121 118.94117 49.777598 118.94117 
C 49.243096 118.94117 48.730413 119.15353 48.352463 119.531481 
C 47.974513 119.909431 47.762153 120.422113 47.762153 120.956616 
C 47.762153 121.491118 47.974513 122.0038 48.352463 122.381751 
C 48.730413 122.759701 49.243096 122.972061 49.777598 122.972061 
z
" clip-path="url(#p9b2ac20c26)" style="stroke: #000000"/>
    <path d="M 43.167942 114.089892 
C 43.873156 114.089892 44.549581 113.809707 45.048243 113.311045 
C 45.546905 112.812383 45.82709 112.135958 45.82709 111.430744 
C 45.82709 110.725529 45.546905 110.049104 45.048243 109.550442 
C 44.549581 109.05178 43.873156 108.771596 43.167942 108.771596 
C 42.462727 108.771596 41.786302 109.05178 41.28764 109.550442 
C 40.788978 110.049104 40.508794 110.725529 40.508794 111.430744 
C 40.508794 112.135958 40.788978 112.812383 41.28764 113.311045 
C 41.786302 113.809707 42.462727 114.089892 43.167942 114.089892 
z
" clip-path="url(#p9b2ac20c26)" style="stroke: #000000"/>
    <path d="M 37.39558 102.279364 
C 37.988592 102.279364 38.557396 102.043758 38.976719 101.624435 
C 39.396042 101.205112 39.631648 100.636308 39.631648 100.043296 
C 39.631648 99.450284 39.396042 98.88148 38.976719 98.462157 
C 38.557396 98.042835 37.988592 97.807228 37.39558 97.807228 
C 36.802568 97.807228 36.233764 98.042835 35.814441 98.462157 
C 35.395119 98.88148 35.159512 99.450284 35.159512 100.043296 
C 35.159512 100.636308 35.395119 101.205112 35.814441 101.624435 
C 36.233764 102.043758 36.802568 102.279364 37.39558 102.279364 
z
" clip-path="url(#p9b2ac20c26)" style="stroke: #000000"/>
    <path d="M 34.941398 83.635895 
C 35.646612 83.635895 36.323037 83.355711 36.821699 82.857049 
C 37.320361 82.358387 37.600546 81.681962 37.600546 80.976747 
C 37.600546 80.271533 37.320361 79.595108 36.821699 79.096446 
C 36.323037 78.597784 35.646612 78.317599 34.941398 78.317599 
C 34.236183 78.317599 33.559758 78.597784 33.061096 79.096446 
C 32.562434 79.595108 32.28225 80.271533 32.28225 80.976747 
C 32.28225 81.681962 32.562434 82.358387 33.061096 82.857049 
C 33.559758 83.355711 34.236183 83.635895 34.941398 83.635895 
z
" clip-path="url(#p9b2ac20c26)" style="stroke: #000000"/>
    <path d="M 55.954827 174.286262 
C 56.512571 174.286262 57.047546 174.064669 57.44193 173.670284 
C 57.836315 173.2759 58.057909 172.740925 58.057909 172.183181 
C 58.057909 171.625437 57.836315 171.090462 57.44193 170.696078 
C 57.047546 170.301693 56.512571 170.0801 55.954827 170.0801 
C 55.397083 170.0801 54.862108 170.301693 54.467724 170.696078 
C 54.07334 171.090462 53.851746 171.625437 53.851746 172.183181 
C 53.851746 172.740925 54.07334 173.2759 54.467724 173.670284 
C 54.862108 174.064669 55.397083 174.286262 55.954827 174.286262 
z
" clip-path="url(#p9b2ac20c26)" style="stroke: #000000"/>
    <path d="M 46.171877 162.413727 
C 46.732713 162.413727 47.270654 162.190904 47.667225 161.794333 
C 48.063797 161.397762 48.286619 160.859821 48.286619 160.298984 
C 48.286619 159.738148 48.063797 159.200207 47.667225 158.803635 
C 47.270654 158.407064 46.732713 158.184242 46.171877 158.184242 
C 45.61104 158.184242 45.073099 158.407064 44.676528 158.803635 
C 44.279957 159.200207 44.057134 159.738148 44.057134 160.298984 
C 44.057134 160.859821 44.279957 161.397762 44.676528 161.794333 
C 45.073099 162.190904 45.61104 162.413727 46.171877 162.413727 
z
" clip-path="url(#p9b2ac20c26)" style="stroke: #000000"/>
    <path d="M 40.905781 147.663034 
C 41.610995 147.663034 42.287421 147.38285 42.786083 146.884188 
C 43.284744 146.385526 43.564929 145.709101 43.564929 145.003887 
C 43.564929 144.298672 43.284744 143.622247 42.786083 143.123585 
C 42.287421 142.624923 41.610995 142.344739 40.905781 142.344739 
C 40.200567 142.344739 39.524141 142.624923 39.02548 143.123585 
C 38.526818 143.622247 38.246633 144.298672 38.246633 145.003887 
C 38.246633 145.709101 38.526818 146.385526 39.02548 146.884188 
C 39.524141 147.38285 40.200567 147.663034 40.905781 147.663034 
z
" clip-path="url(#p9b2ac20c26)" style="stroke: #000000"/>
    <path d="M 38.050918 126.721417 
C 38.756132 126.721417 39.432557 126.441233 39.931219 125.942571 
C 40.429881 125.443909 40.710066 124.767483 40.710066 124.062269 
C 40.710066 123.357055 40.429881 122.680629 39.931219 122.181968 
C 39.432557 121.683306 38.756132 121.403121 38.050918 121.403121 
C 37.345703 121.403121 36.669278 121.683306 36.170616 122.181968 
C 35.671954 122.680629 35.39177 123.357055 35.39177 124.062269 
C 35.39177 124.767483 35.671954 125.443909 36.170616 125.942571 
C 36.669278 126.441233 37.345703 126.721417 38.050918 126.721417 
z
" clip-path="url(#p9b2ac20c26)" style="stroke: #000000"/>
    <path d="M 33.70744 114.632941 
C 34.412875 114.632941 35.089512 114.352669 35.588329 113.853852 
C 36.087147 113.355034 36.367419 112.678397 36.367419 111.972963 
C 36.367419 111.267528 36.087147 110.590891 35.588329 110.092074 
C 35.089512 109.593256 34.412875 109.312984 33.70744 109.312984 
C 33.002006 109.312984 32.325369 109.593256 31.826552 110.092074 
C 31.327734 110.590891 31.047462 111.267528 31.047462 111.972963 
C 31.047462 112.678397 31.327734 113.355034 31.826552 113.853852 
C 32.325369 114.352669 33.002006 114.632941 33.70744 114.632941 
z
" clip-path="url(#p9b2ac20c26)" style="stroke: #000000"/>
    <path d="M 45.037966 180.072201 
C 45.743181 180.072201 46.419606 179.792016 46.918268 179.293354 
C 47.41693 178.794692 47.697114 178.118267 47.697114 177.413053 
C 47.697114 176.707838 47.41693 176.031413 46.918268 175.532751 
C 46.419606 175.034089 45.743181 174.753905 45.037966 174.753905 
C 44.332752 174.753905 43.656327 175.034089 43.157665 175.532751 
C 42.659003 176.031413 42.378818 176.707838 42.378818 177.413053 
C 42.378818 178.118267 42.659003 178.794692 43.157665 179.293354 
C 43.656327 179.792016 44.332752 180.072201 45.037966 180.072201 
z
" clip-path="url(#p9b2ac20c26)" style="stroke: #000000"/>
    <path d="M 41.264234 171.310299 
C 41.969449 171.310299 42.645874 171.030115 43.144536 170.531453 
C 43.643198 170.032791 43.923382 169.356366 43.923382 168.651151 
C 43.923382 167.945937 43.643198 167.269511 43.144536 166.77085 
C 42.645874 166.272188 41.969449 165.992003 41.264234 165.992003 
C 40.55902 165.992003 39.882595 166.272188 39.383933 166.77085 
C 38.885271 167.269511 38.605086 167.945937 38.605086 168.651151 
C 38.605086 169.356366 38.885271 170.032791 39.383933 170.531453 
C 39.882595 171.030115 40.55902 171.310299 41.264234 171.310299 
z
" clip-path="url(#p9b2ac20c26)" style="stroke: #000000"/>
    <path d="M 35.895475 157.520363 
C 36.60091 157.520363 37.277547 157.24009 37.776364 156.741273 
C 38.275182 156.242455 38.555454 155.565819 38.555454 154.860384 
C 38.555454 154.15495 38.275182 153.478313 37.776364 152.979495 
C 37.277547 152.480678 36.60091 152.200406 35.895475 152.200406 
C 35.190041 152.200406 34.513404 152.480678 34.014587 152.979495 
C 33.515769 153.478313 33.235497 154.15495 33.235497 154.860384 
C 33.235497 155.565819 33.515769 156.242455 34.014587 156.741273 
C 34.513404 157.24009 35.190041 157.520363 35.895475 157.520363 
z
" clip-path="url(#p9b2ac20c26)" style="stroke: #000000"/>
    <path d="M 32.947391 153.673003 
C 33.508227 153.673003 34.046168 153.45018 34.442739 153.053609 
C 34.839311 152.657038 35.062133 152.119096 35.062133 151.55826 
C 35.062133 150.997424 34.839311 150.459482 34.442739 150.062911 
C 34.046168 149.66634 33.508227 149.443517 32.947391 149.443517 
C 32.386554 149.443517 31.848613 149.66634 31.452042 150.062911 
C 31.055471 150.459482 30.832648 150.997424 30.832648 151.55826 
C 30.832648 152.119096 31.055471 152.657038 31.452042 153.053609 
C 31.848613 153.45018 32.386554 153.673003 32.947391 153.673003 
z
" clip-path="url(#p9b2ac20c26)" style="stroke: #000000"/>
   </g>
   <g id="matplotlib.axis_1">
    <g id="xtick_1">
     <g id="line2d_1">
      <defs>
       <path id="m3d620ff5aa" d="M 0 0 
L 0 3.5 
" style="stroke: #000000; stroke-width: 0.8"/>
      </defs>
      <g>
       <use xlink:href="#m3d620ff5aa" x="18" y="189" style="stroke: #000000; stroke-width: 0.8"/>
      </g>
     </g>
     <g id="text_1">
      <!-- 10 -->
      <g transform="translate(7.447656 203.598437)scale(0.1 -0.1)">
       <defs>
        <path id="DejaVuSans-2212" d="M 678 2272 
L 4684 2272 
L 4684 1741 
L 678 1741 
L 678 2272 
z
" transform="scale(0.015625)"/>
        <path id="DejaVuSans-31" d="M 794 531 
L 1825 531 
L 1825 4091 
L 703 3866 
L 703 4441 
L 1819 4666 
L 2450 4666 
L 2450 531 
L 3481 531 
L 3481 0 
L 794 0 
L 794 531 
z
" transform="scale(0.015625)"/>
        <path id="DejaVuSans-30" d="M 2034 4250 
Q 1547 4250 1301 3770 
Q 1056 3291 1056 2328 
Q 1056 1369 1301 889 
Q 1547 409 2034 409 
Q 2525 409 2770 889 
Q 3016 1369 3016 2328 
Q 3016 3291 2770 3770 
Q 2525 4250 2034 4250 
z
M 2034 4750 
Q 2819 4750 3233 4129 
Q 3647 3509 3647 2328 
Q 3647 1150 3233 529 
Q 2819 -91 2034 -91 
Q 1250 -91 836 529 
Q 422 1150 422 2328 
Q 422 3509 836 4129 
Q 1250 4750 2034 4750 
z
" transform="scale(0.015625)"/>
       </defs>
       <use xlink:href="#DejaVuSans-2212"/>
       <use xlink:href="#DejaVuSans-31" x="83.789062"/>
       <use xlink:href="#DejaVuSans-30" x="147.412109"/>
      </g>
     </g>
    </g>
    <g id="xtick_2">
     <g id="line2d_2">
      <g>
       <use xlink:href="#m3d620ff5aa" x="73.8" y="189" style="stroke: #000000; stroke-width: 0.8"/>
      </g>
     </g>
     <g id="text_2">
      <!-- 0 -->
      <g transform="translate(70.61875 203.598437)scale(0.1 -0.1)">
       <use xlink:href="#DejaVuSans-30"/>
      </g>
     </g>
    </g>
    <g id="xtick_3">
     <g id="line2d_3">
      <g>
       <use xlink:href="#m3d620ff5aa" x="129.6" y="189" style="stroke: #000000; stroke-width: 0.8"/>
      </g>
     </g>
     <g id="text_3">
      <!-- 10 -->
      <g transform="translate(123.2375 203.598437)scale(0.1 -0.1)">
       <use xlink:href="#DejaVuSans-31"/>
       <use xlink:href="#DejaVuSans-30" x="63.623047"/>
      </g>
     </g>
    </g>
   </g>
   <g id="matplotlib.axis_2">
    <g id="ytick_1">
     <g id="line2d_4">
      <defs>
       <path id="m4f3921461b" d="M 0 0 
L -3.5 0 
" style="stroke: #000000; stroke-width: 0.8"/>
      </defs>
      <g>
       <use xlink:href="#m4f3921461b" x="18" y="189" style="stroke: #000000; stroke-width: 0.8"/>
      </g>
     </g>
     <g id="text_4">
      <!-- 15 -->
      <g transform="translate(-10.104688 192.799219)scale(0.1 -0.1)">
       <defs>
        <path id="DejaVuSans-35" d="M 691 4666 
L 3169 4666 
L 3169 4134 
L 1269 4134 
L 1269 2991 
Q 1406 3038 1543 3061 
Q 1681 3084 1819 3084 
Q 2600 3084 3056 2656 
Q 3513 2228 3513 1497 
Q 3513 744 3044 326 
Q 2575 -91 1722 -91 
Q 1428 -91 1123 -41 
Q 819 9 494 109 
L 494 744 
Q 775 591 1075 516 
Q 1375 441 1709 441 
Q 2250 441 2565 725 
Q 2881 1009 2881 1497 
Q 2881 1984 2565 2268 
Q 2250 2553 1709 2553 
Q 1456 2553 1204 2497 
Q 953 2441 691 2322 
L 691 4666 
z
" transform="scale(0.015625)"/>
       </defs>
       <use xlink:href="#DejaVuSans-2212"/>
       <use xlink:href="#DejaVuSans-31" x="83.789062"/>
       <use xlink:href="#DejaVuSans-35" x="147.412109"/>
      </g>
     </g>
    </g>
    <g id="ytick_2">
     <g id="line2d_5">
      <g>
       <use xlink:href="#m4f3921461b" x="18" y="161.82" style="stroke: #000000; stroke-width: 0.8"/>
      </g>
     </g>
     <g id="text_5">
      <!-- 10 -->
      <g transform="translate(-10.104688 165.619219)scale(0.1 -0.1)">
       <use xlink:href="#DejaVuSans-2212"/>
       <use xlink:href="#DejaVuSans-31" x="83.789062"/>
       <use xlink:href="#DejaVuSans-30" x="147.412109"/>
      </g>
     </g>
    </g>
    <g id="ytick_3">
     <g id="line2d_6">
      <g>
       <use xlink:href="#m4f3921461b" x="18" y="134.64" style="stroke: #000000; stroke-width: 0.8"/>
      </g>
     </g>
     <g id="text_6">
      <!-- 5 -->
      <g transform="translate(-3.742188 138.439219)scale(0.1 -0.1)">
       <use xlink:href="#DejaVuSans-2212"/>
       <use xlink:href="#DejaVuSans-35" x="83.789062"/>
      </g>
     </g>
    </g>
    <g id="ytick_4">
     <g id="line2d_7">
      <g>
       <use xlink:href="#m4f3921461b" x="18" y="107.46" style="stroke: #000000; stroke-width: 0.8"/>
      </g>
     </g>
     <g id="text_7">
      <!-- 0 -->
      <g transform="translate(4.6375 111.259219)scale(0.1 -0.1)">
       <use xlink:href="#DejaVuSans-30"/>
      </g>
     </g>
    </g>
    <g id="ytick_5">
     <g id="line2d_8">
      <g>
       <use xlink:href="#m4f3921461b" x="18" y="80.28" style="stroke: #000000; stroke-width: 0.8"/>
      </g>
     </g>
     <g id="text_8">
      <!-- 5 -->
      <g transform="translate(4.6375 84.079219)scale(0.1 -0.1)">
       <use xlink:href="#DejaVuSans-35"/>
      </g>
     </g>
    </g>
    <g id="ytick_6">
     <g id="line2d_9">
      <g>
       <use xlink:href="#m4f3921461b" x="18" y="53.1" style="stroke: #000000; stroke-width: 0.8"/>
      </g>
     </g>
     <g id="text_9">
      <!-- 10 -->
      <g transform="translate(-1.725 56.899219)scale(0.1 -0.1)">
       <use xlink:href="#DejaVuSans-31"/>
       <use xlink:href="#DejaVuSans-30" x="63.623047"/>
      </g>
     </g>
    </g>
    <g id="ytick_7">
     <g id="line2d_10">
      <g>
       <use xlink:href="#m4f3921461b" x="18" y="25.92" style="stroke: #000000; stroke-width: 0.8"/>
      </g>
     </g>
     <g id="text_10">
      <!-- 15 -->
      <g transform="translate(-1.725 29.719219)scale(0.1 -0.1)">
       <use xlink:href="#DejaVuSans-31"/>
       <use xlink:href="#DejaVuSans-35" x="63.623047"/>
      </g>
     </g>
    </g>
   </g>
   <g id="patch_3">
    <path d="M 18 189 
L 18 25.92 
" style="fill: none; stroke: #000000; stroke-width: 0.8; stroke-linejoin: miter; stroke-linecap: square"/>
   </g>
   <g id="patch_4">
    <path d="M 129.6 189 
L 129.6 25.92 
" style="fill: none; stroke: #000000; stroke-width: 0.8; stroke-linejoin: miter; stroke-linecap: square"/>
   </g>
   <g id="patch_5">
    <path d="M 18 189 
L 129.6 189 
" style="fill: none; stroke: #000000; stroke-width: 0.8; stroke-linejoin: miter; stroke-linecap: square"/>
   </g>
   <g id="patch_6">
    <path d="M 18 25.92 
L 129.6 25.92 
" style="fill: none; stroke: #000000; stroke-width: 0.8; stroke-linejoin: miter; stroke-linecap: square"/>
   </g>
  </g>
 </g>
 <defs>
  <clipPath id="p9b2ac20c26">
   <rect x="18" y="25.92" width="111.6" height="163.08"/>
  </clipPath>
 </defs>
</svg>
