<?xml version="1.0" encoding="utf-8" standalone="no"?>
<!DOCTYPE svg PUBLIC "-//W3C//DTD SVG 1.1//EN"
  "http://www.w3.org/Graphics/SVG/1.1/DTD/svg11.dtd">
<svg xmlns:xlink="http://www.w3.org/1999/xlink" width="144pt" height="216pt" viewBox="0 0 144 216" xmlns="http://www.w3.org/2000/svg" version="1.1">
 <metadata>
  <rdf:RDF xmlns:dc="http://purl.org/dc/elements/1.1/" xmlns:cc="http://creativecommons.org/ns#" xmlns:rdf="http://www.w3.org/1999/02/22-rdf-syntax-ns#">
   <cc:Work>
    <dc:type rdf:resource="http://purl.org/dc/dcmitype/StillImage"/>
    <dc:date>2022-06-18T00:14:12.024753</dc:date>
    <dc:format>image/svg+xml</dc:format>
    <dc:creator>
     <cc:Agent>
      <dc:title>Matplotlib v3.5.1, https://matplotlib.org/</dc:title>
     </cc:Agent>
    </dc:creator>
   </cc:Work>
  </rdf:RDF>
 </metadata>
 <defs>
  <style type="text/css">*{stroke-linejoin: round; stroke-linecap: butt}</style>
 </defs>
 <g id="figure_1">
  <g id="patch_1">
   <path d="M 0 216 
L 144 216 
L 144 0 
L 0 0 
L 0 216 
z
" style="fill: none"/>
  </g>
  <g id="axes_1">
   <g id="patch_2">
    <path d="M 18 189 
L 129.6 189 
L 129.6 25.92 
L 18 25.92 
z
" style="fill: #ffffff"/>
   </g>
   <g id="PathCollection_1">
    <defs>
     <path id="m73f7eb8d43" d="M 0 2.738613 
C 0.726289 2.738613 1.422928 2.450055 1.936492 1.936492 
C 2.450055 1.422928 2.738613 0.726289 2.738613 0 
C 2.738613 -0.726289 2.450055 -1.422928 1.936492 -1.936492 
C 1.422928 -2.450055 0.726289 -2.738613 0 -2.738613 
C -0.726289 -2.738613 -1.422928 -2.450055 -1.936492 -1.936492 
C -2.450055 -1.422928 -2.738613 -0.726289 -2.738613 0 
C -2.738613 0.726289 -2.450055 1.422928 -1.936492 1.936492 
C -1.422928 2.450055 -0.726289 2.738613 0 2.738613 
z
" style="stroke: #ff0000; stroke-width: 1.75"/>
    </defs>
    <g clip-path="url(#p65efd0e170)">
     <use xlink:href="#m73f7eb8d43" x="80.775" y="83.92143" style="fill: #ff0000; stroke: #ff0000; stroke-width: 1.75"/>
     <use xlink:href="#m73f7eb8d43" x="59.85" y="95.690715" style="fill: #ff0000; stroke: #ff0000; stroke-width: 1.75"/>
     <use xlink:href="#m73f7eb8d43" x="66.825" y="107.46" style="fill: #ff0000; stroke: #ff0000; stroke-width: 1.75"/>
     <use xlink:href="#m73f7eb8d43" x="80.775" y="107.46" style="fill: #ff0000; stroke: #ff0000; stroke-width: 1.75"/>
     <use xlink:href="#m73f7eb8d43" x="94.725" y="107.46" style="fill: #ff0000; stroke: #ff0000; stroke-width: 1.75"/>
     <use xlink:href="#m73f7eb8d43" x="59.85" y="119.229285" style="fill: #ff0000; stroke: #ff0000; stroke-width: 1.75"/>
     <use xlink:href="#m73f7eb8d43" x="80.775" y="130.99857" style="fill: #ff0000; stroke: #ff0000; stroke-width: 1.75"/>
    </g>
   </g>
   <g id="PathCollection_2">
    <defs>
     <path id="C0_0_8e8004632a" d="M 0 2.738613 
C 0.726289 2.738613 1.422928 2.450055 1.936492 1.936492 
C 2.450055 1.422928 2.738613 0.726289 2.738613 -0 
C 2.738613 -0.726289 2.450055 -1.422928 1.936492 -1.936492 
C 1.422928 -2.450055 0.726289 -2.738613 0 -2.738613 
C -0.726289 -2.738613 -1.422928 -2.450055 -1.936492 -1.936492 
C -2.450055 -1.422928 -2.738613 -0.726289 -2.738613 0 
C -2.738613 0.726289 -2.450055 1.422928 -1.936492 1.936492 
C -1.422928 2.450055 -0.726289 2.738613 0 2.738613 
z
"/>
    </defs>
    <g clip-path="url(#p65efd0e170)">
     <use xlink:href="#C0_0_8e8004632a" x="66.825" y="83.92143" style="fill: none; stroke: #ff0000; stroke-width: 1.75"/>
    </g>
    <g clip-path="url(#p65efd0e170)">
     <use xlink:href="#C0_0_8e8004632a" x="73.8" y="95.690715" style="fill: none; stroke: #ff0000; stroke-width: 1.75"/>
    </g>
    <g clip-path="url(#p65efd0e170)">
     <use xlink:href="#C0_0_8e8004632a" x="87.75" y="95.690715" style="fill: none; stroke: #ff0000; stroke-width: 1.75"/>
    </g>
    <g clip-path="url(#p65efd0e170)">
     <use xlink:href="#C0_0_8e8004632a" x="52.875" y="107.46" style="fill: none; stroke: #ff0000; stroke-width: 1.75"/>
    </g>
    <g clip-path="url(#p65efd0e170)">
     <use xlink:href="#C0_0_8e8004632a" x="73.8" y="119.229285" style="fill: none; stroke: #ff0000; stroke-width: 1.75"/>
    </g>
    <g clip-path="url(#p65efd0e170)">
     <use xlink:href="#C0_0_8e8004632a" x="87.75" y="119.229285" style="fill: none; stroke: #ff0000; stroke-width: 1.75"/>
    </g>
    <g clip-path="url(#p65efd0e170)">
     <use xlink:href="#C0_0_8e8004632a" x="66.825" y="130.99857" style="fill: none; stroke: #ff0000; stroke-width: 1.75"/>
    </g>
   </g>
   <g id="PathCollection_3">
    <path d="M 107.729906 61.312533 
C 107.967169 61.312533 108.194746 61.218267 108.362516 61.050497 
C 108.530286 60.882727 108.624551 60.65515 108.624551 60.417887 
C 108.624551 60.180625 108.530286 59.953048 108.362516 59.785278 
C 108.194746 59.617507 107.967169 59.523242 107.729906 59.523242 
C 107.492643 59.523242 107.265066 59.617507 107.097296 59.785278 
C 106.929526 59.953048 106.835261 60.180625 106.835261 60.417887 
C 106.835261 60.65515 106.929526 60.882727 107.097296 61.050497 
C 107.265066 61.218267 107.492643 61.312533 107.729906 61.312533 
z
" clip-path="url(#p65efd0e170)" style="stroke: #000000"/>
    <path d="M 111.130756 119.969228 
C 111.344491 119.969228 111.5495 119.88431 111.700633 119.733177 
C 111.851766 119.582044 111.936684 119.377035 111.936684 119.163301 
C 111.936684 118.949566 111.851766 118.744557 111.700633 118.593424 
C 111.5495 118.442291 111.344491 118.357373 111.130756 118.357373 
C 110.917022 118.357373 110.712013 118.442291 110.56088 118.593424 
C 110.409747 118.744557 110.324829 118.949566 110.324829 119.163301 
C 110.324829 119.377035 110.409747 119.582044 110.56088 119.733177 
C 110.712013 119.88431 110.917022 119.969228 111.130756 119.969228 
z
" clip-path="url(#p65efd0e170)" style="stroke: #000000"/>
    <path d="M 112.290431 109.709344 
C 112.504166 109.709344 112.709175 109.624426 112.860308 109.473293 
C 113.011441 109.32216 113.096359 109.117151 113.096359 108.903416 
C 113.096359 108.689682 113.011441 108.484673 112.860308 108.33354 
C 112.709175 108.182407 112.504166 108.097489 112.290431 108.097489 
C 112.076697 108.097489 111.871688 108.182407 111.720555 108.33354 
C 111.569422 108.484673 111.484504 108.689682 111.484504 108.903416 
C 111.484504 109.117151 111.569422 109.32216 111.720555 109.473293 
C 111.871688 109.624426 112.076697 109.709344 112.290431 109.709344 
z
" clip-path="url(#p65efd0e170)" style="stroke: #000000"/>
    <path d="M 110.475478 96.498104 
C 110.712741 96.498104 110.940318 96.403839 111.108088 96.236069 
C 111.275858 96.068299 111.370123 95.840722 111.370123 95.603459 
C 111.370123 95.366196 111.275858 95.138619 111.108088 94.970849 
C 110.940318 94.803079 110.712741 94.708813 110.475478 94.708813 
C 110.238215 94.708813 110.010638 94.803079 109.842868 94.970849 
C 109.675098 95.138619 109.580832 95.366196 109.580832 95.603459 
C 109.580832 95.840722 109.675098 96.068299 109.842868 96.236069 
C 110.010638 96.403839 110.238215 96.498104 110.475478 96.498104 
z
" clip-path="url(#p65efd0e170)" style="stroke: #000000"/>
    <path d="M 108.754646 91.075208 
C 108.991909 91.075208 109.219486 90.980942 109.387256 90.813172 
C 109.555026 90.645402 109.649292 90.417825 109.649292 90.180562 
C 109.649292 89.943299 109.555026 89.715722 109.387256 89.547952 
C 109.219486 89.380182 108.991909 89.285917 108.754646 89.285917 
C 108.517384 89.285917 108.289807 89.380182 108.122037 89.547952 
C 107.954267 89.715722 107.860001 89.943299 107.860001 90.180562 
C 107.860001 90.417825 107.954267 90.645402 108.122037 90.813172 
C 108.289807 90.980942 108.517384 91.075208 108.754646 91.075208 
z
" clip-path="url(#p65efd0e170)" style="stroke: #000000"/>
    <path d="M 102.342123 83.929116 
C 102.579386 83.929116 102.806963 83.83485 102.974733 83.66708 
C 103.142503 83.49931 103.236768 83.271733 103.236768 83.03447 
C 103.236768 82.797207 103.142503 82.56963 102.974733 82.40186 
C 102.806963 82.23409 102.579386 82.139825 102.342123 82.139825 
C 102.10486 82.139825 101.877283 82.23409 101.709513 82.40186 
C 101.541743 82.56963 101.447478 82.797207 101.447478 83.03447 
C 101.447478 83.271733 101.541743 83.49931 101.709513 83.66708 
C 101.877283 83.83485 102.10486 83.929116 102.342123 83.929116 
z
" clip-path="url(#p65efd0e170)" style="stroke: #000000"/>
    <path d="M 97.476966 72.043513 
C 97.476966 72.043513 97.476966 72.043513 97.476966 72.043513 
C 97.476966 72.043513 97.476966 72.043513 97.476966 72.043513 
C 97.476966 72.043513 97.476966 72.043513 97.476966 72.043513 
C 97.476966 72.043513 97.476966 72.043513 97.476966 72.043513 
C 97.476966 72.043513 97.476966 72.043513 97.476966 72.043513 
C 97.476966 72.043513 97.476966 72.043513 97.476966 72.043513 
C 97.476966 72.043513 97.476966 72.043513 97.476966 72.043513 
C 97.476966 72.043513 97.476966 72.043513 97.476966 72.043513 
z
" clip-path="url(#p65efd0e170)" style="stroke: #000000"/>
    <path d="M 96.430163 61.616617 
C 96.611533 61.616617 96.785499 61.544558 96.913747 61.41631 
C 97.041995 61.288062 97.114054 61.114096 97.114054 60.932726 
C 97.114054 60.751356 97.041995 60.57739 96.913747 60.449142 
C 96.785499 60.320894 96.611533 60.248835 96.430163 60.248835 
C 96.248793 60.248835 96.074827 60.320894 95.946579 60.449142 
C 95.818331 60.57739 95.746271 60.751356 95.746271 60.932726 
C 95.746271 61.114096 95.818331 61.288062 95.946579 61.41631 
C 96.074827 61.544558 96.248793 61.616617 96.430163 61.616617 
z
" clip-path="url(#p65efd0e170)" style="stroke: #000000"/>
    <path d="M 91.104283 48.085348 
C 91.104283 48.085348 91.104283 48.085348 91.104283 48.085348 
C 91.104283 48.085348 91.104283 48.085348 91.104283 48.085348 
C 91.104283 48.085348 91.104283 48.085348 91.104283 48.085348 
C 91.104283 48.085348 91.104283 48.085348 91.104283 48.085348 
C 91.104283 48.085348 91.104283 48.085348 91.104283 48.085348 
C 91.104283 48.085348 91.104283 48.085348 91.104283 48.085348 
C 91.104283 48.085348 91.104283 48.085348 91.104283 48.085348 
C 91.104283 48.085348 91.104283 48.085348 91.104283 48.085348 
z
" clip-path="url(#p65efd0e170)" style="stroke: #000000"/>
    <path d="M 90.05857 37.01048 
C 90.05857 37.01048 90.05857 37.01048 90.05857 37.01048 
C 90.05857 37.01048 90.05857 37.01048 90.05857 37.01048 
C 90.05857 37.01048 90.05857 37.01048 90.05857 37.01048 
C 90.05857 37.01048 90.05857 37.01048 90.05857 37.01048 
C 90.05857 37.01048 90.05857 37.01048 90.05857 37.01048 
C 90.05857 37.01048 90.05857 37.01048 90.05857 37.01048 
C 90.05857 37.01048 90.05857 37.01048 90.05857 37.01048 
C 90.05857 37.01048 90.05857 37.01048 90.05857 37.01048 
z
" clip-path="url(#p65efd0e170)" style="stroke: #000000"/>
    <path d="M 122.242043 164.738441 
C 122.242043 164.738441 122.242043 164.738441 122.242043 164.738441 
C 122.242043 164.738441 122.242043 164.738441 122.242043 164.738441 
C 122.242043 164.738441 122.242043 164.738441 122.242043 164.738441 
C 122.242043 164.738441 122.242043 164.738441 122.242043 164.738441 
C 122.242043 164.738441 122.242043 164.738441 122.242043 164.738441 
C 122.242043 164.738441 122.242043 164.738441 122.242043 164.738441 
C 122.242043 164.738441 122.242043 164.738441 122.242043 164.738441 
C 122.242043 164.738441 122.242043 164.738441 122.242043 164.738441 
z
" clip-path="url(#p65efd0e170)" style="stroke: #000000"/>
    <path d="M 118.74764 151.985021 
C 118.74764 151.985021 118.74764 151.985021 118.74764 151.985021 
C 118.74764 151.985021 118.74764 151.985021 118.74764 151.985021 
C 118.74764 151.985021 118.74764 151.985021 118.74764 151.985021 
C 118.74764 151.985021 118.74764 151.985021 118.74764 151.985021 
C 118.74764 151.985021 118.74764 151.985021 118.74764 151.985021 
C 118.74764 151.985021 118.74764 151.985021 118.74764 151.985021 
C 118.74764 151.985021 118.74764 151.985021 118.74764 151.985021 
C 118.74764 151.985021 118.74764 151.985021 118.74764 151.985021 
z
" clip-path="url(#p65efd0e170)" style="stroke: #000000"/>
    <path d="M 110.890146 144.79357 
C 111.056883 144.79357 111.216814 144.727325 111.334716 144.609423 
C 111.452617 144.491522 111.518862 144.331591 111.518862 144.164854 
C 111.518862 143.998116 111.452617 143.838185 111.334716 143.720284 
C 111.216814 143.602382 111.056883 143.536137 110.890146 143.536137 
C 110.723408 143.536137 110.563477 143.602382 110.445576 143.720284 
C 110.327674 143.838185 110.261429 143.998116 110.261429 144.164854 
C 110.261429 144.331591 110.327674 144.491522 110.445576 144.609423 
C 110.563477 144.727325 110.723408 144.79357 110.890146 144.79357 
z
" clip-path="url(#p65efd0e170)" style="stroke: #000000"/>
    <path d="M 111.970676 132.43483 
C 112.206478 132.43483 112.432655 132.341144 112.599392 132.174407 
C 112.76613 132.007669 112.859815 131.781492 112.859815 131.54569 
C 112.859815 131.309887 112.76613 131.083711 112.599392 130.916973 
C 112.432655 130.750236 112.206478 130.65655 111.970676 130.65655 
C 111.734873 130.65655 111.508697 130.750236 111.341959 130.916973 
C 111.175221 131.083711 111.081536 131.309887 111.081536 131.54569 
C 111.081536 131.781492 111.175221 132.007669 111.341959 132.174407 
C 111.508697 132.341144 111.734873 132.43483 111.970676 132.43483 
z
" clip-path="url(#p65efd0e170)" style="stroke: #000000"/>
    <path d="M 108.642607 123.436379 
C 108.856342 123.436379 109.061351 123.351461 109.212484 123.200328 
C 109.363617 123.049195 109.448535 122.844186 109.448535 122.630451 
C 109.448535 122.416717 109.363617 122.211707 109.212484 122.060574 
C 109.061351 121.909441 108.856342 121.824524 108.642607 121.824524 
C 108.428873 121.824524 108.223864 121.909441 108.072731 122.060574 
C 107.921598 122.211707 107.83668 122.416717 107.83668 122.630451 
C 107.83668 122.844186 107.921598 123.049195 108.072731 123.200328 
C 108.223864 123.351461 108.428873 123.436379 108.642607 123.436379 
z
" clip-path="url(#p65efd0e170)" style="stroke: #000000"/>
    <path d="M 104.434321 113.589341 
C 104.671584 113.589341 104.899161 113.495075 105.066931 113.327305 
C 105.234701 113.159535 105.328967 112.931958 105.328967 112.694695 
C 105.328967 112.457433 105.234701 112.229856 105.066931 112.062086 
C 104.899161 111.894315 104.671584 111.80005 104.434321 111.80005 
C 104.197058 111.80005 103.969481 111.894315 103.801711 112.062086 
C 103.633941 112.229856 103.539676 112.457433 103.539676 112.694695 
C 103.539676 112.931958 103.633941 113.159535 103.801711 113.327305 
C 103.969481 113.495075 104.197058 113.589341 104.434321 113.589341 
z
" clip-path="url(#p65efd0e170)" style="stroke: #000000"/>
    <path d="M 101.351386 105.007021 
C 101.565121 105.007021 101.77013 104.922104 101.921263 104.77097 
C 102.072396 104.619837 102.157314 104.414828 102.157314 104.201094 
C 102.157314 103.987359 102.072396 103.78235 101.921263 103.631217 
C 101.77013 103.480084 101.565121 103.395166 101.351386 103.395166 
C 101.137652 103.395166 100.932642 103.480084 100.781509 103.631217 
C 100.630376 103.78235 100.545459 103.987359 100.545459 104.201094 
C 100.545459 104.414828 100.630376 104.619837 100.781509 104.77097 
C 100.932642 104.922104 101.137652 105.007021 101.351386 105.007021 
z
" clip-path="url(#p65efd0e170)" style="stroke: #000000"/>
    <path d="M 99.401886 90.995768 
C 99.401886 90.995768 99.401886 90.995768 99.401886 90.995768 
C 99.401886 90.995768 99.401886 90.995768 99.401886 90.995768 
C 99.401886 90.995768 99.401886 90.995768 99.401886 90.995768 
C 99.401886 90.995768 99.401886 90.995768 99.401886 90.995768 
C 99.401886 90.995768 99.401886 90.995768 99.401886 90.995768 
C 99.401886 90.995768 99.401886 90.995768 99.401886 90.995768 
C 99.401886 90.995768 99.401886 90.995768 99.401886 90.995768 
C 99.401886 90.995768 99.401886 90.995768 99.401886 90.995768 
z
" clip-path="url(#p65efd0e170)" style="stroke: #000000"/>
    <path d="M 88.800441 84.732087 
C 89.037704 84.732087 89.265281 84.637821 89.433051 84.470051 
C 89.600821 84.302281 89.695086 84.074704 89.695086 83.837441 
C 89.695086 83.600178 89.600821 83.372601 89.433051 83.204831 
C 89.265281 83.037061 89.037704 82.942796 88.800441 82.942796 
C 88.563178 82.942796 88.335601 83.037061 88.167831 83.204831 
C 88.000061 83.372601 87.905795 83.600178 87.905795 83.837441 
C 87.905795 84.074704 88.000061 84.302281 88.167831 84.470051 
C 88.335601 84.637821 88.563178 84.732087 88.800441 84.732087 
z
" clip-path="url(#p65efd0e170)" style="stroke: #000000"/>
    <path d="M 86.514503 72.605385 
C 86.751766 72.605385 86.979343 72.511119 87.147113 72.343349 
C 87.314883 72.175579 87.409148 71.948002 87.409148 71.710739 
C 87.409148 71.473476 87.314883 71.245899 87.147113 71.078129 
C 86.979343 70.910359 86.751766 70.816094 86.514503 70.816094 
C 86.27724 70.816094 86.049663 70.910359 85.881893 71.078129 
C 85.714123 71.245899 85.619857 71.473476 85.619857 71.710739 
C 85.619857 71.948002 85.714123 72.175579 85.881893 72.343349 
C 86.049663 72.511119 86.27724 72.605385 86.514503 72.605385 
z
" clip-path="url(#p65efd0e170)" style="stroke: #000000"/>
    <path d="M 83.823291 64.332428 
C 84.037026 64.332428 84.242035 64.247511 84.393168 64.096378 
C 84.544301 63.945245 84.629219 63.740235 84.629219 63.526501 
C 84.629219 63.312766 84.544301 63.107757 84.393168 62.956624 
C 84.242035 62.805491 84.037026 62.720573 83.823291 62.720573 
C 83.609557 62.720573 83.404547 62.805491 83.253414 62.956624 
C 83.102281 63.107757 83.017364 63.312766 83.017364 63.526501 
C 83.017364 63.740235 83.102281 63.945245 83.253414 64.096378 
C 83.404547 64.247511 83.609557 64.332428 83.823291 64.332428 
z
" clip-path="url(#p65efd0e170)" style="stroke: #000000"/>
    <path d="M 81.379386 51.558892 
C 81.615188 51.558892 81.841365 51.465206 82.008102 51.298469 
C 82.17484 51.131731 82.268525 50.905555 82.268525 50.669752 
C 82.268525 50.43395 82.17484 50.207773 82.008102 50.041035 
C 81.841365 49.874298 81.615188 49.780612 81.379386 49.780612 
C 81.143583 49.780612 80.917407 49.874298 80.750669 50.041035 
C 80.583931 50.207773 80.490246 50.43395 80.490246 50.669752 
C 80.490246 50.905555 80.583931 51.131731 80.750669 51.298469 
C 80.917407 51.465206 81.143583 51.558892 81.379386 51.558892 
z
" clip-path="url(#p65efd0e170)" style="stroke: #000000"/>
    <path d="M 76.617816 39.91935 
C 76.617816 39.91935 76.617816 39.91935 76.617816 39.91935 
C 76.617816 39.91935 76.617816 39.91935 76.617816 39.91935 
C 76.617816 39.91935 76.617816 39.91935 76.617816 39.91935 
C 76.617816 39.91935 76.617816 39.91935 76.617816 39.91935 
C 76.617816 39.91935 76.617816 39.91935 76.617816 39.91935 
C 76.617816 39.91935 76.617816 39.91935 76.617816 39.91935 
C 76.617816 39.91935 76.617816 39.91935 76.617816 39.91935 
C 76.617816 39.91935 76.617816 39.91935 76.617816 39.91935 
z
" clip-path="url(#p65efd0e170)" style="stroke: #000000"/>
    <path d="M 74.08382 31.956826 
C 74.319623 31.956826 74.545799 31.863141 74.712537 31.696403 
C 74.879275 31.529666 74.97296 31.303489 74.97296 31.067687 
C 74.97296 30.831884 74.879275 30.605708 74.712537 30.43897 
C 74.545799 30.272232 74.319623 30.178547 74.08382 30.178547 
C 73.848018 30.178547 73.621841 30.272232 73.455103 30.43897 
C 73.288366 30.605708 73.19468 30.831884 73.19468 31.067687 
C 73.19468 31.303489 73.288366 31.529666 73.455103 31.696403 
C 73.621841 31.863141 73.848018 31.956826 74.08382 31.956826 
z
" clip-path="url(#p65efd0e170)" style="stroke: #000000"/>
    <path d="M 113.138708 177.186493 
C 113.374511 177.186493 113.600688 177.092807 113.767425 176.92607 
C 113.934163 176.759332 114.027848 176.533156 114.027848 176.297353 
C 114.027848 176.06155 113.934163 175.835374 113.767425 175.668636 
C 113.600688 175.501899 113.374511 175.408213 113.138708 175.408213 
C 112.902906 175.408213 112.676729 175.501899 112.509992 175.668636 
C 112.343254 175.835374 112.249569 176.06155 112.249569 176.297353 
C 112.249569 176.533156 112.343254 176.759332 112.509992 176.92607 
C 112.676729 177.092807 112.902906 177.186493 113.138708 177.186493 
z
" clip-path="url(#p65efd0e170)" style="stroke: #000000"/>
    <path d="M 106.123739 166.293557 
C 106.359541 166.293557 106.585718 166.199872 106.752455 166.033134 
C 106.919193 165.866397 107.012878 165.64022 107.012878 165.404418 
C 107.012878 165.168615 106.919193 164.942439 106.752455 164.775701 
C 106.585718 164.608963 106.359541 164.515278 106.123739 164.515278 
C 105.887936 164.515278 105.66176 164.608963 105.495022 164.775701 
C 105.328284 164.942439 105.234599 165.168615 105.234599 165.404418 
C 105.234599 165.64022 105.328284 165.866397 105.495022 166.033134 
C 105.66176 166.199872 105.887936 166.293557 106.123739 166.293557 
z
" clip-path="url(#p65efd0e170)" style="stroke: #000000"/>
    <path d="M 109.477465 156.839419 
C 109.477465 156.839419 109.477465 156.839419 109.477465 156.839419 
C 109.477465 156.839419 109.477465 156.839419 109.477465 156.839419 
C 109.477465 156.839419 109.477465 156.839419 109.477465 156.839419 
C 109.477465 156.839419 109.477465 156.839419 109.477465 156.839419 
C 109.477465 156.839419 109.477465 156.839419 109.477465 156.839419 
C 109.477465 156.839419 109.477465 156.839419 109.477465 156.839419 
C 109.477465 156.839419 109.477465 156.839419 109.477465 156.839419 
C 109.477465 156.839419 109.477465 156.839419 109.477465 156.839419 
z
" clip-path="url(#p65efd0e170)" style="stroke: #000000"/>
    <path d="M 104.124956 145.04313 
C 104.323242 145.04313 104.513433 144.96435 104.653642 144.824141 
C 104.793851 144.683932 104.872631 144.493741 104.872631 144.295456 
C 104.872631 144.09717 104.793851 143.906979 104.653642 143.76677 
C 104.513433 143.626561 104.323242 143.547781 104.124956 143.547781 
C 103.926671 143.547781 103.73648 143.626561 103.596271 143.76677 
C 103.456062 143.906979 103.377282 144.09717 103.377282 144.295456 
C 103.377282 144.493741 103.456062 144.683932 103.596271 144.824141 
C 103.73648 144.96435 103.926671 145.04313 104.124956 145.04313 
z
" clip-path="url(#p65efd0e170)" style="stroke: #000000"/>
    <path d="M 98.175931 134.9709 
C 98.413194 134.9709 98.640771 134.876635 98.808541 134.708865 
C 98.976311 134.541095 99.070577 134.313518 99.070577 134.076255 
C 99.070577 133.838992 98.976311 133.611415 98.808541 133.443645 
C 98.640771 133.275875 98.413194 133.18161 98.175931 133.18161 
C 97.938669 133.18161 97.711092 133.275875 97.543321 133.443645 
C 97.375551 133.611415 97.281286 133.838992 97.281286 134.076255 
C 97.281286 134.313518 97.375551 134.541095 97.543321 134.708865 
C 97.711092 134.876635 97.938669 134.9709 98.175931 134.9709 
z
" clip-path="url(#p65efd0e170)" style="stroke: #000000"/>
    <path d="M 91.963777 129.080569 
C 92.20104 129.080569 92.428617 128.986303 92.596387 128.818533 
C 92.764157 128.650763 92.858423 128.423186 92.858423 128.185923 
C 92.858423 127.94866 92.764157 127.721083 92.596387 127.553313 
C 92.428617 127.385543 92.20104 127.291278 91.963777 127.291278 
C 91.726515 127.291278 91.498938 127.385543 91.331168 127.553313 
C 91.163397 127.721083 91.069132 127.94866 91.069132 128.185923 
C 91.069132 128.423186 91.163397 128.650763 91.331168 128.818533 
C 91.498938 128.986303 91.726515 129.080569 91.963777 129.080569 
z
" clip-path="url(#p65efd0e170)" style="stroke: #000000"/>
    <path d="M 98.921475 119.334528 
C 99.158738 119.334528 99.386315 119.240263 99.554085 119.072493 
C 99.721855 118.904723 99.81612 118.677146 99.81612 118.439883 
C 99.81612 118.20262 99.721855 117.975043 99.554085 117.807273 
C 99.386315 117.639503 99.158738 117.545237 98.921475 117.545237 
C 98.684212 117.545237 98.456635 117.639503 98.288865 117.807273 
C 98.121095 117.975043 98.026829 118.20262 98.026829 118.439883 
C 98.026829 118.677146 98.121095 118.904723 98.288865 119.072493 
C 98.456635 119.240263 98.684212 119.334528 98.921475 119.334528 
z
" clip-path="url(#p65efd0e170)" style="stroke: #000000"/>
    <path d="M 89.523828 108.983948 
C 89.75963 108.983948 89.985807 108.890263 90.152545 108.723525 
C 90.319282 108.556787 90.412968 108.330611 90.412968 108.094808 
C 90.412968 107.859006 90.319282 107.632829 90.152545 107.466092 
C 89.985807 107.299354 89.75963 107.205669 89.523828 107.205669 
C 89.288025 107.205669 89.061849 107.299354 88.895111 107.466092 
C 88.728373 107.632829 88.634688 107.859006 88.634688 108.094808 
C 88.634688 108.330611 88.728373 108.556787 88.895111 108.723525 
C 89.061849 108.890263 89.288025 108.983948 89.523828 108.983948 
z
" clip-path="url(#p65efd0e170)" style="stroke: #000000"/>
    <path d="M 86.171418 95.894297 
C 86.450956 95.894297 86.719082 95.783236 86.916745 95.585573 
C 87.114408 95.38791 87.22547 95.119783 87.22547 94.840246 
C 87.22547 94.560708 87.114408 94.292582 86.916745 94.094919 
C 86.719082 93.897256 86.450956 93.786194 86.171418 93.786194 
C 85.891881 93.786194 85.623755 93.897256 85.426092 94.094919 
C 85.228429 94.292582 85.117367 94.560708 85.117367 94.840246 
C 85.117367 95.119783 85.228429 95.38791 85.426092 95.585573 
C 85.623755 95.783236 85.891881 95.894297 86.171418 95.894297 
z
" clip-path="url(#p65efd0e170)" style="stroke: #000000"/>
    <path d="M 81.005142 84.706822 
C 81.240944 84.706822 81.467121 84.613136 81.633858 84.446399 
C 81.800596 84.279661 81.894281 84.053485 81.894281 83.817682 
C 81.894281 83.581879 81.800596 83.355703 81.633858 83.188965 
C 81.467121 83.022228 81.240944 82.928542 81.005142 82.928542 
C 80.769339 82.928542 80.543162 83.022228 80.376425 83.188965 
C 80.209687 83.355703 80.116002 83.581879 80.116002 83.817682 
C 80.116002 84.053485 80.209687 84.279661 80.376425 84.446399 
C 80.543162 84.613136 80.769339 84.706822 81.005142 84.706822 
z
" clip-path="url(#p65efd0e170)" style="stroke: #000000"/>
    <path d="M 77.143467 73.213005 
C 77.38073 73.213005 77.608307 73.11874 77.776077 72.95097 
C 77.943847 72.7832 78.038113 72.555623 78.038113 72.31836 
C 78.038113 72.081097 77.943847 71.85352 77.776077 71.68575 
C 77.608307 71.51798 77.38073 71.423714 77.143467 71.423714 
C 76.906205 71.423714 76.678628 71.51798 76.510857 71.68575 
C 76.343087 71.85352 76.248822 72.081097 76.248822 72.31836 
C 76.248822 72.555623 76.343087 72.7832 76.510857 72.95097 
C 76.678628 73.11874 76.906205 73.213005 77.143467 73.213005 
z
" clip-path="url(#p65efd0e170)" style="stroke: #000000"/>
    <path d="M 78.576842 68.202287 
C 78.814105 68.202287 79.041682 68.108022 79.209452 67.940252 
C 79.377222 67.772481 79.471488 67.544904 79.471488 67.307642 
C 79.471488 67.070379 79.377222 66.842802 79.209452 66.675032 
C 79.041682 66.507262 78.814105 66.412996 78.576842 66.412996 
C 78.339579 66.412996 78.112002 66.507262 77.944232 66.675032 
C 77.776462 66.842802 77.682197 67.070379 77.682197 67.307642 
C 77.682197 67.544904 77.776462 67.772481 77.944232 67.940252 
C 78.112002 68.108022 78.339579 68.202287 78.576842 68.202287 
z
" clip-path="url(#p65efd0e170)" style="stroke: #000000"/>
    <path d="M 71.416707 55.954548 
C 71.416707 55.954548 71.416707 55.954548 71.416707 55.954548 
C 71.416707 55.954548 71.416707 55.954548 71.416707 55.954548 
C 71.416707 55.954548 71.416707 55.954548 71.416707 55.954548 
C 71.416707 55.954548 71.416707 55.954548 71.416707 55.954548 
C 71.416707 55.954548 71.416707 55.954548 71.416707 55.954548 
C 71.416707 55.954548 71.416707 55.954548 71.416707 55.954548 
C 71.416707 55.954548 71.416707 55.954548 71.416707 55.954548 
C 71.416707 55.954548 71.416707 55.954548 71.416707 55.954548 
z
" clip-path="url(#p65efd0e170)" style="stroke: #000000"/>
    <path d="M 66.316006 46.315523 
C 66.551809 46.315523 66.777985 46.221837 66.944723 46.0551 
C 67.111461 45.888362 67.205146 45.662186 67.205146 45.426383 
C 67.205146 45.19058 67.111461 44.964404 66.944723 44.797666 
C 66.777985 44.630929 66.551809 44.537243 66.316006 44.537243 
C 66.080204 44.537243 65.854027 44.630929 65.68729 44.797666 
C 65.520552 44.964404 65.426867 45.19058 65.426867 45.426383 
C 65.426867 45.662186 65.520552 45.888362 65.68729 46.0551 
C 65.854027 46.221837 66.080204 46.315523 66.316006 46.315523 
z
" clip-path="url(#p65efd0e170)" style="stroke: #000000"/>
    <path d="M 63.875525 31.699957 
C 63.875525 31.699957 63.875525 31.699957 63.875525 31.699957 
C 63.875525 31.699957 63.875525 31.699957 63.875525 31.699957 
C 63.875525 31.699957 63.875525 31.699957 63.875525 31.699957 
C 63.875525 31.699957 63.875525 31.699957 63.875525 31.699957 
C 63.875525 31.699957 63.875525 31.699957 63.875525 31.699957 
C 63.875525 31.699957 63.875525 31.699957 63.875525 31.699957 
C 63.875525 31.699957 63.875525 31.699957 63.875525 31.699957 
C 63.875525 31.699957 63.875525 31.699957 63.875525 31.699957 
z
" clip-path="url(#p65efd0e170)" style="stroke: #000000"/>
    <path d="M 59.778216 27.452819 
C 59.778216 27.452819 59.778216 27.452819 59.778216 27.452819 
C 59.778216 27.452819 59.778216 27.452819 59.778216 27.452819 
C 59.778216 27.452819 59.778216 27.452819 59.778216 27.452819 
C 59.778216 27.452819 59.778216 27.452819 59.778216 27.452819 
C 59.778216 27.452819 59.778216 27.452819 59.778216 27.452819 
C 59.778216 27.452819 59.778216 27.452819 59.778216 27.452819 
C 59.778216 27.452819 59.778216 27.452819 59.778216 27.452819 
C 59.778216 27.452819 59.778216 27.452819 59.778216 27.452819 
z
" clip-path="url(#p65efd0e170)" style="stroke: #000000"/>
    <path d="M 104.662605 180.242364 
C 104.662605 180.242364 104.662605 180.242364 104.662605 180.242364 
C 104.662605 180.242364 104.662605 180.242364 104.662605 180.242364 
C 104.662605 180.242364 104.662605 180.242364 104.662605 180.242364 
C 104.662605 180.242364 104.662605 180.242364 104.662605 180.242364 
C 104.662605 180.242364 104.662605 180.242364 104.662605 180.242364 
C 104.662605 180.242364 104.662605 180.242364 104.662605 180.242364 
C 104.662605 180.242364 104.662605 180.242364 104.662605 180.242364 
C 104.662605 180.242364 104.662605 180.242364 104.662605 180.242364 
z
" clip-path="url(#p65efd0e170)" style="stroke: #000000"/>
    <path d="M 98.82446 171.525214 
C 99.060263 171.525214 99.286439 171.431528 99.453177 171.264791 
C 99.619914 171.098053 99.7136 170.871877 99.7136 170.636074 
C 99.7136 170.400272 99.619914 170.174095 99.453177 170.007357 
C 99.286439 169.84062 99.060263 169.746934 98.82446 169.746934 
C 98.588658 169.746934 98.362481 169.84062 98.195743 170.007357 
C 98.029006 170.174095 97.93532 170.400272 97.93532 170.636074 
C 97.93532 170.871877 98.029006 171.098053 98.195743 171.264791 
C 98.362481 171.431528 98.588658 171.525214 98.82446 171.525214 
z
" clip-path="url(#p65efd0e170)" style="stroke: #000000"/>
    <path d="M 94.74624 159.869115 
C 94.74624 159.869115 94.74624 159.869115 94.74624 159.869115 
C 94.74624 159.869115 94.74624 159.869115 94.74624 159.869115 
C 94.74624 159.869115 94.74624 159.869115 94.74624 159.869115 
C 94.74624 159.869115 94.74624 159.869115 94.74624 159.869115 
C 94.74624 159.869115 94.74624 159.869115 94.74624 159.869115 
C 94.74624 159.869115 94.74624 159.869115 94.74624 159.869115 
C 94.74624 159.869115 94.74624 159.869115 94.74624 159.869115 
C 94.74624 159.869115 94.74624 159.869115 94.74624 159.869115 
z
" clip-path="url(#p65efd0e170)" style="stroke: #000000"/>
    <path d="M 92.09779 147.030136 
C 92.09779 147.030136 92.09779 147.030136 92.09779 147.030136 
C 92.09779 147.030136 92.09779 147.030136 92.09779 147.030136 
C 92.09779 147.030136 92.09779 147.030136 92.09779 147.030136 
C 92.09779 147.030136 92.09779 147.030136 92.09779 147.030136 
C 92.09779 147.030136 92.09779 147.030136 92.09779 147.030136 
C 92.09779 147.030136 92.09779 147.030136 92.09779 147.030136 
C 92.09779 147.030136 92.09779 147.030136 92.09779 147.030136 
C 92.09779 147.030136 92.09779 147.030136 92.09779 147.030136 
z
" clip-path="url(#p65efd0e170)" style="stroke: #000000"/>
    <path d="M 90.733208 140.479905 
C 90.97047 140.479905 91.198047 140.38564 91.365818 140.21787 
C 91.533588 140.0501 91.627853 139.822522 91.627853 139.58526 
C 91.627853 139.347997 91.533588 139.12042 91.365818 138.95265 
C 91.198047 138.78488 90.97047 138.690614 90.733208 138.690614 
C 90.495945 138.690614 90.268368 138.78488 90.100598 138.95265 
C 89.932828 139.12042 89.838562 139.347997 89.838562 139.58526 
C 89.838562 139.822522 89.932828 140.0501 90.100598 140.21787 
C 90.268368 140.38564 90.495945 140.479905 90.733208 140.479905 
z
" clip-path="url(#p65efd0e170)" style="stroke: #000000"/>
    <path d="M 89.727218 131.740679 
C 89.964481 131.740679 90.192058 131.646413 90.359828 131.478643 
C 90.527598 131.310873 90.621864 131.083296 90.621864 130.846033 
C 90.621864 130.608771 90.527598 130.381194 90.359828 130.213423 
C 90.192058 130.045653 89.964481 129.951388 89.727218 129.951388 
C 89.489956 129.951388 89.262379 130.045653 89.094608 130.213423 
C 88.926838 130.381194 88.832573 130.608771 88.832573 130.846033 
C 88.832573 131.083296 88.926838 131.310873 89.094608 131.478643 
C 89.262379 131.646413 89.489956 131.740679 89.727218 131.740679 
z
" clip-path="url(#p65efd0e170)" style="stroke: #000000"/>
    <path d="M 82.967968 120.52152 
C 83.1755 120.52152 83.374561 120.439067 83.521309 120.292319 
C 83.668056 120.145571 83.75051 119.946511 83.75051 119.738978 
C 83.75051 119.531445 83.668056 119.332385 83.521309 119.185637 
C 83.374561 119.038889 83.1755 118.956436 82.967968 118.956436 
C 82.760435 118.956436 82.561374 119.038889 82.414627 119.185637 
C 82.267879 119.332385 82.185425 119.531445 82.185425 119.738978 
C 82.185425 119.946511 82.267879 120.145571 82.414627 120.292319 
C 82.561374 120.439067 82.760435 120.52152 82.967968 120.52152 
z
" clip-path="url(#p65efd0e170)" style="stroke: #000000"/>
    <path d="M 74.475156 110.887299 
C 74.712419 110.887299 74.939996 110.793033 75.107766 110.625263 
C 75.275536 110.457493 75.369802 110.229916 75.369802 109.992653 
C 75.369802 109.755391 75.275536 109.527814 75.107766 109.360044 
C 74.939996 109.192273 74.712419 109.098008 74.475156 109.098008 
C 74.237893 109.098008 74.010316 109.192273 73.842546 109.360044 
C 73.674776 109.527814 73.580511 109.755391 73.580511 109.992653 
C 73.580511 110.229916 73.674776 110.457493 73.842546 110.625263 
C 74.010316 110.793033 74.237893 110.887299 74.475156 110.887299 
z
" clip-path="url(#p65efd0e170)" style="stroke: #000000"/>
    <path d="M 75.923134 99.029591 
C 76.160397 99.029591 76.387974 98.935325 76.555744 98.767555 
C 76.723514 98.599785 76.81778 98.372208 76.81778 98.134945 
C 76.81778 97.897683 76.723514 97.670106 76.555744 97.502336 
C 76.387974 97.334565 76.160397 97.2403 75.923134 97.2403 
C 75.685872 97.2403 75.458295 97.334565 75.290525 97.502336 
C 75.122754 97.670106 75.028489 97.897683 75.028489 98.134945 
C 75.028489 98.372208 75.122754 98.599785 75.290525 98.767555 
C 75.458295 98.935325 75.685872 99.029591 75.923134 99.029591 
z
" clip-path="url(#p65efd0e170)" style="stroke: #000000"/>
    <path d="M 71.72762 87.18307 
C 71.963422 87.18307 72.189599 87.089385 72.356336 86.922647 
C 72.523074 86.755909 72.616759 86.529733 72.616759 86.29393 
C 72.616759 86.058128 72.523074 85.831951 72.356336 85.665214 
C 72.189599 85.498476 71.963422 85.404791 71.72762 85.404791 
C 71.491817 85.404791 71.265641 85.498476 71.098903 85.665214 
C 70.932165 85.831951 70.83848 86.058128 70.83848 86.29393 
C 70.83848 86.529733 70.932165 86.755909 71.098903 86.922647 
C 71.265641 87.089385 71.491817 87.18307 71.72762 87.18307 
z
" clip-path="url(#p65efd0e170)" style="stroke: #000000"/>
    <path d="M 67.151359 78.464863 
C 67.388622 78.464863 67.616199 78.370598 67.783969 78.202828 
C 67.951739 78.035057 68.046005 77.80748 68.046005 77.570218 
C 68.046005 77.332955 67.951739 77.105378 67.783969 76.937608 
C 67.616199 76.769838 67.388622 76.675572 67.151359 76.675572 
C 66.914096 76.675572 66.686519 76.769838 66.518749 76.937608 
C 66.350979 77.105378 66.256714 77.332955 66.256714 77.570218 
C 66.256714 77.80748 66.350979 78.035057 66.518749 78.202828 
C 66.686519 78.370598 66.914096 78.464863 67.151359 78.464863 
z
" clip-path="url(#p65efd0e170)" style="stroke: #000000"/>
    <path d="M 63.132605 71.078093 
C 63.369868 71.078093 63.597445 70.983827 63.765215 70.816057 
C 63.932985 70.648287 64.02725 70.42071 64.02725 70.183447 
C 64.02725 69.946184 63.932985 69.718607 63.765215 69.550837 
C 63.597445 69.383067 63.369868 69.288802 63.132605 69.288802 
C 62.895342 69.288802 62.667765 69.383067 62.499995 69.550837 
C 62.332225 69.718607 62.237959 69.946184 62.237959 70.183447 
C 62.237959 70.42071 62.332225 70.648287 62.499995 70.816057 
C 62.667765 70.983827 62.895342 71.078093 63.132605 71.078093 
z
" clip-path="url(#p65efd0e170)" style="stroke: #000000"/>
    <path d="M 56.892495 62.456417 
C 57.128298 62.456417 57.354474 62.362731 57.521212 62.195994 
C 57.687949 62.029256 57.781635 61.803079 57.781635 61.567277 
C 57.781635 61.331474 57.687949 61.105298 57.521212 60.93856 
C 57.354474 60.771823 57.128298 60.678137 56.892495 60.678137 
C 56.656692 60.678137 56.430516 60.771823 56.263778 60.93856 
C 56.097041 61.105298 56.003355 61.331474 56.003355 61.567277 
C 56.003355 61.803079 56.097041 62.029256 56.263778 62.195994 
C 56.430516 62.362731 56.656692 62.456417 56.892495 62.456417 
z
" clip-path="url(#p65efd0e170)" style="stroke: #000000"/>
    <path d="M 54.040646 47.711476 
C 54.134409 47.711476 54.224345 47.674223 54.290646 47.607923 
C 54.356947 47.541622 54.394199 47.451686 54.394199 47.357923 
C 54.394199 47.264159 54.356947 47.174223 54.290646 47.107923 
C 54.224345 47.041622 54.134409 47.004369 54.040646 47.004369 
C 53.946883 47.004369 53.856947 47.041622 53.790646 47.107923 
C 53.724345 47.174223 53.687093 47.264159 53.687093 47.357923 
C 53.687093 47.451686 53.724345 47.541622 53.790646 47.607923 
C 53.856947 47.674223 53.946883 47.711476 54.040646 47.711476 
z
" clip-path="url(#p65efd0e170)" style="stroke: #000000"/>
    <path d="M 51.266366 40.277156 
C 51.502169 40.277156 51.728345 40.183471 51.895083 40.016733 
C 52.061821 39.849995 52.155506 39.623819 52.155506 39.388016 
C 52.155506 39.152214 52.061821 38.926037 51.895083 38.7593 
C 51.728345 38.592562 51.502169 38.498877 51.266366 38.498877 
C 51.030564 38.498877 50.804387 38.592562 50.637649 38.7593 
C 50.470912 38.926037 50.377227 39.152214 50.377227 39.388016 
C 50.377227 39.623819 50.470912 39.849995 50.637649 40.016733 
C 50.804387 40.183471 51.030564 40.277156 51.266366 40.277156 
z
" clip-path="url(#p65efd0e170)" style="stroke: #000000"/>
    <path d="M 92.285527 174.495264 
C 92.52279 174.495264 92.750367 174.400999 92.918137 174.233229 
C 93.085907 174.065459 93.180173 173.837882 93.180173 173.600619 
C 93.180173 173.363356 93.085907 173.135779 92.918137 172.968009 
C 92.750367 172.800239 92.52279 172.705973 92.285527 172.705973 
C 92.048265 172.705973 91.820688 172.800239 91.652918 172.968009 
C 91.485147 173.135779 91.390882 173.363356 91.390882 173.600619 
C 91.390882 173.837882 91.485147 174.065459 91.652918 174.233229 
C 91.820688 174.400999 92.048265 174.495264 92.285527 174.495264 
z
" clip-path="url(#p65efd0e170)" style="stroke: #000000"/>
    <path d="M 78.959456 163.810623 
C 79.082855 163.810623 79.201218 163.761595 79.288474 163.674339 
C 79.375731 163.587082 79.424758 163.46872 79.424758 163.34532 
C 79.424758 163.22192 79.375731 163.103558 79.288474 163.016302 
C 79.201218 162.929045 79.082855 162.880018 78.959456 162.880018 
C 78.836056 162.880018 78.717694 162.929045 78.630437 163.016302 
C 78.543181 163.103558 78.494153 163.22192 78.494153 163.34532 
C 78.494153 163.46872 78.543181 163.587082 78.630437 163.674339 
C 78.717694 163.761595 78.836056 163.810623 78.959456 163.810623 
z
" clip-path="url(#p65efd0e170)" style="stroke: #000000"/>
    <path d="M 79.674265 150.333613 
C 79.888 150.333613 80.093009 150.248695 80.244142 150.097562 
C 80.395275 149.946429 80.480193 149.74142 80.480193 149.527686 
C 80.480193 149.313951 80.395275 149.108942 80.244142 148.957809 
C 80.093009 148.806676 79.888 148.721758 79.674265 148.721758 
C 79.460531 148.721758 79.255522 148.806676 79.104389 148.957809 
C 78.953256 149.108942 78.868338 149.313951 78.868338 149.527686 
C 78.868338 149.74142 78.953256 149.946429 79.104389 150.097562 
C 79.255522 150.248695 79.460531 150.333613 79.674265 150.333613 
z
" clip-path="url(#p65efd0e170)" style="stroke: #000000"/>
    <path d="M 79.378184 149.529678 
C 79.591918 149.529678 79.796928 149.44476 79.948061 149.293627 
C 80.099194 149.142494 80.184111 148.937485 80.184111 148.72375 
C 80.184111 148.510016 80.099194 148.305007 79.948061 148.153874 
C 79.796928 148.002741 79.591918 147.917823 79.378184 147.917823 
C 79.164449 147.917823 78.95944 148.002741 78.808307 148.153874 
C 78.657174 148.305007 78.572256 148.510016 78.572256 148.72375 
C 78.572256 148.937485 78.657174 149.142494 78.808307 149.293627 
C 78.95944 149.44476 79.164449 149.529678 79.378184 149.529678 
z
" clip-path="url(#p65efd0e170)" style="stroke: #000000"/>
    <path d="M 75.400941 133.636219 
C 75.638204 133.636219 75.865781 133.541954 76.033551 133.374184 
C 76.201321 133.206414 76.295587 132.978837 76.295587 132.741574 
C 76.295587 132.504311 76.201321 132.276734 76.033551 132.108964 
C 75.865781 131.941194 75.638204 131.846928 75.400941 131.846928 
C 75.163679 131.846928 74.936102 131.941194 74.768332 132.108964 
C 74.600561 132.276734 74.506296 132.504311 74.506296 132.741574 
C 74.506296 132.978837 74.600561 133.206414 74.768332 133.374184 
C 74.936102 133.541954 75.163679 133.636219 75.400941 133.636219 
z
" clip-path="url(#p65efd0e170)" style="stroke: #000000"/>
    <path d="M 70.443227 127.377086 
C 70.641513 127.377086 70.831704 127.298306 70.971913 127.158097 
C 71.112122 127.017888 71.190902 126.827697 71.190902 126.629411 
C 71.190902 126.431126 71.112122 126.240935 70.971913 126.100726 
C 70.831704 125.960517 70.641513 125.881737 70.443227 125.881737 
C 70.244942 125.881737 70.054751 125.960517 69.914542 126.100726 
C 69.774333 126.240935 69.695553 126.431126 69.695553 126.629411 
C 69.695553 126.827697 69.774333 127.017888 69.914542 127.158097 
C 70.054751 127.298306 70.244942 127.377086 70.443227 127.377086 
z
" clip-path="url(#p65efd0e170)" style="stroke: #000000"/>
    <path d="M 70.43737 113.435025 
C 70.644903 113.435025 70.843963 113.352572 70.990711 113.205824 
C 71.137459 113.059076 71.219912 112.860016 71.219912 112.652483 
C 71.219912 112.444951 71.137459 112.24589 70.990711 112.099142 
C 70.843963 111.952395 70.644903 111.869941 70.43737 111.869941 
C 70.229837 111.869941 70.030777 111.952395 69.884029 112.099142 
C 69.737281 112.24589 69.654828 112.444951 69.654828 112.652483 
C 69.654828 112.860016 69.737281 113.059076 69.884029 113.205824 
C 70.030777 113.352572 70.229837 113.435025 70.43737 113.435025 
z
" clip-path="url(#p65efd0e170)" style="stroke: #000000"/>
    <path d="M 62.71559 103.009878 
C 62.951392 103.009878 63.177569 102.916192 63.344306 102.749455 
C 63.511044 102.582717 63.604729 102.356541 63.604729 102.120738 
C 63.604729 101.884935 63.511044 101.658759 63.344306 101.492021 
C 63.177569 101.325284 62.951392 101.231598 62.71559 101.231598 
C 62.479787 101.231598 62.25361 101.325284 62.086873 101.492021 
C 61.920135 101.658759 61.82645 101.884935 61.82645 102.120738 
C 61.82645 102.356541 61.920135 102.582717 62.086873 102.749455 
C 62.25361 102.916192 62.479787 103.009878 62.71559 103.009878 
z
" clip-path="url(#p65efd0e170)" style="stroke: #000000"/>
    <path d="M 61.802702 95.013273 
C 62.039965 95.013273 62.267542 94.919008 62.435312 94.751238 
C 62.603082 94.583468 62.697348 94.355891 62.697348 94.118628 
C 62.697348 93.881365 62.603082 93.653788 62.435312 93.486018 
C 62.267542 93.318248 62.039965 93.223982 61.802702 93.223982 
C 61.565439 93.223982 61.337862 93.318248 61.170092 93.486018 
C 61.002322 93.653788 60.908057 93.881365 60.908057 94.118628 
C 60.908057 94.355891 61.002322 94.583468 61.170092 94.751238 
C 61.337862 94.919008 61.565439 95.013273 61.802702 95.013273 
z
" clip-path="url(#p65efd0e170)" style="stroke: #000000"/>
    <path d="M 54.797796 79.445034 
C 55.011531 79.445034 55.21654 79.360116 55.367673 79.208983 
C 55.518806 79.05785 55.603724 78.852841 55.603724 78.639106 
C 55.603724 78.425372 55.518806 78.220363 55.367673 78.06923 
C 55.21654 77.918097 55.011531 77.833179 54.797796 77.833179 
C 54.584062 77.833179 54.379053 77.918097 54.22792 78.06923 
C 54.076786 78.220363 53.991869 78.425372 53.991869 78.639106 
C 53.991869 78.852841 54.076786 79.05785 54.22792 79.208983 
C 54.379053 79.360116 54.584062 79.445034 54.797796 79.445034 
z
" clip-path="url(#p65efd0e170)" style="stroke: #000000"/>
    <path d="M 51.332836 76.270458 
C 51.568639 76.270458 51.794815 76.176773 51.961553 76.010035 
C 52.128291 75.843298 52.221976 75.617121 52.221976 75.381318 
C 52.221976 75.145516 52.128291 74.919339 51.961553 74.752602 
C 51.794815 74.585864 51.568639 74.492179 51.332836 74.492179 
C 51.097034 74.492179 50.870857 74.585864 50.70412 74.752602 
C 50.537382 74.919339 50.443697 75.145516 50.443697 75.381318 
C 50.443697 75.617121 50.537382 75.843298 50.70412 76.010035 
C 50.870857 76.176773 51.097034 76.270458 51.332836 76.270458 
z
" clip-path="url(#p65efd0e170)" style="stroke: #000000"/>
    <path d="M 52.722159 61.327985 
C 52.957962 61.327985 53.184138 61.234299 53.350876 61.067562 
C 53.517614 60.900824 53.611299 60.674647 53.611299 60.438845 
C 53.611299 60.203042 53.517614 59.976866 53.350876 59.810128 
C 53.184138 59.643391 52.957962 59.549705 52.722159 59.549705 
C 52.486357 59.549705 52.26018 59.643391 52.093443 59.810128 
C 51.926705 59.976866 51.83302 60.203042 51.83302 60.438845 
C 51.83302 60.674647 51.926705 60.900824 52.093443 61.067562 
C 52.26018 61.234299 52.486357 61.327985 52.722159 61.327985 
z
" clip-path="url(#p65efd0e170)" style="stroke: #000000"/>
    <path d="M 49.013264 51.823941 
C 49.013264 51.823941 49.013264 51.823941 49.013264 51.823941 
C 49.013264 51.823941 49.013264 51.823941 49.013264 51.823941 
C 49.013264 51.823941 49.013264 51.823941 49.013264 51.823941 
C 49.013264 51.823941 49.013264 51.823941 49.013264 51.823941 
C 49.013264 51.823941 49.013264 51.823941 49.013264 51.823941 
C 49.013264 51.823941 49.013264 51.823941 49.013264 51.823941 
C 49.013264 51.823941 49.013264 51.823941 49.013264 51.823941 
C 49.013264 51.823941 49.013264 51.823941 49.013264 51.823941 
z
" clip-path="url(#p65efd0e170)" style="stroke: #000000"/>
    <path d="M 78.600291 179.39928 
C 78.600291 179.39928 78.600291 179.39928 78.600291 179.39928 
C 78.600291 179.39928 78.600291 179.39928 78.600291 179.39928 
C 78.600291 179.39928 78.600291 179.39928 78.600291 179.39928 
C 78.600291 179.39928 78.600291 179.39928 78.600291 179.39928 
C 78.600291 179.39928 78.600291 179.39928 78.600291 179.39928 
C 78.600291 179.39928 78.600291 179.39928 78.600291 179.39928 
C 78.600291 179.39928 78.600291 179.39928 78.600291 179.39928 
C 78.600291 179.39928 78.600291 179.39928 78.600291 179.39928 
z
" clip-path="url(#p65efd0e170)" style="stroke: #000000"/>
    <path d="M 80.534923 172.67413 
C 80.628687 172.67413 80.718623 172.636877 80.784923 172.570576 
C 80.851224 172.504276 80.888477 172.41434 80.888477 172.320576 
C 80.888477 172.226813 80.851224 172.136877 80.784923 172.070576 
C 80.718623 172.004276 80.628687 171.967023 80.534923 171.967023 
C 80.44116 171.967023 80.351224 172.004276 80.284923 172.070576 
C 80.218623 172.136877 80.18137 172.226813 80.18137 172.320576 
C 80.18137 172.41434 80.218623 172.504276 80.284923 172.570576 
C 80.351224 172.636877 80.44116 172.67413 80.534923 172.67413 
z
" clip-path="url(#p65efd0e170)" style="stroke: #000000"/>
    <path d="M 70.08217 158.038691 
C 70.08217 158.038691 70.08217 158.038691 70.08217 158.038691 
C 70.08217 158.038691 70.08217 158.038691 70.08217 158.038691 
C 70.08217 158.038691 70.08217 158.038691 70.08217 158.038691 
C 70.08217 158.038691 70.08217 158.038691 70.08217 158.038691 
C 70.08217 158.038691 70.08217 158.038691 70.08217 158.038691 
C 70.08217 158.038691 70.08217 158.038691 70.08217 158.038691 
C 70.08217 158.038691 70.08217 158.038691 70.08217 158.038691 
C 70.08217 158.038691 70.08217 158.038691 70.08217 158.038691 
z
" clip-path="url(#p65efd0e170)" style="stroke: #000000"/>
    <path d="M 66.427518 146.116809 
C 66.427518 146.116809 66.427518 146.116809 66.427518 146.116809 
C 66.427518 146.116809 66.427518 146.116809 66.427518 146.116809 
C 66.427518 146.116809 66.427518 146.116809 66.427518 146.116809 
C 66.427518 146.116809 66.427518 146.116809 66.427518 146.116809 
C 66.427518 146.116809 66.427518 146.116809 66.427518 146.116809 
C 66.427518 146.116809 66.427518 146.116809 66.427518 146.116809 
C 66.427518 146.116809 66.427518 146.116809 66.427518 146.116809 
C 66.427518 146.116809 66.427518 146.116809 66.427518 146.116809 
z
" clip-path="url(#p65efd0e170)" style="stroke: #000000"/>
    <path d="M 63.150596 137.392168 
C 63.387859 137.392168 63.615436 137.297902 63.783206 137.130132 
C 63.950976 136.962362 64.045241 136.734785 64.045241 136.497522 
C 64.045241 136.260259 63.950976 136.032682 63.783206 135.864912 
C 63.615436 135.697142 63.387859 135.602877 63.150596 135.602877 
C 62.913333 135.602877 62.685756 135.697142 62.517986 135.864912 
C 62.350216 136.032682 62.25595 136.260259 62.25595 136.497522 
C 62.25595 136.734785 62.350216 136.962362 62.517986 137.130132 
C 62.685756 137.297902 62.913333 137.392168 63.150596 137.392168 
z
" clip-path="url(#p65efd0e170)" style="stroke: #000000"/>
    <path d="M 61.558922 130.329215 
C 61.796184 130.329215 62.023761 130.23495 62.191531 130.06718 
C 62.359302 129.89941 62.453567 129.671833 62.453567 129.43457 
C 62.453567 129.197307 62.359302 128.96973 62.191531 128.80196 
C 62.023761 128.63419 61.796184 128.539924 61.558922 128.539924 
C 61.321659 128.539924 61.094082 128.63419 60.926312 128.80196 
C 60.758542 128.96973 60.664276 129.197307 60.664276 129.43457 
C 60.664276 129.671833 60.758542 129.89941 60.926312 130.06718 
C 61.094082 130.23495 61.321659 130.329215 61.558922 130.329215 
z
" clip-path="url(#p65efd0e170)" style="stroke: #000000"/>
    <path d="M 54.03303 119.792507 
C 54.207544 119.792507 54.374933 119.723172 54.498333 119.599772 
C 54.621732 119.476373 54.691067 119.308983 54.691067 119.13447 
C 54.691067 118.959957 54.621732 118.792567 54.498333 118.669168 
C 54.374933 118.545768 54.207544 118.476433 54.03303 118.476433 
C 53.858517 118.476433 53.691127 118.545768 53.567728 118.669168 
C 53.444328 118.792567 53.374993 118.959957 53.374993 119.13447 
C 53.374993 119.308983 53.444328 119.476373 53.567728 119.599772 
C 53.691127 119.723172 53.858517 119.792507 54.03303 119.792507 
z
" clip-path="url(#p65efd0e170)" style="stroke: #000000"/>
    <path d="M 54.513927 105.052197 
C 54.75119 105.052197 54.978767 104.957931 55.146537 104.790161 
C 55.314307 104.622391 55.408572 104.394814 55.408572 104.157551 
C 55.408572 103.920288 55.314307 103.692711 55.146537 103.524941 
C 54.978767 103.357171 54.75119 103.262906 54.513927 103.262906 
C 54.276664 103.262906 54.049087 103.357171 53.881317 103.524941 
C 53.713547 103.692711 53.619281 103.920288 53.619281 104.157551 
C 53.619281 104.394814 53.713547 104.622391 53.881317 104.790161 
C 54.049087 104.957931 54.276664 105.052197 54.513927 105.052197 
z
" clip-path="url(#p65efd0e170)" style="stroke: #000000"/>
    <path d="M 48.803447 94.248096 
C 49.04071 94.248096 49.268287 94.15383 49.436057 93.98606 
C 49.603827 93.81829 49.698092 93.590713 49.698092 93.35345 
C 49.698092 93.116187 49.603827 92.88861 49.436057 92.72084 
C 49.268287 92.55307 49.04071 92.458805 48.803447 92.458805 
C 48.566184 92.458805 48.338607 92.55307 48.170837 92.72084 
C 48.003067 92.88861 47.908801 93.116187 47.908801 93.35345 
C 47.908801 93.590713 48.003067 93.81829 48.170837 93.98606 
C 48.338607 94.15383 48.566184 94.248096 48.803447 94.248096 
z
" clip-path="url(#p65efd0e170)" style="stroke: #000000"/>
    <path d="M 45.381536 85.510725 
C 45.617338 85.510725 45.843515 85.41704 46.010253 85.250302 
C 46.17699 85.083565 46.270675 84.857388 46.270675 84.621585 
C 46.270675 84.385783 46.17699 84.159606 46.010253 83.992869 
C 45.843515 83.826131 45.617338 83.732446 45.381536 83.732446 
C 45.145733 83.732446 44.919557 83.826131 44.752819 83.992869 
C 44.586081 84.159606 44.492396 84.385783 44.492396 84.621585 
C 44.492396 84.857388 44.586081 85.083565 44.752819 85.250302 
C 44.919557 85.41704 45.145733 85.510725 45.381536 85.510725 
z
" clip-path="url(#p65efd0e170)" style="stroke: #000000"/>
    <path d="M 42.652129 73.558026 
C 42.86179 73.558026 43.062893 73.474727 43.211146 73.326474 
C 43.359399 73.178221 43.442698 72.977118 43.442698 72.767457 
C 43.442698 72.557795 43.359399 72.356693 43.211146 72.20844 
C 43.062893 72.060187 42.86179 71.976887 42.652129 71.976887 
C 42.442467 71.976887 42.241365 72.060187 42.093112 72.20844 
C 41.944859 72.356693 41.861559 72.557795 41.861559 72.767457 
C 41.861559 72.977118 41.944859 73.178221 42.093112 73.326474 
C 42.241365 73.474727 42.442467 73.558026 42.652129 73.558026 
z
" clip-path="url(#p65efd0e170)" style="stroke: #000000"/>
    <path d="M 41.878063 65.696656 
C 42.052576 65.696656 42.219965 65.627321 42.343365 65.503921 
C 42.466765 65.380522 42.5361 65.213132 42.5361 65.038619 
C 42.5361 64.864106 42.466765 64.696716 42.343365 64.573317 
C 42.219965 64.449917 42.052576 64.380582 41.878063 64.380582 
C 41.703549 64.380582 41.53616 64.449917 41.41276 64.573317 
C 41.28936 64.696716 41.220026 64.864106 41.220026 65.038619 
C 41.220026 65.213132 41.28936 65.380522 41.41276 65.503921 
C 41.53616 65.627321 41.703549 65.696656 41.878063 65.696656 
z
" clip-path="url(#p65efd0e170)" style="stroke: #000000"/>
    <path d="M 68.190382 176.732448 
C 68.190382 176.732448 68.190382 176.732448 68.190382 176.732448 
C 68.190382 176.732448 68.190382 176.732448 68.190382 176.732448 
C 68.190382 176.732448 68.190382 176.732448 68.190382 176.732448 
C 68.190382 176.732448 68.190382 176.732448 68.190382 176.732448 
C 68.190382 176.732448 68.190382 176.732448 68.190382 176.732448 
C 68.190382 176.732448 68.190382 176.732448 68.190382 176.732448 
C 68.190382 176.732448 68.190382 176.732448 68.190382 176.732448 
C 68.190382 176.732448 68.190382 176.732448 68.190382 176.732448 
z
" clip-path="url(#p65efd0e170)" style="stroke: #000000"/>
    <path d="M 65.837617 171.908799 
C 65.837617 171.908799 65.837617 171.908799 65.837617 171.908799 
C 65.837617 171.908799 65.837617 171.908799 65.837617 171.908799 
C 65.837617 171.908799 65.837617 171.908799 65.837617 171.908799 
C 65.837617 171.908799 65.837617 171.908799 65.837617 171.908799 
C 65.837617 171.908799 65.837617 171.908799 65.837617 171.908799 
C 65.837617 171.908799 65.837617 171.908799 65.837617 171.908799 
C 65.837617 171.908799 65.837617 171.908799 65.837617 171.908799 
C 65.837617 171.908799 65.837617 171.908799 65.837617 171.908799 
z
" clip-path="url(#p65efd0e170)" style="stroke: #000000"/>
    <path d="M 59.077683 161.462404 
C 59.314945 161.462404 59.542522 161.368138 59.710293 161.200368 
C 59.878063 161.032598 59.972328 160.805021 59.972328 160.567758 
C 59.972328 160.330495 59.878063 160.102918 59.710293 159.935148 
C 59.542522 159.767378 59.314945 159.673113 59.077683 159.673113 
C 58.84042 159.673113 58.612843 159.767378 58.445073 159.935148 
C 58.277303 160.102918 58.183037 160.330495 58.183037 160.567758 
C 58.183037 160.805021 58.277303 161.032598 58.445073 161.200368 
C 58.612843 161.368138 58.84042 161.462404 59.077683 161.462404 
z
" clip-path="url(#p65efd0e170)" style="stroke: #000000"/>
    <path d="M 58.325789 149.878901 
C 58.325789 149.878901 58.325789 149.878901 58.325789 149.878901 
C 58.325789 149.878901 58.325789 149.878901 58.325789 149.878901 
C 58.325789 149.878901 58.325789 149.878901 58.325789 149.878901 
C 58.325789 149.878901 58.325789 149.878901 58.325789 149.878901 
C 58.325789 149.878901 58.325789 149.878901 58.325789 149.878901 
C 58.325789 149.878901 58.325789 149.878901 58.325789 149.878901 
C 58.325789 149.878901 58.325789 149.878901 58.325789 149.878901 
C 58.325789 149.878901 58.325789 149.878901 58.325789 149.878901 
z
" clip-path="url(#p65efd0e170)" style="stroke: #000000"/>
    <path d="M 54.182306 142.624899 
C 54.394033 142.624899 54.597117 142.540779 54.746831 142.391065 
C 54.896545 142.241351 54.980665 142.038267 54.980665 141.82654 
C 54.980665 141.614812 54.896545 141.411728 54.746831 141.262015 
C 54.597117 141.112301 54.394033 141.028181 54.182306 141.028181 
C 53.970578 141.028181 53.767494 141.112301 53.617781 141.262015 
C 53.468067 141.411728 53.383947 141.614812 53.383947 141.82654 
C 53.383947 142.038267 53.468067 142.241351 53.617781 142.391065 
C 53.767494 142.540779 53.970578 142.624899 54.182306 142.624899 
z
" clip-path="url(#p65efd0e170)" style="stroke: #000000"/>
    <path d="M 52.659411 131.667461 
C 52.659411 131.667461 52.659411 131.667461 52.659411 131.667461 
C 52.659411 131.667461 52.659411 131.667461 52.659411 131.667461 
C 52.659411 131.667461 52.659411 131.667461 52.659411 131.667461 
C 52.659411 131.667461 52.659411 131.667461 52.659411 131.667461 
C 52.659411 131.667461 52.659411 131.667461 52.659411 131.667461 
C 52.659411 131.667461 52.659411 131.667461 52.659411 131.667461 
C 52.659411 131.667461 52.659411 131.667461 52.659411 131.667461 
C 52.659411 131.667461 52.659411 131.667461 52.659411 131.667461 
z
" clip-path="url(#p65efd0e170)" style="stroke: #000000"/>
    <path d="M 48.414447 125.430281 
C 48.65171 125.430281 48.879287 125.336016 49.047057 125.168246 
C 49.214827 125.000476 49.309092 124.772899 49.309092 124.535636 
C 49.309092 124.298373 49.214827 124.070796 49.047057 123.903026 
C 48.879287 123.735256 48.65171 123.64099 48.414447 123.64099 
C 48.177184 123.64099 47.949607 123.735256 47.781837 123.903026 
C 47.614067 124.070796 47.519801 124.298373 47.519801 124.535636 
C 47.519801 124.772899 47.614067 125.000476 47.781837 125.168246 
C 47.949607 125.336016 48.177184 125.430281 48.414447 125.430281 
z
" clip-path="url(#p65efd0e170)" style="stroke: #000000"/>
    <path d="M 46.492938 109.001528 
C 46.683328 109.001528 46.865947 108.925885 47.000573 108.791259 
C 47.1352 108.656632 47.210843 108.474014 47.210843 108.283623 
C 47.210843 108.093232 47.1352 107.910614 47.000573 107.775987 
C 46.865947 107.64136 46.683328 107.565717 46.492938 107.565717 
C 46.302547 107.565717 46.119928 107.64136 45.985302 107.775987 
C 45.850675 107.910614 45.775032 108.093232 45.775032 108.283623 
C 45.775032 108.474014 45.850675 108.656632 45.985302 108.791259 
C 46.119928 108.925885 46.302547 109.001528 46.492938 109.001528 
z
" clip-path="url(#p65efd0e170)" style="stroke: #000000"/>
    <path d="M 39.364425 98.44741 
C 39.601688 98.44741 39.829265 98.353144 39.997035 98.185374 
C 40.164805 98.017604 40.259071 97.790027 40.259071 97.552764 
C 40.259071 97.315502 40.164805 97.087925 39.997035 96.920154 
C 39.829265 96.752384 39.601688 96.658119 39.364425 96.658119 
C 39.127163 96.658119 38.899586 96.752384 38.731815 96.920154 
C 38.564045 97.087925 38.46978 97.315502 38.46978 97.552764 
C 38.46978 97.790027 38.564045 98.017604 38.731815 98.185374 
C 38.899586 98.353144 39.127163 98.44741 39.364425 98.44741 
z
" clip-path="url(#p65efd0e170)" style="stroke: #000000"/>
    <path d="M 37.880646 93.305591 
C 37.880646 93.305591 37.880646 93.305591 37.880646 93.305591 
C 37.880646 93.305591 37.880646 93.305591 37.880646 93.305591 
C 37.880646 93.305591 37.880646 93.305591 37.880646 93.305591 
C 37.880646 93.305591 37.880646 93.305591 37.880646 93.305591 
C 37.880646 93.305591 37.880646 93.305591 37.880646 93.305591 
C 37.880646 93.305591 37.880646 93.305591 37.880646 93.305591 
C 37.880646 93.305591 37.880646 93.305591 37.880646 93.305591 
C 37.880646 93.305591 37.880646 93.305591 37.880646 93.305591 
z
" clip-path="url(#p65efd0e170)" style="stroke: #000000"/>
    <path d="M 36.523562 81.600625 
C 36.759365 81.600625 36.985541 81.50694 37.152279 81.340202 
C 37.319017 81.173464 37.412702 80.947288 37.412702 80.711485 
C 37.412702 80.475683 37.319017 80.249506 37.152279 80.082769 
C 36.985541 79.916031 36.759365 79.822346 36.523562 79.822346 
C 36.28776 79.822346 36.061583 79.916031 35.894846 80.082769 
C 35.728108 80.249506 35.634423 80.475683 35.634423 80.711485 
C 35.634423 80.947288 35.728108 81.173464 35.894846 81.340202 
C 36.061583 81.50694 36.28776 81.600625 36.523562 81.600625 
z
" clip-path="url(#p65efd0e170)" style="stroke: #000000"/>
    <path d="M 55.207652 177.114584 
C 55.443455 177.114584 55.669631 177.020899 55.836369 176.854161 
C 56.003107 176.687424 56.096792 176.461247 56.096792 176.225445 
C 56.096792 175.989642 56.003107 175.763466 55.836369 175.596728 
C 55.669631 175.42999 55.443455 175.336305 55.207652 175.336305 
C 54.97185 175.336305 54.745673 175.42999 54.578936 175.596728 
C 54.412198 175.763466 54.318513 175.989642 54.318513 176.225445 
C 54.318513 176.461247 54.412198 176.687424 54.578936 176.854161 
C 54.745673 177.020899 54.97185 177.114584 55.207652 177.114584 
z
" clip-path="url(#p65efd0e170)" style="stroke: #000000"/>
    <path d="M 48.848569 167.392308 
C 48.942332 167.392308 49.032268 167.355056 49.098569 167.288755 
C 49.16487 167.222454 49.202122 167.132518 49.202122 167.038755 
C 49.202122 166.944991 49.16487 166.855056 49.098569 166.788755 
C 49.032268 166.722454 48.942332 166.685201 48.848569 166.685201 
C 48.754805 166.685201 48.66487 166.722454 48.598569 166.788755 
C 48.532268 166.855056 48.495016 166.944991 48.495016 167.038755 
C 48.495016 167.132518 48.532268 167.222454 48.598569 167.288755 
C 48.66487 167.355056 48.754805 167.392308 48.848569 167.392308 
z
" clip-path="url(#p65efd0e170)" style="stroke: #000000"/>
    <path d="M 46.993117 155.715835 
C 47.23038 155.715835 47.457957 155.621569 47.625727 155.453799 
C 47.793497 155.286029 47.887763 155.058452 47.887763 154.821189 
C 47.887763 154.583927 47.793497 154.35635 47.625727 154.18858 
C 47.457957 154.020809 47.23038 153.926544 46.993117 153.926544 
C 46.755855 153.926544 46.528278 154.020809 46.360508 154.18858 
C 46.192737 154.35635 46.098472 154.583927 46.098472 154.821189 
C 46.098472 155.058452 46.192737 155.286029 46.360508 155.453799 
C 46.528278 155.621569 46.755855 155.715835 46.993117 155.715835 
z
" clip-path="url(#p65efd0e170)" style="stroke: #000000"/>
    <path d="M 42.963959 142.954213 
C 43.177693 142.954213 43.382703 142.869296 43.533836 142.718163 
C 43.684969 142.56703 43.769886 142.36202 43.769886 142.148286 
C 43.769886 141.934551 43.684969 141.729542 43.533836 141.578409 
C 43.382703 141.427276 43.177693 141.342358 42.963959 141.342358 
C 42.750224 141.342358 42.545215 141.427276 42.394082 141.578409 
C 42.242949 141.729542 42.158031 141.934551 42.158031 142.148286 
C 42.158031 142.36202 42.242949 142.56703 42.394082 142.718163 
C 42.545215 142.869296 42.750224 142.954213 42.963959 142.954213 
z
" clip-path="url(#p65efd0e170)" style="stroke: #000000"/>
    <path d="M 41.35532 134.832106 
C 41.592583 134.832106 41.82016 134.737841 41.98793 134.570071 
C 42.1557 134.402301 42.249966 134.174724 42.249966 133.937461 
C 42.249966 133.700198 42.1557 133.472621 41.98793 133.304851 
C 41.82016 133.137081 41.592583 133.042815 41.35532 133.042815 
C 41.118058 133.042815 40.890481 133.137081 40.72271 133.304851 
C 40.55494 133.472621 40.460675 133.700198 40.460675 133.937461 
C 40.460675 134.174724 40.55494 134.402301 40.72271 134.570071 
C 40.890481 134.737841 41.118058 134.832106 41.35532 134.832106 
z
" clip-path="url(#p65efd0e170)" style="stroke: #000000"/>
    <path d="M 37.449366 119.077758 
C 37.449366 119.077758 37.449366 119.077758 37.449366 119.077758 
C 37.449366 119.077758 37.449366 119.077758 37.449366 119.077758 
C 37.449366 119.077758 37.449366 119.077758 37.449366 119.077758 
C 37.449366 119.077758 37.449366 119.077758 37.449366 119.077758 
C 37.449366 119.077758 37.449366 119.077758 37.449366 119.077758 
C 37.449366 119.077758 37.449366 119.077758 37.449366 119.077758 
C 37.449366 119.077758 37.449366 119.077758 37.449366 119.077758 
C 37.449366 119.077758 37.449366 119.077758 37.449366 119.077758 
z
" clip-path="url(#p65efd0e170)" style="stroke: #000000"/>
    <path d="M 32.081211 115.548533 
C 32.318474 115.548533 32.546051 115.454267 32.713821 115.286497 
C 32.881591 115.118727 32.975857 114.89115 32.975857 114.653887 
C 32.975857 114.416624 32.881591 114.189047 32.713821 114.021277 
C 32.546051 113.853507 32.318474 113.759242 32.081211 113.759242 
C 31.843949 113.759242 31.616372 113.853507 31.448601 114.021277 
C 31.280831 114.189047 31.186566 114.416624 31.186566 114.653887 
C 31.186566 114.89115 31.280831 115.118727 31.448601 115.286497 
C 31.616372 115.454267 31.843949 115.548533 32.081211 115.548533 
z
" clip-path="url(#p65efd0e170)" style="stroke: #000000"/>
    <path d="M 29.344225 105.797359 
C 29.580027 105.797359 29.806204 105.703674 29.972942 105.536936 
C 30.139679 105.370198 30.233365 105.144022 30.233365 104.908219 
C 30.233365 104.672417 30.139679 104.44624 29.972942 104.279503 
C 29.806204 104.112765 29.580027 104.01908 29.344225 104.01908 
C 29.108422 104.01908 28.882246 104.112765 28.715508 104.279503 
C 28.548771 104.44624 28.455085 104.672417 28.455085 104.908219 
C 28.455085 105.144022 28.548771 105.370198 28.715508 105.536936 
C 28.882246 105.703674 29.108422 105.797359 29.344225 105.797359 
z
" clip-path="url(#p65efd0e170)" style="stroke: #000000"/>
    <path d="M 46.00043 176.438508 
C 46.236232 176.438508 46.462409 176.344822 46.629147 176.178085 
C 46.795884 176.011347 46.88957 175.785171 46.88957 175.549368 
C 46.88957 175.313565 46.795884 175.087389 46.629147 174.920651 
C 46.462409 174.753914 46.236232 174.660228 46.00043 174.660228 
C 45.764627 174.660228 45.538451 174.753914 45.371713 174.920651 
C 45.204976 175.087389 45.11129 175.313565 45.11129 175.549368 
C 45.11129 175.785171 45.204976 176.011347 45.371713 176.178085 
C 45.538451 176.344822 45.764627 176.438508 46.00043 176.438508 
z
" clip-path="url(#p65efd0e170)" style="stroke: #000000"/>
    <path d="M 41.358811 169.38686 
C 41.596073 169.38686 41.82365 169.292594 41.991421 169.124824 
C 42.159191 168.957054 42.253456 168.729477 42.253456 168.492214 
C 42.253456 168.254951 42.159191 168.027374 41.991421 167.859604 
C 41.82365 167.691834 41.596073 167.597569 41.358811 167.597569 
C 41.121548 167.597569 40.893971 167.691834 40.726201 167.859604 
C 40.558431 168.027374 40.464165 168.254951 40.464165 168.492214 
C 40.464165 168.729477 40.558431 168.957054 40.726201 169.124824 
C 40.893971 169.292594 41.121548 169.38686 41.358811 169.38686 
z
" clip-path="url(#p65efd0e170)" style="stroke: #000000"/>
    <path d="M 37.223507 159.281226 
C 37.460769 159.281226 37.688346 159.18696 37.856116 159.01919 
C 38.023887 158.85142 38.118152 158.623843 38.118152 158.38658 
C 38.118152 158.149317 38.023887 157.92174 37.856116 157.75397 
C 37.688346 157.5862 37.460769 157.491935 37.223507 157.491935 
C 36.986244 157.491935 36.758667 157.5862 36.590897 157.75397 
C 36.423127 157.92174 36.328861 158.149317 36.328861 158.38658 
C 36.328861 158.623843 36.423127 158.85142 36.590897 159.01919 
C 36.758667 159.18696 36.986244 159.281226 37.223507 159.281226 
z
" clip-path="url(#p65efd0e170)" style="stroke: #000000"/>
    <path d="M 32.463336 150.820601 
C 32.463336 150.820601 32.463336 150.820601 32.463336 150.820601 
C 32.463336 150.820601 32.463336 150.820601 32.463336 150.820601 
C 32.463336 150.820601 32.463336 150.820601 32.463336 150.820601 
C 32.463336 150.820601 32.463336 150.820601 32.463336 150.820601 
C 32.463336 150.820601 32.463336 150.820601 32.463336 150.820601 
C 32.463336 150.820601 32.463336 150.820601 32.463336 150.820601 
C 32.463336 150.820601 32.463336 150.820601 32.463336 150.820601 
C 32.463336 150.820601 32.463336 150.820601 32.463336 150.820601 
z
" clip-path="url(#p65efd0e170)" style="stroke: #000000"/>
    <path d="M 29.931588 136.195807 
C 30.167391 136.195807 30.393568 136.102122 30.560305 135.935384 
C 30.727043 135.768647 30.820728 135.54247 30.820728 135.306668 
C 30.820728 135.070865 30.727043 134.844689 30.560305 134.677951 
C 30.393568 134.511213 30.167391 134.417528 29.931588 134.417528 
C 29.695786 134.417528 29.469609 134.511213 29.302872 134.677951 
C 29.136134 134.844689 29.042449 135.070865 29.042449 135.306668 
C 29.042449 135.54247 29.136134 135.768647 29.302872 135.935384 
C 29.469609 136.102122 29.695786 136.195807 29.931588 136.195807 
z
" clip-path="url(#p65efd0e170)" style="stroke: #000000"/>
   </g>
   <g id="matplotlib.axis_1">
    <g id="xtick_1">
     <g id="line2d_1">
      <defs>
       <path id="m105e6c4776" d="M 0 0 
L 0 3.5 
" style="stroke: #000000; stroke-width: 0.8"/>
      </defs>
      <g>
       <use xlink:href="#m105e6c4776" x="18" y="189" style="stroke: #000000; stroke-width: 0.8"/>
      </g>
     </g>
     <g id="text_1">
      <!-- 10 -->
      <g transform="translate(7.447656 203.598437)scale(0.1 -0.1)">
       <defs>
        <path id="DejaVuSans-2212" d="M 678 2272 
L 4684 2272 
L 4684 1741 
L 678 1741 
L 678 2272 
z
" transform="scale(0.015625)"/>
        <path id="DejaVuSans-31" d="M 794 531 
L 1825 531 
L 1825 4091 
L 703 3866 
L 703 4441 
L 1819 4666 
L 2450 4666 
L 2450 531 
L 3481 531 
L 3481 0 
L 794 0 
L 794 531 
z
" transform="scale(0.015625)"/>
        <path id="DejaVuSans-30" d="M 2034 4250 
Q 1547 4250 1301 3770 
Q 1056 3291 1056 2328 
Q 1056 1369 1301 889 
Q 1547 409 2034 409 
Q 2525 409 2770 889 
Q 3016 1369 3016 2328 
Q 3016 3291 2770 3770 
Q 2525 4250 2034 4250 
z
M 2034 4750 
Q 2819 4750 3233 4129 
Q 3647 3509 3647 2328 
Q 3647 1150 3233 529 
Q 2819 -91 2034 -91 
Q 1250 -91 836 529 
Q 422 1150 422 2328 
Q 422 3509 836 4129 
Q 1250 4750 2034 4750 
z
" transform="scale(0.015625)"/>
       </defs>
       <use xlink:href="#DejaVuSans-2212"/>
       <use xlink:href="#DejaVuSans-31" x="83.789062"/>
       <use xlink:href="#DejaVuSans-30" x="147.412109"/>
      </g>
     </g>
    </g>
    <g id="xtick_2">
     <g id="line2d_2">
      <g>
       <use xlink:href="#m105e6c4776" x="73.8" y="189" style="stroke: #000000; stroke-width: 0.8"/>
      </g>
     </g>
     <g id="text_2">
      <!-- 0 -->
      <g transform="translate(70.61875 203.598437)scale(0.1 -0.1)">
       <use xlink:href="#DejaVuSans-30"/>
      </g>
     </g>
    </g>
    <g id="xtick_3">
     <g id="line2d_3">
      <g>
       <use xlink:href="#m105e6c4776" x="129.6" y="189" style="stroke: #000000; stroke-width: 0.8"/>
      </g>
     </g>
     <g id="text_3">
      <!-- 10 -->
      <g transform="translate(123.2375 203.598437)scale(0.1 -0.1)">
       <use xlink:href="#DejaVuSans-31"/>
       <use xlink:href="#DejaVuSans-30" x="63.623047"/>
      </g>
     </g>
    </g>
   </g>
   <g id="matplotlib.axis_2">
    <g id="ytick_1">
     <g id="line2d_4">
      <defs>
       <path id="m7eec72fe52" d="M 0 0 
L -3.5 0 
" style="stroke: #000000; stroke-width: 0.8"/>
      </defs>
      <g>
       <use xlink:href="#m7eec72fe52" x="18" y="189" style="stroke: #000000; stroke-width: 0.8"/>
      </g>
     </g>
     <g id="text_4">
      <!-- 15 -->
      <g transform="translate(-10.104688 192.799219)scale(0.1 -0.1)">
       <defs>
        <path id="DejaVuSans-35" d="M 691 4666 
L 3169 4666 
L 3169 4134 
L 1269 4134 
L 1269 2991 
Q 1406 3038 1543 3061 
Q 1681 3084 1819 3084 
Q 2600 3084 3056 2656 
Q 3513 2228 3513 1497 
Q 3513 744 3044 326 
Q 2575 -91 1722 -91 
Q 1428 -91 1123 -41 
Q 819 9 494 109 
L 494 744 
Q 775 591 1075 516 
Q 1375 441 1709 441 
Q 2250 441 2565 725 
Q 2881 1009 2881 1497 
Q 2881 1984 2565 2268 
Q 2250 2553 1709 2553 
Q 1456 2553 1204 2497 
Q 953 2441 691 2322 
L 691 4666 
z
" transform="scale(0.015625)"/>
       </defs>
       <use xlink:href="#DejaVuSans-2212"/>
       <use xlink:href="#DejaVuSans-31" x="83.789062"/>
       <use xlink:href="#DejaVuSans-35" x="147.412109"/>
      </g>
     </g>
    </g>
    <g id="ytick_2">
     <g id="line2d_5">
      <g>
       <use xlink:href="#m7eec72fe52" x="18" y="161.82" style="stroke: #000000; stroke-width: 0.8"/>
      </g>
     </g>
     <g id="text_5">
      <!-- 10 -->
      <g transform="translate(-10.104688 165.619219)scale(0.1 -0.1)">
       <use xlink:href="#DejaVuSans-2212"/>
       <use xlink:href="#DejaVuSans-31" x="83.789062"/>
       <use xlink:href="#DejaVuSans-30" x="147.412109"/>
      </g>
     </g>
    </g>
    <g id="ytick_3">
     <g id="line2d_6">
      <g>
       <use xlink:href="#m7eec72fe52" x="18" y="134.64" style="stroke: #000000; stroke-width: 0.8"/>
      </g>
     </g>
     <g id="text_6">
      <!-- 5 -->
      <g transform="translate(-3.742188 138.439219)scale(0.1 -0.1)">
       <use xlink:href="#DejaVuSans-2212"/>
       <use xlink:href="#DejaVuSans-35" x="83.789062"/>
      </g>
     </g>
    </g>
    <g id="ytick_4">
     <g id="line2d_7">
      <g>
       <use xlink:href="#m7eec72fe52" x="18" y="107.46" style="stroke: #000000; stroke-width: 0.8"/>
      </g>
     </g>
     <g id="text_7">
      <!-- 0 -->
      <g transform="translate(4.6375 111.259219)scale(0.1 -0.1)">
       <use xlink:href="#DejaVuSans-30"/>
      </g>
     </g>
    </g>
    <g id="ytick_5">
     <g id="line2d_8">
      <g>
       <use xlink:href="#m7eec72fe52" x="18" y="80.28" style="stroke: #000000; stroke-width: 0.8"/>
      </g>
     </g>
     <g id="text_8">
      <!-- 5 -->
      <g transform="translate(4.6375 84.079219)scale(0.1 -0.1)">
       <use xlink:href="#DejaVuSans-35"/>
      </g>
     </g>
    </g>
    <g id="ytick_6">
     <g id="line2d_9">
      <g>
       <use xlink:href="#m7eec72fe52" x="18" y="53.1" style="stroke: #000000; stroke-width: 0.8"/>
      </g>
     </g>
     <g id="text_9">
      <!-- 10 -->
      <g transform="translate(-1.725 56.899219)scale(0.1 -0.1)">
       <use xlink:href="#DejaVuSans-31"/>
       <use xlink:href="#DejaVuSans-30" x="63.623047"/>
      </g>
     </g>
    </g>
    <g id="ytick_7">
     <g id="line2d_10">
      <g>
       <use xlink:href="#m7eec72fe52" x="18" y="25.92" style="stroke: #000000; stroke-width: 0.8"/>
      </g>
     </g>
     <g id="text_10">
      <!-- 15 -->
      <g transform="translate(-1.725 29.719219)scale(0.1 -0.1)">
       <use xlink:href="#DejaVuSans-31"/>
       <use xlink:href="#DejaVuSans-35" x="63.623047"/>
      </g>
     </g>
    </g>
   </g>
   <g id="patch_3">
    <path d="M 18 189 
L 18 25.92 
" style="fill: none; stroke: #000000; stroke-width: 0.8; stroke-linejoin: miter; stroke-linecap: square"/>
   </g>
   <g id="patch_4">
    <path d="M 129.6 189 
L 129.6 25.92 
" style="fill: none; stroke: #000000; stroke-width: 0.8; stroke-linejoin: miter; stroke-linecap: square"/>
   </g>
   <g id="patch_5">
    <path d="M 18 189 
L 129.6 189 
" style="fill: none; stroke: #000000; stroke-width: 0.8; stroke-linejoin: miter; stroke-linecap: square"/>
   </g>
   <g id="patch_6">
    <path d="M 18 25.92 
L 129.6 25.92 
" style="fill: none; stroke: #000000; stroke-width: 0.8; stroke-linejoin: miter; stroke-linecap: square"/>
   </g>
  </g>
 </g>
 <defs>
  <clipPath id="p65efd0e170">
   <rect x="18" y="25.92" width="111.6" height="163.08"/>
  </clipPath>
 </defs>
</svg>
