<?xml version="1.0" encoding="utf-8" standalone="no"?>
<!DOCTYPE svg PUBLIC "-//W3C//DTD SVG 1.1//EN"
  "http://www.w3.org/Graphics/SVG/1.1/DTD/svg11.dtd">
<svg xmlns:xlink="http://www.w3.org/1999/xlink" width="144pt" height="216pt" viewBox="0 0 144 216" xmlns="http://www.w3.org/2000/svg" version="1.1">
 <metadata>
  <rdf:RDF xmlns:dc="http://purl.org/dc/elements/1.1/" xmlns:cc="http://creativecommons.org/ns#" xmlns:rdf="http://www.w3.org/1999/02/22-rdf-syntax-ns#">
   <cc:Work>
    <dc:type rdf:resource="http://purl.org/dc/dcmitype/StillImage"/>
    <dc:date>2022-06-22T17:04:30.276859</dc:date>
    <dc:format>image/svg+xml</dc:format>
    <dc:creator>
     <cc:Agent>
      <dc:title>Matplotlib v3.5.1, https://matplotlib.org/</dc:title>
     </cc:Agent>
    </dc:creator>
   </cc:Work>
  </rdf:RDF>
 </metadata>
 <defs>
  <style type="text/css">*{stroke-linejoin: round; stroke-linecap: butt}</style>
 </defs>
 <g id="figure_1">
  <g id="patch_1">
   <path d="M 0 216 
L 144 216 
L 144 0 
L 0 0 
L 0 216 
z
" style="fill: none"/>
  </g>
  <g id="axes_1">
   <g id="patch_2">
    <path d="M 18 189 
L 129.6 189 
L 129.6 25.92 
L 18 25.92 
z
" style="fill: #ffffff"/>
   </g>
   <g id="PathCollection_1">
    <defs>
     <path id="me0a862e0b9" d="M 0 2.738613 
C 0.726289 2.738613 1.422928 2.450055 1.936492 1.936492 
C 2.450055 1.422928 2.738613 0.726289 2.738613 0 
C 2.738613 -0.726289 2.450055 -1.422928 1.936492 -1.936492 
C 1.422928 -2.450055 0.726289 -2.738613 0 -2.738613 
C -0.726289 -2.738613 -1.422928 -2.450055 -1.936492 -1.936492 
C -2.450055 -1.422928 -2.738613 -0.726289 -2.738613 0 
C -2.738613 0.726289 -2.450055 1.422928 -1.936492 1.936492 
C -1.422928 2.450055 -0.726289 2.738613 0 2.738613 
z
" style="stroke: #ff0000; stroke-width: 1.75"/>
    </defs>
    <g clip-path="url(#pa2b729161a)">
     <use xlink:href="#me0a862e0b9" x="80.775" y="107.46" style="fill: #ff0000; stroke: #ff0000; stroke-width: 1.75"/>
     <use xlink:href="#me0a862e0b9" x="94.725" y="107.46" style="fill: #ff0000; stroke: #ff0000; stroke-width: 1.75"/>
     <use xlink:href="#me0a862e0b9" x="59.85" y="119.229285" style="fill: #ff0000; stroke: #ff0000; stroke-width: 1.75"/>
     <use xlink:href="#me0a862e0b9" x="73.8" y="119.229285" style="fill: #ff0000; stroke: #ff0000; stroke-width: 1.75"/>
     <use xlink:href="#me0a862e0b9" x="87.75" y="119.229285" style="fill: #ff0000; stroke: #ff0000; stroke-width: 1.75"/>
     <use xlink:href="#me0a862e0b9" x="66.825" y="130.99857" style="fill: #ff0000; stroke: #ff0000; stroke-width: 1.75"/>
     <use xlink:href="#me0a862e0b9" x="80.775" y="130.99857" style="fill: #ff0000; stroke: #ff0000; stroke-width: 1.75"/>
    </g>
   </g>
   <g id="PathCollection_2">
    <defs>
     <path id="C0_0_6cd7e4de82" d="M 0 2.738613 
C 0.726289 2.738613 1.422928 2.450055 1.936492 1.936492 
C 2.450055 1.422928 2.738613 0.726289 2.738613 -0 
C 2.738613 -0.726289 2.450055 -1.422928 1.936492 -1.936492 
C 1.422928 -2.450055 0.726289 -2.738613 0 -2.738613 
C -0.726289 -2.738613 -1.422928 -2.450055 -1.936492 -1.936492 
C -2.450055 -1.422928 -2.738613 -0.726289 -2.738613 0 
C -2.738613 0.726289 -2.450055 1.422928 -1.936492 1.936492 
C -1.422928 2.450055 -0.726289 2.738613 0 2.738613 
z
"/>
    </defs>
    <g clip-path="url(#pa2b729161a)">
     <use xlink:href="#C0_0_6cd7e4de82" x="66.825" y="83.92143" style="fill: none; stroke: #ff0000; stroke-width: 1.75"/>
    </g>
    <g clip-path="url(#pa2b729161a)">
     <use xlink:href="#C0_0_6cd7e4de82" x="80.775" y="83.92143" style="fill: none; stroke: #ff0000; stroke-width: 1.75"/>
    </g>
    <g clip-path="url(#pa2b729161a)">
     <use xlink:href="#C0_0_6cd7e4de82" x="59.85" y="95.690715" style="fill: none; stroke: #ff0000; stroke-width: 1.75"/>
    </g>
    <g clip-path="url(#pa2b729161a)">
     <use xlink:href="#C0_0_6cd7e4de82" x="73.8" y="95.690715" style="fill: none; stroke: #ff0000; stroke-width: 1.75"/>
    </g>
    <g clip-path="url(#pa2b729161a)">
     <use xlink:href="#C0_0_6cd7e4de82" x="87.75" y="95.690715" style="fill: none; stroke: #ff0000; stroke-width: 1.75"/>
    </g>
    <g clip-path="url(#pa2b729161a)">
     <use xlink:href="#C0_0_6cd7e4de82" x="52.875" y="107.46" style="fill: none; stroke: #ff0000; stroke-width: 1.75"/>
    </g>
    <g clip-path="url(#pa2b729161a)">
     <use xlink:href="#C0_0_6cd7e4de82" x="66.825" y="107.46" style="fill: none; stroke: #ff0000; stroke-width: 1.75"/>
    </g>
   </g>
   <g id="PathCollection_3">
    <path d="M 109.578641 73.140916 
C 109.578641 73.140916 109.578641 73.140916 109.578641 73.140916 
C 109.578641 73.140916 109.578641 73.140916 109.578641 73.140916 
C 109.578641 73.140916 109.578641 73.140916 109.578641 73.140916 
C 109.578641 73.140916 109.578641 73.140916 109.578641 73.140916 
C 109.578641 73.140916 109.578641 73.140916 109.578641 73.140916 
C 109.578641 73.140916 109.578641 73.140916 109.578641 73.140916 
C 109.578641 73.140916 109.578641 73.140916 109.578641 73.140916 
C 109.578641 73.140916 109.578641 73.140916 109.578641 73.140916 
z
" clip-path="url(#pa2b729161a)" style="stroke: #000000"/>
    <path d="M 108.823882 66.326632 
C 108.823882 66.326632 108.823882 66.326632 108.823882 66.326632 
C 108.823882 66.326632 108.823882 66.326632 108.823882 66.326632 
C 108.823882 66.326632 108.823882 66.326632 108.823882 66.326632 
C 108.823882 66.326632 108.823882 66.326632 108.823882 66.326632 
C 108.823882 66.326632 108.823882 66.326632 108.823882 66.326632 
C 108.823882 66.326632 108.823882 66.326632 108.823882 66.326632 
C 108.823882 66.326632 108.823882 66.326632 108.823882 66.326632 
C 108.823882 66.326632 108.823882 66.326632 108.823882 66.326632 
z
" clip-path="url(#pa2b729161a)" style="stroke: #000000"/>
    <path d="M 121.259488 138.837556 
C 121.259488 138.837556 121.259488 138.837556 121.259488 138.837556 
C 121.259488 138.837556 121.259488 138.837556 121.259488 138.837556 
C 121.259488 138.837556 121.259488 138.837556 121.259488 138.837556 
C 121.259488 138.837556 121.259488 138.837556 121.259488 138.837556 
C 121.259488 138.837556 121.259488 138.837556 121.259488 138.837556 
C 121.259488 138.837556 121.259488 138.837556 121.259488 138.837556 
C 121.259488 138.837556 121.259488 138.837556 121.259488 138.837556 
C 121.259488 138.837556 121.259488 138.837556 121.259488 138.837556 
z
" clip-path="url(#pa2b729161a)" style="stroke: #000000"/>
    <path d="M 114.792467 110.002102 
C 114.792467 110.002102 114.792467 110.002102 114.792467 110.002102 
C 114.792467 110.002102 114.792467 110.002102 114.792467 110.002102 
C 114.792467 110.002102 114.792467 110.002102 114.792467 110.002102 
C 114.792467 110.002102 114.792467 110.002102 114.792467 110.002102 
C 114.792467 110.002102 114.792467 110.002102 114.792467 110.002102 
C 114.792467 110.002102 114.792467 110.002102 114.792467 110.002102 
C 114.792467 110.002102 114.792467 110.002102 114.792467 110.002102 
C 114.792467 110.002102 114.792467 110.002102 114.792467 110.002102 
z
" clip-path="url(#pa2b729161a)" style="stroke: #000000"/>
    <path d="M 110.53311 100.165546 
C 110.53311 100.165546 110.53311 100.165546 110.53311 100.165546 
C 110.53311 100.165546 110.53311 100.165546 110.53311 100.165546 
C 110.53311 100.165546 110.53311 100.165546 110.53311 100.165546 
C 110.53311 100.165546 110.53311 100.165546 110.53311 100.165546 
C 110.53311 100.165546 110.53311 100.165546 110.53311 100.165546 
C 110.53311 100.165546 110.53311 100.165546 110.53311 100.165546 
C 110.53311 100.165546 110.53311 100.165546 110.53311 100.165546 
C 110.53311 100.165546 110.53311 100.165546 110.53311 100.165546 
z
" clip-path="url(#pa2b729161a)" style="stroke: #000000"/>
    <path d="M 105.939445 91.415601 
C 106.318464 91.415601 106.682011 91.265015 106.950018 90.997008 
C 107.218025 90.729001 107.368611 90.365454 107.368611 89.986435 
C 107.368611 89.607415 107.218025 89.243868 106.950018 88.975861 
C 106.682011 88.707854 106.318464 88.557268 105.939445 88.557268 
C 105.560426 88.557268 105.196879 88.707854 104.928872 88.975861 
C 104.660864 89.243868 104.510278 89.607415 104.510278 89.986435 
C 104.510278 90.365454 104.660864 90.729001 104.928872 90.997008 
C 105.196879 91.265015 105.560426 91.415601 105.939445 91.415601 
z
" clip-path="url(#pa2b729161a)" style="stroke: #000000"/>
    <path d="M 100.53311 75.452408 
C 100.53311 75.452408 100.53311 75.452408 100.53311 75.452408 
C 100.53311 75.452408 100.53311 75.452408 100.53311 75.452408 
C 100.53311 75.452408 100.53311 75.452408 100.53311 75.452408 
C 100.53311 75.452408 100.53311 75.452408 100.53311 75.452408 
C 100.53311 75.452408 100.53311 75.452408 100.53311 75.452408 
C 100.53311 75.452408 100.53311 75.452408 100.53311 75.452408 
C 100.53311 75.452408 100.53311 75.452408 100.53311 75.452408 
C 100.53311 75.452408 100.53311 75.452408 100.53311 75.452408 
z
" clip-path="url(#pa2b729161a)" style="stroke: #000000"/>
    <path d="M 101.392495 66.247814 
C 101.392495 66.247814 101.392495 66.247814 101.392495 66.247814 
C 101.392495 66.247814 101.392495 66.247814 101.392495 66.247814 
C 101.392495 66.247814 101.392495 66.247814 101.392495 66.247814 
C 101.392495 66.247814 101.392495 66.247814 101.392495 66.247814 
C 101.392495 66.247814 101.392495 66.247814 101.392495 66.247814 
C 101.392495 66.247814 101.392495 66.247814 101.392495 66.247814 
C 101.392495 66.247814 101.392495 66.247814 101.392495 66.247814 
C 101.392495 66.247814 101.392495 66.247814 101.392495 66.247814 
z
" clip-path="url(#pa2b729161a)" style="stroke: #000000"/>
    <path d="M 97.117106 61.274435 
C 97.117106 61.274435 97.117106 61.274435 97.117106 61.274435 
C 97.117106 61.274435 97.117106 61.274435 97.117106 61.274435 
C 97.117106 61.274435 97.117106 61.274435 97.117106 61.274435 
C 97.117106 61.274435 97.117106 61.274435 97.117106 61.274435 
C 97.117106 61.274435 97.117106 61.274435 97.117106 61.274435 
C 97.117106 61.274435 97.117106 61.274435 97.117106 61.274435 
C 97.117106 61.274435 97.117106 61.274435 97.117106 61.274435 
C 97.117106 61.274435 97.117106 61.274435 97.117106 61.274435 
z
" clip-path="url(#pa2b729161a)" style="stroke: #000000"/>
    <path d="M 89.673569 48.7884 
C 89.673569 48.7884 89.673569 48.7884 89.673569 48.7884 
C 89.673569 48.7884 89.673569 48.7884 89.673569 48.7884 
C 89.673569 48.7884 89.673569 48.7884 89.673569 48.7884 
C 89.673569 48.7884 89.673569 48.7884 89.673569 48.7884 
C 89.673569 48.7884 89.673569 48.7884 89.673569 48.7884 
C 89.673569 48.7884 89.673569 48.7884 89.673569 48.7884 
C 89.673569 48.7884 89.673569 48.7884 89.673569 48.7884 
C 89.673569 48.7884 89.673569 48.7884 89.673569 48.7884 
z
" clip-path="url(#pa2b729161a)" style="stroke: #000000"/>
    <path d="M 90.757796 40.922732 
C 90.757796 40.922732 90.757796 40.922732 90.757796 40.922732 
C 90.757796 40.922732 90.757796 40.922732 90.757796 40.922732 
C 90.757796 40.922732 90.757796 40.922732 90.757796 40.922732 
C 90.757796 40.922732 90.757796 40.922732 90.757796 40.922732 
C 90.757796 40.922732 90.757796 40.922732 90.757796 40.922732 
C 90.757796 40.922732 90.757796 40.922732 90.757796 40.922732 
C 90.757796 40.922732 90.757796 40.922732 90.757796 40.922732 
C 90.757796 40.922732 90.757796 40.922732 90.757796 40.922732 
z
" clip-path="url(#pa2b729161a)" style="stroke: #000000"/>
    <path d="M 121.518551 164.194924 
C 121.897571 164.194924 122.261117 164.044338 122.529124 163.776331 
C 122.797132 163.508324 122.947718 163.144777 122.947718 162.765757 
C 122.947718 162.386738 122.797132 162.023191 122.529124 161.755184 
C 122.261117 161.487177 121.897571 161.336591 121.518551 161.336591 
C 121.139532 161.336591 120.775985 161.487177 120.507978 161.755184 
C 120.239971 162.023191 120.089385 162.386738 120.089385 162.765757 
C 120.089385 163.144777 120.239971 163.508324 120.507978 163.776331 
C 120.775985 164.044338 121.139532 164.194924 121.518551 164.194924 
z
" clip-path="url(#pa2b729161a)" style="stroke: #000000"/>
    <path d="M 118.304063 152.507452 
C 118.723648 152.507452 119.126104 152.340749 119.422795 152.044058 
C 119.719486 151.747367 119.886189 151.344911 119.886189 150.925326 
C 119.886189 150.505741 119.719486 150.103285 119.422795 149.806594 
C 119.126104 149.509903 118.723648 149.3432 118.304063 149.3432 
C 117.884478 149.3432 117.482022 149.509903 117.185331 149.806594 
C 116.88864 150.103285 116.721937 150.505741 116.721937 150.925326 
C 116.721937 151.344911 116.88864 151.747367 117.185331 152.044058 
C 117.482022 152.340749 117.884478 152.507452 118.304063 152.507452 
z
" clip-path="url(#pa2b729161a)" style="stroke: #000000"/>
    <path d="M 115.75123 147.242876 
C 116.170815 147.242876 116.573271 147.076173 116.869962 146.779482 
C 117.166653 146.482791 117.333356 146.080335 117.333356 145.66075 
C 117.333356 145.241165 117.166653 144.838709 116.869962 144.542018 
C 116.573271 144.245327 116.170815 144.078624 115.75123 144.078624 
C 115.331645 144.078624 114.929189 144.245327 114.632498 144.542018 
C 114.335807 144.838709 114.169104 145.241165 114.169104 145.66075 
C 114.169104 146.080335 114.335807 146.482791 114.632498 146.779482 
C 114.929189 147.076173 115.331645 147.242876 115.75123 147.242876 
z
" clip-path="url(#pa2b729161a)" style="stroke: #000000"/>
    <path d="M 111.392564 132.54021 
C 111.812148 132.54021 112.214605 132.373507 112.511296 132.076816 
C 112.807987 131.780125 112.97469 131.377669 112.97469 130.958084 
C 112.97469 130.538499 112.807987 130.136043 112.511296 129.839352 
C 112.214605 129.54266 111.812148 129.375958 111.392564 129.375958 
C 110.972979 129.375958 110.570523 129.54266 110.273832 129.839352 
C 109.97714 130.136043 109.810438 130.538499 109.810438 130.958084 
C 109.810438 131.377669 109.97714 131.780125 110.273832 132.076816 
C 110.570523 132.373507 110.972979 132.54021 111.392564 132.54021 
z
" clip-path="url(#pa2b729161a)" style="stroke: #000000"/>
    <path d="M 106.044555 126.854982 
C 106.044555 126.854982 106.044555 126.854982 106.044555 126.854982 
C 106.044555 126.854982 106.044555 126.854982 106.044555 126.854982 
C 106.044555 126.854982 106.044555 126.854982 106.044555 126.854982 
C 106.044555 126.854982 106.044555 126.854982 106.044555 126.854982 
C 106.044555 126.854982 106.044555 126.854982 106.044555 126.854982 
C 106.044555 126.854982 106.044555 126.854982 106.044555 126.854982 
C 106.044555 126.854982 106.044555 126.854982 106.044555 126.854982 
C 106.044555 126.854982 106.044555 126.854982 106.044555 126.854982 
z
" clip-path="url(#pa2b729161a)" style="stroke: #000000"/>
    <path d="M 101.633862 116.172716 
C 102.013589 116.172716 102.377814 116.021849 102.646322 115.753341 
C 102.91483 115.484833 103.065697 115.120608 103.065697 114.740881 
C 103.065697 114.361153 102.91483 113.996928 102.646322 113.72842 
C 102.377814 113.459912 102.013589 113.309045 101.633862 113.309045 
C 101.254134 113.309045 100.889909 113.459912 100.621401 113.72842 
C 100.352893 113.996928 100.202026 114.361153 100.202026 114.740881 
C 100.202026 115.120608 100.352893 115.484833 100.621401 115.753341 
C 100.889909 116.021849 101.254134 116.172716 101.633862 116.172716 
z
" clip-path="url(#pa2b729161a)" style="stroke: #000000"/>
    <path d="M 100.470238 107.894226 
C 100.969056 107.894226 101.44751 107.696044 101.800227 107.343326 
C 102.152945 106.990609 102.351127 106.512155 102.351127 106.013337 
C 102.351127 105.514519 102.152945 105.036065 101.800227 104.683348 
C 101.44751 104.33063 100.969056 104.132448 100.470238 104.132448 
C 99.971421 104.132448 99.492966 104.33063 99.140249 104.683348 
C 98.787532 105.036065 98.589349 105.514519 98.589349 106.013337 
C 98.589349 106.512155 98.787532 106.990609 99.140249 107.343326 
C 99.492966 107.696044 99.971421 107.894226 100.470238 107.894226 
z
" clip-path="url(#pa2b729161a)" style="stroke: #000000"/>
    <path d="M 100.048044 89.381468 
C 100.048044 89.381468 100.048044 89.381468 100.048044 89.381468 
C 100.048044 89.381468 100.048044 89.381468 100.048044 89.381468 
C 100.048044 89.381468 100.048044 89.381468 100.048044 89.381468 
C 100.048044 89.381468 100.048044 89.381468 100.048044 89.381468 
C 100.048044 89.381468 100.048044 89.381468 100.048044 89.381468 
C 100.048044 89.381468 100.048044 89.381468 100.048044 89.381468 
C 100.048044 89.381468 100.048044 89.381468 100.048044 89.381468 
C 100.048044 89.381468 100.048044 89.381468 100.048044 89.381468 
z
" clip-path="url(#pa2b729161a)" style="stroke: #000000"/>
    <path d="M 93.719543 82.127607 
C 94.139127 82.127607 94.541583 81.960904 94.838275 81.664213 
C 95.134966 81.367522 95.301669 80.965065 95.301669 80.545481 
C 95.301669 80.125896 95.134966 79.72344 94.838275 79.426749 
C 94.541583 79.130057 94.139127 78.963355 93.719543 78.963355 
C 93.299958 78.963355 92.897502 79.130057 92.60081 79.426749 
C 92.304119 79.72344 92.137416 80.125896 92.137416 80.545481 
C 92.137416 80.965065 92.304119 81.367522 92.60081 81.664213 
C 92.897502 81.960904 93.299958 82.127607 93.719543 82.127607 
z
" clip-path="url(#pa2b729161a)" style="stroke: #000000"/>
    <path d="M 88.999529 72.703829 
C 89.419114 72.703829 89.82157 72.537126 90.118262 72.240435 
C 90.414953 71.943743 90.581656 71.541287 90.581656 71.121703 
C 90.581656 70.702118 90.414953 70.299662 90.118262 70.00297 
C 89.82157 69.706279 89.419114 69.539576 88.999529 69.539576 
C 88.579945 69.539576 88.177489 69.706279 87.880797 70.00297 
C 87.584106 70.299662 87.417403 70.702118 87.417403 71.121703 
C 87.417403 71.541287 87.584106 71.943743 87.880797 72.240435 
C 88.177489 72.537126 88.579945 72.703829 88.999529 72.703829 
z
" clip-path="url(#pa2b729161a)" style="stroke: #000000"/>
    <path d="M 89.433889 63.401747 
C 89.433889 63.401747 89.433889 63.401747 89.433889 63.401747 
C 89.433889 63.401747 89.433889 63.401747 89.433889 63.401747 
C 89.433889 63.401747 89.433889 63.401747 89.433889 63.401747 
C 89.433889 63.401747 89.433889 63.401747 89.433889 63.401747 
C 89.433889 63.401747 89.433889 63.401747 89.433889 63.401747 
C 89.433889 63.401747 89.433889 63.401747 89.433889 63.401747 
C 89.433889 63.401747 89.433889 63.401747 89.433889 63.401747 
C 89.433889 63.401747 89.433889 63.401747 89.433889 63.401747 
z
" clip-path="url(#pa2b729161a)" style="stroke: #000000"/>
    <path d="M 79.252569 49.795494 
C 79.671892 49.795494 80.074097 49.628895 80.370603 49.332389 
C 80.667109 49.035883 80.833707 48.633678 80.833707 48.214355 
C 80.833707 47.795032 80.667109 47.392827 80.370603 47.096321 
C 80.074097 46.799815 79.671892 46.633216 79.252569 46.633216 
C 78.833246 46.633216 78.431041 46.799815 78.134535 47.096321 
C 77.838029 47.392827 77.67143 47.795032 77.67143 48.214355 
C 77.67143 48.633678 77.838029 49.035883 78.134535 49.332389 
C 78.431041 49.628895 78.833246 49.795494 79.252569 49.795494 
z
" clip-path="url(#pa2b729161a)" style="stroke: #000000"/>
    <path d="M 74.239289 42.245312 
C 74.239289 42.245312 74.239289 42.245312 74.239289 42.245312 
C 74.239289 42.245312 74.239289 42.245312 74.239289 42.245312 
C 74.239289 42.245312 74.239289 42.245312 74.239289 42.245312 
C 74.239289 42.245312 74.239289 42.245312 74.239289 42.245312 
C 74.239289 42.245312 74.239289 42.245312 74.239289 42.245312 
C 74.239289 42.245312 74.239289 42.245312 74.239289 42.245312 
C 74.239289 42.245312 74.239289 42.245312 74.239289 42.245312 
C 74.239289 42.245312 74.239289 42.245312 74.239289 42.245312 
z
" clip-path="url(#pa2b729161a)" style="stroke: #000000"/>
    <path d="M 71.636774 31.333495 
C 71.636774 31.333495 71.636774 31.333495 71.636774 31.333495 
C 71.636774 31.333495 71.636774 31.333495 71.636774 31.333495 
C 71.636774 31.333495 71.636774 31.333495 71.636774 31.333495 
C 71.636774 31.333495 71.636774 31.333495 71.636774 31.333495 
C 71.636774 31.333495 71.636774 31.333495 71.636774 31.333495 
C 71.636774 31.333495 71.636774 31.333495 71.636774 31.333495 
C 71.636774 31.333495 71.636774 31.333495 71.636774 31.333495 
C 71.636774 31.333495 71.636774 31.333495 71.636774 31.333495 
z
" clip-path="url(#pa2b729161a)" style="stroke: #000000"/>
    <path d="M 111.345915 169.556559 
C 111.724934 169.556559 112.088481 169.405973 112.356488 169.137966 
C 112.624495 168.869959 112.775081 168.506412 112.775081 168.127393 
C 112.775081 167.748373 112.624495 167.384826 112.356488 167.116819 
C 112.088481 166.848812 111.724934 166.698226 111.345915 166.698226 
C 110.966895 166.698226 110.603349 166.848812 110.335341 167.116819 
C 110.067334 167.384826 109.916748 167.748373 109.916748 168.127393 
C 109.916748 168.506412 110.067334 168.869959 110.335341 169.137966 
C 110.603349 169.405973 110.966895 169.556559 111.345915 169.556559 
z
" clip-path="url(#pa2b729161a)" style="stroke: #000000"/>
    <path d="M 108.52038 157.014772 
C 108.80756 157.014772 109.083017 156.900674 109.286084 156.697607 
C 109.489151 156.49454 109.603249 156.219083 109.603249 155.931903 
C 109.603249 155.644723 109.489151 155.369267 109.286084 155.1662 
C 109.083017 154.963133 108.80756 154.849035 108.52038 154.849035 
C 108.2332 154.849035 107.957744 154.963133 107.754677 155.1662 
C 107.55161 155.369267 107.437512 155.644723 107.437512 155.931903 
C 107.437512 156.219083 107.55161 156.49454 107.754677 156.697607 
C 107.957744 156.900674 108.2332 157.014772 108.52038 157.014772 
z
" clip-path="url(#pa2b729161a)" style="stroke: #000000"/>
    <path d="M 100.232091 141.366653 
C 100.232091 141.366653 100.232091 141.366653 100.232091 141.366653 
C 100.232091 141.366653 100.232091 141.366653 100.232091 141.366653 
C 100.232091 141.366653 100.232091 141.366653 100.232091 141.366653 
C 100.232091 141.366653 100.232091 141.366653 100.232091 141.366653 
C 100.232091 141.366653 100.232091 141.366653 100.232091 141.366653 
C 100.232091 141.366653 100.232091 141.366653 100.232091 141.366653 
C 100.232091 141.366653 100.232091 141.366653 100.232091 141.366653 
C 100.232091 141.366653 100.232091 141.366653 100.232091 141.366653 
z
" clip-path="url(#pa2b729161a)" style="stroke: #000000"/>
    <path d="M 99.715196 141.269559 
C 100.13478 141.269559 100.537236 141.102856 100.833928 140.806165 
C 101.130619 140.509474 101.297322 140.107018 101.297322 139.687433 
C 101.297322 139.267848 101.130619 138.865392 100.833928 138.568701 
C 100.537236 138.27201 100.13478 138.105307 99.715196 138.105307 
C 99.295611 138.105307 98.893155 138.27201 98.596463 138.568701 
C 98.299772 138.865392 98.133069 139.267848 98.133069 139.687433 
C 98.133069 140.107018 98.299772 140.509474 98.596463 140.806165 
C 98.893155 141.102856 99.295611 141.269559 99.715196 141.269559 
z
" clip-path="url(#pa2b729161a)" style="stroke: #000000"/>
    <path d="M 93.402746 133.073134 
C 93.402746 133.073134 93.402746 133.073134 93.402746 133.073134 
C 93.402746 133.073134 93.402746 133.073134 93.402746 133.073134 
C 93.402746 133.073134 93.402746 133.073134 93.402746 133.073134 
C 93.402746 133.073134 93.402746 133.073134 93.402746 133.073134 
C 93.402746 133.073134 93.402746 133.073134 93.402746 133.073134 
C 93.402746 133.073134 93.402746 133.073134 93.402746 133.073134 
C 93.402746 133.073134 93.402746 133.073134 93.402746 133.073134 
C 93.402746 133.073134 93.402746 133.073134 93.402746 133.073134 
z
" clip-path="url(#pa2b729161a)" style="stroke: #000000"/>
    <path d="M 92.366574 120.189917 
C 92.865392 120.189917 93.343846 119.991735 93.696563 119.639017 
C 94.049281 119.2863 94.247463 118.807846 94.247463 118.309028 
C 94.247463 117.810211 94.049281 117.331756 93.696563 116.979039 
C 93.343846 116.626322 92.865392 116.428139 92.366574 116.428139 
C 91.867757 116.428139 91.389302 116.626322 91.036585 116.979039 
C 90.683868 117.331756 90.485685 117.810211 90.485685 118.309028 
C 90.485685 118.807846 90.683868 119.2863 91.036585 119.639017 
C 91.389302 119.991735 91.867757 120.189917 92.366574 120.189917 
z
" clip-path="url(#pa2b729161a)" style="stroke: #000000"/>
    <path d="M 91.04247 112.266104 
C 91.541287 112.266104 92.019742 112.067922 92.372459 111.715205 
C 92.725176 111.362487 92.923359 110.884033 92.923359 110.385215 
C 92.923359 109.886398 92.725176 109.407943 92.372459 109.055226 
C 92.019742 108.702509 91.541287 108.504326 91.04247 108.504326 
C 90.543652 108.504326 90.065198 108.702509 89.71248 109.055226 
C 89.359763 109.407943 89.161581 109.886398 89.161581 110.385215 
C 89.161581 110.884033 89.359763 111.362487 89.71248 111.715205 
C 90.065198 112.067922 90.543652 112.266104 91.04247 112.266104 
z
" clip-path="url(#pa2b729161a)" style="stroke: #000000"/>
    <path d="M 86.210067 97.035762 
C 86.708885 97.035762 87.187339 96.83758 87.540056 96.484863 
C 87.892774 96.132146 88.090956 95.653691 88.090956 95.154874 
C 88.090956 94.656056 87.892774 94.177602 87.540056 93.824884 
C 87.187339 93.472167 86.708885 93.273985 86.210067 93.273985 
C 85.711249 93.273985 85.232795 93.472167 84.880078 93.824884 
C 84.52736 94.177602 84.329178 94.656056 84.329178 95.154874 
C 84.329178 95.653691 84.52736 96.132146 84.880078 96.484863 
C 85.232795 96.83758 85.711249 97.035762 86.210067 97.035762 
z
" clip-path="url(#pa2b729161a)" style="stroke: #000000"/>
    <path d="M 80.865386 87.476243 
C 81.364203 87.476243 81.842658 87.278061 82.195375 86.925344 
C 82.548092 86.572626 82.746274 86.094172 82.746274 85.595354 
C 82.746274 85.096537 82.548092 84.618082 82.195375 84.265365 
C 81.842658 83.912648 81.364203 83.714465 80.865386 83.714465 
C 80.366568 83.714465 79.888114 83.912648 79.535396 84.265365 
C 79.182679 84.618082 78.984497 85.096537 78.984497 85.595354 
C 78.984497 86.094172 79.182679 86.572626 79.535396 86.925344 
C 79.888114 87.278061 80.366568 87.476243 80.865386 87.476243 
z
" clip-path="url(#pa2b729161a)" style="stroke: #000000"/>
    <path d="M 80.918233 77.312927 
C 81.297607 77.312927 81.661494 77.162201 81.929752 76.893943 
C 82.198009 76.625685 82.348736 76.261798 82.348736 75.882425 
C 82.348736 75.503051 82.198009 75.139164 81.929752 74.870906 
C 81.661494 74.602649 81.297607 74.451922 80.918233 74.451922 
C 80.53886 74.451922 80.174973 74.602649 79.906715 74.870906 
C 79.638457 75.139164 79.487731 75.503051 79.487731 75.882425 
C 79.487731 76.261798 79.638457 76.625685 79.906715 76.893943 
C 80.174973 77.162201 80.53886 77.312927 80.918233 77.312927 
z
" clip-path="url(#pa2b729161a)" style="stroke: #000000"/>
    <path d="M 70.908877 67.01898 
C 71.328462 67.01898 71.730918 66.852277 72.027609 66.555586 
C 72.3243 66.258894 72.491003 65.856438 72.491003 65.436853 
C 72.491003 65.017269 72.3243 64.614813 72.027609 64.318121 
C 71.730918 64.02143 71.328462 63.854727 70.908877 63.854727 
C 70.489292 63.854727 70.086836 64.02143 69.790145 64.318121 
C 69.493454 64.614813 69.326751 65.017269 69.326751 65.436853 
C 69.326751 65.856438 69.493454 66.258894 69.790145 66.555586 
C 70.086836 66.852277 70.489292 67.01898 70.908877 67.01898 
z
" clip-path="url(#pa2b729161a)" style="stroke: #000000"/>
    <path d="M 72.88986 53.788717 
C 73.309183 53.788717 73.711388 53.622118 74.007894 53.325612 
C 74.3044 53.029106 74.470999 52.626901 74.470999 52.207578 
C 74.470999 51.788255 74.3044 51.38605 74.007894 51.089544 
C 73.711388 50.793038 73.309183 50.626439 72.88986 50.626439 
C 72.470537 50.626439 72.068332 50.793038 71.771826 51.089544 
C 71.47532 51.38605 71.308721 51.788255 71.308721 52.207578 
C 71.308721 52.626901 71.47532 53.029106 71.771826 53.325612 
C 72.068332 53.622118 72.470537 53.788717 72.88986 53.788717 
z
" clip-path="url(#pa2b729161a)" style="stroke: #000000"/>
    <path d="M 68.427357 43.730929 
C 68.427357 43.730929 68.427357 43.730929 68.427357 43.730929 
C 68.427357 43.730929 68.427357 43.730929 68.427357 43.730929 
C 68.427357 43.730929 68.427357 43.730929 68.427357 43.730929 
C 68.427357 43.730929 68.427357 43.730929 68.427357 43.730929 
C 68.427357 43.730929 68.427357 43.730929 68.427357 43.730929 
C 68.427357 43.730929 68.427357 43.730929 68.427357 43.730929 
C 68.427357 43.730929 68.427357 43.730929 68.427357 43.730929 
C 68.427357 43.730929 68.427357 43.730929 68.427357 43.730929 
z
" clip-path="url(#pa2b729161a)" style="stroke: #000000"/>
    <path d="M 64.274769 37.041536 
C 64.274769 37.041536 64.274769 37.041536 64.274769 37.041536 
C 64.274769 37.041536 64.274769 37.041536 64.274769 37.041536 
C 64.274769 37.041536 64.274769 37.041536 64.274769 37.041536 
C 64.274769 37.041536 64.274769 37.041536 64.274769 37.041536 
C 64.274769 37.041536 64.274769 37.041536 64.274769 37.041536 
C 64.274769 37.041536 64.274769 37.041536 64.274769 37.041536 
C 64.274769 37.041536 64.274769 37.041536 64.274769 37.041536 
C 64.274769 37.041536 64.274769 37.041536 64.274769 37.041536 
z
" clip-path="url(#pa2b729161a)" style="stroke: #000000"/>
    <path d="M 100.464581 170.380679 
C 100.464581 170.380679 100.464581 170.380679 100.464581 170.380679 
C 100.464581 170.380679 100.464581 170.380679 100.464581 170.380679 
C 100.464581 170.380679 100.464581 170.380679 100.464581 170.380679 
C 100.464581 170.380679 100.464581 170.380679 100.464581 170.380679 
C 100.464581 170.380679 100.464581 170.380679 100.464581 170.380679 
C 100.464581 170.380679 100.464581 170.380679 100.464581 170.380679 
C 100.464581 170.380679 100.464581 170.380679 100.464581 170.380679 
C 100.464581 170.380679 100.464581 170.380679 100.464581 170.380679 
z
" clip-path="url(#pa2b729161a)" style="stroke: #000000"/>
    <path d="M 92.175862 162.029608 
C 92.549071 162.029608 92.907044 161.881331 93.170943 161.617432 
C 93.434841 161.353533 93.583119 160.99556 93.583119 160.622351 
C 93.583119 160.249142 93.434841 159.891169 93.170943 159.62727 
C 92.907044 159.363371 92.549071 159.215094 92.175862 159.215094 
C 91.802653 159.215094 91.444679 159.363371 91.180781 159.62727 
C 90.916882 159.891169 90.768605 160.249142 90.768605 160.622351 
C 90.768605 160.99556 90.916882 161.353533 91.180781 161.617432 
C 91.444679 161.881331 91.802653 162.029608 92.175862 162.029608 
z
" clip-path="url(#pa2b729161a)" style="stroke: #000000"/>
    <path d="M 92.185613 154.210877 
C 92.605198 154.210877 93.007654 154.044174 93.304345 153.747483 
C 93.601036 153.450792 93.767739 153.048336 93.767739 152.628751 
C 93.767739 152.209166 93.601036 151.80671 93.304345 151.510019 
C 93.007654 151.213327 92.605198 151.046625 92.185613 151.046625 
C 91.766028 151.046625 91.363572 151.213327 91.066881 151.510019 
C 90.770189 151.80671 90.603487 152.209166 90.603487 152.628751 
C 90.603487 153.048336 90.770189 153.450792 91.066881 153.747483 
C 91.363572 154.044174 91.766028 154.210877 92.185613 154.210877 
z
" clip-path="url(#pa2b729161a)" style="stroke: #000000"/>
    <path d="M 91.374515 144.012931 
C 91.793838 144.012931 92.196043 143.846332 92.492549 143.549826 
C 92.789055 143.25332 92.955654 142.851115 92.955654 142.431792 
C 92.955654 142.012469 92.789055 141.610264 92.492549 141.313758 
C 92.196043 141.017252 91.793838 140.850654 91.374515 140.850654 
C 90.955192 140.850654 90.552987 141.017252 90.256481 141.313758 
C 89.959975 141.610264 89.793376 142.012469 89.793376 142.431792 
C 89.793376 142.851115 89.959975 143.25332 90.256481 143.549826 
C 90.552987 143.846332 90.955192 144.012931 91.374515 144.012931 
z
" clip-path="url(#pa2b729161a)" style="stroke: #000000"/>
    <path d="M 80.497144 134.123416 
C 80.995962 134.123416 81.474416 133.925234 81.827134 133.572517 
C 82.179851 133.219799 82.378033 132.741345 82.378033 132.242527 
C 82.378033 131.74371 82.179851 131.265255 81.827134 130.912538 
C 81.474416 130.559821 80.995962 130.361638 80.497144 130.361638 
C 79.998327 130.361638 79.519872 130.559821 79.167155 130.912538 
C 78.814438 131.265255 78.616256 131.74371 78.616256 132.242527 
C 78.616256 132.741345 78.814438 133.219799 79.167155 133.572517 
C 79.519872 133.925234 79.998327 134.123416 80.497144 134.123416 
z
" clip-path="url(#pa2b729161a)" style="stroke: #000000"/>
    <path d="M 81.342017 118.194385 
C 81.840834 118.194385 82.319289 117.996202 82.672006 117.643485 
C 83.024723 117.290768 83.222906 116.812313 83.222906 116.313496 
C 83.222906 115.814678 83.024723 115.336224 82.672006 114.983507 
C 82.319289 114.630789 81.840834 114.432607 81.342017 114.432607 
C 80.843199 114.432607 80.364745 114.630789 80.012027 114.983507 
C 79.65931 115.336224 79.461128 115.814678 79.461128 116.313496 
C 79.461128 116.812313 79.65931 117.290768 80.012027 117.643485 
C 80.364745 117.996202 80.843199 118.194385 81.342017 118.194385 
z
" clip-path="url(#pa2b729161a)" style="stroke: #000000"/>
    <path d="M 83.81422 111.034609 
C 84.264952 111.034609 84.697285 110.855531 85.016001 110.536815 
C 85.334717 110.218098 85.513795 109.785766 85.513795 109.335034 
C 85.513795 108.884301 85.334717 108.451969 85.016001 108.133253 
C 84.697285 107.814537 84.264952 107.635459 83.81422 107.635459 
C 83.363487 107.635459 82.931155 107.814537 82.612439 108.133253 
C 82.293723 108.451969 82.114645 108.884301 82.114645 109.335034 
C 82.114645 109.785766 82.293723 110.218098 82.612439 110.536815 
C 82.931155 110.855531 83.363487 111.034609 83.81422 111.034609 
z
" clip-path="url(#pa2b729161a)" style="stroke: #000000"/>
    <path d="M 73.18703 101.549215 
C 73.582668 101.549215 73.962155 101.392026 74.241914 101.112268 
C 74.521673 100.832509 74.678861 100.453022 74.678861 100.057383 
C 74.678861 99.661745 74.521673 99.282258 74.241914 99.002499 
C 73.962155 98.72274 73.582668 98.565552 73.18703 98.565552 
C 72.791391 98.565552 72.411904 98.72274 72.132145 99.002499 
C 71.852387 99.282258 71.695198 99.661745 71.695198 100.057383 
C 71.695198 100.453022 71.852387 100.832509 72.132145 101.112268 
C 72.411904 101.392026 72.791391 101.549215 73.18703 101.549215 
z
" clip-path="url(#pa2b729161a)" style="stroke: #000000"/>
    <path d="M 72.173569 91.59739 
C 72.672387 91.59739 73.150841 91.399208 73.503559 91.046491 
C 73.856276 90.693773 74.054458 90.215319 74.054458 89.716501 
C 74.054458 89.217684 73.856276 88.739229 73.503559 88.386512 
C 73.150841 88.033795 72.672387 87.835613 72.173569 87.835613 
C 71.674752 87.835613 71.196297 88.033795 70.84358 88.386512 
C 70.490863 88.739229 70.29268 89.217684 70.29268 89.716501 
C 70.29268 90.215319 70.490863 90.693773 70.84358 91.046491 
C 71.196297 91.399208 71.674752 91.59739 72.173569 91.59739 
z
" clip-path="url(#pa2b729161a)" style="stroke: #000000"/>
    <path d="M 65.575033 82.879782 
C 66.073851 82.879782 66.552305 82.681599 66.905022 82.328882 
C 67.25774 81.976165 67.455922 81.49771 67.455922 80.998893 
C 67.455922 80.500075 67.25774 80.021621 66.905022 79.668903 
C 66.552305 79.316186 66.073851 79.118004 65.575033 79.118004 
C 65.076216 79.118004 64.597761 79.316186 64.245044 79.668903 
C 63.892327 80.021621 63.694144 80.500075 63.694144 80.998893 
C 63.694144 81.49771 63.892327 81.976165 64.245044 82.328882 
C 64.597761 82.681599 65.076216 82.879782 65.575033 82.879782 
z
" clip-path="url(#pa2b729161a)" style="stroke: #000000"/>
    <path d="M 66.95024 66.26514 
C 66.95024 66.26514 66.95024 66.26514 66.95024 66.26514 
C 66.95024 66.26514 66.95024 66.26514 66.95024 66.26514 
C 66.95024 66.26514 66.95024 66.26514 66.95024 66.26514 
C 66.95024 66.26514 66.95024 66.26514 66.95024 66.26514 
C 66.95024 66.26514 66.95024 66.26514 66.95024 66.26514 
C 66.95024 66.26514 66.95024 66.26514 66.95024 66.26514 
C 66.95024 66.26514 66.95024 66.26514 66.95024 66.26514 
C 66.95024 66.26514 66.95024 66.26514 66.95024 66.26514 
z
" clip-path="url(#pa2b729161a)" style="stroke: #000000"/>
    <path d="M 61.437974 57.820577 
C 61.437974 57.820577 61.437974 57.820577 61.437974 57.820577 
C 61.437974 57.820577 61.437974 57.820577 61.437974 57.820577 
C 61.437974 57.820577 61.437974 57.820577 61.437974 57.820577 
C 61.437974 57.820577 61.437974 57.820577 61.437974 57.820577 
C 61.437974 57.820577 61.437974 57.820577 61.437974 57.820577 
C 61.437974 57.820577 61.437974 57.820577 61.437974 57.820577 
C 61.437974 57.820577 61.437974 57.820577 61.437974 57.820577 
C 61.437974 57.820577 61.437974 57.820577 61.437974 57.820577 
z
" clip-path="url(#pa2b729161a)" style="stroke: #000000"/>
    <path d="M 55.517388 49.475661 
C 55.936711 49.475661 56.338916 49.309062 56.635422 49.012556 
C 56.931928 48.71605 57.098526 48.313845 57.098526 47.894522 
C 57.098526 47.475199 56.931928 47.072994 56.635422 46.776488 
C 56.338916 46.479982 55.936711 46.313383 55.517388 46.313383 
C 55.098065 46.313383 54.69586 46.479982 54.399354 46.776488 
C 54.102848 47.072994 53.936249 47.475199 53.936249 47.894522 
C 53.936249 48.313845 54.102848 48.71605 54.399354 49.012556 
C 54.69586 49.309062 55.098065 49.475661 55.517388 49.475661 
z
" clip-path="url(#pa2b729161a)" style="stroke: #000000"/>
    <path d="M 56.958703 38.681238 
C 56.958703 38.681238 56.958703 38.681238 56.958703 38.681238 
C 56.958703 38.681238 56.958703 38.681238 56.958703 38.681238 
C 56.958703 38.681238 56.958703 38.681238 56.958703 38.681238 
C 56.958703 38.681238 56.958703 38.681238 56.958703 38.681238 
C 56.958703 38.681238 56.958703 38.681238 56.958703 38.681238 
C 56.958703 38.681238 56.958703 38.681238 56.958703 38.681238 
C 56.958703 38.681238 56.958703 38.681238 56.958703 38.681238 
C 56.958703 38.681238 56.958703 38.681238 56.958703 38.681238 
z
" clip-path="url(#pa2b729161a)" style="stroke: #000000"/>
    <path d="M 89.757737 178.074859 
C 89.757737 178.074859 89.757737 178.074859 89.757737 178.074859 
C 89.757737 178.074859 89.757737 178.074859 89.757737 178.074859 
C 89.757737 178.074859 89.757737 178.074859 89.757737 178.074859 
C 89.757737 178.074859 89.757737 178.074859 89.757737 178.074859 
C 89.757737 178.074859 89.757737 178.074859 89.757737 178.074859 
C 89.757737 178.074859 89.757737 178.074859 89.757737 178.074859 
C 89.757737 178.074859 89.757737 178.074859 89.757737 178.074859 
C 89.757737 178.074859 89.757737 178.074859 89.757737 178.074859 
z
" clip-path="url(#pa2b729161a)" style="stroke: #000000"/>
    <path d="M 86.863189 165.504217 
C 86.863189 165.504217 86.863189 165.504217 86.863189 165.504217 
C 86.863189 165.504217 86.863189 165.504217 86.863189 165.504217 
C 86.863189 165.504217 86.863189 165.504217 86.863189 165.504217 
C 86.863189 165.504217 86.863189 165.504217 86.863189 165.504217 
C 86.863189 165.504217 86.863189 165.504217 86.863189 165.504217 
C 86.863189 165.504217 86.863189 165.504217 86.863189 165.504217 
C 86.863189 165.504217 86.863189 165.504217 86.863189 165.504217 
C 86.863189 165.504217 86.863189 165.504217 86.863189 165.504217 
z
" clip-path="url(#pa2b729161a)" style="stroke: #000000"/>
    <path d="M 81.027426 153.715005 
C 81.44701 153.715005 81.849467 153.548302 82.146158 153.251611 
C 82.442849 152.954919 82.609552 152.552463 82.609552 152.132878 
C 82.609552 151.713294 82.442849 151.310838 82.146158 151.014146 
C 81.849467 150.717455 81.44701 150.550752 81.027426 150.550752 
C 80.607841 150.550752 80.205385 150.717455 79.908694 151.014146 
C 79.612002 151.310838 79.4453 151.713294 79.4453 152.132878 
C 79.4453 152.552463 79.612002 152.954919 79.908694 153.251611 
C 80.205385 153.548302 80.607841 153.715005 81.027426 153.715005 
z
" clip-path="url(#pa2b729161a)" style="stroke: #000000"/>
    <path d="M 78.241025 144.664297 
C 78.381234 144.664297 78.515719 144.608592 78.614862 144.509449 
C 78.714005 144.410306 78.76971 144.275821 78.76971 144.135612 
C 78.76971 143.995403 78.714005 143.860917 78.614862 143.761775 
C 78.515719 143.662632 78.381234 143.606926 78.241025 143.606926 
C 78.100816 143.606926 77.96633 143.662632 77.867188 143.761775 
C 77.768045 143.860917 77.712339 143.995403 77.712339 144.135612 
C 77.712339 144.275821 77.768045 144.410306 77.867188 144.509449 
C 77.96633 144.608592 78.100816 144.664297 78.241025 144.664297 
z
" clip-path="url(#pa2b729161a)" style="stroke: #000000"/>
    <path d="M 76.7125 137.171971 
C 77.108761 137.171971 77.488845 137.014535 77.769044 136.734336 
C 78.049243 136.454137 78.206679 136.074053 78.206679 135.677792 
C 78.206679 135.281531 78.049243 134.901446 77.769044 134.621247 
C 77.488845 134.341049 77.108761 134.183612 76.7125 134.183612 
C 76.316239 134.183612 75.936154 134.341049 75.655955 134.621247 
C 75.375757 134.901446 75.21832 135.281531 75.21832 135.677792 
C 75.21832 136.074053 75.375757 136.454137 75.655955 136.734336 
C 75.936154 137.014535 76.316239 137.171971 76.7125 137.171971 
z
" clip-path="url(#pa2b729161a)" style="stroke: #000000"/>
    <path d="M 72.521853 124.644313 
C 72.940388 124.644313 73.341837 124.478028 73.637785 124.182079 
C 73.933734 123.886131 74.100019 123.484682 74.100019 123.066147 
C 74.100019 122.647613 73.933734 122.246164 73.637785 121.950216 
C 73.341837 121.654267 72.940388 121.487982 72.521853 121.487982 
C 72.103319 121.487982 71.70187 121.654267 71.405922 121.950216 
C 71.109973 122.246164 70.943688 122.647613 70.943688 123.066147 
C 70.943688 123.484682 71.109973 123.886131 71.405922 124.182079 
C 71.70187 124.478028 72.103319 124.644313 72.521853 124.644313 
z
" clip-path="url(#pa2b729161a)" style="stroke: #000000"/>
    <path d="M 69.476367 114.696588 
C 69.476367 114.696588 69.476367 114.696588 69.476367 114.696588 
C 69.476367 114.696588 69.476367 114.696588 69.476367 114.696588 
C 69.476367 114.696588 69.476367 114.696588 69.476367 114.696588 
C 69.476367 114.696588 69.476367 114.696588 69.476367 114.696588 
C 69.476367 114.696588 69.476367 114.696588 69.476367 114.696588 
C 69.476367 114.696588 69.476367 114.696588 69.476367 114.696588 
C 69.476367 114.696588 69.476367 114.696588 69.476367 114.696588 
C 69.476367 114.696588 69.476367 114.696588 69.476367 114.696588 
z
" clip-path="url(#pa2b729161a)" style="stroke: #000000"/>
    <path d="M 61.097651 101.539594 
C 61.097651 101.539594 61.097651 101.539594 61.097651 101.539594 
C 61.097651 101.539594 61.097651 101.539594 61.097651 101.539594 
C 61.097651 101.539594 61.097651 101.539594 61.097651 101.539594 
C 61.097651 101.539594 61.097651 101.539594 61.097651 101.539594 
C 61.097651 101.539594 61.097651 101.539594 61.097651 101.539594 
C 61.097651 101.539594 61.097651 101.539594 61.097651 101.539594 
C 61.097651 101.539594 61.097651 101.539594 61.097651 101.539594 
C 61.097651 101.539594 61.097651 101.539594 61.097651 101.539594 
z
" clip-path="url(#pa2b729161a)" style="stroke: #000000"/>
    <path d="M 61.461536 91.843139 
C 61.960354 91.843139 62.438808 91.644957 62.791525 91.29224 
C 63.144243 90.939522 63.342425 90.461068 63.342425 89.96225 
C 63.342425 89.463433 63.144243 88.984978 62.791525 88.632261 
C 62.438808 88.279544 61.960354 88.081362 61.461536 88.081362 
C 60.962719 88.081362 60.484264 88.279544 60.131547 88.632261 
C 59.77883 88.984978 59.580647 89.463433 59.580647 89.96225 
C 59.580647 90.461068 59.77883 90.939522 60.131547 91.29224 
C 60.484264 91.644957 60.962719 91.843139 61.461536 91.843139 
z
" clip-path="url(#pa2b729161a)" style="stroke: #000000"/>
    <path d="M 58.517769 82.445427 
C 59.016431 82.445427 59.494736 82.247307 59.847343 81.8947 
C 60.19995 81.542092 60.398071 81.063787 60.398071 80.565126 
C 60.398071 80.066464 60.19995 79.588159 59.847343 79.235552 
C 59.494736 78.882944 59.016431 78.684824 58.517769 78.684824 
C 58.019107 78.684824 57.540802 78.882944 57.188195 79.235552 
C 56.835588 79.588159 56.637468 80.066464 56.637468 80.565126 
C 56.637468 81.063787 56.835588 81.542092 57.188195 81.8947 
C 57.540802 82.247307 58.019107 82.445427 58.517769 82.445427 
z
" clip-path="url(#pa2b729161a)" style="stroke: #000000"/>
    <path d="M 52.409181 73.919991 
C 52.828765 73.919991 53.231221 73.753289 53.527913 73.456597 
C 53.824604 73.159906 53.991307 72.75745 53.991307 72.337865 
C 53.991307 71.91828 53.824604 71.515824 53.527913 71.219133 
C 53.231221 70.922442 52.828765 70.755739 52.409181 70.755739 
C 51.989596 70.755739 51.58714 70.922442 51.290448 71.219133 
C 50.993757 71.515824 50.827054 71.91828 50.827054 72.337865 
C 50.827054 72.75745 50.993757 73.159906 51.290448 73.456597 
C 51.58714 73.753289 51.989596 73.919991 52.409181 73.919991 
z
" clip-path="url(#pa2b729161a)" style="stroke: #000000"/>
    <path d="M 53.398705 61.774129 
C 53.818027 61.774129 54.220232 61.607531 54.516738 61.311025 
C 54.813245 61.014518 54.979843 60.612313 54.979843 60.192991 
C 54.979843 59.773668 54.813245 59.371463 54.516738 59.074957 
C 54.220232 58.77845 53.818027 58.611852 53.398705 58.611852 
C 52.979382 58.611852 52.577177 58.77845 52.280671 59.074957 
C 51.984164 59.371463 51.817566 59.773668 51.817566 60.192991 
C 51.817566 60.612313 51.984164 61.014518 52.280671 61.311025 
C 52.577177 61.607531 52.979382 61.774129 53.398705 61.774129 
z
" clip-path="url(#pa2b729161a)" style="stroke: #000000"/>
    <path d="M 46.787596 51.914042 
C 46.881359 51.914042 46.971295 51.87679 47.037596 51.810489 
C 47.103897 51.744188 47.141149 51.654252 47.141149 51.560489 
C 47.141149 51.466726 47.103897 51.37679 47.037596 51.310489 
C 46.971295 51.244188 46.881359 51.206936 46.787596 51.206936 
C 46.693832 51.206936 46.603897 51.244188 46.537596 51.310489 
C 46.471295 51.37679 46.434042 51.466726 46.434042 51.560489 
C 46.434042 51.654252 46.471295 51.744188 46.537596 51.810489 
C 46.603897 51.87679 46.693832 51.914042 46.787596 51.914042 
z
" clip-path="url(#pa2b729161a)" style="stroke: #000000"/>
    <path d="M 44.825303 38.88702 
C 44.825303 38.88702 44.825303 38.88702 44.825303 38.88702 
C 44.825303 38.88702 44.825303 38.88702 44.825303 38.88702 
C 44.825303 38.88702 44.825303 38.88702 44.825303 38.88702 
C 44.825303 38.88702 44.825303 38.88702 44.825303 38.88702 
C 44.825303 38.88702 44.825303 38.88702 44.825303 38.88702 
C 44.825303 38.88702 44.825303 38.88702 44.825303 38.88702 
C 44.825303 38.88702 44.825303 38.88702 44.825303 38.88702 
C 44.825303 38.88702 44.825303 38.88702 44.825303 38.88702 
z
" clip-path="url(#pa2b729161a)" style="stroke: #000000"/>
    <path d="M 79.710223 166.053735 
C 79.710223 166.053735 79.710223 166.053735 79.710223 166.053735 
C 79.710223 166.053735 79.710223 166.053735 79.710223 166.053735 
C 79.710223 166.053735 79.710223 166.053735 79.710223 166.053735 
C 79.710223 166.053735 79.710223 166.053735 79.710223 166.053735 
C 79.710223 166.053735 79.710223 166.053735 79.710223 166.053735 
C 79.710223 166.053735 79.710223 166.053735 79.710223 166.053735 
C 79.710223 166.053735 79.710223 166.053735 79.710223 166.053735 
C 79.710223 166.053735 79.710223 166.053735 79.710223 166.053735 
z
" clip-path="url(#pa2b729161a)" style="stroke: #000000"/>
    <path d="M 77.742937 157.077229 
C 77.742937 157.077229 77.742937 157.077229 77.742937 157.077229 
C 77.742937 157.077229 77.742937 157.077229 77.742937 157.077229 
C 77.742937 157.077229 77.742937 157.077229 77.742937 157.077229 
C 77.742937 157.077229 77.742937 157.077229 77.742937 157.077229 
C 77.742937 157.077229 77.742937 157.077229 77.742937 157.077229 
C 77.742937 157.077229 77.742937 157.077229 77.742937 157.077229 
C 77.742937 157.077229 77.742937 157.077229 77.742937 157.077229 
C 77.742937 157.077229 77.742937 157.077229 77.742937 157.077229 
z
" clip-path="url(#pa2b729161a)" style="stroke: #000000"/>
    <path d="M 68.714401 148.125125 
C 69.133986 148.125125 69.536442 147.958422 69.833133 147.661731 
C 70.129824 147.365039 70.296527 146.962583 70.296527 146.542998 
C 70.296527 146.123414 70.129824 145.720958 69.833133 145.424266 
C 69.536442 145.127575 69.133986 144.960872 68.714401 144.960872 
C 68.294816 144.960872 67.89236 145.127575 67.595669 145.424266 
C 67.298978 145.720958 67.132275 146.123414 67.132275 146.542998 
C 67.132275 146.962583 67.298978 147.365039 67.595669 147.661731 
C 67.89236 147.958422 68.294816 148.125125 68.714401 148.125125 
z
" clip-path="url(#pa2b729161a)" style="stroke: #000000"/>
    <path d="M 67.207368 137.353593 
C 67.706185 137.353593 68.18464 137.155411 68.537357 136.802694 
C 68.890074 136.449977 69.088257 135.971522 69.088257 135.472705 
C 69.088257 134.973887 68.890074 134.495433 68.537357 134.142715 
C 68.18464 133.789998 67.706185 133.591816 67.207368 133.591816 
C 66.70855 133.591816 66.230096 133.789998 65.877379 134.142715 
C 65.524661 134.495433 65.326479 134.973887 65.326479 135.472705 
C 65.326479 135.971522 65.524661 136.449977 65.877379 136.802694 
C 66.230096 137.155411 66.70855 137.353593 67.207368 137.353593 
z
" clip-path="url(#pa2b729161a)" style="stroke: #000000"/>
    <path d="M 60.835609 131.609117 
C 61.23218 131.609117 61.612562 131.451558 61.89298 131.17114 
C 62.173398 130.890722 62.330958 130.51034 62.330958 130.113768 
C 62.330958 129.717197 62.173398 129.336815 61.89298 129.056397 
C 61.612562 128.775979 61.23218 128.61842 60.835609 128.61842 
C 60.439038 128.61842 60.058656 128.775979 59.778238 129.056397 
C 59.49782 129.336815 59.34026 129.717197 59.34026 130.113768 
C 59.34026 130.51034 59.49782 130.890722 59.778238 131.17114 
C 60.058656 131.451558 60.439038 131.609117 60.835609 131.609117 
z
" clip-path="url(#pa2b729161a)" style="stroke: #000000"/>
    <path d="M 57.676418 116.107147 
C 57.770181 116.107147 57.860117 116.069895 57.926418 116.003594 
C 57.992718 115.937293 58.029971 115.847357 58.029971 115.753594 
C 58.029971 115.659831 57.992718 115.569895 57.926418 115.503594 
C 57.860117 115.437293 57.770181 115.400041 57.676418 115.400041 
C 57.582654 115.400041 57.492718 115.437293 57.426418 115.503594 
C 57.360117 115.569895 57.322864 115.659831 57.322864 115.753594 
C 57.322864 115.847357 57.360117 115.937293 57.426418 116.003594 
C 57.492718 116.069895 57.582654 116.107147 57.676418 116.107147 
z
" clip-path="url(#pa2b729161a)" style="stroke: #000000"/>
    <path d="M 52.17588 108.710471 
C 52.674698 108.710471 53.153152 108.512288 53.505869 108.159571 
C 53.858587 107.806854 54.056769 107.328399 54.056769 106.829582 
C 54.056769 106.330764 53.858587 105.85231 53.505869 105.499592 
C 53.153152 105.146875 52.674698 104.948693 52.17588 104.948693 
C 51.677062 104.948693 51.198608 105.146875 50.845891 105.499592 
C 50.493173 105.85231 50.294991 106.330764 50.294991 106.829582 
C 50.294991 107.328399 50.493173 107.806854 50.845891 108.159571 
C 51.198608 108.512288 51.677062 108.710471 52.17588 108.710471 
z
" clip-path="url(#pa2b729161a)" style="stroke: #000000"/>
    <path d="M 51.745791 100.38286 
C 51.745791 100.38286 51.745791 100.38286 51.745791 100.38286 
C 51.745791 100.38286 51.745791 100.38286 51.745791 100.38286 
C 51.745791 100.38286 51.745791 100.38286 51.745791 100.38286 
C 51.745791 100.38286 51.745791 100.38286 51.745791 100.38286 
C 51.745791 100.38286 51.745791 100.38286 51.745791 100.38286 
C 51.745791 100.38286 51.745791 100.38286 51.745791 100.38286 
C 51.745791 100.38286 51.745791 100.38286 51.745791 100.38286 
C 51.745791 100.38286 51.745791 100.38286 51.745791 100.38286 
z
" clip-path="url(#pa2b729161a)" style="stroke: #000000"/>
    <path d="M 50.226208 83.260977 
C 50.226208 83.260977 50.226208 83.260977 50.226208 83.260977 
C 50.226208 83.260977 50.226208 83.260977 50.226208 83.260977 
C 50.226208 83.260977 50.226208 83.260977 50.226208 83.260977 
C 50.226208 83.260977 50.226208 83.260977 50.226208 83.260977 
C 50.226208 83.260977 50.226208 83.260977 50.226208 83.260977 
C 50.226208 83.260977 50.226208 83.260977 50.226208 83.260977 
C 50.226208 83.260977 50.226208 83.260977 50.226208 83.260977 
C 50.226208 83.260977 50.226208 83.260977 50.226208 83.260977 
z
" clip-path="url(#pa2b729161a)" style="stroke: #000000"/>
    <path d="M 44.557253 78.210479 
C 44.976576 78.210479 45.378781 78.04388 45.675287 77.747374 
C 45.971793 77.450868 46.138392 77.048663 46.138392 76.62934 
C 46.138392 76.210017 45.971793 75.807812 45.675287 75.511306 
C 45.378781 75.2148 44.976576 75.048201 44.557253 75.048201 
C 44.13793 75.048201 43.735725 75.2148 43.439219 75.511306 
C 43.142713 75.807812 42.976114 76.210017 42.976114 76.62934 
C 42.976114 77.048663 43.142713 77.450868 43.439219 77.747374 
C 43.735725 78.04388 44.13793 78.210479 44.557253 78.210479 
z
" clip-path="url(#pa2b729161a)" style="stroke: #000000"/>
    <path d="M 39.013542 63.635638 
C 39.013542 63.635638 39.013542 63.635638 39.013542 63.635638 
C 39.013542 63.635638 39.013542 63.635638 39.013542 63.635638 
C 39.013542 63.635638 39.013542 63.635638 39.013542 63.635638 
C 39.013542 63.635638 39.013542 63.635638 39.013542 63.635638 
C 39.013542 63.635638 39.013542 63.635638 39.013542 63.635638 
C 39.013542 63.635638 39.013542 63.635638 39.013542 63.635638 
C 39.013542 63.635638 39.013542 63.635638 39.013542 63.635638 
C 39.013542 63.635638 39.013542 63.635638 39.013542 63.635638 
z
" clip-path="url(#pa2b729161a)" style="stroke: #000000"/>
    <path d="M 68.929396 170.53946 
C 68.929396 170.53946 68.929396 170.53946 68.929396 170.53946 
C 68.929396 170.53946 68.929396 170.53946 68.929396 170.53946 
C 68.929396 170.53946 68.929396 170.53946 68.929396 170.53946 
C 68.929396 170.53946 68.929396 170.53946 68.929396 170.53946 
C 68.929396 170.53946 68.929396 170.53946 68.929396 170.53946 
C 68.929396 170.53946 68.929396 170.53946 68.929396 170.53946 
C 68.929396 170.53946 68.929396 170.53946 68.929396 170.53946 
C 68.929396 170.53946 68.929396 170.53946 68.929396 170.53946 
z
" clip-path="url(#pa2b729161a)" style="stroke: #000000"/>
    <path d="M 64.219923 159.368705 
C 64.219923 159.368705 64.219923 159.368705 64.219923 159.368705 
C 64.219923 159.368705 64.219923 159.368705 64.219923 159.368705 
C 64.219923 159.368705 64.219923 159.368705 64.219923 159.368705 
C 64.219923 159.368705 64.219923 159.368705 64.219923 159.368705 
C 64.219923 159.368705 64.219923 159.368705 64.219923 159.368705 
C 64.219923 159.368705 64.219923 159.368705 64.219923 159.368705 
C 64.219923 159.368705 64.219923 159.368705 64.219923 159.368705 
C 64.219923 159.368705 64.219923 159.368705 64.219923 159.368705 
z
" clip-path="url(#pa2b729161a)" style="stroke: #000000"/>
    <path d="M 57.863299 149.873217 
C 58.282884 149.873217 58.68534 149.706514 58.982031 149.409823 
C 59.278722 149.113131 59.445425 148.710675 59.445425 148.291091 
C 59.445425 147.871506 59.278722 147.46905 58.982031 147.172358 
C 58.68534 146.875667 58.282884 146.708964 57.863299 146.708964 
C 57.443714 146.708964 57.041258 146.875667 56.744567 147.172358 
C 56.447876 147.46905 56.281173 147.871506 56.281173 148.291091 
C 56.281173 148.710675 56.447876 149.113131 56.744567 149.409823 
C 57.041258 149.706514 57.443714 149.873217 57.863299 149.873217 
z
" clip-path="url(#pa2b729161a)" style="stroke: #000000"/>
    <path d="M 56.042717 139.086987 
C 56.042717 139.086987 56.042717 139.086987 56.042717 139.086987 
C 56.042717 139.086987 56.042717 139.086987 56.042717 139.086987 
C 56.042717 139.086987 56.042717 139.086987 56.042717 139.086987 
C 56.042717 139.086987 56.042717 139.086987 56.042717 139.086987 
C 56.042717 139.086987 56.042717 139.086987 56.042717 139.086987 
C 56.042717 139.086987 56.042717 139.086987 56.042717 139.086987 
C 56.042717 139.086987 56.042717 139.086987 56.042717 139.086987 
C 56.042717 139.086987 56.042717 139.086987 56.042717 139.086987 
z
" clip-path="url(#pa2b729161a)" style="stroke: #000000"/>
    <path d="M 54.342304 132.179486 
C 54.64457 132.179486 54.934497 132.059395 55.148231 131.84566 
C 55.361965 131.631926 55.482057 131.341999 55.482057 131.039733 
C 55.482057 130.737466 55.361965 130.44754 55.148231 130.233805 
C 54.934497 130.020071 54.64457 129.899979 54.342304 129.899979 
C 54.040037 129.899979 53.750111 130.020071 53.536376 130.233805 
C 53.322642 130.44754 53.20255 130.737466 53.20255 131.039733 
C 53.20255 131.341999 53.322642 131.631926 53.536376 131.84566 
C 53.750111 132.059395 54.040037 132.179486 54.342304 132.179486 
z
" clip-path="url(#pa2b729161a)" style="stroke: #000000"/>
    <path d="M 43.348589 114.364665 
C 43.348589 114.364665 43.348589 114.364665 43.348589 114.364665 
C 43.348589 114.364665 43.348589 114.364665 43.348589 114.364665 
C 43.348589 114.364665 43.348589 114.364665 43.348589 114.364665 
C 43.348589 114.364665 43.348589 114.364665 43.348589 114.364665 
C 43.348589 114.364665 43.348589 114.364665 43.348589 114.364665 
C 43.348589 114.364665 43.348589 114.364665 43.348589 114.364665 
C 43.348589 114.364665 43.348589 114.364665 43.348589 114.364665 
C 43.348589 114.364665 43.348589 114.364665 43.348589 114.364665 
z
" clip-path="url(#pa2b729161a)" style="stroke: #000000"/>
    <path d="M 45.473648 114.863997 
C 45.473648 114.863997 45.473648 114.863997 45.473648 114.863997 
C 45.473648 114.863997 45.473648 114.863997 45.473648 114.863997 
C 45.473648 114.863997 45.473648 114.863997 45.473648 114.863997 
C 45.473648 114.863997 45.473648 114.863997 45.473648 114.863997 
C 45.473648 114.863997 45.473648 114.863997 45.473648 114.863997 
C 45.473648 114.863997 45.473648 114.863997 45.473648 114.863997 
C 45.473648 114.863997 45.473648 114.863997 45.473648 114.863997 
C 45.473648 114.863997 45.473648 114.863997 45.473648 114.863997 
z
" clip-path="url(#pa2b729161a)" style="stroke: #000000"/>
    <path d="M 37.878351 103.854504 
C 38.297674 103.854504 38.699879 103.687905 38.996385 103.391399 
C 39.292892 103.094893 39.45949 102.692688 39.45949 102.273365 
C 39.45949 101.854042 39.292892 101.451837 38.996385 101.155331 
C 38.699879 100.858825 38.297674 100.692226 37.878351 100.692226 
C 37.459029 100.692226 37.056824 100.858825 36.760317 101.155331 
C 36.463811 101.451837 36.297213 101.854042 36.297213 102.273365 
C 36.297213 102.692688 36.463811 103.094893 36.760317 103.391399 
C 37.056824 103.687905 37.459029 103.854504 37.878351 103.854504 
z
" clip-path="url(#pa2b729161a)" style="stroke: #000000"/>
    <path d="M 33.918557 90.021417 
C 33.918557 90.021417 33.918557 90.021417 33.918557 90.021417 
C 33.918557 90.021417 33.918557 90.021417 33.918557 90.021417 
C 33.918557 90.021417 33.918557 90.021417 33.918557 90.021417 
C 33.918557 90.021417 33.918557 90.021417 33.918557 90.021417 
C 33.918557 90.021417 33.918557 90.021417 33.918557 90.021417 
C 33.918557 90.021417 33.918557 90.021417 33.918557 90.021417 
C 33.918557 90.021417 33.918557 90.021417 33.918557 90.021417 
C 33.918557 90.021417 33.918557 90.021417 33.918557 90.021417 
z
" clip-path="url(#pa2b729161a)" style="stroke: #000000"/>
    <path d="M 53.312268 163.190468 
C 53.312268 163.190468 53.312268 163.190468 53.312268 163.190468 
C 53.312268 163.190468 53.312268 163.190468 53.312268 163.190468 
C 53.312268 163.190468 53.312268 163.190468 53.312268 163.190468 
C 53.312268 163.190468 53.312268 163.190468 53.312268 163.190468 
C 53.312268 163.190468 53.312268 163.190468 53.312268 163.190468 
C 53.312268 163.190468 53.312268 163.190468 53.312268 163.190468 
C 53.312268 163.190468 53.312268 163.190468 53.312268 163.190468 
C 53.312268 163.190468 53.312268 163.190468 53.312268 163.190468 
z
" clip-path="url(#pa2b729161a)" style="stroke: #000000"/>
    <path d="M 44.206203 157.59576 
C 44.206203 157.59576 44.206203 157.59576 44.206203 157.59576 
C 44.206203 157.59576 44.206203 157.59576 44.206203 157.59576 
C 44.206203 157.59576 44.206203 157.59576 44.206203 157.59576 
C 44.206203 157.59576 44.206203 157.59576 44.206203 157.59576 
C 44.206203 157.59576 44.206203 157.59576 44.206203 157.59576 
C 44.206203 157.59576 44.206203 157.59576 44.206203 157.59576 
C 44.206203 157.59576 44.206203 157.59576 44.206203 157.59576 
C 44.206203 157.59576 44.206203 157.59576 44.206203 157.59576 
z
" clip-path="url(#pa2b729161a)" style="stroke: #000000"/>
    <path d="M 44.60337 142.59951 
C 44.60337 142.59951 44.60337 142.59951 44.60337 142.59951 
C 44.60337 142.59951 44.60337 142.59951 44.60337 142.59951 
C 44.60337 142.59951 44.60337 142.59951 44.60337 142.59951 
C 44.60337 142.59951 44.60337 142.59951 44.60337 142.59951 
C 44.60337 142.59951 44.60337 142.59951 44.60337 142.59951 
C 44.60337 142.59951 44.60337 142.59951 44.60337 142.59951 
C 44.60337 142.59951 44.60337 142.59951 44.60337 142.59951 
C 44.60337 142.59951 44.60337 142.59951 44.60337 142.59951 
z
" clip-path="url(#pa2b729161a)" style="stroke: #000000"/>
    <path d="M 38.307459 132.771018 
C 38.307459 132.771018 38.307459 132.771018 38.307459 132.771018 
C 38.307459 132.771018 38.307459 132.771018 38.307459 132.771018 
C 38.307459 132.771018 38.307459 132.771018 38.307459 132.771018 
C 38.307459 132.771018 38.307459 132.771018 38.307459 132.771018 
C 38.307459 132.771018 38.307459 132.771018 38.307459 132.771018 
C 38.307459 132.771018 38.307459 132.771018 38.307459 132.771018 
C 38.307459 132.771018 38.307459 132.771018 38.307459 132.771018 
C 38.307459 132.771018 38.307459 132.771018 38.307459 132.771018 
z
" clip-path="url(#pa2b729161a)" style="stroke: #000000"/>
    <path d="M 37.397049 124.015392 
C 37.397049 124.015392 37.397049 124.015392 37.397049 124.015392 
C 37.397049 124.015392 37.397049 124.015392 37.397049 124.015392 
C 37.397049 124.015392 37.397049 124.015392 37.397049 124.015392 
C 37.397049 124.015392 37.397049 124.015392 37.397049 124.015392 
C 37.397049 124.015392 37.397049 124.015392 37.397049 124.015392 
C 37.397049 124.015392 37.397049 124.015392 37.397049 124.015392 
C 37.397049 124.015392 37.397049 124.015392 37.397049 124.015392 
C 37.397049 124.015392 37.397049 124.015392 37.397049 124.015392 
z
" clip-path="url(#pa2b729161a)" style="stroke: #000000"/>
    <path d="M 33.239392 116.109081 
C 33.618412 116.109081 33.981958 115.958495 34.249965 115.690487 
C 34.517973 115.42248 34.668559 115.058933 34.668559 114.679914 
C 34.668559 114.300895 34.517973 113.937348 34.249965 113.669341 
C 33.981958 113.401334 33.618412 113.250748 33.239392 113.250748 
C 32.860373 113.250748 32.496826 113.401334 32.228819 113.669341 
C 31.960812 113.937348 31.810226 114.300895 31.810226 114.679914 
C 31.810226 115.058933 31.960812 115.42248 32.228819 115.690487 
C 32.496826 115.958495 32.860373 116.109081 33.239392 116.109081 
z
" clip-path="url(#pa2b729161a)" style="stroke: #000000"/>
    <path d="M 43.325348 170.847707 
C 43.325348 170.847707 43.325348 170.847707 43.325348 170.847707 
C 43.325348 170.847707 43.325348 170.847707 43.325348 170.847707 
C 43.325348 170.847707 43.325348 170.847707 43.325348 170.847707 
C 43.325348 170.847707 43.325348 170.847707 43.325348 170.847707 
C 43.325348 170.847707 43.325348 170.847707 43.325348 170.847707 
C 43.325348 170.847707 43.325348 170.847707 43.325348 170.847707 
C 43.325348 170.847707 43.325348 170.847707 43.325348 170.847707 
C 43.325348 170.847707 43.325348 170.847707 43.325348 170.847707 
z
" clip-path="url(#pa2b729161a)" style="stroke: #000000"/>
    <path d="M 36.637739 158.975172 
C 36.637739 158.975172 36.637739 158.975172 36.637739 158.975172 
C 36.637739 158.975172 36.637739 158.975172 36.637739 158.975172 
C 36.637739 158.975172 36.637739 158.975172 36.637739 158.975172 
C 36.637739 158.975172 36.637739 158.975172 36.637739 158.975172 
C 36.637739 158.975172 36.637739 158.975172 36.637739 158.975172 
C 36.637739 158.975172 36.637739 158.975172 36.637739 158.975172 
C 36.637739 158.975172 36.637739 158.975172 36.637739 158.975172 
C 36.637739 158.975172 36.637739 158.975172 36.637739 158.975172 
z
" clip-path="url(#pa2b729161a)" style="stroke: #000000"/>
    <path d="M 32.027934 151.441801 
C 32.403354 151.441801 32.763448 151.292645 33.02891 151.027184 
C 33.294371 150.761722 33.443527 150.401628 33.443527 150.026208 
C 33.443527 149.650789 33.294371 149.290695 33.02891 149.025233 
C 32.763448 148.759772 32.403354 148.610616 32.027934 148.610616 
C 31.652515 148.610616 31.292421 148.759772 31.026959 149.025233 
C 30.761498 149.290695 30.612342 149.650789 30.612342 150.026208 
C 30.612342 150.401628 30.761498 150.761722 31.026959 151.027184 
C 31.292421 151.292645 31.652515 151.441801 32.027934 151.441801 
z
" clip-path="url(#pa2b729161a)" style="stroke: #000000"/>
    <path d="M 29.220926 139.939622 
C 29.220926 139.939622 29.220926 139.939622 29.220926 139.939622 
C 29.220926 139.939622 29.220926 139.939622 29.220926 139.939622 
C 29.220926 139.939622 29.220926 139.939622 29.220926 139.939622 
C 29.220926 139.939622 29.220926 139.939622 29.220926 139.939622 
C 29.220926 139.939622 29.220926 139.939622 29.220926 139.939622 
C 29.220926 139.939622 29.220926 139.939622 29.220926 139.939622 
C 29.220926 139.939622 29.220926 139.939622 29.220926 139.939622 
C 29.220926 139.939622 29.220926 139.939622 29.220926 139.939622 
z
" clip-path="url(#pa2b729161a)" style="stroke: #000000"/>
   </g>
   <g id="matplotlib.axis_1">
    <g id="xtick_1">
     <g id="line2d_1">
      <defs>
       <path id="m915440e516" d="M 0 0 
L 0 3.5 
" style="stroke: #000000; stroke-width: 0.8"/>
      </defs>
      <g>
       <use xlink:href="#m915440e516" x="18" y="189" style="stroke: #000000; stroke-width: 0.8"/>
      </g>
     </g>
     <g id="text_1">
      <!-- 10 -->
      <g transform="translate(7.447656 203.598437)scale(0.1 -0.1)">
       <defs>
        <path id="DejaVuSans-2212" d="M 678 2272 
L 4684 2272 
L 4684 1741 
L 678 1741 
L 678 2272 
z
" transform="scale(0.015625)"/>
        <path id="DejaVuSans-31" d="M 794 531 
L 1825 531 
L 1825 4091 
L 703 3866 
L 703 4441 
L 1819 4666 
L 2450 4666 
L 2450 531 
L 3481 531 
L 3481 0 
L 794 0 
L 794 531 
z
" transform="scale(0.015625)"/>
        <path id="DejaVuSans-30" d="M 2034 4250 
Q 1547 4250 1301 3770 
Q 1056 3291 1056 2328 
Q 1056 1369 1301 889 
Q 1547 409 2034 409 
Q 2525 409 2770 889 
Q 3016 1369 3016 2328 
Q 3016 3291 2770 3770 
Q 2525 4250 2034 4250 
z
M 2034 4750 
Q 2819 4750 3233 4129 
Q 3647 3509 3647 2328 
Q 3647 1150 3233 529 
Q 2819 -91 2034 -91 
Q 1250 -91 836 529 
Q 422 1150 422 2328 
Q 422 3509 836 4129 
Q 1250 4750 2034 4750 
z
" transform="scale(0.015625)"/>
       </defs>
       <use xlink:href="#DejaVuSans-2212"/>
       <use xlink:href="#DejaVuSans-31" x="83.789062"/>
       <use xlink:href="#DejaVuSans-30" x="147.412109"/>
      </g>
     </g>
    </g>
    <g id="xtick_2">
     <g id="line2d_2">
      <g>
       <use xlink:href="#m915440e516" x="73.8" y="189" style="stroke: #000000; stroke-width: 0.8"/>
      </g>
     </g>
     <g id="text_2">
      <!-- 0 -->
      <g transform="translate(70.61875 203.598437)scale(0.1 -0.1)">
       <use xlink:href="#DejaVuSans-30"/>
      </g>
     </g>
    </g>
    <g id="xtick_3">
     <g id="line2d_3">
      <g>
       <use xlink:href="#m915440e516" x="129.6" y="189" style="stroke: #000000; stroke-width: 0.8"/>
      </g>
     </g>
     <g id="text_3">
      <!-- 10 -->
      <g transform="translate(123.2375 203.598437)scale(0.1 -0.1)">
       <use xlink:href="#DejaVuSans-31"/>
       <use xlink:href="#DejaVuSans-30" x="63.623047"/>
      </g>
     </g>
    </g>
   </g>
   <g id="matplotlib.axis_2">
    <g id="ytick_1">
     <g id="line2d_4">
      <defs>
       <path id="m2390fbdf9d" d="M 0 0 
L -3.5 0 
" style="stroke: #000000; stroke-width: 0.8"/>
      </defs>
      <g>
       <use xlink:href="#m2390fbdf9d" x="18" y="189" style="stroke: #000000; stroke-width: 0.8"/>
      </g>
     </g>
     <g id="text_4">
      <!-- 15 -->
      <g transform="translate(-10.104688 192.799219)scale(0.1 -0.1)">
       <defs>
        <path id="DejaVuSans-35" d="M 691 4666 
L 3169 4666 
L 3169 4134 
L 1269 4134 
L 1269 2991 
Q 1406 3038 1543 3061 
Q 1681 3084 1819 3084 
Q 2600 3084 3056 2656 
Q 3513 2228 3513 1497 
Q 3513 744 3044 326 
Q 2575 -91 1722 -91 
Q 1428 -91 1123 -41 
Q 819 9 494 109 
L 494 744 
Q 775 591 1075 516 
Q 1375 441 1709 441 
Q 2250 441 2565 725 
Q 2881 1009 2881 1497 
Q 2881 1984 2565 2268 
Q 2250 2553 1709 2553 
Q 1456 2553 1204 2497 
Q 953 2441 691 2322 
L 691 4666 
z
" transform="scale(0.015625)"/>
       </defs>
       <use xlink:href="#DejaVuSans-2212"/>
       <use xlink:href="#DejaVuSans-31" x="83.789062"/>
       <use xlink:href="#DejaVuSans-35" x="147.412109"/>
      </g>
     </g>
    </g>
    <g id="ytick_2">
     <g id="line2d_5">
      <g>
       <use xlink:href="#m2390fbdf9d" x="18" y="161.82" style="stroke: #000000; stroke-width: 0.8"/>
      </g>
     </g>
     <g id="text_5">
      <!-- 10 -->
      <g transform="translate(-10.104688 165.619219)scale(0.1 -0.1)">
       <use xlink:href="#DejaVuSans-2212"/>
       <use xlink:href="#DejaVuSans-31" x="83.789062"/>
       <use xlink:href="#DejaVuSans-30" x="147.412109"/>
      </g>
     </g>
    </g>
    <g id="ytick_3">
     <g id="line2d_6">
      <g>
       <use xlink:href="#m2390fbdf9d" x="18" y="134.64" style="stroke: #000000; stroke-width: 0.8"/>
      </g>
     </g>
     <g id="text_6">
      <!-- 5 -->
      <g transform="translate(-3.742188 138.439219)scale(0.1 -0.1)">
       <use xlink:href="#DejaVuSans-2212"/>
       <use xlink:href="#DejaVuSans-35" x="83.789062"/>
      </g>
     </g>
    </g>
    <g id="ytick_4">
     <g id="line2d_7">
      <g>
       <use xlink:href="#m2390fbdf9d" x="18" y="107.46" style="stroke: #000000; stroke-width: 0.8"/>
      </g>
     </g>
     <g id="text_7">
      <!-- 0 -->
      <g transform="translate(4.6375 111.259219)scale(0.1 -0.1)">
       <use xlink:href="#DejaVuSans-30"/>
      </g>
     </g>
    </g>
    <g id="ytick_5">
     <g id="line2d_8">
      <g>
       <use xlink:href="#m2390fbdf9d" x="18" y="80.28" style="stroke: #000000; stroke-width: 0.8"/>
      </g>
     </g>
     <g id="text_8">
      <!-- 5 -->
      <g transform="translate(4.6375 84.079219)scale(0.1 -0.1)">
       <use xlink:href="#DejaVuSans-35"/>
      </g>
     </g>
    </g>
    <g id="ytick_6">
     <g id="line2d_9">
      <g>
       <use xlink:href="#m2390fbdf9d" x="18" y="53.1" style="stroke: #000000; stroke-width: 0.8"/>
      </g>
     </g>
     <g id="text_9">
      <!-- 10 -->
      <g transform="translate(-1.725 56.899219)scale(0.1 -0.1)">
       <use xlink:href="#DejaVuSans-31"/>
       <use xlink:href="#DejaVuSans-30" x="63.623047"/>
      </g>
     </g>
    </g>
    <g id="ytick_7">
     <g id="line2d_10">
      <g>
       <use xlink:href="#m2390fbdf9d" x="18" y="25.92" style="stroke: #000000; stroke-width: 0.8"/>
      </g>
     </g>
     <g id="text_10">
      <!-- 15 -->
      <g transform="translate(-1.725 29.719219)scale(0.1 -0.1)">
       <use xlink:href="#DejaVuSans-31"/>
       <use xlink:href="#DejaVuSans-35" x="63.623047"/>
      </g>
     </g>
    </g>
   </g>
   <g id="patch_3">
    <path d="M 18 189 
L 18 25.92 
" style="fill: none; stroke: #000000; stroke-width: 0.8; stroke-linejoin: miter; stroke-linecap: square"/>
   </g>
   <g id="patch_4">
    <path d="M 129.6 189 
L 129.6 25.92 
" style="fill: none; stroke: #000000; stroke-width: 0.8; stroke-linejoin: miter; stroke-linecap: square"/>
   </g>
   <g id="patch_5">
    <path d="M 18 189 
L 129.6 189 
" style="fill: none; stroke: #000000; stroke-width: 0.8; stroke-linejoin: miter; stroke-linecap: square"/>
   </g>
   <g id="patch_6">
    <path d="M 18 25.92 
L 129.6 25.92 
" style="fill: none; stroke: #000000; stroke-width: 0.8; stroke-linejoin: miter; stroke-linecap: square"/>
   </g>
  </g>
 </g>
 <defs>
  <clipPath id="pa2b729161a">
   <rect x="18" y="25.92" width="111.6" height="163.08"/>
  </clipPath>
 </defs>
</svg>
