<?xml version="1.0" encoding="utf-8" standalone="no"?>
<!DOCTYPE svg PUBLIC "-//W3C//DTD SVG 1.1//EN"
  "http://www.w3.org/Graphics/SVG/1.1/DTD/svg11.dtd">
<svg xmlns:xlink="http://www.w3.org/1999/xlink" width="144pt" height="216pt" viewBox="0 0 144 216" xmlns="http://www.w3.org/2000/svg" version="1.1">
 <metadata>
  <rdf:RDF xmlns:dc="http://purl.org/dc/elements/1.1/" xmlns:cc="http://creativecommons.org/ns#" xmlns:rdf="http://www.w3.org/1999/02/22-rdf-syntax-ns#">
   <cc:Work>
    <dc:type rdf:resource="http://purl.org/dc/dcmitype/StillImage"/>
    <dc:date>2022-06-22T17:04:12.483896</dc:date>
    <dc:format>image/svg+xml</dc:format>
    <dc:creator>
     <cc:Agent>
      <dc:title>Matplotlib v3.5.1, https://matplotlib.org/</dc:title>
     </cc:Agent>
    </dc:creator>
   </cc:Work>
  </rdf:RDF>
 </metadata>
 <defs>
  <style type="text/css">*{stroke-linejoin: round; stroke-linecap: butt}</style>
 </defs>
 <g id="figure_1">
  <g id="patch_1">
   <path d="M 0 216 
L 144 216 
L 144 0 
L 0 0 
L 0 216 
z
" style="fill: none"/>
  </g>
  <g id="axes_1">
   <g id="patch_2">
    <path d="M 18 189 
L 129.6 189 
L 129.6 25.92 
L 18 25.92 
z
" style="fill: #ffffff"/>
   </g>
   <g id="PathCollection_1">
    <defs>
     <path id="m9d646cfb63" d="M 0 2.738613 
C 0.726289 2.738613 1.422928 2.450055 1.936492 1.936492 
C 2.450055 1.422928 2.738613 0.726289 2.738613 0 
C 2.738613 -0.726289 2.450055 -1.422928 1.936492 -1.936492 
C 1.422928 -2.450055 0.726289 -2.738613 0 -2.738613 
C -0.726289 -2.738613 -1.422928 -2.450055 -1.936492 -1.936492 
C -2.450055 -1.422928 -2.738613 -0.726289 -2.738613 0 
C -2.738613 0.726289 -2.450055 1.422928 -1.936492 1.936492 
C -1.422928 2.450055 -0.726289 2.738613 0 2.738613 
z
" style="stroke: #ff0000; stroke-width: 1.75"/>
    </defs>
    <g clip-path="url(#p4a53d04446)">
     <use xlink:href="#m9d646cfb63" x="80.775" y="107.46" style="fill: #ff0000; stroke: #ff0000; stroke-width: 1.75"/>
     <use xlink:href="#m9d646cfb63" x="94.725" y="107.46" style="fill: #ff0000; stroke: #ff0000; stroke-width: 1.75"/>
     <use xlink:href="#m9d646cfb63" x="59.85" y="119.229285" style="fill: #ff0000; stroke: #ff0000; stroke-width: 1.75"/>
     <use xlink:href="#m9d646cfb63" x="73.8" y="119.229285" style="fill: #ff0000; stroke: #ff0000; stroke-width: 1.75"/>
     <use xlink:href="#m9d646cfb63" x="87.75" y="119.229285" style="fill: #ff0000; stroke: #ff0000; stroke-width: 1.75"/>
     <use xlink:href="#m9d646cfb63" x="66.825" y="130.99857" style="fill: #ff0000; stroke: #ff0000; stroke-width: 1.75"/>
     <use xlink:href="#m9d646cfb63" x="80.775" y="130.99857" style="fill: #ff0000; stroke: #ff0000; stroke-width: 1.75"/>
    </g>
   </g>
   <g id="PathCollection_2">
    <defs>
     <path id="C0_0_37112deea4" d="M 0 2.738613 
C 0.726289 2.738613 1.422928 2.450055 1.936492 1.936492 
C 2.450055 1.422928 2.738613 0.726289 2.738613 -0 
C 2.738613 -0.726289 2.450055 -1.422928 1.936492 -1.936492 
C 1.422928 -2.450055 0.726289 -2.738613 0 -2.738613 
C -0.726289 -2.738613 -1.422928 -2.450055 -1.936492 -1.936492 
C -2.450055 -1.422928 -2.738613 -0.726289 -2.738613 0 
C -2.738613 0.726289 -2.450055 1.422928 -1.936492 1.936492 
C -1.422928 2.450055 -0.726289 2.738613 0 2.738613 
z
"/>
    </defs>
    <g clip-path="url(#p4a53d04446)">
     <use xlink:href="#C0_0_37112deea4" x="66.825" y="83.92143" style="fill: none; stroke: #ff0000; stroke-width: 1.75"/>
    </g>
    <g clip-path="url(#p4a53d04446)">
     <use xlink:href="#C0_0_37112deea4" x="80.775" y="83.92143" style="fill: none; stroke: #ff0000; stroke-width: 1.75"/>
    </g>
    <g clip-path="url(#p4a53d04446)">
     <use xlink:href="#C0_0_37112deea4" x="59.85" y="95.690715" style="fill: none; stroke: #ff0000; stroke-width: 1.75"/>
    </g>
    <g clip-path="url(#p4a53d04446)">
     <use xlink:href="#C0_0_37112deea4" x="73.8" y="95.690715" style="fill: none; stroke: #ff0000; stroke-width: 1.75"/>
    </g>
    <g clip-path="url(#p4a53d04446)">
     <use xlink:href="#C0_0_37112deea4" x="87.75" y="95.690715" style="fill: none; stroke: #ff0000; stroke-width: 1.75"/>
    </g>
    <g clip-path="url(#p4a53d04446)">
     <use xlink:href="#C0_0_37112deea4" x="52.875" y="107.46" style="fill: none; stroke: #ff0000; stroke-width: 1.75"/>
    </g>
    <g clip-path="url(#p4a53d04446)">
     <use xlink:href="#C0_0_37112deea4" x="66.825" y="107.46" style="fill: none; stroke: #ff0000; stroke-width: 1.75"/>
    </g>
   </g>
   <g id="PathCollection_3">
    <path d="M 117.93329 127.840918 
C 118.43164 127.840918 118.909645 127.642922 119.262032 127.290535 
C 119.614419 126.938149 119.812415 126.460143 119.812415 125.961793 
C 119.812415 125.463443 119.614419 124.985437 119.262032 124.633051 
C 118.909645 124.280664 118.43164 124.082668 117.93329 124.082668 
C 117.43494 124.082668 116.956934 124.280664 116.604548 124.633051 
C 116.252161 124.985437 116.054165 125.463443 116.054165 125.961793 
C 116.054165 126.460143 116.252161 126.938149 116.604548 127.290535 
C 116.956934 127.642922 117.43494 127.840918 117.93329 127.840918 
z
" clip-path="url(#p4a53d04446)" style="stroke: #000000"/>
    <path d="M 115.791132 117.582298 
C 116.289794 117.582298 116.768099 117.384177 117.120706 117.03157 
C 117.473313 116.678963 117.671433 116.200658 117.671433 115.701996 
C 117.671433 115.203334 117.473313 114.725029 117.120706 114.372422 
C 116.768099 114.019815 116.289794 113.821695 115.791132 113.821695 
C 115.29247 113.821695 114.814165 114.019815 114.461558 114.372422 
C 114.108951 114.725029 113.91083 115.203334 113.91083 115.701996 
C 113.91083 116.200658 114.108951 116.678963 114.461558 117.03157 
C 114.814165 117.384177 115.29247 117.582298 115.791132 117.582298 
z
" clip-path="url(#p4a53d04446)" style="stroke: #000000"/>
    <path d="M 115.474522 110.302262 
C 115.973184 110.302262 116.451489 110.104142 116.804096 109.751535 
C 117.156703 109.398927 117.354823 108.920622 117.354823 108.421961 
C 117.354823 107.923299 117.156703 107.444994 116.804096 107.092387 
C 116.451489 106.739779 115.973184 106.541659 115.474522 106.541659 
C 114.97586 106.541659 114.497555 106.739779 114.144948 107.092387 
C 113.792341 107.444994 113.59422 107.923299 113.59422 108.421961 
C 113.59422 108.920622 113.792341 109.398927 114.144948 109.751535 
C 114.497555 110.104142 114.97586 110.302262 115.474522 110.302262 
z
" clip-path="url(#p4a53d04446)" style="stroke: #000000"/>
    <path d="M 110.067556 99.296696 
C 110.566218 99.296696 111.044523 99.098575 111.39713 98.745968 
C 111.749737 98.393361 111.947858 97.915056 111.947858 97.416394 
C 111.947858 96.917732 111.749737 96.439427 111.39713 96.08682 
C 111.044523 95.734213 110.566218 95.536093 110.067556 95.536093 
C 109.568895 95.536093 109.09059 95.734213 108.737982 96.08682 
C 108.385375 96.439427 108.187255 96.917732 108.187255 97.416394 
C 108.187255 97.915056 108.385375 98.393361 108.737982 98.745968 
C 109.09059 99.098575 109.568895 99.296696 110.067556 99.296696 
z
" clip-path="url(#p4a53d04446)" style="stroke: #000000"/>
    <path d="M 108.253975 87.922138 
C 108.752792 87.922138 109.231247 87.723956 109.583964 87.371238 
C 109.936681 87.018521 110.134863 86.540067 110.134863 86.041249 
C 110.134863 85.542431 109.936681 85.063977 109.583964 84.71126 
C 109.231247 84.358542 108.752792 84.16036 108.253975 84.16036 
C 107.755157 84.16036 107.276703 84.358542 106.923985 84.71126 
C 106.571268 85.063977 106.373086 85.542431 106.373086 86.041249 
C 106.373086 86.540067 106.571268 87.018521 106.923985 87.371238 
C 107.276703 87.723956 107.755157 87.922138 108.253975 87.922138 
z
" clip-path="url(#p4a53d04446)" style="stroke: #000000"/>
    <path d="M 106.177308 80.481941 
C 106.676126 80.481941 107.15458 80.283758 107.507297 79.931041 
C 107.860015 79.578324 108.058197 79.099869 108.058197 78.601052 
C 108.058197 78.102234 107.860015 77.62378 107.507297 77.271062 
C 107.15458 76.918345 106.676126 76.720163 106.177308 76.720163 
C 105.678491 76.720163 105.200036 76.918345 104.847319 77.271062 
C 104.494602 77.62378 104.296419 78.102234 104.296419 78.601052 
C 104.296419 79.099869 104.494602 79.578324 104.847319 79.931041 
C 105.200036 80.283758 105.678491 80.481941 106.177308 80.481941 
z
" clip-path="url(#p4a53d04446)" style="stroke: #000000"/>
    <path d="M 98.288287 69.304633 
C 98.786949 69.304633 99.265254 69.106513 99.617861 68.753905 
C 99.970468 68.401298 100.168588 67.922993 100.168588 67.424331 
C 100.168588 66.92567 99.970468 66.447365 99.617861 66.094757 
C 99.265254 65.74215 98.786949 65.54403 98.288287 65.54403 
C 97.789625 65.54403 97.31132 65.74215 96.958713 66.094757 
C 96.606106 66.447365 96.407985 66.92567 96.407985 67.424331 
C 96.407985 67.922993 96.606106 68.401298 96.958713 68.753905 
C 97.31132 69.106513 97.789625 69.304633 98.288287 69.304633 
z
" clip-path="url(#p4a53d04446)" style="stroke: #000000"/>
    <path d="M 98.715396 58.963218 
C 99.134719 58.963218 99.536924 58.796619 99.83343 58.500113 
C 100.129936 58.203607 100.296535 57.801402 100.296535 57.382079 
C 100.296535 56.962756 100.129936 56.560551 99.83343 56.264045 
C 99.536924 55.967539 99.134719 55.80094 98.715396 55.80094 
C 98.296073 55.80094 97.893868 55.967539 97.597362 56.264045 
C 97.300856 56.560551 97.134257 56.962756 97.134257 57.382079 
C 97.134257 57.801402 97.300856 58.203607 97.597362 58.500113 
C 97.893868 58.796619 98.296073 58.963218 98.715396 58.963218 
z
" clip-path="url(#p4a53d04446)" style="stroke: #000000"/>
    <path d="M 94.565623 49.758334 
C 94.565623 49.758334 94.565623 49.758334 94.565623 49.758334 
C 94.565623 49.758334 94.565623 49.758334 94.565623 49.758334 
C 94.565623 49.758334 94.565623 49.758334 94.565623 49.758334 
C 94.565623 49.758334 94.565623 49.758334 94.565623 49.758334 
C 94.565623 49.758334 94.565623 49.758334 94.565623 49.758334 
C 94.565623 49.758334 94.565623 49.758334 94.565623 49.758334 
C 94.565623 49.758334 94.565623 49.758334 94.565623 49.758334 
C 94.565623 49.758334 94.565623 49.758334 94.565623 49.758334 
z
" clip-path="url(#p4a53d04446)" style="stroke: #000000"/>
    <path d="M 89.180084 39.823894 
C 89.571602 39.823894 89.947137 39.668342 90.223983 39.391497 
C 90.500828 39.114652 90.65638 38.739117 90.65638 38.347598 
C 90.65638 37.95608 90.500828 37.580545 90.223983 37.3037 
C 89.947137 37.026854 89.571602 36.871303 89.180084 36.871303 
C 88.788566 36.871303 88.41303 37.026854 88.136185 37.3037 
C 87.85934 37.580545 87.703788 37.95608 87.703788 38.347598 
C 87.703788 38.739117 87.85934 39.114652 88.136185 39.391497 
C 88.41303 39.668342 88.788566 39.823894 89.180084 39.823894 
z
" clip-path="url(#p4a53d04446)" style="stroke: #000000"/>
    <path d="M 118.1551 164.323699 
C 118.574423 164.323699 118.976628 164.1571 119.273134 163.860594 
C 119.56964 163.564088 119.736238 163.161883 119.736238 162.74256 
C 119.736238 162.323237 119.56964 161.921032 119.273134 161.624526 
C 118.976628 161.32802 118.574423 161.161421 118.1551 161.161421 
C 117.735777 161.161421 117.333572 161.32802 117.037066 161.624526 
C 116.74056 161.921032 116.573961 162.323237 116.573961 162.74256 
C 116.573961 163.161883 116.74056 163.564088 117.037066 163.860594 
C 117.333572 164.1571 117.735777 164.323699 118.1551 164.323699 
z
" clip-path="url(#p4a53d04446)" style="stroke: #000000"/>
    <path d="M 118.368098 152.157912 
C 118.368098 152.157912 118.368098 152.157912 118.368098 152.157912 
C 118.368098 152.157912 118.368098 152.157912 118.368098 152.157912 
C 118.368098 152.157912 118.368098 152.157912 118.368098 152.157912 
C 118.368098 152.157912 118.368098 152.157912 118.368098 152.157912 
C 118.368098 152.157912 118.368098 152.157912 118.368098 152.157912 
C 118.368098 152.157912 118.368098 152.157912 118.368098 152.157912 
C 118.368098 152.157912 118.368098 152.157912 118.368098 152.157912 
C 118.368098 152.157912 118.368098 152.157912 118.368098 152.157912 
z
" clip-path="url(#p4a53d04446)" style="stroke: #000000"/>
    <path d="M 116.282135 144.268956 
C 116.751139 144.268956 117.200998 144.082618 117.532634 143.750982 
C 117.864271 143.419345 118.050608 142.969487 118.050608 142.500482 
C 118.050608 142.031477 117.864271 141.581619 117.532634 141.249982 
C 117.200998 140.918346 116.751139 140.732008 116.282135 140.732008 
C 115.81313 140.732008 115.363271 140.918346 115.031635 141.249982 
C 114.699999 141.581619 114.513661 142.031477 114.513661 142.500482 
C 114.513661 142.969487 114.699999 143.419345 115.031635 143.750982 
C 115.363271 144.082618 115.81313 144.268956 116.282135 144.268956 
z
" clip-path="url(#p4a53d04446)" style="stroke: #000000"/>
    <path d="M 112.639944 132.689447 
C 113.138606 132.689447 113.616911 132.491327 113.969518 132.13872 
C 114.322125 131.786113 114.520245 131.307808 114.520245 130.809146 
C 114.520245 130.310484 114.322125 129.832179 113.969518 129.479572 
C 113.616911 129.126965 113.138606 128.928844 112.639944 128.928844 
C 112.141282 128.928844 111.662977 129.126965 111.31037 129.479572 
C 110.957763 129.832179 110.759642 130.310484 110.759642 130.809146 
C 110.759642 131.307808 110.957763 131.786113 111.31037 132.13872 
C 111.662977 132.491327 112.141282 132.689447 112.639944 132.689447 
z
" clip-path="url(#p4a53d04446)" style="stroke: #000000"/>
    <path d="M 105.352202 124.230057 
C 105.736095 124.230057 106.104316 124.077535 106.37577 123.806081 
C 106.647223 123.534628 106.799745 123.166406 106.799745 122.782513 
C 106.799745 122.398621 106.647223 122.030399 106.37577 121.758946 
C 106.104316 121.487492 105.736095 121.33497 105.352202 121.33497 
C 104.968309 121.33497 104.600088 121.487492 104.328634 121.758946 
C 104.057181 122.030399 103.904659 122.398621 103.904659 122.782513 
C 103.904659 123.166406 104.057181 123.534628 104.328634 123.806081 
C 104.600088 124.077535 104.968309 124.230057 105.352202 124.230057 
z
" clip-path="url(#p4a53d04446)" style="stroke: #000000"/>
    <path d="M 102.930889 109.369009 
C 102.930889 109.369009 102.930889 109.369009 102.930889 109.369009 
C 102.930889 109.369009 102.930889 109.369009 102.930889 109.369009 
C 102.930889 109.369009 102.930889 109.369009 102.930889 109.369009 
C 102.930889 109.369009 102.930889 109.369009 102.930889 109.369009 
C 102.930889 109.369009 102.930889 109.369009 102.930889 109.369009 
C 102.930889 109.369009 102.930889 109.369009 102.930889 109.369009 
C 102.930889 109.369009 102.930889 109.369009 102.930889 109.369009 
C 102.930889 109.369009 102.930889 109.369009 102.930889 109.369009 
z
" clip-path="url(#p4a53d04446)" style="stroke: #000000"/>
    <path d="M 100.353263 106.284462 
C 100.852081 106.284462 101.330535 106.08628 101.683252 105.733562 
C 102.035969 105.380845 102.234152 104.902391 102.234152 104.403573 
C 102.234152 103.904755 102.035969 103.426301 101.683252 103.073584 
C 101.330535 102.720867 100.852081 102.522684 100.353263 102.522684 
C 99.854445 102.522684 99.375991 102.720867 99.023274 103.073584 
C 98.670556 103.426301 98.472374 103.904755 98.472374 104.403573 
C 98.472374 104.902391 98.670556 105.380845 99.023274 105.733562 
C 99.375991 106.08628 99.854445 106.284462 100.353263 106.284462 
z
" clip-path="url(#p4a53d04446)" style="stroke: #000000"/>
    <path d="M 96.311617 94.752243 
C 96.810279 94.752243 97.288584 94.554123 97.641191 94.201516 
C 97.993798 93.848909 98.191919 93.370604 98.191919 92.871942 
C 98.191919 92.37328 97.993798 91.894975 97.641191 91.542368 
C 97.288584 91.189761 96.810279 90.99164 96.311617 90.99164 
C 95.812955 90.99164 95.33465 91.189761 94.982043 91.542368 
C 94.629436 91.894975 94.431315 92.37328 94.431315 92.871942 
C 94.431315 93.370604 94.629436 93.848909 94.982043 94.201516 
C 95.33465 94.554123 95.812955 94.752243 96.311617 94.752243 
z
" clip-path="url(#p4a53d04446)" style="stroke: #000000"/>
    <path d="M 91.851366 81.006025 
C 92.350027 81.006025 92.828332 80.807904 93.18094 80.455297 
C 93.533547 80.10269 93.731667 79.624385 93.731667 79.125723 
C 93.731667 78.627061 93.533547 78.148756 93.18094 77.796149 
C 92.828332 77.443542 92.350027 77.245422 91.851366 77.245422 
C 91.352704 77.245422 90.874399 77.443542 90.521792 77.796149 
C 90.169185 78.148756 89.971064 78.627061 89.971064 79.125723 
C 89.971064 79.624385 90.169185 80.10269 90.521792 80.455297 
C 90.874399 80.807904 91.352704 81.006025 91.851366 81.006025 
z
" clip-path="url(#p4a53d04446)" style="stroke: #000000"/>
    <path d="M 88.613896 69.814552 
C 89.112714 69.814552 89.591168 69.61637 89.943885 69.263653 
C 90.296602 68.910936 90.494785 68.432481 90.494785 67.933664 
C 90.494785 67.434846 90.296602 66.956392 89.943885 66.603674 
C 89.591168 66.250957 89.112714 66.052775 88.613896 66.052775 
C 88.115078 66.052775 87.636624 66.250957 87.283907 66.603674 
C 86.931189 66.956392 86.733007 67.434846 86.733007 67.933664 
C 86.733007 68.432481 86.931189 68.910936 87.283907 69.263653 
C 87.636624 69.61637 88.115078 69.814552 88.613896 69.814552 
z
" clip-path="url(#p4a53d04446)" style="stroke: #000000"/>
    <path d="M 83.931123 65.912633 
C 84.205195 65.912633 84.468078 65.803743 84.661876 65.609945 
C 84.855674 65.416147 84.964564 65.153264 84.964564 64.879192 
C 84.964564 64.60512 84.855674 64.342237 84.661876 64.148439 
C 84.468078 63.954641 84.205195 63.845751 83.931123 63.845751 
C 83.657051 63.845751 83.394168 63.954641 83.20037 64.148439 
C 83.006572 64.342237 82.897682 64.60512 82.897682 64.879192 
C 82.897682 65.153264 83.006572 65.416147 83.20037 65.609945 
C 83.394168 65.803743 83.657051 65.912633 83.931123 65.912633 
z
" clip-path="url(#p4a53d04446)" style="stroke: #000000"/>
    <path d="M 81.406615 50.380492 
C 81.406615 50.380492 81.406615 50.380492 81.406615 50.380492 
C 81.406615 50.380492 81.406615 50.380492 81.406615 50.380492 
C 81.406615 50.380492 81.406615 50.380492 81.406615 50.380492 
C 81.406615 50.380492 81.406615 50.380492 81.406615 50.380492 
C 81.406615 50.380492 81.406615 50.380492 81.406615 50.380492 
C 81.406615 50.380492 81.406615 50.380492 81.406615 50.380492 
C 81.406615 50.380492 81.406615 50.380492 81.406615 50.380492 
C 81.406615 50.380492 81.406615 50.380492 81.406615 50.380492 
z
" clip-path="url(#p4a53d04446)" style="stroke: #000000"/>
    <path d="M 77.685123 45.190076 
C 77.685123 45.190076 77.685123 45.190076 77.685123 45.190076 
C 77.685123 45.190076 77.685123 45.190076 77.685123 45.190076 
C 77.685123 45.190076 77.685123 45.190076 77.685123 45.190076 
C 77.685123 45.190076 77.685123 45.190076 77.685123 45.190076 
C 77.685123 45.190076 77.685123 45.190076 77.685123 45.190076 
C 77.685123 45.190076 77.685123 45.190076 77.685123 45.190076 
C 77.685123 45.190076 77.685123 45.190076 77.685123 45.190076 
C 77.685123 45.190076 77.685123 45.190076 77.685123 45.190076 
z
" clip-path="url(#p4a53d04446)" style="stroke: #000000"/>
    <path d="M 73.73747 31.424715 
C 74.125728 31.424715 74.498136 31.270458 74.772676 30.995919 
C 75.047216 30.721379 75.201472 30.34897 75.201472 29.960712 
C 75.201472 29.572454 75.047216 29.200046 74.772676 28.925506 
C 74.498136 28.650966 74.125728 28.49671 73.73747 28.49671 
C 73.349212 28.49671 72.976803 28.650966 72.702264 28.925506 
C 72.427724 29.200046 72.273467 29.572454 72.273467 29.960712 
C 72.273467 30.34897 72.427724 30.721379 72.702264 30.995919 
C 72.976803 31.270458 73.349212 31.424715 73.73747 31.424715 
z
" clip-path="url(#p4a53d04446)" style="stroke: #000000"/>
    <path d="M 114.70595 168.420498 
C 115.125535 168.420498 115.527991 168.253795 115.824682 167.957104 
C 116.121374 167.660413 116.288076 167.257957 116.288076 166.838372 
C 116.288076 166.418787 116.121374 166.016331 115.824682 165.71964 
C 115.527991 165.422949 115.125535 165.256246 114.70595 165.256246 
C 114.286365 165.256246 113.883909 165.422949 113.587218 165.71964 
C 113.290527 166.016331 113.123824 166.418787 113.123824 166.838372 
C 113.123824 167.257957 113.290527 167.660413 113.587218 167.957104 
C 113.883909 168.253795 114.286365 168.420498 114.70595 168.420498 
z
" clip-path="url(#p4a53d04446)" style="stroke: #000000"/>
    <path d="M 107.554939 157.305618 
C 107.554939 157.305618 107.554939 157.305618 107.554939 157.305618 
C 107.554939 157.305618 107.554939 157.305618 107.554939 157.305618 
C 107.554939 157.305618 107.554939 157.305618 107.554939 157.305618 
C 107.554939 157.305618 107.554939 157.305618 107.554939 157.305618 
C 107.554939 157.305618 107.554939 157.305618 107.554939 157.305618 
C 107.554939 157.305618 107.554939 157.305618 107.554939 157.305618 
C 107.554939 157.305618 107.554939 157.305618 107.554939 157.305618 
C 107.554939 157.305618 107.554939 157.305618 107.554939 157.305618 
z
" clip-path="url(#p4a53d04446)" style="stroke: #000000"/>
    <path d="M 105.065625 144.91662 
C 105.331858 144.91662 105.587222 144.810844 105.775478 144.622589 
C 105.963733 144.434334 106.069508 144.178969 106.069508 143.912736 
C 106.069508 143.646503 105.963733 143.391139 105.775478 143.202883 
C 105.587222 143.014628 105.331858 142.908853 105.065625 142.908853 
C 104.799392 142.908853 104.544027 143.014628 104.355772 143.202883 
C 104.167517 143.391139 104.061741 143.646503 104.061741 143.912736 
C 104.061741 144.178969 104.167517 144.434334 104.355772 144.622589 
C 104.544027 144.810844 104.799392 144.91662 105.065625 144.91662 
z
" clip-path="url(#p4a53d04446)" style="stroke: #000000"/>
    <path d="M 96.744376 142.759952 
C 97.119795 142.759952 97.479889 142.610796 97.745351 142.345335 
C 98.010812 142.079873 98.159968 141.719779 98.159968 141.34436 
C 98.159968 140.96894 98.010812 140.608846 97.745351 140.343384 
C 97.479889 140.077923 97.119795 139.928767 96.744376 139.928767 
C 96.368956 139.928767 96.008862 140.077923 95.7434 140.343384 
C 95.477939 140.608846 95.328783 140.96894 95.328783 141.34436 
C 95.328783 141.719779 95.477939 142.079873 95.7434 142.345335 
C 96.008862 142.610796 96.368956 142.759952 96.744376 142.759952 
z
" clip-path="url(#p4a53d04446)" style="stroke: #000000"/>
    <path d="M 95.675948 130.954421 
C 96.174765 130.954421 96.65322 130.756238 97.005937 130.403521 
C 97.358654 130.050804 97.556836 129.572349 97.556836 129.073532 
C 97.556836 128.574714 97.358654 128.09626 97.005937 127.743543 
C 96.65322 127.390825 96.174765 127.192643 95.675948 127.192643 
C 95.17713 127.192643 94.698676 127.390825 94.345958 127.743543 
C 93.993241 128.09626 93.795059 128.574714 93.795059 129.073532 
C 93.795059 129.572349 93.993241 130.050804 94.345958 130.403521 
C 94.698676 130.756238 95.17713 130.954421 95.675948 130.954421 
z
" clip-path="url(#p4a53d04446)" style="stroke: #000000"/>
    <path d="M 97.021524 115.146644 
C 97.021524 115.146644 97.021524 115.146644 97.021524 115.146644 
C 97.021524 115.146644 97.021524 115.146644 97.021524 115.146644 
C 97.021524 115.146644 97.021524 115.146644 97.021524 115.146644 
C 97.021524 115.146644 97.021524 115.146644 97.021524 115.146644 
C 97.021524 115.146644 97.021524 115.146644 97.021524 115.146644 
C 97.021524 115.146644 97.021524 115.146644 97.021524 115.146644 
C 97.021524 115.146644 97.021524 115.146644 97.021524 115.146644 
C 97.021524 115.146644 97.021524 115.146644 97.021524 115.146644 
z
" clip-path="url(#p4a53d04446)" style="stroke: #000000"/>
    <path d="M 89.874949 105.419338 
C 90.373767 105.419338 90.852221 105.221156 91.204938 104.868438 
C 91.557656 104.515721 91.755838 104.037267 91.755838 103.538449 
C 91.755838 103.039632 91.557656 102.561177 91.204938 102.20846 
C 90.852221 101.855743 90.373767 101.65756 89.874949 101.65756 
C 89.376131 101.65756 88.897677 101.855743 88.54496 102.20846 
C 88.192243 102.561177 87.99406 103.039632 87.99406 103.538449 
C 87.99406 104.037267 88.192243 104.515721 88.54496 104.868438 
C 88.897677 105.221156 89.376131 105.419338 89.874949 105.419338 
z
" clip-path="url(#p4a53d04446)" style="stroke: #000000"/>
    <path d="M 88.023681 102.285332 
C 88.522499 102.285332 89.000953 102.08715 89.353671 101.734432 
C 89.706388 101.381715 89.90457 100.903261 89.90457 100.404443 
C 89.90457 99.905626 89.706388 99.427171 89.353671 99.074454 
C 89.000953 98.721737 88.522499 98.523554 88.023681 98.523554 
C 87.524864 98.523554 87.046409 98.721737 86.693692 99.074454 
C 86.340975 99.427171 86.142793 99.905626 86.142793 100.404443 
C 86.142793 100.903261 86.340975 101.381715 86.693692 101.734432 
C 87.046409 102.08715 87.524864 102.285332 88.023681 102.285332 
z
" clip-path="url(#p4a53d04446)" style="stroke: #000000"/>
    <path d="M 85.114279 84.553839 
C 85.208042 84.553839 85.297978 84.516586 85.364279 84.450286 
C 85.430579 84.383985 85.467832 84.294049 85.467832 84.200286 
C 85.467832 84.106522 85.430579 84.016586 85.364279 83.950286 
C 85.297978 83.883985 85.208042 83.846732 85.114279 83.846732 
C 85.020515 83.846732 84.930579 83.883985 84.864279 83.950286 
C 84.797978 84.016586 84.760725 84.106522 84.760725 84.200286 
C 84.760725 84.294049 84.797978 84.383985 84.864279 84.450286 
C 84.930579 84.516586 85.020515 84.553839 85.114279 84.553839 
z
" clip-path="url(#p4a53d04446)" style="stroke: #000000"/>
    <path d="M 78.186242 77.308352 
C 78.684904 77.308352 79.163209 77.110232 79.515816 76.757624 
C 79.868423 76.405017 80.066544 75.926712 80.066544 75.42805 
C 80.066544 74.929389 79.868423 74.451084 79.515816 74.098477 
C 79.163209 73.745869 78.684904 73.547749 78.186242 73.547749 
C 77.68758 73.547749 77.209275 73.745869 76.856668 74.098477 
C 76.504061 74.451084 76.305941 74.929389 76.305941 75.42805 
C 76.305941 75.926712 76.504061 76.405017 76.856668 76.757624 
C 77.209275 77.110232 77.68758 77.308352 78.186242 77.308352 
z
" clip-path="url(#p4a53d04446)" style="stroke: #000000"/>
    <path d="M 72.941182 68.75491 
C 73.44 68.75491 73.918454 68.556728 74.271172 68.204011 
C 74.623889 67.851293 74.822071 67.372839 74.822071 66.874021 
C 74.822071 66.375204 74.623889 65.896749 74.271172 65.544032 
C 73.918454 65.191315 73.44 64.993132 72.941182 64.993132 
C 72.442365 64.993132 71.96391 65.191315 71.611193 65.544032 
C 71.258476 65.896749 71.060294 66.375204 71.060294 66.874021 
C 71.060294 67.372839 71.258476 67.851293 71.611193 68.204011 
C 71.96391 68.556728 72.442365 68.75491 72.941182 68.75491 
z
" clip-path="url(#p4a53d04446)" style="stroke: #000000"/>
    <path d="M 72.749178 57.58798 
C 73.172378 57.58798 73.578301 57.419841 73.877549 57.120594 
C 74.176796 56.821346 74.344936 56.415422 74.344936 55.992222 
C 74.344936 55.569022 74.176796 55.163099 73.877549 54.863851 
C 73.578301 54.564604 73.172378 54.396464 72.749178 54.396464 
C 72.325978 54.396464 71.920054 54.564604 71.620806 54.863851 
C 71.321559 55.163099 71.15342 55.569022 71.15342 55.992222 
C 71.15342 56.415422 71.321559 56.821346 71.620806 57.120594 
C 71.920054 57.419841 72.325978 57.58798 72.749178 57.58798 
z
" clip-path="url(#p4a53d04446)" style="stroke: #000000"/>
    <path d="M 72.003962 45.589882 
C 72.423285 45.589882 72.82549 45.423283 73.121996 45.126777 
C 73.418502 44.830271 73.5851 44.428066 73.5851 44.008743 
C 73.5851 43.58942 73.418502 43.187215 73.121996 42.890709 
C 72.82549 42.594203 72.423285 42.427604 72.003962 42.427604 
C 71.584639 42.427604 71.182434 42.594203 70.885928 42.890709 
C 70.589422 43.187215 70.422823 43.58942 70.422823 44.008743 
C 70.422823 44.428066 70.589422 44.830271 70.885928 45.126777 
C 71.182434 45.423283 71.584639 45.589882 72.003962 45.589882 
z
" clip-path="url(#p4a53d04446)" style="stroke: #000000"/>
    <path d="M 64.198453 31.179296 
C 64.618038 31.179296 65.020494 31.012593 65.317185 30.715902 
C 65.613876 30.419211 65.780579 30.016755 65.780579 29.59717 
C 65.780579 29.177585 65.613876 28.775129 65.317185 28.478438 
C 65.020494 28.181747 64.618038 28.015044 64.198453 28.015044 
C 63.778868 28.015044 63.376412 28.181747 63.079721 28.478438 
C 62.78303 28.775129 62.616327 29.177585 62.616327 29.59717 
C 62.616327 30.016755 62.78303 30.419211 63.079721 30.715902 
C 63.376412 31.012593 63.778868 31.179296 64.198453 31.179296 
z
" clip-path="url(#p4a53d04446)" style="stroke: #000000"/>
    <path d="M 100.471035 181.165582 
C 100.471035 181.165582 100.471035 181.165582 100.471035 181.165582 
C 100.471035 181.165582 100.471035 181.165582 100.471035 181.165582 
C 100.471035 181.165582 100.471035 181.165582 100.471035 181.165582 
C 100.471035 181.165582 100.471035 181.165582 100.471035 181.165582 
C 100.471035 181.165582 100.471035 181.165582 100.471035 181.165582 
C 100.471035 181.165582 100.471035 181.165582 100.471035 181.165582 
C 100.471035 181.165582 100.471035 181.165582 100.471035 181.165582 
C 100.471035 181.165582 100.471035 181.165582 100.471035 181.165582 
z
" clip-path="url(#p4a53d04446)" style="stroke: #000000"/>
    <path d="M 95.668989 172.065689 
C 95.668989 172.065689 95.668989 172.065689 95.668989 172.065689 
C 95.668989 172.065689 95.668989 172.065689 95.668989 172.065689 
C 95.668989 172.065689 95.668989 172.065689 95.668989 172.065689 
C 95.668989 172.065689 95.668989 172.065689 95.668989 172.065689 
C 95.668989 172.065689 95.668989 172.065689 95.668989 172.065689 
C 95.668989 172.065689 95.668989 172.065689 95.668989 172.065689 
C 95.668989 172.065689 95.668989 172.065689 95.668989 172.065689 
C 95.668989 172.065689 95.668989 172.065689 95.668989 172.065689 
z
" clip-path="url(#p4a53d04446)" style="stroke: #000000"/>
    <path d="M 96.644832 159.441053 
C 96.644832 159.441053 96.644832 159.441053 96.644832 159.441053 
C 96.644832 159.441053 96.644832 159.441053 96.644832 159.441053 
C 96.644832 159.441053 96.644832 159.441053 96.644832 159.441053 
C 96.644832 159.441053 96.644832 159.441053 96.644832 159.441053 
C 96.644832 159.441053 96.644832 159.441053 96.644832 159.441053 
C 96.644832 159.441053 96.644832 159.441053 96.644832 159.441053 
C 96.644832 159.441053 96.644832 159.441053 96.644832 159.441053 
C 96.644832 159.441053 96.644832 159.441053 96.644832 159.441053 
z
" clip-path="url(#p4a53d04446)" style="stroke: #000000"/>
    <path d="M 93.776893 149.717477 
C 93.776893 149.717477 93.776893 149.717477 93.776893 149.717477 
C 93.776893 149.717477 93.776893 149.717477 93.776893 149.717477 
C 93.776893 149.717477 93.776893 149.717477 93.776893 149.717477 
C 93.776893 149.717477 93.776893 149.717477 93.776893 149.717477 
C 93.776893 149.717477 93.776893 149.717477 93.776893 149.717477 
C 93.776893 149.717477 93.776893 149.717477 93.776893 149.717477 
C 93.776893 149.717477 93.776893 149.717477 93.776893 149.717477 
C 93.776893 149.717477 93.776893 149.717477 93.776893 149.717477 
z
" clip-path="url(#p4a53d04446)" style="stroke: #000000"/>
    <path d="M 90.687174 144.960144 
C 91.185991 144.960144 91.664446 144.761961 92.017163 144.409244 
C 92.36988 144.056527 92.568063 143.578072 92.568063 143.079255 
C 92.568063 142.580437 92.36988 142.101983 92.017163 141.749266 
C 91.664446 141.396548 91.185991 141.198366 90.687174 141.198366 
C 90.188356 141.198366 89.709902 141.396548 89.357185 141.749266 
C 89.004467 142.101983 88.806285 142.580437 88.806285 143.079255 
C 88.806285 143.578072 89.004467 144.056527 89.357185 144.409244 
C 89.709902 144.761961 90.188356 144.960144 90.687174 144.960144 
z
" clip-path="url(#p4a53d04446)" style="stroke: #000000"/>
    <path d="M 85.083465 131.994731 
C 85.460336 131.994731 85.821823 131.844998 86.088312 131.578509 
C 86.354801 131.312021 86.504533 130.950534 86.504533 130.573662 
C 86.504533 130.19679 86.354801 129.835303 86.088312 129.568815 
C 85.821823 129.302326 85.460336 129.152593 85.083465 129.152593 
C 84.706593 129.152593 84.345106 129.302326 84.078617 129.568815 
C 83.812128 129.835303 83.662396 130.19679 83.662396 130.573662 
C 83.662396 130.950534 83.812128 131.312021 84.078617 131.578509 
C 84.345106 131.844998 84.706593 131.994731 85.083465 131.994731 
z
" clip-path="url(#p4a53d04446)" style="stroke: #000000"/>
    <path d="M 86.421266 120.350097 
C 86.79993 120.350097 87.163136 120.199652 87.430892 119.931896 
C 87.698648 119.66414 87.849093 119.300935 87.849093 118.922271 
C 87.849093 118.543607 87.698648 118.180401 87.430892 117.912645 
C 87.163136 117.644889 86.79993 117.494444 86.421266 117.494444 
C 86.042602 117.494444 85.679396 117.644889 85.41164 117.912645 
C 85.143885 118.180401 84.99344 118.543607 84.99344 118.922271 
C 84.99344 119.300935 85.143885 119.66414 85.41164 119.931896 
C 85.679396 120.199652 86.042602 120.350097 86.421266 120.350097 
z
" clip-path="url(#p4a53d04446)" style="stroke: #000000"/>
    <path d="M 77.158645 111.990795 
C 77.578229 111.990795 77.980686 111.824092 78.277377 111.527401 
C 78.574068 111.230709 78.740771 110.828253 78.740771 110.408669 
C 78.740771 109.989084 78.574068 109.586628 78.277377 109.289936 
C 77.980686 108.993245 77.578229 108.826542 77.158645 108.826542 
C 76.73906 108.826542 76.336604 108.993245 76.039913 109.289936 
C 75.743221 109.586628 75.576519 109.989084 75.576519 110.408669 
C 75.576519 110.828253 75.743221 111.230709 76.039913 111.527401 
C 76.336604 111.824092 76.73906 111.990795 77.158645 111.990795 
z
" clip-path="url(#p4a53d04446)" style="stroke: #000000"/>
    <path d="M 79.710928 102.40559 
C 80.20959 102.40559 80.687895 102.20747 81.040502 101.854863 
C 81.393109 101.502255 81.591229 101.02395 81.591229 100.525289 
C 81.591229 100.026627 81.393109 99.548322 81.040502 99.195715 
C 80.687895 98.843108 80.20959 98.644987 79.710928 98.644987 
C 79.212266 98.644987 78.733961 98.843108 78.381354 99.195715 
C 78.028747 99.548322 77.830626 100.026627 77.830626 100.525289 
C 77.830626 101.02395 78.028747 101.502255 78.381354 101.854863 
C 78.733961 102.20747 79.212266 102.40559 79.710928 102.40559 
z
" clip-path="url(#p4a53d04446)" style="stroke: #000000"/>
    <path d="M 74.545436 86.535274 
C 74.545436 86.535274 74.545436 86.535274 74.545436 86.535274 
C 74.545436 86.535274 74.545436 86.535274 74.545436 86.535274 
C 74.545436 86.535274 74.545436 86.535274 74.545436 86.535274 
C 74.545436 86.535274 74.545436 86.535274 74.545436 86.535274 
C 74.545436 86.535274 74.545436 86.535274 74.545436 86.535274 
C 74.545436 86.535274 74.545436 86.535274 74.545436 86.535274 
C 74.545436 86.535274 74.545436 86.535274 74.545436 86.535274 
C 74.545436 86.535274 74.545436 86.535274 74.545436 86.535274 
z
" clip-path="url(#p4a53d04446)" style="stroke: #000000"/>
    <path d="M 64.102363 72.463361 
C 64.102363 72.463361 64.102363 72.463361 64.102363 72.463361 
C 64.102363 72.463361 64.102363 72.463361 64.102363 72.463361 
C 64.102363 72.463361 64.102363 72.463361 64.102363 72.463361 
C 64.102363 72.463361 64.102363 72.463361 64.102363 72.463361 
C 64.102363 72.463361 64.102363 72.463361 64.102363 72.463361 
C 64.102363 72.463361 64.102363 72.463361 64.102363 72.463361 
C 64.102363 72.463361 64.102363 72.463361 64.102363 72.463361 
C 64.102363 72.463361 64.102363 72.463361 64.102363 72.463361 
z
" clip-path="url(#p4a53d04446)" style="stroke: #000000"/>
    <path d="M 68.379701 66.325401 
C 68.687416 66.325401 68.982569 66.203145 69.200156 65.985558 
C 69.417743 65.76797 69.539999 65.472818 69.539999 65.165103 
C 69.539999 64.857388 69.417743 64.562236 69.200156 64.344649 
C 68.982569 64.127061 68.687416 64.004805 68.379701 64.004805 
C 68.071987 64.004805 67.776834 64.127061 67.559247 64.344649 
C 67.34166 64.562236 67.219403 64.857388 67.219403 65.165103 
C 67.219403 65.472818 67.34166 65.76797 67.559247 65.985558 
C 67.776834 66.203145 68.071987 66.325401 68.379701 66.325401 
z
" clip-path="url(#p4a53d04446)" style="stroke: #000000"/>
    <path d="M 59.278297 54.882106 
C 59.278297 54.882106 59.278297 54.882106 59.278297 54.882106 
C 59.278297 54.882106 59.278297 54.882106 59.278297 54.882106 
C 59.278297 54.882106 59.278297 54.882106 59.278297 54.882106 
C 59.278297 54.882106 59.278297 54.882106 59.278297 54.882106 
C 59.278297 54.882106 59.278297 54.882106 59.278297 54.882106 
C 59.278297 54.882106 59.278297 54.882106 59.278297 54.882106 
C 59.278297 54.882106 59.278297 54.882106 59.278297 54.882106 
C 59.278297 54.882106 59.278297 54.882106 59.278297 54.882106 
z
" clip-path="url(#p4a53d04446)" style="stroke: #000000"/>
    <path d="M 56.657859 44.23105 
C 57.067972 44.23105 57.461344 44.068111 57.751337 43.778117 
C 58.041331 43.488123 58.204271 43.094751 58.204271 42.684638 
C 58.204271 42.274525 58.041331 41.881153 57.751337 41.591159 
C 57.461344 41.301166 57.067972 41.138226 56.657859 41.138226 
C 56.247746 41.138226 55.854374 41.301166 55.56438 41.591159 
C 55.274386 41.881153 55.111447 42.274525 55.111447 42.684638 
C 55.111447 43.094751 55.274386 43.488123 55.56438 43.778117 
C 55.854374 44.068111 56.247746 44.23105 56.657859 44.23105 
z
" clip-path="url(#p4a53d04446)" style="stroke: #000000"/>
    <path d="M 52.76626 37.132001 
C 52.76626 37.132001 52.76626 37.132001 52.76626 37.132001 
C 52.76626 37.132001 52.76626 37.132001 52.76626 37.132001 
C 52.76626 37.132001 52.76626 37.132001 52.76626 37.132001 
C 52.76626 37.132001 52.76626 37.132001 52.76626 37.132001 
C 52.76626 37.132001 52.76626 37.132001 52.76626 37.132001 
C 52.76626 37.132001 52.76626 37.132001 52.76626 37.132001 
C 52.76626 37.132001 52.76626 37.132001 52.76626 37.132001 
C 52.76626 37.132001 52.76626 37.132001 52.76626 37.132001 
z
" clip-path="url(#p4a53d04446)" style="stroke: #000000"/>
    <path d="M 85.977366 177.935394 
C 85.977366 177.935394 85.977366 177.935394 85.977366 177.935394 
C 85.977366 177.935394 85.977366 177.935394 85.977366 177.935394 
C 85.977366 177.935394 85.977366 177.935394 85.977366 177.935394 
C 85.977366 177.935394 85.977366 177.935394 85.977366 177.935394 
C 85.977366 177.935394 85.977366 177.935394 85.977366 177.935394 
C 85.977366 177.935394 85.977366 177.935394 85.977366 177.935394 
C 85.977366 177.935394 85.977366 177.935394 85.977366 177.935394 
C 85.977366 177.935394 85.977366 177.935394 85.977366 177.935394 
z
" clip-path="url(#p4a53d04446)" style="stroke: #000000"/>
    <path d="M 85.507168 168.328967 
C 85.954485 168.328967 86.383542 168.151246 86.699844 167.834944 
C 87.016145 167.518643 87.193866 167.089586 87.193866 166.642268 
C 87.193866 166.194951 87.016145 165.765894 86.699844 165.449593 
C 86.383542 165.133291 85.954485 164.95557 85.507168 164.95557 
C 85.05985 164.95557 84.630793 165.133291 84.314492 165.449593 
C 83.99819 165.765894 83.820469 166.194951 83.820469 166.642268 
C 83.820469 167.089586 83.99819 167.518643 84.314492 167.834944 
C 84.630793 168.151246 85.05985 168.328967 85.507168 168.328967 
z
" clip-path="url(#p4a53d04446)" style="stroke: #000000"/>
    <path d="M 79.038253 153.154873 
C 79.038253 153.154873 79.038253 153.154873 79.038253 153.154873 
C 79.038253 153.154873 79.038253 153.154873 79.038253 153.154873 
C 79.038253 153.154873 79.038253 153.154873 79.038253 153.154873 
C 79.038253 153.154873 79.038253 153.154873 79.038253 153.154873 
C 79.038253 153.154873 79.038253 153.154873 79.038253 153.154873 
C 79.038253 153.154873 79.038253 153.154873 79.038253 153.154873 
C 79.038253 153.154873 79.038253 153.154873 79.038253 153.154873 
C 79.038253 153.154873 79.038253 153.154873 79.038253 153.154873 
z
" clip-path="url(#p4a53d04446)" style="stroke: #000000"/>
    <path d="M 78.234058 144.545511 
C 78.627494 144.545511 79.004869 144.389198 79.28307 144.110996 
C 79.561271 143.832795 79.717585 143.45542 79.717585 143.061985 
C 79.717585 142.668549 79.561271 142.291174 79.28307 142.012973 
C 79.004869 141.734771 78.627494 141.578458 78.234058 141.578458 
C 77.840622 141.578458 77.463247 141.734771 77.185046 142.012973 
C 76.906845 142.291174 76.750531 142.668549 76.750531 143.061985 
C 76.750531 143.45542 76.906845 143.832795 77.185046 144.110996 
C 77.463247 144.389198 77.840622 144.545511 78.234058 144.545511 
z
" clip-path="url(#p4a53d04446)" style="stroke: #000000"/>
    <path d="M 76.894518 135.57889 
C 77.393335 135.57889 77.87179 135.380707 78.224507 135.02799 
C 78.577224 134.675273 78.775407 134.196818 78.775407 133.698001 
C 78.775407 133.199183 78.577224 132.720729 78.224507 132.368011 
C 77.87179 132.015294 77.393335 131.817112 76.894518 131.817112 
C 76.3957 131.817112 75.917246 132.015294 75.564529 132.368011 
C 75.211811 132.720729 75.013629 133.199183 75.013629 133.698001 
C 75.013629 134.196818 75.211811 134.675273 75.564529 135.02799 
C 75.917246 135.380707 76.3957 135.57889 76.894518 135.57889 
z
" clip-path="url(#p4a53d04446)" style="stroke: #000000"/>
    <path d="M 71.61694 128.238729 
C 72.115757 128.238729 72.594212 128.040547 72.946929 127.687829 
C 73.299646 127.335112 73.497829 126.856658 73.497829 126.35784 
C 73.497829 125.859022 73.299646 125.380568 72.946929 125.027851 
C 72.594212 124.675133 72.115757 124.476951 71.61694 124.476951 
C 71.118122 124.476951 70.639668 124.675133 70.286951 125.027851 
C 69.934233 125.380568 69.736051 125.859022 69.736051 126.35784 
C 69.736051 126.856658 69.934233 127.335112 70.286951 127.687829 
C 70.639668 128.040547 71.118122 128.238729 71.61694 128.238729 
z
" clip-path="url(#p4a53d04446)" style="stroke: #000000"/>
    <path d="M 68.251902 117.7919 
C 68.671487 117.7919 69.073943 117.625198 69.370634 117.328506 
C 69.667326 117.031815 69.834028 116.629359 69.834028 116.209774 
C 69.834028 115.79019 69.667326 115.387733 69.370634 115.091042 
C 69.073943 114.794351 68.671487 114.627648 68.251902 114.627648 
C 67.832317 114.627648 67.429861 114.794351 67.13317 115.091042 
C 66.836479 115.387733 66.669776 115.79019 66.669776 116.209774 
C 66.669776 116.629359 66.836479 117.031815 67.13317 117.328506 
C 67.429861 117.625198 67.832317 117.7919 68.251902 117.7919 
z
" clip-path="url(#p4a53d04446)" style="stroke: #000000"/>
    <path d="M 62.268915 105.207028 
C 62.767733 105.207028 63.246187 105.008846 63.598904 104.656128 
C 63.951622 104.303411 64.149804 103.824957 64.149804 103.326139 
C 64.149804 102.827321 63.951622 102.348867 63.598904 101.99615 
C 63.246187 101.643432 62.767733 101.44525 62.268915 101.44525 
C 61.770097 101.44525 61.291643 101.643432 60.938926 101.99615 
C 60.586208 102.348867 60.388026 102.827321 60.388026 103.326139 
C 60.388026 103.824957 60.586208 104.303411 60.938926 104.656128 
C 61.291643 105.008846 61.770097 105.207028 62.268915 105.207028 
z
" clip-path="url(#p4a53d04446)" style="stroke: #000000"/>
    <path d="M 60.545744 95.237161 
C 61.044561 95.237161 61.523016 95.038979 61.875733 94.686261 
C 62.22845 94.333544 62.426633 93.85509 62.426633 93.356272 
C 62.426633 92.857454 62.22845 92.379 61.875733 92.026283 
C 61.523016 91.673565 61.044561 91.475383 60.545744 91.475383 
C 60.046926 91.475383 59.568472 91.673565 59.215754 92.026283 
C 58.863037 92.379 58.664855 92.857454 58.664855 93.356272 
C 58.664855 93.85509 58.863037 94.333544 59.215754 94.686261 
C 59.568472 95.038979 60.046926 95.237161 60.545744 95.237161 
z
" clip-path="url(#p4a53d04446)" style="stroke: #000000"/>
    <path d="M 55.796332 85.833087 
C 55.796332 85.833087 55.796332 85.833087 55.796332 85.833087 
C 55.796332 85.833087 55.796332 85.833087 55.796332 85.833087 
C 55.796332 85.833087 55.796332 85.833087 55.796332 85.833087 
C 55.796332 85.833087 55.796332 85.833087 55.796332 85.833087 
C 55.796332 85.833087 55.796332 85.833087 55.796332 85.833087 
C 55.796332 85.833087 55.796332 85.833087 55.796332 85.833087 
C 55.796332 85.833087 55.796332 85.833087 55.796332 85.833087 
C 55.796332 85.833087 55.796332 85.833087 55.796332 85.833087 
z
" clip-path="url(#p4a53d04446)" style="stroke: #000000"/>
    <path d="M 55.2984 67.771349 
C 55.2984 67.771349 55.2984 67.771349 55.2984 67.771349 
C 55.2984 67.771349 55.2984 67.771349 55.2984 67.771349 
C 55.2984 67.771349 55.2984 67.771349 55.2984 67.771349 
C 55.2984 67.771349 55.2984 67.771349 55.2984 67.771349 
C 55.2984 67.771349 55.2984 67.771349 55.2984 67.771349 
C 55.2984 67.771349 55.2984 67.771349 55.2984 67.771349 
C 55.2984 67.771349 55.2984 67.771349 55.2984 67.771349 
C 55.2984 67.771349 55.2984 67.771349 55.2984 67.771349 
z
" clip-path="url(#p4a53d04446)" style="stroke: #000000"/>
    <path d="M 47.73672 62.993208 
C 47.848224 62.993208 47.955177 62.948907 48.034022 62.870061 
C 48.112867 62.791216 48.157168 62.684264 48.157168 62.57276 
C 48.157168 62.461255 48.112867 62.354303 48.034022 62.275458 
C 47.955177 62.196612 47.848224 62.152311 47.73672 62.152311 
C 47.625216 62.152311 47.518264 62.196612 47.439418 62.275458 
C 47.360573 62.354303 47.316272 62.461255 47.316272 62.57276 
C 47.316272 62.684264 47.360573 62.791216 47.439418 62.870061 
C 47.518264 62.948907 47.625216 62.993208 47.73672 62.993208 
z
" clip-path="url(#p4a53d04446)" style="stroke: #000000"/>
    <path d="M 46.209588 56.97432 
C 46.628911 56.97432 47.031116 56.807721 47.327622 56.511215 
C 47.624128 56.214709 47.790727 55.812504 47.790727 55.393181 
C 47.790727 54.973858 47.624128 54.571653 47.327622 54.275147 
C 47.031116 53.978641 46.628911 53.812042 46.209588 53.812042 
C 45.790265 53.812042 45.38806 53.978641 45.091554 54.275147 
C 44.795048 54.571653 44.628449 54.973858 44.628449 55.393181 
C 44.628449 55.812504 44.795048 56.214709 45.091554 56.511215 
C 45.38806 56.807721 45.790265 56.97432 46.209588 56.97432 
z
" clip-path="url(#p4a53d04446)" style="stroke: #000000"/>
    <path d="M 45.21791 39.679276 
C 45.21791 39.679276 45.21791 39.679276 45.21791 39.679276 
C 45.21791 39.679276 45.21791 39.679276 45.21791 39.679276 
C 45.21791 39.679276 45.21791 39.679276 45.21791 39.679276 
C 45.21791 39.679276 45.21791 39.679276 45.21791 39.679276 
C 45.21791 39.679276 45.21791 39.679276 45.21791 39.679276 
C 45.21791 39.679276 45.21791 39.679276 45.21791 39.679276 
C 45.21791 39.679276 45.21791 39.679276 45.21791 39.679276 
C 45.21791 39.679276 45.21791 39.679276 45.21791 39.679276 
z
" clip-path="url(#p4a53d04446)" style="stroke: #000000"/>
    <path d="M 76.199606 177.848675 
C 76.199606 177.848675 76.199606 177.848675 76.199606 177.848675 
C 76.199606 177.848675 76.199606 177.848675 76.199606 177.848675 
C 76.199606 177.848675 76.199606 177.848675 76.199606 177.848675 
C 76.199606 177.848675 76.199606 177.848675 76.199606 177.848675 
C 76.199606 177.848675 76.199606 177.848675 76.199606 177.848675 
C 76.199606 177.848675 76.199606 177.848675 76.199606 177.848675 
C 76.199606 177.848675 76.199606 177.848675 76.199606 177.848675 
C 76.199606 177.848675 76.199606 177.848675 76.199606 177.848675 
z
" clip-path="url(#p4a53d04446)" style="stroke: #000000"/>
    <path d="M 76.180018 172.327562 
C 76.606494 172.327562 77.01556 172.158121 77.317124 171.856557 
C 77.618688 171.554993 77.788128 171.145927 77.788128 170.719451 
C 77.788128 170.292975 77.618688 169.883909 77.317124 169.582345 
C 77.01556 169.280781 76.606494 169.11134 76.180018 169.11134 
C 75.753542 169.11134 75.344476 169.280781 75.042912 169.582345 
C 74.741348 169.883909 74.571907 170.292975 74.571907 170.719451 
C 74.571907 171.145927 74.741348 171.554993 75.042912 171.856557 
C 75.344476 172.158121 75.753542 172.327562 76.180018 172.327562 
z
" clip-path="url(#p4a53d04446)" style="stroke: #000000"/>
    <path d="M 71.963379 160.505112 
C 72.180966 160.505112 72.38967 160.418664 72.543528 160.264806 
C 72.697385 160.110949 72.783833 159.902244 72.783833 159.684657 
C 72.783833 159.46707 72.697385 159.258366 72.543528 159.104508 
C 72.38967 158.950651 72.180966 158.864203 71.963379 158.864203 
C 71.745792 158.864203 71.537087 158.950651 71.38323 159.104508 
C 71.229372 159.258366 71.142924 159.46707 71.142924 159.684657 
C 71.142924 159.902244 71.229372 160.110949 71.38323 160.264806 
C 71.537087 160.418664 71.745792 160.505112 71.963379 160.505112 
z
" clip-path="url(#p4a53d04446)" style="stroke: #000000"/>
    <path d="M 66.093157 148.633998 
C 66.591975 148.633998 67.070429 148.435816 67.423146 148.083099 
C 67.775864 147.730381 67.974046 147.251927 67.974046 146.753109 
C 67.974046 146.254292 67.775864 145.775837 67.423146 145.42312 
C 67.070429 145.070403 66.591975 144.872221 66.093157 144.872221 
C 65.59434 144.872221 65.115885 145.070403 64.763168 145.42312 
C 64.410451 145.775837 64.212268 146.254292 64.212268 146.753109 
C 64.212268 147.251927 64.410451 147.730381 64.763168 148.083099 
C 65.115885 148.435816 65.59434 148.633998 66.093157 148.633998 
z
" clip-path="url(#p4a53d04446)" style="stroke: #000000"/>
    <path d="M 63.559207 138.146883 
C 64.058025 138.146883 64.536479 137.948701 64.889196 137.595984 
C 65.241914 137.243266 65.440096 136.764812 65.440096 136.265994 
C 65.440096 135.767177 65.241914 135.288722 64.889196 134.936005 
C 64.536479 134.583288 64.058025 134.385105 63.559207 134.385105 
C 63.06039 134.385105 62.581935 134.583288 62.229218 134.936005 
C 61.876501 135.288722 61.678318 135.767177 61.678318 136.265994 
C 61.678318 136.764812 61.876501 137.243266 62.229218 137.595984 
C 62.581935 137.948701 63.06039 138.146883 63.559207 138.146883 
z
" clip-path="url(#p4a53d04446)" style="stroke: #000000"/>
    <path d="M 57.75763 130.082911 
C 58.154819 130.082911 58.535794 129.925106 58.816649 129.644251 
C 59.097505 129.363396 59.25531 128.982421 59.25531 128.585231 
C 59.25531 128.188042 59.097505 127.807067 58.816649 127.526212 
C 58.535794 127.245357 58.154819 127.087552 57.75763 127.087552 
C 57.360441 127.087552 56.979466 127.245357 56.69861 127.526212 
C 56.417755 127.807067 56.25995 128.188042 56.25995 128.585231 
C 56.25995 128.982421 56.417755 129.363396 56.69861 129.644251 
C 56.979466 129.925106 57.360441 130.082911 57.75763 130.082911 
z
" clip-path="url(#p4a53d04446)" style="stroke: #000000"/>
    <path d="M 55.494345 120.959549 
C 55.913668 120.959549 56.315873 120.79295 56.612379 120.496444 
C 56.908885 120.199938 57.075484 119.797733 57.075484 119.37841 
C 57.075484 118.959087 56.908885 118.556882 56.612379 118.260376 
C 56.315873 117.96387 55.913668 117.797271 55.494345 117.797271 
C 55.075022 117.797271 54.672817 117.96387 54.376311 118.260376 
C 54.079805 118.556882 53.913206 118.959087 53.913206 119.37841 
C 53.913206 119.797733 54.079805 120.199938 54.376311 120.496444 
C 54.672817 120.79295 55.075022 120.959549 55.494345 120.959549 
z
" clip-path="url(#p4a53d04446)" style="stroke: #000000"/>
    <path d="M 54.345028 109.139057 
C 54.764351 109.139057 55.166556 108.972459 55.463062 108.675953 
C 55.759569 108.379446 55.926167 107.977241 55.926167 107.557919 
C 55.926167 107.138596 55.759569 106.736391 55.463062 106.439885 
C 55.166556 106.143378 54.764351 105.97678 54.345028 105.97678 
C 53.925706 105.97678 53.523501 106.143378 53.226994 106.439885 
C 52.930488 106.736391 52.76389 107.138596 52.76389 107.557919 
C 52.76389 107.977241 52.930488 108.379446 53.226994 108.675953 
C 53.523501 108.972459 53.925706 109.139057 54.345028 109.139057 
z
" clip-path="url(#p4a53d04446)" style="stroke: #000000"/>
    <path d="M 50.615745 97.782488 
C 51.114407 97.782488 51.592712 97.584368 51.945319 97.231761 
C 52.297926 96.879154 52.496047 96.400849 52.496047 95.902187 
C 52.496047 95.403525 52.297926 94.92522 51.945319 94.572613 
C 51.592712 94.220006 51.114407 94.021885 50.615745 94.021885 
C 50.117084 94.021885 49.638778 94.220006 49.286171 94.572613 
C 48.933564 94.92522 48.735444 95.403525 48.735444 95.902187 
C 48.735444 96.400849 48.933564 96.879154 49.286171 97.231761 
C 49.638778 97.584368 50.117084 97.782488 50.615745 97.782488 
z
" clip-path="url(#p4a53d04446)" style="stroke: #000000"/>
    <path d="M 42.353962 85.366944 
C 42.353962 85.366944 42.353962 85.366944 42.353962 85.366944 
C 42.353962 85.366944 42.353962 85.366944 42.353962 85.366944 
C 42.353962 85.366944 42.353962 85.366944 42.353962 85.366944 
C 42.353962 85.366944 42.353962 85.366944 42.353962 85.366944 
C 42.353962 85.366944 42.353962 85.366944 42.353962 85.366944 
C 42.353962 85.366944 42.353962 85.366944 42.353962 85.366944 
C 42.353962 85.366944 42.353962 85.366944 42.353962 85.366944 
C 42.353962 85.366944 42.353962 85.366944 42.353962 85.366944 
z
" clip-path="url(#p4a53d04446)" style="stroke: #000000"/>
    <path d="M 43.191288 76.552001 
C 43.475989 76.552001 43.749067 76.438888 43.950381 76.237575 
C 44.151694 76.036261 44.264807 75.763183 44.264807 75.478482 
C 44.264807 75.193781 44.151694 74.920703 43.950381 74.719389 
C 43.749067 74.518076 43.475989 74.404963 43.191288 74.404963 
C 42.906588 74.404963 42.633509 74.518076 42.432196 74.719389 
C 42.230882 74.920703 42.117769 75.193781 42.117769 75.478482 
C 42.117769 75.763183 42.230882 76.036261 42.432196 76.237575 
C 42.633509 76.438888 42.906588 76.552001 43.191288 76.552001 
z
" clip-path="url(#p4a53d04446)" style="stroke: #000000"/>
    <path d="M 40.901997 60.473304 
C 41.321582 60.473304 41.724038 60.306601 42.020729 60.00991 
C 42.317421 59.713218 42.484123 59.310762 42.484123 58.891178 
C 42.484123 58.471593 42.317421 58.069137 42.020729 57.772445 
C 41.724038 57.475754 41.321582 57.309051 40.901997 57.309051 
C 40.482412 57.309051 40.079956 57.475754 39.783265 57.772445 
C 39.486574 58.069137 39.319871 58.471593 39.319871 58.891178 
C 39.319871 59.310762 39.486574 59.713218 39.783265 60.00991 
C 40.079956 60.306601 40.482412 60.473304 40.901997 60.473304 
z
" clip-path="url(#p4a53d04446)" style="stroke: #000000"/>
    <path d="M 66.393335 173.17773 
C 66.393335 173.17773 66.393335 173.17773 66.393335 173.17773 
C 66.393335 173.17773 66.393335 173.17773 66.393335 173.17773 
C 66.393335 173.17773 66.393335 173.17773 66.393335 173.17773 
C 66.393335 173.17773 66.393335 173.17773 66.393335 173.17773 
C 66.393335 173.17773 66.393335 173.17773 66.393335 173.17773 
C 66.393335 173.17773 66.393335 173.17773 66.393335 173.17773 
C 66.393335 173.17773 66.393335 173.17773 66.393335 173.17773 
C 66.393335 173.17773 66.393335 173.17773 66.393335 173.17773 
z
" clip-path="url(#p4a53d04446)" style="stroke: #000000"/>
    <path d="M 59.433337 162.437 
C 59.565938 162.437 59.693127 162.384317 59.78689 162.290554 
C 59.880653 162.19679 59.933337 162.069602 59.933337 161.937 
C 59.933337 161.804399 59.880653 161.67721 59.78689 161.583447 
C 59.693127 161.489683 59.565938 161.437 59.433337 161.437 
C 59.300735 161.437 59.173547 161.489683 59.079783 161.583447 
C 58.98602 161.67721 58.933337 161.804399 58.933337 161.937 
C 58.933337 162.069602 58.98602 162.19679 59.079783 162.290554 
C 59.173547 162.384317 59.300735 162.437 59.433337 162.437 
z
" clip-path="url(#p4a53d04446)" style="stroke: #000000"/>
    <path d="M 53.776249 150.741047 
C 53.776249 150.741047 53.776249 150.741047 53.776249 150.741047 
C 53.776249 150.741047 53.776249 150.741047 53.776249 150.741047 
C 53.776249 150.741047 53.776249 150.741047 53.776249 150.741047 
C 53.776249 150.741047 53.776249 150.741047 53.776249 150.741047 
C 53.776249 150.741047 53.776249 150.741047 53.776249 150.741047 
C 53.776249 150.741047 53.776249 150.741047 53.776249 150.741047 
C 53.776249 150.741047 53.776249 150.741047 53.776249 150.741047 
C 53.776249 150.741047 53.776249 150.741047 53.776249 150.741047 
z
" clip-path="url(#p4a53d04446)" style="stroke: #000000"/>
    <path d="M 60.711576 144.195779 
C 61.210393 144.195779 61.688848 143.997596 62.041565 143.644879 
C 62.394282 143.292162 62.592465 142.813707 62.592465 142.31489 
C 62.592465 141.816072 62.394282 141.337618 62.041565 140.9849 
C 61.688848 140.632183 61.210393 140.434001 60.711576 140.434001 
C 60.212758 140.434001 59.734304 140.632183 59.381587 140.9849 
C 59.028869 141.337618 58.830687 141.816072 58.830687 142.31489 
C 58.830687 142.813707 59.028869 143.292162 59.381587 143.644879 
C 59.734304 143.997596 60.212758 144.195779 60.711576 144.195779 
z
" clip-path="url(#p4a53d04446)" style="stroke: #000000"/>
    <path d="M 49.865138 132.243848 
C 50.258574 132.243848 50.635949 132.087534 50.91415 131.809333 
C 51.192351 131.531132 51.348665 131.153757 51.348665 130.760321 
C 51.348665 130.366885 51.192351 129.98951 50.91415 129.711309 
C 50.635949 129.433108 50.258574 129.276794 49.865138 129.276794 
C 49.471702 129.276794 49.094327 129.433108 48.816126 129.711309 
C 48.537925 129.98951 48.381611 130.366885 48.381611 130.760321 
C 48.381611 131.153757 48.537925 131.531132 48.816126 131.809333 
C 49.094327 132.087534 49.471702 132.243848 49.865138 132.243848 
z
" clip-path="url(#p4a53d04446)" style="stroke: #000000"/>
    <path d="M 49.317604 122.381156 
C 49.816266 122.381156 50.294571 122.183036 50.647178 121.830429 
C 50.999785 121.477822 51.197906 120.999517 51.197906 120.500855 
C 51.197906 120.002193 50.999785 119.523888 50.647178 119.171281 
C 50.294571 118.818674 49.816266 118.620553 49.317604 118.620553 
C 48.818942 118.620553 48.340637 118.818674 47.98803 119.171281 
C 47.635423 119.523888 47.437303 120.002193 47.437303 120.500855 
C 47.437303 120.999517 47.635423 121.477822 47.98803 121.830429 
C 48.340637 122.183036 48.818942 122.381156 49.317604 122.381156 
z
" clip-path="url(#p4a53d04446)" style="stroke: #000000"/>
    <path d="M 45.0734 109.604955 
C 45.0734 109.604955 45.0734 109.604955 45.0734 109.604955 
C 45.0734 109.604955 45.0734 109.604955 45.0734 109.604955 
C 45.0734 109.604955 45.0734 109.604955 45.0734 109.604955 
C 45.0734 109.604955 45.0734 109.604955 45.0734 109.604955 
C 45.0734 109.604955 45.0734 109.604955 45.0734 109.604955 
C 45.0734 109.604955 45.0734 109.604955 45.0734 109.604955 
C 45.0734 109.604955 45.0734 109.604955 45.0734 109.604955 
C 45.0734 109.604955 45.0734 109.604955 45.0734 109.604955 
z
" clip-path="url(#p4a53d04446)" style="stroke: #000000"/>
    <path d="M 40.065231 104.246417 
C 40.564048 104.246417 41.042503 104.048234 41.39522 103.695517 
C 41.747937 103.3428 41.946119 102.864345 41.946119 102.365528 
C 41.946119 101.86671 41.747937 101.388256 41.39522 101.035539 
C 41.042503 100.682821 40.564048 100.484639 40.065231 100.484639 
C 39.566413 100.484639 39.087959 100.682821 38.735241 101.035539 
C 38.382524 101.388256 38.184342 101.86671 38.184342 102.365528 
C 38.184342 102.864345 38.382524 103.3428 38.735241 103.695517 
C 39.087959 104.048234 39.566413 104.246417 40.065231 104.246417 
z
" clip-path="url(#p4a53d04446)" style="stroke: #000000"/>
    <path d="M 33.732142 89.876524 
C 34.073658 89.876524 34.401233 89.740838 34.642722 89.499349 
C 34.884211 89.25786 35.019896 88.930285 35.019896 88.588769 
C 35.019896 88.247252 34.884211 87.919677 34.642722 87.678189 
C 34.401233 87.4367 34.073658 87.301014 33.732142 87.301014 
C 33.390625 87.301014 33.06305 87.4367 32.821562 87.678189 
C 32.580073 87.919677 32.444387 88.247252 32.444387 88.588769 
C 32.444387 88.930285 32.580073 89.25786 32.821562 89.499349 
C 33.06305 89.740838 33.390625 89.876524 33.732142 89.876524 
z
" clip-path="url(#p4a53d04446)" style="stroke: #000000"/>
    <path d="M 53.145615 176.62005 
C 53.564938 176.62005 53.967143 176.453451 54.263649 176.156945 
C 54.560155 175.860439 54.726753 175.458234 54.726753 175.038911 
C 54.726753 174.619588 54.560155 174.217383 54.263649 173.920877 
C 53.967143 173.624371 53.564938 173.457773 53.145615 173.457773 
C 52.726292 173.457773 52.324087 173.624371 52.027581 173.920877 
C 51.731075 174.217383 51.564476 174.619588 51.564476 175.038911 
C 51.564476 175.458234 51.731075 175.860439 52.027581 176.156945 
C 52.324087 176.453451 52.726292 176.62005 53.145615 176.62005 
z
" clip-path="url(#p4a53d04446)" style="stroke: #000000"/>
    <path d="M 47.576724 163.612275 
C 47.997351 163.612275 48.400807 163.445158 48.698235 163.147729 
C 48.995664 162.850301 49.162781 162.446845 49.162781 162.026218 
C 49.162781 161.605591 48.995664 161.202135 48.698235 160.904706 
C 48.400807 160.607278 47.997351 160.440161 47.576724 160.440161 
C 47.156097 160.440161 46.752641 160.607278 46.455212 160.904706 
C 46.157784 161.202135 45.990667 161.605591 45.990667 162.026218 
C 45.990667 162.446845 46.157784 162.850301 46.455212 163.147729 
C 46.752641 163.445158 47.156097 163.612275 47.576724 163.612275 
z
" clip-path="url(#p4a53d04446)" style="stroke: #000000"/>
    <path d="M 49.490891 157.962452 
C 49.959896 157.962452 50.409754 157.776114 50.741391 157.444478 
C 51.073027 157.112841 51.259365 156.662983 51.259365 156.193978 
C 51.259365 155.724973 51.073027 155.275115 50.741391 154.943478 
C 50.409754 154.611842 49.959896 154.425504 49.490891 154.425504 
C 49.021886 154.425504 48.572028 154.611842 48.240391 154.943478 
C 47.908755 155.275115 47.722417 155.724973 47.722417 156.193978 
C 47.722417 156.662983 47.908755 157.112841 48.240391 157.444478 
C 48.572028 157.776114 49.021886 157.962452 49.490891 157.962452 
z
" clip-path="url(#p4a53d04446)" style="stroke: #000000"/>
    <path d="M 40.725057 145.698752 
C 40.725057 145.698752 40.725057 145.698752 40.725057 145.698752 
C 40.725057 145.698752 40.725057 145.698752 40.725057 145.698752 
C 40.725057 145.698752 40.725057 145.698752 40.725057 145.698752 
C 40.725057 145.698752 40.725057 145.698752 40.725057 145.698752 
C 40.725057 145.698752 40.725057 145.698752 40.725057 145.698752 
C 40.725057 145.698752 40.725057 145.698752 40.725057 145.698752 
C 40.725057 145.698752 40.725057 145.698752 40.725057 145.698752 
C 40.725057 145.698752 40.725057 145.698752 40.725057 145.698752 
z
" clip-path="url(#p4a53d04446)" style="stroke: #000000"/>
    <path d="M 42.496382 131.344761 
C 42.496382 131.344761 42.496382 131.344761 42.496382 131.344761 
C 42.496382 131.344761 42.496382 131.344761 42.496382 131.344761 
C 42.496382 131.344761 42.496382 131.344761 42.496382 131.344761 
C 42.496382 131.344761 42.496382 131.344761 42.496382 131.344761 
C 42.496382 131.344761 42.496382 131.344761 42.496382 131.344761 
C 42.496382 131.344761 42.496382 131.344761 42.496382 131.344761 
C 42.496382 131.344761 42.496382 131.344761 42.496382 131.344761 
C 42.496382 131.344761 42.496382 131.344761 42.496382 131.344761 
z
" clip-path="url(#p4a53d04446)" style="stroke: #000000"/>
    <path d="M 34.592754 124.6654 
C 35.091415 124.6654 35.56972 124.46728 35.922327 124.114673 
C 36.274935 123.762065 36.473055 123.28376 36.473055 122.785099 
C 36.473055 122.286437 36.274935 121.808132 35.922327 121.455525 
C 35.56972 121.102917 35.091415 120.904797 34.592754 120.904797 
C 34.094092 120.904797 33.615787 121.102917 33.26318 121.455525 
C 32.910572 121.808132 32.712452 122.286437 32.712452 122.785099 
C 32.712452 123.28376 32.910572 123.762065 33.26318 124.114673 
C 33.615787 124.46728 34.094092 124.6654 34.592754 124.6654 
z
" clip-path="url(#p4a53d04446)" style="stroke: #000000"/>
    <path d="M 30.070351 114.451331 
C 30.26611 114.451331 30.453878 114.373555 30.592301 114.235133 
C 30.730723 114.09671 30.808499 113.908943 30.808499 113.713183 
C 30.808499 113.517424 30.730723 113.329657 30.592301 113.191234 
C 30.453878 113.052811 30.26611 112.975036 30.070351 112.975036 
C 29.874592 112.975036 29.686824 113.052811 29.548402 113.191234 
C 29.409979 113.329657 29.332203 113.517424 29.332203 113.713183 
C 29.332203 113.908943 29.409979 114.09671 29.548402 114.235133 
C 29.686824 114.373555 29.874592 114.451331 30.070351 114.451331 
z
" clip-path="url(#p4a53d04446)" style="stroke: #000000"/>
    <path d="M 42.87098 167.893322 
C 43.290302 167.893322 43.692507 167.726723 43.989013 167.430217 
C 44.28552 167.133711 44.452118 166.731506 44.452118 166.312183 
C 44.452118 165.89286 44.28552 165.490655 43.989013 165.194149 
C 43.692507 164.897643 43.290302 164.731044 42.87098 164.731044 
C 42.451657 164.731044 42.049452 164.897643 41.752946 165.194149 
C 41.456439 165.490655 41.289841 165.89286 41.289841 166.312183 
C 41.289841 166.731506 41.456439 167.133711 41.752946 167.430217 
C 42.049452 167.726723 42.451657 167.893322 42.87098 167.893322 
z
" clip-path="url(#p4a53d04446)" style="stroke: #000000"/>
    <path d="M 37.845838 158.841037 
C 38.265423 158.841037 38.667879 158.674335 38.96457 158.377643 
C 39.261261 158.080952 39.427964 157.678496 39.427964 157.258911 
C 39.427964 156.839327 39.261261 156.43687 38.96457 156.140179 
C 38.667879 155.843488 38.265423 155.676785 37.845838 155.676785 
C 37.426253 155.676785 37.023797 155.843488 36.727106 156.140179 
C 36.430415 156.43687 36.263712 156.839327 36.263712 157.258911 
C 36.263712 157.678496 36.430415 158.080952 36.727106 158.377643 
C 37.023797 158.674335 37.426253 158.841037 37.845838 158.841037 
z
" clip-path="url(#p4a53d04446)" style="stroke: #000000"/>
    <path d="M 32.90047 148.618127 
C 33.346921 148.618127 33.775148 148.44075 34.090837 148.125061 
C 34.406526 147.809372 34.583903 147.381146 34.583903 146.934694 
C 34.583903 146.488243 34.406526 146.060017 34.090837 145.744328 
C 33.775148 145.428639 33.346921 145.251262 32.90047 145.251262 
C 32.454018 145.251262 32.025792 145.428639 31.710103 145.744328 
C 31.394414 146.060017 31.217037 146.488243 31.217037 146.934694 
C 31.217037 147.381146 31.394414 147.809372 31.710103 148.125061 
C 32.025792 148.44075 32.454018 148.618127 32.90047 148.618127 
z
" clip-path="url(#p4a53d04446)" style="stroke: #000000"/>
    <path d="M 27.323191 136.208782 
C 27.323191 136.208782 27.323191 136.208782 27.323191 136.208782 
C 27.323191 136.208782 27.323191 136.208782 27.323191 136.208782 
C 27.323191 136.208782 27.323191 136.208782 27.323191 136.208782 
C 27.323191 136.208782 27.323191 136.208782 27.323191 136.208782 
C 27.323191 136.208782 27.323191 136.208782 27.323191 136.208782 
C 27.323191 136.208782 27.323191 136.208782 27.323191 136.208782 
C 27.323191 136.208782 27.323191 136.208782 27.323191 136.208782 
C 27.323191 136.208782 27.323191 136.208782 27.323191 136.208782 
z
" clip-path="url(#p4a53d04446)" style="stroke: #000000"/>
   </g>
   <g id="matplotlib.axis_1">
    <g id="xtick_1">
     <g id="line2d_1">
      <defs>
       <path id="ma10f67690e" d="M 0 0 
L 0 3.5 
" style="stroke: #000000; stroke-width: 0.8"/>
      </defs>
      <g>
       <use xlink:href="#ma10f67690e" x="18" y="189" style="stroke: #000000; stroke-width: 0.8"/>
      </g>
     </g>
     <g id="text_1">
      <!-- 10 -->
      <g transform="translate(7.447656 203.598437)scale(0.1 -0.1)">
       <defs>
        <path id="DejaVuSans-2212" d="M 678 2272 
L 4684 2272 
L 4684 1741 
L 678 1741 
L 678 2272 
z
" transform="scale(0.015625)"/>
        <path id="DejaVuSans-31" d="M 794 531 
L 1825 531 
L 1825 4091 
L 703 3866 
L 703 4441 
L 1819 4666 
L 2450 4666 
L 2450 531 
L 3481 531 
L 3481 0 
L 794 0 
L 794 531 
z
" transform="scale(0.015625)"/>
        <path id="DejaVuSans-30" d="M 2034 4250 
Q 1547 4250 1301 3770 
Q 1056 3291 1056 2328 
Q 1056 1369 1301 889 
Q 1547 409 2034 409 
Q 2525 409 2770 889 
Q 3016 1369 3016 2328 
Q 3016 3291 2770 3770 
Q 2525 4250 2034 4250 
z
M 2034 4750 
Q 2819 4750 3233 4129 
Q 3647 3509 3647 2328 
Q 3647 1150 3233 529 
Q 2819 -91 2034 -91 
Q 1250 -91 836 529 
Q 422 1150 422 2328 
Q 422 3509 836 4129 
Q 1250 4750 2034 4750 
z
" transform="scale(0.015625)"/>
       </defs>
       <use xlink:href="#DejaVuSans-2212"/>
       <use xlink:href="#DejaVuSans-31" x="83.789062"/>
       <use xlink:href="#DejaVuSans-30" x="147.412109"/>
      </g>
     </g>
    </g>
    <g id="xtick_2">
     <g id="line2d_2">
      <g>
       <use xlink:href="#ma10f67690e" x="73.8" y="189" style="stroke: #000000; stroke-width: 0.8"/>
      </g>
     </g>
     <g id="text_2">
      <!-- 0 -->
      <g transform="translate(70.61875 203.598437)scale(0.1 -0.1)">
       <use xlink:href="#DejaVuSans-30"/>
      </g>
     </g>
    </g>
    <g id="xtick_3">
     <g id="line2d_3">
      <g>
       <use xlink:href="#ma10f67690e" x="129.6" y="189" style="stroke: #000000; stroke-width: 0.8"/>
      </g>
     </g>
     <g id="text_3">
      <!-- 10 -->
      <g transform="translate(123.2375 203.598437)scale(0.1 -0.1)">
       <use xlink:href="#DejaVuSans-31"/>
       <use xlink:href="#DejaVuSans-30" x="63.623047"/>
      </g>
     </g>
    </g>
   </g>
   <g id="matplotlib.axis_2">
    <g id="ytick_1">
     <g id="line2d_4">
      <defs>
       <path id="mc9ca279345" d="M 0 0 
L -3.5 0 
" style="stroke: #000000; stroke-width: 0.8"/>
      </defs>
      <g>
       <use xlink:href="#mc9ca279345" x="18" y="189" style="stroke: #000000; stroke-width: 0.8"/>
      </g>
     </g>
     <g id="text_4">
      <!-- 15 -->
      <g transform="translate(-10.104688 192.799219)scale(0.1 -0.1)">
       <defs>
        <path id="DejaVuSans-35" d="M 691 4666 
L 3169 4666 
L 3169 4134 
L 1269 4134 
L 1269 2991 
Q 1406 3038 1543 3061 
Q 1681 3084 1819 3084 
Q 2600 3084 3056 2656 
Q 3513 2228 3513 1497 
Q 3513 744 3044 326 
Q 2575 -91 1722 -91 
Q 1428 -91 1123 -41 
Q 819 9 494 109 
L 494 744 
Q 775 591 1075 516 
Q 1375 441 1709 441 
Q 2250 441 2565 725 
Q 2881 1009 2881 1497 
Q 2881 1984 2565 2268 
Q 2250 2553 1709 2553 
Q 1456 2553 1204 2497 
Q 953 2441 691 2322 
L 691 4666 
z
" transform="scale(0.015625)"/>
       </defs>
       <use xlink:href="#DejaVuSans-2212"/>
       <use xlink:href="#DejaVuSans-31" x="83.789062"/>
       <use xlink:href="#DejaVuSans-35" x="147.412109"/>
      </g>
     </g>
    </g>
    <g id="ytick_2">
     <g id="line2d_5">
      <g>
       <use xlink:href="#mc9ca279345" x="18" y="161.82" style="stroke: #000000; stroke-width: 0.8"/>
      </g>
     </g>
     <g id="text_5">
      <!-- 10 -->
      <g transform="translate(-10.104688 165.619219)scale(0.1 -0.1)">
       <use xlink:href="#DejaVuSans-2212"/>
       <use xlink:href="#DejaVuSans-31" x="83.789062"/>
       <use xlink:href="#DejaVuSans-30" x="147.412109"/>
      </g>
     </g>
    </g>
    <g id="ytick_3">
     <g id="line2d_6">
      <g>
       <use xlink:href="#mc9ca279345" x="18" y="134.64" style="stroke: #000000; stroke-width: 0.8"/>
      </g>
     </g>
     <g id="text_6">
      <!-- 5 -->
      <g transform="translate(-3.742188 138.439219)scale(0.1 -0.1)">
       <use xlink:href="#DejaVuSans-2212"/>
       <use xlink:href="#DejaVuSans-35" x="83.789062"/>
      </g>
     </g>
    </g>
    <g id="ytick_4">
     <g id="line2d_7">
      <g>
       <use xlink:href="#mc9ca279345" x="18" y="107.46" style="stroke: #000000; stroke-width: 0.8"/>
      </g>
     </g>
     <g id="text_7">
      <!-- 0 -->
      <g transform="translate(4.6375 111.259219)scale(0.1 -0.1)">
       <use xlink:href="#DejaVuSans-30"/>
      </g>
     </g>
    </g>
    <g id="ytick_5">
     <g id="line2d_8">
      <g>
       <use xlink:href="#mc9ca279345" x="18" y="80.28" style="stroke: #000000; stroke-width: 0.8"/>
      </g>
     </g>
     <g id="text_8">
      <!-- 5 -->
      <g transform="translate(4.6375 84.079219)scale(0.1 -0.1)">
       <use xlink:href="#DejaVuSans-35"/>
      </g>
     </g>
    </g>
    <g id="ytick_6">
     <g id="line2d_9">
      <g>
       <use xlink:href="#mc9ca279345" x="18" y="53.1" style="stroke: #000000; stroke-width: 0.8"/>
      </g>
     </g>
     <g id="text_9">
      <!-- 10 -->
      <g transform="translate(-1.725 56.899219)scale(0.1 -0.1)">
       <use xlink:href="#DejaVuSans-31"/>
       <use xlink:href="#DejaVuSans-30" x="63.623047"/>
      </g>
     </g>
    </g>
    <g id="ytick_7">
     <g id="line2d_10">
      <g>
       <use xlink:href="#mc9ca279345" x="18" y="25.92" style="stroke: #000000; stroke-width: 0.8"/>
      </g>
     </g>
     <g id="text_10">
      <!-- 15 -->
      <g transform="translate(-1.725 29.719219)scale(0.1 -0.1)">
       <use xlink:href="#DejaVuSans-31"/>
       <use xlink:href="#DejaVuSans-35" x="63.623047"/>
      </g>
     </g>
    </g>
   </g>
   <g id="patch_3">
    <path d="M 18 189 
L 18 25.92 
" style="fill: none; stroke: #000000; stroke-width: 0.8; stroke-linejoin: miter; stroke-linecap: square"/>
   </g>
   <g id="patch_4">
    <path d="M 129.6 189 
L 129.6 25.92 
" style="fill: none; stroke: #000000; stroke-width: 0.8; stroke-linejoin: miter; stroke-linecap: square"/>
   </g>
   <g id="patch_5">
    <path d="M 18 189 
L 129.6 189 
" style="fill: none; stroke: #000000; stroke-width: 0.8; stroke-linejoin: miter; stroke-linecap: square"/>
   </g>
   <g id="patch_6">
    <path d="M 18 25.92 
L 129.6 25.92 
" style="fill: none; stroke: #000000; stroke-width: 0.8; stroke-linejoin: miter; stroke-linecap: square"/>
   </g>
  </g>
 </g>
 <defs>
  <clipPath id="p4a53d04446">
   <rect x="18" y="25.92" width="111.6" height="163.08"/>
  </clipPath>
 </defs>
</svg>
