<?xml version="1.0" encoding="utf-8" standalone="no"?>
<!DOCTYPE svg PUBLIC "-//W3C//DTD SVG 1.1//EN"
  "http://www.w3.org/Graphics/SVG/1.1/DTD/svg11.dtd">
<svg xmlns:xlink="http://www.w3.org/1999/xlink" width="144pt" height="216pt" viewBox="0 0 144 216" xmlns="http://www.w3.org/2000/svg" version="1.1">
 <metadata>
  <rdf:RDF xmlns:dc="http://purl.org/dc/elements/1.1/" xmlns:cc="http://creativecommons.org/ns#" xmlns:rdf="http://www.w3.org/1999/02/22-rdf-syntax-ns#">
   <cc:Work>
    <dc:type rdf:resource="http://purl.org/dc/dcmitype/StillImage"/>
    <dc:date>2022-06-23T11:28:17.967487</dc:date>
    <dc:format>image/svg+xml</dc:format>
    <dc:creator>
     <cc:Agent>
      <dc:title>Matplotlib v3.5.1, https://matplotlib.org/</dc:title>
     </cc:Agent>
    </dc:creator>
   </cc:Work>
  </rdf:RDF>
 </metadata>
 <defs>
  <style type="text/css">*{stroke-linejoin: round; stroke-linecap: butt}</style>
 </defs>
 <g id="figure_1">
  <g id="patch_1">
   <path d="M 0 216 
L 144 216 
L 144 0 
L 0 0 
L 0 216 
z
" style="fill: none"/>
  </g>
  <g id="axes_1">
   <g id="patch_2">
    <path d="M 18 189 
L 129.6 189 
L 129.6 25.92 
L 18 25.92 
z
" style="fill: #ffffff"/>
   </g>
   <g id="PathCollection_1">
    <defs>
     <path id="me4e48ef51e" d="M 0 2.738613 
C 0.726289 2.738613 1.422928 2.450055 1.936492 1.936492 
C 2.450055 1.422928 2.738613 0.726289 2.738613 0 
C 2.738613 -0.726289 2.450055 -1.422928 1.936492 -1.936492 
C 1.422928 -2.450055 0.726289 -2.738613 0 -2.738613 
C -0.726289 -2.738613 -1.422928 -2.450055 -1.936492 -1.936492 
C -2.450055 -1.422928 -2.738613 -0.726289 -2.738613 0 
C -2.738613 0.726289 -2.450055 1.422928 -1.936492 1.936492 
C -1.422928 2.450055 -0.726289 2.738613 0 2.738613 
z
" style="stroke: #ff0000; stroke-width: 1.75"/>
    </defs>
    <g clip-path="url(#pe59c9ce977)">
     <use xlink:href="#me4e48ef51e" x="80.775" y="107.46" style="fill: #ff0000; stroke: #ff0000; stroke-width: 1.75"/>
     <use xlink:href="#me4e48ef51e" x="94.725" y="107.46" style="fill: #ff0000; stroke: #ff0000; stroke-width: 1.75"/>
     <use xlink:href="#me4e48ef51e" x="59.85" y="119.229285" style="fill: #ff0000; stroke: #ff0000; stroke-width: 1.75"/>
     <use xlink:href="#me4e48ef51e" x="73.8" y="119.229285" style="fill: #ff0000; stroke: #ff0000; stroke-width: 1.75"/>
     <use xlink:href="#me4e48ef51e" x="87.75" y="119.229285" style="fill: #ff0000; stroke: #ff0000; stroke-width: 1.75"/>
     <use xlink:href="#me4e48ef51e" x="66.825" y="130.99857" style="fill: #ff0000; stroke: #ff0000; stroke-width: 1.75"/>
     <use xlink:href="#me4e48ef51e" x="80.775" y="130.99857" style="fill: #ff0000; stroke: #ff0000; stroke-width: 1.75"/>
    </g>
   </g>
   <g id="PathCollection_2">
    <defs>
     <path id="C0_0_f1da317495" d="M 0 2.738613 
C 0.726289 2.738613 1.422928 2.450055 1.936492 1.936492 
C 2.450055 1.422928 2.738613 0.726289 2.738613 -0 
C 2.738613 -0.726289 2.450055 -1.422928 1.936492 -1.936492 
C 1.422928 -2.450055 0.726289 -2.738613 0 -2.738613 
C -0.726289 -2.738613 -1.422928 -2.450055 -1.936492 -1.936492 
C -2.450055 -1.422928 -2.738613 -0.726289 -2.738613 0 
C -2.738613 0.726289 -2.450055 1.422928 -1.936492 1.936492 
C -1.422928 2.450055 -0.726289 2.738613 0 2.738613 
z
"/>
    </defs>
    <g clip-path="url(#pe59c9ce977)">
     <use xlink:href="#C0_0_f1da317495" x="66.825" y="83.92143" style="fill: none; stroke: #ff0000; stroke-width: 1.75"/>
    </g>
    <g clip-path="url(#pe59c9ce977)">
     <use xlink:href="#C0_0_f1da317495" x="80.775" y="83.92143" style="fill: none; stroke: #ff0000; stroke-width: 1.75"/>
    </g>
    <g clip-path="url(#pe59c9ce977)">
     <use xlink:href="#C0_0_f1da317495" x="59.85" y="95.690715" style="fill: none; stroke: #ff0000; stroke-width: 1.75"/>
    </g>
    <g clip-path="url(#pe59c9ce977)">
     <use xlink:href="#C0_0_f1da317495" x="73.8" y="95.690715" style="fill: none; stroke: #ff0000; stroke-width: 1.75"/>
    </g>
    <g clip-path="url(#pe59c9ce977)">
     <use xlink:href="#C0_0_f1da317495" x="87.75" y="95.690715" style="fill: none; stroke: #ff0000; stroke-width: 1.75"/>
    </g>
    <g clip-path="url(#pe59c9ce977)">
     <use xlink:href="#C0_0_f1da317495" x="52.875" y="107.46" style="fill: none; stroke: #ff0000; stroke-width: 1.75"/>
    </g>
    <g clip-path="url(#pe59c9ce977)">
     <use xlink:href="#C0_0_f1da317495" x="66.825" y="107.46" style="fill: none; stroke: #ff0000; stroke-width: 1.75"/>
    </g>
   </g>
   <g id="PathCollection_3">
    <path d="M 111.10682 75.432429 
C 111.10682 75.432429 111.10682 75.432429 111.10682 75.432429 
C 111.10682 75.432429 111.10682 75.432429 111.10682 75.432429 
C 111.10682 75.432429 111.10682 75.432429 111.10682 75.432429 
C 111.10682 75.432429 111.10682 75.432429 111.10682 75.432429 
C 111.10682 75.432429 111.10682 75.432429 111.10682 75.432429 
C 111.10682 75.432429 111.10682 75.432429 111.10682 75.432429 
C 111.10682 75.432429 111.10682 75.432429 111.10682 75.432429 
C 111.10682 75.432429 111.10682 75.432429 111.10682 75.432429 
z
" clip-path="url(#pe59c9ce977)" style="stroke: #000000"/>
    <path d="M 105.946997 66.881916 
C 105.946997 66.881916 105.946997 66.881916 105.946997 66.881916 
C 105.946997 66.881916 105.946997 66.881916 105.946997 66.881916 
C 105.946997 66.881916 105.946997 66.881916 105.946997 66.881916 
C 105.946997 66.881916 105.946997 66.881916 105.946997 66.881916 
C 105.946997 66.881916 105.946997 66.881916 105.946997 66.881916 
C 105.946997 66.881916 105.946997 66.881916 105.946997 66.881916 
C 105.946997 66.881916 105.946997 66.881916 105.946997 66.881916 
C 105.946997 66.881916 105.946997 66.881916 105.946997 66.881916 
z
" clip-path="url(#pe59c9ce977)" style="stroke: #000000"/>
    <path d="M 111.542199 109.915886 
C 112.04086 109.915886 112.519165 109.717766 112.871772 109.365159 
C 113.22438 109.012552 113.4225 108.534247 113.4225 108.035585 
C 113.4225 107.536923 113.22438 107.058618 112.871772 106.706011 
C 112.519165 106.353404 112.04086 106.155283 111.542199 106.155283 
C 111.043537 106.155283 110.565232 106.353404 110.212625 106.706011 
C 109.860017 107.058618 109.661897 107.536923 109.661897 108.035585 
C 109.661897 108.534247 109.860017 109.012552 110.212625 109.365159 
C 110.565232 109.717766 111.043537 109.915886 111.542199 109.915886 
z
" clip-path="url(#pe59c9ce977)" style="stroke: #000000"/>
    <path d="M 107.976161 99.235872 
C 108.242394 99.235872 108.497759 99.130096 108.686014 98.941841 
C 108.874269 98.753586 108.980045 98.498221 108.980045 98.231988 
C 108.980045 97.965755 108.874269 97.710391 108.686014 97.522135 
C 108.497759 97.33388 108.242394 97.228105 107.976161 97.228105 
C 107.709928 97.228105 107.454564 97.33388 107.266308 97.522135 
C 107.078053 97.710391 106.972278 97.965755 106.972278 98.231988 
C 106.972278 98.498221 107.078053 98.753586 107.266308 98.941841 
C 107.454564 99.130096 107.709928 99.235872 107.976161 99.235872 
z
" clip-path="url(#pe59c9ce977)" style="stroke: #000000"/>
    <path d="M 103.698191 88.561241 
C 103.8384 88.561241 103.972886 88.505535 104.072028 88.406392 
C 104.171171 88.307249 104.226877 88.172764 104.226877 88.032555 
C 104.226877 87.892346 104.171171 87.757861 104.072028 87.658718 
C 103.972886 87.559575 103.8384 87.503869 103.698191 87.503869 
C 103.557982 87.503869 103.423497 87.559575 103.324354 87.658718 
C 103.225211 87.757861 103.169506 87.892346 103.169506 88.032555 
C 103.169506 88.172764 103.225211 88.307249 103.324354 88.406392 
C 103.423497 88.505535 103.557982 88.561241 103.698191 88.561241 
z
" clip-path="url(#pe59c9ce977)" style="stroke: #000000"/>
    <path d="M 104.714347 78.817811 
C 104.714347 78.817811 104.714347 78.817811 104.714347 78.817811 
C 104.714347 78.817811 104.714347 78.817811 104.714347 78.817811 
C 104.714347 78.817811 104.714347 78.817811 104.714347 78.817811 
C 104.714347 78.817811 104.714347 78.817811 104.714347 78.817811 
C 104.714347 78.817811 104.714347 78.817811 104.714347 78.817811 
C 104.714347 78.817811 104.714347 78.817811 104.714347 78.817811 
C 104.714347 78.817811 104.714347 78.817811 104.714347 78.817811 
C 104.714347 78.817811 104.714347 78.817811 104.714347 78.817811 
z
" clip-path="url(#pe59c9ce977)" style="stroke: #000000"/>
    <path d="M 100.397937 68.323499 
C 100.397937 68.323499 100.397937 68.323499 100.397937 68.323499 
C 100.397937 68.323499 100.397937 68.323499 100.397937 68.323499 
C 100.397937 68.323499 100.397937 68.323499 100.397937 68.323499 
C 100.397937 68.323499 100.397937 68.323499 100.397937 68.323499 
C 100.397937 68.323499 100.397937 68.323499 100.397937 68.323499 
C 100.397937 68.323499 100.397937 68.323499 100.397937 68.323499 
C 100.397937 68.323499 100.397937 68.323499 100.397937 68.323499 
C 100.397937 68.323499 100.397937 68.323499 100.397937 68.323499 
z
" clip-path="url(#pe59c9ce977)" style="stroke: #000000"/>
    <path d="M 95.848473 61.540081 
C 96.267008 61.540081 96.668457 61.373796 96.964405 61.077847 
C 97.260354 60.781899 97.426639 60.38045 97.426639 59.961915 
C 97.426639 59.543381 97.260354 59.141932 96.964405 58.845984 
C 96.668457 58.550035 96.267008 58.38375 95.848473 58.38375 
C 95.429939 58.38375 95.02849 58.550035 94.732542 58.845984 
C 94.436593 59.141932 94.270308 59.543381 94.270308 59.961915 
C 94.270308 60.38045 94.436593 60.781899 94.732542 61.077847 
C 95.02849 61.373796 95.429939 61.540081 95.848473 61.540081 
z
" clip-path="url(#pe59c9ce977)" style="stroke: #000000"/>
    <path d="M 94.202129 43.132721 
C 94.202129 43.132721 94.202129 43.132721 94.202129 43.132721 
C 94.202129 43.132721 94.202129 43.132721 94.202129 43.132721 
C 94.202129 43.132721 94.202129 43.132721 94.202129 43.132721 
C 94.202129 43.132721 94.202129 43.132721 94.202129 43.132721 
C 94.202129 43.132721 94.202129 43.132721 94.202129 43.132721 
C 94.202129 43.132721 94.202129 43.132721 94.202129 43.132721 
C 94.202129 43.132721 94.202129 43.132721 94.202129 43.132721 
C 94.202129 43.132721 94.202129 43.132721 94.202129 43.132721 
z
" clip-path="url(#pe59c9ce977)" style="stroke: #000000"/>
    <path d="M 121.329202 162.358158 
C 121.329202 162.358158 121.329202 162.358158 121.329202 162.358158 
C 121.329202 162.358158 121.329202 162.358158 121.329202 162.358158 
C 121.329202 162.358158 121.329202 162.358158 121.329202 162.358158 
C 121.329202 162.358158 121.329202 162.358158 121.329202 162.358158 
C 121.329202 162.358158 121.329202 162.358158 121.329202 162.358158 
C 121.329202 162.358158 121.329202 162.358158 121.329202 162.358158 
C 121.329202 162.358158 121.329202 162.358158 121.329202 162.358158 
C 121.329202 162.358158 121.329202 162.358158 121.329202 162.358158 
z
" clip-path="url(#pe59c9ce977)" style="stroke: #000000"/>
    <path d="M 119.083082 156.711393 
C 119.502667 156.711393 119.905123 156.54469 120.201814 156.247999 
C 120.498506 155.951308 120.665209 155.548852 120.665209 155.129267 
C 120.665209 154.709682 120.498506 154.307226 120.201814 154.010535 
C 119.905123 153.713844 119.502667 153.547141 119.083082 153.547141 
C 118.663498 153.547141 118.261042 153.713844 117.96435 154.010535 
C 117.667659 154.307226 117.500956 154.709682 117.500956 155.129267 
C 117.500956 155.548852 117.667659 155.951308 117.96435 156.247999 
C 118.261042 156.54469 118.663498 156.711393 119.083082 156.711393 
z
" clip-path="url(#pe59c9ce977)" style="stroke: #000000"/>
    <path d="M 115.54327 148.284016 
C 115.964932 148.284016 116.369381 148.116488 116.667541 147.818328 
C 116.965701 147.520168 117.133229 147.115719 117.133229 146.694057 
C 117.133229 146.272395 116.965701 145.867947 116.667541 145.569787 
C 116.369381 145.271627 115.964932 145.104099 115.54327 145.104099 
C 115.121608 145.104099 114.71716 145.271627 114.419 145.569787 
C 114.12084 145.867947 113.953311 146.272395 113.953311 146.694057 
C 113.953311 147.115719 114.12084 147.520168 114.419 147.818328 
C 114.71716 148.116488 115.121608 148.284016 115.54327 148.284016 
z
" clip-path="url(#pe59c9ce977)" style="stroke: #000000"/>
    <path d="M 110.828785 136.461908 
C 110.828785 136.461908 110.828785 136.461908 110.828785 136.461908 
C 110.828785 136.461908 110.828785 136.461908 110.828785 136.461908 
C 110.828785 136.461908 110.828785 136.461908 110.828785 136.461908 
C 110.828785 136.461908 110.828785 136.461908 110.828785 136.461908 
C 110.828785 136.461908 110.828785 136.461908 110.828785 136.461908 
C 110.828785 136.461908 110.828785 136.461908 110.828785 136.461908 
C 110.828785 136.461908 110.828785 136.461908 110.828785 136.461908 
C 110.828785 136.461908 110.828785 136.461908 110.828785 136.461908 
z
" clip-path="url(#pe59c9ce977)" style="stroke: #000000"/>
    <path d="M 105.650445 121.925528 
C 105.650445 121.925528 105.650445 121.925528 105.650445 121.925528 
C 105.650445 121.925528 105.650445 121.925528 105.650445 121.925528 
C 105.650445 121.925528 105.650445 121.925528 105.650445 121.925528 
C 105.650445 121.925528 105.650445 121.925528 105.650445 121.925528 
C 105.650445 121.925528 105.650445 121.925528 105.650445 121.925528 
C 105.650445 121.925528 105.650445 121.925528 105.650445 121.925528 
C 105.650445 121.925528 105.650445 121.925528 105.650445 121.925528 
C 105.650445 121.925528 105.650445 121.925528 105.650445 121.925528 
z
" clip-path="url(#pe59c9ce977)" style="stroke: #000000"/>
    <path d="M 105.075814 116.320386 
C 105.574632 116.320386 106.053086 116.122203 106.405804 115.769486 
C 106.758521 115.416769 106.956703 114.938314 106.956703 114.439497 
C 106.956703 113.940679 106.758521 113.462225 106.405804 113.109507 
C 106.053086 112.75679 105.574632 112.558608 105.075814 112.558608 
C 104.576997 112.558608 104.098543 112.75679 103.745825 113.109507 
C 103.393108 113.462225 103.194926 113.940679 103.194926 114.439497 
C 103.194926 114.938314 103.393108 115.416769 103.745825 115.769486 
C 104.098543 116.122203 104.576997 116.320386 105.075814 116.320386 
z
" clip-path="url(#pe59c9ce977)" style="stroke: #000000"/>
    <path d="M 99.964505 102.579161 
C 99.964505 102.579161 99.964505 102.579161 99.964505 102.579161 
C 99.964505 102.579161 99.964505 102.579161 99.964505 102.579161 
C 99.964505 102.579161 99.964505 102.579161 99.964505 102.579161 
C 99.964505 102.579161 99.964505 102.579161 99.964505 102.579161 
C 99.964505 102.579161 99.964505 102.579161 99.964505 102.579161 
C 99.964505 102.579161 99.964505 102.579161 99.964505 102.579161 
C 99.964505 102.579161 99.964505 102.579161 99.964505 102.579161 
C 99.964505 102.579161 99.964505 102.579161 99.964505 102.579161 
z
" clip-path="url(#pe59c9ce977)" style="stroke: #000000"/>
    <path d="M 99.197188 93.498573 
C 99.695694 93.498573 100.173849 93.300515 100.526346 92.948018 
C 100.878843 92.595521 101.076901 92.117366 101.076901 91.61886 
C 101.076901 91.120354 100.878843 90.642198 100.526346 90.289701 
C 100.173849 89.937204 99.695694 89.739146 99.197188 89.739146 
C 98.698682 89.739146 98.220526 89.937204 97.86803 90.289701 
C 97.515533 90.642198 97.317474 91.120354 97.317474 91.61886 
C 97.317474 92.117366 97.515533 92.595521 97.86803 92.948018 
C 98.220526 93.300515 98.698682 93.498573 99.197188 93.498573 
z
" clip-path="url(#pe59c9ce977)" style="stroke: #000000"/>
    <path d="M 93.225385 86.441859 
C 93.225385 86.441859 93.225385 86.441859 93.225385 86.441859 
C 93.225385 86.441859 93.225385 86.441859 93.225385 86.441859 
C 93.225385 86.441859 93.225385 86.441859 93.225385 86.441859 
C 93.225385 86.441859 93.225385 86.441859 93.225385 86.441859 
C 93.225385 86.441859 93.225385 86.441859 93.225385 86.441859 
C 93.225385 86.441859 93.225385 86.441859 93.225385 86.441859 
C 93.225385 86.441859 93.225385 86.441859 93.225385 86.441859 
C 93.225385 86.441859 93.225385 86.441859 93.225385 86.441859 
z
" clip-path="url(#pe59c9ce977)" style="stroke: #000000"/>
    <path d="M 87.660386 74.832936 
C 88.156693 74.832936 88.63274 74.635751 88.983683 74.284808 
C 89.334626 73.933866 89.531811 73.457819 89.531811 72.961511 
C 89.531811 72.465203 89.334626 71.989156 88.983683 71.638214 
C 88.63274 71.287271 88.156693 71.090086 87.660386 71.090086 
C 87.164078 71.090086 86.688031 71.287271 86.337088 71.638214 
C 85.986146 71.989156 85.788961 72.465203 85.788961 72.961511 
C 85.788961 73.457819 85.986146 73.933866 86.337088 74.284808 
C 86.688031 74.635751 87.164078 74.832936 87.660386 74.832936 
z
" clip-path="url(#pe59c9ce977)" style="stroke: #000000"/>
    <path d="M 85.847671 61.873232 
C 86.266994 61.873232 86.669199 61.706633 86.965705 61.410127 
C 87.262212 61.113621 87.42881 60.711416 87.42881 60.292093 
C 87.42881 59.87277 87.262212 59.470565 86.965705 59.174059 
C 86.669199 58.877553 86.266994 58.710954 85.847671 58.710954 
C 85.428349 58.710954 85.026144 58.877553 84.729637 59.174059 
C 84.433131 59.470565 84.266533 59.87277 84.266533 60.292093 
C 84.266533 60.711416 84.433131 61.113621 84.729637 61.410127 
C 85.026144 61.706633 85.428349 61.873232 85.847671 61.873232 
z
" clip-path="url(#pe59c9ce977)" style="stroke: #000000"/>
    <path d="M 77.03939 53.986003 
C 77.423624 53.986003 77.792173 53.833345 78.063867 53.561651 
C 78.335562 53.289956 78.48822 52.921408 78.48822 52.537174 
C 78.48822 52.15294 78.335562 51.784391 78.063867 51.512697 
C 77.792173 51.241002 77.423624 51.088344 77.03939 51.088344 
C 76.655156 51.088344 76.286608 51.241002 76.014913 51.512697 
C 75.743218 51.784391 75.590561 52.15294 75.590561 52.537174 
C 75.590561 52.921408 75.743218 53.289956 76.014913 53.561651 
C 76.286608 53.833345 76.655156 53.986003 77.03939 53.986003 
z
" clip-path="url(#pe59c9ce977)" style="stroke: #000000"/>
    <path d="M 77.434518 41.351669 
C 77.853841 41.351669 78.256046 41.185071 78.552552 40.888564 
C 78.849058 40.592058 79.015657 40.189853 79.015657 39.77053 
C 79.015657 39.351208 78.849058 38.949003 78.552552 38.652496 
C 78.256046 38.35599 77.853841 38.189392 77.434518 38.189392 
C 77.015195 38.189392 76.61299 38.35599 76.316484 38.652496 
C 76.019978 38.949003 75.853379 39.351208 75.853379 39.77053 
C 75.853379 40.189853 76.019978 40.592058 76.316484 40.888564 
C 76.61299 41.185071 77.015195 41.351669 77.434518 41.351669 
z
" clip-path="url(#pe59c9ce977)" style="stroke: #000000"/>
    <path d="M 77.617022 31.243975 
C 77.838267 31.243975 78.050481 31.156073 78.206925 30.999629 
C 78.363369 30.843185 78.451271 30.630972 78.451271 30.409727 
C 78.451271 30.188481 78.363369 29.976268 78.206925 29.819824 
C 78.050481 29.66338 77.838267 29.575478 77.617022 29.575478 
C 77.395777 29.575478 77.183563 29.66338 77.027119 29.819824 
C 76.870675 29.976268 76.782774 30.188481 76.782774 30.409727 
C 76.782774 30.630972 76.870675 30.843185 77.027119 30.999629 
C 77.183563 31.156073 77.395777 31.243975 77.617022 31.243975 
z
" clip-path="url(#pe59c9ce977)" style="stroke: #000000"/>
    <path d="M 115.462261 176.780765 
C 115.462261 176.780765 115.462261 176.780765 115.462261 176.780765 
C 115.462261 176.780765 115.462261 176.780765 115.462261 176.780765 
C 115.462261 176.780765 115.462261 176.780765 115.462261 176.780765 
C 115.462261 176.780765 115.462261 176.780765 115.462261 176.780765 
C 115.462261 176.780765 115.462261 176.780765 115.462261 176.780765 
C 115.462261 176.780765 115.462261 176.780765 115.462261 176.780765 
C 115.462261 176.780765 115.462261 176.780765 115.462261 176.780765 
C 115.462261 176.780765 115.462261 176.780765 115.462261 176.780765 
z
" clip-path="url(#pe59c9ce977)" style="stroke: #000000"/>
    <path d="M 114.716025 167.558471 
C 115.135348 167.558471 115.537553 167.391872 115.834059 167.095366 
C 116.130565 166.79886 116.297164 166.396655 116.297164 165.977332 
C 116.297164 165.558009 116.130565 165.155804 115.834059 164.859298 
C 115.537553 164.562792 115.135348 164.396193 114.716025 164.396193 
C 114.296702 164.396193 113.894497 164.562792 113.597991 164.859298 
C 113.301485 165.155804 113.134886 165.558009 113.134886 165.977332 
C 113.134886 166.396655 113.301485 166.79886 113.597991 167.095366 
C 113.894497 167.391872 114.296702 167.558471 114.716025 167.558471 
z
" clip-path="url(#pe59c9ce977)" style="stroke: #000000"/>
    <path d="M 110.950139 161.09102 
C 111.369724 161.09102 111.77218 160.924318 112.068871 160.627626 
C 112.365563 160.330935 112.532265 159.928479 112.532265 159.508894 
C 112.532265 159.089309 112.365563 158.686853 112.068871 158.390162 
C 111.77218 158.093471 111.369724 157.926768 110.950139 157.926768 
C 110.530555 157.926768 110.128098 158.093471 109.831407 158.390162 
C 109.534716 158.686853 109.368013 159.089309 109.368013 159.508894 
C 109.368013 159.928479 109.534716 160.330935 109.831407 160.627626 
C 110.128098 160.924318 110.530555 161.09102 110.950139 161.09102 
z
" clip-path="url(#pe59c9ce977)" style="stroke: #000000"/>
    <path d="M 102.372628 145.798968 
C 102.372628 145.798968 102.372628 145.798968 102.372628 145.798968 
C 102.372628 145.798968 102.372628 145.798968 102.372628 145.798968 
C 102.372628 145.798968 102.372628 145.798968 102.372628 145.798968 
C 102.372628 145.798968 102.372628 145.798968 102.372628 145.798968 
C 102.372628 145.798968 102.372628 145.798968 102.372628 145.798968 
C 102.372628 145.798968 102.372628 145.798968 102.372628 145.798968 
C 102.372628 145.798968 102.372628 145.798968 102.372628 145.798968 
C 102.372628 145.798968 102.372628 145.798968 102.372628 145.798968 
z
" clip-path="url(#pe59c9ce977)" style="stroke: #000000"/>
    <path d="M 95.870548 137.553313 
C 95.870548 137.553313 95.870548 137.553313 95.870548 137.553313 
C 95.870548 137.553313 95.870548 137.553313 95.870548 137.553313 
C 95.870548 137.553313 95.870548 137.553313 95.870548 137.553313 
C 95.870548 137.553313 95.870548 137.553313 95.870548 137.553313 
C 95.870548 137.553313 95.870548 137.553313 95.870548 137.553313 
C 95.870548 137.553313 95.870548 137.553313 95.870548 137.553313 
C 95.870548 137.553313 95.870548 137.553313 95.870548 137.553313 
C 95.870548 137.553313 95.870548 137.553313 95.870548 137.553313 
z
" clip-path="url(#pe59c9ce977)" style="stroke: #000000"/>
    <path d="M 94.741527 127.856262 
C 95.240189 127.856262 95.718494 127.658142 96.071101 127.305534 
C 96.423708 126.952927 96.621829 126.474622 96.621829 125.97596 
C 96.621829 125.477299 96.423708 124.998994 96.071101 124.646387 
C 95.718494 124.293779 95.240189 124.095659 94.741527 124.095659 
C 94.242866 124.095659 93.764561 124.293779 93.411953 124.646387 
C 93.059346 124.998994 92.861226 125.477299 92.861226 125.97596 
C 92.861226 126.474622 93.059346 126.952927 93.411953 127.305534 
C 93.764561 127.658142 94.242866 127.856262 94.741527 127.856262 
z
" clip-path="url(#pe59c9ce977)" style="stroke: #000000"/>
    <path d="M 88.80181 118.14785 
C 89.252332 118.14785 89.684462 117.968856 90.003028 117.650289 
C 90.321595 117.331722 90.500589 116.899593 90.500589 116.449071 
C 90.500589 115.99855 90.321595 115.56642 90.003028 115.247853 
C 89.684462 114.929287 89.252332 114.750293 88.80181 114.750293 
C 88.351289 114.750293 87.919159 114.929287 87.600592 115.247853 
C 87.282026 115.56642 87.103032 115.99855 87.103032 116.449071 
C 87.103032 116.899593 87.282026 117.331722 87.600592 117.650289 
C 87.919159 117.968856 88.351289 118.14785 88.80181 118.14785 
z
" clip-path="url(#pe59c9ce977)" style="stroke: #000000"/>
    <path d="M 89.724073 109.389081 
C 90.222891 109.389081 90.701345 109.190899 91.054063 108.838182 
C 91.40678 108.485465 91.604962 108.00701 91.604962 107.508193 
C 91.604962 107.009375 91.40678 106.530921 91.054063 106.178203 
C 90.701345 105.825486 90.222891 105.627304 89.724073 105.627304 
C 89.225256 105.627304 88.746801 105.825486 88.394084 106.178203 
C 88.041367 106.530921 87.843185 107.009375 87.843185 107.508193 
C 87.843185 108.00701 88.041367 108.485465 88.394084 108.838182 
C 88.746801 109.190899 89.225256 109.389081 89.724073 109.389081 
z
" clip-path="url(#pe59c9ce977)" style="stroke: #000000"/>
    <path d="M 83.394343 99.469396 
C 83.792148 99.469396 84.173713 99.311347 84.455003 99.030056 
C 84.736293 98.748766 84.894343 98.367201 84.894343 97.969396 
C 84.894343 97.571591 84.736293 97.190026 84.455003 96.908736 
C 84.173713 96.627446 83.792148 96.469396 83.394343 96.469396 
C 82.996538 96.469396 82.614973 96.627446 82.333683 96.908736 
C 82.052392 97.190026 81.894343 97.571591 81.894343 97.969396 
C 81.894343 98.367201 82.052392 98.748766 82.333683 99.030056 
C 82.614973 99.311347 82.996538 99.469396 83.394343 99.469396 
z
" clip-path="url(#pe59c9ce977)" style="stroke: #000000"/>
    <path d="M 84.205191 88.436861 
C 84.704009 88.436861 85.182463 88.238679 85.53518 87.885962 
C 85.887898 87.533244 86.08608 87.05479 86.08608 86.555972 
C 86.08608 86.057155 85.887898 85.5787 85.53518 85.225983 
C 85.182463 84.873266 84.704009 84.675083 84.205191 84.675083 
C 83.706374 84.675083 83.227919 84.873266 82.875202 85.225983 
C 82.522485 85.5787 82.324302 86.057155 82.324302 86.555972 
C 82.324302 87.05479 82.522485 87.533244 82.875202 87.885962 
C 83.227919 88.238679 83.706374 88.436861 84.205191 88.436861 
z
" clip-path="url(#pe59c9ce977)" style="stroke: #000000"/>
    <path d="M 75.524802 75.88788 
C 76.023463 75.88788 76.501769 75.68976 76.854376 75.337153 
C 77.206983 74.984546 77.405103 74.50624 77.405103 74.007579 
C 77.405103 73.508917 77.206983 73.030612 76.854376 72.678005 
C 76.501769 72.325398 76.023463 72.127277 75.524802 72.127277 
C 75.02614 72.127277 74.547835 72.325398 74.195228 72.678005 
C 73.842621 73.030612 73.6445 73.508917 73.6445 74.007579 
C 73.6445 74.50624 73.842621 74.984546 74.195228 75.337153 
C 74.547835 75.68976 75.02614 75.88788 75.524802 75.88788 
z
" clip-path="url(#pe59c9ce977)" style="stroke: #000000"/>
    <path d="M 75.4913 66.936639 
C 75.911146 66.936639 76.313853 66.769833 76.610729 66.472957 
C 76.907605 66.176081 77.074411 65.773374 77.074411 65.353528 
C 77.074411 64.933682 76.907605 64.530975 76.610729 64.234099 
C 76.313853 63.937223 75.911146 63.770416 75.4913 63.770416 
C 75.071454 63.770416 74.668747 63.937223 74.371871 64.234099 
C 74.074995 64.530975 73.908188 64.933682 73.908188 65.353528 
C 73.908188 65.773374 74.074995 66.176081 74.371871 66.472957 
C 74.668747 66.769833 75.071454 66.936639 75.4913 66.936639 
z
" clip-path="url(#pe59c9ce977)" style="stroke: #000000"/>
    <path d="M 71.973535 53.443846 
C 71.973535 53.443846 71.973535 53.443846 71.973535 53.443846 
C 71.973535 53.443846 71.973535 53.443846 71.973535 53.443846 
C 71.973535 53.443846 71.973535 53.443846 71.973535 53.443846 
C 71.973535 53.443846 71.973535 53.443846 71.973535 53.443846 
C 71.973535 53.443846 71.973535 53.443846 71.973535 53.443846 
C 71.973535 53.443846 71.973535 53.443846 71.973535 53.443846 
C 71.973535 53.443846 71.973535 53.443846 71.973535 53.443846 
C 71.973535 53.443846 71.973535 53.443846 71.973535 53.443846 
z
" clip-path="url(#pe59c9ce977)" style="stroke: #000000"/>
    <path d="M 66.9807 48.015875 
C 67.26788 48.015875 67.543336 47.901777 67.746403 47.69871 
C 67.94947 47.495643 68.063568 47.220187 68.063568 46.933007 
C 68.063568 46.645827 67.94947 46.37037 67.746403 46.167303 
C 67.543336 45.964236 67.26788 45.850138 66.9807 45.850138 
C 66.69352 45.850138 66.418063 45.964236 66.214996 46.167303 
C 66.011929 46.37037 65.897831 46.645827 65.897831 46.933007 
C 65.897831 47.220187 66.011929 47.495643 66.214996 47.69871 
C 66.418063 47.901777 66.69352 48.015875 66.9807 48.015875 
z
" clip-path="url(#pe59c9ce977)" style="stroke: #000000"/>
    <path d="M 62.675366 35.414553 
C 63.0939 35.414553 63.495349 35.248268 63.791297 34.952319 
C 64.087246 34.656371 64.253531 34.254922 64.253531 33.836388 
C 64.253531 33.417853 64.087246 33.016404 63.791297 32.720456 
C 63.495349 32.424507 63.0939 32.258222 62.675366 32.258222 
C 62.256831 32.258222 61.855382 32.424507 61.559434 32.720456 
C 61.263485 33.016404 61.0972 33.417853 61.0972 33.836388 
C 61.0972 34.254922 61.263485 34.656371 61.559434 34.952319 
C 61.855382 35.248268 62.256831 35.414553 62.675366 35.414553 
z
" clip-path="url(#pe59c9ce977)" style="stroke: #000000"/>
    <path d="M 101.779797 183.787154 
C 102.162316 183.787154 102.52922 183.635177 102.799703 183.364695 
C 103.070185 183.094213 103.222161 182.727309 103.222161 182.344789 
C 103.222161 181.96227 103.070185 181.595366 102.799703 181.324884 
C 102.52922 181.054402 102.162316 180.902425 101.779797 180.902425 
C 101.397278 180.902425 101.030374 181.054402 100.759891 181.324884 
C 100.489409 181.595366 100.337433 181.96227 100.337433 182.344789 
C 100.337433 182.727309 100.489409 183.094213 100.759891 183.364695 
C 101.030374 183.635177 101.397278 183.787154 101.779797 183.787154 
z
" clip-path="url(#pe59c9ce977)" style="stroke: #000000"/>
    <path d="M 100.195943 170.97573 
C 100.615266 170.97573 101.017471 170.809131 101.313977 170.512625 
C 101.610483 170.216119 101.777082 169.813914 101.777082 169.394591 
C 101.777082 168.975268 101.610483 168.573063 101.313977 168.276557 
C 101.017471 167.980051 100.615266 167.813452 100.195943 167.813452 
C 99.77662 167.813452 99.374415 167.980051 99.077909 168.276557 
C 98.781403 168.573063 98.614804 168.975268 98.614804 169.394591 
C 98.614804 169.813914 98.781403 170.216119 99.077909 170.512625 
C 99.374415 170.809131 99.77662 170.97573 100.195943 170.97573 
z
" clip-path="url(#pe59c9ce977)" style="stroke: #000000"/>
    <path d="M 93.164228 162.960165 
C 93.595841 162.960165 94.009835 162.788684 94.315032 162.483487 
C 94.620229 162.17829 94.791711 161.764296 94.791711 161.332682 
C 94.791711 160.901068 94.620229 160.487074 94.315032 160.181877 
C 94.009835 159.87668 93.595841 159.705198 93.164228 159.705198 
C 92.732614 159.705198 92.31862 159.87668 92.013423 160.181877 
C 91.708226 160.487074 91.536744 160.901068 91.536744 161.332682 
C 91.536744 161.764296 91.708226 162.17829 92.013423 162.483487 
C 92.31862 162.788684 92.732614 162.960165 93.164228 162.960165 
z
" clip-path="url(#pe59c9ce977)" style="stroke: #000000"/>
    <path d="M 92.324179 148.689262 
C 92.539865 148.689262 92.746747 148.603569 92.899261 148.451056 
C 93.051774 148.298542 93.137467 148.091661 93.137467 147.875974 
C 93.137467 147.660288 93.051774 147.453406 92.899261 147.300893 
C 92.746747 147.148379 92.539865 147.062686 92.324179 147.062686 
C 92.108492 147.062686 91.901611 147.148379 91.749097 147.300893 
C 91.596584 147.453406 91.510891 147.660288 91.510891 147.875974 
C 91.510891 148.091661 91.596584 148.298542 91.749097 148.451056 
C 91.901611 148.603569 92.108492 148.689262 92.324179 148.689262 
z
" clip-path="url(#pe59c9ce977)" style="stroke: #000000"/>
    <path d="M 88.323787 137.132017 
C 88.822449 137.132017 89.300754 136.933897 89.653361 136.58129 
C 90.005969 136.228683 90.204089 135.750378 90.204089 135.251716 
C 90.204089 134.753054 90.005969 134.274749 89.653361 133.922142 
C 89.300754 133.569535 88.822449 133.371414 88.323787 133.371414 
C 87.825126 133.371414 87.346821 133.569535 86.994213 133.922142 
C 86.641606 134.274749 86.443486 134.753054 86.443486 135.251716 
C 86.443486 135.750378 86.641606 136.228683 86.994213 136.58129 
C 87.346821 136.933897 87.825126 137.132017 88.323787 137.132017 
z
" clip-path="url(#pe59c9ce977)" style="stroke: #000000"/>
    <path d="M 85.777561 130.671879 
C 86.276378 130.671879 86.754833 130.473697 87.10755 130.120979 
C 87.460267 129.768262 87.65845 129.289808 87.65845 128.79099 
C 87.65845 128.292173 87.460267 127.813718 87.10755 127.461001 
C 86.754833 127.108284 86.276378 126.910101 85.777561 126.910101 
C 85.278743 126.910101 84.800289 127.108284 84.447572 127.461001 
C 84.094854 127.813718 83.896672 128.292173 83.896672 128.79099 
C 83.896672 129.289808 84.094854 129.768262 84.447572 130.120979 
C 84.800289 130.473697 85.278743 130.671879 85.777561 130.671879 
z
" clip-path="url(#pe59c9ce977)" style="stroke: #000000"/>
    <path d="M 79.688852 118.45054 
C 79.688852 118.45054 79.688852 118.45054 79.688852 118.45054 
C 79.688852 118.45054 79.688852 118.45054 79.688852 118.45054 
C 79.688852 118.45054 79.688852 118.45054 79.688852 118.45054 
C 79.688852 118.45054 79.688852 118.45054 79.688852 118.45054 
C 79.688852 118.45054 79.688852 118.45054 79.688852 118.45054 
C 79.688852 118.45054 79.688852 118.45054 79.688852 118.45054 
C 79.688852 118.45054 79.688852 118.45054 79.688852 118.45054 
C 79.688852 118.45054 79.688852 118.45054 79.688852 118.45054 
z
" clip-path="url(#pe59c9ce977)" style="stroke: #000000"/>
    <path d="M 78.22161 113.832619 
C 78.720428 113.832619 79.198882 113.634437 79.5516 113.28172 
C 79.904317 112.929002 80.102499 112.450548 80.102499 111.95173 
C 80.102499 111.452913 79.904317 110.974458 79.5516 110.621741 
C 79.198882 110.269024 78.720428 110.070842 78.22161 110.070842 
C 77.722793 110.070842 77.244338 110.269024 76.891621 110.621741 
C 76.538904 110.974458 76.340722 111.452913 76.340722 111.95173 
C 76.340722 112.450548 76.538904 112.929002 76.891621 113.28172 
C 77.244338 113.634437 77.722793 113.832619 78.22161 113.832619 
z
" clip-path="url(#pe59c9ce977)" style="stroke: #000000"/>
    <path d="M 71.66182 101.323183 
C 72.160637 101.323183 72.639092 101.125001 72.991809 100.772283 
C 73.344526 100.419566 73.542709 99.941112 73.542709 99.442294 
C 73.542709 98.943476 73.344526 98.465022 72.991809 98.112305 
C 72.639092 97.759587 72.160637 97.561405 71.66182 97.561405 
C 71.163002 97.561405 70.684548 97.759587 70.33183 98.112305 
C 69.979113 98.465022 69.780931 98.943476 69.780931 99.442294 
C 69.780931 99.941112 69.979113 100.419566 70.33183 100.772283 
C 70.684548 101.125001 71.163002 101.323183 71.66182 101.323183 
z
" clip-path="url(#pe59c9ce977)" style="stroke: #000000"/>
    <path d="M 69.906182 89.525167 
C 70.404844 89.525167 70.883149 89.327047 71.235756 88.97444 
C 71.588363 88.621833 71.786484 88.143528 71.786484 87.644866 
C 71.786484 87.146204 71.588363 86.667899 71.235756 86.315292 
C 70.883149 85.962685 70.404844 85.764564 69.906182 85.764564 
C 69.40752 85.764564 68.929215 85.962685 68.576608 86.315292 
C 68.224001 86.667899 68.025881 87.146204 68.025881 87.644866 
C 68.025881 88.143528 68.224001 88.621833 68.576608 88.97444 
C 68.929215 89.327047 69.40752 89.525167 69.906182 89.525167 
z
" clip-path="url(#pe59c9ce977)" style="stroke: #000000"/>
    <path d="M 65.371072 77.338989 
C 65.869889 77.338989 66.348344 77.140807 66.701061 76.788089 
C 67.053778 76.435372 67.251961 75.956918 67.251961 75.4581 
C 67.251961 74.959283 67.053778 74.480828 66.701061 74.128111 
C 66.348344 73.775394 65.869889 73.577211 65.371072 73.577211 
C 64.872254 73.577211 64.3938 73.775394 64.041082 74.128111 
C 63.688365 74.480828 63.490183 74.959283 63.490183 75.4581 
C 63.490183 75.956918 63.688365 76.435372 64.041082 76.788089 
C 64.3938 77.140807 64.872254 77.338989 65.371072 77.338989 
z
" clip-path="url(#pe59c9ce977)" style="stroke: #000000"/>
    <path d="M 62.937797 68.41956 
C 62.937797 68.41956 62.937797 68.41956 62.937797 68.41956 
C 62.937797 68.41956 62.937797 68.41956 62.937797 68.41956 
C 62.937797 68.41956 62.937797 68.41956 62.937797 68.41956 
C 62.937797 68.41956 62.937797 68.41956 62.937797 68.41956 
C 62.937797 68.41956 62.937797 68.41956 62.937797 68.41956 
C 62.937797 68.41956 62.937797 68.41956 62.937797 68.41956 
C 62.937797 68.41956 62.937797 68.41956 62.937797 68.41956 
C 62.937797 68.41956 62.937797 68.41956 62.937797 68.41956 
z
" clip-path="url(#pe59c9ce977)" style="stroke: #000000"/>
    <path d="M 62.395403 61.598649 
C 62.395403 61.598649 62.395403 61.598649 62.395403 61.598649 
C 62.395403 61.598649 62.395403 61.598649 62.395403 61.598649 
C 62.395403 61.598649 62.395403 61.598649 62.395403 61.598649 
C 62.395403 61.598649 62.395403 61.598649 62.395403 61.598649 
C 62.395403 61.598649 62.395403 61.598649 62.395403 61.598649 
C 62.395403 61.598649 62.395403 61.598649 62.395403 61.598649 
C 62.395403 61.598649 62.395403 61.598649 62.395403 61.598649 
C 62.395403 61.598649 62.395403 61.598649 62.395403 61.598649 
z
" clip-path="url(#pe59c9ce977)" style="stroke: #000000"/>
    <path d="M 55.195425 50.703501 
C 55.508313 50.703501 55.808428 50.57919 56.029673 50.357944 
C 56.250919 50.136699 56.37523 49.836584 56.37523 49.523696 
C 56.37523 49.210808 56.250919 48.910693 56.029673 48.689447 
C 55.808428 48.468202 55.508313 48.34389 55.195425 48.34389 
C 54.882537 48.34389 54.582422 48.468202 54.361176 48.689447 
C 54.139931 48.910693 54.015619 49.210808 54.015619 49.523696 
C 54.015619 49.836584 54.139931 50.136699 54.361176 50.357944 
C 54.582422 50.57919 54.882537 50.703501 55.195425 50.703501 
z
" clip-path="url(#pe59c9ce977)" style="stroke: #000000"/>
    <path d="M 52.545166 38.545917 
C 52.545166 38.545917 52.545166 38.545917 52.545166 38.545917 
C 52.545166 38.545917 52.545166 38.545917 52.545166 38.545917 
C 52.545166 38.545917 52.545166 38.545917 52.545166 38.545917 
C 52.545166 38.545917 52.545166 38.545917 52.545166 38.545917 
C 52.545166 38.545917 52.545166 38.545917 52.545166 38.545917 
C 52.545166 38.545917 52.545166 38.545917 52.545166 38.545917 
C 52.545166 38.545917 52.545166 38.545917 52.545166 38.545917 
C 52.545166 38.545917 52.545166 38.545917 52.545166 38.545917 
z
" clip-path="url(#pe59c9ce977)" style="stroke: #000000"/>
    <path d="M 91.864147 177.145847 
C 92.283207 177.145847 92.685161 176.979353 92.981481 176.683032 
C 93.277802 176.386711 93.444296 175.984758 93.444296 175.565697 
C 93.444296 175.146637 93.277802 174.744683 92.981481 174.448363 
C 92.685161 174.152042 92.283207 173.985548 91.864147 173.985548 
C 91.445086 173.985548 91.043133 174.152042 90.746812 174.448363 
C 90.450491 174.744683 90.283997 175.146637 90.283997 175.565697 
C 90.283997 175.984758 90.450491 176.386711 90.746812 176.683032 
C 91.043133 176.979353 91.445086 177.145847 91.864147 177.145847 
z
" clip-path="url(#pe59c9ce977)" style="stroke: #000000"/>
    <path d="M 85.661752 168.780095 
C 86.081858 168.780095 86.484815 168.613185 86.781876 168.316125 
C 87.078936 168.019064 87.245847 167.616107 87.245847 167.196 
C 87.245847 166.775893 87.078936 166.372936 86.781876 166.075876 
C 86.484815 165.778815 86.081858 165.611905 85.661752 165.611905 
C 85.241645 165.611905 84.838688 165.778815 84.541627 166.075876 
C 84.244567 166.372936 84.077656 166.775893 84.077656 167.196 
C 84.077656 167.616107 84.244567 168.019064 84.541627 168.316125 
C 84.838688 168.613185 85.241645 168.780095 85.661752 168.780095 
z
" clip-path="url(#pe59c9ce977)" style="stroke: #000000"/>
    <path d="M 84.16122 154.714614 
C 84.640906 154.714614 85.101009 154.524033 85.440197 154.184844 
C 85.779386 153.845656 85.969967 153.385552 85.969967 152.905867 
C 85.969967 152.426182 85.779386 151.966079 85.440197 151.626891 
C 85.101009 151.287702 84.640906 151.097121 84.16122 151.097121 
C 83.681535 151.097121 83.221432 151.287702 82.882244 151.626891 
C 82.543055 151.966079 82.352474 152.426182 82.352474 152.905867 
C 82.352474 153.385552 82.543055 153.845656 82.882244 154.184844 
C 83.221432 154.524033 83.681535 154.714614 84.16122 154.714614 
z
" clip-path="url(#pe59c9ce977)" style="stroke: #000000"/>
    <path d="M 83.598013 144.732494 
C 83.976677 144.732494 84.339883 144.582049 84.607639 144.314293 
C 84.875395 144.046538 85.02584 143.683332 85.02584 143.304668 
C 85.02584 142.926004 84.875395 142.562798 84.607639 142.295042 
C 84.339883 142.027286 83.976677 141.876841 83.598013 141.876841 
C 83.219349 141.876841 82.856144 142.027286 82.588388 142.295042 
C 82.320632 142.562798 82.170187 142.926004 82.170187 143.304668 
C 82.170187 143.683332 82.320632 144.046538 82.588388 144.314293 
C 82.856144 144.582049 83.219349 144.732494 83.598013 144.732494 
z
" clip-path="url(#pe59c9ce977)" style="stroke: #000000"/>
    <path d="M 74.51716 135.992097 
C 75.015978 135.992097 75.494432 135.793915 75.84715 135.441198 
C 76.199867 135.088481 76.398049 134.610026 76.398049 134.111209 
C 76.398049 133.612391 76.199867 133.133937 75.84715 132.781219 
C 75.494432 132.428502 75.015978 132.23032 74.51716 132.23032 
C 74.018343 132.23032 73.539888 132.428502 73.187171 132.781219 
C 72.834454 133.133937 72.636271 133.612391 72.636271 134.111209 
C 72.636271 134.610026 72.834454 135.088481 73.187171 135.441198 
C 73.539888 135.793915 74.018343 135.992097 74.51716 135.992097 
z
" clip-path="url(#pe59c9ce977)" style="stroke: #000000"/>
    <path d="M 72.287315 127.188563 
C 72.786133 127.188563 73.264587 126.99038 73.617305 126.637663 
C 73.970022 126.284946 74.168204 125.806491 74.168204 125.307674 
C 74.168204 124.808856 73.970022 124.330402 73.617305 123.977684 
C 73.264587 123.624967 72.786133 123.426785 72.287315 123.426785 
C 71.788498 123.426785 71.310043 123.624967 70.957326 123.977684 
C 70.604609 124.330402 70.406426 124.808856 70.406426 125.307674 
C 70.406426 125.806491 70.604609 126.284946 70.957326 126.637663 
C 71.310043 126.99038 71.788498 127.188563 72.287315 127.188563 
z
" clip-path="url(#pe59c9ce977)" style="stroke: #000000"/>
    <path d="M 71.735748 116.380454 
C 72.234565 116.380454 72.71302 116.182272 73.065737 115.829555 
C 73.418454 115.476838 73.616636 114.998383 73.616636 114.499566 
C 73.616636 114.000748 73.418454 113.522294 73.065737 113.169576 
C 72.71302 112.816859 72.234565 112.618677 71.735748 112.618677 
C 71.23693 112.618677 70.758476 112.816859 70.405758 113.169576 
C 70.053041 113.522294 69.854859 114.000748 69.854859 114.499566 
C 69.854859 114.998383 70.053041 115.476838 70.405758 115.829555 
C 70.758476 116.182272 71.23693 116.380454 71.735748 116.380454 
z
" clip-path="url(#pe59c9ce977)" style="stroke: #000000"/>
    <path d="M 64.875382 100.46552 
C 65.276221 100.46552 65.660697 100.306265 65.944133 100.022829 
C 66.227569 99.739392 66.386824 99.354917 66.386824 98.954077 
C 66.386824 98.553238 66.227569 98.168762 65.944133 97.885326 
C 65.660697 97.60189 65.276221 97.442635 64.875382 97.442635 
C 64.474543 97.442635 64.090067 97.60189 63.806631 97.885326 
C 63.523195 98.168762 63.363939 98.553238 63.363939 98.954077 
C 63.363939 99.354917 63.523195 99.739392 63.806631 100.022829 
C 64.090067 100.306265 64.474543 100.46552 64.875382 100.46552 
z
" clip-path="url(#pe59c9ce977)" style="stroke: #000000"/>
    <path d="M 63.378203 97.281109 
C 63.782595 97.281109 64.170479 97.120443 64.456427 96.834494 
C 64.742375 96.548546 64.903042 96.160662 64.903042 95.75627 
C 64.903042 95.351878 64.742375 94.963994 64.456427 94.678046 
C 64.170479 94.392098 63.782595 94.231431 63.378203 94.231431 
C 62.973811 94.231431 62.585927 94.392098 62.299979 94.678046 
C 62.01403 94.963994 61.853364 95.351878 61.853364 95.75627 
C 61.853364 96.160662 62.01403 96.548546 62.299979 96.834494 
C 62.585927 97.120443 62.973811 97.281109 63.378203 97.281109 
z
" clip-path="url(#pe59c9ce977)" style="stroke: #000000"/>
    <path d="M 56.679487 85.878092 
C 57.070036 85.878092 57.444641 85.722926 57.720801 85.446766 
C 57.99696 85.170606 58.152127 84.796001 58.152127 84.405452 
C 58.152127 84.014903 57.99696 83.640298 57.720801 83.364138 
C 57.444641 83.087979 57.070036 82.932812 56.679487 82.932812 
C 56.288938 82.932812 55.914333 83.087979 55.638173 83.364138 
C 55.362013 83.640298 55.206847 84.014903 55.206847 84.405452 
C 55.206847 84.796001 55.362013 85.170606 55.638173 85.446766 
C 55.914333 85.722926 56.288938 85.878092 56.679487 85.878092 
z
" clip-path="url(#pe59c9ce977)" style="stroke: #000000"/>
    <path d="M 50.508249 74.948508 
C 50.508249 74.948508 50.508249 74.948508 50.508249 74.948508 
C 50.508249 74.948508 50.508249 74.948508 50.508249 74.948508 
C 50.508249 74.948508 50.508249 74.948508 50.508249 74.948508 
C 50.508249 74.948508 50.508249 74.948508 50.508249 74.948508 
C 50.508249 74.948508 50.508249 74.948508 50.508249 74.948508 
C 50.508249 74.948508 50.508249 74.948508 50.508249 74.948508 
C 50.508249 74.948508 50.508249 74.948508 50.508249 74.948508 
C 50.508249 74.948508 50.508249 74.948508 50.508249 74.948508 
z
" clip-path="url(#pe59c9ce977)" style="stroke: #000000"/>
    <path d="M 54.447458 62.55469 
C 54.866781 62.55469 55.268986 62.388091 55.565492 62.091585 
C 55.861998 61.795079 56.028597 61.392874 56.028597 60.973551 
C 56.028597 60.554228 55.861998 60.152023 55.565492 59.855517 
C 55.268986 59.559011 54.866781 59.392412 54.447458 59.392412 
C 54.028135 59.392412 53.62593 59.559011 53.329424 59.855517 
C 53.032918 60.152023 52.866319 60.554228 52.866319 60.973551 
C 52.866319 61.392874 53.032918 61.795079 53.329424 62.091585 
C 53.62593 62.388091 54.028135 62.55469 54.447458 62.55469 
z
" clip-path="url(#pe59c9ce977)" style="stroke: #000000"/>
    <path d="M 45.538755 52.503134 
C 45.958078 52.503134 46.360283 52.336535 46.656789 52.040029 
C 46.953295 51.743523 47.119894 51.341318 47.119894 50.921995 
C 47.119894 50.502672 46.953295 50.100467 46.656789 49.803961 
C 46.360283 49.507455 45.958078 49.340856 45.538755 49.340856 
C 45.119432 49.340856 44.717227 49.507455 44.420721 49.803961 
C 44.124215 50.100467 43.957616 50.502672 43.957616 50.921995 
C 43.957616 51.341318 44.124215 51.743523 44.420721 52.040029 
C 44.717227 52.336535 45.119432 52.503134 45.538755 52.503134 
z
" clip-path="url(#pe59c9ce977)" style="stroke: #000000"/>
    <path d="M 81.231208 179.629776 
C 81.231208 179.629776 81.231208 179.629776 81.231208 179.629776 
C 81.231208 179.629776 81.231208 179.629776 81.231208 179.629776 
C 81.231208 179.629776 81.231208 179.629776 81.231208 179.629776 
C 81.231208 179.629776 81.231208 179.629776 81.231208 179.629776 
C 81.231208 179.629776 81.231208 179.629776 81.231208 179.629776 
C 81.231208 179.629776 81.231208 179.629776 81.231208 179.629776 
C 81.231208 179.629776 81.231208 179.629776 81.231208 179.629776 
C 81.231208 179.629776 81.231208 179.629776 81.231208 179.629776 
z
" clip-path="url(#pe59c9ce977)" style="stroke: #000000"/>
    <path d="M 78.771354 163.674151 
C 78.771354 163.674151 78.771354 163.674151 78.771354 163.674151 
C 78.771354 163.674151 78.771354 163.674151 78.771354 163.674151 
C 78.771354 163.674151 78.771354 163.674151 78.771354 163.674151 
C 78.771354 163.674151 78.771354 163.674151 78.771354 163.674151 
C 78.771354 163.674151 78.771354 163.674151 78.771354 163.674151 
C 78.771354 163.674151 78.771354 163.674151 78.771354 163.674151 
C 78.771354 163.674151 78.771354 163.674151 78.771354 163.674151 
C 78.771354 163.674151 78.771354 163.674151 78.771354 163.674151 
z
" clip-path="url(#pe59c9ce977)" style="stroke: #000000"/>
    <path d="M 68.251684 158.987975 
C 68.711228 158.987975 69.152013 158.805397 69.47696 158.480449 
C 69.801907 158.155502 69.984486 157.714718 69.984486 157.255173 
C 69.984486 156.795629 69.801907 156.354844 69.47696 156.029897 
C 69.152013 155.70495 68.711228 155.522371 68.251684 155.522371 
C 67.792139 155.522371 67.351355 155.70495 67.026408 156.029897 
C 66.701461 156.354844 66.518882 156.795629 66.518882 157.255173 
C 66.518882 157.714718 66.701461 158.155502 67.026408 158.480449 
C 67.351355 158.805397 67.792139 158.987975 68.251684 158.987975 
z
" clip-path="url(#pe59c9ce977)" style="stroke: #000000"/>
    <path d="M 68.387863 153.054015 
C 68.886681 153.054015 69.365135 152.855833 69.717853 152.503116 
C 70.07057 152.150398 70.268752 151.671944 70.268752 151.173126 
C 70.268752 150.674309 70.07057 150.195854 69.717853 149.843137 
C 69.365135 149.49042 68.886681 149.292237 68.387863 149.292237 
C 67.889046 149.292237 67.410591 149.49042 67.057874 149.843137 
C 66.705157 150.195854 66.506975 150.674309 66.506975 151.173126 
C 66.506975 151.671944 66.705157 152.150398 67.057874 152.503116 
C 67.410591 152.855833 67.889046 153.054015 68.387863 153.054015 
z
" clip-path="url(#pe59c9ce977)" style="stroke: #000000"/>
    <path d="M 66.522094 137.277509 
C 67.020912 137.277509 67.499366 137.079326 67.852084 136.726609 
C 68.204801 136.373892 68.402983 135.895437 68.402983 135.39662 
C 68.402983 134.897802 68.204801 134.419348 67.852084 134.06663 
C 67.499366 133.713913 67.020912 133.515731 66.522094 133.515731 
C 66.023277 133.515731 65.544822 133.713913 65.192105 134.06663 
C 64.839388 134.419348 64.641205 134.897802 64.641205 135.39662 
C 64.641205 135.895437 64.839388 136.373892 65.192105 136.726609 
C 65.544822 137.079326 66.023277 137.277509 66.522094 137.277509 
z
" clip-path="url(#pe59c9ce977)" style="stroke: #000000"/>
    <path d="M 59.134932 127.149067 
C 59.633749 127.149067 60.112204 126.950885 60.464921 126.598168 
C 60.817638 126.24545 61.015821 125.766996 61.015821 125.268178 
C 61.015821 124.769361 60.817638 124.290906 60.464921 123.938189 
C 60.112204 123.585472 59.633749 123.387289 59.134932 123.387289 
C 58.636114 123.387289 58.15766 123.585472 57.804943 123.938189 
C 57.452225 124.290906 57.254043 124.769361 57.254043 125.268178 
C 57.254043 125.766996 57.452225 126.24545 57.804943 126.598168 
C 58.15766 126.950885 58.636114 127.149067 59.134932 127.149067 
z
" clip-path="url(#pe59c9ce977)" style="stroke: #000000"/>
    <path d="M 57.792782 119.916159 
C 58.291599 119.916159 58.770054 119.717976 59.122771 119.365259 
C 59.475488 119.012542 59.673671 118.534087 59.673671 118.03527 
C 59.673671 117.536452 59.475488 117.057998 59.122771 116.70528 
C 58.770054 116.352563 58.291599 116.154381 57.792782 116.154381 
C 57.293964 116.154381 56.81551 116.352563 56.462792 116.70528 
C 56.110075 117.057998 55.911893 117.536452 55.911893 118.03527 
C 55.911893 118.534087 56.110075 119.012542 56.462792 119.365259 
C 56.81551 119.717976 57.293964 119.916159 57.792782 119.916159 
z
" clip-path="url(#pe59c9ce977)" style="stroke: #000000"/>
    <path d="M 56.213471 106.181393 
C 56.712289 106.181393 57.190743 105.983211 57.54346 105.630493 
C 57.896178 105.277776 58.09436 104.799322 58.09436 104.300504 
C 58.09436 103.801686 57.896178 103.323232 57.54346 102.970515 
C 57.190743 102.617797 56.712289 102.419615 56.213471 102.419615 
C 55.714653 102.419615 55.236199 102.617797 54.883482 102.970515 
C 54.530764 103.323232 54.332582 103.801686 54.332582 104.300504 
C 54.332582 104.799322 54.530764 105.277776 54.883482 105.630493 
C 55.236199 105.983211 55.714653 106.181393 56.213471 106.181393 
z
" clip-path="url(#pe59c9ce977)" style="stroke: #000000"/>
    <path d="M 49.045684 96.063936 
C 49.045684 96.063936 49.045684 96.063936 49.045684 96.063936 
C 49.045684 96.063936 49.045684 96.063936 49.045684 96.063936 
C 49.045684 96.063936 49.045684 96.063936 49.045684 96.063936 
C 49.045684 96.063936 49.045684 96.063936 49.045684 96.063936 
C 49.045684 96.063936 49.045684 96.063936 49.045684 96.063936 
C 49.045684 96.063936 49.045684 96.063936 49.045684 96.063936 
C 49.045684 96.063936 49.045684 96.063936 49.045684 96.063936 
C 49.045684 96.063936 49.045684 96.063936 49.045684 96.063936 
z
" clip-path="url(#pe59c9ce977)" style="stroke: #000000"/>
    <path d="M 42.928305 92.621854 
C 43.421259 92.621854 43.89409 92.426001 44.242662 92.07743 
C 44.591233 91.728858 44.787086 91.256027 44.787086 90.763073 
C 44.787086 90.270118 44.591233 89.797287 44.242662 89.448716 
C 43.89409 89.100144 43.421259 88.904291 42.928305 88.904291 
C 42.43535 88.904291 41.962519 89.100144 41.613948 89.448716 
C 41.265376 89.797287 41.069523 90.270118 41.069523 90.763073 
C 41.069523 91.256027 41.265376 91.728858 41.613948 92.07743 
C 41.962519 92.426001 42.43535 92.621854 42.928305 92.621854 
z
" clip-path="url(#pe59c9ce977)" style="stroke: #000000"/>
    <path d="M 45.841743 75.772778 
C 46.268219 75.772778 46.677285 75.603337 46.978849 75.301773 
C 47.280413 75.000209 47.449854 74.591143 47.449854 74.164667 
C 47.449854 73.738191 47.280413 73.329125 46.978849 73.027561 
C 46.677285 72.725997 46.268219 72.556556 45.841743 72.556556 
C 45.415267 72.556556 45.006201 72.725997 44.704637 73.027561 
C 44.403073 73.329125 44.233632 73.738191 44.233632 74.164667 
C 44.233632 74.591143 44.403073 75.000209 44.704637 75.301773 
C 45.006201 75.603337 45.415267 75.772778 45.841743 75.772778 
z
" clip-path="url(#pe59c9ce977)" style="stroke: #000000"/>
    <path d="M 38.598353 66.039501 
C 38.598353 66.039501 38.598353 66.039501 38.598353 66.039501 
C 38.598353 66.039501 38.598353 66.039501 38.598353 66.039501 
C 38.598353 66.039501 38.598353 66.039501 38.598353 66.039501 
C 38.598353 66.039501 38.598353 66.039501 38.598353 66.039501 
C 38.598353 66.039501 38.598353 66.039501 38.598353 66.039501 
C 38.598353 66.039501 38.598353 66.039501 38.598353 66.039501 
C 38.598353 66.039501 38.598353 66.039501 38.598353 66.039501 
C 38.598353 66.039501 38.598353 66.039501 38.598353 66.039501 
z
" clip-path="url(#pe59c9ce977)" style="stroke: #000000"/>
    <path d="M 36.881091 59.288579 
C 37.300414 59.288579 37.702619 59.121981 37.999125 58.825475 
C 38.295631 58.528969 38.462229 58.126764 38.462229 57.707441 
C 38.462229 57.288118 38.295631 56.885913 37.999125 56.589407 
C 37.702619 56.292901 37.300414 56.126302 36.881091 56.126302 
C 36.461768 56.126302 36.059563 56.292901 35.763057 56.589407 
C 35.466551 56.885913 35.299952 57.288118 35.299952 57.707441 
C 35.299952 58.126764 35.466551 58.528969 35.763057 58.825475 
C 36.059563 59.121981 36.461768 59.288579 36.881091 59.288579 
z
" clip-path="url(#pe59c9ce977)" style="stroke: #000000"/>
    <path d="M 64.80923 176.013036 
C 65.228552 176.013036 65.630757 175.846438 65.927264 175.549932 
C 66.22377 175.253426 66.390368 174.851221 66.390368 174.431898 
C 66.390368 174.012575 66.22377 173.61037 65.927264 173.313864 
C 65.630757 173.017358 65.228552 172.850759 64.80923 172.850759 
C 64.389907 172.850759 63.987702 173.017358 63.691196 173.313864 
C 63.394689 173.61037 63.228091 174.012575 63.228091 174.431898 
C 63.228091 174.851221 63.394689 175.253426 63.691196 175.549932 
C 63.987702 175.846438 64.389907 176.013036 64.80923 176.013036 
z
" clip-path="url(#pe59c9ce977)" style="stroke: #000000"/>
    <path d="M 62.388568 162.759189 
C 62.388568 162.759189 62.388568 162.759189 62.388568 162.759189 
C 62.388568 162.759189 62.388568 162.759189 62.388568 162.759189 
C 62.388568 162.759189 62.388568 162.759189 62.388568 162.759189 
C 62.388568 162.759189 62.388568 162.759189 62.388568 162.759189 
C 62.388568 162.759189 62.388568 162.759189 62.388568 162.759189 
C 62.388568 162.759189 62.388568 162.759189 62.388568 162.759189 
C 62.388568 162.759189 62.388568 162.759189 62.388568 162.759189 
C 62.388568 162.759189 62.388568 162.759189 62.388568 162.759189 
z
" clip-path="url(#pe59c9ce977)" style="stroke: #000000"/>
    <path d="M 59.755082 152.096686 
C 60.253588 152.096686 60.731744 151.898627 61.084241 151.54613 
C 61.436738 151.193633 61.634796 150.715478 61.634796 150.216972 
C 61.634796 149.718466 61.436738 149.240311 61.084241 148.887814 
C 60.731744 148.535317 60.253588 148.337258 59.755082 148.337258 
C 59.256577 148.337258 58.778421 148.535317 58.425924 148.887814 
C 58.073427 149.240311 57.875369 149.718466 57.875369 150.216972 
C 57.875369 150.715478 58.073427 151.193633 58.425924 151.54613 
C 58.778421 151.898627 59.256577 152.096686 59.755082 152.096686 
z
" clip-path="url(#pe59c9ce977)" style="stroke: #000000"/>
    <path d="M 53.55669 146.936346 
C 54.055352 146.936346 54.533657 146.738225 54.886264 146.385618 
C 55.238871 146.033011 55.436991 145.554706 55.436991 145.056044 
C 55.436991 144.557382 55.238871 144.079077 54.886264 143.72647 
C 54.533657 143.373863 54.055352 143.175743 53.55669 143.175743 
C 53.058028 143.175743 52.579723 143.373863 52.227116 143.72647 
C 51.874509 144.079077 51.676388 144.557382 51.676388 145.056044 
C 51.676388 145.554706 51.874509 146.033011 52.227116 146.385618 
C 52.579723 146.738225 53.058028 146.936346 53.55669 146.936346 
z
" clip-path="url(#pe59c9ce977)" style="stroke: #000000"/>
    <path d="M 52.088965 131.548585 
C 52.587783 131.548585 53.066237 131.350402 53.418954 130.997685 
C 53.771672 130.644968 53.969854 130.166513 53.969854 129.667696 
C 53.969854 129.168878 53.771672 128.690424 53.418954 128.337706 
C 53.066237 127.984989 52.587783 127.786807 52.088965 127.786807 
C 51.590148 127.786807 51.111693 127.984989 50.758976 128.337706 
C 50.406259 128.690424 50.208076 129.168878 50.208076 129.667696 
C 50.208076 130.166513 50.406259 130.644968 50.758976 130.997685 
C 51.111693 131.350402 51.590148 131.548585 52.088965 131.548585 
z
" clip-path="url(#pe59c9ce977)" style="stroke: #000000"/>
    <path d="M 48.979658 118.867576 
C 48.979658 118.867576 48.979658 118.867576 48.979658 118.867576 
C 48.979658 118.867576 48.979658 118.867576 48.979658 118.867576 
C 48.979658 118.867576 48.979658 118.867576 48.979658 118.867576 
C 48.979658 118.867576 48.979658 118.867576 48.979658 118.867576 
C 48.979658 118.867576 48.979658 118.867576 48.979658 118.867576 
C 48.979658 118.867576 48.979658 118.867576 48.979658 118.867576 
C 48.979658 118.867576 48.979658 118.867576 48.979658 118.867576 
C 48.979658 118.867576 48.979658 118.867576 48.979658 118.867576 
z
" clip-path="url(#pe59c9ce977)" style="stroke: #000000"/>
    <path d="M 44.207387 109.199636 
C 44.705893 109.199636 45.184049 109.001577 45.536546 108.649081 
C 45.889043 108.296584 46.087101 107.818428 46.087101 107.319922 
C 46.087101 106.821416 45.889043 106.343261 45.536546 105.990764 
C 45.184049 105.638267 44.705893 105.440209 44.207387 105.440209 
C 43.708882 105.440209 43.230726 105.638267 42.878229 105.990764 
C 42.525732 106.343261 42.327674 106.821416 42.327674 107.319922 
C 42.327674 107.818428 42.525732 108.296584 42.878229 108.649081 
C 43.230726 109.001577 43.708882 109.199636 44.207387 109.199636 
z
" clip-path="url(#pe59c9ce977)" style="stroke: #000000"/>
    <path d="M 39.293116 102.968461 
C 39.76137 102.968461 40.210508 102.782422 40.541613 102.451316 
C 40.872719 102.120211 41.058758 101.671073 41.058758 101.202819 
C 41.058758 100.734565 40.872719 100.285427 40.541613 99.954322 
C 40.210508 99.623216 39.76137 99.437177 39.293116 99.437177 
C 38.824862 99.437177 38.375724 99.623216 38.044619 99.954322 
C 37.713513 100.285427 37.527474 100.734565 37.527474 101.202819 
C 37.527474 101.671073 37.713513 102.120211 38.044619 102.451316 
C 38.375724 102.782422 38.824862 102.968461 39.293116 102.968461 
z
" clip-path="url(#pe59c9ce977)" style="stroke: #000000"/>
    <path d="M 35.320802 91.213574 
C 35.320802 91.213574 35.320802 91.213574 35.320802 91.213574 
C 35.320802 91.213574 35.320802 91.213574 35.320802 91.213574 
C 35.320802 91.213574 35.320802 91.213574 35.320802 91.213574 
C 35.320802 91.213574 35.320802 91.213574 35.320802 91.213574 
C 35.320802 91.213574 35.320802 91.213574 35.320802 91.213574 
C 35.320802 91.213574 35.320802 91.213574 35.320802 91.213574 
C 35.320802 91.213574 35.320802 91.213574 35.320802 91.213574 
C 35.320802 91.213574 35.320802 91.213574 35.320802 91.213574 
z
" clip-path="url(#pe59c9ce977)" style="stroke: #000000"/>
    <path d="M 47.325029 165.567074 
C 47.744352 165.567074 48.146557 165.400475 48.443063 165.103969 
C 48.739569 164.807463 48.906168 164.405258 48.906168 163.985935 
C 48.906168 163.566612 48.739569 163.164407 48.443063 162.867901 
C 48.146557 162.571395 47.744352 162.404796 47.325029 162.404796 
C 46.905706 162.404796 46.503501 162.571395 46.206995 162.867901 
C 45.910489 163.164407 45.74389 163.566612 45.74389 163.985935 
C 45.74389 164.405258 45.910489 164.807463 46.206995 165.103969 
C 46.503501 165.400475 46.905706 165.567074 47.325029 165.567074 
z
" clip-path="url(#pe59c9ce977)" style="stroke: #000000"/>
    <path d="M 45.260772 155.10583 
C 45.260772 155.10583 45.260772 155.10583 45.260772 155.10583 
C 45.260772 155.10583 45.260772 155.10583 45.260772 155.10583 
C 45.260772 155.10583 45.260772 155.10583 45.260772 155.10583 
C 45.260772 155.10583 45.260772 155.10583 45.260772 155.10583 
C 45.260772 155.10583 45.260772 155.10583 45.260772 155.10583 
C 45.260772 155.10583 45.260772 155.10583 45.260772 155.10583 
C 45.260772 155.10583 45.260772 155.10583 45.260772 155.10583 
C 45.260772 155.10583 45.260772 155.10583 45.260772 155.10583 
z
" clip-path="url(#pe59c9ce977)" style="stroke: #000000"/>
    <path d="M 42.746615 144.249384 
C 42.746615 144.249384 42.746615 144.249384 42.746615 144.249384 
C 42.746615 144.249384 42.746615 144.249384 42.746615 144.249384 
C 42.746615 144.249384 42.746615 144.249384 42.746615 144.249384 
C 42.746615 144.249384 42.746615 144.249384 42.746615 144.249384 
C 42.746615 144.249384 42.746615 144.249384 42.746615 144.249384 
C 42.746615 144.249384 42.746615 144.249384 42.746615 144.249384 
C 42.746615 144.249384 42.746615 144.249384 42.746615 144.249384 
C 42.746615 144.249384 42.746615 144.249384 42.746615 144.249384 
z
" clip-path="url(#pe59c9ce977)" style="stroke: #000000"/>
    <path d="M 41.098877 132.978669 
C 41.597383 132.978669 42.075539 132.78061 42.428036 132.428114 
C 42.780533 132.075617 42.978591 131.597461 42.978591 131.098955 
C 42.978591 130.600449 42.780533 130.122294 42.428036 129.769797 
C 42.075539 129.4173 41.597383 129.219242 41.098877 129.219242 
C 40.600371 129.219242 40.122216 129.4173 39.769719 129.769797 
C 39.417222 130.122294 39.219164 130.600449 39.219164 131.098955 
C 39.219164 131.597461 39.417222 132.075617 39.769719 132.428114 
C 40.122216 132.78061 40.600371 132.978669 41.098877 132.978669 
z
" clip-path="url(#pe59c9ce977)" style="stroke: #000000"/>
    <path d="M 34.963539 125.00306 
C 34.963539 125.00306 34.963539 125.00306 34.963539 125.00306 
C 34.963539 125.00306 34.963539 125.00306 34.963539 125.00306 
C 34.963539 125.00306 34.963539 125.00306 34.963539 125.00306 
C 34.963539 125.00306 34.963539 125.00306 34.963539 125.00306 
C 34.963539 125.00306 34.963539 125.00306 34.963539 125.00306 
C 34.963539 125.00306 34.963539 125.00306 34.963539 125.00306 
C 34.963539 125.00306 34.963539 125.00306 34.963539 125.00306 
C 34.963539 125.00306 34.963539 125.00306 34.963539 125.00306 
z
" clip-path="url(#pe59c9ce977)" style="stroke: #000000"/>
    <path d="M 30.592733 114.35851 
C 30.592733 114.35851 30.592733 114.35851 30.592733 114.35851 
C 30.592733 114.35851 30.592733 114.35851 30.592733 114.35851 
C 30.592733 114.35851 30.592733 114.35851 30.592733 114.35851 
C 30.592733 114.35851 30.592733 114.35851 30.592733 114.35851 
C 30.592733 114.35851 30.592733 114.35851 30.592733 114.35851 
C 30.592733 114.35851 30.592733 114.35851 30.592733 114.35851 
C 30.592733 114.35851 30.592733 114.35851 30.592733 114.35851 
C 30.592733 114.35851 30.592733 114.35851 30.592733 114.35851 
z
" clip-path="url(#pe59c9ce977)" style="stroke: #000000"/>
    <path d="M 41.278746 170.861855 
C 41.677469 170.861855 42.059914 170.703441 42.341853 170.421502 
C 42.623793 170.139562 42.782207 169.757117 42.782207 169.358395 
C 42.782207 168.959672 42.623793 168.577227 42.341853 168.295288 
C 42.059914 168.013349 41.677469 167.854934 41.278746 167.854934 
C 40.880024 167.854934 40.497579 168.013349 40.21564 168.295288 
C 39.9337 168.577227 39.775286 168.959672 39.775286 169.358395 
C 39.775286 169.757117 39.9337 170.139562 40.21564 170.421502 
C 40.497579 170.703441 40.880024 170.861855 41.278746 170.861855 
z
" clip-path="url(#pe59c9ce977)" style="stroke: #000000"/>
    <path d="M 40.997216 155.284042 
C 40.997216 155.284042 40.997216 155.284042 40.997216 155.284042 
C 40.997216 155.284042 40.997216 155.284042 40.997216 155.284042 
C 40.997216 155.284042 40.997216 155.284042 40.997216 155.284042 
C 40.997216 155.284042 40.997216 155.284042 40.997216 155.284042 
C 40.997216 155.284042 40.997216 155.284042 40.997216 155.284042 
C 40.997216 155.284042 40.997216 155.284042 40.997216 155.284042 
C 40.997216 155.284042 40.997216 155.284042 40.997216 155.284042 
C 40.997216 155.284042 40.997216 155.284042 40.997216 155.284042 
z
" clip-path="url(#pe59c9ce977)" style="stroke: #000000"/>
    <path d="M 37.349831 148.426205 
C 37.349831 148.426205 37.349831 148.426205 37.349831 148.426205 
C 37.349831 148.426205 37.349831 148.426205 37.349831 148.426205 
C 37.349831 148.426205 37.349831 148.426205 37.349831 148.426205 
C 37.349831 148.426205 37.349831 148.426205 37.349831 148.426205 
C 37.349831 148.426205 37.349831 148.426205 37.349831 148.426205 
C 37.349831 148.426205 37.349831 148.426205 37.349831 148.426205 
C 37.349831 148.426205 37.349831 148.426205 37.349831 148.426205 
C 37.349831 148.426205 37.349831 148.426205 37.349831 148.426205 
z
" clip-path="url(#pe59c9ce977)" style="stroke: #000000"/>
    <path d="M 29.351799 142.209699 
C 29.771122 142.209699 30.173327 142.0431 30.469833 141.746594 
C 30.76634 141.450088 30.932938 141.047883 30.932938 140.62856 
C 30.932938 140.209237 30.76634 139.807032 30.469833 139.510526 
C 30.173327 139.21402 29.771122 139.047421 29.351799 139.047421 
C 28.932477 139.047421 28.530272 139.21402 28.233765 139.510526 
C 27.937259 139.807032 27.770661 140.209237 27.770661 140.62856 
C 27.770661 141.047883 27.937259 141.450088 28.233765 141.746594 
C 28.530272 142.0431 28.932477 142.209699 29.351799 142.209699 
z
" clip-path="url(#pe59c9ce977)" style="stroke: #000000"/>
   </g>
   <g id="matplotlib.axis_1">
    <g id="xtick_1">
     <g id="line2d_1">
      <defs>
       <path id="m0f65a4d678" d="M 0 0 
L 0 3.5 
" style="stroke: #000000; stroke-width: 0.8"/>
      </defs>
      <g>
       <use xlink:href="#m0f65a4d678" x="18" y="189" style="stroke: #000000; stroke-width: 0.8"/>
      </g>
     </g>
     <g id="text_1">
      <!-- 10 -->
      <g transform="translate(7.447656 203.598437)scale(0.1 -0.1)">
       <defs>
        <path id="DejaVuSans-2212" d="M 678 2272 
L 4684 2272 
L 4684 1741 
L 678 1741 
L 678 2272 
z
" transform="scale(0.015625)"/>
        <path id="DejaVuSans-31" d="M 794 531 
L 1825 531 
L 1825 4091 
L 703 3866 
L 703 4441 
L 1819 4666 
L 2450 4666 
L 2450 531 
L 3481 531 
L 3481 0 
L 794 0 
L 794 531 
z
" transform="scale(0.015625)"/>
        <path id="DejaVuSans-30" d="M 2034 4250 
Q 1547 4250 1301 3770 
Q 1056 3291 1056 2328 
Q 1056 1369 1301 889 
Q 1547 409 2034 409 
Q 2525 409 2770 889 
Q 3016 1369 3016 2328 
Q 3016 3291 2770 3770 
Q 2525 4250 2034 4250 
z
M 2034 4750 
Q 2819 4750 3233 4129 
Q 3647 3509 3647 2328 
Q 3647 1150 3233 529 
Q 2819 -91 2034 -91 
Q 1250 -91 836 529 
Q 422 1150 422 2328 
Q 422 3509 836 4129 
Q 1250 4750 2034 4750 
z
" transform="scale(0.015625)"/>
       </defs>
       <use xlink:href="#DejaVuSans-2212"/>
       <use xlink:href="#DejaVuSans-31" x="83.789062"/>
       <use xlink:href="#DejaVuSans-30" x="147.412109"/>
      </g>
     </g>
    </g>
    <g id="xtick_2">
     <g id="line2d_2">
      <g>
       <use xlink:href="#m0f65a4d678" x="73.8" y="189" style="stroke: #000000; stroke-width: 0.8"/>
      </g>
     </g>
     <g id="text_2">
      <!-- 0 -->
      <g transform="translate(70.61875 203.598437)scale(0.1 -0.1)">
       <use xlink:href="#DejaVuSans-30"/>
      </g>
     </g>
    </g>
    <g id="xtick_3">
     <g id="line2d_3">
      <g>
       <use xlink:href="#m0f65a4d678" x="129.6" y="189" style="stroke: #000000; stroke-width: 0.8"/>
      </g>
     </g>
     <g id="text_3">
      <!-- 10 -->
      <g transform="translate(123.2375 203.598437)scale(0.1 -0.1)">
       <use xlink:href="#DejaVuSans-31"/>
       <use xlink:href="#DejaVuSans-30" x="63.623047"/>
      </g>
     </g>
    </g>
   </g>
   <g id="matplotlib.axis_2">
    <g id="ytick_1">
     <g id="line2d_4">
      <defs>
       <path id="mc713feead7" d="M 0 0 
L -3.5 0 
" style="stroke: #000000; stroke-width: 0.8"/>
      </defs>
      <g>
       <use xlink:href="#mc713feead7" x="18" y="189" style="stroke: #000000; stroke-width: 0.8"/>
      </g>
     </g>
     <g id="text_4">
      <!-- 15 -->
      <g transform="translate(-10.104688 192.799219)scale(0.1 -0.1)">
       <defs>
        <path id="DejaVuSans-35" d="M 691 4666 
L 3169 4666 
L 3169 4134 
L 1269 4134 
L 1269 2991 
Q 1406 3038 1543 3061 
Q 1681 3084 1819 3084 
Q 2600 3084 3056 2656 
Q 3513 2228 3513 1497 
Q 3513 744 3044 326 
Q 2575 -91 1722 -91 
Q 1428 -91 1123 -41 
Q 819 9 494 109 
L 494 744 
Q 775 591 1075 516 
Q 1375 441 1709 441 
Q 2250 441 2565 725 
Q 2881 1009 2881 1497 
Q 2881 1984 2565 2268 
Q 2250 2553 1709 2553 
Q 1456 2553 1204 2497 
Q 953 2441 691 2322 
L 691 4666 
z
" transform="scale(0.015625)"/>
       </defs>
       <use xlink:href="#DejaVuSans-2212"/>
       <use xlink:href="#DejaVuSans-31" x="83.789062"/>
       <use xlink:href="#DejaVuSans-35" x="147.412109"/>
      </g>
     </g>
    </g>
    <g id="ytick_2">
     <g id="line2d_5">
      <g>
       <use xlink:href="#mc713feead7" x="18" y="161.82" style="stroke: #000000; stroke-width: 0.8"/>
      </g>
     </g>
     <g id="text_5">
      <!-- 10 -->
      <g transform="translate(-10.104688 165.619219)scale(0.1 -0.1)">
       <use xlink:href="#DejaVuSans-2212"/>
       <use xlink:href="#DejaVuSans-31" x="83.789062"/>
       <use xlink:href="#DejaVuSans-30" x="147.412109"/>
      </g>
     </g>
    </g>
    <g id="ytick_3">
     <g id="line2d_6">
      <g>
       <use xlink:href="#mc713feead7" x="18" y="134.64" style="stroke: #000000; stroke-width: 0.8"/>
      </g>
     </g>
     <g id="text_6">
      <!-- 5 -->
      <g transform="translate(-3.742188 138.439219)scale(0.1 -0.1)">
       <use xlink:href="#DejaVuSans-2212"/>
       <use xlink:href="#DejaVuSans-35" x="83.789062"/>
      </g>
     </g>
    </g>
    <g id="ytick_4">
     <g id="line2d_7">
      <g>
       <use xlink:href="#mc713feead7" x="18" y="107.46" style="stroke: #000000; stroke-width: 0.8"/>
      </g>
     </g>
     <g id="text_7">
      <!-- 0 -->
      <g transform="translate(4.6375 111.259219)scale(0.1 -0.1)">
       <use xlink:href="#DejaVuSans-30"/>
      </g>
     </g>
    </g>
    <g id="ytick_5">
     <g id="line2d_8">
      <g>
       <use xlink:href="#mc713feead7" x="18" y="80.28" style="stroke: #000000; stroke-width: 0.8"/>
      </g>
     </g>
     <g id="text_8">
      <!-- 5 -->
      <g transform="translate(4.6375 84.079219)scale(0.1 -0.1)">
       <use xlink:href="#DejaVuSans-35"/>
      </g>
     </g>
    </g>
    <g id="ytick_6">
     <g id="line2d_9">
      <g>
       <use xlink:href="#mc713feead7" x="18" y="53.1" style="stroke: #000000; stroke-width: 0.8"/>
      </g>
     </g>
     <g id="text_9">
      <!-- 10 -->
      <g transform="translate(-1.725 56.899219)scale(0.1 -0.1)">
       <use xlink:href="#DejaVuSans-31"/>
       <use xlink:href="#DejaVuSans-30" x="63.623047"/>
      </g>
     </g>
    </g>
    <g id="ytick_7">
     <g id="line2d_10">
      <g>
       <use xlink:href="#mc713feead7" x="18" y="25.92" style="stroke: #000000; stroke-width: 0.8"/>
      </g>
     </g>
     <g id="text_10">
      <!-- 15 -->
      <g transform="translate(-1.725 29.719219)scale(0.1 -0.1)">
       <use xlink:href="#DejaVuSans-31"/>
       <use xlink:href="#DejaVuSans-35" x="63.623047"/>
      </g>
     </g>
    </g>
   </g>
   <g id="patch_3">
    <path d="M 18 189 
L 18 25.92 
" style="fill: none; stroke: #000000; stroke-width: 0.8; stroke-linejoin: miter; stroke-linecap: square"/>
   </g>
   <g id="patch_4">
    <path d="M 129.6 189 
L 129.6 25.92 
" style="fill: none; stroke: #000000; stroke-width: 0.8; stroke-linejoin: miter; stroke-linecap: square"/>
   </g>
   <g id="patch_5">
    <path d="M 18 189 
L 129.6 189 
" style="fill: none; stroke: #000000; stroke-width: 0.8; stroke-linejoin: miter; stroke-linecap: square"/>
   </g>
   <g id="patch_6">
    <path d="M 18 25.92 
L 129.6 25.92 
" style="fill: none; stroke: #000000; stroke-width: 0.8; stroke-linejoin: miter; stroke-linecap: square"/>
   </g>
  </g>
 </g>
 <defs>
  <clipPath id="pe59c9ce977">
   <rect x="18" y="25.92" width="111.6" height="163.08"/>
  </clipPath>
 </defs>
</svg>
