<?xml version="1.0" encoding="utf-8" standalone="no"?>
<!DOCTYPE svg PUBLIC "-//W3C//DTD SVG 1.1//EN"
  "http://www.w3.org/Graphics/SVG/1.1/DTD/svg11.dtd">
<svg xmlns:xlink="http://www.w3.org/1999/xlink" width="144pt" height="216pt" viewBox="0 0 144 216" xmlns="http://www.w3.org/2000/svg" version="1.1">
 <metadata>
  <rdf:RDF xmlns:dc="http://purl.org/dc/elements/1.1/" xmlns:cc="http://creativecommons.org/ns#" xmlns:rdf="http://www.w3.org/1999/02/22-rdf-syntax-ns#">
   <cc:Work>
    <dc:type rdf:resource="http://purl.org/dc/dcmitype/StillImage"/>
    <dc:date>2022-06-28T09:27:10.925527</dc:date>
    <dc:format>image/svg+xml</dc:format>
    <dc:creator>
     <cc:Agent>
      <dc:title>Matplotlib v3.5.1, https://matplotlib.org/</dc:title>
     </cc:Agent>
    </dc:creator>
   </cc:Work>
  </rdf:RDF>
 </metadata>
 <defs>
  <style type="text/css">*{stroke-linejoin: round; stroke-linecap: butt}</style>
 </defs>
 <g id="figure_1">
  <g id="patch_1">
   <path d="M 0 216 
L 144 216 
L 144 0 
L 0 0 
L 0 216 
z
" style="fill: none"/>
  </g>
  <g id="axes_1">
   <g id="patch_2">
    <path d="M 18 189 
L 129.6 189 
L 129.6 25.92 
L 18 25.92 
z
" style="fill: #ffffff"/>
   </g>
   <g id="PathCollection_1">
    <defs>
     <path id="m24f10f70b7" d="M 0 2.738613 
C 0.726289 2.738613 1.422928 2.450055 1.936492 1.936492 
C 2.450055 1.422928 2.738613 0.726289 2.738613 0 
C 2.738613 -0.726289 2.450055 -1.422928 1.936492 -1.936492 
C 1.422928 -2.450055 0.726289 -2.738613 0 -2.738613 
C -0.726289 -2.738613 -1.422928 -2.450055 -1.936492 -1.936492 
C -2.450055 -1.422928 -2.738613 -0.726289 -2.738613 0 
C -2.738613 0.726289 -2.450055 1.422928 -1.936492 1.936492 
C -1.422928 2.450055 -0.726289 2.738613 0 2.738613 
z
" style="stroke: #ff0000; stroke-width: 1.75"/>
    </defs>
    <g clip-path="url(#p2c711e2e6f)">
     <use xlink:href="#m24f10f70b7" x="66.825" y="83.92143" style="fill: #ff0000; stroke: #ff0000; stroke-width: 1.75"/>
     <use xlink:href="#m24f10f70b7" x="87.75" y="95.690715" style="fill: #ff0000; stroke: #ff0000; stroke-width: 1.75"/>
     <use xlink:href="#m24f10f70b7" x="66.825" y="107.46" style="fill: #ff0000; stroke: #ff0000; stroke-width: 1.75"/>
     <use xlink:href="#m24f10f70b7" x="73.8" y="119.229285" style="fill: #ff0000; stroke: #ff0000; stroke-width: 1.75"/>
     <use xlink:href="#m24f10f70b7" x="87.75" y="119.229285" style="fill: #ff0000; stroke: #ff0000; stroke-width: 1.75"/>
     <use xlink:href="#m24f10f70b7" x="66.825" y="130.99857" style="fill: #ff0000; stroke: #ff0000; stroke-width: 1.75"/>
     <use xlink:href="#m24f10f70b7" x="80.775" y="130.99857" style="fill: #ff0000; stroke: #ff0000; stroke-width: 1.75"/>
    </g>
   </g>
   <g id="PathCollection_2">
    <defs>
     <path id="C0_0_befd624187" d="M 0 2.738613 
C 0.726289 2.738613 1.422928 2.450055 1.936492 1.936492 
C 2.450055 1.422928 2.738613 0.726289 2.738613 -0 
C 2.738613 -0.726289 2.450055 -1.422928 1.936492 -1.936492 
C 1.422928 -2.450055 0.726289 -2.738613 0 -2.738613 
C -0.726289 -2.738613 -1.422928 -2.450055 -1.936492 -1.936492 
C -2.450055 -1.422928 -2.738613 -0.726289 -2.738613 0 
C -2.738613 0.726289 -2.450055 1.422928 -1.936492 1.936492 
C -1.422928 2.450055 -0.726289 2.738613 0 2.738613 
z
"/>
    </defs>
    <g clip-path="url(#p2c711e2e6f)">
     <use xlink:href="#C0_0_befd624187" x="80.775" y="83.92143" style="fill: none; stroke: #ff0000; stroke-width: 1.75"/>
    </g>
    <g clip-path="url(#p2c711e2e6f)">
     <use xlink:href="#C0_0_befd624187" x="59.85" y="95.690715" style="fill: none; stroke: #ff0000; stroke-width: 1.75"/>
    </g>
    <g clip-path="url(#p2c711e2e6f)">
     <use xlink:href="#C0_0_befd624187" x="73.8" y="95.690715" style="fill: none; stroke: #ff0000; stroke-width: 1.75"/>
    </g>
    <g clip-path="url(#p2c711e2e6f)">
     <use xlink:href="#C0_0_befd624187" x="52.875" y="107.46" style="fill: none; stroke: #ff0000; stroke-width: 1.75"/>
    </g>
    <g clip-path="url(#p2c711e2e6f)">
     <use xlink:href="#C0_0_befd624187" x="80.775" y="107.46" style="fill: none; stroke: #ff0000; stroke-width: 1.75"/>
    </g>
    <g clip-path="url(#p2c711e2e6f)">
     <use xlink:href="#C0_0_befd624187" x="94.725" y="107.46" style="fill: none; stroke: #ff0000; stroke-width: 1.75"/>
    </g>
    <g clip-path="url(#p2c711e2e6f)">
     <use xlink:href="#C0_0_befd624187" x="59.85" y="119.229285" style="fill: none; stroke: #ff0000; stroke-width: 1.75"/>
    </g>
   </g>
   <g id="PathCollection_3">
    <path d="M 91.594068 119.142488 
C 92.299502 119.142488 92.976139 118.862216 93.474956 118.363398 
C 93.973774 117.864581 94.254046 117.187944 94.254046 116.482509 
C 94.254046 115.777075 93.973774 115.100438 93.474956 114.60162 
C 92.976139 114.102803 92.299502 113.822531 91.594068 113.822531 
C 90.888633 113.822531 90.211996 114.102803 89.713179 114.60162 
C 89.214361 115.100438 88.934089 115.777075 88.934089 116.482509 
C 88.934089 117.187944 89.214361 117.864581 89.713179 118.363398 
C 90.211996 118.862216 90.888633 119.142488 91.594068 119.142488 
z
" clip-path="url(#p2c711e2e6f)" style="stroke: #000000"/>
    <path d="M 87.805626 99.878227 
C 88.511061 99.878227 89.187698 99.597955 89.686515 99.099138 
C 90.185333 98.60032 90.465605 97.923683 90.465605 97.218249 
C 90.465605 96.512814 90.185333 95.836178 89.686515 95.33736 
C 89.187698 94.838542 88.511061 94.55827 87.805626 94.55827 
C 87.100192 94.55827 86.423555 94.838542 85.924738 95.33736 
C 85.42592 95.836178 85.145648 96.512814 85.145648 97.218249 
C 85.145648 97.923683 85.42592 98.60032 85.924738 99.099138 
C 86.423555 99.597955 87.100192 99.878227 87.805626 99.878227 
z
" clip-path="url(#p2c711e2e6f)" style="stroke: #000000"/>
    <path d="M 83.077407 89.373316 
C 83.782842 89.373316 84.459479 89.093043 84.958296 88.594226 
C 85.457114 88.095408 85.737386 87.418772 85.737386 86.713337 
C 85.737386 86.007902 85.457114 85.331266 84.958296 84.832448 
C 84.459479 84.333631 83.782842 84.053358 83.077407 84.053358 
C 82.371973 84.053358 81.695336 84.333631 81.196519 84.832448 
C 80.697701 85.331266 80.417429 86.007902 80.417429 86.713337 
C 80.417429 87.418772 80.697701 88.095408 81.196519 88.594226 
C 81.695336 89.093043 82.371973 89.373316 83.077407 89.373316 
z
" clip-path="url(#p2c711e2e6f)" style="stroke: #000000"/>
    <path d="M 82.648948 134.058116 
C 83.18345 134.058116 83.696133 133.845756 84.074083 133.467806 
C 84.452033 133.089856 84.664393 132.577174 84.664393 132.042671 
C 84.664393 131.508169 84.452033 130.995487 84.074083 130.617536 
C 83.696133 130.239586 83.18345 130.027226 82.648948 130.027226 
C 82.114446 130.027226 81.601763 130.239586 81.223813 130.617536 
C 80.845863 130.995487 80.633503 131.508169 80.633503 132.042671 
C 80.633503 132.577174 80.845863 133.089856 81.223813 133.467806 
C 81.601763 133.845756 82.114446 134.058116 82.648948 134.058116 
z
" clip-path="url(#p2c711e2e6f)" style="stroke: #000000"/>
    <path d="M 79.203431 110.556431 
C 79.735384 110.556431 80.245622 110.345083 80.62177 109.968936 
C 80.997918 109.592788 81.209265 109.08255 81.209265 108.550597 
C 81.209265 108.018644 80.997918 107.508406 80.62177 107.132258 
C 80.245622 106.75611 79.735384 106.544763 79.203431 106.544763 
C 78.671478 106.544763 78.16124 106.75611 77.785092 107.132258 
C 77.408945 107.508406 77.197597 108.018644 77.197597 108.550597 
C 77.197597 109.08255 77.408945 109.592788 77.785092 109.968936 
C 78.16124 110.345083 78.671478 110.556431 79.203431 110.556431 
z
" clip-path="url(#p2c711e2e6f)" style="stroke: #000000"/>
    <path d="M 57.921634 118.884929 
C 58.456642 118.884929 58.969809 118.672368 59.348117 118.29406 
C 59.726424 117.915753 59.938985 117.402585 59.938985 116.867578 
C 59.938985 116.33257 59.726424 115.819403 59.348117 115.441095 
C 58.969809 115.062788 58.456642 114.850227 57.921634 114.850227 
C 57.386626 114.850227 56.873459 115.062788 56.495152 115.441095 
C 56.116844 115.819403 55.904283 116.33257 55.904283 116.867578 
C 55.904283 117.402585 56.116844 117.915753 56.495152 118.29406 
C 56.873459 118.672368 57.386626 118.884929 57.921634 118.884929 
z
" clip-path="url(#p2c711e2e6f)" style="stroke: #000000"/>
    <path d="M 50.370235 108.402475 
C 51.07567 108.402475 51.752307 108.122202 52.251124 107.623385 
C 52.749942 107.124567 53.030214 106.447931 53.030214 105.742496 
C 53.030214 105.037061 52.749942 104.360425 52.251124 103.861607 
C 51.752307 103.36279 51.07567 103.082517 50.370235 103.082517 
C 49.664801 103.082517 48.988164 103.36279 48.489347 103.861607 
C 47.990529 104.360425 47.710257 105.037061 47.710257 105.742496 
C 47.710257 106.447931 47.990529 107.124567 48.489347 107.623385 
C 48.988164 108.122202 49.664801 108.402475 50.370235 108.402475 
z
" clip-path="url(#p2c711e2e6f)" style="stroke: #000000"/>
   </g>
   <g id="matplotlib.axis_1">
    <g id="xtick_1">
     <g id="line2d_1">
      <defs>
       <path id="m59b207806f" d="M 0 0 
L 0 3.5 
" style="stroke: #000000; stroke-width: 0.8"/>
      </defs>
      <g>
       <use xlink:href="#m59b207806f" x="18" y="189" style="stroke: #000000; stroke-width: 0.8"/>
      </g>
     </g>
     <g id="text_1">
      <!-- −10 -->
      <g transform="translate(7.447656 203.598437)scale(0.1 -0.1)">
       <defs>
        <path id="DejaVuSans-2212" d="M 678 2272 
L 4684 2272 
L 4684 1741 
L 678 1741 
L 678 2272 
z
" transform="scale(0.015625)"/>
        <path id="DejaVuSans-31" d="M 794 531 
L 1825 531 
L 1825 4091 
L 703 3866 
L 703 4441 
L 1819 4666 
L 2450 4666 
L 2450 531 
L 3481 531 
L 3481 0 
L 794 0 
L 794 531 
z
" transform="scale(0.015625)"/>
        <path id="DejaVuSans-30" d="M 2034 4250 
Q 1547 4250 1301 3770 
Q 1056 3291 1056 2328 
Q 1056 1369 1301 889 
Q 1547 409 2034 409 
Q 2525 409 2770 889 
Q 3016 1369 3016 2328 
Q 3016 3291 2770 3770 
Q 2525 4250 2034 4250 
z
M 2034 4750 
Q 2819 4750 3233 4129 
Q 3647 3509 3647 2328 
Q 3647 1150 3233 529 
Q 2819 -91 2034 -91 
Q 1250 -91 836 529 
Q 422 1150 422 2328 
Q 422 3509 836 4129 
Q 1250 4750 2034 4750 
z
" transform="scale(0.015625)"/>
       </defs>
       <use xlink:href="#DejaVuSans-2212"/>
       <use xlink:href="#DejaVuSans-31" x="83.789062"/>
       <use xlink:href="#DejaVuSans-30" x="147.412109"/>
      </g>
     </g>
    </g>
    <g id="xtick_2">
     <g id="line2d_2">
      <g>
       <use xlink:href="#m59b207806f" x="73.8" y="189" style="stroke: #000000; stroke-width: 0.8"/>
      </g>
     </g>
     <g id="text_2">
      <!-- 0 -->
      <g transform="translate(70.61875 203.598437)scale(0.1 -0.1)">
       <use xlink:href="#DejaVuSans-30"/>
      </g>
     </g>
    </g>
    <g id="xtick_3">
     <g id="line2d_3">
      <g>
       <use xlink:href="#m59b207806f" x="129.6" y="189" style="stroke: #000000; stroke-width: 0.8"/>
      </g>
     </g>
     <g id="text_3">
      <!-- 10 -->
      <g transform="translate(123.2375 203.598437)scale(0.1 -0.1)">
       <use xlink:href="#DejaVuSans-31"/>
       <use xlink:href="#DejaVuSans-30" x="63.623047"/>
      </g>
     </g>
    </g>
   </g>
   <g id="matplotlib.axis_2">
    <g id="ytick_1">
     <g id="line2d_4">
      <defs>
       <path id="m6512ab9226" d="M 0 0 
L -3.5 0 
" style="stroke: #000000; stroke-width: 0.8"/>
      </defs>
      <g>
       <use xlink:href="#m6512ab9226" x="18" y="189" style="stroke: #000000; stroke-width: 0.8"/>
      </g>
     </g>
     <g id="text_4">
      <!-- −15 -->
      <g transform="translate(-10.104688 192.799219)scale(0.1 -0.1)">
       <defs>
        <path id="DejaVuSans-35" d="M 691 4666 
L 3169 4666 
L 3169 4134 
L 1269 4134 
L 1269 2991 
Q 1406 3038 1543 3061 
Q 1681 3084 1819 3084 
Q 2600 3084 3056 2656 
Q 3513 2228 3513 1497 
Q 3513 744 3044 326 
Q 2575 -91 1722 -91 
Q 1428 -91 1123 -41 
Q 819 9 494 109 
L 494 744 
Q 775 591 1075 516 
Q 1375 441 1709 441 
Q 2250 441 2565 725 
Q 2881 1009 2881 1497 
Q 2881 1984 2565 2268 
Q 2250 2553 1709 2553 
Q 1456 2553 1204 2497 
Q 953 2441 691 2322 
L 691 4666 
z
" transform="scale(0.015625)"/>
       </defs>
       <use xlink:href="#DejaVuSans-2212"/>
       <use xlink:href="#DejaVuSans-31" x="83.789062"/>
       <use xlink:href="#DejaVuSans-35" x="147.412109"/>
      </g>
     </g>
    </g>
    <g id="ytick_2">
     <g id="line2d_5">
      <g>
       <use xlink:href="#m6512ab9226" x="18" y="161.82" style="stroke: #000000; stroke-width: 0.8"/>
      </g>
     </g>
     <g id="text_5">
      <!-- −10 -->
      <g transform="translate(-10.104688 165.619219)scale(0.1 -0.1)">
       <use xlink:href="#DejaVuSans-2212"/>
       <use xlink:href="#DejaVuSans-31" x="83.789062"/>
       <use xlink:href="#DejaVuSans-30" x="147.412109"/>
      </g>
     </g>
    </g>
    <g id="ytick_3">
     <g id="line2d_6">
      <g>
       <use xlink:href="#m6512ab9226" x="18" y="134.64" style="stroke: #000000; stroke-width: 0.8"/>
      </g>
     </g>
     <g id="text_6">
      <!-- −5 -->
      <g transform="translate(-3.742188 138.439219)scale(0.1 -0.1)">
       <use xlink:href="#DejaVuSans-2212"/>
       <use xlink:href="#DejaVuSans-35" x="83.789062"/>
      </g>
     </g>
    </g>
    <g id="ytick_4">
     <g id="line2d_7">
      <g>
       <use xlink:href="#m6512ab9226" x="18" y="107.46" style="stroke: #000000; stroke-width: 0.8"/>
      </g>
     </g>
     <g id="text_7">
      <!-- 0 -->
      <g transform="translate(4.6375 111.259219)scale(0.1 -0.1)">
       <use xlink:href="#DejaVuSans-30"/>
      </g>
     </g>
    </g>
    <g id="ytick_5">
     <g id="line2d_8">
      <g>
       <use xlink:href="#m6512ab9226" x="18" y="80.28" style="stroke: #000000; stroke-width: 0.8"/>
      </g>
     </g>
     <g id="text_8">
      <!-- 5 -->
      <g transform="translate(4.6375 84.079219)scale(0.1 -0.1)">
       <use xlink:href="#DejaVuSans-35"/>
      </g>
     </g>
    </g>
    <g id="ytick_6">
     <g id="line2d_9">
      <g>
       <use xlink:href="#m6512ab9226" x="18" y="53.1" style="stroke: #000000; stroke-width: 0.8"/>
      </g>
     </g>
     <g id="text_9">
      <!-- 10 -->
      <g transform="translate(-1.725 56.899219)scale(0.1 -0.1)">
       <use xlink:href="#DejaVuSans-31"/>
       <use xlink:href="#DejaVuSans-30" x="63.623047"/>
      </g>
     </g>
    </g>
    <g id="ytick_7">
     <g id="line2d_10">
      <g>
       <use xlink:href="#m6512ab9226" x="18" y="25.92" style="stroke: #000000; stroke-width: 0.8"/>
      </g>
     </g>
     <g id="text_10">
      <!-- 15 -->
      <g transform="translate(-1.725 29.719219)scale(0.1 -0.1)">
       <use xlink:href="#DejaVuSans-31"/>
       <use xlink:href="#DejaVuSans-35" x="63.623047"/>
      </g>
     </g>
    </g>
   </g>
   <g id="patch_3">
    <path d="M 18 189 
L 18 25.92 
" style="fill: none; stroke: #000000; stroke-width: 0.8; stroke-linejoin: miter; stroke-linecap: square"/>
   </g>
   <g id="patch_4">
    <path d="M 129.6 189 
L 129.6 25.92 
" style="fill: none; stroke: #000000; stroke-width: 0.8; stroke-linejoin: miter; stroke-linecap: square"/>
   </g>
   <g id="patch_5">
    <path d="M 18 189 
L 129.6 189 
" style="fill: none; stroke: #000000; stroke-width: 0.8; stroke-linejoin: miter; stroke-linecap: square"/>
   </g>
   <g id="patch_6">
    <path d="M 18 25.92 
L 129.6 25.92 
" style="fill: none; stroke: #000000; stroke-width: 0.8; stroke-linejoin: miter; stroke-linecap: square"/>
   </g>
  </g>
 </g>
 <defs>
  <clipPath id="p2c711e2e6f">
   <rect x="18" y="25.92" width="111.6" height="163.08"/>
  </clipPath>
 </defs>
</svg>
