<?xml version="1.0" encoding="utf-8" standalone="no"?>
<!DOCTYPE svg PUBLIC "-//W3C//DTD SVG 1.1//EN"
  "http://www.w3.org/Graphics/SVG/1.1/DTD/svg11.dtd">
<svg xmlns:xlink="http://www.w3.org/1999/xlink" width="144pt" height="216pt" viewBox="0 0 144 216" xmlns="http://www.w3.org/2000/svg" version="1.1">
 <metadata>
  <rdf:RDF xmlns:dc="http://purl.org/dc/elements/1.1/" xmlns:cc="http://creativecommons.org/ns#" xmlns:rdf="http://www.w3.org/1999/02/22-rdf-syntax-ns#">
   <cc:Work>
    <dc:type rdf:resource="http://purl.org/dc/dcmitype/StillImage"/>
    <dc:date>2022-06-23T14:49:00.980485</dc:date>
    <dc:format>image/svg+xml</dc:format>
    <dc:creator>
     <cc:Agent>
      <dc:title>Matplotlib v3.5.1, https://matplotlib.org/</dc:title>
     </cc:Agent>
    </dc:creator>
   </cc:Work>
  </rdf:RDF>
 </metadata>
 <defs>
  <style type="text/css">*{stroke-linejoin: round; stroke-linecap: butt}</style>
 </defs>
 <g id="figure_1">
  <g id="patch_1">
   <path d="M 0 216 
L 144 216 
L 144 0 
L 0 0 
L 0 216 
z
" style="fill: none"/>
  </g>
  <g id="axes_1">
   <g id="patch_2">
    <path d="M 18 189 
L 129.6 189 
L 129.6 25.92 
L 18 25.92 
z
" style="fill: #ffffff"/>
   </g>
   <g id="PathCollection_1">
    <defs>
     <path id="m95240d0844" d="M 0 2.738613 
C 0.726289 2.738613 1.422928 2.450055 1.936492 1.936492 
C 2.450055 1.422928 2.738613 0.726289 2.738613 0 
C 2.738613 -0.726289 2.450055 -1.422928 1.936492 -1.936492 
C 1.422928 -2.450055 0.726289 -2.738613 0 -2.738613 
C -0.726289 -2.738613 -1.422928 -2.450055 -1.936492 -1.936492 
C -2.450055 -1.422928 -2.738613 -0.726289 -2.738613 0 
C -2.738613 0.726289 -2.450055 1.422928 -1.936492 1.936492 
C -1.422928 2.450055 -0.726289 2.738613 0 2.738613 
z
" style="stroke: #ff0000; stroke-width: 1.75"/>
    </defs>
    <g clip-path="url(#peb6fcd869f)">
     <use xlink:href="#m95240d0844" x="66.825" y="83.92143" style="fill: #ff0000; stroke: #ff0000; stroke-width: 1.75"/>
     <use xlink:href="#m95240d0844" x="87.75" y="95.690715" style="fill: #ff0000; stroke: #ff0000; stroke-width: 1.75"/>
     <use xlink:href="#m95240d0844" x="66.825" y="107.46" style="fill: #ff0000; stroke: #ff0000; stroke-width: 1.75"/>
     <use xlink:href="#m95240d0844" x="73.8" y="119.229285" style="fill: #ff0000; stroke: #ff0000; stroke-width: 1.75"/>
     <use xlink:href="#m95240d0844" x="87.75" y="119.229285" style="fill: #ff0000; stroke: #ff0000; stroke-width: 1.75"/>
     <use xlink:href="#m95240d0844" x="66.825" y="130.99857" style="fill: #ff0000; stroke: #ff0000; stroke-width: 1.75"/>
     <use xlink:href="#m95240d0844" x="80.775" y="130.99857" style="fill: #ff0000; stroke: #ff0000; stroke-width: 1.75"/>
    </g>
   </g>
   <g id="PathCollection_2">
    <defs>
     <path id="C0_0_4d803baea5" d="M 0 2.738613 
C 0.726289 2.738613 1.422928 2.450055 1.936492 1.936492 
C 2.450055 1.422928 2.738613 0.726289 2.738613 -0 
C 2.738613 -0.726289 2.450055 -1.422928 1.936492 -1.936492 
C 1.422928 -2.450055 0.726289 -2.738613 0 -2.738613 
C -0.726289 -2.738613 -1.422928 -2.450055 -1.936492 -1.936492 
C -2.450055 -1.422928 -2.738613 -0.726289 -2.738613 0 
C -2.738613 0.726289 -2.450055 1.422928 -1.936492 1.936492 
C -1.422928 2.450055 -0.726289 2.738613 0 2.738613 
z
"/>
    </defs>
    <g clip-path="url(#peb6fcd869f)">
     <use xlink:href="#C0_0_4d803baea5" x="80.775" y="83.92143" style="fill: none; stroke: #ff0000; stroke-width: 1.75"/>
    </g>
    <g clip-path="url(#peb6fcd869f)">
     <use xlink:href="#C0_0_4d803baea5" x="59.85" y="95.690715" style="fill: none; stroke: #ff0000; stroke-width: 1.75"/>
    </g>
    <g clip-path="url(#peb6fcd869f)">
     <use xlink:href="#C0_0_4d803baea5" x="73.8" y="95.690715" style="fill: none; stroke: #ff0000; stroke-width: 1.75"/>
    </g>
    <g clip-path="url(#peb6fcd869f)">
     <use xlink:href="#C0_0_4d803baea5" x="52.875" y="107.46" style="fill: none; stroke: #ff0000; stroke-width: 1.75"/>
    </g>
    <g clip-path="url(#peb6fcd869f)">
     <use xlink:href="#C0_0_4d803baea5" x="80.775" y="107.46" style="fill: none; stroke: #ff0000; stroke-width: 1.75"/>
    </g>
    <g clip-path="url(#peb6fcd869f)">
     <use xlink:href="#C0_0_4d803baea5" x="94.725" y="107.46" style="fill: none; stroke: #ff0000; stroke-width: 1.75"/>
    </g>
    <g clip-path="url(#peb6fcd869f)">
     <use xlink:href="#C0_0_4d803baea5" x="59.85" y="119.229285" style="fill: none; stroke: #ff0000; stroke-width: 1.75"/>
    </g>
   </g>
   <g id="PathCollection_3">
    <path d="M 109.203939 79.375714 
C 109.569875 79.375714 109.920873 79.230326 110.179629 78.97157 
C 110.438385 78.712814 110.583773 78.361816 110.583773 77.99588 
C 110.583773 77.629944 110.438385 77.278946 110.179629 77.02019 
C 109.920873 76.761434 109.569875 76.616045 109.203939 76.616045 
C 108.838002 76.616045 108.487004 76.761434 108.228248 77.02019 
C 107.969492 77.278946 107.824104 77.629944 107.824104 77.99588 
C 107.824104 78.361816 107.969492 78.712814 108.228248 78.97157 
C 108.487004 79.230326 108.838002 79.375714 109.203939 79.375714 
z
" clip-path="url(#peb6fcd869f)" style="stroke: #000000"/>
    <path d="M 117.946761 121.919376 
C 118.314265 121.919376 118.666766 121.773365 118.92663 121.513501 
C 119.186495 121.253637 119.332505 120.901136 119.332505 120.533632 
C 119.332505 120.166128 119.186495 119.813627 118.92663 119.553763 
C 118.666766 119.293899 118.314265 119.147888 117.946761 119.147888 
C 117.579258 119.147888 117.226757 119.293899 116.966892 119.553763 
C 116.707028 119.813627 116.561017 120.166128 116.561017 120.533632 
C 116.561017 120.901136 116.707028 121.253637 116.966892 121.513501 
C 117.226757 121.773365 117.579258 121.919376 117.946761 121.919376 
z
" clip-path="url(#peb6fcd869f)" style="stroke: #000000"/>
    <path d="M 111.372259 112.287716 
C 111.906761 112.287716 112.419443 112.075356 112.797394 111.697406 
C 113.175344 111.319455 113.387704 110.806773 113.387704 110.272271 
C 113.387704 109.737768 113.175344 109.225086 112.797394 108.847136 
C 112.419443 108.469186 111.906761 108.256826 111.372259 108.256826 
C 110.837756 108.256826 110.325074 108.469186 109.947124 108.847136 
C 109.569174 109.225086 109.356814 109.737768 109.356814 110.272271 
C 109.356814 110.806773 109.569174 111.319455 109.947124 111.697406 
C 110.325074 112.075356 110.837756 112.287716 111.372259 112.287716 
z
" clip-path="url(#peb6fcd869f)" style="stroke: #000000"/>
    <path d="M 109.145047 100.572339 
C 109.69272 100.572339 110.218036 100.354745 110.6053 99.967482 
C 110.992564 99.580218 111.210157 99.054902 111.210157 98.507228 
C 111.210157 97.959555 110.992564 97.434238 110.6053 97.046975 
C 110.218036 96.659711 109.69272 96.442118 109.145047 96.442118 
C 108.597373 96.442118 108.072057 96.659711 107.684793 97.046975 
C 107.297529 97.434238 107.079936 97.959555 107.079936 98.507228 
C 107.079936 99.054902 107.297529 99.580218 107.684793 99.967482 
C 108.072057 100.354745 108.597373 100.572339 109.145047 100.572339 
z
" clip-path="url(#peb6fcd869f)" style="stroke: #000000"/>
    <path d="M 109.286626 90.929309 
C 109.992061 90.929309 110.668697 90.649037 111.167515 90.150219 
C 111.666332 89.651402 111.946605 88.974765 111.946605 88.269331 
C 111.946605 87.563896 111.666332 86.887259 111.167515 86.388442 
C 110.668697 85.889624 109.992061 85.609352 109.286626 85.609352 
C 108.581191 85.609352 107.904555 85.889624 107.405737 86.388442 
C 106.90692 86.887259 106.626648 87.563896 106.626648 88.269331 
C 106.626648 88.974765 106.90692 89.651402 107.405737 90.150219 
C 107.904555 90.649037 108.581191 90.929309 109.286626 90.929309 
z
" clip-path="url(#peb6fcd869f)" style="stroke: #000000"/>
    <path d="M 103.200178 84.664669 
C 103.905613 84.664669 104.58225 84.384397 105.081067 83.88558 
C 105.579885 83.386762 105.860157 82.710126 105.860157 82.004691 
C 105.860157 81.299256 105.579885 80.62262 105.081067 80.123802 
C 104.58225 79.624985 103.905613 79.344712 103.200178 79.344712 
C 102.494744 79.344712 101.818107 79.624985 101.31929 80.123802 
C 100.820472 80.62262 100.5402 81.299256 100.5402 82.004691 
C 100.5402 82.710126 100.820472 83.386762 101.31929 83.88558 
C 101.818107 84.384397 102.494744 84.664669 103.200178 84.664669 
z
" clip-path="url(#peb6fcd869f)" style="stroke: #000000"/>
    <path d="M 101.770475 71.33007 
C 102.475689 71.33007 103.152115 71.049885 103.650776 70.551223 
C 104.149438 70.052561 104.429623 69.376136 104.429623 68.670922 
C 104.429623 67.965707 104.149438 67.289282 103.650776 66.79062 
C 103.152115 66.291958 102.475689 66.011774 101.770475 66.011774 
C 101.065261 66.011774 100.388835 66.291958 99.890173 66.79062 
C 99.391511 67.289282 99.111327 67.965707 99.111327 68.670922 
C 99.111327 69.376136 99.391511 70.052561 99.890173 70.551223 
C 100.388835 71.049885 101.065261 71.33007 101.770475 71.33007 
z
" clip-path="url(#peb6fcd869f)" style="stroke: #000000"/>
    <path d="M 99.655898 59.309769 
C 100.24891 59.309769 100.817714 59.074163 101.237037 58.65484 
C 101.65636 58.235517 101.891966 57.666713 101.891966 57.073701 
C 101.891966 56.480689 101.65636 55.911885 101.237037 55.492562 
C 100.817714 55.073239 100.24891 54.837633 99.655898 54.837633 
C 99.062886 54.837633 98.494082 55.073239 98.074759 55.492562 
C 97.655436 55.911885 97.41983 56.480689 97.41983 57.073701 
C 97.41983 57.666713 97.655436 58.235517 98.074759 58.65484 
C 98.494082 59.074163 99.062886 59.309769 99.655898 59.309769 
z
" clip-path="url(#peb6fcd869f)" style="stroke: #000000"/>
    <path d="M 120.867269 155.354869 
C 121.460651 155.354869 122.02981 155.119116 122.449395 154.699531 
C 122.86898 154.279946 123.104733 153.710787 123.104733 153.117405 
C 123.104733 152.524023 122.86898 151.954864 122.449395 151.535279 
C 122.02981 151.115694 121.460651 150.879941 120.867269 150.879941 
C 120.273886 150.879941 119.704728 151.115694 119.285143 151.535279 
C 118.865558 151.954864 118.629805 152.524023 118.629805 153.117405 
C 118.629805 153.710787 118.865558 154.279946 119.285143 154.699531 
C 119.704728 155.119116 120.273886 155.354869 120.867269 155.354869 
z
" clip-path="url(#peb6fcd869f)" style="stroke: #000000"/>
    <path d="M 109.541955 132.73295 
C 110.247389 132.73295 110.924026 132.452678 111.422843 131.953861 
C 111.921661 131.455043 112.201933 130.778406 112.201933 130.072972 
C 112.201933 129.367537 111.921661 128.6909 111.422843 128.192083 
C 110.924026 127.693265 110.247389 127.412993 109.541955 127.412993 
C 108.83652 127.412993 108.159883 127.693265 107.661066 128.192083 
C 107.162248 128.6909 106.881976 129.367537 106.881976 130.072972 
C 106.881976 130.778406 107.162248 131.455043 107.661066 131.953861 
C 108.159883 132.452678 108.83652 132.73295 109.541955 132.73295 
z
" clip-path="url(#peb6fcd869f)" style="stroke: #000000"/>
    <path d="M 107.628325 122.180659 
C 108.171232 122.180659 108.691975 121.96496 109.075868 121.581067 
C 109.459761 121.197174 109.675461 120.676431 109.675461 120.133524 
C 109.675461 119.590617 109.459761 119.069874 109.075868 118.685981 
C 108.691975 118.302088 108.171232 118.086389 107.628325 118.086389 
C 107.085418 118.086389 106.564675 118.302088 106.180782 118.685981 
C 105.796889 119.069874 105.58119 119.590617 105.58119 120.133524 
C 105.58119 120.676431 105.796889 121.197174 106.180782 121.581067 
C 106.564675 121.96496 107.085418 122.180659 107.628325 122.180659 
z
" clip-path="url(#peb6fcd869f)" style="stroke: #000000"/>
    <path d="M 104.962524 111.561816 
C 105.523798 111.561816 106.062159 111.33882 106.459039 110.941939 
C 106.85592 110.545058 107.078917 110.006697 107.078917 109.445423 
C 107.078917 108.884149 106.85592 108.345788 106.459039 107.948908 
C 106.062159 107.552027 105.523798 107.329031 104.962524 107.329031 
C 104.40125 107.329031 103.862889 107.552027 103.466008 107.948908 
C 103.069128 108.345788 102.846131 108.884149 102.846131 109.445423 
C 102.846131 110.006697 103.069128 110.545058 103.466008 110.941939 
C 103.862889 111.33882 104.40125 111.561816 104.962524 111.561816 
z
" clip-path="url(#peb6fcd869f)" style="stroke: #000000"/>
    <path d="M 100.059073 102.595577 
C 100.764507 102.595577 101.441144 102.315305 101.939962 101.816487 
C 102.438779 101.31767 102.719051 100.641033 102.719051 99.935598 
C 102.719051 99.230164 102.438779 98.553527 101.939962 98.054709 
C 101.441144 97.555892 100.764507 97.27562 100.059073 97.27562 
C 99.353638 97.27562 98.677001 97.555892 98.178184 98.054709 
C 97.679366 98.553527 97.399094 99.230164 97.399094 99.935598 
C 97.399094 100.641033 97.679366 101.31767 98.178184 101.816487 
C 98.677001 102.315305 99.353638 102.595577 100.059073 102.595577 
z
" clip-path="url(#peb6fcd869f)" style="stroke: #000000"/>
    <path d="M 95.010949 95.789075 
C 95.716163 95.789075 96.392588 95.50889 96.89125 95.010228 
C 97.389912 94.511567 97.670097 93.835141 97.670097 93.129927 
C 97.670097 92.424713 97.389912 91.748287 96.89125 91.249625 
C 96.392588 90.750963 95.716163 90.470779 95.010949 90.470779 
C 94.305734 90.470779 93.629309 90.750963 93.130647 91.249625 
C 92.631985 91.748287 92.351801 92.424713 92.351801 93.129927 
C 92.351801 93.835141 92.631985 94.511567 93.130647 95.010228 
C 93.629309 95.50889 94.305734 95.789075 95.010949 95.789075 
z
" clip-path="url(#peb6fcd869f)" style="stroke: #000000"/>
    <path d="M 93.267149 84.183488 
C 93.827547 84.183488 94.365068 83.96084 94.761328 83.564579 
C 95.157589 83.168318 95.380238 82.630797 95.380238 82.0704 
C 95.380238 81.510002 95.157589 80.972481 94.761328 80.57622 
C 94.365068 80.17996 93.827547 79.957311 93.267149 79.957311 
C 92.706752 79.957311 92.169231 80.17996 91.77297 80.57622 
C 91.376709 80.972481 91.154061 81.510002 91.154061 82.0704 
C 91.154061 82.630797 91.376709 83.168318 91.77297 83.564579 
C 92.169231 83.96084 92.706752 84.183488 93.267149 84.183488 
z
" clip-path="url(#peb6fcd869f)" style="stroke: #000000"/>
    <path d="M 88.960781 75.953047 
C 89.498792 75.953047 90.01484 75.739293 90.395271 75.358862 
C 90.775702 74.978431 90.989456 74.462383 90.989456 73.924372 
C 90.989456 73.386362 90.775702 72.870314 90.395271 72.489883 
C 90.01484 72.109452 89.498792 71.895698 88.960781 71.895698 
C 88.42277 71.895698 87.906723 72.109452 87.526292 72.489883 
C 87.145861 72.870314 86.932107 73.386362 86.932107 73.924372 
C 86.932107 74.462383 87.145861 74.978431 87.526292 75.358862 
C 87.906723 75.739293 88.42277 75.953047 88.960781 75.953047 
z
" clip-path="url(#peb6fcd869f)" style="stroke: #000000"/>
    <path d="M 86.60443 62.26263 
C 86.914763 62.26263 87.212428 62.139333 87.431867 61.919894 
C 87.651307 61.700455 87.774603 61.40279 87.774603 61.092456 
C 87.774603 60.782123 87.651307 60.484458 87.431867 60.265019 
C 87.212428 60.04558 86.914763 59.922283 86.60443 59.922283 
C 86.294096 59.922283 85.996431 60.04558 85.776992 60.265019 
C 85.557553 60.484458 85.434256 60.782123 85.434256 61.092456 
C 85.434256 61.40279 85.557553 61.700455 85.776992 61.919894 
C 85.996431 62.139333 86.294096 62.26263 86.60443 62.26263 
z
" clip-path="url(#peb6fcd869f)" style="stroke: #000000"/>
    <path d="M 78.647527 52.545122 
C 79.240909 52.545122 79.810068 52.309369 80.229653 51.889784 
C 80.649237 51.4702 80.884991 50.901041 80.884991 50.307658 
C 80.884991 49.714276 80.649237 49.145117 80.229653 48.725532 
C 79.810068 48.305947 79.240909 48.070194 78.647527 48.070194 
C 78.054144 48.070194 77.484985 48.305947 77.0654 48.725532 
C 76.645816 49.145117 76.410062 49.714276 76.410062 50.307658 
C 76.410062 50.901041 76.645816 51.4702 77.0654 51.889784 
C 77.484985 52.309369 78.054144 52.545122 78.647527 52.545122 
z
" clip-path="url(#peb6fcd869f)" style="stroke: #000000"/>
    <path d="M 76.978059 41.151901 
C 77.556056 41.151901 78.110457 40.922261 78.519162 40.513556 
C 78.927868 40.10485 79.157508 39.550449 79.157508 38.972452 
C 79.157508 38.394455 78.927868 37.840054 78.519162 37.431349 
C 78.110457 37.022643 77.556056 36.793003 76.978059 36.793003 
C 76.400062 36.793003 75.845661 37.022643 75.436955 37.431349 
C 75.02825 37.840054 74.79861 38.394455 74.79861 38.972452 
C 74.79861 39.550449 75.02825 40.10485 75.436955 40.513556 
C 75.845661 40.922261 76.400062 41.151901 76.978059 41.151901 
z
" clip-path="url(#peb6fcd869f)" style="stroke: #000000"/>
    <path d="M 73.207817 31.735281 
C 73.801199 31.735281 74.370358 31.499528 74.789943 31.079943 
C 75.209528 30.660358 75.445281 30.0912 75.445281 29.497817 
C 75.445281 28.904435 75.209528 28.335276 74.789943 27.915691 
C 74.370358 27.496106 73.801199 27.260353 73.207817 27.260353 
C 72.614435 27.260353 72.045276 27.496106 71.625691 27.915691 
C 71.206106 28.335276 70.970353 28.904435 70.970353 29.497817 
C 70.970353 30.0912 71.206106 30.660358 71.625691 31.079943 
C 72.045276 31.499528 72.614435 31.735281 73.207817 31.735281 
z
" clip-path="url(#peb6fcd869f)" style="stroke: #000000"/>
    <path d="M 113.24 177.342495 
C 113.799075 177.342495 114.335328 177.120372 114.730654 176.725046 
C 115.12598 176.32972 115.348103 175.793468 115.348103 175.234393 
C 115.348103 174.675317 115.12598 174.139065 114.730654 173.743739 
C 114.335328 173.348413 113.799075 173.12629 113.24 173.12629 
C 112.680924 173.12629 112.144672 173.348413 111.749346 173.743739 
C 111.35402 174.139065 111.131897 174.675317 111.131897 175.234393 
C 111.131897 175.793468 111.35402 176.32972 111.749346 176.725046 
C 112.144672 177.120372 112.680924 177.342495 113.24 177.342495 
z
" clip-path="url(#peb6fcd869f)" style="stroke: #000000"/>
    <path d="M 107.945253 157.045857 
C 108.542663 157.045857 109.115686 156.808504 109.538119 156.386071 
C 109.960552 155.963637 110.197906 155.390615 110.197906 154.793204 
C 110.197906 154.195794 109.960552 153.622771 109.538119 153.200338 
C 109.115686 152.777905 108.542663 152.540551 107.945253 152.540551 
C 107.347842 152.540551 106.77482 152.777905 106.352387 153.200338 
C 105.929953 153.622771 105.6926 154.195794 105.6926 154.793204 
C 105.6926 155.390615 105.929953 155.963637 106.352387 156.386071 
C 106.77482 156.808504 107.347842 157.045857 107.945253 157.045857 
z
" clip-path="url(#peb6fcd869f)" style="stroke: #000000"/>
    <path d="M 99.268017 149.88314 
C 99.640106 149.88314 99.997005 149.735307 100.260111 149.472201 
C 100.523218 149.209094 100.67105 148.852195 100.67105 148.480107 
C 100.67105 148.108018 100.523218 147.751119 100.260111 147.488012 
C 99.997005 147.224906 99.640106 147.077073 99.268017 147.077073 
C 98.895928 147.077073 98.539029 147.224906 98.275923 147.488012 
C 98.012816 147.751119 97.864984 148.108018 97.864984 148.480107 
C 97.864984 148.852195 98.012816 149.209094 98.275923 149.472201 
C 98.539029 149.735307 98.895928 149.88314 99.268017 149.88314 
z
" clip-path="url(#peb6fcd869f)" style="stroke: #000000"/>
    <path d="M 99.61033 140.279377 
C 100.087011 140.279377 100.544232 140.08999 100.881296 139.752926 
C 101.218361 139.415861 101.407748 138.95864 101.407748 138.481959 
C 101.407748 138.005278 101.218361 137.548057 100.881296 137.210993 
C 100.544232 136.873928 100.087011 136.684541 99.61033 136.684541 
C 99.133649 136.684541 98.676427 136.873928 98.339363 137.210993 
C 98.002299 137.548057 97.812912 138.005278 97.812912 138.481959 
C 97.812912 138.95864 98.002299 139.415861 98.339363 139.752926 
C 98.676427 140.08999 99.133649 140.279377 99.61033 140.279377 
z
" clip-path="url(#peb6fcd869f)" style="stroke: #000000"/>
    <path d="M 93.808342 129.089191 
C 94.513557 129.089191 95.189982 128.809007 95.688644 128.310345 
C 96.187306 127.811683 96.46749 127.135257 96.46749 126.430043 
C 96.46749 125.724829 96.187306 125.048403 95.688644 124.549742 
C 95.189982 124.05108 94.513557 123.770895 93.808342 123.770895 
C 93.103128 123.770895 92.426703 124.05108 91.928041 124.549742 
C 91.429379 125.048403 91.149194 125.724829 91.149194 126.430043 
C 91.149194 127.135257 91.429379 127.811683 91.928041 128.310345 
C 92.426703 128.809007 93.103128 129.089191 93.808342 129.089191 
z
" clip-path="url(#peb6fcd869f)" style="stroke: #000000"/>
    <path d="M 89.325892 120.323604 
C 89.942972 120.323604 90.534862 120.078435 90.971204 119.642094 
C 91.407545 119.205752 91.652714 118.613862 91.652714 117.996782 
C 91.652714 117.379701 91.407545 116.787812 90.971204 116.35147 
C 90.534862 115.915128 89.942972 115.669959 89.325892 115.669959 
C 88.708811 115.669959 88.116922 115.915128 87.68058 116.35147 
C 87.244238 116.787812 86.99907 117.379701 86.99907 117.996782 
C 86.99907 118.613862 87.244238 119.205752 87.68058 119.642094 
C 88.116922 120.078435 88.708811 120.323604 89.325892 120.323604 
z
" clip-path="url(#peb6fcd869f)" style="stroke: #000000"/>
    <path d="M 87.849475 110.338519 
C 88.442487 110.338519 89.011291 110.102913 89.430614 109.68359 
C 89.849937 109.264267 90.085543 108.695463 90.085543 108.102451 
C 90.085543 107.509439 89.849937 106.940635 89.430614 106.521312 
C 89.011291 106.101989 88.442487 105.866383 87.849475 105.866383 
C 87.256463 105.866383 86.687659 106.101989 86.268336 106.521312 
C 85.849013 106.940635 85.613407 107.509439 85.613407 108.102451 
C 85.613407 108.695463 85.849013 109.264267 86.268336 109.68359 
C 86.687659 110.102913 87.256463 110.338519 87.849475 110.338519 
z
" clip-path="url(#peb6fcd869f)" style="stroke: #000000"/>
    <path d="M 88.687915 97.827048 
C 89.393349 97.827048 90.069986 97.546776 90.568803 97.047958 
C 91.067621 96.54914 91.347893 95.872504 91.347893 95.167069 
C 91.347893 94.461635 91.067621 93.784998 90.568803 93.28618 
C 90.069986 92.787363 89.393349 92.507091 88.687915 92.507091 
C 87.98248 92.507091 87.305843 92.787363 86.807026 93.28618 
C 86.308208 93.784998 86.027936 94.461635 86.027936 95.167069 
C 86.027936 95.872504 86.308208 96.54914 86.807026 97.047958 
C 87.305843 97.546776 87.98248 97.827048 88.687915 97.827048 
z
" clip-path="url(#peb6fcd869f)" style="stroke: #000000"/>
    <path d="M 79.866974 69.152099 
C 80.320632 69.152099 80.755771 68.971859 81.076555 68.651074 
C 81.39734 68.330289 81.57758 67.895151 81.57758 67.441492 
C 81.57758 66.987834 81.39734 66.552696 81.076555 66.231911 
C 80.755771 65.911126 80.320632 65.730886 79.866974 65.730886 
C 79.413316 65.730886 78.978177 65.911126 78.657392 66.231911 
C 78.336607 66.552696 78.156367 66.987834 78.156367 67.441492 
C 78.156367 67.895151 78.336607 68.330289 78.657392 68.651074 
C 78.978177 68.971859 79.413316 69.152099 79.866974 69.152099 
z
" clip-path="url(#peb6fcd869f)" style="stroke: #000000"/>
    <path d="M 68.777351 48.258344 
C 69.370733 48.258344 69.939892 48.022591 70.359477 47.603006 
C 70.779061 47.183421 71.014815 46.614262 71.014815 46.02088 
C 71.014815 45.427497 70.779061 44.858339 70.359477 44.438754 
C 69.939892 44.019169 69.370733 43.783416 68.777351 43.783416 
C 68.183968 43.783416 67.614809 44.019169 67.195224 44.438754 
C 66.77564 44.858339 66.539886 45.427497 66.539886 46.02088 
C 66.539886 46.614262 66.77564 47.183421 67.195224 47.603006 
C 67.614809 48.022591 68.183968 48.258344 68.777351 48.258344 
z
" clip-path="url(#peb6fcd869f)" style="stroke: #000000"/>
    <path d="M 89.382831 155.962246 
C 90.088045 155.962246 90.764471 155.682062 91.263133 155.1834 
C 91.761794 154.684738 92.041979 154.008313 92.041979 153.303098 
C 92.041979 152.597884 91.761794 151.921459 91.263133 151.422797 
C 90.764471 150.924135 90.088045 150.64395 89.382831 150.64395 
C 88.677617 150.64395 88.001191 150.924135 87.502529 151.422797 
C 87.003868 151.921459 86.723683 152.597884 86.723683 153.303098 
C 86.723683 154.008313 87.003868 154.684738 87.502529 155.1834 
C 88.001191 155.682062 88.677617 155.962246 89.382831 155.962246 
z
" clip-path="url(#peb6fcd869f)" style="stroke: #000000"/>
    <path d="M 87.937242 133.311623 
C 88.498516 133.311623 89.036877 133.088627 89.433758 132.691746 
C 89.830638 132.294866 90.053635 131.756504 90.053635 131.195231 
C 90.053635 130.633957 89.830638 130.095595 89.433758 129.698715 
C 89.036877 129.301834 88.498516 129.078838 87.937242 129.078838 
C 87.375968 129.078838 86.837607 129.301834 86.440726 129.698715 
C 86.043846 130.095595 85.820849 130.633957 85.820849 131.195231 
C 85.820849 131.756504 86.043846 132.294866 86.440726 132.691746 
C 86.837607 133.088627 87.375968 133.311623 87.937242 133.311623 
z
" clip-path="url(#peb6fcd869f)" style="stroke: #000000"/>
    <path d="M 78.618985 122.927052 
C 79.211998 122.927052 79.780801 122.691446 80.200124 122.272123 
C 80.619447 121.8528 80.855053 121.283996 80.855053 120.690984 
C 80.855053 120.097972 80.619447 119.529168 80.200124 119.109845 
C 79.780801 118.690522 79.211998 118.454916 78.618985 118.454916 
C 78.025973 118.454916 77.457169 118.690522 77.037847 119.109845 
C 76.618524 119.529168 76.382917 120.097972 76.382917 120.690984 
C 76.382917 121.283996 76.618524 121.8528 77.037847 122.272123 
C 77.457169 122.691446 78.025973 122.927052 78.618985 122.927052 
z
" clip-path="url(#peb6fcd869f)" style="stroke: #000000"/>
    <path d="M 76.464276 111.178336 
C 77.057288 111.178336 77.626092 110.94273 78.045415 110.523407 
C 78.464738 110.104084 78.700344 109.53528 78.700344 108.942268 
C 78.700344 108.349256 78.464738 107.780452 78.045415 107.361129 
C 77.626092 106.941806 77.057288 106.7062 76.464276 106.7062 
C 75.871264 106.7062 75.30246 106.941806 74.883137 107.361129 
C 74.463814 107.780452 74.228208 108.349256 74.228208 108.942268 
C 74.228208 109.53528 74.463814 110.104084 74.883137 110.523407 
C 75.30246 110.94273 75.871264 111.178336 76.464276 111.178336 
z
" clip-path="url(#peb6fcd869f)" style="stroke: #000000"/>
    <path d="M 76.488574 104.996773 
C 77.081586 104.996773 77.65039 104.761166 78.069713 104.341844 
C 78.489036 103.922521 78.724642 103.353717 78.724642 102.760705 
C 78.724642 102.167693 78.489036 101.598889 78.069713 101.179566 
C 77.65039 100.760243 77.081586 100.524637 76.488574 100.524637 
C 75.895562 100.524637 75.326758 100.760243 74.907435 101.179566 
C 74.488113 101.598889 74.252506 102.167693 74.252506 102.760705 
C 74.252506 103.353717 74.488113 103.922521 74.907435 104.341844 
C 75.326758 104.761166 75.895562 104.996773 76.488574 104.996773 
z
" clip-path="url(#peb6fcd869f)" style="stroke: #000000"/>
    <path d="M 71.933478 90.030431 
C 72.638692 90.030431 73.315118 89.750246 73.813779 89.251584 
C 74.312441 88.752922 74.592626 88.076497 74.592626 87.371283 
C 74.592626 86.666068 74.312441 85.989643 73.813779 85.490981 
C 73.315118 84.992319 72.638692 84.712135 71.933478 84.712135 
C 71.228264 84.712135 70.551838 84.992319 70.053176 85.490981 
C 69.554514 85.989643 69.27433 86.666068 69.27433 87.371283 
C 69.27433 88.076497 69.554514 88.752922 70.053176 89.251584 
C 70.551838 89.750246 71.228264 90.030431 71.933478 90.030431 
z
" clip-path="url(#peb6fcd869f)" style="stroke: #000000"/>
    <path d="M 64.228764 81.638104 
C 64.7896 81.638104 65.327541 81.415282 65.724112 81.01871 
C 66.120684 80.622139 66.343506 80.084198 66.343506 79.523362 
C 66.343506 78.962525 66.120684 78.424584 65.724112 78.028013 
C 65.327541 77.631442 64.7896 77.408619 64.228764 77.408619 
C 63.667927 77.408619 63.129986 77.631442 62.733415 78.028013 
C 62.336844 78.424584 62.114021 78.962525 62.114021 79.523362 
C 62.114021 80.084198 62.336844 80.622139 62.733415 81.01871 
C 63.129986 81.415282 63.667927 81.638104 64.228764 81.638104 
z
" clip-path="url(#peb6fcd869f)" style="stroke: #000000"/>
    <path d="M 59.555939 62.342098 
C 59.791742 62.342098 60.017919 62.248412 60.184656 62.081675 
C 60.351394 61.914937 60.445079 61.688761 60.445079 61.452958 
C 60.445079 61.217155 60.351394 60.990979 60.184656 60.824241 
C 60.017919 60.657504 59.791742 60.563818 59.555939 60.563818 
C 59.320137 60.563818 59.09396 60.657504 58.927223 60.824241 
C 58.760485 60.990979 58.6668 61.217155 58.6668 61.452958 
C 58.6668 61.688761 58.760485 61.914937 58.927223 62.081675 
C 59.09396 62.248412 59.320137 62.342098 59.555939 62.342098 
z
" clip-path="url(#peb6fcd869f)" style="stroke: #000000"/>
    <path d="M 54.148526 39.316869 
C 54.698072 39.316869 55.225184 39.098532 55.613772 38.709945 
C 56.002359 38.321357 56.220696 37.794245 56.220696 37.244699 
C 56.220696 36.695153 56.002359 36.168041 55.613772 35.779453 
C 55.225184 35.390865 54.698072 35.172528 54.148526 35.172528 
C 53.59898 35.172528 53.071868 35.390865 52.68328 35.779453 
C 52.294692 36.168041 52.076355 36.695153 52.076355 37.244699 
C 52.076355 37.794245 52.294692 38.321357 52.68328 38.709945 
C 53.071868 39.098532 53.59898 39.316869 54.148526 39.316869 
z
" clip-path="url(#peb6fcd869f)" style="stroke: #000000"/>
    <path d="M 89.612146 177.479702 
C 90.205529 177.479702 90.774687 177.243948 91.194272 176.824364 
C 91.613857 176.404779 91.84961 175.83562 91.84961 175.242238 
C 91.84961 174.648855 91.613857 174.079696 91.194272 173.660111 
C 90.774687 173.240527 90.205529 173.004773 89.612146 173.004773 
C 89.018764 173.004773 88.449605 173.240527 88.03002 173.660111 
C 87.610435 174.079696 87.374682 174.648855 87.374682 175.242238 
C 87.374682 175.83562 87.610435 176.404779 88.03002 176.824364 
C 88.449605 177.243948 89.018764 177.479702 89.612146 177.479702 
z
" clip-path="url(#peb6fcd869f)" style="stroke: #000000"/>
    <path d="M 84.722553 166.46563 
C 85.317776 166.46563 85.888701 166.229145 86.309588 165.808258 
C 86.730475 165.387372 86.966959 164.816447 86.966959 164.221223 
C 86.966959 163.626 86.730475 163.055075 86.309588 162.634188 
C 85.888701 162.213302 85.317776 161.976817 84.722553 161.976817 
C 84.127329 161.976817 83.556404 162.213302 83.135518 162.634188 
C 82.714631 163.055075 82.478146 163.626 82.478146 164.221223 
C 82.478146 164.816447 82.714631 165.387372 83.135518 165.808258 
C 83.556404 166.229145 84.127329 166.46563 84.722553 166.46563 
z
" clip-path="url(#peb6fcd869f)" style="stroke: #000000"/>
    <path d="M 72.616074 135.755602 
C 73.181242 135.755602 73.723337 135.531059 74.122971 135.131425 
C 74.522605 134.731791 74.747148 134.189696 74.747148 133.624528 
C 74.747148 133.059361 74.522605 132.517265 74.122971 132.117632 
C 73.723337 131.717998 73.181242 131.493455 72.616074 131.493455 
C 72.050907 131.493455 71.508811 131.717998 71.109178 132.117632 
C 70.709544 132.517265 70.485001 133.059361 70.485001 133.624528 
C 70.485001 134.189696 70.709544 134.731791 71.109178 135.131425 
C 71.508811 135.531059 72.050907 135.755602 72.616074 135.755602 
z
" clip-path="url(#peb6fcd869f)" style="stroke: #000000"/>
    <path d="M 67.07251 105.853032 
C 67.665892 105.853032 68.235051 105.617279 68.654636 105.197694 
C 69.074221 104.77811 69.309974 104.208951 69.309974 103.615568 
C 69.309974 103.022186 69.074221 102.453027 68.654636 102.033442 
C 68.235051 101.613857 67.665892 101.378104 67.07251 101.378104 
C 66.479127 101.378104 65.909968 101.613857 65.490384 102.033442 
C 65.070799 102.453027 64.835045 103.022186 64.835045 103.615568 
C 64.835045 104.208951 65.070799 104.77811 65.490384 105.197694 
C 65.909968 105.617279 66.479127 105.853032 67.07251 105.853032 
z
" clip-path="url(#peb6fcd869f)" style="stroke: #000000"/>
    <path d="M 57.287197 88.48982 
C 57.992632 88.48982 58.669268 88.209548 59.168086 87.710731 
C 59.666903 87.211913 59.947176 86.535276 59.947176 85.829842 
C 59.947176 85.124407 59.666903 84.447771 59.168086 83.948953 
C 58.669268 83.450136 57.992632 83.169863 57.287197 83.169863 
C 56.581762 83.169863 55.905126 83.450136 55.406308 83.948953 
C 54.907491 84.447771 54.627218 85.124407 54.627218 85.829842 
C 54.627218 86.535276 54.907491 87.211913 55.406308 87.710731 
C 55.905126 88.209548 56.581762 88.48982 57.287197 88.48982 
z
" clip-path="url(#peb6fcd869f)" style="stroke: #000000"/>
    <path d="M 49.836179 56.485007 
C 50.429561 56.485007 50.99872 56.249253 51.418305 55.829669 
C 51.83789 55.410084 52.073643 54.840925 52.073643 54.247543 
C 52.073643 53.65416 51.83789 53.085001 51.418305 52.665417 
C 50.99872 52.245832 50.429561 52.010078 49.836179 52.010078 
C 49.242797 52.010078 48.673638 52.245832 48.254053 52.665417 
C 47.834468 53.085001 47.598715 53.65416 47.598715 54.247543 
C 47.598715 54.840925 47.834468 55.410084 48.254053 55.829669 
C 48.673638 56.249253 49.242797 56.485007 49.836179 56.485007 
z
" clip-path="url(#peb6fcd869f)" style="stroke: #000000"/>
    <path d="M 44.705631 41.89732 
C 45.253305 41.89732 45.778621 41.679727 46.165885 41.292463 
C 46.553148 40.905199 46.770741 40.379883 46.770741 39.832209 
C 46.770741 39.284536 46.553148 38.75922 46.165885 38.371956 
C 45.778621 37.984692 45.253305 37.767099 44.705631 37.767099 
C 44.157957 37.767099 43.632641 37.984692 43.245378 38.371956 
C 42.858114 38.75922 42.640521 39.284536 42.640521 39.832209 
C 42.640521 40.379883 42.858114 40.905199 43.245378 41.292463 
C 43.632641 41.679727 44.157957 41.89732 44.705631 41.89732 
z
" clip-path="url(#peb6fcd869f)" style="stroke: #000000"/>
    <path d="M 68.02785 163.342079 
C 68.733284 163.342079 69.409921 163.061807 69.908738 162.562989 
C 70.407556 162.064172 70.687828 161.387535 70.687828 160.6821 
C 70.687828 159.976666 70.407556 159.300029 69.908738 158.801212 
C 69.409921 158.302394 68.733284 158.022122 68.02785 158.022122 
C 67.322415 158.022122 66.645778 158.302394 66.146961 158.801212 
C 65.648143 159.300029 65.367871 159.976666 65.367871 160.6821 
C 65.367871 161.387535 65.648143 162.064172 66.146961 162.562989 
C 66.645778 163.061807 67.322415 163.342079 68.02785 163.342079 
z
" clip-path="url(#peb6fcd869f)" style="stroke: #000000"/>
    <path d="M 67.370581 152.446883 
C 68.075795 152.446883 68.752221 152.166698 69.250883 151.668036 
C 69.749545 151.169375 70.029729 150.492949 70.029729 149.787735 
C 70.029729 149.08252 69.749545 148.406095 69.250883 147.907433 
C 68.752221 147.408771 68.075795 147.128587 67.370581 147.128587 
C 66.665367 147.128587 65.988941 147.408771 65.49028 147.907433 
C 64.991618 148.406095 64.711433 149.08252 64.711433 149.787735 
C 64.711433 150.492949 64.991618 151.169375 65.49028 151.668036 
C 65.988941 152.166698 66.665367 152.446883 67.370581 152.446883 
z
" clip-path="url(#peb6fcd869f)" style="stroke: #000000"/>
    <path d="M 64.656978 137.742522 
C 65.218252 137.742522 65.756613 137.519525 66.153493 137.122644 
C 66.550374 136.725764 66.77337 136.187403 66.77337 135.626129 
C 66.77337 135.064855 66.550374 134.526494 66.153493 134.129613 
C 65.756613 133.732733 65.218252 133.509736 64.656978 133.509736 
C 64.095704 133.509736 63.557343 133.732733 63.160462 134.129613 
C 62.763581 134.526494 62.540585 135.064855 62.540585 135.626129 
C 62.540585 136.187403 62.763581 136.725764 63.160462 137.122644 
C 63.557343 137.519525 64.095704 137.742522 64.656978 137.742522 
z
" clip-path="url(#peb6fcd869f)" style="stroke: #000000"/>
    <path d="M 57.681088 132.928071 
C 58.386523 132.928071 59.06316 132.647799 59.561977 132.148981 
C 60.060795 131.650164 60.341067 130.973527 60.341067 130.268092 
C 60.341067 129.562658 60.060795 128.886021 59.561977 128.387203 
C 59.06316 127.888386 58.386523 127.608114 57.681088 127.608114 
C 56.975654 127.608114 56.299017 127.888386 55.800199 128.387203 
C 55.301382 128.886021 55.02111 129.562658 55.02111 130.268092 
C 55.02111 130.973527 55.301382 131.650164 55.800199 132.148981 
C 56.299017 132.647799 56.975654 132.928071 57.681088 132.928071 
z
" clip-path="url(#peb6fcd869f)" style="stroke: #000000"/>
    <path d="M 59.792903 121.832192 
C 60.498117 121.832192 61.174543 121.552008 61.673205 121.053346 
C 62.171866 120.554684 62.452051 119.878259 62.452051 119.173044 
C 62.452051 118.46783 62.171866 117.791405 61.673205 117.292743 
C 61.174543 116.794081 60.498117 116.513896 59.792903 116.513896 
C 59.087689 116.513896 58.411263 116.794081 57.912601 117.292743 
C 57.41394 117.791405 57.133755 118.46783 57.133755 119.173044 
C 57.133755 119.878259 57.41394 120.554684 57.912601 121.053346 
C 58.411263 121.552008 59.087689 121.832192 59.792903 121.832192 
z
" clip-path="url(#peb6fcd869f)" style="stroke: #000000"/>
    <path d="M 53.433592 111.33769 
C 54.139026 111.33769 54.815663 111.057417 55.314481 110.5586 
C 55.813298 110.059782 56.09357 109.383146 56.09357 108.677711 
C 56.09357 107.972276 55.813298 107.29564 55.314481 106.796822 
C 54.815663 106.298005 54.139026 106.017732 53.433592 106.017732 
C 52.728157 106.017732 52.05152 106.298005 51.552703 106.796822 
C 51.053885 107.29564 50.773613 107.972276 50.773613 108.677711 
C 50.773613 109.383146 51.053885 110.059782 51.552703 110.5586 
C 52.05152 111.057417 52.728157 111.33769 53.433592 111.33769 
z
" clip-path="url(#peb6fcd869f)" style="stroke: #000000"/>
    <path d="M 47.645284 90.93999 
C 48.350719 90.93999 49.027355 90.659718 49.526173 90.1609 
C 50.02499 89.662083 50.305263 88.985446 50.305263 88.280011 
C 50.305263 87.574577 50.02499 86.89794 49.526173 86.399122 
C 49.027355 85.900305 48.350719 85.620033 47.645284 85.620033 
C 46.939849 85.620033 46.263213 85.900305 45.764395 86.399122 
C 45.265578 86.89794 44.985305 87.574577 44.985305 88.280011 
C 44.985305 88.985446 45.265578 89.662083 45.764395 90.1609 
C 46.263213 90.659718 46.939849 90.93999 47.645284 90.93999 
z
" clip-path="url(#peb6fcd869f)" style="stroke: #000000"/>
    <path d="M 38.70288 78.511182 
C 39.408094 78.511182 40.084519 78.230998 40.583181 77.732336 
C 41.081843 77.233674 41.362028 76.557248 41.362028 75.852034 
C 41.362028 75.14682 41.081843 74.470394 40.583181 73.971733 
C 40.084519 73.473071 39.408094 73.192886 38.70288 73.192886 
C 37.997665 73.192886 37.32124 73.473071 36.822578 73.971733 
C 36.323916 74.470394 36.043732 75.14682 36.043732 75.852034 
C 36.043732 76.557248 36.323916 77.233674 36.822578 77.732336 
C 37.32124 78.230998 37.997665 78.511182 38.70288 78.511182 
z
" clip-path="url(#peb6fcd869f)" style="stroke: #000000"/>
    <path d="M 62.366131 166.136422 
C 62.986151 166.136422 63.58086 165.890086 64.01928 165.451666 
C 64.457701 165.013245 64.704037 164.418536 64.704037 163.798517 
C 64.704037 163.178497 64.457701 162.583788 64.01928 162.145368 
C 63.58086 161.706947 62.986151 161.460611 62.366131 161.460611 
C 61.746112 161.460611 61.151403 161.706947 60.712983 162.145368 
C 60.274562 162.583788 60.028226 163.178497 60.028226 163.798517 
C 60.028226 164.418536 60.274562 165.013245 60.712983 165.451666 
C 61.151403 165.890086 61.746112 166.136422 62.366131 166.136422 
z
" clip-path="url(#peb6fcd869f)" style="stroke: #000000"/>
    <path d="M 55.881129 152.28938 
C 56.384098 152.28938 56.866534 152.089548 57.222187 151.733895 
C 57.57784 151.378242 57.777672 150.895806 57.777672 150.392837 
C 57.777672 149.889868 57.57784 149.407432 57.222187 149.051779 
C 56.866534 148.696126 56.384098 148.496294 55.881129 148.496294 
C 55.37816 148.496294 54.895724 148.696126 54.540071 149.051779 
C 54.184418 149.407432 53.984586 149.889868 53.984586 150.392837 
C 53.984586 150.895806 54.184418 151.378242 54.540071 151.733895 
C 54.895724 152.089548 55.37816 152.28938 55.881129 152.28938 
z
" clip-path="url(#peb6fcd869f)" style="stroke: #000000"/>
    <path d="M 56.017739 143.539214 
C 56.723174 143.539214 57.39981 143.258942 57.898628 142.760124 
C 58.397445 142.261307 58.677718 141.58467 58.677718 140.879235 
C 58.677718 140.173801 58.397445 139.497164 57.898628 138.998346 
C 57.39981 138.499529 56.723174 138.219257 56.017739 138.219257 
C 55.312305 138.219257 54.635668 138.499529 54.13685 138.998346 
C 53.638033 139.497164 53.357761 140.173801 53.357761 140.879235 
C 53.357761 141.58467 53.638033 142.261307 54.13685 142.760124 
C 54.635668 143.258942 55.312305 143.539214 56.017739 143.539214 
z
" clip-path="url(#peb6fcd869f)" style="stroke: #000000"/>
    <path d="M 50.831674 129.867839 
C 51.537109 129.867839 52.213746 129.587567 52.712563 129.088749 
C 53.211381 128.589931 53.491653 127.913295 53.491653 127.20786 
C 53.491653 126.502426 53.211381 125.825789 52.712563 125.326971 
C 52.213746 124.828154 51.537109 124.547882 50.831674 124.547882 
C 50.12624 124.547882 49.449603 124.828154 48.950786 125.326971 
C 48.451968 125.825789 48.171696 126.502426 48.171696 127.20786 
C 48.171696 127.913295 48.451968 128.589931 48.950786 129.088749 
C 49.449603 129.587567 50.12624 129.867839 50.831674 129.867839 
z
" clip-path="url(#peb6fcd869f)" style="stroke: #000000"/>
    <path d="M 51.638802 125.168106 
C 52.344016 125.168106 53.020442 124.887922 53.519104 124.38926 
C 54.017765 123.890598 54.29795 123.214173 54.29795 122.508958 
C 54.29795 121.803744 54.017765 121.127319 53.519104 120.628657 
C 53.020442 120.129995 52.344016 119.84981 51.638802 119.84981 
C 50.933588 119.84981 50.257162 120.129995 49.7585 120.628657 
C 49.259839 121.127319 48.979654 121.803744 48.979654 122.508958 
C 48.979654 123.214173 49.259839 123.890598 49.7585 124.38926 
C 50.257162 124.887922 50.933588 125.168106 51.638802 125.168106 
z
" clip-path="url(#peb6fcd869f)" style="stroke: #000000"/>
    <path d="M 41.107961 112.63767 
C 41.813395 112.63767 42.490032 112.357398 42.988849 111.85858 
C 43.487667 111.359763 43.767939 110.683126 43.767939 109.977691 
C 43.767939 109.272257 43.487667 108.59562 42.988849 108.096803 
C 42.490032 107.597985 41.813395 107.317713 41.107961 107.317713 
C 40.402526 107.317713 39.725889 107.597985 39.227072 108.096803 
C 38.728254 108.59562 38.447982 109.272257 38.447982 109.977691 
C 38.447982 110.683126 38.728254 111.359763 39.227072 111.85858 
C 39.725889 112.357398 40.402526 112.63767 41.107961 112.63767 
z
" clip-path="url(#peb6fcd869f)" style="stroke: #000000"/>
    <path d="M 39.048288 90.794047 
C 39.753503 90.794047 40.429928 90.513863 40.92859 90.015201 
C 41.427252 89.516539 41.707436 88.840114 41.707436 88.134899 
C 41.707436 87.429685 41.427252 86.75326 40.92859 86.254598 
C 40.429928 85.755936 39.753503 85.475751 39.048288 85.475751 
C 38.343074 85.475751 37.666649 85.755936 37.167987 86.254598 
C 36.669325 86.75326 36.389141 87.429685 36.389141 88.134899 
C 36.389141 88.840114 36.669325 89.516539 37.167987 90.015201 
C 37.666649 90.513863 38.343074 90.794047 39.048288 90.794047 
z
" clip-path="url(#peb6fcd869f)" style="stroke: #000000"/>
    <path d="M 56.162004 176.832846 
C 56.755016 176.832846 57.32382 176.59724 57.743142 176.177917 
C 58.162465 175.758594 58.398072 175.18979 58.398072 174.596778 
C 58.398072 174.003766 58.162465 173.434962 57.743142 173.015639 
C 57.32382 172.596316 56.755016 172.36071 56.162004 172.36071 
C 55.568991 172.36071 55.000188 172.596316 54.580865 173.015639 
C 54.161542 173.434962 53.925936 174.003766 53.925936 174.596778 
C 53.925936 175.18979 54.161542 175.758594 54.580865 176.177917 
C 55.000188 176.59724 55.568991 176.832846 56.162004 176.832846 
z
" clip-path="url(#peb6fcd869f)" style="stroke: #000000"/>
    <path d="M 47.106434 157.934276 
C 47.710265 157.934276 48.289447 157.694371 48.71642 157.267398 
C 49.143393 156.840425 49.383298 156.261243 49.383298 155.657412 
C 49.383298 155.05358 49.143393 154.474399 48.71642 154.047426 
C 48.289447 153.620453 47.710265 153.380548 47.106434 153.380548 
C 46.502602 153.380548 45.923421 153.620453 45.496448 154.047426 
C 45.069474 154.474399 44.82957 155.05358 44.82957 155.657412 
C 44.82957 156.261243 45.069474 156.840425 45.496448 157.267398 
C 45.923421 157.694371 46.502602 157.934276 47.106434 157.934276 
z
" clip-path="url(#peb6fcd869f)" style="stroke: #000000"/>
    <path d="M 45.781047 146.883394 
C 46.142157 146.883394 46.488525 146.739924 46.743869 146.484581 
C 46.999212 146.229237 47.142682 145.882869 47.142682 145.521759 
C 47.142682 145.16065 46.999212 144.814281 46.743869 144.558938 
C 46.488525 144.303595 46.142157 144.160124 45.781047 144.160124 
C 45.419938 144.160124 45.073569 144.303595 44.818226 144.558938 
C 44.562883 144.814281 44.419412 145.16065 44.419412 145.521759 
C 44.419412 145.882869 44.562883 146.229237 44.818226 146.484581 
C 45.073569 146.739924 45.419938 146.883394 45.781047 146.883394 
z
" clip-path="url(#peb6fcd869f)" style="stroke: #000000"/>
    <path d="M 34.885801 137.923875 
C 35.587463 137.923875 36.26048 137.645102 36.75663 137.148952 
C 37.25278 136.652803 37.531553 135.979785 37.531553 135.278124 
C 37.531553 134.576462 37.25278 133.903444 36.75663 133.407295 
C 36.26048 132.911145 35.587463 132.632372 34.885801 132.632372 
C 34.18414 132.632372 33.511122 132.911145 33.014973 133.407295 
C 32.518823 133.903444 32.24005 134.576462 32.24005 135.278124 
C 32.24005 135.979785 32.518823 136.652803 33.014973 137.148952 
C 33.511122 137.645102 34.18414 137.923875 34.885801 137.923875 
z
" clip-path="url(#peb6fcd869f)" style="stroke: #000000"/>
    <path d="M 38.313824 127.047267 
C 39.019259 127.047267 39.695896 126.766995 40.194713 126.268177 
C 40.693531 125.76936 40.973803 125.092723 40.973803 124.387288 
C 40.973803 123.681854 40.693531 123.005217 40.194713 122.5064 
C 39.695896 122.007582 39.019259 121.72731 38.313824 121.72731 
C 37.60839 121.72731 36.931753 122.007582 36.432935 122.5064 
C 35.934118 123.005217 35.653846 123.681854 35.653846 124.387288 
C 35.653846 125.092723 35.934118 125.76936 36.432935 126.268177 
C 36.931753 126.766995 37.60839 127.047267 38.313824 127.047267 
z
" clip-path="url(#peb6fcd869f)" style="stroke: #000000"/>
    <path d="M 31.583927 114.036263 
C 32.105844 114.036263 32.606455 113.828903 32.975506 113.459852 
C 33.344557 113.090801 33.551916 112.59019 33.551916 112.068273 
C 33.551916 111.546356 33.344557 111.045745 32.975506 110.676694 
C 32.606455 110.307643 32.105844 110.100284 31.583927 110.100284 
C 31.06201 110.100284 30.561399 110.307643 30.192348 110.676694 
C 29.823297 111.045745 29.615937 111.546356 29.615937 112.068273 
C 29.615937 112.59019 29.823297 113.090801 30.192348 113.459852 
C 30.561399 113.828903 31.06201 114.036263 31.583927 114.036263 
z
" clip-path="url(#peb6fcd869f)" style="stroke: #000000"/>
    <path d="M 32.853914 149.080683 
C 33.448035 149.080683 34.017902 148.844636 34.438009 148.424529 
C 34.858116 148.004422 35.094163 147.434555 35.094163 146.840434 
C 35.094163 146.246313 34.858116 145.676446 34.438009 145.256339 
C 34.017902 144.836232 33.448035 144.600185 32.853914 144.600185 
C 32.259793 144.600185 31.689926 144.836232 31.269819 145.256339 
C 30.849712 145.676446 30.613665 146.246313 30.613665 146.840434 
C 30.613665 147.434555 30.849712 148.004422 31.269819 148.424529 
C 31.689926 148.844636 32.259793 149.080683 32.853914 149.080683 
z
" clip-path="url(#peb6fcd869f)" style="stroke: #000000"/>
   </g>
   <g id="matplotlib.axis_1">
    <g id="xtick_1">
     <g id="line2d_1">
      <defs>
       <path id="m0c24c7df25" d="M 0 0 
L 0 3.5 
" style="stroke: #000000; stroke-width: 0.8"/>
      </defs>
      <g>
       <use xlink:href="#m0c24c7df25" x="18" y="189" style="stroke: #000000; stroke-width: 0.8"/>
      </g>
     </g>
     <g id="text_1">
      <!-- −10 -->
      <g transform="translate(7.447656 203.598437)scale(0.1 -0.1)">
       <defs>
        <path id="DejaVuSans-2212" d="M 678 2272 
L 4684 2272 
L 4684 1741 
L 678 1741 
L 678 2272 
z
" transform="scale(0.015625)"/>
        <path id="DejaVuSans-31" d="M 794 531 
L 1825 531 
L 1825 4091 
L 703 3866 
L 703 4441 
L 1819 4666 
L 2450 4666 
L 2450 531 
L 3481 531 
L 3481 0 
L 794 0 
L 794 531 
z
" transform="scale(0.015625)"/>
        <path id="DejaVuSans-30" d="M 2034 4250 
Q 1547 4250 1301 3770 
Q 1056 3291 1056 2328 
Q 1056 1369 1301 889 
Q 1547 409 2034 409 
Q 2525 409 2770 889 
Q 3016 1369 3016 2328 
Q 3016 3291 2770 3770 
Q 2525 4250 2034 4250 
z
M 2034 4750 
Q 2819 4750 3233 4129 
Q 3647 3509 3647 2328 
Q 3647 1150 3233 529 
Q 2819 -91 2034 -91 
Q 1250 -91 836 529 
Q 422 1150 422 2328 
Q 422 3509 836 4129 
Q 1250 4750 2034 4750 
z
" transform="scale(0.015625)"/>
       </defs>
       <use xlink:href="#DejaVuSans-2212"/>
       <use xlink:href="#DejaVuSans-31" x="83.789062"/>
       <use xlink:href="#DejaVuSans-30" x="147.412109"/>
      </g>
     </g>
    </g>
    <g id="xtick_2">
     <g id="line2d_2">
      <g>
       <use xlink:href="#m0c24c7df25" x="73.8" y="189" style="stroke: #000000; stroke-width: 0.8"/>
      </g>
     </g>
     <g id="text_2">
      <!-- 0 -->
      <g transform="translate(70.61875 203.598437)scale(0.1 -0.1)">
       <use xlink:href="#DejaVuSans-30"/>
      </g>
     </g>
    </g>
    <g id="xtick_3">
     <g id="line2d_3">
      <g>
       <use xlink:href="#m0c24c7df25" x="129.6" y="189" style="stroke: #000000; stroke-width: 0.8"/>
      </g>
     </g>
     <g id="text_3">
      <!-- 10 -->
      <g transform="translate(123.2375 203.598437)scale(0.1 -0.1)">
       <use xlink:href="#DejaVuSans-31"/>
       <use xlink:href="#DejaVuSans-30" x="63.623047"/>
      </g>
     </g>
    </g>
   </g>
   <g id="matplotlib.axis_2">
    <g id="ytick_1">
     <g id="line2d_4">
      <defs>
       <path id="mecbe088b52" d="M 0 0 
L -3.5 0 
" style="stroke: #000000; stroke-width: 0.8"/>
      </defs>
      <g>
       <use xlink:href="#mecbe088b52" x="18" y="189" style="stroke: #000000; stroke-width: 0.8"/>
      </g>
     </g>
     <g id="text_4">
      <!-- −15 -->
      <g transform="translate(-10.104688 192.799219)scale(0.1 -0.1)">
       <defs>
        <path id="DejaVuSans-35" d="M 691 4666 
L 3169 4666 
L 3169 4134 
L 1269 4134 
L 1269 2991 
Q 1406 3038 1543 3061 
Q 1681 3084 1819 3084 
Q 2600 3084 3056 2656 
Q 3513 2228 3513 1497 
Q 3513 744 3044 326 
Q 2575 -91 1722 -91 
Q 1428 -91 1123 -41 
Q 819 9 494 109 
L 494 744 
Q 775 591 1075 516 
Q 1375 441 1709 441 
Q 2250 441 2565 725 
Q 2881 1009 2881 1497 
Q 2881 1984 2565 2268 
Q 2250 2553 1709 2553 
Q 1456 2553 1204 2497 
Q 953 2441 691 2322 
L 691 4666 
z
" transform="scale(0.015625)"/>
       </defs>
       <use xlink:href="#DejaVuSans-2212"/>
       <use xlink:href="#DejaVuSans-31" x="83.789062"/>
       <use xlink:href="#DejaVuSans-35" x="147.412109"/>
      </g>
     </g>
    </g>
    <g id="ytick_2">
     <g id="line2d_5">
      <g>
       <use xlink:href="#mecbe088b52" x="18" y="161.82" style="stroke: #000000; stroke-width: 0.8"/>
      </g>
     </g>
     <g id="text_5">
      <!-- −10 -->
      <g transform="translate(-10.104688 165.619219)scale(0.1 -0.1)">
       <use xlink:href="#DejaVuSans-2212"/>
       <use xlink:href="#DejaVuSans-31" x="83.789062"/>
       <use xlink:href="#DejaVuSans-30" x="147.412109"/>
      </g>
     </g>
    </g>
    <g id="ytick_3">
     <g id="line2d_6">
      <g>
       <use xlink:href="#mecbe088b52" x="18" y="134.64" style="stroke: #000000; stroke-width: 0.8"/>
      </g>
     </g>
     <g id="text_6">
      <!-- −5 -->
      <g transform="translate(-3.742188 138.439219)scale(0.1 -0.1)">
       <use xlink:href="#DejaVuSans-2212"/>
       <use xlink:href="#DejaVuSans-35" x="83.789062"/>
      </g>
     </g>
    </g>
    <g id="ytick_4">
     <g id="line2d_7">
      <g>
       <use xlink:href="#mecbe088b52" x="18" y="107.46" style="stroke: #000000; stroke-width: 0.8"/>
      </g>
     </g>
     <g id="text_7">
      <!-- 0 -->
      <g transform="translate(4.6375 111.259219)scale(0.1 -0.1)">
       <use xlink:href="#DejaVuSans-30"/>
      </g>
     </g>
    </g>
    <g id="ytick_5">
     <g id="line2d_8">
      <g>
       <use xlink:href="#mecbe088b52" x="18" y="80.28" style="stroke: #000000; stroke-width: 0.8"/>
      </g>
     </g>
     <g id="text_8">
      <!-- 5 -->
      <g transform="translate(4.6375 84.079219)scale(0.1 -0.1)">
       <use xlink:href="#DejaVuSans-35"/>
      </g>
     </g>
    </g>
    <g id="ytick_6">
     <g id="line2d_9">
      <g>
       <use xlink:href="#mecbe088b52" x="18" y="53.1" style="stroke: #000000; stroke-width: 0.8"/>
      </g>
     </g>
     <g id="text_9">
      <!-- 10 -->
      <g transform="translate(-1.725 56.899219)scale(0.1 -0.1)">
       <use xlink:href="#DejaVuSans-31"/>
       <use xlink:href="#DejaVuSans-30" x="63.623047"/>
      </g>
     </g>
    </g>
    <g id="ytick_7">
     <g id="line2d_10">
      <g>
       <use xlink:href="#mecbe088b52" x="18" y="25.92" style="stroke: #000000; stroke-width: 0.8"/>
      </g>
     </g>
     <g id="text_10">
      <!-- 15 -->
      <g transform="translate(-1.725 29.719219)scale(0.1 -0.1)">
       <use xlink:href="#DejaVuSans-31"/>
       <use xlink:href="#DejaVuSans-35" x="63.623047"/>
      </g>
     </g>
    </g>
   </g>
   <g id="patch_3">
    <path d="M 18 189 
L 18 25.92 
" style="fill: none; stroke: #000000; stroke-width: 0.8; stroke-linejoin: miter; stroke-linecap: square"/>
   </g>
   <g id="patch_4">
    <path d="M 129.6 189 
L 129.6 25.92 
" style="fill: none; stroke: #000000; stroke-width: 0.8; stroke-linejoin: miter; stroke-linecap: square"/>
   </g>
   <g id="patch_5">
    <path d="M 18 189 
L 129.6 189 
" style="fill: none; stroke: #000000; stroke-width: 0.8; stroke-linejoin: miter; stroke-linecap: square"/>
   </g>
   <g id="patch_6">
    <path d="M 18 25.92 
L 129.6 25.92 
" style="fill: none; stroke: #000000; stroke-width: 0.8; stroke-linejoin: miter; stroke-linecap: square"/>
   </g>
  </g>
 </g>
 <defs>
  <clipPath id="peb6fcd869f">
   <rect x="18" y="25.92" width="111.6" height="163.08"/>
  </clipPath>
 </defs>
</svg>
