<?xml version="1.0" encoding="utf-8" standalone="no"?>
<!DOCTYPE svg PUBLIC "-//W3C//DTD SVG 1.1//EN"
  "http://www.w3.org/Graphics/SVG/1.1/DTD/svg11.dtd">
<svg xmlns:xlink="http://www.w3.org/1999/xlink" width="144pt" height="216pt" viewBox="0 0 144 216" xmlns="http://www.w3.org/2000/svg" version="1.1">
 <metadata>
  <rdf:RDF xmlns:dc="http://purl.org/dc/elements/1.1/" xmlns:cc="http://creativecommons.org/ns#" xmlns:rdf="http://www.w3.org/1999/02/22-rdf-syntax-ns#">
   <cc:Work>
    <dc:type rdf:resource="http://purl.org/dc/dcmitype/StillImage"/>
    <dc:date>2022-06-23T14:44:33.102622</dc:date>
    <dc:format>image/svg+xml</dc:format>
    <dc:creator>
     <cc:Agent>
      <dc:title>Matplotlib v3.5.1, https://matplotlib.org/</dc:title>
     </cc:Agent>
    </dc:creator>
   </cc:Work>
  </rdf:RDF>
 </metadata>
 <defs>
  <style type="text/css">*{stroke-linejoin: round; stroke-linecap: butt}</style>
 </defs>
 <g id="figure_1">
  <g id="patch_1">
   <path d="M 0 216 
L 144 216 
L 144 0 
L 0 0 
L 0 216 
z
" style="fill: none"/>
  </g>
  <g id="axes_1">
   <g id="patch_2">
    <path d="M 18 189 
L 129.6 189 
L 129.6 25.92 
L 18 25.92 
z
" style="fill: #ffffff"/>
   </g>
   <g id="PathCollection_1">
    <defs>
     <path id="mf3bafe9ee2" d="M 0 2.738613 
C 0.726289 2.738613 1.422928 2.450055 1.936492 1.936492 
C 2.450055 1.422928 2.738613 0.726289 2.738613 0 
C 2.738613 -0.726289 2.450055 -1.422928 1.936492 -1.936492 
C 1.422928 -2.450055 0.726289 -2.738613 0 -2.738613 
C -0.726289 -2.738613 -1.422928 -2.450055 -1.936492 -1.936492 
C -2.450055 -1.422928 -2.738613 -0.726289 -2.738613 0 
C -2.738613 0.726289 -2.450055 1.422928 -1.936492 1.936492 
C -1.422928 2.450055 -0.726289 2.738613 0 2.738613 
z
" style="stroke: #ff0000; stroke-width: 1.75"/>
    </defs>
    <g clip-path="url(#p3a4e959226)">
     <use xlink:href="#mf3bafe9ee2" x="66.825" y="83.92143" style="fill: #ff0000; stroke: #ff0000; stroke-width: 1.75"/>
     <use xlink:href="#mf3bafe9ee2" x="87.75" y="95.690715" style="fill: #ff0000; stroke: #ff0000; stroke-width: 1.75"/>
     <use xlink:href="#mf3bafe9ee2" x="66.825" y="107.46" style="fill: #ff0000; stroke: #ff0000; stroke-width: 1.75"/>
     <use xlink:href="#mf3bafe9ee2" x="73.8" y="119.229285" style="fill: #ff0000; stroke: #ff0000; stroke-width: 1.75"/>
     <use xlink:href="#mf3bafe9ee2" x="87.75" y="119.229285" style="fill: #ff0000; stroke: #ff0000; stroke-width: 1.75"/>
     <use xlink:href="#mf3bafe9ee2" x="66.825" y="130.99857" style="fill: #ff0000; stroke: #ff0000; stroke-width: 1.75"/>
     <use xlink:href="#mf3bafe9ee2" x="80.775" y="130.99857" style="fill: #ff0000; stroke: #ff0000; stroke-width: 1.75"/>
    </g>
   </g>
   <g id="PathCollection_2">
    <defs>
     <path id="C0_0_cf8cdd22ed" d="M 0 2.738613 
C 0.726289 2.738613 1.422928 2.450055 1.936492 1.936492 
C 2.450055 1.422928 2.738613 0.726289 2.738613 -0 
C 2.738613 -0.726289 2.450055 -1.422928 1.936492 -1.936492 
C 1.422928 -2.450055 0.726289 -2.738613 0 -2.738613 
C -0.726289 -2.738613 -1.422928 -2.450055 -1.936492 -1.936492 
C -2.450055 -1.422928 -2.738613 -0.726289 -2.738613 0 
C -2.738613 0.726289 -2.450055 1.422928 -1.936492 1.936492 
C -1.422928 2.450055 -0.726289 2.738613 0 2.738613 
z
"/>
    </defs>
    <g clip-path="url(#p3a4e959226)">
     <use xlink:href="#C0_0_cf8cdd22ed" x="80.775" y="83.92143" style="fill: none; stroke: #ff0000; stroke-width: 1.75"/>
    </g>
    <g clip-path="url(#p3a4e959226)">
     <use xlink:href="#C0_0_cf8cdd22ed" x="59.85" y="95.690715" style="fill: none; stroke: #ff0000; stroke-width: 1.75"/>
    </g>
    <g clip-path="url(#p3a4e959226)">
     <use xlink:href="#C0_0_cf8cdd22ed" x="73.8" y="95.690715" style="fill: none; stroke: #ff0000; stroke-width: 1.75"/>
    </g>
    <g clip-path="url(#p3a4e959226)">
     <use xlink:href="#C0_0_cf8cdd22ed" x="52.875" y="107.46" style="fill: none; stroke: #ff0000; stroke-width: 1.75"/>
    </g>
    <g clip-path="url(#p3a4e959226)">
     <use xlink:href="#C0_0_cf8cdd22ed" x="80.775" y="107.46" style="fill: none; stroke: #ff0000; stroke-width: 1.75"/>
    </g>
    <g clip-path="url(#p3a4e959226)">
     <use xlink:href="#C0_0_cf8cdd22ed" x="94.725" y="107.46" style="fill: none; stroke: #ff0000; stroke-width: 1.75"/>
    </g>
    <g clip-path="url(#p3a4e959226)">
     <use xlink:href="#C0_0_cf8cdd22ed" x="59.85" y="119.229285" style="fill: none; stroke: #ff0000; stroke-width: 1.75"/>
    </g>
   </g>
   <g id="PathCollection_3">
    <path d="M 110.345889 97.431097 
C 110.478491 97.431097 110.605679 97.378414 110.699443 97.28465 
C 110.793206 97.190887 110.845889 97.063698 110.845889 96.931097 
C 110.845889 96.798495 110.793206 96.671307 110.699443 96.577543 
C 110.605679 96.48378 110.478491 96.431097 110.345889 96.431097 
C 110.213288 96.431097 110.086099 96.48378 109.992336 96.577543 
C 109.898573 96.671307 109.845889 96.798495 109.845889 96.931097 
C 109.845889 97.063698 109.898573 97.190887 109.992336 97.28465 
C 110.086099 97.378414 110.213288 97.431097 110.345889 97.431097 
z
" clip-path="url(#p3a4e959226)" style="stroke: #000000"/>
    <path d="M 114.802546 145.214381 
C 114.935147 145.214381 115.062336 145.161698 115.156099 145.067934 
C 115.249863 144.974171 115.302546 144.846983 115.302546 144.714381 
C 115.302546 144.58178 115.249863 144.454591 115.156099 144.360828 
C 115.062336 144.267064 114.935147 144.214381 114.802546 144.214381 
C 114.669944 144.214381 114.542756 144.267064 114.448992 144.360828 
C 114.355229 144.454591 114.302546 144.58178 114.302546 144.714381 
C 114.302546 144.846983 114.355229 144.974171 114.448992 145.067934 
C 114.542756 145.161698 114.669944 145.214381 114.802546 145.214381 
z
" clip-path="url(#p3a4e959226)" style="stroke: #000000"/>
    <path d="M 97.571851 100.850562 
C 97.729542 100.850562 97.880795 100.787911 97.9923 100.676407 
C 98.103804 100.564902 98.166455 100.413649 98.166455 100.255958 
C 98.166455 100.098268 98.103804 99.947014 97.9923 99.83551 
C 97.880795 99.724006 97.729542 99.661355 97.571851 99.661355 
C 97.414161 99.661355 97.262907 99.724006 97.151403 99.83551 
C 97.039899 99.947014 96.977248 100.098268 96.977248 100.255958 
C 96.977248 100.413649 97.039899 100.564902 97.151403 100.676407 
C 97.262907 100.787911 97.414161 100.850562 97.571851 100.850562 
z
" clip-path="url(#p3a4e959226)" style="stroke: #000000"/>
    <path d="M 97.161736 111.896593 
C 97.754377 111.896593 98.322825 111.661134 98.741885 111.242073 
C 99.160946 110.823013 99.396405 110.254565 99.396405 109.661923 
C 99.396405 109.069282 99.160946 108.500834 98.741885 108.081774 
C 98.322825 107.662713 97.754377 107.427254 97.161736 107.427254 
C 96.569094 107.427254 96.000647 107.662713 95.581586 108.081774 
C 95.162525 108.500834 94.927067 109.069282 94.927067 109.661923 
C 94.927067 110.254565 95.162525 110.823013 95.581586 111.242073 
C 96.000647 111.661134 96.569094 111.896593 97.161736 111.896593 
z
" clip-path="url(#p3a4e959226)" style="stroke: #000000"/>
    <path d="M 94.105186 110.034577 
C 94.566905 110.034577 95.009776 109.851134 95.33626 109.52465 
C 95.662745 109.198165 95.846188 108.755294 95.846188 108.293575 
C 95.846188 107.831856 95.662745 107.388985 95.33626 107.062501 
C 95.009776 106.736016 94.566905 106.552573 94.105186 106.552573 
C 93.643467 106.552573 93.200596 106.736016 92.874111 107.062501 
C 92.547627 107.388985 92.364184 107.831856 92.364184 108.293575 
C 92.364184 108.755294 92.547627 109.198165 92.874111 109.52465 
C 93.200596 109.851134 93.643467 110.034577 94.105186 110.034577 
z
" clip-path="url(#p3a4e959226)" style="stroke: #000000"/>
    <path d="M 90.081174 98.960064 
C 90.579836 98.960064 91.058141 98.761943 91.410748 98.409336 
C 91.763355 98.056729 91.961476 97.578424 91.961476 97.079762 
C 91.961476 96.5811 91.763355 96.102795 91.410748 95.750188 
C 91.058141 95.397581 90.579836 95.199461 90.081174 95.199461 
C 89.582513 95.199461 89.104207 95.397581 88.7516 95.750188 
C 88.398993 96.102795 88.200873 96.5811 88.200873 97.079762 
C 88.200873 97.578424 88.398993 98.056729 88.7516 98.409336 
C 89.104207 98.761943 89.582513 98.960064 90.081174 98.960064 
z
" clip-path="url(#p3a4e959226)" style="stroke: #000000"/>
    <path d="M 85.660089 86.557419 
C 85.911876 86.557419 86.153385 86.457383 86.331426 86.279342 
C 86.509467 86.101301 86.609503 85.859792 86.609503 85.608005 
C 86.609503 85.356217 86.509467 85.114708 86.331426 84.936667 
C 86.153385 84.758627 85.911876 84.65859 85.660089 84.65859 
C 85.408301 84.65859 85.166792 84.758627 84.988751 84.936667 
C 84.81071 85.114708 84.710674 85.356217 84.710674 85.608005 
C 84.710674 85.859792 84.81071 86.101301 84.988751 86.279342 
C 85.166792 86.457383 85.408301 86.557419 85.660089 86.557419 
z
" clip-path="url(#p3a4e959226)" style="stroke: #000000"/>
    <path d="M 67.939457 29.346819 
C 68.072058 29.346819 68.199247 29.294136 68.29301 29.200373 
C 68.386774 29.106609 68.439457 28.979421 68.439457 28.846819 
C 68.439457 28.714218 68.386774 28.587029 68.29301 28.493266 
C 68.199247 28.399502 68.072058 28.346819 67.939457 28.346819 
C 67.806855 28.346819 67.679667 28.399502 67.585904 28.493266 
C 67.49214 28.587029 67.439457 28.714218 67.439457 28.846819 
C 67.439457 28.979421 67.49214 29.106609 67.585904 29.200373 
C 67.679667 29.294136 67.806855 29.346819 67.939457 29.346819 
z
" clip-path="url(#p3a4e959226)" style="stroke: #000000"/>
    <path d="M 92.390253 120.165459 
C 92.719479 120.165459 93.035266 120.034656 93.268064 119.801858 
C 93.500862 119.56906 93.631665 119.253274 93.631665 118.924047 
C 93.631665 118.594821 93.500862 118.279035 93.268064 118.046237 
C 93.035266 117.813438 92.719479 117.682635 92.390253 117.682635 
C 92.061027 117.682635 91.74524 117.813438 91.512442 118.046237 
C 91.279644 118.279035 91.148841 118.594821 91.148841 118.924047 
C 91.148841 119.253274 91.279644 119.56906 91.512442 119.801858 
C 91.74524 120.034656 92.061027 120.165459 92.390253 120.165459 
z
" clip-path="url(#p3a4e959226)" style="stroke: #000000"/>
    <path d="M 93.592643 114.490228 
C 93.974817 114.490228 94.341389 114.338389 94.611627 114.068151 
C 94.881865 113.797914 95.033704 113.431341 95.033704 113.049168 
C 95.033704 112.666994 94.881865 112.300421 94.611627 112.030184 
C 94.341389 111.759946 93.974817 111.608107 93.592643 111.608107 
C 93.210469 111.608107 92.843897 111.759946 92.573659 112.030184 
C 92.303422 112.300421 92.151582 112.666994 92.151582 113.049168 
C 92.151582 113.431341 92.303422 113.797914 92.573659 114.068151 
C 92.843897 114.338389 93.210469 114.490228 93.592643 114.490228 
z
" clip-path="url(#p3a4e959226)" style="stroke: #000000"/>
    <path d="M 88.559372 102.430439 
C 88.691974 102.430439 88.819162 102.377756 88.912925 102.283993 
C 89.006689 102.190229 89.059372 102.063041 89.059372 101.930439 
C 89.059372 101.797838 89.006689 101.670649 88.912925 101.576886 
C 88.819162 101.483123 88.691974 101.430439 88.559372 101.430439 
C 88.426771 101.430439 88.299582 101.483123 88.205819 101.576886 
C 88.112055 101.670649 88.059372 101.797838 88.059372 101.930439 
C 88.059372 102.063041 88.112055 102.190229 88.205819 102.283993 
C 88.299582 102.377756 88.426771 102.430439 88.559372 102.430439 
z
" clip-path="url(#p3a4e959226)" style="stroke: #000000"/>
    <path d="M 83.9099 88.825234 
C 84.388001 88.825234 84.846586 88.635282 85.184655 88.297214 
C 85.522724 87.959145 85.712675 87.50056 85.712675 87.022459 
C 85.712675 86.544357 85.522724 86.085773 85.184655 85.747704 
C 84.846586 85.409635 84.388001 85.219683 83.9099 85.219683 
C 83.431798 85.219683 82.973214 85.409635 82.635145 85.747704 
C 82.297076 86.085773 82.107124 86.544357 82.107124 87.022459 
C 82.107124 87.50056 82.297076 87.959145 82.635145 88.297214 
C 82.973214 88.635282 83.431798 88.825234 83.9099 88.825234 
z
" clip-path="url(#p3a4e959226)" style="stroke: #000000"/>
    <path d="M 80.249141 84.699072 
C 80.603499 84.699072 80.94339 84.558284 81.193958 84.307716 
C 81.444526 84.057147 81.585314 83.717256 81.585314 83.362899 
C 81.585314 83.008542 81.444526 82.668651 81.193958 82.418082 
C 80.94339 82.167514 80.603499 82.026726 80.249141 82.026726 
C 79.894784 82.026726 79.554893 82.167514 79.304325 82.418082 
C 79.053756 82.668651 78.912969 83.008542 78.912969 83.362899 
C 78.912969 83.717256 79.053756 84.057147 79.304325 84.307716 
C 79.554893 84.558284 79.894784 84.699072 80.249141 84.699072 
z
" clip-path="url(#p3a4e959226)" style="stroke: #000000"/>
    <path d="M 79.124059 77.856495 
C 79.25666 77.856495 79.383849 77.803811 79.477612 77.710048 
C 79.571376 77.616285 79.624059 77.489096 79.624059 77.356495 
C 79.624059 77.223893 79.571376 77.096705 79.477612 77.002941 
C 79.383849 76.909178 79.25666 76.856495 79.124059 76.856495 
C 78.991457 76.856495 78.864269 76.909178 78.770505 77.002941 
C 78.676742 77.096705 78.624059 77.223893 78.624059 77.356495 
C 78.624059 77.489096 78.676742 77.616285 78.770505 77.710048 
C 78.864269 77.803811 78.991457 77.856495 79.124059 77.856495 
z
" clip-path="url(#p3a4e959226)" style="stroke: #000000"/>
    <path d="M 88.539853 120.211859 
C 88.786652 120.211859 89.023376 120.113805 89.19789 119.939291 
C 89.372403 119.764778 89.470458 119.528053 89.470458 119.281254 
C 89.470458 119.034455 89.372403 118.797731 89.19789 118.623217 
C 89.023376 118.448704 88.786652 118.350649 88.539853 118.350649 
C 88.293053 118.350649 88.056329 118.448704 87.881816 118.623217 
C 87.707302 118.797731 87.609248 119.034455 87.609248 119.281254 
C 87.609248 119.528053 87.707302 119.764778 87.881816 119.939291 
C 88.056329 120.113805 88.293053 120.211859 88.539853 120.211859 
z
" clip-path="url(#p3a4e959226)" style="stroke: #000000"/>
    <path d="M 88.272579 117.083387 
C 88.730321 117.083387 89.169377 116.901524 89.493049 116.577852 
C 89.816722 116.254179 89.998585 115.815123 89.998585 115.357382 
C 89.998585 114.89964 89.816722 114.460584 89.493049 114.136912 
C 89.169377 113.813239 88.730321 113.631376 88.272579 113.631376 
C 87.814838 113.631376 87.375782 113.813239 87.05211 114.136912 
C 86.728437 114.460584 86.546574 114.89964 86.546574 115.357382 
C 86.546574 115.815123 86.728437 116.254179 87.05211 116.577852 
C 87.375782 116.901524 87.814838 117.083387 88.272579 117.083387 
z
" clip-path="url(#p3a4e959226)" style="stroke: #000000"/>
    <path d="M 83.880597 107.961625 
C 84.470245 107.961625 85.035822 107.727355 85.452766 107.310411 
C 85.86971 106.893467 86.10398 106.32789 86.10398 105.738242 
C 86.10398 105.148594 85.86971 104.583017 85.452766 104.166073 
C 85.035822 103.749129 84.470245 103.514859 83.880597 103.514859 
C 83.290949 103.514859 82.725372 103.749129 82.308428 104.166073 
C 81.891484 104.583017 81.657215 105.148594 81.657215 105.738242 
C 81.657215 106.32789 81.891484 106.893467 82.308428 107.310411 
C 82.725372 107.727355 83.290949 107.961625 83.880597 107.961625 
z
" clip-path="url(#p3a4e959226)" style="stroke: #000000"/>
    <path d="M 79.383954 92.202942 
C 79.582239 92.202942 79.77243 92.124163 79.91264 91.983954 
C 80.052849 91.843745 80.131628 91.653554 80.131628 91.455268 
C 80.131628 91.256982 80.052849 91.066791 79.91264 90.926582 
C 79.77243 90.786373 79.582239 90.707594 79.383954 90.707594 
C 79.185668 90.707594 78.995477 90.786373 78.855268 90.926582 
C 78.715059 91.066791 78.63628 91.256982 78.63628 91.455268 
C 78.63628 91.653554 78.715059 91.843745 78.855268 91.983954 
C 78.995477 92.124163 79.185668 92.202942 79.383954 92.202942 
z
" clip-path="url(#p3a4e959226)" style="stroke: #000000"/>
    <path d="M 76.074791 78.903018 
C 76.249305 78.903018 76.416694 78.833683 76.540094 78.710284 
C 76.663494 78.586884 76.732828 78.419495 76.732828 78.244981 
C 76.732828 78.070468 76.663494 77.903078 76.540094 77.779679 
C 76.416694 77.656279 76.249305 77.586944 76.074791 77.586944 
C 75.900278 77.586944 75.732889 77.656279 75.609489 77.779679 
C 75.486089 77.903078 75.416754 78.070468 75.416754 78.244981 
C 75.416754 78.419495 75.486089 78.586884 75.609489 78.710284 
C 75.732889 78.833683 75.900278 78.903018 76.074791 78.903018 
z
" clip-path="url(#p3a4e959226)" style="stroke: #000000"/>
    <path d="M 85.970947 120.00084 
C 86.415211 120.00084 86.841339 119.824332 87.155481 119.51019 
C 87.469623 119.196047 87.646131 118.769919 87.646131 118.325655 
C 87.646131 117.881391 87.469623 117.455263 87.155481 117.141121 
C 86.841339 116.826979 86.415211 116.650471 85.970947 116.650471 
C 85.526683 116.650471 85.100555 116.826979 84.786413 117.141121 
C 84.47227 117.455263 84.295762 117.881391 84.295762 118.325655 
C 84.295762 118.769919 84.47227 119.196047 84.786413 119.51019 
C 85.100555 119.824332 85.526683 120.00084 85.970947 120.00084 
z
" clip-path="url(#p3a4e959226)" style="stroke: #000000"/>
    <path d="M 83.676369 115.97107 
C 83.863896 115.97107 84.043768 115.896565 84.176369 115.763963 
C 84.308971 115.631361 84.383476 115.45149 84.383476 115.263963 
C 84.383476 115.076436 84.308971 114.896565 84.176369 114.763963 
C 84.043768 114.631361 83.863896 114.556856 83.676369 114.556856 
C 83.488842 114.556856 83.308971 114.631361 83.176369 114.763963 
C 83.043768 114.896565 82.969263 115.076436 82.969263 115.263963 
C 82.969263 115.45149 83.043768 115.631361 83.176369 115.763963 
C 83.308971 115.896565 83.488842 115.97107 83.676369 115.97107 
z
" clip-path="url(#p3a4e959226)" style="stroke: #000000"/>
    <path d="M 80.210445 109.178543 
C 80.700798 109.178543 81.171134 108.983724 81.517866 108.636992 
C 81.864598 108.29026 82.059417 107.819924 82.059417 107.329571 
C 82.059417 106.839218 81.864598 106.368882 81.517866 106.02215 
C 81.171134 105.675418 80.700798 105.480599 80.210445 105.480599 
C 79.720092 105.480599 79.249756 105.675418 78.903024 106.02215 
C 78.556292 106.368882 78.361472 106.839218 78.361472 107.329571 
C 78.361472 107.819924 78.556292 108.29026 78.903024 108.636992 
C 79.249756 108.983724 79.720092 109.178543 80.210445 109.178543 
z
" clip-path="url(#p3a4e959226)" style="stroke: #000000"/>
    <path d="M 75.139463 95.932514 
C 75.727976 95.932514 76.292465 95.698695 76.708607 95.282553 
C 77.124749 94.866411 77.358568 94.301923 77.358568 93.713409 
C 77.358568 93.124895 77.124749 92.560406 76.708607 92.144264 
C 76.292465 91.728122 75.727976 91.494303 75.139463 91.494303 
C 74.550949 91.494303 73.98646 91.728122 73.570318 92.144264 
C 73.154176 92.560406 72.920357 93.124895 72.920357 93.713409 
C 72.920357 94.301923 73.154176 94.866411 73.570318 95.282553 
C 73.98646 95.698695 74.550949 95.932514 75.139463 95.932514 
z
" clip-path="url(#p3a4e959226)" style="stroke: #000000"/>
    <path d="M 72.723927 87.39138 
C 73.147381 87.39138 73.55355 87.22314 73.852977 86.923712 
C 74.152405 86.624284 74.320645 86.218116 74.320645 85.794662 
C 74.320645 85.371207 74.152405 84.965039 73.852977 84.665611 
C 73.55355 84.366183 73.147381 84.197943 72.723927 84.197943 
C 72.300472 84.197943 71.894304 84.366183 71.594876 84.665611 
C 71.295449 84.965039 71.127208 85.371207 71.127208 85.794662 
C 71.127208 86.218116 71.295449 86.624284 71.594876 86.923712 
C 71.894304 87.22314 72.300472 87.39138 72.723927 87.39138 
z
" clip-path="url(#p3a4e959226)" style="stroke: #000000"/>
    <path d="M 84.045461 135.319735 
C 84.450436 135.319735 84.838879 135.158836 85.12524 134.872475 
C 85.411601 134.586115 85.572499 134.197672 85.572499 133.792697 
C 85.572499 133.387721 85.411601 132.999278 85.12524 132.712918 
C 84.838879 132.426557 84.450436 132.265659 84.045461 132.265659 
C 83.640486 132.265659 83.252043 132.426557 82.965682 132.712918 
C 82.679322 132.999278 82.518423 133.387721 82.518423 133.792697 
C 82.518423 134.197672 82.679322 134.586115 82.965682 134.872475 
C 83.252043 135.158836 83.640486 135.319735 84.045461 135.319735 
z
" clip-path="url(#p3a4e959226)" style="stroke: #000000"/>
    <path d="M 83.563194 132.369138 
C 84.061856 132.369138 84.540161 132.171017 84.892768 131.81841 
C 85.245376 131.465803 85.443496 130.987498 85.443496 130.488836 
C 85.443496 129.990174 85.245376 129.511869 84.892768 129.159262 
C 84.540161 128.806655 84.061856 128.608534 83.563194 128.608534 
C 83.064533 128.608534 82.586228 128.806655 82.23362 129.159262 
C 81.881013 129.511869 81.682893 129.990174 81.682893 130.488836 
C 81.682893 130.987498 81.881013 131.465803 82.23362 131.81841 
C 82.586228 132.171017 83.064533 132.369138 83.563194 132.369138 
z
" clip-path="url(#p3a4e959226)" style="stroke: #000000"/>
    <path d="M 79.517801 123.941166 
C 79.650402 123.941166 79.777591 123.888483 79.871354 123.794719 
C 79.965118 123.700956 80.017801 123.573767 80.017801 123.441166 
C 80.017801 123.308564 79.965118 123.181376 79.871354 123.087613 
C 79.777591 122.993849 79.650402 122.941166 79.517801 122.941166 
C 79.385199 122.941166 79.258011 122.993849 79.164247 123.087613 
C 79.070484 123.181376 79.017801 123.308564 79.017801 123.441166 
C 79.017801 123.573767 79.070484 123.700956 79.164247 123.794719 
C 79.258011 123.888483 79.385199 123.941166 79.517801 123.941166 
z
" clip-path="url(#p3a4e959226)" style="stroke: #000000"/>
    <path d="M 75.045653 108.548744 
C 75.253185 108.548744 75.452246 108.466291 75.598994 108.319543 
C 75.745741 108.172795 75.828195 107.973735 75.828195 107.766202 
C 75.828195 107.558669 75.745741 107.359609 75.598994 107.212861 
C 75.452246 107.066113 75.253185 106.98366 75.045653 106.98366 
C 74.83812 106.98366 74.639059 107.066113 74.492312 107.212861 
C 74.345564 107.359609 74.26311 107.558669 74.26311 107.766202 
C 74.26311 107.973735 74.345564 108.172795 74.492312 108.319543 
C 74.639059 108.466291 74.83812 108.548744 75.045653 108.548744 
z
" clip-path="url(#p3a4e959226)" style="stroke: #000000"/>
    <path d="M 74.634413 99.299466 
C 74.881212 99.299466 75.117936 99.201411 75.29245 99.026898 
C 75.466963 98.852385 75.565018 98.61566 75.565018 98.368861 
C 75.565018 98.122062 75.466963 97.885337 75.29245 97.710824 
C 75.117936 97.536311 74.881212 97.438256 74.634413 97.438256 
C 74.387613 97.438256 74.150889 97.536311 73.976376 97.710824 
C 73.801862 97.885337 73.703808 98.122062 73.703808 98.368861 
C 73.703808 98.61566 73.801862 98.852385 73.976376 99.026898 
C 74.150889 99.201411 74.387613 99.299466 74.634413 99.299466 
z
" clip-path="url(#p3a4e959226)" style="stroke: #000000"/>
    <path d="M 72.099254 95.311374 
C 72.604035 95.311374 73.08821 95.110822 73.445145 94.753888 
C 73.802079 94.396953 74.002631 93.912778 74.002631 93.407997 
C 74.002631 92.903215 73.802079 92.41904 73.445145 92.062106 
C 73.08821 91.705172 72.604035 91.50462 72.099254 91.50462 
C 71.594472 91.50462 71.110297 91.705172 70.753363 92.062106 
C 70.396428 92.41904 70.195877 92.903215 70.195877 93.407997 
C 70.195877 93.912778 70.396428 94.396953 70.753363 94.753888 
C 71.110297 95.110822 71.594472 95.311374 72.099254 95.311374 
z
" clip-path="url(#p3a4e959226)" style="stroke: #000000"/>
    <path d="M 67.590059 89.354312 
C 68.159878 89.354312 68.706436 89.127921 69.109359 88.724998 
C 69.512282 88.322075 69.738674 87.775517 69.738674 87.205697 
C 69.738674 86.635878 69.512282 86.08932 69.109359 85.686397 
C 68.706436 85.283474 68.159878 85.057082 67.590059 85.057082 
C 67.020239 85.057082 66.473681 85.283474 66.070758 85.686397 
C 65.667835 86.08932 65.441444 86.635878 65.441444 87.205697 
C 65.441444 87.775517 65.667835 88.322075 66.070758 88.724998 
C 66.473681 89.127921 67.020239 89.354312 67.590059 89.354312 
z
" clip-path="url(#p3a4e959226)" style="stroke: #000000"/>
    <path d="M 65.948755 86.726248 
C 66.426147 86.726248 66.884052 86.536578 67.22162 86.19901 
C 67.559187 85.861443 67.748857 85.403538 67.748857 84.926146 
C 67.748857 84.448753 67.559187 83.990848 67.22162 83.653281 
C 66.884052 83.315713 66.426147 83.126043 65.948755 83.126043 
C 65.471362 83.126043 65.013457 83.315713 64.67589 83.653281 
C 64.338322 83.990848 64.148652 84.448753 64.148652 84.926146 
C 64.148652 85.403538 64.338322 85.861443 64.67589 86.19901 
C 65.013457 86.536578 65.471362 86.726248 65.948755 86.726248 
z
" clip-path="url(#p3a4e959226)" style="stroke: #000000"/>
    <path d="M 63.066737 73.149625 
C 63.199338 73.149625 63.326527 73.096942 63.42029 73.003179 
C 63.514054 72.909415 63.566737 72.782227 63.566737 72.649625 
C 63.566737 72.517024 63.514054 72.389835 63.42029 72.296072 
C 63.326527 72.202309 63.199338 72.149625 63.066737 72.149625 
C 62.934135 72.149625 62.806947 72.202309 62.713183 72.296072 
C 62.61942 72.389835 62.566737 72.517024 62.566737 72.649625 
C 62.566737 72.782227 62.61942 72.909415 62.713183 73.003179 
C 62.806947 73.096942 62.934135 73.149625 63.066737 73.149625 
z
" clip-path="url(#p3a4e959226)" style="stroke: #000000"/>
    <path d="M 80.700023 136.401909 
C 81.012911 136.401909 81.313026 136.277597 81.534272 136.056352 
C 81.755517 135.835107 81.879829 135.534991 81.879829 135.222103 
C 81.879829 134.909215 81.755517 134.6091 81.534272 134.387855 
C 81.313026 134.16661 81.012911 134.042298 80.700023 134.042298 
C 80.387135 134.042298 80.08702 134.16661 79.865775 134.387855 
C 79.644529 134.6091 79.520218 134.909215 79.520218 135.222103 
C 79.520218 135.534991 79.644529 135.835107 79.865775 136.056352 
C 80.08702 136.277597 80.387135 136.401909 80.700023 136.401909 
z
" clip-path="url(#p3a4e959226)" style="stroke: #000000"/>
    <path d="M 80.414054 132.360221 
C 80.994438 132.360221 81.551129 132.129633 81.961522 131.719239 
C 82.371915 131.308846 82.602504 130.752156 82.602504 130.171772 
C 82.602504 129.591388 82.371915 129.034698 81.961522 128.624305 
C 81.551129 128.213911 80.994438 127.983323 80.414054 127.983323 
C 79.833671 127.983323 79.27698 128.213911 78.866587 128.624305 
C 78.456194 129.034698 78.225605 129.591388 78.225605 130.171772 
C 78.225605 130.752156 78.456194 131.308846 78.866587 131.719239 
C 79.27698 132.129633 79.833671 132.360221 80.414054 132.360221 
z
" clip-path="url(#p3a4e959226)" style="stroke: #000000"/>
    <path d="M 76.501318 125.17939 
C 76.688845 125.17939 76.868716 125.104885 77.001318 124.972284 
C 77.133919 124.839682 77.208425 124.659811 77.208425 124.472284 
C 77.208425 124.284757 77.133919 124.104885 77.001318 123.972284 
C 76.868716 123.839682 76.688845 123.765177 76.501318 123.765177 
C 76.313791 123.765177 76.133919 123.839682 76.001318 123.972284 
C 75.868716 124.104885 75.794211 124.284757 75.794211 124.472284 
C 75.794211 124.659811 75.868716 124.839682 76.001318 124.972284 
C 76.133919 125.104885 76.313791 125.17939 76.501318 125.17939 
z
" clip-path="url(#p3a4e959226)" style="stroke: #000000"/>
    <path d="M 74.377908 119.059489 
C 74.619397 119.059489 74.851027 118.963545 75.021786 118.792786 
C 75.192544 118.622028 75.288488 118.390398 75.288488 118.148909 
C 75.288488 117.90742 75.192544 117.67579 75.021786 117.505032 
C 74.851027 117.334273 74.619397 117.238329 74.377908 117.238329 
C 74.13642 117.238329 73.904789 117.334273 73.734031 117.505032 
C 73.563273 117.67579 73.467328 117.90742 73.467328 118.148909 
C 73.467328 118.390398 73.563273 118.622028 73.734031 118.792786 
C 73.904789 118.963545 74.13642 119.059489 74.377908 119.059489 
z
" clip-path="url(#p3a4e959226)" style="stroke: #000000"/>
    <path d="M 72.392261 115.620306 
C 72.682651 115.620306 72.961185 115.504933 73.166522 115.299597 
C 73.371858 115.094261 73.487231 114.815726 73.487231 114.525337 
C 73.487231 114.234947 73.371858 113.956413 73.166522 113.751076 
C 72.961185 113.54574 72.682651 113.430367 72.392261 113.430367 
C 72.101872 113.430367 71.823337 113.54574 71.618001 113.751076 
C 71.412665 113.956413 71.297292 114.234947 71.297292 114.525337 
C 71.297292 114.815726 71.412665 115.094261 71.618001 115.299597 
C 71.823337 115.504933 72.101872 115.620306 72.392261 115.620306 
z
" clip-path="url(#p3a4e959226)" style="stroke: #000000"/>
    <path d="M 71.451986 110.905398 
C 71.609676 110.905398 71.76093 110.842747 71.872434 110.731243 
C 71.983938 110.619739 72.046589 110.468486 72.046589 110.310795 
C 72.046589 110.153104 71.983938 110.001851 71.872434 109.890347 
C 71.76093 109.778843 71.609676 109.716191 71.451986 109.716191 
C 71.294295 109.716191 71.143042 109.778843 71.031537 109.890347 
C 70.920033 110.001851 70.857382 110.153104 70.857382 110.310795 
C 70.857382 110.468486 70.920033 110.619739 71.031537 110.731243 
C 71.143042 110.842747 71.294295 110.905398 71.451986 110.905398 
z
" clip-path="url(#p3a4e959226)" style="stroke: #000000"/>
    <path d="M 68.575789 106.90994 
C 69.047395 106.90994 69.499748 106.722569 69.833223 106.389094 
C 70.166698 106.055619 70.354069 105.603266 70.354069 105.131661 
C 70.354069 104.660055 70.166698 104.207702 69.833223 103.874227 
C 69.499748 103.540752 69.047395 103.353381 68.575789 103.353381 
C 68.104184 103.353381 67.651831 103.540752 67.318356 103.874227 
C 66.984881 104.207702 66.79751 104.660055 66.79751 105.131661 
C 66.79751 105.603266 66.984881 106.055619 67.318356 106.389094 
C 67.651831 106.722569 68.104184 106.90994 68.575789 106.90994 
z
" clip-path="url(#p3a4e959226)" style="stroke: #000000"/>
    <path d="M 63.99081 93.444856 
C 64.178337 93.444856 64.358209 93.370351 64.49081 93.237749 
C 64.623412 93.105148 64.697917 92.925276 64.697917 92.737749 
C 64.697917 92.550222 64.623412 92.370351 64.49081 92.237749 
C 64.358209 92.105148 64.178337 92.030643 63.99081 92.030643 
C 63.803283 92.030643 63.623412 92.105148 63.49081 92.237749 
C 63.358209 92.370351 63.283703 92.550222 63.283703 92.737749 
C 63.283703 92.925276 63.358209 93.105148 63.49081 93.237749 
C 63.623412 93.370351 63.803283 93.444856 63.99081 93.444856 
z
" clip-path="url(#p3a4e959226)" style="stroke: #000000"/>
    <path d="M 74.031601 130.401853 
C 74.206114 130.401853 74.373504 130.332518 74.496903 130.209119 
C 74.620303 130.085719 74.689638 129.91833 74.689638 129.743816 
C 74.689638 129.569303 74.620303 129.401914 74.496903 129.278514 
C 74.373504 129.155114 74.206114 129.085779 74.031601 129.085779 
C 73.857088 129.085779 73.689698 129.155114 73.566299 129.278514 
C 73.442899 129.401914 73.373564 129.569303 73.373564 129.743816 
C 73.373564 129.91833 73.442899 130.085719 73.566299 130.209119 
C 73.689698 130.332518 73.857088 130.401853 74.031601 130.401853 
z
" clip-path="url(#p3a4e959226)" style="stroke: #000000"/>
    <path d="M 71.476046 125.125299 
C 71.699054 125.125299 71.912959 125.036697 72.070649 124.879006 
C 72.22834 124.721315 72.316942 124.507411 72.316942 124.284402 
C 72.316942 124.061394 72.22834 123.84749 72.070649 123.689799 
C 71.912959 123.532108 71.699054 123.443506 71.476046 123.443506 
C 71.253037 123.443506 71.039133 123.532108 70.881442 123.689799 
C 70.723751 123.84749 70.635149 124.061394 70.635149 124.284402 
C 70.635149 124.507411 70.723751 124.721315 70.881442 124.879006 
C 71.039133 125.036697 71.253037 125.125299 71.476046 125.125299 
z
" clip-path="url(#p3a4e959226)" style="stroke: #000000"/>
    <path d="M 69.341389 120.822796 
C 69.705737 120.822796 70.055212 120.678039 70.312846 120.420405 
C 70.570479 120.162772 70.715237 119.813297 70.715237 119.448948 
C 70.715237 119.084599 70.570479 118.735124 70.312846 118.477491 
C 70.055212 118.219857 69.705737 118.0751 69.341389 118.0751 
C 68.97704 118.0751 68.627565 118.219857 68.369931 118.477491 
C 68.112298 118.735124 67.96754 119.084599 67.96754 119.448948 
C 67.96754 119.813297 68.112298 120.162772 68.369931 120.420405 
C 68.627565 120.678039 68.97704 120.822796 69.341389 120.822796 
z
" clip-path="url(#p3a4e959226)" style="stroke: #000000"/>
    <path d="M 66.401929 112.543867 
C 66.900591 112.543867 67.378896 112.345747 67.731503 111.99314 
C 68.08411 111.640533 68.282231 111.162227 68.282231 110.663566 
C 68.282231 110.164904 68.08411 109.686599 67.731503 109.333992 
C 67.378896 108.981385 66.900591 108.783264 66.401929 108.783264 
C 65.903267 108.783264 65.424962 108.981385 65.072355 109.333992 
C 64.719748 109.686599 64.521627 110.164904 64.521627 110.663566 
C 64.521627 111.162227 64.719748 111.640533 65.072355 111.99314 
C 65.424962 112.345747 65.903267 112.543867 66.401929 112.543867 
z
" clip-path="url(#p3a4e959226)" style="stroke: #000000"/>
    <path d="M 64.90069 109.204862 
C 65.366286 109.204862 65.812875 109.019879 66.142101 108.690653 
C 66.471328 108.361426 66.656311 107.914837 66.656311 107.449241 
C 66.656311 106.983645 66.471328 106.537055 66.142101 106.207829 
C 65.812875 105.878603 65.366286 105.693619 64.90069 105.693619 
C 64.435093 105.693619 63.988504 105.878603 63.659278 106.207829 
C 63.330051 106.537055 63.145068 106.983645 63.145068 107.449241 
C 63.145068 107.914837 63.330051 108.361426 63.659278 108.690653 
C 63.988504 109.019879 64.435093 109.204862 64.90069 109.204862 
z
" clip-path="url(#p3a4e959226)" style="stroke: #000000"/>
    <path d="M 63.333423 102.893424 
C 63.466025 102.893424 63.593213 102.84074 63.686977 102.746977 
C 63.78074 102.653214 63.833423 102.526025 63.833423 102.393424 
C 63.833423 102.260822 63.78074 102.133634 63.686977 102.03987 
C 63.593213 101.946107 63.466025 101.893424 63.333423 101.893424 
C 63.200822 101.893424 63.073633 101.946107 62.97987 102.03987 
C 62.886106 102.133634 62.833423 102.260822 62.833423 102.393424 
C 62.833423 102.526025 62.886106 102.653214 62.97987 102.746977 
C 63.073633 102.84074 63.200822 102.893424 63.333423 102.893424 
z
" clip-path="url(#p3a4e959226)" style="stroke: #000000"/>
    <path d="M 62.330576 99.896407 
C 62.560249 99.896407 62.780546 99.805157 62.942949 99.642754 
C 63.105352 99.480351 63.196602 99.260054 63.196602 99.030381 
C 63.196602 98.800709 63.105352 98.580412 62.942949 98.418009 
C 62.780546 98.255606 62.560249 98.164356 62.330576 98.164356 
C 62.100904 98.164356 61.880607 98.255606 61.718204 98.418009 
C 61.555801 98.580412 61.464551 98.800709 61.464551 99.030381 
C 61.464551 99.260054 61.555801 99.480351 61.718204 99.642754 
C 61.880607 99.805157 62.100904 99.896407 62.330576 99.896407 
z
" clip-path="url(#p3a4e959226)" style="stroke: #000000"/>
    <path d="M 67.749584 132.540129 
C 68.142384 132.540129 68.519149 132.384068 68.7969 132.106316 
C 69.074652 131.828565 69.230713 131.4518 69.230713 131.059 
C 69.230713 130.6662 69.074652 130.289436 68.7969 130.011684 
C 68.519149 129.733933 68.142384 129.577872 67.749584 129.577872 
C 67.356784 129.577872 66.98002 129.733933 66.702268 130.011684 
C 66.424517 130.289436 66.268456 130.6662 66.268456 131.059 
C 66.268456 131.4518 66.424517 131.828565 66.702268 132.106316 
C 66.98002 132.384068 67.356784 132.540129 67.749584 132.540129 
z
" clip-path="url(#p3a4e959226)" style="stroke: #000000"/>
    <path d="M 67.515141 127.183579 
C 67.730827 127.183579 67.937709 127.097886 68.090222 126.945372 
C 68.242736 126.792859 68.328429 126.585977 68.328429 126.370291 
C 68.328429 126.154604 68.242736 125.947722 68.090222 125.795209 
C 67.937709 125.642696 67.730827 125.557002 67.515141 125.557002 
C 67.299454 125.557002 67.092572 125.642696 66.940059 125.795209 
C 66.787546 125.947722 66.701852 126.154604 66.701852 126.370291 
C 66.701852 126.585977 66.787546 126.792859 66.940059 126.945372 
C 67.092572 127.097886 67.299454 127.183579 67.515141 127.183579 
z
" clip-path="url(#p3a4e959226)" style="stroke: #000000"/>
    <path d="M 61.000198 104.356851 
C 61.157889 104.356851 61.309142 104.2942 61.420646 104.182695 
C 61.53215 104.071191 61.594801 103.919938 61.594801 103.762247 
C 61.594801 103.604556 61.53215 103.453303 61.420646 103.341799 
C 61.309142 103.230295 61.157889 103.167644 61.000198 103.167644 
C 60.842507 103.167644 60.691254 103.230295 60.57975 103.341799 
C 60.468245 103.453303 60.405594 103.604556 60.405594 103.762247 
C 60.405594 103.919938 60.468245 104.071191 60.57975 104.182695 
C 60.691254 104.2942 60.842507 104.356851 61.000198 104.356851 
z
" clip-path="url(#p3a4e959226)" style="stroke: #000000"/>
    <path d="M 55.150225 96.952763 
C 55.437405 96.952763 55.712862 96.838665 55.915929 96.635598 
C 56.118996 96.432531 56.233094 96.157075 56.233094 95.869895 
C 56.233094 95.582715 56.118996 95.307258 55.915929 95.104191 
C 55.712862 94.901124 55.437405 94.787026 55.150225 94.787026 
C 54.863045 94.787026 54.587589 94.901124 54.384522 95.104191 
C 54.181455 95.307258 54.067357 95.582715 54.067357 95.869895 
C 54.067357 96.157075 54.181455 96.432531 54.384522 96.635598 
C 54.587589 96.838665 54.863045 96.952763 55.150225 96.952763 
z
" clip-path="url(#p3a4e959226)" style="stroke: #000000"/>
    <path d="M 62.60315 130.757209 
C 63.084056 130.757209 63.54533 130.566143 63.885381 130.226092 
C 64.225433 129.88604 64.416499 129.424766 64.416499 128.94386 
C 64.416499 128.462954 64.225433 128.00168 63.885381 127.661628 
C 63.54533 127.321576 63.084056 127.13051 62.60315 127.13051 
C 62.122244 127.13051 61.66097 127.321576 61.320918 127.661628 
C 60.980866 128.00168 60.7898 128.462954 60.7898 128.94386 
C 60.7898 129.424766 60.980866 129.88604 61.320918 130.226092 
C 61.66097 130.566143 62.122244 130.757209 62.60315 130.757209 
z
" clip-path="url(#p3a4e959226)" style="stroke: #000000"/>
    <path d="M 59.564859 125.115107 
C 60.154506 125.115107 60.720083 124.880838 61.137027 124.463894 
C 61.553971 124.04695 61.788241 123.481373 61.788241 122.891725 
C 61.788241 122.302077 61.553971 121.7365 61.137027 121.319556 
C 60.720083 120.902612 60.154506 120.668342 59.564859 120.668342 
C 58.975211 120.668342 58.409634 120.902612 57.99269 121.319556 
C 57.575746 121.7365 57.341476 122.302077 57.341476 122.891725 
C 57.341476 123.481373 57.575746 124.04695 57.99269 124.463894 
C 58.409634 124.880838 58.975211 125.115107 59.564859 125.115107 
z
" clip-path="url(#p3a4e959226)" style="stroke: #000000"/>
    <path d="M 58.528714 120.818378 
C 59.026124 120.818378 59.503229 120.620754 59.854951 120.269032 
C 60.206674 119.91731 60.404297 119.440205 60.404297 118.942795 
C 60.404297 118.445384 60.206674 117.968279 59.854951 117.616557 
C 59.503229 117.264835 59.026124 117.067212 58.528714 117.067212 
C 58.031303 117.067212 57.554199 117.264835 57.202476 117.616557 
C 56.850754 117.968279 56.653131 118.445384 56.653131 118.942795 
C 56.653131 119.440205 56.850754 119.91731 57.202476 120.269032 
C 57.554199 120.620754 58.031303 120.818378 58.528714 120.818378 
z
" clip-path="url(#p3a4e959226)" style="stroke: #000000"/>
    <path d="M 52.92418 107.845166 
C 53.510022 107.845166 54.071947 107.612409 54.486199 107.198157 
C 54.900451 106.783904 55.133209 106.221979 55.133209 105.636138 
C 55.133209 105.050297 54.900451 104.488371 54.486199 104.074119 
C 54.071947 103.659867 53.510022 103.42711 52.92418 103.42711 
C 52.338339 103.42711 51.776414 103.659867 51.362162 104.074119 
C 50.947909 104.488371 50.715152 105.050297 50.715152 105.636138 
C 50.715152 106.221979 50.947909 106.783904 51.362162 107.198157 
C 51.776414 107.612409 52.338339 107.845166 52.92418 107.845166 
z
" clip-path="url(#p3a4e959226)" style="stroke: #000000"/>
    <path d="M 56.274566 120.369802 
C 56.504239 120.369802 56.724535 120.278552 56.886938 120.116149 
C 57.049342 119.953746 57.140591 119.733449 57.140591 119.503776 
C 57.140591 119.274104 57.049342 119.053807 56.886938 118.891404 
C 56.724535 118.729001 56.504239 118.637751 56.274566 118.637751 
C 56.044893 118.637751 55.824597 118.729001 55.662194 118.891404 
C 55.499791 119.053807 55.408541 119.274104 55.408541 119.503776 
C 55.408541 119.733449 55.499791 119.953746 55.662194 120.116149 
C 55.824597 120.278552 56.044893 120.369802 56.274566 120.369802 
z
" clip-path="url(#p3a4e959226)" style="stroke: #000000"/>
    <path d="M 50.988768 110.340265 
C 51.337795 110.340265 51.672574 110.201595 51.919373 109.954796 
C 52.166172 109.707997 52.304842 109.373218 52.304842 109.024191 
C 52.304842 108.675164 52.166172 108.340385 51.919373 108.093586 
C 51.672574 107.846787 51.337795 107.708117 50.988768 107.708117 
C 50.639741 107.708117 50.304962 107.846787 50.058163 108.093586 
C 49.811364 108.340385 49.672694 108.675164 49.672694 109.024191 
C 49.672694 109.373218 49.811364 109.707997 50.058163 109.954796 
C 50.304962 110.201595 50.639741 110.340265 50.988768 110.340265 
z
" clip-path="url(#p3a4e959226)" style="stroke: #000000"/>
    <path d="M 44.195878 119.608239 
C 44.328479 119.608239 44.455668 119.555556 44.549431 119.461792 
C 44.643195 119.368029 44.695878 119.240841 44.695878 119.108239 
C 44.695878 118.975637 44.643195 118.848449 44.549431 118.754686 
C 44.455668 118.660922 44.328479 118.608239 44.195878 118.608239 
C 44.063276 118.608239 43.936088 118.660922 43.842324 118.754686 
C 43.748561 118.848449 43.695878 118.975637 43.695878 119.108239 
C 43.695878 119.240841 43.748561 119.368029 43.842324 119.461792 
C 43.936088 119.555556 44.063276 119.608239 44.195878 119.608239 
z
" clip-path="url(#p3a4e959226)" style="stroke: #000000"/>
   </g>
   <g id="matplotlib.axis_1">
    <g id="xtick_1">
     <g id="line2d_1">
      <defs>
       <path id="m89cc133d92" d="M 0 0 
L 0 3.5 
" style="stroke: #000000; stroke-width: 0.8"/>
      </defs>
      <g>
       <use xlink:href="#m89cc133d92" x="18" y="189" style="stroke: #000000; stroke-width: 0.8"/>
      </g>
     </g>
     <g id="text_1">
      <!-- −10 -->
      <g transform="translate(7.447656 203.598437)scale(0.1 -0.1)">
       <defs>
        <path id="DejaVuSans-2212" d="M 678 2272 
L 4684 2272 
L 4684 1741 
L 678 1741 
L 678 2272 
z
" transform="scale(0.015625)"/>
        <path id="DejaVuSans-31" d="M 794 531 
L 1825 531 
L 1825 4091 
L 703 3866 
L 703 4441 
L 1819 4666 
L 2450 4666 
L 2450 531 
L 3481 531 
L 3481 0 
L 794 0 
L 794 531 
z
" transform="scale(0.015625)"/>
        <path id="DejaVuSans-30" d="M 2034 4250 
Q 1547 4250 1301 3770 
Q 1056 3291 1056 2328 
Q 1056 1369 1301 889 
Q 1547 409 2034 409 
Q 2525 409 2770 889 
Q 3016 1369 3016 2328 
Q 3016 3291 2770 3770 
Q 2525 4250 2034 4250 
z
M 2034 4750 
Q 2819 4750 3233 4129 
Q 3647 3509 3647 2328 
Q 3647 1150 3233 529 
Q 2819 -91 2034 -91 
Q 1250 -91 836 529 
Q 422 1150 422 2328 
Q 422 3509 836 4129 
Q 1250 4750 2034 4750 
z
" transform="scale(0.015625)"/>
       </defs>
       <use xlink:href="#DejaVuSans-2212"/>
       <use xlink:href="#DejaVuSans-31" x="83.789062"/>
       <use xlink:href="#DejaVuSans-30" x="147.412109"/>
      </g>
     </g>
    </g>
    <g id="xtick_2">
     <g id="line2d_2">
      <g>
       <use xlink:href="#m89cc133d92" x="73.8" y="189" style="stroke: #000000; stroke-width: 0.8"/>
      </g>
     </g>
     <g id="text_2">
      <!-- 0 -->
      <g transform="translate(70.61875 203.598437)scale(0.1 -0.1)">
       <use xlink:href="#DejaVuSans-30"/>
      </g>
     </g>
    </g>
    <g id="xtick_3">
     <g id="line2d_3">
      <g>
       <use xlink:href="#m89cc133d92" x="129.6" y="189" style="stroke: #000000; stroke-width: 0.8"/>
      </g>
     </g>
     <g id="text_3">
      <!-- 10 -->
      <g transform="translate(123.2375 203.598437)scale(0.1 -0.1)">
       <use xlink:href="#DejaVuSans-31"/>
       <use xlink:href="#DejaVuSans-30" x="63.623047"/>
      </g>
     </g>
    </g>
   </g>
   <g id="matplotlib.axis_2">
    <g id="ytick_1">
     <g id="line2d_4">
      <defs>
       <path id="m4abecce485" d="M 0 0 
L -3.5 0 
" style="stroke: #000000; stroke-width: 0.8"/>
      </defs>
      <g>
       <use xlink:href="#m4abecce485" x="18" y="189" style="stroke: #000000; stroke-width: 0.8"/>
      </g>
     </g>
     <g id="text_4">
      <!-- −15 -->
      <g transform="translate(-10.104688 192.799219)scale(0.1 -0.1)">
       <defs>
        <path id="DejaVuSans-35" d="M 691 4666 
L 3169 4666 
L 3169 4134 
L 1269 4134 
L 1269 2991 
Q 1406 3038 1543 3061 
Q 1681 3084 1819 3084 
Q 2600 3084 3056 2656 
Q 3513 2228 3513 1497 
Q 3513 744 3044 326 
Q 2575 -91 1722 -91 
Q 1428 -91 1123 -41 
Q 819 9 494 109 
L 494 744 
Q 775 591 1075 516 
Q 1375 441 1709 441 
Q 2250 441 2565 725 
Q 2881 1009 2881 1497 
Q 2881 1984 2565 2268 
Q 2250 2553 1709 2553 
Q 1456 2553 1204 2497 
Q 953 2441 691 2322 
L 691 4666 
z
" transform="scale(0.015625)"/>
       </defs>
       <use xlink:href="#DejaVuSans-2212"/>
       <use xlink:href="#DejaVuSans-31" x="83.789062"/>
       <use xlink:href="#DejaVuSans-35" x="147.412109"/>
      </g>
     </g>
    </g>
    <g id="ytick_2">
     <g id="line2d_5">
      <g>
       <use xlink:href="#m4abecce485" x="18" y="161.82" style="stroke: #000000; stroke-width: 0.8"/>
      </g>
     </g>
     <g id="text_5">
      <!-- −10 -->
      <g transform="translate(-10.104688 165.619219)scale(0.1 -0.1)">
       <use xlink:href="#DejaVuSans-2212"/>
       <use xlink:href="#DejaVuSans-31" x="83.789062"/>
       <use xlink:href="#DejaVuSans-30" x="147.412109"/>
      </g>
     </g>
    </g>
    <g id="ytick_3">
     <g id="line2d_6">
      <g>
       <use xlink:href="#m4abecce485" x="18" y="134.64" style="stroke: #000000; stroke-width: 0.8"/>
      </g>
     </g>
     <g id="text_6">
      <!-- −5 -->
      <g transform="translate(-3.742188 138.439219)scale(0.1 -0.1)">
       <use xlink:href="#DejaVuSans-2212"/>
       <use xlink:href="#DejaVuSans-35" x="83.789062"/>
      </g>
     </g>
    </g>
    <g id="ytick_4">
     <g id="line2d_7">
      <g>
       <use xlink:href="#m4abecce485" x="18" y="107.46" style="stroke: #000000; stroke-width: 0.8"/>
      </g>
     </g>
     <g id="text_7">
      <!-- 0 -->
      <g transform="translate(4.6375 111.259219)scale(0.1 -0.1)">
       <use xlink:href="#DejaVuSans-30"/>
      </g>
     </g>
    </g>
    <g id="ytick_5">
     <g id="line2d_8">
      <g>
       <use xlink:href="#m4abecce485" x="18" y="80.28" style="stroke: #000000; stroke-width: 0.8"/>
      </g>
     </g>
     <g id="text_8">
      <!-- 5 -->
      <g transform="translate(4.6375 84.079219)scale(0.1 -0.1)">
       <use xlink:href="#DejaVuSans-35"/>
      </g>
     </g>
    </g>
    <g id="ytick_6">
     <g id="line2d_9">
      <g>
       <use xlink:href="#m4abecce485" x="18" y="53.1" style="stroke: #000000; stroke-width: 0.8"/>
      </g>
     </g>
     <g id="text_9">
      <!-- 10 -->
      <g transform="translate(-1.725 56.899219)scale(0.1 -0.1)">
       <use xlink:href="#DejaVuSans-31"/>
       <use xlink:href="#DejaVuSans-30" x="63.623047"/>
      </g>
     </g>
    </g>
    <g id="ytick_7">
     <g id="line2d_10">
      <g>
       <use xlink:href="#m4abecce485" x="18" y="25.92" style="stroke: #000000; stroke-width: 0.8"/>
      </g>
     </g>
     <g id="text_10">
      <!-- 15 -->
      <g transform="translate(-1.725 29.719219)scale(0.1 -0.1)">
       <use xlink:href="#DejaVuSans-31"/>
       <use xlink:href="#DejaVuSans-35" x="63.623047"/>
      </g>
     </g>
    </g>
   </g>
   <g id="patch_3">
    <path d="M 18 189 
L 18 25.92 
" style="fill: none; stroke: #000000; stroke-width: 0.8; stroke-linejoin: miter; stroke-linecap: square"/>
   </g>
   <g id="patch_4">
    <path d="M 129.6 189 
L 129.6 25.92 
" style="fill: none; stroke: #000000; stroke-width: 0.8; stroke-linejoin: miter; stroke-linecap: square"/>
   </g>
   <g id="patch_5">
    <path d="M 18 189 
L 129.6 189 
" style="fill: none; stroke: #000000; stroke-width: 0.8; stroke-linejoin: miter; stroke-linecap: square"/>
   </g>
   <g id="patch_6">
    <path d="M 18 25.92 
L 129.6 25.92 
" style="fill: none; stroke: #000000; stroke-width: 0.8; stroke-linejoin: miter; stroke-linecap: square"/>
   </g>
  </g>
 </g>
 <defs>
  <clipPath id="p3a4e959226">
   <rect x="18" y="25.92" width="111.6" height="163.08"/>
  </clipPath>
 </defs>
</svg>
