<?xml version="1.0" encoding="utf-8" standalone="no"?>
<!DOCTYPE svg PUBLIC "-//W3C//DTD SVG 1.1//EN"
  "http://www.w3.org/Graphics/SVG/1.1/DTD/svg11.dtd">
<svg xmlns:xlink="http://www.w3.org/1999/xlink" width="144pt" height="216pt" viewBox="0 0 144 216" xmlns="http://www.w3.org/2000/svg" version="1.1">
 <metadata>
  <rdf:RDF xmlns:dc="http://purl.org/dc/elements/1.1/" xmlns:cc="http://creativecommons.org/ns#" xmlns:rdf="http://www.w3.org/1999/02/22-rdf-syntax-ns#">
   <cc:Work>
    <dc:type rdf:resource="http://purl.org/dc/dcmitype/StillImage"/>
    <dc:date>2022-06-23T10:50:55.313145</dc:date>
    <dc:format>image/svg+xml</dc:format>
    <dc:creator>
     <cc:Agent>
      <dc:title>Matplotlib v3.5.1, https://matplotlib.org/</dc:title>
     </cc:Agent>
    </dc:creator>
   </cc:Work>
  </rdf:RDF>
 </metadata>
 <defs>
  <style type="text/css">*{stroke-linejoin: round; stroke-linecap: butt}</style>
 </defs>
 <g id="figure_1">
  <g id="patch_1">
   <path d="M 0 216 
L 144 216 
L 144 0 
L 0 0 
L 0 216 
z
" style="fill: none"/>
  </g>
  <g id="axes_1">
   <g id="patch_2">
    <path d="M 18 189 
L 129.6 189 
L 129.6 25.92 
L 18 25.92 
z
" style="fill: #ffffff"/>
   </g>
   <g id="PathCollection_1">
    <defs>
     <path id="me6982a741a" d="M 0 2.738613 
C 0.726289 2.738613 1.422928 2.450055 1.936492 1.936492 
C 2.450055 1.422928 2.738613 0.726289 2.738613 0 
C 2.738613 -0.726289 2.450055 -1.422928 1.936492 -1.936492 
C 1.422928 -2.450055 0.726289 -2.738613 0 -2.738613 
C -0.726289 -2.738613 -1.422928 -2.450055 -1.936492 -1.936492 
C -2.450055 -1.422928 -2.738613 -0.726289 -2.738613 0 
C -2.738613 0.726289 -2.450055 1.422928 -1.936492 1.936492 
C -1.422928 2.450055 -0.726289 2.738613 0 2.738613 
z
" style="stroke: #ff0000; stroke-width: 1.75"/>
    </defs>
    <g clip-path="url(#pc4651db278)">
     <use xlink:href="#me6982a741a" x="80.775" y="83.92143" style="fill: #ff0000; stroke: #ff0000; stroke-width: 1.75"/>
     <use xlink:href="#me6982a741a" x="59.85" y="95.690715" style="fill: #ff0000; stroke: #ff0000; stroke-width: 1.75"/>
     <use xlink:href="#me6982a741a" x="66.825" y="107.46" style="fill: #ff0000; stroke: #ff0000; stroke-width: 1.75"/>
     <use xlink:href="#me6982a741a" x="80.775" y="107.46" style="fill: #ff0000; stroke: #ff0000; stroke-width: 1.75"/>
     <use xlink:href="#me6982a741a" x="94.725" y="107.46" style="fill: #ff0000; stroke: #ff0000; stroke-width: 1.75"/>
     <use xlink:href="#me6982a741a" x="59.85" y="119.229285" style="fill: #ff0000; stroke: #ff0000; stroke-width: 1.75"/>
     <use xlink:href="#me6982a741a" x="80.775" y="130.99857" style="fill: #ff0000; stroke: #ff0000; stroke-width: 1.75"/>
    </g>
   </g>
   <g id="PathCollection_2">
    <defs>
     <path id="C0_0_89196afb31" d="M 0 2.738613 
C 0.726289 2.738613 1.422928 2.450055 1.936492 1.936492 
C 2.450055 1.422928 2.738613 0.726289 2.738613 -0 
C 2.738613 -0.726289 2.450055 -1.422928 1.936492 -1.936492 
C 1.422928 -2.450055 0.726289 -2.738613 0 -2.738613 
C -0.726289 -2.738613 -1.422928 -2.450055 -1.936492 -1.936492 
C -2.450055 -1.422928 -2.738613 -0.726289 -2.738613 0 
C -2.738613 0.726289 -2.450055 1.422928 -1.936492 1.936492 
C -1.422928 2.450055 -0.726289 2.738613 0 2.738613 
z
"/>
    </defs>
    <g clip-path="url(#pc4651db278)">
     <use xlink:href="#C0_0_89196afb31" x="66.825" y="83.92143" style="fill: none; stroke: #ff0000; stroke-width: 1.75"/>
    </g>
    <g clip-path="url(#pc4651db278)">
     <use xlink:href="#C0_0_89196afb31" x="73.8" y="95.690715" style="fill: none; stroke: #ff0000; stroke-width: 1.75"/>
    </g>
    <g clip-path="url(#pc4651db278)">
     <use xlink:href="#C0_0_89196afb31" x="87.75" y="95.690715" style="fill: none; stroke: #ff0000; stroke-width: 1.75"/>
    </g>
    <g clip-path="url(#pc4651db278)">
     <use xlink:href="#C0_0_89196afb31" x="52.875" y="107.46" style="fill: none; stroke: #ff0000; stroke-width: 1.75"/>
    </g>
    <g clip-path="url(#pc4651db278)">
     <use xlink:href="#C0_0_89196afb31" x="73.8" y="119.229285" style="fill: none; stroke: #ff0000; stroke-width: 1.75"/>
    </g>
    <g clip-path="url(#pc4651db278)">
     <use xlink:href="#C0_0_89196afb31" x="87.75" y="119.229285" style="fill: none; stroke: #ff0000; stroke-width: 1.75"/>
    </g>
    <g clip-path="url(#pc4651db278)">
     <use xlink:href="#C0_0_89196afb31" x="66.825" y="130.99857" style="fill: none; stroke: #ff0000; stroke-width: 1.75"/>
    </g>
   </g>
   <g id="PathCollection_3">
    <path d="M 100.7834 46.888172 
C 100.7834 46.888172 100.7834 46.888172 100.7834 46.888172 
C 100.7834 46.888172 100.7834 46.888172 100.7834 46.888172 
C 100.7834 46.888172 100.7834 46.888172 100.7834 46.888172 
C 100.7834 46.888172 100.7834 46.888172 100.7834 46.888172 
C 100.7834 46.888172 100.7834 46.888172 100.7834 46.888172 
C 100.7834 46.888172 100.7834 46.888172 100.7834 46.888172 
C 100.7834 46.888172 100.7834 46.888172 100.7834 46.888172 
C 100.7834 46.888172 100.7834 46.888172 100.7834 46.888172 
z
" clip-path="url(#pc4651db278)" style="stroke: #000000"/>
    <path d="M 117.974704 128.519572 
C 117.974704 128.519572 117.974704 128.519572 117.974704 128.519572 
C 117.974704 128.519572 117.974704 128.519572 117.974704 128.519572 
C 117.974704 128.519572 117.974704 128.519572 117.974704 128.519572 
C 117.974704 128.519572 117.974704 128.519572 117.974704 128.519572 
C 117.974704 128.519572 117.974704 128.519572 117.974704 128.519572 
C 117.974704 128.519572 117.974704 128.519572 117.974704 128.519572 
C 117.974704 128.519572 117.974704 128.519572 117.974704 128.519572 
C 117.974704 128.519572 117.974704 128.519572 117.974704 128.519572 
z
" clip-path="url(#pc4651db278)" style="stroke: #000000"/>
    <path d="M 119.537987 125.17241 
C 119.760995 125.17241 119.9749 125.083808 120.132591 124.926117 
C 120.290281 124.768426 120.378883 124.554522 120.378883 124.331513 
C 120.378883 124.108505 120.290281 123.894601 120.132591 123.73691 
C 119.9749 123.579219 119.760995 123.490617 119.537987 123.490617 
C 119.314979 123.490617 119.101074 123.579219 118.943384 123.73691 
C 118.785693 123.894601 118.697091 124.108505 118.697091 124.331513 
C 118.697091 124.554522 118.785693 124.768426 118.943384 124.926117 
C 119.101074 125.083808 119.314979 125.17241 119.537987 125.17241 
z
" clip-path="url(#pc4651db278)" style="stroke: #000000"/>
    <path d="M 115.86421 108.755652 
C 115.86421 108.755652 115.86421 108.755652 115.86421 108.755652 
C 115.86421 108.755652 115.86421 108.755652 115.86421 108.755652 
C 115.86421 108.755652 115.86421 108.755652 115.86421 108.755652 
C 115.86421 108.755652 115.86421 108.755652 115.86421 108.755652 
C 115.86421 108.755652 115.86421 108.755652 115.86421 108.755652 
C 115.86421 108.755652 115.86421 108.755652 115.86421 108.755652 
C 115.86421 108.755652 115.86421 108.755652 115.86421 108.755652 
C 115.86421 108.755652 115.86421 108.755652 115.86421 108.755652 
z
" clip-path="url(#pc4651db278)" style="stroke: #000000"/>
    <path d="M 108.542851 105.713067 
C 109.041669 105.713067 109.520123 105.514885 109.87284 105.162167 
C 110.225558 104.80945 110.42374 104.330996 110.42374 103.832178 
C 110.42374 103.333361 110.225558 102.854906 109.87284 102.502189 
C 109.520123 102.149472 109.041669 101.951289 108.542851 101.951289 
C 108.044034 101.951289 107.565579 102.149472 107.212862 102.502189 
C 106.860145 102.854906 106.661962 103.333361 106.661962 103.832178 
C 106.661962 104.330996 106.860145 104.80945 107.212862 105.162167 
C 107.565579 105.514885 108.044034 105.713067 108.542851 105.713067 
z
" clip-path="url(#pc4651db278)" style="stroke: #000000"/>
    <path d="M 108.519128 91.316297 
C 108.890841 91.316297 109.24738 91.168614 109.510221 90.905773 
C 109.773062 90.642932 109.920745 90.286393 109.920745 89.91468 
C 109.920745 89.542967 109.773062 89.186428 109.510221 88.923587 
C 109.24738 88.660747 108.890841 88.513063 108.519128 88.513063 
C 108.147415 88.513063 107.790877 88.660747 107.528036 88.923587 
C 107.265195 89.186428 107.117512 89.542967 107.117512 89.91468 
C 107.117512 90.286393 107.265195 90.642932 107.528036 90.905773 
C 107.790877 91.168614 108.147415 91.316297 108.519128 91.316297 
z
" clip-path="url(#pc4651db278)" style="stroke: #000000"/>
    <path d="M 102.601613 79.733209 
C 103.100274 79.733209 103.578579 79.535089 103.931187 79.182482 
C 104.283794 78.829875 104.481914 78.35157 104.481914 77.852908 
C 104.481914 77.354246 104.283794 76.875941 103.931187 76.523334 
C 103.578579 76.170727 103.100274 75.972606 102.601613 75.972606 
C 102.102951 75.972606 101.624646 76.170727 101.272039 76.523334 
C 100.919431 76.875941 100.721311 77.354246 100.721311 77.852908 
C 100.721311 78.35157 100.919431 78.829875 101.272039 79.182482 
C 101.624646 79.535089 102.102951 79.733209 102.601613 79.733209 
z
" clip-path="url(#pc4651db278)" style="stroke: #000000"/>
    <path d="M 101.04783 68.496194 
C 101.04783 68.496194 101.04783 68.496194 101.04783 68.496194 
C 101.04783 68.496194 101.04783 68.496194 101.04783 68.496194 
C 101.04783 68.496194 101.04783 68.496194 101.04783 68.496194 
C 101.04783 68.496194 101.04783 68.496194 101.04783 68.496194 
C 101.04783 68.496194 101.04783 68.496194 101.04783 68.496194 
C 101.04783 68.496194 101.04783 68.496194 101.04783 68.496194 
C 101.04783 68.496194 101.04783 68.496194 101.04783 68.496194 
C 101.04783 68.496194 101.04783 68.496194 101.04783 68.496194 
z
" clip-path="url(#pc4651db278)" style="stroke: #000000"/>
    <path d="M 93.598154 64.290819 
C 93.882855 64.290819 94.155933 64.177707 94.357247 63.976393 
C 94.55856 63.775079 94.671673 63.502001 94.671673 63.2173 
C 94.671673 62.9326 94.55856 62.659521 94.357247 62.458208 
C 94.155933 62.256894 93.882855 62.143781 93.598154 62.143781 
C 93.313454 62.143781 93.040375 62.256894 92.839062 62.458208 
C 92.637748 62.659521 92.524635 62.9326 92.524635 63.2173 
C 92.524635 63.502001 92.637748 63.775079 92.839062 63.976393 
C 93.040375 64.177707 93.313454 64.290819 93.598154 64.290819 
z
" clip-path="url(#pc4651db278)" style="stroke: #000000"/>
    <path d="M 91.449793 50.482993 
C 91.449793 50.482993 91.449793 50.482993 91.449793 50.482993 
C 91.449793 50.482993 91.449793 50.482993 91.449793 50.482993 
C 91.449793 50.482993 91.449793 50.482993 91.449793 50.482993 
C 91.449793 50.482993 91.449793 50.482993 91.449793 50.482993 
C 91.449793 50.482993 91.449793 50.482993 91.449793 50.482993 
C 91.449793 50.482993 91.449793 50.482993 91.449793 50.482993 
C 91.449793 50.482993 91.449793 50.482993 91.449793 50.482993 
C 91.449793 50.482993 91.449793 50.482993 91.449793 50.482993 
z
" clip-path="url(#pc4651db278)" style="stroke: #000000"/>
    <path d="M 91.009331 38.930961 
C 91.009331 38.930961 91.009331 38.930961 91.009331 38.930961 
C 91.009331 38.930961 91.009331 38.930961 91.009331 38.930961 
C 91.009331 38.930961 91.009331 38.930961 91.009331 38.930961 
C 91.009331 38.930961 91.009331 38.930961 91.009331 38.930961 
C 91.009331 38.930961 91.009331 38.930961 91.009331 38.930961 
C 91.009331 38.930961 91.009331 38.930961 91.009331 38.930961 
C 91.009331 38.930961 91.009331 38.930961 91.009331 38.930961 
C 91.009331 38.930961 91.009331 38.930961 91.009331 38.930961 
z
" clip-path="url(#pc4651db278)" style="stroke: #000000"/>
    <path d="M 120.545298 177.323427 
C 120.964883 177.323427 121.367339 177.156724 121.66403 176.860033 
C 121.960721 176.563342 122.127424 176.160886 122.127424 175.741301 
C 122.127424 175.321716 121.960721 174.91926 121.66403 174.622569 
C 121.367339 174.325878 120.964883 174.159175 120.545298 174.159175 
C 120.125713 174.159175 119.723257 174.325878 119.426566 174.622569 
C 119.129875 174.91926 118.963172 175.321716 118.963172 175.741301 
C 118.963172 176.160886 119.129875 176.563342 119.426566 176.860033 
C 119.723257 177.156724 120.125713 177.323427 120.545298 177.323427 
z
" clip-path="url(#pc4651db278)" style="stroke: #000000"/>
    <path d="M 116.93365 166.209502 
C 116.93365 166.209502 116.93365 166.209502 116.93365 166.209502 
C 116.93365 166.209502 116.93365 166.209502 116.93365 166.209502 
C 116.93365 166.209502 116.93365 166.209502 116.93365 166.209502 
C 116.93365 166.209502 116.93365 166.209502 116.93365 166.209502 
C 116.93365 166.209502 116.93365 166.209502 116.93365 166.209502 
C 116.93365 166.209502 116.93365 166.209502 116.93365 166.209502 
C 116.93365 166.209502 116.93365 166.209502 116.93365 166.209502 
C 116.93365 166.209502 116.93365 166.209502 116.93365 166.209502 
z
" clip-path="url(#pc4651db278)" style="stroke: #000000"/>
    <path d="M 117.458352 156.777081 
C 117.458352 156.777081 117.458352 156.777081 117.458352 156.777081 
C 117.458352 156.777081 117.458352 156.777081 117.458352 156.777081 
C 117.458352 156.777081 117.458352 156.777081 117.458352 156.777081 
C 117.458352 156.777081 117.458352 156.777081 117.458352 156.777081 
C 117.458352 156.777081 117.458352 156.777081 117.458352 156.777081 
C 117.458352 156.777081 117.458352 156.777081 117.458352 156.777081 
C 117.458352 156.777081 117.458352 156.777081 117.458352 156.777081 
C 117.458352 156.777081 117.458352 156.777081 117.458352 156.777081 
z
" clip-path="url(#pc4651db278)" style="stroke: #000000"/>
    <path d="M 114.255474 148.274958 
C 114.675059 148.274958 115.077515 148.108255 115.374207 147.811564 
C 115.670898 147.514873 115.837601 147.112416 115.837601 146.692832 
C 115.837601 146.273247 115.670898 145.870791 115.374207 145.5741 
C 115.077515 145.277408 114.675059 145.110706 114.255474 145.110706 
C 113.83589 145.110706 113.433434 145.277408 113.136742 145.5741 
C 112.840051 145.870791 112.673348 146.273247 112.673348 146.692832 
C 112.673348 147.112416 112.840051 147.514873 113.136742 147.811564 
C 113.433434 148.108255 113.83589 148.274958 114.255474 148.274958 
z
" clip-path="url(#pc4651db278)" style="stroke: #000000"/>
    <path d="M 108.613226 135.307346 
C 109.111888 135.307346 109.590193 135.109226 109.9428 134.756619 
C 110.295407 134.404011 110.493527 133.925706 110.493527 133.427045 
C 110.493527 132.928383 110.295407 132.450078 109.9428 132.097471 
C 109.590193 131.744864 109.111888 131.546743 108.613226 131.546743 
C 108.114564 131.546743 107.636259 131.744864 107.283652 132.097471 
C 106.931045 132.450078 106.732924 132.928383 106.732924 133.427045 
C 106.732924 133.925706 106.931045 134.404011 107.283652 134.756619 
C 107.636259 135.109226 108.114564 135.307346 108.613226 135.307346 
z
" clip-path="url(#pc4651db278)" style="stroke: #000000"/>
    <path d="M 110.536214 125.006144 
C 110.904106 125.006144 111.25698 124.859979 111.517119 124.599839 
C 111.777258 124.3397 111.923424 123.986826 111.923424 123.618934 
C 111.923424 123.251042 111.777258 122.898168 111.517119 122.638029 
C 111.25698 122.37789 110.904106 122.231725 110.536214 122.231725 
C 110.168322 122.231725 109.815448 122.37789 109.555309 122.638029 
C 109.295169 122.898168 109.149004 123.251042 109.149004 123.618934 
C 109.149004 123.986826 109.295169 124.3397 109.555309 124.599839 
C 109.815448 124.859979 110.168322 125.006144 110.536214 125.006144 
z
" clip-path="url(#pc4651db278)" style="stroke: #000000"/>
    <path d="M 103.234661 115.916672 
C 103.733479 115.916672 104.211933 115.718489 104.56465 115.365772 
C 104.917368 115.013055 105.11555 114.5346 105.11555 114.035783 
C 105.11555 113.536965 104.917368 113.058511 104.56465 112.705793 
C 104.211933 112.353076 103.733479 112.154894 103.234661 112.154894 
C 102.735844 112.154894 102.257389 112.353076 101.904672 112.705793 
C 101.551955 113.058511 101.353772 113.536965 101.353772 114.035783 
C 101.353772 114.5346 101.551955 115.013055 101.904672 115.365772 
C 102.257389 115.718489 102.735844 115.916672 103.234661 115.916672 
z
" clip-path="url(#pc4651db278)" style="stroke: #000000"/>
    <path d="M 102.896245 104.245833 
C 103.292506 104.245833 103.67259 104.088397 103.952789 103.808198 
C 104.232988 103.527999 104.390424 103.147915 104.390424 102.751654 
C 104.390424 102.355393 104.232988 101.975308 103.952789 101.69511 
C 103.67259 101.414911 103.292506 101.257475 102.896245 101.257475 
C 102.499984 101.257475 102.119899 101.414911 101.8397 101.69511 
C 101.559502 101.975308 101.402065 102.355393 101.402065 102.751654 
C 101.402065 103.147915 101.559502 103.527999 101.8397 103.808198 
C 102.119899 104.088397 102.499984 104.245833 102.896245 104.245833 
z
" clip-path="url(#pc4651db278)" style="stroke: #000000"/>
    <path d="M 93.997731 90.000879 
C 94.496549 90.000879 94.975003 89.802697 95.327721 89.449979 
C 95.680438 89.097262 95.87862 88.618808 95.87862 88.11999 
C 95.87862 87.621173 95.680438 87.142718 95.327721 86.790001 
C 94.975003 86.437284 94.496549 86.239101 93.997731 86.239101 
C 93.498914 86.239101 93.020459 86.437284 92.667742 86.790001 
C 92.315025 87.142718 92.116843 87.621173 92.116843 88.11999 
C 92.116843 88.618808 92.315025 89.097262 92.667742 89.449979 
C 93.020459 89.802697 93.498914 90.000879 93.997731 90.000879 
z
" clip-path="url(#pc4651db278)" style="stroke: #000000"/>
    <path d="M 94.230601 84.421919 
C 94.729419 84.421919 95.207873 84.223737 95.560591 83.871019 
C 95.913308 83.518302 96.11149 83.039848 96.11149 82.54103 
C 96.11149 82.042213 95.913308 81.563758 95.560591 81.211041 
C 95.207873 80.858324 94.729419 80.660141 94.230601 80.660141 
C 93.731784 80.660141 93.253329 80.858324 92.900612 81.211041 
C 92.547895 81.563758 92.349712 82.042213 92.349712 82.54103 
C 92.349712 83.039848 92.547895 83.518302 92.900612 83.871019 
C 93.253329 84.223737 93.731784 84.421919 94.230601 84.421919 
z
" clip-path="url(#pc4651db278)" style="stroke: #000000"/>
    <path d="M 88.576081 72.898492 
C 88.576081 72.898492 88.576081 72.898492 88.576081 72.898492 
C 88.576081 72.898492 88.576081 72.898492 88.576081 72.898492 
C 88.576081 72.898492 88.576081 72.898492 88.576081 72.898492 
C 88.576081 72.898492 88.576081 72.898492 88.576081 72.898492 
C 88.576081 72.898492 88.576081 72.898492 88.576081 72.898492 
C 88.576081 72.898492 88.576081 72.898492 88.576081 72.898492 
C 88.576081 72.898492 88.576081 72.898492 88.576081 72.898492 
C 88.576081 72.898492 88.576081 72.898492 88.576081 72.898492 
z
" clip-path="url(#pc4651db278)" style="stroke: #000000"/>
    <path d="M 86.835386 62.029269 
C 87.334204 62.029269 87.812658 61.831087 88.165376 61.47837 
C 88.518093 61.125653 88.716275 60.647198 88.716275 60.148381 
C 88.716275 59.649563 88.518093 59.171109 88.165376 58.818391 
C 87.812658 58.465674 87.334204 58.267492 86.835386 58.267492 
C 86.336569 58.267492 85.858114 58.465674 85.505397 58.818391 
C 85.15268 59.171109 84.954497 59.649563 84.954497 60.148381 
C 84.954497 60.647198 85.15268 61.125653 85.505397 61.47837 
C 85.858114 61.831087 86.336569 62.029269 86.835386 62.029269 
z
" clip-path="url(#pc4651db278)" style="stroke: #000000"/>
    <path d="M 78.904158 57.711444 
C 79.339333 57.711444 79.756742 57.538548 80.064456 57.230833 
C 80.372171 56.923119 80.545067 56.505709 80.545067 56.070535 
C 80.545067 55.635361 80.372171 55.217952 80.064456 54.910237 
C 79.756742 54.602523 79.339333 54.429626 78.904158 54.429626 
C 78.468984 54.429626 78.051575 54.602523 77.74386 54.910237 
C 77.436146 55.217952 77.263249 55.635361 77.263249 56.070535 
C 77.263249 56.505709 77.436146 56.923119 77.74386 57.230833 
C 78.051575 57.538548 78.468984 57.711444 78.904158 57.711444 
z
" clip-path="url(#pc4651db278)" style="stroke: #000000"/>
    <path d="M 81.552926 42.000923 
C 81.972511 42.000923 82.374967 41.83422 82.671658 41.537529 
C 82.96835 41.240838 83.135052 40.838382 83.135052 40.418797 
C 83.135052 39.999212 82.96835 39.596756 82.671658 39.300065 
C 82.374967 39.003373 81.972511 38.836671 81.552926 38.836671 
C 81.133342 38.836671 80.730885 39.003373 80.434194 39.300065 
C 80.137503 39.596756 79.9708 39.999212 79.9708 40.418797 
C 79.9708 40.838382 80.137503 41.240838 80.434194 41.537529 
C 80.730885 41.83422 81.133342 42.000923 81.552926 42.000923 
z
" clip-path="url(#pc4651db278)" style="stroke: #000000"/>
    <path d="M 76.486821 29.437503 
C 76.486821 29.437503 76.486821 29.437503 76.486821 29.437503 
C 76.486821 29.437503 76.486821 29.437503 76.486821 29.437503 
C 76.486821 29.437503 76.486821 29.437503 76.486821 29.437503 
C 76.486821 29.437503 76.486821 29.437503 76.486821 29.437503 
C 76.486821 29.437503 76.486821 29.437503 76.486821 29.437503 
C 76.486821 29.437503 76.486821 29.437503 76.486821 29.437503 
C 76.486821 29.437503 76.486821 29.437503 76.486821 29.437503 
C 76.486821 29.437503 76.486821 29.437503 76.486821 29.437503 
z
" clip-path="url(#pc4651db278)" style="stroke: #000000"/>
    <path d="M 112.904828 178.052031 
C 113.324413 178.052031 113.726869 177.885328 114.02356 177.588637 
C 114.320251 177.291946 114.486954 176.88949 114.486954 176.469905 
C 114.486954 176.05032 114.320251 175.647864 114.02356 175.351173 
C 113.726869 175.054481 113.324413 174.887779 112.904828 174.887779 
C 112.485243 174.887779 112.082787 175.054481 111.786096 175.351173 
C 111.489405 175.647864 111.322702 176.05032 111.322702 176.469905 
C 111.322702 176.88949 111.489405 177.291946 111.786096 177.588637 
C 112.082787 177.885328 112.485243 178.052031 112.904828 178.052031 
z
" clip-path="url(#pc4651db278)" style="stroke: #000000"/>
    <path d="M 112.02229 170.797109 
C 112.02229 170.797109 112.02229 170.797109 112.02229 170.797109 
C 112.02229 170.797109 112.02229 170.797109 112.02229 170.797109 
C 112.02229 170.797109 112.02229 170.797109 112.02229 170.797109 
C 112.02229 170.797109 112.02229 170.797109 112.02229 170.797109 
C 112.02229 170.797109 112.02229 170.797109 112.02229 170.797109 
C 112.02229 170.797109 112.02229 170.797109 112.02229 170.797109 
C 112.02229 170.797109 112.02229 170.797109 112.02229 170.797109 
C 112.02229 170.797109 112.02229 170.797109 112.02229 170.797109 
z
" clip-path="url(#pc4651db278)" style="stroke: #000000"/>
    <path d="M 109.079967 161.034411 
C 109.499552 161.034411 109.902008 160.867708 110.198699 160.571017 
C 110.49539 160.274326 110.662093 159.87187 110.662093 159.452285 
C 110.662093 159.0327 110.49539 158.630244 110.198699 158.333553 
C 109.902008 158.036861 109.499552 157.870159 109.079967 157.870159 
C 108.660382 157.870159 108.257926 158.036861 107.961235 158.333553 
C 107.664544 158.630244 107.497841 159.0327 107.497841 159.452285 
C 107.497841 159.87187 107.664544 160.274326 107.961235 160.571017 
C 108.257926 160.867708 108.660382 161.034411 109.079967 161.034411 
z
" clip-path="url(#pc4651db278)" style="stroke: #000000"/>
    <path d="M 105.516607 151.343644 
C 105.958875 151.343644 106.383087 151.16793 106.695818 150.855199 
C 107.008548 150.542469 107.184263 150.118256 107.184263 149.675989 
C 107.184263 149.233722 107.008548 148.809509 106.695818 148.496778 
C 106.383087 148.184048 105.958875 148.008334 105.516607 148.008334 
C 105.07434 148.008334 104.650127 148.184048 104.337397 148.496778 
C 104.024667 148.809509 103.848952 149.233722 103.848952 149.675989 
C 103.848952 150.118256 104.024667 150.542469 104.337397 150.855199 
C 104.650127 151.16793 105.07434 151.343644 105.516607 151.343644 
z
" clip-path="url(#pc4651db278)" style="stroke: #000000"/>
    <path d="M 98.845653 139.139022 
C 99.344471 139.139022 99.822925 138.94084 100.175642 138.588123 
C 100.52836 138.235405 100.726542 137.756951 100.726542 137.258133 
C 100.726542 136.759316 100.52836 136.280861 100.175642 135.928144 
C 99.822925 135.575427 99.344471 135.377245 98.845653 135.377245 
C 98.346836 135.377245 97.868381 135.575427 97.515664 135.928144 
C 97.162947 136.280861 96.964764 136.759316 96.964764 137.258133 
C 96.964764 137.756951 97.162947 138.235405 97.515664 138.588123 
C 97.868381 138.94084 98.346836 139.139022 98.845653 139.139022 
z
" clip-path="url(#pc4651db278)" style="stroke: #000000"/>
    <path d="M 99.847022 127.64986 
C 100.345839 127.64986 100.824294 127.451678 101.177011 127.098961 
C 101.529728 126.746243 101.727911 126.267789 101.727911 125.768971 
C 101.727911 125.270154 101.529728 124.791699 101.177011 124.438982 
C 100.824294 124.086265 100.345839 123.888083 99.847022 123.888083 
C 99.348204 123.888083 98.86975 124.086265 98.517033 124.438982 
C 98.164315 124.791699 97.966133 125.270154 97.966133 125.768971 
C 97.966133 126.267789 98.164315 126.746243 98.517033 127.098961 
C 98.86975 127.451678 99.348204 127.64986 99.847022 127.64986 
z
" clip-path="url(#pc4651db278)" style="stroke: #000000"/>
    <path d="M 93.863308 114.756731 
C 94.362126 114.756731 94.84058 114.558548 95.193298 114.205831 
C 95.546015 113.853114 95.744197 113.374659 95.744197 112.875842 
C 95.744197 112.377024 95.546015 111.89857 95.193298 111.545852 
C 94.84058 111.193135 94.362126 110.994953 93.863308 110.994953 
C 93.364491 110.994953 92.886036 111.193135 92.533319 111.545852 
C 92.180602 111.89857 91.98242 112.377024 91.98242 112.875842 
C 91.98242 113.374659 92.180602 113.853114 92.533319 114.205831 
C 92.886036 114.558548 93.364491 114.756731 93.863308 114.756731 
z
" clip-path="url(#pc4651db278)" style="stroke: #000000"/>
    <path d="M 86.222146 111.418062 
C 86.641469 111.418062 87.043674 111.251463 87.34018 110.954957 
C 87.636686 110.658451 87.803284 110.256246 87.803284 109.836923 
C 87.803284 109.4176 87.636686 109.015395 87.34018 108.718889 
C 87.043674 108.422383 86.641469 108.255784 86.222146 108.255784 
C 85.802823 108.255784 85.400618 108.422383 85.104112 108.718889 
C 84.807606 109.015395 84.641007 109.4176 84.641007 109.836923 
C 84.641007 110.256246 84.807606 110.658451 85.104112 110.954957 
C 85.400618 111.251463 85.802823 111.418062 86.222146 111.418062 
z
" clip-path="url(#pc4651db278)" style="stroke: #000000"/>
    <path d="M 82.537058 96.983128 
C 82.95638 96.983128 83.358585 96.816529 83.655092 96.520023 
C 83.951598 96.223517 84.118196 95.821312 84.118196 95.401989 
C 84.118196 94.982666 83.951598 94.580461 83.655092 94.283955 
C 83.358585 93.987449 82.95638 93.82085 82.537058 93.82085 
C 82.117735 93.82085 81.71553 93.987449 81.419024 94.283955 
C 81.122517 94.580461 80.955919 94.982666 80.955919 95.401989 
C 80.955919 95.821312 81.122517 96.223517 81.419024 96.520023 
C 81.71553 96.816529 82.117735 96.983128 82.537058 96.983128 
z
" clip-path="url(#pc4651db278)" style="stroke: #000000"/>
    <path d="M 80.994562 89.813479 
C 81.413885 89.813479 81.81609 89.64688 82.112596 89.350374 
C 82.409102 89.053868 82.575701 88.651663 82.575701 88.23234 
C 82.575701 87.813017 82.409102 87.410812 82.112596 87.114306 
C 81.81609 86.8178 81.413885 86.651201 80.994562 86.651201 
C 80.575239 86.651201 80.173034 86.8178 79.876528 87.114306 
C 79.580022 87.410812 79.413423 87.813017 79.413423 88.23234 
C 79.413423 88.651663 79.580022 89.053868 79.876528 89.350374 
C 80.173034 89.64688 80.575239 89.813479 80.994562 89.813479 
z
" clip-path="url(#pc4651db278)" style="stroke: #000000"/>
    <path d="M 80.039659 75.517857 
C 80.538476 75.517857 81.016931 75.319675 81.369648 74.966958 
C 81.722365 74.61424 81.920548 74.135786 81.920548 73.636968 
C 81.920548 73.138151 81.722365 72.659696 81.369648 72.306979 
C 81.016931 71.954262 80.538476 71.75608 80.039659 71.75608 
C 79.540841 71.75608 79.062387 71.954262 78.709669 72.306979 
C 78.356952 72.659696 78.15877 73.138151 78.15877 73.636968 
C 78.15877 74.135786 78.356952 74.61424 78.709669 74.966958 
C 79.062387 75.319675 79.540841 75.517857 80.039659 75.517857 
z
" clip-path="url(#pc4651db278)" style="stroke: #000000"/>
    <path d="M 72.508681 68.12208 
C 72.508681 68.12208 72.508681 68.12208 72.508681 68.12208 
C 72.508681 68.12208 72.508681 68.12208 72.508681 68.12208 
C 72.508681 68.12208 72.508681 68.12208 72.508681 68.12208 
C 72.508681 68.12208 72.508681 68.12208 72.508681 68.12208 
C 72.508681 68.12208 72.508681 68.12208 72.508681 68.12208 
C 72.508681 68.12208 72.508681 68.12208 72.508681 68.12208 
C 72.508681 68.12208 72.508681 68.12208 72.508681 68.12208 
C 72.508681 68.12208 72.508681 68.12208 72.508681 68.12208 
z
" clip-path="url(#pc4651db278)" style="stroke: #000000"/>
    <path d="M 68.674767 56.941317 
C 69.098729 56.941317 69.505385 56.772875 69.805172 56.473088 
C 70.104959 56.173301 70.273401 55.766646 70.273401 55.342683 
C 70.273401 54.91872 70.104959 54.512065 69.805172 54.212278 
C 69.505385 53.912491 69.098729 53.744049 68.674767 53.744049 
C 68.250804 53.744049 67.844149 53.912491 67.544362 54.212278 
C 67.244575 54.512065 67.076133 54.91872 67.076133 55.342683 
C 67.076133 55.766646 67.244575 56.173301 67.544362 56.473088 
C 67.844149 56.772875 68.250804 56.941317 68.674767 56.941317 
z
" clip-path="url(#pc4651db278)" style="stroke: #000000"/>
    <path d="M 68.530205 45.559526 
C 68.94979 45.559526 69.352246 45.392823 69.648937 45.096132 
C 69.945628 44.79944 70.112331 44.396984 70.112331 43.9774 
C 70.112331 43.557815 69.945628 43.155359 69.648937 42.858667 
C 69.352246 42.561976 68.94979 42.395273 68.530205 42.395273 
C 68.11062 42.395273 67.708164 42.561976 67.411473 42.858667 
C 67.114781 43.155359 66.948079 43.557815 66.948079 43.9774 
C 66.948079 44.396984 67.114781 44.79944 67.411473 45.096132 
C 67.708164 45.392823 68.11062 45.559526 68.530205 45.559526 
z
" clip-path="url(#pc4651db278)" style="stroke: #000000"/>
    <path d="M 64.005285 30.410485 
C 64.005285 30.410485 64.005285 30.410485 64.005285 30.410485 
C 64.005285 30.410485 64.005285 30.410485 64.005285 30.410485 
C 64.005285 30.410485 64.005285 30.410485 64.005285 30.410485 
C 64.005285 30.410485 64.005285 30.410485 64.005285 30.410485 
C 64.005285 30.410485 64.005285 30.410485 64.005285 30.410485 
C 64.005285 30.410485 64.005285 30.410485 64.005285 30.410485 
C 64.005285 30.410485 64.005285 30.410485 64.005285 30.410485 
C 64.005285 30.410485 64.005285 30.410485 64.005285 30.410485 
z
" clip-path="url(#pc4651db278)" style="stroke: #000000"/>
    <path d="M 66.726741 29.609653 
C 67.146326 29.609653 67.548782 29.44295 67.845474 29.146259 
C 68.142165 28.849568 68.308868 28.447112 68.308868 28.027527 
C 68.308868 27.607942 68.142165 27.205486 67.845474 26.908795 
C 67.548782 26.612104 67.146326 26.445401 66.726741 26.445401 
C 66.307157 26.445401 65.904701 26.612104 65.608009 26.908795 
C 65.311318 27.205486 65.144615 27.607942 65.144615 28.027527 
C 65.144615 28.447112 65.311318 28.849568 65.608009 29.146259 
C 65.904701 29.44295 66.307157 29.609653 66.726741 29.609653 
z
" clip-path="url(#pc4651db278)" style="stroke: #000000"/>
    <path d="M 102.940512 179.189542 
C 103.360096 179.189542 103.762553 179.02284 104.059244 178.726148 
C 104.355935 178.429457 104.522638 178.027001 104.522638 177.607416 
C 104.522638 177.187832 104.355935 176.785375 104.059244 176.488684 
C 103.762553 176.191993 103.360096 176.02529 102.940512 176.02529 
C 102.520927 176.02529 102.118471 176.191993 101.82178 176.488684 
C 101.525088 176.785375 101.358386 177.187832 101.358386 177.607416 
C 101.358386 178.027001 101.525088 178.429457 101.82178 178.726148 
C 102.118471 179.02284 102.520927 179.189542 102.940512 179.189542 
z
" clip-path="url(#pc4651db278)" style="stroke: #000000"/>
    <path d="M 98.596834 174.03536 
C 98.596834 174.03536 98.596834 174.03536 98.596834 174.03536 
C 98.596834 174.03536 98.596834 174.03536 98.596834 174.03536 
C 98.596834 174.03536 98.596834 174.03536 98.596834 174.03536 
C 98.596834 174.03536 98.596834 174.03536 98.596834 174.03536 
C 98.596834 174.03536 98.596834 174.03536 98.596834 174.03536 
C 98.596834 174.03536 98.596834 174.03536 98.596834 174.03536 
C 98.596834 174.03536 98.596834 174.03536 98.596834 174.03536 
C 98.596834 174.03536 98.596834 174.03536 98.596834 174.03536 
z
" clip-path="url(#pc4651db278)" style="stroke: #000000"/>
    <path d="M 99.960491 164.040593 
C 99.960491 164.040593 99.960491 164.040593 99.960491 164.040593 
C 99.960491 164.040593 99.960491 164.040593 99.960491 164.040593 
C 99.960491 164.040593 99.960491 164.040593 99.960491 164.040593 
C 99.960491 164.040593 99.960491 164.040593 99.960491 164.040593 
C 99.960491 164.040593 99.960491 164.040593 99.960491 164.040593 
C 99.960491 164.040593 99.960491 164.040593 99.960491 164.040593 
C 99.960491 164.040593 99.960491 164.040593 99.960491 164.040593 
C 99.960491 164.040593 99.960491 164.040593 99.960491 164.040593 
z
" clip-path="url(#pc4651db278)" style="stroke: #000000"/>
    <path d="M 94.737077 151.564663 
C 94.737077 151.564663 94.737077 151.564663 94.737077 151.564663 
C 94.737077 151.564663 94.737077 151.564663 94.737077 151.564663 
C 94.737077 151.564663 94.737077 151.564663 94.737077 151.564663 
C 94.737077 151.564663 94.737077 151.564663 94.737077 151.564663 
C 94.737077 151.564663 94.737077 151.564663 94.737077 151.564663 
C 94.737077 151.564663 94.737077 151.564663 94.737077 151.564663 
C 94.737077 151.564663 94.737077 151.564663 94.737077 151.564663 
C 94.737077 151.564663 94.737077 151.564663 94.737077 151.564663 
z
" clip-path="url(#pc4651db278)" style="stroke: #000000"/>
    <path d="M 89.332584 140.776187 
C 89.831246 140.776187 90.309551 140.578066 90.662158 140.225459 
C 91.014765 139.872852 91.212886 139.394547 91.212886 138.895885 
C 91.212886 138.397223 91.014765 137.918918 90.662158 137.566311 
C 90.309551 137.213704 89.831246 137.015584 89.332584 137.015584 
C 88.833923 137.015584 88.355618 137.213704 88.00301 137.566311 
C 87.650403 137.918918 87.452283 138.397223 87.452283 138.895885 
C 87.452283 139.394547 87.650403 139.872852 88.00301 140.225459 
C 88.355618 140.578066 88.833923 140.776187 89.332584 140.776187 
z
" clip-path="url(#pc4651db278)" style="stroke: #000000"/>
    <path d="M 86.517065 131.964645 
C 86.517065 131.964645 86.517065 131.964645 86.517065 131.964645 
C 86.517065 131.964645 86.517065 131.964645 86.517065 131.964645 
C 86.517065 131.964645 86.517065 131.964645 86.517065 131.964645 
C 86.517065 131.964645 86.517065 131.964645 86.517065 131.964645 
C 86.517065 131.964645 86.517065 131.964645 86.517065 131.964645 
C 86.517065 131.964645 86.517065 131.964645 86.517065 131.964645 
C 86.517065 131.964645 86.517065 131.964645 86.517065 131.964645 
C 86.517065 131.964645 86.517065 131.964645 86.517065 131.964645 
z
" clip-path="url(#pc4651db278)" style="stroke: #000000"/>
    <path d="M 85.014669 121.322982 
C 85.435036 121.322982 85.838243 121.155969 86.135487 120.858724 
C 86.432732 120.56148 86.599746 120.158273 86.599746 119.737905 
C 86.599746 119.317538 86.432732 118.914331 86.135487 118.617087 
C 85.838243 118.319842 85.435036 118.152829 85.014669 118.152829 
C 84.594301 118.152829 84.191095 118.319842 83.89385 118.617087 
C 83.596605 118.914331 83.429592 119.317538 83.429592 119.737905 
C 83.429592 120.158273 83.596605 120.56148 83.89385 120.858724 
C 84.191095 121.155969 84.594301 121.322982 85.014669 121.322982 
z
" clip-path="url(#pc4651db278)" style="stroke: #000000"/>
    <path d="M 79.924212 111.689894 
C 80.42303 111.689894 80.901484 111.491712 81.254202 111.138994 
C 81.606919 110.786277 81.805101 110.307823 81.805101 109.809005 
C 81.805101 109.310188 81.606919 108.831733 81.254202 108.479016 
C 80.901484 108.126299 80.42303 107.928116 79.924212 107.928116 
C 79.425395 107.928116 78.94694 108.126299 78.594223 108.479016 
C 78.241506 108.831733 78.043323 109.310188 78.043323 109.809005 
C 78.043323 110.307823 78.241506 110.786277 78.594223 111.138994 
C 78.94694 111.491712 79.425395 111.689894 79.924212 111.689894 
z
" clip-path="url(#pc4651db278)" style="stroke: #000000"/>
    <path d="M 73.395831 103.330008 
C 73.894493 103.330008 74.372798 103.131887 74.725405 102.77928 
C 75.078012 102.426673 75.276133 101.948368 75.276133 101.449706 
C 75.276133 100.951044 75.078012 100.472739 74.725405 100.120132 
C 74.372798 99.767525 73.894493 99.569405 73.395831 99.569405 
C 72.897169 99.569405 72.418864 99.767525 72.066257 100.120132 
C 71.71365 100.472739 71.51553 100.951044 71.51553 101.449706 
C 71.51553 101.948368 71.71365 102.426673 72.066257 102.77928 
C 72.418864 103.131887 72.897169 103.330008 73.395831 103.330008 
z
" clip-path="url(#pc4651db278)" style="stroke: #000000"/>
    <path d="M 72.35343 89.816758 
C 72.772753 89.816758 73.174958 89.65016 73.471464 89.353653 
C 73.76797 89.057147 73.934569 88.654942 73.934569 88.23562 
C 73.934569 87.816297 73.76797 87.414092 73.471464 87.117586 
C 73.174958 86.821079 72.772753 86.654481 72.35343 86.654481 
C 71.934107 86.654481 71.531902 86.821079 71.235396 87.117586 
C 70.93889 87.414092 70.772291 87.816297 70.772291 88.23562 
C 70.772291 88.654942 70.93889 89.057147 71.235396 89.353653 
C 71.531902 89.65016 71.934107 89.816758 72.35343 89.816758 
z
" clip-path="url(#pc4651db278)" style="stroke: #000000"/>
    <path d="M 71.467651 81.016159 
C 71.966469 81.016159 72.444923 80.817977 72.79764 80.465259 
C 73.150358 80.112542 73.34854 79.634088 73.34854 79.13527 
C 73.34854 78.636453 73.150358 78.157998 72.79764 77.805281 
C 72.444923 77.452564 71.966469 77.254381 71.467651 77.254381 
C 70.968834 77.254381 70.490379 77.452564 70.137662 77.805281 
C 69.784945 78.157998 69.586762 78.636453 69.586762 79.13527 
C 69.586762 79.634088 69.784945 80.112542 70.137662 80.465259 
C 70.490379 80.817977 70.968834 81.016159 71.467651 81.016159 
z
" clip-path="url(#pc4651db278)" style="stroke: #000000"/>
    <path d="M 62.43692 71.149007 
C 62.935582 71.149007 63.413887 70.950887 63.766494 70.598279 
C 64.119102 70.245672 64.317222 69.767367 64.317222 69.268705 
C 64.317222 68.770044 64.119102 68.291739 63.766494 67.939131 
C 63.413887 67.586524 62.935582 67.388404 62.43692 67.388404 
C 61.938259 67.388404 61.459954 67.586524 61.107346 67.939131 
C 60.754739 68.291739 60.556619 68.770044 60.556619 69.268705 
C 60.556619 69.767367 60.754739 70.245672 61.107346 70.598279 
C 61.459954 70.950887 61.938259 71.149007 62.43692 71.149007 
z
" clip-path="url(#pc4651db278)" style="stroke: #000000"/>
    <path d="M 58.99777 57.899362 
C 59.091534 57.899362 59.181469 57.862109 59.24777 57.795808 
C 59.314071 57.729508 59.351324 57.639572 59.351324 57.545808 
C 59.351324 57.452045 59.314071 57.362109 59.24777 57.295808 
C 59.181469 57.229508 59.091534 57.192255 58.99777 57.192255 
C 58.904007 57.192255 58.814071 57.229508 58.74777 57.295808 
C 58.681469 57.362109 58.644217 57.452045 58.644217 57.545808 
C 58.644217 57.639572 58.681469 57.729508 58.74777 57.795808 
C 58.814071 57.862109 58.904007 57.899362 58.99777 57.899362 
z
" clip-path="url(#pc4651db278)" style="stroke: #000000"/>
    <path d="M 57.21135 52.509298 
C 57.630935 52.509298 58.033391 52.342595 58.330082 52.045904 
C 58.626773 51.749213 58.793476 51.346757 58.793476 50.927172 
C 58.793476 50.507587 58.626773 50.105131 58.330082 49.80844 
C 58.033391 49.511749 57.630935 49.345046 57.21135 49.345046 
C 56.791765 49.345046 56.389309 49.511749 56.092618 49.80844 
C 55.795927 50.105131 55.629224 50.507587 55.629224 50.927172 
C 55.629224 51.346757 55.795927 51.749213 56.092618 52.045904 
C 56.389309 52.342595 56.791765 52.509298 57.21135 52.509298 
z
" clip-path="url(#pc4651db278)" style="stroke: #000000"/>
    <path d="M 56.007256 36.529397 
C 56.007256 36.529397 56.007256 36.529397 56.007256 36.529397 
C 56.007256 36.529397 56.007256 36.529397 56.007256 36.529397 
C 56.007256 36.529397 56.007256 36.529397 56.007256 36.529397 
C 56.007256 36.529397 56.007256 36.529397 56.007256 36.529397 
C 56.007256 36.529397 56.007256 36.529397 56.007256 36.529397 
C 56.007256 36.529397 56.007256 36.529397 56.007256 36.529397 
C 56.007256 36.529397 56.007256 36.529397 56.007256 36.529397 
C 56.007256 36.529397 56.007256 36.529397 56.007256 36.529397 
z
" clip-path="url(#pc4651db278)" style="stroke: #000000"/>
    <path d="M 89.139661 179.71017 
C 89.557667 179.71017 89.958609 179.544094 90.254184 179.248519 
C 90.54976 178.952944 90.715835 178.552002 90.715835 178.133996 
C 90.715835 177.715989 90.54976 177.315047 90.254184 177.019472 
C 89.958609 176.723897 89.557667 176.557821 89.139661 176.557821 
C 88.721654 176.557821 88.320712 176.723897 88.025137 177.019472 
C 87.729562 177.315047 87.563486 177.715989 87.563486 178.133996 
C 87.563486 178.552002 87.729562 178.952944 88.025137 179.248519 
C 88.320712 179.544094 88.721654 179.71017 89.139661 179.71017 
z
" clip-path="url(#pc4651db278)" style="stroke: #000000"/>
    <path d="M 86.575135 162.601576 
C 86.575135 162.601576 86.575135 162.601576 86.575135 162.601576 
C 86.575135 162.601576 86.575135 162.601576 86.575135 162.601576 
C 86.575135 162.601576 86.575135 162.601576 86.575135 162.601576 
C 86.575135 162.601576 86.575135 162.601576 86.575135 162.601576 
C 86.575135 162.601576 86.575135 162.601576 86.575135 162.601576 
C 86.575135 162.601576 86.575135 162.601576 86.575135 162.601576 
C 86.575135 162.601576 86.575135 162.601576 86.575135 162.601576 
C 86.575135 162.601576 86.575135 162.601576 86.575135 162.601576 
z
" clip-path="url(#pc4651db278)" style="stroke: #000000"/>
    <path d="M 81.627225 154.498472 
C 81.627225 154.498472 81.627225 154.498472 81.627225 154.498472 
C 81.627225 154.498472 81.627225 154.498472 81.627225 154.498472 
C 81.627225 154.498472 81.627225 154.498472 81.627225 154.498472 
C 81.627225 154.498472 81.627225 154.498472 81.627225 154.498472 
C 81.627225 154.498472 81.627225 154.498472 81.627225 154.498472 
C 81.627225 154.498472 81.627225 154.498472 81.627225 154.498472 
C 81.627225 154.498472 81.627225 154.498472 81.627225 154.498472 
C 81.627225 154.498472 81.627225 154.498472 81.627225 154.498472 
z
" clip-path="url(#pc4651db278)" style="stroke: #000000"/>
    <path d="M 82.17845 145.508429 
C 82.17845 145.508429 82.17845 145.508429 82.17845 145.508429 
C 82.17845 145.508429 82.17845 145.508429 82.17845 145.508429 
C 82.17845 145.508429 82.17845 145.508429 82.17845 145.508429 
C 82.17845 145.508429 82.17845 145.508429 82.17845 145.508429 
C 82.17845 145.508429 82.17845 145.508429 82.17845 145.508429 
C 82.17845 145.508429 82.17845 145.508429 82.17845 145.508429 
C 82.17845 145.508429 82.17845 145.508429 82.17845 145.508429 
C 82.17845 145.508429 82.17845 145.508429 82.17845 145.508429 
z
" clip-path="url(#pc4651db278)" style="stroke: #000000"/>
    <path d="M 76.088886 136.485435 
C 76.587704 136.485435 77.066158 136.287253 77.418875 135.934536 
C 77.771593 135.581818 77.969775 135.103364 77.969775 134.604546 
C 77.969775 134.105729 77.771593 133.627274 77.418875 133.274557 
C 77.066158 132.92184 76.587704 132.723658 76.088886 132.723658 
C 75.590069 132.723658 75.111614 132.92184 74.758897 133.274557 
C 74.40618 133.627274 74.207997 134.105729 74.207997 134.604546 
C 74.207997 135.103364 74.40618 135.581818 74.758897 135.934536 
C 75.111614 136.287253 75.590069 136.485435 76.088886 136.485435 
z
" clip-path="url(#pc4651db278)" style="stroke: #000000"/>
    <path d="M 68.598401 129.124472 
C 69.097063 129.124472 69.575368 128.926351 69.927975 128.573744 
C 70.280583 128.221137 70.478703 127.742832 70.478703 127.24417 
C 70.478703 126.745508 70.280583 126.267203 69.927975 125.914596 
C 69.575368 125.561989 69.097063 125.363869 68.598401 125.363869 
C 68.09974 125.363869 67.621435 125.561989 67.268827 125.914596 
C 66.91622 126.267203 66.7181 126.745508 66.7181 127.24417 
C 66.7181 127.742832 66.91622 128.221137 67.268827 128.573744 
C 67.621435 128.926351 68.09974 129.124472 68.598401 129.124472 
z
" clip-path="url(#pc4651db278)" style="stroke: #000000"/>
    <path d="M 68.505716 113.00097 
C 68.505716 113.00097 68.505716 113.00097 68.505716 113.00097 
C 68.505716 113.00097 68.505716 113.00097 68.505716 113.00097 
C 68.505716 113.00097 68.505716 113.00097 68.505716 113.00097 
C 68.505716 113.00097 68.505716 113.00097 68.505716 113.00097 
C 68.505716 113.00097 68.505716 113.00097 68.505716 113.00097 
C 68.505716 113.00097 68.505716 113.00097 68.505716 113.00097 
C 68.505716 113.00097 68.505716 113.00097 68.505716 113.00097 
C 68.505716 113.00097 68.505716 113.00097 68.505716 113.00097 
z
" clip-path="url(#pc4651db278)" style="stroke: #000000"/>
    <path d="M 63.032354 103.056731 
C 63.531015 103.056731 64.00932 102.85861 64.361927 102.506003 
C 64.714535 102.153396 64.912655 101.675091 64.912655 101.176429 
C 64.912655 100.677767 64.714535 100.199462 64.361927 99.846855 
C 64.00932 99.494248 63.531015 99.296128 63.032354 99.296128 
C 62.533692 99.296128 62.055387 99.494248 61.70278 99.846855 
C 61.350172 100.199462 61.152052 100.677767 61.152052 101.176429 
C 61.152052 101.675091 61.350172 102.153396 61.70278 102.506003 
C 62.055387 102.85861 62.533692 103.056731 63.032354 103.056731 
z
" clip-path="url(#pc4651db278)" style="stroke: #000000"/>
    <path d="M 60.173103 96.716213 
C 60.671921 96.716213 61.150375 96.518031 61.503092 96.165314 
C 61.85581 95.812596 62.053992 95.334142 62.053992 94.835324 
C 62.053992 94.336507 61.85581 93.858052 61.503092 93.505335 
C 61.150375 93.152618 60.671921 92.954436 60.173103 92.954436 
C 59.674285 92.954436 59.195831 93.152618 58.843114 93.505335 
C 58.490396 93.858052 58.292214 94.336507 58.292214 94.835324 
C 58.292214 95.334142 58.490396 95.812596 58.843114 96.165314 
C 59.195831 96.518031 59.674285 96.716213 60.173103 96.716213 
z
" clip-path="url(#pc4651db278)" style="stroke: #000000"/>
    <path d="M 57.158795 84.731229 
C 57.657612 84.731229 58.136067 84.533047 58.488784 84.18033 
C 58.841501 83.827613 59.039684 83.349158 59.039684 82.850341 
C 59.039684 82.351523 58.841501 81.873069 58.488784 81.520351 
C 58.136067 81.167634 57.657612 80.969452 57.158795 80.969452 
C 56.659977 80.969452 56.181523 81.167634 55.828805 81.520351 
C 55.476088 81.873069 55.277906 82.351523 55.277906 82.850341 
C 55.277906 83.349158 55.476088 83.827613 55.828805 84.18033 
C 56.181523 84.533047 56.659977 84.731229 57.158795 84.731229 
z
" clip-path="url(#pc4651db278)" style="stroke: #000000"/>
    <path d="M 49.906151 75.791928 
C 50.180223 75.791928 50.443107 75.683038 50.636905 75.48924 
C 50.830703 75.295442 50.939592 75.032558 50.939592 74.758487 
C 50.939592 74.484415 50.830703 74.221531 50.636905 74.027733 
C 50.443107 73.833935 50.180223 73.725045 49.906151 73.725045 
C 49.63208 73.725045 49.369196 73.833935 49.175398 74.027733 
C 48.9816 74.221531 48.87271 74.484415 48.87271 74.758487 
C 48.87271 75.032558 48.9816 75.295442 49.175398 75.48924 
C 49.369196 75.683038 49.63208 75.791928 49.906151 75.791928 
z
" clip-path="url(#pc4651db278)" style="stroke: #000000"/>
    <path d="M 50.189539 60.256666 
C 50.189539 60.256666 50.189539 60.256666 50.189539 60.256666 
C 50.189539 60.256666 50.189539 60.256666 50.189539 60.256666 
C 50.189539 60.256666 50.189539 60.256666 50.189539 60.256666 
C 50.189539 60.256666 50.189539 60.256666 50.189539 60.256666 
C 50.189539 60.256666 50.189539 60.256666 50.189539 60.256666 
C 50.189539 60.256666 50.189539 60.256666 50.189539 60.256666 
C 50.189539 60.256666 50.189539 60.256666 50.189539 60.256666 
C 50.189539 60.256666 50.189539 60.256666 50.189539 60.256666 
z
" clip-path="url(#pc4651db278)" style="stroke: #000000"/>
    <path d="M 50.707912 54.186176 
C 51.127235 54.186176 51.52944 54.019577 51.825946 53.723071 
C 52.122452 53.426565 52.289051 53.02436 52.289051 52.605037 
C 52.289051 52.185714 52.122452 51.783509 51.825946 51.487003 
C 51.52944 51.190497 51.127235 51.023898 50.707912 51.023898 
C 50.288589 51.023898 49.886384 51.190497 49.589878 51.487003 
C 49.293372 51.783509 49.126773 52.185714 49.126773 52.605037 
C 49.126773 53.02436 49.293372 53.426565 49.589878 53.723071 
C 49.886384 54.019577 50.288589 54.186176 50.707912 54.186176 
z
" clip-path="url(#pc4651db278)" style="stroke: #000000"/>
    <path d="M 46.106419 42.394455 
C 46.106419 42.394455 46.106419 42.394455 46.106419 42.394455 
C 46.106419 42.394455 46.106419 42.394455 46.106419 42.394455 
C 46.106419 42.394455 46.106419 42.394455 46.106419 42.394455 
C 46.106419 42.394455 46.106419 42.394455 46.106419 42.394455 
C 46.106419 42.394455 46.106419 42.394455 46.106419 42.394455 
C 46.106419 42.394455 46.106419 42.394455 46.106419 42.394455 
C 46.106419 42.394455 46.106419 42.394455 46.106419 42.394455 
C 46.106419 42.394455 46.106419 42.394455 46.106419 42.394455 
z
" clip-path="url(#pc4651db278)" style="stroke: #000000"/>
    <path d="M 72.456085 168.235191 
C 72.456085 168.235191 72.456085 168.235191 72.456085 168.235191 
C 72.456085 168.235191 72.456085 168.235191 72.456085 168.235191 
C 72.456085 168.235191 72.456085 168.235191 72.456085 168.235191 
C 72.456085 168.235191 72.456085 168.235191 72.456085 168.235191 
C 72.456085 168.235191 72.456085 168.235191 72.456085 168.235191 
C 72.456085 168.235191 72.456085 168.235191 72.456085 168.235191 
C 72.456085 168.235191 72.456085 168.235191 72.456085 168.235191 
C 72.456085 168.235191 72.456085 168.235191 72.456085 168.235191 
z
" clip-path="url(#pc4651db278)" style="stroke: #000000"/>
    <path d="M 70.039511 161.386628 
C 70.512217 161.386628 70.965627 161.19882 71.299881 160.864566 
C 71.634135 160.530312 71.821943 160.076902 71.821943 159.604196 
C 71.821943 159.131489 71.634135 158.678079 71.299881 158.343825 
C 70.965627 158.009571 70.512217 157.821763 70.039511 157.821763 
C 69.566804 157.821763 69.113394 158.009571 68.77914 158.343825 
C 68.444886 158.678079 68.257078 159.131489 68.257078 159.604196 
C 68.257078 160.076902 68.444886 160.530312 68.77914 160.864566 
C 69.113394 161.19882 69.566804 161.386628 70.039511 161.386628 
z
" clip-path="url(#pc4651db278)" style="stroke: #000000"/>
    <path d="M 63.480503 147.180643 
C 63.480503 147.180643 63.480503 147.180643 63.480503 147.180643 
C 63.480503 147.180643 63.480503 147.180643 63.480503 147.180643 
C 63.480503 147.180643 63.480503 147.180643 63.480503 147.180643 
C 63.480503 147.180643 63.480503 147.180643 63.480503 147.180643 
C 63.480503 147.180643 63.480503 147.180643 63.480503 147.180643 
C 63.480503 147.180643 63.480503 147.180643 63.480503 147.180643 
C 63.480503 147.180643 63.480503 147.180643 63.480503 147.180643 
C 63.480503 147.180643 63.480503 147.180643 63.480503 147.180643 
z
" clip-path="url(#pc4651db278)" style="stroke: #000000"/>
    <path d="M 63.460086 133.378404 
C 63.460086 133.378404 63.460086 133.378404 63.460086 133.378404 
C 63.460086 133.378404 63.460086 133.378404 63.460086 133.378404 
C 63.460086 133.378404 63.460086 133.378404 63.460086 133.378404 
C 63.460086 133.378404 63.460086 133.378404 63.460086 133.378404 
C 63.460086 133.378404 63.460086 133.378404 63.460086 133.378404 
C 63.460086 133.378404 63.460086 133.378404 63.460086 133.378404 
C 63.460086 133.378404 63.460086 133.378404 63.460086 133.378404 
C 63.460086 133.378404 63.460086 133.378404 63.460086 133.378404 
z
" clip-path="url(#pc4651db278)" style="stroke: #000000"/>
    <path d="M 62.007282 125.415114 
C 62.007282 125.415114 62.007282 125.415114 62.007282 125.415114 
C 62.007282 125.415114 62.007282 125.415114 62.007282 125.415114 
C 62.007282 125.415114 62.007282 125.415114 62.007282 125.415114 
C 62.007282 125.415114 62.007282 125.415114 62.007282 125.415114 
C 62.007282 125.415114 62.007282 125.415114 62.007282 125.415114 
C 62.007282 125.415114 62.007282 125.415114 62.007282 125.415114 
C 62.007282 125.415114 62.007282 125.415114 62.007282 125.415114 
C 62.007282 125.415114 62.007282 125.415114 62.007282 125.415114 
z
" clip-path="url(#pc4651db278)" style="stroke: #000000"/>
    <path d="M 57.893096 119.124503 
C 58.391914 119.124503 58.870368 118.926321 59.223086 118.573604 
C 59.575803 118.220886 59.773985 117.742432 59.773985 117.243614 
C 59.773985 116.744797 59.575803 116.266342 59.223086 115.913625 
C 58.870368 115.560908 58.391914 115.362725 57.893096 115.362725 
C 57.394279 115.362725 56.915824 115.560908 56.563107 115.913625 
C 56.21039 116.266342 56.012208 116.744797 56.012208 117.243614 
C 56.012208 117.742432 56.21039 118.220886 56.563107 118.573604 
C 56.915824 118.926321 57.394279 119.124503 57.893096 119.124503 
z
" clip-path="url(#pc4651db278)" style="stroke: #000000"/>
    <path d="M 56.280468 107.599852 
C 56.699791 107.599852 57.101996 107.433254 57.398502 107.136748 
C 57.695008 106.840241 57.861607 106.438037 57.861607 106.018714 
C 57.861607 105.599391 57.695008 105.197186 57.398502 104.90068 
C 57.101996 104.604174 56.699791 104.437575 56.280468 104.437575 
C 55.861145 104.437575 55.45894 104.604174 55.162434 104.90068 
C 54.865928 105.197186 54.699329 105.599391 54.699329 106.018714 
C 54.699329 106.438037 54.865928 106.840241 55.162434 107.136748 
C 55.45894 107.433254 55.861145 107.599852 56.280468 107.599852 
z
" clip-path="url(#pc4651db278)" style="stroke: #000000"/>
    <path d="M 55.520341 94.470936 
C 55.919974 94.470936 56.303294 94.31216 56.585878 94.029577 
C 56.868461 93.746993 57.027237 93.363673 57.027237 92.96404 
C 57.027237 92.564406 56.868461 92.181086 56.585878 91.898503 
C 56.303294 91.615919 55.919974 91.457143 55.520341 91.457143 
C 55.120707 91.457143 54.737388 91.615919 54.454804 91.898503 
C 54.17222 92.181086 54.013444 92.564406 54.013444 92.96404 
C 54.013444 93.363673 54.17222 93.746993 54.454804 94.029577 
C 54.737388 94.31216 55.120707 94.470936 55.520341 94.470936 
z
" clip-path="url(#pc4651db278)" style="stroke: #000000"/>
    <path d="M 47.249104 86.448806 
C 47.626696 86.448806 47.988873 86.298787 48.255871 86.031789 
C 48.522869 85.764791 48.672887 85.402614 48.672887 85.025022 
C 48.672887 84.64743 48.522869 84.285253 48.255871 84.018255 
C 47.988873 83.751258 47.626696 83.601239 47.249104 83.601239 
C 46.871512 83.601239 46.509335 83.751258 46.242337 84.018255 
C 45.975339 84.285253 45.82532 84.64743 45.82532 85.025022 
C 45.82532 85.402614 45.975339 85.764791 46.242337 86.031789 
C 46.509335 86.298787 46.871512 86.448806 47.249104 86.448806 
z
" clip-path="url(#pc4651db278)" style="stroke: #000000"/>
    <path d="M 43.908216 77.314953 
C 44.407034 77.314953 44.885488 77.116771 45.238205 76.764053 
C 45.590923 76.411336 45.789105 75.932882 45.789105 75.434064 
C 45.789105 74.935246 45.590923 74.456792 45.238205 74.104075 
C 44.885488 73.751357 44.407034 73.553175 43.908216 73.553175 
C 43.409399 73.553175 42.930944 73.751357 42.578227 74.104075 
C 42.22551 74.456792 42.027327 74.935246 42.027327 75.434064 
C 42.027327 75.932882 42.22551 76.411336 42.578227 76.764053 
C 42.930944 77.116771 43.409399 77.314953 43.908216 77.314953 
z
" clip-path="url(#pc4651db278)" style="stroke: #000000"/>
    <path d="M 38.239809 69.436708 
C 38.673569 69.436708 39.089622 69.264373 39.396337 68.957658 
C 39.703052 68.650943 39.875387 68.23489 39.875387 67.80113 
C 39.875387 67.367369 39.703052 66.951316 39.396337 66.644601 
C 39.089622 66.337886 38.673569 66.165551 38.239809 66.165551 
C 37.806048 66.165551 37.389995 66.337886 37.08328 66.644601 
C 36.776565 66.951316 36.60423 67.367369 36.60423 67.80113 
C 36.60423 68.23489 36.776565 68.650943 37.08328 68.957658 
C 37.389995 69.264373 37.806048 69.436708 38.239809 69.436708 
z
" clip-path="url(#pc4651db278)" style="stroke: #000000"/>
    <path d="M 63.564553 175.64832 
C 63.983876 175.64832 64.386081 175.481721 64.682587 175.185215 
C 64.979093 174.888709 65.145692 174.486504 65.145692 174.067181 
C 65.145692 173.647858 64.979093 173.245653 64.682587 172.949147 
C 64.386081 172.652641 63.983876 172.486043 63.564553 172.486043 
C 63.145231 172.486043 62.743026 172.652641 62.446519 172.949147 
C 62.150013 173.245653 61.983415 173.647858 61.983415 174.067181 
C 61.983415 174.486504 62.150013 174.888709 62.446519 175.185215 
C 62.743026 175.481721 63.145231 175.64832 63.564553 175.64832 
z
" clip-path="url(#pc4651db278)" style="stroke: #000000"/>
    <path d="M 57.802835 163.143925 
C 57.802835 163.143925 57.802835 163.143925 57.802835 163.143925 
C 57.802835 163.143925 57.802835 163.143925 57.802835 163.143925 
C 57.802835 163.143925 57.802835 163.143925 57.802835 163.143925 
C 57.802835 163.143925 57.802835 163.143925 57.802835 163.143925 
C 57.802835 163.143925 57.802835 163.143925 57.802835 163.143925 
C 57.802835 163.143925 57.802835 163.143925 57.802835 163.143925 
C 57.802835 163.143925 57.802835 163.143925 57.802835 163.143925 
C 57.802835 163.143925 57.802835 163.143925 57.802835 163.143925 
z
" clip-path="url(#pc4651db278)" style="stroke: #000000"/>
    <path d="M 59.548097 151.520837 
C 60.045507 151.520837 60.522612 151.323214 60.874335 150.971492 
C 61.226057 150.619769 61.42368 150.142664 61.42368 149.645254 
C 61.42368 149.147844 61.226057 148.670739 60.874335 148.319017 
C 60.522612 147.967294 60.045507 147.769671 59.548097 147.769671 
C 59.050687 147.769671 58.573582 147.967294 58.22186 148.319017 
C 57.870137 148.670739 57.672514 149.147844 57.672514 149.645254 
C 57.672514 150.142664 57.870137 150.619769 58.22186 150.971492 
C 58.573582 151.323214 59.050687 151.520837 59.548097 151.520837 
z
" clip-path="url(#pc4651db278)" style="stroke: #000000"/>
    <path d="M 57.302854 142.540656 
C 57.302854 142.540656 57.302854 142.540656 57.302854 142.540656 
C 57.302854 142.540656 57.302854 142.540656 57.302854 142.540656 
C 57.302854 142.540656 57.302854 142.540656 57.302854 142.540656 
C 57.302854 142.540656 57.302854 142.540656 57.302854 142.540656 
C 57.302854 142.540656 57.302854 142.540656 57.302854 142.540656 
C 57.302854 142.540656 57.302854 142.540656 57.302854 142.540656 
C 57.302854 142.540656 57.302854 142.540656 57.302854 142.540656 
C 57.302854 142.540656 57.302854 142.540656 57.302854 142.540656 
z
" clip-path="url(#pc4651db278)" style="stroke: #000000"/>
    <path d="M 51.042678 133.032264 
C 51.54134 133.032264 52.019645 132.834143 52.372252 132.481536 
C 52.724859 132.128929 52.922979 131.650624 52.922979 131.151962 
C 52.922979 130.6533 52.724859 130.174995 52.372252 129.822388 
C 52.019645 129.469781 51.54134 129.271661 51.042678 129.271661 
C 50.544016 129.271661 50.065711 129.469781 49.713104 129.822388 
C 49.360497 130.174995 49.162376 130.6533 49.162376 131.151962 
C 49.162376 131.650624 49.360497 132.128929 49.713104 132.481536 
C 50.065711 132.834143 50.544016 133.032264 51.042678 133.032264 
z
" clip-path="url(#pc4651db278)" style="stroke: #000000"/>
    <path d="M 46.960036 121.369326 
C 47.349281 121.369326 47.722636 121.214677 47.997873 120.93944 
C 48.273111 120.664202 48.427759 120.290847 48.427759 119.901603 
C 48.427759 119.512358 48.273111 119.139003 47.997873 118.863766 
C 47.722636 118.588528 47.349281 118.43388 46.960036 118.43388 
C 46.570792 118.43388 46.197437 118.588528 45.922199 118.863766 
C 45.646962 119.139003 45.492313 119.512358 45.492313 119.901603 
C 45.492313 120.290847 45.646962 120.664202 45.922199 120.93944 
C 46.197437 121.214677 46.570792 121.369326 46.960036 121.369326 
z
" clip-path="url(#pc4651db278)" style="stroke: #000000"/>
    <path d="M 39.627589 108.739133 
C 39.627589 108.739133 39.627589 108.739133 39.627589 108.739133 
C 39.627589 108.739133 39.627589 108.739133 39.627589 108.739133 
C 39.627589 108.739133 39.627589 108.739133 39.627589 108.739133 
C 39.627589 108.739133 39.627589 108.739133 39.627589 108.739133 
C 39.627589 108.739133 39.627589 108.739133 39.627589 108.739133 
C 39.627589 108.739133 39.627589 108.739133 39.627589 108.739133 
C 39.627589 108.739133 39.627589 108.739133 39.627589 108.739133 
C 39.627589 108.739133 39.627589 108.739133 39.627589 108.739133 
z
" clip-path="url(#pc4651db278)" style="stroke: #000000"/>
    <path d="M 38.312689 100.677134 
C 38.312689 100.677134 38.312689 100.677134 38.312689 100.677134 
C 38.312689 100.677134 38.312689 100.677134 38.312689 100.677134 
C 38.312689 100.677134 38.312689 100.677134 38.312689 100.677134 
C 38.312689 100.677134 38.312689 100.677134 38.312689 100.677134 
C 38.312689 100.677134 38.312689 100.677134 38.312689 100.677134 
C 38.312689 100.677134 38.312689 100.677134 38.312689 100.677134 
C 38.312689 100.677134 38.312689 100.677134 38.312689 100.677134 
C 38.312689 100.677134 38.312689 100.677134 38.312689 100.677134 
z
" clip-path="url(#pc4651db278)" style="stroke: #000000"/>
    <path d="M 35.588479 90.510831 
C 35.588479 90.510831 35.588479 90.510831 35.588479 90.510831 
C 35.588479 90.510831 35.588479 90.510831 35.588479 90.510831 
C 35.588479 90.510831 35.588479 90.510831 35.588479 90.510831 
C 35.588479 90.510831 35.588479 90.510831 35.588479 90.510831 
C 35.588479 90.510831 35.588479 90.510831 35.588479 90.510831 
C 35.588479 90.510831 35.588479 90.510831 35.588479 90.510831 
C 35.588479 90.510831 35.588479 90.510831 35.588479 90.510831 
C 35.588479 90.510831 35.588479 90.510831 35.588479 90.510831 
z
" clip-path="url(#pc4651db278)" style="stroke: #000000"/>
    <path d="M 34.625225 81.701837 
C 34.625225 81.701837 34.625225 81.701837 34.625225 81.701837 
C 34.625225 81.701837 34.625225 81.701837 34.625225 81.701837 
C 34.625225 81.701837 34.625225 81.701837 34.625225 81.701837 
C 34.625225 81.701837 34.625225 81.701837 34.625225 81.701837 
C 34.625225 81.701837 34.625225 81.701837 34.625225 81.701837 
C 34.625225 81.701837 34.625225 81.701837 34.625225 81.701837 
C 34.625225 81.701837 34.625225 81.701837 34.625225 81.701837 
C 34.625225 81.701837 34.625225 81.701837 34.625225 81.701837 
z
" clip-path="url(#pc4651db278)" style="stroke: #000000"/>
    <path d="M 51.423964 164.703109 
C 51.843287 164.703109 52.245492 164.53651 52.541998 164.240004 
C 52.838504 163.943498 53.005103 163.541293 53.005103 163.12197 
C 53.005103 162.702647 52.838504 162.300442 52.541998 162.003936 
C 52.245492 161.70743 51.843287 161.540831 51.423964 161.540831 
C 51.004641 161.540831 50.602436 161.70743 50.30593 162.003936 
C 50.009424 162.300442 49.842825 162.702647 49.842825 163.12197 
C 49.842825 163.541293 50.009424 163.943498 50.30593 164.240004 
C 50.602436 164.53651 51.004641 164.703109 51.423964 164.703109 
z
" clip-path="url(#pc4651db278)" style="stroke: #000000"/>
    <path d="M 43.406007 153.782617 
C 43.406007 153.782617 43.406007 153.782617 43.406007 153.782617 
C 43.406007 153.782617 43.406007 153.782617 43.406007 153.782617 
C 43.406007 153.782617 43.406007 153.782617 43.406007 153.782617 
C 43.406007 153.782617 43.406007 153.782617 43.406007 153.782617 
C 43.406007 153.782617 43.406007 153.782617 43.406007 153.782617 
C 43.406007 153.782617 43.406007 153.782617 43.406007 153.782617 
C 43.406007 153.782617 43.406007 153.782617 43.406007 153.782617 
C 43.406007 153.782617 43.406007 153.782617 43.406007 153.782617 
z
" clip-path="url(#pc4651db278)" style="stroke: #000000"/>
    <path d="M 41.761326 146.945813 
C 42.227876 146.945813 42.675381 146.760451 43.005282 146.43055 
C 43.335183 146.100649 43.520545 145.653144 43.520545 145.186593 
C 43.520545 144.720043 43.335183 144.272538 43.005282 143.942637 
C 42.675381 143.612736 42.227876 143.427374 41.761326 143.427374 
C 41.294775 143.427374 40.84727 143.612736 40.517369 143.942637 
C 40.187468 144.272538 40.002106 144.720043 40.002106 145.186593 
C 40.002106 145.653144 40.187468 146.100649 40.517369 146.43055 
C 40.84727 146.760451 41.294775 146.945813 41.761326 146.945813 
z
" clip-path="url(#pc4651db278)" style="stroke: #000000"/>
    <path d="M 39.205649 134.864739 
C 39.525847 134.864739 39.832973 134.737523 40.059387 134.511109 
C 40.285801 134.284695 40.413017 133.977569 40.413017 133.657371 
C 40.413017 133.337173 40.285801 133.030047 40.059387 132.803633 
C 39.832973 132.577218 39.525847 132.450003 39.205649 132.450003 
C 38.885451 132.450003 38.578325 132.577218 38.351911 132.803633 
C 38.125497 133.030047 37.998281 133.337173 37.998281 133.657371 
C 37.998281 133.977569 38.125497 134.284695 38.351911 134.511109 
C 38.578325 134.737523 38.885451 134.864739 39.205649 134.864739 
z
" clip-path="url(#pc4651db278)" style="stroke: #000000"/>
    <path d="M 33.139853 122.156519 
C 33.139853 122.156519 33.139853 122.156519 33.139853 122.156519 
C 33.139853 122.156519 33.139853 122.156519 33.139853 122.156519 
C 33.139853 122.156519 33.139853 122.156519 33.139853 122.156519 
C 33.139853 122.156519 33.139853 122.156519 33.139853 122.156519 
C 33.139853 122.156519 33.139853 122.156519 33.139853 122.156519 
C 33.139853 122.156519 33.139853 122.156519 33.139853 122.156519 
C 33.139853 122.156519 33.139853 122.156519 33.139853 122.156519 
C 33.139853 122.156519 33.139853 122.156519 33.139853 122.156519 
z
" clip-path="url(#pc4651db278)" style="stroke: #000000"/>
    <path d="M 32.651279 116.524073 
C 33.150097 116.524073 33.628551 116.325891 33.981268 115.973174 
C 34.333986 115.620457 34.532168 115.142002 34.532168 114.643185 
C 34.532168 114.144367 34.333986 113.665913 33.981268 113.313195 
C 33.628551 112.960478 33.150097 112.762296 32.651279 112.762296 
C 32.152462 112.762296 31.674007 112.960478 31.32129 113.313195 
C 30.968573 113.665913 30.77039 114.144367 30.77039 114.643185 
C 30.77039 115.142002 30.968573 115.620457 31.32129 115.973174 
C 31.674007 116.325891 32.152462 116.524073 32.651279 116.524073 
z
" clip-path="url(#pc4651db278)" style="stroke: #000000"/>
    <path d="M 30.927624 106.807731 
C 31.426441 106.807731 31.904896 106.609548 32.257613 106.256831 
C 32.61033 105.904114 32.808513 105.425659 32.808513 104.926842 
C 32.808513 104.428024 32.61033 103.94957 32.257613 103.596853 
C 31.904896 103.244135 31.426441 103.045953 30.927624 103.045953 
C 30.428806 103.045953 29.950352 103.244135 29.597634 103.596853 
C 29.244917 103.94957 29.046735 104.428024 29.046735 104.926842 
C 29.046735 105.425659 29.244917 105.904114 29.597634 106.256831 
C 29.950352 106.609548 30.428806 106.807731 30.927624 106.807731 
z
" clip-path="url(#pc4651db278)" style="stroke: #000000"/>
    <path d="M 37.153369 169.530533 
C 37.572692 169.530533 37.974897 169.363935 38.271403 169.067429 
C 38.567909 168.770923 38.734508 168.368718 38.734508 167.949395 
C 38.734508 167.530072 38.567909 167.127867 38.271403 166.831361 
C 37.974897 166.534855 37.572692 166.368256 37.153369 166.368256 
C 36.734046 166.368256 36.331841 166.534855 36.035335 166.831361 
C 35.738829 167.127867 35.57223 167.530072 35.57223 167.949395 
C 35.57223 168.368718 35.738829 168.770923 36.035335 169.067429 
C 36.331841 169.363935 36.734046 169.530533 37.153369 169.530533 
z
" clip-path="url(#pc4651db278)" style="stroke: #000000"/>
    <path d="M 35.09753 159.198505 
C 35.09753 159.198505 35.09753 159.198505 35.09753 159.198505 
C 35.09753 159.198505 35.09753 159.198505 35.09753 159.198505 
C 35.09753 159.198505 35.09753 159.198505 35.09753 159.198505 
C 35.09753 159.198505 35.09753 159.198505 35.09753 159.198505 
C 35.09753 159.198505 35.09753 159.198505 35.09753 159.198505 
C 35.09753 159.198505 35.09753 159.198505 35.09753 159.198505 
C 35.09753 159.198505 35.09753 159.198505 35.09753 159.198505 
C 35.09753 159.198505 35.09753 159.198505 35.09753 159.198505 
z
" clip-path="url(#pc4651db278)" style="stroke: #000000"/>
    <path d="M 32.924392 151.895114 
C 32.924392 151.895114 32.924392 151.895114 32.924392 151.895114 
C 32.924392 151.895114 32.924392 151.895114 32.924392 151.895114 
C 32.924392 151.895114 32.924392 151.895114 32.924392 151.895114 
C 32.924392 151.895114 32.924392 151.895114 32.924392 151.895114 
C 32.924392 151.895114 32.924392 151.895114 32.924392 151.895114 
C 32.924392 151.895114 32.924392 151.895114 32.924392 151.895114 
C 32.924392 151.895114 32.924392 151.895114 32.924392 151.895114 
C 32.924392 151.895114 32.924392 151.895114 32.924392 151.895114 
z
" clip-path="url(#pc4651db278)" style="stroke: #000000"/>
    <path d="M 31.664398 135.992658 
C 31.758161 135.992658 31.848097 135.955406 31.914398 135.889105 
C 31.980698 135.822804 32.017951 135.732869 32.017951 135.639105 
C 32.017951 135.545342 31.980698 135.455406 31.914398 135.389105 
C 31.848097 135.322804 31.758161 135.285552 31.664398 135.285552 
C 31.570634 135.285552 31.480698 135.322804 31.414398 135.389105 
C 31.348097 135.455406 31.310844 135.545342 31.310844 135.639105 
C 31.310844 135.732869 31.348097 135.822804 31.414398 135.889105 
C 31.480698 135.955406 31.570634 135.992658 31.664398 135.992658 
z
" clip-path="url(#pc4651db278)" style="stroke: #000000"/>
   </g>
   <g id="matplotlib.axis_1">
    <g id="xtick_1">
     <g id="line2d_1">
      <defs>
       <path id="m2e35c449c6" d="M 0 0 
L 0 3.5 
" style="stroke: #000000; stroke-width: 0.8"/>
      </defs>
      <g>
       <use xlink:href="#m2e35c449c6" x="18" y="189" style="stroke: #000000; stroke-width: 0.8"/>
      </g>
     </g>
     <g id="text_1">
      <!-- 10 -->
      <g transform="translate(7.447656 203.598437)scale(0.1 -0.1)">
       <defs>
        <path id="DejaVuSans-2212" d="M 678 2272 
L 4684 2272 
L 4684 1741 
L 678 1741 
L 678 2272 
z
" transform="scale(0.015625)"/>
        <path id="DejaVuSans-31" d="M 794 531 
L 1825 531 
L 1825 4091 
L 703 3866 
L 703 4441 
L 1819 4666 
L 2450 4666 
L 2450 531 
L 3481 531 
L 3481 0 
L 794 0 
L 794 531 
z
" transform="scale(0.015625)"/>
        <path id="DejaVuSans-30" d="M 2034 4250 
Q 1547 4250 1301 3770 
Q 1056 3291 1056 2328 
Q 1056 1369 1301 889 
Q 1547 409 2034 409 
Q 2525 409 2770 889 
Q 3016 1369 3016 2328 
Q 3016 3291 2770 3770 
Q 2525 4250 2034 4250 
z
M 2034 4750 
Q 2819 4750 3233 4129 
Q 3647 3509 3647 2328 
Q 3647 1150 3233 529 
Q 2819 -91 2034 -91 
Q 1250 -91 836 529 
Q 422 1150 422 2328 
Q 422 3509 836 4129 
Q 1250 4750 2034 4750 
z
" transform="scale(0.015625)"/>
       </defs>
       <use xlink:href="#DejaVuSans-2212"/>
       <use xlink:href="#DejaVuSans-31" x="83.789062"/>
       <use xlink:href="#DejaVuSans-30" x="147.412109"/>
      </g>
     </g>
    </g>
    <g id="xtick_2">
     <g id="line2d_2">
      <g>
       <use xlink:href="#m2e35c449c6" x="73.8" y="189" style="stroke: #000000; stroke-width: 0.8"/>
      </g>
     </g>
     <g id="text_2">
      <!-- 0 -->
      <g transform="translate(70.61875 203.598437)scale(0.1 -0.1)">
       <use xlink:href="#DejaVuSans-30"/>
      </g>
     </g>
    </g>
    <g id="xtick_3">
     <g id="line2d_3">
      <g>
       <use xlink:href="#m2e35c449c6" x="129.6" y="189" style="stroke: #000000; stroke-width: 0.8"/>
      </g>
     </g>
     <g id="text_3">
      <!-- 10 -->
      <g transform="translate(123.2375 203.598437)scale(0.1 -0.1)">
       <use xlink:href="#DejaVuSans-31"/>
       <use xlink:href="#DejaVuSans-30" x="63.623047"/>
      </g>
     </g>
    </g>
   </g>
   <g id="matplotlib.axis_2">
    <g id="ytick_1">
     <g id="line2d_4">
      <defs>
       <path id="m42f041c0e4" d="M 0 0 
L -3.5 0 
" style="stroke: #000000; stroke-width: 0.8"/>
      </defs>
      <g>
       <use xlink:href="#m42f041c0e4" x="18" y="189" style="stroke: #000000; stroke-width: 0.8"/>
      </g>
     </g>
     <g id="text_4">
      <!-- 15 -->
      <g transform="translate(-10.104688 192.799219)scale(0.1 -0.1)">
       <defs>
        <path id="DejaVuSans-35" d="M 691 4666 
L 3169 4666 
L 3169 4134 
L 1269 4134 
L 1269 2991 
Q 1406 3038 1543 3061 
Q 1681 3084 1819 3084 
Q 2600 3084 3056 2656 
Q 3513 2228 3513 1497 
Q 3513 744 3044 326 
Q 2575 -91 1722 -91 
Q 1428 -91 1123 -41 
Q 819 9 494 109 
L 494 744 
Q 775 591 1075 516 
Q 1375 441 1709 441 
Q 2250 441 2565 725 
Q 2881 1009 2881 1497 
Q 2881 1984 2565 2268 
Q 2250 2553 1709 2553 
Q 1456 2553 1204 2497 
Q 953 2441 691 2322 
L 691 4666 
z
" transform="scale(0.015625)"/>
       </defs>
       <use xlink:href="#DejaVuSans-2212"/>
       <use xlink:href="#DejaVuSans-31" x="83.789062"/>
       <use xlink:href="#DejaVuSans-35" x="147.412109"/>
      </g>
     </g>
    </g>
    <g id="ytick_2">
     <g id="line2d_5">
      <g>
       <use xlink:href="#m42f041c0e4" x="18" y="161.82" style="stroke: #000000; stroke-width: 0.8"/>
      </g>
     </g>
     <g id="text_5">
      <!-- 10 -->
      <g transform="translate(-10.104688 165.619219)scale(0.1 -0.1)">
       <use xlink:href="#DejaVuSans-2212"/>
       <use xlink:href="#DejaVuSans-31" x="83.789062"/>
       <use xlink:href="#DejaVuSans-30" x="147.412109"/>
      </g>
     </g>
    </g>
    <g id="ytick_3">
     <g id="line2d_6">
      <g>
       <use xlink:href="#m42f041c0e4" x="18" y="134.64" style="stroke: #000000; stroke-width: 0.8"/>
      </g>
     </g>
     <g id="text_6">
      <!-- 5 -->
      <g transform="translate(-3.742188 138.439219)scale(0.1 -0.1)">
       <use xlink:href="#DejaVuSans-2212"/>
       <use xlink:href="#DejaVuSans-35" x="83.789062"/>
      </g>
     </g>
    </g>
    <g id="ytick_4">
     <g id="line2d_7">
      <g>
       <use xlink:href="#m42f041c0e4" x="18" y="107.46" style="stroke: #000000; stroke-width: 0.8"/>
      </g>
     </g>
     <g id="text_7">
      <!-- 0 -->
      <g transform="translate(4.6375 111.259219)scale(0.1 -0.1)">
       <use xlink:href="#DejaVuSans-30"/>
      </g>
     </g>
    </g>
    <g id="ytick_5">
     <g id="line2d_8">
      <g>
       <use xlink:href="#m42f041c0e4" x="18" y="80.28" style="stroke: #000000; stroke-width: 0.8"/>
      </g>
     </g>
     <g id="text_8">
      <!-- 5 -->
      <g transform="translate(4.6375 84.079219)scale(0.1 -0.1)">
       <use xlink:href="#DejaVuSans-35"/>
      </g>
     </g>
    </g>
    <g id="ytick_6">
     <g id="line2d_9">
      <g>
       <use xlink:href="#m42f041c0e4" x="18" y="53.1" style="stroke: #000000; stroke-width: 0.8"/>
      </g>
     </g>
     <g id="text_9">
      <!-- 10 -->
      <g transform="translate(-1.725 56.899219)scale(0.1 -0.1)">
       <use xlink:href="#DejaVuSans-31"/>
       <use xlink:href="#DejaVuSans-30" x="63.623047"/>
      </g>
     </g>
    </g>
    <g id="ytick_7">
     <g id="line2d_10">
      <g>
       <use xlink:href="#m42f041c0e4" x="18" y="25.92" style="stroke: #000000; stroke-width: 0.8"/>
      </g>
     </g>
     <g id="text_10">
      <!-- 15 -->
      <g transform="translate(-1.725 29.719219)scale(0.1 -0.1)">
       <use xlink:href="#DejaVuSans-31"/>
       <use xlink:href="#DejaVuSans-35" x="63.623047"/>
      </g>
     </g>
    </g>
   </g>
   <g id="patch_3">
    <path d="M 18 189 
L 18 25.92 
" style="fill: none; stroke: #000000; stroke-width: 0.8; stroke-linejoin: miter; stroke-linecap: square"/>
   </g>
   <g id="patch_4">
    <path d="M 129.6 189 
L 129.6 25.92 
" style="fill: none; stroke: #000000; stroke-width: 0.8; stroke-linejoin: miter; stroke-linecap: square"/>
   </g>
   <g id="patch_5">
    <path d="M 18 189 
L 129.6 189 
" style="fill: none; stroke: #000000; stroke-width: 0.8; stroke-linejoin: miter; stroke-linecap: square"/>
   </g>
   <g id="patch_6">
    <path d="M 18 25.92 
L 129.6 25.92 
" style="fill: none; stroke: #000000; stroke-width: 0.8; stroke-linejoin: miter; stroke-linecap: square"/>
   </g>
  </g>
 </g>
 <defs>
  <clipPath id="pc4651db278">
   <rect x="18" y="25.92" width="111.6" height="163.08"/>
  </clipPath>
 </defs>
</svg>
