<?xml version="1.0" encoding="utf-8" standalone="no"?>
<!DOCTYPE svg PUBLIC "-//W3C//DTD SVG 1.1//EN"
  "http://www.w3.org/Graphics/SVG/1.1/DTD/svg11.dtd">
<svg xmlns:xlink="http://www.w3.org/1999/xlink" width="144pt" height="216pt" viewBox="0 0 144 216" xmlns="http://www.w3.org/2000/svg" version="1.1">
 <metadata>
  <rdf:RDF xmlns:dc="http://purl.org/dc/elements/1.1/" xmlns:cc="http://creativecommons.org/ns#" xmlns:rdf="http://www.w3.org/1999/02/22-rdf-syntax-ns#">
   <cc:Work>
    <dc:type rdf:resource="http://purl.org/dc/dcmitype/StillImage"/>
    <dc:date>2022-06-23T12:14:07.586918</dc:date>
    <dc:format>image/svg+xml</dc:format>
    <dc:creator>
     <cc:Agent>
      <dc:title>Matplotlib v3.5.1, https://matplotlib.org/</dc:title>
     </cc:Agent>
    </dc:creator>
   </cc:Work>
  </rdf:RDF>
 </metadata>
 <defs>
  <style type="text/css">*{stroke-linejoin: round; stroke-linecap: butt}</style>
 </defs>
 <g id="figure_1">
  <g id="patch_1">
   <path d="M 0 216 
L 144 216 
L 144 0 
L 0 0 
L 0 216 
z
" style="fill: none"/>
  </g>
  <g id="axes_1">
   <g id="patch_2">
    <path d="M 18 189 
L 129.6 189 
L 129.6 25.92 
L 18 25.92 
z
" style="fill: #ffffff"/>
   </g>
   <g id="PathCollection_1">
    <defs>
     <path id="mdabc30ab31" d="M 0 2.738613 
C 0.726289 2.738613 1.422928 2.450055 1.936492 1.936492 
C 2.450055 1.422928 2.738613 0.726289 2.738613 0 
C 2.738613 -0.726289 2.450055 -1.422928 1.936492 -1.936492 
C 1.422928 -2.450055 0.726289 -2.738613 0 -2.738613 
C -0.726289 -2.738613 -1.422928 -2.450055 -1.936492 -1.936492 
C -2.450055 -1.422928 -2.738613 -0.726289 -2.738613 0 
C -2.738613 0.726289 -2.450055 1.422928 -1.936492 1.936492 
C -1.422928 2.450055 -0.726289 2.738613 0 2.738613 
z
" style="stroke: #ff0000; stroke-width: 1.75"/>
    </defs>
    <g clip-path="url(#p1c9ddac0d6)">
     <use xlink:href="#mdabc30ab31" x="80.775" y="83.92143" style="fill: #ff0000; stroke: #ff0000; stroke-width: 1.75"/>
     <use xlink:href="#mdabc30ab31" x="59.85" y="95.690715" style="fill: #ff0000; stroke: #ff0000; stroke-width: 1.75"/>
     <use xlink:href="#mdabc30ab31" x="66.825" y="107.46" style="fill: #ff0000; stroke: #ff0000; stroke-width: 1.75"/>
     <use xlink:href="#mdabc30ab31" x="80.775" y="107.46" style="fill: #ff0000; stroke: #ff0000; stroke-width: 1.75"/>
     <use xlink:href="#mdabc30ab31" x="94.725" y="107.46" style="fill: #ff0000; stroke: #ff0000; stroke-width: 1.75"/>
     <use xlink:href="#mdabc30ab31" x="59.85" y="119.229285" style="fill: #ff0000; stroke: #ff0000; stroke-width: 1.75"/>
     <use xlink:href="#mdabc30ab31" x="80.775" y="130.99857" style="fill: #ff0000; stroke: #ff0000; stroke-width: 1.75"/>
    </g>
   </g>
   <g id="PathCollection_2">
    <defs>
     <path id="C0_0_7f6cfb6246" d="M 0 2.738613 
C 0.726289 2.738613 1.422928 2.450055 1.936492 1.936492 
C 2.450055 1.422928 2.738613 0.726289 2.738613 -0 
C 2.738613 -0.726289 2.450055 -1.422928 1.936492 -1.936492 
C 1.422928 -2.450055 0.726289 -2.738613 0 -2.738613 
C -0.726289 -2.738613 -1.422928 -2.450055 -1.936492 -1.936492 
C -2.450055 -1.422928 -2.738613 -0.726289 -2.738613 0 
C -2.738613 0.726289 -2.450055 1.422928 -1.936492 1.936492 
C -1.422928 2.450055 -0.726289 2.738613 0 2.738613 
z
"/>
    </defs>
    <g clip-path="url(#p1c9ddac0d6)">
     <use xlink:href="#C0_0_7f6cfb6246" x="66.825" y="83.92143" style="fill: none; stroke: #ff0000; stroke-width: 1.75"/>
    </g>
    <g clip-path="url(#p1c9ddac0d6)">
     <use xlink:href="#C0_0_7f6cfb6246" x="73.8" y="95.690715" style="fill: none; stroke: #ff0000; stroke-width: 1.75"/>
    </g>
    <g clip-path="url(#p1c9ddac0d6)">
     <use xlink:href="#C0_0_7f6cfb6246" x="87.75" y="95.690715" style="fill: none; stroke: #ff0000; stroke-width: 1.75"/>
    </g>
    <g clip-path="url(#p1c9ddac0d6)">
     <use xlink:href="#C0_0_7f6cfb6246" x="52.875" y="107.46" style="fill: none; stroke: #ff0000; stroke-width: 1.75"/>
    </g>
    <g clip-path="url(#p1c9ddac0d6)">
     <use xlink:href="#C0_0_7f6cfb6246" x="73.8" y="119.229285" style="fill: none; stroke: #ff0000; stroke-width: 1.75"/>
    </g>
    <g clip-path="url(#p1c9ddac0d6)">
     <use xlink:href="#C0_0_7f6cfb6246" x="87.75" y="119.229285" style="fill: none; stroke: #ff0000; stroke-width: 1.75"/>
    </g>
    <g clip-path="url(#p1c9ddac0d6)">
     <use xlink:href="#C0_0_7f6cfb6246" x="66.825" y="130.99857" style="fill: none; stroke: #ff0000; stroke-width: 1.75"/>
    </g>
   </g>
   <g id="PathCollection_3">
    <path d="M 116.870537 125.544179 
C 117.575752 125.544179 118.252177 125.263995 118.750839 124.765333 
C 119.249501 124.266671 119.529685 123.590246 119.529685 122.885031 
C 119.529685 122.179817 119.249501 121.503392 118.750839 121.00473 
C 118.252177 120.506068 117.575752 120.225884 116.870537 120.225884 
C 116.165323 120.225884 115.488897 120.506068 114.990236 121.00473 
C 114.491574 121.503392 114.211389 122.179817 114.211389 122.885031 
C 114.211389 123.590246 114.491574 124.266671 114.990236 124.765333 
C 115.488897 125.263995 116.165323 125.544179 116.870537 125.544179 
z
" clip-path="url(#p1c9ddac0d6)" style="stroke: #000000"/>
    <path d="M 116.735658 111.967961 
C 117.441093 111.967961 118.117729 111.687688 118.616547 111.188871 
C 119.115364 110.690053 119.395637 110.013417 119.395637 109.307982 
C 119.395637 108.602547 119.115364 107.925911 118.616547 107.427093 
C 118.117729 106.928276 117.441093 106.648004 116.735658 106.648004 
C 116.030223 106.648004 115.353587 106.928276 114.854769 107.427093 
C 114.355952 107.925911 114.075679 108.602547 114.075679 109.307982 
C 114.075679 110.013417 114.355952 110.690053 114.854769 111.188871 
C 115.353587 111.687688 116.030223 111.967961 116.735658 111.967961 
z
" clip-path="url(#p1c9ddac0d6)" style="stroke: #000000"/>
    <path d="M 108.507857 103.668381 
C 109.213071 103.668381 109.889497 103.388197 110.388159 102.889535 
C 110.88682 102.390873 111.167005 101.714448 111.167005 101.009233 
C 111.167005 100.304019 110.88682 99.627593 110.388159 99.128932 
C 109.889497 98.63027 109.213071 98.350085 108.507857 98.350085 
C 107.802643 98.350085 107.126217 98.63027 106.627556 99.128932 
C 106.128894 99.627593 105.848709 100.304019 105.848709 101.009233 
C 105.848709 101.714448 106.128894 102.390873 106.627556 102.889535 
C 107.126217 103.388197 107.802643 103.668381 108.507857 103.668381 
z
" clip-path="url(#p1c9ddac0d6)" style="stroke: #000000"/>
    <path d="M 106.222175 91.298795 
C 106.92739 91.298795 107.603815 91.01861 108.102477 90.519949 
C 108.601139 90.021287 108.881323 89.344861 108.881323 88.639647 
C 108.881323 87.934433 108.601139 87.258007 108.102477 86.759346 
C 107.603815 86.260684 106.92739 85.980499 106.222175 85.980499 
C 105.516961 85.980499 104.840536 86.260684 104.341874 86.759346 
C 103.843212 87.258007 103.563028 87.934433 103.563028 88.639647 
C 103.563028 89.344861 103.843212 90.021287 104.341874 90.519949 
C 104.840536 91.01861 105.516961 91.298795 106.222175 91.298795 
z
" clip-path="url(#p1c9ddac0d6)" style="stroke: #000000"/>
    <path d="M 101.852818 77.639815 
C 102.558253 77.639815 103.234889 77.359543 103.733707 76.860725 
C 104.232524 76.361908 104.512797 75.685271 104.512797 74.979837 
C 104.512797 74.274402 104.232524 73.597765 103.733707 73.098948 
C 103.234889 72.60013 102.558253 72.319858 101.852818 72.319858 
C 101.147383 72.319858 100.470747 72.60013 99.971929 73.098948 
C 99.473112 73.597765 99.192839 74.274402 99.192839 74.979837 
C 99.192839 75.685271 99.473112 76.361908 99.971929 76.860725 
C 100.470747 77.359543 101.147383 77.639815 101.852818 77.639815 
z
" clip-path="url(#p1c9ddac0d6)" style="stroke: #000000"/>
    <path d="M 98.420698 72.05712 
C 98.930803 72.05712 99.420084 71.854453 99.780783 71.493755 
C 100.141481 71.133056 100.344148 70.643775 100.344148 70.13367 
C 100.344148 69.623564 100.141481 69.134283 99.780783 68.773585 
C 99.420084 68.412886 98.930803 68.210219 98.420698 68.210219 
C 97.910593 68.210219 97.421312 68.412886 97.060613 68.773585 
C 96.699914 69.134283 96.497247 69.623564 96.497247 70.13367 
C 96.497247 70.643775 96.699914 71.133056 97.060613 71.493755 
C 97.421312 71.854453 97.910593 72.05712 98.420698 72.05712 
z
" clip-path="url(#p1c9ddac0d6)" style="stroke: #000000"/>
    <path d="M 95.708108 60.442188 
C 95.882622 60.442188 96.050011 60.372853 96.173411 60.249453 
C 96.296811 60.126053 96.366145 59.958664 96.366145 59.784151 
C 96.366145 59.609637 96.296811 59.442248 96.173411 59.318848 
C 96.050011 59.195448 95.882622 59.126114 95.708108 59.126114 
C 95.533595 59.126114 95.366206 59.195448 95.242806 59.318848 
C 95.119406 59.442248 95.050071 59.609637 95.050071 59.784151 
C 95.050071 59.958664 95.119406 60.126053 95.242806 60.249453 
C 95.366206 60.372853 95.533595 60.442188 95.708108 60.442188 
z
" clip-path="url(#p1c9ddac0d6)" style="stroke: #000000"/>
    <path d="M 91.103235 48.877591 
C 91.103235 48.877591 91.103235 48.877591 91.103235 48.877591 
C 91.103235 48.877591 91.103235 48.877591 91.103235 48.877591 
C 91.103235 48.877591 91.103235 48.877591 91.103235 48.877591 
C 91.103235 48.877591 91.103235 48.877591 91.103235 48.877591 
C 91.103235 48.877591 91.103235 48.877591 91.103235 48.877591 
C 91.103235 48.877591 91.103235 48.877591 91.103235 48.877591 
C 91.103235 48.877591 91.103235 48.877591 91.103235 48.877591 
C 91.103235 48.877591 91.103235 48.877591 91.103235 48.877591 
z
" clip-path="url(#p1c9ddac0d6)" style="stroke: #000000"/>
    <path d="M 89.462567 43.277299 
C 90.055949 43.277299 90.625108 43.041546 91.044693 42.621961 
C 91.464278 42.202377 91.700031 41.633218 91.700031 41.039835 
C 91.700031 40.446453 91.464278 39.877294 91.044693 39.457709 
C 90.625108 39.038124 90.055949 38.802371 89.462567 38.802371 
C 88.869185 38.802371 88.300026 39.038124 87.880441 39.457709 
C 87.460856 39.877294 87.225103 40.446453 87.225103 41.039835 
C 87.225103 41.633218 87.460856 42.202377 87.880441 42.621961 
C 88.300026 43.041546 88.869185 43.277299 89.462567 43.277299 
z
" clip-path="url(#p1c9ddac0d6)" style="stroke: #000000"/>
    <path d="M 121.437119 165.955604 
C 121.437119 165.955604 121.437119 165.955604 121.437119 165.955604 
C 121.437119 165.955604 121.437119 165.955604 121.437119 165.955604 
C 121.437119 165.955604 121.437119 165.955604 121.437119 165.955604 
C 121.437119 165.955604 121.437119 165.955604 121.437119 165.955604 
C 121.437119 165.955604 121.437119 165.955604 121.437119 165.955604 
C 121.437119 165.955604 121.437119 165.955604 121.437119 165.955604 
C 121.437119 165.955604 121.437119 165.955604 121.437119 165.955604 
C 121.437119 165.955604 121.437119 165.955604 121.437119 165.955604 
z
" clip-path="url(#p1c9ddac0d6)" style="stroke: #000000"/>
    <path d="M 119.188315 153.8869 
C 119.781327 153.8869 120.350131 153.651294 120.769454 153.231971 
C 121.188777 152.812648 121.424383 152.243845 121.424383 151.650832 
C 121.424383 151.05782 121.188777 150.489017 120.769454 150.069694 
C 120.350131 149.650371 119.781327 149.414764 119.188315 149.414764 
C 118.595303 149.414764 118.026499 149.650371 117.607176 150.069694 
C 117.187854 150.489017 116.952247 151.05782 116.952247 151.650832 
C 116.952247 152.243845 117.187854 152.812648 117.607176 153.231971 
C 118.026499 153.651294 118.595303 153.8869 119.188315 153.8869 
z
" clip-path="url(#p1c9ddac0d6)" style="stroke: #000000"/>
    <path d="M 117.028277 146.051859 
C 117.62166 146.051859 118.190819 145.816106 118.610403 145.396521 
C 119.029988 144.976936 119.265742 144.407778 119.265742 143.814395 
C 119.265742 143.221013 119.029988 142.651854 118.610403 142.232269 
C 118.190819 141.812684 117.62166 141.576931 117.028277 141.576931 
C 116.434895 141.576931 115.865736 141.812684 115.446151 142.232269 
C 115.026566 142.651854 114.790813 143.221013 114.790813 143.814395 
C 114.790813 144.407778 115.026566 144.976936 115.446151 145.396521 
C 115.865736 145.816106 116.434895 146.051859 117.028277 146.051859 
z
" clip-path="url(#p1c9ddac0d6)" style="stroke: #000000"/>
    <path d="M 113.856431 134.062623 
C 114.129559 134.062623 114.391538 133.954108 114.584668 133.760977 
C 114.777799 133.567846 114.886314 133.305868 114.886314 133.032739 
C 114.886314 132.759611 114.777799 132.497633 114.584668 132.304502 
C 114.391538 132.111371 114.129559 132.002856 113.856431 132.002856 
C 113.583302 132.002856 113.321324 132.111371 113.128193 132.304502 
C 112.935062 132.497633 112.826547 132.759611 112.826547 133.032739 
C 112.826547 133.305868 112.935062 133.567846 113.128193 133.760977 
C 113.321324 133.954108 113.583302 134.062623 113.856431 134.062623 
z
" clip-path="url(#p1c9ddac0d6)" style="stroke: #000000"/>
    <path d="M 102.421802 124.312806 
C 102.421802 124.312806 102.421802 124.312806 102.421802 124.312806 
C 102.421802 124.312806 102.421802 124.312806 102.421802 124.312806 
C 102.421802 124.312806 102.421802 124.312806 102.421802 124.312806 
C 102.421802 124.312806 102.421802 124.312806 102.421802 124.312806 
C 102.421802 124.312806 102.421802 124.312806 102.421802 124.312806 
C 102.421802 124.312806 102.421802 124.312806 102.421802 124.312806 
C 102.421802 124.312806 102.421802 124.312806 102.421802 124.312806 
C 102.421802 124.312806 102.421802 124.312806 102.421802 124.312806 
z
" clip-path="url(#p1c9ddac0d6)" style="stroke: #000000"/>
    <path d="M 102.041508 112.217132 
C 102.602782 112.217132 103.141143 111.994136 103.538024 111.597255 
C 103.934904 111.200375 104.157901 110.662014 104.157901 110.10074 
C 104.157901 109.539466 103.934904 109.001105 103.538024 108.604224 
C 103.141143 108.207343 102.602782 107.984347 102.041508 107.984347 
C 101.480234 107.984347 100.941873 108.207343 100.544993 108.604224 
C 100.148112 109.001105 99.925116 109.539466 99.925116 110.10074 
C 99.925116 110.662014 100.148112 111.200375 100.544993 111.597255 
C 100.941873 111.994136 101.480234 112.217132 102.041508 112.217132 
z
" clip-path="url(#p1c9ddac0d6)" style="stroke: #000000"/>
    <path d="M 101.57867 108.14077 
C 102.284105 108.14077 102.960742 107.860497 103.459559 107.36168 
C 103.958377 106.862862 104.238649 106.186226 104.238649 105.480791 
C 104.238649 104.775357 103.958377 104.09872 103.459559 103.599902 
C 102.960742 103.101085 102.284105 102.820813 101.57867 102.820813 
C 100.873236 102.820813 100.196599 103.101085 99.697782 103.599902 
C 99.198964 104.09872 98.918692 104.775357 98.918692 105.480791 
C 98.918692 106.186226 99.198964 106.862862 99.697782 107.36168 
C 100.196599 107.860497 100.873236 108.14077 101.57867 108.14077 
z
" clip-path="url(#p1c9ddac0d6)" style="stroke: #000000"/>
    <path d="M 97.179733 92.63132 
C 97.885167 92.63132 98.561804 92.351048 99.060622 91.85223 
C 99.559439 91.353412 99.839711 90.676776 99.839711 89.971341 
C 99.839711 89.265907 99.559439 88.58927 99.060622 88.090452 
C 98.561804 87.591635 97.885167 87.311363 97.179733 87.311363 
C 96.474298 87.311363 95.797662 87.591635 95.298844 88.090452 
C 94.800026 88.58927 94.519754 89.265907 94.519754 89.971341 
C 94.519754 90.676776 94.800026 91.353412 95.298844 91.85223 
C 95.797662 92.351048 96.474298 92.63132 97.179733 92.63132 
z
" clip-path="url(#p1c9ddac0d6)" style="stroke: #000000"/>
    <path d="M 92.058438 85.30248 
C 92.058438 85.30248 92.058438 85.30248 92.058438 85.30248 
C 92.058438 85.30248 92.058438 85.30248 92.058438 85.30248 
C 92.058438 85.30248 92.058438 85.30248 92.058438 85.30248 
C 92.058438 85.30248 92.058438 85.30248 92.058438 85.30248 
C 92.058438 85.30248 92.058438 85.30248 92.058438 85.30248 
C 92.058438 85.30248 92.058438 85.30248 92.058438 85.30248 
C 92.058438 85.30248 92.058438 85.30248 92.058438 85.30248 
C 92.058438 85.30248 92.058438 85.30248 92.058438 85.30248 
z
" clip-path="url(#p1c9ddac0d6)" style="stroke: #000000"/>
    <path d="M 88.704682 74.943742 
C 89.409897 74.943742 90.086322 74.663557 90.584984 74.164896 
C 91.083646 73.666234 91.36383 72.989808 91.36383 72.284594 
C 91.36383 71.57938 91.083646 70.902954 90.584984 70.404293 
C 90.086322 69.905631 89.409897 69.625446 88.704682 69.625446 
C 87.999468 69.625446 87.323043 69.905631 86.824381 70.404293 
C 86.325719 70.902954 86.045534 71.57938 86.045534 72.284594 
C 86.045534 72.989808 86.325719 73.666234 86.824381 74.164896 
C 87.323043 74.663557 87.999468 74.943742 88.704682 74.943742 
z
" clip-path="url(#p1c9ddac0d6)" style="stroke: #000000"/>
    <path d="M 85.046749 59.845746 
C 85.046749 59.845746 85.046749 59.845746 85.046749 59.845746 
C 85.046749 59.845746 85.046749 59.845746 85.046749 59.845746 
C 85.046749 59.845746 85.046749 59.845746 85.046749 59.845746 
C 85.046749 59.845746 85.046749 59.845746 85.046749 59.845746 
C 85.046749 59.845746 85.046749 59.845746 85.046749 59.845746 
C 85.046749 59.845746 85.046749 59.845746 85.046749 59.845746 
C 85.046749 59.845746 85.046749 59.845746 85.046749 59.845746 
C 85.046749 59.845746 85.046749 59.845746 85.046749 59.845746 
z
" clip-path="url(#p1c9ddac0d6)" style="stroke: #000000"/>
    <path d="M 82.897308 55.439637 
C 83.49106 55.439637 84.060573 55.203737 84.480419 54.78389 
C 84.900265 54.364044 85.136166 53.794531 85.136166 53.200779 
C 85.136166 52.607027 84.900265 52.037513 84.480419 51.617667 
C 84.060573 51.197821 83.49106 50.961921 82.897308 50.961921 
C 82.303556 50.961921 81.734042 51.197821 81.314196 51.617667 
C 80.89435 52.037513 80.65845 52.607027 80.65845 53.200779 
C 80.65845 53.794531 80.89435 54.364044 81.314196 54.78389 
C 81.734042 55.203737 82.303556 55.439637 82.897308 55.439637 
z
" clip-path="url(#p1c9ddac0d6)" style="stroke: #000000"/>
    <path d="M 77.758126 42.162487 
C 78.351509 42.162487 78.920667 41.926734 79.340252 41.507149 
C 79.759837 41.087564 79.99559 40.518405 79.99559 39.925023 
C 79.99559 39.33164 79.759837 38.762481 79.340252 38.342897 
C 78.920667 37.923312 78.351509 37.687559 77.758126 37.687559 
C 77.164744 37.687559 76.595585 37.923312 76.176 38.342897 
C 75.756415 38.762481 75.520662 39.33164 75.520662 39.925023 
C 75.520662 40.518405 75.756415 41.087564 76.176 41.507149 
C 76.595585 41.926734 77.164744 42.162487 77.758126 42.162487 
z
" clip-path="url(#p1c9ddac0d6)" style="stroke: #000000"/>
    <path d="M 76.289968 31.666722 
C 76.289968 31.666722 76.289968 31.666722 76.289968 31.666722 
C 76.289968 31.666722 76.289968 31.666722 76.289968 31.666722 
C 76.289968 31.666722 76.289968 31.666722 76.289968 31.666722 
C 76.289968 31.666722 76.289968 31.666722 76.289968 31.666722 
C 76.289968 31.666722 76.289968 31.666722 76.289968 31.666722 
C 76.289968 31.666722 76.289968 31.666722 76.289968 31.666722 
C 76.289968 31.666722 76.289968 31.666722 76.289968 31.666722 
C 76.289968 31.666722 76.289968 31.666722 76.289968 31.666722 
z
" clip-path="url(#p1c9ddac0d6)" style="stroke: #000000"/>
    <path d="M 69.770574 25.179301 
C 70.30709 25.179301 70.821703 24.966141 71.201077 24.586767 
C 71.580451 24.207393 71.793611 23.69278 71.793611 23.156264 
C 71.793611 22.619749 71.580451 22.105135 71.201077 21.725761 
C 70.821703 21.346388 70.30709 21.133228 69.770574 21.133228 
C 69.234059 21.133228 68.719445 21.346388 68.340072 21.725761 
C 67.960698 22.105135 67.747538 22.619749 67.747538 23.156264 
C 67.747538 23.69278 67.960698 24.207393 68.340072 24.586767 
C 68.719445 24.966141 69.234059 25.179301 69.770574 25.179301 
z
" clip-path="url(#p1c9ddac0d6)" style="stroke: #000000"/>
    <path d="M 113.173344 178.619399 
C 113.766726 178.619399 114.335885 178.383646 114.75547 177.964061 
C 115.175055 177.544476 115.410808 176.975317 115.410808 176.381935 
C 115.410808 175.788552 115.175055 175.219393 114.75547 174.799809 
C 114.335885 174.380224 113.766726 174.14447 113.173344 174.14447 
C 112.579961 174.14447 112.010802 174.380224 111.591218 174.799809 
C 111.171633 175.219393 110.93588 175.788552 110.93588 176.381935 
C 110.93588 176.975317 111.171633 177.544476 111.591218 177.964061 
C 112.010802 178.383646 112.579961 178.619399 113.173344 178.619399 
z
" clip-path="url(#p1c9ddac0d6)" style="stroke: #000000"/>
    <path d="M 109.637434 168.713293 
C 109.637434 168.713293 109.637434 168.713293 109.637434 168.713293 
C 109.637434 168.713293 109.637434 168.713293 109.637434 168.713293 
C 109.637434 168.713293 109.637434 168.713293 109.637434 168.713293 
C 109.637434 168.713293 109.637434 168.713293 109.637434 168.713293 
C 109.637434 168.713293 109.637434 168.713293 109.637434 168.713293 
C 109.637434 168.713293 109.637434 168.713293 109.637434 168.713293 
C 109.637434 168.713293 109.637434 168.713293 109.637434 168.713293 
C 109.637434 168.713293 109.637434 168.713293 109.637434 168.713293 
z
" clip-path="url(#p1c9ddac0d6)" style="stroke: #000000"/>
    <path d="M 105.464822 158.881443 
C 105.464822 158.881443 105.464822 158.881443 105.464822 158.881443 
C 105.464822 158.881443 105.464822 158.881443 105.464822 158.881443 
C 105.464822 158.881443 105.464822 158.881443 105.464822 158.881443 
C 105.464822 158.881443 105.464822 158.881443 105.464822 158.881443 
C 105.464822 158.881443 105.464822 158.881443 105.464822 158.881443 
C 105.464822 158.881443 105.464822 158.881443 105.464822 158.881443 
C 105.464822 158.881443 105.464822 158.881443 105.464822 158.881443 
C 105.464822 158.881443 105.464822 158.881443 105.464822 158.881443 
z
" clip-path="url(#p1c9ddac0d6)" style="stroke: #000000"/>
    <path d="M 105.925169 150.791577 
C 106.540598 150.791577 107.130904 150.547065 107.566078 150.111891 
C 108.001252 149.676716 108.245765 149.086411 108.245765 148.470982 
C 108.245765 147.855552 108.001252 147.265247 107.566078 146.830073 
C 107.130904 146.394898 106.540598 146.150386 105.925169 146.150386 
C 105.30974 146.150386 104.719434 146.394898 104.28426 146.830073 
C 103.849086 147.265247 103.604573 147.855552 103.604573 148.470982 
C 103.604573 149.086411 103.849086 149.676716 104.28426 150.111891 
C 104.719434 150.547065 105.30974 150.791577 105.925169 150.791577 
z
" clip-path="url(#p1c9ddac0d6)" style="stroke: #000000"/>
    <path d="M 102.250058 142.837044 
C 102.955493 142.837044 103.63213 142.556771 104.130947 142.057954 
C 104.629765 141.559136 104.910037 140.8825 104.910037 140.177065 
C 104.910037 139.47163 104.629765 138.794994 104.130947 138.296176 
C 103.63213 137.797359 102.955493 137.517086 102.250058 137.517086 
C 101.544624 137.517086 100.867987 137.797359 100.36917 138.296176 
C 99.870352 138.794994 99.59008 139.47163 99.59008 140.177065 
C 99.59008 140.8825 99.870352 141.559136 100.36917 142.057954 
C 100.867987 142.556771 101.544624 142.837044 102.250058 142.837044 
z
" clip-path="url(#p1c9ddac0d6)" style="stroke: #000000"/>
    <path d="M 95.11838 127.039097 
C 95.679216 127.039097 96.217157 126.816275 96.613729 126.419704 
C 97.0103 126.023132 97.233122 125.485191 97.233122 124.924355 
C 97.233122 124.363519 97.0103 123.825577 96.613729 123.429006 
C 96.217157 123.032435 95.679216 122.809612 95.11838 122.809612 
C 94.557543 122.809612 94.019602 123.032435 93.623031 123.429006 
C 93.22646 123.825577 93.003637 124.363519 93.003637 124.924355 
C 93.003637 125.485191 93.22646 126.023132 93.623031 126.419704 
C 94.019602 126.816275 94.557543 127.039097 95.11838 127.039097 
z
" clip-path="url(#p1c9ddac0d6)" style="stroke: #000000"/>
    <path d="M 94.522461 116.061551 
C 94.522461 116.061551 94.522461 116.061551 94.522461 116.061551 
C 94.522461 116.061551 94.522461 116.061551 94.522461 116.061551 
C 94.522461 116.061551 94.522461 116.061551 94.522461 116.061551 
C 94.522461 116.061551 94.522461 116.061551 94.522461 116.061551 
C 94.522461 116.061551 94.522461 116.061551 94.522461 116.061551 
C 94.522461 116.061551 94.522461 116.061551 94.522461 116.061551 
C 94.522461 116.061551 94.522461 116.061551 94.522461 116.061551 
C 94.522461 116.061551 94.522461 116.061551 94.522461 116.061551 
z
" clip-path="url(#p1c9ddac0d6)" style="stroke: #000000"/>
    <path d="M 85.627091 106.113605 
C 86.220103 106.113605 86.788906 105.877998 87.208229 105.458675 
C 87.627552 105.039353 87.863159 104.470549 87.863159 103.877537 
C 87.863159 103.284524 87.627552 102.715721 87.208229 102.296398 
C 86.788906 101.877075 86.220103 101.641469 85.627091 101.641469 
C 85.034078 101.641469 84.465275 101.877075 84.045952 102.296398 
C 83.626629 102.715721 83.391023 103.284524 83.391023 103.877537 
C 83.391023 104.470549 83.626629 105.039353 84.045952 105.458675 
C 84.465275 105.877998 85.034078 106.113605 85.627091 106.113605 
z
" clip-path="url(#p1c9ddac0d6)" style="stroke: #000000"/>
    <path d="M 85.762937 101.681048 
C 86.355949 101.681048 86.924753 101.445442 87.344076 101.026119 
C 87.763399 100.606796 87.999005 100.037992 87.999005 99.44498 
C 87.999005 98.851968 87.763399 98.283164 87.344076 97.863841 
C 86.924753 97.444518 86.355949 97.208912 85.762937 97.208912 
C 85.169925 97.208912 84.601121 97.444518 84.181798 97.863841 
C 83.762475 98.283164 83.526869 98.851968 83.526869 99.44498 
C 83.526869 100.037992 83.762475 100.606796 84.181798 101.026119 
C 84.601121 101.445442 85.169925 101.681048 85.762937 101.681048 
z
" clip-path="url(#p1c9ddac0d6)" style="stroke: #000000"/>
    <path d="M 83.255953 87.4111 
C 83.879191 87.4111 84.476986 87.163485 84.917681 86.72279 
C 85.358377 86.282095 85.605992 85.684299 85.605992 85.061062 
C 85.605992 84.437824 85.358377 83.840029 84.917681 83.399334 
C 84.476986 82.958638 83.879191 82.711024 83.255953 82.711024 
C 82.632716 82.711024 82.03492 82.958638 81.594225 83.399334 
C 81.15353 83.840029 80.905915 84.437824 80.905915 85.061062 
C 80.905915 85.684299 81.15353 86.282095 81.594225 86.72279 
C 82.03492 87.163485 82.632716 87.4111 83.255953 87.4111 
z
" clip-path="url(#p1c9ddac0d6)" style="stroke: #000000"/>
    <path d="M 80.932521 78.830281 
C 81.637735 78.830281 82.31416 78.550096 82.812822 78.051434 
C 83.311484 77.552772 83.591669 76.876347 83.591669 76.171133 
C 83.591669 75.465918 83.311484 74.789493 82.812822 74.290831 
C 82.31416 73.792169 81.637735 73.511985 80.932521 73.511985 
C 80.227306 73.511985 79.550881 73.792169 79.052219 74.290831 
C 78.553557 74.789493 78.273373 75.465918 78.273373 76.171133 
C 78.273373 76.876347 78.553557 77.552772 79.052219 78.051434 
C 79.550881 78.550096 80.227306 78.830281 80.932521 78.830281 
z
" clip-path="url(#p1c9ddac0d6)" style="stroke: #000000"/>
    <path d="M 73.268224 73.288724 
C 73.973438 73.288724 74.649864 73.00854 75.148526 72.509878 
C 75.647187 72.011216 75.927372 71.334791 75.927372 70.629576 
C 75.927372 69.924362 75.647187 69.247937 75.148526 68.749275 
C 74.649864 68.250613 73.973438 67.970428 73.268224 67.970428 
C 72.56301 67.970428 71.886584 68.250613 71.387923 68.749275 
C 70.889261 69.247937 70.609076 69.924362 70.609076 70.629576 
C 70.609076 71.334791 70.889261 72.011216 71.387923 72.509878 
C 71.886584 73.00854 72.56301 73.288724 73.268224 73.288724 
z
" clip-path="url(#p1c9ddac0d6)" style="stroke: #000000"/>
    <path d="M 72.817055 61.765335 
C 73.522489 61.765335 74.199126 61.485063 74.697944 60.986246 
C 75.196761 60.487428 75.477033 59.810791 75.477033 59.105357 
C 75.477033 58.399922 75.196761 57.723285 74.697944 57.224468 
C 74.199126 56.72565 73.522489 56.445378 72.817055 56.445378 
C 72.11162 56.445378 71.434983 56.72565 70.936166 57.224468 
C 70.437348 57.723285 70.157076 58.399922 70.157076 59.105357 
C 70.157076 59.810791 70.437348 60.487428 70.936166 60.986246 
C 71.434983 61.485063 72.11162 61.765335 72.817055 61.765335 
z
" clip-path="url(#p1c9ddac0d6)" style="stroke: #000000"/>
    <path d="M 66.727204 48.707108 
C 67.320586 48.707108 67.889745 48.471355 68.30933 48.05177 
C 68.728915 47.632185 68.964668 47.063026 68.964668 46.469644 
C 68.964668 45.876262 68.728915 45.307103 68.30933 44.887518 
C 67.889745 44.467933 67.320586 44.23218 66.727204 44.23218 
C 66.133821 44.23218 65.564662 44.467933 65.145078 44.887518 
C 64.725493 45.307103 64.48974 45.876262 64.48974 46.469644 
C 64.48974 47.063026 64.725493 47.632185 65.145078 48.05177 
C 65.564662 48.471355 66.133821 48.707108 66.727204 48.707108 
z
" clip-path="url(#p1c9ddac0d6)" style="stroke: #000000"/>
    <path d="M 67.228874 36.286474 
C 67.228874 36.286474 67.228874 36.286474 67.228874 36.286474 
C 67.228874 36.286474 67.228874 36.286474 67.228874 36.286474 
C 67.228874 36.286474 67.228874 36.286474 67.228874 36.286474 
C 67.228874 36.286474 67.228874 36.286474 67.228874 36.286474 
C 67.228874 36.286474 67.228874 36.286474 67.228874 36.286474 
C 67.228874 36.286474 67.228874 36.286474 67.228874 36.286474 
C 67.228874 36.286474 67.228874 36.286474 67.228874 36.286474 
C 67.228874 36.286474 67.228874 36.286474 67.228874 36.286474 
z
" clip-path="url(#p1c9ddac0d6)" style="stroke: #000000"/>
    <path d="M 57.343777 31.450362 
C 57.901965 31.450362 58.437367 31.228591 58.832066 30.833892 
C 59.226765 30.439193 59.448536 29.903791 59.448536 29.345602 
C 59.448536 28.787414 59.226765 28.252012 58.832066 27.857313 
C 58.437367 27.462614 57.901965 27.240843 57.343777 27.240843 
C 56.785588 27.240843 56.250186 27.462614 55.855487 27.857313 
C 55.460788 28.252012 55.239018 28.787414 55.239018 29.345602 
C 55.239018 29.903791 55.460788 30.439193 55.855487 30.833892 
C 56.250186 31.228591 56.785588 31.450362 57.343777 31.450362 
z
" clip-path="url(#p1c9ddac0d6)" style="stroke: #000000"/>
    <path d="M 101.38649 181.452724 
C 101.38649 181.452724 101.38649 181.452724 101.38649 181.452724 
C 101.38649 181.452724 101.38649 181.452724 101.38649 181.452724 
C 101.38649 181.452724 101.38649 181.452724 101.38649 181.452724 
C 101.38649 181.452724 101.38649 181.452724 101.38649 181.452724 
C 101.38649 181.452724 101.38649 181.452724 101.38649 181.452724 
C 101.38649 181.452724 101.38649 181.452724 101.38649 181.452724 
C 101.38649 181.452724 101.38649 181.452724 101.38649 181.452724 
C 101.38649 181.452724 101.38649 181.452724 101.38649 181.452724 
z
" clip-path="url(#p1c9ddac0d6)" style="stroke: #000000"/>
    <path d="M 101.138828 174.594385 
C 101.138828 174.594385 101.138828 174.594385 101.138828 174.594385 
C 101.138828 174.594385 101.138828 174.594385 101.138828 174.594385 
C 101.138828 174.594385 101.138828 174.594385 101.138828 174.594385 
C 101.138828 174.594385 101.138828 174.594385 101.138828 174.594385 
C 101.138828 174.594385 101.138828 174.594385 101.138828 174.594385 
C 101.138828 174.594385 101.138828 174.594385 101.138828 174.594385 
C 101.138828 174.594385 101.138828 174.594385 101.138828 174.594385 
C 101.138828 174.594385 101.138828 174.594385 101.138828 174.594385 
z
" clip-path="url(#p1c9ddac0d6)" style="stroke: #000000"/>
    <path d="M 94.958784 157.72803 
C 94.958784 157.72803 94.958784 157.72803 94.958784 157.72803 
C 94.958784 157.72803 94.958784 157.72803 94.958784 157.72803 
C 94.958784 157.72803 94.958784 157.72803 94.958784 157.72803 
C 94.958784 157.72803 94.958784 157.72803 94.958784 157.72803 
C 94.958784 157.72803 94.958784 157.72803 94.958784 157.72803 
C 94.958784 157.72803 94.958784 157.72803 94.958784 157.72803 
C 94.958784 157.72803 94.958784 157.72803 94.958784 157.72803 
C 94.958784 157.72803 94.958784 157.72803 94.958784 157.72803 
z
" clip-path="url(#p1c9ddac0d6)" style="stroke: #000000"/>
    <path d="M 94.713957 152.178694 
C 94.987085 152.178694 95.249064 152.070179 95.442195 151.877048 
C 95.635326 151.683917 95.743841 151.421939 95.743841 151.14881 
C 95.743841 150.875682 95.635326 150.613704 95.442195 150.420573 
C 95.249064 150.227442 94.987085 150.118927 94.713957 150.118927 
C 94.440829 150.118927 94.17885 150.227442 93.985719 150.420573 
C 93.792588 150.613704 93.684073 150.875682 93.684073 151.14881 
C 93.684073 151.421939 93.792588 151.683917 93.985719 151.877048 
C 94.17885 152.070179 94.440829 152.178694 94.713957 152.178694 
z
" clip-path="url(#p1c9ddac0d6)" style="stroke: #000000"/>
    <path d="M 87.965938 137.243138 
C 87.965938 137.243138 87.965938 137.243138 87.965938 137.243138 
C 87.965938 137.243138 87.965938 137.243138 87.965938 137.243138 
C 87.965938 137.243138 87.965938 137.243138 87.965938 137.243138 
C 87.965938 137.243138 87.965938 137.243138 87.965938 137.243138 
C 87.965938 137.243138 87.965938 137.243138 87.965938 137.243138 
C 87.965938 137.243138 87.965938 137.243138 87.965938 137.243138 
C 87.965938 137.243138 87.965938 137.243138 87.965938 137.243138 
C 87.965938 137.243138 87.965938 137.243138 87.965938 137.243138 
z
" clip-path="url(#p1c9ddac0d6)" style="stroke: #000000"/>
    <path d="M 87.076666 129.830713 
C 87.7821 129.830713 88.458737 129.550441 88.957555 129.051623 
C 89.456372 128.552806 89.736644 127.876169 89.736644 127.170735 
C 89.736644 126.4653 89.456372 125.788663 88.957555 125.289846 
C 88.458737 124.791028 87.7821 124.510756 87.076666 124.510756 
C 86.371231 124.510756 85.694595 124.791028 85.195777 125.289846 
C 84.696959 125.788663 84.416687 126.4653 84.416687 127.170735 
C 84.416687 127.876169 84.696959 128.552806 85.195777 129.051623 
C 85.694595 129.550441 86.371231 129.830713 87.076666 129.830713 
z
" clip-path="url(#p1c9ddac0d6)" style="stroke: #000000"/>
    <path d="M 83.177008 121.827365 
C 83.882223 121.827365 84.558648 121.547181 85.05731 121.048519 
C 85.555972 120.549857 85.836156 119.873432 85.836156 119.168217 
C 85.836156 118.463003 85.555972 117.786578 85.05731 117.287916 
C 84.558648 116.789254 83.882223 116.509069 83.177008 116.509069 
C 82.471794 116.509069 81.795369 116.789254 81.296707 117.287916 
C 80.798045 117.786578 80.51786 118.463003 80.51786 119.168217 
C 80.51786 119.873432 80.798045 120.549857 81.296707 121.048519 
C 81.795369 121.547181 82.471794 121.827365 83.177008 121.827365 
z
" clip-path="url(#p1c9ddac0d6)" style="stroke: #000000"/>
    <path d="M 79.087636 108.07796 
C 79.792851 108.07796 80.469276 107.797775 80.967938 107.299113 
C 81.4666 106.800451 81.746784 106.124026 81.746784 105.418812 
C 81.746784 104.713597 81.4666 104.037172 80.967938 103.53851 
C 80.469276 103.039848 79.792851 102.759664 79.087636 102.759664 
C 78.382422 102.759664 77.705997 103.039848 77.207335 103.53851 
C 76.708673 104.037172 76.428488 104.713597 76.428488 105.418812 
C 76.428488 106.124026 76.708673 106.800451 77.207335 107.299113 
C 77.705997 107.797775 78.382422 108.07796 79.087636 108.07796 
z
" clip-path="url(#p1c9ddac0d6)" style="stroke: #000000"/>
    <path d="M 74.923141 104.430612 
C 74.923141 104.430612 74.923141 104.430612 74.923141 104.430612 
C 74.923141 104.430612 74.923141 104.430612 74.923141 104.430612 
C 74.923141 104.430612 74.923141 104.430612 74.923141 104.430612 
C 74.923141 104.430612 74.923141 104.430612 74.923141 104.430612 
C 74.923141 104.430612 74.923141 104.430612 74.923141 104.430612 
C 74.923141 104.430612 74.923141 104.430612 74.923141 104.430612 
C 74.923141 104.430612 74.923141 104.430612 74.923141 104.430612 
C 74.923141 104.430612 74.923141 104.430612 74.923141 104.430612 
z
" clip-path="url(#p1c9ddac0d6)" style="stroke: #000000"/>
    <path d="M 70.977766 89.176299 
C 70.977766 89.176299 70.977766 89.176299 70.977766 89.176299 
C 70.977766 89.176299 70.977766 89.176299 70.977766 89.176299 
C 70.977766 89.176299 70.977766 89.176299 70.977766 89.176299 
C 70.977766 89.176299 70.977766 89.176299 70.977766 89.176299 
C 70.977766 89.176299 70.977766 89.176299 70.977766 89.176299 
C 70.977766 89.176299 70.977766 89.176299 70.977766 89.176299 
C 70.977766 89.176299 70.977766 89.176299 70.977766 89.176299 
C 70.977766 89.176299 70.977766 89.176299 70.977766 89.176299 
z
" clip-path="url(#p1c9ddac0d6)" style="stroke: #000000"/>
    <path d="M 66.181627 82.116802 
C 66.886841 82.116802 67.563267 81.836617 68.061928 81.337956 
C 68.56059 80.839294 68.840775 80.162868 68.840775 79.457654 
C 68.840775 78.75244 68.56059 78.076014 68.061928 77.577352 
C 67.563267 77.078691 66.886841 76.798506 66.181627 76.798506 
C 65.476413 76.798506 64.799987 77.078691 64.301325 77.577352 
C 63.802664 78.076014 63.522479 78.75244 63.522479 79.457654 
C 63.522479 80.162868 63.802664 80.839294 64.301325 81.337956 
C 64.799987 81.836617 65.476413 82.116802 66.181627 82.116802 
z
" clip-path="url(#p1c9ddac0d6)" style="stroke: #000000"/>
    <path d="M 66.959589 69.715267 
C 66.959589 69.715267 66.959589 69.715267 66.959589 69.715267 
C 66.959589 69.715267 66.959589 69.715267 66.959589 69.715267 
C 66.959589 69.715267 66.959589 69.715267 66.959589 69.715267 
C 66.959589 69.715267 66.959589 69.715267 66.959589 69.715267 
C 66.959589 69.715267 66.959589 69.715267 66.959589 69.715267 
C 66.959589 69.715267 66.959589 69.715267 66.959589 69.715267 
C 66.959589 69.715267 66.959589 69.715267 66.959589 69.715267 
C 66.959589 69.715267 66.959589 69.715267 66.959589 69.715267 
z
" clip-path="url(#p1c9ddac0d6)" style="stroke: #000000"/>
    <path d="M 63.651203 59.426174 
C 63.86689 59.426174 64.073771 59.340481 64.226285 59.187967 
C 64.378798 59.035454 64.464491 58.828572 64.464491 58.612885 
C 64.464491 58.397199 64.378798 58.190317 64.226285 58.037804 
C 64.073771 57.88529 63.86689 57.799597 63.651203 57.799597 
C 63.435516 57.799597 63.228635 57.88529 63.076121 58.037804 
C 62.923608 58.190317 62.837915 58.397199 62.837915 58.612885 
C 62.837915 58.828572 62.923608 59.035454 63.076121 59.187967 
C 63.228635 59.340481 63.435516 59.426174 63.651203 59.426174 
z
" clip-path="url(#p1c9ddac0d6)" style="stroke: #000000"/>
    <path d="M 59.221849 49.426516 
C 59.814861 49.426516 60.383665 49.19091 60.802988 48.771587 
C 61.222311 48.352264 61.457917 47.78346 61.457917 47.190448 
C 61.457917 46.597436 61.222311 46.028632 60.802988 45.609309 
C 60.383665 45.189986 59.814861 44.95438 59.221849 44.95438 
C 58.628837 44.95438 58.060033 45.189986 57.64071 45.609309 
C 57.221387 46.028632 56.985781 46.597436 56.985781 47.190448 
C 56.985781 47.78346 57.221387 48.352264 57.64071 48.771587 
C 58.060033 49.19091 58.628837 49.426516 59.221849 49.426516 
z
" clip-path="url(#p1c9ddac0d6)" style="stroke: #000000"/>
    <path d="M 54.570662 40.145384 
C 55.163674 40.145384 55.732478 39.909778 56.151801 39.490455 
C 56.571124 39.071132 56.80673 38.502328 56.80673 37.909316 
C 56.80673 37.316304 56.571124 36.7475 56.151801 36.328177 
C 55.732478 35.908854 55.163674 35.673248 54.570662 35.673248 
C 53.97765 35.673248 53.408846 35.908854 52.989523 36.328177 
C 52.5702 36.7475 52.334594 37.316304 52.334594 37.909316 
C 52.334594 38.502328 52.5702 39.071132 52.989523 39.490455 
C 53.408846 39.909778 53.97765 40.145384 54.570662 40.145384 
z
" clip-path="url(#p1c9ddac0d6)" style="stroke: #000000"/>
    <path d="M 90.846857 175.201901 
C 91.43987 175.201901 92.008673 174.966294 92.427996 174.546972 
C 92.847319 174.127649 93.082925 173.558845 93.082925 172.965833 
C 93.082925 172.372821 92.847319 171.804017 92.427996 171.384694 
C 92.008673 170.965371 91.43987 170.729765 90.846857 170.729765 
C 90.253845 170.729765 89.685041 170.965371 89.265719 171.384694 
C 88.846396 171.804017 88.610789 172.372821 88.610789 172.965833 
C 88.610789 173.558845 88.846396 174.127649 89.265719 174.546972 
C 89.685041 174.966294 90.253845 175.201901 90.846857 175.201901 
z
" clip-path="url(#p1c9ddac0d6)" style="stroke: #000000"/>
    <path d="M 83.856219 164.825153 
C 84.449601 164.825153 85.01876 164.589399 85.438345 164.169815 
C 85.857929 163.75023 86.093683 163.181071 86.093683 162.587689 
C 86.093683 161.994306 85.857929 161.425147 85.438345 161.005562 
C 85.01876 160.585978 84.449601 160.350224 83.856219 160.350224 
C 83.262836 160.350224 82.693677 160.585978 82.274093 161.005562 
C 81.854508 161.425147 81.618754 161.994306 81.618754 162.587689 
C 81.618754 163.181071 81.854508 163.75023 82.274093 164.169815 
C 82.693677 164.589399 83.262836 164.825153 83.856219 164.825153 
z
" clip-path="url(#p1c9ddac0d6)" style="stroke: #000000"/>
    <path d="M 87.591573 154.977932 
C 87.591573 154.977932 87.591573 154.977932 87.591573 154.977932 
C 87.591573 154.977932 87.591573 154.977932 87.591573 154.977932 
C 87.591573 154.977932 87.591573 154.977932 87.591573 154.977932 
C 87.591573 154.977932 87.591573 154.977932 87.591573 154.977932 
C 87.591573 154.977932 87.591573 154.977932 87.591573 154.977932 
C 87.591573 154.977932 87.591573 154.977932 87.591573 154.977932 
C 87.591573 154.977932 87.591573 154.977932 87.591573 154.977932 
C 87.591573 154.977932 87.591573 154.977932 87.591573 154.977932 
z
" clip-path="url(#p1c9ddac0d6)" style="stroke: #000000"/>
    <path d="M 83.14042 145.897959 
C 83.14042 145.897959 83.14042 145.897959 83.14042 145.897959 
C 83.14042 145.897959 83.14042 145.897959 83.14042 145.897959 
C 83.14042 145.897959 83.14042 145.897959 83.14042 145.897959 
C 83.14042 145.897959 83.14042 145.897959 83.14042 145.897959 
C 83.14042 145.897959 83.14042 145.897959 83.14042 145.897959 
C 83.14042 145.897959 83.14042 145.897959 83.14042 145.897959 
C 83.14042 145.897959 83.14042 145.897959 83.14042 145.897959 
C 83.14042 145.897959 83.14042 145.897959 83.14042 145.897959 
z
" clip-path="url(#p1c9ddac0d6)" style="stroke: #000000"/>
    <path d="M 72.911067 137.570952 
C 73.616281 137.570952 74.292706 137.290768 74.791368 136.792106 
C 75.29003 136.293444 75.570215 135.617019 75.570215 134.911804 
C 75.570215 134.20659 75.29003 133.530165 74.791368 133.031503 
C 74.292706 132.532841 73.616281 132.252657 72.911067 132.252657 
C 72.205852 132.252657 71.529427 132.532841 71.030765 133.031503 
C 70.532103 133.530165 70.251919 134.20659 70.251919 134.911804 
C 70.251919 135.617019 70.532103 136.293444 71.030765 136.792106 
C 71.529427 137.290768 72.205852 137.570952 72.911067 137.570952 
z
" clip-path="url(#p1c9ddac0d6)" style="stroke: #000000"/>
    <path d="M 70.464073 123.385548 
C 71.057456 123.385548 71.626615 123.149794 72.046199 122.73021 
C 72.465784 122.310625 72.701538 121.741466 72.701538 121.148083 
C 72.701538 120.554701 72.465784 119.985542 72.046199 119.565957 
C 71.626615 119.146373 71.057456 118.910619 70.464073 118.910619 
C 69.870691 118.910619 69.301532 119.146373 68.881947 119.565957 
C 68.462363 119.985542 68.226609 120.554701 68.226609 121.148083 
C 68.226609 121.741466 68.462363 122.310625 68.881947 122.73021 
C 69.301532 123.149794 69.870691 123.385548 70.464073 123.385548 
z
" clip-path="url(#p1c9ddac0d6)" style="stroke: #000000"/>
    <path d="M 68.416143 116.070958 
C 69.121578 116.070958 69.798214 115.790686 70.297032 115.291868 
C 70.795849 114.793051 71.076122 114.116414 71.076122 113.410979 
C 71.076122 112.705545 70.795849 112.028908 70.297032 111.53009 
C 69.798214 111.031273 69.121578 110.751001 68.416143 110.751001 
C 67.710708 110.751001 67.034072 111.031273 66.535254 111.53009 
C 66.036437 112.028908 65.756164 112.705545 65.756164 113.410979 
C 65.756164 114.116414 66.036437 114.793051 66.535254 115.291868 
C 67.034072 115.790686 67.710708 116.070958 68.416143 116.070958 
z
" clip-path="url(#p1c9ddac0d6)" style="stroke: #000000"/>
    <path d="M 64.008075 105.469062 
C 64.601087 105.469062 65.169891 105.233456 65.589214 104.814133 
C 66.008537 104.39481 66.244143 103.826007 66.244143 103.232994 
C 66.244143 102.639982 66.008537 102.071179 65.589214 101.651856 
C 65.169891 101.232533 64.601087 100.996926 64.008075 100.996926 
C 63.415063 100.996926 62.846259 101.232533 62.426936 101.651856 
C 62.007613 102.071179 61.772007 102.639982 61.772007 103.232994 
C 61.772007 103.826007 62.007613 104.39481 62.426936 104.814133 
C 62.846259 105.233456 63.415063 105.469062 64.008075 105.469062 
z
" clip-path="url(#p1c9ddac0d6)" style="stroke: #000000"/>
    <path d="M 59.881687 94.54169 
C 60.587122 94.54169 61.263759 94.261418 61.762576 93.7626 
C 62.261394 93.263783 62.541666 92.587146 62.541666 91.881711 
C 62.541666 91.176277 62.261394 90.49964 61.762576 90.000823 
C 61.263759 89.502005 60.587122 89.221733 59.881687 89.221733 
C 59.176253 89.221733 58.499616 89.502005 58.000799 90.000823 
C 57.501981 90.49964 57.221709 91.176277 57.221709 91.881711 
C 57.221709 92.587146 57.501981 93.263783 58.000799 93.7626 
C 58.499616 94.261418 59.176253 94.54169 59.881687 94.54169 
z
" clip-path="url(#p1c9ddac0d6)" style="stroke: #000000"/>
    <path d="M 56.316865 85.195551 
C 56.877701 85.195551 57.415642 84.972729 57.812214 84.576157 
C 58.208785 84.179586 58.431607 83.641645 58.431607 83.080809 
C 58.431607 82.519972 58.208785 81.982031 57.812214 81.58546 
C 57.415642 81.188889 56.877701 80.966066 56.316865 80.966066 
C 55.756029 80.966066 55.218087 81.188889 54.821516 81.58546 
C 54.424945 81.982031 54.202122 82.519972 54.202122 83.080809 
C 54.202122 83.641645 54.424945 84.179586 54.821516 84.576157 
C 55.218087 84.972729 55.756029 85.195551 56.316865 85.195551 
z
" clip-path="url(#p1c9ddac0d6)" style="stroke: #000000"/>
    <path d="M 51.540893 78.756917 
C 52.246107 78.756917 52.922532 78.476732 53.421194 77.97807 
C 53.919856 77.479409 54.200041 76.802983 54.200041 76.097769 
C 54.200041 75.392555 53.919856 74.716129 53.421194 74.217467 
C 52.922532 73.718805 52.246107 73.438621 51.540893 73.438621 
C 50.835678 73.438621 50.159253 73.718805 49.660591 74.217467 
C 49.161929 74.716129 48.881745 75.392555 48.881745 76.097769 
C 48.881745 76.802983 49.161929 77.479409 49.660591 77.97807 
C 50.159253 78.476732 50.835678 78.756917 51.540893 78.756917 
z
" clip-path="url(#p1c9ddac0d6)" style="stroke: #000000"/>
    <path d="M 47.010046 59.766344 
C 47.60527 59.766344 48.176195 59.529859 48.597081 59.108973 
C 49.017968 58.688086 49.254453 58.117161 49.254453 57.521938 
C 49.254453 56.926714 49.017968 56.355789 48.597081 55.934903 
C 48.176195 55.514016 47.60527 55.277531 47.010046 55.277531 
C 46.414823 55.277531 45.843898 55.514016 45.423011 55.934903 
C 45.002124 56.355789 44.76564 56.926714 44.76564 57.521938 
C 44.76564 58.117161 45.002124 58.688086 45.423011 59.108973 
C 45.843898 59.529859 46.414823 59.766344 47.010046 59.766344 
z
" clip-path="url(#p1c9ddac0d6)" style="stroke: #000000"/>
    <path d="M 48.431204 51.380876 
C 49.024586 51.380876 49.593745 51.145123 50.01333 50.725538 
C 50.432915 50.305953 50.668668 49.736794 50.668668 49.143412 
C 50.668668 48.550029 50.432915 47.98087 50.01333 47.561286 
C 49.593745 47.141701 49.024586 46.905948 48.431204 46.905948 
C 47.837821 46.905948 47.268663 47.141701 46.849078 47.561286 
C 46.429493 47.98087 46.19374 48.550029 46.19374 49.143412 
C 46.19374 49.736794 46.429493 50.305953 46.849078 50.725538 
C 47.268663 51.145123 47.837821 51.380876 48.431204 51.380876 
z
" clip-path="url(#p1c9ddac0d6)" style="stroke: #000000"/>
    <path d="M 44.178432 39.180652 
C 44.178432 39.180652 44.178432 39.180652 44.178432 39.180652 
C 44.178432 39.180652 44.178432 39.180652 44.178432 39.180652 
C 44.178432 39.180652 44.178432 39.180652 44.178432 39.180652 
C 44.178432 39.180652 44.178432 39.180652 44.178432 39.180652 
C 44.178432 39.180652 44.178432 39.180652 44.178432 39.180652 
C 44.178432 39.180652 44.178432 39.180652 44.178432 39.180652 
C 44.178432 39.180652 44.178432 39.180652 44.178432 39.180652 
C 44.178432 39.180652 44.178432 39.180652 44.178432 39.180652 
z
" clip-path="url(#p1c9ddac0d6)" style="stroke: #000000"/>
    <path d="M 79.269626 180.771891 
C 79.862638 180.771891 80.431442 180.536285 80.850765 180.116962 
C 81.270087 179.697639 81.505694 179.128835 81.505694 178.535823 
C 81.505694 177.942811 81.270087 177.374007 80.850765 176.954684 
C 80.431442 176.535361 79.862638 176.299755 79.269626 176.299755 
C 78.676614 176.299755 78.10781 176.535361 77.688487 176.954684 
C 77.269164 177.374007 77.033558 177.942811 77.033558 178.535823 
C 77.033558 179.128835 77.269164 179.697639 77.688487 180.116962 
C 78.10781 180.536285 78.676614 180.771891 79.269626 180.771891 
z
" clip-path="url(#p1c9ddac0d6)" style="stroke: #000000"/>
    <path d="M 77.904478 169.289069 
C 77.904478 169.289069 77.904478 169.289069 77.904478 169.289069 
C 77.904478 169.289069 77.904478 169.289069 77.904478 169.289069 
C 77.904478 169.289069 77.904478 169.289069 77.904478 169.289069 
C 77.904478 169.289069 77.904478 169.289069 77.904478 169.289069 
C 77.904478 169.289069 77.904478 169.289069 77.904478 169.289069 
C 77.904478 169.289069 77.904478 169.289069 77.904478 169.289069 
C 77.904478 169.289069 77.904478 169.289069 77.904478 169.289069 
C 77.904478 169.289069 77.904478 169.289069 77.904478 169.289069 
z
" clip-path="url(#p1c9ddac0d6)" style="stroke: #000000"/>
    <path d="M 70.817272 156.288761 
C 70.817272 156.288761 70.817272 156.288761 70.817272 156.288761 
C 70.817272 156.288761 70.817272 156.288761 70.817272 156.288761 
C 70.817272 156.288761 70.817272 156.288761 70.817272 156.288761 
C 70.817272 156.288761 70.817272 156.288761 70.817272 156.288761 
C 70.817272 156.288761 70.817272 156.288761 70.817272 156.288761 
C 70.817272 156.288761 70.817272 156.288761 70.817272 156.288761 
C 70.817272 156.288761 70.817272 156.288761 70.817272 156.288761 
C 70.817272 156.288761 70.817272 156.288761 70.817272 156.288761 
z
" clip-path="url(#p1c9ddac0d6)" style="stroke: #000000"/>
    <path d="M 69.518783 151.437739 
C 70.026542 151.437739 70.513574 151.236004 70.872614 150.876964 
C 71.231655 150.517924 71.43339 150.030892 71.43339 149.523133 
C 71.43339 149.015373 71.231655 148.528341 70.872614 148.169301 
C 70.513574 147.810261 70.026542 147.608526 69.518783 147.608526 
C 69.011023 147.608526 68.523992 147.810261 68.164951 148.169301 
C 67.805911 148.528341 67.604176 149.015373 67.604176 149.523133 
C 67.604176 150.030892 67.805911 150.517924 68.164951 150.876964 
C 68.523992 151.236004 69.011023 151.437739 69.518783 151.437739 
z
" clip-path="url(#p1c9ddac0d6)" style="stroke: #000000"/>
    <path d="M 64.454316 138.235804 
C 65.159751 138.235804 65.836388 137.955531 66.335205 137.456714 
C 66.834023 136.957896 67.114295 136.28126 67.114295 135.575825 
C 67.114295 134.87039 66.834023 134.193754 66.335205 133.694936 
C 65.836388 133.196119 65.159751 132.915846 64.454316 132.915846 
C 63.748882 132.915846 63.072245 133.196119 62.573428 133.694936 
C 62.07461 134.193754 61.794338 134.87039 61.794338 135.575825 
C 61.794338 136.28126 62.07461 136.957896 62.573428 137.456714 
C 63.072245 137.955531 63.748882 138.235804 64.454316 138.235804 
z
" clip-path="url(#p1c9ddac0d6)" style="stroke: #000000"/>
    <path d="M 58.726886 129.05616 
C 59.301653 129.05616 59.852957 128.827803 60.259379 128.421381 
C 60.665801 128.014959 60.894159 127.463655 60.894159 126.888887 
C 60.894159 126.31412 60.665801 125.762816 60.259379 125.356394 
C 59.852957 124.949971 59.301653 124.721614 58.726886 124.721614 
C 58.152118 124.721614 57.600814 124.949971 57.194392 125.356394 
C 56.78797 125.762816 56.559612 126.31412 56.559612 126.888887 
C 56.559612 127.463655 56.78797 128.014959 57.194392 128.421381 
C 57.600814 128.827803 58.152118 129.05616 58.726886 129.05616 
z
" clip-path="url(#p1c9ddac0d6)" style="stroke: #000000"/>
    <path d="M 56.510851 120.321438 
C 57.216286 120.321438 57.892923 120.041166 58.39174 119.542348 
C 58.890558 119.04353 59.17083 118.366894 59.17083 117.661459 
C 59.17083 116.956025 58.890558 116.279388 58.39174 115.78057 
C 57.892923 115.281753 57.216286 115.001481 56.510851 115.001481 
C 55.805417 115.001481 55.12878 115.281753 54.629962 115.78057 
C 54.131145 116.279388 53.850873 116.956025 53.850873 117.661459 
C 53.850873 118.366894 54.131145 119.04353 54.629962 119.542348 
C 55.12878 120.041166 55.805417 120.321438 56.510851 120.321438 
z
" clip-path="url(#p1c9ddac0d6)" style="stroke: #000000"/>
    <path d="M 52.357097 106.382801 
C 52.950109 106.382801 53.518913 106.147195 53.938235 105.727872 
C 54.357558 105.308549 54.593165 104.739745 54.593165 104.146733 
C 54.593165 103.553721 54.357558 102.984917 53.938235 102.565594 
C 53.518913 102.146271 52.950109 101.910665 52.357097 101.910665 
C 51.764084 101.910665 51.195281 102.146271 50.775958 102.565594 
C 50.356635 102.984917 50.121029 103.553721 50.121029 104.146733 
C 50.121029 104.739745 50.356635 105.308549 50.775958 105.727872 
C 51.195281 106.147195 51.764084 106.382801 52.357097 106.382801 
z
" clip-path="url(#p1c9ddac0d6)" style="stroke: #000000"/>
    <path d="M 53.348168 97.694454 
C 54.053382 97.694454 54.729807 97.414269 55.228469 96.915607 
C 55.727131 96.416946 56.007315 95.74052 56.007315 95.035306 
C 56.007315 94.330092 55.727131 93.653666 55.228469 93.155004 
C 54.729807 92.656343 54.053382 92.376158 53.348168 92.376158 
C 52.642953 92.376158 51.966528 92.656343 51.467866 93.155004 
C 50.969204 93.653666 50.68902 94.330092 50.68902 95.035306 
C 50.68902 95.74052 50.969204 96.416946 51.467866 96.915607 
C 51.966528 97.414269 52.642953 97.694454 53.348168 97.694454 
z
" clip-path="url(#p1c9ddac0d6)" style="stroke: #000000"/>
    <path d="M 46.869217 86.583449 
C 47.403212 86.583449 47.915409 86.371291 48.293 85.993699 
C 48.670592 85.616107 48.882751 85.103911 48.882751 84.569915 
C 48.882751 84.03592 48.670592 83.523724 48.293 83.146132 
C 47.915409 82.76854 47.403212 82.556382 46.869217 82.556382 
C 46.335221 82.556382 45.823025 82.76854 45.445433 83.146132 
C 45.067842 83.523724 44.855683 84.03592 44.855683 84.569915 
C 44.855683 85.103911 45.067842 85.616107 45.445433 85.993699 
C 45.823025 86.371291 46.335221 86.583449 46.869217 86.583449 
z
" clip-path="url(#p1c9ddac0d6)" style="stroke: #000000"/>
    <path d="M 40.44999 80.876455 
C 40.44999 80.876455 40.44999 80.876455 40.44999 80.876455 
C 40.44999 80.876455 40.44999 80.876455 40.44999 80.876455 
C 40.44999 80.876455 40.44999 80.876455 40.44999 80.876455 
C 40.44999 80.876455 40.44999 80.876455 40.44999 80.876455 
C 40.44999 80.876455 40.44999 80.876455 40.44999 80.876455 
C 40.44999 80.876455 40.44999 80.876455 40.44999 80.876455 
C 40.44999 80.876455 40.44999 80.876455 40.44999 80.876455 
C 40.44999 80.876455 40.44999 80.876455 40.44999 80.876455 
z
" clip-path="url(#p1c9ddac0d6)" style="stroke: #000000"/>
    <path d="M 39.793158 65.128013 
C 40.389479 65.128013 40.961455 64.891093 41.383117 64.469431 
C 41.804779 64.047769 42.0417 63.475792 42.0417 62.879472 
C 42.0417 62.283152 41.804779 61.711176 41.383117 61.289514 
C 40.961455 60.867852 40.389479 60.630931 39.793158 60.630931 
C 39.196838 60.630931 38.624862 60.867852 38.2032 61.289514 
C 37.781538 61.711176 37.544617 62.283152 37.544617 62.879472 
C 37.544617 63.475792 37.781538 64.047769 38.2032 64.469431 
C 38.624862 64.891093 39.196838 65.128013 39.793158 65.128013 
z
" clip-path="url(#p1c9ddac0d6)" style="stroke: #000000"/>
    <path d="M 38.997071 55.767054 
C 38.997071 55.767054 38.997071 55.767054 38.997071 55.767054 
C 38.997071 55.767054 38.997071 55.767054 38.997071 55.767054 
C 38.997071 55.767054 38.997071 55.767054 38.997071 55.767054 
C 38.997071 55.767054 38.997071 55.767054 38.997071 55.767054 
C 38.997071 55.767054 38.997071 55.767054 38.997071 55.767054 
C 38.997071 55.767054 38.997071 55.767054 38.997071 55.767054 
C 38.997071 55.767054 38.997071 55.767054 38.997071 55.767054 
C 38.997071 55.767054 38.997071 55.767054 38.997071 55.767054 
z
" clip-path="url(#p1c9ddac0d6)" style="stroke: #000000"/>
    <path d="M 66.386896 175.134782 
C 66.980278 175.134782 67.549437 174.899029 67.969022 174.479444 
C 68.388607 174.059859 68.62436 173.490701 68.62436 172.897318 
C 68.62436 172.303936 68.388607 171.734777 67.969022 171.315192 
C 67.549437 170.895607 66.980278 170.659854 66.386896 170.659854 
C 65.793513 170.659854 65.224355 170.895607 64.80477 171.315192 
C 64.385185 171.734777 64.149432 172.303936 64.149432 172.897318 
C 64.149432 173.490701 64.385185 174.059859 64.80477 174.479444 
C 65.224355 174.899029 65.793513 175.134782 66.386896 175.134782 
z
" clip-path="url(#p1c9ddac0d6)" style="stroke: #000000"/>
    <path d="M 59.110741 161.646857 
C 59.110741 161.646857 59.110741 161.646857 59.110741 161.646857 
C 59.110741 161.646857 59.110741 161.646857 59.110741 161.646857 
C 59.110741 161.646857 59.110741 161.646857 59.110741 161.646857 
C 59.110741 161.646857 59.110741 161.646857 59.110741 161.646857 
C 59.110741 161.646857 59.110741 161.646857 59.110741 161.646857 
C 59.110741 161.646857 59.110741 161.646857 59.110741 161.646857 
C 59.110741 161.646857 59.110741 161.646857 59.110741 161.646857 
C 59.110741 161.646857 59.110741 161.646857 59.110741 161.646857 
z
" clip-path="url(#p1c9ddac0d6)" style="stroke: #000000"/>
    <path d="M 57.778646 153.123471 
C 57.778646 153.123471 57.778646 153.123471 57.778646 153.123471 
C 57.778646 153.123471 57.778646 153.123471 57.778646 153.123471 
C 57.778646 153.123471 57.778646 153.123471 57.778646 153.123471 
C 57.778646 153.123471 57.778646 153.123471 57.778646 153.123471 
C 57.778646 153.123471 57.778646 153.123471 57.778646 153.123471 
C 57.778646 153.123471 57.778646 153.123471 57.778646 153.123471 
C 57.778646 153.123471 57.778646 153.123471 57.778646 153.123471 
C 57.778646 153.123471 57.778646 153.123471 57.778646 153.123471 
z
" clip-path="url(#p1c9ddac0d6)" style="stroke: #000000"/>
    <path d="M 57.305066 143.311099 
C 57.305066 143.311099 57.305066 143.311099 57.305066 143.311099 
C 57.305066 143.311099 57.305066 143.311099 57.305066 143.311099 
C 57.305066 143.311099 57.305066 143.311099 57.305066 143.311099 
C 57.305066 143.311099 57.305066 143.311099 57.305066 143.311099 
C 57.305066 143.311099 57.305066 143.311099 57.305066 143.311099 
C 57.305066 143.311099 57.305066 143.311099 57.305066 143.311099 
C 57.305066 143.311099 57.305066 143.311099 57.305066 143.311099 
C 57.305066 143.311099 57.305066 143.311099 57.305066 143.311099 
z
" clip-path="url(#p1c9ddac0d6)" style="stroke: #000000"/>
    <path d="M 51.247378 131.397247 
C 51.952592 131.397247 52.629017 131.117062 53.127679 130.618401 
C 53.626341 130.119739 53.906525 129.443313 53.906525 128.738099 
C 53.906525 128.032885 53.626341 127.356459 53.127679 126.857798 
C 52.629017 126.359136 51.952592 126.078951 51.247378 126.078951 
C 50.542163 126.078951 49.865738 126.359136 49.367076 126.857798 
C 48.868414 127.356459 48.58823 128.032885 48.58823 128.738099 
C 48.58823 129.443313 48.868414 130.119739 49.367076 130.618401 
C 49.865738 131.117062 50.542163 131.397247 51.247378 131.397247 
z
" clip-path="url(#p1c9ddac0d6)" style="stroke: #000000"/>
    <path d="M 43.59813 124.576492 
C 44.137131 124.576492 44.654128 124.362344 45.035259 123.981213 
C 45.41639 123.600082 45.630537 123.083085 45.630537 122.544085 
C 45.630537 122.005084 45.41639 121.488087 45.035259 121.106956 
C 44.654128 120.725825 44.137131 120.511678 43.59813 120.511678 
C 43.059129 120.511678 42.542132 120.725825 42.161001 121.106956 
C 41.77987 121.488087 41.565723 122.005084 41.565723 122.544085 
C 41.565723 123.083085 41.77987 123.600082 42.161001 123.981213 
C 42.542132 124.362344 43.059129 124.576492 43.59813 124.576492 
z
" clip-path="url(#p1c9ddac0d6)" style="stroke: #000000"/>
    <path d="M 43.858257 114.373018 
C 44.563472 114.373018 45.239897 114.092834 45.738559 113.594172 
C 46.237221 113.09551 46.517405 112.419085 46.517405 111.71387 
C 46.517405 111.008656 46.237221 110.332231 45.738559 109.833569 
C 45.239897 109.334907 44.563472 109.054722 43.858257 109.054722 
C 43.153043 109.054722 42.476618 109.334907 41.977956 109.833569 
C 41.479294 110.332231 41.199109 111.008656 41.199109 111.71387 
C 41.199109 112.419085 41.479294 113.09551 41.977956 113.594172 
C 42.476618 114.092834 43.153043 114.373018 43.858257 114.373018 
z
" clip-path="url(#p1c9ddac0d6)" style="stroke: #000000"/>
    <path d="M 38.560474 102.238256 
C 39.265688 102.238256 39.942113 101.958071 40.440775 101.459409 
C 40.939437 100.960748 41.219622 100.284322 41.219622 99.579108 
C 41.219622 98.873894 40.939437 98.197468 40.440775 97.698806 
C 39.942113 97.200145 39.265688 96.91996 38.560474 96.91996 
C 37.855259 96.91996 37.178834 97.200145 36.680172 97.698806 
C 36.18151 98.197468 35.901326 98.873894 35.901326 99.579108 
C 35.901326 100.284322 36.18151 100.960748 36.680172 101.459409 
C 37.178834 101.958071 37.855259 102.238256 38.560474 102.238256 
z
" clip-path="url(#p1c9ddac0d6)" style="stroke: #000000"/>
    <path d="M 39.699527 91.972288 
C 39.699527 91.972288 39.699527 91.972288 39.699527 91.972288 
C 39.699527 91.972288 39.699527 91.972288 39.699527 91.972288 
C 39.699527 91.972288 39.699527 91.972288 39.699527 91.972288 
C 39.699527 91.972288 39.699527 91.972288 39.699527 91.972288 
C 39.699527 91.972288 39.699527 91.972288 39.699527 91.972288 
C 39.699527 91.972288 39.699527 91.972288 39.699527 91.972288 
C 39.699527 91.972288 39.699527 91.972288 39.699527 91.972288 
C 39.699527 91.972288 39.699527 91.972288 39.699527 91.972288 
z
" clip-path="url(#p1c9ddac0d6)" style="stroke: #000000"/>
    <path d="M 36.605573 77.263782 
C 36.605573 77.263782 36.605573 77.263782 36.605573 77.263782 
C 36.605573 77.263782 36.605573 77.263782 36.605573 77.263782 
C 36.605573 77.263782 36.605573 77.263782 36.605573 77.263782 
C 36.605573 77.263782 36.605573 77.263782 36.605573 77.263782 
C 36.605573 77.263782 36.605573 77.263782 36.605573 77.263782 
C 36.605573 77.263782 36.605573 77.263782 36.605573 77.263782 
C 36.605573 77.263782 36.605573 77.263782 36.605573 77.263782 
C 36.605573 77.263782 36.605573 77.263782 36.605573 77.263782 
z
" clip-path="url(#p1c9ddac0d6)" style="stroke: #000000"/>
    <path d="M 51.168461 179.201324 
C 51.761844 179.201324 52.331003 178.96557 52.750587 178.545986 
C 53.170172 178.126401 53.405925 177.557242 53.405925 176.963859 
C 53.405925 176.370477 53.170172 175.801318 52.750587 175.381733 
C 52.331003 174.962149 51.761844 174.726395 51.168461 174.726395 
C 50.575079 174.726395 50.00592 174.962149 49.586335 175.381733 
C 49.16675 175.801318 48.930997 176.370477 48.930997 176.963859 
C 48.930997 177.557242 49.16675 178.126401 49.586335 178.545986 
C 50.00592 178.96557 50.575079 179.201324 51.168461 179.201324 
z
" clip-path="url(#p1c9ddac0d6)" style="stroke: #000000"/>
    <path d="M 50.467798 164.184437 
C 50.467798 164.184437 50.467798 164.184437 50.467798 164.184437 
C 50.467798 164.184437 50.467798 164.184437 50.467798 164.184437 
C 50.467798 164.184437 50.467798 164.184437 50.467798 164.184437 
C 50.467798 164.184437 50.467798 164.184437 50.467798 164.184437 
C 50.467798 164.184437 50.467798 164.184437 50.467798 164.184437 
C 50.467798 164.184437 50.467798 164.184437 50.467798 164.184437 
C 50.467798 164.184437 50.467798 164.184437 50.467798 164.184437 
C 50.467798 164.184437 50.467798 164.184437 50.467798 164.184437 
z
" clip-path="url(#p1c9ddac0d6)" style="stroke: #000000"/>
    <path d="M 44.461608 157.656476 
C 45.054991 157.656476 45.62415 157.420723 46.043735 157.001138 
C 46.463319 156.581553 46.699073 156.012394 46.699073 155.419012 
C 46.699073 154.825629 46.463319 154.25647 46.043735 153.836886 
C 45.62415 153.417301 45.054991 153.181547 44.461608 153.181547 
C 43.868226 153.181547 43.299067 153.417301 42.879482 153.836886 
C 42.459898 154.25647 42.224144 154.825629 42.224144 155.419012 
C 42.224144 156.012394 42.459898 156.581553 42.879482 157.001138 
C 43.299067 157.420723 43.868226 157.656476 44.461608 157.656476 
z
" clip-path="url(#p1c9ddac0d6)" style="stroke: #000000"/>
    <path d="M 44.717537 145.884369 
C 44.974033 145.884369 45.220058 145.782462 45.401428 145.601092 
C 45.582798 145.419722 45.684705 145.173697 45.684705 144.917201 
C 45.684705 144.660705 45.582798 144.414679 45.401428 144.233309 
C 45.220058 144.051939 44.974033 143.950032 44.717537 143.950032 
C 44.461041 143.950032 44.215016 144.051939 44.033646 144.233309 
C 43.852276 144.414679 43.750369 144.660705 43.750369 144.917201 
C 43.750369 145.173697 43.852276 145.419722 44.033646 145.601092 
C 44.215016 145.782462 44.461041 145.884369 44.717537 145.884369 
z
" clip-path="url(#p1c9ddac0d6)" style="stroke: #000000"/>
    <path d="M 43.708437 133.232748 
C 44.240903 133.232748 44.751633 133.021197 45.128143 132.644686 
C 45.504654 132.268176 45.716205 131.757447 45.716205 131.224981 
C 45.716205 130.692515 45.504654 130.181785 45.128143 129.805275 
C 44.751633 129.428765 44.240903 129.217214 43.708437 129.217214 
C 43.175971 129.217214 42.665242 129.428765 42.288732 129.805275 
C 41.912221 130.181785 41.70067 130.692515 41.70067 131.224981 
C 41.70067 131.757447 41.912221 132.268176 42.288732 132.644686 
C 42.665242 133.021197 43.175971 133.232748 43.708437 133.232748 
z
" clip-path="url(#p1c9ddac0d6)" style="stroke: #000000"/>
    <path d="M 41.183339 122.310643 
C 41.888553 122.310643 42.564979 122.030458 43.06364 121.531797 
C 43.562302 121.033135 43.842487 120.356709 43.842487 119.651495 
C 43.842487 118.946281 43.562302 118.269855 43.06364 117.771193 
C 42.564979 117.272532 41.888553 116.992347 41.183339 116.992347 
C 40.478125 116.992347 39.801699 117.272532 39.303037 117.771193 
C 38.804376 118.269855 38.524191 118.946281 38.524191 119.651495 
C 38.524191 120.356709 38.804376 121.033135 39.303037 121.531797 
C 39.801699 122.030458 40.478125 122.310643 41.183339 122.310643 
z
" clip-path="url(#p1c9ddac0d6)" style="stroke: #000000"/>
    <path d="M 34.815107 115.270768 
C 35.520541 115.270768 36.197178 114.990496 36.695995 114.491678 
C 37.194813 113.992861 37.475085 113.316224 37.475085 112.610789 
C 37.475085 111.905355 37.194813 111.228718 36.695995 110.7299 
C 36.197178 110.231083 35.520541 109.950811 34.815107 109.950811 
C 34.109672 109.950811 33.433035 110.231083 32.934218 110.7299 
C 32.4354 111.228718 32.155128 111.905355 32.155128 112.610789 
C 32.155128 113.316224 32.4354 113.992861 32.934218 114.491678 
C 33.433035 114.990496 34.109672 115.270768 34.815107 115.270768 
z
" clip-path="url(#p1c9ddac0d6)" style="stroke: #000000"/>
    <path d="M 47.437436 177.285233 
C 48.030818 177.285233 48.599977 177.049479 49.019562 176.629895 
C 49.439147 176.21031 49.6749 175.641151 49.6749 175.047768 
C 49.6749 174.454386 49.439147 173.885227 49.019562 173.465642 
C 48.599977 173.046058 48.030818 172.810304 47.437436 172.810304 
C 46.844053 172.810304 46.274894 173.046058 45.85531 173.465642 
C 45.435725 173.885227 45.199972 174.454386 45.199972 175.047768 
C 45.199972 175.641151 45.435725 176.21031 45.85531 176.629895 
C 46.274894 177.049479 46.844053 177.285233 47.437436 177.285233 
z
" clip-path="url(#p1c9ddac0d6)" style="stroke: #000000"/>
    <path d="M 41.331058 168.738441 
C 41.331058 168.738441 41.331058 168.738441 41.331058 168.738441 
C 41.331058 168.738441 41.331058 168.738441 41.331058 168.738441 
C 41.331058 168.738441 41.331058 168.738441 41.331058 168.738441 
C 41.331058 168.738441 41.331058 168.738441 41.331058 168.738441 
C 41.331058 168.738441 41.331058 168.738441 41.331058 168.738441 
C 41.331058 168.738441 41.331058 168.738441 41.331058 168.738441 
C 41.331058 168.738441 41.331058 168.738441 41.331058 168.738441 
C 41.331058 168.738441 41.331058 168.738441 41.331058 168.738441 
z
" clip-path="url(#p1c9ddac0d6)" style="stroke: #000000"/>
    <path d="M 37.857705 158.070279 
C 38.451087 158.070279 39.020246 157.834526 39.439831 157.414941 
C 39.859416 156.995356 40.095169 156.426197 40.095169 155.832815 
C 40.095169 155.239432 39.859416 154.670273 39.439831 154.250689 
C 39.020246 153.831104 38.451087 153.59535 37.857705 153.59535 
C 37.264322 153.59535 36.695163 153.831104 36.275579 154.250689 
C 35.855994 154.670273 35.620241 155.239432 35.620241 155.832815 
C 35.620241 156.426197 35.855994 156.995356 36.275579 157.414941 
C 36.695163 157.834526 37.264322 158.070279 37.857705 158.070279 
z
" clip-path="url(#p1c9ddac0d6)" style="stroke: #000000"/>
    <path d="M 31.522453 146.793994 
C 32.115836 146.793994 32.684995 146.558241 33.10458 146.138656 
C 33.524164 145.719071 33.759918 145.149913 33.759918 144.55653 
C 33.759918 143.963148 33.524164 143.393989 33.10458 142.974404 
C 32.684995 142.554819 32.115836 142.319066 31.522453 142.319066 
C 30.929071 142.319066 30.359912 142.554819 29.940327 142.974404 
C 29.520743 143.393989 29.284989 143.963148 29.284989 144.55653 
C 29.284989 145.149913 29.520743 145.719071 29.940327 146.138656 
C 30.359912 146.558241 30.929071 146.793994 31.522453 146.793994 
z
" clip-path="url(#p1c9ddac0d6)" style="stroke: #000000"/>
    <path d="M 26.870115 134.328761 
C 26.870115 134.328761 26.870115 134.328761 26.870115 134.328761 
C 26.870115 134.328761 26.870115 134.328761 26.870115 134.328761 
C 26.870115 134.328761 26.870115 134.328761 26.870115 134.328761 
C 26.870115 134.328761 26.870115 134.328761 26.870115 134.328761 
C 26.870115 134.328761 26.870115 134.328761 26.870115 134.328761 
C 26.870115 134.328761 26.870115 134.328761 26.870115 134.328761 
C 26.870115 134.328761 26.870115 134.328761 26.870115 134.328761 
C 26.870115 134.328761 26.870115 134.328761 26.870115 134.328761 
z
" clip-path="url(#p1c9ddac0d6)" style="stroke: #000000"/>
   </g>
   <g id="matplotlib.axis_1">
    <g id="xtick_1">
     <g id="line2d_1">
      <defs>
       <path id="m4c8abc1b6c" d="M 0 0 
L 0 3.5 
" style="stroke: #000000; stroke-width: 0.8"/>
      </defs>
      <g>
       <use xlink:href="#m4c8abc1b6c" x="18" y="189" style="stroke: #000000; stroke-width: 0.8"/>
      </g>
     </g>
     <g id="text_1">
      <!-- 10 -->
      <g transform="translate(7.447656 203.598437)scale(0.1 -0.1)">
       <defs>
        <path id="DejaVuSans-2212" d="M 678 2272 
L 4684 2272 
L 4684 1741 
L 678 1741 
L 678 2272 
z
" transform="scale(0.015625)"/>
        <path id="DejaVuSans-31" d="M 794 531 
L 1825 531 
L 1825 4091 
L 703 3866 
L 703 4441 
L 1819 4666 
L 2450 4666 
L 2450 531 
L 3481 531 
L 3481 0 
L 794 0 
L 794 531 
z
" transform="scale(0.015625)"/>
        <path id="DejaVuSans-30" d="M 2034 4250 
Q 1547 4250 1301 3770 
Q 1056 3291 1056 2328 
Q 1056 1369 1301 889 
Q 1547 409 2034 409 
Q 2525 409 2770 889 
Q 3016 1369 3016 2328 
Q 3016 3291 2770 3770 
Q 2525 4250 2034 4250 
z
M 2034 4750 
Q 2819 4750 3233 4129 
Q 3647 3509 3647 2328 
Q 3647 1150 3233 529 
Q 2819 -91 2034 -91 
Q 1250 -91 836 529 
Q 422 1150 422 2328 
Q 422 3509 836 4129 
Q 1250 4750 2034 4750 
z
" transform="scale(0.015625)"/>
       </defs>
       <use xlink:href="#DejaVuSans-2212"/>
       <use xlink:href="#DejaVuSans-31" x="83.789062"/>
       <use xlink:href="#DejaVuSans-30" x="147.412109"/>
      </g>
     </g>
    </g>
    <g id="xtick_2">
     <g id="line2d_2">
      <g>
       <use xlink:href="#m4c8abc1b6c" x="73.8" y="189" style="stroke: #000000; stroke-width: 0.8"/>
      </g>
     </g>
     <g id="text_2">
      <!-- 0 -->
      <g transform="translate(70.61875 203.598437)scale(0.1 -0.1)">
       <use xlink:href="#DejaVuSans-30"/>
      </g>
     </g>
    </g>
    <g id="xtick_3">
     <g id="line2d_3">
      <g>
       <use xlink:href="#m4c8abc1b6c" x="129.6" y="189" style="stroke: #000000; stroke-width: 0.8"/>
      </g>
     </g>
     <g id="text_3">
      <!-- 10 -->
      <g transform="translate(123.2375 203.598437)scale(0.1 -0.1)">
       <use xlink:href="#DejaVuSans-31"/>
       <use xlink:href="#DejaVuSans-30" x="63.623047"/>
      </g>
     </g>
    </g>
   </g>
   <g id="matplotlib.axis_2">
    <g id="ytick_1">
     <g id="line2d_4">
      <defs>
       <path id="ma94520c0d1" d="M 0 0 
L -3.5 0 
" style="stroke: #000000; stroke-width: 0.8"/>
      </defs>
      <g>
       <use xlink:href="#ma94520c0d1" x="18" y="189" style="stroke: #000000; stroke-width: 0.8"/>
      </g>
     </g>
     <g id="text_4">
      <!-- 15 -->
      <g transform="translate(-10.104688 192.799219)scale(0.1 -0.1)">
       <defs>
        <path id="DejaVuSans-35" d="M 691 4666 
L 3169 4666 
L 3169 4134 
L 1269 4134 
L 1269 2991 
Q 1406 3038 1543 3061 
Q 1681 3084 1819 3084 
Q 2600 3084 3056 2656 
Q 3513 2228 3513 1497 
Q 3513 744 3044 326 
Q 2575 -91 1722 -91 
Q 1428 -91 1123 -41 
Q 819 9 494 109 
L 494 744 
Q 775 591 1075 516 
Q 1375 441 1709 441 
Q 2250 441 2565 725 
Q 2881 1009 2881 1497 
Q 2881 1984 2565 2268 
Q 2250 2553 1709 2553 
Q 1456 2553 1204 2497 
Q 953 2441 691 2322 
L 691 4666 
z
" transform="scale(0.015625)"/>
       </defs>
       <use xlink:href="#DejaVuSans-2212"/>
       <use xlink:href="#DejaVuSans-31" x="83.789062"/>
       <use xlink:href="#DejaVuSans-35" x="147.412109"/>
      </g>
     </g>
    </g>
    <g id="ytick_2">
     <g id="line2d_5">
      <g>
       <use xlink:href="#ma94520c0d1" x="18" y="161.82" style="stroke: #000000; stroke-width: 0.8"/>
      </g>
     </g>
     <g id="text_5">
      <!-- 10 -->
      <g transform="translate(-10.104688 165.619219)scale(0.1 -0.1)">
       <use xlink:href="#DejaVuSans-2212"/>
       <use xlink:href="#DejaVuSans-31" x="83.789062"/>
       <use xlink:href="#DejaVuSans-30" x="147.412109"/>
      </g>
     </g>
    </g>
    <g id="ytick_3">
     <g id="line2d_6">
      <g>
       <use xlink:href="#ma94520c0d1" x="18" y="134.64" style="stroke: #000000; stroke-width: 0.8"/>
      </g>
     </g>
     <g id="text_6">
      <!-- 5 -->
      <g transform="translate(-3.742188 138.439219)scale(0.1 -0.1)">
       <use xlink:href="#DejaVuSans-2212"/>
       <use xlink:href="#DejaVuSans-35" x="83.789062"/>
      </g>
     </g>
    </g>
    <g id="ytick_4">
     <g id="line2d_7">
      <g>
       <use xlink:href="#ma94520c0d1" x="18" y="107.46" style="stroke: #000000; stroke-width: 0.8"/>
      </g>
     </g>
     <g id="text_7">
      <!-- 0 -->
      <g transform="translate(4.6375 111.259219)scale(0.1 -0.1)">
       <use xlink:href="#DejaVuSans-30"/>
      </g>
     </g>
    </g>
    <g id="ytick_5">
     <g id="line2d_8">
      <g>
       <use xlink:href="#ma94520c0d1" x="18" y="80.28" style="stroke: #000000; stroke-width: 0.8"/>
      </g>
     </g>
     <g id="text_8">
      <!-- 5 -->
      <g transform="translate(4.6375 84.079219)scale(0.1 -0.1)">
       <use xlink:href="#DejaVuSans-35"/>
      </g>
     </g>
    </g>
    <g id="ytick_6">
     <g id="line2d_9">
      <g>
       <use xlink:href="#ma94520c0d1" x="18" y="53.1" style="stroke: #000000; stroke-width: 0.8"/>
      </g>
     </g>
     <g id="text_9">
      <!-- 10 -->
      <g transform="translate(-1.725 56.899219)scale(0.1 -0.1)">
       <use xlink:href="#DejaVuSans-31"/>
       <use xlink:href="#DejaVuSans-30" x="63.623047"/>
      </g>
     </g>
    </g>
    <g id="ytick_7">
     <g id="line2d_10">
      <g>
       <use xlink:href="#ma94520c0d1" x="18" y="25.92" style="stroke: #000000; stroke-width: 0.8"/>
      </g>
     </g>
     <g id="text_10">
      <!-- 15 -->
      <g transform="translate(-1.725 29.719219)scale(0.1 -0.1)">
       <use xlink:href="#DejaVuSans-31"/>
       <use xlink:href="#DejaVuSans-35" x="63.623047"/>
      </g>
     </g>
    </g>
   </g>
   <g id="patch_3">
    <path d="M 18 189 
L 18 25.92 
" style="fill: none; stroke: #000000; stroke-width: 0.8; stroke-linejoin: miter; stroke-linecap: square"/>
   </g>
   <g id="patch_4">
    <path d="M 129.6 189 
L 129.6 25.92 
" style="fill: none; stroke: #000000; stroke-width: 0.8; stroke-linejoin: miter; stroke-linecap: square"/>
   </g>
   <g id="patch_5">
    <path d="M 18 189 
L 129.6 189 
" style="fill: none; stroke: #000000; stroke-width: 0.8; stroke-linejoin: miter; stroke-linecap: square"/>
   </g>
   <g id="patch_6">
    <path d="M 18 25.92 
L 129.6 25.92 
" style="fill: none; stroke: #000000; stroke-width: 0.8; stroke-linejoin: miter; stroke-linecap: square"/>
   </g>
  </g>
 </g>
 <defs>
  <clipPath id="p1c9ddac0d6">
   <rect x="18" y="25.92" width="111.6" height="163.08"/>
  </clipPath>
 </defs>
</svg>
