<?xml version="1.0" encoding="utf-8" standalone="no"?>
<!DOCTYPE svg PUBLIC "-//W3C//DTD SVG 1.1//EN"
  "http://www.w3.org/Graphics/SVG/1.1/DTD/svg11.dtd">
<svg xmlns:xlink="http://www.w3.org/1999/xlink" width="144pt" height="216pt" viewBox="0 0 144 216" xmlns="http://www.w3.org/2000/svg" version="1.1">
 <metadata>
  <rdf:RDF xmlns:dc="http://purl.org/dc/elements/1.1/" xmlns:cc="http://creativecommons.org/ns#" xmlns:rdf="http://www.w3.org/1999/02/22-rdf-syntax-ns#">
   <cc:Work>
    <dc:type rdf:resource="http://purl.org/dc/dcmitype/StillImage"/>
    <dc:date>2022-06-23T10:50:56.397248</dc:date>
    <dc:format>image/svg+xml</dc:format>
    <dc:creator>
     <cc:Agent>
      <dc:title>Matplotlib v3.5.1, https://matplotlib.org/</dc:title>
     </cc:Agent>
    </dc:creator>
   </cc:Work>
  </rdf:RDF>
 </metadata>
 <defs>
  <style type="text/css">*{stroke-linejoin: round; stroke-linecap: butt}</style>
 </defs>
 <g id="figure_1">
  <g id="patch_1">
   <path d="M 0 216 
L 144 216 
L 144 0 
L 0 0 
L 0 216 
z
" style="fill: none"/>
  </g>
  <g id="axes_1">
   <g id="patch_2">
    <path d="M 18 189 
L 129.6 189 
L 129.6 25.92 
L 18 25.92 
z
" style="fill: #ffffff"/>
   </g>
   <g id="PathCollection_1">
    <defs>
     <path id="m431d070a06" d="M 0 2.738613 
C 0.726289 2.738613 1.422928 2.450055 1.936492 1.936492 
C 2.450055 1.422928 2.738613 0.726289 2.738613 0 
C 2.738613 -0.726289 2.450055 -1.422928 1.936492 -1.936492 
C 1.422928 -2.450055 0.726289 -2.738613 0 -2.738613 
C -0.726289 -2.738613 -1.422928 -2.450055 -1.936492 -1.936492 
C -2.450055 -1.422928 -2.738613 -0.726289 -2.738613 0 
C -2.738613 0.726289 -2.450055 1.422928 -1.936492 1.936492 
C -1.422928 2.450055 -0.726289 2.738613 0 2.738613 
z
" style="stroke: #ff0000; stroke-width: 1.75"/>
    </defs>
    <g clip-path="url(#pe83f367bc3)">
     <use xlink:href="#m431d070a06" x="80.775" y="83.92143" style="fill: #ff0000; stroke: #ff0000; stroke-width: 1.75"/>
     <use xlink:href="#m431d070a06" x="59.85" y="95.690715" style="fill: #ff0000; stroke: #ff0000; stroke-width: 1.75"/>
     <use xlink:href="#m431d070a06" x="66.825" y="107.46" style="fill: #ff0000; stroke: #ff0000; stroke-width: 1.75"/>
     <use xlink:href="#m431d070a06" x="80.775" y="107.46" style="fill: #ff0000; stroke: #ff0000; stroke-width: 1.75"/>
     <use xlink:href="#m431d070a06" x="94.725" y="107.46" style="fill: #ff0000; stroke: #ff0000; stroke-width: 1.75"/>
     <use xlink:href="#m431d070a06" x="59.85" y="119.229285" style="fill: #ff0000; stroke: #ff0000; stroke-width: 1.75"/>
     <use xlink:href="#m431d070a06" x="80.775" y="130.99857" style="fill: #ff0000; stroke: #ff0000; stroke-width: 1.75"/>
    </g>
   </g>
   <g id="PathCollection_2">
    <defs>
     <path id="C0_0_1da5b7396e" d="M 0 2.738613 
C 0.726289 2.738613 1.422928 2.450055 1.936492 1.936492 
C 2.450055 1.422928 2.738613 0.726289 2.738613 -0 
C 2.738613 -0.726289 2.450055 -1.422928 1.936492 -1.936492 
C 1.422928 -2.450055 0.726289 -2.738613 0 -2.738613 
C -0.726289 -2.738613 -1.422928 -2.450055 -1.936492 -1.936492 
C -2.450055 -1.422928 -2.738613 -0.726289 -2.738613 0 
C -2.738613 0.726289 -2.450055 1.422928 -1.936492 1.936492 
C -1.422928 2.450055 -0.726289 2.738613 0 2.738613 
z
"/>
    </defs>
    <g clip-path="url(#pe83f367bc3)">
     <use xlink:href="#C0_0_1da5b7396e" x="66.825" y="83.92143" style="fill: none; stroke: #ff0000; stroke-width: 1.75"/>
    </g>
    <g clip-path="url(#pe83f367bc3)">
     <use xlink:href="#C0_0_1da5b7396e" x="73.8" y="95.690715" style="fill: none; stroke: #ff0000; stroke-width: 1.75"/>
    </g>
    <g clip-path="url(#pe83f367bc3)">
     <use xlink:href="#C0_0_1da5b7396e" x="87.75" y="95.690715" style="fill: none; stroke: #ff0000; stroke-width: 1.75"/>
    </g>
    <g clip-path="url(#pe83f367bc3)">
     <use xlink:href="#C0_0_1da5b7396e" x="52.875" y="107.46" style="fill: none; stroke: #ff0000; stroke-width: 1.75"/>
    </g>
    <g clip-path="url(#pe83f367bc3)">
     <use xlink:href="#C0_0_1da5b7396e" x="73.8" y="119.229285" style="fill: none; stroke: #ff0000; stroke-width: 1.75"/>
    </g>
    <g clip-path="url(#pe83f367bc3)">
     <use xlink:href="#C0_0_1da5b7396e" x="87.75" y="119.229285" style="fill: none; stroke: #ff0000; stroke-width: 1.75"/>
    </g>
    <g clip-path="url(#pe83f367bc3)">
     <use xlink:href="#C0_0_1da5b7396e" x="66.825" y="130.99857" style="fill: none; stroke: #ff0000; stroke-width: 1.75"/>
    </g>
   </g>
   <g id="PathCollection_3">
    <path d="M 103.769736 54.939066 
C 104.186413 54.939066 104.586081 54.773518 104.880716 54.478883 
C 105.175351 54.184248 105.340899 53.78458 105.340899 53.367903 
C 105.340899 52.951226 105.175351 52.551559 104.880716 52.256923 
C 104.586081 51.962288 104.186413 51.796741 103.769736 51.796741 
C 103.353059 51.796741 102.953392 51.962288 102.658756 52.256923 
C 102.364121 52.551559 102.198573 52.951226 102.198573 53.367903 
C 102.198573 53.78458 102.364121 54.184248 102.658756 54.478883 
C 102.953392 54.773518 103.353059 54.939066 103.769736 54.939066 
z
" clip-path="url(#pe83f367bc3)" style="stroke: #000000"/>
    <path d="M 122.13779 140.992669 
C 122.557374 140.992669 122.959831 140.825966 123.256522 140.529275 
C 123.553213 140.232583 123.719916 139.830127 123.719916 139.410542 
C 123.719916 138.990958 123.553213 138.588502 123.256522 138.29181 
C 122.959831 137.995119 122.557374 137.828416 122.13779 137.828416 
C 121.718205 137.828416 121.315749 137.995119 121.019058 138.29181 
C 120.722366 138.588502 120.555664 138.990958 120.555664 139.410542 
C 120.555664 139.830127 120.722366 140.232583 121.019058 140.529275 
C 121.315749 140.825966 121.718205 140.992669 122.13779 140.992669 
z
" clip-path="url(#pe83f367bc3)" style="stroke: #000000"/>
    <path d="M 115.918838 134.154325 
C 115.918838 134.154325 115.918838 134.154325 115.918838 134.154325 
C 115.918838 134.154325 115.918838 134.154325 115.918838 134.154325 
C 115.918838 134.154325 115.918838 134.154325 115.918838 134.154325 
C 115.918838 134.154325 115.918838 134.154325 115.918838 134.154325 
C 115.918838 134.154325 115.918838 134.154325 115.918838 134.154325 
C 115.918838 134.154325 115.918838 134.154325 115.918838 134.154325 
C 115.918838 134.154325 115.918838 134.154325 115.918838 134.154325 
C 115.918838 134.154325 115.918838 134.154325 115.918838 134.154325 
z
" clip-path="url(#pe83f367bc3)" style="stroke: #000000"/>
    <path d="M 112.708623 112.887856 
C 113.207285 112.887856 113.68559 112.689735 114.038197 112.337128 
C 114.390805 111.984521 114.588925 111.506216 114.588925 111.007554 
C 114.588925 110.508892 114.390805 110.030587 114.038197 109.67798 
C 113.68559 109.325373 113.207285 109.127252 112.708623 109.127252 
C 112.209962 109.127252 111.731657 109.325373 111.379049 109.67798 
C 111.026442 110.030587 110.828322 110.508892 110.828322 111.007554 
C 110.828322 111.506216 111.026442 111.984521 111.379049 112.337128 
C 111.731657 112.689735 112.209962 112.887856 112.708623 112.887856 
z
" clip-path="url(#pe83f367bc3)" style="stroke: #000000"/>
    <path d="M 110.578476 103.30872 
C 111.077293 103.30872 111.555748 103.110538 111.908465 102.757821 
C 112.261182 102.405103 112.459364 101.926649 112.459364 101.427831 
C 112.459364 100.929014 112.261182 100.450559 111.908465 100.097842 
C 111.555748 99.745125 111.077293 99.546943 110.578476 99.546943 
C 110.079658 99.546943 109.601204 99.745125 109.248486 100.097842 
C 108.895769 100.450559 108.697587 100.929014 108.697587 101.427831 
C 108.697587 101.926649 108.895769 102.405103 109.248486 102.757821 
C 109.601204 103.110538 110.079658 103.30872 110.578476 103.30872 
z
" clip-path="url(#pe83f367bc3)" style="stroke: #000000"/>
    <path d="M 107.890727 91.005733 
C 108.347863 91.005733 108.786338 90.824111 109.109582 90.500867 
C 109.432826 90.177622 109.614448 89.739148 109.614448 89.282011 
C 109.614448 88.824875 109.432826 88.3864 109.109582 88.063156 
C 108.786338 87.739912 108.347863 87.55829 107.890727 87.55829 
C 107.43359 87.55829 106.995115 87.739912 106.671871 88.063156 
C 106.348627 88.3864 106.167005 88.824875 106.167005 89.282011 
C 106.167005 89.739148 106.348627 90.177622 106.671871 90.500867 
C 106.995115 90.824111 107.43359 91.005733 107.890727 91.005733 
z
" clip-path="url(#pe83f367bc3)" style="stroke: #000000"/>
    <path d="M 101.985245 78.382932 
C 102.440959 78.382932 102.878069 78.201875 103.200308 77.879637 
C 103.522546 77.557399 103.703603 77.120288 103.703603 76.664575 
C 103.703603 76.208861 103.522546 75.771751 103.200308 75.449512 
C 102.878069 75.127274 102.440959 74.946217 101.985245 74.946217 
C 101.529532 74.946217 101.092421 75.127274 100.770183 75.449512 
C 100.447945 75.771751 100.266888 76.208861 100.266888 76.664575 
C 100.266888 77.120288 100.447945 77.557399 100.770183 77.879637 
C 101.092421 78.201875 101.529532 78.382932 101.985245 78.382932 
z
" clip-path="url(#pe83f367bc3)" style="stroke: #000000"/>
    <path d="M 101.271696 68.375017 
C 101.271696 68.375017 101.271696 68.375017 101.271696 68.375017 
C 101.271696 68.375017 101.271696 68.375017 101.271696 68.375017 
C 101.271696 68.375017 101.271696 68.375017 101.271696 68.375017 
C 101.271696 68.375017 101.271696 68.375017 101.271696 68.375017 
C 101.271696 68.375017 101.271696 68.375017 101.271696 68.375017 
C 101.271696 68.375017 101.271696 68.375017 101.271696 68.375017 
C 101.271696 68.375017 101.271696 68.375017 101.271696 68.375017 
C 101.271696 68.375017 101.271696 68.375017 101.271696 68.375017 
z
" clip-path="url(#pe83f367bc3)" style="stroke: #000000"/>
    <path d="M 96.357105 57.044423 
C 96.357105 57.044423 96.357105 57.044423 96.357105 57.044423 
C 96.357105 57.044423 96.357105 57.044423 96.357105 57.044423 
C 96.357105 57.044423 96.357105 57.044423 96.357105 57.044423 
C 96.357105 57.044423 96.357105 57.044423 96.357105 57.044423 
C 96.357105 57.044423 96.357105 57.044423 96.357105 57.044423 
C 96.357105 57.044423 96.357105 57.044423 96.357105 57.044423 
C 96.357105 57.044423 96.357105 57.044423 96.357105 57.044423 
C 96.357105 57.044423 96.357105 57.044423 96.357105 57.044423 
z
" clip-path="url(#pe83f367bc3)" style="stroke: #000000"/>
    <path d="M 94.12228 50.287435 
C 94.520085 50.287435 94.90165 50.129385 95.182941 49.848095 
C 95.464231 49.566804 95.62228 49.185239 95.62228 48.787435 
C 95.62228 48.38963 95.464231 48.008065 95.182941 47.726775 
C 94.90165 47.445484 94.520085 47.287435 94.12228 47.287435 
C 93.724476 47.287435 93.342911 47.445484 93.06162 47.726775 
C 92.78033 48.008065 92.62228 48.38963 92.62228 48.787435 
C 92.62228 49.185239 92.78033 49.566804 93.06162 49.848095 
C 93.342911 50.129385 93.724476 50.287435 94.12228 50.287435 
z
" clip-path="url(#pe83f367bc3)" style="stroke: #000000"/>
    <path d="M 90.013505 37.040447 
C 90.43309 37.040447 90.835546 36.873744 91.132237 36.577053 
C 91.428928 36.280362 91.595631 35.877906 91.595631 35.458321 
C 91.595631 35.038736 91.428928 34.63628 91.132237 34.339589 
C 90.835546 34.042898 90.43309 33.876195 90.013505 33.876195 
C 89.59392 33.876195 89.191464 34.042898 88.894773 34.339589 
C 88.598082 34.63628 88.431379 35.038736 88.431379 35.458321 
C 88.431379 35.877906 88.598082 36.280362 88.894773 36.577053 
C 89.191464 36.873744 89.59392 37.040447 90.013505 37.040447 
z
" clip-path="url(#pe83f367bc3)" style="stroke: #000000"/>
    <path d="M 123.019197 167.212862 
C 123.019197 167.212862 123.019197 167.212862 123.019197 167.212862 
C 123.019197 167.212862 123.019197 167.212862 123.019197 167.212862 
C 123.019197 167.212862 123.019197 167.212862 123.019197 167.212862 
C 123.019197 167.212862 123.019197 167.212862 123.019197 167.212862 
C 123.019197 167.212862 123.019197 167.212862 123.019197 167.212862 
C 123.019197 167.212862 123.019197 167.212862 123.019197 167.212862 
C 123.019197 167.212862 123.019197 167.212862 123.019197 167.212862 
C 123.019197 167.212862 123.019197 167.212862 123.019197 167.212862 
z
" clip-path="url(#pe83f367bc3)" style="stroke: #000000"/>
    <path d="M 114.426149 152.529855 
C 114.426149 152.529855 114.426149 152.529855 114.426149 152.529855 
C 114.426149 152.529855 114.426149 152.529855 114.426149 152.529855 
C 114.426149 152.529855 114.426149 152.529855 114.426149 152.529855 
C 114.426149 152.529855 114.426149 152.529855 114.426149 152.529855 
C 114.426149 152.529855 114.426149 152.529855 114.426149 152.529855 
C 114.426149 152.529855 114.426149 152.529855 114.426149 152.529855 
C 114.426149 152.529855 114.426149 152.529855 114.426149 152.529855 
C 114.426149 152.529855 114.426149 152.529855 114.426149 152.529855 
z
" clip-path="url(#pe83f367bc3)" style="stroke: #000000"/>
    <path d="M 112.640502 138.289975 
C 112.640502 138.289975 112.640502 138.289975 112.640502 138.289975 
C 112.640502 138.289975 112.640502 138.289975 112.640502 138.289975 
C 112.640502 138.289975 112.640502 138.289975 112.640502 138.289975 
C 112.640502 138.289975 112.640502 138.289975 112.640502 138.289975 
C 112.640502 138.289975 112.640502 138.289975 112.640502 138.289975 
C 112.640502 138.289975 112.640502 138.289975 112.640502 138.289975 
C 112.640502 138.289975 112.640502 138.289975 112.640502 138.289975 
C 112.640502 138.289975 112.640502 138.289975 112.640502 138.289975 
z
" clip-path="url(#pe83f367bc3)" style="stroke: #000000"/>
    <path d="M 105.958939 139.458613 
C 106.391272 139.458613 106.805955 139.286846 107.111661 138.98114 
C 107.417366 138.675435 107.589134 138.260751 107.589134 137.828418 
C 107.589134 137.396085 107.417366 136.981401 107.111661 136.675696 
C 106.805955 136.369991 106.391272 136.198223 105.958939 136.198223 
C 105.526606 136.198223 105.111922 136.369991 104.806217 136.675696 
C 104.500511 136.981401 104.328744 137.396085 104.328744 137.828418 
C 104.328744 138.260751 104.500511 138.675435 104.806217 138.98114 
C 105.111922 139.286846 105.526606 139.458613 105.958939 139.458613 
z
" clip-path="url(#pe83f367bc3)" style="stroke: #000000"/>
    <path d="M 104.98886 125.305866 
C 105.487677 125.305866 105.966132 125.107684 106.318849 124.754966 
C 106.671566 124.402249 106.869749 123.923795 106.869749 123.424977 
C 106.869749 122.92616 106.671566 122.447705 106.318849 122.094988 
C 105.966132 121.742271 105.487677 121.544088 104.98886 121.544088 
C 104.490042 121.544088 104.011588 121.742271 103.658871 122.094988 
C 103.306153 122.447705 103.107971 122.92616 103.107971 123.424977 
C 103.107971 123.923795 103.306153 124.402249 103.658871 124.754966 
C 104.011588 125.107684 104.490042 125.305866 104.98886 125.305866 
z
" clip-path="url(#pe83f367bc3)" style="stroke: #000000"/>
    <path d="M 105.010928 115.309615 
C 105.389235 115.309615 105.752099 115.159312 106.019603 114.891808 
C 106.287107 114.624304 106.43741 114.26144 106.43741 113.883133 
C 106.43741 113.504825 106.287107 113.141961 106.019603 112.874457 
C 105.752099 112.606953 105.389235 112.45665 105.010928 112.45665 
C 104.63262 112.45665 104.269756 112.606953 104.002252 112.874457 
C 103.734748 113.141961 103.584445 113.504825 103.584445 113.883133 
C 103.584445 114.26144 103.734748 114.624304 104.002252 114.891808 
C 104.269756 115.159312 104.63262 115.309615 105.010928 115.309615 
z
" clip-path="url(#pe83f367bc3)" style="stroke: #000000"/>
    <path d="M 102.195989 103.86894 
C 102.694806 103.86894 103.173261 103.670758 103.525978 103.31804 
C 103.878695 102.965323 104.076878 102.486869 104.076878 101.988051 
C 104.076878 101.489234 103.878695 101.010779 103.525978 100.658062 
C 103.173261 100.305345 102.694806 100.107162 102.195989 100.107162 
C 101.697171 100.107162 101.218717 100.305345 100.865999 100.658062 
C 100.513282 101.010779 100.3151 101.489234 100.3151 101.988051 
C 100.3151 102.486869 100.513282 102.965323 100.865999 103.31804 
C 101.218717 103.670758 101.697171 103.86894 102.195989 103.86894 
z
" clip-path="url(#pe83f367bc3)" style="stroke: #000000"/>
    <path d="M 98.087253 95.10306 
C 98.585915 95.10306 99.06422 94.90494 99.416827 94.552332 
C 99.769434 94.199725 99.967555 93.72142 99.967555 93.222759 
C 99.967555 92.724097 99.769434 92.245792 99.416827 91.893185 
C 99.06422 91.540577 98.585915 91.342457 98.087253 91.342457 
C 97.588591 91.342457 97.110286 91.540577 96.757679 91.893185 
C 96.405072 92.245792 96.206951 92.724097 96.206951 93.222759 
C 96.206951 93.72142 96.405072 94.199725 96.757679 94.552332 
C 97.110286 94.90494 97.588591 95.10306 98.087253 95.10306 
z
" clip-path="url(#pe83f367bc3)" style="stroke: #000000"/>
    <path d="M 89.277559 82.408437 
C 89.776221 82.408437 90.254526 82.210316 90.607133 81.857709 
C 90.959741 81.505102 91.157861 81.026797 91.157861 80.528135 
C 91.157861 80.029473 90.959741 79.551168 90.607133 79.198561 
C 90.254526 78.845954 89.776221 78.647834 89.277559 78.647834 
C 88.778898 78.647834 88.300593 78.845954 87.947985 79.198561 
C 87.595378 79.551168 87.397258 80.029473 87.397258 80.528135 
C 87.397258 81.026797 87.595378 81.505102 87.947985 81.857709 
C 88.300593 82.210316 88.778898 82.408437 89.277559 82.408437 
z
" clip-path="url(#pe83f367bc3)" style="stroke: #000000"/>
    <path d="M 88.795956 74.185436 
C 89.145436 74.185436 89.48065 74.046586 89.72777 73.799466 
C 89.97489 73.552346 90.11374 73.217132 90.11374 72.867652 
C 90.11374 72.518171 89.97489 72.182958 89.72777 71.935838 
C 89.48065 71.688718 89.145436 71.549867 88.795956 71.549867 
C 88.446475 71.549867 88.111262 71.688718 87.864142 71.935838 
C 87.617022 72.182958 87.478171 72.518171 87.478171 72.867652 
C 87.478171 73.217132 87.617022 73.552346 87.864142 73.799466 
C 88.111262 74.046586 88.446475 74.185436 88.795956 74.185436 
z
" clip-path="url(#pe83f367bc3)" style="stroke: #000000"/>
    <path d="M 86.784972 67.845678 
C 87.28379 67.845678 87.762244 67.647495 88.114961 67.294778 
C 88.467679 66.942061 88.665861 66.463606 88.665861 65.964789 
C 88.665861 65.465971 88.467679 64.987517 88.114961 64.6348 
C 87.762244 64.282082 87.28379 64.0839 86.784972 64.0839 
C 86.286154 64.0839 85.8077 64.282082 85.454983 64.6348 
C 85.102265 64.987517 84.904083 65.465971 84.904083 65.964789 
C 84.904083 66.463606 85.102265 66.942061 85.454983 67.294778 
C 85.8077 67.647495 86.286154 67.845678 86.784972 67.845678 
z
" clip-path="url(#pe83f367bc3)" style="stroke: #000000"/>
    <path d="M 83.006181 50.106759 
C 83.006181 50.106759 83.006181 50.106759 83.006181 50.106759 
C 83.006181 50.106759 83.006181 50.106759 83.006181 50.106759 
C 83.006181 50.106759 83.006181 50.106759 83.006181 50.106759 
C 83.006181 50.106759 83.006181 50.106759 83.006181 50.106759 
C 83.006181 50.106759 83.006181 50.106759 83.006181 50.106759 
C 83.006181 50.106759 83.006181 50.106759 83.006181 50.106759 
C 83.006181 50.106759 83.006181 50.106759 83.006181 50.106759 
C 83.006181 50.106759 83.006181 50.106759 83.006181 50.106759 
z
" clip-path="url(#pe83f367bc3)" style="stroke: #000000"/>
    <path d="M 77.044512 40.528286 
C 77.044512 40.528286 77.044512 40.528286 77.044512 40.528286 
C 77.044512 40.528286 77.044512 40.528286 77.044512 40.528286 
C 77.044512 40.528286 77.044512 40.528286 77.044512 40.528286 
C 77.044512 40.528286 77.044512 40.528286 77.044512 40.528286 
C 77.044512 40.528286 77.044512 40.528286 77.044512 40.528286 
C 77.044512 40.528286 77.044512 40.528286 77.044512 40.528286 
C 77.044512 40.528286 77.044512 40.528286 77.044512 40.528286 
C 77.044512 40.528286 77.044512 40.528286 77.044512 40.528286 
z
" clip-path="url(#pe83f367bc3)" style="stroke: #000000"/>
    <path d="M 73.714678 32.24722 
C 73.714678 32.24722 73.714678 32.24722 73.714678 32.24722 
C 73.714678 32.24722 73.714678 32.24722 73.714678 32.24722 
C 73.714678 32.24722 73.714678 32.24722 73.714678 32.24722 
C 73.714678 32.24722 73.714678 32.24722 73.714678 32.24722 
C 73.714678 32.24722 73.714678 32.24722 73.714678 32.24722 
C 73.714678 32.24722 73.714678 32.24722 73.714678 32.24722 
C 73.714678 32.24722 73.714678 32.24722 73.714678 32.24722 
C 73.714678 32.24722 73.714678 32.24722 73.714678 32.24722 
z
" clip-path="url(#pe83f367bc3)" style="stroke: #000000"/>
    <path d="M 113.383253 177.782494 
C 113.703451 177.782494 114.010577 177.655278 114.236991 177.428864 
C 114.463405 177.20245 114.590621 176.895323 114.590621 176.575126 
C 114.590621 176.254928 114.463405 175.947801 114.236991 175.721387 
C 114.010577 175.494973 113.703451 175.367757 113.383253 175.367757 
C 113.063055 175.367757 112.755929 175.494973 112.529515 175.721387 
C 112.303101 175.947801 112.175885 176.254928 112.175885 176.575126 
C 112.175885 176.895323 112.303101 177.20245 112.529515 177.428864 
C 112.755929 177.655278 113.063055 177.782494 113.383253 177.782494 
z
" clip-path="url(#pe83f367bc3)" style="stroke: #000000"/>
    <path d="M 109.822504 172.157576 
C 110.178585 172.157576 110.52013 172.016103 110.771918 171.764315 
C 111.023706 171.512528 111.165178 171.170982 111.165178 170.814901 
C 111.165178 170.458819 111.023706 170.117274 110.771918 169.865486 
C 110.52013 169.613699 110.178585 169.472226 109.822504 169.472226 
C 109.466422 169.472226 109.124877 169.613699 108.873089 169.865486 
C 108.621302 170.117274 108.479829 170.458819 108.479829 170.814901 
C 108.479829 171.170982 108.621302 171.512528 108.873089 171.764315 
C 109.124877 172.016103 109.466422 172.157576 109.822504 172.157576 
z
" clip-path="url(#pe83f367bc3)" style="stroke: #000000"/>
    <path d="M 106.189974 158.06517 
C 106.609559 158.06517 107.012015 157.898467 107.308706 157.601776 
C 107.605398 157.305084 107.7721 156.902628 107.7721 156.483043 
C 107.7721 156.063459 107.605398 155.661003 107.308706 155.364311 
C 107.012015 155.06762 106.609559 154.900917 106.189974 154.900917 
C 105.770389 154.900917 105.367933 155.06762 105.071242 155.364311 
C 104.774551 155.661003 104.607848 156.063459 104.607848 156.483043 
C 104.607848 156.902628 104.774551 157.305084 105.071242 157.601776 
C 105.367933 157.898467 105.770389 158.06517 106.189974 158.06517 
z
" clip-path="url(#pe83f367bc3)" style="stroke: #000000"/>
    <path d="M 101.450366 145.453359 
C 101.450366 145.453359 101.450366 145.453359 101.450366 145.453359 
C 101.450366 145.453359 101.450366 145.453359 101.450366 145.453359 
C 101.450366 145.453359 101.450366 145.453359 101.450366 145.453359 
C 101.450366 145.453359 101.450366 145.453359 101.450366 145.453359 
C 101.450366 145.453359 101.450366 145.453359 101.450366 145.453359 
C 101.450366 145.453359 101.450366 145.453359 101.450366 145.453359 
C 101.450366 145.453359 101.450366 145.453359 101.450366 145.453359 
C 101.450366 145.453359 101.450366 145.453359 101.450366 145.453359 
z
" clip-path="url(#pe83f367bc3)" style="stroke: #000000"/>
    <path d="M 97.203966 139.5159 
C 97.366369 139.5159 97.522142 139.451377 97.636978 139.336541 
C 97.751815 139.221704 97.816338 139.065931 97.816338 138.903528 
C 97.816338 138.741125 97.751815 138.585352 97.636978 138.470515 
C 97.522142 138.355679 97.366369 138.291156 97.203966 138.291156 
C 97.041563 138.291156 96.885789 138.355679 96.770953 138.470515 
C 96.656117 138.585352 96.591593 138.741125 96.591593 138.903528 
C 96.591593 139.065931 96.656117 139.221704 96.770953 139.336541 
C 96.885789 139.451377 97.041563 139.5159 97.203966 139.5159 
z
" clip-path="url(#pe83f367bc3)" style="stroke: #000000"/>
    <path d="M 95.164021 129.941516 
C 95.164021 129.941516 95.164021 129.941516 95.164021 129.941516 
C 95.164021 129.941516 95.164021 129.941516 95.164021 129.941516 
C 95.164021 129.941516 95.164021 129.941516 95.164021 129.941516 
C 95.164021 129.941516 95.164021 129.941516 95.164021 129.941516 
C 95.164021 129.941516 95.164021 129.941516 95.164021 129.941516 
C 95.164021 129.941516 95.164021 129.941516 95.164021 129.941516 
C 95.164021 129.941516 95.164021 129.941516 95.164021 129.941516 
C 95.164021 129.941516 95.164021 129.941516 95.164021 129.941516 
z
" clip-path="url(#pe83f367bc3)" style="stroke: #000000"/>
    <path d="M 99.219453 123.875894 
C 99.71827 123.875894 100.196725 123.677712 100.549442 123.324995 
C 100.902159 122.972277 101.100342 122.493823 101.100342 121.995005 
C 101.100342 121.496188 100.902159 121.017733 100.549442 120.665016 
C 100.196725 120.312299 99.71827 120.114117 99.219453 120.114117 
C 98.720635 120.114117 98.242181 120.312299 97.889463 120.665016 
C 97.536746 121.017733 97.338564 121.496188 97.338564 121.995005 
C 97.338564 122.493823 97.536746 122.972277 97.889463 123.324995 
C 98.242181 123.677712 98.720635 123.875894 99.219453 123.875894 
z
" clip-path="url(#pe83f367bc3)" style="stroke: #000000"/>
    <path d="M 89.956225 108.55059 
C 90.352796 108.55059 90.733178 108.393031 91.013596 108.112613 
C 91.294014 107.832195 91.451573 107.451813 91.451573 107.055241 
C 91.451573 106.65867 91.294014 106.278288 91.013596 105.99787 
C 90.733178 105.717452 90.352796 105.559893 89.956225 105.559893 
C 89.559654 105.559893 89.179272 105.717452 88.898853 105.99787 
C 88.618435 106.278288 88.460876 106.65867 88.460876 107.055241 
C 88.460876 107.451813 88.618435 107.832195 88.898853 108.112613 
C 89.179272 108.393031 89.559654 108.55059 89.956225 108.55059 
z
" clip-path="url(#pe83f367bc3)" style="stroke: #000000"/>
    <path d="M 86.863261 97.774658 
C 86.863261 97.774658 86.863261 97.774658 86.863261 97.774658 
C 86.863261 97.774658 86.863261 97.774658 86.863261 97.774658 
C 86.863261 97.774658 86.863261 97.774658 86.863261 97.774658 
C 86.863261 97.774658 86.863261 97.774658 86.863261 97.774658 
C 86.863261 97.774658 86.863261 97.774658 86.863261 97.774658 
C 86.863261 97.774658 86.863261 97.774658 86.863261 97.774658 
C 86.863261 97.774658 86.863261 97.774658 86.863261 97.774658 
C 86.863261 97.774658 86.863261 97.774658 86.863261 97.774658 
z
" clip-path="url(#pe83f367bc3)" style="stroke: #000000"/>
    <path d="M 83.135009 92.304792 
C 83.633827 92.304792 84.112281 92.10661 84.464999 91.753892 
C 84.817716 91.401175 85.015898 90.922721 85.015898 90.423903 
C 85.015898 89.925086 84.817716 89.446631 84.464999 89.093914 
C 84.112281 88.741197 83.633827 88.543014 83.135009 88.543014 
C 82.636192 88.543014 82.157737 88.741197 81.80502 89.093914 
C 81.452303 89.446631 81.25412 89.925086 81.25412 90.423903 
C 81.25412 90.922721 81.452303 91.401175 81.80502 91.753892 
C 82.157737 92.10661 82.636192 92.304792 83.135009 92.304792 
z
" clip-path="url(#pe83f367bc3)" style="stroke: #000000"/>
    <path d="M 76.848521 79.029981 
C 76.848521 79.029981 76.848521 79.029981 76.848521 79.029981 
C 76.848521 79.029981 76.848521 79.029981 76.848521 79.029981 
C 76.848521 79.029981 76.848521 79.029981 76.848521 79.029981 
C 76.848521 79.029981 76.848521 79.029981 76.848521 79.029981 
C 76.848521 79.029981 76.848521 79.029981 76.848521 79.029981 
C 76.848521 79.029981 76.848521 79.029981 76.848521 79.029981 
C 76.848521 79.029981 76.848521 79.029981 76.848521 79.029981 
C 76.848521 79.029981 76.848521 79.029981 76.848521 79.029981 
z
" clip-path="url(#pe83f367bc3)" style="stroke: #000000"/>
    <path d="M 72.759103 65.589553 
C 72.759103 65.589553 72.759103 65.589553 72.759103 65.589553 
C 72.759103 65.589553 72.759103 65.589553 72.759103 65.589553 
C 72.759103 65.589553 72.759103 65.589553 72.759103 65.589553 
C 72.759103 65.589553 72.759103 65.589553 72.759103 65.589553 
C 72.759103 65.589553 72.759103 65.589553 72.759103 65.589553 
C 72.759103 65.589553 72.759103 65.589553 72.759103 65.589553 
C 72.759103 65.589553 72.759103 65.589553 72.759103 65.589553 
C 72.759103 65.589553 72.759103 65.589553 72.759103 65.589553 
z
" clip-path="url(#pe83f367bc3)" style="stroke: #000000"/>
    <path d="M 72.697269 53.864552 
C 72.697269 53.864552 72.697269 53.864552 72.697269 53.864552 
C 72.697269 53.864552 72.697269 53.864552 72.697269 53.864552 
C 72.697269 53.864552 72.697269 53.864552 72.697269 53.864552 
C 72.697269 53.864552 72.697269 53.864552 72.697269 53.864552 
C 72.697269 53.864552 72.697269 53.864552 72.697269 53.864552 
C 72.697269 53.864552 72.697269 53.864552 72.697269 53.864552 
C 72.697269 53.864552 72.697269 53.864552 72.697269 53.864552 
C 72.697269 53.864552 72.697269 53.864552 72.697269 53.864552 
z
" clip-path="url(#pe83f367bc3)" style="stroke: #000000"/>
    <path d="M 67.020086 43.88239 
C 67.020086 43.88239 67.020086 43.88239 67.020086 43.88239 
C 67.020086 43.88239 67.020086 43.88239 67.020086 43.88239 
C 67.020086 43.88239 67.020086 43.88239 67.020086 43.88239 
C 67.020086 43.88239 67.020086 43.88239 67.020086 43.88239 
C 67.020086 43.88239 67.020086 43.88239 67.020086 43.88239 
C 67.020086 43.88239 67.020086 43.88239 67.020086 43.88239 
C 67.020086 43.88239 67.020086 43.88239 67.020086 43.88239 
C 67.020086 43.88239 67.020086 43.88239 67.020086 43.88239 
z
" clip-path="url(#pe83f367bc3)" style="stroke: #000000"/>
    <path d="M 65.872314 38.511772 
C 65.872314 38.511772 65.872314 38.511772 65.872314 38.511772 
C 65.872314 38.511772 65.872314 38.511772 65.872314 38.511772 
C 65.872314 38.511772 65.872314 38.511772 65.872314 38.511772 
C 65.872314 38.511772 65.872314 38.511772 65.872314 38.511772 
C 65.872314 38.511772 65.872314 38.511772 65.872314 38.511772 
C 65.872314 38.511772 65.872314 38.511772 65.872314 38.511772 
C 65.872314 38.511772 65.872314 38.511772 65.872314 38.511772 
C 65.872314 38.511772 65.872314 38.511772 65.872314 38.511772 
z
" clip-path="url(#pe83f367bc3)" style="stroke: #000000"/>
    <path d="M 99.159053 172.394087 
C 99.539834 172.394087 99.905071 172.242801 100.174325 171.973547 
C 100.443578 171.704294 100.594864 171.339057 100.594864 170.958276 
C 100.594864 170.577494 100.443578 170.212257 100.174325 169.943004 
C 99.905071 169.673751 99.539834 169.522465 99.159053 169.522465 
C 98.778271 169.522465 98.413035 169.673751 98.143781 169.943004 
C 97.874528 170.212257 97.723242 170.577494 97.723242 170.958276 
C 97.723242 171.339057 97.874528 171.704294 98.143781 171.973547 
C 98.413035 172.242801 98.778271 172.394087 99.159053 172.394087 
z
" clip-path="url(#pe83f367bc3)" style="stroke: #000000"/>
    <path d="M 98.779527 160.403108 
C 98.779527 160.403108 98.779527 160.403108 98.779527 160.403108 
C 98.779527 160.403108 98.779527 160.403108 98.779527 160.403108 
C 98.779527 160.403108 98.779527 160.403108 98.779527 160.403108 
C 98.779527 160.403108 98.779527 160.403108 98.779527 160.403108 
C 98.779527 160.403108 98.779527 160.403108 98.779527 160.403108 
C 98.779527 160.403108 98.779527 160.403108 98.779527 160.403108 
C 98.779527 160.403108 98.779527 160.403108 98.779527 160.403108 
C 98.779527 160.403108 98.779527 160.403108 98.779527 160.403108 
z
" clip-path="url(#pe83f367bc3)" style="stroke: #000000"/>
    <path d="M 94.332426 151.406719 
C 94.752011 151.406719 95.154467 151.240016 95.451158 150.943325 
C 95.747849 150.646633 95.914552 150.244177 95.914552 149.824592 
C 95.914552 149.405008 95.747849 149.002552 95.451158 148.70586 
C 95.154467 148.409169 94.752011 148.242466 94.332426 148.242466 
C 93.912841 148.242466 93.510385 148.409169 93.213694 148.70586 
C 92.917003 149.002552 92.7503 149.405008 92.7503 149.824592 
C 92.7503 150.244177 92.917003 150.646633 93.213694 150.943325 
C 93.510385 151.240016 93.912841 151.406719 94.332426 151.406719 
z
" clip-path="url(#pe83f367bc3)" style="stroke: #000000"/>
    <path d="M 91.386257 144.384735 
C 91.884919 144.384735 92.363224 144.186614 92.715831 143.834007 
C 93.068438 143.4814 93.266559 143.003095 93.266559 142.504433 
C 93.266559 142.005771 93.068438 141.527466 92.715831 141.174859 
C 92.363224 140.822252 91.884919 140.624132 91.386257 140.624132 
C 90.887596 140.624132 90.409291 140.822252 90.056683 141.174859 
C 89.704076 141.527466 89.505956 142.005771 89.505956 142.504433 
C 89.505956 143.003095 89.704076 143.4814 90.056683 143.834007 
C 90.409291 144.186614 90.887596 144.384735 91.386257 144.384735 
z
" clip-path="url(#pe83f367bc3)" style="stroke: #000000"/>
    <path d="M 89.029549 131.340901 
C 89.029549 131.340901 89.029549 131.340901 89.029549 131.340901 
C 89.029549 131.340901 89.029549 131.340901 89.029549 131.340901 
C 89.029549 131.340901 89.029549 131.340901 89.029549 131.340901 
C 89.029549 131.340901 89.029549 131.340901 89.029549 131.340901 
C 89.029549 131.340901 89.029549 131.340901 89.029549 131.340901 
C 89.029549 131.340901 89.029549 131.340901 89.029549 131.340901 
C 89.029549 131.340901 89.029549 131.340901 89.029549 131.340901 
C 89.029549 131.340901 89.029549 131.340901 89.029549 131.340901 
z
" clip-path="url(#pe83f367bc3)" style="stroke: #000000"/>
    <path d="M 82.948043 115.727646 
C 82.948043 115.727646 82.948043 115.727646 82.948043 115.727646 
C 82.948043 115.727646 82.948043 115.727646 82.948043 115.727646 
C 82.948043 115.727646 82.948043 115.727646 82.948043 115.727646 
C 82.948043 115.727646 82.948043 115.727646 82.948043 115.727646 
C 82.948043 115.727646 82.948043 115.727646 82.948043 115.727646 
C 82.948043 115.727646 82.948043 115.727646 82.948043 115.727646 
C 82.948043 115.727646 82.948043 115.727646 82.948043 115.727646 
C 82.948043 115.727646 82.948043 115.727646 82.948043 115.727646 
z
" clip-path="url(#pe83f367bc3)" style="stroke: #000000"/>
    <path d="M 73.794613 110.998338 
C 74.293431 110.998338 74.771885 110.800156 75.124602 110.447438 
C 75.477319 110.094721 75.675502 109.616267 75.675502 109.117449 
C 75.675502 108.618632 75.477319 108.140177 75.124602 107.78746 
C 74.771885 107.434743 74.293431 107.23656 73.794613 107.23656 
C 73.295795 107.23656 72.817341 107.434743 72.464624 107.78746 
C 72.111906 108.140177 71.913724 108.618632 71.913724 109.117449 
C 71.913724 109.616267 72.111906 110.094721 72.464624 110.447438 
C 72.817341 110.800156 73.295795 110.998338 73.794613 110.998338 
z
" clip-path="url(#pe83f367bc3)" style="stroke: #000000"/>
    <path d="M 72.4154 99.343488 
C 72.834722 99.343488 73.236927 99.17689 73.533434 98.880384 
C 73.82994 98.583877 73.996538 98.181672 73.996538 97.76235 
C 73.996538 97.343027 73.82994 96.940822 73.533434 96.644316 
C 73.236927 96.347809 72.834722 96.181211 72.4154 96.181211 
C 71.996077 96.181211 71.593872 96.347809 71.297366 96.644316 
C 71.000859 96.940822 70.834261 97.343027 70.834261 97.76235 
C 70.834261 98.181672 71.000859 98.583877 71.297366 98.880384 
C 71.593872 99.17689 71.996077 99.343488 72.4154 99.343488 
z
" clip-path="url(#pe83f367bc3)" style="stroke: #000000"/>
    <path d="M 68.580258 88.512291 
C 68.580258 88.512291 68.580258 88.512291 68.580258 88.512291 
C 68.580258 88.512291 68.580258 88.512291 68.580258 88.512291 
C 68.580258 88.512291 68.580258 88.512291 68.580258 88.512291 
C 68.580258 88.512291 68.580258 88.512291 68.580258 88.512291 
C 68.580258 88.512291 68.580258 88.512291 68.580258 88.512291 
C 68.580258 88.512291 68.580258 88.512291 68.580258 88.512291 
C 68.580258 88.512291 68.580258 88.512291 68.580258 88.512291 
C 68.580258 88.512291 68.580258 88.512291 68.580258 88.512291 
z
" clip-path="url(#pe83f367bc3)" style="stroke: #000000"/>
    <path d="M 65.628329 80.007758 
C 66.126835 80.007758 66.60499 79.8097 66.957487 79.457203 
C 67.309984 79.104706 67.508042 78.62655 67.508042 78.128044 
C 67.508042 77.629538 67.309984 77.151383 66.957487 76.798886 
C 66.60499 76.446389 66.126835 76.248331 65.628329 76.248331 
C 65.129823 76.248331 64.651667 76.446389 64.29917 76.798886 
C 63.946674 77.151383 63.748615 77.629538 63.748615 78.128044 
C 63.748615 78.62655 63.946674 79.104706 64.29917 79.457203 
C 64.651667 79.8097 65.129823 80.007758 65.628329 80.007758 
z
" clip-path="url(#pe83f367bc3)" style="stroke: #000000"/>
    <path d="M 62.441935 71.511902 
C 62.861258 71.511902 63.263463 71.345304 63.559969 71.048798 
C 63.856476 70.752292 64.023074 70.350087 64.023074 69.930764 
C 64.023074 69.511441 63.856476 69.109236 63.559969 68.81273 
C 63.263463 68.516224 62.861258 68.349625 62.441935 68.349625 
C 62.022613 68.349625 61.620408 68.516224 61.323901 68.81273 
C 61.027395 69.109236 60.860797 69.511441 60.860797 69.930764 
C 60.860797 70.350087 61.027395 70.752292 61.323901 71.048798 
C 61.620408 71.345304 62.022613 71.511902 62.441935 71.511902 
z
" clip-path="url(#pe83f367bc3)" style="stroke: #000000"/>
    <path d="M 64.146899 55.199452 
C 64.146899 55.199452 64.146899 55.199452 64.146899 55.199452 
C 64.146899 55.199452 64.146899 55.199452 64.146899 55.199452 
C 64.146899 55.199452 64.146899 55.199452 64.146899 55.199452 
C 64.146899 55.199452 64.146899 55.199452 64.146899 55.199452 
C 64.146899 55.199452 64.146899 55.199452 64.146899 55.199452 
C 64.146899 55.199452 64.146899 55.199452 64.146899 55.199452 
C 64.146899 55.199452 64.146899 55.199452 64.146899 55.199452 
C 64.146899 55.199452 64.146899 55.199452 64.146899 55.199452 
z
" clip-path="url(#pe83f367bc3)" style="stroke: #000000"/>
    <path d="M 58.175123 42.692949 
C 58.175123 42.692949 58.175123 42.692949 58.175123 42.692949 
C 58.175123 42.692949 58.175123 42.692949 58.175123 42.692949 
C 58.175123 42.692949 58.175123 42.692949 58.175123 42.692949 
C 58.175123 42.692949 58.175123 42.692949 58.175123 42.692949 
C 58.175123 42.692949 58.175123 42.692949 58.175123 42.692949 
C 58.175123 42.692949 58.175123 42.692949 58.175123 42.692949 
C 58.175123 42.692949 58.175123 42.692949 58.175123 42.692949 
C 58.175123 42.692949 58.175123 42.692949 58.175123 42.692949 
z
" clip-path="url(#pe83f367bc3)" style="stroke: #000000"/>
    <path d="M 53.270598 37.240419 
C 53.270598 37.240419 53.270598 37.240419 53.270598 37.240419 
C 53.270598 37.240419 53.270598 37.240419 53.270598 37.240419 
C 53.270598 37.240419 53.270598 37.240419 53.270598 37.240419 
C 53.270598 37.240419 53.270598 37.240419 53.270598 37.240419 
C 53.270598 37.240419 53.270598 37.240419 53.270598 37.240419 
C 53.270598 37.240419 53.270598 37.240419 53.270598 37.240419 
C 53.270598 37.240419 53.270598 37.240419 53.270598 37.240419 
C 53.270598 37.240419 53.270598 37.240419 53.270598 37.240419 
z
" clip-path="url(#pe83f367bc3)" style="stroke: #000000"/>
    <path d="M 91.684268 178.007466 
C 92.103853 178.007466 92.506309 177.840763 92.803 177.544072 
C 93.099692 177.247381 93.266394 176.844925 93.266394 176.42534 
C 93.266394 176.005755 93.099692 175.603299 92.803 175.306608 
C 92.506309 175.009916 92.103853 174.843214 91.684268 174.843214 
C 91.264684 174.843214 90.862227 175.009916 90.565536 175.306608 
C 90.268845 175.603299 90.102142 176.005755 90.102142 176.42534 
C 90.102142 176.844925 90.268845 177.247381 90.565536 177.544072 
C 90.862227 177.840763 91.264684 178.007466 91.684268 178.007466 
z
" clip-path="url(#pe83f367bc3)" style="stroke: #000000"/>
    <path d="M 86.721413 168.658863 
C 87.140998 168.658863 87.543454 168.49216 87.840145 168.195469 
C 88.136837 167.898778 88.303539 167.496322 88.303539 167.076737 
C 88.303539 166.657152 88.136837 166.254696 87.840145 165.958005 
C 87.543454 165.661313 87.140998 165.494611 86.721413 165.494611 
C 86.301828 165.494611 85.899372 165.661313 85.602681 165.958005 
C 85.30599 166.254696 85.139287 166.657152 85.139287 167.076737 
C 85.139287 167.496322 85.30599 167.898778 85.602681 168.195469 
C 85.899372 168.49216 86.301828 168.658863 86.721413 168.658863 
z
" clip-path="url(#pe83f367bc3)" style="stroke: #000000"/>
    <path d="M 86.076394 150.561317 
C 86.076394 150.561317 86.076394 150.561317 86.076394 150.561317 
C 86.076394 150.561317 86.076394 150.561317 86.076394 150.561317 
C 86.076394 150.561317 86.076394 150.561317 86.076394 150.561317 
C 86.076394 150.561317 86.076394 150.561317 86.076394 150.561317 
C 86.076394 150.561317 86.076394 150.561317 86.076394 150.561317 
C 86.076394 150.561317 86.076394 150.561317 86.076394 150.561317 
C 86.076394 150.561317 86.076394 150.561317 86.076394 150.561317 
C 86.076394 150.561317 86.076394 150.561317 86.076394 150.561317 
z
" clip-path="url(#pe83f367bc3)" style="stroke: #000000"/>
    <path d="M 83.196383 145.119336 
C 83.695045 145.119336 84.17335 144.921216 84.525957 144.568609 
C 84.878564 144.216002 85.076685 143.737697 85.076685 143.239035 
C 85.076685 142.740373 84.878564 142.262068 84.525957 141.909461 
C 84.17335 141.556854 83.695045 141.358733 83.196383 141.358733 
C 82.697721 141.358733 82.219416 141.556854 81.866809 141.909461 
C 81.514202 142.262068 81.316082 142.740373 81.316082 143.239035 
C 81.316082 143.737697 81.514202 144.216002 81.866809 144.568609 
C 82.219416 144.921216 82.697721 145.119336 83.196383 145.119336 
z
" clip-path="url(#pe83f367bc3)" style="stroke: #000000"/>
    <path d="M 74.55246 135.906228 
C 74.949031 135.906228 75.329413 135.748668 75.609831 135.46825 
C 75.890249 135.187832 76.047809 134.80745 76.047809 134.410879 
C 76.047809 134.014308 75.890249 133.633926 75.609831 133.353508 
C 75.329413 133.073089 74.949031 132.91553 74.55246 132.91553 
C 74.155889 132.91553 73.775507 133.073089 73.495089 133.353508 
C 73.214671 133.633926 73.057111 134.014308 73.057111 134.410879 
C 73.057111 134.80745 73.214671 135.187832 73.495089 135.46825 
C 73.775507 135.748668 74.155889 135.906228 74.55246 135.906228 
z
" clip-path="url(#pe83f367bc3)" style="stroke: #000000"/>
    <path d="M 72.187008 125.416988 
C 72.583889 125.416988 72.964568 125.259305 73.245205 124.978668 
C 73.525842 124.698031 73.683524 124.317353 73.683524 123.920472 
C 73.683524 123.523591 73.525842 123.142913 73.245205 122.862276 
C 72.964568 122.581639 72.583889 122.423956 72.187008 122.423956 
C 71.790128 122.423956 71.409449 122.581639 71.128812 122.862276 
C 70.848175 123.142913 70.690493 123.523591 70.690493 123.920472 
C 70.690493 124.317353 70.848175 124.698031 71.128812 124.978668 
C 71.409449 125.259305 71.790128 125.416988 72.187008 125.416988 
z
" clip-path="url(#pe83f367bc3)" style="stroke: #000000"/>
    <path d="M 65.874111 114.589821 
C 65.874111 114.589821 65.874111 114.589821 65.874111 114.589821 
C 65.874111 114.589821 65.874111 114.589821 65.874111 114.589821 
C 65.874111 114.589821 65.874111 114.589821 65.874111 114.589821 
C 65.874111 114.589821 65.874111 114.589821 65.874111 114.589821 
C 65.874111 114.589821 65.874111 114.589821 65.874111 114.589821 
C 65.874111 114.589821 65.874111 114.589821 65.874111 114.589821 
C 65.874111 114.589821 65.874111 114.589821 65.874111 114.589821 
C 65.874111 114.589821 65.874111 114.589821 65.874111 114.589821 
z
" clip-path="url(#pe83f367bc3)" style="stroke: #000000"/>
    <path d="M 65.791138 99.930318 
C 65.791138 99.930318 65.791138 99.930318 65.791138 99.930318 
C 65.791138 99.930318 65.791138 99.930318 65.791138 99.930318 
C 65.791138 99.930318 65.791138 99.930318 65.791138 99.930318 
C 65.791138 99.930318 65.791138 99.930318 65.791138 99.930318 
C 65.791138 99.930318 65.791138 99.930318 65.791138 99.930318 
C 65.791138 99.930318 65.791138 99.930318 65.791138 99.930318 
C 65.791138 99.930318 65.791138 99.930318 65.791138 99.930318 
C 65.791138 99.930318 65.791138 99.930318 65.791138 99.930318 
z
" clip-path="url(#pe83f367bc3)" style="stroke: #000000"/>
    <path d="M 60.517758 94.333348 
C 60.937081 94.333348 61.339286 94.16675 61.635792 93.870244 
C 61.932298 93.573738 62.098897 93.171533 62.098897 92.75221 
C 62.098897 92.332887 61.932298 91.930682 61.635792 91.634176 
C 61.339286 91.33767 60.937081 91.171071 60.517758 91.171071 
C 60.098435 91.171071 59.69623 91.33767 59.399724 91.634176 
C 59.103218 91.930682 58.936619 92.332887 58.936619 92.75221 
C 58.936619 93.171533 59.103218 93.573738 59.399724 93.870244 
C 59.69623 94.16675 60.098435 94.333348 60.517758 94.333348 
z
" clip-path="url(#pe83f367bc3)" style="stroke: #000000"/>
    <path d="M 56.977724 81.874484 
C 56.977724 81.874484 56.977724 81.874484 56.977724 81.874484 
C 56.977724 81.874484 56.977724 81.874484 56.977724 81.874484 
C 56.977724 81.874484 56.977724 81.874484 56.977724 81.874484 
C 56.977724 81.874484 56.977724 81.874484 56.977724 81.874484 
C 56.977724 81.874484 56.977724 81.874484 56.977724 81.874484 
C 56.977724 81.874484 56.977724 81.874484 56.977724 81.874484 
C 56.977724 81.874484 56.977724 81.874484 56.977724 81.874484 
C 56.977724 81.874484 56.977724 81.874484 56.977724 81.874484 
z
" clip-path="url(#pe83f367bc3)" style="stroke: #000000"/>
    <path d="M 55.133254 72.678308 
C 55.133254 72.678308 55.133254 72.678308 55.133254 72.678308 
C 55.133254 72.678308 55.133254 72.678308 55.133254 72.678308 
C 55.133254 72.678308 55.133254 72.678308 55.133254 72.678308 
C 55.133254 72.678308 55.133254 72.678308 55.133254 72.678308 
C 55.133254 72.678308 55.133254 72.678308 55.133254 72.678308 
C 55.133254 72.678308 55.133254 72.678308 55.133254 72.678308 
C 55.133254 72.678308 55.133254 72.678308 55.133254 72.678308 
C 55.133254 72.678308 55.133254 72.678308 55.133254 72.678308 
z
" clip-path="url(#pe83f367bc3)" style="stroke: #000000"/>
    <path d="M 51.002754 60.81214 
C 51.002754 60.81214 51.002754 60.81214 51.002754 60.81214 
C 51.002754 60.81214 51.002754 60.81214 51.002754 60.81214 
C 51.002754 60.81214 51.002754 60.81214 51.002754 60.81214 
C 51.002754 60.81214 51.002754 60.81214 51.002754 60.81214 
C 51.002754 60.81214 51.002754 60.81214 51.002754 60.81214 
C 51.002754 60.81214 51.002754 60.81214 51.002754 60.81214 
C 51.002754 60.81214 51.002754 60.81214 51.002754 60.81214 
C 51.002754 60.81214 51.002754 60.81214 51.002754 60.81214 
z
" clip-path="url(#pe83f367bc3)" style="stroke: #000000"/>
    <path d="M 45.598576 54.942847 
C 46.01816 54.942847 46.420616 54.776145 46.717308 54.479453 
C 47.013999 54.182762 47.180702 53.780306 47.180702 53.360721 
C 47.180702 52.941137 47.013999 52.53868 46.717308 52.241989 
C 46.420616 51.945298 46.01816 51.778595 45.598576 51.778595 
C 45.178991 51.778595 44.776535 51.945298 44.479843 52.241989 
C 44.183152 52.53868 44.016449 52.941137 44.016449 53.360721 
C 44.016449 53.780306 44.183152 54.182762 44.479843 54.479453 
C 44.776535 54.776145 45.178991 54.942847 45.598576 54.942847 
z
" clip-path="url(#pe83f367bc3)" style="stroke: #000000"/>
    <path d="M 42.845403 42.810698 
C 42.845403 42.810698 42.845403 42.810698 42.845403 42.810698 
C 42.845403 42.810698 42.845403 42.810698 42.845403 42.810698 
C 42.845403 42.810698 42.845403 42.810698 42.845403 42.810698 
C 42.845403 42.810698 42.845403 42.810698 42.845403 42.810698 
C 42.845403 42.810698 42.845403 42.810698 42.845403 42.810698 
C 42.845403 42.810698 42.845403 42.810698 42.845403 42.810698 
C 42.845403 42.810698 42.845403 42.810698 42.845403 42.810698 
C 42.845403 42.810698 42.845403 42.810698 42.845403 42.810698 
z
" clip-path="url(#pe83f367bc3)" style="stroke: #000000"/>
    <path d="M 73.946079 170.01064 
C 74.334337 170.01064 74.706745 169.856384 74.981285 169.581844 
C 75.255825 169.307304 75.410082 168.934896 75.410082 168.546638 
C 75.410082 168.158379 75.255825 167.785971 74.981285 167.511431 
C 74.706745 167.236891 74.334337 167.082635 73.946079 167.082635 
C 73.557821 167.082635 73.185413 167.236891 72.910873 167.511431 
C 72.636333 167.785971 72.482077 168.158379 72.482077 168.546638 
C 72.482077 168.934896 72.636333 169.307304 72.910873 169.581844 
C 73.185413 169.856384 73.557821 170.01064 73.946079 170.01064 
z
" clip-path="url(#pe83f367bc3)" style="stroke: #000000"/>
    <path d="M 74.160004 161.792972 
C 74.160004 161.792972 74.160004 161.792972 74.160004 161.792972 
C 74.160004 161.792972 74.160004 161.792972 74.160004 161.792972 
C 74.160004 161.792972 74.160004 161.792972 74.160004 161.792972 
C 74.160004 161.792972 74.160004 161.792972 74.160004 161.792972 
C 74.160004 161.792972 74.160004 161.792972 74.160004 161.792972 
C 74.160004 161.792972 74.160004 161.792972 74.160004 161.792972 
C 74.160004 161.792972 74.160004 161.792972 74.160004 161.792972 
C 74.160004 161.792972 74.160004 161.792972 74.160004 161.792972 
z
" clip-path="url(#pe83f367bc3)" style="stroke: #000000"/>
    <path d="M 70.077403 151.887703 
C 70.49803 151.887703 70.901486 151.720586 71.198914 151.423158 
C 71.496343 151.125729 71.66346 150.722273 71.66346 150.301646 
C 71.66346 149.881019 71.496343 149.477563 71.198914 149.180135 
C 70.901486 148.882706 70.49803 148.715589 70.077403 148.715589 
C 69.656776 148.715589 69.253319 148.882706 68.955891 149.180135 
C 68.658463 149.477563 68.491346 149.881019 68.491346 150.301646 
C 68.491346 150.722273 68.658463 151.125729 68.955891 151.423158 
C 69.253319 151.720586 69.656776 151.887703 70.077403 151.887703 
z
" clip-path="url(#pe83f367bc3)" style="stroke: #000000"/>
    <path d="M 62.570065 138.949227 
C 63.068883 138.949227 63.547337 138.751044 63.900054 138.398327 
C 64.252772 138.04561 64.450954 137.567155 64.450954 137.068338 
C 64.450954 136.56952 64.252772 136.091066 63.900054 135.738349 
C 63.547337 135.385631 63.068883 135.187449 62.570065 135.187449 
C 62.071248 135.187449 61.592793 135.385631 61.240076 135.738349 
C 60.887359 136.091066 60.689176 136.56952 60.689176 137.068338 
C 60.689176 137.567155 60.887359 138.04561 61.240076 138.398327 
C 61.592793 138.751044 62.071248 138.949227 62.570065 138.949227 
z
" clip-path="url(#pe83f367bc3)" style="stroke: #000000"/>
    <path d="M 63.40319 132.178092 
C 63.902007 132.178092 64.380462 131.97991 64.733179 131.627192 
C 65.085896 131.274475 65.284079 130.796021 65.284079 130.297203 
C 65.284079 129.798385 65.085896 129.319931 64.733179 128.967214 
C 64.380462 128.614496 63.902007 128.416314 63.40319 128.416314 
C 62.904372 128.416314 62.425918 128.614496 62.0732 128.967214 
C 61.720483 129.319931 61.522301 129.798385 61.522301 130.297203 
C 61.522301 130.796021 61.720483 131.274475 62.0732 131.627192 
C 62.425918 131.97991 62.904372 132.178092 63.40319 132.178092 
z
" clip-path="url(#pe83f367bc3)" style="stroke: #000000"/>
    <path d="M 55.014907 119.105291 
C 55.411478 119.105291 55.79186 118.947732 56.072278 118.667314 
C 56.352696 118.386895 56.510255 118.006513 56.510255 117.609942 
C 56.510255 117.213371 56.352696 116.832989 56.072278 116.552571 
C 55.79186 116.272153 55.411478 116.114594 55.014907 116.114594 
C 54.618335 116.114594 54.237953 116.272153 53.957535 116.552571 
C 53.677117 116.832989 53.519558 117.213371 53.519558 117.609942 
C 53.519558 118.006513 53.677117 118.386895 53.957535 118.667314 
C 54.237953 118.947732 54.618335 119.105291 55.014907 119.105291 
z
" clip-path="url(#pe83f367bc3)" style="stroke: #000000"/>
    <path d="M 54.162926 105.244363 
C 54.582249 105.244363 54.984454 105.077764 55.28096 104.781258 
C 55.577466 104.484752 55.744065 104.082547 55.744065 103.663224 
C 55.744065 103.243901 55.577466 102.841696 55.28096 102.54519 
C 54.984454 102.248684 54.582249 102.082085 54.162926 102.082085 
C 53.743603 102.082085 53.341398 102.248684 53.044892 102.54519 
C 52.748386 102.841696 52.581787 103.243901 52.581787 103.663224 
C 52.581787 104.082547 52.748386 104.484752 53.044892 104.781258 
C 53.341398 105.077764 53.743603 105.244363 54.162926 105.244363 
z
" clip-path="url(#pe83f367bc3)" style="stroke: #000000"/>
    <path d="M 49.586879 96.742506 
C 49.952024 96.742506 50.302263 96.597432 50.560459 96.339236 
C 50.818656 96.081039 50.96373 95.7308 50.96373 95.365655 
C 50.96373 95.00051 50.818656 94.650271 50.560459 94.392074 
C 50.302263 94.133877 49.952024 93.988804 49.586879 93.988804 
C 49.221734 93.988804 48.871495 94.133877 48.613298 94.392074 
C 48.355101 94.650271 48.210028 95.00051 48.210028 95.365655 
C 48.210028 95.7308 48.355101 96.081039 48.613298 96.339236 
C 48.871495 96.597432 49.221734 96.742506 49.586879 96.742506 
z
" clip-path="url(#pe83f367bc3)" style="stroke: #000000"/>
    <path d="M 45.456606 89.051942 
C 45.947123 89.051942 46.417615 88.857057 46.764463 88.510209 
C 47.111311 88.163361 47.306196 87.692869 47.306196 87.202352 
C 47.306196 86.711835 47.111311 86.241342 46.764463 85.894494 
C 46.417615 85.547646 45.947123 85.352762 45.456606 85.352762 
C 44.966089 85.352762 44.495596 85.547646 44.148748 85.894494 
C 43.8019 86.241342 43.607016 86.711835 43.607016 87.202352 
C 43.607016 87.692869 43.8019 88.163361 44.148748 88.510209 
C 44.495596 88.857057 44.966089 89.051942 45.456606 89.051942 
z
" clip-path="url(#pe83f367bc3)" style="stroke: #000000"/>
    <path d="M 45.153216 76.752238 
C 45.153216 76.752238 45.153216 76.752238 45.153216 76.752238 
C 45.153216 76.752238 45.153216 76.752238 45.153216 76.752238 
C 45.153216 76.752238 45.153216 76.752238 45.153216 76.752238 
C 45.153216 76.752238 45.153216 76.752238 45.153216 76.752238 
C 45.153216 76.752238 45.153216 76.752238 45.153216 76.752238 
C 45.153216 76.752238 45.153216 76.752238 45.153216 76.752238 
C 45.153216 76.752238 45.153216 76.752238 45.153216 76.752238 
C 45.153216 76.752238 45.153216 76.752238 45.153216 76.752238 
z
" clip-path="url(#pe83f367bc3)" style="stroke: #000000"/>
    <path d="M 38.534959 64.321616 
C 38.534959 64.321616 38.534959 64.321616 38.534959 64.321616 
C 38.534959 64.321616 38.534959 64.321616 38.534959 64.321616 
C 38.534959 64.321616 38.534959 64.321616 38.534959 64.321616 
C 38.534959 64.321616 38.534959 64.321616 38.534959 64.321616 
C 38.534959 64.321616 38.534959 64.321616 38.534959 64.321616 
C 38.534959 64.321616 38.534959 64.321616 38.534959 64.321616 
C 38.534959 64.321616 38.534959 64.321616 38.534959 64.321616 
C 38.534959 64.321616 38.534959 64.321616 38.534959 64.321616 
z
" clip-path="url(#pe83f367bc3)" style="stroke: #000000"/>
    <path d="M 66.371347 171.513207 
C 66.371347 171.513207 66.371347 171.513207 66.371347 171.513207 
C 66.371347 171.513207 66.371347 171.513207 66.371347 171.513207 
C 66.371347 171.513207 66.371347 171.513207 66.371347 171.513207 
C 66.371347 171.513207 66.371347 171.513207 66.371347 171.513207 
C 66.371347 171.513207 66.371347 171.513207 66.371347 171.513207 
C 66.371347 171.513207 66.371347 171.513207 66.371347 171.513207 
C 66.371347 171.513207 66.371347 171.513207 66.371347 171.513207 
C 66.371347 171.513207 66.371347 171.513207 66.371347 171.513207 
z
" clip-path="url(#pe83f367bc3)" style="stroke: #000000"/>
    <path d="M 59.375886 161.72759 
C 59.375886 161.72759 59.375886 161.72759 59.375886 161.72759 
C 59.375886 161.72759 59.375886 161.72759 59.375886 161.72759 
C 59.375886 161.72759 59.375886 161.72759 59.375886 161.72759 
C 59.375886 161.72759 59.375886 161.72759 59.375886 161.72759 
C 59.375886 161.72759 59.375886 161.72759 59.375886 161.72759 
C 59.375886 161.72759 59.375886 161.72759 59.375886 161.72759 
C 59.375886 161.72759 59.375886 161.72759 59.375886 161.72759 
C 59.375886 161.72759 59.375886 161.72759 59.375886 161.72759 
z
" clip-path="url(#pe83f367bc3)" style="stroke: #000000"/>
    <path d="M 63.670188 154.561447 
C 64.089772 154.561447 64.492228 154.394744 64.78892 154.098053 
C 65.085611 153.801362 65.252314 153.398905 65.252314 152.979321 
C 65.252314 152.559736 65.085611 152.15728 64.78892 151.860589 
C 64.492228 151.563897 64.089772 151.397195 63.670188 151.397195 
C 63.250603 151.397195 62.848147 151.563897 62.551455 151.860589 
C 62.254764 152.15728 62.088061 152.559736 62.088061 152.979321 
C 62.088061 153.398905 62.254764 153.801362 62.551455 154.098053 
C 62.848147 154.394744 63.250603 154.561447 63.670188 154.561447 
z
" clip-path="url(#pe83f367bc3)" style="stroke: #000000"/>
    <path d="M 53.678659 140.911438 
C 53.678659 140.911438 53.678659 140.911438 53.678659 140.911438 
C 53.678659 140.911438 53.678659 140.911438 53.678659 140.911438 
C 53.678659 140.911438 53.678659 140.911438 53.678659 140.911438 
C 53.678659 140.911438 53.678659 140.911438 53.678659 140.911438 
C 53.678659 140.911438 53.678659 140.911438 53.678659 140.911438 
C 53.678659 140.911438 53.678659 140.911438 53.678659 140.911438 
C 53.678659 140.911438 53.678659 140.911438 53.678659 140.911438 
C 53.678659 140.911438 53.678659 140.911438 53.678659 140.911438 
z
" clip-path="url(#pe83f367bc3)" style="stroke: #000000"/>
    <path d="M 47.45625 135.467027 
C 47.952558 135.467027 48.428605 135.269842 48.779547 134.918899 
C 49.13049 134.567957 49.327675 134.09191 49.327675 133.595602 
C 49.327675 133.099294 49.13049 132.623247 48.779547 132.272305 
C 48.428605 131.921362 47.952558 131.724177 47.45625 131.724177 
C 46.959942 131.724177 46.483895 131.921362 46.132953 132.272305 
C 45.78201 132.623247 45.584825 133.099294 45.584825 133.595602 
C 45.584825 134.09191 45.78201 134.567957 46.132953 134.918899 
C 46.483895 135.269842 46.959942 135.467027 47.45625 135.467027 
z
" clip-path="url(#pe83f367bc3)" style="stroke: #000000"/>
    <path d="M 45.172093 119.185083 
C 45.483071 119.185083 45.781354 119.06153 46.001249 118.841635 
C 46.221144 118.62174 46.344697 118.323457 46.344697 118.012479 
C 46.344697 117.701501 46.221144 117.403217 46.001249 117.183323 
C 45.781354 116.963428 45.483071 116.839875 45.172093 116.839875 
C 44.861115 116.839875 44.562831 116.963428 44.342937 117.183323 
C 44.123042 117.403217 43.999489 117.701501 43.999489 118.012479 
C 43.999489 118.323457 44.123042 118.62174 44.342937 118.841635 
C 44.562831 119.06153 44.861115 119.185083 45.172093 119.185083 
z
" clip-path="url(#pe83f367bc3)" style="stroke: #000000"/>
    <path d="M 42.241883 109.00969 
C 42.7407 109.00969 43.219155 108.811508 43.571872 108.45879 
C 43.924589 108.106073 44.122772 107.627619 44.122772 107.128801 
C 44.122772 106.629984 43.924589 106.151529 43.571872 105.798812 
C 43.219155 105.446095 42.7407 105.247912 42.241883 105.247912 
C 41.743065 105.247912 41.264611 105.446095 40.911894 105.798812 
C 40.559176 106.151529 40.360994 106.629984 40.360994 107.128801 
C 40.360994 107.627619 40.559176 108.106073 40.911894 108.45879 
C 41.264611 108.811508 41.743065 109.00969 42.241883 109.00969 
z
" clip-path="url(#pe83f367bc3)" style="stroke: #000000"/>
    <path d="M 41.32175 99.578644 
C 41.820568 99.578644 42.299022 99.380461 42.651739 99.027744 
C 43.004457 98.675027 43.202639 98.196572 43.202639 97.697755 
C 43.202639 97.198937 43.004457 96.720483 42.651739 96.367766 
C 42.299022 96.015048 41.820568 95.816866 41.32175 95.816866 
C 40.822933 95.816866 40.344478 96.015048 39.991761 96.367766 
C 39.639044 96.720483 39.440861 97.198937 39.440861 97.697755 
C 39.440861 98.196572 39.639044 98.675027 39.991761 99.027744 
C 40.344478 99.380461 40.822933 99.578644 41.32175 99.578644 
z
" clip-path="url(#pe83f367bc3)" style="stroke: #000000"/>
    <path d="M 40.163729 92.688239 
C 40.163729 92.688239 40.163729 92.688239 40.163729 92.688239 
C 40.163729 92.688239 40.163729 92.688239 40.163729 92.688239 
C 40.163729 92.688239 40.163729 92.688239 40.163729 92.688239 
C 40.163729 92.688239 40.163729 92.688239 40.163729 92.688239 
C 40.163729 92.688239 40.163729 92.688239 40.163729 92.688239 
C 40.163729 92.688239 40.163729 92.688239 40.163729 92.688239 
C 40.163729 92.688239 40.163729 92.688239 40.163729 92.688239 
C 40.163729 92.688239 40.163729 92.688239 40.163729 92.688239 
z
" clip-path="url(#pe83f367bc3)" style="stroke: #000000"/>
    <path d="M 34.762722 78.609537 
C 35.182306 78.609537 35.584763 78.442834 35.881454 78.146143 
C 36.178145 77.849451 36.344848 77.446995 36.344848 77.02741 
C 36.344848 76.607826 36.178145 76.20537 35.881454 75.908678 
C 35.584763 75.611987 35.182306 75.445284 34.762722 75.445284 
C 34.343137 75.445284 33.940681 75.611987 33.64399 75.908678 
C 33.347298 76.20537 33.180596 76.607826 33.180596 77.02741 
C 33.180596 77.446995 33.347298 77.849451 33.64399 78.146143 
C 33.940681 78.442834 34.343137 78.609537 34.762722 78.609537 
z
" clip-path="url(#pe83f367bc3)" style="stroke: #000000"/>
    <path d="M 55.378558 174.314966 
C 55.378558 174.314966 55.378558 174.314966 55.378558 174.314966 
C 55.378558 174.314966 55.378558 174.314966 55.378558 174.314966 
C 55.378558 174.314966 55.378558 174.314966 55.378558 174.314966 
C 55.378558 174.314966 55.378558 174.314966 55.378558 174.314966 
C 55.378558 174.314966 55.378558 174.314966 55.378558 174.314966 
C 55.378558 174.314966 55.378558 174.314966 55.378558 174.314966 
C 55.378558 174.314966 55.378558 174.314966 55.378558 174.314966 
C 55.378558 174.314966 55.378558 174.314966 55.378558 174.314966 
z
" clip-path="url(#pe83f367bc3)" style="stroke: #000000"/>
    <path d="M 49.266654 167.704126 
C 49.266654 167.704126 49.266654 167.704126 49.266654 167.704126 
C 49.266654 167.704126 49.266654 167.704126 49.266654 167.704126 
C 49.266654 167.704126 49.266654 167.704126 49.266654 167.704126 
C 49.266654 167.704126 49.266654 167.704126 49.266654 167.704126 
C 49.266654 167.704126 49.266654 167.704126 49.266654 167.704126 
C 49.266654 167.704126 49.266654 167.704126 49.266654 167.704126 
C 49.266654 167.704126 49.266654 167.704126 49.266654 167.704126 
C 49.266654 167.704126 49.266654 167.704126 49.266654 167.704126 
z
" clip-path="url(#pe83f367bc3)" style="stroke: #000000"/>
    <path d="M 49.217203 157.130917 
C 49.217203 157.130917 49.217203 157.130917 49.217203 157.130917 
C 49.217203 157.130917 49.217203 157.130917 49.217203 157.130917 
C 49.217203 157.130917 49.217203 157.130917 49.217203 157.130917 
C 49.217203 157.130917 49.217203 157.130917 49.217203 157.130917 
C 49.217203 157.130917 49.217203 157.130917 49.217203 157.130917 
C 49.217203 157.130917 49.217203 157.130917 49.217203 157.130917 
C 49.217203 157.130917 49.217203 157.130917 49.217203 157.130917 
C 49.217203 157.130917 49.217203 157.130917 49.217203 157.130917 
z
" clip-path="url(#pe83f367bc3)" style="stroke: #000000"/>
    <path d="M 43.779196 140.029157 
C 43.779196 140.029157 43.779196 140.029157 43.779196 140.029157 
C 43.779196 140.029157 43.779196 140.029157 43.779196 140.029157 
C 43.779196 140.029157 43.779196 140.029157 43.779196 140.029157 
C 43.779196 140.029157 43.779196 140.029157 43.779196 140.029157 
C 43.779196 140.029157 43.779196 140.029157 43.779196 140.029157 
C 43.779196 140.029157 43.779196 140.029157 43.779196 140.029157 
C 43.779196 140.029157 43.779196 140.029157 43.779196 140.029157 
C 43.779196 140.029157 43.779196 140.029157 43.779196 140.029157 
z
" clip-path="url(#pe83f367bc3)" style="stroke: #000000"/>
    <path d="M 38.922973 132.262534 
C 38.922973 132.262534 38.922973 132.262534 38.922973 132.262534 
C 38.922973 132.262534 38.922973 132.262534 38.922973 132.262534 
C 38.922973 132.262534 38.922973 132.262534 38.922973 132.262534 
C 38.922973 132.262534 38.922973 132.262534 38.922973 132.262534 
C 38.922973 132.262534 38.922973 132.262534 38.922973 132.262534 
C 38.922973 132.262534 38.922973 132.262534 38.922973 132.262534 
C 38.922973 132.262534 38.922973 132.262534 38.922973 132.262534 
C 38.922973 132.262534 38.922973 132.262534 38.922973 132.262534 
z
" clip-path="url(#pe83f367bc3)" style="stroke: #000000"/>
    <path d="M 33.869827 122.519509 
C 33.869827 122.519509 33.869827 122.519509 33.869827 122.519509 
C 33.869827 122.519509 33.869827 122.519509 33.869827 122.519509 
C 33.869827 122.519509 33.869827 122.519509 33.869827 122.519509 
C 33.869827 122.519509 33.869827 122.519509 33.869827 122.519509 
C 33.869827 122.519509 33.869827 122.519509 33.869827 122.519509 
C 33.869827 122.519509 33.869827 122.519509 33.869827 122.519509 
C 33.869827 122.519509 33.869827 122.519509 33.869827 122.519509 
C 33.869827 122.519509 33.869827 122.519509 33.869827 122.519509 
z
" clip-path="url(#pe83f367bc3)" style="stroke: #000000"/>
    <path d="M 35.72967 115.039578 
C 35.823433 115.039578 35.913369 115.002326 35.97967 114.936025 
C 36.045971 114.869724 36.083223 114.779788 36.083223 114.686025 
C 36.083223 114.592261 36.045971 114.502326 35.97967 114.436025 
C 35.913369 114.369724 35.823433 114.332471 35.72967 114.332471 
C 35.635906 114.332471 35.545971 114.369724 35.47967 114.436025 
C 35.413369 114.502326 35.376116 114.592261 35.376116 114.686025 
C 35.376116 114.779788 35.413369 114.869724 35.47967 114.936025 
C 35.545971 115.002326 35.635906 115.039578 35.72967 115.039578 
z
" clip-path="url(#pe83f367bc3)" style="stroke: #000000"/>
    <path d="M 39.388755 171.432123 
C 39.80834 171.432123 40.210796 171.26542 40.507487 170.968729 
C 40.804178 170.672038 40.970881 170.269581 40.970881 169.849997 
C 40.970881 169.430412 40.804178 169.027956 40.507487 168.731265 
C 40.210796 168.434573 39.80834 168.267871 39.388755 168.267871 
C 38.96917 168.267871 38.566714 168.434573 38.270023 168.731265 
C 37.973332 169.027956 37.806629 169.430412 37.806629 169.849997 
C 37.806629 170.269581 37.973332 170.672038 38.270023 170.968729 
C 38.566714 171.26542 38.96917 171.432123 39.388755 171.432123 
z
" clip-path="url(#pe83f367bc3)" style="stroke: #000000"/>
    <path d="M 39.550235 158.844624 
C 39.952862 158.844624 40.339053 158.684658 40.623754 158.399958 
C 40.908455 158.115257 41.06842 157.729066 41.06842 157.326439 
C 41.06842 156.923811 40.908455 156.53762 40.623754 156.25292 
C 40.339053 155.968219 39.952862 155.808254 39.550235 155.808254 
C 39.147608 155.808254 38.761417 155.968219 38.476716 156.25292 
C 38.192015 156.53762 38.03205 156.923811 38.03205 157.326439 
C 38.03205 157.729066 38.192015 158.115257 38.476716 158.399958 
C 38.761417 158.684658 39.147608 158.844624 39.550235 158.844624 
z
" clip-path="url(#pe83f367bc3)" style="stroke: #000000"/>
    <path d="M 34.61588 151.424662 
C 34.61588 151.424662 34.61588 151.424662 34.61588 151.424662 
C 34.61588 151.424662 34.61588 151.424662 34.61588 151.424662 
C 34.61588 151.424662 34.61588 151.424662 34.61588 151.424662 
C 34.61588 151.424662 34.61588 151.424662 34.61588 151.424662 
C 34.61588 151.424662 34.61588 151.424662 34.61588 151.424662 
C 34.61588 151.424662 34.61588 151.424662 34.61588 151.424662 
C 34.61588 151.424662 34.61588 151.424662 34.61588 151.424662 
C 34.61588 151.424662 34.61588 151.424662 34.61588 151.424662 
z
" clip-path="url(#pe83f367bc3)" style="stroke: #000000"/>
    <path d="M 31.253982 135.453333 
C 31.253982 135.453333 31.253982 135.453333 31.253982 135.453333 
C 31.253982 135.453333 31.253982 135.453333 31.253982 135.453333 
C 31.253982 135.453333 31.253982 135.453333 31.253982 135.453333 
C 31.253982 135.453333 31.253982 135.453333 31.253982 135.453333 
C 31.253982 135.453333 31.253982 135.453333 31.253982 135.453333 
C 31.253982 135.453333 31.253982 135.453333 31.253982 135.453333 
C 31.253982 135.453333 31.253982 135.453333 31.253982 135.453333 
C 31.253982 135.453333 31.253982 135.453333 31.253982 135.453333 
z
" clip-path="url(#pe83f367bc3)" style="stroke: #000000"/>
   </g>
   <g id="matplotlib.axis_1">
    <g id="xtick_1">
     <g id="line2d_1">
      <defs>
       <path id="m2828c34b3c" d="M 0 0 
L 0 3.5 
" style="stroke: #000000; stroke-width: 0.8"/>
      </defs>
      <g>
       <use xlink:href="#m2828c34b3c" x="18" y="189" style="stroke: #000000; stroke-width: 0.8"/>
      </g>
     </g>
     <g id="text_1">
      <!-- 10 -->
      <g transform="translate(7.447656 203.598437)scale(0.1 -0.1)">
       <defs>
        <path id="DejaVuSans-2212" d="M 678 2272 
L 4684 2272 
L 4684 1741 
L 678 1741 
L 678 2272 
z
" transform="scale(0.015625)"/>
        <path id="DejaVuSans-31" d="M 794 531 
L 1825 531 
L 1825 4091 
L 703 3866 
L 703 4441 
L 1819 4666 
L 2450 4666 
L 2450 531 
L 3481 531 
L 3481 0 
L 794 0 
L 794 531 
z
" transform="scale(0.015625)"/>
        <path id="DejaVuSans-30" d="M 2034 4250 
Q 1547 4250 1301 3770 
Q 1056 3291 1056 2328 
Q 1056 1369 1301 889 
Q 1547 409 2034 409 
Q 2525 409 2770 889 
Q 3016 1369 3016 2328 
Q 3016 3291 2770 3770 
Q 2525 4250 2034 4250 
z
M 2034 4750 
Q 2819 4750 3233 4129 
Q 3647 3509 3647 2328 
Q 3647 1150 3233 529 
Q 2819 -91 2034 -91 
Q 1250 -91 836 529 
Q 422 1150 422 2328 
Q 422 3509 836 4129 
Q 1250 4750 2034 4750 
z
" transform="scale(0.015625)"/>
       </defs>
       <use xlink:href="#DejaVuSans-2212"/>
       <use xlink:href="#DejaVuSans-31" x="83.789062"/>
       <use xlink:href="#DejaVuSans-30" x="147.412109"/>
      </g>
     </g>
    </g>
    <g id="xtick_2">
     <g id="line2d_2">
      <g>
       <use xlink:href="#m2828c34b3c" x="73.8" y="189" style="stroke: #000000; stroke-width: 0.8"/>
      </g>
     </g>
     <g id="text_2">
      <!-- 0 -->
      <g transform="translate(70.61875 203.598437)scale(0.1 -0.1)">
       <use xlink:href="#DejaVuSans-30"/>
      </g>
     </g>
    </g>
    <g id="xtick_3">
     <g id="line2d_3">
      <g>
       <use xlink:href="#m2828c34b3c" x="129.6" y="189" style="stroke: #000000; stroke-width: 0.8"/>
      </g>
     </g>
     <g id="text_3">
      <!-- 10 -->
      <g transform="translate(123.2375 203.598437)scale(0.1 -0.1)">
       <use xlink:href="#DejaVuSans-31"/>
       <use xlink:href="#DejaVuSans-30" x="63.623047"/>
      </g>
     </g>
    </g>
   </g>
   <g id="matplotlib.axis_2">
    <g id="ytick_1">
     <g id="line2d_4">
      <defs>
       <path id="m5ae09fd025" d="M 0 0 
L -3.5 0 
" style="stroke: #000000; stroke-width: 0.8"/>
      </defs>
      <g>
       <use xlink:href="#m5ae09fd025" x="18" y="189" style="stroke: #000000; stroke-width: 0.8"/>
      </g>
     </g>
     <g id="text_4">
      <!-- 15 -->
      <g transform="translate(-10.104688 192.799219)scale(0.1 -0.1)">
       <defs>
        <path id="DejaVuSans-35" d="M 691 4666 
L 3169 4666 
L 3169 4134 
L 1269 4134 
L 1269 2991 
Q 1406 3038 1543 3061 
Q 1681 3084 1819 3084 
Q 2600 3084 3056 2656 
Q 3513 2228 3513 1497 
Q 3513 744 3044 326 
Q 2575 -91 1722 -91 
Q 1428 -91 1123 -41 
Q 819 9 494 109 
L 494 744 
Q 775 591 1075 516 
Q 1375 441 1709 441 
Q 2250 441 2565 725 
Q 2881 1009 2881 1497 
Q 2881 1984 2565 2268 
Q 2250 2553 1709 2553 
Q 1456 2553 1204 2497 
Q 953 2441 691 2322 
L 691 4666 
z
" transform="scale(0.015625)"/>
       </defs>
       <use xlink:href="#DejaVuSans-2212"/>
       <use xlink:href="#DejaVuSans-31" x="83.789062"/>
       <use xlink:href="#DejaVuSans-35" x="147.412109"/>
      </g>
     </g>
    </g>
    <g id="ytick_2">
     <g id="line2d_5">
      <g>
       <use xlink:href="#m5ae09fd025" x="18" y="161.82" style="stroke: #000000; stroke-width: 0.8"/>
      </g>
     </g>
     <g id="text_5">
      <!-- 10 -->
      <g transform="translate(-10.104688 165.619219)scale(0.1 -0.1)">
       <use xlink:href="#DejaVuSans-2212"/>
       <use xlink:href="#DejaVuSans-31" x="83.789062"/>
       <use xlink:href="#DejaVuSans-30" x="147.412109"/>
      </g>
     </g>
    </g>
    <g id="ytick_3">
     <g id="line2d_6">
      <g>
       <use xlink:href="#m5ae09fd025" x="18" y="134.64" style="stroke: #000000; stroke-width: 0.8"/>
      </g>
     </g>
     <g id="text_6">
      <!-- 5 -->
      <g transform="translate(-3.742188 138.439219)scale(0.1 -0.1)">
       <use xlink:href="#DejaVuSans-2212"/>
       <use xlink:href="#DejaVuSans-35" x="83.789062"/>
      </g>
     </g>
    </g>
    <g id="ytick_4">
     <g id="line2d_7">
      <g>
       <use xlink:href="#m5ae09fd025" x="18" y="107.46" style="stroke: #000000; stroke-width: 0.8"/>
      </g>
     </g>
     <g id="text_7">
      <!-- 0 -->
      <g transform="translate(4.6375 111.259219)scale(0.1 -0.1)">
       <use xlink:href="#DejaVuSans-30"/>
      </g>
     </g>
    </g>
    <g id="ytick_5">
     <g id="line2d_8">
      <g>
       <use xlink:href="#m5ae09fd025" x="18" y="80.28" style="stroke: #000000; stroke-width: 0.8"/>
      </g>
     </g>
     <g id="text_8">
      <!-- 5 -->
      <g transform="translate(4.6375 84.079219)scale(0.1 -0.1)">
       <use xlink:href="#DejaVuSans-35"/>
      </g>
     </g>
    </g>
    <g id="ytick_6">
     <g id="line2d_9">
      <g>
       <use xlink:href="#m5ae09fd025" x="18" y="53.1" style="stroke: #000000; stroke-width: 0.8"/>
      </g>
     </g>
     <g id="text_9">
      <!-- 10 -->
      <g transform="translate(-1.725 56.899219)scale(0.1 -0.1)">
       <use xlink:href="#DejaVuSans-31"/>
       <use xlink:href="#DejaVuSans-30" x="63.623047"/>
      </g>
     </g>
    </g>
    <g id="ytick_7">
     <g id="line2d_10">
      <g>
       <use xlink:href="#m5ae09fd025" x="18" y="25.92" style="stroke: #000000; stroke-width: 0.8"/>
      </g>
     </g>
     <g id="text_10">
      <!-- 15 -->
      <g transform="translate(-1.725 29.719219)scale(0.1 -0.1)">
       <use xlink:href="#DejaVuSans-31"/>
       <use xlink:href="#DejaVuSans-35" x="63.623047"/>
      </g>
     </g>
    </g>
   </g>
   <g id="patch_3">
    <path d="M 18 189 
L 18 25.92 
" style="fill: none; stroke: #000000; stroke-width: 0.8; stroke-linejoin: miter; stroke-linecap: square"/>
   </g>
   <g id="patch_4">
    <path d="M 129.6 189 
L 129.6 25.92 
" style="fill: none; stroke: #000000; stroke-width: 0.8; stroke-linejoin: miter; stroke-linecap: square"/>
   </g>
   <g id="patch_5">
    <path d="M 18 189 
L 129.6 189 
" style="fill: none; stroke: #000000; stroke-width: 0.8; stroke-linejoin: miter; stroke-linecap: square"/>
   </g>
   <g id="patch_6">
    <path d="M 18 25.92 
L 129.6 25.92 
" style="fill: none; stroke: #000000; stroke-width: 0.8; stroke-linejoin: miter; stroke-linecap: square"/>
   </g>
  </g>
 </g>
 <defs>
  <clipPath id="pe83f367bc3">
   <rect x="18" y="25.92" width="111.6" height="163.08"/>
  </clipPath>
 </defs>
</svg>
