<?xml version="1.0" encoding="utf-8" standalone="no"?>
<!DOCTYPE svg PUBLIC "-//W3C//DTD SVG 1.1//EN"
  "http://www.w3.org/Graphics/SVG/1.1/DTD/svg11.dtd">
<svg xmlns:xlink="http://www.w3.org/1999/xlink" width="144pt" height="216pt" viewBox="0 0 144 216" xmlns="http://www.w3.org/2000/svg" version="1.1">
 <metadata>
  <rdf:RDF xmlns:dc="http://purl.org/dc/elements/1.1/" xmlns:cc="http://creativecommons.org/ns#" xmlns:rdf="http://www.w3.org/1999/02/22-rdf-syntax-ns#">
   <cc:Work>
    <dc:type rdf:resource="http://purl.org/dc/dcmitype/StillImage"/>
    <dc:date>2022-06-23T14:48:57.640415</dc:date>
    <dc:format>image/svg+xml</dc:format>
    <dc:creator>
     <cc:Agent>
      <dc:title>Matplotlib v3.5.1, https://matplotlib.org/</dc:title>
     </cc:Agent>
    </dc:creator>
   </cc:Work>
  </rdf:RDF>
 </metadata>
 <defs>
  <style type="text/css">*{stroke-linejoin: round; stroke-linecap: butt}</style>
 </defs>
 <g id="figure_1">
  <g id="patch_1">
   <path d="M 0 216 
L 144 216 
L 144 0 
L 0 0 
L 0 216 
z
" style="fill: none"/>
  </g>
  <g id="axes_1">
   <g id="patch_2">
    <path d="M 18 189 
L 129.6 189 
L 129.6 25.92 
L 18 25.92 
z
" style="fill: #ffffff"/>
   </g>
   <g id="PathCollection_1">
    <defs>
     <path id="m9bdc9e9a67" d="M 0 2.738613 
C 0.726289 2.738613 1.422928 2.450055 1.936492 1.936492 
C 2.450055 1.422928 2.738613 0.726289 2.738613 0 
C 2.738613 -0.726289 2.450055 -1.422928 1.936492 -1.936492 
C 1.422928 -2.450055 0.726289 -2.738613 0 -2.738613 
C -0.726289 -2.738613 -1.422928 -2.450055 -1.936492 -1.936492 
C -2.450055 -1.422928 -2.738613 -0.726289 -2.738613 0 
C -2.738613 0.726289 -2.450055 1.422928 -1.936492 1.936492 
C -1.422928 2.450055 -0.726289 2.738613 0 2.738613 
z
" style="stroke: #ff0000; stroke-width: 1.75"/>
    </defs>
    <g clip-path="url(#p4ddedfa397)">
     <use xlink:href="#m9bdc9e9a67" x="80.775" y="107.46" style="fill: #ff0000; stroke: #ff0000; stroke-width: 1.75"/>
     <use xlink:href="#m9bdc9e9a67" x="94.725" y="107.46" style="fill: #ff0000; stroke: #ff0000; stroke-width: 1.75"/>
     <use xlink:href="#m9bdc9e9a67" x="59.85" y="119.229285" style="fill: #ff0000; stroke: #ff0000; stroke-width: 1.75"/>
     <use xlink:href="#m9bdc9e9a67" x="73.8" y="119.229285" style="fill: #ff0000; stroke: #ff0000; stroke-width: 1.75"/>
     <use xlink:href="#m9bdc9e9a67" x="87.75" y="119.229285" style="fill: #ff0000; stroke: #ff0000; stroke-width: 1.75"/>
     <use xlink:href="#m9bdc9e9a67" x="66.825" y="130.99857" style="fill: #ff0000; stroke: #ff0000; stroke-width: 1.75"/>
     <use xlink:href="#m9bdc9e9a67" x="80.775" y="130.99857" style="fill: #ff0000; stroke: #ff0000; stroke-width: 1.75"/>
    </g>
   </g>
   <g id="PathCollection_2">
    <defs>
     <path id="C0_0_7c6b90a1ee" d="M 0 2.738613 
C 0.726289 2.738613 1.422928 2.450055 1.936492 1.936492 
C 2.450055 1.422928 2.738613 0.726289 2.738613 -0 
C 2.738613 -0.726289 2.450055 -1.422928 1.936492 -1.936492 
C 1.422928 -2.450055 0.726289 -2.738613 0 -2.738613 
C -0.726289 -2.738613 -1.422928 -2.450055 -1.936492 -1.936492 
C -2.450055 -1.422928 -2.738613 -0.726289 -2.738613 0 
C -2.738613 0.726289 -2.450055 1.422928 -1.936492 1.936492 
C -1.422928 2.450055 -0.726289 2.738613 0 2.738613 
z
"/>
    </defs>
    <g clip-path="url(#p4ddedfa397)">
     <use xlink:href="#C0_0_7c6b90a1ee" x="66.825" y="83.92143" style="fill: none; stroke: #ff0000; stroke-width: 1.75"/>
    </g>
    <g clip-path="url(#p4ddedfa397)">
     <use xlink:href="#C0_0_7c6b90a1ee" x="80.775" y="83.92143" style="fill: none; stroke: #ff0000; stroke-width: 1.75"/>
    </g>
    <g clip-path="url(#p4ddedfa397)">
     <use xlink:href="#C0_0_7c6b90a1ee" x="59.85" y="95.690715" style="fill: none; stroke: #ff0000; stroke-width: 1.75"/>
    </g>
    <g clip-path="url(#p4ddedfa397)">
     <use xlink:href="#C0_0_7c6b90a1ee" x="73.8" y="95.690715" style="fill: none; stroke: #ff0000; stroke-width: 1.75"/>
    </g>
    <g clip-path="url(#p4ddedfa397)">
     <use xlink:href="#C0_0_7c6b90a1ee" x="87.75" y="95.690715" style="fill: none; stroke: #ff0000; stroke-width: 1.75"/>
    </g>
    <g clip-path="url(#p4ddedfa397)">
     <use xlink:href="#C0_0_7c6b90a1ee" x="52.875" y="107.46" style="fill: none; stroke: #ff0000; stroke-width: 1.75"/>
    </g>
    <g clip-path="url(#p4ddedfa397)">
     <use xlink:href="#C0_0_7c6b90a1ee" x="66.825" y="107.46" style="fill: none; stroke: #ff0000; stroke-width: 1.75"/>
    </g>
   </g>
   <g id="PathCollection_3">
    <path d="M 111.372259 112.022088 
C 111.836316 112.022088 112.281429 111.837717 112.609567 111.509579 
C 112.937705 111.181441 113.122077 110.736328 113.122077 110.272271 
C 113.122077 109.808214 112.937705 109.363101 112.609567 109.034963 
C 112.281429 108.706825 111.836316 108.522453 111.372259 108.522453 
C 110.908202 108.522453 110.463089 108.706825 110.134951 109.034963 
C 109.806813 109.363101 109.622441 109.808214 109.622441 110.272271 
C 109.622441 110.736328 109.806813 111.181441 110.134951 111.509579 
C 110.463089 111.837717 110.908202 112.022088 111.372259 112.022088 
z
" clip-path="url(#p4ddedfa397)" style="stroke: #000000"/>
    <path d="M 109.145047 99.830104 
C 109.495877 99.830104 109.832386 99.690717 110.080461 99.442643 
C 110.328536 99.194568 110.467922 98.858059 110.467922 98.507228 
C 110.467922 98.156398 110.328536 97.819889 110.080461 97.571814 
C 109.832386 97.323739 109.495877 97.184353 109.145047 97.184353 
C 108.794216 97.184353 108.457707 97.323739 108.209632 97.571814 
C 107.961558 97.819889 107.822171 98.156398 107.822171 98.507228 
C 107.822171 98.858059 107.961558 99.194568 108.209632 99.442643 
C 108.457707 99.690717 108.794216 99.830104 109.145047 99.830104 
z
" clip-path="url(#p4ddedfa397)" style="stroke: #000000"/>
    <path d="M 109.286626 90.506795 
C 109.880008 90.506795 110.449167 90.271041 110.868752 89.851457 
C 111.288337 89.431872 111.52409 88.862713 111.52409 88.269331 
C 111.52409 87.675948 111.288337 87.106789 110.868752 86.687204 
C 110.449167 86.26762 109.880008 86.031866 109.286626 86.031866 
C 108.693244 86.031866 108.124085 86.26762 107.7045 86.687204 
C 107.284915 87.106789 107.049162 87.675948 107.049162 88.269331 
C 107.049162 88.862713 107.284915 89.431872 107.7045 89.851457 
C 108.124085 90.271041 108.693244 90.506795 109.286626 90.506795 
z
" clip-path="url(#p4ddedfa397)" style="stroke: #000000"/>
    <path d="M 103.200178 84.242155 
C 103.793561 84.242155 104.36272 84.006402 104.782304 83.586817 
C 105.201889 83.167232 105.437643 82.598073 105.437643 82.004691 
C 105.437643 81.411309 105.201889 80.84215 104.782304 80.422565 
C 104.36272 80.00298 103.793561 79.767227 103.200178 79.767227 
C 102.606796 79.767227 102.037637 80.00298 101.618052 80.422565 
C 101.198468 80.84215 100.962714 81.411309 100.962714 82.004691 
C 100.962714 82.598073 101.198468 83.167232 101.618052 83.586817 
C 102.037637 84.006402 102.606796 84.242155 103.200178 84.242155 
z
" clip-path="url(#p4ddedfa397)" style="stroke: #000000"/>
    <path d="M 101.770475 70.90699 
C 102.363487 70.90699 102.932291 70.671383 103.351614 70.252061 
C 103.770937 69.832738 104.006543 69.263934 104.006543 68.670922 
C 104.006543 68.07791 103.770937 67.509106 103.351614 67.089783 
C 102.932291 66.67046 102.363487 66.434854 101.770475 66.434854 
C 101.177463 66.434854 100.608659 66.67046 100.189336 67.089783 
C 99.770013 67.509106 99.534407 68.07791 99.534407 68.670922 
C 99.534407 69.263934 99.770013 69.832738 100.189336 70.252061 
C 100.608659 70.671383 101.177463 70.90699 101.770475 70.90699 
z
" clip-path="url(#p4ddedfa397)" style="stroke: #000000"/>
    <path d="M 99.655898 59.168333 
C 100.211401 59.168333 100.744227 58.947629 101.137027 58.554829 
C 101.529826 58.16203 101.75053 57.629204 101.75053 57.073701 
C 101.75053 56.518198 101.529826 55.985373 101.137027 55.592573 
C 100.744227 55.199773 100.211401 54.979069 99.655898 54.979069 
C 99.100395 54.979069 98.56757 55.199773 98.17477 55.592573 
C 97.78197 55.985373 97.561266 56.518198 97.561266 57.073701 
C 97.561266 57.629204 97.78197 58.16203 98.17477 58.554829 
C 98.56757 58.947629 99.100395 59.168333 99.655898 59.168333 
z
" clip-path="url(#p4ddedfa397)" style="stroke: #000000"/>
    <path d="M 120.867269 155.354869 
C 121.460651 155.354869 122.02981 155.119116 122.449395 154.699531 
C 122.86898 154.279946 123.104733 153.710787 123.104733 153.117405 
C 123.104733 152.524023 122.86898 151.954864 122.449395 151.535279 
C 122.02981 151.115694 121.460651 150.879941 120.867269 150.879941 
C 120.273886 150.879941 119.704728 151.115694 119.285143 151.535279 
C 118.865558 151.954864 118.629805 152.524023 118.629805 153.117405 
C 118.629805 153.710787 118.865558 154.279946 119.285143 154.699531 
C 119.704728 155.119116 120.273886 155.354869 120.867269 155.354869 
z
" clip-path="url(#p4ddedfa397)" style="stroke: #000000"/>
    <path d="M 109.541955 132.73295 
C 110.247389 132.73295 110.924026 132.452678 111.422843 131.953861 
C 111.921661 131.455043 112.201933 130.778406 112.201933 130.072972 
C 112.201933 129.367537 111.921661 128.6909 111.422843 128.192083 
C 110.924026 127.693265 110.247389 127.412993 109.541955 127.412993 
C 108.83652 127.412993 108.159883 127.693265 107.661066 128.192083 
C 107.162248 128.6909 106.881976 129.367537 106.881976 130.072972 
C 106.881976 130.778406 107.162248 131.455043 107.661066 131.953861 
C 108.159883 132.452678 108.83652 132.73295 109.541955 132.73295 
z
" clip-path="url(#p4ddedfa397)" style="stroke: #000000"/>
    <path d="M 107.628325 122.137419 
C 108.159764 122.137419 108.669508 121.926276 109.045293 121.550492 
C 109.421077 121.174707 109.63222 120.664963 109.63222 120.133524 
C 109.63222 119.602085 109.421077 119.092341 109.045293 118.716556 
C 108.669508 118.340772 108.159764 118.129629 107.628325 118.129629 
C 107.096886 118.129629 106.587142 118.340772 106.211357 118.716556 
C 105.835573 119.092341 105.62443 119.602085 105.62443 120.133524 
C 105.62443 120.664963 105.835573 121.174707 106.211357 121.550492 
C 106.587142 121.926276 107.096886 122.137419 107.628325 122.137419 
z
" clip-path="url(#p4ddedfa397)" style="stroke: #000000"/>
    <path d="M 104.962524 111.550183 
C 105.520712 111.550183 106.056114 111.328412 106.450813 110.933713 
C 106.845512 110.539014 107.067283 110.003612 107.067283 109.445423 
C 107.067283 108.887235 106.845512 108.351833 106.450813 107.957134 
C 106.056114 107.562435 105.520712 107.340664 104.962524 107.340664 
C 104.404335 107.340664 103.868933 107.562435 103.474234 107.957134 
C 103.079535 108.351833 102.857765 108.887235 102.857765 109.445423 
C 102.857765 110.003612 103.079535 110.539014 103.474234 110.933713 
C 103.868933 111.328412 104.404335 111.550183 104.962524 111.550183 
z
" clip-path="url(#p4ddedfa397)" style="stroke: #000000"/>
    <path d="M 100.059073 102.595577 
C 100.764507 102.595577 101.441144 102.315305 101.939962 101.816487 
C 102.438779 101.31767 102.719051 100.641033 102.719051 99.935598 
C 102.719051 99.230164 102.438779 98.553527 101.939962 98.054709 
C 101.441144 97.555892 100.764507 97.27562 100.059073 97.27562 
C 99.353638 97.27562 98.677001 97.555892 98.178184 98.054709 
C 97.679366 98.553527 97.399094 99.230164 97.399094 99.935598 
C 97.399094 100.641033 97.679366 101.31767 98.178184 101.816487 
C 98.677001 102.315305 99.353638 102.595577 100.059073 102.595577 
z
" clip-path="url(#p4ddedfa397)" style="stroke: #000000"/>
    <path d="M 95.010949 95.788243 
C 95.715942 95.788243 96.392156 95.508146 96.890662 95.00964 
C 97.389168 94.511135 97.669265 93.834921 97.669265 93.129927 
C 97.669265 92.424933 97.389168 91.748719 96.890662 91.250213 
C 96.392156 90.751707 95.715942 90.47161 95.010949 90.47161 
C 94.305955 90.47161 93.629741 90.751707 93.131235 91.250213 
C 92.632729 91.748719 92.352632 92.424933 92.352632 93.129927 
C 92.352632 93.834921 92.632729 94.511135 93.131235 95.00964 
C 93.629741 95.508146 94.305955 95.788243 95.010949 95.788243 
z
" clip-path="url(#p4ddedfa397)" style="stroke: #000000"/>
    <path d="M 93.267149 83.859691 
C 93.741675 83.859691 94.196829 83.67116 94.532369 83.335619 
C 94.867909 83.000079 95.05644 82.544925 95.05644 82.0704 
C 95.05644 81.595874 94.867909 81.14072 94.532369 80.80518 
C 94.196829 80.46964 93.741675 80.281109 93.267149 80.281109 
C 92.792624 80.281109 92.33747 80.46964 92.00193 80.80518 
C 91.666389 81.14072 91.477858 81.595874 91.477858 82.0704 
C 91.477858 82.544925 91.666389 83.000079 92.00193 83.335619 
C 92.33747 83.67116 92.792624 83.859691 93.267149 83.859691 
z
" clip-path="url(#p4ddedfa397)" style="stroke: #000000"/>
    <path d="M 88.960781 75.042406 
C 89.257287 75.042406 89.541689 74.924603 89.751351 74.714942 
C 89.961012 74.50528 90.078815 74.220878 90.078815 73.924372 
C 90.078815 73.627866 89.961012 73.343464 89.751351 73.133803 
C 89.541689 72.924141 89.257287 72.806338 88.960781 72.806338 
C 88.664275 72.806338 88.379873 72.924141 88.170212 73.133803 
C 87.96055 73.343464 87.842747 73.627866 87.842747 73.924372 
C 87.842747 74.220878 87.96055 74.50528 88.170212 74.714942 
C 88.379873 74.924603 88.664275 75.042406 88.960781 75.042406 
z
" clip-path="url(#p4ddedfa397)" style="stroke: #000000"/>
    <path d="M 78.647527 52.543726 
C 79.240539 52.543726 79.809342 52.30812 80.228665 51.888797 
C 80.647988 51.469474 80.883595 50.90067 80.883595 50.307658 
C 80.883595 49.714646 80.647988 49.145842 80.228665 48.726519 
C 79.809342 48.307197 79.240539 48.07159 78.647527 48.07159 
C 78.054514 48.07159 77.485711 48.307197 77.066388 48.726519 
C 76.647065 49.145842 76.411459 49.714646 76.411459 50.307658 
C 76.411459 50.90067 76.647065 51.469474 77.066388 51.888797 
C 77.485711 52.30812 78.054514 52.543726 78.647527 52.543726 
z
" clip-path="url(#p4ddedfa397)" style="stroke: #000000"/>
    <path d="M 76.978059 39.567056 
C 77.13575 39.567056 77.287003 39.504404 77.398507 39.3929 
C 77.510011 39.281396 77.572663 39.130143 77.572663 38.972452 
C 77.572663 38.814761 77.510011 38.663508 77.398507 38.552004 
C 77.287003 38.4405 77.13575 38.377848 76.978059 38.377848 
C 76.820368 38.377848 76.669115 38.4405 76.557611 38.552004 
C 76.446107 38.663508 76.383455 38.814761 76.383455 38.972452 
C 76.383455 39.130143 76.446107 39.281396 76.557611 39.3929 
C 76.669115 39.504404 76.820368 39.567056 76.978059 39.567056 
z
" clip-path="url(#p4ddedfa397)" style="stroke: #000000"/>
    <path d="M 73.207817 31.733885 
C 73.800829 31.733885 74.369633 31.498279 74.788956 31.078956 
C 75.208279 30.659633 75.443885 30.090829 75.443885 29.497817 
C 75.443885 28.904805 75.208279 28.336001 74.788956 27.916678 
C 74.369633 27.497355 73.800829 27.261749 73.207817 27.261749 
C 72.614805 27.261749 72.046001 27.497355 71.626678 27.916678 
C 71.207355 28.336001 70.971749 28.904805 70.971749 29.497817 
C 70.971749 30.090829 71.207355 30.659633 71.626678 31.078956 
C 72.046001 31.498279 72.614805 31.733885 73.207817 31.733885 
z
" clip-path="url(#p4ddedfa397)" style="stroke: #000000"/>
    <path d="M 113.24 177.24601 
C 113.773487 177.24601 114.285196 177.034053 114.662428 176.656821 
C 115.03966 176.279588 115.251617 175.76788 115.251617 175.234393 
C 115.251617 174.700905 115.03966 174.189197 114.662428 173.811964 
C 114.285196 173.434732 113.773487 173.222775 113.24 173.222775 
C 112.706513 173.222775 112.194804 173.434732 111.817572 173.811964 
C 111.440339 174.189197 111.228383 174.700905 111.228383 175.234393 
C 111.228383 175.76788 111.440339 176.279588 111.817572 176.656821 
C 112.194804 177.034053 112.706513 177.24601 113.24 177.24601 
z
" clip-path="url(#p4ddedfa397)" style="stroke: #000000"/>
    <path d="M 107.945253 157.030669 
C 108.538635 157.030669 109.107794 156.794915 109.527379 156.37533 
C 109.946964 155.955746 110.182717 155.386587 110.182717 154.793204 
C 110.182717 154.199822 109.946964 153.630663 109.527379 153.211078 
C 109.107794 152.791493 108.538635 152.55574 107.945253 152.55574 
C 107.35187 152.55574 106.782711 152.791493 106.363127 153.211078 
C 105.943542 153.630663 105.707789 154.199822 105.707789 154.793204 
C 105.707789 155.386587 105.943542 155.955746 106.363127 156.37533 
C 106.782711 156.794915 107.35187 157.030669 107.945253 157.030669 
z
" clip-path="url(#p4ddedfa397)" style="stroke: #000000"/>
    <path d="M 99.268017 149.321003 
C 99.491025 149.321003 99.70493 149.232401 99.86262 149.07471 
C 100.020311 148.917019 100.108913 148.703115 100.108913 148.480107 
C 100.108913 148.257098 100.020311 148.043194 99.86262 147.885503 
C 99.70493 147.727812 99.491025 147.63921 99.268017 147.63921 
C 99.045008 147.63921 98.831104 147.727812 98.673413 147.885503 
C 98.515723 148.043194 98.42712 148.257098 98.42712 148.480107 
C 98.42712 148.703115 98.515723 148.917019 98.673413 149.07471 
C 98.831104 149.232401 99.045008 149.321003 99.268017 149.321003 
z
" clip-path="url(#p4ddedfa397)" style="stroke: #000000"/>
    <path d="M 99.61033 140.225915 
C 100.072832 140.225915 100.516454 140.042161 100.843493 139.715122 
C 101.170531 139.388083 101.354285 138.944462 101.354285 138.481959 
C 101.354285 138.019457 101.170531 137.575835 100.843493 137.248796 
C 100.516454 136.921758 100.072832 136.738003 99.61033 136.738003 
C 99.147827 136.738003 98.704205 136.921758 98.377167 137.248796 
C 98.050128 137.575835 97.866374 138.019457 97.866374 138.481959 
C 97.866374 138.944462 98.050128 139.388083 98.377167 139.715122 
C 98.704205 140.042161 99.147827 140.225915 99.61033 140.225915 
z
" clip-path="url(#p4ddedfa397)" style="stroke: #000000"/>
    <path d="M 93.808342 129.089191 
C 94.513557 129.089191 95.189982 128.809007 95.688644 128.310345 
C 96.187306 127.811683 96.46749 127.135257 96.46749 126.430043 
C 96.46749 125.724829 96.187306 125.048403 95.688644 124.549742 
C 95.189982 124.05108 94.513557 123.770895 93.808342 123.770895 
C 93.103128 123.770895 92.426703 124.05108 91.928041 124.549742 
C 91.429379 125.048403 91.149194 125.724829 91.149194 126.430043 
C 91.149194 127.135257 91.429379 127.811683 91.928041 128.310345 
C 92.426703 128.809007 93.103128 129.089191 93.808342 129.089191 
z
" clip-path="url(#p4ddedfa397)" style="stroke: #000000"/>
    <path d="M 89.325892 120.400344 
C 89.963324 120.400344 90.574734 120.147089 91.025467 119.696357 
C 91.476199 119.245624 91.729454 118.634214 91.729454 117.996782 
C 91.729454 117.35935 91.476199 116.747939 91.025467 116.297207 
C 90.574734 115.846474 89.963324 115.59322 89.325892 115.59322 
C 88.68846 115.59322 88.077049 115.846474 87.626317 116.297207 
C 87.175584 116.747939 86.92233 117.35935 86.92233 117.996782 
C 86.92233 118.634214 87.175584 119.245624 87.626317 119.696357 
C 88.077049 120.147089 88.68846 120.400344 89.325892 120.400344 
z
" clip-path="url(#p4ddedfa397)" style="stroke: #000000"/>
    <path d="M 87.849475 110.338519 
C 88.442487 110.338519 89.011291 110.102913 89.430614 109.68359 
C 89.849937 109.264267 90.085543 108.695463 90.085543 108.102451 
C 90.085543 107.509439 89.849937 106.940635 89.430614 106.521312 
C 89.011291 106.101989 88.442487 105.866383 87.849475 105.866383 
C 87.256463 105.866383 86.687659 106.101989 86.268336 106.521312 
C 85.849013 106.940635 85.613407 107.509439 85.613407 108.102451 
C 85.613407 108.695463 85.849013 109.264267 86.268336 109.68359 
C 86.687659 110.102913 87.256463 110.338519 87.849475 110.338519 
z
" clip-path="url(#p4ddedfa397)" style="stroke: #000000"/>
    <path d="M 88.687915 97.827048 
C 89.393349 97.827048 90.069986 97.546776 90.568803 97.047958 
C 91.067621 96.54914 91.347893 95.872504 91.347893 95.167069 
C 91.347893 94.461635 91.067621 93.784998 90.568803 93.28618 
C 90.069986 92.787363 89.393349 92.507091 88.687915 92.507091 
C 87.98248 92.507091 87.305843 92.787363 86.807026 93.28618 
C 86.308208 93.784998 86.027936 94.461635 86.027936 95.167069 
C 86.027936 95.872504 86.308208 96.54914 86.807026 97.047958 
C 87.305843 97.546776 87.98248 97.827048 88.687915 97.827048 
z
" clip-path="url(#p4ddedfa397)" style="stroke: #000000"/>
    <path d="M 68.777351 48.256948 
C 69.370363 48.256948 69.939166 48.021342 70.358489 47.602019 
C 70.777812 47.182696 71.013419 46.613892 71.013419 46.02088 
C 71.013419 45.427868 70.777812 44.859064 70.358489 44.439741 
C 69.939166 44.020418 69.370363 43.784812 68.777351 43.784812 
C 68.184338 43.784812 67.615535 44.020418 67.196212 44.439741 
C 66.776889 44.859064 66.541283 45.427868 66.541283 46.02088 
C 66.541283 46.613892 66.776889 47.182696 67.196212 47.602019 
C 67.615535 48.021342 68.184338 48.256948 68.777351 48.256948 
z
" clip-path="url(#p4ddedfa397)" style="stroke: #000000"/>
    <path d="M 89.382831 155.962246 
C 90.088045 155.962246 90.764471 155.682062 91.263133 155.1834 
C 91.761794 154.684738 92.041979 154.008313 92.041979 153.303098 
C 92.041979 152.597884 91.761794 151.921459 91.263133 151.422797 
C 90.764471 150.924135 90.088045 150.64395 89.382831 150.64395 
C 88.677617 150.64395 88.001191 150.924135 87.502529 151.422797 
C 87.003868 151.921459 86.723683 152.597884 86.723683 153.303098 
C 86.723683 154.008313 87.003868 154.684738 87.502529 155.1834 
C 88.001191 155.682062 88.677617 155.962246 89.382831 155.962246 
z
" clip-path="url(#p4ddedfa397)" style="stroke: #000000"/>
    <path d="M 87.937242 133.340688 
C 88.506224 133.340688 89.051979 133.114629 89.45431 132.712298 
C 89.856641 132.309967 90.0827 131.764213 90.0827 131.195231 
C 90.0827 130.626249 89.856641 130.080494 89.45431 129.678163 
C 89.051979 129.275832 88.506224 129.049773 87.937242 129.049773 
C 87.36826 129.049773 86.822505 129.275832 86.420174 129.678163 
C 86.017843 130.080494 85.791784 130.626249 85.791784 131.195231 
C 85.791784 131.764213 86.017843 132.309967 86.420174 132.712298 
C 86.822505 133.114629 87.36826 133.340688 87.937242 133.340688 
z
" clip-path="url(#p4ddedfa397)" style="stroke: #000000"/>
    <path d="M 78.618985 122.928448 
C 79.212368 122.928448 79.781527 122.692695 80.201111 122.27311 
C 80.620696 121.853525 80.85645 121.284367 80.85645 120.690984 
C 80.85645 120.097602 80.620696 119.528443 80.201111 119.108858 
C 79.781527 118.689273 79.212368 118.45352 78.618985 118.45352 
C 78.025603 118.45352 77.456444 118.689273 77.036859 119.108858 
C 76.617275 119.528443 76.381521 120.097602 76.381521 120.690984 
C 76.381521 121.284367 76.617275 121.853525 77.036859 122.27311 
C 77.456444 122.692695 78.025603 122.928448 78.618985 122.928448 
z
" clip-path="url(#p4ddedfa397)" style="stroke: #000000"/>
    <path d="M 76.464276 111.178336 
C 77.057288 111.178336 77.626092 110.94273 78.045415 110.523407 
C 78.464738 110.104084 78.700344 109.53528 78.700344 108.942268 
C 78.700344 108.349256 78.464738 107.780452 78.045415 107.361129 
C 77.626092 106.941806 77.057288 106.7062 76.464276 106.7062 
C 75.871264 106.7062 75.30246 106.941806 74.883137 107.361129 
C 74.463814 107.780452 74.228208 108.349256 74.228208 108.942268 
C 74.228208 109.53528 74.463814 110.104084 74.883137 110.523407 
C 75.30246 110.94273 75.871264 111.178336 76.464276 111.178336 
z
" clip-path="url(#p4ddedfa397)" style="stroke: #000000"/>
    <path d="M 76.488574 104.875447 
C 77.049411 104.875447 77.587352 104.652625 77.983923 104.256053 
C 78.380494 103.859482 78.603317 103.321541 78.603317 102.760705 
C 78.603317 102.199868 78.380494 101.661927 77.983923 101.265356 
C 77.587352 100.868785 77.049411 100.645962 76.488574 100.645962 
C 75.927738 100.645962 75.389797 100.868785 74.993226 101.265356 
C 74.596654 101.661927 74.373832 102.199868 74.373832 102.760705 
C 74.373832 103.321541 74.596654 103.859482 74.993226 104.256053 
C 75.389797 104.652625 75.927738 104.875447 76.488574 104.875447 
z
" clip-path="url(#p4ddedfa397)" style="stroke: #000000"/>
    <path d="M 71.933478 90.030431 
C 72.638692 90.030431 73.315118 89.750246 73.813779 89.251584 
C 74.312441 88.752922 74.592626 88.076497 74.592626 87.371283 
C 74.592626 86.666068 74.312441 85.989643 73.813779 85.490981 
C 73.315118 84.992319 72.638692 84.712135 71.933478 84.712135 
C 71.228264 84.712135 70.551838 84.992319 70.053176 85.490981 
C 69.554514 85.989643 69.27433 86.666068 69.27433 87.371283 
C 69.27433 88.076497 69.554514 88.752922 70.053176 89.251584 
C 70.551838 89.750246 71.228264 90.030431 71.933478 90.030431 
z
" clip-path="url(#p4ddedfa397)" style="stroke: #000000"/>
    <path d="M 64.228764 81.638104 
C 64.7896 81.638104 65.327541 81.415282 65.724112 81.01871 
C 66.120684 80.622139 66.343506 80.084198 66.343506 79.523362 
C 66.343506 78.962525 66.120684 78.424584 65.724112 78.028013 
C 65.327541 77.631442 64.7896 77.408619 64.228764 77.408619 
C 63.667927 77.408619 63.129986 77.631442 62.733415 78.028013 
C 62.336844 78.424584 62.114021 78.962525 62.114021 79.523362 
C 62.114021 80.084198 62.336844 80.622139 62.733415 81.01871 
C 63.129986 81.415282 63.667927 81.638104 64.228764 81.638104 
z
" clip-path="url(#p4ddedfa397)" style="stroke: #000000"/>
    <path d="M 54.148526 38.133838 
C 54.384328 38.133838 54.610505 38.040153 54.777243 37.873415 
C 54.94398 37.706678 55.037666 37.480501 55.037666 37.244699 
C 55.037666 37.008896 54.94398 36.78272 54.777243 36.615982 
C 54.610505 36.449244 54.384328 36.355559 54.148526 36.355559 
C 53.912723 36.355559 53.686547 36.449244 53.519809 36.615982 
C 53.353071 36.78272 53.259386 37.008896 53.259386 37.244699 
C 53.259386 37.480501 53.353071 37.706678 53.519809 37.873415 
C 53.686547 38.040153 53.912723 38.133838 54.148526 38.133838 
z
" clip-path="url(#p4ddedfa397)" style="stroke: #000000"/>
    <path d="M 89.612146 177.479702 
C 90.205529 177.479702 90.774687 177.243948 91.194272 176.824364 
C 91.613857 176.404779 91.84961 175.83562 91.84961 175.242238 
C 91.84961 174.648855 91.613857 174.079696 91.194272 173.660111 
C 90.774687 173.240527 90.205529 173.004773 89.612146 173.004773 
C 89.018764 173.004773 88.449605 173.240527 88.03002 173.660111 
C 87.610435 174.079696 87.374682 174.648855 87.374682 175.242238 
C 87.374682 175.83562 87.610435 176.404779 88.03002 176.824364 
C 88.449605 177.243948 89.018764 177.479702 89.612146 177.479702 
z
" clip-path="url(#p4ddedfa397)" style="stroke: #000000"/>
    <path d="M 84.722553 166.50073 
C 85.327085 166.50073 85.906939 166.260547 86.334408 165.833078 
C 86.761877 165.405609 87.00206 164.825756 87.00206 164.221223 
C 87.00206 163.616691 86.761877 163.036837 86.334408 162.609368 
C 85.906939 162.181899 85.327085 161.941716 84.722553 161.941716 
C 84.118021 161.941716 83.538167 162.181899 83.110698 162.609368 
C 82.683229 163.036837 82.443046 163.616691 82.443046 164.221223 
C 82.443046 164.825756 82.683229 165.405609 83.110698 165.833078 
C 83.538167 166.260547 84.118021 166.50073 84.722553 166.50073 
z
" clip-path="url(#p4ddedfa397)" style="stroke: #000000"/>
    <path d="M 72.616074 135.846488 
C 73.205345 135.846488 73.77056 135.612368 74.187237 135.195691 
C 74.603914 134.779014 74.838034 134.213799 74.838034 133.624528 
C 74.838034 133.035258 74.603914 132.470043 74.187237 132.053366 
C 73.77056 131.636689 73.205345 131.402569 72.616074 131.402569 
C 72.026804 131.402569 71.461589 131.636689 71.044912 132.053366 
C 70.628235 132.470043 70.394115 133.035258 70.394115 133.624528 
C 70.394115 134.213799 70.628235 134.779014 71.044912 135.195691 
C 71.461589 135.612368 72.026804 135.846488 72.616074 135.846488 
z
" clip-path="url(#p4ddedfa397)" style="stroke: #000000"/>
    <path d="M 67.07251 105.851636 
C 67.665522 105.851636 68.234326 105.61603 68.653649 105.196707 
C 69.072971 104.777384 69.308578 104.20858 69.308578 103.615568 
C 69.308578 103.022556 69.072971 102.453752 68.653649 102.034429 
C 68.234326 101.615106 67.665522 101.3795 67.07251 101.3795 
C 66.479498 101.3795 65.910694 101.615106 65.491371 102.034429 
C 65.072048 102.453752 64.836442 103.022556 64.836442 103.615568 
C 64.836442 104.20858 65.072048 104.777384 65.491371 105.196707 
C 65.910694 105.61603 66.479498 105.851636 67.07251 105.851636 
z
" clip-path="url(#p4ddedfa397)" style="stroke: #000000"/>
    <path d="M 57.287197 88.48982 
C 57.992632 88.48982 58.669268 88.209548 59.168086 87.710731 
C 59.666903 87.211913 59.947176 86.535276 59.947176 85.829842 
C 59.947176 85.124407 59.666903 84.447771 59.168086 83.948953 
C 58.669268 83.450136 57.992632 83.169863 57.287197 83.169863 
C 56.581762 83.169863 55.905126 83.450136 55.406308 83.948953 
C 54.907491 84.447771 54.627218 85.124407 54.627218 85.829842 
C 54.627218 86.535276 54.907491 87.211913 55.406308 87.710731 
C 55.905126 88.209548 56.581762 88.48982 57.287197 88.48982 
z
" clip-path="url(#p4ddedfa397)" style="stroke: #000000"/>
    <path d="M 49.836179 56.483611 
C 50.429191 56.483611 50.997995 56.248004 51.417318 55.828681 
C 51.836641 55.409359 52.072247 54.840555 52.072247 54.247543 
C 52.072247 53.65453 51.836641 53.085727 51.417318 52.666404 
C 50.997995 52.247081 50.429191 52.011475 49.836179 52.011475 
C 49.243167 52.011475 48.674363 52.247081 48.25504 52.666404 
C 47.835717 53.085727 47.600111 53.65453 47.600111 54.247543 
C 47.600111 54.840555 47.835717 55.409359 48.25504 55.828681 
C 48.674363 56.248004 49.243167 56.483611 49.836179 56.483611 
z
" clip-path="url(#p4ddedfa397)" style="stroke: #000000"/>
    <path d="M 44.705631 40.762814 
C 44.95243 40.762814 45.189155 40.66476 45.363668 40.490246 
C 45.538182 40.315733 45.636236 40.079009 45.636236 39.832209 
C 45.636236 39.58541 45.538182 39.348686 45.363668 39.174172 
C 45.189155 38.999659 44.95243 38.901604 44.705631 38.901604 
C 44.458832 38.901604 44.222108 38.999659 44.047594 39.174172 
C 43.873081 39.348686 43.775026 39.58541 43.775026 39.832209 
C 43.775026 40.079009 43.873081 40.315733 44.047594 40.490246 
C 44.222108 40.66476 44.458832 40.762814 44.705631 40.762814 
z
" clip-path="url(#p4ddedfa397)" style="stroke: #000000"/>
    <path d="M 68.02785 163.121965 
C 68.674909 163.121965 69.295554 162.864886 69.753095 162.407345 
C 70.210635 161.949805 70.467714 161.32916 70.467714 160.6821 
C 70.467714 160.035041 70.210635 159.414396 69.753095 158.956855 
C 69.295554 158.499315 68.674909 158.242236 68.02785 158.242236 
C 67.38079 158.242236 66.760145 158.499315 66.302605 158.956855 
C 65.845064 159.414396 65.587985 160.035041 65.587985 160.6821 
C 65.587985 161.32916 65.845064 161.949805 66.302605 162.407345 
C 66.760145 162.864886 67.38079 163.121965 68.02785 163.121965 
z
" clip-path="url(#p4ddedfa397)" style="stroke: #000000"/>
    <path d="M 67.370581 152.446883 
C 68.075795 152.446883 68.752221 152.166698 69.250883 151.668036 
C 69.749545 151.169375 70.029729 150.492949 70.029729 149.787735 
C 70.029729 149.08252 69.749545 148.406095 69.250883 147.907433 
C 68.752221 147.408771 68.075795 147.128587 67.370581 147.128587 
C 66.665367 147.128587 65.988941 147.408771 65.49028 147.907433 
C 64.991618 148.406095 64.711433 149.08252 64.711433 149.787735 
C 64.711433 150.492949 64.991618 151.169375 65.49028 151.668036 
C 65.988941 152.166698 66.665367 152.446883 67.370581 152.446883 
z
" clip-path="url(#p4ddedfa397)" style="stroke: #000000"/>
    <path d="M 64.656978 137.771586 
C 65.22596 137.771586 65.771714 137.545527 66.174045 137.143196 
C 66.576376 136.740865 66.802435 136.195111 66.802435 135.626129 
C 66.802435 135.057147 66.576376 134.511392 66.174045 134.109061 
C 65.771714 133.70673 65.22596 133.480671 64.656978 133.480671 
C 64.087996 133.480671 63.542241 133.70673 63.13991 134.109061 
C 62.737579 134.511392 62.51152 135.057147 62.51152 135.626129 
C 62.51152 136.195111 62.737579 136.740865 63.13991 137.143196 
C 63.542241 137.545527 64.087996 137.771586 64.656978 137.771586 
z
" clip-path="url(#p4ddedfa397)" style="stroke: #000000"/>
    <path d="M 57.681088 132.928071 
C 58.386523 132.928071 59.06316 132.647799 59.561977 132.148981 
C 60.060795 131.650164 60.341067 130.973527 60.341067 130.268092 
C 60.341067 129.562658 60.060795 128.886021 59.561977 128.387203 
C 59.06316 127.888386 58.386523 127.608114 57.681088 127.608114 
C 56.975654 127.608114 56.299017 127.888386 55.800199 128.387203 
C 55.301382 128.886021 55.02111 129.562658 55.02111 130.268092 
C 55.02111 130.973527 55.301382 131.650164 55.800199 132.148981 
C 56.299017 132.647799 56.975654 132.928071 57.681088 132.928071 
z
" clip-path="url(#p4ddedfa397)" style="stroke: #000000"/>
    <path d="M 59.792903 121.833023 
C 60.498338 121.833023 61.174974 121.552751 61.673792 121.053933 
C 62.172609 120.555116 62.452882 119.878479 62.452882 119.173044 
C 62.452882 118.46761 62.172609 117.790973 61.673792 117.292156 
C 61.174974 116.793338 60.498338 116.513066 59.792903 116.513066 
C 59.087468 116.513066 58.410832 116.793338 57.912014 117.292156 
C 57.413197 117.790973 57.132924 118.46761 57.132924 119.173044 
C 57.132924 119.878479 57.413197 120.555116 57.912014 121.053933 
C 58.410832 121.552751 59.087468 121.833023 59.792903 121.833023 
z
" clip-path="url(#p4ddedfa397)" style="stroke: #000000"/>
    <path d="M 53.433592 111.336859 
C 54.138806 111.336859 54.815231 111.056674 55.313893 110.558013 
C 55.812555 110.059351 56.09274 109.382925 56.09274 108.677711 
C 56.09274 107.972497 55.812555 107.296071 55.313893 106.797409 
C 54.815231 106.298748 54.138806 106.018563 53.433592 106.018563 
C 52.728377 106.018563 52.051952 106.298748 51.55329 106.797409 
C 51.054628 107.296071 50.774444 107.972497 50.774444 108.677711 
C 50.774444 109.382925 51.054628 110.059351 51.55329 110.558013 
C 52.051952 111.056674 52.728377 111.336859 53.433592 111.336859 
z
" clip-path="url(#p4ddedfa397)" style="stroke: #000000"/>
    <path d="M 47.645284 90.939159 
C 48.350498 90.939159 49.026924 90.658975 49.525586 90.160313 
C 50.024247 89.661651 50.304432 88.985226 50.304432 88.280011 
C 50.304432 87.574797 50.024247 86.898372 49.525586 86.39971 
C 49.026924 85.901048 48.350498 85.620863 47.645284 85.620863 
C 46.94007 85.620863 46.263644 85.901048 45.764982 86.39971 
C 45.266321 86.898372 44.986136 87.574797 44.986136 88.280011 
C 44.986136 88.985226 45.266321 89.661651 45.764982 90.160313 
C 46.263644 90.658975 46.94007 90.939159 47.645284 90.939159 
z
" clip-path="url(#p4ddedfa397)" style="stroke: #000000"/>
    <path d="M 38.70288 78.088102 
C 39.295892 78.088102 39.864696 77.852496 40.284019 77.433173 
C 40.703341 77.01385 40.938948 76.445046 40.938948 75.852034 
C 40.938948 75.259022 40.703341 74.690218 40.284019 74.270895 
C 39.864696 73.851572 39.295892 73.615966 38.70288 73.615966 
C 38.109868 73.615966 37.541064 73.851572 37.121741 74.270895 
C 36.702418 74.690218 36.466812 75.259022 36.466812 75.852034 
C 36.466812 76.445046 36.702418 77.01385 37.121741 77.433173 
C 37.541064 77.852496 38.109868 78.088102 38.70288 78.088102 
z
" clip-path="url(#p4ddedfa397)" style="stroke: #000000"/>
    <path d="M 62.366131 166.037374 
C 62.959883 166.037374 63.529397 165.801474 63.949243 165.381628 
C 64.369089 164.961782 64.604989 164.392269 64.604989 163.798517 
C 64.604989 163.204765 64.369089 162.635251 63.949243 162.215405 
C 63.529397 161.795559 62.959883 161.559659 62.366131 161.559659 
C 61.772379 161.559659 61.202866 161.795559 60.78302 162.215405 
C 60.363174 162.635251 60.127274 163.204765 60.127274 163.798517 
C 60.127274 164.392269 60.363174 164.961782 60.78302 165.381628 
C 61.202866 165.801474 61.772379 166.037374 62.366131 166.037374 
z
" clip-path="url(#p4ddedfa397)" style="stroke: #000000"/>
    <path d="M 55.881129 151.436736 
C 56.157974 151.436736 56.423518 151.326744 56.619277 151.130985 
C 56.815036 150.935226 56.925028 150.669682 56.925028 150.392837 
C 56.925028 150.115992 56.815036 149.850448 56.619277 149.654689 
C 56.423518 149.45893 56.157974 149.348938 55.881129 149.348938 
C 55.604284 149.348938 55.33874 149.45893 55.142981 149.654689 
C 54.947222 149.850448 54.83723 150.115992 54.83723 150.392837 
C 54.83723 150.669682 54.947222 150.935226 55.142981 151.130985 
C 55.33874 151.326744 55.604284 151.436736 55.881129 151.436736 
z
" clip-path="url(#p4ddedfa397)" style="stroke: #000000"/>
    <path d="M 56.017739 143.539214 
C 56.723174 143.539214 57.39981 143.258942 57.898628 142.760124 
C 58.397445 142.261307 58.677718 141.58467 58.677718 140.879235 
C 58.677718 140.173801 58.397445 139.497164 57.898628 138.998346 
C 57.39981 138.499529 56.723174 138.219257 56.017739 138.219257 
C 55.312305 138.219257 54.635668 138.499529 54.13685 138.998346 
C 53.638033 139.497164 53.357761 140.173801 53.357761 140.879235 
C 53.357761 141.58467 53.638033 142.261307 54.13685 142.760124 
C 54.635668 143.258942 55.312305 143.539214 56.017739 143.539214 
z
" clip-path="url(#p4ddedfa397)" style="stroke: #000000"/>
    <path d="M 50.831674 129.867839 
C 51.537109 129.867839 52.213746 129.587567 52.712563 129.088749 
C 53.211381 128.589931 53.491653 127.913295 53.491653 127.20786 
C 53.491653 126.502426 53.211381 125.825789 52.712563 125.326971 
C 52.213746 124.828154 51.537109 124.547882 50.831674 124.547882 
C 50.12624 124.547882 49.449603 124.828154 48.950786 125.326971 
C 48.451968 125.825789 48.171696 126.502426 48.171696 127.20786 
C 48.171696 127.913295 48.451968 128.589931 48.950786 129.088749 
C 49.449603 129.587567 50.12624 129.867839 50.831674 129.867839 
z
" clip-path="url(#p4ddedfa397)" style="stroke: #000000"/>
    <path d="M 51.638802 125.168106 
C 52.344016 125.168106 53.020442 124.887922 53.519104 124.38926 
C 54.017765 123.890598 54.29795 123.214173 54.29795 122.508958 
C 54.29795 121.803744 54.017765 121.127319 53.519104 120.628657 
C 53.020442 120.129995 52.344016 119.84981 51.638802 119.84981 
C 50.933588 119.84981 50.257162 120.129995 49.7585 120.628657 
C 49.259839 121.127319 48.979654 121.803744 48.979654 122.508958 
C 48.979654 123.214173 49.259839 123.890598 49.7585 124.38926 
C 50.257162 124.887922 50.933588 125.168106 51.638802 125.168106 
z
" clip-path="url(#p4ddedfa397)" style="stroke: #000000"/>
    <path d="M 41.107961 112.636839 
C 41.813175 112.636839 42.4896 112.356655 42.988262 111.857993 
C 43.486924 111.359331 43.767108 110.682906 43.767108 109.977691 
C 43.767108 109.272477 43.486924 108.596052 42.988262 108.09739 
C 42.4896 107.598728 41.813175 107.318543 41.107961 107.318543 
C 40.402746 107.318543 39.726321 107.598728 39.227659 108.09739 
C 38.728997 108.596052 38.448813 109.272477 38.448813 109.977691 
C 38.448813 110.682906 38.728997 111.359331 39.227659 111.857993 
C 39.726321 112.356655 40.402746 112.636839 41.107961 112.636839 
z
" clip-path="url(#p4ddedfa397)" style="stroke: #000000"/>
    <path d="M 39.048288 90.647799 
C 39.714717 90.647799 40.353941 90.383024 40.825177 89.911788 
C 41.296413 89.440552 41.561188 88.801328 41.561188 88.134899 
C 41.561188 87.468471 41.296413 86.829247 40.825177 86.358011 
C 40.353941 85.886775 39.714717 85.622 39.048288 85.622 
C 38.38186 85.622 37.742636 85.886775 37.2714 86.358011 
C 36.800164 86.829247 36.535389 87.468471 36.535389 88.134899 
C 36.535389 88.801328 36.800164 89.440552 37.2714 89.911788 
C 37.742636 90.383024 38.38186 90.647799 39.048288 90.647799 
z
" clip-path="url(#p4ddedfa397)" style="stroke: #000000"/>
    <path d="M 56.162004 176.832846 
C 56.755016 176.832846 57.32382 176.59724 57.743142 176.177917 
C 58.162465 175.758594 58.398072 175.18979 58.398072 174.596778 
C 58.398072 174.003766 58.162465 173.434962 57.743142 173.015639 
C 57.32382 172.596316 56.755016 172.36071 56.162004 172.36071 
C 55.568991 172.36071 55.000188 172.596316 54.580865 173.015639 
C 54.161542 173.434962 53.925936 174.003766 53.925936 174.596778 
C 53.925936 175.18979 54.161542 175.758594 54.580865 176.177917 
C 55.000188 176.59724 55.568991 176.832846 56.162004 176.832846 
z
" clip-path="url(#p4ddedfa397)" style="stroke: #000000"/>
    <path d="M 47.106434 157.89348 
C 47.699446 157.89348 48.26825 157.657874 48.687573 157.238551 
C 49.106896 156.819228 49.342502 156.250424 49.342502 155.657412 
C 49.342502 155.0644 49.106896 154.495596 48.687573 154.076273 
C 48.26825 153.65695 47.699446 153.421344 47.106434 153.421344 
C 46.513422 153.421344 45.944618 153.65695 45.525295 154.076273 
C 45.105972 154.495596 44.870366 155.0644 44.870366 155.657412 
C 44.870366 156.250424 45.105972 156.819228 45.525295 157.238551 
C 45.944618 157.657874 46.513422 157.89348 47.106434 157.89348 
z
" clip-path="url(#p4ddedfa397)" style="stroke: #000000"/>
    <path d="M 45.781047 146.021759 
C 45.913649 146.021759 46.040837 145.969076 46.134601 145.875313 
C 46.228364 145.781549 46.281047 145.654361 46.281047 145.521759 
C 46.281047 145.389158 46.228364 145.261969 46.134601 145.168206 
C 46.040837 145.074442 45.913649 145.021759 45.781047 145.021759 
C 45.648446 145.021759 45.521257 145.074442 45.427494 145.168206 
C 45.333731 145.261969 45.281047 145.389158 45.281047 145.521759 
C 45.281047 145.654361 45.333731 145.781549 45.427494 145.875313 
C 45.521257 145.969076 45.648446 146.021759 45.781047 146.021759 
z
" clip-path="url(#p4ddedfa397)" style="stroke: #000000"/>
    <path d="M 34.885801 137.523911 
C 35.481391 137.523911 36.052667 137.287281 36.473813 136.866135 
C 36.894958 136.444989 37.131588 135.873713 37.131588 135.278124 
C 37.131588 134.682534 36.894958 134.111258 36.473813 133.690112 
C 36.052667 133.268967 35.481391 133.032336 34.885801 133.032336 
C 34.290212 133.032336 33.718935 133.268967 33.29779 133.690112 
C 32.876644 134.111258 32.640014 134.682534 32.640014 135.278124 
C 32.640014 135.873713 32.876644 136.444989 33.29779 136.866135 
C 33.718935 137.287281 34.290212 137.523911 34.885801 137.523911 
z
" clip-path="url(#p4ddedfa397)" style="stroke: #000000"/>
    <path d="M 38.313824 127.045605 
C 39.018818 127.045605 39.695032 126.765508 40.193538 126.267002 
C 40.692044 125.768496 40.972141 125.092282 40.972141 124.387288 
C 40.972141 123.682295 40.692044 123.006081 40.193538 122.507575 
C 39.695032 122.009069 39.018818 121.728972 38.313824 121.728972 
C 37.608831 121.728972 36.932617 122.009069 36.434111 122.507575 
C 35.935605 123.006081 35.655508 123.682295 35.655508 124.387288 
C 35.655508 125.092282 35.935605 125.768496 36.434111 126.267002 
C 36.932617 126.765508 37.608831 127.045605 38.313824 127.045605 
z
" clip-path="url(#p4ddedfa397)" style="stroke: #000000"/>
    <path d="M 32.853914 149.077898 
C 33.447297 149.077898 34.016456 148.842145 34.43604 148.42256 
C 34.855625 148.002975 35.091378 147.433817 35.091378 146.840434 
C 35.091378 146.247052 34.855625 145.677893 34.43604 145.258308 
C 34.016456 144.838723 33.447297 144.60297 32.853914 144.60297 
C 32.260532 144.60297 31.691373 144.838723 31.271788 145.258308 
C 30.852203 145.677893 30.61645 146.247052 30.61645 146.840434 
C 30.61645 147.433817 30.852203 148.002975 31.271788 148.42256 
C 31.691373 148.842145 32.260532 149.077898 32.853914 149.077898 
z
" clip-path="url(#p4ddedfa397)" style="stroke: #000000"/>
   </g>
   <g id="matplotlib.axis_1">
    <g id="xtick_1">
     <g id="line2d_1">
      <defs>
       <path id="m3fe7f6760d" d="M 0 0 
L 0 3.5 
" style="stroke: #000000; stroke-width: 0.8"/>
      </defs>
      <g>
       <use xlink:href="#m3fe7f6760d" x="18" y="189" style="stroke: #000000; stroke-width: 0.8"/>
      </g>
     </g>
     <g id="text_1">
      <!-- −10 -->
      <g transform="translate(7.447656 203.598437)scale(0.1 -0.1)">
       <defs>
        <path id="DejaVuSans-2212" d="M 678 2272 
L 4684 2272 
L 4684 1741 
L 678 1741 
L 678 2272 
z
" transform="scale(0.015625)"/>
        <path id="DejaVuSans-31" d="M 794 531 
L 1825 531 
L 1825 4091 
L 703 3866 
L 703 4441 
L 1819 4666 
L 2450 4666 
L 2450 531 
L 3481 531 
L 3481 0 
L 794 0 
L 794 531 
z
" transform="scale(0.015625)"/>
        <path id="DejaVuSans-30" d="M 2034 4250 
Q 1547 4250 1301 3770 
Q 1056 3291 1056 2328 
Q 1056 1369 1301 889 
Q 1547 409 2034 409 
Q 2525 409 2770 889 
Q 3016 1369 3016 2328 
Q 3016 3291 2770 3770 
Q 2525 4250 2034 4250 
z
M 2034 4750 
Q 2819 4750 3233 4129 
Q 3647 3509 3647 2328 
Q 3647 1150 3233 529 
Q 2819 -91 2034 -91 
Q 1250 -91 836 529 
Q 422 1150 422 2328 
Q 422 3509 836 4129 
Q 1250 4750 2034 4750 
z
" transform="scale(0.015625)"/>
       </defs>
       <use xlink:href="#DejaVuSans-2212"/>
       <use xlink:href="#DejaVuSans-31" x="83.789062"/>
       <use xlink:href="#DejaVuSans-30" x="147.412109"/>
      </g>
     </g>
    </g>
    <g id="xtick_2">
     <g id="line2d_2">
      <g>
       <use xlink:href="#m3fe7f6760d" x="73.8" y="189" style="stroke: #000000; stroke-width: 0.8"/>
      </g>
     </g>
     <g id="text_2">
      <!-- 0 -->
      <g transform="translate(70.61875 203.598437)scale(0.1 -0.1)">
       <use xlink:href="#DejaVuSans-30"/>
      </g>
     </g>
    </g>
    <g id="xtick_3">
     <g id="line2d_3">
      <g>
       <use xlink:href="#m3fe7f6760d" x="129.6" y="189" style="stroke: #000000; stroke-width: 0.8"/>
      </g>
     </g>
     <g id="text_3">
      <!-- 10 -->
      <g transform="translate(123.2375 203.598437)scale(0.1 -0.1)">
       <use xlink:href="#DejaVuSans-31"/>
       <use xlink:href="#DejaVuSans-30" x="63.623047"/>
      </g>
     </g>
    </g>
   </g>
   <g id="matplotlib.axis_2">
    <g id="ytick_1">
     <g id="line2d_4">
      <defs>
       <path id="m6fc9043c34" d="M 0 0 
L -3.5 0 
" style="stroke: #000000; stroke-width: 0.8"/>
      </defs>
      <g>
       <use xlink:href="#m6fc9043c34" x="18" y="189" style="stroke: #000000; stroke-width: 0.8"/>
      </g>
     </g>
     <g id="text_4">
      <!-- −15 -->
      <g transform="translate(-10.104688 192.799219)scale(0.1 -0.1)">
       <defs>
        <path id="DejaVuSans-35" d="M 691 4666 
L 3169 4666 
L 3169 4134 
L 1269 4134 
L 1269 2991 
Q 1406 3038 1543 3061 
Q 1681 3084 1819 3084 
Q 2600 3084 3056 2656 
Q 3513 2228 3513 1497 
Q 3513 744 3044 326 
Q 2575 -91 1722 -91 
Q 1428 -91 1123 -41 
Q 819 9 494 109 
L 494 744 
Q 775 591 1075 516 
Q 1375 441 1709 441 
Q 2250 441 2565 725 
Q 2881 1009 2881 1497 
Q 2881 1984 2565 2268 
Q 2250 2553 1709 2553 
Q 1456 2553 1204 2497 
Q 953 2441 691 2322 
L 691 4666 
z
" transform="scale(0.015625)"/>
       </defs>
       <use xlink:href="#DejaVuSans-2212"/>
       <use xlink:href="#DejaVuSans-31" x="83.789062"/>
       <use xlink:href="#DejaVuSans-35" x="147.412109"/>
      </g>
     </g>
    </g>
    <g id="ytick_2">
     <g id="line2d_5">
      <g>
       <use xlink:href="#m6fc9043c34" x="18" y="161.82" style="stroke: #000000; stroke-width: 0.8"/>
      </g>
     </g>
     <g id="text_5">
      <!-- −10 -->
      <g transform="translate(-10.104688 165.619219)scale(0.1 -0.1)">
       <use xlink:href="#DejaVuSans-2212"/>
       <use xlink:href="#DejaVuSans-31" x="83.789062"/>
       <use xlink:href="#DejaVuSans-30" x="147.412109"/>
      </g>
     </g>
    </g>
    <g id="ytick_3">
     <g id="line2d_6">
      <g>
       <use xlink:href="#m6fc9043c34" x="18" y="134.64" style="stroke: #000000; stroke-width: 0.8"/>
      </g>
     </g>
     <g id="text_6">
      <!-- −5 -->
      <g transform="translate(-3.742188 138.439219)scale(0.1 -0.1)">
       <use xlink:href="#DejaVuSans-2212"/>
       <use xlink:href="#DejaVuSans-35" x="83.789062"/>
      </g>
     </g>
    </g>
    <g id="ytick_4">
     <g id="line2d_7">
      <g>
       <use xlink:href="#m6fc9043c34" x="18" y="107.46" style="stroke: #000000; stroke-width: 0.8"/>
      </g>
     </g>
     <g id="text_7">
      <!-- 0 -->
      <g transform="translate(4.6375 111.259219)scale(0.1 -0.1)">
       <use xlink:href="#DejaVuSans-30"/>
      </g>
     </g>
    </g>
    <g id="ytick_5">
     <g id="line2d_8">
      <g>
       <use xlink:href="#m6fc9043c34" x="18" y="80.28" style="stroke: #000000; stroke-width: 0.8"/>
      </g>
     </g>
     <g id="text_8">
      <!-- 5 -->
      <g transform="translate(4.6375 84.079219)scale(0.1 -0.1)">
       <use xlink:href="#DejaVuSans-35"/>
      </g>
     </g>
    </g>
    <g id="ytick_6">
     <g id="line2d_9">
      <g>
       <use xlink:href="#m6fc9043c34" x="18" y="53.1" style="stroke: #000000; stroke-width: 0.8"/>
      </g>
     </g>
     <g id="text_9">
      <!-- 10 -->
      <g transform="translate(-1.725 56.899219)scale(0.1 -0.1)">
       <use xlink:href="#DejaVuSans-31"/>
       <use xlink:href="#DejaVuSans-30" x="63.623047"/>
      </g>
     </g>
    </g>
    <g id="ytick_7">
     <g id="line2d_10">
      <g>
       <use xlink:href="#m6fc9043c34" x="18" y="25.92" style="stroke: #000000; stroke-width: 0.8"/>
      </g>
     </g>
     <g id="text_10">
      <!-- 15 -->
      <g transform="translate(-1.725 29.719219)scale(0.1 -0.1)">
       <use xlink:href="#DejaVuSans-31"/>
       <use xlink:href="#DejaVuSans-35" x="63.623047"/>
      </g>
     </g>
    </g>
   </g>
   <g id="patch_3">
    <path d="M 18 189 
L 18 25.92 
" style="fill: none; stroke: #000000; stroke-width: 0.8; stroke-linejoin: miter; stroke-linecap: square"/>
   </g>
   <g id="patch_4">
    <path d="M 129.6 189 
L 129.6 25.92 
" style="fill: none; stroke: #000000; stroke-width: 0.8; stroke-linejoin: miter; stroke-linecap: square"/>
   </g>
   <g id="patch_5">
    <path d="M 18 189 
L 129.6 189 
" style="fill: none; stroke: #000000; stroke-width: 0.8; stroke-linejoin: miter; stroke-linecap: square"/>
   </g>
   <g id="patch_6">
    <path d="M 18 25.92 
L 129.6 25.92 
" style="fill: none; stroke: #000000; stroke-width: 0.8; stroke-linejoin: miter; stroke-linecap: square"/>
   </g>
  </g>
 </g>
 <defs>
  <clipPath id="p4ddedfa397">
   <rect x="18" y="25.92" width="111.6" height="163.08"/>
  </clipPath>
 </defs>
</svg>
