<?xml version="1.0" encoding="utf-8" standalone="no"?>
<!DOCTYPE svg PUBLIC "-//W3C//DTD SVG 1.1//EN"
  "http://www.w3.org/Graphics/SVG/1.1/DTD/svg11.dtd">
<svg xmlns:xlink="http://www.w3.org/1999/xlink" width="144pt" height="216pt" viewBox="0 0 144 216" xmlns="http://www.w3.org/2000/svg" version="1.1">
 <metadata>
  <rdf:RDF xmlns:dc="http://purl.org/dc/elements/1.1/" xmlns:cc="http://creativecommons.org/ns#" xmlns:rdf="http://www.w3.org/1999/02/22-rdf-syntax-ns#">
   <cc:Work>
    <dc:type rdf:resource="http://purl.org/dc/dcmitype/StillImage"/>
    <dc:date>2022-06-23T14:47:08.995863</dc:date>
    <dc:format>image/svg+xml</dc:format>
    <dc:creator>
     <cc:Agent>
      <dc:title>Matplotlib v3.5.1, https://matplotlib.org/</dc:title>
     </cc:Agent>
    </dc:creator>
   </cc:Work>
  </rdf:RDF>
 </metadata>
 <defs>
  <style type="text/css">*{stroke-linejoin: round; stroke-linecap: butt}</style>
 </defs>
 <g id="figure_1">
  <g id="patch_1">
   <path d="M 0 216 
L 144 216 
L 144 0 
L 0 0 
L 0 216 
z
" style="fill: none"/>
  </g>
  <g id="axes_1">
   <g id="patch_2">
    <path d="M 18 189 
L 129.6 189 
L 129.6 25.92 
L 18 25.92 
z
" style="fill: #ffffff"/>
   </g>
   <g id="PathCollection_1">
    <defs>
     <path id="m8e5f493454" d="M 0 2.738613 
C 0.726289 2.738613 1.422928 2.450055 1.936492 1.936492 
C 2.450055 1.422928 2.738613 0.726289 2.738613 0 
C 2.738613 -0.726289 2.450055 -1.422928 1.936492 -1.936492 
C 1.422928 -2.450055 0.726289 -2.738613 0 -2.738613 
C -0.726289 -2.738613 -1.422928 -2.450055 -1.936492 -1.936492 
C -2.450055 -1.422928 -2.738613 -0.726289 -2.738613 0 
C -2.738613 0.726289 -2.450055 1.422928 -1.936492 1.936492 
C -1.422928 2.450055 -0.726289 2.738613 0 2.738613 
z
" style="stroke: #ff0000; stroke-width: 1.75"/>
    </defs>
    <g clip-path="url(#p8133ef4899)">
     <use xlink:href="#m8e5f493454" x="80.775" y="83.92143" style="fill: #ff0000; stroke: #ff0000; stroke-width: 1.75"/>
     <use xlink:href="#m8e5f493454" x="59.85" y="95.690715" style="fill: #ff0000; stroke: #ff0000; stroke-width: 1.75"/>
     <use xlink:href="#m8e5f493454" x="66.825" y="107.46" style="fill: #ff0000; stroke: #ff0000; stroke-width: 1.75"/>
     <use xlink:href="#m8e5f493454" x="80.775" y="107.46" style="fill: #ff0000; stroke: #ff0000; stroke-width: 1.75"/>
     <use xlink:href="#m8e5f493454" x="94.725" y="107.46" style="fill: #ff0000; stroke: #ff0000; stroke-width: 1.75"/>
     <use xlink:href="#m8e5f493454" x="59.85" y="119.229285" style="fill: #ff0000; stroke: #ff0000; stroke-width: 1.75"/>
     <use xlink:href="#m8e5f493454" x="80.775" y="130.99857" style="fill: #ff0000; stroke: #ff0000; stroke-width: 1.75"/>
    </g>
   </g>
   <g id="PathCollection_2">
    <defs>
     <path id="C0_0_0adf3ac06f" d="M 0 2.738613 
C 0.726289 2.738613 1.422928 2.450055 1.936492 1.936492 
C 2.450055 1.422928 2.738613 0.726289 2.738613 -0 
C 2.738613 -0.726289 2.450055 -1.422928 1.936492 -1.936492 
C 1.422928 -2.450055 0.726289 -2.738613 0 -2.738613 
C -0.726289 -2.738613 -1.422928 -2.450055 -1.936492 -1.936492 
C -2.450055 -1.422928 -2.738613 -0.726289 -2.738613 0 
C -2.738613 0.726289 -2.450055 1.422928 -1.936492 1.936492 
C -1.422928 2.450055 -0.726289 2.738613 0 2.738613 
z
"/>
    </defs>
    <g clip-path="url(#p8133ef4899)">
     <use xlink:href="#C0_0_0adf3ac06f" x="66.825" y="83.92143" style="fill: none; stroke: #ff0000; stroke-width: 1.75"/>
    </g>
    <g clip-path="url(#p8133ef4899)">
     <use xlink:href="#C0_0_0adf3ac06f" x="73.8" y="95.690715" style="fill: none; stroke: #ff0000; stroke-width: 1.75"/>
    </g>
    <g clip-path="url(#p8133ef4899)">
     <use xlink:href="#C0_0_0adf3ac06f" x="87.75" y="95.690715" style="fill: none; stroke: #ff0000; stroke-width: 1.75"/>
    </g>
    <g clip-path="url(#p8133ef4899)">
     <use xlink:href="#C0_0_0adf3ac06f" x="52.875" y="107.46" style="fill: none; stroke: #ff0000; stroke-width: 1.75"/>
    </g>
    <g clip-path="url(#p8133ef4899)">
     <use xlink:href="#C0_0_0adf3ac06f" x="73.8" y="119.229285" style="fill: none; stroke: #ff0000; stroke-width: 1.75"/>
    </g>
    <g clip-path="url(#p8133ef4899)">
     <use xlink:href="#C0_0_0adf3ac06f" x="87.75" y="119.229285" style="fill: none; stroke: #ff0000; stroke-width: 1.75"/>
    </g>
    <g clip-path="url(#p8133ef4899)">
     <use xlink:href="#C0_0_0adf3ac06f" x="66.825" y="130.99857" style="fill: none; stroke: #ff0000; stroke-width: 1.75"/>
    </g>
   </g>
   <g id="PathCollection_3">
    <path d="M 86.398645 99.655952 
C 86.751252 99.655952 87.089464 99.51586 87.338795 99.266529 
C 87.588126 99.017198 87.728218 98.678985 87.728218 98.326378 
C 87.728218 97.973771 87.588126 97.635558 87.338795 97.386227 
C 87.089464 97.136896 86.751252 96.996804 86.398645 96.996804 
C 86.046037 96.996804 85.707825 97.136896 85.458494 97.386227 
C 85.209163 97.635558 85.069071 97.973771 85.069071 98.326378 
C 85.069071 98.678985 85.209163 99.017198 85.458494 99.266529 
C 85.707825 99.51586 86.046037 99.655952 86.398645 99.655952 
z
" clip-path="url(#p8133ef4899)" style="stroke: #000000"/>
    <path d="M 80.936873 88.185317 
C 81.257071 88.185317 81.564197 88.058101 81.790612 87.831687 
C 82.017026 87.605273 82.144241 87.298147 82.144241 86.977949 
C 82.144241 86.657751 82.017026 86.350625 81.790612 86.124211 
C 81.564197 85.897797 81.257071 85.770581 80.936873 85.770581 
C 80.616675 85.770581 80.309549 85.897797 80.083135 86.124211 
C 79.856721 86.350625 79.729505 86.657751 79.729505 86.977949 
C 79.729505 87.298147 79.856721 87.605273 80.083135 87.831687 
C 80.309549 88.058101 80.616675 88.185317 80.936873 88.185317 
z
" clip-path="url(#p8133ef4899)" style="stroke: #000000"/>
    <path d="M 85.915692 119.330153 
C 86.073382 119.330153 86.224636 119.267502 86.33614 119.155997 
C 86.447644 119.044493 86.510295 118.89324 86.510295 118.735549 
C 86.510295 118.577858 86.447644 118.426605 86.33614 118.315101 
C 86.224636 118.203597 86.073382 118.140946 85.915692 118.140946 
C 85.758001 118.140946 85.606748 118.203597 85.495243 118.315101 
C 85.383739 118.426605 85.321088 118.577858 85.321088 118.735549 
C 85.321088 118.89324 85.383739 119.044493 85.495243 119.155997 
C 85.606748 119.267502 85.758001 119.330153 85.915692 119.330153 
z
" clip-path="url(#p8133ef4899)" style="stroke: #000000"/>
    <path d="M 83.105417 110.522179 
C 83.520482 110.522179 83.918603 110.357272 84.212099 110.063777 
C 84.505594 109.770281 84.670502 109.37216 84.670502 108.957095 
C 84.670502 108.54203 84.505594 108.143908 84.212099 107.850413 
C 83.918603 107.556917 83.520482 107.39201 83.105417 107.39201 
C 82.690352 107.39201 82.292231 107.556917 81.998735 107.850413 
C 81.70524 108.143908 81.540332 108.54203 81.540332 108.957095 
C 81.540332 109.37216 81.70524 109.770281 81.998735 110.063777 
C 82.292231 110.357272 82.690352 110.522179 83.105417 110.522179 
z
" clip-path="url(#p8133ef4899)" style="stroke: #000000"/>
    <path d="M 77.377059 94.778332 
C 77.564586 94.778332 77.744458 94.703827 77.877059 94.571225 
C 78.009661 94.438624 78.084166 94.258752 78.084166 94.071225 
C 78.084166 93.883698 78.009661 93.703827 77.877059 93.571225 
C 77.744458 93.438624 77.564586 93.364118 77.377059 93.364118 
C 77.189532 93.364118 77.009661 93.438624 76.877059 93.571225 
C 76.744458 93.703827 76.669952 93.883698 76.669952 94.071225 
C 76.669952 94.258752 76.744458 94.438624 76.877059 94.571225 
C 77.009661 94.703827 77.189532 94.778332 77.377059 94.778332 
z
" clip-path="url(#p8133ef4899)" style="stroke: #000000"/>
    <path d="M 75.726811 90.962548 
C 75.914338 90.962548 76.094209 90.888043 76.226811 90.755442 
C 76.359412 90.62284 76.433918 90.442968 76.433918 90.255442 
C 76.433918 90.067915 76.359412 89.888043 76.226811 89.755442 
C 76.094209 89.62284 75.914338 89.548335 75.726811 89.548335 
C 75.539284 89.548335 75.359412 89.62284 75.226811 89.755442 
C 75.094209 89.888043 75.019704 90.067915 75.019704 90.255442 
C 75.019704 90.442968 75.094209 90.62284 75.226811 90.755442 
C 75.359412 90.888043 75.539284 90.962548 75.726811 90.962548 
z
" clip-path="url(#p8133ef4899)" style="stroke: #000000"/>
    <path d="M 83.378084 132.573772 
C 83.674591 132.573772 83.958992 132.455969 84.168654 132.246308 
C 84.378315 132.036646 84.496118 131.752244 84.496118 131.455738 
C 84.496118 131.159232 84.378315 130.87483 84.168654 130.665169 
C 83.958992 130.455507 83.674591 130.337704 83.378084 130.337704 
C 83.081578 130.337704 82.797177 130.455507 82.587515 130.665169 
C 82.377854 130.87483 82.26005 131.159232 82.26005 131.455738 
C 82.26005 131.752244 82.377854 132.036646 82.587515 132.246308 
C 82.797177 132.455969 83.081578 132.573772 83.378084 132.573772 
z
" clip-path="url(#p8133ef4899)" style="stroke: #000000"/>
    <path d="M 70.799017 95.695346 
C 71.050805 95.695346 71.292314 95.59531 71.470355 95.417269 
C 71.648395 95.239229 71.748432 94.99772 71.748432 94.745932 
C 71.748432 94.494144 71.648395 94.252635 71.470355 94.074595 
C 71.292314 93.896554 71.050805 93.796517 70.799017 93.796517 
C 70.54723 93.796517 70.305721 93.896554 70.12768 94.074595 
C 69.949639 94.252635 69.849603 94.494144 69.849603 94.745932 
C 69.849603 94.99772 69.949639 95.239229 70.12768 95.417269 
C 70.305721 95.59531 70.54723 95.695346 70.799017 95.695346 
z
" clip-path="url(#p8133ef4899)" style="stroke: #000000"/>
    <path d="M 67.021344 85.04567 
C 67.474172 85.04567 67.908514 84.86576 68.228712 84.545562 
C 68.54891 84.225364 68.72882 83.791022 68.72882 83.338194 
C 68.72882 82.885366 68.54891 82.451023 68.228712 82.130826 
C 67.908514 81.810628 67.474172 81.630717 67.021344 81.630717 
C 66.568516 81.630717 66.134173 81.810628 65.813976 82.130826 
C 65.493778 82.451023 65.313867 82.885366 65.313867 83.338194 
C 65.313867 83.791022 65.493778 84.225364 65.813976 84.545562 
C 66.134173 84.86576 66.568516 85.04567 67.021344 85.04567 
z
" clip-path="url(#p8133ef4899)" style="stroke: #000000"/>
    <path d="M 71.688623 120.163983 
C 72.074885 120.163983 72.445378 120.01052 72.718507 119.737391 
C 72.991635 119.464263 73.145098 119.09377 73.145098 118.707508 
C 73.145098 118.321246 72.991635 117.950753 72.718507 117.677624 
C 72.445378 117.404496 72.074885 117.251032 71.688623 117.251032 
C 71.302361 117.251032 70.931868 117.404496 70.658739 117.677624 
C 70.385611 117.950753 70.232148 118.321246 70.232148 118.707508 
C 70.232148 119.09377 70.385611 119.464263 70.658739 119.737391 
C 70.931868 120.01052 71.302361 120.163983 71.688623 120.163983 
z
" clip-path="url(#p8133ef4899)" style="stroke: #000000"/>
    <path d="M 69.06778 109.306936 
C 69.449953 109.306936 69.816526 109.155097 70.086763 108.88486 
C 70.357001 108.614622 70.50884 108.24805 70.50884 107.865876 
C 70.50884 107.483702 70.357001 107.11713 70.086763 106.846892 
C 69.816526 106.576654 69.449953 106.424815 69.06778 106.424815 
C 68.685606 106.424815 68.319034 106.576654 68.048796 106.846892 
C 67.778558 107.11713 67.626719 107.483702 67.626719 107.865876 
C 67.626719 108.24805 67.778558 108.614622 68.048796 108.88486 
C 68.319034 109.155097 68.685606 109.306936 69.06778 109.306936 
z
" clip-path="url(#p8133ef4899)" style="stroke: #000000"/>
    <path d="M 67.185273 104.43932 
C 67.342964 104.43932 67.494217 104.376669 67.605722 104.265165 
C 67.717226 104.15366 67.779877 104.002407 67.779877 103.844716 
C 67.779877 103.687026 67.717226 103.535772 67.605722 103.424268 
C 67.494217 103.312764 67.342964 103.250113 67.185273 103.250113 
C 67.027583 103.250113 66.876329 103.312764 66.764825 103.424268 
C 66.653321 103.535772 66.59067 103.687026 66.59067 103.844716 
C 66.59067 104.002407 66.653321 104.15366 66.764825 104.265165 
C 66.876329 104.376669 67.027583 104.43932 67.185273 104.43932 
z
" clip-path="url(#p8133ef4899)" style="stroke: #000000"/>
    <path d="M 69.476704 131.669365 
C 69.760563 131.669365 70.032835 131.556586 70.233554 131.355867 
C 70.434273 131.155148 70.547051 130.882877 70.547051 130.599017 
C 70.547051 130.315158 70.434273 130.042886 70.233554 129.842167 
C 70.032835 129.641448 69.760563 129.52867 69.476704 129.52867 
C 69.192844 129.52867 68.920573 129.641448 68.719854 129.842167 
C 68.519135 130.042886 68.406356 130.315158 68.406356 130.599017 
C 68.406356 130.882877 68.519135 131.155148 68.719854 131.355867 
C 68.920573 131.556586 69.192844 131.669365 69.476704 131.669365 
z
" clip-path="url(#p8133ef4899)" style="stroke: #000000"/>
    <path d="M 63.808288 107.230835 
C 64.064784 107.230835 64.310809 107.128928 64.492179 106.947558 
C 64.673549 106.766187 64.775456 106.520162 64.775456 106.263666 
C 64.775456 106.00717 64.673549 105.761145 64.492179 105.579775 
C 64.310809 105.398405 64.064784 105.296498 63.808288 105.296498 
C 63.551792 105.296498 63.305767 105.398405 63.124397 105.579775 
C 62.943027 105.761145 62.84112 106.00717 62.84112 106.263666 
C 62.84112 106.520162 62.943027 106.766187 63.124397 106.947558 
C 63.305767 107.128928 63.551792 107.230835 63.808288 107.230835 
z
" clip-path="url(#p8133ef4899)" style="stroke: #000000"/>
    <path d="M 56.097587 95.504037 
C 56.295873 95.504037 56.486064 95.425257 56.626273 95.285048 
C 56.766482 95.144839 56.845262 94.954648 56.845262 94.756362 
C 56.845262 94.558077 56.766482 94.367886 56.626273 94.227677 
C 56.486064 94.087468 56.295873 94.008688 56.097587 94.008688 
C 55.899302 94.008688 55.709111 94.087468 55.568902 94.227677 
C 55.428693 94.367886 55.349913 94.558077 55.349913 94.756362 
C 55.349913 94.954648 55.428693 95.144839 55.568902 95.285048 
C 55.709111 95.425257 55.899302 95.504037 56.097587 95.504037 
z
" clip-path="url(#p8133ef4899)" style="stroke: #000000"/>
    <path d="M 59.293419 119.668723 
C 59.742026 119.668723 60.17232 119.49049 60.489534 119.173276 
C 60.806747 118.856063 60.984981 118.425769 60.984981 117.977162 
C 60.984981 117.528554 60.806747 117.09826 60.489534 116.781047 
C 60.17232 116.463834 59.742026 116.2856 59.293419 116.2856 
C 58.844812 116.2856 58.414518 116.463834 58.097304 116.781047 
C 57.780091 117.09826 57.601857 117.528554 57.601857 117.977162 
C 57.601857 118.425769 57.780091 118.856063 58.097304 119.173276 
C 58.414518 119.49049 58.844812 119.668723 59.293419 119.668723 
z
" clip-path="url(#p8133ef4899)" style="stroke: #000000"/>
    <path d="M 59.485677 116.80401 
C 59.643367 116.80401 59.794621 116.741359 59.906125 116.629855 
C 60.017629 116.518351 60.08028 116.367097 60.08028 116.209407 
C 60.08028 116.051716 60.017629 115.900463 59.906125 115.788958 
C 59.794621 115.677454 59.643367 115.614803 59.485677 115.614803 
C 59.327986 115.614803 59.176733 115.677454 59.065229 115.788958 
C 58.953724 115.900463 58.891073 116.051716 58.891073 116.209407 
C 58.891073 116.367097 58.953724 116.518351 59.065229 116.629855 
C 59.176733 116.741359 59.327986 116.80401 59.485677 116.80401 
z
" clip-path="url(#p8133ef4899)" style="stroke: #000000"/>
    <path d="M 32.311814 103.224499 
C 32.444416 103.224499 32.571604 103.171816 32.665367 103.078052 
C 32.759131 102.984289 32.811814 102.8571 32.811814 102.724499 
C 32.811814 102.591897 32.759131 102.464709 32.665367 102.370945 
C 32.571604 102.277182 32.444416 102.224499 32.311814 102.224499 
C 32.179212 102.224499 32.052024 102.277182 31.958261 102.370945 
C 31.864497 102.464709 31.811814 102.591897 31.811814 102.724499 
C 31.811814 102.8571 31.864497 102.984289 31.958261 103.078052 
C 32.052024 103.171816 32.179212 103.224499 32.311814 103.224499 
z
" clip-path="url(#p8133ef4899)" style="stroke: #000000"/>
   </g>
   <g id="matplotlib.axis_1">
    <g id="xtick_1">
     <g id="line2d_1">
      <defs>
       <path id="m6496b15311" d="M 0 0 
L 0 3.5 
" style="stroke: #000000; stroke-width: 0.8"/>
      </defs>
      <g>
       <use xlink:href="#m6496b15311" x="18" y="189" style="stroke: #000000; stroke-width: 0.8"/>
      </g>
     </g>
     <g id="text_1">
      <!-- −10 -->
      <g transform="translate(7.447656 203.598437)scale(0.1 -0.1)">
       <defs>
        <path id="DejaVuSans-2212" d="M 678 2272 
L 4684 2272 
L 4684 1741 
L 678 1741 
L 678 2272 
z
" transform="scale(0.015625)"/>
        <path id="DejaVuSans-31" d="M 794 531 
L 1825 531 
L 1825 4091 
L 703 3866 
L 703 4441 
L 1819 4666 
L 2450 4666 
L 2450 531 
L 3481 531 
L 3481 0 
L 794 0 
L 794 531 
z
" transform="scale(0.015625)"/>
        <path id="DejaVuSans-30" d="M 2034 4250 
Q 1547 4250 1301 3770 
Q 1056 3291 1056 2328 
Q 1056 1369 1301 889 
Q 1547 409 2034 409 
Q 2525 409 2770 889 
Q 3016 1369 3016 2328 
Q 3016 3291 2770 3770 
Q 2525 4250 2034 4250 
z
M 2034 4750 
Q 2819 4750 3233 4129 
Q 3647 3509 3647 2328 
Q 3647 1150 3233 529 
Q 2819 -91 2034 -91 
Q 1250 -91 836 529 
Q 422 1150 422 2328 
Q 422 3509 836 4129 
Q 1250 4750 2034 4750 
z
" transform="scale(0.015625)"/>
       </defs>
       <use xlink:href="#DejaVuSans-2212"/>
       <use xlink:href="#DejaVuSans-31" x="83.789062"/>
       <use xlink:href="#DejaVuSans-30" x="147.412109"/>
      </g>
     </g>
    </g>
    <g id="xtick_2">
     <g id="line2d_2">
      <g>
       <use xlink:href="#m6496b15311" x="73.8" y="189" style="stroke: #000000; stroke-width: 0.8"/>
      </g>
     </g>
     <g id="text_2">
      <!-- 0 -->
      <g transform="translate(70.61875 203.598437)scale(0.1 -0.1)">
       <use xlink:href="#DejaVuSans-30"/>
      </g>
     </g>
    </g>
    <g id="xtick_3">
     <g id="line2d_3">
      <g>
       <use xlink:href="#m6496b15311" x="129.6" y="189" style="stroke: #000000; stroke-width: 0.8"/>
      </g>
     </g>
     <g id="text_3">
      <!-- 10 -->
      <g transform="translate(123.2375 203.598437)scale(0.1 -0.1)">
       <use xlink:href="#DejaVuSans-31"/>
       <use xlink:href="#DejaVuSans-30" x="63.623047"/>
      </g>
     </g>
    </g>
   </g>
   <g id="matplotlib.axis_2">
    <g id="ytick_1">
     <g id="line2d_4">
      <defs>
       <path id="m95c5bcf7c2" d="M 0 0 
L -3.5 0 
" style="stroke: #000000; stroke-width: 0.8"/>
      </defs>
      <g>
       <use xlink:href="#m95c5bcf7c2" x="18" y="189" style="stroke: #000000; stroke-width: 0.8"/>
      </g>
     </g>
     <g id="text_4">
      <!-- −15 -->
      <g transform="translate(-10.104688 192.799219)scale(0.1 -0.1)">
       <defs>
        <path id="DejaVuSans-35" d="M 691 4666 
L 3169 4666 
L 3169 4134 
L 1269 4134 
L 1269 2991 
Q 1406 3038 1543 3061 
Q 1681 3084 1819 3084 
Q 2600 3084 3056 2656 
Q 3513 2228 3513 1497 
Q 3513 744 3044 326 
Q 2575 -91 1722 -91 
Q 1428 -91 1123 -41 
Q 819 9 494 109 
L 494 744 
Q 775 591 1075 516 
Q 1375 441 1709 441 
Q 2250 441 2565 725 
Q 2881 1009 2881 1497 
Q 2881 1984 2565 2268 
Q 2250 2553 1709 2553 
Q 1456 2553 1204 2497 
Q 953 2441 691 2322 
L 691 4666 
z
" transform="scale(0.015625)"/>
       </defs>
       <use xlink:href="#DejaVuSans-2212"/>
       <use xlink:href="#DejaVuSans-31" x="83.789062"/>
       <use xlink:href="#DejaVuSans-35" x="147.412109"/>
      </g>
     </g>
    </g>
    <g id="ytick_2">
     <g id="line2d_5">
      <g>
       <use xlink:href="#m95c5bcf7c2" x="18" y="161.82" style="stroke: #000000; stroke-width: 0.8"/>
      </g>
     </g>
     <g id="text_5">
      <!-- −10 -->
      <g transform="translate(-10.104688 165.619219)scale(0.1 -0.1)">
       <use xlink:href="#DejaVuSans-2212"/>
       <use xlink:href="#DejaVuSans-31" x="83.789062"/>
       <use xlink:href="#DejaVuSans-30" x="147.412109"/>
      </g>
     </g>
    </g>
    <g id="ytick_3">
     <g id="line2d_6">
      <g>
       <use xlink:href="#m95c5bcf7c2" x="18" y="134.64" style="stroke: #000000; stroke-width: 0.8"/>
      </g>
     </g>
     <g id="text_6">
      <!-- −5 -->
      <g transform="translate(-3.742188 138.439219)scale(0.1 -0.1)">
       <use xlink:href="#DejaVuSans-2212"/>
       <use xlink:href="#DejaVuSans-35" x="83.789062"/>
      </g>
     </g>
    </g>
    <g id="ytick_4">
     <g id="line2d_7">
      <g>
       <use xlink:href="#m95c5bcf7c2" x="18" y="107.46" style="stroke: #000000; stroke-width: 0.8"/>
      </g>
     </g>
     <g id="text_7">
      <!-- 0 -->
      <g transform="translate(4.6375 111.259219)scale(0.1 -0.1)">
       <use xlink:href="#DejaVuSans-30"/>
      </g>
     </g>
    </g>
    <g id="ytick_5">
     <g id="line2d_8">
      <g>
       <use xlink:href="#m95c5bcf7c2" x="18" y="80.28" style="stroke: #000000; stroke-width: 0.8"/>
      </g>
     </g>
     <g id="text_8">
      <!-- 5 -->
      <g transform="translate(4.6375 84.079219)scale(0.1 -0.1)">
       <use xlink:href="#DejaVuSans-35"/>
      </g>
     </g>
    </g>
    <g id="ytick_6">
     <g id="line2d_9">
      <g>
       <use xlink:href="#m95c5bcf7c2" x="18" y="53.1" style="stroke: #000000; stroke-width: 0.8"/>
      </g>
     </g>
     <g id="text_9">
      <!-- 10 -->
      <g transform="translate(-1.725 56.899219)scale(0.1 -0.1)">
       <use xlink:href="#DejaVuSans-31"/>
       <use xlink:href="#DejaVuSans-30" x="63.623047"/>
      </g>
     </g>
    </g>
    <g id="ytick_7">
     <g id="line2d_10">
      <g>
       <use xlink:href="#m95c5bcf7c2" x="18" y="25.92" style="stroke: #000000; stroke-width: 0.8"/>
      </g>
     </g>
     <g id="text_10">
      <!-- 15 -->
      <g transform="translate(-1.725 29.719219)scale(0.1 -0.1)">
       <use xlink:href="#DejaVuSans-31"/>
       <use xlink:href="#DejaVuSans-35" x="63.623047"/>
      </g>
     </g>
    </g>
   </g>
   <g id="patch_3">
    <path d="M 18 189 
L 18 25.92 
" style="fill: none; stroke: #000000; stroke-width: 0.8; stroke-linejoin: miter; stroke-linecap: square"/>
   </g>
   <g id="patch_4">
    <path d="M 129.6 189 
L 129.6 25.92 
" style="fill: none; stroke: #000000; stroke-width: 0.8; stroke-linejoin: miter; stroke-linecap: square"/>
   </g>
   <g id="patch_5">
    <path d="M 18 189 
L 129.6 189 
" style="fill: none; stroke: #000000; stroke-width: 0.8; stroke-linejoin: miter; stroke-linecap: square"/>
   </g>
   <g id="patch_6">
    <path d="M 18 25.92 
L 129.6 25.92 
" style="fill: none; stroke: #000000; stroke-width: 0.8; stroke-linejoin: miter; stroke-linecap: square"/>
   </g>
  </g>
 </g>
 <defs>
  <clipPath id="p8133ef4899">
   <rect x="18" y="25.92" width="111.6" height="163.08"/>
  </clipPath>
 </defs>
</svg>
