<?xml version="1.0" encoding="utf-8" standalone="no"?>
<!DOCTYPE svg PUBLIC "-//W3C//DTD SVG 1.1//EN"
  "http://www.w3.org/Graphics/SVG/1.1/DTD/svg11.dtd">
<svg xmlns:xlink="http://www.w3.org/1999/xlink" width="144pt" height="216pt" viewBox="0 0 144 216" xmlns="http://www.w3.org/2000/svg" version="1.1">
 <metadata>
  <rdf:RDF xmlns:dc="http://purl.org/dc/elements/1.1/" xmlns:cc="http://creativecommons.org/ns#" xmlns:rdf="http://www.w3.org/1999/02/22-rdf-syntax-ns#">
   <cc:Work>
    <dc:type rdf:resource="http://purl.org/dc/dcmitype/StillImage"/>
    <dc:date>2022-06-23T14:49:06.534701</dc:date>
    <dc:format>image/svg+xml</dc:format>
    <dc:creator>
     <cc:Agent>
      <dc:title>Matplotlib v3.5.1, https://matplotlib.org/</dc:title>
     </cc:Agent>
    </dc:creator>
   </cc:Work>
  </rdf:RDF>
 </metadata>
 <defs>
  <style type="text/css">*{stroke-linejoin: round; stroke-linecap: butt}</style>
 </defs>
 <g id="figure_1">
  <g id="patch_1">
   <path d="M 0 216 
L 144 216 
L 144 0 
L 0 0 
L 0 216 
z
" style="fill: none"/>
  </g>
  <g id="axes_1">
   <g id="patch_2">
    <path d="M 18 189 
L 129.6 189 
L 129.6 25.92 
L 18 25.92 
z
" style="fill: #ffffff"/>
   </g>
   <g id="PathCollection_1">
    <defs>
     <path id="m09d1b6978d" d="M 0 2.738613 
C 0.726289 2.738613 1.422928 2.450055 1.936492 1.936492 
C 2.450055 1.422928 2.738613 0.726289 2.738613 0 
C 2.738613 -0.726289 2.450055 -1.422928 1.936492 -1.936492 
C 1.422928 -2.450055 0.726289 -2.738613 0 -2.738613 
C -0.726289 -2.738613 -1.422928 -2.450055 -1.936492 -1.936492 
C -2.450055 -1.422928 -2.738613 -0.726289 -2.738613 0 
C -2.738613 0.726289 -2.450055 1.422928 -1.936492 1.936492 
C -1.422928 2.450055 -0.726289 2.738613 0 2.738613 
z
" style="stroke: #ff0000; stroke-width: 1.75"/>
    </defs>
    <g clip-path="url(#p2b8d764104)">
     <use xlink:href="#m09d1b6978d" x="80.775" y="83.92143" style="fill: #ff0000; stroke: #ff0000; stroke-width: 1.75"/>
     <use xlink:href="#m09d1b6978d" x="59.85" y="95.690715" style="fill: #ff0000; stroke: #ff0000; stroke-width: 1.75"/>
     <use xlink:href="#m09d1b6978d" x="66.825" y="107.46" style="fill: #ff0000; stroke: #ff0000; stroke-width: 1.75"/>
     <use xlink:href="#m09d1b6978d" x="80.775" y="107.46" style="fill: #ff0000; stroke: #ff0000; stroke-width: 1.75"/>
     <use xlink:href="#m09d1b6978d" x="94.725" y="107.46" style="fill: #ff0000; stroke: #ff0000; stroke-width: 1.75"/>
     <use xlink:href="#m09d1b6978d" x="59.85" y="119.229285" style="fill: #ff0000; stroke: #ff0000; stroke-width: 1.75"/>
     <use xlink:href="#m09d1b6978d" x="80.775" y="130.99857" style="fill: #ff0000; stroke: #ff0000; stroke-width: 1.75"/>
    </g>
   </g>
   <g id="PathCollection_2">
    <defs>
     <path id="C0_0_f4aea258b3" d="M 0 2.738613 
C 0.726289 2.738613 1.422928 2.450055 1.936492 1.936492 
C 2.450055 1.422928 2.738613 0.726289 2.738613 -0 
C 2.738613 -0.726289 2.450055 -1.422928 1.936492 -1.936492 
C 1.422928 -2.450055 0.726289 -2.738613 0 -2.738613 
C -0.726289 -2.738613 -1.422928 -2.450055 -1.936492 -1.936492 
C -2.450055 -1.422928 -2.738613 -0.726289 -2.738613 0 
C -2.738613 0.726289 -2.450055 1.422928 -1.936492 1.936492 
C -1.422928 2.450055 -0.726289 2.738613 0 2.738613 
z
"/>
    </defs>
    <g clip-path="url(#p2b8d764104)">
     <use xlink:href="#C0_0_f4aea258b3" x="66.825" y="83.92143" style="fill: none; stroke: #ff0000; stroke-width: 1.75"/>
    </g>
    <g clip-path="url(#p2b8d764104)">
     <use xlink:href="#C0_0_f4aea258b3" x="73.8" y="95.690715" style="fill: none; stroke: #ff0000; stroke-width: 1.75"/>
    </g>
    <g clip-path="url(#p2b8d764104)">
     <use xlink:href="#C0_0_f4aea258b3" x="87.75" y="95.690715" style="fill: none; stroke: #ff0000; stroke-width: 1.75"/>
    </g>
    <g clip-path="url(#p2b8d764104)">
     <use xlink:href="#C0_0_f4aea258b3" x="52.875" y="107.46" style="fill: none; stroke: #ff0000; stroke-width: 1.75"/>
    </g>
    <g clip-path="url(#p2b8d764104)">
     <use xlink:href="#C0_0_f4aea258b3" x="73.8" y="119.229285" style="fill: none; stroke: #ff0000; stroke-width: 1.75"/>
    </g>
    <g clip-path="url(#p2b8d764104)">
     <use xlink:href="#C0_0_f4aea258b3" x="87.75" y="119.229285" style="fill: none; stroke: #ff0000; stroke-width: 1.75"/>
    </g>
    <g clip-path="url(#p2b8d764104)">
     <use xlink:href="#C0_0_f4aea258b3" x="66.825" y="130.99857" style="fill: none; stroke: #ff0000; stroke-width: 1.75"/>
    </g>
   </g>
   <g id="PathCollection_3">
    <path d="M 111.372259 112.088235 
C 111.853858 112.088235 112.315797 111.896894 112.656339 111.556351 
C 112.996882 111.215809 113.188223 110.75387 113.188223 110.272271 
C 113.188223 109.790671 112.996882 109.328732 112.656339 108.98819 
C 112.315797 108.647648 111.853858 108.456306 111.372259 108.456306 
C 110.890659 108.456306 110.42872 108.647648 110.088178 108.98819 
C 109.747636 109.328732 109.556294 109.790671 109.556294 110.272271 
C 109.556294 110.75387 109.747636 111.215809 110.088178 111.556351 
C 110.42872 111.896894 110.890659 112.088235 111.372259 112.088235 
z
" clip-path="url(#p2b8d764104)" style="stroke: #000000"/>
    <path d="M 109.145047 100.038635 
C 109.551181 100.038635 109.940735 99.877277 110.227915 99.590097 
C 110.515095 99.302917 110.676454 98.913362 110.676454 98.507228 
C 110.676454 98.101094 110.515095 97.71154 110.227915 97.42436 
C 109.940735 97.13718 109.551181 96.975821 109.145047 96.975821 
C 108.738913 96.975821 108.349358 97.13718 108.062178 97.42436 
C 107.774998 97.71154 107.61364 98.101094 107.61364 98.507228 
C 107.61364 98.913362 107.774998 99.302917 108.062178 99.590097 
C 108.349358 99.877277 108.738913 100.038635 109.145047 100.038635 
z
" clip-path="url(#p2b8d764104)" style="stroke: #000000"/>
    <path d="M 109.286626 90.506795 
C 109.880008 90.506795 110.449167 90.271041 110.868752 89.851457 
C 111.288337 89.431872 111.52409 88.862713 111.52409 88.269331 
C 111.52409 87.675948 111.288337 87.106789 110.868752 86.687204 
C 110.449167 86.26762 109.880008 86.031866 109.286626 86.031866 
C 108.693244 86.031866 108.124085 86.26762 107.7045 86.687204 
C 107.284915 87.106789 107.049162 87.675948 107.049162 88.269331 
C 107.049162 88.862713 107.284915 89.431872 107.7045 89.851457 
C 108.124085 90.271041 108.693244 90.506795 109.286626 90.506795 
z
" clip-path="url(#p2b8d764104)" style="stroke: #000000"/>
    <path d="M 103.200178 84.639406 
C 103.898913 84.639406 104.569123 84.361796 105.063203 83.867716 
C 105.557283 83.373636 105.834893 82.703425 105.834893 82.004691 
C 105.834893 81.305956 105.557283 80.635746 105.063203 80.141666 
C 104.569123 79.647586 103.898913 79.369976 103.200178 79.369976 
C 102.501444 79.369976 101.831234 79.647586 101.337154 80.141666 
C 100.843074 80.635746 100.565464 81.305956 100.565464 82.004691 
C 100.565464 82.703425 100.843074 83.373636 101.337154 83.867716 
C 101.831234 84.361796 102.501444 84.639406 103.200178 84.639406 
z
" clip-path="url(#p2b8d764104)" style="stroke: #000000"/>
    <path d="M 101.770475 70.90699 
C 102.363487 70.90699 102.932291 70.671383 103.351614 70.252061 
C 103.770937 69.832738 104.006543 69.263934 104.006543 68.670922 
C 104.006543 68.07791 103.770937 67.509106 103.351614 67.089783 
C 102.932291 66.67046 102.363487 66.434854 101.770475 66.434854 
C 101.177463 66.434854 100.608659 66.67046 100.189336 67.089783 
C 99.770013 67.509106 99.534407 68.07791 99.534407 68.670922 
C 99.534407 69.263934 99.770013 69.832738 100.189336 70.252061 
C 100.608659 70.671383 101.177463 70.90699 101.770475 70.90699 
z
" clip-path="url(#p2b8d764104)" style="stroke: #000000"/>
    <path d="M 99.655898 59.239438 
C 100.230258 59.239438 100.781171 59.011242 101.187305 58.605108 
C 101.593439 58.198974 101.821635 57.648061 101.821635 57.073701 
C 101.821635 56.499341 101.593439 55.948428 101.187305 55.542294 
C 100.781171 55.13616 100.230258 54.907964 99.655898 54.907964 
C 99.081538 54.907964 98.530625 55.13616 98.124491 55.542294 
C 97.718357 55.948428 97.490161 56.499341 97.490161 57.073701 
C 97.490161 57.648061 97.718357 58.198974 98.124491 58.605108 
C 98.530625 59.011242 99.081538 59.239438 99.655898 59.239438 
z
" clip-path="url(#p2b8d764104)" style="stroke: #000000"/>
    <path d="M 120.867269 155.354869 
C 121.460651 155.354869 122.02981 155.119116 122.449395 154.699531 
C 122.86898 154.279946 123.104733 153.710787 123.104733 153.117405 
C 123.104733 152.524023 122.86898 151.954864 122.449395 151.535279 
C 122.02981 151.115694 121.460651 150.879941 120.867269 150.879941 
C 120.273886 150.879941 119.704728 151.115694 119.285143 151.535279 
C 118.865558 151.954864 118.629805 152.524023 118.629805 153.117405 
C 118.629805 153.710787 118.865558 154.279946 119.285143 154.699531 
C 119.704728 155.119116 120.273886 155.354869 120.867269 155.354869 
z
" clip-path="url(#p2b8d764104)" style="stroke: #000000"/>
    <path d="M 109.541955 132.310436 
C 110.135337 132.310436 110.704496 132.074683 111.124081 131.655098 
C 111.543665 131.235513 111.779419 130.666354 111.779419 130.072972 
C 111.779419 129.479589 111.543665 128.91043 111.124081 128.490846 
C 110.704496 128.071261 110.135337 127.835507 109.541955 127.835507 
C 108.948572 127.835507 108.379413 128.071261 107.959829 128.490846 
C 107.540244 128.91043 107.30449 129.479589 107.30449 130.072972 
C 107.30449 130.666354 107.540244 131.235513 107.959829 131.655098 
C 108.379413 132.074683 108.948572 132.310436 109.541955 132.310436 
z
" clip-path="url(#p2b8d764104)" style="stroke: #000000"/>
    <path d="M 107.628325 121.495159 
C 107.989435 121.495159 108.335803 121.351688 108.591146 121.096345 
C 108.84649 120.841002 108.98996 120.494634 108.98996 120.133524 
C 108.98996 119.772414 108.84649 119.426046 108.591146 119.170703 
C 108.335803 118.91536 107.989435 118.771889 107.628325 118.771889 
C 107.267215 118.771889 106.920847 118.91536 106.665504 119.170703 
C 106.410161 119.426046 106.26669 119.772414 106.26669 120.133524 
C 106.26669 120.494634 106.410161 120.841002 106.665504 121.096345 
C 106.920847 121.351688 107.267215 121.495159 107.628325 121.495159 
z
" clip-path="url(#p2b8d764104)" style="stroke: #000000"/>
    <path d="M 104.962524 111.289432 
C 105.451561 111.289432 105.920634 111.095136 106.266435 110.749334 
C 106.612236 110.403533 106.806532 109.93446 106.806532 109.445423 
C 106.806532 108.956387 106.612236 108.487314 106.266435 108.141512 
C 105.920634 107.795711 105.451561 107.601415 104.962524 107.601415 
C 104.473487 107.601415 104.004414 107.795711 103.658613 108.141512 
C 103.312812 108.487314 103.118515 108.956387 103.118515 109.445423 
C 103.118515 109.93446 103.312812 110.403533 103.658613 110.749334 
C 104.004414 111.095136 104.473487 111.289432 104.962524 111.289432 
z
" clip-path="url(#p2b8d764104)" style="stroke: #000000"/>
    <path d="M 100.059073 102.595577 
C 100.764507 102.595577 101.441144 102.315305 101.939962 101.816487 
C 102.438779 101.31767 102.719051 100.641033 102.719051 99.935598 
C 102.719051 99.230164 102.438779 98.553527 101.939962 98.054709 
C 101.441144 97.555892 100.764507 97.27562 100.059073 97.27562 
C 99.353638 97.27562 98.677001 97.555892 98.178184 98.054709 
C 97.679366 98.553527 97.399094 99.230164 97.399094 99.935598 
C 97.399094 100.641033 97.679366 101.31767 98.178184 101.816487 
C 98.677001 102.315305 99.353638 102.595577 100.059073 102.595577 
z
" clip-path="url(#p2b8d764104)" style="stroke: #000000"/>
    <path d="M 95.010949 95.789075 
C 95.716163 95.789075 96.392588 95.50889 96.89125 95.010228 
C 97.389912 94.511567 97.670097 93.835141 97.670097 93.129927 
C 97.670097 92.424713 97.389912 91.748287 96.89125 91.249625 
C 96.392588 90.750963 95.716163 90.470779 95.010949 90.470779 
C 94.305734 90.470779 93.629309 90.750963 93.130647 91.249625 
C 92.631985 91.748287 92.351801 92.424713 92.351801 93.129927 
C 92.351801 93.835141 92.631985 94.511567 93.130647 95.010228 
C 93.629309 95.50889 94.305734 95.789075 95.010949 95.789075 
z
" clip-path="url(#p2b8d764104)" style="stroke: #000000"/>
    <path d="M 93.267149 84.121168 
C 93.811019 84.121168 94.332687 83.905086 94.717262 83.520512 
C 95.101836 83.135938 95.317918 82.61427 95.317918 82.0704 
C 95.317918 81.52653 95.101836 81.004862 94.717262 80.620287 
C 94.332687 80.235713 93.811019 80.019631 93.267149 80.019631 
C 92.723279 80.019631 92.201611 80.235713 91.817037 80.620287 
C 91.432463 81.004862 91.216381 81.52653 91.216381 82.0704 
C 91.216381 82.61427 91.432463 83.135938 91.817037 83.520512 
C 92.201611 83.905086 92.723279 84.121168 93.267149 84.121168 
z
" clip-path="url(#p2b8d764104)" style="stroke: #000000"/>
    <path d="M 88.960781 75.760859 
C 89.447823 75.760859 89.914983 75.567355 90.259374 75.222965 
C 90.603764 74.878574 90.797268 74.411414 90.797268 73.924372 
C 90.797268 73.43733 90.603764 72.970171 90.259374 72.62578 
C 89.914983 72.281389 89.447823 72.087885 88.960781 72.087885 
C 88.473739 72.087885 88.00658 72.281389 87.662189 72.62578 
C 87.317798 72.970171 87.124294 73.43733 87.124294 73.924372 
C 87.124294 74.411414 87.317798 74.878574 87.662189 75.222965 
C 88.00658 75.567355 88.473739 75.760859 88.960781 75.760859 
z
" clip-path="url(#p2b8d764104)" style="stroke: #000000"/>
    <path d="M 78.647527 52.545122 
C 79.240909 52.545122 79.810068 52.309369 80.229653 51.889784 
C 80.649237 51.4702 80.884991 50.901041 80.884991 50.307658 
C 80.884991 49.714276 80.649237 49.145117 80.229653 48.725532 
C 79.810068 48.305947 79.240909 48.070194 78.647527 48.070194 
C 78.054144 48.070194 77.484985 48.305947 77.0654 48.725532 
C 76.645816 49.145117 76.410062 49.714276 76.410062 50.307658 
C 76.410062 50.901041 76.645816 51.4702 77.0654 51.889784 
C 77.484985 52.309369 78.054144 52.545122 78.647527 52.545122 
z
" clip-path="url(#p2b8d764104)" style="stroke: #000000"/>
    <path d="M 76.978059 41.042864 
C 77.527139 41.042864 78.053804 40.824713 78.442062 40.436455 
C 78.83032 40.048197 79.048471 39.521532 79.048471 38.972452 
C 79.048471 38.423372 78.83032 37.896707 78.442062 37.508449 
C 78.053804 37.120191 77.527139 36.90204 76.978059 36.90204 
C 76.428979 36.90204 75.902314 37.120191 75.514056 37.508449 
C 75.125798 37.896707 74.907647 38.423372 74.907647 38.972452 
C 74.907647 39.521532 75.125798 40.048197 75.514056 40.436455 
C 75.902314 40.824713 76.428979 41.042864 76.978059 41.042864 
z
" clip-path="url(#p2b8d764104)" style="stroke: #000000"/>
    <path d="M 73.207817 31.735281 
C 73.801199 31.735281 74.370358 31.499528 74.789943 31.079943 
C 75.209528 30.660358 75.445281 30.0912 75.445281 29.497817 
C 75.445281 28.904435 75.209528 28.335276 74.789943 27.915691 
C 74.370358 27.496106 73.801199 27.260353 73.207817 27.260353 
C 72.614435 27.260353 72.045276 27.496106 71.625691 27.915691 
C 71.206106 28.335276 70.970353 28.904435 70.970353 29.497817 
C 70.970353 30.0912 71.206106 30.660358 71.625691 31.079943 
C 72.045276 31.499528 72.614435 31.735281 73.207817 31.735281 
z
" clip-path="url(#p2b8d764104)" style="stroke: #000000"/>
    <path d="M 113.24 176.941869 
C 113.692828 176.941869 114.12717 176.761959 114.447368 176.441761 
C 114.767566 176.121563 114.947476 175.687221 114.947476 175.234393 
C 114.947476 174.781564 114.767566 174.347222 114.447368 174.027024 
C 114.12717 173.706827 113.692828 173.526916 113.24 173.526916 
C 112.787172 173.526916 112.352829 173.706827 112.032632 174.027024 
C 111.712434 174.347222 111.532523 174.781564 111.532523 175.234393 
C 111.532523 175.687221 111.712434 176.121563 112.032632 176.441761 
C 112.352829 176.761959 112.787172 176.941869 113.24 176.941869 
z
" clip-path="url(#p2b8d764104)" style="stroke: #000000"/>
    <path d="M 107.945253 157.030669 
C 108.538635 157.030669 109.107794 156.794915 109.527379 156.37533 
C 109.946964 155.955746 110.182717 155.386587 110.182717 154.793204 
C 110.182717 154.199822 109.946964 153.630663 109.527379 153.211078 
C 109.107794 152.791493 108.538635 152.55574 107.945253 152.55574 
C 107.35187 152.55574 106.782711 152.791493 106.363127 153.211078 
C 105.943542 153.630663 105.707789 154.199822 105.707789 154.793204 
C 105.707789 155.386587 105.943542 155.955746 106.363127 156.37533 
C 106.782711 156.794915 107.35187 157.030669 107.945253 157.030669 
z
" clip-path="url(#p2b8d764104)" style="stroke: #000000"/>
    <path d="M 99.61033 140.210995 
C 100.068875 140.210995 100.508702 140.028813 100.832943 139.704572 
C 101.157183 139.380331 101.339366 138.940505 101.339366 138.481959 
C 101.339366 138.023413 101.157183 137.583587 100.832943 137.259346 
C 100.508702 136.935105 100.068875 136.752923 99.61033 136.752923 
C 99.151784 136.752923 98.711957 136.935105 98.387717 137.259346 
C 98.063476 137.583587 97.881294 138.023413 97.881294 138.481959 
C 97.881294 138.940505 98.063476 139.380331 98.387717 139.704572 
C 98.711957 140.028813 99.151784 140.210995 99.61033 140.210995 
z
" clip-path="url(#p2b8d764104)" style="stroke: #000000"/>
    <path d="M 93.808342 129.089191 
C 94.513557 129.089191 95.189982 128.809007 95.688644 128.310345 
C 96.187306 127.811683 96.46749 127.135257 96.46749 126.430043 
C 96.46749 125.724829 96.187306 125.048403 95.688644 124.549742 
C 95.189982 124.05108 94.513557 123.770895 93.808342 123.770895 
C 93.103128 123.770895 92.426703 124.05108 91.928041 124.549742 
C 91.429379 125.048403 91.149194 125.724829 91.149194 126.430043 
C 91.149194 127.135257 91.429379 127.811683 91.928041 128.310345 
C 92.426703 128.809007 93.103128 129.089191 93.808342 129.089191 
z
" clip-path="url(#p2b8d764104)" style="stroke: #000000"/>
    <path d="M 89.325892 120.249435 
C 89.923302 120.249435 90.496325 120.012081 90.918758 119.589648 
C 91.341191 119.167215 91.578545 118.594192 91.578545 117.996782 
C 91.578545 117.399371 91.341191 116.826349 90.918758 116.403916 
C 90.496325 115.981482 89.923302 115.744129 89.325892 115.744129 
C 88.728481 115.744129 88.155459 115.981482 87.733026 116.403916 
C 87.310593 116.826349 87.073239 117.399371 87.073239 117.996782 
C 87.073239 118.594192 87.310593 119.167215 87.733026 119.589648 
C 88.155459 120.012081 88.728481 120.249435 89.325892 120.249435 
z
" clip-path="url(#p2b8d764104)" style="stroke: #000000"/>
    <path d="M 87.849475 110.217194 
C 88.410311 110.217194 88.948253 109.994371 89.344824 109.5978 
C 89.741395 109.201229 89.964218 108.663287 89.964218 108.102451 
C 89.964218 107.541615 89.741395 107.003673 89.344824 106.607102 
C 88.948253 106.210531 88.410311 105.987709 87.849475 105.987709 
C 87.288639 105.987709 86.750697 106.210531 86.354126 106.607102 
C 85.957555 107.003673 85.734732 107.541615 85.734732 108.102451 
C 85.734732 108.663287 85.957555 109.201229 86.354126 109.5978 
C 86.750697 109.994371 87.288639 110.217194 87.849475 110.217194 
z
" clip-path="url(#p2b8d764104)" style="stroke: #000000"/>
    <path d="M 88.687915 97.827048 
C 89.393349 97.827048 90.069986 97.546776 90.568803 97.047958 
C 91.067621 96.54914 91.347893 95.872504 91.347893 95.167069 
C 91.347893 94.461635 91.067621 93.784998 90.568803 93.28618 
C 90.069986 92.787363 89.393349 92.507091 88.687915 92.507091 
C 87.98248 92.507091 87.305843 92.787363 86.807026 93.28618 
C 86.308208 93.784998 86.027936 94.461635 86.027936 95.167069 
C 86.027936 95.872504 86.308208 96.54914 86.807026 97.047958 
C 87.305843 97.546776 87.98248 97.827048 88.687915 97.827048 
z
" clip-path="url(#p2b8d764104)" style="stroke: #000000"/>
    <path d="M 79.866974 68.036096 
C 80.024664 68.036096 80.175918 67.973445 80.287422 67.861941 
C 80.398926 67.750436 80.461577 67.599183 80.461577 67.441492 
C 80.461577 67.283802 80.398926 67.132548 80.287422 67.021044 
C 80.175918 66.90954 80.024664 66.846889 79.866974 66.846889 
C 79.709283 66.846889 79.55803 66.90954 79.446526 67.021044 
C 79.335021 67.132548 79.27237 67.283802 79.27237 67.441492 
C 79.27237 67.599183 79.335021 67.750436 79.446526 67.861941 
C 79.55803 67.973445 79.709283 68.036096 79.866974 68.036096 
z
" clip-path="url(#p2b8d764104)" style="stroke: #000000"/>
    <path d="M 68.777351 48.258344 
C 69.370733 48.258344 69.939892 48.022591 70.359477 47.603006 
C 70.779061 47.183421 71.014815 46.614262 71.014815 46.02088 
C 71.014815 45.427497 70.779061 44.858339 70.359477 44.438754 
C 69.939892 44.019169 69.370733 43.783416 68.777351 43.783416 
C 68.183968 43.783416 67.614809 44.019169 67.195224 44.438754 
C 66.77564 44.858339 66.539886 45.427497 66.539886 46.02088 
C 66.539886 46.614262 66.77564 47.183421 67.195224 47.603006 
C 67.614809 48.022591 68.183968 48.258344 68.777351 48.258344 
z
" clip-path="url(#p2b8d764104)" style="stroke: #000000"/>
    <path d="M 89.382831 155.768382 
C 90.036632 155.768382 90.663743 155.508624 91.12605 155.046317 
C 91.588357 154.58401 91.848115 153.956899 91.848115 153.303098 
C 91.848115 152.649297 91.588357 152.022187 91.12605 151.55988 
C 90.663743 151.097573 90.036632 150.837815 89.382831 150.837815 
C 88.72903 150.837815 88.101919 151.097573 87.639612 151.55988 
C 87.177305 152.022187 86.917547 152.649297 86.917547 153.303098 
C 86.917547 153.956899 87.177305 154.58401 87.639612 155.046317 
C 88.101919 155.508624 88.72903 155.768382 89.382831 155.768382 
z
" clip-path="url(#p2b8d764104)" style="stroke: #000000"/>
    <path d="M 87.937242 133.309973 
C 88.498078 133.309973 89.03602 133.08715 89.432591 132.690579 
C 89.829162 132.294008 90.051985 131.756067 90.051985 131.195231 
C 90.051985 130.634394 89.829162 130.096453 89.432591 129.699882 
C 89.03602 129.303311 88.498078 129.080488 87.937242 129.080488 
C 87.376406 129.080488 86.838464 129.303311 86.441893 129.699882 
C 86.045322 130.096453 85.822499 130.634394 85.822499 131.195231 
C 85.822499 131.756067 86.045322 132.294008 86.441893 132.690579 
C 86.838464 133.08715 87.376406 133.309973 87.937242 133.309973 
z
" clip-path="url(#p2b8d764104)" style="stroke: #000000"/>
    <path d="M 78.618985 122.807377 
C 79.180259 122.807377 79.71862 122.58438 80.115501 122.1875 
C 80.512382 121.790619 80.735378 121.252258 80.735378 120.690984 
C 80.735378 120.12971 80.512382 119.591349 80.115501 119.194468 
C 79.71862 118.797588 79.180259 118.574591 78.618985 118.574591 
C 78.057711 118.574591 77.51935 118.797588 77.12247 119.194468 
C 76.725589 119.591349 76.502593 120.12971 76.502593 120.690984 
C 76.502593 121.252258 76.725589 121.790619 77.12247 122.1875 
C 77.51935 122.58438 78.057711 122.807377 78.618985 122.807377 
z
" clip-path="url(#p2b8d764104)" style="stroke: #000000"/>
    <path d="M 76.464276 111.171315 
C 77.055426 111.171315 77.622444 110.936449 78.040451 110.518442 
C 78.458457 110.100436 78.693323 109.533418 78.693323 108.942268 
C 78.693323 108.351118 78.458457 107.7841 78.040451 107.366093 
C 77.622444 106.948087 77.055426 106.713221 76.464276 106.713221 
C 75.873126 106.713221 75.306108 106.948087 74.888102 107.366093 
C 74.470095 107.7841 74.235229 108.351118 74.235229 108.942268 
C 74.235229 109.533418 74.470095 110.100436 74.888102 110.518442 
C 75.306108 110.936449 75.873126 111.171315 76.464276 111.171315 
z
" clip-path="url(#p2b8d764104)" style="stroke: #000000"/>
    <path d="M 76.488574 104.877097 
C 77.049848 104.877097 77.588209 104.654101 77.98509 104.25722 
C 78.381971 103.86034 78.604967 103.321979 78.604967 102.760705 
C 78.604967 102.199431 78.381971 101.66107 77.98509 101.264189 
C 77.588209 100.867308 77.049848 100.644312 76.488574 100.644312 
C 75.9273 100.644312 75.388939 100.867308 74.992059 101.264189 
C 74.595178 101.66107 74.372182 102.199431 74.372182 102.760705 
C 74.372182 103.321979 74.595178 103.86034 74.992059 104.25722 
C 75.388939 104.654101 75.9273 104.877097 76.488574 104.877097 
z
" clip-path="url(#p2b8d764104)" style="stroke: #000000"/>
    <path d="M 71.933478 90.030431 
C 72.638692 90.030431 73.315118 89.750246 73.813779 89.251584 
C 74.312441 88.752922 74.592626 88.076497 74.592626 87.371283 
C 74.592626 86.666068 74.312441 85.989643 73.813779 85.490981 
C 73.315118 84.992319 72.638692 84.712135 71.933478 84.712135 
C 71.228264 84.712135 70.551838 84.992319 70.053176 85.490981 
C 69.554514 85.989643 69.27433 86.666068 69.27433 87.371283 
C 69.27433 88.076497 69.554514 88.752922 70.053176 89.251584 
C 70.551838 89.750246 71.228264 90.030431 71.933478 90.030431 
z
" clip-path="url(#p2b8d764104)" style="stroke: #000000"/>
    <path d="M 64.228764 81.638104 
C 64.7896 81.638104 65.327541 81.415282 65.724112 81.01871 
C 66.120684 80.622139 66.343506 80.084198 66.343506 79.523362 
C 66.343506 78.962525 66.120684 78.424584 65.724112 78.028013 
C 65.327541 77.631442 64.7896 77.408619 64.228764 77.408619 
C 63.667927 77.408619 63.129986 77.631442 62.733415 78.028013 
C 62.336844 78.424584 62.114021 78.962525 62.114021 79.523362 
C 62.114021 80.084198 62.336844 80.622139 62.733415 81.01871 
C 63.129986 81.415282 63.667927 81.638104 64.228764 81.638104 
z
" clip-path="url(#p2b8d764104)" style="stroke: #000000"/>
    <path d="M 54.148526 39.383799 
C 54.715822 39.383799 55.259959 39.15841 55.661098 38.757271 
C 56.062237 38.356132 56.287626 37.811995 56.287626 37.244699 
C 56.287626 36.677403 56.062237 36.133265 55.661098 35.732126 
C 55.259959 35.330987 54.715822 35.105598 54.148526 35.105598 
C 53.58123 35.105598 53.037092 35.330987 52.635953 35.732126 
C 52.234814 36.133265 52.009425 36.677403 52.009425 37.244699 
C 52.009425 37.811995 52.234814 38.356132 52.635953 38.757271 
C 53.037092 39.15841 53.58123 39.383799 54.148526 39.383799 
z
" clip-path="url(#p2b8d764104)" style="stroke: #000000"/>
    <path d="M 89.612146 177.479702 
C 90.205529 177.479702 90.774687 177.243948 91.194272 176.824364 
C 91.613857 176.404779 91.84961 175.83562 91.84961 175.242238 
C 91.84961 174.648855 91.613857 174.079696 91.194272 173.660111 
C 90.774687 173.240527 90.205529 173.004773 89.612146 173.004773 
C 89.018764 173.004773 88.449605 173.240527 88.03002 173.660111 
C 87.610435 174.079696 87.374682 174.648855 87.374682 175.242238 
C 87.374682 175.83562 87.610435 176.404779 88.03002 176.824364 
C 88.449605 177.243948 89.018764 177.479702 89.612146 177.479702 
z
" clip-path="url(#p2b8d764104)" style="stroke: #000000"/>
    <path d="M 84.722553 166.437464 
C 85.310307 166.437464 85.874067 166.203946 86.289671 165.788342 
C 86.705276 165.372737 86.938793 164.808977 86.938793 164.221223 
C 86.938793 163.63347 86.705276 163.06971 86.289671 162.654105 
C 85.874067 162.2385 85.310307 162.004983 84.722553 162.004983 
C 84.134799 162.004983 83.571039 162.2385 83.155434 162.654105 
C 82.73983 163.06971 82.506313 163.63347 82.506313 164.221223 
C 82.506313 164.808977 82.73983 165.372737 83.155434 165.788342 
C 83.571039 166.203946 84.134799 166.437464 84.722553 166.437464 
z
" clip-path="url(#p2b8d764104)" style="stroke: #000000"/>
    <path d="M 72.616074 135.739271 
C 73.176911 135.739271 73.714852 135.516448 74.111423 135.119877 
C 74.507994 134.723306 74.730817 134.185365 74.730817 133.624528 
C 74.730817 133.063692 74.507994 132.525751 74.111423 132.12918 
C 73.714852 131.732609 73.176911 131.509786 72.616074 131.509786 
C 72.055238 131.509786 71.517297 131.732609 71.120726 132.12918 
C 70.724155 132.525751 70.501332 133.063692 70.501332 133.624528 
C 70.501332 134.185365 70.724155 134.723306 71.120726 135.119877 
C 71.517297 135.516448 72.055238 135.739271 72.616074 135.739271 
z
" clip-path="url(#p2b8d764104)" style="stroke: #000000"/>
    <path d="M 67.07251 105.851636 
C 67.665522 105.851636 68.234326 105.61603 68.653649 105.196707 
C 69.072971 104.777384 69.308578 104.20858 69.308578 103.615568 
C 69.308578 103.022556 69.072971 102.453752 68.653649 102.034429 
C 68.234326 101.615106 67.665522 101.3795 67.07251 101.3795 
C 66.479498 101.3795 65.910694 101.615106 65.491371 102.034429 
C 65.072048 102.453752 64.836442 103.022556 64.836442 103.615568 
C 64.836442 104.20858 65.072048 104.777384 65.491371 105.196707 
C 65.910694 105.61603 66.479498 105.851636 67.07251 105.851636 
z
" clip-path="url(#p2b8d764104)" style="stroke: #000000"/>
    <path d="M 57.287197 88.48982 
C 57.992632 88.48982 58.669268 88.209548 59.168086 87.710731 
C 59.666903 87.211913 59.947176 86.535276 59.947176 85.829842 
C 59.947176 85.124407 59.666903 84.447771 59.168086 83.948953 
C 58.669268 83.450136 57.992632 83.169863 57.287197 83.169863 
C 56.581762 83.169863 55.905126 83.450136 55.406308 83.948953 
C 54.907491 84.447771 54.627218 85.124407 54.627218 85.829842 
C 54.627218 86.535276 54.907491 87.211913 55.406308 87.710731 
C 55.905126 88.209548 56.581762 88.48982 57.287197 88.48982 
z
" clip-path="url(#p2b8d764104)" style="stroke: #000000"/>
    <path d="M 49.836179 56.485007 
C 50.429561 56.485007 50.99872 56.249253 51.418305 55.829669 
C 51.83789 55.410084 52.073643 54.840925 52.073643 54.247543 
C 52.073643 53.65416 51.83789 53.085001 51.418305 52.665417 
C 50.99872 52.245832 50.429561 52.010078 49.836179 52.010078 
C 49.242797 52.010078 48.673638 52.245832 48.254053 52.665417 
C 47.834468 53.085001 47.598715 53.65416 47.598715 54.247543 
C 47.598715 54.840925 47.834468 55.410084 48.254053 55.829669 
C 48.673638 56.249253 49.242797 56.485007 49.836179 56.485007 
z
" clip-path="url(#p2b8d764104)" style="stroke: #000000"/>
    <path d="M 44.705631 41.948602 
C 45.266905 41.948602 45.805266 41.725606 46.202147 41.328725 
C 46.599027 40.931844 46.822024 40.393483 46.822024 39.832209 
C 46.822024 39.270935 46.599027 38.732574 46.202147 38.335694 
C 45.805266 37.938813 45.266905 37.715817 44.705631 37.715817 
C 44.144357 37.715817 43.605996 37.938813 43.209115 38.335694 
C 42.812235 38.732574 42.589238 39.270935 42.589238 39.832209 
C 42.589238 40.393483 42.812235 40.931844 43.209115 41.328725 
C 43.605996 41.725606 44.144357 41.948602 44.705631 41.948602 
z
" clip-path="url(#p2b8d764104)" style="stroke: #000000"/>
    <path d="M 68.02785 162.919565 
C 68.621232 162.919565 69.190391 162.683811 69.609976 162.264227 
C 70.02956 161.844642 70.265314 161.275483 70.265314 160.6821 
C 70.265314 160.088718 70.02956 159.519559 69.609976 159.099974 
C 69.190391 158.68039 68.621232 158.444636 68.02785 158.444636 
C 67.434467 158.444636 66.865308 158.68039 66.445724 159.099974 
C 66.026139 159.519559 65.790385 160.088718 65.790385 160.6821 
C 65.790385 161.275483 66.026139 161.844642 66.445724 162.264227 
C 66.865308 162.683811 67.434467 162.919565 68.02785 162.919565 
z
" clip-path="url(#p2b8d764104)" style="stroke: #000000"/>
    <path d="M 67.370581 152.023803 
C 67.963593 152.023803 68.532397 151.788197 68.95172 151.368874 
C 69.371043 150.949551 69.606649 150.380747 69.606649 149.787735 
C 69.606649 149.194723 69.371043 148.625919 68.95172 148.206596 
C 68.532397 147.787273 67.963593 147.551667 67.370581 147.551667 
C 66.777569 147.551667 66.208765 147.787273 65.789442 148.206596 
C 65.370119 148.625919 65.134513 149.194723 65.134513 149.787735 
C 65.134513 150.380747 65.370119 150.949551 65.789442 151.368874 
C 66.208765 151.788197 66.777569 152.023803 67.370581 152.023803 
z
" clip-path="url(#p2b8d764104)" style="stroke: #000000"/>
    <path d="M 64.656978 137.740871 
C 65.217814 137.740871 65.755755 137.518049 66.152327 137.121478 
C 66.548898 136.724906 66.77172 136.186965 66.77172 135.626129 
C 66.77172 135.065293 66.548898 134.527351 66.152327 134.13078 
C 65.755755 133.734209 65.217814 133.511386 64.656978 133.511386 
C 64.096141 133.511386 63.5582 133.734209 63.161629 134.13078 
C 62.765058 134.527351 62.542235 135.065293 62.542235 135.626129 
C 62.542235 136.186965 62.765058 136.724906 63.161629 137.121478 
C 63.5582 137.518049 64.096141 137.740871 64.656978 137.740871 
z
" clip-path="url(#p2b8d764104)" style="stroke: #000000"/>
    <path d="M 57.681088 132.928071 
C 58.386523 132.928071 59.06316 132.647799 59.561977 132.148981 
C 60.060795 131.650164 60.341067 130.973527 60.341067 130.268092 
C 60.341067 129.562658 60.060795 128.886021 59.561977 128.387203 
C 59.06316 127.888386 58.386523 127.608114 57.681088 127.608114 
C 56.975654 127.608114 56.299017 127.888386 55.800199 128.387203 
C 55.301382 128.886021 55.02111 129.562658 55.02111 130.268092 
C 55.02111 130.973527 55.301382 131.650164 55.800199 132.148981 
C 56.299017 132.647799 56.975654 132.928071 57.681088 132.928071 
z
" clip-path="url(#p2b8d764104)" style="stroke: #000000"/>
    <path d="M 59.792903 121.833023 
C 60.498338 121.833023 61.174974 121.552751 61.673792 121.053933 
C 62.172609 120.555116 62.452882 119.878479 62.452882 119.173044 
C 62.452882 118.46761 62.172609 117.790973 61.673792 117.292156 
C 61.174974 116.793338 60.498338 116.513066 59.792903 116.513066 
C 59.087468 116.513066 58.410832 116.793338 57.912014 117.292156 
C 57.413197 117.790973 57.132924 118.46761 57.132924 119.173044 
C 57.132924 119.878479 57.413197 120.555116 57.912014 121.053933 
C 58.410832 121.552751 59.087468 121.833023 59.792903 121.833023 
z
" clip-path="url(#p2b8d764104)" style="stroke: #000000"/>
    <path d="M 53.433592 111.336859 
C 54.138806 111.336859 54.815231 111.056674 55.313893 110.558013 
C 55.812555 110.059351 56.09274 109.382925 56.09274 108.677711 
C 56.09274 107.972497 55.812555 107.296071 55.313893 106.797409 
C 54.815231 106.298748 54.138806 106.018563 53.433592 106.018563 
C 52.728377 106.018563 52.051952 106.298748 51.55329 106.797409 
C 51.054628 107.296071 50.774444 107.972497 50.774444 108.677711 
C 50.774444 109.382925 51.054628 110.059351 51.55329 110.558013 
C 52.051952 111.056674 52.728377 111.336859 53.433592 111.336859 
z
" clip-path="url(#p2b8d764104)" style="stroke: #000000"/>
    <path d="M 47.645284 90.93999 
C 48.350719 90.93999 49.027355 90.659718 49.526173 90.1609 
C 50.02499 89.662083 50.305263 88.985446 50.305263 88.280011 
C 50.305263 87.574577 50.02499 86.89794 49.526173 86.399122 
C 49.027355 85.900305 48.350719 85.620033 47.645284 85.620033 
C 46.939849 85.620033 46.263213 85.900305 45.764395 86.399122 
C 45.265578 86.89794 44.985305 87.574577 44.985305 88.280011 
C 44.985305 88.985446 45.265578 89.662083 45.764395 90.1609 
C 46.263213 90.659718 46.939849 90.93999 47.645284 90.93999 
z
" clip-path="url(#p2b8d764104)" style="stroke: #000000"/>
    <path d="M 38.70288 78.088102 
C 39.295892 78.088102 39.864696 77.852496 40.284019 77.433173 
C 40.703341 77.01385 40.938948 76.445046 40.938948 75.852034 
C 40.938948 75.259022 40.703341 74.690218 40.284019 74.270895 
C 39.864696 73.851572 39.295892 73.615966 38.70288 73.615966 
C 38.109868 73.615966 37.541064 73.851572 37.121741 74.270895 
C 36.702418 74.690218 36.466812 75.259022 36.466812 75.852034 
C 36.466812 76.445046 36.702418 77.01385 37.121741 77.433173 
C 37.541064 77.852496 38.109868 78.088102 38.70288 78.088102 
z
" clip-path="url(#p2b8d764104)" style="stroke: #000000"/>
    <path d="M 62.366131 166.035981 
C 62.959514 166.035981 63.528673 165.800228 63.948258 165.380643 
C 64.367842 164.961058 64.603596 164.391899 64.603596 163.798517 
C 64.603596 163.205134 64.367842 162.635975 63.948258 162.216391 
C 63.528673 161.796806 62.959514 161.561052 62.366131 161.561052 
C 61.772749 161.561052 61.20359 161.796806 60.784005 162.216391 
C 60.364421 162.635975 60.128667 163.205134 60.128667 163.798517 
C 60.128667 164.391899 60.364421 164.961058 60.784005 165.380643 
C 61.20359 165.800228 61.772749 166.035981 62.366131 166.035981 
z
" clip-path="url(#p2b8d764104)" style="stroke: #000000"/>
    <path d="M 56.017739 143.538383 
C 56.722953 143.538383 57.399379 143.258199 57.898041 142.759537 
C 58.396702 142.260875 58.676887 141.58445 58.676887 140.879235 
C 58.676887 140.174021 58.396702 139.497596 57.898041 138.998934 
C 57.399379 138.500272 56.722953 138.220087 56.017739 138.220087 
C 55.312525 138.220087 54.636099 138.500272 54.137438 138.998934 
C 53.638776 139.497596 53.358591 140.174021 53.358591 140.879235 
C 53.358591 141.58445 53.638776 142.260875 54.137438 142.759537 
C 54.636099 143.258199 55.312525 143.538383 56.017739 143.538383 
z
" clip-path="url(#p2b8d764104)" style="stroke: #000000"/>
    <path d="M 50.831674 129.867839 
C 51.537109 129.867839 52.213746 129.587567 52.712563 129.088749 
C 53.211381 128.589931 53.491653 127.913295 53.491653 127.20786 
C 53.491653 126.502426 53.211381 125.825789 52.712563 125.326971 
C 52.213746 124.828154 51.537109 124.547882 50.831674 124.547882 
C 50.12624 124.547882 49.449603 124.828154 48.950786 125.326971 
C 48.451968 125.825789 48.171696 126.502426 48.171696 127.20786 
C 48.171696 127.913295 48.451968 128.589931 48.950786 129.088749 
C 49.449603 129.587567 50.12624 129.867839 50.831674 129.867839 
z
" clip-path="url(#p2b8d764104)" style="stroke: #000000"/>
    <path d="M 51.638802 125.168106 
C 52.344016 125.168106 53.020442 124.887922 53.519104 124.38926 
C 54.017765 123.890598 54.29795 123.214173 54.29795 122.508958 
C 54.29795 121.803744 54.017765 121.127319 53.519104 120.628657 
C 53.020442 120.129995 52.344016 119.84981 51.638802 119.84981 
C 50.933588 119.84981 50.257162 120.129995 49.7585 120.628657 
C 49.259839 121.127319 48.979654 121.803744 48.979654 122.508958 
C 48.979654 123.214173 49.259839 123.890598 49.7585 124.38926 
C 50.257162 124.887922 50.933588 125.168106 51.638802 125.168106 
z
" clip-path="url(#p2b8d764104)" style="stroke: #000000"/>
    <path d="M 41.107961 112.63767 
C 41.813395 112.63767 42.490032 112.357398 42.988849 111.85858 
C 43.487667 111.359763 43.767939 110.683126 43.767939 109.977691 
C 43.767939 109.272257 43.487667 108.59562 42.988849 108.096803 
C 42.490032 107.597985 41.813395 107.317713 41.107961 107.317713 
C 40.402526 107.317713 39.725889 107.597985 39.227072 108.096803 
C 38.728254 108.59562 38.447982 109.272257 38.447982 109.977691 
C 38.447982 110.683126 38.728254 111.359763 39.227072 111.85858 
C 39.725889 112.357398 40.402526 112.63767 41.107961 112.63767 
z
" clip-path="url(#p2b8d764104)" style="stroke: #000000"/>
    <path d="M 39.048288 90.794047 
C 39.753503 90.794047 40.429928 90.513863 40.92859 90.015201 
C 41.427252 89.516539 41.707436 88.840114 41.707436 88.134899 
C 41.707436 87.429685 41.427252 86.75326 40.92859 86.254598 
C 40.429928 85.755936 39.753503 85.475751 39.048288 85.475751 
C 38.343074 85.475751 37.666649 85.755936 37.167987 86.254598 
C 36.669325 86.75326 36.389141 87.429685 36.389141 88.134899 
C 36.389141 88.840114 36.669325 89.516539 37.167987 90.015201 
C 37.666649 90.513863 38.343074 90.794047 39.048288 90.794047 
z
" clip-path="url(#p2b8d764104)" style="stroke: #000000"/>
    <path d="M 56.162004 176.674197 
C 56.712942 176.674197 57.241389 176.455307 57.630961 176.065735 
C 58.020533 175.676163 58.239423 175.147716 58.239423 174.596778 
C 58.239423 174.04584 58.020533 173.517393 57.630961 173.127821 
C 57.241389 172.738249 56.712942 172.519359 56.162004 172.519359 
C 55.611066 172.519359 55.082619 172.738249 54.693047 173.127821 
C 54.303475 173.517393 54.084585 174.04584 54.084585 174.596778 
C 54.084585 175.147716 54.303475 175.676163 54.693047 176.065735 
C 55.082619 176.455307 55.611066 176.674197 56.162004 176.674197 
z
" clip-path="url(#p2b8d764104)" style="stroke: #000000"/>
    <path d="M 47.106434 157.853277 
C 47.688784 157.853277 48.247361 157.621907 48.659145 157.210123 
C 49.070929 156.798339 49.302299 156.239762 49.302299 155.657412 
C 49.302299 155.075062 49.070929 154.516484 48.659145 154.1047 
C 48.247361 153.692917 47.688784 153.461546 47.106434 153.461546 
C 46.524083 153.461546 45.965506 153.692917 45.553722 154.1047 
C 45.141939 154.516484 44.910568 155.075062 44.910568 155.657412 
C 44.910568 156.239762 45.141939 156.798339 45.553722 157.210123 
C 45.965506 157.621907 46.524083 157.853277 47.106434 157.853277 
z
" clip-path="url(#p2b8d764104)" style="stroke: #000000"/>
    <path d="M 34.885801 137.514192 
C 35.478813 137.514192 36.047617 137.278585 36.46694 136.859262 
C 36.886263 136.43994 37.121869 135.871136 37.121869 135.278124 
C 37.121869 134.685111 36.886263 134.116308 36.46694 133.696985 
C 36.047617 133.277662 35.478813 133.042056 34.885801 133.042056 
C 34.292789 133.042056 33.723985 133.277662 33.304662 133.696985 
C 32.88534 134.116308 32.649733 134.685111 32.649733 135.278124 
C 32.649733 135.871136 32.88534 136.43994 33.304662 136.859262 
C 33.723985 137.278585 34.292789 137.514192 34.885801 137.514192 
z
" clip-path="url(#p2b8d764104)" style="stroke: #000000"/>
    <path d="M 38.313824 127.046436 
C 39.019039 127.046436 39.695464 126.766252 40.194126 126.26759 
C 40.692788 125.768928 40.972972 125.092503 40.972972 124.387288 
C 40.972972 123.682074 40.692788 123.005649 40.194126 122.506987 
C 39.695464 122.008325 39.019039 121.728141 38.313824 121.728141 
C 37.60861 121.728141 36.932185 122.008325 36.433523 122.506987 
C 35.934861 123.005649 35.654676 123.682074 35.654676 124.387288 
C 35.654676 125.092503 35.934861 125.768928 36.433523 126.26759 
C 36.932185 126.766252 37.60861 127.046436 38.313824 127.046436 
z
" clip-path="url(#p2b8d764104)" style="stroke: #000000"/>
    <path d="M 32.853914 149.077898 
C 33.447297 149.077898 34.016456 148.842145 34.43604 148.42256 
C 34.855625 148.002975 35.091378 147.433817 35.091378 146.840434 
C 35.091378 146.247052 34.855625 145.677893 34.43604 145.258308 
C 34.016456 144.838723 33.447297 144.60297 32.853914 144.60297 
C 32.260532 144.60297 31.691373 144.838723 31.271788 145.258308 
C 30.852203 145.677893 30.61645 146.247052 30.61645 146.840434 
C 30.61645 147.433817 30.852203 148.002975 31.271788 148.42256 
C 31.691373 148.842145 32.260532 149.077898 32.853914 149.077898 
z
" clip-path="url(#p2b8d764104)" style="stroke: #000000"/>
   </g>
   <g id="matplotlib.axis_1">
    <g id="xtick_1">
     <g id="line2d_1">
      <defs>
       <path id="m0d3a6f1336" d="M 0 0 
L 0 3.5 
" style="stroke: #000000; stroke-width: 0.8"/>
      </defs>
      <g>
       <use xlink:href="#m0d3a6f1336" x="18" y="189" style="stroke: #000000; stroke-width: 0.8"/>
      </g>
     </g>
     <g id="text_1">
      <!-- −10 -->
      <g transform="translate(7.447656 203.598437)scale(0.1 -0.1)">
       <defs>
        <path id="DejaVuSans-2212" d="M 678 2272 
L 4684 2272 
L 4684 1741 
L 678 1741 
L 678 2272 
z
" transform="scale(0.015625)"/>
        <path id="DejaVuSans-31" d="M 794 531 
L 1825 531 
L 1825 4091 
L 703 3866 
L 703 4441 
L 1819 4666 
L 2450 4666 
L 2450 531 
L 3481 531 
L 3481 0 
L 794 0 
L 794 531 
z
" transform="scale(0.015625)"/>
        <path id="DejaVuSans-30" d="M 2034 4250 
Q 1547 4250 1301 3770 
Q 1056 3291 1056 2328 
Q 1056 1369 1301 889 
Q 1547 409 2034 409 
Q 2525 409 2770 889 
Q 3016 1369 3016 2328 
Q 3016 3291 2770 3770 
Q 2525 4250 2034 4250 
z
M 2034 4750 
Q 2819 4750 3233 4129 
Q 3647 3509 3647 2328 
Q 3647 1150 3233 529 
Q 2819 -91 2034 -91 
Q 1250 -91 836 529 
Q 422 1150 422 2328 
Q 422 3509 836 4129 
Q 1250 4750 2034 4750 
z
" transform="scale(0.015625)"/>
       </defs>
       <use xlink:href="#DejaVuSans-2212"/>
       <use xlink:href="#DejaVuSans-31" x="83.789062"/>
       <use xlink:href="#DejaVuSans-30" x="147.412109"/>
      </g>
     </g>
    </g>
    <g id="xtick_2">
     <g id="line2d_2">
      <g>
       <use xlink:href="#m0d3a6f1336" x="73.8" y="189" style="stroke: #000000; stroke-width: 0.8"/>
      </g>
     </g>
     <g id="text_2">
      <!-- 0 -->
      <g transform="translate(70.61875 203.598437)scale(0.1 -0.1)">
       <use xlink:href="#DejaVuSans-30"/>
      </g>
     </g>
    </g>
    <g id="xtick_3">
     <g id="line2d_3">
      <g>
       <use xlink:href="#m0d3a6f1336" x="129.6" y="189" style="stroke: #000000; stroke-width: 0.8"/>
      </g>
     </g>
     <g id="text_3">
      <!-- 10 -->
      <g transform="translate(123.2375 203.598437)scale(0.1 -0.1)">
       <use xlink:href="#DejaVuSans-31"/>
       <use xlink:href="#DejaVuSans-30" x="63.623047"/>
      </g>
     </g>
    </g>
   </g>
   <g id="matplotlib.axis_2">
    <g id="ytick_1">
     <g id="line2d_4">
      <defs>
       <path id="m1103e86288" d="M 0 0 
L -3.5 0 
" style="stroke: #000000; stroke-width: 0.8"/>
      </defs>
      <g>
       <use xlink:href="#m1103e86288" x="18" y="189" style="stroke: #000000; stroke-width: 0.8"/>
      </g>
     </g>
     <g id="text_4">
      <!-- −15 -->
      <g transform="translate(-10.104688 192.799219)scale(0.1 -0.1)">
       <defs>
        <path id="DejaVuSans-35" d="M 691 4666 
L 3169 4666 
L 3169 4134 
L 1269 4134 
L 1269 2991 
Q 1406 3038 1543 3061 
Q 1681 3084 1819 3084 
Q 2600 3084 3056 2656 
Q 3513 2228 3513 1497 
Q 3513 744 3044 326 
Q 2575 -91 1722 -91 
Q 1428 -91 1123 -41 
Q 819 9 494 109 
L 494 744 
Q 775 591 1075 516 
Q 1375 441 1709 441 
Q 2250 441 2565 725 
Q 2881 1009 2881 1497 
Q 2881 1984 2565 2268 
Q 2250 2553 1709 2553 
Q 1456 2553 1204 2497 
Q 953 2441 691 2322 
L 691 4666 
z
" transform="scale(0.015625)"/>
       </defs>
       <use xlink:href="#DejaVuSans-2212"/>
       <use xlink:href="#DejaVuSans-31" x="83.789062"/>
       <use xlink:href="#DejaVuSans-35" x="147.412109"/>
      </g>
     </g>
    </g>
    <g id="ytick_2">
     <g id="line2d_5">
      <g>
       <use xlink:href="#m1103e86288" x="18" y="161.82" style="stroke: #000000; stroke-width: 0.8"/>
      </g>
     </g>
     <g id="text_5">
      <!-- −10 -->
      <g transform="translate(-10.104688 165.619219)scale(0.1 -0.1)">
       <use xlink:href="#DejaVuSans-2212"/>
       <use xlink:href="#DejaVuSans-31" x="83.789062"/>
       <use xlink:href="#DejaVuSans-30" x="147.412109"/>
      </g>
     </g>
    </g>
    <g id="ytick_3">
     <g id="line2d_6">
      <g>
       <use xlink:href="#m1103e86288" x="18" y="134.64" style="stroke: #000000; stroke-width: 0.8"/>
      </g>
     </g>
     <g id="text_6">
      <!-- −5 -->
      <g transform="translate(-3.742188 138.439219)scale(0.1 -0.1)">
       <use xlink:href="#DejaVuSans-2212"/>
       <use xlink:href="#DejaVuSans-35" x="83.789062"/>
      </g>
     </g>
    </g>
    <g id="ytick_4">
     <g id="line2d_7">
      <g>
       <use xlink:href="#m1103e86288" x="18" y="107.46" style="stroke: #000000; stroke-width: 0.8"/>
      </g>
     </g>
     <g id="text_7">
      <!-- 0 -->
      <g transform="translate(4.6375 111.259219)scale(0.1 -0.1)">
       <use xlink:href="#DejaVuSans-30"/>
      </g>
     </g>
    </g>
    <g id="ytick_5">
     <g id="line2d_8">
      <g>
       <use xlink:href="#m1103e86288" x="18" y="80.28" style="stroke: #000000; stroke-width: 0.8"/>
      </g>
     </g>
     <g id="text_8">
      <!-- 5 -->
      <g transform="translate(4.6375 84.079219)scale(0.1 -0.1)">
       <use xlink:href="#DejaVuSans-35"/>
      </g>
     </g>
    </g>
    <g id="ytick_6">
     <g id="line2d_9">
      <g>
       <use xlink:href="#m1103e86288" x="18" y="53.1" style="stroke: #000000; stroke-width: 0.8"/>
      </g>
     </g>
     <g id="text_9">
      <!-- 10 -->
      <g transform="translate(-1.725 56.899219)scale(0.1 -0.1)">
       <use xlink:href="#DejaVuSans-31"/>
       <use xlink:href="#DejaVuSans-30" x="63.623047"/>
      </g>
     </g>
    </g>
    <g id="ytick_7">
     <g id="line2d_10">
      <g>
       <use xlink:href="#m1103e86288" x="18" y="25.92" style="stroke: #000000; stroke-width: 0.8"/>
      </g>
     </g>
     <g id="text_10">
      <!-- 15 -->
      <g transform="translate(-1.725 29.719219)scale(0.1 -0.1)">
       <use xlink:href="#DejaVuSans-31"/>
       <use xlink:href="#DejaVuSans-35" x="63.623047"/>
      </g>
     </g>
    </g>
   </g>
   <g id="patch_3">
    <path d="M 18 189 
L 18 25.92 
" style="fill: none; stroke: #000000; stroke-width: 0.8; stroke-linejoin: miter; stroke-linecap: square"/>
   </g>
   <g id="patch_4">
    <path d="M 129.6 189 
L 129.6 25.92 
" style="fill: none; stroke: #000000; stroke-width: 0.8; stroke-linejoin: miter; stroke-linecap: square"/>
   </g>
   <g id="patch_5">
    <path d="M 18 189 
L 129.6 189 
" style="fill: none; stroke: #000000; stroke-width: 0.8; stroke-linejoin: miter; stroke-linecap: square"/>
   </g>
   <g id="patch_6">
    <path d="M 18 25.92 
L 129.6 25.92 
" style="fill: none; stroke: #000000; stroke-width: 0.8; stroke-linejoin: miter; stroke-linecap: square"/>
   </g>
  </g>
 </g>
 <defs>
  <clipPath id="p2b8d764104">
   <rect x="18" y="25.92" width="111.6" height="163.08"/>
  </clipPath>
 </defs>
</svg>
