<?xml version="1.0" encoding="utf-8" standalone="no"?>
<!DOCTYPE svg PUBLIC "-//W3C//DTD SVG 1.1//EN"
  "http://www.w3.org/Graphics/SVG/1.1/DTD/svg11.dtd">
<svg xmlns:xlink="http://www.w3.org/1999/xlink" width="144pt" height="216pt" viewBox="0 0 144 216" xmlns="http://www.w3.org/2000/svg" version="1.1">
 <metadata>
  <rdf:RDF xmlns:dc="http://purl.org/dc/elements/1.1/" xmlns:cc="http://creativecommons.org/ns#" xmlns:rdf="http://www.w3.org/1999/02/22-rdf-syntax-ns#">
   <cc:Work>
    <dc:type rdf:resource="http://purl.org/dc/dcmitype/StillImage"/>
    <dc:date>2022-06-23T14:52:02.642204</dc:date>
    <dc:format>image/svg+xml</dc:format>
    <dc:creator>
     <cc:Agent>
      <dc:title>Matplotlib v3.5.1, https://matplotlib.org/</dc:title>
     </cc:Agent>
    </dc:creator>
   </cc:Work>
  </rdf:RDF>
 </metadata>
 <defs>
  <style type="text/css">*{stroke-linejoin: round; stroke-linecap: butt}</style>
 </defs>
 <g id="figure_1">
  <g id="patch_1">
   <path d="M 0 216 
L 144 216 
L 144 0 
L 0 0 
L 0 216 
z
" style="fill: none"/>
  </g>
  <g id="axes_1">
   <g id="patch_2">
    <path d="M 18 189 
L 129.6 189 
L 129.6 25.92 
L 18 25.92 
z
" style="fill: #ffffff"/>
   </g>
   <g id="PathCollection_1">
    <defs>
     <path id="ma1fd0df920" d="M 0 2.738613 
C 0.726289 2.738613 1.422928 2.450055 1.936492 1.936492 
C 2.450055 1.422928 2.738613 0.726289 2.738613 0 
C 2.738613 -0.726289 2.450055 -1.422928 1.936492 -1.936492 
C 1.422928 -2.450055 0.726289 -2.738613 0 -2.738613 
C -0.726289 -2.738613 -1.422928 -2.450055 -1.936492 -1.936492 
C -2.450055 -1.422928 -2.738613 -0.726289 -2.738613 0 
C -2.738613 0.726289 -2.450055 1.422928 -1.936492 1.936492 
C -1.422928 2.450055 -0.726289 2.738613 0 2.738613 
z
" style="stroke: #ff0000; stroke-width: 1.75"/>
    </defs>
    <g clip-path="url(#p71fa08f2c1)">
     <use xlink:href="#ma1fd0df920" x="80.775" y="107.46" style="fill: #ff0000; stroke: #ff0000; stroke-width: 1.75"/>
     <use xlink:href="#ma1fd0df920" x="94.725" y="107.46" style="fill: #ff0000; stroke: #ff0000; stroke-width: 1.75"/>
     <use xlink:href="#ma1fd0df920" x="59.85" y="119.229285" style="fill: #ff0000; stroke: #ff0000; stroke-width: 1.75"/>
     <use xlink:href="#ma1fd0df920" x="73.8" y="119.229285" style="fill: #ff0000; stroke: #ff0000; stroke-width: 1.75"/>
     <use xlink:href="#ma1fd0df920" x="87.75" y="119.229285" style="fill: #ff0000; stroke: #ff0000; stroke-width: 1.75"/>
     <use xlink:href="#ma1fd0df920" x="66.825" y="130.99857" style="fill: #ff0000; stroke: #ff0000; stroke-width: 1.75"/>
     <use xlink:href="#ma1fd0df920" x="80.775" y="130.99857" style="fill: #ff0000; stroke: #ff0000; stroke-width: 1.75"/>
    </g>
   </g>
   <g id="PathCollection_2">
    <defs>
     <path id="C0_0_9b6a061c78" d="M 0 2.738613 
C 0.726289 2.738613 1.422928 2.450055 1.936492 1.936492 
C 2.450055 1.422928 2.738613 0.726289 2.738613 -0 
C 2.738613 -0.726289 2.450055 -1.422928 1.936492 -1.936492 
C 1.422928 -2.450055 0.726289 -2.738613 0 -2.738613 
C -0.726289 -2.738613 -1.422928 -2.450055 -1.936492 -1.936492 
C -2.450055 -1.422928 -2.738613 -0.726289 -2.738613 0 
C -2.738613 0.726289 -2.450055 1.422928 -1.936492 1.936492 
C -1.422928 2.450055 -0.726289 2.738613 0 2.738613 
z
"/>
    </defs>
    <g clip-path="url(#p71fa08f2c1)">
     <use xlink:href="#C0_0_9b6a061c78" x="66.825" y="83.92143" style="fill: none; stroke: #ff0000; stroke-width: 1.75"/>
    </g>
    <g clip-path="url(#p71fa08f2c1)">
     <use xlink:href="#C0_0_9b6a061c78" x="80.775" y="83.92143" style="fill: none; stroke: #ff0000; stroke-width: 1.75"/>
    </g>
    <g clip-path="url(#p71fa08f2c1)">
     <use xlink:href="#C0_0_9b6a061c78" x="59.85" y="95.690715" style="fill: none; stroke: #ff0000; stroke-width: 1.75"/>
    </g>
    <g clip-path="url(#p71fa08f2c1)">
     <use xlink:href="#C0_0_9b6a061c78" x="73.8" y="95.690715" style="fill: none; stroke: #ff0000; stroke-width: 1.75"/>
    </g>
    <g clip-path="url(#p71fa08f2c1)">
     <use xlink:href="#C0_0_9b6a061c78" x="87.75" y="95.690715" style="fill: none; stroke: #ff0000; stroke-width: 1.75"/>
    </g>
    <g clip-path="url(#p71fa08f2c1)">
     <use xlink:href="#C0_0_9b6a061c78" x="52.875" y="107.46" style="fill: none; stroke: #ff0000; stroke-width: 1.75"/>
    </g>
    <g clip-path="url(#p71fa08f2c1)">
     <use xlink:href="#C0_0_9b6a061c78" x="66.825" y="107.46" style="fill: none; stroke: #ff0000; stroke-width: 1.75"/>
    </g>
   </g>
   <g id="PathCollection_3">
    <path d="M 113.295812 114.36883 
C 114.001246 114.36883 114.677883 114.088557 115.176701 113.58974 
C 115.675518 113.090922 115.95579 112.414286 115.95579 111.708851 
C 115.95579 111.003416 115.675518 110.32678 115.176701 109.827962 
C 114.677883 109.329145 114.001246 109.048872 113.295812 109.048872 
C 112.590377 109.048872 111.913741 109.329145 111.414923 109.827962 
C 110.916105 110.32678 110.635833 111.003416 110.635833 111.708851 
C 110.635833 112.414286 110.916105 113.090922 111.414923 113.58974 
C 111.913741 114.088557 112.590377 114.36883 113.295812 114.36883 
z
" clip-path="url(#p71fa08f2c1)" style="stroke: #000000"/>
    <path d="M 106.756985 96.348712 
C 106.889586 96.348712 107.016775 96.296029 107.110538 96.202265 
C 107.204302 96.108502 107.256985 95.981314 107.256985 95.848712 
C 107.256985 95.71611 107.204302 95.588922 107.110538 95.495159 
C 107.016775 95.401395 106.889586 95.348712 106.756985 95.348712 
C 106.624383 95.348712 106.497195 95.401395 106.403431 95.495159 
C 106.309668 95.588922 106.256985 95.71611 106.256985 95.848712 
C 106.256985 95.981314 106.309668 96.108502 106.403431 96.202265 
C 106.497195 96.296029 106.624383 96.348712 106.756985 96.348712 
z
" clip-path="url(#p71fa08f2c1)" style="stroke: #000000"/>
    <path d="M 109.782914 91.3941 
C 110.488348 91.3941 111.164985 91.113827 111.663803 90.61501 
C 112.16262 90.116192 112.442892 89.439556 112.442892 88.734121 
C 112.442892 88.028686 112.16262 87.35205 111.663803 86.853232 
C 111.164985 86.354415 110.488348 86.074142 109.782914 86.074142 
C 109.077479 86.074142 108.400842 86.354415 107.902025 86.853232 
C 107.403207 87.35205 107.122935 88.028686 107.122935 88.734121 
C 107.122935 89.439556 107.403207 90.116192 107.902025 90.61501 
C 108.400842 91.113827 109.077479 91.3941 109.782914 91.3941 
z
" clip-path="url(#p71fa08f2c1)" style="stroke: #000000"/>
    <path d="M 100.505583 60.329356 
C 101.211017 60.329356 101.887654 60.049084 102.386471 59.550267 
C 102.885289 59.051449 103.165561 58.374812 103.165561 57.669378 
C 103.165561 56.963943 102.885289 56.287306 102.386471 55.788489 
C 101.887654 55.289671 101.211017 55.009399 100.505583 55.009399 
C 99.800148 55.009399 99.123511 55.289671 98.624694 55.788489 
C 98.125876 56.287306 97.845604 56.963943 97.845604 57.669378 
C 97.845604 58.374812 98.125876 59.051449 98.624694 59.550267 
C 99.123511 60.049084 99.800148 60.329356 100.505583 60.329356 
z
" clip-path="url(#p71fa08f2c1)" style="stroke: #000000"/>
    <path d="M 91.470625 49.317343 
C 92.0111 49.317343 92.529512 49.10261 92.911686 48.720436 
C 93.293859 48.338262 93.508592 47.81985 93.508592 47.279375 
C 93.508592 46.7389 93.293859 46.220488 92.911686 45.838314 
C 92.529512 45.456141 92.0111 45.241408 91.470625 45.241408 
C 90.930149 45.241408 90.411738 45.456141 90.029564 45.838314 
C 89.64739 46.220488 89.432657 46.7389 89.432657 47.279375 
C 89.432657 47.81985 89.64739 48.338262 90.029564 48.720436 
C 90.411738 49.10261 90.930149 49.317343 91.470625 49.317343 
z
" clip-path="url(#p71fa08f2c1)" style="stroke: #000000"/>
    <path d="M 122.423578 169.122233 
C 123.128792 169.122233 123.805218 168.842048 124.30388 168.343387 
C 124.802541 167.844725 125.082726 167.168299 125.082726 166.463085 
C 125.082726 165.757871 124.802541 165.081445 124.30388 164.582784 
C 123.805218 164.084122 123.128792 163.803937 122.423578 163.803937 
C 121.718364 163.803937 121.041938 164.084122 120.543277 164.582784 
C 120.044615 165.081445 119.76443 165.757871 119.76443 166.463085 
C 119.76443 167.168299 120.044615 167.844725 120.543277 168.343387 
C 121.041938 168.842048 121.718364 169.122233 122.423578 169.122233 
z
" clip-path="url(#p71fa08f2c1)" style="stroke: #000000"/>
    <path d="M 118.973866 157.133159 
C 119.540738 157.133159 120.084469 156.907938 120.485309 156.507099 
C 120.886148 156.106259 121.111369 155.562528 121.111369 154.995656 
C 121.111369 154.428784 120.886148 153.885053 120.485309 153.484214 
C 120.084469 153.083374 119.540738 152.858154 118.973866 152.858154 
C 118.406994 152.858154 117.863263 153.083374 117.462424 153.484214 
C 117.061584 153.885053 116.836364 154.428784 116.836364 154.995656 
C 116.836364 155.562528 117.061584 156.106259 117.462424 156.507099 
C 117.863263 156.907938 118.406994 157.133159 118.973866 157.133159 
z
" clip-path="url(#p71fa08f2c1)" style="stroke: #000000"/>
    <path d="M 118.887742 148.128522 
C 119.470483 148.128522 120.029436 147.896996 120.441496 147.484936 
C 120.853556 147.072875 121.085082 146.513923 121.085082 145.931182 
C 121.085082 145.34844 120.853556 144.789488 120.441496 144.377428 
C 120.029436 143.965368 119.470483 143.733842 118.887742 143.733842 
C 118.305001 143.733842 117.746049 143.965368 117.333988 144.377428 
C 116.921928 144.789488 116.690402 145.34844 116.690402 145.931182 
C 116.690402 146.513923 116.921928 147.072875 117.333988 147.484936 
C 117.746049 147.896996 118.305001 148.128522 118.887742 148.128522 
z
" clip-path="url(#p71fa08f2c1)" style="stroke: #000000"/>
    <path d="M 114.831705 131.477839 
C 115.53714 131.477839 116.213776 131.197566 116.712594 130.698749 
C 117.211411 130.199931 117.491684 129.523295 117.491684 128.81786 
C 117.491684 128.112425 117.211411 127.435789 116.712594 126.936971 
C 116.213776 126.438154 115.53714 126.157881 114.831705 126.157881 
C 114.12627 126.157881 113.449634 126.438154 112.950816 126.936971 
C 112.451999 127.435789 112.171726 128.112425 112.171726 128.81786 
C 112.171726 129.523295 112.451999 130.199931 112.950816 130.698749 
C 113.449634 131.197566 114.12627 131.477839 114.831705 131.477839 
z
" clip-path="url(#p71fa08f2c1)" style="stroke: #000000"/>
    <path d="M 106.990108 126.344149 
C 107.695542 126.344149 108.372179 126.063877 108.870997 125.565059 
C 109.369814 125.066242 109.650086 124.389605 109.650086 123.68417 
C 109.650086 122.978736 109.369814 122.302099 108.870997 121.803281 
C 108.372179 121.304464 107.695542 121.024192 106.990108 121.024192 
C 106.284673 121.024192 105.608037 121.304464 105.109219 121.803281 
C 104.610401 122.302099 104.330129 122.978736 104.330129 123.68417 
C 104.330129 124.389605 104.610401 125.066242 105.109219 125.565059 
C 105.608037 126.063877 106.284673 126.344149 106.990108 126.344149 
z
" clip-path="url(#p71fa08f2c1)" style="stroke: #000000"/>
    <path d="M 109.841248 113.784659 
C 110.43463 113.784659 111.003789 113.548906 111.423374 113.129321 
C 111.842958 112.709736 112.078712 112.140577 112.078712 111.547195 
C 112.078712 110.953812 111.842958 110.384654 111.423374 109.965069 
C 111.003789 109.545484 110.43463 109.309731 109.841248 109.309731 
C 109.247865 109.309731 108.678706 109.545484 108.259122 109.965069 
C 107.839537 110.384654 107.603783 110.953812 107.603783 111.547195 
C 107.603783 112.140577 107.839537 112.709736 108.259122 113.129321 
C 108.678706 113.548906 109.247865 113.784659 109.841248 113.784659 
z
" clip-path="url(#p71fa08f2c1)" style="stroke: #000000"/>
    <path d="M 100.465747 105.110367 
C 101.103179 105.110367 101.714589 104.857112 102.165322 104.40638 
C 102.616055 103.955647 102.869309 103.344237 102.869309 102.706805 
C 102.869309 102.069373 102.616055 101.457963 102.165322 101.00723 
C 101.714589 100.556497 101.103179 100.303243 100.465747 100.303243 
C 99.828315 100.303243 99.216905 100.556497 98.766172 101.00723 
C 98.31544 101.457963 98.062185 102.069373 98.062185 102.706805 
C 98.062185 103.344237 98.31544 103.955647 98.766172 104.40638 
C 99.216905 104.857112 99.828315 105.110367 100.465747 105.110367 
z
" clip-path="url(#p71fa08f2c1)" style="stroke: #000000"/>
    <path d="M 95.960647 90.514758 
C 96.665861 90.514758 97.342286 90.234573 97.840948 89.735911 
C 98.33961 89.23725 98.619794 88.560824 98.619794 87.85561 
C 98.619794 87.150396 98.33961 86.47397 97.840948 85.975308 
C 97.342286 85.476646 96.665861 85.196462 95.960647 85.196462 
C 95.255432 85.196462 94.579007 85.476646 94.080345 85.975308 
C 93.581683 86.47397 93.301499 87.150396 93.301499 87.85561 
C 93.301499 88.560824 93.581683 89.23725 94.080345 89.735911 
C 94.579007 90.234573 95.255432 90.514758 95.960647 90.514758 
z
" clip-path="url(#p71fa08f2c1)" style="stroke: #000000"/>
    <path d="M 94.670645 90.021289 
C 95.28541 90.021289 95.875079 89.777041 96.309783 89.342336 
C 96.744487 88.907632 96.988736 88.317963 96.988736 87.703198 
C 96.988736 87.088433 96.744487 86.498765 96.309783 86.06406 
C 95.875079 85.629356 95.28541 85.385107 94.670645 85.385107 
C 94.05588 85.385107 93.466212 85.629356 93.031507 86.06406 
C 92.596803 86.498765 92.352554 87.088433 92.352554 87.703198 
C 92.352554 88.317963 92.596803 88.907632 93.031507 89.342336 
C 93.466212 89.777041 94.05588 90.021289 94.670645 90.021289 
z
" clip-path="url(#p71fa08f2c1)" style="stroke: #000000"/>
    <path d="M 86.272393 75.110049 
C 86.977827 75.110049 87.654464 74.829777 88.153281 74.330959 
C 88.652099 73.832142 88.932371 73.155505 88.932371 72.45007 
C 88.932371 71.744636 88.652099 71.067999 88.153281 70.569181 
C 87.654464 70.070364 86.977827 69.790092 86.272393 69.790092 
C 85.566958 69.790092 84.890321 70.070364 84.391504 70.569181 
C 83.892686 71.067999 83.612414 71.744636 83.612414 72.45007 
C 83.612414 73.155505 83.892686 73.832142 84.391504 74.330959 
C 84.890321 74.829777 85.566958 75.110049 86.272393 75.110049 
z
" clip-path="url(#p71fa08f2c1)" style="stroke: #000000"/>
    <path d="M 82.612611 63.901634 
C 83.18492 63.901634 83.733867 63.674253 84.138551 63.269569 
C 84.543235 62.864885 84.770616 62.315939 84.770616 61.743629 
C 84.770616 61.171319 84.543235 60.622373 84.138551 60.217689 
C 83.733867 59.813005 83.18492 59.585624 82.612611 59.585624 
C 82.040301 59.585624 81.491355 59.813005 81.086671 60.217689 
C 80.681987 60.622373 80.454606 61.171319 80.454606 61.743629 
C 80.454606 62.315939 80.681987 62.864885 81.086671 63.269569 
C 81.491355 63.674253 82.040301 63.901634 82.612611 63.901634 
z
" clip-path="url(#p71fa08f2c1)" style="stroke: #000000"/>
    <path d="M 82.561196 54.925288 
C 83.266631 54.925288 83.943267 54.645016 84.442085 54.146198 
C 84.940902 53.64738 85.221174 52.970744 85.221174 52.265309 
C 85.221174 51.559875 84.940902 50.883238 84.442085 50.38442 
C 83.943267 49.885603 83.266631 49.605331 82.561196 49.605331 
C 81.855761 49.605331 81.179125 49.885603 80.680307 50.38442 
C 80.18149 50.883238 79.901217 51.559875 79.901217 52.265309 
C 79.901217 52.970744 80.18149 53.64738 80.680307 54.146198 
C 81.179125 54.645016 81.855761 54.925288 82.561196 54.925288 
z
" clip-path="url(#p71fa08f2c1)" style="stroke: #000000"/>
    <path d="M 107.705668 163.05006 
C 108.280435 163.05006 108.831739 162.821702 109.238161 162.41528 
C 109.644583 162.008858 109.872941 161.457554 109.872941 160.882786 
C 109.872941 160.308019 109.644583 159.756715 109.238161 159.350293 
C 108.831739 158.943871 108.280435 158.715513 107.705668 158.715513 
C 107.1309 158.715513 106.579596 158.943871 106.173174 159.350293 
C 105.766752 159.756715 105.538394 160.308019 105.538394 160.882786 
C 105.538394 161.457554 105.766752 162.008858 106.173174 162.41528 
C 106.579596 162.821702 107.1309 163.05006 107.705668 163.05006 
z
" clip-path="url(#p71fa08f2c1)" style="stroke: #000000"/>
    <path d="M 103.408822 148.49547 
C 104.114257 148.49547 104.790893 148.215198 105.289711 147.716381 
C 105.788528 147.217563 106.0688 146.540927 106.0688 145.835492 
C 106.0688 145.130057 105.788528 144.453421 105.289711 143.954603 
C 104.790893 143.455786 104.114257 143.175513 103.408822 143.175513 
C 102.703387 143.175513 102.026751 143.455786 101.527933 143.954603 
C 101.029116 144.453421 100.748843 145.130057 100.748843 145.835492 
C 100.748843 146.540927 101.029116 147.217563 101.527933 147.716381 
C 102.026751 148.215198 102.703387 148.49547 103.408822 148.49547 
z
" clip-path="url(#p71fa08f2c1)" style="stroke: #000000"/>
    <path d="M 97.046819 137.45974 
C 97.752254 137.45974 98.428891 137.179468 98.927708 136.68065 
C 99.426526 136.181833 99.706798 135.505196 99.706798 134.799761 
C 99.706798 134.094327 99.426526 133.41769 98.927708 132.918873 
C 98.428891 132.420055 97.752254 132.139783 97.046819 132.139783 
C 96.341385 132.139783 95.664748 132.420055 95.16593 132.918873 
C 94.667113 133.41769 94.386841 134.094327 94.386841 134.799761 
C 94.386841 135.505196 94.667113 136.181833 95.16593 136.68065 
C 95.664748 137.179468 96.341385 137.45974 97.046819 137.45974 
z
" clip-path="url(#p71fa08f2c1)" style="stroke: #000000"/>
    <path d="M 92.093536 127.447818 
C 92.676277 127.447818 93.235229 127.216293 93.647289 126.804232 
C 94.05935 126.392172 94.290875 125.83322 94.290875 125.250478 
C 94.290875 124.667737 94.05935 124.108785 93.647289 123.696725 
C 93.235229 123.284664 92.676277 123.053139 92.093536 123.053139 
C 91.510794 123.053139 90.951842 123.284664 90.539782 123.696725 
C 90.127721 124.108785 89.896196 124.667737 89.896196 125.250478 
C 89.896196 125.83322 90.127721 126.392172 90.539782 126.804232 
C 90.951842 127.216293 91.510794 127.447818 92.093536 127.447818 
z
" clip-path="url(#p71fa08f2c1)" style="stroke: #000000"/>
    <path d="M 92.072125 120.3268 
C 92.733536 120.3268 93.367946 120.064018 93.835634 119.59633 
C 94.303322 119.128642 94.566103 118.494232 94.566103 117.832821 
C 94.566103 117.171411 94.303322 116.537 93.835634 116.069312 
C 93.367946 115.601624 92.733536 115.338843 92.072125 115.338843 
C 91.410714 115.338843 90.776304 115.601624 90.308616 116.069312 
C 89.840928 116.537 89.578147 117.171411 89.578147 117.832821 
C 89.578147 118.494232 89.840928 119.128642 90.308616 119.59633 
C 90.776304 120.064018 91.410714 120.3268 92.072125 120.3268 
z
" clip-path="url(#p71fa08f2c1)" style="stroke: #000000"/>
    <path d="M 92.008432 109.963544 
C 92.847208 109.963544 93.651744 109.630294 94.244849 109.03719 
C 94.837954 108.444085 95.171203 107.639549 95.171203 106.800772 
C 95.171203 105.961995 94.837954 105.15746 94.244849 104.564355 
C 93.651744 103.97125 92.847208 103.638001 92.008432 103.638001 
C 91.169655 103.638001 90.365119 103.97125 89.772014 104.564355 
C 89.178909 105.15746 88.84566 105.961995 88.84566 106.800772 
C 88.84566 107.639549 89.178909 108.444085 89.772014 109.03719 
C 90.365119 109.630294 91.169655 109.963544 92.008432 109.963544 
z
" clip-path="url(#p71fa08f2c1)" style="stroke: #000000"/>
    <path d="M 83.414151 97.815963 
C 84.119366 97.815963 84.795791 97.535779 85.294453 97.037117 
C 85.793115 96.538455 86.073299 95.86203 86.073299 95.156816 
C 86.073299 94.451601 85.793115 93.775176 85.294453 93.276514 
C 84.795791 92.777852 84.119366 92.497668 83.414151 92.497668 
C 82.708937 92.497668 82.032512 92.777852 81.53385 93.276514 
C 81.035188 93.775176 80.755003 94.451601 80.755003 95.156816 
C 80.755003 95.86203 81.035188 96.538455 81.53385 97.037117 
C 82.032512 97.535779 82.708937 97.815963 83.414151 97.815963 
z
" clip-path="url(#p71fa08f2c1)" style="stroke: #000000"/>
    <path d="M 80.463576 84.135903 
C 81.169011 84.135903 81.845648 83.855631 82.344465 83.356813 
C 82.843283 82.857995 83.123555 82.181359 83.123555 81.475924 
C 83.123555 80.77049 82.843283 80.093853 82.344465 79.595035 
C 81.845648 79.096218 81.169011 78.815946 80.463576 78.815946 
C 79.758142 78.815946 79.081505 79.096218 78.582688 79.595035 
C 78.08387 80.093853 77.803598 80.77049 77.803598 81.475924 
C 77.803598 82.181359 78.08387 82.857995 78.582688 83.356813 
C 79.081505 83.855631 79.758142 84.135903 80.463576 84.135903 
z
" clip-path="url(#p71fa08f2c1)" style="stroke: #000000"/>
    <path d="M 76.291298 78.495626 
C 76.88468 78.495626 77.453839 78.259873 77.873424 77.840288 
C 78.293009 77.420704 78.528762 76.851545 78.528762 76.258162 
C 78.528762 75.66478 78.293009 75.095621 77.873424 74.676036 
C 77.453839 74.256451 76.88468 74.020698 76.291298 74.020698 
C 75.697915 74.020698 75.128756 74.256451 74.709172 74.676036 
C 74.289587 75.095621 74.053833 75.66478 74.053833 76.258162 
C 74.053833 76.851545 74.289587 77.420704 74.709172 77.840288 
C 75.128756 78.259873 75.697915 78.495626 76.291298 78.495626 
z
" clip-path="url(#p71fa08f2c1)" style="stroke: #000000"/>
    <path d="M 75.855517 65.849284 
C 76.560732 65.849284 77.237157 65.569099 77.735819 65.070438 
C 78.234481 64.571776 78.514665 63.89535 78.514665 63.190136 
C 78.514665 62.484922 78.234481 61.808496 77.735819 61.309835 
C 77.237157 60.811173 76.560732 60.530988 75.855517 60.530988 
C 75.150303 60.530988 74.473877 60.811173 73.975216 61.309835 
C 73.476554 61.808496 73.196369 62.484922 73.196369 63.190136 
C 73.196369 63.89535 73.476554 64.571776 73.975216 65.070438 
C 74.473877 65.569099 75.150303 65.849284 75.855517 65.849284 
z
" clip-path="url(#p71fa08f2c1)" style="stroke: #000000"/>
    <path d="M 70.203015 59.351158 
C 70.764289 59.351158 71.30265 59.128161 71.699531 58.731281 
C 72.096411 58.3344 72.319408 57.796039 72.319408 57.234765 
C 72.319408 56.673491 72.096411 56.13513 71.699531 55.738249 
C 71.30265 55.341369 70.764289 55.118372 70.203015 55.118372 
C 69.641741 55.118372 69.10338 55.341369 68.706499 55.738249 
C 68.309619 56.13513 68.086622 56.673491 68.086622 57.234765 
C 68.086622 57.796039 68.309619 58.3344 68.706499 58.731281 
C 69.10338 59.128161 69.641741 59.351158 70.203015 59.351158 
z
" clip-path="url(#p71fa08f2c1)" style="stroke: #000000"/>
    <path d="M 70.000084 43.731541 
C 70.705518 43.731541 71.382155 43.451268 71.880972 42.952451 
C 72.37979 42.453633 72.660062 41.776997 72.660062 41.071562 
C 72.660062 40.366127 72.37979 39.689491 71.880972 39.190673 
C 71.382155 38.691856 70.705518 38.411583 70.000084 38.411583 
C 69.294649 38.411583 68.618012 38.691856 68.119195 39.190673 
C 67.620377 39.689491 67.340105 40.366127 67.340105 41.071562 
C 67.340105 41.776997 67.620377 42.453633 68.119195 42.952451 
C 68.618012 43.451268 69.294649 43.731541 70.000084 43.731541 
z
" clip-path="url(#p71fa08f2c1)" style="stroke: #000000"/>
    <path d="M 97.421602 174.204361 
C 98.127037 174.204361 98.803673 173.924089 99.302491 173.425271 
C 99.801308 172.926453 100.08158 172.249817 100.08158 171.544382 
C 100.08158 170.838948 99.801308 170.162311 99.302491 169.663493 
C 98.803673 169.164676 98.127037 168.884404 97.421602 168.884404 
C 96.716167 168.884404 96.039531 169.164676 95.540713 169.663493 
C 95.041896 170.162311 94.761623 170.838948 94.761623 171.544382 
C 94.761623 172.249817 95.041896 172.926453 95.540713 173.425271 
C 96.039531 173.924089 96.716167 174.204361 97.421602 174.204361 
z
" clip-path="url(#p71fa08f2c1)" style="stroke: #000000"/>
    <path d="M 93.559608 150.605111 
C 94.265043 150.605111 94.941679 150.324839 95.440497 149.826022 
C 95.939315 149.327204 96.219587 148.650567 96.219587 147.945133 
C 96.219587 147.239698 95.939315 146.563061 95.440497 146.064244 
C 94.941679 145.565426 94.265043 145.285154 93.559608 145.285154 
C 92.854174 145.285154 92.177537 145.565426 91.678719 146.064244 
C 91.179902 146.563061 90.89963 147.239698 90.89963 147.945133 
C 90.89963 148.650567 91.179902 149.327204 91.678719 149.826022 
C 92.177537 150.324839 92.854174 150.605111 93.559608 150.605111 
z
" clip-path="url(#p71fa08f2c1)" style="stroke: #000000"/>
    <path d="M 91.578864 143.668716 
C 92.036606 143.668716 92.475661 143.486854 92.799334 143.163181 
C 93.123006 142.839509 93.304869 142.400453 93.304869 141.942711 
C 93.304869 141.484969 93.123006 141.045914 92.799334 140.722241 
C 92.475661 140.398569 92.036606 140.216706 91.578864 140.216706 
C 91.121122 140.216706 90.682066 140.398569 90.358394 140.722241 
C 90.034721 141.045914 89.852859 141.484969 89.852859 141.942711 
C 89.852859 142.400453 90.034721 142.839509 90.358394 143.163181 
C 90.682066 143.486854 91.121122 143.668716 91.578864 143.668716 
z
" clip-path="url(#p71fa08f2c1)" style="stroke: #000000"/>
    <path d="M 86.90527 133.022738 
C 87.744047 133.022738 88.548583 132.689488 89.141688 132.096383 
C 89.734792 131.503279 90.068042 130.698743 90.068042 129.859966 
C 90.068042 129.021189 89.734792 128.216654 89.141688 127.623549 
C 88.548583 127.030444 87.744047 126.697195 86.90527 126.697195 
C 86.066494 126.697195 85.261958 127.030444 84.668853 127.623549 
C 84.075748 128.216654 83.742499 129.021189 83.742499 129.859966 
C 83.742499 130.698743 84.075748 131.503279 84.668853 132.096383 
C 85.261958 132.689488 86.066494 133.022738 86.90527 133.022738 
z
" clip-path="url(#p71fa08f2c1)" style="stroke: #000000"/>
    <path d="M 85.722434 125.074172 
C 86.56108 125.074172 87.36549 124.740975 87.958502 124.147962 
C 88.551514 123.55495 88.884712 122.75054 88.884712 121.911894 
C 88.884712 121.073249 88.551514 120.268839 87.958502 119.675826 
C 87.36549 119.082814 86.56108 118.749617 85.722434 118.749617 
C 84.883788 118.749617 84.079378 119.082814 83.486366 119.675826 
C 82.893354 120.268839 82.560156 121.073249 82.560156 121.911894 
C 82.560156 122.75054 82.893354 123.55495 83.486366 124.147962 
C 84.079378 124.740975 84.883788 125.074172 85.722434 125.074172 
z
" clip-path="url(#p71fa08f2c1)" style="stroke: #000000"/>
    <path d="M 83.862072 111.520684 
C 84.700718 111.520684 85.505128 111.187487 86.09814 110.594474 
C 86.691152 110.001462 87.024349 109.197052 87.024349 108.358406 
C 87.024349 107.519761 86.691152 106.715351 86.09814 106.122338 
C 85.505128 105.529326 84.700718 105.196129 83.862072 105.196129 
C 83.023426 105.196129 82.219016 105.529326 81.626004 106.122338 
C 81.032992 106.715351 80.699794 107.519761 80.699794 108.358406 
C 80.699794 109.197052 81.032992 110.001462 81.626004 110.594474 
C 82.219016 111.187487 83.023426 111.520684 83.862072 111.520684 
z
" clip-path="url(#p71fa08f2c1)" style="stroke: #000000"/>
    <path d="M 78.262651 101.575303 
C 78.900083 101.575303 79.511493 101.322049 79.962225 100.871316 
C 80.412958 100.420584 80.666212 99.809173 80.666212 99.171741 
C 80.666212 98.534309 80.412958 97.922899 79.962225 97.472166 
C 79.511493 97.021434 78.900083 96.768179 78.262651 96.768179 
C 77.625218 96.768179 77.013808 97.021434 76.563076 97.472166 
C 76.112343 97.922899 75.859089 98.534309 75.859089 99.171741 
C 75.859089 99.809173 76.112343 100.420584 76.563076 100.871316 
C 77.013808 101.322049 77.625218 101.575303 78.262651 101.575303 
z
" clip-path="url(#p71fa08f2c1)" style="stroke: #000000"/>
    <path d="M 65.227287 93.256127 
C 65.932501 93.256127 66.608927 92.975942 67.107588 92.47728 
C 67.60625 91.978618 67.886435 91.302193 67.886435 90.596979 
C 67.886435 89.891764 67.60625 89.215339 67.107588 88.716677 
C 66.608927 88.218015 65.932501 87.937831 65.227287 87.937831 
C 64.522072 87.937831 63.845647 88.218015 63.346985 88.716677 
C 62.848323 89.215339 62.568139 89.891764 62.568139 90.596979 
C 62.568139 91.302193 62.848323 91.978618 63.346985 92.47728 
C 63.845647 92.975942 64.522072 93.256127 65.227287 93.256127 
z
" clip-path="url(#p71fa08f2c1)" style="stroke: #000000"/>
    <path d="M 72.65288 81.818411 
C 73.358314 81.818411 74.034951 81.538139 74.533768 81.039321 
C 75.032586 80.540503 75.312858 79.863867 75.312858 79.158432 
C 75.312858 78.452998 75.032586 77.776361 74.533768 77.277543 
C 74.034951 76.778726 73.358314 76.498454 72.65288 76.498454 
C 71.947445 76.498454 71.270808 76.778726 70.771991 77.277543 
C 70.273173 77.776361 69.992901 78.452998 69.992901 79.158432 
C 69.992901 79.863867 70.273173 80.540503 70.771991 81.039321 
C 71.270808 81.538139 71.947445 81.818411 72.65288 81.818411 
z
" clip-path="url(#p71fa08f2c1)" style="stroke: #000000"/>
    <path d="M 62.421411 72.447935 
C 63.126845 72.447935 63.803482 72.167663 64.3023 71.668846 
C 64.801117 71.170028 65.081389 70.493391 65.081389 69.787957 
C 65.081389 69.082522 64.801117 68.405885 64.3023 67.907068 
C 63.803482 67.40825 63.126845 67.127978 62.421411 67.127978 
C 61.715976 67.127978 61.039339 67.40825 60.540522 67.907068 
C 60.041704 68.405885 59.761432 69.082522 59.761432 69.787957 
C 59.761432 70.493391 60.041704 71.170028 60.540522 71.668846 
C 61.039339 72.167663 61.715976 72.447935 62.421411 72.447935 
z
" clip-path="url(#p71fa08f2c1)" style="stroke: #000000"/>
    <path d="M 64.140654 60.938571 
C 64.846088 60.938571 65.522725 60.658299 66.021543 60.159482 
C 66.52036 59.660664 66.800632 58.984027 66.800632 58.278593 
C 66.800632 57.573158 66.52036 56.896522 66.021543 56.397704 
C 65.522725 55.898886 64.846088 55.618614 64.140654 55.618614 
C 63.435219 55.618614 62.758582 55.898886 62.259765 56.397704 
C 61.760947 56.896522 61.480675 57.573158 61.480675 58.278593 
C 61.480675 58.984027 61.760947 59.660664 62.259765 60.159482 
C 62.758582 60.658299 63.435219 60.938571 64.140654 60.938571 
z
" clip-path="url(#p71fa08f2c1)" style="stroke: #000000"/>
    <path d="M 61.431365 48.797787 
C 62.136799 48.797787 62.813436 48.517514 63.312254 48.018697 
C 63.811071 47.519879 64.091343 46.843243 64.091343 46.137808 
C 64.091343 45.432373 63.811071 44.755737 63.312254 44.256919 
C 62.813436 43.758102 62.136799 43.477829 61.431365 43.477829 
C 60.72593 43.477829 60.049293 43.758102 59.550476 44.256919 
C 59.051658 44.755737 58.771386 45.432373 58.771386 46.137808 
C 58.771386 46.843243 59.051658 47.519879 59.550476 48.018697 
C 60.049293 48.517514 60.72593 48.797787 61.431365 48.797787 
z
" clip-path="url(#p71fa08f2c1)" style="stroke: #000000"/>
    <path d="M 52.481593 38.398249 
C 52.965936 38.398249 53.430508 38.205817 53.77299 37.863334 
C 54.115473 37.520852 54.307905 37.05628 54.307905 36.571937 
C 54.307905 36.087593 54.115473 35.623021 53.77299 35.280539 
C 53.430508 34.938056 52.965936 34.745624 52.481593 34.745624 
C 51.997249 34.745624 51.532678 34.938056 51.190195 35.280539 
C 50.847712 35.623021 50.655281 36.087593 50.655281 36.571937 
C 50.655281 37.05628 50.847712 37.520852 51.190195 37.863334 
C 51.532678 38.205817 51.997249 38.398249 52.481593 38.398249 
z
" clip-path="url(#p71fa08f2c1)" style="stroke: #000000"/>
    <path d="M 91.682565 177.140534 
C 92.243839 177.140534 92.7822 176.917537 93.179081 176.520657 
C 93.575961 176.123776 93.798958 175.585415 93.798958 175.024141 
C 93.798958 174.462867 93.575961 173.924506 93.179081 173.527625 
C 92.7822 173.130745 92.243839 172.907748 91.682565 172.907748 
C 91.121291 172.907748 90.58293 173.130745 90.186049 173.527625 
C 89.789169 173.924506 89.566172 174.462867 89.566172 175.024141 
C 89.566172 175.585415 89.789169 176.123776 90.186049 176.520657 
C 90.58293 176.917537 91.121291 177.140534 91.682565 177.140534 
z
" clip-path="url(#p71fa08f2c1)" style="stroke: #000000"/>
    <path d="M 88.608875 168.786555 
C 89.31431 168.786555 89.990947 168.506283 90.489764 168.007465 
C 90.988582 167.508648 91.268854 166.832011 91.268854 166.126576 
C 91.268854 165.421142 90.988582 164.744505 90.489764 164.245688 
C 89.990947 163.74687 89.31431 163.466598 88.608875 163.466598 
C 87.903441 163.466598 87.226804 163.74687 86.727987 164.245688 
C 86.229169 164.744505 85.948897 165.421142 85.948897 166.126576 
C 85.948897 166.832011 86.229169 167.508648 86.727987 168.007465 
C 87.226804 168.506283 87.903441 168.786555 88.608875 168.786555 
z
" clip-path="url(#p71fa08f2c1)" style="stroke: #000000"/>
    <path d="M 82.992186 156.010691 
C 83.69762 156.010691 84.374257 155.730419 84.873075 155.231601 
C 85.371892 154.732784 85.652164 154.056147 85.652164 153.350712 
C 85.652164 152.645278 85.371892 151.968641 84.873075 151.469824 
C 84.374257 150.971006 83.69762 150.690734 82.992186 150.690734 
C 82.286751 150.690734 81.610114 150.971006 81.111297 151.469824 
C 80.612479 151.968641 80.332207 152.645278 80.332207 153.350712 
C 80.332207 154.056147 80.612479 154.732784 81.111297 155.231601 
C 81.610114 155.730419 82.286751 156.010691 82.992186 156.010691 
z
" clip-path="url(#p71fa08f2c1)" style="stroke: #000000"/>
    <path d="M 79.137377 149.495636 
C 79.842811 149.495636 80.519448 149.215364 81.018265 148.716546 
C 81.517083 148.217729 81.797355 147.541092 81.797355 146.835657 
C 81.797355 146.130223 81.517083 145.453586 81.018265 144.954768 
C 80.519448 144.455951 79.842811 144.175679 79.137377 144.175679 
C 78.431942 144.175679 77.755305 144.455951 77.256488 144.954768 
C 76.75767 145.453586 76.477398 146.130223 76.477398 146.835657 
C 76.477398 147.541092 76.75767 148.217729 77.256488 148.716546 
C 77.755305 149.215364 78.431942 149.495636 79.137377 149.495636 
z
" clip-path="url(#p71fa08f2c1)" style="stroke: #000000"/>
    <path d="M 73.331917 136.957348 
C 74.037352 136.957348 74.713989 136.677075 75.212806 136.178258 
C 75.711624 135.67944 75.991896 135.002804 75.991896 134.297369 
C 75.991896 133.591934 75.711624 132.915298 75.212806 132.41648 
C 74.713989 131.917663 74.037352 131.63739 73.331917 131.63739 
C 72.626483 131.63739 71.949846 131.917663 71.451028 132.41648 
C 70.952211 132.915298 70.671939 133.591934 70.671939 134.297369 
C 70.671939 135.002804 70.952211 135.67944 71.451028 136.178258 
C 71.949846 136.677075 72.626483 136.957348 73.331917 136.957348 
z
" clip-path="url(#p71fa08f2c1)" style="stroke: #000000"/>
    <path d="M 71.571647 124.991926 
C 72.410424 124.991926 73.21496 124.658677 73.808065 124.065572 
C 74.401169 123.472467 74.734419 122.667931 74.734419 121.829154 
C 74.734419 120.990378 74.401169 120.185842 73.808065 119.592737 
C 73.21496 118.999632 72.410424 118.666383 71.571647 118.666383 
C 70.73287 118.666383 69.928335 118.999632 69.33523 119.592737 
C 68.742125 120.185842 68.408876 120.990378 68.408876 121.829154 
C 68.408876 122.667931 68.742125 123.472467 69.33523 124.065572 
C 69.928335 124.658677 70.73287 124.991926 71.571647 124.991926 
z
" clip-path="url(#p71fa08f2c1)" style="stroke: #000000"/>
    <path d="M 70.555405 114.265692 
C 71.14009 114.265692 71.700906 114.033394 72.11434 113.61996 
C 72.527774 113.206525 72.760072 112.645709 72.760072 112.061025 
C 72.760072 111.476341 72.527774 110.915525 72.11434 110.50209 
C 71.700906 110.088656 71.14009 109.856358 70.555405 109.856358 
C 69.970721 109.856358 69.409905 110.088656 68.99647 110.50209 
C 68.583036 110.915525 68.350739 111.476341 68.350739 112.061025 
C 68.350739 112.645709 68.583036 113.206525 68.99647 113.61996 
C 69.409905 114.033394 69.970721 114.265692 70.555405 114.265692 
z
" clip-path="url(#p71fa08f2c1)" style="stroke: #000000"/>
    <path d="M 67.160546 106.037534 
C 67.865981 106.037534 68.542618 105.757262 69.041435 105.258444 
C 69.540253 104.759627 69.820525 104.08299 69.820525 103.377556 
C 69.820525 102.672121 69.540253 101.995484 69.041435 101.496667 
C 68.542618 100.997849 67.865981 100.717577 67.160546 100.717577 
C 66.455112 100.717577 65.778475 100.997849 65.279657 101.496667 
C 64.78084 101.995484 64.500568 102.672121 64.500568 103.377556 
C 64.500568 104.08299 64.78084 104.759627 65.279657 105.258444 
C 65.778475 105.757262 66.455112 106.037534 67.160546 106.037534 
z
" clip-path="url(#p71fa08f2c1)" style="stroke: #000000"/>
    <path d="M 60.557264 97.106013 
C 61.150276 97.106013 61.71908 96.870407 62.138403 96.451084 
C 62.557725 96.031761 62.793332 95.462957 62.793332 94.869945 
C 62.793332 94.276933 62.557725 93.708129 62.138403 93.288806 
C 61.71908 92.869483 61.150276 92.633877 60.557264 92.633877 
C 59.964252 92.633877 59.395448 92.869483 58.976125 93.288806 
C 58.556802 93.708129 58.321196 94.276933 58.321196 94.869945 
C 58.321196 95.462957 58.556802 96.031761 58.976125 96.451084 
C 59.395448 96.870407 59.964252 97.106013 60.557264 97.106013 
z
" clip-path="url(#p71fa08f2c1)" style="stroke: #000000"/>
    <path d="M 58.408863 86.441681 
C 58.945379 86.441681 59.459992 86.228521 59.839366 85.849148 
C 60.21874 85.469774 60.4319 84.95516 60.4319 84.418645 
C 60.4319 83.882129 60.21874 83.367516 59.839366 82.988142 
C 59.459992 82.608768 58.945379 82.395609 58.408863 82.395609 
C 57.872348 82.395609 57.357734 82.608768 56.97836 82.988142 
C 56.598987 83.367516 56.385827 83.882129 56.385827 84.418645 
C 56.385827 84.95516 56.598987 85.469774 56.97836 85.849148 
C 57.357734 86.228521 57.872348 86.441681 58.408863 86.441681 
z
" clip-path="url(#p71fa08f2c1)" style="stroke: #000000"/>
    <path d="M 53.523285 75.602197 
C 54.22872 75.602197 54.905357 75.321925 55.404174 74.823108 
C 55.902992 74.32429 56.183264 73.647653 56.183264 72.942219 
C 56.183264 72.236784 55.902992 71.560147 55.404174 71.06133 
C 54.905357 70.562512 54.22872 70.28224 53.523285 70.28224 
C 52.817851 70.28224 52.141214 70.562512 51.642397 71.06133 
C 51.143579 71.560147 50.863307 72.236784 50.863307 72.942219 
C 50.863307 73.647653 51.143579 74.32429 51.642397 74.823108 
C 52.141214 75.321925 52.817851 75.602197 53.523285 75.602197 
z
" clip-path="url(#p71fa08f2c1)" style="stroke: #000000"/>
    <path d="M 48.929949 67.209548 
C 49.635383 67.209548 50.31202 66.929276 50.810837 66.430458 
C 51.309655 65.931641 51.589927 65.255004 51.589927 64.549569 
C 51.589927 63.844135 51.309655 63.167498 50.810837 62.668681 
C 50.31202 62.169863 49.635383 61.889591 48.929949 61.889591 
C 48.224514 61.889591 47.547877 62.169863 47.04906 62.668681 
C 46.550242 63.167498 46.26997 63.844135 46.26997 64.549569 
C 46.26997 65.255004 46.550242 65.931641 47.04906 66.430458 
C 47.547877 66.929276 48.224514 67.209548 48.929949 67.209548 
z
" clip-path="url(#p71fa08f2c1)" style="stroke: #000000"/>
    <path d="M 48.275672 54.523988 
C 48.980887 54.523988 49.657312 54.243804 50.155974 53.745142 
C 50.654636 53.24648 50.93482 52.570055 50.93482 51.86484 
C 50.93482 51.159626 50.654636 50.483201 50.155974 49.984539 
C 49.657312 49.485877 48.980887 49.205692 48.275672 49.205692 
C 47.570458 49.205692 46.894033 49.485877 46.395371 49.984539 
C 45.896709 50.483201 45.616525 51.159626 45.616525 51.86484 
C 45.616525 52.570055 45.896709 53.24648 46.395371 53.745142 
C 46.894033 54.243804 47.570458 54.523988 48.275672 54.523988 
z
" clip-path="url(#p71fa08f2c1)" style="stroke: #000000"/>
    <path d="M 46.011047 44.230788 
C 46.716261 44.230788 47.392687 43.950603 47.891349 43.451941 
C 48.39001 42.95328 48.670195 42.276854 48.670195 41.57164 
C 48.670195 40.866426 48.39001 40.19 47.891349 39.691338 
C 47.392687 39.192676 46.716261 38.912492 46.011047 38.912492 
C 45.305833 38.912492 44.629407 39.192676 44.130746 39.691338 
C 43.632084 40.19 43.351899 40.866426 43.351899 41.57164 
C 43.351899 42.276854 43.632084 42.95328 44.130746 43.451941 
C 44.629407 43.950603 45.305833 44.230788 46.011047 44.230788 
z
" clip-path="url(#p71fa08f2c1)" style="stroke: #000000"/>
    <path d="M 74.385301 179.292269 
C 74.946574 179.292269 75.484936 179.069272 75.881816 178.672392 
C 76.278697 178.275511 76.501693 177.73715 76.501693 177.175876 
C 76.501693 176.614602 76.278697 176.076241 75.881816 175.67936 
C 75.484936 175.28248 74.946574 175.059483 74.385301 175.059483 
C 73.824027 175.059483 73.285665 175.28248 72.888785 175.67936 
C 72.491904 176.076241 72.268908 176.614602 72.268908 177.175876 
C 72.268908 177.73715 72.491904 178.275511 72.888785 178.672392 
C 73.285665 179.069272 73.824027 179.292269 74.385301 179.292269 
z
" clip-path="url(#p71fa08f2c1)" style="stroke: #000000"/>
    <path d="M 78.655601 173.645696 
C 79.361035 173.645696 80.037672 173.365424 80.53649 172.866607 
C 81.035307 172.367789 81.315579 171.691152 81.315579 170.985718 
C 81.315579 170.280283 81.035307 169.603647 80.53649 169.104829 
C 80.037672 168.606011 79.361035 168.325739 78.655601 168.325739 
C 77.950166 168.325739 77.273529 168.606011 76.774712 169.104829 
C 76.275894 169.603647 75.995622 170.280283 75.995622 170.985718 
C 75.995622 171.691152 76.275894 172.367789 76.774712 172.866607 
C 77.273529 173.365424 77.950166 173.645696 78.655601 173.645696 
z
" clip-path="url(#p71fa08f2c1)" style="stroke: #000000"/>
    <path d="M 72.325264 149.398414 
C 73.030699 149.398414 73.707335 149.118142 74.206153 148.619325 
C 74.70497 148.120507 74.985242 147.44387 74.985242 146.738436 
C 74.985242 146.033001 74.70497 145.356365 74.206153 144.857547 
C 73.707335 144.358729 73.030699 144.078457 72.325264 144.078457 
C 71.619829 144.078457 70.943193 144.358729 70.444375 144.857547 
C 69.945558 145.356365 69.665285 146.033001 69.665285 146.738436 
C 69.665285 147.44387 69.945558 148.120507 70.444375 148.619325 
C 70.943193 149.118142 71.619829 149.398414 72.325264 149.398414 
z
" clip-path="url(#p71fa08f2c1)" style="stroke: #000000"/>
    <path d="M 63.227525 137.613154 
C 63.820537 137.613154 64.38934 137.377548 64.808663 136.958225 
C 65.227986 136.538902 65.463592 135.970099 65.463592 135.377086 
C 65.463592 134.784074 65.227986 134.21527 64.808663 133.795948 
C 64.38934 133.376625 63.820537 133.141018 63.227525 133.141018 
C 62.634512 133.141018 62.065709 133.376625 61.646386 133.795948 
C 61.227063 134.21527 60.991457 134.784074 60.991457 135.377086 
C 60.991457 135.970099 61.227063 136.538902 61.646386 136.958225 
C 62.065709 137.377548 62.634512 137.613154 63.227525 137.613154 
z
" clip-path="url(#p71fa08f2c1)" style="stroke: #000000"/>
    <path d="M 57.445644 128.347848 
C 58.037541 128.347848 58.605275 128.112685 59.02381 127.694151 
C 59.442344 127.275616 59.677508 126.707882 59.677508 126.115985 
C 59.677508 125.524088 59.442344 124.956354 59.02381 124.537819 
C 58.605275 124.119285 58.037541 123.884121 57.445644 123.884121 
C 56.853747 123.884121 56.286013 124.119285 55.867478 124.537819 
C 55.448944 124.956354 55.213781 125.524088 55.213781 126.115985 
C 55.213781 126.707882 55.448944 127.275616 55.867478 127.694151 
C 56.286013 128.112685 56.853747 128.347848 57.445644 128.347848 
z
" clip-path="url(#p71fa08f2c1)" style="stroke: #000000"/>
    <path d="M 57.466778 117.214886 
C 58.046369 117.214886 58.6023 116.984612 59.012133 116.574779 
C 59.421966 116.164946 59.65224 115.609015 59.65224 115.029424 
C 59.65224 114.449833 59.421966 113.893902 59.012133 113.484069 
C 58.6023 113.074236 58.046369 112.843962 57.466778 112.843962 
C 56.887187 112.843962 56.331256 113.074236 55.921423 113.484069 
C 55.51159 113.893902 55.281316 114.449833 55.281316 115.029424 
C 55.281316 115.609015 55.51159 116.164946 55.921423 116.574779 
C 56.331256 116.984612 56.887187 117.214886 57.466778 117.214886 
z
" clip-path="url(#p71fa08f2c1)" style="stroke: #000000"/>
    <path d="M 53.605723 108.220027 
C 54.311158 108.220027 54.987795 107.939755 55.486612 107.440937 
C 55.98543 106.94212 56.265702 106.265483 56.265702 105.560048 
C 56.265702 104.854614 55.98543 104.177977 55.486612 103.679159 
C 54.987795 103.180342 54.311158 102.90007 53.605723 102.90007 
C 52.900289 102.90007 52.223652 103.180342 51.724835 103.679159 
C 51.226017 104.177977 50.945745 104.854614 50.945745 105.560048 
C 50.945745 106.265483 51.226017 106.94212 51.724835 107.440937 
C 52.223652 107.939755 52.900289 108.220027 53.605723 108.220027 
z
" clip-path="url(#p71fa08f2c1)" style="stroke: #000000"/>
    <path d="M 52.660323 96.919953 
C 53.365537 96.919953 54.041962 96.639768 54.540624 96.141107 
C 55.039286 95.642445 55.319471 94.966019 55.319471 94.260805 
C 55.319471 93.555591 55.039286 92.879165 54.540624 92.380504 
C 54.041962 91.881842 53.365537 91.601657 52.660323 91.601657 
C 51.955108 91.601657 51.278683 91.881842 50.780021 92.380504 
C 50.281359 92.879165 50.001175 93.555591 50.001175 94.260805 
C 50.001175 94.966019 50.281359 95.642445 50.780021 96.141107 
C 51.278683 96.639768 51.955108 96.919953 52.660323 96.919953 
z
" clip-path="url(#p71fa08f2c1)" style="stroke: #000000"/>
    <path d="M 46.982268 87.493343 
C 47.57528 87.493343 48.144084 87.257737 48.563407 86.838414 
C 48.98273 86.419091 49.218336 85.850287 49.218336 85.257275 
C 49.218336 84.664263 48.98273 84.095459 48.563407 83.676137 
C 48.144084 83.256814 47.57528 83.021207 46.982268 83.021207 
C 46.389256 83.021207 45.820452 83.256814 45.401129 83.676137 
C 44.981806 84.095459 44.7462 84.664263 44.7462 85.257275 
C 44.7462 85.850287 44.981806 86.419091 45.401129 86.838414 
C 45.820452 87.257737 46.389256 87.493343 46.982268 87.493343 
z
" clip-path="url(#p71fa08f2c1)" style="stroke: #000000"/>
    <path d="M 40.92 79.246107 
C 41.625435 79.246107 42.302071 78.965835 42.800889 78.467017 
C 43.299706 77.9682 43.579979 77.291563 43.579979 76.586129 
C 43.579979 75.880694 43.299706 75.204057 42.800889 74.70524 
C 42.302071 74.206422 41.625435 73.92615 40.92 73.92615 
C 40.214566 73.92615 39.537929 74.206422 39.039111 74.70524 
C 38.540294 75.204057 38.260022 75.880694 38.260022 76.586129 
C 38.260022 77.291563 38.540294 77.9682 39.039111 78.467017 
C 39.537929 78.965835 40.214566 79.246107 40.92 79.246107 
z
" clip-path="url(#p71fa08f2c1)" style="stroke: #000000"/>
    <path d="M 39.439603 66.069298 
C 40.144817 66.069298 40.821243 65.789113 41.319905 65.290452 
C 41.818567 64.79179 42.098751 64.115364 42.098751 63.41015 
C 42.098751 62.704936 41.818567 62.02851 41.319905 61.529849 
C 40.821243 61.031187 40.144817 60.751002 39.439603 60.751002 
C 38.734389 60.751002 38.057963 61.031187 37.559302 61.529849 
C 37.06064 62.02851 36.780455 62.704936 36.780455 63.41015 
C 36.780455 64.115364 37.06064 64.79179 37.559302 65.290452 
C 38.057963 65.789113 38.734389 66.069298 39.439603 66.069298 
z
" clip-path="url(#p71fa08f2c1)" style="stroke: #000000"/>
    <path d="M 69.114602 173.860737 
C 69.819816 173.860737 70.496242 173.580553 70.994904 173.081891 
C 71.493566 172.583229 71.77375 171.906804 71.77375 171.20159 
C 71.77375 170.496375 71.493566 169.81995 70.994904 169.321288 
C 70.496242 168.822626 69.819816 168.542442 69.114602 168.542442 
C 68.409388 168.542442 67.732962 168.822626 67.234301 169.321288 
C 66.735639 169.81995 66.455454 170.496375 66.455454 171.20159 
C 66.455454 171.906804 66.735639 172.583229 67.234301 173.081891 
C 67.732962 173.580553 68.409388 173.860737 69.114602 173.860737 
z
" clip-path="url(#p71fa08f2c1)" style="stroke: #000000"/>
    <path d="M 60.551234 162.643525 
C 61.256669 162.643525 61.933305 162.363253 62.432123 161.864435 
C 62.930941 161.365618 63.211213 160.688981 63.211213 159.983547 
C 63.211213 159.278112 62.930941 158.601475 62.432123 158.102658 
C 61.933305 157.60384 61.256669 157.323568 60.551234 157.323568 
C 59.8458 157.323568 59.169163 157.60384 58.670345 158.102658 
C 58.171528 158.601475 57.891256 159.278112 57.891256 159.983547 
C 57.891256 160.688981 58.171528 161.365618 58.670345 161.864435 
C 59.169163 162.363253 59.8458 162.643525 60.551234 162.643525 
z
" clip-path="url(#p71fa08f2c1)" style="stroke: #000000"/>
    <path d="M 52.874443 143.682933 
C 53.467825 143.682933 54.036984 143.44718 54.456569 143.027595 
C 54.876153 142.60801 55.111907 142.038851 55.111907 141.445469 
C 55.111907 140.852087 54.876153 140.282928 54.456569 139.863343 
C 54.036984 139.443758 53.467825 139.208005 52.874443 139.208005 
C 52.28106 139.208005 51.711901 139.443758 51.292316 139.863343 
C 50.872732 140.282928 50.636978 140.852087 50.636978 141.445469 
C 50.636978 142.038851 50.872732 142.60801 51.292316 143.027595 
C 51.711901 143.44718 52.28106 143.682933 52.874443 143.682933 
z
" clip-path="url(#p71fa08f2c1)" style="stroke: #000000"/>
    <path d="M 50.569639 129.358423 
C 51.106154 129.358423 51.620768 129.145263 52.000141 128.76589 
C 52.379515 128.386516 52.592675 127.871902 52.592675 127.335387 
C 52.592675 126.798871 52.379515 126.284258 52.000141 125.904884 
C 51.620768 125.52551 51.106154 125.31235 50.569639 125.31235 
C 50.033123 125.31235 49.51851 125.52551 49.139136 125.904884 
C 48.759762 126.284258 48.546602 126.798871 48.546602 127.335387 
C 48.546602 127.871902 48.759762 128.386516 49.139136 128.76589 
C 49.51851 129.145263 50.033123 129.358423 50.569639 129.358423 
z
" clip-path="url(#p71fa08f2c1)" style="stroke: #000000"/>
    <path d="M 49.777598 122.918426 
C 50.297876 122.918426 50.796915 122.711718 51.164808 122.343825 
C 51.5327 121.975933 51.739409 121.476894 51.739409 120.956616 
C 51.739409 120.436337 51.5327 119.937298 51.164808 119.569406 
C 50.796915 119.201514 50.297876 118.994805 49.777598 118.994805 
C 49.25732 118.994805 48.758281 119.201514 48.390388 119.569406 
C 48.022496 119.937298 47.815787 120.436337 47.815787 120.956616 
C 47.815787 121.476894 48.022496 121.975933 48.390388 122.343825 
C 48.758281 122.711718 49.25732 122.918426 49.777598 122.918426 
z
" clip-path="url(#p71fa08f2c1)" style="stroke: #000000"/>
    <path d="M 43.167942 114.089892 
C 43.873156 114.089892 44.549581 113.809707 45.048243 113.311045 
C 45.546905 112.812383 45.82709 112.135958 45.82709 111.430744 
C 45.82709 110.725529 45.546905 110.049104 45.048243 109.550442 
C 44.549581 109.05178 43.873156 108.771596 43.167942 108.771596 
C 42.462727 108.771596 41.786302 109.05178 41.28764 109.550442 
C 40.788978 110.049104 40.508794 110.725529 40.508794 111.430744 
C 40.508794 112.135958 40.788978 112.812383 41.28764 113.311045 
C 41.786302 113.809707 42.462727 114.089892 43.167942 114.089892 
z
" clip-path="url(#p71fa08f2c1)" style="stroke: #000000"/>
    <path d="M 37.39558 102.277965 
C 37.988221 102.277965 38.556669 102.042507 38.97573 101.623446 
C 39.394791 101.204385 39.630249 100.635937 39.630249 100.043296 
C 39.630249 99.450655 39.394791 98.882207 38.97573 98.463147 
C 38.556669 98.044086 37.988221 97.808627 37.39558 97.808627 
C 36.802939 97.808627 36.234491 98.044086 35.815431 98.463147 
C 35.39637 98.882207 35.160911 99.450655 35.160911 100.043296 
C 35.160911 100.635937 35.39637 101.204385 35.815431 101.623446 
C 36.234491 102.042507 36.802939 102.277965 37.39558 102.277965 
z
" clip-path="url(#p71fa08f2c1)" style="stroke: #000000"/>
    <path d="M 34.941398 83.635064 
C 35.646392 83.635064 36.322605 83.354967 36.821111 82.856461 
C 37.319617 82.357955 37.599714 81.681741 37.599714 80.976747 
C 37.599714 80.271753 37.319617 79.595539 36.821111 79.097034 
C 36.322605 78.598528 35.646392 78.318431 34.941398 78.318431 
C 34.236404 78.318431 33.56019 78.598528 33.061684 79.097034 
C 32.563178 79.595539 32.283081 80.271753 32.283081 80.976747 
C 32.283081 81.681741 32.563178 82.357955 33.061684 82.856461 
C 33.56019 83.354967 34.236404 83.635064 34.941398 83.635064 
z
" clip-path="url(#p71fa08f2c1)" style="stroke: #000000"/>
    <path d="M 55.954827 174.306136 
C 56.517841 174.306136 57.057872 174.082448 57.455983 173.684337 
C 57.854094 173.286226 58.077782 172.746195 58.077782 172.183181 
C 58.077782 171.620167 57.854094 171.080136 57.455983 170.682025 
C 57.057872 170.283914 56.517841 170.060226 55.954827 170.060226 
C 55.391813 170.060226 54.851782 170.283914 54.453671 170.682025 
C 54.05556 171.080136 53.831872 171.620167 53.831872 172.183181 
C 53.831872 172.746195 54.05556 173.286226 54.453671 173.684337 
C 54.851782 174.082448 55.391813 174.306136 55.954827 174.306136 
z
" clip-path="url(#p71fa08f2c1)" style="stroke: #000000"/>
    <path d="M 46.171877 162.436487 
C 46.738749 162.436487 47.28248 162.211266 47.683319 161.810427 
C 48.084158 161.409587 48.309379 160.865857 48.309379 160.298984 
C 48.309379 159.732112 48.084158 159.188381 47.683319 158.787542 
C 47.28248 158.386703 46.738749 158.161482 46.171877 158.161482 
C 45.605004 158.161482 45.061273 158.386703 44.660434 158.787542 
C 44.259595 159.188381 44.034374 159.732112 44.034374 160.298984 
C 44.034374 160.865857 44.259595 161.409587 44.660434 161.810427 
C 45.061273 162.211266 45.605004 162.436487 46.171877 162.436487 
z
" clip-path="url(#p71fa08f2c1)" style="stroke: #000000"/>
    <path d="M 40.905781 147.663034 
C 41.610995 147.663034 42.287421 147.38285 42.786083 146.884188 
C 43.284744 146.385526 43.564929 145.709101 43.564929 145.003887 
C 43.564929 144.298672 43.284744 143.622247 42.786083 143.123585 
C 42.287421 142.624923 41.610995 142.344739 40.905781 142.344739 
C 40.200567 142.344739 39.524141 142.624923 39.02548 143.123585 
C 38.526818 143.622247 38.246633 144.298672 38.246633 145.003887 
C 38.246633 145.709101 38.526818 146.385526 39.02548 146.884188 
C 39.524141 147.38285 40.200567 147.663034 40.905781 147.663034 
z
" clip-path="url(#p71fa08f2c1)" style="stroke: #000000"/>
    <path d="M 42.896719 136.941743 
C 43.169847 136.941743 43.431826 136.833228 43.624957 136.640097 
C 43.818087 136.446966 43.926603 136.184987 43.926603 135.911859 
C 43.926603 135.638731 43.818087 135.376752 43.624957 135.183621 
C 43.431826 134.99049 43.169847 134.881975 42.896719 134.881975 
C 42.623591 134.881975 42.361612 134.99049 42.168481 135.183621 
C 41.97535 135.376752 41.866835 135.638731 41.866835 135.911859 
C 41.866835 136.184987 41.97535 136.446966 42.168481 136.640097 
C 42.361612 136.833228 42.623591 136.941743 42.896719 136.941743 
z
" clip-path="url(#p71fa08f2c1)" style="stroke: #000000"/>
    <path d="M 38.050918 126.721417 
C 38.756132 126.721417 39.432557 126.441233 39.931219 125.942571 
C 40.429881 125.443909 40.710066 124.767483 40.710066 124.062269 
C 40.710066 123.357055 40.429881 122.680629 39.931219 122.181968 
C 39.432557 121.683306 38.756132 121.403121 38.050918 121.403121 
C 37.345703 121.403121 36.669278 121.683306 36.170616 122.181968 
C 35.671954 122.680629 35.39177 123.357055 35.39177 124.062269 
C 35.39177 124.767483 35.671954 125.443909 36.170616 125.942571 
C 36.669278 126.441233 37.345703 126.721417 38.050918 126.721417 
z
" clip-path="url(#p71fa08f2c1)" style="stroke: #000000"/>
    <path d="M 33.70744 114.632941 
C 34.412875 114.632941 35.089512 114.352669 35.588329 113.853852 
C 36.087147 113.355034 36.367419 112.678397 36.367419 111.972963 
C 36.367419 111.267528 36.087147 110.590891 35.588329 110.092074 
C 35.089512 109.593256 34.412875 109.312984 33.70744 109.312984 
C 33.002006 109.312984 32.325369 109.593256 31.826552 110.092074 
C 31.327734 110.590891 31.047462 111.267528 31.047462 111.972963 
C 31.047462 112.678397 31.327734 113.355034 31.826552 113.853852 
C 32.325369 114.352669 33.002006 114.632941 33.70744 114.632941 
z
" clip-path="url(#p71fa08f2c1)" style="stroke: #000000"/>
    <path d="M 45.037966 180.072201 
C 45.743181 180.072201 46.419606 179.792016 46.918268 179.293354 
C 47.41693 178.794692 47.697114 178.118267 47.697114 177.413053 
C 47.697114 176.707838 47.41693 176.031413 46.918268 175.532751 
C 46.419606 175.034089 45.743181 174.753905 45.037966 174.753905 
C 44.332752 174.753905 43.656327 175.034089 43.157665 175.532751 
C 42.659003 176.031413 42.378818 176.707838 42.378818 177.413053 
C 42.378818 178.118267 42.659003 178.794692 43.157665 179.293354 
C 43.656327 179.792016 44.332752 180.072201 45.037966 180.072201 
z
" clip-path="url(#p71fa08f2c1)" style="stroke: #000000"/>
    <path d="M 41.264234 171.310299 
C 41.969449 171.310299 42.645874 171.030115 43.144536 170.531453 
C 43.643198 170.032791 43.923382 169.356366 43.923382 168.651151 
C 43.923382 167.945937 43.643198 167.269511 43.144536 166.77085 
C 42.645874 166.272188 41.969449 165.992003 41.264234 165.992003 
C 40.55902 165.992003 39.882595 166.272188 39.383933 166.77085 
C 38.885271 167.269511 38.605086 167.945937 38.605086 168.651151 
C 38.605086 169.356366 38.885271 170.032791 39.383933 170.531453 
C 39.882595 171.030115 40.55902 171.310299 41.264234 171.310299 
z
" clip-path="url(#p71fa08f2c1)" style="stroke: #000000"/>
    <path d="M 35.895475 157.520363 
C 36.60091 157.520363 37.277547 157.24009 37.776364 156.741273 
C 38.275182 156.242455 38.555454 155.565819 38.555454 154.860384 
C 38.555454 154.15495 38.275182 153.478313 37.776364 152.979495 
C 37.277547 152.480678 36.60091 152.200406 35.895475 152.200406 
C 35.190041 152.200406 34.513404 152.480678 34.014587 152.979495 
C 33.515769 153.478313 33.235497 154.15495 33.235497 154.860384 
C 33.235497 155.565819 33.515769 156.242455 34.014587 156.741273 
C 34.513404 157.24009 35.190041 157.520363 35.895475 157.520363 
z
" clip-path="url(#p71fa08f2c1)" style="stroke: #000000"/>
    <path d="M 32.947391 153.673003 
C 33.508227 153.673003 34.046168 153.45018 34.442739 153.053609 
C 34.839311 152.657038 35.062133 152.119096 35.062133 151.55826 
C 35.062133 150.997424 34.839311 150.459482 34.442739 150.062911 
C 34.046168 149.66634 33.508227 149.443517 32.947391 149.443517 
C 32.386554 149.443517 31.848613 149.66634 31.452042 150.062911 
C 31.055471 150.459482 30.832648 150.997424 30.832648 151.55826 
C 30.832648 152.119096 31.055471 152.657038 31.452042 153.053609 
C 31.848613 153.45018 32.386554 153.673003 32.947391 153.673003 
z
" clip-path="url(#p71fa08f2c1)" style="stroke: #000000"/>
   </g>
   <g id="matplotlib.axis_1">
    <g id="xtick_1">
     <g id="line2d_1">
      <defs>
       <path id="m642aa2faec" d="M 0 0 
L 0 3.5 
" style="stroke: #000000; stroke-width: 0.8"/>
      </defs>
      <g>
       <use xlink:href="#m642aa2faec" x="18" y="189" style="stroke: #000000; stroke-width: 0.8"/>
      </g>
     </g>
     <g id="text_1">
      <!-- 10 -->
      <g transform="translate(7.447656 203.598437)scale(0.1 -0.1)">
       <defs>
        <path id="DejaVuSans-2212" d="M 678 2272 
L 4684 2272 
L 4684 1741 
L 678 1741 
L 678 2272 
z
" transform="scale(0.015625)"/>
        <path id="DejaVuSans-31" d="M 794 531 
L 1825 531 
L 1825 4091 
L 703 3866 
L 703 4441 
L 1819 4666 
L 2450 4666 
L 2450 531 
L 3481 531 
L 3481 0 
L 794 0 
L 794 531 
z
" transform="scale(0.015625)"/>
        <path id="DejaVuSans-30" d="M 2034 4250 
Q 1547 4250 1301 3770 
Q 1056 3291 1056 2328 
Q 1056 1369 1301 889 
Q 1547 409 2034 409 
Q 2525 409 2770 889 
Q 3016 1369 3016 2328 
Q 3016 3291 2770 3770 
Q 2525 4250 2034 4250 
z
M 2034 4750 
Q 2819 4750 3233 4129 
Q 3647 3509 3647 2328 
Q 3647 1150 3233 529 
Q 2819 -91 2034 -91 
Q 1250 -91 836 529 
Q 422 1150 422 2328 
Q 422 3509 836 4129 
Q 1250 4750 2034 4750 
z
" transform="scale(0.015625)"/>
       </defs>
       <use xlink:href="#DejaVuSans-2212"/>
       <use xlink:href="#DejaVuSans-31" x="83.789062"/>
       <use xlink:href="#DejaVuSans-30" x="147.412109"/>
      </g>
     </g>
    </g>
    <g id="xtick_2">
     <g id="line2d_2">
      <g>
       <use xlink:href="#m642aa2faec" x="73.8" y="189" style="stroke: #000000; stroke-width: 0.8"/>
      </g>
     </g>
     <g id="text_2">
      <!-- 0 -->
      <g transform="translate(70.61875 203.598437)scale(0.1 -0.1)">
       <use xlink:href="#DejaVuSans-30"/>
      </g>
     </g>
    </g>
    <g id="xtick_3">
     <g id="line2d_3">
      <g>
       <use xlink:href="#m642aa2faec" x="129.6" y="189" style="stroke: #000000; stroke-width: 0.8"/>
      </g>
     </g>
     <g id="text_3">
      <!-- 10 -->
      <g transform="translate(123.2375 203.598437)scale(0.1 -0.1)">
       <use xlink:href="#DejaVuSans-31"/>
       <use xlink:href="#DejaVuSans-30" x="63.623047"/>
      </g>
     </g>
    </g>
   </g>
   <g id="matplotlib.axis_2">
    <g id="ytick_1">
     <g id="line2d_4">
      <defs>
       <path id="mb67fa9407a" d="M 0 0 
L -3.5 0 
" style="stroke: #000000; stroke-width: 0.8"/>
      </defs>
      <g>
       <use xlink:href="#mb67fa9407a" x="18" y="189" style="stroke: #000000; stroke-width: 0.8"/>
      </g>
     </g>
     <g id="text_4">
      <!-- 15 -->
      <g transform="translate(-10.104688 192.799219)scale(0.1 -0.1)">
       <defs>
        <path id="DejaVuSans-35" d="M 691 4666 
L 3169 4666 
L 3169 4134 
L 1269 4134 
L 1269 2991 
Q 1406 3038 1543 3061 
Q 1681 3084 1819 3084 
Q 2600 3084 3056 2656 
Q 3513 2228 3513 1497 
Q 3513 744 3044 326 
Q 2575 -91 1722 -91 
Q 1428 -91 1123 -41 
Q 819 9 494 109 
L 494 744 
Q 775 591 1075 516 
Q 1375 441 1709 441 
Q 2250 441 2565 725 
Q 2881 1009 2881 1497 
Q 2881 1984 2565 2268 
Q 2250 2553 1709 2553 
Q 1456 2553 1204 2497 
Q 953 2441 691 2322 
L 691 4666 
z
" transform="scale(0.015625)"/>
       </defs>
       <use xlink:href="#DejaVuSans-2212"/>
       <use xlink:href="#DejaVuSans-31" x="83.789062"/>
       <use xlink:href="#DejaVuSans-35" x="147.412109"/>
      </g>
     </g>
    </g>
    <g id="ytick_2">
     <g id="line2d_5">
      <g>
       <use xlink:href="#mb67fa9407a" x="18" y="161.82" style="stroke: #000000; stroke-width: 0.8"/>
      </g>
     </g>
     <g id="text_5">
      <!-- 10 -->
      <g transform="translate(-10.104688 165.619219)scale(0.1 -0.1)">
       <use xlink:href="#DejaVuSans-2212"/>
       <use xlink:href="#DejaVuSans-31" x="83.789062"/>
       <use xlink:href="#DejaVuSans-30" x="147.412109"/>
      </g>
     </g>
    </g>
    <g id="ytick_3">
     <g id="line2d_6">
      <g>
       <use xlink:href="#mb67fa9407a" x="18" y="134.64" style="stroke: #000000; stroke-width: 0.8"/>
      </g>
     </g>
     <g id="text_6">
      <!-- 5 -->
      <g transform="translate(-3.742188 138.439219)scale(0.1 -0.1)">
       <use xlink:href="#DejaVuSans-2212"/>
       <use xlink:href="#DejaVuSans-35" x="83.789062"/>
      </g>
     </g>
    </g>
    <g id="ytick_4">
     <g id="line2d_7">
      <g>
       <use xlink:href="#mb67fa9407a" x="18" y="107.46" style="stroke: #000000; stroke-width: 0.8"/>
      </g>
     </g>
     <g id="text_7">
      <!-- 0 -->
      <g transform="translate(4.6375 111.259219)scale(0.1 -0.1)">
       <use xlink:href="#DejaVuSans-30"/>
      </g>
     </g>
    </g>
    <g id="ytick_5">
     <g id="line2d_8">
      <g>
       <use xlink:href="#mb67fa9407a" x="18" y="80.28" style="stroke: #000000; stroke-width: 0.8"/>
      </g>
     </g>
     <g id="text_8">
      <!-- 5 -->
      <g transform="translate(4.6375 84.079219)scale(0.1 -0.1)">
       <use xlink:href="#DejaVuSans-35"/>
      </g>
     </g>
    </g>
    <g id="ytick_6">
     <g id="line2d_9">
      <g>
       <use xlink:href="#mb67fa9407a" x="18" y="53.1" style="stroke: #000000; stroke-width: 0.8"/>
      </g>
     </g>
     <g id="text_9">
      <!-- 10 -->
      <g transform="translate(-1.725 56.899219)scale(0.1 -0.1)">
       <use xlink:href="#DejaVuSans-31"/>
       <use xlink:href="#DejaVuSans-30" x="63.623047"/>
      </g>
     </g>
    </g>
    <g id="ytick_7">
     <g id="line2d_10">
      <g>
       <use xlink:href="#mb67fa9407a" x="18" y="25.92" style="stroke: #000000; stroke-width: 0.8"/>
      </g>
     </g>
     <g id="text_10">
      <!-- 15 -->
      <g transform="translate(-1.725 29.719219)scale(0.1 -0.1)">
       <use xlink:href="#DejaVuSans-31"/>
       <use xlink:href="#DejaVuSans-35" x="63.623047"/>
      </g>
     </g>
    </g>
   </g>
   <g id="patch_3">
    <path d="M 18 189 
L 18 25.92 
" style="fill: none; stroke: #000000; stroke-width: 0.8; stroke-linejoin: miter; stroke-linecap: square"/>
   </g>
   <g id="patch_4">
    <path d="M 129.6 189 
L 129.6 25.92 
" style="fill: none; stroke: #000000; stroke-width: 0.8; stroke-linejoin: miter; stroke-linecap: square"/>
   </g>
   <g id="patch_5">
    <path d="M 18 189 
L 129.6 189 
" style="fill: none; stroke: #000000; stroke-width: 0.8; stroke-linejoin: miter; stroke-linecap: square"/>
   </g>
   <g id="patch_6">
    <path d="M 18 25.92 
L 129.6 25.92 
" style="fill: none; stroke: #000000; stroke-width: 0.8; stroke-linejoin: miter; stroke-linecap: square"/>
   </g>
  </g>
 </g>
 <defs>
  <clipPath id="p71fa08f2c1">
   <rect x="18" y="25.92" width="111.6" height="163.08"/>
  </clipPath>
 </defs>
</svg>
