<?xml version="1.0" encoding="utf-8" standalone="no"?>
<!DOCTYPE svg PUBLIC "-//W3C//DTD SVG 1.1//EN"
  "http://www.w3.org/Graphics/SVG/1.1/DTD/svg11.dtd">
<svg xmlns:xlink="http://www.w3.org/1999/xlink" width="144pt" height="216pt" viewBox="0 0 144 216" xmlns="http://www.w3.org/2000/svg" version="1.1">
 <metadata>
  <rdf:RDF xmlns:dc="http://purl.org/dc/elements/1.1/" xmlns:cc="http://creativecommons.org/ns#" xmlns:rdf="http://www.w3.org/1999/02/22-rdf-syntax-ns#">
   <cc:Work>
    <dc:type rdf:resource="http://purl.org/dc/dcmitype/StillImage"/>
    <dc:date>2022-06-18T00:14:20.508663</dc:date>
    <dc:format>image/svg+xml</dc:format>
    <dc:creator>
     <cc:Agent>
      <dc:title>Matplotlib v3.5.1, https://matplotlib.org/</dc:title>
     </cc:Agent>
    </dc:creator>
   </cc:Work>
  </rdf:RDF>
 </metadata>
 <defs>
  <style type="text/css">*{stroke-linejoin: round; stroke-linecap: butt}</style>
 </defs>
 <g id="figure_1">
  <g id="patch_1">
   <path d="M 0 216 
L 144 216 
L 144 0 
L 0 0 
L 0 216 
z
" style="fill: none"/>
  </g>
  <g id="axes_1">
   <g id="patch_2">
    <path d="M 18 189 
L 129.6 189 
L 129.6 25.92 
L 18 25.92 
z
" style="fill: #ffffff"/>
   </g>
   <g id="PathCollection_1">
    <defs>
     <path id="me2a5fce185" d="M 0 2.738613 
C 0.726289 2.738613 1.422928 2.450055 1.936492 1.936492 
C 2.450055 1.422928 2.738613 0.726289 2.738613 0 
C 2.738613 -0.726289 2.450055 -1.422928 1.936492 -1.936492 
C 1.422928 -2.450055 0.726289 -2.738613 0 -2.738613 
C -0.726289 -2.738613 -1.422928 -2.450055 -1.936492 -1.936492 
C -2.450055 -1.422928 -2.738613 -0.726289 -2.738613 0 
C -2.738613 0.726289 -2.450055 1.422928 -1.936492 1.936492 
C -1.422928 2.450055 -0.726289 2.738613 0 2.738613 
z
" style="stroke: #ff0000; stroke-width: 1.75"/>
    </defs>
    <g clip-path="url(#p139df7c88a)">
     <use xlink:href="#me2a5fce185" x="66.825" y="83.92143" style="fill: #ff0000; stroke: #ff0000; stroke-width: 1.75"/>
     <use xlink:href="#me2a5fce185" x="87.75" y="95.690715" style="fill: #ff0000; stroke: #ff0000; stroke-width: 1.75"/>
     <use xlink:href="#me2a5fce185" x="66.825" y="107.46" style="fill: #ff0000; stroke: #ff0000; stroke-width: 1.75"/>
     <use xlink:href="#me2a5fce185" x="73.8" y="119.229285" style="fill: #ff0000; stroke: #ff0000; stroke-width: 1.75"/>
     <use xlink:href="#me2a5fce185" x="87.75" y="119.229285" style="fill: #ff0000; stroke: #ff0000; stroke-width: 1.75"/>
     <use xlink:href="#me2a5fce185" x="66.825" y="130.99857" style="fill: #ff0000; stroke: #ff0000; stroke-width: 1.75"/>
     <use xlink:href="#me2a5fce185" x="80.775" y="130.99857" style="fill: #ff0000; stroke: #ff0000; stroke-width: 1.75"/>
    </g>
   </g>
   <g id="PathCollection_2">
    <defs>
     <path id="C0_0_0c0ffe3c21" d="M 0 2.738613 
C 0.726289 2.738613 1.422928 2.450055 1.936492 1.936492 
C 2.450055 1.422928 2.738613 0.726289 2.738613 -0 
C 2.738613 -0.726289 2.450055 -1.422928 1.936492 -1.936492 
C 1.422928 -2.450055 0.726289 -2.738613 0 -2.738613 
C -0.726289 -2.738613 -1.422928 -2.450055 -1.936492 -1.936492 
C -2.450055 -1.422928 -2.738613 -0.726289 -2.738613 0 
C -2.738613 0.726289 -2.450055 1.422928 -1.936492 1.936492 
C -1.422928 2.450055 -0.726289 2.738613 0 2.738613 
z
"/>
    </defs>
    <g clip-path="url(#p139df7c88a)">
     <use xlink:href="#C0_0_0c0ffe3c21" x="80.775" y="83.92143" style="fill: none; stroke: #ff0000; stroke-width: 1.75"/>
    </g>
    <g clip-path="url(#p139df7c88a)">
     <use xlink:href="#C0_0_0c0ffe3c21" x="59.85" y="95.690715" style="fill: none; stroke: #ff0000; stroke-width: 1.75"/>
    </g>
    <g clip-path="url(#p139df7c88a)">
     <use xlink:href="#C0_0_0c0ffe3c21" x="73.8" y="95.690715" style="fill: none; stroke: #ff0000; stroke-width: 1.75"/>
    </g>
    <g clip-path="url(#p139df7c88a)">
     <use xlink:href="#C0_0_0c0ffe3c21" x="52.875" y="107.46" style="fill: none; stroke: #ff0000; stroke-width: 1.75"/>
    </g>
    <g clip-path="url(#p139df7c88a)">
     <use xlink:href="#C0_0_0c0ffe3c21" x="80.775" y="107.46" style="fill: none; stroke: #ff0000; stroke-width: 1.75"/>
    </g>
    <g clip-path="url(#p139df7c88a)">
     <use xlink:href="#C0_0_0c0ffe3c21" x="94.725" y="107.46" style="fill: none; stroke: #ff0000; stroke-width: 1.75"/>
    </g>
    <g clip-path="url(#p139df7c88a)">
     <use xlink:href="#C0_0_0c0ffe3c21" x="59.85" y="119.229285" style="fill: none; stroke: #ff0000; stroke-width: 1.75"/>
    </g>
   </g>
   <g id="PathCollection_3">
    <path d="M 122.307777 140.80228 
C 122.525364 140.80228 122.734069 140.715832 122.887926 140.561975 
C 123.041783 140.408117 123.128232 140.199413 123.128232 139.981826 
C 123.128232 139.764239 123.041783 139.555534 122.887926 139.401677 
C 122.734069 139.247819 122.525364 139.161371 122.307777 139.161371 
C 122.09019 139.161371 121.881485 139.247819 121.727628 139.401677 
C 121.573771 139.555534 121.487323 139.764239 121.487323 139.981826 
C 121.487323 140.199413 121.573771 140.408117 121.727628 140.561975 
C 121.881485 140.715832 122.09019 140.80228 122.307777 140.80228 
z
" clip-path="url(#p139df7c88a)" style="stroke: #000000"/>
    <path d="M 117.946321 121.06187 
C 118.226739 121.06187 118.49571 120.950459 118.693995 120.752173 
C 118.892281 120.553888 119.003692 120.284917 119.003692 120.004499 
C 119.003692 119.724081 118.892281 119.45511 118.693995 119.256824 
C 118.49571 119.058539 118.226739 118.947128 117.946321 118.947128 
C 117.665903 118.947128 117.396932 119.058539 117.198646 119.256824 
C 117.000361 119.45511 116.88895 119.724081 116.88895 120.004499 
C 116.88895 120.284917 117.000361 120.553888 117.198646 120.752173 
C 117.396932 120.950459 117.665903 121.06187 117.946321 121.06187 
z
" clip-path="url(#p139df7c88a)" style="stroke: #000000"/>
    <path d="M 114.654539 111.776098 
C 114.654539 111.776098 114.654539 111.776098 114.654539 111.776098 
C 114.654539 111.776098 114.654539 111.776098 114.654539 111.776098 
C 114.654539 111.776098 114.654539 111.776098 114.654539 111.776098 
C 114.654539 111.776098 114.654539 111.776098 114.654539 111.776098 
C 114.654539 111.776098 114.654539 111.776098 114.654539 111.776098 
C 114.654539 111.776098 114.654539 111.776098 114.654539 111.776098 
C 114.654539 111.776098 114.654539 111.776098 114.654539 111.776098 
C 114.654539 111.776098 114.654539 111.776098 114.654539 111.776098 
z
" clip-path="url(#p139df7c88a)" style="stroke: #000000"/>
    <path d="M 108.392371 99.72102 
C 108.628173 99.72102 108.85435 99.627335 109.021088 99.460597 
C 109.187825 99.293859 109.281511 99.067683 109.281511 98.83188 
C 109.281511 98.596078 109.187825 98.369901 109.021088 98.203163 
C 108.85435 98.036426 108.628173 97.94274 108.392371 97.94274 
C 108.156568 97.94274 107.930392 98.036426 107.763654 98.203163 
C 107.596916 98.369901 107.503231 98.596078 107.503231 98.83188 
C 107.503231 99.067683 107.596916 99.293859 107.763654 99.460597 
C 107.930392 99.627335 108.156568 99.72102 108.392371 99.72102 
z
" clip-path="url(#p139df7c88a)" style="stroke: #000000"/>
    <path d="M 106.304153 92.695791 
C 106.539956 92.695791 106.766133 92.602106 106.93287 92.435368 
C 107.099608 92.26863 107.193293 92.042454 107.193293 91.806651 
C 107.193293 91.570849 107.099608 91.344672 106.93287 91.177935 
C 106.766133 91.011197 106.539956 90.917512 106.304153 90.917512 
C 106.068351 90.917512 105.842174 91.011197 105.675437 91.177935 
C 105.508699 91.344672 105.415014 91.570849 105.415014 91.806651 
C 105.415014 92.042454 105.508699 92.26863 105.675437 92.435368 
C 105.842174 92.602106 106.068351 92.695791 106.304153 92.695791 
z
" clip-path="url(#p139df7c88a)" style="stroke: #000000"/>
    <path d="M 102.254271 78.977963 
C 102.47728 78.977963 102.691184 78.889361 102.848875 78.73167 
C 103.006566 78.573979 103.095168 78.360075 103.095168 78.137066 
C 103.095168 77.914058 103.006566 77.700153 102.848875 77.542463 
C 102.691184 77.384772 102.47728 77.29617 102.254271 77.29617 
C 102.031263 77.29617 101.817358 77.384772 101.659668 77.542463 
C 101.501977 77.700153 101.413375 77.914058 101.413375 78.137066 
C 101.413375 78.360075 101.501977 78.573979 101.659668 78.73167 
C 101.817358 78.889361 102.031263 78.977963 102.254271 78.977963 
z
" clip-path="url(#p139df7c88a)" style="stroke: #000000"/>
    <path d="M 99.855871 68.900556 
C 100.136289 68.900556 100.405259 68.789145 100.603545 68.590859 
C 100.80183 68.392574 100.913242 68.123603 100.913242 67.843185 
C 100.913242 67.562767 100.80183 67.293796 100.603545 67.09551 
C 100.405259 66.897225 100.136289 66.785814 99.855871 66.785814 
C 99.575452 66.785814 99.306482 66.897225 99.108196 67.09551 
C 98.909911 67.293796 98.798499 67.562767 98.798499 67.843185 
C 98.798499 68.123603 98.909911 68.392574 99.108196 68.590859 
C 99.306482 68.789145 99.575452 68.900556 99.855871 68.900556 
z
" clip-path="url(#p139df7c88a)" style="stroke: #000000"/>
    <path d="M 94.21244 59.580766 
C 94.491977 59.580766 94.760104 59.469704 94.957767 59.272041 
C 95.15543 59.074378 95.266491 58.806252 95.266491 58.526714 
C 95.266491 58.247177 95.15543 57.97905 94.957767 57.781387 
C 94.760104 57.583724 94.491977 57.472663 94.21244 57.472663 
C 93.932902 57.472663 93.664776 57.583724 93.467113 57.781387 
C 93.26945 57.97905 93.158388 58.247177 93.158388 58.526714 
C 93.158388 58.806252 93.26945 59.074378 93.467113 59.272041 
C 93.664776 59.469704 93.932902 59.580766 94.21244 59.580766 
z
" clip-path="url(#p139df7c88a)" style="stroke: #000000"/>
    <path d="M 91.757503 45.963822 
C 91.97319 45.963822 92.180071 45.878129 92.332585 45.725615 
C 92.485098 45.573102 92.570791 45.36622 92.570791 45.150534 
C 92.570791 44.934847 92.485098 44.727966 92.332585 44.575452 
C 92.180071 44.422939 91.97319 44.337246 91.757503 44.337246 
C 91.541817 44.337246 91.334935 44.422939 91.182421 44.575452 
C 91.029908 44.727966 90.944215 44.934847 90.944215 45.150534 
C 90.944215 45.36622 91.029908 45.573102 91.182421 45.725615 
C 91.334935 45.878129 91.541817 45.963822 91.757503 45.963822 
z
" clip-path="url(#p139df7c88a)" style="stroke: #000000"/>
    <path d="M 89.554992 40.993015 
C 89.760328 40.993015 89.957282 40.911434 90.102476 40.76624 
C 90.247671 40.621045 90.329252 40.424091 90.329252 40.218755 
C 90.329252 40.013419 90.247671 39.816465 90.102476 39.67127 
C 89.957282 39.526076 89.760328 39.444495 89.554992 39.444495 
C 89.349655 39.444495 89.152702 39.526076 89.007507 39.67127 
C 88.862312 39.816465 88.780731 40.013419 88.780731 40.218755 
C 88.780731 40.424091 88.862312 40.621045 89.007507 40.76624 
C 89.152702 40.911434 89.349655 40.993015 89.554992 40.993015 
z
" clip-path="url(#p139df7c88a)" style="stroke: #000000"/>
    <path d="M 123.493855 172.74436 
C 123.718586 172.74436 123.934142 172.655074 124.09305 172.496165 
C 124.251959 172.337257 124.341245 172.1217 124.341245 171.89697 
C 124.341245 171.672239 124.251959 171.456683 124.09305 171.297775 
C 123.934142 171.138866 123.718586 171.04958 123.493855 171.04958 
C 123.269124 171.04958 123.053568 171.138866 122.89466 171.297775 
C 122.735751 171.456683 122.646465 171.672239 122.646465 171.89697 
C 122.646465 172.1217 122.735751 172.337257 122.89466 172.496165 
C 123.053568 172.655074 123.269124 172.74436 123.493855 172.74436 
z
" clip-path="url(#p139df7c88a)" style="stroke: #000000"/>
    <path d="M 119.751356 161.769469 
C 119.961017 161.769469 120.162119 161.68617 120.310373 161.537917 
C 120.458626 161.389663 120.541925 161.188561 120.541925 160.9789 
C 120.541925 160.769238 120.458626 160.568136 120.310373 160.419883 
C 120.162119 160.271629 119.961017 160.18833 119.751356 160.18833 
C 119.541694 160.18833 119.340592 160.271629 119.192339 160.419883 
C 119.044085 160.568136 118.960786 160.769238 118.960786 160.9789 
C 118.960786 161.188561 119.044085 161.389663 119.192339 161.537917 
C 119.340592 161.68617 119.541694 161.769469 119.751356 161.769469 
z
" clip-path="url(#p139df7c88a)" style="stroke: #000000"/>
    <path d="M 119.17287 155.892856 
C 119.45416 155.892856 119.723967 155.781098 119.92287 155.582196 
C 120.121772 155.383293 120.23353 155.113486 120.23353 154.832196 
C 120.23353 154.550905 120.121772 154.281098 119.92287 154.082196 
C 119.723967 153.883293 119.45416 153.771536 119.17287 153.771536 
C 118.891579 153.771536 118.621772 153.883293 118.42287 154.082196 
C 118.223967 154.281098 118.112209 154.550905 118.112209 154.832196 
C 118.112209 155.113486 118.223967 155.383293 118.42287 155.582196 
C 118.621772 155.781098 118.891579 155.892856 119.17287 155.892856 
z
" clip-path="url(#p139df7c88a)" style="stroke: #000000"/>
    <path d="M 112.228338 140.153297 
C 112.442073 140.153297 112.647082 140.068379 112.798215 139.917246 
C 112.949348 139.766113 113.034266 139.561104 113.034266 139.347369 
C 113.034266 139.133635 112.949348 138.928626 112.798215 138.777493 
C 112.647082 138.62636 112.442073 138.541442 112.228338 138.541442 
C 112.014604 138.541442 111.809595 138.62636 111.658462 138.777493 
C 111.507328 138.928626 111.422411 139.133635 111.422411 139.347369 
C 111.422411 139.561104 111.507328 139.766113 111.658462 139.917246 
C 111.809595 140.068379 112.014604 140.153297 112.228338 140.153297 
z
" clip-path="url(#p139df7c88a)" style="stroke: #000000"/>
    <path d="M 108.678927 134.547388 
C 108.960217 134.547388 109.230024 134.43563 109.428927 134.236728 
C 109.627829 134.037825 109.739587 133.768018 109.739587 133.486728 
C 109.739587 133.205437 109.627829 132.93563 109.428927 132.736728 
C 109.230024 132.537825 108.960217 132.426067 108.678927 132.426067 
C 108.397636 132.426067 108.127829 132.537825 107.928927 132.736728 
C 107.730024 132.93563 107.618267 133.205437 107.618267 133.486728 
C 107.618267 133.768018 107.730024 134.037825 107.928927 134.236728 
C 108.127829 134.43563 108.397636 134.547388 108.678927 134.547388 
z
" clip-path="url(#p139df7c88a)" style="stroke: #000000"/>
    <path d="M 112.556666 122.641099 
C 112.837956 122.641099 113.107764 122.529341 113.306666 122.330439 
C 113.505568 122.131536 113.617326 121.861729 113.617326 121.580439 
C 113.617326 121.299148 113.505568 121.029341 113.306666 120.830439 
C 113.107764 120.631536 112.837956 120.519779 112.556666 120.519779 
C 112.275376 120.519779 112.005568 120.631536 111.806666 120.830439 
C 111.607764 121.029341 111.496006 121.299148 111.496006 121.580439 
C 111.496006 121.861729 111.607764 122.131536 111.806666 122.330439 
C 112.005568 122.529341 112.275376 122.641099 112.556666 122.641099 
z
" clip-path="url(#p139df7c88a)" style="stroke: #000000"/>
    <path d="M 106.322302 114.099499 
C 106.509829 114.099499 106.6897 114.024994 106.822302 113.892392 
C 106.954903 113.759791 107.029409 113.579919 107.029409 113.392392 
C 107.029409 113.204865 106.954903 113.024994 106.822302 112.892392 
C 106.6897 112.759791 106.509829 112.685286 106.322302 112.685286 
C 106.134775 112.685286 105.954903 112.759791 105.822302 112.892392 
C 105.6897 113.024994 105.615195 113.204865 105.615195 113.392392 
C 105.615195 113.579919 105.6897 113.759791 105.822302 113.892392 
C 105.954903 114.024994 106.134775 114.099499 106.322302 114.099499 
z
" clip-path="url(#p139df7c88a)" style="stroke: #000000"/>
    <path d="M 100.753265 103.030691 
C 100.958601 103.030691 101.155555 102.94911 101.300749 102.803916 
C 101.445944 102.658721 101.527525 102.461767 101.527525 102.256431 
C 101.527525 102.051095 101.445944 101.854141 101.300749 101.708946 
C 101.155555 101.563752 100.958601 101.482171 100.753265 101.482171 
C 100.547928 101.482171 100.350975 101.563752 100.20578 101.708946 
C 100.060585 101.854141 99.979004 102.051095 99.979004 102.256431 
C 99.979004 102.461767 100.060585 102.658721 100.20578 102.803916 
C 100.350975 102.94911 100.547928 103.030691 100.753265 103.030691 
z
" clip-path="url(#p139df7c88a)" style="stroke: #000000"/>
    <path d="M 95.068543 93.416463 
C 95.304345 93.416463 95.530522 93.322777 95.697259 93.15604 
C 95.863997 92.989302 95.957682 92.763126 95.957682 92.527323 
C 95.957682 92.29152 95.863997 92.065344 95.697259 91.898606 
C 95.530522 91.731869 95.304345 91.638183 95.068543 91.638183 
C 94.83274 91.638183 94.606564 91.731869 94.439826 91.898606 
C 94.273088 92.065344 94.179403 92.29152 94.179403 92.527323 
C 94.179403 92.763126 94.273088 92.989302 94.439826 93.15604 
C 94.606564 93.322777 94.83274 93.416463 95.068543 93.416463 
z
" clip-path="url(#p139df7c88a)" style="stroke: #000000"/>
    <path d="M 92.450489 83.346762 
C 92.673497 83.346762 92.887402 83.25816 93.045092 83.10047 
C 93.202783 82.942779 93.291385 82.728874 93.291385 82.505866 
C 93.291385 82.282858 93.202783 82.068953 93.045092 81.911262 
C 92.887402 81.753572 92.673497 81.66497 92.450489 81.66497 
C 92.22748 81.66497 92.013576 81.753572 91.855885 81.911262 
C 91.698194 82.068953 91.609592 82.282858 91.609592 82.505866 
C 91.609592 82.728874 91.698194 82.942779 91.855885 83.10047 
C 92.013576 83.25816 92.22748 83.346762 92.450489 83.346762 
z
" clip-path="url(#p139df7c88a)" style="stroke: #000000"/>
    <path d="M 90.385405 70.470629 
C 90.665824 70.470629 90.934794 70.359218 91.13308 70.160932 
C 91.331365 69.962646 91.442777 69.693676 91.442777 69.413258 
C 91.442777 69.13284 91.331365 68.863869 91.13308 68.665583 
C 90.934794 68.467298 90.665824 68.355886 90.385405 68.355886 
C 90.104987 68.355886 89.836017 68.467298 89.637731 68.665583 
C 89.439445 68.863869 89.328034 69.13284 89.328034 69.413258 
C 89.328034 69.693676 89.439445 69.962646 89.637731 70.160932 
C 89.836017 70.359218 90.104987 70.470629 90.385405 70.470629 
z
" clip-path="url(#p139df7c88a)" style="stroke: #000000"/>
    <path d="M 87.182457 61.32968 
C 87.182457 61.32968 87.182457 61.32968 87.182457 61.32968 
C 87.182457 61.32968 87.182457 61.32968 87.182457 61.32968 
C 87.182457 61.32968 87.182457 61.32968 87.182457 61.32968 
C 87.182457 61.32968 87.182457 61.32968 87.182457 61.32968 
C 87.182457 61.32968 87.182457 61.32968 87.182457 61.32968 
C 87.182457 61.32968 87.182457 61.32968 87.182457 61.32968 
C 87.182457 61.32968 87.182457 61.32968 87.182457 61.32968 
C 87.182457 61.32968 87.182457 61.32968 87.182457 61.32968 
z
" clip-path="url(#p139df7c88a)" style="stroke: #000000"/>
    <path d="M 82.099348 52.726271 
C 82.251861 52.726271 82.398149 52.665676 82.505992 52.557833 
C 82.613835 52.44999 82.674429 52.303702 82.674429 52.151189 
C 82.674429 51.998676 82.613835 51.852388 82.505992 51.744545 
C 82.398149 51.636702 82.251861 51.576107 82.099348 51.576107 
C 81.946834 51.576107 81.800547 51.636702 81.692704 51.744545 
C 81.58486 51.852388 81.524266 51.998676 81.524266 52.151189 
C 81.524266 52.303702 81.58486 52.44999 81.692704 52.557833 
C 81.800547 52.665676 81.946834 52.726271 82.099348 52.726271 
z
" clip-path="url(#p139df7c88a)" style="stroke: #000000"/>
    <path d="M 76.030169 42.17866 
C 76.123933 42.17866 76.213868 42.141407 76.280169 42.075106 
C 76.34647 42.008805 76.383722 41.91887 76.383722 41.825106 
C 76.383722 41.731343 76.34647 41.641407 76.280169 41.575106 
C 76.213868 41.508805 76.123933 41.471553 76.030169 41.471553 
C 75.936406 41.471553 75.84647 41.508805 75.780169 41.575106 
C 75.713868 41.641407 75.676616 41.731343 75.676616 41.825106 
C 75.676616 41.91887 75.713868 42.008805 75.780169 42.075106 
C 75.84647 42.141407 75.936406 42.17866 76.030169 42.17866 
z
" clip-path="url(#p139df7c88a)" style="stroke: #000000"/>
    <path d="M 71.568401 31.860501 
C 71.568401 31.860501 71.568401 31.860501 71.568401 31.860501 
C 71.568401 31.860501 71.568401 31.860501 71.568401 31.860501 
C 71.568401 31.860501 71.568401 31.860501 71.568401 31.860501 
C 71.568401 31.860501 71.568401 31.860501 71.568401 31.860501 
C 71.568401 31.860501 71.568401 31.860501 71.568401 31.860501 
C 71.568401 31.860501 71.568401 31.860501 71.568401 31.860501 
C 71.568401 31.860501 71.568401 31.860501 71.568401 31.860501 
C 71.568401 31.860501 71.568401 31.860501 71.568401 31.860501 
z
" clip-path="url(#p139df7c88a)" style="stroke: #000000"/>
    <path d="M 71.752977 24.277978 
C 71.752977 24.277978 71.752977 24.277978 71.752977 24.277978 
C 71.752977 24.277978 71.752977 24.277978 71.752977 24.277978 
C 71.752977 24.277978 71.752977 24.277978 71.752977 24.277978 
C 71.752977 24.277978 71.752977 24.277978 71.752977 24.277978 
C 71.752977 24.277978 71.752977 24.277978 71.752977 24.277978 
C 71.752977 24.277978 71.752977 24.277978 71.752977 24.277978 
C 71.752977 24.277978 71.752977 24.277978 71.752977 24.277978 
C 71.752977 24.277978 71.752977 24.277978 71.752977 24.277978 
z
" clip-path="url(#p139df7c88a)" style="stroke: #000000"/>
    <path d="M 113.962438 179.069168 
C 114.196753 179.069168 114.421502 178.976074 114.587188 178.810388 
C 114.752873 178.644702 114.845967 178.419953 114.845967 178.185638 
C 114.845967 177.951323 114.752873 177.726574 114.587188 177.560888 
C 114.421502 177.395203 114.196753 177.302109 113.962438 177.302109 
C 113.728123 177.302109 113.503374 177.395203 113.337688 177.560888 
C 113.172002 177.726574 113.078908 177.951323 113.078908 178.185638 
C 113.078908 178.419953 113.172002 178.644702 113.337688 178.810388 
C 113.503374 178.976074 113.728123 179.069168 113.962438 179.069168 
z
" clip-path="url(#p139df7c88a)" style="stroke: #000000"/>
    <path d="M 110.879707 165.033471 
C 111.160997 165.033471 111.430804 164.921713 111.629707 164.722811 
C 111.828609 164.523908 111.940367 164.254101 111.940367 163.972811 
C 111.940367 163.69152 111.828609 163.421713 111.629707 163.222811 
C 111.430804 163.023908 111.160997 162.91215 110.879707 162.91215 
C 110.598416 162.91215 110.328609 163.023908 110.129707 163.222811 
C 109.930804 163.421713 109.819046 163.69152 109.819046 163.972811 
C 109.819046 164.254101 109.930804 164.523908 110.129707 164.722811 
C 110.328609 164.921713 110.598416 165.033471 110.879707 165.033471 
z
" clip-path="url(#p139df7c88a)" style="stroke: #000000"/>
    <path d="M 105.597379 154.055304 
C 105.816818 154.055304 106.027299 153.96812 106.182466 153.812953 
C 106.337633 153.657786 106.424817 153.447305 106.424817 153.227866 
C 106.424817 153.008427 106.337633 152.797946 106.182466 152.642779 
C 106.027299 152.487612 105.816818 152.400428 105.597379 152.400428 
C 105.37794 152.400428 105.167459 152.487612 105.012293 152.642779 
C 104.857126 152.797946 104.769942 153.008427 104.769942 153.227866 
C 104.769942 153.447305 104.857126 153.657786 105.012293 153.812953 
C 105.167459 153.96812 105.37794 154.055304 105.597379 154.055304 
z
" clip-path="url(#p139df7c88a)" style="stroke: #000000"/>
    <path d="M 109.69914 150.401639 
C 109.979558 150.401639 110.248529 150.290227 110.446815 150.091942 
C 110.6451 149.893656 110.756512 149.624686 110.756512 149.344268 
C 110.756512 149.063849 110.6451 148.794879 110.446815 148.596593 
C 110.248529 148.398308 109.979558 148.286896 109.69914 148.286896 
C 109.418722 148.286896 109.149751 148.398308 108.951466 148.596593 
C 108.75318 148.794879 108.641769 149.063849 108.641769 149.344268 
C 108.641769 149.624686 108.75318 149.893656 108.951466 150.091942 
C 109.149751 150.290227 109.418722 150.401639 109.69914 150.401639 
z
" clip-path="url(#p139df7c88a)" style="stroke: #000000"/>
    <path d="M 99.961057 137.750835 
C 100.093659 137.750835 100.220847 137.698152 100.31461 137.604388 
C 100.408374 137.510625 100.461057 137.383436 100.461057 137.250835 
C 100.461057 137.118233 100.408374 136.991045 100.31461 136.897281 
C 100.220847 136.803518 100.093659 136.750835 99.961057 136.750835 
C 99.828455 136.750835 99.701267 136.803518 99.607504 136.897281 
C 99.51374 136.991045 99.461057 137.118233 99.461057 137.250835 
C 99.461057 137.383436 99.51374 137.510625 99.607504 137.604388 
C 99.701267 137.698152 99.828455 137.750835 99.961057 137.750835 
z
" clip-path="url(#p139df7c88a)" style="stroke: #000000"/>
    <path d="M 96.817411 130.153512 
C 97.098701 130.153512 97.368508 130.041754 97.567411 129.842852 
C 97.766313 129.64395 97.878071 129.374142 97.878071 129.092852 
C 97.878071 128.811562 97.766313 128.541754 97.567411 128.342852 
C 97.368508 128.14395 97.098701 128.032192 96.817411 128.032192 
C 96.53612 128.032192 96.266313 128.14395 96.067411 128.342852 
C 95.868508 128.541754 95.756751 128.811562 95.756751 129.092852 
C 95.756751 129.374142 95.868508 129.64395 96.067411 129.842852 
C 96.266313 130.041754 96.53612 130.153512 96.817411 130.153512 
z
" clip-path="url(#p139df7c88a)" style="stroke: #000000"/>
    <path d="M 90.069537 120.222474 
C 90.403532 120.222474 90.723893 120.089777 90.960063 119.853606 
C 91.196233 119.617436 91.328931 119.297076 91.328931 118.963081 
C 91.328931 118.629086 91.196233 118.308725 90.960063 118.072555 
C 90.723893 117.836385 90.403532 117.703687 90.069537 117.703687 
C 89.735542 117.703687 89.415182 117.836385 89.179012 118.072555 
C 88.942841 118.308725 88.810144 118.629086 88.810144 118.963081 
C 88.810144 119.297076 88.942841 119.617436 89.179012 119.853606 
C 89.415182 120.089777 89.735542 120.222474 90.069537 120.222474 
z
" clip-path="url(#p139df7c88a)" style="stroke: #000000"/>
    <path d="M 90.813814 108.327968 
C 91.095104 108.327968 91.364912 108.21621 91.563814 108.017308 
C 91.762716 107.818406 91.874474 107.548598 91.874474 107.267308 
C 91.874474 106.986018 91.762716 106.71621 91.563814 106.517308 
C 91.364912 106.318406 91.095104 106.206648 90.813814 106.206648 
C 90.532524 106.206648 90.262716 106.318406 90.063814 106.517308 
C 89.864912 106.71621 89.753154 106.986018 89.753154 107.267308 
C 89.753154 107.548598 89.864912 107.818406 90.063814 108.017308 
C 90.262716 108.21621 90.532524 108.327968 90.813814 108.327968 
z
" clip-path="url(#p139df7c88a)" style="stroke: #000000"/>
    <path d="M 85.257376 98.553916 
C 85.538666 98.553916 85.808473 98.442158 86.007376 98.243256 
C 86.206278 98.044353 86.318036 97.774546 86.318036 97.493256 
C 86.318036 97.211965 86.206278 96.942158 86.007376 96.743256 
C 85.808473 96.544353 85.538666 96.432596 85.257376 96.432596 
C 84.976085 96.432596 84.706278 96.544353 84.507376 96.743256 
C 84.308473 96.942158 84.196715 97.211965 84.196715 97.493256 
C 84.196715 97.774546 84.308473 98.044353 84.507376 98.243256 
C 84.706278 98.442158 84.976085 98.553916 85.257376 98.553916 
z
" clip-path="url(#p139df7c88a)" style="stroke: #000000"/>
    <path d="M 84.115469 84.794418 
C 84.449464 84.794418 84.769825 84.661721 85.005995 84.42555 
C 85.242165 84.18938 85.374863 83.86902 85.374863 83.535025 
C 85.374863 83.20103 85.242165 82.880669 85.005995 82.644499 
C 84.769825 82.408329 84.449464 82.275631 84.115469 82.275631 
C 83.781474 82.275631 83.461114 82.408329 83.224944 82.644499 
C 82.988773 82.880669 82.856076 83.20103 82.856076 83.535025 
C 82.856076 83.86902 82.988773 84.18938 83.224944 84.42555 
C 83.461114 84.661721 83.781474 84.794418 84.115469 84.794418 
z
" clip-path="url(#p139df7c88a)" style="stroke: #000000"/>
    <path d="M 78.608406 76.253614 
C 78.889696 76.253614 79.159504 76.141856 79.358406 75.942953 
C 79.557308 75.744051 79.669066 75.474244 79.669066 75.192953 
C 79.669066 74.911663 79.557308 74.641856 79.358406 74.442953 
C 79.159504 74.244051 78.889696 74.132293 78.608406 74.132293 
C 78.327116 74.132293 78.057308 74.244051 77.858406 74.442953 
C 77.659504 74.641856 77.547746 74.911663 77.547746 75.192953 
C 77.547746 75.474244 77.659504 75.744051 77.858406 75.942953 
C 78.057308 76.141856 78.327116 76.253614 78.608406 76.253614 
z
" clip-path="url(#p139df7c88a)" style="stroke: #000000"/>
    <path d="M 75.174859 64.210209 
C 75.456149 64.210209 75.725957 64.098451 75.924859 63.899549 
C 76.123761 63.700647 76.235519 63.430839 76.235519 63.149549 
C 76.235519 62.868259 76.123761 62.598451 75.924859 62.399549 
C 75.725957 62.200647 75.456149 62.088889 75.174859 62.088889 
C 74.893569 62.088889 74.623761 62.200647 74.424859 62.399549 
C 74.225957 62.598451 74.114199 62.868259 74.114199 63.149549 
C 74.114199 63.430839 74.225957 63.700647 74.424859 63.899549 
C 74.623761 64.098451 74.893569 64.210209 75.174859 64.210209 
z
" clip-path="url(#p139df7c88a)" style="stroke: #000000"/>
    <path d="M 74.846094 56.036381 
C 75.125632 56.036381 75.393758 55.925319 75.591421 55.727656 
C 75.789084 55.529993 75.900146 55.261867 75.900146 54.98233 
C 75.900146 54.702792 75.789084 54.434666 75.591421 54.237003 
C 75.393758 54.03934 75.125632 53.928278 74.846094 53.928278 
C 74.566557 53.928278 74.29843 54.03934 74.100767 54.237003 
C 73.903104 54.434666 73.792043 54.702792 73.792043 54.98233 
C 73.792043 55.261867 73.903104 55.529993 74.100767 55.727656 
C 74.29843 55.925319 74.566557 56.036381 74.846094 56.036381 
z
" clip-path="url(#p139df7c88a)" style="stroke: #000000"/>
    <path d="M 66.46383 43.781774 
C 66.557593 43.781774 66.647529 43.744521 66.71383 43.678221 
C 66.780131 43.61192 66.817383 43.521984 66.817383 43.428221 
C 66.817383 43.334457 66.780131 43.244521 66.71383 43.178221 
C 66.647529 43.11192 66.557593 43.074667 66.46383 43.074667 
C 66.370067 43.074667 66.280131 43.11192 66.21383 43.178221 
C 66.147529 43.244521 66.110277 43.334457 66.110277 43.428221 
C 66.110277 43.521984 66.147529 43.61192 66.21383 43.678221 
C 66.280131 43.744521 66.370067 43.781774 66.46383 43.781774 
z
" clip-path="url(#p139df7c88a)" style="stroke: #000000"/>
    <path d="M 69.468451 31.633367 
C 69.468451 31.633367 69.468451 31.633367 69.468451 31.633367 
C 69.468451 31.633367 69.468451 31.633367 69.468451 31.633367 
C 69.468451 31.633367 69.468451 31.633367 69.468451 31.633367 
C 69.468451 31.633367 69.468451 31.633367 69.468451 31.633367 
C 69.468451 31.633367 69.468451 31.633367 69.468451 31.633367 
C 69.468451 31.633367 69.468451 31.633367 69.468451 31.633367 
C 69.468451 31.633367 69.468451 31.633367 69.468451 31.633367 
C 69.468451 31.633367 69.468451 31.633367 69.468451 31.633367 
z
" clip-path="url(#p139df7c88a)" style="stroke: #000000"/>
    <path d="M 59.941013 27.935737 
C 59.941013 27.935737 59.941013 27.935737 59.941013 27.935737 
C 59.941013 27.935737 59.941013 27.935737 59.941013 27.935737 
C 59.941013 27.935737 59.941013 27.935737 59.941013 27.935737 
C 59.941013 27.935737 59.941013 27.935737 59.941013 27.935737 
C 59.941013 27.935737 59.941013 27.935737 59.941013 27.935737 
C 59.941013 27.935737 59.941013 27.935737 59.941013 27.935737 
C 59.941013 27.935737 59.941013 27.935737 59.941013 27.935737 
C 59.941013 27.935737 59.941013 27.935737 59.941013 27.935737 
z
" clip-path="url(#p139df7c88a)" style="stroke: #000000"/>
    <path d="M 100.687681 182.743933 
C 100.923484 182.743933 101.14966 182.650247 101.316398 182.48351 
C 101.483135 182.316772 101.576821 182.090595 101.576821 181.854793 
C 101.576821 181.61899 101.483135 181.392814 101.316398 181.226076 
C 101.14966 181.059338 100.923484 180.965653 100.687681 180.965653 
C 100.451878 180.965653 100.225702 181.059338 100.058964 181.226076 
C 99.892227 181.392814 99.798541 181.61899 99.798541 181.854793 
C 99.798541 182.090595 99.892227 182.316772 100.058964 182.48351 
C 100.225702 182.650247 100.451878 182.743933 100.687681 182.743933 
z
" clip-path="url(#p139df7c88a)" style="stroke: #000000"/>
    <path d="M 99.392069 171.718365 
C 99.672487 171.718365 99.941457 171.606954 100.139743 171.408668 
C 100.338029 171.210383 100.44944 170.941412 100.44944 170.660994 
C 100.44944 170.380576 100.338029 170.111605 100.139743 169.91332 
C 99.941457 169.715034 99.672487 169.603623 99.392069 169.603623 
C 99.11165 169.603623 98.84268 169.715034 98.644394 169.91332 
C 98.446109 170.111605 98.334697 170.380576 98.334697 170.660994 
C 98.334697 170.941412 98.446109 171.210383 98.644394 171.408668 
C 98.84268 171.606954 99.11165 171.718365 99.392069 171.718365 
z
" clip-path="url(#p139df7c88a)" style="stroke: #000000"/>
    <path d="M 94.171761 163.010403 
C 94.453051 163.010403 94.722858 162.898646 94.921761 162.699743 
C 95.120663 162.500841 95.232421 162.231034 95.232421 161.949743 
C 95.232421 161.668453 95.120663 161.398646 94.921761 161.199743 
C 94.722858 161.000841 94.453051 160.889083 94.171761 160.889083 
C 93.89047 160.889083 93.620663 161.000841 93.421761 161.199743 
C 93.222858 161.398646 93.111101 161.668453 93.111101 161.949743 
C 93.111101 162.231034 93.222858 162.500841 93.421761 162.699743 
C 93.620663 162.898646 93.89047 163.010403 94.171761 163.010403 
z
" clip-path="url(#p139df7c88a)" style="stroke: #000000"/>
    <path d="M 92.213595 153.776039 
C 92.492244 153.776039 92.759517 153.66533 92.956552 153.468296 
C 93.153586 153.271261 93.264295 153.003988 93.264295 152.725339 
C 93.264295 152.44669 93.153586 152.179416 92.956552 151.982382 
C 92.759517 151.785347 92.492244 151.674639 92.213595 151.674639 
C 91.934946 151.674639 91.667672 151.785347 91.470638 151.982382 
C 91.273603 152.179416 91.162895 152.44669 91.162895 152.725339 
C 91.162895 153.003988 91.273603 153.271261 91.470638 153.468296 
C 91.667672 153.66533 91.934946 153.776039 92.213595 153.776039 
z
" clip-path="url(#p139df7c88a)" style="stroke: #000000"/>
    <path d="M 85.689016 141.375686 
C 85.969434 141.375686 86.238405 141.264274 86.43669 141.065989 
C 86.634976 140.867703 86.746387 140.598733 86.746387 140.318314 
C 86.746387 140.037896 86.634976 139.768926 86.43669 139.57064 
C 86.238405 139.372355 85.969434 139.260943 85.689016 139.260943 
C 85.408598 139.260943 85.139627 139.372355 84.941341 139.57064 
C 84.743056 139.768926 84.631644 140.037896 84.631644 140.318314 
C 84.631644 140.598733 84.743056 140.867703 84.941341 141.065989 
C 85.139627 141.264274 85.408598 141.375686 85.689016 141.375686 
z
" clip-path="url(#p139df7c88a)" style="stroke: #000000"/>
    <path d="M 82.667279 133.332492 
C 82.948569 133.332492 83.218376 133.220735 83.417279 133.021832 
C 83.616181 132.82293 83.727939 132.553123 83.727939 132.271832 
C 83.727939 131.990542 83.616181 131.720735 83.417279 131.521832 
C 83.218376 131.32293 82.948569 131.211172 82.667279 131.211172 
C 82.385988 131.211172 82.116181 131.32293 81.917279 131.521832 
C 81.718376 131.720735 81.606618 131.990542 81.606618 132.271832 
C 81.606618 132.553123 81.718376 132.82293 81.917279 133.021832 
C 82.116181 133.220735 82.385988 133.332492 82.667279 133.332492 
z
" clip-path="url(#p139df7c88a)" style="stroke: #000000"/>
    <path d="M 81.607014 124.146862 
C 81.888304 124.146862 82.158112 124.035104 82.357014 123.836202 
C 82.555916 123.6373 82.667674 123.367492 82.667674 123.086202 
C 82.667674 122.804912 82.555916 122.535104 82.357014 122.336202 
C 82.158112 122.1373 81.888304 122.025542 81.607014 122.025542 
C 81.325724 122.025542 81.055916 122.1373 80.857014 122.336202 
C 80.658112 122.535104 80.546354 122.804912 80.546354 123.086202 
C 80.546354 123.367492 80.658112 123.6373 80.857014 123.836202 
C 81.055916 124.035104 81.325724 124.146862 81.607014 124.146862 
z
" clip-path="url(#p139df7c88a)" style="stroke: #000000"/>
    <path d="M 75.549321 112.165905 
C 75.763055 112.165905 75.968064 112.080987 76.119197 111.929854 
C 76.27033 111.778721 76.355248 111.573712 76.355248 111.359978 
C 76.355248 111.146243 76.27033 110.941234 76.119197 110.790101 
C 75.968064 110.638968 75.763055 110.55405 75.549321 110.55405 
C 75.335586 110.55405 75.130577 110.638968 74.979444 110.790101 
C 74.828311 110.941234 74.743393 111.146243 74.743393 111.359978 
C 74.743393 111.573712 74.828311 111.778721 74.979444 111.929854 
C 75.130577 112.080987 75.335586 112.165905 75.549321 112.165905 
z
" clip-path="url(#p139df7c88a)" style="stroke: #000000"/>
    <path d="M 75.802958 98.763617 
C 76.084249 98.763617 76.354056 98.651859 76.552958 98.452957 
C 76.751861 98.254054 76.863619 97.984247 76.863619 97.702957 
C 76.863619 97.421666 76.751861 97.151859 76.552958 96.952957 
C 76.354056 96.754054 76.084249 96.642296 75.802958 96.642296 
C 75.521668 96.642296 75.251861 96.754054 75.052958 96.952957 
C 74.854056 97.151859 74.742298 97.421666 74.742298 97.702957 
C 74.742298 97.984247 74.854056 98.254054 75.052958 98.452957 
C 75.251861 98.651859 75.521668 98.763617 75.802958 98.763617 
z
" clip-path="url(#p139df7c88a)" style="stroke: #000000"/>
    <path d="M 70.428089 91.440033 
C 70.709379 91.440033 70.979187 91.328275 71.178089 91.129372 
C 71.376991 90.93047 71.488749 90.660663 71.488749 90.379372 
C 71.488749 90.098082 71.376991 89.828275 71.178089 89.629372 
C 70.979187 89.43047 70.709379 89.318712 70.428089 89.318712 
C 70.146799 89.318712 69.876991 89.43047 69.678089 89.629372 
C 69.479187 89.828275 69.367429 90.098082 69.367429 90.379372 
C 69.367429 90.660663 69.479187 90.93047 69.678089 91.129372 
C 69.876991 91.328275 70.146799 91.440033 70.428089 91.440033 
z
" clip-path="url(#p139df7c88a)" style="stroke: #000000"/>
    <path d="M 69.444542 77.38478 
C 69.725832 77.38478 69.99564 77.273022 70.194542 77.074119 
C 70.393444 76.875217 70.505202 76.60541 70.505202 76.324119 
C 70.505202 76.042829 70.393444 75.773022 70.194542 75.574119 
C 69.99564 75.375217 69.725832 75.263459 69.444542 75.263459 
C 69.163252 75.263459 68.893444 75.375217 68.694542 75.574119 
C 68.49564 75.773022 68.383882 76.042829 68.383882 76.324119 
C 68.383882 76.60541 68.49564 76.875217 68.694542 77.074119 
C 68.893444 77.273022 69.163252 77.38478 69.444542 77.38478 
z
" clip-path="url(#p139df7c88a)" style="stroke: #000000"/>
    <path d="M 63.887849 69.652808 
C 64.110857 69.652808 64.324762 69.564206 64.482453 69.406515 
C 64.640143 69.248824 64.728745 69.03492 64.728745 68.811911 
C 64.728745 68.588903 64.640143 68.374999 64.482453 68.217308 
C 64.324762 68.059617 64.110857 67.971015 63.887849 67.971015 
C 63.664841 67.971015 63.450936 68.059617 63.293246 68.217308 
C 63.135555 68.374999 63.046953 68.588903 63.046953 68.811911 
C 63.046953 69.03492 63.135555 69.248824 63.293246 69.406515 
C 63.450936 69.564206 63.664841 69.652808 63.887849 69.652808 
z
" clip-path="url(#p139df7c88a)" style="stroke: #000000"/>
    <path d="M 60.418446 59.627307 
C 60.699736 59.627307 60.969544 59.515549 61.168446 59.316647 
C 61.367348 59.117744 61.479106 58.847937 61.479106 58.566647 
C 61.479106 58.285356 61.367348 58.015549 61.168446 57.816647 
C 60.969544 57.617744 60.699736 57.505986 60.418446 57.505986 
C 60.137156 57.505986 59.867348 57.617744 59.668446 57.816647 
C 59.469544 58.015549 59.357786 58.285356 59.357786 58.566647 
C 59.357786 58.847937 59.469544 59.117744 59.668446 59.316647 
C 59.867348 59.515549 60.137156 59.627307 60.418446 59.627307 
z
" clip-path="url(#p139df7c88a)" style="stroke: #000000"/>
    <path d="M 57.266769 49.152739 
C 57.502572 49.152739 57.728748 49.059054 57.895486 48.892316 
C 58.062224 48.725578 58.155909 48.499402 58.155909 48.263599 
C 58.155909 48.027797 58.062224 47.80162 57.895486 47.634883 
C 57.728748 47.468145 57.502572 47.37446 57.266769 47.37446 
C 57.030967 47.37446 56.80479 47.468145 56.638052 47.634883 
C 56.471315 47.80162 56.377629 48.027797 56.377629 48.263599 
C 56.377629 48.499402 56.471315 48.725578 56.638052 48.892316 
C 56.80479 49.059054 57.030967 49.152739 57.266769 49.152739 
z
" clip-path="url(#p139df7c88a)" style="stroke: #000000"/>
    <path d="M 56.706669 40.816549 
C 56.922355 40.816549 57.129237 40.730856 57.28175 40.578342 
C 57.434264 40.425829 57.519957 40.218947 57.519957 40.00326 
C 57.519957 39.787574 57.434264 39.580692 57.28175 39.428179 
C 57.129237 39.275665 56.922355 39.189972 56.706669 39.189972 
C 56.490982 39.189972 56.2841 39.275665 56.131587 39.428179 
C 55.979074 39.580692 55.89338 39.787574 55.89338 40.00326 
C 55.89338 40.218947 55.979074 40.425829 56.131587 40.578342 
C 56.2841 40.730856 56.490982 40.816549 56.706669 40.816549 
z
" clip-path="url(#p139df7c88a)" style="stroke: #000000"/>
    <path d="M 87.054164 173.83854 
C 87.335455 173.83854 87.605262 173.726782 87.804164 173.527879 
C 88.003067 173.328977 88.114825 173.05917 88.114825 172.777879 
C 88.114825 172.496589 88.003067 172.226782 87.804164 172.027879 
C 87.605262 171.828977 87.335455 171.717219 87.054164 171.717219 
C 86.772874 171.717219 86.503067 171.828977 86.304164 172.027879 
C 86.105262 172.226782 85.993504 172.496589 85.993504 172.777879 
C 85.993504 173.05917 86.105262 173.328977 86.304164 173.527879 
C 86.503067 173.726782 86.772874 173.83854 87.054164 173.83854 
z
" clip-path="url(#p139df7c88a)" style="stroke: #000000"/>
    <path d="M 87.668933 169.385167 
C 87.85646 169.385167 88.036331 169.310662 88.168933 169.17806 
C 88.301534 169.045459 88.37604 168.865587 88.37604 168.67806 
C 88.37604 168.490534 88.301534 168.310662 88.168933 168.17806 
C 88.036331 168.045459 87.85646 167.970954 87.668933 167.970954 
C 87.481406 167.970954 87.301534 168.045459 87.168933 168.17806 
C 87.036331 168.310662 86.961826 168.490534 86.961826 168.67806 
C 86.961826 168.865587 87.036331 169.045459 87.168933 169.17806 
C 87.301534 169.310662 87.481406 169.385167 87.668933 169.385167 
z
" clip-path="url(#p139df7c88a)" style="stroke: #000000"/>
    <path d="M 82.502384 154.886084 
C 82.502384 154.886084 82.502384 154.886084 82.502384 154.886084 
C 82.502384 154.886084 82.502384 154.886084 82.502384 154.886084 
C 82.502384 154.886084 82.502384 154.886084 82.502384 154.886084 
C 82.502384 154.886084 82.502384 154.886084 82.502384 154.886084 
C 82.502384 154.886084 82.502384 154.886084 82.502384 154.886084 
C 82.502384 154.886084 82.502384 154.886084 82.502384 154.886084 
C 82.502384 154.886084 82.502384 154.886084 82.502384 154.886084 
C 82.502384 154.886084 82.502384 154.886084 82.502384 154.886084 
z
" clip-path="url(#p139df7c88a)" style="stroke: #000000"/>
    <path d="M 78.917533 146.764264 
C 79.197951 146.764264 79.466922 146.652853 79.665208 146.454567 
C 79.863493 146.256282 79.974905 145.987311 79.974905 145.706893 
C 79.974905 145.426475 79.863493 145.157504 79.665208 144.959219 
C 79.466922 144.760933 79.197951 144.649522 78.917533 144.649522 
C 78.637115 144.649522 78.368144 144.760933 78.169859 144.959219 
C 77.971573 145.157504 77.860162 145.426475 77.860162 145.706893 
C 77.860162 145.987311 77.971573 146.256282 78.169859 146.454567 
C 78.368144 146.652853 78.637115 146.764264 78.917533 146.764264 
z
" clip-path="url(#p139df7c88a)" style="stroke: #000000"/>
    <path d="M 77.063202 137.880852 
C 77.344492 137.880852 77.6143 137.769094 77.813202 137.570192 
C 78.012104 137.37129 78.123862 137.101482 78.123862 136.820192 
C 78.123862 136.538902 78.012104 136.269094 77.813202 136.070192 
C 77.6143 135.87129 77.344492 135.759532 77.063202 135.759532 
C 76.781912 135.759532 76.512104 135.87129 76.313202 136.070192 
C 76.1143 136.269094 76.002542 136.538902 76.002542 136.820192 
C 76.002542 137.101482 76.1143 137.37129 76.313202 137.570192 
C 76.512104 137.769094 76.781912 137.880852 77.063202 137.880852 
z
" clip-path="url(#p139df7c88a)" style="stroke: #000000"/>
    <path d="M 72.308344 128.120983 
C 72.589634 128.120983 72.859441 128.009225 73.058344 127.810322 
C 73.257246 127.61142 73.369004 127.341613 73.369004 127.060322 
C 73.369004 126.779032 73.257246 126.509225 73.058344 126.310322 
C 72.859441 126.11142 72.589634 125.999662 72.308344 125.999662 
C 72.027053 125.999662 71.757246 126.11142 71.558344 126.310322 
C 71.359441 126.509225 71.247683 126.779032 71.247683 127.060322 
C 71.247683 127.341613 71.359441 127.61142 71.558344 127.810322 
C 71.757246 128.009225 72.027053 128.120983 72.308344 128.120983 
z
" clip-path="url(#p139df7c88a)" style="stroke: #000000"/>
    <path d="M 70.209813 116.112191 
C 70.491103 116.112191 70.76091 116.000433 70.959813 115.80153 
C 71.158715 115.602628 71.270473 115.332821 71.270473 115.05153 
C 71.270473 114.77024 71.158715 114.500433 70.959813 114.30153 
C 70.76091 114.102628 70.491103 113.99087 70.209813 113.99087 
C 69.928522 113.99087 69.658715 114.102628 69.459813 114.30153 
C 69.26091 114.500433 69.149152 114.77024 69.149152 115.05153 
C 69.149152 115.332821 69.26091 115.602628 69.459813 115.80153 
C 69.658715 116.000433 69.928522 116.112191 70.209813 116.112191 
z
" clip-path="url(#p139df7c88a)" style="stroke: #000000"/>
    <path d="M 58.147173 98.517091 
C 58.428463 98.517091 58.69827 98.405334 58.897173 98.206431 
C 59.096075 98.007529 59.207833 97.737722 59.207833 97.456431 
C 59.207833 97.175141 59.096075 96.905334 58.897173 96.706431 
C 58.69827 96.507529 58.428463 96.395771 58.147173 96.395771 
C 57.865882 96.395771 57.596075 96.507529 57.397173 96.706431 
C 57.19827 96.905334 57.086512 97.175141 57.086512 97.456431 
C 57.086512 97.737722 57.19827 98.007529 57.397173 98.206431 
C 57.596075 98.405334 57.865882 98.517091 58.147173 98.517091 
z
" clip-path="url(#p139df7c88a)" style="stroke: #000000"/>
    <path d="M 58.876451 95.551565 
C 59.210446 95.551565 59.530807 95.418868 59.766977 95.182698 
C 60.003147 94.946527 60.135845 94.626167 60.135845 94.292172 
C 60.135845 93.958177 60.003147 93.637816 59.766977 93.401646 
C 59.530807 93.165476 59.210446 93.032778 58.876451 93.032778 
C 58.542456 93.032778 58.222095 93.165476 57.985925 93.401646 
C 57.749755 93.637816 57.617057 93.958177 57.617057 94.292172 
C 57.617057 94.626167 57.749755 94.946527 57.985925 95.182698 
C 58.222095 95.418868 58.542456 95.551565 58.876451 95.551565 
z
" clip-path="url(#p139df7c88a)" style="stroke: #000000"/>
    <path d="M 53.637257 82.641346 
C 53.918547 82.641346 54.188355 82.529588 54.387257 82.330686 
C 54.586159 82.131783 54.697917 81.861976 54.697917 81.580686 
C 54.697917 81.299395 54.586159 81.029588 54.387257 80.830686 
C 54.188355 80.631783 53.918547 80.520026 53.637257 80.520026 
C 53.355966 80.520026 53.086159 80.631783 52.887257 80.830686 
C 52.688355 81.029588 52.576597 81.299395 52.576597 81.580686 
C 52.576597 81.861976 52.688355 82.131783 52.887257 82.330686 
C 53.086159 82.529588 53.355966 82.641346 53.637257 82.641346 
z
" clip-path="url(#p139df7c88a)" style="stroke: #000000"/>
    <path d="M 53.433354 73.279208 
C 53.714644 73.279208 53.984452 73.16745 54.183354 72.968547 
C 54.382256 72.769645 54.494014 72.499838 54.494014 72.218547 
C 54.494014 71.937257 54.382256 71.66745 54.183354 71.468547 
C 53.984452 71.269645 53.714644 71.157887 53.433354 71.157887 
C 53.152064 71.157887 52.882256 71.269645 52.683354 71.468547 
C 52.484452 71.66745 52.372694 71.937257 52.372694 72.218547 
C 52.372694 72.499838 52.484452 72.769645 52.683354 72.968547 
C 52.882256 73.16745 53.152064 73.279208 53.433354 73.279208 
z
" clip-path="url(#p139df7c88a)" style="stroke: #000000"/>
    <path d="M 45.182487 64.808291 
C 45.462905 64.808291 45.731876 64.69688 45.930161 64.498594 
C 46.128447 64.300309 46.239858 64.031338 46.239858 63.75092 
C 46.239858 63.470502 46.128447 63.201531 45.930161 63.003246 
C 45.731876 62.80496 45.462905 62.693549 45.182487 62.693549 
C 44.902069 62.693549 44.633098 62.80496 44.434812 63.003246 
C 44.236527 63.201531 44.125116 63.470502 44.125116 63.75092 
C 44.125116 64.031338 44.236527 64.300309 44.434812 64.498594 
C 44.633098 64.69688 44.902069 64.808291 45.182487 64.808291 
z
" clip-path="url(#p139df7c88a)" style="stroke: #000000"/>
    <path d="M 41.393462 50.744285 
C 41.393462 50.744285 41.393462 50.744285 41.393462 50.744285 
C 41.393462 50.744285 41.393462 50.744285 41.393462 50.744285 
C 41.393462 50.744285 41.393462 50.744285 41.393462 50.744285 
C 41.393462 50.744285 41.393462 50.744285 41.393462 50.744285 
C 41.393462 50.744285 41.393462 50.744285 41.393462 50.744285 
C 41.393462 50.744285 41.393462 50.744285 41.393462 50.744285 
C 41.393462 50.744285 41.393462 50.744285 41.393462 50.744285 
C 41.393462 50.744285 41.393462 50.744285 41.393462 50.744285 
z
" clip-path="url(#p139df7c88a)" style="stroke: #000000"/>
    <path d="M 44.997271 41.302061 
C 45.22028 41.302061 45.434184 41.213458 45.591875 41.055768 
C 45.749566 40.898077 45.838168 40.684172 45.838168 40.461164 
C 45.838168 40.238156 45.749566 40.024251 45.591875 39.866561 
C 45.434184 39.70887 45.22028 39.620268 44.997271 39.620268 
C 44.774263 39.620268 44.560359 39.70887 44.402668 39.866561 
C 44.244977 40.024251 44.156375 40.238156 44.156375 40.461164 
C 44.156375 40.684172 44.244977 40.898077 44.402668 41.055768 
C 44.560359 41.213458 44.774263 41.302061 44.997271 41.302061 
z
" clip-path="url(#p139df7c88a)" style="stroke: #000000"/>
    <path d="M 80.432339 175.071028 
C 80.702576 175.071028 80.961782 174.963662 81.152869 174.772575 
C 81.343956 174.581488 81.451323 174.322282 81.451323 174.052044 
C 81.451323 173.781807 81.343956 173.522601 81.152869 173.331514 
C 80.961782 173.140427 80.702576 173.033061 80.432339 173.033061 
C 80.162101 173.033061 79.902895 173.140427 79.711808 173.331514 
C 79.520722 173.522601 79.413355 173.781807 79.413355 174.052044 
C 79.413355 174.322282 79.520722 174.581488 79.711808 174.772575 
C 79.902895 174.963662 80.162101 175.071028 80.432339 175.071028 
z
" clip-path="url(#p139df7c88a)" style="stroke: #000000"/>
    <path d="M 76.367227 171.007633 
C 76.551753 171.007633 76.728745 170.93432 76.859225 170.803841 
C 76.989704 170.673362 77.063017 170.496369 77.063017 170.311844 
C 77.063017 170.127318 76.989704 169.950325 76.859225 169.819846 
C 76.728745 169.689367 76.551753 169.616054 76.367227 169.616054 
C 76.182702 169.616054 76.005709 169.689367 75.87523 169.819846 
C 75.744751 169.950325 75.671438 170.127318 75.671438 170.311844 
C 75.671438 170.496369 75.744751 170.673362 75.87523 170.803841 
C 76.005709 170.93432 76.182702 171.007633 76.367227 171.007633 
z
" clip-path="url(#p139df7c88a)" style="stroke: #000000"/>
    <path d="M 74.077424 155.906697 
C 74.358715 155.906697 74.628522 155.794939 74.827424 155.596037 
C 75.026326 155.397135 75.138084 155.127327 75.138084 154.846037 
C 75.138084 154.564747 75.026326 154.294939 74.827424 154.096037 
C 74.628522 153.897135 74.358715 153.785377 74.077424 153.785377 
C 73.796134 153.785377 73.526326 153.897135 73.327424 154.096037 
C 73.128522 154.294939 73.016764 154.564747 73.016764 154.846037 
C 73.016764 155.127327 73.128522 155.397135 73.327424 155.596037 
C 73.526326 155.794939 73.796134 155.906697 74.077424 155.906697 
z
" clip-path="url(#p139df7c88a)" style="stroke: #000000"/>
    <path d="M 70.495529 147.663677 
C 70.776819 147.663677 71.046626 147.551919 71.245529 147.353016 
C 71.444431 147.154114 71.556189 146.884307 71.556189 146.603016 
C 71.556189 146.321726 71.444431 146.051919 71.245529 145.853016 
C 71.046626 145.654114 70.776819 145.542356 70.495529 145.542356 
C 70.214238 145.542356 69.944431 145.654114 69.745529 145.853016 
C 69.546626 146.051919 69.434868 146.321726 69.434868 146.603016 
C 69.434868 146.884307 69.546626 147.154114 69.745529 147.353016 
C 69.944431 147.551919 70.214238 147.663677 70.495529 147.663677 
z
" clip-path="url(#p139df7c88a)" style="stroke: #000000"/>
    <path d="M 69.347049 138.558672 
C 69.628339 138.558672 69.898147 138.446914 70.097049 138.248012 
C 70.295951 138.049109 70.407709 137.779302 70.407709 137.498012 
C 70.407709 137.216721 70.295951 136.946914 70.097049 136.748012 
C 69.898147 136.549109 69.628339 136.437351 69.347049 136.437351 
C 69.065759 136.437351 68.795951 136.549109 68.597049 136.748012 
C 68.398147 136.946914 68.286389 137.216721 68.286389 137.498012 
C 68.286389 137.779302 68.398147 138.049109 68.597049 138.248012 
C 68.795951 138.446914 69.065759 138.558672 69.347049 138.558672 
z
" clip-path="url(#p139df7c88a)" style="stroke: #000000"/>
    <path d="M 57.650108 129.927305 
C 57.88737 129.927305 58.114947 129.83304 58.282717 129.665269 
C 58.450488 129.497499 58.544753 129.269922 58.544753 129.03266 
C 58.544753 128.795397 58.450488 128.56782 58.282717 128.40005 
C 58.114947 128.23228 57.88737 128.138014 57.650108 128.138014 
C 57.412845 128.138014 57.185268 128.23228 57.017498 128.40005 
C 56.849728 128.56782 56.755462 128.795397 56.755462 129.03266 
C 56.755462 129.269922 56.849728 129.497499 57.017498 129.665269 
C 57.185268 129.83304 57.412845 129.927305 57.650108 129.927305 
z
" clip-path="url(#p139df7c88a)" style="stroke: #000000"/>
    <path d="M 55.811189 116.015525 
C 56.046992 116.015525 56.273168 115.92184 56.439906 115.755102 
C 56.606643 115.588365 56.700329 115.362188 56.700329 115.126385 
C 56.700329 114.890583 56.606643 114.664406 56.439906 114.497669 
C 56.273168 114.330931 56.046992 114.237246 55.811189 114.237246 
C 55.575386 114.237246 55.34921 114.330931 55.182472 114.497669 
C 55.015735 114.664406 54.922049 114.890583 54.922049 115.126385 
C 54.922049 115.362188 55.015735 115.588365 55.182472 115.755102 
C 55.34921 115.92184 55.575386 116.015525 55.811189 116.015525 
z
" clip-path="url(#p139df7c88a)" style="stroke: #000000"/>
    <path d="M 53.045259 107.649436 
C 53.379254 107.649436 53.699615 107.516738 53.935785 107.280568 
C 54.171955 107.044398 54.304653 106.724037 54.304653 106.390042 
C 54.304653 106.056047 54.171955 105.735687 53.935785 105.499516 
C 53.699615 105.263346 53.379254 105.130649 53.045259 105.130649 
C 52.711264 105.130649 52.390904 105.263346 52.154733 105.499516 
C 51.918563 105.735687 51.785865 106.056047 51.785865 106.390042 
C 51.785865 106.724037 51.918563 107.044398 52.154733 107.280568 
C 52.390904 107.516738 52.711264 107.649436 53.045259 107.649436 
z
" clip-path="url(#p139df7c88a)" style="stroke: #000000"/>
    <path d="M 46.587175 94.937698 
C 46.868466 94.937698 47.138273 94.82594 47.337175 94.627038 
C 47.536078 94.428135 47.647835 94.158328 47.647835 93.877038 
C 47.647835 93.595747 47.536078 93.32594 47.337175 93.127038 
C 47.138273 92.928135 46.868466 92.816377 46.587175 92.816377 
C 46.305885 92.816377 46.036078 92.928135 45.837175 93.127038 
C 45.638273 93.32594 45.526515 93.595747 45.526515 93.877038 
C 45.526515 94.158328 45.638273 94.428135 45.837175 94.627038 
C 46.036078 94.82594 46.305885 94.937698 46.587175 94.937698 
z
" clip-path="url(#p139df7c88a)" style="stroke: #000000"/>
    <path d="M 49.432545 83.413581 
C 49.432545 83.413581 49.432545 83.413581 49.432545 83.413581 
C 49.432545 83.413581 49.432545 83.413581 49.432545 83.413581 
C 49.432545 83.413581 49.432545 83.413581 49.432545 83.413581 
C 49.432545 83.413581 49.432545 83.413581 49.432545 83.413581 
C 49.432545 83.413581 49.432545 83.413581 49.432545 83.413581 
C 49.432545 83.413581 49.432545 83.413581 49.432545 83.413581 
C 49.432545 83.413581 49.432545 83.413581 49.432545 83.413581 
C 49.432545 83.413581 49.432545 83.413581 49.432545 83.413581 
z
" clip-path="url(#p139df7c88a)" style="stroke: #000000"/>
    <path d="M 39.866248 76.182315 
C 40.146666 76.182315 40.415637 76.070903 40.613922 75.872618 
C 40.812208 75.674332 40.923619 75.405361 40.923619 75.124943 
C 40.923619 74.844525 40.812208 74.575554 40.613922 74.377269 
C 40.415637 74.178983 40.146666 74.067572 39.866248 74.067572 
C 39.58583 74.067572 39.316859 74.178983 39.118573 74.377269 
C 38.920288 74.575554 38.808877 74.844525 38.808877 75.124943 
C 38.808877 75.405361 38.920288 75.674332 39.118573 75.872618 
C 39.316859 76.070903 39.58583 76.182315 39.866248 76.182315 
z
" clip-path="url(#p139df7c88a)" style="stroke: #000000"/>
    <path d="M 38.890364 67.923483 
C 39.161575 67.923483 39.421715 67.81573 39.61349 67.623954 
C 39.805266 67.432179 39.913019 67.172039 39.913019 66.900828 
C 39.913019 66.629616 39.805266 66.369476 39.61349 66.177701 
C 39.421715 65.985925 39.161575 65.878172 38.890364 65.878172 
C 38.619152 65.878172 38.359012 65.985925 38.167237 66.177701 
C 37.975461 66.369476 37.867708 66.629616 37.867708 66.900828 
C 37.867708 67.172039 37.975461 67.432179 38.167237 67.623954 
C 38.359012 67.81573 38.619152 67.923483 38.890364 67.923483 
z
" clip-path="url(#p139df7c88a)" style="stroke: #000000"/>
    <path d="M 69.145516 177.76089 
C 69.145516 177.76089 69.145516 177.76089 69.145516 177.76089 
C 69.145516 177.76089 69.145516 177.76089 69.145516 177.76089 
C 69.145516 177.76089 69.145516 177.76089 69.145516 177.76089 
C 69.145516 177.76089 69.145516 177.76089 69.145516 177.76089 
C 69.145516 177.76089 69.145516 177.76089 69.145516 177.76089 
C 69.145516 177.76089 69.145516 177.76089 69.145516 177.76089 
C 69.145516 177.76089 69.145516 177.76089 69.145516 177.76089 
C 69.145516 177.76089 69.145516 177.76089 69.145516 177.76089 
z
" clip-path="url(#p139df7c88a)" style="stroke: #000000"/>
    <path d="M 67.169617 171.678293 
C 67.450035 171.678293 67.719006 171.566882 67.917291 171.368596 
C 68.115577 171.170311 68.226988 170.90134 68.226988 170.620922 
C 68.226988 170.340504 68.115577 170.071533 67.917291 169.873248 
C 67.719006 169.674962 67.450035 169.563551 67.169617 169.563551 
C 66.889199 169.563551 66.620228 169.674962 66.421942 169.873248 
C 66.223657 170.071533 66.112245 170.340504 66.112245 170.620922 
C 66.112245 170.90134 66.223657 171.170311 66.421942 171.368596 
C 66.620228 171.566882 66.889199 171.678293 67.169617 171.678293 
z
" clip-path="url(#p139df7c88a)" style="stroke: #000000"/>
    <path d="M 59.747137 163.229852 
C 59.747137 163.229852 59.747137 163.229852 59.747137 163.229852 
C 59.747137 163.229852 59.747137 163.229852 59.747137 163.229852 
C 59.747137 163.229852 59.747137 163.229852 59.747137 163.229852 
C 59.747137 163.229852 59.747137 163.229852 59.747137 163.229852 
C 59.747137 163.229852 59.747137 163.229852 59.747137 163.229852 
C 59.747137 163.229852 59.747137 163.229852 59.747137 163.229852 
C 59.747137 163.229852 59.747137 163.229852 59.747137 163.229852 
C 59.747137 163.229852 59.747137 163.229852 59.747137 163.229852 
z
" clip-path="url(#p139df7c88a)" style="stroke: #000000"/>
    <path d="M 56.351756 152.124449 
C 56.632174 152.124449 56.901145 152.013038 57.09943 151.814753 
C 57.297716 151.616467 57.409127 151.347496 57.409127 151.067078 
C 57.409127 150.78666 57.297716 150.517689 57.09943 150.319404 
C 56.901145 150.121118 56.632174 150.009707 56.351756 150.009707 
C 56.071338 150.009707 55.802367 150.121118 55.604082 150.319404 
C 55.405796 150.517689 55.294385 150.78666 55.294385 151.067078 
C 55.294385 151.347496 55.405796 151.616467 55.604082 151.814753 
C 55.802367 152.013038 56.071338 152.124449 56.351756 152.124449 
z
" clip-path="url(#p139df7c88a)" style="stroke: #000000"/>
    <path d="M 55.180876 139.506415 
C 55.403885 139.506415 55.617789 139.417813 55.77548 139.260122 
C 55.93317 139.102431 56.021773 138.888527 56.021773 138.665518 
C 56.021773 138.44251 55.93317 138.228606 55.77548 138.070915 
C 55.617789 137.913224 55.403885 137.824622 55.180876 137.824622 
C 54.957868 137.824622 54.743963 137.913224 54.586273 138.070915 
C 54.428582 138.228606 54.33998 138.44251 54.33998 138.665518 
C 54.33998 138.888527 54.428582 139.102431 54.586273 139.260122 
C 54.743963 139.417813 54.957868 139.506415 55.180876 139.506415 
z
" clip-path="url(#p139df7c88a)" style="stroke: #000000"/>
    <path d="M 54.160079 128.930903 
C 54.44137 128.930903 54.711177 128.819145 54.910079 128.620243 
C 55.108981 128.42134 55.220739 128.151533 55.220739 127.870243 
C 55.220739 127.588952 55.108981 127.319145 54.910079 127.120243 
C 54.711177 126.92134 54.44137 126.809583 54.160079 126.809583 
C 53.878789 126.809583 53.608981 126.92134 53.410079 127.120243 
C 53.211177 127.319145 53.099419 127.588952 53.099419 127.870243 
C 53.099419 128.151533 53.211177 128.42134 53.410079 128.620243 
C 53.608981 128.819145 53.878789 128.930903 54.160079 128.930903 
z
" clip-path="url(#p139df7c88a)" style="stroke: #000000"/>
    <path d="M 43.180388 121.566776 
C 43.461679 121.566776 43.731486 121.455018 43.930388 121.256116 
C 44.129291 121.057214 44.241049 120.787406 44.241049 120.506116 
C 44.241049 120.224826 44.129291 119.955018 43.930388 119.756116 
C 43.731486 119.557214 43.461679 119.445456 43.180388 119.445456 
C 42.899098 119.445456 42.629291 119.557214 42.430388 119.756116 
C 42.231486 119.955018 42.119728 120.224826 42.119728 120.506116 
C 42.119728 120.787406 42.231486 121.057214 42.430388 121.256116 
C 42.629291 121.455018 42.899098 121.566776 43.180388 121.566776 
z
" clip-path="url(#p139df7c88a)" style="stroke: #000000"/>
    <path d="M 44.446466 109.874017 
C 44.586675 109.874017 44.72116 109.818311 44.820303 109.719169 
C 44.919446 109.620026 44.975152 109.48554 44.975152 109.345331 
C 44.975152 109.205122 44.919446 109.070637 44.820303 108.971494 
C 44.72116 108.872351 44.586675 108.816646 44.446466 108.816646 
C 44.306257 108.816646 44.171772 108.872351 44.072629 108.971494 
C 43.973486 109.070637 43.91778 109.205122 43.91778 109.345331 
C 43.91778 109.48554 43.973486 109.620026 44.072629 109.719169 
C 44.171772 109.818311 44.306257 109.874017 44.446466 109.874017 
z
" clip-path="url(#p139df7c88a)" style="stroke: #000000"/>
    <path d="M 35.815951 98.26332 
C 36.040681 98.26332 36.256238 98.174033 36.415146 98.015125 
C 36.574055 97.856216 36.663341 97.64066 36.663341 97.415929 
C 36.663341 97.191199 36.574055 96.975642 36.415146 96.816734 
C 36.256238 96.657825 36.040681 96.568539 35.815951 96.568539 
C 35.59122 96.568539 35.375664 96.657825 35.216755 96.816734 
C 35.057847 96.975642 34.96856 97.191199 34.96856 97.415929 
C 34.96856 97.64066 35.057847 97.856216 35.216755 98.015125 
C 35.375664 98.174033 35.59122 98.26332 35.815951 98.26332 
z
" clip-path="url(#p139df7c88a)" style="stroke: #000000"/>
    <path d="M 35.588412 88.897047 
C 35.588412 88.897047 35.588412 88.897047 35.588412 88.897047 
C 35.588412 88.897047 35.588412 88.897047 35.588412 88.897047 
C 35.588412 88.897047 35.588412 88.897047 35.588412 88.897047 
C 35.588412 88.897047 35.588412 88.897047 35.588412 88.897047 
C 35.588412 88.897047 35.588412 88.897047 35.588412 88.897047 
C 35.588412 88.897047 35.588412 88.897047 35.588412 88.897047 
C 35.588412 88.897047 35.588412 88.897047 35.588412 88.897047 
C 35.588412 88.897047 35.588412 88.897047 35.588412 88.897047 
z
" clip-path="url(#p139df7c88a)" style="stroke: #000000"/>
    <path d="M 32.236888 79.565265 
C 32.411402 79.565265 32.578791 79.49593 32.702191 79.37253 
C 32.82559 79.249131 32.894925 79.081741 32.894925 78.907228 
C 32.894925 78.732714 32.82559 78.565325 32.702191 78.441925 
C 32.578791 78.318526 32.411402 78.249191 32.236888 78.249191 
C 32.062375 78.249191 31.894986 78.318526 31.771586 78.441925 
C 31.648186 78.565325 31.578851 78.732714 31.578851 78.907228 
C 31.578851 79.081741 31.648186 79.249131 31.771586 79.37253 
C 31.894986 79.49593 32.062375 79.565265 32.236888 79.565265 
z
" clip-path="url(#p139df7c88a)" style="stroke: #000000"/>
    <path d="M 53.129373 176.469617 
C 53.129373 176.469617 53.129373 176.469617 53.129373 176.469617 
C 53.129373 176.469617 53.129373 176.469617 53.129373 176.469617 
C 53.129373 176.469617 53.129373 176.469617 53.129373 176.469617 
C 53.129373 176.469617 53.129373 176.469617 53.129373 176.469617 
C 53.129373 176.469617 53.129373 176.469617 53.129373 176.469617 
C 53.129373 176.469617 53.129373 176.469617 53.129373 176.469617 
C 53.129373 176.469617 53.129373 176.469617 53.129373 176.469617 
C 53.129373 176.469617 53.129373 176.469617 53.129373 176.469617 
z
" clip-path="url(#p139df7c88a)" style="stroke: #000000"/>
    <path d="M 49.500157 163.121744 
C 49.781448 163.121744 50.051255 163.009986 50.250157 162.811084 
C 50.44906 162.612181 50.560818 162.342374 50.560818 162.061084 
C 50.560818 161.779793 50.44906 161.509986 50.250157 161.311084 
C 50.051255 161.112181 49.781448 161.000423 49.500157 161.000423 
C 49.218867 161.000423 48.94906 161.112181 48.750157 161.311084 
C 48.551255 161.509986 48.439497 161.779793 48.439497 162.061084 
C 48.439497 162.342374 48.551255 162.612181 48.750157 162.811084 
C 48.94906 163.009986 49.218867 163.121744 49.500157 163.121744 
z
" clip-path="url(#p139df7c88a)" style="stroke: #000000"/>
    <path d="M 48.216789 157.164747 
C 48.424322 157.164747 48.623383 157.082294 48.77013 156.935546 
C 48.916878 156.788798 48.999332 156.589738 48.999332 156.382205 
C 48.999332 156.174672 48.916878 155.975612 48.77013 155.828864 
C 48.623383 155.682116 48.424322 155.599663 48.216789 155.599663 
C 48.009257 155.599663 47.810196 155.682116 47.663448 155.828864 
C 47.516701 155.975612 47.434247 156.174672 47.434247 156.382205 
C 47.434247 156.589738 47.516701 156.788798 47.663448 156.935546 
C 47.810196 157.082294 48.009257 157.164747 48.216789 157.164747 
z
" clip-path="url(#p139df7c88a)" style="stroke: #000000"/>
    <path d="M 43.541138 145.402995 
C 43.7508 145.402995 43.951902 145.319695 44.100155 145.171442 
C 44.248408 145.023189 44.331708 144.822087 44.331708 144.612425 
C 44.331708 144.402764 44.248408 144.201661 44.100155 144.053408 
C 43.951902 143.905155 43.7508 143.821856 43.541138 143.821856 
C 43.331477 143.821856 43.130374 143.905155 42.982121 144.053408 
C 42.833868 144.201661 42.750569 144.402764 42.750569 144.612425 
C 42.750569 144.822087 42.833868 145.023189 42.982121 145.171442 
C 43.130374 145.319695 43.331477 145.402995 43.541138 145.402995 
z
" clip-path="url(#p139df7c88a)" style="stroke: #000000"/>
    <path d="M 35.698247 132.747881 
C 35.978665 132.747881 36.247636 132.636469 36.445922 132.438184 
C 36.644207 132.239898 36.755618 131.970927 36.755618 131.690509 
C 36.755618 131.410091 36.644207 131.14112 36.445922 130.942835 
C 36.247636 130.744549 35.978665 130.633138 35.698247 130.633138 
C 35.417829 130.633138 35.148858 130.744549 34.950573 130.942835 
C 34.752287 131.14112 34.640876 131.410091 34.640876 131.690509 
C 34.640876 131.970927 34.752287 132.239898 34.950573 132.438184 
C 35.148858 132.636469 35.417829 132.747881 35.698247 132.747881 
z
" clip-path="url(#p139df7c88a)" style="stroke: #000000"/>
    <path d="M 37.059173 123.855677 
C 37.340463 123.855677 37.610271 123.743919 37.809173 123.545017 
C 38.008075 123.346115 38.119833 123.076307 38.119833 122.795017 
C 38.119833 122.513727 38.008075 122.243919 37.809173 122.045017 
C 37.610271 121.846115 37.340463 121.734357 37.059173 121.734357 
C 36.777883 121.734357 36.508075 121.846115 36.309173 122.045017 
C 36.110271 122.243919 35.998513 122.513727 35.998513 122.795017 
C 35.998513 123.076307 36.110271 123.346115 36.309173 123.545017 
C 36.508075 123.743919 36.777883 123.855677 37.059173 123.855677 
z
" clip-path="url(#p139df7c88a)" style="stroke: #000000"/>
    <path d="M 31.12007 119.906257 
C 31.40136 119.906257 31.671168 119.794499 31.87007 119.595597 
C 32.068972 119.396694 32.18073 119.126887 32.18073 118.845597 
C 32.18073 118.564306 32.068972 118.294499 31.87007 118.095597 
C 31.671168 117.896694 31.40136 117.784937 31.12007 117.784937 
C 30.83878 117.784937 30.568972 117.896694 30.37007 118.095597 
C 30.171168 118.294499 30.05941 118.564306 30.05941 118.845597 
C 30.05941 119.126887 30.171168 119.396694 30.37007 119.595597 
C 30.568972 119.794499 30.83878 119.906257 31.12007 119.906257 
z
" clip-path="url(#p139df7c88a)" style="stroke: #000000"/>
    <path d="M 29.104141 105.749437 
C 29.327149 105.749437 29.541053 105.660834 29.698744 105.503144 
C 29.856435 105.345453 29.945037 105.131548 29.945037 104.90854 
C 29.945037 104.685532 29.856435 104.471627 29.698744 104.313937 
C 29.541053 104.156246 29.327149 104.067644 29.104141 104.067644 
C 28.881132 104.067644 28.667228 104.156246 28.509537 104.313937 
C 28.351846 104.471627 28.263244 104.685532 28.263244 104.90854 
C 28.263244 105.131548 28.351846 105.345453 28.509537 105.503144 
C 28.667228 105.660834 28.881132 105.749437 29.104141 105.749437 
z
" clip-path="url(#p139df7c88a)" style="stroke: #000000"/>
    <path d="M 47.147148 176.650857 
C 47.147148 176.650857 47.147148 176.650857 47.147148 176.650857 
C 47.147148 176.650857 47.147148 176.650857 47.147148 176.650857 
C 47.147148 176.650857 47.147148 176.650857 47.147148 176.650857 
C 47.147148 176.650857 47.147148 176.650857 47.147148 176.650857 
C 47.147148 176.650857 47.147148 176.650857 47.147148 176.650857 
C 47.147148 176.650857 47.147148 176.650857 47.147148 176.650857 
C 47.147148 176.650857 47.147148 176.650857 47.147148 176.650857 
C 47.147148 176.650857 47.147148 176.650857 47.147148 176.650857 
z
" clip-path="url(#p139df7c88a)" style="stroke: #000000"/>
    <path d="M 38.269964 170.474841 
C 38.269964 170.474841 38.269964 170.474841 38.269964 170.474841 
C 38.269964 170.474841 38.269964 170.474841 38.269964 170.474841 
C 38.269964 170.474841 38.269964 170.474841 38.269964 170.474841 
C 38.269964 170.474841 38.269964 170.474841 38.269964 170.474841 
C 38.269964 170.474841 38.269964 170.474841 38.269964 170.474841 
C 38.269964 170.474841 38.269964 170.474841 38.269964 170.474841 
C 38.269964 170.474841 38.269964 170.474841 38.269964 170.474841 
C 38.269964 170.474841 38.269964 170.474841 38.269964 170.474841 
z
" clip-path="url(#p139df7c88a)" style="stroke: #000000"/>
    <path d="M 34.687982 163.553469 
C 34.886267 163.553469 35.076458 163.474689 35.216668 163.33448 
C 35.356877 163.194271 35.435656 163.00408 35.435656 162.805795 
C 35.435656 162.607509 35.356877 162.417318 35.216668 162.277109 
C 35.076458 162.1369 34.886267 162.05812 34.687982 162.05812 
C 34.489696 162.05812 34.299505 162.1369 34.159296 162.277109 
C 34.019087 162.417318 33.940307 162.607509 33.940307 162.805795 
C 33.940307 163.00408 34.019087 163.194271 34.159296 163.33448 
C 34.299505 163.474689 34.489696 163.553469 34.687982 163.553469 
z
" clip-path="url(#p139df7c88a)" style="stroke: #000000"/>
    <path d="M 35.073827 148.393116 
C 35.073827 148.393116 35.073827 148.393116 35.073827 148.393116 
C 35.073827 148.393116 35.073827 148.393116 35.073827 148.393116 
C 35.073827 148.393116 35.073827 148.393116 35.073827 148.393116 
C 35.073827 148.393116 35.073827 148.393116 35.073827 148.393116 
C 35.073827 148.393116 35.073827 148.393116 35.073827 148.393116 
C 35.073827 148.393116 35.073827 148.393116 35.073827 148.393116 
C 35.073827 148.393116 35.073827 148.393116 35.073827 148.393116 
C 35.073827 148.393116 35.073827 148.393116 35.073827 148.393116 
z
" clip-path="url(#p139df7c88a)" style="stroke: #000000"/>
   </g>
   <g id="matplotlib.axis_1">
    <g id="xtick_1">
     <g id="line2d_1">
      <defs>
       <path id="mb3442e325f" d="M 0 0 
L 0 3.5 
" style="stroke: #000000; stroke-width: 0.8"/>
      </defs>
      <g>
       <use xlink:href="#mb3442e325f" x="18" y="189" style="stroke: #000000; stroke-width: 0.8"/>
      </g>
     </g>
     <g id="text_1">
      <!-- 10 -->
      <g transform="translate(7.447656 203.598437)scale(0.1 -0.1)">
       <defs>
        <path id="DejaVuSans-2212" d="M 678 2272 
L 4684 2272 
L 4684 1741 
L 678 1741 
L 678 2272 
z
" transform="scale(0.015625)"/>
        <path id="DejaVuSans-31" d="M 794 531 
L 1825 531 
L 1825 4091 
L 703 3866 
L 703 4441 
L 1819 4666 
L 2450 4666 
L 2450 531 
L 3481 531 
L 3481 0 
L 794 0 
L 794 531 
z
" transform="scale(0.015625)"/>
        <path id="DejaVuSans-30" d="M 2034 4250 
Q 1547 4250 1301 3770 
Q 1056 3291 1056 2328 
Q 1056 1369 1301 889 
Q 1547 409 2034 409 
Q 2525 409 2770 889 
Q 3016 1369 3016 2328 
Q 3016 3291 2770 3770 
Q 2525 4250 2034 4250 
z
M 2034 4750 
Q 2819 4750 3233 4129 
Q 3647 3509 3647 2328 
Q 3647 1150 3233 529 
Q 2819 -91 2034 -91 
Q 1250 -91 836 529 
Q 422 1150 422 2328 
Q 422 3509 836 4129 
Q 1250 4750 2034 4750 
z
" transform="scale(0.015625)"/>
       </defs>
       <use xlink:href="#DejaVuSans-2212"/>
       <use xlink:href="#DejaVuSans-31" x="83.789062"/>
       <use xlink:href="#DejaVuSans-30" x="147.412109"/>
      </g>
     </g>
    </g>
    <g id="xtick_2">
     <g id="line2d_2">
      <g>
       <use xlink:href="#mb3442e325f" x="73.8" y="189" style="stroke: #000000; stroke-width: 0.8"/>
      </g>
     </g>
     <g id="text_2">
      <!-- 0 -->
      <g transform="translate(70.61875 203.598437)scale(0.1 -0.1)">
       <use xlink:href="#DejaVuSans-30"/>
      </g>
     </g>
    </g>
    <g id="xtick_3">
     <g id="line2d_3">
      <g>
       <use xlink:href="#mb3442e325f" x="129.6" y="189" style="stroke: #000000; stroke-width: 0.8"/>
      </g>
     </g>
     <g id="text_3">
      <!-- 10 -->
      <g transform="translate(123.2375 203.598437)scale(0.1 -0.1)">
       <use xlink:href="#DejaVuSans-31"/>
       <use xlink:href="#DejaVuSans-30" x="63.623047"/>
      </g>
     </g>
    </g>
   </g>
   <g id="matplotlib.axis_2">
    <g id="ytick_1">
     <g id="line2d_4">
      <defs>
       <path id="m2e4174361f" d="M 0 0 
L -3.5 0 
" style="stroke: #000000; stroke-width: 0.8"/>
      </defs>
      <g>
       <use xlink:href="#m2e4174361f" x="18" y="189" style="stroke: #000000; stroke-width: 0.8"/>
      </g>
     </g>
     <g id="text_4">
      <!-- 15 -->
      <g transform="translate(-10.104688 192.799219)scale(0.1 -0.1)">
       <defs>
        <path id="DejaVuSans-35" d="M 691 4666 
L 3169 4666 
L 3169 4134 
L 1269 4134 
L 1269 2991 
Q 1406 3038 1543 3061 
Q 1681 3084 1819 3084 
Q 2600 3084 3056 2656 
Q 3513 2228 3513 1497 
Q 3513 744 3044 326 
Q 2575 -91 1722 -91 
Q 1428 -91 1123 -41 
Q 819 9 494 109 
L 494 744 
Q 775 591 1075 516 
Q 1375 441 1709 441 
Q 2250 441 2565 725 
Q 2881 1009 2881 1497 
Q 2881 1984 2565 2268 
Q 2250 2553 1709 2553 
Q 1456 2553 1204 2497 
Q 953 2441 691 2322 
L 691 4666 
z
" transform="scale(0.015625)"/>
       </defs>
       <use xlink:href="#DejaVuSans-2212"/>
       <use xlink:href="#DejaVuSans-31" x="83.789062"/>
       <use xlink:href="#DejaVuSans-35" x="147.412109"/>
      </g>
     </g>
    </g>
    <g id="ytick_2">
     <g id="line2d_5">
      <g>
       <use xlink:href="#m2e4174361f" x="18" y="161.82" style="stroke: #000000; stroke-width: 0.8"/>
      </g>
     </g>
     <g id="text_5">
      <!-- 10 -->
      <g transform="translate(-10.104688 165.619219)scale(0.1 -0.1)">
       <use xlink:href="#DejaVuSans-2212"/>
       <use xlink:href="#DejaVuSans-31" x="83.789062"/>
       <use xlink:href="#DejaVuSans-30" x="147.412109"/>
      </g>
     </g>
    </g>
    <g id="ytick_3">
     <g id="line2d_6">
      <g>
       <use xlink:href="#m2e4174361f" x="18" y="134.64" style="stroke: #000000; stroke-width: 0.8"/>
      </g>
     </g>
     <g id="text_6">
      <!-- 5 -->
      <g transform="translate(-3.742188 138.439219)scale(0.1 -0.1)">
       <use xlink:href="#DejaVuSans-2212"/>
       <use xlink:href="#DejaVuSans-35" x="83.789062"/>
      </g>
     </g>
    </g>
    <g id="ytick_4">
     <g id="line2d_7">
      <g>
       <use xlink:href="#m2e4174361f" x="18" y="107.46" style="stroke: #000000; stroke-width: 0.8"/>
      </g>
     </g>
     <g id="text_7">
      <!-- 0 -->
      <g transform="translate(4.6375 111.259219)scale(0.1 -0.1)">
       <use xlink:href="#DejaVuSans-30"/>
      </g>
     </g>
    </g>
    <g id="ytick_5">
     <g id="line2d_8">
      <g>
       <use xlink:href="#m2e4174361f" x="18" y="80.28" style="stroke: #000000; stroke-width: 0.8"/>
      </g>
     </g>
     <g id="text_8">
      <!-- 5 -->
      <g transform="translate(4.6375 84.079219)scale(0.1 -0.1)">
       <use xlink:href="#DejaVuSans-35"/>
      </g>
     </g>
    </g>
    <g id="ytick_6">
     <g id="line2d_9">
      <g>
       <use xlink:href="#m2e4174361f" x="18" y="53.1" style="stroke: #000000; stroke-width: 0.8"/>
      </g>
     </g>
     <g id="text_9">
      <!-- 10 -->
      <g transform="translate(-1.725 56.899219)scale(0.1 -0.1)">
       <use xlink:href="#DejaVuSans-31"/>
       <use xlink:href="#DejaVuSans-30" x="63.623047"/>
      </g>
     </g>
    </g>
    <g id="ytick_7">
     <g id="line2d_10">
      <g>
       <use xlink:href="#m2e4174361f" x="18" y="25.92" style="stroke: #000000; stroke-width: 0.8"/>
      </g>
     </g>
     <g id="text_10">
      <!-- 15 -->
      <g transform="translate(-1.725 29.719219)scale(0.1 -0.1)">
       <use xlink:href="#DejaVuSans-31"/>
       <use xlink:href="#DejaVuSans-35" x="63.623047"/>
      </g>
     </g>
    </g>
   </g>
   <g id="patch_3">
    <path d="M 18 189 
L 18 25.92 
" style="fill: none; stroke: #000000; stroke-width: 0.8; stroke-linejoin: miter; stroke-linecap: square"/>
   </g>
   <g id="patch_4">
    <path d="M 129.6 189 
L 129.6 25.92 
" style="fill: none; stroke: #000000; stroke-width: 0.8; stroke-linejoin: miter; stroke-linecap: square"/>
   </g>
   <g id="patch_5">
    <path d="M 18 189 
L 129.6 189 
" style="fill: none; stroke: #000000; stroke-width: 0.8; stroke-linejoin: miter; stroke-linecap: square"/>
   </g>
   <g id="patch_6">
    <path d="M 18 25.92 
L 129.6 25.92 
" style="fill: none; stroke: #000000; stroke-width: 0.8; stroke-linejoin: miter; stroke-linecap: square"/>
   </g>
  </g>
 </g>
 <defs>
  <clipPath id="p139df7c88a">
   <rect x="18" y="25.92" width="111.6" height="163.08"/>
  </clipPath>
 </defs>
</svg>
