<?xml version="1.0" encoding="utf-8" standalone="no"?>
<!DOCTYPE svg PUBLIC "-//W3C//DTD SVG 1.1//EN"
  "http://www.w3.org/Graphics/SVG/1.1/DTD/svg11.dtd">
<svg xmlns:xlink="http://www.w3.org/1999/xlink" width="144pt" height="216pt" viewBox="0 0 144 216" xmlns="http://www.w3.org/2000/svg" version="1.1">
 <metadata>
  <rdf:RDF xmlns:dc="http://purl.org/dc/elements/1.1/" xmlns:cc="http://creativecommons.org/ns#" xmlns:rdf="http://www.w3.org/1999/02/22-rdf-syntax-ns#">
   <cc:Work>
    <dc:type rdf:resource="http://purl.org/dc/dcmitype/StillImage"/>
    <dc:date>2022-06-18T00:14:19.604081</dc:date>
    <dc:format>image/svg+xml</dc:format>
    <dc:creator>
     <cc:Agent>
      <dc:title>Matplotlib v3.5.1, https://matplotlib.org/</dc:title>
     </cc:Agent>
    </dc:creator>
   </cc:Work>
  </rdf:RDF>
 </metadata>
 <defs>
  <style type="text/css">*{stroke-linejoin: round; stroke-linecap: butt}</style>
 </defs>
 <g id="figure_1">
  <g id="patch_1">
   <path d="M 0 216 
L 144 216 
L 144 0 
L 0 0 
L 0 216 
z
" style="fill: none"/>
  </g>
  <g id="axes_1">
   <g id="patch_2">
    <path d="M 18 189 
L 129.6 189 
L 129.6 25.92 
L 18 25.92 
z
" style="fill: #ffffff"/>
   </g>
   <g id="PathCollection_1">
    <defs>
     <path id="m9049155087" d="M 0 2.738613 
C 0.726289 2.738613 1.422928 2.450055 1.936492 1.936492 
C 2.450055 1.422928 2.738613 0.726289 2.738613 0 
C 2.738613 -0.726289 2.450055 -1.422928 1.936492 -1.936492 
C 1.422928 -2.450055 0.726289 -2.738613 0 -2.738613 
C -0.726289 -2.738613 -1.422928 -2.450055 -1.936492 -1.936492 
C -2.450055 -1.422928 -2.738613 -0.726289 -2.738613 0 
C -2.738613 0.726289 -2.450055 1.422928 -1.936492 1.936492 
C -1.422928 2.450055 -0.726289 2.738613 0 2.738613 
z
" style="stroke: #ff0000; stroke-width: 1.75"/>
    </defs>
    <g clip-path="url(#p2953c4c768)">
     <use xlink:href="#m9049155087" x="66.825" y="83.92143" style="fill: #ff0000; stroke: #ff0000; stroke-width: 1.75"/>
     <use xlink:href="#m9049155087" x="87.75" y="95.690715" style="fill: #ff0000; stroke: #ff0000; stroke-width: 1.75"/>
     <use xlink:href="#m9049155087" x="66.825" y="107.46" style="fill: #ff0000; stroke: #ff0000; stroke-width: 1.75"/>
     <use xlink:href="#m9049155087" x="73.8" y="119.229285" style="fill: #ff0000; stroke: #ff0000; stroke-width: 1.75"/>
     <use xlink:href="#m9049155087" x="87.75" y="119.229285" style="fill: #ff0000; stroke: #ff0000; stroke-width: 1.75"/>
     <use xlink:href="#m9049155087" x="66.825" y="130.99857" style="fill: #ff0000; stroke: #ff0000; stroke-width: 1.75"/>
     <use xlink:href="#m9049155087" x="80.775" y="130.99857" style="fill: #ff0000; stroke: #ff0000; stroke-width: 1.75"/>
    </g>
   </g>
   <g id="PathCollection_2">
    <defs>
     <path id="C0_0_5a1a2e9278" d="M 0 2.738613 
C 0.726289 2.738613 1.422928 2.450055 1.936492 1.936492 
C 2.450055 1.422928 2.738613 0.726289 2.738613 -0 
C 2.738613 -0.726289 2.450055 -1.422928 1.936492 -1.936492 
C 1.422928 -2.450055 0.726289 -2.738613 0 -2.738613 
C -0.726289 -2.738613 -1.422928 -2.450055 -1.936492 -1.936492 
C -2.450055 -1.422928 -2.738613 -0.726289 -2.738613 0 
C -2.738613 0.726289 -2.450055 1.422928 -1.936492 1.936492 
C -1.422928 2.450055 -0.726289 2.738613 0 2.738613 
z
"/>
    </defs>
    <g clip-path="url(#p2953c4c768)">
     <use xlink:href="#C0_0_5a1a2e9278" x="80.775" y="83.92143" style="fill: none; stroke: #ff0000; stroke-width: 1.75"/>
    </g>
    <g clip-path="url(#p2953c4c768)">
     <use xlink:href="#C0_0_5a1a2e9278" x="59.85" y="95.690715" style="fill: none; stroke: #ff0000; stroke-width: 1.75"/>
    </g>
    <g clip-path="url(#p2953c4c768)">
     <use xlink:href="#C0_0_5a1a2e9278" x="73.8" y="95.690715" style="fill: none; stroke: #ff0000; stroke-width: 1.75"/>
    </g>
    <g clip-path="url(#p2953c4c768)">
     <use xlink:href="#C0_0_5a1a2e9278" x="52.875" y="107.46" style="fill: none; stroke: #ff0000; stroke-width: 1.75"/>
    </g>
    <g clip-path="url(#p2953c4c768)">
     <use xlink:href="#C0_0_5a1a2e9278" x="80.775" y="107.46" style="fill: none; stroke: #ff0000; stroke-width: 1.75"/>
    </g>
    <g clip-path="url(#p2953c4c768)">
     <use xlink:href="#C0_0_5a1a2e9278" x="94.725" y="107.46" style="fill: none; stroke: #ff0000; stroke-width: 1.75"/>
    </g>
    <g clip-path="url(#p2953c4c768)">
     <use xlink:href="#C0_0_5a1a2e9278" x="59.85" y="119.229285" style="fill: none; stroke: #ff0000; stroke-width: 1.75"/>
    </g>
   </g>
   <g id="PathCollection_3">
    <path d="M 118.264677 120.939686 
C 118.545967 120.939686 118.815775 120.827928 119.014677 120.629026 
C 119.213579 120.430123 119.325337 120.160316 119.325337 119.879026 
C 119.325337 119.597735 119.213579 119.327928 119.014677 119.129026 
C 118.815775 118.930123 118.545967 118.818366 118.264677 118.818366 
C 117.983387 118.818366 117.713579 118.930123 117.514677 119.129026 
C 117.315775 119.327928 117.204017 119.597735 117.204017 119.879026 
C 117.204017 120.160316 117.315775 120.430123 117.514677 120.629026 
C 117.713579 120.827928 117.983387 120.939686 118.264677 120.939686 
z
" clip-path="url(#p2953c4c768)" style="stroke: #000000"/>
    <path d="M 113.906276 107.366616 
C 114.186694 107.366616 114.455665 107.255204 114.653951 107.056919 
C 114.852236 106.858633 114.963648 106.589662 114.963648 106.309244 
C 114.963648 106.028826 114.852236 105.759855 114.653951 105.56157 
C 114.455665 105.363284 114.186694 105.251873 113.906276 105.251873 
C 113.625858 105.251873 113.356888 105.363284 113.158602 105.56157 
C 112.960316 105.759855 112.848905 106.028826 112.848905 106.309244 
C 112.848905 106.589662 112.960316 106.858633 113.158602 107.056919 
C 113.356888 107.255204 113.625858 107.366616 113.906276 107.366616 
z
" clip-path="url(#p2953c4c768)" style="stroke: #000000"/>
    <path d="M 114.220396 101.04714 
C 114.456199 101.04714 114.682375 100.953455 114.849113 100.786717 
C 115.015851 100.61998 115.109536 100.393803 115.109536 100.158001 
C 115.109536 99.922198 115.015851 99.696022 114.849113 99.529284 
C 114.682375 99.362546 114.456199 99.268861 114.220396 99.268861 
C 113.984594 99.268861 113.758417 99.362546 113.591679 99.529284 
C 113.424942 99.696022 113.331256 99.922198 113.331256 100.158001 
C 113.331256 100.393803 113.424942 100.61998 113.591679 100.786717 
C 113.758417 100.953455 113.984594 101.04714 114.220396 101.04714 
z
" clip-path="url(#p2953c4c768)" style="stroke: #000000"/>
    <path d="M 106.31608 90.965883 
C 106.553343 90.965883 106.78092 90.871617 106.94869 90.703847 
C 107.11646 90.536077 107.210726 90.3085 107.210726 90.071237 
C 107.210726 89.833974 107.11646 89.606397 106.94869 89.438627 
C 106.78092 89.270857 106.553343 89.176592 106.31608 89.176592 
C 106.078817 89.176592 105.85124 89.270857 105.68347 89.438627 
C 105.5157 89.606397 105.421435 89.833974 105.421435 90.071237 
C 105.421435 90.3085 105.5157 90.536077 105.68347 90.703847 
C 105.85124 90.871617 106.078817 90.965883 106.31608 90.965883 
z
" clip-path="url(#p2953c4c768)" style="stroke: #000000"/>
    <path d="M 104.854346 82.592395 
C 105.134764 82.592395 105.403735 82.480984 105.602021 82.282699 
C 105.800306 82.084413 105.911718 81.815442 105.911718 81.535024 
C 105.911718 81.254606 105.800306 80.985635 105.602021 80.78735 
C 105.403735 80.589064 105.134764 80.477653 104.854346 80.477653 
C 104.573928 80.477653 104.304957 80.589064 104.106672 80.78735 
C 103.908386 80.985635 103.796975 81.254606 103.796975 81.535024 
C 103.796975 81.815442 103.908386 82.084413 104.106672 82.282699 
C 104.304957 82.480984 104.573928 82.592395 104.854346 82.592395 
z
" clip-path="url(#p2953c4c768)" style="stroke: #000000"/>
    <path d="M 105.193698 69.701767 
C 105.474117 69.701767 105.743087 69.590356 105.941373 69.39207 
C 106.139658 69.193785 106.25107 68.924814 106.25107 68.644396 
C 106.25107 68.363978 106.139658 68.095007 105.941373 67.896721 
C 105.743087 67.698436 105.474117 67.587025 105.193698 67.587025 
C 104.91328 67.587025 104.64431 67.698436 104.446024 67.896721 
C 104.247738 68.095007 104.136327 68.363978 104.136327 68.644396 
C 104.136327 68.924814 104.247738 69.193785 104.446024 69.39207 
C 104.64431 69.590356 104.91328 69.701767 105.193698 69.701767 
z
" clip-path="url(#p2953c4c768)" style="stroke: #000000"/>
    <path d="M 99.909476 57.833442 
C 99.909476 57.833442 99.909476 57.833442 99.909476 57.833442 
C 99.909476 57.833442 99.909476 57.833442 99.909476 57.833442 
C 99.909476 57.833442 99.909476 57.833442 99.909476 57.833442 
C 99.909476 57.833442 99.909476 57.833442 99.909476 57.833442 
C 99.909476 57.833442 99.909476 57.833442 99.909476 57.833442 
C 99.909476 57.833442 99.909476 57.833442 99.909476 57.833442 
C 99.909476 57.833442 99.909476 57.833442 99.909476 57.833442 
C 99.909476 57.833442 99.909476 57.833442 99.909476 57.833442 
z
" clip-path="url(#p2953c4c768)" style="stroke: #000000"/>
    <path d="M 89.987299 47.712462 
C 89.987299 47.712462 89.987299 47.712462 89.987299 47.712462 
C 89.987299 47.712462 89.987299 47.712462 89.987299 47.712462 
C 89.987299 47.712462 89.987299 47.712462 89.987299 47.712462 
C 89.987299 47.712462 89.987299 47.712462 89.987299 47.712462 
C 89.987299 47.712462 89.987299 47.712462 89.987299 47.712462 
C 89.987299 47.712462 89.987299 47.712462 89.987299 47.712462 
C 89.987299 47.712462 89.987299 47.712462 89.987299 47.712462 
C 89.987299 47.712462 89.987299 47.712462 89.987299 47.712462 
z
" clip-path="url(#p2953c4c768)" style="stroke: #000000"/>
    <path d="M 87.872535 42.205424 
C 88.152954 42.205424 88.421924 42.094013 88.62021 41.895728 
C 88.818495 41.697442 88.929907 41.428471 88.929907 41.148053 
C 88.929907 40.867635 88.818495 40.598664 88.62021 40.400379 
C 88.421924 40.202093 88.152954 40.090682 87.872535 40.090682 
C 87.592117 40.090682 87.323147 40.202093 87.124861 40.400379 
C 86.926575 40.598664 86.815164 40.867635 86.815164 41.148053 
C 86.815164 41.428471 86.926575 41.697442 87.124861 41.895728 
C 87.323147 42.094013 87.592117 42.205424 87.872535 42.205424 
z
" clip-path="url(#p2953c4c768)" style="stroke: #000000"/>
    <path d="M 118.169029 153.770208 
C 118.169029 153.770208 118.169029 153.770208 118.169029 153.770208 
C 118.169029 153.770208 118.169029 153.770208 118.169029 153.770208 
C 118.169029 153.770208 118.169029 153.770208 118.169029 153.770208 
C 118.169029 153.770208 118.169029 153.770208 118.169029 153.770208 
C 118.169029 153.770208 118.169029 153.770208 118.169029 153.770208 
C 118.169029 153.770208 118.169029 153.770208 118.169029 153.770208 
C 118.169029 153.770208 118.169029 153.770208 118.169029 153.770208 
C 118.169029 153.770208 118.169029 153.770208 118.169029 153.770208 
z
" clip-path="url(#p2953c4c768)" style="stroke: #000000"/>
    <path d="M 113.104878 149.241067 
C 113.385296 149.241067 113.654267 149.129656 113.852553 148.931371 
C 114.050838 148.733085 114.162249 148.464114 114.162249 148.183696 
C 114.162249 147.903278 114.050838 147.634307 113.852553 147.436022 
C 113.654267 147.237736 113.385296 147.126325 113.104878 147.126325 
C 112.82446 147.126325 112.555489 147.237736 112.357204 147.436022 
C 112.158918 147.634307 112.047507 147.903278 112.047507 148.183696 
C 112.047507 148.464114 112.158918 148.733085 112.357204 148.931371 
C 112.555489 149.129656 112.82446 149.241067 113.104878 149.241067 
z
" clip-path="url(#p2953c4c768)" style="stroke: #000000"/>
    <path d="M 112.444798 134.78958 
C 112.726089 134.78958 112.995896 134.677822 113.194798 134.478919 
C 113.393701 134.280017 113.505459 134.01021 113.505459 133.728919 
C 113.505459 133.447629 113.393701 133.177822 113.194798 132.978919 
C 112.995896 132.780017 112.726089 132.668259 112.444798 132.668259 
C 112.163508 132.668259 111.893701 132.780017 111.694798 132.978919 
C 111.495896 133.177822 111.384138 133.447629 111.384138 133.728919 
C 111.384138 134.01021 111.495896 134.280017 111.694798 134.478919 
C 111.893701 134.677822 112.163508 134.78958 112.444798 134.78958 
z
" clip-path="url(#p2953c4c768)" style="stroke: #000000"/>
    <path d="M 107.430206 125.588838 
C 107.711496 125.588838 107.981303 125.47708 108.180206 125.278177 
C 108.379108 125.079275 108.490866 124.809468 108.490866 124.528177 
C 108.490866 124.246887 108.379108 123.97708 108.180206 123.778177 
C 107.981303 123.579275 107.711496 123.467517 107.430206 123.467517 
C 107.148915 123.467517 106.879108 123.579275 106.680206 123.778177 
C 106.481303 123.97708 106.369546 124.246887 106.369546 124.528177 
C 106.369546 124.809468 106.481303 125.079275 106.680206 125.278177 
C 106.879108 125.47708 107.148915 125.588838 107.430206 125.588838 
z
" clip-path="url(#p2953c4c768)" style="stroke: #000000"/>
    <path d="M 102.845922 111.841714 
C 103.101265 111.841714 103.346184 111.740265 103.526739 111.55971 
C 103.707294 111.379155 103.808743 111.134236 103.808743 110.878892 
C 103.808743 110.623549 103.707294 110.37863 103.526739 110.198075 
C 103.346184 110.01752 103.101265 109.916071 102.845922 109.916071 
C 102.590579 109.916071 102.345659 110.01752 102.165104 110.198075 
C 101.984549 110.37863 101.8831 110.623549 101.8831 110.878892 
C 101.8831 111.134236 101.984549 111.379155 102.165104 111.55971 
C 102.345659 111.740265 102.590579 111.841714 102.845922 111.841714 
z
" clip-path="url(#p2953c4c768)" style="stroke: #000000"/>
    <path d="M 99.961805 102.41234 
C 100.243095 102.41234 100.512902 102.300582 100.711805 102.101679 
C 100.910707 101.902777 101.022465 101.63297 101.022465 101.351679 
C 101.022465 101.070389 100.910707 100.800582 100.711805 100.601679 
C 100.512902 100.402777 100.243095 100.291019 99.961805 100.291019 
C 99.680514 100.291019 99.410707 100.402777 99.211805 100.601679 
C 99.012902 100.800582 98.901145 101.070389 98.901145 101.351679 
C 98.901145 101.63297 99.012902 101.902777 99.211805 102.101679 
C 99.410707 102.300582 99.680514 102.41234 99.961805 102.41234 
z
" clip-path="url(#p2953c4c768)" style="stroke: #000000"/>
    <path d="M 93.941523 95.090333 
C 94.167937 95.090333 94.385109 95.000377 94.545207 94.840278 
C 94.705306 94.680179 94.795262 94.463008 94.795262 94.236594 
C 94.795262 94.01018 94.705306 93.793009 94.545207 93.63291 
C 94.385109 93.472811 94.167937 93.382856 93.941523 93.382856 
C 93.715109 93.382856 93.497938 93.472811 93.337839 93.63291 
C 93.17774 93.793009 93.087785 94.01018 93.087785 94.236594 
C 93.087785 94.463008 93.17774 94.680179 93.337839 94.840278 
C 93.497938 95.000377 93.715109 95.090333 93.941523 95.090333 
z
" clip-path="url(#p2953c4c768)" style="stroke: #000000"/>
    <path d="M 91.643903 84.426756 
C 91.881165 84.426756 92.108742 84.332491 92.276512 84.164721 
C 92.444283 83.996951 92.538548 83.769374 92.538548 83.532111 
C 92.538548 83.294848 92.444283 83.067271 92.276512 82.899501 
C 92.108742 82.731731 91.881165 82.637465 91.643903 82.637465 
C 91.40664 82.637465 91.179063 82.731731 91.011293 82.899501 
C 90.843523 83.067271 90.749257 83.294848 90.749257 83.532111 
C 90.749257 83.769374 90.843523 83.996951 91.011293 84.164721 
C 91.179063 84.332491 91.40664 84.426756 91.643903 84.426756 
z
" clip-path="url(#p2953c4c768)" style="stroke: #000000"/>
    <path d="M 89.202639 71.979269 
C 89.438442 71.979269 89.664618 71.885584 89.831356 71.718846 
C 89.998093 71.552109 90.091779 71.325932 90.091779 71.090129 
C 90.091779 70.854327 89.998093 70.62815 89.831356 70.461413 
C 89.664618 70.294675 89.438442 70.20099 89.202639 70.20099 
C 88.966837 70.20099 88.74066 70.294675 88.573922 70.461413 
C 88.407185 70.62815 88.313499 70.854327 88.313499 71.090129 
C 88.313499 71.325932 88.407185 71.552109 88.573922 71.718846 
C 88.74066 71.885584 88.966837 71.979269 89.202639 71.979269 
z
" clip-path="url(#p2953c4c768)" style="stroke: #000000"/>
    <path d="M 82.571027 65.3027 
C 82.852317 65.3027 83.122125 65.190942 83.321027 64.99204 
C 83.519929 64.793138 83.631687 64.52333 83.631687 64.24204 
C 83.631687 63.96075 83.519929 63.690942 83.321027 63.49204 
C 83.122125 63.293138 82.852317 63.18138 82.571027 63.18138 
C 82.289737 63.18138 82.019929 63.293138 81.821027 63.49204 
C 81.622125 63.690942 81.510367 63.96075 81.510367 64.24204 
C 81.510367 64.52333 81.622125 64.793138 81.821027 64.99204 
C 82.019929 65.190942 82.289737 65.3027 82.571027 65.3027 
z
" clip-path="url(#p2953c4c768)" style="stroke: #000000"/>
    <path d="M 80.134067 48.621909 
C 80.357075 48.621909 80.57098 48.533307 80.72867 48.375616 
C 80.886361 48.217925 80.974963 48.004021 80.974963 47.781013 
C 80.974963 47.558004 80.886361 47.3441 80.72867 47.186409 
C 80.57098 47.028718 80.357075 46.940116 80.134067 46.940116 
C 79.911059 46.940116 79.697154 47.028718 79.539463 47.186409 
C 79.381773 47.3441 79.29317 47.558004 79.29317 47.781013 
C 79.29317 48.004021 79.381773 48.217925 79.539463 48.375616 
C 79.697154 48.533307 79.911059 48.621909 80.134067 48.621909 
z
" clip-path="url(#p2953c4c768)" style="stroke: #000000"/>
    <path d="M 82.910678 40.846652 
C 83.191969 40.846652 83.461776 40.734894 83.660678 40.535992 
C 83.859581 40.33709 83.971339 40.067283 83.971339 39.785992 
C 83.971339 39.504702 83.859581 39.234894 83.660678 39.035992 
C 83.461776 38.83709 83.191969 38.725332 82.910678 38.725332 
C 82.629388 38.725332 82.359581 38.83709 82.160678 39.035992 
C 81.961776 39.234894 81.850018 39.504702 81.850018 39.785992 
C 81.850018 40.067283 81.961776 40.33709 82.160678 40.535992 
C 82.359581 40.734894 82.629388 40.846652 82.910678 40.846652 
z
" clip-path="url(#p2953c4c768)" style="stroke: #000000"/>
    <path d="M 75.968155 31.191192 
C 76.249445 31.191192 76.519252 31.079434 76.718155 30.880532 
C 76.917057 30.68163 77.028815 30.411822 77.028815 30.130532 
C 77.028815 29.849242 76.917057 29.579434 76.718155 29.380532 
C 76.519252 29.18163 76.249445 29.069872 75.968155 29.069872 
C 75.686864 29.069872 75.417057 29.18163 75.218155 29.380532 
C 75.019252 29.579434 74.907494 29.849242 74.907494 30.130532 
C 74.907494 30.411822 75.019252 30.68163 75.218155 30.880532 
C 75.417057 31.079434 75.686864 31.191192 75.968155 31.191192 
z
" clip-path="url(#p2953c4c768)" style="stroke: #000000"/>
    <path d="M 114.617851 175.888262 
C 114.831586 175.888262 115.036595 175.803345 115.187728 175.652212 
C 115.338861 175.501079 115.423779 175.296069 115.423779 175.082335 
C 115.423779 174.868601 115.338861 174.663591 115.187728 174.512458 
C 115.036595 174.361325 114.831586 174.276408 114.617851 174.276408 
C 114.404117 174.276408 114.199107 174.361325 114.047974 174.512458 
C 113.896841 174.663591 113.811924 174.868601 113.811924 175.082335 
C 113.811924 175.296069 113.896841 175.501079 114.047974 175.652212 
C 114.199107 175.803345 114.404117 175.888262 114.617851 175.888262 
z
" clip-path="url(#p2953c4c768)" style="stroke: #000000"/>
    <path d="M 110.43472 169.101062 
C 110.43472 169.101062 110.43472 169.101062 110.43472 169.101062 
C 110.43472 169.101062 110.43472 169.101062 110.43472 169.101062 
C 110.43472 169.101062 110.43472 169.101062 110.43472 169.101062 
C 110.43472 169.101062 110.43472 169.101062 110.43472 169.101062 
C 110.43472 169.101062 110.43472 169.101062 110.43472 169.101062 
C 110.43472 169.101062 110.43472 169.101062 110.43472 169.101062 
C 110.43472 169.101062 110.43472 169.101062 110.43472 169.101062 
C 110.43472 169.101062 110.43472 169.101062 110.43472 169.101062 
z
" clip-path="url(#p2953c4c768)" style="stroke: #000000"/>
    <path d="M 102.887693 157.79905 
C 103.112424 157.79905 103.32798 157.709764 103.486889 157.550855 
C 103.645797 157.391947 103.735084 157.17639 103.735084 156.95166 
C 103.735084 156.726929 103.645797 156.511373 103.486889 156.352464 
C 103.32798 156.193556 103.112424 156.104269 102.887693 156.104269 
C 102.662963 156.104269 102.447406 156.193556 102.288498 156.352464 
C 102.12959 156.511373 102.040303 156.726929 102.040303 156.95166 
C 102.040303 157.17639 102.12959 157.391947 102.288498 157.550855 
C 102.447406 157.709764 102.662963 157.79905 102.887693 157.79905 
z
" clip-path="url(#p2953c4c768)" style="stroke: #000000"/>
    <path d="M 105.068988 151.35417 
C 105.350279 151.35417 105.620086 151.242412 105.818988 151.04351 
C 106.017891 150.844607 106.129649 150.5748 106.129649 150.29351 
C 106.129649 150.012219 106.017891 149.742412 105.818988 149.54351 
C 105.620086 149.344607 105.350279 149.23285 105.068988 149.23285 
C 104.787698 149.23285 104.517891 149.344607 104.318988 149.54351 
C 104.120086 149.742412 104.008328 150.012219 104.008328 150.29351 
C 104.008328 150.5748 104.120086 150.844607 104.318988 151.04351 
C 104.517891 151.242412 104.787698 151.35417 105.068988 151.35417 
z
" clip-path="url(#p2953c4c768)" style="stroke: #000000"/>
    <path d="M 100.538218 138.463009 
C 100.818636 138.463009 101.087607 138.351597 101.285893 138.153312 
C 101.484178 137.955026 101.595589 137.686055 101.595589 137.405637 
C 101.595589 137.125219 101.484178 136.856248 101.285893 136.657963 
C 101.087607 136.459677 100.818636 136.348266 100.538218 136.348266 
C 100.2578 136.348266 99.988829 136.459677 99.790544 136.657963 
C 99.592258 136.856248 99.480847 137.125219 99.480847 137.405637 
C 99.480847 137.686055 99.592258 137.955026 99.790544 138.153312 
C 99.988829 138.351597 100.2578 138.463009 100.538218 138.463009 
z
" clip-path="url(#p2953c4c768)" style="stroke: #000000"/>
    <path d="M 95.664683 129.145099 
C 95.945974 129.145099 96.215781 129.033341 96.414683 128.834439 
C 96.613585 128.635537 96.725343 128.365729 96.725343 128.084439 
C 96.725343 127.803148 96.613585 127.533341 96.414683 127.334439 
C 96.215781 127.135537 95.945974 127.023779 95.664683 127.023779 
C 95.383393 127.023779 95.113585 127.135537 94.914683 127.334439 
C 94.715781 127.533341 94.604023 127.803148 94.604023 128.084439 
C 94.604023 128.365729 94.715781 128.635537 94.914683 128.834439 
C 95.113585 129.033341 95.383393 129.145099 95.664683 129.145099 
z
" clip-path="url(#p2953c4c768)" style="stroke: #000000"/>
    <path d="M 95.36003 115.826692 
C 95.641321 115.826692 95.911128 115.714934 96.11003 115.516032 
C 96.308933 115.317129 96.42069 115.047322 96.42069 114.766032 
C 96.42069 114.484741 96.308933 114.214934 96.11003 114.016032 
C 95.911128 113.817129 95.641321 113.705371 95.36003 113.705371 
C 95.07874 113.705371 94.808933 113.817129 94.61003 114.016032 
C 94.411128 114.214934 94.29937 114.484741 94.29937 114.766032 
C 94.29937 115.047322 94.411128 115.317129 94.61003 115.516032 
C 94.808933 115.714934 95.07874 115.826692 95.36003 115.826692 
z
" clip-path="url(#p2953c4c768)" style="stroke: #000000"/>
    <path d="M 90.345806 104.280594 
C 90.573866 104.280594 90.792617 104.189984 90.95388 104.028721 
C 91.115144 103.867458 91.205753 103.648707 91.205753 103.420646 
C 91.205753 103.192585 91.115144 102.973835 90.95388 102.812571 
C 90.792617 102.651308 90.573866 102.560699 90.345806 102.560699 
C 90.117745 102.560699 89.898994 102.651308 89.737731 102.812571 
C 89.576467 102.973835 89.485858 103.192585 89.485858 103.420646 
C 89.485858 103.648707 89.576467 103.867458 89.737731 104.028721 
C 89.898994 104.189984 90.117745 104.280594 90.345806 104.280594 
z
" clip-path="url(#p2953c4c768)" style="stroke: #000000"/>
    <path d="M 87.879217 99.999556 
C 88.213212 99.999556 88.533572 99.866859 88.769742 99.630688 
C 89.005913 99.394518 89.13861 99.074158 89.13861 98.740163 
C 89.13861 98.406168 89.005913 98.085807 88.769742 97.849637 
C 88.533572 97.613467 88.213212 97.480769 87.879217 97.480769 
C 87.545222 97.480769 87.224861 97.613467 86.988691 97.849637 
C 86.752521 98.085807 86.619823 98.406168 86.619823 98.740163 
C 86.619823 99.074158 86.752521 99.394518 86.988691 99.630688 
C 87.224861 99.866859 87.545222 99.999556 87.879217 99.999556 
z
" clip-path="url(#p2953c4c768)" style="stroke: #000000"/>
    <path d="M 84.224551 87.850334 
C 84.504969 87.850334 84.77394 87.738923 84.972225 87.540638 
C 85.170511 87.342352 85.281922 87.073381 85.281922 86.792963 
C 85.281922 86.512545 85.170511 86.243574 84.972225 86.045289 
C 84.77394 85.847003 84.504969 85.735592 84.224551 85.735592 
C 83.944133 85.735592 83.675162 85.847003 83.476876 86.045289 
C 83.278591 86.243574 83.16718 86.512545 83.16718 86.792963 
C 83.16718 87.073381 83.278591 87.342352 83.476876 87.540638 
C 83.675162 87.738923 83.944133 87.850334 84.224551 87.850334 
z
" clip-path="url(#p2953c4c768)" style="stroke: #000000"/>
    <path d="M 77.286973 75.956284 
C 77.410373 75.956284 77.528735 75.907257 77.615992 75.82 
C 77.703248 75.732744 77.752276 75.614381 77.752276 75.490982 
C 77.752276 75.367582 77.703248 75.24922 77.615992 75.161963 
C 77.528735 75.074707 77.410373 75.025679 77.286973 75.025679 
C 77.163574 75.025679 77.045211 75.074707 76.957955 75.161963 
C 76.870698 75.24922 76.821671 75.367582 76.821671 75.490982 
C 76.821671 75.614381 76.870698 75.732744 76.957955 75.82 
C 77.045211 75.907257 77.163574 75.956284 77.286973 75.956284 
z
" clip-path="url(#p2953c4c768)" style="stroke: #000000"/>
    <path d="M 76.791484 64.127346 
C 76.791484 64.127346 76.791484 64.127346 76.791484 64.127346 
C 76.791484 64.127346 76.791484 64.127346 76.791484 64.127346 
C 76.791484 64.127346 76.791484 64.127346 76.791484 64.127346 
C 76.791484 64.127346 76.791484 64.127346 76.791484 64.127346 
C 76.791484 64.127346 76.791484 64.127346 76.791484 64.127346 
C 76.791484 64.127346 76.791484 64.127346 76.791484 64.127346 
C 76.791484 64.127346 76.791484 64.127346 76.791484 64.127346 
C 76.791484 64.127346 76.791484 64.127346 76.791484 64.127346 
z
" clip-path="url(#p2953c4c768)" style="stroke: #000000"/>
    <path d="M 71.191544 55.98419 
C 71.472834 55.98419 71.742642 55.872433 71.941544 55.67353 
C 72.140446 55.474628 72.252204 55.204821 72.252204 54.92353 
C 72.252204 54.64224 72.140446 54.372433 71.941544 54.17353 
C 71.742642 53.974628 71.472834 53.86287 71.191544 53.86287 
C 70.910254 53.86287 70.640446 53.974628 70.441544 54.17353 
C 70.242642 54.372433 70.130884 54.64224 70.130884 54.92353 
C 70.130884 55.204821 70.242642 55.474628 70.441544 55.67353 
C 70.640446 55.872433 70.910254 55.98419 71.191544 55.98419 
z
" clip-path="url(#p2953c4c768)" style="stroke: #000000"/>
    <path d="M 67.86052 43.998745 
C 67.86052 43.998745 67.86052 43.998745 67.86052 43.998745 
C 67.86052 43.998745 67.86052 43.998745 67.86052 43.998745 
C 67.86052 43.998745 67.86052 43.998745 67.86052 43.998745 
C 67.86052 43.998745 67.86052 43.998745 67.86052 43.998745 
C 67.86052 43.998745 67.86052 43.998745 67.86052 43.998745 
C 67.86052 43.998745 67.86052 43.998745 67.86052 43.998745 
C 67.86052 43.998745 67.86052 43.998745 67.86052 43.998745 
C 67.86052 43.998745 67.86052 43.998745 67.86052 43.998745 
z
" clip-path="url(#p2953c4c768)" style="stroke: #000000"/>
    <path d="M 67.832704 34.358207 
C 68.040237 34.358207 68.239297 34.275753 68.386045 34.129005 
C 68.532793 33.982258 68.615246 33.783197 68.615246 33.575664 
C 68.615246 33.368132 68.532793 33.169071 68.386045 33.022323 
C 68.239297 32.875576 68.040237 32.793122 67.832704 32.793122 
C 67.625171 32.793122 67.426111 32.875576 67.279363 33.022323 
C 67.132615 33.169071 67.050162 33.368132 67.050162 33.575664 
C 67.050162 33.783197 67.132615 33.982258 67.279363 34.129005 
C 67.426111 34.275753 67.625171 34.358207 67.832704 34.358207 
z
" clip-path="url(#p2953c4c768)" style="stroke: #000000"/>
    <path d="M 61.938701 25.500822 
C 62.085448 25.500822 62.226205 25.442519 62.329972 25.338752 
C 62.433738 25.234986 62.492042 25.094229 62.492042 24.947481 
C 62.492042 24.800734 62.433738 24.659977 62.329972 24.55621 
C 62.226205 24.452444 62.085448 24.39414 61.938701 24.39414 
C 61.791953 24.39414 61.651196 24.452444 61.54743 24.55621 
C 61.443663 24.659977 61.38536 24.800734 61.38536 24.947481 
C 61.38536 25.094229 61.443663 25.234986 61.54743 25.338752 
C 61.651196 25.442519 61.791953 25.500822 61.938701 25.500822 
z
" clip-path="url(#p2953c4c768)" style="stroke: #000000"/>
    <path d="M 106.235818 181.156564 
C 106.516236 181.156564 106.785207 181.045153 106.983493 180.846867 
C 107.181778 180.648582 107.29319 180.379611 107.29319 180.099193 
C 107.29319 179.818775 107.181778 179.549804 106.983493 179.351519 
C 106.785207 179.153233 106.516236 179.041822 106.235818 179.041822 
C 105.9554 179.041822 105.686429 179.153233 105.488144 179.351519 
C 105.289858 179.549804 105.178447 179.818775 105.178447 180.099193 
C 105.178447 180.379611 105.289858 180.648582 105.488144 180.846867 
C 105.686429 181.045153 105.9554 181.156564 106.235818 181.156564 
z
" clip-path="url(#p2953c4c768)" style="stroke: #000000"/>
    <path d="M 99.890473 171.271781 
C 100.113481 171.271781 100.327386 171.183179 100.485077 171.025488 
C 100.642767 170.867797 100.731369 170.653893 100.731369 170.430884 
C 100.731369 170.207876 100.642767 169.993971 100.485077 169.836281 
C 100.327386 169.67859 100.113481 169.589988 99.890473 169.589988 
C 99.667465 169.589988 99.45356 169.67859 99.295869 169.836281 
C 99.138179 169.993971 99.049577 170.207876 99.049577 170.430884 
C 99.049577 170.653893 99.138179 170.867797 99.295869 171.025488 
C 99.45356 171.183179 99.667465 171.271781 99.890473 171.271781 
z
" clip-path="url(#p2953c4c768)" style="stroke: #000000"/>
    <path d="M 95.261341 161.534601 
C 95.484349 161.534601 95.698254 161.445999 95.855944 161.288308 
C 96.013635 161.130618 96.102237 160.916713 96.102237 160.693705 
C 96.102237 160.470696 96.013635 160.256792 95.855944 160.099101 
C 95.698254 159.94141 95.484349 159.852808 95.261341 159.852808 
C 95.038333 159.852808 94.824428 159.94141 94.666737 160.099101 
C 94.509047 160.256792 94.420444 160.470696 94.420444 160.693705 
C 94.420444 160.916713 94.509047 161.130618 94.666737 161.288308 
C 94.824428 161.445999 95.038333 161.534601 95.261341 161.534601 
z
" clip-path="url(#p2953c4c768)" style="stroke: #000000"/>
    <path d="M 94.96883 150.104427 
C 95.19356 150.104427 95.409117 150.015141 95.568025 149.856233 
C 95.726934 149.697324 95.81622 149.481768 95.81622 149.257037 
C 95.81622 149.032307 95.726934 148.81675 95.568025 148.657842 
C 95.409117 148.498933 95.19356 148.409647 94.96883 148.409647 
C 94.744099 148.409647 94.528543 148.498933 94.369634 148.657842 
C 94.210726 148.81675 94.12144 149.032307 94.12144 149.257037 
C 94.12144 149.481768 94.210726 149.697324 94.369634 149.856233 
C 94.528543 150.015141 94.744099 150.104427 94.96883 150.104427 
z
" clip-path="url(#p2953c4c768)" style="stroke: #000000"/>
    <path d="M 87.46119 144.688741 
C 87.741608 144.688741 88.010578 144.57733 88.208864 144.379044 
C 88.40715 144.180759 88.518561 143.911788 88.518561 143.63137 
C 88.518561 143.350952 88.40715 143.081981 88.208864 142.883695 
C 88.010578 142.68541 87.741608 142.573998 87.46119 142.573998 
C 87.180771 142.573998 86.911801 142.68541 86.713515 142.883695 
C 86.51523 143.081981 86.403818 143.350952 86.403818 143.63137 
C 86.403818 143.911788 86.51523 144.180759 86.713515 144.379044 
C 86.911801 144.57733 87.180771 144.688741 87.46119 144.688741 
z
" clip-path="url(#p2953c4c768)" style="stroke: #000000"/>
    <path d="M 87.366669 133.783026 
C 87.584257 133.783026 87.792961 133.696578 87.946818 133.542721 
C 88.100676 133.388864 88.187124 133.180159 88.187124 132.962572 
C 88.187124 132.744985 88.100676 132.53628 87.946818 132.382423 
C 87.792961 132.228566 87.584257 132.142117 87.366669 132.142117 
C 87.149082 132.142117 86.940378 132.228566 86.786521 132.382423 
C 86.632663 132.53628 86.546215 132.744985 86.546215 132.962572 
C 86.546215 133.180159 86.632663 133.388864 86.786521 133.542721 
C 86.940378 133.696578 87.149082 133.783026 87.366669 133.783026 
z
" clip-path="url(#p2953c4c768)" style="stroke: #000000"/>
    <path d="M 83.108432 122.29105 
C 83.344235 122.29105 83.570411 122.197365 83.737149 122.030627 
C 83.903886 121.863889 83.997572 121.637713 83.997572 121.40191 
C 83.997572 121.166108 83.903886 120.939931 83.737149 120.773194 
C 83.570411 120.606456 83.344235 120.512771 83.108432 120.512771 
C 82.87263 120.512771 82.646453 120.606456 82.479715 120.773194 
C 82.312978 120.939931 82.219292 121.166108 82.219292 121.40191 
C 82.219292 121.637713 82.312978 121.863889 82.479715 122.030627 
C 82.646453 122.197365 82.87263 122.29105 83.108432 122.29105 
z
" clip-path="url(#p2953c4c768)" style="stroke: #000000"/>
    <path d="M 79.154811 107.540245 
C 79.436101 107.540245 79.705908 107.428487 79.904811 107.229585 
C 80.103713 107.030683 80.215471 106.760875 80.215471 106.479585 
C 80.215471 106.198295 80.103713 105.928487 79.904811 105.729585 
C 79.705908 105.530683 79.436101 105.418925 79.154811 105.418925 
C 78.87352 105.418925 78.603713 105.530683 78.404811 105.729585 
C 78.205908 105.928487 78.094151 106.198295 78.094151 106.479585 
C 78.094151 106.760875 78.205908 107.030683 78.404811 107.229585 
C 78.603713 107.428487 78.87352 107.540245 79.154811 107.540245 
z
" clip-path="url(#p2953c4c768)" style="stroke: #000000"/>
    <path d="M 75.264244 101.719701 
C 75.545534 101.719701 75.815341 101.607943 76.014244 101.409041 
C 76.213146 101.210138 76.324904 100.940331 76.324904 100.659041 
C 76.324904 100.37775 76.213146 100.107943 76.014244 99.909041 
C 75.815341 99.710138 75.545534 99.598381 75.264244 99.598381 
C 74.982953 99.598381 74.713146 99.710138 74.514244 99.909041 
C 74.315341 100.107943 74.203583 100.37775 74.203583 100.659041 
C 74.203583 100.940331 74.315341 101.210138 74.514244 101.409041 
C 74.713146 101.607943 74.982953 101.719701 75.264244 101.719701 
z
" clip-path="url(#p2953c4c768)" style="stroke: #000000"/>
    <path d="M 66.944837 89.96506 
C 67.20247 89.96506 67.449586 89.862701 67.631761 89.680527 
C 67.813935 89.498353 67.916294 89.251236 67.916294 88.993603 
C 67.916294 88.735969 67.813935 88.488853 67.631761 88.306679 
C 67.449586 88.124504 67.20247 88.022146 66.944837 88.022146 
C 66.687203 88.022146 66.440087 88.124504 66.257913 88.306679 
C 66.075738 88.488853 65.973379 88.735969 65.973379 88.993603 
C 65.973379 89.251236 66.075738 89.498353 66.257913 89.680527 
C 66.440087 89.862701 66.687203 89.96506 66.944837 89.96506 
z
" clip-path="url(#p2953c4c768)" style="stroke: #000000"/>
    <path d="M 67.842522 77.60792 
C 68.078325 77.60792 68.304501 77.514234 68.471239 77.347497 
C 68.637976 77.180759 68.731662 76.954583 68.731662 76.71878 
C 68.731662 76.482977 68.637976 76.256801 68.471239 76.090063 
C 68.304501 75.923326 68.078325 75.82964 67.842522 75.82964 
C 67.606719 75.82964 67.380543 75.923326 67.213805 76.090063 
C 67.047068 76.256801 66.953382 76.482977 66.953382 76.71878 
C 66.953382 76.954583 67.047068 77.180759 67.213805 77.347497 
C 67.380543 77.514234 67.606719 77.60792 67.842522 77.60792 
z
" clip-path="url(#p2953c4c768)" style="stroke: #000000"/>
    <path d="M 67.145187 66.500222 
C 67.426477 66.500222 67.696284 66.388464 67.895187 66.189562 
C 68.094089 65.990659 68.205847 65.720852 68.205847 65.439562 
C 68.205847 65.158271 68.094089 64.888464 67.895187 64.689562 
C 67.696284 64.490659 67.426477 64.378902 67.145187 64.378902 
C 66.863896 64.378902 66.594089 64.490659 66.395187 64.689562 
C 66.196284 64.888464 66.084527 65.158271 66.084527 65.439562 
C 66.084527 65.720852 66.196284 65.990659 66.395187 66.189562 
C 66.594089 66.388464 66.863896 66.500222 67.145187 66.500222 
z
" clip-path="url(#p2953c4c768)" style="stroke: #000000"/>
    <path d="M 64.883523 62.024098 
C 65.163941 62.024098 65.432912 61.912687 65.631197 61.714401 
C 65.829483 61.516116 65.940894 61.247145 65.940894 60.966727 
C 65.940894 60.686309 65.829483 60.417338 65.631197 60.219052 
C 65.432912 60.020767 65.163941 59.909356 64.883523 59.909356 
C 64.603105 59.909356 64.334134 60.020767 64.135848 60.219052 
C 63.937563 60.417338 63.826151 60.686309 63.826151 60.966727 
C 63.826151 61.247145 63.937563 61.516116 64.135848 61.714401 
C 64.334134 61.912687 64.603105 62.024098 64.883523 62.024098 
z
" clip-path="url(#p2953c4c768)" style="stroke: #000000"/>
    <path d="M 58.159771 53.278375 
C 58.441061 53.278375 58.710868 53.166617 58.909771 52.967715 
C 59.108673 52.768813 59.220431 52.499005 59.220431 52.217715 
C 59.220431 51.936425 59.108673 51.666617 58.909771 51.467715 
C 58.710868 51.268813 58.441061 51.157055 58.159771 51.157055 
C 57.87848 51.157055 57.608673 51.268813 57.409771 51.467715 
C 57.210868 51.666617 57.09911 51.936425 57.09911 52.217715 
C 57.09911 52.499005 57.210868 52.768813 57.409771 52.967715 
C 57.608673 53.166617 57.87848 53.278375 58.159771 53.278375 
z
" clip-path="url(#p2953c4c768)" style="stroke: #000000"/>
    <path d="M 53.675198 39.885569 
C 53.675198 39.885569 53.675198 39.885569 53.675198 39.885569 
C 53.675198 39.885569 53.675198 39.885569 53.675198 39.885569 
C 53.675198 39.885569 53.675198 39.885569 53.675198 39.885569 
C 53.675198 39.885569 53.675198 39.885569 53.675198 39.885569 
C 53.675198 39.885569 53.675198 39.885569 53.675198 39.885569 
C 53.675198 39.885569 53.675198 39.885569 53.675198 39.885569 
C 53.675198 39.885569 53.675198 39.885569 53.675198 39.885569 
C 53.675198 39.885569 53.675198 39.885569 53.675198 39.885569 
z
" clip-path="url(#p2953c4c768)" style="stroke: #000000"/>
    <path d="M 90.270829 175.21453 
C 90.270829 175.21453 90.270829 175.21453 90.270829 175.21453 
C 90.270829 175.21453 90.270829 175.21453 90.270829 175.21453 
C 90.270829 175.21453 90.270829 175.21453 90.270829 175.21453 
C 90.270829 175.21453 90.270829 175.21453 90.270829 175.21453 
C 90.270829 175.21453 90.270829 175.21453 90.270829 175.21453 
C 90.270829 175.21453 90.270829 175.21453 90.270829 175.21453 
C 90.270829 175.21453 90.270829 175.21453 90.270829 175.21453 
C 90.270829 175.21453 90.270829 175.21453 90.270829 175.21453 
z
" clip-path="url(#p2953c4c768)" style="stroke: #000000"/>
    <path d="M 83.769655 163.137632 
C 83.769655 163.137632 83.769655 163.137632 83.769655 163.137632 
C 83.769655 163.137632 83.769655 163.137632 83.769655 163.137632 
C 83.769655 163.137632 83.769655 163.137632 83.769655 163.137632 
C 83.769655 163.137632 83.769655 163.137632 83.769655 163.137632 
C 83.769655 163.137632 83.769655 163.137632 83.769655 163.137632 
C 83.769655 163.137632 83.769655 163.137632 83.769655 163.137632 
C 83.769655 163.137632 83.769655 163.137632 83.769655 163.137632 
C 83.769655 163.137632 83.769655 163.137632 83.769655 163.137632 
z
" clip-path="url(#p2953c4c768)" style="stroke: #000000"/>
    <path d="M 82.948141 159.85567 
C 82.948141 159.85567 82.948141 159.85567 82.948141 159.85567 
C 82.948141 159.85567 82.948141 159.85567 82.948141 159.85567 
C 82.948141 159.85567 82.948141 159.85567 82.948141 159.85567 
C 82.948141 159.85567 82.948141 159.85567 82.948141 159.85567 
C 82.948141 159.85567 82.948141 159.85567 82.948141 159.85567 
C 82.948141 159.85567 82.948141 159.85567 82.948141 159.85567 
C 82.948141 159.85567 82.948141 159.85567 82.948141 159.85567 
C 82.948141 159.85567 82.948141 159.85567 82.948141 159.85567 
z
" clip-path="url(#p2953c4c768)" style="stroke: #000000"/>
    <path d="M 82.223918 143.198832 
C 82.223918 143.198832 82.223918 143.198832 82.223918 143.198832 
C 82.223918 143.198832 82.223918 143.198832 82.223918 143.198832 
C 82.223918 143.198832 82.223918 143.198832 82.223918 143.198832 
C 82.223918 143.198832 82.223918 143.198832 82.223918 143.198832 
C 82.223918 143.198832 82.223918 143.198832 82.223918 143.198832 
C 82.223918 143.198832 82.223918 143.198832 82.223918 143.198832 
C 82.223918 143.198832 82.223918 143.198832 82.223918 143.198832 
C 82.223918 143.198832 82.223918 143.198832 82.223918 143.198832 
z
" clip-path="url(#p2953c4c768)" style="stroke: #000000"/>
    <path d="M 71.005048 131.794844 
C 71.286339 131.794844 71.556146 131.683086 71.755048 131.484184 
C 71.953951 131.285282 72.065708 131.015474 72.065708 130.734184 
C 72.065708 130.452894 71.953951 130.183086 71.755048 129.984184 
C 71.556146 129.785282 71.286339 129.673524 71.005048 129.673524 
C 70.723758 129.673524 70.453951 129.785282 70.255048 129.984184 
C 70.056146 130.183086 69.944388 130.452894 69.944388 130.734184 
C 69.944388 131.015474 70.056146 131.285282 70.255048 131.484184 
C 70.453951 131.683086 70.723758 131.794844 71.005048 131.794844 
z
" clip-path="url(#p2953c4c768)" style="stroke: #000000"/>
    <path d="M 75.03238 129.90677 
C 75.286554 129.90677 75.530353 129.805786 75.710081 129.626057 
C 75.88981 129.446329 75.990795 129.20253 75.990795 128.948356 
C 75.990795 128.694181 75.88981 128.450383 75.710081 128.270654 
C 75.530353 128.090926 75.286554 127.989941 75.03238 127.989941 
C 74.778205 127.989941 74.534407 128.090926 74.354678 128.270654 
C 74.17495 128.450383 74.073965 128.694181 74.073965 128.948356 
C 74.073965 129.20253 74.17495 129.446329 74.354678 129.626057 
C 74.534407 129.805786 74.778205 129.90677 75.03238 129.90677 
z
" clip-path="url(#p2953c4c768)" style="stroke: #000000"/>
    <path d="M 71.967242 113.881063 
C 72.203044 113.881063 72.429221 113.787378 72.595958 113.62064 
C 72.762696 113.453902 72.856381 113.227726 72.856381 112.991923 
C 72.856381 112.756121 72.762696 112.529944 72.595958 112.363206 
C 72.429221 112.196469 72.203044 112.102783 71.967242 112.102783 
C 71.731439 112.102783 71.505263 112.196469 71.338525 112.363206 
C 71.171787 112.529944 71.078102 112.756121 71.078102 112.991923 
C 71.078102 113.227726 71.171787 113.453902 71.338525 113.62064 
C 71.505263 113.787378 71.731439 113.881063 71.967242 113.881063 
z
" clip-path="url(#p2953c4c768)" style="stroke: #000000"/>
    <path d="M 63.227455 99.123602 
C 63.558826 99.123602 63.876669 98.991947 64.110984 98.757632 
C 64.345299 98.523317 64.476954 98.205473 64.476954 97.874102 
C 64.476954 97.542731 64.345299 97.224887 64.110984 96.990572 
C 63.876669 96.756258 63.558826 96.624602 63.227455 96.624602 
C 62.896083 96.624602 62.57824 96.756258 62.343925 96.990572 
C 62.10961 97.224887 61.977955 97.542731 61.977955 97.874102 
C 61.977955 98.205473 62.10961 98.523317 62.343925 98.757632 
C 62.57824 98.991947 62.896083 99.123602 63.227455 99.123602 
z
" clip-path="url(#p2953c4c768)" style="stroke: #000000"/>
    <path d="M 62.207558 93.639364 
C 62.487976 93.639364 62.756947 93.527952 62.955232 93.329667 
C 63.153518 93.131381 63.264929 92.86241 63.264929 92.581992 
C 63.264929 92.301574 63.153518 92.032603 62.955232 91.834318 
C 62.756947 91.636032 62.487976 91.524621 62.207558 91.524621 
C 61.92714 91.524621 61.658169 91.636032 61.459884 91.834318 
C 61.261598 92.032603 61.150187 92.301574 61.150187 92.581992 
C 61.150187 92.86241 61.261598 93.131381 61.459884 93.329667 
C 61.658169 93.527952 61.92714 93.639364 62.207558 93.639364 
z
" clip-path="url(#p2953c4c768)" style="stroke: #000000"/>
    <path d="M 55.570275 86.363052 
C 55.807538 86.363052 56.035115 86.268787 56.202885 86.101017 
C 56.370655 85.933247 56.46492 85.70567 56.46492 85.468407 
C 56.46492 85.231144 56.370655 85.003567 56.202885 84.835797 
C 56.035115 84.668027 55.807538 84.573761 55.570275 84.573761 
C 55.333012 84.573761 55.105435 84.668027 54.937665 84.835797 
C 54.769895 85.003567 54.675629 85.231144 54.675629 85.468407 
C 54.675629 85.70567 54.769895 85.933247 54.937665 86.101017 
C 55.105435 86.268787 55.333012 86.363052 55.570275 86.363052 
z
" clip-path="url(#p2953c4c768)" style="stroke: #000000"/>
    <path d="M 52.626022 70.944913 
C 52.626022 70.944913 52.626022 70.944913 52.626022 70.944913 
C 52.626022 70.944913 52.626022 70.944913 52.626022 70.944913 
C 52.626022 70.944913 52.626022 70.944913 52.626022 70.944913 
C 52.626022 70.944913 52.626022 70.944913 52.626022 70.944913 
C 52.626022 70.944913 52.626022 70.944913 52.626022 70.944913 
C 52.626022 70.944913 52.626022 70.944913 52.626022 70.944913 
C 52.626022 70.944913 52.626022 70.944913 52.626022 70.944913 
C 52.626022 70.944913 52.626022 70.944913 52.626022 70.944913 
z
" clip-path="url(#p2953c4c768)" style="stroke: #000000"/>
    <path d="M 49.164769 65.643934 
C 49.164769 65.643934 49.164769 65.643934 49.164769 65.643934 
C 49.164769 65.643934 49.164769 65.643934 49.164769 65.643934 
C 49.164769 65.643934 49.164769 65.643934 49.164769 65.643934 
C 49.164769 65.643934 49.164769 65.643934 49.164769 65.643934 
C 49.164769 65.643934 49.164769 65.643934 49.164769 65.643934 
C 49.164769 65.643934 49.164769 65.643934 49.164769 65.643934 
C 49.164769 65.643934 49.164769 65.643934 49.164769 65.643934 
C 49.164769 65.643934 49.164769 65.643934 49.164769 65.643934 
z
" clip-path="url(#p2953c4c768)" style="stroke: #000000"/>
    <path d="M 51.22703 55.961517 
C 51.507448 55.961517 51.776419 55.850106 51.974704 55.65182 
C 52.17299 55.453535 52.284401 55.184564 52.284401 54.904146 
C 52.284401 54.623728 52.17299 54.354757 51.974704 54.156471 
C 51.776419 53.958186 51.507448 53.846774 51.22703 53.846774 
C 50.946612 53.846774 50.677641 53.958186 50.479356 54.156471 
C 50.28107 54.354757 50.169659 54.623728 50.169659 54.904146 
C 50.169659 55.184564 50.28107 55.453535 50.479356 55.65182 
C 50.677641 55.850106 50.946612 55.961517 51.22703 55.961517 
z
" clip-path="url(#p2953c4c768)" style="stroke: #000000"/>
    <path d="M 76.801366 175.851182 
C 76.801366 175.851182 76.801366 175.851182 76.801366 175.851182 
C 76.801366 175.851182 76.801366 175.851182 76.801366 175.851182 
C 76.801366 175.851182 76.801366 175.851182 76.801366 175.851182 
C 76.801366 175.851182 76.801366 175.851182 76.801366 175.851182 
C 76.801366 175.851182 76.801366 175.851182 76.801366 175.851182 
C 76.801366 175.851182 76.801366 175.851182 76.801366 175.851182 
C 76.801366 175.851182 76.801366 175.851182 76.801366 175.851182 
C 76.801366 175.851182 76.801366 175.851182 76.801366 175.851182 
z
" clip-path="url(#p2953c4c768)" style="stroke: #000000"/>
    <path d="M 71.757771 166.906286 
C 71.980779 166.906286 72.194684 166.817684 72.352374 166.659994 
C 72.510065 166.502303 72.598667 166.288398 72.598667 166.06539 
C 72.598667 165.842382 72.510065 165.628477 72.352374 165.470786 
C 72.194684 165.313096 71.980779 165.224494 71.757771 165.224494 
C 71.534762 165.224494 71.320858 165.313096 71.163167 165.470786 
C 71.005477 165.628477 70.916874 165.842382 70.916874 166.06539 
C 70.916874 166.288398 71.005477 166.502303 71.163167 166.659994 
C 71.320858 166.817684 71.534762 166.906286 71.757771 166.906286 
z
" clip-path="url(#p2953c4c768)" style="stroke: #000000"/>
    <path d="M 69.106521 159.74966 
C 69.336194 159.74966 69.55649 159.65841 69.718894 159.496007 
C 69.881297 159.333604 69.972546 159.113307 69.972546 158.883634 
C 69.972546 158.653962 69.881297 158.433665 69.718894 158.271262 
C 69.55649 158.108859 69.336194 158.017609 69.106521 158.017609 
C 68.876848 158.017609 68.656552 158.108859 68.494149 158.271262 
C 68.331746 158.433665 68.240496 158.653962 68.240496 158.883634 
C 68.240496 159.113307 68.331746 159.333604 68.494149 159.496007 
C 68.656552 159.65841 68.876848 159.74966 69.106521 159.74966 
z
" clip-path="url(#p2953c4c768)" style="stroke: #000000"/>
    <path d="M 69.662207 148.500658 
C 69.942625 148.500658 70.211596 148.389247 70.409881 148.190961 
C 70.608167 147.992676 70.719578 147.723705 70.719578 147.443287 
C 70.719578 147.162869 70.608167 146.893898 70.409881 146.695612 
C 70.211596 146.497327 69.942625 146.385915 69.662207 146.385915 
C 69.381789 146.385915 69.112818 146.497327 68.914533 146.695612 
C 68.716247 146.893898 68.604836 147.162869 68.604836 147.443287 
C 68.604836 147.723705 68.716247 147.992676 68.914533 148.190961 
C 69.112818 148.389247 69.381789 148.500658 69.662207 148.500658 
z
" clip-path="url(#p2953c4c768)" style="stroke: #000000"/>
    <path d="M 64.229794 136.976655 
C 64.511084 136.976655 64.780891 136.864897 64.979794 136.665995 
C 65.178696 136.467093 65.290454 136.197285 65.290454 135.915995 
C 65.290454 135.634705 65.178696 135.364897 64.979794 135.165995 
C 64.780891 134.967093 64.511084 134.855335 64.229794 134.855335 
C 63.948503 134.855335 63.678696 134.967093 63.479794 135.165995 
C 63.280891 135.364897 63.169133 135.634705 63.169133 135.915995 
C 63.169133 136.197285 63.280891 136.467093 63.479794 136.665995 
C 63.678696 136.864897 63.948503 136.976655 64.229794 136.976655 
z
" clip-path="url(#p2953c4c768)" style="stroke: #000000"/>
    <path d="M 58.603984 130.527073 
C 58.885275 130.527073 59.155082 130.415315 59.353984 130.216413 
C 59.552887 130.01751 59.664644 129.747703 59.664644 129.466413 
C 59.664644 129.185122 59.552887 128.915315 59.353984 128.716413 
C 59.155082 128.51751 58.885275 128.405753 58.603984 128.405753 
C 58.322694 128.405753 58.052887 128.51751 57.853984 128.716413 
C 57.655082 128.915315 57.543324 129.185122 57.543324 129.466413 
C 57.543324 129.747703 57.655082 130.01751 57.853984 130.216413 
C 58.052887 130.415315 58.322694 130.527073 58.603984 130.527073 
z
" clip-path="url(#p2953c4c768)" style="stroke: #000000"/>
    <path d="M 58.140766 116.333445 
C 58.421184 116.333445 58.690155 116.222034 58.88844 116.023748 
C 59.086726 115.825463 59.198137 115.556492 59.198137 115.276074 
C 59.198137 114.995656 59.086726 114.726685 58.88844 114.5284 
C 58.690155 114.330114 58.421184 114.218703 58.140766 114.218703 
C 57.860348 114.218703 57.591377 114.330114 57.393092 114.5284 
C 57.194806 114.726685 57.083395 114.995656 57.083395 115.276074 
C 57.083395 115.556492 57.194806 115.825463 57.393092 116.023748 
C 57.591377 116.222034 57.860348 116.333445 58.140766 116.333445 
z
" clip-path="url(#p2953c4c768)" style="stroke: #000000"/>
    <path d="M 56.361426 106.786666 
C 56.597229 106.786666 56.823405 106.69298 56.990143 106.526243 
C 57.15688 106.359505 57.250566 106.133329 57.250566 105.897526 
C 57.250566 105.661723 57.15688 105.435547 56.990143 105.268809 
C 56.823405 105.102072 56.597229 105.008386 56.361426 105.008386 
C 56.125623 105.008386 55.899447 105.102072 55.732709 105.268809 
C 55.565972 105.435547 55.472286 105.661723 55.472286 105.897526 
C 55.472286 106.133329 55.565972 106.359505 55.732709 106.526243 
C 55.899447 106.69298 56.125623 106.786666 56.361426 106.786666 
z
" clip-path="url(#p2953c4c768)" style="stroke: #000000"/>
    <path d="M 48.78065 96.273531 
C 48.990311 96.273531 49.191414 96.190232 49.339667 96.041979 
C 49.48792 95.893726 49.571219 95.692624 49.571219 95.482962 
C 49.571219 95.273301 49.48792 95.072198 49.339667 94.923945 
C 49.191414 94.775692 48.990311 94.692393 48.78065 94.692393 
C 48.570988 94.692393 48.369886 94.775692 48.221633 94.923945 
C 48.07338 95.072198 47.99008 95.273301 47.99008 95.482962 
C 47.99008 95.692624 48.07338 95.893726 48.221633 96.041979 
C 48.369886 96.190232 48.570988 96.273531 48.78065 96.273531 
z
" clip-path="url(#p2953c4c768)" style="stroke: #000000"/>
    <path d="M 49.581913 86.652051 
C 49.863203 86.652051 50.133011 86.540293 50.331913 86.341391 
C 50.530815 86.142488 50.642573 85.872681 50.642573 85.591391 
C 50.642573 85.3101 50.530815 85.040293 50.331913 84.841391 
C 50.133011 84.642488 49.863203 84.53073 49.581913 84.53073 
C 49.300623 84.53073 49.030815 84.642488 48.831913 84.841391 
C 48.633011 85.040293 48.521253 85.3101 48.521253 85.591391 
C 48.521253 85.872681 48.633011 86.142488 48.831913 86.341391 
C 49.030815 86.540293 49.300623 86.652051 49.581913 86.652051 
z
" clip-path="url(#p2953c4c768)" style="stroke: #000000"/>
    <path d="M 45.690595 80.556144 
C 45.971886 80.556144 46.241693 80.444387 46.440595 80.245484 
C 46.639498 80.046582 46.751256 79.776775 46.751256 79.495484 
C 46.751256 79.214194 46.639498 78.944387 46.440595 78.745484 
C 46.241693 78.546582 45.971886 78.434824 45.690595 78.434824 
C 45.409305 78.434824 45.139498 78.546582 44.940595 78.745484 
C 44.741693 78.944387 44.629935 79.214194 44.629935 79.495484 
C 44.629935 79.776775 44.741693 80.046582 44.940595 80.245484 
C 45.139498 80.444387 45.409305 80.556144 45.690595 80.556144 
z
" clip-path="url(#p2953c4c768)" style="stroke: #000000"/>
    <path d="M 39.074542 68.608376 
C 39.355832 68.608376 39.625639 68.496618 39.824542 68.297716 
C 40.023444 68.098813 40.135202 67.829006 40.135202 67.547716 
C 40.135202 67.266425 40.023444 66.996618 39.824542 66.797716 
C 39.625639 66.598813 39.355832 66.487055 39.074542 66.487055 
C 38.793251 66.487055 38.523444 66.598813 38.324542 66.797716 
C 38.125639 66.996618 38.013882 67.266425 38.013882 67.547716 
C 38.013882 67.829006 38.125639 68.098813 38.324542 68.297716 
C 38.523444 68.496618 38.793251 68.608376 39.074542 68.608376 
z
" clip-path="url(#p2953c4c768)" style="stroke: #000000"/>
    <path d="M 70.337368 180.463638 
C 70.554955 180.463638 70.76366 180.37719 70.917517 180.223333 
C 71.071375 180.069475 71.157823 179.860771 71.157823 179.643184 
C 71.157823 179.425597 71.071375 179.216892 70.917517 179.063035 
C 70.76366 178.909178 70.554955 178.822729 70.337368 178.822729 
C 70.119781 178.822729 69.911077 178.909178 69.757219 179.063035 
C 69.603362 179.216892 69.516914 179.425597 69.516914 179.643184 
C 69.516914 179.860771 69.603362 180.069475 69.757219 180.223333 
C 69.911077 180.37719 70.119781 180.463638 70.337368 180.463638 
z
" clip-path="url(#p2953c4c768)" style="stroke: #000000"/>
    <path d="M 62.901661 173.973005 
C 63.12467 173.973005 63.338574 173.884403 63.496265 173.726712 
C 63.653956 173.569022 63.742558 173.355117 63.742558 173.132109 
C 63.742558 172.9091 63.653956 172.695196 63.496265 172.537505 
C 63.338574 172.379814 63.12467 172.291212 62.901661 172.291212 
C 62.678653 172.291212 62.464748 172.379814 62.307058 172.537505 
C 62.149367 172.695196 62.060765 172.9091 62.060765 173.132109 
C 62.060765 173.355117 62.149367 173.569022 62.307058 173.726712 
C 62.464748 173.884403 62.678653 173.973005 62.901661 173.973005 
z
" clip-path="url(#p2953c4c768)" style="stroke: #000000"/>
    <path d="M 57.029564 166.046174 
C 57.252572 166.046174 57.466477 165.957572 57.624167 165.799881 
C 57.781858 165.642191 57.87046 165.428286 57.87046 165.205278 
C 57.87046 164.982269 57.781858 164.768365 57.624167 164.610674 
C 57.466477 164.452984 57.252572 164.364381 57.029564 164.364381 
C 56.806555 164.364381 56.592651 164.452984 56.43496 164.610674 
C 56.27727 164.768365 56.188667 164.982269 56.188667 165.205278 
C 56.188667 165.428286 56.27727 165.642191 56.43496 165.799881 
C 56.592651 165.957572 56.806555 166.046174 57.029564 166.046174 
z
" clip-path="url(#p2953c4c768)" style="stroke: #000000"/>
    <path d="M 58.122587 155.489484 
C 58.403005 155.489484 58.671975 155.378073 58.870261 155.179787 
C 59.068546 154.981501 59.179958 154.712531 59.179958 154.432113 
C 59.179958 154.151694 59.068546 153.882724 58.870261 153.684438 
C 58.671975 153.486153 58.403005 153.374741 58.122587 153.374741 
C 57.842168 153.374741 57.573198 153.486153 57.374912 153.684438 
C 57.176627 153.882724 57.065215 154.151694 57.065215 154.432113 
C 57.065215 154.712531 57.176627 154.981501 57.374912 155.179787 
C 57.573198 155.378073 57.842168 155.489484 58.122587 155.489484 
z
" clip-path="url(#p2953c4c768)" style="stroke: #000000"/>
    <path d="M 51.470259 141.925825 
C 51.75155 141.925825 52.021357 141.814067 52.220259 141.615165 
C 52.419162 141.416262 52.53092 141.146455 52.53092 140.865165 
C 52.53092 140.583874 52.419162 140.314067 52.220259 140.115165 
C 52.021357 139.916262 51.75155 139.804505 51.470259 139.804505 
C 51.188969 139.804505 50.919162 139.916262 50.720259 140.115165 
C 50.521357 140.314067 50.409599 140.583874 50.409599 140.865165 
C 50.409599 141.146455 50.521357 141.416262 50.720259 141.615165 
C 50.919162 141.814067 51.188969 141.925825 51.470259 141.925825 
z
" clip-path="url(#p2953c4c768)" style="stroke: #000000"/>
    <path d="M 49.526731 129.105063 
C 49.808022 129.105063 50.077829 128.993305 50.276731 128.794403 
C 50.475634 128.595501 50.587392 128.325693 50.587392 128.044403 
C 50.587392 127.763113 50.475634 127.493305 50.276731 127.294403 
C 50.077829 127.095501 49.808022 126.983743 49.526731 126.983743 
C 49.245441 126.983743 48.975634 127.095501 48.776731 127.294403 
C 48.577829 127.493305 48.466071 127.763113 48.466071 128.044403 
C 48.466071 128.325693 48.577829 128.595501 48.776731 128.794403 
C 48.975634 128.993305 49.245441 129.105063 49.526731 129.105063 
z
" clip-path="url(#p2953c4c768)" style="stroke: #000000"/>
    <path d="M 47.008073 120.596635 
C 47.261063 120.596635 47.503725 120.496121 47.682615 120.31723 
C 47.861506 120.13834 47.96202 119.895678 47.96202 119.642688 
C 47.96202 119.389699 47.861506 119.147037 47.682615 118.968146 
C 47.503725 118.789256 47.261063 118.688742 47.008073 118.688742 
C 46.755084 118.688742 46.512422 118.789256 46.333532 118.968146 
C 46.154641 119.147037 46.054127 119.389699 46.054127 119.642688 
C 46.054127 119.895678 46.154641 120.13834 46.333532 120.31723 
C 46.512422 120.496121 46.755084 120.596635 47.008073 120.596635 
z
" clip-path="url(#p2953c4c768)" style="stroke: #000000"/>
    <path d="M 42.563678 114.089231 
C 42.800941 114.089231 43.028518 113.994965 43.196288 113.827195 
C 43.364058 113.659425 43.458324 113.431848 43.458324 113.194585 
C 43.458324 112.957323 43.364058 112.729746 43.196288 112.561975 
C 43.028518 112.394205 42.800941 112.29994 42.563678 112.29994 
C 42.326416 112.29994 42.098839 112.394205 41.931069 112.561975 
C 41.763298 112.729746 41.669033 112.957323 41.669033 113.194585 
C 41.669033 113.431848 41.763298 113.659425 41.931069 113.827195 
C 42.098839 113.994965 42.326416 114.089231 42.563678 114.089231 
z
" clip-path="url(#p2953c4c768)" style="stroke: #000000"/>
    <path d="M 43.200186 102.383549 
C 43.480604 102.383549 43.749575 102.272137 43.94786 102.073852 
C 44.146146 101.875566 44.257557 101.606596 44.257557 101.326178 
C 44.257557 101.045759 44.146146 100.776789 43.94786 100.578503 
C 43.749575 100.380218 43.480604 100.268806 43.200186 100.268806 
C 42.919768 100.268806 42.650797 100.380218 42.452511 100.578503 
C 42.254226 100.776789 42.142815 101.045759 42.142815 101.326178 
C 42.142815 101.606596 42.254226 101.875566 42.452511 102.073852 
C 42.650797 102.272137 42.919768 102.383549 43.200186 102.383549 
z
" clip-path="url(#p2953c4c768)" style="stroke: #000000"/>
    <path d="M 36.757504 92.361521 
C 37.038794 92.361521 37.308602 92.249764 37.507504 92.050861 
C 37.706406 91.851959 37.818164 91.582152 37.818164 91.300861 
C 37.818164 91.019571 37.706406 90.749764 37.507504 90.550861 
C 37.308602 90.351959 37.038794 90.240201 36.757504 90.240201 
C 36.476214 90.240201 36.206406 90.351959 36.007504 90.550861 
C 35.808602 90.749764 35.696844 91.019571 35.696844 91.300861 
C 35.696844 91.582152 35.808602 91.851959 36.007504 92.050861 
C 36.206406 92.249764 36.476214 92.361521 36.757504 92.361521 
z
" clip-path="url(#p2953c4c768)" style="stroke: #000000"/>
    <path d="M 35.044809 80.623741 
C 35.279124 80.623741 35.503873 80.530647 35.669559 80.364961 
C 35.835245 80.199276 35.928339 79.974526 35.928339 79.740212 
C 35.928339 79.505897 35.835245 79.281147 35.669559 79.115462 
C 35.503873 78.949776 35.279124 78.856682 35.044809 78.856682 
C 34.810494 78.856682 34.585745 78.949776 34.420059 79.115462 
C 34.254374 79.281147 34.161279 79.505897 34.161279 79.740212 
C 34.161279 79.974526 34.254374 80.199276 34.420059 80.364961 
C 34.585745 80.530647 34.810494 80.623741 35.044809 80.623741 
z
" clip-path="url(#p2953c4c768)" style="stroke: #000000"/>
    <path d="M 53.482127 177.752724 
C 53.762545 177.752724 54.031516 177.641312 54.229802 177.443027 
C 54.428087 177.244741 54.539499 176.975771 54.539499 176.695352 
C 54.539499 176.414934 54.428087 176.145964 54.229802 175.947678 
C 54.031516 175.749392 53.762545 175.637981 53.482127 175.637981 
C 53.201709 175.637981 52.932739 175.749392 52.734453 175.947678 
C 52.536167 176.145964 52.424756 176.414934 52.424756 176.695352 
C 52.424756 176.975771 52.536167 177.244741 52.734453 177.443027 
C 52.932739 177.641312 53.201709 177.752724 53.482127 177.752724 
z
" clip-path="url(#p2953c4c768)" style="stroke: #000000"/>
    <path d="M 53.984381 166.311725 
C 54.264799 166.311725 54.53377 166.200314 54.732055 166.002028 
C 54.930341 165.803742 55.041752 165.534772 55.041752 165.254354 
C 55.041752 164.973935 54.930341 164.704965 54.732055 164.506679 
C 54.53377 164.308394 54.264799 164.196982 53.984381 164.196982 
C 53.703963 164.196982 53.434992 164.308394 53.236707 164.506679 
C 53.038421 164.704965 52.92701 164.973935 52.92701 165.254354 
C 52.92701 165.534772 53.038421 165.803742 53.236707 166.002028 
C 53.434992 166.200314 53.703963 166.311725 53.984381 166.311725 
z
" clip-path="url(#p2953c4c768)" style="stroke: #000000"/>
    <path d="M 43.079891 155.794214 
C 43.360309 155.794214 43.62928 155.682803 43.827566 155.484517 
C 44.025851 155.286232 44.137263 155.017261 44.137263 154.736843 
C 44.137263 154.456425 44.025851 154.187454 43.827566 153.989168 
C 43.62928 153.790883 43.360309 153.679471 43.079891 153.679471 
C 42.799473 153.679471 42.530502 153.790883 42.332217 153.989168 
C 42.133931 154.187454 42.02252 154.456425 42.02252 154.736843 
C 42.02252 155.017261 42.133931 155.286232 42.332217 155.484517 
C 42.530502 155.682803 42.799473 155.794214 43.079891 155.794214 
z
" clip-path="url(#p2953c4c768)" style="stroke: #000000"/>
    <path d="M 42.341775 140.215347 
C 42.341775 140.215347 42.341775 140.215347 42.341775 140.215347 
C 42.341775 140.215347 42.341775 140.215347 42.341775 140.215347 
C 42.341775 140.215347 42.341775 140.215347 42.341775 140.215347 
C 42.341775 140.215347 42.341775 140.215347 42.341775 140.215347 
C 42.341775 140.215347 42.341775 140.215347 42.341775 140.215347 
C 42.341775 140.215347 42.341775 140.215347 42.341775 140.215347 
C 42.341775 140.215347 42.341775 140.215347 42.341775 140.215347 
C 42.341775 140.215347 42.341775 140.215347 42.341775 140.215347 
z
" clip-path="url(#p2953c4c768)" style="stroke: #000000"/>
    <path d="M 40.840436 136.320505 
C 41.076239 136.320505 41.302416 136.226819 41.469153 136.060082 
C 41.635891 135.893344 41.729576 135.667168 41.729576 135.431365 
C 41.729576 135.195562 41.635891 134.969386 41.469153 134.802648 
C 41.302416 134.635911 41.076239 134.542225 40.840436 134.542225 
C 40.604634 134.542225 40.378457 134.635911 40.21172 134.802648 
C 40.044982 134.969386 39.951297 135.195562 39.951297 135.431365 
C 39.951297 135.667168 40.044982 135.893344 40.21172 136.060082 
C 40.378457 136.226819 40.604634 136.320505 40.840436 136.320505 
z
" clip-path="url(#p2953c4c768)" style="stroke: #000000"/>
    <path d="M 35.304497 123.093389 
C 35.304497 123.093389 35.304497 123.093389 35.304497 123.093389 
C 35.304497 123.093389 35.304497 123.093389 35.304497 123.093389 
C 35.304497 123.093389 35.304497 123.093389 35.304497 123.093389 
C 35.304497 123.093389 35.304497 123.093389 35.304497 123.093389 
C 35.304497 123.093389 35.304497 123.093389 35.304497 123.093389 
C 35.304497 123.093389 35.304497 123.093389 35.304497 123.093389 
C 35.304497 123.093389 35.304497 123.093389 35.304497 123.093389 
C 35.304497 123.093389 35.304497 123.093389 35.304497 123.093389 
z
" clip-path="url(#p2953c4c768)" style="stroke: #000000"/>
    <path d="M 35.559219 116.926301 
C 35.796482 116.926301 36.024059 116.832036 36.191829 116.664266 
C 36.359599 116.496495 36.453865 116.268918 36.453865 116.031656 
C 36.453865 115.794393 36.359599 115.566816 36.191829 115.399046 
C 36.024059 115.231276 35.796482 115.13701 35.559219 115.13701 
C 35.321956 115.13701 35.094379 115.231276 34.926609 115.399046 
C 34.758839 115.566816 34.664574 115.794393 34.664574 116.031656 
C 34.664574 116.268918 34.758839 116.496495 34.926609 116.664266 
C 35.094379 116.832036 35.321956 116.926301 35.559219 116.926301 
z
" clip-path="url(#p2953c4c768)" style="stroke: #000000"/>
    <path d="M 29.19695 104.161843 
C 29.47824 104.161843 29.748048 104.050085 29.94695 103.851182 
C 30.145852 103.65228 30.25761 103.382473 30.25761 103.101182 
C 30.25761 102.819892 30.145852 102.550085 29.94695 102.351182 
C 29.748048 102.15228 29.47824 102.040522 29.19695 102.040522 
C 28.915659 102.040522 28.645852 102.15228 28.44695 102.351182 
C 28.248048 102.550085 28.13629 102.819892 28.13629 103.101182 
C 28.13629 103.382473 28.248048 103.65228 28.44695 103.851182 
C 28.645852 104.050085 28.915659 104.161843 29.19695 104.161843 
z
" clip-path="url(#p2953c4c768)" style="stroke: #000000"/>
    <path d="M 43.823252 178.103759 
C 44.036987 178.103759 44.241996 178.018842 44.393129 177.867708 
C 44.544262 177.716575 44.62918 177.511566 44.62918 177.297832 
C 44.62918 177.084097 44.544262 176.879088 44.393129 176.727955 
C 44.241996 176.576822 44.036987 176.491904 43.823252 176.491904 
C 43.609518 176.491904 43.404509 176.576822 43.253376 176.727955 
C 43.102242 176.879088 43.017325 177.084097 43.017325 177.297832 
C 43.017325 177.511566 43.102242 177.716575 43.253376 177.867708 
C 43.404509 178.018842 43.609518 178.103759 43.823252 178.103759 
z
" clip-path="url(#p2953c4c768)" style="stroke: #000000"/>
    <path d="M 43.850257 167.583829 
C 43.850257 167.583829 43.850257 167.583829 43.850257 167.583829 
C 43.850257 167.583829 43.850257 167.583829 43.850257 167.583829 
C 43.850257 167.583829 43.850257 167.583829 43.850257 167.583829 
C 43.850257 167.583829 43.850257 167.583829 43.850257 167.583829 
C 43.850257 167.583829 43.850257 167.583829 43.850257 167.583829 
C 43.850257 167.583829 43.850257 167.583829 43.850257 167.583829 
C 43.850257 167.583829 43.850257 167.583829 43.850257 167.583829 
C 43.850257 167.583829 43.850257 167.583829 43.850257 167.583829 
z
" clip-path="url(#p2953c4c768)" style="stroke: #000000"/>
    <path d="M 32.94751 156.153171 
C 32.94751 156.153171 32.94751 156.153171 32.94751 156.153171 
C 32.94751 156.153171 32.94751 156.153171 32.94751 156.153171 
C 32.94751 156.153171 32.94751 156.153171 32.94751 156.153171 
C 32.94751 156.153171 32.94751 156.153171 32.94751 156.153171 
C 32.94751 156.153171 32.94751 156.153171 32.94751 156.153171 
C 32.94751 156.153171 32.94751 156.153171 32.94751 156.153171 
C 32.94751 156.153171 32.94751 156.153171 32.94751 156.153171 
C 32.94751 156.153171 32.94751 156.153171 32.94751 156.153171 
z
" clip-path="url(#p2953c4c768)" style="stroke: #000000"/>
    <path d="M 32.028469 149.58772 
C 32.308887 149.58772 32.577858 149.476309 32.776143 149.278023 
C 32.974429 149.079737 33.08584 148.810767 33.08584 148.530349 
C 33.08584 148.249931 32.974429 147.98096 32.776143 147.782674 
C 32.577858 147.584389 32.308887 147.472977 32.028469 147.472977 
C 31.748051 147.472977 31.47908 147.584389 31.280795 147.782674 
C 31.082509 147.98096 30.971098 148.249931 30.971098 148.530349 
C 30.971098 148.810767 31.082509 149.079737 31.280795 149.278023 
C 31.47908 149.476309 31.748051 149.58772 32.028469 149.58772 
z
" clip-path="url(#p2953c4c768)" style="stroke: #000000"/>
   </g>
   <g id="matplotlib.axis_1">
    <g id="xtick_1">
     <g id="line2d_1">
      <defs>
       <path id="m436504199f" d="M 0 0 
L 0 3.5 
" style="stroke: #000000; stroke-width: 0.8"/>
      </defs>
      <g>
       <use xlink:href="#m436504199f" x="18" y="189" style="stroke: #000000; stroke-width: 0.8"/>
      </g>
     </g>
     <g id="text_1">
      <!-- 10 -->
      <g transform="translate(7.447656 203.598437)scale(0.1 -0.1)">
       <defs>
        <path id="DejaVuSans-2212" d="M 678 2272 
L 4684 2272 
L 4684 1741 
L 678 1741 
L 678 2272 
z
" transform="scale(0.015625)"/>
        <path id="DejaVuSans-31" d="M 794 531 
L 1825 531 
L 1825 4091 
L 703 3866 
L 703 4441 
L 1819 4666 
L 2450 4666 
L 2450 531 
L 3481 531 
L 3481 0 
L 794 0 
L 794 531 
z
" transform="scale(0.015625)"/>
        <path id="DejaVuSans-30" d="M 2034 4250 
Q 1547 4250 1301 3770 
Q 1056 3291 1056 2328 
Q 1056 1369 1301 889 
Q 1547 409 2034 409 
Q 2525 409 2770 889 
Q 3016 1369 3016 2328 
Q 3016 3291 2770 3770 
Q 2525 4250 2034 4250 
z
M 2034 4750 
Q 2819 4750 3233 4129 
Q 3647 3509 3647 2328 
Q 3647 1150 3233 529 
Q 2819 -91 2034 -91 
Q 1250 -91 836 529 
Q 422 1150 422 2328 
Q 422 3509 836 4129 
Q 1250 4750 2034 4750 
z
" transform="scale(0.015625)"/>
       </defs>
       <use xlink:href="#DejaVuSans-2212"/>
       <use xlink:href="#DejaVuSans-31" x="83.789062"/>
       <use xlink:href="#DejaVuSans-30" x="147.412109"/>
      </g>
     </g>
    </g>
    <g id="xtick_2">
     <g id="line2d_2">
      <g>
       <use xlink:href="#m436504199f" x="73.8" y="189" style="stroke: #000000; stroke-width: 0.8"/>
      </g>
     </g>
     <g id="text_2">
      <!-- 0 -->
      <g transform="translate(70.61875 203.598437)scale(0.1 -0.1)">
       <use xlink:href="#DejaVuSans-30"/>
      </g>
     </g>
    </g>
    <g id="xtick_3">
     <g id="line2d_3">
      <g>
       <use xlink:href="#m436504199f" x="129.6" y="189" style="stroke: #000000; stroke-width: 0.8"/>
      </g>
     </g>
     <g id="text_3">
      <!-- 10 -->
      <g transform="translate(123.2375 203.598437)scale(0.1 -0.1)">
       <use xlink:href="#DejaVuSans-31"/>
       <use xlink:href="#DejaVuSans-30" x="63.623047"/>
      </g>
     </g>
    </g>
   </g>
   <g id="matplotlib.axis_2">
    <g id="ytick_1">
     <g id="line2d_4">
      <defs>
       <path id="maa993bddce" d="M 0 0 
L -3.5 0 
" style="stroke: #000000; stroke-width: 0.8"/>
      </defs>
      <g>
       <use xlink:href="#maa993bddce" x="18" y="189" style="stroke: #000000; stroke-width: 0.8"/>
      </g>
     </g>
     <g id="text_4">
      <!-- 15 -->
      <g transform="translate(-10.104688 192.799219)scale(0.1 -0.1)">
       <defs>
        <path id="DejaVuSans-35" d="M 691 4666 
L 3169 4666 
L 3169 4134 
L 1269 4134 
L 1269 2991 
Q 1406 3038 1543 3061 
Q 1681 3084 1819 3084 
Q 2600 3084 3056 2656 
Q 3513 2228 3513 1497 
Q 3513 744 3044 326 
Q 2575 -91 1722 -91 
Q 1428 -91 1123 -41 
Q 819 9 494 109 
L 494 744 
Q 775 591 1075 516 
Q 1375 441 1709 441 
Q 2250 441 2565 725 
Q 2881 1009 2881 1497 
Q 2881 1984 2565 2268 
Q 2250 2553 1709 2553 
Q 1456 2553 1204 2497 
Q 953 2441 691 2322 
L 691 4666 
z
" transform="scale(0.015625)"/>
       </defs>
       <use xlink:href="#DejaVuSans-2212"/>
       <use xlink:href="#DejaVuSans-31" x="83.789062"/>
       <use xlink:href="#DejaVuSans-35" x="147.412109"/>
      </g>
     </g>
    </g>
    <g id="ytick_2">
     <g id="line2d_5">
      <g>
       <use xlink:href="#maa993bddce" x="18" y="161.82" style="stroke: #000000; stroke-width: 0.8"/>
      </g>
     </g>
     <g id="text_5">
      <!-- 10 -->
      <g transform="translate(-10.104688 165.619219)scale(0.1 -0.1)">
       <use xlink:href="#DejaVuSans-2212"/>
       <use xlink:href="#DejaVuSans-31" x="83.789062"/>
       <use xlink:href="#DejaVuSans-30" x="147.412109"/>
      </g>
     </g>
    </g>
    <g id="ytick_3">
     <g id="line2d_6">
      <g>
       <use xlink:href="#maa993bddce" x="18" y="134.64" style="stroke: #000000; stroke-width: 0.8"/>
      </g>
     </g>
     <g id="text_6">
      <!-- 5 -->
      <g transform="translate(-3.742188 138.439219)scale(0.1 -0.1)">
       <use xlink:href="#DejaVuSans-2212"/>
       <use xlink:href="#DejaVuSans-35" x="83.789062"/>
      </g>
     </g>
    </g>
    <g id="ytick_4">
     <g id="line2d_7">
      <g>
       <use xlink:href="#maa993bddce" x="18" y="107.46" style="stroke: #000000; stroke-width: 0.8"/>
      </g>
     </g>
     <g id="text_7">
      <!-- 0 -->
      <g transform="translate(4.6375 111.259219)scale(0.1 -0.1)">
       <use xlink:href="#DejaVuSans-30"/>
      </g>
     </g>
    </g>
    <g id="ytick_5">
     <g id="line2d_8">
      <g>
       <use xlink:href="#maa993bddce" x="18" y="80.28" style="stroke: #000000; stroke-width: 0.8"/>
      </g>
     </g>
     <g id="text_8">
      <!-- 5 -->
      <g transform="translate(4.6375 84.079219)scale(0.1 -0.1)">
       <use xlink:href="#DejaVuSans-35"/>
      </g>
     </g>
    </g>
    <g id="ytick_6">
     <g id="line2d_9">
      <g>
       <use xlink:href="#maa993bddce" x="18" y="53.1" style="stroke: #000000; stroke-width: 0.8"/>
      </g>
     </g>
     <g id="text_9">
      <!-- 10 -->
      <g transform="translate(-1.725 56.899219)scale(0.1 -0.1)">
       <use xlink:href="#DejaVuSans-31"/>
       <use xlink:href="#DejaVuSans-30" x="63.623047"/>
      </g>
     </g>
    </g>
    <g id="ytick_7">
     <g id="line2d_10">
      <g>
       <use xlink:href="#maa993bddce" x="18" y="25.92" style="stroke: #000000; stroke-width: 0.8"/>
      </g>
     </g>
     <g id="text_10">
      <!-- 15 -->
      <g transform="translate(-1.725 29.719219)scale(0.1 -0.1)">
       <use xlink:href="#DejaVuSans-31"/>
       <use xlink:href="#DejaVuSans-35" x="63.623047"/>
      </g>
     </g>
    </g>
   </g>
   <g id="patch_3">
    <path d="M 18 189 
L 18 25.92 
" style="fill: none; stroke: #000000; stroke-width: 0.8; stroke-linejoin: miter; stroke-linecap: square"/>
   </g>
   <g id="patch_4">
    <path d="M 129.6 189 
L 129.6 25.92 
" style="fill: none; stroke: #000000; stroke-width: 0.8; stroke-linejoin: miter; stroke-linecap: square"/>
   </g>
   <g id="patch_5">
    <path d="M 18 189 
L 129.6 189 
" style="fill: none; stroke: #000000; stroke-width: 0.8; stroke-linejoin: miter; stroke-linecap: square"/>
   </g>
   <g id="patch_6">
    <path d="M 18 25.92 
L 129.6 25.92 
" style="fill: none; stroke: #000000; stroke-width: 0.8; stroke-linejoin: miter; stroke-linecap: square"/>
   </g>
  </g>
 </g>
 <defs>
  <clipPath id="p2953c4c768">
   <rect x="18" y="25.92" width="111.6" height="163.08"/>
  </clipPath>
 </defs>
</svg>
