<?xml version="1.0" encoding="utf-8" standalone="no"?>
<!DOCTYPE svg PUBLIC "-//W3C//DTD SVG 1.1//EN"
  "http://www.w3.org/Graphics/SVG/1.1/DTD/svg11.dtd">
<svg xmlns:xlink="http://www.w3.org/1999/xlink" width="144pt" height="216pt" viewBox="0 0 144 216" xmlns="http://www.w3.org/2000/svg" version="1.1">
 <metadata>
  <rdf:RDF xmlns:dc="http://purl.org/dc/elements/1.1/" xmlns:cc="http://creativecommons.org/ns#" xmlns:rdf="http://www.w3.org/1999/02/22-rdf-syntax-ns#">
   <cc:Work>
    <dc:type rdf:resource="http://purl.org/dc/dcmitype/StillImage"/>
    <dc:date>2022-06-23T14:49:42.014015</dc:date>
    <dc:format>image/svg+xml</dc:format>
    <dc:creator>
     <cc:Agent>
      <dc:title>Matplotlib v3.5.1, https://matplotlib.org/</dc:title>
     </cc:Agent>
    </dc:creator>
   </cc:Work>
  </rdf:RDF>
 </metadata>
 <defs>
  <style type="text/css">*{stroke-linejoin: round; stroke-linecap: butt}</style>
 </defs>
 <g id="figure_1">
  <g id="patch_1">
   <path d="M 0 216 
L 144 216 
L 144 0 
L 0 0 
L 0 216 
z
" style="fill: none"/>
  </g>
  <g id="axes_1">
   <g id="patch_2">
    <path d="M 18 189 
L 129.6 189 
L 129.6 25.92 
L 18 25.92 
z
" style="fill: #ffffff"/>
   </g>
   <g id="PathCollection_1">
    <defs>
     <path id="mef69897a59" d="M 0 2.738613 
C 0.726289 2.738613 1.422928 2.450055 1.936492 1.936492 
C 2.450055 1.422928 2.738613 0.726289 2.738613 0 
C 2.738613 -0.726289 2.450055 -1.422928 1.936492 -1.936492 
C 1.422928 -2.450055 0.726289 -2.738613 0 -2.738613 
C -0.726289 -2.738613 -1.422928 -2.450055 -1.936492 -1.936492 
C -2.450055 -1.422928 -2.738613 -0.726289 -2.738613 0 
C -2.738613 0.726289 -2.450055 1.422928 -1.936492 1.936492 
C -1.422928 2.450055 -0.726289 2.738613 0 2.738613 
z
" style="stroke: #ff0000; stroke-width: 1.75"/>
    </defs>
    <g clip-path="url(#p8bcb7cefde)">
     <use xlink:href="#mef69897a59" x="80.775" y="83.92143" style="fill: #ff0000; stroke: #ff0000; stroke-width: 1.75"/>
     <use xlink:href="#mef69897a59" x="59.85" y="95.690715" style="fill: #ff0000; stroke: #ff0000; stroke-width: 1.75"/>
     <use xlink:href="#mef69897a59" x="66.825" y="107.46" style="fill: #ff0000; stroke: #ff0000; stroke-width: 1.75"/>
     <use xlink:href="#mef69897a59" x="80.775" y="107.46" style="fill: #ff0000; stroke: #ff0000; stroke-width: 1.75"/>
     <use xlink:href="#mef69897a59" x="94.725" y="107.46" style="fill: #ff0000; stroke: #ff0000; stroke-width: 1.75"/>
     <use xlink:href="#mef69897a59" x="59.85" y="119.229285" style="fill: #ff0000; stroke: #ff0000; stroke-width: 1.75"/>
     <use xlink:href="#mef69897a59" x="80.775" y="130.99857" style="fill: #ff0000; stroke: #ff0000; stroke-width: 1.75"/>
    </g>
   </g>
   <g id="PathCollection_2">
    <defs>
     <path id="C0_0_ec9ee11c74" d="M 0 2.738613 
C 0.726289 2.738613 1.422928 2.450055 1.936492 1.936492 
C 2.450055 1.422928 2.738613 0.726289 2.738613 -0 
C 2.738613 -0.726289 2.450055 -1.422928 1.936492 -1.936492 
C 1.422928 -2.450055 0.726289 -2.738613 0 -2.738613 
C -0.726289 -2.738613 -1.422928 -2.450055 -1.936492 -1.936492 
C -2.450055 -1.422928 -2.738613 -0.726289 -2.738613 0 
C -2.738613 0.726289 -2.450055 1.422928 -1.936492 1.936492 
C -1.422928 2.450055 -0.726289 2.738613 0 2.738613 
z
"/>
    </defs>
    <g clip-path="url(#p8bcb7cefde)">
     <use xlink:href="#C0_0_ec9ee11c74" x="66.825" y="83.92143" style="fill: none; stroke: #ff0000; stroke-width: 1.75"/>
    </g>
    <g clip-path="url(#p8bcb7cefde)">
     <use xlink:href="#C0_0_ec9ee11c74" x="73.8" y="95.690715" style="fill: none; stroke: #ff0000; stroke-width: 1.75"/>
    </g>
    <g clip-path="url(#p8bcb7cefde)">
     <use xlink:href="#C0_0_ec9ee11c74" x="87.75" y="95.690715" style="fill: none; stroke: #ff0000; stroke-width: 1.75"/>
    </g>
    <g clip-path="url(#p8bcb7cefde)">
     <use xlink:href="#C0_0_ec9ee11c74" x="52.875" y="107.46" style="fill: none; stroke: #ff0000; stroke-width: 1.75"/>
    </g>
    <g clip-path="url(#p8bcb7cefde)">
     <use xlink:href="#C0_0_ec9ee11c74" x="73.8" y="119.229285" style="fill: none; stroke: #ff0000; stroke-width: 1.75"/>
    </g>
    <g clip-path="url(#p8bcb7cefde)">
     <use xlink:href="#C0_0_ec9ee11c74" x="87.75" y="119.229285" style="fill: none; stroke: #ff0000; stroke-width: 1.75"/>
    </g>
    <g clip-path="url(#p8bcb7cefde)">
     <use xlink:href="#C0_0_ec9ee11c74" x="66.825" y="130.99857" style="fill: none; stroke: #ff0000; stroke-width: 1.75"/>
    </g>
   </g>
   <g id="PathCollection_3">
    <path d="M 115.265432 100.100003 
C 115.452959 100.100003 115.63283 100.025498 115.765432 99.892896 
C 115.898033 99.760295 115.972539 99.580423 115.972539 99.392896 
C 115.972539 99.205369 115.898033 99.025498 115.765432 98.892896 
C 115.63283 98.760295 115.452959 98.68579 115.265432 98.68579 
C 115.077905 98.68579 114.898033 98.760295 114.765432 98.892896 
C 114.63283 99.025498 114.558325 99.205369 114.558325 99.392896 
C 114.558325 99.580423 114.63283 99.760295 114.765432 99.892896 
C 114.898033 100.025498 115.077905 100.100003 115.265432 100.100003 
z
" clip-path="url(#p8bcb7cefde)" style="stroke: #000000"/>
    <path d="M 104.046749 89.526367 
C 104.17935 89.526367 104.306538 89.473683 104.400302 89.37992 
C 104.494065 89.286157 104.546749 89.158968 104.546749 89.026367 
C 104.546749 88.893765 104.494065 88.766577 104.400302 88.672813 
C 104.306538 88.57905 104.17935 88.526367 104.046749 88.526367 
C 103.914147 88.526367 103.786959 88.57905 103.693195 88.672813 
C 103.599432 88.766577 103.546749 88.893765 103.546749 89.026367 
C 103.546749 89.158968 103.599432 89.286157 103.693195 89.37992 
C 103.786959 89.473683 103.914147 89.526367 104.046749 89.526367 
z
" clip-path="url(#p8bcb7cefde)" style="stroke: #000000"/>
    <path d="M 104.959753 112.55783 
C 105.092354 112.55783 105.219543 112.505147 105.313306 112.411384 
C 105.407069 112.31762 105.459753 112.190432 105.459753 112.05783 
C 105.459753 111.925229 105.407069 111.79804 105.313306 111.704277 
C 105.219543 111.610513 105.092354 111.55783 104.959753 111.55783 
C 104.827151 111.55783 104.699963 111.610513 104.606199 111.704277 
C 104.512436 111.79804 104.459753 111.925229 104.459753 112.05783 
C 104.459753 112.190432 104.512436 112.31762 104.606199 112.411384 
C 104.699963 112.505147 104.827151 112.55783 104.959753 112.55783 
z
" clip-path="url(#p8bcb7cefde)" style="stroke: #000000"/>
    <path d="M 103.204311 108.079308 
C 103.488171 108.079308 103.760442 107.966529 103.961161 107.76581 
C 104.16188 107.565091 104.274659 107.29282 104.274659 107.00896 
C 104.274659 106.725101 104.16188 106.452829 103.961161 106.25211 
C 103.760442 106.051391 103.488171 105.938613 103.204311 105.938613 
C 102.920452 105.938613 102.64818 106.051391 102.447461 106.25211 
C 102.246742 106.452829 102.133964 106.725101 102.133964 107.00896 
C 102.133964 107.29282 102.246742 107.565091 102.447461 107.76581 
C 102.64818 107.966529 102.920452 108.079308 103.204311 108.079308 
z
" clip-path="url(#p8bcb7cefde)" style="stroke: #000000"/>
    <path d="M 98.34591 94.349182 
C 98.478511 94.349182 98.6057 94.296499 98.699463 94.202736 
C 98.793226 94.108972 98.84591 93.981784 98.84591 93.849182 
C 98.84591 93.716581 98.793226 93.589392 98.699463 93.495629 
C 98.6057 93.401865 98.478511 93.349182 98.34591 93.349182 
C 98.213308 93.349182 98.08612 93.401865 97.992356 93.495629 
C 97.898593 93.589392 97.84591 93.716581 97.84591 93.849182 
C 97.84591 93.981784 97.898593 94.108972 97.992356 94.202736 
C 98.08612 94.296499 98.213308 94.349182 98.34591 94.349182 
z
" clip-path="url(#p8bcb7cefde)" style="stroke: #000000"/>
    <path d="M 97.802131 88.371653 
C 97.934733 88.371653 98.061921 88.31897 98.155685 88.225206 
C 98.249448 88.131443 98.302131 88.004254 98.302131 87.871653 
C 98.302131 87.739051 98.249448 87.611863 98.155685 87.518099 
C 98.061921 87.424336 97.934733 87.371653 97.802131 87.371653 
C 97.66953 87.371653 97.542341 87.424336 97.448578 87.518099 
C 97.354815 87.611863 97.302131 87.739051 97.302131 87.871653 
C 97.302131 88.004254 97.354815 88.131443 97.448578 88.225206 
C 97.542341 88.31897 97.66953 88.371653 97.802131 88.371653 
z
" clip-path="url(#p8bcb7cefde)" style="stroke: #000000"/>
    <path d="M 93.563396 76.952702 
C 93.770928 76.952702 93.969989 76.870248 94.116736 76.7235 
C 94.263484 76.576753 94.345938 76.377692 94.345938 76.170159 
C 94.345938 75.962627 94.263484 75.763566 94.116736 75.616818 
C 93.969989 75.470071 93.770928 75.387617 93.563396 75.387617 
C 93.355863 75.387617 93.156802 75.470071 93.010055 75.616818 
C 92.863307 75.763566 92.780853 75.962627 92.780853 76.170159 
C 92.780853 76.377692 92.863307 76.576753 93.010055 76.7235 
C 93.156802 76.870248 93.355863 76.952702 93.563396 76.952702 
z
" clip-path="url(#p8bcb7cefde)" style="stroke: #000000"/>
    <path d="M 92.225948 70.355044 
C 92.400461 70.355044 92.567851 70.285709 92.69125 70.16231 
C 92.81465 70.03891 92.883985 69.871521 92.883985 69.697007 
C 92.883985 69.522494 92.81465 69.355105 92.69125 69.231705 
C 92.567851 69.108305 92.400461 69.03897 92.225948 69.03897 
C 92.051435 69.03897 91.884045 69.108305 91.760646 69.231705 
C 91.637246 69.355105 91.567911 69.522494 91.567911 69.697007 
C 91.567911 69.871521 91.637246 70.03891 91.760646 70.16231 
C 91.884045 70.285709 92.051435 70.355044 92.225948 70.355044 
z
" clip-path="url(#p8bcb7cefde)" style="stroke: #000000"/>
    <path d="M 88.775956 67.135522 
C 88.908557 67.135522 89.035746 67.082839 89.129509 66.989075 
C 89.223273 66.895312 89.275956 66.768123 89.275956 66.635522 
C 89.275956 66.50292 89.223273 66.375732 89.129509 66.281968 
C 89.035746 66.188205 88.908557 66.135522 88.775956 66.135522 
C 88.643354 66.135522 88.516166 66.188205 88.422402 66.281968 
C 88.328639 66.375732 88.275956 66.50292 88.275956 66.635522 
C 88.275956 66.768123 88.328639 66.895312 88.422402 66.989075 
C 88.516166 67.082839 88.643354 67.135522 88.775956 67.135522 
z
" clip-path="url(#p8bcb7cefde)" style="stroke: #000000"/>
    <path d="M 105.230482 127.910985 
C 105.363083 127.910985 105.490271 127.858302 105.584035 127.764538 
C 105.677798 127.670775 105.730482 127.543586 105.730482 127.410985 
C 105.730482 127.278383 105.677798 127.151195 105.584035 127.057431 
C 105.490271 126.963668 105.363083 126.910985 105.230482 126.910985 
C 105.09788 126.910985 104.970692 126.963668 104.876928 127.057431 
C 104.783165 127.151195 104.730482 127.278383 104.730482 127.410985 
C 104.730482 127.543586 104.783165 127.670775 104.876928 127.764538 
C 104.970692 127.858302 105.09788 127.910985 105.230482 127.910985 
z
" clip-path="url(#p8bcb7cefde)" style="stroke: #000000"/>
    <path d="M 99.369922 114.714609 
C 99.666428 114.714609 99.95083 114.596805 100.160491 114.387144 
C 100.370153 114.177483 100.487956 113.893081 100.487956 113.596575 
C 100.487956 113.300068 100.370153 113.015667 100.160491 112.806005 
C 99.95083 112.596344 99.666428 112.478541 99.369922 112.478541 
C 99.073416 112.478541 98.789014 112.596344 98.579353 112.806005 
C 98.369691 113.015667 98.251888 113.300068 98.251888 113.596575 
C 98.251888 113.893081 98.369691 114.177483 98.579353 114.387144 
C 98.789014 114.596805 99.073416 114.714609 99.369922 114.714609 
z
" clip-path="url(#p8bcb7cefde)" style="stroke: #000000"/>
    <path d="M 97.602931 111.752512 
C 98.075271 111.752512 98.528329 111.564849 98.862324 111.230854 
C 99.196319 110.896859 99.383982 110.443801 99.383982 109.971461 
C 99.383982 109.49912 99.196319 109.046062 98.862324 108.712067 
C 98.528329 108.378072 98.075271 108.190409 97.602931 108.190409 
C 97.13059 108.190409 96.677532 108.378072 96.343537 108.712067 
C 96.009542 109.046062 95.821879 109.49912 95.821879 109.971461 
C 95.821879 110.443801 96.009542 110.896859 96.343537 111.230854 
C 96.677532 111.564849 97.13059 111.752512 97.602931 111.752512 
z
" clip-path="url(#p8bcb7cefde)" style="stroke: #000000"/>
    <path d="M 93.388876 104.928428 
C 93.76825 104.928428 94.132137 104.777702 94.400395 104.509444 
C 94.668652 104.241186 94.819379 103.877299 94.819379 103.497926 
C 94.819379 103.118552 94.668652 102.754665 94.400395 102.486407 
C 94.132137 102.21815 93.76825 102.067423 93.388876 102.067423 
C 93.009503 102.067423 92.645616 102.21815 92.377358 102.486407 
C 92.1091 102.754665 91.958374 103.118552 91.958374 103.497926 
C 91.958374 103.877299 92.1091 104.241186 92.377358 104.509444 
C 92.645616 104.777702 93.009503 104.928428 93.388876 104.928428 
z
" clip-path="url(#p8bcb7cefde)" style="stroke: #000000"/>
    <path d="M 94.031847 97.379642 
C 94.373364 97.379642 94.700939 97.243956 94.942427 97.002468 
C 95.183916 96.760979 95.319602 96.433404 95.319602 96.091887 
C 95.319602 95.750371 95.183916 95.422796 94.942427 95.181307 
C 94.700939 94.939819 94.373364 94.804133 94.031847 94.804133 
C 93.690331 94.804133 93.362756 94.939819 93.121267 95.181307 
C 92.879778 95.422796 92.744092 95.750371 92.744092 96.091887 
C 92.744092 96.433404 92.879778 96.760979 93.121267 97.002468 
C 93.362756 97.243956 93.690331 97.379642 94.031847 97.379642 
z
" clip-path="url(#p8bcb7cefde)" style="stroke: #000000"/>
    <path d="M 92.913204 91.394581 
C 93.23573 91.394581 93.54509 91.266439 93.773151 91.038379 
C 94.001212 90.810318 94.129353 90.500958 94.129353 90.178431 
C 94.129353 89.855904 94.001212 89.546544 93.773151 89.318483 
C 93.54509 89.090422 93.23573 88.962281 92.913204 88.962281 
C 92.590677 88.962281 92.281317 89.090422 92.053256 89.318483 
C 91.825195 89.546544 91.697054 89.855904 91.697054 90.178431 
C 91.697054 90.500958 91.825195 90.810318 92.053256 91.038379 
C 92.281317 91.266439 92.590677 91.394581 92.913204 91.394581 
z
" clip-path="url(#p8bcb7cefde)" style="stroke: #000000"/>
    <path d="M 89.257601 83.495947 
C 89.551096 83.495947 89.83261 83.37934 90.040143 83.171808 
C 90.247676 82.964275 90.364283 82.682761 90.364283 82.389266 
C 90.364283 82.09577 90.247676 81.814256 90.040143 81.606723 
C 89.83261 81.399191 89.551096 81.282584 89.257601 81.282584 
C 88.964105 81.282584 88.682591 81.399191 88.475059 81.606723 
C 88.267526 81.814256 88.150919 82.09577 88.150919 82.389266 
C 88.150919 82.682761 88.267526 82.964275 88.475059 83.171808 
C 88.682591 83.37934 88.964105 83.495947 89.257601 83.495947 
z
" clip-path="url(#p8bcb7cefde)" style="stroke: #000000"/>
    <path d="M 83.510881 74.023528 
C 83.685395 74.023528 83.852784 73.954193 83.976184 73.830793 
C 84.099584 73.707393 84.168918 73.540004 84.168918 73.365491 
C 84.168918 73.190977 84.099584 73.023588 83.976184 72.900188 
C 83.852784 72.776788 83.685395 72.707454 83.510881 72.707454 
C 83.336368 72.707454 83.168979 72.776788 83.045579 72.900188 
C 82.922179 73.023588 82.852844 73.190977 82.852844 73.365491 
C 82.852844 73.540004 82.922179 73.707393 83.045579 73.830793 
C 83.168979 73.954193 83.336368 74.023528 83.510881 74.023528 
z
" clip-path="url(#p8bcb7cefde)" style="stroke: #000000"/>
    <path d="M 93.225483 124.163551 
C 93.41301 124.163551 93.592882 124.089046 93.725483 123.956445 
C 93.858085 123.823843 93.93259 123.643971 93.93259 123.456445 
C 93.93259 123.268918 93.858085 123.089046 93.725483 122.956445 
C 93.592882 122.823843 93.41301 122.749338 93.225483 122.749338 
C 93.037957 122.749338 92.858085 122.823843 92.725483 122.956445 
C 92.592882 123.089046 92.518377 123.268918 92.518377 123.456445 
C 92.518377 123.643971 92.592882 123.823843 92.725483 123.956445 
C 92.858085 124.089046 93.037957 124.163551 93.225483 124.163551 
z
" clip-path="url(#p8bcb7cefde)" style="stroke: #000000"/>
    <path d="M 91.949993 111.251925 
C 92.36288 111.251925 92.758911 111.087883 93.050865 110.795928 
C 93.34282 110.503974 93.506862 110.107942 93.506862 109.695056 
C 93.506862 109.28217 93.34282 108.886138 93.050865 108.594184 
C 92.758911 108.302229 92.36288 108.138187 91.949993 108.138187 
C 91.537107 108.138187 91.141076 108.302229 90.849121 108.594184 
C 90.557166 108.886138 90.393125 109.28217 90.393125 109.695056 
C 90.393125 110.107942 90.557166 110.503974 90.849121 110.795928 
C 91.141076 111.087883 91.537107 111.251925 91.949993 111.251925 
z
" clip-path="url(#p8bcb7cefde)" style="stroke: #000000"/>
    <path d="M 88.230803 99.689607 
C 88.453812 99.689607 88.667716 99.601005 88.825407 99.443314 
C 88.983098 99.285623 89.0717 99.071719 89.0717 98.84871 
C 89.0717 98.625702 88.983098 98.411797 88.825407 98.254107 
C 88.667716 98.096416 88.453812 98.007814 88.230803 98.007814 
C 88.007795 98.007814 87.793891 98.096416 87.6362 98.254107 
C 87.478509 98.411797 87.389907 98.625702 87.389907 98.84871 
C 87.389907 99.071719 87.478509 99.285623 87.6362 99.443314 
C 87.793891 99.601005 88.007795 99.689607 88.230803 99.689607 
z
" clip-path="url(#p8bcb7cefde)" style="stroke: #000000"/>
    <path d="M 80.088996 88.064905 
C 80.594377 88.064905 81.079127 87.864115 81.436486 87.506756 
C 81.793844 87.149398 81.994634 86.664648 81.994634 86.159266 
C 81.994634 85.653885 81.793844 85.169135 81.436486 84.811776 
C 81.079127 84.454417 80.594377 84.253627 80.088996 84.253627 
C 79.583614 84.253627 79.098864 84.454417 78.741505 84.811776 
C 78.384147 85.169135 78.183357 85.653885 78.183357 86.159266 
C 78.183357 86.664648 78.384147 87.149398 78.741505 87.506756 
C 79.098864 87.864115 79.583614 88.064905 80.088996 88.064905 
z
" clip-path="url(#p8bcb7cefde)" style="stroke: #000000"/>
    <path d="M 82.171731 79.892589 
C 82.379264 79.892589 82.578324 79.810135 82.725072 79.663387 
C 82.87182 79.51664 82.954273 79.317579 82.954273 79.110046 
C 82.954273 78.902514 82.87182 78.703453 82.725072 78.556705 
C 82.578324 78.409958 82.379264 78.327504 82.171731 78.327504 
C 81.964198 78.327504 81.765138 78.409958 81.61839 78.556705 
C 81.471642 78.703453 81.389189 78.902514 81.389189 79.110046 
C 81.389189 79.317579 81.471642 79.51664 81.61839 79.663387 
C 81.765138 79.810135 81.964198 79.892589 82.171731 79.892589 
z
" clip-path="url(#p8bcb7cefde)" style="stroke: #000000"/>
    <path d="M 79.180019 73.835424 
C 79.312621 73.835424 79.439809 73.782741 79.533573 73.688978 
C 79.627336 73.595214 79.680019 73.468026 79.680019 73.335424 
C 79.680019 73.202823 79.627336 73.075634 79.533573 72.981871 
C 79.439809 72.888108 79.312621 72.835424 79.180019 72.835424 
C 79.047418 72.835424 78.920229 72.888108 78.826466 72.981871 
C 78.732703 73.075634 78.680019 73.202823 78.680019 73.335424 
C 78.680019 73.468026 78.732703 73.595214 78.826466 73.688978 
C 78.920229 73.782741 79.047418 73.835424 79.180019 73.835424 
z
" clip-path="url(#p8bcb7cefde)" style="stroke: #000000"/>
    <path d="M 90.016307 127.124068 
C 90.25211 127.124068 90.478286 127.030383 90.645024 126.863645 
C 90.811761 126.696907 90.905447 126.470731 90.905447 126.234928 
C 90.905447 125.999126 90.811761 125.772949 90.645024 125.606212 
C 90.478286 125.439474 90.25211 125.345789 90.016307 125.345789 
C 89.780504 125.345789 89.554328 125.439474 89.38759 125.606212 
C 89.220853 125.772949 89.127167 125.999126 89.127167 126.234928 
C 89.127167 126.470731 89.220853 126.696907 89.38759 126.863645 
C 89.554328 127.030383 89.780504 127.124068 90.016307 127.124068 
z
" clip-path="url(#p8bcb7cefde)" style="stroke: #000000"/>
    <path d="M 84.894981 120.476249 
C 85.34273 120.476249 85.772201 120.298357 86.088807 119.98175 
C 86.405413 119.665144 86.583305 119.235674 86.583305 118.787925 
C 86.583305 118.340176 86.405413 117.910706 86.088807 117.594099 
C 85.772201 117.277493 85.34273 117.099601 84.894981 117.099601 
C 84.447232 117.099601 84.017762 117.277493 83.701156 117.594099 
C 83.38455 117.910706 83.206657 118.340176 83.206657 118.787925 
C 83.206657 119.235674 83.38455 119.665144 83.701156 119.98175 
C 84.017762 120.298357 84.447232 120.476249 84.894981 120.476249 
z
" clip-path="url(#p8bcb7cefde)" style="stroke: #000000"/>
    <path d="M 85.600715 112.253354 
C 85.733317 112.253354 85.860505 112.200671 85.954269 112.106907 
C 86.048032 112.013144 86.100715 111.885955 86.100715 111.753354 
C 86.100715 111.620752 86.048032 111.493564 85.954269 111.3998 
C 85.860505 111.306037 85.733317 111.253354 85.600715 111.253354 
C 85.468114 111.253354 85.340925 111.306037 85.247162 111.3998 
C 85.153399 111.493564 85.100715 111.620752 85.100715 111.753354 
C 85.100715 111.885955 85.153399 112.013144 85.247162 112.106907 
C 85.340925 112.200671 85.468114 112.253354 85.600715 112.253354 
z
" clip-path="url(#p8bcb7cefde)" style="stroke: #000000"/>
    <path d="M 83.390685 108.993299 
C 83.903677 108.993299 84.395727 108.789486 84.758467 108.426745 
C 85.121207 108.064005 85.325021 107.571955 85.325021 107.058963 
C 85.325021 106.545971 85.121207 106.053921 84.758467 105.691181 
C 84.395727 105.32844 83.903677 105.124627 83.390685 105.124627 
C 82.877693 105.124627 82.385642 105.32844 82.022902 105.691181 
C 81.660162 106.053921 81.456348 106.545971 81.456348 107.058963 
C 81.456348 107.571955 81.660162 108.064005 82.022902 108.426745 
C 82.385642 108.789486 82.877693 108.993299 83.390685 108.993299 
z
" clip-path="url(#p8bcb7cefde)" style="stroke: #000000"/>
    <path d="M 80.615578 101.758273 
C 80.928466 101.758273 81.228582 101.633961 81.449827 101.412716 
C 81.671072 101.191471 81.795384 100.891356 81.795384 100.578468 
C 81.795384 100.26558 81.671072 99.965464 81.449827 99.744219 
C 81.228582 99.522974 80.928466 99.398662 80.615578 99.398662 
C 80.30269 99.398662 80.002575 99.522974 79.78133 99.744219 
C 79.560085 99.965464 79.435773 100.26558 79.435773 100.578468 
C 79.435773 100.891356 79.560085 101.191471 79.78133 101.412716 
C 80.002575 101.633961 80.30269 101.758273 80.615578 101.758273 
z
" clip-path="url(#p8bcb7cefde)" style="stroke: #000000"/>
    <path d="M 77.101916 90.168119 
C 77.513699 90.168119 77.908673 90.004516 78.199848 89.71334 
C 78.491023 89.422165 78.654627 89.027191 78.654627 88.615408 
C 78.654627 88.203624 78.491023 87.80865 78.199848 87.517475 
C 77.908673 87.2263 77.513699 87.062696 77.101916 87.062696 
C 76.690132 87.062696 76.295158 87.2263 76.003983 87.517475 
C 75.712808 87.80865 75.549204 88.203624 75.549204 88.615408 
C 75.549204 89.027191 75.712808 89.422165 76.003983 89.71334 
C 76.295158 90.004516 76.690132 90.168119 77.101916 90.168119 
z
" clip-path="url(#p8bcb7cefde)" style="stroke: #000000"/>
    <path d="M 73.635771 83.063204 
C 73.953588 83.063204 74.258431 82.936934 74.483161 82.712204 
C 74.707892 82.487473 74.834162 82.182631 74.834162 81.864814 
C 74.834162 81.546997 74.707892 81.242154 74.483161 81.017423 
C 74.258431 80.792693 73.953588 80.666423 73.635771 80.666423 
C 73.317954 80.666423 73.013111 80.792693 72.788381 81.017423 
C 72.56365 81.242154 72.43738 81.546997 72.43738 81.864814 
C 72.43738 82.182631 72.56365 82.487473 72.788381 82.712204 
C 73.013111 82.936934 73.317954 83.063204 73.635771 83.063204 
z
" clip-path="url(#p8bcb7cefde)" style="stroke: #000000"/>
    <path d="M 72.79435 78.178592 
C 73.024023 78.178592 73.24432 78.087342 73.406723 77.924939 
C 73.569126 77.762536 73.660376 77.542239 73.660376 77.312566 
C 73.660376 77.082894 73.569126 76.862597 73.406723 76.700194 
C 73.24432 76.537791 73.024023 76.446541 72.79435 76.446541 
C 72.564678 76.446541 72.344381 76.537791 72.181978 76.700194 
C 72.019575 76.862597 71.928325 77.082894 71.928325 77.312566 
C 71.928325 77.542239 72.019575 77.762536 72.181978 77.924939 
C 72.344381 78.087342 72.564678 78.178592 72.79435 78.178592 
z
" clip-path="url(#p8bcb7cefde)" style="stroke: #000000"/>
    <path d="M 88.246924 140.46082 
C 88.454457 140.46082 88.653517 140.378366 88.800265 140.231619 
C 88.947013 140.084871 89.029466 139.88581 89.029466 139.678278 
C 89.029466 139.470745 88.947013 139.271684 88.800265 139.124937 
C 88.653517 138.978189 88.454457 138.895735 88.246924 138.895735 
C 88.039392 138.895735 87.840331 138.978189 87.693583 139.124937 
C 87.546835 139.271684 87.464382 139.470745 87.464382 139.678278 
C 87.464382 139.88581 87.546835 140.084871 87.693583 140.231619 
C 87.840331 140.378366 88.039392 140.46082 88.246924 140.46082 
z
" clip-path="url(#p8bcb7cefde)" style="stroke: #000000"/>
    <path d="M 84.601198 135.800497 
C 85.06448 135.800497 85.508849 135.616433 85.836439 135.288843 
C 86.164029 134.961254 86.348092 134.516884 86.348092 134.053603 
C 86.348092 133.590321 86.164029 133.145952 85.836439 132.818362 
C 85.508849 132.490772 85.06448 132.306709 84.601198 132.306709 
C 84.137917 132.306709 83.693547 132.490772 83.365958 132.818362 
C 83.038368 133.145952 82.854304 133.590321 82.854304 134.053603 
C 82.854304 134.516884 83.038368 134.961254 83.365958 135.288843 
C 83.693547 135.616433 84.137917 135.800497 84.601198 135.800497 
z
" clip-path="url(#p8bcb7cefde)" style="stroke: #000000"/>
    <path d="M 79.120942 127.03224 
C 79.253544 127.03224 79.380732 126.979557 79.474495 126.885794 
C 79.568259 126.79203 79.620942 126.664842 79.620942 126.53224 
C 79.620942 126.399639 79.568259 126.27245 79.474495 126.178687 
C 79.380732 126.084924 79.253544 126.03224 79.120942 126.03224 
C 78.988341 126.03224 78.861152 126.084924 78.767389 126.178687 
C 78.673625 126.27245 78.620942 126.399639 78.620942 126.53224 
C 78.620942 126.664842 78.673625 126.79203 78.767389 126.885794 
C 78.861152 126.979557 78.988341 127.03224 79.120942 127.03224 
z
" clip-path="url(#p8bcb7cefde)" style="stroke: #000000"/>
    <path d="M 76.953499 117.75912 
C 77.341096 117.75912 77.712869 117.605127 77.986941 117.331055 
C 78.261012 117.056983 78.415006 116.68521 78.415006 116.297614 
C 78.415006 115.910018 78.261012 115.538245 77.986941 115.264173 
C 77.712869 114.990101 77.341096 114.836108 76.953499 114.836108 
C 76.565903 114.836108 76.19413 114.990101 75.920058 115.264173 
C 75.645987 115.538245 75.491993 115.910018 75.491993 116.297614 
C 75.491993 116.68521 75.645987 117.056983 75.920058 117.331055 
C 76.19413 117.605127 76.565903 117.75912 76.953499 117.75912 
z
" clip-path="url(#p8bcb7cefde)" style="stroke: #000000"/>
    <path d="M 74.736845 108.901525 
C 75.078361 108.901525 75.405936 108.765839 75.647425 108.52435 
C 75.888914 108.282861 76.0246 107.955286 76.0246 107.61377 
C 76.0246 107.272253 75.888914 106.944678 75.647425 106.70319 
C 75.405936 106.461701 75.078361 106.326015 74.736845 106.326015 
C 74.395328 106.326015 74.067753 106.461701 73.826265 106.70319 
C 73.584776 106.944678 73.44909 107.272253 73.44909 107.61377 
C 73.44909 107.955286 73.584776 108.282861 73.826265 108.52435 
C 74.067753 108.765839 74.395328 108.901525 74.736845 108.901525 
z
" clip-path="url(#p8bcb7cefde)" style="stroke: #000000"/>
    <path d="M 73.808985 105.418117 
C 74.161592 105.418117 74.499805 105.278025 74.749136 105.028694 
C 74.998467 104.779363 75.138559 104.44115 75.138559 104.088543 
C 75.138559 103.735936 74.998467 103.397723 74.749136 103.148393 
C 74.499805 102.899062 74.161592 102.758969 73.808985 102.758969 
C 73.456378 102.758969 73.118165 102.899062 72.868834 103.148393 
C 72.619504 103.397723 72.479411 103.735936 72.479411 104.088543 
C 72.479411 104.44115 72.619504 104.779363 72.868834 105.028694 
C 73.118165 105.278025 73.456378 105.418117 73.808985 105.418117 
z
" clip-path="url(#p8bcb7cefde)" style="stroke: #000000"/>
    <path d="M 71.906731 97.668325 
C 72.200226 97.668325 72.48174 97.551718 72.689273 97.344185 
C 72.896806 97.136653 73.013413 96.855139 73.013413 96.561643 
C 73.013413 96.268148 72.896806 95.986633 72.689273 95.779101 
C 72.48174 95.571568 72.200226 95.454961 71.906731 95.454961 
C 71.613235 95.454961 71.331721 95.571568 71.124188 95.779101 
C 70.916656 95.986633 70.800049 96.268148 70.800049 96.561643 
C 70.800049 96.855139 70.916656 97.136653 71.124188 97.344185 
C 71.331721 97.551718 71.613235 97.668325 71.906731 97.668325 
z
" clip-path="url(#p8bcb7cefde)" style="stroke: #000000"/>
    <path d="M 69.630408 89.678447 
C 69.923903 89.678447 70.205418 89.56184 70.41295 89.354307 
C 70.620483 89.146774 70.73709 88.86526 70.73709 88.571765 
C 70.73709 88.278269 70.620483 87.996755 70.41295 87.789222 
C 70.205418 87.58169 69.923903 87.465083 69.630408 87.465083 
C 69.336912 87.465083 69.055398 87.58169 68.847866 87.789222 
C 68.640333 87.996755 68.523726 88.278269 68.523726 88.571765 
C 68.523726 88.86526 68.640333 89.146774 68.847866 89.354307 
C 69.055398 89.56184 69.336912 89.678447 69.630408 89.678447 
z
" clip-path="url(#p8bcb7cefde)" style="stroke: #000000"/>
    <path d="M 68.66272 84.545637 
C 69.219571 84.545637 69.753689 84.324397 70.147442 83.930645 
C 70.541195 83.536892 70.762434 83.002773 70.762434 82.445923 
C 70.762434 81.889072 70.541195 81.354954 70.147442 80.961201 
C 69.753689 80.567448 69.219571 80.346209 68.66272 80.346209 
C 68.105869 80.346209 67.571751 80.567448 67.177998 80.961201 
C 66.784245 81.354954 66.563006 81.889072 66.563006 82.445923 
C 66.563006 83.002773 66.784245 83.536892 67.177998 83.930645 
C 67.571751 84.324397 68.105869 84.545637 68.66272 84.545637 
z
" clip-path="url(#p8bcb7cefde)" style="stroke: #000000"/>
    <path d="M 64.634285 76.85964 
C 64.903538 76.85964 65.161799 76.752665 65.35219 76.562274 
C 65.542581 76.371883 65.649556 76.113622 65.649556 75.844368 
C 65.649556 75.575115 65.542581 75.316854 65.35219 75.126463 
C 65.161799 74.936072 64.903538 74.829097 64.634285 74.829097 
C 64.365031 74.829097 64.10677 74.936072 63.916379 75.126463 
C 63.725988 75.316854 63.619013 75.575115 63.619013 75.844368 
C 63.619013 76.113622 63.725988 76.371883 63.916379 76.562274 
C 64.10677 76.752665 64.365031 76.85964 64.634285 76.85964 
z
" clip-path="url(#p8bcb7cefde)" style="stroke: #000000"/>
    <path d="M 61.448356 71.736781 
C 61.606046 71.736781 61.7573 71.67413 61.868804 71.562625 
C 61.980308 71.451121 62.042959 71.299868 62.042959 71.142177 
C 62.042959 70.984486 61.980308 70.833233 61.868804 70.721729 
C 61.7573 70.610225 61.606046 70.547574 61.448356 70.547574 
C 61.290665 70.547574 61.139411 70.610225 61.027907 70.721729 
C 60.916403 70.833233 60.853752 70.984486 60.853752 71.142177 
C 60.853752 71.299868 60.916403 71.451121 61.027907 71.562625 
C 61.139411 71.67413 61.290665 71.736781 61.448356 71.736781 
z
" clip-path="url(#p8bcb7cefde)" style="stroke: #000000"/>
    <path d="M 79.337735 145.848009 
C 79.495426 145.848009 79.646679 145.785358 79.758183 145.673854 
C 79.869687 145.56235 79.932338 145.411096 79.932338 145.253406 
C 79.932338 145.095715 79.869687 144.944462 79.758183 144.832957 
C 79.646679 144.721453 79.495426 144.658802 79.337735 144.658802 
C 79.180044 144.658802 79.028791 144.721453 78.917287 144.832957 
C 78.805783 144.944462 78.743131 145.095715 78.743131 145.253406 
C 78.743131 145.411096 78.805783 145.56235 78.917287 145.673854 
C 79.028791 145.785358 79.180044 145.848009 79.337735 145.848009 
z
" clip-path="url(#p8bcb7cefde)" style="stroke: #000000"/>
    <path d="M 80.50191 137.084614 
C 80.872489 137.084614 81.227941 136.937382 81.48998 136.675343 
C 81.752019 136.413303 81.899251 136.057852 81.899251 135.687273 
C 81.899251 135.316694 81.752019 134.961243 81.48998 134.699204 
C 81.227941 134.437165 80.872489 134.289932 80.50191 134.289932 
C 80.131331 134.289932 79.77588 134.437165 79.513841 134.699204 
C 79.251802 134.961243 79.104569 135.316694 79.104569 135.687273 
C 79.104569 136.057852 79.251802 136.413303 79.513841 136.675343 
C 79.77588 136.937382 80.131331 137.084614 80.50191 137.084614 
z
" clip-path="url(#p8bcb7cefde)" style="stroke: #000000"/>
    <path d="M 75.250296 131.971199 
C 75.407986 131.971199 75.55924 131.908548 75.670744 131.797044 
C 75.782248 131.68554 75.844899 131.534286 75.844899 131.376596 
C 75.844899 131.218905 75.782248 131.067651 75.670744 130.956147 
C 75.55924 130.844643 75.407986 130.781992 75.250296 130.781992 
C 75.092605 130.781992 74.941352 130.844643 74.829847 130.956147 
C 74.718343 131.067651 74.655692 131.218905 74.655692 131.376596 
C 74.655692 131.534286 74.718343 131.68554 74.829847 131.797044 
C 74.941352 131.908548 75.092605 131.971199 75.250296 131.971199 
z
" clip-path="url(#p8bcb7cefde)" style="stroke: #000000"/>
    <path d="M 74.975442 123.026811 
C 75.133132 123.026811 75.284386 122.96416 75.39589 122.852656 
C 75.507394 122.741152 75.570045 122.589898 75.570045 122.432208 
C 75.570045 122.274517 75.507394 122.123263 75.39589 122.011759 
C 75.284386 121.900255 75.133132 121.837604 74.975442 121.837604 
C 74.817751 121.837604 74.666498 121.900255 74.554993 122.011759 
C 74.443489 122.123263 74.380838 122.274517 74.380838 122.432208 
C 74.380838 122.589898 74.443489 122.741152 74.554993 122.852656 
C 74.666498 122.96416 74.817751 123.026811 74.975442 123.026811 
z
" clip-path="url(#p8bcb7cefde)" style="stroke: #000000"/>
    <path d="M 71.616043 118.070404 
C 72.141725 118.070404 72.645947 117.861549 73.01766 117.489836 
C 73.389373 117.118123 73.598229 116.613901 73.598229 116.088219 
C 73.598229 115.562538 73.389373 115.058316 73.01766 114.686603 
C 72.645947 114.31489 72.141725 114.106034 71.616043 114.106034 
C 71.090362 114.106034 70.58614 114.31489 70.214427 114.686603 
C 69.842714 115.058316 69.633858 115.562538 69.633858 116.088219 
C 69.633858 116.613901 69.842714 117.118123 70.214427 117.489836 
C 70.58614 117.861549 71.090362 118.070404 71.616043 118.070404 
z
" clip-path="url(#p8bcb7cefde)" style="stroke: #000000"/>
    <path d="M 71.226264 110.621993 
C 71.587373 110.621993 71.933742 110.478523 72.189085 110.223179 
C 72.444428 109.967836 72.587898 109.621468 72.587898 109.260358 
C 72.587898 108.899248 72.444428 108.55288 72.189085 108.297537 
C 71.933742 108.042194 71.587373 107.898723 71.226264 107.898723 
C 70.865154 107.898723 70.518785 108.042194 70.263442 108.297537 
C 70.008099 108.55288 69.864629 108.899248 69.864629 109.260358 
C 69.864629 109.621468 70.008099 109.967836 70.263442 110.223179 
C 70.518785 110.478523 70.865154 110.621993 71.226264 110.621993 
z
" clip-path="url(#p8bcb7cefde)" style="stroke: #000000"/>
    <path d="M 68.452467 107.62001 
C 68.989482 107.62001 69.504575 107.406651 69.884302 107.026924 
C 70.264029 106.647197 70.477388 106.132104 70.477388 105.595089 
C 70.477388 105.058073 70.264029 104.54298 69.884302 104.163253 
C 69.504575 103.783526 68.989482 103.570168 68.452467 103.570168 
C 67.915451 103.570168 67.400359 103.783526 67.020631 104.163253 
C 66.640904 104.54298 66.427546 105.058073 66.427546 105.595089 
C 66.427546 106.132104 66.640904 106.647197 67.020631 107.026924 
C 67.400359 107.406651 67.915451 107.62001 68.452467 107.62001 
z
" clip-path="url(#p8bcb7cefde)" style="stroke: #000000"/>
    <path d="M 66.643731 99.618748 
C 66.970769 99.618748 67.284457 99.488814 67.515708 99.257563 
C 67.74696 99.026311 67.876893 98.712623 67.876893 98.385585 
C 67.876893 98.058546 67.74696 97.744858 67.515708 97.513607 
C 67.284457 97.282356 66.970769 97.152422 66.643731 97.152422 
C 66.316692 97.152422 66.003004 97.282356 65.771753 97.513607 
C 65.540502 97.744858 65.410568 98.058546 65.410568 98.385585 
C 65.410568 98.712623 65.540502 99.026311 65.771753 99.257563 
C 66.003004 99.488814 66.316692 99.618748 66.643731 99.618748 
z
" clip-path="url(#p8bcb7cefde)" style="stroke: #000000"/>
    <path d="M 62.169135 93.870132 
C 62.554048 93.870132 62.923248 93.717204 63.195423 93.445029 
C 63.467598 93.172854 63.620526 92.803654 63.620526 92.41874 
C 63.620526 92.033827 63.467598 91.664626 63.195423 91.392451 
C 62.923248 91.120276 62.554048 90.967349 62.169135 90.967349 
C 61.784221 90.967349 61.415021 91.120276 61.142846 91.392451 
C 60.870671 91.664626 60.717743 92.033827 60.717743 92.41874 
C 60.717743 92.803654 60.870671 93.172854 61.142846 93.445029 
C 61.415021 93.717204 61.784221 93.870132 62.169135 93.870132 
z
" clip-path="url(#p8bcb7cefde)" style="stroke: #000000"/>
    <path d="M 60.870911 87.192484 
C 61.236848 87.192484 61.587846 87.047095 61.846602 86.788339 
C 62.105358 86.529583 62.250746 86.178585 62.250746 85.812649 
C 62.250746 85.446713 62.105358 85.095715 61.846602 84.836959 
C 61.587846 84.578203 61.236848 84.432815 60.870911 84.432815 
C 60.504975 84.432815 60.153977 84.578203 59.895221 84.836959 
C 59.636465 85.095715 59.491077 85.446713 59.491077 85.812649 
C 59.491077 86.178585 59.636465 86.529583 59.895221 86.788339 
C 60.153977 87.047095 60.504975 87.192484 60.870911 87.192484 
z
" clip-path="url(#p8bcb7cefde)" style="stroke: #000000"/>
    <path d="M 58.633446 81.203989 
C 58.955973 81.203989 59.265333 81.075847 59.493394 80.847787 
C 59.721455 80.619726 59.849596 80.310366 59.849596 79.987839 
C 59.849596 79.665312 59.721455 79.355952 59.493394 79.127891 
C 59.265333 78.899831 58.955973 78.771689 58.633446 78.771689 
C 58.31092 78.771689 58.001559 78.899831 57.773499 79.127891 
C 57.545438 79.355952 57.417297 79.665312 57.417297 79.987839 
C 57.417297 80.310366 57.545438 80.619726 57.773499 80.847787 
C 58.001559 81.075847 58.31092 81.203989 58.633446 81.203989 
z
" clip-path="url(#p8bcb7cefde)" style="stroke: #000000"/>
    <path d="M 83.949527 175.64643 
C 84.082129 175.64643 84.209317 175.593747 84.303081 175.499984 
C 84.396844 175.40622 84.449527 175.279032 84.449527 175.14643 
C 84.449527 175.013829 84.396844 174.886641 84.303081 174.792877 
C 84.209317 174.699114 84.082129 174.64643 83.949527 174.64643 
C 83.816926 174.64643 83.689737 174.699114 83.595974 174.792877 
C 83.502211 174.886641 83.449527 175.013829 83.449527 175.14643 
C 83.449527 175.279032 83.502211 175.40622 83.595974 175.499984 
C 83.689737 175.593747 83.816926 175.64643 83.949527 175.64643 
z
" clip-path="url(#p8bcb7cefde)" style="stroke: #000000"/>
    <path d="M 77.678045 150.979372 
C 77.810647 150.979372 77.937835 150.926689 78.031599 150.832926 
C 78.125362 150.739162 78.178045 150.611974 78.178045 150.479372 
C 78.178045 150.346771 78.125362 150.219582 78.031599 150.125819 
C 77.937835 150.032056 77.810647 149.979372 77.678045 149.979372 
C 77.545444 149.979372 77.418255 150.032056 77.324492 150.125819 
C 77.230728 150.219582 77.178045 150.346771 77.178045 150.479372 
C 77.178045 150.611974 77.230728 150.739162 77.324492 150.832926 
C 77.418255 150.926689 77.545444 150.979372 77.678045 150.979372 
z
" clip-path="url(#p8bcb7cefde)" style="stroke: #000000"/>
    <path d="M 70.053504 137.841191 
C 70.330349 137.841191 70.595893 137.731199 70.791652 137.53544 
C 70.987411 137.339681 71.097403 137.074137 71.097403 136.797292 
C 71.097403 136.520447 70.987411 136.254903 70.791652 136.059144 
C 70.595893 135.863385 70.330349 135.753393 70.053504 135.753393 
C 69.776659 135.753393 69.511115 135.863385 69.315356 136.059144 
C 69.119597 136.254903 69.009605 136.520447 69.009605 136.797292 
C 69.009605 137.074137 69.119597 137.339681 69.315356 137.53544 
C 69.511115 137.731199 69.776659 137.841191 70.053504 137.841191 
z
" clip-path="url(#p8bcb7cefde)" style="stroke: #000000"/>
    <path d="M 69.043225 132.813903 
C 69.370263 132.813903 69.683951 132.683969 69.915202 132.452718 
C 70.146454 132.221466 70.276387 131.907778 70.276387 131.58074 
C 70.276387 131.253701 70.146454 130.940013 69.915202 130.708762 
C 69.683951 130.477511 69.370263 130.347577 69.043225 130.347577 
C 68.716186 130.347577 68.402498 130.477511 68.171247 130.708762 
C 67.939996 130.940013 67.810062 131.253701 67.810062 131.58074 
C 67.810062 131.907778 67.939996 132.221466 68.171247 132.452718 
C 68.402498 132.683969 68.716186 132.813903 69.043225 132.813903 
z
" clip-path="url(#p8bcb7cefde)" style="stroke: #000000"/>
    <path d="M 67.344501 125.712573 
C 67.641007 125.712573 67.925409 125.594769 68.13507 125.385108 
C 68.344732 125.175447 68.462535 124.891045 68.462535 124.594539 
C 68.462535 124.298032 68.344732 124.013631 68.13507 123.803969 
C 67.925409 123.594308 67.641007 123.476505 67.344501 123.476505 
C 67.047995 123.476505 66.763593 123.594308 66.553931 123.803969 
C 66.34427 124.013631 66.226467 124.298032 66.226467 124.594539 
C 66.226467 124.891045 66.34427 125.175447 66.553931 125.385108 
C 66.763593 125.594769 67.047995 125.712573 67.344501 125.712573 
z
" clip-path="url(#p8bcb7cefde)" style="stroke: #000000"/>
    <path d="M 65.884838 117.885623 
C 66.24262 117.885623 66.585795 117.743475 66.838785 117.490486 
C 67.091774 117.237496 67.233922 116.89432 67.233922 116.536539 
C 67.233922 116.178758 67.091774 115.835582 66.838785 115.582593 
C 66.585795 115.329603 66.24262 115.187455 65.884838 115.187455 
C 65.527057 115.187455 65.183881 115.329603 64.930892 115.582593 
C 64.677902 115.835582 64.535754 116.178758 64.535754 116.536539 
C 64.535754 116.89432 64.677902 117.237496 64.930892 117.490486 
C 65.183881 117.743475 65.527057 117.885623 65.884838 117.885623 
z
" clip-path="url(#p8bcb7cefde)" style="stroke: #000000"/>
    <path d="M 64.653931 111.285944 
C 64.841458 111.285944 65.021329 111.211439 65.153931 111.078837 
C 65.286532 110.946236 65.361037 110.766364 65.361037 110.578837 
C 65.361037 110.39131 65.286532 110.211439 65.153931 110.078837 
C 65.021329 109.946236 64.841458 109.871731 64.653931 109.871731 
C 64.466404 109.871731 64.286532 109.946236 64.153931 110.078837 
C 64.021329 110.211439 63.946824 110.39131 63.946824 110.578837 
C 63.946824 110.766364 64.021329 110.946236 64.153931 111.078837 
C 64.286532 111.211439 64.466404 111.285944 64.653931 111.285944 
z
" clip-path="url(#p8bcb7cefde)" style="stroke: #000000"/>
    <path d="M 61.729127 108.754436 
C 62.18112 108.754436 62.614662 108.574857 62.934269 108.255249 
C 63.253877 107.935642 63.433456 107.5021 63.433456 107.050107 
C 63.433456 106.598113 63.253877 106.164571 62.934269 105.844964 
C 62.614662 105.525356 62.18112 105.345777 61.729127 105.345777 
C 61.277133 105.345777 60.843592 105.525356 60.523984 105.844964 
C 60.204377 106.164571 60.024798 106.598113 60.024798 107.050107 
C 60.024798 107.5021 60.204377 107.935642 60.523984 108.255249 
C 60.843592 108.574857 61.277133 108.754436 61.729127 108.754436 
z
" clip-path="url(#p8bcb7cefde)" style="stroke: #000000"/>
    <path d="M 56.626926 103.651415 
C 56.984707 103.651415 57.327883 103.509267 57.580872 103.256277 
C 57.833862 103.003288 57.97601 102.660112 57.97601 102.302331 
C 57.97601 101.94455 57.833862 101.601374 57.580872 101.348385 
C 57.327883 101.095395 56.984707 100.953247 56.626926 100.953247 
C 56.269145 100.953247 55.925969 101.095395 55.672979 101.348385 
C 55.41999 101.601374 55.277842 101.94455 55.277842 102.302331 
C 55.277842 102.660112 55.41999 103.003288 55.672979 103.256277 
C 55.925969 103.509267 56.269145 103.651415 56.626926 103.651415 
z
" clip-path="url(#p8bcb7cefde)" style="stroke: #000000"/>
    <path d="M 57.000413 97.647507 
C 57.450723 97.647507 57.88265 97.468597 58.201067 97.15018 
C 58.519485 96.831762 58.698395 96.399835 58.698395 95.949525 
C 58.698395 95.499216 58.519485 95.067289 58.201067 94.748871 
C 57.88265 94.430454 57.450723 94.251544 57.000413 94.251544 
C 56.550103 94.251544 56.118176 94.430454 55.799759 94.748871 
C 55.481342 95.067289 55.302432 95.499216 55.302432 95.949525 
C 55.302432 96.399835 55.481342 96.831762 55.799759 97.15018 
C 56.118176 97.468597 56.550103 97.647507 57.000413 97.647507 
z
" clip-path="url(#p8bcb7cefde)" style="stroke: #000000"/>
    <path d="M 62.246899 134.231957 
C 62.751078 134.231957 63.234676 134.031644 63.591184 133.675135 
C 63.947693 133.318627 64.148006 132.835029 64.148006 132.33085 
C 64.148006 131.82667 63.947693 131.343073 63.591184 130.986564 
C 63.234676 130.630055 62.751078 130.429743 62.246899 130.429743 
C 61.742719 130.429743 61.259122 130.630055 60.902613 130.986564 
C 60.546104 131.343073 60.345792 131.82667 60.345792 132.33085 
C 60.345792 132.835029 60.546104 133.318627 60.902613 133.675135 
C 61.259122 134.031644 61.742719 134.231957 62.246899 134.231957 
z
" clip-path="url(#p8bcb7cefde)" style="stroke: #000000"/>
    <path d="M 63.257107 128.95005 
C 63.577304 128.95005 63.884431 128.822834 64.110845 128.59642 
C 64.337259 128.370006 64.464475 128.062879 64.464475 127.742681 
C 64.464475 127.422484 64.337259 127.115357 64.110845 126.888943 
C 63.884431 126.662529 63.577304 126.535313 63.257107 126.535313 
C 62.936909 126.535313 62.629782 126.662529 62.403368 126.888943 
C 62.176954 127.115357 62.049738 127.422484 62.049738 127.742681 
C 62.049738 128.062879 62.176954 128.370006 62.403368 128.59642 
C 62.629782 128.822834 62.936909 128.95005 63.257107 128.95005 
z
" clip-path="url(#p8bcb7cefde)" style="stroke: #000000"/>
    <path d="M 60.824216 121.443854 
C 61.35617 121.443854 61.866407 121.232507 62.242555 120.856359 
C 62.618703 120.480211 62.83005 119.969974 62.83005 119.43802 
C 62.83005 118.906067 62.618703 118.39583 62.242555 118.019682 
C 61.866407 117.643534 61.35617 117.432187 60.824216 117.432187 
C 60.292263 117.432187 59.782025 117.643534 59.405878 118.019682 
C 59.02973 118.39583 58.818382 118.906067 58.818382 119.43802 
C 58.818382 119.969974 59.02973 120.480211 59.405878 120.856359 
C 59.782025 121.232507 60.292263 121.443854 60.824216 121.443854 
z
" clip-path="url(#p8bcb7cefde)" style="stroke: #000000"/>
    <path d="M 55.506343 114.934844 
C 55.762839 114.934844 56.008865 114.832937 56.190235 114.651567 
C 56.371605 114.470197 56.473512 114.224172 56.473512 113.967676 
C 56.473512 113.71118 56.371605 113.465155 56.190235 113.283785 
C 56.008865 113.102415 55.762839 113.000508 55.506343 113.000508 
C 55.249847 113.000508 55.003822 113.102415 54.822452 113.283785 
C 54.641082 113.465155 54.539175 113.71118 54.539175 113.967676 
C 54.539175 114.224172 54.641082 114.470197 54.822452 114.651567 
C 55.003822 114.832937 55.249847 114.934844 55.506343 114.934844 
z
" clip-path="url(#p8bcb7cefde)" style="stroke: #000000"/>
    <path d="M 55.19567 110.839964 
C 55.456628 110.839964 55.706933 110.736285 55.891459 110.551759 
C 56.075984 110.367234 56.179664 110.116928 56.179664 109.85597 
C 56.179664 109.595011 56.075984 109.344706 55.891459 109.16018 
C 55.706933 108.975655 55.456628 108.871975 55.19567 108.871975 
C 54.934711 108.871975 54.684406 108.975655 54.49988 109.16018 
C 54.315355 109.344706 54.211675 109.595011 54.211675 109.85597 
C 54.211675 110.116928 54.315355 110.367234 54.49988 110.551759 
C 54.684406 110.736285 54.934711 110.839964 55.19567 110.839964 
z
" clip-path="url(#p8bcb7cefde)" style="stroke: #000000"/>
    <path d="M 51.261332 104.578213 
C 51.646245 104.578213 52.015446 104.425285 52.28762 104.153111 
C 52.559795 103.880936 52.712723 103.511735 52.712723 103.126822 
C 52.712723 102.741908 52.559795 102.372708 52.28762 102.100533 
C 52.015446 101.828358 51.646245 101.67543 51.261332 101.67543 
C 50.876418 101.67543 50.507218 101.828358 50.235043 102.100533 
C 49.962868 102.372708 49.80994 102.741908 49.80994 103.126822 
C 49.80994 103.511735 49.962868 103.880936 50.235043 104.153111 
C 50.507218 104.425285 50.876418 104.578213 51.261332 104.578213 
z
" clip-path="url(#p8bcb7cefde)" style="stroke: #000000"/>
    <path d="M 47.380709 88.849962 
C 47.555223 88.849962 47.722612 88.780627 47.846012 88.657227 
C 47.969412 88.533827 48.038746 88.366438 48.038746 88.191925 
C 48.038746 88.017411 47.969412 87.850022 47.846012 87.726622 
C 47.722612 87.603223 47.555223 87.533888 47.380709 87.533888 
C 47.206196 87.533888 47.038807 87.603223 46.915407 87.726622 
C 46.792007 87.850022 46.722672 88.017411 46.722672 88.191925 
C 46.722672 88.366438 46.792007 88.533827 46.915407 88.657227 
C 47.038807 88.780627 47.206196 88.849962 47.380709 88.849962 
z
" clip-path="url(#p8bcb7cefde)" style="stroke: #000000"/>
    <path d="M 48.011045 112.136596 
C 48.338083 112.136596 48.651771 112.006662 48.883023 111.775411 
C 49.114274 111.54416 49.244208 111.230472 49.244208 110.903433 
C 49.244208 110.576395 49.114274 110.262707 48.883023 110.031455 
C 48.651771 109.800204 48.338083 109.67027 48.011045 109.67027 
C 47.684006 109.67027 47.370318 109.800204 47.139067 110.031455 
C 46.907816 110.262707 46.777882 110.576395 46.777882 110.903433 
C 46.777882 111.230472 46.907816 111.54416 47.139067 111.775411 
C 47.370318 112.006662 47.684006 112.136596 48.011045 112.136596 
z
" clip-path="url(#p8bcb7cefde)" style="stroke: #000000"/>
    <path d="M 46.760397 99.752458 
C 46.947924 99.752458 47.127795 99.677953 47.260397 99.545351 
C 47.392998 99.41275 47.467503 99.232878 47.467503 99.045351 
C 47.467503 98.857824 47.392998 98.677953 47.260397 98.545351 
C 47.127795 98.41275 46.947924 98.338245 46.760397 98.338245 
C 46.57287 98.338245 46.392998 98.41275 46.260397 98.545351 
C 46.127795 98.677953 46.05329 98.857824 46.05329 99.045351 
C 46.05329 99.232878 46.127795 99.41275 46.260397 99.545351 
C 46.392998 99.677953 46.57287 99.752458 46.760397 99.752458 
z
" clip-path="url(#p8bcb7cefde)" style="stroke: #000000"/>
    <path d="M 51.303306 129.625118 
C 51.435908 129.625118 51.563096 129.572435 51.65686 129.478672 
C 51.750623 129.384908 51.803306 129.25772 51.803306 129.125118 
C 51.803306 128.992517 51.750623 128.865328 51.65686 128.771565 
C 51.563096 128.677801 51.435908 128.625118 51.303306 128.625118 
C 51.170705 128.625118 51.043516 128.677801 50.949753 128.771565 
C 50.855989 128.865328 50.803306 128.992517 50.803306 129.125118 
C 50.803306 129.25772 50.855989 129.384908 50.949753 129.478672 
C 51.043516 129.572435 51.170705 129.625118 51.303306 129.625118 
z
" clip-path="url(#p8bcb7cefde)" style="stroke: #000000"/>
    <path d="M 43.927505 117.990875 
C 44.102018 117.990875 44.269407 117.92154 44.392807 117.798141 
C 44.516207 117.674741 44.585542 117.507352 44.585542 117.332838 
C 44.585542 117.158325 44.516207 116.990935 44.392807 116.867536 
C 44.269407 116.744136 44.102018 116.674801 43.927505 116.674801 
C 43.752991 116.674801 43.585602 116.744136 43.462202 116.867536 
C 43.338802 116.990935 43.269468 117.158325 43.269468 117.332838 
C 43.269468 117.507352 43.338802 117.674741 43.462202 117.798141 
C 43.585602 117.92154 43.752991 117.990875 43.927505 117.990875 
z
" clip-path="url(#p8bcb7cefde)" style="stroke: #000000"/>
    <path d="M 42.633117 115.104314 
C 42.807631 115.104314 42.97502 115.034979 43.09842 114.91158 
C 43.221819 114.78818 43.291154 114.620791 43.291154 114.446277 
C 43.291154 114.271764 43.221819 114.104374 43.09842 113.980975 
C 42.97502 113.857575 42.807631 113.78824 42.633117 113.78824 
C 42.458604 113.78824 42.291214 113.857575 42.167815 113.980975 
C 42.044415 114.104374 41.97508 114.271764 41.97508 114.446277 
C 41.97508 114.620791 42.044415 114.78818 42.167815 114.91158 
C 42.291214 115.034979 42.458604 115.104314 42.633117 115.104314 
z
" clip-path="url(#p8bcb7cefde)" style="stroke: #000000"/>
    <path d="M 36.979562 101.685015 
C 37.112163 101.685015 37.239352 101.632332 37.333115 101.538568 
C 37.426878 101.444805 37.479562 101.317616 37.479562 101.185015 
C 37.479562 101.052413 37.426878 100.925225 37.333115 100.831461 
C 37.239352 100.737698 37.112163 100.685015 36.979562 100.685015 
C 36.84696 100.685015 36.719772 100.737698 36.626008 100.831461 
C 36.532245 100.925225 36.479562 101.052413 36.479562 101.185015 
C 36.479562 101.317616 36.532245 101.444805 36.626008 101.538568 
C 36.719772 101.632332 36.84696 101.685015 36.979562 101.685015 
z
" clip-path="url(#p8bcb7cefde)" style="stroke: #000000"/>
    <path d="M 42.345477 126.755364 
C 42.478078 126.755364 42.605267 126.702681 42.69903 126.608917 
C 42.792793 126.515154 42.845477 126.387966 42.845477 126.255364 
C 42.845477 126.122763 42.792793 125.995574 42.69903 125.901811 
C 42.605267 125.808047 42.478078 125.755364 42.345477 125.755364 
C 42.212875 125.755364 42.085687 125.808047 41.991923 125.901811 
C 41.89816 125.995574 41.845477 126.122763 41.845477 126.255364 
C 41.845477 126.387966 41.89816 126.515154 41.991923 126.608917 
C 42.085687 126.702681 42.212875 126.755364 42.345477 126.755364 
z
" clip-path="url(#p8bcb7cefde)" style="stroke: #000000"/>
   </g>
   <g id="matplotlib.axis_1">
    <g id="xtick_1">
     <g id="line2d_1">
      <defs>
       <path id="m518249e022" d="M 0 0 
L 0 3.5 
" style="stroke: #000000; stroke-width: 0.8"/>
      </defs>
      <g>
       <use xlink:href="#m518249e022" x="18" y="189" style="stroke: #000000; stroke-width: 0.8"/>
      </g>
     </g>
     <g id="text_1">
      <!-- 10 -->
      <g transform="translate(7.447656 203.598437)scale(0.1 -0.1)">
       <defs>
        <path id="DejaVuSans-2212" d="M 678 2272 
L 4684 2272 
L 4684 1741 
L 678 1741 
L 678 2272 
z
" transform="scale(0.015625)"/>
        <path id="DejaVuSans-31" d="M 794 531 
L 1825 531 
L 1825 4091 
L 703 3866 
L 703 4441 
L 1819 4666 
L 2450 4666 
L 2450 531 
L 3481 531 
L 3481 0 
L 794 0 
L 794 531 
z
" transform="scale(0.015625)"/>
        <path id="DejaVuSans-30" d="M 2034 4250 
Q 1547 4250 1301 3770 
Q 1056 3291 1056 2328 
Q 1056 1369 1301 889 
Q 1547 409 2034 409 
Q 2525 409 2770 889 
Q 3016 1369 3016 2328 
Q 3016 3291 2770 3770 
Q 2525 4250 2034 4250 
z
M 2034 4750 
Q 2819 4750 3233 4129 
Q 3647 3509 3647 2328 
Q 3647 1150 3233 529 
Q 2819 -91 2034 -91 
Q 1250 -91 836 529 
Q 422 1150 422 2328 
Q 422 3509 836 4129 
Q 1250 4750 2034 4750 
z
" transform="scale(0.015625)"/>
       </defs>
       <use xlink:href="#DejaVuSans-2212"/>
       <use xlink:href="#DejaVuSans-31" x="83.789062"/>
       <use xlink:href="#DejaVuSans-30" x="147.412109"/>
      </g>
     </g>
    </g>
    <g id="xtick_2">
     <g id="line2d_2">
      <g>
       <use xlink:href="#m518249e022" x="73.8" y="189" style="stroke: #000000; stroke-width: 0.8"/>
      </g>
     </g>
     <g id="text_2">
      <!-- 0 -->
      <g transform="translate(70.61875 203.598437)scale(0.1 -0.1)">
       <use xlink:href="#DejaVuSans-30"/>
      </g>
     </g>
    </g>
    <g id="xtick_3">
     <g id="line2d_3">
      <g>
       <use xlink:href="#m518249e022" x="129.6" y="189" style="stroke: #000000; stroke-width: 0.8"/>
      </g>
     </g>
     <g id="text_3">
      <!-- 10 -->
      <g transform="translate(123.2375 203.598437)scale(0.1 -0.1)">
       <use xlink:href="#DejaVuSans-31"/>
       <use xlink:href="#DejaVuSans-30" x="63.623047"/>
      </g>
     </g>
    </g>
   </g>
   <g id="matplotlib.axis_2">
    <g id="ytick_1">
     <g id="line2d_4">
      <defs>
       <path id="m67c89b17f0" d="M 0 0 
L -3.5 0 
" style="stroke: #000000; stroke-width: 0.8"/>
      </defs>
      <g>
       <use xlink:href="#m67c89b17f0" x="18" y="189" style="stroke: #000000; stroke-width: 0.8"/>
      </g>
     </g>
     <g id="text_4">
      <!-- 15 -->
      <g transform="translate(-10.104688 192.799219)scale(0.1 -0.1)">
       <defs>
        <path id="DejaVuSans-35" d="M 691 4666 
L 3169 4666 
L 3169 4134 
L 1269 4134 
L 1269 2991 
Q 1406 3038 1543 3061 
Q 1681 3084 1819 3084 
Q 2600 3084 3056 2656 
Q 3513 2228 3513 1497 
Q 3513 744 3044 326 
Q 2575 -91 1722 -91 
Q 1428 -91 1123 -41 
Q 819 9 494 109 
L 494 744 
Q 775 591 1075 516 
Q 1375 441 1709 441 
Q 2250 441 2565 725 
Q 2881 1009 2881 1497 
Q 2881 1984 2565 2268 
Q 2250 2553 1709 2553 
Q 1456 2553 1204 2497 
Q 953 2441 691 2322 
L 691 4666 
z
" transform="scale(0.015625)"/>
       </defs>
       <use xlink:href="#DejaVuSans-2212"/>
       <use xlink:href="#DejaVuSans-31" x="83.789062"/>
       <use xlink:href="#DejaVuSans-35" x="147.412109"/>
      </g>
     </g>
    </g>
    <g id="ytick_2">
     <g id="line2d_5">
      <g>
       <use xlink:href="#m67c89b17f0" x="18" y="161.82" style="stroke: #000000; stroke-width: 0.8"/>
      </g>
     </g>
     <g id="text_5">
      <!-- 10 -->
      <g transform="translate(-10.104688 165.619219)scale(0.1 -0.1)">
       <use xlink:href="#DejaVuSans-2212"/>
       <use xlink:href="#DejaVuSans-31" x="83.789062"/>
       <use xlink:href="#DejaVuSans-30" x="147.412109"/>
      </g>
     </g>
    </g>
    <g id="ytick_3">
     <g id="line2d_6">
      <g>
       <use xlink:href="#m67c89b17f0" x="18" y="134.64" style="stroke: #000000; stroke-width: 0.8"/>
      </g>
     </g>
     <g id="text_6">
      <!-- 5 -->
      <g transform="translate(-3.742188 138.439219)scale(0.1 -0.1)">
       <use xlink:href="#DejaVuSans-2212"/>
       <use xlink:href="#DejaVuSans-35" x="83.789062"/>
      </g>
     </g>
    </g>
    <g id="ytick_4">
     <g id="line2d_7">
      <g>
       <use xlink:href="#m67c89b17f0" x="18" y="107.46" style="stroke: #000000; stroke-width: 0.8"/>
      </g>
     </g>
     <g id="text_7">
      <!-- 0 -->
      <g transform="translate(4.6375 111.259219)scale(0.1 -0.1)">
       <use xlink:href="#DejaVuSans-30"/>
      </g>
     </g>
    </g>
    <g id="ytick_5">
     <g id="line2d_8">
      <g>
       <use xlink:href="#m67c89b17f0" x="18" y="80.28" style="stroke: #000000; stroke-width: 0.8"/>
      </g>
     </g>
     <g id="text_8">
      <!-- 5 -->
      <g transform="translate(4.6375 84.079219)scale(0.1 -0.1)">
       <use xlink:href="#DejaVuSans-35"/>
      </g>
     </g>
    </g>
    <g id="ytick_6">
     <g id="line2d_9">
      <g>
       <use xlink:href="#m67c89b17f0" x="18" y="53.1" style="stroke: #000000; stroke-width: 0.8"/>
      </g>
     </g>
     <g id="text_9">
      <!-- 10 -->
      <g transform="translate(-1.725 56.899219)scale(0.1 -0.1)">
       <use xlink:href="#DejaVuSans-31"/>
       <use xlink:href="#DejaVuSans-30" x="63.623047"/>
      </g>
     </g>
    </g>
    <g id="ytick_7">
     <g id="line2d_10">
      <g>
       <use xlink:href="#m67c89b17f0" x="18" y="25.92" style="stroke: #000000; stroke-width: 0.8"/>
      </g>
     </g>
     <g id="text_10">
      <!-- 15 -->
      <g transform="translate(-1.725 29.719219)scale(0.1 -0.1)">
       <use xlink:href="#DejaVuSans-31"/>
       <use xlink:href="#DejaVuSans-35" x="63.623047"/>
      </g>
     </g>
    </g>
   </g>
   <g id="patch_3">
    <path d="M 18 189 
L 18 25.92 
" style="fill: none; stroke: #000000; stroke-width: 0.8; stroke-linejoin: miter; stroke-linecap: square"/>
   </g>
   <g id="patch_4">
    <path d="M 129.6 189 
L 129.6 25.92 
" style="fill: none; stroke: #000000; stroke-width: 0.8; stroke-linejoin: miter; stroke-linecap: square"/>
   </g>
   <g id="patch_5">
    <path d="M 18 189 
L 129.6 189 
" style="fill: none; stroke: #000000; stroke-width: 0.8; stroke-linejoin: miter; stroke-linecap: square"/>
   </g>
   <g id="patch_6">
    <path d="M 18 25.92 
L 129.6 25.92 
" style="fill: none; stroke: #000000; stroke-width: 0.8; stroke-linejoin: miter; stroke-linecap: square"/>
   </g>
  </g>
 </g>
 <defs>
  <clipPath id="p8bcb7cefde">
   <rect x="18" y="25.92" width="111.6" height="163.08"/>
  </clipPath>
 </defs>
</svg>
