<?xml version="1.0" encoding="utf-8" standalone="no"?>
<!DOCTYPE svg PUBLIC "-//W3C//DTD SVG 1.1//EN"
  "http://www.w3.org/Graphics/SVG/1.1/DTD/svg11.dtd">
<svg xmlns:xlink="http://www.w3.org/1999/xlink" width="144pt" height="216pt" viewBox="0 0 144 216" xmlns="http://www.w3.org/2000/svg" version="1.1">
 <metadata>
  <rdf:RDF xmlns:dc="http://purl.org/dc/elements/1.1/" xmlns:cc="http://creativecommons.org/ns#" xmlns:rdf="http://www.w3.org/1999/02/22-rdf-syntax-ns#">
   <cc:Work>
    <dc:type rdf:resource="http://purl.org/dc/dcmitype/StillImage"/>
    <dc:date>2022-06-23T14:48:19.578169</dc:date>
    <dc:format>image/svg+xml</dc:format>
    <dc:creator>
     <cc:Agent>
      <dc:title>Matplotlib v3.5.1, https://matplotlib.org/</dc:title>
     </cc:Agent>
    </dc:creator>
   </cc:Work>
  </rdf:RDF>
 </metadata>
 <defs>
  <style type="text/css">*{stroke-linejoin: round; stroke-linecap: butt}</style>
 </defs>
 <g id="figure_1">
  <g id="patch_1">
   <path d="M 0 216 
L 144 216 
L 144 0 
L 0 0 
L 0 216 
z
" style="fill: none"/>
  </g>
  <g id="axes_1">
   <g id="patch_2">
    <path d="M 18 189 
L 129.6 189 
L 129.6 25.92 
L 18 25.92 
z
" style="fill: #ffffff"/>
   </g>
   <g id="PathCollection_1">
    <defs>
     <path id="md41c0bca1a" d="M 0 2.738613 
C 0.726289 2.738613 1.422928 2.450055 1.936492 1.936492 
C 2.450055 1.422928 2.738613 0.726289 2.738613 0 
C 2.738613 -0.726289 2.450055 -1.422928 1.936492 -1.936492 
C 1.422928 -2.450055 0.726289 -2.738613 0 -2.738613 
C -0.726289 -2.738613 -1.422928 -2.450055 -1.936492 -1.936492 
C -2.450055 -1.422928 -2.738613 -0.726289 -2.738613 0 
C -2.738613 0.726289 -2.450055 1.422928 -1.936492 1.936492 
C -1.422928 2.450055 -0.726289 2.738613 0 2.738613 
z
" style="stroke: #ff0000; stroke-width: 1.75"/>
    </defs>
    <g clip-path="url(#p858cda51be)">
     <use xlink:href="#md41c0bca1a" x="66.825" y="83.92143" style="fill: #ff0000; stroke: #ff0000; stroke-width: 1.75"/>
     <use xlink:href="#md41c0bca1a" x="87.75" y="95.690715" style="fill: #ff0000; stroke: #ff0000; stroke-width: 1.75"/>
     <use xlink:href="#md41c0bca1a" x="66.825" y="107.46" style="fill: #ff0000; stroke: #ff0000; stroke-width: 1.75"/>
     <use xlink:href="#md41c0bca1a" x="73.8" y="119.229285" style="fill: #ff0000; stroke: #ff0000; stroke-width: 1.75"/>
     <use xlink:href="#md41c0bca1a" x="87.75" y="119.229285" style="fill: #ff0000; stroke: #ff0000; stroke-width: 1.75"/>
     <use xlink:href="#md41c0bca1a" x="66.825" y="130.99857" style="fill: #ff0000; stroke: #ff0000; stroke-width: 1.75"/>
     <use xlink:href="#md41c0bca1a" x="80.775" y="130.99857" style="fill: #ff0000; stroke: #ff0000; stroke-width: 1.75"/>
    </g>
   </g>
   <g id="PathCollection_2">
    <defs>
     <path id="C0_0_941ac64ccf" d="M 0 2.738613 
C 0.726289 2.738613 1.422928 2.450055 1.936492 1.936492 
C 2.450055 1.422928 2.738613 0.726289 2.738613 -0 
C 2.738613 -0.726289 2.450055 -1.422928 1.936492 -1.936492 
C 1.422928 -2.450055 0.726289 -2.738613 0 -2.738613 
C -0.726289 -2.738613 -1.422928 -2.450055 -1.936492 -1.936492 
C -2.450055 -1.422928 -2.738613 -0.726289 -2.738613 0 
C -2.738613 0.726289 -2.450055 1.422928 -1.936492 1.936492 
C -1.422928 2.450055 -0.726289 2.738613 0 2.738613 
z
"/>
    </defs>
    <g clip-path="url(#p858cda51be)">
     <use xlink:href="#C0_0_941ac64ccf" x="80.775" y="83.92143" style="fill: none; stroke: #ff0000; stroke-width: 1.75"/>
    </g>
    <g clip-path="url(#p858cda51be)">
     <use xlink:href="#C0_0_941ac64ccf" x="59.85" y="95.690715" style="fill: none; stroke: #ff0000; stroke-width: 1.75"/>
    </g>
    <g clip-path="url(#p858cda51be)">
     <use xlink:href="#C0_0_941ac64ccf" x="73.8" y="95.690715" style="fill: none; stroke: #ff0000; stroke-width: 1.75"/>
    </g>
    <g clip-path="url(#p858cda51be)">
     <use xlink:href="#C0_0_941ac64ccf" x="52.875" y="107.46" style="fill: none; stroke: #ff0000; stroke-width: 1.75"/>
    </g>
    <g clip-path="url(#p858cda51be)">
     <use xlink:href="#C0_0_941ac64ccf" x="80.775" y="107.46" style="fill: none; stroke: #ff0000; stroke-width: 1.75"/>
    </g>
    <g clip-path="url(#p858cda51be)">
     <use xlink:href="#C0_0_941ac64ccf" x="94.725" y="107.46" style="fill: none; stroke: #ff0000; stroke-width: 1.75"/>
    </g>
    <g clip-path="url(#p858cda51be)">
     <use xlink:href="#C0_0_941ac64ccf" x="59.85" y="119.229285" style="fill: none; stroke: #ff0000; stroke-width: 1.75"/>
    </g>
   </g>
   <g id="PathCollection_3">
    <path d="M 96.429381 42.92436 
C 96.561982 42.92436 96.68917 42.871677 96.782934 42.777914 
C 96.876697 42.68415 96.929381 42.556962 96.929381 42.42436 
C 96.929381 42.291759 96.876697 42.164571 96.782934 42.070807 
C 96.68917 41.977044 96.561982 41.92436 96.429381 41.92436 
C 96.296779 41.92436 96.169591 41.977044 96.075827 42.070807 
C 95.982064 42.164571 95.929381 42.291759 95.929381 42.42436 
C 95.929381 42.556962 95.982064 42.68415 96.075827 42.777914 
C 96.169591 42.871677 96.296779 42.92436 96.429381 42.92436 
z
" clip-path="url(#p858cda51be)" style="stroke: #000000"/>
    <path d="M 107.15869 114.960524 
C 107.333204 114.960524 107.500593 114.891189 107.623993 114.767789 
C 107.747392 114.64439 107.816727 114.477 107.816727 114.302487 
C 107.816727 114.127973 107.747392 113.960584 107.623993 113.837184 
C 107.500593 113.713785 107.333204 113.64445 107.15869 113.64445 
C 106.984177 113.64445 106.816788 113.713785 106.693388 113.837184 
C 106.569988 113.960584 106.500653 114.127973 106.500653 114.302487 
C 106.500653 114.477 106.569988 114.64439 106.693388 114.767789 
C 106.816788 114.891189 106.984177 114.960524 107.15869 114.960524 
z
" clip-path="url(#p858cda51be)" style="stroke: #000000"/>
    <path d="M 98.88651 91.84262 
C 99.019111 91.84262 99.146299 91.789936 99.240063 91.696173 
C 99.333826 91.60241 99.38651 91.475221 99.38651 91.34262 
C 99.38651 91.210018 99.333826 91.08283 99.240063 90.989066 
C 99.146299 90.895303 99.019111 90.84262 98.88651 90.84262 
C 98.753908 90.84262 98.62672 90.895303 98.532956 90.989066 
C 98.439193 91.08283 98.38651 91.210018 98.38651 91.34262 
C 98.38651 91.475221 98.439193 91.60241 98.532956 91.696173 
C 98.62672 91.789936 98.753908 91.84262 98.88651 91.84262 
z
" clip-path="url(#p858cda51be)" style="stroke: #000000"/>
    <path d="M 109.680442 137.198422 
C 109.813043 137.198422 109.940232 137.145739 110.033995 137.051976 
C 110.127758 136.958212 110.180442 136.831024 110.180442 136.698422 
C 110.180442 136.565821 110.127758 136.438632 110.033995 136.344869 
C 109.940232 136.251105 109.813043 136.198422 109.680442 136.198422 
C 109.54784 136.198422 109.420652 136.251105 109.326888 136.344869 
C 109.233125 136.438632 109.180442 136.565821 109.180442 136.698422 
C 109.180442 136.831024 109.233125 136.958212 109.326888 137.051976 
C 109.420652 137.145739 109.54784 137.198422 109.680442 137.198422 
z
" clip-path="url(#p858cda51be)" style="stroke: #000000"/>
    <path d="M 106.4127 130.859565 
C 106.545302 130.859565 106.67249 130.806881 106.766253 130.713118 
C 106.860017 130.619355 106.9127 130.492166 106.9127 130.359565 
C 106.9127 130.226963 106.860017 130.099775 106.766253 130.006011 
C 106.67249 129.912248 106.545302 129.859565 106.4127 129.859565 
C 106.280099 129.859565 106.15291 129.912248 106.059147 130.006011 
C 105.965383 130.099775 105.9127 130.226963 105.9127 130.359565 
C 105.9127 130.492166 105.965383 130.619355 106.059147 130.713118 
C 106.15291 130.806881 106.280099 130.859565 106.4127 130.859565 
z
" clip-path="url(#p858cda51be)" style="stroke: #000000"/>
    <path d="M 102.079089 115.803285 
C 102.253603 115.803285 102.420992 115.73395 102.544392 115.61055 
C 102.667791 115.48715 102.737126 115.319761 102.737126 115.145248 
C 102.737126 114.970734 102.667791 114.803345 102.544392 114.679945 
C 102.420992 114.556545 102.253603 114.487211 102.079089 114.487211 
C 101.904576 114.487211 101.737186 114.556545 101.613787 114.679945 
C 101.490387 114.803345 101.421052 114.970734 101.421052 115.145248 
C 101.421052 115.319761 101.490387 115.48715 101.613787 115.61055 
C 101.737186 115.73395 101.904576 115.803285 102.079089 115.803285 
z
" clip-path="url(#p858cda51be)" style="stroke: #000000"/>
    <path d="M 97.04953 101.65433 
C 97.247816 101.65433 97.438007 101.57555 97.578216 101.435341 
C 97.718425 101.295132 97.797205 101.104941 97.797205 100.906655 
C 97.797205 100.70837 97.718425 100.518179 97.578216 100.37797 
C 97.438007 100.237761 97.247816 100.158981 97.04953 100.158981 
C 96.851245 100.158981 96.661054 100.237761 96.520844 100.37797 
C 96.380635 100.518179 96.301856 100.70837 96.301856 100.906655 
C 96.301856 101.104941 96.380635 101.295132 96.520844 101.435341 
C 96.661054 101.57555 96.851245 101.65433 97.04953 101.65433 
z
" clip-path="url(#p858cda51be)" style="stroke: #000000"/>
    <path d="M 89.38064 76.498141 
C 89.513241 76.498141 89.64043 76.445458 89.734193 76.351694 
C 89.827957 76.257931 89.88064 76.130742 89.88064 75.998141 
C 89.88064 75.865539 89.827957 75.738351 89.734193 75.644587 
C 89.64043 75.550824 89.513241 75.498141 89.38064 75.498141 
C 89.248038 75.498141 89.12085 75.550824 89.027086 75.644587 
C 88.933323 75.738351 88.88064 75.865539 88.88064 75.998141 
C 88.88064 76.130742 88.933323 76.257931 89.027086 76.351694 
C 89.12085 76.445458 89.248038 76.498141 89.38064 76.498141 
z
" clip-path="url(#p858cda51be)" style="stroke: #000000"/>
    <path d="M 97.951923 116.903506 
C 98.30628 116.903506 98.646171 116.762718 98.896739 116.51215 
C 99.147308 116.261582 99.288095 115.921691 99.288095 115.567333 
C 99.288095 115.212976 99.147308 114.873085 98.896739 114.622517 
C 98.646171 114.371948 98.30628 114.231161 97.951923 114.231161 
C 97.597566 114.231161 97.257674 114.371948 97.007106 114.622517 
C 96.756538 114.873085 96.61575 115.212976 96.61575 115.567333 
C 96.61575 115.921691 96.756538 116.261582 97.007106 116.51215 
C 97.257674 116.762718 97.597566 116.903506 97.951923 116.903506 
z
" clip-path="url(#p858cda51be)" style="stroke: #000000"/>
    <path d="M 96.931097 114.370216 
C 97.241431 114.370216 97.539096 114.24692 97.758535 114.027481 
C 97.977974 113.808041 98.101271 113.510376 98.101271 113.200043 
C 98.101271 112.889709 97.977974 112.592044 97.758535 112.372605 
C 97.539096 112.153166 97.241431 112.029869 96.931097 112.029869 
C 96.620764 112.029869 96.323099 112.153166 96.10366 112.372605 
C 95.884221 112.592044 95.760924 112.889709 95.760924 113.200043 
C 95.760924 113.510376 95.884221 113.808041 96.10366 114.027481 
C 96.323099 114.24692 96.620764 114.370216 96.931097 114.370216 
z
" clip-path="url(#p858cda51be)" style="stroke: #000000"/>
    <path d="M 94.437509 108.513339 
C 94.845931 108.513339 95.23768 108.351071 95.526479 108.062273 
C 95.815277 107.773475 95.977544 107.381726 95.977544 106.973304 
C 95.977544 106.564882 95.815277 106.173133 95.526479 105.884334 
C 95.23768 105.595536 94.845931 105.433269 94.437509 105.433269 
C 94.029087 105.433269 93.637338 105.595536 93.34854 105.884334 
C 93.059742 106.173133 92.897474 106.564882 92.897474 106.973304 
C 92.897474 107.381726 93.059742 107.773475 93.34854 108.062273 
C 93.637338 108.351071 94.029087 108.513339 94.437509 108.513339 
z
" clip-path="url(#p858cda51be)" style="stroke: #000000"/>
    <path d="M 89.65851 95.728274 
C 90.232053 95.728274 90.782182 95.500403 91.187737 95.094847 
C 91.593293 94.689291 91.821164 94.139162 91.821164 93.56562 
C 91.821164 92.992077 91.593293 92.441949 91.187737 92.036393 
C 90.782182 91.630837 90.232053 91.402966 89.65851 91.402966 
C 89.084968 91.402966 88.534839 91.630837 88.129283 92.036393 
C 87.723727 92.441949 87.495856 92.992077 87.495856 93.56562 
C 87.495856 94.139162 87.723727 94.689291 88.129283 95.094847 
C 88.534839 95.500403 89.084968 95.728274 89.65851 95.728274 
z
" clip-path="url(#p858cda51be)" style="stroke: #000000"/>
    <path d="M 84.108279 82.536669 
C 84.385125 82.536669 84.650668 82.426678 84.846427 82.230919 
C 85.042186 82.035159 85.152178 81.769616 85.152178 81.492771 
C 85.152178 81.215925 85.042186 80.950382 84.846427 80.754623 
C 84.650668 80.558864 84.385125 80.448872 84.108279 80.448872 
C 83.831434 80.448872 83.565891 80.558864 83.370131 80.754623 
C 83.174372 80.950382 83.064381 81.215925 83.064381 81.492771 
C 83.064381 81.769616 83.174372 82.035159 83.370131 82.230919 
C 83.565891 82.426678 83.831434 82.536669 84.108279 82.536669 
z
" clip-path="url(#p858cda51be)" style="stroke: #000000"/>
    <path d="M 91.454581 115.931033 
C 91.94818 115.931033 92.421628 115.734925 92.770655 115.385898 
C 93.119682 115.036871 93.315791 114.563422 93.315791 114.069824 
C 93.315791 113.576225 93.119682 113.102777 92.770655 112.75375 
C 92.421628 112.404723 91.94818 112.208614 91.454581 112.208614 
C 90.960983 112.208614 90.487534 112.404723 90.138507 112.75375 
C 89.78948 113.102777 89.593371 113.576225 89.593371 114.069824 
C 89.593371 114.563422 89.78948 115.036871 90.138507 115.385898 
C 90.487534 115.734925 90.960983 115.931033 91.454581 115.931033 
z
" clip-path="url(#p858cda51be)" style="stroke: #000000"/>
    <path d="M 87.955932 101.6959 
C 88.232777 101.6959 88.49832 101.585909 88.694079 101.39015 
C 88.889839 101.19439 88.99983 100.928847 88.99983 100.652002 
C 88.99983 100.375156 88.889839 100.109613 88.694079 99.913854 
C 88.49832 99.718095 88.232777 99.608103 87.955932 99.608103 
C 87.679086 99.608103 87.413543 99.718095 87.217784 99.913854 
C 87.022025 100.109613 86.912033 100.375156 86.912033 100.652002 
C 86.912033 100.928847 87.022025 101.19439 87.217784 101.39015 
C 87.413543 101.585909 87.679086 101.6959 87.955932 101.6959 
z
" clip-path="url(#p858cda51be)" style="stroke: #000000"/>
    <path d="M 87.138921 97.213368 
C 87.498378 97.213368 87.843161 97.070554 88.097335 96.816379 
C 88.35151 96.562205 88.494324 96.217422 88.494324 95.857965 
C 88.494324 95.498508 88.35151 95.153725 88.097335 94.89955 
C 87.843161 94.645375 87.498378 94.502562 87.138921 94.502562 
C 86.779463 94.502562 86.43468 94.645375 86.180506 94.89955 
C 85.926331 95.153725 85.783518 95.498508 85.783518 95.857965 
C 85.783518 96.217422 85.926331 96.562205 86.180506 96.816379 
C 86.43468 97.070554 86.779463 97.213368 87.138921 97.213368 
z
" clip-path="url(#p858cda51be)" style="stroke: #000000"/>
    <path d="M 83.09894 88.391438 
C 83.286466 88.391438 83.466338 88.316933 83.59894 88.184332 
C 83.731541 88.05173 83.806046 87.871859 83.806046 87.684332 
C 83.806046 87.496805 83.731541 87.316933 83.59894 87.184332 
C 83.466338 87.05173 83.286466 86.977225 83.09894 86.977225 
C 82.911413 86.977225 82.731541 87.05173 82.59894 87.184332 
C 82.466338 87.316933 82.391833 87.496805 82.391833 87.684332 
C 82.391833 87.871859 82.466338 88.05173 82.59894 88.184332 
C 82.731541 88.316933 82.911413 88.391438 83.09894 88.391438 
z
" clip-path="url(#p858cda51be)" style="stroke: #000000"/>
    <path d="M 82.076926 84.09227 
C 82.209527 84.09227 82.336716 84.039587 82.430479 83.945823 
C 82.524243 83.85206 82.576926 83.724871 82.576926 83.59227 
C 82.576926 83.459668 82.524243 83.33248 82.430479 83.238716 
C 82.336716 83.144953 82.209527 83.09227 82.076926 83.09227 
C 81.944324 83.09227 81.817136 83.144953 81.723373 83.238716 
C 81.629609 83.33248 81.576926 83.459668 81.576926 83.59227 
C 81.576926 83.724871 81.629609 83.85206 81.723373 83.945823 
C 81.817136 84.039587 81.944324 84.09227 82.076926 84.09227 
z
" clip-path="url(#p858cda51be)" style="stroke: #000000"/>
    <path d="M 79.454085 75.900383 
C 79.611776 75.900383 79.763029 75.837732 79.874533 75.726228 
C 79.986037 75.614723 80.048689 75.46347 80.048689 75.305779 
C 80.048689 75.148089 79.986037 74.996835 79.874533 74.885331 
C 79.763029 74.773827 79.611776 74.711176 79.454085 74.711176 
C 79.296394 74.711176 79.145141 74.773827 79.033637 74.885331 
C 78.922133 74.996835 78.859482 75.148089 78.859482 75.305779 
C 78.859482 75.46347 78.922133 75.614723 79.033637 75.726228 
C 79.145141 75.837732 79.296394 75.900383 79.454085 75.900383 
z
" clip-path="url(#p858cda51be)" style="stroke: #000000"/>
    <path d="M 93.021669 126.200934 
C 93.229202 126.200934 93.428263 126.11848 93.57501 125.971733 
C 93.721758 125.824985 93.804212 125.625924 93.804212 125.418392 
C 93.804212 125.210859 93.721758 125.011798 93.57501 124.865051 
C 93.428263 124.718303 93.229202 124.635849 93.021669 124.635849 
C 92.814137 124.635849 92.615076 124.718303 92.468328 124.865051 
C 92.321581 125.011798 92.239127 125.210859 92.239127 125.418392 
C 92.239127 125.625924 92.321581 125.824985 92.468328 125.971733 
C 92.615076 126.11848 92.814137 126.200934 93.021669 126.200934 
z
" clip-path="url(#p858cda51be)" style="stroke: #000000"/>
    <path d="M 88.661441 120.925351 
C 89.144418 120.925351 89.607679 120.733462 89.949196 120.391945 
C 90.290712 120.050429 90.482601 119.587168 90.482601 119.10419 
C 90.482601 118.621213 90.290712 118.157952 89.949196 117.816436 
C 89.607679 117.474919 89.144418 117.28303 88.661441 117.28303 
C 88.178464 117.28303 87.715203 117.474919 87.373686 117.816436 
C 87.03217 118.157952 86.840281 118.621213 86.840281 119.10419 
C 86.840281 119.587168 87.03217 120.050429 87.373686 120.391945 
C 87.715203 120.733462 88.178464 120.925351 88.661441 120.925351 
z
" clip-path="url(#p858cda51be)" style="stroke: #000000"/>
    <path d="M 86.368171 115.017614 
C 86.70773 115.017614 87.033428 114.882705 87.273532 114.642601 
C 87.513637 114.402496 87.648546 114.076798 87.648546 113.737239 
C 87.648546 113.39768 87.513637 113.071982 87.273532 112.831877 
C 87.033428 112.591772 86.70773 112.456864 86.368171 112.456864 
C 86.028611 112.456864 85.702914 112.591772 85.462809 112.831877 
C 85.222704 113.071982 85.087796 113.39768 85.087796 113.737239 
C 85.087796 114.076798 85.222704 114.402496 85.462809 114.642601 
C 85.702914 114.882705 86.028611 115.017614 86.368171 115.017614 
z
" clip-path="url(#p858cda51be)" style="stroke: #000000"/>
    <path d="M 84.309559 107.374599 
C 84.787661 107.374599 85.246245 107.184647 85.584314 106.846578 
C 85.922383 106.508509 86.112335 106.049925 86.112335 105.571823 
C 86.112335 105.093722 85.922383 104.635137 85.584314 104.297068 
C 85.246245 103.958999 84.787661 103.769048 84.309559 103.769048 
C 83.831457 103.769048 83.372873 103.958999 83.034804 104.297068 
C 82.696735 104.635137 82.506783 105.093722 82.506783 105.571823 
C 82.506783 106.049925 82.696735 106.508509 83.034804 106.846578 
C 83.372873 107.184647 83.831457 107.374599 84.309559 107.374599 
z
" clip-path="url(#p858cda51be)" style="stroke: #000000"/>
    <path d="M 82.536184 98.403731 
C 82.980448 98.403731 83.406576 98.227223 83.720719 97.913081 
C 84.034861 97.598939 84.211369 97.172811 84.211369 96.728547 
C 84.211369 96.284283 84.034861 95.858155 83.720719 95.544013 
C 83.406576 95.229871 82.980448 95.053363 82.536184 95.053363 
C 82.09192 95.053363 81.665792 95.229871 81.35165 95.544013 
C 81.037508 95.858155 80.861 96.284283 80.861 96.728547 
C 80.861 97.172811 81.037508 97.598939 81.35165 97.913081 
C 81.665792 98.227223 82.09192 98.403731 82.536184 98.403731 
z
" clip-path="url(#p858cda51be)" style="stroke: #000000"/>
    <path d="M 78.505777 86.279737 
C 78.852971 86.279737 79.185993 86.141795 79.431496 85.896292 
C 79.677 85.650788 79.814942 85.317767 79.814942 84.970572 
C 79.814942 84.623377 79.677 84.290356 79.431496 84.044853 
C 79.185993 83.799349 78.852971 83.661407 78.505777 83.661407 
C 78.158582 83.661407 77.825561 83.799349 77.580057 84.044853 
C 77.334553 84.290356 77.196611 84.623377 77.196611 84.970572 
C 77.196611 85.317767 77.334553 85.650788 77.580057 85.896292 
C 77.825561 86.141795 78.158582 86.279737 78.505777 86.279737 
z
" clip-path="url(#p858cda51be)" style="stroke: #000000"/>
    <path d="M 84.964843 121.786208 
C 85.36747 121.786208 85.753661 121.626243 86.038362 121.341542 
C 86.323062 121.056842 86.483028 120.670651 86.483028 120.268023 
C 86.483028 119.865396 86.323062 119.479205 86.038362 119.194504 
C 85.753661 118.909804 85.36747 118.749838 84.964843 118.749838 
C 84.562215 118.749838 84.176024 118.909804 83.891324 119.194504 
C 83.606623 119.479205 83.446658 119.865396 83.446658 120.268023 
C 83.446658 120.670651 83.606623 121.056842 83.891324 121.341542 
C 84.176024 121.626243 84.562215 121.786208 84.964843 121.786208 
z
" clip-path="url(#p858cda51be)" style="stroke: #000000"/>
    <path d="M 73.598205 92.896815 
C 74.05755 92.896815 74.498144 92.714315 74.82295 92.389509 
C 75.147756 92.064702 75.330256 91.624109 75.330256 91.164764 
C 75.330256 90.705418 75.147756 90.264825 74.82295 89.940019 
C 74.498144 89.615213 74.05755 89.432713 73.598205 89.432713 
C 73.13886 89.432713 72.698266 89.615213 72.37346 89.940019 
C 72.048654 90.264825 71.866154 90.705418 71.866154 91.164764 
C 71.866154 91.624109 72.048654 92.064702 72.37346 92.389509 
C 72.698266 92.714315 73.13886 92.896815 73.598205 92.896815 
z
" clip-path="url(#p858cda51be)" style="stroke: #000000"/>
    <path d="M 72.763004 85.4421 
C 72.970537 85.4421 73.169597 85.359646 73.316345 85.212898 
C 73.463093 85.066151 73.545546 84.86709 73.545546 84.659557 
C 73.545546 84.452025 73.463093 84.252964 73.316345 84.106216 
C 73.169597 83.959469 72.970537 83.877015 72.763004 83.877015 
C 72.555471 83.877015 72.356411 83.959469 72.209663 84.106216 
C 72.062915 84.252964 71.980462 84.452025 71.980462 84.659557 
C 71.980462 84.86709 72.062915 85.066151 72.209663 85.212898 
C 72.356411 85.359646 72.555471 85.4421 72.763004 85.4421 
z
" clip-path="url(#p858cda51be)" style="stroke: #000000"/>
    <path d="M 83.103528 136.529489 
C 83.667837 136.529489 84.20911 136.305287 84.608136 135.90626 
C 85.007163 135.507233 85.231366 134.965961 85.231366 134.401652 
C 85.231366 133.837343 85.007163 133.29607 84.608136 132.897043 
C 84.20911 132.498017 83.667837 132.273814 83.103528 132.273814 
C 82.539219 132.273814 81.997946 132.498017 81.59892 132.897043 
C 81.199893 133.29607 80.97569 133.837343 80.97569 134.401652 
C 80.97569 134.965961 81.199893 135.507233 81.59892 135.90626 
C 81.997946 136.305287 82.539219 136.529489 83.103528 136.529489 
z
" clip-path="url(#p858cda51be)" style="stroke: #000000"/>
    <path d="M 84.351494 132.679417 
C 84.914075 132.679417 85.453689 132.455901 85.851494 132.058096 
C 86.249299 131.660292 86.472814 131.120677 86.472814 130.558096 
C 86.472814 129.995516 86.249299 129.455901 85.851494 129.058096 
C 85.453689 128.660292 84.914075 128.436776 84.351494 128.436776 
C 83.788913 128.436776 83.249299 128.660292 82.851494 129.058096 
C 82.453689 129.455901 82.230174 129.995516 82.230174 130.558096 
C 82.230174 131.120677 82.453689 131.660292 82.851494 132.058096 
C 83.249299 132.455901 83.788913 132.679417 84.351494 132.679417 
z
" clip-path="url(#p858cda51be)" style="stroke: #000000"/>
    <path d="M 73.123293 100.803657 
C 73.388496 100.803657 73.642873 100.698291 73.830399 100.510764 
C 74.017926 100.323237 74.123293 100.068861 74.123293 99.803657 
C 74.123293 99.538454 74.017926 99.284078 73.830399 99.096551 
C 73.642873 98.909024 73.388496 98.803657 73.123293 98.803657 
C 72.85809 98.803657 72.603713 98.909024 72.416186 99.096551 
C 72.228659 99.284078 72.123293 99.538454 72.123293 99.803657 
C 72.123293 100.068861 72.228659 100.323237 72.416186 100.510764 
C 72.603713 100.698291 72.85809 100.803657 73.123293 100.803657 
z
" clip-path="url(#p858cda51be)" style="stroke: #000000"/>
    <path d="M 72.417173 96.088229 
C 72.549775 96.088229 72.676963 96.035546 72.770727 95.941782 
C 72.86449 95.848019 72.917173 95.720831 72.917173 95.588229 
C 72.917173 95.455628 72.86449 95.328439 72.770727 95.234676 
C 72.676963 95.140912 72.549775 95.088229 72.417173 95.088229 
C 72.284572 95.088229 72.157383 95.140912 72.06362 95.234676 
C 71.969856 95.328439 71.917173 95.455628 71.917173 95.588229 
C 71.917173 95.720831 71.969856 95.848019 72.06362 95.941782 
C 72.157383 96.035546 72.284572 96.088229 72.417173 96.088229 
z
" clip-path="url(#p858cda51be)" style="stroke: #000000"/>
    <path d="M 73.578082 119.715694 
C 73.981888 119.715694 74.36921 119.55526 74.654744 119.269726 
C 74.940278 118.984191 75.100712 118.59687 75.100712 118.193063 
C 75.100712 117.789257 74.940278 117.401935 74.654744 117.116401 
C 74.36921 116.830866 73.981888 116.670432 73.578082 116.670432 
C 73.174275 116.670432 72.786953 116.830866 72.501419 117.116401 
C 72.215885 117.401935 72.055451 117.789257 72.055451 118.193063 
C 72.055451 118.59687 72.215885 118.984191 72.501419 119.269726 
C 72.786953 119.55526 73.174275 119.715694 73.578082 119.715694 
z
" clip-path="url(#p858cda51be)" style="stroke: #000000"/>
    <path d="M 70.679899 115.183314 
C 70.8125 115.183314 70.939689 115.130631 71.033452 115.036867 
C 71.127216 114.943104 71.179899 114.815915 71.179899 114.683314 
C 71.179899 114.550712 71.127216 114.423524 71.033452 114.32976 
C 70.939689 114.235997 70.8125 114.183314 70.679899 114.183314 
C 70.547297 114.183314 70.420109 114.235997 70.326345 114.32976 
C 70.232582 114.423524 70.179899 114.550712 70.179899 114.683314 
C 70.179899 114.815915 70.232582 114.943104 70.326345 115.036867 
C 70.420109 115.130631 70.547297 115.183314 70.679899 115.183314 
z
" clip-path="url(#p858cda51be)" style="stroke: #000000"/>
    <path d="M 62.20189 89.498616 
C 62.35958 89.498616 62.510834 89.435965 62.622338 89.32446 
C 62.733842 89.212956 62.796493 89.061703 62.796493 88.904012 
C 62.796493 88.746322 62.733842 88.595068 62.622338 88.483564 
C 62.510834 88.37206 62.35958 88.309409 62.20189 88.309409 
C 62.044199 88.309409 61.892946 88.37206 61.781442 88.483564 
C 61.669937 88.595068 61.607286 88.746322 61.607286 88.904012 
C 61.607286 89.061703 61.669937 89.212956 61.781442 89.32446 
C 61.892946 89.435965 62.044199 89.498616 62.20189 89.498616 
z
" clip-path="url(#p858cda51be)" style="stroke: #000000"/>
    <path d="M 61.847915 84.163884 
C 62.094714 84.163884 62.331438 84.065829 62.505952 83.891316 
C 62.680465 83.716802 62.77852 83.480078 62.77852 83.233279 
C 62.77852 82.98648 62.680465 82.749755 62.505952 82.575242 
C 62.331438 82.400728 62.094714 82.302674 61.847915 82.302674 
C 61.601116 82.302674 61.364391 82.400728 61.189878 82.575242 
C 61.015364 82.749755 60.91731 82.98648 60.91731 83.233279 
C 60.91731 83.480078 61.015364 83.716802 61.189878 83.891316 
C 61.364391 84.065829 61.601116 84.163884 61.847915 84.163884 
z
" clip-path="url(#p858cda51be)" style="stroke: #000000"/>
    <path d="M 56.009245 69.145463 
C 56.141847 69.145463 56.269035 69.09278 56.362798 68.999017 
C 56.456562 68.905253 56.509245 68.778065 56.509245 68.645463 
C 56.509245 68.512862 56.456562 68.385674 56.362798 68.29191 
C 56.269035 68.198147 56.141847 68.145463 56.009245 68.145463 
C 55.876644 68.145463 55.749455 68.198147 55.655692 68.29191 
C 55.561928 68.385674 55.509245 68.512862 55.509245 68.645463 
C 55.509245 68.778065 55.561928 68.905253 55.655692 68.999017 
C 55.749455 69.09278 55.876644 69.145463 56.009245 69.145463 
z
" clip-path="url(#p858cda51be)" style="stroke: #000000"/>
    <path d="M 72.859283 130.172447 
C 73.234337 130.172447 73.59408 130.023437 73.859283 129.758234 
C 74.124486 129.493031 74.273496 129.133288 74.273496 128.758234 
C 74.273496 128.38318 74.124486 128.023437 73.859283 127.758234 
C 73.59408 127.493031 73.234337 127.34402 72.859283 127.34402 
C 72.484229 127.34402 72.124486 127.493031 71.859283 127.758234 
C 71.59408 128.023437 71.445069 128.38318 71.445069 128.758234 
C 71.445069 129.133288 71.59408 129.493031 71.859283 129.758234 
C 72.124486 130.023437 72.484229 130.172447 72.859283 130.172447 
z
" clip-path="url(#p858cda51be)" style="stroke: #000000"/>
    <path d="M 70.35661 122.283483 
C 70.934607 122.283483 71.489008 122.053842 71.897713 121.645137 
C 72.306419 121.236432 72.536059 120.68203 72.536059 120.104034 
C 72.536059 119.526037 72.306419 118.971635 71.897713 118.56293 
C 71.489008 118.154225 70.934607 117.924584 70.35661 117.924584 
C 69.778613 117.924584 69.224212 118.154225 68.815506 118.56293 
C 68.406801 118.971635 68.177161 119.526037 68.177161 120.104034 
C 68.177161 120.68203 68.406801 121.236432 68.815506 121.645137 
C 69.224212 122.053842 69.778613 122.283483 70.35661 122.283483 
z
" clip-path="url(#p858cda51be)" style="stroke: #000000"/>
    <path d="M 65.952059 113.332807 
C 66.299254 113.332807 66.632275 113.194865 66.877779 112.949362 
C 67.123282 112.703858 67.261224 112.370837 67.261224 112.023642 
C 67.261224 111.676447 67.123282 111.343426 66.877779 111.097922 
C 66.632275 110.852419 66.299254 110.714477 65.952059 110.714477 
C 65.604864 110.714477 65.271843 110.852419 65.02634 111.097922 
C 64.780836 111.343426 64.642894 111.676447 64.642894 112.023642 
C 64.642894 112.370837 64.780836 112.703858 65.02634 112.949362 
C 65.271843 113.194865 65.604864 113.332807 65.952059 113.332807 
z
" clip-path="url(#p858cda51be)" style="stroke: #000000"/>
    <path d="M 64.939799 109.745249 
C 65.514159 109.745249 66.065072 109.517053 66.471206 109.110919 
C 66.87734 108.704785 67.105535 108.153872 67.105535 107.579512 
C 67.105535 107.005152 66.87734 106.454239 66.471206 106.048105 
C 66.065072 105.641971 65.514159 105.413775 64.939799 105.413775 
C 64.365438 105.413775 63.814525 105.641971 63.408391 106.048105 
C 63.002257 106.454239 62.774062 107.005152 62.774062 107.579512 
C 62.774062 108.153872 63.002257 108.704785 63.408391 109.110919 
C 63.814525 109.517053 64.365438 109.745249 64.939799 109.745249 
z
" clip-path="url(#p858cda51be)" style="stroke: #000000"/>
    <path d="M 61.281389 94.940225 
C 61.439079 94.940225 61.590333 94.877574 61.701837 94.76607 
C 61.813341 94.654566 61.875992 94.503312 61.875992 94.345622 
C 61.875992 94.187931 61.813341 94.036678 61.701837 93.925173 
C 61.590333 93.813669 61.439079 93.751018 61.281389 93.751018 
C 61.123698 93.751018 60.972445 93.813669 60.86094 93.925173 
C 60.749436 94.036678 60.686785 94.187931 60.686785 94.345622 
C 60.686785 94.503312 60.749436 94.654566 60.86094 94.76607 
C 60.972445 94.877574 61.123698 94.940225 61.281389 94.940225 
z
" clip-path="url(#p858cda51be)" style="stroke: #000000"/>
    <path d="M 61.407374 91.713085 
C 61.637047 91.713085 61.857344 91.621836 62.019747 91.459432 
C 62.18215 91.297029 62.2734 91.076733 62.2734 90.84706 
C 62.2734 90.617387 62.18215 90.397091 62.019747 90.234688 
C 61.857344 90.072285 61.637047 89.981035 61.407374 89.981035 
C 61.177702 89.981035 60.957405 90.072285 60.795002 90.234688 
C 60.632599 90.397091 60.541349 90.617387 60.541349 90.84706 
C 60.541349 91.076733 60.632599 91.297029 60.795002 91.459432 
C 60.957405 91.621836 61.177702 91.713085 61.407374 91.713085 
z
" clip-path="url(#p858cda51be)" style="stroke: #000000"/>
    <path d="M 68.92457 135.407339 
C 69.268011 135.407339 69.597432 135.270888 69.840281 135.028039 
C 70.08313 134.78519 70.21958 134.455769 70.21958 134.112329 
C 70.21958 133.768888 70.08313 133.439467 69.840281 133.196618 
C 69.597432 132.953769 69.268011 132.817318 68.92457 132.817318 
C 68.58113 132.817318 68.251709 132.953769 68.00886 133.196618 
C 67.766011 133.439467 67.62956 133.768888 67.62956 134.112329 
C 67.62956 134.455769 67.766011 134.78519 68.00886 135.028039 
C 68.251709 135.270888 68.58113 135.407339 68.92457 135.407339 
z
" clip-path="url(#p858cda51be)" style="stroke: #000000"/>
    <path d="M 67.176911 131.725465 
C 67.665286 131.725465 68.133724 131.531431 68.479057 131.186098 
C 68.82439 130.840765 69.018423 130.372328 69.018423 129.883953 
C 69.018423 129.395578 68.82439 128.927141 68.479057 128.581808 
C 68.133724 128.236475 67.665286 128.042441 67.176911 128.042441 
C 66.688537 128.042441 66.220099 128.236475 65.874766 128.581808 
C 65.529433 128.927141 65.3354 129.395578 65.3354 129.883953 
C 65.3354 130.372328 65.529433 130.840765 65.874766 131.186098 
C 66.220099 131.531431 66.688537 131.725465 67.176911 131.725465 
z
" clip-path="url(#p858cda51be)" style="stroke: #000000"/>
    <path d="M 65.178727 122.396252 
C 65.311328 122.396252 65.438517 122.343569 65.53228 122.249806 
C 65.626044 122.156042 65.678727 122.028854 65.678727 121.896252 
C 65.678727 121.763651 65.626044 121.636462 65.53228 121.542699 
C 65.438517 121.448935 65.311328 121.396252 65.178727 121.396252 
C 65.046125 121.396252 64.918937 121.448935 64.825173 121.542699 
C 64.73141 121.636462 64.678727 121.763651 64.678727 121.896252 
C 64.678727 122.028854 64.73141 122.156042 64.825173 122.249806 
C 64.918937 122.343569 65.046125 122.396252 65.178727 122.396252 
z
" clip-path="url(#p858cda51be)" style="stroke: #000000"/>
    <path d="M 58.524185 107.218372 
C 58.911781 107.218372 59.283554 107.064378 59.557626 106.790307 
C 59.831698 106.516235 59.985691 106.144462 59.985691 105.756865 
C 59.985691 105.369269 59.831698 104.997496 59.557626 104.723424 
C 59.283554 104.449353 58.911781 104.295359 58.524185 104.295359 
C 58.136589 104.295359 57.764816 104.449353 57.490744 104.723424 
C 57.216672 104.997496 57.062679 105.369269 57.062679 105.756865 
C 57.062679 106.144462 57.216672 106.516235 57.490744 106.790307 
C 57.764816 107.064378 58.136589 107.218372 58.524185 107.218372 
z
" clip-path="url(#p858cda51be)" style="stroke: #000000"/>
    <path d="M 57.78089 100.901349 
C 58.064749 100.901349 58.337021 100.78857 58.53774 100.587851 
C 58.738459 100.387132 58.851237 100.114861 58.851237 99.831001 
C 58.851237 99.547142 58.738459 99.27487 58.53774 99.074151 
C 58.337021 98.873432 58.064749 98.760654 57.78089 98.760654 
C 57.49703 98.760654 57.224759 98.873432 57.02404 99.074151 
C 56.823321 99.27487 56.710542 99.547142 56.710542 99.831001 
C 56.710542 100.114861 56.823321 100.387132 57.02404 100.587851 
C 57.224759 100.78857 57.49703 100.901349 57.78089 100.901349 
z
" clip-path="url(#p858cda51be)" style="stroke: #000000"/>
    <path d="M 46.364008 73.819753 
C 46.49661 73.819753 46.623798 73.76707 46.717562 73.673306 
C 46.811325 73.579543 46.864008 73.452354 46.864008 73.319753 
C 46.864008 73.187151 46.811325 73.059963 46.717562 72.966199 
C 46.623798 72.872436 46.49661 72.819753 46.364008 72.819753 
C 46.231407 72.819753 46.104218 72.872436 46.010455 72.966199 
C 45.916691 73.059963 45.864008 73.187151 45.864008 73.319753 
C 45.864008 73.452354 45.916691 73.579543 46.010455 73.673306 
C 46.104218 73.76707 46.231407 73.819753 46.364008 73.819753 
z
" clip-path="url(#p858cda51be)" style="stroke: #000000"/>
    <path d="M 65.642821 139.814247 
C 65.800511 139.814247 65.951765 139.751596 66.063269 139.640092 
C 66.174773 139.528588 66.237424 139.377334 66.237424 139.219644 
C 66.237424 139.061953 66.174773 138.9107 66.063269 138.799195 
C 65.951765 138.687691 65.800511 138.62504 65.642821 138.62504 
C 65.48513 138.62504 65.333877 138.687691 65.222373 138.799195 
C 65.110868 138.9107 65.048217 139.061953 65.048217 139.219644 
C 65.048217 139.377334 65.110868 139.528588 65.222373 139.640092 
C 65.333877 139.751596 65.48513 139.814247 65.642821 139.814247 
z
" clip-path="url(#p858cda51be)" style="stroke: #000000"/>
    <path d="M 59.618018 119.711829 
C 59.825551 119.711829 60.024611 119.629375 60.171359 119.482628 
C 60.318107 119.33588 60.40056 119.136819 60.40056 118.929287 
C 60.40056 118.721754 60.318107 118.522693 60.171359 118.375946 
C 60.024611 118.229198 59.825551 118.146744 59.618018 118.146744 
C 59.410485 118.146744 59.211425 118.229198 59.064677 118.375946 
C 58.917929 118.522693 58.835476 118.721754 58.835476 118.929287 
C 58.835476 119.136819 58.917929 119.33588 59.064677 119.482628 
C 59.211425 119.629375 59.410485 119.711829 59.618018 119.711829 
z
" clip-path="url(#p858cda51be)" style="stroke: #000000"/>
    <path d="M 56.545023 124.533483 
C 56.86284 124.533483 57.167683 124.407213 57.392414 124.182482 
C 57.617144 123.957752 57.743414 123.652909 57.743414 123.335092 
C 57.743414 123.017275 57.617144 122.712432 57.392414 122.487702 
C 57.167683 122.262971 56.86284 122.136701 56.545023 122.136701 
C 56.227206 122.136701 55.922364 122.262971 55.697633 122.487702 
C 55.472903 122.712432 55.346633 123.017275 55.346633 123.335092 
C 55.346633 123.652909 55.472903 123.957752 55.697633 124.182482 
C 55.922364 124.407213 56.227206 124.533483 56.545023 124.533483 
z
" clip-path="url(#p858cda51be)" style="stroke: #000000"/>
    <path d="M 53.226369 120.459081 
C 53.601422 120.459081 53.961165 120.310071 54.226369 120.044868 
C 54.491572 119.779664 54.640582 119.419921 54.640582 119.044868 
C 54.640582 118.669814 54.491572 118.310071 54.226369 118.044868 
C 53.961165 117.779664 53.601422 117.630654 53.226369 117.630654 
C 52.851315 117.630654 52.491572 117.779664 52.226369 118.044868 
C 51.961165 118.310071 51.812155 118.669814 51.812155 119.044868 
C 51.812155 119.419921 51.961165 119.779664 52.226369 120.044868 
C 52.491572 120.310071 52.851315 120.459081 53.226369 120.459081 
z
" clip-path="url(#p858cda51be)" style="stroke: #000000"/>
    <path d="M 53.833285 116.931201 
C 54.240568 116.931201 54.631225 116.769386 54.919217 116.481393 
C 55.20721 116.193401 55.369025 115.802744 55.369025 115.395462 
C 55.369025 114.988179 55.20721 114.597522 54.919217 114.30953 
C 54.631225 114.021537 54.240568 113.859722 53.833285 113.859722 
C 53.426003 113.859722 53.035346 114.021537 52.747354 114.30953 
C 52.459361 114.597522 52.297546 114.988179 52.297546 115.395462 
C 52.297546 115.802744 52.459361 116.193401 52.747354 116.481393 
C 53.035346 116.769386 53.426003 116.931201 53.833285 116.931201 
z
" clip-path="url(#p858cda51be)" style="stroke: #000000"/>
    <path d="M 53.242891 115.108536 
C 53.659033 115.108536 54.058187 114.943201 54.352444 114.648944 
C 54.646701 114.354688 54.812035 113.955534 54.812035 113.539392 
C 54.812035 113.12325 54.646701 112.724096 54.352444 112.429839 
C 54.058187 112.135582 53.659033 111.970247 53.242891 111.970247 
C 52.826749 111.970247 52.427595 112.135582 52.133338 112.429839 
C 51.839081 112.724096 51.673746 113.12325 51.673746 113.539392 
C 51.673746 113.955534 51.839081 114.354688 52.133338 114.648944 
C 52.427595 114.943201 52.826749 115.108536 53.242891 115.108536 
z
" clip-path="url(#p858cda51be)" style="stroke: #000000"/>
    <path d="M 49.186702 110.061363 
C 49.374229 110.061363 49.554101 109.986858 49.686702 109.854256 
C 49.819304 109.721654 49.893809 109.541783 49.893809 109.354256 
C 49.893809 109.166729 49.819304 108.986858 49.686702 108.854256 
C 49.554101 108.721654 49.374229 108.647149 49.186702 108.647149 
C 48.999175 108.647149 48.819304 108.721654 48.686702 108.854256 
C 48.554101 108.986858 48.479596 109.166729 48.479596 109.354256 
C 48.479596 109.541783 48.554101 109.721654 48.686702 109.854256 
C 48.819304 109.986858 48.999175 110.061363 49.186702 110.061363 
z
" clip-path="url(#p858cda51be)" style="stroke: #000000"/>
    <path d="M 47.609311 99.274603 
C 47.783824 99.274603 47.951214 99.205268 48.074613 99.081868 
C 48.198013 98.958468 48.267348 98.791079 48.267348 98.616566 
C 48.267348 98.442052 48.198013 98.274663 48.074613 98.151263 
C 47.951214 98.027864 47.783824 97.958529 47.609311 97.958529 
C 47.434797 97.958529 47.267408 98.027864 47.144008 98.151263 
C 47.020609 98.274663 46.951274 98.442052 46.951274 98.616566 
C 46.951274 98.791079 47.020609 98.958468 47.144008 99.081868 
C 47.267408 99.205268 47.434797 99.274603 47.609311 99.274603 
z
" clip-path="url(#p858cda51be)" style="stroke: #000000"/>
    <path d="M 43.179892 85.770022 
C 43.312493 85.770022 43.439682 85.717339 43.533445 85.623575 
C 43.627208 85.529812 43.679892 85.402623 43.679892 85.270022 
C 43.679892 85.13742 43.627208 85.010232 43.533445 84.916468 
C 43.439682 84.822705 43.312493 84.770022 43.179892 84.770022 
C 43.04729 84.770022 42.920102 84.822705 42.826338 84.916468 
C 42.732575 85.010232 42.679892 85.13742 42.679892 85.270022 
C 42.679892 85.402623 42.732575 85.529812 42.826338 85.623575 
C 42.920102 85.717339 43.04729 85.770022 43.179892 85.770022 
z
" clip-path="url(#p858cda51be)" style="stroke: #000000"/>
    <path d="M 41.772334 81.367242 
C 41.904935 81.367242 42.032123 81.314559 42.125887 81.220796 
C 42.21965 81.127032 42.272334 80.999844 42.272334 80.867242 
C 42.272334 80.734641 42.21965 80.607452 42.125887 80.513689 
C 42.032123 80.419925 41.904935 80.367242 41.772334 80.367242 
C 41.639732 80.367242 41.512544 80.419925 41.41878 80.513689 
C 41.325017 80.607452 41.272334 80.734641 41.272334 80.867242 
C 41.272334 80.999844 41.325017 81.127032 41.41878 81.220796 
C 41.512544 81.314559 41.639732 81.367242 41.772334 81.367242 
z
" clip-path="url(#p858cda51be)" style="stroke: #000000"/>
    <path d="M 37.865032 77.524374 
C 37.997634 77.524374 38.124822 77.471691 38.218586 77.377928 
C 38.312349 77.284164 38.365032 77.156976 38.365032 77.024374 
C 38.365032 76.891773 38.312349 76.764584 38.218586 76.670821 
C 38.124822 76.577058 37.997634 76.524374 37.865032 76.524374 
C 37.732431 76.524374 37.605242 76.577058 37.511479 76.670821 
C 37.417716 76.764584 37.365032 76.891773 37.365032 77.024374 
C 37.365032 77.156976 37.417716 77.284164 37.511479 77.377928 
C 37.605242 77.471691 37.732431 77.524374 37.865032 77.524374 
z
" clip-path="url(#p858cda51be)" style="stroke: #000000"/>
    <path d="M 39.271587 72.964014 
C 39.404188 72.964014 39.531377 72.911331 39.62514 72.817567 
C 39.718903 72.723804 39.771587 72.596616 39.771587 72.464014 
C 39.771587 72.331412 39.718903 72.204224 39.62514 72.110461 
C 39.531377 72.016697 39.404188 71.964014 39.271587 71.964014 
C 39.138985 71.964014 39.011797 72.016697 38.918033 72.110461 
C 38.82427 72.204224 38.771587 72.331412 38.771587 72.464014 
C 38.771587 72.596616 38.82427 72.723804 38.918033 72.817567 
C 39.011797 72.911331 39.138985 72.964014 39.271587 72.964014 
z
" clip-path="url(#p858cda51be)" style="stroke: #000000"/>
    <path d="M 61.644406 151.703269 
C 61.777008 151.703269 61.904196 151.650586 61.997959 151.556822 
C 62.091723 151.463059 62.144406 151.33587 62.144406 151.203269 
C 62.144406 151.070667 62.091723 150.943479 61.997959 150.849715 
C 61.904196 150.755952 61.777008 150.703269 61.644406 150.703269 
C 61.511805 150.703269 61.384616 150.755952 61.290853 150.849715 
C 61.197089 150.943479 61.144406 151.070667 61.144406 151.203269 
C 61.144406 151.33587 61.197089 151.463059 61.290853 151.556822 
C 61.384616 151.650586 61.511805 151.703269 61.644406 151.703269 
z
" clip-path="url(#p858cda51be)" style="stroke: #000000"/>
    <path d="M 44.680374 109.510504 
C 44.878659 109.510504 45.06885 109.431724 45.209059 109.291515 
C 45.349268 109.151306 45.428048 108.961115 45.428048 108.762829 
C 45.428048 108.564544 45.349268 108.374353 45.209059 108.234144 
C 45.06885 108.093934 44.878659 108.015155 44.680374 108.015155 
C 44.482088 108.015155 44.291897 108.093934 44.151688 108.234144 
C 44.011479 108.374353 43.932699 108.564544 43.932699 108.762829 
C 43.932699 108.961115 44.011479 109.151306 44.151688 109.291515 
C 44.291897 109.431724 44.482088 109.510504 44.680374 109.510504 
z
" clip-path="url(#p858cda51be)" style="stroke: #000000"/>
    <path d="M 46.199576 126.744178 
C 46.332177 126.744178 46.459366 126.691495 46.553129 126.597731 
C 46.646893 126.503968 46.699576 126.376779 46.699576 126.244178 
C 46.699576 126.111576 46.646893 125.984388 46.553129 125.890624 
C 46.459366 125.796861 46.332177 125.744178 46.199576 125.744178 
C 46.066974 125.744178 45.939786 125.796861 45.846022 125.890624 
C 45.752259 125.984388 45.699576 126.111576 45.699576 126.244178 
C 45.699576 126.376779 45.752259 126.503968 45.846022 126.597731 
C 45.939786 126.691495 46.066974 126.744178 46.199576 126.744178 
z
" clip-path="url(#p858cda51be)" style="stroke: #000000"/>
    <path d="M 42.798666 115.147249 
C 42.956357 115.147249 43.10761 115.084597 43.219114 114.973093 
C 43.330619 114.861589 43.39327 114.710336 43.39327 114.552645 
C 43.39327 114.394954 43.330619 114.243701 43.219114 114.132197 
C 43.10761 114.020693 42.956357 113.958042 42.798666 113.958042 
C 42.640976 113.958042 42.489722 114.020693 42.378218 114.132197 
C 42.266714 114.243701 42.204063 114.394954 42.204063 114.552645 
C 42.204063 114.710336 42.266714 114.861589 42.378218 114.973093 
C 42.489722 115.084597 42.640976 115.147249 42.798666 115.147249 
z
" clip-path="url(#p858cda51be)" style="stroke: #000000"/>
    <path d="M 41.814303 110.404345 
C 41.946905 110.404345 42.074093 110.351662 42.167857 110.257899 
C 42.26162 110.164135 42.314303 110.036947 42.314303 109.904345 
C 42.314303 109.771744 42.26162 109.644555 42.167857 109.550792 
C 42.074093 109.457028 41.946905 109.404345 41.814303 109.404345 
C 41.681702 109.404345 41.554513 109.457028 41.46075 109.550792 
C 41.366986 109.644555 41.314303 109.771744 41.314303 109.904345 
C 41.314303 110.036947 41.366986 110.164135 41.46075 110.257899 
C 41.554513 110.351662 41.681702 110.404345 41.814303 110.404345 
z
" clip-path="url(#p858cda51be)" style="stroke: #000000"/>
    <path d="M 34.106379 89.645966 
C 34.23898 89.645966 34.366169 89.593283 34.459932 89.49952 
C 34.553696 89.405756 34.606379 89.278568 34.606379 89.145966 
C 34.606379 89.013365 34.553696 88.886176 34.459932 88.792413 
C 34.366169 88.69865 34.23898 88.645966 34.106379 88.645966 
C 33.973777 88.645966 33.846589 88.69865 33.752826 88.792413 
C 33.659062 88.886176 33.606379 89.013365 33.606379 89.145966 
C 33.606379 89.278568 33.659062 89.405756 33.752826 89.49952 
C 33.846589 89.593283 33.973777 89.645966 34.106379 89.645966 
z
" clip-path="url(#p858cda51be)" style="stroke: #000000"/>
    <path d="M 47.273144 142.404888 
C 47.405745 142.404888 47.532934 142.352205 47.626697 142.258441 
C 47.72046 142.164678 47.773144 142.037489 47.773144 141.904888 
C 47.773144 141.772286 47.72046 141.645098 47.626697 141.551334 
C 47.532934 141.457571 47.405745 141.404888 47.273144 141.404888 
C 47.140542 141.404888 47.013354 141.457571 46.91959 141.551334 
C 46.825827 141.645098 46.773144 141.772286 46.773144 141.904888 
C 46.773144 142.037489 46.825827 142.164678 46.91959 142.258441 
C 47.013354 142.352205 47.140542 142.404888 47.273144 142.404888 
z
" clip-path="url(#p858cda51be)" style="stroke: #000000"/>
    <path d="M 45.88183 137.708902 
C 46.014432 137.708902 46.14162 137.656219 46.235383 137.562455 
C 46.329147 137.468692 46.38183 137.341503 46.38183 137.208902 
C 46.38183 137.0763 46.329147 136.949112 46.235383 136.855348 
C 46.14162 136.761585 46.014432 136.708902 45.88183 136.708902 
C 45.749229 136.708902 45.62204 136.761585 45.528277 136.855348 
C 45.434513 136.949112 45.38183 137.0763 45.38183 137.208902 
C 45.38183 137.341503 45.434513 137.468692 45.528277 137.562455 
C 45.62204 137.656219 45.749229 137.708902 45.88183 137.708902 
z
" clip-path="url(#p858cda51be)" style="stroke: #000000"/>
    <path d="M 46.813809 175.058377 
C 46.94641 175.058377 47.073599 175.005694 47.167362 174.911931 
C 47.261125 174.818167 47.313809 174.690979 47.313809 174.558377 
C 47.313809 174.425776 47.261125 174.298588 47.167362 174.204824 
C 47.073599 174.111061 46.94641 174.058377 46.813809 174.058377 
C 46.681207 174.058377 46.554019 174.111061 46.460255 174.204824 
C 46.366492 174.298588 46.313809 174.425776 46.313809 174.558377 
C 46.313809 174.690979 46.366492 174.818167 46.460255 174.911931 
C 46.554019 175.005694 46.681207 175.058377 46.813809 175.058377 
z
" clip-path="url(#p858cda51be)" style="stroke: #000000"/>
   </g>
   <g id="matplotlib.axis_1">
    <g id="xtick_1">
     <g id="line2d_1">
      <defs>
       <path id="m7abe2a37e0" d="M 0 0 
L 0 3.5 
" style="stroke: #000000; stroke-width: 0.8"/>
      </defs>
      <g>
       <use xlink:href="#m7abe2a37e0" x="18" y="189" style="stroke: #000000; stroke-width: 0.8"/>
      </g>
     </g>
     <g id="text_1">
      <!-- −10 -->
      <g transform="translate(7.447656 203.598437)scale(0.1 -0.1)">
       <defs>
        <path id="DejaVuSans-2212" d="M 678 2272 
L 4684 2272 
L 4684 1741 
L 678 1741 
L 678 2272 
z
" transform="scale(0.015625)"/>
        <path id="DejaVuSans-31" d="M 794 531 
L 1825 531 
L 1825 4091 
L 703 3866 
L 703 4441 
L 1819 4666 
L 2450 4666 
L 2450 531 
L 3481 531 
L 3481 0 
L 794 0 
L 794 531 
z
" transform="scale(0.015625)"/>
        <path id="DejaVuSans-30" d="M 2034 4250 
Q 1547 4250 1301 3770 
Q 1056 3291 1056 2328 
Q 1056 1369 1301 889 
Q 1547 409 2034 409 
Q 2525 409 2770 889 
Q 3016 1369 3016 2328 
Q 3016 3291 2770 3770 
Q 2525 4250 2034 4250 
z
M 2034 4750 
Q 2819 4750 3233 4129 
Q 3647 3509 3647 2328 
Q 3647 1150 3233 529 
Q 2819 -91 2034 -91 
Q 1250 -91 836 529 
Q 422 1150 422 2328 
Q 422 3509 836 4129 
Q 1250 4750 2034 4750 
z
" transform="scale(0.015625)"/>
       </defs>
       <use xlink:href="#DejaVuSans-2212"/>
       <use xlink:href="#DejaVuSans-31" x="83.789062"/>
       <use xlink:href="#DejaVuSans-30" x="147.412109"/>
      </g>
     </g>
    </g>
    <g id="xtick_2">
     <g id="line2d_2">
      <g>
       <use xlink:href="#m7abe2a37e0" x="73.8" y="189" style="stroke: #000000; stroke-width: 0.8"/>
      </g>
     </g>
     <g id="text_2">
      <!-- 0 -->
      <g transform="translate(70.61875 203.598437)scale(0.1 -0.1)">
       <use xlink:href="#DejaVuSans-30"/>
      </g>
     </g>
    </g>
    <g id="xtick_3">
     <g id="line2d_3">
      <g>
       <use xlink:href="#m7abe2a37e0" x="129.6" y="189" style="stroke: #000000; stroke-width: 0.8"/>
      </g>
     </g>
     <g id="text_3">
      <!-- 10 -->
      <g transform="translate(123.2375 203.598437)scale(0.1 -0.1)">
       <use xlink:href="#DejaVuSans-31"/>
       <use xlink:href="#DejaVuSans-30" x="63.623047"/>
      </g>
     </g>
    </g>
   </g>
   <g id="matplotlib.axis_2">
    <g id="ytick_1">
     <g id="line2d_4">
      <defs>
       <path id="m6be18bab9e" d="M 0 0 
L -3.5 0 
" style="stroke: #000000; stroke-width: 0.8"/>
      </defs>
      <g>
       <use xlink:href="#m6be18bab9e" x="18" y="189" style="stroke: #000000; stroke-width: 0.8"/>
      </g>
     </g>
     <g id="text_4">
      <!-- −15 -->
      <g transform="translate(-10.104688 192.799219)scale(0.1 -0.1)">
       <defs>
        <path id="DejaVuSans-35" d="M 691 4666 
L 3169 4666 
L 3169 4134 
L 1269 4134 
L 1269 2991 
Q 1406 3038 1543 3061 
Q 1681 3084 1819 3084 
Q 2600 3084 3056 2656 
Q 3513 2228 3513 1497 
Q 3513 744 3044 326 
Q 2575 -91 1722 -91 
Q 1428 -91 1123 -41 
Q 819 9 494 109 
L 494 744 
Q 775 591 1075 516 
Q 1375 441 1709 441 
Q 2250 441 2565 725 
Q 2881 1009 2881 1497 
Q 2881 1984 2565 2268 
Q 2250 2553 1709 2553 
Q 1456 2553 1204 2497 
Q 953 2441 691 2322 
L 691 4666 
z
" transform="scale(0.015625)"/>
       </defs>
       <use xlink:href="#DejaVuSans-2212"/>
       <use xlink:href="#DejaVuSans-31" x="83.789062"/>
       <use xlink:href="#DejaVuSans-35" x="147.412109"/>
      </g>
     </g>
    </g>
    <g id="ytick_2">
     <g id="line2d_5">
      <g>
       <use xlink:href="#m6be18bab9e" x="18" y="161.82" style="stroke: #000000; stroke-width: 0.8"/>
      </g>
     </g>
     <g id="text_5">
      <!-- −10 -->
      <g transform="translate(-10.104688 165.619219)scale(0.1 -0.1)">
       <use xlink:href="#DejaVuSans-2212"/>
       <use xlink:href="#DejaVuSans-31" x="83.789062"/>
       <use xlink:href="#DejaVuSans-30" x="147.412109"/>
      </g>
     </g>
    </g>
    <g id="ytick_3">
     <g id="line2d_6">
      <g>
       <use xlink:href="#m6be18bab9e" x="18" y="134.64" style="stroke: #000000; stroke-width: 0.8"/>
      </g>
     </g>
     <g id="text_6">
      <!-- −5 -->
      <g transform="translate(-3.742188 138.439219)scale(0.1 -0.1)">
       <use xlink:href="#DejaVuSans-2212"/>
       <use xlink:href="#DejaVuSans-35" x="83.789062"/>
      </g>
     </g>
    </g>
    <g id="ytick_4">
     <g id="line2d_7">
      <g>
       <use xlink:href="#m6be18bab9e" x="18" y="107.46" style="stroke: #000000; stroke-width: 0.8"/>
      </g>
     </g>
     <g id="text_7">
      <!-- 0 -->
      <g transform="translate(4.6375 111.259219)scale(0.1 -0.1)">
       <use xlink:href="#DejaVuSans-30"/>
      </g>
     </g>
    </g>
    <g id="ytick_5">
     <g id="line2d_8">
      <g>
       <use xlink:href="#m6be18bab9e" x="18" y="80.28" style="stroke: #000000; stroke-width: 0.8"/>
      </g>
     </g>
     <g id="text_8">
      <!-- 5 -->
      <g transform="translate(4.6375 84.079219)scale(0.1 -0.1)">
       <use xlink:href="#DejaVuSans-35"/>
      </g>
     </g>
    </g>
    <g id="ytick_6">
     <g id="line2d_9">
      <g>
       <use xlink:href="#m6be18bab9e" x="18" y="53.1" style="stroke: #000000; stroke-width: 0.8"/>
      </g>
     </g>
     <g id="text_9">
      <!-- 10 -->
      <g transform="translate(-1.725 56.899219)scale(0.1 -0.1)">
       <use xlink:href="#DejaVuSans-31"/>
       <use xlink:href="#DejaVuSans-30" x="63.623047"/>
      </g>
     </g>
    </g>
    <g id="ytick_7">
     <g id="line2d_10">
      <g>
       <use xlink:href="#m6be18bab9e" x="18" y="25.92" style="stroke: #000000; stroke-width: 0.8"/>
      </g>
     </g>
     <g id="text_10">
      <!-- 15 -->
      <g transform="translate(-1.725 29.719219)scale(0.1 -0.1)">
       <use xlink:href="#DejaVuSans-31"/>
       <use xlink:href="#DejaVuSans-35" x="63.623047"/>
      </g>
     </g>
    </g>
   </g>
   <g id="patch_3">
    <path d="M 18 189 
L 18 25.92 
" style="fill: none; stroke: #000000; stroke-width: 0.8; stroke-linejoin: miter; stroke-linecap: square"/>
   </g>
   <g id="patch_4">
    <path d="M 129.6 189 
L 129.6 25.92 
" style="fill: none; stroke: #000000; stroke-width: 0.8; stroke-linejoin: miter; stroke-linecap: square"/>
   </g>
   <g id="patch_5">
    <path d="M 18 189 
L 129.6 189 
" style="fill: none; stroke: #000000; stroke-width: 0.8; stroke-linejoin: miter; stroke-linecap: square"/>
   </g>
   <g id="patch_6">
    <path d="M 18 25.92 
L 129.6 25.92 
" style="fill: none; stroke: #000000; stroke-width: 0.8; stroke-linejoin: miter; stroke-linecap: square"/>
   </g>
  </g>
 </g>
 <defs>
  <clipPath id="p858cda51be">
   <rect x="18" y="25.92" width="111.6" height="163.08"/>
  </clipPath>
 </defs>
</svg>
