<?xml version="1.0" encoding="utf-8" standalone="no"?>
<!DOCTYPE svg PUBLIC "-//W3C//DTD SVG 1.1//EN"
  "http://www.w3.org/Graphics/SVG/1.1/DTD/svg11.dtd">
<svg xmlns:xlink="http://www.w3.org/1999/xlink" width="144pt" height="216pt" viewBox="0 0 144 216" xmlns="http://www.w3.org/2000/svg" version="1.1">
 <metadata>
  <rdf:RDF xmlns:dc="http://purl.org/dc/elements/1.1/" xmlns:cc="http://creativecommons.org/ns#" xmlns:rdf="http://www.w3.org/1999/02/22-rdf-syntax-ns#">
   <cc:Work>
    <dc:type rdf:resource="http://purl.org/dc/dcmitype/StillImage"/>
    <dc:date>2022-06-23T14:45:50.609417</dc:date>
    <dc:format>image/svg+xml</dc:format>
    <dc:creator>
     <cc:Agent>
      <dc:title>Matplotlib v3.5.1, https://matplotlib.org/</dc:title>
     </cc:Agent>
    </dc:creator>
   </cc:Work>
  </rdf:RDF>
 </metadata>
 <defs>
  <style type="text/css">*{stroke-linejoin: round; stroke-linecap: butt}</style>
 </defs>
 <g id="figure_1">
  <g id="patch_1">
   <path d="M 0 216 
L 144 216 
L 144 0 
L 0 0 
L 0 216 
z
" style="fill: none"/>
  </g>
  <g id="axes_1">
   <g id="patch_2">
    <path d="M 18 189 
L 129.6 189 
L 129.6 25.92 
L 18 25.92 
z
" style="fill: #ffffff"/>
   </g>
   <g id="PathCollection_1">
    <defs>
     <path id="m1b93b85b76" d="M 0 2.738613 
C 0.726289 2.738613 1.422928 2.450055 1.936492 1.936492 
C 2.450055 1.422928 2.738613 0.726289 2.738613 0 
C 2.738613 -0.726289 2.450055 -1.422928 1.936492 -1.936492 
C 1.422928 -2.450055 0.726289 -2.738613 0 -2.738613 
C -0.726289 -2.738613 -1.422928 -2.450055 -1.936492 -1.936492 
C -2.450055 -1.422928 -2.738613 -0.726289 -2.738613 0 
C -2.738613 0.726289 -2.450055 1.422928 -1.936492 1.936492 
C -1.422928 2.450055 -0.726289 2.738613 0 2.738613 
z
" style="stroke: #ff0000; stroke-width: 1.75"/>
    </defs>
    <g clip-path="url(#pd3c0a061ba)">
     <use xlink:href="#m1b93b85b76" x="80.775" y="83.92143" style="fill: #ff0000; stroke: #ff0000; stroke-width: 1.75"/>
     <use xlink:href="#m1b93b85b76" x="59.85" y="95.690715" style="fill: #ff0000; stroke: #ff0000; stroke-width: 1.75"/>
     <use xlink:href="#m1b93b85b76" x="66.825" y="107.46" style="fill: #ff0000; stroke: #ff0000; stroke-width: 1.75"/>
     <use xlink:href="#m1b93b85b76" x="80.775" y="107.46" style="fill: #ff0000; stroke: #ff0000; stroke-width: 1.75"/>
     <use xlink:href="#m1b93b85b76" x="94.725" y="107.46" style="fill: #ff0000; stroke: #ff0000; stroke-width: 1.75"/>
     <use xlink:href="#m1b93b85b76" x="59.85" y="119.229285" style="fill: #ff0000; stroke: #ff0000; stroke-width: 1.75"/>
     <use xlink:href="#m1b93b85b76" x="80.775" y="130.99857" style="fill: #ff0000; stroke: #ff0000; stroke-width: 1.75"/>
    </g>
   </g>
   <g id="PathCollection_2">
    <defs>
     <path id="C0_0_d59e05c73c" d="M 0 2.738613 
C 0.726289 2.738613 1.422928 2.450055 1.936492 1.936492 
C 2.450055 1.422928 2.738613 0.726289 2.738613 -0 
C 2.738613 -0.726289 2.450055 -1.422928 1.936492 -1.936492 
C 1.422928 -2.450055 0.726289 -2.738613 0 -2.738613 
C -0.726289 -2.738613 -1.422928 -2.450055 -1.936492 -1.936492 
C -2.450055 -1.422928 -2.738613 -0.726289 -2.738613 0 
C -2.738613 0.726289 -2.450055 1.422928 -1.936492 1.936492 
C -1.422928 2.450055 -0.726289 2.738613 0 2.738613 
z
"/>
    </defs>
    <g clip-path="url(#pd3c0a061ba)">
     <use xlink:href="#C0_0_d59e05c73c" x="66.825" y="83.92143" style="fill: none; stroke: #ff0000; stroke-width: 1.75"/>
    </g>
    <g clip-path="url(#pd3c0a061ba)">
     <use xlink:href="#C0_0_d59e05c73c" x="73.8" y="95.690715" style="fill: none; stroke: #ff0000; stroke-width: 1.75"/>
    </g>
    <g clip-path="url(#pd3c0a061ba)">
     <use xlink:href="#C0_0_d59e05c73c" x="87.75" y="95.690715" style="fill: none; stroke: #ff0000; stroke-width: 1.75"/>
    </g>
    <g clip-path="url(#pd3c0a061ba)">
     <use xlink:href="#C0_0_d59e05c73c" x="52.875" y="107.46" style="fill: none; stroke: #ff0000; stroke-width: 1.75"/>
    </g>
    <g clip-path="url(#pd3c0a061ba)">
     <use xlink:href="#C0_0_d59e05c73c" x="73.8" y="119.229285" style="fill: none; stroke: #ff0000; stroke-width: 1.75"/>
    </g>
    <g clip-path="url(#pd3c0a061ba)">
     <use xlink:href="#C0_0_d59e05c73c" x="87.75" y="119.229285" style="fill: none; stroke: #ff0000; stroke-width: 1.75"/>
    </g>
    <g clip-path="url(#pd3c0a061ba)">
     <use xlink:href="#C0_0_d59e05c73c" x="66.825" y="130.99857" style="fill: none; stroke: #ff0000; stroke-width: 1.75"/>
    </g>
   </g>
   <g id="PathCollection_3">
    <path d="M 109.849647 91.716656 
C 110.348309 91.716656 110.826614 91.518536 111.179221 91.165929 
C 111.531828 90.813322 111.729949 90.335017 111.729949 89.836355 
C 111.729949 89.337693 111.531828 88.859388 111.179221 88.506781 
C 110.826614 88.154174 110.348309 87.956053 109.849647 87.956053 
C 109.350985 87.956053 108.87268 88.154174 108.520073 88.506781 
C 108.167466 88.859388 107.969345 89.337693 107.969345 89.836355 
C 107.969345 90.335017 108.167466 90.813322 108.520073 91.165929 
C 108.87268 91.518536 109.350985 91.716656 109.849647 91.716656 
z
" clip-path="url(#pd3c0a061ba)" style="stroke: #000000"/>
    <path d="M 100.135534 72.978795 
C 100.634818 72.978795 101.11372 72.780427 101.466767 72.42738 
C 101.819814 72.074333 102.018182 71.595431 102.018182 71.096147 
C 102.018182 70.596863 101.819814 70.117961 101.466767 69.764914 
C 101.11372 69.411867 100.634818 69.2135 100.135534 69.2135 
C 99.63625 69.2135 99.157348 69.411867 98.804301 69.764914 
C 98.451254 70.117961 98.252887 70.596863 98.252887 71.096147 
C 98.252887 71.595431 98.451254 72.074333 98.804301 72.42738 
C 99.157348 72.780427 99.63625 72.978795 100.135534 72.978795 
z
" clip-path="url(#pd3c0a061ba)" style="stroke: #000000"/>
    <path d="M 94.700942 61.034631 
C 95.200226 61.034631 95.679127 60.836264 96.032174 60.483216 
C 96.385221 60.130169 96.583589 59.651268 96.583589 59.151984 
C 96.583589 58.6527 96.385221 58.173798 96.032174 57.820751 
C 95.679127 57.467704 95.200226 57.269336 94.700942 57.269336 
C 94.201658 57.269336 93.722756 57.467704 93.369709 57.820751 
C 93.016662 58.173798 92.818294 58.6527 92.818294 59.151984 
C 92.818294 59.651268 93.016662 60.130169 93.369709 60.483216 
C 93.722756 60.836264 94.201658 61.034631 94.700942 61.034631 
z
" clip-path="url(#pd3c0a061ba)" style="stroke: #000000"/>
    <path d="M 90.288723 45.226786 
C 90.769629 45.226786 91.230903 45.03572 91.570955 44.695668 
C 91.911006 44.355616 92.102072 43.894342 92.102072 43.413436 
C 92.102072 42.93253 91.911006 42.471256 91.570955 42.131204 
C 91.230903 41.791152 90.769629 41.600086 90.288723 41.600086 
C 89.807817 41.600086 89.346543 41.791152 89.006491 42.131204 
C 88.666439 42.471256 88.475373 42.93253 88.475373 43.413436 
C 88.475373 43.894342 88.666439 44.355616 89.006491 44.695668 
C 89.346543 45.03572 89.807817 45.226786 90.288723 45.226786 
z
" clip-path="url(#pd3c0a061ba)" style="stroke: #000000"/>
    <path d="M 104.552852 116.269995 
C 105.145493 116.269995 105.713941 116.034536 106.133002 115.615475 
C 106.552062 115.196415 106.787521 114.627967 106.787521 114.035325 
C 106.787521 113.442684 106.552062 112.874236 106.133002 112.455176 
C 105.713941 112.036115 105.145493 111.800656 104.552852 111.800656 
C 103.960211 111.800656 103.391763 112.036115 102.972702 112.455176 
C 102.553642 112.874236 102.318183 113.442684 102.318183 114.035325 
C 102.318183 114.627967 102.553642 115.196415 102.972702 115.615475 
C 103.391763 116.034536 103.960211 116.269995 104.552852 116.269995 
z
" clip-path="url(#pd3c0a061ba)" style="stroke: #000000"/>
    <path d="M 95.980206 85.738838 
C 96.551275 85.738838 97.099031 85.51195 97.502837 85.108144 
C 97.906644 84.704338 98.133532 84.156582 98.133532 83.585513 
C 98.133532 83.014445 97.906644 82.466689 97.502837 82.062882 
C 97.099031 81.659076 96.551275 81.432188 95.980206 81.432188 
C 95.409138 81.432188 94.861382 81.659076 94.457576 82.062882 
C 94.053769 82.466689 93.826881 83.014445 93.826881 83.585513 
C 93.826881 84.156582 94.053769 84.704338 94.457576 85.108144 
C 94.861382 85.51195 95.409138 85.738838 95.980206 85.738838 
z
" clip-path="url(#pd3c0a061ba)" style="stroke: #000000"/>
    <path d="M 78.786689 51.87671 
C 79.255319 51.87671 79.704818 51.690522 80.036189 51.359151 
C 80.36756 51.027779 80.553749 50.57828 80.553749 50.109651 
C 80.553749 49.641021 80.36756 49.191522 80.036189 48.860151 
C 79.704818 48.52878 79.255319 48.342591 78.786689 48.342591 
C 78.31806 48.342591 77.868561 48.52878 77.53719 48.860151 
C 77.205818 49.191522 77.01963 49.641021 77.01963 50.109651 
C 77.01963 50.57828 77.205818 51.027779 77.53719 51.359151 
C 77.868561 51.690522 78.31806 51.87671 78.786689 51.87671 
z
" clip-path="url(#pd3c0a061ba)" style="stroke: #000000"/>
    <path d="M 75.381983 35.538806 
C 75.642941 35.538806 75.893247 35.435126 76.077772 35.250601 
C 76.262298 35.066075 76.365978 34.81577 76.365978 34.554812 
C 76.365978 34.293853 76.262298 34.043548 76.077772 33.859022 
C 75.893247 33.674497 75.642941 33.570817 75.381983 33.570817 
C 75.121024 33.570817 74.870719 33.674497 74.686193 33.859022 
C 74.501668 34.043548 74.397988 34.293853 74.397988 34.554812 
C 74.397988 34.81577 74.501668 35.066075 74.686193 35.250601 
C 74.870719 35.435126 75.121024 35.538806 75.381983 35.538806 
z
" clip-path="url(#pd3c0a061ba)" style="stroke: #000000"/>
    <path d="M 114.467865 169.745488 
C 114.785682 169.745488 115.090525 169.619218 115.315255 169.394488 
C 115.539986 169.169757 115.666256 168.864914 115.666256 168.547097 
C 115.666256 168.22928 115.539986 167.924438 115.315255 167.699707 
C 115.090525 167.474976 114.785682 167.348706 114.467865 167.348706 
C 114.150048 167.348706 113.845205 167.474976 113.620474 167.699707 
C 113.395744 167.924438 113.269474 168.22928 113.269474 168.547097 
C 113.269474 168.864914 113.395744 169.169757 113.620474 169.394488 
C 113.845205 169.619218 114.150048 169.745488 114.467865 169.745488 
z
" clip-path="url(#pd3c0a061ba)" style="stroke: #000000"/>
    <path d="M 102.022431 148.799496 
C 102.521715 148.799496 103.000617 148.601128 103.353664 148.248081 
C 103.706711 147.895034 103.905079 147.416132 103.905079 146.916848 
C 103.905079 146.417564 103.706711 145.938663 103.353664 145.585616 
C 103.000617 145.232569 102.521715 145.034201 102.022431 145.034201 
C 101.523147 145.034201 101.044246 145.232569 100.691199 145.585616 
C 100.338151 145.938663 100.139784 146.417564 100.139784 146.916848 
C 100.139784 147.416132 100.338151 147.895034 100.691199 148.248081 
C 101.044246 148.601128 101.523147 148.799496 102.022431 148.799496 
z
" clip-path="url(#pd3c0a061ba)" style="stroke: #000000"/>
    <path d="M 98.350769 137.126774 
C 98.850053 137.126774 99.328955 136.928406 99.682002 136.575359 
C 100.035049 136.222312 100.233417 135.743411 100.233417 135.244127 
C 100.233417 134.744843 100.035049 134.265941 99.682002 133.912894 
C 99.328955 133.559847 98.850053 133.361479 98.350769 133.361479 
C 97.851486 133.361479 97.372584 133.559847 97.019537 133.912894 
C 96.66649 134.265941 96.468122 134.744843 96.468122 135.244127 
C 96.468122 135.743411 96.66649 136.222312 97.019537 136.575359 
C 97.372584 136.928406 97.851486 137.126774 98.350769 137.126774 
z
" clip-path="url(#pd3c0a061ba)" style="stroke: #000000"/>
    <path d="M 94.214171 116.918468 
C 94.346772 116.918468 94.473961 116.865785 94.567724 116.772022 
C 94.661488 116.678258 94.714171 116.55107 94.714171 116.418468 
C 94.714171 116.285867 94.661488 116.158678 94.567724 116.064915 
C 94.473961 115.971151 94.346772 115.918468 94.214171 115.918468 
C 94.081569 115.918468 93.954381 115.971151 93.860617 116.064915 
C 93.766854 116.158678 93.714171 116.285867 93.714171 116.418468 
C 93.714171 116.55107 93.766854 116.678258 93.860617 116.772022 
C 93.954381 116.865785 94.081569 116.918468 94.214171 116.918468 
z
" clip-path="url(#pd3c0a061ba)" style="stroke: #000000"/>
    <path d="M 81.207001 85.879302 
C 81.381514 85.879302 81.548904 85.809967 81.672303 85.686567 
C 81.795703 85.563168 81.865038 85.395778 81.865038 85.221265 
C 81.865038 85.046752 81.795703 84.879362 81.672303 84.755963 
C 81.548904 84.632563 81.381514 84.563228 81.207001 84.563228 
C 81.032487 84.563228 80.865098 84.632563 80.741698 84.755963 
C 80.618299 84.879362 80.548964 85.046752 80.548964 85.221265 
C 80.548964 85.395778 80.618299 85.563168 80.741698 85.686567 
C 80.865098 85.809967 81.032487 85.879302 81.207001 85.879302 
z
" clip-path="url(#pd3c0a061ba)" style="stroke: #000000"/>
    <path d="M 77.311818 64.183584 
C 77.811102 64.183584 78.290004 63.985217 78.643051 63.63217 
C 78.996098 63.279123 79.194466 62.800221 79.194466 62.300937 
C 79.194466 61.801653 78.996098 61.322751 78.643051 60.969704 
C 78.290004 60.616657 77.811102 60.418289 77.311818 60.418289 
C 76.812534 60.418289 76.333632 60.616657 75.980585 60.969704 
C 75.627538 61.322751 75.429171 61.801653 75.429171 62.300937 
C 75.429171 62.800221 75.627538 63.279123 75.980585 63.63217 
C 76.333632 63.985217 76.812534 64.183584 77.311818 64.183584 
z
" clip-path="url(#pd3c0a061ba)" style="stroke: #000000"/>
    <path d="M 61.452651 32.096385 
C 61.799845 32.096385 62.132867 31.958443 62.37837 31.712939 
C 62.623874 31.467436 62.761816 31.134414 62.761816 30.78722 
C 62.761816 30.440025 62.623874 30.107004 62.37837 29.8615 
C 62.132867 29.615996 61.799845 29.478054 61.452651 29.478054 
C 61.105456 29.478054 60.772435 29.615996 60.526931 29.8615 
C 60.281427 30.107004 60.143486 30.440025 60.143486 30.78722 
C 60.143486 31.134414 60.281427 31.467436 60.526931 31.712939 
C 60.772435 31.958443 61.105456 32.096385 61.452651 32.096385 
z
" clip-path="url(#pd3c0a061ba)" style="stroke: #000000"/>
    <path d="M 102.321707 174.083285 
C 102.670733 174.083285 103.005512 173.944615 103.252311 173.697815 
C 103.499111 173.451016 103.637781 173.116237 103.637781 172.76721 
C 103.637781 172.418184 103.499111 172.083405 103.252311 171.836606 
C 103.005512 171.589806 102.670733 171.451136 102.321707 171.451136 
C 101.97268 171.451136 101.637901 171.589806 101.391102 171.836606 
C 101.144302 172.083405 101.005633 172.418184 101.005633 172.76721 
C 101.005633 173.116237 101.144302 173.451016 101.391102 173.697815 
C 101.637901 173.944615 101.97268 174.083285 102.321707 174.083285 
z
" clip-path="url(#pd3c0a061ba)" style="stroke: #000000"/>
    <path d="M 94.928142 151.482067 
C 95.426804 151.482067 95.905109 151.283947 96.257716 150.93134 
C 96.610323 150.578733 96.808444 150.100428 96.808444 149.601766 
C 96.808444 149.103104 96.610323 148.624799 96.257716 148.272192 
C 95.905109 147.919585 95.426804 147.721464 94.928142 147.721464 
C 94.42948 147.721464 93.951175 147.919585 93.598568 148.272192 
C 93.245961 148.624799 93.047841 149.103104 93.047841 149.601766 
C 93.047841 150.100428 93.245961 150.578733 93.598568 150.93134 
C 93.951175 151.283947 94.42948 151.482067 94.928142 151.482067 
z
" clip-path="url(#pd3c0a061ba)" style="stroke: #000000"/>
    <path d="M 91.02337 142.715023 
C 91.246378 142.715023 91.460282 142.626421 91.617973 142.46873 
C 91.775664 142.31104 91.864266 142.097135 91.864266 141.874127 
C 91.864266 141.651118 91.775664 141.437214 91.617973 141.279523 
C 91.460282 141.121832 91.246378 141.03323 91.02337 141.03323 
C 90.800361 141.03323 90.586457 141.121832 90.428766 141.279523 
C 90.271075 141.437214 90.182473 141.651118 90.182473 141.874127 
C 90.182473 142.097135 90.271075 142.31104 90.428766 142.46873 
C 90.586457 142.626421 90.800361 142.715023 91.02337 142.715023 
z
" clip-path="url(#pd3c0a061ba)" style="stroke: #000000"/>
    <path d="M 82.496118 134.343551 
C 82.670631 134.343551 82.838021 134.274216 82.96142 134.150816 
C 83.08482 134.027417 83.154155 133.860027 83.154155 133.685514 
C 83.154155 133.511001 83.08482 133.343611 82.96142 133.220212 
C 82.838021 133.096812 82.670631 133.027477 82.496118 133.027477 
C 82.321604 133.027477 82.154215 133.096812 82.030815 133.220212 
C 81.907416 133.343611 81.838081 133.511001 81.838081 133.685514 
C 81.838081 133.860027 81.907416 134.027417 82.030815 134.150816 
C 82.154215 134.274216 82.321604 134.343551 82.496118 134.343551 
z
" clip-path="url(#pd3c0a061ba)" style="stroke: #000000"/>
    <path d="M 86.103442 122.131411 
C 86.696824 122.131411 87.265983 121.895657 87.685568 121.476073 
C 88.105152 121.056488 88.340906 120.487329 88.340906 119.893946 
C 88.340906 119.300564 88.105152 118.731405 87.685568 118.31182 
C 87.265983 117.892236 86.696824 117.656482 86.103442 117.656482 
C 85.510059 117.656482 84.9409 117.892236 84.521315 118.31182 
C 84.101731 118.731405 83.865977 119.300564 83.865977 119.893946 
C 83.865977 120.487329 84.101731 121.056488 84.521315 121.476073 
C 84.9409 121.895657 85.510059 122.131411 86.103442 122.131411 
z
" clip-path="url(#pd3c0a061ba)" style="stroke: #000000"/>
    <path d="M 77.13128 109.60893 
C 77.724292 109.60893 78.293096 109.373324 78.712419 108.954001 
C 79.131742 108.534678 79.367348 107.965874 79.367348 107.372862 
C 79.367348 106.77985 79.131742 106.211046 78.712419 105.791723 
C 78.293096 105.3724 77.724292 105.136794 77.13128 105.136794 
C 76.538268 105.136794 75.969464 105.3724 75.550141 105.791723 
C 75.130818 106.211046 74.895212 106.77985 74.895212 107.372862 
C 74.895212 107.965874 75.130818 108.534678 75.550141 108.954001 
C 75.969464 109.373324 76.538268 109.60893 77.13128 109.60893 
z
" clip-path="url(#pd3c0a061ba)" style="stroke: #000000"/>
    <path d="M 77.96754 101.07776 
C 78.560552 101.07776 79.129356 100.842154 79.548679 100.422831 
C 79.968002 100.003508 80.203608 99.434704 80.203608 98.841692 
C 80.203608 98.24868 79.968002 97.679876 79.548679 97.260553 
C 79.129356 96.84123 78.560552 96.605624 77.96754 96.605624 
C 77.374528 96.605624 76.805724 96.84123 76.386401 97.260553 
C 75.967078 97.679876 75.731472 98.24868 75.731472 98.841692 
C 75.731472 99.434704 75.967078 100.003508 76.386401 100.422831 
C 76.805724 100.842154 77.374528 101.07776 77.96754 101.07776 
z
" clip-path="url(#pd3c0a061ba)" style="stroke: #000000"/>
    <path d="M 72.619707 94.064699 
C 73.206698 94.064699 73.769726 93.831485 74.184791 93.416419 
C 74.599857 93.001354 74.833071 92.438326 74.833071 91.851335 
C 74.833071 91.264344 74.599857 90.701315 74.184791 90.28625 
C 73.769726 89.871185 73.206698 89.637971 72.619707 89.637971 
C 72.032716 89.637971 71.469687 89.871185 71.054622 90.28625 
C 70.639557 90.701315 70.406343 91.264344 70.406343 91.851335 
C 70.406343 92.438326 70.639557 93.001354 71.054622 93.416419 
C 71.469687 93.831485 72.032716 94.064699 72.619707 94.064699 
z
" clip-path="url(#pd3c0a061ba)" style="stroke: #000000"/>
    <path d="M 73.260253 84.521801 
C 73.853265 84.521801 74.422069 84.286194 74.841392 83.866871 
C 75.260714 83.447548 75.496321 82.878745 75.496321 82.285733 
C 75.496321 81.69272 75.260714 81.123917 74.841392 80.704594 
C 74.422069 80.285271 73.853265 80.049665 73.260253 80.049665 
C 72.667241 80.049665 72.098437 80.285271 71.679114 80.704594 
C 71.259791 81.123917 71.024185 81.69272 71.024185 82.285733 
C 71.024185 82.878745 71.259791 83.447548 71.679114 83.866871 
C 72.098437 84.286194 72.667241 84.521801 73.260253 84.521801 
z
" clip-path="url(#pd3c0a061ba)" style="stroke: #000000"/>
    <path d="M 63.982717 58.796195 
C 64.480755 58.796195 64.958461 58.598323 65.310626 58.246157 
C 65.662792 57.893991 65.860664 57.416285 65.860664 56.918248 
C 65.860664 56.420211 65.662792 55.942505 65.310626 55.590339 
C 64.958461 55.238174 64.480755 55.040301 63.982717 55.040301 
C 63.48468 55.040301 63.006974 55.238174 62.654809 55.590339 
C 62.302643 55.942505 62.104771 56.420211 62.104771 56.918248 
C 62.104771 57.416285 62.302643 57.893991 62.654809 58.246157 
C 63.006974 58.598323 63.48468 58.796195 63.982717 58.796195 
z
" clip-path="url(#pd3c0a061ba)" style="stroke: #000000"/>
    <path d="M 75.851835 132.474787 
C 75.984436 132.474787 76.111624 132.422104 76.205388 132.32834 
C 76.299151 132.234577 76.351835 132.107388 76.351835 131.974787 
C 76.351835 131.842185 76.299151 131.714997 76.205388 131.621233 
C 76.111624 131.52747 75.984436 131.474787 75.851835 131.474787 
C 75.719233 131.474787 75.592045 131.52747 75.498281 131.621233 
C 75.404518 131.714997 75.351835 131.842185 75.351835 131.974787 
C 75.351835 132.107388 75.404518 132.234577 75.498281 132.32834 
C 75.592045 132.422104 75.719233 132.474787 75.851835 132.474787 
z
" clip-path="url(#pd3c0a061ba)" style="stroke: #000000"/>
    <path d="M 61.245077 97.27714 
C 61.806351 97.27714 62.344712 97.054143 62.741593 96.657263 
C 63.138474 96.260382 63.36147 95.722021 63.36147 95.160747 
C 63.36147 94.599473 63.138474 94.061112 62.741593 93.664231 
C 62.344712 93.267351 61.806351 93.044354 61.245077 93.044354 
C 60.683803 93.044354 60.145442 93.267351 59.748562 93.664231 
C 59.351681 94.061112 59.128685 94.599473 59.128685 95.160747 
C 59.128685 95.722021 59.351681 96.260382 59.748562 96.657263 
C 60.145442 97.054143 60.683803 97.27714 61.245077 97.27714 
z
" clip-path="url(#pd3c0a061ba)" style="stroke: #000000"/>
    <path d="M 60.161563 87.166913 
C 60.754576 87.166913 61.323379 86.931307 61.742702 86.511984 
C 62.162025 86.092661 62.397631 85.523857 62.397631 84.930845 
C 62.397631 84.337833 62.162025 83.769029 61.742702 83.349706 
C 61.323379 82.930383 60.754576 82.694777 60.161563 82.694777 
C 59.568551 82.694777 58.999748 82.930383 58.580425 83.349706 
C 58.161102 83.769029 57.925496 84.337833 57.925496 84.930845 
C 57.925496 85.523857 58.161102 86.092661 58.580425 86.511984 
C 58.999748 86.931307 59.568551 87.166913 60.161563 87.166913 
z
" clip-path="url(#pd3c0a061ba)" style="stroke: #000000"/>
    <path d="M 67.213407 139.235099 
C 67.806419 139.235099 68.375223 138.999493 68.794546 138.58017 
C 69.213869 138.160847 69.449475 137.592044 69.449475 136.999031 
C 69.449475 136.406019 69.213869 135.837216 68.794546 135.417893 
C 68.375223 134.99857 67.806419 134.762963 67.213407 134.762963 
C 66.620395 134.762963 66.051591 134.99857 65.632268 135.417893 
C 65.212945 135.837216 64.977339 136.406019 64.977339 136.999031 
C 64.977339 137.592044 65.212945 138.160847 65.632268 138.58017 
C 66.051591 138.999493 66.620395 139.235099 67.213407 139.235099 
z
" clip-path="url(#pd3c0a061ba)" style="stroke: #000000"/>
    <path d="M 60.087019 131.857077 
C 60.680031 131.857077 61.248835 131.621471 61.668158 131.202148 
C 62.087481 130.782825 62.323087 130.214021 62.323087 129.621009 
C 62.323087 129.027997 62.087481 128.459193 61.668158 128.03987 
C 61.248835 127.620547 60.680031 127.384941 60.087019 127.384941 
C 59.494007 127.384941 58.925203 127.620547 58.50588 128.03987 
C 58.086557 128.459193 57.850951 129.027997 57.850951 129.621009 
C 57.850951 130.214021 58.086557 130.782825 58.50588 131.202148 
C 58.925203 131.621471 59.494007 131.857077 60.087019 131.857077 
z
" clip-path="url(#pd3c0a061ba)" style="stroke: #000000"/>
    <path d="M 47.004396 87.975257 
C 47.50368 87.975257 47.982581 87.776889 48.335628 87.423842 
C 48.688675 87.070795 48.887043 86.591893 48.887043 86.092609 
C 48.887043 85.593325 48.688675 85.114423 48.335628 84.761376 
C 47.982581 84.408329 47.50368 84.209962 47.004396 84.209962 
C 46.505112 84.209962 46.02621 84.408329 45.673163 84.761376 
C 45.320116 85.114423 45.121748 85.593325 45.121748 86.092609 
C 45.121748 86.591893 45.320116 87.070795 45.673163 87.423842 
C 46.02621 87.776889 46.505112 87.975257 47.004396 87.975257 
z
" clip-path="url(#pd3c0a061ba)" style="stroke: #000000"/>
    <path d="M 44.970759 120.400819 
C 45.470662 120.400819 45.950159 120.202206 46.303644 119.84872 
C 46.65713 119.495235 46.855743 119.015738 46.855743 118.515835 
C 46.855743 118.015931 46.65713 117.536434 46.303644 117.182949 
C 45.950159 116.829464 45.470662 116.63085 44.970759 116.63085 
C 44.470855 116.63085 43.991359 116.829464 43.637873 117.182949 
C 43.284388 117.536434 43.085774 118.015931 43.085774 118.515835 
C 43.085774 119.015738 43.284388 119.495235 43.637873 119.84872 
C 43.991359 120.202206 44.470855 120.400819 44.970759 120.400819 
z
" clip-path="url(#pd3c0a061ba)" style="stroke: #000000"/>
    <path d="M 34.800361 91.659924 
C 35.299023 91.659924 35.777328 91.461804 36.129935 91.109197 
C 36.482542 90.75659 36.680663 90.278285 36.680663 89.779623 
C 36.680663 89.280961 36.482542 88.802656 36.129935 88.450049 
C 35.777328 88.097442 35.299023 87.899321 34.800361 87.899321 
C 34.301699 87.899321 33.823394 88.097442 33.470787 88.450049 
C 33.11818 88.802656 32.92006 89.280961 32.92006 89.779623 
C 32.92006 90.278285 33.11818 90.75659 33.470787 91.109197 
C 33.823394 91.461804 34.301699 91.659924 34.800361 91.659924 
z
" clip-path="url(#pd3c0a061ba)" style="stroke: #000000"/>
    <path d="M 50.700238 163.646889 
C 51.022765 163.646889 51.332125 163.518748 51.560186 163.290687 
C 51.788247 163.062627 51.916388 162.753266 51.916388 162.43074 
C 51.916388 162.108213 51.788247 161.798853 51.560186 161.570792 
C 51.332125 161.342731 51.022765 161.21459 50.700238 161.21459 
C 50.377712 161.21459 50.068351 161.342731 49.840291 161.570792 
C 49.61223 161.798853 49.484089 162.108213 49.484089 162.43074 
C 49.484089 162.753266 49.61223 163.062627 49.840291 163.290687 
C 50.068351 163.518748 50.377712 163.646889 50.700238 163.646889 
z
" clip-path="url(#pd3c0a061ba)" style="stroke: #000000"/>
   </g>
   <g id="matplotlib.axis_1">
    <g id="xtick_1">
     <g id="line2d_1">
      <defs>
       <path id="ma98dfd4c03" d="M 0 0 
L 0 3.5 
" style="stroke: #000000; stroke-width: 0.8"/>
      </defs>
      <g>
       <use xlink:href="#ma98dfd4c03" x="18" y="189" style="stroke: #000000; stroke-width: 0.8"/>
      </g>
     </g>
     <g id="text_1">
      <!-- −10 -->
      <g transform="translate(7.447656 203.598437)scale(0.1 -0.1)">
       <defs>
        <path id="DejaVuSans-2212" d="M 678 2272 
L 4684 2272 
L 4684 1741 
L 678 1741 
L 678 2272 
z
" transform="scale(0.015625)"/>
        <path id="DejaVuSans-31" d="M 794 531 
L 1825 531 
L 1825 4091 
L 703 3866 
L 703 4441 
L 1819 4666 
L 2450 4666 
L 2450 531 
L 3481 531 
L 3481 0 
L 794 0 
L 794 531 
z
" transform="scale(0.015625)"/>
        <path id="DejaVuSans-30" d="M 2034 4250 
Q 1547 4250 1301 3770 
Q 1056 3291 1056 2328 
Q 1056 1369 1301 889 
Q 1547 409 2034 409 
Q 2525 409 2770 889 
Q 3016 1369 3016 2328 
Q 3016 3291 2770 3770 
Q 2525 4250 2034 4250 
z
M 2034 4750 
Q 2819 4750 3233 4129 
Q 3647 3509 3647 2328 
Q 3647 1150 3233 529 
Q 2819 -91 2034 -91 
Q 1250 -91 836 529 
Q 422 1150 422 2328 
Q 422 3509 836 4129 
Q 1250 4750 2034 4750 
z
" transform="scale(0.015625)"/>
       </defs>
       <use xlink:href="#DejaVuSans-2212"/>
       <use xlink:href="#DejaVuSans-31" x="83.789062"/>
       <use xlink:href="#DejaVuSans-30" x="147.412109"/>
      </g>
     </g>
    </g>
    <g id="xtick_2">
     <g id="line2d_2">
      <g>
       <use xlink:href="#ma98dfd4c03" x="73.8" y="189" style="stroke: #000000; stroke-width: 0.8"/>
      </g>
     </g>
     <g id="text_2">
      <!-- 0 -->
      <g transform="translate(70.61875 203.598437)scale(0.1 -0.1)">
       <use xlink:href="#DejaVuSans-30"/>
      </g>
     </g>
    </g>
    <g id="xtick_3">
     <g id="line2d_3">
      <g>
       <use xlink:href="#ma98dfd4c03" x="129.6" y="189" style="stroke: #000000; stroke-width: 0.8"/>
      </g>
     </g>
     <g id="text_3">
      <!-- 10 -->
      <g transform="translate(123.2375 203.598437)scale(0.1 -0.1)">
       <use xlink:href="#DejaVuSans-31"/>
       <use xlink:href="#DejaVuSans-30" x="63.623047"/>
      </g>
     </g>
    </g>
   </g>
   <g id="matplotlib.axis_2">
    <g id="ytick_1">
     <g id="line2d_4">
      <defs>
       <path id="me5c106cf7d" d="M 0 0 
L -3.5 0 
" style="stroke: #000000; stroke-width: 0.8"/>
      </defs>
      <g>
       <use xlink:href="#me5c106cf7d" x="18" y="189" style="stroke: #000000; stroke-width: 0.8"/>
      </g>
     </g>
     <g id="text_4">
      <!-- −15 -->
      <g transform="translate(-10.104688 192.799219)scale(0.1 -0.1)">
       <defs>
        <path id="DejaVuSans-35" d="M 691 4666 
L 3169 4666 
L 3169 4134 
L 1269 4134 
L 1269 2991 
Q 1406 3038 1543 3061 
Q 1681 3084 1819 3084 
Q 2600 3084 3056 2656 
Q 3513 2228 3513 1497 
Q 3513 744 3044 326 
Q 2575 -91 1722 -91 
Q 1428 -91 1123 -41 
Q 819 9 494 109 
L 494 744 
Q 775 591 1075 516 
Q 1375 441 1709 441 
Q 2250 441 2565 725 
Q 2881 1009 2881 1497 
Q 2881 1984 2565 2268 
Q 2250 2553 1709 2553 
Q 1456 2553 1204 2497 
Q 953 2441 691 2322 
L 691 4666 
z
" transform="scale(0.015625)"/>
       </defs>
       <use xlink:href="#DejaVuSans-2212"/>
       <use xlink:href="#DejaVuSans-31" x="83.789062"/>
       <use xlink:href="#DejaVuSans-35" x="147.412109"/>
      </g>
     </g>
    </g>
    <g id="ytick_2">
     <g id="line2d_5">
      <g>
       <use xlink:href="#me5c106cf7d" x="18" y="161.82" style="stroke: #000000; stroke-width: 0.8"/>
      </g>
     </g>
     <g id="text_5">
      <!-- −10 -->
      <g transform="translate(-10.104688 165.619219)scale(0.1 -0.1)">
       <use xlink:href="#DejaVuSans-2212"/>
       <use xlink:href="#DejaVuSans-31" x="83.789062"/>
       <use xlink:href="#DejaVuSans-30" x="147.412109"/>
      </g>
     </g>
    </g>
    <g id="ytick_3">
     <g id="line2d_6">
      <g>
       <use xlink:href="#me5c106cf7d" x="18" y="134.64" style="stroke: #000000; stroke-width: 0.8"/>
      </g>
     </g>
     <g id="text_6">
      <!-- −5 -->
      <g transform="translate(-3.742188 138.439219)scale(0.1 -0.1)">
       <use xlink:href="#DejaVuSans-2212"/>
       <use xlink:href="#DejaVuSans-35" x="83.789062"/>
      </g>
     </g>
    </g>
    <g id="ytick_4">
     <g id="line2d_7">
      <g>
       <use xlink:href="#me5c106cf7d" x="18" y="107.46" style="stroke: #000000; stroke-width: 0.8"/>
      </g>
     </g>
     <g id="text_7">
      <!-- 0 -->
      <g transform="translate(4.6375 111.259219)scale(0.1 -0.1)">
       <use xlink:href="#DejaVuSans-30"/>
      </g>
     </g>
    </g>
    <g id="ytick_5">
     <g id="line2d_8">
      <g>
       <use xlink:href="#me5c106cf7d" x="18" y="80.28" style="stroke: #000000; stroke-width: 0.8"/>
      </g>
     </g>
     <g id="text_8">
      <!-- 5 -->
      <g transform="translate(4.6375 84.079219)scale(0.1 -0.1)">
       <use xlink:href="#DejaVuSans-35"/>
      </g>
     </g>
    </g>
    <g id="ytick_6">
     <g id="line2d_9">
      <g>
       <use xlink:href="#me5c106cf7d" x="18" y="53.1" style="stroke: #000000; stroke-width: 0.8"/>
      </g>
     </g>
     <g id="text_9">
      <!-- 10 -->
      <g transform="translate(-1.725 56.899219)scale(0.1 -0.1)">
       <use xlink:href="#DejaVuSans-31"/>
       <use xlink:href="#DejaVuSans-30" x="63.623047"/>
      </g>
     </g>
    </g>
    <g id="ytick_7">
     <g id="line2d_10">
      <g>
       <use xlink:href="#me5c106cf7d" x="18" y="25.92" style="stroke: #000000; stroke-width: 0.8"/>
      </g>
     </g>
     <g id="text_10">
      <!-- 15 -->
      <g transform="translate(-1.725 29.719219)scale(0.1 -0.1)">
       <use xlink:href="#DejaVuSans-31"/>
       <use xlink:href="#DejaVuSans-35" x="63.623047"/>
      </g>
     </g>
    </g>
   </g>
   <g id="patch_3">
    <path d="M 18 189 
L 18 25.92 
" style="fill: none; stroke: #000000; stroke-width: 0.8; stroke-linejoin: miter; stroke-linecap: square"/>
   </g>
   <g id="patch_4">
    <path d="M 129.6 189 
L 129.6 25.92 
" style="fill: none; stroke: #000000; stroke-width: 0.8; stroke-linejoin: miter; stroke-linecap: square"/>
   </g>
   <g id="patch_5">
    <path d="M 18 189 
L 129.6 189 
" style="fill: none; stroke: #000000; stroke-width: 0.8; stroke-linejoin: miter; stroke-linecap: square"/>
   </g>
   <g id="patch_6">
    <path d="M 18 25.92 
L 129.6 25.92 
" style="fill: none; stroke: #000000; stroke-width: 0.8; stroke-linejoin: miter; stroke-linecap: square"/>
   </g>
  </g>
 </g>
 <defs>
  <clipPath id="pd3c0a061ba">
   <rect x="18" y="25.92" width="111.6" height="163.08"/>
  </clipPath>
 </defs>
</svg>
