<?xml version="1.0" encoding="utf-8" standalone="no"?>
<!DOCTYPE svg PUBLIC "-//W3C//DTD SVG 1.1//EN"
  "http://www.w3.org/Graphics/SVG/1.1/DTD/svg11.dtd">
<svg xmlns:xlink="http://www.w3.org/1999/xlink" width="144pt" height="216pt" viewBox="0 0 144 216" xmlns="http://www.w3.org/2000/svg" version="1.1">
 <metadata>
  <rdf:RDF xmlns:dc="http://purl.org/dc/elements/1.1/" xmlns:cc="http://creativecommons.org/ns#" xmlns:rdf="http://www.w3.org/1999/02/22-rdf-syntax-ns#">
   <cc:Work>
    <dc:type rdf:resource="http://purl.org/dc/dcmitype/StillImage"/>
    <dc:date>2022-06-28T09:17:52.170634</dc:date>
    <dc:format>image/svg+xml</dc:format>
    <dc:creator>
     <cc:Agent>
      <dc:title>Matplotlib v3.5.1, https://matplotlib.org/</dc:title>
     </cc:Agent>
    </dc:creator>
   </cc:Work>
  </rdf:RDF>
 </metadata>
 <defs>
  <style type="text/css">*{stroke-linejoin: round; stroke-linecap: butt}</style>
 </defs>
 <g id="figure_1">
  <g id="patch_1">
   <path d="M 0 216 
L 144 216 
L 144 0 
L 0 0 
L 0 216 
z
" style="fill: none"/>
  </g>
  <g id="axes_1">
   <g id="patch_2">
    <path d="M 18 189 
L 129.6 189 
L 129.6 25.92 
L 18 25.92 
z
" style="fill: #ffffff"/>
   </g>
   <g id="PathCollection_1">
    <defs>
     <path id="mdd7f4861d4" d="M 0 2.738613 
C 0.726289 2.738613 1.422928 2.450055 1.936492 1.936492 
C 2.450055 1.422928 2.738613 0.726289 2.738613 0 
C 2.738613 -0.726289 2.450055 -1.422928 1.936492 -1.936492 
C 1.422928 -2.450055 0.726289 -2.738613 0 -2.738613 
C -0.726289 -2.738613 -1.422928 -2.450055 -1.936492 -1.936492 
C -2.450055 -1.422928 -2.738613 -0.726289 -2.738613 0 
C -2.738613 0.726289 -2.450055 1.422928 -1.936492 1.936492 
C -1.422928 2.450055 -0.726289 2.738613 0 2.738613 
z
" style="stroke: #ff0000; stroke-width: 1.75"/>
    </defs>
    <g clip-path="url(#p21f4c1b434)">
     <use xlink:href="#mdd7f4861d4" x="66.825" y="83.92143" style="fill: #ff0000; stroke: #ff0000; stroke-width: 1.75"/>
     <use xlink:href="#mdd7f4861d4" x="87.75" y="95.690715" style="fill: #ff0000; stroke: #ff0000; stroke-width: 1.75"/>
     <use xlink:href="#mdd7f4861d4" x="66.825" y="107.46" style="fill: #ff0000; stroke: #ff0000; stroke-width: 1.75"/>
     <use xlink:href="#mdd7f4861d4" x="73.8" y="119.229285" style="fill: #ff0000; stroke: #ff0000; stroke-width: 1.75"/>
     <use xlink:href="#mdd7f4861d4" x="87.75" y="119.229285" style="fill: #ff0000; stroke: #ff0000; stroke-width: 1.75"/>
     <use xlink:href="#mdd7f4861d4" x="66.825" y="130.99857" style="fill: #ff0000; stroke: #ff0000; stroke-width: 1.75"/>
     <use xlink:href="#mdd7f4861d4" x="80.775" y="130.99857" style="fill: #ff0000; stroke: #ff0000; stroke-width: 1.75"/>
    </g>
   </g>
   <g id="PathCollection_2">
    <defs>
     <path id="C0_0_73d8f7fd9a" d="M 0 2.738613 
C 0.726289 2.738613 1.422928 2.450055 1.936492 1.936492 
C 2.450055 1.422928 2.738613 0.726289 2.738613 -0 
C 2.738613 -0.726289 2.450055 -1.422928 1.936492 -1.936492 
C 1.422928 -2.450055 0.726289 -2.738613 0 -2.738613 
C -0.726289 -2.738613 -1.422928 -2.450055 -1.936492 -1.936492 
C -2.450055 -1.422928 -2.738613 -0.726289 -2.738613 0 
C -2.738613 0.726289 -2.450055 1.422928 -1.936492 1.936492 
C -1.422928 2.450055 -0.726289 2.738613 0 2.738613 
z
"/>
    </defs>
    <g clip-path="url(#p21f4c1b434)">
     <use xlink:href="#C0_0_73d8f7fd9a" x="80.775" y="83.92143" style="fill: none; stroke: #ff0000; stroke-width: 1.75"/>
    </g>
    <g clip-path="url(#p21f4c1b434)">
     <use xlink:href="#C0_0_73d8f7fd9a" x="59.85" y="95.690715" style="fill: none; stroke: #ff0000; stroke-width: 1.75"/>
    </g>
    <g clip-path="url(#p21f4c1b434)">
     <use xlink:href="#C0_0_73d8f7fd9a" x="73.8" y="95.690715" style="fill: none; stroke: #ff0000; stroke-width: 1.75"/>
    </g>
    <g clip-path="url(#p21f4c1b434)">
     <use xlink:href="#C0_0_73d8f7fd9a" x="52.875" y="107.46" style="fill: none; stroke: #ff0000; stroke-width: 1.75"/>
    </g>
    <g clip-path="url(#p21f4c1b434)">
     <use xlink:href="#C0_0_73d8f7fd9a" x="80.775" y="107.46" style="fill: none; stroke: #ff0000; stroke-width: 1.75"/>
    </g>
    <g clip-path="url(#p21f4c1b434)">
     <use xlink:href="#C0_0_73d8f7fd9a" x="94.725" y="107.46" style="fill: none; stroke: #ff0000; stroke-width: 1.75"/>
    </g>
    <g clip-path="url(#p21f4c1b434)">
     <use xlink:href="#C0_0_73d8f7fd9a" x="59.85" y="119.229285" style="fill: none; stroke: #ff0000; stroke-width: 1.75"/>
    </g>
   </g>
   <g id="PathCollection_3">
    <path d="M 112.966674 101.521756 
C 113.099276 101.521756 113.226464 101.469073 113.320227 101.375309 
C 113.413991 101.281546 113.466674 101.154358 113.466674 101.021756 
C 113.466674 100.889154 113.413991 100.761966 113.320227 100.668203 
C 113.226464 100.574439 113.099276 100.521756 112.966674 100.521756 
C 112.834072 100.521756 112.706884 100.574439 112.613121 100.668203 
C 112.519357 100.761966 112.466674 100.889154 112.466674 101.021756 
C 112.466674 101.154358 112.519357 101.281546 112.613121 101.375309 
C 112.706884 101.469073 112.834072 101.521756 112.966674 101.521756 
z
" clip-path="url(#p21f4c1b434)" style="stroke: #000000"/>
    <path d="M 108.020255 103.012643 
C 108.194768 103.012643 108.362158 102.943308 108.485557 102.819908 
C 108.608957 102.696509 108.678292 102.529119 108.678292 102.354606 
C 108.678292 102.180092 108.608957 102.012703 108.485557 101.889303 
C 108.362158 101.765904 108.194768 101.696569 108.020255 101.696569 
C 107.845741 101.696569 107.678352 101.765904 107.554953 101.889303 
C 107.431553 102.012703 107.362218 102.180092 107.362218 102.354606 
C 107.362218 102.529119 107.431553 102.696509 107.554953 102.819908 
C 107.678352 102.943308 107.845741 103.012643 108.020255 103.012643 
z
" clip-path="url(#p21f4c1b434)" style="stroke: #000000"/>
    <path d="M 104.738845 105.53319 
C 104.913358 105.53319 105.080748 105.463856 105.204147 105.340456 
C 105.327547 105.217056 105.396882 105.049667 105.396882 104.875153 
C 105.396882 104.70064 105.327547 104.533251 105.204147 104.409851 
C 105.080748 104.286451 104.913358 104.217116 104.738845 104.217116 
C 104.564331 104.217116 104.396942 104.286451 104.273542 104.409851 
C 104.150143 104.533251 104.080808 104.70064 104.080808 104.875153 
C 104.080808 105.049667 104.150143 105.217056 104.273542 105.340456 
C 104.396942 105.463856 104.564331 105.53319 104.738845 105.53319 
z
" clip-path="url(#p21f4c1b434)" style="stroke: #000000"/>
    <path d="M 93.736361 104.958694 
C 93.943894 104.958694 94.142954 104.87624 94.289702 104.729492 
C 94.43645 104.582745 94.518903 104.383684 94.518903 104.176151 
C 94.518903 103.968619 94.43645 103.769558 94.289702 103.62281 
C 94.142954 103.476063 93.943894 103.393609 93.736361 103.393609 
C 93.528829 103.393609 93.329768 103.476063 93.18302 103.62281 
C 93.036272 103.769558 92.953819 103.968619 92.953819 104.176151 
C 92.953819 104.383684 93.036272 104.582745 93.18302 104.729492 
C 93.329768 104.87624 93.528829 104.958694 93.736361 104.958694 
z
" clip-path="url(#p21f4c1b434)" style="stroke: #000000"/>
    <path d="M 91.109096 96.683482 
C 91.482676 96.683482 91.841005 96.535057 92.105166 96.270896 
C 92.369327 96.006735 92.517752 95.648406 92.517752 95.274826 
C 92.517752 94.901245 92.369327 94.542916 92.105166 94.278755 
C 91.841005 94.014594 91.482676 93.866169 91.109096 93.866169 
C 90.735515 93.866169 90.377186 94.014594 90.113025 94.278755 
C 89.848864 94.542916 89.700439 94.901245 89.700439 95.274826 
C 89.700439 95.648406 89.848864 96.006735 90.113025 96.270896 
C 90.377186 96.535057 90.735515 96.683482 91.109096 96.683482 
z
" clip-path="url(#p21f4c1b434)" style="stroke: #000000"/>
    <path d="M 93.296426 113.080538 
C 93.454116 113.080538 93.60537 113.017886 93.716874 112.906382 
C 93.828378 112.794878 93.891029 112.643625 93.891029 112.485934 
C 93.891029 112.328243 93.828378 112.17699 93.716874 112.065486 
C 93.60537 111.953982 93.454116 111.89133 93.296426 111.89133 
C 93.138735 111.89133 92.987482 111.953982 92.875977 112.065486 
C 92.764473 112.17699 92.701822 112.328243 92.701822 112.485934 
C 92.701822 112.643625 92.764473 112.794878 92.875977 112.906382 
C 92.987482 113.017886 93.138735 113.080538 93.296426 113.080538 
z
" clip-path="url(#p21f4c1b434)" style="stroke: #000000"/>
    <path d="M 91.600801 109.334795 
C 91.758492 109.334795 91.909745 109.272144 92.021249 109.16064 
C 92.132753 109.049136 92.195405 108.897882 92.195405 108.740192 
C 92.195405 108.582501 92.132753 108.431248 92.021249 108.319744 
C 91.909745 108.208239 91.758492 108.145588 91.600801 108.145588 
C 91.44311 108.145588 91.291857 108.208239 91.180353 108.319744 
C 91.068849 108.431248 91.006198 108.582501 91.006198 108.740192 
C 91.006198 108.897882 91.068849 109.049136 91.180353 109.16064 
C 91.291857 109.272144 91.44311 109.334795 91.600801 109.334795 
z
" clip-path="url(#p21f4c1b434)" style="stroke: #000000"/>
    <path d="M 86.302143 97.639812 
C 86.592532 97.639812 86.871067 97.524439 87.076403 97.319102 
C 87.281739 97.113766 87.397112 96.835231 87.397112 96.544842 
C 87.397112 96.254453 87.281739 95.975918 87.076403 95.770582 
C 86.871067 95.565246 86.592532 95.449873 86.302143 95.449873 
C 86.011753 95.449873 85.733219 95.565246 85.527882 95.770582 
C 85.322546 95.975918 85.207173 96.254453 85.207173 96.544842 
C 85.207173 96.835231 85.322546 97.113766 85.527882 97.319102 
C 85.733219 97.524439 86.011753 97.639812 86.302143 97.639812 
z
" clip-path="url(#p21f4c1b434)" style="stroke: #000000"/>
    <path d="M 81.23351 84.746866 
C 81.794347 84.746866 82.332288 84.524044 82.728859 84.127473 
C 83.12543 83.730901 83.348253 83.19296 83.348253 82.632124 
C 83.348253 82.071288 83.12543 81.533346 82.728859 81.136775 
C 82.332288 80.740204 81.794347 80.517381 81.23351 80.517381 
C 80.672674 80.517381 80.134733 80.740204 79.738162 81.136775 
C 79.34159 81.533346 79.118768 82.071288 79.118768 82.632124 
C 79.118768 83.19296 79.34159 83.730901 79.738162 84.127473 
C 80.134733 84.524044 80.672674 84.746866 81.23351 84.746866 
z
" clip-path="url(#p21f4c1b434)" style="stroke: #000000"/>
    <path d="M 78.946422 74.693811 
C 79.079024 74.693811 79.206212 74.641128 79.299976 74.547364 
C 79.393739 74.453601 79.446422 74.326412 79.446422 74.193811 
C 79.446422 74.061209 79.393739 73.934021 79.299976 73.840257 
C 79.206212 73.746494 79.079024 73.693811 78.946422 73.693811 
C 78.813821 73.693811 78.686632 73.746494 78.592869 73.840257 
C 78.499105 73.934021 78.446422 74.061209 78.446422 74.193811 
C 78.446422 74.326412 78.499105 74.453601 78.592869 74.547364 
C 78.686632 74.641128 78.813821 74.693811 78.946422 74.693811 
z
" clip-path="url(#p21f4c1b434)" style="stroke: #000000"/>
    <path d="M 87.958867 120.010038 
C 88.174553 120.010038 88.381435 119.924344 88.533948 119.771831 
C 88.686462 119.619317 88.772155 119.412436 88.772155 119.196749 
C 88.772155 118.981063 88.686462 118.774181 88.533948 118.621668 
C 88.381435 118.469154 88.174553 118.383461 87.958867 118.383461 
C 87.74318 118.383461 87.536299 118.469154 87.383785 118.621668 
C 87.231272 118.774181 87.145578 118.981063 87.145578 119.196749 
C 87.145578 119.412436 87.231272 119.619317 87.383785 119.771831 
C 87.536299 119.924344 87.74318 120.010038 87.958867 120.010038 
z
" clip-path="url(#p21f4c1b434)" style="stroke: #000000"/>
    <path d="M 84.924491 110.094796 
C 85.299544 110.094796 85.659287 109.945786 85.924491 109.680583 
C 86.189694 109.41538 86.338704 109.055637 86.338704 108.680583 
C 86.338704 108.305529 86.189694 107.945786 85.924491 107.680583 
C 85.659287 107.41538 85.299544 107.266369 84.924491 107.266369 
C 84.549437 107.266369 84.189694 107.41538 83.924491 107.680583 
C 83.659287 107.945786 83.510277 108.305529 83.510277 108.680583 
C 83.510277 109.055637 83.659287 109.41538 83.924491 109.680583 
C 84.189694 109.945786 84.549437 110.094796 84.924491 110.094796 
z
" clip-path="url(#p21f4c1b434)" style="stroke: #000000"/>
    <path d="M 85.327526 106.641688 
C 85.525812 106.641688 85.716003 106.562908 85.856212 106.422699 
C 85.996421 106.28249 86.0752 106.092299 86.0752 105.894013 
C 86.0752 105.695728 85.996421 105.505537 85.856212 105.365328 
C 85.716003 105.225119 85.525812 105.146339 85.327526 105.146339 
C 85.12924 105.146339 84.939049 105.225119 84.79884 105.365328 
C 84.658631 105.505537 84.579852 105.695728 84.579852 105.894013 
C 84.579852 106.092299 84.658631 106.28249 84.79884 106.422699 
C 84.939049 106.562908 85.12924 106.641688 85.327526 106.641688 
z
" clip-path="url(#p21f4c1b434)" style="stroke: #000000"/>
    <path d="M 79.689465 92.968079 
C 79.822066 92.968079 79.949254 92.915396 80.043018 92.821633 
C 80.136781 92.727869 80.189465 92.600681 80.189465 92.468079 
C 80.189465 92.335478 80.136781 92.208289 80.043018 92.114526 
C 79.949254 92.020762 79.822066 91.968079 79.689465 91.968079 
C 79.556863 91.968079 79.429675 92.020762 79.335911 92.114526 
C 79.242148 92.208289 79.189465 92.335478 79.189465 92.468079 
C 79.189465 92.600681 79.242148 92.727869 79.335911 92.821633 
C 79.429675 92.915396 79.556863 92.968079 79.689465 92.968079 
z
" clip-path="url(#p21f4c1b434)" style="stroke: #000000"/>
    <path d="M 77.679705 88.757638 
C 77.812307 88.757638 77.939495 88.704954 78.033258 88.611191 
C 78.127022 88.517427 78.179705 88.390239 78.179705 88.257638 
C 78.179705 88.125036 78.127022 87.997848 78.033258 87.904084 
C 77.939495 87.810321 77.812307 87.757638 77.679705 87.757638 
C 77.547103 87.757638 77.419915 87.810321 77.326152 87.904084 
C 77.232388 87.997848 77.179705 88.125036 77.179705 88.257638 
C 77.179705 88.390239 77.232388 88.517427 77.326152 88.611191 
C 77.419915 88.704954 77.547103 88.757638 77.679705 88.757638 
z
" clip-path="url(#p21f4c1b434)" style="stroke: #000000"/>
    <path d="M 80.581909 108.071866 
C 80.915384 108.071866 81.235246 107.939374 81.471049 107.703572 
C 81.706851 107.467769 81.839343 107.147907 81.839343 106.814432 
C 81.839343 106.480957 81.706851 106.161095 81.471049 105.925292 
C 81.235246 105.68949 80.915384 105.556999 80.581909 105.556999 
C 80.248434 105.556999 79.928572 105.68949 79.692769 105.925292 
C 79.456967 106.161095 79.324476 106.480957 79.324476 106.814432 
C 79.324476 107.147907 79.456967 107.467769 79.692769 107.703572 
C 79.928572 107.939374 80.248434 108.071866 80.581909 108.071866 
z
" clip-path="url(#p21f4c1b434)" style="stroke: #000000"/>
    <path d="M 77.929614 104.992558 
C 78.104127 104.992558 78.271517 104.923223 78.394916 104.799823 
C 78.518316 104.676423 78.587651 104.509034 78.587651 104.334521 
C 78.587651 104.160007 78.518316 103.992618 78.394916 103.869218 
C 78.271517 103.745818 78.104127 103.676484 77.929614 103.676484 
C 77.7551 103.676484 77.587711 103.745818 77.464312 103.869218 
C 77.340912 103.992618 77.271577 104.160007 77.271577 104.334521 
C 77.271577 104.509034 77.340912 104.676423 77.464312 104.799823 
C 77.587711 104.923223 77.7551 104.992558 77.929614 104.992558 
z
" clip-path="url(#p21f4c1b434)" style="stroke: #000000"/>
    <path d="M 75.053694 94.981819 
C 75.387169 94.981819 75.707031 94.849328 75.942834 94.613526 
C 76.178636 94.377723 76.311127 94.057861 76.311127 93.724386 
C 76.311127 93.390911 76.178636 93.071049 75.942834 92.835246 
C 75.707031 92.599444 75.387169 92.466953 75.053694 92.466953 
C 74.720219 92.466953 74.400357 92.599444 74.164554 92.835246 
C 73.928751 93.071049 73.79626 93.390911 73.79626 93.724386 
C 73.79626 94.057861 73.928751 94.377723 74.164554 94.613526 
C 74.400357 94.849328 74.720219 94.981819 75.053694 94.981819 
z
" clip-path="url(#p21f4c1b434)" style="stroke: #000000"/>
    <path d="M 78.743388 113.747171 
C 78.930915 113.747171 79.110786 113.672665 79.243388 113.540064 
C 79.37599 113.407462 79.450495 113.227591 79.450495 113.040064 
C 79.450495 112.852537 79.37599 112.672665 79.243388 112.540064 
C 79.110786 112.407462 78.930915 112.332957 78.743388 112.332957 
C 78.555861 112.332957 78.37599 112.407462 78.243388 112.540064 
C 78.110786 112.672665 78.036281 112.852537 78.036281 113.040064 
C 78.036281 113.227591 78.110786 113.407462 78.243388 113.540064 
C 78.37599 113.672665 78.555861 113.747171 78.743388 113.747171 
z
" clip-path="url(#p21f4c1b434)" style="stroke: #000000"/>
    <path d="M 76.207467 109.629107 
C 76.365157 109.629107 76.516411 109.566456 76.627915 109.454952 
C 76.739419 109.343447 76.80207 109.192194 76.80207 109.034503 
C 76.80207 108.876813 76.739419 108.725559 76.627915 108.614055 
C 76.516411 108.502551 76.365157 108.4399 76.207467 108.4399 
C 76.049776 108.4399 75.898523 108.502551 75.787018 108.614055 
C 75.675514 108.725559 75.612863 108.876813 75.612863 109.034503 
C 75.612863 109.192194 75.675514 109.343447 75.787018 109.454952 
C 75.898523 109.566456 76.049776 109.629107 76.207467 109.629107 
z
" clip-path="url(#p21f4c1b434)" style="stroke: #000000"/>
    <path d="M 74.253618 101.272507 
C 74.38622 101.272507 74.513408 101.219823 74.607172 101.12606 
C 74.700935 101.032296 74.753618 100.905108 74.753618 100.772507 
C 74.753618 100.639905 74.700935 100.512717 74.607172 100.418953 
C 74.513408 100.32519 74.38622 100.272507 74.253618 100.272507 
C 74.121017 100.272507 73.993828 100.32519 73.900065 100.418953 
C 73.806302 100.512717 73.753618 100.639905 73.753618 100.772507 
C 73.753618 100.905108 73.806302 101.032296 73.900065 101.12606 
C 73.993828 101.219823 74.121017 101.272507 74.253618 101.272507 
z
" clip-path="url(#p21f4c1b434)" style="stroke: #000000"/>
    <path d="M 71.289264 95.950691 
C 71.774286 95.950691 72.239509 95.75799 72.582471 95.415027 
C 72.925434 95.072065 73.118136 94.606842 73.118136 94.12182 
C 73.118136 93.636797 72.925434 93.171575 72.582471 92.828612 
C 72.239509 92.485649 71.774286 92.292948 71.289264 92.292948 
C 70.804241 92.292948 70.339019 92.485649 69.996056 92.828612 
C 69.653094 93.171575 69.460392 93.636797 69.460392 94.12182 
C 69.460392 94.606842 69.653094 95.072065 69.996056 95.415027 
C 70.339019 95.75799 70.804241 95.950691 71.289264 95.950691 
z
" clip-path="url(#p21f4c1b434)" style="stroke: #000000"/>
    <path d="M 67.002823 88.05714 
C 67.177336 88.05714 67.344725 87.987805 67.468125 87.864405 
C 67.591525 87.741005 67.66086 87.573616 67.66086 87.399103 
C 67.66086 87.224589 67.591525 87.0572 67.468125 86.9338 
C 67.344725 86.8104 67.177336 86.741066 67.002823 86.741066 
C 66.828309 86.741066 66.66092 86.8104 66.53752 86.9338 
C 66.41412 87.0572 66.344786 87.224589 66.344786 87.399103 
C 66.344786 87.573616 66.41412 87.741005 66.53752 87.864405 
C 66.66092 87.987805 66.828309 88.05714 67.002823 88.05714 
z
" clip-path="url(#p21f4c1b434)" style="stroke: #000000"/>
    <path d="M 77.097979 126.66486 
C 77.23058 126.66486 77.357769 126.612177 77.451532 126.518413 
C 77.545296 126.42465 77.597979 126.297461 77.597979 126.16486 
C 77.597979 126.032258 77.545296 125.90507 77.451532 125.811306 
C 77.357769 125.717543 77.23058 125.66486 77.097979 125.66486 
C 76.965377 125.66486 76.838189 125.717543 76.744426 125.811306 
C 76.650662 125.90507 76.597979 126.032258 76.597979 126.16486 
C 76.597979 126.297461 76.650662 126.42465 76.744426 126.518413 
C 76.838189 126.612177 76.965377 126.66486 77.097979 126.66486 
z
" clip-path="url(#p21f4c1b434)" style="stroke: #000000"/>
    <path d="M 74.973397 115.668855 
C 75.160924 115.668855 75.340796 115.59435 75.473397 115.461749 
C 75.605999 115.329147 75.680504 115.149276 75.680504 114.961749 
C 75.680504 114.774222 75.605999 114.59435 75.473397 114.461749 
C 75.340796 114.329147 75.160924 114.254642 74.973397 114.254642 
C 74.78587 114.254642 74.605999 114.329147 74.473397 114.461749 
C 74.340796 114.59435 74.26629 114.774222 74.26629 114.961749 
C 74.26629 115.149276 74.340796 115.329147 74.473397 115.461749 
C 74.605999 115.59435 74.78587 115.668855 74.973397 115.668855 
z
" clip-path="url(#p21f4c1b434)" style="stroke: #000000"/>
    <path d="M 60.942442 81.576728 
C 61.100133 81.576728 61.251386 81.514077 61.36289 81.402573 
C 61.474394 81.291068 61.537045 81.139815 61.537045 80.982124 
C 61.537045 80.824434 61.474394 80.67318 61.36289 80.561676 
C 61.251386 80.450172 61.100133 80.387521 60.942442 80.387521 
C 60.784751 80.387521 60.633498 80.450172 60.521994 80.561676 
C 60.41049 80.67318 60.347838 80.824434 60.347838 80.982124 
C 60.347838 81.139815 60.41049 81.291068 60.521994 81.402573 
C 60.633498 81.514077 60.784751 81.576728 60.942442 81.576728 
z
" clip-path="url(#p21f4c1b434)" style="stroke: #000000"/>
    <path d="M 71.449509 126.411792 
C 71.6072 126.411792 71.758453 126.349141 71.869957 126.237637 
C 71.981462 126.126132 72.044113 125.974879 72.044113 125.817188 
C 72.044113 125.659498 71.981462 125.508244 71.869957 125.39674 
C 71.758453 125.285236 71.6072 125.222585 71.449509 125.222585 
C 71.291819 125.222585 71.140565 125.285236 71.029061 125.39674 
C 70.917557 125.508244 70.854906 125.659498 70.854906 125.817188 
C 70.854906 125.974879 70.917557 126.126132 71.029061 126.237637 
C 71.140565 126.349141 71.291819 126.411792 71.449509 126.411792 
z
" clip-path="url(#p21f4c1b434)" style="stroke: #000000"/>
    <path d="M 70.466825 122.083601 
C 70.88189 122.083601 71.280012 121.918693 71.573507 121.625198 
C 71.867002 121.331702 72.03191 120.933581 72.03191 120.518516 
C 72.03191 120.103451 71.867002 119.70533 71.573507 119.411834 
C 71.280012 119.118339 70.88189 118.953431 70.466825 118.953431 
C 70.05176 118.953431 69.653639 119.118339 69.360143 119.411834 
C 69.066648 119.70533 68.901741 120.103451 68.901741 120.518516 
C 68.901741 120.933581 69.066648 121.331702 69.360143 121.625198 
C 69.653639 121.918693 70.05176 122.083601 70.466825 122.083601 
z
" clip-path="url(#p21f4c1b434)" style="stroke: #000000"/>
    <path d="M 69.433652 117.80653 
C 69.771219 117.80653 70.095007 117.672413 70.333703 117.433717 
C 70.572399 117.195021 70.706517 116.871233 70.706517 116.533666 
C 70.706517 116.196098 70.572399 115.872311 70.333703 115.633614 
C 70.095007 115.394918 69.771219 115.260801 69.433652 115.260801 
C 69.096084 115.260801 68.772297 115.394918 68.5336 115.633614 
C 68.294904 115.872311 68.160787 116.196098 68.160787 116.533666 
C 68.160787 116.871233 68.294904 117.195021 68.5336 117.433717 
C 68.772297 117.672413 69.096084 117.80653 69.433652 117.80653 
z
" clip-path="url(#p21f4c1b434)" style="stroke: #000000"/>
    <path d="M 61.306986 99.470839 
C 61.439588 99.470839 61.566776 99.418156 61.66054 99.324393 
C 61.754303 99.230629 61.806986 99.103441 61.806986 98.970839 
C 61.806986 98.838238 61.754303 98.711049 61.66054 98.617286 
C 61.566776 98.523523 61.439588 98.470839 61.306986 98.470839 
C 61.174385 98.470839 61.047196 98.523523 60.953433 98.617286 
C 60.859669 98.711049 60.806986 98.838238 60.806986 98.970839 
C 60.806986 99.103441 60.859669 99.230629 60.953433 99.324393 
C 61.047196 99.418156 61.174385 99.470839 61.306986 99.470839 
z
" clip-path="url(#p21f4c1b434)" style="stroke: #000000"/>
    <path d="M 78.612948 156.408154 
C 78.74555 156.408154 78.872738 156.355471 78.966502 156.261707 
C 79.060265 156.167944 79.112948 156.040756 79.112948 155.908154 
C 79.112948 155.775553 79.060265 155.648364 78.966502 155.554601 
C 78.872738 155.460837 78.74555 155.408154 78.612948 155.408154 
C 78.480347 155.408154 78.353158 155.460837 78.259395 155.554601 
C 78.165631 155.648364 78.112948 155.775553 78.112948 155.908154 
C 78.112948 156.040756 78.165631 156.167944 78.259395 156.261707 
C 78.353158 156.355471 78.480347 156.408154 78.612948 156.408154 
z
" clip-path="url(#p21f4c1b434)" style="stroke: #000000"/>
    <path d="M 68.20324 132.022407 
C 68.780435 132.022407 69.334066 131.793085 69.742205 131.384947 
C 70.150343 130.976808 70.379665 130.423177 70.379665 129.845982 
C 70.379665 129.268787 70.150343 128.715156 69.742205 128.307017 
C 69.334066 127.898879 68.780435 127.669557 68.20324 127.669557 
C 67.626046 127.669557 67.072414 127.898879 66.664276 128.307017 
C 66.256137 128.715156 66.026816 129.268787 66.026816 129.845982 
C 66.026816 130.423177 66.256137 130.976808 66.664276 131.384947 
C 67.072414 131.793085 67.626046 132.022407 68.20324 132.022407 
z
" clip-path="url(#p21f4c1b434)" style="stroke: #000000"/>
    <path d="M 63.32551 118.006509 
C 63.458111 118.006509 63.5853 117.953825 63.679063 117.860062 
C 63.772827 117.766299 63.82551 117.63911 63.82551 117.506509 
C 63.82551 117.373907 63.772827 117.246719 63.679063 117.152955 
C 63.5853 117.059192 63.458111 117.006509 63.32551 117.006509 
C 63.192908 117.006509 63.06572 117.059192 62.971957 117.152955 
C 62.878193 117.246719 62.82551 117.373907 62.82551 117.506509 
C 62.82551 117.63911 62.878193 117.766299 62.971957 117.860062 
C 63.06572 117.953825 63.192908 118.006509 63.32551 118.006509 
z
" clip-path="url(#p21f4c1b434)" style="stroke: #000000"/>
    <path d="M 61.209042 110.587761 
C 61.565124 110.587761 61.906669 110.446289 62.158457 110.194501 
C 62.410244 109.942713 62.551717 109.601168 62.551717 109.245087 
C 62.551717 108.889005 62.410244 108.54746 62.158457 108.295672 
C 61.906669 108.043885 61.565124 107.902412 61.209042 107.902412 
C 60.852961 107.902412 60.511416 108.043885 60.259628 108.295672 
C 60.00784 108.54746 59.866368 108.889005 59.866368 109.245087 
C 59.866368 109.601168 60.00784 109.942713 60.259628 110.194501 
C 60.511416 110.446289 60.852961 110.587761 61.209042 110.587761 
z
" clip-path="url(#p21f4c1b434)" style="stroke: #000000"/>
    <path d="M 54.675078 91.485412 
C 54.80768 91.485412 54.934868 91.432729 55.028632 91.338965 
C 55.122395 91.245202 55.175078 91.118013 55.175078 90.985412 
C 55.175078 90.85281 55.122395 90.725622 55.028632 90.631858 
C 54.934868 90.538095 54.80768 90.485412 54.675078 90.485412 
C 54.542477 90.485412 54.415288 90.538095 54.321525 90.631858 
C 54.227761 90.725622 54.175078 90.85281 54.175078 90.985412 
C 54.175078 91.118013 54.227761 91.245202 54.321525 91.338965 
C 54.415288 91.432729 54.542477 91.485412 54.675078 91.485412 
z
" clip-path="url(#p21f4c1b434)" style="stroke: #000000"/>
    <path d="M 59.625191 123.817451 
C 59.991127 123.817451 60.342125 123.672063 60.600881 123.413307 
C 60.859637 123.154551 61.005025 122.803553 61.005025 122.437617 
C 61.005025 122.07168 60.859637 121.720683 60.600881 121.461927 
C 60.342125 121.20317 59.991127 121.057782 59.625191 121.057782 
C 59.259254 121.057782 58.908257 121.20317 58.649501 121.461927 
C 58.390744 121.720683 58.245356 122.07168 58.245356 122.437617 
C 58.245356 122.803553 58.390744 123.154551 58.649501 123.413307 
C 58.908257 123.672063 59.259254 123.817451 59.625191 123.817451 
z
" clip-path="url(#p21f4c1b434)" style="stroke: #000000"/>
    <path d="M 58.549116 116.365463 
C 58.736642 116.365463 58.916514 116.290958 59.049116 116.158356 
C 59.181717 116.025755 59.256222 115.845883 59.256222 115.658356 
C 59.256222 115.470829 59.181717 115.290958 59.049116 115.158356 
C 58.916514 115.025755 58.736642 114.951249 58.549116 114.951249 
C 58.361589 114.951249 58.181717 115.025755 58.049116 115.158356 
C 57.916514 115.290958 57.842009 115.470829 57.842009 115.658356 
C 57.842009 115.845883 57.916514 116.025755 58.049116 116.158356 
C 58.181717 116.290958 58.361589 116.365463 58.549116 116.365463 
z
" clip-path="url(#p21f4c1b434)" style="stroke: #000000"/>
    <path d="M 53.702178 105.281944 
C 53.83478 105.281944 53.961968 105.229261 54.055732 105.135497 
C 54.149495 105.041734 54.202178 104.914545 54.202178 104.781944 
C 54.202178 104.649342 54.149495 104.522154 54.055732 104.42839 
C 53.961968 104.334627 53.83478 104.281944 53.702178 104.281944 
C 53.569577 104.281944 53.442388 104.334627 53.348625 104.42839 
C 53.254861 104.522154 53.202178 104.649342 53.202178 104.781944 
C 53.202178 104.914545 53.254861 105.041734 53.348625 105.135497 
C 53.442388 105.229261 53.569577 105.281944 53.702178 105.281944 
z
" clip-path="url(#p21f4c1b434)" style="stroke: #000000"/>
    <path d="M 45.742809 79.679813 
C 45.875411 79.679813 46.002599 79.62713 46.096363 79.533366 
C 46.190126 79.439603 46.242809 79.312415 46.242809 79.179813 
C 46.242809 79.047212 46.190126 78.920023 46.096363 78.82626 
C 46.002599 78.732496 45.875411 78.679813 45.742809 78.679813 
C 45.610208 78.679813 45.48302 78.732496 45.389256 78.82626 
C 45.295493 78.920023 45.242809 79.047212 45.242809 79.179813 
C 45.242809 79.312415 45.295493 79.439603 45.389256 79.533366 
C 45.48302 79.62713 45.610208 79.679813 45.742809 79.679813 
z
" clip-path="url(#p21f4c1b434)" style="stroke: #000000"/>
    <path d="M 49.569168 110.24612 
C 50.088896 110.24612 50.587408 110.03963 50.954912 109.672126 
C 51.322415 109.304623 51.528906 108.806111 51.528906 108.286382 
C 51.528906 107.766654 51.322415 107.268142 50.954912 106.900638 
C 50.587408 106.533135 50.088896 106.326644 49.569168 106.326644 
C 49.049439 106.326644 48.550927 106.533135 48.183424 106.900638 
C 47.81592 107.268142 47.60943 107.766654 47.60943 108.286382 
C 47.60943 108.806111 47.81592 109.304623 48.183424 109.672126 
C 48.550927 110.03963 49.049439 110.24612 49.569168 110.24612 
z
" clip-path="url(#p21f4c1b434)" style="stroke: #000000"/>
    <path d="M 50.981351 118.866738 
C 51.113953 118.866738 51.241141 118.814055 51.334905 118.720291 
C 51.428668 118.626528 51.481351 118.49934 51.481351 118.366738 
C 51.481351 118.234137 51.428668 118.106948 51.334905 118.013185 
C 51.241141 117.919421 51.113953 117.866738 50.981351 117.866738 
C 50.84875 117.866738 50.721561 117.919421 50.627798 118.013185 
C 50.534035 118.106948 50.481351 118.234137 50.481351 118.366738 
C 50.481351 118.49934 50.534035 118.626528 50.627798 118.720291 
C 50.721561 118.814055 50.84875 118.866738 50.981351 118.866738 
z
" clip-path="url(#p21f4c1b434)" style="stroke: #000000"/>
    <path d="M 38.246001 97.978421 
C 38.403692 97.978421 38.554945 97.91577 38.666449 97.804266 
C 38.777953 97.692762 38.840604 97.541508 38.840604 97.383818 
C 38.840604 97.226127 38.777953 97.074874 38.666449 96.963369 
C 38.554945 96.851865 38.403692 96.789214 38.246001 96.789214 
C 38.08831 96.789214 37.937057 96.851865 37.825553 96.963369 
C 37.714049 97.074874 37.651397 97.226127 37.651397 97.383818 
C 37.651397 97.541508 37.714049 97.692762 37.825553 97.804266 
C 37.937057 97.91577 38.08831 97.978421 38.246001 97.978421 
z
" clip-path="url(#p21f4c1b434)" style="stroke: #000000"/>
   </g>
   <g id="matplotlib.axis_1">
    <g id="xtick_1">
     <g id="line2d_1">
      <defs>
       <path id="m10328f7540" d="M 0 0 
L 0 3.5 
" style="stroke: #000000; stroke-width: 0.8"/>
      </defs>
      <g>
       <use xlink:href="#m10328f7540" x="18" y="189" style="stroke: #000000; stroke-width: 0.8"/>
      </g>
     </g>
     <g id="text_1">
      <!-- −10 -->
      <g transform="translate(7.447656 203.598437)scale(0.1 -0.1)">
       <defs>
        <path id="DejaVuSans-2212" d="M 678 2272 
L 4684 2272 
L 4684 1741 
L 678 1741 
L 678 2272 
z
" transform="scale(0.015625)"/>
        <path id="DejaVuSans-31" d="M 794 531 
L 1825 531 
L 1825 4091 
L 703 3866 
L 703 4441 
L 1819 4666 
L 2450 4666 
L 2450 531 
L 3481 531 
L 3481 0 
L 794 0 
L 794 531 
z
" transform="scale(0.015625)"/>
        <path id="DejaVuSans-30" d="M 2034 4250 
Q 1547 4250 1301 3770 
Q 1056 3291 1056 2328 
Q 1056 1369 1301 889 
Q 1547 409 2034 409 
Q 2525 409 2770 889 
Q 3016 1369 3016 2328 
Q 3016 3291 2770 3770 
Q 2525 4250 2034 4250 
z
M 2034 4750 
Q 2819 4750 3233 4129 
Q 3647 3509 3647 2328 
Q 3647 1150 3233 529 
Q 2819 -91 2034 -91 
Q 1250 -91 836 529 
Q 422 1150 422 2328 
Q 422 3509 836 4129 
Q 1250 4750 2034 4750 
z
" transform="scale(0.015625)"/>
       </defs>
       <use xlink:href="#DejaVuSans-2212"/>
       <use xlink:href="#DejaVuSans-31" x="83.789062"/>
       <use xlink:href="#DejaVuSans-30" x="147.412109"/>
      </g>
     </g>
    </g>
    <g id="xtick_2">
     <g id="line2d_2">
      <g>
       <use xlink:href="#m10328f7540" x="73.8" y="189" style="stroke: #000000; stroke-width: 0.8"/>
      </g>
     </g>
     <g id="text_2">
      <!-- 0 -->
      <g transform="translate(70.61875 203.598437)scale(0.1 -0.1)">
       <use xlink:href="#DejaVuSans-30"/>
      </g>
     </g>
    </g>
    <g id="xtick_3">
     <g id="line2d_3">
      <g>
       <use xlink:href="#m10328f7540" x="129.6" y="189" style="stroke: #000000; stroke-width: 0.8"/>
      </g>
     </g>
     <g id="text_3">
      <!-- 10 -->
      <g transform="translate(123.2375 203.598437)scale(0.1 -0.1)">
       <use xlink:href="#DejaVuSans-31"/>
       <use xlink:href="#DejaVuSans-30" x="63.623047"/>
      </g>
     </g>
    </g>
   </g>
   <g id="matplotlib.axis_2">
    <g id="ytick_1">
     <g id="line2d_4">
      <defs>
       <path id="m0fbcea228c" d="M 0 0 
L -3.5 0 
" style="stroke: #000000; stroke-width: 0.8"/>
      </defs>
      <g>
       <use xlink:href="#m0fbcea228c" x="18" y="189" style="stroke: #000000; stroke-width: 0.8"/>
      </g>
     </g>
     <g id="text_4">
      <!-- −15 -->
      <g transform="translate(-10.104688 192.799219)scale(0.1 -0.1)">
       <defs>
        <path id="DejaVuSans-35" d="M 691 4666 
L 3169 4666 
L 3169 4134 
L 1269 4134 
L 1269 2991 
Q 1406 3038 1543 3061 
Q 1681 3084 1819 3084 
Q 2600 3084 3056 2656 
Q 3513 2228 3513 1497 
Q 3513 744 3044 326 
Q 2575 -91 1722 -91 
Q 1428 -91 1123 -41 
Q 819 9 494 109 
L 494 744 
Q 775 591 1075 516 
Q 1375 441 1709 441 
Q 2250 441 2565 725 
Q 2881 1009 2881 1497 
Q 2881 1984 2565 2268 
Q 2250 2553 1709 2553 
Q 1456 2553 1204 2497 
Q 953 2441 691 2322 
L 691 4666 
z
" transform="scale(0.015625)"/>
       </defs>
       <use xlink:href="#DejaVuSans-2212"/>
       <use xlink:href="#DejaVuSans-31" x="83.789062"/>
       <use xlink:href="#DejaVuSans-35" x="147.412109"/>
      </g>
     </g>
    </g>
    <g id="ytick_2">
     <g id="line2d_5">
      <g>
       <use xlink:href="#m0fbcea228c" x="18" y="161.82" style="stroke: #000000; stroke-width: 0.8"/>
      </g>
     </g>
     <g id="text_5">
      <!-- −10 -->
      <g transform="translate(-10.104688 165.619219)scale(0.1 -0.1)">
       <use xlink:href="#DejaVuSans-2212"/>
       <use xlink:href="#DejaVuSans-31" x="83.789062"/>
       <use xlink:href="#DejaVuSans-30" x="147.412109"/>
      </g>
     </g>
    </g>
    <g id="ytick_3">
     <g id="line2d_6">
      <g>
       <use xlink:href="#m0fbcea228c" x="18" y="134.64" style="stroke: #000000; stroke-width: 0.8"/>
      </g>
     </g>
     <g id="text_6">
      <!-- −5 -->
      <g transform="translate(-3.742188 138.439219)scale(0.1 -0.1)">
       <use xlink:href="#DejaVuSans-2212"/>
       <use xlink:href="#DejaVuSans-35" x="83.789062"/>
      </g>
     </g>
    </g>
    <g id="ytick_4">
     <g id="line2d_7">
      <g>
       <use xlink:href="#m0fbcea228c" x="18" y="107.46" style="stroke: #000000; stroke-width: 0.8"/>
      </g>
     </g>
     <g id="text_7">
      <!-- 0 -->
      <g transform="translate(4.6375 111.259219)scale(0.1 -0.1)">
       <use xlink:href="#DejaVuSans-30"/>
      </g>
     </g>
    </g>
    <g id="ytick_5">
     <g id="line2d_8">
      <g>
       <use xlink:href="#m0fbcea228c" x="18" y="80.28" style="stroke: #000000; stroke-width: 0.8"/>
      </g>
     </g>
     <g id="text_8">
      <!-- 5 -->
      <g transform="translate(4.6375 84.079219)scale(0.1 -0.1)">
       <use xlink:href="#DejaVuSans-35"/>
      </g>
     </g>
    </g>
    <g id="ytick_6">
     <g id="line2d_9">
      <g>
       <use xlink:href="#m0fbcea228c" x="18" y="53.1" style="stroke: #000000; stroke-width: 0.8"/>
      </g>
     </g>
     <g id="text_9">
      <!-- 10 -->
      <g transform="translate(-1.725 56.899219)scale(0.1 -0.1)">
       <use xlink:href="#DejaVuSans-31"/>
       <use xlink:href="#DejaVuSans-30" x="63.623047"/>
      </g>
     </g>
    </g>
    <g id="ytick_7">
     <g id="line2d_10">
      <g>
       <use xlink:href="#m0fbcea228c" x="18" y="25.92" style="stroke: #000000; stroke-width: 0.8"/>
      </g>
     </g>
     <g id="text_10">
      <!-- 15 -->
      <g transform="translate(-1.725 29.719219)scale(0.1 -0.1)">
       <use xlink:href="#DejaVuSans-31"/>
       <use xlink:href="#DejaVuSans-35" x="63.623047"/>
      </g>
     </g>
    </g>
   </g>
   <g id="patch_3">
    <path d="M 18 189 
L 18 25.92 
" style="fill: none; stroke: #000000; stroke-width: 0.8; stroke-linejoin: miter; stroke-linecap: square"/>
   </g>
   <g id="patch_4">
    <path d="M 129.6 189 
L 129.6 25.92 
" style="fill: none; stroke: #000000; stroke-width: 0.8; stroke-linejoin: miter; stroke-linecap: square"/>
   </g>
   <g id="patch_5">
    <path d="M 18 189 
L 129.6 189 
" style="fill: none; stroke: #000000; stroke-width: 0.8; stroke-linejoin: miter; stroke-linecap: square"/>
   </g>
   <g id="patch_6">
    <path d="M 18 25.92 
L 129.6 25.92 
" style="fill: none; stroke: #000000; stroke-width: 0.8; stroke-linejoin: miter; stroke-linecap: square"/>
   </g>
  </g>
 </g>
 <defs>
  <clipPath id="p21f4c1b434">
   <rect x="18" y="25.92" width="111.6" height="163.08"/>
  </clipPath>
 </defs>
</svg>
