<?xml version="1.0" encoding="utf-8" standalone="no"?>
<!DOCTYPE svg PUBLIC "-//W3C//DTD SVG 1.1//EN"
  "http://www.w3.org/Graphics/SVG/1.1/DTD/svg11.dtd">
<svg xmlns:xlink="http://www.w3.org/1999/xlink" width="144pt" height="216pt" viewBox="0 0 144 216" xmlns="http://www.w3.org/2000/svg" version="1.1">
 <metadata>
  <rdf:RDF xmlns:dc="http://purl.org/dc/elements/1.1/" xmlns:cc="http://creativecommons.org/ns#" xmlns:rdf="http://www.w3.org/1999/02/22-rdf-syntax-ns#">
   <cc:Work>
    <dc:type rdf:resource="http://purl.org/dc/dcmitype/StillImage"/>
    <dc:date>2022-06-28T09:17:55.830664</dc:date>
    <dc:format>image/svg+xml</dc:format>
    <dc:creator>
     <cc:Agent>
      <dc:title>Matplotlib v3.5.1, https://matplotlib.org/</dc:title>
     </cc:Agent>
    </dc:creator>
   </cc:Work>
  </rdf:RDF>
 </metadata>
 <defs>
  <style type="text/css">*{stroke-linejoin: round; stroke-linecap: butt}</style>
 </defs>
 <g id="figure_1">
  <g id="patch_1">
   <path d="M 0 216 
L 144 216 
L 144 0 
L 0 0 
L 0 216 
z
" style="fill: none"/>
  </g>
  <g id="axes_1">
   <g id="patch_2">
    <path d="M 18 189 
L 129.6 189 
L 129.6 25.92 
L 18 25.92 
z
" style="fill: #ffffff"/>
   </g>
   <g id="PathCollection_1">
    <defs>
     <path id="m802689e386" d="M 0 2.738613 
C 0.726289 2.738613 1.422928 2.450055 1.936492 1.936492 
C 2.450055 1.422928 2.738613 0.726289 2.738613 0 
C 2.738613 -0.726289 2.450055 -1.422928 1.936492 -1.936492 
C 1.422928 -2.450055 0.726289 -2.738613 0 -2.738613 
C -0.726289 -2.738613 -1.422928 -2.450055 -1.936492 -1.936492 
C -2.450055 -1.422928 -2.738613 -0.726289 -2.738613 0 
C -2.738613 0.726289 -2.450055 1.422928 -1.936492 1.936492 
C -1.422928 2.450055 -0.726289 2.738613 0 2.738613 
z
" style="stroke: #ff0000; stroke-width: 1.75"/>
    </defs>
    <g clip-path="url(#p11ea407b54)">
     <use xlink:href="#m802689e386" x="66.825" y="83.92143" style="fill: #ff0000; stroke: #ff0000; stroke-width: 1.75"/>
     <use xlink:href="#m802689e386" x="87.75" y="95.690715" style="fill: #ff0000; stroke: #ff0000; stroke-width: 1.75"/>
     <use xlink:href="#m802689e386" x="66.825" y="107.46" style="fill: #ff0000; stroke: #ff0000; stroke-width: 1.75"/>
     <use xlink:href="#m802689e386" x="73.8" y="119.229285" style="fill: #ff0000; stroke: #ff0000; stroke-width: 1.75"/>
     <use xlink:href="#m802689e386" x="87.75" y="119.229285" style="fill: #ff0000; stroke: #ff0000; stroke-width: 1.75"/>
     <use xlink:href="#m802689e386" x="66.825" y="130.99857" style="fill: #ff0000; stroke: #ff0000; stroke-width: 1.75"/>
     <use xlink:href="#m802689e386" x="80.775" y="130.99857" style="fill: #ff0000; stroke: #ff0000; stroke-width: 1.75"/>
    </g>
   </g>
   <g id="PathCollection_2">
    <defs>
     <path id="C0_0_c16c00e1b2" d="M 0 2.738613 
C 0.726289 2.738613 1.422928 2.450055 1.936492 1.936492 
C 2.450055 1.422928 2.738613 0.726289 2.738613 -0 
C 2.738613 -0.726289 2.450055 -1.422928 1.936492 -1.936492 
C 1.422928 -2.450055 0.726289 -2.738613 0 -2.738613 
C -0.726289 -2.738613 -1.422928 -2.450055 -1.936492 -1.936492 
C -2.450055 -1.422928 -2.738613 -0.726289 -2.738613 0 
C -2.738613 0.726289 -2.450055 1.422928 -1.936492 1.936492 
C -1.422928 2.450055 -0.726289 2.738613 0 2.738613 
z
"/>
    </defs>
    <g clip-path="url(#p11ea407b54)">
     <use xlink:href="#C0_0_c16c00e1b2" x="80.775" y="83.92143" style="fill: none; stroke: #ff0000; stroke-width: 1.75"/>
    </g>
    <g clip-path="url(#p11ea407b54)">
     <use xlink:href="#C0_0_c16c00e1b2" x="59.85" y="95.690715" style="fill: none; stroke: #ff0000; stroke-width: 1.75"/>
    </g>
    <g clip-path="url(#p11ea407b54)">
     <use xlink:href="#C0_0_c16c00e1b2" x="73.8" y="95.690715" style="fill: none; stroke: #ff0000; stroke-width: 1.75"/>
    </g>
    <g clip-path="url(#p11ea407b54)">
     <use xlink:href="#C0_0_c16c00e1b2" x="52.875" y="107.46" style="fill: none; stroke: #ff0000; stroke-width: 1.75"/>
    </g>
    <g clip-path="url(#p11ea407b54)">
     <use xlink:href="#C0_0_c16c00e1b2" x="80.775" y="107.46" style="fill: none; stroke: #ff0000; stroke-width: 1.75"/>
    </g>
    <g clip-path="url(#p11ea407b54)">
     <use xlink:href="#C0_0_c16c00e1b2" x="94.725" y="107.46" style="fill: none; stroke: #ff0000; stroke-width: 1.75"/>
    </g>
    <g clip-path="url(#p11ea407b54)">
     <use xlink:href="#C0_0_c16c00e1b2" x="59.85" y="119.229285" style="fill: none; stroke: #ff0000; stroke-width: 1.75"/>
    </g>
   </g>
   <g id="PathCollection_3">
    <path d="M 110.898973 123.310394 
C 111.056663 123.310394 111.207917 123.247743 111.319421 123.136239 
C 111.430925 123.024734 111.493576 122.873481 111.493576 122.71579 
C 111.493576 122.5581 111.430925 122.406846 111.319421 122.295342 
C 111.207917 122.183838 111.056663 122.121187 110.898973 122.121187 
C 110.741282 122.121187 110.590029 122.183838 110.478525 122.295342 
C 110.36702 122.406846 110.304369 122.5581 110.304369 122.71579 
C 110.304369 122.873481 110.36702 123.024734 110.478525 123.136239 
C 110.590029 123.247743 110.741282 123.310394 110.898973 123.310394 
z
" clip-path="url(#p11ea407b54)" style="stroke: #000000"/>
    <path d="M 93.736361 104.958694 
C 93.943894 104.958694 94.142954 104.87624 94.289702 104.729492 
C 94.43645 104.582745 94.518903 104.383684 94.518903 104.176151 
C 94.518903 103.968619 94.43645 103.769558 94.289702 103.62281 
C 94.142954 103.476063 93.943894 103.393609 93.736361 103.393609 
C 93.528829 103.393609 93.329768 103.476063 93.18302 103.62281 
C 93.036272 103.769558 92.953819 103.968619 92.953819 104.176151 
C 92.953819 104.383684 93.036272 104.582745 93.18302 104.729492 
C 93.329768 104.87624 93.528829 104.958694 93.736361 104.958694 
z
" clip-path="url(#p11ea407b54)" style="stroke: #000000"/>
    <path d="M 91.109096 96.65466 
C 91.475032 96.65466 91.82603 96.509272 92.084786 96.250516 
C 92.343542 95.99176 92.48893 95.640762 92.48893 95.274826 
C 92.48893 94.908889 92.343542 94.557891 92.084786 94.299135 
C 91.82603 94.040379 91.475032 93.894991 91.109096 93.894991 
C 90.743159 93.894991 90.392161 94.040379 90.133405 94.299135 
C 89.874649 94.557891 89.729261 94.908889 89.729261 95.274826 
C 89.729261 95.640762 89.874649 95.99176 90.133405 96.250516 
C 90.392161 96.509272 90.743159 96.65466 91.109096 96.65466 
z
" clip-path="url(#p11ea407b54)" style="stroke: #000000"/>
    <path d="M 86.37681 81.26295 
C 86.509411 81.26295 86.636599 81.210267 86.730363 81.116503 
C 86.824126 81.02274 86.87681 80.895551 86.87681 80.76295 
C 86.87681 80.630348 86.824126 80.50316 86.730363 80.409396 
C 86.636599 80.315633 86.509411 80.26295 86.37681 80.26295 
C 86.244208 80.26295 86.11702 80.315633 86.023256 80.409396 
C 85.929493 80.50316 85.87681 80.630348 85.87681 80.76295 
C 85.87681 80.895551 85.929493 81.02274 86.023256 81.116503 
C 86.11702 81.210267 86.244208 81.26295 86.37681 81.26295 
z
" clip-path="url(#p11ea407b54)" style="stroke: #000000"/>
    <path d="M 86.302143 97.684596 
C 86.604409 97.684596 86.894336 97.564504 87.10807 97.35077 
C 87.321805 97.137035 87.441896 96.847108 87.441896 96.544842 
C 87.441896 96.242576 87.321805 95.952649 87.10807 95.738915 
C 86.894336 95.52518 86.604409 95.405089 86.302143 95.405089 
C 85.999877 95.405089 85.70995 95.52518 85.496215 95.738915 
C 85.282481 95.952649 85.162389 96.242576 85.162389 96.544842 
C 85.162389 96.847108 85.282481 97.137035 85.496215 97.35077 
C 85.70995 97.564504 85.999877 97.684596 86.302143 97.684596 
z
" clip-path="url(#p11ea407b54)" style="stroke: #000000"/>
    <path d="M 81.23351 84.791682 
C 81.806232 84.791682 82.355573 84.564137 82.760548 84.159162 
C 83.165523 83.754187 83.393068 83.204845 83.393068 82.632124 
C 83.393068 82.059402 83.165523 81.510061 82.760548 81.105086 
C 82.355573 80.700111 81.806232 80.472566 81.23351 80.472566 
C 80.660789 80.472566 80.111448 80.700111 79.706472 81.105086 
C 79.301497 81.510061 79.073953 82.059402 79.073953 82.632124 
C 79.073953 83.204845 79.301497 83.754187 79.706472 84.159162 
C 80.111448 84.564137 80.660789 84.791682 81.23351 84.791682 
z
" clip-path="url(#p11ea407b54)" style="stroke: #000000"/>
    <path d="M 87.958867 120.037646 
C 88.181875 120.037646 88.39578 119.949044 88.55347 119.791353 
C 88.711161 119.633662 88.799763 119.419758 88.799763 119.196749 
C 88.799763 118.973741 88.711161 118.759836 88.55347 118.602146 
C 88.39578 118.444455 88.181875 118.355853 87.958867 118.355853 
C 87.735858 118.355853 87.521954 118.444455 87.364263 118.602146 
C 87.206572 118.759836 87.11797 118.973741 87.11797 119.196749 
C 87.11797 119.419758 87.206572 119.633662 87.364263 119.791353 
C 87.521954 119.949044 87.735858 120.037646 87.958867 120.037646 
z
" clip-path="url(#p11ea407b54)" style="stroke: #000000"/>
    <path d="M 84.924491 109.428257 
C 85.122776 109.428257 85.312967 109.349478 85.453176 109.209269 
C 85.593385 109.069059 85.672165 108.878868 85.672165 108.680583 
C 85.672165 108.482297 85.593385 108.292106 85.453176 108.151897 
C 85.312967 108.011688 85.122776 107.932909 84.924491 107.932909 
C 84.726205 107.932909 84.536014 108.011688 84.395805 108.151897 
C 84.255596 108.292106 84.176816 108.482297 84.176816 108.680583 
C 84.176816 108.878868 84.255596 109.069059 84.395805 109.209269 
C 84.536014 109.349478 84.726205 109.428257 84.924491 109.428257 
z
" clip-path="url(#p11ea407b54)" style="stroke: #000000"/>
    <path d="M 85.327526 106.676556 
C 85.535059 106.676556 85.734119 106.594102 85.880867 106.447354 
C 86.027615 106.300607 86.110068 106.101546 86.110068 105.894013 
C 86.110068 105.686481 86.027615 105.48742 85.880867 105.340673 
C 85.734119 105.193925 85.535059 105.111471 85.327526 105.111471 
C 85.119993 105.111471 84.920933 105.193925 84.774185 105.340673 
C 84.627437 105.48742 84.544984 105.686481 84.544984 105.894013 
C 84.544984 106.101546 84.627437 106.300607 84.774185 106.447354 
C 84.920933 106.594102 85.119993 106.676556 85.327526 106.676556 
z
" clip-path="url(#p11ea407b54)" style="stroke: #000000"/>
    <path d="M 80.581909 108.087297 
C 80.919477 108.087297 81.243264 107.95318 81.481961 107.714484 
C 81.720657 107.475787 81.854774 107.152 81.854774 106.814432 
C 81.854774 106.476864 81.720657 106.153077 81.481961 105.914381 
C 81.243264 105.675684 80.919477 105.541567 80.581909 105.541567 
C 80.244341 105.541567 79.920554 105.675684 79.681858 105.914381 
C 79.443161 106.153077 79.309044 106.476864 79.309044 106.814432 
C 79.309044 107.152 79.443161 107.475787 79.681858 107.714484 
C 79.920554 107.95318 80.244341 108.087297 80.581909 108.087297 
z
" clip-path="url(#p11ea407b54)" style="stroke: #000000"/>
    <path d="M 75.053694 95.047262 
C 75.404525 95.047262 75.741033 94.907875 75.989108 94.6598 
C 76.237183 94.411726 76.376569 94.075217 76.376569 93.724386 
C 76.376569 93.373555 76.237183 93.037046 75.989108 92.788972 
C 75.741033 92.540897 75.404525 92.40151 75.053694 92.40151 
C 74.702863 92.40151 74.366354 92.540897 74.118279 92.788972 
C 73.870205 93.037046 73.730818 93.373555 73.730818 93.724386 
C 73.730818 94.075217 73.870205 94.411726 74.118279 94.6598 
C 74.366354 94.907875 74.702863 95.047262 75.053694 95.047262 
z
" clip-path="url(#p11ea407b54)" style="stroke: #000000"/>
    <path d="M 74.752758 91.757226 
C 74.88536 91.757226 75.012548 91.704542 75.106311 91.610779 
C 75.200075 91.517016 75.252758 91.389827 75.252758 91.257226 
C 75.252758 91.124624 75.200075 90.997436 75.106311 90.903672 
C 75.012548 90.809909 74.88536 90.757226 74.752758 90.757226 
C 74.620157 90.757226 74.492968 90.809909 74.399205 90.903672 
C 74.305441 90.997436 74.252758 91.124624 74.252758 91.257226 
C 74.252758 91.389827 74.305441 91.517016 74.399205 91.610779 
C 74.492968 91.704542 74.620157 91.757226 74.752758 91.757226 
z
" clip-path="url(#p11ea407b54)" style="stroke: #000000"/>
    <path d="M 68.394154 76.862657 
C 68.526756 76.862657 68.653944 76.809974 68.747707 76.71621 
C 68.841471 76.622447 68.894154 76.495259 68.894154 76.362657 
C 68.894154 76.230056 68.841471 76.102867 68.747707 76.009104 
C 68.653944 75.91534 68.526756 75.862657 68.394154 75.862657 
C 68.261552 75.862657 68.134364 75.91534 68.040601 76.009104 
C 67.946837 76.102867 67.894154 76.230056 67.894154 76.362657 
C 67.894154 76.495259 67.946837 76.622447 68.040601 76.71621 
C 68.134364 76.809974 68.261552 76.862657 68.394154 76.862657 
z
" clip-path="url(#p11ea407b54)" style="stroke: #000000"/>
    <path d="M 71.289264 96.068981 
C 71.805657 96.068981 72.30097 95.863816 72.666115 95.498671 
C 73.03126 95.133525 73.236425 94.638213 73.236425 94.12182 
C 73.236425 93.605426 73.03126 93.110114 72.666115 92.744969 
C 72.30097 92.379823 71.805657 92.174658 71.289264 92.174658 
C 70.772871 92.174658 70.277558 92.379823 69.912413 92.744969 
C 69.547268 93.110114 69.342102 93.605426 69.342102 94.12182 
C 69.342102 94.638213 69.547268 95.133525 69.912413 95.498671 
C 70.277558 95.863816 70.772871 96.068981 71.289264 96.068981 
z
" clip-path="url(#p11ea407b54)" style="stroke: #000000"/>
    <path d="M 67.002823 88.181645 
C 67.210355 88.181645 67.409416 88.099191 67.556164 87.952444 
C 67.702911 87.805696 67.785365 87.606635 67.785365 87.399103 
C 67.785365 87.19157 67.702911 86.992509 67.556164 86.845762 
C 67.409416 86.699014 67.210355 86.61656 67.002823 86.61656 
C 66.79529 86.61656 66.596229 86.699014 66.449482 86.845762 
C 66.302734 86.992509 66.22028 87.19157 66.22028 87.399103 
C 66.22028 87.606635 66.302734 87.805696 66.449482 87.952444 
C 66.596229 88.099191 66.79529 88.181645 67.002823 88.181645 
z
" clip-path="url(#p11ea407b54)" style="stroke: #000000"/>
    <path d="M 67.424137 85.131681 
C 67.556739 85.131681 67.683927 85.078998 67.77769 84.985234 
C 67.871454 84.891471 67.924137 84.764282 67.924137 84.631681 
C 67.924137 84.499079 67.871454 84.371891 67.77769 84.278128 
C 67.683927 84.184364 67.556739 84.131681 67.424137 84.131681 
C 67.291535 84.131681 67.164347 84.184364 67.070584 84.278128 
C 66.97682 84.371891 66.924137 84.499079 66.924137 84.631681 
C 66.924137 84.764282 66.97682 84.891471 67.070584 84.985234 
C 67.164347 85.078998 67.291535 85.131681 67.424137 85.131681 
z
" clip-path="url(#p11ea407b54)" style="stroke: #000000"/>
    <path d="M 61.56613 70.456144 
C 61.698732 70.456144 61.82592 70.403461 61.919683 70.309697 
C 62.013447 70.215934 62.06613 70.088745 62.06613 69.956144 
C 62.06613 69.823542 62.013447 69.696354 61.919683 69.60259 
C 61.82592 69.508827 61.698732 69.456144 61.56613 69.456144 
C 61.433529 69.456144 61.30634 69.508827 61.212577 69.60259 
C 61.118813 69.696354 61.06613 69.823542 61.06613 69.956144 
C 61.06613 70.088745 61.118813 70.215934 61.212577 70.309697 
C 61.30634 70.403461 61.433529 70.456144 61.56613 70.456144 
z
" clip-path="url(#p11ea407b54)" style="stroke: #000000"/>
    <path d="M 64.062372 88.218695 
C 64.236886 88.218695 64.404275 88.14936 64.527675 88.02596 
C 64.651074 87.902561 64.720409 87.735171 64.720409 87.560658 
C 64.720409 87.386144 64.651074 87.218755 64.527675 87.095355 
C 64.404275 86.971956 64.236886 86.902621 64.062372 86.902621 
C 63.887859 86.902621 63.720469 86.971956 63.59707 87.095355 
C 63.47367 87.218755 63.404335 87.386144 63.404335 87.560658 
C 63.404335 87.735171 63.47367 87.902561 63.59707 88.02596 
C 63.720469 88.14936 63.887859 88.218695 64.062372 88.218695 
z
" clip-path="url(#p11ea407b54)" style="stroke: #000000"/>
    <path d="M 60.942442 81.640161 
C 61.116955 81.640161 61.284345 81.570827 61.407744 81.447427 
C 61.531144 81.324027 61.600479 81.156638 61.600479 80.982124 
C 61.600479 80.807611 61.531144 80.640222 61.407744 80.516822 
C 61.284345 80.393422 61.116955 80.324087 60.942442 80.324087 
C 60.767928 80.324087 60.600539 80.393422 60.477139 80.516822 
C 60.35374 80.640222 60.284405 80.807611 60.284405 80.982124 
C 60.284405 81.156638 60.35374 81.324027 60.477139 81.447427 
C 60.600539 81.570827 60.767928 81.640161 60.942442 81.640161 
z
" clip-path="url(#p11ea407b54)" style="stroke: #000000"/>
    <path d="M 70.466825 122.027691 
C 70.867063 122.027691 71.250962 121.868675 71.533973 121.585664 
C 71.816984 121.302653 71.976 120.918754 71.976 120.518516 
C 71.976 120.118278 71.816984 119.734379 71.533973 119.451368 
C 71.250962 119.168357 70.867063 119.009341 70.466825 119.009341 
C 70.066587 119.009341 69.682688 119.168357 69.399677 119.451368 
C 69.116667 119.734379 68.95765 120.118278 68.95765 120.518516 
C 68.95765 120.918754 69.116667 121.302653 69.399677 121.585664 
C 69.682688 121.868675 70.066587 122.027691 70.466825 122.027691 
z
" clip-path="url(#p11ea407b54)" style="stroke: #000000"/>
    <path d="M 69.433652 117.673419 
C 69.735918 117.673419 70.025845 117.553327 70.239579 117.339593 
C 70.453314 117.125859 70.573405 116.835932 70.573405 116.533666 
C 70.573405 116.231399 70.453314 115.941473 70.239579 115.727738 
C 70.025845 115.514004 69.735918 115.393912 69.433652 115.393912 
C 69.131385 115.393912 68.841459 115.514004 68.627724 115.727738 
C 68.41399 115.941473 68.293898 116.231399 68.293898 116.533666 
C 68.293898 116.835932 68.41399 117.125859 68.627724 117.339593 
C 68.841459 117.553327 69.131385 117.673419 69.433652 117.673419 
z
" clip-path="url(#p11ea407b54)" style="stroke: #000000"/>
    <path d="M 68.20324 132.00554 
C 68.775962 132.00554 69.325303 131.777995 69.730278 131.37302 
C 70.135253 130.968045 70.362798 130.418703 70.362798 129.845982 
C 70.362798 129.273261 70.135253 128.723919 69.730278 128.318944 
C 69.325303 127.913969 68.775962 127.686424 68.20324 127.686424 
C 67.630519 127.686424 67.081177 127.913969 66.676202 128.318944 
C 66.271227 128.723919 66.043682 129.273261 66.043682 129.845982 
C 66.043682 130.418703 66.271227 130.968045 66.676202 131.37302 
C 67.081177 131.777995 67.630519 132.00554 68.20324 132.00554 
z
" clip-path="url(#p11ea407b54)" style="stroke: #000000"/>
    <path d="M 61.209042 110.027629 
C 61.416575 110.027629 61.615636 109.945175 61.762383 109.798428 
C 61.909131 109.65168 61.991585 109.452619 61.991585 109.245087 
C 61.991585 109.037554 61.909131 108.838493 61.762383 108.691746 
C 61.615636 108.544998 61.416575 108.462544 61.209042 108.462544 
C 61.00151 108.462544 60.802449 108.544998 60.655701 108.691746 
C 60.508954 108.838493 60.4265 109.037554 60.4265 109.245087 
C 60.4265 109.452619 60.508954 109.65168 60.655701 109.798428 
C 60.802449 109.945175 61.00151 110.027629 61.209042 110.027629 
z
" clip-path="url(#p11ea407b54)" style="stroke: #000000"/>
    <path d="M 59.625191 123.817451 
C 59.991127 123.817451 60.342125 123.672063 60.600881 123.413307 
C 60.859637 123.154551 61.005025 122.803553 61.005025 122.437617 
C 61.005025 122.07168 60.859637 121.720683 60.600881 121.461927 
C 60.342125 121.20317 59.991127 121.057782 59.625191 121.057782 
C 59.259254 121.057782 58.908257 121.20317 58.649501 121.461927 
C 58.390744 121.720683 58.245356 122.07168 58.245356 122.437617 
C 58.245356 122.803553 58.390744 123.154551 58.649501 123.413307 
C 58.908257 123.672063 59.259254 123.817451 59.625191 123.817451 
z
" clip-path="url(#p11ea407b54)" style="stroke: #000000"/>
    <path d="M 49.569168 110.227163 
C 50.083869 110.227163 50.577558 110.02267 50.941507 109.658722 
C 51.305456 109.294773 51.509948 108.801083 51.509948 108.286382 
C 51.509948 107.771681 51.305456 107.277992 50.941507 106.914043 
C 50.577558 106.550095 50.083869 106.345602 49.569168 106.345602 
C 49.054467 106.345602 48.560777 106.550095 48.196828 106.914043 
C 47.83288 107.277992 47.628387 107.771681 47.628387 108.286382 
C 47.628387 108.801083 47.83288 109.294773 48.196828 109.658722 
C 48.560777 110.02267 49.054467 110.227163 49.569168 110.227163 
z
" clip-path="url(#p11ea407b54)" style="stroke: #000000"/>
   </g>
   <g id="matplotlib.axis_1">
    <g id="xtick_1">
     <g id="line2d_1">
      <defs>
       <path id="mf7972c060f" d="M 0 0 
L 0 3.5 
" style="stroke: #000000; stroke-width: 0.8"/>
      </defs>
      <g>
       <use xlink:href="#mf7972c060f" x="18" y="189" style="stroke: #000000; stroke-width: 0.8"/>
      </g>
     </g>
     <g id="text_1">
      <!-- −10 -->
      <g transform="translate(7.447656 203.598437)scale(0.1 -0.1)">
       <defs>
        <path id="DejaVuSans-2212" d="M 678 2272 
L 4684 2272 
L 4684 1741 
L 678 1741 
L 678 2272 
z
" transform="scale(0.015625)"/>
        <path id="DejaVuSans-31" d="M 794 531 
L 1825 531 
L 1825 4091 
L 703 3866 
L 703 4441 
L 1819 4666 
L 2450 4666 
L 2450 531 
L 3481 531 
L 3481 0 
L 794 0 
L 794 531 
z
" transform="scale(0.015625)"/>
        <path id="DejaVuSans-30" d="M 2034 4250 
Q 1547 4250 1301 3770 
Q 1056 3291 1056 2328 
Q 1056 1369 1301 889 
Q 1547 409 2034 409 
Q 2525 409 2770 889 
Q 3016 1369 3016 2328 
Q 3016 3291 2770 3770 
Q 2525 4250 2034 4250 
z
M 2034 4750 
Q 2819 4750 3233 4129 
Q 3647 3509 3647 2328 
Q 3647 1150 3233 529 
Q 2819 -91 2034 -91 
Q 1250 -91 836 529 
Q 422 1150 422 2328 
Q 422 3509 836 4129 
Q 1250 4750 2034 4750 
z
" transform="scale(0.015625)"/>
       </defs>
       <use xlink:href="#DejaVuSans-2212"/>
       <use xlink:href="#DejaVuSans-31" x="83.789062"/>
       <use xlink:href="#DejaVuSans-30" x="147.412109"/>
      </g>
     </g>
    </g>
    <g id="xtick_2">
     <g id="line2d_2">
      <g>
       <use xlink:href="#mf7972c060f" x="73.8" y="189" style="stroke: #000000; stroke-width: 0.8"/>
      </g>
     </g>
     <g id="text_2">
      <!-- 0 -->
      <g transform="translate(70.61875 203.598437)scale(0.1 -0.1)">
       <use xlink:href="#DejaVuSans-30"/>
      </g>
     </g>
    </g>
    <g id="xtick_3">
     <g id="line2d_3">
      <g>
       <use xlink:href="#mf7972c060f" x="129.6" y="189" style="stroke: #000000; stroke-width: 0.8"/>
      </g>
     </g>
     <g id="text_3">
      <!-- 10 -->
      <g transform="translate(123.2375 203.598437)scale(0.1 -0.1)">
       <use xlink:href="#DejaVuSans-31"/>
       <use xlink:href="#DejaVuSans-30" x="63.623047"/>
      </g>
     </g>
    </g>
   </g>
   <g id="matplotlib.axis_2">
    <g id="ytick_1">
     <g id="line2d_4">
      <defs>
       <path id="mc32aec77d1" d="M 0 0 
L -3.5 0 
" style="stroke: #000000; stroke-width: 0.8"/>
      </defs>
      <g>
       <use xlink:href="#mc32aec77d1" x="18" y="189" style="stroke: #000000; stroke-width: 0.8"/>
      </g>
     </g>
     <g id="text_4">
      <!-- −15 -->
      <g transform="translate(-10.104688 192.799219)scale(0.1 -0.1)">
       <defs>
        <path id="DejaVuSans-35" d="M 691 4666 
L 3169 4666 
L 3169 4134 
L 1269 4134 
L 1269 2991 
Q 1406 3038 1543 3061 
Q 1681 3084 1819 3084 
Q 2600 3084 3056 2656 
Q 3513 2228 3513 1497 
Q 3513 744 3044 326 
Q 2575 -91 1722 -91 
Q 1428 -91 1123 -41 
Q 819 9 494 109 
L 494 744 
Q 775 591 1075 516 
Q 1375 441 1709 441 
Q 2250 441 2565 725 
Q 2881 1009 2881 1497 
Q 2881 1984 2565 2268 
Q 2250 2553 1709 2553 
Q 1456 2553 1204 2497 
Q 953 2441 691 2322 
L 691 4666 
z
" transform="scale(0.015625)"/>
       </defs>
       <use xlink:href="#DejaVuSans-2212"/>
       <use xlink:href="#DejaVuSans-31" x="83.789062"/>
       <use xlink:href="#DejaVuSans-35" x="147.412109"/>
      </g>
     </g>
    </g>
    <g id="ytick_2">
     <g id="line2d_5">
      <g>
       <use xlink:href="#mc32aec77d1" x="18" y="161.82" style="stroke: #000000; stroke-width: 0.8"/>
      </g>
     </g>
     <g id="text_5">
      <!-- −10 -->
      <g transform="translate(-10.104688 165.619219)scale(0.1 -0.1)">
       <use xlink:href="#DejaVuSans-2212"/>
       <use xlink:href="#DejaVuSans-31" x="83.789062"/>
       <use xlink:href="#DejaVuSans-30" x="147.412109"/>
      </g>
     </g>
    </g>
    <g id="ytick_3">
     <g id="line2d_6">
      <g>
       <use xlink:href="#mc32aec77d1" x="18" y="134.64" style="stroke: #000000; stroke-width: 0.8"/>
      </g>
     </g>
     <g id="text_6">
      <!-- −5 -->
      <g transform="translate(-3.742188 138.439219)scale(0.1 -0.1)">
       <use xlink:href="#DejaVuSans-2212"/>
       <use xlink:href="#DejaVuSans-35" x="83.789062"/>
      </g>
     </g>
    </g>
    <g id="ytick_4">
     <g id="line2d_7">
      <g>
       <use xlink:href="#mc32aec77d1" x="18" y="107.46" style="stroke: #000000; stroke-width: 0.8"/>
      </g>
     </g>
     <g id="text_7">
      <!-- 0 -->
      <g transform="translate(4.6375 111.259219)scale(0.1 -0.1)">
       <use xlink:href="#DejaVuSans-30"/>
      </g>
     </g>
    </g>
    <g id="ytick_5">
     <g id="line2d_8">
      <g>
       <use xlink:href="#mc32aec77d1" x="18" y="80.28" style="stroke: #000000; stroke-width: 0.8"/>
      </g>
     </g>
     <g id="text_8">
      <!-- 5 -->
      <g transform="translate(4.6375 84.079219)scale(0.1 -0.1)">
       <use xlink:href="#DejaVuSans-35"/>
      </g>
     </g>
    </g>
    <g id="ytick_6">
     <g id="line2d_9">
      <g>
       <use xlink:href="#mc32aec77d1" x="18" y="53.1" style="stroke: #000000; stroke-width: 0.8"/>
      </g>
     </g>
     <g id="text_9">
      <!-- 10 -->
      <g transform="translate(-1.725 56.899219)scale(0.1 -0.1)">
       <use xlink:href="#DejaVuSans-31"/>
       <use xlink:href="#DejaVuSans-30" x="63.623047"/>
      </g>
     </g>
    </g>
    <g id="ytick_7">
     <g id="line2d_10">
      <g>
       <use xlink:href="#mc32aec77d1" x="18" y="25.92" style="stroke: #000000; stroke-width: 0.8"/>
      </g>
     </g>
     <g id="text_10">
      <!-- 15 -->
      <g transform="translate(-1.725 29.719219)scale(0.1 -0.1)">
       <use xlink:href="#DejaVuSans-31"/>
       <use xlink:href="#DejaVuSans-35" x="63.623047"/>
      </g>
     </g>
    </g>
   </g>
   <g id="patch_3">
    <path d="M 18 189 
L 18 25.92 
" style="fill: none; stroke: #000000; stroke-width: 0.8; stroke-linejoin: miter; stroke-linecap: square"/>
   </g>
   <g id="patch_4">
    <path d="M 129.6 189 
L 129.6 25.92 
" style="fill: none; stroke: #000000; stroke-width: 0.8; stroke-linejoin: miter; stroke-linecap: square"/>
   </g>
   <g id="patch_5">
    <path d="M 18 189 
L 129.6 189 
" style="fill: none; stroke: #000000; stroke-width: 0.8; stroke-linejoin: miter; stroke-linecap: square"/>
   </g>
   <g id="patch_6">
    <path d="M 18 25.92 
L 129.6 25.92 
" style="fill: none; stroke: #000000; stroke-width: 0.8; stroke-linejoin: miter; stroke-linecap: square"/>
   </g>
  </g>
 </g>
 <defs>
  <clipPath id="p11ea407b54">
   <rect x="18" y="25.92" width="111.6" height="163.08"/>
  </clipPath>
 </defs>
</svg>
