<?xml version="1.0" encoding="utf-8" standalone="no"?>
<!DOCTYPE svg PUBLIC "-//W3C//DTD SVG 1.1//EN"
  "http://www.w3.org/Graphics/SVG/1.1/DTD/svg11.dtd">
<svg xmlns:xlink="http://www.w3.org/1999/xlink" width="144pt" height="216pt" viewBox="0 0 144 216" xmlns="http://www.w3.org/2000/svg" version="1.1">
 <metadata>
  <rdf:RDF xmlns:dc="http://purl.org/dc/elements/1.1/" xmlns:cc="http://creativecommons.org/ns#" xmlns:rdf="http://www.w3.org/1999/02/22-rdf-syntax-ns#">
   <cc:Work>
    <dc:type rdf:resource="http://purl.org/dc/dcmitype/StillImage"/>
    <dc:date>2022-06-28T09:17:44.800631</dc:date>
    <dc:format>image/svg+xml</dc:format>
    <dc:creator>
     <cc:Agent>
      <dc:title>Matplotlib v3.5.1, https://matplotlib.org/</dc:title>
     </cc:Agent>
    </dc:creator>
   </cc:Work>
  </rdf:RDF>
 </metadata>
 <defs>
  <style type="text/css">*{stroke-linejoin: round; stroke-linecap: butt}</style>
 </defs>
 <g id="figure_1">
  <g id="patch_1">
   <path d="M 0 216 
L 144 216 
L 144 0 
L 0 0 
L 0 216 
z
" style="fill: none"/>
  </g>
  <g id="axes_1">
   <g id="patch_2">
    <path d="M 18 189 
L 129.6 189 
L 129.6 25.92 
L 18 25.92 
z
" style="fill: #ffffff"/>
   </g>
   <g id="PathCollection_1">
    <defs>
     <path id="m645ba0ddb5" d="M 0 2.738613 
C 0.726289 2.738613 1.422928 2.450055 1.936492 1.936492 
C 2.450055 1.422928 2.738613 0.726289 2.738613 0 
C 2.738613 -0.726289 2.450055 -1.422928 1.936492 -1.936492 
C 1.422928 -2.450055 0.726289 -2.738613 0 -2.738613 
C -0.726289 -2.738613 -1.422928 -2.450055 -1.936492 -1.936492 
C -2.450055 -1.422928 -2.738613 -0.726289 -2.738613 0 
C -2.738613 0.726289 -2.450055 1.422928 -1.936492 1.936492 
C -1.422928 2.450055 -0.726289 2.738613 0 2.738613 
z
" style="stroke: #ff0000; stroke-width: 1.75"/>
    </defs>
    <g clip-path="url(#p13df17eed2)">
     <use xlink:href="#m645ba0ddb5" x="66.825" y="83.92143" style="fill: #ff0000; stroke: #ff0000; stroke-width: 1.75"/>
     <use xlink:href="#m645ba0ddb5" x="87.75" y="95.690715" style="fill: #ff0000; stroke: #ff0000; stroke-width: 1.75"/>
     <use xlink:href="#m645ba0ddb5" x="66.825" y="107.46" style="fill: #ff0000; stroke: #ff0000; stroke-width: 1.75"/>
     <use xlink:href="#m645ba0ddb5" x="73.8" y="119.229285" style="fill: #ff0000; stroke: #ff0000; stroke-width: 1.75"/>
     <use xlink:href="#m645ba0ddb5" x="87.75" y="119.229285" style="fill: #ff0000; stroke: #ff0000; stroke-width: 1.75"/>
     <use xlink:href="#m645ba0ddb5" x="66.825" y="130.99857" style="fill: #ff0000; stroke: #ff0000; stroke-width: 1.75"/>
     <use xlink:href="#m645ba0ddb5" x="80.775" y="130.99857" style="fill: #ff0000; stroke: #ff0000; stroke-width: 1.75"/>
    </g>
   </g>
   <g id="PathCollection_2">
    <defs>
     <path id="C0_0_c7cf8c755c" d="M 0 2.738613 
C 0.726289 2.738613 1.422928 2.450055 1.936492 1.936492 
C 2.450055 1.422928 2.738613 0.726289 2.738613 -0 
C 2.738613 -0.726289 2.450055 -1.422928 1.936492 -1.936492 
C 1.422928 -2.450055 0.726289 -2.738613 0 -2.738613 
C -0.726289 -2.738613 -1.422928 -2.450055 -1.936492 -1.936492 
C -2.450055 -1.422928 -2.738613 -0.726289 -2.738613 0 
C -2.738613 0.726289 -2.450055 1.422928 -1.936492 1.936492 
C -1.422928 2.450055 -0.726289 2.738613 0 2.738613 
z
"/>
    </defs>
    <g clip-path="url(#p13df17eed2)">
     <use xlink:href="#C0_0_c7cf8c755c" x="80.775" y="83.92143" style="fill: none; stroke: #ff0000; stroke-width: 1.75"/>
    </g>
    <g clip-path="url(#p13df17eed2)">
     <use xlink:href="#C0_0_c7cf8c755c" x="59.85" y="95.690715" style="fill: none; stroke: #ff0000; stroke-width: 1.75"/>
    </g>
    <g clip-path="url(#p13df17eed2)">
     <use xlink:href="#C0_0_c7cf8c755c" x="73.8" y="95.690715" style="fill: none; stroke: #ff0000; stroke-width: 1.75"/>
    </g>
    <g clip-path="url(#p13df17eed2)">
     <use xlink:href="#C0_0_c7cf8c755c" x="52.875" y="107.46" style="fill: none; stroke: #ff0000; stroke-width: 1.75"/>
    </g>
    <g clip-path="url(#p13df17eed2)">
     <use xlink:href="#C0_0_c7cf8c755c" x="80.775" y="107.46" style="fill: none; stroke: #ff0000; stroke-width: 1.75"/>
    </g>
    <g clip-path="url(#p13df17eed2)">
     <use xlink:href="#C0_0_c7cf8c755c" x="94.725" y="107.46" style="fill: none; stroke: #ff0000; stroke-width: 1.75"/>
    </g>
    <g clip-path="url(#p13df17eed2)">
     <use xlink:href="#C0_0_c7cf8c755c" x="59.85" y="119.229285" style="fill: none; stroke: #ff0000; stroke-width: 1.75"/>
    </g>
   </g>
   <g id="PathCollection_3">
    <path d="M 112.966674 101.521756 
C 113.099276 101.521756 113.226464 101.469073 113.320227 101.375309 
C 113.413991 101.281546 113.466674 101.154358 113.466674 101.021756 
C 113.466674 100.889154 113.413991 100.761966 113.320227 100.668203 
C 113.226464 100.574439 113.099276 100.521756 112.966674 100.521756 
C 112.834072 100.521756 112.706884 100.574439 112.613121 100.668203 
C 112.519357 100.761966 112.466674 100.889154 112.466674 101.021756 
C 112.466674 101.154358 112.519357 101.281546 112.613121 101.375309 
C 112.706884 101.469073 112.834072 101.521756 112.966674 101.521756 
z
" clip-path="url(#p13df17eed2)" style="stroke: #000000"/>
    <path d="M 107.064914 87.855787 
C 107.197516 87.855787 107.324704 87.803104 107.418468 87.709341 
C 107.512231 87.615577 107.564914 87.488389 107.564914 87.355787 
C 107.564914 87.223186 107.512231 87.095997 107.418468 87.002234 
C 107.324704 86.908471 107.197516 86.855787 107.064914 86.855787 
C 106.932313 86.855787 106.805124 86.908471 106.711361 87.002234 
C 106.617597 87.095997 106.564914 87.223186 106.564914 87.355787 
C 106.564914 87.488389 106.617597 87.615577 106.711361 87.709341 
C 106.805124 87.803104 106.932313 87.855787 107.064914 87.855787 
z
" clip-path="url(#p13df17eed2)" style="stroke: #000000"/>
    <path d="M 108.020255 103.061713 
C 108.207782 103.061713 108.387653 102.987207 108.520255 102.854606 
C 108.652857 102.722004 108.727362 102.542133 108.727362 102.354606 
C 108.727362 102.167079 108.652857 101.987207 108.520255 101.854606 
C 108.387653 101.722004 108.207782 101.647499 108.020255 101.647499 
C 107.832728 101.647499 107.652857 101.722004 107.520255 101.854606 
C 107.387653 101.987207 107.313148 102.167079 107.313148 102.354606 
C 107.313148 102.542133 107.387653 102.722004 107.520255 102.854606 
C 107.652857 102.987207 107.832728 103.061713 108.020255 103.061713 
z
" clip-path="url(#p13df17eed2)" style="stroke: #000000"/>
    <path d="M 105.440217 97.988065 
C 105.627744 97.988065 105.807616 97.913559 105.940217 97.780958 
C 106.072819 97.648356 106.147324 97.468485 106.147324 97.280958 
C 106.147324 97.093431 106.072819 96.913559 105.940217 96.780958 
C 105.807616 96.648356 105.627744 96.573851 105.440217 96.573851 
C 105.25269 96.573851 105.072819 96.648356 104.940217 96.780958 
C 104.807616 96.913559 104.733111 97.093431 104.733111 97.280958 
C 104.733111 97.468485 104.807616 97.648356 104.940217 97.780958 
C 105.072819 97.913559 105.25269 97.988065 105.440217 97.988065 
z
" clip-path="url(#p13df17eed2)" style="stroke: #000000"/>
    <path d="M 103.933278 94.400569 
C 104.120805 94.400569 104.300677 94.326064 104.433278 94.193463 
C 104.56588 94.060861 104.640385 93.88099 104.640385 93.693463 
C 104.640385 93.505936 104.56588 93.326064 104.433278 93.193463 
C 104.300677 93.060861 104.120805 92.986356 103.933278 92.986356 
C 103.745751 92.986356 103.56588 93.060861 103.433278 93.193463 
C 103.300677 93.326064 103.226171 93.505936 103.226171 93.693463 
C 103.226171 93.88099 103.300677 94.060861 103.433278 94.193463 
C 103.56588 94.326064 103.745751 94.400569 103.933278 94.400569 
z
" clip-path="url(#p13df17eed2)" style="stroke: #000000"/>
    <path d="M 97.228911 63.475882 
C 97.386601 63.475882 97.537855 63.413231 97.649359 63.301727 
C 97.760863 63.190223 97.823514 63.038969 97.823514 62.881279 
C 97.823514 62.723588 97.760863 62.572335 97.649359 62.46083 
C 97.537855 62.349326 97.386601 62.286675 97.228911 62.286675 
C 97.07122 62.286675 96.919967 62.349326 96.808463 62.46083 
C 96.696958 62.572335 96.634307 62.723588 96.634307 62.881279 
C 96.634307 63.038969 96.696958 63.190223 96.808463 63.301727 
C 96.919967 63.413231 97.07122 63.475882 97.228911 63.475882 
z
" clip-path="url(#p13df17eed2)" style="stroke: #000000"/>
    <path d="M 104.738845 105.58226 
C 104.926372 105.58226 105.106243 105.507755 105.238845 105.375153 
C 105.371446 105.242552 105.445952 105.06268 105.445952 104.875153 
C 105.445952 104.687627 105.371446 104.507755 105.238845 104.375153 
C 105.106243 104.242552 104.926372 104.168047 104.738845 104.168047 
C 104.551318 104.168047 104.371446 104.242552 104.238845 104.375153 
C 104.106243 104.507755 104.031738 104.687627 104.031738 104.875153 
C 104.031738 105.06268 104.106243 105.242552 104.238845 105.375153 
C 104.371446 105.507755 104.551318 105.58226 104.738845 105.58226 
z
" clip-path="url(#p13df17eed2)" style="stroke: #000000"/>
    <path d="M 100.518438 96.344228 
C 100.765238 96.344228 101.001962 96.246174 101.176475 96.07166 
C 101.350989 95.897147 101.449043 95.660423 101.449043 95.413623 
C 101.449043 95.166824 101.350989 94.9301 101.176475 94.755586 
C 101.001962 94.581073 100.765238 94.483018 100.518438 94.483018 
C 100.271639 94.483018 100.034915 94.581073 99.860401 94.755586 
C 99.685888 94.9301 99.587834 95.166824 99.587834 95.413623 
C 99.587834 95.660423 99.685888 95.897147 99.860401 96.07166 
C 100.034915 96.246174 100.271639 96.344228 100.518438 96.344228 
z
" clip-path="url(#p13df17eed2)" style="stroke: #000000"/>
    <path d="M 93.462251 93.249038 
C 93.901129 93.249038 94.322091 93.07467 94.632424 92.764336 
C 94.942758 92.454003 95.117126 92.033041 95.117126 91.594163 
C 95.117126 91.155285 94.942758 90.734323 94.632424 90.423989 
C 94.322091 90.113655 93.901129 89.939287 93.462251 89.939287 
C 93.023372 89.939287 92.602411 90.113655 92.292077 90.423989 
C 91.981743 90.734323 91.807375 91.155285 91.807375 91.594163 
C 91.807375 92.033041 91.981743 92.454003 92.292077 92.764336 
C 92.602411 93.07467 93.023372 93.249038 93.462251 93.249038 
z
" clip-path="url(#p13df17eed2)" style="stroke: #000000"/>
    <path d="M 101.938849 121.308157 
C 102.199808 121.308157 102.450113 121.204477 102.634639 121.019951 
C 102.819164 120.835426 102.922844 120.58512 102.922844 120.324162 
C 102.922844 120.063203 102.819164 119.812898 102.634639 119.628372 
C 102.450113 119.443847 102.199808 119.340167 101.938849 119.340167 
C 101.677891 119.340167 101.427585 119.443847 101.24306 119.628372 
C 101.058534 119.812898 100.954854 120.063203 100.954854 120.324162 
C 100.954854 120.58512 101.058534 120.835426 101.24306 121.019951 
C 101.427585 121.204477 101.677891 121.308157 101.938849 121.308157 
z
" clip-path="url(#p13df17eed2)" style="stroke: #000000"/>
    <path d="M 96.490466 112.619059 
C 96.623067 112.619059 96.750256 112.566376 96.844019 112.472613 
C 96.937783 112.378849 96.990466 112.251661 96.990466 112.119059 
C 96.990466 111.986458 96.937783 111.85927 96.844019 111.765506 
C 96.750256 111.671743 96.623067 111.619059 96.490466 111.619059 
C 96.357864 111.619059 96.230676 111.671743 96.136912 111.765506 
C 96.043149 111.85927 95.990466 111.986458 95.990466 112.119059 
C 95.990466 112.251661 96.043149 112.378849 96.136912 112.472613 
C 96.230676 112.566376 96.357864 112.619059 96.490466 112.619059 
z
" clip-path="url(#p13df17eed2)" style="stroke: #000000"/>
    <path d="M 93.736361 105.492225 
C 94.085388 105.492225 94.420167 105.353556 94.666966 105.106756 
C 94.913765 104.859957 95.052435 104.525178 95.052435 104.176151 
C 95.052435 103.827125 94.913765 103.492346 94.666966 103.245547 
C 94.420167 102.998747 94.085388 102.860077 93.736361 102.860077 
C 93.387334 102.860077 93.052556 102.998747 92.805756 103.245547 
C 92.558957 103.492346 92.420287 103.827125 92.420287 104.176151 
C 92.420287 104.525178 92.558957 104.859957 92.805756 105.106756 
C 93.052556 105.353556 93.387334 105.492225 93.736361 105.492225 
z
" clip-path="url(#p13df17eed2)" style="stroke: #000000"/>
    <path d="M 91.109096 96.444999 
C 91.419429 96.444999 91.717094 96.321702 91.936533 96.102263 
C 92.155972 95.882824 92.279269 95.585159 92.279269 95.274826 
C 92.279269 94.964492 92.155972 94.666827 91.936533 94.447388 
C 91.717094 94.227949 91.419429 94.104652 91.109096 94.104652 
C 90.798762 94.104652 90.501097 94.227949 90.281658 94.447388 
C 90.062219 94.666827 89.938922 94.964492 89.938922 95.274826 
C 89.938922 95.585159 90.062219 95.882824 90.281658 96.102263 
C 90.501097 96.321702 90.798762 96.444999 91.109096 96.444999 
z
" clip-path="url(#p13df17eed2)" style="stroke: #000000"/>
    <path d="M 86.37681 81.545492 
C 86.584342 81.545492 86.783403 81.463038 86.93015 81.316291 
C 87.076898 81.169543 87.159352 80.970482 87.159352 80.76295 
C 87.159352 80.555417 87.076898 80.356356 86.93015 80.209609 
C 86.783403 80.062861 86.584342 79.980407 86.37681 79.980407 
C 86.169277 79.980407 85.970216 80.062861 85.823469 80.209609 
C 85.676721 80.356356 85.594267 80.555417 85.594267 80.76295 
C 85.594267 80.970482 85.676721 81.169543 85.823469 81.316291 
C 85.970216 81.463038 86.169277 81.545492 86.37681 81.545492 
z
" clip-path="url(#p13df17eed2)" style="stroke: #000000"/>
    <path d="M 80.982797 68.9896 
C 81.115398 68.9896 81.242586 68.936917 81.33635 68.843154 
C 81.430113 68.74939 81.482797 68.622202 81.482797 68.4896 
C 81.482797 68.356999 81.430113 68.22981 81.33635 68.136047 
C 81.242586 68.042283 81.115398 67.9896 80.982797 67.9896 
C 80.850195 67.9896 80.723007 68.042283 80.629243 68.136047 
C 80.53548 68.22981 80.482797 68.356999 80.482797 68.4896 
C 80.482797 68.622202 80.53548 68.74939 80.629243 68.843154 
C 80.723007 68.936917 80.850195 68.9896 80.982797 68.9896 
z
" clip-path="url(#p13df17eed2)" style="stroke: #000000"/>
    <path d="M 93.296426 113.416539 
C 93.543225 113.416539 93.779949 113.318485 93.954463 113.143971 
C 94.128976 112.969458 94.22703 112.732733 94.22703 112.485934 
C 94.22703 112.239135 94.128976 112.00241 93.954463 111.827897 
C 93.779949 111.653384 93.543225 111.555329 93.296426 111.555329 
C 93.049626 111.555329 92.812902 111.653384 92.638389 111.827897 
C 92.463875 112.00241 92.365821 112.239135 92.365821 112.485934 
C 92.365821 112.732733 92.463875 112.969458 92.638389 113.143971 
C 92.812902 113.318485 93.049626 113.416539 93.296426 113.416539 
z
" clip-path="url(#p13df17eed2)" style="stroke: #000000"/>
    <path d="M 91.600801 109.487866 
C 91.799087 109.487866 91.989278 109.409086 92.129487 109.268877 
C 92.269696 109.128668 92.348475 108.938477 92.348475 108.740192 
C 92.348475 108.541906 92.269696 108.351715 92.129487 108.211506 
C 91.989278 108.071297 91.799087 107.992517 91.600801 107.992517 
C 91.402516 107.992517 91.212325 108.071297 91.072115 108.211506 
C 90.931906 108.351715 90.853127 108.541906 90.853127 108.740192 
C 90.853127 108.938477 90.931906 109.128668 91.072115 109.268877 
C 91.212325 109.409086 91.402516 109.487866 91.600801 109.487866 
z
" clip-path="url(#p13df17eed2)" style="stroke: #000000"/>
    <path d="M 87.50355 99.702744 
C 87.636152 99.702744 87.76334 99.650061 87.857104 99.556298 
C 87.950867 99.462534 88.00355 99.335346 88.00355 99.202744 
C 88.00355 99.070143 87.950867 98.942954 87.857104 98.849191 
C 87.76334 98.755428 87.636152 98.702744 87.50355 98.702744 
C 87.370949 98.702744 87.24376 98.755428 87.149997 98.849191 
C 87.056233 98.942954 87.00355 99.070143 87.00355 99.202744 
C 87.00355 99.335346 87.056233 99.462534 87.149997 99.556298 
C 87.24376 99.650061 87.370949 99.702744 87.50355 99.702744 
z
" clip-path="url(#p13df17eed2)" style="stroke: #000000"/>
    <path d="M 86.302143 97.769587 
C 86.626949 97.769587 86.938496 97.64054 87.168168 97.410868 
C 87.397841 97.181195 87.526888 96.869648 87.526888 96.544842 
C 87.526888 96.220036 87.397841 95.908489 87.168168 95.678817 
C 86.938496 95.449144 86.626949 95.320097 86.302143 95.320097 
C 85.977337 95.320097 85.66579 95.449144 85.436117 95.678817 
C 85.206445 95.908489 85.077398 96.220036 85.077398 96.544842 
C 85.077398 96.869648 85.206445 97.181195 85.436117 97.410868 
C 85.66579 97.64054 85.977337 97.769587 86.302143 97.769587 
z
" clip-path="url(#p13df17eed2)" style="stroke: #000000"/>
    <path d="M 85.168078 90.430139 
C 85.325768 90.430139 85.477022 90.367487 85.588526 90.255983 
C 85.70003 90.144479 85.762681 89.993226 85.762681 89.835535 
C 85.762681 89.677844 85.70003 89.526591 85.588526 89.415087 
C 85.477022 89.303583 85.325768 89.240932 85.168078 89.240932 
C 85.010387 89.240932 84.859134 89.303583 84.747629 89.415087 
C 84.636125 89.526591 84.573474 89.677844 84.573474 89.835535 
C 84.573474 89.993226 84.636125 90.144479 84.747629 90.255983 
C 84.859134 90.367487 85.010387 90.430139 85.168078 90.430139 
z
" clip-path="url(#p13df17eed2)" style="stroke: #000000"/>
    <path d="M 81.23351 84.714751 
C 81.78583 84.714751 82.315602 84.495313 82.70615 84.104764 
C 83.096699 83.714215 83.316138 83.184443 83.316138 82.632124 
C 83.316138 82.079805 83.096699 81.550032 82.70615 81.159484 
C 82.315602 80.768935 81.78583 80.549496 81.23351 80.549496 
C 80.681191 80.549496 80.151419 80.768935 79.76087 81.159484 
C 79.370322 81.550032 79.150883 82.079805 79.150883 82.632124 
C 79.150883 83.184443 79.370322 83.714215 79.76087 84.104764 
C 80.151419 84.495313 80.681191 84.714751 81.23351 84.714751 
z
" clip-path="url(#p13df17eed2)" style="stroke: #000000"/>
    <path d="M 78.946422 75.007099 
C 79.162109 75.007099 79.36899 74.921406 79.521504 74.768893 
C 79.674017 74.616379 79.759711 74.409497 79.759711 74.193811 
C 79.759711 73.978124 79.674017 73.771243 79.521504 73.618729 
C 79.36899 73.466216 79.162109 73.380523 78.946422 73.380523 
C 78.730736 73.380523 78.523854 73.466216 78.371341 73.618729 
C 78.218827 73.771243 78.133134 73.978124 78.133134 74.193811 
C 78.133134 74.409497 78.218827 74.616379 78.371341 74.768893 
C 78.523854 74.921406 78.730736 75.007099 78.946422 75.007099 
z
" clip-path="url(#p13df17eed2)" style="stroke: #000000"/>
    <path d="M 87.958867 119.903856 
C 88.146394 119.903856 88.326265 119.829351 88.458867 119.696749 
C 88.591468 119.564148 88.665974 119.384276 88.665974 119.196749 
C 88.665974 119.009222 88.591468 118.829351 88.458867 118.696749 
C 88.326265 118.564148 88.146394 118.489642 87.958867 118.489642 
C 87.77134 118.489642 87.591468 118.564148 87.458867 118.696749 
C 87.326265 118.829351 87.25176 119.009222 87.25176 119.196749 
C 87.25176 119.384276 87.326265 119.564148 87.458867 119.696749 
C 87.591468 119.829351 87.77134 119.903856 87.958867 119.903856 
z
" clip-path="url(#p13df17eed2)" style="stroke: #000000"/>
    <path d="M 84.924491 110.6922 
C 85.457978 110.6922 85.969686 110.480243 86.346919 110.103011 
C 86.724151 109.725779 86.936108 109.21407 86.936108 108.680583 
C 86.936108 108.147096 86.724151 107.635387 86.346919 107.258155 
C 85.969686 106.880922 85.457978 106.668966 84.924491 106.668966 
C 84.391003 106.668966 83.879295 106.880922 83.502062 107.258155 
C 83.12483 107.635387 82.912873 108.147096 82.912873 108.680583 
C 82.912873 109.21407 83.12483 109.725779 83.502062 110.103011 
C 83.879295 110.480243 84.391003 110.6922 84.924491 110.6922 
z
" clip-path="url(#p13df17eed2)" style="stroke: #000000"/>
    <path d="M 85.327526 106.394013 
C 85.460128 106.394013 85.587316 106.34133 85.681079 106.247567 
C 85.774843 106.153803 85.827526 106.026615 85.827526 105.894013 
C 85.827526 105.761412 85.774843 105.634224 85.681079 105.54046 
C 85.587316 105.446697 85.460128 105.394013 85.327526 105.394013 
C 85.194924 105.394013 85.067736 105.446697 84.973973 105.54046 
C 84.880209 105.634224 84.827526 105.761412 84.827526 105.894013 
C 84.827526 106.026615 84.880209 106.153803 84.973973 106.247567 
C 85.067736 106.34133 85.194924 106.394013 85.327526 106.394013 
z
" clip-path="url(#p13df17eed2)" style="stroke: #000000"/>
    <path d="M 84.386417 101.060905 
C 84.519019 101.060905 84.646207 101.008222 84.739971 100.914458 
C 84.833734 100.820695 84.886417 100.693507 84.886417 100.560905 
C 84.886417 100.428304 84.833734 100.301115 84.739971 100.207352 
C 84.646207 100.113588 84.519019 100.060905 84.386417 100.060905 
C 84.253816 100.060905 84.126627 100.113588 84.032864 100.207352 
C 83.9391 100.301115 83.886417 100.428304 83.886417 100.560905 
C 83.886417 100.693507 83.9391 100.820695 84.032864 100.914458 
C 84.126627 101.008222 84.253816 101.060905 84.386417 101.060905 
z
" clip-path="url(#p13df17eed2)" style="stroke: #000000"/>
    <path d="M 77.679705 88.852241 
C 77.837396 88.852241 77.988649 88.78959 78.100153 88.678086 
C 78.211657 88.566582 78.274309 88.415328 78.274309 88.257638 
C 78.274309 88.099947 78.211657 87.948694 78.100153 87.837189 
C 77.988649 87.725685 77.837396 87.663034 77.679705 87.663034 
C 77.522014 87.663034 77.370761 87.725685 77.259257 87.837189 
C 77.147753 87.948694 77.085101 88.099947 77.085101 88.257638 
C 77.085101 88.415328 77.147753 88.566582 77.259257 88.678086 
C 77.370761 88.78959 77.522014 88.852241 77.679705 88.852241 
z
" clip-path="url(#p13df17eed2)" style="stroke: #000000"/>
    <path d="M 76.265197 85.968583 
C 76.422888 85.968583 76.574141 85.905932 76.685645 85.794427 
C 76.79715 85.682923 76.859801 85.53167 76.859801 85.373979 
C 76.859801 85.216289 76.79715 85.065035 76.685645 84.953531 
C 76.574141 84.842027 76.422888 84.779376 76.265197 84.779376 
C 76.107506 84.779376 75.956253 84.842027 75.844749 84.953531 
C 75.733245 85.065035 75.670594 85.216289 75.670594 85.373979 
C 75.670594 85.53167 75.733245 85.682923 75.844749 85.794427 
C 75.956253 85.905932 76.107506 85.968583 76.265197 85.968583 
z
" clip-path="url(#p13df17eed2)" style="stroke: #000000"/>
    <path d="M 89.53085 139.766842 
C 89.663451 139.766842 89.79064 139.714159 89.884403 139.620395 
C 89.978167 139.526632 90.03085 139.399444 90.03085 139.266842 
C 90.03085 139.13424 89.978167 139.007052 89.884403 138.913289 
C 89.79064 138.819525 89.663451 138.766842 89.53085 138.766842 
C 89.398248 138.766842 89.27106 138.819525 89.177296 138.913289 
C 89.083533 139.007052 89.03085 139.13424 89.03085 139.266842 
C 89.03085 139.399444 89.083533 139.526632 89.177296 139.620395 
C 89.27106 139.714159 89.398248 139.766842 89.53085 139.766842 
z
" clip-path="url(#p13df17eed2)" style="stroke: #000000"/>
    <path d="M 89.129002 129.036994 
C 89.261603 129.036994 89.388792 128.984311 89.482555 128.890547 
C 89.576319 128.796784 89.629002 128.669596 89.629002 128.536994 
C 89.629002 128.404393 89.576319 128.277204 89.482555 128.183441 
C 89.388792 128.089677 89.261603 128.036994 89.129002 128.036994 
C 88.9964 128.036994 88.869212 128.089677 88.775448 128.183441 
C 88.681685 128.277204 88.629002 128.404393 88.629002 128.536994 
C 88.629002 128.669596 88.681685 128.796784 88.775448 128.890547 
C 88.869212 128.984311 88.9964 129.036994 89.129002 129.036994 
z
" clip-path="url(#p13df17eed2)" style="stroke: #000000"/>
    <path d="M 83.872413 121.147823 
C 84.108216 121.147823 84.334392 121.054137 84.50113 120.8874 
C 84.667868 120.720662 84.761553 120.494486 84.761553 120.258683 
C 84.761553 120.02288 84.667868 119.796704 84.50113 119.629966 
C 84.334392 119.463229 84.108216 119.369543 83.872413 119.369543 
C 83.636611 119.369543 83.410434 119.463229 83.243696 119.629966 
C 83.076959 119.796704 82.983273 120.02288 82.983273 120.258683 
C 82.983273 120.494486 83.076959 120.720662 83.243696 120.8874 
C 83.410434 121.054137 83.636611 121.147823 83.872413 121.147823 
z
" clip-path="url(#p13df17eed2)" style="stroke: #000000"/>
    <path d="M 80.581909 107.97473 
C 80.889624 107.97473 81.184777 107.852474 81.402364 107.634887 
C 81.619951 107.4173 81.742207 107.122147 81.742207 106.814432 
C 81.742207 106.506718 81.619951 106.211565 81.402364 105.993978 
C 81.184777 105.776391 80.889624 105.654134 80.581909 105.654134 
C 80.274195 105.654134 79.979042 105.776391 79.761455 105.993978 
C 79.543868 106.211565 79.421611 106.506718 79.421611 106.814432 
C 79.421611 107.122147 79.543868 107.4173 79.761455 107.634887 
C 79.979042 107.852474 80.274195 107.97473 80.581909 107.97473 
z
" clip-path="url(#p13df17eed2)" style="stroke: #000000"/>
    <path d="M 77.929614 106.288001 
C 78.447683 106.288001 78.944603 106.08217 79.310933 105.71584 
C 79.677263 105.349509 79.883094 104.85259 79.883094 104.334521 
C 79.883094 103.816452 79.677263 103.319532 79.310933 102.953202 
C 78.944603 102.586871 78.447683 102.381041 77.929614 102.381041 
C 77.411545 102.381041 76.914625 102.586871 76.548295 102.953202 
C 76.181965 103.319532 75.976134 103.816452 75.976134 104.334521 
C 75.976134 104.85259 76.181965 105.349509 76.548295 105.71584 
C 76.914625 106.08217 77.411545 106.288001 77.929614 106.288001 
z
" clip-path="url(#p13df17eed2)" style="stroke: #000000"/>
    <path d="M 75.053694 94.781757 
C 75.334112 94.781757 75.603083 94.670346 75.801368 94.47206 
C 75.999654 94.273775 76.111065 94.004804 76.111065 93.724386 
C 76.111065 93.443968 75.999654 93.174997 75.801368 92.976712 
C 75.603083 92.778426 75.334112 92.667015 75.053694 92.667015 
C 74.773276 92.667015 74.504305 92.778426 74.306019 92.976712 
C 74.107734 93.174997 73.996323 93.443968 73.996323 93.724386 
C 73.996323 94.004804 74.107734 94.273775 74.306019 94.47206 
C 74.504305 94.670346 74.773276 94.781757 75.053694 94.781757 
z
" clip-path="url(#p13df17eed2)" style="stroke: #000000"/>
    <path d="M 68.394154 77.069764 
C 68.581681 77.069764 68.761552 76.995259 68.894154 76.862657 
C 69.026756 76.730056 69.101261 76.550184 69.101261 76.362657 
C 69.101261 76.17513 69.026756 75.995259 68.894154 75.862657 
C 68.761552 75.730056 68.581681 75.65555 68.394154 75.65555 
C 68.206627 75.65555 68.026756 75.730056 67.894154 75.862657 
C 67.761552 75.995259 67.687047 76.17513 67.687047 76.362657 
C 67.687047 76.550184 67.761552 76.730056 67.894154 76.862657 
C 68.026756 76.995259 68.206627 77.069764 68.394154 77.069764 
z
" clip-path="url(#p13df17eed2)" style="stroke: #000000"/>
    <path d="M 64.548558 63.558482 
C 64.723072 63.558482 64.890461 63.489147 65.013861 63.365748 
C 65.13726 63.242348 65.206595 63.074959 65.206595 62.900445 
C 65.206595 62.725932 65.13726 62.558542 65.013861 62.435143 
C 64.890461 62.311743 64.723072 62.242408 64.548558 62.242408 
C 64.374045 62.242408 64.206655 62.311743 64.083256 62.435143 
C 63.959856 62.558542 63.890521 62.725932 63.890521 62.900445 
C 63.890521 63.074959 63.959856 63.242348 64.083256 63.365748 
C 64.206655 63.489147 64.374045 63.558482 64.548558 63.558482 
z
" clip-path="url(#p13df17eed2)" style="stroke: #000000"/>
    <path d="M 81.756972 126.459524 
C 81.889573 126.459524 82.016761 126.406841 82.110525 126.313078 
C 82.204288 126.219314 82.256972 126.092126 82.256972 125.959524 
C 82.256972 125.826923 82.204288 125.699735 82.110525 125.605971 
C 82.016761 125.512208 81.889573 125.459524 81.756972 125.459524 
C 81.62437 125.459524 81.497182 125.512208 81.403418 125.605971 
C 81.309655 125.699735 81.256972 125.826923 81.256972 125.959524 
C 81.256972 126.092126 81.309655 126.219314 81.403418 126.313078 
C 81.497182 126.406841 81.62437 126.459524 81.756972 126.459524 
z
" clip-path="url(#p13df17eed2)" style="stroke: #000000"/>
    <path d="M 79.568564 122.583974 
C 79.701165 122.583974 79.828354 122.53129 79.922117 122.437527 
C 80.015881 122.343763 80.068564 122.216575 80.068564 122.083974 
C 80.068564 121.951372 80.015881 121.824184 79.922117 121.73042 
C 79.828354 121.636657 79.701165 121.583974 79.568564 121.583974 
C 79.435962 121.583974 79.308774 121.636657 79.21501 121.73042 
C 79.121247 121.824184 79.068564 121.951372 79.068564 122.083974 
C 79.068564 122.216575 79.121247 122.343763 79.21501 122.437527 
C 79.308774 122.53129 79.435962 122.583974 79.568564 122.583974 
z
" clip-path="url(#p13df17eed2)" style="stroke: #000000"/>
    <path d="M 78.743388 114.401699 
C 79.104498 114.401699 79.450866 114.258228 79.706209 114.002885 
C 79.961552 113.747542 80.105023 113.401174 80.105023 113.040064 
C 80.105023 112.678954 79.961552 112.332586 79.706209 112.077243 
C 79.450866 111.821899 79.104498 111.678429 78.743388 111.678429 
C 78.382278 111.678429 78.03591 111.821899 77.780567 112.077243 
C 77.525224 112.332586 77.381753 112.678954 77.381753 113.040064 
C 77.381753 113.401174 77.525224 113.747542 77.780567 114.002885 
C 78.03591 114.258228 78.382278 114.401699 78.743388 114.401699 
z
" clip-path="url(#p13df17eed2)" style="stroke: #000000"/>
    <path d="M 76.207467 110.987983 
C 76.725536 110.987983 77.222456 110.782152 77.588786 110.415822 
C 77.955116 110.049492 78.160947 109.552572 78.160947 109.034503 
C 78.160947 108.516434 77.955116 108.019514 77.588786 107.653184 
C 77.222456 107.286854 76.725536 107.081023 76.207467 107.081023 
C 75.689398 107.081023 75.192478 107.286854 74.826148 107.653184 
C 74.459818 108.019514 74.253987 108.516434 74.253987 109.034503 
C 74.253987 109.552572 74.459818 110.049492 74.826148 110.415822 
C 75.192478 110.782152 75.689398 110.987983 76.207467 110.987983 
z
" clip-path="url(#p13df17eed2)" style="stroke: #000000"/>
    <path d="M 74.448087 106.052238 
C 74.955847 106.052238 75.442879 105.850503 75.801919 105.491463 
C 76.160959 105.132423 76.362694 104.645391 76.362694 104.137631 
C 76.362694 103.629872 76.160959 103.14284 75.801919 102.7838 
C 75.442879 102.42476 74.955847 102.223025 74.448087 102.223025 
C 73.940328 102.223025 73.453296 102.42476 73.094256 102.7838 
C 72.735215 103.14284 72.53348 103.629872 72.53348 104.137631 
C 72.53348 104.645391 72.735215 105.132423 73.094256 105.491463 
C 73.453296 105.850503 73.940328 106.052238 74.448087 106.052238 
z
" clip-path="url(#p13df17eed2)" style="stroke: #000000"/>
    <path d="M 74.253618 102.060261 
C 74.595135 102.060261 74.92271 101.924575 75.164199 101.683087 
C 75.405687 101.441598 75.541373 101.114023 75.541373 100.772507 
C 75.541373 100.43099 75.405687 100.103415 75.164199 99.861926 
C 74.92271 99.620438 74.595135 99.484752 74.253618 99.484752 
C 73.912102 99.484752 73.584527 99.620438 73.343038 99.861926 
C 73.10155 100.103415 72.965864 100.43099 72.965864 100.772507 
C 72.965864 101.114023 73.10155 101.441598 73.343038 101.683087 
C 73.584527 101.924575 73.912102 102.060261 74.253618 102.060261 
z
" clip-path="url(#p13df17eed2)" style="stroke: #000000"/>
    <path d="M 71.289264 95.766254 
C 71.725373 95.766254 72.143679 95.592986 72.452054 95.28461 
C 72.76043 94.976234 72.933698 94.557929 72.933698 94.12182 
C 72.933698 93.685711 72.76043 93.267405 72.452054 92.959029 
C 72.143679 92.650653 71.725373 92.477386 71.289264 92.477386 
C 70.853155 92.477386 70.434849 92.650653 70.126473 92.959029 
C 69.818098 93.267405 69.64483 93.685711 69.64483 94.12182 
C 69.64483 94.557929 69.818098 94.976234 70.126473 95.28461 
C 70.434849 95.592986 70.853155 95.766254 71.289264 95.766254 
z
" clip-path="url(#p13df17eed2)" style="stroke: #000000"/>
    <path d="M 67.002823 88.05714 
C 67.177336 88.05714 67.344725 87.987805 67.468125 87.864405 
C 67.591525 87.741005 67.66086 87.573616 67.66086 87.399103 
C 67.66086 87.224589 67.591525 87.0572 67.468125 86.9338 
C 67.344725 86.8104 67.177336 86.741066 67.002823 86.741066 
C 66.828309 86.741066 66.66092 86.8104 66.53752 86.9338 
C 66.41412 87.0572 66.344786 87.224589 66.344786 87.399103 
C 66.344786 87.573616 66.41412 87.741005 66.53752 87.864405 
C 66.66092 87.987805 66.828309 88.05714 67.002823 88.05714 
z
" clip-path="url(#p13df17eed2)" style="stroke: #000000"/>
    <path d="M 61.56613 70.456144 
C 61.698732 70.456144 61.82592 70.403461 61.919683 70.309697 
C 62.013447 70.215934 62.06613 70.088745 62.06613 69.956144 
C 62.06613 69.823542 62.013447 69.696354 61.919683 69.60259 
C 61.82592 69.508827 61.698732 69.456144 61.56613 69.456144 
C 61.433529 69.456144 61.30634 69.508827 61.212577 69.60259 
C 61.118813 69.696354 61.06613 69.823542 61.06613 69.956144 
C 61.06613 70.088745 61.118813 70.215934 61.212577 70.309697 
C 61.30634 70.403461 61.433529 70.456144 61.56613 70.456144 
z
" clip-path="url(#p13df17eed2)" style="stroke: #000000"/>
    <path d="M 81.693514 140.854268 
C 81.977374 140.854268 82.249645 140.741489 82.450364 140.540771 
C 82.651083 140.340052 82.763862 140.06778 82.763862 139.78392 
C 82.763862 139.500061 82.651083 139.227789 82.450364 139.02707 
C 82.249645 138.826351 81.977374 138.713573 81.693514 138.713573 
C 81.409655 138.713573 81.137383 138.826351 80.936664 139.02707 
C 80.735945 139.227789 80.623167 139.500061 80.623167 139.78392 
C 80.623167 140.06778 80.735945 140.340052 80.936664 140.540771 
C 81.137383 140.741489 81.409655 140.854268 81.693514 140.854268 
z
" clip-path="url(#p13df17eed2)" style="stroke: #000000"/>
    <path d="M 79.194951 130.96312 
C 79.402484 130.96312 79.601545 130.880666 79.748292 130.733918 
C 79.89504 130.587171 79.977494 130.38811 79.977494 130.180577 
C 79.977494 129.973045 79.89504 129.773984 79.748292 129.627236 
C 79.601545 129.480489 79.402484 129.398035 79.194951 129.398035 
C 78.987419 129.398035 78.788358 129.480489 78.64161 129.627236 
C 78.494863 129.773984 78.412409 129.973045 78.412409 130.180577 
C 78.412409 130.38811 78.494863 130.587171 78.64161 130.733918 
C 78.788358 130.880666 78.987419 130.96312 79.194951 130.96312 
z
" clip-path="url(#p13df17eed2)" style="stroke: #000000"/>
    <path d="M 77.097979 127.381009 
C 77.420506 127.381009 77.729866 127.252868 77.957927 127.024807 
C 78.185987 126.796747 78.314129 126.487386 78.314129 126.16486 
C 78.314129 125.842333 78.185987 125.532973 77.957927 125.304912 
C 77.729866 125.076851 77.420506 124.94871 77.097979 124.94871 
C 76.775452 124.94871 76.466092 125.076851 76.238031 125.304912 
C 76.00997 125.532973 75.881829 125.842333 75.881829 126.16486 
C 75.881829 126.487386 76.00997 126.796747 76.238031 127.024807 
C 76.466092 127.252868 76.775452 127.381009 77.097979 127.381009 
z
" clip-path="url(#p13df17eed2)" style="stroke: #000000"/>
    <path d="M 75.875509 126.065855 
C 76.361881 126.065855 76.828398 125.872617 77.172314 125.5287 
C 77.516231 125.184784 77.709469 124.718267 77.709469 124.231896 
C 77.709469 123.745524 77.516231 123.279007 77.172314 122.935091 
C 76.828398 122.591174 76.361881 122.397936 75.875509 122.397936 
C 75.389138 122.397936 74.922621 122.591174 74.578705 122.935091 
C 74.234788 123.279007 74.04155 123.745524 74.04155 124.231896 
C 74.04155 124.718267 74.234788 125.184784 74.578705 125.5287 
C 74.922621 125.872617 75.389138 126.065855 75.875509 126.065855 
z
" clip-path="url(#p13df17eed2)" style="stroke: #000000"/>
    <path d="M 74.973397 116.263894 
C 75.31873 116.263894 75.649966 116.126692 75.894153 115.882504 
C 76.13834 115.638317 76.275543 115.307082 76.275543 114.961749 
C 76.275543 114.616416 76.13834 114.28518 75.894153 114.040993 
C 75.649966 113.796806 75.31873 113.659603 74.973397 113.659603 
C 74.628064 113.659603 74.296829 113.796806 74.052641 114.040993 
C 73.808454 114.28518 73.671252 114.616416 73.671252 114.961749 
C 73.671252 115.307082 73.808454 115.638317 74.052641 115.882504 
C 74.296829 116.126692 74.628064 116.263894 74.973397 116.263894 
z
" clip-path="url(#p13df17eed2)" style="stroke: #000000"/>
    <path d="M 69.530334 107.113072 
C 69.662935 107.113072 69.790124 107.060389 69.883887 106.966625 
C 69.977651 106.872862 70.030334 106.745673 70.030334 106.613072 
C 70.030334 106.48047 69.977651 106.353282 69.883887 106.259518 
C 69.790124 106.165755 69.662935 106.113072 69.530334 106.113072 
C 69.397732 106.113072 69.270544 106.165755 69.17678 106.259518 
C 69.083017 106.353282 69.030334 106.48047 69.030334 106.613072 
C 69.030334 106.745673 69.083017 106.872862 69.17678 106.966625 
C 69.270544 107.060389 69.397732 107.113072 69.530334 107.113072 
z
" clip-path="url(#p13df17eed2)" style="stroke: #000000"/>
    <path d="M 66.560814 102.808099 
C 67.073806 102.808099 67.565856 102.604285 67.928596 102.241545 
C 68.291337 101.878804 68.49515 101.386754 68.49515 100.873762 
C 68.49515 100.36077 68.291337 99.86872 67.928596 99.50598 
C 67.565856 99.14324 67.073806 98.939426 66.560814 98.939426 
C 66.047822 98.939426 65.555772 99.14324 65.193032 99.50598 
C 64.830291 99.86872 64.626478 100.36077 64.626478 100.873762 
C 64.626478 101.386754 64.830291 101.878804 65.193032 102.241545 
C 65.555772 102.604285 66.047822 102.808099 66.560814 102.808099 
z
" clip-path="url(#p13df17eed2)" style="stroke: #000000"/>
    <path d="M 66.517893 98.090511 
C 66.692406 98.090511 66.859795 98.021176 66.983195 97.897777 
C 67.106595 97.774377 67.17593 97.606988 67.17593 97.432474 
C 67.17593 97.257961 67.106595 97.090572 66.983195 96.967172 
C 66.859795 96.843772 66.692406 96.774437 66.517893 96.774437 
C 66.343379 96.774437 66.17599 96.843772 66.05259 96.967172 
C 65.929191 97.090572 65.859856 97.257961 65.859856 97.432474 
C 65.859856 97.606988 65.929191 97.774377 66.05259 97.897777 
C 66.17599 98.021176 66.343379 98.090511 66.517893 98.090511 
z
" clip-path="url(#p13df17eed2)" style="stroke: #000000"/>
    <path d="M 64.062372 88.373946 
C 64.278059 88.373946 64.48494 88.288253 64.637454 88.135739 
C 64.789967 87.983226 64.87566 87.776344 64.87566 87.560658 
C 64.87566 87.344971 64.789967 87.13809 64.637454 86.985576 
C 64.48494 86.833063 64.278059 86.747369 64.062372 86.747369 
C 63.846686 86.747369 63.639804 86.833063 63.48729 86.985576 
C 63.334777 87.13809 63.249084 87.344971 63.249084 87.560658 
C 63.249084 87.776344 63.334777 87.983226 63.48729 88.135739 
C 63.639804 88.288253 63.846686 88.373946 64.062372 88.373946 
z
" clip-path="url(#p13df17eed2)" style="stroke: #000000"/>
    <path d="M 60.942442 81.640161 
C 61.116955 81.640161 61.284345 81.570827 61.407744 81.447427 
C 61.531144 81.324027 61.600479 81.156638 61.600479 80.982124 
C 61.600479 80.807611 61.531144 80.640222 61.407744 80.516822 
C 61.284345 80.393422 61.116955 80.324087 60.942442 80.324087 
C 60.767928 80.324087 60.600539 80.393422 60.477139 80.516822 
C 60.35374 80.640222 60.284405 80.807611 60.284405 80.982124 
C 60.284405 81.156638 60.35374 81.324027 60.477139 81.447427 
C 60.600539 81.570827 60.767928 81.640161 60.942442 81.640161 
z
" clip-path="url(#p13df17eed2)" style="stroke: #000000"/>
    <path d="M 52.037891 54.15944 
C 52.170493 54.15944 52.297681 54.106757 52.391445 54.012994 
C 52.485208 53.91923 52.537891 53.792042 52.537891 53.65944 
C 52.537891 53.526839 52.485208 53.399651 52.391445 53.305887 
C 52.297681 53.212124 52.170493 53.15944 52.037891 53.15944 
C 51.90529 53.15944 51.778102 53.212124 51.684338 53.305887 
C 51.590575 53.399651 51.537891 53.526839 51.537891 53.65944 
C 51.537891 53.792042 51.590575 53.91923 51.684338 54.012994 
C 51.778102 54.106757 51.90529 54.15944 52.037891 54.15944 
z
" clip-path="url(#p13df17eed2)" style="stroke: #000000"/>
    <path d="M 71.449509 127.066688 
C 71.78088 127.066688 72.098724 126.935033 72.333039 126.700718 
C 72.567354 126.466403 72.699009 126.14856 72.699009 125.817188 
C 72.699009 125.485817 72.567354 125.167974 72.333039 124.933659 
C 72.098724 124.699344 71.78088 124.567689 71.449509 124.567689 
C 71.118138 124.567689 70.800294 124.699344 70.56598 124.933659 
C 70.331665 125.167974 70.20001 125.485817 70.20001 125.817188 
C 70.20001 126.14856 70.331665 126.466403 70.56598 126.700718 
C 70.800294 126.935033 71.118138 127.066688 71.449509 127.066688 
z
" clip-path="url(#p13df17eed2)" style="stroke: #000000"/>
    <path d="M 70.466825 122.00443 
C 70.860894 122.00443 71.238876 121.847865 71.517525 121.569216 
C 71.796174 121.290567 71.952739 120.912585 71.952739 120.518516 
C 71.952739 120.124447 71.796174 119.746465 71.517525 119.467816 
C 71.238876 119.189167 70.860894 119.032602 70.466825 119.032602 
C 70.072756 119.032602 69.694774 119.189167 69.416125 119.467816 
C 69.137476 119.746465 68.980911 120.124447 68.980911 120.518516 
C 68.980911 120.912585 69.137476 121.290567 69.416125 121.569216 
C 69.694774 121.847865 70.072756 122.00443 70.466825 122.00443 
z
" clip-path="url(#p13df17eed2)" style="stroke: #000000"/>
    <path d="M 69.433652 118.086377 
C 69.845435 118.086377 70.240409 117.922773 70.531584 117.631598 
C 70.82276 117.340423 70.986363 116.945449 70.986363 116.533666 
C 70.986363 116.121882 70.82276 115.726908 70.531584 115.435733 
C 70.240409 115.144558 69.845435 114.980954 69.433652 114.980954 
C 69.021868 114.980954 68.626894 115.144558 68.335719 115.435733 
C 68.044544 115.726908 67.88094 116.121882 67.88094 116.533666 
C 67.88094 116.945449 68.044544 117.340423 68.335719 117.631598 
C 68.626894 117.922773 69.021868 118.086377 69.433652 118.086377 
z
" clip-path="url(#p13df17eed2)" style="stroke: #000000"/>
    <path d="M 67.132979 112.46517 
C 67.29067 112.46517 67.441923 112.402519 67.553427 112.291015 
C 67.664932 112.17951 67.727583 112.028257 67.727583 111.870566 
C 67.727583 111.712876 67.664932 111.561622 67.553427 111.450118 
C 67.441923 111.338614 67.29067 111.275963 67.132979 111.275963 
C 66.975288 111.275963 66.824035 111.338614 66.712531 111.450118 
C 66.601027 111.561622 66.538376 111.712876 66.538376 111.870566 
C 66.538376 112.028257 66.601027 112.17951 66.712531 112.291015 
C 66.824035 112.402519 66.975288 112.46517 67.132979 112.46517 
z
" clip-path="url(#p13df17eed2)" style="stroke: #000000"/>
    <path d="M 50.909082 69.065102 
C 51.066772 69.065102 51.218026 69.002451 51.32953 68.890946 
C 51.441034 68.779442 51.503685 68.628189 51.503685 68.470498 
C 51.503685 68.312807 51.441034 68.161554 51.32953 68.05005 
C 51.218026 67.938546 51.066772 67.875895 50.909082 67.875895 
C 50.751391 67.875895 50.600137 67.938546 50.488633 68.05005 
C 50.377129 68.161554 50.314478 68.312807 50.314478 68.470498 
C 50.314478 68.628189 50.377129 68.779442 50.488633 68.890946 
C 50.600137 69.002451 50.751391 69.065102 50.909082 69.065102 
z
" clip-path="url(#p13df17eed2)" style="stroke: #000000"/>
    <path d="M 78.612948 156.408154 
C 78.74555 156.408154 78.872738 156.355471 78.966502 156.261707 
C 79.060265 156.167944 79.112948 156.040756 79.112948 155.908154 
C 79.112948 155.775553 79.060265 155.648364 78.966502 155.554601 
C 78.872738 155.460837 78.74555 155.408154 78.612948 155.408154 
C 78.480347 155.408154 78.353158 155.460837 78.259395 155.554601 
C 78.165631 155.648364 78.112948 155.775553 78.112948 155.908154 
C 78.112948 156.040756 78.165631 156.167944 78.259395 156.261707 
C 78.353158 156.355471 78.480347 156.408154 78.612948 156.408154 
z
" clip-path="url(#p13df17eed2)" style="stroke: #000000"/>
    <path d="M 68.20324 131.99617 
C 68.773477 131.99617 69.320435 131.769613 69.723653 131.366395 
C 70.126871 130.963177 70.353429 130.416219 70.353429 129.845982 
C 70.353429 129.275745 70.126871 128.728787 69.723653 128.325569 
C 69.320435 127.922351 68.773477 127.695794 68.20324 127.695794 
C 67.633003 127.695794 67.086045 127.922351 66.682827 128.325569 
C 66.279609 128.728787 66.053052 129.275745 66.053052 129.845982 
C 66.053052 130.416219 66.279609 130.963177 66.682827 131.366395 
C 67.086045 131.769613 67.633003 131.99617 68.20324 131.99617 
z
" clip-path="url(#p13df17eed2)" style="stroke: #000000"/>
    <path d="M 63.32551 119.459989 
C 63.843579 119.459989 64.340499 119.254158 64.706829 118.887828 
C 65.073159 118.521498 65.27899 118.024578 65.27899 117.506509 
C 65.27899 116.98844 65.073159 116.49152 64.706829 116.12519 
C 64.340499 115.75886 63.843579 115.553029 63.32551 115.553029 
C 62.807441 115.553029 62.310521 115.75886 61.944191 116.12519 
C 61.577861 116.49152 61.37203 116.98844 61.37203 117.506509 
C 61.37203 118.024578 61.577861 118.521498 61.944191 118.887828 
C 62.310521 119.254158 62.807441 119.459989 63.32551 119.459989 
z
" clip-path="url(#p13df17eed2)" style="stroke: #000000"/>
    <path d="M 61.209042 111.223247 
C 61.733657 111.223247 62.236855 111.014816 62.607813 110.643857 
C 62.978771 110.272899 63.187203 109.769701 63.187203 109.245087 
C 63.187203 108.720472 62.978771 108.217274 62.607813 107.846316 
C 62.236855 107.475358 61.733657 107.266926 61.209042 107.266926 
C 60.684428 107.266926 60.18123 107.475358 59.810272 107.846316 
C 59.439313 108.217274 59.230882 108.720472 59.230882 109.245087 
C 59.230882 109.769701 59.439313 110.272899 59.810272 110.643857 
C 60.18123 111.014816 60.684428 111.223247 61.209042 111.223247 
z
" clip-path="url(#p13df17eed2)" style="stroke: #000000"/>
    <path d="M 60.095925 106.573948 
C 60.228527 106.573948 60.355715 106.521265 60.449479 106.427502 
C 60.543242 106.333738 60.595925 106.20655 60.595925 106.073948 
C 60.595925 105.941347 60.543242 105.814158 60.449479 105.720395 
C 60.355715 105.626631 60.228527 105.573948 60.095925 105.573948 
C 59.963324 105.573948 59.836135 105.626631 59.742372 105.720395 
C 59.648608 105.814158 59.595925 105.941347 59.595925 106.073948 
C 59.595925 106.20655 59.648608 106.333738 59.742372 106.427502 
C 59.836135 106.521265 59.963324 106.573948 60.095925 106.573948 
z
" clip-path="url(#p13df17eed2)" style="stroke: #000000"/>
    <path d="M 57.776226 101.375221 
C 57.983759 101.375221 58.18282 101.292767 58.329567 101.14602 
C 58.476315 100.999272 58.558769 100.800211 58.558769 100.592679 
C 58.558769 100.385146 58.476315 100.186085 58.329567 100.039338 
C 58.18282 99.89259 57.983759 99.810136 57.776226 99.810136 
C 57.568694 99.810136 57.369633 99.89259 57.222886 100.039338 
C 57.076138 100.186085 56.993684 100.385146 56.993684 100.592679 
C 56.993684 100.800211 57.076138 100.999272 57.222886 101.14602 
C 57.369633 101.292767 57.568694 101.375221 57.776226 101.375221 
z
" clip-path="url(#p13df17eed2)" style="stroke: #000000"/>
    <path d="M 54.675078 91.767954 
C 54.882611 91.767954 55.081672 91.685501 55.228419 91.538753 
C 55.375167 91.392005 55.457621 91.192944 55.457621 90.985412 
C 55.457621 90.777879 55.375167 90.578819 55.228419 90.432071 
C 55.081672 90.285323 54.882611 90.20287 54.675078 90.20287 
C 54.467546 90.20287 54.268485 90.285323 54.121737 90.432071 
C 53.97499 90.578819 53.892536 90.777879 53.892536 90.985412 
C 53.892536 91.192944 53.97499 91.392005 54.121737 91.538753 
C 54.268485 91.685501 54.467546 91.767954 54.675078 91.767954 
z
" clip-path="url(#p13df17eed2)" style="stroke: #000000"/>
    <path d="M 51.682015 84.682898 
C 51.814617 84.682898 51.941805 84.630215 52.035569 84.536452 
C 52.129332 84.442688 52.182015 84.3155 52.182015 84.182898 
C 52.182015 84.050297 52.129332 83.923108 52.035569 83.829345 
C 51.941805 83.735581 51.814617 83.682898 51.682015 83.682898 
C 51.549414 83.682898 51.422225 83.735581 51.328462 83.829345 
C 51.234698 83.923108 51.182015 84.050297 51.182015 84.182898 
C 51.182015 84.3155 51.234698 84.442688 51.328462 84.536452 
C 51.422225 84.630215 51.549414 84.682898 51.682015 84.682898 
z
" clip-path="url(#p13df17eed2)" style="stroke: #000000"/>
    <path d="M 62.29827 128.564368 
C 62.430872 128.564368 62.55806 128.511685 62.651824 128.417921 
C 62.745587 128.324158 62.79827 128.19697 62.79827 128.064368 
C 62.79827 127.931767 62.745587 127.804578 62.651824 127.710815 
C 62.55806 127.617051 62.430872 127.564368 62.29827 127.564368 
C 62.165669 127.564368 62.03848 127.617051 61.944717 127.710815 
C 61.850953 127.804578 61.79827 127.931767 61.79827 128.064368 
C 61.79827 128.19697 61.850953 128.324158 61.944717 128.417921 
C 62.03848 128.511685 62.165669 128.564368 62.29827 128.564368 
z
" clip-path="url(#p13df17eed2)" style="stroke: #000000"/>
    <path d="M 59.625191 123.725372 
C 59.966707 123.725372 60.294282 123.589686 60.535771 123.348197 
C 60.77726 123.106708 60.912946 122.779133 60.912946 122.437617 
C 60.912946 122.0961 60.77726 121.768525 60.535771 121.527037 
C 60.294282 121.285548 59.966707 121.149862 59.625191 121.149862 
C 59.283674 121.149862 58.956099 121.285548 58.714611 121.527037 
C 58.473122 121.768525 58.337436 122.0961 58.337436 122.437617 
C 58.337436 122.779133 58.473122 123.106708 58.714611 123.348197 
C 58.956099 123.589686 59.283674 123.725372 59.625191 123.725372 
z
" clip-path="url(#p13df17eed2)" style="stroke: #000000"/>
    <path d="M 60.321598 118.438685 
C 60.4542 118.438685 60.581388 118.386002 60.675152 118.292239 
C 60.768915 118.198475 60.821598 118.071287 60.821598 117.938685 
C 60.821598 117.806084 60.768915 117.678895 60.675152 117.585132 
C 60.581388 117.491368 60.4542 117.438685 60.321598 117.438685 
C 60.188997 117.438685 60.061809 117.491368 59.968045 117.585132 
C 59.874282 117.678895 59.821598 117.806084 59.821598 117.938685 
C 59.821598 118.071287 59.874282 118.198475 59.968045 118.292239 
C 60.061809 118.386002 60.188997 118.438685 60.321598 118.438685 
z
" clip-path="url(#p13df17eed2)" style="stroke: #000000"/>
    <path d="M 58.549116 117.601271 
C 59.064382 117.601271 59.558615 117.396553 59.922964 117.032204 
C 60.287312 116.667856 60.49203 116.173623 60.49203 115.658356 
C 60.49203 115.143089 60.287312 114.648857 59.922964 114.284508 
C 59.558615 113.920159 59.064382 113.715442 58.549116 113.715442 
C 58.033849 113.715442 57.539616 113.920159 57.175267 114.284508 
C 56.810919 114.648857 56.606201 115.143089 56.606201 115.658356 
C 56.606201 116.173623 56.810919 116.667856 57.175267 117.032204 
C 57.539616 117.396553 58.033849 117.601271 58.549116 117.601271 
z
" clip-path="url(#p13df17eed2)" style="stroke: #000000"/>
    <path d="M 53.702178 105.529618 
C 53.900464 105.529618 54.090655 105.450838 54.230864 105.310629 
C 54.371073 105.17042 54.449853 104.980229 54.449853 104.781944 
C 54.449853 104.583658 54.371073 104.393467 54.230864 104.253258 
C 54.090655 104.113049 53.900464 104.034269 53.702178 104.034269 
C 53.503893 104.034269 53.313702 104.113049 53.173493 104.253258 
C 53.033284 104.393467 52.954504 104.583658 52.954504 104.781944 
C 52.954504 104.980229 53.033284 105.17042 53.173493 105.310629 
C 53.313702 105.450838 53.503893 105.529618 53.702178 105.529618 
z
" clip-path="url(#p13df17eed2)" style="stroke: #000000"/>
    <path d="M 56.087413 125.765459 
C 56.343909 125.765459 56.589934 125.663552 56.771304 125.482182 
C 56.952674 125.300812 57.054581 125.054787 57.054581 124.798291 
C 57.054581 124.541795 56.952674 124.29577 56.771304 124.1144 
C 56.589934 123.93303 56.343909 123.831123 56.087413 123.831123 
C 55.830917 123.831123 55.584892 123.93303 55.403522 124.1144 
C 55.222152 124.29577 55.120245 124.541795 55.120245 124.798291 
C 55.120245 125.054787 55.222152 125.300812 55.403522 125.482182 
C 55.584892 125.663552 55.830917 125.765459 56.087413 125.765459 
z
" clip-path="url(#p13df17eed2)" style="stroke: #000000"/>
    <path d="M 53.926743 116.373493 
C 54.101257 116.373493 54.268646 116.304158 54.392046 116.180758 
C 54.515445 116.057358 54.58478 115.889969 54.58478 115.715456 
C 54.58478 115.540942 54.515445 115.373553 54.392046 115.250153 
C 54.268646 115.126754 54.101257 115.057419 53.926743 115.057419 
C 53.75223 115.057419 53.58484 115.126754 53.461441 115.250153 
C 53.338041 115.373553 53.268706 115.540942 53.268706 115.715456 
C 53.268706 115.889969 53.338041 116.057358 53.461441 116.180758 
C 53.58484 116.304158 53.75223 116.373493 53.926743 116.373493 
z
" clip-path="url(#p13df17eed2)" style="stroke: #000000"/>
    <path d="M 49.569168 110.171367 
C 50.069072 110.171367 50.548568 109.972753 50.902053 109.619268 
C 51.255539 109.265782 51.454152 108.786286 51.454152 108.286382 
C 51.454152 107.786479 51.255539 107.306982 50.902053 106.953497 
C 50.548568 106.600011 50.069072 106.401398 49.569168 106.401398 
C 49.069264 106.401398 48.589768 106.600011 48.236282 106.953497 
C 47.882797 107.306982 47.684183 107.786479 47.684183 108.286382 
C 47.684183 108.786286 47.882797 109.265782 48.236282 109.619268 
C 48.589768 109.972753 49.069264 110.171367 49.569168 110.171367 
z
" clip-path="url(#p13df17eed2)" style="stroke: #000000"/>
    <path d="M 47.460595 98.174752 
C 47.683603 98.174752 47.897508 98.08615 48.055198 97.928459 
C 48.212889 97.770768 48.301491 97.556864 48.301491 97.333856 
C 48.301491 97.110847 48.212889 96.896943 48.055198 96.739252 
C 47.897508 96.581561 47.683603 96.492959 47.460595 96.492959 
C 47.237587 96.492959 47.023682 96.581561 46.865991 96.739252 
C 46.708301 96.896943 46.619699 97.110847 46.619699 97.333856 
C 46.619699 97.556864 46.708301 97.770768 46.865991 97.928459 
C 47.023682 98.08615 47.237587 98.174752 47.460595 98.174752 
z
" clip-path="url(#p13df17eed2)" style="stroke: #000000"/>
    <path d="M 58.65243 142.232099 
C 58.785031 142.232099 58.91222 142.179415 59.005983 142.085652 
C 59.099747 141.991888 59.15243 141.8647 59.15243 141.732099 
C 59.15243 141.599497 59.099747 141.472309 59.005983 141.378545 
C 58.91222 141.284782 58.785031 141.232099 58.65243 141.232099 
C 58.519828 141.232099 58.39264 141.284782 58.298876 141.378545 
C 58.205113 141.472309 58.15243 141.599497 58.15243 141.732099 
C 58.15243 141.8647 58.205113 141.991888 58.298876 142.085652 
C 58.39264 142.179415 58.519828 142.232099 58.65243 142.232099 
z
" clip-path="url(#p13df17eed2)" style="stroke: #000000"/>
    <path d="M 56.199886 138.584833 
C 56.429559 138.584833 56.649856 138.493583 56.812259 138.33118 
C 56.974662 138.168777 57.065912 137.94848 57.065912 137.718808 
C 57.065912 137.489135 56.974662 137.268838 56.812259 137.106435 
C 56.649856 136.944032 56.429559 136.852782 56.199886 136.852782 
C 55.970214 136.852782 55.749917 136.944032 55.587514 137.106435 
C 55.425111 137.268838 55.333861 137.489135 55.333861 137.718808 
C 55.333861 137.94848 55.425111 138.168777 55.587514 138.33118 
C 55.749917 138.493583 55.970214 138.584833 56.199886 138.584833 
z
" clip-path="url(#p13df17eed2)" style="stroke: #000000"/>
    <path d="M 53.919855 131.708933 
C 54.224882 131.708933 54.517457 131.587745 54.733143 131.372058 
C 54.94883 131.156372 55.070018 130.863797 55.070018 130.55877 
C 55.070018 130.253743 54.94883 129.961168 54.733143 129.745482 
C 54.517457 129.529795 54.224882 129.408607 53.919855 129.408607 
C 53.614828 129.408607 53.322253 129.529795 53.106567 129.745482 
C 52.89088 129.961168 52.769692 130.253743 52.769692 130.55877 
C 52.769692 130.863797 52.89088 131.156372 53.106567 131.372058 
C 53.322253 131.587745 53.614828 131.708933 53.919855 131.708933 
z
" clip-path="url(#p13df17eed2)" style="stroke: #000000"/>
    <path d="M 50.981351 119.207634 
C 51.20436 119.207634 51.418264 119.119032 51.575955 118.961342 
C 51.733646 118.803651 51.822248 118.589746 51.822248 118.366738 
C 51.822248 118.14373 51.733646 117.929825 51.575955 117.772135 
C 51.418264 117.614444 51.20436 117.525842 50.981351 117.525842 
C 50.758343 117.525842 50.544439 117.614444 50.386748 117.772135 
C 50.229057 117.929825 50.140455 118.14373 50.140455 118.366738 
C 50.140455 118.589746 50.229057 118.803651 50.386748 118.961342 
C 50.544439 119.119032 50.758343 119.207634 50.981351 119.207634 
z
" clip-path="url(#p13df17eed2)" style="stroke: #000000"/>
    <path d="M 46.817958 110.030832 
C 46.95056 110.030832 47.077748 109.978149 47.171512 109.884386 
C 47.265275 109.790622 47.317958 109.663434 47.317958 109.530832 
C 47.317958 109.398231 47.265275 109.271042 47.171512 109.177279 
C 47.077748 109.083516 46.95056 109.030832 46.817958 109.030832 
C 46.685357 109.030832 46.558169 109.083516 46.464405 109.177279 
C 46.370642 109.271042 46.317958 109.398231 46.317958 109.530832 
C 46.317958 109.663434 46.370642 109.790622 46.464405 109.884386 
C 46.558169 109.978149 46.685357 110.030832 46.817958 110.030832 
z
" clip-path="url(#p13df17eed2)" style="stroke: #000000"/>
    <path d="M 40.600971 97.638245 
C 40.788498 97.638245 40.968369 97.563739 41.100971 97.431138 
C 41.233572 97.298536 41.308078 97.118665 41.308078 96.931138 
C 41.308078 96.743611 41.233572 96.563739 41.100971 96.431138 
C 40.968369 96.298536 40.788498 96.224031 40.600971 96.224031 
C 40.413444 96.224031 40.233572 96.298536 40.100971 96.431138 
C 39.968369 96.563739 39.893864 96.743611 39.893864 96.931138 
C 39.893864 97.118665 39.968369 97.298536 40.100971 97.431138 
C 40.233572 97.563739 40.413444 97.638245 40.600971 97.638245 
z
" clip-path="url(#p13df17eed2)" style="stroke: #000000"/>
    <path d="M 44.270998 120.040067 
C 44.494007 120.040067 44.707911 119.951465 44.865602 119.793774 
C 45.023292 119.636083 45.111895 119.422179 45.111895 119.199171 
C 45.111895 118.976162 45.023292 118.762258 44.865602 118.604567 
C 44.707911 118.446876 44.494007 118.358274 44.270998 118.358274 
C 44.04799 118.358274 43.834085 118.446876 43.676395 118.604567 
C 43.518704 118.762258 43.430102 118.976162 43.430102 119.199171 
C 43.430102 119.422179 43.518704 119.636083 43.676395 119.793774 
C 43.834085 119.951465 44.04799 120.040067 44.270998 120.040067 
z
" clip-path="url(#p13df17eed2)" style="stroke: #000000"/>
    <path d="M 38.246001 97.978421 
C 38.403692 97.978421 38.554945 97.91577 38.666449 97.804266 
C 38.777953 97.692762 38.840604 97.541508 38.840604 97.383818 
C 38.840604 97.226127 38.777953 97.074874 38.666449 96.963369 
C 38.554945 96.851865 38.403692 96.789214 38.246001 96.789214 
C 38.08831 96.789214 37.937057 96.851865 37.825553 96.963369 
C 37.714049 97.074874 37.651397 97.226127 37.651397 97.383818 
C 37.651397 97.541508 37.714049 97.692762 37.825553 97.804266 
C 37.937057 97.91577 38.08831 97.978421 38.246001 97.978421 
z
" clip-path="url(#p13df17eed2)" style="stroke: #000000"/>
    <path d="M 33.181537 93.21562 
C 33.314138 93.21562 33.441326 93.162936 33.53509 93.069173 
C 33.628853 92.97541 33.681537 92.848221 33.681537 92.71562 
C 33.681537 92.583018 33.628853 92.45583 33.53509 92.362066 
C 33.441326 92.268303 33.314138 92.21562 33.181537 92.21562 
C 33.048935 92.21562 32.921747 92.268303 32.827983 92.362066 
C 32.73422 92.45583 32.681537 92.583018 32.681537 92.71562 
C 32.681537 92.848221 32.73422 92.97541 32.827983 93.069173 
C 32.921747 93.162936 33.048935 93.21562 33.181537 93.21562 
z
" clip-path="url(#p13df17eed2)" style="stroke: #000000"/>
    <path d="M 50.365471 147.184479 
C 50.523161 147.184479 50.674415 147.121828 50.785919 147.010324 
C 50.897423 146.898819 50.960074 146.747566 50.960074 146.589875 
C 50.960074 146.432185 50.897423 146.280931 50.785919 146.169427 
C 50.674415 146.057923 50.523161 145.995272 50.365471 145.995272 
C 50.20778 145.995272 50.056526 146.057923 49.945022 146.169427 
C 49.833518 146.280931 49.770867 146.432185 49.770867 146.589875 
C 49.770867 146.747566 49.833518 146.898819 49.945022 147.010324 
C 50.056526 147.121828 50.20778 147.184479 50.365471 147.184479 
z
" clip-path="url(#p13df17eed2)" style="stroke: #000000"/>
    <path d="M 43.731144 129.75008 
C 43.863745 129.75008 43.990933 129.697397 44.084697 129.603633 
C 44.17846 129.50987 44.231144 129.382682 44.231144 129.25008 
C 44.231144 129.117478 44.17846 128.99029 44.084697 128.896527 
C 43.990933 128.802763 43.863745 128.75008 43.731144 128.75008 
C 43.598542 128.75008 43.471354 128.802763 43.37759 128.896527 
C 43.283827 128.99029 43.231144 129.117478 43.231144 129.25008 
C 43.231144 129.382682 43.283827 129.50987 43.37759 129.603633 
C 43.471354 129.697397 43.598542 129.75008 43.731144 129.75008 
z
" clip-path="url(#p13df17eed2)" style="stroke: #000000"/>
    <path d="M 27.741819 129.709477 
C 27.874421 129.709477 28.001609 129.656793 28.095373 129.56303 
C 28.189136 129.469266 28.241819 129.342078 28.241819 129.209477 
C 28.241819 129.076875 28.189136 128.949687 28.095373 128.855923 
C 28.001609 128.76216 27.874421 128.709477 27.741819 128.709477 
C 27.609218 128.709477 27.482029 128.76216 27.388266 128.855923 
C 27.294502 128.949687 27.241819 129.076875 27.241819 129.209477 
C 27.241819 129.342078 27.294502 129.469266 27.388266 129.56303 
C 27.482029 129.656793 27.609218 129.709477 27.741819 129.709477 
z
" clip-path="url(#p13df17eed2)" style="stroke: #000000"/>
   </g>
   <g id="matplotlib.axis_1">
    <g id="xtick_1">
     <g id="line2d_1">
      <defs>
       <path id="mf4c9e32b7a" d="M 0 0 
L 0 3.5 
" style="stroke: #000000; stroke-width: 0.8"/>
      </defs>
      <g>
       <use xlink:href="#mf4c9e32b7a" x="18" y="189" style="stroke: #000000; stroke-width: 0.8"/>
      </g>
     </g>
     <g id="text_1">
      <!-- 10 -->
      <g transform="translate(7.447656 203.598437)scale(0.1 -0.1)">
       <defs>
        <path id="DejaVuSans-2212" d="M 678 2272 
L 4684 2272 
L 4684 1741 
L 678 1741 
L 678 2272 
z
" transform="scale(0.015625)"/>
        <path id="DejaVuSans-31" d="M 794 531 
L 1825 531 
L 1825 4091 
L 703 3866 
L 703 4441 
L 1819 4666 
L 2450 4666 
L 2450 531 
L 3481 531 
L 3481 0 
L 794 0 
L 794 531 
z
" transform="scale(0.015625)"/>
        <path id="DejaVuSans-30" d="M 2034 4250 
Q 1547 4250 1301 3770 
Q 1056 3291 1056 2328 
Q 1056 1369 1301 889 
Q 1547 409 2034 409 
Q 2525 409 2770 889 
Q 3016 1369 3016 2328 
Q 3016 3291 2770 3770 
Q 2525 4250 2034 4250 
z
M 2034 4750 
Q 2819 4750 3233 4129 
Q 3647 3509 3647 2328 
Q 3647 1150 3233 529 
Q 2819 -91 2034 -91 
Q 1250 -91 836 529 
Q 422 1150 422 2328 
Q 422 3509 836 4129 
Q 1250 4750 2034 4750 
z
" transform="scale(0.015625)"/>
       </defs>
       <use xlink:href="#DejaVuSans-2212"/>
       <use xlink:href="#DejaVuSans-31" x="83.789062"/>
       <use xlink:href="#DejaVuSans-30" x="147.412109"/>
      </g>
     </g>
    </g>
    <g id="xtick_2">
     <g id="line2d_2">
      <g>
       <use xlink:href="#mf4c9e32b7a" x="73.8" y="189" style="stroke: #000000; stroke-width: 0.8"/>
      </g>
     </g>
     <g id="text_2">
      <!-- 0 -->
      <g transform="translate(70.61875 203.598437)scale(0.1 -0.1)">
       <use xlink:href="#DejaVuSans-30"/>
      </g>
     </g>
    </g>
    <g id="xtick_3">
     <g id="line2d_3">
      <g>
       <use xlink:href="#mf4c9e32b7a" x="129.6" y="189" style="stroke: #000000; stroke-width: 0.8"/>
      </g>
     </g>
     <g id="text_3">
      <!-- 10 -->
      <g transform="translate(123.2375 203.598437)scale(0.1 -0.1)">
       <use xlink:href="#DejaVuSans-31"/>
       <use xlink:href="#DejaVuSans-30" x="63.623047"/>
      </g>
     </g>
    </g>
   </g>
   <g id="matplotlib.axis_2">
    <g id="ytick_1">
     <g id="line2d_4">
      <defs>
       <path id="m820654d5ee" d="M 0 0 
L -3.5 0 
" style="stroke: #000000; stroke-width: 0.8"/>
      </defs>
      <g>
       <use xlink:href="#m820654d5ee" x="18" y="189" style="stroke: #000000; stroke-width: 0.8"/>
      </g>
     </g>
     <g id="text_4">
      <!-- 15 -->
      <g transform="translate(-10.104688 192.799219)scale(0.1 -0.1)">
       <defs>
        <path id="DejaVuSans-35" d="M 691 4666 
L 3169 4666 
L 3169 4134 
L 1269 4134 
L 1269 2991 
Q 1406 3038 1543 3061 
Q 1681 3084 1819 3084 
Q 2600 3084 3056 2656 
Q 3513 2228 3513 1497 
Q 3513 744 3044 326 
Q 2575 -91 1722 -91 
Q 1428 -91 1123 -41 
Q 819 9 494 109 
L 494 744 
Q 775 591 1075 516 
Q 1375 441 1709 441 
Q 2250 441 2565 725 
Q 2881 1009 2881 1497 
Q 2881 1984 2565 2268 
Q 2250 2553 1709 2553 
Q 1456 2553 1204 2497 
Q 953 2441 691 2322 
L 691 4666 
z
" transform="scale(0.015625)"/>
       </defs>
       <use xlink:href="#DejaVuSans-2212"/>
       <use xlink:href="#DejaVuSans-31" x="83.789062"/>
       <use xlink:href="#DejaVuSans-35" x="147.412109"/>
      </g>
     </g>
    </g>
    <g id="ytick_2">
     <g id="line2d_5">
      <g>
       <use xlink:href="#m820654d5ee" x="18" y="161.82" style="stroke: #000000; stroke-width: 0.8"/>
      </g>
     </g>
     <g id="text_5">
      <!-- 10 -->
      <g transform="translate(-10.104688 165.619219)scale(0.1 -0.1)">
       <use xlink:href="#DejaVuSans-2212"/>
       <use xlink:href="#DejaVuSans-31" x="83.789062"/>
       <use xlink:href="#DejaVuSans-30" x="147.412109"/>
      </g>
     </g>
    </g>
    <g id="ytick_3">
     <g id="line2d_6">
      <g>
       <use xlink:href="#m820654d5ee" x="18" y="134.64" style="stroke: #000000; stroke-width: 0.8"/>
      </g>
     </g>
     <g id="text_6">
      <!-- 5 -->
      <g transform="translate(-3.742188 138.439219)scale(0.1 -0.1)">
       <use xlink:href="#DejaVuSans-2212"/>
       <use xlink:href="#DejaVuSans-35" x="83.789062"/>
      </g>
     </g>
    </g>
    <g id="ytick_4">
     <g id="line2d_7">
      <g>
       <use xlink:href="#m820654d5ee" x="18" y="107.46" style="stroke: #000000; stroke-width: 0.8"/>
      </g>
     </g>
     <g id="text_7">
      <!-- 0 -->
      <g transform="translate(4.6375 111.259219)scale(0.1 -0.1)">
       <use xlink:href="#DejaVuSans-30"/>
      </g>
     </g>
    </g>
    <g id="ytick_5">
     <g id="line2d_8">
      <g>
       <use xlink:href="#m820654d5ee" x="18" y="80.28" style="stroke: #000000; stroke-width: 0.8"/>
      </g>
     </g>
     <g id="text_8">
      <!-- 5 -->
      <g transform="translate(4.6375 84.079219)scale(0.1 -0.1)">
       <use xlink:href="#DejaVuSans-35"/>
      </g>
     </g>
    </g>
    <g id="ytick_6">
     <g id="line2d_9">
      <g>
       <use xlink:href="#m820654d5ee" x="18" y="53.1" style="stroke: #000000; stroke-width: 0.8"/>
      </g>
     </g>
     <g id="text_9">
      <!-- 10 -->
      <g transform="translate(-1.725 56.899219)scale(0.1 -0.1)">
       <use xlink:href="#DejaVuSans-31"/>
       <use xlink:href="#DejaVuSans-30" x="63.623047"/>
      </g>
     </g>
    </g>
    <g id="ytick_7">
     <g id="line2d_10">
      <g>
       <use xlink:href="#m820654d5ee" x="18" y="25.92" style="stroke: #000000; stroke-width: 0.8"/>
      </g>
     </g>
     <g id="text_10">
      <!-- 15 -->
      <g transform="translate(-1.725 29.719219)scale(0.1 -0.1)">
       <use xlink:href="#DejaVuSans-31"/>
       <use xlink:href="#DejaVuSans-35" x="63.623047"/>
      </g>
     </g>
    </g>
   </g>
   <g id="patch_3">
    <path d="M 18 189 
L 18 25.92 
" style="fill: none; stroke: #000000; stroke-width: 0.8; stroke-linejoin: miter; stroke-linecap: square"/>
   </g>
   <g id="patch_4">
    <path d="M 129.6 189 
L 129.6 25.92 
" style="fill: none; stroke: #000000; stroke-width: 0.8; stroke-linejoin: miter; stroke-linecap: square"/>
   </g>
   <g id="patch_5">
    <path d="M 18 189 
L 129.6 189 
" style="fill: none; stroke: #000000; stroke-width: 0.8; stroke-linejoin: miter; stroke-linecap: square"/>
   </g>
   <g id="patch_6">
    <path d="M 18 25.92 
L 129.6 25.92 
" style="fill: none; stroke: #000000; stroke-width: 0.8; stroke-linejoin: miter; stroke-linecap: square"/>
   </g>
  </g>
 </g>
 <defs>
  <clipPath id="p13df17eed2">
   <rect x="18" y="25.92" width="111.6" height="163.08"/>
  </clipPath>
 </defs>
</svg>
