<?xml version="1.0" encoding="utf-8" standalone="no"?>
<!DOCTYPE svg PUBLIC "-//W3C//DTD SVG 1.1//EN"
  "http://www.w3.org/Graphics/SVG/1.1/DTD/svg11.dtd">
<svg xmlns:xlink="http://www.w3.org/1999/xlink" width="144pt" height="216pt" viewBox="0 0 144 216" xmlns="http://www.w3.org/2000/svg" version="1.1">
 <metadata>
  <rdf:RDF xmlns:dc="http://purl.org/dc/elements/1.1/" xmlns:cc="http://creativecommons.org/ns#" xmlns:rdf="http://www.w3.org/1999/02/22-rdf-syntax-ns#">
   <cc:Work>
    <dc:type rdf:resource="http://purl.org/dc/dcmitype/StillImage"/>
    <dc:date>2022-06-23T14:43:32.906549</dc:date>
    <dc:format>image/svg+xml</dc:format>
    <dc:creator>
     <cc:Agent>
      <dc:title>Matplotlib v3.5.1, https://matplotlib.org/</dc:title>
     </cc:Agent>
    </dc:creator>
   </cc:Work>
  </rdf:RDF>
 </metadata>
 <defs>
  <style type="text/css">*{stroke-linejoin: round; stroke-linecap: butt}</style>
 </defs>
 <g id="figure_1">
  <g id="patch_1">
   <path d="M 0 216 
L 144 216 
L 144 0 
L 0 0 
L 0 216 
z
" style="fill: none"/>
  </g>
  <g id="axes_1">
   <g id="patch_2">
    <path d="M 18 189 
L 129.6 189 
L 129.6 25.92 
L 18 25.92 
z
" style="fill: #ffffff"/>
   </g>
   <g id="PathCollection_1">
    <defs>
     <path id="m89f7e7c94f" d="M 0 2.738613 
C 0.726289 2.738613 1.422928 2.450055 1.936492 1.936492 
C 2.450055 1.422928 2.738613 0.726289 2.738613 0 
C 2.738613 -0.726289 2.450055 -1.422928 1.936492 -1.936492 
C 1.422928 -2.450055 0.726289 -2.738613 0 -2.738613 
C -0.726289 -2.738613 -1.422928 -2.450055 -1.936492 -1.936492 
C -2.450055 -1.422928 -2.738613 -0.726289 -2.738613 0 
C -2.738613 0.726289 -2.450055 1.422928 -1.936492 1.936492 
C -1.422928 2.450055 -0.726289 2.738613 0 2.738613 
z
" style="stroke: #ff0000; stroke-width: 1.75"/>
    </defs>
    <g clip-path="url(#p8279c76eb7)">
     <use xlink:href="#m89f7e7c94f" x="80.775" y="83.92143" style="fill: #ff0000; stroke: #ff0000; stroke-width: 1.75"/>
     <use xlink:href="#m89f7e7c94f" x="59.85" y="95.690715" style="fill: #ff0000; stroke: #ff0000; stroke-width: 1.75"/>
     <use xlink:href="#m89f7e7c94f" x="66.825" y="107.46" style="fill: #ff0000; stroke: #ff0000; stroke-width: 1.75"/>
     <use xlink:href="#m89f7e7c94f" x="80.775" y="107.46" style="fill: #ff0000; stroke: #ff0000; stroke-width: 1.75"/>
     <use xlink:href="#m89f7e7c94f" x="94.725" y="107.46" style="fill: #ff0000; stroke: #ff0000; stroke-width: 1.75"/>
     <use xlink:href="#m89f7e7c94f" x="59.85" y="119.229285" style="fill: #ff0000; stroke: #ff0000; stroke-width: 1.75"/>
     <use xlink:href="#m89f7e7c94f" x="80.775" y="130.99857" style="fill: #ff0000; stroke: #ff0000; stroke-width: 1.75"/>
    </g>
   </g>
   <g id="PathCollection_2">
    <defs>
     <path id="C0_0_5d69e2b3e3" d="M 0 2.738613 
C 0.726289 2.738613 1.422928 2.450055 1.936492 1.936492 
C 2.450055 1.422928 2.738613 0.726289 2.738613 -0 
C 2.738613 -0.726289 2.450055 -1.422928 1.936492 -1.936492 
C 1.422928 -2.450055 0.726289 -2.738613 0 -2.738613 
C -0.726289 -2.738613 -1.422928 -2.450055 -1.936492 -1.936492 
C -2.450055 -1.422928 -2.738613 -0.726289 -2.738613 0 
C -2.738613 0.726289 -2.450055 1.422928 -1.936492 1.936492 
C -1.422928 2.450055 -0.726289 2.738613 0 2.738613 
z
"/>
    </defs>
    <g clip-path="url(#p8279c76eb7)">
     <use xlink:href="#C0_0_5d69e2b3e3" x="66.825" y="83.92143" style="fill: none; stroke: #ff0000; stroke-width: 1.75"/>
    </g>
    <g clip-path="url(#p8279c76eb7)">
     <use xlink:href="#C0_0_5d69e2b3e3" x="73.8" y="95.690715" style="fill: none; stroke: #ff0000; stroke-width: 1.75"/>
    </g>
    <g clip-path="url(#p8279c76eb7)">
     <use xlink:href="#C0_0_5d69e2b3e3" x="87.75" y="95.690715" style="fill: none; stroke: #ff0000; stroke-width: 1.75"/>
    </g>
    <g clip-path="url(#p8279c76eb7)">
     <use xlink:href="#C0_0_5d69e2b3e3" x="52.875" y="107.46" style="fill: none; stroke: #ff0000; stroke-width: 1.75"/>
    </g>
    <g clip-path="url(#p8279c76eb7)">
     <use xlink:href="#C0_0_5d69e2b3e3" x="73.8" y="119.229285" style="fill: none; stroke: #ff0000; stroke-width: 1.75"/>
    </g>
    <g clip-path="url(#p8279c76eb7)">
     <use xlink:href="#C0_0_5d69e2b3e3" x="87.75" y="119.229285" style="fill: none; stroke: #ff0000; stroke-width: 1.75"/>
    </g>
    <g clip-path="url(#p8279c76eb7)">
     <use xlink:href="#C0_0_5d69e2b3e3" x="66.825" y="130.99857" style="fill: none; stroke: #ff0000; stroke-width: 1.75"/>
    </g>
   </g>
   <g id="PathCollection_3">
    <path d="M 98.008779 109.449596 
C 98.563378 109.449596 99.095337 109.229251 99.487497 108.837091 
C 99.879658 108.44493 100.100002 107.912971 100.100002 107.358373 
C 100.100002 106.803774 99.879658 106.271815 99.487497 105.879655 
C 99.095337 105.487494 98.563378 105.267149 98.008779 105.267149 
C 97.45418 105.267149 96.922222 105.487494 96.530061 105.879655 
C 96.137901 106.271815 95.917556 106.803774 95.917556 107.358373 
C 95.917556 107.912971 96.137901 108.44493 96.530061 108.837091 
C 96.922222 109.229251 97.45418 109.449596 98.008779 109.449596 
z
" clip-path="url(#p8279c76eb7)" style="stroke: #000000"/>
    <path d="M 89.632762 90.814628 
C 89.765363 90.814628 89.892552 90.761945 89.986315 90.668182 
C 90.080079 90.574418 90.132762 90.44723 90.132762 90.314628 
C 90.132762 90.182027 90.080079 90.054838 89.986315 89.961075 
C 89.892552 89.867311 89.765363 89.814628 89.632762 89.814628 
C 89.50016 89.814628 89.372972 89.867311 89.279209 89.961075 
C 89.185445 90.054838 89.132762 90.182027 89.132762 90.314628 
C 89.132762 90.44723 89.185445 90.574418 89.279209 90.668182 
C 89.372972 90.761945 89.50016 90.814628 89.632762 90.814628 
z
" clip-path="url(#p8279c76eb7)" style="stroke: #000000"/>
    <path d="M 92.926597 116.916315 
C 93.084288 116.916315 93.235541 116.853664 93.347045 116.74216 
C 93.458549 116.630656 93.5212 116.479402 93.5212 116.321712 
C 93.5212 116.164021 93.458549 116.012768 93.347045 115.901263 
C 93.235541 115.789759 93.084288 115.727108 92.926597 115.727108 
C 92.768906 115.727108 92.617653 115.789759 92.506149 115.901263 
C 92.394645 116.012768 92.331993 116.164021 92.331993 116.321712 
C 92.331993 116.479402 92.394645 116.630656 92.506149 116.74216 
C 92.617653 116.853664 92.768906 116.916315 92.926597 116.916315 
z
" clip-path="url(#p8279c76eb7)" style="stroke: #000000"/>
    <path d="M 91.201616 111.704286 
C 91.546949 111.704286 91.878184 111.567083 92.122372 111.322896 
C 92.366559 111.078709 92.503761 110.747473 92.503761 110.40214 
C 92.503761 110.056807 92.366559 109.725572 92.122372 109.481385 
C 91.878184 109.237197 91.546949 109.099995 91.201616 109.099995 
C 90.856283 109.099995 90.525047 109.237197 90.28086 109.481385 
C 90.036673 109.725572 89.899471 110.056807 89.899471 110.40214 
C 89.899471 110.747473 90.036673 111.078709 90.28086 111.322896 
C 90.525047 111.567083 90.856283 111.704286 91.201616 111.704286 
z
" clip-path="url(#p8279c76eb7)" style="stroke: #000000"/>
    <path d="M 84.753346 98.802981 
C 85.289861 98.802981 85.804475 98.589821 86.183849 98.210448 
C 86.563222 97.831074 86.776382 97.31646 86.776382 96.779945 
C 86.776382 96.243429 86.563222 95.728816 86.183849 95.349442 
C 85.804475 94.970068 85.289861 94.756908 84.753346 94.756908 
C 84.21683 94.756908 83.702217 94.970068 83.322843 95.349442 
C 82.943469 95.728816 82.73031 96.243429 82.73031 96.779945 
C 82.73031 97.31646 82.943469 97.831074 83.322843 98.210448 
C 83.702217 98.589821 84.21683 98.802981 84.753346 98.802981 
z
" clip-path="url(#p8279c76eb7)" style="stroke: #000000"/>
    <path d="M 81.552985 86.856316 
C 82.088496 86.856316 82.602147 86.643555 82.980811 86.264891 
C 83.359475 85.886227 83.572236 85.372577 83.572236 84.837065 
C 83.572236 84.301553 83.359475 83.787902 82.980811 83.409238 
C 82.602147 83.030574 82.088496 82.817813 81.552985 82.817813 
C 81.017473 82.817813 80.503822 83.030574 80.125158 83.409238 
C 79.746494 83.787902 79.533733 84.301553 79.533733 84.837065 
C 79.533733 85.372577 79.746494 85.886227 80.125158 86.264891 
C 80.503822 86.643555 81.017473 86.856316 81.552985 86.856316 
z
" clip-path="url(#p8279c76eb7)" style="stroke: #000000"/>
    <path d="M 83.488968 83.364506 
C 83.873881 83.364506 84.243082 83.211578 84.515257 82.939403 
C 84.787432 82.667228 84.940359 82.298028 84.940359 81.913114 
C 84.940359 81.528201 84.787432 81.159001 84.515257 80.886826 
C 84.243082 80.614651 83.873881 80.461723 83.488968 80.461723 
C 83.104054 80.461723 82.734854 80.614651 82.462679 80.886826 
C 82.190504 81.159001 82.037576 81.528201 82.037576 81.913114 
C 82.037576 82.298028 82.190504 82.667228 82.462679 82.939403 
C 82.734854 83.211578 83.104054 83.364506 83.488968 83.364506 
z
" clip-path="url(#p8279c76eb7)" style="stroke: #000000"/>
    <path d="M 88.92534 125.089653 
C 89.155012 125.089653 89.375309 124.998403 89.537712 124.836 
C 89.700115 124.673597 89.791365 124.4533 89.791365 124.223627 
C 89.791365 123.993955 89.700115 123.773658 89.537712 123.611255 
C 89.375309 123.448852 89.155012 123.357602 88.92534 123.357602 
C 88.695667 123.357602 88.47537 123.448852 88.312967 123.611255 
C 88.150564 123.773658 88.059314 123.993955 88.059314 124.223627 
C 88.059314 124.4533 88.150564 124.673597 88.312967 124.836 
C 88.47537 124.998403 88.695667 125.089653 88.92534 125.089653 
z
" clip-path="url(#p8279c76eb7)" style="stroke: #000000"/>
    <path d="M 87.156478 120.817618 
C 87.768565 120.817618 88.355664 120.574434 88.788474 120.141624 
C 89.221284 119.708813 89.464469 119.121714 89.464469 118.509628 
C 89.464469 117.897542 89.221284 117.310443 88.788474 116.877633 
C 88.355664 116.444822 87.768565 116.201638 87.156478 116.201638 
C 86.544392 116.201638 85.957293 116.444822 85.524483 116.877633 
C 85.091673 117.310443 84.848488 117.897542 84.848488 118.509628 
C 84.848488 119.121714 85.091673 119.708813 85.524483 120.141624 
C 85.957293 120.574434 86.544392 120.817618 87.156478 120.817618 
z
" clip-path="url(#p8279c76eb7)" style="stroke: #000000"/>
    <path d="M 86.086439 112.097563 
C 86.24413 112.097563 86.395383 112.034911 86.506887 111.923407 
C 86.618392 111.811903 86.681043 111.66065 86.681043 111.502959 
C 86.681043 111.345268 86.618392 111.194015 86.506887 111.082511 
C 86.395383 110.971007 86.24413 110.908355 86.086439 110.908355 
C 85.928748 110.908355 85.777495 110.971007 85.665991 111.082511 
C 85.554487 111.194015 85.491836 111.345268 85.491836 111.502959 
C 85.491836 111.66065 85.554487 111.811903 85.665991 111.923407 
C 85.777495 112.034911 85.928748 112.097563 86.086439 112.097563 
z
" clip-path="url(#p8279c76eb7)" style="stroke: #000000"/>
    <path d="M 82.87718 106.85565 
C 83.311413 106.85565 83.72792 106.683127 84.034969 106.376078 
C 84.342018 106.069028 84.514541 105.652522 84.514541 105.218288 
C 84.514541 104.784055 84.342018 104.367549 84.034969 104.060499 
C 83.72792 103.75345 83.311413 103.580927 82.87718 103.580927 
C 82.442947 103.580927 82.02644 103.75345 81.719391 104.060499 
C 81.412341 104.367549 81.239819 104.784055 81.239819 105.218288 
C 81.239819 105.652522 81.412341 106.069028 81.719391 106.376078 
C 82.02644 106.683127 82.442947 106.85565 82.87718 106.85565 
z
" clip-path="url(#p8279c76eb7)" style="stroke: #000000"/>
    <path d="M 75.300486 95.515401 
C 75.770611 95.515401 76.221543 95.328619 76.553972 94.99619 
C 76.8864 94.663762 77.073182 94.212829 77.073182 93.742705 
C 77.073182 93.27258 76.8864 92.821648 76.553972 92.48922 
C 76.221543 92.156791 75.770611 91.970009 75.300486 91.970009 
C 74.830362 91.970009 74.379429 92.156791 74.047001 92.48922 
C 73.714573 92.821648 73.52779 93.27258 73.52779 93.742705 
C 73.52779 94.212829 73.714573 94.663762 74.047001 94.99619 
C 74.379429 95.328619 74.830362 95.515401 75.300486 95.515401 
z
" clip-path="url(#p8279c76eb7)" style="stroke: #000000"/>
    <path d="M 76.444142 86.758224 
C 76.794972 86.758224 77.131481 86.618837 77.379556 86.370762 
C 77.627631 86.122688 77.767017 85.786179 77.767017 85.435348 
C 77.767017 85.084517 77.627631 84.748008 77.379556 84.499934 
C 77.131481 84.251859 76.794972 84.112472 76.444142 84.112472 
C 76.093311 84.112472 75.756802 84.251859 75.508727 84.499934 
C 75.260653 84.748008 75.121266 85.084517 75.121266 85.435348 
C 75.121266 85.786179 75.260653 86.122688 75.508727 86.370762 
C 75.756802 86.618837 76.093311 86.758224 76.444142 86.758224 
z
" clip-path="url(#p8279c76eb7)" style="stroke: #000000"/>
    <path d="M 71.756797 76.366727 
C 71.914488 76.366727 72.065741 76.304076 72.177245 76.192571 
C 72.288749 76.081067 72.3514 75.929814 72.3514 75.772123 
C 72.3514 75.614433 72.288749 75.463179 72.177245 75.351675 
C 72.065741 75.240171 71.914488 75.17752 71.756797 75.17752 
C 71.599106 75.17752 71.447853 75.240171 71.336349 75.351675 
C 71.224844 75.463179 71.162193 75.614433 71.162193 75.772123 
C 71.162193 75.929814 71.224844 76.081067 71.336349 76.192571 
C 71.447853 76.304076 71.599106 76.366727 71.756797 76.366727 
z
" clip-path="url(#p8279c76eb7)" style="stroke: #000000"/>
    <path d="M 84.274408 134.667889 
C 84.448922 134.667889 84.616311 134.598554 84.739711 134.475154 
C 84.86311 134.351754 84.932445 134.184365 84.932445 134.009852 
C 84.932445 133.835338 84.86311 133.667949 84.739711 133.544549 
C 84.616311 133.42115 84.448922 133.351815 84.274408 133.351815 
C 84.099895 133.351815 83.932505 133.42115 83.809106 133.544549 
C 83.685706 133.667949 83.616371 133.835338 83.616371 134.009852 
C 83.616371 134.184365 83.685706 134.351754 83.809106 134.475154 
C 83.932505 134.598554 84.099895 134.667889 84.274408 134.667889 
z
" clip-path="url(#p8279c76eb7)" style="stroke: #000000"/>
    <path d="M 83.85413 127.429233 
C 84.052416 127.429233 84.242607 127.350453 84.382816 127.210244 
C 84.523025 127.070035 84.601805 126.879844 84.601805 126.681559 
C 84.601805 126.483273 84.523025 126.293082 84.382816 126.152873 
C 84.242607 126.012664 84.052416 125.933884 83.85413 125.933884 
C 83.655845 125.933884 83.465654 126.012664 83.325445 126.152873 
C 83.185236 126.293082 83.106456 126.483273 83.106456 126.681559 
C 83.106456 126.879844 83.185236 127.070035 83.325445 127.210244 
C 83.465654 127.350453 83.655845 127.429233 83.85413 127.429233 
z
" clip-path="url(#p8279c76eb7)" style="stroke: #000000"/>
    <path d="M 74.191025 98.043975 
C 74.706857 98.043975 75.20163 97.839033 75.566378 97.474285 
C 75.931125 97.109537 76.136067 96.614764 76.136067 96.098933 
C 76.136067 95.583102 75.931125 95.088329 75.566378 94.723581 
C 75.20163 94.358833 74.706857 94.153892 74.191025 94.153892 
C 73.675194 94.153892 73.180421 94.358833 72.815673 94.723581 
C 72.450926 95.088329 72.245984 95.583102 72.245984 96.098933 
C 72.245984 96.614764 72.450926 97.109537 72.815673 97.474285 
C 73.180421 97.839033 73.675194 98.043975 74.191025 98.043975 
z
" clip-path="url(#p8279c76eb7)" style="stroke: #000000"/>
    <path d="M 68.00015 91.030897 
C 68.157841 91.030897 68.309094 90.968245 68.420599 90.856741 
C 68.532103 90.745237 68.594754 90.593984 68.594754 90.436293 
C 68.594754 90.278602 68.532103 90.127349 68.420599 90.015845 
C 68.309094 89.904341 68.157841 89.841689 68.00015 89.841689 
C 67.84246 89.841689 67.691206 89.904341 67.579702 90.015845 
C 67.468198 90.127349 67.405547 90.278602 67.405547 90.436293 
C 67.405547 90.593984 67.468198 90.745237 67.579702 90.856741 
C 67.691206 90.968245 67.84246 91.030897 68.00015 91.030897 
z
" clip-path="url(#p8279c76eb7)" style="stroke: #000000"/>
    <path d="M 67.726982 87.831131 
C 68.293429 87.831131 68.836753 87.606079 69.237292 87.20554 
C 69.63783 86.805001 69.862882 86.261678 69.862882 85.69523 
C 69.862882 85.128783 69.63783 84.585459 69.237292 84.18492 
C 68.836753 83.784382 68.293429 83.55933 67.726982 83.55933 
C 67.160534 83.55933 66.617211 83.784382 66.216672 84.18492 
C 65.816133 84.585459 65.591081 85.128783 65.591081 85.69523 
C 65.591081 86.261678 65.816133 86.805001 66.216672 87.20554 
C 66.617211 87.606079 67.160534 87.831131 67.726982 87.831131 
z
" clip-path="url(#p8279c76eb7)" style="stroke: #000000"/>
    <path d="M 62.747239 78.193542 
C 62.879841 78.193542 63.007029 78.140859 63.100792 78.047096 
C 63.194556 77.953332 63.247239 77.826144 63.247239 77.693542 
C 63.247239 77.560941 63.194556 77.433753 63.100792 77.339989 
C 63.007029 77.246226 62.879841 77.193542 62.747239 77.193542 
C 62.614638 77.193542 62.487449 77.246226 62.393686 77.339989 
C 62.299922 77.433753 62.247239 77.560941 62.247239 77.693542 
C 62.247239 77.826144 62.299922 77.953332 62.393686 78.047096 
C 62.487449 78.140859 62.614638 78.193542 62.747239 78.193542 
z
" clip-path="url(#p8279c76eb7)" style="stroke: #000000"/>
    <path d="M 81.060228 140.049575 
C 81.19283 140.049575 81.320018 139.996892 81.413782 139.903129 
C 81.507545 139.809365 81.560228 139.682177 81.560228 139.549575 
C 81.560228 139.416974 81.507545 139.289785 81.413782 139.196022 
C 81.320018 139.102258 81.19283 139.049575 81.060228 139.049575 
C 80.927627 139.049575 80.800438 139.102258 80.706675 139.196022 
C 80.612911 139.289785 80.560228 139.416974 80.560228 139.549575 
C 80.560228 139.682177 80.612911 139.809365 80.706675 139.903129 
C 80.800438 139.996892 80.927627 140.049575 81.060228 140.049575 
z
" clip-path="url(#p8279c76eb7)" style="stroke: #000000"/>
    <path d="M 76.969601 130.780408 
C 77.399035 130.780408 77.810939 130.609792 78.114595 130.306136 
C 78.418251 130.00248 78.588867 129.590576 78.588867 129.161142 
C 78.588867 128.731708 78.418251 128.319804 78.114595 128.016148 
C 77.810939 127.712492 77.399035 127.541876 76.969601 127.541876 
C 76.540167 127.541876 76.128263 127.712492 75.824607 128.016148 
C 75.520951 128.319804 75.350335 128.731708 75.350335 129.161142 
C 75.350335 129.590576 75.520951 130.00248 75.824607 130.306136 
C 76.128263 130.609792 76.540167 130.780408 76.969601 130.780408 
z
" clip-path="url(#p8279c76eb7)" style="stroke: #000000"/>
    <path d="M 74.348924 124.480714 
C 74.731097 124.480714 75.09767 124.328875 75.367907 124.058637 
C 75.638145 123.7884 75.789984 123.421827 75.789984 123.039654 
C 75.789984 122.65748 75.638145 122.290908 75.367907 122.02067 
C 75.09767 121.750432 74.731097 121.598593 74.348924 121.598593 
C 73.96675 121.598593 73.600177 121.750432 73.32994 122.02067 
C 73.059702 122.290908 72.907863 122.65748 72.907863 123.039654 
C 72.907863 123.421827 73.059702 123.7884 73.32994 124.058637 
C 73.600177 124.328875 73.96675 124.480714 74.348924 124.480714 
z
" clip-path="url(#p8279c76eb7)" style="stroke: #000000"/>
    <path d="M 73.674052 117.378409 
C 74.031833 117.378409 74.375009 117.236261 74.627999 116.983272 
C 74.880988 116.730282 75.023136 116.387106 75.023136 116.029325 
C 75.023136 115.671544 74.880988 115.328368 74.627999 115.075379 
C 74.375009 114.822389 74.031833 114.680241 73.674052 114.680241 
C 73.316271 114.680241 72.973095 114.822389 72.720106 115.075379 
C 72.467116 115.328368 72.324968 115.671544 72.324968 116.029325 
C 72.324968 116.387106 72.467116 116.730282 72.720106 116.983272 
C 72.973095 117.236261 73.316271 117.378409 73.674052 117.378409 
z
" clip-path="url(#p8279c76eb7)" style="stroke: #000000"/>
    <path d="M 67.99351 102.729143 
C 68.181037 102.729143 68.360909 102.654637 68.49351 102.522036 
C 68.626112 102.389434 68.700617 102.209563 68.700617 102.022036 
C 68.700617 101.834509 68.626112 101.654637 68.49351 101.522036 
C 68.360909 101.389434 68.181037 101.314929 67.99351 101.314929 
C 67.805983 101.314929 67.626112 101.389434 67.49351 101.522036 
C 67.360909 101.654637 67.286403 101.834509 67.286403 102.022036 
C 67.286403 102.209563 67.360909 102.389434 67.49351 102.522036 
C 67.626112 102.654637 67.805983 102.729143 67.99351 102.729143 
z
" clip-path="url(#p8279c76eb7)" style="stroke: #000000"/>
    <path d="M 62.343992 87.59096 
C 62.604951 87.59096 62.855256 87.48728 63.039782 87.302755 
C 63.224307 87.118229 63.327987 86.867924 63.327987 86.606965 
C 63.327987 86.346007 63.224307 86.095701 63.039782 85.911176 
C 62.855256 85.72665 62.604951 85.62297 62.343992 85.62297 
C 62.083034 85.62297 61.832728 85.72665 61.648203 85.911176 
C 61.463677 86.095701 61.359997 86.346007 61.359997 86.606965 
C 61.359997 86.867924 61.463677 87.118229 61.648203 87.302755 
C 61.832728 87.48728 62.083034 87.59096 62.343992 87.59096 
z
" clip-path="url(#p8279c76eb7)" style="stroke: #000000"/>
    <path d="M 58.730604 81.478986 
C 58.863206 81.478986 58.990394 81.426302 59.084158 81.332539 
C 59.177921 81.238775 59.230604 81.111587 59.230604 80.978986 
C 59.230604 80.846384 59.177921 80.719196 59.084158 80.625432 
C 58.990394 80.531669 58.863206 80.478986 58.730604 80.478986 
C 58.598003 80.478986 58.470815 80.531669 58.377051 80.625432 
C 58.283288 80.719196 58.230604 80.846384 58.230604 80.978986 
C 58.230604 81.111587 58.283288 81.238775 58.377051 81.332539 
C 58.470815 81.426302 58.598003 81.478986 58.730604 81.478986 
z
" clip-path="url(#p8279c76eb7)" style="stroke: #000000"/>
    <path d="M 71.797972 130.150769 
C 71.972486 130.150769 72.139875 130.081434 72.263275 129.958034 
C 72.386674 129.834635 72.456009 129.667245 72.456009 129.492732 
C 72.456009 129.318218 72.386674 129.150829 72.263275 129.027429 
C 72.139875 128.90403 71.972486 128.834695 71.797972 128.834695 
C 71.623459 128.834695 71.45607 128.90403 71.33267 129.027429 
C 71.20927 129.150829 71.139935 129.318218 71.139935 129.492732 
C 71.139935 129.667245 71.20927 129.834635 71.33267 129.958034 
C 71.45607 130.081434 71.623459 130.150769 71.797972 130.150769 
z
" clip-path="url(#p8279c76eb7)" style="stroke: #000000"/>
    <path d="M 67.310872 124.9467 
C 67.498399 124.9467 67.678271 124.872194 67.810872 124.739593 
C 67.943474 124.606991 68.017979 124.42712 68.017979 124.239593 
C 68.017979 124.052066 67.943474 123.872194 67.810872 123.739593 
C 67.678271 123.606991 67.498399 123.532486 67.310872 123.532486 
C 67.123345 123.532486 66.943474 123.606991 66.810872 123.739593 
C 66.678271 123.872194 66.603765 124.052066 66.603765 124.239593 
C 66.603765 124.42712 66.678271 124.606991 66.810872 124.739593 
C 66.943474 124.872194 67.123345 124.9467 67.310872 124.9467 
z
" clip-path="url(#p8279c76eb7)" style="stroke: #000000"/>
    <path d="M 64.246373 117.169001 
C 64.404064 117.169001 64.555317 117.10635 64.666821 116.994846 
C 64.778326 116.883342 64.840977 116.732088 64.840977 116.574398 
C 64.840977 116.416707 64.778326 116.265454 64.666821 116.153949 
C 64.555317 116.042445 64.404064 115.979794 64.246373 115.979794 
C 64.088682 115.979794 63.937429 116.042445 63.825925 116.153949 
C 63.714421 116.265454 63.65177 116.416707 63.65177 116.574398 
C 63.65177 116.732088 63.714421 116.883342 63.825925 116.994846 
C 63.937429 117.10635 64.088682 117.169001 64.246373 117.169001 
z
" clip-path="url(#p8279c76eb7)" style="stroke: #000000"/>
    <path d="M 59.779231 106.556174 
C 59.936921 106.556174 60.088175 106.493523 60.199679 106.382019 
C 60.311183 106.270515 60.373834 106.119261 60.373834 105.961571 
C 60.373834 105.80388 60.311183 105.652627 60.199679 105.541122 
C 60.088175 105.429618 59.936921 105.366967 59.779231 105.366967 
C 59.62154 105.366967 59.470287 105.429618 59.358782 105.541122 
C 59.247278 105.652627 59.184627 105.80388 59.184627 105.961571 
C 59.184627 106.119261 59.247278 106.270515 59.358782 106.382019 
C 59.470287 106.493523 59.62154 106.556174 59.779231 106.556174 
z
" clip-path="url(#p8279c76eb7)" style="stroke: #000000"/>
    <path d="M 58.760401 101.691108 
C 59.13249 101.691108 59.489389 101.543276 59.752496 101.280169 
C 60.015602 101.017063 60.163435 100.660164 60.163435 100.288075 
C 60.163435 99.915986 60.015602 99.559087 59.752496 99.295981 
C 59.489389 99.032874 59.13249 98.885042 58.760401 98.885042 
C 58.388313 98.885042 58.031414 99.032874 57.768307 99.295981 
C 57.505201 99.559087 57.357368 99.915986 57.357368 100.288075 
C 57.357368 100.660164 57.505201 101.017063 57.768307 101.280169 
C 58.031414 101.543276 58.388313 101.691108 58.760401 101.691108 
z
" clip-path="url(#p8279c76eb7)" style="stroke: #000000"/>
    <path d="M 55.790045 95.952156 
C 56.089473 95.952156 56.376677 95.833192 56.588405 95.621465 
C 56.800132 95.409738 56.919096 95.122533 56.919096 94.823106 
C 56.919096 94.523678 56.800132 94.236474 56.588405 94.024747 
C 56.376677 93.813019 56.089473 93.694055 55.790045 93.694055 
C 55.490618 93.694055 55.203413 93.813019 54.991686 94.024747 
C 54.779959 94.236474 54.660995 94.523678 54.660995 94.823106 
C 54.660995 95.122533 54.779959 95.409738 54.991686 95.621465 
C 55.203413 95.833192 55.490618 95.952156 55.790045 95.952156 
z
" clip-path="url(#p8279c76eb7)" style="stroke: #000000"/>
    <path d="M 64.24106 133.886609 
C 64.776068 133.886609 65.289235 133.674048 65.667543 133.29574 
C 66.04585 132.917433 66.258411 132.404265 66.258411 131.869258 
C 66.258411 131.33425 66.04585 130.821083 65.667543 130.442775 
C 65.289235 130.064467 64.776068 129.851907 64.24106 129.851907 
C 63.706052 129.851907 63.192885 130.064467 62.814577 130.442775 
C 62.43627 130.821083 62.223709 131.33425 62.223709 131.869258 
C 62.223709 132.404265 62.43627 132.917433 62.814577 133.29574 
C 63.192885 133.674048 63.706052 133.886609 64.24106 133.886609 
z
" clip-path="url(#p8279c76eb7)" style="stroke: #000000"/>
    <path d="M 59.068395 123.405941 
C 59.614652 123.405941 60.138609 123.188911 60.524871 122.802649 
C 60.911132 122.416387 61.128162 121.89243 61.128162 121.346174 
C 61.128162 120.799917 60.911132 120.27596 60.524871 119.889698 
C 60.138609 119.503437 59.614652 119.286407 59.068395 119.286407 
C 58.522139 119.286407 57.998182 119.503437 57.61192 119.889698 
C 57.225658 120.27596 57.008628 120.799917 57.008628 121.346174 
C 57.008628 121.89243 57.225658 122.416387 57.61192 122.802649 
C 57.998182 123.188911 58.522139 123.405941 59.068395 123.405941 
z
" clip-path="url(#p8279c76eb7)" style="stroke: #000000"/>
    <path d="M 59.717937 118.720849 
C 60.23433 118.720849 60.729643 118.515683 61.094788 118.150538 
C 61.459933 117.785393 61.665099 117.29008 61.665099 116.773687 
C 61.665099 116.257294 61.459933 115.761981 61.094788 115.396836 
C 60.729643 115.031691 60.23433 114.826526 59.717937 114.826526 
C 59.201544 114.826526 58.706231 115.031691 58.341086 115.396836 
C 57.975941 115.761981 57.770776 116.257294 57.770776 116.773687 
C 57.770776 117.29008 57.975941 117.785393 58.341086 118.150538 
C 58.706231 118.515683 59.201544 118.720849 59.717937 118.720849 
z
" clip-path="url(#p8279c76eb7)" style="stroke: #000000"/>
    <path d="M 54.696897 112.106673 
C 55.04223 112.106673 55.373465 111.969471 55.617653 111.725284 
C 55.86184 111.481097 55.999042 111.149861 55.999042 110.804528 
C 55.999042 110.459195 55.86184 110.12796 55.617653 109.883772 
C 55.373465 109.639585 55.04223 109.502383 54.696897 109.502383 
C 54.351564 109.502383 54.020328 109.639585 53.776141 109.883772 
C 53.531954 110.12796 53.394751 110.459195 53.394751 110.804528 
C 53.394751 111.149861 53.531954 111.481097 53.776141 111.725284 
C 54.020328 111.969471 54.351564 112.106673 54.696897 112.106673 
z
" clip-path="url(#p8279c76eb7)" style="stroke: #000000"/>
    <path d="M 51.49129 103.531296 
C 51.743078 103.531296 51.984587 103.431259 52.162627 103.253219 
C 52.340668 103.075178 52.440704 102.833669 52.440704 102.581881 
C 52.440704 102.330094 52.340668 102.088585 52.162627 101.910544 
C 51.984587 101.732503 51.743078 101.632467 51.49129 101.632467 
C 51.239502 101.632467 50.997993 101.732503 50.819953 101.910544 
C 50.641912 102.088585 50.541875 102.330094 50.541875 102.581881 
C 50.541875 102.833669 50.641912 103.075178 50.819953 103.253219 
C 50.997993 103.431259 51.239502 103.531296 51.49129 103.531296 
z
" clip-path="url(#p8279c76eb7)" style="stroke: #000000"/>
    <path d="M 47.400257 106.216089 
C 47.647056 106.216089 47.883781 106.118034 48.058294 105.943521 
C 48.232808 105.769008 48.330862 105.532283 48.330862 105.285484 
C 48.330862 105.038685 48.232808 104.80196 48.058294 104.627447 
C 47.883781 104.452934 47.647056 104.354879 47.400257 104.354879 
C 47.153458 104.354879 46.916734 104.452934 46.74222 104.627447 
C 46.567707 104.80196 46.469652 105.038685 46.469652 105.285484 
C 46.469652 105.532283 46.567707 105.769008 46.74222 105.943521 
C 46.916734 106.118034 47.153458 106.216089 47.400257 106.216089 
z
" clip-path="url(#p8279c76eb7)" style="stroke: #000000"/>
   </g>
   <g id="matplotlib.axis_1">
    <g id="xtick_1">
     <g id="line2d_1">
      <defs>
       <path id="m8a7257ae52" d="M 0 0 
L 0 3.5 
" style="stroke: #000000; stroke-width: 0.8"/>
      </defs>
      <g>
       <use xlink:href="#m8a7257ae52" x="18" y="189" style="stroke: #000000; stroke-width: 0.8"/>
      </g>
     </g>
     <g id="text_1">
      <!-- −10 -->
      <g transform="translate(7.447656 203.598437)scale(0.1 -0.1)">
       <defs>
        <path id="DejaVuSans-2212" d="M 678 2272 
L 4684 2272 
L 4684 1741 
L 678 1741 
L 678 2272 
z
" transform="scale(0.015625)"/>
        <path id="DejaVuSans-31" d="M 794 531 
L 1825 531 
L 1825 4091 
L 703 3866 
L 703 4441 
L 1819 4666 
L 2450 4666 
L 2450 531 
L 3481 531 
L 3481 0 
L 794 0 
L 794 531 
z
" transform="scale(0.015625)"/>
        <path id="DejaVuSans-30" d="M 2034 4250 
Q 1547 4250 1301 3770 
Q 1056 3291 1056 2328 
Q 1056 1369 1301 889 
Q 1547 409 2034 409 
Q 2525 409 2770 889 
Q 3016 1369 3016 2328 
Q 3016 3291 2770 3770 
Q 2525 4250 2034 4250 
z
M 2034 4750 
Q 2819 4750 3233 4129 
Q 3647 3509 3647 2328 
Q 3647 1150 3233 529 
Q 2819 -91 2034 -91 
Q 1250 -91 836 529 
Q 422 1150 422 2328 
Q 422 3509 836 4129 
Q 1250 4750 2034 4750 
z
" transform="scale(0.015625)"/>
       </defs>
       <use xlink:href="#DejaVuSans-2212"/>
       <use xlink:href="#DejaVuSans-31" x="83.789062"/>
       <use xlink:href="#DejaVuSans-30" x="147.412109"/>
      </g>
     </g>
    </g>
    <g id="xtick_2">
     <g id="line2d_2">
      <g>
       <use xlink:href="#m8a7257ae52" x="73.8" y="189" style="stroke: #000000; stroke-width: 0.8"/>
      </g>
     </g>
     <g id="text_2">
      <!-- 0 -->
      <g transform="translate(70.61875 203.598437)scale(0.1 -0.1)">
       <use xlink:href="#DejaVuSans-30"/>
      </g>
     </g>
    </g>
    <g id="xtick_3">
     <g id="line2d_3">
      <g>
       <use xlink:href="#m8a7257ae52" x="129.6" y="189" style="stroke: #000000; stroke-width: 0.8"/>
      </g>
     </g>
     <g id="text_3">
      <!-- 10 -->
      <g transform="translate(123.2375 203.598437)scale(0.1 -0.1)">
       <use xlink:href="#DejaVuSans-31"/>
       <use xlink:href="#DejaVuSans-30" x="63.623047"/>
      </g>
     </g>
    </g>
   </g>
   <g id="matplotlib.axis_2">
    <g id="ytick_1">
     <g id="line2d_4">
      <defs>
       <path id="mbd7711e0ea" d="M 0 0 
L -3.5 0 
" style="stroke: #000000; stroke-width: 0.8"/>
      </defs>
      <g>
       <use xlink:href="#mbd7711e0ea" x="18" y="189" style="stroke: #000000; stroke-width: 0.8"/>
      </g>
     </g>
     <g id="text_4">
      <!-- −15 -->
      <g transform="translate(-10.104688 192.799219)scale(0.1 -0.1)">
       <defs>
        <path id="DejaVuSans-35" d="M 691 4666 
L 3169 4666 
L 3169 4134 
L 1269 4134 
L 1269 2991 
Q 1406 3038 1543 3061 
Q 1681 3084 1819 3084 
Q 2600 3084 3056 2656 
Q 3513 2228 3513 1497 
Q 3513 744 3044 326 
Q 2575 -91 1722 -91 
Q 1428 -91 1123 -41 
Q 819 9 494 109 
L 494 744 
Q 775 591 1075 516 
Q 1375 441 1709 441 
Q 2250 441 2565 725 
Q 2881 1009 2881 1497 
Q 2881 1984 2565 2268 
Q 2250 2553 1709 2553 
Q 1456 2553 1204 2497 
Q 953 2441 691 2322 
L 691 4666 
z
" transform="scale(0.015625)"/>
       </defs>
       <use xlink:href="#DejaVuSans-2212"/>
       <use xlink:href="#DejaVuSans-31" x="83.789062"/>
       <use xlink:href="#DejaVuSans-35" x="147.412109"/>
      </g>
     </g>
    </g>
    <g id="ytick_2">
     <g id="line2d_5">
      <g>
       <use xlink:href="#mbd7711e0ea" x="18" y="161.82" style="stroke: #000000; stroke-width: 0.8"/>
      </g>
     </g>
     <g id="text_5">
      <!-- −10 -->
      <g transform="translate(-10.104688 165.619219)scale(0.1 -0.1)">
       <use xlink:href="#DejaVuSans-2212"/>
       <use xlink:href="#DejaVuSans-31" x="83.789062"/>
       <use xlink:href="#DejaVuSans-30" x="147.412109"/>
      </g>
     </g>
    </g>
    <g id="ytick_3">
     <g id="line2d_6">
      <g>
       <use xlink:href="#mbd7711e0ea" x="18" y="134.64" style="stroke: #000000; stroke-width: 0.8"/>
      </g>
     </g>
     <g id="text_6">
      <!-- −5 -->
      <g transform="translate(-3.742188 138.439219)scale(0.1 -0.1)">
       <use xlink:href="#DejaVuSans-2212"/>
       <use xlink:href="#DejaVuSans-35" x="83.789062"/>
      </g>
     </g>
    </g>
    <g id="ytick_4">
     <g id="line2d_7">
      <g>
       <use xlink:href="#mbd7711e0ea" x="18" y="107.46" style="stroke: #000000; stroke-width: 0.8"/>
      </g>
     </g>
     <g id="text_7">
      <!-- 0 -->
      <g transform="translate(4.6375 111.259219)scale(0.1 -0.1)">
       <use xlink:href="#DejaVuSans-30"/>
      </g>
     </g>
    </g>
    <g id="ytick_5">
     <g id="line2d_8">
      <g>
       <use xlink:href="#mbd7711e0ea" x="18" y="80.28" style="stroke: #000000; stroke-width: 0.8"/>
      </g>
     </g>
     <g id="text_8">
      <!-- 5 -->
      <g transform="translate(4.6375 84.079219)scale(0.1 -0.1)">
       <use xlink:href="#DejaVuSans-35"/>
      </g>
     </g>
    </g>
    <g id="ytick_6">
     <g id="line2d_9">
      <g>
       <use xlink:href="#mbd7711e0ea" x="18" y="53.1" style="stroke: #000000; stroke-width: 0.8"/>
      </g>
     </g>
     <g id="text_9">
      <!-- 10 -->
      <g transform="translate(-1.725 56.899219)scale(0.1 -0.1)">
       <use xlink:href="#DejaVuSans-31"/>
       <use xlink:href="#DejaVuSans-30" x="63.623047"/>
      </g>
     </g>
    </g>
    <g id="ytick_7">
     <g id="line2d_10">
      <g>
       <use xlink:href="#mbd7711e0ea" x="18" y="25.92" style="stroke: #000000; stroke-width: 0.8"/>
      </g>
     </g>
     <g id="text_10">
      <!-- 15 -->
      <g transform="translate(-1.725 29.719219)scale(0.1 -0.1)">
       <use xlink:href="#DejaVuSans-31"/>
       <use xlink:href="#DejaVuSans-35" x="63.623047"/>
      </g>
     </g>
    </g>
   </g>
   <g id="patch_3">
    <path d="M 18 189 
L 18 25.92 
" style="fill: none; stroke: #000000; stroke-width: 0.8; stroke-linejoin: miter; stroke-linecap: square"/>
   </g>
   <g id="patch_4">
    <path d="M 129.6 189 
L 129.6 25.92 
" style="fill: none; stroke: #000000; stroke-width: 0.8; stroke-linejoin: miter; stroke-linecap: square"/>
   </g>
   <g id="patch_5">
    <path d="M 18 189 
L 129.6 189 
" style="fill: none; stroke: #000000; stroke-width: 0.8; stroke-linejoin: miter; stroke-linecap: square"/>
   </g>
   <g id="patch_6">
    <path d="M 18 25.92 
L 129.6 25.92 
" style="fill: none; stroke: #000000; stroke-width: 0.8; stroke-linejoin: miter; stroke-linecap: square"/>
   </g>
  </g>
 </g>
 <defs>
  <clipPath id="p8279c76eb7">
   <rect x="18" y="25.92" width="111.6" height="163.08"/>
  </clipPath>
 </defs>
</svg>
