<?xml version="1.0" encoding="utf-8" standalone="no"?>
<!DOCTYPE svg PUBLIC "-//W3C//DTD SVG 1.1//EN"
  "http://www.w3.org/Graphics/SVG/1.1/DTD/svg11.dtd">
<svg xmlns:xlink="http://www.w3.org/1999/xlink" width="144pt" height="216pt" viewBox="0 0 144 216" xmlns="http://www.w3.org/2000/svg" version="1.1">
 <metadata>
  <rdf:RDF xmlns:dc="http://purl.org/dc/elements/1.1/" xmlns:cc="http://creativecommons.org/ns#" xmlns:rdf="http://www.w3.org/1999/02/22-rdf-syntax-ns#">
   <cc:Work>
    <dc:type rdf:resource="http://purl.org/dc/dcmitype/StillImage"/>
    <dc:date>2022-06-23T14:45:48.358435</dc:date>
    <dc:format>image/svg+xml</dc:format>
    <dc:creator>
     <cc:Agent>
      <dc:title>Matplotlib v3.5.1, https://matplotlib.org/</dc:title>
     </cc:Agent>
    </dc:creator>
   </cc:Work>
  </rdf:RDF>
 </metadata>
 <defs>
  <style type="text/css">*{stroke-linejoin: round; stroke-linecap: butt}</style>
 </defs>
 <g id="figure_1">
  <g id="patch_1">
   <path d="M 0 216 
L 144 216 
L 144 0 
L 0 0 
L 0 216 
z
" style="fill: none"/>
  </g>
  <g id="axes_1">
   <g id="patch_2">
    <path d="M 18 189 
L 129.6 189 
L 129.6 25.92 
L 18 25.92 
z
" style="fill: #ffffff"/>
   </g>
   <g id="PathCollection_1">
    <defs>
     <path id="m7f52b83454" d="M 0 2.738613 
C 0.726289 2.738613 1.422928 2.450055 1.936492 1.936492 
C 2.450055 1.422928 2.738613 0.726289 2.738613 0 
C 2.738613 -0.726289 2.450055 -1.422928 1.936492 -1.936492 
C 1.422928 -2.450055 0.726289 -2.738613 0 -2.738613 
C -0.726289 -2.738613 -1.422928 -2.450055 -1.936492 -1.936492 
C -2.450055 -1.422928 -2.738613 -0.726289 -2.738613 0 
C -2.738613 0.726289 -2.450055 1.422928 -1.936492 1.936492 
C -1.422928 2.450055 -0.726289 2.738613 0 2.738613 
z
" style="stroke: #ff0000; stroke-width: 1.75"/>
    </defs>
    <g clip-path="url(#p471d37f042)">
     <use xlink:href="#m7f52b83454" x="80.775" y="83.92143" style="fill: #ff0000; stroke: #ff0000; stroke-width: 1.75"/>
     <use xlink:href="#m7f52b83454" x="59.85" y="95.690715" style="fill: #ff0000; stroke: #ff0000; stroke-width: 1.75"/>
     <use xlink:href="#m7f52b83454" x="66.825" y="107.46" style="fill: #ff0000; stroke: #ff0000; stroke-width: 1.75"/>
     <use xlink:href="#m7f52b83454" x="80.775" y="107.46" style="fill: #ff0000; stroke: #ff0000; stroke-width: 1.75"/>
     <use xlink:href="#m7f52b83454" x="94.725" y="107.46" style="fill: #ff0000; stroke: #ff0000; stroke-width: 1.75"/>
     <use xlink:href="#m7f52b83454" x="59.85" y="119.229285" style="fill: #ff0000; stroke: #ff0000; stroke-width: 1.75"/>
     <use xlink:href="#m7f52b83454" x="80.775" y="130.99857" style="fill: #ff0000; stroke: #ff0000; stroke-width: 1.75"/>
    </g>
   </g>
   <g id="PathCollection_2">
    <defs>
     <path id="C0_0_22da1cf7dd" d="M 0 2.738613 
C 0.726289 2.738613 1.422928 2.450055 1.936492 1.936492 
C 2.450055 1.422928 2.738613 0.726289 2.738613 -0 
C 2.738613 -0.726289 2.450055 -1.422928 1.936492 -1.936492 
C 1.422928 -2.450055 0.726289 -2.738613 0 -2.738613 
C -0.726289 -2.738613 -1.422928 -2.450055 -1.936492 -1.936492 
C -2.450055 -1.422928 -2.738613 -0.726289 -2.738613 0 
C -2.738613 0.726289 -2.450055 1.422928 -1.936492 1.936492 
C -1.422928 2.450055 -0.726289 2.738613 0 2.738613 
z
"/>
    </defs>
    <g clip-path="url(#p471d37f042)">
     <use xlink:href="#C0_0_22da1cf7dd" x="66.825" y="83.92143" style="fill: none; stroke: #ff0000; stroke-width: 1.75"/>
    </g>
    <g clip-path="url(#p471d37f042)">
     <use xlink:href="#C0_0_22da1cf7dd" x="73.8" y="95.690715" style="fill: none; stroke: #ff0000; stroke-width: 1.75"/>
    </g>
    <g clip-path="url(#p471d37f042)">
     <use xlink:href="#C0_0_22da1cf7dd" x="87.75" y="95.690715" style="fill: none; stroke: #ff0000; stroke-width: 1.75"/>
    </g>
    <g clip-path="url(#p471d37f042)">
     <use xlink:href="#C0_0_22da1cf7dd" x="52.875" y="107.46" style="fill: none; stroke: #ff0000; stroke-width: 1.75"/>
    </g>
    <g clip-path="url(#p471d37f042)">
     <use xlink:href="#C0_0_22da1cf7dd" x="73.8" y="119.229285" style="fill: none; stroke: #ff0000; stroke-width: 1.75"/>
    </g>
    <g clip-path="url(#p471d37f042)">
     <use xlink:href="#C0_0_22da1cf7dd" x="87.75" y="119.229285" style="fill: none; stroke: #ff0000; stroke-width: 1.75"/>
    </g>
    <g clip-path="url(#p471d37f042)">
     <use xlink:href="#C0_0_22da1cf7dd" x="66.825" y="130.99857" style="fill: none; stroke: #ff0000; stroke-width: 1.75"/>
    </g>
   </g>
   <g id="PathCollection_3">
    <path d="M 113.538817 101.569107 
C 114.131458 101.569107 114.699906 101.333648 115.118966 100.914587 
C 115.538027 100.495527 115.773486 99.927079 115.773486 99.334438 
C 115.773486 98.741797 115.538027 98.173349 115.118966 97.754288 
C 114.699906 97.335228 114.131458 97.099769 113.538817 97.099769 
C 112.946176 97.099769 112.377728 97.335228 111.958667 97.754288 
C 111.539606 98.173349 111.304148 98.741797 111.304148 99.334438 
C 111.304148 99.927079 111.539606 100.495527 111.958667 100.914587 
C 112.377728 101.333648 112.946176 101.569107 113.538817 101.569107 
z
" clip-path="url(#p471d37f042)" style="stroke: #000000"/>
    <path d="M 109.849647 92.072423 
C 110.442659 92.072423 111.011463 91.836817 111.430786 91.417494 
C 111.850109 90.998171 112.085715 90.429367 112.085715 89.836355 
C 112.085715 89.243343 111.850109 88.674539 111.430786 88.255216 
C 111.011463 87.835893 110.442659 87.600287 109.849647 87.600287 
C 109.256635 87.600287 108.687831 87.835893 108.268508 88.255216 
C 107.849185 88.674539 107.613579 89.243343 107.613579 89.836355 
C 107.613579 90.429367 107.849185 90.998171 108.268508 91.417494 
C 108.687831 91.836817 109.256635 92.072423 109.849647 92.072423 
z
" clip-path="url(#p471d37f042)" style="stroke: #000000"/>
    <path d="M 104.703081 78.658274 
C 105.295722 78.658274 105.86417 78.422816 106.283231 78.003755 
C 106.702291 77.584694 106.93775 77.016246 106.93775 76.423605 
C 106.93775 75.830964 106.702291 75.262516 106.283231 74.843456 
C 105.86417 74.424395 105.295722 74.188936 104.703081 74.188936 
C 104.11044 74.188936 103.541992 74.424395 103.122931 74.843456 
C 102.703871 75.262516 102.468412 75.830964 102.468412 76.423605 
C 102.468412 77.016246 102.703871 77.584694 103.122931 78.003755 
C 103.541992 78.422816 104.11044 78.658274 104.703081 78.658274 
z
" clip-path="url(#p471d37f042)" style="stroke: #000000"/>
    <path d="M 100.135534 73.333611 
C 100.728916 73.333611 101.298075 73.097858 101.71766 72.678273 
C 102.137245 72.258688 102.372998 71.68953 102.372998 71.096147 
C 102.372998 70.502765 102.137245 69.933606 101.71766 69.514021 
C 101.298075 69.094436 100.728916 68.858683 100.135534 68.858683 
C 99.542152 68.858683 98.972993 69.094436 98.553408 69.514021 
C 98.133823 69.933606 97.89807 70.502765 97.89807 71.096147 
C 97.89807 71.68953 98.133823 72.258688 98.553408 72.678273 
C 98.972993 73.097858 99.542152 73.333611 100.135534 73.333611 
z
" clip-path="url(#p471d37f042)" style="stroke: #000000"/>
    <path d="M 94.700942 61.388052 
C 95.293954 61.388052 95.862757 61.152445 96.28208 60.733122 
C 96.701403 60.3138 96.93701 59.744996 96.93701 59.151984 
C 96.93701 58.558971 96.701403 57.990168 96.28208 57.570845 
C 95.862757 57.151522 95.293954 56.915916 94.700942 56.915916 
C 94.107929 56.915916 93.539126 57.151522 93.119803 57.570845 
C 92.70048 57.990168 92.464874 58.558971 92.464874 59.151984 
C 92.464874 59.744996 92.70048 60.3138 93.119803 60.733122 
C 93.539126 61.152445 94.107929 61.388052 94.700942 61.388052 
z
" clip-path="url(#p471d37f042)" style="stroke: #000000"/>
    <path d="M 90.288723 45.53965 
C 90.852601 45.53965 91.393461 45.315619 91.792183 44.916896 
C 92.190905 44.518174 92.414937 43.977314 92.414937 43.413436 
C 92.414937 42.849557 92.190905 42.308698 91.792183 41.909976 
C 91.393461 41.511253 90.852601 41.287222 90.288723 41.287222 
C 89.724844 41.287222 89.183985 41.511253 88.785263 41.909976 
C 88.38654 42.308698 88.162509 42.849557 88.162509 43.413436 
C 88.162509 43.977314 88.38654 44.518174 88.785263 44.916896 
C 89.183985 45.315619 89.724844 45.53965 90.288723 45.53965 
z
" clip-path="url(#p471d37f042)" style="stroke: #000000"/>
    <path d="M 104.552852 116.27279 
C 105.146234 116.27279 105.715393 116.037036 106.134978 115.617452 
C 106.554563 115.197867 106.790316 114.628708 106.790316 114.035325 
C 106.790316 113.441943 106.554563 112.872784 106.134978 112.453199 
C 105.715393 112.033615 105.146234 111.797861 104.552852 111.797861 
C 103.95947 111.797861 103.390311 112.033615 102.970726 112.453199 
C 102.551141 112.872784 102.315388 113.441943 102.315388 114.035325 
C 102.315388 114.628708 102.551141 115.197867 102.970726 115.617452 
C 103.390311 116.037036 103.95947 116.27279 104.552852 116.27279 
z
" clip-path="url(#p471d37f042)" style="stroke: #000000"/>
    <path d="M 100.165759 101.394752 
C 100.29836 101.394752 100.425549 101.342069 100.519312 101.248305 
C 100.613076 101.154542 100.665759 101.027353 100.665759 100.894752 
C 100.665759 100.76215 100.613076 100.634962 100.519312 100.541198 
C 100.425549 100.447435 100.29836 100.394752 100.165759 100.394752 
C 100.033157 100.394752 99.905969 100.447435 99.812205 100.541198 
C 99.718442 100.634962 99.665759 100.76215 99.665759 100.894752 
C 99.665759 101.027353 99.718442 101.154542 99.812205 101.248305 
C 99.905969 101.342069 100.033157 101.394752 100.165759 101.394752 
z
" clip-path="url(#p471d37f042)" style="stroke: #000000"/>
    <path d="M 95.980206 85.822977 
C 96.573589 85.822977 97.142748 85.587224 97.562333 85.167639 
C 97.981917 84.748055 98.217671 84.178896 98.217671 83.585513 
C 98.217671 82.992131 97.981917 82.422972 97.562333 82.003387 
C 97.142748 81.583802 96.573589 81.348049 95.980206 81.348049 
C 95.386824 81.348049 94.817665 81.583802 94.39808 82.003387 
C 93.978496 82.422972 93.742742 82.992131 93.742742 83.585513 
C 93.742742 84.178896 93.978496 84.748055 94.39808 85.167639 
C 94.817665 85.587224 95.386824 85.822977 95.980206 85.822977 
z
" clip-path="url(#p471d37f042)" style="stroke: #000000"/>
    <path d="M 88.722136 72.676699 
C 88.854737 72.676699 88.981926 72.624016 89.075689 72.530252 
C 89.169453 72.436489 89.222136 72.3093 89.222136 72.176699 
C 89.222136 72.044097 89.169453 71.916909 89.075689 71.823145 
C 88.981926 71.729382 88.854737 71.676699 88.722136 71.676699 
C 88.589534 71.676699 88.462346 71.729382 88.368582 71.823145 
C 88.274819 71.916909 88.222136 72.044097 88.222136 72.176699 
C 88.222136 72.3093 88.274819 72.436489 88.368582 72.530252 
C 88.462346 72.624016 88.589534 72.676699 88.722136 72.676699 
z
" clip-path="url(#p471d37f042)" style="stroke: #000000"/>
    <path d="M 84.585762 64.116881 
C 85.147908 64.116881 85.687106 63.893538 86.084603 63.496041 
C 86.4821 63.098544 86.705443 62.559346 86.705443 61.9972 
C 86.705443 61.435054 86.4821 60.895856 86.084603 60.498359 
C 85.687106 60.100861 85.147908 59.877518 84.585762 59.877518 
C 84.023616 59.877518 83.484418 60.100861 83.086921 60.498359 
C 82.689423 60.895856 82.46608 61.435054 82.46608 61.9972 
C 82.46608 62.559346 82.689423 63.098544 83.086921 63.496041 
C 83.484418 63.893538 84.023616 64.116881 84.585762 64.116881 
z
" clip-path="url(#p471d37f042)" style="stroke: #000000"/>
    <path d="M 78.786689 52.345719 
C 79.379702 52.345719 79.948505 52.110113 80.367828 51.69079 
C 80.787151 51.271467 81.022757 50.702663 81.022757 50.109651 
C 81.022757 49.516639 80.787151 48.947835 80.367828 48.528512 
C 79.948505 48.109189 79.379702 47.873583 78.786689 47.873583 
C 78.193677 47.873583 77.624873 48.109189 77.205551 48.528512 
C 76.786228 48.947835 76.550621 49.516639 76.550621 50.109651 
C 76.550621 50.702663 76.786228 51.271467 77.205551 51.69079 
C 77.624873 52.110113 78.193677 52.345719 78.786689 52.345719 
z
" clip-path="url(#p471d37f042)" style="stroke: #000000"/>
    <path d="M 75.381983 36.444445 
C 75.883119 36.444445 76.363798 36.245341 76.718155 35.890984 
C 77.072512 35.536627 77.271616 35.055948 77.271616 34.554812 
C 77.271616 34.053675 77.072512 33.572996 76.718155 33.218639 
C 76.363798 32.864282 75.883119 32.665178 75.381983 32.665178 
C 74.880846 32.665178 74.400167 32.864282 74.04581 33.218639 
C 73.691453 33.572996 73.492349 34.053675 73.492349 34.554812 
C 73.492349 35.055948 73.691453 35.536627 74.04581 35.890984 
C 74.400167 36.245341 74.880846 36.444445 75.381983 36.444445 
z
" clip-path="url(#p471d37f042)" style="stroke: #000000"/>
    <path d="M 114.467865 170.448204 
C 114.972044 170.448204 115.455642 170.247892 115.81215 169.891383 
C 116.168659 169.534874 116.368972 169.051277 116.368972 168.547097 
C 116.368972 168.042918 116.168659 167.55932 115.81215 167.202812 
C 115.455642 166.846303 114.972044 166.64599 114.467865 166.64599 
C 113.963685 166.64599 113.480088 166.846303 113.123579 167.202812 
C 112.76707 167.55932 112.566758 168.042918 112.566758 168.547097 
C 112.566758 169.051277 112.76707 169.534874 113.123579 169.891383 
C 113.480088 170.247892 113.963685 170.448204 114.467865 170.448204 
z
" clip-path="url(#p471d37f042)" style="stroke: #000000"/>
    <path d="M 105.660472 156.893433 
C 106.072255 156.893433 106.467229 156.72983 106.758404 156.438655 
C 107.04958 156.14748 107.213183 155.752506 107.213183 155.340722 
C 107.213183 154.928938 107.04958 154.533964 106.758404 154.242789 
C 106.467229 153.951614 106.072255 153.788011 105.660472 153.788011 
C 105.248688 153.788011 104.853714 153.951614 104.562539 154.242789 
C 104.271364 154.533964 104.10776 154.928938 104.10776 155.340722 
C 104.10776 155.752506 104.271364 156.14748 104.562539 156.438655 
C 104.853714 156.72983 105.248688 156.893433 105.660472 156.893433 
z
" clip-path="url(#p471d37f042)" style="stroke: #000000"/>
    <path d="M 102.022431 149.152916 
C 102.615444 149.152916 103.184247 148.91731 103.60357 148.497987 
C 104.022893 148.078664 104.258499 147.509861 104.258499 146.916848 
C 104.258499 146.323836 104.022893 145.755033 103.60357 145.33571 
C 103.184247 144.916387 102.615444 144.68078 102.022431 144.68078 
C 101.429419 144.68078 100.860615 144.916387 100.441293 145.33571 
C 100.02197 145.755033 99.786363 146.323836 99.786363 146.916848 
C 99.786363 147.509861 100.02197 148.078664 100.441293 148.497987 
C 100.860615 148.91731 101.429419 149.152916 102.022431 149.152916 
z
" clip-path="url(#p471d37f042)" style="stroke: #000000"/>
    <path d="M 98.350769 137.481591 
C 98.944152 137.481591 99.513311 137.245837 99.932896 136.826253 
C 100.35248 136.406668 100.588234 135.837509 100.588234 135.244127 
C 100.588234 134.650744 100.35248 134.081585 99.932896 133.662 
C 99.513311 133.242416 98.944152 133.006662 98.350769 133.006662 
C 97.757387 133.006662 97.188228 133.242416 96.768643 133.662 
C 96.349059 134.081585 96.113305 134.650744 96.113305 135.244127 
C 96.113305 135.837509 96.349059 136.406668 96.768643 136.826253 
C 97.188228 137.245837 97.757387 137.481591 98.350769 137.481591 
z
" clip-path="url(#p471d37f042)" style="stroke: #000000"/>
    <path d="M 94.214171 118.430085 
C 94.747658 118.430085 95.259366 118.218129 95.636599 117.840896 
C 96.013831 117.463664 96.225788 116.951955 96.225788 116.418468 
C 96.225788 115.884981 96.013831 115.373272 95.636599 114.99604 
C 95.259366 114.618808 94.747658 114.406851 94.214171 114.406851 
C 93.680684 114.406851 93.168975 114.618808 92.791743 114.99604 
C 92.41451 115.373272 92.202554 115.884981 92.202554 116.418468 
C 92.202554 116.951955 92.41451 117.463664 92.791743 117.840896 
C 93.168975 118.218129 93.680684 118.430085 94.214171 118.430085 
z
" clip-path="url(#p471d37f042)" style="stroke: #000000"/>
    <path d="M 77.311818 64.537005 
C 77.90483 64.537005 78.473634 64.301399 78.892957 63.882076 
C 79.31228 63.462753 79.547886 62.893949 79.547886 62.300937 
C 79.547886 61.707925 79.31228 61.139121 78.892957 60.719798 
C 78.473634 60.300475 77.90483 60.064869 77.311818 60.064869 
C 76.718806 60.064869 76.150002 60.300475 75.730679 60.719798 
C 75.311356 61.139121 75.07575 61.707925 75.07575 62.300937 
C 75.07575 62.893949 75.311356 63.462753 75.730679 63.882076 
C 76.150002 64.301399 76.718806 64.537005 77.311818 64.537005 
z
" clip-path="url(#p471d37f042)" style="stroke: #000000"/>
    <path d="M 63.733553 46.32791 
C 63.956561 46.32791 64.170466 46.239308 64.328156 46.081617 
C 64.485847 45.923926 64.574449 45.710022 64.574449 45.487013 
C 64.574449 45.264005 64.485847 45.0501 64.328156 44.89241 
C 64.170466 44.734719 63.956561 44.646117 63.733553 44.646117 
C 63.510545 44.646117 63.29664 44.734719 63.138949 44.89241 
C 62.981259 45.0501 62.892657 45.264005 62.892657 45.487013 
C 62.892657 45.710022 62.981259 45.923926 63.138949 46.081617 
C 63.29664 46.239308 63.510545 46.32791 63.733553 46.32791 
z
" clip-path="url(#p471d37f042)" style="stroke: #000000"/>
    <path d="M 61.452651 32.669867 
C 61.951935 32.669867 62.430837 32.4715 62.783884 32.118453 
C 63.136931 31.765405 63.335298 31.286504 63.335298 30.78722 
C 63.335298 30.287936 63.136931 29.809034 62.783884 29.455987 
C 62.430837 29.10294 61.951935 28.904572 61.452651 28.904572 
C 60.953367 28.904572 60.474465 29.10294 60.121418 29.455987 
C 59.768371 29.809034 59.570003 30.287936 59.570003 30.78722 
C 59.570003 31.286504 59.768371 31.765405 60.121418 32.118453 
C 60.474465 32.4715 60.953367 32.669867 61.452651 32.669867 
z
" clip-path="url(#p471d37f042)" style="stroke: #000000"/>
    <path d="M 102.321707 174.714372 
C 102.8381 174.714372 103.333412 174.509207 103.698558 174.144062 
C 104.063703 173.778916 104.268868 173.283604 104.268868 172.76721 
C 104.268868 172.250817 104.063703 171.755505 103.698558 171.390359 
C 103.333412 171.025214 102.8381 170.820049 102.321707 170.820049 
C 101.805313 170.820049 101.310001 171.025214 100.944856 171.390359 
C 100.57971 171.755505 100.374545 172.250817 100.374545 172.76721 
C 100.374545 173.283604 100.57971 173.778916 100.944856 174.144062 
C 101.310001 174.509207 101.805313 174.714372 102.321707 174.714372 
z
" clip-path="url(#p471d37f042)" style="stroke: #000000"/>
    <path d="M 95.943327 162.204133 
C 96.370796 162.204133 96.780814 162.034298 97.08308 161.732031 
C 97.385346 161.429765 97.555181 161.019747 97.555181 160.592278 
C 97.555181 160.164809 97.385346 159.75479 97.08308 159.452524 
C 96.780814 159.150258 96.370796 158.980423 95.943327 158.980423 
C 95.515858 158.980423 95.105839 159.150258 94.803573 159.452524 
C 94.501307 159.75479 94.331472 160.164809 94.331472 160.592278 
C 94.331472 161.019747 94.501307 161.429765 94.803573 161.732031 
C 95.105839 162.034298 95.515858 162.204133 95.943327 162.204133 
z
" clip-path="url(#p471d37f042)" style="stroke: #000000"/>
    <path d="M 94.928142 151.837834 
C 95.521154 151.837834 96.089958 151.602228 96.509281 151.182905 
C 96.928604 150.763582 97.16421 150.194778 97.16421 149.601766 
C 97.16421 149.008754 96.928604 148.43995 96.509281 148.020627 
C 96.089958 147.601304 95.521154 147.365698 94.928142 147.365698 
C 94.33513 147.365698 93.766326 147.601304 93.347003 148.020627 
C 92.92768 148.43995 92.692074 149.008754 92.692074 149.601766 
C 92.692074 150.194778 92.92768 150.763582 93.347003 151.182905 
C 93.766326 151.602228 94.33513 151.837834 94.928142 151.837834 
z
" clip-path="url(#p471d37f042)" style="stroke: #000000"/>
    <path d="M 91.02337 144.110195 
C 91.616382 144.110195 92.185186 143.874588 92.604508 143.455266 
C 93.023831 143.035943 93.259438 142.467139 93.259438 141.874127 
C 93.259438 141.281115 93.023831 140.712311 92.604508 140.292988 
C 92.185186 139.873665 91.616382 139.638059 91.02337 139.638059 
C 90.430357 139.638059 89.861554 139.873665 89.442231 140.292988 
C 89.022908 140.712311 88.787302 141.281115 88.787302 141.874127 
C 88.787302 142.467139 89.022908 143.035943 89.442231 143.455266 
C 89.861554 143.874588 90.430357 144.110195 91.02337 144.110195 
z
" clip-path="url(#p471d37f042)" style="stroke: #000000"/>
    <path d="M 86.103442 122.131411 
C 86.696824 122.131411 87.265983 121.895657 87.685568 121.476073 
C 88.105152 121.056488 88.340906 120.487329 88.340906 119.893946 
C 88.340906 119.300564 88.105152 118.731405 87.685568 118.31182 
C 87.265983 117.892236 86.696824 117.656482 86.103442 117.656482 
C 85.510059 117.656482 84.9409 117.892236 84.521315 118.31182 
C 84.101731 118.731405 83.865977 119.300564 83.865977 119.893946 
C 83.865977 120.487329 84.101731 121.056488 84.521315 121.476073 
C 84.9409 121.895657 85.510059 122.131411 86.103442 122.131411 
z
" clip-path="url(#p471d37f042)" style="stroke: #000000"/>
    <path d="M 77.13128 109.610326 
C 77.724662 109.610326 78.293821 109.374573 78.713406 108.954988 
C 79.132991 108.535403 79.368744 107.966244 79.368744 107.372862 
C 79.368744 106.779479 79.132991 106.21032 78.713406 105.790736 
C 78.293821 105.371151 77.724662 105.135398 77.13128 105.135398 
C 76.537898 105.135398 75.968739 105.371151 75.549154 105.790736 
C 75.129569 106.21032 74.893816 106.779479 74.893816 107.372862 
C 74.893816 107.966244 75.129569 108.535403 75.549154 108.954988 
C 75.968739 109.374573 76.537898 109.610326 77.13128 109.610326 
z
" clip-path="url(#p471d37f042)" style="stroke: #000000"/>
    <path d="M 77.96754 101.079156 
C 78.560922 101.079156 79.130081 100.843403 79.549666 100.423818 
C 79.969251 100.004233 80.205004 99.435074 80.205004 98.841692 
C 80.205004 98.24831 79.969251 97.679151 79.549666 97.259566 
C 79.130081 96.839981 78.560922 96.604228 77.96754 96.604228 
C 77.374157 96.604228 76.804998 96.839981 76.385414 97.259566 
C 75.965829 97.679151 75.730076 98.24831 75.730076 98.841692 
C 75.730076 99.435074 75.965829 100.004233 76.385414 100.423818 
C 76.804998 100.843403 77.374157 101.079156 77.96754 101.079156 
z
" clip-path="url(#p471d37f042)" style="stroke: #000000"/>
    <path d="M 72.619707 93.93569 
C 73.172484 93.93569 73.702696 93.716069 74.093568 93.325196 
C 74.484441 92.934324 74.704062 92.404112 74.704062 91.851335 
C 74.704062 91.298557 74.484441 90.768346 74.093568 90.377473 
C 73.702696 89.9866 73.172484 89.766979 72.619707 89.766979 
C 72.066929 89.766979 71.536718 89.9866 71.145845 90.377473 
C 70.754972 90.768346 70.535351 91.298557 70.535351 91.851335 
C 70.535351 92.404112 70.754972 92.934324 71.145845 93.325196 
C 71.536718 93.716069 72.066929 93.93569 72.619707 93.93569 
z
" clip-path="url(#p471d37f042)" style="stroke: #000000"/>
    <path d="M 73.260253 84.523197 
C 73.853635 84.523197 74.422794 84.287443 74.842379 83.867859 
C 75.261964 83.448274 75.497717 82.879115 75.497717 82.285733 
C 75.497717 81.69235 75.261964 81.123191 74.842379 80.703606 
C 74.422794 80.284022 73.853635 80.048268 73.260253 80.048268 
C 72.66687 80.048268 72.097711 80.284022 71.678127 80.703606 
C 71.258542 81.123191 71.022789 81.69235 71.022789 82.285733 
C 71.022789 82.879115 71.258542 83.448274 71.678127 83.867859 
C 72.097711 84.287443 72.66687 84.523197 73.260253 84.523197 
z
" clip-path="url(#p471d37f042)" style="stroke: #000000"/>
    <path d="M 63.982717 59.154316 
C 64.57573 59.154316 65.144533 58.91871 65.563856 58.499387 
C 65.983179 58.080064 66.218785 57.51126 66.218785 56.918248 
C 66.218785 56.325236 65.983179 55.756432 65.563856 55.337109 
C 65.144533 54.917786 64.57573 54.68218 63.982717 54.68218 
C 63.389705 54.68218 62.820902 54.917786 62.401579 55.337109 
C 61.982256 55.756432 61.746649 56.325236 61.746649 56.918248 
C 61.746649 57.51126 61.982256 58.080064 62.401579 58.499387 
C 62.820902 58.91871 63.389705 59.154316 63.982717 59.154316 
z
" clip-path="url(#p471d37f042)" style="stroke: #000000"/>
    <path d="M 53.557649 39.435481 
C 53.69025 39.435481 53.817439 39.382797 53.911202 39.289034 
C 54.004966 39.19527 54.057649 39.068082 54.057649 38.935481 
C 54.057649 38.802879 54.004966 38.675691 53.911202 38.581927 
C 53.817439 38.488164 53.69025 38.435481 53.557649 38.435481 
C 53.425047 38.435481 53.297859 38.488164 53.204095 38.581927 
C 53.110332 38.675691 53.057649 38.802879 53.057649 38.935481 
C 53.057649 39.068082 53.110332 39.19527 53.204095 39.289034 
C 53.297859 39.382797 53.425047 39.435481 53.557649 39.435481 
z
" clip-path="url(#p471d37f042)" style="stroke: #000000"/>
    <path d="M 75.851835 133.990232 
C 76.386337 133.990232 76.899019 133.777872 77.276969 133.399922 
C 77.65492 133.021972 77.86728 132.509289 77.86728 131.974787 
C 77.86728 131.440285 77.65492 130.927602 77.276969 130.549652 
C 76.899019 130.171702 76.386337 129.959342 75.851835 129.959342 
C 75.317332 129.959342 74.80465 130.171702 74.4267 130.549652 
C 74.048749 130.927602 73.836389 131.440285 73.836389 131.974787 
C 73.836389 132.509289 74.048749 133.021972 74.4267 133.399922 
C 74.80465 133.777872 75.317332 133.990232 75.851835 133.990232 
z
" clip-path="url(#p471d37f042)" style="stroke: #000000"/>
    <path d="M 61.245077 97.290205 
C 61.809816 97.290205 62.351501 97.065831 62.750831 96.666501 
C 63.150162 96.26717 63.374535 95.725486 63.374535 95.160747 
C 63.374535 94.596008 63.150162 94.054324 62.750831 93.654993 
C 62.351501 93.255663 61.809816 93.03129 61.245077 93.03129 
C 60.680339 93.03129 60.138654 93.255663 59.739323 93.654993 
C 59.339993 94.054324 59.11562 94.596008 59.11562 95.160747 
C 59.11562 95.725486 59.339993 96.26717 59.739323 96.666501 
C 60.138654 97.065831 60.680339 97.290205 61.245077 97.290205 
z
" clip-path="url(#p471d37f042)" style="stroke: #000000"/>
    <path d="M 60.161563 87.168309 
C 60.754946 87.168309 61.324105 86.932556 61.74369 86.512971 
C 62.163274 86.093386 62.399028 85.524227 62.399028 84.930845 
C 62.399028 84.337462 62.163274 83.768304 61.74369 83.348719 
C 61.324105 82.929134 60.754946 82.693381 60.161563 82.693381 
C 59.568181 82.693381 58.999022 82.929134 58.579437 83.348719 
C 58.159853 83.768304 57.924099 84.337462 57.924099 84.930845 
C 57.924099 85.524227 58.159853 86.093386 58.579437 86.512971 
C 58.999022 86.932556 59.568181 87.168309 60.161563 87.168309 
z
" clip-path="url(#p471d37f042)" style="stroke: #000000"/>
    <path d="M 67.213407 139.235099 
C 67.806419 139.235099 68.375223 138.999493 68.794546 138.58017 
C 69.213869 138.160847 69.449475 137.592044 69.449475 136.999031 
C 69.449475 136.406019 69.213869 135.837216 68.794546 135.417893 
C 68.375223 134.99857 67.806419 134.762963 67.213407 134.762963 
C 66.620395 134.762963 66.051591 134.99857 65.632268 135.417893 
C 65.212945 135.837216 64.977339 136.406019 64.977339 136.999031 
C 64.977339 137.592044 65.212945 138.160847 65.632268 138.58017 
C 66.051591 138.999493 66.620395 139.235099 67.213407 139.235099 
z
" clip-path="url(#p471d37f042)" style="stroke: #000000"/>
    <path d="M 60.087019 131.858473 
C 60.680401 131.858473 61.24956 131.62272 61.669145 131.203135 
C 62.08873 130.78355 62.324483 130.214391 62.324483 129.621009 
C 62.324483 129.027626 62.08873 128.458467 61.669145 128.038883 
C 61.24956 127.619298 60.680401 127.383545 60.087019 127.383545 
C 59.493637 127.383545 58.924478 127.619298 58.504893 128.038883 
C 58.085308 128.458467 57.849555 129.027626 57.849555 129.621009 
C 57.849555 130.214391 58.085308 130.78355 58.504893 131.203135 
C 58.924478 131.62272 59.493637 131.858473 60.087019 131.858473 
z
" clip-path="url(#p471d37f042)" style="stroke: #000000"/>
    <path d="M 58.993056 116.457241 
C 59.528568 116.457241 60.042219 116.24448 60.420883 115.865816 
C 60.799547 115.487152 61.012308 114.973502 61.012308 114.43799 
C 61.012308 113.902478 60.799547 113.388827 60.420883 113.010163 
C 60.042219 112.631499 59.528568 112.418738 58.993056 112.418738 
C 58.457545 112.418738 57.943894 112.631499 57.56523 113.010163 
C 57.186566 113.388827 56.973805 113.902478 56.973805 114.43799 
C 56.973805 114.973502 57.186566 115.487152 57.56523 115.865816 
C 57.943894 116.24448 58.457545 116.457241 58.993056 116.457241 
z
" clip-path="url(#p471d37f042)" style="stroke: #000000"/>
    <path d="M 48.64347 95.276713 
C 49.236482 95.276713 49.805286 95.041106 50.224609 94.621783 
C 50.643932 94.20246 50.879538 93.633657 50.879538 93.040645 
C 50.879538 92.447632 50.643932 91.878829 50.224609 91.459506 
C 49.805286 91.040183 49.236482 90.804577 48.64347 90.804577 
C 48.050458 90.804577 47.481654 91.040183 47.062331 91.459506 
C 46.643008 91.878829 46.407402 92.447632 46.407402 93.040645 
C 46.407402 93.633657 46.643008 94.20246 47.062331 94.621783 
C 47.481654 95.041106 48.050458 95.276713 48.64347 95.276713 
z
" clip-path="url(#p471d37f042)" style="stroke: #000000"/>
    <path d="M 47.004396 88.330073 
C 47.597778 88.330073 48.166937 88.09432 48.586522 87.674735 
C 49.006106 87.25515 49.24186 86.685992 49.24186 86.092609 
C 49.24186 85.499227 49.006106 84.930068 48.586522 84.510483 
C 48.166937 84.090898 47.597778 83.855145 47.004396 83.855145 
C 46.411013 83.855145 45.841854 84.090898 45.422269 84.510483 
C 45.002685 84.930068 44.766931 85.499227 44.766931 86.092609 
C 44.766931 86.685992 45.002685 87.25515 45.422269 87.674735 
C 45.841854 88.09432 46.411013 88.330073 47.004396 88.330073 
z
" clip-path="url(#p471d37f042)" style="stroke: #000000"/>
    <path d="M 39.078823 78.207787 
C 39.619299 78.207787 40.13771 77.993054 40.519884 77.61088 
C 40.902058 77.228706 41.116791 76.710295 41.116791 76.169819 
C 41.116791 75.629344 40.902058 75.110933 40.519884 74.728759 
C 40.13771 74.346585 39.619299 74.131852 39.078823 74.131852 
C 38.538348 74.131852 38.019936 74.346585 37.637763 74.728759 
C 37.255589 75.110933 37.040856 75.629344 37.040856 76.169819 
C 37.040856 76.710295 37.255589 77.228706 37.637763 77.61088 
C 38.019936 77.993054 38.538348 78.207787 39.078823 78.207787 
z
" clip-path="url(#p471d37f042)" style="stroke: #000000"/>
    <path d="M 67.306816 172.041399 
C 67.583661 172.041399 67.849205 171.931407 68.044964 171.735648 
C 68.240723 171.539889 68.350715 171.274345 68.350715 170.9975 
C 68.350715 170.720655 68.240723 170.455111 68.044964 170.259352 
C 67.849205 170.063593 67.583661 169.953601 67.306816 169.953601 
C 67.029971 169.953601 66.764427 170.063593 66.568668 170.259352 
C 66.372909 170.455111 66.262917 170.720655 66.262917 170.9975 
C 66.262917 171.274345 66.372909 171.539889 66.568668 171.735648 
C 66.764427 171.931407 67.029971 172.041399 67.306816 172.041399 
z
" clip-path="url(#p471d37f042)" style="stroke: #000000"/>
    <path d="M 56.795638 154.175493 
C 57.308057 154.175493 57.799557 153.971907 58.161892 153.609572 
C 58.524226 153.247238 58.727812 152.755738 58.727812 152.243319 
C 58.727812 151.730901 58.524226 151.239401 58.161892 150.877066 
C 57.799557 150.514731 57.308057 150.311145 56.795638 150.311145 
C 56.28322 150.311145 55.79172 150.514731 55.429385 150.877066 
C 55.067051 151.239401 54.863465 151.730901 54.863465 152.243319 
C 54.863465 152.755738 55.067051 153.247238 55.429385 153.609572 
C 55.79172 153.971907 56.28322 154.175493 56.795638 154.175493 
z
" clip-path="url(#p471d37f042)" style="stroke: #000000"/>
    <path d="M 49.486676 140.430989 
C 50.079688 140.430989 50.648492 140.195383 51.067815 139.77606 
C 51.487138 139.356737 51.722744 138.787933 51.722744 138.194921 
C 51.722744 137.601909 51.487138 137.033105 51.067815 136.613782 
C 50.648492 136.194459 50.079688 135.958853 49.486676 135.958853 
C 48.893664 135.958853 48.32486 136.194459 47.905537 136.613782 
C 47.486214 137.033105 47.250608 137.601909 47.250608 138.194921 
C 47.250608 138.787933 47.486214 139.356737 47.905537 139.77606 
C 48.32486 140.195383 48.893664 140.430989 49.486676 140.430989 
z
" clip-path="url(#p471d37f042)" style="stroke: #000000"/>
    <path d="M 44.970759 120.753299 
C 45.564141 120.753299 46.1333 120.517546 46.552885 120.097961 
C 46.97247 119.678376 47.208223 119.109217 47.208223 118.515835 
C 47.208223 117.922452 46.97247 117.353293 46.552885 116.933709 
C 46.1333 116.514124 45.564141 116.27837 44.970759 116.27837 
C 44.377376 116.27837 43.808217 116.514124 43.388633 116.933709 
C 42.969048 117.353293 42.733294 117.922452 42.733294 118.515835 
C 42.733294 119.109217 42.969048 119.678376 43.388633 120.097961 
C 43.808217 120.517546 44.377376 120.753299 44.970759 120.753299 
z
" clip-path="url(#p471d37f042)" style="stroke: #000000"/>
    <path d="M 34.800361 92.017087 
C 35.393744 92.017087 35.962903 91.781334 36.382487 91.361749 
C 36.802072 90.942164 37.037825 90.373005 37.037825 89.779623 
C 37.037825 89.18624 36.802072 88.617081 36.382487 88.197497 
C 35.962903 87.777912 35.393744 87.542159 34.800361 87.542159 
C 34.206979 87.542159 33.63782 87.777912 33.218235 88.197497 
C 32.79865 88.617081 32.562897 89.18624 32.562897 89.779623 
C 32.562897 90.373005 32.79865 90.942164 33.218235 91.361749 
C 33.63782 91.781334 34.206979 92.017087 34.800361 92.017087 
z
" clip-path="url(#p471d37f042)" style="stroke: #000000"/>
    <path d="M 34.033423 81.85005 
C 34.538805 81.85005 35.023555 81.64926 35.380914 81.291902 
C 35.738272 80.934543 35.939062 80.449793 35.939062 79.944411 
C 35.939062 79.43903 35.738272 78.95428 35.380914 78.596921 
C 35.023555 78.239562 34.538805 78.038772 34.033423 78.038772 
C 33.528042 78.038772 33.043292 78.239562 32.685933 78.596921 
C 32.328575 78.95428 32.127784 79.43903 32.127784 79.944411 
C 32.127784 80.449793 32.328575 80.934543 32.685933 81.291902 
C 33.043292 81.64926 33.528042 81.85005 34.033423 81.85005 
z
" clip-path="url(#p471d37f042)" style="stroke: #000000"/>
    <path d="M 50.700238 164.651274 
C 51.289131 164.651274 51.853983 164.417304 52.270393 164.000894 
C 52.686803 163.584484 52.920772 163.019632 52.920772 162.43074 
C 52.920772 161.841847 52.686803 161.276995 52.270393 160.860585 
C 51.853983 160.444175 51.289131 160.210206 50.700238 160.210206 
C 50.111346 160.210206 49.546494 160.444175 49.130084 160.860585 
C 48.713674 161.276995 48.479704 161.841847 48.479704 162.43074 
C 48.479704 163.019632 48.713674 163.584484 49.130084 164.000894 
C 49.546494 164.417304 50.111346 164.651274 50.700238 164.651274 
z
" clip-path="url(#p471d37f042)" style="stroke: #000000"/>
    <path d="M 42.214328 138.165516 
C 42.804353 138.165516 43.370291 137.931096 43.787502 137.513886 
C 44.204712 137.096676 44.439131 136.530737 44.439131 135.940713 
C 44.439131 135.350688 44.204712 134.78475 43.787502 134.36754 
C 43.370291 133.950329 42.804353 133.71591 42.214328 133.71591 
C 41.624304 133.71591 41.058366 133.950329 40.641155 134.36754 
C 40.223945 134.78475 39.989526 135.350688 39.989526 135.940713 
C 39.989526 136.530737 40.223945 137.096676 40.641155 137.513886 
C 41.058366 137.931096 41.624304 138.165516 42.214328 138.165516 
z
" clip-path="url(#p471d37f042)" style="stroke: #000000"/>
    <path d="M 34.200141 150.11957 
C 34.615206 150.11957 35.013327 149.954662 35.306823 149.661167 
C 35.600318 149.367671 35.765225 148.96955 35.765225 148.554485 
C 35.765225 148.13942 35.600318 147.741299 35.306823 147.447803 
C 35.013327 147.154308 34.615206 146.9894 34.200141 146.9894 
C 33.785075 146.9894 33.386954 147.154308 33.093459 147.447803 
C 32.799963 147.741299 32.635056 148.13942 32.635056 148.554485 
C 32.635056 148.96955 32.799963 149.367671 33.093459 149.661167 
C 33.386954 149.954662 33.785075 150.11957 34.200141 150.11957 
z
" clip-path="url(#p471d37f042)" style="stroke: #000000"/>
   </g>
   <g id="matplotlib.axis_1">
    <g id="xtick_1">
     <g id="line2d_1">
      <defs>
       <path id="m1bca8ab0cd" d="M 0 0 
L 0 3.5 
" style="stroke: #000000; stroke-width: 0.8"/>
      </defs>
      <g>
       <use xlink:href="#m1bca8ab0cd" x="18" y="189" style="stroke: #000000; stroke-width: 0.8"/>
      </g>
     </g>
     <g id="text_1">
      <!-- −10 -->
      <g transform="translate(7.447656 203.598437)scale(0.1 -0.1)">
       <defs>
        <path id="DejaVuSans-2212" d="M 678 2272 
L 4684 2272 
L 4684 1741 
L 678 1741 
L 678 2272 
z
" transform="scale(0.015625)"/>
        <path id="DejaVuSans-31" d="M 794 531 
L 1825 531 
L 1825 4091 
L 703 3866 
L 703 4441 
L 1819 4666 
L 2450 4666 
L 2450 531 
L 3481 531 
L 3481 0 
L 794 0 
L 794 531 
z
" transform="scale(0.015625)"/>
        <path id="DejaVuSans-30" d="M 2034 4250 
Q 1547 4250 1301 3770 
Q 1056 3291 1056 2328 
Q 1056 1369 1301 889 
Q 1547 409 2034 409 
Q 2525 409 2770 889 
Q 3016 1369 3016 2328 
Q 3016 3291 2770 3770 
Q 2525 4250 2034 4250 
z
M 2034 4750 
Q 2819 4750 3233 4129 
Q 3647 3509 3647 2328 
Q 3647 1150 3233 529 
Q 2819 -91 2034 -91 
Q 1250 -91 836 529 
Q 422 1150 422 2328 
Q 422 3509 836 4129 
Q 1250 4750 2034 4750 
z
" transform="scale(0.015625)"/>
       </defs>
       <use xlink:href="#DejaVuSans-2212"/>
       <use xlink:href="#DejaVuSans-31" x="83.789062"/>
       <use xlink:href="#DejaVuSans-30" x="147.412109"/>
      </g>
     </g>
    </g>
    <g id="xtick_2">
     <g id="line2d_2">
      <g>
       <use xlink:href="#m1bca8ab0cd" x="73.8" y="189" style="stroke: #000000; stroke-width: 0.8"/>
      </g>
     </g>
     <g id="text_2">
      <!-- 0 -->
      <g transform="translate(70.61875 203.598437)scale(0.1 -0.1)">
       <use xlink:href="#DejaVuSans-30"/>
      </g>
     </g>
    </g>
    <g id="xtick_3">
     <g id="line2d_3">
      <g>
       <use xlink:href="#m1bca8ab0cd" x="129.6" y="189" style="stroke: #000000; stroke-width: 0.8"/>
      </g>
     </g>
     <g id="text_3">
      <!-- 10 -->
      <g transform="translate(123.2375 203.598437)scale(0.1 -0.1)">
       <use xlink:href="#DejaVuSans-31"/>
       <use xlink:href="#DejaVuSans-30" x="63.623047"/>
      </g>
     </g>
    </g>
   </g>
   <g id="matplotlib.axis_2">
    <g id="ytick_1">
     <g id="line2d_4">
      <defs>
       <path id="m0ee50e8a5e" d="M 0 0 
L -3.5 0 
" style="stroke: #000000; stroke-width: 0.8"/>
      </defs>
      <g>
       <use xlink:href="#m0ee50e8a5e" x="18" y="189" style="stroke: #000000; stroke-width: 0.8"/>
      </g>
     </g>
     <g id="text_4">
      <!-- −15 -->
      <g transform="translate(-10.104688 192.799219)scale(0.1 -0.1)">
       <defs>
        <path id="DejaVuSans-35" d="M 691 4666 
L 3169 4666 
L 3169 4134 
L 1269 4134 
L 1269 2991 
Q 1406 3038 1543 3061 
Q 1681 3084 1819 3084 
Q 2600 3084 3056 2656 
Q 3513 2228 3513 1497 
Q 3513 744 3044 326 
Q 2575 -91 1722 -91 
Q 1428 -91 1123 -41 
Q 819 9 494 109 
L 494 744 
Q 775 591 1075 516 
Q 1375 441 1709 441 
Q 2250 441 2565 725 
Q 2881 1009 2881 1497 
Q 2881 1984 2565 2268 
Q 2250 2553 1709 2553 
Q 1456 2553 1204 2497 
Q 953 2441 691 2322 
L 691 4666 
z
" transform="scale(0.015625)"/>
       </defs>
       <use xlink:href="#DejaVuSans-2212"/>
       <use xlink:href="#DejaVuSans-31" x="83.789062"/>
       <use xlink:href="#DejaVuSans-35" x="147.412109"/>
      </g>
     </g>
    </g>
    <g id="ytick_2">
     <g id="line2d_5">
      <g>
       <use xlink:href="#m0ee50e8a5e" x="18" y="161.82" style="stroke: #000000; stroke-width: 0.8"/>
      </g>
     </g>
     <g id="text_5">
      <!-- −10 -->
      <g transform="translate(-10.104688 165.619219)scale(0.1 -0.1)">
       <use xlink:href="#DejaVuSans-2212"/>
       <use xlink:href="#DejaVuSans-31" x="83.789062"/>
       <use xlink:href="#DejaVuSans-30" x="147.412109"/>
      </g>
     </g>
    </g>
    <g id="ytick_3">
     <g id="line2d_6">
      <g>
       <use xlink:href="#m0ee50e8a5e" x="18" y="134.64" style="stroke: #000000; stroke-width: 0.8"/>
      </g>
     </g>
     <g id="text_6">
      <!-- −5 -->
      <g transform="translate(-3.742188 138.439219)scale(0.1 -0.1)">
       <use xlink:href="#DejaVuSans-2212"/>
       <use xlink:href="#DejaVuSans-35" x="83.789062"/>
      </g>
     </g>
    </g>
    <g id="ytick_4">
     <g id="line2d_7">
      <g>
       <use xlink:href="#m0ee50e8a5e" x="18" y="107.46" style="stroke: #000000; stroke-width: 0.8"/>
      </g>
     </g>
     <g id="text_7">
      <!-- 0 -->
      <g transform="translate(4.6375 111.259219)scale(0.1 -0.1)">
       <use xlink:href="#DejaVuSans-30"/>
      </g>
     </g>
    </g>
    <g id="ytick_5">
     <g id="line2d_8">
      <g>
       <use xlink:href="#m0ee50e8a5e" x="18" y="80.28" style="stroke: #000000; stroke-width: 0.8"/>
      </g>
     </g>
     <g id="text_8">
      <!-- 5 -->
      <g transform="translate(4.6375 84.079219)scale(0.1 -0.1)">
       <use xlink:href="#DejaVuSans-35"/>
      </g>
     </g>
    </g>
    <g id="ytick_6">
     <g id="line2d_9">
      <g>
       <use xlink:href="#m0ee50e8a5e" x="18" y="53.1" style="stroke: #000000; stroke-width: 0.8"/>
      </g>
     </g>
     <g id="text_9">
      <!-- 10 -->
      <g transform="translate(-1.725 56.899219)scale(0.1 -0.1)">
       <use xlink:href="#DejaVuSans-31"/>
       <use xlink:href="#DejaVuSans-30" x="63.623047"/>
      </g>
     </g>
    </g>
    <g id="ytick_7">
     <g id="line2d_10">
      <g>
       <use xlink:href="#m0ee50e8a5e" x="18" y="25.92" style="stroke: #000000; stroke-width: 0.8"/>
      </g>
     </g>
     <g id="text_10">
      <!-- 15 -->
      <g transform="translate(-1.725 29.719219)scale(0.1 -0.1)">
       <use xlink:href="#DejaVuSans-31"/>
       <use xlink:href="#DejaVuSans-35" x="63.623047"/>
      </g>
     </g>
    </g>
   </g>
   <g id="patch_3">
    <path d="M 18 189 
L 18 25.92 
" style="fill: none; stroke: #000000; stroke-width: 0.8; stroke-linejoin: miter; stroke-linecap: square"/>
   </g>
   <g id="patch_4">
    <path d="M 129.6 189 
L 129.6 25.92 
" style="fill: none; stroke: #000000; stroke-width: 0.8; stroke-linejoin: miter; stroke-linecap: square"/>
   </g>
   <g id="patch_5">
    <path d="M 18 189 
L 129.6 189 
" style="fill: none; stroke: #000000; stroke-width: 0.8; stroke-linejoin: miter; stroke-linecap: square"/>
   </g>
   <g id="patch_6">
    <path d="M 18 25.92 
L 129.6 25.92 
" style="fill: none; stroke: #000000; stroke-width: 0.8; stroke-linejoin: miter; stroke-linecap: square"/>
   </g>
  </g>
 </g>
 <defs>
  <clipPath id="p471d37f042">
   <rect x="18" y="25.92" width="111.6" height="163.08"/>
  </clipPath>
 </defs>
</svg>
