<?xml version="1.0" encoding="utf-8" standalone="no"?>
<!DOCTYPE svg PUBLIC "-//W3C//DTD SVG 1.1//EN"
  "http://www.w3.org/Graphics/SVG/1.1/DTD/svg11.dtd">
<svg xmlns:xlink="http://www.w3.org/1999/xlink" width="144pt" height="216pt" viewBox="0 0 144 216" xmlns="http://www.w3.org/2000/svg" version="1.1">
 <metadata>
  <rdf:RDF xmlns:dc="http://purl.org/dc/elements/1.1/" xmlns:cc="http://creativecommons.org/ns#" xmlns:rdf="http://www.w3.org/1999/02/22-rdf-syntax-ns#">
   <cc:Work>
    <dc:type rdf:resource="http://purl.org/dc/dcmitype/StillImage"/>
    <dc:date>2022-06-23T14:55:13.356848</dc:date>
    <dc:format>image/svg+xml</dc:format>
    <dc:creator>
     <cc:Agent>
      <dc:title>Matplotlib v3.5.1, https://matplotlib.org/</dc:title>
     </cc:Agent>
    </dc:creator>
   </cc:Work>
  </rdf:RDF>
 </metadata>
 <defs>
  <style type="text/css">*{stroke-linejoin: round; stroke-linecap: butt}</style>
 </defs>
 <g id="figure_1">
  <g id="patch_1">
   <path d="M 0 216 
L 144 216 
L 144 0 
L 0 0 
L 0 216 
z
" style="fill: none"/>
  </g>
  <g id="axes_1">
   <g id="patch_2">
    <path d="M 18 189 
L 129.6 189 
L 129.6 25.92 
L 18 25.92 
z
" style="fill: #ffffff"/>
   </g>
   <g id="PathCollection_1">
    <defs>
     <path id="m58a19397eb" d="M 0 2.738613 
C 0.726289 2.738613 1.422928 2.450055 1.936492 1.936492 
C 2.450055 1.422928 2.738613 0.726289 2.738613 0 
C 2.738613 -0.726289 2.450055 -1.422928 1.936492 -1.936492 
C 1.422928 -2.450055 0.726289 -2.738613 0 -2.738613 
C -0.726289 -2.738613 -1.422928 -2.450055 -1.936492 -1.936492 
C -2.450055 -1.422928 -2.738613 -0.726289 -2.738613 0 
C -2.738613 0.726289 -2.450055 1.422928 -1.936492 1.936492 
C -1.422928 2.450055 -0.726289 2.738613 0 2.738613 
z
" style="stroke: #ff0000; stroke-width: 1.75"/>
    </defs>
    <g clip-path="url(#pa748ac8790)">
     <use xlink:href="#m58a19397eb" x="66.825" y="83.92143" style="fill: #ff0000; stroke: #ff0000; stroke-width: 1.75"/>
     <use xlink:href="#m58a19397eb" x="87.75" y="95.690715" style="fill: #ff0000; stroke: #ff0000; stroke-width: 1.75"/>
     <use xlink:href="#m58a19397eb" x="66.825" y="107.46" style="fill: #ff0000; stroke: #ff0000; stroke-width: 1.75"/>
     <use xlink:href="#m58a19397eb" x="73.8" y="119.229285" style="fill: #ff0000; stroke: #ff0000; stroke-width: 1.75"/>
     <use xlink:href="#m58a19397eb" x="87.75" y="119.229285" style="fill: #ff0000; stroke: #ff0000; stroke-width: 1.75"/>
     <use xlink:href="#m58a19397eb" x="66.825" y="130.99857" style="fill: #ff0000; stroke: #ff0000; stroke-width: 1.75"/>
     <use xlink:href="#m58a19397eb" x="80.775" y="130.99857" style="fill: #ff0000; stroke: #ff0000; stroke-width: 1.75"/>
    </g>
   </g>
   <g id="PathCollection_2">
    <defs>
     <path id="C0_0_79415482c4" d="M 0 2.738613 
C 0.726289 2.738613 1.422928 2.450055 1.936492 1.936492 
C 2.450055 1.422928 2.738613 0.726289 2.738613 -0 
C 2.738613 -0.726289 2.450055 -1.422928 1.936492 -1.936492 
C 1.422928 -2.450055 0.726289 -2.738613 0 -2.738613 
C -0.726289 -2.738613 -1.422928 -2.450055 -1.936492 -1.936492 
C -2.450055 -1.422928 -2.738613 -0.726289 -2.738613 0 
C -2.738613 0.726289 -2.450055 1.422928 -1.936492 1.936492 
C -1.422928 2.450055 -0.726289 2.738613 0 2.738613 
z
"/>
    </defs>
    <g clip-path="url(#pa748ac8790)">
     <use xlink:href="#C0_0_79415482c4" x="80.775" y="83.92143" style="fill: none; stroke: #ff0000; stroke-width: 1.75"/>
    </g>
    <g clip-path="url(#pa748ac8790)">
     <use xlink:href="#C0_0_79415482c4" x="59.85" y="95.690715" style="fill: none; stroke: #ff0000; stroke-width: 1.75"/>
    </g>
    <g clip-path="url(#pa748ac8790)">
     <use xlink:href="#C0_0_79415482c4" x="73.8" y="95.690715" style="fill: none; stroke: #ff0000; stroke-width: 1.75"/>
    </g>
    <g clip-path="url(#pa748ac8790)">
     <use xlink:href="#C0_0_79415482c4" x="52.875" y="107.46" style="fill: none; stroke: #ff0000; stroke-width: 1.75"/>
    </g>
    <g clip-path="url(#pa748ac8790)">
     <use xlink:href="#C0_0_79415482c4" x="80.775" y="107.46" style="fill: none; stroke: #ff0000; stroke-width: 1.75"/>
    </g>
    <g clip-path="url(#pa748ac8790)">
     <use xlink:href="#C0_0_79415482c4" x="94.725" y="107.46" style="fill: none; stroke: #ff0000; stroke-width: 1.75"/>
    </g>
    <g clip-path="url(#pa748ac8790)">
     <use xlink:href="#C0_0_79415482c4" x="59.85" y="119.229285" style="fill: none; stroke: #ff0000; stroke-width: 1.75"/>
    </g>
   </g>
   <g id="PathCollection_3">
    <path d="M 109.342891 65.753769 
C 109.903728 65.753769 110.441669 65.530946 110.83824 65.134375 
C 111.234811 64.737804 111.457634 64.199863 111.457634 63.639026 
C 111.457634 63.07819 111.234811 62.540249 110.83824 62.143678 
C 110.441669 61.747106 109.903728 61.524284 109.342891 61.524284 
C 108.782055 61.524284 108.244114 61.747106 107.847543 62.143678 
C 107.450972 62.540249 107.228149 63.07819 107.228149 63.639026 
C 107.228149 64.199863 107.450972 64.737804 107.847543 65.134375 
C 108.244114 65.530946 108.782055 65.753769 109.342891 65.753769 
z
" clip-path="url(#pa748ac8790)" style="stroke: #000000"/>
    <path d="M 105.895356 58.960741 
C 106.456193 58.960741 106.994134 58.737918 107.390705 58.341347 
C 107.787276 57.944776 108.010099 57.406834 108.010099 56.845998 
C 108.010099 56.285162 107.787276 55.747221 107.390705 55.350649 
C 106.994134 54.954078 106.456193 54.731256 105.895356 54.731256 
C 105.33452 54.731256 104.796579 54.954078 104.400008 55.350649 
C 104.003437 55.747221 103.780614 56.285162 103.780614 56.845998 
C 103.780614 57.406834 104.003437 57.944776 104.400008 58.341347 
C 104.796579 58.737918 105.33452 58.960741 105.895356 58.960741 
z
" clip-path="url(#pa748ac8790)" style="stroke: #000000"/>
    <path d="M 97.752449 48.689102 
C 98.457664 48.689102 99.134089 48.408917 99.632751 47.910255 
C 100.131413 47.411593 100.411597 46.735168 100.411597 46.029954 
C 100.411597 45.324739 100.131413 44.648314 99.632751 44.149652 
C 99.134089 43.65099 98.457664 43.370806 97.752449 43.370806 
C 97.047235 43.370806 96.37081 43.65099 95.872148 44.149652 
C 95.373486 44.648314 95.093302 45.324739 95.093302 46.029954 
C 95.093302 46.735168 95.373486 47.411593 95.872148 47.910255 
C 96.37081 48.408917 97.047235 48.689102 97.752449 48.689102 
z
" clip-path="url(#pa748ac8790)" style="stroke: #000000"/>
    <path d="M 114.729221 123.755572 
C 115.322233 123.755572 115.891037 123.519966 116.31036 123.100643 
C 116.729683 122.68132 116.965289 122.112516 116.965289 121.519504 
C 116.965289 120.926492 116.729683 120.357688 116.31036 119.938365 
C 115.891037 119.519043 115.322233 119.283436 114.729221 119.283436 
C 114.136209 119.283436 113.567405 119.519043 113.148083 119.938365 
C 112.72876 120.357688 112.493153 120.926492 112.493153 121.519504 
C 112.493153 122.112516 112.72876 122.68132 113.148083 123.100643 
C 113.567405 123.519966 114.136209 123.755572 114.729221 123.755572 
z
" clip-path="url(#pa748ac8790)" style="stroke: #000000"/>
    <path d="M 113.921564 116.249398 
C 114.626998 116.249398 115.303635 115.969125 115.802452 115.470308 
C 116.30127 114.97149 116.581542 114.294854 116.581542 113.589419 
C 116.581542 112.883985 116.30127 112.207348 115.802452 111.70853 
C 115.303635 111.209713 114.626998 110.929441 113.921564 110.929441 
C 113.216129 110.929441 112.539492 111.209713 112.040675 111.70853 
C 111.541857 112.207348 111.261585 112.883985 111.261585 113.589419 
C 111.261585 114.294854 111.541857 114.97149 112.040675 115.470308 
C 112.539492 115.969125 113.216129 116.249398 113.921564 116.249398 
z
" clip-path="url(#pa748ac8790)" style="stroke: #000000"/>
    <path d="M 108.042418 100.844462 
C 108.747853 100.844462 109.424489 100.56419 109.923307 100.065373 
C 110.422125 99.566555 110.702397 98.889918 110.702397 98.184484 
C 110.702397 97.479049 110.422125 96.802412 109.923307 96.303595 
C 109.424489 95.804777 108.747853 95.524505 108.042418 95.524505 
C 107.336984 95.524505 106.660347 95.804777 106.161529 96.303595 
C 105.662712 96.802412 105.38244 97.479049 105.38244 98.184484 
C 105.38244 98.889918 105.662712 99.566555 106.161529 100.065373 
C 106.660347 100.56419 107.336984 100.844462 108.042418 100.844462 
z
" clip-path="url(#pa748ac8790)" style="stroke: #000000"/>
    <path d="M 108.766716 87.916905 
C 108.941229 87.916905 109.108619 87.84757 109.232018 87.72417 
C 109.355418 87.60077 109.424753 87.433381 109.424753 87.258868 
C 109.424753 87.084354 109.355418 86.916965 109.232018 86.793565 
C 109.108619 86.670165 108.941229 86.600831 108.766716 86.600831 
C 108.592202 86.600831 108.424813 86.670165 108.301413 86.793565 
C 108.178014 86.916965 108.108679 87.084354 108.108679 87.258868 
C 108.108679 87.433381 108.178014 87.60077 108.301413 87.72417 
C 108.424813 87.84757 108.592202 87.916905 108.766716 87.916905 
z
" clip-path="url(#pa748ac8790)" style="stroke: #000000"/>
    <path d="M 101.898174 66.827003 
C 102.603609 66.827003 103.280246 66.546731 103.779063 66.047914 
C 104.277881 65.549096 104.558153 64.872459 104.558153 64.167025 
C 104.558153 63.46159 104.277881 62.784954 103.779063 62.286136 
C 103.280246 61.787318 102.603609 61.507046 101.898174 61.507046 
C 101.19274 61.507046 100.516103 61.787318 100.017285 62.286136 
C 99.518468 62.784954 99.238196 63.46159 99.238196 64.167025 
C 99.238196 64.872459 99.518468 65.549096 100.017285 66.047914 
C 100.516103 66.546731 101.19274 66.827003 101.898174 66.827003 
z
" clip-path="url(#pa748ac8790)" style="stroke: #000000"/>
    <path d="M 94.403569 63.62903 
C 94.978336 63.62903 95.52964 63.400673 95.936062 62.994251 
C 96.342484 62.587829 96.570842 62.036525 96.570842 61.461757 
C 96.570842 60.886989 96.342484 60.335685 95.936062 59.929263 
C 95.52964 59.522841 94.978336 59.294484 94.403569 59.294484 
C 93.828801 59.294484 93.277497 59.522841 92.871075 59.929263 
C 92.464653 60.335685 92.236295 60.886989 92.236295 61.461757 
C 92.236295 62.036525 92.464653 62.587829 92.871075 62.994251 
C 93.277497 63.400673 93.828801 63.62903 94.403569 63.62903 
z
" clip-path="url(#pa748ac8790)" style="stroke: #000000"/>
    <path d="M 86.798433 49.480649 
C 87.503868 49.480649 88.180504 49.200377 88.679322 48.701559 
C 89.178139 48.202741 89.458412 47.526105 89.458412 46.82067 
C 89.458412 46.115236 89.178139 45.438599 88.679322 44.939781 
C 88.180504 44.440964 87.503868 44.160692 86.798433 44.160692 
C 86.092999 44.160692 85.416362 44.440964 84.917544 44.939781 
C 84.418727 45.438599 84.138455 46.115236 84.138455 46.82067 
C 84.138455 47.526105 84.418727 48.202741 84.917544 48.701559 
C 85.416362 49.200377 86.092999 49.480649 86.798433 49.480649 
z
" clip-path="url(#pa748ac8790)" style="stroke: #000000"/>
    <path d="M 82.548806 30.3676 
C 83.25424 30.3676 83.930877 30.087328 84.429695 29.58851 
C 84.928512 29.089693 85.208784 28.413056 85.208784 27.707622 
C 85.208784 27.002187 84.928512 26.32555 84.429695 25.826733 
C 83.930877 25.327915 83.25424 25.047643 82.548806 25.047643 
C 81.843371 25.047643 81.166734 25.327915 80.667917 25.826733 
C 80.169099 26.32555 79.888827 27.002187 79.888827 27.707622 
C 79.888827 28.413056 80.169099 29.089693 80.667917 29.58851 
C 81.166734 30.087328 81.843371 30.3676 82.548806 30.3676 
z
" clip-path="url(#pa748ac8790)" style="stroke: #000000"/>
    <path d="M 121.668565 166.387147 
C 122.373999 166.387147 123.050636 166.106874 123.549454 165.608057 
C 124.048271 165.109239 124.328543 164.432603 124.328543 163.727168 
C 124.328543 163.021733 124.048271 162.345097 123.549454 161.846279 
C 123.050636 161.347462 122.373999 161.067189 121.668565 161.067189 
C 120.96313 161.067189 120.286493 161.347462 119.787676 161.846279 
C 119.288858 162.345097 119.008586 163.021733 119.008586 163.727168 
C 119.008586 164.432603 119.288858 165.109239 119.787676 165.608057 
C 120.286493 166.106874 120.96313 166.387147 121.668565 166.387147 
z
" clip-path="url(#pa748ac8790)" style="stroke: #000000"/>
    <path d="M 113.027495 144.149389 
C 113.732929 144.149389 114.409566 143.869117 114.908384 143.370299 
C 115.407201 142.871482 115.687473 142.194845 115.687473 141.48941 
C 115.687473 140.783976 115.407201 140.107339 114.908384 139.608522 
C 114.409566 139.109704 113.732929 138.829432 113.027495 138.829432 
C 112.32206 138.829432 111.645424 139.109704 111.146606 139.608522 
C 110.647788 140.107339 110.367516 140.783976 110.367516 141.48941 
C 110.367516 142.194845 110.647788 142.871482 111.146606 143.370299 
C 111.645424 143.869117 112.32206 144.149389 113.027495 144.149389 
z
" clip-path="url(#pa748ac8790)" style="stroke: #000000"/>
    <path d="M 112.479408 139.116989 
C 113.184842 139.116989 113.861479 138.836717 114.360297 138.337899 
C 114.859114 137.839082 115.139386 137.162445 115.139386 136.45701 
C 115.139386 135.751576 114.859114 135.074939 114.360297 134.576122 
C 113.861479 134.077304 113.184842 133.797032 112.479408 133.797032 
C 111.773973 133.797032 111.097336 134.077304 110.598519 134.576122 
C 110.099701 135.074939 109.819429 135.751576 109.819429 136.45701 
C 109.819429 137.162445 110.099701 137.839082 110.598519 138.337899 
C 111.097336 138.836717 111.773973 139.116989 112.479408 139.116989 
z
" clip-path="url(#pa748ac8790)" style="stroke: #000000"/>
    <path d="M 103.51358 125.070204 
C 104.219014 125.070204 104.895651 124.789932 105.394469 124.291114 
C 105.893286 123.792297 106.173558 123.11566 106.173558 122.410225 
C 106.173558 121.704791 105.893286 121.028154 105.394469 120.529336 
C 104.895651 120.030519 104.219014 119.750247 103.51358 119.750247 
C 102.808145 119.750247 102.131508 120.030519 101.632691 120.529336 
C 101.133873 121.028154 100.853601 121.704791 100.853601 122.410225 
C 100.853601 123.11566 101.133873 123.792297 101.632691 124.291114 
C 102.131508 124.789932 102.808145 125.070204 103.51358 125.070204 
z
" clip-path="url(#pa748ac8790)" style="stroke: #000000"/>
    <path d="M 104.63812 113.396624 
C 105.275552 113.396624 105.886963 113.143369 106.337695 112.692637 
C 106.788428 112.241904 107.041682 111.630494 107.041682 110.993062 
C 107.041682 110.35563 106.788428 109.744219 106.337695 109.293487 
C 105.886963 108.842754 105.275552 108.5895 104.63812 108.5895 
C 104.000688 108.5895 103.389278 108.842754 102.938545 109.293487 
C 102.487813 109.744219 102.234558 110.35563 102.234558 110.993062 
C 102.234558 111.630494 102.487813 112.241904 102.938545 112.692637 
C 103.389278 113.143369 104.000688 113.396624 104.63812 113.396624 
z
" clip-path="url(#pa748ac8790)" style="stroke: #000000"/>
    <path d="M 99.943213 102.936064 
C 100.648647 102.936064 101.325284 102.655792 101.824102 102.156975 
C 102.322919 101.658157 102.603191 100.98152 102.603191 100.276086 
C 102.603191 99.570651 102.322919 98.894015 101.824102 98.395197 
C 101.325284 97.896379 100.648647 97.616107 99.943213 97.616107 
C 99.237778 97.616107 98.561142 97.896379 98.062324 98.395197 
C 97.563507 98.894015 97.283234 99.570651 97.283234 100.276086 
C 97.283234 100.98152 97.563507 101.658157 98.062324 102.156975 
C 98.561142 102.655792 99.237778 102.936064 99.943213 102.936064 
z
" clip-path="url(#pa748ac8790)" style="stroke: #000000"/>
    <path d="M 97.558267 89.826885 
C 98.07011 89.826885 98.561059 89.623528 98.922986 89.2616 
C 99.284914 88.899673 99.488271 88.408724 99.488271 87.896881 
C 99.488271 87.385038 99.284914 86.89409 98.922986 86.532162 
C 98.561059 86.170235 98.07011 85.966877 97.558267 85.966877 
C 97.046424 85.966877 96.555476 86.170235 96.193548 86.532162 
C 95.83162 86.89409 95.628263 87.385038 95.628263 87.896881 
C 95.628263 88.408724 95.83162 88.899673 96.193548 89.2616 
C 96.555476 89.623528 97.046424 89.826885 97.558267 89.826885 
z
" clip-path="url(#pa748ac8790)" style="stroke: #000000"/>
    <path d="M 92.691362 86.138234 
C 93.284374 86.138234 93.853178 85.902628 94.272501 85.483305 
C 94.691824 85.063982 94.92743 84.495179 94.92743 83.902166 
C 94.92743 83.309154 94.691824 82.740351 94.272501 82.321028 
C 93.853178 81.901705 93.284374 81.666098 92.691362 81.666098 
C 92.09835 81.666098 91.529546 81.901705 91.110223 82.321028 
C 90.6909 82.740351 90.455294 83.309154 90.455294 83.902166 
C 90.455294 84.495179 90.6909 85.063982 91.110223 85.483305 
C 91.529546 85.902628 92.09835 86.138234 92.691362 86.138234 
z
" clip-path="url(#pa748ac8790)" style="stroke: #000000"/>
    <path d="M 94.559117 76.774829 
C 94.757402 76.774829 94.947593 76.696049 95.087802 76.55584 
C 95.228011 76.415631 95.306791 76.22544 95.306791 76.027155 
C 95.306791 75.828869 95.228011 75.638678 95.087802 75.498469 
C 94.947593 75.35826 94.757402 75.27948 94.559117 75.27948 
C 94.360831 75.27948 94.17064 75.35826 94.030431 75.498469 
C 93.890222 75.638678 93.811442 75.828869 93.811442 76.027155 
C 93.811442 76.22544 93.890222 76.415631 94.030431 76.55584 
C 94.17064 76.696049 94.360831 76.774829 94.559117 76.774829 
z
" clip-path="url(#pa748ac8790)" style="stroke: #000000"/>
    <path d="M 81.585727 40.263138 
C 82.103796 40.263138 82.600716 40.057307 82.967046 39.690977 
C 83.333376 39.324647 83.539207 38.827727 83.539207 38.309658 
C 83.539207 37.791589 83.333376 37.294669 82.967046 36.928339 
C 82.600716 36.562009 82.103796 36.356178 81.585727 36.356178 
C 81.067658 36.356178 80.570738 36.562009 80.204408 36.928339 
C 79.838078 37.294669 79.632247 37.791589 79.632247 38.309658 
C 79.632247 38.827727 79.838078 39.324647 80.204408 39.690977 
C 80.570738 40.057307 81.067658 40.263138 81.585727 40.263138 
z
" clip-path="url(#pa748ac8790)" style="stroke: #000000"/>
    <path d="M 75.546681 35.844351 
C 76.252115 35.844351 76.928752 35.564079 77.427569 35.065261 
C 77.926387 34.566444 78.206659 33.889807 78.206659 33.184373 
C 78.206659 32.478938 77.926387 31.802301 77.427569 31.303484 
C 76.928752 30.804666 76.252115 30.524394 75.546681 30.524394 
C 74.841246 30.524394 74.164609 30.804666 73.665792 31.303484 
C 73.166974 31.802301 72.886702 32.478938 72.886702 33.184373 
C 72.886702 33.889807 73.166974 34.566444 73.665792 35.065261 
C 74.164609 35.564079 74.841246 35.844351 75.546681 35.844351 
z
" clip-path="url(#pa748ac8790)" style="stroke: #000000"/>
    <path d="M 109.224553 170.340708 
C 109.785389 170.340708 110.32333 170.117885 110.719902 169.721314 
C 111.116473 169.324743 111.339295 168.786801 111.339295 168.225965 
C 111.339295 167.665129 111.116473 167.127188 110.719902 166.730616 
C 110.32333 166.334045 109.785389 166.111223 109.224553 166.111223 
C 108.663716 166.111223 108.125775 166.334045 107.729204 166.730616 
C 107.332633 167.127188 107.10981 167.665129 107.10981 168.225965 
C 107.10981 168.786801 107.332633 169.324743 107.729204 169.721314 
C 108.125775 170.117885 108.663716 170.340708 109.224553 170.340708 
z
" clip-path="url(#pa748ac8790)" style="stroke: #000000"/>
    <path d="M 106.978548 156.833318 
C 107.683983 156.833318 108.36062 156.553046 108.859437 156.054228 
C 109.358255 155.555411 109.638527 154.878774 109.638527 154.173339 
C 109.638527 153.467905 109.358255 152.791268 108.859437 152.292451 
C 108.36062 151.793633 107.683983 151.513361 106.978548 151.513361 
C 106.273114 151.513361 105.596477 151.793633 105.097659 152.292451 
C 104.598842 152.791268 104.31857 153.467905 104.31857 154.173339 
C 104.31857 154.878774 104.598842 155.555411 105.097659 156.054228 
C 105.596477 156.553046 106.273114 156.833318 106.978548 156.833318 
z
" clip-path="url(#pa748ac8790)" style="stroke: #000000"/>
    <path d="M 105.476283 146.845338 
C 106.067434 146.845338 106.634451 146.610471 107.052458 146.192465 
C 107.470464 145.774458 107.705331 145.207441 107.705331 144.61629 
C 107.705331 144.02514 107.470464 143.458122 107.052458 143.040116 
C 106.634451 142.622109 106.067434 142.387243 105.476283 142.387243 
C 104.885133 142.387243 104.318115 142.622109 103.900109 143.040116 
C 103.482103 143.458122 103.247236 144.02514 103.247236 144.61629 
C 103.247236 145.207441 103.482103 145.774458 103.900109 146.192465 
C 104.318115 146.610471 104.885133 146.845338 105.476283 146.845338 
z
" clip-path="url(#pa748ac8790)" style="stroke: #000000"/>
    <path d="M 100.839045 140.765623 
C 101.413405 140.765623 101.964319 140.537427 102.370452 140.131293 
C 102.776586 139.725159 103.004782 139.174246 103.004782 138.599886 
C 103.004782 138.025526 102.776586 137.474613 102.370452 137.068479 
C 101.964319 136.662345 101.413405 136.434149 100.839045 136.434149 
C 100.264685 136.434149 99.713772 136.662345 99.307638 137.068479 
C 98.901504 137.474613 98.673309 138.025526 98.673309 138.599886 
C 98.673309 139.174246 98.901504 139.725159 99.307638 140.131293 
C 99.713772 140.537427 100.264685 140.765623 100.839045 140.765623 
z
" clip-path="url(#pa748ac8790)" style="stroke: #000000"/>
    <path d="M 97.586046 127.808935 
C 98.112259 127.808935 98.61699 127.599868 98.989079 127.22778 
C 99.361168 126.855691 99.570234 126.350959 99.570234 125.824746 
C 99.570234 125.298534 99.361168 124.793802 98.989079 124.421713 
C 98.61699 124.049625 98.112259 123.840558 97.586046 123.840558 
C 97.059833 123.840558 96.555101 124.049625 96.183013 124.421713 
C 95.810924 124.793802 95.601857 125.298534 95.601857 125.824746 
C 95.601857 126.350959 95.810924 126.855691 96.183013 127.22778 
C 96.555101 127.599868 97.059833 127.808935 97.586046 127.808935 
z
" clip-path="url(#pa748ac8790)" style="stroke: #000000"/>
    <path d="M 92.596639 123.326959 
C 93.435415 123.326959 94.239951 122.993709 94.833056 122.400604 
C 95.426161 121.8075 95.75941 121.002964 95.75941 120.164187 
C 95.75941 119.32541 95.426161 118.520875 94.833056 117.92777 
C 94.239951 117.334665 93.435415 117.001415 92.596639 117.001415 
C 91.757862 117.001415 90.953326 117.334665 90.360221 117.92777 
C 89.767117 118.520875 89.433867 119.32541 89.433867 120.164187 
C 89.433867 121.002964 89.767117 121.8075 90.360221 122.400604 
C 90.953326 122.993709 91.757862 123.326959 92.596639 123.326959 
z
" clip-path="url(#pa748ac8790)" style="stroke: #000000"/>
    <path d="M 87.601451 106.570808 
C 88.188059 106.570808 88.750721 106.337746 89.165515 105.922951 
C 89.58031 105.508156 89.813372 104.945495 89.813372 104.358886 
C 89.813372 103.772278 89.58031 103.209616 89.165515 102.794822 
C 88.750721 102.380027 88.188059 102.146965 87.601451 102.146965 
C 87.014842 102.146965 86.452181 102.380027 86.037386 102.794822 
C 85.622591 103.209616 85.389529 103.772278 85.389529 104.358886 
C 85.389529 104.945495 85.622591 105.508156 86.037386 105.922951 
C 86.452181 106.337746 87.014842 106.570808 87.601451 106.570808 
z
" clip-path="url(#pa748ac8790)" style="stroke: #000000"/>
    <path d="M 88.774319 99.745503 
C 89.613096 99.745503 90.417631 99.412254 91.010736 98.819149 
C 91.603841 98.226044 91.937091 97.421509 91.937091 96.582732 
C 91.937091 95.743955 91.603841 94.939419 91.010736 94.346315 
C 90.417631 93.75321 89.613096 93.41996 88.774319 93.41996 
C 87.935542 93.41996 87.131007 93.75321 86.537902 94.346315 
C 85.944797 94.939419 85.611547 95.743955 85.611547 96.582732 
C 85.611547 97.421509 85.944797 98.226044 86.537902 98.819149 
C 87.131007 99.412254 87.935542 99.745503 88.774319 99.745503 
z
" clip-path="url(#pa748ac8790)" style="stroke: #000000"/>
    <path d="M 84.406385 90.529268 
C 85.11182 90.529268 85.788457 90.248996 86.287274 89.750178 
C 86.786092 89.251361 87.066364 88.574724 87.066364 87.869289 
C 87.066364 87.163855 86.786092 86.487218 86.287274 85.988401 
C 85.788457 85.489583 85.11182 85.209311 84.406385 85.209311 
C 83.700951 85.209311 83.024314 85.489583 82.525497 85.988401 
C 82.026679 86.487218 81.746407 87.163855 81.746407 87.869289 
C 81.746407 88.574724 82.026679 89.251361 82.525497 89.750178 
C 83.024314 90.248996 83.700951 90.529268 84.406385 90.529268 
z
" clip-path="url(#pa748ac8790)" style="stroke: #000000"/>
    <path d="M 78.667654 79.371573 
C 79.373089 79.371573 80.049726 79.091301 80.548543 78.592483 
C 81.047361 78.093665 81.327633 77.417029 81.327633 76.711594 
C 81.327633 76.00616 81.047361 75.329523 80.548543 74.830705 
C 80.049726 74.331888 79.373089 74.051616 78.667654 74.051616 
C 77.96222 74.051616 77.285583 74.331888 76.786765 74.830705 
C 76.287948 75.329523 76.007676 76.00616 76.007676 76.711594 
C 76.007676 77.417029 76.287948 78.093665 76.786765 78.592483 
C 77.285583 79.091301 77.96222 79.371573 78.667654 79.371573 
z
" clip-path="url(#pa748ac8790)" style="stroke: #000000"/>
    <path d="M 76.762915 71.103806 
C 77.46835 71.103806 78.144986 70.823534 78.643804 70.324716 
C 79.142622 69.825898 79.422894 69.149262 79.422894 68.443827 
C 79.422894 67.738393 79.142622 67.061756 78.643804 66.562938 
C 78.144986 66.064121 77.46835 65.783849 76.762915 65.783849 
C 76.057481 65.783849 75.380844 66.064121 74.882026 66.562938 
C 74.383209 67.061756 74.102937 67.738393 74.102937 68.443827 
C 74.102937 69.149262 74.383209 69.825898 74.882026 70.324716 
C 75.380844 70.823534 76.057481 71.103806 76.762915 71.103806 
z
" clip-path="url(#pa748ac8790)" style="stroke: #000000"/>
    <path d="M 70.916434 56.255901 
C 71.621648 56.255901 72.298074 55.975717 72.796736 55.477055 
C 73.295397 54.978393 73.575582 54.301968 73.575582 53.596753 
C 73.575582 52.891539 73.295397 52.215114 72.796736 51.716452 
C 72.298074 51.21779 71.621648 50.937605 70.916434 50.937605 
C 70.21122 50.937605 69.534794 51.21779 69.036133 51.716452 
C 68.537471 52.215114 68.257286 52.891539 68.257286 53.596753 
C 68.257286 54.301968 68.537471 54.978393 69.036133 55.477055 
C 69.534794 55.975717 70.21122 56.255901 70.916434 56.255901 
z
" clip-path="url(#pa748ac8790)" style="stroke: #000000"/>
    <path d="M 68.075415 47.04837 
C 68.78063 47.04837 69.457055 46.768186 69.955717 46.269524 
C 70.454379 45.770862 70.734563 45.094437 70.734563 44.389222 
C 70.734563 43.684008 70.454379 43.007583 69.955717 42.508921 
C 69.457055 42.010259 68.78063 41.730074 68.075415 41.730074 
C 67.370201 41.730074 66.693776 42.010259 66.195114 42.508921 
C 65.696452 43.007583 65.416267 43.684008 65.416267 44.389222 
C 65.416267 45.094437 65.696452 45.770862 66.195114 46.269524 
C 66.693776 46.768186 67.370201 47.04837 68.075415 47.04837 
z
" clip-path="url(#pa748ac8790)" style="stroke: #000000"/>
    <path d="M 60.748139 29.410863 
C 61.451362 29.410863 62.125877 29.131469 62.62313 28.634216 
C 63.120383 28.136963 63.399776 27.462448 63.399776 26.759225 
C 63.399776 26.056003 63.120383 25.381488 62.62313 24.884235 
C 62.125877 24.386981 61.451362 24.107588 60.748139 24.107588 
C 60.044917 24.107588 59.370402 24.386981 58.873148 24.884235 
C 58.375895 25.381488 58.096502 26.056003 58.096502 26.759225 
C 58.096502 27.462448 58.375895 28.136963 58.873148 28.634216 
C 59.370402 29.131469 60.044917 29.410863 60.748139 29.410863 
z
" clip-path="url(#pa748ac8790)" style="stroke: #000000"/>
    <path d="M 96.76794 177.571623 
C 97.326572 177.571623 97.8624 177.349676 98.257413 176.954663 
C 98.652426 176.55965 98.874373 176.023822 98.874373 175.46519 
C 98.874373 174.906557 98.652426 174.37073 98.257413 173.975717 
C 97.8624 173.580704 97.326572 173.358757 96.76794 173.358757 
C 96.209307 173.358757 95.67348 173.580704 95.278467 173.975717 
C 94.883454 174.37073 94.661507 174.906557 94.661507 175.46519 
C 94.661507 176.023822 94.883454 176.55965 95.278467 176.954663 
C 95.67348 177.349676 96.209307 177.571623 96.76794 177.571623 
z
" clip-path="url(#pa748ac8790)" style="stroke: #000000"/>
    <path d="M 95.180291 148.15446 
C 95.885505 148.15446 96.561931 147.874276 97.060592 147.375614 
C 97.559254 146.876952 97.839439 146.200527 97.839439 145.495312 
C 97.839439 144.790098 97.559254 144.113672 97.060592 143.615011 
C 96.561931 143.116349 95.885505 142.836164 95.180291 142.836164 
C 94.475077 142.836164 93.798651 143.116349 93.299989 143.615011 
C 92.801328 144.113672 92.521143 144.790098 92.521143 145.495312 
C 92.521143 146.200527 92.801328 146.876952 93.299989 147.375614 
C 93.798651 147.874276 94.475077 148.15446 95.180291 148.15446 
z
" clip-path="url(#pa748ac8790)" style="stroke: #000000"/>
    <path d="M 89.978833 139.879165 
C 90.571845 139.879165 91.140649 139.643558 91.559972 139.224235 
C 91.979295 138.804913 92.214901 138.236109 92.214901 137.643097 
C 92.214901 137.050084 91.979295 136.481281 91.559972 136.061958 
C 91.140649 135.642635 90.571845 135.407029 89.978833 135.407029 
C 89.385821 135.407029 88.817017 135.642635 88.397694 136.061958 
C 87.978371 136.481281 87.742765 137.050084 87.742765 137.643097 
C 87.742765 138.236109 87.978371 138.804913 88.397694 139.224235 
C 88.817017 139.643558 89.385821 139.879165 89.978833 139.879165 
z
" clip-path="url(#pa748ac8790)" style="stroke: #000000"/>
    <path d="M 84.96955 135.88469 
C 85.69604 135.88469 86.392873 135.596052 86.906579 135.082346 
C 87.420285 134.56864 87.708923 133.871807 87.708923 133.145316 
C 87.708923 132.418826 87.420285 131.721993 86.906579 131.208287 
C 86.392873 130.694581 85.69604 130.405943 84.96955 130.405943 
C 84.24306 130.405943 83.546227 130.694581 83.03252 131.208287 
C 82.518814 131.721993 82.230177 132.418826 82.230177 133.145316 
C 82.230177 133.871807 82.518814 134.56864 83.03252 135.082346 
C 83.546227 135.596052 84.24306 135.88469 84.96955 135.88469 
z
" clip-path="url(#pa748ac8790)" style="stroke: #000000"/>
    <path d="M 85.389496 120.13202 
C 86.228273 120.13202 87.032808 119.798771 87.625913 119.205666 
C 88.219018 118.612561 88.552268 117.808025 88.552268 116.969248 
C 88.552268 116.130472 88.219018 115.325936 87.625913 114.732831 
C 87.032808 114.139726 86.228273 113.806477 85.389496 113.806477 
C 84.550719 113.806477 83.746183 114.139726 83.153079 114.732831 
C 82.559974 115.325936 82.226724 116.130472 82.226724 116.969248 
C 82.226724 117.808025 82.559974 118.612561 83.153079 119.205666 
C 83.746183 119.798771 84.550719 120.13202 85.389496 120.13202 
z
" clip-path="url(#pa748ac8790)" style="stroke: #000000"/>
    <path d="M 77.772233 106.394501 
C 78.477447 106.394501 79.153872 106.114316 79.652534 105.615655 
C 80.151196 105.116993 80.431381 104.440567 80.431381 103.735353 
C 80.431381 103.030139 80.151196 102.353713 79.652534 101.855051 
C 79.153872 101.35639 78.477447 101.076205 77.772233 101.076205 
C 77.067018 101.076205 76.390593 101.35639 75.891931 101.855051 
C 75.393269 102.353713 75.113085 103.030139 75.113085 103.735353 
C 75.113085 104.440567 75.393269 105.116993 75.891931 105.615655 
C 76.390593 106.114316 77.067018 106.394501 77.772233 106.394501 
z
" clip-path="url(#pa748ac8790)" style="stroke: #000000"/>
    <path d="M 74.739492 100.98541 
C 75.444927 100.98541 76.121563 100.705138 76.620381 100.20632 
C 77.119199 99.707503 77.399471 99.030866 77.399471 98.325431 
C 77.399471 97.619997 77.119199 96.94336 76.620381 96.444542 
C 76.121563 95.945725 75.444927 95.665453 74.739492 95.665453 
C 74.034058 95.665453 73.357421 95.945725 72.858603 96.444542 
C 72.359786 96.94336 72.079514 97.619997 72.079514 98.325431 
C 72.079514 99.030866 72.359786 99.707503 72.858603 100.20632 
C 73.357421 100.705138 74.034058 100.98541 74.739492 100.98541 
z
" clip-path="url(#pa748ac8790)" style="stroke: #000000"/>
    <path d="M 66.839557 91.966261 
C 67.432198 91.966261 68.000646 91.730802 68.419706 91.311742 
C 68.838767 90.892681 69.074226 90.324233 69.074226 89.731592 
C 69.074226 89.138951 68.838767 88.570503 68.419706 88.151442 
C 68.000646 87.732382 67.432198 87.496923 66.839557 87.496923 
C 66.246916 87.496923 65.678468 87.732382 65.259407 88.151442 
C 64.840347 88.570503 64.604888 89.138951 64.604888 89.731592 
C 64.604888 90.324233 64.840347 90.892681 65.259407 91.311742 
C 65.678468 91.730802 66.246916 91.966261 66.839557 91.966261 
z
" clip-path="url(#pa748ac8790)" style="stroke: #000000"/>
    <path d="M 62.771273 85.60875 
C 63.476708 85.60875 64.153345 85.328478 64.652162 84.829661 
C 65.15098 84.330843 65.431252 83.654206 65.431252 82.948772 
C 65.431252 82.243337 65.15098 81.566701 64.652162 81.067883 
C 64.153345 80.569065 63.476708 80.288793 62.771273 80.288793 
C 62.065839 80.288793 61.389202 80.569065 60.890384 81.067883 
C 60.391567 81.566701 60.111295 82.243337 60.111295 82.948772 
C 60.111295 83.654206 60.391567 84.330843 60.890384 84.829661 
C 61.389202 85.328478 62.065839 85.60875 62.771273 85.60875 
z
" clip-path="url(#pa748ac8790)" style="stroke: #000000"/>
    <path d="M 57.223293 60.229286 
C 57.928727 60.229286 58.605364 59.949014 59.104182 59.450196 
C 59.602999 58.951378 59.883271 58.274742 59.883271 57.569307 
C 59.883271 56.863873 59.602999 56.187236 59.104182 55.688418 
C 58.605364 55.189601 57.928727 54.909329 57.223293 54.909329 
C 56.517858 54.909329 55.841222 55.189601 55.342404 55.688418 
C 54.843586 56.187236 54.563314 56.863873 54.563314 57.569307 
C 54.563314 58.274742 54.843586 58.951378 55.342404 59.450196 
C 55.841222 59.949014 56.517858 60.229286 57.223293 60.229286 
z
" clip-path="url(#pa748ac8790)" style="stroke: #000000"/>
    <path d="M 53.626637 42.216951 
C 54.332072 42.216951 55.008708 41.936679 55.507526 41.437861 
C 56.006343 40.939044 56.286616 40.262407 56.286616 39.556972 
C 56.286616 38.851538 56.006343 38.174901 55.507526 37.676083 
C 55.008708 37.177266 54.332072 36.896994 53.626637 36.896994 
C 52.921202 36.896994 52.244566 37.177266 51.745748 37.676083 
C 51.246931 38.174901 50.966658 38.851538 50.966658 39.556972 
C 50.966658 40.262407 51.246931 40.939044 51.745748 41.437861 
C 52.244566 41.936679 52.921202 42.216951 53.626637 42.216951 
z
" clip-path="url(#pa748ac8790)" style="stroke: #000000"/>
    <path d="M 90.401776 178.400286 
C 91.106991 178.400286 91.783416 178.120102 92.282078 177.62144 
C 92.78074 177.122778 93.060924 176.446353 93.060924 175.741138 
C 93.060924 175.035924 92.78074 174.359499 92.282078 173.860837 
C 91.783416 173.362175 91.106991 173.08199 90.401776 173.08199 
C 89.696562 173.08199 89.020137 173.362175 88.521475 173.860837 
C 88.022813 174.359499 87.742628 175.035924 87.742628 175.741138 
C 87.742628 176.446353 88.022813 177.122778 88.521475 177.62144 
C 89.020137 178.120102 89.696562 178.400286 90.401776 178.400286 
z
" clip-path="url(#pa748ac8790)" style="stroke: #000000"/>
    <path d="M 83.661661 170.650883 
C 84.366875 170.650883 85.043301 170.370698 85.541962 169.872036 
C 86.040624 169.373375 86.320809 168.696949 86.320809 167.991735 
C 86.320809 167.286521 86.040624 166.610095 85.541962 166.111433 
C 85.043301 165.612771 84.366875 165.332587 83.661661 165.332587 
C 82.956447 165.332587 82.280021 165.612771 81.781359 166.111433 
C 81.282698 166.610095 81.002513 167.286521 81.002513 167.991735 
C 81.002513 168.696949 81.282698 169.373375 81.781359 169.872036 
C 82.280021 170.370698 82.956447 170.650883 83.661661 170.650883 
z
" clip-path="url(#pa748ac8790)" style="stroke: #000000"/>
    <path d="M 79.882519 144.778923 
C 80.587734 144.778923 81.264159 144.498738 81.762821 144.000077 
C 82.261483 143.501415 82.541667 142.824989 82.541667 142.119775 
C 82.541667 141.414561 82.261483 140.738135 81.762821 140.239474 
C 81.264159 139.740812 80.587734 139.460627 79.882519 139.460627 
C 79.177305 139.460627 78.50088 139.740812 78.002218 140.239474 
C 77.503556 140.738135 77.223371 141.414561 77.223371 142.119775 
C 77.223371 142.824989 77.503556 143.501415 78.002218 144.000077 
C 78.50088 144.498738 79.177305 144.778923 79.882519 144.778923 
z
" clip-path="url(#pa748ac8790)" style="stroke: #000000"/>
    <path d="M 76.595005 136.308831 
C 77.154963 136.308831 77.692062 136.086357 78.088012 135.690407 
C 78.483962 135.294457 78.706436 134.757359 78.706436 134.197401 
C 78.706436 133.637443 78.483962 133.100344 78.088012 132.704394 
C 77.692062 132.308444 77.154963 132.08597 76.595005 132.08597 
C 76.035047 132.08597 75.497949 132.308444 75.101999 132.704394 
C 74.706049 133.100344 74.483575 133.637443 74.483575 134.197401 
C 74.483575 134.757359 74.706049 135.294457 75.101999 135.690407 
C 75.497949 136.086357 76.035047 136.308831 76.595005 136.308831 
z
" clip-path="url(#pa748ac8790)" style="stroke: #000000"/>
    <path d="M 72.181078 121.205334 
C 72.886512 121.205334 73.563149 120.925062 74.061967 120.426244 
C 74.560784 119.927427 74.841056 119.25079 74.841056 118.545356 
C 74.841056 117.839921 74.560784 117.163284 74.061967 116.664467 
C 73.563149 116.165649 72.886512 115.885377 72.181078 115.885377 
C 71.475643 115.885377 70.799006 116.165649 70.300189 116.664467 
C 69.801371 117.163284 69.521099 117.839921 69.521099 118.545356 
C 69.521099 119.25079 69.801371 119.927427 70.300189 120.426244 
C 70.799006 120.925062 71.475643 121.205334 72.181078 121.205334 
z
" clip-path="url(#pa748ac8790)" style="stroke: #000000"/>
    <path d="M 70.839412 115.141663 
C 71.544846 115.141663 72.221483 114.861391 72.7203 114.362573 
C 73.219118 113.863756 73.49939 113.187119 73.49939 112.481684 
C 73.49939 111.77625 73.219118 111.099613 72.7203 110.600795 
C 72.221483 110.101978 71.544846 109.821706 70.839412 109.821706 
C 70.133977 109.821706 69.45734 110.101978 68.958523 110.600795 
C 68.459705 111.099613 68.179433 111.77625 68.179433 112.481684 
C 68.179433 113.187119 68.459705 113.863756 68.958523 114.362573 
C 69.45734 114.861391 70.133977 115.141663 70.839412 115.141663 
z
" clip-path="url(#pa748ac8790)" style="stroke: #000000"/>
    <path d="M 66.459153 104.775306 
C 67.164587 104.775306 67.841224 104.495034 68.340042 103.996216 
C 68.838859 103.497399 69.119131 102.820762 69.119131 102.115327 
C 69.119131 101.409893 68.838859 100.733256 68.340042 100.234438 
C 67.841224 99.735621 67.164587 99.455349 66.459153 99.455349 
C 65.753718 99.455349 65.077081 99.735621 64.578264 100.234438 
C 64.079446 100.733256 63.799174 101.409893 63.799174 102.115327 
C 63.799174 102.820762 64.079446 103.497399 64.578264 103.996216 
C 65.077081 104.495034 65.753718 104.775306 66.459153 104.775306 
z
" clip-path="url(#pa748ac8790)" style="stroke: #000000"/>
    <path d="M 60.034744 99.013187 
C 60.87339 99.013187 61.6778 98.679989 62.270812 98.086977 
C 62.863824 97.493965 63.197022 96.689555 63.197022 95.850909 
C 63.197022 95.012263 62.863824 94.207853 62.270812 93.614841 
C 61.6778 93.021829 60.87339 92.688632 60.034744 92.688632 
C 59.196098 92.688632 58.391688 93.021829 57.798676 93.614841 
C 57.205664 94.207853 56.872466 95.012263 56.872466 95.850909 
C 56.872466 96.689555 57.205664 97.493965 57.798676 98.086977 
C 58.391688 98.679989 59.196098 99.013187 60.034744 99.013187 
z
" clip-path="url(#pa748ac8790)" style="stroke: #000000"/>
    <path d="M 55.184127 87.260804 
C 55.637786 87.260804 56.072924 87.080564 56.393709 86.759779 
C 56.714494 86.438995 56.894734 86.003856 56.894734 85.550198 
C 56.894734 85.09654 56.714494 84.661401 56.393709 84.340616 
C 56.072924 84.019831 55.637786 83.839591 55.184127 83.839591 
C 54.730469 83.839591 54.295331 84.019831 53.974546 84.340616 
C 53.653761 84.661401 53.473521 85.09654 53.473521 85.550198 
C 53.473521 86.003856 53.653761 86.438995 53.974546 86.759779 
C 54.295331 87.080564 54.730469 87.260804 55.184127 87.260804 
z
" clip-path="url(#pa748ac8790)" style="stroke: #000000"/>
    <path d="M 52.601925 72.950869 
C 53.307139 72.950869 53.983565 72.670685 54.482227 72.172023 
C 54.980888 71.673361 55.261073 70.996936 55.261073 70.291721 
C 55.261073 69.586507 54.980888 68.910082 54.482227 68.41142 
C 53.983565 67.912758 53.307139 67.632573 52.601925 67.632573 
C 51.896711 67.632573 51.220285 67.912758 50.721623 68.41142 
C 50.222962 68.910082 49.942777 69.586507 49.942777 70.291721 
C 49.942777 70.996936 50.222962 71.673361 50.721623 72.172023 
C 51.220285 72.670685 51.896711 72.950869 52.601925 72.950869 
z
" clip-path="url(#pa748ac8790)" style="stroke: #000000"/>
    <path d="M 50.522974 64.171471 
C 51.228409 64.171471 51.905046 63.891198 52.403863 63.392381 
C 52.902681 62.893563 53.182953 62.216927 53.182953 61.511492 
C 53.182953 60.806058 52.902681 60.129421 52.403863 59.630603 
C 51.905046 59.131786 51.228409 58.851514 50.522974 58.851514 
C 49.81754 58.851514 49.140903 59.131786 48.642085 59.630603 
C 48.143268 60.129421 47.862996 60.806058 47.862996 61.511492 
C 47.862996 62.216927 48.143268 62.893563 48.642085 63.392381 
C 49.140903 63.891198 49.81754 64.171471 50.522974 64.171471 
z
" clip-path="url(#pa748ac8790)" style="stroke: #000000"/>
    <path d="M 52.48212 55.049717 
C 53.187334 55.049717 53.863759 54.769533 54.362421 54.270871 
C 54.861083 53.772209 55.141268 53.095784 55.141268 52.390569 
C 55.141268 51.685355 54.861083 51.00893 54.362421 50.510268 
C 53.863759 50.011606 53.187334 49.731422 52.48212 49.731422 
C 51.776905 49.731422 51.10048 50.011606 50.601818 50.510268 
C 50.103156 51.00893 49.822972 51.685355 49.822972 52.390569 
C 49.822972 53.095784 50.103156 53.772209 50.601818 54.270871 
C 51.10048 54.769533 51.776905 55.049717 52.48212 55.049717 
z
" clip-path="url(#pa748ac8790)" style="stroke: #000000"/>
    <path d="M 77.804483 169.879761 
C 78.509698 169.879761 79.186123 169.599576 79.684785 169.100914 
C 80.183447 168.602253 80.463631 167.925827 80.463631 167.220613 
C 80.463631 166.515399 80.183447 165.838973 79.684785 165.340311 
C 79.186123 164.841649 78.509698 164.561465 77.804483 164.561465 
C 77.099269 164.561465 76.422843 164.841649 75.924182 165.340311 
C 75.42552 165.838973 75.145335 166.515399 75.145335 167.220613 
C 75.145335 167.925827 75.42552 168.602253 75.924182 169.100914 
C 76.422843 169.599576 77.099269 169.879761 77.804483 169.879761 
z
" clip-path="url(#pa748ac8790)" style="stroke: #000000"/>
    <path d="M 75.304906 157.984261 
C 76.01012 157.984261 76.686546 157.704077 77.185208 157.205415 
C 77.683869 156.706753 77.964054 156.030328 77.964054 155.325113 
C 77.964054 154.619899 77.683869 153.943474 77.185208 153.444812 
C 76.686546 152.94615 76.01012 152.665965 75.304906 152.665965 
C 74.599692 152.665965 73.923266 152.94615 73.424605 153.444812 
C 72.925943 153.943474 72.645758 154.619899 72.645758 155.325113 
C 72.645758 156.030328 72.925943 156.706753 73.424605 157.205415 
C 73.923266 157.704077 74.599692 157.984261 75.304906 157.984261 
z
" clip-path="url(#pa748ac8790)" style="stroke: #000000"/>
    <path d="M 69.843737 149.825642 
C 70.549171 149.825642 71.225808 149.54537 71.724626 149.046552 
C 72.223443 148.547735 72.503715 147.871098 72.503715 147.165663 
C 72.503715 146.460229 72.223443 145.783592 71.724626 145.284775 
C 71.225808 144.785957 70.549171 144.505685 69.843737 144.505685 
C 69.138302 144.505685 68.461666 144.785957 67.962848 145.284775 
C 67.46403 145.783592 67.183758 146.460229 67.183758 147.165663 
C 67.183758 147.871098 67.46403 148.547735 67.962848 149.046552 
C 68.461666 149.54537 69.138302 149.825642 69.843737 149.825642 
z
" clip-path="url(#pa748ac8790)" style="stroke: #000000"/>
    <path d="M 65.513482 141.631594 
C 65.754971 141.631594 65.986601 141.53565 66.157359 141.364891 
C 66.328118 141.194133 66.424062 140.962503 66.424062 140.721014 
C 66.424062 140.479525 66.328118 140.247895 66.157359 140.077137 
C 65.986601 139.906378 65.754971 139.810434 65.513482 139.810434 
C 65.271993 139.810434 65.040363 139.906378 64.869605 140.077137 
C 64.698846 140.247895 64.602902 140.479525 64.602902 140.721014 
C 64.602902 140.962503 64.698846 141.194133 64.869605 141.364891 
C 65.040363 141.53565 65.271993 141.631594 65.513482 141.631594 
z
" clip-path="url(#pa748ac8790)" style="stroke: #000000"/>
    <path d="M 57.786031 128.797512 
C 58.423463 128.797512 59.034874 128.544257 59.485606 128.093525 
C 59.936339 127.642792 60.189593 127.031382 60.189593 126.39395 
C 60.189593 125.756518 59.936339 125.145108 59.485606 124.694375 
C 59.034874 124.243642 58.423463 123.990388 57.786031 123.990388 
C 57.148599 123.990388 56.537189 124.243642 56.086456 124.694375 
C 55.635724 125.145108 55.382469 125.756518 55.382469 126.39395 
C 55.382469 127.031382 55.635724 127.642792 56.086456 128.093525 
C 56.537189 128.544257 57.148599 128.797512 57.786031 128.797512 
z
" clip-path="url(#pa748ac8790)" style="stroke: #000000"/>
    <path d="M 57.367322 116.740914 
C 57.954313 116.740914 58.517341 116.5077 58.932407 116.092635 
C 59.347472 115.67757 59.580686 115.114541 59.580686 114.52755 
C 59.580686 113.940559 59.347472 113.377531 58.932407 112.962466 
C 58.517341 112.5474 57.954313 112.314186 57.367322 112.314186 
C 56.780331 112.314186 56.217303 112.5474 55.802238 112.962466 
C 55.387172 113.377531 55.153958 113.940559 55.153958 114.52755 
C 55.153958 115.114541 55.387172 115.67757 55.802238 116.092635 
C 56.217303 116.5077 56.780331 116.740914 57.367322 116.740914 
z
" clip-path="url(#pa748ac8790)" style="stroke: #000000"/>
    <path d="M 53.730407 108.483753 
C 54.569184 108.483753 55.373719 108.150504 55.966824 107.557399 
C 56.559929 106.964294 56.893178 106.159759 56.893178 105.320982 
C 56.893178 104.482205 56.559929 103.677669 55.966824 103.084564 
C 55.373719 102.49146 54.569184 102.15821 53.730407 102.15821 
C 52.89163 102.15821 52.087094 102.49146 51.493989 103.084564 
C 50.900885 103.677669 50.567635 104.482205 50.567635 105.320982 
C 50.567635 106.159759 50.900885 106.964294 51.493989 107.557399 
C 52.087094 108.150504 52.89163 108.483753 53.730407 108.483753 
z
" clip-path="url(#pa748ac8790)" style="stroke: #000000"/>
    <path d="M 50.585797 97.176702 
C 51.291011 97.176702 51.967437 96.896518 52.466098 96.397856 
C 52.96476 95.899194 53.244945 95.222769 53.244945 94.517555 
C 53.244945 93.81234 52.96476 93.135915 52.466098 92.637253 
C 51.967437 92.138591 51.291011 91.858407 50.585797 91.858407 
C 49.880583 91.858407 49.204157 92.138591 48.705495 92.637253 
C 48.206834 93.135915 47.926649 93.81234 47.926649 94.517555 
C 47.926649 95.222769 48.206834 95.899194 48.705495 96.397856 
C 49.204157 96.896518 49.880583 97.176702 50.585797 97.176702 
z
" clip-path="url(#pa748ac8790)" style="stroke: #000000"/>
    <path d="M 44.593882 88.187099 
C 45.186894 88.187099 45.755698 87.951493 46.175021 87.53217 
C 46.594344 87.112847 46.82995 86.544043 46.82995 85.951031 
C 46.82995 85.358019 46.594344 84.789215 46.175021 84.369892 
C 45.755698 83.950569 45.186894 83.714963 44.593882 83.714963 
C 44.00087 83.714963 43.432066 83.950569 43.012743 84.369892 
C 42.59342 84.789215 42.357814 85.358019 42.357814 85.951031 
C 42.357814 86.544043 42.59342 87.112847 43.012743 87.53217 
C 43.432066 87.951493 44.00087 88.187099 44.593882 88.187099 
z
" clip-path="url(#pa748ac8790)" style="stroke: #000000"/>
    <path d="M 40.859559 75.606777 
C 41.441517 75.606777 41.999719 75.375563 42.411226 74.964056 
C 42.822733 74.552549 43.053947 73.994348 43.053947 73.412389 
C 43.053947 72.83043 42.822733 72.272229 42.411226 71.860722 
C 41.999719 71.449215 41.441517 71.218001 40.859559 71.218001 
C 40.2776 71.218001 39.719399 71.449215 39.307892 71.860722 
C 38.896385 72.272229 38.66517 72.83043 38.66517 73.412389 
C 38.66517 73.994348 38.896385 74.552549 39.307892 74.964056 
C 39.719399 75.375563 40.2776 75.606777 40.859559 75.606777 
z
" clip-path="url(#pa748ac8790)" style="stroke: #000000"/>
    <path d="M 38.967174 68.806069 
C 39.528011 68.806069 40.065952 68.583247 40.462523 68.186675 
C 40.859094 67.790104 41.081917 67.252163 41.081917 66.691327 
C 41.081917 66.13049 40.859094 65.592549 40.462523 65.195978 
C 40.065952 64.799407 39.528011 64.576584 38.967174 64.576584 
C 38.406338 64.576584 37.868397 64.799407 37.471826 65.195978 
C 37.075254 65.592549 36.852432 66.13049 36.852432 66.691327 
C 36.852432 67.252163 37.075254 67.790104 37.471826 68.186675 
C 37.868397 68.583247 38.406338 68.806069 38.967174 68.806069 
z
" clip-path="url(#pa748ac8790)" style="stroke: #000000"/>
    <path d="M 62.620334 156.479745 
C 63.213346 156.479745 63.78215 156.244139 64.201473 155.824816 
C 64.620796 155.405493 64.856402 154.83669 64.856402 154.243677 
C 64.856402 153.650665 64.620796 153.081862 64.201473 152.662539 
C 63.78215 152.243216 63.213346 152.007609 62.620334 152.007609 
C 62.027322 152.007609 61.458518 152.243216 61.039195 152.662539 
C 60.619872 153.081862 60.384266 153.650665 60.384266 154.243677 
C 60.384266 154.83669 60.619872 155.405493 61.039195 155.824816 
C 61.458518 156.244139 62.027322 156.479745 62.620334 156.479745 
z
" clip-path="url(#pa748ac8790)" style="stroke: #000000"/>
    <path d="M 55.477896 149.722497 
C 56.183111 149.722497 56.859536 149.442312 57.358198 148.943651 
C 57.85686 148.444989 58.137044 147.768563 58.137044 147.063349 
C 58.137044 146.358135 57.85686 145.681709 57.358198 145.183047 
C 56.859536 144.684386 56.183111 144.404201 55.477896 144.404201 
C 54.772682 144.404201 54.096257 144.684386 53.597595 145.183047 
C 53.098933 145.681709 52.818748 146.358135 52.818748 147.063349 
C 52.818748 147.768563 53.098933 148.444989 53.597595 148.943651 
C 54.096257 149.442312 54.772682 149.722497 55.477896 149.722497 
z
" clip-path="url(#pa748ac8790)" style="stroke: #000000"/>
    <path d="M 50.604186 134.649925 
C 51.309621 134.649925 51.986258 134.369653 52.485075 133.870836 
C 52.983893 133.372018 53.264165 132.695381 53.264165 131.989947 
C 53.264165 131.284512 52.983893 130.607876 52.485075 130.109058 
C 51.986258 129.61024 51.309621 129.329968 50.604186 129.329968 
C 49.898752 129.329968 49.222115 129.61024 48.723297 130.109058 
C 48.22448 130.607876 47.944208 131.284512 47.944208 131.989947 
C 47.944208 132.695381 48.22448 133.372018 48.723297 133.870836 
C 49.222115 134.369653 49.898752 134.649925 50.604186 134.649925 
z
" clip-path="url(#pa748ac8790)" style="stroke: #000000"/>
    <path d="M 48.89999 123.309613 
C 49.605425 123.309613 50.282061 123.029341 50.780879 122.530523 
C 51.279696 122.031706 51.559969 121.355069 51.559969 120.649635 
C 51.559969 119.9442 51.279696 119.267563 50.780879 118.768746 
C 50.282061 118.269928 49.605425 117.989656 48.89999 117.989656 
C 48.194555 117.989656 47.517919 118.269928 47.019101 118.768746 
C 46.520284 119.267563 46.240012 119.9442 46.240012 120.649635 
C 46.240012 121.355069 46.520284 122.031706 47.019101 122.530523 
C 47.517919 123.029341 48.194555 123.309613 48.89999 123.309613 
z
" clip-path="url(#pa748ac8790)" style="stroke: #000000"/>
    <path d="M 42.849747 110.330287 
C 43.555182 110.330287 44.231819 110.050015 44.730636 109.551197 
C 45.229454 109.052379 45.509726 108.375743 45.509726 107.670308 
C 45.509726 106.964874 45.229454 106.288237 44.730636 105.789419 
C 44.231819 105.290602 43.555182 105.01033 42.849747 105.01033 
C 42.144313 105.01033 41.467676 105.290602 40.968858 105.789419 
C 40.470041 106.288237 40.189769 106.964874 40.189769 107.670308 
C 40.189769 108.375743 40.470041 109.052379 40.968858 109.551197 
C 41.467676 110.050015 42.144313 110.330287 42.849747 110.330287 
z
" clip-path="url(#pa748ac8790)" style="stroke: #000000"/>
    <path d="M 40.461238 100.573356 
C 40.891645 100.573356 41.304481 100.402354 41.608825 100.09801 
C 41.913169 99.793666 42.084171 99.38083 42.084171 98.950423 
C 42.084171 98.520016 41.913169 98.107179 41.608825 97.802835 
C 41.304481 97.498491 40.891645 97.327489 40.461238 97.327489 
C 40.030831 97.327489 39.617994 97.498491 39.313651 97.802835 
C 39.009307 98.107179 38.838304 98.520016 38.838304 98.950423 
C 38.838304 99.38083 39.009307 99.793666 39.313651 100.09801 
C 39.617994 100.402354 40.030831 100.573356 40.461238 100.573356 
z
" clip-path="url(#pa748ac8790)" style="stroke: #000000"/>
    <path d="M 33.272655 82.491936 
C 33.97809 82.491936 34.654726 82.211664 35.153544 81.712847 
C 35.652361 81.214029 35.932634 80.537392 35.932634 79.831958 
C 35.932634 79.126523 35.652361 78.449887 35.153544 77.951069 
C 34.654726 77.452251 33.97809 77.171979 33.272655 77.171979 
C 32.56722 77.171979 31.890584 77.452251 31.391766 77.951069 
C 30.892949 78.449887 30.612676 79.126523 30.612676 79.831958 
C 30.612676 80.537392 30.892949 81.214029 31.391766 81.712847 
C 31.890584 82.211664 32.56722 82.491936 33.272655 82.491936 
z
" clip-path="url(#pa748ac8790)" style="stroke: #000000"/>
    <path d="M 44.545117 169.25974 
C 45.250551 169.25974 45.927188 168.979468 46.426005 168.48065 
C 46.924823 167.981833 47.205095 167.305196 47.205095 166.599761 
C 47.205095 165.894327 46.924823 165.21769 46.426005 164.718872 
C 45.927188 164.220055 45.250551 163.939783 44.545117 163.939783 
C 43.839682 163.939783 43.163045 164.220055 42.664228 164.718872 
C 42.16541 165.21769 41.885138 165.894327 41.885138 166.599761 
C 41.885138 167.305196 42.16541 167.981833 42.664228 168.48065 
C 43.163045 168.979468 43.839682 169.25974 44.545117 169.25974 
z
" clip-path="url(#pa748ac8790)" style="stroke: #000000"/>
    <path d="M 42.817539 155.3644 
C 43.522973 155.3644 44.19961 155.084127 44.698428 154.58531 
C 45.197245 154.086492 45.477517 153.409856 45.477517 152.704421 
C 45.477517 151.998987 45.197245 151.32235 44.698428 150.823532 
C 44.19961 150.324715 43.522973 150.044443 42.817539 150.044443 
C 42.112104 150.044443 41.435468 150.324715 40.93665 150.823532 
C 40.437832 151.32235 40.15756 151.998987 40.15756 152.704421 
C 40.15756 153.409856 40.437832 154.086492 40.93665 154.58531 
C 41.435468 155.084127 42.112104 155.3644 42.817539 155.3644 
z
" clip-path="url(#pa748ac8790)" style="stroke: #000000"/>
    <path d="M 40.527829 149.344308 
C 41.233263 149.344308 41.9099 149.064036 42.408717 148.565219 
C 42.907535 148.066401 43.187807 147.389764 43.187807 146.68433 
C 43.187807 145.978895 42.907535 145.302259 42.408717 144.803441 
C 41.9099 144.304623 41.233263 144.024351 40.527829 144.024351 
C 39.822394 144.024351 39.145757 144.304623 38.64694 144.803441 
C 38.148122 145.302259 37.86785 145.978895 37.86785 146.68433 
C 37.86785 147.389764 38.148122 148.066401 38.64694 148.565219 
C 39.145757 149.064036 39.822394 149.344308 40.527829 149.344308 
z
" clip-path="url(#pa748ac8790)" style="stroke: #000000"/>
    <path d="M 33.712716 115.404288 
C 34.305728 115.404288 34.874532 115.168681 35.293855 114.749359 
C 35.713178 114.330036 35.948784 113.761232 35.948784 113.16822 
C 35.948784 112.575208 35.713178 112.006404 35.293855 111.587081 
C 34.874532 111.167758 34.305728 110.932152 33.712716 110.932152 
C 33.119704 110.932152 32.5509 111.167758 32.131577 111.587081 
C 31.712254 112.006404 31.476648 112.575208 31.476648 113.16822 
C 31.476648 113.761232 31.712254 114.330036 32.131577 114.749359 
C 32.5509 115.168681 33.119704 115.404288 33.712716 115.404288 
z
" clip-path="url(#pa748ac8790)" style="stroke: #000000"/>
    <path d="M 36.989783 170.347872 
C 37.550619 170.347872 38.088561 170.125049 38.485132 169.728478 
C 38.881703 169.331907 39.104526 168.793966 39.104526 168.23313 
C 39.104526 167.672293 38.881703 167.134352 38.485132 166.737781 
C 38.088561 166.34121 37.550619 166.118387 36.989783 166.118387 
C 36.428947 166.118387 35.891005 166.34121 35.494434 166.737781 
C 35.097863 167.134352 34.875041 167.672293 34.875041 168.23313 
C 34.875041 168.793966 35.097863 169.331907 35.494434 169.728478 
C 35.891005 170.125049 36.428947 170.347872 36.989783 170.347872 
z
" clip-path="url(#pa748ac8790)" style="stroke: #000000"/>
    <path d="M 40.04136 160.512565 
C 40.746794 160.512565 41.423431 160.232293 41.922249 159.733475 
C 42.421066 159.234658 42.701338 158.558021 42.701338 157.852586 
C 42.701338 157.147152 42.421066 156.470515 41.922249 155.971697 
C 41.423431 155.47288 40.746794 155.192608 40.04136 155.192608 
C 39.335925 155.192608 38.659289 155.47288 38.160471 155.971697 
C 37.661653 156.470515 37.381381 157.147152 37.381381 157.852586 
C 37.381381 158.558021 37.661653 159.234658 38.160471 159.733475 
C 38.659289 160.232293 39.335925 160.512565 40.04136 160.512565 
z
" clip-path="url(#pa748ac8790)" style="stroke: #000000"/>
   </g>
   <g id="matplotlib.axis_1">
    <g id="xtick_1">
     <g id="line2d_1">
      <defs>
       <path id="m0c5f63dd84" d="M 0 0 
L 0 3.5 
" style="stroke: #000000; stroke-width: 0.8"/>
      </defs>
      <g>
       <use xlink:href="#m0c5f63dd84" x="18" y="189" style="stroke: #000000; stroke-width: 0.8"/>
      </g>
     </g>
     <g id="text_1">
      <!-- 10 -->
      <g transform="translate(7.447656 203.598437)scale(0.1 -0.1)">
       <defs>
        <path id="DejaVuSans-2212" d="M 678 2272 
L 4684 2272 
L 4684 1741 
L 678 1741 
L 678 2272 
z
" transform="scale(0.015625)"/>
        <path id="DejaVuSans-31" d="M 794 531 
L 1825 531 
L 1825 4091 
L 703 3866 
L 703 4441 
L 1819 4666 
L 2450 4666 
L 2450 531 
L 3481 531 
L 3481 0 
L 794 0 
L 794 531 
z
" transform="scale(0.015625)"/>
        <path id="DejaVuSans-30" d="M 2034 4250 
Q 1547 4250 1301 3770 
Q 1056 3291 1056 2328 
Q 1056 1369 1301 889 
Q 1547 409 2034 409 
Q 2525 409 2770 889 
Q 3016 1369 3016 2328 
Q 3016 3291 2770 3770 
Q 2525 4250 2034 4250 
z
M 2034 4750 
Q 2819 4750 3233 4129 
Q 3647 3509 3647 2328 
Q 3647 1150 3233 529 
Q 2819 -91 2034 -91 
Q 1250 -91 836 529 
Q 422 1150 422 2328 
Q 422 3509 836 4129 
Q 1250 4750 2034 4750 
z
" transform="scale(0.015625)"/>
       </defs>
       <use xlink:href="#DejaVuSans-2212"/>
       <use xlink:href="#DejaVuSans-31" x="83.789062"/>
       <use xlink:href="#DejaVuSans-30" x="147.412109"/>
      </g>
     </g>
    </g>
    <g id="xtick_2">
     <g id="line2d_2">
      <g>
       <use xlink:href="#m0c5f63dd84" x="73.8" y="189" style="stroke: #000000; stroke-width: 0.8"/>
      </g>
     </g>
     <g id="text_2">
      <!-- 0 -->
      <g transform="translate(70.61875 203.598437)scale(0.1 -0.1)">
       <use xlink:href="#DejaVuSans-30"/>
      </g>
     </g>
    </g>
    <g id="xtick_3">
     <g id="line2d_3">
      <g>
       <use xlink:href="#m0c5f63dd84" x="129.6" y="189" style="stroke: #000000; stroke-width: 0.8"/>
      </g>
     </g>
     <g id="text_3">
      <!-- 10 -->
      <g transform="translate(123.2375 203.598437)scale(0.1 -0.1)">
       <use xlink:href="#DejaVuSans-31"/>
       <use xlink:href="#DejaVuSans-30" x="63.623047"/>
      </g>
     </g>
    </g>
   </g>
   <g id="matplotlib.axis_2">
    <g id="ytick_1">
     <g id="line2d_4">
      <defs>
       <path id="mf79ccbd5bf" d="M 0 0 
L -3.5 0 
" style="stroke: #000000; stroke-width: 0.8"/>
      </defs>
      <g>
       <use xlink:href="#mf79ccbd5bf" x="18" y="189" style="stroke: #000000; stroke-width: 0.8"/>
      </g>
     </g>
     <g id="text_4">
      <!-- 15 -->
      <g transform="translate(-10.104688 192.799219)scale(0.1 -0.1)">
       <defs>
        <path id="DejaVuSans-35" d="M 691 4666 
L 3169 4666 
L 3169 4134 
L 1269 4134 
L 1269 2991 
Q 1406 3038 1543 3061 
Q 1681 3084 1819 3084 
Q 2600 3084 3056 2656 
Q 3513 2228 3513 1497 
Q 3513 744 3044 326 
Q 2575 -91 1722 -91 
Q 1428 -91 1123 -41 
Q 819 9 494 109 
L 494 744 
Q 775 591 1075 516 
Q 1375 441 1709 441 
Q 2250 441 2565 725 
Q 2881 1009 2881 1497 
Q 2881 1984 2565 2268 
Q 2250 2553 1709 2553 
Q 1456 2553 1204 2497 
Q 953 2441 691 2322 
L 691 4666 
z
" transform="scale(0.015625)"/>
       </defs>
       <use xlink:href="#DejaVuSans-2212"/>
       <use xlink:href="#DejaVuSans-31" x="83.789062"/>
       <use xlink:href="#DejaVuSans-35" x="147.412109"/>
      </g>
     </g>
    </g>
    <g id="ytick_2">
     <g id="line2d_5">
      <g>
       <use xlink:href="#mf79ccbd5bf" x="18" y="161.82" style="stroke: #000000; stroke-width: 0.8"/>
      </g>
     </g>
     <g id="text_5">
      <!-- 10 -->
      <g transform="translate(-10.104688 165.619219)scale(0.1 -0.1)">
       <use xlink:href="#DejaVuSans-2212"/>
       <use xlink:href="#DejaVuSans-31" x="83.789062"/>
       <use xlink:href="#DejaVuSans-30" x="147.412109"/>
      </g>
     </g>
    </g>
    <g id="ytick_3">
     <g id="line2d_6">
      <g>
       <use xlink:href="#mf79ccbd5bf" x="18" y="134.64" style="stroke: #000000; stroke-width: 0.8"/>
      </g>
     </g>
     <g id="text_6">
      <!-- 5 -->
      <g transform="translate(-3.742188 138.439219)scale(0.1 -0.1)">
       <use xlink:href="#DejaVuSans-2212"/>
       <use xlink:href="#DejaVuSans-35" x="83.789062"/>
      </g>
     </g>
    </g>
    <g id="ytick_4">
     <g id="line2d_7">
      <g>
       <use xlink:href="#mf79ccbd5bf" x="18" y="107.46" style="stroke: #000000; stroke-width: 0.8"/>
      </g>
     </g>
     <g id="text_7">
      <!-- 0 -->
      <g transform="translate(4.6375 111.259219)scale(0.1 -0.1)">
       <use xlink:href="#DejaVuSans-30"/>
      </g>
     </g>
    </g>
    <g id="ytick_5">
     <g id="line2d_8">
      <g>
       <use xlink:href="#mf79ccbd5bf" x="18" y="80.28" style="stroke: #000000; stroke-width: 0.8"/>
      </g>
     </g>
     <g id="text_8">
      <!-- 5 -->
      <g transform="translate(4.6375 84.079219)scale(0.1 -0.1)">
       <use xlink:href="#DejaVuSans-35"/>
      </g>
     </g>
    </g>
    <g id="ytick_6">
     <g id="line2d_9">
      <g>
       <use xlink:href="#mf79ccbd5bf" x="18" y="53.1" style="stroke: #000000; stroke-width: 0.8"/>
      </g>
     </g>
     <g id="text_9">
      <!-- 10 -->
      <g transform="translate(-1.725 56.899219)scale(0.1 -0.1)">
       <use xlink:href="#DejaVuSans-31"/>
       <use xlink:href="#DejaVuSans-30" x="63.623047"/>
      </g>
     </g>
    </g>
    <g id="ytick_7">
     <g id="line2d_10">
      <g>
       <use xlink:href="#mf79ccbd5bf" x="18" y="25.92" style="stroke: #000000; stroke-width: 0.8"/>
      </g>
     </g>
     <g id="text_10">
      <!-- 15 -->
      <g transform="translate(-1.725 29.719219)scale(0.1 -0.1)">
       <use xlink:href="#DejaVuSans-31"/>
       <use xlink:href="#DejaVuSans-35" x="63.623047"/>
      </g>
     </g>
    </g>
   </g>
   <g id="patch_3">
    <path d="M 18 189 
L 18 25.92 
" style="fill: none; stroke: #000000; stroke-width: 0.8; stroke-linejoin: miter; stroke-linecap: square"/>
   </g>
   <g id="patch_4">
    <path d="M 129.6 189 
L 129.6 25.92 
" style="fill: none; stroke: #000000; stroke-width: 0.8; stroke-linejoin: miter; stroke-linecap: square"/>
   </g>
   <g id="patch_5">
    <path d="M 18 189 
L 129.6 189 
" style="fill: none; stroke: #000000; stroke-width: 0.8; stroke-linejoin: miter; stroke-linecap: square"/>
   </g>
   <g id="patch_6">
    <path d="M 18 25.92 
L 129.6 25.92 
" style="fill: none; stroke: #000000; stroke-width: 0.8; stroke-linejoin: miter; stroke-linecap: square"/>
   </g>
  </g>
 </g>
 <defs>
  <clipPath id="pa748ac8790">
   <rect x="18" y="25.92" width="111.6" height="163.08"/>
  </clipPath>
 </defs>
</svg>
