<?xml version="1.0" encoding="utf-8" standalone="no"?>
<!DOCTYPE svg PUBLIC "-//W3C//DTD SVG 1.1//EN"
  "http://www.w3.org/Graphics/SVG/1.1/DTD/svg11.dtd">
<svg xmlns:xlink="http://www.w3.org/1999/xlink" width="144pt" height="216pt" viewBox="0 0 144 216" xmlns="http://www.w3.org/2000/svg" version="1.1">
 <metadata>
  <rdf:RDF xmlns:dc="http://purl.org/dc/elements/1.1/" xmlns:cc="http://creativecommons.org/ns#" xmlns:rdf="http://www.w3.org/1999/02/22-rdf-syntax-ns#">
   <cc:Work>
    <dc:type rdf:resource="http://purl.org/dc/dcmitype/StillImage"/>
    <dc:date>2022-06-23T14:45:22.512560</dc:date>
    <dc:format>image/svg+xml</dc:format>
    <dc:creator>
     <cc:Agent>
      <dc:title>Matplotlib v3.5.1, https://matplotlib.org/</dc:title>
     </cc:Agent>
    </dc:creator>
   </cc:Work>
  </rdf:RDF>
 </metadata>
 <defs>
  <style type="text/css">*{stroke-linejoin: round; stroke-linecap: butt}</style>
 </defs>
 <g id="figure_1">
  <g id="patch_1">
   <path d="M 0 216 
L 144 216 
L 144 0 
L 0 0 
L 0 216 
z
" style="fill: none"/>
  </g>
  <g id="axes_1">
   <g id="patch_2">
    <path d="M 18 189 
L 129.6 189 
L 129.6 25.92 
L 18 25.92 
z
" style="fill: #ffffff"/>
   </g>
   <g id="PathCollection_1">
    <defs>
     <path id="ma57c7df0d6" d="M 0 2.738613 
C 0.726289 2.738613 1.422928 2.450055 1.936492 1.936492 
C 2.450055 1.422928 2.738613 0.726289 2.738613 0 
C 2.738613 -0.726289 2.450055 -1.422928 1.936492 -1.936492 
C 1.422928 -2.450055 0.726289 -2.738613 0 -2.738613 
C -0.726289 -2.738613 -1.422928 -2.450055 -1.936492 -1.936492 
C -2.450055 -1.422928 -2.738613 -0.726289 -2.738613 0 
C -2.738613 0.726289 -2.450055 1.422928 -1.936492 1.936492 
C -1.422928 2.450055 -0.726289 2.738613 0 2.738613 
z
" style="stroke: #ff0000; stroke-width: 1.75"/>
    </defs>
    <g clip-path="url(#pf2b53dcaf3)">
     <use xlink:href="#ma57c7df0d6" x="66.825" y="83.92143" style="fill: #ff0000; stroke: #ff0000; stroke-width: 1.75"/>
     <use xlink:href="#ma57c7df0d6" x="87.75" y="95.690715" style="fill: #ff0000; stroke: #ff0000; stroke-width: 1.75"/>
     <use xlink:href="#ma57c7df0d6" x="66.825" y="107.46" style="fill: #ff0000; stroke: #ff0000; stroke-width: 1.75"/>
     <use xlink:href="#ma57c7df0d6" x="73.8" y="119.229285" style="fill: #ff0000; stroke: #ff0000; stroke-width: 1.75"/>
     <use xlink:href="#ma57c7df0d6" x="87.75" y="119.229285" style="fill: #ff0000; stroke: #ff0000; stroke-width: 1.75"/>
     <use xlink:href="#ma57c7df0d6" x="66.825" y="130.99857" style="fill: #ff0000; stroke: #ff0000; stroke-width: 1.75"/>
     <use xlink:href="#ma57c7df0d6" x="80.775" y="130.99857" style="fill: #ff0000; stroke: #ff0000; stroke-width: 1.75"/>
    </g>
   </g>
   <g id="PathCollection_2">
    <defs>
     <path id="C0_0_d853ea9aae" d="M 0 2.738613 
C 0.726289 2.738613 1.422928 2.450055 1.936492 1.936492 
C 2.450055 1.422928 2.738613 0.726289 2.738613 -0 
C 2.738613 -0.726289 2.450055 -1.422928 1.936492 -1.936492 
C 1.422928 -2.450055 0.726289 -2.738613 0 -2.738613 
C -0.726289 -2.738613 -1.422928 -2.450055 -1.936492 -1.936492 
C -2.450055 -1.422928 -2.738613 -0.726289 -2.738613 0 
C -2.738613 0.726289 -2.450055 1.422928 -1.936492 1.936492 
C -1.422928 2.450055 -0.726289 2.738613 0 2.738613 
z
"/>
    </defs>
    <g clip-path="url(#pf2b53dcaf3)">
     <use xlink:href="#C0_0_d853ea9aae" x="80.775" y="83.92143" style="fill: none; stroke: #ff0000; stroke-width: 1.75"/>
    </g>
    <g clip-path="url(#pf2b53dcaf3)">
     <use xlink:href="#C0_0_d853ea9aae" x="59.85" y="95.690715" style="fill: none; stroke: #ff0000; stroke-width: 1.75"/>
    </g>
    <g clip-path="url(#pf2b53dcaf3)">
     <use xlink:href="#C0_0_d853ea9aae" x="73.8" y="95.690715" style="fill: none; stroke: #ff0000; stroke-width: 1.75"/>
    </g>
    <g clip-path="url(#pf2b53dcaf3)">
     <use xlink:href="#C0_0_d853ea9aae" x="52.875" y="107.46" style="fill: none; stroke: #ff0000; stroke-width: 1.75"/>
    </g>
    <g clip-path="url(#pf2b53dcaf3)">
     <use xlink:href="#C0_0_d853ea9aae" x="80.775" y="107.46" style="fill: none; stroke: #ff0000; stroke-width: 1.75"/>
    </g>
    <g clip-path="url(#pf2b53dcaf3)">
     <use xlink:href="#C0_0_d853ea9aae" x="94.725" y="107.46" style="fill: none; stroke: #ff0000; stroke-width: 1.75"/>
    </g>
    <g clip-path="url(#pf2b53dcaf3)">
     <use xlink:href="#C0_0_d853ea9aae" x="59.85" y="119.229285" style="fill: none; stroke: #ff0000; stroke-width: 1.75"/>
    </g>
   </g>
   <g id="PathCollection_3">
    <path d="M 115.556112 110.123494 
C 115.688713 110.123494 115.815902 110.070811 115.909665 109.977047 
C 116.003429 109.883284 116.056112 109.756095 116.056112 109.623494 
C 116.056112 109.490892 116.003429 109.363704 115.909665 109.26994 
C 115.815902 109.176177 115.688713 109.123494 115.556112 109.123494 
C 115.42351 109.123494 115.296322 109.176177 115.202558 109.26994 
C 115.108795 109.363704 115.056112 109.490892 115.056112 109.623494 
C 115.056112 109.756095 115.108795 109.883284 115.202558 109.977047 
C 115.296322 110.070811 115.42351 110.123494 115.556112 110.123494 
z
" clip-path="url(#pf2b53dcaf3)" style="stroke: #000000"/>
    <path d="M 122.217174 146.728067 
C 122.349776 146.728067 122.476964 146.675384 122.570727 146.581621 
C 122.664491 146.487857 122.717174 146.360669 122.717174 146.228067 
C 122.717174 146.095466 122.664491 145.968278 122.570727 145.874514 
C 122.476964 145.780751 122.349776 145.728067 122.217174 145.728067 
C 122.084572 145.728067 121.957384 145.780751 121.863621 145.874514 
C 121.769857 145.968278 121.717174 146.095466 121.717174 146.228067 
C 121.717174 146.360669 121.769857 146.487857 121.863621 146.581621 
C 121.957384 146.675384 122.084572 146.728067 122.217174 146.728067 
z
" clip-path="url(#pf2b53dcaf3)" style="stroke: #000000"/>
    <path d="M 105.286534 107.478522 
C 105.419135 107.478522 105.546323 107.425839 105.640087 107.332075 
C 105.73385 107.238312 105.786534 107.111124 105.786534 106.978522 
C 105.786534 106.84592 105.73385 106.718732 105.640087 106.624969 
C 105.546323 106.531205 105.419135 106.478522 105.286534 106.478522 
C 105.153932 106.478522 105.026744 106.531205 104.93298 106.624969 
C 104.839217 106.718732 104.786534 106.84592 104.786534 106.978522 
C 104.786534 107.111124 104.839217 107.238312 104.93298 107.332075 
C 105.026744 107.425839 105.153932 107.478522 105.286534 107.478522 
z
" clip-path="url(#pf2b53dcaf3)" style="stroke: #000000"/>
    <path d="M 103.749299 128.962179 
C 103.881901 128.962179 104.009089 128.909496 104.102853 128.815732 
C 104.196616 128.721969 104.249299 128.59478 104.249299 128.462179 
C 104.249299 128.329577 104.196616 128.202389 104.102853 128.108625 
C 104.009089 128.014862 103.881901 127.962179 103.749299 127.962179 
C 103.616698 127.962179 103.489509 128.014862 103.395746 128.108625 
C 103.301982 128.202389 103.249299 128.329577 103.249299 128.462179 
C 103.249299 128.59478 103.301982 128.721969 103.395746 128.815732 
C 103.489509 128.909496 103.616698 128.962179 103.749299 128.962179 
z
" clip-path="url(#pf2b53dcaf3)" style="stroke: #000000"/>
    <path d="M 97.161736 111.83226 
C 97.737316 111.83226 98.289399 111.60358 98.696395 111.196583 
C 99.103392 110.789587 99.332072 110.237503 99.332072 109.661923 
C 99.332072 109.086343 99.103392 108.53426 98.696395 108.127264 
C 98.289399 107.720267 97.737316 107.491587 97.161736 107.491587 
C 96.586156 107.491587 96.034072 107.720267 95.627076 108.127264 
C 95.220079 108.53426 94.991399 109.086343 94.991399 109.661923 
C 94.991399 110.237503 95.220079 110.789587 95.627076 111.196583 
C 96.034072 111.60358 96.586156 111.83226 97.161736 111.83226 
z
" clip-path="url(#pf2b53dcaf3)" style="stroke: #000000"/>
    <path d="M 94.105186 109.667423 
C 94.469535 109.667423 94.81901 109.522666 95.076643 109.265033 
C 95.334277 109.007399 95.479034 108.657924 95.479034 108.293575 
C 95.479034 107.929226 95.334277 107.579751 95.076643 107.322118 
C 94.81901 107.064484 94.469535 106.919727 94.105186 106.919727 
C 93.740837 106.919727 93.391362 107.064484 93.133729 107.322118 
C 92.876095 107.579751 92.731338 107.929226 92.731338 108.293575 
C 92.731338 108.657924 92.876095 109.007399 93.133729 109.265033 
C 93.391362 109.522666 93.740837 109.667423 94.105186 109.667423 
z
" clip-path="url(#pf2b53dcaf3)" style="stroke: #000000"/>
    <path d="M 90.081174 98.632474 
C 90.492958 98.632474 90.887932 98.46887 91.179107 98.177695 
C 91.470282 97.88652 91.633886 97.491546 91.633886 97.079762 
C 91.633886 96.667978 91.470282 96.273005 91.179107 95.981829 
C 90.887932 95.690654 90.492958 95.527051 90.081174 95.527051 
C 89.66939 95.527051 89.274417 95.690654 88.983242 95.981829 
C 88.692066 96.273005 88.528463 96.667978 88.528463 97.079762 
C 88.528463 97.491546 88.692066 97.88652 88.983242 98.177695 
C 89.274417 98.46887 89.66939 98.632474 90.081174 98.632474 
z
" clip-path="url(#pf2b53dcaf3)" style="stroke: #000000"/>
    <path d="M 85.660089 86.623276 
C 85.929342 86.623276 86.187603 86.516301 86.377994 86.32591 
C 86.568385 86.13552 86.67536 85.877258 86.67536 85.608005 
C 86.67536 85.338752 86.568385 85.08049 86.377994 84.890099 
C 86.187603 84.699709 85.929342 84.592733 85.660089 84.592733 
C 85.390835 84.592733 85.132574 84.699709 84.942183 84.890099 
C 84.751792 85.08049 84.644817 85.338752 84.644817 85.608005 
C 84.644817 85.877258 84.751792 86.13552 84.942183 86.32591 
C 85.132574 86.516301 85.390835 86.623276 85.660089 86.623276 
z
" clip-path="url(#pf2b53dcaf3)" style="stroke: #000000"/>
    <path d="M 92.390253 120.030729 
C 92.683748 120.030729 92.965263 119.914122 93.172795 119.70659 
C 93.380328 119.499057 93.496935 119.217543 93.496935 118.924047 
C 93.496935 118.630552 93.380328 118.349038 93.172795 118.141505 
C 92.965263 117.933972 92.683748 117.817365 92.390253 117.817365 
C 92.096757 117.817365 91.815243 117.933972 91.607711 118.141505 
C 91.400178 118.349038 91.283571 118.630552 91.283571 118.924047 
C 91.283571 119.217543 91.400178 119.499057 91.607711 119.70659 
C 91.815243 119.914122 92.096757 120.030729 92.390253 120.030729 
z
" clip-path="url(#pf2b53dcaf3)" style="stroke: #000000"/>
    <path d="M 93.592643 113.890064 
C 93.815651 113.890064 94.029556 113.801462 94.187247 113.643771 
C 94.344937 113.48608 94.433539 113.272176 94.433539 113.049168 
C 94.433539 112.826159 94.344937 112.612255 94.187247 112.454564 
C 94.029556 112.296873 93.815651 112.208271 93.592643 112.208271 
C 93.369635 112.208271 93.15573 112.296873 92.998039 112.454564 
C 92.840349 112.612255 92.751747 112.826159 92.751747 113.049168 
C 92.751747 113.272176 92.840349 113.48608 92.998039 113.643771 
C 93.15573 113.801462 93.369635 113.890064 93.592643 113.890064 
z
" clip-path="url(#pf2b53dcaf3)" style="stroke: #000000"/>
    <path d="M 83.9099 88.809016 
C 84.3837 88.809016 84.838159 88.620773 85.173186 88.285745 
C 85.508214 87.950718 85.696457 87.496259 85.696457 87.022459 
C 85.696457 86.548658 85.508214 86.0942 85.173186 85.759172 
C 84.838159 85.424144 84.3837 85.235902 83.9099 85.235902 
C 83.436099 85.235902 82.981641 85.424144 82.646613 85.759172 
C 82.311586 86.0942 82.123343 86.548658 82.123343 87.022459 
C 82.123343 87.496259 82.311586 87.950718 82.646613 88.285745 
C 82.981641 88.620773 83.436099 88.809016 83.9099 88.809016 
z
" clip-path="url(#pf2b53dcaf3)" style="stroke: #000000"/>
    <path d="M 80.249141 84.145441 
C 80.456674 84.145441 80.655735 84.062988 80.802482 83.91624 
C 80.94923 83.769492 81.031684 83.570432 81.031684 83.362899 
C 81.031684 83.155366 80.94923 82.956306 80.802482 82.809558 
C 80.655735 82.66281 80.456674 82.580357 80.249141 82.580357 
C 80.041609 82.580357 79.842548 82.66281 79.695801 82.809558 
C 79.549053 82.956306 79.466599 83.155366 79.466599 83.362899 
C 79.466599 83.570432 79.549053 83.769492 79.695801 83.91624 
C 79.842548 84.062988 80.041609 84.145441 80.249141 84.145441 
z
" clip-path="url(#pf2b53dcaf3)" style="stroke: #000000"/>
    <path d="M 88.272579 116.652392 
C 88.61602 116.652392 88.945441 116.515941 89.18829 116.273092 
C 89.431139 116.030243 89.56759 115.700822 89.56759 115.357382 
C 89.56759 115.013941 89.431139 114.68452 89.18829 114.441671 
C 88.945441 114.198822 88.61602 114.062372 88.272579 114.062372 
C 87.929139 114.062372 87.599718 114.198822 87.356869 114.441671 
C 87.11402 114.68452 86.977569 115.013941 86.977569 115.357382 
C 86.977569 115.700822 87.11402 116.030243 87.356869 116.273092 
C 87.599718 116.515941 87.929139 116.652392 88.272579 116.652392 
z
" clip-path="url(#pf2b53dcaf3)" style="stroke: #000000"/>
    <path d="M 83.880597 107.875744 
C 84.44747 107.875744 84.9912 107.650524 85.39204 107.249684 
C 85.792879 106.848845 86.0181 106.305114 86.0181 105.738242 
C 86.0181 105.17137 85.792879 104.627639 85.39204 104.2268 
C 84.9912 103.82596 84.44747 103.60074 83.880597 103.60074 
C 83.313725 103.60074 82.769994 103.82596 82.369155 104.2268 
C 81.968316 104.627639 81.743095 105.17137 81.743095 105.738242 
C 81.743095 106.305114 81.968316 106.848845 82.369155 107.249684 
C 82.769994 107.650524 83.313725 107.875744 83.880597 107.875744 
z
" clip-path="url(#pf2b53dcaf3)" style="stroke: #000000"/>
    <path d="M 79.383954 91.955268 
C 79.516555 91.955268 79.643744 91.902585 79.737507 91.808821 
C 79.831271 91.715058 79.883954 91.58787 79.883954 91.455268 
C 79.883954 91.322666 79.831271 91.195478 79.737507 91.101715 
C 79.643744 91.007951 79.516555 90.955268 79.383954 90.955268 
C 79.251352 90.955268 79.124164 91.007951 79.030401 91.101715 
C 78.936637 91.195478 78.883954 91.322666 78.883954 91.455268 
C 78.883954 91.58787 78.936637 91.715058 79.030401 91.808821 
C 79.124164 91.902585 79.251352 91.955268 79.383954 91.955268 
z
" clip-path="url(#pf2b53dcaf3)" style="stroke: #000000"/>
    <path d="M 85.970947 119.475819 
C 86.275974 119.475819 86.568549 119.35463 86.784235 119.138944 
C 86.999922 118.923257 87.12111 118.630682 87.12111 118.325655 
C 87.12111 118.020628 86.999922 117.728054 86.784235 117.512367 
C 86.568549 117.29668 86.275974 117.175492 85.970947 117.175492 
C 85.66592 117.175492 85.373345 117.29668 85.157659 117.512367 
C 84.941972 117.728054 84.820784 118.020628 84.820784 118.325655 
C 84.820784 118.630682 84.941972 118.923257 85.157659 119.138944 
C 85.373345 119.35463 85.66592 119.475819 85.970947 119.475819 
z
" clip-path="url(#pf2b53dcaf3)" style="stroke: #000000"/>
    <path d="M 80.210445 109.148139 
C 80.692735 109.148139 81.155336 108.956523 81.496366 108.615493 
C 81.837397 108.274462 82.029013 107.811861 82.029013 107.329571 
C 82.029013 106.847281 81.837397 106.38468 81.496366 106.043649 
C 81.155336 105.702619 80.692735 105.511003 80.210445 105.511003 
C 79.728155 105.511003 79.265554 105.702619 78.924523 106.043649 
C 78.583493 106.38468 78.391877 106.847281 78.391877 107.329571 
C 78.391877 107.811861 78.583493 108.274462 78.924523 108.615493 
C 79.265554 108.956523 79.728155 109.148139 80.210445 109.148139 
z
" clip-path="url(#pf2b53dcaf3)" style="stroke: #000000"/>
    <path d="M 75.139463 95.894366 
C 75.717859 95.894366 76.272644 95.664567 76.681632 95.255579 
C 77.090621 94.84659 77.32042 94.291806 77.32042 93.713409 
C 77.32042 93.135012 77.090621 92.580227 76.681632 92.171239 
C 76.272644 91.762251 75.717859 91.532452 75.139463 91.532452 
C 74.561066 91.532452 74.006281 91.762251 73.597293 92.171239 
C 73.188305 92.580227 72.958505 93.135012 72.958505 93.713409 
C 72.958505 94.291806 73.188305 94.84659 73.597293 95.255579 
C 74.006281 95.664567 74.561066 95.894366 75.139463 95.894366 
z
" clip-path="url(#pf2b53dcaf3)" style="stroke: #000000"/>
    <path d="M 72.723927 87.39138 
C 73.147381 87.39138 73.55355 87.22314 73.852977 86.923712 
C 74.152405 86.624284 74.320645 86.218116 74.320645 85.794662 
C 74.320645 85.371207 74.152405 84.965039 73.852977 84.665611 
C 73.55355 84.366183 73.147381 84.197943 72.723927 84.197943 
C 72.300472 84.197943 71.894304 84.366183 71.594876 84.665611 
C 71.295449 84.965039 71.127208 85.371207 71.127208 85.794662 
C 71.127208 86.218116 71.295449 86.624284 71.594876 86.923712 
C 71.894304 87.22314 72.300472 87.39138 72.723927 87.39138 
z
" clip-path="url(#pf2b53dcaf3)" style="stroke: #000000"/>
    <path d="M 84.045461 134.681836 
C 84.281264 134.681836 84.50744 134.588151 84.674178 134.421413 
C 84.840916 134.254676 84.934601 134.028499 84.934601 133.792697 
C 84.934601 133.556894 84.840916 133.330718 84.674178 133.16398 
C 84.50744 132.997242 84.281264 132.903557 84.045461 132.903557 
C 83.809659 132.903557 83.583482 132.997242 83.416745 133.16398 
C 83.250007 133.330718 83.156322 133.556894 83.156322 133.792697 
C 83.156322 134.028499 83.250007 134.254676 83.416745 134.421413 
C 83.583482 134.588151 83.809659 134.681836 84.045461 134.681836 
z
" clip-path="url(#pf2b53dcaf3)" style="stroke: #000000"/>
    <path d="M 83.563194 132.020243 
C 83.969328 132.020243 84.358883 131.858884 84.646063 131.571704 
C 84.933243 131.284524 85.094602 130.89497 85.094602 130.488836 
C 85.094602 130.082702 84.933243 129.693148 84.646063 129.405968 
C 84.358883 129.118788 83.969328 128.957429 83.563194 128.957429 
C 83.157061 128.957429 82.767506 129.118788 82.480326 129.405968 
C 82.193146 129.693148 82.031787 130.082702 82.031787 130.488836 
C 82.031787 130.89497 82.193146 131.284524 82.480326 131.571704 
C 82.767506 131.858884 83.157061 132.020243 83.563194 132.020243 
z
" clip-path="url(#pf2b53dcaf3)" style="stroke: #000000"/>
    <path d="M 72.099254 95.398159 
C 72.627051 95.398159 73.133302 95.188463 73.506511 94.815254 
C 73.87972 94.442045 74.089416 93.935794 74.089416 93.407997 
C 74.089416 92.8802 73.87972 92.373949 73.506511 92.00074 
C 73.133302 91.627531 72.627051 91.417835 72.099254 91.417835 
C 71.571457 91.417835 71.065206 91.627531 70.691997 92.00074 
C 70.318788 92.373949 70.109092 92.8802 70.109092 93.407997 
C 70.109092 93.935794 70.318788 94.442045 70.691997 94.815254 
C 71.065206 95.188463 71.571457 95.398159 72.099254 95.398159 
z
" clip-path="url(#pf2b53dcaf3)" style="stroke: #000000"/>
    <path d="M 67.590059 89.120304 
C 68.097818 89.120304 68.58485 88.918569 68.94389 88.559529 
C 69.30293 88.200489 69.504665 87.713457 69.504665 87.205697 
C 69.504665 86.697938 69.30293 86.210906 68.94389 85.851866 
C 68.58485 85.492826 68.097818 85.291091 67.590059 85.291091 
C 67.082299 85.291091 66.595267 85.492826 66.236227 85.851866 
C 65.877187 86.210906 65.675452 86.697938 65.675452 87.205697 
C 65.675452 87.713457 65.877187 88.200489 66.236227 88.559529 
C 66.595267 88.918569 67.082299 89.120304 67.590059 89.120304 
z
" clip-path="url(#pf2b53dcaf3)" style="stroke: #000000"/>
    <path d="M 65.948755 86.744713 
C 66.431044 86.744713 66.893646 86.553098 67.234676 86.212067 
C 67.575707 85.871037 67.767323 85.408435 67.767323 84.926146 
C 67.767323 84.443856 67.575707 83.981254 67.234676 83.640224 
C 66.893646 83.299193 66.431044 83.107578 65.948755 83.107578 
C 65.466465 83.107578 65.003863 83.299193 64.662833 83.640224 
C 64.321803 83.981254 64.130187 84.443856 64.130187 84.926146 
C 64.130187 85.408435 64.321803 85.871037 64.662833 86.212067 
C 65.003863 86.553098 65.466465 86.744713 65.948755 86.744713 
z
" clip-path="url(#pf2b53dcaf3)" style="stroke: #000000"/>
    <path d="M 63.066737 73.149625 
C 63.199338 73.149625 63.326527 73.096942 63.42029 73.003179 
C 63.514054 72.909415 63.566737 72.782227 63.566737 72.649625 
C 63.566737 72.517024 63.514054 72.389835 63.42029 72.296072 
C 63.326527 72.202309 63.199338 72.149625 63.066737 72.149625 
C 62.934135 72.149625 62.806947 72.202309 62.713183 72.296072 
C 62.61942 72.389835 62.566737 72.517024 62.566737 72.649625 
C 62.566737 72.782227 62.61942 72.909415 62.713183 73.003179 
C 62.806947 73.096942 62.934135 73.149625 63.066737 73.149625 
z
" clip-path="url(#pf2b53dcaf3)" style="stroke: #000000"/>
    <path d="M 80.700023 136.132683 
C 80.941512 136.132683 81.173142 136.036739 81.343901 135.865981 
C 81.514659 135.695222 81.610603 135.463592 81.610603 135.222103 
C 81.610603 134.980615 81.514659 134.748984 81.343901 134.578226 
C 81.173142 134.407468 80.941512 134.311523 80.700023 134.311523 
C 80.458535 134.311523 80.226904 134.407468 80.056146 134.578226 
C 79.885388 134.748984 79.789443 134.980615 79.789443 135.222103 
C 79.789443 135.463592 79.885388 135.695222 80.056146 135.865981 
C 80.226904 136.036739 80.458535 136.132683 80.700023 136.132683 
z
" clip-path="url(#pf2b53dcaf3)" style="stroke: #000000"/>
    <path d="M 80.414054 132.114687 
C 80.929321 132.114687 81.423554 131.909969 81.787902 131.54562 
C 82.152251 131.181271 82.356969 130.687039 82.356969 130.171772 
C 82.356969 129.656505 82.152251 129.162273 81.787902 128.797924 
C 81.423554 128.433575 80.929321 128.228857 80.414054 128.228857 
C 79.898787 128.228857 79.404555 128.433575 79.040206 128.797924 
C 78.675858 129.162273 78.47114 129.656505 78.47114 130.171772 
C 78.47114 130.687039 78.675858 131.181271 79.040206 131.54562 
C 79.404555 131.909969 79.898787 132.114687 80.414054 132.114687 
z
" clip-path="url(#pf2b53dcaf3)" style="stroke: #000000"/>
    <path d="M 72.392261 115.11994 
C 72.549952 115.11994 72.701205 115.057289 72.81271 114.945785 
C 72.924214 114.834281 72.986865 114.683027 72.986865 114.525337 
C 72.986865 114.367646 72.924214 114.216393 72.81271 114.104888 
C 72.701205 113.993384 72.549952 113.930733 72.392261 113.930733 
C 72.234571 113.930733 72.083317 113.993384 71.971813 114.104888 
C 71.860309 114.216393 71.797658 114.367646 71.797658 114.525337 
C 71.797658 114.683027 71.860309 114.834281 71.971813 114.945785 
C 72.083317 115.057289 72.234571 115.11994 72.392261 115.11994 
z
" clip-path="url(#pf2b53dcaf3)" style="stroke: #000000"/>
    <path d="M 68.575789 106.412035 
C 68.915349 106.412035 69.241046 106.277127 69.481151 106.037022 
C 69.721256 105.796918 69.856164 105.47122 69.856164 105.131661 
C 69.856164 104.792101 69.721256 104.466404 69.481151 104.226299 
C 69.241046 103.986194 68.915349 103.851286 68.575789 103.851286 
C 68.23623 103.851286 67.910532 103.986194 67.670428 104.226299 
C 67.430323 104.466404 67.295415 104.792101 67.295415 105.131661 
C 67.295415 105.47122 67.430323 105.796918 67.670428 106.037022 
C 67.910532 106.277127 68.23623 106.412035 68.575789 106.412035 
z
" clip-path="url(#pf2b53dcaf3)" style="stroke: #000000"/>
    <path d="M 66.401929 112.260284 
C 66.825384 112.260284 67.231552 112.092044 67.530979 111.792616 
C 67.830407 111.493188 67.998647 111.08702 67.998647 110.663566 
C 67.998647 110.240111 67.830407 109.833943 67.530979 109.534515 
C 67.231552 109.235088 66.825384 109.066847 66.401929 109.066847 
C 65.978474 109.066847 65.572306 109.235088 65.272879 109.534515 
C 64.973451 109.833943 64.805211 110.240111 64.805211 110.663566 
C 64.805211 111.08702 64.973451 111.493188 65.272879 111.792616 
C 65.572306 112.092044 65.978474 112.260284 66.401929 112.260284 
z
" clip-path="url(#pf2b53dcaf3)" style="stroke: #000000"/>
    <path d="M 64.90069 108.791916 
C 65.256771 108.791916 65.598316 108.650443 65.850104 108.398655 
C 66.101892 108.146868 66.243364 107.805322 66.243364 107.449241 
C 66.243364 107.093159 66.101892 106.751614 65.850104 106.499826 
C 65.598316 106.248039 65.256771 106.106566 64.90069 106.106566 
C 64.544608 106.106566 64.203063 106.248039 63.951275 106.499826 
C 63.699487 106.751614 63.558015 107.093159 63.558015 107.449241 
C 63.558015 107.805322 63.699487 108.146868 63.951275 108.398655 
C 64.203063 108.650443 64.544608 108.791916 64.90069 108.791916 
z
" clip-path="url(#pf2b53dcaf3)" style="stroke: #000000"/>
    <path d="M 67.749584 131.872289 
C 67.965271 131.872289 68.172152 131.786595 68.324666 131.634082 
C 68.477179 131.481569 68.562872 131.274687 68.562872 131.059 
C 68.562872 130.843314 68.477179 130.636432 68.324666 130.483919 
C 68.172152 130.331405 67.965271 130.245712 67.749584 130.245712 
C 67.533898 130.245712 67.327016 130.331405 67.174503 130.483919 
C 67.021989 130.636432 66.936296 130.843314 66.936296 131.059 
C 66.936296 131.274687 67.021989 131.481569 67.174503 131.634082 
C 67.327016 131.786595 67.533898 131.872289 67.749584 131.872289 
z
" clip-path="url(#pf2b53dcaf3)" style="stroke: #000000"/>
    <path d="M 62.60315 130.488155 
C 63.012702 130.488155 63.405534 130.325438 63.695131 130.035842 
C 63.984728 129.746245 64.147445 129.353412 64.147445 128.94386 
C 64.147445 128.534308 63.984728 128.141475 63.695131 127.851878 
C 63.405534 127.562281 63.012702 127.399565 62.60315 127.399565 
C 62.193598 127.399565 61.800765 127.562281 61.511168 127.851878 
C 61.221571 128.141475 61.058854 128.534308 61.058854 128.94386 
C 61.058854 129.353412 61.221571 129.746245 61.511168 130.035842 
C 61.800765 130.325438 62.193598 130.488155 62.60315 130.488155 
z
" clip-path="url(#pf2b53dcaf3)" style="stroke: #000000"/>
    <path d="M 59.564859 125.029227 
C 60.131731 125.029227 60.675462 124.804006 61.076301 124.403167 
C 61.47714 124.002328 61.702361 123.458597 61.702361 122.891725 
C 61.702361 122.324853 61.47714 121.781122 61.076301 121.380282 
C 60.675462 120.979443 60.131731 120.754222 59.564859 120.754222 
C 58.997986 120.754222 58.454255 120.979443 58.053416 121.380282 
C 57.652577 121.781122 57.427356 122.324853 57.427356 122.891725 
C 57.427356 123.458597 57.652577 124.002328 58.053416 124.403167 
C 58.454255 124.804006 58.997986 125.029227 59.564859 125.029227 
z
" clip-path="url(#pf2b53dcaf3)" style="stroke: #000000"/>
    <path d="M 58.528714 120.373297 
C 58.908088 120.373297 59.271974 120.222571 59.540232 119.954313 
C 59.80849 119.686055 59.959217 119.322168 59.959217 118.942795 
C 59.959217 118.563421 59.80849 118.199534 59.540232 117.931276 
C 59.271974 117.663019 58.908088 117.512292 58.528714 117.512292 
C 58.14934 117.512292 57.785453 117.663019 57.517196 117.931276 
C 57.248938 118.199534 57.098211 118.563421 57.098211 118.942795 
C 57.098211 119.322168 57.248938 119.686055 57.517196 119.954313 
C 57.785453 120.222571 58.14934 120.373297 58.528714 120.373297 
z
" clip-path="url(#pf2b53dcaf3)" style="stroke: #000000"/>
    <path d="M 52.92418 107.559588 
C 53.434285 107.559588 53.923567 107.356922 54.284265 106.996223 
C 54.644964 106.635524 54.847631 106.146243 54.847631 105.636138 
C 54.847631 105.126033 54.644964 104.636752 54.284265 104.276053 
C 53.923567 103.915354 53.434285 103.712687 52.92418 103.712687 
C 52.414075 103.712687 51.924794 103.915354 51.564095 104.276053 
C 51.203397 104.636752 51.00073 105.126033 51.00073 105.636138 
C 51.00073 106.146243 51.203397 106.635524 51.564095 106.996223 
C 51.924794 107.356922 52.414075 107.559588 52.92418 107.559588 
z
" clip-path="url(#pf2b53dcaf3)" style="stroke: #000000"/>
    <path d="M 50.988768 110.06809 
C 51.265613 110.06809 51.531157 109.958098 51.726916 109.762339 
C 51.922675 109.56658 52.032667 109.301036 52.032667 109.024191 
C 52.032667 108.747346 51.922675 108.481802 51.726916 108.286043 
C 51.531157 108.090284 51.265613 107.980292 50.988768 107.980292 
C 50.711923 107.980292 50.446379 108.090284 50.25062 108.286043 
C 50.054861 108.481802 49.944869 108.747346 49.944869 109.024191 
C 49.944869 109.301036 50.054861 109.56658 50.25062 109.762339 
C 50.446379 109.958098 50.711923 110.06809 50.988768 110.06809 
z
" clip-path="url(#pf2b53dcaf3)" style="stroke: #000000"/>
   </g>
   <g id="matplotlib.axis_1">
    <g id="xtick_1">
     <g id="line2d_1">
      <defs>
       <path id="mfd20f5baa4" d="M 0 0 
L 0 3.5 
" style="stroke: #000000; stroke-width: 0.8"/>
      </defs>
      <g>
       <use xlink:href="#mfd20f5baa4" x="18" y="189" style="stroke: #000000; stroke-width: 0.8"/>
      </g>
     </g>
     <g id="text_1">
      <!-- −10 -->
      <g transform="translate(7.447656 203.598437)scale(0.1 -0.1)">
       <defs>
        <path id="DejaVuSans-2212" d="M 678 2272 
L 4684 2272 
L 4684 1741 
L 678 1741 
L 678 2272 
z
" transform="scale(0.015625)"/>
        <path id="DejaVuSans-31" d="M 794 531 
L 1825 531 
L 1825 4091 
L 703 3866 
L 703 4441 
L 1819 4666 
L 2450 4666 
L 2450 531 
L 3481 531 
L 3481 0 
L 794 0 
L 794 531 
z
" transform="scale(0.015625)"/>
        <path id="DejaVuSans-30" d="M 2034 4250 
Q 1547 4250 1301 3770 
Q 1056 3291 1056 2328 
Q 1056 1369 1301 889 
Q 1547 409 2034 409 
Q 2525 409 2770 889 
Q 3016 1369 3016 2328 
Q 3016 3291 2770 3770 
Q 2525 4250 2034 4250 
z
M 2034 4750 
Q 2819 4750 3233 4129 
Q 3647 3509 3647 2328 
Q 3647 1150 3233 529 
Q 2819 -91 2034 -91 
Q 1250 -91 836 529 
Q 422 1150 422 2328 
Q 422 3509 836 4129 
Q 1250 4750 2034 4750 
z
" transform="scale(0.015625)"/>
       </defs>
       <use xlink:href="#DejaVuSans-2212"/>
       <use xlink:href="#DejaVuSans-31" x="83.789062"/>
       <use xlink:href="#DejaVuSans-30" x="147.412109"/>
      </g>
     </g>
    </g>
    <g id="xtick_2">
     <g id="line2d_2">
      <g>
       <use xlink:href="#mfd20f5baa4" x="73.8" y="189" style="stroke: #000000; stroke-width: 0.8"/>
      </g>
     </g>
     <g id="text_2">
      <!-- 0 -->
      <g transform="translate(70.61875 203.598437)scale(0.1 -0.1)">
       <use xlink:href="#DejaVuSans-30"/>
      </g>
     </g>
    </g>
    <g id="xtick_3">
     <g id="line2d_3">
      <g>
       <use xlink:href="#mfd20f5baa4" x="129.6" y="189" style="stroke: #000000; stroke-width: 0.8"/>
      </g>
     </g>
     <g id="text_3">
      <!-- 10 -->
      <g transform="translate(123.2375 203.598437)scale(0.1 -0.1)">
       <use xlink:href="#DejaVuSans-31"/>
       <use xlink:href="#DejaVuSans-30" x="63.623047"/>
      </g>
     </g>
    </g>
   </g>
   <g id="matplotlib.axis_2">
    <g id="ytick_1">
     <g id="line2d_4">
      <defs>
       <path id="mdf74a939d0" d="M 0 0 
L -3.5 0 
" style="stroke: #000000; stroke-width: 0.8"/>
      </defs>
      <g>
       <use xlink:href="#mdf74a939d0" x="18" y="189" style="stroke: #000000; stroke-width: 0.8"/>
      </g>
     </g>
     <g id="text_4">
      <!-- −15 -->
      <g transform="translate(-10.104688 192.799219)scale(0.1 -0.1)">
       <defs>
        <path id="DejaVuSans-35" d="M 691 4666 
L 3169 4666 
L 3169 4134 
L 1269 4134 
L 1269 2991 
Q 1406 3038 1543 3061 
Q 1681 3084 1819 3084 
Q 2600 3084 3056 2656 
Q 3513 2228 3513 1497 
Q 3513 744 3044 326 
Q 2575 -91 1722 -91 
Q 1428 -91 1123 -41 
Q 819 9 494 109 
L 494 744 
Q 775 591 1075 516 
Q 1375 441 1709 441 
Q 2250 441 2565 725 
Q 2881 1009 2881 1497 
Q 2881 1984 2565 2268 
Q 2250 2553 1709 2553 
Q 1456 2553 1204 2497 
Q 953 2441 691 2322 
L 691 4666 
z
" transform="scale(0.015625)"/>
       </defs>
       <use xlink:href="#DejaVuSans-2212"/>
       <use xlink:href="#DejaVuSans-31" x="83.789062"/>
       <use xlink:href="#DejaVuSans-35" x="147.412109"/>
      </g>
     </g>
    </g>
    <g id="ytick_2">
     <g id="line2d_5">
      <g>
       <use xlink:href="#mdf74a939d0" x="18" y="161.82" style="stroke: #000000; stroke-width: 0.8"/>
      </g>
     </g>
     <g id="text_5">
      <!-- −10 -->
      <g transform="translate(-10.104688 165.619219)scale(0.1 -0.1)">
       <use xlink:href="#DejaVuSans-2212"/>
       <use xlink:href="#DejaVuSans-31" x="83.789062"/>
       <use xlink:href="#DejaVuSans-30" x="147.412109"/>
      </g>
     </g>
    </g>
    <g id="ytick_3">
     <g id="line2d_6">
      <g>
       <use xlink:href="#mdf74a939d0" x="18" y="134.64" style="stroke: #000000; stroke-width: 0.8"/>
      </g>
     </g>
     <g id="text_6">
      <!-- −5 -->
      <g transform="translate(-3.742188 138.439219)scale(0.1 -0.1)">
       <use xlink:href="#DejaVuSans-2212"/>
       <use xlink:href="#DejaVuSans-35" x="83.789062"/>
      </g>
     </g>
    </g>
    <g id="ytick_4">
     <g id="line2d_7">
      <g>
       <use xlink:href="#mdf74a939d0" x="18" y="107.46" style="stroke: #000000; stroke-width: 0.8"/>
      </g>
     </g>
     <g id="text_7">
      <!-- 0 -->
      <g transform="translate(4.6375 111.259219)scale(0.1 -0.1)">
       <use xlink:href="#DejaVuSans-30"/>
      </g>
     </g>
    </g>
    <g id="ytick_5">
     <g id="line2d_8">
      <g>
       <use xlink:href="#mdf74a939d0" x="18" y="80.28" style="stroke: #000000; stroke-width: 0.8"/>
      </g>
     </g>
     <g id="text_8">
      <!-- 5 -->
      <g transform="translate(4.6375 84.079219)scale(0.1 -0.1)">
       <use xlink:href="#DejaVuSans-35"/>
      </g>
     </g>
    </g>
    <g id="ytick_6">
     <g id="line2d_9">
      <g>
       <use xlink:href="#mdf74a939d0" x="18" y="53.1" style="stroke: #000000; stroke-width: 0.8"/>
      </g>
     </g>
     <g id="text_9">
      <!-- 10 -->
      <g transform="translate(-1.725 56.899219)scale(0.1 -0.1)">
       <use xlink:href="#DejaVuSans-31"/>
       <use xlink:href="#DejaVuSans-30" x="63.623047"/>
      </g>
     </g>
    </g>
    <g id="ytick_7">
     <g id="line2d_10">
      <g>
       <use xlink:href="#mdf74a939d0" x="18" y="25.92" style="stroke: #000000; stroke-width: 0.8"/>
      </g>
     </g>
     <g id="text_10">
      <!-- 15 -->
      <g transform="translate(-1.725 29.719219)scale(0.1 -0.1)">
       <use xlink:href="#DejaVuSans-31"/>
       <use xlink:href="#DejaVuSans-35" x="63.623047"/>
      </g>
     </g>
    </g>
   </g>
   <g id="patch_3">
    <path d="M 18 189 
L 18 25.92 
" style="fill: none; stroke: #000000; stroke-width: 0.8; stroke-linejoin: miter; stroke-linecap: square"/>
   </g>
   <g id="patch_4">
    <path d="M 129.6 189 
L 129.6 25.92 
" style="fill: none; stroke: #000000; stroke-width: 0.8; stroke-linejoin: miter; stroke-linecap: square"/>
   </g>
   <g id="patch_5">
    <path d="M 18 189 
L 129.6 189 
" style="fill: none; stroke: #000000; stroke-width: 0.8; stroke-linejoin: miter; stroke-linecap: square"/>
   </g>
   <g id="patch_6">
    <path d="M 18 25.92 
L 129.6 25.92 
" style="fill: none; stroke: #000000; stroke-width: 0.8; stroke-linejoin: miter; stroke-linecap: square"/>
   </g>
  </g>
 </g>
 <defs>
  <clipPath id="pf2b53dcaf3">
   <rect x="18" y="25.92" width="111.6" height="163.08"/>
  </clipPath>
 </defs>
</svg>
