<?xml version="1.0" encoding="utf-8" standalone="no"?>
<!DOCTYPE svg PUBLIC "-//W3C//DTD SVG 1.1//EN"
  "http://www.w3.org/Graphics/SVG/1.1/DTD/svg11.dtd">
<svg xmlns:xlink="http://www.w3.org/1999/xlink" width="144pt" height="216pt" viewBox="0 0 144 216" xmlns="http://www.w3.org/2000/svg" version="1.1">
 <metadata>
  <rdf:RDF xmlns:dc="http://purl.org/dc/elements/1.1/" xmlns:cc="http://creativecommons.org/ns#" xmlns:rdf="http://www.w3.org/1999/02/22-rdf-syntax-ns#">
   <cc:Work>
    <dc:type rdf:resource="http://purl.org/dc/dcmitype/StillImage"/>
    <dc:date>2022-06-28T09:17:15.312051</dc:date>
    <dc:format>image/svg+xml</dc:format>
    <dc:creator>
     <cc:Agent>
      <dc:title>Matplotlib v3.5.1, https://matplotlib.org/</dc:title>
     </cc:Agent>
    </dc:creator>
   </cc:Work>
  </rdf:RDF>
 </metadata>
 <defs>
  <style type="text/css">*{stroke-linejoin: round; stroke-linecap: butt}</style>
 </defs>
 <g id="figure_1">
  <g id="patch_1">
   <path d="M 0 216 
L 144 216 
L 144 0 
L 0 0 
L 0 216 
z
" style="fill: none"/>
  </g>
  <g id="axes_1">
   <g id="patch_2">
    <path d="M 18 189 
L 129.6 189 
L 129.6 25.92 
L 18 25.92 
z
" style="fill: #ffffff"/>
   </g>
   <g id="PathCollection_1">
    <defs>
     <path id="mb0745fbc86" d="M 0 2.738613 
C 0.726289 2.738613 1.422928 2.450055 1.936492 1.936492 
C 2.450055 1.422928 2.738613 0.726289 2.738613 0 
C 2.738613 -0.726289 2.450055 -1.422928 1.936492 -1.936492 
C 1.422928 -2.450055 0.726289 -2.738613 0 -2.738613 
C -0.726289 -2.738613 -1.422928 -2.450055 -1.936492 -1.936492 
C -2.450055 -1.422928 -2.738613 -0.726289 -2.738613 0 
C -2.738613 0.726289 -2.450055 1.422928 -1.936492 1.936492 
C -1.422928 2.450055 -0.726289 2.738613 0 2.738613 
z
" style="stroke: #ff0000; stroke-width: 1.75"/>
    </defs>
    <g clip-path="url(#p1a08a15acf)">
     <use xlink:href="#mb0745fbc86" x="80.775" y="83.92143" style="fill: #ff0000; stroke: #ff0000; stroke-width: 1.75"/>
     <use xlink:href="#mb0745fbc86" x="59.85" y="95.690715" style="fill: #ff0000; stroke: #ff0000; stroke-width: 1.75"/>
     <use xlink:href="#mb0745fbc86" x="66.825" y="107.46" style="fill: #ff0000; stroke: #ff0000; stroke-width: 1.75"/>
     <use xlink:href="#mb0745fbc86" x="80.775" y="107.46" style="fill: #ff0000; stroke: #ff0000; stroke-width: 1.75"/>
     <use xlink:href="#mb0745fbc86" x="94.725" y="107.46" style="fill: #ff0000; stroke: #ff0000; stroke-width: 1.75"/>
     <use xlink:href="#mb0745fbc86" x="59.85" y="119.229285" style="fill: #ff0000; stroke: #ff0000; stroke-width: 1.75"/>
     <use xlink:href="#mb0745fbc86" x="80.775" y="130.99857" style="fill: #ff0000; stroke: #ff0000; stroke-width: 1.75"/>
    </g>
   </g>
   <g id="PathCollection_2">
    <defs>
     <path id="C0_0_5adbe30242" d="M 0 2.738613 
C 0.726289 2.738613 1.422928 2.450055 1.936492 1.936492 
C 2.450055 1.422928 2.738613 0.726289 2.738613 -0 
C 2.738613 -0.726289 2.450055 -1.422928 1.936492 -1.936492 
C 1.422928 -2.450055 0.726289 -2.738613 0 -2.738613 
C -0.726289 -2.738613 -1.422928 -2.450055 -1.936492 -1.936492 
C -2.450055 -1.422928 -2.738613 -0.726289 -2.738613 0 
C -2.738613 0.726289 -2.450055 1.422928 -1.936492 1.936492 
C -1.422928 2.450055 -0.726289 2.738613 0 2.738613 
z
"/>
    </defs>
    <g clip-path="url(#p1a08a15acf)">
     <use xlink:href="#C0_0_5adbe30242" x="66.825" y="83.92143" style="fill: none; stroke: #ff0000; stroke-width: 1.75"/>
    </g>
    <g clip-path="url(#p1a08a15acf)">
     <use xlink:href="#C0_0_5adbe30242" x="73.8" y="95.690715" style="fill: none; stroke: #ff0000; stroke-width: 1.75"/>
    </g>
    <g clip-path="url(#p1a08a15acf)">
     <use xlink:href="#C0_0_5adbe30242" x="87.75" y="95.690715" style="fill: none; stroke: #ff0000; stroke-width: 1.75"/>
    </g>
    <g clip-path="url(#p1a08a15acf)">
     <use xlink:href="#C0_0_5adbe30242" x="52.875" y="107.46" style="fill: none; stroke: #ff0000; stroke-width: 1.75"/>
    </g>
    <g clip-path="url(#p1a08a15acf)">
     <use xlink:href="#C0_0_5adbe30242" x="73.8" y="119.229285" style="fill: none; stroke: #ff0000; stroke-width: 1.75"/>
    </g>
    <g clip-path="url(#p1a08a15acf)">
     <use xlink:href="#C0_0_5adbe30242" x="87.75" y="119.229285" style="fill: none; stroke: #ff0000; stroke-width: 1.75"/>
    </g>
    <g clip-path="url(#p1a08a15acf)">
     <use xlink:href="#C0_0_5adbe30242" x="66.825" y="130.99857" style="fill: none; stroke: #ff0000; stroke-width: 1.75"/>
    </g>
   </g>
   <g id="PathCollection_3">
    <path d="M 112.966674 101.521756 
C 113.099276 101.521756 113.226464 101.469073 113.320227 101.375309 
C 113.413991 101.281546 113.466674 101.154358 113.466674 101.021756 
C 113.466674 100.889154 113.413991 100.761966 113.320227 100.668203 
C 113.226464 100.574439 113.099276 100.521756 112.966674 100.521756 
C 112.834072 100.521756 112.706884 100.574439 112.613121 100.668203 
C 112.519357 100.761966 112.466674 100.889154 112.466674 101.021756 
C 112.466674 101.154358 112.519357 101.281546 112.613121 101.375309 
C 112.706884 101.469073 112.834072 101.521756 112.966674 101.521756 
z
" clip-path="url(#p1a08a15acf)" style="stroke: #000000"/>
    <path d="M 102.428728 74.271011 
C 102.561329 74.271011 102.688518 74.218328 102.782281 74.124565 
C 102.876044 74.030801 102.928728 73.903613 102.928728 73.771011 
C 102.928728 73.63841 102.876044 73.511221 102.782281 73.417458 
C 102.688518 73.323694 102.561329 73.271011 102.428728 73.271011 
C 102.296126 73.271011 102.168938 73.323694 102.075174 73.417458 
C 101.981411 73.511221 101.928728 73.63841 101.928728 73.771011 
C 101.928728 73.903613 101.981411 74.030801 102.075174 74.124565 
C 102.168938 74.218328 102.296126 74.271011 102.428728 74.271011 
z
" clip-path="url(#p1a08a15acf)" style="stroke: #000000"/>
    <path d="M 108.020255 102.949209 
C 108.177946 102.949209 108.329199 102.886558 108.440703 102.775054 
C 108.552207 102.66355 108.614859 102.512296 108.614859 102.354606 
C 108.614859 102.196915 108.552207 102.045662 108.440703 101.934158 
C 108.329199 101.822653 108.177946 101.760002 108.020255 101.760002 
C 107.862564 101.760002 107.711311 101.822653 107.599807 101.934158 
C 107.488303 102.045662 107.425651 102.196915 107.425651 102.354606 
C 107.425651 102.512296 107.488303 102.66355 107.599807 102.775054 
C 107.711311 102.886558 107.862564 102.949209 108.020255 102.949209 
z
" clip-path="url(#p1a08a15acf)" style="stroke: #000000"/>
    <path d="M 105.440217 98.028632 
C 105.638503 98.028632 105.828694 97.949853 105.968903 97.809644 
C 106.109112 97.669434 106.187892 97.479243 106.187892 97.280958 
C 106.187892 97.082672 106.109112 96.892481 105.968903 96.752272 
C 105.828694 96.612063 105.638503 96.533284 105.440217 96.533284 
C 105.241932 96.533284 105.051741 96.612063 104.911532 96.752272 
C 104.771323 96.892481 104.692543 97.082672 104.692543 97.280958 
C 104.692543 97.479243 104.771323 97.669434 104.911532 97.809644 
C 105.051741 97.949853 105.241932 98.028632 105.440217 98.028632 
z
" clip-path="url(#p1a08a15acf)" style="stroke: #000000"/>
    <path d="M 103.933278 94.3515 
C 104.107792 94.3515 104.275181 94.282165 104.39858 94.158765 
C 104.52198 94.035365 104.591315 93.867976 104.591315 93.693463 
C 104.591315 93.518949 104.52198 93.35156 104.39858 93.22816 
C 104.275181 93.104761 104.107792 93.035426 103.933278 93.035426 
C 103.758765 93.035426 103.591375 93.104761 103.467976 93.22816 
C 103.344576 93.35156 103.275241 93.518949 103.275241 93.693463 
C 103.275241 93.867976 103.344576 94.035365 103.467976 94.158765 
C 103.591375 94.282165 103.758765 94.3515 103.933278 94.3515 
z
" clip-path="url(#p1a08a15acf)" style="stroke: #000000"/>
    <path d="M 110.898973 123.373827 
C 111.073486 123.373827 111.240876 123.304492 111.364275 123.181093 
C 111.487675 123.057693 111.55701 122.890304 111.55701 122.71579 
C 111.55701 122.541277 111.487675 122.373888 111.364275 122.250488 
C 111.240876 122.127088 111.073486 122.057753 110.898973 122.057753 
C 110.724459 122.057753 110.55707 122.127088 110.43367 122.250488 
C 110.310271 122.373888 110.240936 122.541277 110.240936 122.71579 
C 110.240936 122.890304 110.310271 123.057693 110.43367 123.181093 
C 110.55707 123.304492 110.724459 123.373827 110.898973 123.373827 
z
" clip-path="url(#p1a08a15acf)" style="stroke: #000000"/>
    <path d="M 106.575705 113.325367 
C 106.708307 113.325367 106.835495 113.272683 106.929259 113.17892 
C 107.023022 113.085156 107.075705 112.957968 107.075705 112.825367 
C 107.075705 112.692765 107.023022 112.565577 106.929259 112.471813 
C 106.835495 112.37805 106.708307 112.325367 106.575705 112.325367 
C 106.443104 112.325367 106.315915 112.37805 106.222152 112.471813 
C 106.128388 112.565577 106.075705 112.692765 106.075705 112.825367 
C 106.075705 112.957968 106.128388 113.085156 106.222152 113.17892 
C 106.315915 113.272683 106.443104 113.325367 106.575705 113.325367 
z
" clip-path="url(#p1a08a15acf)" style="stroke: #000000"/>
    <path d="M 104.738845 105.622828 
C 104.93713 105.622828 105.127321 105.544048 105.26753 105.403839 
C 105.40774 105.26363 105.486519 105.073439 105.486519 104.875153 
C 105.486519 104.676868 105.40774 104.486677 105.26753 104.346468 
C 105.127321 104.206259 104.93713 104.127479 104.738845 104.127479 
C 104.540559 104.127479 104.350368 104.206259 104.210159 104.346468 
C 104.06995 104.486677 103.99117 104.676868 103.99117 104.875153 
C 103.99117 105.073439 104.06995 105.26363 104.210159 105.403839 
C 104.350368 105.544048 104.540559 105.622828 104.738845 105.622828 
z
" clip-path="url(#p1a08a15acf)" style="stroke: #000000"/>
    <path d="M 102.157267 99.919345 
C 102.289868 99.919345 102.417057 99.866661 102.51082 99.772898 
C 102.604584 99.679135 102.657267 99.551946 102.657267 99.419345 
C 102.657267 99.286743 102.604584 99.159555 102.51082 99.065791 
C 102.417057 98.972028 102.289868 98.919345 102.157267 98.919345 
C 102.024665 98.919345 101.897477 98.972028 101.803713 99.065791 
C 101.70995 99.159555 101.657267 99.286743 101.657267 99.419345 
C 101.657267 99.551946 101.70995 99.679135 101.803713 99.772898 
C 101.897477 99.866661 102.024665 99.919345 102.157267 99.919345 
z
" clip-path="url(#p1a08a15acf)" style="stroke: #000000"/>
    <path d="M 100.518438 96.196166 
C 100.725971 96.196166 100.925032 96.113712 101.071779 95.966964 
C 101.218527 95.820217 101.300981 95.621156 101.300981 95.413623 
C 101.300981 95.206091 101.218527 95.00703 101.071779 94.860282 
C 100.925032 94.713535 100.725971 94.631081 100.518438 94.631081 
C 100.310906 94.631081 100.111845 94.713535 99.965097 94.860282 
C 99.81835 95.00703 99.735896 95.206091 99.735896 95.413623 
C 99.735896 95.621156 99.81835 95.820217 99.965097 95.966964 
C 100.111845 96.113712 100.310906 96.196166 100.518438 96.196166 
z
" clip-path="url(#p1a08a15acf)" style="stroke: #000000"/>
    <path d="M 94.486467 79.445425 
C 94.619068 79.445425 94.746257 79.392741 94.84002 79.298978 
C 94.933784 79.205215 94.986467 79.078026 94.986467 78.945425 
C 94.986467 78.812823 94.933784 78.685635 94.84002 78.591871 
C 94.746257 78.498108 94.619068 78.445425 94.486467 78.445425 
C 94.353865 78.445425 94.226677 78.498108 94.132913 78.591871 
C 94.03915 78.685635 93.986467 78.812823 93.986467 78.945425 
C 93.986467 79.078026 94.03915 79.205215 94.132913 79.298978 
C 94.226677 79.392741 94.353865 79.445425 94.486467 79.445425 
z
" clip-path="url(#p1a08a15acf)" style="stroke: #000000"/>
    <path d="M 93.462251 93.366859 
C 93.932375 93.366859 94.383308 93.180076 94.715736 92.847648 
C 95.048164 92.51522 95.234947 92.064287 95.234947 91.594163 
C 95.234947 91.124038 95.048164 90.673105 94.715736 90.340677 
C 94.383308 90.008249 93.932375 89.821467 93.462251 89.821467 
C 92.992126 89.821467 92.541193 90.008249 92.208765 90.340677 
C 91.876337 90.673105 91.689555 91.124038 91.689555 91.594163 
C 91.689555 92.064287 91.876337 92.51522 92.208765 92.847648 
C 92.541193 93.180076 92.992126 93.366859 93.462251 93.366859 
z
" clip-path="url(#p1a08a15acf)" style="stroke: #000000"/>
    <path d="M 108.147021 147.220654 
C 108.279623 147.220654 108.406811 147.167971 108.500575 147.074208 
C 108.594338 146.980444 108.647021 146.853256 108.647021 146.720654 
C 108.647021 146.588053 108.594338 146.460864 108.500575 146.367101 
C 108.406811 146.273337 108.279623 146.220654 108.147021 146.220654 
C 108.01442 146.220654 107.887231 146.273337 107.793468 146.367101 
C 107.699704 146.460864 107.647021 146.588053 107.647021 146.720654 
C 107.647021 146.853256 107.699704 146.980444 107.793468 147.074208 
C 107.887231 147.167971 108.01442 147.220654 108.147021 147.220654 
z
" clip-path="url(#p1a08a15acf)" style="stroke: #000000"/>
    <path d="M 101.938849 121.419131 
C 102.229238 121.419131 102.507773 121.303758 102.713109 121.098422 
C 102.918446 120.893086 103.033818 120.614551 103.033818 120.324162 
C 103.033818 120.033772 102.918446 119.755238 102.713109 119.549901 
C 102.507773 119.344565 102.229238 119.229192 101.938849 119.229192 
C 101.64846 119.229192 101.369925 119.344565 101.164589 119.549901 
C 100.959253 119.755238 100.84388 120.033772 100.84388 120.324162 
C 100.84388 120.614551 100.959253 120.893086 101.164589 121.098422 
C 101.369925 121.303758 101.64846 121.419131 101.938849 121.419131 
z
" clip-path="url(#p1a08a15acf)" style="stroke: #000000"/>
    <path d="M 96.490466 113.049664 
C 96.737265 113.049664 96.973989 112.95161 97.148503 112.777096 
C 97.323016 112.602583 97.421071 112.365859 97.421071 112.119059 
C 97.421071 111.87226 97.323016 111.635536 97.148503 111.461022 
C 96.973989 111.286509 96.737265 111.188455 96.490466 111.188455 
C 96.243666 111.188455 96.006942 111.286509 95.832429 111.461022 
C 95.657915 111.635536 95.559861 111.87226 95.559861 112.119059 
C 95.559861 112.365859 95.657915 112.602583 95.832429 112.777096 
C 96.006942 112.95161 96.243666 113.049664 96.490466 113.049664 
z
" clip-path="url(#p1a08a15acf)" style="stroke: #000000"/>
    <path d="M 94.70886 109.575577 
C 95.026677 109.575577 95.331519 109.449307 95.55625 109.224577 
C 95.78098 108.999846 95.90725 108.695003 95.90725 108.377186 
C 95.90725 108.059369 95.78098 107.754527 95.55625 107.529796 
C 95.331519 107.305066 95.026677 107.178796 94.70886 107.178796 
C 94.391043 107.178796 94.0862 107.305066 93.861469 107.529796 
C 93.636739 107.754527 93.510469 108.059369 93.510469 108.377186 
C 93.510469 108.695003 93.636739 108.999846 93.861469 109.224577 
C 94.0862 109.449307 94.391043 109.575577 94.70886 109.575577 
z
" clip-path="url(#p1a08a15acf)" style="stroke: #000000"/>
    <path d="M 93.736361 105.55 
C 94.10071 105.55 94.450185 105.405242 94.707818 105.147609 
C 94.965452 104.889975 95.110209 104.5405 95.110209 104.176151 
C 95.110209 103.811803 94.965452 103.462328 94.707818 103.204694 
C 94.450185 102.947061 94.10071 102.802303 93.736361 102.802303 
C 93.372012 102.802303 93.022537 102.947061 92.764904 103.204694 
C 92.50727 103.462328 92.362513 103.811803 92.362513 104.176151 
C 92.362513 104.5405 92.50727 104.889975 92.764904 105.147609 
C 93.022537 105.405242 93.372012 105.55 93.736361 105.55 
z
" clip-path="url(#p1a08a15acf)" style="stroke: #000000"/>
    <path d="M 91.109096 96.855964 
C 91.528418 96.855964 91.930623 96.689366 92.22713 96.39286 
C 92.523636 96.096353 92.690234 95.694148 92.690234 95.274826 
C 92.690234 94.855503 92.523636 94.453298 92.22713 94.156792 
C 91.930623 93.860286 91.528418 93.693687 91.109096 93.693687 
C 90.689773 93.693687 90.287568 93.860286 89.991062 94.156792 
C 89.694555 94.453298 89.527957 94.855503 89.527957 95.274826 
C 89.527957 95.694148 89.694555 96.096353 89.991062 96.39286 
C 90.287568 96.689366 90.689773 96.855964 91.109096 96.855964 
z
" clip-path="url(#p1a08a15acf)" style="stroke: #000000"/>
    <path d="M 90.590192 91.008401 
C 90.777719 91.008401 90.957591 90.933896 91.090192 90.801294 
C 91.222794 90.668693 91.297299 90.488821 91.297299 90.301294 
C 91.297299 90.113767 91.222794 89.933896 91.090192 89.801294 
C 90.957591 89.668693 90.777719 89.594187 90.590192 89.594187 
C 90.402665 89.594187 90.222794 89.668693 90.090192 89.801294 
C 89.957591 89.933896 89.883085 90.113767 89.883085 90.301294 
C 89.883085 90.488821 89.957591 90.668693 90.090192 90.801294 
C 90.222794 90.933896 90.402665 91.008401 90.590192 91.008401 
z
" clip-path="url(#p1a08a15acf)" style="stroke: #000000"/>
    <path d="M 86.37681 81.746945 
C 86.637768 81.746945 86.888073 81.643265 87.072599 81.458739 
C 87.257124 81.274214 87.360804 81.023908 87.360804 80.76295 
C 87.360804 80.501991 87.257124 80.251686 87.072599 80.06716 
C 86.888073 79.882635 86.637768 79.778955 86.37681 79.778955 
C 86.115851 79.778955 85.865546 79.882635 85.68102 80.06716 
C 85.496495 80.251686 85.392815 80.501991 85.392815 80.76295 
C 85.392815 81.023908 85.496495 81.274214 85.68102 81.458739 
C 85.865546 81.643265 86.115851 81.746945 86.37681 81.746945 
z
" clip-path="url(#p1a08a15acf)" style="stroke: #000000"/>
    <path d="M 80.982797 69.084204 
C 81.140487 69.084204 81.291741 69.021553 81.403245 68.910048 
C 81.514749 68.798544 81.5774 68.647291 81.5774 68.4896 
C 81.5774 68.331909 81.514749 68.180656 81.403245 68.069152 
C 81.291741 67.957648 81.140487 67.894997 80.982797 67.894997 
C 80.825106 67.894997 80.673852 67.957648 80.562348 68.069152 
C 80.450844 68.180656 80.388193 68.331909 80.388193 68.4896 
C 80.388193 68.647291 80.450844 68.798544 80.562348 68.910048 
C 80.673852 69.021553 80.825106 69.084204 80.982797 69.084204 
z
" clip-path="url(#p1a08a15acf)" style="stroke: #000000"/>
    <path d="M 96.059931 126.979646 
C 96.192532 126.979646 96.31972 126.926963 96.413484 126.8332 
C 96.507247 126.739436 96.559931 126.612248 96.559931 126.479646 
C 96.559931 126.347045 96.507247 126.219857 96.413484 126.126093 
C 96.31972 126.03233 96.192532 125.979646 96.059931 125.979646 
C 95.927329 125.979646 95.800141 126.03233 95.706377 126.126093 
C 95.612614 126.219857 95.559931 126.347045 95.559931 126.479646 
C 95.559931 126.612248 95.612614 126.739436 95.706377 126.8332 
C 95.800141 126.926963 95.927329 126.979646 96.059931 126.979646 
z
" clip-path="url(#p1a08a15acf)" style="stroke: #000000"/>
    <path d="M 93.296426 114.183915 
C 93.746736 114.183915 94.178663 114.005005 94.49708 113.686588 
C 94.815497 113.368171 94.994407 112.936244 94.994407 112.485934 
C 94.994407 112.035624 94.815497 111.603697 94.49708 111.28528 
C 94.178663 110.966863 93.746736 110.787953 93.296426 110.787953 
C 92.846116 110.787953 92.414189 110.966863 92.095771 111.28528 
C 91.777354 111.603697 91.598444 112.035624 91.598444 112.485934 
C 91.598444 112.936244 91.777354 113.368171 92.095771 113.686588 
C 92.414189 114.005005 92.846116 114.183915 93.296426 114.183915 
z
" clip-path="url(#p1a08a15acf)" style="stroke: #000000"/>
    <path d="M 91.600801 109.522734 
C 91.808334 109.522734 92.007394 109.44028 92.154142 109.293533 
C 92.30089 109.146785 92.383343 108.947724 92.383343 108.740192 
C 92.383343 108.532659 92.30089 108.333599 92.154142 108.186851 
C 92.007394 108.040103 91.808334 107.957649 91.600801 107.957649 
C 91.393268 107.957649 91.194208 108.040103 91.04746 108.186851 
C 90.900712 108.333599 90.818259 108.532659 90.818259 108.740192 
C 90.818259 108.947724 90.900712 109.146785 91.04746 109.293533 
C 91.194208 109.44028 91.393268 109.522734 91.600801 109.522734 
z
" clip-path="url(#p1a08a15acf)" style="stroke: #000000"/>
    <path d="M 87.50355 99.860781 
C 87.678064 99.860781 87.845453 99.791446 87.968853 99.668047 
C 88.092252 99.544647 88.161587 99.377258 88.161587 99.202744 
C 88.161587 99.028231 88.092252 98.860842 87.968853 98.737442 
C 87.845453 98.614042 87.678064 98.544707 87.50355 98.544707 
C 87.329037 98.544707 87.161647 98.614042 87.038248 98.737442 
C 86.914848 98.860842 86.845513 99.028231 86.845513 99.202744 
C 86.845513 99.377258 86.914848 99.544647 87.038248 99.668047 
C 87.161647 99.791446 87.329037 99.860781 87.50355 99.860781 
z
" clip-path="url(#p1a08a15acf)" style="stroke: #000000"/>
    <path d="M 86.302143 98.185751 
C 86.737317 98.185751 87.154726 98.012855 87.462441 97.70514 
C 87.770155 97.397425 87.943052 96.980016 87.943052 96.544842 
C 87.943052 96.109668 87.770155 95.692259 87.462441 95.384544 
C 87.154726 95.07683 86.737317 94.903933 86.302143 94.903933 
C 85.866969 94.903933 85.449559 95.07683 85.141845 95.384544 
C 84.83413 95.692259 84.661234 96.109668 84.661234 96.544842 
C 84.661234 96.980016 84.83413 97.397425 85.141845 97.70514 
C 85.449559 98.012855 85.866969 98.185751 86.302143 98.185751 
z
" clip-path="url(#p1a08a15acf)" style="stroke: #000000"/>
    <path d="M 85.168078 90.724675 
C 85.40388 90.724675 85.630057 90.630989 85.796794 90.464252 
C 85.963532 90.297514 86.057217 90.071338 86.057217 89.835535 
C 86.057217 89.599732 85.963532 89.373556 85.796794 89.206818 
C 85.630057 89.040081 85.40388 88.946395 85.168078 88.946395 
C 84.932275 88.946395 84.706098 89.040081 84.539361 89.206818 
C 84.372623 89.373556 84.278938 89.599732 84.278938 89.835535 
C 84.278938 90.071338 84.372623 90.297514 84.539361 90.464252 
C 84.706098 90.630989 84.932275 90.724675 85.168078 90.724675 
z
" clip-path="url(#p1a08a15acf)" style="stroke: #000000"/>
    <path d="M 81.23351 84.849798 
C 81.821644 84.849798 82.385769 84.61613 82.801643 84.200256 
C 83.217516 83.784383 83.451185 83.220258 83.451185 82.632124 
C 83.451185 82.04399 83.217516 81.479865 82.801643 81.063991 
C 82.385769 80.648118 81.821644 80.41445 81.23351 80.41445 
C 80.645376 80.41445 80.081251 80.648118 79.665378 81.063991 
C 79.249504 81.479865 79.015836 82.04399 79.015836 82.632124 
C 79.015836 83.220258 79.249504 83.784383 79.665378 84.200256 
C 80.081251 84.61613 80.645376 84.849798 81.23351 84.849798 
z
" clip-path="url(#p1a08a15acf)" style="stroke: #000000"/>
    <path d="M 78.946422 74.976353 
C 79.153955 74.976353 79.353015 74.8939 79.499763 74.747152 
C 79.646511 74.600404 79.728965 74.401344 79.728965 74.193811 
C 79.728965 73.986278 79.646511 73.787218 79.499763 73.64047 
C 79.353015 73.493722 79.153955 73.411269 78.946422 73.411269 
C 78.73889 73.411269 78.539829 73.493722 78.393081 73.64047 
C 78.246334 73.787218 78.16388 73.986278 78.16388 74.193811 
C 78.16388 74.401344 78.246334 74.600404 78.393081 74.747152 
C 78.539829 74.8939 78.73889 74.976353 78.946422 74.976353 
z
" clip-path="url(#p1a08a15acf)" style="stroke: #000000"/>
    <path d="M 90.720982 125.257719 
C 90.94399 125.257719 91.157894 125.169117 91.315585 125.011426 
C 91.473276 124.853735 91.561878 124.639831 91.561878 124.416822 
C 91.561878 124.193814 91.473276 123.97991 91.315585 123.822219 
C 91.157894 123.664528 90.94399 123.575926 90.720982 123.575926 
C 90.497973 123.575926 90.284069 123.664528 90.126378 123.822219 
C 89.968687 123.97991 89.880085 124.193814 89.880085 124.416822 
C 89.880085 124.639831 89.968687 124.853735 90.126378 125.011426 
C 90.284069 125.169117 90.497973 125.257719 90.720982 125.257719 
z
" clip-path="url(#p1a08a15acf)" style="stroke: #000000"/>
    <path d="M 87.958867 120.477124 
C 88.298426 120.477124 88.624124 120.342216 88.864228 120.102111 
C 89.104333 119.862006 89.239242 119.536309 89.239242 119.196749 
C 89.239242 118.85719 89.104333 118.531492 88.864228 118.291388 
C 88.624124 118.051283 88.298426 117.916374 87.958867 117.916374 
C 87.619307 117.916374 87.29361 118.051283 87.053505 118.291388 
C 86.8134 118.531492 86.678492 118.85719 86.678492 119.196749 
C 86.678492 119.536309 86.8134 119.862006 87.053505 120.102111 
C 87.29361 120.342216 87.619307 120.477124 87.958867 120.477124 
z
" clip-path="url(#p1a08a15acf)" style="stroke: #000000"/>
    <path d="M 84.924491 110.680583 
C 85.454897 110.680583 85.96365 110.46985 86.338704 110.094796 
C 86.713758 109.719743 86.924491 109.210989 86.924491 108.680583 
C 86.924491 108.150177 86.713758 107.641423 86.338704 107.266369 
C 85.96365 106.891316 85.454897 106.680583 84.924491 106.680583 
C 84.394084 106.680583 83.885331 106.891316 83.510277 107.266369 
C 83.135223 107.641423 82.924491 108.150177 82.924491 108.680583 
C 82.924491 109.210989 83.135223 109.719743 83.510277 110.094796 
C 83.885331 110.46985 84.394084 110.680583 84.924491 110.680583 
z
" clip-path="url(#p1a08a15acf)" style="stroke: #000000"/>
    <path d="M 85.327526 107.083221 
C 85.642907 107.083221 85.945414 106.957918 86.168422 106.73491 
C 86.391431 106.511902 86.516733 106.209395 86.516733 105.894013 
C 86.516733 105.578632 86.391431 105.276125 86.168422 105.053117 
C 85.945414 104.830109 85.642907 104.704806 85.327526 104.704806 
C 85.012145 104.704806 84.709638 104.830109 84.48663 105.053117 
C 84.263621 105.276125 84.138319 105.578632 84.138319 105.894013 
C 84.138319 106.209395 84.263621 106.511902 84.48663 106.73491 
C 84.709638 106.957918 85.012145 107.083221 85.327526 107.083221 
z
" clip-path="url(#p1a08a15acf)" style="stroke: #000000"/>
    <path d="M 84.386417 102.083536 
C 84.790224 102.083536 85.177546 101.923102 85.46308 101.637568 
C 85.748614 101.352033 85.909048 100.964711 85.909048 100.560905 
C 85.909048 100.157099 85.748614 99.769777 85.46308 99.484242 
C 85.177546 99.198708 84.790224 99.038274 84.386417 99.038274 
C 83.982611 99.038274 83.595289 99.198708 83.309755 99.484242 
C 83.02422 99.769777 82.863786 100.157099 82.863786 100.560905 
C 82.863786 100.964711 83.02422 101.352033 83.309755 101.637568 
C 83.595289 101.923102 83.982611 102.083536 84.386417 102.083536 
z
" clip-path="url(#p1a08a15acf)" style="stroke: #000000"/>
    <path d="M 80.888758 97.563753 
C 81.290196 97.563753 81.675246 97.40426 81.959106 97.120401 
C 82.242965 96.836541 82.402458 96.451491 82.402458 96.050053 
C 82.402458 95.648615 82.242965 95.263565 81.959106 94.979705 
C 81.675246 94.695846 81.290196 94.536353 80.888758 94.536353 
C 80.48732 94.536353 80.10227 94.695846 79.818411 94.979705 
C 79.534551 95.263565 79.375058 95.648615 79.375058 96.050053 
C 79.375058 96.451491 79.534551 96.836541 79.818411 97.120401 
C 80.10227 97.40426 80.48732 97.563753 80.888758 97.563753 
z
" clip-path="url(#p1a08a15acf)" style="stroke: #000000"/>
    <path d="M 79.689465 93.062683 
C 79.847155 93.062683 79.998409 93.000032 80.109913 92.888527 
C 80.221417 92.777023 80.284068 92.62577 80.284068 92.468079 
C 80.284068 92.310389 80.221417 92.159135 80.109913 92.047631 
C 79.998409 91.936127 79.847155 91.873476 79.689465 91.873476 
C 79.531774 91.873476 79.38052 91.936127 79.269016 92.047631 
C 79.157512 92.159135 79.094861 92.310389 79.094861 92.468079 
C 79.094861 92.62577 79.157512 92.777023 79.269016 92.888527 
C 79.38052 93.000032 79.531774 93.062683 79.689465 93.062683 
z
" clip-path="url(#p1a08a15acf)" style="stroke: #000000"/>
    <path d="M 77.679705 89.703891 
C 78.063256 89.703891 78.431149 89.551505 78.702361 89.280293 
C 78.973572 89.009082 79.125959 88.641189 79.125959 88.257638 
C 79.125959 87.874087 78.973572 87.506193 78.702361 87.234982 
C 78.431149 86.96377 78.063256 86.811384 77.679705 86.811384 
C 77.296154 86.811384 76.928261 86.96377 76.657049 87.234982 
C 76.385838 87.506193 76.233451 87.874087 76.233451 88.257638 
C 76.233451 88.641189 76.385838 89.009082 76.657049 89.280293 
C 76.928261 89.551505 77.296154 89.703891 77.679705 89.703891 
z
" clip-path="url(#p1a08a15acf)" style="stroke: #000000"/>
    <path d="M 76.265197 86.883154 
C 76.665435 86.883154 77.049334 86.724138 77.332345 86.441127 
C 77.615356 86.158116 77.774372 85.774217 77.774372 85.373979 
C 77.774372 84.973741 77.615356 84.589842 77.332345 84.306832 
C 77.049334 84.023821 76.665435 83.864805 76.265197 83.864805 
C 75.864959 83.864805 75.48106 84.023821 75.19805 84.306832 
C 74.915039 84.589842 74.756022 84.973741 74.756022 85.373979 
C 74.756022 85.774217 74.915039 86.158116 75.19805 86.441127 
C 75.48106 86.724138 75.864959 86.883154 76.265197 86.883154 
z
" clip-path="url(#p1a08a15acf)" style="stroke: #000000"/>
    <path d="M 74.463438 76.498463 
C 74.596039 76.498463 74.723228 76.44578 74.816991 76.352017 
C 74.910755 76.258253 74.963438 76.131065 74.963438 75.998463 
C 74.963438 75.865862 74.910755 75.738674 74.816991 75.64491 
C 74.723228 75.551147 74.596039 75.498463 74.463438 75.498463 
C 74.330836 75.498463 74.203648 75.551147 74.109885 75.64491 
C 74.016121 75.738674 73.963438 75.865862 73.963438 75.998463 
C 73.963438 76.131065 74.016121 76.258253 74.109885 76.352017 
C 74.203648 76.44578 74.330836 76.498463 74.463438 76.498463 
z
" clip-path="url(#p1a08a15acf)" style="stroke: #000000"/>
    <path d="M 89.53085 139.861446 
C 89.688541 139.861446 89.839794 139.798794 89.951298 139.68729 
C 90.062802 139.575786 90.125453 139.424533 90.125453 139.266842 
C 90.125453 139.109151 90.062802 138.957898 89.951298 138.846394 
C 89.839794 138.73489 89.688541 138.672238 89.53085 138.672238 
C 89.373159 138.672238 89.221906 138.73489 89.110402 138.846394 
C 88.998898 138.957898 88.936246 139.109151 88.936246 139.266842 
C 88.936246 139.424533 88.998898 139.575786 89.110402 139.68729 
C 89.221906 139.798794 89.373159 139.861446 89.53085 139.861446 
z
" clip-path="url(#p1a08a15acf)" style="stroke: #000000"/>
    <path d="M 89.129002 129.036994 
C 89.261603 129.036994 89.388792 128.984311 89.482555 128.890547 
C 89.576319 128.796784 89.629002 128.669596 89.629002 128.536994 
C 89.629002 128.404393 89.576319 128.277204 89.482555 128.183441 
C 89.388792 128.089677 89.261603 128.036994 89.129002 128.036994 
C 88.9964 128.036994 88.869212 128.089677 88.775448 128.183441 
C 88.681685 128.277204 88.629002 128.404393 88.629002 128.536994 
C 88.629002 128.669596 88.681685 128.796784 88.775448 128.890547 
C 88.869212 128.984311 88.9964 129.036994 89.129002 129.036994 
z
" clip-path="url(#p1a08a15acf)" style="stroke: #000000"/>
    <path d="M 83.872413 121.683818 
C 84.250363 121.683818 84.612885 121.533657 84.880136 121.266405 
C 85.147387 120.999154 85.297548 120.636633 85.297548 120.258683 
C 85.297548 119.880733 85.147387 119.518211 84.880136 119.25096 
C 84.612885 118.983709 84.250363 118.833548 83.872413 118.833548 
C 83.494463 118.833548 83.131942 118.983709 82.864691 119.25096 
C 82.597439 119.518211 82.447278 119.880733 82.447278 120.258683 
C 82.447278 120.636633 82.597439 120.999154 82.864691 121.266405 
C 83.131942 121.533657 83.494463 121.683818 83.872413 121.683818 
z
" clip-path="url(#p1a08a15acf)" style="stroke: #000000"/>
    <path d="M 82.155886 113.867394 
C 82.563169 113.867394 82.953825 113.705579 83.241818 113.417586 
C 83.52981 113.129594 83.691626 112.738938 83.691626 112.331655 
C 83.691626 111.924372 83.52981 111.533715 83.241818 111.245723 
C 82.953825 110.957731 82.563169 110.795915 82.155886 110.795915 
C 81.748603 110.795915 81.357947 110.957731 81.069955 111.245723 
C 80.781962 111.533715 80.620147 111.924372 80.620147 112.331655 
C 80.620147 112.738938 80.781962 113.129594 81.069955 113.417586 
C 81.357947 113.705579 81.748603 113.867394 82.155886 113.867394 
z
" clip-path="url(#p1a08a15acf)" style="stroke: #000000"/>
    <path d="M 80.581909 108.337063 
C 80.985716 108.337063 81.373037 108.176629 81.658572 107.891095 
C 81.944106 107.60556 82.10454 107.218239 82.10454 106.814432 
C 82.10454 106.410626 81.944106 106.023304 81.658572 105.73777 
C 81.373037 105.452235 80.985716 105.291801 80.581909 105.291801 
C 80.178103 105.291801 79.790781 105.452235 79.505247 105.73777 
C 79.219712 106.023304 79.059278 106.410626 79.059278 106.814432 
C 79.059278 107.218239 79.219712 107.60556 79.505247 107.891095 
C 79.790781 108.176629 80.178103 108.337063 80.581909 108.337063 
z
" clip-path="url(#p1a08a15acf)" style="stroke: #000000"/>
    <path d="M 77.929614 106.246897 
C 78.436782 106.246897 78.923246 106.045397 79.281868 105.686775 
C 79.640491 105.328153 79.841991 104.841689 79.841991 104.334521 
C 79.841991 103.827352 79.640491 103.340888 79.281868 102.982266 
C 78.923246 102.623644 78.436782 102.422144 77.929614 102.422144 
C 77.422446 102.422144 76.935981 102.623644 76.577359 102.982266 
C 76.218737 103.340888 76.017237 103.827352 76.017237 104.334521 
C 76.017237 104.841689 76.218737 105.328153 76.577359 105.686775 
C 76.935981 106.045397 77.422446 106.246897 77.929614 106.246897 
z
" clip-path="url(#p1a08a15acf)" style="stroke: #000000"/>
    <path d="M 75.053694 95.365295 
C 75.488868 95.365295 75.906277 95.192399 76.213992 94.884684 
C 76.521706 94.576969 76.694603 94.15956 76.694603 93.724386 
C 76.694603 93.289212 76.521706 92.871803 76.213992 92.564088 
C 75.906277 92.256374 75.488868 92.083477 75.053694 92.083477 
C 74.61852 92.083477 74.201111 92.256374 73.893396 92.564088 
C 73.585681 92.871803 73.412785 93.289212 73.412785 93.724386 
C 73.412785 94.15956 73.585681 94.576969 73.893396 94.884684 
C 74.201111 95.192399 74.61852 95.365295 75.053694 95.365295 
z
" clip-path="url(#p1a08a15acf)" style="stroke: #000000"/>
    <path d="M 74.752758 92.446433 
C 75.068139 92.446433 75.370646 92.32113 75.593654 92.098122 
C 75.816663 91.875114 75.941965 91.572607 75.941965 91.257226 
C 75.941965 90.941844 75.816663 90.639338 75.593654 90.416329 
C 75.370646 90.193321 75.068139 90.068018 74.752758 90.068018 
C 74.437377 90.068018 74.13487 90.193321 73.911862 90.416329 
C 73.688853 90.639338 73.563551 90.941844 73.563551 91.257226 
C 73.563551 91.572607 73.688853 91.875114 73.911862 92.098122 
C 74.13487 92.32113 74.437377 92.446433 74.752758 92.446433 
z
" clip-path="url(#p1a08a15acf)" style="stroke: #000000"/>
    <path d="M 70.347057 85.851268 
C 70.534584 85.851268 70.714455 85.776763 70.847057 85.644161 
C 70.979658 85.511559 71.054164 85.331688 71.054164 85.144161 
C 71.054164 84.956634 70.979658 84.776763 70.847057 84.644161 
C 70.714455 84.511559 70.534584 84.437054 70.347057 84.437054 
C 70.15953 84.437054 69.979658 84.511559 69.847057 84.644161 
C 69.714455 84.776763 69.63995 84.956634 69.63995 85.144161 
C 69.63995 85.331688 69.714455 85.511559 69.847057 85.644161 
C 69.979658 85.776763 70.15953 85.851268 70.347057 85.851268 
z
" clip-path="url(#p1a08a15acf)" style="stroke: #000000"/>
    <path d="M 70.306119 80.691846 
C 70.541921 80.691846 70.768098 80.598161 70.934835 80.431423 
C 71.101573 80.264685 71.195258 80.038509 71.195258 79.802706 
C 71.195258 79.566904 71.101573 79.340727 70.934835 79.17399 
C 70.768098 79.007252 70.541921 78.913567 70.306119 78.913567 
C 70.070316 78.913567 69.84414 79.007252 69.677402 79.17399 
C 69.510664 79.340727 69.416979 79.566904 69.416979 79.802706 
C 69.416979 80.038509 69.510664 80.264685 69.677402 80.431423 
C 69.84414 80.598161 70.070316 80.691846 70.306119 80.691846 
z
" clip-path="url(#p1a08a15acf)" style="stroke: #000000"/>
    <path d="M 68.394154 77.724292 
C 68.755264 77.724292 69.101632 77.580822 69.356975 77.325478 
C 69.612318 77.070135 69.755789 76.723767 69.755789 76.362657 
C 69.755789 76.001547 69.612318 75.655179 69.356975 75.399836 
C 69.101632 75.144493 68.755264 75.001022 68.394154 75.001022 
C 68.033044 75.001022 67.686676 75.144493 67.431333 75.399836 
C 67.17599 75.655179 67.032519 76.001547 67.032519 76.362657 
C 67.032519 76.723767 67.17599 77.070135 67.431333 77.325478 
C 67.686676 77.580822 68.033044 77.724292 68.394154 77.724292 
z
" clip-path="url(#p1a08a15acf)" style="stroke: #000000"/>
    <path d="M 67.226219 73.567263 
C 67.358821 73.567263 67.486009 73.51458 67.579772 73.420816 
C 67.673536 73.327053 67.726219 73.199865 67.726219 73.067263 
C 67.726219 72.934661 67.673536 72.807473 67.579772 72.71371 
C 67.486009 72.619946 67.358821 72.567263 67.226219 72.567263 
C 67.093617 72.567263 66.966429 72.619946 66.872666 72.71371 
C 66.778902 72.807473 66.726219 72.934661 66.726219 73.067263 
C 66.726219 73.199865 66.778902 73.327053 66.872666 73.420816 
C 66.966429 73.51458 67.093617 73.567263 67.226219 73.567263 
z
" clip-path="url(#p1a08a15acf)" style="stroke: #000000"/>
    <path d="M 81.686055 130.983331 
C 81.9629 130.983331 82.228444 130.873339 82.424203 130.67758 
C 82.619962 130.481821 82.729954 130.216277 82.729954 129.939432 
C 82.729954 129.662587 82.619962 129.397043 82.424203 129.201284 
C 82.228444 129.005525 81.9629 128.895533 81.686055 128.895533 
C 81.40921 128.895533 81.143666 129.005525 80.947907 129.201284 
C 80.752148 129.397043 80.642156 129.662587 80.642156 129.939432 
C 80.642156 130.216277 80.752148 130.481821 80.947907 130.67758 
C 81.143666 130.873339 81.40921 130.983331 81.686055 130.983331 
z
" clip-path="url(#p1a08a15acf)" style="stroke: #000000"/>
    <path d="M 81.756972 127.2824 
C 82.107802 127.2824 82.444311 127.143014 82.692386 126.894939 
C 82.940461 126.646864 83.079847 126.310355 83.079847 125.959524 
C 83.079847 125.608694 82.940461 125.272185 82.692386 125.02411 
C 82.444311 124.776035 82.107802 124.636649 81.756972 124.636649 
C 81.406141 124.636649 81.069632 124.776035 80.821557 125.02411 
C 80.573482 125.272185 80.434096 125.608694 80.434096 125.959524 
C 80.434096 126.310355 80.573482 126.646864 80.821557 126.894939 
C 81.069632 127.143014 81.406141 127.2824 81.756972 127.2824 
z
" clip-path="url(#p1a08a15acf)" style="stroke: #000000"/>
    <path d="M 79.568564 123.503679 
C 79.945074 123.503679 80.306214 123.35409 80.572447 123.087857 
C 80.83868 122.821624 80.98827 122.460484 80.98827 122.083974 
C 80.98827 121.707463 80.83868 121.346323 80.572447 121.08009 
C 80.306214 120.813857 79.945074 120.664268 79.568564 120.664268 
C 79.192053 120.664268 78.830913 120.813857 78.56468 121.08009 
C 78.298447 121.346323 78.148858 121.707463 78.148858 122.083974 
C 78.148858 122.460484 78.298447 122.821624 78.56468 123.087857 
C 78.830913 123.35409 79.192053 123.503679 79.568564 123.503679 
z
" clip-path="url(#p1a08a15acf)" style="stroke: #000000"/>
    <path d="M 79.538335 117.981041 
C 79.745867 117.981041 79.944928 117.898587 80.091676 117.75184 
C 80.238423 117.605092 80.320877 117.406031 80.320877 117.198499 
C 80.320877 116.990966 80.238423 116.791905 80.091676 116.645158 
C 79.944928 116.49841 79.745867 116.415956 79.538335 116.415956 
C 79.330802 116.415956 79.131741 116.49841 78.984994 116.645158 
C 78.838246 116.791905 78.755792 116.990966 78.755792 117.198499 
C 78.755792 117.406031 78.838246 117.605092 78.984994 117.75184 
C 79.131741 117.898587 79.330802 117.981041 79.538335 117.981041 
z
" clip-path="url(#p1a08a15acf)" style="stroke: #000000"/>
    <path d="M 78.743388 114.45977 
C 79.119898 114.45977 79.481039 114.310181 79.747272 114.043948 
C 80.013505 113.777714 80.163094 113.416574 80.163094 113.040064 
C 80.163094 112.663554 80.013505 112.302413 79.747272 112.03618 
C 79.481039 111.769947 79.119898 111.620358 78.743388 111.620358 
C 78.366878 111.620358 78.005737 111.769947 77.739504 112.03618 
C 77.473271 112.302413 77.323682 112.663554 77.323682 113.040064 
C 77.323682 113.416574 77.473271 113.777714 77.739504 114.043948 
C 78.005737 114.310181 78.366878 114.45977 78.743388 114.45977 
z
" clip-path="url(#p1a08a15acf)" style="stroke: #000000"/>
    <path d="M 76.207467 110.966677 
C 76.719885 110.966677 77.211385 110.763091 77.57372 110.400757 
C 77.936055 110.038422 78.139641 109.546922 78.139641 109.034503 
C 78.139641 108.522085 77.936055 108.030585 77.57372 107.66825 
C 77.211385 107.305915 76.719885 107.102329 76.207467 107.102329 
C 75.695048 107.102329 75.203548 107.305915 74.841213 107.66825 
C 74.478879 108.030585 74.275293 108.522085 74.275293 109.034503 
C 74.275293 109.546922 74.478879 110.038422 74.841213 110.400757 
C 75.203548 110.763091 75.695048 110.966677 76.207467 110.966677 
z
" clip-path="url(#p1a08a15acf)" style="stroke: #000000"/>
    <path d="M 74.448087 106.038738 
C 74.952267 106.038738 75.435864 105.838426 75.792373 105.481917 
C 76.148882 105.125408 76.349194 104.641811 76.349194 104.137631 
C 76.349194 103.633452 76.148882 103.149854 75.792373 102.793346 
C 75.435864 102.436837 74.952267 102.236524 74.448087 102.236524 
C 73.943908 102.236524 73.46031 102.436837 73.103802 102.793346 
C 72.747293 103.149854 72.54698 103.633452 72.54698 104.137631 
C 72.54698 104.641811 72.747293 105.125408 73.103802 105.481917 
C 73.46031 105.838426 73.943908 106.038738 74.448087 106.038738 
z
" clip-path="url(#p1a08a15acf)" style="stroke: #000000"/>
    <path d="M 74.253618 102.158251 
C 74.621122 102.158251 74.973623 102.01224 75.233487 101.752376 
C 75.493352 101.492511 75.639362 101.14001 75.639362 100.772507 
C 75.639362 100.405003 75.493352 100.052502 75.233487 99.792638 
C 74.973623 99.532773 74.621122 99.386763 74.253618 99.386763 
C 73.886115 99.386763 73.533614 99.532773 73.273749 99.792638 
C 73.013885 100.052502 72.867874 100.405003 72.867874 100.772507 
C 72.867874 101.14001 73.013885 101.492511 73.273749 101.752376 
C 73.533614 102.01224 73.886115 102.158251 74.253618 102.158251 
z
" clip-path="url(#p1a08a15acf)" style="stroke: #000000"/>
    <path d="M 71.289264 96.281377 
C 71.861985 96.281377 72.411327 96.053833 72.816302 95.648857 
C 73.221277 95.243882 73.448822 94.694541 73.448822 94.12182 
C 73.448822 93.549098 73.221277 92.999757 72.816302 92.594782 
C 72.411327 92.189806 71.861985 91.962262 71.289264 91.962262 
C 70.716542 91.962262 70.167201 92.189806 69.762226 92.594782 
C 69.357251 92.999757 69.129706 93.549098 69.129706 94.12182 
C 69.129706 94.694541 69.357251 95.243882 69.762226 95.648857 
C 70.167201 96.053833 70.716542 96.281377 71.289264 96.281377 
z
" clip-path="url(#p1a08a15acf)" style="stroke: #000000"/>
    <path d="M 67.002823 88.772951 
C 67.367171 88.772951 67.716646 88.628193 67.97428 88.37056 
C 68.231913 88.112926 68.376671 87.763451 68.376671 87.399103 
C 68.376671 87.034754 68.231913 86.685279 67.97428 86.427645 
C 67.716646 86.170012 67.367171 86.025254 67.002823 86.025254 
C 66.638474 86.025254 66.288999 86.170012 66.031365 86.427645 
C 65.773732 86.685279 65.628974 87.034754 65.628974 87.399103 
C 65.628974 87.763451 65.773732 88.112926 66.031365 88.37056 
C 66.288999 88.628193 66.638474 88.772951 67.002823 88.772951 
z
" clip-path="url(#p1a08a15acf)" style="stroke: #000000"/>
    <path d="M 67.424137 85.839049 
C 67.744335 85.839049 68.051461 85.711833 68.277875 85.485419 
C 68.504289 85.259005 68.631505 84.951879 68.631505 84.631681 
C 68.631505 84.311483 68.504289 84.004357 68.277875 83.777943 
C 68.051461 83.551529 67.744335 83.424313 67.424137 83.424313 
C 67.103939 83.424313 66.796813 83.551529 66.570399 83.777943 
C 66.343985 84.004357 66.216769 84.311483 66.216769 84.631681 
C 66.216769 84.951879 66.343985 85.259005 66.570399 85.485419 
C 66.796813 85.711833 67.103939 85.839049 67.424137 85.839049 
z
" clip-path="url(#p1a08a15acf)" style="stroke: #000000"/>
    <path d="M 81.693514 141.139323 
C 82.052971 141.139323 82.397755 140.99651 82.651929 140.742335 
C 82.906104 140.488161 83.048917 140.143378 83.048917 139.78392 
C 83.048917 139.424463 82.906104 139.07968 82.651929 138.825506 
C 82.397755 138.571331 82.052971 138.428517 81.693514 138.428517 
C 81.334057 138.428517 80.989274 138.571331 80.7351 138.825506 
C 80.480925 139.07968 80.338111 139.424463 80.338111 139.78392 
C 80.338111 140.143378 80.480925 140.488161 80.7351 140.742335 
C 80.989274 140.99651 81.334057 141.139323 81.693514 141.139323 
z
" clip-path="url(#p1a08a15acf)" style="stroke: #000000"/>
    <path d="M 79.194951 131.884906 
C 79.646945 131.884906 80.080486 131.705328 80.400094 131.38572 
C 80.719702 131.066112 80.89928 130.632571 80.89928 130.180577 
C 80.89928 129.728584 80.719702 129.295042 80.400094 128.975435 
C 80.080486 128.655827 79.646945 128.476248 79.194951 128.476248 
C 78.742958 128.476248 78.309416 128.655827 77.989809 128.975435 
C 77.670201 129.295042 77.490622 129.728584 77.490622 130.180577 
C 77.490622 130.632571 77.670201 131.066112 77.989809 131.38572 
C 78.309416 131.705328 78.742958 131.884906 79.194951 131.884906 
z
" clip-path="url(#p1a08a15acf)" style="stroke: #000000"/>
    <path d="M 77.097979 127.474025 
C 77.445174 127.474025 77.778195 127.336083 78.023699 127.090579 
C 78.269202 126.845076 78.407144 126.512054 78.407144 126.16486 
C 78.407144 125.817665 78.269202 125.484644 78.023699 125.23914 
C 77.778195 124.993636 77.445174 124.855694 77.097979 124.855694 
C 76.750784 124.855694 76.417763 124.993636 76.172259 125.23914 
C 75.926756 125.484644 75.788814 125.817665 75.788814 126.16486 
C 75.788814 126.512054 75.926756 126.845076 76.172259 127.090579 
C 76.417763 127.336083 76.750784 127.474025 77.097979 127.474025 
z
" clip-path="url(#p1a08a15acf)" style="stroke: #000000"/>
    <path d="M 75.875509 126.090677 
C 76.368464 126.090677 76.841295 125.894824 77.189867 125.546253 
C 77.538438 125.197681 77.734291 124.72485 77.734291 124.231896 
C 77.734291 123.738941 77.538438 123.26611 77.189867 122.917538 
C 76.841295 122.568967 76.368464 122.373114 75.875509 122.373114 
C 75.382555 122.373114 74.909724 122.568967 74.561152 122.917538 
C 74.212581 123.26611 74.016728 123.738941 74.016728 124.231896 
C 74.016728 124.72485 74.212581 125.197681 74.561152 125.546253 
C 74.909724 125.894824 75.382555 126.090677 75.875509 126.090677 
z
" clip-path="url(#p1a08a15acf)" style="stroke: #000000"/>
    <path d="M 74.973397 116.810721 
C 75.46375 116.810721 75.934086 116.615902 76.280818 116.26917 
C 76.62755 115.922437 76.822369 115.452102 76.822369 114.961749 
C 76.822369 114.471395 76.62755 114.00106 76.280818 113.654328 
C 75.934086 113.307596 75.46375 113.112776 74.973397 113.112776 
C 74.483044 113.112776 74.012708 113.307596 73.665976 113.654328 
C 73.319244 114.00106 73.124425 114.471395 73.124425 114.961749 
C 73.124425 115.452102 73.319244 115.922437 73.665976 116.26917 
C 74.012708 116.615902 74.483044 116.810721 74.973397 116.810721 
z
" clip-path="url(#p1a08a15acf)" style="stroke: #000000"/>
    <path d="M 69.530334 107.360746 
C 69.728619 107.360746 69.91881 107.281967 70.059019 107.141757 
C 70.199229 107.001548 70.278008 106.811357 70.278008 106.613072 
C 70.278008 106.414786 70.199229 106.224595 70.059019 106.084386 
C 69.91881 105.944177 69.728619 105.865397 69.530334 105.865397 
C 69.332048 105.865397 69.141857 105.944177 69.001648 106.084386 
C 68.861439 106.224595 68.782659 106.414786 68.782659 106.613072 
C 68.782659 106.811357 68.861439 107.001548 69.001648 107.141757 
C 69.141857 107.281967 69.332048 107.360746 69.530334 107.360746 
z
" clip-path="url(#p1a08a15acf)" style="stroke: #000000"/>
    <path d="M 66.560814 102.772591 
C 67.064389 102.772591 67.547407 102.572518 67.903489 102.216437 
C 68.25957 101.860355 68.459643 101.377337 68.459643 100.873762 
C 68.459643 100.370187 68.25957 99.887169 67.903489 99.531087 
C 67.547407 99.175006 67.064389 98.974933 66.560814 98.974933 
C 66.057239 98.974933 65.574221 99.175006 65.218139 99.531087 
C 64.862058 99.887169 64.661985 100.370187 64.661985 100.873762 
C 64.661985 101.377337 64.862058 101.860355 65.218139 102.216437 
C 65.574221 102.572518 66.057239 102.772591 66.560814 102.772591 
z
" clip-path="url(#p1a08a15acf)" style="stroke: #000000"/>
    <path d="M 66.517893 98.824053 
C 66.886944 98.824053 67.240929 98.677428 67.501888 98.416469 
C 67.762846 98.155511 67.909472 97.801525 67.909472 97.432474 
C 67.909472 97.063423 67.762846 96.709438 67.501888 96.44848 
C 67.240929 96.187521 66.886944 96.040896 66.517893 96.040896 
C 66.148842 96.040896 65.794856 96.187521 65.533898 96.44848 
C 65.272939 96.709438 65.126314 97.063423 65.126314 97.432474 
C 65.126314 97.801525 65.272939 98.155511 65.533898 98.416469 
C 65.794856 98.677428 66.148842 98.824053 66.517893 98.824053 
z
" clip-path="url(#p1a08a15acf)" style="stroke: #000000"/>
    <path d="M 64.062372 89.289694 
C 64.520918 89.289694 64.960744 89.107512 65.284985 88.783271 
C 65.609226 88.45903 65.791408 88.019203 65.791408 87.560658 
C 65.791408 87.102112 65.609226 86.662285 65.284985 86.338045 
C 64.960744 86.013804 64.520918 85.831622 64.062372 85.831622 
C 63.603826 85.831622 63.164 86.013804 62.839759 86.338045 
C 62.515518 86.662285 62.333336 87.102112 62.333336 87.560658 
C 62.333336 88.019203 62.515518 88.45903 62.839759 88.783271 
C 63.164 89.107512 63.603826 89.289694 64.062372 89.289694 
z
" clip-path="url(#p1a08a15acf)" style="stroke: #000000"/>
    <path d="M 62.79329 82.901936 
C 63.022963 82.901936 63.243259 82.810686 63.405662 82.648283 
C 63.568065 82.48588 63.659315 82.265584 63.659315 82.035911 
C 63.659315 81.806238 63.568065 81.585942 63.405662 81.423539 
C 63.243259 81.261135 63.022963 81.169886 62.79329 81.169886 
C 62.563617 81.169886 62.343321 81.261135 62.180917 81.423539 
C 62.018514 81.585942 61.927265 81.806238 61.927265 82.035911 
C 61.927265 82.265584 62.018514 82.48588 62.180917 82.648283 
C 62.343321 82.810686 62.563617 82.901936 62.79329 82.901936 
z
" clip-path="url(#p1a08a15acf)" style="stroke: #000000"/>
    <path d="M 60.942442 81.997396 
C 61.211695 81.997396 61.469957 81.890421 61.660347 81.70003 
C 61.850738 81.509639 61.957713 81.251378 61.957713 80.982124 
C 61.957713 80.712871 61.850738 80.45461 61.660347 80.264219 
C 61.469957 80.073828 61.211695 79.966853 60.942442 79.966853 
C 60.673189 79.966853 60.414927 80.073828 60.224536 80.264219 
C 60.034146 80.45461 59.92717 80.712871 59.92717 80.982124 
C 59.92717 81.251378 60.034146 81.509639 60.224536 81.70003 
C 60.414927 81.890421 60.673189 81.997396 60.942442 81.997396 
z
" clip-path="url(#p1a08a15acf)" style="stroke: #000000"/>
    <path d="M 73.743196 128.654688 
C 74.030376 128.654688 74.305832 128.54059 74.508899 128.337523 
C 74.711966 128.134456 74.826064 127.859 74.826064 127.57182 
C 74.826064 127.28464 74.711966 127.009183 74.508899 126.806116 
C 74.305832 126.603049 74.030376 126.488951 73.743196 126.488951 
C 73.456016 126.488951 73.180559 126.603049 72.977492 126.806116 
C 72.774425 127.009183 72.660327 127.28464 72.660327 127.57182 
C 72.660327 127.859 72.774425 128.134456 72.977492 128.337523 
C 73.180559 128.54059 73.456016 128.654688 73.743196 128.654688 
z
" clip-path="url(#p1a08a15acf)" style="stroke: #000000"/>
    <path d="M 71.449509 127.140064 
C 71.80034 127.140064 72.136849 127.000678 72.384924 126.752603 
C 72.632998 126.504528 72.772385 126.168019 72.772385 125.817188 
C 72.772385 125.466358 72.632998 125.129849 72.384924 124.881774 
C 72.136849 124.633699 71.80034 124.494313 71.449509 124.494313 
C 71.098679 124.494313 70.76217 124.633699 70.514095 124.881774 
C 70.26602 125.129849 70.126634 125.466358 70.126634 125.817188 
C 70.126634 126.168019 70.26602 126.504528 70.514095 126.752603 
C 70.76217 127.000678 71.098679 127.140064 71.449509 127.140064 
z
" clip-path="url(#p1a08a15acf)" style="stroke: #000000"/>
    <path d="M 70.466825 122.394099 
C 70.964236 122.394099 71.44134 122.196476 71.793063 121.844753 
C 72.144785 121.493031 72.342408 121.015926 72.342408 120.518516 
C 72.342408 120.021106 72.144785 119.544001 71.793063 119.192278 
C 71.44134 118.840556 70.964236 118.642933 70.466825 118.642933 
C 69.969415 118.642933 69.49231 118.840556 69.140588 119.192278 
C 68.788865 119.544001 68.591242 120.021106 68.591242 120.518516 
C 68.591242 121.015926 68.788865 121.493031 69.140588 121.844753 
C 69.49231 122.196476 69.969415 122.394099 70.466825 122.394099 
z
" clip-path="url(#p1a08a15acf)" style="stroke: #000000"/>
    <path d="M 69.433652 118.122651 
C 69.855056 118.122651 70.259257 117.955226 70.557234 117.657248 
C 70.855212 117.359271 71.022638 116.955069 71.022638 116.533666 
C 71.022638 116.112262 70.855212 115.70806 70.557234 115.410083 
C 70.259257 115.112105 69.855056 114.94468 69.433652 114.94468 
C 69.012248 114.94468 68.608047 115.112105 68.310069 115.410083 
C 68.012091 115.70806 67.844666 116.112262 67.844666 116.533666 
C 67.844666 116.955069 68.012091 117.359271 68.310069 117.657248 
C 68.608047 117.955226 69.012248 118.122651 69.433652 118.122651 
z
" clip-path="url(#p1a08a15acf)" style="stroke: #000000"/>
    <path d="M 67.132979 112.370566 
C 67.265581 112.370566 67.392769 112.317883 67.486533 112.22412 
C 67.580296 112.130356 67.632979 112.003168 67.632979 111.870566 
C 67.632979 111.737965 67.580296 111.610776 67.486533 111.517013 
C 67.392769 111.42325 67.265581 111.370566 67.132979 111.370566 
C 67.000378 111.370566 66.873189 111.42325 66.779426 111.517013 
C 66.685662 111.610776 66.632979 111.737965 66.632979 111.870566 
C 66.632979 112.003168 66.685662 112.130356 66.779426 112.22412 
C 66.873189 112.317883 67.000378 112.370566 67.132979 112.370566 
z
" clip-path="url(#p1a08a15acf)" style="stroke: #000000"/>
    <path d="M 65.892822 109.087511 
C 66.189329 109.087511 66.47373 108.969708 66.683392 108.760047 
C 66.893053 108.550385 67.010856 108.265983 67.010856 107.969477 
C 67.010856 107.672971 66.893053 107.388569 66.683392 107.178908 
C 66.47373 106.969246 66.189329 106.851443 65.892822 106.851443 
C 65.596316 106.851443 65.311915 106.969246 65.102253 107.178908 
C 64.892592 107.388569 64.774788 107.672971 64.774788 107.969477 
C 64.774788 108.265983 64.892592 108.550385 65.102253 108.760047 
C 65.311915 108.969708 65.596316 109.087511 65.892822 109.087511 
z
" clip-path="url(#p1a08a15acf)" style="stroke: #000000"/>
    <path d="M 63.174528 102.740025 
C 63.307129 102.740025 63.434318 102.687342 63.528081 102.593579 
C 63.621845 102.499815 63.674528 102.372627 63.674528 102.240025 
C 63.674528 102.107424 63.621845 101.980235 63.528081 101.886472 
C 63.434318 101.792709 63.307129 101.740025 63.174528 101.740025 
C 63.041926 101.740025 62.914738 101.792709 62.820974 101.886472 
C 62.727211 101.980235 62.674528 102.107424 62.674528 102.240025 
C 62.674528 102.372627 62.727211 102.499815 62.820974 102.593579 
C 62.914738 102.687342 63.041926 102.740025 63.174528 102.740025 
z
" clip-path="url(#p1a08a15acf)" style="stroke: #000000"/>
    <path d="M 61.306986 100.000723 
C 61.580115 100.000723 61.842093 99.892208 62.035224 99.699077 
C 62.228355 99.505946 62.33687 99.243968 62.33687 98.970839 
C 62.33687 98.697711 62.228355 98.435733 62.035224 98.242602 
C 61.842093 98.049471 61.580115 97.940956 61.306986 97.940956 
C 61.033858 97.940956 60.77188 98.049471 60.578749 98.242602 
C 60.385618 98.435733 60.277103 98.697711 60.277103 98.970839 
C 60.277103 99.243968 60.385618 99.505946 60.578749 99.699077 
C 60.77188 99.892208 61.033858 100.000723 61.306986 100.000723 
z
" clip-path="url(#p1a08a15acf)" style="stroke: #000000"/>
    <path d="M 62.145985 95.779519 
C 62.485545 95.779519 62.811242 95.644611 63.051347 95.404506 
C 63.291452 95.164402 63.42636 94.838704 63.42636 94.499145 
C 63.42636 94.159585 63.291452 93.833888 63.051347 93.593783 
C 62.811242 93.353678 62.485545 93.21877 62.145985 93.21877 
C 61.806426 93.21877 61.480728 93.353678 61.240624 93.593783 
C 61.000519 93.833888 60.865611 94.159585 60.865611 94.499145 
C 60.865611 94.838704 61.000519 95.164402 61.240624 95.404506 
C 61.480728 95.644611 61.806426 95.779519 62.145985 95.779519 
z
" clip-path="url(#p1a08a15acf)" style="stroke: #000000"/>
    <path d="M 57.8692 89.531386 
C 58.026891 89.531386 58.178144 89.468735 58.289648 89.357231 
C 58.401153 89.245727 58.463804 89.094473 58.463804 88.936783 
C 58.463804 88.779092 58.401153 88.627839 58.289648 88.516335 
C 58.178144 88.40483 58.026891 88.342179 57.8692 88.342179 
C 57.711509 88.342179 57.560256 88.40483 57.448752 88.516335 
C 57.337248 88.627839 57.274597 88.779092 57.274597 88.936783 
C 57.274597 89.094473 57.337248 89.245727 57.448752 89.357231 
C 57.560256 89.468735 57.711509 89.531386 57.8692 89.531386 
z
" clip-path="url(#p1a08a15acf)" style="stroke: #000000"/>
    <path d="M 78.612948 156.408154 
C 78.74555 156.408154 78.872738 156.355471 78.966502 156.261707 
C 79.060265 156.167944 79.112948 156.040756 79.112948 155.908154 
C 79.112948 155.775553 79.060265 155.648364 78.966502 155.554601 
C 78.872738 155.460837 78.74555 155.408154 78.612948 155.408154 
C 78.480347 155.408154 78.353158 155.460837 78.259395 155.554601 
C 78.165631 155.648364 78.112948 155.775553 78.112948 155.908154 
C 78.112948 156.040756 78.165631 156.167944 78.259395 156.261707 
C 78.353158 156.355471 78.480347 156.408154 78.612948 156.408154 
z
" clip-path="url(#p1a08a15acf)" style="stroke: #000000"/>
    <path d="M 70.268081 139.259084 
C 70.442594 139.259084 70.609983 139.189749 70.733383 139.066349 
C 70.856783 138.94295 70.926118 138.77556 70.926118 138.601047 
C 70.926118 138.426533 70.856783 138.259144 70.733383 138.135744 
C 70.609983 138.012345 70.442594 137.94301 70.268081 137.94301 
C 70.093567 137.94301 69.926178 138.012345 69.802778 138.135744 
C 69.679379 138.259144 69.610044 138.426533 69.610044 138.601047 
C 69.610044 138.77556 69.679379 138.94295 69.802778 139.066349 
C 69.926178 139.189749 70.093567 139.259084 70.268081 139.259084 
z
" clip-path="url(#p1a08a15acf)" style="stroke: #000000"/>
    <path d="M 70.167665 135.158034 
C 70.448083 135.158034 70.717054 135.046622 70.915339 134.848337 
C 71.113625 134.650051 71.225036 134.38108 71.225036 134.100662 
C 71.225036 133.820244 71.113625 133.551273 70.915339 133.352988 
C 70.717054 133.154702 70.448083 133.043291 70.167665 133.043291 
C 69.887247 133.043291 69.618276 133.154702 69.41999 133.352988 
C 69.221705 133.551273 69.110294 133.820244 69.110294 134.100662 
C 69.110294 134.38108 69.221705 134.650051 69.41999 134.848337 
C 69.618276 135.046622 69.887247 135.158034 70.167665 135.158034 
z
" clip-path="url(#p1a08a15acf)" style="stroke: #000000"/>
    <path d="M 68.20324 132.072202 
C 68.793641 132.072202 69.359939 131.837634 69.777416 131.420157 
C 70.194892 131.002681 70.42946 130.436383 70.42946 129.845982 
C 70.42946 129.255581 70.194892 128.689283 69.777416 128.271807 
C 69.359939 127.85433 68.793641 127.619762 68.20324 127.619762 
C 67.61284 127.619762 67.046541 127.85433 66.629065 128.271807 
C 66.211588 128.689283 65.97702 129.255581 65.97702 129.845982 
C 65.97702 130.436383 66.211588 131.002681 66.629065 131.420157 
C 67.046541 131.837634 67.61284 132.072202 68.20324 132.072202 
z
" clip-path="url(#p1a08a15acf)" style="stroke: #000000"/>
    <path d="M 65.329713 125.734466 
C 65.5454 125.734466 65.752282 125.648772 65.904795 125.496259 
C 66.057309 125.343746 66.143002 125.136864 66.143002 124.921177 
C 66.143002 124.705491 66.057309 124.498609 65.904795 124.346096 
C 65.752282 124.193582 65.5454 124.107889 65.329713 124.107889 
C 65.114027 124.107889 64.907145 124.193582 64.754632 124.346096 
C 64.602118 124.498609 64.516425 124.705491 64.516425 124.921177 
C 64.516425 125.136864 64.602118 125.343746 64.754632 125.496259 
C 64.907145 125.648772 65.114027 125.734466 65.329713 125.734466 
z
" clip-path="url(#p1a08a15acf)" style="stroke: #000000"/>
    <path d="M 65.123084 123.306063 
C 65.519655 123.306063 65.900037 123.148503 66.180455 122.868085 
C 66.460874 122.587667 66.618433 122.207285 66.618433 121.810714 
C 66.618433 121.414143 66.460874 121.033761 66.180455 120.753343 
C 65.900037 120.472924 65.519655 120.315365 65.123084 120.315365 
C 64.726513 120.315365 64.346131 120.472924 64.065713 120.753343 
C 63.785295 121.033761 63.627735 121.414143 63.627735 121.810714 
C 63.627735 122.207285 63.785295 122.587667 64.065713 122.868085 
C 64.346131 123.148503 64.726513 123.306063 65.123084 123.306063 
z
" clip-path="url(#p1a08a15acf)" style="stroke: #000000"/>
    <path d="M 63.32551 119.412148 
C 63.830891 119.412148 64.315642 119.211357 64.673 118.853999 
C 65.030359 118.49664 65.231149 118.01189 65.231149 117.506509 
C 65.231149 117.001127 65.030359 116.516377 64.673 116.159018 
C 64.315642 115.80166 63.830891 115.60087 63.32551 115.60087 
C 62.820129 115.60087 62.335378 115.80166 61.97802 116.159018 
C 61.620661 116.516377 61.419871 117.001127 61.419871 117.506509 
C 61.419871 118.01189 61.620661 118.49664 61.97802 118.853999 
C 62.335378 119.211357 62.820129 119.412148 63.32551 119.412148 
z
" clip-path="url(#p1a08a15acf)" style="stroke: #000000"/>
    <path d="M 61.209042 111.150726 
C 61.714424 111.150726 62.199174 110.949935 62.556533 110.592577 
C 62.913891 110.235218 63.114681 109.750468 63.114681 109.245087 
C 63.114681 108.739705 62.913891 108.254955 62.556533 107.897596 
C 62.199174 107.540238 61.714424 107.339448 61.209042 107.339448 
C 60.703661 107.339448 60.218911 107.540238 59.861552 107.897596 
C 59.504194 108.254955 59.303403 108.739705 59.303403 109.245087 
C 59.303403 109.750468 59.504194 110.235218 59.861552 110.592577 
C 60.218911 110.949935 60.703661 111.150726 61.209042 111.150726 
z
" clip-path="url(#p1a08a15acf)" style="stroke: #000000"/>
    <path d="M 60.095925 107.509759 
C 60.476707 107.509759 60.841944 107.358473 61.111197 107.08922 
C 61.38045 106.819967 61.531736 106.45473 61.531736 106.073948 
C 61.531736 105.693167 61.38045 105.32793 61.111197 105.058677 
C 60.841944 104.789423 60.476707 104.638137 60.095925 104.638137 
C 59.715144 104.638137 59.349907 104.789423 59.080654 105.058677 
C 58.811401 105.32793 58.660114 105.693167 58.660114 106.073948 
C 58.660114 106.45473 58.811401 106.819967 59.080654 107.08922 
C 59.349907 107.358473 59.715144 107.509759 60.095925 107.509759 
z
" clip-path="url(#p1a08a15acf)" style="stroke: #000000"/>
    <path d="M 57.776226 102.403402 
C 58.256436 102.403402 58.717042 102.212613 59.056601 101.873053 
C 59.396161 101.533494 59.58695 101.072888 59.58695 100.592679 
C 59.58695 100.112469 59.396161 99.651863 59.056601 99.312304 
C 58.717042 98.972744 58.256436 98.781955 57.776226 98.781955 
C 57.296017 98.781955 56.835411 98.972744 56.495852 99.312304 
C 56.156292 99.651863 55.965503 100.112469 55.965503 100.592679 
C 55.965503 101.072888 56.156292 101.533494 56.495852 101.873053 
C 56.835411 102.212613 57.296017 102.403402 57.776226 102.403402 
z
" clip-path="url(#p1a08a15acf)" style="stroke: #000000"/>
    <path d="M 55.553768 95.387686 
C 55.711459 95.387686 55.862712 95.325034 55.974216 95.21353 
C 56.085721 95.102026 56.148372 94.950773 56.148372 94.793082 
C 56.148372 94.635391 56.085721 94.484138 55.974216 94.372634 
C 55.862712 94.26113 55.711459 94.198478 55.553768 94.198478 
C 55.396078 94.198478 55.244824 94.26113 55.13332 94.372634 
C 55.021816 94.484138 54.959165 94.635391 54.959165 94.793082 
C 54.959165 94.950773 55.021816 95.102026 55.13332 95.21353 
C 55.244824 95.325034 55.396078 95.387686 55.553768 95.387686 
z
" clip-path="url(#p1a08a15acf)" style="stroke: #000000"/>
    <path d="M 54.675078 91.874552 
C 54.910881 91.874552 55.137057 91.780866 55.303795 91.614129 
C 55.470533 91.447391 55.564218 91.221214 55.564218 90.985412 
C 55.564218 90.749609 55.470533 90.523433 55.303795 90.356695 
C 55.137057 90.189958 54.910881 90.096272 54.675078 90.096272 
C 54.439276 90.096272 54.213099 90.189958 54.046362 90.356695 
C 53.879624 90.523433 53.785939 90.749609 53.785939 90.985412 
C 53.785939 91.221214 53.879624 91.447391 54.046362 91.614129 
C 54.213099 91.780866 54.439276 91.874552 54.675078 91.874552 
z
" clip-path="url(#p1a08a15acf)" style="stroke: #000000"/>
    <path d="M 52.537064 86.001612 
C 52.75275 86.001612 52.959632 85.915919 53.112145 85.763406 
C 53.264659 85.610892 53.350352 85.40401 53.350352 85.188324 
C 53.350352 84.972637 53.264659 84.765756 53.112145 84.613242 
C 52.959632 84.460729 52.75275 84.375036 52.537064 84.375036 
C 52.321377 84.375036 52.114496 84.460729 51.961982 84.613242 
C 51.809469 84.765756 51.723776 84.972637 51.723776 85.188324 
C 51.723776 85.40401 51.809469 85.610892 51.961982 85.763406 
C 52.114496 85.915919 52.321377 86.001612 52.537064 86.001612 
z
" clip-path="url(#p1a08a15acf)" style="stroke: #000000"/>
    <path d="M 70.86743 149.220158 
C 71.000031 149.220158 71.12722 149.167475 71.220983 149.073712 
C 71.314747 148.979948 71.36743 148.85276 71.36743 148.720158 
C 71.36743 148.587557 71.314747 148.460368 71.220983 148.366605 
C 71.12722 148.272841 71.000031 148.220158 70.86743 148.220158 
C 70.734828 148.220158 70.60764 148.272841 70.513876 148.366605 
C 70.420113 148.460368 70.36743 148.587557 70.36743 148.720158 
C 70.36743 148.85276 70.420113 148.979948 70.513876 149.073712 
C 70.60764 149.167475 70.734828 149.220158 70.86743 149.220158 
z
" clip-path="url(#p1a08a15acf)" style="stroke: #000000"/>
    <path d="M 66.949404 142.327354 
C 67.107094 142.327354 67.258348 142.264703 67.369852 142.153199 
C 67.481356 142.041694 67.544007 141.890441 67.544007 141.73275 
C 67.544007 141.57506 67.481356 141.423806 67.369852 141.312302 
C 67.258348 141.200798 67.107094 141.138147 66.949404 141.138147 
C 66.791713 141.138147 66.640459 141.200798 66.528955 141.312302 
C 66.417451 141.423806 66.3548 141.57506 66.3548 141.73275 
C 66.3548 141.890441 66.417451 142.041694 66.528955 142.153199 
C 66.640459 142.264703 66.791713 142.327354 66.949404 142.327354 
z
" clip-path="url(#p1a08a15acf)" style="stroke: #000000"/>
    <path d="M 64.364874 132.553004 
C 64.66138 132.553004 64.945782 132.435201 65.155444 132.225539 
C 65.365105 132.015878 65.482908 131.731476 65.482908 131.43497 
C 65.482908 131.138464 65.365105 130.854062 65.155444 130.644401 
C 64.945782 130.434739 64.66138 130.316936 64.364874 130.316936 
C 64.068368 130.316936 63.783966 130.434739 63.574305 130.644401 
C 63.364643 130.854062 63.24684 131.138464 63.24684 131.43497 
C 63.24684 131.731476 63.364643 132.015878 63.574305 132.225539 
C 63.783966 132.435201 64.068368 132.553004 64.364874 132.553004 
z
" clip-path="url(#p1a08a15acf)" style="stroke: #000000"/>
    <path d="M 62.29827 128.722405 
C 62.472784 128.722405 62.640173 128.65307 62.763573 128.529671 
C 62.886972 128.406271 62.956307 128.238882 62.956307 128.064368 
C 62.956307 127.889855 62.886972 127.722465 62.763573 127.599066 
C 62.640173 127.475666 62.472784 127.406331 62.29827 127.406331 
C 62.123757 127.406331 61.956368 127.475666 61.832968 127.599066 
C 61.709568 127.722465 61.640233 127.889855 61.640233 128.064368 
C 61.640233 128.238882 61.709568 128.406271 61.832968 128.529671 
C 61.956368 128.65307 62.123757 128.722405 62.29827 128.722405 
z
" clip-path="url(#p1a08a15acf)" style="stroke: #000000"/>
    <path d="M 59.625191 124.310827 
C 60.121972 124.310827 60.598473 124.113454 60.949751 123.762177 
C 61.301028 123.410899 61.498401 122.934398 61.498401 122.437617 
C 61.498401 121.940836 61.301028 121.464334 60.949751 121.113057 
C 60.598473 120.76178 60.121972 120.564406 59.625191 120.564406 
C 59.12841 120.564406 58.651908 120.76178 58.300631 121.113057 
C 57.949354 121.464334 57.75198 121.940836 57.75198 122.437617 
C 57.75198 122.934398 57.949354 123.410899 58.300631 123.762177 
C 58.651908 124.113454 59.12841 124.310827 59.625191 124.310827 
z
" clip-path="url(#p1a08a15acf)" style="stroke: #000000"/>
    <path d="M 60.321598 119.667721 
C 60.780144 119.667721 61.219971 119.485539 61.544212 119.161298 
C 61.868452 118.837058 62.050634 118.397231 62.050634 117.938685 
C 62.050634 117.48014 61.868452 117.040313 61.544212 116.716072 
C 61.219971 116.391832 60.780144 116.209649 60.321598 116.209649 
C 59.863053 116.209649 59.423226 116.391832 59.098985 116.716072 
C 58.774745 117.040313 58.592563 117.48014 58.592563 117.938685 
C 58.592563 118.397231 58.774745 118.837058 59.098985 119.161298 
C 59.423226 119.485539 59.863053 119.667721 60.321598 119.667721 
z
" clip-path="url(#p1a08a15acf)" style="stroke: #000000"/>
    <path d="M 58.549116 117.550301 
C 59.050865 117.550301 59.532132 117.350954 59.886923 116.996163 
C 60.241713 116.641373 60.44106 116.160106 60.44106 115.658356 
C 60.44106 115.156607 60.241713 114.67534 59.886923 114.320549 
C 59.532132 113.965759 59.050865 113.766411 58.549116 113.766411 
C 58.047366 113.766411 57.566099 113.965759 57.211308 114.320549 
C 56.856518 114.67534 56.657171 115.156607 56.657171 115.658356 
C 56.657171 116.160106 56.856518 116.641373 57.211308 116.996163 
C 57.566099 117.350954 58.047366 117.550301 58.549116 117.550301 
z
" clip-path="url(#p1a08a15acf)" style="stroke: #000000"/>
    <path d="M 53.702178 105.765939 
C 53.963137 105.765939 54.213442 105.662259 54.397968 105.477733 
C 54.582493 105.293208 54.686173 105.042902 54.686173 104.781944 
C 54.686173 104.520985 54.582493 104.27068 54.397968 104.086154 
C 54.213442 103.901629 53.963137 103.797949 53.702178 103.797949 
C 53.44122 103.797949 53.190914 103.901629 53.006389 104.086154 
C 52.821863 104.27068 52.718183 104.520985 52.718183 104.781944 
C 52.718183 105.042902 52.821863 105.293208 53.006389 105.477733 
C 53.190914 105.662259 53.44122 105.765939 53.702178 105.765939 
z
" clip-path="url(#p1a08a15acf)" style="stroke: #000000"/>
    <path d="M 49.351863 89.663762 
C 49.484464 89.663762 49.611653 89.611079 49.705416 89.517315 
C 49.79918 89.423552 49.851863 89.296364 49.851863 89.163762 
C 49.851863 89.03116 49.79918 88.903972 49.705416 88.810209 
C 49.611653 88.716445 49.484464 88.663762 49.351863 88.663762 
C 49.219261 88.663762 49.092073 88.716445 48.998309 88.810209 
C 48.904546 88.903972 48.851863 89.03116 48.851863 89.163762 
C 48.851863 89.296364 48.904546 89.423552 48.998309 89.517315 
C 49.092073 89.611079 49.219261 89.663762 49.351863 89.663762 
z
" clip-path="url(#p1a08a15acf)" style="stroke: #000000"/>
    <path d="M 45.742809 79.679813 
C 45.875411 79.679813 46.002599 79.62713 46.096363 79.533366 
C 46.190126 79.439603 46.242809 79.312415 46.242809 79.179813 
C 46.242809 79.047212 46.190126 78.920023 46.096363 78.82626 
C 46.002599 78.732496 45.875411 78.679813 45.742809 78.679813 
C 45.610208 78.679813 45.48302 78.732496 45.389256 78.82626 
C 45.295493 78.920023 45.242809 79.047212 45.242809 79.179813 
C 45.242809 79.312415 45.295493 79.439603 45.389256 79.533366 
C 45.48302 79.62713 45.610208 79.679813 45.742809 79.679813 
z
" clip-path="url(#p1a08a15acf)" style="stroke: #000000"/>
    <path d="M 67.63187 159.709587 
C 67.764471 159.709587 67.89166 159.656903 67.985423 159.56314 
C 68.079187 159.469376 68.13187 159.342188 68.13187 159.209587 
C 68.13187 159.076985 68.079187 158.949797 67.985423 158.856033 
C 67.89166 158.76227 67.764471 158.709587 67.63187 158.709587 
C 67.499268 158.709587 67.37208 158.76227 67.278317 158.856033 
C 67.184553 158.949797 67.13187 159.076985 67.13187 159.209587 
C 67.13187 159.342188 67.184553 159.469376 67.278317 159.56314 
C 67.37208 159.656903 67.499268 159.709587 67.63187 159.709587 
z
" clip-path="url(#p1a08a15acf)" style="stroke: #000000"/>
    <path d="M 56.087413 125.881159 
C 56.374593 125.881159 56.650049 125.767062 56.853116 125.563995 
C 57.056183 125.360928 57.170281 125.085471 57.170281 124.798291 
C 57.170281 124.511111 57.056183 124.235654 56.853116 124.032587 
C 56.650049 123.82952 56.374593 123.715423 56.087413 123.715423 
C 55.800233 123.715423 55.524776 123.82952 55.321709 124.032587 
C 55.118642 124.235654 55.004544 124.511111 55.004544 124.798291 
C 55.004544 125.085471 55.118642 125.360928 55.321709 125.563995 
C 55.524776 125.767062 55.800233 125.881159 56.087413 125.881159 
z
" clip-path="url(#p1a08a15acf)" style="stroke: #000000"/>
    <path d="M 53.926743 117.03153 
C 54.27577 117.03153 54.610549 116.89286 54.857348 116.646061 
C 55.104147 116.399261 55.242817 116.064483 55.242817 115.715456 
C 55.242817 115.366429 55.104147 115.03165 54.857348 114.784851 
C 54.610549 114.538052 54.27577 114.399382 53.926743 114.399382 
C 53.577716 114.399382 53.242938 114.538052 52.996138 114.784851 
C 52.749339 115.03165 52.610669 115.366429 52.610669 115.715456 
C 52.610669 116.064483 52.749339 116.399261 52.996138 116.646061 
C 53.242938 116.89286 53.577716 117.03153 53.926743 117.03153 
z
" clip-path="url(#p1a08a15acf)" style="stroke: #000000"/>
    <path d="M 49.569168 110.362056 
C 50.119643 110.362056 50.647646 110.14335 51.036891 109.754105 
C 51.426135 109.364861 51.644842 108.836857 51.644842 108.286382 
C 51.644842 107.735907 51.426135 107.207904 51.036891 106.818659 
C 50.647646 106.429415 50.119643 106.210708 49.569168 106.210708 
C 49.018693 106.210708 48.490689 106.429415 48.101445 106.818659 
C 47.7122 107.207904 47.493494 107.735907 47.493494 108.286382 
C 47.493494 108.836857 47.7122 109.364861 48.101445 109.754105 
C 48.490689 110.14335 49.018693 110.362056 49.569168 110.362056 
z
" clip-path="url(#p1a08a15acf)" style="stroke: #000000"/>
    <path d="M 47.460595 98.040962 
C 47.648122 98.040962 47.827993 97.966457 47.960595 97.833856 
C 48.093196 97.701254 48.167702 97.521383 48.167702 97.333856 
C 48.167702 97.146329 48.093196 96.966457 47.960595 96.833856 
C 47.827993 96.701254 47.648122 96.626749 47.460595 96.626749 
C 47.273068 96.626749 47.093196 96.701254 46.960595 96.833856 
C 46.827993 96.966457 46.753488 97.146329 46.753488 97.333856 
C 46.753488 97.521383 46.827993 97.701254 46.960595 97.833856 
C 47.093196 97.966457 47.273068 98.040962 47.460595 98.040962 
z
" clip-path="url(#p1a08a15acf)" style="stroke: #000000"/>
    <path d="M 58.65243 142.514641 
C 58.859962 142.514641 59.059023 142.432187 59.205771 142.28544 
C 59.352518 142.138692 59.434972 141.939631 59.434972 141.732099 
C 59.434972 141.524566 59.352518 141.325505 59.205771 141.178758 
C 59.059023 141.03201 58.859962 140.949556 58.65243 140.949556 
C 58.444897 140.949556 58.245836 141.03201 58.099089 141.178758 
C 57.952341 141.325505 57.869887 141.524566 57.869887 141.732099 
C 57.869887 141.939631 57.952341 142.138692 58.099089 142.28544 
C 58.245836 142.432187 58.444897 142.514641 58.65243 142.514641 
z
" clip-path="url(#p1a08a15acf)" style="stroke: #000000"/>
    <path d="M 56.199886 138.858561 
C 56.502153 138.858561 56.792079 138.73847 57.005814 138.524735 
C 57.219548 138.311001 57.33964 138.021074 57.33964 137.718808 
C 57.33964 137.416542 57.219548 137.126615 57.005814 136.91288 
C 56.792079 136.699146 56.502153 136.579054 56.199886 136.579054 
C 55.89762 136.579054 55.607693 136.699146 55.393959 136.91288 
C 55.180225 137.126615 55.060133 137.416542 55.060133 137.718808 
C 55.060133 138.021074 55.180225 138.311001 55.393959 138.524735 
C 55.607693 138.73847 55.89762 138.858561 56.199886 138.858561 
z
" clip-path="url(#p1a08a15acf)" style="stroke: #000000"/>
    <path d="M 53.919855 132.030186 
C 54.310079 132.030186 54.684373 131.875148 54.960303 131.599218 
C 55.236233 131.323288 55.391271 130.948994 55.391271 130.55877 
C 55.391271 130.168546 55.236233 129.794252 54.960303 129.518322 
C 54.684373 129.242392 54.310079 129.087355 53.919855 129.087355 
C 53.529631 129.087355 53.155337 129.242392 52.879407 129.518322 
C 52.603477 129.794252 52.44844 130.168546 52.44844 130.55877 
C 52.44844 130.948994 52.603477 131.323288 52.879407 131.599218 
C 53.155337 131.875148 53.529631 132.030186 53.919855 132.030186 
z
" clip-path="url(#p1a08a15acf)" style="stroke: #000000"/>
    <path d="M 50.981351 119.333906 
C 51.237847 119.333906 51.483873 119.231999 51.665243 119.050629 
C 51.846613 118.869259 51.94852 118.623234 51.94852 118.366738 
C 51.94852 118.110242 51.846613 117.864217 51.665243 117.682847 
C 51.483873 117.501477 51.237847 117.39957 50.981351 117.39957 
C 50.724855 117.39957 50.47883 117.501477 50.29746 117.682847 
C 50.11609 117.864217 50.014183 118.110242 50.014183 118.366738 
C 50.014183 118.623234 50.11609 118.869259 50.29746 119.050629 
C 50.47883 119.231999 50.724855 119.333906 50.981351 119.333906 
z
" clip-path="url(#p1a08a15acf)" style="stroke: #000000"/>
    <path d="M 46.817958 110.030832 
C 46.95056 110.030832 47.077748 109.978149 47.171512 109.884386 
C 47.265275 109.790622 47.317958 109.663434 47.317958 109.530832 
C 47.317958 109.398231 47.265275 109.271042 47.171512 109.177279 
C 47.077748 109.083516 46.95056 109.030832 46.817958 109.030832 
C 46.685357 109.030832 46.558169 109.083516 46.464405 109.177279 
C 46.370642 109.271042 46.317958 109.398231 46.317958 109.530832 
C 46.317958 109.663434 46.370642 109.790622 46.464405 109.884386 
C 46.558169 109.978149 46.685357 110.030832 46.817958 110.030832 
z
" clip-path="url(#p1a08a15acf)" style="stroke: #000000"/>
    <path d="M 40.600971 97.820278 
C 40.836773 97.820278 41.06295 97.726592 41.229687 97.559855 
C 41.396425 97.393117 41.49011 97.166941 41.49011 96.931138 
C 41.49011 96.695335 41.396425 96.469159 41.229687 96.302421 
C 41.06295 96.135684 40.836773 96.041998 40.600971 96.041998 
C 40.365168 96.041998 40.138992 96.135684 39.972254 96.302421 
C 39.805516 96.469159 39.711831 96.695335 39.711831 96.931138 
C 39.711831 97.166941 39.805516 97.393117 39.972254 97.559855 
C 40.138992 97.726592 40.365168 97.820278 40.600971 97.820278 
z
" clip-path="url(#p1a08a15acf)" style="stroke: #000000"/>
    <path d="M 47.466621 129.020182 
C 47.599222 129.020182 47.726411 128.967498 47.820174 128.873735 
C 47.913937 128.779971 47.966621 128.652783 47.966621 128.520182 
C 47.966621 128.38758 47.913937 128.260392 47.820174 128.166628 
C 47.726411 128.072865 47.599222 128.020182 47.466621 128.020182 
C 47.334019 128.020182 47.206831 128.072865 47.113067 128.166628 
C 47.019304 128.260392 46.966621 128.38758 46.966621 128.520182 
C 46.966621 128.652783 47.019304 128.779971 47.113067 128.873735 
C 47.206831 128.967498 47.334019 129.020182 47.466621 129.020182 
z
" clip-path="url(#p1a08a15acf)" style="stroke: #000000"/>
    <path d="M 44.270998 120.282039 
C 44.558178 120.282039 44.833635 120.167941 45.036702 119.964874 
C 45.239769 119.761807 45.353867 119.486351 45.353867 119.199171 
C 45.353867 118.911991 45.239769 118.636534 45.036702 118.433467 
C 44.833635 118.2304 44.558178 118.116302 44.270998 118.116302 
C 43.983818 118.116302 43.708362 118.2304 43.505295 118.433467 
C 43.302228 118.636534 43.18813 118.911991 43.18813 119.199171 
C 43.18813 119.486351 43.302228 119.761807 43.505295 119.964874 
C 43.708362 120.167941 43.983818 120.282039 44.270998 120.282039 
z
" clip-path="url(#p1a08a15acf)" style="stroke: #000000"/>
    <path d="M 38.246001 97.883818 
C 38.378602 97.883818 38.505791 97.831134 38.599554 97.737371 
C 38.693318 97.643608 38.746001 97.516419 38.746001 97.383818 
C 38.746001 97.251216 38.693318 97.124028 38.599554 97.030264 
C 38.505791 96.936501 38.378602 96.883818 38.246001 96.883818 
C 38.113399 96.883818 37.986211 96.936501 37.892448 97.030264 
C 37.798684 97.124028 37.746001 97.251216 37.746001 97.383818 
C 37.746001 97.516419 37.798684 97.643608 37.892448 97.737371 
C 37.986211 97.831134 38.113399 97.883818 38.246001 97.883818 
z
" clip-path="url(#p1a08a15acf)" style="stroke: #000000"/>
    <path d="M 50.365471 147.089875 
C 50.498072 147.089875 50.62526 147.037192 50.719024 146.943429 
C 50.812787 146.849665 50.865471 146.722477 50.865471 146.589875 
C 50.865471 146.457274 50.812787 146.330085 50.719024 146.236322 
C 50.62526 146.142559 50.498072 146.089875 50.365471 146.089875 
C 50.232869 146.089875 50.105681 146.142559 50.011917 146.236322 
C 49.918154 146.330085 49.865471 146.457274 49.865471 146.589875 
C 49.865471 146.722477 49.918154 146.849665 50.011917 146.943429 
C 50.105681 147.037192 50.232869 147.089875 50.365471 147.089875 
z
" clip-path="url(#p1a08a15acf)" style="stroke: #000000"/>
    <path d="M 35.514586 109.046743 
C 35.6891 109.046743 35.856489 108.977408 35.979889 108.854009 
C 36.103288 108.730609 36.172623 108.56322 36.172623 108.388706 
C 36.172623 108.214193 36.103288 108.046803 35.979889 107.923404 
C 35.856489 107.800004 35.6891 107.730669 35.514586 107.730669 
C 35.340073 107.730669 35.172683 107.800004 35.049284 107.923404 
C 34.925884 108.046803 34.856549 108.214193 34.856549 108.388706 
C 34.856549 108.56322 34.925884 108.730609 35.049284 108.854009 
C 35.172683 108.977408 35.340073 109.046743 35.514586 109.046743 
z
" clip-path="url(#p1a08a15acf)" style="stroke: #000000"/>
    <path d="M 45.173347 148.11495 
C 45.305948 148.11495 45.433137 148.062266 45.5269 147.968503 
C 45.620664 147.87474 45.673347 147.747551 45.673347 147.61495 
C 45.673347 147.482348 45.620664 147.35516 45.5269 147.261396 
C 45.433137 147.167633 45.305948 147.11495 45.173347 147.11495 
C 45.040745 147.11495 44.913557 147.167633 44.819793 147.261396 
C 44.72603 147.35516 44.673347 147.482348 44.673347 147.61495 
C 44.673347 147.747551 44.72603 147.87474 44.819793 147.968503 
C 44.913557 148.062266 45.040745 148.11495 45.173347 148.11495 
z
" clip-path="url(#p1a08a15acf)" style="stroke: #000000"/>
   </g>
   <g id="matplotlib.axis_1">
    <g id="xtick_1">
     <g id="line2d_1">
      <defs>
       <path id="m89ac77ab2a" d="M 0 0 
L 0 3.5 
" style="stroke: #000000; stroke-width: 0.8"/>
      </defs>
      <g>
       <use xlink:href="#m89ac77ab2a" x="18" y="189" style="stroke: #000000; stroke-width: 0.8"/>
      </g>
     </g>
     <g id="text_1">
      <!-- 10 -->
      <g transform="translate(7.447656 203.598437)scale(0.1 -0.1)">
       <defs>
        <path id="DejaVuSans-2212" d="M 678 2272 
L 4684 2272 
L 4684 1741 
L 678 1741 
L 678 2272 
z
" transform="scale(0.015625)"/>
        <path id="DejaVuSans-31" d="M 794 531 
L 1825 531 
L 1825 4091 
L 703 3866 
L 703 4441 
L 1819 4666 
L 2450 4666 
L 2450 531 
L 3481 531 
L 3481 0 
L 794 0 
L 794 531 
z
" transform="scale(0.015625)"/>
        <path id="DejaVuSans-30" d="M 2034 4250 
Q 1547 4250 1301 3770 
Q 1056 3291 1056 2328 
Q 1056 1369 1301 889 
Q 1547 409 2034 409 
Q 2525 409 2770 889 
Q 3016 1369 3016 2328 
Q 3016 3291 2770 3770 
Q 2525 4250 2034 4250 
z
M 2034 4750 
Q 2819 4750 3233 4129 
Q 3647 3509 3647 2328 
Q 3647 1150 3233 529 
Q 2819 -91 2034 -91 
Q 1250 -91 836 529 
Q 422 1150 422 2328 
Q 422 3509 836 4129 
Q 1250 4750 2034 4750 
z
" transform="scale(0.015625)"/>
       </defs>
       <use xlink:href="#DejaVuSans-2212"/>
       <use xlink:href="#DejaVuSans-31" x="83.789062"/>
       <use xlink:href="#DejaVuSans-30" x="147.412109"/>
      </g>
     </g>
    </g>
    <g id="xtick_2">
     <g id="line2d_2">
      <g>
       <use xlink:href="#m89ac77ab2a" x="73.8" y="189" style="stroke: #000000; stroke-width: 0.8"/>
      </g>
     </g>
     <g id="text_2">
      <!-- 0 -->
      <g transform="translate(70.61875 203.598437)scale(0.1 -0.1)">
       <use xlink:href="#DejaVuSans-30"/>
      </g>
     </g>
    </g>
    <g id="xtick_3">
     <g id="line2d_3">
      <g>
       <use xlink:href="#m89ac77ab2a" x="129.6" y="189" style="stroke: #000000; stroke-width: 0.8"/>
      </g>
     </g>
     <g id="text_3">
      <!-- 10 -->
      <g transform="translate(123.2375 203.598437)scale(0.1 -0.1)">
       <use xlink:href="#DejaVuSans-31"/>
       <use xlink:href="#DejaVuSans-30" x="63.623047"/>
      </g>
     </g>
    </g>
   </g>
   <g id="matplotlib.axis_2">
    <g id="ytick_1">
     <g id="line2d_4">
      <defs>
       <path id="m10d2aeaedb" d="M 0 0 
L -3.5 0 
" style="stroke: #000000; stroke-width: 0.8"/>
      </defs>
      <g>
       <use xlink:href="#m10d2aeaedb" x="18" y="189" style="stroke: #000000; stroke-width: 0.8"/>
      </g>
     </g>
     <g id="text_4">
      <!-- 15 -->
      <g transform="translate(-10.104688 192.799219)scale(0.1 -0.1)">
       <defs>
        <path id="DejaVuSans-35" d="M 691 4666 
L 3169 4666 
L 3169 4134 
L 1269 4134 
L 1269 2991 
Q 1406 3038 1543 3061 
Q 1681 3084 1819 3084 
Q 2600 3084 3056 2656 
Q 3513 2228 3513 1497 
Q 3513 744 3044 326 
Q 2575 -91 1722 -91 
Q 1428 -91 1123 -41 
Q 819 9 494 109 
L 494 744 
Q 775 591 1075 516 
Q 1375 441 1709 441 
Q 2250 441 2565 725 
Q 2881 1009 2881 1497 
Q 2881 1984 2565 2268 
Q 2250 2553 1709 2553 
Q 1456 2553 1204 2497 
Q 953 2441 691 2322 
L 691 4666 
z
" transform="scale(0.015625)"/>
       </defs>
       <use xlink:href="#DejaVuSans-2212"/>
       <use xlink:href="#DejaVuSans-31" x="83.789062"/>
       <use xlink:href="#DejaVuSans-35" x="147.412109"/>
      </g>
     </g>
    </g>
    <g id="ytick_2">
     <g id="line2d_5">
      <g>
       <use xlink:href="#m10d2aeaedb" x="18" y="161.82" style="stroke: #000000; stroke-width: 0.8"/>
      </g>
     </g>
     <g id="text_5">
      <!-- 10 -->
      <g transform="translate(-10.104688 165.619219)scale(0.1 -0.1)">
       <use xlink:href="#DejaVuSans-2212"/>
       <use xlink:href="#DejaVuSans-31" x="83.789062"/>
       <use xlink:href="#DejaVuSans-30" x="147.412109"/>
      </g>
     </g>
    </g>
    <g id="ytick_3">
     <g id="line2d_6">
      <g>
       <use xlink:href="#m10d2aeaedb" x="18" y="134.64" style="stroke: #000000; stroke-width: 0.8"/>
      </g>
     </g>
     <g id="text_6">
      <!-- 5 -->
      <g transform="translate(-3.742188 138.439219)scale(0.1 -0.1)">
       <use xlink:href="#DejaVuSans-2212"/>
       <use xlink:href="#DejaVuSans-35" x="83.789062"/>
      </g>
     </g>
    </g>
    <g id="ytick_4">
     <g id="line2d_7">
      <g>
       <use xlink:href="#m10d2aeaedb" x="18" y="107.46" style="stroke: #000000; stroke-width: 0.8"/>
      </g>
     </g>
     <g id="text_7">
      <!-- 0 -->
      <g transform="translate(4.6375 111.259219)scale(0.1 -0.1)">
       <use xlink:href="#DejaVuSans-30"/>
      </g>
     </g>
    </g>
    <g id="ytick_5">
     <g id="line2d_8">
      <g>
       <use xlink:href="#m10d2aeaedb" x="18" y="80.28" style="stroke: #000000; stroke-width: 0.8"/>
      </g>
     </g>
     <g id="text_8">
      <!-- 5 -->
      <g transform="translate(4.6375 84.079219)scale(0.1 -0.1)">
       <use xlink:href="#DejaVuSans-35"/>
      </g>
     </g>
    </g>
    <g id="ytick_6">
     <g id="line2d_9">
      <g>
       <use xlink:href="#m10d2aeaedb" x="18" y="53.1" style="stroke: #000000; stroke-width: 0.8"/>
      </g>
     </g>
     <g id="text_9">
      <!-- 10 -->
      <g transform="translate(-1.725 56.899219)scale(0.1 -0.1)">
       <use xlink:href="#DejaVuSans-31"/>
       <use xlink:href="#DejaVuSans-30" x="63.623047"/>
      </g>
     </g>
    </g>
    <g id="ytick_7">
     <g id="line2d_10">
      <g>
       <use xlink:href="#m10d2aeaedb" x="18" y="25.92" style="stroke: #000000; stroke-width: 0.8"/>
      </g>
     </g>
     <g id="text_10">
      <!-- 15 -->
      <g transform="translate(-1.725 29.719219)scale(0.1 -0.1)">
       <use xlink:href="#DejaVuSans-31"/>
       <use xlink:href="#DejaVuSans-35" x="63.623047"/>
      </g>
     </g>
    </g>
   </g>
   <g id="patch_3">
    <path d="M 18 189 
L 18 25.92 
" style="fill: none; stroke: #000000; stroke-width: 0.8; stroke-linejoin: miter; stroke-linecap: square"/>
   </g>
   <g id="patch_4">
    <path d="M 129.6 189 
L 129.6 25.92 
" style="fill: none; stroke: #000000; stroke-width: 0.8; stroke-linejoin: miter; stroke-linecap: square"/>
   </g>
   <g id="patch_5">
    <path d="M 18 189 
L 129.6 189 
" style="fill: none; stroke: #000000; stroke-width: 0.8; stroke-linejoin: miter; stroke-linecap: square"/>
   </g>
   <g id="patch_6">
    <path d="M 18 25.92 
L 129.6 25.92 
" style="fill: none; stroke: #000000; stroke-width: 0.8; stroke-linejoin: miter; stroke-linecap: square"/>
   </g>
  </g>
 </g>
 <defs>
  <clipPath id="p1a08a15acf">
   <rect x="18" y="25.92" width="111.6" height="163.08"/>
  </clipPath>
 </defs>
</svg>
