<?xml version="1.0" encoding="utf-8" standalone="no"?>
<!DOCTYPE svg PUBLIC "-//W3C//DTD SVG 1.1//EN"
  "http://www.w3.org/Graphics/SVG/1.1/DTD/svg11.dtd">
<svg xmlns:xlink="http://www.w3.org/1999/xlink" width="144pt" height="216pt" viewBox="0 0 144 216" xmlns="http://www.w3.org/2000/svg" version="1.1">
 <metadata>
  <rdf:RDF xmlns:dc="http://purl.org/dc/elements/1.1/" xmlns:cc="http://creativecommons.org/ns#" xmlns:rdf="http://www.w3.org/1999/02/22-rdf-syntax-ns#">
   <cc:Work>
    <dc:type rdf:resource="http://purl.org/dc/dcmitype/StillImage"/>
    <dc:date>2022-06-23T14:43:15.185922</dc:date>
    <dc:format>image/svg+xml</dc:format>
    <dc:creator>
     <cc:Agent>
      <dc:title>Matplotlib v3.5.1, https://matplotlib.org/</dc:title>
     </cc:Agent>
    </dc:creator>
   </cc:Work>
  </rdf:RDF>
 </metadata>
 <defs>
  <style type="text/css">*{stroke-linejoin: round; stroke-linecap: butt}</style>
 </defs>
 <g id="figure_1">
  <g id="patch_1">
   <path d="M 0 216 
L 144 216 
L 144 0 
L 0 0 
L 0 216 
z
" style="fill: none"/>
  </g>
  <g id="axes_1">
   <g id="patch_2">
    <path d="M 18 189 
L 129.6 189 
L 129.6 25.92 
L 18 25.92 
z
" style="fill: #ffffff"/>
   </g>
   <g id="PathCollection_1">
    <defs>
     <path id="m27520e4197" d="M 0 2.738613 
C 0.726289 2.738613 1.422928 2.450055 1.936492 1.936492 
C 2.450055 1.422928 2.738613 0.726289 2.738613 0 
C 2.738613 -0.726289 2.450055 -1.422928 1.936492 -1.936492 
C 1.422928 -2.450055 0.726289 -2.738613 0 -2.738613 
C -0.726289 -2.738613 -1.422928 -2.450055 -1.936492 -1.936492 
C -2.450055 -1.422928 -2.738613 -0.726289 -2.738613 0 
C -2.738613 0.726289 -2.450055 1.422928 -1.936492 1.936492 
C -1.422928 2.450055 -0.726289 2.738613 0 2.738613 
z
" style="stroke: #ff0000; stroke-width: 1.75"/>
    </defs>
    <g clip-path="url(#pa72f1f899c)">
     <use xlink:href="#m27520e4197" x="80.775" y="107.46" style="fill: #ff0000; stroke: #ff0000; stroke-width: 1.75"/>
     <use xlink:href="#m27520e4197" x="94.725" y="107.46" style="fill: #ff0000; stroke: #ff0000; stroke-width: 1.75"/>
     <use xlink:href="#m27520e4197" x="59.85" y="119.229285" style="fill: #ff0000; stroke: #ff0000; stroke-width: 1.75"/>
     <use xlink:href="#m27520e4197" x="73.8" y="119.229285" style="fill: #ff0000; stroke: #ff0000; stroke-width: 1.75"/>
     <use xlink:href="#m27520e4197" x="87.75" y="119.229285" style="fill: #ff0000; stroke: #ff0000; stroke-width: 1.75"/>
     <use xlink:href="#m27520e4197" x="66.825" y="130.99857" style="fill: #ff0000; stroke: #ff0000; stroke-width: 1.75"/>
     <use xlink:href="#m27520e4197" x="80.775" y="130.99857" style="fill: #ff0000; stroke: #ff0000; stroke-width: 1.75"/>
    </g>
   </g>
   <g id="PathCollection_2">
    <defs>
     <path id="C0_0_9910d65ead" d="M 0 2.738613 
C 0.726289 2.738613 1.422928 2.450055 1.936492 1.936492 
C 2.450055 1.422928 2.738613 0.726289 2.738613 -0 
C 2.738613 -0.726289 2.450055 -1.422928 1.936492 -1.936492 
C 1.422928 -2.450055 0.726289 -2.738613 0 -2.738613 
C -0.726289 -2.738613 -1.422928 -2.450055 -1.936492 -1.936492 
C -2.450055 -1.422928 -2.738613 -0.726289 -2.738613 0 
C -2.738613 0.726289 -2.450055 1.422928 -1.936492 1.936492 
C -1.422928 2.450055 -0.726289 2.738613 0 2.738613 
z
"/>
    </defs>
    <g clip-path="url(#pa72f1f899c)">
     <use xlink:href="#C0_0_9910d65ead" x="66.825" y="83.92143" style="fill: none; stroke: #ff0000; stroke-width: 1.75"/>
    </g>
    <g clip-path="url(#pa72f1f899c)">
     <use xlink:href="#C0_0_9910d65ead" x="80.775" y="83.92143" style="fill: none; stroke: #ff0000; stroke-width: 1.75"/>
    </g>
    <g clip-path="url(#pa72f1f899c)">
     <use xlink:href="#C0_0_9910d65ead" x="59.85" y="95.690715" style="fill: none; stroke: #ff0000; stroke-width: 1.75"/>
    </g>
    <g clip-path="url(#pa72f1f899c)">
     <use xlink:href="#C0_0_9910d65ead" x="73.8" y="95.690715" style="fill: none; stroke: #ff0000; stroke-width: 1.75"/>
    </g>
    <g clip-path="url(#pa72f1f899c)">
     <use xlink:href="#C0_0_9910d65ead" x="87.75" y="95.690715" style="fill: none; stroke: #ff0000; stroke-width: 1.75"/>
    </g>
    <g clip-path="url(#pa72f1f899c)">
     <use xlink:href="#C0_0_9910d65ead" x="52.875" y="107.46" style="fill: none; stroke: #ff0000; stroke-width: 1.75"/>
    </g>
    <g clip-path="url(#pa72f1f899c)">
     <use xlink:href="#C0_0_9910d65ead" x="66.825" y="107.46" style="fill: none; stroke: #ff0000; stroke-width: 1.75"/>
    </g>
   </g>
   <g id="PathCollection_3">
    <path d="M 123.171528 160.738872 
C 123.30413 160.738872 123.431318 160.686189 123.525082 160.592426 
C 123.618845 160.498662 123.671528 160.371474 123.671528 160.238872 
C 123.671528 160.106271 123.618845 159.979082 123.525082 159.885319 
C 123.431318 159.791555 123.30413 159.738872 123.171528 159.738872 
C 123.038927 159.738872 122.911738 159.791555 122.817975 159.885319 
C 122.724211 159.979082 122.671528 160.106271 122.671528 160.238872 
C 122.671528 160.371474 122.724211 160.498662 122.817975 160.592426 
C 122.911738 160.686189 123.038927 160.738872 123.171528 160.738872 
z
" clip-path="url(#pa72f1f899c)" style="stroke: #000000"/>
    <path d="M 98.008779 109.451302 
C 98.563831 109.451302 99.096223 109.230778 99.488704 108.838297 
C 99.881184 108.445817 100.101709 107.913424 100.101709 107.358373 
C 100.101709 106.803321 99.881184 106.270928 99.488704 105.878448 
C 99.096223 105.485967 98.563831 105.265443 98.008779 105.265443 
C 97.453728 105.265443 96.921335 105.485967 96.528855 105.878448 
C 96.136374 106.270928 95.91585 106.803321 95.91585 107.358373 
C 95.91585 107.913424 96.136374 108.445817 96.528855 108.838297 
C 96.921335 109.230778 97.453728 109.451302 98.008779 109.451302 
z
" clip-path="url(#pa72f1f899c)" style="stroke: #000000"/>
    <path d="M 89.632762 90.814628 
C 89.765363 90.814628 89.892552 90.761945 89.986315 90.668182 
C 90.080079 90.574418 90.132762 90.44723 90.132762 90.314628 
C 90.132762 90.182027 90.080079 90.054838 89.986315 89.961075 
C 89.892552 89.867311 89.765363 89.814628 89.632762 89.814628 
C 89.50016 89.814628 89.372972 89.867311 89.279209 89.961075 
C 89.185445 90.054838 89.132762 90.182027 89.132762 90.314628 
C 89.132762 90.44723 89.185445 90.574418 89.279209 90.668182 
C 89.372972 90.761945 89.50016 90.814628 89.632762 90.814628 
z
" clip-path="url(#pa72f1f899c)" style="stroke: #000000"/>
    <path d="M 92.926597 117.210851 
C 93.1624 117.210851 93.388576 117.117166 93.555314 116.950428 
C 93.722051 116.783691 93.815737 116.557514 93.815737 116.321712 
C 93.815737 116.085909 93.722051 115.859733 93.555314 115.692995 
C 93.388576 115.526257 93.1624 115.432572 92.926597 115.432572 
C 92.690794 115.432572 92.464618 115.526257 92.29788 115.692995 
C 92.131143 115.859733 92.037457 116.085909 92.037457 116.321712 
C 92.037457 116.557514 92.131143 116.783691 92.29788 116.950428 
C 92.464618 117.117166 92.690794 117.210851 92.926597 117.210851 
z
" clip-path="url(#pa72f1f899c)" style="stroke: #000000"/>
    <path d="M 91.201616 111.744815 
C 91.557697 111.744815 91.899243 111.603342 92.15103 111.351555 
C 92.402818 111.099767 92.544291 110.758222 92.544291 110.40214 
C 92.544291 110.046059 92.402818 109.704514 92.15103 109.452726 
C 91.899243 109.200938 91.557697 109.059465 91.201616 109.059465 
C 90.845534 109.059465 90.503989 109.200938 90.252201 109.452726 
C 90.000414 109.704514 89.858941 110.046059 89.858941 110.40214 
C 89.858941 110.758222 90.000414 111.099767 90.252201 111.351555 
C 90.503989 111.603342 90.845534 111.744815 91.201616 111.744815 
z
" clip-path="url(#pa72f1f899c)" style="stroke: #000000"/>
    <path d="M 84.753346 98.79539 
C 85.287848 98.79539 85.800531 98.58303 86.178481 98.20508 
C 86.556431 97.827129 86.768791 97.314447 86.768791 96.779945 
C 86.768791 96.245442 86.556431 95.73276 86.178481 95.35481 
C 85.800531 94.97686 85.287848 94.7645 84.753346 94.7645 
C 84.218844 94.7645 83.706161 94.97686 83.328211 95.35481 
C 82.950261 95.73276 82.737901 96.245442 82.737901 96.779945 
C 82.737901 97.314447 82.950261 97.827129 83.328211 98.20508 
C 83.706161 98.58303 84.218844 98.79539 84.753346 98.79539 
z
" clip-path="url(#pa72f1f899c)" style="stroke: #000000"/>
    <path d="M 80.333692 92.307535 
C 80.491383 92.307535 80.642636 92.244884 80.75414 92.13338 
C 80.865644 92.021875 80.928296 91.870622 80.928296 91.712931 
C 80.928296 91.555241 80.865644 91.403987 80.75414 91.292483 
C 80.642636 91.180979 80.491383 91.118328 80.333692 91.118328 
C 80.176001 91.118328 80.024748 91.180979 79.913244 91.292483 
C 79.80174 91.403987 79.739088 91.555241 79.739088 91.712931 
C 79.739088 91.870622 79.80174 92.021875 79.913244 92.13338 
C 80.024748 92.244884 80.176001 92.307535 80.333692 92.307535 
z
" clip-path="url(#pa72f1f899c)" style="stroke: #000000"/>
    <path d="M 81.552985 86.848682 
C 82.086472 86.848682 82.59818 86.636725 82.975413 86.259493 
C 83.352645 85.882261 83.564602 85.370552 83.564602 84.837065 
C 83.564602 84.303578 83.352645 83.791869 82.975413 83.414637 
C 82.59818 83.037404 82.086472 82.825448 81.552985 82.825448 
C 81.019498 82.825448 80.507789 83.037404 80.130557 83.414637 
C 79.753324 83.791869 79.541368 84.303578 79.541368 84.837065 
C 79.541368 85.370552 79.753324 85.882261 80.130557 86.259493 
C 80.507789 86.636725 81.019498 86.848682 81.552985 86.848682 
z
" clip-path="url(#pa72f1f899c)" style="stroke: #000000"/>
    <path d="M 83.488968 83.36959 
C 83.87523 83.36959 84.245723 83.216126 84.518851 82.942998 
C 84.79198 82.66987 84.945443 82.299376 84.945443 81.913114 
C 84.945443 81.526853 84.79198 81.156359 84.518851 80.883231 
C 84.245723 80.610103 83.87523 80.456639 83.488968 80.456639 
C 83.102706 80.456639 82.732212 80.610103 82.459084 80.883231 
C 82.185956 81.156359 82.032492 81.526853 82.032492 81.913114 
C 82.032492 82.299376 82.185956 82.66987 82.459084 82.942998 
C 82.732212 83.216126 83.102706 83.36959 83.488968 83.36959 
z
" clip-path="url(#pa72f1f899c)" style="stroke: #000000"/>
    <path d="M 80.539147 73.950354 
C 80.671748 73.950354 80.798937 73.897671 80.8927 73.803907 
C 80.986464 73.710144 81.039147 73.582955 81.039147 73.450354 
C 81.039147 73.317752 80.986464 73.190564 80.8927 73.0968 
C 80.798937 73.003037 80.671748 72.950354 80.539147 72.950354 
C 80.406545 72.950354 80.279357 73.003037 80.185593 73.0968 
C 80.09183 73.190564 80.039147 73.317752 80.039147 73.450354 
C 80.039147 73.582955 80.09183 73.710144 80.185593 73.803907 
C 80.279357 73.897671 80.406545 73.950354 80.539147 73.950354 
z
" clip-path="url(#pa72f1f899c)" style="stroke: #000000"/>
    <path d="M 91.587425 139.335866 
C 91.720027 139.335866 91.847215 139.283182 91.940979 139.189419 
C 92.034742 139.095656 92.087425 138.968467 92.087425 138.835866 
C 92.087425 138.703264 92.034742 138.576076 91.940979 138.482312 
C 91.847215 138.388549 91.720027 138.335866 91.587425 138.335866 
C 91.454824 138.335866 91.327635 138.388549 91.233872 138.482312 
C 91.140109 138.576076 91.087425 138.703264 91.087425 138.835866 
C 91.087425 138.968467 91.140109 139.095656 91.233872 139.189419 
C 91.327635 139.283182 91.454824 139.335866 91.587425 139.335866 
z
" clip-path="url(#pa72f1f899c)" style="stroke: #000000"/>
    <path d="M 88.92534 125.341661 
C 89.221846 125.341661 89.506248 125.223858 89.715909 125.014197 
C 89.925571 124.804535 90.043374 124.520133 90.043374 124.223627 
C 90.043374 123.927121 89.925571 123.642719 89.715909 123.433058 
C 89.506248 123.223397 89.221846 123.105593 88.92534 123.105593 
C 88.628834 123.105593 88.344432 123.223397 88.13477 123.433058 
C 87.925109 123.642719 87.807306 123.927121 87.807306 124.223627 
C 87.807306 124.520133 87.925109 124.804535 88.13477 125.014197 
C 88.344432 125.223858 88.628834 125.341661 88.92534 125.341661 
z
" clip-path="url(#pa72f1f899c)" style="stroke: #000000"/>
    <path d="M 87.156478 120.822685 
C 87.769908 120.822685 88.358296 120.578967 88.792057 120.145207 
C 89.225817 119.711446 89.469536 119.123058 89.469536 118.509628 
C 89.469536 117.896198 89.225817 117.30781 88.792057 116.87405 
C 88.358296 116.440289 87.769908 116.196571 87.156478 116.196571 
C 86.543049 116.196571 85.954661 116.440289 85.5209 116.87405 
C 85.08714 117.30781 84.843421 117.896198 84.843421 118.509628 
C 84.843421 119.123058 85.08714 119.711446 85.5209 120.145207 
C 85.954661 120.578967 86.543049 120.822685 87.156478 120.822685 
z
" clip-path="url(#pa72f1f899c)" style="stroke: #000000"/>
    <path d="M 86.086439 112.285501 
C 86.293972 112.285501 86.493032 112.203048 86.63978 112.0563 
C 86.786528 111.909552 86.868981 111.710492 86.868981 111.502959 
C 86.868981 111.295426 86.786528 111.096366 86.63978 110.949618 
C 86.493032 110.80287 86.293972 110.720417 86.086439 110.720417 
C 85.878906 110.720417 85.679846 110.80287 85.533098 110.949618 
C 85.38635 111.096366 85.303897 111.295426 85.303897 111.502959 
C 85.303897 111.710492 85.38635 111.909552 85.533098 112.0563 
C 85.679846 112.203048 85.878906 112.285501 86.086439 112.285501 
z
" clip-path="url(#pa72f1f899c)" style="stroke: #000000"/>
    <path d="M 82.87718 106.869705 
C 83.315141 106.869705 83.735223 106.695702 84.044908 106.386017 
C 84.354593 106.076331 84.528597 105.656249 84.528597 105.218288 
C 84.528597 104.780328 84.354593 104.360245 84.044908 104.05056 
C 83.735223 103.740875 83.315141 103.566871 82.87718 103.566871 
C 82.439219 103.566871 82.019137 103.740875 81.709452 104.05056 
C 81.399766 104.360245 81.225763 104.780328 81.225763 105.218288 
C 81.225763 105.656249 81.399766 106.076331 81.709452 106.386017 
C 82.019137 106.695702 82.439219 106.869705 82.87718 106.869705 
z
" clip-path="url(#pa72f1f899c)" style="stroke: #000000"/>
    <path d="M 75.300486 95.498326 
C 75.766082 95.498326 76.212672 95.313343 76.541898 94.984117 
C 76.871124 94.654891 77.056108 94.208301 77.056108 93.742705 
C 77.056108 93.277109 76.871124 92.830519 76.541898 92.501293 
C 76.212672 92.172067 75.766082 91.987083 75.300486 91.987083 
C 74.83489 91.987083 74.388301 92.172067 74.059074 92.501293 
C 73.729848 92.830519 73.544865 93.277109 73.544865 93.742705 
C 73.544865 94.208301 73.729848 94.654891 74.059074 94.984117 
C 74.388301 95.313343 74.83489 95.498326 75.300486 95.498326 
z
" clip-path="url(#pa72f1f899c)" style="stroke: #000000"/>
    <path d="M 76.444142 86.744513 
C 76.791336 86.744513 77.124358 86.606571 77.369861 86.361068 
C 77.615365 86.115564 77.753307 85.782543 77.753307 85.435348 
C 77.753307 85.088153 77.615365 84.755132 77.369861 84.509628 
C 77.124358 84.264125 76.791336 84.126183 76.444142 84.126183 
C 76.096947 84.126183 75.763926 84.264125 75.518422 84.509628 
C 75.272918 84.755132 75.134976 85.088153 75.134976 85.435348 
C 75.134976 85.782543 75.272918 86.115564 75.518422 86.361068 
C 75.763926 86.606571 76.096947 86.744513 76.444142 86.744513 
z
" clip-path="url(#pa72f1f899c)" style="stroke: #000000"/>
    <path d="M 96.11377 171.72229 
C 96.246371 171.72229 96.37356 171.669607 96.467323 171.575844 
C 96.561086 171.48208 96.61377 171.354892 96.61377 171.22229 
C 96.61377 171.089689 96.561086 170.9625 96.467323 170.868737 
C 96.37356 170.774973 96.246371 170.72229 96.11377 170.72229 
C 95.981168 170.72229 95.85398 170.774973 95.760216 170.868737 
C 95.666453 170.9625 95.61377 171.089689 95.61377 171.22229 
C 95.61377 171.354892 95.666453 171.48208 95.760216 171.575844 
C 95.85398 171.669607 95.981168 171.72229 96.11377 171.72229 
z
" clip-path="url(#pa72f1f899c)" style="stroke: #000000"/>
    <path d="M 84.274408 134.667889 
C 84.448922 134.667889 84.616311 134.598554 84.739711 134.475154 
C 84.86311 134.351754 84.932445 134.184365 84.932445 134.009852 
C 84.932445 133.835338 84.86311 133.667949 84.739711 133.544549 
C 84.616311 133.42115 84.448922 133.351815 84.274408 133.351815 
C 84.099895 133.351815 83.932505 133.42115 83.809106 133.544549 
C 83.685706 133.667949 83.616371 133.835338 83.616371 134.009852 
C 83.616371 134.184365 83.685706 134.351754 83.809106 134.475154 
C 83.932505 134.598554 84.099895 134.667889 84.274408 134.667889 
z
" clip-path="url(#pa72f1f899c)" style="stroke: #000000"/>
    <path d="M 83.85413 127.339596 
C 84.028644 127.339596 84.196033 127.270261 84.319433 127.146861 
C 84.442832 127.023461 84.512167 126.856072 84.512167 126.681559 
C 84.512167 126.507045 84.442832 126.339656 84.319433 126.216256 
C 84.196033 126.092857 84.028644 126.023522 83.85413 126.023522 
C 83.679617 126.023522 83.512228 126.092857 83.388828 126.216256 
C 83.265428 126.339656 83.196093 126.507045 83.196093 126.681559 
C 83.196093 126.856072 83.265428 127.023461 83.388828 127.146861 
C 83.512228 127.270261 83.679617 127.339596 83.85413 127.339596 
z
" clip-path="url(#pa72f1f899c)" style="stroke: #000000"/>
    <path d="M 79.883286 120.629827 
C 80.040976 120.629827 80.19223 120.567176 80.303734 120.455672 
C 80.415238 120.344168 80.477889 120.192914 80.477889 120.035224 
C 80.477889 119.877533 80.415238 119.72628 80.303734 119.614776 
C 80.19223 119.503271 80.040976 119.44062 79.883286 119.44062 
C 79.725595 119.44062 79.574341 119.503271 79.462837 119.614776 
C 79.351333 119.72628 79.288682 119.877533 79.288682 120.035224 
C 79.288682 120.192914 79.351333 120.344168 79.462837 120.455672 
C 79.574341 120.567176 79.725595 120.629827 79.883286 120.629827 
z
" clip-path="url(#pa72f1f899c)" style="stroke: #000000"/>
    <path d="M 74.191025 98.024576 
C 74.701712 98.024576 75.191551 97.821678 75.55266 97.460568 
C 75.91377 97.099458 76.116668 96.609619 76.116668 96.098933 
C 76.116668 95.588247 75.91377 95.098408 75.55266 94.737298 
C 75.191551 94.376188 74.701712 94.17329 74.191025 94.17329 
C 73.680339 94.17329 73.1905 94.376188 72.829391 94.737298 
C 72.468281 95.098408 72.265383 95.588247 72.265383 96.098933 
C 72.265383 96.609619 72.468281 97.099458 72.829391 97.460568 
C 73.1905 97.821678 73.680339 98.024576 74.191025 98.024576 
z
" clip-path="url(#pa72f1f899c)" style="stroke: #000000"/>
    <path d="M 68.00015 91.09433 
C 68.174664 91.09433 68.342053 91.024995 68.465453 90.901595 
C 68.588852 90.778196 68.658187 90.610806 68.658187 90.436293 
C 68.658187 90.26178 68.588852 90.09439 68.465453 89.970991 
C 68.342053 89.847591 68.174664 89.778256 68.00015 89.778256 
C 67.825637 89.778256 67.658248 89.847591 67.534848 89.970991 
C 67.411448 90.09439 67.342113 90.26178 67.342113 90.436293 
C 67.342113 90.610806 67.411448 90.778196 67.534848 90.901595 
C 67.658248 91.024995 67.825637 91.09433 68.00015 91.09433 
z
" clip-path="url(#pa72f1f899c)" style="stroke: #000000"/>
    <path d="M 67.726982 87.829526 
C 68.293003 87.829526 68.835919 87.604643 69.236156 87.204405 
C 69.636394 86.804167 69.861277 86.261252 69.861277 85.69523 
C 69.861277 85.129209 69.636394 84.586293 69.236156 84.186056 
C 68.835919 83.785818 68.293003 83.560935 67.726982 83.560935 
C 67.16096 83.560935 66.618045 83.785818 66.217807 84.186056 
C 65.817569 84.586293 65.592686 85.129209 65.592686 85.69523 
C 65.592686 86.261252 65.817569 86.804167 66.217807 87.204405 
C 66.618045 87.604643 67.16096 87.829526 67.726982 87.829526 
z
" clip-path="url(#pa72f1f899c)" style="stroke: #000000"/>
    <path d="M 62.747239 78.193542 
C 62.879841 78.193542 63.007029 78.140859 63.100792 78.047096 
C 63.194556 77.953332 63.247239 77.826144 63.247239 77.693542 
C 63.247239 77.560941 63.194556 77.433753 63.100792 77.339989 
C 63.007029 77.246226 62.879841 77.193542 62.747239 77.193542 
C 62.614638 77.193542 62.487449 77.246226 62.393686 77.339989 
C 62.299922 77.433753 62.247239 77.560941 62.247239 77.693542 
C 62.247239 77.826144 62.299922 77.953332 62.393686 78.047096 
C 62.487449 78.140859 62.614638 78.193542 62.747239 78.193542 
z
" clip-path="url(#pa72f1f899c)" style="stroke: #000000"/>
    <path d="M 76.969601 130.794932 
C 77.402887 130.794932 77.818485 130.622786 78.124865 130.316406 
C 78.431245 130.010026 78.603391 129.594428 78.603391 129.161142 
C 78.603391 128.727856 78.431245 128.312258 78.124865 128.005878 
C 77.818485 127.699499 77.402887 127.527352 76.969601 127.527352 
C 76.536315 127.527352 76.120717 127.699499 75.814337 128.005878 
C 75.507958 128.312258 75.335811 128.727856 75.335811 129.161142 
C 75.335811 129.594428 75.507958 130.010026 75.814337 130.316406 
C 76.120717 130.622786 76.536315 130.794932 76.969601 130.794932 
z
" clip-path="url(#pa72f1f899c)" style="stroke: #000000"/>
    <path d="M 74.348924 124.520782 
C 74.741723 124.520782 75.118488 124.364721 75.396239 124.08697 
C 75.673991 123.809218 75.830052 123.432454 75.830052 123.039654 
C 75.830052 122.646854 75.673991 122.270089 75.396239 121.992338 
C 75.118488 121.714586 74.741723 121.558525 74.348924 121.558525 
C 73.956124 121.558525 73.579359 121.714586 73.301608 121.992338 
C 73.023856 122.270089 72.867795 122.646854 72.867795 123.039654 
C 72.867795 123.432454 73.023856 123.809218 73.301608 124.08697 
C 73.579359 124.364721 73.956124 124.520782 74.348924 124.520782 
z
" clip-path="url(#pa72f1f899c)" style="stroke: #000000"/>
    <path d="M 73.674052 117.358899 
C 74.026659 117.358899 74.364872 117.218807 74.614203 116.969476 
C 74.863534 116.720145 75.003626 116.381932 75.003626 116.029325 
C 75.003626 115.676718 74.863534 115.338505 74.614203 115.089174 
C 74.364872 114.839843 74.026659 114.699751 73.674052 114.699751 
C 73.321445 114.699751 72.983232 114.839843 72.733901 115.089174 
C 72.484571 115.338505 72.344478 115.676718 72.344478 116.029325 
C 72.344478 116.381932 72.484571 116.720145 72.733901 116.969476 
C 72.983232 117.218807 73.321445 117.358899 73.674052 117.358899 
z
" clip-path="url(#pa72f1f899c)" style="stroke: #000000"/>
    <path d="M 67.99351 102.616639 
C 68.151201 102.616639 68.302454 102.553988 68.413958 102.442484 
C 68.525463 102.33098 68.588114 102.179727 68.588114 102.022036 
C 68.588114 101.864345 68.525463 101.713092 68.413958 101.601588 
C 68.302454 101.490084 68.151201 101.427432 67.99351 101.427432 
C 67.835819 101.427432 67.684566 101.490084 67.573062 101.601588 
C 67.461558 101.713092 67.398907 101.864345 67.398907 102.022036 
C 67.398907 102.179727 67.461558 102.33098 67.573062 102.442484 
C 67.684566 102.553988 67.835819 102.616639 67.99351 102.616639 
z
" clip-path="url(#pa72f1f899c)" style="stroke: #000000"/>
    <path d="M 62.343992 87.53757 
C 62.590792 87.53757 62.827516 87.439516 63.002029 87.265002 
C 63.176543 87.090489 63.274597 86.853765 63.274597 86.606965 
C 63.274597 86.360166 63.176543 86.123442 63.002029 85.948928 
C 62.827516 85.774415 62.590792 85.67636 62.343992 85.67636 
C 62.097193 85.67636 61.860469 85.774415 61.685955 85.948928 
C 61.511442 86.123442 61.413387 86.360166 61.413387 86.606965 
C 61.413387 86.853765 61.511442 87.090489 61.685955 87.265002 
C 61.860469 87.439516 62.097193 87.53757 62.343992 87.53757 
z
" clip-path="url(#pa72f1f899c)" style="stroke: #000000"/>
    <path d="M 71.797972 129.992732 
C 71.930574 129.992732 72.057762 129.940049 72.151526 129.846285 
C 72.245289 129.752522 72.297972 129.625333 72.297972 129.492732 
C 72.297972 129.36013 72.245289 129.232942 72.151526 129.139178 
C 72.057762 129.045415 71.930574 128.992732 71.797972 128.992732 
C 71.665371 128.992732 71.538182 129.045415 71.444419 129.139178 
C 71.350655 129.232942 71.297972 129.36013 71.297972 129.492732 
C 71.297972 129.625333 71.350655 129.752522 71.444419 129.846285 
C 71.538182 129.940049 71.665371 129.992732 71.797972 129.992732 
z
" clip-path="url(#pa72f1f899c)" style="stroke: #000000"/>
    <path d="M 67.310872 125.223588 
C 67.571831 125.223588 67.822136 125.119908 68.006662 124.935382 
C 68.191187 124.750857 68.294867 124.500551 68.294867 124.239593 
C 68.294867 123.978634 68.191187 123.728329 68.006662 123.543803 
C 67.822136 123.359278 67.571831 123.255598 67.310872 123.255598 
C 67.049914 123.255598 66.799608 123.359278 66.615083 123.543803 
C 66.430557 123.728329 66.326877 123.978634 66.326877 124.239593 
C 66.326877 124.500551 66.430557 124.750857 66.615083 124.935382 
C 66.799608 125.119908 67.049914 125.223588 67.310872 125.223588 
z
" clip-path="url(#pa72f1f899c)" style="stroke: #000000"/>
    <path d="M 58.760401 101.71321 
C 59.138352 101.71321 59.500873 101.563049 59.768124 101.295798 
C 60.035375 101.028546 60.185536 100.666025 60.185536 100.288075 
C 60.185536 99.910125 60.035375 99.547604 59.768124 99.280352 
C 59.500873 99.013101 59.138352 98.86294 58.760401 98.86294 
C 58.382451 98.86294 58.01993 99.013101 57.752679 99.280352 
C 57.485428 99.547604 57.335266 99.910125 57.335266 100.288075 
C 57.335266 100.666025 57.485428 101.028546 57.752679 101.295798 
C 58.01993 101.563049 58.382451 101.71321 58.760401 101.71321 
z
" clip-path="url(#pa72f1f899c)" style="stroke: #000000"/>
    <path d="M 55.790045 95.918075 
C 56.080435 95.918075 56.358969 95.802702 56.564306 95.597366 
C 56.769642 95.39203 56.885015 95.113495 56.885015 94.823106 
C 56.885015 94.532717 56.769642 94.254182 56.564306 94.048846 
C 56.358969 93.843509 56.080435 93.728136 55.790045 93.728136 
C 55.499656 93.728136 55.221121 93.843509 55.015785 94.048846 
C 54.810449 94.254182 54.695076 94.532717 54.695076 94.823106 
C 54.695076 95.113495 54.810449 95.39203 55.015785 95.597366 
C 55.221121 95.802702 55.499656 95.918075 55.790045 95.918075 
z
" clip-path="url(#pa72f1f899c)" style="stroke: #000000"/>
    <path d="M 64.24106 133.899801 
C 64.779566 133.899801 65.296089 133.68585 65.676871 133.305069 
C 66.057652 132.924287 66.271603 132.407764 66.271603 131.869258 
C 66.271603 131.330751 66.057652 130.814228 65.676871 130.433447 
C 65.296089 130.052665 64.779566 129.838714 64.24106 129.838714 
C 63.702554 129.838714 63.186031 130.052665 62.805249 130.433447 
C 62.424468 130.814228 62.210517 131.330751 62.210517 131.869258 
C 62.210517 132.407764 62.424468 132.924287 62.805249 133.305069 
C 63.186031 133.68585 63.702554 133.899801 64.24106 133.899801 
z
" clip-path="url(#pa72f1f899c)" style="stroke: #000000"/>
    <path d="M 59.068395 123.416586 
C 59.617475 123.416586 60.14414 123.198434 60.532398 122.810176 
C 60.920656 122.421918 61.138807 121.895254 61.138807 121.346174 
C 61.138807 120.797094 60.920656 120.270429 60.532398 119.882171 
C 60.14414 119.493913 59.617475 119.275761 59.068395 119.275761 
C 58.519315 119.275761 57.992651 119.493913 57.604393 119.882171 
C 57.216135 120.270429 56.997983 120.797094 56.997983 121.346174 
C 56.997983 121.895254 57.216135 122.421918 57.604393 122.810176 
C 57.992651 123.198434 58.519315 123.416586 59.068395 123.416586 
z
" clip-path="url(#pa72f1f899c)" style="stroke: #000000"/>
    <path d="M 59.717937 118.708024 
C 60.230929 118.708024 60.722979 118.50421 61.08572 118.14147 
C 61.44846 117.778729 61.652274 117.286679 61.652274 116.773687 
C 61.652274 116.260695 61.44846 115.768645 61.08572 115.405905 
C 60.722979 115.043165 60.230929 114.839351 59.717937 114.839351 
C 59.204945 114.839351 58.712895 115.043165 58.350155 115.405905 
C 57.987415 115.768645 57.783601 116.260695 57.783601 116.773687 
C 57.783601 117.286679 57.987415 117.778729 58.350155 118.14147 
C 58.712895 118.50421 59.204945 118.708024 59.717937 118.708024 
z
" clip-path="url(#pa72f1f899c)" style="stroke: #000000"/>
    <path d="M 54.696897 112.084903 
C 55.036456 112.084903 55.362154 111.949995 55.602258 111.70989 
C 55.842363 111.469785 55.977272 111.144088 55.977272 110.804528 
C 55.977272 110.464969 55.842363 110.139271 55.602258 109.899166 
C 55.362154 109.659062 55.036456 109.524153 54.696897 109.524153 
C 54.357337 109.524153 54.03164 109.659062 53.791535 109.899166 
C 53.55143 110.139271 53.416522 110.464969 53.416522 110.804528 
C 53.416522 111.144088 53.55143 111.469785 53.791535 111.70989 
C 54.03164 111.949995 54.357337 112.084903 54.696897 112.084903 
z
" clip-path="url(#pa72f1f899c)" style="stroke: #000000"/>
    <path d="M 51.49129 103.512486 
C 51.738089 103.512486 51.974813 103.414432 52.149327 103.239918 
C 52.32384 103.065405 52.421895 102.82868 52.421895 102.581881 
C 52.421895 102.335082 52.32384 102.098358 52.149327 101.923844 
C 51.974813 101.749331 51.738089 101.651276 51.49129 101.651276 
C 51.244491 101.651276 51.007766 101.749331 50.833253 101.923844 
C 50.658739 102.098358 50.560685 102.335082 50.560685 102.581881 
C 50.560685 102.82868 50.658739 103.065405 50.833253 103.239918 
C 51.007766 103.414432 51.244491 103.512486 51.49129 103.512486 
z
" clip-path="url(#pa72f1f899c)" style="stroke: #000000"/>
    <path d="M 54.242404 119.744674 
C 54.375006 119.744674 54.502194 119.691991 54.595957 119.598228 
C 54.689721 119.504464 54.742404 119.377276 54.742404 119.244674 
C 54.742404 119.112073 54.689721 118.984884 54.595957 118.891121 
C 54.502194 118.797357 54.375006 118.744674 54.242404 118.744674 
C 54.109803 118.744674 53.982614 118.797357 53.888851 118.891121 
C 53.795087 118.984884 53.742404 119.112073 53.742404 119.244674 
C 53.742404 119.377276 53.795087 119.504464 53.888851 119.598228 
C 53.982614 119.691991 54.109803 119.744674 54.242404 119.744674 
z
" clip-path="url(#pa72f1f899c)" style="stroke: #000000"/>
    <path d="M 47.400257 106.216089 
C 47.647056 106.216089 47.883781 106.118034 48.058294 105.943521 
C 48.232808 105.769008 48.330862 105.532283 48.330862 105.285484 
C 48.330862 105.038685 48.232808 104.80196 48.058294 104.627447 
C 47.883781 104.452934 47.647056 104.354879 47.400257 104.354879 
C 47.153458 104.354879 46.916734 104.452934 46.74222 104.627447 
C 46.567707 104.80196 46.469652 105.038685 46.469652 105.285484 
C 46.469652 105.532283 46.567707 105.769008 46.74222 105.943521 
C 46.916734 106.118034 47.153458 106.216089 47.400257 106.216089 
z
" clip-path="url(#pa72f1f899c)" style="stroke: #000000"/>
   </g>
   <g id="matplotlib.axis_1">
    <g id="xtick_1">
     <g id="line2d_1">
      <defs>
       <path id="m2005deac13" d="M 0 0 
L 0 3.5 
" style="stroke: #000000; stroke-width: 0.8"/>
      </defs>
      <g>
       <use xlink:href="#m2005deac13" x="18" y="189" style="stroke: #000000; stroke-width: 0.8"/>
      </g>
     </g>
     <g id="text_1">
      <!-- −10 -->
      <g transform="translate(7.447656 203.598437)scale(0.1 -0.1)">
       <defs>
        <path id="DejaVuSans-2212" d="M 678 2272 
L 4684 2272 
L 4684 1741 
L 678 1741 
L 678 2272 
z
" transform="scale(0.015625)"/>
        <path id="DejaVuSans-31" d="M 794 531 
L 1825 531 
L 1825 4091 
L 703 3866 
L 703 4441 
L 1819 4666 
L 2450 4666 
L 2450 531 
L 3481 531 
L 3481 0 
L 794 0 
L 794 531 
z
" transform="scale(0.015625)"/>
        <path id="DejaVuSans-30" d="M 2034 4250 
Q 1547 4250 1301 3770 
Q 1056 3291 1056 2328 
Q 1056 1369 1301 889 
Q 1547 409 2034 409 
Q 2525 409 2770 889 
Q 3016 1369 3016 2328 
Q 3016 3291 2770 3770 
Q 2525 4250 2034 4250 
z
M 2034 4750 
Q 2819 4750 3233 4129 
Q 3647 3509 3647 2328 
Q 3647 1150 3233 529 
Q 2819 -91 2034 -91 
Q 1250 -91 836 529 
Q 422 1150 422 2328 
Q 422 3509 836 4129 
Q 1250 4750 2034 4750 
z
" transform="scale(0.015625)"/>
       </defs>
       <use xlink:href="#DejaVuSans-2212"/>
       <use xlink:href="#DejaVuSans-31" x="83.789062"/>
       <use xlink:href="#DejaVuSans-30" x="147.412109"/>
      </g>
     </g>
    </g>
    <g id="xtick_2">
     <g id="line2d_2">
      <g>
       <use xlink:href="#m2005deac13" x="73.8" y="189" style="stroke: #000000; stroke-width: 0.8"/>
      </g>
     </g>
     <g id="text_2">
      <!-- 0 -->
      <g transform="translate(70.61875 203.598437)scale(0.1 -0.1)">
       <use xlink:href="#DejaVuSans-30"/>
      </g>
     </g>
    </g>
    <g id="xtick_3">
     <g id="line2d_3">
      <g>
       <use xlink:href="#m2005deac13" x="129.6" y="189" style="stroke: #000000; stroke-width: 0.8"/>
      </g>
     </g>
     <g id="text_3">
      <!-- 10 -->
      <g transform="translate(123.2375 203.598437)scale(0.1 -0.1)">
       <use xlink:href="#DejaVuSans-31"/>
       <use xlink:href="#DejaVuSans-30" x="63.623047"/>
      </g>
     </g>
    </g>
   </g>
   <g id="matplotlib.axis_2">
    <g id="ytick_1">
     <g id="line2d_4">
      <defs>
       <path id="m56b75a3651" d="M 0 0 
L -3.5 0 
" style="stroke: #000000; stroke-width: 0.8"/>
      </defs>
      <g>
       <use xlink:href="#m56b75a3651" x="18" y="189" style="stroke: #000000; stroke-width: 0.8"/>
      </g>
     </g>
     <g id="text_4">
      <!-- −15 -->
      <g transform="translate(-10.104688 192.799219)scale(0.1 -0.1)">
       <defs>
        <path id="DejaVuSans-35" d="M 691 4666 
L 3169 4666 
L 3169 4134 
L 1269 4134 
L 1269 2991 
Q 1406 3038 1543 3061 
Q 1681 3084 1819 3084 
Q 2600 3084 3056 2656 
Q 3513 2228 3513 1497 
Q 3513 744 3044 326 
Q 2575 -91 1722 -91 
Q 1428 -91 1123 -41 
Q 819 9 494 109 
L 494 744 
Q 775 591 1075 516 
Q 1375 441 1709 441 
Q 2250 441 2565 725 
Q 2881 1009 2881 1497 
Q 2881 1984 2565 2268 
Q 2250 2553 1709 2553 
Q 1456 2553 1204 2497 
Q 953 2441 691 2322 
L 691 4666 
z
" transform="scale(0.015625)"/>
       </defs>
       <use xlink:href="#DejaVuSans-2212"/>
       <use xlink:href="#DejaVuSans-31" x="83.789062"/>
       <use xlink:href="#DejaVuSans-35" x="147.412109"/>
      </g>
     </g>
    </g>
    <g id="ytick_2">
     <g id="line2d_5">
      <g>
       <use xlink:href="#m56b75a3651" x="18" y="161.82" style="stroke: #000000; stroke-width: 0.8"/>
      </g>
     </g>
     <g id="text_5">
      <!-- −10 -->
      <g transform="translate(-10.104688 165.619219)scale(0.1 -0.1)">
       <use xlink:href="#DejaVuSans-2212"/>
       <use xlink:href="#DejaVuSans-31" x="83.789062"/>
       <use xlink:href="#DejaVuSans-30" x="147.412109"/>
      </g>
     </g>
    </g>
    <g id="ytick_3">
     <g id="line2d_6">
      <g>
       <use xlink:href="#m56b75a3651" x="18" y="134.64" style="stroke: #000000; stroke-width: 0.8"/>
      </g>
     </g>
     <g id="text_6">
      <!-- −5 -->
      <g transform="translate(-3.742188 138.439219)scale(0.1 -0.1)">
       <use xlink:href="#DejaVuSans-2212"/>
       <use xlink:href="#DejaVuSans-35" x="83.789062"/>
      </g>
     </g>
    </g>
    <g id="ytick_4">
     <g id="line2d_7">
      <g>
       <use xlink:href="#m56b75a3651" x="18" y="107.46" style="stroke: #000000; stroke-width: 0.8"/>
      </g>
     </g>
     <g id="text_7">
      <!-- 0 -->
      <g transform="translate(4.6375 111.259219)scale(0.1 -0.1)">
       <use xlink:href="#DejaVuSans-30"/>
      </g>
     </g>
    </g>
    <g id="ytick_5">
     <g id="line2d_8">
      <g>
       <use xlink:href="#m56b75a3651" x="18" y="80.28" style="stroke: #000000; stroke-width: 0.8"/>
      </g>
     </g>
     <g id="text_8">
      <!-- 5 -->
      <g transform="translate(4.6375 84.079219)scale(0.1 -0.1)">
       <use xlink:href="#DejaVuSans-35"/>
      </g>
     </g>
    </g>
    <g id="ytick_6">
     <g id="line2d_9">
      <g>
       <use xlink:href="#m56b75a3651" x="18" y="53.1" style="stroke: #000000; stroke-width: 0.8"/>
      </g>
     </g>
     <g id="text_9">
      <!-- 10 -->
      <g transform="translate(-1.725 56.899219)scale(0.1 -0.1)">
       <use xlink:href="#DejaVuSans-31"/>
       <use xlink:href="#DejaVuSans-30" x="63.623047"/>
      </g>
     </g>
    </g>
    <g id="ytick_7">
     <g id="line2d_10">
      <g>
       <use xlink:href="#m56b75a3651" x="18" y="25.92" style="stroke: #000000; stroke-width: 0.8"/>
      </g>
     </g>
     <g id="text_10">
      <!-- 15 -->
      <g transform="translate(-1.725 29.719219)scale(0.1 -0.1)">
       <use xlink:href="#DejaVuSans-31"/>
       <use xlink:href="#DejaVuSans-35" x="63.623047"/>
      </g>
     </g>
    </g>
   </g>
   <g id="patch_3">
    <path d="M 18 189 
L 18 25.92 
" style="fill: none; stroke: #000000; stroke-width: 0.8; stroke-linejoin: miter; stroke-linecap: square"/>
   </g>
   <g id="patch_4">
    <path d="M 129.6 189 
L 129.6 25.92 
" style="fill: none; stroke: #000000; stroke-width: 0.8; stroke-linejoin: miter; stroke-linecap: square"/>
   </g>
   <g id="patch_5">
    <path d="M 18 189 
L 129.6 189 
" style="fill: none; stroke: #000000; stroke-width: 0.8; stroke-linejoin: miter; stroke-linecap: square"/>
   </g>
   <g id="patch_6">
    <path d="M 18 25.92 
L 129.6 25.92 
" style="fill: none; stroke: #000000; stroke-width: 0.8; stroke-linejoin: miter; stroke-linecap: square"/>
   </g>
  </g>
 </g>
 <defs>
  <clipPath id="pa72f1f899c">
   <rect x="18" y="25.92" width="111.6" height="163.08"/>
  </clipPath>
 </defs>
</svg>
