<?xml version="1.0" encoding="utf-8" standalone="no"?>
<!DOCTYPE svg PUBLIC "-//W3C//DTD SVG 1.1//EN"
  "http://www.w3.org/Graphics/SVG/1.1/DTD/svg11.dtd">
<svg xmlns:xlink="http://www.w3.org/1999/xlink" width="144pt" height="216pt" viewBox="0 0 144 216" xmlns="http://www.w3.org/2000/svg" version="1.1">
 <metadata>
  <rdf:RDF xmlns:dc="http://purl.org/dc/elements/1.1/" xmlns:cc="http://creativecommons.org/ns#" xmlns:rdf="http://www.w3.org/1999/02/22-rdf-syntax-ns#">
   <cc:Work>
    <dc:type rdf:resource="http://purl.org/dc/dcmitype/StillImage"/>
    <dc:date>2022-06-23T14:43:10.302006</dc:date>
    <dc:format>image/svg+xml</dc:format>
    <dc:creator>
     <cc:Agent>
      <dc:title>Matplotlib v3.5.1, https://matplotlib.org/</dc:title>
     </cc:Agent>
    </dc:creator>
   </cc:Work>
  </rdf:RDF>
 </metadata>
 <defs>
  <style type="text/css">*{stroke-linejoin: round; stroke-linecap: butt}</style>
 </defs>
 <g id="figure_1">
  <g id="patch_1">
   <path d="M 0 216 
L 144 216 
L 144 0 
L 0 0 
L 0 216 
z
" style="fill: none"/>
  </g>
  <g id="axes_1">
   <g id="patch_2">
    <path d="M 18 189 
L 129.6 189 
L 129.6 25.92 
L 18 25.92 
z
" style="fill: #ffffff"/>
   </g>
   <g id="PathCollection_1">
    <defs>
     <path id="m1f59bb639c" d="M 0 2.738613 
C 0.726289 2.738613 1.422928 2.450055 1.936492 1.936492 
C 2.450055 1.422928 2.738613 0.726289 2.738613 0 
C 2.738613 -0.726289 2.450055 -1.422928 1.936492 -1.936492 
C 1.422928 -2.450055 0.726289 -2.738613 0 -2.738613 
C -0.726289 -2.738613 -1.422928 -2.450055 -1.936492 -1.936492 
C -2.450055 -1.422928 -2.738613 -0.726289 -2.738613 0 
C -2.738613 0.726289 -2.450055 1.422928 -1.936492 1.936492 
C -1.422928 2.450055 -0.726289 2.738613 0 2.738613 
z
" style="stroke: #ff0000; stroke-width: 1.75"/>
    </defs>
    <g clip-path="url(#pf8e445bc56)">
     <use xlink:href="#m1f59bb639c" x="80.775" y="107.46" style="fill: #ff0000; stroke: #ff0000; stroke-width: 1.75"/>
     <use xlink:href="#m1f59bb639c" x="94.725" y="107.46" style="fill: #ff0000; stroke: #ff0000; stroke-width: 1.75"/>
     <use xlink:href="#m1f59bb639c" x="59.85" y="119.229285" style="fill: #ff0000; stroke: #ff0000; stroke-width: 1.75"/>
     <use xlink:href="#m1f59bb639c" x="73.8" y="119.229285" style="fill: #ff0000; stroke: #ff0000; stroke-width: 1.75"/>
     <use xlink:href="#m1f59bb639c" x="87.75" y="119.229285" style="fill: #ff0000; stroke: #ff0000; stroke-width: 1.75"/>
     <use xlink:href="#m1f59bb639c" x="66.825" y="130.99857" style="fill: #ff0000; stroke: #ff0000; stroke-width: 1.75"/>
     <use xlink:href="#m1f59bb639c" x="80.775" y="130.99857" style="fill: #ff0000; stroke: #ff0000; stroke-width: 1.75"/>
    </g>
   </g>
   <g id="PathCollection_2">
    <defs>
     <path id="C0_0_cb7dbc0d79" d="M 0 2.738613 
C 0.726289 2.738613 1.422928 2.450055 1.936492 1.936492 
C 2.450055 1.422928 2.738613 0.726289 2.738613 -0 
C 2.738613 -0.726289 2.450055 -1.422928 1.936492 -1.936492 
C 1.422928 -2.450055 0.726289 -2.738613 0 -2.738613 
C -0.726289 -2.738613 -1.422928 -2.450055 -1.936492 -1.936492 
C -2.450055 -1.422928 -2.738613 -0.726289 -2.738613 0 
C -2.738613 0.726289 -2.450055 1.422928 -1.936492 1.936492 
C -1.422928 2.450055 -0.726289 2.738613 0 2.738613 
z
"/>
    </defs>
    <g clip-path="url(#pf8e445bc56)">
     <use xlink:href="#C0_0_cb7dbc0d79" x="66.825" y="83.92143" style="fill: none; stroke: #ff0000; stroke-width: 1.75"/>
    </g>
    <g clip-path="url(#pf8e445bc56)">
     <use xlink:href="#C0_0_cb7dbc0d79" x="80.775" y="83.92143" style="fill: none; stroke: #ff0000; stroke-width: 1.75"/>
    </g>
    <g clip-path="url(#pf8e445bc56)">
     <use xlink:href="#C0_0_cb7dbc0d79" x="59.85" y="95.690715" style="fill: none; stroke: #ff0000; stroke-width: 1.75"/>
    </g>
    <g clip-path="url(#pf8e445bc56)">
     <use xlink:href="#C0_0_cb7dbc0d79" x="73.8" y="95.690715" style="fill: none; stroke: #ff0000; stroke-width: 1.75"/>
    </g>
    <g clip-path="url(#pf8e445bc56)">
     <use xlink:href="#C0_0_cb7dbc0d79" x="87.75" y="95.690715" style="fill: none; stroke: #ff0000; stroke-width: 1.75"/>
    </g>
    <g clip-path="url(#pf8e445bc56)">
     <use xlink:href="#C0_0_cb7dbc0d79" x="52.875" y="107.46" style="fill: none; stroke: #ff0000; stroke-width: 1.75"/>
    </g>
    <g clip-path="url(#pf8e445bc56)">
     <use xlink:href="#C0_0_cb7dbc0d79" x="66.825" y="107.46" style="fill: none; stroke: #ff0000; stroke-width: 1.75"/>
    </g>
   </g>
   <g id="PathCollection_3">
    <path d="M 101.716387 73.853336 
C 101.848989 73.853336 101.976177 73.800653 102.06994 73.706889 
C 102.163704 73.613126 102.216387 73.485937 102.216387 73.353336 
C 102.216387 73.220734 102.163704 73.093546 102.06994 72.999782 
C 101.976177 72.906019 101.848989 72.853336 101.716387 72.853336 
C 101.583785 72.853336 101.456597 72.906019 101.362834 72.999782 
C 101.26907 73.093546 101.216387 73.220734 101.216387 73.353336 
C 101.216387 73.485937 101.26907 73.613126 101.362834 73.706889 
C 101.456597 73.800653 101.583785 73.853336 101.716387 73.853336 
z
" clip-path="url(#pf8e445bc56)" style="stroke: #000000"/>
    <path d="M 114.293616 157.965669 
C 114.426218 157.965669 114.553406 157.912986 114.647169 157.819223 
C 114.740933 157.725459 114.793616 157.598271 114.793616 157.465669 
C 114.793616 157.333068 114.740933 157.205879 114.647169 157.112116 
C 114.553406 157.018352 114.426218 156.965669 114.293616 156.965669 
C 114.161015 156.965669 114.033826 157.018352 113.940063 157.112116 
C 113.846299 157.205879 113.793616 157.333068 113.793616 157.465669 
C 113.793616 157.598271 113.846299 157.725459 113.940063 157.819223 
C 114.033826 157.912986 114.161015 157.965669 114.293616 157.965669 
z
" clip-path="url(#pf8e445bc56)" style="stroke: #000000"/>
    <path d="M 98.008779 109.442728 
C 98.561557 109.442728 99.091768 109.223107 99.482641 108.832234 
C 99.873514 108.441362 100.093134 107.91115 100.093134 107.358373 
C 100.093134 106.805595 99.873514 106.275383 99.482641 105.884511 
C 99.091768 105.493638 98.561557 105.274017 98.008779 105.274017 
C 97.456002 105.274017 96.92579 105.493638 96.534917 105.884511 
C 96.144045 106.275383 95.924424 106.805595 95.924424 107.358373 
C 95.924424 107.91115 96.144045 108.441362 96.534917 108.832234 
C 96.92579 109.223107 97.456002 109.442728 98.008779 109.442728 
z
" clip-path="url(#pf8e445bc56)" style="stroke: #000000"/>
    <path d="M 89.632762 90.814628 
C 89.765363 90.814628 89.892552 90.761945 89.986315 90.668182 
C 90.080079 90.574418 90.132762 90.44723 90.132762 90.314628 
C 90.132762 90.182027 90.080079 90.054838 89.986315 89.961075 
C 89.892552 89.867311 89.765363 89.814628 89.632762 89.814628 
C 89.50016 89.814628 89.372972 89.867311 89.279209 89.961075 
C 89.185445 90.054838 89.132762 90.182027 89.132762 90.314628 
C 89.132762 90.44723 89.185445 90.574418 89.279209 90.668182 
C 89.372972 90.761945 89.50016 90.814628 89.632762 90.814628 
z
" clip-path="url(#pf8e445bc56)" style="stroke: #000000"/>
    <path d="M 102.423346 137.814215 
C 102.555947 137.814215 102.683136 137.761532 102.776899 137.667768 
C 102.870663 137.574005 102.923346 137.446816 102.923346 137.314215 
C 102.923346 137.181613 102.870663 137.054425 102.776899 136.960661 
C 102.683136 136.866898 102.555947 136.814215 102.423346 136.814215 
C 102.290744 136.814215 102.163556 136.866898 102.069792 136.960661 
C 101.976029 137.054425 101.923346 137.181613 101.923346 137.314215 
C 101.923346 137.446816 101.976029 137.574005 102.069792 137.667768 
C 102.163556 137.761532 102.290744 137.814215 102.423346 137.814215 
z
" clip-path="url(#pf8e445bc56)" style="stroke: #000000"/>
    <path d="M 92.926597 117.336983 
C 93.19585 117.336983 93.454112 117.230008 93.644502 117.039617 
C 93.834893 116.849226 93.941868 116.590965 93.941868 116.321712 
C 93.941868 116.052459 93.834893 115.794197 93.644502 115.603806 
C 93.454112 115.413416 93.19585 115.30644 92.926597 115.30644 
C 92.657344 115.30644 92.399082 115.413416 92.208691 115.603806 
C 92.018301 115.794197 91.911325 116.052459 91.911325 116.321712 
C 91.911325 116.590965 92.018301 116.849226 92.208691 117.039617 
C 92.399082 117.230008 92.657344 117.336983 92.926597 117.336983 
z
" clip-path="url(#pf8e445bc56)" style="stroke: #000000"/>
    <path d="M 91.201616 111.832643 
C 91.58099 111.832643 91.944876 111.681916 92.213134 111.413659 
C 92.481392 111.145401 92.632119 110.781514 92.632119 110.40214 
C 92.632119 110.022767 92.481392 109.65888 92.213134 109.390622 
C 91.944876 109.122364 91.58099 108.971638 91.201616 108.971638 
C 90.822242 108.971638 90.458355 109.122364 90.190098 109.390622 
C 89.92184 109.65888 89.771113 110.022767 89.771113 110.40214 
C 89.771113 110.781514 89.92184 111.145401 90.190098 111.413659 
C 90.458355 111.681916 90.822242 111.832643 91.201616 111.832643 
z
" clip-path="url(#pf8e445bc56)" style="stroke: #000000"/>
    <path d="M 84.753346 98.823428 
C 85.295284 98.823428 85.815099 98.608114 86.198307 98.224906 
C 86.581515 97.841697 86.796829 97.321883 86.796829 96.779945 
C 86.796829 96.238007 86.581515 95.718192 86.198307 95.334984 
C 85.815099 94.951776 85.295284 94.736462 84.753346 94.736462 
C 84.211408 94.736462 83.691593 94.951776 83.308385 95.334984 
C 82.925177 95.718192 82.709863 96.238007 82.709863 96.779945 
C 82.709863 97.321883 82.925177 97.841697 83.308385 98.224906 
C 83.691593 98.608114 84.211408 98.823428 84.753346 98.823428 
z
" clip-path="url(#pf8e445bc56)" style="stroke: #000000"/>
    <path d="M 80.333692 92.602071 
C 80.569495 92.602071 80.795671 92.508386 80.962409 92.341648 
C 81.129146 92.17491 81.222832 91.948734 81.222832 91.712931 
C 81.222832 91.477129 81.129146 91.250952 80.962409 91.084215 
C 80.795671 90.917477 80.569495 90.823792 80.333692 90.823792 
C 80.097889 90.823792 79.871713 90.917477 79.704975 91.084215 
C 79.538238 91.250952 79.444552 91.477129 79.444552 91.712931 
C 79.444552 91.948734 79.538238 92.17491 79.704975 92.341648 
C 79.871713 92.508386 80.097889 92.602071 80.333692 92.602071 
z
" clip-path="url(#pf8e445bc56)" style="stroke: #000000"/>
    <path d="M 81.552985 86.84676 
C 82.085962 86.84676 82.597182 86.635006 82.974054 86.258134 
C 83.350925 85.881262 83.56268 85.370042 83.56268 84.837065 
C 83.56268 84.304087 83.350925 83.792868 82.974054 83.415996 
C 82.597182 83.039124 82.085962 82.82737 81.552985 82.82737 
C 81.020007 82.82737 80.508788 83.039124 80.131916 83.415996 
C 79.755044 83.792868 79.54329 84.304087 79.54329 84.837065 
C 79.54329 85.370042 79.755044 85.881262 80.131916 86.258134 
C 80.508788 86.635006 81.020007 86.84676 81.552985 86.84676 
z
" clip-path="url(#pf8e445bc56)" style="stroke: #000000"/>
    <path d="M 83.488968 83.364506 
C 83.873881 83.364506 84.243082 83.211578 84.515257 82.939403 
C 84.787432 82.667228 84.940359 82.298028 84.940359 81.913114 
C 84.940359 81.528201 84.787432 81.159001 84.515257 80.886826 
C 84.243082 80.614651 83.873881 80.461723 83.488968 80.461723 
C 83.104054 80.461723 82.734854 80.614651 82.462679 80.886826 
C 82.190504 81.159001 82.037576 81.528201 82.037576 81.913114 
C 82.037576 82.298028 82.190504 82.667228 82.462679 82.939403 
C 82.734854 83.211578 83.104054 83.364506 83.488968 83.364506 
z
" clip-path="url(#pf8e445bc56)" style="stroke: #000000"/>
    <path d="M 80.539147 73.950354 
C 80.671748 73.950354 80.798937 73.897671 80.8927 73.803907 
C 80.986464 73.710144 81.039147 73.582955 81.039147 73.450354 
C 81.039147 73.317752 80.986464 73.190564 80.8927 73.0968 
C 80.798937 73.003037 80.671748 72.950354 80.539147 72.950354 
C 80.406545 72.950354 80.279357 73.003037 80.185593 73.0968 
C 80.09183 73.190564 80.039147 73.317752 80.039147 73.450354 
C 80.039147 73.582955 80.09183 73.710144 80.185593 73.803907 
C 80.279357 73.897671 80.406545 73.950354 80.539147 73.950354 
z
" clip-path="url(#pf8e445bc56)" style="stroke: #000000"/>
    <path d="M 98.673179 150.137956 
C 98.83087 150.137956 98.982123 150.075305 99.093627 149.963801 
C 99.205132 149.852297 99.267783 149.701044 99.267783 149.543353 
C 99.267783 149.385662 99.205132 149.234409 99.093627 149.122905 
C 98.982123 149.0114 98.83087 148.948749 98.673179 148.948749 
C 98.515488 148.948749 98.364235 149.0114 98.252731 149.122905 
C 98.141227 149.234409 98.078576 149.385662 98.078576 149.543353 
C 98.078576 149.701044 98.141227 149.852297 98.252731 149.963801 
C 98.364235 150.075305 98.515488 150.137956 98.673179 150.137956 
z
" clip-path="url(#pf8e445bc56)" style="stroke: #000000"/>
    <path d="M 91.587425 139.335866 
C 91.720027 139.335866 91.847215 139.283182 91.940979 139.189419 
C 92.034742 139.095656 92.087425 138.968467 92.087425 138.835866 
C 92.087425 138.703264 92.034742 138.576076 91.940979 138.482312 
C 91.847215 138.388549 91.720027 138.335866 91.587425 138.335866 
C 91.454824 138.335866 91.327635 138.388549 91.233872 138.482312 
C 91.140109 138.576076 91.087425 138.703264 91.087425 138.835866 
C 91.087425 138.968467 91.140109 139.095656 91.233872 139.189419 
C 91.327635 139.283182 91.454824 139.335866 91.587425 139.335866 
z
" clip-path="url(#pf8e445bc56)" style="stroke: #000000"/>
    <path d="M 88.92534 125.412835 
C 89.240721 125.412835 89.543228 125.287532 89.766236 125.064524 
C 89.989244 124.841515 90.114547 124.539009 90.114547 124.223627 
C 90.114547 123.908246 89.989244 123.605739 89.766236 123.382731 
C 89.543228 123.159723 89.240721 123.03442 88.92534 123.03442 
C 88.609958 123.03442 88.307452 123.159723 88.084443 123.382731 
C 87.861435 123.605739 87.736133 123.908246 87.736133 124.223627 
C 87.736133 124.539009 87.861435 124.841515 88.084443 125.064524 
C 88.307452 125.287532 88.609958 125.412835 88.92534 125.412835 
z
" clip-path="url(#pf8e445bc56)" style="stroke: #000000"/>
    <path d="M 87.156478 120.820156 
C 87.769238 120.820156 88.356982 120.576704 88.790268 120.143418 
C 89.223555 119.710132 89.467006 119.122387 89.467006 118.509628 
C 89.467006 117.896869 89.223555 117.309124 88.790268 116.875838 
C 88.356982 116.442552 87.769238 116.1991 87.156478 116.1991 
C 86.543719 116.1991 85.955975 116.442552 85.522689 116.875838 
C 85.089402 117.309124 84.845951 117.896869 84.845951 118.509628 
C 84.845951 119.122387 85.089402 119.710132 85.522689 120.143418 
C 85.955975 120.576704 86.543719 120.820156 87.156478 120.820156 
z
" clip-path="url(#pf8e445bc56)" style="stroke: #000000"/>
    <path d="M 86.086439 112.56033 
C 86.366857 112.56033 86.635828 112.448919 86.834114 112.250633 
C 87.032399 112.052348 87.14381 111.783377 87.14381 111.502959 
C 87.14381 111.222541 87.032399 110.95357 86.834114 110.755285 
C 86.635828 110.556999 86.366857 110.445588 86.086439 110.445588 
C 85.806021 110.445588 85.53705 110.556999 85.338765 110.755285 
C 85.140479 110.95357 85.029068 111.222541 85.029068 111.502959 
C 85.029068 111.783377 85.140479 112.052348 85.338765 112.250633 
C 85.53705 112.448919 85.806021 112.56033 86.086439 112.56033 
z
" clip-path="url(#pf8e445bc56)" style="stroke: #000000"/>
    <path d="M 82.87718 106.886785 
C 83.31967 106.886785 83.744097 106.710982 84.056985 106.398094 
C 84.369873 106.085206 84.545677 105.660779 84.545677 105.218288 
C 84.545677 104.775798 84.369873 104.351371 84.056985 104.038483 
C 83.744097 103.725595 83.31967 103.549791 82.87718 103.549791 
C 82.434689 103.549791 82.010262 103.725595 81.697374 104.038483 
C 81.384486 104.351371 81.208683 104.775798 81.208683 105.218288 
C 81.208683 105.660779 81.384486 106.085206 81.697374 106.398094 
C 82.010262 106.710982 82.434689 106.886785 82.87718 106.886785 
z
" clip-path="url(#pf8e445bc56)" style="stroke: #000000"/>
    <path d="M 80.005883 100.348403 
C 80.204169 100.348403 80.39436 100.269623 80.534569 100.129414 
C 80.674778 99.989205 80.753558 99.799014 80.753558 99.600728 
C 80.753558 99.402443 80.674778 99.212252 80.534569 99.072043 
C 80.39436 98.931834 80.204169 98.853054 80.005883 98.853054 
C 79.807598 98.853054 79.617407 98.931834 79.477198 99.072043 
C 79.336989 99.212252 79.258209 99.402443 79.258209 99.600728 
C 79.258209 99.799014 79.336989 99.989205 79.477198 100.129414 
C 79.617407 100.269623 79.807598 100.348403 80.005883 100.348403 
z
" clip-path="url(#pf8e445bc56)" style="stroke: #000000"/>
    <path d="M 75.300486 95.486661 
C 75.762989 95.486661 76.20661 95.302906 76.533649 94.975868 
C 76.860688 94.648829 77.044442 94.205207 77.044442 93.742705 
C 77.044442 93.280202 76.860688 92.836581 76.533649 92.509542 
C 76.20661 92.182503 75.762989 91.998749 75.300486 91.998749 
C 74.837984 91.998749 74.394362 92.182503 74.067323 92.509542 
C 73.740285 92.836581 73.556531 93.280202 73.556531 93.742705 
C 73.556531 94.205207 73.740285 94.648829 74.067323 94.975868 
C 74.394362 95.302906 74.837984 95.486661 75.300486 95.486661 
z
" clip-path="url(#pf8e445bc56)" style="stroke: #000000"/>
    <path d="M 76.444142 86.826927 
C 76.813193 86.826927 77.167178 86.680301 77.428137 86.419343 
C 77.689095 86.158384 77.835721 85.804399 77.835721 85.435348 
C 77.835721 85.066297 77.689095 84.712312 77.428137 84.451353 
C 77.167178 84.190395 76.813193 84.043769 76.444142 84.043769 
C 76.075091 84.043769 75.721105 84.190395 75.460147 84.451353 
C 75.199188 84.712312 75.052563 85.066297 75.052563 85.435348 
C 75.052563 85.804399 75.199188 86.158384 75.460147 86.419343 
C 75.721105 86.680301 76.075091 86.826927 76.444142 86.826927 
z
" clip-path="url(#pf8e445bc56)" style="stroke: #000000"/>
    <path d="M 71.756797 76.366727 
C 71.914488 76.366727 72.065741 76.304076 72.177245 76.192571 
C 72.288749 76.081067 72.3514 75.929814 72.3514 75.772123 
C 72.3514 75.614433 72.288749 75.463179 72.177245 75.351675 
C 72.065741 75.240171 71.914488 75.17752 71.756797 75.17752 
C 71.599106 75.17752 71.447853 75.240171 71.336349 75.351675 
C 71.224844 75.463179 71.162193 75.614433 71.162193 75.772123 
C 71.162193 75.929814 71.224844 76.081067 71.336349 76.192571 
C 71.447853 76.304076 71.599106 76.366727 71.756797 76.366727 
z
" clip-path="url(#pf8e445bc56)" style="stroke: #000000"/>
    <path d="M 84.274408 134.667889 
C 84.448922 134.667889 84.616311 134.598554 84.739711 134.475154 
C 84.86311 134.351754 84.932445 134.184365 84.932445 134.009852 
C 84.932445 133.835338 84.86311 133.667949 84.739711 133.544549 
C 84.616311 133.42115 84.448922 133.351815 84.274408 133.351815 
C 84.099895 133.351815 83.932505 133.42115 83.809106 133.544549 
C 83.685706 133.667949 83.616371 133.835338 83.616371 134.009852 
C 83.616371 134.184365 83.685706 134.351754 83.809106 134.475154 
C 83.932505 134.598554 84.099895 134.667889 84.274408 134.667889 
z
" clip-path="url(#pf8e445bc56)" style="stroke: #000000"/>
    <path d="M 83.85413 127.339596 
C 84.028644 127.339596 84.196033 127.270261 84.319433 127.146861 
C 84.442832 127.023461 84.512167 126.856072 84.512167 126.681559 
C 84.512167 126.507045 84.442832 126.339656 84.319433 126.216256 
C 84.196033 126.092857 84.028644 126.023522 83.85413 126.023522 
C 83.679617 126.023522 83.512228 126.092857 83.388828 126.216256 
C 83.265428 126.339656 83.196093 126.507045 83.196093 126.681559 
C 83.196093 126.856072 83.265428 127.023461 83.388828 127.146861 
C 83.512228 127.270261 83.679617 127.339596 83.85413 127.339596 
z
" clip-path="url(#pf8e445bc56)" style="stroke: #000000"/>
    <path d="M 79.883286 121.105571 
C 80.167145 121.105571 80.439417 120.992793 80.640136 120.792074 
C 80.840855 120.591355 80.953633 120.319083 80.953633 120.035224 
C 80.953633 119.751364 80.840855 119.479093 80.640136 119.278374 
C 80.439417 119.077655 80.167145 118.964876 79.883286 118.964876 
C 79.599426 118.964876 79.327154 119.077655 79.126435 119.278374 
C 78.925717 119.479093 78.812938 119.751364 78.812938 120.035224 
C 78.812938 120.319083 78.925717 120.591355 79.126435 120.792074 
C 79.327154 120.992793 79.599426 121.105571 79.883286 121.105571 
z
" clip-path="url(#pf8e445bc56)" style="stroke: #000000"/>
    <path d="M 77.005233 109.620125 
C 77.137834 109.620125 77.265023 109.567441 77.358786 109.473678 
C 77.45255 109.379915 77.505233 109.252726 77.505233 109.120125 
C 77.505233 108.987523 77.45255 108.860335 77.358786 108.766571 
C 77.265023 108.672808 77.137834 108.620125 77.005233 108.620125 
C 76.872631 108.620125 76.745443 108.672808 76.651679 108.766571 
C 76.557916 108.860335 76.505233 108.987523 76.505233 109.120125 
C 76.505233 109.252726 76.557916 109.379915 76.651679 109.473678 
C 76.745443 109.567441 76.872631 109.620125 77.005233 109.620125 
z
" clip-path="url(#pf8e445bc56)" style="stroke: #000000"/>
    <path d="M 74.191025 98.028937 
C 74.702869 98.028937 75.193817 97.82558 75.555745 97.463652 
C 75.917672 97.101724 76.12103 96.610776 76.12103 96.098933 
C 76.12103 95.58709 75.917672 95.096142 75.555745 94.734214 
C 75.193817 94.372286 74.702869 94.168929 74.191025 94.168929 
C 73.679182 94.168929 73.188234 94.372286 72.826306 94.734214 
C 72.464379 95.096142 72.261021 95.58709 72.261021 96.098933 
C 72.261021 96.610776 72.464379 97.101724 72.826306 97.463652 
C 73.188234 97.82558 73.679182 98.028937 74.191025 98.028937 
z
" clip-path="url(#pf8e445bc56)" style="stroke: #000000"/>
    <path d="M 68.00015 91.249581 
C 68.215837 91.249581 68.422719 91.163888 68.575232 91.011375 
C 68.727745 90.858861 68.813439 90.65198 68.813439 90.436293 
C 68.813439 90.220606 68.727745 90.013725 68.575232 89.861211 
C 68.422719 89.708698 68.215837 89.623005 68.00015 89.623005 
C 67.784464 89.623005 67.577582 89.708698 67.425069 89.861211 
C 67.272555 90.013725 67.186862 90.220606 67.186862 90.436293 
C 67.186862 90.65198 67.272555 90.858861 67.425069 91.011375 
C 67.577582 91.163888 67.784464 91.249581 68.00015 91.249581 
z
" clip-path="url(#pf8e445bc56)" style="stroke: #000000"/>
    <path d="M 67.726982 87.832733 
C 68.293854 87.832733 68.837585 87.607512 69.238424 87.206673 
C 69.639263 86.805834 69.864484 86.262103 69.864484 85.69523 
C 69.864484 85.128358 69.639263 84.584627 69.238424 84.183788 
C 68.837585 83.782949 68.293854 83.557728 67.726982 83.557728 
C 67.160109 83.557728 66.616378 83.782949 66.215539 84.183788 
C 65.8147 84.584627 65.589479 85.128358 65.589479 85.69523 
C 65.589479 86.262103 65.8147 86.805834 66.215539 87.206673 
C 66.616378 87.607512 67.160109 87.832733 67.726982 87.832733 
z
" clip-path="url(#pf8e445bc56)" style="stroke: #000000"/>
    <path d="M 62.747239 78.288146 
C 62.90493 78.288146 63.056183 78.225495 63.167687 78.113991 
C 63.279191 78.002487 63.341843 77.851233 63.341843 77.693542 
C 63.341843 77.535852 63.279191 77.384598 63.167687 77.273094 
C 63.056183 77.16159 62.90493 77.098939 62.747239 77.098939 
C 62.589548 77.098939 62.438295 77.16159 62.326791 77.273094 
C 62.215287 77.384598 62.152636 77.535852 62.152636 77.693542 
C 62.152636 77.851233 62.215287 78.002487 62.326791 78.113991 
C 62.438295 78.225495 62.589548 78.288146 62.747239 78.288146 
z
" clip-path="url(#pf8e445bc56)" style="stroke: #000000"/>
    <path d="M 63.8774 74.203776 
C 64.010001 74.203776 64.13719 74.151092 64.230953 74.057329 
C 64.324717 73.963566 64.3774 73.836377 64.3774 73.703776 
C 64.3774 73.571174 64.324717 73.443986 64.230953 73.350222 
C 64.13719 73.256459 64.010001 73.203776 63.8774 73.203776 
C 63.744798 73.203776 63.61761 73.256459 63.523846 73.350222 
C 63.430083 73.443986 63.3774 73.571174 63.3774 73.703776 
C 63.3774 73.836377 63.430083 73.963566 63.523846 74.057329 
C 63.61761 74.151092 63.744798 74.203776 63.8774 74.203776 
z
" clip-path="url(#pf8e445bc56)" style="stroke: #000000"/>
    <path d="M 81.060228 140.144179 
C 81.217919 140.144179 81.369172 140.081528 81.480677 139.970024 
C 81.592181 139.858519 81.654832 139.707266 81.654832 139.549575 
C 81.654832 139.391885 81.592181 139.240631 81.480677 139.129127 
C 81.369172 139.017623 81.217919 138.954972 81.060228 138.954972 
C 80.902538 138.954972 80.751284 139.017623 80.63978 139.129127 
C 80.528276 139.240631 80.465625 139.391885 80.465625 139.549575 
C 80.465625 139.707266 80.528276 139.858519 80.63978 139.970024 
C 80.751284 140.081528 80.902538 140.144179 81.060228 140.144179 
z
" clip-path="url(#pf8e445bc56)" style="stroke: #000000"/>
    <path d="M 76.969601 130.826265 
C 77.411197 130.826265 77.834765 130.650817 78.147021 130.338562 
C 78.459276 130.026306 78.634724 129.602738 78.634724 129.161142 
C 78.634724 128.719546 78.459276 128.295978 78.147021 127.983722 
C 77.834765 127.671467 77.411197 127.496019 76.969601 127.496019 
C 76.528005 127.496019 76.104437 127.671467 75.792181 127.983722 
C 75.479926 128.295978 75.304478 128.719546 75.304478 129.161142 
C 75.304478 129.602738 75.479926 130.026306 75.792181 130.338562 
C 76.104437 130.650817 76.528005 130.826265 76.969601 130.826265 
z
" clip-path="url(#pf8e445bc56)" style="stroke: #000000"/>
    <path d="M 74.348924 124.557839 
C 74.751551 124.557839 75.137742 124.397873 75.422443 124.113173 
C 75.707143 123.828472 75.867109 123.442281 75.867109 123.039654 
C 75.867109 122.637026 75.707143 122.250835 75.422443 121.966135 
C 75.137742 121.681434 74.751551 121.521469 74.348924 121.521469 
C 73.946296 121.521469 73.560105 121.681434 73.275405 121.966135 
C 72.990704 122.250835 72.830738 122.637026 72.830738 123.039654 
C 72.830738 123.442281 72.990704 123.828472 73.275405 124.113173 
C 73.560105 124.397873 73.946296 124.557839 74.348924 124.557839 
z
" clip-path="url(#pf8e445bc56)" style="stroke: #000000"/>
    <path d="M 73.674052 117.39096 
C 74.035162 117.39096 74.38153 117.24749 74.636873 116.992146 
C 74.892217 116.736803 75.035687 116.390435 75.035687 116.029325 
C 75.035687 115.668215 74.892217 115.321847 74.636873 115.066504 
C 74.38153 114.811161 74.035162 114.66769 73.674052 114.66769 
C 73.312942 114.66769 72.966574 114.811161 72.711231 115.066504 
C 72.455888 115.321847 72.312417 115.668215 72.312417 116.029325 
C 72.312417 116.390435 72.455888 116.736803 72.711231 116.992146 
C 72.966574 117.24749 73.312942 117.39096 73.674052 117.39096 
z
" clip-path="url(#pf8e445bc56)" style="stroke: #000000"/>
    <path d="M 67.99351 103.104904 
C 68.28069 103.104904 68.556147 102.990806 68.759214 102.78774 
C 68.962281 102.584673 69.076379 102.309216 69.076379 102.022036 
C 69.076379 101.734856 68.962281 101.459399 68.759214 101.256332 
C 68.556147 101.053265 68.28069 100.939168 67.99351 100.939168 
C 67.70633 100.939168 67.430874 101.053265 67.227807 101.256332 
C 67.02474 101.459399 66.910642 101.734856 66.910642 102.022036 
C 66.910642 102.309216 67.02474 102.584673 67.227807 102.78774 
C 67.430874 102.990806 67.70633 103.104904 67.99351 103.104904 
z
" clip-path="url(#pf8e445bc56)" style="stroke: #000000"/>
    <path d="M 65.622687 100.542273 
C 65.864175 100.542273 66.095806 100.446329 66.266564 100.27557 
C 66.437322 100.104812 66.533267 99.873182 66.533267 99.631693 
C 66.533267 99.390204 66.437322 99.158574 66.266564 98.987816 
C 66.095806 98.817057 65.864175 98.721113 65.622687 98.721113 
C 65.381198 98.721113 65.149568 98.817057 64.978809 98.987816 
C 64.808051 99.158574 64.712107 99.390204 64.712107 99.631693 
C 64.712107 99.873182 64.808051 100.104812 64.978809 100.27557 
C 65.149568 100.446329 65.381198 100.542273 65.622687 100.542273 
z
" clip-path="url(#pf8e445bc56)" style="stroke: #000000"/>
    <path d="M 62.343992 87.796172 
C 62.659374 87.796172 62.96188 87.67087 63.184889 87.447862 
C 63.407897 87.224853 63.533199 86.922347 63.533199 86.606965 
C 63.533199 86.291584 63.407897 85.989077 63.184889 85.766069 
C 62.96188 85.543061 62.659374 85.417758 62.343992 85.417758 
C 62.028611 85.417758 61.726104 85.543061 61.503096 85.766069 
C 61.280088 85.989077 61.154785 86.291584 61.154785 86.606965 
C 61.154785 86.922347 61.280088 87.224853 61.503096 87.447862 
C 61.726104 87.67087 62.028611 87.796172 62.343992 87.796172 
z
" clip-path="url(#pf8e445bc56)" style="stroke: #000000"/>
    <path d="M 58.730604 81.637023 
C 58.905118 81.637023 59.072507 81.567688 59.195907 81.444288 
C 59.319307 81.320888 59.388641 81.153499 59.388641 80.978986 
C 59.388641 80.804472 59.319307 80.637083 59.195907 80.513683 
C 59.072507 80.390283 58.905118 80.320949 58.730604 80.320949 
C 58.556091 80.320949 58.388702 80.390283 58.265302 80.513683 
C 58.141902 80.637083 58.072567 80.804472 58.072567 80.978986 
C 58.072567 81.153499 58.141902 81.320888 58.265302 81.444288 
C 58.388702 81.567688 58.556091 81.637023 58.730604 81.637023 
z
" clip-path="url(#pf8e445bc56)" style="stroke: #000000"/>
    <path d="M 71.797972 130.150769 
C 71.972486 130.150769 72.139875 130.081434 72.263275 129.958034 
C 72.386674 129.834635 72.456009 129.667245 72.456009 129.492732 
C 72.456009 129.318218 72.386674 129.150829 72.263275 129.027429 
C 72.139875 128.90403 71.972486 128.834695 71.797972 128.834695 
C 71.623459 128.834695 71.45607 128.90403 71.33267 129.027429 
C 71.20927 129.150829 71.139935 129.318218 71.139935 129.492732 
C 71.139935 129.667245 71.20927 129.834635 71.33267 129.958034 
C 71.45607 130.081434 71.623459 130.150769 71.797972 130.150769 
z
" clip-path="url(#pf8e445bc56)" style="stroke: #000000"/>
    <path d="M 67.310872 125.334562 
C 67.601262 125.334562 67.879796 125.219189 68.085133 125.013853 
C 68.290469 124.808517 68.405842 124.529982 68.405842 124.239593 
C 68.405842 123.949204 68.290469 123.670669 68.085133 123.465333 
C 67.879796 123.259996 67.601262 123.144623 67.310872 123.144623 
C 67.020483 123.144623 66.741948 123.259996 66.536612 123.465333 
C 66.331276 123.670669 66.215903 123.949204 66.215903 124.239593 
C 66.215903 124.529982 66.331276 124.808517 66.536612 125.013853 
C 66.741948 125.219189 67.020483 125.334562 67.310872 125.334562 
z
" clip-path="url(#pf8e445bc56)" style="stroke: #000000"/>
    <path d="M 64.246373 117.169001 
C 64.404064 117.169001 64.555317 117.10635 64.666821 116.994846 
C 64.778326 116.883342 64.840977 116.732088 64.840977 116.574398 
C 64.840977 116.416707 64.778326 116.265454 64.666821 116.153949 
C 64.555317 116.042445 64.404064 115.979794 64.246373 115.979794 
C 64.088682 115.979794 63.937429 116.042445 63.825925 116.153949 
C 63.714421 116.265454 63.65177 116.416707 63.65177 116.574398 
C 63.65177 116.732088 63.714421 116.883342 63.825925 116.994846 
C 63.937429 117.10635 64.088682 117.169001 64.246373 117.169001 
z
" clip-path="url(#pf8e445bc56)" style="stroke: #000000"/>
    <path d="M 59.779231 106.85071 
C 60.015033 106.85071 60.24121 106.757025 60.407947 106.590287 
C 60.574685 106.42355 60.66837 106.197373 60.66837 105.961571 
C 60.66837 105.725768 60.574685 105.499592 60.407947 105.332854 
C 60.24121 105.166116 60.015033 105.072431 59.779231 105.072431 
C 59.543428 105.072431 59.317251 105.166116 59.150514 105.332854 
C 58.983776 105.499592 58.890091 105.725768 58.890091 105.961571 
C 58.890091 106.197373 58.983776 106.42355 59.150514 106.590287 
C 59.317251 106.757025 59.543428 106.85071 59.779231 106.85071 
z
" clip-path="url(#pf8e445bc56)" style="stroke: #000000"/>
    <path d="M 58.760401 101.773989 
C 59.15447 101.773989 59.532452 101.617424 59.811101 101.338775 
C 60.08975 101.060126 60.246315 100.682144 60.246315 100.288075 
C 60.246315 99.894006 60.08975 99.516024 59.811101 99.237375 
C 59.532452 98.958726 59.15447 98.802161 58.760401 98.802161 
C 58.366332 98.802161 57.98835 98.958726 57.709702 99.237375 
C 57.431053 99.516024 57.274487 99.894006 57.274487 100.288075 
C 57.274487 100.682144 57.431053 101.060126 57.709702 101.338775 
C 57.98835 101.617424 58.366332 101.773989 58.760401 101.773989 
z
" clip-path="url(#pf8e445bc56)" style="stroke: #000000"/>
    <path d="M 55.790045 95.962859 
C 56.092311 95.962859 56.382238 95.842768 56.595973 95.629033 
C 56.809707 95.415299 56.929799 95.125372 56.929799 94.823106 
C 56.929799 94.52084 56.809707 94.230913 56.595973 94.017178 
C 56.382238 93.803444 56.092311 93.683352 55.790045 93.683352 
C 55.487779 93.683352 55.197852 93.803444 54.984118 94.017178 
C 54.770383 94.230913 54.650292 94.52084 54.650292 94.823106 
C 54.650292 95.125372 54.770383 95.415299 54.984118 95.629033 
C 55.197852 95.842768 55.487779 95.962859 55.790045 95.962859 
z
" clip-path="url(#pf8e445bc56)" style="stroke: #000000"/>
    <path d="M 52.239956 78.095094 
C 52.372558 78.095094 52.499746 78.042411 52.59351 77.948647 
C 52.687273 77.854884 52.739956 77.727696 52.739956 77.595094 
C 52.739956 77.462493 52.687273 77.335304 52.59351 77.241541 
C 52.499746 77.147777 52.372558 77.095094 52.239956 77.095094 
C 52.107355 77.095094 51.980167 77.147777 51.886403 77.241541 
C 51.79264 77.335304 51.739956 77.462493 51.739956 77.595094 
C 51.739956 77.727696 51.79264 77.854884 51.886403 77.948647 
C 51.980167 78.042411 52.107355 78.095094 52.239956 78.095094 
z
" clip-path="url(#pf8e445bc56)" style="stroke: #000000"/>
    <path d="M 64.24106 133.901665 
C 64.780061 133.901665 65.297058 133.687517 65.678189 133.306386 
C 66.05932 132.925255 66.273467 132.408258 66.273467 131.869258 
C 66.273467 131.330257 66.05932 130.81326 65.678189 130.432129 
C 65.297058 130.050998 64.780061 129.836851 64.24106 129.836851 
C 63.702059 129.836851 63.185062 130.050998 62.803931 130.432129 
C 62.4228 130.81326 62.208653 131.330257 62.208653 131.869258 
C 62.208653 132.408258 62.4228 132.925255 62.803931 133.306386 
C 63.185062 133.687517 63.702059 133.901665 64.24106 133.901665 
z
" clip-path="url(#pf8e445bc56)" style="stroke: #000000"/>
    <path d="M 59.068395 123.400556 
C 59.613224 123.400556 60.135811 123.184093 60.521063 122.798841 
C 60.906315 122.413589 61.122777 121.891002 61.122777 121.346174 
C 61.122777 120.801345 60.906315 120.278758 60.521063 119.893506 
C 60.135811 119.508254 59.613224 119.291792 59.068395 119.291792 
C 58.523567 119.291792 58.00098 119.508254 57.615728 119.893506 
C 57.230476 120.278758 57.014013 120.801345 57.014013 121.346174 
C 57.014013 121.891002 57.230476 122.413589 57.615728 122.798841 
C 58.00098 123.184093 58.523567 123.400556 59.068395 123.400556 
z
" clip-path="url(#pf8e445bc56)" style="stroke: #000000"/>
    <path d="M 59.717937 118.737564 
C 60.238763 118.737564 60.738328 118.530638 61.106608 118.162358 
C 61.474888 117.794078 61.681814 117.294513 61.681814 116.773687 
C 61.681814 116.252861 61.474888 115.753296 61.106608 115.385017 
C 60.738328 115.016737 60.238763 114.80981 59.717937 114.80981 
C 59.197111 114.80981 58.697546 115.016737 58.329267 115.385017 
C 57.960987 115.753296 57.75406 116.252861 57.75406 116.773687 
C 57.75406 117.294513 57.960987 117.794078 58.329267 118.162358 
C 58.697546 118.530638 59.197111 118.737564 59.717937 118.737564 
z
" clip-path="url(#pf8e445bc56)" style="stroke: #000000"/>
    <path d="M 54.696897 112.166163 
C 55.058007 112.166163 55.404375 112.022693 55.659718 111.767349 
C 55.915061 111.512006 56.058532 111.165638 56.058532 110.804528 
C 56.058532 110.443418 55.915061 110.09705 55.659718 109.841707 
C 55.404375 109.586364 55.058007 109.442893 54.696897 109.442893 
C 54.335787 109.442893 53.989419 109.586364 53.734075 109.841707 
C 53.478732 110.09705 53.335262 110.443418 53.335262 110.804528 
C 53.335262 111.165638 53.478732 111.512006 53.734075 111.767349 
C 53.989419 112.022693 54.335787 112.166163 54.696897 112.166163 
z
" clip-path="url(#pf8e445bc56)" style="stroke: #000000"/>
    <path d="M 51.49129 103.780272 
C 51.809107 103.780272 52.11395 103.654002 52.33868 103.429271 
C 52.563411 103.204541 52.689681 102.899698 52.689681 102.581881 
C 52.689681 102.264064 52.563411 101.959221 52.33868 101.734491 
C 52.11395 101.50976 51.809107 101.38349 51.49129 101.38349 
C 51.173473 101.38349 50.86863 101.50976 50.6439 101.734491 
C 50.419169 101.959221 50.292899 102.264064 50.292899 102.581881 
C 50.292899 102.899698 50.419169 103.204541 50.6439 103.429271 
C 50.86863 103.654002 51.173473 103.780272 51.49129 103.780272 
z
" clip-path="url(#pf8e445bc56)" style="stroke: #000000"/>
    <path d="M 51.393354 94.997558 
C 51.525955 94.997558 51.653143 94.944874 51.746907 94.851111 
C 51.84067 94.757348 51.893354 94.630159 51.893354 94.497558 
C 51.893354 94.364956 51.84067 94.237768 51.746907 94.144004 
C 51.653143 94.050241 51.525955 93.997558 51.393354 93.997558 
C 51.260752 93.997558 51.133564 94.050241 51.0398 94.144004 
C 50.946037 94.237768 50.893354 94.364956 50.893354 94.497558 
C 50.893354 94.630159 50.946037 94.757348 51.0398 94.851111 
C 51.133564 94.944874 51.260752 94.997558 51.393354 94.997558 
z
" clip-path="url(#pf8e445bc56)" style="stroke: #000000"/>
    <path d="M 53.351929 123.013808 
C 53.550215 123.013808 53.740406 122.935029 53.880615 122.79482 
C 54.020824 122.654611 54.099604 122.46442 54.099604 122.266134 
C 54.099604 122.067848 54.020824 121.877657 53.880615 121.737448 
C 53.740406 121.597239 53.550215 121.51846 53.351929 121.51846 
C 53.153644 121.51846 52.963453 121.597239 52.823244 121.737448 
C 52.683034 121.877657 52.604255 122.067848 52.604255 122.266134 
C 52.604255 122.46442 52.683034 122.654611 52.823244 122.79482 
C 52.963453 122.935029 53.153644 123.013808 53.351929 123.013808 
z
" clip-path="url(#pf8e445bc56)" style="stroke: #000000"/>
    <path d="M 54.242404 119.744674 
C 54.375006 119.744674 54.502194 119.691991 54.595957 119.598228 
C 54.689721 119.504464 54.742404 119.377276 54.742404 119.244674 
C 54.742404 119.112073 54.689721 118.984884 54.595957 118.891121 
C 54.502194 118.797357 54.375006 118.744674 54.242404 118.744674 
C 54.109803 118.744674 53.982614 118.797357 53.888851 118.891121 
C 53.795087 118.984884 53.742404 119.112073 53.742404 119.244674 
C 53.742404 119.377276 53.795087 119.504464 53.888851 119.598228 
C 53.982614 119.691991 54.109803 119.744674 54.242404 119.744674 
z
" clip-path="url(#pf8e445bc56)" style="stroke: #000000"/>
    <path d="M 47.400257 106.315368 
C 47.673385 106.315368 47.935364 106.206853 48.128495 106.013722 
C 48.321626 105.820591 48.430141 105.558612 48.430141 105.285484 
C 48.430141 105.012356 48.321626 104.750377 48.128495 104.557246 
C 47.935364 104.364115 47.673385 104.2556 47.400257 104.2556 
C 47.127129 104.2556 46.86515 104.364115 46.672019 104.557246 
C 46.478889 104.750377 46.370373 105.012356 46.370373 105.285484 
C 46.370373 105.558612 46.478889 105.820591 46.672019 106.013722 
C 46.86515 106.206853 47.127129 106.315368 47.400257 106.315368 
z
" clip-path="url(#pf8e445bc56)" style="stroke: #000000"/>
    <path d="M 53.586126 144.390276 
C 53.718727 144.390276 53.845916 144.337593 53.939679 144.243829 
C 54.033443 144.150066 54.086126 144.022878 54.086126 143.890276 
C 54.086126 143.757675 54.033443 143.630486 53.939679 143.536723 
C 53.845916 143.442959 53.718727 143.390276 53.586126 143.390276 
C 53.453524 143.390276 53.326336 143.442959 53.232572 143.536723 
C 53.138809 143.630486 53.086126 143.757675 53.086126 143.890276 
C 53.086126 144.022878 53.138809 144.150066 53.232572 144.243829 
C 53.326336 144.337593 53.453524 144.390276 53.586126 144.390276 
z
" clip-path="url(#pf8e445bc56)" style="stroke: #000000"/>
    <path d="M 37.859683 126.192606 
C 37.992284 126.192606 38.119473 126.139923 38.213236 126.046159 
C 38.307 125.952396 38.359683 125.825207 38.359683 125.692606 
C 38.359683 125.560004 38.307 125.432816 38.213236 125.339052 
C 38.119473 125.245289 37.992284 125.192606 37.859683 125.192606 
C 37.727081 125.192606 37.599893 125.245289 37.506129 125.339052 
C 37.412366 125.432816 37.359683 125.560004 37.359683 125.692606 
C 37.359683 125.825207 37.412366 125.952396 37.506129 126.046159 
C 37.599893 126.139923 37.727081 126.192606 37.859683 126.192606 
z
" clip-path="url(#pf8e445bc56)" style="stroke: #000000"/>
   </g>
   <g id="matplotlib.axis_1">
    <g id="xtick_1">
     <g id="line2d_1">
      <defs>
       <path id="me345cc4ce9" d="M 0 0 
L 0 3.5 
" style="stroke: #000000; stroke-width: 0.8"/>
      </defs>
      <g>
       <use xlink:href="#me345cc4ce9" x="18" y="189" style="stroke: #000000; stroke-width: 0.8"/>
      </g>
     </g>
     <g id="text_1">
      <!-- −10 -->
      <g transform="translate(7.447656 203.598437)scale(0.1 -0.1)">
       <defs>
        <path id="DejaVuSans-2212" d="M 678 2272 
L 4684 2272 
L 4684 1741 
L 678 1741 
L 678 2272 
z
" transform="scale(0.015625)"/>
        <path id="DejaVuSans-31" d="M 794 531 
L 1825 531 
L 1825 4091 
L 703 3866 
L 703 4441 
L 1819 4666 
L 2450 4666 
L 2450 531 
L 3481 531 
L 3481 0 
L 794 0 
L 794 531 
z
" transform="scale(0.015625)"/>
        <path id="DejaVuSans-30" d="M 2034 4250 
Q 1547 4250 1301 3770 
Q 1056 3291 1056 2328 
Q 1056 1369 1301 889 
Q 1547 409 2034 409 
Q 2525 409 2770 889 
Q 3016 1369 3016 2328 
Q 3016 3291 2770 3770 
Q 2525 4250 2034 4250 
z
M 2034 4750 
Q 2819 4750 3233 4129 
Q 3647 3509 3647 2328 
Q 3647 1150 3233 529 
Q 2819 -91 2034 -91 
Q 1250 -91 836 529 
Q 422 1150 422 2328 
Q 422 3509 836 4129 
Q 1250 4750 2034 4750 
z
" transform="scale(0.015625)"/>
       </defs>
       <use xlink:href="#DejaVuSans-2212"/>
       <use xlink:href="#DejaVuSans-31" x="83.789062"/>
       <use xlink:href="#DejaVuSans-30" x="147.412109"/>
      </g>
     </g>
    </g>
    <g id="xtick_2">
     <g id="line2d_2">
      <g>
       <use xlink:href="#me345cc4ce9" x="73.8" y="189" style="stroke: #000000; stroke-width: 0.8"/>
      </g>
     </g>
     <g id="text_2">
      <!-- 0 -->
      <g transform="translate(70.61875 203.598437)scale(0.1 -0.1)">
       <use xlink:href="#DejaVuSans-30"/>
      </g>
     </g>
    </g>
    <g id="xtick_3">
     <g id="line2d_3">
      <g>
       <use xlink:href="#me345cc4ce9" x="129.6" y="189" style="stroke: #000000; stroke-width: 0.8"/>
      </g>
     </g>
     <g id="text_3">
      <!-- 10 -->
      <g transform="translate(123.2375 203.598437)scale(0.1 -0.1)">
       <use xlink:href="#DejaVuSans-31"/>
       <use xlink:href="#DejaVuSans-30" x="63.623047"/>
      </g>
     </g>
    </g>
   </g>
   <g id="matplotlib.axis_2">
    <g id="ytick_1">
     <g id="line2d_4">
      <defs>
       <path id="m8bffecf251" d="M 0 0 
L -3.5 0 
" style="stroke: #000000; stroke-width: 0.8"/>
      </defs>
      <g>
       <use xlink:href="#m8bffecf251" x="18" y="189" style="stroke: #000000; stroke-width: 0.8"/>
      </g>
     </g>
     <g id="text_4">
      <!-- −15 -->
      <g transform="translate(-10.104688 192.799219)scale(0.1 -0.1)">
       <defs>
        <path id="DejaVuSans-35" d="M 691 4666 
L 3169 4666 
L 3169 4134 
L 1269 4134 
L 1269 2991 
Q 1406 3038 1543 3061 
Q 1681 3084 1819 3084 
Q 2600 3084 3056 2656 
Q 3513 2228 3513 1497 
Q 3513 744 3044 326 
Q 2575 -91 1722 -91 
Q 1428 -91 1123 -41 
Q 819 9 494 109 
L 494 744 
Q 775 591 1075 516 
Q 1375 441 1709 441 
Q 2250 441 2565 725 
Q 2881 1009 2881 1497 
Q 2881 1984 2565 2268 
Q 2250 2553 1709 2553 
Q 1456 2553 1204 2497 
Q 953 2441 691 2322 
L 691 4666 
z
" transform="scale(0.015625)"/>
       </defs>
       <use xlink:href="#DejaVuSans-2212"/>
       <use xlink:href="#DejaVuSans-31" x="83.789062"/>
       <use xlink:href="#DejaVuSans-35" x="147.412109"/>
      </g>
     </g>
    </g>
    <g id="ytick_2">
     <g id="line2d_5">
      <g>
       <use xlink:href="#m8bffecf251" x="18" y="161.82" style="stroke: #000000; stroke-width: 0.8"/>
      </g>
     </g>
     <g id="text_5">
      <!-- −10 -->
      <g transform="translate(-10.104688 165.619219)scale(0.1 -0.1)">
       <use xlink:href="#DejaVuSans-2212"/>
       <use xlink:href="#DejaVuSans-31" x="83.789062"/>
       <use xlink:href="#DejaVuSans-30" x="147.412109"/>
      </g>
     </g>
    </g>
    <g id="ytick_3">
     <g id="line2d_6">
      <g>
       <use xlink:href="#m8bffecf251" x="18" y="134.64" style="stroke: #000000; stroke-width: 0.8"/>
      </g>
     </g>
     <g id="text_6">
      <!-- −5 -->
      <g transform="translate(-3.742188 138.439219)scale(0.1 -0.1)">
       <use xlink:href="#DejaVuSans-2212"/>
       <use xlink:href="#DejaVuSans-35" x="83.789062"/>
      </g>
     </g>
    </g>
    <g id="ytick_4">
     <g id="line2d_7">
      <g>
       <use xlink:href="#m8bffecf251" x="18" y="107.46" style="stroke: #000000; stroke-width: 0.8"/>
      </g>
     </g>
     <g id="text_7">
      <!-- 0 -->
      <g transform="translate(4.6375 111.259219)scale(0.1 -0.1)">
       <use xlink:href="#DejaVuSans-30"/>
      </g>
     </g>
    </g>
    <g id="ytick_5">
     <g id="line2d_8">
      <g>
       <use xlink:href="#m8bffecf251" x="18" y="80.28" style="stroke: #000000; stroke-width: 0.8"/>
      </g>
     </g>
     <g id="text_8">
      <!-- 5 -->
      <g transform="translate(4.6375 84.079219)scale(0.1 -0.1)">
       <use xlink:href="#DejaVuSans-35"/>
      </g>
     </g>
    </g>
    <g id="ytick_6">
     <g id="line2d_9">
      <g>
       <use xlink:href="#m8bffecf251" x="18" y="53.1" style="stroke: #000000; stroke-width: 0.8"/>
      </g>
     </g>
     <g id="text_9">
      <!-- 10 -->
      <g transform="translate(-1.725 56.899219)scale(0.1 -0.1)">
       <use xlink:href="#DejaVuSans-31"/>
       <use xlink:href="#DejaVuSans-30" x="63.623047"/>
      </g>
     </g>
    </g>
    <g id="ytick_7">
     <g id="line2d_10">
      <g>
       <use xlink:href="#m8bffecf251" x="18" y="25.92" style="stroke: #000000; stroke-width: 0.8"/>
      </g>
     </g>
     <g id="text_10">
      <!-- 15 -->
      <g transform="translate(-1.725 29.719219)scale(0.1 -0.1)">
       <use xlink:href="#DejaVuSans-31"/>
       <use xlink:href="#DejaVuSans-35" x="63.623047"/>
      </g>
     </g>
    </g>
   </g>
   <g id="patch_3">
    <path d="M 18 189 
L 18 25.92 
" style="fill: none; stroke: #000000; stroke-width: 0.8; stroke-linejoin: miter; stroke-linecap: square"/>
   </g>
   <g id="patch_4">
    <path d="M 129.6 189 
L 129.6 25.92 
" style="fill: none; stroke: #000000; stroke-width: 0.8; stroke-linejoin: miter; stroke-linecap: square"/>
   </g>
   <g id="patch_5">
    <path d="M 18 189 
L 129.6 189 
" style="fill: none; stroke: #000000; stroke-width: 0.8; stroke-linejoin: miter; stroke-linecap: square"/>
   </g>
   <g id="patch_6">
    <path d="M 18 25.92 
L 129.6 25.92 
" style="fill: none; stroke: #000000; stroke-width: 0.8; stroke-linejoin: miter; stroke-linecap: square"/>
   </g>
  </g>
 </g>
 <defs>
  <clipPath id="pf8e445bc56">
   <rect x="18" y="25.92" width="111.6" height="163.08"/>
  </clipPath>
 </defs>
</svg>
