<?xml version="1.0" encoding="utf-8" standalone="no"?>
<!DOCTYPE svg PUBLIC "-//W3C//DTD SVG 1.1//EN"
  "http://www.w3.org/Graphics/SVG/1.1/DTD/svg11.dtd">
<svg xmlns:xlink="http://www.w3.org/1999/xlink" width="144pt" height="216pt" viewBox="0 0 144 216" xmlns="http://www.w3.org/2000/svg" version="1.1">
 <metadata>
  <rdf:RDF xmlns:dc="http://purl.org/dc/elements/1.1/" xmlns:cc="http://creativecommons.org/ns#" xmlns:rdf="http://www.w3.org/1999/02/22-rdf-syntax-ns#">
   <cc:Work>
    <dc:type rdf:resource="http://purl.org/dc/dcmitype/StillImage"/>
    <dc:date>2022-06-23T12:17:20.340255</dc:date>
    <dc:format>image/svg+xml</dc:format>
    <dc:creator>
     <cc:Agent>
      <dc:title>Matplotlib v3.5.1, https://matplotlib.org/</dc:title>
     </cc:Agent>
    </dc:creator>
   </cc:Work>
  </rdf:RDF>
 </metadata>
 <defs>
  <style type="text/css">*{stroke-linejoin: round; stroke-linecap: butt}</style>
 </defs>
 <g id="figure_1">
  <g id="patch_1">
   <path d="M 0 216 
L 144 216 
L 144 0 
L 0 0 
L 0 216 
z
" style="fill: none"/>
  </g>
  <g id="axes_1">
   <g id="patch_2">
    <path d="M 18 189 
L 129.6 189 
L 129.6 25.92 
L 18 25.92 
z
" style="fill: #ffffff"/>
   </g>
   <g id="PathCollection_1">
    <defs>
     <path id="m24a76ae2ce" d="M 0 2.738613 
C 0.726289 2.738613 1.422928 2.450055 1.936492 1.936492 
C 2.450055 1.422928 2.738613 0.726289 2.738613 0 
C 2.738613 -0.726289 2.450055 -1.422928 1.936492 -1.936492 
C 1.422928 -2.450055 0.726289 -2.738613 0 -2.738613 
C -0.726289 -2.738613 -1.422928 -2.450055 -1.936492 -1.936492 
C -2.450055 -1.422928 -2.738613 -0.726289 -2.738613 0 
C -2.738613 0.726289 -2.450055 1.422928 -1.936492 1.936492 
C -1.422928 2.450055 -0.726289 2.738613 0 2.738613 
z
" style="stroke: #ff0000; stroke-width: 1.75"/>
    </defs>
    <g clip-path="url(#p5b43ed48ba)">
     <use xlink:href="#m24a76ae2ce" x="80.775" y="83.92143" style="fill: #ff0000; stroke: #ff0000; stroke-width: 1.75"/>
     <use xlink:href="#m24a76ae2ce" x="59.85" y="95.690715" style="fill: #ff0000; stroke: #ff0000; stroke-width: 1.75"/>
     <use xlink:href="#m24a76ae2ce" x="66.825" y="107.46" style="fill: #ff0000; stroke: #ff0000; stroke-width: 1.75"/>
     <use xlink:href="#m24a76ae2ce" x="80.775" y="107.46" style="fill: #ff0000; stroke: #ff0000; stroke-width: 1.75"/>
     <use xlink:href="#m24a76ae2ce" x="94.725" y="107.46" style="fill: #ff0000; stroke: #ff0000; stroke-width: 1.75"/>
     <use xlink:href="#m24a76ae2ce" x="59.85" y="119.229285" style="fill: #ff0000; stroke: #ff0000; stroke-width: 1.75"/>
     <use xlink:href="#m24a76ae2ce" x="80.775" y="130.99857" style="fill: #ff0000; stroke: #ff0000; stroke-width: 1.75"/>
    </g>
   </g>
   <g id="PathCollection_2">
    <defs>
     <path id="C0_0_4f3021a882" d="M 0 2.738613 
C 0.726289 2.738613 1.422928 2.450055 1.936492 1.936492 
C 2.450055 1.422928 2.738613 0.726289 2.738613 -0 
C 2.738613 -0.726289 2.450055 -1.422928 1.936492 -1.936492 
C 1.422928 -2.450055 0.726289 -2.738613 0 -2.738613 
C -0.726289 -2.738613 -1.422928 -2.450055 -1.936492 -1.936492 
C -2.450055 -1.422928 -2.738613 -0.726289 -2.738613 0 
C -2.738613 0.726289 -2.450055 1.422928 -1.936492 1.936492 
C -1.422928 2.450055 -0.726289 2.738613 0 2.738613 
z
"/>
    </defs>
    <g clip-path="url(#p5b43ed48ba)">
     <use xlink:href="#C0_0_4f3021a882" x="66.825" y="83.92143" style="fill: none; stroke: #ff0000; stroke-width: 1.75"/>
    </g>
    <g clip-path="url(#p5b43ed48ba)">
     <use xlink:href="#C0_0_4f3021a882" x="73.8" y="95.690715" style="fill: none; stroke: #ff0000; stroke-width: 1.75"/>
    </g>
    <g clip-path="url(#p5b43ed48ba)">
     <use xlink:href="#C0_0_4f3021a882" x="87.75" y="95.690715" style="fill: none; stroke: #ff0000; stroke-width: 1.75"/>
    </g>
    <g clip-path="url(#p5b43ed48ba)">
     <use xlink:href="#C0_0_4f3021a882" x="52.875" y="107.46" style="fill: none; stroke: #ff0000; stroke-width: 1.75"/>
    </g>
    <g clip-path="url(#p5b43ed48ba)">
     <use xlink:href="#C0_0_4f3021a882" x="73.8" y="119.229285" style="fill: none; stroke: #ff0000; stroke-width: 1.75"/>
    </g>
    <g clip-path="url(#p5b43ed48ba)">
     <use xlink:href="#C0_0_4f3021a882" x="87.75" y="119.229285" style="fill: none; stroke: #ff0000; stroke-width: 1.75"/>
    </g>
    <g clip-path="url(#p5b43ed48ba)">
     <use xlink:href="#C0_0_4f3021a882" x="66.825" y="130.99857" style="fill: none; stroke: #ff0000; stroke-width: 1.75"/>
    </g>
   </g>
   <g id="PathCollection_3">
    <path d="M 105.720289 59.602444 
C 106.256303 59.602444 106.770436 59.389483 107.149455 59.010464 
C 107.528475 58.631444 107.741435 58.117312 107.741435 57.581297 
C 107.741435 57.045283 107.528475 56.53115 107.149455 56.152131 
C 106.770436 55.773111 106.256303 55.560151 105.720289 55.560151 
C 105.184274 55.560151 104.670142 55.773111 104.291122 56.152131 
C 103.912103 56.53115 103.699142 57.045283 103.699142 57.581297 
C 103.699142 58.117312 103.912103 58.631444 104.291122 59.010464 
C 104.670142 59.389483 105.184274 59.602444 105.720289 59.602444 
z
" clip-path="url(#p5b43ed48ba)" style="stroke: #000000"/>
    <path d="M 116.306218 126.369178 
C 116.849607 126.369178 117.370813 126.153287 117.755048 125.769053 
C 118.139282 125.384819 118.355172 124.863613 118.355172 124.320224 
C 118.355172 123.776835 118.139282 123.255628 117.755048 122.871394 
C 117.370813 122.48716 116.849607 122.271269 116.306218 122.271269 
C 115.762829 122.271269 115.241623 122.48716 114.857388 122.871394 
C 114.473154 123.255628 114.257264 123.776835 114.257264 124.320224 
C 114.257264 124.863613 114.473154 125.384819 114.857388 125.769053 
C 115.241623 126.153287 115.762829 126.369178 116.306218 126.369178 
z
" clip-path="url(#p5b43ed48ba)" style="stroke: #000000"/>
    <path d="M 113.318008 107.974615 
C 113.91102 107.974615 114.479823 107.739009 114.899146 107.319686 
C 115.318469 106.900363 115.554076 106.331559 115.554076 105.738547 
C 115.554076 105.145535 115.318469 104.576731 114.899146 104.157408 
C 114.479823 103.738085 113.91102 103.502479 113.318008 103.502479 
C 112.724995 103.502479 112.156192 103.738085 111.736869 104.157408 
C 111.317546 104.576731 111.08194 105.145535 111.08194 105.738547 
C 111.08194 106.331559 111.317546 106.900363 111.736869 107.319686 
C 112.156192 107.739009 112.724995 107.974615 113.318008 107.974615 
z
" clip-path="url(#p5b43ed48ba)" style="stroke: #000000"/>
    <path d="M 111.136447 101.432774 
C 111.136447 101.432774 111.136447 101.432774 111.136447 101.432774 
C 111.136447 101.432774 111.136447 101.432774 111.136447 101.432774 
C 111.136447 101.432774 111.136447 101.432774 111.136447 101.432774 
C 111.136447 101.432774 111.136447 101.432774 111.136447 101.432774 
C 111.136447 101.432774 111.136447 101.432774 111.136447 101.432774 
C 111.136447 101.432774 111.136447 101.432774 111.136447 101.432774 
C 111.136447 101.432774 111.136447 101.432774 111.136447 101.432774 
C 111.136447 101.432774 111.136447 101.432774 111.136447 101.432774 
z
" clip-path="url(#p5b43ed48ba)" style="stroke: #000000"/>
    <path d="M 108.505215 86.720562 
C 108.505215 86.720562 108.505215 86.720562 108.505215 86.720562 
C 108.505215 86.720562 108.505215 86.720562 108.505215 86.720562 
C 108.505215 86.720562 108.505215 86.720562 108.505215 86.720562 
C 108.505215 86.720562 108.505215 86.720562 108.505215 86.720562 
C 108.505215 86.720562 108.505215 86.720562 108.505215 86.720562 
C 108.505215 86.720562 108.505215 86.720562 108.505215 86.720562 
C 108.505215 86.720562 108.505215 86.720562 108.505215 86.720562 
C 108.505215 86.720562 108.505215 86.720562 108.505215 86.720562 
z
" clip-path="url(#p5b43ed48ba)" style="stroke: #000000"/>
    <path d="M 105.850867 82.358913 
C 105.850867 82.358913 105.850867 82.358913 105.850867 82.358913 
C 105.850867 82.358913 105.850867 82.358913 105.850867 82.358913 
C 105.850867 82.358913 105.850867 82.358913 105.850867 82.358913 
C 105.850867 82.358913 105.850867 82.358913 105.850867 82.358913 
C 105.850867 82.358913 105.850867 82.358913 105.850867 82.358913 
C 105.850867 82.358913 105.850867 82.358913 105.850867 82.358913 
C 105.850867 82.358913 105.850867 82.358913 105.850867 82.358913 
C 105.850867 82.358913 105.850867 82.358913 105.850867 82.358913 
z
" clip-path="url(#p5b43ed48ba)" style="stroke: #000000"/>
    <path d="M 97.637708 72.958391 
C 98.23072 72.958391 98.799524 72.722785 99.218847 72.303462 
C 99.63817 71.884139 99.873776 71.315336 99.873776 70.722323 
C 99.873776 70.129311 99.63817 69.560508 99.218847 69.141185 
C 98.799524 68.721862 98.23072 68.486256 97.637708 68.486256 
C 97.044696 68.486256 96.475892 68.721862 96.056569 69.141185 
C 95.637246 69.560508 95.40164 70.129311 95.40164 70.722323 
C 95.40164 71.315336 95.637246 71.884139 96.056569 72.303462 
C 96.475892 72.722785 97.044696 72.958391 97.637708 72.958391 
z
" clip-path="url(#p5b43ed48ba)" style="stroke: #000000"/>
    <path d="M 95.635892 60.277126 
C 95.635892 60.277126 95.635892 60.277126 95.635892 60.277126 
C 95.635892 60.277126 95.635892 60.277126 95.635892 60.277126 
C 95.635892 60.277126 95.635892 60.277126 95.635892 60.277126 
C 95.635892 60.277126 95.635892 60.277126 95.635892 60.277126 
C 95.635892 60.277126 95.635892 60.277126 95.635892 60.277126 
C 95.635892 60.277126 95.635892 60.277126 95.635892 60.277126 
C 95.635892 60.277126 95.635892 60.277126 95.635892 60.277126 
C 95.635892 60.277126 95.635892 60.277126 95.635892 60.277126 
z
" clip-path="url(#p5b43ed48ba)" style="stroke: #000000"/>
    <path d="M 91.801901 46.514623 
C 91.801901 46.514623 91.801901 46.514623 91.801901 46.514623 
C 91.801901 46.514623 91.801901 46.514623 91.801901 46.514623 
C 91.801901 46.514623 91.801901 46.514623 91.801901 46.514623 
C 91.801901 46.514623 91.801901 46.514623 91.801901 46.514623 
C 91.801901 46.514623 91.801901 46.514623 91.801901 46.514623 
C 91.801901 46.514623 91.801901 46.514623 91.801901 46.514623 
C 91.801901 46.514623 91.801901 46.514623 91.801901 46.514623 
C 91.801901 46.514623 91.801901 46.514623 91.801901 46.514623 
z
" clip-path="url(#p5b43ed48ba)" style="stroke: #000000"/>
    <path d="M 119.107596 163.112864 
C 119.107596 163.112864 119.107596 163.112864 119.107596 163.112864 
C 119.107596 163.112864 119.107596 163.112864 119.107596 163.112864 
C 119.107596 163.112864 119.107596 163.112864 119.107596 163.112864 
C 119.107596 163.112864 119.107596 163.112864 119.107596 163.112864 
C 119.107596 163.112864 119.107596 163.112864 119.107596 163.112864 
C 119.107596 163.112864 119.107596 163.112864 119.107596 163.112864 
C 119.107596 163.112864 119.107596 163.112864 119.107596 163.112864 
C 119.107596 163.112864 119.107596 163.112864 119.107596 163.112864 
z
" clip-path="url(#p5b43ed48ba)" style="stroke: #000000"/>
    <path d="M 112.928961 156.048109 
C 113.491975 156.048109 114.032006 155.824421 114.430117 155.42631 
C 114.828228 155.028199 115.051916 154.488168 115.051916 153.925154 
C 115.051916 153.36214 114.828228 152.822109 114.430117 152.423998 
C 114.032006 152.025887 113.491975 151.802199 112.928961 151.802199 
C 112.365947 151.802199 111.825916 152.025887 111.427805 152.423998 
C 111.029694 152.822109 110.806006 153.36214 110.806006 153.925154 
C 110.806006 154.488168 111.029694 155.028199 111.427805 155.42631 
C 111.825916 155.824421 112.365947 156.048109 112.928961 156.048109 
z
" clip-path="url(#p5b43ed48ba)" style="stroke: #000000"/>
    <path d="M 115.379334 146.737658 
C 115.92464 146.737658 116.447684 146.521006 116.833274 146.135416 
C 117.218863 145.749827 117.435516 145.226782 117.435516 144.681476 
C 117.435516 144.13617 117.218863 143.613125 116.833274 143.227536 
C 116.447684 142.841946 115.92464 142.625294 115.379334 142.625294 
C 114.834028 142.625294 114.310983 142.841946 113.925394 143.227536 
C 113.539804 143.613125 113.323152 144.13617 113.323152 144.681476 
C 113.323152 145.226782 113.539804 145.749827 113.925394 146.135416 
C 114.310983 146.521006 114.834028 146.737658 115.379334 146.737658 
z
" clip-path="url(#p5b43ed48ba)" style="stroke: #000000"/>
    <path d="M 111.119797 132.805051 
C 111.713179 132.805051 112.282338 132.569297 112.701923 132.149713 
C 113.121508 131.730128 113.357261 131.160969 113.357261 130.567586 
C 113.357261 129.974204 113.121508 129.405045 112.701923 128.98546 
C 112.282338 128.565876 111.713179 128.330122 111.119797 128.330122 
C 110.526415 128.330122 109.957256 128.565876 109.537671 128.98546 
C 109.118086 129.405045 108.882333 129.974204 108.882333 130.567586 
C 108.882333 131.160969 109.118086 131.730128 109.537671 132.149713 
C 109.957256 132.569297 110.526415 132.805051 111.119797 132.805051 
z
" clip-path="url(#p5b43ed48ba)" style="stroke: #000000"/>
    <path d="M 109.051857 127.565629 
C 109.644869 127.565629 110.213673 127.330023 110.632996 126.9107 
C 111.052319 126.491377 111.287925 125.922573 111.287925 125.329561 
C 111.287925 124.736549 111.052319 124.167745 110.632996 123.748422 
C 110.213673 123.329099 109.644869 123.093493 109.051857 123.093493 
C 108.458845 123.093493 107.890041 123.329099 107.470718 123.748422 
C 107.051395 124.167745 106.815789 124.736549 106.815789 125.329561 
C 106.815789 125.922573 107.051395 126.491377 107.470718 126.9107 
C 107.890041 127.330023 108.458845 127.565629 109.051857 127.565629 
z
" clip-path="url(#p5b43ed48ba)" style="stroke: #000000"/>
    <path d="M 103.757187 111.010718 
C 104.350199 111.010718 104.919003 110.775112 105.338326 110.355789 
C 105.757649 109.936466 105.993255 109.367662 105.993255 108.77465 
C 105.993255 108.181638 105.757649 107.612834 105.338326 107.193511 
C 104.919003 106.774188 104.350199 106.538582 103.757187 106.538582 
C 103.164175 106.538582 102.595371 106.774188 102.176048 107.193511 
C 101.756725 107.612834 101.521119 108.181638 101.521119 108.77465 
C 101.521119 109.367662 101.756725 109.936466 102.176048 110.355789 
C 102.595371 110.775112 103.164175 111.010718 103.757187 111.010718 
z
" clip-path="url(#p5b43ed48ba)" style="stroke: #000000"/>
    <path d="M 100.481304 101.819555 
C 100.933297 101.819555 101.366839 101.639976 101.686446 101.320368 
C 102.006054 101.000761 102.185633 100.567219 102.185633 100.115226 
C 102.185633 99.663232 102.006054 99.229691 101.686446 98.910083 
C 101.366839 98.590475 100.933297 98.410897 100.481304 98.410897 
C 100.029311 98.410897 99.595769 98.590475 99.276161 98.910083 
C 98.956554 99.229691 98.776975 99.663232 98.776975 100.115226 
C 98.776975 100.567219 98.956554 101.000761 99.276161 101.320368 
C 99.595769 101.639976 100.029311 101.819555 100.481304 101.819555 
z
" clip-path="url(#p5b43ed48ba)" style="stroke: #000000"/>
    <path d="M 96.090063 94.998537 
C 96.795277 94.998537 97.471702 94.718353 97.970364 94.219691 
C 98.469026 93.721029 98.74921 93.044604 98.74921 92.339389 
C 98.74921 91.634175 98.469026 90.95775 97.970364 90.459088 
C 97.471702 89.960426 96.795277 89.680241 96.090063 89.680241 
C 95.384848 89.680241 94.708423 89.960426 94.209761 90.459088 
C 93.711099 90.95775 93.430915 91.634175 93.430915 92.339389 
C 93.430915 93.044604 93.711099 93.721029 94.209761 94.219691 
C 94.708423 94.718353 95.384848 94.998537 96.090063 94.998537 
z
" clip-path="url(#p5b43ed48ba)" style="stroke: #000000"/>
    <path d="M 92.903645 85.504688 
C 93.571375 85.504688 94.211847 85.239396 94.684004 84.767239 
C 95.156161 84.295082 95.421453 83.65461 95.421453 82.986879 
C 95.421453 82.319148 95.156161 81.678676 94.684004 81.206519 
C 94.211847 80.734362 93.571375 80.46907 92.903645 80.46907 
C 92.235914 80.46907 91.595442 80.734362 91.123285 81.206519 
C 90.651128 81.678676 90.385836 82.319148 90.385836 82.986879 
C 90.385836 83.65461 90.651128 84.295082 91.123285 84.767239 
C 91.595442 85.239396 92.235914 85.504688 92.903645 85.504688 
z
" clip-path="url(#p5b43ed48ba)" style="stroke: #000000"/>
    <path d="M 85.515222 75.313644 
C 86.145368 75.313644 86.74979 75.063284 87.19537 74.617704 
C 87.640951 74.172123 87.891311 73.567702 87.891311 72.937556 
C 87.891311 72.30741 87.640951 71.702988 87.19537 71.257408 
C 86.74979 70.811827 86.145368 70.561467 85.515222 70.561467 
C 84.885076 70.561467 84.280655 70.811827 83.835074 71.257408 
C 83.389494 71.702988 83.139134 72.30741 83.139134 72.937556 
C 83.139134 73.567702 83.389494 74.172123 83.835074 74.617704 
C 84.280655 75.063284 84.885076 75.313644 85.515222 75.313644 
z
" clip-path="url(#p5b43ed48ba)" style="stroke: #000000"/>
    <path d="M 90.07014 60.674785 
C 90.654438 60.674785 91.214882 60.442641 91.628043 60.02948 
C 92.041204 59.616319 92.273348 59.055875 92.273348 58.471577 
C 92.273348 57.88728 92.041204 57.326835 91.628043 56.913675 
C 91.214882 56.500514 90.654438 56.26837 90.07014 56.26837 
C 89.485843 56.26837 88.925398 56.500514 88.512238 56.913675 
C 88.099077 57.326835 87.866933 57.88728 87.866933 58.471577 
C 87.866933 59.055875 88.099077 59.616319 88.512238 60.02948 
C 88.925398 60.442641 89.485843 60.674785 90.07014 60.674785 
z
" clip-path="url(#p5b43ed48ba)" style="stroke: #000000"/>
    <path d="M 79.826109 54.444929 
C 80.38296 54.444929 80.917078 54.22369 81.310831 53.829937 
C 81.704584 53.436184 81.925823 52.902066 81.925823 52.345215 
C 81.925823 51.788365 81.704584 51.254246 81.310831 50.860494 
C 80.917078 50.466741 80.38296 50.245502 79.826109 50.245502 
C 79.269258 50.245502 78.73514 50.466741 78.341387 50.860494 
C 77.947634 51.254246 77.726395 51.788365 77.726395 52.345215 
C 77.726395 52.902066 77.947634 53.436184 78.341387 53.829937 
C 78.73514 54.22369 79.269258 54.444929 79.826109 54.444929 
z
" clip-path="url(#p5b43ed48ba)" style="stroke: #000000"/>
    <path d="M 79.098925 43.508193 
C 79.098925 43.508193 79.098925 43.508193 79.098925 43.508193 
C 79.098925 43.508193 79.098925 43.508193 79.098925 43.508193 
C 79.098925 43.508193 79.098925 43.508193 79.098925 43.508193 
C 79.098925 43.508193 79.098925 43.508193 79.098925 43.508193 
C 79.098925 43.508193 79.098925 43.508193 79.098925 43.508193 
C 79.098925 43.508193 79.098925 43.508193 79.098925 43.508193 
C 79.098925 43.508193 79.098925 43.508193 79.098925 43.508193 
C 79.098925 43.508193 79.098925 43.508193 79.098925 43.508193 
z
" clip-path="url(#p5b43ed48ba)" style="stroke: #000000"/>
    <path d="M 71.477619 27.895902 
C 72.013633 27.895902 72.527766 27.682941 72.906785 27.303922 
C 73.285805 26.924902 73.498766 26.410769 73.498766 25.874755 
C 73.498766 25.338741 73.285805 24.824608 72.906785 24.445589 
C 72.527766 24.066569 72.013633 23.853608 71.477619 23.853608 
C 70.941605 23.853608 70.427472 24.066569 70.048452 24.445589 
C 69.669433 24.824608 69.456472 25.338741 69.456472 25.874755 
C 69.456472 26.410769 69.669433 26.924902 70.048452 27.303922 
C 70.427472 27.682941 70.941605 27.895902 71.477619 27.895902 
z
" clip-path="url(#p5b43ed48ba)" style="stroke: #000000"/>
    <path d="M 115.974616 176.367299 
C 115.974616 176.367299 115.974616 176.367299 115.974616 176.367299 
C 115.974616 176.367299 115.974616 176.367299 115.974616 176.367299 
C 115.974616 176.367299 115.974616 176.367299 115.974616 176.367299 
C 115.974616 176.367299 115.974616 176.367299 115.974616 176.367299 
C 115.974616 176.367299 115.974616 176.367299 115.974616 176.367299 
C 115.974616 176.367299 115.974616 176.367299 115.974616 176.367299 
C 115.974616 176.367299 115.974616 176.367299 115.974616 176.367299 
C 115.974616 176.367299 115.974616 176.367299 115.974616 176.367299 
z
" clip-path="url(#p5b43ed48ba)" style="stroke: #000000"/>
    <path d="M 113.009955 168.518204 
C 113.591521 168.518204 114.149346 168.287145 114.560575 167.875916 
C 114.971805 167.464686 115.202863 166.906862 115.202863 166.325296 
C 115.202863 165.74373 114.971805 165.185905 114.560575 164.774675 
C 114.149346 164.363446 113.591521 164.132387 113.009955 164.132387 
C 112.428389 164.132387 111.870564 164.363446 111.459335 164.774675 
C 111.048106 165.185905 110.817047 165.74373 110.817047 166.325296 
C 110.817047 166.906862 111.048106 167.464686 111.459335 167.875916 
C 111.870564 168.287145 112.428389 168.518204 113.009955 168.518204 
z
" clip-path="url(#p5b43ed48ba)" style="stroke: #000000"/>
    <path d="M 109.448494 157.268886 
C 109.448494 157.268886 109.448494 157.268886 109.448494 157.268886 
C 109.448494 157.268886 109.448494 157.268886 109.448494 157.268886 
C 109.448494 157.268886 109.448494 157.268886 109.448494 157.268886 
C 109.448494 157.268886 109.448494 157.268886 109.448494 157.268886 
C 109.448494 157.268886 109.448494 157.268886 109.448494 157.268886 
C 109.448494 157.268886 109.448494 157.268886 109.448494 157.268886 
C 109.448494 157.268886 109.448494 157.268886 109.448494 157.268886 
C 109.448494 157.268886 109.448494 157.268886 109.448494 157.268886 
z
" clip-path="url(#p5b43ed48ba)" style="stroke: #000000"/>
    <path d="M 101.130752 151.637418 
C 101.723764 151.637418 102.292568 151.401812 102.711891 150.982489 
C 103.131214 150.563166 103.36682 149.994362 103.36682 149.40135 
C 103.36682 148.808338 103.131214 148.239534 102.711891 147.820211 
C 102.292568 147.400888 101.723764 147.165282 101.130752 147.165282 
C 100.53774 147.165282 99.968936 147.400888 99.549613 147.820211 
C 99.13029 148.239534 98.894684 148.808338 98.894684 149.40135 
C 98.894684 149.994362 99.13029 150.563166 99.549613 150.982489 
C 99.968936 151.401812 100.53774 151.637418 101.130752 151.637418 
z
" clip-path="url(#p5b43ed48ba)" style="stroke: #000000"/>
    <path d="M 99.22774 140.650979 
C 99.820752 140.650979 100.389556 140.415373 100.808878 139.99605 
C 101.228201 139.576727 101.463808 139.007923 101.463808 138.414911 
C 101.463808 137.821899 101.228201 137.253095 100.808878 136.833772 
C 100.389556 136.414449 99.820752 136.178843 99.22774 136.178843 
C 98.634727 136.178843 98.065924 136.414449 97.646601 136.833772 
C 97.227278 137.253095 96.991672 137.821899 96.991672 138.414911 
C 96.991672 139.007923 97.227278 139.576727 97.646601 139.99605 
C 98.065924 140.415373 98.634727 140.650979 99.22774 140.650979 
z
" clip-path="url(#p5b43ed48ba)" style="stroke: #000000"/>
    <path d="M 100.277804 127.23032 
C 100.277804 127.23032 100.277804 127.23032 100.277804 127.23032 
C 100.277804 127.23032 100.277804 127.23032 100.277804 127.23032 
C 100.277804 127.23032 100.277804 127.23032 100.277804 127.23032 
C 100.277804 127.23032 100.277804 127.23032 100.277804 127.23032 
C 100.277804 127.23032 100.277804 127.23032 100.277804 127.23032 
C 100.277804 127.23032 100.277804 127.23032 100.277804 127.23032 
C 100.277804 127.23032 100.277804 127.23032 100.277804 127.23032 
C 100.277804 127.23032 100.277804 127.23032 100.277804 127.23032 
z
" clip-path="url(#p5b43ed48ba)" style="stroke: #000000"/>
    <path d="M 91.226147 121.010869 
C 91.931582 121.010869 92.608218 120.730597 93.107036 120.231779 
C 93.605854 119.732962 93.886126 119.056325 93.886126 118.35089 
C 93.886126 117.645456 93.605854 116.968819 93.107036 116.470002 
C 92.608218 115.971184 91.931582 115.690912 91.226147 115.690912 
C 90.520713 115.690912 89.844076 115.971184 89.345258 116.470002 
C 88.846441 116.968819 88.566169 117.645456 88.566169 118.35089 
C 88.566169 119.056325 88.846441 119.732962 89.345258 120.231779 
C 89.844076 120.730597 90.520713 121.010869 91.226147 121.010869 
z
" clip-path="url(#p5b43ed48ba)" style="stroke: #000000"/>
    <path d="M 90.322307 106.676543 
C 91.027301 106.676543 91.703515 106.396446 92.202021 105.89794 
C 92.700527 105.399434 92.980624 104.72322 92.980624 104.018226 
C 92.980624 103.313233 92.700527 102.637019 92.202021 102.138513 
C 91.703515 101.640007 91.027301 101.35991 90.322307 101.35991 
C 89.617314 101.35991 88.9411 101.640007 88.442594 102.138513 
C 87.944088 102.637019 87.663991 103.313233 87.663991 104.018226 
C 87.663991 104.72322 87.944088 105.399434 88.442594 105.89794 
C 88.9411 106.396446 89.617314 106.676543 90.322307 106.676543 
z
" clip-path="url(#p5b43ed48ba)" style="stroke: #000000"/>
    <path d="M 86.263886 98.81904 
C 86.794292 98.81904 87.303046 98.608307 87.6781 98.233254 
C 88.053154 97.8582 88.263886 97.349446 88.263886 96.81904 
C 88.263886 96.288634 88.053154 95.77988 87.6781 95.404826 
C 87.303046 95.029773 86.794292 94.81904 86.263886 94.81904 
C 85.73348 94.81904 85.224726 95.029773 84.849673 95.404826 
C 84.474619 95.77988 84.263886 96.288634 84.263886 96.81904 
C 84.263886 97.349446 84.474619 97.8582 84.849673 98.233254 
C 85.224726 98.608307 85.73348 98.81904 86.263886 98.81904 
z
" clip-path="url(#p5b43ed48ba)" style="stroke: #000000"/>
    <path d="M 82.390562 87.234543 
C 82.926073 87.234543 83.439724 87.021782 83.818388 86.643118 
C 84.197052 86.264454 84.409813 85.750803 84.409813 85.215291 
C 84.409813 84.67978 84.197052 84.166129 83.818388 83.787465 
C 83.439724 83.408801 82.926073 83.19604 82.390562 83.19604 
C 81.85505 83.19604 81.341399 83.408801 80.962735 83.787465 
C 80.584071 84.166129 80.37131 84.67978 80.37131 85.215291 
C 80.37131 85.750803 80.584071 86.264454 80.962735 86.643118 
C 81.341399 87.021782 81.85505 87.234543 82.390562 87.234543 
z
" clip-path="url(#p5b43ed48ba)" style="stroke: #000000"/>
    <path d="M 78.748842 79.759398 
C 79.161728 79.759398 79.557759 79.595357 79.849714 79.303402 
C 80.141669 79.011447 80.30571 78.615416 80.30571 78.202529 
C 80.30571 77.789643 80.141669 77.393612 79.849714 77.101657 
C 79.557759 76.809702 79.161728 76.645661 78.748842 76.645661 
C 78.335955 76.645661 77.939924 76.809702 77.647969 77.101657 
C 77.356014 77.393612 77.191973 77.789643 77.191973 78.202529 
C 77.191973 78.615416 77.356014 79.011447 77.647969 79.303402 
C 77.939924 79.595357 78.335955 79.759398 78.748842 79.759398 
z
" clip-path="url(#p5b43ed48ba)" style="stroke: #000000"/>
    <path d="M 75.287939 62.462552 
C 75.287939 62.462552 75.287939 62.462552 75.287939 62.462552 
C 75.287939 62.462552 75.287939 62.462552 75.287939 62.462552 
C 75.287939 62.462552 75.287939 62.462552 75.287939 62.462552 
C 75.287939 62.462552 75.287939 62.462552 75.287939 62.462552 
C 75.287939 62.462552 75.287939 62.462552 75.287939 62.462552 
C 75.287939 62.462552 75.287939 62.462552 75.287939 62.462552 
C 75.287939 62.462552 75.287939 62.462552 75.287939 62.462552 
C 75.287939 62.462552 75.287939 62.462552 75.287939 62.462552 
z
" clip-path="url(#p5b43ed48ba)" style="stroke: #000000"/>
    <path d="M 72.17439 51.279465 
C 72.17439 51.279465 72.17439 51.279465 72.17439 51.279465 
C 72.17439 51.279465 72.17439 51.279465 72.17439 51.279465 
C 72.17439 51.279465 72.17439 51.279465 72.17439 51.279465 
C 72.17439 51.279465 72.17439 51.279465 72.17439 51.279465 
C 72.17439 51.279465 72.17439 51.279465 72.17439 51.279465 
C 72.17439 51.279465 72.17439 51.279465 72.17439 51.279465 
C 72.17439 51.279465 72.17439 51.279465 72.17439 51.279465 
C 72.17439 51.279465 72.17439 51.279465 72.17439 51.279465 
z
" clip-path="url(#p5b43ed48ba)" style="stroke: #000000"/>
    <path d="M 65.936606 41.948098 
C 65.936606 41.948098 65.936606 41.948098 65.936606 41.948098 
C 65.936606 41.948098 65.936606 41.948098 65.936606 41.948098 
C 65.936606 41.948098 65.936606 41.948098 65.936606 41.948098 
C 65.936606 41.948098 65.936606 41.948098 65.936606 41.948098 
C 65.936606 41.948098 65.936606 41.948098 65.936606 41.948098 
C 65.936606 41.948098 65.936606 41.948098 65.936606 41.948098 
C 65.936606 41.948098 65.936606 41.948098 65.936606 41.948098 
C 65.936606 41.948098 65.936606 41.948098 65.936606 41.948098 
z
" clip-path="url(#p5b43ed48ba)" style="stroke: #000000"/>
    <path d="M 65.524276 33.146254 
C 65.524276 33.146254 65.524276 33.146254 65.524276 33.146254 
C 65.524276 33.146254 65.524276 33.146254 65.524276 33.146254 
C 65.524276 33.146254 65.524276 33.146254 65.524276 33.146254 
C 65.524276 33.146254 65.524276 33.146254 65.524276 33.146254 
C 65.524276 33.146254 65.524276 33.146254 65.524276 33.146254 
C 65.524276 33.146254 65.524276 33.146254 65.524276 33.146254 
C 65.524276 33.146254 65.524276 33.146254 65.524276 33.146254 
C 65.524276 33.146254 65.524276 33.146254 65.524276 33.146254 
z
" clip-path="url(#p5b43ed48ba)" style="stroke: #000000"/>
    <path d="M 62.545257 25.595664 
C 62.545257 25.595664 62.545257 25.595664 62.545257 25.595664 
C 62.545257 25.595664 62.545257 25.595664 62.545257 25.595664 
C 62.545257 25.595664 62.545257 25.595664 62.545257 25.595664 
C 62.545257 25.595664 62.545257 25.595664 62.545257 25.595664 
C 62.545257 25.595664 62.545257 25.595664 62.545257 25.595664 
C 62.545257 25.595664 62.545257 25.595664 62.545257 25.595664 
C 62.545257 25.595664 62.545257 25.595664 62.545257 25.595664 
C 62.545257 25.595664 62.545257 25.595664 62.545257 25.595664 
z
" clip-path="url(#p5b43ed48ba)" style="stroke: #000000"/>
    <path d="M 102.982342 179.099374 
C 102.982342 179.099374 102.982342 179.099374 102.982342 179.099374 
C 102.982342 179.099374 102.982342 179.099374 102.982342 179.099374 
C 102.982342 179.099374 102.982342 179.099374 102.982342 179.099374 
C 102.982342 179.099374 102.982342 179.099374 102.982342 179.099374 
C 102.982342 179.099374 102.982342 179.099374 102.982342 179.099374 
C 102.982342 179.099374 102.982342 179.099374 102.982342 179.099374 
C 102.982342 179.099374 102.982342 179.099374 102.982342 179.099374 
C 102.982342 179.099374 102.982342 179.099374 102.982342 179.099374 
z
" clip-path="url(#p5b43ed48ba)" style="stroke: #000000"/>
    <path d="M 104.712765 172.397915 
C 104.712765 172.397915 104.712765 172.397915 104.712765 172.397915 
C 104.712765 172.397915 104.712765 172.397915 104.712765 172.397915 
C 104.712765 172.397915 104.712765 172.397915 104.712765 172.397915 
C 104.712765 172.397915 104.712765 172.397915 104.712765 172.397915 
C 104.712765 172.397915 104.712765 172.397915 104.712765 172.397915 
C 104.712765 172.397915 104.712765 172.397915 104.712765 172.397915 
C 104.712765 172.397915 104.712765 172.397915 104.712765 172.397915 
C 104.712765 172.397915 104.712765 172.397915 104.712765 172.397915 
z
" clip-path="url(#p5b43ed48ba)" style="stroke: #000000"/>
    <path d="M 100.395918 164.550826 
C 100.98893 164.550826 101.557734 164.31522 101.977056 163.895897 
C 102.396379 163.476574 102.631986 162.90777 102.631986 162.314758 
C 102.631986 161.721746 102.396379 161.152942 101.977056 160.733619 
C 101.557734 160.314296 100.98893 160.07869 100.395918 160.07869 
C 99.802905 160.07869 99.234102 160.314296 98.814779 160.733619 
C 98.395456 161.152942 98.15985 161.721746 98.15985 162.314758 
C 98.15985 162.90777 98.395456 163.476574 98.814779 163.895897 
C 99.234102 164.31522 99.802905 164.550826 100.395918 164.550826 
z
" clip-path="url(#p5b43ed48ba)" style="stroke: #000000"/>
    <path d="M 92.170591 149.11375 
C 92.170591 149.11375 92.170591 149.11375 92.170591 149.11375 
C 92.170591 149.11375 92.170591 149.11375 92.170591 149.11375 
C 92.170591 149.11375 92.170591 149.11375 92.170591 149.11375 
C 92.170591 149.11375 92.170591 149.11375 92.170591 149.11375 
C 92.170591 149.11375 92.170591 149.11375 92.170591 149.11375 
C 92.170591 149.11375 92.170591 149.11375 92.170591 149.11375 
C 92.170591 149.11375 92.170591 149.11375 92.170591 149.11375 
C 92.170591 149.11375 92.170591 149.11375 92.170591 149.11375 
z
" clip-path="url(#p5b43ed48ba)" style="stroke: #000000"/>
    <path d="M 90.595342 145.768852 
C 91.188724 145.768852 91.757883 145.533099 92.177468 145.113514 
C 92.597053 144.693929 92.832806 144.12477 92.832806 143.531388 
C 92.832806 142.938006 92.597053 142.368847 92.177468 141.949262 
C 91.757883 141.529677 91.188724 141.293924 90.595342 141.293924 
C 90.001959 141.293924 89.432801 141.529677 89.013216 141.949262 
C 88.593631 142.368847 88.357878 142.938006 88.357878 143.531388 
C 88.357878 144.12477 88.593631 144.693929 89.013216 145.113514 
C 89.432801 145.533099 90.001959 145.768852 90.595342 145.768852 
z
" clip-path="url(#p5b43ed48ba)" style="stroke: #000000"/>
    <path d="M 83.637784 134.076798 
C 84.273117 134.076798 84.882513 133.824378 85.331761 133.37513 
C 85.78101 132.925882 86.03343 132.316485 86.03343 131.681152 
C 86.03343 131.04582 85.78101 130.436423 85.331761 129.987175 
C 84.882513 129.537927 84.273117 129.285506 83.637784 129.285506 
C 83.002451 129.285506 82.393054 129.537927 81.943806 129.987175 
C 81.494558 130.436423 81.242138 131.04582 81.242138 131.681152 
C 81.242138 132.316485 81.494558 132.925882 81.943806 133.37513 
C 82.393054 133.824378 83.002451 134.076798 83.637784 134.076798 
z
" clip-path="url(#p5b43ed48ba)" style="stroke: #000000"/>
    <path d="M 82.280087 128.99209 
C 82.985302 128.99209 83.661727 128.711906 84.160389 128.213244 
C 84.659051 127.714582 84.939235 127.038157 84.939235 126.332942 
C 84.939235 125.627728 84.659051 124.951303 84.160389 124.452641 
C 83.661727 123.953979 82.985302 123.673795 82.280087 123.673795 
C 81.574873 123.673795 80.898448 123.953979 80.399786 124.452641 
C 79.901124 124.951303 79.620939 125.627728 79.620939 126.332942 
C 79.620939 127.038157 79.901124 127.714582 80.399786 128.213244 
C 80.898448 128.711906 81.574873 128.99209 82.280087 128.99209 
z
" clip-path="url(#p5b43ed48ba)" style="stroke: #000000"/>
    <path d="M 77.122765 109.168806 
C 77.122765 109.168806 77.122765 109.168806 77.122765 109.168806 
C 77.122765 109.168806 77.122765 109.168806 77.122765 109.168806 
C 77.122765 109.168806 77.122765 109.168806 77.122765 109.168806 
C 77.122765 109.168806 77.122765 109.168806 77.122765 109.168806 
C 77.122765 109.168806 77.122765 109.168806 77.122765 109.168806 
C 77.122765 109.168806 77.122765 109.168806 77.122765 109.168806 
C 77.122765 109.168806 77.122765 109.168806 77.122765 109.168806 
C 77.122765 109.168806 77.122765 109.168806 77.122765 109.168806 
z
" clip-path="url(#p5b43ed48ba)" style="stroke: #000000"/>
    <path d="M 75.170796 102.149653 
C 75.703773 102.149653 76.214993 101.937899 76.591865 101.561027 
C 76.968736 101.184155 77.180491 100.672936 77.180491 100.139958 
C 77.180491 99.606981 76.968736 99.095761 76.591865 98.718889 
C 76.214993 98.342018 75.703773 98.130263 75.170796 98.130263 
C 74.637818 98.130263 74.126599 98.342018 73.749727 98.718889 
C 73.372855 99.095761 73.161101 99.606981 73.161101 100.139958 
C 73.161101 100.672936 73.372855 101.184155 73.749727 101.561027 
C 74.126599 101.937899 74.637818 102.149653 75.170796 102.149653 
z
" clip-path="url(#p5b43ed48ba)" style="stroke: #000000"/>
    <path d="M 71.432322 88.814449 
C 71.432322 88.814449 71.432322 88.814449 71.432322 88.814449 
C 71.432322 88.814449 71.432322 88.814449 71.432322 88.814449 
C 71.432322 88.814449 71.432322 88.814449 71.432322 88.814449 
C 71.432322 88.814449 71.432322 88.814449 71.432322 88.814449 
C 71.432322 88.814449 71.432322 88.814449 71.432322 88.814449 
C 71.432322 88.814449 71.432322 88.814449 71.432322 88.814449 
C 71.432322 88.814449 71.432322 88.814449 71.432322 88.814449 
C 71.432322 88.814449 71.432322 88.814449 71.432322 88.814449 
z
" clip-path="url(#p5b43ed48ba)" style="stroke: #000000"/>
    <path d="M 68.84628 77.203508 
C 69.082083 77.203508 69.308259 77.109823 69.474997 76.943085 
C 69.641734 76.776348 69.73542 76.550171 69.73542 76.314369 
C 69.73542 76.078566 69.641734 75.85239 69.474997 75.685652 
C 69.308259 75.518914 69.082083 75.425229 68.84628 75.425229 
C 68.610477 75.425229 68.384301 75.518914 68.217563 75.685652 
C 68.050826 75.85239 67.95714 76.078566 67.95714 76.314369 
C 67.95714 76.550171 68.050826 76.776348 68.217563 76.943085 
C 68.384301 77.109823 68.610477 77.203508 68.84628 77.203508 
z
" clip-path="url(#p5b43ed48ba)" style="stroke: #000000"/>
    <path d="M 62.624455 67.213966 
C 62.624455 67.213966 62.624455 67.213966 62.624455 67.213966 
C 62.624455 67.213966 62.624455 67.213966 62.624455 67.213966 
C 62.624455 67.213966 62.624455 67.213966 62.624455 67.213966 
C 62.624455 67.213966 62.624455 67.213966 62.624455 67.213966 
C 62.624455 67.213966 62.624455 67.213966 62.624455 67.213966 
C 62.624455 67.213966 62.624455 67.213966 62.624455 67.213966 
C 62.624455 67.213966 62.624455 67.213966 62.624455 67.213966 
C 62.624455 67.213966 62.624455 67.213966 62.624455 67.213966 
z
" clip-path="url(#p5b43ed48ba)" style="stroke: #000000"/>
    <path d="M 61.908869 58.627036 
C 61.908869 58.627036 61.908869 58.627036 61.908869 58.627036 
C 61.908869 58.627036 61.908869 58.627036 61.908869 58.627036 
C 61.908869 58.627036 61.908869 58.627036 61.908869 58.627036 
C 61.908869 58.627036 61.908869 58.627036 61.908869 58.627036 
C 61.908869 58.627036 61.908869 58.627036 61.908869 58.627036 
C 61.908869 58.627036 61.908869 58.627036 61.908869 58.627036 
C 61.908869 58.627036 61.908869 58.627036 61.908869 58.627036 
C 61.908869 58.627036 61.908869 58.627036 61.908869 58.627036 
z
" clip-path="url(#p5b43ed48ba)" style="stroke: #000000"/>
    <path d="M 62.04298 52.358332 
C 62.578995 52.358332 63.093127 52.145371 63.472147 51.766352 
C 63.851166 51.387333 64.064127 50.8732 64.064127 50.337185 
C 64.064127 49.801171 63.851166 49.287038 63.472147 48.908019 
C 63.093127 48.529 62.578995 48.316039 62.04298 48.316039 
C 61.506966 48.316039 60.992833 48.529 60.613814 48.908019 
C 60.234794 49.287038 60.021834 49.801171 60.021834 50.337185 
C 60.021834 50.8732 60.234794 51.387333 60.613814 51.766352 
C 60.992833 52.145371 61.506966 52.358332 62.04298 52.358332 
z
" clip-path="url(#p5b43ed48ba)" style="stroke: #000000"/>
    <path d="M 48.781984 37.211656 
C 48.969511 37.211656 49.149382 37.13715 49.281984 37.004549 
C 49.414585 36.871947 49.489091 36.692076 49.489091 36.504549 
C 49.489091 36.317022 49.414585 36.13715 49.281984 36.004549 
C 49.149382 35.871947 48.969511 35.797442 48.781984 35.797442 
C 48.594457 35.797442 48.414585 35.871947 48.281984 36.004549 
C 48.149382 36.13715 48.074877 36.317022 48.074877 36.504549 
C 48.074877 36.692076 48.149382 36.871947 48.281984 37.004549 
C 48.414585 37.13715 48.594457 37.211656 48.781984 37.211656 
z
" clip-path="url(#p5b43ed48ba)" style="stroke: #000000"/>
    <path d="M 90.906534 174.690761 
C 90.906534 174.690761 90.906534 174.690761 90.906534 174.690761 
C 90.906534 174.690761 90.906534 174.690761 90.906534 174.690761 
C 90.906534 174.690761 90.906534 174.690761 90.906534 174.690761 
C 90.906534 174.690761 90.906534 174.690761 90.906534 174.690761 
C 90.906534 174.690761 90.906534 174.690761 90.906534 174.690761 
C 90.906534 174.690761 90.906534 174.690761 90.906534 174.690761 
C 90.906534 174.690761 90.906534 174.690761 90.906534 174.690761 
C 90.906534 174.690761 90.906534 174.690761 90.906534 174.690761 
z
" clip-path="url(#p5b43ed48ba)" style="stroke: #000000"/>
    <path d="M 89.967445 160.996387 
C 89.967445 160.996387 89.967445 160.996387 89.967445 160.996387 
C 89.967445 160.996387 89.967445 160.996387 89.967445 160.996387 
C 89.967445 160.996387 89.967445 160.996387 89.967445 160.996387 
C 89.967445 160.996387 89.967445 160.996387 89.967445 160.996387 
C 89.967445 160.996387 89.967445 160.996387 89.967445 160.996387 
C 89.967445 160.996387 89.967445 160.996387 89.967445 160.996387 
C 89.967445 160.996387 89.967445 160.996387 89.967445 160.996387 
C 89.967445 160.996387 89.967445 160.996387 89.967445 160.996387 
z
" clip-path="url(#p5b43ed48ba)" style="stroke: #000000"/>
    <path d="M 78.48115 153.67284 
C 78.48115 153.67284 78.48115 153.67284 78.48115 153.67284 
C 78.48115 153.67284 78.48115 153.67284 78.48115 153.67284 
C 78.48115 153.67284 78.48115 153.67284 78.48115 153.67284 
C 78.48115 153.67284 78.48115 153.67284 78.48115 153.67284 
C 78.48115 153.67284 78.48115 153.67284 78.48115 153.67284 
C 78.48115 153.67284 78.48115 153.67284 78.48115 153.67284 
C 78.48115 153.67284 78.48115 153.67284 78.48115 153.67284 
C 78.48115 153.67284 78.48115 153.67284 78.48115 153.67284 
z
" clip-path="url(#p5b43ed48ba)" style="stroke: #000000"/>
    <path d="M 80.958875 147.065764 
C 80.958875 147.065764 80.958875 147.065764 80.958875 147.065764 
C 80.958875 147.065764 80.958875 147.065764 80.958875 147.065764 
C 80.958875 147.065764 80.958875 147.065764 80.958875 147.065764 
C 80.958875 147.065764 80.958875 147.065764 80.958875 147.065764 
C 80.958875 147.065764 80.958875 147.065764 80.958875 147.065764 
C 80.958875 147.065764 80.958875 147.065764 80.958875 147.065764 
C 80.958875 147.065764 80.958875 147.065764 80.958875 147.065764 
C 80.958875 147.065764 80.958875 147.065764 80.958875 147.065764 
z
" clip-path="url(#p5b43ed48ba)" style="stroke: #000000"/>
    <path d="M 75.564297 137.513321 
C 76.269731 137.513321 76.946368 137.233049 77.445186 136.734231 
C 77.944003 136.235414 78.224275 135.558777 78.224275 134.853342 
C 78.224275 134.147908 77.944003 133.471271 77.445186 132.972453 
C 76.946368 132.473636 76.269731 132.193364 75.564297 132.193364 
C 74.858862 132.193364 74.182226 132.473636 73.683408 132.972453 
C 73.18459 133.471271 72.904318 134.147908 72.904318 134.853342 
C 72.904318 135.558777 73.18459 136.235414 73.683408 136.734231 
C 74.182226 137.233049 74.858862 137.513321 75.564297 137.513321 
z
" clip-path="url(#p5b43ed48ba)" style="stroke: #000000"/>
    <path d="M 71.169918 123.769391 
C 71.169918 123.769391 71.169918 123.769391 71.169918 123.769391 
C 71.169918 123.769391 71.169918 123.769391 71.169918 123.769391 
C 71.169918 123.769391 71.169918 123.769391 71.169918 123.769391 
C 71.169918 123.769391 71.169918 123.769391 71.169918 123.769391 
C 71.169918 123.769391 71.169918 123.769391 71.169918 123.769391 
C 71.169918 123.769391 71.169918 123.769391 71.169918 123.769391 
C 71.169918 123.769391 71.169918 123.769391 71.169918 123.769391 
C 71.169918 123.769391 71.169918 123.769391 71.169918 123.769391 
z
" clip-path="url(#p5b43ed48ba)" style="stroke: #000000"/>
    <path d="M 65.784115 117.049877 
C 66.489329 117.049877 67.165754 116.769692 67.664416 116.27103 
C 68.163078 115.772368 68.443263 115.095943 68.443263 114.390729 
C 68.443263 113.685514 68.163078 113.009089 67.664416 112.510427 
C 67.165754 112.011765 66.489329 111.731581 65.784115 111.731581 
C 65.0789 111.731581 64.402475 112.011765 63.903813 112.510427 
C 63.405151 113.009089 63.124967 113.685514 63.124967 114.390729 
C 63.124967 115.095943 63.405151 115.772368 63.903813 116.27103 
C 64.402475 116.769692 65.0789 117.049877 65.784115 117.049877 
z
" clip-path="url(#p5b43ed48ba)" style="stroke: #000000"/>
    <path d="M 65.858028 105.214178 
C 66.563242 105.214178 67.239667 104.933993 67.738329 104.435331 
C 68.236991 103.93667 68.517175 103.260244 68.517175 102.55503 
C 68.517175 101.849816 68.236991 101.17339 67.738329 100.674728 
C 67.239667 100.176067 66.563242 99.895882 65.858028 99.895882 
C 65.152813 99.895882 64.476388 100.176067 63.977726 100.674728 
C 63.479064 101.17339 63.19888 101.849816 63.19888 102.55503 
C 63.19888 103.260244 63.479064 103.93667 63.977726 104.435331 
C 64.476388 104.933993 65.152813 105.214178 65.858028 105.214178 
z
" clip-path="url(#p5b43ed48ba)" style="stroke: #000000"/>
    <path d="M 60.337978 100.035987 
C 61.043413 100.035987 61.720049 99.755715 62.218867 99.256898 
C 62.717684 98.75808 62.997957 98.081443 62.997957 97.376009 
C 62.997957 96.670574 62.717684 95.993938 62.218867 95.49512 
C 61.720049 94.996302 61.043413 94.71603 60.337978 94.71603 
C 59.632543 94.71603 58.955907 94.996302 58.457089 95.49512 
C 57.958272 95.993938 57.677999 96.670574 57.677999 97.376009 
C 57.677999 98.081443 57.958272 98.75808 58.457089 99.256898 
C 58.955907 99.755715 59.632543 100.035987 60.337978 100.035987 
z
" clip-path="url(#p5b43ed48ba)" style="stroke: #000000"/>
    <path d="M 53.477774 83.92748 
C 53.477774 83.92748 53.477774 83.92748 53.477774 83.92748 
C 53.477774 83.92748 53.477774 83.92748 53.477774 83.92748 
C 53.477774 83.92748 53.477774 83.92748 53.477774 83.92748 
C 53.477774 83.92748 53.477774 83.92748 53.477774 83.92748 
C 53.477774 83.92748 53.477774 83.92748 53.477774 83.92748 
C 53.477774 83.92748 53.477774 83.92748 53.477774 83.92748 
C 53.477774 83.92748 53.477774 83.92748 53.477774 83.92748 
C 53.477774 83.92748 53.477774 83.92748 53.477774 83.92748 
z
" clip-path="url(#p5b43ed48ba)" style="stroke: #000000"/>
    <path d="M 53.613907 69.357622 
C 53.613907 69.357622 53.613907 69.357622 53.613907 69.357622 
C 53.613907 69.357622 53.613907 69.357622 53.613907 69.357622 
C 53.613907 69.357622 53.613907 69.357622 53.613907 69.357622 
C 53.613907 69.357622 53.613907 69.357622 53.613907 69.357622 
C 53.613907 69.357622 53.613907 69.357622 53.613907 69.357622 
C 53.613907 69.357622 53.613907 69.357622 53.613907 69.357622 
C 53.613907 69.357622 53.613907 69.357622 53.613907 69.357622 
C 53.613907 69.357622 53.613907 69.357622 53.613907 69.357622 
z
" clip-path="url(#p5b43ed48ba)" style="stroke: #000000"/>
    <path d="M 50.191537 62.205992 
C 50.784549 62.205992 51.353353 61.970386 51.772676 61.551063 
C 52.191999 61.13174 52.427605 60.562936 52.427605 59.969924 
C 52.427605 59.376912 52.191999 58.808108 51.772676 58.388785 
C 51.353353 57.969462 50.784549 57.733856 50.191537 57.733856 
C 49.598525 57.733856 49.029721 57.969462 48.610398 58.388785 
C 48.191075 58.808108 47.955469 59.376912 47.955469 59.969924 
C 47.955469 60.562936 48.191075 61.13174 48.610398 61.551063 
C 49.029721 61.970386 49.598525 62.205992 50.191537 62.205992 
z
" clip-path="url(#p5b43ed48ba)" style="stroke: #000000"/>
    <path d="M 46.102448 49.172149 
C 46.638462 49.172149 47.152595 48.959189 47.531615 48.580169 
C 47.910634 48.20115 48.123595 47.687017 48.123595 47.151003 
C 48.123595 46.614988 47.910634 46.100856 47.531615 45.721836 
C 47.152595 45.342817 46.638462 45.129856 46.102448 45.129856 
C 45.566434 45.129856 45.052301 45.342817 44.673282 45.721836 
C 44.294262 46.100856 44.081301 46.614988 44.081301 47.151003 
C 44.081301 47.687017 44.294262 48.20115 44.673282 48.580169 
C 45.052301 48.959189 45.566434 49.172149 46.102448 49.172149 
z
" clip-path="url(#p5b43ed48ba)" style="stroke: #000000"/>
    <path d="M 77.580449 177.858166 
C 77.580449 177.858166 77.580449 177.858166 77.580449 177.858166 
C 77.580449 177.858166 77.580449 177.858166 77.580449 177.858166 
C 77.580449 177.858166 77.580449 177.858166 77.580449 177.858166 
C 77.580449 177.858166 77.580449 177.858166 77.580449 177.858166 
C 77.580449 177.858166 77.580449 177.858166 77.580449 177.858166 
C 77.580449 177.858166 77.580449 177.858166 77.580449 177.858166 
C 77.580449 177.858166 77.580449 177.858166 77.580449 177.858166 
C 77.580449 177.858166 77.580449 177.858166 77.580449 177.858166 
z
" clip-path="url(#p5b43ed48ba)" style="stroke: #000000"/>
    <path d="M 74.845082 167.031149 
C 74.845082 167.031149 74.845082 167.031149 74.845082 167.031149 
C 74.845082 167.031149 74.845082 167.031149 74.845082 167.031149 
C 74.845082 167.031149 74.845082 167.031149 74.845082 167.031149 
C 74.845082 167.031149 74.845082 167.031149 74.845082 167.031149 
C 74.845082 167.031149 74.845082 167.031149 74.845082 167.031149 
C 74.845082 167.031149 74.845082 167.031149 74.845082 167.031149 
C 74.845082 167.031149 74.845082 167.031149 74.845082 167.031149 
C 74.845082 167.031149 74.845082 167.031149 74.845082 167.031149 
z
" clip-path="url(#p5b43ed48ba)" style="stroke: #000000"/>
    <path d="M 73.750866 157.411638 
C 74.343878 157.411638 74.912682 157.176032 75.332005 156.756709 
C 75.751328 156.337386 75.986934 155.768582 75.986934 155.17557 
C 75.986934 154.582558 75.751328 154.013754 75.332005 153.594431 
C 74.912682 153.175109 74.343878 152.939502 73.750866 152.939502 
C 73.157854 152.939502 72.58905 153.175109 72.169727 153.594431 
C 71.750404 154.013754 71.514798 154.582558 71.514798 155.17557 
C 71.514798 155.768582 71.750404 156.337386 72.169727 156.756709 
C 72.58905 157.176032 73.157854 157.411638 73.750866 157.411638 
z
" clip-path="url(#p5b43ed48ba)" style="stroke: #000000"/>
    <path d="M 68.826476 149.349804 
C 69.27074 149.349804 69.696868 149.173296 70.01101 148.859154 
C 70.325152 148.545012 70.50166 148.118884 70.50166 147.67462 
C 70.50166 147.230356 70.325152 146.804228 70.01101 146.490086 
C 69.696868 146.175943 69.27074 145.999435 68.826476 145.999435 
C 68.382211 145.999435 67.956083 146.175943 67.641941 146.490086 
C 67.327799 146.804228 67.151291 147.230356 67.151291 147.67462 
C 67.151291 148.118884 67.327799 148.545012 67.641941 148.859154 
C 67.956083 149.173296 68.382211 149.349804 68.826476 149.349804 
z
" clip-path="url(#p5b43ed48ba)" style="stroke: #000000"/>
    <path d="M 66.289416 139.214275 
C 66.554619 139.214275 66.808996 139.108909 66.996523 138.921382 
C 67.18405 138.733855 67.289416 138.479478 67.289416 138.214275 
C 67.289416 137.949072 67.18405 137.694695 66.996523 137.507168 
C 66.808996 137.319641 66.554619 137.214275 66.289416 137.214275 
C 66.024213 137.214275 65.769836 137.319641 65.582309 137.507168 
C 65.394782 137.694695 65.289416 137.949072 65.289416 138.214275 
C 65.289416 138.479478 65.394782 138.733855 65.582309 138.921382 
C 65.769836 139.108909 66.024213 139.214275 66.289416 139.214275 
z
" clip-path="url(#p5b43ed48ba)" style="stroke: #000000"/>
    <path d="M 62.821868 130.529043 
C 62.821868 130.529043 62.821868 130.529043 62.821868 130.529043 
C 62.821868 130.529043 62.821868 130.529043 62.821868 130.529043 
C 62.821868 130.529043 62.821868 130.529043 62.821868 130.529043 
C 62.821868 130.529043 62.821868 130.529043 62.821868 130.529043 
C 62.821868 130.529043 62.821868 130.529043 62.821868 130.529043 
C 62.821868 130.529043 62.821868 130.529043 62.821868 130.529043 
C 62.821868 130.529043 62.821868 130.529043 62.821868 130.529043 
C 62.821868 130.529043 62.821868 130.529043 62.821868 130.529043 
z
" clip-path="url(#p5b43ed48ba)" style="stroke: #000000"/>
    <path d="M 60.74702 117.966142 
C 60.74702 117.966142 60.74702 117.966142 60.74702 117.966142 
C 60.74702 117.966142 60.74702 117.966142 60.74702 117.966142 
C 60.74702 117.966142 60.74702 117.966142 60.74702 117.966142 
C 60.74702 117.966142 60.74702 117.966142 60.74702 117.966142 
C 60.74702 117.966142 60.74702 117.966142 60.74702 117.966142 
C 60.74702 117.966142 60.74702 117.966142 60.74702 117.966142 
C 60.74702 117.966142 60.74702 117.966142 60.74702 117.966142 
C 60.74702 117.966142 60.74702 117.966142 60.74702 117.966142 
z
" clip-path="url(#p5b43ed48ba)" style="stroke: #000000"/>
    <path d="M 53.261968 102.612663 
C 53.261968 102.612663 53.261968 102.612663 53.261968 102.612663 
C 53.261968 102.612663 53.261968 102.612663 53.261968 102.612663 
C 53.261968 102.612663 53.261968 102.612663 53.261968 102.612663 
C 53.261968 102.612663 53.261968 102.612663 53.261968 102.612663 
C 53.261968 102.612663 53.261968 102.612663 53.261968 102.612663 
C 53.261968 102.612663 53.261968 102.612663 53.261968 102.612663 
C 53.261968 102.612663 53.261968 102.612663 53.261968 102.612663 
C 53.261968 102.612663 53.261968 102.612663 53.261968 102.612663 
z
" clip-path="url(#p5b43ed48ba)" style="stroke: #000000"/>
    <path d="M 47.056352 95.226822 
C 47.056352 95.226822 47.056352 95.226822 47.056352 95.226822 
C 47.056352 95.226822 47.056352 95.226822 47.056352 95.226822 
C 47.056352 95.226822 47.056352 95.226822 47.056352 95.226822 
C 47.056352 95.226822 47.056352 95.226822 47.056352 95.226822 
C 47.056352 95.226822 47.056352 95.226822 47.056352 95.226822 
C 47.056352 95.226822 47.056352 95.226822 47.056352 95.226822 
C 47.056352 95.226822 47.056352 95.226822 47.056352 95.226822 
C 47.056352 95.226822 47.056352 95.226822 47.056352 95.226822 
z
" clip-path="url(#p5b43ed48ba)" style="stroke: #000000"/>
    <path d="M 46.558794 88.219058 
C 46.558794 88.219058 46.558794 88.219058 46.558794 88.219058 
C 46.558794 88.219058 46.558794 88.219058 46.558794 88.219058 
C 46.558794 88.219058 46.558794 88.219058 46.558794 88.219058 
C 46.558794 88.219058 46.558794 88.219058 46.558794 88.219058 
C 46.558794 88.219058 46.558794 88.219058 46.558794 88.219058 
C 46.558794 88.219058 46.558794 88.219058 46.558794 88.219058 
C 46.558794 88.219058 46.558794 88.219058 46.558794 88.219058 
C 46.558794 88.219058 46.558794 88.219058 46.558794 88.219058 
z
" clip-path="url(#p5b43ed48ba)" style="stroke: #000000"/>
    <path d="M 44.015618 75.135 
C 44.608631 75.135 45.177434 74.899393 45.596757 74.48007 
C 46.01608 74.060748 46.251686 73.491944 46.251686 72.898932 
C 46.251686 72.305919 46.01608 71.737116 45.596757 71.317793 
C 45.177434 70.89847 44.608631 70.662864 44.015618 70.662864 
C 43.422606 70.662864 42.853803 70.89847 42.43448 71.317793 
C 42.015157 71.737116 41.77955 72.305919 41.77955 72.898932 
C 41.77955 73.491944 42.015157 74.060748 42.43448 74.48007 
C 42.853803 74.899393 43.422606 75.135 44.015618 75.135 
z
" clip-path="url(#p5b43ed48ba)" style="stroke: #000000"/>
    <path d="M 40.870513 66.024728 
C 41.068799 66.024728 41.25899 65.945949 41.399199 65.80574 
C 41.539408 65.665531 41.618188 65.47534 41.618188 65.277054 
C 41.618188 65.078768 41.539408 64.888577 41.399199 64.748368 
C 41.25899 64.608159 41.068799 64.52938 40.870513 64.52938 
C 40.672228 64.52938 40.482037 64.608159 40.341828 64.748368 
C 40.201619 64.888577 40.122839 65.078768 40.122839 65.277054 
C 40.122839 65.47534 40.201619 65.665531 40.341828 65.80574 
C 40.482037 65.945949 40.672228 66.024728 40.870513 66.024728 
z
" clip-path="url(#p5b43ed48ba)" style="stroke: #000000"/>
    <path d="M 64.003455 170.674957 
C 64.161146 170.674957 64.312399 170.612306 64.423904 170.500802 
C 64.535408 170.389297 64.598059 170.238044 64.598059 170.080353 
C 64.598059 169.922663 64.535408 169.771409 64.423904 169.659905 
C 64.312399 169.548401 64.161146 169.48575 64.003455 169.48575 
C 63.845765 169.48575 63.694511 169.548401 63.583007 169.659905 
C 63.471503 169.771409 63.408852 169.922663 63.408852 170.080353 
C 63.408852 170.238044 63.471503 170.389297 63.583007 170.500802 
C 63.694511 170.612306 63.845765 170.674957 64.003455 170.674957 
z
" clip-path="url(#p5b43ed48ba)" style="stroke: #000000"/>
    <path d="M 60.869355 169.819555 
C 61.40537 169.819555 61.919503 169.606595 62.298522 169.227575 
C 62.677541 168.848556 62.890502 168.334423 62.890502 167.798409 
C 62.890502 167.262394 62.677541 166.748262 62.298522 166.369242 
C 61.919503 165.990223 61.40537 165.777262 60.869355 165.777262 
C 60.333341 165.777262 59.819208 165.990223 59.440189 166.369242 
C 59.06117 166.748262 58.848209 167.262394 58.848209 167.798409 
C 58.848209 168.334423 59.06117 168.848556 59.440189 169.227575 
C 59.819208 169.606595 60.333341 169.819555 60.869355 169.819555 
z
" clip-path="url(#p5b43ed48ba)" style="stroke: #000000"/>
    <path d="M 59.800054 152.37311 
C 59.800054 152.37311 59.800054 152.37311 59.800054 152.37311 
C 59.800054 152.37311 59.800054 152.37311 59.800054 152.37311 
C 59.800054 152.37311 59.800054 152.37311 59.800054 152.37311 
C 59.800054 152.37311 59.800054 152.37311 59.800054 152.37311 
C 59.800054 152.37311 59.800054 152.37311 59.800054 152.37311 
C 59.800054 152.37311 59.800054 152.37311 59.800054 152.37311 
C 59.800054 152.37311 59.800054 152.37311 59.800054 152.37311 
C 59.800054 152.37311 59.800054 152.37311 59.800054 152.37311 
z
" clip-path="url(#p5b43ed48ba)" style="stroke: #000000"/>
    <path d="M 52.573229 141.504457 
C 52.573229 141.504457 52.573229 141.504457 52.573229 141.504457 
C 52.573229 141.504457 52.573229 141.504457 52.573229 141.504457 
C 52.573229 141.504457 52.573229 141.504457 52.573229 141.504457 
C 52.573229 141.504457 52.573229 141.504457 52.573229 141.504457 
C 52.573229 141.504457 52.573229 141.504457 52.573229 141.504457 
C 52.573229 141.504457 52.573229 141.504457 52.573229 141.504457 
C 52.573229 141.504457 52.573229 141.504457 52.573229 141.504457 
C 52.573229 141.504457 52.573229 141.504457 52.573229 141.504457 
z
" clip-path="url(#p5b43ed48ba)" style="stroke: #000000"/>
    <path d="M 50.233638 131.253826 
C 50.82665 131.253826 51.395453 131.01822 51.814776 130.598897 
C 52.234099 130.179574 52.469706 129.61077 52.469706 129.017758 
C 52.469706 128.424746 52.234099 127.855942 51.814776 127.436619 
C 51.395453 127.017296 50.82665 126.78169 50.233638 126.78169 
C 49.640625 126.78169 49.071822 127.017296 48.652499 127.436619 
C 48.233176 127.855942 47.99757 128.424746 47.99757 129.017758 
C 47.99757 129.61077 48.233176 130.179574 48.652499 130.598897 
C 49.071822 131.01822 49.640625 131.253826 50.233638 131.253826 
z
" clip-path="url(#p5b43ed48ba)" style="stroke: #000000"/>
    <path d="M 46.01441 120.818759 
C 46.01441 120.818759 46.01441 120.818759 46.01441 120.818759 
C 46.01441 120.818759 46.01441 120.818759 46.01441 120.818759 
C 46.01441 120.818759 46.01441 120.818759 46.01441 120.818759 
C 46.01441 120.818759 46.01441 120.818759 46.01441 120.818759 
C 46.01441 120.818759 46.01441 120.818759 46.01441 120.818759 
C 46.01441 120.818759 46.01441 120.818759 46.01441 120.818759 
C 46.01441 120.818759 46.01441 120.818759 46.01441 120.818759 
C 46.01441 120.818759 46.01441 120.818759 46.01441 120.818759 
z
" clip-path="url(#p5b43ed48ba)" style="stroke: #000000"/>
    <path d="M 45.419074 110.261397 
C 46.038118 110.261397 46.631892 110.015448 47.069623 109.577718 
C 47.507353 109.139987 47.753303 108.546213 47.753303 107.927169 
C 47.753303 107.308124 47.507353 106.71435 47.069623 106.27662 
C 46.631892 105.838889 46.038118 105.59294 45.419074 105.59294 
C 44.800029 105.59294 44.206256 105.838889 43.768525 106.27662 
C 43.330794 106.71435 43.084845 107.308124 43.084845 107.927169 
C 43.084845 108.546213 43.330794 109.139987 43.768525 109.577718 
C 44.206256 110.015448 44.800029 110.261397 45.419074 110.261397 
z
" clip-path="url(#p5b43ed48ba)" style="stroke: #000000"/>
    <path d="M 39.276536 97.056581 
C 39.276536 97.056581 39.276536 97.056581 39.276536 97.056581 
C 39.276536 97.056581 39.276536 97.056581 39.276536 97.056581 
C 39.276536 97.056581 39.276536 97.056581 39.276536 97.056581 
C 39.276536 97.056581 39.276536 97.056581 39.276536 97.056581 
C 39.276536 97.056581 39.276536 97.056581 39.276536 97.056581 
C 39.276536 97.056581 39.276536 97.056581 39.276536 97.056581 
C 39.276536 97.056581 39.276536 97.056581 39.276536 97.056581 
C 39.276536 97.056581 39.276536 97.056581 39.276536 97.056581 
z
" clip-path="url(#p5b43ed48ba)" style="stroke: #000000"/>
    <path d="M 34.480663 90.859185 
C 34.480663 90.859185 34.480663 90.859185 34.480663 90.859185 
C 34.480663 90.859185 34.480663 90.859185 34.480663 90.859185 
C 34.480663 90.859185 34.480663 90.859185 34.480663 90.859185 
C 34.480663 90.859185 34.480663 90.859185 34.480663 90.859185 
C 34.480663 90.859185 34.480663 90.859185 34.480663 90.859185 
C 34.480663 90.859185 34.480663 90.859185 34.480663 90.859185 
C 34.480663 90.859185 34.480663 90.859185 34.480663 90.859185 
C 34.480663 90.859185 34.480663 90.859185 34.480663 90.859185 
z
" clip-path="url(#p5b43ed48ba)" style="stroke: #000000"/>
    <path d="M 56.449255 176.185321 
C 56.449255 176.185321 56.449255 176.185321 56.449255 176.185321 
C 56.449255 176.185321 56.449255 176.185321 56.449255 176.185321 
C 56.449255 176.185321 56.449255 176.185321 56.449255 176.185321 
C 56.449255 176.185321 56.449255 176.185321 56.449255 176.185321 
C 56.449255 176.185321 56.449255 176.185321 56.449255 176.185321 
C 56.449255 176.185321 56.449255 176.185321 56.449255 176.185321 
C 56.449255 176.185321 56.449255 176.185321 56.449255 176.185321 
C 56.449255 176.185321 56.449255 176.185321 56.449255 176.185321 
z
" clip-path="url(#p5b43ed48ba)" style="stroke: #000000"/>
    <path d="M 48.81329 164.333341 
C 48.81329 164.333341 48.81329 164.333341 48.81329 164.333341 
C 48.81329 164.333341 48.81329 164.333341 48.81329 164.333341 
C 48.81329 164.333341 48.81329 164.333341 48.81329 164.333341 
C 48.81329 164.333341 48.81329 164.333341 48.81329 164.333341 
C 48.81329 164.333341 48.81329 164.333341 48.81329 164.333341 
C 48.81329 164.333341 48.81329 164.333341 48.81329 164.333341 
C 48.81329 164.333341 48.81329 164.333341 48.81329 164.333341 
C 48.81329 164.333341 48.81329 164.333341 48.81329 164.333341 
z
" clip-path="url(#p5b43ed48ba)" style="stroke: #000000"/>
    <path d="M 47.772452 158.608743 
C 48.314875 158.608743 48.835155 158.393236 49.218706 158.009685 
C 49.602257 157.626134 49.817764 157.105855 49.817764 156.563432 
C 49.817764 156.021009 49.602257 155.500729 49.218706 155.117178 
C 48.835155 154.733627 48.314875 154.51812 47.772452 154.51812 
C 47.230029 154.51812 46.709749 154.733627 46.326198 155.117178 
C 45.942647 155.500729 45.727141 156.021009 45.727141 156.563432 
C 45.727141 157.105855 45.942647 157.626134 46.326198 158.009685 
C 46.709749 158.393236 47.230029 158.608743 47.772452 158.608743 
z
" clip-path="url(#p5b43ed48ba)" style="stroke: #000000"/>
    <path d="M 45.553512 147.703823 
C 45.553512 147.703823 45.553512 147.703823 45.553512 147.703823 
C 45.553512 147.703823 45.553512 147.703823 45.553512 147.703823 
C 45.553512 147.703823 45.553512 147.703823 45.553512 147.703823 
C 45.553512 147.703823 45.553512 147.703823 45.553512 147.703823 
C 45.553512 147.703823 45.553512 147.703823 45.553512 147.703823 
C 45.553512 147.703823 45.553512 147.703823 45.553512 147.703823 
C 45.553512 147.703823 45.553512 147.703823 45.553512 147.703823 
C 45.553512 147.703823 45.553512 147.703823 45.553512 147.703823 
z
" clip-path="url(#p5b43ed48ba)" style="stroke: #000000"/>
    <path d="M 40.704527 135.120996 
C 40.704527 135.120996 40.704527 135.120996 40.704527 135.120996 
C 40.704527 135.120996 40.704527 135.120996 40.704527 135.120996 
C 40.704527 135.120996 40.704527 135.120996 40.704527 135.120996 
C 40.704527 135.120996 40.704527 135.120996 40.704527 135.120996 
C 40.704527 135.120996 40.704527 135.120996 40.704527 135.120996 
C 40.704527 135.120996 40.704527 135.120996 40.704527 135.120996 
C 40.704527 135.120996 40.704527 135.120996 40.704527 135.120996 
C 40.704527 135.120996 40.704527 135.120996 40.704527 135.120996 
z
" clip-path="url(#p5b43ed48ba)" style="stroke: #000000"/>
    <path d="M 33.380051 122.539821 
C 33.973063 122.539821 34.541866 122.304215 34.961189 121.884892 
C 35.380512 121.465569 35.616119 120.896765 35.616119 120.303753 
C 35.616119 119.710741 35.380512 119.141937 34.961189 118.722614 
C 34.541866 118.303291 33.973063 118.067685 33.380051 118.067685 
C 32.787038 118.067685 32.218235 118.303291 31.798912 118.722614 
C 31.379589 119.141937 31.143983 119.710741 31.143983 120.303753 
C 31.143983 120.896765 31.379589 121.465569 31.798912 121.884892 
C 32.218235 122.304215 32.787038 122.539821 33.380051 122.539821 
z
" clip-path="url(#p5b43ed48ba)" style="stroke: #000000"/>
    <path d="M 33.695407 112.874824 
C 33.695407 112.874824 33.695407 112.874824 33.695407 112.874824 
C 33.695407 112.874824 33.695407 112.874824 33.695407 112.874824 
C 33.695407 112.874824 33.695407 112.874824 33.695407 112.874824 
C 33.695407 112.874824 33.695407 112.874824 33.695407 112.874824 
C 33.695407 112.874824 33.695407 112.874824 33.695407 112.874824 
C 33.695407 112.874824 33.695407 112.874824 33.695407 112.874824 
C 33.695407 112.874824 33.695407 112.874824 33.695407 112.874824 
C 33.695407 112.874824 33.695407 112.874824 33.695407 112.874824 
z
" clip-path="url(#p5b43ed48ba)" style="stroke: #000000"/>
    <path d="M 32.278831 103.143475 
C 32.278831 103.143475 32.278831 103.143475 32.278831 103.143475 
C 32.278831 103.143475 32.278831 103.143475 32.278831 103.143475 
C 32.278831 103.143475 32.278831 103.143475 32.278831 103.143475 
C 32.278831 103.143475 32.278831 103.143475 32.278831 103.143475 
C 32.278831 103.143475 32.278831 103.143475 32.278831 103.143475 
C 32.278831 103.143475 32.278831 103.143475 32.278831 103.143475 
C 32.278831 103.143475 32.278831 103.143475 32.278831 103.143475 
C 32.278831 103.143475 32.278831 103.143475 32.278831 103.143475 
z
" clip-path="url(#p5b43ed48ba)" style="stroke: #000000"/>
    <path d="M 40.591985 172.258959 
C 40.591985 172.258959 40.591985 172.258959 40.591985 172.258959 
C 40.591985 172.258959 40.591985 172.258959 40.591985 172.258959 
C 40.591985 172.258959 40.591985 172.258959 40.591985 172.258959 
C 40.591985 172.258959 40.591985 172.258959 40.591985 172.258959 
C 40.591985 172.258959 40.591985 172.258959 40.591985 172.258959 
C 40.591985 172.258959 40.591985 172.258959 40.591985 172.258959 
C 40.591985 172.258959 40.591985 172.258959 40.591985 172.258959 
C 40.591985 172.258959 40.591985 172.258959 40.591985 172.258959 
z
" clip-path="url(#p5b43ed48ba)" style="stroke: #000000"/>
    <path d="M 36.142548 156.968036 
C 36.142548 156.968036 36.142548 156.968036 36.142548 156.968036 
C 36.142548 156.968036 36.142548 156.968036 36.142548 156.968036 
C 36.142548 156.968036 36.142548 156.968036 36.142548 156.968036 
C 36.142548 156.968036 36.142548 156.968036 36.142548 156.968036 
C 36.142548 156.968036 36.142548 156.968036 36.142548 156.968036 
C 36.142548 156.968036 36.142548 156.968036 36.142548 156.968036 
C 36.142548 156.968036 36.142548 156.968036 36.142548 156.968036 
C 36.142548 156.968036 36.142548 156.968036 36.142548 156.968036 
z
" clip-path="url(#p5b43ed48ba)" style="stroke: #000000"/>
    <path d="M 36.417645 147.163899 
C 36.417645 147.163899 36.417645 147.163899 36.417645 147.163899 
C 36.417645 147.163899 36.417645 147.163899 36.417645 147.163899 
C 36.417645 147.163899 36.417645 147.163899 36.417645 147.163899 
C 36.417645 147.163899 36.417645 147.163899 36.417645 147.163899 
C 36.417645 147.163899 36.417645 147.163899 36.417645 147.163899 
C 36.417645 147.163899 36.417645 147.163899 36.417645 147.163899 
C 36.417645 147.163899 36.417645 147.163899 36.417645 147.163899 
C 36.417645 147.163899 36.417645 147.163899 36.417645 147.163899 
z
" clip-path="url(#p5b43ed48ba)" style="stroke: #000000"/>
    <path d="M 29.515264 137.590629 
C 29.515264 137.590629 29.515264 137.590629 29.515264 137.590629 
C 29.515264 137.590629 29.515264 137.590629 29.515264 137.590629 
C 29.515264 137.590629 29.515264 137.590629 29.515264 137.590629 
C 29.515264 137.590629 29.515264 137.590629 29.515264 137.590629 
C 29.515264 137.590629 29.515264 137.590629 29.515264 137.590629 
C 29.515264 137.590629 29.515264 137.590629 29.515264 137.590629 
C 29.515264 137.590629 29.515264 137.590629 29.515264 137.590629 
C 29.515264 137.590629 29.515264 137.590629 29.515264 137.590629 
z
" clip-path="url(#p5b43ed48ba)" style="stroke: #000000"/>
    <path d="M 28.073785 127.784605 
C 28.073785 127.784605 28.073785 127.784605 28.073785 127.784605 
C 28.073785 127.784605 28.073785 127.784605 28.073785 127.784605 
C 28.073785 127.784605 28.073785 127.784605 28.073785 127.784605 
C 28.073785 127.784605 28.073785 127.784605 28.073785 127.784605 
C 28.073785 127.784605 28.073785 127.784605 28.073785 127.784605 
C 28.073785 127.784605 28.073785 127.784605 28.073785 127.784605 
C 28.073785 127.784605 28.073785 127.784605 28.073785 127.784605 
C 28.073785 127.784605 28.073785 127.784605 28.073785 127.784605 
z
" clip-path="url(#p5b43ed48ba)" style="stroke: #000000"/>
   </g>
   <g id="matplotlib.axis_1">
    <g id="xtick_1">
     <g id="line2d_1">
      <defs>
       <path id="mf8ae8d0a68" d="M 0 0 
L 0 3.5 
" style="stroke: #000000; stroke-width: 0.8"/>
      </defs>
      <g>
       <use xlink:href="#mf8ae8d0a68" x="18" y="189" style="stroke: #000000; stroke-width: 0.8"/>
      </g>
     </g>
     <g id="text_1">
      <!-- 10 -->
      <g transform="translate(7.447656 203.598437)scale(0.1 -0.1)">
       <defs>
        <path id="DejaVuSans-2212" d="M 678 2272 
L 4684 2272 
L 4684 1741 
L 678 1741 
L 678 2272 
z
" transform="scale(0.015625)"/>
        <path id="DejaVuSans-31" d="M 794 531 
L 1825 531 
L 1825 4091 
L 703 3866 
L 703 4441 
L 1819 4666 
L 2450 4666 
L 2450 531 
L 3481 531 
L 3481 0 
L 794 0 
L 794 531 
z
" transform="scale(0.015625)"/>
        <path id="DejaVuSans-30" d="M 2034 4250 
Q 1547 4250 1301 3770 
Q 1056 3291 1056 2328 
Q 1056 1369 1301 889 
Q 1547 409 2034 409 
Q 2525 409 2770 889 
Q 3016 1369 3016 2328 
Q 3016 3291 2770 3770 
Q 2525 4250 2034 4250 
z
M 2034 4750 
Q 2819 4750 3233 4129 
Q 3647 3509 3647 2328 
Q 3647 1150 3233 529 
Q 2819 -91 2034 -91 
Q 1250 -91 836 529 
Q 422 1150 422 2328 
Q 422 3509 836 4129 
Q 1250 4750 2034 4750 
z
" transform="scale(0.015625)"/>
       </defs>
       <use xlink:href="#DejaVuSans-2212"/>
       <use xlink:href="#DejaVuSans-31" x="83.789062"/>
       <use xlink:href="#DejaVuSans-30" x="147.412109"/>
      </g>
     </g>
    </g>
    <g id="xtick_2">
     <g id="line2d_2">
      <g>
       <use xlink:href="#mf8ae8d0a68" x="73.8" y="189" style="stroke: #000000; stroke-width: 0.8"/>
      </g>
     </g>
     <g id="text_2">
      <!-- 0 -->
      <g transform="translate(70.61875 203.598437)scale(0.1 -0.1)">
       <use xlink:href="#DejaVuSans-30"/>
      </g>
     </g>
    </g>
    <g id="xtick_3">
     <g id="line2d_3">
      <g>
       <use xlink:href="#mf8ae8d0a68" x="129.6" y="189" style="stroke: #000000; stroke-width: 0.8"/>
      </g>
     </g>
     <g id="text_3">
      <!-- 10 -->
      <g transform="translate(123.2375 203.598437)scale(0.1 -0.1)">
       <use xlink:href="#DejaVuSans-31"/>
       <use xlink:href="#DejaVuSans-30" x="63.623047"/>
      </g>
     </g>
    </g>
   </g>
   <g id="matplotlib.axis_2">
    <g id="ytick_1">
     <g id="line2d_4">
      <defs>
       <path id="m34707fc048" d="M 0 0 
L -3.5 0 
" style="stroke: #000000; stroke-width: 0.8"/>
      </defs>
      <g>
       <use xlink:href="#m34707fc048" x="18" y="189" style="stroke: #000000; stroke-width: 0.8"/>
      </g>
     </g>
     <g id="text_4">
      <!-- 15 -->
      <g transform="translate(-10.104688 192.799219)scale(0.1 -0.1)">
       <defs>
        <path id="DejaVuSans-35" d="M 691 4666 
L 3169 4666 
L 3169 4134 
L 1269 4134 
L 1269 2991 
Q 1406 3038 1543 3061 
Q 1681 3084 1819 3084 
Q 2600 3084 3056 2656 
Q 3513 2228 3513 1497 
Q 3513 744 3044 326 
Q 2575 -91 1722 -91 
Q 1428 -91 1123 -41 
Q 819 9 494 109 
L 494 744 
Q 775 591 1075 516 
Q 1375 441 1709 441 
Q 2250 441 2565 725 
Q 2881 1009 2881 1497 
Q 2881 1984 2565 2268 
Q 2250 2553 1709 2553 
Q 1456 2553 1204 2497 
Q 953 2441 691 2322 
L 691 4666 
z
" transform="scale(0.015625)"/>
       </defs>
       <use xlink:href="#DejaVuSans-2212"/>
       <use xlink:href="#DejaVuSans-31" x="83.789062"/>
       <use xlink:href="#DejaVuSans-35" x="147.412109"/>
      </g>
     </g>
    </g>
    <g id="ytick_2">
     <g id="line2d_5">
      <g>
       <use xlink:href="#m34707fc048" x="18" y="161.82" style="stroke: #000000; stroke-width: 0.8"/>
      </g>
     </g>
     <g id="text_5">
      <!-- 10 -->
      <g transform="translate(-10.104688 165.619219)scale(0.1 -0.1)">
       <use xlink:href="#DejaVuSans-2212"/>
       <use xlink:href="#DejaVuSans-31" x="83.789062"/>
       <use xlink:href="#DejaVuSans-30" x="147.412109"/>
      </g>
     </g>
    </g>
    <g id="ytick_3">
     <g id="line2d_6">
      <g>
       <use xlink:href="#m34707fc048" x="18" y="134.64" style="stroke: #000000; stroke-width: 0.8"/>
      </g>
     </g>
     <g id="text_6">
      <!-- 5 -->
      <g transform="translate(-3.742188 138.439219)scale(0.1 -0.1)">
       <use xlink:href="#DejaVuSans-2212"/>
       <use xlink:href="#DejaVuSans-35" x="83.789062"/>
      </g>
     </g>
    </g>
    <g id="ytick_4">
     <g id="line2d_7">
      <g>
       <use xlink:href="#m34707fc048" x="18" y="107.46" style="stroke: #000000; stroke-width: 0.8"/>
      </g>
     </g>
     <g id="text_7">
      <!-- 0 -->
      <g transform="translate(4.6375 111.259219)scale(0.1 -0.1)">
       <use xlink:href="#DejaVuSans-30"/>
      </g>
     </g>
    </g>
    <g id="ytick_5">
     <g id="line2d_8">
      <g>
       <use xlink:href="#m34707fc048" x="18" y="80.28" style="stroke: #000000; stroke-width: 0.8"/>
      </g>
     </g>
     <g id="text_8">
      <!-- 5 -->
      <g transform="translate(4.6375 84.079219)scale(0.1 -0.1)">
       <use xlink:href="#DejaVuSans-35"/>
      </g>
     </g>
    </g>
    <g id="ytick_6">
     <g id="line2d_9">
      <g>
       <use xlink:href="#m34707fc048" x="18" y="53.1" style="stroke: #000000; stroke-width: 0.8"/>
      </g>
     </g>
     <g id="text_9">
      <!-- 10 -->
      <g transform="translate(-1.725 56.899219)scale(0.1 -0.1)">
       <use xlink:href="#DejaVuSans-31"/>
       <use xlink:href="#DejaVuSans-30" x="63.623047"/>
      </g>
     </g>
    </g>
    <g id="ytick_7">
     <g id="line2d_10">
      <g>
       <use xlink:href="#m34707fc048" x="18" y="25.92" style="stroke: #000000; stroke-width: 0.8"/>
      </g>
     </g>
     <g id="text_10">
      <!-- 15 -->
      <g transform="translate(-1.725 29.719219)scale(0.1 -0.1)">
       <use xlink:href="#DejaVuSans-31"/>
       <use xlink:href="#DejaVuSans-35" x="63.623047"/>
      </g>
     </g>
    </g>
   </g>
   <g id="patch_3">
    <path d="M 18 189 
L 18 25.92 
" style="fill: none; stroke: #000000; stroke-width: 0.8; stroke-linejoin: miter; stroke-linecap: square"/>
   </g>
   <g id="patch_4">
    <path d="M 129.6 189 
L 129.6 25.92 
" style="fill: none; stroke: #000000; stroke-width: 0.8; stroke-linejoin: miter; stroke-linecap: square"/>
   </g>
   <g id="patch_5">
    <path d="M 18 189 
L 129.6 189 
" style="fill: none; stroke: #000000; stroke-width: 0.8; stroke-linejoin: miter; stroke-linecap: square"/>
   </g>
   <g id="patch_6">
    <path d="M 18 25.92 
L 129.6 25.92 
" style="fill: none; stroke: #000000; stroke-width: 0.8; stroke-linejoin: miter; stroke-linecap: square"/>
   </g>
  </g>
 </g>
 <defs>
  <clipPath id="p5b43ed48ba">
   <rect x="18" y="25.92" width="111.6" height="163.08"/>
  </clipPath>
 </defs>
</svg>
