<?xml version="1.0" encoding="utf-8" standalone="no"?>
<!DOCTYPE svg PUBLIC "-//W3C//DTD SVG 1.1//EN"
  "http://www.w3.org/Graphics/SVG/1.1/DTD/svg11.dtd">
<svg xmlns:xlink="http://www.w3.org/1999/xlink" width="144pt" height="216pt" viewBox="0 0 144 216" xmlns="http://www.w3.org/2000/svg" version="1.1">
 <metadata>
  <rdf:RDF xmlns:dc="http://purl.org/dc/elements/1.1/" xmlns:cc="http://creativecommons.org/ns#" xmlns:rdf="http://www.w3.org/1999/02/22-rdf-syntax-ns#">
   <cc:Work>
    <dc:type rdf:resource="http://purl.org/dc/dcmitype/StillImage"/>
    <dc:date>2022-06-22T17:25:40.469264</dc:date>
    <dc:format>image/svg+xml</dc:format>
    <dc:creator>
     <cc:Agent>
      <dc:title>Matplotlib v3.5.1, https://matplotlib.org/</dc:title>
     </cc:Agent>
    </dc:creator>
   </cc:Work>
  </rdf:RDF>
 </metadata>
 <defs>
  <style type="text/css">*{stroke-linejoin: round; stroke-linecap: butt}</style>
 </defs>
 <g id="figure_1">
  <g id="patch_1">
   <path d="M 0 216 
L 144 216 
L 144 0 
L 0 0 
L 0 216 
z
" style="fill: none"/>
  </g>
  <g id="axes_1">
   <g id="patch_2">
    <path d="M 18 189 
L 129.6 189 
L 129.6 25.92 
L 18 25.92 
z
" style="fill: #ffffff"/>
   </g>
   <g id="PathCollection_1">
    <defs>
     <path id="m2480d0e148" d="M 0 2.738613 
C 0.726289 2.738613 1.422928 2.450055 1.936492 1.936492 
C 2.450055 1.422928 2.738613 0.726289 2.738613 0 
C 2.738613 -0.726289 2.450055 -1.422928 1.936492 -1.936492 
C 1.422928 -2.450055 0.726289 -2.738613 0 -2.738613 
C -0.726289 -2.738613 -1.422928 -2.450055 -1.936492 -1.936492 
C -2.450055 -1.422928 -2.738613 -0.726289 -2.738613 0 
C -2.738613 0.726289 -2.450055 1.422928 -1.936492 1.936492 
C -1.422928 2.450055 -0.726289 2.738613 0 2.738613 
z
" style="stroke: #ff0000; stroke-width: 1.75"/>
    </defs>
    <g clip-path="url(#p0d6a28c4c9)">
     <use xlink:href="#m2480d0e148" x="80.775" y="83.92143" style="fill: #ff0000; stroke: #ff0000; stroke-width: 1.75"/>
     <use xlink:href="#m2480d0e148" x="59.85" y="95.690715" style="fill: #ff0000; stroke: #ff0000; stroke-width: 1.75"/>
     <use xlink:href="#m2480d0e148" x="66.825" y="107.46" style="fill: #ff0000; stroke: #ff0000; stroke-width: 1.75"/>
     <use xlink:href="#m2480d0e148" x="80.775" y="107.46" style="fill: #ff0000; stroke: #ff0000; stroke-width: 1.75"/>
     <use xlink:href="#m2480d0e148" x="94.725" y="107.46" style="fill: #ff0000; stroke: #ff0000; stroke-width: 1.75"/>
     <use xlink:href="#m2480d0e148" x="59.85" y="119.229285" style="fill: #ff0000; stroke: #ff0000; stroke-width: 1.75"/>
     <use xlink:href="#m2480d0e148" x="80.775" y="130.99857" style="fill: #ff0000; stroke: #ff0000; stroke-width: 1.75"/>
    </g>
   </g>
   <g id="PathCollection_2">
    <defs>
     <path id="C0_0_258c37be64" d="M 0 2.738613 
C 0.726289 2.738613 1.422928 2.450055 1.936492 1.936492 
C 2.450055 1.422928 2.738613 0.726289 2.738613 -0 
C 2.738613 -0.726289 2.450055 -1.422928 1.936492 -1.936492 
C 1.422928 -2.450055 0.726289 -2.738613 0 -2.738613 
C -0.726289 -2.738613 -1.422928 -2.450055 -1.936492 -1.936492 
C -2.450055 -1.422928 -2.738613 -0.726289 -2.738613 0 
C -2.738613 0.726289 -2.450055 1.422928 -1.936492 1.936492 
C -1.422928 2.450055 -0.726289 2.738613 0 2.738613 
z
"/>
    </defs>
    <g clip-path="url(#p0d6a28c4c9)">
     <use xlink:href="#C0_0_258c37be64" x="66.825" y="83.92143" style="fill: none; stroke: #ff0000; stroke-width: 1.75"/>
    </g>
    <g clip-path="url(#p0d6a28c4c9)">
     <use xlink:href="#C0_0_258c37be64" x="73.8" y="95.690715" style="fill: none; stroke: #ff0000; stroke-width: 1.75"/>
    </g>
    <g clip-path="url(#p0d6a28c4c9)">
     <use xlink:href="#C0_0_258c37be64" x="87.75" y="95.690715" style="fill: none; stroke: #ff0000; stroke-width: 1.75"/>
    </g>
    <g clip-path="url(#p0d6a28c4c9)">
     <use xlink:href="#C0_0_258c37be64" x="52.875" y="107.46" style="fill: none; stroke: #ff0000; stroke-width: 1.75"/>
    </g>
    <g clip-path="url(#p0d6a28c4c9)">
     <use xlink:href="#C0_0_258c37be64" x="73.8" y="119.229285" style="fill: none; stroke: #ff0000; stroke-width: 1.75"/>
    </g>
    <g clip-path="url(#p0d6a28c4c9)">
     <use xlink:href="#C0_0_258c37be64" x="87.75" y="119.229285" style="fill: none; stroke: #ff0000; stroke-width: 1.75"/>
    </g>
    <g clip-path="url(#p0d6a28c4c9)">
     <use xlink:href="#C0_0_258c37be64" x="66.825" y="130.99857" style="fill: none; stroke: #ff0000; stroke-width: 1.75"/>
    </g>
   </g>
   <g id="PathCollection_3">
    <path d="M 116.130236 119.76417 
C 116.628898 119.76417 117.107203 119.56605 117.45981 119.213443 
C 117.812417 118.860836 118.010538 118.382531 118.010538 117.883869 
C 118.010538 117.385207 117.812417 116.906902 117.45981 116.554295 
C 117.107203 116.201688 116.628898 116.003567 116.130236 116.003567 
C 115.631574 116.003567 115.153269 116.201688 114.800662 116.554295 
C 114.448055 116.906902 114.249935 117.385207 114.249935 117.883869 
C 114.249935 118.382531 114.448055 118.860836 114.800662 119.213443 
C 115.153269 119.56605 115.631574 119.76417 116.130236 119.76417 
z
" clip-path="url(#p0d6a28c4c9)" style="stroke: #000000"/>
    <path d="M 112.770592 108.611597 
C 113.269409 108.611597 113.747864 108.413415 114.100581 108.060697 
C 114.453298 107.70798 114.65148 107.229526 114.65148 106.730708 
C 114.65148 106.231891 114.453298 105.753436 114.100581 105.400719 
C 113.747864 105.048002 113.269409 104.849819 112.770592 104.849819 
C 112.271774 104.849819 111.79332 105.048002 111.440602 105.400719 
C 111.087885 105.753436 110.889703 106.231891 110.889703 106.730708 
C 110.889703 107.229526 111.087885 107.70798 111.440602 108.060697 
C 111.79332 108.413415 112.271774 108.611597 112.770592 108.611597 
z
" clip-path="url(#p0d6a28c4c9)" style="stroke: #000000"/>
    <path d="M 111.241858 104.847099 
C 111.740676 104.847099 112.21913 104.648916 112.571848 104.296199 
C 112.924565 103.943482 113.122747 103.465027 113.122747 102.96621 
C 113.122747 102.467392 112.924565 101.988938 112.571848 101.636221 
C 112.21913 101.283503 111.740676 101.085321 111.241858 101.085321 
C 110.743041 101.085321 110.264586 101.283503 109.911869 101.636221 
C 109.559152 101.988938 109.36097 102.467392 109.36097 102.96621 
C 109.36097 103.465027 109.559152 103.943482 109.911869 104.296199 
C 110.264586 104.648916 110.743041 104.847099 111.241858 104.847099 
z
" clip-path="url(#p0d6a28c4c9)" style="stroke: #000000"/>
    <path d="M 104.787103 87.348109 
C 105.285764 87.348109 105.764069 87.149988 106.116676 86.797381 
C 106.469284 86.444774 106.667404 85.966469 106.667404 85.467807 
C 106.667404 84.969145 106.469284 84.49084 106.116676 84.138233 
C 105.764069 83.785626 105.285764 83.587506 104.787103 83.587506 
C 104.288441 83.587506 103.810136 83.785626 103.457529 84.138233 
C 103.104921 84.49084 102.906801 84.969145 102.906801 85.467807 
C 102.906801 85.966469 103.104921 86.444774 103.457529 86.797381 
C 103.810136 87.149988 104.288441 87.348109 104.787103 87.348109 
z
" clip-path="url(#p0d6a28c4c9)" style="stroke: #000000"/>
    <path d="M 106.156822 82.389451 
C 106.484412 82.389451 106.798629 82.259299 107.030269 82.027658 
C 107.26191 81.796017 107.392063 81.4818 107.392063 81.154211 
C 107.392063 80.826621 107.26191 80.512405 107.030269 80.280764 
C 106.798629 80.049123 106.484412 79.91897 106.156822 79.91897 
C 105.829233 79.91897 105.515016 80.049123 105.283375 80.280764 
C 105.051734 80.512405 104.921582 80.826621 104.921582 81.154211 
C 104.921582 81.4818 105.051734 81.796017 105.283375 82.027658 
C 105.515016 82.259299 105.829233 82.389451 106.156822 82.389451 
z
" clip-path="url(#p0d6a28c4c9)" style="stroke: #000000"/>
    <path d="M 102.217089 75.453708 
C 102.715907 75.453708 103.194361 75.255526 103.547079 74.902809 
C 103.899796 74.550091 104.097978 74.071637 104.097978 73.572819 
C 104.097978 73.074002 103.899796 72.595547 103.547079 72.24283 
C 103.194361 71.890113 102.715907 71.691931 102.217089 71.691931 
C 101.718272 71.691931 101.239817 71.890113 100.8871 72.24283 
C 100.534383 72.595547 100.336201 73.074002 100.336201 73.572819 
C 100.336201 74.071637 100.534383 74.550091 100.8871 74.902809 
C 101.239817 75.255526 101.718272 75.453708 102.217089 75.453708 
z
" clip-path="url(#p0d6a28c4c9)" style="stroke: #000000"/>
    <path d="M 99.294191 60.426965 
C 99.719917 60.426965 100.128265 60.257822 100.429299 59.956788 
C 100.730333 59.655754 100.899476 59.247406 100.899476 58.82168 
C 100.899476 58.395953 100.730333 57.987606 100.429299 57.686572 
C 100.128265 57.385537 99.719917 57.216394 99.294191 57.216394 
C 98.868464 57.216394 98.460117 57.385537 98.159083 57.686572 
C 97.858048 57.987606 97.688905 58.395953 97.688905 58.82168 
C 97.688905 59.247406 97.858048 59.655754 98.159083 59.956788 
C 98.460117 60.257822 98.868464 60.426965 99.294191 60.426965 
z
" clip-path="url(#p0d6a28c4c9)" style="stroke: #000000"/>
    <path d="M 89.365054 53.199584 
C 89.784639 53.199584 90.187095 53.032882 90.483786 52.73619 
C 90.780477 52.439499 90.94718 52.037043 90.94718 51.617458 
C 90.94718 51.197874 90.780477 50.795417 90.483786 50.498726 
C 90.187095 50.202035 89.784639 50.035332 89.365054 50.035332 
C 88.945469 50.035332 88.543013 50.202035 88.246322 50.498726 
C 87.949631 50.795417 87.782928 51.197874 87.782928 51.617458 
C 87.782928 52.037043 87.949631 52.439499 88.246322 52.73619 
C 88.543013 53.032882 88.945469 53.199584 89.365054 53.199584 
z
" clip-path="url(#p0d6a28c4c9)" style="stroke: #000000"/>
    <path d="M 88.076576 37.917466 
C 88.49616 37.917466 88.898617 37.750763 89.195308 37.454072 
C 89.491999 37.157381 89.658702 36.754924 89.658702 36.33534 
C 89.658702 35.915755 89.491999 35.513299 89.195308 35.216608 
C 88.898617 34.919916 88.49616 34.753214 88.076576 34.753214 
C 87.656991 34.753214 87.254535 34.919916 86.957844 35.216608 
C 86.661152 35.513299 86.49445 35.915755 86.49445 36.33534 
C 86.49445 36.754924 86.661152 37.157381 86.957844 37.454072 
C 87.254535 37.750763 87.656991 37.917466 88.076576 37.917466 
z
" clip-path="url(#p0d6a28c4c9)" style="stroke: #000000"/>
    <path d="M 86.47533 32.540368 
C 86.873134 32.540368 87.2547 32.382319 87.53599 32.101028 
C 87.81728 31.819738 87.97533 31.438173 87.97533 31.040368 
C 87.97533 30.642564 87.81728 30.260998 87.53599 29.979708 
C 87.2547 29.698418 86.873134 29.540368 86.47533 29.540368 
C 86.077525 29.540368 85.69596 29.698418 85.41467 29.979708 
C 85.133379 30.260998 84.97533 30.642564 84.97533 31.040368 
C 84.97533 31.438173 85.133379 31.819738 85.41467 32.101028 
C 85.69596 32.382319 86.077525 32.540368 86.47533 32.540368 
z
" clip-path="url(#p0d6a28c4c9)" style="stroke: #000000"/>
    <path d="M 118.544759 169.648614 
C 118.544759 169.648614 118.544759 169.648614 118.544759 169.648614 
C 118.544759 169.648614 118.544759 169.648614 118.544759 169.648614 
C 118.544759 169.648614 118.544759 169.648614 118.544759 169.648614 
C 118.544759 169.648614 118.544759 169.648614 118.544759 169.648614 
C 118.544759 169.648614 118.544759 169.648614 118.544759 169.648614 
C 118.544759 169.648614 118.544759 169.648614 118.544759 169.648614 
C 118.544759 169.648614 118.544759 169.648614 118.544759 169.648614 
C 118.544759 169.648614 118.544759 169.648614 118.544759 169.648614 
z
" clip-path="url(#p0d6a28c4c9)" style="stroke: #000000"/>
    <path d="M 114.988236 152.436086 
C 114.988236 152.436086 114.988236 152.436086 114.988236 152.436086 
C 114.988236 152.436086 114.988236 152.436086 114.988236 152.436086 
C 114.988236 152.436086 114.988236 152.436086 114.988236 152.436086 
C 114.988236 152.436086 114.988236 152.436086 114.988236 152.436086 
C 114.988236 152.436086 114.988236 152.436086 114.988236 152.436086 
C 114.988236 152.436086 114.988236 152.436086 114.988236 152.436086 
C 114.988236 152.436086 114.988236 152.436086 114.988236 152.436086 
C 114.988236 152.436086 114.988236 152.436086 114.988236 152.436086 
z
" clip-path="url(#p0d6a28c4c9)" style="stroke: #000000"/>
    <path d="M 114.523237 143.882646 
C 114.95533 143.882646 115.369785 143.710973 115.675321 143.405437 
C 115.980857 143.099901 116.15253 142.685446 116.15253 142.253353 
C 116.15253 141.821259 115.980857 141.406805 115.675321 141.101269 
C 115.369785 140.795733 114.95533 140.62406 114.523237 140.62406 
C 114.091143 140.62406 113.676689 140.795733 113.371153 141.101269 
C 113.065617 141.406805 112.893944 141.821259 112.893944 142.253353 
C 112.893944 142.685446 113.065617 143.099901 113.371153 143.405437 
C 113.676689 143.710973 114.091143 143.882646 114.523237 143.882646 
z
" clip-path="url(#p0d6a28c4c9)" style="stroke: #000000"/>
    <path d="M 109.028172 136.348428 
C 109.526834 136.348428 110.005139 136.150308 110.357746 135.7977 
C 110.710353 135.445093 110.908474 134.966788 110.908474 134.468127 
C 110.908474 133.969465 110.710353 133.49116 110.357746 133.138553 
C 110.005139 132.785945 109.526834 132.587825 109.028172 132.587825 
C 108.52951 132.587825 108.051205 132.785945 107.698598 133.138553 
C 107.345991 133.49116 107.147871 133.969465 107.147871 134.468127 
C 107.147871 134.966788 107.345991 135.445093 107.698598 135.7977 
C 108.051205 136.150308 108.52951 136.348428 109.028172 136.348428 
z
" clip-path="url(#p0d6a28c4c9)" style="stroke: #000000"/>
    <path d="M 102.738118 125.81848 
C 103.23678 125.81848 103.715085 125.62036 104.067692 125.267753 
C 104.4203 124.915145 104.61842 124.43684 104.61842 123.938179 
C 104.61842 123.439517 104.4203 122.961212 104.067692 122.608605 
C 103.715085 122.255997 103.23678 122.057877 102.738118 122.057877 
C 102.239457 122.057877 101.761152 122.255997 101.408545 122.608605 
C 101.055937 122.961212 100.857817 123.439517 100.857817 123.938179 
C 100.857817 124.43684 101.055937 124.915145 101.408545 125.267753 
C 101.761152 125.62036 102.239457 125.81848 102.738118 125.81848 
z
" clip-path="url(#p0d6a28c4c9)" style="stroke: #000000"/>
    <path d="M 101.513876 113.826533 
C 101.513876 113.826533 101.513876 113.826533 101.513876 113.826533 
C 101.513876 113.826533 101.513876 113.826533 101.513876 113.826533 
C 101.513876 113.826533 101.513876 113.826533 101.513876 113.826533 
C 101.513876 113.826533 101.513876 113.826533 101.513876 113.826533 
C 101.513876 113.826533 101.513876 113.826533 101.513876 113.826533 
C 101.513876 113.826533 101.513876 113.826533 101.513876 113.826533 
C 101.513876 113.826533 101.513876 113.826533 101.513876 113.826533 
C 101.513876 113.826533 101.513876 113.826533 101.513876 113.826533 
z
" clip-path="url(#p0d6a28c4c9)" style="stroke: #000000"/>
    <path d="M 99.418376 107.922497 
C 99.917194 107.922497 100.395648 107.724314 100.748366 107.371597 
C 101.101083 107.01888 101.299265 106.540425 101.299265 106.041608 
C 101.299265 105.54279 101.101083 105.064336 100.748366 104.711619 
C 100.395648 104.358901 99.917194 104.160719 99.418376 104.160719 
C 98.919559 104.160719 98.441104 104.358901 98.088387 104.711619 
C 97.73567 105.064336 97.537488 105.54279 97.537488 106.041608 
C 97.537488 106.540425 97.73567 107.01888 98.088387 107.371597 
C 98.441104 107.724314 98.919559 107.922497 99.418376 107.922497 
z
" clip-path="url(#p0d6a28c4c9)" style="stroke: #000000"/>
    <path d="M 94.150747 96.186577 
C 94.552483 96.186577 94.93782 96.026965 95.22189 95.742895 
C 95.505961 95.458824 95.665572 95.073488 95.665572 94.671752 
C 95.665572 94.270015 95.505961 93.884679 95.22189 93.600609 
C 94.93782 93.316538 94.552483 93.156927 94.150747 93.156927 
C 93.749011 93.156927 93.363674 93.316538 93.079604 93.600609 
C 92.795534 93.884679 92.635922 94.270015 92.635922 94.671752 
C 92.635922 95.073488 92.795534 95.458824 93.079604 95.742895 
C 93.363674 96.026965 93.749011 96.186577 94.150747 96.186577 
z
" clip-path="url(#p0d6a28c4c9)" style="stroke: #000000"/>
    <path d="M 93.161051 82.080861 
C 93.550623 82.080861 93.924292 81.926082 94.199761 81.650613 
C 94.47523 81.375144 94.630008 81.001476 94.630008 80.611904 
C 94.630008 80.222332 94.47523 79.848663 94.199761 79.573194 
C 93.924292 79.297725 93.550623 79.142947 93.161051 79.142947 
C 92.771479 79.142947 92.397811 79.297725 92.122342 79.573194 
C 91.846873 79.848663 91.692094 80.222332 91.692094 80.611904 
C 91.692094 81.001476 91.846873 81.375144 92.122342 81.650613 
C 92.397811 81.926082 92.771479 82.080861 93.161051 82.080861 
z
" clip-path="url(#p0d6a28c4c9)" style="stroke: #000000"/>
    <path d="M 88.418987 72.441402 
C 88.801851 72.441402 89.169086 72.289289 89.439812 72.018563 
C 89.710538 71.747837 89.862651 71.380602 89.862651 70.997738 
C 89.862651 70.614874 89.710538 70.247639 89.439812 69.976913 
C 89.169086 69.706187 88.801851 69.554074 88.418987 69.554074 
C 88.036123 69.554074 87.668888 69.706187 87.398162 69.976913 
C 87.127436 70.247639 86.975323 70.614874 86.975323 70.997738 
C 86.975323 71.380602 87.127436 71.747837 87.398162 72.018563 
C 87.668888 72.289289 88.036123 72.441402 88.418987 72.441402 
z
" clip-path="url(#p0d6a28c4c9)" style="stroke: #000000"/>
    <path d="M 85.187751 63.481361 
C 85.187751 63.481361 85.187751 63.481361 85.187751 63.481361 
C 85.187751 63.481361 85.187751 63.481361 85.187751 63.481361 
C 85.187751 63.481361 85.187751 63.481361 85.187751 63.481361 
C 85.187751 63.481361 85.187751 63.481361 85.187751 63.481361 
C 85.187751 63.481361 85.187751 63.481361 85.187751 63.481361 
C 85.187751 63.481361 85.187751 63.481361 85.187751 63.481361 
C 85.187751 63.481361 85.187751 63.481361 85.187751 63.481361 
C 85.187751 63.481361 85.187751 63.481361 85.187751 63.481361 
z
" clip-path="url(#p0d6a28c4c9)" style="stroke: #000000"/>
    <path d="M 82.065908 55.470889 
C 82.492135 55.470889 82.900962 55.301547 83.202349 55.000159 
C 83.503737 54.698772 83.673079 54.289945 83.673079 53.863718 
C 83.673079 53.437491 83.503737 53.028665 83.202349 52.727277 
C 82.900962 52.425889 82.492135 52.256548 82.065908 52.256548 
C 81.639682 52.256548 81.230855 52.425889 80.929467 52.727277 
C 80.628079 53.028665 80.458738 53.437491 80.458738 53.863718 
C 80.458738 54.289945 80.628079 54.698772 80.929467 55.000159 
C 81.230855 55.301547 81.639682 55.470889 82.065908 55.470889 
z
" clip-path="url(#p0d6a28c4c9)" style="stroke: #000000"/>
    <path d="M 78.79636 41.645619 
C 78.79636 41.645619 78.79636 41.645619 78.79636 41.645619 
C 78.79636 41.645619 78.79636 41.645619 78.79636 41.645619 
C 78.79636 41.645619 78.79636 41.645619 78.79636 41.645619 
C 78.79636 41.645619 78.79636 41.645619 78.79636 41.645619 
C 78.79636 41.645619 78.79636 41.645619 78.79636 41.645619 
C 78.79636 41.645619 78.79636 41.645619 78.79636 41.645619 
C 78.79636 41.645619 78.79636 41.645619 78.79636 41.645619 
C 78.79636 41.645619 78.79636 41.645619 78.79636 41.645619 
z
" clip-path="url(#p0d6a28c4c9)" style="stroke: #000000"/>
    <path d="M 79.359221 29.950265 
C 79.778806 29.950265 80.181262 29.783562 80.477953 29.486871 
C 80.774644 29.19018 80.941347 28.787724 80.941347 28.368139 
C 80.941347 27.948554 80.774644 27.546098 80.477953 27.249407 
C 80.181262 26.952716 79.778806 26.786013 79.359221 26.786013 
C 78.939636 26.786013 78.53718 26.952716 78.240489 27.249407 
C 77.943798 27.546098 77.777095 27.948554 77.777095 28.368139 
C 77.777095 28.787724 77.943798 29.19018 78.240489 29.486871 
C 78.53718 29.783562 78.939636 29.950265 79.359221 29.950265 
z
" clip-path="url(#p0d6a28c4c9)" style="stroke: #000000"/>
    <path d="M 75.041509 23.183271 
C 75.041509 23.183271 75.041509 23.183271 75.041509 23.183271 
C 75.041509 23.183271 75.041509 23.183271 75.041509 23.183271 
C 75.041509 23.183271 75.041509 23.183271 75.041509 23.183271 
C 75.041509 23.183271 75.041509 23.183271 75.041509 23.183271 
C 75.041509 23.183271 75.041509 23.183271 75.041509 23.183271 
C 75.041509 23.183271 75.041509 23.183271 75.041509 23.183271 
C 75.041509 23.183271 75.041509 23.183271 75.041509 23.183271 
C 75.041509 23.183271 75.041509 23.183271 75.041509 23.183271 
z
" clip-path="url(#p0d6a28c4c9)" style="stroke: #000000"/>
    <path d="M 109.684747 166.661306 
C 110.104331 166.661306 110.506787 166.494604 110.803479 166.197912 
C 111.10017 165.901221 111.266873 165.498765 111.266873 165.07918 
C 111.266873 164.659596 111.10017 164.257139 110.803479 163.960448 
C 110.506787 163.663757 110.104331 163.497054 109.684747 163.497054 
C 109.265162 163.497054 108.862706 163.663757 108.566014 163.960448 
C 108.269323 164.257139 108.10262 164.659596 108.10262 165.07918 
C 108.10262 165.498765 108.269323 165.901221 108.566014 166.197912 
C 108.862706 166.494604 109.265162 166.661306 109.684747 166.661306 
z
" clip-path="url(#p0d6a28c4c9)" style="stroke: #000000"/>
    <path d="M 103.737473 156.446803 
C 104.157057 156.446803 104.559514 156.2801 104.856205 155.983409 
C 105.152896 155.686717 105.319599 155.284261 105.319599 154.864677 
C 105.319599 154.445092 105.152896 154.042636 104.856205 153.745944 
C 104.559514 153.449253 104.157057 153.28255 103.737473 153.28255 
C 103.317888 153.28255 102.915432 153.449253 102.618741 153.745944 
C 102.322049 154.042636 102.155347 154.445092 102.155347 154.864677 
C 102.155347 155.284261 102.322049 155.686717 102.618741 155.983409 
C 102.915432 156.2801 103.317888 156.446803 103.737473 156.446803 
z
" clip-path="url(#p0d6a28c4c9)" style="stroke: #000000"/>
    <path d="M 105.641467 148.944544 
C 105.735231 148.944544 105.825166 148.907291 105.891467 148.84099 
C 105.957768 148.774689 105.995021 148.684754 105.995021 148.59099 
C 105.995021 148.497227 105.957768 148.407291 105.891467 148.34099 
C 105.825166 148.274689 105.735231 148.237437 105.641467 148.237437 
C 105.547704 148.237437 105.457768 148.274689 105.391467 148.34099 
C 105.325166 148.407291 105.287914 148.497227 105.287914 148.59099 
C 105.287914 148.684754 105.325166 148.774689 105.391467 148.84099 
C 105.457768 148.907291 105.547704 148.944544 105.641467 148.944544 
z
" clip-path="url(#p0d6a28c4c9)" style="stroke: #000000"/>
    <path d="M 102.598203 136.326331 
C 102.598203 136.326331 102.598203 136.326331 102.598203 136.326331 
C 102.598203 136.326331 102.598203 136.326331 102.598203 136.326331 
C 102.598203 136.326331 102.598203 136.326331 102.598203 136.326331 
C 102.598203 136.326331 102.598203 136.326331 102.598203 136.326331 
C 102.598203 136.326331 102.598203 136.326331 102.598203 136.326331 
C 102.598203 136.326331 102.598203 136.326331 102.598203 136.326331 
C 102.598203 136.326331 102.598203 136.326331 102.598203 136.326331 
C 102.598203 136.326331 102.598203 136.326331 102.598203 136.326331 
z
" clip-path="url(#p0d6a28c4c9)" style="stroke: #000000"/>
    <path d="M 98.549833 129.878711 
C 98.549833 129.878711 98.549833 129.878711 98.549833 129.878711 
C 98.549833 129.878711 98.549833 129.878711 98.549833 129.878711 
C 98.549833 129.878711 98.549833 129.878711 98.549833 129.878711 
C 98.549833 129.878711 98.549833 129.878711 98.549833 129.878711 
C 98.549833 129.878711 98.549833 129.878711 98.549833 129.878711 
C 98.549833 129.878711 98.549833 129.878711 98.549833 129.878711 
C 98.549833 129.878711 98.549833 129.878711 98.549833 129.878711 
C 98.549833 129.878711 98.549833 129.878711 98.549833 129.878711 
z
" clip-path="url(#p0d6a28c4c9)" style="stroke: #000000"/>
    <path d="M 93.601244 116.161566 
C 94.020567 116.161566 94.422772 115.994967 94.719278 115.698461 
C 95.015784 115.401955 95.182383 114.99975 95.182383 114.580427 
C 95.182383 114.161104 95.015784 113.758899 94.719278 113.462393 
C 94.422772 113.165887 94.020567 112.999288 93.601244 112.999288 
C 93.181921 112.999288 92.779716 113.165887 92.48321 113.462393 
C 92.186704 113.758899 92.020105 114.161104 92.020105 114.580427 
C 92.020105 114.99975 92.186704 115.401955 92.48321 115.698461 
C 92.779716 115.994967 93.181921 116.161566 93.601244 116.161566 
z
" clip-path="url(#p0d6a28c4c9)" style="stroke: #000000"/>
    <path d="M 88.3794 101.971749 
C 88.3794 101.971749 88.3794 101.971749 88.3794 101.971749 
C 88.3794 101.971749 88.3794 101.971749 88.3794 101.971749 
C 88.3794 101.971749 88.3794 101.971749 88.3794 101.971749 
C 88.3794 101.971749 88.3794 101.971749 88.3794 101.971749 
C 88.3794 101.971749 88.3794 101.971749 88.3794 101.971749 
C 88.3794 101.971749 88.3794 101.971749 88.3794 101.971749 
C 88.3794 101.971749 88.3794 101.971749 88.3794 101.971749 
C 88.3794 101.971749 88.3794 101.971749 88.3794 101.971749 
z
" clip-path="url(#p0d6a28c4c9)" style="stroke: #000000"/>
    <path d="M 85.413399 96.271669 
C 85.912061 96.271669 86.390366 96.073549 86.742973 95.720942 
C 87.09558 95.368335 87.293701 94.89003 87.293701 94.391368 
C 87.293701 93.892706 87.09558 93.414401 86.742973 93.061794 
C 86.390366 92.709187 85.912061 92.511066 85.413399 92.511066 
C 84.914737 92.511066 84.436432 92.709187 84.083825 93.061794 
C 83.731218 93.414401 83.533098 93.892706 83.533098 94.391368 
C 83.533098 94.89003 83.731218 95.368335 84.083825 95.720942 
C 84.436432 96.073549 84.914737 96.271669 85.413399 96.271669 
z
" clip-path="url(#p0d6a28c4c9)" style="stroke: #000000"/>
    <path d="M 83.125477 85.239054 
C 83.624294 85.239054 84.102749 85.040871 84.455466 84.688154 
C 84.808183 84.335437 85.006366 83.856982 85.006366 83.358165 
C 85.006366 82.859347 84.808183 82.380893 84.455466 82.028175 
C 84.102749 81.675458 83.624294 81.477276 83.125477 81.477276 
C 82.626659 81.477276 82.148205 81.675458 81.795487 82.028175 
C 81.44277 82.380893 81.244588 82.859347 81.244588 83.358165 
C 81.244588 83.856982 81.44277 84.335437 81.795487 84.688154 
C 82.148205 85.040871 82.626659 85.239054 83.125477 85.239054 
z
" clip-path="url(#p0d6a28c4c9)" style="stroke: #000000"/>
    <path d="M 73.975199 77.231321 
C 74.473861 77.231321 74.952166 77.033201 75.304773 76.680594 
C 75.65738 76.327986 75.855501 75.849681 75.855501 75.35102 
C 75.855501 74.852358 75.65738 74.374053 75.304773 74.021446 
C 74.952166 73.668838 74.473861 73.470718 73.975199 73.470718 
C 73.476537 73.470718 72.998232 73.668838 72.645625 74.021446 
C 72.293018 74.374053 72.094898 74.852358 72.094898 75.35102 
C 72.094898 75.849681 72.293018 76.327986 72.645625 76.680594 
C 72.998232 77.033201 73.476537 77.231321 73.975199 77.231321 
z
" clip-path="url(#p0d6a28c4c9)" style="stroke: #000000"/>
    <path d="M 75.807105 67.975139 
C 76.181792 67.975139 76.541183 67.826274 76.806127 67.561331 
C 77.071071 67.296387 77.219935 66.936996 77.219935 66.562309 
C 77.219935 66.187622 77.071071 65.82823 76.806127 65.563287 
C 76.541183 65.298343 76.181792 65.149478 75.807105 65.149478 
C 75.432418 65.149478 75.073027 65.298343 74.808083 65.563287 
C 74.543139 65.82823 74.394274 66.187622 74.394274 66.562309 
C 74.394274 66.936996 74.543139 67.296387 74.808083 67.561331 
C 75.073027 67.826274 75.432418 67.975139 75.807105 67.975139 
z
" clip-path="url(#p0d6a28c4c9)" style="stroke: #000000"/>
    <path d="M 72.370794 53.262567 
C 72.79064 53.262567 73.193347 53.09576 73.490223 52.798884 
C 73.787099 52.502008 73.953905 52.099302 73.953905 51.679456 
C 73.953905 51.259609 73.787099 50.856903 73.490223 50.560027 
C 73.193347 50.263151 72.79064 50.096344 72.370794 50.096344 
C 71.950948 50.096344 71.548241 50.263151 71.251365 50.560027 
C 70.954489 50.856903 70.787682 51.259609 70.787682 51.679456 
C 70.787682 52.099302 70.954489 52.502008 71.251365 52.798884 
C 71.548241 53.09576 71.950948 53.262567 72.370794 53.262567 
z
" clip-path="url(#p0d6a28c4c9)" style="stroke: #000000"/>
    <path d="M 71.20382 46.19844 
C 71.20382 46.19844 71.20382 46.19844 71.20382 46.19844 
C 71.20382 46.19844 71.20382 46.19844 71.20382 46.19844 
C 71.20382 46.19844 71.20382 46.19844 71.20382 46.19844 
C 71.20382 46.19844 71.20382 46.19844 71.20382 46.19844 
C 71.20382 46.19844 71.20382 46.19844 71.20382 46.19844 
C 71.20382 46.19844 71.20382 46.19844 71.20382 46.19844 
C 71.20382 46.19844 71.20382 46.19844 71.20382 46.19844 
C 71.20382 46.19844 71.20382 46.19844 71.20382 46.19844 
z
" clip-path="url(#p0d6a28c4c9)" style="stroke: #000000"/>
    <path d="M 66.434971 31.092605 
C 66.837005 31.092605 67.222627 30.932876 67.506908 30.648595 
C 67.791189 30.364314 67.950919 29.978692 67.950919 29.576658 
C 67.950919 29.174624 67.791189 28.789002 67.506908 28.504721 
C 67.222627 28.22044 66.837005 28.06071 66.434971 28.06071 
C 66.032937 28.06071 65.647315 28.22044 65.363034 28.504721 
C 65.078753 28.789002 64.919024 29.174624 64.919024 29.576658 
C 64.919024 29.978692 65.078753 30.364314 65.363034 30.648595 
C 65.647315 30.932876 66.032937 31.092605 66.434971 31.092605 
z
" clip-path="url(#p0d6a28c4c9)" style="stroke: #000000"/>
    <path d="M 103.492761 173.030689 
C 103.492761 173.030689 103.492761 173.030689 103.492761 173.030689 
C 103.492761 173.030689 103.492761 173.030689 103.492761 173.030689 
C 103.492761 173.030689 103.492761 173.030689 103.492761 173.030689 
C 103.492761 173.030689 103.492761 173.030689 103.492761 173.030689 
C 103.492761 173.030689 103.492761 173.030689 103.492761 173.030689 
C 103.492761 173.030689 103.492761 173.030689 103.492761 173.030689 
C 103.492761 173.030689 103.492761 173.030689 103.492761 173.030689 
C 103.492761 173.030689 103.492761 173.030689 103.492761 173.030689 
z
" clip-path="url(#p0d6a28c4c9)" style="stroke: #000000"/>
    <path d="M 97.163407 165.302906 
C 97.582991 165.302906 97.985448 165.136203 98.282139 164.839512 
C 98.57883 164.542821 98.745533 164.140365 98.745533 163.72078 
C 98.745533 163.301195 98.57883 162.898739 98.282139 162.602048 
C 97.985448 162.305357 97.582991 162.138654 97.163407 162.138654 
C 96.743822 162.138654 96.341366 162.305357 96.044675 162.602048 
C 95.747983 162.898739 95.581281 163.301195 95.581281 163.72078 
C 95.581281 164.140365 95.747983 164.542821 96.044675 164.839512 
C 96.341366 165.136203 96.743822 165.302906 97.163407 165.302906 
z
" clip-path="url(#p0d6a28c4c9)" style="stroke: #000000"/>
    <path d="M 95.478619 150.083879 
C 95.977281 150.083879 96.455586 149.885759 96.808193 149.533151 
C 97.1608 149.180544 97.358921 148.702239 97.358921 148.203577 
C 97.358921 147.704916 97.1608 147.226611 96.808193 146.874004 
C 96.455586 146.521396 95.977281 146.323276 95.478619 146.323276 
C 94.979957 146.323276 94.501652 146.521396 94.149045 146.874004 
C 93.796438 147.226611 93.598318 147.704916 93.598318 148.203577 
C 93.598318 148.702239 93.796438 149.180544 94.149045 149.533151 
C 94.501652 149.885759 94.979957 150.083879 95.478619 150.083879 
z
" clip-path="url(#p0d6a28c4c9)" style="stroke: #000000"/>
    <path d="M 93.893958 145.214288 
C 94.271908 145.214288 94.63443 145.064127 94.901681 144.796875 
C 95.168932 144.529624 95.319093 144.167103 95.319093 143.789153 
C 95.319093 143.411203 95.168932 143.048681 94.901681 142.78143 
C 94.63443 142.514179 94.271908 142.364018 93.893958 142.364018 
C 93.516008 142.364018 93.153487 142.514179 92.886236 142.78143 
C 92.618984 143.048681 92.468823 143.411203 92.468823 143.789153 
C 92.468823 144.167103 92.618984 144.529624 92.886236 144.796875 
C 93.153487 145.064127 93.516008 145.214288 93.893958 145.214288 
z
" clip-path="url(#p0d6a28c4c9)" style="stroke: #000000"/>
    <path d="M 83.874836 133.636167 
C 84.294159 133.636167 84.696364 133.469569 84.99287 133.173062 
C 85.289376 132.876556 85.455975 132.474351 85.455975 132.055028 
C 85.455975 131.635706 85.289376 131.233501 84.99287 130.936995 
C 84.696364 130.640488 84.294159 130.47389 83.874836 130.47389 
C 83.455513 130.47389 83.053308 130.640488 82.756802 130.936995 
C 82.460296 131.233501 82.293697 131.635706 82.293697 132.055028 
C 82.293697 132.474351 82.460296 132.876556 82.756802 133.173062 
C 83.053308 133.469569 83.455513 133.636167 83.874836 133.636167 
z
" clip-path="url(#p0d6a28c4c9)" style="stroke: #000000"/>
    <path d="M 88.020581 121.977306 
C 88.519242 121.977306 88.997547 121.779186 89.350155 121.426579 
C 89.702762 121.073972 89.900882 120.595667 89.900882 120.097005 
C 89.900882 119.598343 89.702762 119.120038 89.350155 118.767431 
C 88.997547 118.414824 88.519242 118.216703 88.020581 118.216703 
C 87.521919 118.216703 87.043614 118.414824 86.691007 118.767431 
C 86.3384 119.120038 86.140279 119.598343 86.140279 120.097005 
C 86.140279 120.595667 86.3384 121.073972 86.691007 121.426579 
C 87.043614 121.779186 87.521919 121.977306 88.020581 121.977306 
z
" clip-path="url(#p0d6a28c4c9)" style="stroke: #000000"/>
    <path d="M 78.49713 108.140926 
C 78.995791 108.140926 79.474096 107.942805 79.826704 107.590198 
C 80.179311 107.237591 80.377431 106.759286 80.377431 106.260624 
C 80.377431 105.761962 80.179311 105.283657 79.826704 104.93105 
C 79.474096 104.578443 78.995791 104.380323 78.49713 104.380323 
C 77.998468 104.380323 77.520163 104.578443 77.167556 104.93105 
C 76.814948 105.283657 76.616828 105.761962 76.616828 106.260624 
C 76.616828 106.759286 76.814948 107.237591 77.167556 107.590198 
C 77.520163 107.942805 77.998468 108.140926 78.49713 108.140926 
z
" clip-path="url(#p0d6a28c4c9)" style="stroke: #000000"/>
    <path d="M 74.244123 99.059187 
C 74.663707 99.059187 75.066164 98.892484 75.362855 98.595793 
C 75.659546 98.299101 75.826249 97.896645 75.826249 97.477061 
C 75.826249 97.057476 75.659546 96.65502 75.362855 96.358328 
C 75.066164 96.061637 74.663707 95.894934 74.244123 95.894934 
C 73.824538 95.894934 73.422082 96.061637 73.125391 96.358328 
C 72.828699 96.65502 72.661997 97.057476 72.661997 97.477061 
C 72.661997 97.896645 72.828699 98.299101 73.125391 98.595793 
C 73.422082 98.892484 73.824538 99.059187 74.244123 99.059187 
z
" clip-path="url(#p0d6a28c4c9)" style="stroke: #000000"/>
    <path d="M 72.97548 88.852705 
C 72.97548 88.852705 72.97548 88.852705 72.97548 88.852705 
C 72.97548 88.852705 72.97548 88.852705 72.97548 88.852705 
C 72.97548 88.852705 72.97548 88.852705 72.97548 88.852705 
C 72.97548 88.852705 72.97548 88.852705 72.97548 88.852705 
C 72.97548 88.852705 72.97548 88.852705 72.97548 88.852705 
C 72.97548 88.852705 72.97548 88.852705 72.97548 88.852705 
C 72.97548 88.852705 72.97548 88.852705 72.97548 88.852705 
C 72.97548 88.852705 72.97548 88.852705 72.97548 88.852705 
z
" clip-path="url(#p0d6a28c4c9)" style="stroke: #000000"/>
    <path d="M 70.764859 79.419935 
C 70.764859 79.419935 70.764859 79.419935 70.764859 79.419935 
C 70.764859 79.419935 70.764859 79.419935 70.764859 79.419935 
C 70.764859 79.419935 70.764859 79.419935 70.764859 79.419935 
C 70.764859 79.419935 70.764859 79.419935 70.764859 79.419935 
C 70.764859 79.419935 70.764859 79.419935 70.764859 79.419935 
C 70.764859 79.419935 70.764859 79.419935 70.764859 79.419935 
C 70.764859 79.419935 70.764859 79.419935 70.764859 79.419935 
C 70.764859 79.419935 70.764859 79.419935 70.764859 79.419935 
z
" clip-path="url(#p0d6a28c4c9)" style="stroke: #000000"/>
    <path d="M 59.783669 75.955874 
C 60.282331 75.955874 60.760636 75.757753 61.113243 75.405146 
C 61.46585 75.052539 61.663971 74.574234 61.663971 74.075572 
C 61.663971 73.57691 61.46585 73.098605 61.113243 72.745998 
C 60.760636 72.393391 60.282331 72.19527 59.783669 72.19527 
C 59.285007 72.19527 58.806702 72.393391 58.454095 72.745998 
C 58.101488 73.098605 57.903368 73.57691 57.903368 74.075572 
C 57.903368 74.574234 58.101488 75.052539 58.454095 75.405146 
C 58.806702 75.757753 59.285007 75.955874 59.783669 75.955874 
z
" clip-path="url(#p0d6a28c4c9)" style="stroke: #000000"/>
    <path d="M 58.792659 57.513906 
C 58.886423 57.513906 58.976358 57.476653 59.042659 57.410352 
C 59.10896 57.344051 59.146213 57.254116 59.146213 57.160352 
C 59.146213 57.066589 59.10896 56.976653 59.042659 56.910352 
C 58.976358 56.844051 58.886423 56.806799 58.792659 56.806799 
C 58.698896 56.806799 58.60896 56.844051 58.542659 56.910352 
C 58.476358 56.976653 58.439106 57.066589 58.439106 57.160352 
C 58.439106 57.254116 58.476358 57.344051 58.542659 57.410352 
C 58.60896 57.476653 58.698896 57.513906 58.792659 57.513906 
z
" clip-path="url(#p0d6a28c4c9)" style="stroke: #000000"/>
    <path d="M 53.926337 46.200007 
C 53.926337 46.200007 53.926337 46.200007 53.926337 46.200007 
C 53.926337 46.200007 53.926337 46.200007 53.926337 46.200007 
C 53.926337 46.200007 53.926337 46.200007 53.926337 46.200007 
C 53.926337 46.200007 53.926337 46.200007 53.926337 46.200007 
C 53.926337 46.200007 53.926337 46.200007 53.926337 46.200007 
C 53.926337 46.200007 53.926337 46.200007 53.926337 46.200007 
C 53.926337 46.200007 53.926337 46.200007 53.926337 46.200007 
C 53.926337 46.200007 53.926337 46.200007 53.926337 46.200007 
z
" clip-path="url(#p0d6a28c4c9)" style="stroke: #000000"/>
    <path d="M 57.818962 37.168999 
C 58.238547 37.168999 58.641003 37.002296 58.937694 36.705605 
C 59.234385 36.408914 59.401088 36.006458 59.401088 35.586873 
C 59.401088 35.167288 59.234385 34.764832 58.937694 34.468141 
C 58.641003 34.17145 58.238547 34.004747 57.818962 34.004747 
C 57.399377 34.004747 56.996921 34.17145 56.70023 34.468141 
C 56.403539 34.764832 56.236836 35.167288 56.236836 35.586873 
C 56.236836 36.006458 56.403539 36.408914 56.70023 36.705605 
C 56.996921 37.002296 57.399377 37.168999 57.818962 37.168999 
z
" clip-path="url(#p0d6a28c4c9)" style="stroke: #000000"/>
    <path d="M 87.420335 170.195637 
C 87.420335 170.195637 87.420335 170.195637 87.420335 170.195637 
C 87.420335 170.195637 87.420335 170.195637 87.420335 170.195637 
C 87.420335 170.195637 87.420335 170.195637 87.420335 170.195637 
C 87.420335 170.195637 87.420335 170.195637 87.420335 170.195637 
C 87.420335 170.195637 87.420335 170.195637 87.420335 170.195637 
C 87.420335 170.195637 87.420335 170.195637 87.420335 170.195637 
C 87.420335 170.195637 87.420335 170.195637 87.420335 170.195637 
C 87.420335 170.195637 87.420335 170.195637 87.420335 170.195637 
z
" clip-path="url(#p0d6a28c4c9)" style="stroke: #000000"/>
    <path d="M 85.847463 165.922062 
C 86.267048 165.922062 86.669504 165.755359 86.966196 165.458668 
C 87.262887 165.161977 87.42959 164.759521 87.42959 164.339936 
C 87.42959 163.920351 87.262887 163.517895 86.966196 163.221204 
C 86.669504 162.924513 86.267048 162.75781 85.847463 162.75781 
C 85.427879 162.75781 85.025423 162.924513 84.728731 163.221204 
C 84.43204 163.517895 84.265337 163.920351 84.265337 164.339936 
C 84.265337 164.759521 84.43204 165.161977 84.728731 165.458668 
C 85.025423 165.755359 85.427879 165.922062 85.847463 165.922062 
z
" clip-path="url(#p0d6a28c4c9)" style="stroke: #000000"/>
    <path d="M 80.561834 151.713611 
C 80.561834 151.713611 80.561834 151.713611 80.561834 151.713611 
C 80.561834 151.713611 80.561834 151.713611 80.561834 151.713611 
C 80.561834 151.713611 80.561834 151.713611 80.561834 151.713611 
C 80.561834 151.713611 80.561834 151.713611 80.561834 151.713611 
C 80.561834 151.713611 80.561834 151.713611 80.561834 151.713611 
C 80.561834 151.713611 80.561834 151.713611 80.561834 151.713611 
C 80.561834 151.713611 80.561834 151.713611 80.561834 151.713611 
C 80.561834 151.713611 80.561834 151.713611 80.561834 151.713611 
z
" clip-path="url(#p0d6a28c4c9)" style="stroke: #000000"/>
    <path d="M 81.087022 141.31498 
C 81.087022 141.31498 81.087022 141.31498 81.087022 141.31498 
C 81.087022 141.31498 81.087022 141.31498 81.087022 141.31498 
C 81.087022 141.31498 81.087022 141.31498 81.087022 141.31498 
C 81.087022 141.31498 81.087022 141.31498 81.087022 141.31498 
C 81.087022 141.31498 81.087022 141.31498 81.087022 141.31498 
C 81.087022 141.31498 81.087022 141.31498 81.087022 141.31498 
C 81.087022 141.31498 81.087022 141.31498 81.087022 141.31498 
C 81.087022 141.31498 81.087022 141.31498 81.087022 141.31498 
z
" clip-path="url(#p0d6a28c4c9)" style="stroke: #000000"/>
    <path d="M 75.826261 138.818032 
C 76.325078 138.818032 76.803533 138.61985 77.15625 138.267133 
C 77.508967 137.914416 77.70715 137.435961 77.70715 136.937144 
C 77.70715 136.438326 77.508967 135.959872 77.15625 135.607154 
C 76.803533 135.254437 76.325078 135.056255 75.826261 135.056255 
C 75.327443 135.056255 74.848989 135.254437 74.496272 135.607154 
C 74.143554 135.959872 73.945372 136.438326 73.945372 136.937144 
C 73.945372 137.435961 74.143554 137.914416 74.496272 138.267133 
C 74.848989 138.61985 75.327443 138.818032 75.826261 138.818032 
z
" clip-path="url(#p0d6a28c4c9)" style="stroke: #000000"/>
    <path d="M 72.799852 124.523086 
C 73.29867 124.523086 73.777124 124.324904 74.129841 123.972187 
C 74.482559 123.619469 74.680741 123.141015 74.680741 122.642197 
C 74.680741 122.14338 74.482559 121.664925 74.129841 121.312208 
C 73.777124 120.959491 73.29867 120.761309 72.799852 120.761309 
C 72.301035 120.761309 71.82258 120.959491 71.469863 121.312208 
C 71.117146 121.664925 70.918963 122.14338 70.918963 122.642197 
C 70.918963 123.141015 71.117146 123.619469 71.469863 123.972187 
C 71.82258 124.324904 72.301035 124.523086 72.799852 124.523086 
z
" clip-path="url(#p0d6a28c4c9)" style="stroke: #000000"/>
    <path d="M 65.621492 113.189518 
C 65.621492 113.189518 65.621492 113.189518 65.621492 113.189518 
C 65.621492 113.189518 65.621492 113.189518 65.621492 113.189518 
C 65.621492 113.189518 65.621492 113.189518 65.621492 113.189518 
C 65.621492 113.189518 65.621492 113.189518 65.621492 113.189518 
C 65.621492 113.189518 65.621492 113.189518 65.621492 113.189518 
C 65.621492 113.189518 65.621492 113.189518 65.621492 113.189518 
C 65.621492 113.189518 65.621492 113.189518 65.621492 113.189518 
C 65.621492 113.189518 65.621492 113.189518 65.621492 113.189518 
z
" clip-path="url(#p0d6a28c4c9)" style="stroke: #000000"/>
    <path d="M 67.575183 108.058367 
C 67.939132 108.058367 68.288223 107.913769 68.545573 107.656418 
C 68.802924 107.399068 68.947522 107.049977 68.947522 106.686028 
C 68.947522 106.322079 68.802924 105.972988 68.545573 105.715638 
C 68.288223 105.458287 67.939132 105.313689 67.575183 105.313689 
C 67.211234 105.313689 66.862143 105.458287 66.604793 105.715638 
C 66.347442 105.972988 66.202844 106.322079 66.202844 106.686028 
C 66.202844 107.049977 66.347442 107.399068 66.604793 107.656418 
C 66.862143 107.913769 67.211234 108.058367 67.575183 108.058367 
z
" clip-path="url(#p0d6a28c4c9)" style="stroke: #000000"/>
    <path d="M 60.627944 98.2089 
C 61.126762 98.2089 61.605216 98.010718 61.957934 97.658 
C 62.310651 97.305283 62.508833 96.826829 62.508833 96.328011 
C 62.508833 95.829193 62.310651 95.350739 61.957934 94.998022 
C 61.605216 94.645305 61.126762 94.447122 60.627944 94.447122 
C 60.129127 94.447122 59.650672 94.645305 59.297955 94.998022 
C 58.945238 95.350739 58.747056 95.829193 58.747056 96.328011 
C 58.747056 96.826829 58.945238 97.305283 59.297955 97.658 
C 59.650672 98.010718 60.129127 98.2089 60.627944 98.2089 
z
" clip-path="url(#p0d6a28c4c9)" style="stroke: #000000"/>
    <path d="M 56.187879 83.740201 
C 56.68654 83.740201 57.164845 83.542081 57.517453 83.189474 
C 57.87006 82.836866 58.06818 82.358561 58.06818 81.8599 
C 58.06818 81.361238 57.87006 80.882933 57.517453 80.530326 
C 57.164845 80.177718 56.68654 79.979598 56.187879 79.979598 
C 55.689217 79.979598 55.210912 80.177718 54.858305 80.530326 
C 54.505697 80.882933 54.307577 81.361238 54.307577 81.8599 
C 54.307577 82.358561 54.505697 82.836866 54.858305 83.189474 
C 55.210912 83.542081 55.689217 83.740201 56.187879 83.740201 
z
" clip-path="url(#p0d6a28c4c9)" style="stroke: #000000"/>
    <path d="M 53.845007 72.038479 
C 53.845007 72.038479 53.845007 72.038479 53.845007 72.038479 
C 53.845007 72.038479 53.845007 72.038479 53.845007 72.038479 
C 53.845007 72.038479 53.845007 72.038479 53.845007 72.038479 
C 53.845007 72.038479 53.845007 72.038479 53.845007 72.038479 
C 53.845007 72.038479 53.845007 72.038479 53.845007 72.038479 
C 53.845007 72.038479 53.845007 72.038479 53.845007 72.038479 
C 53.845007 72.038479 53.845007 72.038479 53.845007 72.038479 
C 53.845007 72.038479 53.845007 72.038479 53.845007 72.038479 
z
" clip-path="url(#p0d6a28c4c9)" style="stroke: #000000"/>
    <path d="M 53.711339 61.248364 
C 54.153383 61.248364 54.577381 61.072738 54.889954 60.760166 
C 55.202526 60.447593 55.378152 60.023595 55.378152 59.581551 
C 55.378152 59.139507 55.202526 58.715509 54.889954 58.402937 
C 54.577381 58.090365 54.153383 57.914739 53.711339 57.914739 
C 53.269295 57.914739 52.845297 58.090365 52.532725 58.402937 
C 52.220153 58.715509 52.044527 59.139507 52.044527 59.581551 
C 52.044527 60.023595 52.220153 60.447593 52.532725 60.760166 
C 52.845297 61.072738 53.269295 61.248364 53.711339 61.248364 
z
" clip-path="url(#p0d6a28c4c9)" style="stroke: #000000"/>
    <path d="M 47.030571 51.548843 
C 47.030571 51.548843 47.030571 51.548843 47.030571 51.548843 
C 47.030571 51.548843 47.030571 51.548843 47.030571 51.548843 
C 47.030571 51.548843 47.030571 51.548843 47.030571 51.548843 
C 47.030571 51.548843 47.030571 51.548843 47.030571 51.548843 
C 47.030571 51.548843 47.030571 51.548843 47.030571 51.548843 
C 47.030571 51.548843 47.030571 51.548843 47.030571 51.548843 
C 47.030571 51.548843 47.030571 51.548843 47.030571 51.548843 
C 47.030571 51.548843 47.030571 51.548843 47.030571 51.548843 
z
" clip-path="url(#p0d6a28c4c9)" style="stroke: #000000"/>
    <path d="M 45.566872 39.838055 
C 45.566872 39.838055 45.566872 39.838055 45.566872 39.838055 
C 45.566872 39.838055 45.566872 39.838055 45.566872 39.838055 
C 45.566872 39.838055 45.566872 39.838055 45.566872 39.838055 
C 45.566872 39.838055 45.566872 39.838055 45.566872 39.838055 
C 45.566872 39.838055 45.566872 39.838055 45.566872 39.838055 
C 45.566872 39.838055 45.566872 39.838055 45.566872 39.838055 
C 45.566872 39.838055 45.566872 39.838055 45.566872 39.838055 
C 45.566872 39.838055 45.566872 39.838055 45.566872 39.838055 
z
" clip-path="url(#p0d6a28c4c9)" style="stroke: #000000"/>
    <path d="M 81.727993 179.276563 
C 82.147316 179.276563 82.549521 179.109964 82.846027 178.813458 
C 83.142533 178.516952 83.309132 178.114747 83.309132 177.695424 
C 83.309132 177.276101 83.142533 176.873896 82.846027 176.57739 
C 82.549521 176.280884 82.147316 176.114285 81.727993 176.114285 
C 81.30867 176.114285 80.906465 176.280884 80.609959 176.57739 
C 80.313453 176.873896 80.146854 177.276101 80.146854 177.695424 
C 80.146854 178.114747 80.313453 178.516952 80.609959 178.813458 
C 80.906465 179.109964 81.30867 179.276563 81.727993 179.276563 
z
" clip-path="url(#p0d6a28c4c9)" style="stroke: #000000"/>
    <path d="M 78.544491 171.651248 
C 78.544491 171.651248 78.544491 171.651248 78.544491 171.651248 
C 78.544491 171.651248 78.544491 171.651248 78.544491 171.651248 
C 78.544491 171.651248 78.544491 171.651248 78.544491 171.651248 
C 78.544491 171.651248 78.544491 171.651248 78.544491 171.651248 
C 78.544491 171.651248 78.544491 171.651248 78.544491 171.651248 
C 78.544491 171.651248 78.544491 171.651248 78.544491 171.651248 
C 78.544491 171.651248 78.544491 171.651248 78.544491 171.651248 
C 78.544491 171.651248 78.544491 171.651248 78.544491 171.651248 
z
" clip-path="url(#p0d6a28c4c9)" style="stroke: #000000"/>
    <path d="M 70.318436 159.988367 
C 70.816629 159.988367 71.294485 159.790432 71.646761 159.438156 
C 71.999038 159.08588 72.196972 158.608024 72.196972 158.109831 
C 72.196972 157.611637 71.999038 157.133781 71.646761 156.781505 
C 71.294485 156.429229 70.816629 156.231294 70.318436 156.231294 
C 69.820242 156.231294 69.342386 156.429229 68.99011 156.781505 
C 68.637834 157.133781 68.439899 157.611637 68.439899 158.109831 
C 68.439899 158.608024 68.637834 159.08588 68.99011 159.438156 
C 69.342386 159.790432 69.820242 159.988367 70.318436 159.988367 
z
" clip-path="url(#p0d6a28c4c9)" style="stroke: #000000"/>
    <path d="M 68.6726 147.771571 
C 68.6726 147.771571 68.6726 147.771571 68.6726 147.771571 
C 68.6726 147.771571 68.6726 147.771571 68.6726 147.771571 
C 68.6726 147.771571 68.6726 147.771571 68.6726 147.771571 
C 68.6726 147.771571 68.6726 147.771571 68.6726 147.771571 
C 68.6726 147.771571 68.6726 147.771571 68.6726 147.771571 
C 68.6726 147.771571 68.6726 147.771571 68.6726 147.771571 
C 68.6726 147.771571 68.6726 147.771571 68.6726 147.771571 
C 68.6726 147.771571 68.6726 147.771571 68.6726 147.771571 
z
" clip-path="url(#p0d6a28c4c9)" style="stroke: #000000"/>
    <path d="M 64.53279 135.990859 
C 64.53279 135.990859 64.53279 135.990859 64.53279 135.990859 
C 64.53279 135.990859 64.53279 135.990859 64.53279 135.990859 
C 64.53279 135.990859 64.53279 135.990859 64.53279 135.990859 
C 64.53279 135.990859 64.53279 135.990859 64.53279 135.990859 
C 64.53279 135.990859 64.53279 135.990859 64.53279 135.990859 
C 64.53279 135.990859 64.53279 135.990859 64.53279 135.990859 
C 64.53279 135.990859 64.53279 135.990859 64.53279 135.990859 
C 64.53279 135.990859 64.53279 135.990859 64.53279 135.990859 
z
" clip-path="url(#p0d6a28c4c9)" style="stroke: #000000"/>
    <path d="M 62.000499 130.910172 
C 62.499316 130.910172 62.977771 130.71199 63.330488 130.359272 
C 63.683205 130.006555 63.881388 129.528101 63.881388 129.029283 
C 63.881388 128.530465 63.683205 128.052011 63.330488 127.699294 
C 62.977771 127.346576 62.499316 127.148394 62.000499 127.148394 
C 61.501681 127.148394 61.023227 127.346576 60.670509 127.699294 
C 60.317792 128.052011 60.11961 128.530465 60.11961 129.029283 
C 60.11961 129.528101 60.317792 130.006555 60.670509 130.359272 
C 61.023227 130.71199 61.501681 130.910172 62.000499 130.910172 
z
" clip-path="url(#p0d6a28c4c9)" style="stroke: #000000"/>
    <path d="M 55.714988 118.257297 
C 56.213805 118.257297 56.69226 118.059115 57.044977 117.706397 
C 57.397694 117.35368 57.595877 116.875226 57.595877 116.376408 
C 57.595877 115.877591 57.397694 115.399136 57.044977 115.046419 
C 56.69226 114.693702 56.213805 114.495519 55.714988 114.495519 
C 55.21617 114.495519 54.737716 114.693702 54.384999 115.046419 
C 54.032281 115.399136 53.834099 115.877591 53.834099 116.376408 
C 53.834099 116.875226 54.032281 117.35368 54.384999 117.706397 
C 54.737716 118.059115 55.21617 118.257297 55.714988 118.257297 
z
" clip-path="url(#p0d6a28c4c9)" style="stroke: #000000"/>
    <path d="M 56.237581 104.664582 
C 56.736243 104.664582 57.214548 104.466462 57.567155 104.113854 
C 57.919762 103.761247 58.117883 103.282942 58.117883 102.78428 
C 58.117883 102.285619 57.919762 101.807314 57.567155 101.454707 
C 57.214548 101.102099 56.736243 100.903979 56.237581 100.903979 
C 55.738919 100.903979 55.260614 101.102099 54.908007 101.454707 
C 54.5554 101.807314 54.35728 102.285619 54.35728 102.78428 
C 54.35728 103.282942 54.5554 103.761247 54.908007 104.113854 
C 55.260614 104.466462 55.738919 104.664582 56.237581 104.664582 
z
" clip-path="url(#p0d6a28c4c9)" style="stroke: #000000"/>
    <path d="M 50.897636 95.777201 
C 50.897636 95.777201 50.897636 95.777201 50.897636 95.777201 
C 50.897636 95.777201 50.897636 95.777201 50.897636 95.777201 
C 50.897636 95.777201 50.897636 95.777201 50.897636 95.777201 
C 50.897636 95.777201 50.897636 95.777201 50.897636 95.777201 
C 50.897636 95.777201 50.897636 95.777201 50.897636 95.777201 
C 50.897636 95.777201 50.897636 95.777201 50.897636 95.777201 
C 50.897636 95.777201 50.897636 95.777201 50.897636 95.777201 
C 50.897636 95.777201 50.897636 95.777201 50.897636 95.777201 
z
" clip-path="url(#p0d6a28c4c9)" style="stroke: #000000"/>
    <path d="M 46.733808 91.084583 
C 47.232626 91.084583 47.71108 90.886401 48.063798 90.533683 
C 48.416515 90.180966 48.614697 89.702512 48.614697 89.203694 
C 48.614697 88.704876 48.416515 88.226422 48.063798 87.873705 
C 47.71108 87.520987 47.232626 87.322805 46.733808 87.322805 
C 46.234991 87.322805 45.756536 87.520987 45.403819 87.873705 
C 45.051102 88.226422 44.852919 88.704876 44.852919 89.203694 
C 44.852919 89.702512 45.051102 90.180966 45.403819 90.533683 
C 45.756536 90.886401 46.234991 91.084583 46.733808 91.084583 
z
" clip-path="url(#p0d6a28c4c9)" style="stroke: #000000"/>
    <path d="M 41.602788 70.922258 
C 41.602788 70.922258 41.602788 70.922258 41.602788 70.922258 
C 41.602788 70.922258 41.602788 70.922258 41.602788 70.922258 
C 41.602788 70.922258 41.602788 70.922258 41.602788 70.922258 
C 41.602788 70.922258 41.602788 70.922258 41.602788 70.922258 
C 41.602788 70.922258 41.602788 70.922258 41.602788 70.922258 
C 41.602788 70.922258 41.602788 70.922258 41.602788 70.922258 
C 41.602788 70.922258 41.602788 70.922258 41.602788 70.922258 
C 41.602788 70.922258 41.602788 70.922258 41.602788 70.922258 
z
" clip-path="url(#p0d6a28c4c9)" style="stroke: #000000"/>
    <path d="M 39.199648 66.594169 
C 39.620535 66.594169 40.024239 66.426949 40.321851 66.129338 
C 40.619463 65.831726 40.786683 65.428021 40.786683 65.007134 
C 40.786683 64.586248 40.619463 64.182543 40.321851 63.884931 
C 40.024239 63.587319 39.620535 63.420099 39.199648 63.420099 
C 38.778761 63.420099 38.375057 63.587319 38.077445 63.884931 
C 37.779833 64.182543 37.612613 64.586248 37.612613 65.007134 
C 37.612613 65.428021 37.779833 65.831726 38.077445 66.129338 
C 38.375057 66.426949 38.778761 66.594169 39.199648 66.594169 
z
" clip-path="url(#p0d6a28c4c9)" style="stroke: #000000"/>
    <path d="M 63.749051 174.109467 
C 64.168636 174.109467 64.571092 173.942765 64.867783 173.646073 
C 65.164474 173.349382 65.331177 172.946926 65.331177 172.527341 
C 65.331177 172.107757 65.164474 171.7053 64.867783 171.408609 
C 64.571092 171.111918 64.168636 170.945215 63.749051 170.945215 
C 63.329466 170.945215 62.92701 171.111918 62.630319 171.408609 
C 62.333627 171.7053 62.166925 172.107757 62.166925 172.527341 
C 62.166925 172.946926 62.333627 173.349382 62.630319 173.646073 
C 62.92701 173.942765 63.329466 174.109467 63.749051 174.109467 
z
" clip-path="url(#p0d6a28c4c9)" style="stroke: #000000"/>
    <path d="M 63.034361 161.76982 
C 63.034361 161.76982 63.034361 161.76982 63.034361 161.76982 
C 63.034361 161.76982 63.034361 161.76982 63.034361 161.76982 
C 63.034361 161.76982 63.034361 161.76982 63.034361 161.76982 
C 63.034361 161.76982 63.034361 161.76982 63.034361 161.76982 
C 63.034361 161.76982 63.034361 161.76982 63.034361 161.76982 
C 63.034361 161.76982 63.034361 161.76982 63.034361 161.76982 
C 63.034361 161.76982 63.034361 161.76982 63.034361 161.76982 
C 63.034361 161.76982 63.034361 161.76982 63.034361 161.76982 
z
" clip-path="url(#p0d6a28c4c9)" style="stroke: #000000"/>
    <path d="M 53.721135 148.853559 
C 53.721135 148.853559 53.721135 148.853559 53.721135 148.853559 
C 53.721135 148.853559 53.721135 148.853559 53.721135 148.853559 
C 53.721135 148.853559 53.721135 148.853559 53.721135 148.853559 
C 53.721135 148.853559 53.721135 148.853559 53.721135 148.853559 
C 53.721135 148.853559 53.721135 148.853559 53.721135 148.853559 
C 53.721135 148.853559 53.721135 148.853559 53.721135 148.853559 
C 53.721135 148.853559 53.721135 148.853559 53.721135 148.853559 
C 53.721135 148.853559 53.721135 148.853559 53.721135 148.853559 
z
" clip-path="url(#p0d6a28c4c9)" style="stroke: #000000"/>
    <path d="M 54.497365 144.795107 
C 54.996027 144.795107 55.474332 144.596987 55.826939 144.244379 
C 56.179546 143.891772 56.377667 143.413467 56.377667 142.914805 
C 56.377667 142.416144 56.179546 141.937839 55.826939 141.585231 
C 55.474332 141.232624 54.996027 141.034504 54.497365 141.034504 
C 53.998703 141.034504 53.520398 141.232624 53.167791 141.585231 
C 52.815184 141.937839 52.617064 142.416144 52.617064 142.914805 
C 52.617064 143.413467 52.815184 143.891772 53.167791 144.244379 
C 53.520398 144.596987 53.998703 144.795107 54.497365 144.795107 
z
" clip-path="url(#p0d6a28c4c9)" style="stroke: #000000"/>
    <path d="M 55.770249 133.287327 
C 56.16682 133.287327 56.547202 133.129767 56.82762 132.849349 
C 57.108038 132.568931 57.265598 132.188549 57.265598 131.791978 
C 57.265598 131.395407 57.108038 131.015025 56.82762 130.734607 
C 56.547202 130.454189 56.16682 130.296629 55.770249 130.296629 
C 55.373678 130.296629 54.993296 130.454189 54.712878 130.734607 
C 54.43246 131.015025 54.2749 131.395407 54.2749 131.791978 
C 54.2749 132.188549 54.43246 132.568931 54.712878 132.849349 
C 54.993296 133.129767 55.373678 133.287327 55.770249 133.287327 
z
" clip-path="url(#p0d6a28c4c9)" style="stroke: #000000"/>
    <path d="M 46.438825 119.630774 
C 46.438825 119.630774 46.438825 119.630774 46.438825 119.630774 
C 46.438825 119.630774 46.438825 119.630774 46.438825 119.630774 
C 46.438825 119.630774 46.438825 119.630774 46.438825 119.630774 
C 46.438825 119.630774 46.438825 119.630774 46.438825 119.630774 
C 46.438825 119.630774 46.438825 119.630774 46.438825 119.630774 
C 46.438825 119.630774 46.438825 119.630774 46.438825 119.630774 
C 46.438825 119.630774 46.438825 119.630774 46.438825 119.630774 
C 46.438825 119.630774 46.438825 119.630774 46.438825 119.630774 
z
" clip-path="url(#p0d6a28c4c9)" style="stroke: #000000"/>
    <path d="M 42.94642 110.277547 
C 43.445238 110.277547 43.923692 110.079364 44.27641 109.726647 
C 44.629127 109.37393 44.827309 108.895475 44.827309 108.396658 
C 44.827309 107.89784 44.629127 107.419386 44.27641 107.066668 
C 43.923692 106.713951 43.445238 106.515769 42.94642 106.515769 
C 42.447603 106.515769 41.969148 106.713951 41.616431 107.066668 
C 41.263714 107.419386 41.065532 107.89784 41.065532 108.396658 
C 41.065532 108.895475 41.263714 109.37393 41.616431 109.726647 
C 41.969148 110.079364 42.447603 110.277547 42.94642 110.277547 
z
" clip-path="url(#p0d6a28c4c9)" style="stroke: #000000"/>
    <path d="M 37.354113 101.89973 
C 37.852775 101.89973 38.33108 101.701609 38.683687 101.349002 
C 39.036294 100.996395 39.234415 100.51809 39.234415 100.019428 
C 39.234415 99.520766 39.036294 99.042461 38.683687 98.689854 
C 38.33108 98.337247 37.852775 98.139126 37.354113 98.139126 
C 36.855451 98.139126 36.377146 98.337247 36.024539 98.689854 
C 35.671932 99.042461 35.473812 99.520766 35.473812 100.019428 
C 35.473812 100.51809 35.671932 100.996395 36.024539 101.349002 
C 36.377146 101.701609 36.855451 101.89973 37.354113 101.89973 
z
" clip-path="url(#p0d6a28c4c9)" style="stroke: #000000"/>
    <path d="M 34.854692 89.0177 
C 35.353198 89.0177 35.831353 88.819641 36.18385 88.467144 
C 36.536347 88.114648 36.734405 87.636492 36.734405 87.137986 
C 36.734405 86.63948 36.536347 86.161325 36.18385 85.808828 
C 35.831353 85.456331 35.353198 85.258273 34.854692 85.258273 
C 34.356186 85.258273 33.87803 85.456331 33.525533 85.808828 
C 33.173036 86.161325 32.974978 86.63948 32.974978 87.137986 
C 32.974978 87.636492 33.173036 88.114648 33.525533 88.467144 
C 33.87803 88.819641 34.356186 89.0177 34.854692 89.0177 
z
" clip-path="url(#p0d6a28c4c9)" style="stroke: #000000"/>
    <path d="M 34.46265 78.757336 
C 34.91296 78.757336 35.344887 78.578426 35.663305 78.260009 
C 35.981722 77.941592 36.160632 77.509665 36.160632 77.059355 
C 36.160632 76.609045 35.981722 76.177118 35.663305 75.858701 
C 35.344887 75.540284 34.91296 75.361374 34.46265 75.361374 
C 34.012341 75.361374 33.580414 75.540284 33.261996 75.858701 
C 32.943579 76.177118 32.764669 76.609045 32.764669 77.059355 
C 32.764669 77.509665 32.943579 77.941592 33.261996 78.260009 
C 33.580414 78.578426 34.012341 78.757336 34.46265 78.757336 
z
" clip-path="url(#p0d6a28c4c9)" style="stroke: #000000"/>
    <path d="M 55.461541 173.575877 
C 55.461541 173.575877 55.461541 173.575877 55.461541 173.575877 
C 55.461541 173.575877 55.461541 173.575877 55.461541 173.575877 
C 55.461541 173.575877 55.461541 173.575877 55.461541 173.575877 
C 55.461541 173.575877 55.461541 173.575877 55.461541 173.575877 
C 55.461541 173.575877 55.461541 173.575877 55.461541 173.575877 
C 55.461541 173.575877 55.461541 173.575877 55.461541 173.575877 
C 55.461541 173.575877 55.461541 173.575877 55.461541 173.575877 
C 55.461541 173.575877 55.461541 173.575877 55.461541 173.575877 
z
" clip-path="url(#p0d6a28c4c9)" style="stroke: #000000"/>
    <path d="M 54.103452 168.047492 
C 54.523037 168.047492 54.925493 167.880789 55.222184 167.584098 
C 55.518876 167.287407 55.685578 166.884951 55.685578 166.465366 
C 55.685578 166.045781 55.518876 165.643325 55.222184 165.346634 
C 54.925493 165.049942 54.523037 164.88324 54.103452 164.88324 
C 53.683867 164.88324 53.281411 165.049942 52.98472 165.346634 
C 52.688029 165.643325 52.521326 166.045781 52.521326 166.465366 
C 52.521326 166.884951 52.688029 167.287407 52.98472 167.584098 
C 53.281411 167.880789 53.683867 168.047492 54.103452 168.047492 
z
" clip-path="url(#p0d6a28c4c9)" style="stroke: #000000"/>
    <path d="M 49.075176 156.724211 
C 49.520975 156.724211 49.948575 156.547094 50.263802 156.231866 
C 50.579029 155.916639 50.756147 155.489039 50.756147 155.04324 
C 50.756147 154.597442 50.579029 154.169842 50.263802 153.854614 
C 49.948575 153.539387 49.520975 153.362269 49.075176 153.362269 
C 48.629377 153.362269 48.201777 153.539387 47.88655 153.854614 
C 47.571323 154.169842 47.394205 154.597442 47.394205 155.04324 
C 47.394205 155.489039 47.571323 155.916639 47.88655 156.231866 
C 48.201777 156.547094 48.629377 156.724211 49.075176 156.724211 
z
" clip-path="url(#p0d6a28c4c9)" style="stroke: #000000"/>
    <path d="M 42.608895 144.02328 
C 42.850384 144.02328 43.082014 143.927335 43.252772 143.756577 
C 43.423531 143.585819 43.519475 143.354188 43.519475 143.1127 
C 43.519475 142.871211 43.423531 142.639581 43.252772 142.468822 
C 43.082014 142.298064 42.850384 142.20212 42.608895 142.20212 
C 42.367406 142.20212 42.135776 142.298064 41.965018 142.468822 
C 41.794259 142.639581 41.698315 142.871211 41.698315 143.1127 
C 41.698315 143.354188 41.794259 143.585819 41.965018 143.756577 
C 42.135776 143.927335 42.367406 144.02328 42.608895 144.02328 
z
" clip-path="url(#p0d6a28c4c9)" style="stroke: #000000"/>
    <path d="M 40.838878 137.369452 
C 41.337696 137.369452 41.81615 137.171269 42.168867 136.818552 
C 42.521585 136.465835 42.719767 135.98738 42.719767 135.488563 
C 42.719767 134.989745 42.521585 134.511291 42.168867 134.158574 
C 41.81615 133.805856 41.337696 133.607674 40.838878 133.607674 
C 40.340061 133.607674 39.861606 133.805856 39.508889 134.158574 
C 39.156172 134.511291 38.957989 134.989745 38.957989 135.488563 
C 38.957989 135.98738 39.156172 136.465835 39.508889 136.818552 
C 39.861606 137.171269 40.340061 137.369452 40.838878 137.369452 
z
" clip-path="url(#p0d6a28c4c9)" style="stroke: #000000"/>
    <path d="M 35.429227 121.732471 
C 35.429227 121.732471 35.429227 121.732471 35.429227 121.732471 
C 35.429227 121.732471 35.429227 121.732471 35.429227 121.732471 
C 35.429227 121.732471 35.429227 121.732471 35.429227 121.732471 
C 35.429227 121.732471 35.429227 121.732471 35.429227 121.732471 
C 35.429227 121.732471 35.429227 121.732471 35.429227 121.732471 
C 35.429227 121.732471 35.429227 121.732471 35.429227 121.732471 
C 35.429227 121.732471 35.429227 121.732471 35.429227 121.732471 
C 35.429227 121.732471 35.429227 121.732471 35.429227 121.732471 
z
" clip-path="url(#p0d6a28c4c9)" style="stroke: #000000"/>
    <path d="M 33.879099 118.300794 
C 34.377761 118.300794 34.856066 118.102673 35.208673 117.750066 
C 35.56128 117.397459 35.759401 116.919154 35.759401 116.420492 
C 35.759401 115.92183 35.56128 115.443525 35.208673 115.090918 
C 34.856066 114.738311 34.377761 114.540191 33.879099 114.540191 
C 33.380437 114.540191 32.902132 114.738311 32.549525 115.090918 
C 32.196918 115.443525 31.998798 115.92183 31.998798 116.420492 
C 31.998798 116.919154 32.196918 117.397459 32.549525 117.750066 
C 32.902132 118.102673 33.380437 118.300794 33.879099 118.300794 
z
" clip-path="url(#p0d6a28c4c9)" style="stroke: #000000"/>
    <path d="M 30.369616 105.815073 
C 30.859312 105.815073 31.329018 105.620514 31.675285 105.274247 
C 32.021553 104.927979 32.216111 104.458273 32.216111 103.968577 
C 32.216111 103.478881 32.021553 103.009175 31.675285 102.662908 
C 31.329018 102.31664 30.859312 102.122082 30.369616 102.122082 
C 29.87992 102.122082 29.410214 102.31664 29.063946 102.662908 
C 28.717679 103.009175 28.52312 103.478881 28.52312 103.968577 
C 28.52312 104.458273 28.717679 104.927979 29.063946 105.274247 
C 29.410214 105.620514 29.87992 105.815073 30.369616 105.815073 
z
" clip-path="url(#p0d6a28c4c9)" style="stroke: #000000"/>
    <path d="M 39.694021 170.790239 
C 40.113606 170.790239 40.516062 170.623536 40.812753 170.326845 
C 41.109444 170.030154 41.276147 169.627698 41.276147 169.208113 
C 41.276147 168.788528 41.109444 168.386072 40.812753 168.089381 
C 40.516062 167.79269 40.113606 167.625987 39.694021 167.625987 
C 39.274436 167.625987 38.87198 167.79269 38.575289 168.089381 
C 38.278598 168.386072 38.111895 168.788528 38.111895 169.208113 
C 38.111895 169.627698 38.278598 170.030154 38.575289 170.326845 
C 38.87198 170.623536 39.274436 170.790239 39.694021 170.790239 
z
" clip-path="url(#p0d6a28c4c9)" style="stroke: #000000"/>
    <path d="M 37.493184 154.62947 
C 37.493184 154.62947 37.493184 154.62947 37.493184 154.62947 
C 37.493184 154.62947 37.493184 154.62947 37.493184 154.62947 
C 37.493184 154.62947 37.493184 154.62947 37.493184 154.62947 
C 37.493184 154.62947 37.493184 154.62947 37.493184 154.62947 
C 37.493184 154.62947 37.493184 154.62947 37.493184 154.62947 
C 37.493184 154.62947 37.493184 154.62947 37.493184 154.62947 
C 37.493184 154.62947 37.493184 154.62947 37.493184 154.62947 
C 37.493184 154.62947 37.493184 154.62947 37.493184 154.62947 
z
" clip-path="url(#p0d6a28c4c9)" style="stroke: #000000"/>
    <path d="M 33.309538 147.459004 
C 33.729384 147.459004 34.132091 147.292198 34.428967 146.995322 
C 34.725843 146.698446 34.89265 146.295739 34.89265 145.875893 
C 34.89265 145.456047 34.725843 145.05334 34.428967 144.756464 
C 34.132091 144.459588 33.729384 144.292781 33.309538 144.292781 
C 32.889692 144.292781 32.486985 144.459588 32.190109 144.756464 
C 31.893233 145.05334 31.726427 145.456047 31.726427 145.875893 
C 31.726427 146.295739 31.893233 146.698446 32.190109 146.995322 
C 32.486985 147.292198 32.889692 147.459004 33.309538 147.459004 
z
" clip-path="url(#p0d6a28c4c9)" style="stroke: #000000"/>
    <path d="M 29.067077 139.465625 
C 29.494298 139.465625 29.904079 139.295888 30.20617 138.993797 
C 30.508261 138.691706 30.677998 138.281925 30.677998 137.854704 
C 30.677998 137.427483 30.508261 137.017702 30.20617 136.715611 
C 29.904079 136.413519 29.494298 136.243783 29.067077 136.243783 
C 28.639856 136.243783 28.230075 136.413519 27.927984 136.715611 
C 27.625892 137.017702 27.456156 137.427483 27.456156 137.854704 
C 27.456156 138.281925 27.625892 138.691706 27.927984 138.993797 
C 28.230075 139.295888 28.639856 139.465625 29.067077 139.465625 
z
" clip-path="url(#p0d6a28c4c9)" style="stroke: #000000"/>
    <path d="M 34.386472 174.025749 
C 34.386472 174.025749 34.386472 174.025749 34.386472 174.025749 
C 34.386472 174.025749 34.386472 174.025749 34.386472 174.025749 
C 34.386472 174.025749 34.386472 174.025749 34.386472 174.025749 
C 34.386472 174.025749 34.386472 174.025749 34.386472 174.025749 
C 34.386472 174.025749 34.386472 174.025749 34.386472 174.025749 
C 34.386472 174.025749 34.386472 174.025749 34.386472 174.025749 
C 34.386472 174.025749 34.386472 174.025749 34.386472 174.025749 
C 34.386472 174.025749 34.386472 174.025749 34.386472 174.025749 
z
" clip-path="url(#p0d6a28c4c9)" style="stroke: #000000"/>
   </g>
   <g id="matplotlib.axis_1">
    <g id="xtick_1">
     <g id="line2d_1">
      <defs>
       <path id="mffd3d8858b" d="M 0 0 
L 0 3.5 
" style="stroke: #000000; stroke-width: 0.8"/>
      </defs>
      <g>
       <use xlink:href="#mffd3d8858b" x="18" y="189" style="stroke: #000000; stroke-width: 0.8"/>
      </g>
     </g>
     <g id="text_1">
      <!-- 10 -->
      <g transform="translate(7.447656 203.598437)scale(0.1 -0.1)">
       <defs>
        <path id="DejaVuSans-2212" d="M 678 2272 
L 4684 2272 
L 4684 1741 
L 678 1741 
L 678 2272 
z
" transform="scale(0.015625)"/>
        <path id="DejaVuSans-31" d="M 794 531 
L 1825 531 
L 1825 4091 
L 703 3866 
L 703 4441 
L 1819 4666 
L 2450 4666 
L 2450 531 
L 3481 531 
L 3481 0 
L 794 0 
L 794 531 
z
" transform="scale(0.015625)"/>
        <path id="DejaVuSans-30" d="M 2034 4250 
Q 1547 4250 1301 3770 
Q 1056 3291 1056 2328 
Q 1056 1369 1301 889 
Q 1547 409 2034 409 
Q 2525 409 2770 889 
Q 3016 1369 3016 2328 
Q 3016 3291 2770 3770 
Q 2525 4250 2034 4250 
z
M 2034 4750 
Q 2819 4750 3233 4129 
Q 3647 3509 3647 2328 
Q 3647 1150 3233 529 
Q 2819 -91 2034 -91 
Q 1250 -91 836 529 
Q 422 1150 422 2328 
Q 422 3509 836 4129 
Q 1250 4750 2034 4750 
z
" transform="scale(0.015625)"/>
       </defs>
       <use xlink:href="#DejaVuSans-2212"/>
       <use xlink:href="#DejaVuSans-31" x="83.789062"/>
       <use xlink:href="#DejaVuSans-30" x="147.412109"/>
      </g>
     </g>
    </g>
    <g id="xtick_2">
     <g id="line2d_2">
      <g>
       <use xlink:href="#mffd3d8858b" x="73.8" y="189" style="stroke: #000000; stroke-width: 0.8"/>
      </g>
     </g>
     <g id="text_2">
      <!-- 0 -->
      <g transform="translate(70.61875 203.598437)scale(0.1 -0.1)">
       <use xlink:href="#DejaVuSans-30"/>
      </g>
     </g>
    </g>
    <g id="xtick_3">
     <g id="line2d_3">
      <g>
       <use xlink:href="#mffd3d8858b" x="129.6" y="189" style="stroke: #000000; stroke-width: 0.8"/>
      </g>
     </g>
     <g id="text_3">
      <!-- 10 -->
      <g transform="translate(123.2375 203.598437)scale(0.1 -0.1)">
       <use xlink:href="#DejaVuSans-31"/>
       <use xlink:href="#DejaVuSans-30" x="63.623047"/>
      </g>
     </g>
    </g>
   </g>
   <g id="matplotlib.axis_2">
    <g id="ytick_1">
     <g id="line2d_4">
      <defs>
       <path id="mbf038c43ce" d="M 0 0 
L -3.5 0 
" style="stroke: #000000; stroke-width: 0.8"/>
      </defs>
      <g>
       <use xlink:href="#mbf038c43ce" x="18" y="189" style="stroke: #000000; stroke-width: 0.8"/>
      </g>
     </g>
     <g id="text_4">
      <!-- 15 -->
      <g transform="translate(-10.104688 192.799219)scale(0.1 -0.1)">
       <defs>
        <path id="DejaVuSans-35" d="M 691 4666 
L 3169 4666 
L 3169 4134 
L 1269 4134 
L 1269 2991 
Q 1406 3038 1543 3061 
Q 1681 3084 1819 3084 
Q 2600 3084 3056 2656 
Q 3513 2228 3513 1497 
Q 3513 744 3044 326 
Q 2575 -91 1722 -91 
Q 1428 -91 1123 -41 
Q 819 9 494 109 
L 494 744 
Q 775 591 1075 516 
Q 1375 441 1709 441 
Q 2250 441 2565 725 
Q 2881 1009 2881 1497 
Q 2881 1984 2565 2268 
Q 2250 2553 1709 2553 
Q 1456 2553 1204 2497 
Q 953 2441 691 2322 
L 691 4666 
z
" transform="scale(0.015625)"/>
       </defs>
       <use xlink:href="#DejaVuSans-2212"/>
       <use xlink:href="#DejaVuSans-31" x="83.789062"/>
       <use xlink:href="#DejaVuSans-35" x="147.412109"/>
      </g>
     </g>
    </g>
    <g id="ytick_2">
     <g id="line2d_5">
      <g>
       <use xlink:href="#mbf038c43ce" x="18" y="161.82" style="stroke: #000000; stroke-width: 0.8"/>
      </g>
     </g>
     <g id="text_5">
      <!-- 10 -->
      <g transform="translate(-10.104688 165.619219)scale(0.1 -0.1)">
       <use xlink:href="#DejaVuSans-2212"/>
       <use xlink:href="#DejaVuSans-31" x="83.789062"/>
       <use xlink:href="#DejaVuSans-30" x="147.412109"/>
      </g>
     </g>
    </g>
    <g id="ytick_3">
     <g id="line2d_6">
      <g>
       <use xlink:href="#mbf038c43ce" x="18" y="134.64" style="stroke: #000000; stroke-width: 0.8"/>
      </g>
     </g>
     <g id="text_6">
      <!-- 5 -->
      <g transform="translate(-3.742188 138.439219)scale(0.1 -0.1)">
       <use xlink:href="#DejaVuSans-2212"/>
       <use xlink:href="#DejaVuSans-35" x="83.789062"/>
      </g>
     </g>
    </g>
    <g id="ytick_4">
     <g id="line2d_7">
      <g>
       <use xlink:href="#mbf038c43ce" x="18" y="107.46" style="stroke: #000000; stroke-width: 0.8"/>
      </g>
     </g>
     <g id="text_7">
      <!-- 0 -->
      <g transform="translate(4.6375 111.259219)scale(0.1 -0.1)">
       <use xlink:href="#DejaVuSans-30"/>
      </g>
     </g>
    </g>
    <g id="ytick_5">
     <g id="line2d_8">
      <g>
       <use xlink:href="#mbf038c43ce" x="18" y="80.28" style="stroke: #000000; stroke-width: 0.8"/>
      </g>
     </g>
     <g id="text_8">
      <!-- 5 -->
      <g transform="translate(4.6375 84.079219)scale(0.1 -0.1)">
       <use xlink:href="#DejaVuSans-35"/>
      </g>
     </g>
    </g>
    <g id="ytick_6">
     <g id="line2d_9">
      <g>
       <use xlink:href="#mbf038c43ce" x="18" y="53.1" style="stroke: #000000; stroke-width: 0.8"/>
      </g>
     </g>
     <g id="text_9">
      <!-- 10 -->
      <g transform="translate(-1.725 56.899219)scale(0.1 -0.1)">
       <use xlink:href="#DejaVuSans-31"/>
       <use xlink:href="#DejaVuSans-30" x="63.623047"/>
      </g>
     </g>
    </g>
    <g id="ytick_7">
     <g id="line2d_10">
      <g>
       <use xlink:href="#mbf038c43ce" x="18" y="25.92" style="stroke: #000000; stroke-width: 0.8"/>
      </g>
     </g>
     <g id="text_10">
      <!-- 15 -->
      <g transform="translate(-1.725 29.719219)scale(0.1 -0.1)">
       <use xlink:href="#DejaVuSans-31"/>
       <use xlink:href="#DejaVuSans-35" x="63.623047"/>
      </g>
     </g>
    </g>
   </g>
   <g id="patch_3">
    <path d="M 18 189 
L 18 25.92 
" style="fill: none; stroke: #000000; stroke-width: 0.8; stroke-linejoin: miter; stroke-linecap: square"/>
   </g>
   <g id="patch_4">
    <path d="M 129.6 189 
L 129.6 25.92 
" style="fill: none; stroke: #000000; stroke-width: 0.8; stroke-linejoin: miter; stroke-linecap: square"/>
   </g>
   <g id="patch_5">
    <path d="M 18 189 
L 129.6 189 
" style="fill: none; stroke: #000000; stroke-width: 0.8; stroke-linejoin: miter; stroke-linecap: square"/>
   </g>
   <g id="patch_6">
    <path d="M 18 25.92 
L 129.6 25.92 
" style="fill: none; stroke: #000000; stroke-width: 0.8; stroke-linejoin: miter; stroke-linecap: square"/>
   </g>
  </g>
 </g>
 <defs>
  <clipPath id="p0d6a28c4c9">
   <rect x="18" y="25.92" width="111.6" height="163.08"/>
  </clipPath>
 </defs>
</svg>
