<?xml version="1.0" encoding="utf-8" standalone="no"?>
<!DOCTYPE svg PUBLIC "-//W3C//DTD SVG 1.1//EN"
  "http://www.w3.org/Graphics/SVG/1.1/DTD/svg11.dtd">
<svg xmlns:xlink="http://www.w3.org/1999/xlink" width="144pt" height="216pt" viewBox="0 0 144 216" xmlns="http://www.w3.org/2000/svg" version="1.1">
 <metadata>
  <rdf:RDF xmlns:dc="http://purl.org/dc/elements/1.1/" xmlns:cc="http://creativecommons.org/ns#" xmlns:rdf="http://www.w3.org/1999/02/22-rdf-syntax-ns#">
   <cc:Work>
    <dc:type rdf:resource="http://purl.org/dc/dcmitype/StillImage"/>
    <dc:date>2022-06-23T14:50:01.261539</dc:date>
    <dc:format>image/svg+xml</dc:format>
    <dc:creator>
     <cc:Agent>
      <dc:title>Matplotlib v3.5.1, https://matplotlib.org/</dc:title>
     </cc:Agent>
    </dc:creator>
   </cc:Work>
  </rdf:RDF>
 </metadata>
 <defs>
  <style type="text/css">*{stroke-linejoin: round; stroke-linecap: butt}</style>
 </defs>
 <g id="figure_1">
  <g id="patch_1">
   <path d="M 0 216 
L 144 216 
L 144 0 
L 0 0 
L 0 216 
z
" style="fill: none"/>
  </g>
  <g id="axes_1">
   <g id="patch_2">
    <path d="M 18 189 
L 129.6 189 
L 129.6 25.92 
L 18 25.92 
z
" style="fill: #ffffff"/>
   </g>
   <g id="PathCollection_1">
    <defs>
     <path id="m9601d2ad27" d="M 0 2.738613 
C 0.726289 2.738613 1.422928 2.450055 1.936492 1.936492 
C 2.450055 1.422928 2.738613 0.726289 2.738613 0 
C 2.738613 -0.726289 2.450055 -1.422928 1.936492 -1.936492 
C 1.422928 -2.450055 0.726289 -2.738613 0 -2.738613 
C -0.726289 -2.738613 -1.422928 -2.450055 -1.936492 -1.936492 
C -2.450055 -1.422928 -2.738613 -0.726289 -2.738613 0 
C -2.738613 0.726289 -2.450055 1.422928 -1.936492 1.936492 
C -1.422928 2.450055 -0.726289 2.738613 0 2.738613 
z
" style="stroke: #ff0000; stroke-width: 1.75"/>
    </defs>
    <g clip-path="url(#peb86175d72)">
     <use xlink:href="#m9601d2ad27" x="66.825" y="83.92143" style="fill: #ff0000; stroke: #ff0000; stroke-width: 1.75"/>
     <use xlink:href="#m9601d2ad27" x="87.75" y="95.690715" style="fill: #ff0000; stroke: #ff0000; stroke-width: 1.75"/>
     <use xlink:href="#m9601d2ad27" x="66.825" y="107.46" style="fill: #ff0000; stroke: #ff0000; stroke-width: 1.75"/>
     <use xlink:href="#m9601d2ad27" x="73.8" y="119.229285" style="fill: #ff0000; stroke: #ff0000; stroke-width: 1.75"/>
     <use xlink:href="#m9601d2ad27" x="87.75" y="119.229285" style="fill: #ff0000; stroke: #ff0000; stroke-width: 1.75"/>
     <use xlink:href="#m9601d2ad27" x="66.825" y="130.99857" style="fill: #ff0000; stroke: #ff0000; stroke-width: 1.75"/>
     <use xlink:href="#m9601d2ad27" x="80.775" y="130.99857" style="fill: #ff0000; stroke: #ff0000; stroke-width: 1.75"/>
    </g>
   </g>
   <g id="PathCollection_2">
    <defs>
     <path id="C0_0_b4382c50ed" d="M 0 2.738613 
C 0.726289 2.738613 1.422928 2.450055 1.936492 1.936492 
C 2.450055 1.422928 2.738613 0.726289 2.738613 -0 
C 2.738613 -0.726289 2.450055 -1.422928 1.936492 -1.936492 
C 1.422928 -2.450055 0.726289 -2.738613 0 -2.738613 
C -0.726289 -2.738613 -1.422928 -2.450055 -1.936492 -1.936492 
C -2.450055 -1.422928 -2.738613 -0.726289 -2.738613 0 
C -2.738613 0.726289 -2.450055 1.422928 -1.936492 1.936492 
C -1.422928 2.450055 -0.726289 2.738613 0 2.738613 
z
"/>
    </defs>
    <g clip-path="url(#peb86175d72)">
     <use xlink:href="#C0_0_b4382c50ed" x="80.775" y="83.92143" style="fill: none; stroke: #ff0000; stroke-width: 1.75"/>
    </g>
    <g clip-path="url(#peb86175d72)">
     <use xlink:href="#C0_0_b4382c50ed" x="59.85" y="95.690715" style="fill: none; stroke: #ff0000; stroke-width: 1.75"/>
    </g>
    <g clip-path="url(#peb86175d72)">
     <use xlink:href="#C0_0_b4382c50ed" x="73.8" y="95.690715" style="fill: none; stroke: #ff0000; stroke-width: 1.75"/>
    </g>
    <g clip-path="url(#peb86175d72)">
     <use xlink:href="#C0_0_b4382c50ed" x="52.875" y="107.46" style="fill: none; stroke: #ff0000; stroke-width: 1.75"/>
    </g>
    <g clip-path="url(#peb86175d72)">
     <use xlink:href="#C0_0_b4382c50ed" x="80.775" y="107.46" style="fill: none; stroke: #ff0000; stroke-width: 1.75"/>
    </g>
    <g clip-path="url(#peb86175d72)">
     <use xlink:href="#C0_0_b4382c50ed" x="94.725" y="107.46" style="fill: none; stroke: #ff0000; stroke-width: 1.75"/>
    </g>
    <g clip-path="url(#peb86175d72)">
     <use xlink:href="#C0_0_b4382c50ed" x="59.85" y="119.229285" style="fill: none; stroke: #ff0000; stroke-width: 1.75"/>
    </g>
   </g>
   <g id="PathCollection_3">
    <path d="M 109.138171 105.07899 
C 109.270773 105.07899 109.397961 105.026307 109.491725 104.932544 
C 109.585488 104.83878 109.638171 104.711592 109.638171 104.57899 
C 109.638171 104.446389 109.585488 104.3192 109.491725 104.225437 
C 109.397961 104.131673 109.270773 104.07899 109.138171 104.07899 
C 109.00557 104.07899 108.878381 104.131673 108.784618 104.225437 
C 108.690855 104.3192 108.638171 104.446389 108.638171 104.57899 
C 108.638171 104.711592 108.690855 104.83878 108.784618 104.932544 
C 108.878381 105.026307 109.00557 105.07899 109.138171 105.07899 
z
" clip-path="url(#peb86175d72)" style="stroke: #000000"/>
    <path d="M 104.046749 89.684404 
C 104.221262 89.684404 104.388651 89.615069 104.512051 89.491669 
C 104.635451 89.368269 104.704786 89.20088 104.704786 89.026367 
C 104.704786 88.851853 104.635451 88.684464 104.512051 88.561064 
C 104.388651 88.437665 104.221262 88.36833 104.046749 88.36833 
C 103.872235 88.36833 103.704846 88.437665 103.581446 88.561064 
C 103.458046 88.684464 103.388712 88.851853 103.388712 89.026367 
C 103.388712 89.20088 103.458046 89.368269 103.581446 89.491669 
C 103.704846 89.615069 103.872235 89.684404 104.046749 89.684404 
z
" clip-path="url(#peb86175d72)" style="stroke: #000000"/>
    <path d="M 98.813978 80.550878 
C 98.94658 80.550878 99.073768 80.498194 99.167532 80.404431 
C 99.261295 80.310668 99.313978 80.183479 99.313978 80.050878 
C 99.313978 79.918276 99.261295 79.791088 99.167532 79.697324 
C 99.073768 79.603561 98.94658 79.550878 98.813978 79.550878 
C 98.681377 79.550878 98.554188 79.603561 98.460425 79.697324 
C 98.366661 79.791088 98.313978 79.918276 98.313978 80.050878 
C 98.313978 80.183479 98.366661 80.310668 98.460425 80.404431 
C 98.554188 80.498194 98.681377 80.550878 98.813978 80.550878 
z
" clip-path="url(#peb86175d72)" style="stroke: #000000"/>
    <path d="M 87.890989 48.853348 
C 88.023591 48.853348 88.150779 48.800665 88.244543 48.706901 
C 88.338306 48.613138 88.390989 48.48595 88.390989 48.353348 
C 88.390989 48.220746 88.338306 48.093558 88.244543 47.999795 
C 88.150779 47.906031 88.023591 47.853348 87.890989 47.853348 
C 87.758388 47.853348 87.631199 47.906031 87.537436 47.999795 
C 87.443672 48.093558 87.390989 48.220746 87.390989 48.353348 
C 87.390989 48.48595 87.443672 48.613138 87.537436 48.706901 
C 87.631199 48.800665 87.758388 48.853348 87.890989 48.853348 
z
" clip-path="url(#peb86175d72)" style="stroke: #000000"/>
    <path d="M 104.959753 112.715867 
C 105.134266 112.715867 105.301655 112.646532 105.425055 112.523133 
C 105.548455 112.399733 105.61779 112.232344 105.61779 112.05783 
C 105.61779 111.883317 105.548455 111.715927 105.425055 111.592528 
C 105.301655 111.469128 105.134266 111.399793 104.959753 111.399793 
C 104.785239 111.399793 104.61785 111.469128 104.49445 111.592528 
C 104.371051 111.715927 104.301716 111.883317 104.301716 112.05783 
C 104.301716 112.232344 104.371051 112.399733 104.49445 112.523133 
C 104.61785 112.646532 104.785239 112.715867 104.959753 112.715867 
z
" clip-path="url(#peb86175d72)" style="stroke: #000000"/>
    <path d="M 103.204311 108.207351 
C 103.522128 108.207351 103.826971 108.081081 104.051702 107.856351 
C 104.276432 107.63162 104.402702 107.326777 104.402702 107.00896 
C 104.402702 106.691143 104.276432 106.3863 104.051702 106.16157 
C 103.826971 105.936839 103.522128 105.810569 103.204311 105.810569 
C 102.886494 105.810569 102.581652 105.936839 102.356921 106.16157 
C 102.13219 106.3863 102.00592 106.691143 102.00592 107.00896 
C 102.00592 107.326777 102.13219 107.63162 102.356921 107.856351 
C 102.581652 108.081081 102.886494 108.207351 103.204311 108.207351 
z
" clip-path="url(#peb86175d72)" style="stroke: #000000"/>
    <path d="M 98.34591 94.349182 
C 98.478511 94.349182 98.6057 94.296499 98.699463 94.202736 
C 98.793226 94.108972 98.84591 93.981784 98.84591 93.849182 
C 98.84591 93.716581 98.793226 93.589392 98.699463 93.495629 
C 98.6057 93.401865 98.478511 93.349182 98.34591 93.349182 
C 98.213308 93.349182 98.08612 93.401865 97.992356 93.495629 
C 97.898593 93.589392 97.84591 93.716581 97.84591 93.849182 
C 97.84591 93.981784 97.898593 94.108972 97.992356 94.202736 
C 98.08612 94.296499 98.213308 94.349182 98.34591 94.349182 
z
" clip-path="url(#peb86175d72)" style="stroke: #000000"/>
    <path d="M 93.563396 76.670159 
C 93.695997 76.670159 93.823185 76.617476 93.916949 76.523713 
C 94.010712 76.429949 94.063396 76.302761 94.063396 76.170159 
C 94.063396 76.037558 94.010712 75.910369 93.916949 75.816606 
C 93.823185 75.722843 93.695997 75.670159 93.563396 75.670159 
C 93.430794 75.670159 93.303606 75.722843 93.209842 75.816606 
C 93.116079 75.910369 93.063396 76.037558 93.063396 76.170159 
C 93.063396 76.302761 93.116079 76.429949 93.209842 76.523713 
C 93.303606 76.617476 93.430794 76.670159 93.563396 76.670159 
z
" clip-path="url(#peb86175d72)" style="stroke: #000000"/>
    <path d="M 104.377349 121.827097 
C 104.50995 121.827097 104.637139 121.774414 104.730902 121.68065 
C 104.824666 121.586887 104.877349 121.459698 104.877349 121.327097 
C 104.877349 121.194495 104.824666 121.067307 104.730902 120.973544 
C 104.637139 120.87978 104.50995 120.827097 104.377349 120.827097 
C 104.244747 120.827097 104.117559 120.87978 104.023795 120.973544 
C 103.930032 121.067307 103.877349 121.194495 103.877349 121.327097 
C 103.877349 121.459698 103.930032 121.586887 104.023795 121.68065 
C 104.117559 121.774414 104.244747 121.827097 104.377349 121.827097 
z
" clip-path="url(#peb86175d72)" style="stroke: #000000"/>
    <path d="M 99.369922 114.976409 
C 99.735858 114.976409 100.086856 114.831021 100.345612 114.572265 
C 100.604368 114.313509 100.749757 113.962511 100.749757 113.596575 
C 100.749757 113.230638 100.604368 112.87964 100.345612 112.620884 
C 100.086856 112.362128 99.735858 112.21674 99.369922 112.21674 
C 99.003986 112.21674 98.652988 112.362128 98.394232 112.620884 
C 98.135476 112.87964 97.990088 113.230638 97.990088 113.596575 
C 97.990088 113.962511 98.135476 114.313509 98.394232 114.572265 
C 98.652988 114.831021 99.003986 114.976409 99.369922 114.976409 
z
" clip-path="url(#peb86175d72)" style="stroke: #000000"/>
    <path d="M 97.602931 111.691356 
C 98.059052 111.691356 98.496554 111.510137 98.81908 111.18761 
C 99.141607 110.865084 99.322826 110.427582 99.322826 109.971461 
C 99.322826 109.515339 99.141607 109.077838 98.81908 108.755311 
C 98.496554 108.432784 98.059052 108.251565 97.602931 108.251565 
C 97.146809 108.251565 96.709308 108.432784 96.386781 108.755311 
C 96.064254 109.077838 95.883035 109.515339 95.883035 109.971461 
C 95.883035 110.427582 96.064254 110.865084 96.386781 111.18761 
C 96.709308 111.510137 97.146809 111.691356 97.602931 111.691356 
z
" clip-path="url(#peb86175d72)" style="stroke: #000000"/>
    <path d="M 93.388876 105.033665 
C 93.796159 105.033665 94.186816 104.87185 94.474808 104.583857 
C 94.762801 104.295865 94.924616 103.905209 94.924616 103.497926 
C 94.924616 103.090643 94.762801 102.699986 94.474808 102.411994 
C 94.186816 102.124002 93.796159 101.962186 93.388876 101.962186 
C 92.981594 101.962186 92.590937 102.124002 92.302945 102.411994 
C 92.014952 102.699986 91.853137 103.090643 91.853137 103.497926 
C 91.853137 103.905209 92.014952 104.295865 92.302945 104.583857 
C 92.590937 104.87185 92.981594 105.033665 93.388876 105.033665 
z
" clip-path="url(#peb86175d72)" style="stroke: #000000"/>
    <path d="M 94.031847 97.262061 
C 94.342181 97.262061 94.639846 97.138764 94.859285 96.919325 
C 95.078724 96.699886 95.202021 96.402221 95.202021 96.091887 
C 95.202021 95.781554 95.078724 95.483889 94.859285 95.26445 
C 94.639846 95.045011 94.342181 94.921714 94.031847 94.921714 
C 93.721513 94.921714 93.423848 95.045011 93.204409 95.26445 
C 92.98497 95.483889 92.861673 95.781554 92.861673 96.091887 
C 92.861673 96.402221 92.98497 96.699886 93.204409 96.919325 
C 93.423848 97.138764 93.721513 97.262061 94.031847 97.262061 
z
" clip-path="url(#peb86175d72)" style="stroke: #000000"/>
    <path d="M 92.913204 91.044456 
C 93.142876 91.044456 93.363173 90.953206 93.525576 90.790803 
C 93.687979 90.6284 93.779229 90.408103 93.779229 90.178431 
C 93.779229 89.948758 93.687979 89.728462 93.525576 89.566058 
C 93.363173 89.403655 93.142876 89.312405 92.913204 89.312405 
C 92.683531 89.312405 92.463234 89.403655 92.300831 89.566058 
C 92.138428 89.728462 92.047178 89.948758 92.047178 90.178431 
C 92.047178 90.408103 92.138428 90.6284 92.300831 90.790803 
C 92.463234 90.953206 92.683531 91.044456 92.913204 91.044456 
z
" clip-path="url(#peb86175d72)" style="stroke: #000000"/>
    <path d="M 93.657496 115.973427 
C 93.855781 115.973427 94.045972 115.894647 94.186181 115.754438 
C 94.32639 115.614229 94.40517 115.424038 94.40517 115.225752 
C 94.40517 115.027467 94.32639 114.837276 94.186181 114.697067 
C 94.045972 114.556858 93.855781 114.478078 93.657496 114.478078 
C 93.45921 114.478078 93.269019 114.556858 93.12881 114.697067 
C 92.988601 114.837276 92.909821 115.027467 92.909821 115.225752 
C 92.909821 115.424038 92.988601 115.614229 93.12881 115.754438 
C 93.269019 115.894647 93.45921 115.973427 93.657496 115.973427 
z
" clip-path="url(#peb86175d72)" style="stroke: #000000"/>
    <path d="M 91.949993 111.291774 
C 92.373448 111.291774 92.779616 111.123534 93.079044 110.824106 
C 93.378471 110.524679 93.546712 110.118511 93.546712 109.695056 
C 93.546712 109.271601 93.378471 108.865433 93.079044 108.566006 
C 92.779616 108.266578 92.373448 108.098338 91.949993 108.098338 
C 91.526538 108.098338 91.12037 108.266578 90.820943 108.566006 
C 90.521515 108.865433 90.353275 109.271601 90.353275 109.695056 
C 90.353275 110.118511 90.521515 110.524679 90.820943 110.824106 
C 91.12037 111.123534 91.526538 111.291774 91.949993 111.291774 
z
" clip-path="url(#peb86175d72)" style="stroke: #000000"/>
    <path d="M 88.230803 99.689607 
C 88.453812 99.689607 88.667716 99.601005 88.825407 99.443314 
C 88.983098 99.285623 89.0717 99.071719 89.0717 98.84871 
C 89.0717 98.625702 88.983098 98.411797 88.825407 98.254107 
C 88.667716 98.096416 88.453812 98.007814 88.230803 98.007814 
C 88.007795 98.007814 87.793891 98.096416 87.6362 98.254107 
C 87.478509 98.411797 87.389907 98.625702 87.389907 98.84871 
C 87.389907 99.071719 87.478509 99.285623 87.6362 99.443314 
C 87.793891 99.601005 88.007795 99.689607 88.230803 99.689607 
z
" clip-path="url(#peb86175d72)" style="stroke: #000000"/>
    <path d="M 80.088996 87.998271 
C 80.576705 87.998271 81.044505 87.804502 81.389368 87.459639 
C 81.734231 87.114776 81.928 86.646976 81.928 86.159266 
C 81.928 85.671557 81.734231 85.203757 81.389368 84.858894 
C 81.044505 84.514031 80.576705 84.320262 80.088996 84.320262 
C 79.601286 84.320262 79.133486 84.514031 78.788623 84.858894 
C 78.44376 85.203757 78.249991 85.671557 78.249991 86.159266 
C 78.249991 86.646976 78.44376 87.114776 78.788623 87.459639 
C 79.133486 87.804502 79.601286 87.998271 80.088996 87.998271 
z
" clip-path="url(#peb86175d72)" style="stroke: #000000"/>
    <path d="M 84.894981 120.319332 
C 85.301115 120.319332 85.69067 120.157973 85.97785 119.870793 
C 86.26503 119.583613 86.426388 119.194059 86.426388 118.787925 
C 86.426388 118.381791 86.26503 117.992237 85.97785 117.705057 
C 85.69067 117.417876 85.301115 117.256518 84.894981 117.256518 
C 84.488847 117.256518 84.099293 117.417876 83.812113 117.705057 
C 83.524933 117.992237 83.363574 118.381791 83.363574 118.787925 
C 83.363574 119.194059 83.524933 119.583613 83.812113 119.870793 
C 84.099293 120.157973 84.488847 120.319332 84.894981 120.319332 
z
" clip-path="url(#peb86175d72)" style="stroke: #000000"/>
    <path d="M 85.600715 112.347957 
C 85.758406 112.347957 85.909659 112.285306 86.021164 112.173802 
C 86.132668 112.062298 86.195319 111.911044 86.195319 111.753354 
C 86.195319 111.595663 86.132668 111.44441 86.021164 111.332905 
C 85.909659 111.221401 85.758406 111.15875 85.600715 111.15875 
C 85.443025 111.15875 85.291771 111.221401 85.180267 111.332905 
C 85.068763 111.44441 85.006112 111.595663 85.006112 111.753354 
C 85.006112 111.911044 85.068763 112.062298 85.180267 112.173802 
C 85.291771 112.285306 85.443025 112.347957 85.600715 112.347957 
z
" clip-path="url(#peb86175d72)" style="stroke: #000000"/>
    <path d="M 83.390685 108.892922 
C 83.877056 108.892922 84.343573 108.699685 84.68749 108.355768 
C 85.031406 108.011851 85.224644 107.545335 85.224644 107.058963 
C 85.224644 106.572591 85.031406 106.106075 84.68749 105.762158 
C 84.343573 105.418241 83.877056 105.225004 83.390685 105.225004 
C 82.904313 105.225004 82.437796 105.418241 82.09388 105.762158 
C 81.749963 106.106075 81.556726 106.572591 81.556726 107.058963 
C 81.556726 107.545335 81.749963 108.011851 82.09388 108.355768 
C 82.437796 108.699685 82.904313 108.892922 83.390685 108.892922 
z
" clip-path="url(#peb86175d72)" style="stroke: #000000"/>
    <path d="M 80.615578 101.391756 
C 80.831265 101.391756 81.038147 101.306063 81.19066 101.153549 
C 81.343173 101.001036 81.428867 100.794154 81.428867 100.578468 
C 81.428867 100.362781 81.343173 100.155899 81.19066 100.003386 
C 81.038147 99.850873 80.831265 99.765179 80.615578 99.765179 
C 80.399892 99.765179 80.19301 99.850873 80.040497 100.003386 
C 79.887983 100.155899 79.80229 100.362781 79.80229 100.578468 
C 79.80229 100.794154 79.887983 101.001036 80.040497 101.153549 
C 80.19301 101.306063 80.399892 101.391756 80.615578 101.391756 
z
" clip-path="url(#peb86175d72)" style="stroke: #000000"/>
    <path d="M 77.101916 90.018441 
C 77.474004 90.018441 77.830903 89.870608 78.09401 89.607502 
C 78.357116 89.344395 78.504949 88.987496 78.504949 88.615408 
C 78.504949 88.243319 78.357116 87.88642 78.09401 87.623313 
C 77.830903 87.360207 77.474004 87.212374 77.101916 87.212374 
C 76.729827 87.212374 76.372928 87.360207 76.109821 87.623313 
C 75.846715 87.88642 75.698882 88.243319 75.698882 88.615408 
C 75.698882 88.987496 75.846715 89.344395 76.109821 89.607502 
C 76.372928 89.870608 76.729827 90.018441 77.101916 90.018441 
z
" clip-path="url(#peb86175d72)" style="stroke: #000000"/>
    <path d="M 73.635771 83.114313 
C 73.967142 83.114313 74.284986 82.982658 74.519301 82.748343 
C 74.753615 82.514028 74.885271 82.196185 74.885271 81.864814 
C 74.885271 81.533442 74.753615 81.215599 74.519301 80.981284 
C 74.284986 80.746969 73.967142 80.615314 73.635771 80.615314 
C 73.3044 80.615314 72.986556 80.746969 72.752241 80.981284 
C 72.517926 81.215599 72.386271 81.533442 72.386271 81.864814 
C 72.386271 82.196185 72.517926 82.514028 72.752241 82.748343 
C 72.986556 82.982658 73.3044 83.114313 73.635771 83.114313 
z
" clip-path="url(#peb86175d72)" style="stroke: #000000"/>
    <path d="M 72.79435 77.90717 
C 72.952041 77.90717 73.103294 77.844519 73.214798 77.733015 
C 73.326303 77.62151 73.388954 77.470257 73.388954 77.312566 
C 73.388954 77.154876 73.326303 77.003622 73.214798 76.892118 
C 73.103294 76.780614 72.952041 76.717963 72.79435 76.717963 
C 72.636659 76.717963 72.485406 76.780614 72.373902 76.892118 
C 72.262398 77.003622 72.199747 77.154876 72.199747 77.312566 
C 72.199747 77.470257 72.262398 77.62151 72.373902 77.733015 
C 72.485406 77.844519 72.636659 77.90717 72.79435 77.90717 
z
" clip-path="url(#peb86175d72)" style="stroke: #000000"/>
    <path d="M 84.601198 135.626776 
C 85.018409 135.626776 85.418587 135.461016 85.7136 135.166004 
C 86.008612 134.870992 86.174371 134.470813 86.174371 134.053603 
C 86.174371 133.636392 86.008612 133.236214 85.7136 132.941201 
C 85.418587 132.646189 85.018409 132.48043 84.601198 132.48043 
C 84.183988 132.48043 83.783809 132.646189 83.488797 132.941201 
C 83.193785 133.236214 83.028025 133.636392 83.028025 134.053603 
C 83.028025 134.470813 83.193785 134.870992 83.488797 135.166004 
C 83.783809 135.461016 84.183988 135.626776 84.601198 135.626776 
z
" clip-path="url(#peb86175d72)" style="stroke: #000000"/>
    <path d="M 76.953499 117.769029 
C 77.343723 117.769029 77.718017 117.613992 77.993947 117.338062 
C 78.269877 117.062132 78.424915 116.687838 78.424915 116.297614 
C 78.424915 115.90739 78.269877 115.533096 77.993947 115.257166 
C 77.718017 114.981236 77.343723 114.826198 76.953499 114.826198 
C 76.563276 114.826198 76.188982 114.981236 75.913052 115.257166 
C 75.637122 115.533096 75.482084 115.90739 75.482084 116.297614 
C 75.482084 116.687838 75.637122 117.062132 75.913052 117.338062 
C 76.188982 117.613992 76.563276 117.769029 76.953499 117.769029 
z
" clip-path="url(#peb86175d72)" style="stroke: #000000"/>
    <path d="M 74.736845 108.544375 
C 74.983644 108.544375 75.220368 108.44632 75.394882 108.271807 
C 75.569395 108.097293 75.66745 107.860569 75.66745 107.61377 
C 75.66745 107.366971 75.569395 107.130246 75.394882 106.955733 
C 75.220368 106.781219 74.983644 106.683165 74.736845 106.683165 
C 74.490046 106.683165 74.253321 106.781219 74.078808 106.955733 
C 73.904294 107.130246 73.80624 107.366971 73.80624 107.61377 
C 73.80624 107.860569 73.904294 108.097293 74.078808 108.271807 
C 74.253321 108.44632 74.490046 108.544375 74.736845 108.544375 
z
" clip-path="url(#peb86175d72)" style="stroke: #000000"/>
    <path d="M 73.808985 104.836218 
C 74.007271 104.836218 74.197462 104.757438 74.337671 104.617229 
C 74.47788 104.47702 74.55666 104.286829 74.55666 104.088543 
C 74.55666 103.890258 74.47788 103.700067 74.337671 103.559858 
C 74.197462 103.419649 74.007271 103.340869 73.808985 103.340869 
C 73.6107 103.340869 73.420509 103.419649 73.2803 103.559858 
C 73.140091 103.700067 73.061311 103.890258 73.061311 104.088543 
C 73.061311 104.286829 73.140091 104.47702 73.2803 104.617229 
C 73.420509 104.757438 73.6107 104.836218 73.808985 104.836218 
z
" clip-path="url(#peb86175d72)" style="stroke: #000000"/>
    <path d="M 71.906731 97.450783 
C 72.142533 97.450783 72.36871 97.357097 72.535447 97.19036 
C 72.702185 97.023622 72.79587 96.797446 72.79587 96.561643 
C 72.79587 96.325841 72.702185 96.099664 72.535447 95.932926 
C 72.36871 95.766189 72.142533 95.672503 71.906731 95.672503 
C 71.670928 95.672503 71.444752 95.766189 71.278014 95.932926 
C 71.111276 96.099664 71.017591 96.325841 71.017591 96.561643 
C 71.017591 96.797446 71.111276 97.023622 71.278014 97.19036 
C 71.444752 97.357097 71.670928 97.450783 71.906731 97.450783 
z
" clip-path="url(#peb86175d72)" style="stroke: #000000"/>
    <path d="M 69.630408 90.007576 
C 70.011189 90.007576 70.376426 89.85629 70.645679 89.587036 
C 70.914933 89.317783 71.066219 88.952546 71.066219 88.571765 
C 71.066219 88.190983 70.914933 87.825746 70.645679 87.556493 
C 70.376426 87.28724 70.011189 87.135954 69.630408 87.135954 
C 69.249626 87.135954 68.884389 87.28724 68.615136 87.556493 
C 68.345883 87.825746 68.194597 88.190983 68.194597 88.571765 
C 68.194597 88.952546 68.345883 89.317783 68.615136 89.587036 
C 68.884389 89.85629 69.249626 90.007576 69.630408 90.007576 
z
" clip-path="url(#peb86175d72)" style="stroke: #000000"/>
    <path d="M 68.66272 84.4341 
C 69.189991 84.4341 69.695737 84.224613 70.068573 83.851776 
C 70.44141 83.478939 70.650897 82.973193 70.650897 82.445923 
C 70.650897 81.918652 70.44141 81.412906 70.068573 81.040069 
C 69.695737 80.667233 69.189991 80.457746 68.66272 80.457746 
C 68.135449 80.457746 67.629703 80.667233 67.256867 81.040069 
C 66.88403 81.412906 66.674543 81.918652 66.674543 82.445923 
C 66.674543 82.973193 66.88403 83.478939 67.256867 83.851776 
C 67.629703 84.224613 68.135449 84.4341 68.66272 84.4341 
z
" clip-path="url(#peb86175d72)" style="stroke: #000000"/>
    <path d="M 64.634285 76.592043 
C 64.83257 76.592043 65.022761 76.513263 65.16297 76.373054 
C 65.303179 76.232845 65.381959 76.042654 65.381959 75.844368 
C 65.381959 75.646083 65.303179 75.455892 65.16297 75.315683 
C 65.022761 75.175474 64.83257 75.096694 64.634285 75.096694 
C 64.435999 75.096694 64.245808 75.175474 64.105599 75.315683 
C 63.96539 75.455892 63.88661 75.646083 63.88661 75.844368 
C 63.88661 76.042654 63.96539 76.232845 64.105599 76.373054 
C 64.245808 76.513263 64.435999 76.592043 64.634285 76.592043 
z
" clip-path="url(#peb86175d72)" style="stroke: #000000"/>
    <path d="M 61.448356 71.642177 
C 61.580957 71.642177 61.708145 71.589494 61.801909 71.495731 
C 61.895672 71.401967 61.948356 71.274779 61.948356 71.142177 
C 61.948356 71.009576 61.895672 70.882387 61.801909 70.788624 
C 61.708145 70.69486 61.580957 70.642177 61.448356 70.642177 
C 61.315754 70.642177 61.188566 70.69486 61.094802 70.788624 
C 61.001039 70.882387 60.948356 71.009576 60.948356 71.142177 
C 60.948356 71.274779 61.001039 71.401967 61.094802 71.495731 
C 61.188566 71.589494 61.315754 71.642177 61.448356 71.642177 
z
" clip-path="url(#peb86175d72)" style="stroke: #000000"/>
    <path d="M 80.50191 136.469815 
C 80.709443 136.469815 80.908503 136.387362 81.055251 136.240614 
C 81.201999 136.093866 81.284453 135.894806 81.284453 135.687273 
C 81.284453 135.47974 81.201999 135.28068 81.055251 135.133932 
C 80.908503 134.987184 80.709443 134.904731 80.50191 134.904731 
C 80.294378 134.904731 80.095317 134.987184 79.948569 135.133932 
C 79.801822 135.28068 79.719368 135.47974 79.719368 135.687273 
C 79.719368 135.894806 79.801822 136.093866 79.948569 136.240614 
C 80.095317 136.387362 80.294378 136.469815 80.50191 136.469815 
z
" clip-path="url(#peb86175d72)" style="stroke: #000000"/>
    <path d="M 75.250296 131.876596 
C 75.382897 131.876596 75.510086 131.823912 75.603849 131.730149 
C 75.697612 131.636385 75.750296 131.509197 75.750296 131.376596 
C 75.750296 131.243994 75.697612 131.116806 75.603849 131.023042 
C 75.510086 130.929279 75.382897 130.876596 75.250296 130.876596 
C 75.117694 130.876596 74.990506 130.929279 74.896742 131.023042 
C 74.802979 131.116806 74.750296 131.243994 74.750296 131.376596 
C 74.750296 131.509197 74.802979 131.636385 74.896742 131.730149 
C 74.990506 131.823912 75.117694 131.876596 75.250296 131.876596 
z
" clip-path="url(#peb86175d72)" style="stroke: #000000"/>
    <path d="M 71.616043 117.996112 
C 72.122022 117.996112 72.607346 117.795084 72.965127 117.437303 
C 73.322908 117.079522 73.523936 116.594198 73.523936 116.088219 
C 73.523936 115.58224 73.322908 115.096917 72.965127 114.739135 
C 72.607346 114.381354 72.122022 114.180326 71.616043 114.180326 
C 71.110064 114.180326 70.624741 114.381354 70.266959 114.739135 
C 69.909178 115.096917 69.708151 115.58224 69.708151 116.088219 
C 69.708151 116.594198 69.909178 117.079522 70.266959 117.437303 
C 70.624741 117.795084 71.110064 117.996112 71.616043 117.996112 
z
" clip-path="url(#peb86175d72)" style="stroke: #000000"/>
    <path d="M 71.226264 110.525578 
C 71.561804 110.525578 71.883646 110.392266 72.120909 110.155004 
C 72.358172 109.917741 72.491483 109.595898 72.491483 109.260358 
C 72.491483 108.924818 72.358172 108.602975 72.120909 108.365713 
C 71.883646 108.12845 71.561804 107.995138 71.226264 107.995138 
C 70.890723 107.995138 70.568881 108.12845 70.331618 108.365713 
C 70.094355 108.602975 69.961044 108.924818 69.961044 109.260358 
C 69.961044 109.595898 70.094355 109.917741 70.331618 110.155004 
C 70.568881 110.392266 70.890723 110.525578 71.226264 110.525578 
z
" clip-path="url(#peb86175d72)" style="stroke: #000000"/>
    <path d="M 68.452467 107.581274 
C 68.979209 107.581274 69.484449 107.371997 69.856912 106.999534 
C 70.229375 106.627071 70.438652 106.121831 70.438652 105.595089 
C 70.438652 105.068346 70.229375 104.563107 69.856912 104.190643 
C 69.484449 103.81818 68.979209 103.608903 68.452467 103.608903 
C 67.925724 103.608903 67.420485 103.81818 67.048021 104.190643 
C 66.675558 104.563107 66.466281 105.068346 66.466281 105.595089 
C 66.466281 106.121831 66.675558 106.627071 67.048021 106.999534 
C 67.420485 107.371997 67.925724 107.581274 68.452467 107.581274 
z
" clip-path="url(#peb86175d72)" style="stroke: #000000"/>
    <path d="M 62.169135 93.849243 
C 62.548508 93.849243 62.912395 93.698516 63.180653 93.430258 
C 63.448911 93.162001 63.599637 92.798114 63.599637 92.41874 
C 63.599637 92.039366 63.448911 91.67548 63.180653 91.407222 
C 62.912395 91.138964 62.548508 90.988237 62.169135 90.988237 
C 61.789761 90.988237 61.425874 91.138964 61.157616 91.407222 
C 60.889359 91.67548 60.738632 92.039366 60.738632 92.41874 
C 60.738632 92.798114 60.889359 93.162001 61.157616 93.430258 
C 61.425874 93.698516 61.789761 93.849243 62.169135 93.849243 
z
" clip-path="url(#peb86175d72)" style="stroke: #000000"/>
    <path d="M 60.870911 87.148822 
C 61.225269 87.148822 61.56516 87.008034 61.815728 86.757466 
C 62.066296 86.506897 62.207084 86.167006 62.207084 85.812649 
C 62.207084 85.458292 62.066296 85.118401 61.815728 84.867832 
C 61.56516 84.617264 61.225269 84.476476 60.870911 84.476476 
C 60.516554 84.476476 60.176663 84.617264 59.926095 84.867832 
C 59.675526 85.118401 59.534739 85.458292 59.534739 85.812649 
C 59.534739 86.167006 59.675526 86.506897 59.926095 86.757466 
C 60.176663 87.008034 60.516554 87.148822 60.870911 87.148822 
z
" clip-path="url(#peb86175d72)" style="stroke: #000000"/>
    <path d="M 58.633446 80.735513 
C 58.831732 80.735513 59.021923 80.656734 59.162132 80.516525 
C 59.302341 80.376316 59.381121 80.186125 59.381121 79.987839 
C 59.381121 79.789553 59.302341 79.599362 59.162132 79.459153 
C 59.021923 79.318944 58.831732 79.240165 58.633446 79.240165 
C 58.435161 79.240165 58.24497 79.318944 58.104761 79.459153 
C 57.964552 79.599362 57.885772 79.789553 57.885772 79.987839 
C 57.885772 80.186125 57.964552 80.376316 58.104761 80.516525 
C 58.24497 80.656734 58.435161 80.735513 58.633446 80.735513 
z
" clip-path="url(#peb86175d72)" style="stroke: #000000"/>
    <path d="M 70.053504 137.455329 
C 70.228017 137.455329 70.395406 137.385994 70.518806 137.262595 
C 70.642206 137.139195 70.711541 136.971806 70.711541 136.797292 
C 70.711541 136.622779 70.642206 136.455389 70.518806 136.33199 
C 70.395406 136.20859 70.228017 136.139255 70.053504 136.139255 
C 69.87899 136.139255 69.711601 136.20859 69.588201 136.33199 
C 69.464802 136.455389 69.395467 136.622779 69.395467 136.797292 
C 69.395467 136.971806 69.464802 137.139195 69.588201 137.262595 
C 69.711601 137.385994 69.87899 137.455329 70.053504 137.455329 
z
" clip-path="url(#peb86175d72)" style="stroke: #000000"/>
    <path d="M 69.043225 132.596011 
C 69.312478 132.596011 69.570739 132.489036 69.76113 132.298645 
C 69.951521 132.108255 70.058496 131.849993 70.058496 131.58074 
C 70.058496 131.311487 69.951521 131.053225 69.76113 130.862834 
C 69.570739 130.672444 69.312478 130.565468 69.043225 130.565468 
C 68.773971 130.565468 68.51571 130.672444 68.325319 130.862834 
C 68.134928 131.053225 68.027953 131.311487 68.027953 131.58074 
C 68.027953 131.849993 68.134928 132.108255 68.325319 132.298645 
C 68.51571 132.489036 68.773971 132.596011 69.043225 132.596011 
z
" clip-path="url(#peb86175d72)" style="stroke: #000000"/>
    <path d="M 67.344501 125.903704 
C 67.691696 125.903704 68.024717 125.765762 68.27022 125.520258 
C 68.515724 125.274754 68.653666 124.941733 68.653666 124.594539 
C 68.653666 124.247344 68.515724 123.914323 68.27022 123.668819 
C 68.024717 123.423315 67.691696 123.285373 67.344501 123.285373 
C 66.997306 123.285373 66.664285 123.423315 66.418781 123.668819 
C 66.173278 123.914323 66.035336 124.247344 66.035336 124.594539 
C 66.035336 124.941733 66.173278 125.274754 66.418781 125.520258 
C 66.664285 125.765762 66.997306 125.903704 67.344501 125.903704 
z
" clip-path="url(#peb86175d72)" style="stroke: #000000"/>
    <path d="M 65.884838 117.716345 
C 66.197726 117.716345 66.497842 117.592033 66.719087 117.370788 
C 66.940332 117.149542 67.064644 116.849427 67.064644 116.536539 
C 67.064644 116.223651 66.940332 115.923536 66.719087 115.702291 
C 66.497842 115.481045 66.197726 115.356734 65.884838 115.356734 
C 65.57195 115.356734 65.271835 115.481045 65.05059 115.702291 
C 64.829345 115.923536 64.705033 116.223651 64.705033 116.536539 
C 64.705033 116.849427 64.829345 117.149542 65.05059 117.370788 
C 65.271835 117.592033 65.57195 117.716345 65.884838 117.716345 
z
" clip-path="url(#peb86175d72)" style="stroke: #000000"/>
    <path d="M 64.653931 111.236874 
C 64.828444 111.236874 64.995833 111.167539 65.119233 111.04414 
C 65.242633 110.92074 65.311968 110.753351 65.311968 110.578837 
C 65.311968 110.404324 65.242633 110.236935 65.119233 110.113535 
C 64.995833 109.990135 64.828444 109.9208 64.653931 109.9208 
C 64.479417 109.9208 64.312028 109.990135 64.188628 110.113535 
C 64.065229 110.236935 63.995894 110.404324 63.995894 110.578837 
C 63.995894 110.753351 64.065229 110.92074 64.188628 111.04414 
C 64.312028 111.167539 64.479417 111.236874 64.653931 111.236874 
z
" clip-path="url(#peb86175d72)" style="stroke: #000000"/>
    <path d="M 61.729127 108.619251 
C 62.145269 108.619251 62.544423 108.453916 62.838679 108.159659 
C 63.132936 107.865402 63.298271 107.466249 63.298271 107.050107 
C 63.298271 106.633965 63.132936 106.234811 62.838679 105.940554 
C 62.544423 105.646297 62.145269 105.480962 61.729127 105.480962 
C 61.312985 105.480962 60.913831 105.646297 60.619574 105.940554 
C 60.325317 106.234811 60.159982 106.633965 60.159982 107.050107 
C 60.159982 107.466249 60.325317 107.865402 60.619574 108.159659 
C 60.913831 108.453916 61.312985 108.619251 61.729127 108.619251 
z
" clip-path="url(#peb86175d72)" style="stroke: #000000"/>
    <path d="M 56.626926 102.896935 
C 56.784616 102.896935 56.93587 102.834283 57.047374 102.722779 
C 57.158878 102.611275 57.221529 102.460022 57.221529 102.302331 
C 57.221529 102.14464 57.158878 101.993387 57.047374 101.881883 
C 56.93587 101.770379 56.784616 101.707727 56.626926 101.707727 
C 56.469235 101.707727 56.317982 101.770379 56.206478 101.881883 
C 56.094973 101.993387 56.032322 102.14464 56.032322 102.302331 
C 56.032322 102.460022 56.094973 102.611275 56.206478 102.722779 
C 56.317982 102.834283 56.469235 102.896935 56.626926 102.896935 
z
" clip-path="url(#peb86175d72)" style="stroke: #000000"/>
    <path d="M 57.000413 97.557636 
C 57.426889 97.557636 57.835955 97.388195 58.137519 97.086631 
C 58.439083 96.785067 58.608524 96.376001 58.608524 95.949525 
C 58.608524 95.523049 58.439083 95.113983 58.137519 94.812419 
C 57.835955 94.510855 57.426889 94.341415 57.000413 94.341415 
C 56.573937 94.341415 56.164871 94.510855 55.863307 94.812419 
C 55.561743 95.113983 55.392303 95.523049 55.392303 95.949525 
C 55.392303 96.376001 55.561743 96.785067 55.863307 97.086631 
C 56.164871 97.388195 56.573937 97.557636 57.000413 97.557636 
z
" clip-path="url(#peb86175d72)" style="stroke: #000000"/>
    <path d="M 73.673289 164.733194 
C 73.80589 164.733194 73.933079 164.680511 74.026842 164.586748 
C 74.120606 164.492984 74.173289 164.365796 74.173289 164.233194 
C 74.173289 164.100593 74.120606 163.973404 74.026842 163.879641 
C 73.933079 163.785877 73.80589 163.733194 73.673289 163.733194 
C 73.540687 163.733194 73.413499 163.785877 73.319736 163.879641 
C 73.225972 163.973404 73.173289 164.100593 73.173289 164.233194 
C 73.173289 164.365796 73.225972 164.492984 73.319736 164.586748 
C 73.413499 164.680511 73.540687 164.733194 73.673289 164.733194 
z
" clip-path="url(#peb86175d72)" style="stroke: #000000"/>
    <path d="M 62.246899 134.133625 
C 62.725 134.133625 63.183585 133.943674 63.521654 133.605605 
C 63.859722 133.267536 64.049674 132.808951 64.049674 132.33085 
C 64.049674 131.852748 63.859722 131.394164 63.521654 131.056095 
C 63.183585 130.718026 62.725 130.528074 62.246899 130.528074 
C 61.768797 130.528074 61.310213 130.718026 60.972144 131.056095 
C 60.634075 131.394164 60.444123 131.852748 60.444123 132.33085 
C 60.444123 132.808951 60.634075 133.267536 60.972144 133.605605 
C 61.310213 133.943674 61.768797 134.133625 62.246899 134.133625 
z
" clip-path="url(#peb86175d72)" style="stroke: #000000"/>
    <path d="M 63.257107 128.95005 
C 63.577304 128.95005 63.884431 128.822834 64.110845 128.59642 
C 64.337259 128.370006 64.464475 128.062879 64.464475 127.742681 
C 64.464475 127.422484 64.337259 127.115357 64.110845 126.888943 
C 63.884431 126.662529 63.577304 126.535313 63.257107 126.535313 
C 62.936909 126.535313 62.629782 126.662529 62.403368 126.888943 
C 62.176954 127.115357 62.049738 127.422484 62.049738 127.742681 
C 62.049738 128.062879 62.176954 128.370006 62.403368 128.59642 
C 62.629782 128.822834 62.936909 128.95005 63.257107 128.95005 
z
" clip-path="url(#peb86175d72)" style="stroke: #000000"/>
    <path d="M 60.824216 121.294364 
C 61.316524 121.294364 61.788735 121.098768 62.13685 120.750654 
C 62.484964 120.402539 62.68056 119.930328 62.68056 119.43802 
C 62.68056 118.945712 62.484964 118.473502 62.13685 118.125387 
C 61.788735 117.777273 61.316524 117.581677 60.824216 117.581677 
C 60.331908 117.581677 59.859697 117.777273 59.511583 118.125387 
C 59.163469 118.473502 58.967873 118.945712 58.967873 119.43802 
C 58.967873 119.930328 59.163469 120.402539 59.511583 120.750654 
C 59.859697 121.098768 60.331908 121.294364 60.824216 121.294364 
z
" clip-path="url(#peb86175d72)" style="stroke: #000000"/>
    <path d="M 55.506343 114.934844 
C 55.762839 114.934844 56.008865 114.832937 56.190235 114.651567 
C 56.371605 114.470197 56.473512 114.224172 56.473512 113.967676 
C 56.473512 113.71118 56.371605 113.465155 56.190235 113.283785 
C 56.008865 113.102415 55.762839 113.000508 55.506343 113.000508 
C 55.249847 113.000508 55.003822 113.102415 54.822452 113.283785 
C 54.641082 113.465155 54.539175 113.71118 54.539175 113.967676 
C 54.539175 114.224172 54.641082 114.470197 54.822452 114.651567 
C 55.003822 114.832937 55.249847 114.934844 55.506343 114.934844 
z
" clip-path="url(#peb86175d72)" style="stroke: #000000"/>
    <path d="M 55.19567 110.805384 
C 55.447457 110.805384 55.688966 110.705348 55.867007 110.527307 
C 56.045048 110.349266 56.145084 110.107757 56.145084 109.85597 
C 56.145084 109.604182 56.045048 109.362673 55.867007 109.184632 
C 55.688966 109.006591 55.447457 108.906555 55.19567 108.906555 
C 54.943882 108.906555 54.702373 109.006591 54.524332 109.184632 
C 54.346291 109.362673 54.246255 109.604182 54.246255 109.85597 
C 54.246255 110.107757 54.346291 110.349266 54.524332 110.527307 
C 54.702373 110.705348 54.943882 110.805384 55.19567 110.805384 
z
" clip-path="url(#peb86175d72)" style="stroke: #000000"/>
    <path d="M 51.261332 104.384255 
C 51.594807 104.384255 51.914669 104.251764 52.150471 104.015961 
C 52.386274 103.780159 52.518765 103.460297 52.518765 103.126822 
C 52.518765 102.793346 52.386274 102.473485 52.150471 102.237682 
C 51.914669 102.001879 51.594807 101.869388 51.261332 101.869388 
C 50.927856 101.869388 50.607995 102.001879 50.372192 102.237682 
C 50.136389 102.473485 50.003898 102.793346 50.003898 103.126822 
C 50.003898 103.460297 50.136389 103.780159 50.372192 104.015961 
C 50.607995 104.251764 50.927856 104.384255 51.261332 104.384255 
z
" clip-path="url(#peb86175d72)" style="stroke: #000000"/>
    <path d="M 48.011045 111.870601 
C 48.267541 111.870601 48.513566 111.768695 48.694936 111.587324 
C 48.876306 111.405954 48.978213 111.159929 48.978213 110.903433 
C 48.978213 110.646937 48.876306 110.400912 48.694936 110.219542 
C 48.513566 110.038172 48.267541 109.936265 48.011045 109.936265 
C 47.754549 109.936265 47.508524 110.038172 47.327154 110.219542 
C 47.145784 110.400912 47.043877 110.646937 47.043877 110.903433 
C 47.043877 111.159929 47.145784 111.405954 47.327154 111.587324 
C 47.508524 111.768695 47.754549 111.870601 48.011045 111.870601 
z
" clip-path="url(#peb86175d72)" style="stroke: #000000"/>
    <path d="M 46.760397 99.911377 
C 46.990069 99.911377 47.210366 99.820127 47.372769 99.657724 
C 47.535172 99.495321 47.626422 99.275024 47.626422 99.045351 
C 47.626422 98.815679 47.535172 98.595382 47.372769 98.432979 
C 47.210366 98.270576 46.990069 98.179326 46.760397 98.179326 
C 46.530724 98.179326 46.310427 98.270576 46.148024 98.432979 
C 45.985621 98.595382 45.894371 98.815679 45.894371 99.045351 
C 45.894371 99.275024 45.985621 99.495321 46.148024 99.657724 
C 46.310427 99.820127 46.530724 99.911377 46.760397 99.911377 
z
" clip-path="url(#peb86175d72)" style="stroke: #000000"/>
    <path d="M 36.202613 75.443985 
C 36.335214 75.443985 36.462403 75.391302 36.556166 75.297538 
C 36.64993 75.203775 36.702613 75.076586 36.702613 74.943985 
C 36.702613 74.811383 36.64993 74.684195 36.556166 74.590431 
C 36.462403 74.496668 36.335214 74.443985 36.202613 74.443985 
C 36.070011 74.443985 35.942823 74.496668 35.84906 74.590431 
C 35.755296 74.684195 35.702613 74.811383 35.702613 74.943985 
C 35.702613 75.076586 35.755296 75.203775 35.84906 75.297538 
C 35.942823 75.391302 36.070011 75.443985 36.202613 75.443985 
z
" clip-path="url(#peb86175d72)" style="stroke: #000000"/>
    <path d="M 64.772231 176.549206 
C 64.904833 176.549206 65.032021 176.496523 65.125784 176.402759 
C 65.219548 176.308996 65.272231 176.181808 65.272231 176.049206 
C 65.272231 175.916604 65.219548 175.789416 65.125784 175.695653 
C 65.032021 175.601889 64.904833 175.549206 64.772231 175.549206 
C 64.639629 175.549206 64.512441 175.601889 64.418678 175.695653 
C 64.324914 175.789416 64.272231 175.916604 64.272231 176.049206 
C 64.272231 176.181808 64.324914 176.308996 64.418678 176.402759 
C 64.512441 176.496523 64.639629 176.549206 64.772231 176.549206 
z
" clip-path="url(#peb86175d72)" style="stroke: #000000"/>
    <path d="M 43.927505 117.832838 
C 44.060106 117.832838 44.187294 117.780155 44.281058 117.686392 
C 44.374821 117.592628 44.427505 117.46544 44.427505 117.332838 
C 44.427505 117.200237 44.374821 117.073048 44.281058 116.979285 
C 44.187294 116.885521 44.060106 116.832838 43.927505 116.832838 
C 43.794903 116.832838 43.667715 116.885521 43.573951 116.979285 
C 43.480188 117.073048 43.427505 117.200237 43.427505 117.332838 
C 43.427505 117.46544 43.480188 117.592628 43.573951 117.686392 
C 43.667715 117.780155 43.794903 117.832838 43.927505 117.832838 
z
" clip-path="url(#peb86175d72)" style="stroke: #000000"/>
    <path d="M 42.633117 115.104314 
C 42.807631 115.104314 42.97502 115.034979 43.09842 114.91158 
C 43.221819 114.78818 43.291154 114.620791 43.291154 114.446277 
C 43.291154 114.271764 43.221819 114.104374 43.09842 113.980975 
C 42.97502 113.857575 42.807631 113.78824 42.633117 113.78824 
C 42.458604 113.78824 42.291214 113.857575 42.167815 113.980975 
C 42.044415 114.104374 41.97508 114.271764 41.97508 114.446277 
C 41.97508 114.620791 42.044415 114.78818 42.167815 114.91158 
C 42.291214 115.034979 42.458604 115.104314 42.633117 115.104314 
z
" clip-path="url(#peb86175d72)" style="stroke: #000000"/>
   </g>
   <g id="matplotlib.axis_1">
    <g id="xtick_1">
     <g id="line2d_1">
      <defs>
       <path id="m0823d3b4f4" d="M 0 0 
L 0 3.5 
" style="stroke: #000000; stroke-width: 0.8"/>
      </defs>
      <g>
       <use xlink:href="#m0823d3b4f4" x="18" y="189" style="stroke: #000000; stroke-width: 0.8"/>
      </g>
     </g>
     <g id="text_1">
      <!-- −10 -->
      <g transform="translate(7.447656 203.598437)scale(0.1 -0.1)">
       <defs>
        <path id="DejaVuSans-2212" d="M 678 2272 
L 4684 2272 
L 4684 1741 
L 678 1741 
L 678 2272 
z
" transform="scale(0.015625)"/>
        <path id="DejaVuSans-31" d="M 794 531 
L 1825 531 
L 1825 4091 
L 703 3866 
L 703 4441 
L 1819 4666 
L 2450 4666 
L 2450 531 
L 3481 531 
L 3481 0 
L 794 0 
L 794 531 
z
" transform="scale(0.015625)"/>
        <path id="DejaVuSans-30" d="M 2034 4250 
Q 1547 4250 1301 3770 
Q 1056 3291 1056 2328 
Q 1056 1369 1301 889 
Q 1547 409 2034 409 
Q 2525 409 2770 889 
Q 3016 1369 3016 2328 
Q 3016 3291 2770 3770 
Q 2525 4250 2034 4250 
z
M 2034 4750 
Q 2819 4750 3233 4129 
Q 3647 3509 3647 2328 
Q 3647 1150 3233 529 
Q 2819 -91 2034 -91 
Q 1250 -91 836 529 
Q 422 1150 422 2328 
Q 422 3509 836 4129 
Q 1250 4750 2034 4750 
z
" transform="scale(0.015625)"/>
       </defs>
       <use xlink:href="#DejaVuSans-2212"/>
       <use xlink:href="#DejaVuSans-31" x="83.789062"/>
       <use xlink:href="#DejaVuSans-30" x="147.412109"/>
      </g>
     </g>
    </g>
    <g id="xtick_2">
     <g id="line2d_2">
      <g>
       <use xlink:href="#m0823d3b4f4" x="73.8" y="189" style="stroke: #000000; stroke-width: 0.8"/>
      </g>
     </g>
     <g id="text_2">
      <!-- 0 -->
      <g transform="translate(70.61875 203.598437)scale(0.1 -0.1)">
       <use xlink:href="#DejaVuSans-30"/>
      </g>
     </g>
    </g>
    <g id="xtick_3">
     <g id="line2d_3">
      <g>
       <use xlink:href="#m0823d3b4f4" x="129.6" y="189" style="stroke: #000000; stroke-width: 0.8"/>
      </g>
     </g>
     <g id="text_3">
      <!-- 10 -->
      <g transform="translate(123.2375 203.598437)scale(0.1 -0.1)">
       <use xlink:href="#DejaVuSans-31"/>
       <use xlink:href="#DejaVuSans-30" x="63.623047"/>
      </g>
     </g>
    </g>
   </g>
   <g id="matplotlib.axis_2">
    <g id="ytick_1">
     <g id="line2d_4">
      <defs>
       <path id="ma8dd2354d3" d="M 0 0 
L -3.5 0 
" style="stroke: #000000; stroke-width: 0.8"/>
      </defs>
      <g>
       <use xlink:href="#ma8dd2354d3" x="18" y="189" style="stroke: #000000; stroke-width: 0.8"/>
      </g>
     </g>
     <g id="text_4">
      <!-- −15 -->
      <g transform="translate(-10.104688 192.799219)scale(0.1 -0.1)">
       <defs>
        <path id="DejaVuSans-35" d="M 691 4666 
L 3169 4666 
L 3169 4134 
L 1269 4134 
L 1269 2991 
Q 1406 3038 1543 3061 
Q 1681 3084 1819 3084 
Q 2600 3084 3056 2656 
Q 3513 2228 3513 1497 
Q 3513 744 3044 326 
Q 2575 -91 1722 -91 
Q 1428 -91 1123 -41 
Q 819 9 494 109 
L 494 744 
Q 775 591 1075 516 
Q 1375 441 1709 441 
Q 2250 441 2565 725 
Q 2881 1009 2881 1497 
Q 2881 1984 2565 2268 
Q 2250 2553 1709 2553 
Q 1456 2553 1204 2497 
Q 953 2441 691 2322 
L 691 4666 
z
" transform="scale(0.015625)"/>
       </defs>
       <use xlink:href="#DejaVuSans-2212"/>
       <use xlink:href="#DejaVuSans-31" x="83.789062"/>
       <use xlink:href="#DejaVuSans-35" x="147.412109"/>
      </g>
     </g>
    </g>
    <g id="ytick_2">
     <g id="line2d_5">
      <g>
       <use xlink:href="#ma8dd2354d3" x="18" y="161.82" style="stroke: #000000; stroke-width: 0.8"/>
      </g>
     </g>
     <g id="text_5">
      <!-- −10 -->
      <g transform="translate(-10.104688 165.619219)scale(0.1 -0.1)">
       <use xlink:href="#DejaVuSans-2212"/>
       <use xlink:href="#DejaVuSans-31" x="83.789062"/>
       <use xlink:href="#DejaVuSans-30" x="147.412109"/>
      </g>
     </g>
    </g>
    <g id="ytick_3">
     <g id="line2d_6">
      <g>
       <use xlink:href="#ma8dd2354d3" x="18" y="134.64" style="stroke: #000000; stroke-width: 0.8"/>
      </g>
     </g>
     <g id="text_6">
      <!-- −5 -->
      <g transform="translate(-3.742188 138.439219)scale(0.1 -0.1)">
       <use xlink:href="#DejaVuSans-2212"/>
       <use xlink:href="#DejaVuSans-35" x="83.789062"/>
      </g>
     </g>
    </g>
    <g id="ytick_4">
     <g id="line2d_7">
      <g>
       <use xlink:href="#ma8dd2354d3" x="18" y="107.46" style="stroke: #000000; stroke-width: 0.8"/>
      </g>
     </g>
     <g id="text_7">
      <!-- 0 -->
      <g transform="translate(4.6375 111.259219)scale(0.1 -0.1)">
       <use xlink:href="#DejaVuSans-30"/>
      </g>
     </g>
    </g>
    <g id="ytick_5">
     <g id="line2d_8">
      <g>
       <use xlink:href="#ma8dd2354d3" x="18" y="80.28" style="stroke: #000000; stroke-width: 0.8"/>
      </g>
     </g>
     <g id="text_8">
      <!-- 5 -->
      <g transform="translate(4.6375 84.079219)scale(0.1 -0.1)">
       <use xlink:href="#DejaVuSans-35"/>
      </g>
     </g>
    </g>
    <g id="ytick_6">
     <g id="line2d_9">
      <g>
       <use xlink:href="#ma8dd2354d3" x="18" y="53.1" style="stroke: #000000; stroke-width: 0.8"/>
      </g>
     </g>
     <g id="text_9">
      <!-- 10 -->
      <g transform="translate(-1.725 56.899219)scale(0.1 -0.1)">
       <use xlink:href="#DejaVuSans-31"/>
       <use xlink:href="#DejaVuSans-30" x="63.623047"/>
      </g>
     </g>
    </g>
    <g id="ytick_7">
     <g id="line2d_10">
      <g>
       <use xlink:href="#ma8dd2354d3" x="18" y="25.92" style="stroke: #000000; stroke-width: 0.8"/>
      </g>
     </g>
     <g id="text_10">
      <!-- 15 -->
      <g transform="translate(-1.725 29.719219)scale(0.1 -0.1)">
       <use xlink:href="#DejaVuSans-31"/>
       <use xlink:href="#DejaVuSans-35" x="63.623047"/>
      </g>
     </g>
    </g>
   </g>
   <g id="patch_3">
    <path d="M 18 189 
L 18 25.92 
" style="fill: none; stroke: #000000; stroke-width: 0.8; stroke-linejoin: miter; stroke-linecap: square"/>
   </g>
   <g id="patch_4">
    <path d="M 129.6 189 
L 129.6 25.92 
" style="fill: none; stroke: #000000; stroke-width: 0.8; stroke-linejoin: miter; stroke-linecap: square"/>
   </g>
   <g id="patch_5">
    <path d="M 18 189 
L 129.6 189 
" style="fill: none; stroke: #000000; stroke-width: 0.8; stroke-linejoin: miter; stroke-linecap: square"/>
   </g>
   <g id="patch_6">
    <path d="M 18 25.92 
L 129.6 25.92 
" style="fill: none; stroke: #000000; stroke-width: 0.8; stroke-linejoin: miter; stroke-linecap: square"/>
   </g>
  </g>
 </g>
 <defs>
  <clipPath id="peb86175d72">
   <rect x="18" y="25.92" width="111.6" height="163.08"/>
  </clipPath>
 </defs>
</svg>
