<?xml version="1.0" encoding="utf-8" standalone="no"?>
<!DOCTYPE svg PUBLIC "-//W3C//DTD SVG 1.1//EN"
  "http://www.w3.org/Graphics/SVG/1.1/DTD/svg11.dtd">
<svg xmlns:xlink="http://www.w3.org/1999/xlink" width="144pt" height="216pt" viewBox="0 0 144 216" xmlns="http://www.w3.org/2000/svg" version="1.1">
 <metadata>
  <rdf:RDF xmlns:dc="http://purl.org/dc/elements/1.1/" xmlns:cc="http://creativecommons.org/ns#" xmlns:rdf="http://www.w3.org/1999/02/22-rdf-syntax-ns#">
   <cc:Work>
    <dc:type rdf:resource="http://purl.org/dc/dcmitype/StillImage"/>
    <dc:date>2022-06-23T14:50:03.698025</dc:date>
    <dc:format>image/svg+xml</dc:format>
    <dc:creator>
     <cc:Agent>
      <dc:title>Matplotlib v3.5.1, https://matplotlib.org/</dc:title>
     </cc:Agent>
    </dc:creator>
   </cc:Work>
  </rdf:RDF>
 </metadata>
 <defs>
  <style type="text/css">*{stroke-linejoin: round; stroke-linecap: butt}</style>
 </defs>
 <g id="figure_1">
  <g id="patch_1">
   <path d="M 0 216 
L 144 216 
L 144 0 
L 0 0 
L 0 216 
z
" style="fill: none"/>
  </g>
  <g id="axes_1">
   <g id="patch_2">
    <path d="M 18 189 
L 129.6 189 
L 129.6 25.92 
L 18 25.92 
z
" style="fill: #ffffff"/>
   </g>
   <g id="PathCollection_1">
    <defs>
     <path id="m77081c9ec8" d="M 0 2.738613 
C 0.726289 2.738613 1.422928 2.450055 1.936492 1.936492 
C 2.450055 1.422928 2.738613 0.726289 2.738613 0 
C 2.738613 -0.726289 2.450055 -1.422928 1.936492 -1.936492 
C 1.422928 -2.450055 0.726289 -2.738613 0 -2.738613 
C -0.726289 -2.738613 -1.422928 -2.450055 -1.936492 -1.936492 
C -2.450055 -1.422928 -2.738613 -0.726289 -2.738613 0 
C -2.738613 0.726289 -2.450055 1.422928 -1.936492 1.936492 
C -1.422928 2.450055 -0.726289 2.738613 0 2.738613 
z
" style="stroke: #ff0000; stroke-width: 1.75"/>
    </defs>
    <g clip-path="url(#pefd8403875)">
     <use xlink:href="#m77081c9ec8" x="66.825" y="83.92143" style="fill: #ff0000; stroke: #ff0000; stroke-width: 1.75"/>
     <use xlink:href="#m77081c9ec8" x="87.75" y="95.690715" style="fill: #ff0000; stroke: #ff0000; stroke-width: 1.75"/>
     <use xlink:href="#m77081c9ec8" x="66.825" y="107.46" style="fill: #ff0000; stroke: #ff0000; stroke-width: 1.75"/>
     <use xlink:href="#m77081c9ec8" x="73.8" y="119.229285" style="fill: #ff0000; stroke: #ff0000; stroke-width: 1.75"/>
     <use xlink:href="#m77081c9ec8" x="87.75" y="119.229285" style="fill: #ff0000; stroke: #ff0000; stroke-width: 1.75"/>
     <use xlink:href="#m77081c9ec8" x="66.825" y="130.99857" style="fill: #ff0000; stroke: #ff0000; stroke-width: 1.75"/>
     <use xlink:href="#m77081c9ec8" x="80.775" y="130.99857" style="fill: #ff0000; stroke: #ff0000; stroke-width: 1.75"/>
    </g>
   </g>
   <g id="PathCollection_2">
    <defs>
     <path id="C0_0_914ebbae5f" d="M 0 2.738613 
C 0.726289 2.738613 1.422928 2.450055 1.936492 1.936492 
C 2.450055 1.422928 2.738613 0.726289 2.738613 -0 
C 2.738613 -0.726289 2.450055 -1.422928 1.936492 -1.936492 
C 1.422928 -2.450055 0.726289 -2.738613 0 -2.738613 
C -0.726289 -2.738613 -1.422928 -2.450055 -1.936492 -1.936492 
C -2.450055 -1.422928 -2.738613 -0.726289 -2.738613 0 
C -2.738613 0.726289 -2.450055 1.422928 -1.936492 1.936492 
C -1.422928 2.450055 -0.726289 2.738613 0 2.738613 
z
"/>
    </defs>
    <g clip-path="url(#pefd8403875)">
     <use xlink:href="#C0_0_914ebbae5f" x="80.775" y="83.92143" style="fill: none; stroke: #ff0000; stroke-width: 1.75"/>
    </g>
    <g clip-path="url(#pefd8403875)">
     <use xlink:href="#C0_0_914ebbae5f" x="59.85" y="95.690715" style="fill: none; stroke: #ff0000; stroke-width: 1.75"/>
    </g>
    <g clip-path="url(#pefd8403875)">
     <use xlink:href="#C0_0_914ebbae5f" x="73.8" y="95.690715" style="fill: none; stroke: #ff0000; stroke-width: 1.75"/>
    </g>
    <g clip-path="url(#pefd8403875)">
     <use xlink:href="#C0_0_914ebbae5f" x="52.875" y="107.46" style="fill: none; stroke: #ff0000; stroke-width: 1.75"/>
    </g>
    <g clip-path="url(#pefd8403875)">
     <use xlink:href="#C0_0_914ebbae5f" x="80.775" y="107.46" style="fill: none; stroke: #ff0000; stroke-width: 1.75"/>
    </g>
    <g clip-path="url(#pefd8403875)">
     <use xlink:href="#C0_0_914ebbae5f" x="94.725" y="107.46" style="fill: none; stroke: #ff0000; stroke-width: 1.75"/>
    </g>
    <g clip-path="url(#pefd8403875)">
     <use xlink:href="#C0_0_914ebbae5f" x="59.85" y="119.229285" style="fill: none; stroke: #ff0000; stroke-width: 1.75"/>
    </g>
   </g>
   <g id="PathCollection_3">
    <path d="M 114.037832 116.640114 
C 114.170433 116.640114 114.297622 116.587431 114.391385 116.493668 
C 114.485149 116.399904 114.537832 116.272716 114.537832 116.140114 
C 114.537832 116.007513 114.485149 115.880324 114.391385 115.786561 
C 114.297622 115.692797 114.170433 115.640114 114.037832 115.640114 
C 113.90523 115.640114 113.778042 115.692797 113.684279 115.786561 
C 113.590515 115.880324 113.537832 116.007513 113.537832 116.140114 
C 113.537832 116.272716 113.590515 116.399904 113.684279 116.493668 
C 113.778042 116.587431 113.90523 116.640114 114.037832 116.640114 
z
" clip-path="url(#pefd8403875)" style="stroke: #000000"/>
    <path d="M 103.204311 107.874986 
C 103.433984 107.874986 103.654281 107.783736 103.816684 107.621333 
C 103.979087 107.45893 104.070337 107.238633 104.070337 107.00896 
C 104.070337 106.779288 103.979087 106.558991 103.816684 106.396588 
C 103.654281 106.234185 103.433984 106.142935 103.204311 106.142935 
C 102.974639 106.142935 102.754342 106.234185 102.591939 106.396588 
C 102.429536 106.558991 102.338286 106.779288 102.338286 107.00896 
C 102.338286 107.238633 102.429536 107.45893 102.591939 107.621333 
C 102.754342 107.783736 102.974639 107.874986 103.204311 107.874986 
z
" clip-path="url(#pefd8403875)" style="stroke: #000000"/>
    <path d="M 76.322716 25.3125 
C 76.455318 25.3125 76.582506 25.259817 76.676269 25.166054 
C 76.770033 25.07229 76.822716 24.945102 76.822716 24.8125 
C 76.822716 24.679899 76.770033 24.55271 76.676269 24.458947 
C 76.582506 24.365183 76.455318 24.3125 76.322716 24.3125 
C 76.190114 24.3125 76.062926 24.365183 75.969163 24.458947 
C 75.875399 24.55271 75.822716 24.679899 75.822716 24.8125 
C 75.822716 24.945102 75.875399 25.07229 75.969163 25.166054 
C 76.062926 25.259817 76.190114 25.3125 76.322716 25.3125 
z
" clip-path="url(#pefd8403875)" style="stroke: #000000"/>
    <path d="M 99.369922 114.596575 
C 99.635125 114.596575 99.889502 114.491208 100.077029 114.303681 
C 100.264556 114.116154 100.369922 113.861778 100.369922 113.596575 
C 100.369922 113.331371 100.264556 113.076995 100.077029 112.889468 
C 99.889502 112.701941 99.635125 112.596575 99.369922 112.596575 
C 99.104719 112.596575 98.850342 112.701941 98.662815 112.889468 
C 98.475288 113.076995 98.369922 113.331371 98.369922 113.596575 
C 98.369922 113.861778 98.475288 114.116154 98.662815 114.303681 
C 98.850342 114.491208 99.104719 114.596575 99.369922 114.596575 
z
" clip-path="url(#pefd8403875)" style="stroke: #000000"/>
    <path d="M 97.602931 111.649959 
C 98.048074 111.649959 98.475045 111.473102 98.789808 111.158338 
C 99.104572 110.843575 99.281429 110.416604 99.281429 109.971461 
C 99.281429 109.526318 99.104572 109.099347 98.789808 108.784583 
C 98.475045 108.469819 98.048074 108.292962 97.602931 108.292962 
C 97.157788 108.292962 96.730817 108.469819 96.416053 108.784583 
C 96.10129 109.099347 95.924432 109.526318 95.924432 109.971461 
C 95.924432 110.416604 96.10129 110.843575 96.416053 111.158338 
C 96.730817 111.473102 97.157788 111.649959 97.602931 111.649959 
z
" clip-path="url(#pefd8403875)" style="stroke: #000000"/>
    <path d="M 93.388876 104.807091 
C 93.736071 104.807091 94.069092 104.669149 94.314596 104.423645 
C 94.5601 104.178142 94.698042 103.84512 94.698042 103.497926 
C 94.698042 103.150731 94.5601 102.81771 94.314596 102.572206 
C 94.069092 102.326702 93.736071 102.18876 93.388876 102.18876 
C 93.041682 102.18876 92.708661 102.326702 92.463157 102.572206 
C 92.217653 102.81771 92.079711 103.150731 92.079711 103.497926 
C 92.079711 103.84512 92.217653 104.178142 92.463157 104.423645 
C 92.708661 104.669149 93.041682 104.807091 93.388876 104.807091 
z
" clip-path="url(#pefd8403875)" style="stroke: #000000"/>
    <path d="M 94.031847 97.022492 
C 94.278646 97.022492 94.515371 96.924438 94.689884 96.749924 
C 94.864398 96.575411 94.962452 96.338687 94.962452 96.091887 
C 94.962452 95.845088 94.864398 95.608364 94.689884 95.43385 
C 94.515371 95.259337 94.278646 95.161283 94.031847 95.161283 
C 93.785048 95.161283 93.548324 95.259337 93.37381 95.43385 
C 93.199297 95.608364 93.101242 95.845088 93.101242 96.091887 
C 93.101242 96.338687 93.199297 96.575411 93.37381 96.749924 
C 93.548324 96.924438 93.785048 97.022492 94.031847 97.022492 
z
" clip-path="url(#pefd8403875)" style="stroke: #000000"/>
    <path d="M 92.913204 90.836468 
C 93.087717 90.836468 93.255106 90.767133 93.378506 90.643733 
C 93.501906 90.520334 93.571241 90.352944 93.571241 90.178431 
C 93.571241 90.003917 93.501906 89.836528 93.378506 89.713128 
C 93.255106 89.589729 93.087717 89.520394 92.913204 89.520394 
C 92.73869 89.520394 92.571301 89.589729 92.447901 89.713128 
C 92.324502 89.836528 92.255167 90.003917 92.255167 90.178431 
C 92.255167 90.352944 92.324502 90.520334 92.447901 90.643733 
C 92.571301 90.767133 92.73869 90.836468 92.913204 90.836468 
z
" clip-path="url(#pefd8403875)" style="stroke: #000000"/>
    <path d="M 93.657496 115.932859 
C 93.845023 115.932859 94.024894 115.858354 94.157496 115.725752 
C 94.290097 115.593151 94.364602 115.413279 94.364602 115.225752 
C 94.364602 115.038225 94.290097 114.858354 94.157496 114.725752 
C 94.024894 114.593151 93.845023 114.518645 93.657496 114.518645 
C 93.469969 114.518645 93.290097 114.593151 93.157496 114.725752 
C 93.024894 114.858354 92.950389 115.038225 92.950389 115.225752 
C 92.950389 115.413279 93.024894 115.593151 93.157496 115.725752 
C 93.290097 115.858354 93.469969 115.932859 93.657496 115.932859 
z
" clip-path="url(#pefd8403875)" style="stroke: #000000"/>
    <path d="M 91.949993 111.151531 
C 92.336255 111.151531 92.706748 110.998068 92.979877 110.72494 
C 93.253005 110.451811 93.406468 110.081318 93.406468 109.695056 
C 93.406468 109.308794 93.253005 108.938301 92.979877 108.665172 
C 92.706748 108.392044 92.336255 108.238581 91.949993 108.238581 
C 91.563731 108.238581 91.193238 108.392044 90.92011 108.665172 
C 90.646981 108.938301 90.493518 109.308794 90.493518 109.695056 
C 90.493518 110.081318 90.646981 110.451811 90.92011 110.72494 
C 91.193238 110.998068 91.563731 111.151531 91.949993 111.151531 
z
" clip-path="url(#pefd8403875)" style="stroke: #000000"/>
    <path d="M 80.088996 88.020476 
C 80.582594 88.020476 81.056043 87.824367 81.40507 87.47534 
C 81.754096 87.126313 81.950205 86.652865 81.950205 86.159266 
C 81.950205 85.665668 81.754096 85.192219 81.40507 84.843192 
C 81.056043 84.494165 80.582594 84.298057 80.088996 84.298057 
C 79.595397 84.298057 79.121948 84.494165 78.772921 84.843192 
C 78.423895 85.192219 78.227786 85.665668 78.227786 86.159266 
C 78.227786 86.652865 78.423895 87.126313 78.772921 87.47534 
C 79.121948 87.824367 79.595397 88.020476 80.088996 88.020476 
z
" clip-path="url(#pefd8403875)" style="stroke: #000000"/>
    <path d="M 82.171731 79.610046 
C 82.304332 79.610046 82.431521 79.557363 82.525284 79.4636 
C 82.619048 79.369836 82.671731 79.242648 82.671731 79.110046 
C 82.671731 78.977445 82.619048 78.850256 82.525284 78.756493 
C 82.431521 78.66273 82.304332 78.610046 82.171731 78.610046 
C 82.039129 78.610046 81.911941 78.66273 81.818177 78.756493 
C 81.724414 78.850256 81.671731 78.977445 81.671731 79.110046 
C 81.671731 79.242648 81.724414 79.369836 81.818177 79.4636 
C 81.911941 79.557363 82.039129 79.610046 82.171731 79.610046 
z
" clip-path="url(#pefd8403875)" style="stroke: #000000"/>
    <path d="M 84.894981 120.30611 
C 85.297609 120.30611 85.6838 120.146144 85.9685 119.861444 
C 86.253201 119.576743 86.413166 119.190552 86.413166 118.787925 
C 86.413166 118.385298 86.253201 117.999106 85.9685 117.714406 
C 85.6838 117.429705 85.297609 117.26974 84.894981 117.26974 
C 84.492354 117.26974 84.106163 117.429705 83.821462 117.714406 
C 83.536762 117.999106 83.376796 118.385298 83.376796 118.787925 
C 83.376796 119.190552 83.536762 119.576743 83.821462 119.861444 
C 84.106163 120.146144 84.492354 120.30611 84.894981 120.30611 
z
" clip-path="url(#pefd8403875)" style="stroke: #000000"/>
    <path d="M 83.390685 108.897967 
C 83.878394 108.897967 84.346194 108.704198 84.691057 108.359336 
C 85.03592 108.014473 85.229689 107.546673 85.229689 107.058963 
C 85.229689 106.571253 85.03592 106.103453 84.691057 105.75859 
C 84.346194 105.413728 83.878394 105.219959 83.390685 105.219959 
C 82.902975 105.219959 82.435175 105.413728 82.090312 105.75859 
C 81.745449 106.103453 81.55168 106.571253 81.55168 107.058963 
C 81.55168 107.546673 81.745449 108.014473 82.090312 108.359336 
C 82.435175 108.704198 82.902975 108.897967 83.390685 108.897967 
z
" clip-path="url(#pefd8403875)" style="stroke: #000000"/>
    <path d="M 77.101916 90.086823 
C 77.492139 90.086823 77.866433 89.931785 78.142363 89.655855 
C 78.418293 89.379925 78.573331 89.005632 78.573331 88.615408 
C 78.573331 88.225184 78.418293 87.85089 78.142363 87.57496 
C 77.866433 87.29903 77.492139 87.143992 77.101916 87.143992 
C 76.711692 87.143992 76.337398 87.29903 76.061468 87.57496 
C 75.785538 87.85089 75.6305 88.225184 75.6305 88.615408 
C 75.6305 89.005632 75.785538 89.379925 76.061468 89.655855 
C 76.337398 89.931785 76.711692 90.086823 77.101916 90.086823 
z
" clip-path="url(#pefd8403875)" style="stroke: #000000"/>
    <path d="M 73.635771 83.159824 
C 73.979212 83.159824 74.308632 83.023373 74.551481 82.780524 
C 74.794331 82.537675 74.930781 82.208254 74.930781 81.864814 
C 74.930781 81.521373 74.794331 81.191952 74.551481 80.949103 
C 74.308632 80.706254 73.979212 80.569804 73.635771 80.569804 
C 73.29233 80.569804 72.96291 80.706254 72.720061 80.949103 
C 72.477211 81.191952 72.340761 81.521373 72.340761 81.864814 
C 72.340761 82.208254 72.477211 82.537675 72.720061 82.780524 
C 72.96291 83.023373 73.29233 83.159824 73.635771 83.159824 
z
" clip-path="url(#pefd8403875)" style="stroke: #000000"/>
    <path d="M 72.79435 78.153463 
C 73.017359 78.153463 73.231263 78.064861 73.388954 77.90717 
C 73.546644 77.749479 73.635247 77.535575 73.635247 77.312566 
C 73.635247 77.089558 73.546644 76.875654 73.388954 76.717963 
C 73.231263 76.560272 73.017359 76.47167 72.79435 76.47167 
C 72.571342 76.47167 72.357437 76.560272 72.199747 76.717963 
C 72.042056 76.875654 71.953454 77.089558 71.953454 77.312566 
C 71.953454 77.535575 72.042056 77.749479 72.199747 77.90717 
C 72.357437 78.064861 72.571342 78.153463 72.79435 78.153463 
z
" clip-path="url(#pefd8403875)" style="stroke: #000000"/>
    <path d="M 84.601198 135.610471 
C 85.014085 135.610471 85.410116 135.44643 85.702071 135.154475 
C 85.994025 134.86252 86.158067 134.466489 86.158067 134.053603 
C 86.158067 133.640716 85.994025 133.244685 85.702071 132.95273 
C 85.410116 132.660776 85.014085 132.496734 84.601198 132.496734 
C 84.188312 132.496734 83.792281 132.660776 83.500326 132.95273 
C 83.208371 133.244685 83.04433 133.640716 83.04433 134.053603 
C 83.04433 134.466489 83.208371 134.86252 83.500326 135.154475 
C 83.792281 135.44643 84.188312 135.610471 84.601198 135.610471 
z
" clip-path="url(#pefd8403875)" style="stroke: #000000"/>
    <path d="M 76.953499 117.354985 
C 77.233918 117.354985 77.502888 117.243574 77.701174 117.045288 
C 77.899459 116.847003 78.010871 116.578032 78.010871 116.297614 
C 78.010871 116.017196 77.899459 115.748225 77.701174 115.54994 
C 77.502888 115.351654 77.233918 115.240243 76.953499 115.240243 
C 76.673081 115.240243 76.404111 115.351654 76.205825 115.54994 
C 76.00754 115.748225 75.896128 116.017196 75.896128 116.297614 
C 75.896128 116.578032 76.00754 116.847003 76.205825 117.045288 
C 76.404111 117.243574 76.673081 117.354985 76.953499 117.354985 
z
" clip-path="url(#pefd8403875)" style="stroke: #000000"/>
    <path d="M 71.906731 97.374931 
C 72.122417 97.374931 72.329299 97.289238 72.481812 97.136725 
C 72.634326 96.984211 72.720019 96.77733 72.720019 96.561643 
C 72.720019 96.345957 72.634326 96.139075 72.481812 95.986561 
C 72.329299 95.834048 72.122417 95.748355 71.906731 95.748355 
C 71.691044 95.748355 71.484162 95.834048 71.331649 95.986561 
C 71.179136 96.139075 71.093442 96.345957 71.093442 96.561643 
C 71.093442 96.77733 71.179136 96.984211 71.331649 97.136725 
C 71.484162 97.289238 71.691044 97.374931 71.906731 97.374931 
z
" clip-path="url(#pefd8403875)" style="stroke: #000000"/>
    <path d="M 69.630408 90.048061 
C 70.021926 90.048061 70.397462 89.892509 70.674307 89.615664 
C 70.951152 89.338818 71.106704 88.963283 71.106704 88.571765 
C 71.106704 88.180247 70.951152 87.804711 70.674307 87.527866 
C 70.397462 87.251021 70.021926 87.095469 69.630408 87.095469 
C 69.23889 87.095469 68.863354 87.251021 68.586509 87.527866 
C 68.309664 87.804711 68.154112 88.180247 68.154112 88.571765 
C 68.154112 88.963283 68.309664 89.338818 68.586509 89.615664 
C 68.863354 89.892509 69.23889 90.048061 69.630408 90.048061 
z
" clip-path="url(#pefd8403875)" style="stroke: #000000"/>
    <path d="M 68.66272 84.459457 
C 69.196715 84.459457 69.708912 84.247298 70.086503 83.869706 
C 70.464095 83.492114 70.676254 82.979918 70.676254 82.445923 
C 70.676254 81.911927 70.464095 81.399731 70.086503 81.022139 
C 69.708912 80.644547 69.196715 80.432389 68.66272 80.432389 
C 68.128724 80.432389 67.616528 80.644547 67.238936 81.022139 
C 66.861345 81.399731 66.649186 81.911927 66.649186 82.445923 
C 66.649186 82.979918 66.861345 83.492114 67.238936 83.869706 
C 67.616528 84.247298 68.128724 84.459457 68.66272 84.459457 
z
" clip-path="url(#pefd8403875)" style="stroke: #000000"/>
    <path d="M 64.634285 76.874252 
C 64.907413 76.874252 65.169391 76.765737 65.362522 76.572606 
C 65.555653 76.379475 65.664168 76.117497 65.664168 75.844368 
C 65.664168 75.57124 65.555653 75.309262 65.362522 75.116131 
C 65.169391 74.923 64.907413 74.814485 64.634285 74.814485 
C 64.361156 74.814485 64.099178 74.923 63.906047 75.116131 
C 63.712916 75.309262 63.604401 75.57124 63.604401 75.844368 
C 63.604401 76.117497 63.712916 76.379475 63.906047 76.572606 
C 64.099178 76.765737 64.361156 76.874252 64.634285 76.874252 
z
" clip-path="url(#pefd8403875)" style="stroke: #000000"/>
    <path d="M 80.50191 136.187273 
C 80.634512 136.187273 80.7617 136.13459 80.855464 136.040826 
C 80.949227 135.947063 81.00191 135.819875 81.00191 135.687273 
C 81.00191 135.554672 80.949227 135.427483 80.855464 135.33372 
C 80.7617 135.239956 80.634512 135.187273 80.50191 135.187273 
C 80.369309 135.187273 80.24212 135.239956 80.148357 135.33372 
C 80.054593 135.427483 80.00191 135.554672 80.00191 135.687273 
C 80.00191 135.819875 80.054593 135.947063 80.148357 136.040826 
C 80.24212 136.13459 80.369309 136.187273 80.50191 136.187273 
z
" clip-path="url(#pefd8403875)" style="stroke: #000000"/>
    <path d="M 71.616043 117.989326 
C 72.120223 117.989326 72.60382 117.789014 72.960329 117.432505 
C 73.316838 117.075996 73.51715 116.592399 73.51715 116.088219 
C 73.51715 115.58404 73.316838 115.100442 72.960329 114.743934 
C 72.60382 114.387425 72.120223 114.187112 71.616043 114.187112 
C 71.111864 114.187112 70.628266 114.387425 70.271758 114.743934 
C 69.915249 115.100442 69.714936 115.58404 69.714936 116.088219 
C 69.714936 116.592399 69.915249 117.075996 70.271758 117.432505 
C 70.628266 117.789014 71.111864 117.989326 71.616043 117.989326 
z
" clip-path="url(#pefd8403875)" style="stroke: #000000"/>
    <path d="M 71.226264 109.760358 
C 71.358865 109.760358 71.486054 109.707675 71.579817 109.613912 
C 71.67358 109.520148 71.726264 109.39296 71.726264 109.260358 
C 71.726264 109.127757 71.67358 109.000568 71.579817 108.906805 
C 71.486054 108.813041 71.358865 108.760358 71.226264 108.760358 
C 71.093662 108.760358 70.966474 108.813041 70.87271 108.906805 
C 70.778947 109.000568 70.726264 109.127757 70.726264 109.260358 
C 70.726264 109.39296 70.778947 109.520148 70.87271 109.613912 
C 70.966474 109.707675 71.093662 109.760358 71.226264 109.760358 
z
" clip-path="url(#pefd8403875)" style="stroke: #000000"/>
    <path d="M 68.452467 107.567165 
C 68.975468 107.567165 69.477118 107.359375 69.846936 106.989558 
C 70.216753 106.61974 70.424544 106.11809 70.424544 105.595089 
C 70.424544 105.072088 70.216753 104.570437 69.846936 104.20062 
C 69.477118 103.830802 68.975468 103.623012 68.452467 103.623012 
C 67.929466 103.623012 67.427815 103.830802 67.057998 104.20062 
C 66.68818 104.570437 66.48039 105.072088 66.48039 105.595089 
C 66.48039 106.11809 66.68818 106.61974 67.057998 106.989558 
C 67.427815 107.359375 67.929466 107.567165 68.452467 107.567165 
z
" clip-path="url(#pefd8403875)" style="stroke: #000000"/>
    <path d="M 62.169135 93.859801 
C 62.551308 93.859801 62.917881 93.707962 63.188118 93.437724 
C 63.458356 93.167486 63.610195 92.800914 63.610195 92.41874 
C 63.610195 92.036566 63.458356 91.669994 63.188118 91.399756 
C 62.917881 91.129519 62.551308 90.97768 62.169135 90.97768 
C 61.786961 90.97768 61.420389 91.129519 61.150151 91.399756 
C 60.879913 91.669994 60.728074 92.036566 60.728074 92.41874 
C 60.728074 92.800914 60.879913 93.167486 61.150151 93.437724 
C 61.420389 93.707962 61.786961 93.859801 62.169135 93.859801 
z
" clip-path="url(#pefd8403875)" style="stroke: #000000"/>
    <path d="M 60.870911 87.174284 
C 61.232021 87.174284 61.578389 87.030813 61.833733 86.77547 
C 62.089076 86.520127 62.232546 86.173759 62.232546 85.812649 
C 62.232546 85.451539 62.089076 85.105171 61.833733 84.849828 
C 61.578389 84.594485 61.232021 84.451014 60.870911 84.451014 
C 60.509802 84.451014 60.163433 84.594485 59.90809 84.849828 
C 59.652747 85.105171 59.509277 85.451539 59.509277 85.812649 
C 59.509277 86.173759 59.652747 86.520127 59.90809 86.77547 
C 60.163433 87.030813 60.509802 87.174284 60.870911 87.174284 
z
" clip-path="url(#pefd8403875)" style="stroke: #000000"/>
    <path d="M 58.633446 81.127592 
C 58.935712 81.127592 59.225639 81.007501 59.439374 80.793766 
C 59.653108 80.580032 59.7732 80.290105 59.7732 79.987839 
C 59.7732 79.685573 59.653108 79.395646 59.439374 79.181912 
C 59.225639 78.968177 58.935712 78.848085 58.633446 78.848085 
C 58.33118 78.848085 58.041253 78.968177 57.827519 79.181912 
C 57.613784 79.395646 57.493693 79.685573 57.493693 79.987839 
C 57.493693 80.290105 57.613784 80.580032 57.827519 80.793766 
C 58.041253 81.007501 58.33118 81.127592 58.633446 81.127592 
z
" clip-path="url(#pefd8403875)" style="stroke: #000000"/>
    <path d="M 69.043225 132.651087 
C 69.327084 132.651087 69.599356 132.538309 69.800075 132.33759 
C 70.000794 132.136871 70.113572 131.864599 70.113572 131.58074 
C 70.113572 131.29688 70.000794 131.024609 69.800075 130.82389 
C 69.599356 130.623171 69.327084 130.510392 69.043225 130.510392 
C 68.759365 130.510392 68.487094 130.623171 68.286375 130.82389 
C 68.085656 131.024609 67.972877 131.29688 67.972877 131.58074 
C 67.972877 131.864599 68.085656 132.136871 68.286375 132.33759 
C 68.487094 132.538309 68.759365 132.651087 69.043225 132.651087 
z
" clip-path="url(#pefd8403875)" style="stroke: #000000"/>
    <path d="M 67.344501 125.094539 
C 67.477102 125.094539 67.604291 125.041855 67.698054 124.948092 
C 67.791818 124.854329 67.844501 124.72714 67.844501 124.594539 
C 67.844501 124.461937 67.791818 124.334749 67.698054 124.240985 
C 67.604291 124.147222 67.477102 124.094539 67.344501 124.094539 
C 67.211899 124.094539 67.084711 124.147222 66.990947 124.240985 
C 66.897184 124.334749 66.844501 124.461937 66.844501 124.594539 
C 66.844501 124.72714 66.897184 124.854329 66.990947 124.948092 
C 67.084711 125.041855 67.211899 125.094539 67.344501 125.094539 
z
" clip-path="url(#pefd8403875)" style="stroke: #000000"/>
    <path d="M 65.884838 117.194576 
C 66.059352 117.194576 66.226741 117.125241 66.350141 117.001842 
C 66.47354 116.878442 66.542875 116.711053 66.542875 116.536539 
C 66.542875 116.362026 66.47354 116.194636 66.350141 116.071237 
C 66.226741 115.947837 66.059352 115.878502 65.884838 115.878502 
C 65.710325 115.878502 65.542936 115.947837 65.419536 116.071237 
C 65.296136 116.194636 65.226801 116.362026 65.226801 116.536539 
C 65.226801 116.711053 65.296136 116.878442 65.419536 117.001842 
C 65.542936 117.125241 65.710325 117.194576 65.884838 117.194576 
z
" clip-path="url(#pefd8403875)" style="stroke: #000000"/>
    <path d="M 64.653931 111.078837 
C 64.786532 111.078837 64.913721 111.026154 65.007484 110.932391 
C 65.101248 110.838627 65.153931 110.711439 65.153931 110.578837 
C 65.153931 110.446236 65.101248 110.319047 65.007484 110.225284 
C 64.913721 110.13152 64.786532 110.078837 64.653931 110.078837 
C 64.521329 110.078837 64.394141 110.13152 64.300377 110.225284 
C 64.206614 110.319047 64.153931 110.446236 64.153931 110.578837 
C 64.153931 110.711439 64.206614 110.838627 64.300377 110.932391 
C 64.394141 111.026154 64.521329 111.078837 64.653931 111.078837 
z
" clip-path="url(#pefd8403875)" style="stroke: #000000"/>
    <path d="M 61.729127 108.581514 
C 62.135261 108.581514 62.524815 108.420155 62.811995 108.132975 
C 63.099175 107.845795 63.260534 107.45624 63.260534 107.050107 
C 63.260534 106.643973 63.099175 106.254418 62.811995 105.967238 
C 62.524815 105.680058 62.135261 105.518699 61.729127 105.518699 
C 61.322993 105.518699 60.933438 105.680058 60.646258 105.967238 
C 60.359078 106.254418 60.19772 106.643973 60.19772 107.050107 
C 60.19772 107.45624 60.359078 107.845795 60.646258 108.132975 
C 60.933438 108.420155 61.322993 108.581514 61.729127 108.581514 
z
" clip-path="url(#pefd8403875)" style="stroke: #000000"/>
    <path d="M 57.000413 97.546244 
C 57.423868 97.546244 57.830036 97.378004 58.129464 97.078576 
C 58.428891 96.779148 58.597132 96.37298 58.597132 95.949525 
C 58.597132 95.526071 58.428891 95.119903 58.129464 94.820475 
C 57.830036 94.521047 57.423868 94.352807 57.000413 94.352807 
C 56.576959 94.352807 56.170791 94.521047 55.871363 94.820475 
C 55.571935 95.119903 55.403695 95.526071 55.403695 95.949525 
C 55.403695 96.37298 55.571935 96.779148 55.871363 97.078576 
C 56.170791 97.378004 56.576959 97.546244 57.000413 97.546244 
z
" clip-path="url(#pefd8403875)" style="stroke: #000000"/>
    <path d="M 62.246899 134.117407 
C 62.720699 134.117407 63.175158 133.929164 63.510185 133.594136 
C 63.845213 133.259109 64.033456 132.80465 64.033456 132.33085 
C 64.033456 131.857049 63.845213 131.402591 63.510185 131.067563 
C 63.175158 130.732536 62.720699 130.544293 62.246899 130.544293 
C 61.773098 130.544293 61.31864 130.732536 60.983612 131.067563 
C 60.648584 131.402591 60.460342 131.857049 60.460342 132.33085 
C 60.460342 132.80465 60.648584 133.259109 60.983612 133.594136 
C 61.31864 133.929164 61.773098 134.117407 62.246899 134.117407 
z
" clip-path="url(#pefd8403875)" style="stroke: #000000"/>
    <path d="M 63.257107 128.337285 
C 63.414797 128.337285 63.566051 128.274634 63.677555 128.16313 
C 63.789059 128.051625 63.85171 127.900372 63.85171 127.742681 
C 63.85171 127.584991 63.789059 127.433737 63.677555 127.322233 
C 63.566051 127.210729 63.414797 127.148078 63.257107 127.148078 
C 63.099416 127.148078 62.948163 127.210729 62.836658 127.322233 
C 62.725154 127.433737 62.662503 127.584991 62.662503 127.742681 
C 62.662503 127.900372 62.725154 128.051625 62.836658 128.16313 
C 62.948163 128.274634 63.099416 128.337285 63.257107 128.337285 
z
" clip-path="url(#pefd8403875)" style="stroke: #000000"/>
    <path d="M 60.824216 121.296802 
C 61.317171 121.296802 61.790002 121.100949 62.138573 120.752377 
C 62.487145 120.403806 62.682998 119.930975 62.682998 119.43802 
C 62.682998 118.945066 62.487145 118.472235 62.138573 118.123663 
C 61.790002 117.775092 61.317171 117.579239 60.824216 117.579239 
C 60.331262 117.579239 59.858431 117.775092 59.509859 118.123663 
C 59.161288 118.472235 58.965435 118.945066 58.965435 119.43802 
C 58.965435 119.930975 59.161288 120.403806 59.509859 120.752377 
C 59.858431 121.100949 60.331262 121.296802 60.824216 121.296802 
z
" clip-path="url(#pefd8403875)" style="stroke: #000000"/>
    <path d="M 55.19567 110.669258 
C 55.411356 110.669258 55.618238 110.583565 55.770751 110.431051 
C 55.923265 110.278538 56.008958 110.071656 56.008958 109.85597 
C 56.008958 109.640283 55.923265 109.433401 55.770751 109.280888 
C 55.618238 109.128375 55.411356 109.042681 55.19567 109.042681 
C 54.979983 109.042681 54.773101 109.128375 54.620588 109.280888 
C 54.468074 109.433401 54.382381 109.640283 54.382381 109.85597 
C 54.382381 110.071656 54.468074 110.278538 54.620588 110.431051 
C 54.773101 110.583565 54.979983 110.669258 55.19567 110.669258 
z
" clip-path="url(#pefd8403875)" style="stroke: #000000"/>
    <path d="M 51.261332 103.94011 
C 51.477018 103.94011 51.6839 103.854417 51.836413 103.701903 
C 51.988927 103.54939 52.07462 103.342508 52.07462 103.126822 
C 52.07462 102.911135 51.988927 102.704253 51.836413 102.55174 
C 51.6839 102.399227 51.477018 102.313533 51.261332 102.313533 
C 51.045645 102.313533 50.838763 102.399227 50.68625 102.55174 
C 50.533737 102.704253 50.448043 102.911135 50.448043 103.126822 
C 50.448043 103.342508 50.533737 103.54939 50.68625 103.701903 
C 50.838763 103.854417 51.045645 103.94011 51.261332 103.94011 
z
" clip-path="url(#pefd8403875)" style="stroke: #000000"/>
    <path d="M 47.432461 83.925977 
C 47.565063 83.925977 47.692251 83.873294 47.786014 83.779531 
C 47.879778 83.685767 47.932461 83.558579 47.932461 83.425977 
C 47.932461 83.293376 47.879778 83.166188 47.786014 83.072424 
C 47.692251 82.978661 47.565063 82.925977 47.432461 82.925977 
C 47.29986 82.925977 47.172671 82.978661 47.078908 83.072424 
C 46.985144 83.166188 46.932461 83.293376 46.932461 83.425977 
C 46.932461 83.558579 46.985144 83.685767 47.078908 83.779531 
C 47.172671 83.873294 47.29986 83.925977 47.432461 83.925977 
z
" clip-path="url(#pefd8403875)" style="stroke: #000000"/>
    <path d="M 48.011045 111.403433 
C 48.143646 111.403433 48.270835 111.35075 48.364598 111.256987 
C 48.458362 111.163223 48.511045 111.036035 48.511045 110.903433 
C 48.511045 110.770832 48.458362 110.643643 48.364598 110.54988 
C 48.270835 110.456116 48.143646 110.403433 48.011045 110.403433 
C 47.878443 110.403433 47.751255 110.456116 47.657491 110.54988 
C 47.563728 110.643643 47.511045 110.770832 47.511045 110.903433 
C 47.511045 111.036035 47.563728 111.163223 47.657491 111.256987 
C 47.751255 111.35075 47.878443 111.403433 48.011045 111.403433 
z
" clip-path="url(#pefd8403875)" style="stroke: #000000"/>
   </g>
   <g id="matplotlib.axis_1">
    <g id="xtick_1">
     <g id="line2d_1">
      <defs>
       <path id="m6418056d0c" d="M 0 0 
L 0 3.5 
" style="stroke: #000000; stroke-width: 0.8"/>
      </defs>
      <g>
       <use xlink:href="#m6418056d0c" x="18" y="189" style="stroke: #000000; stroke-width: 0.8"/>
      </g>
     </g>
     <g id="text_1">
      <!-- −10 -->
      <g transform="translate(7.447656 203.598437)scale(0.1 -0.1)">
       <defs>
        <path id="DejaVuSans-2212" d="M 678 2272 
L 4684 2272 
L 4684 1741 
L 678 1741 
L 678 2272 
z
" transform="scale(0.015625)"/>
        <path id="DejaVuSans-31" d="M 794 531 
L 1825 531 
L 1825 4091 
L 703 3866 
L 703 4441 
L 1819 4666 
L 2450 4666 
L 2450 531 
L 3481 531 
L 3481 0 
L 794 0 
L 794 531 
z
" transform="scale(0.015625)"/>
        <path id="DejaVuSans-30" d="M 2034 4250 
Q 1547 4250 1301 3770 
Q 1056 3291 1056 2328 
Q 1056 1369 1301 889 
Q 1547 409 2034 409 
Q 2525 409 2770 889 
Q 3016 1369 3016 2328 
Q 3016 3291 2770 3770 
Q 2525 4250 2034 4250 
z
M 2034 4750 
Q 2819 4750 3233 4129 
Q 3647 3509 3647 2328 
Q 3647 1150 3233 529 
Q 2819 -91 2034 -91 
Q 1250 -91 836 529 
Q 422 1150 422 2328 
Q 422 3509 836 4129 
Q 1250 4750 2034 4750 
z
" transform="scale(0.015625)"/>
       </defs>
       <use xlink:href="#DejaVuSans-2212"/>
       <use xlink:href="#DejaVuSans-31" x="83.789062"/>
       <use xlink:href="#DejaVuSans-30" x="147.412109"/>
      </g>
     </g>
    </g>
    <g id="xtick_2">
     <g id="line2d_2">
      <g>
       <use xlink:href="#m6418056d0c" x="73.8" y="189" style="stroke: #000000; stroke-width: 0.8"/>
      </g>
     </g>
     <g id="text_2">
      <!-- 0 -->
      <g transform="translate(70.61875 203.598437)scale(0.1 -0.1)">
       <use xlink:href="#DejaVuSans-30"/>
      </g>
     </g>
    </g>
    <g id="xtick_3">
     <g id="line2d_3">
      <g>
       <use xlink:href="#m6418056d0c" x="129.6" y="189" style="stroke: #000000; stroke-width: 0.8"/>
      </g>
     </g>
     <g id="text_3">
      <!-- 10 -->
      <g transform="translate(123.2375 203.598437)scale(0.1 -0.1)">
       <use xlink:href="#DejaVuSans-31"/>
       <use xlink:href="#DejaVuSans-30" x="63.623047"/>
      </g>
     </g>
    </g>
   </g>
   <g id="matplotlib.axis_2">
    <g id="ytick_1">
     <g id="line2d_4">
      <defs>
       <path id="m60ecba81b8" d="M 0 0 
L -3.5 0 
" style="stroke: #000000; stroke-width: 0.8"/>
      </defs>
      <g>
       <use xlink:href="#m60ecba81b8" x="18" y="189" style="stroke: #000000; stroke-width: 0.8"/>
      </g>
     </g>
     <g id="text_4">
      <!-- −15 -->
      <g transform="translate(-10.104688 192.799219)scale(0.1 -0.1)">
       <defs>
        <path id="DejaVuSans-35" d="M 691 4666 
L 3169 4666 
L 3169 4134 
L 1269 4134 
L 1269 2991 
Q 1406 3038 1543 3061 
Q 1681 3084 1819 3084 
Q 2600 3084 3056 2656 
Q 3513 2228 3513 1497 
Q 3513 744 3044 326 
Q 2575 -91 1722 -91 
Q 1428 -91 1123 -41 
Q 819 9 494 109 
L 494 744 
Q 775 591 1075 516 
Q 1375 441 1709 441 
Q 2250 441 2565 725 
Q 2881 1009 2881 1497 
Q 2881 1984 2565 2268 
Q 2250 2553 1709 2553 
Q 1456 2553 1204 2497 
Q 953 2441 691 2322 
L 691 4666 
z
" transform="scale(0.015625)"/>
       </defs>
       <use xlink:href="#DejaVuSans-2212"/>
       <use xlink:href="#DejaVuSans-31" x="83.789062"/>
       <use xlink:href="#DejaVuSans-35" x="147.412109"/>
      </g>
     </g>
    </g>
    <g id="ytick_2">
     <g id="line2d_5">
      <g>
       <use xlink:href="#m60ecba81b8" x="18" y="161.82" style="stroke: #000000; stroke-width: 0.8"/>
      </g>
     </g>
     <g id="text_5">
      <!-- −10 -->
      <g transform="translate(-10.104688 165.619219)scale(0.1 -0.1)">
       <use xlink:href="#DejaVuSans-2212"/>
       <use xlink:href="#DejaVuSans-31" x="83.789062"/>
       <use xlink:href="#DejaVuSans-30" x="147.412109"/>
      </g>
     </g>
    </g>
    <g id="ytick_3">
     <g id="line2d_6">
      <g>
       <use xlink:href="#m60ecba81b8" x="18" y="134.64" style="stroke: #000000; stroke-width: 0.8"/>
      </g>
     </g>
     <g id="text_6">
      <!-- −5 -->
      <g transform="translate(-3.742188 138.439219)scale(0.1 -0.1)">
       <use xlink:href="#DejaVuSans-2212"/>
       <use xlink:href="#DejaVuSans-35" x="83.789062"/>
      </g>
     </g>
    </g>
    <g id="ytick_4">
     <g id="line2d_7">
      <g>
       <use xlink:href="#m60ecba81b8" x="18" y="107.46" style="stroke: #000000; stroke-width: 0.8"/>
      </g>
     </g>
     <g id="text_7">
      <!-- 0 -->
      <g transform="translate(4.6375 111.259219)scale(0.1 -0.1)">
       <use xlink:href="#DejaVuSans-30"/>
      </g>
     </g>
    </g>
    <g id="ytick_5">
     <g id="line2d_8">
      <g>
       <use xlink:href="#m60ecba81b8" x="18" y="80.28" style="stroke: #000000; stroke-width: 0.8"/>
      </g>
     </g>
     <g id="text_8">
      <!-- 5 -->
      <g transform="translate(4.6375 84.079219)scale(0.1 -0.1)">
       <use xlink:href="#DejaVuSans-35"/>
      </g>
     </g>
    </g>
    <g id="ytick_6">
     <g id="line2d_9">
      <g>
       <use xlink:href="#m60ecba81b8" x="18" y="53.1" style="stroke: #000000; stroke-width: 0.8"/>
      </g>
     </g>
     <g id="text_9">
      <!-- 10 -->
      <g transform="translate(-1.725 56.899219)scale(0.1 -0.1)">
       <use xlink:href="#DejaVuSans-31"/>
       <use xlink:href="#DejaVuSans-30" x="63.623047"/>
      </g>
     </g>
    </g>
    <g id="ytick_7">
     <g id="line2d_10">
      <g>
       <use xlink:href="#m60ecba81b8" x="18" y="25.92" style="stroke: #000000; stroke-width: 0.8"/>
      </g>
     </g>
     <g id="text_10">
      <!-- 15 -->
      <g transform="translate(-1.725 29.719219)scale(0.1 -0.1)">
       <use xlink:href="#DejaVuSans-31"/>
       <use xlink:href="#DejaVuSans-35" x="63.623047"/>
      </g>
     </g>
    </g>
   </g>
   <g id="patch_3">
    <path d="M 18 189 
L 18 25.92 
" style="fill: none; stroke: #000000; stroke-width: 0.8; stroke-linejoin: miter; stroke-linecap: square"/>
   </g>
   <g id="patch_4">
    <path d="M 129.6 189 
L 129.6 25.92 
" style="fill: none; stroke: #000000; stroke-width: 0.8; stroke-linejoin: miter; stroke-linecap: square"/>
   </g>
   <g id="patch_5">
    <path d="M 18 189 
L 129.6 189 
" style="fill: none; stroke: #000000; stroke-width: 0.8; stroke-linejoin: miter; stroke-linecap: square"/>
   </g>
   <g id="patch_6">
    <path d="M 18 25.92 
L 129.6 25.92 
" style="fill: none; stroke: #000000; stroke-width: 0.8; stroke-linejoin: miter; stroke-linecap: square"/>
   </g>
  </g>
 </g>
 <defs>
  <clipPath id="pefd8403875">
   <rect x="18" y="25.92" width="111.6" height="163.08"/>
  </clipPath>
 </defs>
</svg>
