<?xml version="1.0" encoding="utf-8" standalone="no"?>
<!DOCTYPE svg PUBLIC "-//W3C//DTD SVG 1.1//EN"
  "http://www.w3.org/Graphics/SVG/1.1/DTD/svg11.dtd">
<svg xmlns:xlink="http://www.w3.org/1999/xlink" width="144pt" height="216pt" viewBox="0 0 144 216" xmlns="http://www.w3.org/2000/svg" version="1.1">
 <metadata>
  <rdf:RDF xmlns:dc="http://purl.org/dc/elements/1.1/" xmlns:cc="http://creativecommons.org/ns#" xmlns:rdf="http://www.w3.org/1999/02/22-rdf-syntax-ns#">
   <cc:Work>
    <dc:type rdf:resource="http://purl.org/dc/dcmitype/StillImage"/>
    <dc:date>2022-06-23T14:52:49.732034</dc:date>
    <dc:format>image/svg+xml</dc:format>
    <dc:creator>
     <cc:Agent>
      <dc:title>Matplotlib v3.5.1, https://matplotlib.org/</dc:title>
     </cc:Agent>
    </dc:creator>
   </cc:Work>
  </rdf:RDF>
 </metadata>
 <defs>
  <style type="text/css">*{stroke-linejoin: round; stroke-linecap: butt}</style>
 </defs>
 <g id="figure_1">
  <g id="patch_1">
   <path d="M 0 216 
L 144 216 
L 144 0 
L 0 0 
L 0 216 
z
" style="fill: none"/>
  </g>
  <g id="axes_1">
   <g id="patch_2">
    <path d="M 18 189 
L 129.6 189 
L 129.6 25.92 
L 18 25.92 
z
" style="fill: #ffffff"/>
   </g>
   <g id="PathCollection_1">
    <defs>
     <path id="m48086965f0" d="M 0 2.738613 
C 0.726289 2.738613 1.422928 2.450055 1.936492 1.936492 
C 2.450055 1.422928 2.738613 0.726289 2.738613 0 
C 2.738613 -0.726289 2.450055 -1.422928 1.936492 -1.936492 
C 1.422928 -2.450055 0.726289 -2.738613 0 -2.738613 
C -0.726289 -2.738613 -1.422928 -2.450055 -1.936492 -1.936492 
C -2.450055 -1.422928 -2.738613 -0.726289 -2.738613 0 
C -2.738613 0.726289 -2.450055 1.422928 -1.936492 1.936492 
C -1.422928 2.450055 -0.726289 2.738613 0 2.738613 
z
" style="stroke: #ff0000; stroke-width: 1.75"/>
    </defs>
    <g clip-path="url(#p4947b55b27)">
     <use xlink:href="#m48086965f0" x="80.775" y="83.92143" style="fill: #ff0000; stroke: #ff0000; stroke-width: 1.75"/>
     <use xlink:href="#m48086965f0" x="59.85" y="95.690715" style="fill: #ff0000; stroke: #ff0000; stroke-width: 1.75"/>
     <use xlink:href="#m48086965f0" x="66.825" y="107.46" style="fill: #ff0000; stroke: #ff0000; stroke-width: 1.75"/>
     <use xlink:href="#m48086965f0" x="80.775" y="107.46" style="fill: #ff0000; stroke: #ff0000; stroke-width: 1.75"/>
     <use xlink:href="#m48086965f0" x="94.725" y="107.46" style="fill: #ff0000; stroke: #ff0000; stroke-width: 1.75"/>
     <use xlink:href="#m48086965f0" x="59.85" y="119.229285" style="fill: #ff0000; stroke: #ff0000; stroke-width: 1.75"/>
     <use xlink:href="#m48086965f0" x="80.775" y="130.99857" style="fill: #ff0000; stroke: #ff0000; stroke-width: 1.75"/>
    </g>
   </g>
   <g id="PathCollection_2">
    <defs>
     <path id="C0_0_664ce94462" d="M 0 2.738613 
C 0.726289 2.738613 1.422928 2.450055 1.936492 1.936492 
C 2.450055 1.422928 2.738613 0.726289 2.738613 -0 
C 2.738613 -0.726289 2.450055 -1.422928 1.936492 -1.936492 
C 1.422928 -2.450055 0.726289 -2.738613 0 -2.738613 
C -0.726289 -2.738613 -1.422928 -2.450055 -1.936492 -1.936492 
C -2.450055 -1.422928 -2.738613 -0.726289 -2.738613 0 
C -2.738613 0.726289 -2.450055 1.422928 -1.936492 1.936492 
C -1.422928 2.450055 -0.726289 2.738613 0 2.738613 
z
"/>
    </defs>
    <g clip-path="url(#p4947b55b27)">
     <use xlink:href="#C0_0_664ce94462" x="66.825" y="83.92143" style="fill: none; stroke: #ff0000; stroke-width: 1.75"/>
    </g>
    <g clip-path="url(#p4947b55b27)">
     <use xlink:href="#C0_0_664ce94462" x="73.8" y="95.690715" style="fill: none; stroke: #ff0000; stroke-width: 1.75"/>
    </g>
    <g clip-path="url(#p4947b55b27)">
     <use xlink:href="#C0_0_664ce94462" x="87.75" y="95.690715" style="fill: none; stroke: #ff0000; stroke-width: 1.75"/>
    </g>
    <g clip-path="url(#p4947b55b27)">
     <use xlink:href="#C0_0_664ce94462" x="52.875" y="107.46" style="fill: none; stroke: #ff0000; stroke-width: 1.75"/>
    </g>
    <g clip-path="url(#p4947b55b27)">
     <use xlink:href="#C0_0_664ce94462" x="73.8" y="119.229285" style="fill: none; stroke: #ff0000; stroke-width: 1.75"/>
    </g>
    <g clip-path="url(#p4947b55b27)">
     <use xlink:href="#C0_0_664ce94462" x="87.75" y="119.229285" style="fill: none; stroke: #ff0000; stroke-width: 1.75"/>
    </g>
    <g clip-path="url(#p4947b55b27)">
     <use xlink:href="#C0_0_664ce94462" x="66.825" y="130.99857" style="fill: none; stroke: #ff0000; stroke-width: 1.75"/>
    </g>
   </g>
   <g id="PathCollection_3">
    <path d="M 102.062037 107.010158 
C 102.194639 107.010158 102.321827 106.957475 102.41559 106.863712 
C 102.509354 106.769948 102.562037 106.64276 102.562037 106.510158 
C 102.562037 106.377557 102.509354 106.250368 102.41559 106.156605 
C 102.321827 106.062841 102.194639 106.010158 102.062037 106.010158 
C 101.929435 106.010158 101.802247 106.062841 101.708484 106.156605 
C 101.61472 106.250368 101.562037 106.377557 101.562037 106.510158 
C 101.562037 106.64276 101.61472 106.769948 101.708484 106.863712 
C 101.802247 106.957475 101.929435 107.010158 102.062037 107.010158 
z
" clip-path="url(#p4947b55b27)" style="stroke: #000000"/>
    <path d="M 98.789024 113.728168 
C 99.058278 113.728168 99.316539 113.621192 99.50693 113.430801 
C 99.697321 113.240411 99.804296 112.982149 99.804296 112.712896 
C 99.804296 112.443643 99.697321 112.185381 99.50693 111.994991 
C 99.316539 111.8046 99.058278 111.697624 98.789024 111.697624 
C 98.519771 111.697624 98.26151 111.8046 98.071119 111.994991 
C 97.880728 112.185381 97.773753 112.443643 97.773753 112.712896 
C 97.773753 112.982149 97.880728 113.240411 98.071119 113.430801 
C 98.26151 113.621192 98.519771 113.728168 98.789024 113.728168 
z
" clip-path="url(#p4947b55b27)" style="stroke: #000000"/>
    <path d="M 94.502199 110.19412 
C 95.16441 110.19412 95.799587 109.931021 96.267841 109.462767 
C 96.736095 108.994514 96.999194 108.359336 96.999194 107.697126 
C 96.999194 107.034915 96.736095 106.399737 96.267841 105.931484 
C 95.799587 105.46323 95.16441 105.200131 94.502199 105.200131 
C 93.839989 105.200131 93.204811 105.46323 92.736558 105.931484 
C 92.268304 106.399737 92.005205 107.034915 92.005205 107.697126 
C 92.005205 108.359336 92.268304 108.994514 92.736558 109.462767 
C 93.204811 109.931021 93.839989 110.19412 94.502199 110.19412 
z
" clip-path="url(#p4947b55b27)" style="stroke: #000000"/>
    <path d="M 92.916212 106.230325 
C 93.414249 106.230325 93.891955 106.032453 94.244121 105.680288 
C 94.596286 105.328122 94.794158 104.850416 94.794158 104.352379 
C 94.794158 103.854341 94.596286 103.376635 94.244121 103.02447 
C 93.891955 102.672304 93.414249 102.474432 92.916212 102.474432 
C 92.418174 102.474432 91.940468 102.672304 91.588303 103.02447 
C 91.236137 103.376635 91.038265 103.854341 91.038265 104.352379 
C 91.038265 104.850416 91.236137 105.328122 91.588303 105.680288 
C 91.940468 106.032453 92.418174 106.230325 92.916212 106.230325 
z
" clip-path="url(#p4947b55b27)" style="stroke: #000000"/>
    <path d="M 88.19712 84.484525 
C 88.563056 84.484525 88.914054 84.339137 89.17281 84.080381 
C 89.431566 83.821625 89.576954 83.470627 89.576954 83.10469 
C 89.576954 82.738754 89.431566 82.387756 89.17281 82.129 
C 88.914054 81.870244 88.563056 81.724856 88.19712 81.724856 
C 87.831183 81.724856 87.480186 81.870244 87.221429 82.129 
C 86.962673 82.387756 86.817285 82.738754 86.817285 83.10469 
C 86.817285 83.470627 86.962673 83.821625 87.221429 84.080381 
C 87.480186 84.339137 87.831183 84.484525 88.19712 84.484525 
z
" clip-path="url(#p4947b55b27)" style="stroke: #000000"/>
    <path d="M 84.167287 79.94179 
C 84.440416 79.94179 84.702394 79.833275 84.895525 79.640144 
C 85.088656 79.447013 85.197171 79.185035 85.197171 78.911907 
C 85.197171 78.638778 85.088656 78.3768 84.895525 78.183669 
C 84.702394 77.990538 84.440416 77.882023 84.167287 77.882023 
C 83.894159 77.882023 83.632181 77.990538 83.43905 78.183669 
C 83.245919 78.3768 83.137404 78.638778 83.137404 78.911907 
C 83.137404 79.185035 83.245919 79.447013 83.43905 79.640144 
C 83.632181 79.833275 83.894159 79.94179 84.167287 79.94179 
z
" clip-path="url(#p4947b55b27)" style="stroke: #000000"/>
    <path d="M 91.579617 119.533561 
C 92.045213 119.533561 92.491802 119.348577 92.821029 119.019351 
C 93.150255 118.690125 93.335238 118.243535 93.335238 117.777939 
C 93.335238 117.312343 93.150255 116.865754 92.821029 116.536527 
C 92.491802 116.207301 92.045213 116.022318 91.579617 116.022318 
C 91.11402 116.022318 90.667431 116.207301 90.338205 116.536527 
C 90.008978 116.865754 89.823995 117.312343 89.823995 117.777939 
C 89.823995 118.243535 90.008978 118.690125 90.338205 119.019351 
C 90.667431 119.348577 91.11402 119.533561 91.579617 119.533561 
z
" clip-path="url(#p4947b55b27)" style="stroke: #000000"/>
    <path d="M 90.651267 110.53814 
C 90.82578 110.53814 90.99317 110.468805 91.116569 110.345406 
C 91.239969 110.222006 91.309304 110.054617 91.309304 109.880103 
C 91.309304 109.70559 91.239969 109.5382 91.116569 109.414801 
C 90.99317 109.291401 90.82578 109.222066 90.651267 109.222066 
C 90.476754 109.222066 90.309364 109.291401 90.185965 109.414801 
C 90.062565 109.5382 89.99323 109.70559 89.99323 109.880103 
C 89.99323 110.054617 90.062565 110.222006 90.185965 110.345406 
C 90.309364 110.468805 90.476754 110.53814 90.651267 110.53814 
z
" clip-path="url(#p4947b55b27)" style="stroke: #000000"/>
    <path d="M 83.224922 96.921126 
C 83.471721 96.921126 83.708445 96.823071 83.882959 96.648558 
C 84.057472 96.474044 84.155526 96.23732 84.155526 95.990521 
C 84.155526 95.743722 84.057472 95.506997 83.882959 95.332484 
C 83.708445 95.15797 83.471721 95.059916 83.224922 95.059916 
C 82.978122 95.059916 82.741398 95.15797 82.566885 95.332484 
C 82.392371 95.506997 82.294317 95.743722 82.294317 95.990521 
C 82.294317 96.23732 82.392371 96.474044 82.566885 96.648558 
C 82.741398 96.823071 82.978122 96.921126 83.224922 96.921126 
z
" clip-path="url(#p4947b55b27)" style="stroke: #000000"/>
    <path d="M 85.127702 95.910749 
C 85.683205 95.910749 86.21603 95.690045 86.60883 95.297245 
C 87.00163 94.904446 87.222334 94.37162 87.222334 93.816117 
C 87.222334 93.260614 87.00163 92.727789 86.60883 92.334989 
C 86.21603 91.942189 85.683205 91.721485 85.127702 91.721485 
C 84.572199 91.721485 84.039373 91.942189 83.646574 92.334989 
C 83.253774 92.727789 83.03307 93.260614 83.03307 93.816117 
C 83.03307 94.37162 83.253774 94.904446 83.646574 95.297245 
C 84.039373 95.690045 84.572199 95.910749 85.127702 95.910749 
z
" clip-path="url(#p4947b55b27)" style="stroke: #000000"/>
    <path d="M 79.734091 88.699202 
C 80.354435 88.699202 80.949454 88.452737 81.388104 88.014088 
C 81.826753 87.575438 82.073218 86.980419 82.073218 86.360075 
C 82.073218 85.739731 81.826753 85.144711 81.388104 84.706062 
C 80.949454 84.267413 80.354435 84.020947 79.734091 84.020947 
C 79.113747 84.020947 78.518727 84.267413 78.080078 84.706062 
C 77.641429 85.144711 77.394963 85.739731 77.394963 86.360075 
C 77.394963 86.980419 77.641429 87.575438 78.080078 88.014088 
C 78.518727 88.452737 79.113747 88.699202 79.734091 88.699202 
z
" clip-path="url(#p4947b55b27)" style="stroke: #000000"/>
    <path d="M 78.805993 78.760502 
C 78.938595 78.760502 79.065783 78.707819 79.159547 78.614055 
C 79.25331 78.520292 79.305993 78.393103 79.305993 78.260502 
C 79.305993 78.1279 79.25331 78.000712 79.159547 77.906948 
C 79.065783 77.813185 78.938595 77.760502 78.805993 77.760502 
C 78.673392 77.760502 78.546203 77.813185 78.45244 77.906948 
C 78.358676 78.000712 78.305993 78.1279 78.305993 78.260502 
C 78.305993 78.393103 78.358676 78.520292 78.45244 78.614055 
C 78.546203 78.707819 78.673392 78.760502 78.805993 78.760502 
z
" clip-path="url(#p4947b55b27)" style="stroke: #000000"/>
    <path d="M 91.08786 124.21067 
C 91.467233 124.21067 91.83112 124.059943 92.099378 123.791686 
C 92.367636 123.523428 92.518362 123.159541 92.518362 122.780167 
C 92.518362 122.400794 92.367636 122.036907 92.099378 121.768649 
C 91.83112 121.500391 91.467233 121.349665 91.08786 121.349665 
C 90.708486 121.349665 90.344599 121.500391 90.076341 121.768649 
C 89.808084 122.036907 89.657357 122.400794 89.657357 122.780167 
C 89.657357 123.159541 89.808084 123.523428 90.076341 123.791686 
C 90.344599 124.059943 90.708486 124.21067 91.08786 124.21067 
z
" clip-path="url(#p4947b55b27)" style="stroke: #000000"/>
    <path d="M 85.532232 119.225066 
C 86.057913 119.225066 86.562135 119.016211 86.933848 118.644498 
C 87.305561 118.272785 87.514417 117.768563 87.514417 117.242881 
C 87.514417 116.717199 87.305561 116.212977 86.933848 115.841264 
C 86.562135 115.469551 86.057913 115.260696 85.532232 115.260696 
C 85.00655 115.260696 84.502328 115.469551 84.130615 115.841264 
C 83.758902 116.212977 83.550046 116.717199 83.550046 117.242881 
C 83.550046 117.768563 83.758902 118.272785 84.130615 118.644498 
C 84.502328 119.016211 85.00655 119.225066 85.532232 119.225066 
z
" clip-path="url(#p4947b55b27)" style="stroke: #000000"/>
    <path d="M 84.588058 113.587785 
C 84.972971 113.587785 85.342171 113.434857 85.614346 113.162682 
C 85.886521 112.890507 86.039449 112.521307 86.039449 112.136393 
C 86.039449 111.75148 85.886521 111.382279 85.614346 111.110104 
C 85.342171 110.83793 84.972971 110.685002 84.588058 110.685002 
C 84.203144 110.685002 83.833944 110.83793 83.561769 111.110104 
C 83.289594 111.382279 83.136666 111.75148 83.136666 112.136393 
C 83.136666 112.521307 83.289594 112.890507 83.561769 113.162682 
C 83.833944 113.434857 84.203144 113.587785 84.588058 113.587785 
z
" clip-path="url(#p4947b55b27)" style="stroke: #000000"/>
    <path d="M 82.682966 108.986605 
C 83.251948 108.986605 83.797702 108.760546 84.200033 108.358215 
C 84.602364 107.955884 84.828423 107.41013 84.828423 106.841148 
C 84.828423 106.272166 84.602364 105.726411 84.200033 105.32408 
C 83.797702 104.921749 83.251948 104.69569 82.682966 104.69569 
C 82.113984 104.69569 81.568229 104.921749 81.165898 105.32408 
C 80.763567 105.726411 80.537508 106.272166 80.537508 106.841148 
C 80.537508 107.41013 80.763567 107.955884 81.165898 108.358215 
C 81.568229 108.760546 82.113984 108.986605 82.682966 108.986605 
z
" clip-path="url(#p4947b55b27)" style="stroke: #000000"/>
    <path d="M 78.399909 94.870741 
C 78.767413 94.870741 79.119914 94.724731 79.379778 94.464866 
C 79.639643 94.205002 79.785653 93.852501 79.785653 93.484997 
C 79.785653 93.117494 79.639643 92.764993 79.379778 92.505128 
C 79.119914 92.245264 78.767413 92.099253 78.399909 92.099253 
C 78.032406 92.099253 77.679905 92.245264 77.42004 92.505128 
C 77.160176 92.764993 77.014165 93.117494 77.014165 93.484997 
C 77.014165 93.852501 77.160176 94.205002 77.42004 94.464866 
C 77.679905 94.724731 78.032406 94.870741 78.399909 94.870741 
z
" clip-path="url(#p4947b55b27)" style="stroke: #000000"/>
    <path d="M 78.671917 89.294562 
C 79.088059 89.294562 79.487213 89.129227 79.781469 88.83497 
C 80.075726 88.540713 80.241061 88.141559 80.241061 87.725417 
C 80.241061 87.309275 80.075726 86.910121 79.781469 86.615864 
C 79.487213 86.321608 79.088059 86.156273 78.671917 86.156273 
C 78.255775 86.156273 77.856621 86.321608 77.562364 86.615864 
C 77.268107 86.910121 77.102772 87.309275 77.102772 87.725417 
C 77.102772 88.141559 77.268107 88.540713 77.562364 88.83497 
C 77.856621 89.129227 78.255775 89.294562 78.671917 89.294562 
z
" clip-path="url(#p4947b55b27)" style="stroke: #000000"/>
    <path d="M 83.263385 134.866449 
C 83.821128 134.866449 84.356103 134.644855 84.750488 134.250471 
C 85.144872 133.856086 85.366466 133.321111 85.366466 132.763368 
C 85.366466 132.205624 85.144872 131.670649 84.750488 131.276264 
C 84.356103 130.88188 83.821128 130.660286 83.263385 130.660286 
C 82.705641 130.660286 82.170666 130.88188 81.776282 131.276264 
C 81.381897 131.670649 81.160303 132.205624 81.160303 132.763368 
C 81.160303 133.321111 81.381897 133.856086 81.776282 134.250471 
C 82.170666 134.644855 82.705641 134.866449 83.263385 134.866449 
z
" clip-path="url(#p4947b55b27)" style="stroke: #000000"/>
    <path d="M 81.000921 125.331055 
C 81.133523 125.331055 81.260711 125.278372 81.354475 125.184609 
C 81.448238 125.090845 81.500921 124.963657 81.500921 124.831055 
C 81.500921 124.698454 81.448238 124.571265 81.354475 124.477502 
C 81.260711 124.383738 81.133523 124.331055 81.000921 124.331055 
C 80.86832 124.331055 80.741131 124.383738 80.647368 124.477502 
C 80.553605 124.571265 80.500921 124.698454 80.500921 124.831055 
C 80.500921 124.963657 80.553605 125.090845 80.647368 125.184609 
C 80.741131 125.278372 80.86832 125.331055 81.000921 125.331055 
z
" clip-path="url(#p4947b55b27)" style="stroke: #000000"/>
    <path d="M 76.694809 124.052544 
C 76.869322 124.052544 77.036712 123.983209 77.160111 123.859809 
C 77.283511 123.73641 77.352846 123.56902 77.352846 123.394507 
C 77.352846 123.219993 77.283511 123.052604 77.160111 122.929204 
C 77.036712 122.805805 76.869322 122.73647 76.694809 122.73647 
C 76.520295 122.73647 76.352906 122.805805 76.229506 122.929204 
C 76.106107 123.052604 76.036772 123.219993 76.036772 123.394507 
C 76.036772 123.56902 76.106107 123.73641 76.229506 123.859809 
C 76.352906 123.983209 76.520295 124.052544 76.694809 124.052544 
z
" clip-path="url(#p4947b55b27)" style="stroke: #000000"/>
    <path d="M 76.918908 110.980019 
C 77.312977 110.980019 77.690959 110.823454 77.969608 110.544805 
C 78.248257 110.266156 78.404822 109.888174 78.404822 109.494105 
C 78.404822 109.100036 78.248257 108.722054 77.969608 108.443405 
C 77.690959 108.164757 77.312977 108.008191 76.918908 108.008191 
C 76.524839 108.008191 76.146857 108.164757 75.868208 108.443405 
C 75.589559 108.722054 75.432994 109.100036 75.432994 109.494105 
C 75.432994 109.888174 75.589559 110.266156 75.868208 110.544805 
C 76.146857 110.823454 76.524839 110.980019 76.918908 110.980019 
z
" clip-path="url(#p4947b55b27)" style="stroke: #000000"/>
    <path d="M 75.434302 97.422155 
C 76.075579 97.422155 76.690677 97.167373 77.144128 96.713922 
C 77.597579 96.260471 77.852361 95.645373 77.852361 95.004097 
C 77.852361 94.36282 77.597579 93.747722 77.144128 93.294271 
C 76.690677 92.84082 76.075579 92.586038 75.434302 92.586038 
C 74.793025 92.586038 74.177928 92.84082 73.724476 93.294271 
C 73.271025 93.747722 73.016243 94.36282 73.016243 95.004097 
C 73.016243 95.645373 73.271025 96.260471 73.724476 96.713922 
C 74.177928 97.167373 74.793025 97.422155 75.434302 97.422155 
z
" clip-path="url(#p4947b55b27)" style="stroke: #000000"/>
    <path d="M 70.712485 93.529929 
C 71.178081 93.529929 71.624671 93.344945 71.953897 93.015719 
C 72.283123 92.686493 72.468106 92.239903 72.468106 91.774307 
C 72.468106 91.308711 72.283123 90.862122 71.953897 90.532895 
C 71.624671 90.203669 71.178081 90.018686 70.712485 90.018686 
C 70.246889 90.018686 69.800299 90.203669 69.471073 90.532895 
C 69.141847 90.862122 68.956863 91.308711 68.956863 91.774307 
C 68.956863 92.239903 69.141847 92.686493 69.471073 93.015719 
C 69.800299 93.344945 70.246889 93.529929 70.712485 93.529929 
z
" clip-path="url(#p4947b55b27)" style="stroke: #000000"/>
    <path d="M 66.947754 86.039058 
C 67.540766 86.039058 68.10957 85.803452 68.528893 85.384129 
C 68.948215 84.964806 69.183822 84.396002 69.183822 83.80299 
C 69.183822 83.209978 68.948215 82.641174 68.528893 82.221851 
C 68.10957 81.802528 67.540766 81.566922 66.947754 81.566922 
C 66.354742 81.566922 65.785938 81.802528 65.366615 82.221851 
C 64.947292 82.641174 64.711686 83.209978 64.711686 83.80299 
C 64.711686 84.396002 64.947292 84.964806 65.366615 85.384129 
C 65.785938 85.803452 66.354742 86.039058 66.947754 86.039058 
z
" clip-path="url(#p4947b55b27)" style="stroke: #000000"/>
    <path d="M 78.007494 135.131642 
C 78.533707 135.131642 79.038438 134.922575 79.410527 134.550487 
C 79.782616 134.178398 79.991683 133.673666 79.991683 133.147453 
C 79.991683 132.621241 79.782616 132.116509 79.410527 131.74442 
C 79.038438 131.372332 78.533707 131.163265 78.007494 131.163265 
C 77.481281 131.163265 76.97655 131.372332 76.604461 131.74442 
C 76.232372 132.116509 76.023306 132.621241 76.023306 133.147453 
C 76.023306 133.673666 76.232372 134.178398 76.604461 134.550487 
C 76.97655 134.922575 77.481281 135.131642 78.007494 135.131642 
z
" clip-path="url(#p4947b55b27)" style="stroke: #000000"/>
    <path d="M 77.344779 132.081672 
C 77.78274 132.081672 78.202822 131.907668 78.512507 131.597983 
C 78.822192 131.288298 78.996196 130.868216 78.996196 130.430255 
C 78.996196 129.992294 78.822192 129.572212 78.512507 129.262527 
C 78.202822 128.952842 77.78274 128.778838 77.344779 128.778838 
C 76.906818 128.778838 76.486736 128.952842 76.177051 129.262527 
C 75.867366 129.572212 75.693362 129.992294 75.693362 130.430255 
C 75.693362 130.868216 75.867366 131.288298 76.177051 131.597983 
C 76.486736 131.907668 76.906818 132.081672 77.344779 132.081672 
z
" clip-path="url(#p4947b55b27)" style="stroke: #000000"/>
    <path d="M 74.634208 124.125445 
C 74.991989 124.125445 75.335164 123.983297 75.588154 123.730308 
C 75.841144 123.477318 75.983292 123.134143 75.983292 122.776362 
C 75.983292 122.41858 75.841144 122.075405 75.588154 121.822415 
C 75.335164 121.569426 74.991989 121.427278 74.634208 121.427278 
C 74.276426 121.427278 73.933251 121.569426 73.680261 121.822415 
C 73.427272 122.075405 73.285124 122.41858 73.285124 122.776362 
C 73.285124 123.134143 73.427272 123.477318 73.680261 123.730308 
C 73.933251 123.983297 74.276426 124.125445 74.634208 124.125445 
z
" clip-path="url(#p4947b55b27)" style="stroke: #000000"/>
    <path d="M 72.485386 118.892769 
C 73.053105 118.892769 73.597648 118.667212 73.999086 118.265774 
C 74.400524 117.864336 74.626081 117.319793 74.626081 116.752074 
C 74.626081 116.184355 74.400524 115.639812 73.999086 115.238374 
C 73.597648 114.836936 73.053105 114.611379 72.485386 114.611379 
C 71.917667 114.611379 71.373123 114.836936 70.971686 115.238374 
C 70.570248 115.639812 70.34469 116.184355 70.34469 116.752074 
C 70.34469 117.319793 70.570248 117.864336 70.971686 118.265774 
C 71.373123 118.667212 71.917667 118.892769 72.485386 118.892769 
z
" clip-path="url(#p4947b55b27)" style="stroke: #000000"/>
    <path d="M 69.372522 112.052967 
C 69.753303 112.052967 70.11854 111.901681 70.387793 111.632428 
C 70.657046 111.363175 70.808332 110.997938 70.808332 110.617156 
C 70.808332 110.236375 70.657046 109.871138 70.387793 109.601885 
C 70.11854 109.332632 69.753303 109.181346 69.372522 109.181346 
C 68.99174 109.181346 68.626503 109.332632 68.35725 109.601885 
C 68.087997 109.871138 67.936711 110.236375 67.936711 110.617156 
C 67.936711 110.997938 68.087997 111.363175 68.35725 111.632428 
C 68.626503 111.901681 68.99174 112.052967 69.372522 112.052967 
z
" clip-path="url(#p4947b55b27)" style="stroke: #000000"/>
    <path d="M 66.260288 106.925094 
C 66.778357 106.925094 67.275277 106.719263 67.641607 106.352933 
C 68.007937 105.986603 68.213768 105.489683 68.213768 104.971614 
C 68.213768 104.453545 68.007937 103.956625 67.641607 103.590295 
C 67.275277 103.223965 66.778357 103.018134 66.260288 103.018134 
C 65.742219 103.018134 65.245299 103.223965 64.878969 103.590295 
C 64.512639 103.956625 64.306808 104.453545 64.306808 104.971614 
C 64.306808 105.489683 64.512639 105.986603 64.878969 106.352933 
C 65.245299 106.719263 65.742219 106.925094 66.260288 106.925094 
z
" clip-path="url(#p4947b55b27)" style="stroke: #000000"/>
    <path d="M 59.420825 81.47998 
C 59.595339 81.47998 59.762728 81.410645 59.886128 81.287246 
C 60.009527 81.163846 60.078862 80.996457 60.078862 80.821943 
C 60.078862 80.64743 60.009527 80.48004 59.886128 80.356641 
C 59.762728 80.233241 59.595339 80.163906 59.420825 80.163906 
C 59.246312 80.163906 59.078923 80.233241 58.955523 80.356641 
C 58.832123 80.48004 58.762788 80.64743 58.762788 80.821943 
C 58.762788 80.996457 58.832123 81.163846 58.955523 81.287246 
C 59.078923 81.410645 59.246312 81.47998 59.420825 81.47998 
z
" clip-path="url(#p4947b55b27)" style="stroke: #000000"/>
    <path d="M 69.586454 132.916999 
C 70.179466 132.916999 70.74827 132.681393 71.167593 132.26207 
C 71.586916 131.842747 71.822522 131.273943 71.822522 130.680931 
C 71.822522 130.087919 71.586916 129.519115 71.167593 129.099792 
C 70.74827 128.680469 70.179466 128.444863 69.586454 128.444863 
C 68.993442 128.444863 68.424638 128.680469 68.005315 129.099792 
C 67.585992 129.519115 67.350386 130.087919 67.350386 130.680931 
C 67.350386 131.273943 67.585992 131.842747 68.005315 132.26207 
C 68.424638 132.681393 68.993442 132.916999 69.586454 132.916999 
z
" clip-path="url(#p4947b55b27)" style="stroke: #000000"/>
    <path d="M 68.840551 129.622637 
C 69.228147 129.622637 69.59992 129.468643 69.873992 129.194572 
C 70.148064 128.9205 70.302057 128.548727 70.302057 128.161131 
C 70.302057 127.773535 70.148064 127.401761 69.873992 127.12769 
C 69.59992 126.853618 69.228147 126.699624 68.840551 126.699624 
C 68.452955 126.699624 68.081182 126.853618 67.80711 127.12769 
C 67.533038 127.401761 67.379044 127.773535 67.379044 128.161131 
C 67.379044 128.548727 67.533038 128.9205 67.80711 129.194572 
C 68.081182 129.468643 68.452955 129.622637 68.840551 129.622637 
z
" clip-path="url(#p4947b55b27)" style="stroke: #000000"/>
    <path d="M 68.196208 119.351477 
C 68.492715 119.351477 68.777116 119.233674 68.986778 119.024013 
C 69.196439 118.814351 69.314242 118.529949 69.314242 118.233443 
C 69.314242 117.936937 69.196439 117.652535 68.986778 117.442874 
C 68.777116 117.233212 68.492715 117.115409 68.196208 117.115409 
C 67.899702 117.115409 67.6153 117.233212 67.405639 117.442874 
C 67.195978 117.652535 67.078174 117.936937 67.078174 118.233443 
C 67.078174 118.529949 67.195978 118.814351 67.405639 119.024013 
C 67.6153 119.233674 67.899702 119.351477 68.196208 119.351477 
z
" clip-path="url(#p4947b55b27)" style="stroke: #000000"/>
    <path d="M 60.587575 109.731955 
C 60.953511 109.731955 61.304509 109.586567 61.563265 109.327811 
C 61.822021 109.069055 61.967409 108.718057 61.967409 108.352121 
C 61.967409 107.986184 61.822021 107.635186 61.563265 107.37643 
C 61.304509 107.117674 60.953511 106.972286 60.587575 106.972286 
C 60.221638 106.972286 59.870641 107.117674 59.611885 107.37643 
C 59.353128 107.635186 59.20774 107.986184 59.20774 108.352121 
C 59.20774 108.718057 59.353128 109.069055 59.611885 109.327811 
C 59.870641 109.586567 60.221638 109.731955 60.587575 109.731955 
z
" clip-path="url(#p4947b55b27)" style="stroke: #000000"/>
    <path d="M 56.983817 96.689785 
C 57.55736 96.689785 58.107489 96.461914 58.513044 96.056358 
C 58.9186 95.650802 59.146471 95.100673 59.146471 94.527131 
C 59.146471 93.953588 58.9186 93.403459 58.513044 92.997904 
C 58.107489 92.592348 57.55736 92.364477 56.983817 92.364477 
C 56.410275 92.364477 55.860146 92.592348 55.45459 92.997904 
C 55.049034 93.403459 54.821163 93.953588 54.821163 94.527131 
C 54.821163 95.100673 55.049034 95.650802 55.45459 96.056358 
C 55.860146 96.461914 56.410275 96.689785 56.983817 96.689785 
z
" clip-path="url(#p4947b55b27)" style="stroke: #000000"/>
    <path d="M 63.541309 137.071417 
C 63.67391 137.071417 63.801099 137.018734 63.894862 136.924971 
C 63.988625 136.831207 64.041309 136.704019 64.041309 136.571417 
C 64.041309 136.438816 63.988625 136.311627 63.894862 136.217864 
C 63.801099 136.124101 63.67391 136.071417 63.541309 136.071417 
C 63.408707 136.071417 63.281519 136.124101 63.187755 136.217864 
C 63.093992 136.311627 63.041309 136.438816 63.041309 136.571417 
C 63.041309 136.704019 63.093992 136.831207 63.187755 136.924971 
C 63.281519 137.018734 63.408707 137.071417 63.541309 137.071417 
z
" clip-path="url(#p4947b55b27)" style="stroke: #000000"/>
    <path d="M 60.868576 126.898086 
C 61.145422 126.898086 61.410965 126.788095 61.606724 126.592335 
C 61.802483 126.396576 61.912475 126.131033 61.912475 125.854188 
C 61.912475 125.577342 61.802483 125.311799 61.606724 125.11604 
C 61.410965 124.92028 61.145422 124.810289 60.868576 124.810289 
C 60.591731 124.810289 60.326188 124.92028 60.130428 125.11604 
C 59.934669 125.311799 59.824678 125.577342 59.824678 125.854188 
C 59.824678 126.131033 59.934669 126.396576 60.130428 126.592335 
C 60.326188 126.788095 60.591731 126.898086 60.868576 126.898086 
z
" clip-path="url(#p4947b55b27)" style="stroke: #000000"/>
    <path d="M 57.174877 122.197353 
C 57.734394 122.197353 58.27107 121.975054 58.666709 121.579416 
C 59.062347 121.183778 59.284646 120.647101 59.284646 120.087584 
C 59.284646 119.528067 59.062347 118.991391 58.666709 118.595753 
C 58.27107 118.200114 57.734394 117.977816 57.174877 117.977816 
C 56.61536 117.977816 56.078684 118.200114 55.683046 118.595753 
C 55.287407 118.991391 55.065109 119.528067 55.065109 120.087584 
C 55.065109 120.647101 55.287407 121.183778 55.683046 121.579416 
C 56.078684 121.975054 56.61536 122.197353 57.174877 122.197353 
z
" clip-path="url(#p4947b55b27)" style="stroke: #000000"/>
    <path d="M 54.09081 110.261537 
C 54.63516 110.261537 55.157288 110.045264 55.542202 109.660351 
C 55.927115 109.275437 56.143388 108.753309 56.143388 108.208959 
C 56.143388 107.664609 55.927115 107.142481 55.542202 106.757568 
C 55.157288 106.372654 54.63516 106.156382 54.09081 106.156382 
C 53.54646 106.156382 53.024332 106.372654 52.639419 106.757568 
C 52.254505 107.142481 52.038233 107.664609 52.038233 108.208959 
C 52.038233 108.753309 52.254505 109.275437 52.639419 109.660351 
C 53.024332 110.045264 53.54646 110.261537 54.09081 110.261537 
z
" clip-path="url(#p4947b55b27)" style="stroke: #000000"/>
    <path d="M 49.747189 112.458398 
C 50.200017 112.458398 50.63436 112.278487 50.954558 111.95829 
C 51.274755 111.638092 51.454666 111.20375 51.454666 110.750921 
C 51.454666 110.298093 51.274755 109.863751 50.954558 109.543553 
C 50.63436 109.223355 50.200017 109.043445 49.747189 109.043445 
C 49.294361 109.043445 48.860019 109.223355 48.539821 109.543553 
C 48.219623 109.863751 48.039713 110.298093 48.039713 110.750921 
C 48.039713 111.20375 48.219623 111.638092 48.539821 111.95829 
C 48.860019 112.278487 49.294361 112.458398 49.747189 112.458398 
z
" clip-path="url(#p4947b55b27)" style="stroke: #000000"/>
    <path d="M 47.379607 105.979366 
C 47.684634 105.979366 47.977209 105.858178 48.192895 105.642491 
C 48.408582 105.426805 48.52977 105.13423 48.52977 104.829203 
C 48.52977 104.524176 48.408582 104.231601 48.192895 104.015915 
C 47.977209 103.800228 47.684634 103.67904 47.379607 103.67904 
C 47.07458 103.67904 46.782005 103.800228 46.566319 104.015915 
C 46.350632 104.231601 46.229444 104.524176 46.229444 104.829203 
C 46.229444 105.13423 46.350632 105.426805 46.566319 105.642491 
C 46.782005 105.858178 47.07458 105.979366 47.379607 105.979366 
z
" clip-path="url(#p4947b55b27)" style="stroke: #000000"/>
   </g>
   <g id="matplotlib.axis_1">
    <g id="xtick_1">
     <g id="line2d_1">
      <defs>
       <path id="m702d2b4d34" d="M 0 0 
L 0 3.5 
" style="stroke: #000000; stroke-width: 0.8"/>
      </defs>
      <g>
       <use xlink:href="#m702d2b4d34" x="18" y="189" style="stroke: #000000; stroke-width: 0.8"/>
      </g>
     </g>
     <g id="text_1">
      <!-- −10 -->
      <g transform="translate(7.447656 203.598437)scale(0.1 -0.1)">
       <defs>
        <path id="DejaVuSans-2212" d="M 678 2272 
L 4684 2272 
L 4684 1741 
L 678 1741 
L 678 2272 
z
" transform="scale(0.015625)"/>
        <path id="DejaVuSans-31" d="M 794 531 
L 1825 531 
L 1825 4091 
L 703 3866 
L 703 4441 
L 1819 4666 
L 2450 4666 
L 2450 531 
L 3481 531 
L 3481 0 
L 794 0 
L 794 531 
z
" transform="scale(0.015625)"/>
        <path id="DejaVuSans-30" d="M 2034 4250 
Q 1547 4250 1301 3770 
Q 1056 3291 1056 2328 
Q 1056 1369 1301 889 
Q 1547 409 2034 409 
Q 2525 409 2770 889 
Q 3016 1369 3016 2328 
Q 3016 3291 2770 3770 
Q 2525 4250 2034 4250 
z
M 2034 4750 
Q 2819 4750 3233 4129 
Q 3647 3509 3647 2328 
Q 3647 1150 3233 529 
Q 2819 -91 2034 -91 
Q 1250 -91 836 529 
Q 422 1150 422 2328 
Q 422 3509 836 4129 
Q 1250 4750 2034 4750 
z
" transform="scale(0.015625)"/>
       </defs>
       <use xlink:href="#DejaVuSans-2212"/>
       <use xlink:href="#DejaVuSans-31" x="83.789062"/>
       <use xlink:href="#DejaVuSans-30" x="147.412109"/>
      </g>
     </g>
    </g>
    <g id="xtick_2">
     <g id="line2d_2">
      <g>
       <use xlink:href="#m702d2b4d34" x="73.8" y="189" style="stroke: #000000; stroke-width: 0.8"/>
      </g>
     </g>
     <g id="text_2">
      <!-- 0 -->
      <g transform="translate(70.61875 203.598437)scale(0.1 -0.1)">
       <use xlink:href="#DejaVuSans-30"/>
      </g>
     </g>
    </g>
    <g id="xtick_3">
     <g id="line2d_3">
      <g>
       <use xlink:href="#m702d2b4d34" x="129.6" y="189" style="stroke: #000000; stroke-width: 0.8"/>
      </g>
     </g>
     <g id="text_3">
      <!-- 10 -->
      <g transform="translate(123.2375 203.598437)scale(0.1 -0.1)">
       <use xlink:href="#DejaVuSans-31"/>
       <use xlink:href="#DejaVuSans-30" x="63.623047"/>
      </g>
     </g>
    </g>
   </g>
   <g id="matplotlib.axis_2">
    <g id="ytick_1">
     <g id="line2d_4">
      <defs>
       <path id="mb78cfcd92b" d="M 0 0 
L -3.5 0 
" style="stroke: #000000; stroke-width: 0.8"/>
      </defs>
      <g>
       <use xlink:href="#mb78cfcd92b" x="18" y="189" style="stroke: #000000; stroke-width: 0.8"/>
      </g>
     </g>
     <g id="text_4">
      <!-- −15 -->
      <g transform="translate(-10.104688 192.799219)scale(0.1 -0.1)">
       <defs>
        <path id="DejaVuSans-35" d="M 691 4666 
L 3169 4666 
L 3169 4134 
L 1269 4134 
L 1269 2991 
Q 1406 3038 1543 3061 
Q 1681 3084 1819 3084 
Q 2600 3084 3056 2656 
Q 3513 2228 3513 1497 
Q 3513 744 3044 326 
Q 2575 -91 1722 -91 
Q 1428 -91 1123 -41 
Q 819 9 494 109 
L 494 744 
Q 775 591 1075 516 
Q 1375 441 1709 441 
Q 2250 441 2565 725 
Q 2881 1009 2881 1497 
Q 2881 1984 2565 2268 
Q 2250 2553 1709 2553 
Q 1456 2553 1204 2497 
Q 953 2441 691 2322 
L 691 4666 
z
" transform="scale(0.015625)"/>
       </defs>
       <use xlink:href="#DejaVuSans-2212"/>
       <use xlink:href="#DejaVuSans-31" x="83.789062"/>
       <use xlink:href="#DejaVuSans-35" x="147.412109"/>
      </g>
     </g>
    </g>
    <g id="ytick_2">
     <g id="line2d_5">
      <g>
       <use xlink:href="#mb78cfcd92b" x="18" y="161.82" style="stroke: #000000; stroke-width: 0.8"/>
      </g>
     </g>
     <g id="text_5">
      <!-- −10 -->
      <g transform="translate(-10.104688 165.619219)scale(0.1 -0.1)">
       <use xlink:href="#DejaVuSans-2212"/>
       <use xlink:href="#DejaVuSans-31" x="83.789062"/>
       <use xlink:href="#DejaVuSans-30" x="147.412109"/>
      </g>
     </g>
    </g>
    <g id="ytick_3">
     <g id="line2d_6">
      <g>
       <use xlink:href="#mb78cfcd92b" x="18" y="134.64" style="stroke: #000000; stroke-width: 0.8"/>
      </g>
     </g>
     <g id="text_6">
      <!-- −5 -->
      <g transform="translate(-3.742188 138.439219)scale(0.1 -0.1)">
       <use xlink:href="#DejaVuSans-2212"/>
       <use xlink:href="#DejaVuSans-35" x="83.789062"/>
      </g>
     </g>
    </g>
    <g id="ytick_4">
     <g id="line2d_7">
      <g>
       <use xlink:href="#mb78cfcd92b" x="18" y="107.46" style="stroke: #000000; stroke-width: 0.8"/>
      </g>
     </g>
     <g id="text_7">
      <!-- 0 -->
      <g transform="translate(4.6375 111.259219)scale(0.1 -0.1)">
       <use xlink:href="#DejaVuSans-30"/>
      </g>
     </g>
    </g>
    <g id="ytick_5">
     <g id="line2d_8">
      <g>
       <use xlink:href="#mb78cfcd92b" x="18" y="80.28" style="stroke: #000000; stroke-width: 0.8"/>
      </g>
     </g>
     <g id="text_8">
      <!-- 5 -->
      <g transform="translate(4.6375 84.079219)scale(0.1 -0.1)">
       <use xlink:href="#DejaVuSans-35"/>
      </g>
     </g>
    </g>
    <g id="ytick_6">
     <g id="line2d_9">
      <g>
       <use xlink:href="#mb78cfcd92b" x="18" y="53.1" style="stroke: #000000; stroke-width: 0.8"/>
      </g>
     </g>
     <g id="text_9">
      <!-- 10 -->
      <g transform="translate(-1.725 56.899219)scale(0.1 -0.1)">
       <use xlink:href="#DejaVuSans-31"/>
       <use xlink:href="#DejaVuSans-30" x="63.623047"/>
      </g>
     </g>
    </g>
    <g id="ytick_7">
     <g id="line2d_10">
      <g>
       <use xlink:href="#mb78cfcd92b" x="18" y="25.92" style="stroke: #000000; stroke-width: 0.8"/>
      </g>
     </g>
     <g id="text_10">
      <!-- 15 -->
      <g transform="translate(-1.725 29.719219)scale(0.1 -0.1)">
       <use xlink:href="#DejaVuSans-31"/>
       <use xlink:href="#DejaVuSans-35" x="63.623047"/>
      </g>
     </g>
    </g>
   </g>
   <g id="patch_3">
    <path d="M 18 189 
L 18 25.92 
" style="fill: none; stroke: #000000; stroke-width: 0.8; stroke-linejoin: miter; stroke-linecap: square"/>
   </g>
   <g id="patch_4">
    <path d="M 129.6 189 
L 129.6 25.92 
" style="fill: none; stroke: #000000; stroke-width: 0.8; stroke-linejoin: miter; stroke-linecap: square"/>
   </g>
   <g id="patch_5">
    <path d="M 18 189 
L 129.6 189 
" style="fill: none; stroke: #000000; stroke-width: 0.8; stroke-linejoin: miter; stroke-linecap: square"/>
   </g>
   <g id="patch_6">
    <path d="M 18 25.92 
L 129.6 25.92 
" style="fill: none; stroke: #000000; stroke-width: 0.8; stroke-linejoin: miter; stroke-linecap: square"/>
   </g>
  </g>
 </g>
 <defs>
  <clipPath id="p4947b55b27">
   <rect x="18" y="25.92" width="111.6" height="163.08"/>
  </clipPath>
 </defs>
</svg>
