<?xml version="1.0" encoding="utf-8" standalone="no"?>
<!DOCTYPE svg PUBLIC "-//W3C//DTD SVG 1.1//EN"
  "http://www.w3.org/Graphics/SVG/1.1/DTD/svg11.dtd">
<svg xmlns:xlink="http://www.w3.org/1999/xlink" width="144pt" height="216pt" viewBox="0 0 144 216" xmlns="http://www.w3.org/2000/svg" version="1.1">
 <metadata>
  <rdf:RDF xmlns:dc="http://purl.org/dc/elements/1.1/" xmlns:cc="http://creativecommons.org/ns#" xmlns:rdf="http://www.w3.org/1999/02/22-rdf-syntax-ns#">
   <cc:Work>
    <dc:type rdf:resource="http://purl.org/dc/dcmitype/StillImage"/>
    <dc:date>2022-06-23T14:49:51.581445</dc:date>
    <dc:format>image/svg+xml</dc:format>
    <dc:creator>
     <cc:Agent>
      <dc:title>Matplotlib v3.5.1, https://matplotlib.org/</dc:title>
     </cc:Agent>
    </dc:creator>
   </cc:Work>
  </rdf:RDF>
 </metadata>
 <defs>
  <style type="text/css">*{stroke-linejoin: round; stroke-linecap: butt}</style>
 </defs>
 <g id="figure_1">
  <g id="patch_1">
   <path d="M 0 216 
L 144 216 
L 144 0 
L 0 0 
L 0 216 
z
" style="fill: none"/>
  </g>
  <g id="axes_1">
   <g id="patch_2">
    <path d="M 18 189 
L 129.6 189 
L 129.6 25.92 
L 18 25.92 
z
" style="fill: #ffffff"/>
   </g>
   <g id="PathCollection_1">
    <defs>
     <path id="mdd133f7fce" d="M 0 2.738613 
C 0.726289 2.738613 1.422928 2.450055 1.936492 1.936492 
C 2.450055 1.422928 2.738613 0.726289 2.738613 0 
C 2.738613 -0.726289 2.450055 -1.422928 1.936492 -1.936492 
C 1.422928 -2.450055 0.726289 -2.738613 0 -2.738613 
C -0.726289 -2.738613 -1.422928 -2.450055 -1.936492 -1.936492 
C -2.450055 -1.422928 -2.738613 -0.726289 -2.738613 0 
C -2.738613 0.726289 -2.450055 1.422928 -1.936492 1.936492 
C -1.422928 2.450055 -0.726289 2.738613 0 2.738613 
z
" style="stroke: #ff0000; stroke-width: 1.75"/>
    </defs>
    <g clip-path="url(#p2944aa3601)">
     <use xlink:href="#mdd133f7fce" x="80.775" y="107.46" style="fill: #ff0000; stroke: #ff0000; stroke-width: 1.75"/>
     <use xlink:href="#mdd133f7fce" x="94.725" y="107.46" style="fill: #ff0000; stroke: #ff0000; stroke-width: 1.75"/>
     <use xlink:href="#mdd133f7fce" x="59.85" y="119.229285" style="fill: #ff0000; stroke: #ff0000; stroke-width: 1.75"/>
     <use xlink:href="#mdd133f7fce" x="73.8" y="119.229285" style="fill: #ff0000; stroke: #ff0000; stroke-width: 1.75"/>
     <use xlink:href="#mdd133f7fce" x="87.75" y="119.229285" style="fill: #ff0000; stroke: #ff0000; stroke-width: 1.75"/>
     <use xlink:href="#mdd133f7fce" x="66.825" y="130.99857" style="fill: #ff0000; stroke: #ff0000; stroke-width: 1.75"/>
     <use xlink:href="#mdd133f7fce" x="80.775" y="130.99857" style="fill: #ff0000; stroke: #ff0000; stroke-width: 1.75"/>
    </g>
   </g>
   <g id="PathCollection_2">
    <defs>
     <path id="C0_0_8c99604e04" d="M 0 2.738613 
C 0.726289 2.738613 1.422928 2.450055 1.936492 1.936492 
C 2.450055 1.422928 2.738613 0.726289 2.738613 -0 
C 2.738613 -0.726289 2.450055 -1.422928 1.936492 -1.936492 
C 1.422928 -2.450055 0.726289 -2.738613 0 -2.738613 
C -0.726289 -2.738613 -1.422928 -2.450055 -1.936492 -1.936492 
C -2.450055 -1.422928 -2.738613 -0.726289 -2.738613 0 
C -2.738613 0.726289 -2.450055 1.422928 -1.936492 1.936492 
C -1.422928 2.450055 -0.726289 2.738613 0 2.738613 
z
"/>
    </defs>
    <g clip-path="url(#p2944aa3601)">
     <use xlink:href="#C0_0_8c99604e04" x="66.825" y="83.92143" style="fill: none; stroke: #ff0000; stroke-width: 1.75"/>
    </g>
    <g clip-path="url(#p2944aa3601)">
     <use xlink:href="#C0_0_8c99604e04" x="80.775" y="83.92143" style="fill: none; stroke: #ff0000; stroke-width: 1.75"/>
    </g>
    <g clip-path="url(#p2944aa3601)">
     <use xlink:href="#C0_0_8c99604e04" x="59.85" y="95.690715" style="fill: none; stroke: #ff0000; stroke-width: 1.75"/>
    </g>
    <g clip-path="url(#p2944aa3601)">
     <use xlink:href="#C0_0_8c99604e04" x="73.8" y="95.690715" style="fill: none; stroke: #ff0000; stroke-width: 1.75"/>
    </g>
    <g clip-path="url(#p2944aa3601)">
     <use xlink:href="#C0_0_8c99604e04" x="87.75" y="95.690715" style="fill: none; stroke: #ff0000; stroke-width: 1.75"/>
    </g>
    <g clip-path="url(#p2944aa3601)">
     <use xlink:href="#C0_0_8c99604e04" x="52.875" y="107.46" style="fill: none; stroke: #ff0000; stroke-width: 1.75"/>
    </g>
    <g clip-path="url(#p2944aa3601)">
     <use xlink:href="#C0_0_8c99604e04" x="66.825" y="107.46" style="fill: none; stroke: #ff0000; stroke-width: 1.75"/>
    </g>
   </g>
   <g id="PathCollection_3">
    <path d="M 115.265432 99.892896 
C 115.398033 99.892896 115.525222 99.840213 115.618985 99.74645 
C 115.712749 99.652686 115.765432 99.525498 115.765432 99.392896 
C 115.765432 99.260295 115.712749 99.133106 115.618985 99.039343 
C 115.525222 98.945579 115.398033 98.892896 115.265432 98.892896 
C 115.13283 98.892896 115.005642 98.945579 114.911878 99.039343 
C 114.818115 99.133106 114.765432 99.260295 114.765432 99.392896 
C 114.765432 99.525498 114.818115 99.652686 114.911878 99.74645 
C 115.005642 99.840213 115.13283 99.892896 115.265432 99.892896 
z
" clip-path="url(#p2944aa3601)" style="stroke: #000000"/>
    <path d="M 104.046749 89.526367 
C 104.17935 89.526367 104.306538 89.473683 104.400302 89.37992 
C 104.494065 89.286157 104.546749 89.158968 104.546749 89.026367 
C 104.546749 88.893765 104.494065 88.766577 104.400302 88.672813 
C 104.306538 88.57905 104.17935 88.526367 104.046749 88.526367 
C 103.914147 88.526367 103.786959 88.57905 103.693195 88.672813 
C 103.599432 88.766577 103.546749 88.893765 103.546749 89.026367 
C 103.546749 89.158968 103.599432 89.286157 103.693195 89.37992 
C 103.786959 89.473683 103.914147 89.526367 104.046749 89.526367 
z
" clip-path="url(#p2944aa3601)" style="stroke: #000000"/>
    <path d="M 115.665793 138.642787 
C 115.798394 138.642787 115.925583 138.590103 116.019346 138.49634 
C 116.11311 138.402577 116.165793 138.275388 116.165793 138.142787 
C 116.165793 138.010185 116.11311 137.882997 116.019346 137.789233 
C 115.925583 137.69547 115.798394 137.642787 115.665793 137.642787 
C 115.533191 137.642787 115.406003 137.69547 115.312239 137.789233 
C 115.218476 137.882997 115.165793 138.010185 115.165793 138.142787 
C 115.165793 138.275388 115.218476 138.402577 115.312239 138.49634 
C 115.406003 138.590103 115.533191 138.642787 115.665793 138.642787 
z
" clip-path="url(#p2944aa3601)" style="stroke: #000000"/>
    <path d="M 104.959753 112.715867 
C 105.134266 112.715867 105.301655 112.646532 105.425055 112.523133 
C 105.548455 112.399733 105.61779 112.232344 105.61779 112.05783 
C 105.61779 111.883317 105.548455 111.715927 105.425055 111.592528 
C 105.301655 111.469128 105.134266 111.399793 104.959753 111.399793 
C 104.785239 111.399793 104.61785 111.469128 104.49445 111.592528 
C 104.371051 111.715927 104.301716 111.883317 104.301716 112.05783 
C 104.301716 112.232344 104.371051 112.399733 104.49445 112.523133 
C 104.61785 112.646532 104.785239 112.715867 104.959753 112.715867 
z
" clip-path="url(#p2944aa3601)" style="stroke: #000000"/>
    <path d="M 103.204311 108.091829 
C 103.491491 108.091829 103.766948 107.977731 103.970015 107.774664 
C 104.173082 107.571597 104.28718 107.29614 104.28718 107.00896 
C 104.28718 106.72178 104.173082 106.446324 103.970015 106.243257 
C 103.766948 106.04019 103.491491 105.926092 103.204311 105.926092 
C 102.917131 105.926092 102.641675 106.04019 102.438608 106.243257 
C 102.235541 106.446324 102.121443 106.72178 102.121443 107.00896 
C 102.121443 107.29614 102.235541 107.571597 102.438608 107.774664 
C 102.641675 107.977731 102.917131 108.091829 103.204311 108.091829 
z
" clip-path="url(#p2944aa3601)" style="stroke: #000000"/>
    <path d="M 88.775956 67.135522 
C 88.908557 67.135522 89.035746 67.082839 89.129509 66.989075 
C 89.223273 66.895312 89.275956 66.768123 89.275956 66.635522 
C 89.275956 66.50292 89.223273 66.375732 89.129509 66.281968 
C 89.035746 66.188205 88.908557 66.135522 88.775956 66.135522 
C 88.643354 66.135522 88.516166 66.188205 88.422402 66.281968 
C 88.328639 66.375732 88.275956 66.50292 88.275956 66.635522 
C 88.275956 66.768123 88.328639 66.895312 88.422402 66.989075 
C 88.516166 67.082839 88.643354 67.135522 88.775956 67.135522 
z
" clip-path="url(#p2944aa3601)" style="stroke: #000000"/>
    <path d="M 99.369922 115.005231 
C 99.743502 115.005231 100.101832 114.856806 100.365993 114.592645 
C 100.630154 114.328484 100.778579 113.970155 100.778579 113.596575 
C 100.778579 113.222994 100.630154 112.864665 100.365993 112.600504 
C 100.101832 112.336343 99.743502 112.187918 99.369922 112.187918 
C 98.996342 112.187918 98.638012 112.336343 98.373851 112.600504 
C 98.10969 112.864665 97.961265 113.222994 97.961265 113.596575 
C 97.961265 113.970155 98.10969 114.328484 98.373851 114.592645 
C 98.638012 114.856806 98.996342 115.005231 99.369922 115.005231 
z
" clip-path="url(#p2944aa3601)" style="stroke: #000000"/>
    <path d="M 97.602931 111.712463 
C 98.06465 111.712463 98.507521 111.52902 98.834005 111.202535 
C 99.16049 110.87605 99.343933 110.43318 99.343933 109.971461 
C 99.343933 109.509741 99.16049 109.066871 98.834005 108.740386 
C 98.507521 108.413901 98.06465 108.230458 97.602931 108.230458 
C 97.141212 108.230458 96.698341 108.413901 96.371856 108.740386 
C 96.045371 109.066871 95.861929 109.509741 95.861929 109.971461 
C 95.861929 110.43318 96.045371 110.87605 96.371856 111.202535 
C 96.698341 111.52902 97.141212 111.712463 97.602931 111.712463 
z
" clip-path="url(#p2944aa3601)" style="stroke: #000000"/>
    <path d="M 93.388876 104.964412 
C 93.777793 104.964412 94.150833 104.809894 94.425839 104.534888 
C 94.700844 104.259882 94.855362 103.886842 94.855362 103.497926 
C 94.855362 103.109009 94.700844 102.735969 94.425839 102.460963 
C 94.150833 102.185958 93.777793 102.03144 93.388876 102.03144 
C 92.99996 102.03144 92.62692 102.185958 92.351914 102.460963 
C 92.076909 102.735969 91.92239 103.109009 91.92239 103.497926 
C 91.92239 103.886842 92.076909 104.259882 92.351914 104.534888 
C 92.62692 104.809894 92.99996 104.964412 93.388876 104.964412 
z
" clip-path="url(#p2944aa3601)" style="stroke: #000000"/>
    <path d="M 94.031847 96.981027 
C 94.26765 96.981027 94.493826 96.887342 94.660564 96.720604 
C 94.827301 96.553866 94.920987 96.32769 94.920987 96.091887 
C 94.920987 95.856085 94.827301 95.629908 94.660564 95.463171 
C 94.493826 95.296433 94.26765 95.202748 94.031847 95.202748 
C 93.796045 95.202748 93.569868 95.296433 93.40313 95.463171 
C 93.236393 95.629908 93.142707 95.856085 93.142707 96.091887 
C 93.142707 96.32769 93.236393 96.553866 93.40313 96.720604 
C 93.569868 96.887342 93.796045 96.981027 94.031847 96.981027 
z
" clip-path="url(#p2944aa3601)" style="stroke: #000000"/>
    <path d="M 92.913204 91.338729 
C 93.220918 91.338729 93.516071 91.216472 93.733658 90.998885 
C 93.951245 90.781298 94.073502 90.486145 94.073502 90.178431 
C 94.073502 89.870716 93.951245 89.575563 93.733658 89.357976 
C 93.516071 89.140389 93.220918 89.018133 92.913204 89.018133 
C 92.605489 89.018133 92.310336 89.140389 92.092749 89.357976 
C 91.875162 89.575563 91.752906 89.870716 91.752906 90.178431 
C 91.752906 90.486145 91.875162 90.781298 92.092749 90.998885 
C 92.310336 91.216472 92.605489 91.338729 92.913204 91.338729 
z
" clip-path="url(#p2944aa3601)" style="stroke: #000000"/>
    <path d="M 101.736233 129.38522 
C 101.868834 129.38522 101.996023 129.332537 102.089786 129.238774 
C 102.18355 129.14501 102.236233 129.017822 102.236233 128.88522 
C 102.236233 128.752619 102.18355 128.625431 102.089786 128.531667 
C 101.996023 128.437904 101.868834 128.38522 101.736233 128.38522 
C 101.603631 128.38522 101.476443 128.437904 101.382679 128.531667 
C 101.288916 128.625431 101.236233 128.752619 101.236233 128.88522 
C 101.236233 129.017822 101.288916 129.14501 101.382679 129.238774 
C 101.476443 129.332537 101.603631 129.38522 101.736233 129.38522 
z
" clip-path="url(#p2944aa3601)" style="stroke: #000000"/>
    <path d="M 93.225483 124.204119 
C 93.423769 124.204119 93.61396 124.125339 93.754169 123.98513 
C 93.894378 123.844921 93.973158 123.65473 93.973158 123.456445 
C 93.973158 123.258159 93.894378 123.067968 93.754169 122.927759 
C 93.61396 122.78755 93.423769 122.70877 93.225483 122.70877 
C 93.027198 122.70877 92.837007 122.78755 92.696798 122.927759 
C 92.556589 123.067968 92.477809 123.258159 92.477809 123.456445 
C 92.477809 123.65473 92.556589 123.844921 92.696798 123.98513 
C 92.837007 124.125339 93.027198 124.204119 93.225483 124.204119 
z
" clip-path="url(#p2944aa3601)" style="stroke: #000000"/>
    <path d="M 93.657496 116.066649 
C 93.880504 116.066649 94.094408 115.978047 94.252099 115.820356 
C 94.40979 115.662665 94.498392 115.448761 94.498392 115.225752 
C 94.498392 115.002744 94.40979 114.788839 94.252099 114.631149 
C 94.094408 114.473458 93.880504 114.384856 93.657496 114.384856 
C 93.434487 114.384856 93.220583 114.473458 93.062892 114.631149 
C 92.905201 114.788839 92.816599 115.002744 92.816599 115.225752 
C 92.816599 115.448761 92.905201 115.662665 93.062892 115.820356 
C 93.220583 115.978047 93.434487 116.066649 93.657496 116.066649 
z
" clip-path="url(#p2944aa3601)" style="stroke: #000000"/>
    <path d="M 91.949993 111.436058 
C 92.411712 111.436058 92.854583 111.252615 93.181068 110.926131 
C 93.507552 110.599646 93.690995 110.156775 93.690995 109.695056 
C 93.690995 109.233337 93.507552 108.790466 93.181068 108.463981 
C 92.854583 108.137497 92.411712 107.954054 91.949993 107.954054 
C 91.488274 107.954054 91.045403 108.137497 90.718919 108.463981 
C 90.392434 108.790466 90.208991 109.233337 90.208991 109.695056 
C 90.208991 110.156775 90.392434 110.599646 90.718919 110.926131 
C 91.045403 111.252615 91.488274 111.436058 91.949993 111.436058 
z
" clip-path="url(#p2944aa3601)" style="stroke: #000000"/>
    <path d="M 88.230803 99.443314 
C 88.388494 99.443314 88.539747 99.380663 88.651252 99.269158 
C 88.762756 99.157654 88.825407 99.006401 88.825407 98.84871 
C 88.825407 98.69102 88.762756 98.539766 88.651252 98.428262 
C 88.539747 98.316758 88.388494 98.254107 88.230803 98.254107 
C 88.073113 98.254107 87.921859 98.316758 87.810355 98.428262 
C 87.698851 98.539766 87.6362 98.69102 87.6362 98.84871 
C 87.6362 99.006401 87.698851 99.157654 87.810355 99.269158 
C 87.921859 99.380663 88.073113 99.443314 88.230803 99.443314 
z
" clip-path="url(#p2944aa3601)" style="stroke: #000000"/>
    <path d="M 80.088996 88.039568 
C 80.587657 88.039568 81.065962 87.841447 81.418569 87.48884 
C 81.771177 87.136233 81.969297 86.657928 81.969297 86.159266 
C 81.969297 85.660604 81.771177 85.182299 81.418569 84.829692 
C 81.065962 84.477085 80.587657 84.278965 80.088996 84.278965 
C 79.590334 84.278965 79.112029 84.477085 78.759422 84.829692 
C 78.406814 85.182299 78.208694 85.660604 78.208694 86.159266 
C 78.208694 86.657928 78.406814 87.136233 78.759422 87.48884 
C 79.112029 87.841447 79.590334 88.039568 80.088996 88.039568 
z
" clip-path="url(#p2944aa3601)" style="stroke: #000000"/>
    <path d="M 82.171731 79.610046 
C 82.304332 79.610046 82.431521 79.557363 82.525284 79.4636 
C 82.619048 79.369836 82.671731 79.242648 82.671731 79.110046 
C 82.671731 78.977445 82.619048 78.850256 82.525284 78.756493 
C 82.431521 78.66273 82.304332 78.610046 82.171731 78.610046 
C 82.039129 78.610046 81.911941 78.66273 81.818177 78.756493 
C 81.724414 78.850256 81.671731 78.977445 81.671731 79.110046 
C 81.671731 79.242648 81.724414 79.369836 81.818177 79.4636 
C 81.911941 79.557363 82.039129 79.610046 82.171731 79.610046 
z
" clip-path="url(#p2944aa3601)" style="stroke: #000000"/>
    <path d="M 71.550207 58.927437 
C 71.682809 58.927437 71.809997 58.874754 71.903761 58.78099 
C 71.997524 58.687227 72.050207 58.560038 72.050207 58.427437 
C 72.050207 58.294835 71.997524 58.167647 71.903761 58.073883 
C 71.809997 57.98012 71.682809 57.927437 71.550207 57.927437 
C 71.417606 57.927437 71.290417 57.98012 71.196654 58.073883 
C 71.10289 58.167647 71.050207 58.294835 71.050207 58.427437 
C 71.050207 58.560038 71.10289 58.687227 71.196654 58.78099 
C 71.290417 58.874754 71.417606 58.927437 71.550207 58.927437 
z
" clip-path="url(#p2944aa3601)" style="stroke: #000000"/>
    <path d="M 98.923592 149.039843 
C 99.056194 149.039843 99.183382 148.987159 99.277146 148.893396 
C 99.370909 148.799633 99.423592 148.672444 99.423592 148.539843 
C 99.423592 148.407241 99.370909 148.280053 99.277146 148.186289 
C 99.183382 148.092526 99.056194 148.039843 98.923592 148.039843 
C 98.790991 148.039843 98.663802 148.092526 98.570039 148.186289 
C 98.476275 148.280053 98.423592 148.407241 98.423592 148.539843 
C 98.423592 148.672444 98.476275 148.799633 98.570039 148.893396 
C 98.663802 148.987159 98.790991 149.039843 98.923592 149.039843 
z
" clip-path="url(#p2944aa3601)" style="stroke: #000000"/>
    <path d="M 94.873781 136.894763 
C 95.006383 136.894763 95.133571 136.84208 95.227334 136.748317 
C 95.321098 136.654553 95.373781 136.527365 95.373781 136.394763 
C 95.373781 136.262162 95.321098 136.134973 95.227334 136.04121 
C 95.133571 135.947446 95.006383 135.894763 94.873781 135.894763 
C 94.741179 135.894763 94.613991 135.947446 94.520228 136.04121 
C 94.426464 136.134973 94.373781 136.262162 94.373781 136.394763 
C 94.373781 136.527365 94.426464 136.654553 94.520228 136.748317 
C 94.613991 136.84208 94.741179 136.894763 94.873781 136.894763 
z
" clip-path="url(#p2944aa3601)" style="stroke: #000000"/>
    <path d="M 90.016307 127.725582 
C 90.411633 127.725582 90.790821 127.568517 91.070358 127.28898 
C 91.349896 127.009442 91.506961 126.630254 91.506961 126.234928 
C 91.506961 125.839602 91.349896 125.460415 91.070358 125.180877 
C 90.790821 124.901339 90.411633 124.744275 90.016307 124.744275 
C 89.620981 124.744275 89.241793 124.901339 88.962256 125.180877 
C 88.682718 125.460415 88.525653 125.839602 88.525653 126.234928 
C 88.525653 126.630254 88.682718 127.009442 88.962256 127.28898 
C 89.241793 127.568517 89.620981 127.725582 90.016307 127.725582 
z
" clip-path="url(#p2944aa3601)" style="stroke: #000000"/>
    <path d="M 84.894981 120.33222 
C 85.304533 120.33222 85.697366 120.169504 85.986963 119.879907 
C 86.27656 119.59031 86.439277 119.197477 86.439277 118.787925 
C 86.439277 118.378373 86.27656 117.98554 85.986963 117.695943 
C 85.697366 117.406346 85.304533 117.24363 84.894981 117.24363 
C 84.485429 117.24363 84.092597 117.406346 83.803 117.695943 
C 83.513403 117.98554 83.350686 118.378373 83.350686 118.787925 
C 83.350686 119.197477 83.513403 119.59031 83.803 119.879907 
C 84.092597 120.169504 84.485429 120.33222 84.894981 120.33222 
z
" clip-path="url(#p2944aa3601)" style="stroke: #000000"/>
    <path d="M 85.600715 112.663934 
C 85.842204 112.663934 86.073834 112.567989 86.244593 112.397231 
C 86.415351 112.226473 86.511295 111.994842 86.511295 111.753354 
C 86.511295 111.511865 86.415351 111.280235 86.244593 111.109476 
C 86.073834 110.938718 85.842204 110.842774 85.600715 110.842774 
C 85.359227 110.842774 85.127596 110.938718 84.956838 111.109476 
C 84.78608 111.280235 84.690135 111.511865 84.690135 111.753354 
C 84.690135 111.994842 84.78608 112.226473 84.956838 112.397231 
C 85.127596 112.567989 85.359227 112.663934 85.600715 112.663934 
z
" clip-path="url(#p2944aa3601)" style="stroke: #000000"/>
    <path d="M 83.390685 108.93691 
C 83.888722 108.93691 84.366428 108.739037 84.718594 108.386872 
C 85.070759 108.034706 85.268631 107.557 85.268631 107.058963 
C 85.268631 106.560926 85.070759 106.08322 84.718594 105.731054 
C 84.366428 105.378889 83.888722 105.181016 83.390685 105.181016 
C 82.892647 105.181016 82.414941 105.378889 82.062776 105.731054 
C 81.71061 106.08322 81.512738 106.560926 81.512738 107.058963 
C 81.512738 107.557 81.71061 108.034706 82.062776 108.386872 
C 82.414941 108.739037 82.892647 108.93691 83.390685 108.93691 
z
" clip-path="url(#p2944aa3601)" style="stroke: #000000"/>
    <path d="M 80.615578 101.078468 
C 80.74818 101.078468 80.875368 101.025785 80.969132 100.932021 
C 81.062895 100.838258 81.115578 100.711069 81.115578 100.578468 
C 81.115578 100.445866 81.062895 100.318678 80.969132 100.224914 
C 80.875368 100.131151 80.74818 100.078468 80.615578 100.078468 
C 80.482977 100.078468 80.355788 100.131151 80.262025 100.224914 
C 80.168262 100.318678 80.115578 100.445866 80.115578 100.578468 
C 80.115578 100.711069 80.168262 100.838258 80.262025 100.932021 
C 80.355788 101.025785 80.482977 101.078468 80.615578 101.078468 
z
" clip-path="url(#p2944aa3601)" style="stroke: #000000"/>
    <path d="M 77.101916 90.159703 
C 77.511467 90.159703 77.9043 89.996986 78.193897 89.707389 
C 78.483494 89.417792 78.646211 89.02496 78.646211 88.615408 
C 78.646211 88.205856 78.483494 87.813023 78.193897 87.523426 
C 77.9043 87.233829 77.511467 87.071112 77.101916 87.071112 
C 76.692364 87.071112 76.299531 87.233829 76.009934 87.523426 
C 75.720337 87.813023 75.55762 88.205856 75.55762 88.615408 
C 75.55762 89.02496 75.720337 89.417792 76.009934 89.707389 
C 76.299531 89.996986 76.692364 90.159703 77.101916 90.159703 
z
" clip-path="url(#p2944aa3601)" style="stroke: #000000"/>
    <path d="M 73.635771 83.152568 
C 73.977287 83.152568 74.304862 83.016882 74.546351 82.775394 
C 74.78784 82.533905 74.923526 82.20633 74.923526 81.864814 
C 74.923526 81.523297 74.78784 81.195722 74.546351 80.954233 
C 74.304862 80.712745 73.977287 80.577059 73.635771 80.577059 
C 73.294254 80.577059 72.966679 80.712745 72.725191 80.954233 
C 72.483702 81.195722 72.348016 81.523297 72.348016 81.864814 
C 72.348016 82.20633 72.483702 82.533905 72.725191 82.775394 
C 72.966679 83.016882 73.294254 83.152568 73.635771 83.152568 
z
" clip-path="url(#p2944aa3601)" style="stroke: #000000"/>
    <path d="M 72.79435 78.243171 
C 73.041149 78.243171 73.277874 78.145117 73.452387 77.970603 
C 73.626901 77.79609 73.724955 77.559366 73.724955 77.312566 
C 73.724955 77.065767 73.626901 76.829043 73.452387 76.654529 
C 73.277874 76.480016 73.041149 76.381962 72.79435 76.381962 
C 72.547551 76.381962 72.310827 76.480016 72.136313 76.654529 
C 71.9618 76.829043 71.863745 77.065767 71.863745 77.312566 
C 71.863745 77.559366 71.9618 77.79609 72.136313 77.970603 
C 72.310827 78.145117 72.547551 78.243171 72.79435 78.243171 
z
" clip-path="url(#p2944aa3601)" style="stroke: #000000"/>
    <path d="M 69.133218 69.810233 
C 69.26582 69.810233 69.393008 69.75755 69.486772 69.663786 
C 69.580535 69.570023 69.633218 69.442834 69.633218 69.310233 
C 69.633218 69.177631 69.580535 69.050443 69.486772 68.956679 
C 69.393008 68.862916 69.26582 68.810233 69.133218 68.810233 
C 69.000617 68.810233 68.873428 68.862916 68.779665 68.956679 
C 68.685902 69.050443 68.633218 69.177631 68.633218 69.310233 
C 68.633218 69.442834 68.685902 69.570023 68.779665 69.663786 
C 68.873428 69.75755 69.000617 69.810233 69.133218 69.810233 
z
" clip-path="url(#p2944aa3601)" style="stroke: #000000"/>
    <path d="M 88.246924 140.662272 
C 88.507883 140.662272 88.758188 140.558593 88.942714 140.374067 
C 89.127239 140.189542 89.230919 139.939236 89.230919 139.678278 
C 89.230919 139.417319 89.127239 139.167014 88.942714 138.982488 
C 88.758188 138.797963 88.507883 138.694283 88.246924 138.694283 
C 87.985966 138.694283 87.73566 138.797963 87.551135 138.982488 
C 87.366609 139.167014 87.262929 139.417319 87.262929 139.678278 
C 87.262929 139.939236 87.366609 140.189542 87.551135 140.374067 
C 87.73566 140.558593 87.985966 140.662272 88.246924 140.662272 
z
" clip-path="url(#p2944aa3601)" style="stroke: #000000"/>
    <path d="M 84.601198 135.745164 
C 85.049806 135.745164 85.4801 135.566931 85.797313 135.249717 
C 86.114526 134.932504 86.29276 134.50221 86.29276 134.053603 
C 86.29276 133.604995 86.114526 133.174701 85.797313 132.857488 
C 85.4801 132.540275 85.049806 132.362041 84.601198 132.362041 
C 84.152591 132.362041 83.722297 132.540275 83.405084 132.857488 
C 83.08787 133.174701 82.909637 133.604995 82.909637 134.053603 
C 82.909637 134.50221 83.08787 134.932504 83.405084 135.249717 
C 83.722297 135.566931 84.152591 135.745164 84.601198 135.745164 
z
" clip-path="url(#p2944aa3601)" style="stroke: #000000"/>
    <path d="M 79.120942 127.03224 
C 79.253544 127.03224 79.380732 126.979557 79.474495 126.885794 
C 79.568259 126.79203 79.620942 126.664842 79.620942 126.53224 
C 79.620942 126.399639 79.568259 126.27245 79.474495 126.178687 
C 79.380732 126.084924 79.253544 126.03224 79.120942 126.03224 
C 78.988341 126.03224 78.861152 126.084924 78.767389 126.178687 
C 78.673625 126.27245 78.620942 126.399639 78.620942 126.53224 
C 78.620942 126.664842 78.673625 126.79203 78.767389 126.885794 
C 78.861152 126.979557 78.988341 127.03224 79.120942 127.03224 
z
" clip-path="url(#p2944aa3601)" style="stroke: #000000"/>
    <path d="M 76.953499 118.001943 
C 77.405493 118.001943 77.839035 117.822364 78.158642 117.502757 
C 78.47825 117.183149 78.657829 116.749607 78.657829 116.297614 
C 78.657829 115.845621 78.47825 115.412079 78.158642 115.092471 
C 77.839035 114.772864 77.405493 114.593285 76.953499 114.593285 
C 76.501506 114.593285 76.067964 114.772864 75.748357 115.092471 
C 75.428749 115.412079 75.24917 115.845621 75.24917 116.297614 
C 75.24917 116.749607 75.428749 117.183149 75.748357 117.502757 
C 76.067964 117.822364 76.501506 118.001943 76.953499 118.001943 
z
" clip-path="url(#p2944aa3601)" style="stroke: #000000"/>
    <path d="M 74.736845 108.208373 
C 74.894536 108.208373 75.045789 108.145722 75.157293 108.034218 
C 75.268797 107.922714 75.331448 107.771461 75.331448 107.61377 
C 75.331448 107.456079 75.268797 107.304826 75.157293 107.193322 
C 75.045789 107.081817 74.894536 107.019166 74.736845 107.019166 
C 74.579154 107.019166 74.427901 107.081817 74.316397 107.193322 
C 74.204892 107.304826 74.142241 107.456079 74.142241 107.61377 
C 74.142241 107.771461 74.204892 107.922714 74.316397 108.034218 
C 74.427901 108.145722 74.579154 108.208373 74.736845 108.208373 
z
" clip-path="url(#p2944aa3601)" style="stroke: #000000"/>
    <path d="M 71.906731 97.545638 
C 72.167689 97.545638 72.417995 97.441958 72.60252 97.257433 
C 72.787046 97.072907 72.890726 96.822602 72.890726 96.561643 
C 72.890726 96.300685 72.787046 96.050379 72.60252 95.865854 
C 72.417995 95.681328 72.167689 95.577648 71.906731 95.577648 
C 71.645772 95.577648 71.395467 95.681328 71.210941 95.865854 
C 71.026416 96.050379 70.922736 96.300685 70.922736 96.561643 
C 70.922736 96.822602 71.026416 97.072907 71.210941 97.257433 
C 71.395467 97.441958 71.645772 97.545638 71.906731 97.545638 
z
" clip-path="url(#p2944aa3601)" style="stroke: #000000"/>
    <path d="M 69.630408 90.103172 
C 70.036542 90.103172 70.426096 89.941813 70.713276 89.654633 
C 71.000456 89.367453 71.161815 88.977899 71.161815 88.571765 
C 71.161815 88.165631 71.000456 87.776076 70.713276 87.488896 
C 70.426096 87.201716 70.036542 87.040358 69.630408 87.040358 
C 69.224274 87.040358 68.83472 87.201716 68.54754 87.488896 
C 68.260359 87.776076 68.099001 88.165631 68.099001 88.571765 
C 68.099001 88.977899 68.260359 89.367453 68.54754 89.654633 
C 68.83472 89.941813 69.224274 90.103172 69.630408 90.103172 
z
" clip-path="url(#p2944aa3601)" style="stroke: #000000"/>
    <path d="M 68.66272 84.438064 
C 69.191042 84.438064 69.697796 84.228159 70.071377 83.854579 
C 70.444957 83.480999 70.654861 82.974245 70.654861 82.445923 
C 70.654861 81.917601 70.444957 81.410846 70.071377 81.037266 
C 69.697796 80.663686 69.191042 80.453781 68.66272 80.453781 
C 68.134398 80.453781 67.627643 80.663686 67.254063 81.037266 
C 66.880483 81.410846 66.670579 81.917601 66.670579 82.445923 
C 66.670579 82.974245 66.880483 83.480999 67.254063 83.854579 
C 67.627643 84.228159 68.134398 84.438064 68.66272 84.438064 
z
" clip-path="url(#p2944aa3601)" style="stroke: #000000"/>
    <path d="M 64.634285 76.793783 
C 64.886072 76.793783 65.127581 76.693747 65.305622 76.515706 
C 65.483663 76.337665 65.583699 76.096156 65.583699 75.844368 
C 65.583699 75.592581 65.483663 75.351072 65.305622 75.173031 
C 65.127581 74.99499 64.886072 74.894954 64.634285 74.894954 
C 64.382497 74.894954 64.140988 74.99499 63.962947 75.173031 
C 63.784906 75.351072 63.68487 75.592581 63.68487 75.844368 
C 63.68487 76.096156 63.784906 76.337665 63.962947 76.515706 
C 64.140988 76.693747 64.382497 76.793783 64.634285 76.793783 
z
" clip-path="url(#p2944aa3601)" style="stroke: #000000"/>
    <path d="M 61.448356 71.800214 
C 61.622869 71.800214 61.790258 71.730879 61.913658 71.60748 
C 62.037058 71.48408 62.106393 71.316691 62.106393 71.142177 
C 62.106393 70.967664 62.037058 70.800274 61.913658 70.676875 
C 61.790258 70.553475 61.622869 70.48414 61.448356 70.48414 
C 61.273842 70.48414 61.106453 70.553475 60.983053 70.676875 
C 60.859653 70.800274 60.790319 70.967664 60.790319 71.142177 
C 60.790319 71.316691 60.859653 71.48408 60.983053 71.60748 
C 61.106453 71.730879 61.273842 71.800214 61.448356 71.800214 
z
" clip-path="url(#p2944aa3601)" style="stroke: #000000"/>
    <path d="M 79.337735 146.00108 
C 79.53602 146.00108 79.726211 145.9223 79.866421 145.782091 
C 80.00663 145.641882 80.085409 145.451691 80.085409 145.253406 
C 80.085409 145.05512 80.00663 144.864929 79.866421 144.72472 
C 79.726211 144.584511 79.53602 144.505731 79.337735 144.505731 
C 79.139449 144.505731 78.949258 144.584511 78.809049 144.72472 
C 78.66884 144.864929 78.590061 145.05512 78.590061 145.253406 
C 78.590061 145.451691 78.66884 145.641882 78.809049 145.782091 
C 78.949258 145.9223 79.139449 146.00108 79.337735 146.00108 
z
" clip-path="url(#p2944aa3601)" style="stroke: #000000"/>
    <path d="M 79.005951 142.682193 
C 79.138552 142.682193 79.265741 142.62951 79.359504 142.535746 
C 79.453268 142.441983 79.505951 142.314794 79.505951 142.182193 
C 79.505951 142.049591 79.453268 141.922403 79.359504 141.82864 
C 79.265741 141.734876 79.138552 141.682193 79.005951 141.682193 
C 78.873349 141.682193 78.746161 141.734876 78.652397 141.82864 
C 78.558634 141.922403 78.505951 142.049591 78.505951 142.182193 
C 78.505951 142.314794 78.558634 142.441983 78.652397 142.535746 
C 78.746161 142.62951 78.873349 142.682193 79.005951 142.682193 
z
" clip-path="url(#p2944aa3601)" style="stroke: #000000"/>
    <path d="M 80.50191 137.168401 
C 80.89471 137.168401 81.271475 137.01234 81.549226 136.734589 
C 81.826978 136.456838 81.983039 136.080073 81.983039 135.687273 
C 81.983039 135.294473 81.826978 134.917709 81.549226 134.639957 
C 81.271475 134.362206 80.89471 134.206145 80.50191 134.206145 
C 80.10911 134.206145 79.732346 134.362206 79.454594 134.639957 
C 79.176843 134.917709 79.020782 135.294473 79.020782 135.687273 
C 79.020782 136.080073 79.176843 136.456838 79.454594 136.734589 
C 79.732346 137.01234 80.10911 137.168401 80.50191 137.168401 
z
" clip-path="url(#p2944aa3601)" style="stroke: #000000"/>
    <path d="M 75.250296 132.083702 
C 75.437823 132.083702 75.617694 132.009197 75.750296 131.876596 
C 75.882897 131.743994 75.957402 131.564122 75.957402 131.376596 
C 75.957402 131.189069 75.882897 131.009197 75.750296 130.876596 
C 75.617694 130.743994 75.437823 130.669489 75.250296 130.669489 
C 75.062769 130.669489 74.882897 130.743994 74.750296 130.876596 
C 74.617694 131.009197 74.543189 131.189069 74.543189 131.376596 
C 74.543189 131.564122 74.617694 131.743994 74.750296 131.876596 
C 74.882897 132.009197 75.062769 132.083702 75.250296 132.083702 
z
" clip-path="url(#p2944aa3601)" style="stroke: #000000"/>
    <path d="M 74.975442 123.026811 
C 75.133132 123.026811 75.284386 122.96416 75.39589 122.852656 
C 75.507394 122.741152 75.570045 122.589898 75.570045 122.432208 
C 75.570045 122.274517 75.507394 122.123263 75.39589 122.011759 
C 75.284386 121.900255 75.133132 121.837604 74.975442 121.837604 
C 74.817751 121.837604 74.666498 121.900255 74.554993 122.011759 
C 74.443489 122.123263 74.380838 122.274517 74.380838 122.432208 
C 74.380838 122.589898 74.443489 122.741152 74.554993 122.852656 
C 74.666498 122.96416 74.817751 123.026811 74.975442 123.026811 
z
" clip-path="url(#p2944aa3601)" style="stroke: #000000"/>
    <path d="M 71.616043 117.966166 
C 72.114081 117.966166 72.591787 117.768294 72.943952 117.416128 
C 73.296118 117.063963 73.49399 116.586257 73.49399 116.088219 
C 73.49399 115.590182 73.296118 115.112476 72.943952 114.76031 
C 72.591787 114.408145 72.114081 114.210272 71.616043 114.210272 
C 71.118006 114.210272 70.6403 114.408145 70.288134 114.76031 
C 69.935969 115.112476 69.738097 115.590182 69.738097 116.088219 
C 69.738097 116.586257 69.935969 117.063963 70.288134 117.416128 
C 70.6403 117.768294 71.118006 117.966166 71.616043 117.966166 
z
" clip-path="url(#p2944aa3601)" style="stroke: #000000"/>
    <path d="M 71.226264 110.190963 
C 71.473063 110.190963 71.709787 110.092909 71.884301 109.918395 
C 72.058814 109.743882 72.156868 109.507157 72.156868 109.260358 
C 72.156868 109.013559 72.058814 108.776835 71.884301 108.602321 
C 71.709787 108.427808 71.473063 108.329753 71.226264 108.329753 
C 70.979464 108.329753 70.74274 108.427808 70.568227 108.602321 
C 70.393713 108.776835 70.295659 109.013559 70.295659 109.260358 
C 70.295659 109.507157 70.393713 109.743882 70.568227 109.918395 
C 70.74274 110.092909 70.979464 110.190963 71.226264 110.190963 
z
" clip-path="url(#p2944aa3601)" style="stroke: #000000"/>
    <path d="M 68.452467 107.544363 
C 68.96942 107.544363 69.46527 107.338975 69.830812 106.973434 
C 70.196353 106.607892 70.401741 106.112042 70.401741 105.595089 
C 70.401741 105.078135 70.196353 104.582285 69.830812 104.216743 
C 69.46527 103.851202 68.96942 103.645814 68.452467 103.645814 
C 67.935513 103.645814 67.439663 103.851202 67.074121 104.216743 
C 66.70858 104.582285 66.503192 105.078135 66.503192 105.595089 
C 66.503192 106.112042 66.70858 106.607892 67.074121 106.973434 
C 67.439663 107.338975 67.935513 107.544363 68.452467 107.544363 
z
" clip-path="url(#p2944aa3601)" style="stroke: #000000"/>
    <path d="M 66.643731 99.715159 
C 66.996338 99.715159 67.33455 99.575066 67.583881 99.325736 
C 67.833212 99.076405 67.973305 98.738192 67.973305 98.385585 
C 67.973305 98.032978 67.833212 97.694765 67.583881 97.445434 
C 67.33455 97.196103 66.996338 97.056011 66.643731 97.056011 
C 66.291123 97.056011 65.952911 97.196103 65.70358 97.445434 
C 65.454249 97.694765 65.314157 98.032978 65.314157 98.385585 
C 65.314157 98.738192 65.454249 99.076405 65.70358 99.325736 
C 65.952911 99.575066 66.291123 99.715159 66.643731 99.715159 
z
" clip-path="url(#p2944aa3601)" style="stroke: #000000"/>
    <path d="M 62.169135 93.967261 
C 62.579807 93.967261 62.973715 93.804099 63.264104 93.51371 
C 63.554493 93.22332 63.717655 92.829413 63.717655 92.41874 
C 63.717655 92.008068 63.554493 91.61416 63.264104 91.323771 
C 62.973715 91.033382 62.579807 90.87022 62.169135 90.87022 
C 61.758462 90.87022 61.364555 91.033382 61.074165 91.323771 
C 60.783776 91.61416 60.620614 92.008068 60.620614 92.41874 
C 60.620614 92.829413 60.783776 93.22332 61.074165 93.51371 
C 61.364555 93.804099 61.758462 93.967261 62.169135 93.967261 
z
" clip-path="url(#p2944aa3601)" style="stroke: #000000"/>
    <path d="M 60.870911 87.243152 
C 61.250285 87.243152 61.614172 87.092425 61.88243 86.824167 
C 62.150687 86.555909 62.301414 86.192023 62.301414 85.812649 
C 62.301414 85.433275 62.150687 85.069389 61.88243 84.801131 
C 61.614172 84.532873 61.250285 84.382146 60.870911 84.382146 
C 60.491538 84.382146 60.127651 84.532873 59.859393 84.801131 
C 59.591135 85.069389 59.440409 85.433275 59.440409 85.812649 
C 59.440409 86.192023 59.591135 86.555909 59.859393 86.824167 
C 60.127651 87.092425 60.491538 87.243152 60.870911 87.243152 
z
" clip-path="url(#p2944aa3601)" style="stroke: #000000"/>
    <path d="M 58.633446 81.105873 
C 58.929952 81.105873 59.214354 80.98807 59.424016 80.778408 
C 59.633677 80.568747 59.75148 80.284345 59.75148 79.987839 
C 59.75148 79.691333 59.633677 79.406931 59.424016 79.19727 
C 59.214354 78.987608 58.929952 78.869805 58.633446 78.869805 
C 58.33694 78.869805 58.052538 78.987608 57.842877 79.19727 
C 57.633215 79.406931 57.515412 79.691333 57.515412 79.987839 
C 57.515412 80.284345 57.633215 80.568747 57.842877 80.778408 
C 58.052538 80.98807 58.33694 81.105873 58.633446 81.105873 
z
" clip-path="url(#p2944aa3601)" style="stroke: #000000"/>
    <path d="M 53.699597 63.044356 
C 53.832199 63.044356 53.959387 62.991673 54.053151 62.89791 
C 54.146914 62.804146 54.199597 62.676958 54.199597 62.544356 
C 54.199597 62.411755 54.146914 62.284566 54.053151 62.190803 
C 53.959387 62.09704 53.832199 62.044356 53.699597 62.044356 
C 53.566996 62.044356 53.439808 62.09704 53.346044 62.190803 
C 53.252281 62.284566 53.199597 62.411755 53.199597 62.544356 
C 53.199597 62.676958 53.252281 62.804146 53.346044 62.89791 
C 53.439808 62.991673 53.566996 63.044356 53.699597 63.044356 
z
" clip-path="url(#p2944aa3601)" style="stroke: #000000"/>
    <path d="M 77.678045 150.979372 
C 77.810647 150.979372 77.937835 150.926689 78.031599 150.832926 
C 78.125362 150.739162 78.178045 150.611974 78.178045 150.479372 
C 78.178045 150.346771 78.125362 150.219582 78.031599 150.125819 
C 77.937835 150.032056 77.810647 149.979372 77.678045 149.979372 
C 77.545444 149.979372 77.418255 150.032056 77.324492 150.125819 
C 77.230728 150.219582 77.178045 150.346771 77.178045 150.479372 
C 77.178045 150.611974 77.230728 150.739162 77.324492 150.832926 
C 77.418255 150.926689 77.545444 150.979372 77.678045 150.979372 
z
" clip-path="url(#p2944aa3601)" style="stroke: #000000"/>
    <path d="M 72.761673 146.852226 
C 72.894274 146.852226 73.021463 146.799543 73.115226 146.705779 
C 73.20899 146.612016 73.261673 146.484828 73.261673 146.352226 
C 73.261673 146.219624 73.20899 146.092436 73.115226 145.998673 
C 73.021463 145.904909 72.894274 145.852226 72.761673 145.852226 
C 72.629071 145.852226 72.501883 145.904909 72.408119 145.998673 
C 72.314356 146.092436 72.261673 146.219624 72.261673 146.352226 
C 72.261673 146.484828 72.314356 146.612016 72.408119 146.705779 
C 72.501883 146.799543 72.629071 146.852226 72.761673 146.852226 
z
" clip-path="url(#p2944aa3601)" style="stroke: #000000"/>
    <path d="M 70.053504 138.152695 
C 70.412961 138.152695 70.757744 138.009881 71.011918 137.755707 
C 71.266093 137.501532 71.408907 137.156749 71.408907 136.797292 
C 71.408907 136.437835 71.266093 136.093052 71.011918 135.838878 
C 70.757744 135.584703 70.412961 135.441889 70.053504 135.441889 
C 69.694047 135.441889 69.349264 135.584703 69.095089 135.838878 
C 68.840915 136.093052 68.698101 136.437835 68.698101 136.797292 
C 68.698101 137.156749 68.840915 137.501532 69.095089 137.755707 
C 69.349264 138.009881 69.694047 138.152695 70.053504 138.152695 
z
" clip-path="url(#p2944aa3601)" style="stroke: #000000"/>
    <path d="M 69.043225 132.838173 
C 69.3767 132.838173 69.696562 132.705682 69.932364 132.46988 
C 70.168167 132.234077 70.300658 131.914215 70.300658 131.58074 
C 70.300658 131.247265 70.168167 130.927403 69.932364 130.6916 
C 69.696562 130.455798 69.3767 130.323306 69.043225 130.323306 
C 68.709749 130.323306 68.389887 130.455798 68.154085 130.6916 
C 67.918282 130.927403 67.785791 131.247265 67.785791 131.58074 
C 67.785791 131.914215 67.918282 132.234077 68.154085 132.46988 
C 68.389887 132.705682 68.709749 132.838173 69.043225 132.838173 
z
" clip-path="url(#p2944aa3601)" style="stroke: #000000"/>
    <path d="M 67.344501 126.217472 
C 67.774908 126.217472 68.187744 126.04647 68.492088 125.742126 
C 68.796432 125.437782 68.967434 125.024946 68.967434 124.594539 
C 68.967434 124.164132 68.796432 123.751295 68.492088 123.446951 
C 68.187744 123.142608 67.774908 122.971605 67.344501 122.971605 
C 66.914094 122.971605 66.501257 123.142608 66.196914 123.446951 
C 65.89257 123.751295 65.721567 124.164132 65.721567 124.594539 
C 65.721567 125.024946 65.89257 125.437782 66.196914 125.742126 
C 66.501257 126.04647 66.914094 126.217472 67.344501 126.217472 
z
" clip-path="url(#p2944aa3601)" style="stroke: #000000"/>
    <path d="M 65.884838 117.793973 
C 66.218314 117.793973 66.538175 117.661482 66.773978 117.425679 
C 67.009781 117.189876 67.142272 116.870014 67.142272 116.536539 
C 67.142272 116.203064 67.009781 115.883202 66.773978 115.6474 
C 66.538175 115.411597 66.218314 115.279106 65.884838 115.279106 
C 65.551363 115.279106 65.231501 115.411597 64.995699 115.6474 
C 64.759896 115.883202 64.627405 116.203064 64.627405 116.536539 
C 64.627405 116.870014 64.759896 117.189876 64.995699 117.425679 
C 65.231501 117.661482 65.551363 117.793973 65.884838 117.793973 
z
" clip-path="url(#p2944aa3601)" style="stroke: #000000"/>
    <path d="M 64.653931 111.078837 
C 64.786532 111.078837 64.913721 111.026154 65.007484 110.932391 
C 65.101248 110.838627 65.153931 110.711439 65.153931 110.578837 
C 65.153931 110.446236 65.101248 110.319047 65.007484 110.225284 
C 64.913721 110.13152 64.786532 110.078837 64.653931 110.078837 
C 64.521329 110.078837 64.394141 110.13152 64.300377 110.225284 
C 64.206614 110.319047 64.153931 110.446236 64.153931 110.578837 
C 64.153931 110.711439 64.206614 110.838627 64.300377 110.932391 
C 64.394141 111.026154 64.521329 111.078837 64.653931 111.078837 
z
" clip-path="url(#p2944aa3601)" style="stroke: #000000"/>
    <path d="M 61.729127 108.718604 
C 62.171617 108.718604 62.596044 108.5428 62.908932 108.229912 
C 63.22182 107.917024 63.397624 107.492597 63.397624 107.050107 
C 63.397624 106.607616 63.22182 106.183189 62.908932 105.870301 
C 62.596044 105.557413 62.171617 105.38161 61.729127 105.38161 
C 61.286636 105.38161 60.862209 105.557413 60.549321 105.870301 
C 60.236433 106.183189 60.06063 106.607616 60.06063 107.050107 
C 60.06063 107.492597 60.236433 107.917024 60.549321 108.229912 
C 60.862209 108.5428 61.286636 108.718604 61.729127 108.718604 
z
" clip-path="url(#p2944aa3601)" style="stroke: #000000"/>
    <path d="M 56.626926 103.802331 
C 57.02473 103.802331 57.406296 103.644281 57.687586 103.362991 
C 57.968876 103.081701 58.126926 102.700136 58.126926 102.302331 
C 58.126926 101.904526 57.968876 101.522961 57.687586 101.241671 
C 57.406296 100.96038 57.02473 100.802331 56.626926 100.802331 
C 56.229121 100.802331 55.847556 100.96038 55.566266 101.241671 
C 55.284975 101.522961 55.126926 101.904526 55.126926 102.302331 
C 55.126926 102.700136 55.284975 103.081701 55.566266 103.362991 
C 55.847556 103.644281 56.229121 103.802331 56.626926 103.802331 
z
" clip-path="url(#p2944aa3601)" style="stroke: #000000"/>
    <path d="M 57.000413 97.59396 
C 57.436522 97.59396 57.854828 97.420692 58.163204 97.112316 
C 58.471579 96.80394 58.644847 96.385634 58.644847 95.949525 
C 58.644847 95.513416 58.471579 95.095111 58.163204 94.786735 
C 57.854828 94.478359 57.436522 94.305091 57.000413 94.305091 
C 56.564304 94.305091 56.145998 94.478359 55.837623 94.786735 
C 55.529247 95.095111 55.355979 95.513416 55.355979 95.949525 
C 55.355979 96.385634 55.529247 96.80394 55.837623 97.112316 
C 56.145998 97.420692 56.564304 97.59396 57.000413 97.59396 
z
" clip-path="url(#p2944aa3601)" style="stroke: #000000"/>
    <path d="M 51.399268 76.026725 
C 51.573781 76.026725 51.741171 75.95739 51.86457 75.83399 
C 51.98797 75.710591 52.057305 75.543201 52.057305 75.368688 
C 52.057305 75.194174 51.98797 75.026785 51.86457 74.903385 
C 51.741171 74.779986 51.573781 74.710651 51.399268 74.710651 
C 51.224754 74.710651 51.057365 74.779986 50.933965 74.903385 
C 50.810566 75.026785 50.741231 75.194174 50.741231 75.368688 
C 50.741231 75.543201 50.810566 75.710591 50.933965 75.83399 
C 51.057365 75.95739 51.224754 76.026725 51.399268 76.026725 
z
" clip-path="url(#p2944aa3601)" style="stroke: #000000"/>
    <path d="M 68.56346 144.446378 
C 68.793132 144.446378 69.013429 144.355129 69.175832 144.192725 
C 69.338235 144.030322 69.429485 143.810026 69.429485 143.580353 
C 69.429485 143.35068 69.338235 143.130384 69.175832 142.967981 
C 69.013429 142.805578 68.793132 142.714328 68.56346 142.714328 
C 68.333787 142.714328 68.11349 142.805578 67.951087 142.967981 
C 67.788684 143.130384 67.697434 143.35068 67.697434 143.580353 
C 67.697434 143.810026 67.788684 144.030322 67.951087 144.192725 
C 68.11349 144.355129 68.333787 144.446378 68.56346 144.446378 
z
" clip-path="url(#p2944aa3601)" style="stroke: #000000"/>
    <path d="M 65.776765 140.680581 
C 65.934455 140.680581 66.085709 140.617929 66.197213 140.506425 
C 66.308717 140.394921 66.371368 140.243668 66.371368 140.085977 
C 66.371368 139.928286 66.308717 139.777033 66.197213 139.665529 
C 66.085709 139.554025 65.934455 139.491373 65.776765 139.491373 
C 65.619074 139.491373 65.467821 139.554025 65.356317 139.665529 
C 65.244812 139.777033 65.182161 139.928286 65.182161 140.085977 
C 65.182161 140.243668 65.244812 140.394921 65.356317 140.506425 
C 65.467821 140.617929 65.619074 140.680581 65.776765 140.680581 
z
" clip-path="url(#p2944aa3601)" style="stroke: #000000"/>
    <path d="M 62.246899 134.141573 
C 62.727108 134.141573 63.187714 133.950784 63.527273 133.611225 
C 63.866833 133.271665 64.057622 132.811059 64.057622 132.33085 
C 64.057622 131.85064 63.866833 131.390034 63.527273 131.050475 
C 63.187714 130.710916 62.727108 130.520126 62.246899 130.520126 
C 61.766689 130.520126 61.306083 130.710916 60.966524 131.050475 
C 60.626964 131.390034 60.436175 131.85064 60.436175 132.33085 
C 60.436175 132.811059 60.626964 133.271665 60.966524 133.611225 
C 61.306083 133.950784 61.766689 134.141573 62.246899 134.141573 
z
" clip-path="url(#p2944aa3601)" style="stroke: #000000"/>
    <path d="M 63.257107 129.242681 
C 63.654911 129.242681 64.036476 129.084632 64.317767 128.803342 
C 64.599057 128.522051 64.757107 128.140486 64.757107 127.742681 
C 64.757107 127.344877 64.599057 126.963312 64.317767 126.682021 
C 64.036476 126.400731 63.654911 126.242681 63.257107 126.242681 
C 62.859302 126.242681 62.477737 126.400731 62.196447 126.682021 
C 61.915156 126.963312 61.757107 127.344877 61.757107 127.742681 
C 61.757107 128.140486 61.915156 128.522051 62.196447 128.803342 
C 62.477737 129.084632 62.859302 129.242681 63.257107 129.242681 
z
" clip-path="url(#p2944aa3601)" style="stroke: #000000"/>
    <path d="M 60.824216 121.341397 
C 61.328998 121.341397 61.813173 121.140846 62.170107 120.783911 
C 62.527042 120.426977 62.727593 119.942802 62.727593 119.43802 
C 62.727593 118.933239 62.527042 118.449064 62.170107 118.09213 
C 61.813173 117.735195 61.328998 117.534643 60.824216 117.534643 
C 60.319435 117.534643 59.83526 117.735195 59.478325 118.09213 
C 59.121391 118.449064 58.920839 118.933239 58.920839 119.43802 
C 58.920839 119.942802 59.121391 120.426977 59.478325 120.783911 
C 59.83526 121.140846 60.319435 121.341397 60.824216 121.341397 
z
" clip-path="url(#p2944aa3601)" style="stroke: #000000"/>
    <path d="M 55.19567 110.669258 
C 55.411356 110.669258 55.618238 110.583565 55.770751 110.431051 
C 55.923265 110.278538 56.008958 110.071656 56.008958 109.85597 
C 56.008958 109.640283 55.923265 109.433401 55.770751 109.280888 
C 55.618238 109.128375 55.411356 109.042681 55.19567 109.042681 
C 54.979983 109.042681 54.773101 109.128375 54.620588 109.280888 
C 54.468074 109.433401 54.382381 109.640283 54.382381 109.85597 
C 54.382381 110.071656 54.468074 110.278538 54.620588 110.431051 
C 54.773101 110.583565 54.979983 110.669258 55.19567 110.669258 
z
" clip-path="url(#p2944aa3601)" style="stroke: #000000"/>
    <path d="M 51.261332 104.573076 
C 51.644883 104.573076 52.012776 104.420689 52.283988 104.149478 
C 52.555199 103.878266 52.707585 103.510373 52.707585 103.126822 
C 52.707585 102.743271 52.555199 102.375377 52.283988 102.104166 
C 52.012776 101.832954 51.644883 101.680568 51.261332 101.680568 
C 50.877781 101.680568 50.509887 101.832954 50.238676 102.104166 
C 49.967464 102.375377 49.815078 102.743271 49.815078 103.126822 
C 49.815078 103.510373 49.967464 103.878266 50.238676 104.149478 
C 50.509887 104.420689 50.877781 104.573076 51.261332 104.573076 
z
" clip-path="url(#p2944aa3601)" style="stroke: #000000"/>
    <path d="M 47.380709 88.849962 
C 47.555223 88.849962 47.722612 88.780627 47.846012 88.657227 
C 47.969412 88.533827 48.038746 88.366438 48.038746 88.191925 
C 48.038746 88.017411 47.969412 87.850022 47.846012 87.726622 
C 47.722612 87.603223 47.555223 87.533888 47.380709 87.533888 
C 47.206196 87.533888 47.038807 87.603223 46.915407 87.726622 
C 46.792007 87.850022 46.722672 88.017411 46.722672 88.191925 
C 46.722672 88.366438 46.792007 88.533827 46.915407 88.657227 
C 47.038807 88.780627 47.206196 88.849962 47.380709 88.849962 
z
" clip-path="url(#p2944aa3601)" style="stroke: #000000"/>
    <path d="M 39.251413 68.642292 
C 39.384015 68.642292 39.511203 68.589609 39.604966 68.495845 
C 39.69873 68.402082 39.751413 68.274893 39.751413 68.142292 
C 39.751413 68.00969 39.69873 67.882502 39.604966 67.788738 
C 39.511203 67.694975 39.384015 67.642292 39.251413 67.642292 
C 39.118811 67.642292 38.991623 67.694975 38.89786 67.788738 
C 38.804096 67.882502 38.751413 68.00969 38.751413 68.142292 
C 38.751413 68.274893 38.804096 68.402082 38.89786 68.495845 
C 38.991623 68.589609 39.118811 68.642292 39.251413 68.642292 
z
" clip-path="url(#p2944aa3601)" style="stroke: #000000"/>
    <path d="M 65.637375 167.597845 
C 65.769977 167.597845 65.897165 167.545162 65.990929 167.451398 
C 66.084692 167.357635 66.137375 167.230446 66.137375 167.097845 
C 66.137375 166.965243 66.084692 166.838055 65.990929 166.744291 
C 65.897165 166.650528 65.769977 166.597845 65.637375 166.597845 
C 65.504774 166.597845 65.377585 166.650528 65.283822 166.744291 
C 65.190059 166.838055 65.137375 166.965243 65.137375 167.097845 
C 65.137375 167.230446 65.190059 167.357635 65.283822 167.451398 
C 65.377585 167.545162 65.504774 167.597845 65.637375 167.597845 
z
" clip-path="url(#p2944aa3601)" style="stroke: #000000"/>
    <path d="M 59.777693 149.913819 
C 59.935383 149.913819 60.086637 149.851168 60.198141 149.739663 
C 60.309645 149.628159 60.372296 149.476906 60.372296 149.319215 
C 60.372296 149.161524 60.309645 149.010271 60.198141 148.898767 
C 60.086637 148.787263 59.935383 148.724612 59.777693 148.724612 
C 59.620002 148.724612 59.468749 148.787263 59.357244 148.898767 
C 59.24574 149.010271 59.183089 149.161524 59.183089 149.319215 
C 59.183089 149.476906 59.24574 149.628159 59.357244 149.739663 
C 59.468749 149.851168 59.620002 149.913819 59.777693 149.913819 
z
" clip-path="url(#p2944aa3601)" style="stroke: #000000"/>
    <path d="M 48.011045 111.56147 
C 48.185558 111.56147 48.352948 111.492135 48.476347 111.368736 
C 48.599747 111.245336 48.669082 111.077947 48.669082 110.903433 
C 48.669082 110.72892 48.599747 110.56153 48.476347 110.438131 
C 48.352948 110.314731 48.185558 110.245396 48.011045 110.245396 
C 47.836531 110.245396 47.669142 110.314731 47.545742 110.438131 
C 47.422343 110.56153 47.353008 110.72892 47.353008 110.903433 
C 47.353008 111.077947 47.422343 111.245336 47.545742 111.368736 
C 47.669142 111.492135 47.836531 111.56147 48.011045 111.56147 
z
" clip-path="url(#p2944aa3601)" style="stroke: #000000"/>
    <path d="M 46.760397 99.752458 
C 46.947924 99.752458 47.127795 99.677953 47.260397 99.545351 
C 47.392998 99.41275 47.467503 99.232878 47.467503 99.045351 
C 47.467503 98.857824 47.392998 98.677953 47.260397 98.545351 
C 47.127795 98.41275 46.947924 98.338245 46.760397 98.338245 
C 46.57287 98.338245 46.392998 98.41275 46.260397 98.545351 
C 46.127795 98.677953 46.05329 98.857824 46.05329 99.045351 
C 46.05329 99.232878 46.127795 99.41275 46.260397 99.545351 
C 46.392998 99.677953 46.57287 99.752458 46.760397 99.752458 
z
" clip-path="url(#p2944aa3601)" style="stroke: #000000"/>
    <path d="M 43.927505 117.832838 
C 44.060106 117.832838 44.187294 117.780155 44.281058 117.686392 
C 44.374821 117.592628 44.427505 117.46544 44.427505 117.332838 
C 44.427505 117.200237 44.374821 117.073048 44.281058 116.979285 
C 44.187294 116.885521 44.060106 116.832838 43.927505 116.832838 
C 43.794903 116.832838 43.667715 116.885521 43.573951 116.979285 
C 43.480188 117.073048 43.427505 117.200237 43.427505 117.332838 
C 43.427505 117.46544 43.480188 117.592628 43.573951 117.686392 
C 43.667715 117.780155 43.794903 117.832838 43.927505 117.832838 
z
" clip-path="url(#p2944aa3601)" style="stroke: #000000"/>
    <path d="M 42.633117 114.946277 
C 42.765719 114.946277 42.892907 114.893594 42.986671 114.799831 
C 43.080434 114.706067 43.133117 114.578879 43.133117 114.446277 
C 43.133117 114.313676 43.080434 114.186487 42.986671 114.092724 
C 42.892907 113.99896 42.765719 113.946277 42.633117 113.946277 
C 42.500516 113.946277 42.373327 113.99896 42.279564 114.092724 
C 42.1858 114.186487 42.133117 114.313676 42.133117 114.446277 
C 42.133117 114.578879 42.1858 114.706067 42.279564 114.799831 
C 42.373327 114.893594 42.500516 114.946277 42.633117 114.946277 
z
" clip-path="url(#p2944aa3601)" style="stroke: #000000"/>
    <path d="M 51.771272 159.111592 
C 51.928963 159.111592 52.080217 159.048941 52.191721 158.937437 
C 52.303225 158.825933 52.365876 158.674679 52.365876 158.516989 
C 52.365876 158.359298 52.303225 158.208045 52.191721 158.09654 
C 52.080217 157.985036 51.928963 157.922385 51.771272 157.922385 
C 51.613582 157.922385 51.462328 157.985036 51.350824 158.09654 
C 51.23932 158.208045 51.176669 158.359298 51.176669 158.516989 
C 51.176669 158.674679 51.23932 158.825933 51.350824 158.937437 
C 51.462328 159.048941 51.613582 159.111592 51.771272 159.111592 
z
" clip-path="url(#p2944aa3601)" style="stroke: #000000"/>
    <path d="M 30.233988 96.644839 
C 30.366589 96.644839 30.493778 96.592156 30.587541 96.498392 
C 30.681304 96.404629 30.733988 96.27744 30.733988 96.144839 
C 30.733988 96.012237 30.681304 95.885049 30.587541 95.791285 
C 30.493778 95.697522 30.366589 95.644839 30.233988 95.644839 
C 30.101386 95.644839 29.974198 95.697522 29.880434 95.791285 
C 29.786671 95.885049 29.733988 96.012237 29.733988 96.144839 
C 29.733988 96.27744 29.786671 96.404629 29.880434 96.498392 
C 29.974198 96.592156 30.101386 96.644839 30.233988 96.644839 
z
" clip-path="url(#p2944aa3601)" style="stroke: #000000"/>
    <path d="M 37.035714 156.333693 
C 37.168316 156.333693 37.295504 156.28101 37.389267 156.187247 
C 37.483031 156.093483 37.535714 155.966295 37.535714 155.833693 
C 37.535714 155.701092 37.483031 155.573903 37.389267 155.48014 
C 37.295504 155.386376 37.168316 155.333693 37.035714 155.333693 
C 36.903112 155.333693 36.775924 155.386376 36.682161 155.48014 
C 36.588397 155.573903 36.535714 155.701092 36.535714 155.833693 
C 36.535714 155.966295 36.588397 156.093483 36.682161 156.187247 
C 36.775924 156.28101 36.903112 156.333693 37.035714 156.333693 
z
" clip-path="url(#p2944aa3601)" style="stroke: #000000"/>
   </g>
   <g id="matplotlib.axis_1">
    <g id="xtick_1">
     <g id="line2d_1">
      <defs>
       <path id="mdb6e260bb4" d="M 0 0 
L 0 3.5 
" style="stroke: #000000; stroke-width: 0.8"/>
      </defs>
      <g>
       <use xlink:href="#mdb6e260bb4" x="18" y="189" style="stroke: #000000; stroke-width: 0.8"/>
      </g>
     </g>
     <g id="text_1">
      <!-- 10 -->
      <g transform="translate(7.447656 203.598437)scale(0.1 -0.1)">
       <defs>
        <path id="DejaVuSans-2212" d="M 678 2272 
L 4684 2272 
L 4684 1741 
L 678 1741 
L 678 2272 
z
" transform="scale(0.015625)"/>
        <path id="DejaVuSans-31" d="M 794 531 
L 1825 531 
L 1825 4091 
L 703 3866 
L 703 4441 
L 1819 4666 
L 2450 4666 
L 2450 531 
L 3481 531 
L 3481 0 
L 794 0 
L 794 531 
z
" transform="scale(0.015625)"/>
        <path id="DejaVuSans-30" d="M 2034 4250 
Q 1547 4250 1301 3770 
Q 1056 3291 1056 2328 
Q 1056 1369 1301 889 
Q 1547 409 2034 409 
Q 2525 409 2770 889 
Q 3016 1369 3016 2328 
Q 3016 3291 2770 3770 
Q 2525 4250 2034 4250 
z
M 2034 4750 
Q 2819 4750 3233 4129 
Q 3647 3509 3647 2328 
Q 3647 1150 3233 529 
Q 2819 -91 2034 -91 
Q 1250 -91 836 529 
Q 422 1150 422 2328 
Q 422 3509 836 4129 
Q 1250 4750 2034 4750 
z
" transform="scale(0.015625)"/>
       </defs>
       <use xlink:href="#DejaVuSans-2212"/>
       <use xlink:href="#DejaVuSans-31" x="83.789062"/>
       <use xlink:href="#DejaVuSans-30" x="147.412109"/>
      </g>
     </g>
    </g>
    <g id="xtick_2">
     <g id="line2d_2">
      <g>
       <use xlink:href="#mdb6e260bb4" x="73.8" y="189" style="stroke: #000000; stroke-width: 0.8"/>
      </g>
     </g>
     <g id="text_2">
      <!-- 0 -->
      <g transform="translate(70.61875 203.598437)scale(0.1 -0.1)">
       <use xlink:href="#DejaVuSans-30"/>
      </g>
     </g>
    </g>
    <g id="xtick_3">
     <g id="line2d_3">
      <g>
       <use xlink:href="#mdb6e260bb4" x="129.6" y="189" style="stroke: #000000; stroke-width: 0.8"/>
      </g>
     </g>
     <g id="text_3">
      <!-- 10 -->
      <g transform="translate(123.2375 203.598437)scale(0.1 -0.1)">
       <use xlink:href="#DejaVuSans-31"/>
       <use xlink:href="#DejaVuSans-30" x="63.623047"/>
      </g>
     </g>
    </g>
   </g>
   <g id="matplotlib.axis_2">
    <g id="ytick_1">
     <g id="line2d_4">
      <defs>
       <path id="mba9436892c" d="M 0 0 
L -3.5 0 
" style="stroke: #000000; stroke-width: 0.8"/>
      </defs>
      <g>
       <use xlink:href="#mba9436892c" x="18" y="189" style="stroke: #000000; stroke-width: 0.8"/>
      </g>
     </g>
     <g id="text_4">
      <!-- 15 -->
      <g transform="translate(-10.104688 192.799219)scale(0.1 -0.1)">
       <defs>
        <path id="DejaVuSans-35" d="M 691 4666 
L 3169 4666 
L 3169 4134 
L 1269 4134 
L 1269 2991 
Q 1406 3038 1543 3061 
Q 1681 3084 1819 3084 
Q 2600 3084 3056 2656 
Q 3513 2228 3513 1497 
Q 3513 744 3044 326 
Q 2575 -91 1722 -91 
Q 1428 -91 1123 -41 
Q 819 9 494 109 
L 494 744 
Q 775 591 1075 516 
Q 1375 441 1709 441 
Q 2250 441 2565 725 
Q 2881 1009 2881 1497 
Q 2881 1984 2565 2268 
Q 2250 2553 1709 2553 
Q 1456 2553 1204 2497 
Q 953 2441 691 2322 
L 691 4666 
z
" transform="scale(0.015625)"/>
       </defs>
       <use xlink:href="#DejaVuSans-2212"/>
       <use xlink:href="#DejaVuSans-31" x="83.789062"/>
       <use xlink:href="#DejaVuSans-35" x="147.412109"/>
      </g>
     </g>
    </g>
    <g id="ytick_2">
     <g id="line2d_5">
      <g>
       <use xlink:href="#mba9436892c" x="18" y="161.82" style="stroke: #000000; stroke-width: 0.8"/>
      </g>
     </g>
     <g id="text_5">
      <!-- 10 -->
      <g transform="translate(-10.104688 165.619219)scale(0.1 -0.1)">
       <use xlink:href="#DejaVuSans-2212"/>
       <use xlink:href="#DejaVuSans-31" x="83.789062"/>
       <use xlink:href="#DejaVuSans-30" x="147.412109"/>
      </g>
     </g>
    </g>
    <g id="ytick_3">
     <g id="line2d_6">
      <g>
       <use xlink:href="#mba9436892c" x="18" y="134.64" style="stroke: #000000; stroke-width: 0.8"/>
      </g>
     </g>
     <g id="text_6">
      <!-- 5 -->
      <g transform="translate(-3.742188 138.439219)scale(0.1 -0.1)">
       <use xlink:href="#DejaVuSans-2212"/>
       <use xlink:href="#DejaVuSans-35" x="83.789062"/>
      </g>
     </g>
    </g>
    <g id="ytick_4">
     <g id="line2d_7">
      <g>
       <use xlink:href="#mba9436892c" x="18" y="107.46" style="stroke: #000000; stroke-width: 0.8"/>
      </g>
     </g>
     <g id="text_7">
      <!-- 0 -->
      <g transform="translate(4.6375 111.259219)scale(0.1 -0.1)">
       <use xlink:href="#DejaVuSans-30"/>
      </g>
     </g>
    </g>
    <g id="ytick_5">
     <g id="line2d_8">
      <g>
       <use xlink:href="#mba9436892c" x="18" y="80.28" style="stroke: #000000; stroke-width: 0.8"/>
      </g>
     </g>
     <g id="text_8">
      <!-- 5 -->
      <g transform="translate(4.6375 84.079219)scale(0.1 -0.1)">
       <use xlink:href="#DejaVuSans-35"/>
      </g>
     </g>
    </g>
    <g id="ytick_6">
     <g id="line2d_9">
      <g>
       <use xlink:href="#mba9436892c" x="18" y="53.1" style="stroke: #000000; stroke-width: 0.8"/>
      </g>
     </g>
     <g id="text_9">
      <!-- 10 -->
      <g transform="translate(-1.725 56.899219)scale(0.1 -0.1)">
       <use xlink:href="#DejaVuSans-31"/>
       <use xlink:href="#DejaVuSans-30" x="63.623047"/>
      </g>
     </g>
    </g>
    <g id="ytick_7">
     <g id="line2d_10">
      <g>
       <use xlink:href="#mba9436892c" x="18" y="25.92" style="stroke: #000000; stroke-width: 0.8"/>
      </g>
     </g>
     <g id="text_10">
      <!-- 15 -->
      <g transform="translate(-1.725 29.719219)scale(0.1 -0.1)">
       <use xlink:href="#DejaVuSans-31"/>
       <use xlink:href="#DejaVuSans-35" x="63.623047"/>
      </g>
     </g>
    </g>
   </g>
   <g id="patch_3">
    <path d="M 18 189 
L 18 25.92 
" style="fill: none; stroke: #000000; stroke-width: 0.8; stroke-linejoin: miter; stroke-linecap: square"/>
   </g>
   <g id="patch_4">
    <path d="M 129.6 189 
L 129.6 25.92 
" style="fill: none; stroke: #000000; stroke-width: 0.8; stroke-linejoin: miter; stroke-linecap: square"/>
   </g>
   <g id="patch_5">
    <path d="M 18 189 
L 129.6 189 
" style="fill: none; stroke: #000000; stroke-width: 0.8; stroke-linejoin: miter; stroke-linecap: square"/>
   </g>
   <g id="patch_6">
    <path d="M 18 25.92 
L 129.6 25.92 
" style="fill: none; stroke: #000000; stroke-width: 0.8; stroke-linejoin: miter; stroke-linecap: square"/>
   </g>
  </g>
 </g>
 <defs>
  <clipPath id="p2944aa3601">
   <rect x="18" y="25.92" width="111.6" height="163.08"/>
  </clipPath>
 </defs>
</svg>
