<?xml version="1.0" encoding="utf-8" standalone="no"?>
<!DOCTYPE svg PUBLIC "-//W3C//DTD SVG 1.1//EN"
  "http://www.w3.org/Graphics/SVG/1.1/DTD/svg11.dtd">
<svg xmlns:xlink="http://www.w3.org/1999/xlink" width="144pt" height="216pt" viewBox="0 0 144 216" xmlns="http://www.w3.org/2000/svg" version="1.1">
 <metadata>
  <rdf:RDF xmlns:dc="http://purl.org/dc/elements/1.1/" xmlns:cc="http://creativecommons.org/ns#" xmlns:rdf="http://www.w3.org/1999/02/22-rdf-syntax-ns#">
   <cc:Work>
    <dc:type rdf:resource="http://purl.org/dc/dcmitype/StillImage"/>
    <dc:date>2022-06-28T09:26:07.895114</dc:date>
    <dc:format>image/svg+xml</dc:format>
    <dc:creator>
     <cc:Agent>
      <dc:title>Matplotlib v3.5.1, https://matplotlib.org/</dc:title>
     </cc:Agent>
    </dc:creator>
   </cc:Work>
  </rdf:RDF>
 </metadata>
 <defs>
  <style type="text/css">*{stroke-linejoin: round; stroke-linecap: butt}</style>
 </defs>
 <g id="figure_1">
  <g id="patch_1">
   <path d="M 0 216 
L 144 216 
L 144 0 
L 0 0 
L 0 216 
z
" style="fill: none"/>
  </g>
  <g id="axes_1">
   <g id="patch_2">
    <path d="M 18 189 
L 129.6 189 
L 129.6 25.92 
L 18 25.92 
z
" style="fill: #ffffff"/>
   </g>
   <g id="PathCollection_1">
    <defs>
     <path id="m5a3600637b" d="M 0 2.738613 
C 0.726289 2.738613 1.422928 2.450055 1.936492 1.936492 
C 2.450055 1.422928 2.738613 0.726289 2.738613 0 
C 2.738613 -0.726289 2.450055 -1.422928 1.936492 -1.936492 
C 1.422928 -2.450055 0.726289 -2.738613 0 -2.738613 
C -0.726289 -2.738613 -1.422928 -2.450055 -1.936492 -1.936492 
C -2.450055 -1.422928 -2.738613 -0.726289 -2.738613 0 
C -2.738613 0.726289 -2.450055 1.422928 -1.936492 1.936492 
C -1.422928 2.450055 -0.726289 2.738613 0 2.738613 
z
" style="stroke: #ff0000; stroke-width: 1.75"/>
    </defs>
    <g clip-path="url(#pb7ec007a98)">
     <use xlink:href="#m5a3600637b" x="80.775" y="107.46" style="fill: #ff0000; stroke: #ff0000; stroke-width: 1.75"/>
     <use xlink:href="#m5a3600637b" x="94.725" y="107.46" style="fill: #ff0000; stroke: #ff0000; stroke-width: 1.75"/>
     <use xlink:href="#m5a3600637b" x="59.85" y="119.229285" style="fill: #ff0000; stroke: #ff0000; stroke-width: 1.75"/>
     <use xlink:href="#m5a3600637b" x="73.8" y="119.229285" style="fill: #ff0000; stroke: #ff0000; stroke-width: 1.75"/>
     <use xlink:href="#m5a3600637b" x="87.75" y="119.229285" style="fill: #ff0000; stroke: #ff0000; stroke-width: 1.75"/>
     <use xlink:href="#m5a3600637b" x="66.825" y="130.99857" style="fill: #ff0000; stroke: #ff0000; stroke-width: 1.75"/>
     <use xlink:href="#m5a3600637b" x="80.775" y="130.99857" style="fill: #ff0000; stroke: #ff0000; stroke-width: 1.75"/>
    </g>
   </g>
   <g id="PathCollection_2">
    <defs>
     <path id="C0_0_05f6a0e660" d="M 0 2.738613 
C 0.726289 2.738613 1.422928 2.450055 1.936492 1.936492 
C 2.450055 1.422928 2.738613 0.726289 2.738613 -0 
C 2.738613 -0.726289 2.450055 -1.422928 1.936492 -1.936492 
C 1.422928 -2.450055 0.726289 -2.738613 0 -2.738613 
C -0.726289 -2.738613 -1.422928 -2.450055 -1.936492 -1.936492 
C -2.450055 -1.422928 -2.738613 -0.726289 -2.738613 0 
C -2.738613 0.726289 -2.450055 1.422928 -1.936492 1.936492 
C -1.422928 2.450055 -0.726289 2.738613 0 2.738613 
z
"/>
    </defs>
    <g clip-path="url(#pb7ec007a98)">
     <use xlink:href="#C0_0_05f6a0e660" x="66.825" y="83.92143" style="fill: none; stroke: #ff0000; stroke-width: 1.75"/>
    </g>
    <g clip-path="url(#pb7ec007a98)">
     <use xlink:href="#C0_0_05f6a0e660" x="80.775" y="83.92143" style="fill: none; stroke: #ff0000; stroke-width: 1.75"/>
    </g>
    <g clip-path="url(#pb7ec007a98)">
     <use xlink:href="#C0_0_05f6a0e660" x="59.85" y="95.690715" style="fill: none; stroke: #ff0000; stroke-width: 1.75"/>
    </g>
    <g clip-path="url(#pb7ec007a98)">
     <use xlink:href="#C0_0_05f6a0e660" x="73.8" y="95.690715" style="fill: none; stroke: #ff0000; stroke-width: 1.75"/>
    </g>
    <g clip-path="url(#pb7ec007a98)">
     <use xlink:href="#C0_0_05f6a0e660" x="87.75" y="95.690715" style="fill: none; stroke: #ff0000; stroke-width: 1.75"/>
    </g>
    <g clip-path="url(#pb7ec007a98)">
     <use xlink:href="#C0_0_05f6a0e660" x="52.875" y="107.46" style="fill: none; stroke: #ff0000; stroke-width: 1.75"/>
    </g>
    <g clip-path="url(#pb7ec007a98)">
     <use xlink:href="#C0_0_05f6a0e660" x="66.825" y="107.46" style="fill: none; stroke: #ff0000; stroke-width: 1.75"/>
    </g>
   </g>
   <g id="PathCollection_3">
    <path d="M 95.898739 108.40234 
C 96.086266 108.40234 96.266137 108.327835 96.398739 108.195233 
C 96.53134 108.062631 96.605846 107.88276 96.605846 107.695233 
C 96.605846 107.507706 96.53134 107.327835 96.398739 107.195233 
C 96.266137 107.062631 96.086266 106.988126 95.898739 106.988126 
C 95.711212 106.988126 95.53134 107.062631 95.398739 107.195233 
C 95.266137 107.327835 95.191632 107.507706 95.191632 107.695233 
C 95.191632 107.88276 95.266137 108.062631 95.398739 108.195233 
C 95.53134 108.327835 95.711212 108.40234 95.898739 108.40234 
z
" clip-path="url(#pb7ec007a98)" style="stroke: #000000"/>
    <path d="M 90.950318 96.200909 
C 91.268135 96.200909 91.572978 96.074639 91.797708 95.849908 
C 92.022439 95.625178 92.148709 95.320335 92.148709 95.002518 
C 92.148709 94.684701 92.022439 94.379858 91.797708 94.155128 
C 91.572978 93.930397 91.268135 93.804127 90.950318 93.804127 
C 90.632501 93.804127 90.327658 93.930397 90.102928 94.155128 
C 89.878197 94.379858 89.751927 94.684701 89.751927 95.002518 
C 89.751927 95.320335 89.878197 95.625178 90.102928 95.849908 
C 90.327658 96.074639 90.632501 96.200909 90.950318 96.200909 
z
" clip-path="url(#pb7ec007a98)" style="stroke: #000000"/>
    <path d="M 83.806265 87.535315 
C 83.938867 87.535315 84.066055 87.482632 84.159818 87.388868 
C 84.253582 87.295105 84.306265 87.167916 84.306265 87.035315 
C 84.306265 86.902713 84.253582 86.775525 84.159818 86.681761 
C 84.066055 86.587998 83.938867 86.535315 83.806265 86.535315 
C 83.673663 86.535315 83.546475 86.587998 83.452712 86.681761 
C 83.358948 86.775525 83.306265 86.902713 83.306265 87.035315 
C 83.306265 87.167916 83.358948 87.295105 83.452712 87.388868 
C 83.546475 87.482632 83.673663 87.535315 83.806265 87.535315 
z
" clip-path="url(#pb7ec007a98)" style="stroke: #000000"/>
    <path d="M 79.467518 132.955584 
C 79.790045 132.955584 80.099405 132.827442 80.327466 132.599382 
C 80.555526 132.371321 80.683667 132.061961 80.683667 131.739434 
C 80.683667 131.416907 80.555526 131.107547 80.327466 130.879486 
C 80.099405 130.651425 79.790045 130.523284 79.467518 130.523284 
C 79.144991 130.523284 78.835631 130.651425 78.60757 130.879486 
C 78.379509 131.107547 78.251368 131.416907 78.251368 131.739434 
C 78.251368 132.061961 78.379509 132.371321 78.60757 132.599382 
C 78.835631 132.827442 79.144991 132.955584 79.467518 132.955584 
z
" clip-path="url(#pb7ec007a98)" style="stroke: #000000"/>
    <path d="M 62.046783 85.910093 
C 62.371589 85.910093 62.683136 85.781046 62.912808 85.551373 
C 63.142481 85.321701 63.271528 85.010154 63.271528 84.685348 
C 63.271528 84.360542 63.142481 84.048995 62.912808 83.819323 
C 62.683136 83.58965 62.371589 83.460603 62.046783 83.460603 
C 61.721977 83.460603 61.41043 83.58965 61.180757 83.819323 
C 60.951085 84.048995 60.822038 84.360542 60.822038 84.685348 
C 60.822038 85.010154 60.951085 85.321701 61.180757 85.551373 
C 61.41043 85.781046 61.721977 85.910093 62.046783 85.910093 
z
" clip-path="url(#pb7ec007a98)" style="stroke: #000000"/>
    <path d="M 62.742106 95.894833 
C 62.874708 95.894833 63.001896 95.84215 63.095659 95.748386 
C 63.189423 95.654623 63.242106 95.527435 63.242106 95.394833 
C 63.242106 95.262232 63.189423 95.135043 63.095659 95.04128 
C 63.001896 94.947516 62.874708 94.894833 62.742106 94.894833 
C 62.609504 94.894833 62.482316 94.947516 62.388553 95.04128 
C 62.294789 95.135043 62.242106 95.262232 62.242106 95.394833 
C 62.242106 95.527435 62.294789 95.654623 62.388553 95.748386 
C 62.482316 95.84215 62.609504 95.894833 62.742106 95.894833 
z
" clip-path="url(#pb7ec007a98)" style="stroke: #000000"/>
    <path d="M 56.935216 97.285555 
C 57.109729 97.285555 57.277119 97.21622 57.400518 97.09282 
C 57.523918 96.969421 57.593253 96.802031 57.593253 96.627518 
C 57.593253 96.453004 57.523918 96.285615 57.400518 96.162215 
C 57.277119 96.038816 57.109729 95.969481 56.935216 95.969481 
C 56.760702 95.969481 56.593313 96.038816 56.469913 96.162215 
C 56.346514 96.285615 56.277179 96.453004 56.277179 96.627518 
C 56.277179 96.802031 56.346514 96.969421 56.469913 97.09282 
C 56.593313 97.21622 56.760702 97.285555 56.935216 97.285555 
z
" clip-path="url(#pb7ec007a98)" style="stroke: #000000"/>
    <path d="M 62.503196 132.936949 
C 62.838736 132.936949 63.160579 132.803638 63.397841 132.566375 
C 63.635104 132.329112 63.768416 132.00727 63.768416 131.67173 
C 63.768416 131.336189 63.635104 131.014347 63.397841 130.777084 
C 63.160579 130.539821 62.838736 130.40651 62.503196 130.40651 
C 62.167656 130.40651 61.845813 130.539821 61.60855 130.777084 
C 61.371288 131.014347 61.237976 131.336189 61.237976 131.67173 
C 61.237976 132.00727 61.371288 132.329112 61.60855 132.566375 
C 61.845813 132.803638 62.167656 132.936949 62.503196 132.936949 
z
" clip-path="url(#pb7ec007a98)" style="stroke: #000000"/>
    <path d="M 59.683574 124.528365 
C 59.816175 124.528365 59.943364 124.475682 60.037127 124.381918 
C 60.13089 124.288155 60.183574 124.160967 60.183574 124.028365 
C 60.183574 123.895763 60.13089 123.768575 60.037127 123.674812 
C 59.943364 123.581048 59.816175 123.528365 59.683574 123.528365 
C 59.550972 123.528365 59.423784 123.581048 59.33002 123.674812 
C 59.236257 123.768575 59.183574 123.895763 59.183574 124.028365 
C 59.183574 124.160967 59.236257 124.288155 59.33002 124.381918 
C 59.423784 124.475682 59.550972 124.528365 59.683574 124.528365 
z
" clip-path="url(#pb7ec007a98)" style="stroke: #000000"/>
    <path d="M 51.061648 108.978572 
C 51.578041 108.978572 52.073354 108.773407 52.438499 108.408262 
C 52.803644 108.043117 53.008809 107.547804 53.008809 107.031411 
C 53.008809 106.515018 52.803644 106.019705 52.438499 105.65456 
C 52.073354 105.289415 51.578041 105.084249 51.061648 105.084249 
C 50.545254 105.084249 50.049942 105.289415 49.684797 105.65456 
C 49.319651 106.019705 49.114486 106.515018 49.114486 107.031411 
C 49.114486 107.547804 49.319651 108.043117 49.684797 108.408262 
C 50.049942 108.773407 50.545254 108.978572 51.061648 108.978572 
z
" clip-path="url(#pb7ec007a98)" style="stroke: #000000"/>
   </g>
   <g id="matplotlib.axis_1">
    <g id="xtick_1">
     <g id="line2d_1">
      <defs>
       <path id="m908b0d9f46" d="M 0 0 
L 0 3.5 
" style="stroke: #000000; stroke-width: 0.8"/>
      </defs>
      <g>
       <use xlink:href="#m908b0d9f46" x="18" y="189" style="stroke: #000000; stroke-width: 0.8"/>
      </g>
     </g>
     <g id="text_1">
      <!-- −10 -->
      <g transform="translate(7.447656 203.598437)scale(0.1 -0.1)">
       <defs>
        <path id="DejaVuSans-2212" d="M 678 2272 
L 4684 2272 
L 4684 1741 
L 678 1741 
L 678 2272 
z
" transform="scale(0.015625)"/>
        <path id="DejaVuSans-31" d="M 794 531 
L 1825 531 
L 1825 4091 
L 703 3866 
L 703 4441 
L 1819 4666 
L 2450 4666 
L 2450 531 
L 3481 531 
L 3481 0 
L 794 0 
L 794 531 
z
" transform="scale(0.015625)"/>
        <path id="DejaVuSans-30" d="M 2034 4250 
Q 1547 4250 1301 3770 
Q 1056 3291 1056 2328 
Q 1056 1369 1301 889 
Q 1547 409 2034 409 
Q 2525 409 2770 889 
Q 3016 1369 3016 2328 
Q 3016 3291 2770 3770 
Q 2525 4250 2034 4250 
z
M 2034 4750 
Q 2819 4750 3233 4129 
Q 3647 3509 3647 2328 
Q 3647 1150 3233 529 
Q 2819 -91 2034 -91 
Q 1250 -91 836 529 
Q 422 1150 422 2328 
Q 422 3509 836 4129 
Q 1250 4750 2034 4750 
z
" transform="scale(0.015625)"/>
       </defs>
       <use xlink:href="#DejaVuSans-2212"/>
       <use xlink:href="#DejaVuSans-31" x="83.789062"/>
       <use xlink:href="#DejaVuSans-30" x="147.412109"/>
      </g>
     </g>
    </g>
    <g id="xtick_2">
     <g id="line2d_2">
      <g>
       <use xlink:href="#m908b0d9f46" x="73.8" y="189" style="stroke: #000000; stroke-width: 0.8"/>
      </g>
     </g>
     <g id="text_2">
      <!-- 0 -->
      <g transform="translate(70.61875 203.598437)scale(0.1 -0.1)">
       <use xlink:href="#DejaVuSans-30"/>
      </g>
     </g>
    </g>
    <g id="xtick_3">
     <g id="line2d_3">
      <g>
       <use xlink:href="#m908b0d9f46" x="129.6" y="189" style="stroke: #000000; stroke-width: 0.8"/>
      </g>
     </g>
     <g id="text_3">
      <!-- 10 -->
      <g transform="translate(123.2375 203.598437)scale(0.1 -0.1)">
       <use xlink:href="#DejaVuSans-31"/>
       <use xlink:href="#DejaVuSans-30" x="63.623047"/>
      </g>
     </g>
    </g>
   </g>
   <g id="matplotlib.axis_2">
    <g id="ytick_1">
     <g id="line2d_4">
      <defs>
       <path id="m821a4a6ab2" d="M 0 0 
L -3.5 0 
" style="stroke: #000000; stroke-width: 0.8"/>
      </defs>
      <g>
       <use xlink:href="#m821a4a6ab2" x="18" y="189" style="stroke: #000000; stroke-width: 0.8"/>
      </g>
     </g>
     <g id="text_4">
      <!-- −15 -->
      <g transform="translate(-10.104688 192.799219)scale(0.1 -0.1)">
       <defs>
        <path id="DejaVuSans-35" d="M 691 4666 
L 3169 4666 
L 3169 4134 
L 1269 4134 
L 1269 2991 
Q 1406 3038 1543 3061 
Q 1681 3084 1819 3084 
Q 2600 3084 3056 2656 
Q 3513 2228 3513 1497 
Q 3513 744 3044 326 
Q 2575 -91 1722 -91 
Q 1428 -91 1123 -41 
Q 819 9 494 109 
L 494 744 
Q 775 591 1075 516 
Q 1375 441 1709 441 
Q 2250 441 2565 725 
Q 2881 1009 2881 1497 
Q 2881 1984 2565 2268 
Q 2250 2553 1709 2553 
Q 1456 2553 1204 2497 
Q 953 2441 691 2322 
L 691 4666 
z
" transform="scale(0.015625)"/>
       </defs>
       <use xlink:href="#DejaVuSans-2212"/>
       <use xlink:href="#DejaVuSans-31" x="83.789062"/>
       <use xlink:href="#DejaVuSans-35" x="147.412109"/>
      </g>
     </g>
    </g>
    <g id="ytick_2">
     <g id="line2d_5">
      <g>
       <use xlink:href="#m821a4a6ab2" x="18" y="161.82" style="stroke: #000000; stroke-width: 0.8"/>
      </g>
     </g>
     <g id="text_5">
      <!-- −10 -->
      <g transform="translate(-10.104688 165.619219)scale(0.1 -0.1)">
       <use xlink:href="#DejaVuSans-2212"/>
       <use xlink:href="#DejaVuSans-31" x="83.789062"/>
       <use xlink:href="#DejaVuSans-30" x="147.412109"/>
      </g>
     </g>
    </g>
    <g id="ytick_3">
     <g id="line2d_6">
      <g>
       <use xlink:href="#m821a4a6ab2" x="18" y="134.64" style="stroke: #000000; stroke-width: 0.8"/>
      </g>
     </g>
     <g id="text_6">
      <!-- −5 -->
      <g transform="translate(-3.742188 138.439219)scale(0.1 -0.1)">
       <use xlink:href="#DejaVuSans-2212"/>
       <use xlink:href="#DejaVuSans-35" x="83.789062"/>
      </g>
     </g>
    </g>
    <g id="ytick_4">
     <g id="line2d_7">
      <g>
       <use xlink:href="#m821a4a6ab2" x="18" y="107.46" style="stroke: #000000; stroke-width: 0.8"/>
      </g>
     </g>
     <g id="text_7">
      <!-- 0 -->
      <g transform="translate(4.6375 111.259219)scale(0.1 -0.1)">
       <use xlink:href="#DejaVuSans-30"/>
      </g>
     </g>
    </g>
    <g id="ytick_5">
     <g id="line2d_8">
      <g>
       <use xlink:href="#m821a4a6ab2" x="18" y="80.28" style="stroke: #000000; stroke-width: 0.8"/>
      </g>
     </g>
     <g id="text_8">
      <!-- 5 -->
      <g transform="translate(4.6375 84.079219)scale(0.1 -0.1)">
       <use xlink:href="#DejaVuSans-35"/>
      </g>
     </g>
    </g>
    <g id="ytick_6">
     <g id="line2d_9">
      <g>
       <use xlink:href="#m821a4a6ab2" x="18" y="53.1" style="stroke: #000000; stroke-width: 0.8"/>
      </g>
     </g>
     <g id="text_9">
      <!-- 10 -->
      <g transform="translate(-1.725 56.899219)scale(0.1 -0.1)">
       <use xlink:href="#DejaVuSans-31"/>
       <use xlink:href="#DejaVuSans-30" x="63.623047"/>
      </g>
     </g>
    </g>
    <g id="ytick_7">
     <g id="line2d_10">
      <g>
       <use xlink:href="#m821a4a6ab2" x="18" y="25.92" style="stroke: #000000; stroke-width: 0.8"/>
      </g>
     </g>
     <g id="text_10">
      <!-- 15 -->
      <g transform="translate(-1.725 29.719219)scale(0.1 -0.1)">
       <use xlink:href="#DejaVuSans-31"/>
       <use xlink:href="#DejaVuSans-35" x="63.623047"/>
      </g>
     </g>
    </g>
   </g>
   <g id="patch_3">
    <path d="M 18 189 
L 18 25.92 
" style="fill: none; stroke: #000000; stroke-width: 0.8; stroke-linejoin: miter; stroke-linecap: square"/>
   </g>
   <g id="patch_4">
    <path d="M 129.6 189 
L 129.6 25.92 
" style="fill: none; stroke: #000000; stroke-width: 0.8; stroke-linejoin: miter; stroke-linecap: square"/>
   </g>
   <g id="patch_5">
    <path d="M 18 189 
L 129.6 189 
" style="fill: none; stroke: #000000; stroke-width: 0.8; stroke-linejoin: miter; stroke-linecap: square"/>
   </g>
   <g id="patch_6">
    <path d="M 18 25.92 
L 129.6 25.92 
" style="fill: none; stroke: #000000; stroke-width: 0.8; stroke-linejoin: miter; stroke-linecap: square"/>
   </g>
  </g>
 </g>
 <defs>
  <clipPath id="pb7ec007a98">
   <rect x="18" y="25.92" width="111.6" height="163.08"/>
  </clipPath>
 </defs>
</svg>
