<?xml version="1.0" encoding="utf-8" standalone="no"?>
<!DOCTYPE svg PUBLIC "-//W3C//DTD SVG 1.1//EN"
  "http://www.w3.org/Graphics/SVG/1.1/DTD/svg11.dtd">
<svg xmlns:xlink="http://www.w3.org/1999/xlink" width="144pt" height="216pt" viewBox="0 0 144 216" xmlns="http://www.w3.org/2000/svg" version="1.1">
 <metadata>
  <rdf:RDF xmlns:dc="http://purl.org/dc/elements/1.1/" xmlns:cc="http://creativecommons.org/ns#" xmlns:rdf="http://www.w3.org/1999/02/22-rdf-syntax-ns#">
   <cc:Work>
    <dc:type rdf:resource="http://purl.org/dc/dcmitype/StillImage"/>
    <dc:date>2022-06-28T09:26:11.618296</dc:date>
    <dc:format>image/svg+xml</dc:format>
    <dc:creator>
     <cc:Agent>
      <dc:title>Matplotlib v3.5.1, https://matplotlib.org/</dc:title>
     </cc:Agent>
    </dc:creator>
   </cc:Work>
  </rdf:RDF>
 </metadata>
 <defs>
  <style type="text/css">*{stroke-linejoin: round; stroke-linecap: butt}</style>
 </defs>
 <g id="figure_1">
  <g id="patch_1">
   <path d="M 0 216 
L 144 216 
L 144 0 
L 0 0 
L 0 216 
z
" style="fill: none"/>
  </g>
  <g id="axes_1">
   <g id="patch_2">
    <path d="M 18 189 
L 129.6 189 
L 129.6 25.92 
L 18 25.92 
z
" style="fill: #ffffff"/>
   </g>
   <g id="PathCollection_1">
    <defs>
     <path id="m23ee4130c0" d="M 0 2.738613 
C 0.726289 2.738613 1.422928 2.450055 1.936492 1.936492 
C 2.450055 1.422928 2.738613 0.726289 2.738613 0 
C 2.738613 -0.726289 2.450055 -1.422928 1.936492 -1.936492 
C 1.422928 -2.450055 0.726289 -2.738613 0 -2.738613 
C -0.726289 -2.738613 -1.422928 -2.450055 -1.936492 -1.936492 
C -2.450055 -1.422928 -2.738613 -0.726289 -2.738613 0 
C -2.738613 0.726289 -2.450055 1.422928 -1.936492 1.936492 
C -1.422928 2.450055 -0.726289 2.738613 0 2.738613 
z
" style="stroke: #ff0000; stroke-width: 1.75"/>
    </defs>
    <g clip-path="url(#p8f993a911d)">
     <use xlink:href="#m23ee4130c0" x="80.775" y="107.46" style="fill: #ff0000; stroke: #ff0000; stroke-width: 1.75"/>
     <use xlink:href="#m23ee4130c0" x="94.725" y="107.46" style="fill: #ff0000; stroke: #ff0000; stroke-width: 1.75"/>
     <use xlink:href="#m23ee4130c0" x="59.85" y="119.229285" style="fill: #ff0000; stroke: #ff0000; stroke-width: 1.75"/>
     <use xlink:href="#m23ee4130c0" x="73.8" y="119.229285" style="fill: #ff0000; stroke: #ff0000; stroke-width: 1.75"/>
     <use xlink:href="#m23ee4130c0" x="87.75" y="119.229285" style="fill: #ff0000; stroke: #ff0000; stroke-width: 1.75"/>
     <use xlink:href="#m23ee4130c0" x="66.825" y="130.99857" style="fill: #ff0000; stroke: #ff0000; stroke-width: 1.75"/>
     <use xlink:href="#m23ee4130c0" x="80.775" y="130.99857" style="fill: #ff0000; stroke: #ff0000; stroke-width: 1.75"/>
    </g>
   </g>
   <g id="PathCollection_2">
    <defs>
     <path id="C0_0_390e230991" d="M 0 2.738613 
C 0.726289 2.738613 1.422928 2.450055 1.936492 1.936492 
C 2.450055 1.422928 2.738613 0.726289 2.738613 -0 
C 2.738613 -0.726289 2.450055 -1.422928 1.936492 -1.936492 
C 1.422928 -2.450055 0.726289 -2.738613 0 -2.738613 
C -0.726289 -2.738613 -1.422928 -2.450055 -1.936492 -1.936492 
C -2.450055 -1.422928 -2.738613 -0.726289 -2.738613 0 
C -2.738613 0.726289 -2.450055 1.422928 -1.936492 1.936492 
C -1.422928 2.450055 -0.726289 2.738613 0 2.738613 
z
"/>
    </defs>
    <g clip-path="url(#p8f993a911d)">
     <use xlink:href="#C0_0_390e230991" x="66.825" y="83.92143" style="fill: none; stroke: #ff0000; stroke-width: 1.75"/>
    </g>
    <g clip-path="url(#p8f993a911d)">
     <use xlink:href="#C0_0_390e230991" x="80.775" y="83.92143" style="fill: none; stroke: #ff0000; stroke-width: 1.75"/>
    </g>
    <g clip-path="url(#p8f993a911d)">
     <use xlink:href="#C0_0_390e230991" x="59.85" y="95.690715" style="fill: none; stroke: #ff0000; stroke-width: 1.75"/>
    </g>
    <g clip-path="url(#p8f993a911d)">
     <use xlink:href="#C0_0_390e230991" x="73.8" y="95.690715" style="fill: none; stroke: #ff0000; stroke-width: 1.75"/>
    </g>
    <g clip-path="url(#p8f993a911d)">
     <use xlink:href="#C0_0_390e230991" x="87.75" y="95.690715" style="fill: none; stroke: #ff0000; stroke-width: 1.75"/>
    </g>
    <g clip-path="url(#p8f993a911d)">
     <use xlink:href="#C0_0_390e230991" x="52.875" y="107.46" style="fill: none; stroke: #ff0000; stroke-width: 1.75"/>
    </g>
    <g clip-path="url(#p8f993a911d)">
     <use xlink:href="#C0_0_390e230991" x="66.825" y="107.46" style="fill: none; stroke: #ff0000; stroke-width: 1.75"/>
    </g>
   </g>
   <g id="PathCollection_3">
    <path d="M 95.898739 109.018109 
C 96.249569 109.018109 96.586078 108.878722 96.834153 108.630647 
C 97.082228 108.382573 97.221614 108.046064 97.221614 107.695233 
C 97.221614 107.344402 97.082228 107.007893 96.834153 106.759819 
C 96.586078 106.511744 96.249569 106.372357 95.898739 106.372357 
C 95.547908 106.372357 95.211399 106.511744 94.963324 106.759819 
C 94.71525 107.007893 94.575863 107.344402 94.575863 107.695233 
C 94.575863 108.046064 94.71525 108.382573 94.963324 108.630647 
C 95.211399 108.878722 95.547908 109.018109 95.898739 109.018109 
z
" clip-path="url(#p8f993a911d)" style="stroke: #000000"/>
    <path d="M 90.950318 96.639879 
C 91.384551 96.639879 91.801058 96.467356 92.108107 96.160307 
C 92.415157 95.853258 92.587679 95.436751 92.587679 95.002518 
C 92.587679 94.568285 92.415157 94.151778 92.108107 93.844729 
C 91.801058 93.53768 91.384551 93.365157 90.950318 93.365157 
C 90.516085 93.365157 90.099578 93.53768 89.792529 93.844729 
C 89.48548 94.151778 89.312957 94.568285 89.312957 95.002518 
C 89.312957 95.436751 89.48548 95.853258 89.792529 96.160307 
C 90.099578 96.467356 90.516085 96.639879 90.950318 96.639879 
z
" clip-path="url(#p8f993a911d)" style="stroke: #000000"/>
    <path d="M 83.806265 87.817857 
C 84.013798 87.817857 84.212858 87.735404 84.359606 87.588656 
C 84.506354 87.441908 84.588807 87.242848 84.588807 87.035315 
C 84.588807 86.827782 84.506354 86.628722 84.359606 86.481974 
C 84.212858 86.335226 84.013798 86.252773 83.806265 86.252773 
C 83.598732 86.252773 83.399672 86.335226 83.252924 86.481974 
C 83.106176 86.628722 83.023723 86.827782 83.023723 87.035315 
C 83.023723 87.242848 83.106176 87.441908 83.252924 87.588656 
C 83.399672 87.735404 83.598732 87.817857 83.806265 87.817857 
z
" clip-path="url(#p8f993a911d)" style="stroke: #000000"/>
    <path d="M 66.490518 83.44441 
C 66.678045 83.44441 66.857917 83.369905 66.990518 83.237303 
C 67.12312 83.104702 67.197625 82.92483 67.197625 82.737303 
C 67.197625 82.549776 67.12312 82.369905 66.990518 82.237303 
C 66.857917 82.104702 66.678045 82.030196 66.490518 82.030196 
C 66.302991 82.030196 66.12312 82.104702 65.990518 82.237303 
C 65.857917 82.369905 65.783411 82.549776 65.783411 82.737303 
C 65.783411 82.92483 65.857917 83.104702 65.990518 83.237303 
C 66.12312 83.369905 66.302991 83.44441 66.490518 83.44441 
z
" clip-path="url(#p8f993a911d)" style="stroke: #000000"/>
    <path d="M 79.467518 133.153647 
C 79.842572 133.153647 80.202315 133.004637 80.467518 132.739434 
C 80.732721 132.474231 80.881731 132.114488 80.881731 131.739434 
C 80.881731 131.36438 80.732721 131.004637 80.467518 130.739434 
C 80.202315 130.474231 79.842572 130.32522 79.467518 130.32522 
C 79.092464 130.32522 78.732721 130.474231 78.467518 130.739434 
C 78.202315 131.004637 78.053304 131.36438 78.053304 131.739434 
C 78.053304 132.114488 78.202315 132.474231 78.467518 132.739434 
C 78.732721 133.004637 79.092464 133.153647 79.467518 133.153647 
z
" clip-path="url(#p8f993a911d)" style="stroke: #000000"/>
    <path d="M 62.046783 86.05313 
C 62.409523 86.05313 62.757455 85.909012 63.013951 85.652516 
C 63.270447 85.39602 63.414565 85.048088 63.414565 84.685348 
C 63.414565 84.322608 63.270447 83.974676 63.013951 83.71818 
C 62.757455 83.461684 62.409523 83.317566 62.046783 83.317566 
C 61.684043 83.317566 61.336111 83.461684 61.079615 83.71818 
C 60.823119 83.974676 60.679 84.322608 60.679 84.685348 
C 60.679 85.048088 60.823119 85.39602 61.079615 85.652516 
C 61.336111 85.909012 61.684043 86.05313 62.046783 86.05313 
z
" clip-path="url(#p8f993a911d)" style="stroke: #000000"/>
    <path d="M 62.742106 96.10194 
C 62.929633 96.10194 63.109504 96.027435 63.242106 95.894833 
C 63.374708 95.762232 63.449213 95.58236 63.449213 95.394833 
C 63.449213 95.207306 63.374708 95.027435 63.242106 94.894833 
C 63.109504 94.762232 62.929633 94.687726 62.742106 94.687726 
C 62.554579 94.687726 62.374708 94.762232 62.242106 94.894833 
C 62.109504 95.027435 62.034999 95.207306 62.034999 95.394833 
C 62.034999 95.58236 62.109504 95.762232 62.242106 95.894833 
C 62.374708 96.027435 62.554579 96.10194 62.742106 96.10194 
z
" clip-path="url(#p8f993a911d)" style="stroke: #000000"/>
    <path d="M 56.935216 97.127518 
C 57.067817 97.127518 57.195006 97.074835 57.288769 96.981071 
C 57.382533 96.887308 57.435216 96.760119 57.435216 96.627518 
C 57.435216 96.494916 57.382533 96.367728 57.288769 96.273965 
C 57.195006 96.180201 57.067817 96.127518 56.935216 96.127518 
C 56.802614 96.127518 56.675426 96.180201 56.581662 96.273965 
C 56.487899 96.367728 56.435216 96.494916 56.435216 96.627518 
C 56.435216 96.760119 56.487899 96.887308 56.581662 96.981071 
C 56.675426 97.074835 56.802614 97.127518 56.935216 97.127518 
z
" clip-path="url(#p8f993a911d)" style="stroke: #000000"/>
    <path d="M 62.503196 133.107541 
C 62.883977 133.107541 63.249214 132.956254 63.518468 132.687001 
C 63.787721 132.417748 63.939007 132.052511 63.939007 131.67173 
C 63.939007 131.290948 63.787721 130.925711 63.518468 130.656458 
C 63.249214 130.387205 62.883977 130.235919 62.503196 130.235919 
C 62.122414 130.235919 61.757178 130.387205 61.487924 130.656458 
C 61.218671 130.925711 61.067385 131.290948 61.067385 131.67173 
C 61.067385 132.052511 61.218671 132.417748 61.487924 132.687001 
C 61.757178 132.956254 62.122414 133.107541 62.503196 133.107541 
z
" clip-path="url(#p8f993a911d)" style="stroke: #000000"/>
    <path d="M 59.683574 125.043637 
C 59.952827 125.043637 60.211088 124.936661 60.401479 124.74627 
C 60.59187 124.55588 60.698845 124.297618 60.698845 124.028365 
C 60.698845 123.759112 60.59187 123.50085 60.401479 123.31046 
C 60.211088 123.120069 59.952827 123.013093 59.683574 123.013093 
C 59.41432 123.013093 59.156059 123.120069 58.965668 123.31046 
C 58.775277 123.50085 58.668302 123.759112 58.668302 124.028365 
C 58.668302 124.297618 58.775277 124.55588 58.965668 124.74627 
C 59.156059 124.936661 59.41432 125.043637 59.683574 125.043637 
z
" clip-path="url(#p8f993a911d)" style="stroke: #000000"/>
    <path d="M 51.061648 109.071222 
C 51.602612 109.071222 52.121492 108.856294 52.504012 108.473775 
C 52.886531 108.091256 53.101459 107.572375 53.101459 107.031411 
C 53.101459 106.490447 52.886531 105.971566 52.504012 105.589047 
C 52.121492 105.206527 51.602612 104.9916 51.061648 104.9916 
C 50.520683 104.9916 50.001803 105.206527 49.619283 105.589047 
C 49.236764 105.971566 49.021837 106.490447 49.021837 107.031411 
C 49.021837 107.572375 49.236764 108.091256 49.619283 108.473775 
C 50.001803 108.856294 50.520683 109.071222 51.061648 109.071222 
z
" clip-path="url(#p8f993a911d)" style="stroke: #000000"/>
   </g>
   <g id="matplotlib.axis_1">
    <g id="xtick_1">
     <g id="line2d_1">
      <defs>
       <path id="m3e362f1126" d="M 0 0 
L 0 3.5 
" style="stroke: #000000; stroke-width: 0.8"/>
      </defs>
      <g>
       <use xlink:href="#m3e362f1126" x="18" y="189" style="stroke: #000000; stroke-width: 0.8"/>
      </g>
     </g>
     <g id="text_1">
      <!-- −10 -->
      <g transform="translate(7.447656 203.598437)scale(0.1 -0.1)">
       <defs>
        <path id="DejaVuSans-2212" d="M 678 2272 
L 4684 2272 
L 4684 1741 
L 678 1741 
L 678 2272 
z
" transform="scale(0.015625)"/>
        <path id="DejaVuSans-31" d="M 794 531 
L 1825 531 
L 1825 4091 
L 703 3866 
L 703 4441 
L 1819 4666 
L 2450 4666 
L 2450 531 
L 3481 531 
L 3481 0 
L 794 0 
L 794 531 
z
" transform="scale(0.015625)"/>
        <path id="DejaVuSans-30" d="M 2034 4250 
Q 1547 4250 1301 3770 
Q 1056 3291 1056 2328 
Q 1056 1369 1301 889 
Q 1547 409 2034 409 
Q 2525 409 2770 889 
Q 3016 1369 3016 2328 
Q 3016 3291 2770 3770 
Q 2525 4250 2034 4250 
z
M 2034 4750 
Q 2819 4750 3233 4129 
Q 3647 3509 3647 2328 
Q 3647 1150 3233 529 
Q 2819 -91 2034 -91 
Q 1250 -91 836 529 
Q 422 1150 422 2328 
Q 422 3509 836 4129 
Q 1250 4750 2034 4750 
z
" transform="scale(0.015625)"/>
       </defs>
       <use xlink:href="#DejaVuSans-2212"/>
       <use xlink:href="#DejaVuSans-31" x="83.789062"/>
       <use xlink:href="#DejaVuSans-30" x="147.412109"/>
      </g>
     </g>
    </g>
    <g id="xtick_2">
     <g id="line2d_2">
      <g>
       <use xlink:href="#m3e362f1126" x="73.8" y="189" style="stroke: #000000; stroke-width: 0.8"/>
      </g>
     </g>
     <g id="text_2">
      <!-- 0 -->
      <g transform="translate(70.61875 203.598437)scale(0.1 -0.1)">
       <use xlink:href="#DejaVuSans-30"/>
      </g>
     </g>
    </g>
    <g id="xtick_3">
     <g id="line2d_3">
      <g>
       <use xlink:href="#m3e362f1126" x="129.6" y="189" style="stroke: #000000; stroke-width: 0.8"/>
      </g>
     </g>
     <g id="text_3">
      <!-- 10 -->
      <g transform="translate(123.2375 203.598437)scale(0.1 -0.1)">
       <use xlink:href="#DejaVuSans-31"/>
       <use xlink:href="#DejaVuSans-30" x="63.623047"/>
      </g>
     </g>
    </g>
   </g>
   <g id="matplotlib.axis_2">
    <g id="ytick_1">
     <g id="line2d_4">
      <defs>
       <path id="m5d2f4e757e" d="M 0 0 
L -3.5 0 
" style="stroke: #000000; stroke-width: 0.8"/>
      </defs>
      <g>
       <use xlink:href="#m5d2f4e757e" x="18" y="189" style="stroke: #000000; stroke-width: 0.8"/>
      </g>
     </g>
     <g id="text_4">
      <!-- −15 -->
      <g transform="translate(-10.104688 192.799219)scale(0.1 -0.1)">
       <defs>
        <path id="DejaVuSans-35" d="M 691 4666 
L 3169 4666 
L 3169 4134 
L 1269 4134 
L 1269 2991 
Q 1406 3038 1543 3061 
Q 1681 3084 1819 3084 
Q 2600 3084 3056 2656 
Q 3513 2228 3513 1497 
Q 3513 744 3044 326 
Q 2575 -91 1722 -91 
Q 1428 -91 1123 -41 
Q 819 9 494 109 
L 494 744 
Q 775 591 1075 516 
Q 1375 441 1709 441 
Q 2250 441 2565 725 
Q 2881 1009 2881 1497 
Q 2881 1984 2565 2268 
Q 2250 2553 1709 2553 
Q 1456 2553 1204 2497 
Q 953 2441 691 2322 
L 691 4666 
z
" transform="scale(0.015625)"/>
       </defs>
       <use xlink:href="#DejaVuSans-2212"/>
       <use xlink:href="#DejaVuSans-31" x="83.789062"/>
       <use xlink:href="#DejaVuSans-35" x="147.412109"/>
      </g>
     </g>
    </g>
    <g id="ytick_2">
     <g id="line2d_5">
      <g>
       <use xlink:href="#m5d2f4e757e" x="18" y="161.82" style="stroke: #000000; stroke-width: 0.8"/>
      </g>
     </g>
     <g id="text_5">
      <!-- −10 -->
      <g transform="translate(-10.104688 165.619219)scale(0.1 -0.1)">
       <use xlink:href="#DejaVuSans-2212"/>
       <use xlink:href="#DejaVuSans-31" x="83.789062"/>
       <use xlink:href="#DejaVuSans-30" x="147.412109"/>
      </g>
     </g>
    </g>
    <g id="ytick_3">
     <g id="line2d_6">
      <g>
       <use xlink:href="#m5d2f4e757e" x="18" y="134.64" style="stroke: #000000; stroke-width: 0.8"/>
      </g>
     </g>
     <g id="text_6">
      <!-- −5 -->
      <g transform="translate(-3.742188 138.439219)scale(0.1 -0.1)">
       <use xlink:href="#DejaVuSans-2212"/>
       <use xlink:href="#DejaVuSans-35" x="83.789062"/>
      </g>
     </g>
    </g>
    <g id="ytick_4">
     <g id="line2d_7">
      <g>
       <use xlink:href="#m5d2f4e757e" x="18" y="107.46" style="stroke: #000000; stroke-width: 0.8"/>
      </g>
     </g>
     <g id="text_7">
      <!-- 0 -->
      <g transform="translate(4.6375 111.259219)scale(0.1 -0.1)">
       <use xlink:href="#DejaVuSans-30"/>
      </g>
     </g>
    </g>
    <g id="ytick_5">
     <g id="line2d_8">
      <g>
       <use xlink:href="#m5d2f4e757e" x="18" y="80.28" style="stroke: #000000; stroke-width: 0.8"/>
      </g>
     </g>
     <g id="text_8">
      <!-- 5 -->
      <g transform="translate(4.6375 84.079219)scale(0.1 -0.1)">
       <use xlink:href="#DejaVuSans-35"/>
      </g>
     </g>
    </g>
    <g id="ytick_6">
     <g id="line2d_9">
      <g>
       <use xlink:href="#m5d2f4e757e" x="18" y="53.1" style="stroke: #000000; stroke-width: 0.8"/>
      </g>
     </g>
     <g id="text_9">
      <!-- 10 -->
      <g transform="translate(-1.725 56.899219)scale(0.1 -0.1)">
       <use xlink:href="#DejaVuSans-31"/>
       <use xlink:href="#DejaVuSans-30" x="63.623047"/>
      </g>
     </g>
    </g>
    <g id="ytick_7">
     <g id="line2d_10">
      <g>
       <use xlink:href="#m5d2f4e757e" x="18" y="25.92" style="stroke: #000000; stroke-width: 0.8"/>
      </g>
     </g>
     <g id="text_10">
      <!-- 15 -->
      <g transform="translate(-1.725 29.719219)scale(0.1 -0.1)">
       <use xlink:href="#DejaVuSans-31"/>
       <use xlink:href="#DejaVuSans-35" x="63.623047"/>
      </g>
     </g>
    </g>
   </g>
   <g id="patch_3">
    <path d="M 18 189 
L 18 25.92 
" style="fill: none; stroke: #000000; stroke-width: 0.8; stroke-linejoin: miter; stroke-linecap: square"/>
   </g>
   <g id="patch_4">
    <path d="M 129.6 189 
L 129.6 25.92 
" style="fill: none; stroke: #000000; stroke-width: 0.8; stroke-linejoin: miter; stroke-linecap: square"/>
   </g>
   <g id="patch_5">
    <path d="M 18 189 
L 129.6 189 
" style="fill: none; stroke: #000000; stroke-width: 0.8; stroke-linejoin: miter; stroke-linecap: square"/>
   </g>
   <g id="patch_6">
    <path d="M 18 25.92 
L 129.6 25.92 
" style="fill: none; stroke: #000000; stroke-width: 0.8; stroke-linejoin: miter; stroke-linecap: square"/>
   </g>
  </g>
 </g>
 <defs>
  <clipPath id="p8f993a911d">
   <rect x="18" y="25.92" width="111.6" height="163.08"/>
  </clipPath>
 </defs>
</svg>
