<?xml version="1.0" encoding="UTF-8" standalone="no"?>
<svg
   xmlns:dc="http://purl.org/dc/elements/1.1/"
   xmlns:cc="http://creativecommons.org/ns#"
   xmlns:rdf="http://www.w3.org/1999/02/22-rdf-syntax-ns#"
   xmlns:svg="http://www.w3.org/2000/svg"
   xmlns="http://www.w3.org/2000/svg"
   xmlns:xlink="http://www.w3.org/1999/xlink"
   xmlns:sodipodi="http://sodipodi.sourceforge.net/DTD/sodipodi-0.dtd"
   xmlns:inkscape="http://www.inkscape.org/namespaces/inkscape"
   width="144pt"
   height="216pt"
   viewBox="0 0 144 216"
   version="1.1"
   id="svg244"
   sodipodi:docname="180.svg"
   inkscape:version="0.92.1 r15371">
  <sodipodi:namedview
     pagecolor="#ffffff"
     bordercolor="#666666"
     borderopacity="1"
     objecttolerance="10"
     gridtolerance="10"
     guidetolerance="10"
     inkscape:pageopacity="0"
     inkscape:pageshadow="2"
     inkscape:window-width="7740"
     inkscape:window-height="3122"
     id="namedview246"
     showgrid="false"
     inkscape:zoom="4.6354778"
     inkscape:cx="241.08009"
     inkscape:cy="42.795097"
     inkscape:window-x="443"
     inkscape:window-y="-14"
     inkscape:window-maximized="1"
     inkscape:current-layer="axes_1" />
  <metadata
     id="metadata2">
    <rdf:RDF>
      <cc:Work>
        <dc:type
           rdf:resource="http://purl.org/dc/dcmitype/StillImage" />
        <dc:date>2022-06-28T09:26:54.772949</dc:date>
        <dc:format>image/svg+xml</dc:format>
        <dc:creator>
          <cc:Agent>
            <dc:title>Matplotlib v3.5.1, https://matplotlib.org/</dc:title>
          </cc:Agent>
        </dc:creator>
      </cc:Work>
    </rdf:RDF>
  </metadata>
  <defs
     id="defs6">
    <style
       type="text/css"
       id="style4">*{stroke-linejoin: round; stroke-linecap: butt}</style>
    <defs
       id="defs35">
      <path
         d="M 0 2.738613  C 0.726289 2.738613 1.422928 2.450055 1.936492 1.936492  C 2.450055 1.422928 2.738613 0.726289 2.738613 -0  C 2.738613 -0.726289 2.450055 -1.422928 1.936492 -1.936492  C 1.422928 -2.450055 0.726289 -2.738613 0 -2.738613  C -0.726289 -2.738613 -1.422928 -2.450055 -1.936492 -1.936492  C -2.450055 -1.422928 -2.738613 -0.726289 -2.738613 0  C -2.738613 0.726289 -2.450055 1.422928 -1.936492 1.936492  C -1.422928 2.450055 -0.726289 2.738613 0 2.738613  z "
         id="C0_0_2d09e6a729" />
    </defs>
    <defs
       id="defs15">
      <path
         style="stroke: #ff0000; stroke-width: 1.75"
         d="M 0 2.738613  C 0.726289 2.738613 1.422928 2.450055 1.936492 1.936492  C 2.450055 1.422928 2.738613 0.726289 2.738613 0  C 2.738613 -0.726289 2.450055 -1.422928 1.936492 -1.936492  C 1.422928 -2.450055 0.726289 -2.738613 0 -2.738613  C -0.726289 -2.738613 -1.422928 -2.450055 -1.936492 -1.936492  C -2.450055 -1.422928 -2.738613 -0.726289 -2.738613 0  C -2.738613 0.726289 -2.450055 1.422928 -1.936492 1.936492  C -1.422928 2.450055 -0.726289 2.738613 0 2.738613  z "
         id="mc79824c7fd" />
    </defs>
  </defs>
  <g
     id="figure_1">
    <g
       id="patch_1">
      <path
         d="M 0 216  L 144 216  L 144 0  L 0 0  L 0 216  z "
         style="fill: none"
         id="path8" />
    </g>
    <g
       id="axes_1">
      <g
         style="stroke-linecap:butt;stroke-linejoin:round"
         id="g31"
         clip-path="url(#p6a6af9f7bf)">
        <use
           height="100%"
           width="100%"
           id="use17"
           style="fill:#ff0000;stroke:#ff0000;stroke-width:1.75;stroke-linecap:butt;stroke-linejoin:round"
           y="107.46"
           x="80.775002"
           xlink:href="#mc79824c7fd" />
        <use
           height="100%"
           width="100%"
           id="use19"
           style="fill:#ff0000;stroke:#ff0000;stroke-width:1.75;stroke-linecap:butt;stroke-linejoin:round"
           y="107.46"
           x="94.724998"
           xlink:href="#mc79824c7fd" />
        <use
           height="100%"
           width="100%"
           id="use21"
           style="fill:#ff0000;stroke:#ff0000;stroke-width:1.75;stroke-linecap:butt;stroke-linejoin:round"
           y="119.22929"
           x="59.849998"
           xlink:href="#mc79824c7fd" />
        <use
           height="100%"
           width="100%"
           id="use23"
           style="fill:#ff0000;stroke:#ff0000;stroke-width:1.75;stroke-linecap:butt;stroke-linejoin:round"
           y="119.22929"
           x="73.800003"
           xlink:href="#mc79824c7fd" />
        <use
           height="100%"
           width="100%"
           id="use25"
           style="fill:#ff0000;stroke:#ff0000;stroke-width:1.75;stroke-linecap:butt;stroke-linejoin:round"
           y="119.22929"
           x="87.75"
           xlink:href="#mc79824c7fd" />
        <use
           height="100%"
           width="100%"
           id="use27"
           style="fill:#ff0000;stroke:#ff0000;stroke-width:1.75;stroke-linecap:butt;stroke-linejoin:round"
           y="130.99857"
           x="66.824997"
           xlink:href="#mc79824c7fd" />
        <use
           height="100%"
           width="100%"
           id="use29"
           style="fill:#ff0000;stroke:#ff0000;stroke-width:1.75;stroke-linecap:butt;stroke-linejoin:round"
           y="130.99857"
           x="80.775002"
           xlink:href="#mc79824c7fd" />
      </g>
      <g
         style="stroke-linecap:butt;stroke-linejoin:round"
         id="g39"
         clip-path="url(#p6a6af9f7bf)">
        <use
           height="100%"
           width="100%"
           id="use37"
           style="fill:none;stroke:#ff0000;stroke-width:1.75;stroke-linecap:butt;stroke-linejoin:round"
           y="83.921432"
           x="66.824997"
           xlink:href="#C0_0_2d09e6a729" />
      </g>
      <g
         style="stroke-linecap:butt;stroke-linejoin:round"
         id="g43"
         clip-path="url(#p6a6af9f7bf)">
        <use
           height="100%"
           width="100%"
           id="use41"
           style="fill:none;stroke:#ff0000;stroke-width:1.75;stroke-linecap:butt;stroke-linejoin:round"
           y="83.921432"
           x="80.775002"
           xlink:href="#C0_0_2d09e6a729" />
      </g>
      <g
         style="stroke-linecap:butt;stroke-linejoin:round"
         id="g47"
         clip-path="url(#p6a6af9f7bf)">
        <use
           height="100%"
           width="100%"
           id="use45"
           style="fill:none;stroke:#ff0000;stroke-width:1.75;stroke-linecap:butt;stroke-linejoin:round"
           y="95.690712"
           x="59.849998"
           xlink:href="#C0_0_2d09e6a729" />
      </g>
      <g
         style="stroke-linecap:butt;stroke-linejoin:round"
         id="g51"
         clip-path="url(#p6a6af9f7bf)">
        <use
           height="100%"
           width="100%"
           id="use49"
           style="fill:none;stroke:#ff0000;stroke-width:1.75;stroke-linecap:butt;stroke-linejoin:round"
           y="95.690712"
           x="73.800003"
           xlink:href="#C0_0_2d09e6a729" />
      </g>
      <g
         style="stroke-linecap:butt;stroke-linejoin:round"
         id="g55"
         clip-path="url(#p6a6af9f7bf)">
        <use
           height="100%"
           width="100%"
           id="use53"
           style="fill:none;stroke:#ff0000;stroke-width:1.75;stroke-linecap:butt;stroke-linejoin:round"
           y="95.690712"
           x="87.75"
           xlink:href="#C0_0_2d09e6a729" />
      </g>
      <g
         style="stroke-linecap:butt;stroke-linejoin:round"
         id="g59"
         clip-path="url(#p6a6af9f7bf)">
        <use
           height="100%"
           width="100%"
           id="use57"
           style="fill:none;stroke:#ff0000;stroke-width:1.75;stroke-linecap:butt;stroke-linejoin:round"
           y="107.46"
           x="52.875"
           xlink:href="#C0_0_2d09e6a729" />
      </g>
      <g
         style="stroke-linecap:butt;stroke-linejoin:round"
         id="g63"
         clip-path="url(#p6a6af9f7bf)">
        <use
           height="100%"
           width="100%"
           id="use61"
           style="fill:none;stroke:#ff0000;stroke-width:1.75;stroke-linecap:butt;stroke-linejoin:round"
           y="107.46"
           x="66.824997"
           xlink:href="#C0_0_2d09e6a729" />
      </g>
      <path
         inkscape:connector-curvature="0"
         id="path66"
         style="stroke:#000000;stroke-linecap:butt;stroke-linejoin:round"
         clip-path="url(#p6a6af9f7bf)"
         d="m 91.594068,118.71997 c 0.593382,0 1.162541,-0.23575 1.582126,-0.65534 0.419584,-0.41958 0.655338,-0.98874 0.655338,-1.58212 0,-0.59338 -0.235754,-1.16254 -0.655338,-1.58213 -0.419585,-0.41958 -0.988744,-0.65533 -1.582126,-0.65533 -0.593383,0 -1.162542,0.23575 -1.582127,0.65533 -0.419584,0.41959 -0.655338,0.98875 -0.655338,1.58213 0,0.59338 0.235754,1.16254 0.655338,1.58212 0.419585,0.41959 0.988744,0.65534 1.582127,0.65534 z" />
      <path
         inkscape:connector-curvature="0"
         id="path68"
         style="stroke:#000000;stroke-linecap:butt;stroke-linejoin:round"
         clip-path="url(#p6a6af9f7bf)"
         d="m 87.805626,99.455713 c 0.593383,0 1.162542,-0.235753 1.582127,-0.655338 0.419584,-0.419585 0.655338,-0.988744 0.655338,-1.582126 0,-0.593383 -0.235754,-1.162542 -0.655338,-1.582126 -0.419585,-0.419585 -0.988744,-0.655338 -1.582127,-0.655338 -0.593382,0 -1.162541,0.235753 -1.582126,0.655338 -0.419584,0.419584 -0.655338,0.988743 -0.655338,1.582126 0,0.593382 0.235754,1.162541 0.655338,1.582126 0.419585,0.419585 0.988744,0.655338 1.582126,0.655338 z" />
      <path
         inkscape:connector-curvature="0"
         id="path70"
         style="stroke:#000000;stroke-linecap:butt;stroke-linejoin:round"
         clip-path="url(#p6a6af9f7bf)"
         d="m 83.077407,88.950801 c 0.593383,0 1.162542,-0.235753 1.582126,-0.655338 0.419585,-0.419585 0.655339,-0.988744 0.655339,-1.582126 0,-0.593382 -0.235754,-1.162541 -0.655339,-1.582126 -0.419584,-0.419585 -0.988743,-0.655338 -1.582126,-0.655338 -0.593382,0 -1.162541,0.235753 -1.582126,0.655338 -0.419585,0.419585 -0.655338,0.988744 -0.655338,1.582126 0,0.593382 0.235753,1.162541 0.655338,1.582126 0.419585,0.419585 0.988744,0.655338 1.582126,0.655338 z" />
      <path
         inkscape:connector-curvature="0"
         id="path72"
         style="stroke:#000000;stroke-linecap:butt;stroke-linejoin:round"
         clip-path="url(#p6a6af9f7bf)"
         d="m 79.203431,109.65728 c 0.293495,0 0.57501,-0.11661 0.782542,-0.32414 0.207533,-0.20753 0.32414,-0.48905 0.32414,-0.78254 0,-0.2935 -0.116607,-0.57501 -0.32414,-0.78254 -0.207532,-0.20754 -0.489047,-0.32414 -0.782542,-0.32414 -0.293495,0 -0.57501,0.1166 -0.782542,0.32414 -0.207533,0.20753 -0.32414,0.48904 -0.32414,0.78254 0,0.29349 0.116607,0.57501 0.32414,0.78254 0.207532,0.20753 0.489047,0.32414 0.782542,0.32414 z" />
      <path
         inkscape:connector-curvature="0"
         id="path74"
         style="stroke:#000000;stroke-linecap:butt;stroke-linejoin:round"
         clip-path="url(#p6a6af9f7bf)"
         d="m 57.921634,117.75672 c 0.235803,0 0.461979,-0.0937 0.628717,-0.26043 0.166737,-0.16673 0.260423,-0.39291 0.260423,-0.62871 0,-0.2358 -0.09369,-0.46198 -0.260423,-0.62872 -0.166738,-0.16674 -0.392914,-0.26042 -0.628717,-0.26042 -0.235802,0 -0.461979,0.0937 -0.628717,0.26042 -0.166737,0.16674 -0.260423,0.39292 -0.260423,0.62872 0,0.2358 0.09369,0.46198 0.260423,0.62871 0.166738,0.16674 0.392915,0.26043 0.628717,0.26043 z" />
      <path
         inkscape:connector-curvature="0"
         id="path76"
         style="stroke:#000000;stroke-linecap:butt;stroke-linejoin:round"
         clip-path="url(#p6a6af9f7bf)"
         d="m 50.370235,107.97996 c 0.593383,0 1.162542,-0.23575 1.582127,-0.65534 0.419584,-0.41958 0.655338,-0.98874 0.655338,-1.58212 0,-0.59339 -0.235754,-1.16255 -0.655338,-1.58213 -0.419585,-0.41958 -0.988744,-0.65534 -1.582127,-0.65534 -0.593382,0 -1.162541,0.23576 -1.582126,0.65534 -0.419584,0.41958 -0.655338,0.98874 -0.655338,1.58213 0,0.59338 0.235754,1.16254 0.655338,1.58212 0.419585,0.41959 0.988744,0.65534 1.582126,0.65534 z" />
      <path
         inkscape:connector-curvature="0"
         id="path225"
         style="fill:none;stroke:#000000;stroke-width:0.08503937;stroke-linecap:square;stroke-linejoin:miter;stroke-miterlimit:4;stroke-dasharray:none"
         d="M 18,189 V 25.92" />
      <path
         inkscape:connector-curvature="0"
         id="path228"
         style="fill:none;stroke:#000000;stroke-width:0.08503937;stroke-linecap:square;stroke-linejoin:miter;stroke-miterlimit:4;stroke-dasharray:none"
         d="M 129.6,189 V 25.92" />
      <path
         inkscape:connector-curvature="0"
         id="path231"
         style="fill:none;stroke:#000000;stroke-width:0.08503937;stroke-linecap:square;stroke-linejoin:miter;stroke-miterlimit:4;stroke-dasharray:none"
         d="M 18,189 H 129.6" />
      <path
         inkscape:connector-curvature="0"
         id="path234"
         style="fill:none;stroke:#000000;stroke-width:0.08503937;stroke-linecap:square;stroke-linejoin:miter;stroke-miterlimit:4;stroke-dasharray:none"
         d="M 18,25.92 H 129.6" />
    </g>
  </g>
  <defs
     id="defs242">
    <clipPath
       id="p6a6af9f7bf">
      <rect
         x="18"
         y="25.92"
         width="111.6"
         height="163.08"
         id="rect239" />
    </clipPath>
  </defs>
</svg>
