<?xml version="1.0" encoding="utf-8" standalone="no"?>
<!DOCTYPE svg PUBLIC "-//W3C//DTD SVG 1.1//EN"
  "http://www.w3.org/Graphics/SVG/1.1/DTD/svg11.dtd">
<svg xmlns:xlink="http://www.w3.org/1999/xlink" width="144pt" height="216pt" viewBox="0 0 144 216" xmlns="http://www.w3.org/2000/svg" version="1.1">
 <metadata>
  <rdf:RDF xmlns:dc="http://purl.org/dc/elements/1.1/" xmlns:cc="http://creativecommons.org/ns#" xmlns:rdf="http://www.w3.org/1999/02/22-rdf-syntax-ns#">
   <cc:Work>
    <dc:type rdf:resource="http://purl.org/dc/dcmitype/StillImage"/>
    <dc:date>2022-06-28T09:24:28.922588</dc:date>
    <dc:format>image/svg+xml</dc:format>
    <dc:creator>
     <cc:Agent>
      <dc:title>Matplotlib v3.5.1, https://matplotlib.org/</dc:title>
     </cc:Agent>
    </dc:creator>
   </cc:Work>
  </rdf:RDF>
 </metadata>
 <defs>
  <style type="text/css">*{stroke-linejoin: round; stroke-linecap: butt}</style>
 </defs>
 <g id="figure_1">
  <g id="patch_1">
   <path d="M 0 216 
L 144 216 
L 144 0 
L 0 0 
L 0 216 
z
" style="fill: none"/>
  </g>
  <g id="axes_1">
   <g id="patch_2">
    <path d="M 18 189 
L 129.6 189 
L 129.6 25.92 
L 18 25.92 
z
" style="fill: #ffffff"/>
   </g>
   <g id="PathCollection_1">
    <defs>
     <path id="m66b925187a" d="M 0 2.738613 
C 0.726289 2.738613 1.422928 2.450055 1.936492 1.936492 
C 2.450055 1.422928 2.738613 0.726289 2.738613 0 
C 2.738613 -0.726289 2.450055 -1.422928 1.936492 -1.936492 
C 1.422928 -2.450055 0.726289 -2.738613 0 -2.738613 
C -0.726289 -2.738613 -1.422928 -2.450055 -1.936492 -1.936492 
C -2.450055 -1.422928 -2.738613 -0.726289 -2.738613 0 
C -2.738613 0.726289 -2.450055 1.422928 -1.936492 1.936492 
C -1.422928 2.450055 -0.726289 2.738613 0 2.738613 
z
" style="stroke: #ff0000; stroke-width: 1.75"/>
    </defs>
    <g clip-path="url(#p8228066fed)">
     <use xlink:href="#m66b925187a" x="80.775" y="107.46" style="fill: #ff0000; stroke: #ff0000; stroke-width: 1.75"/>
     <use xlink:href="#m66b925187a" x="94.725" y="107.46" style="fill: #ff0000; stroke: #ff0000; stroke-width: 1.75"/>
     <use xlink:href="#m66b925187a" x="59.85" y="119.229285" style="fill: #ff0000; stroke: #ff0000; stroke-width: 1.75"/>
     <use xlink:href="#m66b925187a" x="73.8" y="119.229285" style="fill: #ff0000; stroke: #ff0000; stroke-width: 1.75"/>
     <use xlink:href="#m66b925187a" x="87.75" y="119.229285" style="fill: #ff0000; stroke: #ff0000; stroke-width: 1.75"/>
     <use xlink:href="#m66b925187a" x="66.825" y="130.99857" style="fill: #ff0000; stroke: #ff0000; stroke-width: 1.75"/>
     <use xlink:href="#m66b925187a" x="80.775" y="130.99857" style="fill: #ff0000; stroke: #ff0000; stroke-width: 1.75"/>
    </g>
   </g>
   <g id="PathCollection_2">
    <defs>
     <path id="C0_0_0d721ac8c9" d="M 0 2.738613 
C 0.726289 2.738613 1.422928 2.450055 1.936492 1.936492 
C 2.450055 1.422928 2.738613 0.726289 2.738613 -0 
C 2.738613 -0.726289 2.450055 -1.422928 1.936492 -1.936492 
C 1.422928 -2.450055 0.726289 -2.738613 0 -2.738613 
C -0.726289 -2.738613 -1.422928 -2.450055 -1.936492 -1.936492 
C -2.450055 -1.422928 -2.738613 -0.726289 -2.738613 0 
C -2.738613 0.726289 -2.450055 1.422928 -1.936492 1.936492 
C -1.422928 2.450055 -0.726289 2.738613 0 2.738613 
z
"/>
    </defs>
    <g clip-path="url(#p8228066fed)">
     <use xlink:href="#C0_0_0d721ac8c9" x="66.825" y="83.92143" style="fill: none; stroke: #ff0000; stroke-width: 1.75"/>
    </g>
    <g clip-path="url(#p8228066fed)">
     <use xlink:href="#C0_0_0d721ac8c9" x="80.775" y="83.92143" style="fill: none; stroke: #ff0000; stroke-width: 1.75"/>
    </g>
    <g clip-path="url(#p8228066fed)">
     <use xlink:href="#C0_0_0d721ac8c9" x="59.85" y="95.690715" style="fill: none; stroke: #ff0000; stroke-width: 1.75"/>
    </g>
    <g clip-path="url(#p8228066fed)">
     <use xlink:href="#C0_0_0d721ac8c9" x="73.8" y="95.690715" style="fill: none; stroke: #ff0000; stroke-width: 1.75"/>
    </g>
    <g clip-path="url(#p8228066fed)">
     <use xlink:href="#C0_0_0d721ac8c9" x="87.75" y="95.690715" style="fill: none; stroke: #ff0000; stroke-width: 1.75"/>
    </g>
    <g clip-path="url(#p8228066fed)">
     <use xlink:href="#C0_0_0d721ac8c9" x="52.875" y="107.46" style="fill: none; stroke: #ff0000; stroke-width: 1.75"/>
    </g>
    <g clip-path="url(#p8228066fed)">
     <use xlink:href="#C0_0_0d721ac8c9" x="66.825" y="107.46" style="fill: none; stroke: #ff0000; stroke-width: 1.75"/>
    </g>
   </g>
   <g id="PathCollection_3">
    <path d="M 97.43029 109.825213 
C 98.03058 109.825213 98.606364 109.586715 99.030833 109.162246 
C 99.455302 108.737778 99.693799 108.161993 99.693799 107.561704 
C 99.693799 106.961414 99.455302 106.38563 99.030833 105.961161 
C 98.606364 105.536692 98.03058 105.298194 97.43029 105.298194 
C 96.83 105.298194 96.254216 105.536692 95.829747 105.961161 
C 95.405278 106.38563 95.16678 106.961414 95.16678 107.561704 
C 95.16678 108.161993 95.405278 108.737778 95.829747 109.162246 
C 96.254216 109.586715 96.83 109.825213 97.43029 109.825213 
z
" clip-path="url(#p8228066fed)" style="stroke: #000000"/>
    <path d="M 91.655833 110.366808 
C 91.813523 110.366808 91.964777 110.304157 92.076281 110.192653 
C 92.187785 110.081149 92.250436 109.929895 92.250436 109.772205 
C 92.250436 109.614514 92.187785 109.46326 92.076281 109.351756 
C 91.964777 109.240252 91.813523 109.177601 91.655833 109.177601 
C 91.498142 109.177601 91.346889 109.240252 91.235385 109.351756 
C 91.12388 109.46326 91.061229 109.614514 91.061229 109.772205 
C 91.061229 109.929895 91.12388 110.081149 91.235385 110.192653 
C 91.346889 110.304157 91.498142 110.366808 91.655833 110.366808 
z
" clip-path="url(#p8228066fed)" style="stroke: #000000"/>
    <path d="M 85.073589 106.973028 
C 85.473827 106.973028 85.857726 106.814011 86.140737 106.531001 
C 86.423747 106.24799 86.582764 105.864091 86.582764 105.463853 
C 86.582764 105.063615 86.423747 104.679716 86.140737 104.396705 
C 85.857726 104.113694 85.473827 103.954678 85.073589 103.954678 
C 84.673351 103.954678 84.289452 104.113694 84.006441 104.396705 
C 83.72343 104.679716 83.564414 105.063615 83.564414 105.463853 
C 83.564414 105.864091 83.72343 106.24799 84.006441 106.531001 
C 84.289452 106.814011 84.673351 106.973028 85.073589 106.973028 
z
" clip-path="url(#p8228066fed)" style="stroke: #000000"/>
    <path d="M 88.826632 100.176558 
C 89.270012 100.176558 89.695292 100.000401 90.008809 99.686884 
C 90.322326 99.373367 90.498483 98.948087 90.498483 98.504707 
C 90.498483 98.061327 90.322326 97.636047 90.008809 97.32253 
C 89.695292 97.009013 89.270012 96.832856 88.826632 96.832856 
C 88.383252 96.832856 87.957972 97.009013 87.644455 97.32253 
C 87.330938 97.636047 87.154781 98.061327 87.154781 98.504707 
C 87.154781 98.948087 87.330938 99.373367 87.644455 99.686884 
C 87.957972 100.000401 88.383252 100.176558 88.826632 100.176558 
z
" clip-path="url(#p8228066fed)" style="stroke: #000000"/>
    <path d="M 83.208467 87.190543 
C 83.812999 87.190543 84.392853 86.950359 84.820322 86.52289 
C 85.247791 86.095421 85.487974 85.515568 85.487974 84.911035 
C 85.487974 84.306503 85.247791 83.726649 84.820322 83.299181 
C 84.392853 82.871712 83.812999 82.631528 83.208467 82.631528 
C 82.603934 82.631528 82.024081 82.871712 81.596612 83.299181 
C 81.169143 83.726649 80.92896 84.306503 80.92896 84.911035 
C 80.92896 85.515568 81.169143 86.095421 81.596612 86.52289 
C 82.024081 86.950359 82.603934 87.190543 83.208467 87.190543 
z
" clip-path="url(#p8228066fed)" style="stroke: #000000"/>
    <path d="M 80.460069 80.274911 
C 80.61776 80.274911 80.769013 80.21226 80.880517 80.100756 
C 80.992021 79.989252 81.054673 79.837998 81.054673 79.680307 
C 81.054673 79.522617 80.992021 79.371363 80.880517 79.259859 
C 80.769013 79.148355 80.61776 79.085704 80.460069 79.085704 
C 80.302378 79.085704 80.151125 79.148355 80.039621 79.259859 
C 79.928117 79.371363 79.865465 79.522617 79.865465 79.680307 
C 79.865465 79.837998 79.928117 79.989252 80.039621 80.100756 
C 80.151125 80.21226 80.302378 80.274911 80.460069 80.274911 
z
" clip-path="url(#p8228066fed)" style="stroke: #000000"/>
    <path d="M 86.8111 120.077682 
C 87.321205 120.077682 87.810486 119.875015 88.171185 119.514317 
C 88.531883 119.153618 88.73455 118.664337 88.73455 118.154232 
C 88.73455 117.644127 88.531883 117.154846 88.171185 116.794147 
C 87.810486 116.433448 87.321205 116.230781 86.8111 116.230781 
C 86.300994 116.230781 85.811713 116.433448 85.451015 116.794147 
C 85.090316 117.154846 84.887649 117.644127 84.887649 118.154232 
C 84.887649 118.664337 85.090316 119.153618 85.451015 119.514317 
C 85.811713 119.875015 86.300994 120.077682 86.8111 120.077682 
z
" clip-path="url(#p8228066fed)" style="stroke: #000000"/>
    <path d="M 82.17071 108.109509 
C 82.688222 108.109509 83.184608 107.903899 83.550544 107.537963 
C 83.916481 107.172026 84.122091 106.675641 84.122091 106.158128 
C 84.122091 105.640616 83.916481 105.14423 83.550544 104.778294 
C 83.184608 104.412357 82.688222 104.206748 82.17071 104.206748 
C 81.653198 104.206748 81.156812 104.412357 80.790875 104.778294 
C 80.424939 105.14423 80.219329 105.640616 80.219329 106.158128 
C 80.219329 106.675641 80.424939 107.172026 80.790875 107.537963 
C 81.156812 107.903899 81.653198 108.109509 82.17071 108.109509 
z
" clip-path="url(#p8228066fed)" style="stroke: #000000"/>
    <path d="M 77.89278 96.009276 
C 78.091065 96.009276 78.281256 95.930496 78.421465 95.790287 
C 78.561674 95.650078 78.640454 95.459887 78.640454 95.261602 
C 78.640454 95.063316 78.561674 94.873125 78.421465 94.732916 
C 78.281256 94.592707 78.091065 94.513927 77.89278 94.513927 
C 77.694494 94.513927 77.504303 94.592707 77.364094 94.732916 
C 77.223885 94.873125 77.145105 95.063316 77.145105 95.261602 
C 77.145105 95.459887 77.223885 95.650078 77.364094 95.790287 
C 77.504303 95.930496 77.694494 96.009276 77.89278 96.009276 
z
" clip-path="url(#p8228066fed)" style="stroke: #000000"/>
    <path d="M 79.451148 130.03398 
C 79.971974 130.03398 80.471539 129.827053 80.839818 129.458773 
C 81.208098 129.090494 81.415025 128.590929 81.415025 128.070103 
C 81.415025 127.549277 81.208098 127.049712 80.839818 126.681432 
C 80.471539 126.313152 79.971974 126.106226 79.451148 126.106226 
C 78.930322 126.106226 78.430757 126.313152 78.062477 126.681432 
C 77.694197 127.049712 77.487271 127.549277 77.487271 128.070103 
C 77.487271 128.590929 77.694197 129.090494 78.062477 129.458773 
C 78.430757 129.827053 78.930322 130.03398 79.451148 130.03398 
z
" clip-path="url(#p8228066fed)" style="stroke: #000000"/>
    <path d="M 72.54799 95.882771 
C 73.063257 95.882771 73.55749 95.678053 73.921839 95.313704 
C 74.286187 94.949356 74.490905 94.455123 74.490905 93.939856 
C 74.490905 93.424589 74.286187 92.930357 73.921839 92.566008 
C 73.55749 92.20166 73.063257 91.996942 72.54799 91.996942 
C 72.032723 91.996942 71.538491 92.20166 71.174142 92.566008 
C 70.809794 92.930357 70.605076 93.424589 70.605076 93.939856 
C 70.605076 94.455123 70.809794 94.949356 71.174142 95.313704 
C 71.538491 95.678053 72.032723 95.882771 72.54799 95.882771 
z
" clip-path="url(#p8228066fed)" style="stroke: #000000"/>
    <path d="M 68.884622 86.783272 
C 69.407081 86.783272 69.908213 86.575697 70.277648 86.206262 
C 70.647083 85.836827 70.854658 85.335696 70.854658 84.813236 
C 70.854658 84.290776 70.647083 83.789645 70.277648 83.42021 
C 69.908213 83.050775 69.407081 82.8432 68.884622 82.8432 
C 68.362162 82.8432 67.86103 83.050775 67.491595 83.42021 
C 67.122161 83.789645 66.914585 84.290776 66.914585 84.813236 
C 66.914585 85.335696 67.122161 85.836827 67.491595 86.206262 
C 67.86103 86.575697 68.362162 86.783272 68.884622 86.783272 
z
" clip-path="url(#p8228066fed)" style="stroke: #000000"/>
    <path d="M 76.877193 130.714572 
C 77.123993 130.714572 77.360717 130.616517 77.53523 130.442004 
C 77.709744 130.26749 77.807798 130.030766 77.807798 129.783967 
C 77.807798 129.537167 77.709744 129.300443 77.53523 129.12593 
C 77.360717 128.951416 77.123993 128.853362 76.877193 128.853362 
C 76.630394 128.853362 76.39367 128.951416 76.219156 129.12593 
C 76.044643 129.300443 75.946588 129.537167 75.946588 129.783967 
C 75.946588 130.030766 76.044643 130.26749 76.219156 130.442004 
C 76.39367 130.616517 76.630394 130.714572 76.877193 130.714572 
z
" clip-path="url(#p8228066fed)" style="stroke: #000000"/>
    <path d="M 74.837685 122.834627 
C 75.287146 122.834627 75.718258 122.656054 76.036075 122.338237 
C 76.353892 122.02042 76.532465 121.589307 76.532465 121.139846 
C 76.532465 120.690385 76.353892 120.259272 76.036075 119.941456 
C 75.718258 119.623639 75.287146 119.445066 74.837685 119.445066 
C 74.388223 119.445066 73.957111 119.623639 73.639294 119.941456 
C 73.321477 120.259272 73.142904 120.690385 73.142904 121.139846 
C 73.142904 121.589307 73.321477 122.02042 73.639294 122.338237 
C 73.957111 122.656054 74.388223 122.834627 74.837685 122.834627 
z
" clip-path="url(#p8228066fed)" style="stroke: #000000"/>
    <path d="M 71.823752 120.451377 
C 72.342376 120.451377 72.839828 120.245326 73.206551 119.878603 
C 73.573273 119.511881 73.779325 119.014428 73.779325 118.495804 
C 73.779325 117.97718 73.573273 117.479728 73.206551 117.113006 
C 72.839828 116.746283 72.342376 116.540232 71.823752 116.540232 
C 71.305128 116.540232 70.807676 116.746283 70.440953 117.113006 
C 70.074231 117.479728 69.868179 117.97718 69.868179 118.495804 
C 69.868179 119.014428 70.074231 119.511881 70.440953 119.878603 
C 70.807676 120.245326 71.305128 120.451377 71.823752 120.451377 
z
" clip-path="url(#p8228066fed)" style="stroke: #000000"/>
    <path d="M 67.938949 107.785463 
C 68.459228 107.785463 68.958267 107.578754 69.326159 107.210862 
C 69.694051 106.84297 69.90076 106.34393 69.90076 105.823652 
C 69.90076 105.303374 69.694051 104.804335 69.326159 104.436443 
C 68.958267 104.06855 68.459228 103.861842 67.938949 103.861842 
C 67.418671 103.861842 66.919632 104.06855 66.55174 104.436443 
C 66.183848 104.804335 65.977139 105.303374 65.977139 105.823652 
C 65.977139 106.34393 66.183848 106.84297 66.55174 107.210862 
C 66.919632 107.578754 67.418671 107.785463 67.938949 107.785463 
z
" clip-path="url(#p8228066fed)" style="stroke: #000000"/>
    <path d="M 62.659 95.291378 
C 63.12536 95.291378 63.572682 95.106091 63.902448 94.776325 
C 64.232215 94.446558 64.417502 93.999236 64.417502 93.532876 
C 64.417502 93.066516 64.232215 92.619194 63.902448 92.289428 
C 63.572682 91.959661 63.12536 91.774374 62.659 91.774374 
C 62.19264 91.774374 61.745317 91.959661 61.415551 92.289428 
C 61.085785 92.619194 60.900498 93.066516 60.900498 93.532876 
C 60.900498 93.999236 61.085785 94.446558 61.415551 94.776325 
C 61.745317 95.106091 62.19264 95.291378 62.659 95.291378 
z
" clip-path="url(#p8228066fed)" style="stroke: #000000"/>
    <path d="M 69.486775 134.716577 
C 69.906098 134.716577 70.308303 134.549978 70.604809 134.253472 
C 70.901315 133.956966 71.067914 133.554761 71.067914 133.135438 
C 71.067914 132.716115 70.901315 132.31391 70.604809 132.017404 
C 70.308303 131.720898 69.906098 131.554299 69.486775 131.554299 
C 69.067452 131.554299 68.665247 131.720898 68.368741 132.017404 
C 68.072235 132.31391 67.905636 132.716115 67.905636 133.135438 
C 67.905636 133.554761 68.072235 133.956966 68.368741 134.253472 
C 68.665247 134.549978 69.067452 134.716577 69.486775 134.716577 
z
" clip-path="url(#p8228066fed)" style="stroke: #000000"/>
    <path d="M 62.110978 106.08815 
C 62.24358 106.08815 62.370768 106.035467 62.464532 105.941704 
C 62.558295 105.84794 62.610978 105.720752 62.610978 105.58815 
C 62.610978 105.455549 62.558295 105.32836 62.464532 105.234597 
C 62.370768 105.140833 62.24358 105.08815 62.110978 105.08815 
C 61.978377 105.08815 61.851188 105.140833 61.757425 105.234597 
C 61.663662 105.32836 61.610978 105.455549 61.610978 105.58815 
C 61.610978 105.720752 61.663662 105.84794 61.757425 105.941704 
C 61.851188 106.035467 61.978377 106.08815 62.110978 106.08815 
z
" clip-path="url(#p8228066fed)" style="stroke: #000000"/>
    <path d="M 59.835462 100.292587 
C 60.349596 100.292587 60.84274 100.088319 61.206288 99.724772 
C 61.569835 99.361225 61.774102 98.86808 61.774102 98.353947 
C 61.774102 97.839814 61.569835 97.346669 61.206288 96.983122 
C 60.84274 96.619574 60.349596 96.415307 59.835462 96.415307 
C 59.321329 96.415307 58.828184 96.619574 58.464637 96.983122 
C 58.10109 97.346669 57.896823 97.839814 57.896823 98.353947 
C 57.896823 98.86808 58.10109 99.361225 58.464637 99.724772 
C 58.828184 100.088319 59.321329 100.292587 59.835462 100.292587 
z
" clip-path="url(#p8228066fed)" style="stroke: #000000"/>
    <path d="M 58.410556 98.221749 
C 58.960567 98.221749 59.488125 98.003227 59.877042 97.614311 
C 60.265958 97.225394 60.48448 96.697836 60.48448 96.147825 
C 60.48448 95.597813 60.265958 95.070255 59.877042 94.681338 
C 59.488125 94.292422 58.960567 94.0739 58.410556 94.0739 
C 57.860544 94.0739 57.332986 94.292422 56.94407 94.681338 
C 56.555153 95.070255 56.336631 95.597813 56.336631 96.147825 
C 56.336631 96.697836 56.555153 97.225394 56.94407 97.614311 
C 57.332986 98.003227 57.860544 98.221749 58.410556 98.221749 
z
" clip-path="url(#p8228066fed)" style="stroke: #000000"/>
    <path d="M 63.896264 134.66077 
C 64.214081 134.66077 64.518924 134.5345 64.743654 134.309769 
C 64.968385 134.085038 65.094655 133.780196 65.094655 133.462379 
C 65.094655 133.144562 64.968385 132.839719 64.743654 132.614988 
C 64.518924 132.390258 64.214081 132.263988 63.896264 132.263988 
C 63.578447 132.263988 63.273604 132.390258 63.048874 132.614988 
C 62.824143 132.839719 62.697873 133.144562 62.697873 133.462379 
C 62.697873 133.780196 62.824143 134.085038 63.048874 134.309769 
C 63.273604 134.5345 63.578447 134.66077 63.896264 134.66077 
z
" clip-path="url(#p8228066fed)" style="stroke: #000000"/>
    <path d="M 58.915627 123.695987 
C 59.381987 123.695987 59.829309 123.5107 60.159076 123.180934 
C 60.488842 122.851168 60.674129 122.403845 60.674129 121.937485 
C 60.674129 121.471125 60.488842 121.023803 60.159076 120.694037 
C 59.829309 120.36427 59.381987 120.178983 58.915627 120.178983 
C 58.449267 120.178983 58.001945 120.36427 57.672178 120.694037 
C 57.342412 121.023803 57.157125 121.471125 57.157125 121.937485 
C 57.157125 122.403845 57.342412 122.851168 57.672178 123.180934 
C 58.001945 123.5107 58.449267 123.695987 58.915627 123.695987 
z
" clip-path="url(#p8228066fed)" style="stroke: #000000"/>
    <path d="M 52.837971 110.844921 
C 53.364713 110.844921 53.869953 110.635644 54.242416 110.263181 
C 54.614879 109.890717 54.824156 109.385478 54.824156 108.858735 
C 54.824156 108.331993 54.614879 107.826753 54.242416 107.45429 
C 53.869953 107.081827 53.364713 106.87255 52.837971 106.87255 
C 52.311228 106.87255 51.805988 107.081827 51.433525 107.45429 
C 51.061062 107.826753 50.851785 108.331993 50.851785 108.858735 
C 50.851785 109.385478 51.061062 109.890717 51.433525 110.263181 
C 51.805988 110.635644 52.311228 110.844921 52.837971 110.844921 
z
" clip-path="url(#p8228066fed)" style="stroke: #000000"/>
   </g>
   <g id="matplotlib.axis_1">
    <g id="xtick_1">
     <g id="line2d_1">
      <defs>
       <path id="m13764795d6" d="M 0 0 
L 0 3.5 
" style="stroke: #000000; stroke-width: 0.8"/>
      </defs>
      <g>
       <use xlink:href="#m13764795d6" x="18" y="189" style="stroke: #000000; stroke-width: 0.8"/>
      </g>
     </g>
     <g id="text_1">
      <!-- −10 -->
      <g transform="translate(7.447656 203.598437)scale(0.1 -0.1)">
       <defs>
        <path id="DejaVuSans-2212" d="M 678 2272 
L 4684 2272 
L 4684 1741 
L 678 1741 
L 678 2272 
z
" transform="scale(0.015625)"/>
        <path id="DejaVuSans-31" d="M 794 531 
L 1825 531 
L 1825 4091 
L 703 3866 
L 703 4441 
L 1819 4666 
L 2450 4666 
L 2450 531 
L 3481 531 
L 3481 0 
L 794 0 
L 794 531 
z
" transform="scale(0.015625)"/>
        <path id="DejaVuSans-30" d="M 2034 4250 
Q 1547 4250 1301 3770 
Q 1056 3291 1056 2328 
Q 1056 1369 1301 889 
Q 1547 409 2034 409 
Q 2525 409 2770 889 
Q 3016 1369 3016 2328 
Q 3016 3291 2770 3770 
Q 2525 4250 2034 4250 
z
M 2034 4750 
Q 2819 4750 3233 4129 
Q 3647 3509 3647 2328 
Q 3647 1150 3233 529 
Q 2819 -91 2034 -91 
Q 1250 -91 836 529 
Q 422 1150 422 2328 
Q 422 3509 836 4129 
Q 1250 4750 2034 4750 
z
" transform="scale(0.015625)"/>
       </defs>
       <use xlink:href="#DejaVuSans-2212"/>
       <use xlink:href="#DejaVuSans-31" x="83.789062"/>
       <use xlink:href="#DejaVuSans-30" x="147.412109"/>
      </g>
     </g>
    </g>
    <g id="xtick_2">
     <g id="line2d_2">
      <g>
       <use xlink:href="#m13764795d6" x="73.8" y="189" style="stroke: #000000; stroke-width: 0.8"/>
      </g>
     </g>
     <g id="text_2">
      <!-- 0 -->
      <g transform="translate(70.61875 203.598437)scale(0.1 -0.1)">
       <use xlink:href="#DejaVuSans-30"/>
      </g>
     </g>
    </g>
    <g id="xtick_3">
     <g id="line2d_3">
      <g>
       <use xlink:href="#m13764795d6" x="129.6" y="189" style="stroke: #000000; stroke-width: 0.8"/>
      </g>
     </g>
     <g id="text_3">
      <!-- 10 -->
      <g transform="translate(123.2375 203.598437)scale(0.1 -0.1)">
       <use xlink:href="#DejaVuSans-31"/>
       <use xlink:href="#DejaVuSans-30" x="63.623047"/>
      </g>
     </g>
    </g>
   </g>
   <g id="matplotlib.axis_2">
    <g id="ytick_1">
     <g id="line2d_4">
      <defs>
       <path id="mf838a08297" d="M 0 0 
L -3.5 0 
" style="stroke: #000000; stroke-width: 0.8"/>
      </defs>
      <g>
       <use xlink:href="#mf838a08297" x="18" y="189" style="stroke: #000000; stroke-width: 0.8"/>
      </g>
     </g>
     <g id="text_4">
      <!-- −15 -->
      <g transform="translate(-10.104688 192.799219)scale(0.1 -0.1)">
       <defs>
        <path id="DejaVuSans-35" d="M 691 4666 
L 3169 4666 
L 3169 4134 
L 1269 4134 
L 1269 2991 
Q 1406 3038 1543 3061 
Q 1681 3084 1819 3084 
Q 2600 3084 3056 2656 
Q 3513 2228 3513 1497 
Q 3513 744 3044 326 
Q 2575 -91 1722 -91 
Q 1428 -91 1123 -41 
Q 819 9 494 109 
L 494 744 
Q 775 591 1075 516 
Q 1375 441 1709 441 
Q 2250 441 2565 725 
Q 2881 1009 2881 1497 
Q 2881 1984 2565 2268 
Q 2250 2553 1709 2553 
Q 1456 2553 1204 2497 
Q 953 2441 691 2322 
L 691 4666 
z
" transform="scale(0.015625)"/>
       </defs>
       <use xlink:href="#DejaVuSans-2212"/>
       <use xlink:href="#DejaVuSans-31" x="83.789062"/>
       <use xlink:href="#DejaVuSans-35" x="147.412109"/>
      </g>
     </g>
    </g>
    <g id="ytick_2">
     <g id="line2d_5">
      <g>
       <use xlink:href="#mf838a08297" x="18" y="161.82" style="stroke: #000000; stroke-width: 0.8"/>
      </g>
     </g>
     <g id="text_5">
      <!-- −10 -->
      <g transform="translate(-10.104688 165.619219)scale(0.1 -0.1)">
       <use xlink:href="#DejaVuSans-2212"/>
       <use xlink:href="#DejaVuSans-31" x="83.789062"/>
       <use xlink:href="#DejaVuSans-30" x="147.412109"/>
      </g>
     </g>
    </g>
    <g id="ytick_3">
     <g id="line2d_6">
      <g>
       <use xlink:href="#mf838a08297" x="18" y="134.64" style="stroke: #000000; stroke-width: 0.8"/>
      </g>
     </g>
     <g id="text_6">
      <!-- −5 -->
      <g transform="translate(-3.742188 138.439219)scale(0.1 -0.1)">
       <use xlink:href="#DejaVuSans-2212"/>
       <use xlink:href="#DejaVuSans-35" x="83.789062"/>
      </g>
     </g>
    </g>
    <g id="ytick_4">
     <g id="line2d_7">
      <g>
       <use xlink:href="#mf838a08297" x="18" y="107.46" style="stroke: #000000; stroke-width: 0.8"/>
      </g>
     </g>
     <g id="text_7">
      <!-- 0 -->
      <g transform="translate(4.6375 111.259219)scale(0.1 -0.1)">
       <use xlink:href="#DejaVuSans-30"/>
      </g>
     </g>
    </g>
    <g id="ytick_5">
     <g id="line2d_8">
      <g>
       <use xlink:href="#mf838a08297" x="18" y="80.28" style="stroke: #000000; stroke-width: 0.8"/>
      </g>
     </g>
     <g id="text_8">
      <!-- 5 -->
      <g transform="translate(4.6375 84.079219)scale(0.1 -0.1)">
       <use xlink:href="#DejaVuSans-35"/>
      </g>
     </g>
    </g>
    <g id="ytick_6">
     <g id="line2d_9">
      <g>
       <use xlink:href="#mf838a08297" x="18" y="53.1" style="stroke: #000000; stroke-width: 0.8"/>
      </g>
     </g>
     <g id="text_9">
      <!-- 10 -->
      <g transform="translate(-1.725 56.899219)scale(0.1 -0.1)">
       <use xlink:href="#DejaVuSans-31"/>
       <use xlink:href="#DejaVuSans-30" x="63.623047"/>
      </g>
     </g>
    </g>
    <g id="ytick_7">
     <g id="line2d_10">
      <g>
       <use xlink:href="#mf838a08297" x="18" y="25.92" style="stroke: #000000; stroke-width: 0.8"/>
      </g>
     </g>
     <g id="text_10">
      <!-- 15 -->
      <g transform="translate(-1.725 29.719219)scale(0.1 -0.1)">
       <use xlink:href="#DejaVuSans-31"/>
       <use xlink:href="#DejaVuSans-35" x="63.623047"/>
      </g>
     </g>
    </g>
   </g>
   <g id="patch_3">
    <path d="M 18 189 
L 18 25.92 
" style="fill: none; stroke: #000000; stroke-width: 0.8; stroke-linejoin: miter; stroke-linecap: square"/>
   </g>
   <g id="patch_4">
    <path d="M 129.6 189 
L 129.6 25.92 
" style="fill: none; stroke: #000000; stroke-width: 0.8; stroke-linejoin: miter; stroke-linecap: square"/>
   </g>
   <g id="patch_5">
    <path d="M 18 189 
L 129.6 189 
" style="fill: none; stroke: #000000; stroke-width: 0.8; stroke-linejoin: miter; stroke-linecap: square"/>
   </g>
   <g id="patch_6">
    <path d="M 18 25.92 
L 129.6 25.92 
" style="fill: none; stroke: #000000; stroke-width: 0.8; stroke-linejoin: miter; stroke-linecap: square"/>
   </g>
  </g>
 </g>
 <defs>
  <clipPath id="p8228066fed">
   <rect x="18" y="25.92" width="111.6" height="163.08"/>
  </clipPath>
 </defs>
</svg>
