<?xml version="1.0" encoding="utf-8" standalone="no"?>
<!DOCTYPE svg PUBLIC "-//W3C//DTD SVG 1.1//EN"
  "http://www.w3.org/Graphics/SVG/1.1/DTD/svg11.dtd">
<svg xmlns:xlink="http://www.w3.org/1999/xlink" width="144pt" height="216pt" viewBox="0 0 144 216" xmlns="http://www.w3.org/2000/svg" version="1.1">
 <metadata>
  <rdf:RDF xmlns:dc="http://purl.org/dc/elements/1.1/" xmlns:cc="http://creativecommons.org/ns#" xmlns:rdf="http://www.w3.org/1999/02/22-rdf-syntax-ns#">
   <cc:Work>
    <dc:type rdf:resource="http://purl.org/dc/dcmitype/StillImage"/>
    <dc:date>2022-06-28T09:24:31.338493</dc:date>
    <dc:format>image/svg+xml</dc:format>
    <dc:creator>
     <cc:Agent>
      <dc:title>Matplotlib v3.5.1, https://matplotlib.org/</dc:title>
     </cc:Agent>
    </dc:creator>
   </cc:Work>
  </rdf:RDF>
 </metadata>
 <defs>
  <style type="text/css">*{stroke-linejoin: round; stroke-linecap: butt}</style>
 </defs>
 <g id="figure_1">
  <g id="patch_1">
   <path d="M 0 216 
L 144 216 
L 144 0 
L 0 0 
L 0 216 
z
" style="fill: none"/>
  </g>
  <g id="axes_1">
   <g id="patch_2">
    <path d="M 18 189 
L 129.6 189 
L 129.6 25.92 
L 18 25.92 
z
" style="fill: #ffffff"/>
   </g>
   <g id="PathCollection_1">
    <defs>
     <path id="m13b90041f9" d="M 0 2.738613 
C 0.726289 2.738613 1.422928 2.450055 1.936492 1.936492 
C 2.450055 1.422928 2.738613 0.726289 2.738613 0 
C 2.738613 -0.726289 2.450055 -1.422928 1.936492 -1.936492 
C 1.422928 -2.450055 0.726289 -2.738613 0 -2.738613 
C -0.726289 -2.738613 -1.422928 -2.450055 -1.936492 -1.936492 
C -2.450055 -1.422928 -2.738613 -0.726289 -2.738613 0 
C -2.738613 0.726289 -2.450055 1.422928 -1.936492 1.936492 
C -1.422928 2.450055 -0.726289 2.738613 0 2.738613 
z
" style="stroke: #ff0000; stroke-width: 1.75"/>
    </defs>
    <g clip-path="url(#p4dcb284c48)">
     <use xlink:href="#m13b90041f9" x="80.775" y="107.46" style="fill: #ff0000; stroke: #ff0000; stroke-width: 1.75"/>
     <use xlink:href="#m13b90041f9" x="94.725" y="107.46" style="fill: #ff0000; stroke: #ff0000; stroke-width: 1.75"/>
     <use xlink:href="#m13b90041f9" x="59.85" y="119.229285" style="fill: #ff0000; stroke: #ff0000; stroke-width: 1.75"/>
     <use xlink:href="#m13b90041f9" x="73.8" y="119.229285" style="fill: #ff0000; stroke: #ff0000; stroke-width: 1.75"/>
     <use xlink:href="#m13b90041f9" x="87.75" y="119.229285" style="fill: #ff0000; stroke: #ff0000; stroke-width: 1.75"/>
     <use xlink:href="#m13b90041f9" x="66.825" y="130.99857" style="fill: #ff0000; stroke: #ff0000; stroke-width: 1.75"/>
     <use xlink:href="#m13b90041f9" x="80.775" y="130.99857" style="fill: #ff0000; stroke: #ff0000; stroke-width: 1.75"/>
    </g>
   </g>
   <g id="PathCollection_2">
    <defs>
     <path id="C0_0_0d7e627a4a" d="M 0 2.738613 
C 0.726289 2.738613 1.422928 2.450055 1.936492 1.936492 
C 2.450055 1.422928 2.738613 0.726289 2.738613 -0 
C 2.738613 -0.726289 2.450055 -1.422928 1.936492 -1.936492 
C 1.422928 -2.450055 0.726289 -2.738613 0 -2.738613 
C -0.726289 -2.738613 -1.422928 -2.450055 -1.936492 -1.936492 
C -2.450055 -1.422928 -2.738613 -0.726289 -2.738613 0 
C -2.738613 0.726289 -2.450055 1.422928 -1.936492 1.936492 
C -1.422928 2.450055 -0.726289 2.738613 0 2.738613 
z
"/>
    </defs>
    <g clip-path="url(#p4dcb284c48)">
     <use xlink:href="#C0_0_0d7e627a4a" x="66.825" y="83.92143" style="fill: none; stroke: #ff0000; stroke-width: 1.75"/>
    </g>
    <g clip-path="url(#p4dcb284c48)">
     <use xlink:href="#C0_0_0d7e627a4a" x="80.775" y="83.92143" style="fill: none; stroke: #ff0000; stroke-width: 1.75"/>
    </g>
    <g clip-path="url(#p4dcb284c48)">
     <use xlink:href="#C0_0_0d7e627a4a" x="59.85" y="95.690715" style="fill: none; stroke: #ff0000; stroke-width: 1.75"/>
    </g>
    <g clip-path="url(#p4dcb284c48)">
     <use xlink:href="#C0_0_0d7e627a4a" x="73.8" y="95.690715" style="fill: none; stroke: #ff0000; stroke-width: 1.75"/>
    </g>
    <g clip-path="url(#p4dcb284c48)">
     <use xlink:href="#C0_0_0d7e627a4a" x="87.75" y="95.690715" style="fill: none; stroke: #ff0000; stroke-width: 1.75"/>
    </g>
    <g clip-path="url(#p4dcb284c48)">
     <use xlink:href="#C0_0_0d7e627a4a" x="52.875" y="107.46" style="fill: none; stroke: #ff0000; stroke-width: 1.75"/>
    </g>
    <g clip-path="url(#p4dcb284c48)">
     <use xlink:href="#C0_0_0d7e627a4a" x="66.825" y="107.46" style="fill: none; stroke: #ff0000; stroke-width: 1.75"/>
    </g>
   </g>
   <g id="PathCollection_3">
    <path d="M 97.43029 109.827903 
C 98.031293 109.827903 98.607761 109.589122 99.032735 109.164148 
C 99.457708 108.739175 99.696489 108.162707 99.696489 107.561704 
C 99.696489 106.9607 99.457708 106.384232 99.032735 105.959259 
C 98.607761 105.534285 98.031293 105.295504 97.43029 105.295504 
C 96.829287 105.295504 96.252818 105.534285 95.827845 105.959259 
C 95.402871 106.384232 95.16409 106.9607 95.16409 107.561704 
C 95.16409 108.162707 95.402871 108.739175 95.827845 109.164148 
C 96.252818 109.589122 96.829287 109.827903 97.43029 109.827903 
z
" clip-path="url(#p4dcb284c48)" style="stroke: #000000"/>
    <path d="M 91.655833 110.366808 
C 91.813523 110.366808 91.964777 110.304157 92.076281 110.192653 
C 92.187785 110.081149 92.250436 109.929895 92.250436 109.772205 
C 92.250436 109.614514 92.187785 109.46326 92.076281 109.351756 
C 91.964777 109.240252 91.813523 109.177601 91.655833 109.177601 
C 91.498142 109.177601 91.346889 109.240252 91.235385 109.351756 
C 91.12388 109.46326 91.061229 109.614514 91.061229 109.772205 
C 91.061229 109.929895 91.12388 110.081149 91.235385 110.192653 
C 91.346889 110.304157 91.498142 110.366808 91.655833 110.366808 
z
" clip-path="url(#p4dcb284c48)" style="stroke: #000000"/>
    <path d="M 85.073589 106.999592 
C 85.480872 106.999592 85.871528 106.837777 86.159521 106.549785 
C 86.447513 106.261792 86.609328 105.871136 86.609328 105.463853 
C 86.609328 105.05657 86.447513 104.665914 86.159521 104.377921 
C 85.871528 104.089929 85.480872 103.928114 85.073589 103.928114 
C 84.666306 103.928114 84.27565 104.089929 83.987657 104.377921 
C 83.699665 104.665914 83.53785 105.05657 83.53785 105.463853 
C 83.53785 105.871136 83.699665 106.261792 83.987657 106.549785 
C 84.27565 106.837777 84.666306 106.999592 85.073589 106.999592 
z
" clip-path="url(#p4dcb284c48)" style="stroke: #000000"/>
    <path d="M 88.826632 100.176558 
C 89.270012 100.176558 89.695292 100.000401 90.008809 99.686884 
C 90.322326 99.373367 90.498483 98.948087 90.498483 98.504707 
C 90.498483 98.061327 90.322326 97.636047 90.008809 97.32253 
C 89.695292 97.009013 89.270012 96.832856 88.826632 96.832856 
C 88.383252 96.832856 87.957972 97.009013 87.644455 97.32253 
C 87.330938 97.636047 87.154781 98.061327 87.154781 98.504707 
C 87.154781 98.948087 87.330938 99.373367 87.644455 99.686884 
C 87.957972 100.000401 88.383252 100.176558 88.826632 100.176558 
z
" clip-path="url(#p4dcb284c48)" style="stroke: #000000"/>
    <path d="M 83.208467 87.193176 
C 83.813698 87.193176 84.394221 86.952716 84.822184 86.524753 
C 85.250147 86.09679 85.490608 85.516266 85.490608 84.911035 
C 85.490608 84.305805 85.250147 83.725281 84.822184 83.297318 
C 84.394221 82.869355 83.813698 82.628895 83.208467 82.628895 
C 82.603236 82.628895 82.022712 82.869355 81.59475 83.297318 
C 81.166787 83.725281 80.926326 84.305805 80.926326 84.911035 
C 80.926326 85.516266 81.166787 86.09679 81.59475 86.524753 
C 82.022712 86.952716 82.603236 87.193176 83.208467 87.193176 
z
" clip-path="url(#p4dcb284c48)" style="stroke: #000000"/>
    <path d="M 80.460069 80.493596 
C 80.675756 80.493596 80.882637 80.407903 81.035151 80.255389 
C 81.187664 80.102876 81.273357 79.895994 81.273357 79.680307 
C 81.273357 79.464621 81.187664 79.257739 81.035151 79.105226 
C 80.882637 78.952712 80.675756 78.867019 80.460069 78.867019 
C 80.244382 78.867019 80.037501 78.952712 79.884987 79.105226 
C 79.732474 79.257739 79.646781 79.464621 79.646781 79.680307 
C 79.646781 79.895994 79.732474 80.102876 79.884987 80.255389 
C 80.037501 80.407903 80.244382 80.493596 80.460069 80.493596 
z
" clip-path="url(#p4dcb284c48)" style="stroke: #000000"/>
    <path d="M 86.8111 120.077682 
C 87.321205 120.077682 87.810486 119.875015 88.171185 119.514317 
C 88.531883 119.153618 88.73455 118.664337 88.73455 118.154232 
C 88.73455 117.644127 88.531883 117.154846 88.171185 116.794147 
C 87.810486 116.433448 87.321205 116.230781 86.8111 116.230781 
C 86.300994 116.230781 85.811713 116.433448 85.451015 116.794147 
C 85.090316 117.154846 84.887649 117.644127 84.887649 118.154232 
C 84.887649 118.664337 85.090316 119.153618 85.451015 119.514317 
C 85.811713 119.875015 86.300994 120.077682 86.8111 120.077682 
z
" clip-path="url(#p4dcb284c48)" style="stroke: #000000"/>
    <path d="M 82.17071 108.122005 
C 82.691536 108.122005 83.191101 107.915079 83.55938 107.546799 
C 83.92766 107.178519 84.134587 106.678955 84.134587 106.158128 
C 84.134587 105.637302 83.92766 105.137738 83.55938 104.769458 
C 83.191101 104.401178 82.691536 104.194252 82.17071 104.194252 
C 81.649884 104.194252 81.150319 104.401178 80.782039 104.769458 
C 80.41376 105.137738 80.206833 105.637302 80.206833 106.158128 
C 80.206833 106.678955 80.41376 107.178519 80.782039 107.546799 
C 81.150319 107.915079 81.649884 108.122005 82.17071 108.122005 
z
" clip-path="url(#p4dcb284c48)" style="stroke: #000000"/>
    <path d="M 77.89278 95.856205 
C 78.05047 95.856205 78.201724 95.793554 78.313228 95.68205 
C 78.424732 95.570546 78.487383 95.419292 78.487383 95.261602 
C 78.487383 95.103911 78.424732 94.952658 78.313228 94.841153 
C 78.201724 94.729649 78.05047 94.666998 77.89278 94.666998 
C 77.735089 94.666998 77.583836 94.729649 77.472332 94.841153 
C 77.360827 94.952658 77.298176 95.103911 77.298176 95.261602 
C 77.298176 95.419292 77.360827 95.570546 77.472332 95.68205 
C 77.583836 95.793554 77.735089 95.856205 77.89278 95.856205 
z
" clip-path="url(#p4dcb284c48)" style="stroke: #000000"/>
    <path d="M 79.451148 130.03398 
C 79.971974 130.03398 80.471539 129.827053 80.839818 129.458773 
C 81.208098 129.090494 81.415025 128.590929 81.415025 128.070103 
C 81.415025 127.549277 81.208098 127.049712 80.839818 126.681432 
C 80.471539 126.313152 79.971974 126.106226 79.451148 126.106226 
C 78.930322 126.106226 78.430757 126.313152 78.062477 126.681432 
C 77.694197 127.049712 77.487271 127.549277 77.487271 128.070103 
C 77.487271 128.590929 77.694197 129.090494 78.062477 129.458773 
C 78.430757 129.827053 78.930322 130.03398 79.451148 130.03398 
z
" clip-path="url(#p4dcb284c48)" style="stroke: #000000"/>
    <path d="M 78.251288 122.237518 
C 78.38389 122.237518 78.511078 122.184834 78.604842 122.091071 
C 78.698605 121.997308 78.751288 121.870119 78.751288 121.737518 
C 78.751288 121.604916 78.698605 121.477728 78.604842 121.383964 
C 78.511078 121.290201 78.38389 121.237518 78.251288 121.237518 
C 78.118687 121.237518 77.991498 121.290201 77.897735 121.383964 
C 77.803972 121.477728 77.751288 121.604916 77.751288 121.737518 
C 77.751288 121.870119 77.803972 121.997308 77.897735 122.091071 
C 77.991498 122.184834 78.118687 122.237518 78.251288 122.237518 
z
" clip-path="url(#p4dcb284c48)" style="stroke: #000000"/>
    <path d="M 72.54799 95.887018 
C 73.064384 95.887018 73.559696 95.681853 73.924842 95.316707 
C 74.289987 94.951562 74.495152 94.45625 74.495152 93.939856 
C 74.495152 93.423463 74.289987 92.92815 73.924842 92.563005 
C 73.559696 92.19786 73.064384 91.992695 72.54799 91.992695 
C 72.031597 91.992695 71.536285 92.19786 71.171139 92.563005 
C 70.805994 92.92815 70.600829 93.423463 70.600829 93.939856 
C 70.600829 94.45625 70.805994 94.951562 71.171139 95.316707 
C 71.536285 95.681853 72.031597 95.887018 72.54799 95.887018 
z
" clip-path="url(#p4dcb284c48)" style="stroke: #000000"/>
    <path d="M 68.884622 86.791396 
C 69.409236 86.791396 69.912434 86.582965 70.283392 86.212007 
C 70.654351 85.841048 70.862782 85.33785 70.862782 84.813236 
C 70.862782 84.288622 70.654351 83.785424 70.283392 83.414465 
C 69.912434 83.043507 69.409236 82.835075 68.884622 82.835075 
C 68.360007 82.835075 67.856809 83.043507 67.485851 83.414465 
C 67.114892 83.785424 66.906461 84.288622 66.906461 84.813236 
C 66.906461 85.33785 67.114892 85.841048 67.485851 86.212007 
C 67.856809 86.582965 68.360007 86.791396 68.884622 86.791396 
z
" clip-path="url(#p4dcb284c48)" style="stroke: #000000"/>
    <path d="M 76.877193 130.783967 
C 77.142396 130.783967 77.396773 130.6786 77.5843 130.491073 
C 77.771827 130.303547 77.877193 130.04917 77.877193 129.783967 
C 77.877193 129.518764 77.771827 129.264387 77.5843 129.07686 
C 77.396773 128.889333 77.142396 128.783967 76.877193 128.783967 
C 76.61199 128.783967 76.357613 128.889333 76.170087 129.07686 
C 75.98256 129.264387 75.877193 129.518764 75.877193 129.783967 
C 75.877193 130.04917 75.98256 130.303547 76.170087 130.491073 
C 76.357613 130.6786 76.61199 130.783967 76.877193 130.783967 
z
" clip-path="url(#p4dcb284c48)" style="stroke: #000000"/>
    <path d="M 74.837685 122.821639 
C 75.283701 122.821639 75.71151 122.644435 76.026892 122.329053 
C 76.342273 122.013672 76.519477 121.585863 76.519477 121.139846 
C 76.519477 120.69383 76.342273 120.266021 76.026892 119.950639 
C 75.71151 119.635258 75.283701 119.458054 74.837685 119.458054 
C 74.391668 119.458054 73.963859 119.635258 73.648477 119.950639 
C 73.333096 120.266021 73.155892 120.69383 73.155892 121.139846 
C 73.155892 121.585863 73.333096 122.013672 73.648477 122.329053 
C 73.963859 122.644435 74.391668 122.821639 74.837685 122.821639 
z
" clip-path="url(#p4dcb284c48)" style="stroke: #000000"/>
    <path d="M 71.823752 120.455542 
C 72.34348 120.455542 72.841992 120.249052 73.209496 119.881548 
C 73.577 119.514045 73.78349 119.015533 73.78349 118.495804 
C 73.78349 117.976076 73.577 117.477564 73.209496 117.11006 
C 72.841992 116.742557 72.34348 116.536066 71.823752 116.536066 
C 71.304023 116.536066 70.805512 116.742557 70.438008 117.11006 
C 70.070504 117.477564 69.864014 117.976076 69.864014 118.495804 
C 69.864014 119.015533 70.070504 119.514045 70.438008 119.881548 
C 70.805512 120.249052 71.304023 120.455542 71.823752 120.455542 
z
" clip-path="url(#p4dcb284c48)" style="stroke: #000000"/>
    <path d="M 67.938949 107.78339 
C 68.458678 107.78339 68.95719 107.5769 69.324693 107.209396 
C 69.692197 106.841893 69.898687 106.343381 69.898687 105.823652 
C 69.898687 105.303924 69.692197 104.805412 69.324693 104.437908 
C 68.95719 104.070405 68.458678 103.863914 67.938949 103.863914 
C 67.419221 103.863914 66.920709 104.070405 66.553205 104.437908 
C 66.185702 104.805412 65.979212 105.303924 65.979212 105.823652 
C 65.979212 106.343381 66.185702 106.841893 66.553205 107.209396 
C 66.920709 107.5769 67.419221 107.78339 67.938949 107.78339 
z
" clip-path="url(#p4dcb284c48)" style="stroke: #000000"/>
    <path d="M 62.659 95.291378 
C 63.12536 95.291378 63.572682 95.106091 63.902448 94.776325 
C 64.232215 94.446558 64.417502 93.999236 64.417502 93.532876 
C 64.417502 93.066516 64.232215 92.619194 63.902448 92.289428 
C 63.572682 91.959661 63.12536 91.774374 62.659 91.774374 
C 62.19264 91.774374 61.745317 91.959661 61.415551 92.289428 
C 61.085785 92.619194 60.900498 93.066516 60.900498 93.532876 
C 60.900498 93.999236 61.085785 94.446558 61.415551 94.776325 
C 61.745317 95.106091 62.19264 95.291378 62.659 95.291378 
z
" clip-path="url(#p4dcb284c48)" style="stroke: #000000"/>
    <path d="M 69.486775 134.739778 
C 69.912251 134.739778 70.320358 134.570735 70.621215 134.269878 
C 70.922072 133.969021 71.091115 133.560914 71.091115 133.135438 
C 71.091115 132.709962 70.922072 132.301855 70.621215 132.000998 
C 70.320358 131.700141 69.912251 131.531098 69.486775 131.531098 
C 69.061299 131.531098 68.653192 131.700141 68.352335 132.000998 
C 68.051478 132.301855 67.882435 132.709962 67.882435 133.135438 
C 67.882435 133.560914 68.051478 133.969021 68.352335 134.269878 
C 68.653192 134.570735 69.061299 134.739778 69.486775 134.739778 
z
" clip-path="url(#p4dcb284c48)" style="stroke: #000000"/>
    <path d="M 59.835462 100.301108 
C 60.351856 100.301108 60.847168 100.095943 61.212313 99.730798 
C 61.577459 99.365653 61.782624 98.87034 61.782624 98.353947 
C 61.782624 97.837554 61.577459 97.342241 61.212313 96.977096 
C 60.847168 96.611951 60.351856 96.406785 59.835462 96.406785 
C 59.319069 96.406785 58.823756 96.611951 58.458611 96.977096 
C 58.093466 97.342241 57.888301 97.837554 57.888301 98.353947 
C 57.888301 98.87034 58.093466 99.365653 58.458611 99.730798 
C 58.823756 100.095943 59.319069 100.301108 59.835462 100.301108 
z
" clip-path="url(#p4dcb284c48)" style="stroke: #000000"/>
    <path d="M 58.410556 98.225243 
C 58.961494 98.225243 59.489941 98.006353 59.879513 97.616781 
C 60.269085 97.22721 60.487974 96.698762 60.487974 96.147825 
C 60.487974 95.596887 60.269085 95.068439 59.879513 94.678868 
C 59.489941 94.289296 58.961494 94.070406 58.410556 94.070406 
C 57.859618 94.070406 57.331171 94.289296 56.941599 94.678868 
C 56.552027 95.068439 56.333137 95.596887 56.333137 96.147825 
C 56.333137 96.698762 56.552027 97.22721 56.941599 97.616781 
C 57.331171 98.006353 57.859618 98.225243 58.410556 98.225243 
z
" clip-path="url(#p4dcb284c48)" style="stroke: #000000"/>
    <path d="M 63.896264 134.642184 
C 64.209152 134.642184 64.509267 134.517872 64.730513 134.296627 
C 64.951758 134.075382 65.07607 133.775267 65.07607 133.462379 
C 65.07607 133.149491 64.951758 132.849375 64.730513 132.62813 
C 64.509267 132.406885 64.209152 132.282573 63.896264 132.282573 
C 63.583376 132.282573 63.283261 132.406885 63.062016 132.62813 
C 62.84077 132.849375 62.716459 133.149491 62.716459 133.462379 
C 62.716459 133.775267 62.84077 134.075382 63.062016 134.296627 
C 63.283261 134.517872 63.583376 134.642184 63.896264 134.642184 
z
" clip-path="url(#p4dcb284c48)" style="stroke: #000000"/>
    <path d="M 58.915627 123.687303 
C 59.379684 123.687303 59.824797 123.502931 60.152935 123.174793 
C 60.481073 122.846655 60.665445 122.401542 60.665445 121.937485 
C 60.665445 121.473428 60.481073 121.028315 60.152935 120.700177 
C 59.824797 120.372039 59.379684 120.187668 58.915627 120.187668 
C 58.45157 120.187668 58.006457 120.372039 57.678319 120.700177 
C 57.350181 121.028315 57.165809 121.473428 57.165809 121.937485 
C 57.165809 122.401542 57.350181 122.846655 57.678319 123.174793 
C 58.006457 123.502931 58.45157 123.687303 58.915627 123.687303 
z
" clip-path="url(#p4dcb284c48)" style="stroke: #000000"/>
    <path d="M 52.837971 110.86263 
C 53.36941 110.86263 53.879154 110.651487 54.254938 110.275703 
C 54.630722 109.899919 54.841865 109.390174 54.841865 108.858735 
C 54.841865 108.327296 54.630722 107.817552 54.254938 107.441768 
C 53.879154 107.065983 53.36941 106.85484 52.837971 106.85484 
C 52.306531 106.85484 51.796787 107.065983 51.421003 107.441768 
C 51.045219 107.817552 50.834076 108.327296 50.834076 108.858735 
C 50.834076 109.390174 51.045219 109.899919 51.421003 110.275703 
C 51.796787 110.651487 52.306531 110.86263 52.837971 110.86263 
z
" clip-path="url(#p4dcb284c48)" style="stroke: #000000"/>
   </g>
   <g id="matplotlib.axis_1">
    <g id="xtick_1">
     <g id="line2d_1">
      <defs>
       <path id="mc1b8133a91" d="M 0 0 
L 0 3.5 
" style="stroke: #000000; stroke-width: 0.8"/>
      </defs>
      <g>
       <use xlink:href="#mc1b8133a91" x="18" y="189" style="stroke: #000000; stroke-width: 0.8"/>
      </g>
     </g>
     <g id="text_1">
      <!-- −10 -->
      <g transform="translate(7.447656 203.598437)scale(0.1 -0.1)">
       <defs>
        <path id="DejaVuSans-2212" d="M 678 2272 
L 4684 2272 
L 4684 1741 
L 678 1741 
L 678 2272 
z
" transform="scale(0.015625)"/>
        <path id="DejaVuSans-31" d="M 794 531 
L 1825 531 
L 1825 4091 
L 703 3866 
L 703 4441 
L 1819 4666 
L 2450 4666 
L 2450 531 
L 3481 531 
L 3481 0 
L 794 0 
L 794 531 
z
" transform="scale(0.015625)"/>
        <path id="DejaVuSans-30" d="M 2034 4250 
Q 1547 4250 1301 3770 
Q 1056 3291 1056 2328 
Q 1056 1369 1301 889 
Q 1547 409 2034 409 
Q 2525 409 2770 889 
Q 3016 1369 3016 2328 
Q 3016 3291 2770 3770 
Q 2525 4250 2034 4250 
z
M 2034 4750 
Q 2819 4750 3233 4129 
Q 3647 3509 3647 2328 
Q 3647 1150 3233 529 
Q 2819 -91 2034 -91 
Q 1250 -91 836 529 
Q 422 1150 422 2328 
Q 422 3509 836 4129 
Q 1250 4750 2034 4750 
z
" transform="scale(0.015625)"/>
       </defs>
       <use xlink:href="#DejaVuSans-2212"/>
       <use xlink:href="#DejaVuSans-31" x="83.789062"/>
       <use xlink:href="#DejaVuSans-30" x="147.412109"/>
      </g>
     </g>
    </g>
    <g id="xtick_2">
     <g id="line2d_2">
      <g>
       <use xlink:href="#mc1b8133a91" x="73.8" y="189" style="stroke: #000000; stroke-width: 0.8"/>
      </g>
     </g>
     <g id="text_2">
      <!-- 0 -->
      <g transform="translate(70.61875 203.598437)scale(0.1 -0.1)">
       <use xlink:href="#DejaVuSans-30"/>
      </g>
     </g>
    </g>
    <g id="xtick_3">
     <g id="line2d_3">
      <g>
       <use xlink:href="#mc1b8133a91" x="129.6" y="189" style="stroke: #000000; stroke-width: 0.8"/>
      </g>
     </g>
     <g id="text_3">
      <!-- 10 -->
      <g transform="translate(123.2375 203.598437)scale(0.1 -0.1)">
       <use xlink:href="#DejaVuSans-31"/>
       <use xlink:href="#DejaVuSans-30" x="63.623047"/>
      </g>
     </g>
    </g>
   </g>
   <g id="matplotlib.axis_2">
    <g id="ytick_1">
     <g id="line2d_4">
      <defs>
       <path id="m5ac6e0ed85" d="M 0 0 
L -3.5 0 
" style="stroke: #000000; stroke-width: 0.8"/>
      </defs>
      <g>
       <use xlink:href="#m5ac6e0ed85" x="18" y="189" style="stroke: #000000; stroke-width: 0.8"/>
      </g>
     </g>
     <g id="text_4">
      <!-- −15 -->
      <g transform="translate(-10.104688 192.799219)scale(0.1 -0.1)">
       <defs>
        <path id="DejaVuSans-35" d="M 691 4666 
L 3169 4666 
L 3169 4134 
L 1269 4134 
L 1269 2991 
Q 1406 3038 1543 3061 
Q 1681 3084 1819 3084 
Q 2600 3084 3056 2656 
Q 3513 2228 3513 1497 
Q 3513 744 3044 326 
Q 2575 -91 1722 -91 
Q 1428 -91 1123 -41 
Q 819 9 494 109 
L 494 744 
Q 775 591 1075 516 
Q 1375 441 1709 441 
Q 2250 441 2565 725 
Q 2881 1009 2881 1497 
Q 2881 1984 2565 2268 
Q 2250 2553 1709 2553 
Q 1456 2553 1204 2497 
Q 953 2441 691 2322 
L 691 4666 
z
" transform="scale(0.015625)"/>
       </defs>
       <use xlink:href="#DejaVuSans-2212"/>
       <use xlink:href="#DejaVuSans-31" x="83.789062"/>
       <use xlink:href="#DejaVuSans-35" x="147.412109"/>
      </g>
     </g>
    </g>
    <g id="ytick_2">
     <g id="line2d_5">
      <g>
       <use xlink:href="#m5ac6e0ed85" x="18" y="161.82" style="stroke: #000000; stroke-width: 0.8"/>
      </g>
     </g>
     <g id="text_5">
      <!-- −10 -->
      <g transform="translate(-10.104688 165.619219)scale(0.1 -0.1)">
       <use xlink:href="#DejaVuSans-2212"/>
       <use xlink:href="#DejaVuSans-31" x="83.789062"/>
       <use xlink:href="#DejaVuSans-30" x="147.412109"/>
      </g>
     </g>
    </g>
    <g id="ytick_3">
     <g id="line2d_6">
      <g>
       <use xlink:href="#m5ac6e0ed85" x="18" y="134.64" style="stroke: #000000; stroke-width: 0.8"/>
      </g>
     </g>
     <g id="text_6">
      <!-- −5 -->
      <g transform="translate(-3.742188 138.439219)scale(0.1 -0.1)">
       <use xlink:href="#DejaVuSans-2212"/>
       <use xlink:href="#DejaVuSans-35" x="83.789062"/>
      </g>
     </g>
    </g>
    <g id="ytick_4">
     <g id="line2d_7">
      <g>
       <use xlink:href="#m5ac6e0ed85" x="18" y="107.46" style="stroke: #000000; stroke-width: 0.8"/>
      </g>
     </g>
     <g id="text_7">
      <!-- 0 -->
      <g transform="translate(4.6375 111.259219)scale(0.1 -0.1)">
       <use xlink:href="#DejaVuSans-30"/>
      </g>
     </g>
    </g>
    <g id="ytick_5">
     <g id="line2d_8">
      <g>
       <use xlink:href="#m5ac6e0ed85" x="18" y="80.28" style="stroke: #000000; stroke-width: 0.8"/>
      </g>
     </g>
     <g id="text_8">
      <!-- 5 -->
      <g transform="translate(4.6375 84.079219)scale(0.1 -0.1)">
       <use xlink:href="#DejaVuSans-35"/>
      </g>
     </g>
    </g>
    <g id="ytick_6">
     <g id="line2d_9">
      <g>
       <use xlink:href="#m5ac6e0ed85" x="18" y="53.1" style="stroke: #000000; stroke-width: 0.8"/>
      </g>
     </g>
     <g id="text_9">
      <!-- 10 -->
      <g transform="translate(-1.725 56.899219)scale(0.1 -0.1)">
       <use xlink:href="#DejaVuSans-31"/>
       <use xlink:href="#DejaVuSans-30" x="63.623047"/>
      </g>
     </g>
    </g>
    <g id="ytick_7">
     <g id="line2d_10">
      <g>
       <use xlink:href="#m5ac6e0ed85" x="18" y="25.92" style="stroke: #000000; stroke-width: 0.8"/>
      </g>
     </g>
     <g id="text_10">
      <!-- 15 -->
      <g transform="translate(-1.725 29.719219)scale(0.1 -0.1)">
       <use xlink:href="#DejaVuSans-31"/>
       <use xlink:href="#DejaVuSans-35" x="63.623047"/>
      </g>
     </g>
    </g>
   </g>
   <g id="patch_3">
    <path d="M 18 189 
L 18 25.92 
" style="fill: none; stroke: #000000; stroke-width: 0.8; stroke-linejoin: miter; stroke-linecap: square"/>
   </g>
   <g id="patch_4">
    <path d="M 129.6 189 
L 129.6 25.92 
" style="fill: none; stroke: #000000; stroke-width: 0.8; stroke-linejoin: miter; stroke-linecap: square"/>
   </g>
   <g id="patch_5">
    <path d="M 18 189 
L 129.6 189 
" style="fill: none; stroke: #000000; stroke-width: 0.8; stroke-linejoin: miter; stroke-linecap: square"/>
   </g>
   <g id="patch_6">
    <path d="M 18 25.92 
L 129.6 25.92 
" style="fill: none; stroke: #000000; stroke-width: 0.8; stroke-linejoin: miter; stroke-linecap: square"/>
   </g>
  </g>
 </g>
 <defs>
  <clipPath id="p4dcb284c48">
   <rect x="18" y="25.92" width="111.6" height="163.08"/>
  </clipPath>
 </defs>
</svg>
