<?xml version="1.0" encoding="utf-8" standalone="no"?>
<!DOCTYPE svg PUBLIC "-//W3C//DTD SVG 1.1//EN"
  "http://www.w3.org/Graphics/SVG/1.1/DTD/svg11.dtd">
<svg xmlns:xlink="http://www.w3.org/1999/xlink" width="144pt" height="216pt" viewBox="0 0 144 216" xmlns="http://www.w3.org/2000/svg" version="1.1">
 <metadata>
  <rdf:RDF xmlns:dc="http://purl.org/dc/elements/1.1/" xmlns:cc="http://creativecommons.org/ns#" xmlns:rdf="http://www.w3.org/1999/02/22-rdf-syntax-ns#">
   <cc:Work>
    <dc:type rdf:resource="http://purl.org/dc/dcmitype/StillImage"/>
    <dc:date>2022-06-22T17:03:36.317637</dc:date>
    <dc:format>image/svg+xml</dc:format>
    <dc:creator>
     <cc:Agent>
      <dc:title>Matplotlib v3.5.1, https://matplotlib.org/</dc:title>
     </cc:Agent>
    </dc:creator>
   </cc:Work>
  </rdf:RDF>
 </metadata>
 <defs>
  <style type="text/css">*{stroke-linejoin: round; stroke-linecap: butt}</style>
 </defs>
 <g id="figure_1">
  <g id="patch_1">
   <path d="M 0 216 
L 144 216 
L 144 0 
L 0 0 
L 0 216 
z
" style="fill: none"/>
  </g>
  <g id="axes_1">
   <g id="patch_2">
    <path d="M 18 189 
L 129.6 189 
L 129.6 25.92 
L 18 25.92 
z
" style="fill: #ffffff"/>
   </g>
   <g id="PathCollection_1">
    <defs>
     <path id="mcb7088ed0e" d="M 0 2.738613 
C 0.726289 2.738613 1.422928 2.450055 1.936492 1.936492 
C 2.450055 1.422928 2.738613 0.726289 2.738613 0 
C 2.738613 -0.726289 2.450055 -1.422928 1.936492 -1.936492 
C 1.422928 -2.450055 0.726289 -2.738613 0 -2.738613 
C -0.726289 -2.738613 -1.422928 -2.450055 -1.936492 -1.936492 
C -2.450055 -1.422928 -2.738613 -0.726289 -2.738613 0 
C -2.738613 0.726289 -2.450055 1.422928 -1.936492 1.936492 
C -1.422928 2.450055 -0.726289 2.738613 0 2.738613 
z
" style="stroke: #ff0000; stroke-width: 1.75"/>
    </defs>
    <g clip-path="url(#p04d5c10500)">
     <use xlink:href="#mcb7088ed0e" x="66.825" y="83.92143" style="fill: #ff0000; stroke: #ff0000; stroke-width: 1.75"/>
     <use xlink:href="#mcb7088ed0e" x="87.75" y="95.690715" style="fill: #ff0000; stroke: #ff0000; stroke-width: 1.75"/>
     <use xlink:href="#mcb7088ed0e" x="66.825" y="107.46" style="fill: #ff0000; stroke: #ff0000; stroke-width: 1.75"/>
     <use xlink:href="#mcb7088ed0e" x="73.8" y="119.229285" style="fill: #ff0000; stroke: #ff0000; stroke-width: 1.75"/>
     <use xlink:href="#mcb7088ed0e" x="87.75" y="119.229285" style="fill: #ff0000; stroke: #ff0000; stroke-width: 1.75"/>
     <use xlink:href="#mcb7088ed0e" x="66.825" y="130.99857" style="fill: #ff0000; stroke: #ff0000; stroke-width: 1.75"/>
     <use xlink:href="#mcb7088ed0e" x="80.775" y="130.99857" style="fill: #ff0000; stroke: #ff0000; stroke-width: 1.75"/>
    </g>
   </g>
   <g id="PathCollection_2">
    <defs>
     <path id="C0_0_4a6aaed558" d="M 0 2.738613 
C 0.726289 2.738613 1.422928 2.450055 1.936492 1.936492 
C 2.450055 1.422928 2.738613 0.726289 2.738613 -0 
C 2.738613 -0.726289 2.450055 -1.422928 1.936492 -1.936492 
C 1.422928 -2.450055 0.726289 -2.738613 0 -2.738613 
C -0.726289 -2.738613 -1.422928 -2.450055 -1.936492 -1.936492 
C -2.450055 -1.422928 -2.738613 -0.726289 -2.738613 0 
C -2.738613 0.726289 -2.450055 1.422928 -1.936492 1.936492 
C -1.422928 2.450055 -0.726289 2.738613 0 2.738613 
z
"/>
    </defs>
    <g clip-path="url(#p04d5c10500)">
     <use xlink:href="#C0_0_4a6aaed558" x="80.775" y="83.92143" style="fill: none; stroke: #ff0000; stroke-width: 1.75"/>
    </g>
    <g clip-path="url(#p04d5c10500)">
     <use xlink:href="#C0_0_4a6aaed558" x="59.85" y="95.690715" style="fill: none; stroke: #ff0000; stroke-width: 1.75"/>
    </g>
    <g clip-path="url(#p04d5c10500)">
     <use xlink:href="#C0_0_4a6aaed558" x="73.8" y="95.690715" style="fill: none; stroke: #ff0000; stroke-width: 1.75"/>
    </g>
    <g clip-path="url(#p04d5c10500)">
     <use xlink:href="#C0_0_4a6aaed558" x="52.875" y="107.46" style="fill: none; stroke: #ff0000; stroke-width: 1.75"/>
    </g>
    <g clip-path="url(#p04d5c10500)">
     <use xlink:href="#C0_0_4a6aaed558" x="80.775" y="107.46" style="fill: none; stroke: #ff0000; stroke-width: 1.75"/>
    </g>
    <g clip-path="url(#p04d5c10500)">
     <use xlink:href="#C0_0_4a6aaed558" x="94.725" y="107.46" style="fill: none; stroke: #ff0000; stroke-width: 1.75"/>
    </g>
    <g clip-path="url(#p04d5c10500)">
     <use xlink:href="#C0_0_4a6aaed558" x="59.85" y="119.229285" style="fill: none; stroke: #ff0000; stroke-width: 1.75"/>
    </g>
   </g>
   <g id="PathCollection_3">
    <path d="M 102.992192 55.398296 
C 102.992192 55.398296 102.992192 55.398296 102.992192 55.398296 
C 102.992192 55.398296 102.992192 55.398296 102.992192 55.398296 
C 102.992192 55.398296 102.992192 55.398296 102.992192 55.398296 
C 102.992192 55.398296 102.992192 55.398296 102.992192 55.398296 
C 102.992192 55.398296 102.992192 55.398296 102.992192 55.398296 
C 102.992192 55.398296 102.992192 55.398296 102.992192 55.398296 
C 102.992192 55.398296 102.992192 55.398296 102.992192 55.398296 
C 102.992192 55.398296 102.992192 55.398296 102.992192 55.398296 
z
" clip-path="url(#p04d5c10500)" style="stroke: #000000"/>
    <path d="M 112.520555 117.712505 
C 112.896339 117.712505 113.256782 117.563205 113.522502 117.297485 
C 113.788222 117.031766 113.937522 116.671322 113.937522 116.295538 
C 113.937522 115.919754 113.788222 115.55931 113.522502 115.29359 
C 113.256782 115.027871 112.896339 114.87857 112.520555 114.87857 
C 112.14477 114.87857 111.784327 115.027871 111.518607 115.29359 
C 111.252888 115.55931 111.103587 115.919754 111.103587 116.295538 
C 111.103587 116.671322 111.252888 117.031766 111.518607 117.297485 
C 111.784327 117.563205 112.14477 117.712505 112.520555 117.712505 
z
" clip-path="url(#p04d5c10500)" style="stroke: #000000"/>
    <path d="M 116.357455 110.304467 
C 116.357455 110.304467 116.357455 110.304467 116.357455 110.304467 
C 116.357455 110.304467 116.357455 110.304467 116.357455 110.304467 
C 116.357455 110.304467 116.357455 110.304467 116.357455 110.304467 
C 116.357455 110.304467 116.357455 110.304467 116.357455 110.304467 
C 116.357455 110.304467 116.357455 110.304467 116.357455 110.304467 
C 116.357455 110.304467 116.357455 110.304467 116.357455 110.304467 
C 116.357455 110.304467 116.357455 110.304467 116.357455 110.304467 
C 116.357455 110.304467 116.357455 110.304467 116.357455 110.304467 
z
" clip-path="url(#p04d5c10500)" style="stroke: #000000"/>
    <path d="M 112.299746 103.398177 
C 112.668412 103.398177 113.022028 103.251705 113.282714 102.991019 
C 113.5434 102.730332 113.689873 102.376716 113.689873 102.00805 
C 113.689873 101.639384 113.5434 101.285768 113.282714 101.025082 
C 113.022028 100.764396 112.668412 100.617923 112.299746 100.617923 
C 111.93108 100.617923 111.577464 100.764396 111.316778 101.025082 
C 111.056091 101.285768 110.909619 101.639384 110.909619 102.00805 
C 110.909619 102.376716 111.056091 102.730332 111.316778 102.991019 
C 111.577464 103.251705 111.93108 103.398177 112.299746 103.398177 
z
" clip-path="url(#p04d5c10500)" style="stroke: #000000"/>
    <path d="M 110.517267 87.86181 
C 110.517267 87.86181 110.517267 87.86181 110.517267 87.86181 
C 110.517267 87.86181 110.517267 87.86181 110.517267 87.86181 
C 110.517267 87.86181 110.517267 87.86181 110.517267 87.86181 
C 110.517267 87.86181 110.517267 87.86181 110.517267 87.86181 
C 110.517267 87.86181 110.517267 87.86181 110.517267 87.86181 
C 110.517267 87.86181 110.517267 87.86181 110.517267 87.86181 
C 110.517267 87.86181 110.517267 87.86181 110.517267 87.86181 
C 110.517267 87.86181 110.517267 87.86181 110.517267 87.86181 
z
" clip-path="url(#p04d5c10500)" style="stroke: #000000"/>
    <path d="M 103.41974 77.999089 
C 103.41974 77.999089 103.41974 77.999089 103.41974 77.999089 
C 103.41974 77.999089 103.41974 77.999089 103.41974 77.999089 
C 103.41974 77.999089 103.41974 77.999089 103.41974 77.999089 
C 103.41974 77.999089 103.41974 77.999089 103.41974 77.999089 
C 103.41974 77.999089 103.41974 77.999089 103.41974 77.999089 
C 103.41974 77.999089 103.41974 77.999089 103.41974 77.999089 
C 103.41974 77.999089 103.41974 77.999089 103.41974 77.999089 
C 103.41974 77.999089 103.41974 77.999089 103.41974 77.999089 
z
" clip-path="url(#p04d5c10500)" style="stroke: #000000"/>
    <path d="M 100.171604 70.61547 
C 100.171604 70.61547 100.171604 70.61547 100.171604 70.61547 
C 100.171604 70.61547 100.171604 70.61547 100.171604 70.61547 
C 100.171604 70.61547 100.171604 70.61547 100.171604 70.61547 
C 100.171604 70.61547 100.171604 70.61547 100.171604 70.61547 
C 100.171604 70.61547 100.171604 70.61547 100.171604 70.61547 
C 100.171604 70.61547 100.171604 70.61547 100.171604 70.61547 
C 100.171604 70.61547 100.171604 70.61547 100.171604 70.61547 
C 100.171604 70.61547 100.171604 70.61547 100.171604 70.61547 
z
" clip-path="url(#p04d5c10500)" style="stroke: #000000"/>
    <path d="M 96.486369 59.721493 
C 96.486369 59.721493 96.486369 59.721493 96.486369 59.721493 
C 96.486369 59.721493 96.486369 59.721493 96.486369 59.721493 
C 96.486369 59.721493 96.486369 59.721493 96.486369 59.721493 
C 96.486369 59.721493 96.486369 59.721493 96.486369 59.721493 
C 96.486369 59.721493 96.486369 59.721493 96.486369 59.721493 
C 96.486369 59.721493 96.486369 59.721493 96.486369 59.721493 
C 96.486369 59.721493 96.486369 59.721493 96.486369 59.721493 
C 96.486369 59.721493 96.486369 59.721493 96.486369 59.721493 
z
" clip-path="url(#p04d5c10500)" style="stroke: #000000"/>
    <path d="M 91.002655 51.180758 
C 91.303512 51.180758 91.592087 51.061227 91.804825 50.848489 
C 92.017563 50.635751 92.137095 50.347176 92.137095 50.046319 
C 92.137095 49.745462 92.017563 49.456886 91.804825 49.244148 
C 91.592087 49.03141 91.303512 48.911879 91.002655 48.911879 
C 90.701798 48.911879 90.413223 49.03141 90.200485 49.244148 
C 89.987747 49.456886 89.868215 49.745462 89.868215 50.046319 
C 89.868215 50.347176 89.987747 50.635751 90.200485 50.848489 
C 90.413223 51.061227 90.701798 51.180758 91.002655 51.180758 
z
" clip-path="url(#p04d5c10500)" style="stroke: #000000"/>
    <path d="M 88.356861 36.428527 
C 88.356861 36.428527 88.356861 36.428527 88.356861 36.428527 
C 88.356861 36.428527 88.356861 36.428527 88.356861 36.428527 
C 88.356861 36.428527 88.356861 36.428527 88.356861 36.428527 
C 88.356861 36.428527 88.356861 36.428527 88.356861 36.428527 
C 88.356861 36.428527 88.356861 36.428527 88.356861 36.428527 
C 88.356861 36.428527 88.356861 36.428527 88.356861 36.428527 
C 88.356861 36.428527 88.356861 36.428527 88.356861 36.428527 
C 88.356861 36.428527 88.356861 36.428527 88.356861 36.428527 
z
" clip-path="url(#p04d5c10500)" style="stroke: #000000"/>
    <path d="M 118.419672 173.972883 
C 118.419672 173.972883 118.419672 173.972883 118.419672 173.972883 
C 118.419672 173.972883 118.419672 173.972883 118.419672 173.972883 
C 118.419672 173.972883 118.419672 173.972883 118.419672 173.972883 
C 118.419672 173.972883 118.419672 173.972883 118.419672 173.972883 
C 118.419672 173.972883 118.419672 173.972883 118.419672 173.972883 
C 118.419672 173.972883 118.419672 173.972883 118.419672 173.972883 
C 118.419672 173.972883 118.419672 173.972883 118.419672 173.972883 
C 118.419672 173.972883 118.419672 173.972883 118.419672 173.972883 
z
" clip-path="url(#p04d5c10500)" style="stroke: #000000"/>
    <path d="M 122.495868 165.278171 
C 122.495868 165.278171 122.495868 165.278171 122.495868 165.278171 
C 122.495868 165.278171 122.495868 165.278171 122.495868 165.278171 
C 122.495868 165.278171 122.495868 165.278171 122.495868 165.278171 
C 122.495868 165.278171 122.495868 165.278171 122.495868 165.278171 
C 122.495868 165.278171 122.495868 165.278171 122.495868 165.278171 
C 122.495868 165.278171 122.495868 165.278171 122.495868 165.278171 
C 122.495868 165.278171 122.495868 165.278171 122.495868 165.278171 
C 122.495868 165.278171 122.495868 165.278171 122.495868 165.278171 
z
" clip-path="url(#p04d5c10500)" style="stroke: #000000"/>
    <path d="M 111.765955 156.087863 
C 112.116786 156.087863 112.453295 155.948476 112.701369 155.700402 
C 112.949444 155.452327 113.088831 155.115818 113.088831 154.764987 
C 113.088831 154.414156 112.949444 154.077648 112.701369 153.829573 
C 112.453295 153.581498 112.116786 153.442112 111.765955 153.442112 
C 111.415124 153.442112 111.078615 153.581498 110.830541 153.829573 
C 110.582466 154.077648 110.443079 154.414156 110.443079 154.764987 
C 110.443079 155.115818 110.582466 155.452327 110.830541 155.700402 
C 111.078615 155.948476 111.415124 156.087863 111.765955 156.087863 
z
" clip-path="url(#p04d5c10500)" style="stroke: #000000"/>
    <path d="M 112.749927 143.553446 
C 112.749927 143.553446 112.749927 143.553446 112.749927 143.553446 
C 112.749927 143.553446 112.749927 143.553446 112.749927 143.553446 
C 112.749927 143.553446 112.749927 143.553446 112.749927 143.553446 
C 112.749927 143.553446 112.749927 143.553446 112.749927 143.553446 
C 112.749927 143.553446 112.749927 143.553446 112.749927 143.553446 
C 112.749927 143.553446 112.749927 143.553446 112.749927 143.553446 
C 112.749927 143.553446 112.749927 143.553446 112.749927 143.553446 
C 112.749927 143.553446 112.749927 143.553446 112.749927 143.553446 
z
" clip-path="url(#p04d5c10500)" style="stroke: #000000"/>
    <path d="M 109.221011 134.126006 
C 109.221011 134.126006 109.221011 134.126006 109.221011 134.126006 
C 109.221011 134.126006 109.221011 134.126006 109.221011 134.126006 
C 109.221011 134.126006 109.221011 134.126006 109.221011 134.126006 
C 109.221011 134.126006 109.221011 134.126006 109.221011 134.126006 
C 109.221011 134.126006 109.221011 134.126006 109.221011 134.126006 
C 109.221011 134.126006 109.221011 134.126006 109.221011 134.126006 
C 109.221011 134.126006 109.221011 134.126006 109.221011 134.126006 
C 109.221011 134.126006 109.221011 134.126006 109.221011 134.126006 
z
" clip-path="url(#p04d5c10500)" style="stroke: #000000"/>
    <path d="M 103.830501 120.512672 
C 103.830501 120.512672 103.830501 120.512672 103.830501 120.512672 
C 103.830501 120.512672 103.830501 120.512672 103.830501 120.512672 
C 103.830501 120.512672 103.830501 120.512672 103.830501 120.512672 
C 103.830501 120.512672 103.830501 120.512672 103.830501 120.512672 
C 103.830501 120.512672 103.830501 120.512672 103.830501 120.512672 
C 103.830501 120.512672 103.830501 120.512672 103.830501 120.512672 
C 103.830501 120.512672 103.830501 120.512672 103.830501 120.512672 
C 103.830501 120.512672 103.830501 120.512672 103.830501 120.512672 
z
" clip-path="url(#p04d5c10500)" style="stroke: #000000"/>
    <path d="M 101.657828 110.240694 
C 101.657828 110.240694 101.657828 110.240694 101.657828 110.240694 
C 101.657828 110.240694 101.657828 110.240694 101.657828 110.240694 
C 101.657828 110.240694 101.657828 110.240694 101.657828 110.240694 
C 101.657828 110.240694 101.657828 110.240694 101.657828 110.240694 
C 101.657828 110.240694 101.657828 110.240694 101.657828 110.240694 
C 101.657828 110.240694 101.657828 110.240694 101.657828 110.240694 
C 101.657828 110.240694 101.657828 110.240694 101.657828 110.240694 
C 101.657828 110.240694 101.657828 110.240694 101.657828 110.240694 
z
" clip-path="url(#p04d5c10500)" style="stroke: #000000"/>
    <path d="M 98.247234 103.268011 
C 98.340998 103.268011 98.430933 103.230758 98.497234 103.164457 
C 98.563535 103.098156 98.600788 103.008221 98.600788 102.914457 
C 98.600788 102.820694 98.563535 102.730758 98.497234 102.664457 
C 98.430933 102.598156 98.340998 102.560904 98.247234 102.560904 
C 98.153471 102.560904 98.063535 102.598156 97.997234 102.664457 
C 97.930933 102.730758 97.893681 102.820694 97.893681 102.914457 
C 97.893681 103.008221 97.930933 103.098156 97.997234 103.164457 
C 98.063535 103.230758 98.153471 103.268011 98.247234 103.268011 
z
" clip-path="url(#p04d5c10500)" style="stroke: #000000"/>
    <path d="M 93.081439 94.674651 
C 93.175202 94.674651 93.265138 94.637399 93.331439 94.571098 
C 93.397739 94.504797 93.434992 94.414861 93.434992 94.321098 
C 93.434992 94.227334 93.397739 94.137399 93.331439 94.071098 
C 93.265138 94.004797 93.175202 93.967545 93.081439 93.967545 
C 92.987675 93.967545 92.897739 94.004797 92.831439 94.071098 
C 92.765138 94.137399 92.727885 94.227334 92.727885 94.321098 
C 92.727885 94.414861 92.765138 94.504797 92.831439 94.571098 
C 92.897739 94.637399 92.987675 94.674651 93.081439 94.674651 
z
" clip-path="url(#p04d5c10500)" style="stroke: #000000"/>
    <path d="M 91.108758 83.026644 
C 91.516896 83.026644 91.908373 82.864489 92.19697 82.575892 
C 92.485567 82.287295 92.647722 81.895818 92.647722 81.48768 
C 92.647722 81.079542 92.485567 80.688065 92.19697 80.399468 
C 91.908373 80.11087 91.516896 79.948715 91.108758 79.948715 
C 90.70062 79.948715 90.309143 80.11087 90.020545 80.399468 
C 89.731948 80.688065 89.569793 81.079542 89.569793 81.48768 
C 89.569793 81.895818 89.731948 82.287295 90.020545 82.575892 
C 90.309143 82.864489 90.70062 83.026644 91.108758 83.026644 
z
" clip-path="url(#p04d5c10500)" style="stroke: #000000"/>
    <path d="M 89.792977 76.807417 
C 90.206957 76.807417 90.604037 76.642941 90.896765 76.350213 
C 91.189493 76.057485 91.353969 75.660405 91.353969 75.246424 
C 91.353969 74.832444 91.189493 74.435364 90.896765 74.142636 
C 90.604037 73.849908 90.206957 73.685432 89.792977 73.685432 
C 89.378997 73.685432 88.981916 73.849908 88.689188 74.142636 
C 88.39646 74.435364 88.231984 74.832444 88.231984 75.246424 
C 88.231984 75.660405 88.39646 76.057485 88.689188 76.350213 
C 88.981916 76.642941 89.378997 76.807417 89.792977 76.807417 
z
" clip-path="url(#p04d5c10500)" style="stroke: #000000"/>
    <path d="M 85.856642 61.007335 
C 85.856642 61.007335 85.856642 61.007335 85.856642 61.007335 
C 85.856642 61.007335 85.856642 61.007335 85.856642 61.007335 
C 85.856642 61.007335 85.856642 61.007335 85.856642 61.007335 
C 85.856642 61.007335 85.856642 61.007335 85.856642 61.007335 
C 85.856642 61.007335 85.856642 61.007335 85.856642 61.007335 
C 85.856642 61.007335 85.856642 61.007335 85.856642 61.007335 
C 85.856642 61.007335 85.856642 61.007335 85.856642 61.007335 
C 85.856642 61.007335 85.856642 61.007335 85.856642 61.007335 
z
" clip-path="url(#p04d5c10500)" style="stroke: #000000"/>
    <path d="M 81.584361 50.388909 
C 81.584361 50.388909 81.584361 50.388909 81.584361 50.388909 
C 81.584361 50.388909 81.584361 50.388909 81.584361 50.388909 
C 81.584361 50.388909 81.584361 50.388909 81.584361 50.388909 
C 81.584361 50.388909 81.584361 50.388909 81.584361 50.388909 
C 81.584361 50.388909 81.584361 50.388909 81.584361 50.388909 
C 81.584361 50.388909 81.584361 50.388909 81.584361 50.388909 
C 81.584361 50.388909 81.584361 50.388909 81.584361 50.388909 
C 81.584361 50.388909 81.584361 50.388909 81.584361 50.388909 
z
" clip-path="url(#p04d5c10500)" style="stroke: #000000"/>
    <path d="M 81.539109 41.140158 
C 81.539109 41.140158 81.539109 41.140158 81.539109 41.140158 
C 81.539109 41.140158 81.539109 41.140158 81.539109 41.140158 
C 81.539109 41.140158 81.539109 41.140158 81.539109 41.140158 
C 81.539109 41.140158 81.539109 41.140158 81.539109 41.140158 
C 81.539109 41.140158 81.539109 41.140158 81.539109 41.140158 
C 81.539109 41.140158 81.539109 41.140158 81.539109 41.140158 
C 81.539109 41.140158 81.539109 41.140158 81.539109 41.140158 
C 81.539109 41.140158 81.539109 41.140158 81.539109 41.140158 
z
" clip-path="url(#p04d5c10500)" style="stroke: #000000"/>
    <path d="M 75.289937 30.25055 
C 75.289937 30.25055 75.289937 30.25055 75.289937 30.25055 
C 75.289937 30.25055 75.289937 30.25055 75.289937 30.25055 
C 75.289937 30.25055 75.289937 30.25055 75.289937 30.25055 
C 75.289937 30.25055 75.289937 30.25055 75.289937 30.25055 
C 75.289937 30.25055 75.289937 30.25055 75.289937 30.25055 
C 75.289937 30.25055 75.289937 30.25055 75.289937 30.25055 
C 75.289937 30.25055 75.289937 30.25055 75.289937 30.25055 
C 75.289937 30.25055 75.289937 30.25055 75.289937 30.25055 
z
" clip-path="url(#p04d5c10500)" style="stroke: #000000"/>
    <path d="M 107.550873 165.878589 
C 107.550873 165.878589 107.550873 165.878589 107.550873 165.878589 
C 107.550873 165.878589 107.550873 165.878589 107.550873 165.878589 
C 107.550873 165.878589 107.550873 165.878589 107.550873 165.878589 
C 107.550873 165.878589 107.550873 165.878589 107.550873 165.878589 
C 107.550873 165.878589 107.550873 165.878589 107.550873 165.878589 
C 107.550873 165.878589 107.550873 165.878589 107.550873 165.878589 
C 107.550873 165.878589 107.550873 165.878589 107.550873 165.878589 
C 107.550873 165.878589 107.550873 165.878589 107.550873 165.878589 
z
" clip-path="url(#p04d5c10500)" style="stroke: #000000"/>
    <path d="M 108.742327 159.293016 
C 108.742327 159.293016 108.742327 159.293016 108.742327 159.293016 
C 108.742327 159.293016 108.742327 159.293016 108.742327 159.293016 
C 108.742327 159.293016 108.742327 159.293016 108.742327 159.293016 
C 108.742327 159.293016 108.742327 159.293016 108.742327 159.293016 
C 108.742327 159.293016 108.742327 159.293016 108.742327 159.293016 
C 108.742327 159.293016 108.742327 159.293016 108.742327 159.293016 
C 108.742327 159.293016 108.742327 159.293016 108.742327 159.293016 
C 108.742327 159.293016 108.742327 159.293016 108.742327 159.293016 
z
" clip-path="url(#p04d5c10500)" style="stroke: #000000"/>
    <path d="M 100.562391 148.434866 
C 100.562391 148.434866 100.562391 148.434866 100.562391 148.434866 
C 100.562391 148.434866 100.562391 148.434866 100.562391 148.434866 
C 100.562391 148.434866 100.562391 148.434866 100.562391 148.434866 
C 100.562391 148.434866 100.562391 148.434866 100.562391 148.434866 
C 100.562391 148.434866 100.562391 148.434866 100.562391 148.434866 
C 100.562391 148.434866 100.562391 148.434866 100.562391 148.434866 
C 100.562391 148.434866 100.562391 148.434866 100.562391 148.434866 
C 100.562391 148.434866 100.562391 148.434866 100.562391 148.434866 
z
" clip-path="url(#p04d5c10500)" style="stroke: #000000"/>
    <path d="M 99.541244 138.960806 
C 99.541244 138.960806 99.541244 138.960806 99.541244 138.960806 
C 99.541244 138.960806 99.541244 138.960806 99.541244 138.960806 
C 99.541244 138.960806 99.541244 138.960806 99.541244 138.960806 
C 99.541244 138.960806 99.541244 138.960806 99.541244 138.960806 
C 99.541244 138.960806 99.541244 138.960806 99.541244 138.960806 
C 99.541244 138.960806 99.541244 138.960806 99.541244 138.960806 
C 99.541244 138.960806 99.541244 138.960806 99.541244 138.960806 
C 99.541244 138.960806 99.541244 138.960806 99.541244 138.960806 
z
" clip-path="url(#p04d5c10500)" style="stroke: #000000"/>
    <path d="M 92.741766 127.322904 
C 93.161089 127.322904 93.563294 127.156305 93.8598 126.859799 
C 94.156306 126.563293 94.322905 126.161088 94.322905 125.741765 
C 94.322905 125.322442 94.156306 124.920237 93.8598 124.623731 
C 93.563294 124.327225 93.161089 124.160627 92.741766 124.160627 
C 92.322443 124.160627 91.920238 124.327225 91.623732 124.623731 
C 91.327226 124.920237 91.160627 125.322442 91.160627 125.741765 
C 91.160627 126.161088 91.327226 126.563293 91.623732 126.859799 
C 91.920238 127.156305 92.322443 127.322904 92.741766 127.322904 
z
" clip-path="url(#p04d5c10500)" style="stroke: #000000"/>
    <path d="M 90.356225 118.925436 
C 90.766058 118.925436 91.15916 118.762607 91.448956 118.472812 
C 91.738751 118.183016 91.90158 117.789914 91.90158 117.380081 
C 91.90158 116.970248 91.738751 116.577145 91.448956 116.28735 
C 91.15916 115.997554 90.766058 115.834726 90.356225 115.834726 
C 89.946392 115.834726 89.55329 115.997554 89.263494 116.28735 
C 88.973698 116.577145 88.81087 116.970248 88.81087 117.380081 
C 88.81087 117.789914 88.973698 118.183016 89.263494 118.472812 
C 89.55329 118.762607 89.946392 118.925436 90.356225 118.925436 
z
" clip-path="url(#p04d5c10500)" style="stroke: #000000"/>
    <path d="M 92.263701 106.609204 
C 92.263701 106.609204 92.263701 106.609204 92.263701 106.609204 
C 92.263701 106.609204 92.263701 106.609204 92.263701 106.609204 
C 92.263701 106.609204 92.263701 106.609204 92.263701 106.609204 
C 92.263701 106.609204 92.263701 106.609204 92.263701 106.609204 
C 92.263701 106.609204 92.263701 106.609204 92.263701 106.609204 
C 92.263701 106.609204 92.263701 106.609204 92.263701 106.609204 
C 92.263701 106.609204 92.263701 106.609204 92.263701 106.609204 
C 92.263701 106.609204 92.263701 106.609204 92.263701 106.609204 
z
" clip-path="url(#p04d5c10500)" style="stroke: #000000"/>
    <path d="M 85.016515 98.216837 
C 85.40576 98.216837 85.779114 98.062189 86.054352 97.786951 
C 86.32959 97.511713 86.484238 97.138359 86.484238 96.749114 
C 86.484238 96.359869 86.32959 95.986515 86.054352 95.711277 
C 85.779114 95.43604 85.40576 95.281391 85.016515 95.281391 
C 84.62727 95.281391 84.253916 95.43604 83.978678 95.711277 
C 83.703441 95.986515 83.548792 96.359869 83.548792 96.749114 
C 83.548792 97.138359 83.703441 97.511713 83.978678 97.786951 
C 84.253916 98.062189 84.62727 98.216837 85.016515 98.216837 
z
" clip-path="url(#p04d5c10500)" style="stroke: #000000"/>
    <path d="M 82.225707 85.864564 
C 82.645292 85.864564 83.047748 85.697862 83.34444 85.40117 
C 83.641131 85.104479 83.807834 84.702023 83.807834 84.282438 
C 83.807834 83.862854 83.641131 83.460397 83.34444 83.163706 
C 83.047748 82.867015 82.645292 82.700312 82.225707 82.700312 
C 81.806123 82.700312 81.403667 82.867015 81.106975 83.163706 
C 80.810284 83.460397 80.643581 83.862854 80.643581 84.282438 
C 80.643581 84.702023 80.810284 85.104479 81.106975 85.40117 
C 81.403667 85.697862 81.806123 85.864564 82.225707 85.864564 
z
" clip-path="url(#p04d5c10500)" style="stroke: #000000"/>
    <path d="M 80.050369 76.523276 
C 80.469692 76.523276 80.871897 76.356677 81.168403 76.060171 
C 81.464909 75.763665 81.631508 75.36146 81.631508 74.942137 
C 81.631508 74.522814 81.464909 74.120609 81.168403 73.824103 
C 80.871897 73.527597 80.469692 73.360998 80.050369 73.360998 
C 79.631046 73.360998 79.228841 73.527597 78.932335 73.824103 
C 78.635829 74.120609 78.46923 74.522814 78.46923 74.942137 
C 78.46923 75.36146 78.635829 75.763665 78.932335 76.060171 
C 79.228841 76.356677 79.631046 76.523276 80.050369 76.523276 
z
" clip-path="url(#p04d5c10500)" style="stroke: #000000"/>
    <path d="M 74.605559 65.0805 
C 74.958606 65.0805 75.297241 64.940233 75.546883 64.690591 
C 75.796525 64.440949 75.936792 64.102315 75.936792 63.749268 
C 75.936792 63.39622 75.796525 63.057586 75.546883 62.807944 
C 75.297241 62.558302 74.958606 62.418035 74.605559 62.418035 
C 74.252512 62.418035 73.913877 62.558302 73.664235 62.807944 
C 73.414593 63.057586 73.274326 63.39622 73.274326 63.749268 
C 73.274326 64.102315 73.414593 64.440949 73.664235 64.690591 
C 73.913877 64.940233 74.252512 65.0805 74.605559 65.0805 
z
" clip-path="url(#p04d5c10500)" style="stroke: #000000"/>
    <path d="M 71.295565 54.528674 
C 71.295565 54.528674 71.295565 54.528674 71.295565 54.528674 
C 71.295565 54.528674 71.295565 54.528674 71.295565 54.528674 
C 71.295565 54.528674 71.295565 54.528674 71.295565 54.528674 
C 71.295565 54.528674 71.295565 54.528674 71.295565 54.528674 
C 71.295565 54.528674 71.295565 54.528674 71.295565 54.528674 
C 71.295565 54.528674 71.295565 54.528674 71.295565 54.528674 
C 71.295565 54.528674 71.295565 54.528674 71.295565 54.528674 
C 71.295565 54.528674 71.295565 54.528674 71.295565 54.528674 
z
" clip-path="url(#p04d5c10500)" style="stroke: #000000"/>
    <path d="M 64.886644 41.915614 
C 64.886644 41.915614 64.886644 41.915614 64.886644 41.915614 
C 64.886644 41.915614 64.886644 41.915614 64.886644 41.915614 
C 64.886644 41.915614 64.886644 41.915614 64.886644 41.915614 
C 64.886644 41.915614 64.886644 41.915614 64.886644 41.915614 
C 64.886644 41.915614 64.886644 41.915614 64.886644 41.915614 
C 64.886644 41.915614 64.886644 41.915614 64.886644 41.915614 
C 64.886644 41.915614 64.886644 41.915614 64.886644 41.915614 
C 64.886644 41.915614 64.886644 41.915614 64.886644 41.915614 
z
" clip-path="url(#p04d5c10500)" style="stroke: #000000"/>
    <path d="M 62.744385 33.389464 
C 62.744385 33.389464 62.744385 33.389464 62.744385 33.389464 
C 62.744385 33.389464 62.744385 33.389464 62.744385 33.389464 
C 62.744385 33.389464 62.744385 33.389464 62.744385 33.389464 
C 62.744385 33.389464 62.744385 33.389464 62.744385 33.389464 
C 62.744385 33.389464 62.744385 33.389464 62.744385 33.389464 
C 62.744385 33.389464 62.744385 33.389464 62.744385 33.389464 
C 62.744385 33.389464 62.744385 33.389464 62.744385 33.389464 
C 62.744385 33.389464 62.744385 33.389464 62.744385 33.389464 
z
" clip-path="url(#p04d5c10500)" style="stroke: #000000"/>
    <path d="M 61.563039 25.794053 
C 61.563039 25.794053 61.563039 25.794053 61.563039 25.794053 
C 61.563039 25.794053 61.563039 25.794053 61.563039 25.794053 
C 61.563039 25.794053 61.563039 25.794053 61.563039 25.794053 
C 61.563039 25.794053 61.563039 25.794053 61.563039 25.794053 
C 61.563039 25.794053 61.563039 25.794053 61.563039 25.794053 
C 61.563039 25.794053 61.563039 25.794053 61.563039 25.794053 
C 61.563039 25.794053 61.563039 25.794053 61.563039 25.794053 
C 61.563039 25.794053 61.563039 25.794053 61.563039 25.794053 
z
" clip-path="url(#p04d5c10500)" style="stroke: #000000"/>
    <path d="M 103.433973 182.540052 
C 103.618498 182.540052 103.795491 182.46674 103.92597 182.33626 
C 104.056449 182.205781 104.129762 182.028789 104.129762 181.844263 
C 104.129762 181.659737 104.056449 181.482745 103.92597 181.352266 
C 103.795491 181.221786 103.618498 181.148474 103.433973 181.148474 
C 103.249447 181.148474 103.072454 181.221786 102.941975 181.352266 
C 102.811496 181.482745 102.738183 181.659737 102.738183 181.844263 
C 102.738183 182.028789 102.811496 182.205781 102.941975 182.33626 
C 103.072454 182.46674 103.249447 182.540052 103.433973 182.540052 
z
" clip-path="url(#p04d5c10500)" style="stroke: #000000"/>
    <path d="M 93.34496 169.432031 
C 93.34496 169.432031 93.34496 169.432031 93.34496 169.432031 
C 93.34496 169.432031 93.34496 169.432031 93.34496 169.432031 
C 93.34496 169.432031 93.34496 169.432031 93.34496 169.432031 
C 93.34496 169.432031 93.34496 169.432031 93.34496 169.432031 
C 93.34496 169.432031 93.34496 169.432031 93.34496 169.432031 
C 93.34496 169.432031 93.34496 169.432031 93.34496 169.432031 
C 93.34496 169.432031 93.34496 169.432031 93.34496 169.432031 
C 93.34496 169.432031 93.34496 169.432031 93.34496 169.432031 
z
" clip-path="url(#p04d5c10500)" style="stroke: #000000"/>
    <path d="M 94.122047 161.56941 
C 94.122047 161.56941 94.122047 161.56941 94.122047 161.56941 
C 94.122047 161.56941 94.122047 161.56941 94.122047 161.56941 
C 94.122047 161.56941 94.122047 161.56941 94.122047 161.56941 
C 94.122047 161.56941 94.122047 161.56941 94.122047 161.56941 
C 94.122047 161.56941 94.122047 161.56941 94.122047 161.56941 
C 94.122047 161.56941 94.122047 161.56941 94.122047 161.56941 
C 94.122047 161.56941 94.122047 161.56941 94.122047 161.56941 
C 94.122047 161.56941 94.122047 161.56941 94.122047 161.56941 
z
" clip-path="url(#p04d5c10500)" style="stroke: #000000"/>
    <path d="M 96.304262 148.756503 
C 96.304262 148.756503 96.304262 148.756503 96.304262 148.756503 
C 96.304262 148.756503 96.304262 148.756503 96.304262 148.756503 
C 96.304262 148.756503 96.304262 148.756503 96.304262 148.756503 
C 96.304262 148.756503 96.304262 148.756503 96.304262 148.756503 
C 96.304262 148.756503 96.304262 148.756503 96.304262 148.756503 
C 96.304262 148.756503 96.304262 148.756503 96.304262 148.756503 
C 96.304262 148.756503 96.304262 148.756503 96.304262 148.756503 
C 96.304262 148.756503 96.304262 148.756503 96.304262 148.756503 
z
" clip-path="url(#p04d5c10500)" style="stroke: #000000"/>
    <path d="M 88.339829 139.894999 
C 88.339829 139.894999 88.339829 139.894999 88.339829 139.894999 
C 88.339829 139.894999 88.339829 139.894999 88.339829 139.894999 
C 88.339829 139.894999 88.339829 139.894999 88.339829 139.894999 
C 88.339829 139.894999 88.339829 139.894999 88.339829 139.894999 
C 88.339829 139.894999 88.339829 139.894999 88.339829 139.894999 
C 88.339829 139.894999 88.339829 139.894999 88.339829 139.894999 
C 88.339829 139.894999 88.339829 139.894999 88.339829 139.894999 
C 88.339829 139.894999 88.339829 139.894999 88.339829 139.894999 
z
" clip-path="url(#p04d5c10500)" style="stroke: #000000"/>
    <path d="M 82.85216 130.511173 
C 82.984762 130.511173 83.11195 130.458489 83.205713 130.364726 
C 83.299477 130.270962 83.35216 130.143774 83.35216 130.011173 
C 83.35216 129.878571 83.299477 129.751383 83.205713 129.657619 
C 83.11195 129.563856 82.984762 129.511173 82.85216 129.511173 
C 82.719558 129.511173 82.59237 129.563856 82.498607 129.657619 
C 82.404843 129.751383 82.35216 129.878571 82.35216 130.011173 
C 82.35216 130.143774 82.404843 130.270962 82.498607 130.364726 
C 82.59237 130.458489 82.719558 130.511173 82.85216 130.511173 
z
" clip-path="url(#p04d5c10500)" style="stroke: #000000"/>
    <path d="M 82.625305 120.418618 
C 83.04489 120.418618 83.447346 120.251916 83.744037 119.955224 
C 84.040728 119.658533 84.207431 119.256077 84.207431 118.836492 
C 84.207431 118.416908 84.040728 118.014451 83.744037 117.71776 
C 83.447346 117.421069 83.04489 117.254366 82.625305 117.254366 
C 82.20572 117.254366 81.803264 117.421069 81.506573 117.71776 
C 81.209881 118.014451 81.043179 118.416908 81.043179 118.836492 
C 81.043179 119.256077 81.209881 119.658533 81.506573 119.955224 
C 81.803264 120.251916 82.20572 120.418618 82.625305 120.418618 
z
" clip-path="url(#p04d5c10500)" style="stroke: #000000"/>
    <path d="M 78.998772 110.757035 
C 79.404038 110.757035 79.792759 110.596021 80.079326 110.309455 
C 80.365892 110.022889 80.526906 109.634167 80.526906 109.228901 
C 80.526906 108.823635 80.365892 108.434914 80.079326 108.148348 
C 79.792759 107.861781 79.404038 107.700768 78.998772 107.700768 
C 78.593506 107.700768 78.204784 107.861781 77.918218 108.148348 
C 77.631652 108.434914 77.470638 108.823635 77.470638 109.228901 
C 77.470638 109.634167 77.631652 110.022889 77.918218 110.309455 
C 78.204784 110.596021 78.593506 110.757035 78.998772 110.757035 
z
" clip-path="url(#p04d5c10500)" style="stroke: #000000"/>
    <path d="M 77.735591 102.530482 
C 78.154914 102.530482 78.557119 102.363883 78.853625 102.067377 
C 79.150131 101.770871 79.31673 101.368666 79.31673 100.949343 
C 79.31673 100.53002 79.150131 100.127815 78.853625 99.831309 
C 78.557119 99.534803 78.154914 99.368204 77.735591 99.368204 
C 77.316268 99.368204 76.914063 99.534803 76.617557 99.831309 
C 76.321051 100.127815 76.154452 100.53002 76.154452 100.949343 
C 76.154452 101.368666 76.321051 101.770871 76.617557 102.067377 
C 76.914063 102.363883 77.316268 102.530482 77.735591 102.530482 
z
" clip-path="url(#p04d5c10500)" style="stroke: #000000"/>
    <path d="M 72.23206 91.514883 
C 72.651644 91.514883 73.054101 91.348181 73.350792 91.051489 
C 73.647483 90.754798 73.814186 90.352342 73.814186 89.932757 
C 73.814186 89.513173 73.647483 89.110716 73.350792 88.814025 
C 73.054101 88.517334 72.651644 88.350631 72.23206 88.350631 
C 71.812475 88.350631 71.410019 88.517334 71.113328 88.814025 
C 70.816636 89.110716 70.649934 89.513173 70.649934 89.932757 
C 70.649934 90.352342 70.816636 90.754798 71.113328 91.051489 
C 71.410019 91.348181 71.812475 91.514883 72.23206 91.514883 
z
" clip-path="url(#p04d5c10500)" style="stroke: #000000"/>
    <path d="M 70.753534 78.89183 
C 70.753534 78.89183 70.753534 78.89183 70.753534 78.89183 
C 70.753534 78.89183 70.753534 78.89183 70.753534 78.89183 
C 70.753534 78.89183 70.753534 78.89183 70.753534 78.89183 
C 70.753534 78.89183 70.753534 78.89183 70.753534 78.89183 
C 70.753534 78.89183 70.753534 78.89183 70.753534 78.89183 
C 70.753534 78.89183 70.753534 78.89183 70.753534 78.89183 
C 70.753534 78.89183 70.753534 78.89183 70.753534 78.89183 
C 70.753534 78.89183 70.753534 78.89183 70.753534 78.89183 
z
" clip-path="url(#p04d5c10500)" style="stroke: #000000"/>
    <path d="M 66.271387 68.223891 
C 66.271387 68.223891 66.271387 68.223891 66.271387 68.223891 
C 66.271387 68.223891 66.271387 68.223891 66.271387 68.223891 
C 66.271387 68.223891 66.271387 68.223891 66.271387 68.223891 
C 66.271387 68.223891 66.271387 68.223891 66.271387 68.223891 
C 66.271387 68.223891 66.271387 68.223891 66.271387 68.223891 
C 66.271387 68.223891 66.271387 68.223891 66.271387 68.223891 
C 66.271387 68.223891 66.271387 68.223891 66.271387 68.223891 
C 66.271387 68.223891 66.271387 68.223891 66.271387 68.223891 
z
" clip-path="url(#p04d5c10500)" style="stroke: #000000"/>
    <path d="M 60.771237 57.11275 
C 60.771237 57.11275 60.771237 57.11275 60.771237 57.11275 
C 60.771237 57.11275 60.771237 57.11275 60.771237 57.11275 
C 60.771237 57.11275 60.771237 57.11275 60.771237 57.11275 
C 60.771237 57.11275 60.771237 57.11275 60.771237 57.11275 
C 60.771237 57.11275 60.771237 57.11275 60.771237 57.11275 
C 60.771237 57.11275 60.771237 57.11275 60.771237 57.11275 
C 60.771237 57.11275 60.771237 57.11275 60.771237 57.11275 
C 60.771237 57.11275 60.771237 57.11275 60.771237 57.11275 
z
" clip-path="url(#p04d5c10500)" style="stroke: #000000"/>
    <path d="M 56.321694 49.026548 
C 56.321694 49.026548 56.321694 49.026548 56.321694 49.026548 
C 56.321694 49.026548 56.321694 49.026548 56.321694 49.026548 
C 56.321694 49.026548 56.321694 49.026548 56.321694 49.026548 
C 56.321694 49.026548 56.321694 49.026548 56.321694 49.026548 
C 56.321694 49.026548 56.321694 49.026548 56.321694 49.026548 
C 56.321694 49.026548 56.321694 49.026548 56.321694 49.026548 
C 56.321694 49.026548 56.321694 49.026548 56.321694 49.026548 
C 56.321694 49.026548 56.321694 49.026548 56.321694 49.026548 
z
" clip-path="url(#p04d5c10500)" style="stroke: #000000"/>
    <path d="M 53.943925 39.017316 
C 53.943925 39.017316 53.943925 39.017316 53.943925 39.017316 
C 53.943925 39.017316 53.943925 39.017316 53.943925 39.017316 
C 53.943925 39.017316 53.943925 39.017316 53.943925 39.017316 
C 53.943925 39.017316 53.943925 39.017316 53.943925 39.017316 
C 53.943925 39.017316 53.943925 39.017316 53.943925 39.017316 
C 53.943925 39.017316 53.943925 39.017316 53.943925 39.017316 
C 53.943925 39.017316 53.943925 39.017316 53.943925 39.017316 
C 53.943925 39.017316 53.943925 39.017316 53.943925 39.017316 
z
" clip-path="url(#p04d5c10500)" style="stroke: #000000"/>
    <path d="M 53.676067 32.746231 
C 53.676067 32.746231 53.676067 32.746231 53.676067 32.746231 
C 53.676067 32.746231 53.676067 32.746231 53.676067 32.746231 
C 53.676067 32.746231 53.676067 32.746231 53.676067 32.746231 
C 53.676067 32.746231 53.676067 32.746231 53.676067 32.746231 
C 53.676067 32.746231 53.676067 32.746231 53.676067 32.746231 
C 53.676067 32.746231 53.676067 32.746231 53.676067 32.746231 
C 53.676067 32.746231 53.676067 32.746231 53.676067 32.746231 
C 53.676067 32.746231 53.676067 32.746231 53.676067 32.746231 
z
" clip-path="url(#p04d5c10500)" style="stroke: #000000"/>
    <path d="M 88.859548 174.296187 
C 88.859548 174.296187 88.859548 174.296187 88.859548 174.296187 
C 88.859548 174.296187 88.859548 174.296187 88.859548 174.296187 
C 88.859548 174.296187 88.859548 174.296187 88.859548 174.296187 
C 88.859548 174.296187 88.859548 174.296187 88.859548 174.296187 
C 88.859548 174.296187 88.859548 174.296187 88.859548 174.296187 
C 88.859548 174.296187 88.859548 174.296187 88.859548 174.296187 
C 88.859548 174.296187 88.859548 174.296187 88.859548 174.296187 
C 88.859548 174.296187 88.859548 174.296187 88.859548 174.296187 
z
" clip-path="url(#p04d5c10500)" style="stroke: #000000"/>
    <path d="M 89.497396 163.390172 
C 89.497396 163.390172 89.497396 163.390172 89.497396 163.390172 
C 89.497396 163.390172 89.497396 163.390172 89.497396 163.390172 
C 89.497396 163.390172 89.497396 163.390172 89.497396 163.390172 
C 89.497396 163.390172 89.497396 163.390172 89.497396 163.390172 
C 89.497396 163.390172 89.497396 163.390172 89.497396 163.390172 
C 89.497396 163.390172 89.497396 163.390172 89.497396 163.390172 
C 89.497396 163.390172 89.497396 163.390172 89.497396 163.390172 
C 89.497396 163.390172 89.497396 163.390172 89.497396 163.390172 
z
" clip-path="url(#p04d5c10500)" style="stroke: #000000"/>
    <path d="M 81.727536 156.176355 
C 81.727536 156.176355 81.727536 156.176355 81.727536 156.176355 
C 81.727536 156.176355 81.727536 156.176355 81.727536 156.176355 
C 81.727536 156.176355 81.727536 156.176355 81.727536 156.176355 
C 81.727536 156.176355 81.727536 156.176355 81.727536 156.176355 
C 81.727536 156.176355 81.727536 156.176355 81.727536 156.176355 
C 81.727536 156.176355 81.727536 156.176355 81.727536 156.176355 
C 81.727536 156.176355 81.727536 156.176355 81.727536 156.176355 
C 81.727536 156.176355 81.727536 156.176355 81.727536 156.176355 
z
" clip-path="url(#p04d5c10500)" style="stroke: #000000"/>
    <path d="M 80.966709 148.90479 
C 80.966709 148.90479 80.966709 148.90479 80.966709 148.90479 
C 80.966709 148.90479 80.966709 148.90479 80.966709 148.90479 
C 80.966709 148.90479 80.966709 148.90479 80.966709 148.90479 
C 80.966709 148.90479 80.966709 148.90479 80.966709 148.90479 
C 80.966709 148.90479 80.966709 148.90479 80.966709 148.90479 
C 80.966709 148.90479 80.966709 148.90479 80.966709 148.90479 
C 80.966709 148.90479 80.966709 148.90479 80.966709 148.90479 
C 80.966709 148.90479 80.966709 148.90479 80.966709 148.90479 
z
" clip-path="url(#p04d5c10500)" style="stroke: #000000"/>
    <path d="M 76.608723 135.902521 
C 76.608723 135.902521 76.608723 135.902521 76.608723 135.902521 
C 76.608723 135.902521 76.608723 135.902521 76.608723 135.902521 
C 76.608723 135.902521 76.608723 135.902521 76.608723 135.902521 
C 76.608723 135.902521 76.608723 135.902521 76.608723 135.902521 
C 76.608723 135.902521 76.608723 135.902521 76.608723 135.902521 
C 76.608723 135.902521 76.608723 135.902521 76.608723 135.902521 
C 76.608723 135.902521 76.608723 135.902521 76.608723 135.902521 
C 76.608723 135.902521 76.608723 135.902521 76.608723 135.902521 
z
" clip-path="url(#p04d5c10500)" style="stroke: #000000"/>
    <path d="M 73.058869 123.575478 
C 73.058869 123.575478 73.058869 123.575478 73.058869 123.575478 
C 73.058869 123.575478 73.058869 123.575478 73.058869 123.575478 
C 73.058869 123.575478 73.058869 123.575478 73.058869 123.575478 
C 73.058869 123.575478 73.058869 123.575478 73.058869 123.575478 
C 73.058869 123.575478 73.058869 123.575478 73.058869 123.575478 
C 73.058869 123.575478 73.058869 123.575478 73.058869 123.575478 
C 73.058869 123.575478 73.058869 123.575478 73.058869 123.575478 
C 73.058869 123.575478 73.058869 123.575478 73.058869 123.575478 
z
" clip-path="url(#p04d5c10500)" style="stroke: #000000"/>
    <path d="M 67.990735 111.181968 
C 68.198268 111.181968 68.397329 111.099514 68.544076 110.952766 
C 68.690824 110.806018 68.773278 110.606958 68.773278 110.399425 
C 68.773278 110.191893 68.690824 109.992832 68.544076 109.846084 
C 68.397329 109.699337 68.198268 109.616883 67.990735 109.616883 
C 67.783203 109.616883 67.584142 109.699337 67.437394 109.846084 
C 67.290647 109.992832 67.208193 110.191893 67.208193 110.399425 
C 67.208193 110.606958 67.290647 110.806018 67.437394 110.952766 
C 67.584142 111.099514 67.783203 111.181968 67.990735 111.181968 
z
" clip-path="url(#p04d5c10500)" style="stroke: #000000"/>
    <path d="M 64.790291 103.006222 
C 64.790291 103.006222 64.790291 103.006222 64.790291 103.006222 
C 64.790291 103.006222 64.790291 103.006222 64.790291 103.006222 
C 64.790291 103.006222 64.790291 103.006222 64.790291 103.006222 
C 64.790291 103.006222 64.790291 103.006222 64.790291 103.006222 
C 64.790291 103.006222 64.790291 103.006222 64.790291 103.006222 
C 64.790291 103.006222 64.790291 103.006222 64.790291 103.006222 
C 64.790291 103.006222 64.790291 103.006222 64.790291 103.006222 
C 64.790291 103.006222 64.790291 103.006222 64.790291 103.006222 
z
" clip-path="url(#p04d5c10500)" style="stroke: #000000"/>
    <path d="M 57.506329 95.450434 
C 57.899765 95.450434 58.27714 95.29412 58.555341 95.015919 
C 58.833542 94.737718 58.989856 94.360343 58.989856 93.966907 
C 58.989856 93.573471 58.833542 93.196096 58.555341 92.917895 
C 58.27714 92.639694 57.899765 92.48338 57.506329 92.48338 
C 57.112893 92.48338 56.735519 92.639694 56.457317 92.917895 
C 56.179116 93.196096 56.022802 93.573471 56.022802 93.966907 
C 56.022802 94.360343 56.179116 94.737718 56.457317 95.015919 
C 56.735519 95.29412 57.112893 95.450434 57.506329 95.450434 
z
" clip-path="url(#p04d5c10500)" style="stroke: #000000"/>
    <path d="M 59.126584 85.696324 
C 59.545907 85.696324 59.948112 85.529725 60.244618 85.233219 
C 60.541124 84.936713 60.707723 84.534508 60.707723 84.115185 
C 60.707723 83.695862 60.541124 83.293657 60.244618 82.997151 
C 59.948112 82.700645 59.545907 82.534046 59.126584 82.534046 
C 58.707261 82.534046 58.305056 82.700645 58.00855 82.997151 
C 57.712044 83.293657 57.545445 83.695862 57.545445 84.115185 
C 57.545445 84.534508 57.712044 84.936713 58.00855 85.233219 
C 58.305056 85.529725 58.707261 85.696324 59.126584 85.696324 
z
" clip-path="url(#p04d5c10500)" style="stroke: #000000"/>
    <path d="M 55.589239 70.586949 
C 55.589239 70.586949 55.589239 70.586949 55.589239 70.586949 
C 55.589239 70.586949 55.589239 70.586949 55.589239 70.586949 
C 55.589239 70.586949 55.589239 70.586949 55.589239 70.586949 
C 55.589239 70.586949 55.589239 70.586949 55.589239 70.586949 
C 55.589239 70.586949 55.589239 70.586949 55.589239 70.586949 
C 55.589239 70.586949 55.589239 70.586949 55.589239 70.586949 
C 55.589239 70.586949 55.589239 70.586949 55.589239 70.586949 
C 55.589239 70.586949 55.589239 70.586949 55.589239 70.586949 
z
" clip-path="url(#p04d5c10500)" style="stroke: #000000"/>
    <path d="M 52.696012 67.847792 
C 53.048619 67.847792 53.386832 67.707699 53.636163 67.458369 
C 53.885494 67.209038 54.025586 66.870825 54.025586 66.518218 
C 54.025586 66.165611 53.885494 65.827398 53.636163 65.578067 
C 53.386832 65.328736 53.048619 65.188644 52.696012 65.188644 
C 52.343405 65.188644 52.005192 65.328736 51.755861 65.578067 
C 51.50653 65.827398 51.366438 66.165611 51.366438 66.518218 
C 51.366438 66.870825 51.50653 67.209038 51.755861 67.458369 
C 52.005192 67.707699 52.343405 67.847792 52.696012 67.847792 
z
" clip-path="url(#p04d5c10500)" style="stroke: #000000"/>
    <path d="M 40.711642 57.802499 
C 41.045637 57.802499 41.365997 57.669802 41.602167 57.433631 
C 41.838337 57.197461 41.971035 56.877101 41.971035 56.543106 
C 41.971035 56.209111 41.838337 55.88875 41.602167 55.65258 
C 41.365997 55.41641 41.045637 55.283712 40.711642 55.283712 
C 40.377646 55.283712 40.057286 55.41641 39.821116 55.65258 
C 39.584946 55.88875 39.452248 56.209111 39.452248 56.543106 
C 39.452248 56.877101 39.584946 57.197461 39.821116 57.433631 
C 40.057286 57.669802 40.377646 57.802499 40.711642 57.802499 
z
" clip-path="url(#p04d5c10500)" style="stroke: #000000"/>
    <path d="M 44.100436 42.861657 
C 44.100436 42.861657 44.100436 42.861657 44.100436 42.861657 
C 44.100436 42.861657 44.100436 42.861657 44.100436 42.861657 
C 44.100436 42.861657 44.100436 42.861657 44.100436 42.861657 
C 44.100436 42.861657 44.100436 42.861657 44.100436 42.861657 
C 44.100436 42.861657 44.100436 42.861657 44.100436 42.861657 
C 44.100436 42.861657 44.100436 42.861657 44.100436 42.861657 
C 44.100436 42.861657 44.100436 42.861657 44.100436 42.861657 
C 44.100436 42.861657 44.100436 42.861657 44.100436 42.861657 
z
" clip-path="url(#p04d5c10500)" style="stroke: #000000"/>
    <path d="M 74.0469 168.557503 
C 74.0469 168.557503 74.0469 168.557503 74.0469 168.557503 
C 74.0469 168.557503 74.0469 168.557503 74.0469 168.557503 
C 74.0469 168.557503 74.0469 168.557503 74.0469 168.557503 
C 74.0469 168.557503 74.0469 168.557503 74.0469 168.557503 
C 74.0469 168.557503 74.0469 168.557503 74.0469 168.557503 
C 74.0469 168.557503 74.0469 168.557503 74.0469 168.557503 
C 74.0469 168.557503 74.0469 168.557503 74.0469 168.557503 
C 74.0469 168.557503 74.0469 168.557503 74.0469 168.557503 
z
" clip-path="url(#p04d5c10500)" style="stroke: #000000"/>
    <path d="M 74.160841 152.594945 
C 74.160841 152.594945 74.160841 152.594945 74.160841 152.594945 
C 74.160841 152.594945 74.160841 152.594945 74.160841 152.594945 
C 74.160841 152.594945 74.160841 152.594945 74.160841 152.594945 
C 74.160841 152.594945 74.160841 152.594945 74.160841 152.594945 
C 74.160841 152.594945 74.160841 152.594945 74.160841 152.594945 
C 74.160841 152.594945 74.160841 152.594945 74.160841 152.594945 
C 74.160841 152.594945 74.160841 152.594945 74.160841 152.594945 
C 74.160841 152.594945 74.160841 152.594945 74.160841 152.594945 
z
" clip-path="url(#p04d5c10500)" style="stroke: #000000"/>
    <path d="M 64.366825 151.440584 
C 64.366825 151.440584 64.366825 151.440584 64.366825 151.440584 
C 64.366825 151.440584 64.366825 151.440584 64.366825 151.440584 
C 64.366825 151.440584 64.366825 151.440584 64.366825 151.440584 
C 64.366825 151.440584 64.366825 151.440584 64.366825 151.440584 
C 64.366825 151.440584 64.366825 151.440584 64.366825 151.440584 
C 64.366825 151.440584 64.366825 151.440584 64.366825 151.440584 
C 64.366825 151.440584 64.366825 151.440584 64.366825 151.440584 
C 64.366825 151.440584 64.366825 151.440584 64.366825 151.440584 
z
" clip-path="url(#p04d5c10500)" style="stroke: #000000"/>
    <path d="M 62.940421 138.957357 
C 63.359744 138.957357 63.761949 138.790758 64.058455 138.494252 
C 64.354961 138.197746 64.52156 137.795541 64.52156 137.376218 
C 64.52156 136.956896 64.354961 136.554691 64.058455 136.258184 
C 63.761949 135.961678 63.359744 135.79508 62.940421 135.79508 
C 62.521098 135.79508 62.118893 135.961678 61.822387 136.258184 
C 61.525881 136.554691 61.359283 136.956896 61.359283 137.376218 
C 61.359283 137.795541 61.525881 138.197746 61.822387 138.494252 
C 62.118893 138.790758 62.521098 138.957357 62.940421 138.957357 
z
" clip-path="url(#p04d5c10500)" style="stroke: #000000"/>
    <path d="M 58.22203 127.250819 
C 58.22203 127.250819 58.22203 127.250819 58.22203 127.250819 
C 58.22203 127.250819 58.22203 127.250819 58.22203 127.250819 
C 58.22203 127.250819 58.22203 127.250819 58.22203 127.250819 
C 58.22203 127.250819 58.22203 127.250819 58.22203 127.250819 
C 58.22203 127.250819 58.22203 127.250819 58.22203 127.250819 
C 58.22203 127.250819 58.22203 127.250819 58.22203 127.250819 
C 58.22203 127.250819 58.22203 127.250819 58.22203 127.250819 
C 58.22203 127.250819 58.22203 127.250819 58.22203 127.250819 
z
" clip-path="url(#p04d5c10500)" style="stroke: #000000"/>
    <path d="M 61.223027 116.670787 
C 61.64235 116.670787 62.044555 116.504189 62.341061 116.207682 
C 62.637567 115.911176 62.804166 115.508971 62.804166 115.089648 
C 62.804166 114.670326 62.637567 114.268121 62.341061 113.971614 
C 62.044555 113.675108 61.64235 113.50851 61.223027 113.50851 
C 60.803704 113.50851 60.401499 113.675108 60.104993 113.971614 
C 59.808487 114.268121 59.641888 114.670326 59.641888 115.089648 
C 59.641888 115.508971 59.808487 115.911176 60.104993 116.207682 
C 60.401499 116.504189 60.803704 116.670787 61.223027 116.670787 
z
" clip-path="url(#p04d5c10500)" style="stroke: #000000"/>
    <path d="M 54.621512 108.200448 
C 55.041097 108.200448 55.443553 108.033745 55.740244 107.737054 
C 56.036935 107.440363 56.203638 107.037907 56.203638 106.618322 
C 56.203638 106.198737 56.036935 105.796281 55.740244 105.49959 
C 55.443553 105.202899 55.041097 105.036196 54.621512 105.036196 
C 54.201927 105.036196 53.799471 105.202899 53.50278 105.49959 
C 53.206089 105.796281 53.039386 106.198737 53.039386 106.618322 
C 53.039386 107.037907 53.206089 107.440363 53.50278 107.737054 
C 53.799471 108.033745 54.201927 108.200448 54.621512 108.200448 
z
" clip-path="url(#p04d5c10500)" style="stroke: #000000"/>
    <path d="M 50.367125 95.758377 
C 50.786448 95.758377 51.188653 95.591778 51.485159 95.295272 
C 51.781665 94.998766 51.948264 94.596561 51.948264 94.177238 
C 51.948264 93.757915 51.781665 93.35571 51.485159 93.059204 
C 51.188653 92.762698 50.786448 92.596099 50.367125 92.596099 
C 49.947803 92.596099 49.545598 92.762698 49.249091 93.059204 
C 48.952585 93.35571 48.785987 93.757915 48.785987 94.177238 
C 48.785987 94.596561 48.952585 94.998766 49.249091 95.295272 
C 49.545598 95.591778 49.947803 95.758377 50.367125 95.758377 
z
" clip-path="url(#p04d5c10500)" style="stroke: #000000"/>
    <path d="M 51.856045 84.388821 
C 51.856045 84.388821 51.856045 84.388821 51.856045 84.388821 
C 51.856045 84.388821 51.856045 84.388821 51.856045 84.388821 
C 51.856045 84.388821 51.856045 84.388821 51.856045 84.388821 
C 51.856045 84.388821 51.856045 84.388821 51.856045 84.388821 
C 51.856045 84.388821 51.856045 84.388821 51.856045 84.388821 
C 51.856045 84.388821 51.856045 84.388821 51.856045 84.388821 
C 51.856045 84.388821 51.856045 84.388821 51.856045 84.388821 
C 51.856045 84.388821 51.856045 84.388821 51.856045 84.388821 
z
" clip-path="url(#p04d5c10500)" style="stroke: #000000"/>
    <path d="M 44.504255 75.513005 
C 44.504255 75.513005 44.504255 75.513005 44.504255 75.513005 
C 44.504255 75.513005 44.504255 75.513005 44.504255 75.513005 
C 44.504255 75.513005 44.504255 75.513005 44.504255 75.513005 
C 44.504255 75.513005 44.504255 75.513005 44.504255 75.513005 
C 44.504255 75.513005 44.504255 75.513005 44.504255 75.513005 
C 44.504255 75.513005 44.504255 75.513005 44.504255 75.513005 
C 44.504255 75.513005 44.504255 75.513005 44.504255 75.513005 
C 44.504255 75.513005 44.504255 75.513005 44.504255 75.513005 
z
" clip-path="url(#p04d5c10500)" style="stroke: #000000"/>
    <path d="M 37.38968 65.04875 
C 37.711048 65.04875 38.019298 64.921069 38.246539 64.693827 
C 38.473781 64.466585 38.601462 64.158336 38.601462 63.836967 
C 38.601462 63.515599 38.473781 63.207349 38.246539 62.980107 
C 38.019298 62.752866 37.711048 62.625185 37.38968 62.625185 
C 37.068311 62.625185 36.760062 62.752866 36.53282 62.980107 
C 36.305578 63.207349 36.177897 63.515599 36.177897 63.836967 
C 36.177897 64.158336 36.305578 64.466585 36.53282 64.693827 
C 36.760062 64.921069 37.068311 65.04875 37.38968 65.04875 
z
" clip-path="url(#p04d5c10500)" style="stroke: #000000"/>
    <path d="M 66.496011 170.131756 
C 66.496011 170.131756 66.496011 170.131756 66.496011 170.131756 
C 66.496011 170.131756 66.496011 170.131756 66.496011 170.131756 
C 66.496011 170.131756 66.496011 170.131756 66.496011 170.131756 
C 66.496011 170.131756 66.496011 170.131756 66.496011 170.131756 
C 66.496011 170.131756 66.496011 170.131756 66.496011 170.131756 
C 66.496011 170.131756 66.496011 170.131756 66.496011 170.131756 
C 66.496011 170.131756 66.496011 170.131756 66.496011 170.131756 
C 66.496011 170.131756 66.496011 170.131756 66.496011 170.131756 
z
" clip-path="url(#p04d5c10500)" style="stroke: #000000"/>
    <path d="M 63.877898 163.583836 
C 63.877898 163.583836 63.877898 163.583836 63.877898 163.583836 
C 63.877898 163.583836 63.877898 163.583836 63.877898 163.583836 
C 63.877898 163.583836 63.877898 163.583836 63.877898 163.583836 
C 63.877898 163.583836 63.877898 163.583836 63.877898 163.583836 
C 63.877898 163.583836 63.877898 163.583836 63.877898 163.583836 
C 63.877898 163.583836 63.877898 163.583836 63.877898 163.583836 
C 63.877898 163.583836 63.877898 163.583836 63.877898 163.583836 
C 63.877898 163.583836 63.877898 163.583836 63.877898 163.583836 
z
" clip-path="url(#p04d5c10500)" style="stroke: #000000"/>
    <path d="M 56.869436 147.704887 
C 56.869436 147.704887 56.869436 147.704887 56.869436 147.704887 
C 56.869436 147.704887 56.869436 147.704887 56.869436 147.704887 
C 56.869436 147.704887 56.869436 147.704887 56.869436 147.704887 
C 56.869436 147.704887 56.869436 147.704887 56.869436 147.704887 
C 56.869436 147.704887 56.869436 147.704887 56.869436 147.704887 
C 56.869436 147.704887 56.869436 147.704887 56.869436 147.704887 
C 56.869436 147.704887 56.869436 147.704887 56.869436 147.704887 
C 56.869436 147.704887 56.869436 147.704887 56.869436 147.704887 
z
" clip-path="url(#p04d5c10500)" style="stroke: #000000"/>
    <path d="M 53.247791 143.392733 
C 53.601713 143.392733 53.941187 143.252119 54.191447 143.001858 
C 54.441708 142.751597 54.582323 142.412123 54.582323 142.058201 
C 54.582323 141.704279 54.441708 141.364805 54.191447 141.114545 
C 53.941187 140.864284 53.601713 140.723669 53.247791 140.723669 
C 52.893869 140.723669 52.554395 140.864284 52.304134 141.114545 
C 52.053873 141.364805 51.913259 141.704279 51.913259 142.058201 
C 51.913259 142.412123 52.053873 142.751597 52.304134 143.001858 
C 52.554395 143.252119 52.893869 143.392733 53.247791 143.392733 
z
" clip-path="url(#p04d5c10500)" style="stroke: #000000"/>
    <path d="M 50.413 130.150524 
C 50.413 130.150524 50.413 130.150524 50.413 130.150524 
C 50.413 130.150524 50.413 130.150524 50.413 130.150524 
C 50.413 130.150524 50.413 130.150524 50.413 130.150524 
C 50.413 130.150524 50.413 130.150524 50.413 130.150524 
C 50.413 130.150524 50.413 130.150524 50.413 130.150524 
C 50.413 130.150524 50.413 130.150524 50.413 130.150524 
C 50.413 130.150524 50.413 130.150524 50.413 130.150524 
C 50.413 130.150524 50.413 130.150524 50.413 130.150524 
z
" clip-path="url(#p04d5c10500)" style="stroke: #000000"/>
    <path d="M 49.358799 122.593038 
C 49.778122 122.593038 50.180327 122.426439 50.476833 122.129933 
C 50.773339 121.833427 50.939938 121.431222 50.939938 121.011899 
C 50.939938 120.592576 50.773339 120.190371 50.476833 119.893865 
C 50.180327 119.597359 49.778122 119.43076 49.358799 119.43076 
C 48.939476 119.43076 48.537271 119.597359 48.240765 119.893865 
C 47.944259 120.190371 47.77766 120.592576 47.77766 121.011899 
C 47.77766 121.431222 47.944259 121.833427 48.240765 122.129933 
C 48.537271 122.426439 48.939476 122.593038 49.358799 122.593038 
z
" clip-path="url(#p04d5c10500)" style="stroke: #000000"/>
    <path d="M 46.878984 111.375108 
C 47.298569 111.375108 47.701025 111.208405 47.997716 110.911714 
C 48.294407 110.615023 48.46111 110.212567 48.46111 109.792982 
C 48.46111 109.373397 48.294407 108.970941 47.997716 108.67425 
C 47.701025 108.377559 47.298569 108.210856 46.878984 108.210856 
C 46.459399 108.210856 46.056943 108.377559 45.760252 108.67425 
C 45.463561 108.970941 45.296858 109.373397 45.296858 109.792982 
C 45.296858 110.212567 45.463561 110.615023 45.760252 110.911714 
C 46.056943 111.208405 46.459399 111.375108 46.878984 111.375108 
z
" clip-path="url(#p04d5c10500)" style="stroke: #000000"/>
    <path d="M 39.924059 95.255209 
C 39.924059 95.255209 39.924059 95.255209 39.924059 95.255209 
C 39.924059 95.255209 39.924059 95.255209 39.924059 95.255209 
C 39.924059 95.255209 39.924059 95.255209 39.924059 95.255209 
C 39.924059 95.255209 39.924059 95.255209 39.924059 95.255209 
C 39.924059 95.255209 39.924059 95.255209 39.924059 95.255209 
C 39.924059 95.255209 39.924059 95.255209 39.924059 95.255209 
C 39.924059 95.255209 39.924059 95.255209 39.924059 95.255209 
C 39.924059 95.255209 39.924059 95.255209 39.924059 95.255209 
z
" clip-path="url(#p04d5c10500)" style="stroke: #000000"/>
    <path d="M 35.641464 85.992307 
C 35.641464 85.992307 35.641464 85.992307 35.641464 85.992307 
C 35.641464 85.992307 35.641464 85.992307 35.641464 85.992307 
C 35.641464 85.992307 35.641464 85.992307 35.641464 85.992307 
C 35.641464 85.992307 35.641464 85.992307 35.641464 85.992307 
C 35.641464 85.992307 35.641464 85.992307 35.641464 85.992307 
C 35.641464 85.992307 35.641464 85.992307 35.641464 85.992307 
C 35.641464 85.992307 35.641464 85.992307 35.641464 85.992307 
C 35.641464 85.992307 35.641464 85.992307 35.641464 85.992307 
z
" clip-path="url(#p04d5c10500)" style="stroke: #000000"/>
    <path d="M 35.020498 77.884261 
C 35.373105 77.884261 35.711318 77.744168 35.960649 77.494837 
C 36.20998 77.245506 36.350072 76.907294 36.350072 76.554687 
C 36.350072 76.202079 36.20998 75.863867 35.960649 75.614536 
C 35.711318 75.365205 35.373105 75.225113 35.020498 75.225113 
C 34.667891 75.225113 34.329678 75.365205 34.080348 75.614536 
C 33.831017 75.863867 33.690924 76.202079 33.690924 76.554687 
C 33.690924 76.907294 33.831017 77.245506 34.080348 77.494837 
C 34.329678 77.744168 34.667891 77.884261 35.020498 77.884261 
z
" clip-path="url(#p04d5c10500)" style="stroke: #000000"/>
    <path d="M 53.317462 176.917229 
C 53.59788 176.917229 53.866851 176.805817 54.065137 176.607532 
C 54.263422 176.409246 54.374834 176.140276 54.374834 175.859857 
C 54.374834 175.579439 54.263422 175.310469 54.065137 175.112183 
C 53.866851 174.913897 53.59788 174.802486 53.317462 174.802486 
C 53.037044 174.802486 52.768073 174.913897 52.569788 175.112183 
C 52.371502 175.310469 52.260091 175.579439 52.260091 175.859857 
C 52.260091 176.140276 52.371502 176.409246 52.569788 176.607532 
C 52.768073 176.805817 53.037044 176.917229 53.317462 176.917229 
z
" clip-path="url(#p04d5c10500)" style="stroke: #000000"/>
    <path d="M 54.968884 167.649917 
C 54.968884 167.649917 54.968884 167.649917 54.968884 167.649917 
C 54.968884 167.649917 54.968884 167.649917 54.968884 167.649917 
C 54.968884 167.649917 54.968884 167.649917 54.968884 167.649917 
C 54.968884 167.649917 54.968884 167.649917 54.968884 167.649917 
C 54.968884 167.649917 54.968884 167.649917 54.968884 167.649917 
C 54.968884 167.649917 54.968884 167.649917 54.968884 167.649917 
C 54.968884 167.649917 54.968884 167.649917 54.968884 167.649917 
C 54.968884 167.649917 54.968884 167.649917 54.968884 167.649917 
z
" clip-path="url(#p04d5c10500)" style="stroke: #000000"/>
    <path d="M 45.718538 153.638642 
C 46.071146 153.638642 46.409358 153.49855 46.658689 153.249219 
C 46.90802 152.999888 47.048112 152.661675 47.048112 152.309068 
C 47.048112 151.956461 46.90802 151.618248 46.658689 151.368917 
C 46.409358 151.119586 46.071146 150.979494 45.718538 150.979494 
C 45.365931 150.979494 45.027719 151.119586 44.778388 151.368917 
C 44.529057 151.618248 44.388964 151.956461 44.388964 152.309068 
C 44.388964 152.661675 44.529057 152.999888 44.778388 153.249219 
C 45.027719 153.49855 45.365931 153.638642 45.718538 153.638642 
z
" clip-path="url(#p04d5c10500)" style="stroke: #000000"/>
    <path d="M 42.266536 142.143085 
C 42.266536 142.143085 42.266536 142.143085 42.266536 142.143085 
C 42.266536 142.143085 42.266536 142.143085 42.266536 142.143085 
C 42.266536 142.143085 42.266536 142.143085 42.266536 142.143085 
C 42.266536 142.143085 42.266536 142.143085 42.266536 142.143085 
C 42.266536 142.143085 42.266536 142.143085 42.266536 142.143085 
C 42.266536 142.143085 42.266536 142.143085 42.266536 142.143085 
C 42.266536 142.143085 42.266536 142.143085 42.266536 142.143085 
C 42.266536 142.143085 42.266536 142.143085 42.266536 142.143085 
z
" clip-path="url(#p04d5c10500)" style="stroke: #000000"/>
    <path d="M 40.039105 131.821178 
C 40.039105 131.821178 40.039105 131.821178 40.039105 131.821178 
C 40.039105 131.821178 40.039105 131.821178 40.039105 131.821178 
C 40.039105 131.821178 40.039105 131.821178 40.039105 131.821178 
C 40.039105 131.821178 40.039105 131.821178 40.039105 131.821178 
C 40.039105 131.821178 40.039105 131.821178 40.039105 131.821178 
C 40.039105 131.821178 40.039105 131.821178 40.039105 131.821178 
C 40.039105 131.821178 40.039105 131.821178 40.039105 131.821178 
C 40.039105 131.821178 40.039105 131.821178 40.039105 131.821178 
z
" clip-path="url(#p04d5c10500)" style="stroke: #000000"/>
    <path d="M 31.884135 121.511791 
C 32.237182 121.511791 32.575817 121.371524 32.825459 121.121882 
C 33.075101 120.87224 33.215368 120.533605 33.215368 120.180558 
C 33.215368 119.827511 33.075101 119.488876 32.825459 119.239234 
C 32.575817 118.989592 32.237182 118.849325 31.884135 118.849325 
C 31.531088 118.849325 31.192453 118.989592 30.942811 119.239234 
C 30.693169 119.488876 30.552902 119.827511 30.552902 120.180558 
C 30.552902 120.533605 30.693169 120.87224 30.942811 121.121882 
C 31.192453 121.371524 31.531088 121.511791 31.884135 121.511791 
z
" clip-path="url(#p04d5c10500)" style="stroke: #000000"/>
    <path d="M 32.654065 112.618824 
C 32.654065 112.618824 32.654065 112.618824 32.654065 112.618824 
C 32.654065 112.618824 32.654065 112.618824 32.654065 112.618824 
C 32.654065 112.618824 32.654065 112.618824 32.654065 112.618824 
C 32.654065 112.618824 32.654065 112.618824 32.654065 112.618824 
C 32.654065 112.618824 32.654065 112.618824 32.654065 112.618824 
C 32.654065 112.618824 32.654065 112.618824 32.654065 112.618824 
C 32.654065 112.618824 32.654065 112.618824 32.654065 112.618824 
C 32.654065 112.618824 32.654065 112.618824 32.654065 112.618824 
z
" clip-path="url(#p04d5c10500)" style="stroke: #000000"/>
    <path d="M 32.453455 102.452821 
C 32.453455 102.452821 32.453455 102.452821 32.453455 102.452821 
C 32.453455 102.452821 32.453455 102.452821 32.453455 102.452821 
C 32.453455 102.452821 32.453455 102.452821 32.453455 102.452821 
C 32.453455 102.452821 32.453455 102.452821 32.453455 102.452821 
C 32.453455 102.452821 32.453455 102.452821 32.453455 102.452821 
C 32.453455 102.452821 32.453455 102.452821 32.453455 102.452821 
C 32.453455 102.452821 32.453455 102.452821 32.453455 102.452821 
C 32.453455 102.452821 32.453455 102.452821 32.453455 102.452821 
z
" clip-path="url(#p04d5c10500)" style="stroke: #000000"/>
    <path d="M 45.713062 176.722065 
C 45.713062 176.722065 45.713062 176.722065 45.713062 176.722065 
C 45.713062 176.722065 45.713062 176.722065 45.713062 176.722065 
C 45.713062 176.722065 45.713062 176.722065 45.713062 176.722065 
C 45.713062 176.722065 45.713062 176.722065 45.713062 176.722065 
C 45.713062 176.722065 45.713062 176.722065 45.713062 176.722065 
C 45.713062 176.722065 45.713062 176.722065 45.713062 176.722065 
C 45.713062 176.722065 45.713062 176.722065 45.713062 176.722065 
C 45.713062 176.722065 45.713062 176.722065 45.713062 176.722065 
z
" clip-path="url(#p04d5c10500)" style="stroke: #000000"/>
    <path d="M 39.119445 165.680993 
C 39.119445 165.680993 39.119445 165.680993 39.119445 165.680993 
C 39.119445 165.680993 39.119445 165.680993 39.119445 165.680993 
C 39.119445 165.680993 39.119445 165.680993 39.119445 165.680993 
C 39.119445 165.680993 39.119445 165.680993 39.119445 165.680993 
C 39.119445 165.680993 39.119445 165.680993 39.119445 165.680993 
C 39.119445 165.680993 39.119445 165.680993 39.119445 165.680993 
C 39.119445 165.680993 39.119445 165.680993 39.119445 165.680993 
C 39.119445 165.680993 39.119445 165.680993 39.119445 165.680993 
z
" clip-path="url(#p04d5c10500)" style="stroke: #000000"/>
    <path d="M 37.757657 159.268387 
C 38.107138 159.268387 38.442352 159.129537 38.689472 158.882417 
C 38.936592 158.635297 39.075442 158.300084 39.075442 157.950603 
C 39.075442 157.601123 38.936592 157.265909 38.689472 157.018789 
C 38.442352 156.771669 38.107138 156.632819 37.757657 156.632819 
C 37.408177 156.632819 37.072963 156.771669 36.825843 157.018789 
C 36.578723 157.265909 36.439873 157.601123 36.439873 157.950603 
C 36.439873 158.300084 36.578723 158.635297 36.825843 158.882417 
C 37.072963 159.129537 37.408177 159.268387 37.757657 159.268387 
z
" clip-path="url(#p04d5c10500)" style="stroke: #000000"/>
    <path d="M 30.740877 149.218222 
C 30.740877 149.218222 30.740877 149.218222 30.740877 149.218222 
C 30.740877 149.218222 30.740877 149.218222 30.740877 149.218222 
C 30.740877 149.218222 30.740877 149.218222 30.740877 149.218222 
C 30.740877 149.218222 30.740877 149.218222 30.740877 149.218222 
C 30.740877 149.218222 30.740877 149.218222 30.740877 149.218222 
C 30.740877 149.218222 30.740877 149.218222 30.740877 149.218222 
C 30.740877 149.218222 30.740877 149.218222 30.740877 149.218222 
C 30.740877 149.218222 30.740877 149.218222 30.740877 149.218222 
z
" clip-path="url(#p04d5c10500)" style="stroke: #000000"/>
   </g>
   <g id="matplotlib.axis_1">
    <g id="xtick_1">
     <g id="line2d_1">
      <defs>
       <path id="mf1619ee21d" d="M 0 0 
L 0 3.5 
" style="stroke: #000000; stroke-width: 0.8"/>
      </defs>
      <g>
       <use xlink:href="#mf1619ee21d" x="18" y="189" style="stroke: #000000; stroke-width: 0.8"/>
      </g>
     </g>
     <g id="text_1">
      <!-- 10 -->
      <g transform="translate(7.447656 203.598437)scale(0.1 -0.1)">
       <defs>
        <path id="DejaVuSans-2212" d="M 678 2272 
L 4684 2272 
L 4684 1741 
L 678 1741 
L 678 2272 
z
" transform="scale(0.015625)"/>
        <path id="DejaVuSans-31" d="M 794 531 
L 1825 531 
L 1825 4091 
L 703 3866 
L 703 4441 
L 1819 4666 
L 2450 4666 
L 2450 531 
L 3481 531 
L 3481 0 
L 794 0 
L 794 531 
z
" transform="scale(0.015625)"/>
        <path id="DejaVuSans-30" d="M 2034 4250 
Q 1547 4250 1301 3770 
Q 1056 3291 1056 2328 
Q 1056 1369 1301 889 
Q 1547 409 2034 409 
Q 2525 409 2770 889 
Q 3016 1369 3016 2328 
Q 3016 3291 2770 3770 
Q 2525 4250 2034 4250 
z
M 2034 4750 
Q 2819 4750 3233 4129 
Q 3647 3509 3647 2328 
Q 3647 1150 3233 529 
Q 2819 -91 2034 -91 
Q 1250 -91 836 529 
Q 422 1150 422 2328 
Q 422 3509 836 4129 
Q 1250 4750 2034 4750 
z
" transform="scale(0.015625)"/>
       </defs>
       <use xlink:href="#DejaVuSans-2212"/>
       <use xlink:href="#DejaVuSans-31" x="83.789062"/>
       <use xlink:href="#DejaVuSans-30" x="147.412109"/>
      </g>
     </g>
    </g>
    <g id="xtick_2">
     <g id="line2d_2">
      <g>
       <use xlink:href="#mf1619ee21d" x="73.8" y="189" style="stroke: #000000; stroke-width: 0.8"/>
      </g>
     </g>
     <g id="text_2">
      <!-- 0 -->
      <g transform="translate(70.61875 203.598437)scale(0.1 -0.1)">
       <use xlink:href="#DejaVuSans-30"/>
      </g>
     </g>
    </g>
    <g id="xtick_3">
     <g id="line2d_3">
      <g>
       <use xlink:href="#mf1619ee21d" x="129.6" y="189" style="stroke: #000000; stroke-width: 0.8"/>
      </g>
     </g>
     <g id="text_3">
      <!-- 10 -->
      <g transform="translate(123.2375 203.598437)scale(0.1 -0.1)">
       <use xlink:href="#DejaVuSans-31"/>
       <use xlink:href="#DejaVuSans-30" x="63.623047"/>
      </g>
     </g>
    </g>
   </g>
   <g id="matplotlib.axis_2">
    <g id="ytick_1">
     <g id="line2d_4">
      <defs>
       <path id="m3743f75c11" d="M 0 0 
L -3.5 0 
" style="stroke: #000000; stroke-width: 0.8"/>
      </defs>
      <g>
       <use xlink:href="#m3743f75c11" x="18" y="189" style="stroke: #000000; stroke-width: 0.8"/>
      </g>
     </g>
     <g id="text_4">
      <!-- 15 -->
      <g transform="translate(-10.104688 192.799219)scale(0.1 -0.1)">
       <defs>
        <path id="DejaVuSans-35" d="M 691 4666 
L 3169 4666 
L 3169 4134 
L 1269 4134 
L 1269 2991 
Q 1406 3038 1543 3061 
Q 1681 3084 1819 3084 
Q 2600 3084 3056 2656 
Q 3513 2228 3513 1497 
Q 3513 744 3044 326 
Q 2575 -91 1722 -91 
Q 1428 -91 1123 -41 
Q 819 9 494 109 
L 494 744 
Q 775 591 1075 516 
Q 1375 441 1709 441 
Q 2250 441 2565 725 
Q 2881 1009 2881 1497 
Q 2881 1984 2565 2268 
Q 2250 2553 1709 2553 
Q 1456 2553 1204 2497 
Q 953 2441 691 2322 
L 691 4666 
z
" transform="scale(0.015625)"/>
       </defs>
       <use xlink:href="#DejaVuSans-2212"/>
       <use xlink:href="#DejaVuSans-31" x="83.789062"/>
       <use xlink:href="#DejaVuSans-35" x="147.412109"/>
      </g>
     </g>
    </g>
    <g id="ytick_2">
     <g id="line2d_5">
      <g>
       <use xlink:href="#m3743f75c11" x="18" y="161.82" style="stroke: #000000; stroke-width: 0.8"/>
      </g>
     </g>
     <g id="text_5">
      <!-- 10 -->
      <g transform="translate(-10.104688 165.619219)scale(0.1 -0.1)">
       <use xlink:href="#DejaVuSans-2212"/>
       <use xlink:href="#DejaVuSans-31" x="83.789062"/>
       <use xlink:href="#DejaVuSans-30" x="147.412109"/>
      </g>
     </g>
    </g>
    <g id="ytick_3">
     <g id="line2d_6">
      <g>
       <use xlink:href="#m3743f75c11" x="18" y="134.64" style="stroke: #000000; stroke-width: 0.8"/>
      </g>
     </g>
     <g id="text_6">
      <!-- 5 -->
      <g transform="translate(-3.742188 138.439219)scale(0.1 -0.1)">
       <use xlink:href="#DejaVuSans-2212"/>
       <use xlink:href="#DejaVuSans-35" x="83.789062"/>
      </g>
     </g>
    </g>
    <g id="ytick_4">
     <g id="line2d_7">
      <g>
       <use xlink:href="#m3743f75c11" x="18" y="107.46" style="stroke: #000000; stroke-width: 0.8"/>
      </g>
     </g>
     <g id="text_7">
      <!-- 0 -->
      <g transform="translate(4.6375 111.259219)scale(0.1 -0.1)">
       <use xlink:href="#DejaVuSans-30"/>
      </g>
     </g>
    </g>
    <g id="ytick_5">
     <g id="line2d_8">
      <g>
       <use xlink:href="#m3743f75c11" x="18" y="80.28" style="stroke: #000000; stroke-width: 0.8"/>
      </g>
     </g>
     <g id="text_8">
      <!-- 5 -->
      <g transform="translate(4.6375 84.079219)scale(0.1 -0.1)">
       <use xlink:href="#DejaVuSans-35"/>
      </g>
     </g>
    </g>
    <g id="ytick_6">
     <g id="line2d_9">
      <g>
       <use xlink:href="#m3743f75c11" x="18" y="53.1" style="stroke: #000000; stroke-width: 0.8"/>
      </g>
     </g>
     <g id="text_9">
      <!-- 10 -->
      <g transform="translate(-1.725 56.899219)scale(0.1 -0.1)">
       <use xlink:href="#DejaVuSans-31"/>
       <use xlink:href="#DejaVuSans-30" x="63.623047"/>
      </g>
     </g>
    </g>
    <g id="ytick_7">
     <g id="line2d_10">
      <g>
       <use xlink:href="#m3743f75c11" x="18" y="25.92" style="stroke: #000000; stroke-width: 0.8"/>
      </g>
     </g>
     <g id="text_10">
      <!-- 15 -->
      <g transform="translate(-1.725 29.719219)scale(0.1 -0.1)">
       <use xlink:href="#DejaVuSans-31"/>
       <use xlink:href="#DejaVuSans-35" x="63.623047"/>
      </g>
     </g>
    </g>
   </g>
   <g id="patch_3">
    <path d="M 18 189 
L 18 25.92 
" style="fill: none; stroke: #000000; stroke-width: 0.8; stroke-linejoin: miter; stroke-linecap: square"/>
   </g>
   <g id="patch_4">
    <path d="M 129.6 189 
L 129.6 25.92 
" style="fill: none; stroke: #000000; stroke-width: 0.8; stroke-linejoin: miter; stroke-linecap: square"/>
   </g>
   <g id="patch_5">
    <path d="M 18 189 
L 129.6 189 
" style="fill: none; stroke: #000000; stroke-width: 0.8; stroke-linejoin: miter; stroke-linecap: square"/>
   </g>
   <g id="patch_6">
    <path d="M 18 25.92 
L 129.6 25.92 
" style="fill: none; stroke: #000000; stroke-width: 0.8; stroke-linejoin: miter; stroke-linecap: square"/>
   </g>
  </g>
 </g>
 <defs>
  <clipPath id="p04d5c10500">
   <rect x="18" y="25.92" width="111.6" height="163.08"/>
  </clipPath>
 </defs>
</svg>
