<?xml version="1.0" encoding="utf-8" standalone="no"?>
<!DOCTYPE svg PUBLIC "-//W3C//DTD SVG 1.1//EN"
  "http://www.w3.org/Graphics/SVG/1.1/DTD/svg11.dtd">
<svg xmlns:xlink="http://www.w3.org/1999/xlink" width="144pt" height="216pt" viewBox="0 0 144 216" xmlns="http://www.w3.org/2000/svg" version="1.1">
 <metadata>
  <rdf:RDF xmlns:dc="http://purl.org/dc/elements/1.1/" xmlns:cc="http://creativecommons.org/ns#" xmlns:rdf="http://www.w3.org/1999/02/22-rdf-syntax-ns#">
   <cc:Work>
    <dc:type rdf:resource="http://purl.org/dc/dcmitype/StillImage"/>
    <dc:date>2022-06-23T12:13:48.051146</dc:date>
    <dc:format>image/svg+xml</dc:format>
    <dc:creator>
     <cc:Agent>
      <dc:title>Matplotlib v3.5.1, https://matplotlib.org/</dc:title>
     </cc:Agent>
    </dc:creator>
   </cc:Work>
  </rdf:RDF>
 </metadata>
 <defs>
  <style type="text/css">*{stroke-linejoin: round; stroke-linecap: butt}</style>
 </defs>
 <g id="figure_1">
  <g id="patch_1">
   <path d="M 0 216 
L 144 216 
L 144 0 
L 0 0 
L 0 216 
z
" style="fill: none"/>
  </g>
  <g id="axes_1">
   <g id="patch_2">
    <path d="M 18 189 
L 129.6 189 
L 129.6 25.92 
L 18 25.92 
z
" style="fill: #ffffff"/>
   </g>
   <g id="PathCollection_1">
    <defs>
     <path id="m46a0c5a4bb" d="M 0 2.738613 
C 0.726289 2.738613 1.422928 2.450055 1.936492 1.936492 
C 2.450055 1.422928 2.738613 0.726289 2.738613 0 
C 2.738613 -0.726289 2.450055 -1.422928 1.936492 -1.936492 
C 1.422928 -2.450055 0.726289 -2.738613 0 -2.738613 
C -0.726289 -2.738613 -1.422928 -2.450055 -1.936492 -1.936492 
C -2.450055 -1.422928 -2.738613 -0.726289 -2.738613 0 
C -2.738613 0.726289 -2.450055 1.422928 -1.936492 1.936492 
C -1.422928 2.450055 -0.726289 2.738613 0 2.738613 
z
" style="stroke: #ff0000; stroke-width: 1.75"/>
    </defs>
    <g clip-path="url(#pb5b44126ec)">
     <use xlink:href="#m46a0c5a4bb" x="66.825" y="83.92143" style="fill: #ff0000; stroke: #ff0000; stroke-width: 1.75"/>
     <use xlink:href="#m46a0c5a4bb" x="87.75" y="95.690715" style="fill: #ff0000; stroke: #ff0000; stroke-width: 1.75"/>
     <use xlink:href="#m46a0c5a4bb" x="66.825" y="107.46" style="fill: #ff0000; stroke: #ff0000; stroke-width: 1.75"/>
     <use xlink:href="#m46a0c5a4bb" x="73.8" y="119.229285" style="fill: #ff0000; stroke: #ff0000; stroke-width: 1.75"/>
     <use xlink:href="#m46a0c5a4bb" x="87.75" y="119.229285" style="fill: #ff0000; stroke: #ff0000; stroke-width: 1.75"/>
     <use xlink:href="#m46a0c5a4bb" x="66.825" y="130.99857" style="fill: #ff0000; stroke: #ff0000; stroke-width: 1.75"/>
     <use xlink:href="#m46a0c5a4bb" x="80.775" y="130.99857" style="fill: #ff0000; stroke: #ff0000; stroke-width: 1.75"/>
    </g>
   </g>
   <g id="PathCollection_2">
    <defs>
     <path id="C0_0_d9fe892a76" d="M 0 2.738613 
C 0.726289 2.738613 1.422928 2.450055 1.936492 1.936492 
C 2.450055 1.422928 2.738613 0.726289 2.738613 -0 
C 2.738613 -0.726289 2.450055 -1.422928 1.936492 -1.936492 
C 1.422928 -2.450055 0.726289 -2.738613 0 -2.738613 
C -0.726289 -2.738613 -1.422928 -2.450055 -1.936492 -1.936492 
C -2.450055 -1.422928 -2.738613 -0.726289 -2.738613 0 
C -2.738613 0.726289 -2.450055 1.422928 -1.936492 1.936492 
C -1.422928 2.450055 -0.726289 2.738613 0 2.738613 
z
"/>
    </defs>
    <g clip-path="url(#pb5b44126ec)">
     <use xlink:href="#C0_0_d9fe892a76" x="80.775" y="83.92143" style="fill: none; stroke: #ff0000; stroke-width: 1.75"/>
    </g>
    <g clip-path="url(#pb5b44126ec)">
     <use xlink:href="#C0_0_d9fe892a76" x="59.85" y="95.690715" style="fill: none; stroke: #ff0000; stroke-width: 1.75"/>
    </g>
    <g clip-path="url(#pb5b44126ec)">
     <use xlink:href="#C0_0_d9fe892a76" x="73.8" y="95.690715" style="fill: none; stroke: #ff0000; stroke-width: 1.75"/>
    </g>
    <g clip-path="url(#pb5b44126ec)">
     <use xlink:href="#C0_0_d9fe892a76" x="52.875" y="107.46" style="fill: none; stroke: #ff0000; stroke-width: 1.75"/>
    </g>
    <g clip-path="url(#pb5b44126ec)">
     <use xlink:href="#C0_0_d9fe892a76" x="80.775" y="107.46" style="fill: none; stroke: #ff0000; stroke-width: 1.75"/>
    </g>
    <g clip-path="url(#pb5b44126ec)">
     <use xlink:href="#C0_0_d9fe892a76" x="94.725" y="107.46" style="fill: none; stroke: #ff0000; stroke-width: 1.75"/>
    </g>
    <g clip-path="url(#pb5b44126ec)">
     <use xlink:href="#C0_0_d9fe892a76" x="59.85" y="119.229285" style="fill: none; stroke: #ff0000; stroke-width: 1.75"/>
    </g>
   </g>
   <g id="PathCollection_3">
    <path d="M 116.870537 124.919297 
C 117.410031 124.919297 117.927501 124.704954 118.30898 124.323474 
C 118.69046 123.941995 118.904803 123.424525 118.904803 122.885031 
C 118.904803 122.345538 118.69046 121.828068 118.30898 121.446589 
C 117.927501 121.065109 117.410031 120.850766 116.870537 120.850766 
C 116.331044 120.850766 115.813574 121.065109 115.432094 121.446589 
C 115.050615 121.828068 114.836272 122.345538 114.836272 122.885031 
C 114.836272 123.424525 115.050615 123.941995 115.432094 124.323474 
C 115.813574 124.704954 116.331044 124.919297 116.870537 124.919297 
z
" clip-path="url(#pb5b44126ec)" style="stroke: #000000"/>
    <path d="M 116.735658 111.545446 
C 117.32904 111.545446 117.898199 111.309693 118.317784 110.890108 
C 118.737369 110.470523 118.973122 109.901364 118.973122 109.307982 
C 118.973122 108.7146 118.737369 108.145441 118.317784 107.725856 
C 117.898199 107.306271 117.32904 107.070518 116.735658 107.070518 
C 116.142276 107.070518 115.573117 107.306271 115.153532 107.725856 
C 114.733947 108.145441 114.498194 108.7146 114.498194 109.307982 
C 114.498194 109.901364 114.733947 110.470523 115.153532 110.890108 
C 115.573117 111.309693 116.142276 111.545446 116.735658 111.545446 
z
" clip-path="url(#pb5b44126ec)" style="stroke: #000000"/>
    <path d="M 108.507857 103.245301 
C 109.100869 103.245301 109.669673 103.009695 110.088996 102.590372 
C 110.508319 102.171049 110.743925 101.602245 110.743925 101.009233 
C 110.743925 100.416221 110.508319 99.847417 110.088996 99.428094 
C 109.669673 99.008771 109.100869 98.773165 108.507857 98.773165 
C 107.914845 98.773165 107.346041 99.008771 106.926718 99.428094 
C 106.507395 99.847417 106.271789 100.416221 106.271789 101.009233 
C 106.271789 101.602245 106.507395 102.171049 106.926718 102.590372 
C 107.346041 103.009695 107.914845 103.245301 108.507857 103.245301 
z
" clip-path="url(#pb5b44126ec)" style="stroke: #000000"/>
    <path d="M 106.222175 90.875715 
C 106.815188 90.875715 107.383991 90.640109 107.803314 90.220786 
C 108.222637 89.801463 108.458243 89.232659 108.458243 88.639647 
C 108.458243 88.046635 108.222637 87.477831 107.803314 87.058508 
C 107.383991 86.639185 106.815188 86.403579 106.222175 86.403579 
C 105.629163 86.403579 105.06036 86.639185 104.641037 87.058508 
C 104.221714 87.477831 103.986108 88.046635 103.986108 88.639647 
C 103.986108 89.232659 104.221714 89.801463 104.641037 90.220786 
C 105.06036 90.640109 105.629163 90.875715 106.222175 90.875715 
z
" clip-path="url(#pb5b44126ec)" style="stroke: #000000"/>
    <path d="M 101.852818 77.215905 
C 102.44583 77.215905 103.014634 76.980298 103.433957 76.560975 
C 103.85328 76.141653 104.088886 75.572849 104.088886 74.979837 
C 104.088886 74.386824 103.85328 73.818021 103.433957 73.398698 
C 103.014634 72.979375 102.44583 72.743769 101.852818 72.743769 
C 101.259806 72.743769 100.691002 72.979375 100.271679 73.398698 
C 99.852356 73.818021 99.61675 74.386824 99.61675 74.979837 
C 99.61675 75.572849 99.852356 76.141653 100.271679 76.560975 
C 100.691002 76.980298 101.259806 77.215905 101.852818 77.215905 
z
" clip-path="url(#pb5b44126ec)" style="stroke: #000000"/>
    <path d="M 98.420698 70.13367 
C 98.420698 70.13367 98.420698 70.13367 98.420698 70.13367 
C 98.420698 70.13367 98.420698 70.13367 98.420698 70.13367 
C 98.420698 70.13367 98.420698 70.13367 98.420698 70.13367 
C 98.420698 70.13367 98.420698 70.13367 98.420698 70.13367 
C 98.420698 70.13367 98.420698 70.13367 98.420698 70.13367 
C 98.420698 70.13367 98.420698 70.13367 98.420698 70.13367 
C 98.420698 70.13367 98.420698 70.13367 98.420698 70.13367 
C 98.420698 70.13367 98.420698 70.13367 98.420698 70.13367 
z
" clip-path="url(#pb5b44126ec)" style="stroke: #000000"/>
    <path d="M 95.708108 59.784151 
C 95.708108 59.784151 95.708108 59.784151 95.708108 59.784151 
C 95.708108 59.784151 95.708108 59.784151 95.708108 59.784151 
C 95.708108 59.784151 95.708108 59.784151 95.708108 59.784151 
C 95.708108 59.784151 95.708108 59.784151 95.708108 59.784151 
C 95.708108 59.784151 95.708108 59.784151 95.708108 59.784151 
C 95.708108 59.784151 95.708108 59.784151 95.708108 59.784151 
C 95.708108 59.784151 95.708108 59.784151 95.708108 59.784151 
C 95.708108 59.784151 95.708108 59.784151 95.708108 59.784151 
z
" clip-path="url(#pb5b44126ec)" style="stroke: #000000"/>
    <path d="M 91.103235 48.877591 
C 91.103235 48.877591 91.103235 48.877591 91.103235 48.877591 
C 91.103235 48.877591 91.103235 48.877591 91.103235 48.877591 
C 91.103235 48.877591 91.103235 48.877591 91.103235 48.877591 
C 91.103235 48.877591 91.103235 48.877591 91.103235 48.877591 
C 91.103235 48.877591 91.103235 48.877591 91.103235 48.877591 
C 91.103235 48.877591 91.103235 48.877591 91.103235 48.877591 
C 91.103235 48.877591 91.103235 48.877591 91.103235 48.877591 
C 91.103235 48.877591 91.103235 48.877591 91.103235 48.877591 
z
" clip-path="url(#pb5b44126ec)" style="stroke: #000000"/>
    <path d="M 89.462567 42.997494 
C 89.981744 42.997494 90.479727 42.791223 90.846841 42.424109 
C 91.213954 42.056995 91.420226 41.559012 91.420226 41.039835 
C 91.420226 40.520658 91.213954 40.022675 90.846841 39.655562 
C 90.479727 39.288448 89.981744 39.082177 89.462567 39.082177 
C 88.94339 39.082177 88.445407 39.288448 88.078293 39.655562 
C 87.71118 40.022675 87.504908 40.520658 87.504908 41.039835 
C 87.504908 41.559012 87.71118 42.056995 88.078293 42.424109 
C 88.445407 42.791223 88.94339 42.997494 89.462567 42.997494 
z
" clip-path="url(#pb5b44126ec)" style="stroke: #000000"/>
    <path d="M 121.437119 165.955604 
C 121.437119 165.955604 121.437119 165.955604 121.437119 165.955604 
C 121.437119 165.955604 121.437119 165.955604 121.437119 165.955604 
C 121.437119 165.955604 121.437119 165.955604 121.437119 165.955604 
C 121.437119 165.955604 121.437119 165.955604 121.437119 165.955604 
C 121.437119 165.955604 121.437119 165.955604 121.437119 165.955604 
C 121.437119 165.955604 121.437119 165.955604 121.437119 165.955604 
C 121.437119 165.955604 121.437119 165.955604 121.437119 165.955604 
C 121.437119 165.955604 121.437119 165.955604 121.437119 165.955604 
z
" clip-path="url(#pb5b44126ec)" style="stroke: #000000"/>
    <path d="M 119.188315 152.987005 
C 119.542672 152.987005 119.882564 152.846217 120.133132 152.595649 
C 120.3837 152.345081 120.524488 152.00519 120.524488 151.650832 
C 120.524488 151.296475 120.3837 150.956584 120.133132 150.706016 
C 119.882564 150.455447 119.542672 150.31466 119.188315 150.31466 
C 118.833958 150.31466 118.494067 150.455447 118.243499 150.706016 
C 117.99293 150.956584 117.852143 151.296475 117.852143 151.650832 
C 117.852143 152.00519 117.99293 152.345081 118.243499 152.595649 
C 118.494067 152.846217 118.833958 152.987005 119.188315 152.987005 
z
" clip-path="url(#pb5b44126ec)" style="stroke: #000000"/>
    <path d="M 117.028277 146.050463 
C 117.62129 146.050463 118.190093 145.814857 118.609416 145.395534 
C 119.028739 144.976211 119.264345 144.407407 119.264345 143.814395 
C 119.264345 143.221383 119.028739 142.652579 118.609416 142.233256 
C 118.190093 141.813933 117.62129 141.578327 117.028277 141.578327 
C 116.435265 141.578327 115.866461 141.813933 115.447139 142.233256 
C 115.027816 142.652579 114.792209 143.221383 114.792209 143.814395 
C 114.792209 144.407407 115.027816 144.976211 115.447139 145.395534 
C 115.866461 145.814857 116.435265 146.050463 117.028277 146.050463 
z
" clip-path="url(#pb5b44126ec)" style="stroke: #000000"/>
    <path d="M 113.856431 133.032739 
C 113.856431 133.032739 113.856431 133.032739 113.856431 133.032739 
C 113.856431 133.032739 113.856431 133.032739 113.856431 133.032739 
C 113.856431 133.032739 113.856431 133.032739 113.856431 133.032739 
C 113.856431 133.032739 113.856431 133.032739 113.856431 133.032739 
C 113.856431 133.032739 113.856431 133.032739 113.856431 133.032739 
C 113.856431 133.032739 113.856431 133.032739 113.856431 133.032739 
C 113.856431 133.032739 113.856431 133.032739 113.856431 133.032739 
C 113.856431 133.032739 113.856431 133.032739 113.856431 133.032739 
z
" clip-path="url(#pb5b44126ec)" style="stroke: #000000"/>
    <path d="M 102.421802 124.312806 
C 102.421802 124.312806 102.421802 124.312806 102.421802 124.312806 
C 102.421802 124.312806 102.421802 124.312806 102.421802 124.312806 
C 102.421802 124.312806 102.421802 124.312806 102.421802 124.312806 
C 102.421802 124.312806 102.421802 124.312806 102.421802 124.312806 
C 102.421802 124.312806 102.421802 124.312806 102.421802 124.312806 
C 102.421802 124.312806 102.421802 124.312806 102.421802 124.312806 
C 102.421802 124.312806 102.421802 124.312806 102.421802 124.312806 
C 102.421802 124.312806 102.421802 124.312806 102.421802 124.312806 
z
" clip-path="url(#pb5b44126ec)" style="stroke: #000000"/>
    <path d="M 102.041508 111.937227 
C 102.52855 111.937227 102.99571 111.743723 103.340101 111.399332 
C 103.684491 111.054941 103.877995 110.587782 103.877995 110.10074 
C 103.877995 109.613698 103.684491 109.146538 103.340101 108.802147 
C 102.99571 108.457757 102.52855 108.264253 102.041508 108.264253 
C 101.554466 108.264253 101.087307 108.457757 100.742916 108.802147 
C 100.398525 109.146538 100.205021 109.613698 100.205021 110.10074 
C 100.205021 110.587782 100.398525 111.054941 100.742916 111.399332 
C 101.087307 111.743723 101.554466 111.937227 102.041508 111.937227 
z
" clip-path="url(#pb5b44126ec)" style="stroke: #000000"/>
    <path d="M 101.57867 107.718255 
C 102.172053 107.718255 102.741212 107.482502 103.160797 107.062917 
C 103.580381 106.643332 103.816135 106.074174 103.816135 105.480791 
C 103.816135 104.887409 103.580381 104.31825 103.160797 103.898665 
C 102.741212 103.47908 102.172053 103.243327 101.57867 103.243327 
C 100.985288 103.243327 100.416129 103.47908 99.996544 103.898665 
C 99.57696 104.31825 99.341206 104.887409 99.341206 105.480791 
C 99.341206 106.074174 99.57696 106.643332 99.996544 107.062917 
C 100.416129 107.482502 100.985288 107.718255 101.57867 107.718255 
z
" clip-path="url(#pb5b44126ec)" style="stroke: #000000"/>
    <path d="M 97.179733 92.208805 
C 97.773115 92.208805 98.342274 91.973052 98.761859 91.553467 
C 99.181444 91.133882 99.417197 90.564724 99.417197 89.971341 
C 99.417197 89.377959 99.181444 88.8088 98.761859 88.389215 
C 98.342274 87.96963 97.773115 87.733877 97.179733 87.733877 
C 96.58635 87.733877 96.017192 87.96963 95.597607 88.389215 
C 95.178022 88.8088 94.942269 89.377959 94.942269 89.971341 
C 94.942269 90.564724 95.178022 91.133882 95.597607 91.553467 
C 96.017192 91.973052 96.58635 92.208805 97.179733 92.208805 
z
" clip-path="url(#pb5b44126ec)" style="stroke: #000000"/>
    <path d="M 92.058438 85.30248 
C 92.058438 85.30248 92.058438 85.30248 92.058438 85.30248 
C 92.058438 85.30248 92.058438 85.30248 92.058438 85.30248 
C 92.058438 85.30248 92.058438 85.30248 92.058438 85.30248 
C 92.058438 85.30248 92.058438 85.30248 92.058438 85.30248 
C 92.058438 85.30248 92.058438 85.30248 92.058438 85.30248 
C 92.058438 85.30248 92.058438 85.30248 92.058438 85.30248 
C 92.058438 85.30248 92.058438 85.30248 92.058438 85.30248 
C 92.058438 85.30248 92.058438 85.30248 92.058438 85.30248 
z
" clip-path="url(#pb5b44126ec)" style="stroke: #000000"/>
    <path d="M 88.704682 74.520662 
C 89.297695 74.520662 89.866498 74.285056 90.285821 73.865733 
C 90.705144 73.44641 90.94075 72.877606 90.94075 72.284594 
C 90.94075 71.691582 90.705144 71.122778 90.285821 70.703455 
C 89.866498 70.284132 89.297695 70.048526 88.704682 70.048526 
C 88.11167 70.048526 87.542867 70.284132 87.123544 70.703455 
C 86.704221 71.122778 86.468614 71.691582 86.468614 72.284594 
C 86.468614 72.877606 86.704221 73.44641 87.123544 73.865733 
C 87.542867 74.285056 88.11167 74.520662 88.704682 74.520662 
z
" clip-path="url(#pb5b44126ec)" style="stroke: #000000"/>
    <path d="M 85.046749 59.845746 
C 85.046749 59.845746 85.046749 59.845746 85.046749 59.845746 
C 85.046749 59.845746 85.046749 59.845746 85.046749 59.845746 
C 85.046749 59.845746 85.046749 59.845746 85.046749 59.845746 
C 85.046749 59.845746 85.046749 59.845746 85.046749 59.845746 
C 85.046749 59.845746 85.046749 59.845746 85.046749 59.845746 
C 85.046749 59.845746 85.046749 59.845746 85.046749 59.845746 
C 85.046749 59.845746 85.046749 59.845746 85.046749 59.845746 
C 85.046749 59.845746 85.046749 59.845746 85.046749 59.845746 
z
" clip-path="url(#pb5b44126ec)" style="stroke: #000000"/>
    <path d="M 82.897308 55.436847 
C 83.49032 55.436847 84.059124 55.201241 84.478447 54.781918 
C 84.897769 54.362595 85.133376 53.793791 85.133376 53.200779 
C 85.133376 52.607767 84.897769 52.038963 84.478447 51.61964 
C 84.059124 51.200317 83.49032 50.964711 82.897308 50.964711 
C 82.304296 50.964711 81.735492 51.200317 81.316169 51.61964 
C 80.896846 52.038963 80.66124 52.607767 80.66124 53.200779 
C 80.66124 53.793791 80.896846 54.362595 81.316169 54.781918 
C 81.735492 55.201241 82.304296 55.436847 82.897308 55.436847 
z
" clip-path="url(#pb5b44126ec)" style="stroke: #000000"/>
    <path d="M 77.758126 41.863663 
C 78.272259 41.863663 78.765404 41.659395 79.128951 41.295848 
C 79.492499 40.932301 79.696766 40.439156 79.696766 39.925023 
C 79.696766 39.410889 79.492499 38.917745 79.128951 38.554197 
C 78.765404 38.19065 78.272259 37.986383 77.758126 37.986383 
C 77.243993 37.986383 76.750848 38.19065 76.387301 38.554197 
C 76.023754 38.917745 75.819486 39.410889 75.819486 39.925023 
C 75.819486 40.439156 76.023754 40.932301 76.387301 41.295848 
C 76.750848 41.659395 77.243993 41.863663 77.758126 41.863663 
z
" clip-path="url(#pb5b44126ec)" style="stroke: #000000"/>
    <path d="M 76.289968 31.666722 
C 76.289968 31.666722 76.289968 31.666722 76.289968 31.666722 
C 76.289968 31.666722 76.289968 31.666722 76.289968 31.666722 
C 76.289968 31.666722 76.289968 31.666722 76.289968 31.666722 
C 76.289968 31.666722 76.289968 31.666722 76.289968 31.666722 
C 76.289968 31.666722 76.289968 31.666722 76.289968 31.666722 
C 76.289968 31.666722 76.289968 31.666722 76.289968 31.666722 
C 76.289968 31.666722 76.289968 31.666722 76.289968 31.666722 
C 76.289968 31.666722 76.289968 31.666722 76.289968 31.666722 
z
" clip-path="url(#pb5b44126ec)" style="stroke: #000000"/>
    <path d="M 69.770574 23.156264 
C 69.770574 23.156264 69.770574 23.156264 69.770574 23.156264 
C 69.770574 23.156264 69.770574 23.156264 69.770574 23.156264 
C 69.770574 23.156264 69.770574 23.156264 69.770574 23.156264 
C 69.770574 23.156264 69.770574 23.156264 69.770574 23.156264 
C 69.770574 23.156264 69.770574 23.156264 69.770574 23.156264 
C 69.770574 23.156264 69.770574 23.156264 69.770574 23.156264 
C 69.770574 23.156264 69.770574 23.156264 69.770574 23.156264 
C 69.770574 23.156264 69.770574 23.156264 69.770574 23.156264 
z
" clip-path="url(#pb5b44126ec)" style="stroke: #000000"/>
    <path d="M 113.173344 178.264582 
C 113.672628 178.264582 114.15153 178.066215 114.504577 177.713167 
C 114.857624 177.36012 115.055991 176.881219 115.055991 176.381935 
C 115.055991 175.882651 114.857624 175.403749 114.504577 175.050702 
C 114.15153 174.697655 113.672628 174.499287 113.173344 174.499287 
C 112.67406 174.499287 112.195158 174.697655 111.842111 175.050702 
C 111.489064 175.403749 111.290696 175.882651 111.290696 176.381935 
C 111.290696 176.881219 111.489064 177.36012 111.842111 177.713167 
C 112.195158 178.066215 112.67406 178.264582 113.173344 178.264582 
z
" clip-path="url(#pb5b44126ec)" style="stroke: #000000"/>
    <path d="M 109.637434 168.713293 
C 109.637434 168.713293 109.637434 168.713293 109.637434 168.713293 
C 109.637434 168.713293 109.637434 168.713293 109.637434 168.713293 
C 109.637434 168.713293 109.637434 168.713293 109.637434 168.713293 
C 109.637434 168.713293 109.637434 168.713293 109.637434 168.713293 
C 109.637434 168.713293 109.637434 168.713293 109.637434 168.713293 
C 109.637434 168.713293 109.637434 168.713293 109.637434 168.713293 
C 109.637434 168.713293 109.637434 168.713293 109.637434 168.713293 
C 109.637434 168.713293 109.637434 168.713293 109.637434 168.713293 
z
" clip-path="url(#pb5b44126ec)" style="stroke: #000000"/>
    <path d="M 105.464822 158.881443 
C 105.464822 158.881443 105.464822 158.881443 105.464822 158.881443 
C 105.464822 158.881443 105.464822 158.881443 105.464822 158.881443 
C 105.464822 158.881443 105.464822 158.881443 105.464822 158.881443 
C 105.464822 158.881443 105.464822 158.881443 105.464822 158.881443 
C 105.464822 158.881443 105.464822 158.881443 105.464822 158.881443 
C 105.464822 158.881443 105.464822 158.881443 105.464822 158.881443 
C 105.464822 158.881443 105.464822 158.881443 105.464822 158.881443 
C 105.464822 158.881443 105.464822 158.881443 105.464822 158.881443 
z
" clip-path="url(#pb5b44126ec)" style="stroke: #000000"/>
    <path d="M 105.925169 150.322421 
C 106.416177 150.322421 106.88714 150.127342 107.234334 149.780147 
C 107.581529 149.432952 107.776608 148.961989 107.776608 148.470982 
C 107.776608 147.979974 107.581529 147.509011 107.234334 147.161816 
C 106.88714 146.814622 106.416177 146.619542 105.925169 146.619542 
C 105.434162 146.619542 104.963199 146.814622 104.616004 147.161816 
C 104.268809 147.509011 104.07373 147.979974 104.07373 148.470982 
C 104.07373 148.961989 104.268809 149.432952 104.616004 149.780147 
C 104.963199 150.127342 105.434162 150.322421 105.925169 150.322421 
z
" clip-path="url(#pb5b44126ec)" style="stroke: #000000"/>
    <path d="M 102.250058 142.413133 
C 102.843071 142.413133 103.411874 142.177527 103.831197 141.758204 
C 104.25052 141.338881 104.486126 140.770077 104.486126 140.177065 
C 104.486126 139.584053 104.25052 139.015249 103.831197 138.595926 
C 103.411874 138.176603 102.843071 137.940997 102.250058 137.940997 
C 101.657046 137.940997 101.088243 138.176603 100.66892 138.595926 
C 100.249597 139.015249 100.01399 139.584053 100.01399 140.177065 
C 100.01399 140.770077 100.249597 141.338881 100.66892 141.758204 
C 101.088243 142.177527 101.657046 142.413133 102.250058 142.413133 
z
" clip-path="url(#pb5b44126ec)" style="stroke: #000000"/>
    <path d="M 95.11838 125.939626 
C 95.387633 125.939626 95.645894 125.832651 95.836285 125.64226 
C 96.026676 125.451869 96.133651 125.193608 96.133651 124.924355 
C 96.133651 124.655102 96.026676 124.39684 95.836285 124.206449 
C 95.645894 124.016059 95.387633 123.909083 95.11838 123.909083 
C 94.849127 123.909083 94.590865 124.016059 94.400474 124.206449 
C 94.210084 124.39684 94.103108 124.655102 94.103108 124.924355 
C 94.103108 125.193608 94.210084 125.451869 94.400474 125.64226 
C 94.590865 125.832651 94.849127 125.939626 95.11838 125.939626 
z
" clip-path="url(#pb5b44126ec)" style="stroke: #000000"/>
    <path d="M 94.522461 116.061551 
C 94.522461 116.061551 94.522461 116.061551 94.522461 116.061551 
C 94.522461 116.061551 94.522461 116.061551 94.522461 116.061551 
C 94.522461 116.061551 94.522461 116.061551 94.522461 116.061551 
C 94.522461 116.061551 94.522461 116.061551 94.522461 116.061551 
C 94.522461 116.061551 94.522461 116.061551 94.522461 116.061551 
C 94.522461 116.061551 94.522461 116.061551 94.522461 116.061551 
C 94.522461 116.061551 94.522461 116.061551 94.522461 116.061551 
C 94.522461 116.061551 94.522461 116.061551 94.522461 116.061551 
z
" clip-path="url(#pb5b44126ec)" style="stroke: #000000"/>
    <path d="M 85.627091 105.898683 
C 86.163105 105.898683 86.677238 105.685723 87.056257 105.306703 
C 87.435276 104.927684 87.648237 104.413551 87.648237 103.877537 
C 87.648237 103.341522 87.435276 102.82739 87.056257 102.44837 
C 86.677238 102.069351 86.163105 101.85639 85.627091 101.85639 
C 85.091076 101.85639 84.576943 102.069351 84.197924 102.44837 
C 83.818905 102.82739 83.605944 103.341522 83.605944 103.877537 
C 83.605944 104.413551 83.818905 104.927684 84.197924 105.306703 
C 84.576943 105.685723 85.091076 105.898683 85.627091 105.898683 
z
" clip-path="url(#pb5b44126ec)" style="stroke: #000000"/>
    <path d="M 85.762937 101.466127 
C 86.298951 101.466127 86.813084 101.253166 87.192103 100.874146 
C 87.571123 100.495127 87.784084 99.980994 87.784084 99.44498 
C 87.784084 98.908966 87.571123 98.394833 87.192103 98.015813 
C 86.813084 97.636794 86.298951 97.423833 85.762937 97.423833 
C 85.226923 97.423833 84.71279 97.636794 84.333771 98.015813 
C 83.954751 98.394833 83.74179 98.908966 83.74179 99.44498 
C 83.74179 99.980994 83.954751 100.495127 84.333771 100.874146 
C 84.71279 101.253166 85.226923 101.466127 85.762937 101.466127 
z
" clip-path="url(#pb5b44126ec)" style="stroke: #000000"/>
    <path d="M 83.255953 87.134986 
C 83.805964 87.134986 84.333523 86.916465 84.722439 86.527548 
C 85.111356 86.138631 85.329878 85.611073 85.329878 85.061062 
C 85.329878 84.511051 85.111356 83.983493 84.722439 83.594576 
C 84.333523 83.205659 83.805964 82.987137 83.255953 82.987137 
C 82.705942 82.987137 82.178384 83.205659 81.789467 83.594576 
C 81.40055 83.983493 81.182029 84.511051 81.182029 85.061062 
C 81.182029 85.611073 81.40055 86.138631 81.789467 86.527548 
C 82.178384 86.916465 82.705942 87.134986 83.255953 87.134986 
z
" clip-path="url(#pb5b44126ec)" style="stroke: #000000"/>
    <path d="M 80.932521 78.407201 
C 81.525533 78.407201 82.094337 78.171594 82.51366 77.752271 
C 82.932982 77.332949 83.168589 76.764145 83.168589 76.171133 
C 83.168589 75.578121 82.932982 75.009317 82.51366 74.589994 
C 82.094337 74.170671 81.525533 73.935065 80.932521 73.935065 
C 80.339509 73.935065 79.770705 74.170671 79.351382 74.589994 
C 78.932059 75.009317 78.696453 75.578121 78.696453 76.171133 
C 78.696453 76.764145 78.932059 77.332949 79.351382 77.752271 
C 79.770705 78.171594 80.339509 78.407201 80.932521 78.407201 
z
" clip-path="url(#pb5b44126ec)" style="stroke: #000000"/>
    <path d="M 73.268224 72.865644 
C 73.861236 72.865644 74.43004 72.630038 74.849363 72.210715 
C 75.268686 71.791392 75.504292 71.222589 75.504292 70.629576 
C 75.504292 70.036564 75.268686 69.467761 74.849363 69.048438 
C 74.43004 68.629115 73.861236 68.393508 73.268224 68.393508 
C 72.675212 68.393508 72.106408 68.629115 71.687085 69.048438 
C 71.267762 69.467761 71.032156 70.036564 71.032156 70.629576 
C 71.032156 71.222589 71.267762 71.791392 71.687085 72.210715 
C 72.106408 72.630038 72.675212 72.865644 73.268224 72.865644 
z
" clip-path="url(#pb5b44126ec)" style="stroke: #000000"/>
    <path d="M 72.817055 61.341425 
C 73.410067 61.341425 73.978871 61.105818 74.398194 60.686496 
C 74.817516 60.267173 75.053123 59.698369 75.053123 59.105357 
C 75.053123 58.512345 74.817516 57.943541 74.398194 57.524218 
C 73.978871 57.104895 73.410067 56.869289 72.817055 56.869289 
C 72.224043 56.869289 71.655239 57.104895 71.235916 57.524218 
C 70.816593 57.943541 70.580987 58.512345 70.580987 59.105357 
C 70.580987 59.698369 70.816593 60.267173 71.235916 60.686496 
C 71.655239 61.105818 72.224043 61.341425 72.817055 61.341425 
z
" clip-path="url(#pb5b44126ec)" style="stroke: #000000"/>
    <path d="M 66.727204 48.662552 
C 67.30877 48.662552 67.866595 48.431493 68.277824 48.020264 
C 68.689053 47.609035 68.920112 47.05121 68.920112 46.469644 
C 68.920112 45.888078 68.689053 45.330253 68.277824 44.919024 
C 67.866595 44.507795 67.30877 44.276736 66.727204 44.276736 
C 66.145638 44.276736 65.587813 44.507795 65.176584 44.919024 
C 64.765354 45.330253 64.534296 45.888078 64.534296 46.469644 
C 64.534296 47.05121 64.765354 47.609035 65.176584 48.020264 
C 65.587813 48.431493 66.145638 48.662552 66.727204 48.662552 
z
" clip-path="url(#pb5b44126ec)" style="stroke: #000000"/>
    <path d="M 67.228874 36.286474 
C 67.228874 36.286474 67.228874 36.286474 67.228874 36.286474 
C 67.228874 36.286474 67.228874 36.286474 67.228874 36.286474 
C 67.228874 36.286474 67.228874 36.286474 67.228874 36.286474 
C 67.228874 36.286474 67.228874 36.286474 67.228874 36.286474 
C 67.228874 36.286474 67.228874 36.286474 67.228874 36.286474 
C 67.228874 36.286474 67.228874 36.286474 67.228874 36.286474 
C 67.228874 36.286474 67.228874 36.286474 67.228874 36.286474 
C 67.228874 36.286474 67.228874 36.286474 67.228874 36.286474 
z
" clip-path="url(#pb5b44126ec)" style="stroke: #000000"/>
    <path d="M 57.343777 29.345602 
C 57.343777 29.345602 57.343777 29.345602 57.343777 29.345602 
C 57.343777 29.345602 57.343777 29.345602 57.343777 29.345602 
C 57.343777 29.345602 57.343777 29.345602 57.343777 29.345602 
C 57.343777 29.345602 57.343777 29.345602 57.343777 29.345602 
C 57.343777 29.345602 57.343777 29.345602 57.343777 29.345602 
C 57.343777 29.345602 57.343777 29.345602 57.343777 29.345602 
C 57.343777 29.345602 57.343777 29.345602 57.343777 29.345602 
C 57.343777 29.345602 57.343777 29.345602 57.343777 29.345602 
z
" clip-path="url(#pb5b44126ec)" style="stroke: #000000"/>
    <path d="M 101.38649 181.452724 
C 101.38649 181.452724 101.38649 181.452724 101.38649 181.452724 
C 101.38649 181.452724 101.38649 181.452724 101.38649 181.452724 
C 101.38649 181.452724 101.38649 181.452724 101.38649 181.452724 
C 101.38649 181.452724 101.38649 181.452724 101.38649 181.452724 
C 101.38649 181.452724 101.38649 181.452724 101.38649 181.452724 
C 101.38649 181.452724 101.38649 181.452724 101.38649 181.452724 
C 101.38649 181.452724 101.38649 181.452724 101.38649 181.452724 
C 101.38649 181.452724 101.38649 181.452724 101.38649 181.452724 
z
" clip-path="url(#pb5b44126ec)" style="stroke: #000000"/>
    <path d="M 101.138828 174.594385 
C 101.138828 174.594385 101.138828 174.594385 101.138828 174.594385 
C 101.138828 174.594385 101.138828 174.594385 101.138828 174.594385 
C 101.138828 174.594385 101.138828 174.594385 101.138828 174.594385 
C 101.138828 174.594385 101.138828 174.594385 101.138828 174.594385 
C 101.138828 174.594385 101.138828 174.594385 101.138828 174.594385 
C 101.138828 174.594385 101.138828 174.594385 101.138828 174.594385 
C 101.138828 174.594385 101.138828 174.594385 101.138828 174.594385 
C 101.138828 174.594385 101.138828 174.594385 101.138828 174.594385 
z
" clip-path="url(#pb5b44126ec)" style="stroke: #000000"/>
    <path d="M 94.958784 157.72803 
C 94.958784 157.72803 94.958784 157.72803 94.958784 157.72803 
C 94.958784 157.72803 94.958784 157.72803 94.958784 157.72803 
C 94.958784 157.72803 94.958784 157.72803 94.958784 157.72803 
C 94.958784 157.72803 94.958784 157.72803 94.958784 157.72803 
C 94.958784 157.72803 94.958784 157.72803 94.958784 157.72803 
C 94.958784 157.72803 94.958784 157.72803 94.958784 157.72803 
C 94.958784 157.72803 94.958784 157.72803 94.958784 157.72803 
C 94.958784 157.72803 94.958784 157.72803 94.958784 157.72803 
z
" clip-path="url(#pb5b44126ec)" style="stroke: #000000"/>
    <path d="M 94.713957 151.14881 
C 94.713957 151.14881 94.713957 151.14881 94.713957 151.14881 
C 94.713957 151.14881 94.713957 151.14881 94.713957 151.14881 
C 94.713957 151.14881 94.713957 151.14881 94.713957 151.14881 
C 94.713957 151.14881 94.713957 151.14881 94.713957 151.14881 
C 94.713957 151.14881 94.713957 151.14881 94.713957 151.14881 
C 94.713957 151.14881 94.713957 151.14881 94.713957 151.14881 
C 94.713957 151.14881 94.713957 151.14881 94.713957 151.14881 
C 94.713957 151.14881 94.713957 151.14881 94.713957 151.14881 
z
" clip-path="url(#pb5b44126ec)" style="stroke: #000000"/>
    <path d="M 87.965938 137.243138 
C 87.965938 137.243138 87.965938 137.243138 87.965938 137.243138 
C 87.965938 137.243138 87.965938 137.243138 87.965938 137.243138 
C 87.965938 137.243138 87.965938 137.243138 87.965938 137.243138 
C 87.965938 137.243138 87.965938 137.243138 87.965938 137.243138 
C 87.965938 137.243138 87.965938 137.243138 87.965938 137.243138 
C 87.965938 137.243138 87.965938 137.243138 87.965938 137.243138 
C 87.965938 137.243138 87.965938 137.243138 87.965938 137.243138 
C 87.965938 137.243138 87.965938 137.243138 87.965938 137.243138 
z
" clip-path="url(#pb5b44126ec)" style="stroke: #000000"/>
    <path d="M 87.076666 129.408199 
C 87.670048 129.408199 88.239207 129.172445 88.658792 128.752861 
C 89.078377 128.333276 89.31413 127.764117 89.31413 127.170735 
C 89.31413 126.577352 89.078377 126.008193 88.658792 125.588608 
C 88.239207 125.169024 87.670048 124.93327 87.076666 124.93327 
C 86.483283 124.93327 85.914125 125.169024 85.49454 125.588608 
C 85.074955 126.008193 84.839202 126.577352 84.839202 127.170735 
C 84.839202 127.764117 85.074955 128.333276 85.49454 128.752861 
C 85.914125 129.172445 86.483283 129.408199 87.076666 129.408199 
z
" clip-path="url(#pb5b44126ec)" style="stroke: #000000"/>
    <path d="M 83.177008 121.405681 
C 83.770391 121.405681 84.33955 121.169928 84.759135 120.750343 
C 85.178719 120.330759 85.414473 119.7616 85.414473 119.168217 
C 85.414473 118.574835 85.178719 118.005676 84.759135 117.586091 
C 84.33955 117.166506 83.770391 116.930753 83.177008 116.930753 
C 82.583626 116.930753 82.014467 117.166506 81.594882 117.586091 
C 81.175298 118.005676 80.939544 118.574835 80.939544 119.168217 
C 80.939544 119.7616 81.175298 120.330759 81.594882 120.750343 
C 82.014467 121.169928 82.583626 121.405681 83.177008 121.405681 
z
" clip-path="url(#pb5b44126ec)" style="stroke: #000000"/>
    <path d="M 79.087636 107.656276 
C 79.681019 107.656276 80.250178 107.420523 80.669762 107.000938 
C 81.089347 106.581353 81.3251 106.012194 81.3251 105.418812 
C 81.3251 104.825429 81.089347 104.25627 80.669762 103.836686 
C 80.250178 103.417101 79.681019 103.181347 79.087636 103.181347 
C 78.494254 103.181347 77.925095 103.417101 77.50551 103.836686 
C 77.085925 104.25627 76.850172 104.825429 76.850172 105.418812 
C 76.850172 106.012194 77.085925 106.581353 77.50551 107.000938 
C 77.925095 107.420523 78.494254 107.656276 79.087636 107.656276 
z
" clip-path="url(#pb5b44126ec)" style="stroke: #000000"/>
    <path d="M 74.923141 104.430612 
C 74.923141 104.430612 74.923141 104.430612 74.923141 104.430612 
C 74.923141 104.430612 74.923141 104.430612 74.923141 104.430612 
C 74.923141 104.430612 74.923141 104.430612 74.923141 104.430612 
C 74.923141 104.430612 74.923141 104.430612 74.923141 104.430612 
C 74.923141 104.430612 74.923141 104.430612 74.923141 104.430612 
C 74.923141 104.430612 74.923141 104.430612 74.923141 104.430612 
C 74.923141 104.430612 74.923141 104.430612 74.923141 104.430612 
C 74.923141 104.430612 74.923141 104.430612 74.923141 104.430612 
z
" clip-path="url(#pb5b44126ec)" style="stroke: #000000"/>
    <path d="M 70.977766 89.176299 
C 70.977766 89.176299 70.977766 89.176299 70.977766 89.176299 
C 70.977766 89.176299 70.977766 89.176299 70.977766 89.176299 
C 70.977766 89.176299 70.977766 89.176299 70.977766 89.176299 
C 70.977766 89.176299 70.977766 89.176299 70.977766 89.176299 
C 70.977766 89.176299 70.977766 89.176299 70.977766 89.176299 
C 70.977766 89.176299 70.977766 89.176299 70.977766 89.176299 
C 70.977766 89.176299 70.977766 89.176299 70.977766 89.176299 
C 70.977766 89.176299 70.977766 89.176299 70.977766 89.176299 
z
" clip-path="url(#pb5b44126ec)" style="stroke: #000000"/>
    <path d="M 66.181627 81.693722 
C 66.774639 81.693722 67.343443 81.458116 67.762766 81.038793 
C 68.182089 80.61947 68.417695 80.050666 68.417695 79.457654 
C 68.417695 78.864642 68.182089 78.295838 67.762766 77.876515 
C 67.343443 77.457192 66.774639 77.221586 66.181627 77.221586 
C 65.588615 77.221586 65.019811 77.457192 64.600488 77.876515 
C 64.181165 78.295838 63.945559 78.864642 63.945559 79.457654 
C 63.945559 80.050666 64.181165 80.61947 64.600488 81.038793 
C 65.019811 81.458116 65.588615 81.693722 66.181627 81.693722 
z
" clip-path="url(#pb5b44126ec)" style="stroke: #000000"/>
    <path d="M 66.959589 69.715267 
C 66.959589 69.715267 66.959589 69.715267 66.959589 69.715267 
C 66.959589 69.715267 66.959589 69.715267 66.959589 69.715267 
C 66.959589 69.715267 66.959589 69.715267 66.959589 69.715267 
C 66.959589 69.715267 66.959589 69.715267 66.959589 69.715267 
C 66.959589 69.715267 66.959589 69.715267 66.959589 69.715267 
C 66.959589 69.715267 66.959589 69.715267 66.959589 69.715267 
C 66.959589 69.715267 66.959589 69.715267 66.959589 69.715267 
C 66.959589 69.715267 66.959589 69.715267 66.959589 69.715267 
z
" clip-path="url(#pb5b44126ec)" style="stroke: #000000"/>
    <path d="M 63.651203 58.612885 
C 63.651203 58.612885 63.651203 58.612885 63.651203 58.612885 
C 63.651203 58.612885 63.651203 58.612885 63.651203 58.612885 
C 63.651203 58.612885 63.651203 58.612885 63.651203 58.612885 
C 63.651203 58.612885 63.651203 58.612885 63.651203 58.612885 
C 63.651203 58.612885 63.651203 58.612885 63.651203 58.612885 
C 63.651203 58.612885 63.651203 58.612885 63.651203 58.612885 
C 63.651203 58.612885 63.651203 58.612885 63.651203 58.612885 
C 63.651203 58.612885 63.651203 58.612885 63.651203 58.612885 
z
" clip-path="url(#pb5b44126ec)" style="stroke: #000000"/>
    <path d="M 59.221849 48.330201 
C 59.524115 48.330201 59.814042 48.21011 60.027777 47.996375 
C 60.241511 47.782641 60.361603 47.492714 60.361603 47.190448 
C 60.361603 46.888182 60.241511 46.598255 60.027777 46.38452 
C 59.814042 46.170786 59.524115 46.050694 59.221849 46.050694 
C 58.919583 46.050694 58.629656 46.170786 58.415922 46.38452 
C 58.202187 46.598255 58.082096 46.888182 58.082096 47.190448 
C 58.082096 47.492714 58.202187 47.782641 58.415922 47.996375 
C 58.629656 48.21011 58.919583 48.330201 59.221849 48.330201 
z
" clip-path="url(#pb5b44126ec)" style="stroke: #000000"/>
    <path d="M 54.570662 37.909316 
C 54.570662 37.909316 54.570662 37.909316 54.570662 37.909316 
C 54.570662 37.909316 54.570662 37.909316 54.570662 37.909316 
C 54.570662 37.909316 54.570662 37.909316 54.570662 37.909316 
C 54.570662 37.909316 54.570662 37.909316 54.570662 37.909316 
C 54.570662 37.909316 54.570662 37.909316 54.570662 37.909316 
C 54.570662 37.909316 54.570662 37.909316 54.570662 37.909316 
C 54.570662 37.909316 54.570662 37.909316 54.570662 37.909316 
C 54.570662 37.909316 54.570662 37.909316 54.570662 37.909316 
z
" clip-path="url(#pb5b44126ec)" style="stroke: #000000"/>
    <path d="M 90.846857 173.62387 
C 91.021371 173.62387 91.18876 173.554535 91.31216 173.431135 
C 91.435559 173.307735 91.504894 173.140346 91.504894 172.965833 
C 91.504894 172.791319 91.435559 172.62393 91.31216 172.50053 
C 91.18876 172.377131 91.021371 172.307796 90.846857 172.307796 
C 90.672344 172.307796 90.504955 172.377131 90.381555 172.50053 
C 90.258155 172.62393 90.18882 172.791319 90.18882 172.965833 
C 90.18882 173.140346 90.258155 173.307735 90.381555 173.431135 
C 90.504955 173.554535 90.672344 173.62387 90.846857 173.62387 
z
" clip-path="url(#pb5b44126ec)" style="stroke: #000000"/>
    <path d="M 83.856219 164.823757 
C 84.449231 164.823757 85.018035 164.58815 85.437357 164.168827 
C 85.85668 163.749504 86.092287 163.180701 86.092287 162.587689 
C 86.092287 161.994676 85.85668 161.425873 85.437357 161.00655 
C 85.018035 160.587227 84.449231 160.351621 83.856219 160.351621 
C 83.263206 160.351621 82.694403 160.587227 82.27508 161.00655 
C 81.855757 161.425873 81.620151 161.994676 81.620151 162.587689 
C 81.620151 163.180701 81.855757 163.749504 82.27508 164.168827 
C 82.694403 164.58815 83.263206 164.823757 83.856219 164.823757 
z
" clip-path="url(#pb5b44126ec)" style="stroke: #000000"/>
    <path d="M 87.591573 154.977932 
C 87.591573 154.977932 87.591573 154.977932 87.591573 154.977932 
C 87.591573 154.977932 87.591573 154.977932 87.591573 154.977932 
C 87.591573 154.977932 87.591573 154.977932 87.591573 154.977932 
C 87.591573 154.977932 87.591573 154.977932 87.591573 154.977932 
C 87.591573 154.977932 87.591573 154.977932 87.591573 154.977932 
C 87.591573 154.977932 87.591573 154.977932 87.591573 154.977932 
C 87.591573 154.977932 87.591573 154.977932 87.591573 154.977932 
C 87.591573 154.977932 87.591573 154.977932 87.591573 154.977932 
z
" clip-path="url(#pb5b44126ec)" style="stroke: #000000"/>
    <path d="M 83.14042 145.897959 
C 83.14042 145.897959 83.14042 145.897959 83.14042 145.897959 
C 83.14042 145.897959 83.14042 145.897959 83.14042 145.897959 
C 83.14042 145.897959 83.14042 145.897959 83.14042 145.897959 
C 83.14042 145.897959 83.14042 145.897959 83.14042 145.897959 
C 83.14042 145.897959 83.14042 145.897959 83.14042 145.897959 
C 83.14042 145.897959 83.14042 145.897959 83.14042 145.897959 
C 83.14042 145.897959 83.14042 145.897959 83.14042 145.897959 
C 83.14042 145.897959 83.14042 145.897959 83.14042 145.897959 
z
" clip-path="url(#pb5b44126ec)" style="stroke: #000000"/>
    <path d="M 72.911067 137.149269 
C 73.504449 137.149269 74.073608 136.913515 74.493193 136.493931 
C 74.912778 136.074346 75.148531 135.505187 75.148531 134.911804 
C 75.148531 134.318422 74.912778 133.749263 74.493193 133.329678 
C 74.073608 132.910094 73.504449 132.67434 72.911067 132.67434 
C 72.317684 132.67434 71.748525 132.910094 71.328941 133.329678 
C 70.909356 133.749263 70.673603 134.318422 70.673603 134.911804 
C 70.673603 135.505187 70.909356 136.074346 71.328941 136.493931 
C 71.748525 136.913515 72.317684 137.149269 72.911067 137.149269 
z
" clip-path="url(#pb5b44126ec)" style="stroke: #000000"/>
    <path d="M 70.464073 123.16923 
C 71.000088 123.16923 71.51422 122.956269 71.89324 122.57725 
C 72.272259 122.198231 72.48522 121.684098 72.48522 121.148083 
C 72.48522 120.612069 72.272259 120.097936 71.89324 119.718917 
C 71.51422 119.339898 71.000088 119.126937 70.464073 119.126937 
C 69.928059 119.126937 69.413926 119.339898 69.034907 119.718917 
C 68.655888 120.097936 68.442927 120.612069 68.442927 121.148083 
C 68.442927 121.684098 68.655888 122.198231 69.034907 122.57725 
C 69.413926 122.956269 69.928059 123.16923 70.464073 123.16923 
z
" clip-path="url(#pb5b44126ec)" style="stroke: #000000"/>
    <path d="M 68.416143 115.648443 
C 69.009525 115.648443 69.578684 115.41269 69.998269 114.993105 
C 70.417854 114.573521 70.653607 114.004362 70.653607 113.410979 
C 70.653607 112.817597 70.417854 112.248438 69.998269 111.828853 
C 69.578684 111.409268 69.009525 111.173515 68.416143 111.173515 
C 67.822761 111.173515 67.253602 111.409268 66.834017 111.828853 
C 66.414432 112.248438 66.178679 112.817597 66.178679 113.410979 
C 66.178679 114.004362 66.414432 114.573521 66.834017 114.993105 
C 67.253602 115.41269 67.822761 115.648443 68.416143 115.648443 
z
" clip-path="url(#pb5b44126ec)" style="stroke: #000000"/>
    <path d="M 64.008075 105.254141 
C 64.544089 105.254141 65.058222 105.04118 65.437241 104.662161 
C 65.816261 104.283142 66.029221 103.769009 66.029221 103.232994 
C 66.029221 102.69698 65.816261 102.182847 65.437241 101.803828 
C 65.058222 101.424809 64.544089 101.211848 64.008075 101.211848 
C 63.472061 101.211848 62.957928 101.424809 62.578908 101.803828 
C 62.199889 102.182847 61.986928 102.69698 61.986928 103.232994 
C 61.986928 103.769009 62.199889 104.283142 62.578908 104.662161 
C 62.957928 105.04118 63.472061 105.254141 64.008075 105.254141 
z
" clip-path="url(#pb5b44126ec)" style="stroke: #000000"/>
    <path d="M 59.881687 94.117779 
C 60.4747 94.117779 61.043503 93.882173 61.462826 93.46285 
C 61.882149 93.043527 62.117755 92.474724 62.117755 91.881711 
C 62.117755 91.288699 61.882149 90.719895 61.462826 90.300573 
C 61.043503 89.88125 60.4747 89.645643 59.881687 89.645643 
C 59.288675 89.645643 58.719872 89.88125 58.300549 90.300573 
C 57.881226 90.719895 57.645619 91.288699 57.645619 91.881711 
C 57.645619 92.474724 57.881226 93.043527 58.300549 93.46285 
C 58.719872 93.882173 59.288675 94.117779 59.881687 94.117779 
z
" clip-path="url(#pb5b44126ec)" style="stroke: #000000"/>
    <path d="M 56.316865 83.080809 
C 56.316865 83.080809 56.316865 83.080809 56.316865 83.080809 
C 56.316865 83.080809 56.316865 83.080809 56.316865 83.080809 
C 56.316865 83.080809 56.316865 83.080809 56.316865 83.080809 
C 56.316865 83.080809 56.316865 83.080809 56.316865 83.080809 
C 56.316865 83.080809 56.316865 83.080809 56.316865 83.080809 
C 56.316865 83.080809 56.316865 83.080809 56.316865 83.080809 
C 56.316865 83.080809 56.316865 83.080809 56.316865 83.080809 
C 56.316865 83.080809 56.316865 83.080809 56.316865 83.080809 
z
" clip-path="url(#pb5b44126ec)" style="stroke: #000000"/>
    <path d="M 51.540893 78.333837 
C 52.133905 78.333837 52.702709 78.098231 53.122032 77.678908 
C 53.541354 77.259585 53.776961 76.690781 53.776961 76.097769 
C 53.776961 75.504757 53.541354 74.935953 53.122032 74.51663 
C 52.702709 74.097307 52.133905 73.861701 51.540893 73.861701 
C 50.947881 73.861701 50.379077 74.097307 49.959754 74.51663 
C 49.540431 74.935953 49.304825 75.504757 49.304825 76.097769 
C 49.304825 76.690781 49.540431 77.259585 49.959754 77.678908 
C 50.379077 78.098231 50.947881 78.333837 51.540893 78.333837 
z
" clip-path="url(#pb5b44126ec)" style="stroke: #000000"/>
    <path d="M 47.010046 59.758006 
C 47.603058 59.758006 48.171862 59.5224 48.591185 59.103077 
C 49.010508 58.683754 49.246114 58.11495 49.246114 57.521938 
C 49.246114 56.928926 49.010508 56.360122 48.591185 55.940799 
C 48.171862 55.521476 47.603058 55.28587 47.010046 55.28587 
C 46.417034 55.28587 45.84823 55.521476 45.428907 55.940799 
C 45.009584 56.360122 44.773978 56.928926 44.773978 57.521938 
C 44.773978 58.11495 45.009584 58.683754 45.428907 59.103077 
C 45.84823 59.5224 46.417034 59.758006 47.010046 59.758006 
z
" clip-path="url(#pb5b44126ec)" style="stroke: #000000"/>
    <path d="M 48.431204 51.33335 
C 49.011982 51.33335 49.569052 51.102605 49.979724 50.691932 
C 50.390397 50.28126 50.621143 49.72419 50.621143 49.143412 
C 50.621143 48.562633 50.390397 48.005564 49.979724 47.594891 
C 49.569052 47.184219 49.011982 46.953473 48.431204 46.953473 
C 47.850425 46.953473 47.293356 47.184219 46.882683 47.594891 
C 46.472011 48.005564 46.241265 48.562633 46.241265 49.143412 
C 46.241265 49.72419 46.472011 50.28126 46.882683 50.691932 
C 47.293356 51.102605 47.850425 51.33335 48.431204 51.33335 
z
" clip-path="url(#pb5b44126ec)" style="stroke: #000000"/>
    <path d="M 44.178432 39.180652 
C 44.178432 39.180652 44.178432 39.180652 44.178432 39.180652 
C 44.178432 39.180652 44.178432 39.180652 44.178432 39.180652 
C 44.178432 39.180652 44.178432 39.180652 44.178432 39.180652 
C 44.178432 39.180652 44.178432 39.180652 44.178432 39.180652 
C 44.178432 39.180652 44.178432 39.180652 44.178432 39.180652 
C 44.178432 39.180652 44.178432 39.180652 44.178432 39.180652 
C 44.178432 39.180652 44.178432 39.180652 44.178432 39.180652 
C 44.178432 39.180652 44.178432 39.180652 44.178432 39.180652 
z
" clip-path="url(#pb5b44126ec)" style="stroke: #000000"/>
    <path d="M 79.269626 178.535823 
C 79.269626 178.535823 79.269626 178.535823 79.269626 178.535823 
C 79.269626 178.535823 79.269626 178.535823 79.269626 178.535823 
C 79.269626 178.535823 79.269626 178.535823 79.269626 178.535823 
C 79.269626 178.535823 79.269626 178.535823 79.269626 178.535823 
C 79.269626 178.535823 79.269626 178.535823 79.269626 178.535823 
C 79.269626 178.535823 79.269626 178.535823 79.269626 178.535823 
C 79.269626 178.535823 79.269626 178.535823 79.269626 178.535823 
C 79.269626 178.535823 79.269626 178.535823 79.269626 178.535823 
z
" clip-path="url(#pb5b44126ec)" style="stroke: #000000"/>
    <path d="M 77.904478 169.289069 
C 77.904478 169.289069 77.904478 169.289069 77.904478 169.289069 
C 77.904478 169.289069 77.904478 169.289069 77.904478 169.289069 
C 77.904478 169.289069 77.904478 169.289069 77.904478 169.289069 
C 77.904478 169.289069 77.904478 169.289069 77.904478 169.289069 
C 77.904478 169.289069 77.904478 169.289069 77.904478 169.289069 
C 77.904478 169.289069 77.904478 169.289069 77.904478 169.289069 
C 77.904478 169.289069 77.904478 169.289069 77.904478 169.289069 
C 77.904478 169.289069 77.904478 169.289069 77.904478 169.289069 
z
" clip-path="url(#pb5b44126ec)" style="stroke: #000000"/>
    <path d="M 70.817272 156.288761 
C 70.817272 156.288761 70.817272 156.288761 70.817272 156.288761 
C 70.817272 156.288761 70.817272 156.288761 70.817272 156.288761 
C 70.817272 156.288761 70.817272 156.288761 70.817272 156.288761 
C 70.817272 156.288761 70.817272 156.288761 70.817272 156.288761 
C 70.817272 156.288761 70.817272 156.288761 70.817272 156.288761 
C 70.817272 156.288761 70.817272 156.288761 70.817272 156.288761 
C 70.817272 156.288761 70.817272 156.288761 70.817272 156.288761 
C 70.817272 156.288761 70.817272 156.288761 70.817272 156.288761 
z
" clip-path="url(#pb5b44126ec)" style="stroke: #000000"/>
    <path d="M 69.518783 149.523133 
C 69.518783 149.523133 69.518783 149.523133 69.518783 149.523133 
C 69.518783 149.523133 69.518783 149.523133 69.518783 149.523133 
C 69.518783 149.523133 69.518783 149.523133 69.518783 149.523133 
C 69.518783 149.523133 69.518783 149.523133 69.518783 149.523133 
C 69.518783 149.523133 69.518783 149.523133 69.518783 149.523133 
C 69.518783 149.523133 69.518783 149.523133 69.518783 149.523133 
C 69.518783 149.523133 69.518783 149.523133 69.518783 149.523133 
C 69.518783 149.523133 69.518783 149.523133 69.518783 149.523133 
z
" clip-path="url(#pb5b44126ec)" style="stroke: #000000"/>
    <path d="M 64.454316 137.813289 
C 65.047699 137.813289 65.616858 137.577536 66.036443 137.157951 
C 66.456027 136.738366 66.691781 136.169207 66.691781 135.575825 
C 66.691781 134.982443 66.456027 134.413284 66.036443 133.993699 
C 65.616858 133.574114 65.047699 133.338361 64.454316 133.338361 
C 63.860934 133.338361 63.291775 133.574114 62.87219 133.993699 
C 62.452606 134.413284 62.216852 134.982443 62.216852 135.575825 
C 62.216852 136.169207 62.452606 136.738366 62.87219 137.157951 
C 63.291775 137.577536 63.860934 137.813289 64.454316 137.813289 
z
" clip-path="url(#pb5b44126ec)" style="stroke: #000000"/>
    <path d="M 58.726886 128.890837 
C 59.257809 128.890837 59.767059 128.679899 60.142478 128.30448 
C 60.517898 127.92906 60.728836 127.419811 60.728836 126.888887 
C 60.728836 126.357964 60.517898 125.848714 60.142478 125.473295 
C 59.767059 125.097875 59.257809 124.886937 58.726886 124.886937 
C 58.195962 124.886937 57.686713 125.097875 57.311293 125.473295 
C 56.935874 125.848714 56.724935 126.357964 56.724935 126.888887 
C 56.724935 127.419811 56.935874 127.92906 57.311293 128.30448 
C 57.686713 128.679899 58.195962 128.890837 58.726886 128.890837 
z
" clip-path="url(#pb5b44126ec)" style="stroke: #000000"/>
    <path d="M 56.510851 119.898923 
C 57.104234 119.898923 57.673393 119.66317 58.092977 119.243585 
C 58.512562 118.824001 58.748315 118.254842 58.748315 117.661459 
C 58.748315 117.068077 58.512562 116.498918 58.092977 116.079333 
C 57.673393 115.659748 57.104234 115.423995 56.510851 115.423995 
C 55.917469 115.423995 55.34831 115.659748 54.928725 116.079333 
C 54.50914 116.498918 54.273387 117.068077 54.273387 117.661459 
C 54.273387 118.254842 54.50914 118.824001 54.928725 119.243585 
C 55.34831 119.66317 55.917469 119.898923 56.510851 119.898923 
z
" clip-path="url(#pb5b44126ec)" style="stroke: #000000"/>
    <path d="M 52.357097 106.254836 
C 52.916172 106.254836 53.452424 106.032713 53.84775 105.637387 
C 54.243076 105.242061 54.465199 104.705808 54.465199 104.146733 
C 54.465199 103.587658 54.243076 103.051405 53.84775 102.656079 
C 53.452424 102.260753 52.916172 102.03863 52.357097 102.03863 
C 51.798021 102.03863 51.261769 102.260753 50.866443 102.656079 
C 50.471117 103.051405 50.248994 103.587658 50.248994 104.146733 
C 50.248994 104.705808 50.471117 105.242061 50.866443 105.637387 
C 51.261769 106.032713 51.798021 106.254836 52.357097 106.254836 
z
" clip-path="url(#pb5b44126ec)" style="stroke: #000000"/>
    <path d="M 53.348168 97.27277 
C 53.94155 97.27277 54.510709 97.037017 54.930294 96.617432 
C 55.349878 96.197847 55.585632 95.628688 55.585632 95.035306 
C 55.585632 94.441923 55.349878 93.872765 54.930294 93.45318 
C 54.510709 93.033595 53.94155 92.797842 53.348168 92.797842 
C 52.754785 92.797842 52.185626 93.033595 51.766041 93.45318 
C 51.346457 93.872765 51.110703 94.441923 51.110703 95.035306 
C 51.110703 95.628688 51.346457 96.197847 51.766041 96.617432 
C 52.185626 97.037017 52.754785 97.27277 53.348168 97.27277 
z
" clip-path="url(#pb5b44126ec)" style="stroke: #000000"/>
    <path d="M 46.869217 84.569915 
C 46.869217 84.569915 46.869217 84.569915 46.869217 84.569915 
C 46.869217 84.569915 46.869217 84.569915 46.869217 84.569915 
C 46.869217 84.569915 46.869217 84.569915 46.869217 84.569915 
C 46.869217 84.569915 46.869217 84.569915 46.869217 84.569915 
C 46.869217 84.569915 46.869217 84.569915 46.869217 84.569915 
C 46.869217 84.569915 46.869217 84.569915 46.869217 84.569915 
C 46.869217 84.569915 46.869217 84.569915 46.869217 84.569915 
C 46.869217 84.569915 46.869217 84.569915 46.869217 84.569915 
z
" clip-path="url(#pb5b44126ec)" style="stroke: #000000"/>
    <path d="M 40.44999 80.876455 
C 40.44999 80.876455 40.44999 80.876455 40.44999 80.876455 
C 40.44999 80.876455 40.44999 80.876455 40.44999 80.876455 
C 40.44999 80.876455 40.44999 80.876455 40.44999 80.876455 
C 40.44999 80.876455 40.44999 80.876455 40.44999 80.876455 
C 40.44999 80.876455 40.44999 80.876455 40.44999 80.876455 
C 40.44999 80.876455 40.44999 80.876455 40.44999 80.876455 
C 40.44999 80.876455 40.44999 80.876455 40.44999 80.876455 
C 40.44999 80.876455 40.44999 80.876455 40.44999 80.876455 
z
" clip-path="url(#pb5b44126ec)" style="stroke: #000000"/>
    <path d="M 39.793158 65.11554 
C 40.386171 65.11554 40.954974 64.879934 41.374297 64.460611 
C 41.79362 64.041288 42.029226 63.472484 42.029226 62.879472 
C 42.029226 62.28646 41.79362 61.717656 41.374297 61.298333 
C 40.954974 60.879011 40.386171 60.643404 39.793158 60.643404 
C 39.200146 60.643404 38.631343 60.879011 38.21202 61.298333 
C 37.792697 61.717656 37.55709 62.28646 37.55709 62.879472 
C 37.55709 63.472484 37.792697 64.041288 38.21202 64.460611 
C 38.631343 64.879934 39.200146 65.11554 39.793158 65.11554 
z
" clip-path="url(#pb5b44126ec)" style="stroke: #000000"/>
    <path d="M 38.997071 55.767054 
C 38.997071 55.767054 38.997071 55.767054 38.997071 55.767054 
C 38.997071 55.767054 38.997071 55.767054 38.997071 55.767054 
C 38.997071 55.767054 38.997071 55.767054 38.997071 55.767054 
C 38.997071 55.767054 38.997071 55.767054 38.997071 55.767054 
C 38.997071 55.767054 38.997071 55.767054 38.997071 55.767054 
C 38.997071 55.767054 38.997071 55.767054 38.997071 55.767054 
C 38.997071 55.767054 38.997071 55.767054 38.997071 55.767054 
C 38.997071 55.767054 38.997071 55.767054 38.997071 55.767054 
z
" clip-path="url(#pb5b44126ec)" style="stroke: #000000"/>
    <path d="M 66.386896 174.976478 
C 66.938295 174.976478 67.467185 174.757404 67.857084 174.367506 
C 68.246982 173.977607 68.466055 173.448718 68.466055 172.897318 
C 68.466055 172.345919 68.246982 171.817029 67.857084 171.42713 
C 67.467185 171.037232 66.938295 170.818159 66.386896 170.818159 
C 65.835496 170.818159 65.306606 171.037232 64.916708 171.42713 
C 64.52681 171.817029 64.307736 172.345919 64.307736 172.897318 
C 64.307736 173.448718 64.52681 173.977607 64.916708 174.367506 
C 65.306606 174.757404 65.835496 174.976478 66.386896 174.976478 
z
" clip-path="url(#pb5b44126ec)" style="stroke: #000000"/>
    <path d="M 59.110741 161.646857 
C 59.110741 161.646857 59.110741 161.646857 59.110741 161.646857 
C 59.110741 161.646857 59.110741 161.646857 59.110741 161.646857 
C 59.110741 161.646857 59.110741 161.646857 59.110741 161.646857 
C 59.110741 161.646857 59.110741 161.646857 59.110741 161.646857 
C 59.110741 161.646857 59.110741 161.646857 59.110741 161.646857 
C 59.110741 161.646857 59.110741 161.646857 59.110741 161.646857 
C 59.110741 161.646857 59.110741 161.646857 59.110741 161.646857 
C 59.110741 161.646857 59.110741 161.646857 59.110741 161.646857 
z
" clip-path="url(#pb5b44126ec)" style="stroke: #000000"/>
    <path d="M 57.778646 153.123471 
C 57.778646 153.123471 57.778646 153.123471 57.778646 153.123471 
C 57.778646 153.123471 57.778646 153.123471 57.778646 153.123471 
C 57.778646 153.123471 57.778646 153.123471 57.778646 153.123471 
C 57.778646 153.123471 57.778646 153.123471 57.778646 153.123471 
C 57.778646 153.123471 57.778646 153.123471 57.778646 153.123471 
C 57.778646 153.123471 57.778646 153.123471 57.778646 153.123471 
C 57.778646 153.123471 57.778646 153.123471 57.778646 153.123471 
C 57.778646 153.123471 57.778646 153.123471 57.778646 153.123471 
z
" clip-path="url(#pb5b44126ec)" style="stroke: #000000"/>
    <path d="M 57.305066 143.311099 
C 57.305066 143.311099 57.305066 143.311099 57.305066 143.311099 
C 57.305066 143.311099 57.305066 143.311099 57.305066 143.311099 
C 57.305066 143.311099 57.305066 143.311099 57.305066 143.311099 
C 57.305066 143.311099 57.305066 143.311099 57.305066 143.311099 
C 57.305066 143.311099 57.305066 143.311099 57.305066 143.311099 
C 57.305066 143.311099 57.305066 143.311099 57.305066 143.311099 
C 57.305066 143.311099 57.305066 143.311099 57.305066 143.311099 
C 57.305066 143.311099 57.305066 143.311099 57.305066 143.311099 
z
" clip-path="url(#pb5b44126ec)" style="stroke: #000000"/>
    <path d="M 51.247378 130.974167 
C 51.84039 130.974167 52.409193 130.738561 52.828516 130.319238 
C 53.247839 129.899915 53.483445 129.331111 53.483445 128.738099 
C 53.483445 128.145087 53.247839 127.576283 52.828516 127.15696 
C 52.409193 126.737637 51.84039 126.502031 51.247378 126.502031 
C 50.654365 126.502031 50.085562 126.737637 49.666239 127.15696 
C 49.246916 127.576283 49.01131 128.145087 49.01131 128.738099 
C 49.01131 129.331111 49.246916 129.899915 49.666239 130.319238 
C 50.085562 130.738561 50.654365 130.974167 51.247378 130.974167 
z
" clip-path="url(#pb5b44126ec)" style="stroke: #000000"/>
    <path d="M 43.59813 122.544085 
C 43.59813 122.544085 43.59813 122.544085 43.59813 122.544085 
C 43.59813 122.544085 43.59813 122.544085 43.59813 122.544085 
C 43.59813 122.544085 43.59813 122.544085 43.59813 122.544085 
C 43.59813 122.544085 43.59813 122.544085 43.59813 122.544085 
C 43.59813 122.544085 43.59813 122.544085 43.59813 122.544085 
C 43.59813 122.544085 43.59813 122.544085 43.59813 122.544085 
C 43.59813 122.544085 43.59813 122.544085 43.59813 122.544085 
C 43.59813 122.544085 43.59813 122.544085 43.59813 122.544085 
z
" clip-path="url(#pb5b44126ec)" style="stroke: #000000"/>
    <path d="M 43.858257 113.949938 
C 44.451269 113.949938 45.020073 113.714332 45.439396 113.295009 
C 45.858719 112.875686 46.094325 112.306882 46.094325 111.71387 
C 46.094325 111.120858 45.858719 110.552054 45.439396 110.132731 
C 45.020073 109.713409 44.451269 109.477802 43.858257 109.477802 
C 43.265245 109.477802 42.696441 109.713409 42.277118 110.132731 
C 41.857796 110.552054 41.622189 111.120858 41.622189 111.71387 
C 41.622189 112.306882 41.857796 112.875686 42.277118 113.295009 
C 42.696441 113.714332 43.265245 113.949938 43.858257 113.949938 
z
" clip-path="url(#pb5b44126ec)" style="stroke: #000000"/>
    <path d="M 38.560474 101.815176 
C 39.153486 101.815176 39.72229 101.57957 40.141613 101.160247 
C 40.560935 100.740924 40.796542 100.17212 40.796542 99.579108 
C 40.796542 98.986096 40.560935 98.417292 40.141613 97.997969 
C 39.72229 97.578646 39.153486 97.34304 38.560474 97.34304 
C 37.967462 97.34304 37.398658 97.578646 36.979335 97.997969 
C 36.560012 98.417292 36.324406 98.986096 36.324406 99.579108 
C 36.324406 100.17212 36.560012 100.740924 36.979335 101.160247 
C 37.398658 101.57957 37.967462 101.815176 38.560474 101.815176 
z
" clip-path="url(#pb5b44126ec)" style="stroke: #000000"/>
    <path d="M 39.699527 91.972288 
C 39.699527 91.972288 39.699527 91.972288 39.699527 91.972288 
C 39.699527 91.972288 39.699527 91.972288 39.699527 91.972288 
C 39.699527 91.972288 39.699527 91.972288 39.699527 91.972288 
C 39.699527 91.972288 39.699527 91.972288 39.699527 91.972288 
C 39.699527 91.972288 39.699527 91.972288 39.699527 91.972288 
C 39.699527 91.972288 39.699527 91.972288 39.699527 91.972288 
C 39.699527 91.972288 39.699527 91.972288 39.699527 91.972288 
C 39.699527 91.972288 39.699527 91.972288 39.699527 91.972288 
z
" clip-path="url(#pb5b44126ec)" style="stroke: #000000"/>
    <path d="M 36.605573 77.263782 
C 36.605573 77.263782 36.605573 77.263782 36.605573 77.263782 
C 36.605573 77.263782 36.605573 77.263782 36.605573 77.263782 
C 36.605573 77.263782 36.605573 77.263782 36.605573 77.263782 
C 36.605573 77.263782 36.605573 77.263782 36.605573 77.263782 
C 36.605573 77.263782 36.605573 77.263782 36.605573 77.263782 
C 36.605573 77.263782 36.605573 77.263782 36.605573 77.263782 
C 36.605573 77.263782 36.605573 77.263782 36.605573 77.263782 
C 36.605573 77.263782 36.605573 77.263782 36.605573 77.263782 
z
" clip-path="url(#pb5b44126ec)" style="stroke: #000000"/>
    <path d="M 51.168461 178.848844 
C 51.668365 178.848844 52.147861 178.65023 52.501347 178.296745 
C 52.854832 177.94326 53.053446 177.463763 53.053446 176.963859 
C 53.053446 176.463956 52.854832 175.984459 52.501347 175.630974 
C 52.147861 175.277489 51.668365 175.078875 51.168461 175.078875 
C 50.668557 175.078875 50.189061 175.277489 49.835576 175.630974 
C 49.48209 175.984459 49.283476 176.463956 49.283476 176.963859 
C 49.283476 177.463763 49.48209 177.94326 49.835576 178.296745 
C 50.189061 178.65023 50.668557 178.848844 51.168461 178.848844 
z
" clip-path="url(#pb5b44126ec)" style="stroke: #000000"/>
    <path d="M 50.467798 164.184437 
C 50.467798 164.184437 50.467798 164.184437 50.467798 164.184437 
C 50.467798 164.184437 50.467798 164.184437 50.467798 164.184437 
C 50.467798 164.184437 50.467798 164.184437 50.467798 164.184437 
C 50.467798 164.184437 50.467798 164.184437 50.467798 164.184437 
C 50.467798 164.184437 50.467798 164.184437 50.467798 164.184437 
C 50.467798 164.184437 50.467798 164.184437 50.467798 164.184437 
C 50.467798 164.184437 50.467798 164.184437 50.467798 164.184437 
C 50.467798 164.184437 50.467798 164.184437 50.467798 164.184437 
z
" clip-path="url(#pb5b44126ec)" style="stroke: #000000"/>
    <path d="M 44.461608 157.65508 
C 45.054621 157.65508 45.623424 157.419473 46.042747 157.000151 
C 46.46207 156.580828 46.697676 156.012024 46.697676 155.419012 
C 46.697676 154.826 46.46207 154.257196 46.042747 153.837873 
C 45.623424 153.41855 45.054621 153.182944 44.461608 153.182944 
C 43.868596 153.182944 43.299792 153.41855 42.88047 153.837873 
C 42.461147 154.257196 42.22554 154.826 42.22554 155.419012 
C 42.22554 156.012024 42.461147 156.580828 42.88047 157.000151 
C 43.299792 157.419473 43.868596 157.65508 44.461608 157.65508 
z
" clip-path="url(#pb5b44126ec)" style="stroke: #000000"/>
    <path d="M 44.717537 144.917201 
C 44.717537 144.917201 44.717537 144.917201 44.717537 144.917201 
C 44.717537 144.917201 44.717537 144.917201 44.717537 144.917201 
C 44.717537 144.917201 44.717537 144.917201 44.717537 144.917201 
C 44.717537 144.917201 44.717537 144.917201 44.717537 144.917201 
C 44.717537 144.917201 44.717537 144.917201 44.717537 144.917201 
C 44.717537 144.917201 44.717537 144.917201 44.717537 144.917201 
C 44.717537 144.917201 44.717537 144.917201 44.717537 144.917201 
C 44.717537 144.917201 44.717537 144.917201 44.717537 144.917201 
z
" clip-path="url(#pb5b44126ec)" style="stroke: #000000"/>
    <path d="M 43.708437 131.224981 
C 43.708437 131.224981 43.708437 131.224981 43.708437 131.224981 
C 43.708437 131.224981 43.708437 131.224981 43.708437 131.224981 
C 43.708437 131.224981 43.708437 131.224981 43.708437 131.224981 
C 43.708437 131.224981 43.708437 131.224981 43.708437 131.224981 
C 43.708437 131.224981 43.708437 131.224981 43.708437 131.224981 
C 43.708437 131.224981 43.708437 131.224981 43.708437 131.224981 
C 43.708437 131.224981 43.708437 131.224981 43.708437 131.224981 
C 43.708437 131.224981 43.708437 131.224981 43.708437 131.224981 
z
" clip-path="url(#pb5b44126ec)" style="stroke: #000000"/>
    <path d="M 41.183339 121.887563 
C 41.776351 121.887563 42.345155 121.651957 42.764478 121.232634 
C 43.183801 120.813311 43.419407 120.244507 43.419407 119.651495 
C 43.419407 119.058483 43.183801 118.489679 42.764478 118.070356 
C 42.345155 117.651033 41.776351 117.415427 41.183339 117.415427 
C 40.590327 117.415427 40.021523 117.651033 39.6022 118.070356 
C 39.182877 118.489679 38.947271 119.058483 38.947271 119.651495 
C 38.947271 120.244507 39.182877 120.813311 39.6022 121.232634 
C 40.021523 121.651957 40.590327 121.887563 41.183339 121.887563 
z
" clip-path="url(#pb5b44126ec)" style="stroke: #000000"/>
    <path d="M 34.815107 114.848254 
C 35.408489 114.848254 35.977648 114.6125 36.397233 114.192915 
C 36.816817 113.773331 37.052571 113.204172 37.052571 112.610789 
C 37.052571 112.017407 36.816817 111.448248 36.397233 111.028663 
C 35.977648 110.609078 35.408489 110.373325 34.815107 110.373325 
C 34.221724 110.373325 33.652565 110.609078 33.23298 111.028663 
C 32.813396 111.448248 32.577642 112.017407 32.577642 112.610789 
C 32.577642 113.204172 32.813396 113.773331 33.23298 114.192915 
C 33.652565 114.6125 34.221724 114.848254 34.815107 114.848254 
z
" clip-path="url(#pb5b44126ec)" style="stroke: #000000"/>
    <path d="M 47.437436 176.951145 
C 47.942217 176.951145 48.426392 176.750594 48.783327 176.393659 
C 49.140261 176.036725 49.340813 175.55255 49.340813 175.047768 
C 49.340813 174.542987 49.140261 174.058812 48.783327 173.701878 
C 48.426392 173.344943 47.942217 173.144391 47.437436 173.144391 
C 46.932654 173.144391 46.448479 173.344943 46.091545 173.701878 
C 45.734611 174.058812 45.534059 174.542987 45.534059 175.047768 
C 45.534059 175.55255 45.734611 176.036725 46.091545 176.393659 
C 46.448479 176.750594 46.932654 176.951145 47.437436 176.951145 
z
" clip-path="url(#pb5b44126ec)" style="stroke: #000000"/>
    <path d="M 41.331058 168.738441 
C 41.331058 168.738441 41.331058 168.738441 41.331058 168.738441 
C 41.331058 168.738441 41.331058 168.738441 41.331058 168.738441 
C 41.331058 168.738441 41.331058 168.738441 41.331058 168.738441 
C 41.331058 168.738441 41.331058 168.738441 41.331058 168.738441 
C 41.331058 168.738441 41.331058 168.738441 41.331058 168.738441 
C 41.331058 168.738441 41.331058 168.738441 41.331058 168.738441 
C 41.331058 168.738441 41.331058 168.738441 41.331058 168.738441 
C 41.331058 168.738441 41.331058 168.738441 41.331058 168.738441 
z
" clip-path="url(#pb5b44126ec)" style="stroke: #000000"/>
    <path d="M 37.857705 158.061862 
C 38.448855 158.061862 39.015873 157.826995 39.433879 157.408989 
C 39.851886 156.990983 40.086752 156.423965 40.086752 155.832815 
C 40.086752 155.241664 39.851886 154.674647 39.433879 154.25664 
C 39.015873 153.838634 38.448855 153.603767 37.857705 153.603767 
C 37.266555 153.603767 36.699537 153.838634 36.28153 154.25664 
C 35.863524 154.674647 35.628658 155.241664 35.628658 155.832815 
C 35.628658 156.423965 35.863524 156.990983 36.28153 157.408989 
C 36.699537 157.826995 37.266555 158.061862 37.857705 158.061862 
z
" clip-path="url(#pb5b44126ec)" style="stroke: #000000"/>
    <path d="M 31.522453 146.792598 
C 32.115466 146.792598 32.684269 146.556992 33.103592 146.137669 
C 33.522915 145.718346 33.758521 145.149542 33.758521 144.55653 
C 33.758521 143.963518 33.522915 143.394714 33.103592 142.975391 
C 32.684269 142.556068 32.115466 142.320462 31.522453 142.320462 
C 30.929441 142.320462 30.360638 142.556068 29.941315 142.975391 
C 29.521992 143.394714 29.286385 143.963518 29.286385 144.55653 
C 29.286385 145.149542 29.521992 145.718346 29.941315 146.137669 
C 30.360638 146.556992 30.929441 146.792598 31.522453 146.792598 
z
" clip-path="url(#pb5b44126ec)" style="stroke: #000000"/>
    <path d="M 26.870115 134.328761 
C 26.870115 134.328761 26.870115 134.328761 26.870115 134.328761 
C 26.870115 134.328761 26.870115 134.328761 26.870115 134.328761 
C 26.870115 134.328761 26.870115 134.328761 26.870115 134.328761 
C 26.870115 134.328761 26.870115 134.328761 26.870115 134.328761 
C 26.870115 134.328761 26.870115 134.328761 26.870115 134.328761 
C 26.870115 134.328761 26.870115 134.328761 26.870115 134.328761 
C 26.870115 134.328761 26.870115 134.328761 26.870115 134.328761 
C 26.870115 134.328761 26.870115 134.328761 26.870115 134.328761 
z
" clip-path="url(#pb5b44126ec)" style="stroke: #000000"/>
   </g>
   <g id="matplotlib.axis_1">
    <g id="xtick_1">
     <g id="line2d_1">
      <defs>
       <path id="m1a1fd28f4a" d="M 0 0 
L 0 3.5 
" style="stroke: #000000; stroke-width: 0.8"/>
      </defs>
      <g>
       <use xlink:href="#m1a1fd28f4a" x="18" y="189" style="stroke: #000000; stroke-width: 0.8"/>
      </g>
     </g>
     <g id="text_1">
      <!-- 10 -->
      <g transform="translate(7.447656 203.598437)scale(0.1 -0.1)">
       <defs>
        <path id="DejaVuSans-2212" d="M 678 2272 
L 4684 2272 
L 4684 1741 
L 678 1741 
L 678 2272 
z
" transform="scale(0.015625)"/>
        <path id="DejaVuSans-31" d="M 794 531 
L 1825 531 
L 1825 4091 
L 703 3866 
L 703 4441 
L 1819 4666 
L 2450 4666 
L 2450 531 
L 3481 531 
L 3481 0 
L 794 0 
L 794 531 
z
" transform="scale(0.015625)"/>
        <path id="DejaVuSans-30" d="M 2034 4250 
Q 1547 4250 1301 3770 
Q 1056 3291 1056 2328 
Q 1056 1369 1301 889 
Q 1547 409 2034 409 
Q 2525 409 2770 889 
Q 3016 1369 3016 2328 
Q 3016 3291 2770 3770 
Q 2525 4250 2034 4250 
z
M 2034 4750 
Q 2819 4750 3233 4129 
Q 3647 3509 3647 2328 
Q 3647 1150 3233 529 
Q 2819 -91 2034 -91 
Q 1250 -91 836 529 
Q 422 1150 422 2328 
Q 422 3509 836 4129 
Q 1250 4750 2034 4750 
z
" transform="scale(0.015625)"/>
       </defs>
       <use xlink:href="#DejaVuSans-2212"/>
       <use xlink:href="#DejaVuSans-31" x="83.789062"/>
       <use xlink:href="#DejaVuSans-30" x="147.412109"/>
      </g>
     </g>
    </g>
    <g id="xtick_2">
     <g id="line2d_2">
      <g>
       <use xlink:href="#m1a1fd28f4a" x="73.8" y="189" style="stroke: #000000; stroke-width: 0.8"/>
      </g>
     </g>
     <g id="text_2">
      <!-- 0 -->
      <g transform="translate(70.61875 203.598437)scale(0.1 -0.1)">
       <use xlink:href="#DejaVuSans-30"/>
      </g>
     </g>
    </g>
    <g id="xtick_3">
     <g id="line2d_3">
      <g>
       <use xlink:href="#m1a1fd28f4a" x="129.6" y="189" style="stroke: #000000; stroke-width: 0.8"/>
      </g>
     </g>
     <g id="text_3">
      <!-- 10 -->
      <g transform="translate(123.2375 203.598437)scale(0.1 -0.1)">
       <use xlink:href="#DejaVuSans-31"/>
       <use xlink:href="#DejaVuSans-30" x="63.623047"/>
      </g>
     </g>
    </g>
   </g>
   <g id="matplotlib.axis_2">
    <g id="ytick_1">
     <g id="line2d_4">
      <defs>
       <path id="md89bfde453" d="M 0 0 
L -3.5 0 
" style="stroke: #000000; stroke-width: 0.8"/>
      </defs>
      <g>
       <use xlink:href="#md89bfde453" x="18" y="189" style="stroke: #000000; stroke-width: 0.8"/>
      </g>
     </g>
     <g id="text_4">
      <!-- 15 -->
      <g transform="translate(-10.104688 192.799219)scale(0.1 -0.1)">
       <defs>
        <path id="DejaVuSans-35" d="M 691 4666 
L 3169 4666 
L 3169 4134 
L 1269 4134 
L 1269 2991 
Q 1406 3038 1543 3061 
Q 1681 3084 1819 3084 
Q 2600 3084 3056 2656 
Q 3513 2228 3513 1497 
Q 3513 744 3044 326 
Q 2575 -91 1722 -91 
Q 1428 -91 1123 -41 
Q 819 9 494 109 
L 494 744 
Q 775 591 1075 516 
Q 1375 441 1709 441 
Q 2250 441 2565 725 
Q 2881 1009 2881 1497 
Q 2881 1984 2565 2268 
Q 2250 2553 1709 2553 
Q 1456 2553 1204 2497 
Q 953 2441 691 2322 
L 691 4666 
z
" transform="scale(0.015625)"/>
       </defs>
       <use xlink:href="#DejaVuSans-2212"/>
       <use xlink:href="#DejaVuSans-31" x="83.789062"/>
       <use xlink:href="#DejaVuSans-35" x="147.412109"/>
      </g>
     </g>
    </g>
    <g id="ytick_2">
     <g id="line2d_5">
      <g>
       <use xlink:href="#md89bfde453" x="18" y="161.82" style="stroke: #000000; stroke-width: 0.8"/>
      </g>
     </g>
     <g id="text_5">
      <!-- 10 -->
      <g transform="translate(-10.104688 165.619219)scale(0.1 -0.1)">
       <use xlink:href="#DejaVuSans-2212"/>
       <use xlink:href="#DejaVuSans-31" x="83.789062"/>
       <use xlink:href="#DejaVuSans-30" x="147.412109"/>
      </g>
     </g>
    </g>
    <g id="ytick_3">
     <g id="line2d_6">
      <g>
       <use xlink:href="#md89bfde453" x="18" y="134.64" style="stroke: #000000; stroke-width: 0.8"/>
      </g>
     </g>
     <g id="text_6">
      <!-- 5 -->
      <g transform="translate(-3.742188 138.439219)scale(0.1 -0.1)">
       <use xlink:href="#DejaVuSans-2212"/>
       <use xlink:href="#DejaVuSans-35" x="83.789062"/>
      </g>
     </g>
    </g>
    <g id="ytick_4">
     <g id="line2d_7">
      <g>
       <use xlink:href="#md89bfde453" x="18" y="107.46" style="stroke: #000000; stroke-width: 0.8"/>
      </g>
     </g>
     <g id="text_7">
      <!-- 0 -->
      <g transform="translate(4.6375 111.259219)scale(0.1 -0.1)">
       <use xlink:href="#DejaVuSans-30"/>
      </g>
     </g>
    </g>
    <g id="ytick_5">
     <g id="line2d_8">
      <g>
       <use xlink:href="#md89bfde453" x="18" y="80.28" style="stroke: #000000; stroke-width: 0.8"/>
      </g>
     </g>
     <g id="text_8">
      <!-- 5 -->
      <g transform="translate(4.6375 84.079219)scale(0.1 -0.1)">
       <use xlink:href="#DejaVuSans-35"/>
      </g>
     </g>
    </g>
    <g id="ytick_6">
     <g id="line2d_9">
      <g>
       <use xlink:href="#md89bfde453" x="18" y="53.1" style="stroke: #000000; stroke-width: 0.8"/>
      </g>
     </g>
     <g id="text_9">
      <!-- 10 -->
      <g transform="translate(-1.725 56.899219)scale(0.1 -0.1)">
       <use xlink:href="#DejaVuSans-31"/>
       <use xlink:href="#DejaVuSans-30" x="63.623047"/>
      </g>
     </g>
    </g>
    <g id="ytick_7">
     <g id="line2d_10">
      <g>
       <use xlink:href="#md89bfde453" x="18" y="25.92" style="stroke: #000000; stroke-width: 0.8"/>
      </g>
     </g>
     <g id="text_10">
      <!-- 15 -->
      <g transform="translate(-1.725 29.719219)scale(0.1 -0.1)">
       <use xlink:href="#DejaVuSans-31"/>
       <use xlink:href="#DejaVuSans-35" x="63.623047"/>
      </g>
     </g>
    </g>
   </g>
   <g id="patch_3">
    <path d="M 18 189 
L 18 25.92 
" style="fill: none; stroke: #000000; stroke-width: 0.8; stroke-linejoin: miter; stroke-linecap: square"/>
   </g>
   <g id="patch_4">
    <path d="M 129.6 189 
L 129.6 25.92 
" style="fill: none; stroke: #000000; stroke-width: 0.8; stroke-linejoin: miter; stroke-linecap: square"/>
   </g>
   <g id="patch_5">
    <path d="M 18 189 
L 129.6 189 
" style="fill: none; stroke: #000000; stroke-width: 0.8; stroke-linejoin: miter; stroke-linecap: square"/>
   </g>
   <g id="patch_6">
    <path d="M 18 25.92 
L 129.6 25.92 
" style="fill: none; stroke: #000000; stroke-width: 0.8; stroke-linejoin: miter; stroke-linecap: square"/>
   </g>
  </g>
 </g>
 <defs>
  <clipPath id="pb5b44126ec">
   <rect x="18" y="25.92" width="111.6" height="163.08"/>
  </clipPath>
 </defs>
</svg>
