<?xml version="1.0" encoding="utf-8" standalone="no"?>
<!DOCTYPE svg PUBLIC "-//W3C//DTD SVG 1.1//EN"
  "http://www.w3.org/Graphics/SVG/1.1/DTD/svg11.dtd">
<svg xmlns:xlink="http://www.w3.org/1999/xlink" width="144pt" height="216pt" viewBox="0 0 144 216" xmlns="http://www.w3.org/2000/svg" version="1.1">
 <metadata>
  <rdf:RDF xmlns:dc="http://purl.org/dc/elements/1.1/" xmlns:cc="http://creativecommons.org/ns#" xmlns:rdf="http://www.w3.org/1999/02/22-rdf-syntax-ns#">
   <cc:Work>
    <dc:type rdf:resource="http://purl.org/dc/dcmitype/StillImage"/>
    <dc:date>2022-06-23T14:44:48.439621</dc:date>
    <dc:format>image/svg+xml</dc:format>
    <dc:creator>
     <cc:Agent>
      <dc:title>Matplotlib v3.5.1, https://matplotlib.org/</dc:title>
     </cc:Agent>
    </dc:creator>
   </cc:Work>
  </rdf:RDF>
 </metadata>
 <defs>
  <style type="text/css">*{stroke-linejoin: round; stroke-linecap: butt}</style>
 </defs>
 <g id="figure_1">
  <g id="patch_1">
   <path d="M 0 216 
L 144 216 
L 144 0 
L 0 0 
L 0 216 
z
" style="fill: none"/>
  </g>
  <g id="axes_1">
   <g id="patch_2">
    <path d="M 18 189 
L 129.6 189 
L 129.6 25.92 
L 18 25.92 
z
" style="fill: #ffffff"/>
   </g>
   <g id="PathCollection_1">
    <defs>
     <path id="m0699dd274d" d="M 0 2.738613 
C 0.726289 2.738613 1.422928 2.450055 1.936492 1.936492 
C 2.450055 1.422928 2.738613 0.726289 2.738613 0 
C 2.738613 -0.726289 2.450055 -1.422928 1.936492 -1.936492 
C 1.422928 -2.450055 0.726289 -2.738613 0 -2.738613 
C -0.726289 -2.738613 -1.422928 -2.450055 -1.936492 -1.936492 
C -2.450055 -1.422928 -2.738613 -0.726289 -2.738613 0 
C -2.738613 0.726289 -2.450055 1.422928 -1.936492 1.936492 
C -1.422928 2.450055 -0.726289 2.738613 0 2.738613 
z
" style="stroke: #ff0000; stroke-width: 1.75"/>
    </defs>
    <g clip-path="url(#p63b0ff2322)">
     <use xlink:href="#m0699dd274d" x="80.775" y="83.92143" style="fill: #ff0000; stroke: #ff0000; stroke-width: 1.75"/>
     <use xlink:href="#m0699dd274d" x="59.85" y="95.690715" style="fill: #ff0000; stroke: #ff0000; stroke-width: 1.75"/>
     <use xlink:href="#m0699dd274d" x="66.825" y="107.46" style="fill: #ff0000; stroke: #ff0000; stroke-width: 1.75"/>
     <use xlink:href="#m0699dd274d" x="80.775" y="107.46" style="fill: #ff0000; stroke: #ff0000; stroke-width: 1.75"/>
     <use xlink:href="#m0699dd274d" x="94.725" y="107.46" style="fill: #ff0000; stroke: #ff0000; stroke-width: 1.75"/>
     <use xlink:href="#m0699dd274d" x="59.85" y="119.229285" style="fill: #ff0000; stroke: #ff0000; stroke-width: 1.75"/>
     <use xlink:href="#m0699dd274d" x="80.775" y="130.99857" style="fill: #ff0000; stroke: #ff0000; stroke-width: 1.75"/>
    </g>
   </g>
   <g id="PathCollection_2">
    <defs>
     <path id="C0_0_6e6f35d3db" d="M 0 2.738613 
C 0.726289 2.738613 1.422928 2.450055 1.936492 1.936492 
C 2.450055 1.422928 2.738613 0.726289 2.738613 -0 
C 2.738613 -0.726289 2.450055 -1.422928 1.936492 -1.936492 
C 1.422928 -2.450055 0.726289 -2.738613 0 -2.738613 
C -0.726289 -2.738613 -1.422928 -2.450055 -1.936492 -1.936492 
C -2.450055 -1.422928 -2.738613 -0.726289 -2.738613 0 
C -2.738613 0.726289 -2.450055 1.422928 -1.936492 1.936492 
C -1.422928 2.450055 -0.726289 2.738613 0 2.738613 
z
"/>
    </defs>
    <g clip-path="url(#p63b0ff2322)">
     <use xlink:href="#C0_0_6e6f35d3db" x="66.825" y="83.92143" style="fill: none; stroke: #ff0000; stroke-width: 1.75"/>
    </g>
    <g clip-path="url(#p63b0ff2322)">
     <use xlink:href="#C0_0_6e6f35d3db" x="73.8" y="95.690715" style="fill: none; stroke: #ff0000; stroke-width: 1.75"/>
    </g>
    <g clip-path="url(#p63b0ff2322)">
     <use xlink:href="#C0_0_6e6f35d3db" x="87.75" y="95.690715" style="fill: none; stroke: #ff0000; stroke-width: 1.75"/>
    </g>
    <g clip-path="url(#p63b0ff2322)">
     <use xlink:href="#C0_0_6e6f35d3db" x="52.875" y="107.46" style="fill: none; stroke: #ff0000; stroke-width: 1.75"/>
    </g>
    <g clip-path="url(#p63b0ff2322)">
     <use xlink:href="#C0_0_6e6f35d3db" x="73.8" y="119.229285" style="fill: none; stroke: #ff0000; stroke-width: 1.75"/>
    </g>
    <g clip-path="url(#p63b0ff2322)">
     <use xlink:href="#C0_0_6e6f35d3db" x="87.75" y="119.229285" style="fill: none; stroke: #ff0000; stroke-width: 1.75"/>
    </g>
    <g clip-path="url(#p63b0ff2322)">
     <use xlink:href="#C0_0_6e6f35d3db" x="66.825" y="130.99857" style="fill: none; stroke: #ff0000; stroke-width: 1.75"/>
    </g>
   </g>
   <g id="PathCollection_3">
    <path d="M 97.161736 111.895191 
C 97.754005 111.895191 98.322097 111.65988 98.740894 111.241082 
C 99.159692 110.822284 99.395003 110.254193 99.395003 109.661923 
C 99.395003 109.069654 99.159692 108.501563 98.740894 108.082765 
C 98.322097 107.663967 97.754005 107.428656 97.161736 107.428656 
C 96.569466 107.428656 96.001375 107.663967 95.582577 108.082765 
C 95.163779 108.501563 94.928468 109.069654 94.928468 109.661923 
C 94.928468 110.254193 95.163779 110.822284 95.582577 111.241082 
C 96.001375 111.65988 96.569466 111.895191 97.161736 111.895191 
z
" clip-path="url(#p63b0ff2322)" style="stroke: #000000"/>
    <path d="M 94.105186 109.930936 
C 94.539419 109.930936 94.955926 109.758414 95.262975 109.451364 
C 95.570024 109.144315 95.742547 108.727808 95.742547 108.293575 
C 95.742547 107.859342 95.570024 107.442835 95.262975 107.135786 
C 94.955926 106.828737 94.539419 106.656214 94.105186 106.656214 
C 93.670953 106.656214 93.254446 106.828737 92.947397 107.135786 
C 92.640348 107.442835 92.467825 107.859342 92.467825 108.293575 
C 92.467825 108.727808 92.640348 109.144315 92.947397 109.451364 
C 93.254446 109.758414 93.670953 109.930936 94.105186 109.930936 
z
" clip-path="url(#p63b0ff2322)" style="stroke: #000000"/>
    <path d="M 90.081174 98.960064 
C 90.579836 98.960064 91.058141 98.761943 91.410748 98.409336 
C 91.763355 98.056729 91.961476 97.578424 91.961476 97.079762 
C 91.961476 96.5811 91.763355 96.102795 91.410748 95.750188 
C 91.058141 95.397581 90.579836 95.199461 90.081174 95.199461 
C 89.582513 95.199461 89.104207 95.397581 88.7516 95.750188 
C 88.398993 96.102795 88.200873 96.5811 88.200873 97.079762 
C 88.200873 97.578424 88.398993 98.056729 88.7516 98.409336 
C 89.104207 98.761943 89.582513 98.960064 90.081174 98.960064 
z
" clip-path="url(#p63b0ff2322)" style="stroke: #000000"/>
    <path d="M 85.660089 86.737055 
C 85.959516 86.737055 86.24672 86.618091 86.458448 86.406364 
C 86.670175 86.194637 86.789139 85.907433 86.789139 85.608005 
C 86.789139 85.308577 86.670175 85.021373 86.458448 84.809646 
C 86.24672 84.597918 85.959516 84.478954 85.660089 84.478954 
C 85.360661 84.478954 85.073457 84.597918 84.861729 84.809646 
C 84.650002 85.021373 84.531038 85.308577 84.531038 85.608005 
C 84.531038 85.907433 84.650002 86.194637 84.861729 86.406364 
C 85.073457 86.618091 85.360661 86.737055 85.660089 86.737055 
z
" clip-path="url(#p63b0ff2322)" style="stroke: #000000"/>
    <path d="M 92.390253 120.042081 
C 92.686759 120.042081 92.971161 119.924278 93.180822 119.714617 
C 93.390484 119.504955 93.508287 119.220553 93.508287 118.924047 
C 93.508287 118.627541 93.390484 118.343139 93.180822 118.133478 
C 92.971161 117.923816 92.686759 117.806013 92.390253 117.806013 
C 92.093747 117.806013 91.809345 117.923816 91.599684 118.133478 
C 91.390022 118.343139 91.272219 118.627541 91.272219 118.924047 
C 91.272219 119.220553 91.390022 119.504955 91.599684 119.714617 
C 91.809345 119.924278 92.093747 120.042081 92.390253 120.042081 
z
" clip-path="url(#p63b0ff2322)" style="stroke: #000000"/>
    <path d="M 93.592643 113.549168 
C 93.725245 113.549168 93.852433 113.496484 93.946196 113.402721 
C 94.03996 113.308958 94.092643 113.181769 94.092643 113.049168 
C 94.092643 112.916566 94.03996 112.789378 93.946196 112.695614 
C 93.852433 112.601851 93.725245 112.549168 93.592643 112.549168 
C 93.460042 112.549168 93.332853 112.601851 93.23909 112.695614 
C 93.145326 112.789378 93.092643 112.916566 93.092643 113.049168 
C 93.092643 113.181769 93.145326 113.308958 93.23909 113.402721 
C 93.332853 113.496484 93.460042 113.549168 93.592643 113.549168 
z
" clip-path="url(#p63b0ff2322)" style="stroke: #000000"/>
    <path d="M 88.559372 102.588476 
C 88.733886 102.588476 88.901275 102.519141 89.024674 102.395742 
C 89.148074 102.272342 89.217409 102.104953 89.217409 101.930439 
C 89.217409 101.755926 89.148074 101.588537 89.024674 101.465137 
C 88.901275 101.341737 88.733886 101.272402 88.559372 101.272402 
C 88.384859 101.272402 88.217469 101.341737 88.09407 101.465137 
C 87.97067 101.588537 87.901335 101.755926 87.901335 101.930439 
C 87.901335 102.104953 87.97067 102.272342 88.09407 102.395742 
C 88.217469 102.519141 88.384859 102.588476 88.559372 102.588476 
z
" clip-path="url(#p63b0ff2322)" style="stroke: #000000"/>
    <path d="M 83.9099 88.868954 
C 84.399596 88.868954 84.869302 88.674396 85.215569 88.328128 
C 85.561837 87.981861 85.756395 87.512155 85.756395 87.022459 
C 85.756395 86.532762 85.561837 86.063057 85.215569 85.716789 
C 84.869302 85.370522 84.399596 85.175963 83.9099 85.175963 
C 83.420203 85.175963 82.950498 85.370522 82.60423 85.716789 
C 82.257963 86.063057 82.063404 86.532762 82.063404 87.022459 
C 82.063404 87.512155 82.257963 87.981861 82.60423 88.328128 
C 82.950498 88.674396 83.420203 88.868954 83.9099 88.868954 
z
" clip-path="url(#p63b0ff2322)" style="stroke: #000000"/>
    <path d="M 80.249141 84.876599 
C 80.650579 84.876599 81.03563 84.717106 81.319489 84.433247 
C 81.603349 84.149387 81.762842 83.764337 81.762842 83.362899 
C 81.762842 82.961461 81.603349 82.576411 81.319489 82.292551 
C 81.03563 82.008692 80.650579 81.849199 80.249141 81.849199 
C 79.847704 81.849199 79.462653 82.008692 79.178794 82.292551 
C 78.894934 82.576411 78.735441 82.961461 78.735441 83.362899 
C 78.735441 83.764337 78.894934 84.149387 79.178794 84.433247 
C 79.462653 84.717106 79.847704 84.876599 80.249141 84.876599 
z
" clip-path="url(#p63b0ff2322)" style="stroke: #000000"/>
    <path d="M 88.539853 120.325153 
C 88.816698 120.325153 89.082242 120.215161 89.278001 120.019402 
C 89.47376 119.823643 89.583752 119.558099 89.583752 119.281254 
C 89.583752 119.004409 89.47376 118.738865 89.278001 118.543106 
C 89.082242 118.347347 88.816698 118.237355 88.539853 118.237355 
C 88.263008 118.237355 87.997464 118.347347 87.801705 118.543106 
C 87.605946 118.738865 87.495954 119.004409 87.495954 119.281254 
C 87.495954 119.558099 87.605946 119.823643 87.801705 120.019402 
C 87.997464 120.215161 88.263008 120.325153 88.539853 120.325153 
z
" clip-path="url(#p63b0ff2322)" style="stroke: #000000"/>
    <path d="M 88.272579 117.074197 
C 88.727884 117.074197 89.164602 116.893303 89.486552 116.571354 
C 89.808501 116.249405 89.989395 115.812686 89.989395 115.357382 
C 89.989395 114.902077 89.808501 114.465359 89.486552 114.143409 
C 89.164602 113.82146 88.727884 113.640566 88.272579 113.640566 
C 87.817275 113.640566 87.380557 113.82146 87.058607 114.143409 
C 86.736658 114.465359 86.555764 114.902077 86.555764 115.357382 
C 86.555764 115.812686 86.736658 116.249405 87.058607 116.571354 
C 87.380557 116.893303 87.817275 117.074197 88.272579 117.074197 
z
" clip-path="url(#p63b0ff2322)" style="stroke: #000000"/>
    <path d="M 83.880597 107.965877 
C 84.471373 107.965877 85.038032 107.731159 85.455773 107.313418 
C 85.873515 106.895676 86.108232 106.329018 86.108232 105.738242 
C 86.108232 105.147466 85.873515 104.580808 85.455773 104.163066 
C 85.038032 103.745325 84.471373 103.510607 83.880597 103.510607 
C 83.289821 103.510607 82.723163 103.745325 82.305421 104.163066 
C 81.88768 104.580808 81.652962 105.147466 81.652962 105.738242 
C 81.652962 106.329018 81.88768 106.895676 82.305421 107.313418 
C 82.723163 107.731159 83.289821 107.965877 83.880597 107.965877 
z
" clip-path="url(#p63b0ff2322)" style="stroke: #000000"/>
    <path d="M 79.383954 92.23781 
C 79.591487 92.23781 79.790547 92.155357 79.937295 92.008609 
C 80.084043 91.861861 80.166496 91.662801 80.166496 91.455268 
C 80.166496 91.247735 80.084043 91.048675 79.937295 90.901927 
C 79.790547 90.755179 79.591487 90.672726 79.383954 90.672726 
C 79.176421 90.672726 78.977361 90.755179 78.830613 90.901927 
C 78.683865 91.048675 78.601412 91.247735 78.601412 91.455268 
C 78.601412 91.662801 78.683865 91.861861 78.830613 92.008609 
C 78.977361 92.155357 79.176421 92.23781 79.383954 92.23781 
z
" clip-path="url(#p63b0ff2322)" style="stroke: #000000"/>
    <path d="M 85.970947 120.036262 
C 86.424605 120.036262 86.859744 119.856022 87.180528 119.535237 
C 87.501313 119.214452 87.681553 118.779313 87.681553 118.325655 
C 87.681553 117.871997 87.501313 117.436859 87.180528 117.116074 
C 86.859744 116.795289 86.424605 116.615049 85.970947 116.615049 
C 85.517289 116.615049 85.08215 116.795289 84.761365 117.116074 
C 84.440581 117.436859 84.26034 117.871997 84.26034 118.325655 
C 84.26034 118.779313 84.440581 119.214452 84.761365 119.535237 
C 85.08215 119.856022 85.517289 120.036262 85.970947 120.036262 
z
" clip-path="url(#p63b0ff2322)" style="stroke: #000000"/>
    <path d="M 83.676369 115.922 
C 83.850883 115.922 84.018272 115.852665 84.141672 115.729265 
C 84.265071 115.605866 84.334406 115.438476 84.334406 115.263963 
C 84.334406 115.08945 84.265071 114.92206 84.141672 114.798661 
C 84.018272 114.675261 83.850883 114.605926 83.676369 114.605926 
C 83.501856 114.605926 83.334467 114.675261 83.211067 114.798661 
C 83.087667 114.92206 83.018332 115.08945 83.018332 115.263963 
C 83.018332 115.438476 83.087667 115.605866 83.211067 115.729265 
C 83.334467 115.852665 83.501856 115.922 83.676369 115.922 
z
" clip-path="url(#p63b0ff2322)" style="stroke: #000000"/>
    <path d="M 80.210445 109.153313 
C 80.694107 109.153313 81.158024 108.961152 81.500025 108.619151 
C 81.842026 108.27715 82.034186 107.813233 82.034186 107.329571 
C 82.034186 106.845909 81.842026 106.381991 81.500025 106.039991 
C 81.158024 105.69799 80.694107 105.505829 80.210445 105.505829 
C 79.726783 105.505829 79.262865 105.69799 78.920865 106.039991 
C 78.578864 106.381991 78.386703 106.845909 78.386703 107.329571 
C 78.386703 107.813233 78.578864 108.27715 78.920865 108.619151 
C 79.262865 108.961152 79.726783 109.153313 80.210445 109.153313 
z
" clip-path="url(#p63b0ff2322)" style="stroke: #000000"/>
    <path d="M 75.139463 95.949477 
C 75.732475 95.949477 76.301279 95.713871 76.720602 95.294548 
C 77.139924 94.875225 77.375531 94.306421 77.375531 93.713409 
C 77.375531 93.120397 77.139924 92.551593 76.720602 92.13227 
C 76.301279 91.712947 75.732475 91.477341 75.139463 91.477341 
C 74.546451 91.477341 73.977647 91.712947 73.558324 92.13227 
C 73.139001 92.551593 72.903395 93.120397 72.903395 93.713409 
C 72.903395 94.306421 73.139001 94.875225 73.558324 95.294548 
C 73.977647 95.713871 74.546451 95.949477 75.139463 95.949477 
z
" clip-path="url(#p63b0ff2322)" style="stroke: #000000"/>
    <path d="M 84.045461 135.259183 
C 84.434378 135.259183 84.807418 135.104664 85.082423 134.829659 
C 85.357429 134.554653 85.511947 134.181613 85.511947 133.792697 
C 85.511947 133.40378 85.357429 133.03074 85.082423 132.755734 
C 84.807418 132.480729 84.434378 132.326211 84.045461 132.326211 
C 83.656545 132.326211 83.283505 132.480729 83.008499 132.755734 
C 82.733493 133.03074 82.578975 133.40378 82.578975 133.792697 
C 82.578975 134.181613 82.733493 134.554653 83.008499 134.829659 
C 83.283505 135.104664 83.656545 135.259183 84.045461 135.259183 
z
" clip-path="url(#p63b0ff2322)" style="stroke: #000000"/>
    <path d="M 83.563194 132.366783 
C 84.061232 132.366783 84.538938 132.16891 84.891103 131.816745 
C 85.243269 131.464579 85.441141 130.986873 85.441141 130.488836 
C 85.441141 129.990799 85.243269 129.513093 84.891103 129.160927 
C 84.538938 128.808762 84.061232 128.610889 83.563194 128.610889 
C 83.065157 128.610889 82.587451 128.808762 82.235286 129.160927 
C 81.88312 129.513093 81.685248 129.990799 81.685248 130.488836 
C 81.685248 130.986873 81.88312 131.464579 82.235286 131.816745 
C 82.587451 132.16891 83.065157 132.366783 83.563194 132.366783 
z
" clip-path="url(#p63b0ff2322)" style="stroke: #000000"/>
    <path d="M 79.517801 124.035769 
C 79.675491 124.035769 79.826745 123.973118 79.938249 123.861614 
C 80.049753 123.75011 80.112404 123.598857 80.112404 123.441166 
C 80.112404 123.283475 80.049753 123.132222 79.938249 123.020718 
C 79.826745 122.909214 79.675491 122.846562 79.517801 122.846562 
C 79.36011 122.846562 79.208857 122.909214 79.097353 123.020718 
C 78.985848 123.132222 78.923197 123.283475 78.923197 123.441166 
C 78.923197 123.598857 78.985848 123.75011 79.097353 123.861614 
C 79.208857 123.973118 79.36011 124.035769 79.517801 124.035769 
z
" clip-path="url(#p63b0ff2322)" style="stroke: #000000"/>
    <path d="M 75.045653 108.266202 
C 75.178254 108.266202 75.305442 108.213519 75.399206 108.119756 
C 75.492969 108.025992 75.545653 107.898804 75.545653 107.766202 
C 75.545653 107.633601 75.492969 107.506412 75.399206 107.412649 
C 75.305442 107.318885 75.178254 107.266202 75.045653 107.266202 
C 74.913051 107.266202 74.785863 107.318885 74.692099 107.412649 
C 74.598336 107.506412 74.545653 107.633601 74.545653 107.766202 
C 74.545653 107.898804 74.598336 108.025992 74.692099 108.119756 
C 74.785863 108.213519 74.913051 108.266202 75.045653 108.266202 
z
" clip-path="url(#p63b0ff2322)" style="stroke: #000000"/>
    <path d="M 74.809232 105.351338 
C 74.941834 105.351338 75.069022 105.298655 75.162786 105.204892 
C 75.256549 105.111128 75.309232 104.98394 75.309232 104.851338 
C 75.309232 104.718737 75.256549 104.591548 75.162786 104.497785 
C 75.069022 104.404022 74.941834 104.351338 74.809232 104.351338 
C 74.676631 104.351338 74.549443 104.404022 74.455679 104.497785 
C 74.361916 104.591548 74.309232 104.718737 74.309232 104.851338 
C 74.309232 104.98394 74.361916 105.111128 74.455679 105.204892 
C 74.549443 105.298655 74.676631 105.351338 74.809232 105.351338 
z
" clip-path="url(#p63b0ff2322)" style="stroke: #000000"/>
    <path d="M 74.634413 98.868861 
C 74.767014 98.868861 74.894203 98.816178 74.987966 98.722414 
C 75.081729 98.628651 75.134413 98.501463 75.134413 98.368861 
C 75.134413 98.236259 75.081729 98.109071 74.987966 98.015308 
C 74.894203 97.921544 74.767014 97.868861 74.634413 97.868861 
C 74.501811 97.868861 74.374623 97.921544 74.280859 98.015308 
C 74.187096 98.109071 74.134413 98.236259 74.134413 98.368861 
C 74.134413 98.501463 74.187096 98.628651 74.280859 98.722414 
C 74.374623 98.816178 74.501811 98.868861 74.634413 98.868861 
z
" clip-path="url(#p63b0ff2322)" style="stroke: #000000"/>
    <path d="M 72.099254 95.264341 
C 72.591562 95.264341 73.063773 95.068745 73.411887 94.72063 
C 73.760001 94.372516 73.955597 93.900305 73.955597 93.407997 
C 73.955597 92.915689 73.760001 92.443478 73.411887 92.095364 
C 73.063773 91.747249 72.591562 91.551653 72.099254 91.551653 
C 71.606946 91.551653 71.134735 91.747249 70.78662 92.095364 
C 70.438506 92.443478 70.24291 92.915689 70.24291 93.407997 
C 70.24291 93.900305 70.438506 94.372516 70.78662 94.72063 
C 71.134735 95.068745 71.606946 95.264341 72.099254 95.264341 
z
" clip-path="url(#p63b0ff2322)" style="stroke: #000000"/>
    <path d="M 67.590059 89.352735 
C 68.15946 89.352735 68.705616 89.12651 69.108244 88.723883 
C 69.510871 88.321255 69.737097 87.775099 69.737097 87.205697 
C 69.737097 86.636296 69.510871 86.09014 69.108244 85.687512 
C 68.705616 85.284885 68.15946 85.058659 67.590059 85.058659 
C 67.020657 85.058659 66.474501 85.284885 66.071873 85.687512 
C 65.669246 86.09014 65.443021 86.636296 65.443021 87.205697 
C 65.443021 87.775099 65.669246 88.321255 66.071873 88.723883 
C 66.474501 89.12651 67.020657 89.352735 67.590059 89.352735 
z
" clip-path="url(#p63b0ff2322)" style="stroke: #000000"/>
    <path d="M 65.948755 86.76515 
C 66.436464 86.76515 66.904264 86.571381 67.249127 86.226518 
C 67.59399 85.881655 67.787759 85.413855 67.787759 84.926146 
C 67.787759 84.438436 67.59399 83.970636 67.249127 83.625773 
C 66.904264 83.28091 66.436464 83.087141 65.948755 83.087141 
C 65.461045 83.087141 64.993245 83.28091 64.648382 83.625773 
C 64.303519 83.970636 64.10975 84.438436 64.10975 84.926146 
C 64.10975 85.413855 64.303519 85.881655 64.648382 86.226518 
C 64.993245 86.571381 65.461045 86.76515 65.948755 86.76515 
z
" clip-path="url(#p63b0ff2322)" style="stroke: #000000"/>
    <path d="M 80.700023 136.524249 
C 81.045356 136.524249 81.376592 136.387046 81.620779 136.142859 
C 81.864966 135.898672 82.002169 135.567436 82.002169 135.222103 
C 82.002169 134.87677 81.864966 134.545535 81.620779 134.301348 
C 81.376592 134.05716 81.045356 133.919958 80.700023 133.919958 
C 80.35469 133.919958 80.023455 134.05716 79.779267 134.301348 
C 79.53508 134.545535 79.397878 134.87677 79.397878 135.222103 
C 79.397878 135.567436 79.53508 135.898672 79.779267 136.142859 
C 80.023455 136.387046 80.35469 136.524249 80.700023 136.524249 
z
" clip-path="url(#p63b0ff2322)" style="stroke: #000000"/>
    <path d="M 80.414054 132.367638 
C 80.996405 132.367638 81.554982 132.136267 81.966766 131.724483 
C 82.37855 131.3127 82.60992 130.754122 82.60992 130.171772 
C 82.60992 129.589422 82.37855 129.030844 81.966766 128.619061 
C 81.554982 128.207277 80.996405 127.975906 80.414054 127.975906 
C 79.831704 127.975906 79.273127 128.207277 78.861343 128.619061 
C 78.449559 129.030844 78.218189 129.589422 78.218189 130.171772 
C 78.218189 130.754122 78.449559 131.3127 78.861343 131.724483 
C 79.273127 132.136267 79.831704 132.367638 80.414054 132.367638 
z
" clip-path="url(#p63b0ff2322)" style="stroke: #000000"/>
    <path d="M 77.202028 127.977178 
C 77.359719 127.977178 77.510972 127.914527 77.622476 127.803023 
C 77.73398 127.691519 77.796631 127.540265 77.796631 127.382575 
C 77.796631 127.224884 77.73398 127.073631 77.622476 126.962127 
C 77.510972 126.850622 77.359719 126.787971 77.202028 126.787971 
C 77.044337 126.787971 76.893084 126.850622 76.78158 126.962127 
C 76.670075 127.073631 76.607424 127.224884 76.607424 127.382575 
C 76.607424 127.540265 76.670075 127.691519 76.78158 127.803023 
C 76.893084 127.914527 77.044337 127.977178 77.202028 127.977178 
z
" clip-path="url(#p63b0ff2322)" style="stroke: #000000"/>
    <path d="M 74.377908 118.931451 
C 74.585441 118.931451 74.784501 118.848998 74.931249 118.70225 
C 75.077997 118.555502 75.160451 118.356442 75.160451 118.148909 
C 75.160451 117.941376 75.077997 117.742316 74.931249 117.595568 
C 74.784501 117.44882 74.585441 117.366367 74.377908 117.366367 
C 74.170376 117.366367 73.971315 117.44882 73.824567 117.595568 
C 73.67782 117.742316 73.595366 117.941376 73.595366 118.148909 
C 73.595366 118.356442 73.67782 118.555502 73.824567 118.70225 
C 73.971315 118.848998 74.170376 118.931451 74.377908 118.931451 
z
" clip-path="url(#p63b0ff2322)" style="stroke: #000000"/>
    <path d="M 72.392261 115.11994 
C 72.549952 115.11994 72.701205 115.057289 72.81271 114.945785 
C 72.924214 114.834281 72.986865 114.683027 72.986865 114.525337 
C 72.986865 114.367646 72.924214 114.216393 72.81271 114.104888 
C 72.701205 113.993384 72.549952 113.930733 72.392261 113.930733 
C 72.234571 113.930733 72.083317 113.993384 71.971813 114.104888 
C 71.860309 114.216393 71.797658 114.367646 71.797658 114.525337 
C 71.797658 114.683027 71.860309 114.834281 71.971813 114.945785 
C 72.083317 115.057289 72.234571 115.11994 72.392261 115.11994 
z
" clip-path="url(#p63b0ff2322)" style="stroke: #000000"/>
    <path d="M 68.575789 106.881478 
C 69.039846 106.881478 69.484959 106.697107 69.813097 106.368969 
C 70.141235 106.040831 70.325607 105.595718 70.325607 105.131661 
C 70.325607 104.667604 70.141235 104.222491 69.813097 103.894353 
C 69.484959 103.566215 69.039846 103.381843 68.575789 103.381843 
C 68.111732 103.381843 67.666619 103.566215 67.338481 103.894353 
C 67.010343 104.222491 66.825972 104.667604 66.825972 105.131661 
C 66.825972 105.595718 67.010343 106.040831 67.338481 106.368969 
C 67.666619 106.697107 68.111732 106.881478 68.575789 106.881478 
z
" clip-path="url(#p63b0ff2322)" style="stroke: #000000"/>
    <path d="M 74.031601 130.243816 
C 74.164203 130.243816 74.291391 130.191133 74.385154 130.09737 
C 74.478918 130.003606 74.531601 129.876418 74.531601 129.743816 
C 74.531601 129.611215 74.478918 129.484026 74.385154 129.390263 
C 74.291391 129.2965 74.164203 129.243816 74.031601 129.243816 
C 73.898999 129.243816 73.771811 129.2965 73.678048 129.390263 
C 73.584284 129.484026 73.531601 129.611215 73.531601 129.743816 
C 73.531601 129.876418 73.584284 130.003606 73.678048 130.09737 
C 73.771811 130.191133 73.898999 130.243816 74.031601 130.243816 
z
" clip-path="url(#p63b0ff2322)" style="stroke: #000000"/>
    <path d="M 71.476046 124.879006 
C 71.633736 124.879006 71.78499 124.816355 71.896494 124.704851 
C 72.007998 124.593346 72.070649 124.442093 72.070649 124.284402 
C 72.070649 124.126712 72.007998 123.975458 71.896494 123.863954 
C 71.78499 123.75245 71.633736 123.689799 71.476046 123.689799 
C 71.318355 123.689799 71.167102 123.75245 71.055597 123.863954 
C 70.944093 123.975458 70.881442 124.126712 70.881442 124.284402 
C 70.881442 124.442093 70.944093 124.593346 71.055597 124.704851 
C 71.167102 124.816355 71.318355 124.879006 71.476046 124.879006 
z
" clip-path="url(#p63b0ff2322)" style="stroke: #000000"/>
    <path d="M 69.341389 120.729323 
C 69.680948 120.729323 70.006645 120.594414 70.24675 120.35431 
C 70.486855 120.114205 70.621763 119.788507 70.621763 119.448948 
C 70.621763 119.109389 70.486855 118.783691 70.24675 118.543586 
C 70.006645 118.303482 69.680948 118.168573 69.341389 118.168573 
C 69.001829 118.168573 68.676132 118.303482 68.436027 118.543586 
C 68.195922 118.783691 68.061014 119.109389 68.061014 119.448948 
C 68.061014 119.788507 68.195922 120.114205 68.436027 120.35431 
C 68.676132 120.594414 69.001829 120.729323 69.341389 120.729323 
z
" clip-path="url(#p63b0ff2322)" style="stroke: #000000"/>
    <path d="M 66.401929 112.534394 
C 66.898079 112.534394 67.373974 112.337272 67.724805 111.986441 
C 68.075635 111.635611 68.272758 111.159715 68.272758 110.663566 
C 68.272758 110.167416 68.075635 109.691521 67.724805 109.34069 
C 67.373974 108.989859 66.898079 108.792737 66.401929 108.792737 
C 65.905779 108.792737 65.429884 108.989859 65.079053 109.34069 
C 64.728223 109.691521 64.5311 110.167416 64.5311 110.663566 
C 64.5311 111.159715 64.728223 111.635611 65.079053 111.986441 
C 65.429884 112.337272 65.905779 112.534394 66.401929 112.534394 
z
" clip-path="url(#p63b0ff2322)" style="stroke: #000000"/>
    <path d="M 64.90069 109.042107 
C 65.323123 109.042107 65.728311 108.874273 66.027016 108.575567 
C 66.325721 108.276862 66.493556 107.871674 66.493556 107.449241 
C 66.493556 107.026808 66.325721 106.62162 66.027016 106.322914 
C 65.728311 106.024209 65.323123 105.856375 64.90069 105.856375 
C 64.478257 105.856375 64.073068 106.024209 63.774363 106.322914 
C 63.475658 106.62162 63.307823 107.026808 63.307823 107.449241 
C 63.307823 107.871674 63.475658 108.276862 63.774363 108.575567 
C 64.073068 108.874273 64.478257 109.042107 64.90069 109.042107 
z
" clip-path="url(#p63b0ff2322)" style="stroke: #000000"/>
    <path d="M 63.333423 103.259449 
C 63.563096 103.259449 63.783393 103.168199 63.945796 103.005796 
C 64.108199 102.843393 64.199449 102.623096 64.199449 102.393424 
C 64.199449 102.163751 64.108199 101.943454 63.945796 101.781051 
C 63.783393 101.618648 63.563096 101.527398 63.333423 101.527398 
C 63.103751 101.527398 62.883454 101.618648 62.721051 101.781051 
C 62.558648 101.943454 62.467398 102.163751 62.467398 102.393424 
C 62.467398 102.623096 62.558648 102.843393 62.721051 103.005796 
C 62.883454 103.168199 63.103751 103.259449 63.333423 103.259449 
z
" clip-path="url(#p63b0ff2322)" style="stroke: #000000"/>
    <path d="M 62.330576 99.960986 
C 62.577376 99.960986 62.8141 99.862932 62.988613 99.688418 
C 63.163127 99.513905 63.261181 99.277181 63.261181 99.030381 
C 63.261181 98.783582 63.163127 98.546858 62.988613 98.372344 
C 62.8141 98.197831 62.577376 98.099776 62.330576 98.099776 
C 62.083777 98.099776 61.847053 98.197831 61.672539 98.372344 
C 61.498026 98.546858 61.399972 98.783582 61.399972 99.030381 
C 61.399972 99.277181 61.498026 99.513905 61.672539 99.688418 
C 61.847053 99.862932 62.083777 99.960986 62.330576 99.960986 
z
" clip-path="url(#p63b0ff2322)" style="stroke: #000000"/>
    <path d="M 69.539105 139.043163 
C 69.713618 139.043163 69.881007 138.973828 70.004407 138.850429 
C 70.127807 138.727029 70.197142 138.55964 70.197142 138.385126 
C 70.197142 138.210613 70.127807 138.043224 70.004407 137.919824 
C 69.881007 137.796424 69.713618 137.727089 69.539105 137.727089 
C 69.364591 137.727089 69.197202 137.796424 69.073802 137.919824 
C 68.950403 138.043224 68.881068 138.210613 68.881068 138.385126 
C 68.881068 138.55964 68.950403 138.727029 69.073802 138.850429 
C 69.197202 138.973828 69.364591 139.043163 69.539105 139.043163 
z
" clip-path="url(#p63b0ff2322)" style="stroke: #000000"/>
    <path d="M 67.749584 132.473214 
C 68.124638 132.473214 68.484381 132.324203 68.749584 132.059 
C 69.014787 131.793797 69.163798 131.434054 69.163798 131.059 
C 69.163798 130.683946 69.014787 130.324203 68.749584 130.059 
C 68.484381 129.793797 68.124638 129.644787 67.749584 129.644787 
C 67.37453 129.644787 67.014787 129.793797 66.749584 130.059 
C 66.484381 130.324203 66.335371 130.683946 66.335371 131.059 
C 66.335371 131.434054 66.484381 131.793797 66.749584 132.059 
C 67.014787 132.324203 67.37453 132.473214 67.749584 132.473214 
z
" clip-path="url(#p63b0ff2322)" style="stroke: #000000"/>
    <path d="M 67.515141 126.870291 
C 67.647742 126.870291 67.774931 126.817608 67.868694 126.723844 
C 67.962457 126.630081 68.015141 126.502892 68.015141 126.370291 
C 68.015141 126.237689 67.962457 126.110501 67.868694 126.016737 
C 67.774931 125.922974 67.647742 125.870291 67.515141 125.870291 
C 67.382539 125.870291 67.255351 125.922974 67.161587 126.016737 
C 67.067824 126.110501 67.015141 126.237689 67.015141 126.370291 
C 67.015141 126.502892 67.067824 126.630081 67.161587 126.723844 
C 67.255351 126.817608 67.382539 126.870291 67.515141 126.870291 
z
" clip-path="url(#p63b0ff2322)" style="stroke: #000000"/>
    <path d="M 61.000198 104.420284 
C 61.174711 104.420284 61.342101 104.350949 61.4655 104.22755 
C 61.5889 104.10415 61.658235 103.936761 61.658235 103.762247 
C 61.658235 103.587734 61.5889 103.420344 61.4655 103.296945 
C 61.342101 103.173545 61.174711 103.10421 61.000198 103.10421 
C 60.825684 103.10421 60.658295 103.173545 60.534895 103.296945 
C 60.411496 103.420344 60.342161 103.587734 60.342161 103.762247 
C 60.342161 103.936761 60.411496 104.10415 60.534895 104.22755 
C 60.658295 104.350949 60.825684 104.420284 61.000198 104.420284 
z
" clip-path="url(#p63b0ff2322)" style="stroke: #000000"/>
    <path d="M 55.150225 96.940242 
C 55.434085 96.940242 55.706356 96.827464 55.907075 96.626745 
C 56.107794 96.426026 56.220573 96.153754 56.220573 95.869895 
C 56.220573 95.586035 56.107794 95.313764 55.907075 95.113045 
C 55.706356 94.912326 55.434085 94.799547 55.150225 94.799547 
C 54.866366 94.799547 54.594094 94.912326 54.393375 95.113045 
C 54.192656 95.313764 54.079878 95.586035 54.079878 95.869895 
C 54.079878 96.153754 54.192656 96.426026 54.393375 96.626745 
C 54.594094 96.827464 54.866366 96.940242 55.150225 96.940242 
z
" clip-path="url(#p63b0ff2322)" style="stroke: #000000"/>
    <path d="M 62.60315 130.641841 
C 63.05346 130.641841 63.485387 130.462931 63.803804 130.144514 
C 64.122221 129.826097 64.301131 129.39417 64.301131 128.94386 
C 64.301131 128.49355 64.122221 128.061623 63.803804 127.743206 
C 63.485387 127.424789 63.05346 127.245879 62.60315 127.245879 
C 62.15284 127.245879 61.720913 127.424789 61.402496 127.743206 
C 61.084078 128.061623 60.905168 128.49355 60.905168 128.94386 
C 60.905168 129.39417 61.084078 129.826097 61.402496 130.144514 
C 61.720913 130.462931 62.15284 130.641841 62.60315 130.641841 
z
" clip-path="url(#p63b0ff2322)" style="stroke: #000000"/>
    <path d="M 59.564859 125.127793 
C 60.157871 125.127793 60.726674 124.892187 61.145997 124.472864 
C 61.56532 124.053541 61.800927 123.484737 61.800927 122.891725 
C 61.800927 122.298713 61.56532 121.729909 61.145997 121.310586 
C 60.726674 120.891263 60.157871 120.655657 59.564859 120.655657 
C 58.971846 120.655657 58.403043 120.891263 57.98372 121.310586 
C 57.564397 121.729909 57.328791 122.298713 57.328791 122.891725 
C 57.328791 123.484737 57.564397 124.053541 57.98372 124.472864 
C 58.403043 124.892187 58.971846 125.127793 59.564859 125.127793 
z
" clip-path="url(#p63b0ff2322)" style="stroke: #000000"/>
    <path d="M 58.528714 120.820741 
C 59.026751 120.820741 59.504457 120.622869 59.856623 120.270703 
C 60.208788 119.918538 60.40666 119.440832 60.40666 118.942795 
C 60.40666 118.444757 60.208788 117.967051 59.856623 117.614886 
C 59.504457 117.26272 59.026751 117.064848 58.528714 117.064848 
C 58.030676 117.064848 57.55297 117.26272 57.200805 117.614886 
C 56.848639 117.967051 56.650767 118.444757 56.650767 118.942795 
C 56.650767 119.440832 56.848639 119.918538 57.200805 120.270703 
C 57.55297 120.622869 58.030676 120.820741 58.528714 120.820741 
z
" clip-path="url(#p63b0ff2322)" style="stroke: #000000"/>
    <path d="M 52.92418 107.794143 
C 53.49649 107.794143 54.045436 107.566762 54.45012 107.162078 
C 54.854804 106.757394 55.082185 106.208447 55.082185 105.636138 
C 55.082185 105.063828 54.854804 104.514882 54.45012 104.110198 
C 54.045436 103.705514 53.49649 103.478133 52.92418 103.478133 
C 52.351871 103.478133 51.802925 103.705514 51.398241 104.110198 
C 50.993557 104.514882 50.766176 105.063828 50.766176 105.636138 
C 50.766176 106.208447 50.993557 106.757394 51.398241 107.162078 
C 51.802925 107.566762 52.351871 107.794143 52.92418 107.794143 
z
" clip-path="url(#p63b0ff2322)" style="stroke: #000000"/>
    <path d="M 56.274566 120.487771 
C 56.535525 120.487771 56.78583 120.384091 56.970355 120.199566 
C 57.154881 120.01504 57.258561 119.764735 57.258561 119.503776 
C 57.258561 119.242818 57.154881 118.992512 56.970355 118.807987 
C 56.78583 118.623461 56.535525 118.519781 56.274566 118.519781 
C 56.013608 118.519781 55.763302 118.623461 55.578777 118.807987 
C 55.394251 118.992512 55.290571 119.242818 55.290571 119.503776 
C 55.290571 119.764735 55.394251 120.01504 55.578777 120.199566 
C 55.763302 120.384091 56.013608 120.487771 56.274566 120.487771 
z
" clip-path="url(#p63b0ff2322)" style="stroke: #000000"/>
    <path d="M 50.988768 110.222582 
C 51.306585 110.222582 51.611428 110.096312 51.836158 109.871581 
C 52.060889 109.646851 52.187159 109.342008 52.187159 109.024191 
C 52.187159 108.706374 52.060889 108.401531 51.836158 108.176801 
C 51.611428 107.95207 51.306585 107.8258 50.988768 107.8258 
C 50.670951 107.8258 50.366108 107.95207 50.141378 108.176801 
C 49.916647 108.401531 49.790377 108.706374 49.790377 109.024191 
C 49.790377 109.342008 49.916647 109.646851 50.141378 109.871581 
C 50.366108 110.096312 50.670951 110.222582 50.988768 110.222582 
z
" clip-path="url(#p63b0ff2322)" style="stroke: #000000"/>
    <path d="M 47.507663 102.819676 
C 47.665353 102.819676 47.816607 102.757024 47.928111 102.64552 
C 48.039615 102.534016 48.102266 102.382763 48.102266 102.225072 
C 48.102266 102.067381 48.039615 101.916128 47.928111 101.804624 
C 47.816607 101.69312 47.665353 101.630468 47.507663 101.630468 
C 47.349972 101.630468 47.198718 101.69312 47.087214 101.804624 
C 46.97571 101.916128 46.913059 102.067381 46.913059 102.225072 
C 46.913059 102.382763 46.97571 102.534016 47.087214 102.64552 
C 47.198718 102.757024 47.349972 102.819676 47.507663 102.819676 
z
" clip-path="url(#p63b0ff2322)" style="stroke: #000000"/>
   </g>
   <g id="matplotlib.axis_1">
    <g id="xtick_1">
     <g id="line2d_1">
      <defs>
       <path id="mce7d2dd4be" d="M 0 0 
L 0 3.5 
" style="stroke: #000000; stroke-width: 0.8"/>
      </defs>
      <g>
       <use xlink:href="#mce7d2dd4be" x="18" y="189" style="stroke: #000000; stroke-width: 0.8"/>
      </g>
     </g>
     <g id="text_1">
      <!-- −10 -->
      <g transform="translate(7.447656 203.598437)scale(0.1 -0.1)">
       <defs>
        <path id="DejaVuSans-2212" d="M 678 2272 
L 4684 2272 
L 4684 1741 
L 678 1741 
L 678 2272 
z
" transform="scale(0.015625)"/>
        <path id="DejaVuSans-31" d="M 794 531 
L 1825 531 
L 1825 4091 
L 703 3866 
L 703 4441 
L 1819 4666 
L 2450 4666 
L 2450 531 
L 3481 531 
L 3481 0 
L 794 0 
L 794 531 
z
" transform="scale(0.015625)"/>
        <path id="DejaVuSans-30" d="M 2034 4250 
Q 1547 4250 1301 3770 
Q 1056 3291 1056 2328 
Q 1056 1369 1301 889 
Q 1547 409 2034 409 
Q 2525 409 2770 889 
Q 3016 1369 3016 2328 
Q 3016 3291 2770 3770 
Q 2525 4250 2034 4250 
z
M 2034 4750 
Q 2819 4750 3233 4129 
Q 3647 3509 3647 2328 
Q 3647 1150 3233 529 
Q 2819 -91 2034 -91 
Q 1250 -91 836 529 
Q 422 1150 422 2328 
Q 422 3509 836 4129 
Q 1250 4750 2034 4750 
z
" transform="scale(0.015625)"/>
       </defs>
       <use xlink:href="#DejaVuSans-2212"/>
       <use xlink:href="#DejaVuSans-31" x="83.789062"/>
       <use xlink:href="#DejaVuSans-30" x="147.412109"/>
      </g>
     </g>
    </g>
    <g id="xtick_2">
     <g id="line2d_2">
      <g>
       <use xlink:href="#mce7d2dd4be" x="73.8" y="189" style="stroke: #000000; stroke-width: 0.8"/>
      </g>
     </g>
     <g id="text_2">
      <!-- 0 -->
      <g transform="translate(70.61875 203.598437)scale(0.1 -0.1)">
       <use xlink:href="#DejaVuSans-30"/>
      </g>
     </g>
    </g>
    <g id="xtick_3">
     <g id="line2d_3">
      <g>
       <use xlink:href="#mce7d2dd4be" x="129.6" y="189" style="stroke: #000000; stroke-width: 0.8"/>
      </g>
     </g>
     <g id="text_3">
      <!-- 10 -->
      <g transform="translate(123.2375 203.598437)scale(0.1 -0.1)">
       <use xlink:href="#DejaVuSans-31"/>
       <use xlink:href="#DejaVuSans-30" x="63.623047"/>
      </g>
     </g>
    </g>
   </g>
   <g id="matplotlib.axis_2">
    <g id="ytick_1">
     <g id="line2d_4">
      <defs>
       <path id="m36a8b6f43a" d="M 0 0 
L -3.5 0 
" style="stroke: #000000; stroke-width: 0.8"/>
      </defs>
      <g>
       <use xlink:href="#m36a8b6f43a" x="18" y="189" style="stroke: #000000; stroke-width: 0.8"/>
      </g>
     </g>
     <g id="text_4">
      <!-- −15 -->
      <g transform="translate(-10.104688 192.799219)scale(0.1 -0.1)">
       <defs>
        <path id="DejaVuSans-35" d="M 691 4666 
L 3169 4666 
L 3169 4134 
L 1269 4134 
L 1269 2991 
Q 1406 3038 1543 3061 
Q 1681 3084 1819 3084 
Q 2600 3084 3056 2656 
Q 3513 2228 3513 1497 
Q 3513 744 3044 326 
Q 2575 -91 1722 -91 
Q 1428 -91 1123 -41 
Q 819 9 494 109 
L 494 744 
Q 775 591 1075 516 
Q 1375 441 1709 441 
Q 2250 441 2565 725 
Q 2881 1009 2881 1497 
Q 2881 1984 2565 2268 
Q 2250 2553 1709 2553 
Q 1456 2553 1204 2497 
Q 953 2441 691 2322 
L 691 4666 
z
" transform="scale(0.015625)"/>
       </defs>
       <use xlink:href="#DejaVuSans-2212"/>
       <use xlink:href="#DejaVuSans-31" x="83.789062"/>
       <use xlink:href="#DejaVuSans-35" x="147.412109"/>
      </g>
     </g>
    </g>
    <g id="ytick_2">
     <g id="line2d_5">
      <g>
       <use xlink:href="#m36a8b6f43a" x="18" y="161.82" style="stroke: #000000; stroke-width: 0.8"/>
      </g>
     </g>
     <g id="text_5">
      <!-- −10 -->
      <g transform="translate(-10.104688 165.619219)scale(0.1 -0.1)">
       <use xlink:href="#DejaVuSans-2212"/>
       <use xlink:href="#DejaVuSans-31" x="83.789062"/>
       <use xlink:href="#DejaVuSans-30" x="147.412109"/>
      </g>
     </g>
    </g>
    <g id="ytick_3">
     <g id="line2d_6">
      <g>
       <use xlink:href="#m36a8b6f43a" x="18" y="134.64" style="stroke: #000000; stroke-width: 0.8"/>
      </g>
     </g>
     <g id="text_6">
      <!-- −5 -->
      <g transform="translate(-3.742188 138.439219)scale(0.1 -0.1)">
       <use xlink:href="#DejaVuSans-2212"/>
       <use xlink:href="#DejaVuSans-35" x="83.789062"/>
      </g>
     </g>
    </g>
    <g id="ytick_4">
     <g id="line2d_7">
      <g>
       <use xlink:href="#m36a8b6f43a" x="18" y="107.46" style="stroke: #000000; stroke-width: 0.8"/>
      </g>
     </g>
     <g id="text_7">
      <!-- 0 -->
      <g transform="translate(4.6375 111.259219)scale(0.1 -0.1)">
       <use xlink:href="#DejaVuSans-30"/>
      </g>
     </g>
    </g>
    <g id="ytick_5">
     <g id="line2d_8">
      <g>
       <use xlink:href="#m36a8b6f43a" x="18" y="80.28" style="stroke: #000000; stroke-width: 0.8"/>
      </g>
     </g>
     <g id="text_8">
      <!-- 5 -->
      <g transform="translate(4.6375 84.079219)scale(0.1 -0.1)">
       <use xlink:href="#DejaVuSans-35"/>
      </g>
     </g>
    </g>
    <g id="ytick_6">
     <g id="line2d_9">
      <g>
       <use xlink:href="#m36a8b6f43a" x="18" y="53.1" style="stroke: #000000; stroke-width: 0.8"/>
      </g>
     </g>
     <g id="text_9">
      <!-- 10 -->
      <g transform="translate(-1.725 56.899219)scale(0.1 -0.1)">
       <use xlink:href="#DejaVuSans-31"/>
       <use xlink:href="#DejaVuSans-30" x="63.623047"/>
      </g>
     </g>
    </g>
    <g id="ytick_7">
     <g id="line2d_10">
      <g>
       <use xlink:href="#m36a8b6f43a" x="18" y="25.92" style="stroke: #000000; stroke-width: 0.8"/>
      </g>
     </g>
     <g id="text_10">
      <!-- 15 -->
      <g transform="translate(-1.725 29.719219)scale(0.1 -0.1)">
       <use xlink:href="#DejaVuSans-31"/>
       <use xlink:href="#DejaVuSans-35" x="63.623047"/>
      </g>
     </g>
    </g>
   </g>
   <g id="patch_3">
    <path d="M 18 189 
L 18 25.92 
" style="fill: none; stroke: #000000; stroke-width: 0.8; stroke-linejoin: miter; stroke-linecap: square"/>
   </g>
   <g id="patch_4">
    <path d="M 129.6 189 
L 129.6 25.92 
" style="fill: none; stroke: #000000; stroke-width: 0.8; stroke-linejoin: miter; stroke-linecap: square"/>
   </g>
   <g id="patch_5">
    <path d="M 18 189 
L 129.6 189 
" style="fill: none; stroke: #000000; stroke-width: 0.8; stroke-linejoin: miter; stroke-linecap: square"/>
   </g>
   <g id="patch_6">
    <path d="M 18 25.92 
L 129.6 25.92 
" style="fill: none; stroke: #000000; stroke-width: 0.8; stroke-linejoin: miter; stroke-linecap: square"/>
   </g>
  </g>
 </g>
 <defs>
  <clipPath id="p63b0ff2322">
   <rect x="18" y="25.92" width="111.6" height="163.08"/>
  </clipPath>
 </defs>
</svg>
