<?xml version="1.0" encoding="utf-8" standalone="no"?>
<!DOCTYPE svg PUBLIC "-//W3C//DTD SVG 1.1//EN"
  "http://www.w3.org/Graphics/SVG/1.1/DTD/svg11.dtd">
<svg xmlns:xlink="http://www.w3.org/1999/xlink" width="144pt" height="216pt" viewBox="0 0 144 216" xmlns="http://www.w3.org/2000/svg" version="1.1">
 <metadata>
  <rdf:RDF xmlns:dc="http://purl.org/dc/elements/1.1/" xmlns:cc="http://creativecommons.org/ns#" xmlns:rdf="http://www.w3.org/1999/02/22-rdf-syntax-ns#">
   <cc:Work>
    <dc:type rdf:resource="http://purl.org/dc/dcmitype/StillImage"/>
    <dc:date>2022-06-23T14:44:40.789073</dc:date>
    <dc:format>image/svg+xml</dc:format>
    <dc:creator>
     <cc:Agent>
      <dc:title>Matplotlib v3.5.1, https://matplotlib.org/</dc:title>
     </cc:Agent>
    </dc:creator>
   </cc:Work>
  </rdf:RDF>
 </metadata>
 <defs>
  <style type="text/css">*{stroke-linejoin: round; stroke-linecap: butt}</style>
 </defs>
 <g id="figure_1">
  <g id="patch_1">
   <path d="M 0 216 
L 144 216 
L 144 0 
L 0 0 
L 0 216 
z
" style="fill: none"/>
  </g>
  <g id="axes_1">
   <g id="patch_2">
    <path d="M 18 189 
L 129.6 189 
L 129.6 25.92 
L 18 25.92 
z
" style="fill: #ffffff"/>
   </g>
   <g id="PathCollection_1">
    <defs>
     <path id="me7784af63c" d="M 0 2.738613 
C 0.726289 2.738613 1.422928 2.450055 1.936492 1.936492 
C 2.450055 1.422928 2.738613 0.726289 2.738613 0 
C 2.738613 -0.726289 2.450055 -1.422928 1.936492 -1.936492 
C 1.422928 -2.450055 0.726289 -2.738613 0 -2.738613 
C -0.726289 -2.738613 -1.422928 -2.450055 -1.936492 -1.936492 
C -2.450055 -1.422928 -2.738613 -0.726289 -2.738613 0 
C -2.738613 0.726289 -2.450055 1.422928 -1.936492 1.936492 
C -1.422928 2.450055 -0.726289 2.738613 0 2.738613 
z
" style="stroke: #ff0000; stroke-width: 1.75"/>
    </defs>
    <g clip-path="url(#pf59251191a)">
     <use xlink:href="#me7784af63c" x="80.775" y="83.92143" style="fill: #ff0000; stroke: #ff0000; stroke-width: 1.75"/>
     <use xlink:href="#me7784af63c" x="59.85" y="95.690715" style="fill: #ff0000; stroke: #ff0000; stroke-width: 1.75"/>
     <use xlink:href="#me7784af63c" x="66.825" y="107.46" style="fill: #ff0000; stroke: #ff0000; stroke-width: 1.75"/>
     <use xlink:href="#me7784af63c" x="80.775" y="107.46" style="fill: #ff0000; stroke: #ff0000; stroke-width: 1.75"/>
     <use xlink:href="#me7784af63c" x="94.725" y="107.46" style="fill: #ff0000; stroke: #ff0000; stroke-width: 1.75"/>
     <use xlink:href="#me7784af63c" x="59.85" y="119.229285" style="fill: #ff0000; stroke: #ff0000; stroke-width: 1.75"/>
     <use xlink:href="#me7784af63c" x="80.775" y="130.99857" style="fill: #ff0000; stroke: #ff0000; stroke-width: 1.75"/>
    </g>
   </g>
   <g id="PathCollection_2">
    <defs>
     <path id="C0_0_8627bbd56a" d="M 0 2.738613 
C 0.726289 2.738613 1.422928 2.450055 1.936492 1.936492 
C 2.450055 1.422928 2.738613 0.726289 2.738613 -0 
C 2.738613 -0.726289 2.450055 -1.422928 1.936492 -1.936492 
C 1.422928 -2.450055 0.726289 -2.738613 0 -2.738613 
C -0.726289 -2.738613 -1.422928 -2.450055 -1.936492 -1.936492 
C -2.450055 -1.422928 -2.738613 -0.726289 -2.738613 0 
C -2.738613 0.726289 -2.450055 1.422928 -1.936492 1.936492 
C -1.422928 2.450055 -0.726289 2.738613 0 2.738613 
z
"/>
    </defs>
    <g clip-path="url(#pf59251191a)">
     <use xlink:href="#C0_0_8627bbd56a" x="66.825" y="83.92143" style="fill: none; stroke: #ff0000; stroke-width: 1.75"/>
    </g>
    <g clip-path="url(#pf59251191a)">
     <use xlink:href="#C0_0_8627bbd56a" x="73.8" y="95.690715" style="fill: none; stroke: #ff0000; stroke-width: 1.75"/>
    </g>
    <g clip-path="url(#pf59251191a)">
     <use xlink:href="#C0_0_8627bbd56a" x="87.75" y="95.690715" style="fill: none; stroke: #ff0000; stroke-width: 1.75"/>
    </g>
    <g clip-path="url(#pf59251191a)">
     <use xlink:href="#C0_0_8627bbd56a" x="52.875" y="107.46" style="fill: none; stroke: #ff0000; stroke-width: 1.75"/>
    </g>
    <g clip-path="url(#pf59251191a)">
     <use xlink:href="#C0_0_8627bbd56a" x="73.8" y="119.229285" style="fill: none; stroke: #ff0000; stroke-width: 1.75"/>
    </g>
    <g clip-path="url(#pf59251191a)">
     <use xlink:href="#C0_0_8627bbd56a" x="87.75" y="119.229285" style="fill: none; stroke: #ff0000; stroke-width: 1.75"/>
    </g>
    <g clip-path="url(#pf59251191a)">
     <use xlink:href="#C0_0_8627bbd56a" x="66.825" y="130.99857" style="fill: none; stroke: #ff0000; stroke-width: 1.75"/>
    </g>
   </g>
   <g id="PathCollection_3">
    <path d="M 109.141239 79.147925 
C 109.27384 79.147925 109.401029 79.095242 109.494792 79.001478 
C 109.588556 78.907715 109.641239 78.780526 109.641239 78.647925 
C 109.641239 78.515323 109.588556 78.388135 109.494792 78.294371 
C 109.401029 78.200608 109.27384 78.147925 109.141239 78.147925 
C 109.008637 78.147925 108.881449 78.200608 108.787685 78.294371 
C 108.693922 78.388135 108.641239 78.515323 108.641239 78.647925 
C 108.641239 78.780526 108.693922 78.907715 108.787685 79.001478 
C 108.881449 79.095242 109.008637 79.147925 109.141239 79.147925 
z
" clip-path="url(#pf59251191a)" style="stroke: #000000"/>
    <path d="M 115.556112 110.123494 
C 115.688713 110.123494 115.815902 110.070811 115.909665 109.977047 
C 116.003429 109.883284 116.056112 109.756095 116.056112 109.623494 
C 116.056112 109.490892 116.003429 109.363704 115.909665 109.26994 
C 115.815902 109.176177 115.688713 109.123494 115.556112 109.123494 
C 115.42351 109.123494 115.296322 109.176177 115.202558 109.26994 
C 115.108795 109.363704 115.056112 109.490892 115.056112 109.623494 
C 115.056112 109.756095 115.108795 109.883284 115.202558 109.977047 
C 115.296322 110.070811 115.42351 110.123494 115.556112 110.123494 
z
" clip-path="url(#pf59251191a)" style="stroke: #000000"/>
    <path d="M 110.345889 97.5257 
C 110.50358 97.5257 110.654833 97.463049 110.766338 97.351545 
C 110.877842 97.240041 110.940493 97.088787 110.940493 96.931097 
C 110.940493 96.773406 110.877842 96.622153 110.766338 96.510648 
C 110.654833 96.399144 110.50358 96.336493 110.345889 96.336493 
C 110.188199 96.336493 110.036945 96.399144 109.925441 96.510648 
C 109.813937 96.622153 109.751286 96.773406 109.751286 96.931097 
C 109.751286 97.088787 109.813937 97.240041 109.925441 97.351545 
C 110.036945 97.463049 110.188199 97.5257 110.345889 97.5257 
z
" clip-path="url(#pf59251191a)" style="stroke: #000000"/>
    <path d="M 105.478906 77.539922 
C 105.611507 77.539922 105.738696 77.487238 105.832459 77.393475 
C 105.926223 77.299711 105.978906 77.172523 105.978906 77.039922 
C 105.978906 76.90732 105.926223 76.780132 105.832459 76.686368 
C 105.738696 76.592605 105.611507 76.539922 105.478906 76.539922 
C 105.346304 76.539922 105.219116 76.592605 105.125352 76.686368 
C 105.031589 76.780132 104.978906 76.90732 104.978906 77.039922 
C 104.978906 77.172523 105.031589 77.299711 105.125352 77.393475 
C 105.219116 77.487238 105.346304 77.539922 105.478906 77.539922 
z
" clip-path="url(#pf59251191a)" style="stroke: #000000"/>
    <path d="M 105.822985 95.788036 
C 105.997499 95.788036 106.164888 95.718701 106.288288 95.595301 
C 106.411688 95.471901 106.481022 95.304512 106.481022 95.129999 
C 106.481022 94.955485 106.411688 94.788096 106.288288 94.664696 
C 106.164888 94.541296 105.997499 94.471962 105.822985 94.471962 
C 105.648472 94.471962 105.481083 94.541296 105.357683 94.664696 
C 105.234283 94.788096 105.164948 94.955485 105.164948 95.129999 
C 105.164948 95.304512 105.234283 95.471901 105.357683 95.595301 
C 105.481083 95.718701 105.648472 95.788036 105.822985 95.788036 
z
" clip-path="url(#pf59251191a)" style="stroke: #000000"/>
    <path d="M 98.317695 75.61948 
C 98.450296 75.61948 98.577485 75.566797 98.671248 75.473033 
C 98.765011 75.37927 98.817695 75.252081 98.817695 75.11948 
C 98.817695 74.986878 98.765011 74.85969 98.671248 74.765926 
C 98.577485 74.672163 98.450296 74.61948 98.317695 74.61948 
C 98.185093 74.61948 98.057905 74.672163 97.964141 74.765926 
C 97.870378 74.85969 97.817695 74.986878 97.817695 75.11948 
C 97.817695 75.252081 97.870378 75.37927 97.964141 75.473033 
C 98.057905 75.566797 98.185093 75.61948 98.317695 75.61948 
z
" clip-path="url(#pf59251191a)" style="stroke: #000000"/>
    <path d="M 114.991692 139.40851 
C 115.124294 139.40851 115.251482 139.355827 115.345246 139.262063 
C 115.439009 139.1683 115.491692 139.041112 115.491692 138.90851 
C 115.491692 138.775909 115.439009 138.64872 115.345246 138.554957 
C 115.251482 138.461193 115.124294 138.40851 114.991692 138.40851 
C 114.859091 138.40851 114.731902 138.461193 114.638139 138.554957 
C 114.544375 138.64872 114.491692 138.775909 114.491692 138.90851 
C 114.491692 139.041112 114.544375 139.1683 114.638139 139.262063 
C 114.731902 139.355827 114.859091 139.40851 114.991692 139.40851 
z
" clip-path="url(#pf59251191a)" style="stroke: #000000"/>
    <path d="M 105.286534 107.761064 
C 105.494066 107.761064 105.693127 107.678611 105.839874 107.531863 
C 105.986622 107.385115 106.069076 107.186055 106.069076 106.978522 
C 106.069076 106.770989 105.986622 106.571929 105.839874 106.425181 
C 105.693127 106.278433 105.494066 106.19598 105.286534 106.19598 
C 105.079001 106.19598 104.87994 106.278433 104.733193 106.425181 
C 104.586445 106.571929 104.503991 106.770989 104.503991 106.978522 
C 104.503991 107.186055 104.586445 107.385115 104.733193 107.531863 
C 104.87994 107.678611 105.079001 107.761064 105.286534 107.761064 
z
" clip-path="url(#pf59251191a)" style="stroke: #000000"/>
    <path d="M 103.268381 104.76129 
C 103.455908 104.76129 103.635779 104.686785 103.768381 104.554183 
C 103.900982 104.421581 103.975488 104.24171 103.975488 104.054183 
C 103.975488 103.866656 103.900982 103.686785 103.768381 103.554183 
C 103.635779 103.421581 103.455908 103.347076 103.268381 103.347076 
C 103.080854 103.347076 102.900982 103.421581 102.768381 103.554183 
C 102.635779 103.686785 102.561274 103.866656 102.561274 104.054183 
C 102.561274 104.24171 102.635779 104.421581 102.768381 104.554183 
C 102.900982 104.686785 103.080854 104.76129 103.268381 104.76129 
z
" clip-path="url(#pf59251191a)" style="stroke: #000000"/>
    <path d="M 102.885078 98.597988 
C 103.017679 98.597988 103.144867 98.545305 103.238631 98.451541 
C 103.332394 98.357778 103.385078 98.23059 103.385078 98.097988 
C 103.385078 97.965386 103.332394 97.838198 103.238631 97.744435 
C 103.144867 97.650671 103.017679 97.597988 102.885078 97.597988 
C 102.752476 97.597988 102.625288 97.650671 102.531524 97.744435 
C 102.437761 97.838198 102.385078 97.965386 102.385078 98.097988 
C 102.385078 98.23059 102.437761 98.357778 102.531524 98.451541 
C 102.625288 98.545305 102.752476 98.597988 102.885078 98.597988 
z
" clip-path="url(#pf59251191a)" style="stroke: #000000"/>
    <path d="M 90.685512 69.565621 
C 90.843203 69.565621 90.994456 69.50297 91.10596 69.391466 
C 91.217464 69.279961 91.280116 69.128708 91.280116 68.971017 
C 91.280116 68.813327 91.217464 68.662073 91.10596 68.550569 
C 90.994456 68.439065 90.843203 68.376414 90.685512 68.376414 
C 90.527821 68.376414 90.376568 68.439065 90.265064 68.550569 
C 90.15356 68.662073 90.090909 68.813327 90.090909 68.971017 
C 90.090909 69.128708 90.15356 69.279961 90.265064 69.391466 
C 90.376568 69.50297 90.527821 69.565621 90.685512 69.565621 
z
" clip-path="url(#pf59251191a)" style="stroke: #000000"/>
    <path d="M 84.118771 48.902395 
C 84.251372 48.902395 84.378561 48.849712 84.472324 48.755948 
C 84.566088 48.662185 84.618771 48.534996 84.618771 48.402395 
C 84.618771 48.269793 84.566088 48.142605 84.472324 48.048841 
C 84.378561 47.955078 84.251372 47.902395 84.118771 47.902395 
C 83.986169 47.902395 83.858981 47.955078 83.765217 48.048841 
C 83.671454 48.142605 83.618771 48.269793 83.618771 48.402395 
C 83.618771 48.534996 83.671454 48.662185 83.765217 48.755948 
C 83.858981 48.849712 83.986169 48.902395 84.118771 48.902395 
z
" clip-path="url(#pf59251191a)" style="stroke: #000000"/>
    <path d="M 107.976196 127.563022 
C 108.108798 127.563022 108.235986 127.510338 108.32975 127.416575 
C 108.423513 127.322811 108.476196 127.195623 108.476196 127.063022 
C 108.476196 126.93042 108.423513 126.803232 108.32975 126.709468 
C 108.235986 126.615705 108.108798 126.563022 107.976196 126.563022 
C 107.843595 126.563022 107.716406 126.615705 107.622643 126.709468 
C 107.52888 126.803232 107.476196 126.93042 107.476196 127.063022 
C 107.476196 127.195623 107.52888 127.322811 107.622643 127.416575 
C 107.716406 127.510338 107.843595 127.563022 107.976196 127.563022 
z
" clip-path="url(#pf59251191a)" style="stroke: #000000"/>
    <path d="M 103.710931 122.413705 
C 103.868621 122.413705 104.019875 122.351054 104.131379 122.23955 
C 104.242883 122.128046 104.305534 121.976792 104.305534 121.819102 
C 104.305534 121.661411 104.242883 121.510158 104.131379 121.398654 
C 104.019875 121.287149 103.868621 121.224498 103.710931 121.224498 
C 103.55324 121.224498 103.401987 121.287149 103.290483 121.398654 
C 103.178978 121.510158 103.116327 121.661411 103.116327 121.819102 
C 103.116327 121.976792 103.178978 122.128046 103.290483 122.23955 
C 103.401987 122.351054 103.55324 122.413705 103.710931 122.413705 
z
" clip-path="url(#pf59251191a)" style="stroke: #000000"/>
    <path d="M 99.302493 106.181434 
C 99.549292 106.181434 99.786016 106.083379 99.96053 105.908866 
C 100.135043 105.734352 100.233098 105.497628 100.233098 105.250829 
C 100.233098 105.00403 100.135043 104.767305 99.96053 104.592792 
C 99.786016 104.418278 99.549292 104.320224 99.302493 104.320224 
C 99.055694 104.320224 98.818969 104.418278 98.644456 104.592792 
C 98.469942 104.767305 98.371888 105.00403 98.371888 105.250829 
C 98.371888 105.497628 98.469942 105.734352 98.644456 105.908866 
C 98.818969 106.083379 99.055694 106.181434 99.302493 106.181434 
z
" clip-path="url(#pf59251191a)" style="stroke: #000000"/>
    <path d="M 97.571851 101.205373 
C 97.823639 101.205373 98.065148 101.105337 98.243189 100.927296 
C 98.42123 100.749255 98.521266 100.507746 98.521266 100.255958 
C 98.521266 100.004171 98.42123 99.762662 98.243189 99.584621 
C 98.065148 99.40658 97.823639 99.306544 97.571851 99.306544 
C 97.320064 99.306544 97.078555 99.40658 96.900514 99.584621 
C 96.722473 99.762662 96.622437 100.004171 96.622437 100.255958 
C 96.622437 100.507746 96.722473 100.749255 96.900514 100.927296 
C 97.078555 101.105337 97.320064 101.205373 97.571851 101.205373 
z
" clip-path="url(#pf59251191a)" style="stroke: #000000"/>
    <path d="M 96.141528 99.254386 
C 96.357214 99.254386 96.564096 99.168693 96.716609 99.016179 
C 96.869123 98.863666 96.954816 98.656784 96.954816 98.441098 
C 96.954816 98.225411 96.869123 98.018529 96.716609 97.866016 
C 96.564096 97.713502 96.357214 97.627809 96.141528 97.627809 
C 95.925841 97.627809 95.718959 97.713502 95.566446 97.866016 
C 95.413932 98.018529 95.328239 98.225411 95.328239 98.441098 
C 95.328239 98.656784 95.413932 98.863666 95.566446 99.016179 
C 95.718959 99.168693 95.925841 99.254386 96.141528 99.254386 
z
" clip-path="url(#pf59251191a)" style="stroke: #000000"/>
    <path d="M 94.72842 96.130479 
C 94.989378 96.130479 95.239684 96.026799 95.424209 95.842274 
C 95.608735 95.657748 95.712415 95.407443 95.712415 95.146484 
C 95.712415 94.885526 95.608735 94.63522 95.424209 94.450695 
C 95.239684 94.266169 94.989378 94.162489 94.72842 94.162489 
C 94.467461 94.162489 94.217156 94.266169 94.03263 94.450695 
C 93.848105 94.63522 93.744425 94.885526 93.744425 95.146484 
C 93.744425 95.407443 93.848105 95.657748 94.03263 95.842274 
C 94.217156 96.026799 94.467461 96.130479 94.72842 96.130479 
z
" clip-path="url(#pf59251191a)" style="stroke: #000000"/>
    <path d="M 90.672267 79.299991 
C 90.804868 79.299991 90.932057 79.247308 91.02582 79.153545 
C 91.119584 79.059781 91.172267 78.932593 91.172267 78.799991 
C 91.172267 78.66739 91.119584 78.540201 91.02582 78.446438 
C 90.932057 78.352674 90.804868 78.299991 90.672267 78.299991 
C 90.539665 78.299991 90.412477 78.352674 90.318713 78.446438 
C 90.22495 78.540201 90.172267 78.66739 90.172267 78.799991 
C 90.172267 78.932593 90.22495 79.059781 90.318713 79.153545 
C 90.412477 79.247308 90.539665 79.299991 90.672267 79.299991 
z
" clip-path="url(#pf59251191a)" style="stroke: #000000"/>
    <path d="M 88.036369 76.151264 
C 88.168971 76.151264 88.296159 76.098581 88.389923 76.004818 
C 88.483686 75.911054 88.536369 75.783866 88.536369 75.651264 
C 88.536369 75.518663 88.483686 75.391474 88.389923 75.297711 
C 88.296159 75.203947 88.168971 75.151264 88.036369 75.151264 
C 87.903768 75.151264 87.77658 75.203947 87.682816 75.297711 
C 87.589053 75.391474 87.536369 75.518663 87.536369 75.651264 
C 87.536369 75.783866 87.589053 75.911054 87.682816 76.004818 
C 87.77658 76.098581 87.903768 76.151264 88.036369 76.151264 
z
" clip-path="url(#pf59251191a)" style="stroke: #000000"/>
    <path d="M 106.213086 139.129329 
C 106.345687 139.129329 106.472876 139.076646 106.566639 138.982882 
C 106.660403 138.889119 106.713086 138.761931 106.713086 138.629329 
C 106.713086 138.496727 106.660403 138.369539 106.566639 138.275776 
C 106.472876 138.182012 106.345687 138.129329 106.213086 138.129329 
C 106.080484 138.129329 105.953296 138.182012 105.859532 138.275776 
C 105.765769 138.369539 105.713086 138.496727 105.713086 138.629329 
C 105.713086 138.761931 105.765769 138.889119 105.859532 138.982882 
C 105.953296 139.076646 106.080484 139.129329 106.213086 139.129329 
z
" clip-path="url(#pf59251191a)" style="stroke: #000000"/>
    <path d="M 103.749299 129.120216 
C 103.923813 129.120216 104.091202 129.050881 104.214602 128.927481 
C 104.338001 128.804082 104.407336 128.636692 104.407336 128.462179 
C 104.407336 128.287665 104.338001 128.120276 104.214602 127.996876 
C 104.091202 127.873477 103.923813 127.804142 103.749299 127.804142 
C 103.574786 127.804142 103.407396 127.873477 103.283997 127.996876 
C 103.160597 128.120276 103.091262 128.287665 103.091262 128.462179 
C 103.091262 128.636692 103.160597 128.804082 103.283997 128.927481 
C 103.407396 129.050881 103.574786 129.120216 103.749299 129.120216 
z
" clip-path="url(#pf59251191a)" style="stroke: #000000"/>
    <path d="M 97.161736 111.879598 
C 97.74987 111.879598 98.313995 111.64593 98.729868 111.230056 
C 99.145742 110.814182 99.37941 110.250058 99.37941 109.661923 
C 99.37941 109.073789 99.145742 108.509665 98.729868 108.093791 
C 98.313995 107.677917 97.74987 107.444249 97.161736 107.444249 
C 96.573602 107.444249 96.009477 107.677917 95.593603 108.093791 
C 95.17773 108.509665 94.944061 109.073789 94.944061 109.661923 
C 94.944061 110.250058 95.17773 110.814182 95.593603 111.230056 
C 96.009477 111.64593 96.573602 111.879598 97.161736 111.879598 
z
" clip-path="url(#pf59251191a)" style="stroke: #000000"/>
    <path d="M 94.105186 109.991557 
C 94.555496 109.991557 94.987423 109.812647 95.30584 109.494229 
C 95.624257 109.175812 95.803167 108.743885 95.803167 108.293575 
C 95.803167 107.843265 95.624257 107.411338 95.30584 107.092921 
C 94.987423 106.774504 94.555496 106.595594 94.105186 106.595594 
C 93.654876 106.595594 93.222949 106.774504 92.904532 107.092921 
C 92.586115 107.411338 92.407205 107.843265 92.407205 108.293575 
C 92.407205 108.743885 92.586115 109.175812 92.904532 109.494229 
C 93.222949 109.812647 93.654876 109.991557 94.105186 109.991557 
z
" clip-path="url(#pf59251191a)" style="stroke: #000000"/>
    <path d="M 94.818206 102.472832 
C 94.950807 102.472832 95.077996 102.420148 95.171759 102.326385 
C 95.265523 102.232621 95.318206 102.105433 95.318206 101.972832 
C 95.318206 101.84023 95.265523 101.713042 95.171759 101.619278 
C 95.077996 101.525515 94.950807 101.472832 94.818206 101.472832 
C 94.685604 101.472832 94.558416 101.525515 94.464653 101.619278 
C 94.370889 101.713042 94.318206 101.84023 94.318206 101.972832 
C 94.318206 102.105433 94.370889 102.232621 94.464653 102.326385 
C 94.558416 102.420148 94.685604 102.472832 94.818206 102.472832 
z
" clip-path="url(#pf59251191a)" style="stroke: #000000"/>
    <path d="M 90.081174 98.9458 
C 90.576053 98.9458 91.05073 98.749182 91.400662 98.39925 
C 91.750595 98.049318 91.947212 97.574641 91.947212 97.079762 
C 91.947212 96.584883 91.750595 96.110206 91.400662 95.760274 
C 91.05073 95.410342 90.576053 95.213724 90.081174 95.213724 
C 89.586295 95.213724 89.111619 95.410342 88.761686 95.760274 
C 88.411754 96.110206 88.215137 96.584883 88.215137 97.079762 
C 88.215137 97.574641 88.411754 98.049318 88.761686 98.39925 
C 89.111619 98.749182 89.586295 98.9458 90.081174 98.9458 
z
" clip-path="url(#pf59251191a)" style="stroke: #000000"/>
    <path d="M 90.962018 96.21276 
C 91.09462 96.21276 91.221808 96.160077 91.315571 96.066313 
C 91.409335 95.97255 91.462018 95.845361 91.462018 95.71276 
C 91.462018 95.580158 91.409335 95.45297 91.315571 95.359206 
C 91.221808 95.265443 91.09462 95.21276 90.962018 95.21276 
C 90.829417 95.21276 90.702228 95.265443 90.608465 95.359206 
C 90.514701 95.45297 90.462018 95.580158 90.462018 95.71276 
C 90.462018 95.845361 90.514701 95.97255 90.608465 96.066313 
C 90.702228 96.160077 90.829417 96.21276 90.962018 96.21276 
z
" clip-path="url(#pf59251191a)" style="stroke: #000000"/>
    <path d="M 89.50164 88.702514 
C 89.748439 88.702514 89.985163 88.604459 90.159677 88.429946 
C 90.33419 88.255432 90.432244 88.018708 90.432244 87.771909 
C 90.432244 87.52511 90.33419 87.288385 90.159677 87.113872 
C 89.985163 86.939358 89.748439 86.841304 89.50164 86.841304 
C 89.25484 86.841304 89.018116 86.939358 88.843603 87.113872 
C 88.669089 87.288385 88.571035 87.52511 88.571035 87.771909 
C 88.571035 88.018708 88.669089 88.255432 88.843603 88.429946 
C 89.018116 88.604459 89.25484 88.702514 89.50164 88.702514 
z
" clip-path="url(#pf59251191a)" style="stroke: #000000"/>
    <path d="M 85.660089 87.156525 
C 86.070761 87.156525 86.464669 86.993363 86.755058 86.702974 
C 87.045447 86.412585 87.208609 86.018677 87.208609 85.608005 
C 87.208609 85.197332 87.045447 84.803425 86.755058 84.513035 
C 86.464669 84.222646 86.070761 84.059484 85.660089 84.059484 
C 85.249416 84.059484 84.855508 84.222646 84.565119 84.513035 
C 84.27473 84.803425 84.111568 85.197332 84.111568 85.608005 
C 84.111568 86.018677 84.27473 86.412585 84.565119 86.702974 
C 84.855508 86.993363 85.249416 87.156525 85.660089 87.156525 
z
" clip-path="url(#pf59251191a)" style="stroke: #000000"/>
    <path d="M 86.250569 82.528112 
C 86.383171 82.528112 86.510359 82.475429 86.604123 82.381665 
C 86.697886 82.287902 86.750569 82.160714 86.750569 82.028112 
C 86.750569 81.89551 86.697886 81.768322 86.604123 81.674559 
C 86.510359 81.580795 86.383171 81.528112 86.250569 81.528112 
C 86.117968 81.528112 85.990779 81.580795 85.897016 81.674559 
C 85.803252 81.768322 85.750569 81.89551 85.750569 82.028112 
C 85.750569 82.160714 85.803252 82.287902 85.897016 82.381665 
C 85.990779 82.475429 86.117968 82.528112 86.250569 82.528112 
z
" clip-path="url(#pf59251191a)" style="stroke: #000000"/>
    <path d="M 83.319392 68.244338 
C 83.477082 68.244338 83.628336 68.181687 83.73984 68.070183 
C 83.851344 67.958679 83.913995 67.807425 83.913995 67.649735 
C 83.913995 67.492044 83.851344 67.340791 83.73984 67.229286 
C 83.628336 67.117782 83.477082 67.055131 83.319392 67.055131 
C 83.161701 67.055131 83.010448 67.117782 82.898943 67.229286 
C 82.787439 67.340791 82.724788 67.492044 82.724788 67.649735 
C 82.724788 67.807425 82.787439 67.958679 82.898943 68.070183 
C 83.010448 68.181687 83.161701 68.244338 83.319392 68.244338 
z
" clip-path="url(#pf59251191a)" style="stroke: #000000"/>
    <path d="M 80.227347 63.732696 
C 80.359949 63.732696 80.487137 63.680012 80.580901 63.586249 
C 80.674664 63.492486 80.727347 63.365297 80.727347 63.232696 
C 80.727347 63.100094 80.674664 62.972906 80.580901 62.879142 
C 80.487137 62.785379 80.359949 62.732696 80.227347 62.732696 
C 80.094746 62.732696 79.967557 62.785379 79.873794 62.879142 
C 79.78003 62.972906 79.727347 63.100094 79.727347 63.232696 
C 79.727347 63.365297 79.78003 63.492486 79.873794 63.586249 
C 79.967557 63.680012 80.094746 63.732696 80.227347 63.732696 
z
" clip-path="url(#pf59251191a)" style="stroke: #000000"/>
    <path d="M 103.23423 142.499873 
C 103.408744 142.499873 103.576133 142.430538 103.699533 142.307138 
C 103.822932 142.183738 103.892267 142.016349 103.892267 141.841836 
C 103.892267 141.667322 103.822932 141.499933 103.699533 141.376533 
C 103.576133 141.253134 103.408744 141.183799 103.23423 141.183799 
C 103.059717 141.183799 102.892327 141.253134 102.768928 141.376533 
C 102.645528 141.499933 102.576193 141.667322 102.576193 141.841836 
C 102.576193 142.016349 102.645528 142.183738 102.768928 142.307138 
C 102.892327 142.430538 103.059717 142.499873 103.23423 142.499873 
z
" clip-path="url(#pf59251191a)" style="stroke: #000000"/>
    <path d="M 92.390253 120.468343 
C 92.799805 120.468343 93.192638 120.305626 93.482235 120.016029 
C 93.771832 119.726432 93.934548 119.333599 93.934548 118.924047 
C 93.934548 118.514495 93.771832 118.121663 93.482235 117.832066 
C 93.192638 117.542469 92.799805 117.379752 92.390253 117.379752 
C 91.980701 117.379752 91.587868 117.542469 91.298271 117.832066 
C 91.008674 118.121663 90.845958 118.514495 90.845958 118.924047 
C 90.845958 119.333599 91.008674 119.726432 91.298271 120.016029 
C 91.587868 120.305626 91.980701 120.468343 92.390253 120.468343 
z
" clip-path="url(#pf59251191a)" style="stroke: #000000"/>
    <path d="M 93.592643 114.900607 
C 94.08365 114.900607 94.554614 114.705528 94.901808 114.358333 
C 95.249003 114.011138 95.444082 113.540175 95.444082 113.049168 
C 95.444082 112.55816 95.249003 112.087197 94.901808 111.740002 
C 94.554614 111.392808 94.08365 111.197728 93.592643 111.197728 
C 93.101636 111.197728 92.630672 111.392808 92.283478 111.740002 
C 91.936283 112.087197 91.741204 112.55816 91.741204 113.049168 
C 91.741204 113.540175 91.936283 114.011138 92.283478 114.358333 
C 92.630672 114.705528 93.101636 114.900607 93.592643 114.900607 
z
" clip-path="url(#pf59251191a)" style="stroke: #000000"/>
    <path d="M 89.263432 108.242827 
C 89.396033 108.242827 89.523222 108.190144 89.616985 108.09638 
C 89.710748 108.002617 89.763432 107.875429 89.763432 107.742827 
C 89.763432 107.610225 89.710748 107.483037 89.616985 107.389274 
C 89.523222 107.29551 89.396033 107.242827 89.263432 107.242827 
C 89.13083 107.242827 89.003642 107.29551 88.909878 107.389274 
C 88.816115 107.483037 88.763432 107.610225 88.763432 107.742827 
C 88.763432 107.875429 88.816115 108.002617 88.909878 108.09638 
C 89.003642 108.190144 89.13083 108.242827 89.263432 108.242827 
z
" clip-path="url(#pf59251191a)" style="stroke: #000000"/>
    <path d="M 88.559372 103.246513 
C 88.908399 103.246513 89.243178 103.107844 89.489977 102.861044 
C 89.736776 102.614245 89.875446 102.279466 89.875446 101.930439 
C 89.875446 101.581412 89.736776 101.246634 89.489977 100.999835 
C 89.243178 100.753035 88.908399 100.614365 88.559372 100.614365 
C 88.210345 100.614365 87.875566 100.753035 87.628767 100.999835 
C 87.381968 101.246634 87.243298 101.581412 87.243298 101.930439 
C 87.243298 102.279466 87.381968 102.614245 87.628767 102.861044 
C 87.875566 103.107844 88.210345 103.246513 88.559372 103.246513 
z
" clip-path="url(#pf59251191a)" style="stroke: #000000"/>
    <path d="M 84.960939 92.986816 
C 85.159224 92.986816 85.349415 92.908036 85.489624 92.767827 
C 85.629833 92.627618 85.708613 92.437427 85.708613 92.239142 
C 85.708613 92.040856 85.629833 91.850665 85.489624 91.710456 
C 85.349415 91.570247 85.159224 91.491467 84.960939 91.491467 
C 84.762653 91.491467 84.572462 91.570247 84.432253 91.710456 
C 84.292044 91.850665 84.213264 92.040856 84.213264 92.239142 
C 84.213264 92.437427 84.292044 92.627618 84.432253 92.767827 
C 84.572462 92.908036 84.762653 92.986816 84.960939 92.986816 
z
" clip-path="url(#pf59251191a)" style="stroke: #000000"/>
    <path d="M 83.9099 88.866467 
C 84.398936 88.866467 84.868009 88.672171 85.213811 88.32637 
C 85.559612 87.980568 85.753908 87.511495 85.753908 87.022459 
C 85.753908 86.533422 85.559612 86.064349 85.213811 85.718548 
C 84.868009 85.372746 84.398936 85.17845 83.9099 85.17845 
C 83.420863 85.17845 82.95179 85.372746 82.605989 85.718548 
C 82.260188 86.064349 82.065891 86.533422 82.065891 87.022459 
C 82.065891 87.511495 82.260188 87.980568 82.605989 88.32637 
C 82.95179 88.672171 83.420863 88.866467 83.9099 88.866467 
z
" clip-path="url(#pf59251191a)" style="stroke: #000000"/>
    <path d="M 80.249141 84.730681 
C 80.611882 84.730681 80.959814 84.586563 81.21631 84.330067 
C 81.472806 84.073571 81.616924 83.725639 81.616924 83.362899 
C 81.616924 83.000159 81.472806 82.652227 81.21631 82.395731 
C 80.959814 82.139235 80.611882 81.995117 80.249141 81.995117 
C 79.886401 81.995117 79.538469 82.139235 79.281973 82.395731 
C 79.025477 82.652227 78.881359 83.000159 78.881359 83.362899 
C 78.881359 83.725639 79.025477 84.073571 79.281973 84.330067 
C 79.538469 84.586563 79.886401 84.730681 80.249141 84.730681 
z
" clip-path="url(#pf59251191a)" style="stroke: #000000"/>
    <path d="M 79.124059 77.951098 
C 79.28175 77.951098 79.433003 77.888447 79.544507 77.776943 
C 79.656011 77.665439 79.718662 77.514185 79.718662 77.356495 
C 79.718662 77.198804 79.656011 77.047551 79.544507 76.936046 
C 79.433003 76.824542 79.28175 76.761891 79.124059 76.761891 
C 78.966368 76.761891 78.815115 76.824542 78.703611 76.936046 
C 78.592106 77.047551 78.529455 77.198804 78.529455 77.356495 
C 78.529455 77.514185 78.592106 77.665439 78.703611 77.776943 
C 78.815115 77.888447 78.966368 77.951098 79.124059 77.951098 
z
" clip-path="url(#pf59251191a)" style="stroke: #000000"/>
    <path d="M 77.187942 71.661336 
C 77.320544 71.661336 77.447732 71.608653 77.541495 71.51489 
C 77.635259 71.421126 77.687942 71.293938 77.687942 71.161336 
C 77.687942 71.028735 77.635259 70.901546 77.541495 70.807783 
C 77.447732 70.71402 77.320544 70.661336 77.187942 70.661336 
C 77.05534 70.661336 76.928152 70.71402 76.834389 70.807783 
C 76.740625 70.901546 76.687942 71.028735 76.687942 71.161336 
C 76.687942 71.293938 76.740625 71.421126 76.834389 71.51489 
C 76.928152 71.608653 77.05534 71.661336 77.187942 71.661336 
z
" clip-path="url(#pf59251191a)" style="stroke: #000000"/>
    <path d="M 92.669493 130.087921 
C 93.095969 130.087921 93.505035 129.91848 93.806599 129.616916 
C 94.108163 129.315352 94.277604 128.906286 94.277604 128.47981 
C 94.277604 128.053334 94.108163 127.644268 93.806599 127.342704 
C 93.505035 127.04114 93.095969 126.871699 92.669493 126.871699 
C 92.243017 126.871699 91.833951 127.04114 91.532387 127.342704 
C 91.230823 127.644268 91.061382 128.053334 91.061382 128.47981 
C 91.061382 128.906286 91.230823 129.315352 91.532387 129.616916 
C 91.833951 129.91848 92.243017 130.087921 92.669493 130.087921 
z
" clip-path="url(#pf59251191a)" style="stroke: #000000"/>
    <path d="M 88.539853 120.248422 
C 88.796349 120.248422 89.042374 120.146515 89.223744 119.965145 
C 89.405114 119.783775 89.507021 119.53775 89.507021 119.281254 
C 89.507021 119.024758 89.405114 118.778733 89.223744 118.597363 
C 89.042374 118.415993 88.796349 118.314086 88.539853 118.314086 
C 88.283357 118.314086 88.037332 118.415993 87.855962 118.597363 
C 87.674591 118.778733 87.572685 119.024758 87.572685 119.281254 
C 87.572685 119.53775 87.674591 119.783775 87.855962 119.965145 
C 88.037332 120.146515 88.283357 120.248422 88.539853 120.248422 
z
" clip-path="url(#pf59251191a)" style="stroke: #000000"/>
    <path d="M 88.272579 117.012257 
C 88.711458 117.012257 89.132419 116.837889 89.442753 116.527555 
C 89.753087 116.217222 89.927455 115.79626 89.927455 115.357382 
C 89.927455 114.918503 89.753087 114.497542 89.442753 114.187208 
C 89.132419 113.876874 88.711458 113.702506 88.272579 113.702506 
C 87.833701 113.702506 87.41274 113.876874 87.102406 114.187208 
C 86.792072 114.497542 86.617704 114.918503 86.617704 115.357382 
C 86.617704 115.79626 86.792072 116.217222 87.102406 116.527555 
C 87.41274 116.837889 87.833701 117.012257 88.272579 117.012257 
z
" clip-path="url(#pf59251191a)" style="stroke: #000000"/>
    <path d="M 86.720104 111.798591 
C 86.877795 111.798591 87.029048 111.73594 87.140553 111.624436 
C 87.252057 111.512932 87.314708 111.361679 87.314708 111.203988 
C 87.314708 111.046297 87.252057 110.895044 87.140553 110.78354 
C 87.029048 110.672036 86.877795 110.609384 86.720104 110.609384 
C 86.562414 110.609384 86.41116 110.672036 86.299656 110.78354 
C 86.188152 110.895044 86.125501 111.046297 86.125501 111.203988 
C 86.125501 111.361679 86.188152 111.512932 86.299656 111.624436 
C 86.41116 111.73594 86.562414 111.798591 86.720104 111.798591 
z
" clip-path="url(#pf59251191a)" style="stroke: #000000"/>
    <path d="M 83.880597 107.911629 
C 84.456986 107.911629 85.009845 107.682627 85.417414 107.275059 
C 85.824982 106.86749 86.053984 106.314631 86.053984 105.738242 
C 86.053984 105.161853 85.824982 104.608994 85.417414 104.201425 
C 85.009845 103.793857 84.456986 103.564855 83.880597 103.564855 
C 83.304208 103.564855 82.751349 103.793857 82.343781 104.201425 
C 81.936212 104.608994 81.70721 105.161853 81.70721 105.738242 
C 81.70721 106.314631 81.936212 106.86749 82.343781 107.275059 
C 82.751349 107.682627 83.304208 107.911629 83.880597 107.911629 
z
" clip-path="url(#pf59251191a)" style="stroke: #000000"/>
    <path d="M 81.801746 96.385527 
C 82.031419 96.385527 82.251716 96.294277 82.414119 96.131874 
C 82.576522 95.969471 82.667772 95.749174 82.667772 95.519502 
C 82.667772 95.289829 82.576522 95.069532 82.414119 94.907129 
C 82.251716 94.744726 82.031419 94.653476 81.801746 94.653476 
C 81.572074 94.653476 81.351777 94.744726 81.189374 94.907129 
C 81.026971 95.069532 80.935721 95.289829 80.935721 95.519502 
C 80.935721 95.749174 81.026971 95.969471 81.189374 96.131874 
C 81.351777 96.294277 81.572074 96.385527 81.801746 96.385527 
z
" clip-path="url(#pf59251191a)" style="stroke: #000000"/>
    <path d="M 79.383954 92.964443 
C 79.784192 92.964443 80.168091 92.805427 80.451102 92.522416 
C 80.734112 92.239405 80.893129 91.855506 80.893129 91.455268 
C 80.893129 91.05503 80.734112 90.671131 80.451102 90.38812 
C 80.168091 90.105109 79.784192 89.946093 79.383954 89.946093 
C 78.983716 89.946093 78.599817 90.105109 78.316806 90.38812 
C 78.033795 90.671131 77.874779 91.05503 77.874779 91.455268 
C 77.874779 91.855506 78.033795 92.239405 78.316806 92.522416 
C 78.599817 92.805427 78.983716 92.964443 79.383954 92.964443 
z
" clip-path="url(#pf59251191a)" style="stroke: #000000"/>
    <path d="M 76.074791 79.785016 
C 76.483214 79.785016 76.874963 79.622749 77.163761 79.33395 
C 77.452559 79.045152 77.614827 78.653403 77.614827 78.244981 
C 77.614827 77.836559 77.452559 77.44481 77.163761 77.156012 
C 76.874963 76.867214 76.483214 76.704946 76.074791 76.704946 
C 75.666369 76.704946 75.27462 76.867214 74.985822 77.156012 
C 74.697024 77.44481 74.534756 77.836559 74.534756 78.244981 
C 74.534756 78.653403 74.697024 79.045152 74.985822 79.33395 
C 75.27462 79.622749 75.666369 79.785016 76.074791 79.785016 
z
" clip-path="url(#pf59251191a)" style="stroke: #000000"/>
    <path d="M 74.137495 71.211382 
C 74.345027 71.211382 74.544088 71.128928 74.690836 70.98218 
C 74.837583 70.835433 74.920037 70.636372 74.920037 70.428839 
C 74.920037 70.221307 74.837583 70.022246 74.690836 69.875498 
C 74.544088 69.728751 74.345027 69.646297 74.137495 69.646297 
C 73.929962 69.646297 73.730902 69.728751 73.584154 69.875498 
C 73.437406 70.022246 73.354952 70.221307 73.354952 70.428839 
C 73.354952 70.636372 73.437406 70.835433 73.584154 70.98218 
C 73.730902 71.128928 73.929962 71.211382 74.137495 71.211382 
z
" clip-path="url(#pf59251191a)" style="stroke: #000000"/>
    <path d="M 64.534465 50.028882 
C 64.692156 50.028882 64.843409 49.966231 64.954913 49.854727 
C 65.066418 49.743222 65.129069 49.591969 65.129069 49.434278 
C 65.129069 49.276588 65.066418 49.125334 64.954913 49.01383 
C 64.843409 48.902326 64.692156 48.839675 64.534465 48.839675 
C 64.376775 48.839675 64.225521 48.902326 64.114017 49.01383 
C 64.002513 49.125334 63.939862 49.276588 63.939862 49.434278 
C 63.939862 49.591969 64.002513 49.743222 64.114017 49.854727 
C 64.225521 49.966231 64.376775 50.028882 64.534465 50.028882 
z
" clip-path="url(#pf59251191a)" style="stroke: #000000"/>
    <path d="M 90.34043 139.115244 
C 90.581919 139.115244 90.813549 139.019299 90.984307 138.848541 
C 91.155066 138.677783 91.25101 138.446152 91.25101 138.204664 
C 91.25101 137.963175 91.155066 137.731545 90.984307 137.560786 
C 90.813549 137.390028 90.581919 137.294084 90.34043 137.294084 
C 90.098941 137.294084 89.867311 137.390028 89.696552 137.560786 
C 89.525794 137.731545 89.42985 137.963175 89.42985 138.204664 
C 89.42985 138.446152 89.525794 138.677783 89.696552 138.848541 
C 89.867311 139.019299 90.098941 139.115244 90.34043 139.115244 
z
" clip-path="url(#pf59251191a)" style="stroke: #000000"/>
    <path d="M 87.047327 130.398557 
C 87.205018 130.398557 87.356272 130.335906 87.467776 130.224402 
C 87.57928 130.112898 87.641931 129.961644 87.641931 129.803954 
C 87.641931 129.646263 87.57928 129.49501 87.467776 129.383505 
C 87.356272 129.272001 87.205018 129.20935 87.047327 129.20935 
C 86.889637 129.20935 86.738383 129.272001 86.626879 129.383505 
C 86.515375 129.49501 86.452724 129.646263 86.452724 129.803954 
C 86.452724 129.961644 86.515375 130.112898 86.626879 130.224402 
C 86.738383 130.335906 86.889637 130.398557 87.047327 130.398557 
z
" clip-path="url(#pf59251191a)" style="stroke: #000000"/>
    <path d="M 86.16314 125.551236 
C 86.512167 125.551236 86.846946 125.412566 87.093745 125.165767 
C 87.340545 124.918967 87.479214 124.584189 87.479214 124.235162 
C 87.479214 123.886135 87.340545 123.551356 87.093745 123.304557 
C 86.846946 123.057758 86.512167 122.919088 86.16314 122.919088 
C 85.814113 122.919088 85.479335 123.057758 85.232535 123.304557 
C 84.985736 123.551356 84.847066 123.886135 84.847066 124.235162 
C 84.847066 124.584189 84.985736 124.918967 85.232535 125.165767 
C 85.479335 125.412566 85.814113 125.551236 86.16314 125.551236 
z
" clip-path="url(#pf59251191a)" style="stroke: #000000"/>
    <path d="M 85.970947 119.973592 
C 86.407985 119.973592 86.827182 119.799955 87.136214 119.490922 
C 87.445246 119.18189 87.618883 118.762693 87.618883 118.325655 
C 87.618883 117.888617 87.445246 117.469421 87.136214 117.160388 
C 86.827182 116.851356 86.407985 116.677719 85.970947 116.677719 
C 85.533909 116.677719 85.114712 116.851356 84.80568 117.160388 
C 84.496647 117.469421 84.32301 117.888617 84.32301 118.325655 
C 84.32301 118.762693 84.496647 119.18189 84.80568 119.490922 
C 85.114712 119.799955 85.533909 119.973592 85.970947 119.973592 
z
" clip-path="url(#pf59251191a)" style="stroke: #000000"/>
    <path d="M 83.676369 116.699774 
C 84.057151 116.699774 84.422388 116.548488 84.691641 116.279235 
C 84.960894 116.009981 85.11218 115.644744 85.11218 115.263963 
C 85.11218 114.883182 84.960894 114.517945 84.691641 114.248691 
C 84.422388 113.979438 84.057151 113.828152 83.676369 113.828152 
C 83.295588 113.828152 82.930351 113.979438 82.661098 114.248691 
C 82.391845 114.517945 82.240559 114.883182 82.240559 115.263963 
C 82.240559 115.644744 82.391845 116.009981 82.661098 116.279235 
C 82.930351 116.548488 83.295588 116.699774 83.676369 116.699774 
z
" clip-path="url(#pf59251191a)" style="stroke: #000000"/>
    <path d="M 82.058978 114.920015 
C 82.459216 114.920015 82.843115 114.760999 83.126126 114.477988 
C 83.409137 114.194977 83.568153 113.811078 83.568153 113.41084 
C 83.568153 113.010602 83.409137 112.626703 83.126126 112.343693 
C 82.843115 112.060682 82.459216 111.901665 82.058978 111.901665 
C 81.658741 111.901665 81.274842 112.060682 80.991831 112.343693 
C 80.70882 112.626703 80.549804 113.010602 80.549804 113.41084 
C 80.549804 113.811078 80.70882 114.194977 80.991831 114.477988 
C 81.274842 114.760999 81.658741 114.920015 82.058978 114.920015 
z
" clip-path="url(#pf59251191a)" style="stroke: #000000"/>
    <path d="M 80.210445 109.118862 
C 80.68497 109.118862 81.140124 108.930331 81.475665 108.594791 
C 81.811205 108.25925 81.999736 107.804096 81.999736 107.329571 
C 81.999736 106.855045 81.811205 106.399891 81.475665 106.064351 
C 81.140124 105.728811 80.68497 105.54028 80.210445 105.54028 
C 79.735919 105.54028 79.280765 105.728811 78.945225 106.064351 
C 78.609685 106.399891 78.421154 106.855045 78.421154 107.329571 
C 78.421154 107.804096 78.609685 108.25925 78.945225 108.594791 
C 79.280765 108.930331 79.735919 109.118862 80.210445 109.118862 
z
" clip-path="url(#pf59251191a)" style="stroke: #000000"/>
    <path d="M 77.288581 99.370267 
C 77.687608 99.370267 78.070345 99.211732 78.3525 98.929577 
C 78.634654 98.647423 78.793189 98.264685 78.793189 97.865658 
C 78.793189 97.466631 78.634654 97.083894 78.3525 96.80174 
C 78.070345 96.519585 77.687608 96.36105 77.288581 96.36105 
C 76.889554 96.36105 76.506817 96.519585 76.224662 96.80174 
C 75.942508 97.083894 75.783972 97.466631 75.783972 97.865658 
C 75.783972 98.264685 75.942508 98.647423 76.224662 98.929577 
C 76.506817 99.211732 76.889554 99.370267 77.288581 99.370267 
z
" clip-path="url(#pf59251191a)" style="stroke: #000000"/>
    <path d="M 75.139463 95.929649 
C 75.727216 95.929649 76.290977 95.696132 76.706581 95.280527 
C 77.122186 94.864923 77.355703 94.301163 77.355703 93.713409 
C 77.355703 93.125655 77.122186 92.561895 76.706581 92.14629 
C 76.290977 91.730686 75.727216 91.497169 75.139463 91.497169 
C 74.551709 91.497169 73.987949 91.730686 73.572344 92.14629 
C 73.15674 92.561895 72.923223 93.125655 72.923223 93.713409 
C 72.923223 94.301163 73.15674 94.864923 73.572344 95.280527 
C 73.987949 95.696132 74.551709 95.929649 75.139463 95.929649 
z
" clip-path="url(#pf59251191a)" style="stroke: #000000"/>
    <path d="M 74.128597 90.436727 
C 74.261199 90.436727 74.388387 90.384044 74.482151 90.290281 
C 74.575914 90.196517 74.628597 90.069329 74.628597 89.936727 
C 74.628597 89.804126 74.575914 89.676938 74.482151 89.583174 
C 74.388387 89.489411 74.261199 89.436727 74.128597 89.436727 
C 73.995996 89.436727 73.868807 89.489411 73.775044 89.583174 
C 73.68128 89.676938 73.628597 89.804126 73.628597 89.936727 
C 73.628597 90.069329 73.68128 90.196517 73.775044 90.290281 
C 73.868807 90.384044 73.995996 90.436727 74.128597 90.436727 
z
" clip-path="url(#pf59251191a)" style="stroke: #000000"/>
    <path d="M 72.723927 87.653443 
C 73.216881 87.653443 73.689712 87.45759 74.038284 87.109019 
C 74.386855 86.760447 74.582708 86.287616 74.582708 85.794662 
C 74.582708 85.301707 74.386855 84.828876 74.038284 84.480304 
C 73.689712 84.131733 73.216881 83.93588 72.723927 83.93588 
C 72.230972 83.93588 71.758141 84.131733 71.40957 84.480304 
C 71.060998 84.828876 70.865145 85.301707 70.865145 85.794662 
C 70.865145 86.287616 71.060998 86.760447 71.40957 87.109019 
C 71.758141 87.45759 72.230972 87.653443 72.723927 87.653443 
z
" clip-path="url(#pf59251191a)" style="stroke: #000000"/>
    <path d="M 84.045461 135.122271 
C 84.398068 135.122271 84.736281 134.982178 84.985612 134.732847 
C 85.234943 134.483516 85.375035 134.145304 85.375035 133.792697 
C 85.375035 133.440089 85.234943 133.101877 84.985612 132.852546 
C 84.736281 132.603215 84.398068 132.463123 84.045461 132.463123 
C 83.692854 132.463123 83.354641 132.603215 83.105311 132.852546 
C 82.85598 133.101877 82.715887 133.440089 82.715887 133.792697 
C 82.715887 134.145304 82.85598 134.483516 83.105311 134.732847 
C 83.354641 134.982178 83.692854 135.122271 84.045461 135.122271 
z
" clip-path="url(#pf59251191a)" style="stroke: #000000"/>
    <path d="M 83.563194 132.366783 
C 84.061232 132.366783 84.538938 132.16891 84.891103 131.816745 
C 85.243269 131.464579 85.441141 130.986873 85.441141 130.488836 
C 85.441141 129.990799 85.243269 129.513093 84.891103 129.160927 
C 84.538938 128.808762 84.061232 128.610889 83.563194 128.610889 
C 83.065157 128.610889 82.587451 128.808762 82.235286 129.160927 
C 81.88312 129.513093 81.685248 129.990799 81.685248 130.488836 
C 81.685248 130.986873 81.88312 131.464579 82.235286 131.816745 
C 82.587451 132.16891 83.065157 132.366783 83.563194 132.366783 
z
" clip-path="url(#pf59251191a)" style="stroke: #000000"/>
    <path d="M 79.517801 124.736176 
C 79.861241 124.736176 80.190662 124.599726 80.433511 124.356876 
C 80.67636 124.114027 80.812811 123.784607 80.812811 123.441166 
C 80.812811 123.097725 80.67636 122.768305 80.433511 122.525456 
C 80.190662 122.282606 79.861241 122.146156 79.517801 122.146156 
C 79.17436 122.146156 78.84494 122.282606 78.60209 122.525456 
C 78.359241 122.768305 78.222791 123.097725 78.222791 123.441166 
C 78.222791 123.784607 78.359241 124.114027 78.60209 124.356876 
C 78.84494 124.599726 79.17436 124.736176 79.517801 124.736176 
z
" clip-path="url(#pf59251191a)" style="stroke: #000000"/>
    <path d="M 76.202801 114.744726 
C 76.614585 114.744726 77.009558 114.581122 77.300733 114.289947 
C 77.591909 113.998772 77.755512 113.603798 77.755512 113.192014 
C 77.755512 112.78023 77.591909 112.385257 77.300733 112.094081 
C 77.009558 111.802906 76.614585 111.639303 76.202801 111.639303 
C 75.791017 111.639303 75.396043 111.802906 75.104868 112.094081 
C 74.813693 112.385257 74.650089 112.78023 74.650089 113.192014 
C 74.650089 113.603798 74.813693 113.998772 75.104868 114.289947 
C 75.396043 114.581122 75.791017 114.744726 76.202801 114.744726 
z
" clip-path="url(#pf59251191a)" style="stroke: #000000"/>
    <path d="M 75.045653 109.653515 
C 75.546174 109.653515 76.026263 109.454656 76.380185 109.100734 
C 76.734107 108.746812 76.932966 108.266723 76.932966 107.766202 
C 76.932966 107.265681 76.734107 106.785592 76.380185 106.43167 
C 76.026263 106.077748 75.546174 105.878889 75.045653 105.878889 
C 74.545131 105.878889 74.065043 106.077748 73.71112 106.43167 
C 73.357198 106.785592 73.158339 107.265681 73.158339 107.766202 
C 73.158339 108.266723 73.357198 108.746812 73.71112 109.100734 
C 74.065043 109.454656 74.545131 109.653515 75.045653 109.653515 
z
" clip-path="url(#pf59251191a)" style="stroke: #000000"/>
    <path d="M 74.809232 105.835333 
C 75.070191 105.835333 75.320496 105.731653 75.505022 105.547128 
C 75.689547 105.362602 75.793227 105.112297 75.793227 104.851338 
C 75.793227 104.59038 75.689547 104.340074 75.505022 104.155549 
C 75.320496 103.971023 75.070191 103.867344 74.809232 103.867344 
C 74.548274 103.867344 74.297969 103.971023 74.113443 104.155549 
C 73.928918 104.340074 73.825238 104.59038 73.825238 104.851338 
C 73.825238 105.112297 73.928918 105.362602 74.113443 105.547128 
C 74.297969 105.731653 74.548274 105.835333 74.809232 105.835333 
z
" clip-path="url(#pf59251191a)" style="stroke: #000000"/>
    <path d="M 74.634413 100.272238 
C 75.139194 100.272238 75.623369 100.071686 75.980303 99.714752 
C 76.337238 99.357817 76.53779 98.873642 76.53779 98.368861 
C 76.53779 97.864079 76.337238 97.379905 75.980303 97.02297 
C 75.623369 96.666036 75.139194 96.465484 74.634413 96.465484 
C 74.129631 96.465484 73.645456 96.666036 73.288522 97.02297 
C 72.931587 97.379905 72.731036 97.864079 72.731036 98.368861 
C 72.731036 98.873642 72.931587 99.357817 73.288522 99.714752 
C 73.645456 100.071686 74.129631 100.272238 74.634413 100.272238 
z
" clip-path="url(#pf59251191a)" style="stroke: #000000"/>
    <path d="M 72.099254 95.396174 
C 72.626524 95.396174 73.13227 95.186687 73.505107 94.81385 
C 73.877944 94.441013 74.087431 93.935267 74.087431 93.407997 
C 74.087431 92.880726 73.877944 92.37498 73.505107 92.002144 
C 73.13227 91.629307 72.626524 91.41982 72.099254 91.41982 
C 71.571983 91.41982 71.066237 91.629307 70.6934 92.002144 
C 70.320564 92.37498 70.111077 92.880726 70.111077 93.407997 
C 70.111077 93.935267 70.320564 94.441013 70.6934 94.81385 
C 71.066237 95.186687 71.571983 95.396174 72.099254 95.396174 
z
" clip-path="url(#pf59251191a)" style="stroke: #000000"/>
    <path d="M 67.590059 89.359023 
C 68.161127 89.359023 68.708883 89.132135 69.112689 88.728328 
C 69.516496 88.324522 69.743384 87.776766 69.743384 87.205697 
C 69.743384 86.634629 69.516496 86.086873 69.112689 85.683067 
C 68.708883 85.27926 68.161127 85.052372 67.590059 85.052372 
C 67.01899 85.052372 66.471234 85.27926 66.067428 85.683067 
C 65.663621 86.086873 65.436733 86.634629 65.436733 87.205697 
C 65.436733 87.776766 65.663621 88.324522 66.067428 88.728328 
C 66.471234 89.132135 67.01899 89.359023 67.590059 89.359023 
z
" clip-path="url(#pf59251191a)" style="stroke: #000000"/>
    <path d="M 65.948755 86.734231 
C 66.428265 86.734231 66.8882 86.54372 67.227264 86.204655 
C 67.566329 85.865591 67.75684 85.405656 67.75684 84.926146 
C 67.75684 84.446636 67.566329 83.986701 67.227264 83.647636 
C 66.8882 83.308571 66.428265 83.11806 65.948755 83.11806 
C 65.469245 83.11806 65.00931 83.308571 64.670245 83.647636 
C 64.33118 83.986701 64.140669 84.446636 64.140669 84.926146 
C 64.140669 85.405656 64.33118 85.865591 64.670245 86.204655 
C 65.00931 86.54372 65.469245 86.734231 65.948755 86.734231 
z
" clip-path="url(#pf59251191a)" style="stroke: #000000"/>
    <path d="M 61.852261 69.656141 
C 62.009951 69.656141 62.161205 69.59349 62.272709 69.481986 
C 62.384213 69.370481 62.446864 69.219228 62.446864 69.061537 
C 62.446864 68.903847 62.384213 68.752593 62.272709 68.641089 
C 62.161205 68.529585 62.009951 68.466934 61.852261 68.466934 
C 61.69457 68.466934 61.543317 68.529585 61.431813 68.641089 
C 61.320308 68.752593 61.257657 68.903847 61.257657 69.061537 
C 61.257657 69.219228 61.320308 69.370481 61.431813 69.481986 
C 61.543317 69.59349 61.69457 69.656141 61.852261 69.656141 
z
" clip-path="url(#pf59251191a)" style="stroke: #000000"/>
    <path d="M 86.174234 149.154015 
C 86.306836 149.154015 86.434024 149.101332 86.527788 149.007568 
C 86.621551 148.913805 86.674234 148.786617 86.674234 148.654015 
C 86.674234 148.521413 86.621551 148.394225 86.527788 148.300462 
C 86.434024 148.206698 86.306836 148.154015 86.174234 148.154015 
C 86.041633 148.154015 85.914444 148.206698 85.820681 148.300462 
C 85.726917 148.394225 85.674234 148.521413 85.674234 148.654015 
C 85.674234 148.786617 85.726917 148.913805 85.820681 149.007568 
C 85.914444 149.101332 86.041633 149.154015 86.174234 149.154015 
z
" clip-path="url(#pf59251191a)" style="stroke: #000000"/>
    <path d="M 80.700023 136.731278 
C 81.100261 136.731278 81.48416 136.572262 81.767171 136.289251 
C 82.050182 136.00624 82.209198 135.622341 82.209198 135.222103 
C 82.209198 134.821865 82.050182 134.437966 81.767171 134.154956 
C 81.48416 133.871945 81.100261 133.712929 80.700023 133.712929 
C 80.299785 133.712929 79.915886 133.871945 79.632876 134.154956 
C 79.349865 134.437966 79.190848 134.821865 79.190848 135.222103 
C 79.190848 135.622341 79.349865 136.00624 79.632876 136.289251 
C 79.915886 136.572262 80.299785 136.731278 80.700023 136.731278 
z
" clip-path="url(#pf59251191a)" style="stroke: #000000"/>
    <path d="M 80.414054 132.343635 
C 80.990039 132.343635 81.542511 132.114794 81.949794 131.707511 
C 82.357077 131.300228 82.585918 130.747757 82.585918 130.171772 
C 82.585918 129.595787 82.357077 129.043315 81.949794 128.636033 
C 81.542511 128.22875 80.990039 127.999909 80.414054 127.999909 
C 79.838069 127.999909 79.285598 128.22875 78.878315 128.636033 
C 78.471032 129.043315 78.242191 129.595787 78.242191 130.171772 
C 78.242191 130.747757 78.471032 131.300228 78.878315 131.707511 
C 79.285598 132.114794 79.838069 132.343635 80.414054 132.343635 
z
" clip-path="url(#pf59251191a)" style="stroke: #000000"/>
    <path d="M 77.202028 128.750357 
C 77.564768 128.750357 77.9127 128.606239 78.169196 128.349743 
C 78.425692 128.093247 78.56981 127.745315 78.56981 127.382575 
C 78.56981 127.019835 78.425692 126.671903 78.169196 126.415407 
C 77.9127 126.158911 77.564768 126.014792 77.202028 126.014792 
C 76.839288 126.014792 76.491356 126.158911 76.23486 126.415407 
C 75.978364 126.671903 75.834245 127.019835 75.834245 127.382575 
C 75.834245 127.745315 75.978364 128.093247 76.23486 128.349743 
C 76.491356 128.606239 76.839288 128.750357 77.202028 128.750357 
z
" clip-path="url(#pf59251191a)" style="stroke: #000000"/>
    <path d="M 76.501318 125.705447 
C 76.828356 125.705447 77.142044 125.575513 77.373296 125.344261 
C 77.604547 125.11301 77.734481 124.799322 77.734481 124.472284 
C 77.734481 124.145245 77.604547 123.831557 77.373296 123.600306 
C 77.142044 123.369055 76.828356 123.239121 76.501318 123.239121 
C 76.174279 123.239121 75.860591 123.369055 75.62934 123.600306 
C 75.398089 123.831557 75.268155 124.145245 75.268155 124.472284 
C 75.268155 124.799322 75.398089 125.11301 75.62934 125.344261 
C 75.860591 125.575513 76.174279 125.705447 76.501318 125.705447 
z
" clip-path="url(#pf59251191a)" style="stroke: #000000"/>
    <path d="M 74.377908 118.962197 
C 74.593595 118.962197 74.800476 118.876504 74.95299 118.723991 
C 75.105503 118.571477 75.191197 118.364596 75.191197 118.148909 
C 75.191197 117.933222 75.105503 117.726341 74.95299 117.573827 
C 74.800476 117.421314 74.593595 117.335621 74.377908 117.335621 
C 74.162222 117.335621 73.95534 117.421314 73.802827 117.573827 
C 73.650313 117.726341 73.56462 117.933222 73.56462 118.148909 
C 73.56462 118.364596 73.650313 118.571477 73.802827 118.723991 
C 73.95534 118.876504 74.162222 118.962197 74.377908 118.962197 
z
" clip-path="url(#pf59251191a)" style="stroke: #000000"/>
    <path d="M 72.392261 116.435475 
C 72.898836 116.435475 73.384731 116.234211 73.742933 115.876009 
C 74.101136 115.517806 74.3024 115.031911 74.3024 114.525337 
C 74.3024 114.018762 74.101136 113.532867 73.742933 113.174665 
C 73.384731 112.816462 72.898836 112.615198 72.392261 112.615198 
C 71.885687 112.615198 71.399792 112.816462 71.041589 113.174665 
C 70.683387 113.532867 70.482123 114.018762 70.482123 114.525337 
C 70.482123 115.031911 70.683387 115.517806 71.041589 115.876009 
C 71.399792 116.234211 71.885687 116.435475 72.392261 116.435475 
z
" clip-path="url(#pf59251191a)" style="stroke: #000000"/>
    <path d="M 71.451986 111.815403 
C 71.851012 111.815403 72.23375 111.656868 72.515904 111.374714 
C 72.798059 111.092559 72.956594 110.709822 72.956594 110.310795 
C 72.956594 109.911768 72.798059 109.529031 72.515904 109.246876 
C 72.23375 108.964722 71.851012 108.806187 71.451986 108.806187 
C 71.052959 108.806187 70.670221 108.964722 70.388067 109.246876 
C 70.105912 109.529031 69.947377 109.911768 69.947377 110.310795 
C 69.947377 110.709822 70.105912 111.092559 70.388067 111.374714 
C 70.670221 111.656868 71.052959 111.815403 71.451986 111.815403 
z
" clip-path="url(#pf59251191a)" style="stroke: #000000"/>
    <path d="M 68.575789 107.109821 
C 69.100404 107.109821 69.603602 106.90139 69.97456 106.530431 
C 70.345518 106.159473 70.55395 105.656275 70.55395 105.131661 
C 70.55395 104.607046 70.345518 104.103848 69.97456 103.73289 
C 69.603602 103.361932 69.100404 103.1535 68.575789 103.1535 
C 68.051175 103.1535 67.547977 103.361932 67.177019 103.73289 
C 66.80606 104.103848 66.597629 104.607046 66.597629 105.131661 
C 66.597629 105.656275 66.80606 106.159473 67.177019 106.530431 
C 67.547977 106.90139 68.051175 107.109821 68.575789 107.109821 
z
" clip-path="url(#pf59251191a)" style="stroke: #000000"/>
    <path d="M 66.864388 98.254484 
C 66.996989 98.254484 67.124178 98.201801 67.217941 98.108038 
C 67.311705 98.014274 67.364388 97.887086 67.364388 97.754484 
C 67.364388 97.621883 67.311705 97.494694 67.217941 97.400931 
C 67.124178 97.307167 66.996989 97.254484 66.864388 97.254484 
C 66.731786 97.254484 66.604598 97.307167 66.510834 97.400931 
C 66.417071 97.494694 66.364388 97.621883 66.364388 97.754484 
C 66.364388 97.887086 66.417071 98.014274 66.510834 98.108038 
C 66.604598 98.201801 66.731786 98.254484 66.864388 98.254484 
z
" clip-path="url(#pf59251191a)" style="stroke: #000000"/>
    <path d="M 63.99081 94.086833 
C 64.348591 94.086833 64.691767 93.944685 64.944756 93.691696 
C 65.197746 93.438706 65.339894 93.095531 65.339894 92.737749 
C 65.339894 92.379968 65.197746 92.036793 64.944756 91.783803 
C 64.691767 91.530813 64.348591 91.388665 63.99081 91.388665 
C 63.633029 91.388665 63.289853 91.530813 63.036864 91.783803 
C 62.783874 92.036793 62.641726 92.379968 62.641726 92.737749 
C 62.641726 93.095531 62.783874 93.438706 63.036864 93.691696 
C 63.289853 93.944685 63.633029 94.086833 63.99081 94.086833 
z
" clip-path="url(#pf59251191a)" style="stroke: #000000"/>
    <path d="M 62.945157 89.042686 
C 63.102848 89.042686 63.254101 88.980035 63.365605 88.868531 
C 63.47711 88.757027 63.539761 88.605774 63.539761 88.448083 
C 63.539761 88.290392 63.47711 88.139139 63.365605 88.027635 
C 63.254101 87.916131 63.102848 87.853479 62.945157 87.853479 
C 62.787466 87.853479 62.636213 87.916131 62.524709 88.027635 
C 62.413205 88.139139 62.350554 88.290392 62.350554 88.448083 
C 62.350554 88.605774 62.413205 88.757027 62.524709 88.868531 
C 62.636213 88.980035 62.787466 89.042686 62.945157 89.042686 
z
" clip-path="url(#pf59251191a)" style="stroke: #000000"/>
    <path d="M 60.686755 84.86077 
C 60.844446 84.86077 60.995699 84.798119 61.107203 84.686615 
C 61.218707 84.57511 61.281359 84.423857 61.281359 84.266166 
C 61.281359 84.108476 61.218707 83.957222 61.107203 83.845718 
C 60.995699 83.734214 60.844446 83.671563 60.686755 83.671563 
C 60.529064 83.671563 60.377811 83.734214 60.266307 83.845718 
C 60.154803 83.957222 60.092152 84.108476 60.092152 84.266166 
C 60.092152 84.423857 60.154803 84.57511 60.266307 84.686615 
C 60.377811 84.798119 60.529064 84.86077 60.686755 84.86077 
z
" clip-path="url(#pf59251191a)" style="stroke: #000000"/>
    <path d="M 60.090234 81.352843 
C 60.247924 81.352843 60.399178 81.290192 60.510682 81.178687 
C 60.622186 81.067183 60.684837 80.91593 60.684837 80.758239 
C 60.684837 80.600549 60.622186 80.449295 60.510682 80.337791 
C 60.399178 80.226287 60.247924 80.163636 60.090234 80.163636 
C 59.932543 80.163636 59.78129 80.226287 59.669786 80.337791 
C 59.558281 80.449295 59.49563 80.600549 59.49563 80.758239 
C 59.49563 80.91593 59.558281 81.067183 59.669786 81.178687 
C 59.78129 81.290192 59.932543 81.352843 60.090234 81.352843 
z
" clip-path="url(#pf59251191a)" style="stroke: #000000"/>
    <path d="M 76.040274 139.158201 
C 76.197965 139.158201 76.349218 139.09555 76.460723 138.984046 
C 76.572227 138.872542 76.634878 138.721289 76.634878 138.563598 
C 76.634878 138.405907 76.572227 138.254654 76.460723 138.14315 
C 76.349218 138.031646 76.197965 137.968994 76.040274 137.968994 
C 75.882584 137.968994 75.73133 138.031646 75.619826 138.14315 
C 75.508322 138.254654 75.445671 138.405907 75.445671 138.563598 
C 75.445671 138.721289 75.508322 138.872542 75.619826 138.984046 
C 75.73133 139.09555 75.882584 139.158201 76.040274 139.158201 
z
" clip-path="url(#pf59251191a)" style="stroke: #000000"/>
    <path d="M 74.031601 131.00125 
C 74.365076 131.00125 74.684938 130.868759 74.920741 130.632956 
C 75.156543 130.397154 75.289034 130.077292 75.289034 129.743816 
C 75.289034 129.410341 75.156543 129.090479 74.920741 128.854677 
C 74.684938 128.618874 74.365076 128.486383 74.031601 128.486383 
C 73.698126 128.486383 73.378264 128.618874 73.142461 128.854677 
C 72.906659 129.090479 72.774168 129.410341 72.774168 129.743816 
C 72.774168 130.077292 72.906659 130.397154 73.142461 130.632956 
C 73.378264 130.868759 73.698126 131.00125 74.031601 131.00125 
z
" clip-path="url(#pf59251191a)" style="stroke: #000000"/>
    <path d="M 71.476046 125.652185 
C 71.838786 125.652185 72.186718 125.508067 72.443214 125.251571 
C 72.69971 124.995075 72.843828 124.647143 72.843828 124.284402 
C 72.843828 123.921662 72.69971 123.57373 72.443214 123.317234 
C 72.186718 123.060738 71.838786 122.91662 71.476046 122.91662 
C 71.113306 122.91662 70.765373 123.060738 70.508877 123.317234 
C 70.252381 123.57373 70.108263 123.921662 70.108263 124.284402 
C 70.108263 124.647143 70.252381 124.995075 70.508877 125.251571 
C 70.765373 125.508067 71.113306 125.652185 71.476046 125.652185 
z
" clip-path="url(#pf59251191a)" style="stroke: #000000"/>
    <path d="M 69.341389 120.577998 
C 69.640816 120.577998 69.92802 120.459034 70.139748 120.247307 
C 70.351475 120.03558 70.470439 119.748376 70.470439 119.448948 
C 70.470439 119.14952 70.351475 118.862316 70.139748 118.650589 
C 69.92802 118.438861 69.640816 118.319898 69.341389 118.319898 
C 69.041961 118.319898 68.754757 118.438861 68.543029 118.650589 
C 68.331302 118.862316 68.212338 119.14952 68.212338 119.448948 
C 68.212338 119.748376 68.331302 120.03558 68.543029 120.247307 
C 68.754757 120.459034 69.041961 120.577998 69.341389 120.577998 
z
" clip-path="url(#pf59251191a)" style="stroke: #000000"/>
    <path d="M 69.384321 116.441764 
C 69.516922 116.441764 69.64411 116.389081 69.737874 116.295318 
C 69.831637 116.201554 69.884321 116.074366 69.884321 115.941764 
C 69.884321 115.809163 69.831637 115.681975 69.737874 115.588211 
C 69.64411 115.494448 69.516922 115.441764 69.384321 115.441764 
C 69.251719 115.441764 69.124531 115.494448 69.030767 115.588211 
C 68.937004 115.681975 68.884321 115.809163 68.884321 115.941764 
C 68.884321 116.074366 68.937004 116.201554 69.030767 116.295318 
C 69.124531 116.389081 69.251719 116.441764 69.384321 116.441764 
z
" clip-path="url(#pf59251191a)" style="stroke: #000000"/>
    <path d="M 66.401929 112.524775 
C 66.895528 112.524775 67.368976 112.328667 67.718003 111.97964 
C 68.06703 111.630613 68.263139 111.157164 68.263139 110.663566 
C 68.263139 110.169967 68.06703 109.696519 67.718003 109.347492 
C 67.368976 108.998465 66.895528 108.802356 66.401929 108.802356 
C 65.90833 108.802356 65.434882 108.998465 65.085855 109.347492 
C 64.736828 109.696519 64.540719 110.169967 64.540719 110.663566 
C 64.540719 111.157164 64.736828 111.630613 65.085855 111.97964 
C 65.434882 112.328667 65.90833 112.524775 66.401929 112.524775 
z
" clip-path="url(#pf59251191a)" style="stroke: #000000"/>
    <path d="M 64.90069 109.010234 
C 65.31467 109.010234 65.71175 108.845758 66.004478 108.553029 
C 66.297206 108.260301 66.461682 107.863221 66.461682 107.449241 
C 66.461682 107.035261 66.297206 106.63818 66.004478 106.345452 
C 65.71175 106.052724 65.31467 105.888248 64.90069 105.888248 
C 64.486709 105.888248 64.089629 106.052724 63.796901 106.345452 
C 63.504173 106.63818 63.339697 107.035261 63.339697 107.449241 
C 63.339697 107.863221 63.504173 108.260301 63.796901 108.553029 
C 64.089629 108.845758 64.486709 109.010234 64.90069 109.010234 
z
" clip-path="url(#pf59251191a)" style="stroke: #000000"/>
    <path d="M 63.333423 104.3058 
C 63.840591 104.3058 64.327056 104.1043 64.685678 103.745678 
C 65.0443 103.387056 65.2458 102.900592 65.2458 102.393424 
C 65.2458 101.886255 65.0443 101.399791 64.685678 101.041169 
C 64.327056 100.682547 63.840591 100.481047 63.333423 100.481047 
C 62.826255 100.481047 62.339791 100.682547 61.981169 101.041169 
C 61.622546 101.399791 61.421046 101.886255 61.421046 102.393424 
C 61.421046 102.900592 61.622546 103.387056 61.981169 103.745678 
C 62.339791 104.1043 62.826255 104.3058 63.333423 104.3058 
z
" clip-path="url(#pf59251191a)" style="stroke: #000000"/>
    <path d="M 62.330576 100.848949 
C 62.812866 100.848949 63.275468 100.657333 63.616498 100.316303 
C 63.957529 99.975272 64.149144 99.512671 64.149144 99.030381 
C 64.149144 98.548091 63.957529 98.08549 63.616498 97.74446 
C 63.275468 97.403429 62.812866 97.211813 62.330576 97.211813 
C 61.848287 97.211813 61.385685 97.403429 61.044655 97.74446 
C 60.703624 98.08549 60.512009 98.548091 60.512009 99.030381 
C 60.512009 99.512671 60.703624 99.975272 61.044655 100.316303 
C 61.385685 100.657333 61.848287 100.848949 62.330576 100.848949 
z
" clip-path="url(#pf59251191a)" style="stroke: #000000"/>
    <path d="M 59.618673 91.219202 
C 59.816959 91.219202 60.00715 91.140422 60.147359 91.000213 
C 60.287568 90.860004 60.366348 90.669813 60.366348 90.471528 
C 60.366348 90.273242 60.287568 90.083051 60.147359 89.942842 
C 60.00715 89.802633 59.816959 89.723853 59.618673 89.723853 
C 59.420388 89.723853 59.230197 89.802633 59.089987 89.942842 
C 58.949778 90.083051 58.870999 90.273242 58.870999 90.471528 
C 58.870999 90.669813 58.949778 90.860004 59.089987 91.000213 
C 59.230197 91.140422 59.420388 91.219202 59.618673 91.219202 
z
" clip-path="url(#pf59251191a)" style="stroke: #000000"/>
    <path d="M 58.488419 86.198369 
C 58.896841 86.198369 59.28859 86.036101 59.577388 85.747303 
C 59.866186 85.458505 60.028454 85.066756 60.028454 84.658334 
C 60.028454 84.249912 59.866186 83.858163 59.577388 83.569365 
C 59.28859 83.280567 58.896841 83.118299 58.488419 83.118299 
C 58.079997 83.118299 57.688248 83.280567 57.39945 83.569365 
C 57.110652 83.858163 56.948384 84.249912 56.948384 84.658334 
C 56.948384 85.066756 57.110652 85.458505 57.39945 85.747303 
C 57.688248 86.036101 58.079997 86.198369 58.488419 86.198369 
z
" clip-path="url(#pf59251191a)" style="stroke: #000000"/>
    <path d="M 50.341079 68.500063 
C 50.473681 68.500063 50.600869 68.44738 50.694633 68.353616 
C 50.788396 68.259853 50.841079 68.132665 50.841079 68.000063 
C 50.841079 67.867461 50.788396 67.740273 50.694633 67.64651 
C 50.600869 67.552746 50.473681 67.500063 50.341079 67.500063 
C 50.208478 67.500063 50.081289 67.552746 49.987526 67.64651 
C 49.893762 67.740273 49.841079 67.867461 49.841079 68.000063 
C 49.841079 68.132665 49.893762 68.259853 49.987526 68.353616 
C 50.081289 68.44738 50.208478 68.500063 50.341079 68.500063 
z
" clip-path="url(#pf59251191a)" style="stroke: #000000"/>
    <path d="M 49.525495 60.62725 
C 49.658097 60.62725 49.785285 60.574567 49.879049 60.480804 
C 49.972812 60.38704 50.025495 60.259852 50.025495 60.12725 
C 50.025495 59.994649 49.972812 59.86746 49.879049 59.773697 
C 49.785285 59.679933 49.658097 59.62725 49.525495 59.62725 
C 49.392894 59.62725 49.265705 59.679933 49.171942 59.773697 
C 49.078179 59.86746 49.025495 59.994649 49.025495 60.12725 
C 49.025495 60.259852 49.078179 60.38704 49.171942 60.480804 
C 49.265705 60.574567 49.392894 60.62725 49.525495 60.62725 
z
" clip-path="url(#pf59251191a)" style="stroke: #000000"/>
    <path d="M 69.539105 139.315731 
C 69.785904 139.315731 70.022628 139.217677 70.197142 139.043163 
C 70.371655 138.86865 70.469709 138.631926 70.469709 138.385126 
C 70.469709 138.138327 70.371655 137.901603 70.197142 137.727089 
C 70.022628 137.552576 69.785904 137.454522 69.539105 137.454522 
C 69.292305 137.454522 69.055581 137.552576 68.881068 137.727089 
C 68.706554 137.901603 68.6085 138.138327 68.6085 138.385126 
C 68.6085 138.631926 68.706554 138.86865 68.881068 139.043163 
C 69.055581 139.217677 69.292305 139.315731 69.539105 139.315731 
z
" clip-path="url(#pf59251191a)" style="stroke: #000000"/>
    <path d="M 70.35514 134.77531 
C 70.512831 134.77531 70.664084 134.712659 70.775588 134.601155 
C 70.887093 134.489651 70.949744 134.338397 70.949744 134.180707 
C 70.949744 134.023016 70.887093 133.871763 70.775588 133.760259 
C 70.664084 133.648754 70.512831 133.586103 70.35514 133.586103 
C 70.197449 133.586103 70.046196 133.648754 69.934692 133.760259 
C 69.823188 133.871763 69.760537 134.023016 69.760537 134.180707 
C 69.760537 134.338397 69.823188 134.489651 69.934692 134.601155 
C 70.046196 134.712659 70.197449 134.77531 70.35514 134.77531 
z
" clip-path="url(#pf59251191a)" style="stroke: #000000"/>
    <path d="M 67.749584 132.339375 
C 68.089144 132.339375 68.414841 132.204467 68.654946 131.964362 
C 68.895051 131.724257 69.029959 131.39856 69.029959 131.059 
C 69.029959 130.719441 68.895051 130.393743 68.654946 130.153639 
C 68.414841 129.913534 68.089144 129.778626 67.749584 129.778626 
C 67.410025 129.778626 67.084327 129.913534 66.844223 130.153639 
C 66.604118 130.393743 66.469209 130.719441 66.469209 131.059 
C 66.469209 131.39856 66.604118 131.724257 66.844223 131.964362 
C 67.084327 132.204467 67.410025 132.339375 67.749584 132.339375 
z
" clip-path="url(#pf59251191a)" style="stroke: #000000"/>
    <path d="M 67.515141 127.767632 
C 67.88572 127.767632 68.241171 127.620399 68.50321 127.35836 
C 68.765249 127.096321 68.912482 126.74087 68.912482 126.370291 
C 68.912482 125.999711 68.765249 125.64426 68.50321 125.382221 
C 68.241171 125.120182 67.88572 124.97295 67.515141 124.97295 
C 67.144561 124.97295 66.78911 125.120182 66.527071 125.382221 
C 66.265032 125.64426 66.117799 125.999711 66.117799 126.370291 
C 66.117799 126.74087 66.265032 127.096321 66.527071 127.35836 
C 66.78911 127.620399 67.144561 127.767632 67.515141 127.767632 
z
" clip-path="url(#pf59251191a)" style="stroke: #000000"/>
    <path d="M 65.885139 123.911057 
C 66.26592 123.911057 66.631157 123.759771 66.90041 123.490518 
C 67.169663 123.221265 67.320949 122.856028 67.320949 122.475247 
C 67.320949 122.094465 67.169663 121.729228 66.90041 121.459975 
C 66.631157 121.190722 66.26592 121.039436 65.885139 121.039436 
C 65.504357 121.039436 65.13912 121.190722 64.869867 121.459975 
C 64.600614 121.729228 64.449328 122.094465 64.449328 122.475247 
C 64.449328 122.856028 64.600614 123.221265 64.869867 123.490518 
C 65.13912 123.759771 65.504357 123.911057 65.885139 123.911057 
z
" clip-path="url(#pf59251191a)" style="stroke: #000000"/>
    <path d="M 61.000198 105.679076 
C 61.508547 105.679076 61.996144 105.477107 62.355601 105.11765 
C 62.715058 104.758193 62.917027 104.270596 62.917027 103.762247 
C 62.917027 103.253898 62.715058 102.766301 62.355601 102.406844 
C 61.996144 102.047387 61.508547 101.845418 61.000198 101.845418 
C 60.491849 101.845418 60.004252 102.047387 59.644795 102.406844 
C 59.285338 102.766301 59.083368 103.253898 59.083368 103.762247 
C 59.083368 104.270596 59.285338 104.758193 59.644795 105.11765 
C 60.004252 105.477107 60.491849 105.679076 61.000198 105.679076 
z
" clip-path="url(#pf59251191a)" style="stroke: #000000"/>
    <path d="M 57.390452 100.966357 
C 57.548143 100.966357 57.699397 100.903705 57.810901 100.792201 
C 57.922405 100.680697 57.985056 100.529444 57.985056 100.371753 
C 57.985056 100.214062 57.922405 100.062809 57.810901 99.951305 
C 57.699397 99.839801 57.548143 99.77715 57.390452 99.77715 
C 57.232762 99.77715 57.081508 99.839801 56.970004 99.951305 
C 56.8585 100.062809 56.795849 100.214062 56.795849 100.371753 
C 56.795849 100.529444 56.8585 100.680697 56.970004 100.792201 
C 57.081508 100.903705 57.232762 100.966357 57.390452 100.966357 
z
" clip-path="url(#pf59251191a)" style="stroke: #000000"/>
    <path d="M 55.150225 97.496471 
C 55.581598 97.496471 55.995362 97.325085 56.300388 97.020058 
C 56.605415 96.715031 56.776802 96.301268 56.776802 95.869895 
C 56.776802 95.438522 56.605415 95.024758 56.300388 94.719731 
C 55.995362 94.414705 55.581598 94.243318 55.150225 94.243318 
C 54.718852 94.243318 54.305089 94.414705 54.000062 94.719731 
C 53.695035 95.024758 53.523649 95.438522 53.523649 95.869895 
C 53.523649 96.301268 53.695035 96.715031 54.000062 97.020058 
C 54.305089 97.325085 54.718852 97.496471 55.150225 97.496471 
z
" clip-path="url(#pf59251191a)" style="stroke: #000000"/>
    <path d="M 54.836159 90.869984 
C 54.968761 90.869984 55.095949 90.817301 55.189713 90.723538 
C 55.283476 90.629774 55.336159 90.502586 55.336159 90.369984 
C 55.336159 90.237383 55.283476 90.110194 55.189713 90.016431 
C 55.095949 89.922668 54.968761 89.869984 54.836159 89.869984 
C 54.703558 89.869984 54.576369 89.922668 54.482606 90.016431 
C 54.388842 90.110194 54.336159 90.237383 54.336159 90.369984 
C 54.336159 90.502586 54.388842 90.629774 54.482606 90.723538 
C 54.576369 90.817301 54.703558 90.869984 54.836159 90.869984 
z
" clip-path="url(#pf59251191a)" style="stroke: #000000"/>
    <path d="M 53.117732 88.102156 
C 53.250333 88.102156 53.377522 88.049473 53.471285 87.95571 
C 53.565049 87.861946 53.617732 87.734758 53.617732 87.602156 
C 53.617732 87.469555 53.565049 87.342366 53.471285 87.248603 
C 53.377522 87.154839 53.250333 87.102156 53.117732 87.102156 
C 52.98513 87.102156 52.857942 87.154839 52.764178 87.248603 
C 52.670415 87.342366 52.617732 87.469555 52.617732 87.602156 
C 52.617732 87.734758 52.670415 87.861946 52.764178 87.95571 
C 52.857942 88.049473 52.98513 88.102156 53.117732 88.102156 
z
" clip-path="url(#pf59251191a)" style="stroke: #000000"/>
    <path d="M 69.081747 150.183286 
C 69.214349 150.183286 69.341537 150.130603 69.435301 150.036839 
C 69.529064 149.943076 69.581747 149.815888 69.581747 149.683286 
C 69.581747 149.550684 69.529064 149.423496 69.435301 149.329733 
C 69.341537 149.235969 69.214349 149.183286 69.081747 149.183286 
C 68.949146 149.183286 68.821957 149.235969 68.728194 149.329733 
C 68.63443 149.423496 68.581747 149.550684 68.581747 149.683286 
C 68.581747 149.815888 68.63443 149.943076 68.728194 150.036839 
C 68.821957 150.130603 68.949146 150.183286 69.081747 150.183286 
z
" clip-path="url(#pf59251191a)" style="stroke: #000000"/>
    <path d="M 61.311199 133.208929 
C 61.534208 133.208929 61.748112 133.120327 61.905803 132.962636 
C 62.063494 132.804945 62.152096 132.591041 62.152096 132.368032 
C 62.152096 132.145024 62.063494 131.931119 61.905803 131.773429 
C 61.748112 131.615738 61.534208 131.527136 61.311199 131.527136 
C 61.088191 131.527136 60.874287 131.615738 60.716596 131.773429 
C 60.558905 131.931119 60.470303 132.145024 60.470303 132.368032 
C 60.470303 132.591041 60.558905 132.804945 60.716596 132.962636 
C 60.874287 133.120327 61.088191 133.208929 61.311199 133.208929 
z
" clip-path="url(#pf59251191a)" style="stroke: #000000"/>
    <path d="M 62.60315 130.8825 
C 63.117283 130.8825 63.610428 130.678232 63.973975 130.314685 
C 64.337522 129.951138 64.541789 129.457993 64.541789 128.94386 
C 64.541789 128.429727 64.337522 127.936582 63.973975 127.573035 
C 63.610428 127.209487 63.117283 127.00522 62.60315 127.00522 
C 62.089016 127.00522 61.595871 127.209487 61.232324 127.573035 
C 60.868777 127.936582 60.66451 128.429727 60.66451 128.94386 
C 60.66451 129.457993 60.868777 129.951138 61.232324 130.314685 
C 61.595871 130.678232 62.089016 130.8825 62.60315 130.8825 
z
" clip-path="url(#pf59251191a)" style="stroke: #000000"/>
    <path d="M 59.564859 125.11936 
C 60.155634 125.11936 60.722293 124.884642 61.140034 124.466901 
C 61.557776 124.049159 61.792494 123.482501 61.792494 122.891725 
C 61.792494 122.300949 61.557776 121.73429 61.140034 121.316549 
C 60.722293 120.898807 60.155634 120.66409 59.564859 120.66409 
C 58.974083 120.66409 58.407424 120.898807 57.989683 121.316549 
C 57.571941 121.73429 57.337223 122.300949 57.337223 122.891725 
C 57.337223 123.482501 57.571941 124.049159 57.989683 124.466901 
C 58.407424 124.884642 58.974083 125.11936 59.564859 125.11936 
z
" clip-path="url(#pf59251191a)" style="stroke: #000000"/>
    <path d="M 58.528714 120.818378 
C 59.026124 120.818378 59.503229 120.620754 59.854951 120.269032 
C 60.206674 119.91731 60.404297 119.440205 60.404297 118.942795 
C 60.404297 118.445384 60.206674 117.968279 59.854951 117.616557 
C 59.503229 117.264835 59.026124 117.067212 58.528714 117.067212 
C 58.031303 117.067212 57.554199 117.264835 57.202476 117.616557 
C 56.850754 117.968279 56.653131 118.445384 56.653131 118.942795 
C 56.653131 119.440205 56.850754 119.91731 57.202476 120.269032 
C 57.554199 120.620754 58.031303 120.818378 58.528714 120.818378 
z
" clip-path="url(#pf59251191a)" style="stroke: #000000"/>
    <path d="M 56.703457 115.398095 
C 56.836058 115.398095 56.963247 115.345412 57.05701 115.251648 
C 57.150774 115.157885 57.203457 115.030696 57.203457 114.898095 
C 57.203457 114.765493 57.150774 114.638305 57.05701 114.544541 
C 56.963247 114.450778 56.836058 114.398095 56.703457 114.398095 
C 56.570855 114.398095 56.443667 114.450778 56.349903 114.544541 
C 56.25614 114.638305 56.203457 114.765493 56.203457 114.898095 
C 56.203457 115.030696 56.25614 115.157885 56.349903 115.251648 
C 56.443667 115.345412 56.570855 115.398095 56.703457 115.398095 
z
" clip-path="url(#pf59251191a)" style="stroke: #000000"/>
    <path d="M 52.92418 107.814076 
C 53.501776 107.814076 54.055793 107.584595 54.464216 107.176173 
C 54.872638 106.767751 55.102119 106.213734 55.102119 105.636138 
C 55.102119 105.058542 54.872638 104.504525 54.464216 104.096103 
C 54.055793 103.687681 53.501776 103.458199 52.92418 103.458199 
C 52.346584 103.458199 51.792567 103.687681 51.384145 104.096103 
C 50.975723 104.504525 50.746242 105.058542 50.746242 105.636138 
C 50.746242 106.213734 50.975723 106.767751 51.384145 107.176173 
C 51.792567 107.584595 52.346584 107.814076 52.92418 107.814076 
z
" clip-path="url(#pf59251191a)" style="stroke: #000000"/>
    <path d="M 45.361816 82.254327 
C 45.549343 82.254327 45.729215 82.179822 45.861816 82.04722 
C 45.994418 81.914619 46.068923 81.734747 46.068923 81.54722 
C 46.068923 81.359693 45.994418 81.179822 45.861816 81.04722 
C 45.729215 80.914619 45.549343 80.840113 45.361816 80.840113 
C 45.174289 80.840113 44.994418 80.914619 44.861816 81.04722 
C 44.729215 81.179822 44.654709 81.359693 44.654709 81.54722 
C 44.654709 81.734747 44.729215 81.914619 44.861816 82.04722 
C 44.994418 82.179822 45.174289 82.254327 45.361816 82.254327 
z
" clip-path="url(#pf59251191a)" style="stroke: #000000"/>
    <path d="M 59.032945 136.465283 
C 59.165547 136.465283 59.292735 136.412599 59.386499 136.318836 
C 59.480262 136.225073 59.532945 136.097884 59.532945 135.965283 
C 59.532945 135.832681 59.480262 135.705493 59.386499 135.611729 
C 59.292735 135.517966 59.165547 135.465283 59.032945 135.465283 
C 58.900344 135.465283 58.773155 135.517966 58.679392 135.611729 
C 58.585628 135.705493 58.532945 135.832681 58.532945 135.965283 
C 58.532945 136.097884 58.585628 136.225073 58.679392 136.318836 
C 58.773155 136.412599 58.900344 136.465283 59.032945 136.465283 
z
" clip-path="url(#pf59251191a)" style="stroke: #000000"/>
    <path d="M 58.547719 135.980944 
C 58.945524 135.980944 59.327089 135.822895 59.608379 135.541605 
C 59.88967 135.260314 60.047719 134.878749 60.047719 134.480944 
C 60.047719 134.08314 59.88967 133.701575 59.608379 133.420284 
C 59.327089 133.138994 58.945524 132.980944 58.547719 132.980944 
C 58.149915 132.980944 57.768349 133.138994 57.487059 133.420284 
C 57.205769 133.701575 57.047719 134.08314 57.047719 134.480944 
C 57.047719 134.878749 57.205769 135.260314 57.487059 135.541605 
C 57.768349 135.822895 58.149915 135.980944 58.547719 135.980944 
z
" clip-path="url(#pf59251191a)" style="stroke: #000000"/>
    <path d="M 56.274566 121.244779 
C 56.736285 121.244779 57.179156 121.061336 57.505641 120.734851 
C 57.832125 120.408366 58.015568 119.965496 58.015568 119.503776 
C 58.015568 119.042057 57.832125 118.599187 57.505641 118.272702 
C 57.179156 117.946217 56.736285 117.762774 56.274566 117.762774 
C 55.812847 117.762774 55.369976 117.946217 55.043492 118.272702 
C 54.717007 118.599187 54.533564 119.042057 54.533564 119.503776 
C 54.533564 119.965496 54.717007 120.408366 55.043492 120.734851 
C 55.369976 121.061336 55.812847 121.244779 56.274566 121.244779 
z
" clip-path="url(#pf59251191a)" style="stroke: #000000"/>
    <path d="M 51.448012 112.189609 
C 51.646297 112.189609 51.836488 112.11083 51.976697 111.97062 
C 52.116906 111.830411 52.195686 111.64022 52.195686 111.441935 
C 52.195686 111.243649 52.116906 111.053458 51.976697 110.913249 
C 51.836488 110.77304 51.646297 110.69426 51.448012 110.69426 
C 51.249726 110.69426 51.059535 110.77304 50.919326 110.913249 
C 50.779117 111.053458 50.700337 111.243649 50.700337 111.441935 
C 50.700337 111.64022 50.779117 111.830411 50.919326 111.97062 
C 51.059535 112.11083 51.249726 112.189609 51.448012 112.189609 
z
" clip-path="url(#pf59251191a)" style="stroke: #000000"/>
    <path d="M 50.988768 110.546822 
C 51.392574 110.546822 51.779896 110.386388 52.065431 110.100854 
C 52.350965 109.815319 52.511399 109.427997 52.511399 109.024191 
C 52.511399 108.620385 52.350965 108.233063 52.065431 107.947528 
C 51.779896 107.661994 51.392574 107.50156 50.988768 107.50156 
C 50.584962 107.50156 50.19764 107.661994 49.912105 107.947528 
C 49.626571 108.233063 49.466137 108.620385 49.466137 109.024191 
C 49.466137 109.427997 49.626571 109.815319 49.912105 110.100854 
C 50.19764 110.386388 50.584962 110.546822 50.988768 110.546822 
z
" clip-path="url(#pf59251191a)" style="stroke: #000000"/>
    <path d="M 47.507663 103.268971 
C 47.784508 103.268971 48.050051 103.158979 48.24581 102.96322 
C 48.44157 102.767461 48.551561 102.501917 48.551561 102.225072 
C 48.551561 101.948227 48.44157 101.682683 48.24581 101.486924 
C 48.050051 101.291165 47.784508 101.181173 47.507663 101.181173 
C 47.230817 101.181173 46.965274 101.291165 46.769515 101.486924 
C 46.573755 101.682683 46.463764 101.948227 46.463764 102.225072 
C 46.463764 102.501917 46.573755 102.767461 46.769515 102.96322 
C 46.965274 103.158979 47.230817 103.268971 47.507663 103.268971 
z
" clip-path="url(#pf59251191a)" style="stroke: #000000"/>
    <path d="M 46.361029 99.135408 
C 46.493631 99.135408 46.620819 99.082725 46.714583 98.988961 
C 46.808346 98.895198 46.861029 98.768009 46.861029 98.635408 
C 46.861029 98.502806 46.808346 98.375618 46.714583 98.281854 
C 46.620819 98.188091 46.493631 98.135408 46.361029 98.135408 
C 46.228428 98.135408 46.10124 98.188091 46.007476 98.281854 
C 45.913713 98.375618 45.861029 98.502806 45.861029 98.635408 
C 45.861029 98.768009 45.913713 98.895198 46.007476 98.988961 
C 46.10124 99.082725 46.228428 99.135408 46.361029 99.135408 
z
" clip-path="url(#pf59251191a)" style="stroke: #000000"/>
    <path d="M 54.369587 130.645152 
C 54.585273 130.645152 54.792155 130.559459 54.944668 130.406946 
C 55.097182 130.254432 55.182875 130.047551 55.182875 129.831864 
C 55.182875 129.616178 55.097182 129.409296 54.944668 129.256782 
C 54.792155 129.104269 54.585273 129.018576 54.369587 129.018576 
C 54.1539 129.018576 53.947018 129.104269 53.794505 129.256782 
C 53.641991 129.409296 53.556298 129.616178 53.556298 129.831864 
C 53.556298 130.047551 53.641991 130.254432 53.794505 130.406946 
C 53.947018 130.559459 54.1539 130.645152 54.369587 130.645152 
z
" clip-path="url(#pf59251191a)" style="stroke: #000000"/>
    <path d="M 52.399979 127.03894 
C 52.55767 127.03894 52.708923 126.976288 52.820427 126.864784 
C 52.931931 126.75328 52.994582 126.602027 52.994582 126.444336 
C 52.994582 126.286645 52.931931 126.135392 52.820427 126.023888 
C 52.708923 125.912384 52.55767 125.849732 52.399979 125.849732 
C 52.242288 125.849732 52.091035 125.912384 51.979531 126.023888 
C 51.868027 126.135392 51.805375 126.286645 51.805375 126.444336 
C 51.805375 126.602027 51.868027 126.75328 51.979531 126.864784 
C 52.091035 126.976288 52.242288 127.03894 52.399979 127.03894 
z
" clip-path="url(#pf59251191a)" style="stroke: #000000"/>
    <path d="M 49.787099 121.789018 
C 49.9197 121.789018 50.046888 121.736335 50.140652 121.642572 
C 50.234415 121.548808 50.287099 121.42162 50.287099 121.289018 
C 50.287099 121.156417 50.234415 121.029228 50.140652 120.935465 
C 50.046888 120.841701 49.9197 120.789018 49.787099 120.789018 
C 49.654497 120.789018 49.527309 120.841701 49.433545 120.935465 
C 49.339782 121.029228 49.287099 121.156417 49.287099 121.289018 
C 49.287099 121.42162 49.339782 121.548808 49.433545 121.642572 
C 49.527309 121.736335 49.654497 121.789018 49.787099 121.789018 
z
" clip-path="url(#pf59251191a)" style="stroke: #000000"/>
    <path d="M 50.212708 116.456457 
C 50.420241 116.456457 50.619302 116.374004 50.766049 116.227256 
C 50.912797 116.080508 50.995251 115.881447 50.995251 115.673915 
C 50.995251 115.466382 50.912797 115.267322 50.766049 115.120574 
C 50.619302 114.973826 50.420241 114.891373 50.212708 114.891373 
C 50.005176 114.891373 49.806115 114.973826 49.659368 115.120574 
C 49.51262 115.267322 49.430166 115.466382 49.430166 115.673915 
C 49.430166 115.881447 49.51262 116.080508 49.659368 116.227256 
C 49.806115 116.374004 50.005176 116.456457 50.212708 116.456457 
z
" clip-path="url(#pf59251191a)" style="stroke: #000000"/>
    <path d="M 45.343504 109.721471 
C 45.476106 109.721471 45.603294 109.668788 45.697058 109.575025 
C 45.790821 109.481261 45.843504 109.354073 45.843504 109.221471 
C 45.843504 109.08887 45.790821 108.961682 45.697058 108.867918 
C 45.603294 108.774155 45.476106 108.721471 45.343504 108.721471 
C 45.210903 108.721471 45.083715 108.774155 44.989951 108.867918 
C 44.896188 108.961682 44.843504 109.08887 44.843504 109.221471 
C 44.843504 109.354073 44.896188 109.481261 44.989951 109.575025 
C 45.083715 109.668788 45.210903 109.721471 45.343504 109.721471 
z
" clip-path="url(#pf59251191a)" style="stroke: #000000"/>
    <path d="M 43.970657 100.434405 
C 44.158184 100.434405 44.338055 100.3599 44.470657 100.227298 
C 44.603258 100.094697 44.677764 99.914825 44.677764 99.727298 
C 44.677764 99.539771 44.603258 99.3599 44.470657 99.227298 
C 44.338055 99.094697 44.158184 99.020191 43.970657 99.020191 
C 43.78313 99.020191 43.603258 99.094697 43.470657 99.227298 
C 43.338055 99.3599 43.26355 99.539771 43.26355 99.727298 
C 43.26355 99.914825 43.338055 100.094697 43.470657 100.227298 
C 43.603258 100.3599 43.78313 100.434405 43.970657 100.434405 
z
" clip-path="url(#pf59251191a)" style="stroke: #000000"/>
    <path d="M 39.983519 93.995552 
C 40.116121 93.995552 40.243309 93.942869 40.337073 93.849105 
C 40.430836 93.755342 40.483519 93.628153 40.483519 93.495552 
C 40.483519 93.36295 40.430836 93.235762 40.337073 93.141998 
C 40.243309 93.048235 40.116121 92.995552 39.983519 92.995552 
C 39.850918 92.995552 39.723729 93.048235 39.629966 93.141998 
C 39.536203 93.235762 39.483519 93.36295 39.483519 93.495552 
C 39.483519 93.628153 39.536203 93.755342 39.629966 93.849105 
C 39.723729 93.942869 39.850918 93.995552 39.983519 93.995552 
z
" clip-path="url(#pf59251191a)" style="stroke: #000000"/>
    <path d="M 50.803565 142.210185 
C 50.961256 142.210185 51.112509 142.147534 51.224014 142.03603 
C 51.335518 141.924526 51.398169 141.773273 51.398169 141.615582 
C 51.398169 141.457891 51.335518 141.306638 51.224014 141.195134 
C 51.112509 141.083629 50.961256 141.020978 50.803565 141.020978 
C 50.645875 141.020978 50.494621 141.083629 50.383117 141.195134 
C 50.271613 141.306638 50.208962 141.457891 50.208962 141.615582 
C 50.208962 141.773273 50.271613 141.924526 50.383117 142.03603 
C 50.494621 142.147534 50.645875 142.210185 50.803565 142.210185 
z
" clip-path="url(#pf59251191a)" style="stroke: #000000"/>
    <path d="M 48.56195 135.114466 
C 48.694551 135.114466 48.82174 135.061783 48.915503 134.96802 
C 49.009267 134.874256 49.06195 134.747068 49.06195 134.614466 
C 49.06195 134.481865 49.009267 134.354676 48.915503 134.260913 
C 48.82174 134.16715 48.694551 134.114466 48.56195 134.114466 
C 48.429348 134.114466 48.30216 134.16715 48.208397 134.260913 
C 48.114633 134.354676 48.06195 134.481865 48.06195 134.614466 
C 48.06195 134.747068 48.114633 134.874256 48.208397 134.96802 
C 48.30216 135.061783 48.429348 135.114466 48.56195 135.114466 
z
" clip-path="url(#pf59251191a)" style="stroke: #000000"/>
    <path d="M 48.47409 133.034629 
C 48.631781 133.034629 48.783034 132.971978 48.894538 132.860474 
C 49.006042 132.74897 49.068694 132.597717 49.068694 132.440026 
C 49.068694 132.282335 49.006042 132.131082 48.894538 132.019578 
C 48.783034 131.908073 48.631781 131.845422 48.47409 131.845422 
C 48.316399 131.845422 48.165146 131.908073 48.053642 132.019578 
C 47.942138 132.131082 47.879487 132.282335 47.879487 132.440026 
C 47.879487 132.597717 47.942138 132.74897 48.053642 132.860474 
C 48.165146 132.971978 48.316399 133.034629 48.47409 133.034629 
z
" clip-path="url(#pf59251191a)" style="stroke: #000000"/>
    <path d="M 44.195878 119.608239 
C 44.328479 119.608239 44.455668 119.555556 44.549431 119.461792 
C 44.643195 119.368029 44.695878 119.240841 44.695878 119.108239 
C 44.695878 118.975637 44.643195 118.848449 44.549431 118.754686 
C 44.455668 118.660922 44.328479 118.608239 44.195878 118.608239 
C 44.063276 118.608239 43.936088 118.660922 43.842324 118.754686 
C 43.748561 118.848449 43.695878 118.975637 43.695878 119.108239 
C 43.695878 119.240841 43.748561 119.368029 43.842324 119.461792 
C 43.936088 119.555556 44.063276 119.608239 44.195878 119.608239 
z
" clip-path="url(#pf59251191a)" style="stroke: #000000"/>
    <path d="M 51.142853 152.052528 
C 51.275455 152.052528 51.402643 151.999845 51.496407 151.906081 
C 51.59017 151.812318 51.642853 151.68513 51.642853 151.552528 
C 51.642853 151.419926 51.59017 151.292738 51.496407 151.198975 
C 51.402643 151.105211 51.275455 151.052528 51.142853 151.052528 
C 51.010252 151.052528 50.883063 151.105211 50.7893 151.198975 
C 50.695537 151.292738 50.642853 151.419926 50.642853 151.552528 
C 50.642853 151.68513 50.695537 151.812318 50.7893 151.906081 
C 50.883063 151.999845 51.010252 152.052528 51.142853 152.052528 
z
" clip-path="url(#pf59251191a)" style="stroke: #000000"/>
    <path d="M 45.376035 138.398366 
C 45.508637 138.398366 45.635825 138.345682 45.729589 138.251919 
C 45.823352 138.158155 45.876035 138.030967 45.876035 137.898366 
C 45.876035 137.765764 45.823352 137.638576 45.729589 137.544812 
C 45.635825 137.451049 45.508637 137.398366 45.376035 137.398366 
C 45.243434 137.398366 45.116245 137.451049 45.022482 137.544812 
C 44.928719 137.638576 44.876035 137.765764 44.876035 137.898366 
C 44.876035 138.030967 44.928719 138.158155 45.022482 138.251919 
C 45.116245 138.345682 45.243434 138.398366 45.376035 138.398366 
z
" clip-path="url(#pf59251191a)" style="stroke: #000000"/>
    <path d="M 37.467104 111.21335 
C 37.599705 111.21335 37.726894 111.160667 37.820657 111.066904 
C 37.91442 110.97314 37.967104 110.845952 37.967104 110.71335 
C 37.967104 110.580749 37.91442 110.453561 37.820657 110.359797 
C 37.726894 110.266034 37.599705 110.21335 37.467104 110.21335 
C 37.334502 110.21335 37.207314 110.266034 37.11355 110.359797 
C 37.019787 110.453561 36.967104 110.580749 36.967104 110.71335 
C 36.967104 110.845952 37.019787 110.97314 37.11355 111.066904 
C 37.207314 111.160667 37.334502 111.21335 37.467104 111.21335 
z
" clip-path="url(#pf59251191a)" style="stroke: #000000"/>
    <path d="M 41.900867 139.395498 
C 42.033469 139.395498 42.160657 139.342814 42.25442 139.249051 
C 42.348184 139.155288 42.400867 139.028099 42.400867 138.895498 
C 42.400867 138.762896 42.348184 138.635708 42.25442 138.541944 
C 42.160657 138.448181 42.033469 138.395498 41.900867 138.395498 
C 41.768265 138.395498 41.641077 138.448181 41.547314 138.541944 
C 41.45355 138.635708 41.400867 138.762896 41.400867 138.895498 
C 41.400867 139.028099 41.45355 139.155288 41.547314 139.249051 
C 41.641077 139.342814 41.768265 139.395498 41.900867 139.395498 
z
" clip-path="url(#pf59251191a)" style="stroke: #000000"/>
    <path d="M 30.17834 105.317185 
C 30.310942 105.317185 30.43813 105.264502 30.531894 105.170738 
C 30.625657 105.076975 30.67834 104.949786 30.67834 104.817185 
C 30.67834 104.684583 30.625657 104.557395 30.531894 104.463632 
C 30.43813 104.369868 30.310942 104.317185 30.17834 104.317185 
C 30.045739 104.317185 29.91855 104.369868 29.824787 104.463632 
C 29.731024 104.557395 29.67834 104.684583 29.67834 104.817185 
C 29.67834 104.949786 29.731024 105.076975 29.824787 105.170738 
C 29.91855 105.264502 30.045739 105.317185 30.17834 105.317185 
z
" clip-path="url(#pf59251191a)" style="stroke: #000000"/>
    <path d="M 41.074676 164.824338 
C 41.207278 164.824338 41.334466 164.771655 41.42823 164.677892 
C 41.521993 164.584128 41.574676 164.45694 41.574676 164.324338 
C 41.574676 164.191737 41.521993 164.064548 41.42823 163.970785 
C 41.334466 163.877021 41.207278 163.824338 41.074676 163.824338 
C 40.942075 163.824338 40.814886 163.877021 40.721123 163.970785 
C 40.627359 164.064548 40.574676 164.191737 40.574676 164.324338 
C 40.574676 164.45694 40.627359 164.584128 40.721123 164.677892 
C 40.814886 164.771655 40.942075 164.824338 41.074676 164.824338 
z
" clip-path="url(#pf59251191a)" style="stroke: #000000"/>
    <path d="M 30.259097 147.219038 
C 30.391699 147.219038 30.518887 147.166355 30.61265 147.072591 
C 30.706414 146.978828 30.759097 146.851639 30.759097 146.719038 
C 30.759097 146.586436 30.706414 146.459248 30.61265 146.365484 
C 30.518887 146.271721 30.391699 146.219038 30.259097 146.219038 
C 30.126495 146.219038 29.999307 146.271721 29.905544 146.365484 
C 29.81178 146.459248 29.759097 146.586436 29.759097 146.719038 
C 29.759097 146.851639 29.81178 146.978828 29.905544 147.072591 
C 29.999307 147.166355 30.126495 147.219038 30.259097 147.219038 
z
" clip-path="url(#pf59251191a)" style="stroke: #000000"/>
   </g>
   <g id="matplotlib.axis_1">
    <g id="xtick_1">
     <g id="line2d_1">
      <defs>
       <path id="m3c07d08968" d="M 0 0 
L 0 3.5 
" style="stroke: #000000; stroke-width: 0.8"/>
      </defs>
      <g>
       <use xlink:href="#m3c07d08968" x="18" y="189" style="stroke: #000000; stroke-width: 0.8"/>
      </g>
     </g>
     <g id="text_1">
      <!-- 10 -->
      <g transform="translate(7.447656 203.598437)scale(0.1 -0.1)">
       <defs>
        <path id="DejaVuSans-2212" d="M 678 2272 
L 4684 2272 
L 4684 1741 
L 678 1741 
L 678 2272 
z
" transform="scale(0.015625)"/>
        <path id="DejaVuSans-31" d="M 794 531 
L 1825 531 
L 1825 4091 
L 703 3866 
L 703 4441 
L 1819 4666 
L 2450 4666 
L 2450 531 
L 3481 531 
L 3481 0 
L 794 0 
L 794 531 
z
" transform="scale(0.015625)"/>
        <path id="DejaVuSans-30" d="M 2034 4250 
Q 1547 4250 1301 3770 
Q 1056 3291 1056 2328 
Q 1056 1369 1301 889 
Q 1547 409 2034 409 
Q 2525 409 2770 889 
Q 3016 1369 3016 2328 
Q 3016 3291 2770 3770 
Q 2525 4250 2034 4250 
z
M 2034 4750 
Q 2819 4750 3233 4129 
Q 3647 3509 3647 2328 
Q 3647 1150 3233 529 
Q 2819 -91 2034 -91 
Q 1250 -91 836 529 
Q 422 1150 422 2328 
Q 422 3509 836 4129 
Q 1250 4750 2034 4750 
z
" transform="scale(0.015625)"/>
       </defs>
       <use xlink:href="#DejaVuSans-2212"/>
       <use xlink:href="#DejaVuSans-31" x="83.789062"/>
       <use xlink:href="#DejaVuSans-30" x="147.412109"/>
      </g>
     </g>
    </g>
    <g id="xtick_2">
     <g id="line2d_2">
      <g>
       <use xlink:href="#m3c07d08968" x="73.8" y="189" style="stroke: #000000; stroke-width: 0.8"/>
      </g>
     </g>
     <g id="text_2">
      <!-- 0 -->
      <g transform="translate(70.61875 203.598437)scale(0.1 -0.1)">
       <use xlink:href="#DejaVuSans-30"/>
      </g>
     </g>
    </g>
    <g id="xtick_3">
     <g id="line2d_3">
      <g>
       <use xlink:href="#m3c07d08968" x="129.6" y="189" style="stroke: #000000; stroke-width: 0.8"/>
      </g>
     </g>
     <g id="text_3">
      <!-- 10 -->
      <g transform="translate(123.2375 203.598437)scale(0.1 -0.1)">
       <use xlink:href="#DejaVuSans-31"/>
       <use xlink:href="#DejaVuSans-30" x="63.623047"/>
      </g>
     </g>
    </g>
   </g>
   <g id="matplotlib.axis_2">
    <g id="ytick_1">
     <g id="line2d_4">
      <defs>
       <path id="mf2c64d81dd" d="M 0 0 
L -3.5 0 
" style="stroke: #000000; stroke-width: 0.8"/>
      </defs>
      <g>
       <use xlink:href="#mf2c64d81dd" x="18" y="189" style="stroke: #000000; stroke-width: 0.8"/>
      </g>
     </g>
     <g id="text_4">
      <!-- 15 -->
      <g transform="translate(-10.104688 192.799219)scale(0.1 -0.1)">
       <defs>
        <path id="DejaVuSans-35" d="M 691 4666 
L 3169 4666 
L 3169 4134 
L 1269 4134 
L 1269 2991 
Q 1406 3038 1543 3061 
Q 1681 3084 1819 3084 
Q 2600 3084 3056 2656 
Q 3513 2228 3513 1497 
Q 3513 744 3044 326 
Q 2575 -91 1722 -91 
Q 1428 -91 1123 -41 
Q 819 9 494 109 
L 494 744 
Q 775 591 1075 516 
Q 1375 441 1709 441 
Q 2250 441 2565 725 
Q 2881 1009 2881 1497 
Q 2881 1984 2565 2268 
Q 2250 2553 1709 2553 
Q 1456 2553 1204 2497 
Q 953 2441 691 2322 
L 691 4666 
z
" transform="scale(0.015625)"/>
       </defs>
       <use xlink:href="#DejaVuSans-2212"/>
       <use xlink:href="#DejaVuSans-31" x="83.789062"/>
       <use xlink:href="#DejaVuSans-35" x="147.412109"/>
      </g>
     </g>
    </g>
    <g id="ytick_2">
     <g id="line2d_5">
      <g>
       <use xlink:href="#mf2c64d81dd" x="18" y="161.82" style="stroke: #000000; stroke-width: 0.8"/>
      </g>
     </g>
     <g id="text_5">
      <!-- 10 -->
      <g transform="translate(-10.104688 165.619219)scale(0.1 -0.1)">
       <use xlink:href="#DejaVuSans-2212"/>
       <use xlink:href="#DejaVuSans-31" x="83.789062"/>
       <use xlink:href="#DejaVuSans-30" x="147.412109"/>
      </g>
     </g>
    </g>
    <g id="ytick_3">
     <g id="line2d_6">
      <g>
       <use xlink:href="#mf2c64d81dd" x="18" y="134.64" style="stroke: #000000; stroke-width: 0.8"/>
      </g>
     </g>
     <g id="text_6">
      <!-- 5 -->
      <g transform="translate(-3.742188 138.439219)scale(0.1 -0.1)">
       <use xlink:href="#DejaVuSans-2212"/>
       <use xlink:href="#DejaVuSans-35" x="83.789062"/>
      </g>
     </g>
    </g>
    <g id="ytick_4">
     <g id="line2d_7">
      <g>
       <use xlink:href="#mf2c64d81dd" x="18" y="107.46" style="stroke: #000000; stroke-width: 0.8"/>
      </g>
     </g>
     <g id="text_7">
      <!-- 0 -->
      <g transform="translate(4.6375 111.259219)scale(0.1 -0.1)">
       <use xlink:href="#DejaVuSans-30"/>
      </g>
     </g>
    </g>
    <g id="ytick_5">
     <g id="line2d_8">
      <g>
       <use xlink:href="#mf2c64d81dd" x="18" y="80.28" style="stroke: #000000; stroke-width: 0.8"/>
      </g>
     </g>
     <g id="text_8">
      <!-- 5 -->
      <g transform="translate(4.6375 84.079219)scale(0.1 -0.1)">
       <use xlink:href="#DejaVuSans-35"/>
      </g>
     </g>
    </g>
    <g id="ytick_6">
     <g id="line2d_9">
      <g>
       <use xlink:href="#mf2c64d81dd" x="18" y="53.1" style="stroke: #000000; stroke-width: 0.8"/>
      </g>
     </g>
     <g id="text_9">
      <!-- 10 -->
      <g transform="translate(-1.725 56.899219)scale(0.1 -0.1)">
       <use xlink:href="#DejaVuSans-31"/>
       <use xlink:href="#DejaVuSans-30" x="63.623047"/>
      </g>
     </g>
    </g>
    <g id="ytick_7">
     <g id="line2d_10">
      <g>
       <use xlink:href="#mf2c64d81dd" x="18" y="25.92" style="stroke: #000000; stroke-width: 0.8"/>
      </g>
     </g>
     <g id="text_10">
      <!-- 15 -->
      <g transform="translate(-1.725 29.719219)scale(0.1 -0.1)">
       <use xlink:href="#DejaVuSans-31"/>
       <use xlink:href="#DejaVuSans-35" x="63.623047"/>
      </g>
     </g>
    </g>
   </g>
   <g id="patch_3">
    <path d="M 18 189 
L 18 25.92 
" style="fill: none; stroke: #000000; stroke-width: 0.8; stroke-linejoin: miter; stroke-linecap: square"/>
   </g>
   <g id="patch_4">
    <path d="M 129.6 189 
L 129.6 25.92 
" style="fill: none; stroke: #000000; stroke-width: 0.8; stroke-linejoin: miter; stroke-linecap: square"/>
   </g>
   <g id="patch_5">
    <path d="M 18 189 
L 129.6 189 
" style="fill: none; stroke: #000000; stroke-width: 0.8; stroke-linejoin: miter; stroke-linecap: square"/>
   </g>
   <g id="patch_6">
    <path d="M 18 25.92 
L 129.6 25.92 
" style="fill: none; stroke: #000000; stroke-width: 0.8; stroke-linejoin: miter; stroke-linecap: square"/>
   </g>
  </g>
 </g>
 <defs>
  <clipPath id="pf59251191a">
   <rect x="18" y="25.92" width="111.6" height="163.08"/>
  </clipPath>
 </defs>
</svg>
