<?xml version="1.0" encoding="utf-8" standalone="no"?>
<!DOCTYPE svg PUBLIC "-//W3C//DTD SVG 1.1//EN"
  "http://www.w3.org/Graphics/SVG/1.1/DTD/svg11.dtd">
<svg xmlns:xlink="http://www.w3.org/1999/xlink" width="144pt" height="216pt" viewBox="0 0 144 216" xmlns="http://www.w3.org/2000/svg" version="1.1">
 <metadata>
  <rdf:RDF xmlns:dc="http://purl.org/dc/elements/1.1/" xmlns:cc="http://creativecommons.org/ns#" xmlns:rdf="http://www.w3.org/1999/02/22-rdf-syntax-ns#">
   <cc:Work>
    <dc:type rdf:resource="http://purl.org/dc/dcmitype/StillImage"/>
    <dc:date>2022-06-23T14:49:56.421477</dc:date>
    <dc:format>image/svg+xml</dc:format>
    <dc:creator>
     <cc:Agent>
      <dc:title>Matplotlib v3.5.1, https://matplotlib.org/</dc:title>
     </cc:Agent>
    </dc:creator>
   </cc:Work>
  </rdf:RDF>
 </metadata>
 <defs>
  <style type="text/css">*{stroke-linejoin: round; stroke-linecap: butt}</style>
 </defs>
 <g id="figure_1">
  <g id="patch_1">
   <path d="M 0 216 
L 144 216 
L 144 0 
L 0 0 
L 0 216 
z
" style="fill: none"/>
  </g>
  <g id="axes_1">
   <g id="patch_2">
    <path d="M 18 189 
L 129.6 189 
L 129.6 25.92 
L 18 25.92 
z
" style="fill: #ffffff"/>
   </g>
   <g id="PathCollection_1">
    <defs>
     <path id="m56af6dd277" d="M 0 2.738613 
C 0.726289 2.738613 1.422928 2.450055 1.936492 1.936492 
C 2.450055 1.422928 2.738613 0.726289 2.738613 0 
C 2.738613 -0.726289 2.450055 -1.422928 1.936492 -1.936492 
C 1.422928 -2.450055 0.726289 -2.738613 0 -2.738613 
C -0.726289 -2.738613 -1.422928 -2.450055 -1.936492 -1.936492 
C -2.450055 -1.422928 -2.738613 -0.726289 -2.738613 0 
C -2.738613 0.726289 -2.450055 1.422928 -1.936492 1.936492 
C -1.422928 2.450055 -0.726289 2.738613 0 2.738613 
z
" style="stroke: #ff0000; stroke-width: 1.75"/>
    </defs>
    <g clip-path="url(#pb475b8aac1)">
     <use xlink:href="#m56af6dd277" x="66.825" y="83.92143" style="fill: #ff0000; stroke: #ff0000; stroke-width: 1.75"/>
     <use xlink:href="#m56af6dd277" x="87.75" y="95.690715" style="fill: #ff0000; stroke: #ff0000; stroke-width: 1.75"/>
     <use xlink:href="#m56af6dd277" x="66.825" y="107.46" style="fill: #ff0000; stroke: #ff0000; stroke-width: 1.75"/>
     <use xlink:href="#m56af6dd277" x="73.8" y="119.229285" style="fill: #ff0000; stroke: #ff0000; stroke-width: 1.75"/>
     <use xlink:href="#m56af6dd277" x="87.75" y="119.229285" style="fill: #ff0000; stroke: #ff0000; stroke-width: 1.75"/>
     <use xlink:href="#m56af6dd277" x="66.825" y="130.99857" style="fill: #ff0000; stroke: #ff0000; stroke-width: 1.75"/>
     <use xlink:href="#m56af6dd277" x="80.775" y="130.99857" style="fill: #ff0000; stroke: #ff0000; stroke-width: 1.75"/>
    </g>
   </g>
   <g id="PathCollection_2">
    <defs>
     <path id="C0_0_ef64c98faa" d="M 0 2.738613 
C 0.726289 2.738613 1.422928 2.450055 1.936492 1.936492 
C 2.450055 1.422928 2.738613 0.726289 2.738613 -0 
C 2.738613 -0.726289 2.450055 -1.422928 1.936492 -1.936492 
C 1.422928 -2.450055 0.726289 -2.738613 0 -2.738613 
C -0.726289 -2.738613 -1.422928 -2.450055 -1.936492 -1.936492 
C -2.450055 -1.422928 -2.738613 -0.726289 -2.738613 0 
C -2.738613 0.726289 -2.450055 1.422928 -1.936492 1.936492 
C -1.422928 2.450055 -0.726289 2.738613 0 2.738613 
z
"/>
    </defs>
    <g clip-path="url(#pb475b8aac1)">
     <use xlink:href="#C0_0_ef64c98faa" x="80.775" y="83.92143" style="fill: none; stroke: #ff0000; stroke-width: 1.75"/>
    </g>
    <g clip-path="url(#pb475b8aac1)">
     <use xlink:href="#C0_0_ef64c98faa" x="59.85" y="95.690715" style="fill: none; stroke: #ff0000; stroke-width: 1.75"/>
    </g>
    <g clip-path="url(#pb475b8aac1)">
     <use xlink:href="#C0_0_ef64c98faa" x="73.8" y="95.690715" style="fill: none; stroke: #ff0000; stroke-width: 1.75"/>
    </g>
    <g clip-path="url(#pb475b8aac1)">
     <use xlink:href="#C0_0_ef64c98faa" x="52.875" y="107.46" style="fill: none; stroke: #ff0000; stroke-width: 1.75"/>
    </g>
    <g clip-path="url(#pb475b8aac1)">
     <use xlink:href="#C0_0_ef64c98faa" x="80.775" y="107.46" style="fill: none; stroke: #ff0000; stroke-width: 1.75"/>
    </g>
    <g clip-path="url(#pb475b8aac1)">
     <use xlink:href="#C0_0_ef64c98faa" x="94.725" y="107.46" style="fill: none; stroke: #ff0000; stroke-width: 1.75"/>
    </g>
    <g clip-path="url(#pb475b8aac1)">
     <use xlink:href="#C0_0_ef64c98faa" x="59.85" y="119.229285" style="fill: none; stroke: #ff0000; stroke-width: 1.75"/>
    </g>
   </g>
   <g id="PathCollection_3">
    <path d="M 115.265432 100.408168 
C 115.534685 100.408168 115.792946 100.301192 115.983337 100.110802 
C 116.173728 99.920411 116.280703 99.662149 116.280703 99.392896 
C 116.280703 99.123643 116.173728 98.865382 115.983337 98.674991 
C 115.792946 98.4846 115.534685 98.377625 115.265432 98.377625 
C 114.996179 98.377625 114.737917 98.4846 114.547526 98.674991 
C 114.357136 98.865382 114.25016 99.123643 114.25016 99.392896 
C 114.25016 99.662149 114.357136 99.920411 114.547526 100.110802 
C 114.737917 100.301192 114.996179 100.408168 115.265432 100.408168 
z
" clip-path="url(#pb475b8aac1)" style="stroke: #000000"/>
    <path d="M 106.261029 80.423127 
C 106.476715 80.423127 106.683597 80.337434 106.83611 80.184921 
C 106.988624 80.032407 107.074317 79.825526 107.074317 79.609839 
C 107.074317 79.394152 106.988624 79.187271 106.83611 79.034757 
C 106.683597 78.882244 106.476715 78.796551 106.261029 78.796551 
C 106.045342 78.796551 105.838461 78.882244 105.685947 79.034757 
C 105.533434 79.187271 105.44774 79.394152 105.44774 79.609839 
C 105.44774 79.825526 105.533434 80.032407 105.685947 80.184921 
C 105.838461 80.337434 106.045342 80.423127 106.261029 80.423127 
z
" clip-path="url(#pb475b8aac1)" style="stroke: #000000"/>
    <path d="M 103.472568 71.172652 
C 103.630259 71.172652 103.781512 71.110001 103.893016 70.998497 
C 104.004521 70.886993 104.067172 70.73574 104.067172 70.578049 
C 104.067172 70.420358 104.004521 70.269105 103.893016 70.157601 
C 103.781512 70.046096 103.630259 69.983445 103.472568 69.983445 
C 103.314877 69.983445 103.163624 70.046096 103.05212 70.157601 
C 102.940616 70.269105 102.877965 70.420358 102.877965 70.578049 
C 102.877965 70.73574 102.940616 70.886993 103.05212 70.998497 
C 103.163624 71.110001 103.314877 71.172652 103.472568 71.172652 
z
" clip-path="url(#pb475b8aac1)" style="stroke: #000000"/>
    <path d="M 104.620891 66.388731 
C 104.753493 66.388731 104.880681 66.336048 104.974444 66.242285 
C 105.068208 66.148521 105.120891 66.021333 105.120891 65.888731 
C 105.120891 65.75613 105.068208 65.628941 104.974444 65.535178 
C 104.880681 65.441414 104.753493 65.388731 104.620891 65.388731 
C 104.48829 65.388731 104.361101 65.441414 104.267338 65.535178 
C 104.173574 65.628941 104.120891 65.75613 104.120891 65.888731 
C 104.120891 66.021333 104.173574 66.148521 104.267338 66.242285 
C 104.361101 66.336048 104.48829 66.388731 104.620891 66.388731 
z
" clip-path="url(#pb475b8aac1)" style="stroke: #000000"/>
    <path d="M 116.569662 127.911792 
C 116.702263 127.911792 116.829452 127.859109 116.923215 127.765346 
C 117.016979 127.671582 117.069662 127.544394 117.069662 127.411792 
C 117.069662 127.279191 117.016979 127.152002 116.923215 127.058239 
C 116.829452 126.964475 116.702263 126.911792 116.569662 126.911792 
C 116.43706 126.911792 116.309872 126.964475 116.216109 127.058239 
C 116.122345 127.152002 116.069662 127.279191 116.069662 127.411792 
C 116.069662 127.544394 116.122345 127.671582 116.216109 127.765346 
C 116.309872 127.859109 116.43706 127.911792 116.569662 127.911792 
z
" clip-path="url(#pb475b8aac1)" style="stroke: #000000"/>
    <path d="M 110.281024 112.977398 
C 110.413626 112.977398 110.540814 112.924715 110.634578 112.830952 
C 110.728341 112.737188 110.781024 112.61 110.781024 112.477398 
C 110.781024 112.344797 110.728341 112.217608 110.634578 112.123845 
C 110.540814 112.030081 110.413626 111.977398 110.281024 111.977398 
C 110.148423 111.977398 110.021234 112.030081 109.927471 112.123845 
C 109.833707 112.217608 109.781024 112.344797 109.781024 112.477398 
C 109.781024 112.61 109.833707 112.737188 109.927471 112.830952 
C 110.021234 112.924715 110.148423 112.977398 110.281024 112.977398 
z
" clip-path="url(#pb475b8aac1)" style="stroke: #000000"/>
    <path d="M 109.138171 105.173594 
C 109.295862 105.173594 109.447115 105.110943 109.55862 104.999439 
C 109.670124 104.887934 109.732775 104.736681 109.732775 104.57899 
C 109.732775 104.4213 109.670124 104.270046 109.55862 104.158542 
C 109.447115 104.047038 109.295862 103.984387 109.138171 103.984387 
C 108.980481 103.984387 108.829227 104.047038 108.717723 104.158542 
C 108.606219 104.270046 108.543568 104.4213 108.543568 104.57899 
C 108.543568 104.736681 108.606219 104.887934 108.717723 104.999439 
C 108.829227 105.110943 108.980481 105.173594 109.138171 105.173594 
z
" clip-path="url(#pb475b8aac1)" style="stroke: #000000"/>
    <path d="M 106.782061 100.746631 
C 106.939751 100.746631 107.091005 100.68398 107.202509 100.572475 
C 107.314013 100.460971 107.376664 100.309718 107.376664 100.152027 
C 107.376664 99.994337 107.314013 99.843083 107.202509 99.731579 
C 107.091005 99.620075 106.939751 99.557424 106.782061 99.557424 
C 106.62437 99.557424 106.473117 99.620075 106.361613 99.731579 
C 106.250108 99.843083 106.187457 99.994337 106.187457 100.152027 
C 106.187457 100.309718 106.250108 100.460971 106.361613 100.572475 
C 106.473117 100.68398 106.62437 100.746631 106.782061 100.746631 
z
" clip-path="url(#pb475b8aac1)" style="stroke: #000000"/>
    <path d="M 104.046749 90.233735 
C 104.366946 90.233735 104.674073 90.106519 104.900487 89.880105 
C 105.126901 89.653691 105.254117 89.346564 105.254117 89.026367 
C 105.254117 88.706169 105.126901 88.399042 104.900487 88.172628 
C 104.674073 87.946214 104.366946 87.818998 104.046749 87.818998 
C 103.726551 87.818998 103.419424 87.946214 103.19301 88.172628 
C 102.966596 88.399042 102.83938 88.706169 102.83938 89.026367 
C 102.83938 89.346564 102.966596 89.653691 103.19301 89.880105 
C 103.419424 90.106519 103.726551 90.233735 104.046749 90.233735 
z
" clip-path="url(#pb475b8aac1)" style="stroke: #000000"/>
    <path d="M 101.314402 85.49126 
C 101.472093 85.49126 101.623346 85.428609 101.73485 85.317105 
C 101.846354 85.205601 101.909006 85.054347 101.909006 84.896657 
C 101.909006 84.738966 101.846354 84.587713 101.73485 84.476208 
C 101.623346 84.364704 101.472093 84.302053 101.314402 84.302053 
C 101.156711 84.302053 101.005458 84.364704 100.893954 84.476208 
C 100.78245 84.587713 100.719799 84.738966 100.719799 84.896657 
C 100.719799 85.054347 100.78245 85.205601 100.893954 85.317105 
C 101.005458 85.428609 101.156711 85.49126 101.314402 85.49126 
z
" clip-path="url(#pb475b8aac1)" style="stroke: #000000"/>
    <path d="M 98.813978 81.094776 
C 99.090823 81.094776 99.356367 80.984785 99.552126 80.789026 
C 99.747885 80.593266 99.857877 80.327723 99.857877 80.050878 
C 99.857877 79.774032 99.747885 79.508489 99.552126 79.31273 
C 99.356367 79.116971 99.090823 79.006979 98.813978 79.006979 
C 98.537133 79.006979 98.271589 79.116971 98.07583 79.31273 
C 97.880071 79.508489 97.770079 79.774032 97.770079 80.050878 
C 97.770079 80.327723 97.880071 80.593266 98.07583 80.789026 
C 98.271589 80.984785 98.537133 81.094776 98.813978 81.094776 
z
" clip-path="url(#pb475b8aac1)" style="stroke: #000000"/>
    <path d="M 98.082058 67.197181 
C 98.214659 67.197181 98.341847 67.144498 98.435611 67.050734 
C 98.529374 66.956971 98.582058 66.829782 98.582058 66.697181 
C 98.582058 66.564579 98.529374 66.437391 98.435611 66.343627 
C 98.341847 66.249864 98.214659 66.197181 98.082058 66.197181 
C 97.949456 66.197181 97.822268 66.249864 97.728504 66.343627 
C 97.634741 66.437391 97.582058 66.564579 97.582058 66.697181 
C 97.582058 66.829782 97.634741 66.956971 97.728504 67.050734 
C 97.822268 67.144498 97.949456 67.197181 98.082058 67.197181 
z
" clip-path="url(#pb475b8aac1)" style="stroke: #000000"/>
    <path d="M 122.50647 160.944235 
C 122.639071 160.944235 122.76626 160.891552 122.860023 160.797789 
C 122.953787 160.704025 123.00647 160.576837 123.00647 160.444235 
C 123.00647 160.311634 122.953787 160.184445 122.860023 160.090682 
C 122.76626 159.996919 122.639071 159.944235 122.50647 159.944235 
C 122.373868 159.944235 122.24668 159.996919 122.152917 160.090682 
C 122.059153 160.184445 122.00647 160.311634 122.00647 160.444235 
C 122.00647 160.576837 122.059153 160.704025 122.152917 160.797789 
C 122.24668 160.891552 122.373868 160.944235 122.50647 160.944235 
z
" clip-path="url(#pb475b8aac1)" style="stroke: #000000"/>
    <path d="M 116.528682 144.776542 
C 116.703195 144.776542 116.870585 144.707207 116.993984 144.583807 
C 117.117384 144.460408 117.186719 144.293018 117.186719 144.118505 
C 117.186719 143.943991 117.117384 143.776602 116.993984 143.653202 
C 116.870585 143.529803 116.703195 143.460468 116.528682 143.460468 
C 116.354168 143.460468 116.186779 143.529803 116.063379 143.653202 
C 115.93998 143.776602 115.870645 143.943991 115.870645 144.118505 
C 115.870645 144.293018 115.93998 144.460408 116.063379 144.583807 
C 116.186779 144.707207 116.354168 144.776542 116.528682 144.776542 
z
" clip-path="url(#pb475b8aac1)" style="stroke: #000000"/>
    <path d="M 115.665793 138.800824 
C 115.840306 138.800824 116.007696 138.731489 116.131095 138.608089 
C 116.254495 138.484689 116.32383 138.3173 116.32383 138.142787 
C 116.32383 137.968273 116.254495 137.800884 116.131095 137.677484 
C 116.007696 137.554085 115.840306 137.48475 115.665793 137.48475 
C 115.491279 137.48475 115.32389 137.554085 115.20049 137.677484 
C 115.077091 137.800884 115.007756 137.968273 115.007756 138.142787 
C 115.007756 138.3173 115.077091 138.484689 115.20049 138.608089 
C 115.32389 138.731489 115.491279 138.800824 115.665793 138.800824 
z
" clip-path="url(#pb475b8aac1)" style="stroke: #000000"/>
    <path d="M 111.271034 125.667172 
C 111.46932 125.667172 111.659511 125.588392 111.79972 125.448183 
C 111.939929 125.307974 112.018709 125.117783 112.018709 124.919497 
C 112.018709 124.721212 111.939929 124.531021 111.79972 124.390812 
C 111.659511 124.250603 111.46932 124.171823 111.271034 124.171823 
C 111.072749 124.171823 110.882558 124.250603 110.742349 124.390812 
C 110.602139 124.531021 110.52336 124.721212 110.52336 124.919497 
C 110.52336 125.117783 110.602139 125.307974 110.742349 125.448183 
C 110.882558 125.588392 111.072749 125.667172 111.271034 125.667172 
z
" clip-path="url(#pb475b8aac1)" style="stroke: #000000"/>
    <path d="M 104.959753 113.35284 
C 105.303193 113.35284 105.632614 113.21639 105.875463 112.973541 
C 106.118312 112.730691 106.254763 112.401271 106.254763 112.05783 
C 106.254763 111.71439 106.118312 111.384969 105.875463 111.14212 
C 105.632614 110.899271 105.303193 110.76282 104.959753 110.76282 
C 104.616312 110.76282 104.286891 110.899271 104.044042 111.14212 
C 103.801193 111.384969 103.664743 111.71439 103.664743 112.05783 
C 103.664743 112.401271 103.801193 112.730691 104.044042 112.973541 
C 104.286891 113.21639 104.616312 113.35284 104.959753 113.35284 
z
" clip-path="url(#pb475b8aac1)" style="stroke: #000000"/>
    <path d="M 103.204311 108.450021 
C 103.586485 108.450021 103.953057 108.298182 104.223295 108.027944 
C 104.493533 107.757706 104.645372 107.391134 104.645372 107.00896 
C 104.645372 106.626786 104.493533 106.260214 104.223295 105.989976 
C 103.953057 105.719739 103.586485 105.5679 103.204311 105.5679 
C 102.822138 105.5679 102.455565 105.719739 102.185327 105.989976 
C 101.91509 106.260214 101.763251 106.626786 101.763251 107.00896 
C 101.763251 107.391134 101.91509 107.757706 102.185327 108.027944 
C 102.455565 108.298182 102.822138 108.450021 103.204311 108.450021 
z
" clip-path="url(#pb475b8aac1)" style="stroke: #000000"/>
    <path d="M 98.34591 95.136937 
C 98.687426 95.136937 99.015001 95.001251 99.25649 94.759762 
C 99.497978 94.518274 99.633664 94.190699 99.633664 93.849182 
C 99.633664 93.507666 99.497978 93.180091 99.25649 92.938602 
C 99.015001 92.697113 98.687426 92.561428 98.34591 92.561428 
C 98.004393 92.561428 97.676818 92.697113 97.435329 92.938602 
C 97.193841 93.180091 97.058155 93.507666 97.058155 93.849182 
C 97.058155 94.190699 97.193841 94.518274 97.435329 94.759762 
C 97.676818 95.001251 98.004393 95.136937 98.34591 95.136937 
z
" clip-path="url(#pb475b8aac1)" style="stroke: #000000"/>
    <path d="M 97.802131 88.466256 
C 97.959822 88.466256 98.111075 88.403605 98.22258 88.292101 
C 98.334084 88.180597 98.396735 88.029344 98.396735 87.871653 
C 98.396735 87.713962 98.334084 87.562709 98.22258 87.451205 
C 98.111075 87.339701 97.959822 87.277049 97.802131 87.277049 
C 97.644441 87.277049 97.493187 87.339701 97.381683 87.451205 
C 97.270179 87.562709 97.207528 87.713962 97.207528 87.871653 
C 97.207528 88.029344 97.270179 88.180597 97.381683 88.292101 
C 97.493187 88.403605 97.644441 88.466256 97.802131 88.466256 
z
" clip-path="url(#pb475b8aac1)" style="stroke: #000000"/>
    <path d="M 93.563396 77.309913 
C 93.865662 77.309913 94.155589 77.189821 94.369323 76.976087 
C 94.583057 76.762352 94.703149 76.472426 94.703149 76.170159 
C 94.703149 75.867893 94.583057 75.577966 94.369323 75.364232 
C 94.155589 75.150497 93.865662 75.030406 93.563396 75.030406 
C 93.261129 75.030406 92.971203 75.150497 92.757468 75.364232 
C 92.543734 75.577966 92.423642 75.867893 92.423642 76.170159 
C 92.423642 76.472426 92.543734 76.762352 92.757468 76.976087 
C 92.971203 77.189821 93.261129 77.309913 93.563396 77.309913 
z
" clip-path="url(#pb475b8aac1)" style="stroke: #000000"/>
    <path d="M 92.225948 70.510296 
C 92.441635 70.510296 92.648516 70.424602 92.80103 70.272089 
C 92.953543 70.119576 93.039236 69.912694 93.039236 69.697007 
C 93.039236 69.481321 92.953543 69.274439 92.80103 69.121926 
C 92.648516 68.969412 92.441635 68.883719 92.225948 68.883719 
C 92.010261 68.883719 91.80338 68.969412 91.650866 69.121926 
C 91.498353 69.274439 91.41266 69.481321 91.41266 69.697007 
C 91.41266 69.912694 91.498353 70.119576 91.650866 70.272089 
C 91.80338 70.424602 92.010261 70.510296 92.225948 70.510296 
z
" clip-path="url(#pb475b8aac1)" style="stroke: #000000"/>
    <path d="M 88.775956 67.342629 
C 88.963483 67.342629 89.143354 67.268123 89.275956 67.135522 
C 89.408557 67.00292 89.483063 66.823049 89.483063 66.635522 
C 89.483063 66.447995 89.408557 66.268123 89.275956 66.135522 
C 89.143354 66.00292 88.963483 65.928415 88.775956 65.928415 
C 88.588429 65.928415 88.408557 66.00292 88.275956 66.135522 
C 88.143354 66.268123 88.068849 66.447995 88.068849 66.635522 
C 88.068849 66.823049 88.143354 67.00292 88.275956 67.135522 
C 88.408557 67.268123 88.588429 67.342629 88.775956 67.342629 
z
" clip-path="url(#pb475b8aac1)" style="stroke: #000000"/>
    <path d="M 104.455597 133.445251 
C 104.613287 133.445251 104.764541 133.3826 104.876045 133.271095 
C 104.987549 133.159591 105.0502 133.008338 105.0502 132.850647 
C 105.0502 132.692956 104.987549 132.541703 104.876045 132.430199 
C 104.764541 132.318695 104.613287 132.256044 104.455597 132.256044 
C 104.297906 132.256044 104.146653 132.318695 104.035149 132.430199 
C 103.923644 132.541703 103.860993 132.692956 103.860993 132.850647 
C 103.860993 133.008338 103.923644 133.159591 104.035149 133.271095 
C 104.146653 133.3826 104.297906 133.445251 104.455597 133.445251 
z
" clip-path="url(#pb475b8aac1)" style="stroke: #000000"/>
    <path d="M 105.230482 127.910985 
C 105.363083 127.910985 105.490271 127.858302 105.584035 127.764538 
C 105.677798 127.670775 105.730482 127.543586 105.730482 127.410985 
C 105.730482 127.278383 105.677798 127.151195 105.584035 127.057431 
C 105.490271 126.963668 105.363083 126.910985 105.230482 126.910985 
C 105.09788 126.910985 104.970692 126.963668 104.876928 127.057431 
C 104.783165 127.151195 104.730482 127.278383 104.730482 127.410985 
C 104.730482 127.543586 104.783165 127.670775 104.876928 127.764538 
C 104.970692 127.858302 105.09788 127.910985 105.230482 127.910985 
z
" clip-path="url(#pb475b8aac1)" style="stroke: #000000"/>
    <path d="M 104.377349 121.827097 
C 104.50995 121.827097 104.637139 121.774414 104.730902 121.68065 
C 104.824666 121.586887 104.877349 121.459698 104.877349 121.327097 
C 104.877349 121.194495 104.824666 121.067307 104.730902 120.973544 
C 104.637139 120.87978 104.50995 120.827097 104.377349 120.827097 
C 104.244747 120.827097 104.117559 120.87978 104.023795 120.973544 
C 103.930032 121.067307 103.877349 121.194495 103.877349 121.327097 
C 103.877349 121.459698 103.930032 121.586887 104.023795 121.68065 
C 104.117559 121.774414 104.244747 121.827097 104.377349 121.827097 
z
" clip-path="url(#pb475b8aac1)" style="stroke: #000000"/>
    <path d="M 99.369922 115.145095 
C 99.780594 115.145095 100.174502 114.981933 100.464891 114.691544 
C 100.755281 114.401155 100.918443 114.007247 100.918443 113.596575 
C 100.918443 113.185902 100.755281 112.791994 100.464891 112.501605 
C 100.174502 112.211216 99.780594 112.048054 99.369922 112.048054 
C 98.95925 112.048054 98.565342 112.211216 98.274953 112.501605 
C 97.984563 112.791994 97.821402 113.185902 97.821402 113.596575 
C 97.821402 114.007247 97.984563 114.401155 98.274953 114.691544 
C 98.565342 114.981933 98.95925 115.145095 99.369922 115.145095 
z
" clip-path="url(#pb475b8aac1)" style="stroke: #000000"/>
    <path d="M 97.602931 111.73852 
C 98.07156 111.73852 98.521059 111.552332 98.85243 111.22096 
C 99.183802 110.889589 99.36999 110.44009 99.36999 109.971461 
C 99.36999 109.502831 99.183802 109.053332 98.85243 108.721961 
C 98.521059 108.39059 98.07156 108.204401 97.602931 108.204401 
C 97.134301 108.204401 96.684802 108.39059 96.353431 108.721961 
C 96.02206 109.053332 95.835871 109.502831 95.835871 109.971461 
C 95.835871 110.44009 96.02206 110.889589 96.353431 111.22096 
C 96.684802 111.552332 97.134301 111.73852 97.602931 111.73852 
z
" clip-path="url(#pb475b8aac1)" style="stroke: #000000"/>
    <path d="M 93.388876 105.182994 
C 93.835762 105.182994 94.264404 105.005444 94.580399 104.689449 
C 94.896395 104.373453 95.073944 103.944811 95.073944 103.497926 
C 95.073944 103.05104 94.896395 102.622398 94.580399 102.306403 
C 94.264404 101.990407 93.835762 101.812858 93.388876 101.812858 
C 92.941991 101.812858 92.513349 101.990407 92.197353 102.306403 
C 91.881358 102.622398 91.703808 103.05104 91.703808 103.497926 
C 91.703808 103.944811 91.881358 104.373453 92.197353 104.689449 
C 92.513349 105.005444 92.941991 105.182994 93.388876 105.182994 
z
" clip-path="url(#pb475b8aac1)" style="stroke: #000000"/>
    <path d="M 94.031847 97.573016 
C 94.424647 97.573016 94.801412 97.416955 95.079163 97.139203 
C 95.356914 96.861452 95.512975 96.484687 95.512975 96.091887 
C 95.512975 95.699088 95.356914 95.322323 95.079163 95.044571 
C 94.801412 94.76682 94.424647 94.610759 94.031847 94.610759 
C 93.639047 94.610759 93.262283 94.76682 92.984531 95.044571 
C 92.70678 95.322323 92.550719 95.699088 92.550719 96.091887 
C 92.550719 96.484687 92.70678 96.861452 92.984531 97.139203 
C 93.262283 97.416955 93.639047 97.573016 94.031847 97.573016 
z
" clip-path="url(#pb475b8aac1)" style="stroke: #000000"/>
    <path d="M 92.913204 91.649846 
C 93.303428 91.649846 93.677721 91.494809 93.953651 91.218879 
C 94.229581 90.942949 94.384619 90.568655 94.384619 90.178431 
C 94.384619 89.788207 94.229581 89.413913 93.953651 89.137983 
C 93.677721 88.862053 93.303428 88.707015 92.913204 88.707015 
C 92.52298 88.707015 92.148686 88.862053 91.872756 89.137983 
C 91.596826 89.413913 91.441788 89.788207 91.441788 90.178431 
C 91.441788 90.568655 91.596826 90.942949 91.872756 91.218879 
C 92.148686 91.494809 92.52298 91.649846 92.913204 91.649846 
z
" clip-path="url(#pb475b8aac1)" style="stroke: #000000"/>
    <path d="M 89.257601 83.757048 
C 89.620341 83.757048 89.968273 83.61293 90.224769 83.356434 
C 90.481265 83.099938 90.625383 82.752006 90.625383 82.389266 
C 90.625383 82.026525 90.481265 81.678593 90.224769 81.422097 
C 89.968273 81.165601 89.620341 81.021483 89.257601 81.021483 
C 88.894861 81.021483 88.546929 81.165601 88.290433 81.422097 
C 88.033937 81.678593 87.889818 82.026525 87.889818 82.389266 
C 87.889818 82.752006 88.033937 83.099938 88.290433 83.356434 
C 88.546929 83.61293 88.894861 83.757048 89.257601 83.757048 
z
" clip-path="url(#pb475b8aac1)" style="stroke: #000000"/>
    <path d="M 83.510881 74.46046 
C 83.801271 74.46046 84.079806 74.345087 84.285142 74.139751 
C 84.490478 73.934415 84.605851 73.65588 84.605851 73.365491 
C 84.605851 73.075101 84.490478 72.796566 84.285142 72.59123 
C 84.079806 72.385894 83.801271 72.270521 83.510881 72.270521 
C 83.220492 72.270521 82.941957 72.385894 82.736621 72.59123 
C 82.531285 72.796566 82.415912 73.075101 82.415912 73.365491 
C 82.415912 73.65588 82.531285 73.934415 82.736621 74.139751 
C 82.941957 74.345087 83.220492 74.46046 83.510881 74.46046 
z
" clip-path="url(#pb475b8aac1)" style="stroke: #000000"/>
    <path d="M 80.970468 66.274911 
C 81.20627 66.274911 81.432447 66.181225 81.599185 66.014488 
C 81.765922 65.84775 81.859608 65.621574 81.859608 65.385771 
C 81.859608 65.149968 81.765922 64.923792 81.599185 64.757054 
C 81.432447 64.590317 81.20627 64.496631 80.970468 64.496631 
C 80.734665 64.496631 80.508489 64.590317 80.341751 64.757054 
C 80.175014 64.923792 80.081328 65.149968 80.081328 65.385771 
C 80.081328 65.621574 80.175014 65.84775 80.341751 66.014488 
C 80.508489 66.181225 80.734665 66.274911 80.970468 66.274911 
z
" clip-path="url(#pb475b8aac1)" style="stroke: #000000"/>
    <path d="M 110.437829 166.892841 
C 110.57043 166.892841 110.697619 166.840158 110.791382 166.746394 
C 110.885146 166.652631 110.937829 166.525442 110.937829 166.392841 
C 110.937829 166.260239 110.885146 166.133051 110.791382 166.039287 
C 110.697619 165.945524 110.57043 165.892841 110.437829 165.892841 
C 110.305227 165.892841 110.178039 165.945524 110.084275 166.039287 
C 109.990512 166.133051 109.937829 166.260239 109.937829 166.392841 
C 109.937829 166.525442 109.990512 166.652631 110.084275 166.746394 
C 110.178039 166.840158 110.305227 166.892841 110.437829 166.892841 
z
" clip-path="url(#pb475b8aac1)" style="stroke: #000000"/>
    <path d="M 102.851782 136.160728 
C 102.984384 136.160728 103.111572 136.108045 103.205336 136.014282 
C 103.299099 135.920518 103.351782 135.79333 103.351782 135.660728 
C 103.351782 135.528127 103.299099 135.400939 103.205336 135.307175 
C 103.111572 135.213412 102.984384 135.160728 102.851782 135.160728 
C 102.719181 135.160728 102.591993 135.213412 102.498229 135.307175 
C 102.404466 135.400939 102.351782 135.528127 102.351782 135.660728 
C 102.351782 135.79333 102.404466 135.920518 102.498229 136.014282 
C 102.591993 136.108045 102.719181 136.160728 102.851782 136.160728 
z
" clip-path="url(#pb475b8aac1)" style="stroke: #000000"/>
    <path d="M 101.736233 129.38522 
C 101.868834 129.38522 101.996023 129.332537 102.089786 129.238774 
C 102.18355 129.14501 102.236233 129.017822 102.236233 128.88522 
C 102.236233 128.752619 102.18355 128.625431 102.089786 128.531667 
C 101.996023 128.437904 101.868834 128.38522 101.736233 128.38522 
C 101.603631 128.38522 101.476443 128.437904 101.382679 128.531667 
C 101.288916 128.625431 101.236233 128.752619 101.236233 128.88522 
C 101.236233 129.017822 101.288916 129.14501 101.382679 129.238774 
C 101.476443 129.332537 101.603631 129.38522 101.736233 129.38522 
z
" clip-path="url(#pb475b8aac1)" style="stroke: #000000"/>
    <path d="M 93.225483 124.204119 
C 93.423769 124.204119 93.61396 124.125339 93.754169 123.98513 
C 93.894378 123.844921 93.973158 123.65473 93.973158 123.456445 
C 93.973158 123.258159 93.894378 123.067968 93.754169 122.927759 
C 93.61396 122.78755 93.423769 122.70877 93.225483 122.70877 
C 93.027198 122.70877 92.837007 122.78755 92.696798 122.927759 
C 92.556589 123.067968 92.477809 123.258159 92.477809 123.456445 
C 92.477809 123.65473 92.556589 123.844921 92.696798 123.98513 
C 92.837007 124.125339 93.027198 124.204119 93.225483 124.204119 
z
" clip-path="url(#pb475b8aac1)" style="stroke: #000000"/>
    <path d="M 93.657496 116.19292 
C 93.913992 116.19292 94.160017 116.091014 94.341387 115.909643 
C 94.522757 115.728273 94.624664 115.482248 94.624664 115.225752 
C 94.624664 114.969256 94.522757 114.723231 94.341387 114.541861 
C 94.160017 114.360491 93.913992 114.258584 93.657496 114.258584 
C 93.401 114.258584 93.154974 114.360491 92.973604 114.541861 
C 92.792234 114.723231 92.690327 114.969256 92.690327 115.225752 
C 92.690327 115.482248 92.792234 115.728273 92.973604 115.909643 
C 93.154974 116.091014 93.401 116.19292 93.657496 116.19292 
z
" clip-path="url(#pb475b8aac1)" style="stroke: #000000"/>
    <path d="M 91.949993 111.467752 
C 92.420118 111.467752 92.87105 111.28097 93.203479 110.948541 
C 93.535907 110.616113 93.722689 110.16518 93.722689 109.695056 
C 93.722689 109.224932 93.535907 108.773999 93.203479 108.441571 
C 92.87105 108.109142 92.420118 107.92236 91.949993 107.92236 
C 91.479869 107.92236 91.028936 108.109142 90.696508 108.441571 
C 90.36408 108.773999 90.177297 109.224932 90.177297 109.695056 
C 90.177297 110.16518 90.36408 110.616113 90.696508 110.948541 
C 91.028936 111.28097 91.479869 111.467752 91.949993 111.467752 
z
" clip-path="url(#pb475b8aac1)" style="stroke: #000000"/>
    <path d="M 86.200267 103.4531 
C 86.332869 103.4531 86.460057 103.400417 86.55382 103.306653 
C 86.647584 103.21289 86.700267 103.085701 86.700267 102.9531 
C 86.700267 102.820498 86.647584 102.69331 86.55382 102.599546 
C 86.460057 102.505783 86.332869 102.4531 86.200267 102.4531 
C 86.067666 102.4531 85.940477 102.505783 85.846714 102.599546 
C 85.75295 102.69331 85.700267 102.820498 85.700267 102.9531 
C 85.700267 103.085701 85.75295 103.21289 85.846714 103.306653 
C 85.940477 103.400417 86.067666 103.4531 86.200267 103.4531 
z
" clip-path="url(#pb475b8aac1)" style="stroke: #000000"/>
    <path d="M 88.230803 99.892609 
C 88.507649 99.892609 88.773192 99.782617 88.968951 99.586858 
C 89.16471 99.391099 89.274702 99.125555 89.274702 98.84871 
C 89.274702 98.571865 89.16471 98.306321 88.968951 98.110562 
C 88.773192 97.914803 88.507649 97.804811 88.230803 97.804811 
C 87.953958 97.804811 87.688415 97.914803 87.492656 98.110562 
C 87.296896 98.306321 87.186905 98.571865 87.186905 98.84871 
C 87.186905 99.125555 87.296896 99.391099 87.492656 99.586858 
C 87.688415 99.782617 87.953958 99.892609 88.230803 99.892609 
z
" clip-path="url(#pb475b8aac1)" style="stroke: #000000"/>
    <path d="M 80.088996 88.039568 
C 80.587657 88.039568 81.065962 87.841447 81.418569 87.48884 
C 81.771177 87.136233 81.969297 86.657928 81.969297 86.159266 
C 81.969297 85.660604 81.771177 85.182299 81.418569 84.829692 
C 81.065962 84.477085 80.587657 84.278965 80.088996 84.278965 
C 79.590334 84.278965 79.112029 84.477085 78.759422 84.829692 
C 78.406814 85.182299 78.208694 85.660604 78.208694 86.159266 
C 78.208694 86.657928 78.406814 87.136233 78.759422 87.48884 
C 79.112029 87.841447 79.590334 88.039568 80.088996 88.039568 
z
" clip-path="url(#pb475b8aac1)" style="stroke: #000000"/>
    <path d="M 82.171731 79.768083 
C 82.346244 79.768083 82.513634 79.698748 82.637033 79.575349 
C 82.760433 79.451949 82.829768 79.28456 82.829768 79.110046 
C 82.829768 78.935533 82.760433 78.768144 82.637033 78.644744 
C 82.513634 78.521344 82.346244 78.452009 82.171731 78.452009 
C 81.997217 78.452009 81.829828 78.521344 81.706428 78.644744 
C 81.583029 78.768144 81.513694 78.935533 81.513694 79.110046 
C 81.513694 79.28456 81.583029 79.451949 81.706428 79.575349 
C 81.829828 79.698748 81.997217 79.768083 82.171731 79.768083 
z
" clip-path="url(#pb475b8aac1)" style="stroke: #000000"/>
    <path d="M 79.180019 73.930028 
C 79.33771 73.930028 79.488963 73.867377 79.600468 73.755873 
C 79.711972 73.644368 79.774623 73.493115 79.774623 73.335424 
C 79.774623 73.177734 79.711972 73.02648 79.600468 72.914976 
C 79.488963 72.803472 79.33771 72.740821 79.180019 72.740821 
C 79.022329 72.740821 78.871075 72.803472 78.759571 72.914976 
C 78.648067 73.02648 78.585416 73.177734 78.585416 73.335424 
C 78.585416 73.493115 78.648067 73.644368 78.759571 73.755873 
C 78.871075 73.867377 79.022329 73.930028 79.180019 73.930028 
z
" clip-path="url(#pb475b8aac1)" style="stroke: #000000"/>
    <path d="M 71.550207 59.209979 
C 71.75774 59.209979 71.9568 59.127525 72.103548 58.980778 
C 72.250296 58.83403 72.332749 58.634969 72.332749 58.427437 
C 72.332749 58.219904 72.250296 58.020844 72.103548 57.874096 
C 71.9568 57.727348 71.75774 57.644894 71.550207 57.644894 
C 71.342675 57.644894 71.143614 57.727348 70.996866 57.874096 
C 70.850118 58.020844 70.767665 58.219904 70.767665 58.427437 
C 70.767665 58.634969 70.850118 58.83403 70.996866 58.980778 
C 71.143614 59.127525 71.342675 59.209979 71.550207 59.209979 
z
" clip-path="url(#pb475b8aac1)" style="stroke: #000000"/>
    <path d="M 98.15286 156.998423 
C 98.285462 156.998423 98.41265 156.94574 98.506414 156.851977 
C 98.600177 156.758213 98.65286 156.631025 98.65286 156.498423 
C 98.65286 156.365822 98.600177 156.238634 98.506414 156.14487 
C 98.41265 156.051107 98.285462 155.998423 98.15286 155.998423 
C 98.020259 155.998423 97.893071 156.051107 97.799307 156.14487 
C 97.705544 156.238634 97.65286 156.365822 97.65286 156.498423 
C 97.65286 156.631025 97.705544 156.758213 97.799307 156.851977 
C 97.893071 156.94574 98.020259 156.998423 98.15286 156.998423 
z
" clip-path="url(#pb475b8aac1)" style="stroke: #000000"/>
    <path d="M 98.923592 149.450423 
C 99.165081 149.450423 99.396711 149.354478 99.56747 149.18372 
C 99.738228 149.012962 99.834172 148.781331 99.834172 148.539843 
C 99.834172 148.298354 99.738228 148.066723 99.56747 147.895965 
C 99.396711 147.725207 99.165081 147.629262 98.923592 147.629262 
C 98.682103 147.629262 98.450473 147.725207 98.279715 147.895965 
C 98.108956 148.066723 98.013012 148.298354 98.013012 148.539843 
C 98.013012 148.781331 98.108956 149.012962 98.279715 149.18372 
C 98.450473 149.354478 98.682103 149.450423 98.923592 149.450423 
z
" clip-path="url(#pb475b8aac1)" style="stroke: #000000"/>
    <path d="M 90.016307 127.711224 
C 90.407825 127.711224 90.783361 127.555672 91.060206 127.278827 
C 91.337051 127.001982 91.492603 126.626447 91.492603 126.234928 
C 91.492603 125.84341 91.337051 125.467875 91.060206 125.191029 
C 90.783361 124.914184 90.407825 124.758632 90.016307 124.758632 
C 89.624789 124.758632 89.249253 124.914184 88.972408 125.191029 
C 88.695563 125.467875 88.540011 125.84341 88.540011 126.234928 
C 88.540011 126.626447 88.695563 127.001982 88.972408 127.278827 
C 89.249253 127.555672 89.624789 127.711224 90.016307 127.711224 
z
" clip-path="url(#pb475b8aac1)" style="stroke: #000000"/>
    <path d="M 84.894981 120.319332 
C 85.301115 120.319332 85.69067 120.157973 85.97785 119.870793 
C 86.26503 119.583613 86.426388 119.194059 86.426388 118.787925 
C 86.426388 118.381791 86.26503 117.992237 85.97785 117.705057 
C 85.69067 117.417876 85.301115 117.256518 84.894981 117.256518 
C 84.488847 117.256518 84.099293 117.417876 83.812113 117.705057 
C 83.524933 117.992237 83.363574 118.381791 83.363574 118.787925 
C 83.363574 119.194059 83.524933 119.583613 83.812113 119.870793 
C 84.099293 120.157973 84.488847 120.319332 84.894981 120.319332 
z
" clip-path="url(#pb475b8aac1)" style="stroke: #000000"/>
    <path d="M 85.600715 112.768625 
C 85.869969 112.768625 86.12823 112.66165 86.318621 112.471259 
C 86.509012 112.280868 86.615987 112.022607 86.615987 111.753354 
C 86.615987 111.484101 86.509012 111.225839 86.318621 111.035448 
C 86.12823 110.845058 85.869969 110.738082 85.600715 110.738082 
C 85.331462 110.738082 85.073201 110.845058 84.88281 111.035448 
C 84.692419 111.225839 84.585444 111.484101 84.585444 111.753354 
C 84.585444 112.022607 84.692419 112.280868 84.88281 112.471259 
C 85.073201 112.66165 85.331462 112.768625 85.600715 112.768625 
z
" clip-path="url(#pb475b8aac1)" style="stroke: #000000"/>
    <path d="M 83.390685 108.874927 
C 83.872284 108.874927 84.334223 108.683586 84.674765 108.343044 
C 85.015308 108.002502 85.206649 107.540562 85.206649 107.058963 
C 85.206649 106.577364 85.015308 106.115424 84.674765 105.774882 
C 84.334223 105.43434 83.872284 105.242999 83.390685 105.242999 
C 82.909085 105.242999 82.447146 105.43434 82.106604 105.774882 
C 81.766062 106.115424 81.57472 106.577364 81.57472 107.058963 
C 81.57472 107.540562 81.766062 108.002502 82.106604 108.343044 
C 82.447146 108.683586 82.909085 108.874927 83.390685 108.874927 
z
" clip-path="url(#pb475b8aac1)" style="stroke: #000000"/>
    <path d="M 80.615578 102.229885 
C 81.053539 102.229885 81.473621 102.055881 81.783307 101.746196 
C 82.092992 101.436511 82.266995 101.016429 82.266995 100.578468 
C 82.266995 100.140507 82.092992 99.720425 81.783307 99.41074 
C 81.473621 99.101054 81.053539 98.927051 80.615578 98.927051 
C 80.177617 98.927051 79.757535 99.101054 79.44785 99.41074 
C 79.138165 99.720425 78.964161 100.140507 78.964161 100.578468 
C 78.964161 101.016429 79.138165 101.436511 79.44785 101.746196 
C 79.757535 102.055881 80.177617 102.229885 80.615578 102.229885 
z
" clip-path="url(#pb475b8aac1)" style="stroke: #000000"/>
    <path d="M 77.101916 90.230981 
C 77.530371 90.230981 77.941335 90.060754 78.244298 89.75779 
C 78.547262 89.454827 78.717489 89.043863 78.717489 88.615408 
C 78.717489 88.186953 78.547262 87.775988 78.244298 87.473025 
C 77.941335 87.170061 77.530371 86.999834 77.101916 86.999834 
C 76.673461 86.999834 76.262496 87.170061 75.959533 87.473025 
C 75.656569 87.775988 75.486342 88.186953 75.486342 88.615408 
C 75.486342 89.043863 75.656569 89.454827 75.959533 89.75779 
C 76.262496 90.060754 76.673461 90.230981 77.101916 90.230981 
z
" clip-path="url(#pb475b8aac1)" style="stroke: #000000"/>
    <path d="M 73.635771 83.300624 
C 74.016552 83.300624 74.381789 83.149338 74.651043 82.880085 
C 74.920296 82.610832 75.071582 82.245595 75.071582 81.864814 
C 75.071582 81.484032 74.920296 81.118795 74.651043 80.849542 
C 74.381789 80.580289 74.016552 80.429003 73.635771 80.429003 
C 73.254989 80.429003 72.889753 80.580289 72.620499 80.849542 
C 72.351246 81.118795 72.19996 81.484032 72.19996 81.864814 
C 72.19996 82.245595 72.351246 82.610832 72.620499 82.880085 
C 72.889753 83.149338 73.254989 83.300624 73.635771 83.300624 
z
" clip-path="url(#pb475b8aac1)" style="stroke: #000000"/>
    <path d="M 72.79435 78.528716 
C 73.116877 78.528716 73.426237 78.400575 73.654298 78.172514 
C 73.882359 77.944453 74.0105 77.635093 74.0105 77.312566 
C 74.0105 76.99004 73.882359 76.68068 73.654298 76.452619 
C 73.426237 76.224558 73.116877 76.096417 72.79435 76.096417 
C 72.471824 76.096417 72.162463 76.224558 71.934403 76.452619 
C 71.706342 76.68068 71.578201 76.99004 71.578201 77.312566 
C 71.578201 77.635093 71.706342 77.944453 71.934403 78.172514 
C 72.162463 78.400575 72.471824 78.528716 72.79435 78.528716 
z
" clip-path="url(#pb475b8aac1)" style="stroke: #000000"/>
    <path d="M 69.133218 69.810233 
C 69.26582 69.810233 69.393008 69.75755 69.486772 69.663786 
C 69.580535 69.570023 69.633218 69.442834 69.633218 69.310233 
C 69.633218 69.177631 69.580535 69.050443 69.486772 68.956679 
C 69.393008 68.862916 69.26582 68.810233 69.133218 68.810233 
C 69.000617 68.810233 68.873428 68.862916 68.779665 68.956679 
C 68.685902 69.050443 68.633218 69.177631 68.633218 69.310233 
C 68.633218 69.442834 68.685902 69.570023 68.779665 69.663786 
C 68.873428 69.75755 69.000617 69.810233 69.133218 69.810233 
z
" clip-path="url(#pb475b8aac1)" style="stroke: #000000"/>
    <path d="M 93.946374 164.628306 
C 94.078976 164.628306 94.206164 164.575622 94.299928 164.481859 
C 94.393691 164.388096 94.446374 164.260907 94.446374 164.128306 
C 94.446374 163.995704 94.393691 163.868516 94.299928 163.774752 
C 94.206164 163.680989 94.078976 163.628306 93.946374 163.628306 
C 93.813773 163.628306 93.686584 163.680989 93.592821 163.774752 
C 93.499057 163.868516 93.446374 163.995704 93.446374 164.128306 
C 93.446374 164.260907 93.499057 164.388096 93.592821 164.481859 
C 93.686584 164.575622 93.813773 164.628306 93.946374 164.628306 
z
" clip-path="url(#pb475b8aac1)" style="stroke: #000000"/>
    <path d="M 88.246924 140.867485 
C 88.562306 140.867485 88.864812 140.742182 89.087821 140.519174 
C 89.310829 140.296166 89.436131 139.993659 89.436131 139.678278 
C 89.436131 139.362896 89.310829 139.06039 89.087821 138.837381 
C 88.864812 138.614373 88.562306 138.489071 88.246924 138.489071 
C 87.931543 138.489071 87.629036 138.614373 87.406028 138.837381 
C 87.183019 139.06039 87.057717 139.362896 87.057717 139.678278 
C 87.057717 139.993659 87.183019 140.296166 87.406028 140.519174 
C 87.629036 140.742182 87.931543 140.867485 88.246924 140.867485 
z
" clip-path="url(#pb475b8aac1)" style="stroke: #000000"/>
    <path d="M 84.601198 135.718726 
C 85.042794 135.718726 85.466363 135.543278 85.778618 135.231022 
C 86.090873 134.918767 86.266321 134.495198 86.266321 134.053603 
C 86.266321 133.612007 86.090873 133.188438 85.778618 132.876183 
C 85.466363 132.563928 85.042794 132.38848 84.601198 132.38848 
C 84.159603 132.38848 83.736034 132.563928 83.423779 132.876183 
C 83.111523 133.188438 82.936075 133.612007 82.936075 134.053603 
C 82.936075 134.495198 83.111523 134.918767 83.423779 135.231022 
C 83.736034 135.543278 84.159603 135.718726 84.601198 135.718726 
z
" clip-path="url(#pb475b8aac1)" style="stroke: #000000"/>
    <path d="M 79.120942 127.126844 
C 79.278633 127.126844 79.429886 127.064193 79.54139 126.952689 
C 79.652894 126.841184 79.715546 126.689931 79.715546 126.53224 
C 79.715546 126.37455 79.652894 126.223296 79.54139 126.111792 
C 79.429886 126.000288 79.278633 125.937637 79.120942 125.937637 
C 78.963251 125.937637 78.811998 126.000288 78.700494 126.111792 
C 78.58899 126.223296 78.526339 126.37455 78.526339 126.53224 
C 78.526339 126.689931 78.58899 126.841184 78.700494 126.952689 
C 78.811998 127.064193 78.963251 127.126844 79.120942 127.126844 
z
" clip-path="url(#pb475b8aac1)" style="stroke: #000000"/>
    <path d="M 79.190911 121.163671 
C 79.378438 121.163671 79.558309 121.089166 79.690911 120.956565 
C 79.823513 120.823963 79.898018 120.644091 79.898018 120.456565 
C 79.898018 120.269038 79.823513 120.089166 79.690911 119.956565 
C 79.558309 119.823963 79.378438 119.749458 79.190911 119.749458 
C 79.003384 119.749458 78.823513 119.823963 78.690911 119.956565 
C 78.558309 120.089166 78.483804 120.269038 78.483804 120.456565 
C 78.483804 120.644091 78.558309 120.823963 78.690911 120.956565 
C 78.823513 121.089166 79.003384 121.163671 79.190911 121.163671 
z
" clip-path="url(#pb475b8aac1)" style="stroke: #000000"/>
    <path d="M 76.953499 118.01443 
C 77.408804 118.01443 77.845522 117.833535 78.167472 117.511586 
C 78.489421 117.189637 78.670315 116.752919 78.670315 116.297614 
C 78.670315 115.842309 78.489421 115.405591 78.167472 115.083642 
C 77.845522 114.761693 77.408804 114.580798 76.953499 114.580798 
C 76.498195 114.580798 76.061477 114.761693 75.739527 115.083642 
C 75.417578 115.405591 75.236684 115.842309 75.236684 116.297614 
C 75.236684 116.752919 75.417578 117.189637 75.739527 117.511586 
C 76.061477 117.833535 76.498195 118.01443 76.953499 118.01443 
z
" clip-path="url(#pb475b8aac1)" style="stroke: #000000"/>
    <path d="M 74.736845 109.278893 
C 75.178441 109.278893 75.602009 109.103445 75.914265 108.79119 
C 76.22652 108.478934 76.401968 108.055366 76.401968 107.61377 
C 76.401968 107.172174 76.22652 106.748606 75.914265 106.43635 
C 75.602009 106.124095 75.178441 105.948647 74.736845 105.948647 
C 74.295249 105.948647 73.871681 106.124095 73.559425 106.43635 
C 73.24717 106.748606 73.071722 107.172174 73.071722 107.61377 
C 73.071722 108.055366 73.24717 108.478934 73.559425 108.79119 
C 73.871681 109.103445 74.295249 109.278893 74.736845 109.278893 
z
" clip-path="url(#pb475b8aac1)" style="stroke: #000000"/>
    <path d="M 73.808985 105.732977 
C 74.245094 105.732977 74.6634 105.559709 74.971776 105.251334 
C 75.280151 104.942958 75.453419 104.524652 75.453419 104.088543 
C 75.453419 103.652434 75.280151 103.234128 74.971776 102.925753 
C 74.6634 102.617377 74.245094 102.444109 73.808985 102.444109 
C 73.372876 102.444109 72.95457 102.617377 72.646195 102.925753 
C 72.337819 103.234128 72.164551 103.652434 72.164551 104.088543 
C 72.164551 104.524652 72.337819 104.942958 72.646195 105.251334 
C 72.95457 105.559709 73.372876 105.732977 73.808985 105.732977 
z
" clip-path="url(#pb475b8aac1)" style="stroke: #000000"/>
    <path d="M 71.906731 97.711806 
C 72.211758 97.711806 72.504332 97.590618 72.720019 97.374931 
C 72.935706 97.159245 73.056894 96.86667 73.056894 96.561643 
C 73.056894 96.256616 72.935706 95.964041 72.720019 95.748355 
C 72.504332 95.532668 72.211758 95.41148 71.906731 95.41148 
C 71.601704 95.41148 71.309129 95.532668 71.093442 95.748355 
C 70.877756 95.964041 70.756567 96.256616 70.756567 96.561643 
C 70.756567 96.86667 70.877756 97.159245 71.093442 97.374931 
C 71.309129 97.590618 71.601704 97.711806 71.906731 97.711806 
z
" clip-path="url(#pb475b8aac1)" style="stroke: #000000"/>
    <path d="M 69.630408 90.191031 
C 70.059842 90.191031 70.471746 90.020415 70.775402 89.716759 
C 71.079058 89.413103 71.249674 89.001199 71.249674 88.571765 
C 71.249674 88.14233 71.079058 87.730427 70.775402 87.426771 
C 70.471746 87.123115 70.059842 86.952499 69.630408 86.952499 
C 69.200974 86.952499 68.78907 87.123115 68.485414 87.426771 
C 68.181758 87.730427 68.011142 88.14233 68.011142 88.571765 
C 68.011142 89.001199 68.181758 89.413103 68.485414 89.716759 
C 68.78907 90.020415 69.200974 90.191031 69.630408 90.191031 
z
" clip-path="url(#pb475b8aac1)" style="stroke: #000000"/>
    <path d="M 68.66272 84.422062 
C 69.186798 84.422062 69.689482 84.213843 70.060061 83.843264 
C 70.43064 83.472685 70.638859 82.970001 70.638859 82.445923 
C 70.638859 81.921845 70.43064 81.419161 70.060061 81.048582 
C 69.689482 80.678002 69.186798 80.469784 68.66272 80.469784 
C 68.138642 80.469784 67.635958 80.678002 67.265379 81.048582 
C 66.894799 81.419161 66.686581 81.921845 66.686581 82.445923 
C 66.686581 82.970001 66.894799 83.472685 67.265379 83.843264 
C 67.635958 84.213843 68.138642 84.422062 68.66272 84.422062 
z
" clip-path="url(#pb475b8aac1)" style="stroke: #000000"/>
    <path d="M 64.634285 77.08578 
C 64.963511 77.08578 65.279297 76.954977 65.512095 76.722179 
C 65.744893 76.489381 65.875696 76.173595 65.875696 75.844368 
C 65.875696 75.515142 65.744893 75.199356 65.512095 74.966558 
C 65.279297 74.733759 64.963511 74.602956 64.634285 74.602956 
C 64.305058 74.602956 63.989272 74.733759 63.756474 74.966558 
C 63.523676 75.199356 63.392873 75.515142 63.392873 75.844368 
C 63.392873 76.173595 63.523676 76.489381 63.756474 76.722179 
C 63.989272 76.954977 64.305058 77.08578 64.634285 77.08578 
z
" clip-path="url(#pb475b8aac1)" style="stroke: #000000"/>
    <path d="M 61.448356 72.157449 
C 61.717609 72.157449 61.97587 72.050473 62.166261 71.860083 
C 62.356652 71.669692 62.463627 71.41143 62.463627 71.142177 
C 62.463627 70.872924 62.356652 70.614662 62.166261 70.424272 
C 61.97587 70.233881 61.717609 70.126906 61.448356 70.126906 
C 61.179102 70.126906 60.920841 70.233881 60.73045 70.424272 
C 60.540059 70.614662 60.433084 70.872924 60.433084 71.142177 
C 60.433084 71.41143 60.540059 71.669692 60.73045 71.860083 
C 60.920841 72.050473 61.179102 72.157449 61.448356 72.157449 
z
" clip-path="url(#pb475b8aac1)" style="stroke: #000000"/>
    <path d="M 61.119881 65.165255 
C 61.335568 65.165255 61.542449 65.079562 61.694963 64.927048 
C 61.847476 64.774535 61.933169 64.567653 61.933169 64.351966 
C 61.933169 64.13628 61.847476 63.929398 61.694963 63.776885 
C 61.542449 63.624371 61.335568 63.538678 61.119881 63.538678 
C 60.904194 63.538678 60.697313 63.624371 60.544799 63.776885 
C 60.392286 63.929398 60.306593 64.13628 60.306593 64.351966 
C 60.306593 64.567653 60.392286 64.774535 60.544799 64.927048 
C 60.697313 65.079562 60.904194 65.165255 61.119881 65.165255 
z
" clip-path="url(#pb475b8aac1)" style="stroke: #000000"/>
    <path d="M 84.241234 153.982226 
C 84.398924 153.982226 84.550178 153.919575 84.661682 153.808071 
C 84.773186 153.696567 84.835837 153.545313 84.835837 153.387623 
C 84.835837 153.229932 84.773186 153.078679 84.661682 152.967174 
C 84.550178 152.85567 84.398924 152.793019 84.241234 152.793019 
C 84.083543 152.793019 83.93229 152.85567 83.820786 152.967174 
C 83.709281 153.078679 83.64663 153.229932 83.64663 153.387623 
C 83.64663 153.545313 83.709281 153.696567 83.820786 153.808071 
C 83.93229 153.919575 84.083543 153.982226 84.241234 153.982226 
z
" clip-path="url(#pb475b8aac1)" style="stroke: #000000"/>
    <path d="M 79.337735 146.310777 
C 79.618153 146.310777 79.887124 146.199366 80.085409 146.00108 
C 80.283695 145.802794 80.395106 145.533824 80.395106 145.253406 
C 80.395106 144.972987 80.283695 144.704017 80.085409 144.505731 
C 79.887124 144.307446 79.618153 144.196034 79.337735 144.196034 
C 79.057317 144.196034 78.788346 144.307446 78.590061 144.505731 
C 78.391775 144.704017 78.280364 144.972987 78.280364 145.253406 
C 78.280364 145.533824 78.391775 145.802794 78.590061 146.00108 
C 78.788346 146.199366 79.057317 146.310777 79.337735 146.310777 
z
" clip-path="url(#pb475b8aac1)" style="stroke: #000000"/>
    <path d="M 79.005951 143.112798 
C 79.25275 143.112798 79.489474 143.014743 79.663988 142.84023 
C 79.838501 142.665716 79.936556 142.428992 79.936556 142.182193 
C 79.936556 141.935394 79.838501 141.698669 79.663988 141.524156 
C 79.489474 141.349642 79.25275 141.251588 79.005951 141.251588 
C 78.759151 141.251588 78.522427 141.349642 78.347914 141.524156 
C 78.1734 141.698669 78.075346 141.935394 78.075346 142.182193 
C 78.075346 142.428992 78.1734 142.665716 78.347914 142.84023 
C 78.522427 143.014743 78.759151 143.112798 79.005951 143.112798 
z
" clip-path="url(#pb475b8aac1)" style="stroke: #000000"/>
    <path d="M 80.50191 137.191881 
C 80.900937 137.191881 81.283674 137.033346 81.565829 136.751192 
C 81.847984 136.469037 82.006519 136.0863 82.006519 135.687273 
C 82.006519 135.288246 81.847984 134.905509 81.565829 134.623354 
C 81.283674 134.3412 80.900937 134.182665 80.50191 134.182665 
C 80.102883 134.182665 79.720146 134.3412 79.437992 134.623354 
C 79.155837 134.905509 78.997302 135.288246 78.997302 135.687273 
C 78.997302 136.0863 79.155837 136.469037 79.437992 136.751192 
C 79.720146 137.033346 80.102883 137.191881 80.50191 137.191881 
z
" clip-path="url(#pb475b8aac1)" style="stroke: #000000"/>
    <path d="M 75.250296 131.971199 
C 75.407986 131.971199 75.55924 131.908548 75.670744 131.797044 
C 75.782248 131.68554 75.844899 131.534286 75.844899 131.376596 
C 75.844899 131.218905 75.782248 131.067651 75.670744 130.956147 
C 75.55924 130.844643 75.407986 130.781992 75.250296 130.781992 
C 75.092605 130.781992 74.941352 130.844643 74.829847 130.956147 
C 74.718343 131.067651 74.655692 131.218905 74.655692 131.376596 
C 74.655692 131.534286 74.718343 131.68554 74.829847 131.797044 
C 74.941352 131.908548 75.092605 131.971199 75.250296 131.971199 
z
" clip-path="url(#pb475b8aac1)" style="stroke: #000000"/>
    <path d="M 74.975442 123.21475 
C 75.182974 123.21475 75.382035 123.132296 75.528783 122.985548 
C 75.67553 122.838801 75.757984 122.63974 75.757984 122.432208 
C 75.757984 122.224675 75.67553 122.025614 75.528783 121.878867 
C 75.382035 121.732119 75.182974 121.649665 74.975442 121.649665 
C 74.767909 121.649665 74.568848 121.732119 74.422101 121.878867 
C 74.275353 122.025614 74.192899 122.224675 74.192899 122.432208 
C 74.192899 122.63974 74.275353 122.838801 74.422101 122.985548 
C 74.568848 123.132296 74.767909 123.21475 74.975442 123.21475 
z
" clip-path="url(#pb475b8aac1)" style="stroke: #000000"/>
    <path d="M 71.616043 117.980164 
C 72.117793 117.980164 72.59906 117.780817 72.95385 117.426026 
C 73.308641 117.071236 73.507988 116.589969 73.507988 116.088219 
C 73.507988 115.58647 73.308641 115.105203 72.95385 114.750412 
C 72.59906 114.395622 72.117793 114.196274 71.616043 114.196274 
C 71.114294 114.196274 70.633027 114.395622 70.278236 114.750412 
C 69.923446 115.105203 69.724098 115.58647 69.724098 116.088219 
C 69.724098 116.589969 69.923446 117.071236 70.278236 117.426026 
C 70.633027 117.780817 71.114294 117.980164 71.616043 117.980164 
z
" clip-path="url(#pb475b8aac1)" style="stroke: #000000"/>
    <path d="M 71.226264 110.860901 
C 71.650733 110.860901 72.057873 110.692258 72.358018 110.392113 
C 72.658163 110.091968 72.826807 109.684827 72.826807 109.260358 
C 72.826807 108.835889 72.658163 108.428748 72.358018 108.128603 
C 72.057873 107.828459 71.650733 107.659815 71.226264 107.659815 
C 70.801795 107.659815 70.394654 107.828459 70.094509 108.128603 
C 69.794364 108.428748 69.625721 108.835889 69.625721 109.260358 
C 69.625721 109.684827 69.794364 110.091968 70.094509 110.392113 
C 70.394654 110.692258 70.801795 110.860901 71.226264 110.860901 
z
" clip-path="url(#pb475b8aac1)" style="stroke: #000000"/>
    <path d="M 68.452467 107.552747 
C 68.971644 107.552747 69.469627 107.346476 69.83674 106.979362 
C 70.203854 106.612249 70.410125 106.114266 70.410125 105.595089 
C 70.410125 105.075911 70.203854 104.577929 69.83674 104.210815 
C 69.469627 103.843701 68.971644 103.63743 68.452467 103.63743 
C 67.93329 103.63743 67.435307 103.843701 67.068193 104.210815 
C 66.701079 104.577929 66.494808 105.075911 66.494808 105.595089 
C 66.494808 106.114266 66.701079 106.612249 67.068193 106.979362 
C 67.435307 107.346476 67.93329 107.552747 68.452467 107.552747 
z
" clip-path="url(#pb475b8aac1)" style="stroke: #000000"/>
    <path d="M 66.643731 99.993695 
C 67.070207 99.993695 67.479273 99.824255 67.780837 99.522691 
C 68.082401 99.221127 68.251841 98.812061 68.251841 98.385585 
C 68.251841 97.959109 68.082401 97.550043 67.780837 97.248479 
C 67.479273 96.946915 67.070207 96.777474 66.643731 96.777474 
C 66.217255 96.777474 65.808189 96.946915 65.506625 97.248479 
C 65.205061 97.550043 65.03562 97.959109 65.03562 98.385585 
C 65.03562 98.812061 65.205061 99.221127 65.506625 99.522691 
C 65.808189 99.824255 66.217255 99.993695 66.643731 99.993695 
z
" clip-path="url(#pb475b8aac1)" style="stroke: #000000"/>
    <path d="M 62.169135 94.080468 
C 62.60983 94.080468 63.032535 93.905378 63.344154 93.593759 
C 63.655773 93.282141 63.830863 92.859436 63.830863 92.41874 
C 63.830863 91.978045 63.655773 91.55534 63.344154 91.243721 
C 63.032535 90.932102 62.60983 90.757012 62.169135 90.757012 
C 61.728439 90.757012 61.305734 90.932102 60.994115 91.243721 
C 60.682497 91.55534 60.507407 91.978045 60.507407 92.41874 
C 60.507407 92.859436 60.682497 93.282141 60.994115 93.593759 
C 61.305734 93.905378 61.728439 94.080468 62.169135 94.080468 
z
" clip-path="url(#pb475b8aac1)" style="stroke: #000000"/>
    <path d="M 60.870911 87.321824 
C 61.271149 87.321824 61.655048 87.162808 61.938059 86.879797 
C 62.22107 86.596786 62.380086 86.212887 62.380086 85.812649 
C 62.380086 85.412411 62.22107 85.028512 61.938059 84.745501 
C 61.655048 84.46249 61.271149 84.303474 60.870911 84.303474 
C 60.470674 84.303474 60.086775 84.46249 59.803764 84.745501 
C 59.520753 85.028512 59.361737 85.412411 59.361737 85.812649 
C 59.361737 86.212887 59.520753 86.596786 59.803764 86.879797 
C 60.086775 87.162808 60.470674 87.321824 60.870911 87.321824 
z
" clip-path="url(#pb475b8aac1)" style="stroke: #000000"/>
    <path d="M 58.633446 81.275594 
C 58.974963 81.275594 59.302538 81.139908 59.544026 80.898419 
C 59.785515 80.65693 59.921201 80.329356 59.921201 79.987839 
C 59.921201 79.646322 59.785515 79.318747 59.544026 79.077259 
C 59.302538 78.83577 58.974963 78.700084 58.633446 78.700084 
C 58.29193 78.700084 57.964355 78.83577 57.722866 79.077259 
C 57.481377 79.318747 57.345692 79.646322 57.345692 79.987839 
C 57.345692 80.329356 57.481377 80.65693 57.722866 80.898419 
C 57.964355 81.139908 58.29193 81.275594 58.633446 81.275594 
z
" clip-path="url(#pb475b8aac1)" style="stroke: #000000"/>
    <path d="M 57.463829 75.249096 
C 57.679515 75.249096 57.886397 75.163402 58.038911 75.010889 
C 58.191424 74.858376 58.277117 74.651494 58.277117 74.435807 
C 58.277117 74.220121 58.191424 74.013239 58.038911 73.860726 
C 57.886397 73.708212 57.679515 73.622519 57.463829 73.622519 
C 57.248142 73.622519 57.041261 73.708212 56.888747 73.860726 
C 56.736234 74.013239 56.650541 74.220121 56.650541 74.435807 
C 56.650541 74.651494 56.736234 74.858376 56.888747 75.010889 
C 57.041261 75.163402 57.248142 75.249096 57.463829 75.249096 
z
" clip-path="url(#pb475b8aac1)" style="stroke: #000000"/>
    <path d="M 53.699597 63.357645 
C 53.915284 63.357645 54.122166 63.271951 54.274679 63.119438 
C 54.427193 62.966925 54.512886 62.760043 54.512886 62.544356 
C 54.512886 62.32867 54.427193 62.121788 54.274679 61.969275 
C 54.122166 61.816761 53.915284 61.731068 53.699597 61.731068 
C 53.483911 61.731068 53.277029 61.816761 53.124516 61.969275 
C 52.972002 62.121788 52.886309 62.32867 52.886309 62.544356 
C 52.886309 62.760043 52.972002 62.966925 53.124516 63.119438 
C 53.277029 63.271951 53.483911 63.357645 53.699597 63.357645 
z
" clip-path="url(#pb475b8aac1)" style="stroke: #000000"/>
    <path d="M 46.794835 48.816165 
C 46.927437 48.816165 47.054625 48.763482 47.148388 48.669718 
C 47.242152 48.575955 47.294835 48.448767 47.294835 48.316165 
C 47.294835 48.183563 47.242152 48.056375 47.148388 47.962612 
C 47.054625 47.868848 46.927437 47.816165 46.794835 47.816165 
C 46.662233 47.816165 46.535045 47.868848 46.441282 47.962612 
C 46.347518 48.056375 46.294835 48.183563 46.294835 48.316165 
C 46.294835 48.448767 46.347518 48.575955 46.441282 48.669718 
C 46.535045 48.763482 46.662233 48.816165 46.794835 48.816165 
z
" clip-path="url(#pb475b8aac1)" style="stroke: #000000"/>
    <path d="M 80.601262 161.946465 
C 80.799547 161.946465 80.989738 161.867685 81.129947 161.727476 
C 81.270157 161.587267 81.348936 161.397076 81.348936 161.198791 
C 81.348936 161.000505 81.270157 160.810314 81.129947 160.670105 
C 80.989738 160.529896 80.799547 160.451116 80.601262 160.451116 
C 80.402976 160.451116 80.212785 160.529896 80.072576 160.670105 
C 79.932367 160.810314 79.853587 161.000505 79.853587 161.198791 
C 79.853587 161.397076 79.932367 161.587267 80.072576 161.727476 
C 80.212785 161.867685 80.402976 161.946465 80.601262 161.946465 
z
" clip-path="url(#pb475b8aac1)" style="stroke: #000000"/>
    <path d="M 80.042485 158.088603 
C 80.175086 158.088603 80.302275 158.03592 80.396038 157.942156 
C 80.489802 157.848393 80.542485 157.721204 80.542485 157.588603 
C 80.542485 157.456001 80.489802 157.328813 80.396038 157.235049 
C 80.302275 157.141286 80.175086 157.088603 80.042485 157.088603 
C 79.909883 157.088603 79.782695 157.141286 79.688931 157.235049 
C 79.595168 157.328813 79.542485 157.456001 79.542485 157.588603 
C 79.542485 157.721204 79.595168 157.848393 79.688931 157.942156 
C 79.782695 158.03592 79.909883 158.088603 80.042485 158.088603 
z
" clip-path="url(#pb475b8aac1)" style="stroke: #000000"/>
    <path d="M 77.678045 151.320269 
C 77.901054 151.320269 78.114958 151.231667 78.272649 151.073976 
C 78.43034 150.916285 78.518942 150.702381 78.518942 150.479372 
C 78.518942 150.256364 78.43034 150.04246 78.272649 149.884769 
C 78.114958 149.727078 77.901054 149.638476 77.678045 149.638476 
C 77.455037 149.638476 77.241132 149.727078 77.083442 149.884769 
C 76.925751 150.04246 76.837149 150.256364 76.837149 150.479372 
C 76.837149 150.702381 76.925751 150.916285 77.083442 151.073976 
C 77.241132 151.231667 77.455037 151.320269 77.678045 151.320269 
z
" clip-path="url(#pb475b8aac1)" style="stroke: #000000"/>
    <path d="M 72.761673 146.852226 
C 72.894274 146.852226 73.021463 146.799543 73.115226 146.705779 
C 73.20899 146.612016 73.261673 146.484828 73.261673 146.352226 
C 73.261673 146.219624 73.20899 146.092436 73.115226 145.998673 
C 73.021463 145.904909 72.894274 145.852226 72.761673 145.852226 
C 72.629071 145.852226 72.501883 145.904909 72.408119 145.998673 
C 72.314356 146.092436 72.261673 146.219624 72.261673 146.352226 
C 72.261673 146.484828 72.314356 146.612016 72.408119 146.705779 
C 72.501883 146.799543 72.629071 146.852226 72.761673 146.852226 
z
" clip-path="url(#pb475b8aac1)" style="stroke: #000000"/>
    <path d="M 70.053504 138.165075 
C 70.416244 138.165075 70.764176 138.020956 71.020672 137.76446 
C 71.277168 137.507964 71.421286 137.160032 71.421286 136.797292 
C 71.421286 136.434552 71.277168 136.08662 71.020672 135.830124 
C 70.764176 135.573628 70.416244 135.42951 70.053504 135.42951 
C 69.690764 135.42951 69.342832 135.573628 69.086336 135.830124 
C 68.829839 136.08662 68.685721 136.434552 68.685721 136.797292 
C 68.685721 137.160032 68.829839 137.507964 69.086336 137.76446 
C 69.342832 138.020956 69.690764 138.165075 70.053504 138.165075 
z
" clip-path="url(#pb475b8aac1)" style="stroke: #000000"/>
    <path d="M 69.043225 132.896814 
C 69.392251 132.896814 69.72703 132.758144 69.973829 132.511345 
C 70.220629 132.264545 70.359299 131.929767 70.359299 131.58074 
C 70.359299 131.231713 70.220629 130.896934 69.973829 130.650135 
C 69.72703 130.403336 69.392251 130.264666 69.043225 130.264666 
C 68.694198 130.264666 68.359419 130.403336 68.11262 130.650135 
C 67.86582 130.896934 67.727151 131.231713 67.727151 131.58074 
C 67.727151 131.929767 67.86582 132.264545 68.11262 132.511345 
C 68.359419 132.758144 68.694198 132.896814 69.043225 132.896814 
z
" clip-path="url(#pb475b8aac1)" style="stroke: #000000"/>
    <path d="M 67.344501 126.263036 
C 67.786991 126.263036 68.211418 126.087232 68.524306 125.774344 
C 68.837194 125.461456 69.012998 125.037029 69.012998 124.594539 
C 69.012998 124.152048 68.837194 123.727621 68.524306 123.414733 
C 68.211418 123.101845 67.786991 122.926042 67.344501 122.926042 
C 66.90201 122.926042 66.477583 123.101845 66.164695 123.414733 
C 65.851807 123.727621 65.676004 124.152048 65.676004 124.594539 
C 65.676004 125.037029 65.851807 125.461456 66.164695 125.774344 
C 66.477583 126.087232 66.90201 126.263036 67.344501 126.263036 
z
" clip-path="url(#pb475b8aac1)" style="stroke: #000000"/>
    <path d="M 65.884838 118.117678 
C 66.304161 118.117678 66.706366 117.951079 67.002872 117.654573 
C 67.299378 117.358067 67.465977 116.955862 67.465977 116.536539 
C 67.465977 116.117216 67.299378 115.715011 67.002872 115.418505 
C 66.706366 115.121999 66.304161 114.9554 65.884838 114.9554 
C 65.465515 114.9554 65.06331 115.121999 64.766804 115.418505 
C 64.470298 115.715011 64.303699 116.117216 64.303699 116.536539 
C 64.303699 116.955862 64.470298 117.358067 64.766804 117.654573 
C 65.06331 117.951079 65.465515 118.117678 65.884838 118.117678 
z
" clip-path="url(#pb475b8aac1)" style="stroke: #000000"/>
    <path d="M 64.653931 111.528252 
C 64.905718 111.528252 65.147227 111.428215 65.325268 111.250175 
C 65.503309 111.072134 65.603345 110.830625 65.603345 110.578837 
C 65.603345 110.32705 65.503309 110.085541 65.325268 109.9075 
C 65.147227 109.729459 64.905718 109.629423 64.653931 109.629423 
C 64.402143 109.629423 64.160634 109.729459 63.982593 109.9075 
C 63.804553 110.085541 63.704516 110.32705 63.704516 110.578837 
C 63.704516 110.830625 63.804553 111.072134 63.982593 111.250175 
C 64.160634 111.428215 64.402143 111.528252 64.653931 111.528252 
z
" clip-path="url(#pb475b8aac1)" style="stroke: #000000"/>
    <path d="M 61.729127 108.785157 
C 62.189267 108.785157 62.630624 108.602341 62.955992 108.276972 
C 63.281361 107.951604 63.464177 107.510247 63.464177 107.050107 
C 63.464177 106.589966 63.281361 106.148609 62.955992 105.823241 
C 62.630624 105.497872 62.189267 105.315056 61.729127 105.315056 
C 61.268986 105.315056 60.82763 105.497872 60.502261 105.823241 
C 60.176893 106.148609 59.994077 106.589966 59.994077 107.050107 
C 59.994077 107.510247 60.176893 107.951604 60.502261 108.276972 
C 60.82763 108.602341 61.268986 108.785157 61.729127 108.785157 
z
" clip-path="url(#pb475b8aac1)" style="stroke: #000000"/>
    <path d="M 56.626926 103.939692 
C 57.061159 103.939692 57.477666 103.767169 57.784715 103.46012 
C 58.091764 103.153071 58.264287 102.736564 58.264287 102.302331 
C 58.264287 101.868098 58.091764 101.451591 57.784715 101.144542 
C 57.477666 100.837493 57.061159 100.66497 56.626926 100.66497 
C 56.192693 100.66497 55.776186 100.837493 55.469137 101.144542 
C 55.162087 101.451591 54.989565 101.868098 54.989565 102.302331 
C 54.989565 102.736564 55.162087 103.153071 55.469137 103.46012 
C 55.776186 103.767169 56.192693 103.939692 56.626926 103.939692 
z
" clip-path="url(#pb475b8aac1)" style="stroke: #000000"/>
    <path d="M 57.000413 97.63785 
C 57.448162 97.63785 57.877633 97.459957 58.194239 97.143351 
C 58.510845 96.826745 58.688738 96.397274 58.688738 95.949525 
C 58.688738 95.501777 58.510845 95.072306 58.194239 94.7557 
C 57.877633 94.439094 57.448162 94.261201 57.000413 94.261201 
C 56.552665 94.261201 56.123194 94.439094 55.806588 94.7557 
C 55.489982 95.072306 55.312089 95.501777 55.312089 95.949525 
C 55.312089 96.397274 55.489982 96.826745 55.806588 97.143351 
C 56.123194 97.459957 56.552665 97.63785 57.000413 97.63785 
z
" clip-path="url(#pb475b8aac1)" style="stroke: #000000"/>
    <path d="M 51.399268 76.368688 
C 51.664471 76.368688 51.918848 76.263322 52.106375 76.075795 
C 52.293901 75.888268 52.399268 75.633891 52.399268 75.368688 
C 52.399268 75.103485 52.293901 74.849108 52.106375 74.661581 
C 51.918848 74.474054 51.664471 74.368688 51.399268 74.368688 
C 51.134065 74.368688 50.879688 74.474054 50.692161 74.661581 
C 50.504634 74.849108 50.399268 75.103485 50.399268 75.368688 
C 50.399268 75.633891 50.504634 75.888268 50.692161 76.075795 
C 50.879688 76.263322 51.134065 76.368688 51.399268 76.368688 
z
" clip-path="url(#pb475b8aac1)" style="stroke: #000000"/>
    <path d="M 68.850438 156.418465 
C 68.98304 156.418465 69.110228 156.365782 69.203992 156.272018 
C 69.297755 156.178255 69.350438 156.051067 69.350438 155.918465 
C 69.350438 155.785863 69.297755 155.658675 69.203992 155.564912 
C 69.110228 155.471148 68.98304 155.418465 68.850438 155.418465 
C 68.717837 155.418465 68.590648 155.471148 68.496885 155.564912 
C 68.403121 155.658675 68.350438 155.785863 68.350438 155.918465 
C 68.350438 156.051067 68.403121 156.178255 68.496885 156.272018 
C 68.590648 156.365782 68.717837 156.418465 68.850438 156.418465 
z
" clip-path="url(#pb475b8aac1)" style="stroke: #000000"/>
    <path d="M 68.56346 144.709403 
C 68.862887 144.709403 69.150092 144.59044 69.361819 144.378712 
C 69.573546 144.166985 69.69251 143.879781 69.69251 143.580353 
C 69.69251 143.280925 69.573546 142.993721 69.361819 142.781994 
C 69.150092 142.570266 68.862887 142.451303 68.56346 142.451303 
C 68.264032 142.451303 67.976828 142.570266 67.765101 142.781994 
C 67.553373 142.993721 67.434409 143.280925 67.434409 143.580353 
C 67.434409 143.879781 67.553373 144.166985 67.765101 144.378712 
C 67.976828 144.59044 68.264032 144.709403 68.56346 144.709403 
z
" clip-path="url(#pb475b8aac1)" style="stroke: #000000"/>
    <path d="M 65.776765 140.744014 
C 65.951278 140.744014 66.118668 140.674679 66.242067 140.551279 
C 66.365467 140.42788 66.434802 140.26049 66.434802 140.085977 
C 66.434802 139.911464 66.365467 139.744074 66.242067 139.620675 
C 66.118668 139.497275 65.951278 139.42794 65.776765 139.42794 
C 65.602251 139.42794 65.434862 139.497275 65.311462 139.620675 
C 65.188063 139.744074 65.118728 139.911464 65.118728 140.085977 
C 65.118728 140.26049 65.188063 140.42788 65.311462 140.551279 
C 65.434862 140.674679 65.602251 140.744014 65.776765 140.744014 
z
" clip-path="url(#pb475b8aac1)" style="stroke: #000000"/>
    <path d="M 62.246899 134.109129 
C 62.718504 134.109129 63.170857 133.921758 63.504332 133.588283 
C 63.837807 133.254808 64.025178 132.802455 64.025178 132.33085 
C 64.025178 131.859244 63.837807 131.406892 63.504332 131.073416 
C 63.170857 130.739941 62.718504 130.55257 62.246899 130.55257 
C 61.775293 130.55257 61.32294 130.739941 60.989465 131.073416 
C 60.65599 131.406892 60.468619 131.859244 60.468619 132.33085 
C 60.468619 132.802455 60.65599 133.254808 60.989465 133.588283 
C 61.32294 133.921758 61.775293 134.109129 62.246899 134.109129 
z
" clip-path="url(#pb475b8aac1)" style="stroke: #000000"/>
    <path d="M 63.257107 129.311826 
C 63.673249 129.311826 64.072403 129.146491 64.366659 128.852234 
C 64.660916 128.557977 64.826251 128.158823 64.826251 127.742681 
C 64.826251 127.326539 64.660916 126.927385 64.366659 126.633129 
C 64.072403 126.338872 63.673249 126.173537 63.257107 126.173537 
C 62.840965 126.173537 62.441811 126.338872 62.147554 126.633129 
C 61.853297 126.927385 61.687962 127.326539 61.687962 127.742681 
C 61.687962 128.158823 61.853297 128.557977 62.147554 128.852234 
C 62.441811 129.146491 62.840965 129.311826 63.257107 129.311826 
z
" clip-path="url(#pb475b8aac1)" style="stroke: #000000"/>
    <path d="M 60.824216 121.291917 
C 61.315875 121.291917 61.787464 121.096579 62.135119 120.748923 
C 62.482774 120.401268 62.678113 119.929679 62.678113 119.43802 
C 62.678113 118.946361 62.482774 118.474773 62.135119 118.127118 
C 61.787464 117.779462 61.315875 117.584124 60.824216 117.584124 
C 60.332557 117.584124 59.860969 117.779462 59.513314 118.127118 
C 59.165658 118.474773 58.97032 118.946361 58.97032 119.43802 
C 58.97032 119.929679 59.165658 120.401268 59.513314 120.748923 
C 59.860969 121.096579 60.332557 121.291917 60.824216 121.291917 
z
" clip-path="url(#pb475b8aac1)" style="stroke: #000000"/>
    <path d="M 55.506343 115.583249 
C 55.934798 115.583249 56.345763 115.413022 56.648726 115.110059 
C 56.95169 114.807095 57.121917 114.396131 57.121917 113.967676 
C 57.121917 113.539221 56.95169 113.128257 56.648726 112.825293 
C 56.345763 112.52233 55.934798 112.352103 55.506343 112.352103 
C 55.077888 112.352103 54.666924 112.52233 54.363961 112.825293 
C 54.060997 113.128257 53.89077 113.539221 53.89077 113.967676 
C 53.89077 114.396131 54.060997 114.807095 54.363961 115.110059 
C 54.666924 115.413022 55.077888 115.583249 55.506343 115.583249 
z
" clip-path="url(#pb475b8aac1)" style="stroke: #000000"/>
    <path d="M 55.19567 111.063338 
C 55.515867 111.063338 55.822994 110.936122 56.049408 110.709708 
C 56.275822 110.483294 56.403038 110.176167 56.403038 109.85597 
C 56.403038 109.535772 56.275822 109.228645 56.049408 109.002231 
C 55.822994 108.775817 55.515867 108.648601 55.19567 108.648601 
C 54.875472 108.648601 54.568345 108.775817 54.341931 109.002231 
C 54.115517 109.228645 53.988301 109.535772 53.988301 109.85597 
C 53.988301 110.176167 54.115517 110.483294 54.341931 110.709708 
C 54.568345 110.936122 54.875472 111.063338 55.19567 111.063338 
z
" clip-path="url(#pb475b8aac1)" style="stroke: #000000"/>
    <path d="M 51.261332 104.757017 
C 51.693664 104.757017 52.108348 104.585249 52.414054 104.279544 
C 52.719759 103.973838 52.891527 103.559155 52.891527 103.126822 
C 52.891527 102.694489 52.719759 102.279805 52.414054 101.9741 
C 52.108348 101.668394 51.693664 101.496626 51.261332 101.496626 
C 50.828999 101.496626 50.414315 101.668394 50.10861 101.9741 
C 49.802904 102.279805 49.631136 102.694489 49.631136 103.126822 
C 49.631136 103.559155 49.802904 103.973838 50.10861 104.279544 
C 50.414315 104.585249 50.828999 104.757017 51.261332 104.757017 
z
" clip-path="url(#pb475b8aac1)" style="stroke: #000000"/>
    <path d="M 47.380709 89.352222 
C 47.688424 89.352222 47.983577 89.229966 48.201164 89.012379 
C 48.418751 88.794792 48.541007 88.499639 48.541007 88.191925 
C 48.541007 87.88421 48.418751 87.589057 48.201164 87.37147 
C 47.983577 87.153883 47.688424 87.031627 47.380709 87.031627 
C 47.072995 87.031627 46.777842 87.153883 46.560255 87.37147 
C 46.342668 87.589057 46.220412 87.88421 46.220412 88.191925 
C 46.220412 88.499639 46.342668 88.794792 46.560255 89.012379 
C 46.777842 89.229966 47.072995 89.352222 47.380709 89.352222 
z
" clip-path="url(#pb475b8aac1)" style="stroke: #000000"/>
    <path d="M 65.637375 167.692448 
C 65.795066 167.692448 65.946319 167.629797 66.057824 167.518293 
C 66.169328 167.406789 66.231979 167.255536 66.231979 167.097845 
C 66.231979 166.940154 66.169328 166.788901 66.057824 166.677397 
C 65.946319 166.565892 65.795066 166.503241 65.637375 166.503241 
C 65.479685 166.503241 65.328431 166.565892 65.216927 166.677397 
C 65.105423 166.788901 65.042772 166.940154 65.042772 167.097845 
C 65.042772 167.255536 65.105423 167.406789 65.216927 167.518293 
C 65.328431 167.629797 65.479685 167.692448 65.637375 167.692448 
z
" clip-path="url(#pb475b8aac1)" style="stroke: #000000"/>
    <path d="M 61.573283 152.089253 
C 61.820082 152.089253 62.056806 151.991199 62.23132 151.816685 
C 62.405833 151.642172 62.503888 151.405448 62.503888 151.158648 
C 62.503888 150.911849 62.405833 150.675125 62.23132 150.500611 
C 62.056806 150.326098 61.820082 150.228043 61.573283 150.228043 
C 61.326484 150.228043 61.089759 150.326098 60.915246 150.500611 
C 60.740732 150.675125 60.642678 150.911849 60.642678 151.158648 
C 60.642678 151.405448 60.740732 151.642172 60.915246 151.816685 
C 61.089759 151.991199 61.326484 152.089253 61.573283 152.089253 
z
" clip-path="url(#pb475b8aac1)" style="stroke: #000000"/>
    <path d="M 59.777693 150.319215 
C 60.042896 150.319215 60.297272 150.213849 60.484799 150.026322 
C 60.672326 149.838795 60.777693 149.584418 60.777693 149.319215 
C 60.777693 149.054012 60.672326 148.799635 60.484799 148.612108 
C 60.297272 148.424581 60.042896 148.319215 59.777693 148.319215 
C 59.512489 148.319215 59.258113 148.424581 59.070586 148.612108 
C 58.883059 148.799635 58.777693 149.054012 58.777693 149.319215 
C 58.777693 149.584418 58.883059 149.838795 59.070586 150.026322 
C 59.258113 150.213849 59.512489 150.319215 59.777693 150.319215 
z
" clip-path="url(#pb475b8aac1)" style="stroke: #000000"/>
    <path d="M 58.529995 142.504529 
C 58.662597 142.504529 58.789785 142.451846 58.883549 142.358082 
C 58.977312 142.264319 59.029995 142.13713 59.029995 142.004529 
C 59.029995 141.871927 58.977312 141.744739 58.883549 141.650976 
C 58.789785 141.557212 58.662597 141.504529 58.529995 141.504529 
C 58.397394 141.504529 58.270205 141.557212 58.176442 141.650976 
C 58.082678 141.744739 58.029995 141.871927 58.029995 142.004529 
C 58.029995 142.13713 58.082678 142.264319 58.176442 142.358082 
C 58.270205 142.451846 58.397394 142.504529 58.529995 142.504529 
z
" clip-path="url(#pb475b8aac1)" style="stroke: #000000"/>
    <path d="M 56.566536 139.080105 
C 56.699137 139.080105 56.826326 139.027421 56.920089 138.933658 
C 57.013853 138.839895 57.066536 138.712706 57.066536 138.580105 
C 57.066536 138.447503 57.013853 138.320315 56.920089 138.226551 
C 56.826326 138.132788 56.699137 138.080105 56.566536 138.080105 
C 56.433934 138.080105 56.306746 138.132788 56.212983 138.226551 
C 56.119219 138.320315 56.066536 138.447503 56.066536 138.580105 
C 56.066536 138.712706 56.119219 138.839895 56.212983 138.933658 
C 56.306746 139.027421 56.433934 139.080105 56.566536 139.080105 
z
" clip-path="url(#pb475b8aac1)" style="stroke: #000000"/>
    <path d="M 55.193286 123.426286 
C 55.325887 123.426286 55.453076 123.373603 55.546839 123.27984 
C 55.640603 123.186076 55.693286 123.058888 55.693286 122.926286 
C 55.693286 122.793685 55.640603 122.666496 55.546839 122.572733 
C 55.453076 122.478969 55.325887 122.426286 55.193286 122.426286 
C 55.060684 122.426286 54.933496 122.478969 54.839732 122.572733 
C 54.745969 122.666496 54.693286 122.793685 54.693286 122.926286 
C 54.693286 123.058888 54.745969 123.186076 54.839732 123.27984 
C 54.933496 123.373603 55.060684 123.426286 55.193286 123.426286 
z
" clip-path="url(#pb475b8aac1)" style="stroke: #000000"/>
    <path d="M 51.056017 120.522275 
C 51.188618 120.522275 51.315807 120.469592 51.40957 120.375828 
C 51.503334 120.282065 51.556017 120.154877 51.556017 120.022275 
C 51.556017 119.889673 51.503334 119.762485 51.40957 119.668722 
C 51.315807 119.574958 51.188618 119.522275 51.056017 119.522275 
C 50.923415 119.522275 50.796227 119.574958 50.702463 119.668722 
C 50.6087 119.762485 50.556017 119.889673 50.556017 120.022275 
C 50.556017 120.154877 50.6087 120.282065 50.702463 120.375828 
C 50.796227 120.469592 50.923415 120.522275 51.056017 120.522275 
z
" clip-path="url(#pb475b8aac1)" style="stroke: #000000"/>
    <path d="M 48.011045 112.412608 
C 48.411283 112.412608 48.795182 112.253592 49.078192 111.970581 
C 49.361203 111.68757 49.52022 111.303671 49.52022 110.903433 
C 49.52022 110.503195 49.361203 110.119296 49.078192 109.836286 
C 48.795182 109.553275 48.411283 109.394259 48.011045 109.394259 
C 47.610807 109.394259 47.226908 109.553275 46.943897 109.836286 
C 46.660886 110.119296 46.50187 110.503195 46.50187 110.903433 
C 46.50187 111.303671 46.660886 111.68757 46.943897 111.970581 
C 47.226908 112.253592 47.610807 112.412608 48.011045 112.412608 
z
" clip-path="url(#pb475b8aac1)" style="stroke: #000000"/>
    <path d="M 46.760397 100.394435 
C 47.118178 100.394435 47.461354 100.252287 47.714343 99.999298 
C 47.967333 99.746308 48.109481 99.403133 48.109481 99.045351 
C 48.109481 98.68757 47.967333 98.344394 47.714343 98.091405 
C 47.461354 97.838415 47.118178 97.696267 46.760397 97.696267 
C 46.402615 97.696267 46.05944 97.838415 45.80645 98.091405 
C 45.553461 98.344394 45.411313 98.68757 45.411313 99.045351 
C 45.411313 99.403133 45.553461 99.746308 45.80645 99.999298 
C 46.05944 100.252287 46.402615 100.394435 46.760397 100.394435 
z
" clip-path="url(#pb475b8aac1)" style="stroke: #000000"/>
    <path d="M 41.408393 88.600756 
C 41.681522 88.600756 41.9435 88.492241 42.136631 88.29911 
C 42.329762 88.105979 42.438277 87.844001 42.438277 87.570872 
C 42.438277 87.297744 42.329762 87.035766 42.136631 86.842635 
C 41.9435 86.649504 41.681522 86.540989 41.408393 86.540989 
C 41.135265 86.540989 40.873286 86.649504 40.680156 86.842635 
C 40.487025 87.035766 40.37851 87.297744 40.37851 87.570872 
C 40.37851 87.844001 40.487025 88.105979 40.680156 88.29911 
C 40.873286 88.492241 41.135265 88.600756 41.408393 88.600756 
z
" clip-path="url(#pb475b8aac1)" style="stroke: #000000"/>
    <path d="M 39.209609 78.459708 
C 39.432617 78.459708 39.646522 78.371106 39.804212 78.213415 
C 39.961903 78.055724 40.050505 77.84182 40.050505 77.618811 
C 40.050505 77.395803 39.961903 77.181898 39.804212 77.024208 
C 39.646522 76.866517 39.432617 76.777915 39.209609 76.777915 
C 38.986601 76.777915 38.772696 76.866517 38.615005 77.024208 
C 38.457315 77.181898 38.368712 77.395803 38.368712 77.618811 
C 38.368712 77.84182 38.457315 78.055724 38.615005 78.213415 
C 38.772696 78.371106 38.986601 78.459708 39.209609 78.459708 
z
" clip-path="url(#pb475b8aac1)" style="stroke: #000000"/>
    <path d="M 60.481274 169.983899 
C 60.613875 169.983899 60.741063 169.931216 60.834827 169.837452 
C 60.92859 169.743689 60.981274 169.6165 60.981274 169.483899 
C 60.981274 169.351297 60.92859 169.224109 60.834827 169.130345 
C 60.741063 169.036582 60.613875 168.983899 60.481274 168.983899 
C 60.348672 168.983899 60.221484 169.036582 60.12772 169.130345 
C 60.033957 169.224109 59.981274 169.351297 59.981274 169.483899 
C 59.981274 169.6165 60.033957 169.743689 60.12772 169.837452 
C 60.221484 169.931216 60.348672 169.983899 60.481274 169.983899 
z
" clip-path="url(#pb475b8aac1)" style="stroke: #000000"/>
    <path d="M 51.276643 143.314875 
C 51.409244 143.314875 51.536432 143.262192 51.630196 143.168428 
C 51.723959 143.074665 51.776643 142.947476 51.776643 142.814875 
C 51.776643 142.682273 51.723959 142.555085 51.630196 142.461321 
C 51.536432 142.367558 51.409244 142.314875 51.276643 142.314875 
C 51.144041 142.314875 51.016853 142.367558 50.923089 142.461321 
C 50.829326 142.555085 50.776643 142.682273 50.776643 142.814875 
C 50.776643 142.947476 50.829326 143.074665 50.923089 143.168428 
C 51.016853 143.262192 51.144041 143.314875 51.276643 143.314875 
z
" clip-path="url(#pb475b8aac1)" style="stroke: #000000"/>
    <path d="M 45.736657 129.093594 
C 46.038923 129.093594 46.32885 128.973503 46.542584 128.759768 
C 46.756319 128.546034 46.87641 128.256107 46.87641 127.953841 
C 46.87641 127.651575 46.756319 127.361648 46.542584 127.147914 
C 46.32885 126.934179 46.038923 126.814087 45.736657 126.814087 
C 45.434391 126.814087 45.144464 126.934179 44.930729 127.147914 
C 44.716995 127.361648 44.596903 127.651575 44.596903 127.953841 
C 44.596903 128.256107 44.716995 128.546034 44.930729 128.759768 
C 45.144464 128.973503 45.434391 129.093594 45.736657 129.093594 
z
" clip-path="url(#pb475b8aac1)" style="stroke: #000000"/>
    <path d="M 43.927505 118.620593 
C 44.269021 118.620593 44.596596 118.484907 44.838085 118.243418 
C 45.079573 118.00193 45.215259 117.674355 45.215259 117.332838 
C 45.215259 116.991322 45.079573 116.663747 44.838085 116.422258 
C 44.596596 116.180769 44.269021 116.045083 43.927505 116.045083 
C 43.585988 116.045083 43.258413 116.180769 43.016924 116.422258 
C 42.775436 116.663747 42.63975 116.991322 42.63975 117.332838 
C 42.63975 117.674355 42.775436 118.00193 43.016924 118.243418 
C 43.258413 118.484907 43.585988 118.620593 43.927505 118.620593 
z
" clip-path="url(#pb475b8aac1)" style="stroke: #000000"/>
    <path d="M 42.633117 115.726652 
C 42.972676 115.726652 43.298374 115.591744 43.538479 115.351639 
C 43.778584 115.111534 43.913492 114.785837 43.913492 114.446277 
C 43.913492 114.106718 43.778584 113.78102 43.538479 113.540915 
C 43.298374 113.300811 42.972676 113.165902 42.633117 113.165902 
C 42.293558 113.165902 41.96786 113.300811 41.727755 113.540915 
C 41.487651 113.78102 41.352742 114.106718 41.352742 114.446277 
C 41.352742 114.785837 41.487651 115.111534 41.727755 115.351639 
C 41.96786 115.591744 42.293558 115.726652 42.633117 115.726652 
z
" clip-path="url(#pb475b8aac1)" style="stroke: #000000"/>
    <path d="M 36.979562 101.685015 
C 37.112163 101.685015 37.239352 101.632332 37.333115 101.538568 
C 37.426878 101.444805 37.479562 101.317616 37.479562 101.185015 
C 37.479562 101.052413 37.426878 100.925225 37.333115 100.831461 
C 37.239352 100.737698 37.112163 100.685015 36.979562 100.685015 
C 36.84696 100.685015 36.719772 100.737698 36.626008 100.831461 
C 36.532245 100.925225 36.479562 101.052413 36.479562 101.185015 
C 36.479562 101.317616 36.532245 101.444805 36.626008 101.538568 
C 36.719772 101.632332 36.84696 101.685015 36.979562 101.685015 
z
" clip-path="url(#pb475b8aac1)" style="stroke: #000000"/>
    <path d="M 33.859087 94.686566 
C 34.12429 94.686566 34.378667 94.5812 34.566194 94.393673 
C 34.753721 94.206146 34.859087 93.951769 34.859087 93.686566 
C 34.859087 93.421363 34.753721 93.166986 34.566194 92.979459 
C 34.378667 92.791932 34.12429 92.686566 33.859087 92.686566 
C 33.593884 92.686566 33.339507 92.791932 33.151981 92.979459 
C 32.964454 93.166986 32.859087 93.421363 32.859087 93.686566 
C 32.859087 93.951769 32.964454 94.206146 33.151981 94.393673 
C 33.339507 94.5812 33.593884 94.686566 33.859087 94.686566 
z
" clip-path="url(#pb475b8aac1)" style="stroke: #000000"/>
    <path d="M 53.043929 165.379185 
C 53.17653 165.379185 53.303719 165.326502 53.397482 165.232739 
C 53.491246 165.138975 53.543929 165.011787 53.543929 164.879185 
C 53.543929 164.746584 53.491246 164.619395 53.397482 164.525632 
C 53.303719 164.431868 53.17653 164.379185 53.043929 164.379185 
C 52.911327 164.379185 52.784139 164.431868 52.690375 164.525632 
C 52.596612 164.619395 52.543929 164.746584 52.543929 164.879185 
C 52.543929 165.011787 52.596612 165.138975 52.690375 165.232739 
C 52.784139 165.326502 52.911327 165.379185 53.043929 165.379185 
z
" clip-path="url(#pb475b8aac1)" style="stroke: #000000"/>
    <path d="M 46.972909 153.27232 
C 47.10551 153.27232 47.232699 153.219637 47.326462 153.125874 
C 47.420226 153.03211 47.472909 152.904922 47.472909 152.77232 
C 47.472909 152.639719 47.420226 152.51253 47.326462 152.418767 
C 47.232699 152.325003 47.10551 152.27232 46.972909 152.27232 
C 46.840307 152.27232 46.713119 152.325003 46.619355 152.418767 
C 46.525592 152.51253 46.472909 152.639719 46.472909 152.77232 
C 46.472909 152.904922 46.525592 153.03211 46.619355 153.125874 
C 46.713119 153.219637 46.840307 153.27232 46.972909 153.27232 
z
" clip-path="url(#pb475b8aac1)" style="stroke: #000000"/>
    <path d="M 48.156842 147.107659 
C 48.289444 147.107659 48.416632 147.054976 48.510396 146.961213 
C 48.604159 146.867449 48.656842 146.740261 48.656842 146.607659 
C 48.656842 146.475058 48.604159 146.347869 48.510396 146.254106 
C 48.416632 146.160342 48.289444 146.107659 48.156842 146.107659 
C 48.024241 146.107659 47.897053 146.160342 47.803289 146.254106 
C 47.709526 146.347869 47.656842 146.475058 47.656842 146.607659 
C 47.656842 146.740261 47.709526 146.867449 47.803289 146.961213 
C 47.897053 147.054976 48.024241 147.107659 48.156842 147.107659 
z
" clip-path="url(#pb475b8aac1)" style="stroke: #000000"/>
    <path d="M 45.357588 139.445829 
C 45.515279 139.445829 45.666532 139.383178 45.778037 139.271674 
C 45.889541 139.160169 45.952192 139.008916 45.952192 138.851225 
C 45.952192 138.693535 45.889541 138.542281 45.778037 138.430777 
C 45.666532 138.319273 45.515279 138.256622 45.357588 138.256622 
C 45.199898 138.256622 45.048644 138.319273 44.93714 138.430777 
C 44.825636 138.542281 44.762985 138.693535 44.762985 138.851225 
C 44.762985 139.008916 44.825636 139.160169 44.93714 139.271674 
C 45.048644 139.383178 45.199898 139.445829 45.357588 139.445829 
z
" clip-path="url(#pb475b8aac1)" style="stroke: #000000"/>
    <path d="M 42.345477 127.405527 
C 42.650503 127.405527 42.943078 127.284339 43.158765 127.068652 
C 43.374451 126.852966 43.49564 126.560391 43.49564 126.255364 
C 43.49564 125.950337 43.374451 125.657762 43.158765 125.442076 
C 42.943078 125.226389 42.650503 125.105201 42.345477 125.105201 
C 42.04045 125.105201 41.747875 125.226389 41.532188 125.442076 
C 41.316502 125.657762 41.195313 125.950337 41.195313 126.255364 
C 41.195313 126.560391 41.316502 126.852966 41.532188 127.068652 
C 41.747875 127.284339 42.04045 127.405527 42.345477 127.405527 
z
" clip-path="url(#pb475b8aac1)" style="stroke: #000000"/>
    <path d="M 37.65894 116.822088 
C 37.866472 116.822088 38.065533 116.739634 38.212281 116.592886 
C 38.359029 116.446138 38.441482 116.247078 38.441482 116.039545 
C 38.441482 115.832013 38.359029 115.632952 38.212281 115.486204 
C 38.065533 115.339457 37.866472 115.257003 37.65894 115.257003 
C 37.451407 115.257003 37.252347 115.339457 37.105599 115.486204 
C 36.958851 115.632952 36.876398 115.832013 36.876398 116.039545 
C 36.876398 116.247078 36.958851 116.446138 37.105599 116.592886 
C 37.252347 116.739634 37.451407 116.822088 37.65894 116.822088 
z
" clip-path="url(#pb475b8aac1)" style="stroke: #000000"/>
    <path d="M 31.810441 103.356608 
C 31.943043 103.356608 32.070231 103.303925 32.163995 103.210161 
C 32.257758 103.116398 32.310441 102.98921 32.310441 102.856608 
C 32.310441 102.724006 32.257758 102.596818 32.163995 102.503055 
C 32.070231 102.409291 31.943043 102.356608 31.810441 102.356608 
C 31.67784 102.356608 31.550651 102.409291 31.456888 102.503055 
C 31.363125 102.596818 31.310441 102.724006 31.310441 102.856608 
C 31.310441 102.98921 31.363125 103.116398 31.456888 103.210161 
C 31.550651 103.303925 31.67784 103.356608 31.810441 103.356608 
z
" clip-path="url(#pb475b8aac1)" style="stroke: #000000"/>
    <path d="M 30.233988 96.985735 
C 30.456996 96.985735 30.6709 96.897133 30.828591 96.739442 
C 30.986282 96.581752 31.074884 96.367847 31.074884 96.144839 
C 31.074884 95.92183 30.986282 95.707926 30.828591 95.550235 
C 30.6709 95.392544 30.456996 95.303942 30.233988 95.303942 
C 30.010979 95.303942 29.797075 95.392544 29.639384 95.550235 
C 29.481693 95.707926 29.393091 95.92183 29.393091 96.144839 
C 29.393091 96.367847 29.481693 96.581752 29.639384 96.739442 
C 29.797075 96.897133 30.010979 96.985735 30.233988 96.985735 
z
" clip-path="url(#pb475b8aac1)" style="stroke: #000000"/>
    <path d="M 42.174116 153.543903 
C 42.348629 153.543903 42.516018 153.474568 42.639418 153.351168 
C 42.762818 153.227769 42.832153 153.060379 42.832153 152.885866 
C 42.832153 152.711352 42.762818 152.543963 42.639418 152.420563 
C 42.516018 152.297164 42.348629 152.227829 42.174116 152.227829 
C 41.999602 152.227829 41.832213 152.297164 41.708813 152.420563 
C 41.585414 152.543963 41.516079 152.711352 41.516079 152.885866 
C 41.516079 153.060379 41.585414 153.227769 41.708813 153.351168 
C 41.832213 153.474568 41.999602 153.543903 42.174116 153.543903 
z
" clip-path="url(#pb475b8aac1)" style="stroke: #000000"/>
    <path d="M 36.148407 133.982189 
C 36.395206 133.982189 36.63193 133.884134 36.806444 133.709621 
C 36.980957 133.535107 37.079012 133.298383 37.079012 133.051584 
C 37.079012 132.804785 36.980957 132.56806 36.806444 132.393547 
C 36.63193 132.219033 36.395206 132.120979 36.148407 132.120979 
C 35.901607 132.120979 35.664883 132.219033 35.49037 132.393547 
C 35.315856 132.56806 35.217802 132.804785 35.217802 133.051584 
C 35.217802 133.298383 35.315856 133.535107 35.49037 133.709621 
C 35.664883 133.884134 35.901607 133.982189 36.148407 133.982189 
z
" clip-path="url(#pb475b8aac1)" style="stroke: #000000"/>
    <path d="M 32.856377 129.770765 
C 33.103176 129.770765 33.3399 129.67271 33.514414 129.498197 
C 33.688927 129.323683 33.786982 129.086959 33.786982 128.84016 
C 33.786982 128.59336 33.688927 128.356636 33.514414 128.182123 
C 33.3399 128.007609 33.103176 127.909555 32.856377 127.909555 
C 32.609578 127.909555 32.372853 128.007609 32.19834 128.182123 
C 32.023826 128.356636 31.925772 128.59336 31.925772 128.84016 
C 31.925772 129.086959 32.023826 129.323683 32.19834 129.498197 
C 32.372853 129.67271 32.609578 129.770765 32.856377 129.770765 
z
" clip-path="url(#pb475b8aac1)" style="stroke: #000000"/>
    <path d="M 32.548764 122.382196 
C 32.706455 122.382196 32.857708 122.319545 32.969212 122.208041 
C 33.080717 122.096536 33.143368 121.945283 33.143368 121.787592 
C 33.143368 121.629902 33.080717 121.478648 32.969212 121.367144 
C 32.857708 121.25564 32.706455 121.192989 32.548764 121.192989 
C 32.391073 121.192989 32.23982 121.25564 32.128316 121.367144 
C 32.016812 121.478648 31.954161 121.629902 31.954161 121.787592 
C 31.954161 121.945283 32.016812 122.096536 32.128316 122.208041 
C 32.23982 122.319545 32.391073 122.382196 32.548764 122.382196 
z
" clip-path="url(#pb475b8aac1)" style="stroke: #000000"/>
    <path d="M 31.756671 142.844949 
C 31.931185 142.844949 32.098574 142.775615 32.221974 142.652215 
C 32.345373 142.528815 32.414708 142.361426 32.414708 142.186912 
C 32.414708 142.012399 32.345373 141.84501 32.221974 141.72161 
C 32.098574 141.59821 31.931185 141.528875 31.756671 141.528875 
C 31.582158 141.528875 31.414768 141.59821 31.291369 141.72161 
C 31.167969 141.84501 31.098634 142.012399 31.098634 142.186912 
C 31.098634 142.361426 31.167969 142.528815 31.291369 142.652215 
C 31.414768 142.775615 31.582158 142.844949 31.756671 142.844949 
z
" clip-path="url(#pb475b8aac1)" style="stroke: #000000"/>
    <path d="M 29.29726 138.14055 
C 29.429861 138.14055 29.55705 138.087867 29.650813 137.994103 
C 29.744577 137.90034 29.79726 137.773151 29.79726 137.64055 
C 29.79726 137.507948 29.744577 137.38076 29.650813 137.286997 
C 29.55705 137.193233 29.429861 137.14055 29.29726 137.14055 
C 29.164658 137.14055 29.03747 137.193233 28.943706 137.286997 
C 28.849943 137.38076 28.79726 137.507948 28.79726 137.64055 
C 28.79726 137.773151 28.849943 137.90034 28.943706 137.994103 
C 29.03747 138.087867 29.164658 138.14055 29.29726 138.14055 
z
" clip-path="url(#pb475b8aac1)" style="stroke: #000000"/>
   </g>
   <g id="matplotlib.axis_1">
    <g id="xtick_1">
     <g id="line2d_1">
      <defs>
       <path id="m43cade686b" d="M 0 0 
L 0 3.5 
" style="stroke: #000000; stroke-width: 0.8"/>
      </defs>
      <g>
       <use xlink:href="#m43cade686b" x="18" y="189" style="stroke: #000000; stroke-width: 0.8"/>
      </g>
     </g>
     <g id="text_1">
      <!-- 10 -->
      <g transform="translate(7.447656 203.598437)scale(0.1 -0.1)">
       <defs>
        <path id="DejaVuSans-2212" d="M 678 2272 
L 4684 2272 
L 4684 1741 
L 678 1741 
L 678 2272 
z
" transform="scale(0.015625)"/>
        <path id="DejaVuSans-31" d="M 794 531 
L 1825 531 
L 1825 4091 
L 703 3866 
L 703 4441 
L 1819 4666 
L 2450 4666 
L 2450 531 
L 3481 531 
L 3481 0 
L 794 0 
L 794 531 
z
" transform="scale(0.015625)"/>
        <path id="DejaVuSans-30" d="M 2034 4250 
Q 1547 4250 1301 3770 
Q 1056 3291 1056 2328 
Q 1056 1369 1301 889 
Q 1547 409 2034 409 
Q 2525 409 2770 889 
Q 3016 1369 3016 2328 
Q 3016 3291 2770 3770 
Q 2525 4250 2034 4250 
z
M 2034 4750 
Q 2819 4750 3233 4129 
Q 3647 3509 3647 2328 
Q 3647 1150 3233 529 
Q 2819 -91 2034 -91 
Q 1250 -91 836 529 
Q 422 1150 422 2328 
Q 422 3509 836 4129 
Q 1250 4750 2034 4750 
z
" transform="scale(0.015625)"/>
       </defs>
       <use xlink:href="#DejaVuSans-2212"/>
       <use xlink:href="#DejaVuSans-31" x="83.789062"/>
       <use xlink:href="#DejaVuSans-30" x="147.412109"/>
      </g>
     </g>
    </g>
    <g id="xtick_2">
     <g id="line2d_2">
      <g>
       <use xlink:href="#m43cade686b" x="73.8" y="189" style="stroke: #000000; stroke-width: 0.8"/>
      </g>
     </g>
     <g id="text_2">
      <!-- 0 -->
      <g transform="translate(70.61875 203.598437)scale(0.1 -0.1)">
       <use xlink:href="#DejaVuSans-30"/>
      </g>
     </g>
    </g>
    <g id="xtick_3">
     <g id="line2d_3">
      <g>
       <use xlink:href="#m43cade686b" x="129.6" y="189" style="stroke: #000000; stroke-width: 0.8"/>
      </g>
     </g>
     <g id="text_3">
      <!-- 10 -->
      <g transform="translate(123.2375 203.598437)scale(0.1 -0.1)">
       <use xlink:href="#DejaVuSans-31"/>
       <use xlink:href="#DejaVuSans-30" x="63.623047"/>
      </g>
     </g>
    </g>
   </g>
   <g id="matplotlib.axis_2">
    <g id="ytick_1">
     <g id="line2d_4">
      <defs>
       <path id="mdfcddacd4f" d="M 0 0 
L -3.5 0 
" style="stroke: #000000; stroke-width: 0.8"/>
      </defs>
      <g>
       <use xlink:href="#mdfcddacd4f" x="18" y="189" style="stroke: #000000; stroke-width: 0.8"/>
      </g>
     </g>
     <g id="text_4">
      <!-- 15 -->
      <g transform="translate(-10.104688 192.799219)scale(0.1 -0.1)">
       <defs>
        <path id="DejaVuSans-35" d="M 691 4666 
L 3169 4666 
L 3169 4134 
L 1269 4134 
L 1269 2991 
Q 1406 3038 1543 3061 
Q 1681 3084 1819 3084 
Q 2600 3084 3056 2656 
Q 3513 2228 3513 1497 
Q 3513 744 3044 326 
Q 2575 -91 1722 -91 
Q 1428 -91 1123 -41 
Q 819 9 494 109 
L 494 744 
Q 775 591 1075 516 
Q 1375 441 1709 441 
Q 2250 441 2565 725 
Q 2881 1009 2881 1497 
Q 2881 1984 2565 2268 
Q 2250 2553 1709 2553 
Q 1456 2553 1204 2497 
Q 953 2441 691 2322 
L 691 4666 
z
" transform="scale(0.015625)"/>
       </defs>
       <use xlink:href="#DejaVuSans-2212"/>
       <use xlink:href="#DejaVuSans-31" x="83.789062"/>
       <use xlink:href="#DejaVuSans-35" x="147.412109"/>
      </g>
     </g>
    </g>
    <g id="ytick_2">
     <g id="line2d_5">
      <g>
       <use xlink:href="#mdfcddacd4f" x="18" y="161.82" style="stroke: #000000; stroke-width: 0.8"/>
      </g>
     </g>
     <g id="text_5">
      <!-- 10 -->
      <g transform="translate(-10.104688 165.619219)scale(0.1 -0.1)">
       <use xlink:href="#DejaVuSans-2212"/>
       <use xlink:href="#DejaVuSans-31" x="83.789062"/>
       <use xlink:href="#DejaVuSans-30" x="147.412109"/>
      </g>
     </g>
    </g>
    <g id="ytick_3">
     <g id="line2d_6">
      <g>
       <use xlink:href="#mdfcddacd4f" x="18" y="134.64" style="stroke: #000000; stroke-width: 0.8"/>
      </g>
     </g>
     <g id="text_6">
      <!-- 5 -->
      <g transform="translate(-3.742188 138.439219)scale(0.1 -0.1)">
       <use xlink:href="#DejaVuSans-2212"/>
       <use xlink:href="#DejaVuSans-35" x="83.789062"/>
      </g>
     </g>
    </g>
    <g id="ytick_4">
     <g id="line2d_7">
      <g>
       <use xlink:href="#mdfcddacd4f" x="18" y="107.46" style="stroke: #000000; stroke-width: 0.8"/>
      </g>
     </g>
     <g id="text_7">
      <!-- 0 -->
      <g transform="translate(4.6375 111.259219)scale(0.1 -0.1)">
       <use xlink:href="#DejaVuSans-30"/>
      </g>
     </g>
    </g>
    <g id="ytick_5">
     <g id="line2d_8">
      <g>
       <use xlink:href="#mdfcddacd4f" x="18" y="80.28" style="stroke: #000000; stroke-width: 0.8"/>
      </g>
     </g>
     <g id="text_8">
      <!-- 5 -->
      <g transform="translate(4.6375 84.079219)scale(0.1 -0.1)">
       <use xlink:href="#DejaVuSans-35"/>
      </g>
     </g>
    </g>
    <g id="ytick_6">
     <g id="line2d_9">
      <g>
       <use xlink:href="#mdfcddacd4f" x="18" y="53.1" style="stroke: #000000; stroke-width: 0.8"/>
      </g>
     </g>
     <g id="text_9">
      <!-- 10 -->
      <g transform="translate(-1.725 56.899219)scale(0.1 -0.1)">
       <use xlink:href="#DejaVuSans-31"/>
       <use xlink:href="#DejaVuSans-30" x="63.623047"/>
      </g>
     </g>
    </g>
    <g id="ytick_7">
     <g id="line2d_10">
      <g>
       <use xlink:href="#mdfcddacd4f" x="18" y="25.92" style="stroke: #000000; stroke-width: 0.8"/>
      </g>
     </g>
     <g id="text_10">
      <!-- 15 -->
      <g transform="translate(-1.725 29.719219)scale(0.1 -0.1)">
       <use xlink:href="#DejaVuSans-31"/>
       <use xlink:href="#DejaVuSans-35" x="63.623047"/>
      </g>
     </g>
    </g>
   </g>
   <g id="patch_3">
    <path d="M 18 189 
L 18 25.92 
" style="fill: none; stroke: #000000; stroke-width: 0.8; stroke-linejoin: miter; stroke-linecap: square"/>
   </g>
   <g id="patch_4">
    <path d="M 129.6 189 
L 129.6 25.92 
" style="fill: none; stroke: #000000; stroke-width: 0.8; stroke-linejoin: miter; stroke-linecap: square"/>
   </g>
   <g id="patch_5">
    <path d="M 18 189 
L 129.6 189 
" style="fill: none; stroke: #000000; stroke-width: 0.8; stroke-linejoin: miter; stroke-linecap: square"/>
   </g>
   <g id="patch_6">
    <path d="M 18 25.92 
L 129.6 25.92 
" style="fill: none; stroke: #000000; stroke-width: 0.8; stroke-linejoin: miter; stroke-linecap: square"/>
   </g>
  </g>
 </g>
 <defs>
  <clipPath id="pb475b8aac1">
   <rect x="18" y="25.92" width="111.6" height="163.08"/>
  </clipPath>
 </defs>
</svg>
