<?xml version="1.0" encoding="utf-8" standalone="no"?>
<!DOCTYPE svg PUBLIC "-//W3C//DTD SVG 1.1//EN"
  "http://www.w3.org/Graphics/SVG/1.1/DTD/svg11.dtd">
<svg xmlns:xlink="http://www.w3.org/1999/xlink" width="144pt" height="216pt" viewBox="0 0 144 216" xmlns="http://www.w3.org/2000/svg" version="1.1">
 <metadata>
  <rdf:RDF xmlns:dc="http://purl.org/dc/elements/1.1/" xmlns:cc="http://creativecommons.org/ns#" xmlns:rdf="http://www.w3.org/1999/02/22-rdf-syntax-ns#">
   <cc:Work>
    <dc:type rdf:resource="http://purl.org/dc/dcmitype/StillImage"/>
    <dc:date>2022-06-28T09:25:04.752224</dc:date>
    <dc:format>image/svg+xml</dc:format>
    <dc:creator>
     <cc:Agent>
      <dc:title>Matplotlib v3.5.1, https://matplotlib.org/</dc:title>
     </cc:Agent>
    </dc:creator>
   </cc:Work>
  </rdf:RDF>
 </metadata>
 <defs>
  <style type="text/css">*{stroke-linejoin: round; stroke-linecap: butt}</style>
 </defs>
 <g id="figure_1">
  <g id="patch_1">
   <path d="M 0 216 
L 144 216 
L 144 0 
L 0 0 
L 0 216 
z
" style="fill: none"/>
  </g>
  <g id="axes_1">
   <g id="patch_2">
    <path d="M 18 189 
L 129.6 189 
L 129.6 25.92 
L 18 25.92 
z
" style="fill: #ffffff"/>
   </g>
   <g id="PathCollection_1">
    <defs>
     <path id="mb73abcda38" d="M 0 2.738613 
C 0.726289 2.738613 1.422928 2.450055 1.936492 1.936492 
C 2.450055 1.422928 2.738613 0.726289 2.738613 0 
C 2.738613 -0.726289 2.450055 -1.422928 1.936492 -1.936492 
C 1.422928 -2.450055 0.726289 -2.738613 0 -2.738613 
C -0.726289 -2.738613 -1.422928 -2.450055 -1.936492 -1.936492 
C -2.450055 -1.422928 -2.738613 -0.726289 -2.738613 0 
C -2.738613 0.726289 -2.450055 1.422928 -1.936492 1.936492 
C -1.422928 2.450055 -0.726289 2.738613 0 2.738613 
z
" style="stroke: #ff0000; stroke-width: 1.75"/>
    </defs>
    <g clip-path="url(#p49806e83c5)">
     <use xlink:href="#mb73abcda38" x="66.825" y="83.92143" style="fill: #ff0000; stroke: #ff0000; stroke-width: 1.75"/>
     <use xlink:href="#mb73abcda38" x="87.75" y="95.690715" style="fill: #ff0000; stroke: #ff0000; stroke-width: 1.75"/>
     <use xlink:href="#mb73abcda38" x="66.825" y="107.46" style="fill: #ff0000; stroke: #ff0000; stroke-width: 1.75"/>
     <use xlink:href="#mb73abcda38" x="73.8" y="119.229285" style="fill: #ff0000; stroke: #ff0000; stroke-width: 1.75"/>
     <use xlink:href="#mb73abcda38" x="87.75" y="119.229285" style="fill: #ff0000; stroke: #ff0000; stroke-width: 1.75"/>
     <use xlink:href="#mb73abcda38" x="66.825" y="130.99857" style="fill: #ff0000; stroke: #ff0000; stroke-width: 1.75"/>
     <use xlink:href="#mb73abcda38" x="80.775" y="130.99857" style="fill: #ff0000; stroke: #ff0000; stroke-width: 1.75"/>
    </g>
   </g>
   <g id="PathCollection_2">
    <defs>
     <path id="C0_0_e50edb6244" d="M 0 2.738613 
C 0.726289 2.738613 1.422928 2.450055 1.936492 1.936492 
C 2.450055 1.422928 2.738613 0.726289 2.738613 -0 
C 2.738613 -0.726289 2.450055 -1.422928 1.936492 -1.936492 
C 1.422928 -2.450055 0.726289 -2.738613 0 -2.738613 
C -0.726289 -2.738613 -1.422928 -2.450055 -1.936492 -1.936492 
C -2.450055 -1.422928 -2.738613 -0.726289 -2.738613 0 
C -2.738613 0.726289 -2.450055 1.422928 -1.936492 1.936492 
C -1.422928 2.450055 -0.726289 2.738613 0 2.738613 
z
"/>
    </defs>
    <g clip-path="url(#p49806e83c5)">
     <use xlink:href="#C0_0_e50edb6244" x="80.775" y="83.92143" style="fill: none; stroke: #ff0000; stroke-width: 1.75"/>
    </g>
    <g clip-path="url(#p49806e83c5)">
     <use xlink:href="#C0_0_e50edb6244" x="59.85" y="95.690715" style="fill: none; stroke: #ff0000; stroke-width: 1.75"/>
    </g>
    <g clip-path="url(#p49806e83c5)">
     <use xlink:href="#C0_0_e50edb6244" x="73.8" y="95.690715" style="fill: none; stroke: #ff0000; stroke-width: 1.75"/>
    </g>
    <g clip-path="url(#p49806e83c5)">
     <use xlink:href="#C0_0_e50edb6244" x="52.875" y="107.46" style="fill: none; stroke: #ff0000; stroke-width: 1.75"/>
    </g>
    <g clip-path="url(#p49806e83c5)">
     <use xlink:href="#C0_0_e50edb6244" x="80.775" y="107.46" style="fill: none; stroke: #ff0000; stroke-width: 1.75"/>
    </g>
    <g clip-path="url(#p49806e83c5)">
     <use xlink:href="#C0_0_e50edb6244" x="94.725" y="107.46" style="fill: none; stroke: #ff0000; stroke-width: 1.75"/>
    </g>
    <g clip-path="url(#p49806e83c5)">
     <use xlink:href="#C0_0_e50edb6244" x="59.85" y="119.229285" style="fill: none; stroke: #ff0000; stroke-width: 1.75"/>
    </g>
   </g>
   <g id="PathCollection_3">
    <path d="M 97.43029 109.799168 
C 98.023672 109.799168 98.592831 109.563414 99.012416 109.14383 
C 99.432001 108.724245 99.667754 108.155086 99.667754 107.561704 
C 99.667754 106.968321 99.432001 106.399162 99.012416 105.979577 
C 98.592831 105.559993 98.023672 105.324239 97.43029 105.324239 
C 96.836907 105.324239 96.267748 105.559993 95.848164 105.979577 
C 95.428579 106.399162 95.192826 106.968321 95.192826 107.561704 
C 95.192826 108.155086 95.428579 108.724245 95.848164 109.14383 
C 96.267748 109.563414 96.836907 109.799168 97.43029 109.799168 
z
" clip-path="url(#p49806e83c5)" style="stroke: #000000"/>
    <path d="M 85.073589 106.831635 
C 85.436329 106.831635 85.784261 106.687517 86.040757 106.431021 
C 86.297253 106.174525 86.441371 105.826593 86.441371 105.463853 
C 86.441371 105.101113 86.297253 104.753181 86.040757 104.496685 
C 85.784261 104.240189 85.436329 104.09607 85.073589 104.09607 
C 84.710849 104.09607 84.362917 104.240189 84.106421 104.496685 
C 83.849925 104.753181 83.705806 105.101113 83.705806 105.463853 
C 83.705806 105.826593 83.849925 106.174525 84.106421 106.431021 
C 84.362917 106.687517 84.710849 106.831635 85.073589 106.831635 
z
" clip-path="url(#p49806e83c5)" style="stroke: #000000"/>
    <path d="M 88.826632 100.12028 
C 89.255087 100.12028 89.666051 99.950053 89.969015 99.64709 
C 90.271978 99.344126 90.442205 98.933162 90.442205 98.504707 
C 90.442205 98.076252 90.271978 97.665288 89.969015 97.362324 
C 89.666051 97.059361 89.255087 96.889134 88.826632 96.889134 
C 88.398177 96.889134 87.987213 97.059361 87.684249 97.362324 
C 87.381286 97.665288 87.211059 98.076252 87.211059 98.504707 
C 87.211059 98.933162 87.381286 99.344126 87.684249 99.64709 
C 87.987213 99.950053 88.398177 100.12028 88.826632 100.12028 
z
" clip-path="url(#p49806e83c5)" style="stroke: #000000"/>
    <path d="M 83.208467 87.179915 
C 83.810181 87.179915 84.387331 86.940852 84.812807 86.515376 
C 85.238283 86.0899 85.477346 85.512749 85.477346 84.911035 
C 85.477346 84.309322 85.238283 83.732171 84.812807 83.306695 
C 84.387331 82.881219 83.810181 82.642156 83.208467 82.642156 
C 82.606753 82.642156 82.029603 82.881219 81.604127 83.306695 
C 81.178651 83.732171 80.939587 84.309322 80.939587 84.911035 
C 80.939587 85.512749 81.178651 86.0899 81.604127 86.515376 
C 82.029603 86.940852 82.606753 87.179915 83.208467 87.179915 
z
" clip-path="url(#p49806e83c5)" style="stroke: #000000"/>
    <path d="M 80.460069 80.180307 
C 80.592671 80.180307 80.719859 80.127624 80.813622 80.033861 
C 80.907386 79.940097 80.960069 79.812909 80.960069 79.680307 
C 80.960069 79.547706 80.907386 79.420518 80.813622 79.326754 
C 80.719859 79.232991 80.592671 79.180307 80.460069 79.180307 
C 80.327467 79.180307 80.200279 79.232991 80.106516 79.326754 
C 80.012752 79.420518 79.960069 79.547706 79.960069 79.680307 
C 79.960069 79.812909 80.012752 79.940097 80.106516 80.033861 
C 80.200279 80.127624 80.327467 80.180307 80.460069 80.180307 
z
" clip-path="url(#p49806e83c5)" style="stroke: #000000"/>
    <path d="M 86.8111 120.073276 
C 87.320036 120.073276 87.808196 119.871073 88.168069 119.511201 
C 88.527941 119.151328 88.730144 118.663168 88.730144 118.154232 
C 88.730144 117.645295 88.527941 117.157135 88.168069 116.797263 
C 87.808196 116.43739 87.320036 116.235188 86.8111 116.235188 
C 86.302163 116.235188 85.814003 116.43739 85.454131 116.797263 
C 85.094258 117.157135 84.892056 117.645295 84.892056 118.154232 
C 84.892056 118.663168 85.094258 119.151328 85.454131 119.511201 
C 85.814003 119.871073 86.302163 120.073276 86.8111 120.073276 
z
" clip-path="url(#p49806e83c5)" style="stroke: #000000"/>
    <path d="M 82.17071 108.096768 
C 82.684843 108.096768 83.177988 107.892501 83.541535 107.528954 
C 83.905082 107.165407 84.10935 106.672262 84.10935 106.158128 
C 84.10935 105.643995 83.905082 105.15085 83.541535 104.787303 
C 83.177988 104.423756 82.684843 104.219489 82.17071 104.219489 
C 81.656577 104.219489 81.163432 104.423756 80.799885 104.787303 
C 80.436337 105.15085 80.23207 105.643995 80.23207 106.158128 
C 80.23207 106.672262 80.436337 107.165407 80.799885 107.528954 
C 81.163432 107.892501 81.656577 108.096768 82.17071 108.096768 
z
" clip-path="url(#p49806e83c5)" style="stroke: #000000"/>
    <path d="M 77.89278 95.856205 
C 78.05047 95.856205 78.201724 95.793554 78.313228 95.68205 
C 78.424732 95.570546 78.487383 95.419292 78.487383 95.261602 
C 78.487383 95.103911 78.424732 94.952658 78.313228 94.841153 
C 78.201724 94.729649 78.05047 94.666998 77.89278 94.666998 
C 77.735089 94.666998 77.583836 94.729649 77.472332 94.841153 
C 77.360827 94.952658 77.298176 95.103911 77.298176 95.261602 
C 77.298176 95.419292 77.360827 95.570546 77.472332 95.68205 
C 77.583836 95.793554 77.735089 95.856205 77.89278 95.856205 
z
" clip-path="url(#p49806e83c5)" style="stroke: #000000"/>
    <path d="M 79.451148 130.038093 
C 79.973065 130.038093 80.473676 129.830733 80.842727 129.461682 
C 81.211778 129.092631 81.419138 128.59202 81.419138 128.070103 
C 81.419138 127.548186 81.211778 127.047575 80.842727 126.678524 
C 80.473676 126.309473 79.973065 126.102113 79.451148 126.102113 
C 78.929231 126.102113 78.42862 126.309473 78.059569 126.678524 
C 77.690518 127.047575 77.483158 127.548186 77.483158 128.070103 
C 77.483158 128.59202 77.690518 129.092631 78.059569 129.461682 
C 78.42862 129.830733 78.929231 130.038093 79.451148 130.038093 
z
" clip-path="url(#p49806e83c5)" style="stroke: #000000"/>
    <path d="M 78.251288 122.237518 
C 78.38389 122.237518 78.511078 122.184834 78.604842 122.091071 
C 78.698605 121.997308 78.751288 121.870119 78.751288 121.737518 
C 78.751288 121.604916 78.698605 121.477728 78.604842 121.383964 
C 78.511078 121.290201 78.38389 121.237518 78.251288 121.237518 
C 78.118687 121.237518 77.991498 121.290201 77.897735 121.383964 
C 77.803972 121.477728 77.751288 121.604916 77.751288 121.737518 
C 77.751288 121.870119 77.803972 121.997308 77.897735 122.091071 
C 77.991498 122.184834 78.118687 122.237518 78.251288 122.237518 
z
" clip-path="url(#p49806e83c5)" style="stroke: #000000"/>
    <path d="M 72.54799 95.876348 
C 73.061554 95.876348 73.554153 95.672307 73.917297 95.309163 
C 74.280441 94.946018 74.484482 94.45342 74.484482 93.939856 
C 74.484482 93.426293 74.280441 92.933694 73.917297 92.57055 
C 73.554153 92.207406 73.061554 92.003365 72.54799 92.003365 
C 72.034427 92.003365 71.541828 92.207406 71.178684 92.57055 
C 70.81554 92.933694 70.611499 93.426293 70.611499 93.939856 
C 70.611499 94.45342 70.81554 94.946018 71.178684 95.309163 
C 71.541828 95.672307 72.034427 95.876348 72.54799 95.876348 
z
" clip-path="url(#p49806e83c5)" style="stroke: #000000"/>
    <path d="M 68.884622 86.781226 
C 69.406538 86.781226 69.907149 86.573866 70.2762 86.204815 
C 70.645251 85.835764 70.852611 85.335153 70.852611 84.813236 
C 70.852611 84.291319 70.645251 83.790708 70.2762 83.421657 
C 69.907149 83.052606 69.406538 82.845246 68.884622 82.845246 
C 68.362705 82.845246 67.862094 83.052606 67.493043 83.421657 
C 67.123992 83.790708 66.916632 84.291319 66.916632 84.813236 
C 66.916632 85.335153 67.123992 85.835764 67.493043 86.204815 
C 67.862094 86.573866 68.362705 86.781226 68.884622 86.781226 
z
" clip-path="url(#p49806e83c5)" style="stroke: #000000"/>
    <path d="M 76.877193 130.694547 
C 77.118682 130.694547 77.350312 130.598602 77.521071 130.427844 
C 77.691829 130.257086 77.787773 130.025455 77.787773 129.783967 
C 77.787773 129.542478 77.691829 129.310848 77.521071 129.140089 
C 77.350312 128.969331 77.118682 128.873387 76.877193 128.873387 
C 76.635705 128.873387 76.404074 128.969331 76.233316 129.140089 
C 76.062558 129.310848 75.966613 129.542478 75.966613 129.783967 
C 75.966613 130.025455 76.062558 130.257086 76.233316 130.427844 
C 76.404074 130.598602 76.635705 130.694547 76.877193 130.694547 
z
" clip-path="url(#p49806e83c5)" style="stroke: #000000"/>
    <path d="M 74.837685 122.821639 
C 75.283701 122.821639 75.71151 122.644435 76.026892 122.329053 
C 76.342273 122.013672 76.519477 121.585863 76.519477 121.139846 
C 76.519477 120.69383 76.342273 120.266021 76.026892 119.950639 
C 75.71151 119.635258 75.283701 119.458054 74.837685 119.458054 
C 74.391668 119.458054 73.963859 119.635258 73.648477 119.950639 
C 73.333096 120.266021 73.155892 120.69383 73.155892 121.139846 
C 73.155892 121.585863 73.333096 122.013672 73.648477 122.329053 
C 73.963859 122.644435 74.391668 122.821639 74.837685 122.821639 
z
" clip-path="url(#p49806e83c5)" style="stroke: #000000"/>
    <path d="M 71.823752 120.440846 
C 72.339583 120.440846 72.834356 120.235904 73.199104 119.871156 
C 73.563852 119.506409 73.768793 119.011635 73.768793 118.495804 
C 73.768793 117.979973 73.563852 117.4852 73.199104 117.120452 
C 72.834356 116.755705 72.339583 116.550763 71.823752 116.550763 
C 71.307921 116.550763 70.813147 116.755705 70.4484 117.120452 
C 70.083652 117.4852 69.87871 117.979973 69.87871 118.495804 
C 69.87871 119.011635 70.083652 119.506409 70.4484 119.871156 
C 70.813147 120.235904 71.307921 120.440846 71.823752 120.440846 
z
" clip-path="url(#p49806e83c5)" style="stroke: #000000"/>
    <path d="M 67.938949 107.760144 
C 68.452513 107.760144 68.945112 107.556103 69.308256 107.192959 
C 69.6714 106.829814 69.875441 106.337216 69.875441 105.823652 
C 69.875441 105.310089 69.6714 104.81749 69.308256 104.454346 
C 68.945112 104.091202 68.452513 103.887161 67.938949 103.887161 
C 67.425386 103.887161 66.932787 104.091202 66.569643 104.454346 
C 66.206499 104.81749 66.002458 105.310089 66.002458 105.823652 
C 66.002458 106.337216 66.206499 106.829814 66.569643 107.192959 
C 66.932787 107.556103 67.425386 107.760144 67.938949 107.760144 
z
" clip-path="url(#p49806e83c5)" style="stroke: #000000"/>
    <path d="M 62.659 95.288498 
C 63.124596 95.288498 63.571185 95.103514 63.900412 94.774288 
C 64.229638 94.445062 64.414621 93.998472 64.414621 93.532876 
C 64.414621 93.06728 64.229638 92.620691 63.900412 92.291464 
C 63.571185 91.962238 63.124596 91.777255 62.659 91.777255 
C 62.193403 91.777255 61.746814 91.962238 61.417588 92.291464 
C 61.088362 92.620691 60.903378 93.06728 60.903378 93.532876 
C 60.903378 93.998472 61.088362 94.445062 61.417588 94.774288 
C 61.746814 95.103514 62.193403 95.288498 62.659 95.288498 
z
" clip-path="url(#p49806e83c5)" style="stroke: #000000"/>
    <path d="M 69.486775 134.720515 
C 69.907142 134.720515 70.310349 134.553501 70.607594 134.256256 
C 70.904838 133.959012 71.071852 133.555805 71.071852 133.135438 
C 71.071852 132.71507 70.904838 132.311864 70.607594 132.014619 
C 70.310349 131.717374 69.907142 131.550361 69.486775 131.550361 
C 69.066408 131.550361 68.663201 131.717374 68.365956 132.014619 
C 68.068712 132.311864 67.901698 132.71507 67.901698 133.135438 
C 67.901698 133.555805 68.068712 133.959012 68.365956 134.256256 
C 68.663201 134.553501 69.066408 134.720515 69.486775 134.720515 
z
" clip-path="url(#p49806e83c5)" style="stroke: #000000"/>
    <path d="M 64.527594 117.35542 
C 64.660196 117.35542 64.787384 117.302737 64.881148 117.208974 
C 64.974911 117.11521 65.027594 116.988022 65.027594 116.85542 
C 65.027594 116.722819 64.974911 116.595631 64.881148 116.501867 
C 64.787384 116.408104 64.660196 116.35542 64.527594 116.35542 
C 64.394993 116.35542 64.267804 116.408104 64.174041 116.501867 
C 64.080277 116.595631 64.027594 116.722819 64.027594 116.85542 
C 64.027594 116.988022 64.080277 117.11521 64.174041 117.208974 
C 64.267804 117.302737 64.394993 117.35542 64.527594 117.35542 
z
" clip-path="url(#p49806e83c5)" style="stroke: #000000"/>
    <path d="M 59.835462 100.286121 
C 60.347881 100.286121 60.839381 100.082535 61.201716 99.7202 
C 61.56405 99.357866 61.767636 98.866365 61.767636 98.353947 
C 61.767636 97.841528 61.56405 97.350028 61.201716 96.987694 
C 60.839381 96.625359 60.347881 96.421773 59.835462 96.421773 
C 59.323044 96.421773 58.831544 96.625359 58.469209 96.987694 
C 58.106874 97.350028 57.903288 97.841528 57.903288 98.353947 
C 57.903288 98.866365 58.106874 99.357866 58.469209 99.7202 
C 58.831544 100.082535 59.323044 100.286121 59.835462 100.286121 
z
" clip-path="url(#p49806e83c5)" style="stroke: #000000"/>
    <path d="M 58.410556 98.212935 
C 58.958229 98.212935 59.483545 97.995342 59.870809 97.608078 
C 60.258073 97.220814 60.475666 96.695498 60.475666 96.147825 
C 60.475666 95.600151 60.258073 95.074835 59.870809 94.687571 
C 59.483545 94.300307 58.958229 94.082714 58.410556 94.082714 
C 57.862882 94.082714 57.337566 94.300307 56.950302 94.687571 
C 56.563038 95.074835 56.345445 95.600151 56.345445 96.147825 
C 56.345445 96.695498 56.563038 97.220814 56.950302 97.608078 
C 57.337566 97.995342 57.862882 98.212935 58.410556 98.212935 
z
" clip-path="url(#p49806e83c5)" style="stroke: #000000"/>
    <path d="M 63.896264 134.669747 
C 64.216462 134.669747 64.523588 134.542531 64.750002 134.316117 
C 64.976416 134.089703 65.103632 133.782576 65.103632 133.462379 
C 65.103632 133.142181 64.976416 132.835054 64.750002 132.60864 
C 64.523588 132.382226 64.216462 132.25501 63.896264 132.25501 
C 63.576066 132.25501 63.26894 132.382226 63.042526 132.60864 
C 62.816112 132.835054 62.688896 133.142181 62.688896 133.462379 
C 62.688896 133.782576 62.816112 134.089703 63.042526 134.316117 
C 63.26894 134.542531 63.576066 134.669747 63.896264 134.669747 
z
" clip-path="url(#p49806e83c5)" style="stroke: #000000"/>
    <path d="M 58.915627 123.675519 
C 59.376559 123.675519 59.818674 123.492389 60.144602 123.166461 
C 60.470531 122.840533 60.653661 122.398417 60.653661 121.937485 
C 60.653661 121.476553 60.470531 121.034438 60.144602 120.70851 
C 59.818674 120.382582 59.376559 120.199452 58.915627 120.199452 
C 58.454695 120.199452 58.01258 120.382582 57.686651 120.70851 
C 57.360723 121.034438 57.177593 121.476553 57.177593 121.937485 
C 57.177593 122.398417 57.360723 122.840533 57.686651 123.166461 
C 58.01258 123.492389 58.454695 123.675519 58.915627 123.675519 
z
" clip-path="url(#p49806e83c5)" style="stroke: #000000"/>
    <path d="M 52.837971 110.84092 
C 53.363652 110.84092 53.867874 110.632065 54.239587 110.260352 
C 54.6113 109.888639 54.820156 109.384417 54.820156 108.858735 
C 54.820156 108.333054 54.6113 107.828832 54.239587 107.457119 
C 53.867874 107.085405 53.363652 106.87655 52.837971 106.87655 
C 52.312289 106.87655 51.808067 107.085405 51.436354 107.457119 
C 51.064641 107.828832 50.855785 108.333054 50.855785 108.858735 
C 50.855785 109.384417 51.064641 109.888639 51.436354 110.260352 
C 51.808067 110.632065 52.312289 110.84092 52.837971 110.84092 
z
" clip-path="url(#p49806e83c5)" style="stroke: #000000"/>
   </g>
   <g id="matplotlib.axis_1">
    <g id="xtick_1">
     <g id="line2d_1">
      <defs>
       <path id="m753ff13e4d" d="M 0 0 
L 0 3.5 
" style="stroke: #000000; stroke-width: 0.8"/>
      </defs>
      <g>
       <use xlink:href="#m753ff13e4d" x="18" y="189" style="stroke: #000000; stroke-width: 0.8"/>
      </g>
     </g>
     <g id="text_1">
      <!-- −10 -->
      <g transform="translate(7.447656 203.598437)scale(0.1 -0.1)">
       <defs>
        <path id="DejaVuSans-2212" d="M 678 2272 
L 4684 2272 
L 4684 1741 
L 678 1741 
L 678 2272 
z
" transform="scale(0.015625)"/>
        <path id="DejaVuSans-31" d="M 794 531 
L 1825 531 
L 1825 4091 
L 703 3866 
L 703 4441 
L 1819 4666 
L 2450 4666 
L 2450 531 
L 3481 531 
L 3481 0 
L 794 0 
L 794 531 
z
" transform="scale(0.015625)"/>
        <path id="DejaVuSans-30" d="M 2034 4250 
Q 1547 4250 1301 3770 
Q 1056 3291 1056 2328 
Q 1056 1369 1301 889 
Q 1547 409 2034 409 
Q 2525 409 2770 889 
Q 3016 1369 3016 2328 
Q 3016 3291 2770 3770 
Q 2525 4250 2034 4250 
z
M 2034 4750 
Q 2819 4750 3233 4129 
Q 3647 3509 3647 2328 
Q 3647 1150 3233 529 
Q 2819 -91 2034 -91 
Q 1250 -91 836 529 
Q 422 1150 422 2328 
Q 422 3509 836 4129 
Q 1250 4750 2034 4750 
z
" transform="scale(0.015625)"/>
       </defs>
       <use xlink:href="#DejaVuSans-2212"/>
       <use xlink:href="#DejaVuSans-31" x="83.789062"/>
       <use xlink:href="#DejaVuSans-30" x="147.412109"/>
      </g>
     </g>
    </g>
    <g id="xtick_2">
     <g id="line2d_2">
      <g>
       <use xlink:href="#m753ff13e4d" x="73.8" y="189" style="stroke: #000000; stroke-width: 0.8"/>
      </g>
     </g>
     <g id="text_2">
      <!-- 0 -->
      <g transform="translate(70.61875 203.598437)scale(0.1 -0.1)">
       <use xlink:href="#DejaVuSans-30"/>
      </g>
     </g>
    </g>
    <g id="xtick_3">
     <g id="line2d_3">
      <g>
       <use xlink:href="#m753ff13e4d" x="129.6" y="189" style="stroke: #000000; stroke-width: 0.8"/>
      </g>
     </g>
     <g id="text_3">
      <!-- 10 -->
      <g transform="translate(123.2375 203.598437)scale(0.1 -0.1)">
       <use xlink:href="#DejaVuSans-31"/>
       <use xlink:href="#DejaVuSans-30" x="63.623047"/>
      </g>
     </g>
    </g>
   </g>
   <g id="matplotlib.axis_2">
    <g id="ytick_1">
     <g id="line2d_4">
      <defs>
       <path id="m58f875aefa" d="M 0 0 
L -3.5 0 
" style="stroke: #000000; stroke-width: 0.8"/>
      </defs>
      <g>
       <use xlink:href="#m58f875aefa" x="18" y="189" style="stroke: #000000; stroke-width: 0.8"/>
      </g>
     </g>
     <g id="text_4">
      <!-- −15 -->
      <g transform="translate(-10.104688 192.799219)scale(0.1 -0.1)">
       <defs>
        <path id="DejaVuSans-35" d="M 691 4666 
L 3169 4666 
L 3169 4134 
L 1269 4134 
L 1269 2991 
Q 1406 3038 1543 3061 
Q 1681 3084 1819 3084 
Q 2600 3084 3056 2656 
Q 3513 2228 3513 1497 
Q 3513 744 3044 326 
Q 2575 -91 1722 -91 
Q 1428 -91 1123 -41 
Q 819 9 494 109 
L 494 744 
Q 775 591 1075 516 
Q 1375 441 1709 441 
Q 2250 441 2565 725 
Q 2881 1009 2881 1497 
Q 2881 1984 2565 2268 
Q 2250 2553 1709 2553 
Q 1456 2553 1204 2497 
Q 953 2441 691 2322 
L 691 4666 
z
" transform="scale(0.015625)"/>
       </defs>
       <use xlink:href="#DejaVuSans-2212"/>
       <use xlink:href="#DejaVuSans-31" x="83.789062"/>
       <use xlink:href="#DejaVuSans-35" x="147.412109"/>
      </g>
     </g>
    </g>
    <g id="ytick_2">
     <g id="line2d_5">
      <g>
       <use xlink:href="#m58f875aefa" x="18" y="161.82" style="stroke: #000000; stroke-width: 0.8"/>
      </g>
     </g>
     <g id="text_5">
      <!-- −10 -->
      <g transform="translate(-10.104688 165.619219)scale(0.1 -0.1)">
       <use xlink:href="#DejaVuSans-2212"/>
       <use xlink:href="#DejaVuSans-31" x="83.789062"/>
       <use xlink:href="#DejaVuSans-30" x="147.412109"/>
      </g>
     </g>
    </g>
    <g id="ytick_3">
     <g id="line2d_6">
      <g>
       <use xlink:href="#m58f875aefa" x="18" y="134.64" style="stroke: #000000; stroke-width: 0.8"/>
      </g>
     </g>
     <g id="text_6">
      <!-- −5 -->
      <g transform="translate(-3.742188 138.439219)scale(0.1 -0.1)">
       <use xlink:href="#DejaVuSans-2212"/>
       <use xlink:href="#DejaVuSans-35" x="83.789062"/>
      </g>
     </g>
    </g>
    <g id="ytick_4">
     <g id="line2d_7">
      <g>
       <use xlink:href="#m58f875aefa" x="18" y="107.46" style="stroke: #000000; stroke-width: 0.8"/>
      </g>
     </g>
     <g id="text_7">
      <!-- 0 -->
      <g transform="translate(4.6375 111.259219)scale(0.1 -0.1)">
       <use xlink:href="#DejaVuSans-30"/>
      </g>
     </g>
    </g>
    <g id="ytick_5">
     <g id="line2d_8">
      <g>
       <use xlink:href="#m58f875aefa" x="18" y="80.28" style="stroke: #000000; stroke-width: 0.8"/>
      </g>
     </g>
     <g id="text_8">
      <!-- 5 -->
      <g transform="translate(4.6375 84.079219)scale(0.1 -0.1)">
       <use xlink:href="#DejaVuSans-35"/>
      </g>
     </g>
    </g>
    <g id="ytick_6">
     <g id="line2d_9">
      <g>
       <use xlink:href="#m58f875aefa" x="18" y="53.1" style="stroke: #000000; stroke-width: 0.8"/>
      </g>
     </g>
     <g id="text_9">
      <!-- 10 -->
      <g transform="translate(-1.725 56.899219)scale(0.1 -0.1)">
       <use xlink:href="#DejaVuSans-31"/>
       <use xlink:href="#DejaVuSans-30" x="63.623047"/>
      </g>
     </g>
    </g>
    <g id="ytick_7">
     <g id="line2d_10">
      <g>
       <use xlink:href="#m58f875aefa" x="18" y="25.92" style="stroke: #000000; stroke-width: 0.8"/>
      </g>
     </g>
     <g id="text_10">
      <!-- 15 -->
      <g transform="translate(-1.725 29.719219)scale(0.1 -0.1)">
       <use xlink:href="#DejaVuSans-31"/>
       <use xlink:href="#DejaVuSans-35" x="63.623047"/>
      </g>
     </g>
    </g>
   </g>
   <g id="patch_3">
    <path d="M 18 189 
L 18 25.92 
" style="fill: none; stroke: #000000; stroke-width: 0.8; stroke-linejoin: miter; stroke-linecap: square"/>
   </g>
   <g id="patch_4">
    <path d="M 129.6 189 
L 129.6 25.92 
" style="fill: none; stroke: #000000; stroke-width: 0.8; stroke-linejoin: miter; stroke-linecap: square"/>
   </g>
   <g id="patch_5">
    <path d="M 18 189 
L 129.6 189 
" style="fill: none; stroke: #000000; stroke-width: 0.8; stroke-linejoin: miter; stroke-linecap: square"/>
   </g>
   <g id="patch_6">
    <path d="M 18 25.92 
L 129.6 25.92 
" style="fill: none; stroke: #000000; stroke-width: 0.8; stroke-linejoin: miter; stroke-linecap: square"/>
   </g>
  </g>
 </g>
 <defs>
  <clipPath id="p49806e83c5">
   <rect x="18" y="25.92" width="111.6" height="163.08"/>
  </clipPath>
 </defs>
</svg>
