<?xml version="1.0" encoding="utf-8" standalone="no"?>
<!DOCTYPE svg PUBLIC "-//W3C//DTD SVG 1.1//EN"
  "http://www.w3.org/Graphics/SVG/1.1/DTD/svg11.dtd">
<svg xmlns:xlink="http://www.w3.org/1999/xlink" width="144pt" height="216pt" viewBox="0 0 144 216" xmlns="http://www.w3.org/2000/svg" version="1.1">
 <metadata>
  <rdf:RDF xmlns:dc="http://purl.org/dc/elements/1.1/" xmlns:cc="http://creativecommons.org/ns#" xmlns:rdf="http://www.w3.org/1999/02/22-rdf-syntax-ns#">
   <cc:Work>
    <dc:type rdf:resource="http://purl.org/dc/dcmitype/StillImage"/>
    <dc:date>2022-06-28T09:18:18.510422</dc:date>
    <dc:format>image/svg+xml</dc:format>
    <dc:creator>
     <cc:Agent>
      <dc:title>Matplotlib v3.5.1, https://matplotlib.org/</dc:title>
     </cc:Agent>
    </dc:creator>
   </cc:Work>
  </rdf:RDF>
 </metadata>
 <defs>
  <style type="text/css">*{stroke-linejoin: round; stroke-linecap: butt}</style>
 </defs>
 <g id="figure_1">
  <g id="patch_1">
   <path d="M 0 216 
L 144 216 
L 144 0 
L 0 0 
L 0 216 
z
" style="fill: none"/>
  </g>
  <g id="axes_1">
   <g id="patch_2">
    <path d="M 18 189 
L 129.6 189 
L 129.6 25.92 
L 18 25.92 
z
" style="fill: #ffffff"/>
   </g>
   <g id="PathCollection_1">
    <defs>
     <path id="m45f7b825b1" d="M 0 2.738613 
C 0.726289 2.738613 1.422928 2.450055 1.936492 1.936492 
C 2.450055 1.422928 2.738613 0.726289 2.738613 0 
C 2.738613 -0.726289 2.450055 -1.422928 1.936492 -1.936492 
C 1.422928 -2.450055 0.726289 -2.738613 0 -2.738613 
C -0.726289 -2.738613 -1.422928 -2.450055 -1.936492 -1.936492 
C -2.450055 -1.422928 -2.738613 -0.726289 -2.738613 0 
C -2.738613 0.726289 -2.450055 1.422928 -1.936492 1.936492 
C -1.422928 2.450055 -0.726289 2.738613 0 2.738613 
z
" style="stroke: #ff0000; stroke-width: 1.75"/>
    </defs>
    <g clip-path="url(#p51b28e9525)">
     <use xlink:href="#m45f7b825b1" x="66.825" y="83.92143" style="fill: #ff0000; stroke: #ff0000; stroke-width: 1.75"/>
     <use xlink:href="#m45f7b825b1" x="87.75" y="95.690715" style="fill: #ff0000; stroke: #ff0000; stroke-width: 1.75"/>
     <use xlink:href="#m45f7b825b1" x="66.825" y="107.46" style="fill: #ff0000; stroke: #ff0000; stroke-width: 1.75"/>
     <use xlink:href="#m45f7b825b1" x="73.8" y="119.229285" style="fill: #ff0000; stroke: #ff0000; stroke-width: 1.75"/>
     <use xlink:href="#m45f7b825b1" x="87.75" y="119.229285" style="fill: #ff0000; stroke: #ff0000; stroke-width: 1.75"/>
     <use xlink:href="#m45f7b825b1" x="66.825" y="130.99857" style="fill: #ff0000; stroke: #ff0000; stroke-width: 1.75"/>
     <use xlink:href="#m45f7b825b1" x="80.775" y="130.99857" style="fill: #ff0000; stroke: #ff0000; stroke-width: 1.75"/>
    </g>
   </g>
   <g id="PathCollection_2">
    <defs>
     <path id="C0_0_7027b931f4" d="M 0 2.738613 
C 0.726289 2.738613 1.422928 2.450055 1.936492 1.936492 
C 2.450055 1.422928 2.738613 0.726289 2.738613 -0 
C 2.738613 -0.726289 2.450055 -1.422928 1.936492 -1.936492 
C 1.422928 -2.450055 0.726289 -2.738613 0 -2.738613 
C -0.726289 -2.738613 -1.422928 -2.450055 -1.936492 -1.936492 
C -2.450055 -1.422928 -2.738613 -0.726289 -2.738613 0 
C -2.738613 0.726289 -2.450055 1.422928 -1.936492 1.936492 
C -1.422928 2.450055 -0.726289 2.738613 0 2.738613 
z
"/>
    </defs>
    <g clip-path="url(#p51b28e9525)">
     <use xlink:href="#C0_0_7027b931f4" x="80.775" y="83.92143" style="fill: none; stroke: #ff0000; stroke-width: 1.75"/>
    </g>
    <g clip-path="url(#p51b28e9525)">
     <use xlink:href="#C0_0_7027b931f4" x="59.85" y="95.690715" style="fill: none; stroke: #ff0000; stroke-width: 1.75"/>
    </g>
    <g clip-path="url(#p51b28e9525)">
     <use xlink:href="#C0_0_7027b931f4" x="73.8" y="95.690715" style="fill: none; stroke: #ff0000; stroke-width: 1.75"/>
    </g>
    <g clip-path="url(#p51b28e9525)">
     <use xlink:href="#C0_0_7027b931f4" x="52.875" y="107.46" style="fill: none; stroke: #ff0000; stroke-width: 1.75"/>
    </g>
    <g clip-path="url(#p51b28e9525)">
     <use xlink:href="#C0_0_7027b931f4" x="80.775" y="107.46" style="fill: none; stroke: #ff0000; stroke-width: 1.75"/>
    </g>
    <g clip-path="url(#p51b28e9525)">
     <use xlink:href="#C0_0_7027b931f4" x="94.725" y="107.46" style="fill: none; stroke: #ff0000; stroke-width: 1.75"/>
    </g>
    <g clip-path="url(#p51b28e9525)">
     <use xlink:href="#C0_0_7027b931f4" x="59.85" y="119.229285" style="fill: none; stroke: #ff0000; stroke-width: 1.75"/>
    </g>
   </g>
   <g id="PathCollection_3">
    <path d="M 115.84993 122.017864 
C 116.349214 122.017864 116.828115 121.819497 117.181162 121.46645 
C 117.534209 121.113403 117.732577 120.634501 117.732577 120.135217 
C 117.732577 119.635933 117.534209 119.157031 117.181162 118.803984 
C 116.828115 118.450937 116.349214 118.252569 115.84993 118.252569 
C 115.350646 118.252569 114.871744 118.450937 114.518697 118.803984 
C 114.16565 119.157031 113.967282 119.635933 113.967282 120.135217 
C 113.967282 120.634501 114.16565 121.113403 114.518697 121.46645 
C 114.871744 121.819497 115.350646 122.017864 115.84993 122.017864 
z
" clip-path="url(#p51b28e9525)" style="stroke: #000000"/>
    <path d="M 107.952073 102.364826 
C 108.544715 102.364826 109.113163 102.129367 109.532223 101.710306 
C 109.951284 101.291246 110.186743 100.722798 110.186743 100.130157 
C 110.186743 99.537516 109.951284 98.969068 109.532223 98.550007 
C 109.113163 98.130946 108.544715 97.895488 107.952073 97.895488 
C 107.359432 97.895488 106.790984 98.130946 106.371924 98.550007 
C 105.952863 98.969068 105.717404 99.537516 105.717404 100.130157 
C 105.717404 100.722798 105.952863 101.291246 106.371924 101.710306 
C 106.790984 102.129367 107.359432 102.364826 107.952073 102.364826 
z
" clip-path="url(#p51b28e9525)" style="stroke: #000000"/>
    <path d="M 97.25114 67.63756 
C 97.749802 67.63756 98.228107 67.43944 98.580714 67.086833 
C 98.933321 66.734226 99.131441 66.255921 99.131441 65.757259 
C 99.131441 65.258597 98.933321 64.780292 98.580714 64.427685 
C 98.228107 64.075078 97.749802 63.876957 97.25114 63.876957 
C 96.752478 63.876957 96.274173 64.075078 95.921566 64.427685 
C 95.568959 64.780292 95.370838 65.258597 95.370838 65.757259 
C 95.370838 66.255921 95.568959 66.734226 95.921566 67.086833 
C 96.274173 67.43944 96.752478 67.63756 97.25114 67.63756 
z
" clip-path="url(#p51b28e9525)" style="stroke: #000000"/>
    <path d="M 112.495478 148.124072 
C 112.994762 148.124072 113.473663 147.925705 113.82671 147.572658 
C 114.179757 147.219611 114.378125 146.740709 114.378125 146.241425 
C 114.378125 145.742141 114.179757 145.263239 113.82671 144.910192 
C 113.473663 144.557145 112.994762 144.358777 112.495478 144.358777 
C 111.996194 144.358777 111.517292 144.557145 111.164245 144.910192 
C 110.811198 145.263239 110.61283 145.742141 110.61283 146.241425 
C 110.61283 146.740709 110.811198 147.219611 111.164245 147.572658 
C 111.517292 147.925705 111.996194 148.124072 112.495478 148.124072 
z
" clip-path="url(#p51b28e9525)" style="stroke: #000000"/>
    <path d="M 109.184666 136.420984 
C 109.68395 136.420984 110.162852 136.222616 110.515899 135.869569 
C 110.868946 135.516522 111.067313 135.03762 111.067313 134.538336 
C 111.067313 134.039052 110.868946 133.56015 110.515899 133.207103 
C 110.162852 132.854056 109.68395 132.655689 109.184666 132.655689 
C 108.685382 132.655689 108.20648 132.854056 107.853433 133.207103 
C 107.500386 133.56015 107.302018 134.039052 107.302018 134.538336 
C 107.302018 135.03762 107.500386 135.516522 107.853433 135.869569 
C 108.20648 136.222616 108.685382 136.420984 109.184666 136.420984 
z
" clip-path="url(#p51b28e9525)" style="stroke: #000000"/>
    <path d="M 102.090386 125.824956 
C 102.683398 125.824956 103.252202 125.589349 103.671525 125.170027 
C 104.090848 124.750704 104.326454 124.1819 104.326454 123.588888 
C 104.326454 122.995876 104.090848 122.427072 103.671525 122.007749 
C 103.252202 121.588426 102.683398 121.35282 102.090386 121.35282 
C 101.497374 121.35282 100.92857 121.588426 100.509247 122.007749 
C 100.089925 122.427072 99.854318 122.995876 99.854318 123.588888 
C 99.854318 124.1819 100.089925 124.750704 100.509247 125.170027 
C 100.92857 125.589349 101.497374 125.824956 102.090386 125.824956 
z
" clip-path="url(#p51b28e9525)" style="stroke: #000000"/>
    <path d="M 103.722771 115.02179 
C 104.315783 115.02179 104.884587 114.786184 105.30391 114.366861 
C 105.723233 113.947538 105.958839 113.378735 105.958839 112.785722 
C 105.958839 112.19271 105.723233 111.623906 105.30391 111.204584 
C 104.884587 110.785261 104.315783 110.549654 103.722771 110.549654 
C 103.129759 110.549654 102.560955 110.785261 102.141632 111.204584 
C 101.72231 111.623906 101.486703 112.19271 101.486703 112.785722 
C 101.486703 113.378735 101.72231 113.947538 102.141632 114.366861 
C 102.560955 114.786184 103.129759 115.02179 103.722771 115.02179 
z
" clip-path="url(#p51b28e9525)" style="stroke: #000000"/>
    <path d="M 99.527136 104.350332 
C 100.120148 104.350332 100.688952 104.114725 101.108275 103.695402 
C 101.527598 103.27608 101.763204 102.707276 101.763204 102.114264 
C 101.763204 101.521252 101.527598 100.952448 101.108275 100.533125 
C 100.688952 100.113802 100.120148 99.878196 99.527136 99.878196 
C 98.934124 99.878196 98.36532 100.113802 97.945997 100.533125 
C 97.526674 100.952448 97.291068 101.521252 97.291068 102.114264 
C 97.291068 102.707276 97.526674 103.27608 97.945997 103.695402 
C 98.36532 104.114725 98.934124 104.350332 99.527136 104.350332 
z
" clip-path="url(#p51b28e9525)" style="stroke: #000000"/>
    <path d="M 96.292599 91.755961 
C 96.684117 91.755961 97.059653 91.600409 97.336498 91.323564 
C 97.613343 91.046719 97.768895 90.671183 97.768895 90.279665 
C 97.768895 89.888147 97.613343 89.512611 97.336498 89.235766 
C 97.059653 88.958921 96.684117 88.803369 96.292599 88.803369 
C 95.901081 88.803369 95.525545 88.958921 95.2487 89.235766 
C 94.971855 89.512611 94.816303 89.888147 94.816303 90.279665 
C 94.816303 90.671183 94.971855 91.046719 95.2487 91.323564 
C 95.525545 91.600409 95.901081 91.755961 96.292599 91.755961 
z
" clip-path="url(#p51b28e9525)" style="stroke: #000000"/>
    <path d="M 89.337784 74.450643 
C 89.560793 74.450643 89.774697 74.36204 89.932388 74.20435 
C 90.090078 74.046659 90.178681 73.832754 90.178681 73.609746 
C 90.178681 73.386738 90.090078 73.172833 89.932388 73.015143 
C 89.774697 72.857452 89.560793 72.76885 89.337784 72.76885 
C 89.114776 72.76885 88.900871 72.857452 88.743181 73.015143 
C 88.58549 73.172833 88.496888 73.386738 88.496888 73.609746 
C 88.496888 73.832754 88.58549 74.046659 88.743181 74.20435 
C 88.900871 74.36204 89.114776 74.450643 89.337784 74.450643 
z
" clip-path="url(#p51b28e9525)" style="stroke: #000000"/>
    <path d="M 93.918982 127.231798 
C 94.454494 127.231798 94.968145 127.019037 95.346809 126.640373 
C 95.725473 126.261709 95.938234 125.748058 95.938234 125.212546 
C 95.938234 124.677034 95.725473 124.163384 95.346809 123.78472 
C 94.968145 123.406056 94.454494 123.193295 93.918982 123.193295 
C 93.383471 123.193295 92.86982 123.406056 92.491156 123.78472 
C 92.112492 124.163384 91.899731 124.677034 91.899731 125.212546 
C 91.899731 125.748058 92.112492 126.261709 92.491156 126.640373 
C 92.86982 127.019037 93.383471 127.231798 93.918982 127.231798 
z
" clip-path="url(#p51b28e9525)" style="stroke: #000000"/>
    <path d="M 92.004333 116.605334 
C 92.597715 116.605334 93.166874 116.369581 93.586459 115.949996 
C 94.006044 115.530411 94.241797 114.961253 94.241797 114.36787 
C 94.241797 113.774488 94.006044 113.205329 93.586459 112.785744 
C 93.166874 112.366159 92.597715 112.130406 92.004333 112.130406 
C 91.41095 112.130406 90.841791 112.366159 90.422207 112.785744 
C 90.002622 113.205329 89.766869 113.774488 89.766869 114.36787 
C 89.766869 114.961253 90.002622 115.530411 90.422207 115.949996 
C 90.841791 116.369581 91.41095 116.605334 92.004333 116.605334 
z
" clip-path="url(#p51b28e9525)" style="stroke: #000000"/>
    <path d="M 89.02526 108.896247 
C 89.618642 108.896247 90.187801 108.660493 90.607386 108.240908 
C 91.026971 107.821324 91.262724 107.252165 91.262724 106.658782 
C 91.262724 106.0654 91.026971 105.496241 90.607386 105.076656 
C 90.187801 104.657071 89.618642 104.421318 89.02526 104.421318 
C 88.431877 104.421318 87.862719 104.657071 87.443134 105.076656 
C 87.023549 105.496241 86.787796 106.0654 86.787796 106.658782 
C 86.787796 107.252165 87.023549 107.821324 87.443134 108.240908 
C 87.862719 108.660493 88.431877 108.896247 89.02526 108.896247 
z
" clip-path="url(#p51b28e9525)" style="stroke: #000000"/>
    <path d="M 84.127473 87.825867 
C 84.555928 87.825867 84.966892 87.65564 85.269856 87.352676 
C 85.572819 87.049713 85.743046 86.638749 85.743046 86.210293 
C 85.743046 85.781838 85.572819 85.370874 85.269856 85.067911 
C 84.966892 84.764947 84.555928 84.59472 84.127473 84.59472 
C 83.699018 84.59472 83.288054 84.764947 82.98509 85.067911 
C 82.682127 85.370874 82.5119 85.781838 82.5119 86.210293 
C 82.5119 86.638749 82.682127 87.049713 82.98509 87.352676 
C 83.288054 87.65564 83.699018 87.825867 84.127473 87.825867 
z
" clip-path="url(#p51b28e9525)" style="stroke: #000000"/>
    <path d="M 80.51767 80.16692 
C 81.111053 80.16692 81.680212 79.931167 82.099796 79.511582 
C 82.519381 79.091997 82.755134 78.522838 82.755134 77.929456 
C 82.755134 77.336074 82.519381 76.766915 82.099796 76.34733 
C 81.680212 75.927745 81.111053 75.691992 80.51767 75.691992 
C 79.924288 75.691992 79.355129 75.927745 78.935544 76.34733 
C 78.515959 76.766915 78.280206 77.336074 78.280206 77.929456 
C 78.280206 78.522838 78.515959 79.091997 78.935544 79.511582 
C 79.355129 79.931167 79.924288 80.16692 80.51767 80.16692 
z
" clip-path="url(#p51b28e9525)" style="stroke: #000000"/>
    <path d="M 86.862521 141.653744 
C 87.364882 141.653744 87.846734 141.454154 88.201957 141.098931 
C 88.557179 140.743709 88.756769 140.261856 88.756769 139.759496 
C 88.756769 139.257135 88.557179 138.775283 88.201957 138.42006 
C 87.846734 138.064838 87.364882 137.865248 86.862521 137.865248 
C 86.360161 137.865248 85.878308 138.064838 85.523086 138.42006 
C 85.167863 138.775283 84.968273 139.257135 84.968273 139.759496 
C 84.968273 140.261856 85.167863 140.743709 85.523086 141.098931 
C 85.878308 141.454154 86.360161 141.653744 86.862521 141.653744 
z
" clip-path="url(#p51b28e9525)" style="stroke: #000000"/>
    <path d="M 84.167353 110.061852 
C 84.542406 110.061852 84.90215 109.912841 85.167353 109.647638 
C 85.432556 109.382435 85.581566 109.022692 85.581566 108.647638 
C 85.581566 108.272584 85.432556 107.912841 85.167353 107.647638 
C 84.90215 107.382435 84.542406 107.233424 84.167353 107.233424 
C 83.792299 107.233424 83.432556 107.382435 83.167353 107.647638 
C 82.90215 107.912841 82.753139 108.272584 82.753139 108.647638 
C 82.753139 109.022692 82.90215 109.382435 83.167353 109.647638 
C 83.432556 109.912841 83.792299 110.061852 84.167353 110.061852 
z
" clip-path="url(#p51b28e9525)" style="stroke: #000000"/>
    <path d="M 75.362265 97.320459 
C 75.955648 97.320459 76.524806 97.084706 76.944391 96.665121 
C 77.363976 96.245536 77.599729 95.676377 77.599729 95.082995 
C 77.599729 94.489612 77.363976 93.920453 76.944391 93.500869 
C 76.524806 93.081284 75.955648 92.845531 75.362265 92.845531 
C 74.768883 92.845531 74.199724 93.081284 73.780139 93.500869 
C 73.360554 93.920453 73.124801 94.489612 73.124801 95.082995 
C 73.124801 95.676377 73.360554 96.245536 73.780139 96.665121 
C 74.199724 97.084706 74.768883 97.320459 75.362265 97.320459 
z
" clip-path="url(#p51b28e9525)" style="stroke: #000000"/>
    <path d="M 69.815831 96.502078 
C 70.103011 96.502078 70.378467 96.38798 70.581534 96.184913 
C 70.784601 95.981846 70.898699 95.70639 70.898699 95.41921 
C 70.898699 95.13203 70.784601 94.856573 70.581534 94.653506 
C 70.378467 94.450439 70.103011 94.336341 69.815831 94.336341 
C 69.528651 94.336341 69.253194 94.450439 69.050127 94.653506 
C 68.84706 94.856573 68.732962 95.13203 68.732962 95.41921 
C 68.732962 95.70639 68.84706 95.981846 69.050127 96.184913 
C 69.253194 96.38798 69.528651 96.502078 69.815831 96.502078 
z
" clip-path="url(#p51b28e9525)" style="stroke: #000000"/>
    <path d="M 66.49815 80.389264 
C 67.091532 80.389264 67.660691 80.153511 68.080276 79.733926 
C 68.499861 79.314341 68.735614 78.745182 68.735614 78.1518 
C 68.735614 77.558417 68.499861 76.989258 68.080276 76.569674 
C 67.660691 76.150089 67.091532 75.914335 66.49815 75.914335 
C 65.904767 75.914335 65.335609 76.150089 64.916024 76.569674 
C 64.496439 76.989258 64.260686 77.558417 64.260686 78.1518 
C 64.260686 78.745182 64.496439 79.314341 64.916024 79.733926 
C 65.335609 80.153511 65.904767 80.389264 66.49815 80.389264 
z
" clip-path="url(#p51b28e9525)" style="stroke: #000000"/>
    <path d="M 72.776108 123.675032 
C 73.351688 123.675032 73.903771 123.446351 74.310768 123.039355 
C 74.717764 122.632358 74.946445 122.080275 74.946445 121.504695 
C 74.946445 120.929115 74.717764 120.377032 74.310768 119.970035 
C 73.903771 119.563039 73.351688 119.334359 72.776108 119.334359 
C 72.200528 119.334359 71.648445 119.563039 71.241448 119.970035 
C 70.834452 120.377032 70.605772 120.929115 70.605772 121.504695 
C 70.605772 122.080275 70.834452 122.632358 71.241448 123.039355 
C 71.648445 123.446351 72.200528 123.675032 72.776108 123.675032 
z
" clip-path="url(#p51b28e9525)" style="stroke: #000000"/>
    <path d="M 66.527884 116.219817 
C 67.120896 116.219817 67.6897 115.984211 68.109023 115.564888 
C 68.528345 115.145565 68.763952 114.576761 68.763952 113.983749 
C 68.763952 113.390737 68.528345 112.821933 68.109023 112.40261 
C 67.6897 111.983287 67.120896 111.747681 66.527884 111.747681 
C 65.934872 111.747681 65.366068 111.983287 64.946745 112.40261 
C 64.527422 112.821933 64.291816 113.390737 64.291816 113.983749 
C 64.291816 114.576761 64.527422 115.145565 64.946745 115.564888 
C 65.366068 115.984211 65.934872 116.219817 66.527884 116.219817 
z
" clip-path="url(#p51b28e9525)" style="stroke: #000000"/>
    <path d="M 62.318491 96.833018 
C 62.911873 96.833018 63.481032 96.597265 63.900617 96.17768 
C 64.320202 95.758095 64.555955 95.188936 64.555955 94.595554 
C 64.555955 94.002171 64.320202 93.433012 63.900617 93.013428 
C 63.481032 92.593843 62.911873 92.358089 62.318491 92.358089 
C 61.725108 92.358089 61.15595 92.593843 60.736365 93.013428 
C 60.31678 93.433012 60.081027 94.002171 60.081027 94.595554 
C 60.081027 95.188936 60.31678 95.758095 60.736365 96.17768 
C 61.15595 96.597265 61.725108 96.833018 62.318491 96.833018 
z
" clip-path="url(#p51b28e9525)" style="stroke: #000000"/>
    <path d="M 66.676712 159.05229 
C 67.175996 159.05229 67.654898 158.853922 68.007945 158.500875 
C 68.360992 158.147828 68.559359 157.668926 68.559359 157.169643 
C 68.559359 156.670359 68.360992 156.191457 68.007945 155.83841 
C 67.654898 155.485363 67.175996 155.286995 66.676712 155.286995 
C 66.177428 155.286995 65.698526 155.485363 65.345479 155.83841 
C 64.992432 156.191457 64.794064 156.670359 64.794064 157.169643 
C 64.794064 157.668926 64.992432 158.147828 65.345479 158.500875 
C 65.698526 158.853922 66.177428 159.05229 66.676712 159.05229 
z
" clip-path="url(#p51b28e9525)" style="stroke: #000000"/>
    <path d="M 63.635252 129.09002 
C 64.228634 129.09002 64.797793 128.854267 65.217378 128.434682 
C 65.636962 128.015097 65.872716 127.445938 65.872716 126.852556 
C 65.872716 126.259174 65.636962 125.690015 65.217378 125.27043 
C 64.797793 124.850845 64.228634 124.615092 63.635252 124.615092 
C 63.041869 124.615092 62.47271 124.850845 62.053125 125.27043 
C 61.633541 125.690015 61.397787 126.259174 61.397787 126.852556 
C 61.397787 127.445938 61.633541 128.015097 62.053125 128.434682 
C 62.47271 128.854267 63.041869 129.09002 63.635252 129.09002 
z
" clip-path="url(#p51b28e9525)" style="stroke: #000000"/>
    <path d="M 58.623635 119.749193 
C 59.217018 119.749193 59.786177 119.51344 60.205762 119.093855 
C 60.625346 118.67427 60.8611 118.105111 60.8611 117.511729 
C 60.8611 116.918347 60.625346 116.349188 60.205762 115.929603 
C 59.786177 115.510018 59.217018 115.274265 58.623635 115.274265 
C 58.030253 115.274265 57.461094 115.510018 57.041509 115.929603 
C 56.621925 116.349188 56.386171 116.918347 56.386171 117.511729 
C 56.386171 118.105111 56.621925 118.67427 57.041509 119.093855 
C 57.461094 119.51344 58.030253 119.749193 58.623635 119.749193 
z
" clip-path="url(#p51b28e9525)" style="stroke: #000000"/>
    <path d="M 55.171988 105.735111 
C 55.765 105.735111 56.333804 105.499505 56.753127 105.080182 
C 57.17245 104.660859 57.408056 104.092055 57.408056 103.499043 
C 57.408056 102.906031 57.17245 102.337227 56.753127 101.917904 
C 56.333804 101.498581 55.765 101.262975 55.171988 101.262975 
C 54.578976 101.262975 54.010172 101.498581 53.590849 101.917904 
C 53.171526 102.337227 52.93592 102.906031 52.93592 103.499043 
C 52.93592 104.092055 53.171526 104.660859 53.590849 105.080182 
C 54.010172 105.499505 54.578976 105.735111 55.171988 105.735111 
z
" clip-path="url(#p51b28e9525)" style="stroke: #000000"/>
    <path d="M 50.080964 93.056829 
C 50.567336 93.056829 51.033852 92.863592 51.377769 92.519675 
C 51.721686 92.175758 51.914923 91.709242 51.914923 91.22287 
C 51.914923 90.736498 51.721686 90.269982 51.377769 89.926065 
C 51.033852 89.582148 50.567336 89.388911 50.080964 89.388911 
C 49.594592 89.388911 49.128076 89.582148 48.784159 89.926065 
C 48.440242 90.269982 48.247005 90.736498 48.247005 91.22287 
C 48.247005 91.709242 48.440242 92.175758 48.784159 92.519675 
C 49.128076 92.863592 49.594592 93.056829 50.080964 93.056829 
z
" clip-path="url(#p51b28e9525)" style="stroke: #000000"/>
    <path d="M 48.135196 86.651003 
C 48.292887 86.651003 48.44414 86.588352 48.555645 86.476848 
C 48.667149 86.365344 48.7298 86.214091 48.7298 86.0564 
C 48.7298 85.898709 48.667149 85.747456 48.555645 85.635952 
C 48.44414 85.524447 48.292887 85.461796 48.135196 85.461796 
C 47.977506 85.461796 47.826252 85.524447 47.714748 85.635952 
C 47.603244 85.747456 47.540593 85.898709 47.540593 86.0564 
C 47.540593 86.214091 47.603244 86.365344 47.714748 86.476848 
C 47.826252 86.588352 47.977506 86.651003 48.135196 86.651003 
z
" clip-path="url(#p51b28e9525)" style="stroke: #000000"/>
    <path d="M 42.044926 112.819077 
C 42.631152 112.819077 43.193445 112.586168 43.607969 112.171644 
C 44.022493 111.75712 44.255403 111.194826 44.255403 110.608601 
C 44.255403 110.022376 44.022493 109.460082 43.607969 109.045558 
C 43.193445 108.631035 42.631152 108.398125 42.044926 108.398125 
C 41.458701 108.398125 40.896407 108.631035 40.481884 109.045558 
C 40.06736 109.460082 39.83445 110.022376 39.83445 110.608601 
C 39.83445 111.194826 40.06736 111.75712 40.481884 112.171644 
C 40.896407 112.586168 41.458701 112.819077 42.044926 112.819077 
z
" clip-path="url(#p51b28e9525)" style="stroke: #000000"/>
    <path d="M 37.898601 125.612643 
C 38.397884 125.612643 38.876786 125.414276 39.229833 125.061228 
C 39.58288 124.708181 39.781248 124.22928 39.781248 123.729996 
C 39.781248 123.230712 39.58288 122.75181 39.229833 122.398763 
C 38.876786 122.045716 38.397884 121.847348 37.898601 121.847348 
C 37.399317 121.847348 36.920415 122.045716 36.567368 122.398763 
C 36.214321 122.75181 36.015953 123.230712 36.015953 123.729996 
C 36.015953 124.22928 36.214321 124.708181 36.567368 125.061228 
C 36.920415 125.414276 37.399317 125.612643 37.898601 125.612643 
z
" clip-path="url(#p51b28e9525)" style="stroke: #000000"/>
    <path d="M 32.944619 112.981962 
C 33.443903 112.981962 33.922805 112.783595 34.275852 112.430548 
C 34.628899 112.0775 34.827266 111.598599 34.827266 111.099315 
C 34.827266 110.600031 34.628899 110.121129 34.275852 109.768082 
C 33.922805 109.415035 33.443903 109.216667 32.944619 109.216667 
C 32.445335 109.216667 31.966433 109.415035 31.613386 109.768082 
C 31.260339 110.121129 31.061971 110.600031 31.061971 111.099315 
C 31.061971 111.598599 31.260339 112.0775 31.613386 112.430548 
C 31.966433 112.783595 32.445335 112.981962 32.944619 112.981962 
z
" clip-path="url(#p51b28e9525)" style="stroke: #000000"/>
    <path d="M 27.575633 129.887866 
C 28.068588 129.887866 28.541419 129.692013 28.88999 129.343442 
C 29.238562 128.99487 29.434415 128.522039 29.434415 128.029085 
C 29.434415 127.53613 29.238562 127.063299 28.88999 126.714728 
C 28.541419 126.366156 28.068588 126.170303 27.575633 126.170303 
C 27.082679 126.170303 26.609848 126.366156 26.261276 126.714728 
C 25.912705 127.063299 25.716852 127.53613 25.716852 128.029085 
C 25.716852 128.522039 25.912705 128.99487 26.261276 129.343442 
C 26.609848 129.692013 27.082679 129.887866 27.575633 129.887866 
z
" clip-path="url(#p51b28e9525)" style="stroke: #000000"/>
   </g>
   <g id="matplotlib.axis_1">
    <g id="xtick_1">
     <g id="line2d_1">
      <defs>
       <path id="m0edacf5ac5" d="M 0 0 
L 0 3.5 
" style="stroke: #000000; stroke-width: 0.8"/>
      </defs>
      <g>
       <use xlink:href="#m0edacf5ac5" x="18" y="189" style="stroke: #000000; stroke-width: 0.8"/>
      </g>
     </g>
     <g id="text_1">
      <!-- −10 -->
      <g transform="translate(7.447656 203.598437)scale(0.1 -0.1)">
       <defs>
        <path id="DejaVuSans-2212" d="M 678 2272 
L 4684 2272 
L 4684 1741 
L 678 1741 
L 678 2272 
z
" transform="scale(0.015625)"/>
        <path id="DejaVuSans-31" d="M 794 531 
L 1825 531 
L 1825 4091 
L 703 3866 
L 703 4441 
L 1819 4666 
L 2450 4666 
L 2450 531 
L 3481 531 
L 3481 0 
L 794 0 
L 794 531 
z
" transform="scale(0.015625)"/>
        <path id="DejaVuSans-30" d="M 2034 4250 
Q 1547 4250 1301 3770 
Q 1056 3291 1056 2328 
Q 1056 1369 1301 889 
Q 1547 409 2034 409 
Q 2525 409 2770 889 
Q 3016 1369 3016 2328 
Q 3016 3291 2770 3770 
Q 2525 4250 2034 4250 
z
M 2034 4750 
Q 2819 4750 3233 4129 
Q 3647 3509 3647 2328 
Q 3647 1150 3233 529 
Q 2819 -91 2034 -91 
Q 1250 -91 836 529 
Q 422 1150 422 2328 
Q 422 3509 836 4129 
Q 1250 4750 2034 4750 
z
" transform="scale(0.015625)"/>
       </defs>
       <use xlink:href="#DejaVuSans-2212"/>
       <use xlink:href="#DejaVuSans-31" x="83.789062"/>
       <use xlink:href="#DejaVuSans-30" x="147.412109"/>
      </g>
     </g>
    </g>
    <g id="xtick_2">
     <g id="line2d_2">
      <g>
       <use xlink:href="#m0edacf5ac5" x="73.8" y="189" style="stroke: #000000; stroke-width: 0.8"/>
      </g>
     </g>
     <g id="text_2">
      <!-- 0 -->
      <g transform="translate(70.61875 203.598437)scale(0.1 -0.1)">
       <use xlink:href="#DejaVuSans-30"/>
      </g>
     </g>
    </g>
    <g id="xtick_3">
     <g id="line2d_3">
      <g>
       <use xlink:href="#m0edacf5ac5" x="129.6" y="189" style="stroke: #000000; stroke-width: 0.8"/>
      </g>
     </g>
     <g id="text_3">
      <!-- 10 -->
      <g transform="translate(123.2375 203.598437)scale(0.1 -0.1)">
       <use xlink:href="#DejaVuSans-31"/>
       <use xlink:href="#DejaVuSans-30" x="63.623047"/>
      </g>
     </g>
    </g>
   </g>
   <g id="matplotlib.axis_2">
    <g id="ytick_1">
     <g id="line2d_4">
      <defs>
       <path id="m0915bed849" d="M 0 0 
L -3.5 0 
" style="stroke: #000000; stroke-width: 0.8"/>
      </defs>
      <g>
       <use xlink:href="#m0915bed849" x="18" y="189" style="stroke: #000000; stroke-width: 0.8"/>
      </g>
     </g>
     <g id="text_4">
      <!-- −15 -->
      <g transform="translate(-10.104688 192.799219)scale(0.1 -0.1)">
       <defs>
        <path id="DejaVuSans-35" d="M 691 4666 
L 3169 4666 
L 3169 4134 
L 1269 4134 
L 1269 2991 
Q 1406 3038 1543 3061 
Q 1681 3084 1819 3084 
Q 2600 3084 3056 2656 
Q 3513 2228 3513 1497 
Q 3513 744 3044 326 
Q 2575 -91 1722 -91 
Q 1428 -91 1123 -41 
Q 819 9 494 109 
L 494 744 
Q 775 591 1075 516 
Q 1375 441 1709 441 
Q 2250 441 2565 725 
Q 2881 1009 2881 1497 
Q 2881 1984 2565 2268 
Q 2250 2553 1709 2553 
Q 1456 2553 1204 2497 
Q 953 2441 691 2322 
L 691 4666 
z
" transform="scale(0.015625)"/>
       </defs>
       <use xlink:href="#DejaVuSans-2212"/>
       <use xlink:href="#DejaVuSans-31" x="83.789062"/>
       <use xlink:href="#DejaVuSans-35" x="147.412109"/>
      </g>
     </g>
    </g>
    <g id="ytick_2">
     <g id="line2d_5">
      <g>
       <use xlink:href="#m0915bed849" x="18" y="161.82" style="stroke: #000000; stroke-width: 0.8"/>
      </g>
     </g>
     <g id="text_5">
      <!-- −10 -->
      <g transform="translate(-10.104688 165.619219)scale(0.1 -0.1)">
       <use xlink:href="#DejaVuSans-2212"/>
       <use xlink:href="#DejaVuSans-31" x="83.789062"/>
       <use xlink:href="#DejaVuSans-30" x="147.412109"/>
      </g>
     </g>
    </g>
    <g id="ytick_3">
     <g id="line2d_6">
      <g>
       <use xlink:href="#m0915bed849" x="18" y="134.64" style="stroke: #000000; stroke-width: 0.8"/>
      </g>
     </g>
     <g id="text_6">
      <!-- −5 -->
      <g transform="translate(-3.742188 138.439219)scale(0.1 -0.1)">
       <use xlink:href="#DejaVuSans-2212"/>
       <use xlink:href="#DejaVuSans-35" x="83.789062"/>
      </g>
     </g>
    </g>
    <g id="ytick_4">
     <g id="line2d_7">
      <g>
       <use xlink:href="#m0915bed849" x="18" y="107.46" style="stroke: #000000; stroke-width: 0.8"/>
      </g>
     </g>
     <g id="text_7">
      <!-- 0 -->
      <g transform="translate(4.6375 111.259219)scale(0.1 -0.1)">
       <use xlink:href="#DejaVuSans-30"/>
      </g>
     </g>
    </g>
    <g id="ytick_5">
     <g id="line2d_8">
      <g>
       <use xlink:href="#m0915bed849" x="18" y="80.28" style="stroke: #000000; stroke-width: 0.8"/>
      </g>
     </g>
     <g id="text_8">
      <!-- 5 -->
      <g transform="translate(4.6375 84.079219)scale(0.1 -0.1)">
       <use xlink:href="#DejaVuSans-35"/>
      </g>
     </g>
    </g>
    <g id="ytick_6">
     <g id="line2d_9">
      <g>
       <use xlink:href="#m0915bed849" x="18" y="53.1" style="stroke: #000000; stroke-width: 0.8"/>
      </g>
     </g>
     <g id="text_9">
      <!-- 10 -->
      <g transform="translate(-1.725 56.899219)scale(0.1 -0.1)">
       <use xlink:href="#DejaVuSans-31"/>
       <use xlink:href="#DejaVuSans-30" x="63.623047"/>
      </g>
     </g>
    </g>
    <g id="ytick_7">
     <g id="line2d_10">
      <g>
       <use xlink:href="#m0915bed849" x="18" y="25.92" style="stroke: #000000; stroke-width: 0.8"/>
      </g>
     </g>
     <g id="text_10">
      <!-- 15 -->
      <g transform="translate(-1.725 29.719219)scale(0.1 -0.1)">
       <use xlink:href="#DejaVuSans-31"/>
       <use xlink:href="#DejaVuSans-35" x="63.623047"/>
      </g>
     </g>
    </g>
   </g>
   <g id="patch_3">
    <path d="M 18 189 
L 18 25.92 
" style="fill: none; stroke: #000000; stroke-width: 0.8; stroke-linejoin: miter; stroke-linecap: square"/>
   </g>
   <g id="patch_4">
    <path d="M 129.6 189 
L 129.6 25.92 
" style="fill: none; stroke: #000000; stroke-width: 0.8; stroke-linejoin: miter; stroke-linecap: square"/>
   </g>
   <g id="patch_5">
    <path d="M 18 189 
L 129.6 189 
" style="fill: none; stroke: #000000; stroke-width: 0.8; stroke-linejoin: miter; stroke-linecap: square"/>
   </g>
   <g id="patch_6">
    <path d="M 18 25.92 
L 129.6 25.92 
" style="fill: none; stroke: #000000; stroke-width: 0.8; stroke-linejoin: miter; stroke-linecap: square"/>
   </g>
  </g>
 </g>
 <defs>
  <clipPath id="p51b28e9525">
   <rect x="18" y="25.92" width="111.6" height="163.08"/>
  </clipPath>
 </defs>
</svg>
