<?xml version="1.0" encoding="utf-8" standalone="no"?>
<!DOCTYPE svg PUBLIC "-//W3C//DTD SVG 1.1//EN"
  "http://www.w3.org/Graphics/SVG/1.1/DTD/svg11.dtd">
<svg xmlns:xlink="http://www.w3.org/1999/xlink" width="144pt" height="216pt" viewBox="0 0 144 216" xmlns="http://www.w3.org/2000/svg" version="1.1">
 <metadata>
  <rdf:RDF xmlns:dc="http://purl.org/dc/elements/1.1/" xmlns:cc="http://creativecommons.org/ns#" xmlns:rdf="http://www.w3.org/1999/02/22-rdf-syntax-ns#">
   <cc:Work>
    <dc:type rdf:resource="http://purl.org/dc/dcmitype/StillImage"/>
    <dc:date>2022-06-23T14:45:46.101469</dc:date>
    <dc:format>image/svg+xml</dc:format>
    <dc:creator>
     <cc:Agent>
      <dc:title>Matplotlib v3.5.1, https://matplotlib.org/</dc:title>
     </cc:Agent>
    </dc:creator>
   </cc:Work>
  </rdf:RDF>
 </metadata>
 <defs>
  <style type="text/css">*{stroke-linejoin: round; stroke-linecap: butt}</style>
 </defs>
 <g id="figure_1">
  <g id="patch_1">
   <path d="M 0 216 
L 144 216 
L 144 0 
L 0 0 
L 0 216 
z
" style="fill: none"/>
  </g>
  <g id="axes_1">
   <g id="patch_2">
    <path d="M 18 189 
L 129.6 189 
L 129.6 25.92 
L 18 25.92 
z
" style="fill: #ffffff"/>
   </g>
   <g id="PathCollection_1">
    <defs>
     <path id="m47a875fe47" d="M 0 2.738613 
C 0.726289 2.738613 1.422928 2.450055 1.936492 1.936492 
C 2.450055 1.422928 2.738613 0.726289 2.738613 0 
C 2.738613 -0.726289 2.450055 -1.422928 1.936492 -1.936492 
C 1.422928 -2.450055 0.726289 -2.738613 0 -2.738613 
C -0.726289 -2.738613 -1.422928 -2.450055 -1.936492 -1.936492 
C -2.450055 -1.422928 -2.738613 -0.726289 -2.738613 0 
C -2.738613 0.726289 -2.450055 1.422928 -1.936492 1.936492 
C -1.422928 2.450055 -0.726289 2.738613 0 2.738613 
z
" style="stroke: #ff0000; stroke-width: 1.75"/>
    </defs>
    <g clip-path="url(#pc1a1d1ee28)">
     <use xlink:href="#m47a875fe47" x="66.825" y="83.92143" style="fill: #ff0000; stroke: #ff0000; stroke-width: 1.75"/>
     <use xlink:href="#m47a875fe47" x="87.75" y="95.690715" style="fill: #ff0000; stroke: #ff0000; stroke-width: 1.75"/>
     <use xlink:href="#m47a875fe47" x="66.825" y="107.46" style="fill: #ff0000; stroke: #ff0000; stroke-width: 1.75"/>
     <use xlink:href="#m47a875fe47" x="73.8" y="119.229285" style="fill: #ff0000; stroke: #ff0000; stroke-width: 1.75"/>
     <use xlink:href="#m47a875fe47" x="87.75" y="119.229285" style="fill: #ff0000; stroke: #ff0000; stroke-width: 1.75"/>
     <use xlink:href="#m47a875fe47" x="66.825" y="130.99857" style="fill: #ff0000; stroke: #ff0000; stroke-width: 1.75"/>
     <use xlink:href="#m47a875fe47" x="80.775" y="130.99857" style="fill: #ff0000; stroke: #ff0000; stroke-width: 1.75"/>
    </g>
   </g>
   <g id="PathCollection_2">
    <defs>
     <path id="C0_0_047a114892" d="M 0 2.738613 
C 0.726289 2.738613 1.422928 2.450055 1.936492 1.936492 
C 2.450055 1.422928 2.738613 0.726289 2.738613 -0 
C 2.738613 -0.726289 2.450055 -1.422928 1.936492 -1.936492 
C 1.422928 -2.450055 0.726289 -2.738613 0 -2.738613 
C -0.726289 -2.738613 -1.422928 -2.450055 -1.936492 -1.936492 
C -2.450055 -1.422928 -2.738613 -0.726289 -2.738613 0 
C -2.738613 0.726289 -2.450055 1.422928 -1.936492 1.936492 
C -1.422928 2.450055 -0.726289 2.738613 0 2.738613 
z
"/>
    </defs>
    <g clip-path="url(#pc1a1d1ee28)">
     <use xlink:href="#C0_0_047a114892" x="80.775" y="83.92143" style="fill: none; stroke: #ff0000; stroke-width: 1.75"/>
    </g>
    <g clip-path="url(#pc1a1d1ee28)">
     <use xlink:href="#C0_0_047a114892" x="59.85" y="95.690715" style="fill: none; stroke: #ff0000; stroke-width: 1.75"/>
    </g>
    <g clip-path="url(#pc1a1d1ee28)">
     <use xlink:href="#C0_0_047a114892" x="73.8" y="95.690715" style="fill: none; stroke: #ff0000; stroke-width: 1.75"/>
    </g>
    <g clip-path="url(#pc1a1d1ee28)">
     <use xlink:href="#C0_0_047a114892" x="52.875" y="107.46" style="fill: none; stroke: #ff0000; stroke-width: 1.75"/>
    </g>
    <g clip-path="url(#pc1a1d1ee28)">
     <use xlink:href="#C0_0_047a114892" x="80.775" y="107.46" style="fill: none; stroke: #ff0000; stroke-width: 1.75"/>
    </g>
    <g clip-path="url(#pc1a1d1ee28)">
     <use xlink:href="#C0_0_047a114892" x="94.725" y="107.46" style="fill: none; stroke: #ff0000; stroke-width: 1.75"/>
    </g>
    <g clip-path="url(#pc1a1d1ee28)">
     <use xlink:href="#C0_0_047a114892" x="59.85" y="119.229285" style="fill: none; stroke: #ff0000; stroke-width: 1.75"/>
    </g>
   </g>
   <g id="PathCollection_3">
    <path d="M 109.849647 91.719002 
C 110.348931 91.719002 110.827833 91.520635 111.18088 91.167588 
C 111.533927 90.814541 111.732295 90.335639 111.732295 89.836355 
C 111.732295 89.337071 111.533927 88.858169 111.18088 88.505122 
C 110.827833 88.152075 110.348931 87.953707 109.849647 87.953707 
C 109.350363 87.953707 108.871461 88.152075 108.518414 88.505122 
C 108.165367 88.858169 107.967 89.337071 107.967 89.836355 
C 107.967 90.335639 108.165367 90.814541 108.518414 91.167588 
C 108.871461 91.520635 109.350363 91.719002 109.849647 91.719002 
z
" clip-path="url(#pc1a1d1ee28)" style="stroke: #000000"/>
    <path d="M 100.135534 72.974094 
C 100.633571 72.974094 101.111277 72.776221 101.463443 72.424056 
C 101.815608 72.07189 102.013481 71.594184 102.013481 71.096147 
C 102.013481 70.59811 101.815608 70.120404 101.463443 69.768238 
C 101.111277 69.416073 100.633571 69.2182 100.135534 69.2182 
C 99.637497 69.2182 99.159791 69.416073 98.807625 69.768238 
C 98.45546 70.120404 98.257587 70.59811 98.257587 71.096147 
C 98.257587 71.594184 98.45546 72.07189 98.807625 72.424056 
C 99.159791 72.776221 99.637497 72.974094 100.135534 72.974094 
z
" clip-path="url(#pc1a1d1ee28)" style="stroke: #000000"/>
    <path d="M 94.700942 61.032285 
C 95.199603 61.032285 95.677908 60.834165 96.030516 60.481558 
C 96.383123 60.12895 96.581243 59.650645 96.581243 59.151984 
C 96.581243 58.653322 96.383123 58.175017 96.030516 57.82241 
C 95.677908 57.469802 95.199603 57.271682 94.700942 57.271682 
C 94.20228 57.271682 93.723975 57.469802 93.371368 57.82241 
C 93.01876 58.175017 92.82064 58.653322 92.82064 59.151984 
C 92.82064 59.650645 93.01876 60.12895 93.371368 60.481558 
C 93.723975 60.834165 94.20228 61.032285 94.700942 61.032285 
z
" clip-path="url(#pc1a1d1ee28)" style="stroke: #000000"/>
    <path d="M 90.288723 44.324016 
C 90.530212 44.324016 90.761842 44.228072 90.9326 44.057313 
C 91.103359 43.886555 91.199303 43.654925 91.199303 43.413436 
C 91.199303 43.171947 91.103359 42.940317 90.9326 42.769559 
C 90.761842 42.5988 90.530212 42.502856 90.288723 42.502856 
C 90.047234 42.502856 89.815604 42.5988 89.644845 42.769559 
C 89.474087 42.940317 89.378143 43.171947 89.378143 43.413436 
C 89.378143 43.654925 89.474087 43.886555 89.644845 44.057313 
C 89.815604 44.228072 90.047234 44.324016 90.288723 44.324016 
z
" clip-path="url(#pc1a1d1ee28)" style="stroke: #000000"/>
    <path d="M 104.552852 116.271393 
C 105.145864 116.271393 105.714668 116.035787 106.133991 115.616464 
C 106.553314 115.197141 106.78892 114.628338 106.78892 114.035325 
C 106.78892 113.442313 106.553314 112.87351 106.133991 112.454187 
C 105.714668 112.034864 105.145864 111.799257 104.552852 111.799257 
C 103.95984 111.799257 103.391036 112.034864 102.971713 112.454187 
C 102.55239 112.87351 102.316784 113.442313 102.316784 114.035325 
C 102.316784 114.628338 102.55239 115.197141 102.971713 115.616464 
C 103.391036 116.035787 103.95984 116.271393 104.552852 116.271393 
z
" clip-path="url(#pc1a1d1ee28)" style="stroke: #000000"/>
    <path d="M 100.165759 101.394752 
C 100.29836 101.394752 100.425549 101.342069 100.519312 101.248305 
C 100.613076 101.154542 100.665759 101.027353 100.665759 100.894752 
C 100.665759 100.76215 100.613076 100.634962 100.519312 100.541198 
C 100.425549 100.447435 100.29836 100.394752 100.165759 100.394752 
C 100.033157 100.394752 99.905969 100.447435 99.812205 100.541198 
C 99.718442 100.634962 99.665759 100.76215 99.665759 100.894752 
C 99.665759 101.027353 99.718442 101.154542 99.812205 101.248305 
C 99.905969 101.342069 100.033157 101.394752 100.165759 101.394752 
z
" clip-path="url(#pc1a1d1ee28)" style="stroke: #000000"/>
    <path d="M 95.980206 85.495652 
C 96.486781 85.495652 96.972676 85.294388 97.330878 84.936185 
C 97.689081 84.577983 97.890345 84.092088 97.890345 83.585513 
C 97.890345 83.078938 97.689081 82.593044 97.330878 82.234841 
C 96.972676 81.876639 96.486781 81.675374 95.980206 81.675374 
C 95.473632 81.675374 94.987737 81.876639 94.629534 82.234841 
C 94.271332 82.593044 94.070068 83.078938 94.070068 83.585513 
C 94.070068 84.092088 94.271332 84.577983 94.629534 84.936185 
C 94.987737 85.294388 95.473632 85.495652 95.980206 85.495652 
z
" clip-path="url(#pc1a1d1ee28)" style="stroke: #000000"/>
    <path d="M 78.786689 51.982861 
C 79.283471 51.982861 79.759972 51.785488 80.111249 51.434211 
C 80.462526 51.082933 80.6599 50.606432 80.6599 50.109651 
C 80.6599 49.61287 80.462526 49.136368 80.111249 48.785091 
C 79.759972 48.433814 79.283471 48.23644 78.786689 48.23644 
C 78.289908 48.23644 77.813407 48.433814 77.46213 48.785091 
C 77.110852 49.136368 76.913479 49.61287 76.913479 50.109651 
C 76.913479 50.606432 77.110852 51.082933 77.46213 51.434211 
C 77.813407 51.785488 78.289908 51.982861 78.786689 51.982861 
z
" clip-path="url(#pc1a1d1ee28)" style="stroke: #000000"/>
    <path d="M 75.381983 35.054812 
C 75.514584 35.054812 75.641773 35.002128 75.735536 34.908365 
C 75.8293 34.814601 75.881983 34.687413 75.881983 34.554812 
C 75.881983 34.42221 75.8293 34.295022 75.735536 34.201258 
C 75.641773 34.107495 75.514584 34.054812 75.381983 34.054812 
C 75.249381 34.054812 75.122193 34.107495 75.028429 34.201258 
C 74.934666 34.295022 74.881983 34.42221 74.881983 34.554812 
C 74.881983 34.687413 74.934666 34.814601 75.028429 34.908365 
C 75.122193 35.002128 75.249381 35.054812 75.381983 35.054812 
z
" clip-path="url(#pc1a1d1ee28)" style="stroke: #000000"/>
    <path d="M 114.467865 170.241878 
C 114.917326 170.241878 115.348439 170.063305 115.666256 169.745488 
C 115.984073 169.427671 116.162645 168.996558 116.162645 168.547097 
C 116.162645 168.097636 115.984073 167.666523 115.666256 167.348706 
C 115.348439 167.030889 114.917326 166.852317 114.467865 166.852317 
C 114.018404 166.852317 113.587291 167.030889 113.269474 167.348706 
C 112.951657 167.666523 112.773084 168.097636 112.773084 168.547097 
C 112.773084 168.996558 112.951657 169.427671 113.269474 169.745488 
C 113.587291 170.063305 114.018404 170.241878 114.467865 170.241878 
z
" clip-path="url(#pc1a1d1ee28)" style="stroke: #000000"/>
    <path d="M 102.022431 148.799496 
C 102.521715 148.799496 103.000617 148.601128 103.353664 148.248081 
C 103.706711 147.895034 103.905079 147.416132 103.905079 146.916848 
C 103.905079 146.417564 103.706711 145.938663 103.353664 145.585616 
C 103.000617 145.232569 102.521715 145.034201 102.022431 145.034201 
C 101.523147 145.034201 101.044246 145.232569 100.691199 145.585616 
C 100.338151 145.938663 100.139784 146.417564 100.139784 146.916848 
C 100.139784 147.416132 100.338151 147.895034 100.691199 148.248081 
C 101.044246 148.601128 101.523147 148.799496 102.022431 148.799496 
z
" clip-path="url(#pc1a1d1ee28)" style="stroke: #000000"/>
    <path d="M 98.350769 137.126774 
C 98.850053 137.126774 99.328955 136.928406 99.682002 136.575359 
C 100.035049 136.222312 100.233417 135.743411 100.233417 135.244127 
C 100.233417 134.744843 100.035049 134.265941 99.682002 133.912894 
C 99.328955 133.559847 98.850053 133.361479 98.350769 133.361479 
C 97.851486 133.361479 97.372584 133.559847 97.019537 133.912894 
C 96.66649 134.265941 96.468122 134.744843 96.468122 135.244127 
C 96.468122 135.743411 96.66649 136.222312 97.019537 136.575359 
C 97.372584 136.928406 97.851486 137.126774 98.350769 137.126774 
z
" clip-path="url(#pc1a1d1ee28)" style="stroke: #000000"/>
    <path d="M 94.214171 117.975337 
C 94.627057 117.975337 95.023088 117.811295 95.315043 117.519341 
C 95.606998 117.227386 95.771039 116.831355 95.771039 116.418468 
C 95.771039 116.005582 95.606998 115.609551 95.315043 115.317596 
C 95.023088 115.025641 94.627057 114.8616 94.214171 114.8616 
C 93.801284 114.8616 93.405253 115.025641 93.113298 115.317596 
C 92.821344 115.609551 92.657302 116.005582 92.657302 116.418468 
C 92.657302 116.831355 92.821344 117.227386 93.113298 117.519341 
C 93.405253 117.811295 93.801284 117.975337 94.214171 117.975337 
z
" clip-path="url(#pc1a1d1ee28)" style="stroke: #000000"/>
    <path d="M 81.207001 85.721265 
C 81.339602 85.721265 81.466791 85.668582 81.560554 85.574818 
C 81.654318 85.481055 81.707001 85.353867 81.707001 85.221265 
C 81.707001 85.088663 81.654318 84.961475 81.560554 84.867712 
C 81.466791 84.773948 81.339602 84.721265 81.207001 84.721265 
C 81.074399 84.721265 80.947211 84.773948 80.853447 84.867712 
C 80.759684 84.961475 80.707001 85.088663 80.707001 85.221265 
C 80.707001 85.353867 80.759684 85.481055 80.853447 85.574818 
C 80.947211 85.668582 81.074399 85.721265 81.207001 85.721265 
z
" clip-path="url(#pc1a1d1ee28)" style="stroke: #000000"/>
    <path d="M 77.311818 64.181238 
C 77.81048 64.181238 78.288785 63.983118 78.641392 63.630511 
C 78.993999 63.277904 79.19212 62.799599 79.19212 62.300937 
C 79.19212 61.802275 78.993999 61.32397 78.641392 60.971363 
C 78.288785 60.618756 77.81048 60.420635 77.311818 60.420635 
C 76.813156 60.420635 76.334851 60.618756 75.982244 60.971363 
C 75.629637 61.32397 75.431517 61.802275 75.431517 62.300937 
C 75.431517 62.799599 75.629637 63.277904 75.982244 63.630511 
C 76.334851 63.983118 76.813156 64.181238 77.311818 64.181238 
z
" clip-path="url(#pc1a1d1ee28)" style="stroke: #000000"/>
    <path d="M 102.321707 174.502261 
C 102.781847 174.502261 103.223204 174.319445 103.548572 173.994076 
C 103.873941 173.668708 104.056757 173.227351 104.056757 172.76721 
C 104.056757 172.30707 103.873941 171.865713 103.548572 171.540345 
C 103.223204 171.214976 102.781847 171.03216 102.321707 171.03216 
C 101.861566 171.03216 101.42021 171.214976 101.094841 171.540345 
C 100.769472 171.865713 100.586657 172.30707 100.586657 172.76721 
C 100.586657 173.227351 100.769472 173.668708 101.094841 173.994076 
C 101.42021 174.319445 101.861566 174.502261 102.321707 174.502261 
z
" clip-path="url(#pc1a1d1ee28)" style="stroke: #000000"/>
    <path d="M 94.928142 151.484413 
C 95.427426 151.484413 95.906328 151.286046 96.259375 150.932999 
C 96.612422 150.579952 96.81079 150.10105 96.81079 149.601766 
C 96.81079 149.102482 96.612422 148.62358 96.259375 148.270533 
C 95.906328 147.917486 95.427426 147.719118 94.928142 147.719118 
C 94.428858 147.719118 93.949956 147.917486 93.596909 148.270533 
C 93.243862 148.62358 93.045495 149.102482 93.045495 149.601766 
C 93.045495 150.10105 93.243862 150.579952 93.596909 150.932999 
C 93.949956 151.286046 94.428858 151.484413 94.928142 151.484413 
z
" clip-path="url(#pc1a1d1ee28)" style="stroke: #000000"/>
    <path d="M 82.496118 134.574654 
C 82.73192 134.574654 82.958097 134.480968 83.124834 134.314231 
C 83.291572 134.147493 83.385257 133.921317 83.385257 133.685514 
C 83.385257 133.449711 83.291572 133.223535 83.124834 133.056797 
C 82.958097 132.89006 82.73192 132.796374 82.496118 132.796374 
C 82.260315 132.796374 82.034139 132.89006 81.867401 133.056797 
C 81.700663 133.223535 81.606978 133.449711 81.606978 133.685514 
C 81.606978 133.921317 81.700663 134.147493 81.867401 134.314231 
C 82.034139 134.480968 82.260315 134.574654 82.496118 134.574654 
z
" clip-path="url(#pc1a1d1ee28)" style="stroke: #000000"/>
    <path d="M 86.103442 122.131411 
C 86.696824 122.131411 87.265983 121.895657 87.685568 121.476073 
C 88.105152 121.056488 88.340906 120.487329 88.340906 119.893946 
C 88.340906 119.300564 88.105152 118.731405 87.685568 118.31182 
C 87.265983 117.892236 86.696824 117.656482 86.103442 117.656482 
C 85.510059 117.656482 84.9409 117.892236 84.521315 118.31182 
C 84.101731 118.731405 83.865977 119.300564 83.865977 119.893946 
C 83.865977 120.487329 84.101731 121.056488 84.521315 121.476073 
C 84.9409 121.895657 85.510059 122.131411 86.103442 122.131411 
z
" clip-path="url(#pc1a1d1ee28)" style="stroke: #000000"/>
    <path d="M 77.13128 109.60893 
C 77.724292 109.60893 78.293096 109.373324 78.712419 108.954001 
C 79.131742 108.534678 79.367348 107.965874 79.367348 107.372862 
C 79.367348 106.77985 79.131742 106.211046 78.712419 105.791723 
C 78.293096 105.3724 77.724292 105.136794 77.13128 105.136794 
C 76.538268 105.136794 75.969464 105.3724 75.550141 105.791723 
C 75.130818 106.211046 74.895212 106.77985 74.895212 107.372862 
C 74.895212 107.965874 75.130818 108.534678 75.550141 108.954001 
C 75.969464 109.373324 76.538268 109.60893 77.13128 109.60893 
z
" clip-path="url(#pc1a1d1ee28)" style="stroke: #000000"/>
    <path d="M 77.96754 101.07776 
C 78.560552 101.07776 79.129356 100.842154 79.548679 100.422831 
C 79.968002 100.003508 80.203608 99.434704 80.203608 98.841692 
C 80.203608 98.24868 79.968002 97.679876 79.548679 97.260553 
C 79.129356 96.84123 78.560552 96.605624 77.96754 96.605624 
C 77.374528 96.605624 76.805724 96.84123 76.386401 97.260553 
C 75.967078 97.679876 75.731472 98.24868 75.731472 98.841692 
C 75.731472 99.434704 75.967078 100.003508 76.386401 100.422831 
C 76.805724 100.842154 77.374528 101.07776 77.96754 101.07776 
z
" clip-path="url(#pc1a1d1ee28)" style="stroke: #000000"/>
    <path d="M 72.619707 94.030784 
C 73.197703 94.030784 73.752105 93.801144 74.16081 93.392438 
C 74.569516 92.983733 74.799156 92.429331 74.799156 91.851335 
C 74.799156 91.273338 74.569516 90.718937 74.16081 90.310231 
C 73.752105 89.901526 73.197703 89.671885 72.619707 89.671885 
C 72.04171 89.671885 71.487309 89.901526 71.078603 90.310231 
C 70.669898 90.718937 70.440257 91.273338 70.440257 91.851335 
C 70.440257 92.429331 70.669898 92.983733 71.078603 93.392438 
C 71.487309 93.801144 72.04171 94.030784 72.619707 94.030784 
z
" clip-path="url(#pc1a1d1ee28)" style="stroke: #000000"/>
    <path d="M 73.260253 84.521801 
C 73.853265 84.521801 74.422069 84.286194 74.841392 83.866871 
C 75.260714 83.447548 75.496321 82.878745 75.496321 82.285733 
C 75.496321 81.69272 75.260714 81.123917 74.841392 80.704594 
C 74.422069 80.285271 73.853265 80.049665 73.260253 80.049665 
C 72.667241 80.049665 72.098437 80.285271 71.679114 80.704594 
C 71.259791 81.123917 71.024185 81.69272 71.024185 82.285733 
C 71.024185 82.878745 71.259791 83.447548 71.679114 83.866871 
C 72.098437 84.286194 72.667241 84.521801 73.260253 84.521801 
z
" clip-path="url(#pc1a1d1ee28)" style="stroke: #000000"/>
    <path d="M 63.982717 58.79855 
C 64.481379 58.79855 64.959684 58.600429 65.312291 58.247822 
C 65.664899 57.895215 65.863019 57.41691 65.863019 56.918248 
C 65.863019 56.419586 65.664899 55.941281 65.312291 55.588674 
C 64.959684 55.236067 64.481379 55.037947 63.982717 55.037947 
C 63.484056 55.037947 63.005751 55.236067 62.653143 55.588674 
C 62.300536 55.941281 62.102416 56.419586 62.102416 56.918248 
C 62.102416 57.41691 62.300536 57.895215 62.653143 58.247822 
C 63.005751 58.600429 63.484056 58.79855 63.982717 58.79855 
z
" clip-path="url(#pc1a1d1ee28)" style="stroke: #000000"/>
    <path d="M 75.851835 132.474787 
C 75.984436 132.474787 76.111624 132.422104 76.205388 132.32834 
C 76.299151 132.234577 76.351835 132.107388 76.351835 131.974787 
C 76.351835 131.842185 76.299151 131.714997 76.205388 131.621233 
C 76.111624 131.52747 75.984436 131.474787 75.851835 131.474787 
C 75.719233 131.474787 75.592045 131.52747 75.498281 131.621233 
C 75.404518 131.714997 75.351835 131.842185 75.351835 131.974787 
C 75.351835 132.107388 75.404518 132.234577 75.498281 132.32834 
C 75.592045 132.422104 75.719233 132.474787 75.851835 132.474787 
z
" clip-path="url(#pc1a1d1ee28)" style="stroke: #000000"/>
    <path d="M 61.245077 97.248545 
C 61.798768 97.248545 62.329855 97.028561 62.721373 96.637043 
C 63.112891 96.245525 63.332875 95.714437 63.332875 95.160747 
C 63.332875 94.607057 63.112891 94.075969 62.721373 93.684451 
C 62.329855 93.292933 61.798768 93.072949 61.245077 93.072949 
C 60.691387 93.072949 60.1603 93.292933 59.768781 93.684451 
C 59.377263 94.075969 59.15728 94.607057 59.15728 95.160747 
C 59.15728 95.714437 59.377263 96.245525 59.768781 96.637043 
C 60.1603 97.028561 60.691387 97.248545 61.245077 97.248545 
z
" clip-path="url(#pc1a1d1ee28)" style="stroke: #000000"/>
    <path d="M 60.161563 87.166913 
C 60.754576 87.166913 61.323379 86.931307 61.742702 86.511984 
C 62.162025 86.092661 62.397631 85.523857 62.397631 84.930845 
C 62.397631 84.337833 62.162025 83.769029 61.742702 83.349706 
C 61.323379 82.930383 60.754576 82.694777 60.161563 82.694777 
C 59.568551 82.694777 58.999748 82.930383 58.580425 83.349706 
C 58.161102 83.769029 57.925496 84.337833 57.925496 84.930845 
C 57.925496 85.523857 58.161102 86.092661 58.580425 86.511984 
C 58.999748 86.931307 59.568551 87.166913 60.161563 87.166913 
z
" clip-path="url(#pc1a1d1ee28)" style="stroke: #000000"/>
    <path d="M 67.213407 139.235099 
C 67.806419 139.235099 68.375223 138.999493 68.794546 138.58017 
C 69.213869 138.160847 69.449475 137.592044 69.449475 136.999031 
C 69.449475 136.406019 69.213869 135.837216 68.794546 135.417893 
C 68.375223 134.99857 67.806419 134.762963 67.213407 134.762963 
C 66.620395 134.762963 66.051591 134.99857 65.632268 135.417893 
C 65.212945 135.837216 64.977339 136.406019 64.977339 136.999031 
C 64.977339 137.592044 65.212945 138.160847 65.632268 138.58017 
C 66.051591 138.999493 66.620395 139.235099 67.213407 139.235099 
z
" clip-path="url(#pc1a1d1ee28)" style="stroke: #000000"/>
    <path d="M 60.087019 131.857077 
C 60.680031 131.857077 61.248835 131.621471 61.668158 131.202148 
C 62.087481 130.782825 62.323087 130.214021 62.323087 129.621009 
C 62.323087 129.027997 62.087481 128.459193 61.668158 128.03987 
C 61.248835 127.620547 60.680031 127.384941 60.087019 127.384941 
C 59.494007 127.384941 58.925203 127.620547 58.50588 128.03987 
C 58.086557 128.459193 57.850951 129.027997 57.850951 129.621009 
C 57.850951 130.214021 58.086557 130.782825 58.50588 131.202148 
C 58.925203 131.621471 59.494007 131.857077 60.087019 131.857077 
z
" clip-path="url(#pc1a1d1ee28)" style="stroke: #000000"/>
    <path d="M 48.64347 94.851368 
C 49.123679 94.851368 49.584285 94.660579 49.923845 94.321019 
C 50.263404 93.98146 50.454193 93.520854 50.454193 93.040645 
C 50.454193 92.560435 50.263404 92.099829 49.923845 91.76027 
C 49.584285 91.42071 49.123679 91.229921 48.64347 91.229921 
C 48.163261 91.229921 47.702655 91.42071 47.363095 91.76027 
C 47.023536 92.099829 46.832747 92.560435 46.832747 93.040645 
C 46.832747 93.520854 47.023536 93.98146 47.363095 94.321019 
C 47.702655 94.660579 48.163261 94.851368 48.64347 94.851368 
z
" clip-path="url(#pc1a1d1ee28)" style="stroke: #000000"/>
    <path d="M 47.004396 87.982242 
C 47.505532 87.982242 47.986211 87.783139 48.340568 87.428782 
C 48.694925 87.074425 48.894029 86.593746 48.894029 86.092609 
C 48.894029 85.591472 48.694925 85.110794 48.340568 84.756437 
C 47.986211 84.402079 47.505532 84.202976 47.004396 84.202976 
C 46.503259 84.202976 46.02258 84.402079 45.668223 84.756437 
C 45.313866 85.110794 45.114762 85.591472 45.114762 86.092609 
C 45.114762 86.593746 45.313866 87.074425 45.668223 87.428782 
C 46.02258 87.783139 46.503259 87.982242 47.004396 87.982242 
z
" clip-path="url(#pc1a1d1ee28)" style="stroke: #000000"/>
    <path d="M 44.970759 120.686171 
C 45.546339 120.686171 46.098422 120.457491 46.505418 120.050494 
C 46.912415 119.643498 47.141095 119.091415 47.141095 118.515835 
C 47.141095 117.940255 46.912415 117.388171 46.505418 116.981175 
C 46.098422 116.574178 45.546339 116.345498 44.970759 116.345498 
C 44.395179 116.345498 43.843095 116.574178 43.436099 116.981175 
C 43.029102 117.388171 42.800422 117.940255 42.800422 118.515835 
C 42.800422 119.091415 43.029102 119.643498 43.436099 120.050494 
C 43.843095 120.457491 44.395179 120.686171 44.970759 120.686171 
z
" clip-path="url(#pc1a1d1ee28)" style="stroke: #000000"/>
    <path d="M 34.800361 91.659924 
C 35.299023 91.659924 35.777328 91.461804 36.129935 91.109197 
C 36.482542 90.75659 36.680663 90.278285 36.680663 89.779623 
C 36.680663 89.280961 36.482542 88.802656 36.129935 88.450049 
C 35.777328 88.097442 35.299023 87.899321 34.800361 87.899321 
C 34.301699 87.899321 33.823394 88.097442 33.470787 88.450049 
C 33.11818 88.802656 32.92006 89.280961 32.92006 89.779623 
C 32.92006 90.278285 33.11818 90.75659 33.470787 91.109197 
C 33.823394 91.461804 34.301699 91.659924 34.800361 91.659924 
z
" clip-path="url(#pc1a1d1ee28)" style="stroke: #000000"/>
    <path d="M 50.700238 164.308686 
C 51.198276 164.308686 51.675982 164.110814 52.028147 163.758649 
C 52.380313 163.406483 52.578185 162.928777 52.578185 162.43074 
C 52.578185 161.932702 52.380313 161.454996 52.028147 161.102831 
C 51.675982 160.750665 51.198276 160.552793 50.700238 160.552793 
C 50.202201 160.552793 49.724495 160.750665 49.372329 161.102831 
C 49.020164 161.454996 48.822292 161.932702 48.822292 162.43074 
C 48.822292 162.928777 49.020164 163.406483 49.372329 163.758649 
C 49.724495 164.110814 50.202201 164.308686 50.700238 164.308686 
z
" clip-path="url(#pc1a1d1ee28)" style="stroke: #000000"/>
   </g>
   <g id="matplotlib.axis_1">
    <g id="xtick_1">
     <g id="line2d_1">
      <defs>
       <path id="m174e9c0339" d="M 0 0 
L 0 3.5 
" style="stroke: #000000; stroke-width: 0.8"/>
      </defs>
      <g>
       <use xlink:href="#m174e9c0339" x="18" y="189" style="stroke: #000000; stroke-width: 0.8"/>
      </g>
     </g>
     <g id="text_1">
      <!-- −10 -->
      <g transform="translate(7.447656 203.598437)scale(0.1 -0.1)">
       <defs>
        <path id="DejaVuSans-2212" d="M 678 2272 
L 4684 2272 
L 4684 1741 
L 678 1741 
L 678 2272 
z
" transform="scale(0.015625)"/>
        <path id="DejaVuSans-31" d="M 794 531 
L 1825 531 
L 1825 4091 
L 703 3866 
L 703 4441 
L 1819 4666 
L 2450 4666 
L 2450 531 
L 3481 531 
L 3481 0 
L 794 0 
L 794 531 
z
" transform="scale(0.015625)"/>
        <path id="DejaVuSans-30" d="M 2034 4250 
Q 1547 4250 1301 3770 
Q 1056 3291 1056 2328 
Q 1056 1369 1301 889 
Q 1547 409 2034 409 
Q 2525 409 2770 889 
Q 3016 1369 3016 2328 
Q 3016 3291 2770 3770 
Q 2525 4250 2034 4250 
z
M 2034 4750 
Q 2819 4750 3233 4129 
Q 3647 3509 3647 2328 
Q 3647 1150 3233 529 
Q 2819 -91 2034 -91 
Q 1250 -91 836 529 
Q 422 1150 422 2328 
Q 422 3509 836 4129 
Q 1250 4750 2034 4750 
z
" transform="scale(0.015625)"/>
       </defs>
       <use xlink:href="#DejaVuSans-2212"/>
       <use xlink:href="#DejaVuSans-31" x="83.789062"/>
       <use xlink:href="#DejaVuSans-30" x="147.412109"/>
      </g>
     </g>
    </g>
    <g id="xtick_2">
     <g id="line2d_2">
      <g>
       <use xlink:href="#m174e9c0339" x="73.8" y="189" style="stroke: #000000; stroke-width: 0.8"/>
      </g>
     </g>
     <g id="text_2">
      <!-- 0 -->
      <g transform="translate(70.61875 203.598437)scale(0.1 -0.1)">
       <use xlink:href="#DejaVuSans-30"/>
      </g>
     </g>
    </g>
    <g id="xtick_3">
     <g id="line2d_3">
      <g>
       <use xlink:href="#m174e9c0339" x="129.6" y="189" style="stroke: #000000; stroke-width: 0.8"/>
      </g>
     </g>
     <g id="text_3">
      <!-- 10 -->
      <g transform="translate(123.2375 203.598437)scale(0.1 -0.1)">
       <use xlink:href="#DejaVuSans-31"/>
       <use xlink:href="#DejaVuSans-30" x="63.623047"/>
      </g>
     </g>
    </g>
   </g>
   <g id="matplotlib.axis_2">
    <g id="ytick_1">
     <g id="line2d_4">
      <defs>
       <path id="m8d1a3e9231" d="M 0 0 
L -3.5 0 
" style="stroke: #000000; stroke-width: 0.8"/>
      </defs>
      <g>
       <use xlink:href="#m8d1a3e9231" x="18" y="189" style="stroke: #000000; stroke-width: 0.8"/>
      </g>
     </g>
     <g id="text_4">
      <!-- −15 -->
      <g transform="translate(-10.104688 192.799219)scale(0.1 -0.1)">
       <defs>
        <path id="DejaVuSans-35" d="M 691 4666 
L 3169 4666 
L 3169 4134 
L 1269 4134 
L 1269 2991 
Q 1406 3038 1543 3061 
Q 1681 3084 1819 3084 
Q 2600 3084 3056 2656 
Q 3513 2228 3513 1497 
Q 3513 744 3044 326 
Q 2575 -91 1722 -91 
Q 1428 -91 1123 -41 
Q 819 9 494 109 
L 494 744 
Q 775 591 1075 516 
Q 1375 441 1709 441 
Q 2250 441 2565 725 
Q 2881 1009 2881 1497 
Q 2881 1984 2565 2268 
Q 2250 2553 1709 2553 
Q 1456 2553 1204 2497 
Q 953 2441 691 2322 
L 691 4666 
z
" transform="scale(0.015625)"/>
       </defs>
       <use xlink:href="#DejaVuSans-2212"/>
       <use xlink:href="#DejaVuSans-31" x="83.789062"/>
       <use xlink:href="#DejaVuSans-35" x="147.412109"/>
      </g>
     </g>
    </g>
    <g id="ytick_2">
     <g id="line2d_5">
      <g>
       <use xlink:href="#m8d1a3e9231" x="18" y="161.82" style="stroke: #000000; stroke-width: 0.8"/>
      </g>
     </g>
     <g id="text_5">
      <!-- −10 -->
      <g transform="translate(-10.104688 165.619219)scale(0.1 -0.1)">
       <use xlink:href="#DejaVuSans-2212"/>
       <use xlink:href="#DejaVuSans-31" x="83.789062"/>
       <use xlink:href="#DejaVuSans-30" x="147.412109"/>
      </g>
     </g>
    </g>
    <g id="ytick_3">
     <g id="line2d_6">
      <g>
       <use xlink:href="#m8d1a3e9231" x="18" y="134.64" style="stroke: #000000; stroke-width: 0.8"/>
      </g>
     </g>
     <g id="text_6">
      <!-- −5 -->
      <g transform="translate(-3.742188 138.439219)scale(0.1 -0.1)">
       <use xlink:href="#DejaVuSans-2212"/>
       <use xlink:href="#DejaVuSans-35" x="83.789062"/>
      </g>
     </g>
    </g>
    <g id="ytick_4">
     <g id="line2d_7">
      <g>
       <use xlink:href="#m8d1a3e9231" x="18" y="107.46" style="stroke: #000000; stroke-width: 0.8"/>
      </g>
     </g>
     <g id="text_7">
      <!-- 0 -->
      <g transform="translate(4.6375 111.259219)scale(0.1 -0.1)">
       <use xlink:href="#DejaVuSans-30"/>
      </g>
     </g>
    </g>
    <g id="ytick_5">
     <g id="line2d_8">
      <g>
       <use xlink:href="#m8d1a3e9231" x="18" y="80.28" style="stroke: #000000; stroke-width: 0.8"/>
      </g>
     </g>
     <g id="text_8">
      <!-- 5 -->
      <g transform="translate(4.6375 84.079219)scale(0.1 -0.1)">
       <use xlink:href="#DejaVuSans-35"/>
      </g>
     </g>
    </g>
    <g id="ytick_6">
     <g id="line2d_9">
      <g>
       <use xlink:href="#m8d1a3e9231" x="18" y="53.1" style="stroke: #000000; stroke-width: 0.8"/>
      </g>
     </g>
     <g id="text_9">
      <!-- 10 -->
      <g transform="translate(-1.725 56.899219)scale(0.1 -0.1)">
       <use xlink:href="#DejaVuSans-31"/>
       <use xlink:href="#DejaVuSans-30" x="63.623047"/>
      </g>
     </g>
    </g>
    <g id="ytick_7">
     <g id="line2d_10">
      <g>
       <use xlink:href="#m8d1a3e9231" x="18" y="25.92" style="stroke: #000000; stroke-width: 0.8"/>
      </g>
     </g>
     <g id="text_10">
      <!-- 15 -->
      <g transform="translate(-1.725 29.719219)scale(0.1 -0.1)">
       <use xlink:href="#DejaVuSans-31"/>
       <use xlink:href="#DejaVuSans-35" x="63.623047"/>
      </g>
     </g>
    </g>
   </g>
   <g id="patch_3">
    <path d="M 18 189 
L 18 25.92 
" style="fill: none; stroke: #000000; stroke-width: 0.8; stroke-linejoin: miter; stroke-linecap: square"/>
   </g>
   <g id="patch_4">
    <path d="M 129.6 189 
L 129.6 25.92 
" style="fill: none; stroke: #000000; stroke-width: 0.8; stroke-linejoin: miter; stroke-linecap: square"/>
   </g>
   <g id="patch_5">
    <path d="M 18 189 
L 129.6 189 
" style="fill: none; stroke: #000000; stroke-width: 0.8; stroke-linejoin: miter; stroke-linecap: square"/>
   </g>
   <g id="patch_6">
    <path d="M 18 25.92 
L 129.6 25.92 
" style="fill: none; stroke: #000000; stroke-width: 0.8; stroke-linejoin: miter; stroke-linecap: square"/>
   </g>
  </g>
 </g>
 <defs>
  <clipPath id="pc1a1d1ee28">
   <rect x="18" y="25.92" width="111.6" height="163.08"/>
  </clipPath>
 </defs>
</svg>
