<?xml version="1.0" encoding="utf-8" standalone="no"?>
<!DOCTYPE svg PUBLIC "-//W3C//DTD SVG 1.1//EN"
  "http://www.w3.org/Graphics/SVG/1.1/DTD/svg11.dtd">
<svg xmlns:xlink="http://www.w3.org/1999/xlink" width="144pt" height="216pt" viewBox="0 0 144 216" xmlns="http://www.w3.org/2000/svg" version="1.1">
 <metadata>
  <rdf:RDF xmlns:dc="http://purl.org/dc/elements/1.1/" xmlns:cc="http://creativecommons.org/ns#" xmlns:rdf="http://www.w3.org/1999/02/22-rdf-syntax-ns#">
   <cc:Work>
    <dc:type rdf:resource="http://purl.org/dc/dcmitype/StillImage"/>
    <dc:date>2022-06-23T14:45:43.855474</dc:date>
    <dc:format>image/svg+xml</dc:format>
    <dc:creator>
     <cc:Agent>
      <dc:title>Matplotlib v3.5.1, https://matplotlib.org/</dc:title>
     </cc:Agent>
    </dc:creator>
   </cc:Work>
  </rdf:RDF>
 </metadata>
 <defs>
  <style type="text/css">*{stroke-linejoin: round; stroke-linecap: butt}</style>
 </defs>
 <g id="figure_1">
  <g id="patch_1">
   <path d="M 0 216 
L 144 216 
L 144 0 
L 0 0 
L 0 216 
z
" style="fill: none"/>
  </g>
  <g id="axes_1">
   <g id="patch_2">
    <path d="M 18 189 
L 129.6 189 
L 129.6 25.92 
L 18 25.92 
z
" style="fill: #ffffff"/>
   </g>
   <g id="PathCollection_1">
    <defs>
     <path id="m3028887007" d="M 0 2.738613 
C 0.726289 2.738613 1.422928 2.450055 1.936492 1.936492 
C 2.450055 1.422928 2.738613 0.726289 2.738613 0 
C 2.738613 -0.726289 2.450055 -1.422928 1.936492 -1.936492 
C 1.422928 -2.450055 0.726289 -2.738613 0 -2.738613 
C -0.726289 -2.738613 -1.422928 -2.450055 -1.936492 -1.936492 
C -2.450055 -1.422928 -2.738613 -0.726289 -2.738613 0 
C -2.738613 0.726289 -2.450055 1.422928 -1.936492 1.936492 
C -1.422928 2.450055 -0.726289 2.738613 0 2.738613 
z
" style="stroke: #ff0000; stroke-width: 1.75"/>
    </defs>
    <g clip-path="url(#p6029657d96)">
     <use xlink:href="#m3028887007" x="66.825" y="83.92143" style="fill: #ff0000; stroke: #ff0000; stroke-width: 1.75"/>
     <use xlink:href="#m3028887007" x="87.75" y="95.690715" style="fill: #ff0000; stroke: #ff0000; stroke-width: 1.75"/>
     <use xlink:href="#m3028887007" x="66.825" y="107.46" style="fill: #ff0000; stroke: #ff0000; stroke-width: 1.75"/>
     <use xlink:href="#m3028887007" x="73.8" y="119.229285" style="fill: #ff0000; stroke: #ff0000; stroke-width: 1.75"/>
     <use xlink:href="#m3028887007" x="87.75" y="119.229285" style="fill: #ff0000; stroke: #ff0000; stroke-width: 1.75"/>
     <use xlink:href="#m3028887007" x="66.825" y="130.99857" style="fill: #ff0000; stroke: #ff0000; stroke-width: 1.75"/>
     <use xlink:href="#m3028887007" x="80.775" y="130.99857" style="fill: #ff0000; stroke: #ff0000; stroke-width: 1.75"/>
    </g>
   </g>
   <g id="PathCollection_2">
    <defs>
     <path id="C0_0_1783a3d062" d="M 0 2.738613 
C 0.726289 2.738613 1.422928 2.450055 1.936492 1.936492 
C 2.450055 1.422928 2.738613 0.726289 2.738613 -0 
C 2.738613 -0.726289 2.450055 -1.422928 1.936492 -1.936492 
C 1.422928 -2.450055 0.726289 -2.738613 0 -2.738613 
C -0.726289 -2.738613 -1.422928 -2.450055 -1.936492 -1.936492 
C -2.450055 -1.422928 -2.738613 -0.726289 -2.738613 0 
C -2.738613 0.726289 -2.450055 1.422928 -1.936492 1.936492 
C -1.422928 2.450055 -0.726289 2.738613 0 2.738613 
z
"/>
    </defs>
    <g clip-path="url(#p6029657d96)">
     <use xlink:href="#C0_0_1783a3d062" x="80.775" y="83.92143" style="fill: none; stroke: #ff0000; stroke-width: 1.75"/>
    </g>
    <g clip-path="url(#p6029657d96)">
     <use xlink:href="#C0_0_1783a3d062" x="59.85" y="95.690715" style="fill: none; stroke: #ff0000; stroke-width: 1.75"/>
    </g>
    <g clip-path="url(#p6029657d96)">
     <use xlink:href="#C0_0_1783a3d062" x="73.8" y="95.690715" style="fill: none; stroke: #ff0000; stroke-width: 1.75"/>
    </g>
    <g clip-path="url(#p6029657d96)">
     <use xlink:href="#C0_0_1783a3d062" x="52.875" y="107.46" style="fill: none; stroke: #ff0000; stroke-width: 1.75"/>
    </g>
    <g clip-path="url(#p6029657d96)">
     <use xlink:href="#C0_0_1783a3d062" x="80.775" y="107.46" style="fill: none; stroke: #ff0000; stroke-width: 1.75"/>
    </g>
    <g clip-path="url(#p6029657d96)">
     <use xlink:href="#C0_0_1783a3d062" x="94.725" y="107.46" style="fill: none; stroke: #ff0000; stroke-width: 1.75"/>
    </g>
    <g clip-path="url(#p6029657d96)">
     <use xlink:href="#C0_0_1783a3d062" x="59.85" y="119.229285" style="fill: none; stroke: #ff0000; stroke-width: 1.75"/>
    </g>
   </g>
   <g id="PathCollection_3">
    <path d="M 113.538817 101.569107 
C 114.131458 101.569107 114.699906 101.333648 115.118966 100.914587 
C 115.538027 100.495527 115.773486 99.927079 115.773486 99.334438 
C 115.773486 98.741797 115.538027 98.173349 115.118966 97.754288 
C 114.699906 97.335228 114.131458 97.099769 113.538817 97.099769 
C 112.946176 97.099769 112.377728 97.335228 111.958667 97.754288 
C 111.539606 98.173349 111.304148 98.741797 111.304148 99.334438 
C 111.304148 99.927079 111.539606 100.495527 111.958667 100.914587 
C 112.377728 101.333648 112.946176 101.569107 113.538817 101.569107 
z
" clip-path="url(#p6029657d96)" style="stroke: #000000"/>
    <path d="M 109.849647 92.073819 
C 110.443029 92.073819 111.012188 91.838066 111.431773 91.418481 
C 111.851358 90.998896 112.087111 90.429737 112.087111 89.836355 
C 112.087111 89.242972 111.851358 88.673813 111.431773 88.254229 
C 111.012188 87.834644 110.443029 87.598891 109.849647 87.598891 
C 109.256265 87.598891 108.687106 87.834644 108.267521 88.254229 
C 107.847936 88.673813 107.612183 89.242972 107.612183 89.836355 
C 107.612183 90.429737 107.847936 90.998896 108.267521 91.418481 
C 108.687106 91.838066 109.256265 92.073819 109.849647 92.073819 
z
" clip-path="url(#p6029657d96)" style="stroke: #000000"/>
    <path d="M 104.703081 78.587802 
C 105.277033 78.587802 105.827554 78.359769 106.233399 77.953924 
C 106.639244 77.548078 106.867278 76.997557 106.867278 76.423605 
C 106.867278 75.849654 106.639244 75.299132 106.233399 74.893287 
C 105.827554 74.487442 105.277033 74.259408 104.703081 74.259408 
C 104.129129 74.259408 103.578608 74.487442 103.172763 74.893287 
C 102.766917 75.299132 102.538884 75.849654 102.538884 76.423605 
C 102.538884 76.997557 102.766917 77.548078 103.172763 77.953924 
C 103.578608 78.359769 104.129129 78.587802 104.703081 78.587802 
z
" clip-path="url(#p6029657d96)" style="stroke: #000000"/>
    <path d="M 100.135534 73.332215 
C 100.728546 73.332215 101.29735 73.096609 101.716673 72.677286 
C 102.135996 72.257963 102.371602 71.689159 102.371602 71.096147 
C 102.371602 70.503135 102.135996 69.934331 101.716673 69.515008 
C 101.29735 69.095685 100.728546 68.860079 100.135534 68.860079 
C 99.542522 68.860079 98.973718 69.095685 98.554395 69.515008 
C 98.135072 69.934331 97.899466 70.503135 97.899466 71.096147 
C 97.899466 71.689159 98.135072 72.257963 98.554395 72.677286 
C 98.973718 73.096609 99.542522 73.332215 100.135534 73.332215 
z
" clip-path="url(#p6029657d96)" style="stroke: #000000"/>
    <path d="M 94.700942 61.388052 
C 95.293954 61.388052 95.862757 61.152445 96.28208 60.733122 
C 96.701403 60.3138 96.93701 59.744996 96.93701 59.151984 
C 96.93701 58.558971 96.701403 57.990168 96.28208 57.570845 
C 95.862757 57.151522 95.293954 56.915916 94.700942 56.915916 
C 94.107929 56.915916 93.539126 57.151522 93.119803 57.570845 
C 92.70048 57.990168 92.464874 58.558971 92.464874 59.151984 
C 92.464874 59.744996 92.70048 60.3138 93.119803 60.733122 
C 93.539126 61.152445 94.107929 61.388052 94.700942 61.388052 
z
" clip-path="url(#p6029657d96)" style="stroke: #000000"/>
    <path d="M 90.288723 45.41927 
C 90.820676 45.41927 91.330914 45.207922 91.707062 44.831775 
C 92.083209 44.455627 92.294557 43.945389 92.294557 43.413436 
C 92.294557 42.881483 92.083209 42.371245 91.707062 41.995097 
C 91.330914 41.618949 90.820676 41.407602 90.288723 41.407602 
C 89.75677 41.407602 89.246532 41.618949 88.870384 41.995097 
C 88.494236 42.371245 88.282889 42.881483 88.282889 43.413436 
C 88.282889 43.945389 88.494236 44.455627 88.870384 44.831775 
C 89.246532 45.207922 89.75677 45.41927 90.288723 45.41927 
z
" clip-path="url(#p6029657d96)" style="stroke: #000000"/>
    <path d="M 104.552852 116.27279 
C 105.146234 116.27279 105.715393 116.037036 106.134978 115.617452 
C 106.554563 115.197867 106.790316 114.628708 106.790316 114.035325 
C 106.790316 113.441943 106.554563 112.872784 106.134978 112.453199 
C 105.715393 112.033615 105.146234 111.797861 104.552852 111.797861 
C 103.95947 111.797861 103.390311 112.033615 102.970726 112.453199 
C 102.551141 112.872784 102.315388 113.441943 102.315388 114.035325 
C 102.315388 114.628708 102.551141 115.197867 102.970726 115.617452 
C 103.390311 116.037036 103.95947 116.27279 104.552852 116.27279 
z
" clip-path="url(#p6029657d96)" style="stroke: #000000"/>
    <path d="M 100.165759 102.064926 
C 100.476092 102.064926 100.773757 101.941629 100.993196 101.72219 
C 101.212635 101.502751 101.335932 101.205086 101.335932 100.894752 
C 101.335932 100.584418 101.212635 100.286753 100.993196 100.067314 
C 100.773757 99.847875 100.476092 99.724578 100.165759 99.724578 
C 99.855425 99.724578 99.55776 99.847875 99.338321 100.067314 
C 99.118882 100.286753 98.995585 100.584418 98.995585 100.894752 
C 98.995585 101.205086 99.118882 101.502751 99.338321 101.72219 
C 99.55776 101.941629 99.855425 102.064926 100.165759 102.064926 
z
" clip-path="url(#p6029657d96)" style="stroke: #000000"/>
    <path d="M 95.980206 85.822977 
C 96.573589 85.822977 97.142748 85.587224 97.562333 85.167639 
C 97.981917 84.748055 98.217671 84.178896 98.217671 83.585513 
C 98.217671 82.992131 97.981917 82.422972 97.562333 82.003387 
C 97.142748 81.583802 96.573589 81.348049 95.980206 81.348049 
C 95.386824 81.348049 94.817665 81.583802 94.39808 82.003387 
C 93.978496 82.422972 93.742742 82.992131 93.742742 83.585513 
C 93.742742 84.178896 93.978496 84.748055 94.39808 85.167639 
C 94.817665 85.587224 95.386824 85.822977 95.980206 85.822977 
z
" clip-path="url(#p6029657d96)" style="stroke: #000000"/>
    <path d="M 84.585762 63.995244 
C 85.115649 63.995244 85.623905 63.784717 85.998592 63.41003 
C 86.373279 63.035343 86.583806 62.527087 86.583806 61.9972 
C 86.583806 61.467312 86.373279 60.959056 85.998592 60.584369 
C 85.623905 60.209682 85.115649 59.999156 84.585762 59.999156 
C 84.055874 59.999156 83.547618 60.209682 83.172931 60.584369 
C 82.798244 60.959056 82.587718 61.467312 82.587718 61.9972 
C 82.587718 62.527087 82.798244 63.035343 83.172931 63.41003 
C 83.547618 63.784717 84.055874 63.995244 84.585762 63.995244 
z
" clip-path="url(#p6029657d96)" style="stroke: #000000"/>
    <path d="M 78.786689 52.345719 
C 79.379702 52.345719 79.948505 52.110113 80.367828 51.69079 
C 80.787151 51.271467 81.022757 50.702663 81.022757 50.109651 
C 81.022757 49.516639 80.787151 48.947835 80.367828 48.528512 
C 79.948505 48.109189 79.379702 47.873583 78.786689 47.873583 
C 78.193677 47.873583 77.624873 48.109189 77.205551 48.528512 
C 76.786228 48.947835 76.550621 49.516639 76.550621 50.109651 
C 76.550621 50.702663 76.786228 51.271467 77.205551 51.69079 
C 77.624873 52.110113 78.193677 52.345719 78.786689 52.345719 
z
" clip-path="url(#p6029657d96)" style="stroke: #000000"/>
    <path d="M 75.381983 36.437459 
C 75.881267 36.437459 76.360168 36.239091 76.713216 35.886044 
C 77.066263 35.532997 77.26463 35.054095 77.26463 34.554812 
C 77.26463 34.055528 77.066263 33.576626 76.713216 33.223579 
C 76.360168 32.870532 75.881267 32.672164 75.381983 32.672164 
C 74.882699 32.672164 74.403797 32.870532 74.05075 33.223579 
C 73.697703 33.576626 73.499335 34.055528 73.499335 34.554812 
C 73.499335 35.054095 73.697703 35.532997 74.05075 35.886044 
C 74.403797 36.239091 74.882699 36.437459 75.381983 36.437459 
z
" clip-path="url(#p6029657d96)" style="stroke: #000000"/>
    <path d="M 114.467865 170.463927 
C 114.976214 170.463927 115.463811 170.261957 115.823268 169.9025 
C 116.182725 169.543043 116.384694 169.055446 116.384694 168.547097 
C 116.384694 168.038748 116.182725 167.551151 115.823268 167.191694 
C 115.463811 166.832237 114.976214 166.630268 114.467865 166.630268 
C 113.959516 166.630268 113.471919 166.832237 113.112462 167.191694 
C 112.753005 167.551151 112.551035 168.038748 112.551035 168.547097 
C 112.551035 169.055446 112.753005 169.543043 113.112462 169.9025 
C 113.471919 170.261957 113.959516 170.463927 114.467865 170.463927 
z
" clip-path="url(#p6029657d96)" style="stroke: #000000"/>
    <path d="M 105.660472 157.048198 
C 106.1133 157.048198 106.547642 156.868288 106.86784 156.54809 
C 107.188038 156.227892 107.367948 155.79355 107.367948 155.340722 
C 107.367948 154.887894 107.188038 154.453552 106.86784 154.133354 
C 106.547642 153.813156 106.1133 153.633245 105.660472 153.633245 
C 105.207644 153.633245 104.773301 153.813156 104.453103 154.133354 
C 104.132906 154.453552 103.952995 154.887894 103.952995 155.340722 
C 103.952995 155.79355 104.132906 156.227892 104.453103 156.54809 
C 104.773301 156.868288 105.207644 157.048198 105.660472 157.048198 
z
" clip-path="url(#p6029657d96)" style="stroke: #000000"/>
    <path d="M 102.022431 149.152916 
C 102.615444 149.152916 103.184247 148.91731 103.60357 148.497987 
C 104.022893 148.078664 104.258499 147.509861 104.258499 146.916848 
C 104.258499 146.323836 104.022893 145.755033 103.60357 145.33571 
C 103.184247 144.916387 102.615444 144.68078 102.022431 144.68078 
C 101.429419 144.68078 100.860615 144.916387 100.441293 145.33571 
C 100.02197 145.755033 99.786363 146.323836 99.786363 146.916848 
C 99.786363 147.509861 100.02197 148.078664 100.441293 148.497987 
C 100.860615 148.91731 101.429419 149.152916 102.022431 149.152916 
z
" clip-path="url(#p6029657d96)" style="stroke: #000000"/>
    <path d="M 98.350769 137.481591 
C 98.944152 137.481591 99.513311 137.245837 99.932896 136.826253 
C 100.35248 136.406668 100.588234 135.837509 100.588234 135.244127 
C 100.588234 134.650744 100.35248 134.081585 99.932896 133.662 
C 99.513311 133.242416 98.944152 133.006662 98.350769 133.006662 
C 97.757387 133.006662 97.188228 133.242416 96.768643 133.662 
C 96.349059 134.081585 96.113305 134.650744 96.113305 135.244127 
C 96.113305 135.837509 96.349059 136.406668 96.768643 136.826253 
C 97.188228 137.245837 97.757387 137.481591 98.350769 137.481591 
z
" clip-path="url(#p6029657d96)" style="stroke: #000000"/>
    <path d="M 94.214171 118.439615 
C 94.750185 118.439615 95.264318 118.226654 95.643337 117.847635 
C 96.022357 117.468615 96.235317 116.954483 96.235317 116.418468 
C 96.235317 115.882454 96.022357 115.368321 95.643337 114.989302 
C 95.264318 114.610282 94.750185 114.397322 94.214171 114.397322 
C 93.678156 114.397322 93.164024 114.610282 92.785004 114.989302 
C 92.405985 115.368321 92.193024 115.882454 92.193024 116.418468 
C 92.193024 116.954483 92.405985 117.468615 92.785004 117.847635 
C 93.164024 118.226654 93.678156 118.439615 94.214171 118.439615 
z
" clip-path="url(#p6029657d96)" style="stroke: #000000"/>
    <path d="M 77.311818 64.537005 
C 77.90483 64.537005 78.473634 64.301399 78.892957 63.882076 
C 79.31228 63.462753 79.547886 62.893949 79.547886 62.300937 
C 79.547886 61.707925 79.31228 61.139121 78.892957 60.719798 
C 78.473634 60.300475 77.90483 60.064869 77.311818 60.064869 
C 76.718806 60.064869 76.150002 60.300475 75.730679 60.719798 
C 75.311356 61.139121 75.07575 61.707925 75.07575 62.300937 
C 75.07575 62.893949 75.311356 63.462753 75.730679 63.882076 
C 76.150002 64.301399 76.718806 64.537005 77.311818 64.537005 
z
" clip-path="url(#p6029657d96)" style="stroke: #000000"/>
    <path d="M 63.733553 46.397593 
C 63.975042 46.397593 64.206672 46.301649 64.37743 46.130891 
C 64.548189 45.960132 64.644133 45.728502 64.644133 45.487013 
C 64.644133 45.245525 64.548189 45.013894 64.37743 44.843136 
C 64.206672 44.672378 63.975042 44.576433 63.733553 44.576433 
C 63.492064 44.576433 63.260434 44.672378 63.089676 44.843136 
C 62.918917 45.013894 62.822973 45.245525 62.822973 45.487013 
C 62.822973 45.728502 62.918917 45.960132 63.089676 46.130891 
C 63.260434 46.301649 63.492064 46.397593 63.733553 46.397593 
z
" clip-path="url(#p6029657d96)" style="stroke: #000000"/>
    <path d="M 61.452651 32.669867 
C 61.951935 32.669867 62.430837 32.4715 62.783884 32.118453 
C 63.136931 31.765405 63.335298 31.286504 63.335298 30.78722 
C 63.335298 30.287936 63.136931 29.809034 62.783884 29.455987 
C 62.430837 29.10294 61.951935 28.904572 61.452651 28.904572 
C 60.953367 28.904572 60.474465 29.10294 60.121418 29.455987 
C 59.768371 29.809034 59.570003 30.287936 59.570003 30.78722 
C 59.570003 31.286504 59.768371 31.765405 60.121418 32.118453 
C 60.474465 32.4715 60.953367 32.669867 61.452651 32.669867 
z
" clip-path="url(#p6029657d96)" style="stroke: #000000"/>
    <path d="M 102.321707 174.761325 
C 102.850552 174.761325 103.357808 174.551213 103.731759 174.177263 
C 104.105709 173.803312 104.315821 173.296056 104.315821 172.76721 
C 104.315821 172.238365 104.105709 171.731109 103.731759 171.357158 
C 103.357808 170.983208 102.850552 170.773096 102.321707 170.773096 
C 101.792861 170.773096 101.285605 170.983208 100.911655 171.357158 
C 100.537704 171.731109 100.327592 172.238365 100.327592 172.76721 
C 100.327592 173.296056 100.537704 173.803312 100.911655 174.177263 
C 101.285605 174.551213 101.792861 174.761325 102.321707 174.761325 
z
" clip-path="url(#p6029657d96)" style="stroke: #000000"/>
    <path d="M 95.943327 162.226068 
C 96.376613 162.226068 96.792211 162.053921 97.098591 161.747542 
C 97.40497 161.441162 97.577117 161.025564 97.577117 160.592278 
C 97.577117 160.158992 97.40497 159.743393 97.098591 159.437014 
C 96.792211 159.130634 96.376613 158.958488 95.943327 158.958488 
C 95.51004 158.958488 95.094442 159.130634 94.788063 159.437014 
C 94.481683 159.743393 94.309537 160.158992 94.309537 160.592278 
C 94.309537 161.025564 94.481683 161.441162 94.788063 161.747542 
C 95.094442 162.053921 95.51004 162.226068 95.943327 162.226068 
z
" clip-path="url(#p6029657d96)" style="stroke: #000000"/>
    <path d="M 94.928142 151.837834 
C 95.521154 151.837834 96.089958 151.602228 96.509281 151.182905 
C 96.928604 150.763582 97.16421 150.194778 97.16421 149.601766 
C 97.16421 149.008754 96.928604 148.43995 96.509281 148.020627 
C 96.089958 147.601304 95.521154 147.365698 94.928142 147.365698 
C 94.33513 147.365698 93.766326 147.601304 93.347003 148.020627 
C 92.92768 148.43995 92.692074 149.008754 92.692074 149.601766 
C 92.692074 150.194778 92.92768 150.763582 93.347003 151.182905 
C 93.766326 151.602228 94.33513 151.837834 94.928142 151.837834 
z
" clip-path="url(#p6029657d96)" style="stroke: #000000"/>
    <path d="M 91.02337 144.110195 
C 91.616382 144.110195 92.185186 143.874588 92.604508 143.455266 
C 93.023831 143.035943 93.259438 142.467139 93.259438 141.874127 
C 93.259438 141.281115 93.023831 140.712311 92.604508 140.292988 
C 92.185186 139.873665 91.616382 139.638059 91.02337 139.638059 
C 90.430357 139.638059 89.861554 139.873665 89.442231 140.292988 
C 89.022908 140.712311 88.787302 141.281115 88.787302 141.874127 
C 88.787302 142.467139 89.022908 143.035943 89.442231 143.455266 
C 89.861554 143.874588 90.430357 144.110195 91.02337 144.110195 
z
" clip-path="url(#p6029657d96)" style="stroke: #000000"/>
    <path d="M 86.103442 122.131411 
C 86.696824 122.131411 87.265983 121.895657 87.685568 121.476073 
C 88.105152 121.056488 88.340906 120.487329 88.340906 119.893946 
C 88.340906 119.300564 88.105152 118.731405 87.685568 118.31182 
C 87.265983 117.892236 86.696824 117.656482 86.103442 117.656482 
C 85.510059 117.656482 84.9409 117.892236 84.521315 118.31182 
C 84.101731 118.731405 83.865977 119.300564 83.865977 119.893946 
C 83.865977 120.487329 84.101731 121.056488 84.521315 121.476073 
C 84.9409 121.895657 85.510059 122.131411 86.103442 122.131411 
z
" clip-path="url(#p6029657d96)" style="stroke: #000000"/>
    <path d="M 77.13128 109.610326 
C 77.724662 109.610326 78.293821 109.374573 78.713406 108.954988 
C 79.132991 108.535403 79.368744 107.966244 79.368744 107.372862 
C 79.368744 106.779479 79.132991 106.21032 78.713406 105.790736 
C 78.293821 105.371151 77.724662 105.135398 77.13128 105.135398 
C 76.537898 105.135398 75.968739 105.371151 75.549154 105.790736 
C 75.129569 106.21032 74.893816 106.779479 74.893816 107.372862 
C 74.893816 107.966244 75.129569 108.535403 75.549154 108.954988 
C 75.968739 109.374573 76.537898 109.610326 77.13128 109.610326 
z
" clip-path="url(#p6029657d96)" style="stroke: #000000"/>
    <path d="M 77.96754 101.079156 
C 78.560922 101.079156 79.130081 100.843403 79.549666 100.423818 
C 79.969251 100.004233 80.205004 99.435074 80.205004 98.841692 
C 80.205004 98.24831 79.969251 97.679151 79.549666 97.259566 
C 79.130081 96.839981 78.560922 96.604228 77.96754 96.604228 
C 77.374157 96.604228 76.804998 96.839981 76.385414 97.259566 
C 75.965829 97.679151 75.730076 98.24831 75.730076 98.841692 
C 75.730076 99.435074 75.965829 100.004233 76.385414 100.423818 
C 76.804998 100.843403 77.374157 101.079156 77.96754 101.079156 
z
" clip-path="url(#p6029657d96)" style="stroke: #000000"/>
    <path d="M 72.619707 93.892984 
C 73.161158 93.892984 73.680507 93.677863 74.063371 93.294999 
C 74.446235 92.912135 74.661356 92.392787 74.661356 91.851335 
C 74.661356 91.309883 74.446235 90.790535 74.063371 90.40767 
C 73.680507 90.024806 73.161158 89.809685 72.619707 89.809685 
C 72.078255 89.809685 71.558907 90.024806 71.176042 90.40767 
C 70.793178 90.790535 70.578057 91.309883 70.578057 91.851335 
C 70.578057 92.392787 70.793178 92.912135 71.176042 93.294999 
C 71.558907 93.677863 72.078255 93.892984 72.619707 93.892984 
z
" clip-path="url(#p6029657d96)" style="stroke: #000000"/>
    <path d="M 73.260253 84.523197 
C 73.853635 84.523197 74.422794 84.287443 74.842379 83.867859 
C 75.261964 83.448274 75.497717 82.879115 75.497717 82.285733 
C 75.497717 81.69235 75.261964 81.123191 74.842379 80.703606 
C 74.422794 80.284022 73.853635 80.048268 73.260253 80.048268 
C 72.66687 80.048268 72.097711 80.284022 71.678127 80.703606 
C 71.258542 81.123191 71.022789 81.69235 71.022789 82.285733 
C 71.022789 82.879115 71.258542 83.448274 71.678127 83.867859 
C 72.097711 84.287443 72.66687 84.523197 73.260253 84.523197 
z
" clip-path="url(#p6029657d96)" style="stroke: #000000"/>
    <path d="M 63.982717 59.154316 
C 64.57573 59.154316 65.144533 58.91871 65.563856 58.499387 
C 65.983179 58.080064 66.218785 57.51126 66.218785 56.918248 
C 66.218785 56.325236 65.983179 55.756432 65.563856 55.337109 
C 65.144533 54.917786 64.57573 54.68218 63.982717 54.68218 
C 63.389705 54.68218 62.820902 54.917786 62.401579 55.337109 
C 61.982256 55.756432 61.746649 56.325236 61.746649 56.918248 
C 61.746649 57.51126 61.982256 58.080064 62.401579 58.499387 
C 62.820902 58.91871 63.389705 59.154316 63.982717 59.154316 
z
" clip-path="url(#p6029657d96)" style="stroke: #000000"/>
    <path d="M 75.851835 133.986404 
C 76.385322 133.986404 76.89703 133.774447 77.274263 133.397215 
C 77.651495 133.019983 77.863452 132.508274 77.863452 131.974787 
C 77.863452 131.4413 77.651495 130.929591 77.274263 130.552359 
C 76.89703 130.175126 76.385322 129.96317 75.851835 129.96317 
C 75.318347 129.96317 74.806639 130.175126 74.429406 130.552359 
C 74.052174 130.929591 73.840217 131.4413 73.840217 131.974787 
C 73.840217 132.508274 74.052174 133.019983 74.429406 133.397215 
C 74.806639 133.774447 75.318347 133.986404 75.851835 133.986404 
z
" clip-path="url(#p6029657d96)" style="stroke: #000000"/>
    <path d="M 61.245077 97.239907 
C 61.796477 97.239907 62.325367 97.020833 62.715265 96.630935 
C 63.105163 96.241036 63.324237 95.712147 63.324237 95.160747 
C 63.324237 94.609348 63.105163 94.080458 62.715265 93.690559 
C 62.325367 93.300661 61.796477 93.081588 61.245077 93.081588 
C 60.693678 93.081588 60.164788 93.300661 59.77489 93.690559 
C 59.384991 94.080458 59.165918 94.609348 59.165918 95.160747 
C 59.165918 95.712147 59.384991 96.241036 59.77489 96.630935 
C 60.164788 97.020833 60.693678 97.239907 61.245077 97.239907 
z
" clip-path="url(#p6029657d96)" style="stroke: #000000"/>
    <path d="M 60.161563 87.168309 
C 60.754946 87.168309 61.324105 86.932556 61.74369 86.512971 
C 62.163274 86.093386 62.399028 85.524227 62.399028 84.930845 
C 62.399028 84.337462 62.163274 83.768304 61.74369 83.348719 
C 61.324105 82.929134 60.754946 82.693381 60.161563 82.693381 
C 59.568181 82.693381 58.999022 82.929134 58.579437 83.348719 
C 58.159853 83.768304 57.924099 84.337462 57.924099 84.930845 
C 57.924099 85.524227 58.159853 86.093386 58.579437 86.512971 
C 58.999022 86.932556 59.568181 87.168309 60.161563 87.168309 
z
" clip-path="url(#p6029657d96)" style="stroke: #000000"/>
    <path d="M 67.213407 139.236496 
C 67.806789 139.236496 68.375948 139.000742 68.795533 138.581158 
C 69.215118 138.161573 69.450871 137.592414 69.450871 136.999031 
C 69.450871 136.405649 69.215118 135.83649 68.795533 135.416905 
C 68.375948 134.997321 67.806789 134.761567 67.213407 134.761567 
C 66.620025 134.761567 66.050866 134.997321 65.631281 135.416905 
C 65.211696 135.83649 64.975943 136.405649 64.975943 136.999031 
C 64.975943 137.592414 65.211696 138.161573 65.631281 138.581158 
C 66.050866 139.000742 66.620025 139.236496 67.213407 139.236496 
z
" clip-path="url(#p6029657d96)" style="stroke: #000000"/>
    <path d="M 60.087019 131.858473 
C 60.680401 131.858473 61.24956 131.62272 61.669145 131.203135 
C 62.08873 130.78355 62.324483 130.214391 62.324483 129.621009 
C 62.324483 129.027626 62.08873 128.458467 61.669145 128.038883 
C 61.24956 127.619298 60.680401 127.383545 60.087019 127.383545 
C 59.493637 127.383545 58.924478 127.619298 58.504893 128.038883 
C 58.085308 128.458467 57.849555 129.027626 57.849555 129.621009 
C 57.849555 130.214391 58.085308 130.78355 58.504893 131.203135 
C 58.924478 131.62272 59.493637 131.858473 60.087019 131.858473 
z
" clip-path="url(#p6029657d96)" style="stroke: #000000"/>
    <path d="M 58.993056 116.459136 
C 59.529071 116.459136 60.043203 116.246176 60.422223 115.867156 
C 60.801242 115.488137 61.014203 114.974004 61.014203 114.43799 
C 61.014203 113.901976 60.801242 113.387843 60.422223 113.008823 
C 60.043203 112.629804 59.529071 112.416843 58.993056 112.416843 
C 58.457042 112.416843 57.942909 112.629804 57.56389 113.008823 
C 57.18487 113.387843 56.97191 113.901976 56.97191 114.43799 
C 56.97191 114.974004 57.18487 115.488137 57.56389 115.867156 
C 57.942909 116.246176 58.457042 116.459136 58.993056 116.459136 
z
" clip-path="url(#p6029657d96)" style="stroke: #000000"/>
    <path d="M 48.64347 95.276713 
C 49.236482 95.276713 49.805286 95.041106 50.224609 94.621783 
C 50.643932 94.20246 50.879538 93.633657 50.879538 93.040645 
C 50.879538 92.447632 50.643932 91.878829 50.224609 91.459506 
C 49.805286 91.040183 49.236482 90.804577 48.64347 90.804577 
C 48.050458 90.804577 47.481654 91.040183 47.062331 91.459506 
C 46.643008 91.878829 46.407402 92.447632 46.407402 93.040645 
C 46.407402 93.633657 46.643008 94.20246 47.062331 94.621783 
C 47.481654 95.041106 48.050458 95.276713 48.64347 95.276713 
z
" clip-path="url(#p6029657d96)" style="stroke: #000000"/>
    <path d="M 47.004396 88.330073 
C 47.597778 88.330073 48.166937 88.09432 48.586522 87.674735 
C 49.006106 87.25515 49.24186 86.685992 49.24186 86.092609 
C 49.24186 85.499227 49.006106 84.930068 48.586522 84.510483 
C 48.166937 84.090898 47.597778 83.855145 47.004396 83.855145 
C 46.411013 83.855145 45.841854 84.090898 45.422269 84.510483 
C 45.002685 84.930068 44.766931 85.499227 44.766931 86.092609 
C 44.766931 86.685992 45.002685 87.25515 45.422269 87.674735 
C 45.841854 88.09432 46.411013 88.330073 47.004396 88.330073 
z
" clip-path="url(#p6029657d96)" style="stroke: #000000"/>
    <path d="M 39.078823 78.204085 
C 39.618317 78.204085 40.135787 77.989742 40.517266 77.608262 
C 40.898746 77.226783 41.113089 76.709313 41.113089 76.169819 
C 41.113089 75.630326 40.898746 75.112856 40.517266 74.731377 
C 40.135787 74.349897 39.618317 74.135554 39.078823 74.135554 
C 38.53933 74.135554 38.02186 74.349897 37.64038 74.731377 
C 37.258901 75.112856 37.044558 75.630326 37.044558 76.169819 
C 37.044558 76.709313 37.258901 77.226783 37.64038 77.608262 
C 38.02186 77.989742 38.53933 78.204085 39.078823 78.204085 
z
" clip-path="url(#p6029657d96)" style="stroke: #000000"/>
    <path d="M 67.306816 172.041399 
C 67.583661 172.041399 67.849205 171.931407 68.044964 171.735648 
C 68.240723 171.539889 68.350715 171.274345 68.350715 170.9975 
C 68.350715 170.720655 68.240723 170.455111 68.044964 170.259352 
C 67.849205 170.063593 67.583661 169.953601 67.306816 169.953601 
C 67.029971 169.953601 66.764427 170.063593 66.568668 170.259352 
C 66.372909 170.455111 66.262917 170.720655 66.262917 170.9975 
C 66.262917 171.274345 66.372909 171.539889 66.568668 171.735648 
C 66.764427 171.931407 67.029971 172.041399 67.306816 172.041399 
z
" clip-path="url(#p6029657d96)" style="stroke: #000000"/>
    <path d="M 56.795638 154.327674 
C 57.348416 154.327674 57.878628 154.108054 58.2695 153.717181 
C 58.660373 153.326308 58.879994 152.796097 58.879994 152.243319 
C 58.879994 151.690542 58.660373 151.16033 58.2695 150.769457 
C 57.878628 150.378585 57.348416 150.158964 56.795638 150.158964 
C 56.242861 150.158964 55.712649 150.378585 55.321777 150.769457 
C 54.930904 151.16033 54.711283 151.690542 54.711283 152.243319 
C 54.711283 152.796097 54.930904 153.326308 55.321777 153.717181 
C 55.712649 154.108054 56.242861 154.327674 56.795638 154.327674 
z
" clip-path="url(#p6029657d96)" style="stroke: #000000"/>
    <path d="M 49.486676 140.430989 
C 50.079688 140.430989 50.648492 140.195383 51.067815 139.77606 
C 51.487138 139.356737 51.722744 138.787933 51.722744 138.194921 
C 51.722744 137.601909 51.487138 137.033105 51.067815 136.613782 
C 50.648492 136.194459 50.079688 135.958853 49.486676 135.958853 
C 48.893664 135.958853 48.32486 136.194459 47.905537 136.613782 
C 47.486214 137.033105 47.250608 137.601909 47.250608 138.194921 
C 47.250608 138.787933 47.486214 139.356737 47.905537 139.77606 
C 48.32486 140.195383 48.893664 140.430989 49.486676 140.430989 
z
" clip-path="url(#p6029657d96)" style="stroke: #000000"/>
    <path d="M 44.970759 120.753299 
C 45.564141 120.753299 46.1333 120.517546 46.552885 120.097961 
C 46.97247 119.678376 47.208223 119.109217 47.208223 118.515835 
C 47.208223 117.922452 46.97247 117.353293 46.552885 116.933709 
C 46.1333 116.514124 45.564141 116.27837 44.970759 116.27837 
C 44.377376 116.27837 43.808217 116.514124 43.388633 116.933709 
C 42.969048 117.353293 42.733294 117.922452 42.733294 118.515835 
C 42.733294 119.109217 42.969048 119.678376 43.388633 120.097961 
C 43.808217 120.517546 44.377376 120.753299 44.970759 120.753299 
z
" clip-path="url(#p6029657d96)" style="stroke: #000000"/>
    <path d="M 34.800361 92.017087 
C 35.393744 92.017087 35.962903 91.781334 36.382487 91.361749 
C 36.802072 90.942164 37.037825 90.373005 37.037825 89.779623 
C 37.037825 89.18624 36.802072 88.617081 36.382487 88.197497 
C 35.962903 87.777912 35.393744 87.542159 34.800361 87.542159 
C 34.206979 87.542159 33.63782 87.777912 33.218235 88.197497 
C 32.79865 88.617081 32.562897 89.18624 32.562897 89.779623 
C 32.562897 90.373005 32.79865 90.942164 33.218235 91.361749 
C 33.63782 91.781334 34.206979 92.017087 34.800361 92.017087 
z
" clip-path="url(#p6029657d96)" style="stroke: #000000"/>
    <path d="M 34.033423 81.863455 
C 34.54236 81.863455 35.03052 81.661253 35.390392 81.30138 
C 35.750265 80.941508 35.952467 80.453348 35.952467 79.944411 
C 35.952467 79.435475 35.750265 78.947315 35.390392 78.587442 
C 35.03052 78.22757 34.54236 78.025367 34.033423 78.025367 
C 33.524487 78.025367 33.036327 78.22757 32.676454 78.587442 
C 32.316582 78.947315 32.114379 79.435475 32.114379 79.944411 
C 32.114379 80.453348 32.316582 80.941508 32.676454 81.30138 
C 33.036327 81.661253 33.524487 81.863455 34.033423 81.863455 
z
" clip-path="url(#p6029657d96)" style="stroke: #000000"/>
    <path d="M 50.700238 164.666808 
C 51.29325 164.666808 51.862054 164.431201 52.281377 164.011879 
C 52.7007 163.592556 52.936306 163.023752 52.936306 162.43074 
C 52.936306 161.837728 52.7007 161.268924 52.281377 160.849601 
C 51.862054 160.430278 51.29325 160.194672 50.700238 160.194672 
C 50.107226 160.194672 49.538422 160.430278 49.1191 160.849601 
C 48.699777 161.268924 48.46417 161.837728 48.46417 162.43074 
C 48.46417 163.023752 48.699777 163.592556 49.1191 164.011879 
C 49.538422 164.431201 50.107226 164.666808 50.700238 164.666808 
z
" clip-path="url(#p6029657d96)" style="stroke: #000000"/>
    <path d="M 42.214328 138.154077 
C 42.801319 138.154077 43.364348 137.920863 43.779413 137.505797 
C 44.194478 137.090732 44.427692 136.527704 44.427692 135.940713 
C 44.427692 135.353722 44.194478 134.790694 43.779413 134.375628 
C 43.364348 133.960563 42.801319 133.727349 42.214328 133.727349 
C 41.627338 133.727349 41.064309 133.960563 40.649244 134.375628 
C 40.234179 134.790694 40.000965 135.353722 40.000965 135.940713 
C 40.000965 136.527704 40.234179 137.090732 40.649244 137.505797 
C 41.064309 137.920863 41.627338 138.154077 42.214328 138.154077 
z
" clip-path="url(#p6029657d96)" style="stroke: #000000"/>
    <path d="M 34.200141 150.177419 
C 34.630548 150.177419 35.043384 150.006416 35.347728 149.702072 
C 35.652072 149.397729 35.823074 148.984892 35.823074 148.554485 
C 35.823074 148.124078 35.652072 147.711241 35.347728 147.406898 
C 35.043384 147.102554 34.630548 146.931551 34.200141 146.931551 
C 33.769734 146.931551 33.356897 147.102554 33.052553 147.406898 
C 32.74821 147.711241 32.577207 148.124078 32.577207 148.554485 
C 32.577207 148.984892 32.74821 149.397729 33.052553 149.702072 
C 33.356897 150.006416 33.769734 150.177419 34.200141 150.177419 
z
" clip-path="url(#p6029657d96)" style="stroke: #000000"/>
   </g>
   <g id="matplotlib.axis_1">
    <g id="xtick_1">
     <g id="line2d_1">
      <defs>
       <path id="mecb6cab9ef" d="M 0 0 
L 0 3.5 
" style="stroke: #000000; stroke-width: 0.8"/>
      </defs>
      <g>
       <use xlink:href="#mecb6cab9ef" x="18" y="189" style="stroke: #000000; stroke-width: 0.8"/>
      </g>
     </g>
     <g id="text_1">
      <!-- −10 -->
      <g transform="translate(7.447656 203.598437)scale(0.1 -0.1)">
       <defs>
        <path id="DejaVuSans-2212" d="M 678 2272 
L 4684 2272 
L 4684 1741 
L 678 1741 
L 678 2272 
z
" transform="scale(0.015625)"/>
        <path id="DejaVuSans-31" d="M 794 531 
L 1825 531 
L 1825 4091 
L 703 3866 
L 703 4441 
L 1819 4666 
L 2450 4666 
L 2450 531 
L 3481 531 
L 3481 0 
L 794 0 
L 794 531 
z
" transform="scale(0.015625)"/>
        <path id="DejaVuSans-30" d="M 2034 4250 
Q 1547 4250 1301 3770 
Q 1056 3291 1056 2328 
Q 1056 1369 1301 889 
Q 1547 409 2034 409 
Q 2525 409 2770 889 
Q 3016 1369 3016 2328 
Q 3016 3291 2770 3770 
Q 2525 4250 2034 4250 
z
M 2034 4750 
Q 2819 4750 3233 4129 
Q 3647 3509 3647 2328 
Q 3647 1150 3233 529 
Q 2819 -91 2034 -91 
Q 1250 -91 836 529 
Q 422 1150 422 2328 
Q 422 3509 836 4129 
Q 1250 4750 2034 4750 
z
" transform="scale(0.015625)"/>
       </defs>
       <use xlink:href="#DejaVuSans-2212"/>
       <use xlink:href="#DejaVuSans-31" x="83.789062"/>
       <use xlink:href="#DejaVuSans-30" x="147.412109"/>
      </g>
     </g>
    </g>
    <g id="xtick_2">
     <g id="line2d_2">
      <g>
       <use xlink:href="#mecb6cab9ef" x="73.8" y="189" style="stroke: #000000; stroke-width: 0.8"/>
      </g>
     </g>
     <g id="text_2">
      <!-- 0 -->
      <g transform="translate(70.61875 203.598437)scale(0.1 -0.1)">
       <use xlink:href="#DejaVuSans-30"/>
      </g>
     </g>
    </g>
    <g id="xtick_3">
     <g id="line2d_3">
      <g>
       <use xlink:href="#mecb6cab9ef" x="129.6" y="189" style="stroke: #000000; stroke-width: 0.8"/>
      </g>
     </g>
     <g id="text_3">
      <!-- 10 -->
      <g transform="translate(123.2375 203.598437)scale(0.1 -0.1)">
       <use xlink:href="#DejaVuSans-31"/>
       <use xlink:href="#DejaVuSans-30" x="63.623047"/>
      </g>
     </g>
    </g>
   </g>
   <g id="matplotlib.axis_2">
    <g id="ytick_1">
     <g id="line2d_4">
      <defs>
       <path id="m66dd6d8d67" d="M 0 0 
L -3.5 0 
" style="stroke: #000000; stroke-width: 0.8"/>
      </defs>
      <g>
       <use xlink:href="#m66dd6d8d67" x="18" y="189" style="stroke: #000000; stroke-width: 0.8"/>
      </g>
     </g>
     <g id="text_4">
      <!-- −15 -->
      <g transform="translate(-10.104688 192.799219)scale(0.1 -0.1)">
       <defs>
        <path id="DejaVuSans-35" d="M 691 4666 
L 3169 4666 
L 3169 4134 
L 1269 4134 
L 1269 2991 
Q 1406 3038 1543 3061 
Q 1681 3084 1819 3084 
Q 2600 3084 3056 2656 
Q 3513 2228 3513 1497 
Q 3513 744 3044 326 
Q 2575 -91 1722 -91 
Q 1428 -91 1123 -41 
Q 819 9 494 109 
L 494 744 
Q 775 591 1075 516 
Q 1375 441 1709 441 
Q 2250 441 2565 725 
Q 2881 1009 2881 1497 
Q 2881 1984 2565 2268 
Q 2250 2553 1709 2553 
Q 1456 2553 1204 2497 
Q 953 2441 691 2322 
L 691 4666 
z
" transform="scale(0.015625)"/>
       </defs>
       <use xlink:href="#DejaVuSans-2212"/>
       <use xlink:href="#DejaVuSans-31" x="83.789062"/>
       <use xlink:href="#DejaVuSans-35" x="147.412109"/>
      </g>
     </g>
    </g>
    <g id="ytick_2">
     <g id="line2d_5">
      <g>
       <use xlink:href="#m66dd6d8d67" x="18" y="161.82" style="stroke: #000000; stroke-width: 0.8"/>
      </g>
     </g>
     <g id="text_5">
      <!-- −10 -->
      <g transform="translate(-10.104688 165.619219)scale(0.1 -0.1)">
       <use xlink:href="#DejaVuSans-2212"/>
       <use xlink:href="#DejaVuSans-31" x="83.789062"/>
       <use xlink:href="#DejaVuSans-30" x="147.412109"/>
      </g>
     </g>
    </g>
    <g id="ytick_3">
     <g id="line2d_6">
      <g>
       <use xlink:href="#m66dd6d8d67" x="18" y="134.64" style="stroke: #000000; stroke-width: 0.8"/>
      </g>
     </g>
     <g id="text_6">
      <!-- −5 -->
      <g transform="translate(-3.742188 138.439219)scale(0.1 -0.1)">
       <use xlink:href="#DejaVuSans-2212"/>
       <use xlink:href="#DejaVuSans-35" x="83.789062"/>
      </g>
     </g>
    </g>
    <g id="ytick_4">
     <g id="line2d_7">
      <g>
       <use xlink:href="#m66dd6d8d67" x="18" y="107.46" style="stroke: #000000; stroke-width: 0.8"/>
      </g>
     </g>
     <g id="text_7">
      <!-- 0 -->
      <g transform="translate(4.6375 111.259219)scale(0.1 -0.1)">
       <use xlink:href="#DejaVuSans-30"/>
      </g>
     </g>
    </g>
    <g id="ytick_5">
     <g id="line2d_8">
      <g>
       <use xlink:href="#m66dd6d8d67" x="18" y="80.28" style="stroke: #000000; stroke-width: 0.8"/>
      </g>
     </g>
     <g id="text_8">
      <!-- 5 -->
      <g transform="translate(4.6375 84.079219)scale(0.1 -0.1)">
       <use xlink:href="#DejaVuSans-35"/>
      </g>
     </g>
    </g>
    <g id="ytick_6">
     <g id="line2d_9">
      <g>
       <use xlink:href="#m66dd6d8d67" x="18" y="53.1" style="stroke: #000000; stroke-width: 0.8"/>
      </g>
     </g>
     <g id="text_9">
      <!-- 10 -->
      <g transform="translate(-1.725 56.899219)scale(0.1 -0.1)">
       <use xlink:href="#DejaVuSans-31"/>
       <use xlink:href="#DejaVuSans-30" x="63.623047"/>
      </g>
     </g>
    </g>
    <g id="ytick_7">
     <g id="line2d_10">
      <g>
       <use xlink:href="#m66dd6d8d67" x="18" y="25.92" style="stroke: #000000; stroke-width: 0.8"/>
      </g>
     </g>
     <g id="text_10">
      <!-- 15 -->
      <g transform="translate(-1.725 29.719219)scale(0.1 -0.1)">
       <use xlink:href="#DejaVuSans-31"/>
       <use xlink:href="#DejaVuSans-35" x="63.623047"/>
      </g>
     </g>
    </g>
   </g>
   <g id="patch_3">
    <path d="M 18 189 
L 18 25.92 
" style="fill: none; stroke: #000000; stroke-width: 0.8; stroke-linejoin: miter; stroke-linecap: square"/>
   </g>
   <g id="patch_4">
    <path d="M 129.6 189 
L 129.6 25.92 
" style="fill: none; stroke: #000000; stroke-width: 0.8; stroke-linejoin: miter; stroke-linecap: square"/>
   </g>
   <g id="patch_5">
    <path d="M 18 189 
L 129.6 189 
" style="fill: none; stroke: #000000; stroke-width: 0.8; stroke-linejoin: miter; stroke-linecap: square"/>
   </g>
   <g id="patch_6">
    <path d="M 18 25.92 
L 129.6 25.92 
" style="fill: none; stroke: #000000; stroke-width: 0.8; stroke-linejoin: miter; stroke-linecap: square"/>
   </g>
  </g>
 </g>
 <defs>
  <clipPath id="p6029657d96">
   <rect x="18" y="25.92" width="111.6" height="163.08"/>
  </clipPath>
 </defs>
</svg>
