<?xml version="1.0" encoding="utf-8" standalone="no"?>
<!DOCTYPE svg PUBLIC "-//W3C//DTD SVG 1.1//EN"
  "http://www.w3.org/Graphics/SVG/1.1/DTD/svg11.dtd">
<svg xmlns:xlink="http://www.w3.org/1999/xlink" width="144pt" height="216pt" viewBox="0 0 144 216" xmlns="http://www.w3.org/2000/svg" version="1.1">
 <metadata>
  <rdf:RDF xmlns:dc="http://purl.org/dc/elements/1.1/" xmlns:cc="http://creativecommons.org/ns#" xmlns:rdf="http://www.w3.org/1999/02/22-rdf-syntax-ns#">
   <cc:Work>
    <dc:type rdf:resource="http://purl.org/dc/dcmitype/StillImage"/>
    <dc:date>2022-06-23T14:48:00.603909</dc:date>
    <dc:format>image/svg+xml</dc:format>
    <dc:creator>
     <cc:Agent>
      <dc:title>Matplotlib v3.5.1, https://matplotlib.org/</dc:title>
     </cc:Agent>
    </dc:creator>
   </cc:Work>
  </rdf:RDF>
 </metadata>
 <defs>
  <style type="text/css">*{stroke-linejoin: round; stroke-linecap: butt}</style>
 </defs>
 <g id="figure_1">
  <g id="patch_1">
   <path d="M 0 216 
L 144 216 
L 144 0 
L 0 0 
L 0 216 
z
" style="fill: none"/>
  </g>
  <g id="axes_1">
   <g id="patch_2">
    <path d="M 18 189 
L 129.6 189 
L 129.6 25.92 
L 18 25.92 
z
" style="fill: #ffffff"/>
   </g>
   <g id="PathCollection_1">
    <defs>
     <path id="m041b5a2395" d="M 0 2.738613 
C 0.726289 2.738613 1.422928 2.450055 1.936492 1.936492 
C 2.450055 1.422928 2.738613 0.726289 2.738613 0 
C 2.738613 -0.726289 2.450055 -1.422928 1.936492 -1.936492 
C 1.422928 -2.450055 0.726289 -2.738613 0 -2.738613 
C -0.726289 -2.738613 -1.422928 -2.450055 -1.936492 -1.936492 
C -2.450055 -1.422928 -2.738613 -0.726289 -2.738613 0 
C -2.738613 0.726289 -2.450055 1.422928 -1.936492 1.936492 
C -1.422928 2.450055 -0.726289 2.738613 0 2.738613 
z
" style="stroke: #ff0000; stroke-width: 1.75"/>
    </defs>
    <g clip-path="url(#p0a9a2dd140)">
     <use xlink:href="#m041b5a2395" x="80.775" y="107.46" style="fill: #ff0000; stroke: #ff0000; stroke-width: 1.75"/>
     <use xlink:href="#m041b5a2395" x="94.725" y="107.46" style="fill: #ff0000; stroke: #ff0000; stroke-width: 1.75"/>
     <use xlink:href="#m041b5a2395" x="59.85" y="119.229285" style="fill: #ff0000; stroke: #ff0000; stroke-width: 1.75"/>
     <use xlink:href="#m041b5a2395" x="73.8" y="119.229285" style="fill: #ff0000; stroke: #ff0000; stroke-width: 1.75"/>
     <use xlink:href="#m041b5a2395" x="87.75" y="119.229285" style="fill: #ff0000; stroke: #ff0000; stroke-width: 1.75"/>
     <use xlink:href="#m041b5a2395" x="66.825" y="130.99857" style="fill: #ff0000; stroke: #ff0000; stroke-width: 1.75"/>
     <use xlink:href="#m041b5a2395" x="80.775" y="130.99857" style="fill: #ff0000; stroke: #ff0000; stroke-width: 1.75"/>
    </g>
   </g>
   <g id="PathCollection_2">
    <defs>
     <path id="C0_0_caa85e9b66" d="M 0 2.738613 
C 0.726289 2.738613 1.422928 2.450055 1.936492 1.936492 
C 2.450055 1.422928 2.738613 0.726289 2.738613 -0 
C 2.738613 -0.726289 2.450055 -1.422928 1.936492 -1.936492 
C 1.422928 -2.450055 0.726289 -2.738613 0 -2.738613 
C -0.726289 -2.738613 -1.422928 -2.450055 -1.936492 -1.936492 
C -2.450055 -1.422928 -2.738613 -0.726289 -2.738613 0 
C -2.738613 0.726289 -2.450055 1.422928 -1.936492 1.936492 
C -1.422928 2.450055 -0.726289 2.738613 0 2.738613 
z
"/>
    </defs>
    <g clip-path="url(#p0a9a2dd140)">
     <use xlink:href="#C0_0_caa85e9b66" x="66.825" y="83.92143" style="fill: none; stroke: #ff0000; stroke-width: 1.75"/>
    </g>
    <g clip-path="url(#p0a9a2dd140)">
     <use xlink:href="#C0_0_caa85e9b66" x="80.775" y="83.92143" style="fill: none; stroke: #ff0000; stroke-width: 1.75"/>
    </g>
    <g clip-path="url(#p0a9a2dd140)">
     <use xlink:href="#C0_0_caa85e9b66" x="59.85" y="95.690715" style="fill: none; stroke: #ff0000; stroke-width: 1.75"/>
    </g>
    <g clip-path="url(#p0a9a2dd140)">
     <use xlink:href="#C0_0_caa85e9b66" x="73.8" y="95.690715" style="fill: none; stroke: #ff0000; stroke-width: 1.75"/>
    </g>
    <g clip-path="url(#p0a9a2dd140)">
     <use xlink:href="#C0_0_caa85e9b66" x="87.75" y="95.690715" style="fill: none; stroke: #ff0000; stroke-width: 1.75"/>
    </g>
    <g clip-path="url(#p0a9a2dd140)">
     <use xlink:href="#C0_0_caa85e9b66" x="52.875" y="107.46" style="fill: none; stroke: #ff0000; stroke-width: 1.75"/>
    </g>
    <g clip-path="url(#p0a9a2dd140)">
     <use xlink:href="#C0_0_caa85e9b66" x="66.825" y="107.46" style="fill: none; stroke: #ff0000; stroke-width: 1.75"/>
    </g>
   </g>
   <g id="PathCollection_3">
    <path d="M 112.044794 87.031965 
C 112.177395 87.031965 112.304584 86.979282 112.398347 86.885519 
C 112.492111 86.791755 112.544794 86.664567 112.544794 86.531965 
C 112.544794 86.399364 112.492111 86.272175 112.398347 86.178412 
C 112.304584 86.084648 112.177395 86.031965 112.044794 86.031965 
C 111.912192 86.031965 111.785004 86.084648 111.691241 86.178412 
C 111.597477 86.272175 111.544794 86.399364 111.544794 86.531965 
C 111.544794 86.664567 111.597477 86.791755 111.691241 86.885519 
C 111.785004 86.979282 111.912192 87.031965 112.044794 87.031965 
z
" clip-path="url(#p0a9a2dd140)" style="stroke: #000000"/>
    <path d="M 112.211648 103.224818 
C 112.34425 103.224818 112.471438 103.172135 112.565201 103.078371 
C 112.658965 102.984608 112.711648 102.857419 112.711648 102.724818 
C 112.711648 102.592216 112.658965 102.465028 112.565201 102.371264 
C 112.471438 102.277501 112.34425 102.224818 112.211648 102.224818 
C 112.079047 102.224818 111.951858 102.277501 111.858095 102.371264 
C 111.764331 102.465028 111.711648 102.592216 111.711648 102.724818 
C 111.711648 102.857419 111.764331 102.984608 111.858095 103.078371 
C 111.951858 103.172135 112.079047 103.224818 112.211648 103.224818 
z
" clip-path="url(#p0a9a2dd140)" style="stroke: #000000"/>
    <path d="M 107.642164 98.75447 
C 107.816677 98.75447 107.984066 98.685135 108.107466 98.561735 
C 108.230866 98.438336 108.300201 98.270946 108.300201 98.096433 
C 108.300201 97.92192 108.230866 97.75453 108.107466 97.631131 
C 107.984066 97.507731 107.816677 97.438396 107.642164 97.438396 
C 107.46765 97.438396 107.300261 97.507731 107.176861 97.631131 
C 107.053462 97.75453 106.984127 97.92192 106.984127 98.096433 
C 106.984127 98.270946 107.053462 98.438336 107.176861 98.561735 
C 107.300261 98.685135 107.46765 98.75447 107.642164 98.75447 
z
" clip-path="url(#p0a9a2dd140)" style="stroke: #000000"/>
    <path d="M 103.801233 86.581498 
C 103.933834 86.581498 104.061023 86.528815 104.154786 86.435052 
C 104.24855 86.341288 104.301233 86.2141 104.301233 86.081498 
C 104.301233 85.948897 104.24855 85.821708 104.154786 85.727945 
C 104.061023 85.634182 103.933834 85.581498 103.801233 85.581498 
C 103.668631 85.581498 103.541443 85.634182 103.447679 85.727945 
C 103.353916 85.821708 103.301233 85.948897 103.301233 86.081498 
C 103.301233 86.2141 103.353916 86.341288 103.447679 86.435052 
C 103.541443 86.528815 103.668631 86.581498 103.801233 86.581498 
z
" clip-path="url(#p0a9a2dd140)" style="stroke: #000000"/>
    <path d="M 107.15869 115.115775 
C 107.374377 115.115775 107.581259 115.030082 107.733772 114.877568 
C 107.886286 114.725055 107.971979 114.518173 107.971979 114.302487 
C 107.971979 114.0868 107.886286 113.879919 107.733772 113.727405 
C 107.581259 113.574892 107.374377 113.489198 107.15869 113.489198 
C 106.943004 113.489198 106.736122 113.574892 106.583609 113.727405 
C 106.431095 113.879919 106.345402 114.0868 106.345402 114.302487 
C 106.345402 114.518173 106.431095 114.725055 106.583609 114.877568 
C 106.736122 115.030082 106.943004 115.115775 107.15869 115.115775 
z
" clip-path="url(#p0a9a2dd140)" style="stroke: #000000"/>
    <path d="M 98.88651 92.47167 
C 99.185937 92.47167 99.473141 92.352706 99.684869 92.140979 
C 99.896596 91.929251 100.01556 91.642047 100.01556 91.34262 
C 100.01556 91.043192 99.896596 90.755988 99.684869 90.54426 
C 99.473141 90.332533 99.185937 90.213569 98.88651 90.213569 
C 98.587082 90.213569 98.299878 90.332533 98.08815 90.54426 
C 97.876423 90.755988 97.757459 91.043192 97.757459 91.34262 
C 97.757459 91.642047 97.876423 91.929251 98.08815 92.140979 
C 98.299878 92.352706 98.587082 92.47167 98.88651 92.47167 
z
" clip-path="url(#p0a9a2dd140)" style="stroke: #000000"/>
    <path d="M 109.680442 137.198422 
C 109.813043 137.198422 109.940232 137.145739 110.033995 137.051976 
C 110.127758 136.958212 110.180442 136.831024 110.180442 136.698422 
C 110.180442 136.565821 110.127758 136.438632 110.033995 136.344869 
C 109.940232 136.251105 109.813043 136.198422 109.680442 136.198422 
C 109.54784 136.198422 109.420652 136.251105 109.326888 136.344869 
C 109.233125 136.438632 109.180442 136.565821 109.180442 136.698422 
C 109.180442 136.831024 109.233125 136.958212 109.326888 137.051976 
C 109.420652 137.145739 109.54784 137.198422 109.680442 137.198422 
z
" clip-path="url(#p0a9a2dd140)" style="stroke: #000000"/>
    <path d="M 106.4127 131.017602 
C 106.587214 131.017602 106.754603 130.948267 106.878003 130.824867 
C 107.001402 130.701467 107.070737 130.534078 107.070737 130.359565 
C 107.070737 130.185051 107.001402 130.017662 106.878003 129.894262 
C 106.754603 129.770863 106.587214 129.701528 106.4127 129.701528 
C 106.238187 129.701528 106.070797 129.770863 105.947398 129.894262 
C 105.823998 130.017662 105.754663 130.185051 105.754663 130.359565 
C 105.754663 130.534078 105.823998 130.701467 105.947398 130.824867 
C 106.070797 130.948267 106.238187 131.017602 106.4127 131.017602 
z
" clip-path="url(#p0a9a2dd140)" style="stroke: #000000"/>
    <path d="M 102.079089 116.553904 
C 102.452669 116.553904 102.810999 116.405479 103.07516 116.141318 
C 103.339321 115.877157 103.487746 115.518828 103.487746 115.145248 
C 103.487746 114.771667 103.339321 114.413338 103.07516 114.149177 
C 102.810999 113.885016 102.452669 113.736591 102.079089 113.736591 
C 101.705509 113.736591 101.34718 113.885016 101.083019 114.149177 
C 100.818858 114.413338 100.670433 114.771667 100.670433 115.145248 
C 100.670433 115.518828 100.818858 115.877157 101.083019 116.141318 
C 101.34718 116.405479 101.705509 116.553904 102.079089 116.553904 
z
" clip-path="url(#p0a9a2dd140)" style="stroke: #000000"/>
    <path d="M 100.468772 110.635441 
C 100.601374 110.635441 100.728562 110.582758 100.822326 110.488995 
C 100.916089 110.395231 100.968772 110.268043 100.968772 110.135441 
C 100.968772 110.00284 100.916089 109.875651 100.822326 109.781888 
C 100.728562 109.688125 100.601374 109.635441 100.468772 109.635441 
C 100.336171 109.635441 100.208982 109.688125 100.115219 109.781888 
C 100.021455 109.875651 99.968772 110.00284 99.968772 110.135441 
C 99.968772 110.268043 100.021455 110.395231 100.115219 110.488995 
C 100.208982 110.582758 100.336171 110.635441 100.468772 110.635441 
z
" clip-path="url(#p0a9a2dd140)" style="stroke: #000000"/>
    <path d="M 97.04953 101.83726 
C 97.296329 101.83726 97.533054 101.739206 97.707567 101.564692 
C 97.882081 101.390179 97.980135 101.153455 97.980135 100.906655 
C 97.980135 100.659856 97.882081 100.423132 97.707567 100.248618 
C 97.533054 100.074105 97.296329 99.97605 97.04953 99.97605 
C 96.802731 99.97605 96.566007 100.074105 96.391493 100.248618 
C 96.21698 100.423132 96.118925 100.659856 96.118925 100.906655 
C 96.118925 101.153455 96.21698 101.390179 96.391493 101.564692 
C 96.566007 101.739206 96.802731 101.83726 97.04953 101.83726 
z
" clip-path="url(#p0a9a2dd140)" style="stroke: #000000"/>
    <path d="M 89.38064 76.592744 
C 89.538331 76.592744 89.689584 76.530093 89.801088 76.418589 
C 89.912592 76.307085 89.975243 76.155831 89.975243 75.998141 
C 89.975243 75.84045 89.912592 75.689197 89.801088 75.577692 
C 89.689584 75.466188 89.538331 75.403537 89.38064 75.403537 
C 89.222949 75.403537 89.071696 75.466188 88.960192 75.577692 
C 88.848688 75.689197 88.786036 75.84045 88.786036 75.998141 
C 88.786036 76.155831 88.848688 76.307085 88.960192 76.418589 
C 89.071696 76.530093 89.222949 76.592744 89.38064 76.592744 
z
" clip-path="url(#p0a9a2dd140)" style="stroke: #000000"/>
    <path d="M 87.521564 71.875842 
C 87.654166 71.875842 87.781354 71.823159 87.875118 71.729395 
C 87.968881 71.635632 88.021564 71.508444 88.021564 71.375842 
C 88.021564 71.24324 87.968881 71.116052 87.875118 71.022289 
C 87.781354 70.928525 87.654166 70.875842 87.521564 70.875842 
C 87.388963 70.875842 87.261775 70.928525 87.168011 71.022289 
C 87.074248 71.116052 87.021564 71.24324 87.021564 71.375842 
C 87.021564 71.508444 87.074248 71.635632 87.168011 71.729395 
C 87.261775 71.823159 87.388963 71.875842 87.521564 71.875842 
z
" clip-path="url(#p0a9a2dd140)" style="stroke: #000000"/>
    <path d="M 103.643714 130.770799 
C 103.831241 130.770799 104.011112 130.696294 104.143714 130.563693 
C 104.276315 130.431091 104.350821 130.25122 104.350821 130.063693 
C 104.350821 129.876166 104.276315 129.696294 104.143714 129.563693 
C 104.011112 129.431091 103.831241 129.356586 103.643714 129.356586 
C 103.456187 129.356586 103.276315 129.431091 103.143714 129.563693 
C 103.011112 129.696294 102.936607 129.876166 102.936607 130.063693 
C 102.936607 130.25122 103.011112 130.431091 103.143714 130.563693 
C 103.276315 130.696294 103.456187 130.770799 103.643714 130.770799 
z
" clip-path="url(#p0a9a2dd140)" style="stroke: #000000"/>
    <path d="M 101.202681 124.718802 
C 101.410213 124.718802 101.609274 124.636348 101.756022 124.489601 
C 101.902769 124.342853 101.985223 124.143792 101.985223 123.93626 
C 101.985223 123.728727 101.902769 123.529666 101.756022 123.382919 
C 101.609274 123.236171 101.410213 123.153717 101.202681 123.153717 
C 100.995148 123.153717 100.796087 123.236171 100.64934 123.382919 
C 100.502592 123.529666 100.420138 123.728727 100.420138 123.93626 
C 100.420138 124.143792 100.502592 124.342853 100.64934 124.489601 
C 100.796087 124.636348 100.995148 124.718802 101.202681 124.718802 
z
" clip-path="url(#p0a9a2dd140)" style="stroke: #000000"/>
    <path d="M 98.740592 122.188162 
C 98.873194 122.188162 99.000382 122.135479 99.094146 122.041715 
C 99.187909 121.947952 99.240592 121.820763 99.240592 121.688162 
C 99.240592 121.55556 99.187909 121.428372 99.094146 121.334609 
C 99.000382 121.240845 98.873194 121.188162 98.740592 121.188162 
C 98.607991 121.188162 98.480803 121.240845 98.387039 121.334609 
C 98.293276 121.428372 98.240592 121.55556 98.240592 121.688162 
C 98.240592 121.820763 98.293276 121.947952 98.387039 122.041715 
C 98.480803 122.135479 98.607991 122.188162 98.740592 122.188162 
z
" clip-path="url(#p0a9a2dd140)" style="stroke: #000000"/>
    <path d="M 97.951923 117.296369 
C 98.410468 117.296369 98.850295 117.114187 99.174536 116.789946 
C 99.498776 116.465706 99.680959 116.025879 99.680959 115.567333 
C 99.680959 115.108788 99.498776 114.668961 99.174536 114.34472 
C 98.850295 114.02048 98.410468 113.838298 97.951923 113.838298 
C 97.493377 113.838298 97.05355 114.02048 96.72931 114.34472 
C 96.405069 114.668961 96.222887 115.108788 96.222887 115.567333 
C 96.222887 116.025879 96.405069 116.465706 96.72931 116.789946 
C 97.05355 117.114187 97.493377 117.296369 97.951923 117.296369 
z
" clip-path="url(#p0a9a2dd140)" style="stroke: #000000"/>
    <path d="M 96.931097 114.465263 
C 97.266638 114.465263 97.58848 114.331951 97.825743 114.094688 
C 98.063006 113.857426 98.196317 113.535583 98.196317 113.200043 
C 98.196317 112.864503 98.063006 112.54266 97.825743 112.305397 
C 97.58848 112.068135 97.266638 111.934823 96.931097 111.934823 
C 96.595557 111.934823 96.273715 112.068135 96.036452 112.305397 
C 95.799189 112.54266 95.665878 112.864503 95.665878 113.200043 
C 95.665878 113.535583 95.799189 113.857426 96.036452 114.094688 
C 96.273715 114.331951 96.595557 114.465263 96.931097 114.465263 
z
" clip-path="url(#p0a9a2dd140)" style="stroke: #000000"/>
    <path d="M 94.437509 108.419558 
C 94.82106 108.419558 95.188954 108.267171 95.460165 107.99596 
C 95.731377 107.724748 95.883763 107.356855 95.883763 106.973304 
C 95.883763 106.589753 95.731377 106.221859 95.460165 105.950648 
C 95.188954 105.679436 94.82106 105.52705 94.437509 105.52705 
C 94.053958 105.52705 93.686065 105.679436 93.414853 105.950648 
C 93.143642 106.221859 92.991255 106.589753 92.991255 106.973304 
C 92.991255 107.356855 93.143642 107.724748 93.414853 107.99596 
C 93.686065 108.267171 94.053958 108.419558 94.437509 108.419558 
z
" clip-path="url(#p0a9a2dd140)" style="stroke: #000000"/>
    <path d="M 89.65851 95.648248 
C 90.210829 95.648248 90.740602 95.428809 91.13115 95.03826 
C 91.521699 94.647711 91.741138 94.117939 91.741138 93.56562 
C 91.741138 93.013301 91.521699 92.483529 91.13115 92.09298 
C 90.740602 91.702431 90.210829 91.482992 89.65851 91.482992 
C 89.106191 91.482992 88.576419 91.702431 88.18587 92.09298 
C 87.795321 92.483529 87.575882 93.013301 87.575882 93.56562 
C 87.575882 94.117939 87.795321 94.647711 88.18587 95.03826 
C 88.576419 95.428809 89.106191 95.648248 89.65851 95.648248 
z
" clip-path="url(#p0a9a2dd140)" style="stroke: #000000"/>
    <path d="M 85.458433 86.409179 
C 85.591035 86.409179 85.718223 86.356496 85.811987 86.262732 
C 85.90575 86.168969 85.958433 86.04178 85.958433 85.909179 
C 85.958433 85.776577 85.90575 85.649389 85.811987 85.555625 
C 85.718223 85.461862 85.591035 85.409179 85.458433 85.409179 
C 85.325832 85.409179 85.198643 85.461862 85.10488 85.555625 
C 85.011116 85.649389 84.958433 85.776577 84.958433 85.909179 
C 84.958433 86.04178 85.011116 86.168969 85.10488 86.262732 
C 85.198643 86.356496 85.325832 86.409179 85.458433 86.409179 
z
" clip-path="url(#p0a9a2dd140)" style="stroke: #000000"/>
    <path d="M 84.108279 82.70892 
C 84.430806 82.70892 84.740166 82.580779 84.968227 82.352718 
C 85.196288 82.124658 85.324429 81.815297 85.324429 81.492771 
C 85.324429 81.170244 85.196288 80.860884 84.968227 80.632823 
C 84.740166 80.404762 84.430806 80.276621 84.108279 80.276621 
C 83.785753 80.276621 83.476392 80.404762 83.248332 80.632823 
C 83.020271 80.860884 82.89213 81.170244 82.89213 81.492771 
C 82.89213 81.815297 83.020271 82.124658 83.248332 82.352718 
C 83.476392 82.580779 83.785753 82.70892 84.108279 82.70892 
z
" clip-path="url(#p0a9a2dd140)" style="stroke: #000000"/>
    <path d="M 110.838514 166.235514 
C 110.971116 166.235514 111.098304 166.182831 111.192068 166.089067 
C 111.285831 165.995304 111.338514 165.868115 111.338514 165.735514 
C 111.338514 165.602912 111.285831 165.475724 111.192068 165.38196 
C 111.098304 165.288197 110.971116 165.235514 110.838514 165.235514 
C 110.705913 165.235514 110.578724 165.288197 110.484961 165.38196 
C 110.391198 165.475724 110.338514 165.602912 110.338514 165.735514 
C 110.338514 165.868115 110.391198 165.995304 110.484961 166.089067 
C 110.578724 166.182831 110.705913 166.235514 110.838514 166.235514 
z
" clip-path="url(#p0a9a2dd140)" style="stroke: #000000"/>
    <path d="M 91.454581 116.059986 
C 91.982378 116.059986 92.488629 115.85029 92.861838 115.477081 
C 93.235047 115.103872 93.444743 114.597621 93.444743 114.069824 
C 93.444743 113.542027 93.235047 113.035776 92.861838 112.662567 
C 92.488629 112.289358 91.982378 112.079662 91.454581 112.079662 
C 90.926784 112.079662 90.420533 112.289358 90.047324 112.662567 
C 89.674115 113.035776 89.464419 113.542027 89.464419 114.069824 
C 89.464419 114.597621 89.674115 115.103872 90.047324 115.477081 
C 90.420533 115.85029 90.926784 116.059986 91.454581 116.059986 
z
" clip-path="url(#p0a9a2dd140)" style="stroke: #000000"/>
    <path d="M 90.649646 109.101637 
C 90.872654 109.101637 91.086558 109.013035 91.244249 108.855344 
C 91.40194 108.697653 91.490542 108.483749 91.490542 108.260741 
C 91.490542 108.037732 91.40194 107.823828 91.244249 107.666137 
C 91.086558 107.508446 90.872654 107.419844 90.649646 107.419844 
C 90.426637 107.419844 90.212733 107.508446 90.055042 107.666137 
C 89.897351 107.823828 89.808749 108.037732 89.808749 108.260741 
C 89.808749 108.483749 89.897351 108.697653 90.055042 108.855344 
C 90.212733 109.013035 90.426637 109.101637 90.649646 109.101637 
z
" clip-path="url(#p0a9a2dd140)" style="stroke: #000000"/>
    <path d="M 89.660587 102.939233 
C 89.793189 102.939233 89.920377 102.88655 90.014141 102.792786 
C 90.107904 102.699023 90.160587 102.571834 90.160587 102.439233 
C 90.160587 102.306631 90.107904 102.179443 90.014141 102.085679 
C 89.920377 101.991916 89.793189 101.939233 89.660587 101.939233 
C 89.527986 101.939233 89.400798 101.991916 89.307034 102.085679 
C 89.213271 102.179443 89.160587 102.306631 89.160587 102.439233 
C 89.160587 102.571834 89.213271 102.699023 89.307034 102.792786 
C 89.400798 102.88655 89.527986 102.939233 89.660587 102.939233 
z
" clip-path="url(#p0a9a2dd140)" style="stroke: #000000"/>
    <path d="M 87.955932 101.893413 
C 88.285158 101.893413 88.600944 101.76261 88.833742 101.529812 
C 89.06654 101.297014 89.197343 100.981228 89.197343 100.652002 
C 89.197343 100.322775 89.06654 100.006989 88.833742 99.774191 
C 88.600944 99.541393 88.285158 99.41059 87.955932 99.41059 
C 87.626705 99.41059 87.310919 99.541393 87.078121 99.774191 
C 86.845323 100.006989 86.71452 100.322775 86.71452 100.652002 
C 86.71452 100.981228 86.845323 101.297014 87.078121 101.529812 
C 87.310919 101.76261 87.626705 101.893413 87.955932 101.893413 
z
" clip-path="url(#p0a9a2dd140)" style="stroke: #000000"/>
    <path d="M 87.138921 97.200639 
C 87.495002 97.200639 87.836547 97.059167 88.088335 96.807379 
C 88.340123 96.555591 88.481595 96.214046 88.481595 95.857965 
C 88.481595 95.501883 88.340123 95.160338 88.088335 94.90855 
C 87.836547 94.656763 87.495002 94.51529 87.138921 94.51529 
C 86.782839 94.51529 86.441294 94.656763 86.189506 94.90855 
C 85.937718 95.160338 85.796246 95.501883 85.796246 95.857965 
C 85.796246 96.214046 85.937718 96.555591 86.189506 96.807379 
C 86.441294 97.059167 86.782839 97.200639 87.138921 97.200639 
z
" clip-path="url(#p0a9a2dd140)" style="stroke: #000000"/>
    <path d="M 83.09894 88.864137 
C 83.411828 88.864137 83.711943 88.739825 83.933188 88.51858 
C 84.154433 88.297335 84.278745 87.99722 84.278745 87.684332 
C 84.278745 87.371444 84.154433 87.071328 83.933188 86.850083 
C 83.711943 86.628838 83.411828 86.504526 83.09894 86.504526 
C 82.786051 86.504526 82.485936 86.628838 82.264691 86.850083 
C 82.043446 87.071328 81.919134 87.371444 81.919134 87.684332 
C 81.919134 87.99722 82.043446 88.297335 82.264691 88.51858 
C 82.485936 88.739825 82.786051 88.864137 83.09894 88.864137 
z
" clip-path="url(#p0a9a2dd140)" style="stroke: #000000"/>
    <path d="M 79.454085 75.900383 
C 79.611776 75.900383 79.763029 75.837732 79.874533 75.726228 
C 79.986037 75.614723 80.048689 75.46347 80.048689 75.305779 
C 80.048689 75.148089 79.986037 74.996835 79.874533 74.885331 
C 79.763029 74.773827 79.611776 74.711176 79.454085 74.711176 
C 79.296394 74.711176 79.145141 74.773827 79.033637 74.885331 
C 78.922133 74.996835 78.859482 75.148089 78.859482 75.305779 
C 78.859482 75.46347 78.922133 75.614723 79.033637 75.726228 
C 79.145141 75.837732 79.296394 75.900383 79.454085 75.900383 
z
" clip-path="url(#p0a9a2dd140)" style="stroke: #000000"/>
    <path d="M 59.74155 26.066801 
C 59.874152 26.066801 60.00134 26.014118 60.095103 25.920355 
C 60.188867 25.826591 60.24155 25.699403 60.24155 25.566801 
C 60.24155 25.4342 60.188867 25.307011 60.095103 25.213248 
C 60.00134 25.119484 59.874152 25.066801 59.74155 25.066801 
C 59.608949 25.066801 59.48176 25.119484 59.387997 25.213248 
C 59.294233 25.307011 59.24155 25.4342 59.24155 25.566801 
C 59.24155 25.699403 59.294233 25.826591 59.387997 25.920355 
C 59.48176 26.014118 59.608949 26.066801 59.74155 26.066801 
z
" clip-path="url(#p0a9a2dd140)" style="stroke: #000000"/>
    <path d="M 97.378459 141.078398 
C 97.511061 141.078398 97.638249 141.025714 97.732013 140.931951 
C 97.825776 140.838188 97.878459 140.710999 97.878459 140.578398 
C 97.878459 140.445796 97.825776 140.318608 97.732013 140.224844 
C 97.638249 140.131081 97.511061 140.078398 97.378459 140.078398 
C 97.245858 140.078398 97.118669 140.131081 97.024906 140.224844 
C 96.931143 140.318608 96.878459 140.445796 96.878459 140.578398 
C 96.878459 140.710999 96.931143 140.838188 97.024906 140.931951 
C 97.118669 141.025714 97.245858 141.078398 97.378459 141.078398 
z
" clip-path="url(#p0a9a2dd140)" style="stroke: #000000"/>
    <path d="M 93.021669 127.109953 
C 93.470277 127.109953 93.900571 126.93172 94.217784 126.614506 
C 94.534997 126.297293 94.713231 125.866999 94.713231 125.418392 
C 94.713231 124.969784 94.534997 124.53949 94.217784 124.222277 
C 93.900571 123.905064 93.470277 123.72683 93.021669 123.72683 
C 92.573062 123.72683 92.142768 123.905064 91.825555 124.222277 
C 91.508341 124.53949 91.330108 124.969784 91.330108 125.418392 
C 91.330108 125.866999 91.508341 126.297293 91.825555 126.614506 
C 92.142768 126.93172 92.573062 127.109953 93.021669 127.109953 
z
" clip-path="url(#p0a9a2dd140)" style="stroke: #000000"/>
    <path d="M 90.725149 123.442257 
C 90.899662 123.442257 91.067051 123.372922 91.190451 123.249523 
C 91.313851 123.126123 91.383186 122.958734 91.383186 122.78422 
C 91.383186 122.609707 91.313851 122.442317 91.190451 122.318918 
C 91.067051 122.195518 90.899662 122.126183 90.725149 122.126183 
C 90.550635 122.126183 90.383246 122.195518 90.259846 122.318918 
C 90.136447 122.442317 90.067112 122.609707 90.067112 122.78422 
C 90.067112 122.958734 90.136447 123.126123 90.259846 123.249523 
C 90.383246 123.372922 90.550635 123.442257 90.725149 123.442257 
z
" clip-path="url(#p0a9a2dd140)" style="stroke: #000000"/>
    <path d="M 88.661441 120.953163 
C 89.151794 120.953163 89.62213 120.758343 89.968862 120.411611 
C 90.315594 120.064879 90.510413 119.594543 90.510413 119.10419 
C 90.510413 118.613837 90.315594 118.143502 89.968862 117.796769 
C 89.62213 117.450037 89.151794 117.255218 88.661441 117.255218 
C 88.171088 117.255218 87.700752 117.450037 87.35402 117.796769 
C 87.007288 118.143502 86.812469 118.613837 86.812469 119.10419 
C 86.812469 119.594543 87.007288 120.064879 87.35402 120.411611 
C 87.700752 120.758343 88.171088 120.953163 88.661441 120.953163 
z
" clip-path="url(#p0a9a2dd140)" style="stroke: #000000"/>
    <path d="M 86.368171 115.237239 
C 86.765975 115.237239 87.147541 115.079189 87.428831 114.797899 
C 87.710121 114.516609 87.868171 114.135044 87.868171 113.737239 
C 87.868171 113.339434 87.710121 112.957869 87.428831 112.676579 
C 87.147541 112.395288 86.765975 112.237239 86.368171 112.237239 
C 85.970366 112.237239 85.588801 112.395288 85.307511 112.676579 
C 85.02622 112.957869 84.868171 113.339434 84.868171 113.737239 
C 84.868171 114.135044 85.02622 114.516609 85.307511 114.797899 
C 85.588801 115.079189 85.970366 115.237239 86.368171 115.237239 
z
" clip-path="url(#p0a9a2dd140)" style="stroke: #000000"/>
    <path d="M 84.309559 107.447406 
C 84.806969 107.447406 85.284074 107.249783 85.635797 106.898061 
C 85.987519 106.546339 86.185142 106.069234 86.185142 105.571823 
C 86.185142 105.074413 85.987519 104.597308 85.635797 104.245586 
C 85.284074 103.893864 84.806969 103.69624 84.309559 103.69624 
C 83.812149 103.69624 83.335044 103.893864 82.983322 104.245586 
C 82.631599 104.597308 82.433976 105.074413 82.433976 105.571823 
C 82.433976 106.069234 82.631599 106.546339 82.983322 106.898061 
C 83.335044 107.249783 83.812149 107.447406 84.309559 107.447406 
z
" clip-path="url(#p0a9a2dd140)" style="stroke: #000000"/>
    <path d="M 82.536184 98.679928 
C 83.053696 98.679928 83.550082 98.474318 83.916019 98.108382 
C 84.281955 97.742445 84.487565 97.246059 84.487565 96.728547 
C 84.487565 96.211035 84.281955 95.714649 83.916019 95.348713 
C 83.550082 94.982776 83.053696 94.777166 82.536184 94.777166 
C 82.018672 94.777166 81.522286 94.982776 81.15635 95.348713 
C 80.790413 95.714649 80.584804 96.211035 80.584804 96.728547 
C 80.584804 97.246059 80.790413 97.742445 81.15635 98.108382 
C 81.522286 98.474318 82.018672 98.679928 82.536184 98.679928 
z
" clip-path="url(#p0a9a2dd140)" style="stroke: #000000"/>
    <path d="M 78.476514 87.958934 
C 78.651028 87.958934 78.818417 87.889599 78.941817 87.766199 
C 79.065216 87.642799 79.134551 87.47541 79.134551 87.300897 
C 79.134551 87.126383 79.065216 86.958994 78.941817 86.835594 
C 78.818417 86.712195 78.651028 86.64286 78.476514 86.64286 
C 78.302001 86.64286 78.134611 86.712195 78.011212 86.835594 
C 77.887812 86.958994 77.818477 87.126383 77.818477 87.300897 
C 77.818477 87.47541 77.887812 87.642799 78.011212 87.766199 
C 78.134611 87.889599 78.302001 87.958934 78.476514 87.958934 
z
" clip-path="url(#p0a9a2dd140)" style="stroke: #000000"/>
    <path d="M 78.505777 86.168963 
C 78.823594 86.168963 79.128436 86.042693 79.353167 85.817962 
C 79.577897 85.593232 79.704167 85.288389 79.704167 84.970572 
C 79.704167 84.652755 79.577897 84.347912 79.353167 84.123182 
C 79.128436 83.898451 78.823594 83.772181 78.505777 83.772181 
C 78.18796 83.772181 77.883117 83.898451 77.658386 84.123182 
C 77.433656 84.347912 77.307386 84.652755 77.307386 84.970572 
C 77.307386 85.288389 77.433656 85.593232 77.658386 85.817962 
C 77.883117 86.042693 78.18796 86.168963 78.505777 86.168963 
z
" clip-path="url(#p0a9a2dd140)" style="stroke: #000000"/>
    <path d="M 84.964843 121.768023 
C 85.362647 121.768023 85.744213 121.609974 86.025503 121.328683 
C 86.306793 121.047393 86.464843 120.665828 86.464843 120.268023 
C 86.464843 119.870218 86.306793 119.488653 86.025503 119.207363 
C 85.744213 118.926073 85.362647 118.768023 84.964843 118.768023 
C 84.567038 118.768023 84.185473 118.926073 83.904183 119.207363 
C 83.622892 119.488653 83.464843 119.870218 83.464843 120.268023 
C 83.464843 120.665828 83.622892 121.047393 83.904183 121.328683 
C 84.185473 121.609974 84.567038 121.768023 84.964843 121.768023 
z
" clip-path="url(#p0a9a2dd140)" style="stroke: #000000"/>
    <path d="M 83.373067 115.863491 
C 83.588753 115.863491 83.795635 115.777798 83.948148 115.625285 
C 84.100662 115.472771 84.186355 115.26589 84.186355 115.050203 
C 84.186355 114.834516 84.100662 114.627635 83.948148 114.475121 
C 83.795635 114.322608 83.588753 114.236915 83.373067 114.236915 
C 83.15738 114.236915 82.950499 114.322608 82.797985 114.475121 
C 82.645472 114.627635 82.559779 114.834516 82.559779 115.050203 
C 82.559779 115.26589 82.645472 115.472771 82.797985 115.625285 
C 82.950499 115.777798 83.15738 115.863491 83.373067 115.863491 
z
" clip-path="url(#p0a9a2dd140)" style="stroke: #000000"/>
    <path d="M 80.141978 104.178238 
C 80.329505 104.178238 80.509376 104.103732 80.641978 103.971131 
C 80.774579 103.838529 80.849085 103.658658 80.849085 103.471131 
C 80.849085 103.283604 80.774579 103.103732 80.641978 102.971131 
C 80.509376 102.838529 80.329505 102.764024 80.141978 102.764024 
C 79.954451 102.764024 79.774579 102.838529 79.641978 102.971131 
C 79.509376 103.103732 79.434871 103.283604 79.434871 103.471131 
C 79.434871 103.658658 79.509376 103.838529 79.641978 103.971131 
C 79.774579 104.103732 79.954451 104.178238 80.141978 104.178238 
z
" clip-path="url(#p0a9a2dd140)" style="stroke: #000000"/>
    <path d="M 73.598205 92.862745 
C 74.048515 92.862745 74.480442 92.683835 74.798859 92.365418 
C 75.117276 92.047001 75.296186 91.615074 75.296186 91.164764 
C 75.296186 90.714454 75.117276 90.282527 74.798859 89.96411 
C 74.480442 89.645692 74.048515 89.466782 73.598205 89.466782 
C 73.147895 89.466782 72.715968 89.645692 72.397551 89.96411 
C 72.079134 90.282527 71.900224 90.714454 71.900224 91.164764 
C 71.900224 91.615074 72.079134 92.047001 72.397551 92.365418 
C 72.715968 92.683835 73.147895 92.862745 73.598205 92.862745 
z
" clip-path="url(#p0a9a2dd140)" style="stroke: #000000"/>
    <path d="M 72.763004 85.643552 
C 73.023962 85.643552 73.274268 85.539872 73.458793 85.355347 
C 73.643319 85.170821 73.746999 84.920516 73.746999 84.659557 
C 73.746999 84.398599 73.643319 84.148294 73.458793 83.963768 
C 73.274268 83.779243 73.023962 83.675563 72.763004 83.675563 
C 72.502046 83.675563 72.25174 83.779243 72.067215 83.963768 
C 71.882689 84.148294 71.779009 84.398599 71.779009 84.659557 
C 71.779009 84.920516 71.882689 85.170821 72.067215 85.355347 
C 72.25174 85.539872 72.502046 85.643552 72.763004 85.643552 
z
" clip-path="url(#p0a9a2dd140)" style="stroke: #000000"/>
    <path d="M 83.103528 136.522972 
C 83.666109 136.522972 84.205723 136.299456 84.603528 135.901652 
C 85.001333 135.503847 85.224848 134.964232 85.224848 134.401652 
C 85.224848 133.839071 85.001333 133.299456 84.603528 132.901652 
C 84.205723 132.503847 83.666109 132.280331 83.103528 132.280331 
C 82.540947 132.280331 82.001333 132.503847 81.603528 132.901652 
C 81.205723 133.299456 80.982208 133.839071 80.982208 134.401652 
C 80.982208 134.964232 81.205723 135.503847 81.603528 135.901652 
C 82.001333 136.299456 82.540947 136.522972 83.103528 136.522972 
z
" clip-path="url(#p0a9a2dd140)" style="stroke: #000000"/>
    <path d="M 84.351494 132.700383 
C 84.919635 132.700383 85.464583 132.474658 85.866319 132.072922 
C 86.268055 131.671185 86.49378 131.126237 86.49378 130.558096 
C 86.49378 129.989956 86.268055 129.445008 85.866319 129.043271 
C 85.464583 128.641535 84.919635 128.41581 84.351494 128.41581 
C 83.783353 128.41581 83.238405 128.641535 82.836669 129.043271 
C 82.434933 129.445008 82.209208 129.989956 82.209208 130.558096 
C 82.209208 131.126237 82.434933 131.671185 82.836669 132.072922 
C 83.238405 132.474658 83.783353 132.700383 84.351494 132.700383 
z
" clip-path="url(#p0a9a2dd140)" style="stroke: #000000"/>
    <path d="M 82.69702 127.393376 
C 82.920028 127.393376 83.133933 127.304774 83.291623 127.147084 
C 83.449314 126.989393 83.537916 126.775488 83.537916 126.55248 
C 83.537916 126.329472 83.449314 126.115567 83.291623 125.957876 
C 83.133933 125.800186 82.920028 125.711584 82.69702 125.711584 
C 82.474011 125.711584 82.260107 125.800186 82.102416 125.957876 
C 81.944725 126.115567 81.856123 126.329472 81.856123 126.55248 
C 81.856123 126.775488 81.944725 126.989393 82.102416 127.147084 
C 82.260107 127.304774 82.474011 127.393376 82.69702 127.393376 
z
" clip-path="url(#p0a9a2dd140)" style="stroke: #000000"/>
    <path d="M 79.741529 122.774974 
C 79.971201 122.774974 80.191498 122.683724 80.353901 122.521321 
C 80.516304 122.358918 80.607554 122.138621 80.607554 121.908948 
C 80.607554 121.679276 80.516304 121.458979 80.353901 121.296576 
C 80.191498 121.134173 79.971201 121.042923 79.741529 121.042923 
C 79.511856 121.042923 79.291559 121.134173 79.129156 121.296576 
C 78.966753 121.458979 78.875503 121.679276 78.875503 121.908948 
C 78.875503 122.138621 78.966753 122.358918 79.129156 122.521321 
C 79.291559 122.683724 79.511856 122.774974 79.741529 122.774974 
z
" clip-path="url(#p0a9a2dd140)" style="stroke: #000000"/>
    <path d="M 79.284066 117.432348 
C 79.491598 117.432348 79.690659 117.349894 79.837407 117.203147 
C 79.984155 117.056399 80.066608 116.857338 80.066608 116.649806 
C 80.066608 116.442273 79.984155 116.243213 79.837407 116.096465 
C 79.690659 115.949717 79.491598 115.867263 79.284066 115.867263 
C 79.076533 115.867263 78.877473 115.949717 78.730725 116.096465 
C 78.583977 116.243213 78.501524 116.442273 78.501524 116.649806 
C 78.501524 116.857338 78.583977 117.056399 78.730725 117.203147 
C 78.877473 117.349894 79.076533 117.432348 79.284066 117.432348 
z
" clip-path="url(#p0a9a2dd140)" style="stroke: #000000"/>
    <path d="M 74.853904 110.479036 
C 75.028418 110.479036 75.195807 110.409701 75.319207 110.286302 
C 75.442606 110.162902 75.511941 109.995513 75.511941 109.820999 
C 75.511941 109.646486 75.442606 109.479097 75.319207 109.355697 
C 75.195807 109.232297 75.028418 109.162962 74.853904 109.162962 
C 74.679391 109.162962 74.512002 109.232297 74.388602 109.355697 
C 74.265202 109.479097 74.195867 109.646486 74.195867 109.820999 
C 74.195867 109.995513 74.265202 110.162902 74.388602 110.286302 
C 74.512002 110.409701 74.679391 110.479036 74.853904 110.479036 
z
" clip-path="url(#p0a9a2dd140)" style="stroke: #000000"/>
    <path d="M 73.123293 101.019807 
C 73.445819 101.019807 73.75518 100.891666 73.98324 100.663605 
C 74.211301 100.435544 74.339442 100.126184 74.339442 99.803657 
C 74.339442 99.481131 74.211301 99.171771 73.98324 98.94371 
C 73.75518 98.715649 73.445819 98.587508 73.123293 98.587508 
C 72.800766 98.587508 72.491406 98.715649 72.263345 98.94371 
C 72.035284 99.171771 71.907143 99.481131 71.907143 99.803657 
C 71.907143 100.126184 72.035284 100.435544 72.263345 100.663605 
C 72.491406 100.891666 72.800766 101.019807 73.123293 101.019807 
z
" clip-path="url(#p0a9a2dd140)" style="stroke: #000000"/>
    <path d="M 68.060019 86.85567 
C 68.234533 86.85567 68.401922 86.786335 68.525322 86.662936 
C 68.648721 86.539536 68.718056 86.372147 68.718056 86.197633 
C 68.718056 86.02312 68.648721 85.855731 68.525322 85.732331 
C 68.401922 85.608931 68.234533 85.539596 68.060019 85.539596 
C 67.885506 85.539596 67.718116 85.608931 67.594717 85.732331 
C 67.471317 85.855731 67.401982 86.02312 67.401982 86.197633 
C 67.401982 86.372147 67.471317 86.539536 67.594717 86.662936 
C 67.718116 86.786335 67.885506 86.85567 68.060019 86.85567 
z
" clip-path="url(#p0a9a2dd140)" style="stroke: #000000"/>
    <path d="M 64.08191 76.556627 
C 64.214512 76.556627 64.3417 76.503944 64.435463 76.41018 
C 64.529227 76.316417 64.58191 76.189228 64.58191 76.056627 
C 64.58191 75.924025 64.529227 75.796837 64.435463 75.703073 
C 64.3417 75.60931 64.214512 75.556627 64.08191 75.556627 
C 63.949309 75.556627 63.82212 75.60931 63.728357 75.703073 
C 63.634593 75.796837 63.58191 75.924025 63.58191 76.056627 
C 63.58191 76.189228 63.634593 76.316417 63.728357 76.41018 
C 63.82212 76.503944 63.949309 76.556627 64.08191 76.556627 
z
" clip-path="url(#p0a9a2dd140)" style="stroke: #000000"/>
    <path d="M 73.578082 119.706763 
C 73.97952 119.706763 74.36457 119.54727 74.648429 119.263411 
C 74.932289 118.979551 75.091782 118.594501 75.091782 118.193063 
C 75.091782 117.791625 74.932289 117.406575 74.648429 117.122716 
C 74.36457 116.838856 73.97952 116.679363 73.578082 116.679363 
C 73.176644 116.679363 72.791594 116.838856 72.507734 117.122716 
C 72.223875 117.406575 72.064382 117.791625 72.064382 118.193063 
C 72.064382 118.594501 72.223875 118.979551 72.507734 119.263411 
C 72.791594 119.54727 73.176644 119.706763 73.578082 119.706763 
z
" clip-path="url(#p0a9a2dd140)" style="stroke: #000000"/>
    <path d="M 70.679899 115.390421 
C 70.867426 115.390421 71.047297 115.315915 71.179899 115.183314 
C 71.3125 115.050712 71.387006 114.870841 71.387006 114.683314 
C 71.387006 114.495787 71.3125 114.315915 71.179899 114.183314 
C 71.047297 114.050712 70.867426 113.976207 70.679899 113.976207 
C 70.492372 113.976207 70.3125 114.050712 70.179899 114.183314 
C 70.047297 114.315915 69.972792 114.495787 69.972792 114.683314 
C 69.972792 114.870841 70.047297 115.050712 70.179899 115.183314 
C 70.3125 115.315915 70.492372 115.390421 70.679899 115.390421 
z
" clip-path="url(#p0a9a2dd140)" style="stroke: #000000"/>
    <path d="M 66.263995 97.004176 
C 66.396596 97.004176 66.523785 96.951493 66.617548 96.857729 
C 66.711312 96.763966 66.763995 96.636778 66.763995 96.504176 
C 66.763995 96.371575 66.711312 96.244386 66.617548 96.150623 
C 66.523785 96.056859 66.396596 96.004176 66.263995 96.004176 
C 66.131393 96.004176 66.004205 96.056859 65.910441 96.150623 
C 65.816678 96.244386 65.763995 96.371575 65.763995 96.504176 
C 65.763995 96.636778 65.816678 96.763966 65.910441 96.857729 
C 66.004205 96.951493 66.131393 97.004176 66.263995 97.004176 
z
" clip-path="url(#p0a9a2dd140)" style="stroke: #000000"/>
    <path d="M 62.20189 89.947911 
C 62.478735 89.947911 62.744279 89.837919 62.940038 89.64216 
C 63.135797 89.446401 63.245789 89.180857 63.245789 88.904012 
C 63.245789 88.627167 63.135797 88.361623 62.940038 88.165864 
C 62.744279 87.970105 62.478735 87.860113 62.20189 87.860113 
C 61.925045 87.860113 61.659501 87.970105 61.463742 88.165864 
C 61.267983 88.361623 61.157991 88.627167 61.157991 88.904012 
C 61.157991 89.180857 61.267983 89.446401 61.463742 89.64216 
C 61.659501 89.837919 61.925045 89.947911 62.20189 89.947911 
z
" clip-path="url(#p0a9a2dd140)" style="stroke: #000000"/>
    <path d="M 61.847915 84.513654 
C 62.187474 84.513654 62.513172 84.378745 62.753277 84.138641 
C 62.993381 83.898536 63.12829 83.572838 63.12829 83.233279 
C 63.12829 82.89372 62.993381 82.568022 62.753277 82.327917 
C 62.513172 82.087812 62.187474 81.952904 61.847915 81.952904 
C 61.508355 81.952904 61.182658 82.087812 60.942553 82.327917 
C 60.702448 82.568022 60.56754 82.89372 60.56754 83.233279 
C 60.56754 83.572838 60.702448 83.898536 60.942553 84.138641 
C 61.182658 84.378745 61.508355 84.513654 61.847915 84.513654 
z
" clip-path="url(#p0a9a2dd140)" style="stroke: #000000"/>
    <path d="M 56.009245 69.145463 
C 56.141847 69.145463 56.269035 69.09278 56.362798 68.999017 
C 56.456562 68.905253 56.509245 68.778065 56.509245 68.645463 
C 56.509245 68.512862 56.456562 68.385674 56.362798 68.29191 
C 56.269035 68.198147 56.141847 68.145463 56.009245 68.145463 
C 55.876644 68.145463 55.749455 68.198147 55.655692 68.29191 
C 55.561928 68.385674 55.509245 68.512862 55.509245 68.645463 
C 55.509245 68.778065 55.561928 68.905253 55.655692 68.999017 
C 55.749455 69.09278 55.876644 69.145463 56.009245 69.145463 
z
" clip-path="url(#p0a9a2dd140)" style="stroke: #000000"/>
    <path d="M 74.188393 133.698698 
C 74.320995 133.698698 74.448183 133.646015 74.541946 133.552251 
C 74.63571 133.458488 74.688393 133.3313 74.688393 133.198698 
C 74.688393 133.066096 74.63571 132.938908 74.541946 132.845145 
C 74.448183 132.751381 74.320995 132.698698 74.188393 132.698698 
C 74.055791 132.698698 73.928603 132.751381 73.83484 132.845145 
C 73.741076 132.938908 73.688393 133.066096 73.688393 133.198698 
C 73.688393 133.3313 73.741076 133.458488 73.83484 133.552251 
C 73.928603 133.646015 74.055791 133.698698 74.188393 133.698698 
z
" clip-path="url(#p0a9a2dd140)" style="stroke: #000000"/>
    <path d="M 72.859283 130.705395 
C 73.375676 130.705395 73.870989 130.50023 74.236134 130.135085 
C 74.601279 129.76994 74.806444 129.274627 74.806444 128.758234 
C 74.806444 128.241841 74.601279 127.746528 74.236134 127.381383 
C 73.870989 127.016238 73.375676 126.811072 72.859283 126.811072 
C 72.342889 126.811072 71.847577 127.016238 71.482432 127.381383 
C 71.117287 127.746528 70.912121 128.241841 70.912121 128.758234 
C 70.912121 129.274627 71.117287 129.76994 71.482432 130.135085 
C 71.847577 130.50023 72.342889 130.705395 72.859283 130.705395 
z
" clip-path="url(#p0a9a2dd140)" style="stroke: #000000"/>
    <path d="M 71.206158 124.841021 
C 71.363848 124.841021 71.515102 124.77837 71.626606 124.666866 
C 71.73811 124.555362 71.800761 124.404108 71.800761 124.246418 
C 71.800761 124.088727 71.73811 123.937474 71.626606 123.82597 
C 71.515102 123.714465 71.363848 123.651814 71.206158 123.651814 
C 71.048467 123.651814 70.897214 123.714465 70.78571 123.82597 
C 70.674205 123.937474 70.611554 124.088727 70.611554 124.246418 
C 70.611554 124.404108 70.674205 124.555362 70.78571 124.666866 
C 70.897214 124.77837 71.048467 124.841021 71.206158 124.841021 
z
" clip-path="url(#p0a9a2dd140)" style="stroke: #000000"/>
    <path d="M 70.35661 122.262038 
C 70.92892 122.262038 71.477866 122.034657 71.88255 121.629973 
C 72.287234 121.225289 72.514615 120.676343 72.514615 120.104034 
C 72.514615 119.531724 72.287234 118.982778 71.88255 118.578094 
C 71.477866 118.17341 70.92892 117.946029 70.35661 117.946029 
C 69.7843 117.946029 69.235354 118.17341 68.83067 118.578094 
C 68.425986 118.982778 68.198605 119.531724 68.198605 120.104034 
C 68.198605 120.676343 68.425986 121.225289 68.83067 121.629973 
C 69.235354 122.034657 69.7843 122.262038 70.35661 122.262038 
z
" clip-path="url(#p0a9a2dd140)" style="stroke: #000000"/>
    <path d="M 66.352217 117.718989 
C 66.526731 117.718989 66.69412 117.649654 66.81752 117.526255 
C 66.940919 117.402855 67.010254 117.235466 67.010254 117.060952 
C 67.010254 116.886439 66.940919 116.719049 66.81752 116.59565 
C 66.69412 116.47225 66.526731 116.402915 66.352217 116.402915 
C 66.177704 116.402915 66.010314 116.47225 65.886915 116.59565 
C 65.763515 116.719049 65.69418 116.886439 65.69418 117.060952 
C 65.69418 117.235466 65.763515 117.402855 65.886915 117.526255 
C 66.010314 117.649654 66.177704 117.718989 66.352217 117.718989 
z
" clip-path="url(#p0a9a2dd140)" style="stroke: #000000"/>
    <path d="M 65.952059 113.379045 
C 66.311516 113.379045 66.656299 113.236231 66.910474 112.982057 
C 67.164648 112.727882 67.307462 112.383099 67.307462 112.023642 
C 67.307462 111.664185 67.164648 111.319402 66.910474 111.065227 
C 66.656299 110.811053 66.311516 110.668239 65.952059 110.668239 
C 65.592602 110.668239 65.247819 110.811053 64.993644 111.065227 
C 64.73947 111.319402 64.596656 111.664185 64.596656 112.023642 
C 64.596656 112.383099 64.73947 112.727882 64.993644 112.982057 
C 65.247819 113.236231 65.592602 113.379045 65.952059 113.379045 
z
" clip-path="url(#p0a9a2dd140)" style="stroke: #000000"/>
    <path d="M 64.939799 109.663867 
C 65.492576 109.663867 66.022788 109.444246 66.41366 109.053374 
C 66.804533 108.662501 67.024154 108.132289 67.024154 107.579512 
C 67.024154 107.026734 66.804533 106.496523 66.41366 106.10565 
C 66.022788 105.714777 65.492576 105.495157 64.939799 105.495157 
C 64.387021 105.495157 63.856809 105.714777 63.465937 106.10565 
C 63.075064 106.496523 62.855443 107.026734 62.855443 107.579512 
C 62.855443 108.132289 63.075064 108.662501 63.465937 109.053374 
C 63.856809 109.444246 64.387021 109.663867 64.939799 109.663867 
z
" clip-path="url(#p0a9a2dd140)" style="stroke: #000000"/>
    <path d="M 61.637348 99.504524 
C 61.853035 99.504524 62.059916 99.418831 62.21243 99.266317 
C 62.364943 99.113804 62.450636 98.906922 62.450636 98.691236 
C 62.450636 98.475549 62.364943 98.268668 62.21243 98.116154 
C 62.059916 97.963641 61.853035 97.877948 61.637348 97.877948 
C 61.421662 97.877948 61.21478 97.963641 61.062266 98.116154 
C 60.909753 98.268668 60.82406 98.475549 60.82406 98.691236 
C 60.82406 98.906922 60.909753 99.113804 61.062266 99.266317 
C 61.21478 99.418831 61.421662 99.504524 61.637348 99.504524 
z
" clip-path="url(#p0a9a2dd140)" style="stroke: #000000"/>
    <path d="M 61.281389 94.845622 
C 61.41399 94.845622 61.541179 94.792939 61.634942 94.699175 
C 61.728705 94.605412 61.781389 94.478223 61.781389 94.345622 
C 61.781389 94.21302 61.728705 94.085832 61.634942 93.992068 
C 61.541179 93.898305 61.41399 93.845622 61.281389 93.845622 
C 61.148787 93.845622 61.021599 93.898305 60.927835 93.992068 
C 60.834072 94.085832 60.781389 94.21302 60.781389 94.345622 
C 60.781389 94.478223 60.834072 94.605412 60.927835 94.699175 
C 61.021599 94.792939 61.148787 94.845622 61.281389 94.845622 
z
" clip-path="url(#p0a9a2dd140)" style="stroke: #000000"/>
    <path d="M 61.407374 91.942029 
C 61.697763 91.942029 61.976298 91.826657 62.181634 91.62132 
C 62.386971 91.415984 62.502344 91.137449 62.502344 90.84706 
C 62.502344 90.556671 62.386971 90.278136 62.181634 90.0728 
C 61.976298 89.867464 61.697763 89.752091 61.407374 89.752091 
C 61.116985 89.752091 60.83845 89.867464 60.633114 90.0728 
C 60.427778 90.278136 60.312405 90.556671 60.312405 90.84706 
C 60.312405 91.137449 60.427778 91.415984 60.633114 91.62132 
C 60.83845 91.826657 61.116985 91.942029 61.407374 91.942029 
z
" clip-path="url(#p0a9a2dd140)" style="stroke: #000000"/>
    <path d="M 68.92457 135.639366 
C 69.329546 135.639366 69.717989 135.478468 70.004349 135.192107 
C 70.29071 134.905747 70.451608 134.517304 70.451608 134.112329 
C 70.451608 133.707353 70.29071 133.31891 70.004349 133.03255 
C 69.717989 132.746189 69.329546 132.585291 68.92457 132.585291 
C 68.519595 132.585291 68.131152 132.746189 67.844792 133.03255 
C 67.558431 133.31891 67.397533 133.707353 67.397533 134.112329 
C 67.397533 134.517304 67.558431 134.905747 67.844792 135.192107 
C 68.131152 135.478468 68.519595 135.639366 68.92457 135.639366 
z
" clip-path="url(#p0a9a2dd140)" style="stroke: #000000"/>
    <path d="M 67.176911 131.707695 
C 67.660573 131.707695 68.124491 131.515534 68.466492 131.173533 
C 68.808492 130.831532 69.000653 130.367615 69.000653 129.883953 
C 69.000653 129.400291 68.808492 128.936373 68.466492 128.594373 
C 68.124491 128.252372 67.660573 128.060211 67.176911 128.060211 
C 66.693249 128.060211 66.229332 128.252372 65.887331 128.594373 
C 65.545331 128.936373 65.35317 129.400291 65.35317 129.883953 
C 65.35317 130.367615 65.545331 130.831532 65.887331 131.173533 
C 66.229332 131.515534 66.693249 131.707695 67.176911 131.707695 
z
" clip-path="url(#p0a9a2dd140)" style="stroke: #000000"/>
    <path d="M 67.374482 127.327371 
C 67.582015 127.327371 67.781075 127.244917 67.927823 127.09817 
C 68.074571 126.951422 68.157024 126.752361 68.157024 126.544829 
C 68.157024 126.337296 68.074571 126.138235 67.927823 125.991488 
C 67.781075 125.84474 67.582015 125.762286 67.374482 125.762286 
C 67.166949 125.762286 66.967889 125.84474 66.821141 125.991488 
C 66.674393 126.138235 66.59194 126.337296 66.59194 126.544829 
C 66.59194 126.752361 66.674393 126.951422 66.821141 127.09817 
C 66.967889 127.244917 67.166949 127.327371 67.374482 127.327371 
z
" clip-path="url(#p0a9a2dd140)" style="stroke: #000000"/>
    <path d="M 65.178727 122.762278 
C 65.408399 122.762278 65.628696 122.671028 65.791099 122.508625 
C 65.953502 122.346222 66.044752 122.125925 66.044752 121.896252 
C 66.044752 121.66658 65.953502 121.446283 65.791099 121.28388 
C 65.628696 121.121477 65.408399 121.030227 65.178727 121.030227 
C 64.949054 121.030227 64.728757 121.121477 64.566354 121.28388 
C 64.403951 121.446283 64.312701 121.66658 64.312701 121.896252 
C 64.312701 122.125925 64.403951 122.346222 64.566354 122.508625 
C 64.728757 122.671028 64.949054 122.762278 65.178727 122.762278 
z
" clip-path="url(#p0a9a2dd140)" style="stroke: #000000"/>
    <path d="M 64.461831 117.227079 
C 64.636345 117.227079 64.803734 117.157744 64.927134 117.034344 
C 65.050533 116.910944 65.119868 116.743555 65.119868 116.569042 
C 65.119868 116.394528 65.050533 116.227139 64.927134 116.103739 
C 64.803734 115.98034 64.636345 115.911005 64.461831 115.911005 
C 64.287318 115.911005 64.119929 115.98034 63.996529 116.103739 
C 63.873129 116.227139 63.803794 116.394528 63.803794 116.569042 
C 63.803794 116.743555 63.873129 116.910944 63.996529 117.034344 
C 64.119929 117.157744 64.287318 117.227079 64.461831 117.227079 
z
" clip-path="url(#p0a9a2dd140)" style="stroke: #000000"/>
    <path d="M 58.524185 107.689039 
C 59.036604 107.689039 59.528104 107.485453 59.890438 107.123119 
C 60.252773 106.760784 60.456359 106.269284 60.456359 105.756865 
C 60.456359 105.244447 60.252773 104.752947 59.890438 104.390612 
C 59.528104 104.028278 59.036604 103.824692 58.524185 103.824692 
C 58.011767 103.824692 57.520266 104.028278 57.157932 104.390612 
C 56.795597 104.752947 56.592011 105.244447 56.592011 105.756865 
C 56.592011 106.269284 56.795597 106.760784 57.157932 107.123119 
C 57.520266 107.485453 58.011767 107.689039 58.524185 107.689039 
z
" clip-path="url(#p0a9a2dd140)" style="stroke: #000000"/>
    <path d="M 57.78089 101.198783 
C 58.14363 101.198783 58.491562 101.054665 58.748058 100.798169 
C 59.004554 100.541673 59.148672 100.193741 59.148672 99.831001 
C 59.148672 99.468261 59.004554 99.120329 58.748058 98.863833 
C 58.491562 98.607337 58.14363 98.463219 57.78089 98.463219 
C 57.41815 98.463219 57.070218 98.607337 56.813722 98.863833 
C 56.557226 99.120329 56.413107 99.468261 56.413107 99.831001 
C 56.413107 100.193741 56.557226 100.541673 56.813722 100.798169 
C 57.070218 101.054665 57.41815 101.198783 57.78089 101.198783 
z
" clip-path="url(#p0a9a2dd140)" style="stroke: #000000"/>
    <path d="M 46.364008 73.914356 
C 46.521699 73.914356 46.672952 73.851705 46.784456 73.740201 
C 46.895961 73.628697 46.958612 73.477443 46.958612 73.319753 
C 46.958612 73.162062 46.895961 73.010809 46.784456 72.899305 
C 46.672952 72.7878 46.521699 72.725149 46.364008 72.725149 
C 46.206318 72.725149 46.055064 72.7878 45.94356 72.899305 
C 45.832056 73.010809 45.769405 73.162062 45.769405 73.319753 
C 45.769405 73.477443 45.832056 73.628697 45.94356 73.740201 
C 46.055064 73.851705 46.206318 73.914356 46.364008 73.914356 
z
" clip-path="url(#p0a9a2dd140)" style="stroke: #000000"/>
    <path d="M 65.642821 140.130224 
C 65.884309 140.130224 66.11594 140.034279 66.286698 139.863521 
C 66.457456 139.692763 66.553401 139.461132 66.553401 139.219644 
C 66.553401 138.978155 66.457456 138.746525 66.286698 138.575766 
C 66.11594 138.405008 65.884309 138.309063 65.642821 138.309063 
C 65.401332 138.309063 65.169702 138.405008 64.998943 138.575766 
C 64.828185 138.746525 64.732241 138.978155 64.732241 139.219644 
C 64.732241 139.461132 64.828185 139.692763 64.998943 139.863521 
C 65.169702 140.034279 65.401332 140.130224 65.642821 140.130224 
z
" clip-path="url(#p0a9a2dd140)" style="stroke: #000000"/>
    <path d="M 59.618018 119.711829 
C 59.825551 119.711829 60.024611 119.629375 60.171359 119.482628 
C 60.318107 119.33588 60.40056 119.136819 60.40056 118.929287 
C 60.40056 118.721754 60.318107 118.522693 60.171359 118.375946 
C 60.024611 118.229198 59.825551 118.146744 59.618018 118.146744 
C 59.410485 118.146744 59.211425 118.229198 59.064677 118.375946 
C 58.917929 118.522693 58.835476 118.721754 58.835476 118.929287 
C 58.835476 119.136819 58.917929 119.33588 59.064677 119.482628 
C 59.211425 119.629375 59.410485 119.711829 59.618018 119.711829 
z
" clip-path="url(#p0a9a2dd140)" style="stroke: #000000"/>
    <path d="M 49.329457 87.944852 
C 49.503971 87.944852 49.67136 87.875517 49.79476 87.752118 
C 49.918159 87.628718 49.987494 87.461329 49.987494 87.286815 
C 49.987494 87.112302 49.918159 86.944913 49.79476 86.821513 
C 49.67136 86.698113 49.503971 86.628778 49.329457 86.628778 
C 49.154944 86.628778 48.987555 86.698113 48.864155 86.821513 
C 48.740755 86.944913 48.67142 87.112302 48.67142 87.286815 
C 48.67142 87.461329 48.740755 87.628718 48.864155 87.752118 
C 48.987555 87.875517 49.154944 87.944852 49.329457 87.944852 
z
" clip-path="url(#p0a9a2dd140)" style="stroke: #000000"/>
    <path d="M 45.429646 79.55268 
C 45.562247 79.55268 45.689436 79.499997 45.783199 79.406233 
C 45.876963 79.31247 45.929646 79.185281 45.929646 79.05268 
C 45.929646 78.920078 45.876963 78.79289 45.783199 78.699126 
C 45.689436 78.605363 45.562247 78.55268 45.429646 78.55268 
C 45.297044 78.55268 45.169856 78.605363 45.076092 78.699126 
C 44.982329 78.79289 44.929646 78.920078 44.929646 79.05268 
C 44.929646 79.185281 44.982329 79.31247 45.076092 79.406233 
C 45.169856 79.499997 45.297044 79.55268 45.429646 79.55268 
z
" clip-path="url(#p0a9a2dd140)" style="stroke: #000000"/>
    <path d="M 44.603239 75.47801 
C 44.76093 75.47801 44.912183 75.415359 45.023688 75.303855 
C 45.135192 75.192351 45.197843 75.041098 45.197843 74.883407 
C 45.197843 74.725716 45.135192 74.574463 45.023688 74.462959 
C 44.912183 74.351455 44.76093 74.288803 44.603239 74.288803 
C 44.445549 74.288803 44.294295 74.351455 44.182791 74.462959 
C 44.071287 74.574463 44.008636 74.725716 44.008636 74.883407 
C 44.008636 75.041098 44.071287 75.192351 44.182791 75.303855 
C 44.294295 75.415359 44.445549 75.47801 44.603239 75.47801 
z
" clip-path="url(#p0a9a2dd140)" style="stroke: #000000"/>
    <path d="M 76.495078 176.356979 
C 76.627679 176.356979 76.754868 176.304296 76.848631 176.210532 
C 76.942395 176.116769 76.995078 175.989581 76.995078 175.856979 
C 76.995078 175.724377 76.942395 175.597189 76.848631 175.503426 
C 76.754868 175.409662 76.627679 175.356979 76.495078 175.356979 
C 76.362476 175.356979 76.235288 175.409662 76.141524 175.503426 
C 76.047761 175.597189 75.995078 175.724377 75.995078 175.856979 
C 75.995078 175.989581 76.047761 176.116769 76.141524 176.210532 
C 76.235288 176.304296 76.362476 176.356979 76.495078 176.356979 
z
" clip-path="url(#p0a9a2dd140)" style="stroke: #000000"/>
    <path d="M 71.432649 168.097196 
C 71.56525 168.097196 71.692439 168.044513 71.786202 167.950749 
C 71.879966 167.856986 71.932649 167.729797 71.932649 167.597196 
C 71.932649 167.464594 71.879966 167.337406 71.786202 167.243642 
C 71.692439 167.149879 71.56525 167.097196 71.432649 167.097196 
C 71.300047 167.097196 71.172859 167.149879 71.079095 167.243642 
C 70.985332 167.337406 70.932649 167.464594 70.932649 167.597196 
C 70.932649 167.729797 70.985332 167.856986 71.079095 167.950749 
C 71.172859 168.044513 71.300047 168.097196 71.432649 168.097196 
z
" clip-path="url(#p0a9a2dd140)" style="stroke: #000000"/>
    <path d="M 60.218311 138.086898 
C 60.441319 138.086898 60.655224 137.998296 60.812915 137.840605 
C 60.970605 137.682915 61.059207 137.46901 61.059207 137.246002 
C 61.059207 137.022993 60.970605 136.809089 60.812915 136.651398 
C 60.655224 136.493708 60.441319 136.405105 60.218311 136.405105 
C 59.995303 136.405105 59.781398 136.493708 59.623707 136.651398 
C 59.466017 136.809089 59.377415 137.022993 59.377415 137.246002 
C 59.377415 137.46901 59.466017 137.682915 59.623707 137.840605 
C 59.781398 137.998296 59.995303 138.086898 60.218311 138.086898 
z
" clip-path="url(#p0a9a2dd140)" style="stroke: #000000"/>
    <path d="M 56.545023 124.844267 
C 56.945261 124.844267 57.32916 124.685251 57.612171 124.40224 
C 57.895182 124.119229 58.054198 123.73533 58.054198 123.335092 
C 58.054198 122.934854 57.895182 122.550955 57.612171 122.267944 
C 57.32916 121.984934 56.945261 121.825917 56.545023 121.825917 
C 56.144786 121.825917 55.760887 121.984934 55.477876 122.267944 
C 55.194865 122.550955 55.035849 122.934854 55.035849 123.335092 
C 55.035849 123.73533 55.194865 124.119229 55.477876 124.40224 
C 55.760887 124.685251 56.144786 124.844267 56.545023 124.844267 
z
" clip-path="url(#p0a9a2dd140)" style="stroke: #000000"/>
    <path d="M 53.226369 120.78587 
C 53.688088 120.78587 54.130958 120.602427 54.457443 120.275942 
C 54.783928 119.949457 54.967371 119.506587 54.967371 119.044868 
C 54.967371 118.583148 54.783928 118.140278 54.457443 117.813793 
C 54.130958 117.487308 53.688088 117.303865 53.226369 117.303865 
C 52.764649 117.303865 52.321779 117.487308 51.995294 117.813793 
C 51.668809 118.140278 51.485366 118.583148 51.485366 119.044868 
C 51.485366 119.506587 51.668809 119.949457 51.995294 120.275942 
C 52.321779 120.602427 52.764649 120.78587 53.226369 120.78587 
z
" clip-path="url(#p0a9a2dd140)" style="stroke: #000000"/>
    <path d="M 53.833285 117.159682 
C 54.301162 117.159682 54.749939 116.973793 55.080778 116.642954 
C 55.411617 116.312115 55.597506 115.863338 55.597506 115.395462 
C 55.597506 114.927585 55.411617 114.478808 55.080778 114.147969 
C 54.749939 113.81713 54.301162 113.631241 53.833285 113.631241 
C 53.365409 113.631241 52.916632 113.81713 52.585793 114.147969 
C 52.254954 114.478808 52.069065 114.927585 52.069065 115.395462 
C 52.069065 115.863338 52.254954 116.312115 52.585793 116.642954 
C 52.916632 116.973793 53.365409 117.159682 53.833285 117.159682 
z
" clip-path="url(#p0a9a2dd140)" style="stroke: #000000"/>
    <path d="M 53.242891 115.283347 
C 53.705393 115.283347 54.149015 115.099593 54.476054 114.772555 
C 54.803092 114.445516 54.986847 114.001894 54.986847 113.539392 
C 54.986847 113.076889 54.803092 112.633268 54.476054 112.306229 
C 54.149015 111.97919 53.705393 111.795436 53.242891 111.795436 
C 52.780389 111.795436 52.336767 111.97919 52.009728 112.306229 
C 51.68269 112.633268 51.498935 113.076889 51.498935 113.539392 
C 51.498935 114.001894 51.68269 114.445516 52.009728 114.772555 
C 52.336767 115.099593 52.780389 115.283347 53.242891 115.283347 
z
" clip-path="url(#p0a9a2dd140)" style="stroke: #000000"/>
    <path d="M 49.186702 109.94886 
C 49.344393 109.94886 49.495646 109.886208 49.607151 109.774704 
C 49.718655 109.6632 49.781306 109.511947 49.781306 109.354256 
C 49.781306 109.196565 49.718655 109.045312 49.607151 108.933808 
C 49.495646 108.822304 49.344393 108.759652 49.186702 108.759652 
C 49.029012 108.759652 48.877758 108.822304 48.766254 108.933808 
C 48.65475 109.045312 48.592099 109.196565 48.592099 109.354256 
C 48.592099 109.511947 48.65475 109.6632 48.766254 109.774704 
C 48.877758 109.886208 49.029012 109.94886 49.186702 109.94886 
z
" clip-path="url(#p0a9a2dd140)" style="stroke: #000000"/>
    <path d="M 47.609311 99.274603 
C 47.783824 99.274603 47.951214 99.205268 48.074613 99.081868 
C 48.198013 98.958468 48.267348 98.791079 48.267348 98.616566 
C 48.267348 98.442052 48.198013 98.274663 48.074613 98.151263 
C 47.951214 98.027864 47.783824 97.958529 47.609311 97.958529 
C 47.434797 97.958529 47.267408 98.027864 47.144008 98.151263 
C 47.020609 98.274663 46.951274 98.442052 46.951274 98.616566 
C 46.951274 98.791079 47.020609 98.958468 47.144008 99.081868 
C 47.267408 99.205268 47.434797 99.274603 47.609311 99.274603 
z
" clip-path="url(#p0a9a2dd140)" style="stroke: #000000"/>
    <path d="M 43.179892 85.864625 
C 43.337582 85.864625 43.488836 85.801974 43.60034 85.69047 
C 43.711844 85.578966 43.774495 85.427712 43.774495 85.270022 
C 43.774495 85.112331 43.711844 84.961078 43.60034 84.849574 
C 43.488836 84.738069 43.337582 84.675418 43.179892 84.675418 
C 43.022201 84.675418 42.870948 84.738069 42.759443 84.849574 
C 42.647939 84.961078 42.585288 85.112331 42.585288 85.270022 
C 42.585288 85.427712 42.647939 85.578966 42.759443 85.69047 
C 42.870948 85.801974 43.022201 85.864625 43.179892 85.864625 
z
" clip-path="url(#p0a9a2dd140)" style="stroke: #000000"/>
    <path d="M 41.772334 81.367242 
C 41.904935 81.367242 42.032123 81.314559 42.125887 81.220796 
C 42.21965 81.127032 42.272334 80.999844 42.272334 80.867242 
C 42.272334 80.734641 42.21965 80.607452 42.125887 80.513689 
C 42.032123 80.419925 41.904935 80.367242 41.772334 80.367242 
C 41.639732 80.367242 41.512544 80.419925 41.41878 80.513689 
C 41.325017 80.607452 41.272334 80.734641 41.272334 80.867242 
C 41.272334 80.999844 41.325017 81.127032 41.41878 81.220796 
C 41.512544 81.314559 41.639732 81.367242 41.772334 81.367242 
z
" clip-path="url(#p0a9a2dd140)" style="stroke: #000000"/>
    <path d="M 61.644406 151.703269 
C 61.777008 151.703269 61.904196 151.650586 61.997959 151.556822 
C 62.091723 151.463059 62.144406 151.33587 62.144406 151.203269 
C 62.144406 151.070667 62.091723 150.943479 61.997959 150.849715 
C 61.904196 150.755952 61.777008 150.703269 61.644406 150.703269 
C 61.511805 150.703269 61.384616 150.755952 61.290853 150.849715 
C 61.197089 150.943479 61.144406 151.070667 61.144406 151.203269 
C 61.144406 151.33587 61.197089 151.463059 61.290853 151.556822 
C 61.384616 151.650586 61.511805 151.703269 61.644406 151.703269 
z
" clip-path="url(#p0a9a2dd140)" style="stroke: #000000"/>
    <path d="M 60.833472 148.465742 
C 60.991163 148.465742 61.142416 148.40309 61.25392 148.291586 
C 61.365424 148.180082 61.428076 148.028829 61.428076 147.871138 
C 61.428076 147.713447 61.365424 147.562194 61.25392 147.45069 
C 61.142416 147.339186 60.991163 147.276534 60.833472 147.276534 
C 60.675781 147.276534 60.524528 147.339186 60.413024 147.45069 
C 60.30152 147.562194 60.238868 147.713447 60.238868 147.871138 
C 60.238868 148.028829 60.30152 148.180082 60.413024 148.291586 
C 60.524528 148.40309 60.675781 148.465742 60.833472 148.465742 
z
" clip-path="url(#p0a9a2dd140)" style="stroke: #000000"/>
    <path d="M 44.680374 109.628855 
C 44.910046 109.628855 45.130343 109.537605 45.292746 109.375202 
C 45.455149 109.212799 45.546399 108.992502 45.546399 108.762829 
C 45.546399 108.533157 45.455149 108.31286 45.292746 108.150457 
C 45.130343 107.988054 44.910046 107.896804 44.680374 107.896804 
C 44.450701 107.896804 44.230404 107.988054 44.068001 108.150457 
C 43.905598 108.31286 43.814348 108.533157 43.814348 108.762829 
C 43.814348 108.992502 43.905598 109.212799 44.068001 109.375202 
C 44.230404 109.537605 44.450701 109.628855 44.680374 109.628855 
z
" clip-path="url(#p0a9a2dd140)" style="stroke: #000000"/>
    <path d="M 52.271871 139.824279 
C 52.470156 139.824279 52.660347 139.745499 52.800556 139.60529 
C 52.940765 139.465081 53.019545 139.27489 53.019545 139.076604 
C 53.019545 138.878319 52.940765 138.688128 52.800556 138.547919 
C 52.660347 138.40771 52.470156 138.32893 52.271871 138.32893 
C 52.073585 138.32893 51.883394 138.40771 51.743185 138.547919 
C 51.602976 138.688128 51.524196 138.878319 51.524196 139.076604 
C 51.524196 139.27489 51.602976 139.465081 51.743185 139.60529 
C 51.883394 139.745499 52.073585 139.824279 52.271871 139.824279 
z
" clip-path="url(#p0a9a2dd140)" style="stroke: #000000"/>
    <path d="M 49.809835 132.29902 
C 50.025521 132.29902 50.232403 132.213327 50.384916 132.060813 
C 50.53743 131.9083 50.623123 131.701418 50.623123 131.485732 
C 50.623123 131.270045 50.53743 131.063163 50.384916 130.91065 
C 50.232403 130.758136 50.025521 130.672443 49.809835 130.672443 
C 49.594148 130.672443 49.387266 130.758136 49.234753 130.91065 
C 49.08224 131.063163 48.996546 131.270045 48.996546 131.485732 
C 48.996546 131.701418 49.08224 131.9083 49.234753 132.060813 
C 49.387266 132.213327 49.594148 132.29902 49.809835 132.29902 
z
" clip-path="url(#p0a9a2dd140)" style="stroke: #000000"/>
    <path d="M 42.798666 115.210682 
C 42.97318 115.210682 43.140569 115.141347 43.263969 115.017947 
C 43.387368 114.894548 43.456703 114.727159 43.456703 114.552645 
C 43.456703 114.378132 43.387368 114.210742 43.263969 114.087343 
C 43.140569 113.963943 42.97318 113.894608 42.798666 113.894608 
C 42.624153 113.894608 42.456763 113.963943 42.333364 114.087343 
C 42.209964 114.210742 42.140629 114.378132 42.140629 114.552645 
C 42.140629 114.727159 42.209964 114.894548 42.333364 115.017947 
C 42.456763 115.141347 42.624153 115.210682 42.798666 115.210682 
z
" clip-path="url(#p0a9a2dd140)" style="stroke: #000000"/>
    <path d="M 41.814303 110.793485 
C 42.050106 110.793485 42.276282 110.6998 42.44302 110.533062 
C 42.609758 110.366324 42.703443 110.140148 42.703443 109.904345 
C 42.703443 109.668543 42.609758 109.442366 42.44302 109.275629 
C 42.276282 109.108891 42.050106 109.015206 41.814303 109.015206 
C 41.578501 109.015206 41.352324 109.108891 41.185586 109.275629 
C 41.018849 109.442366 40.925163 109.668543 40.925163 109.904345 
C 40.925163 110.140148 41.018849 110.366324 41.185586 110.533062 
C 41.352324 110.6998 41.578501 110.793485 41.814303 110.793485 
z
" clip-path="url(#p0a9a2dd140)" style="stroke: #000000"/>
    <path d="M 32.00479 83.761153 
C 32.137392 83.761153 32.26458 83.70847 32.358343 83.614706 
C 32.452107 83.520943 32.50479 83.393754 32.50479 83.261153 
C 32.50479 83.128551 32.452107 83.001363 32.358343 82.907599 
C 32.26458 82.813836 32.137392 82.761153 32.00479 82.761153 
C 31.872189 82.761153 31.745 82.813836 31.651237 82.907599 
C 31.557473 83.001363 31.50479 83.128551 31.50479 83.261153 
C 31.50479 83.393754 31.557473 83.520943 31.651237 83.614706 
C 31.745 83.70847 31.872189 83.761153 32.00479 83.761153 
z
" clip-path="url(#p0a9a2dd140)" style="stroke: #000000"/>
    <path d="M 51.178019 152.246647 
C 51.31062 152.246647 51.437809 152.193963 51.531572 152.1002 
C 51.625335 152.006436 51.678019 151.879248 51.678019 151.746647 
C 51.678019 151.614045 51.625335 151.486857 51.531572 151.393093 
C 51.437809 151.29933 51.31062 151.246647 51.178019 151.246647 
C 51.045417 151.246647 50.918229 151.29933 50.824465 151.393093 
C 50.730702 151.486857 50.678019 151.614045 50.678019 151.746647 
C 50.678019 151.879248 50.730702 152.006436 50.824465 152.1002 
C 50.918229 152.193963 51.045417 152.246647 51.178019 152.246647 
z
" clip-path="url(#p0a9a2dd140)" style="stroke: #000000"/>
    <path d="M 32.30702 118.669582 
C 32.439622 118.669582 32.56681 118.616899 32.660574 118.523136 
C 32.754337 118.429372 32.80702 118.302184 32.80702 118.169582 
C 32.80702 118.036981 32.754337 117.909792 32.660574 117.816029 
C 32.56681 117.722265 32.439622 117.669582 32.30702 117.669582 
C 32.174419 117.669582 32.04723 117.722265 31.953467 117.816029 
C 31.859703 117.909792 31.80702 118.036981 31.80702 118.169582 
C 31.80702 118.302184 31.859703 118.429372 31.953467 118.523136 
C 32.04723 118.616899 32.174419 118.669582 32.30702 118.669582 
z
" clip-path="url(#p0a9a2dd140)" style="stroke: #000000"/>
    <path d="M 30.397281 109.978663 
C 30.529883 109.978663 30.657071 109.92598 30.750834 109.832217 
C 30.844598 109.738453 30.897281 109.611265 30.897281 109.478663 
C 30.897281 109.346062 30.844598 109.218873 30.750834 109.12511 
C 30.657071 109.031346 30.529883 108.978663 30.397281 108.978663 
C 30.26468 108.978663 30.137491 109.031346 30.043728 109.12511 
C 29.949964 109.218873 29.897281 109.346062 29.897281 109.478663 
C 29.897281 109.611265 29.949964 109.738453 30.043728 109.832217 
C 30.137491 109.92598 30.26468 109.978663 30.397281 109.978663 
z
" clip-path="url(#p0a9a2dd140)" style="stroke: #000000"/>
    <path d="M 46.813809 175.058377 
C 46.94641 175.058377 47.073599 175.005694 47.167362 174.911931 
C 47.261125 174.818167 47.313809 174.690979 47.313809 174.558377 
C 47.313809 174.425776 47.261125 174.298588 47.167362 174.204824 
C 47.073599 174.111061 46.94641 174.058377 46.813809 174.058377 
C 46.681207 174.058377 46.554019 174.111061 46.460255 174.204824 
C 46.366492 174.298588 46.313809 174.425776 46.313809 174.558377 
C 46.313809 174.690979 46.366492 174.818167 46.460255 174.911931 
C 46.554019 175.005694 46.681207 175.058377 46.813809 175.058377 
z
" clip-path="url(#p0a9a2dd140)" style="stroke: #000000"/>
   </g>
   <g id="matplotlib.axis_1">
    <g id="xtick_1">
     <g id="line2d_1">
      <defs>
       <path id="m159e6d12bd" d="M 0 0 
L 0 3.5 
" style="stroke: #000000; stroke-width: 0.8"/>
      </defs>
      <g>
       <use xlink:href="#m159e6d12bd" x="18" y="189" style="stroke: #000000; stroke-width: 0.8"/>
      </g>
     </g>
     <g id="text_1">
      <!-- 10 -->
      <g transform="translate(7.447656 203.598437)scale(0.1 -0.1)">
       <defs>
        <path id="DejaVuSans-2212" d="M 678 2272 
L 4684 2272 
L 4684 1741 
L 678 1741 
L 678 2272 
z
" transform="scale(0.015625)"/>
        <path id="DejaVuSans-31" d="M 794 531 
L 1825 531 
L 1825 4091 
L 703 3866 
L 703 4441 
L 1819 4666 
L 2450 4666 
L 2450 531 
L 3481 531 
L 3481 0 
L 794 0 
L 794 531 
z
" transform="scale(0.015625)"/>
        <path id="DejaVuSans-30" d="M 2034 4250 
Q 1547 4250 1301 3770 
Q 1056 3291 1056 2328 
Q 1056 1369 1301 889 
Q 1547 409 2034 409 
Q 2525 409 2770 889 
Q 3016 1369 3016 2328 
Q 3016 3291 2770 3770 
Q 2525 4250 2034 4250 
z
M 2034 4750 
Q 2819 4750 3233 4129 
Q 3647 3509 3647 2328 
Q 3647 1150 3233 529 
Q 2819 -91 2034 -91 
Q 1250 -91 836 529 
Q 422 1150 422 2328 
Q 422 3509 836 4129 
Q 1250 4750 2034 4750 
z
" transform="scale(0.015625)"/>
       </defs>
       <use xlink:href="#DejaVuSans-2212"/>
       <use xlink:href="#DejaVuSans-31" x="83.789062"/>
       <use xlink:href="#DejaVuSans-30" x="147.412109"/>
      </g>
     </g>
    </g>
    <g id="xtick_2">
     <g id="line2d_2">
      <g>
       <use xlink:href="#m159e6d12bd" x="73.8" y="189" style="stroke: #000000; stroke-width: 0.8"/>
      </g>
     </g>
     <g id="text_2">
      <!-- 0 -->
      <g transform="translate(70.61875 203.598437)scale(0.1 -0.1)">
       <use xlink:href="#DejaVuSans-30"/>
      </g>
     </g>
    </g>
    <g id="xtick_3">
     <g id="line2d_3">
      <g>
       <use xlink:href="#m159e6d12bd" x="129.6" y="189" style="stroke: #000000; stroke-width: 0.8"/>
      </g>
     </g>
     <g id="text_3">
      <!-- 10 -->
      <g transform="translate(123.2375 203.598437)scale(0.1 -0.1)">
       <use xlink:href="#DejaVuSans-31"/>
       <use xlink:href="#DejaVuSans-30" x="63.623047"/>
      </g>
     </g>
    </g>
   </g>
   <g id="matplotlib.axis_2">
    <g id="ytick_1">
     <g id="line2d_4">
      <defs>
       <path id="m2f4dcacd6e" d="M 0 0 
L -3.5 0 
" style="stroke: #000000; stroke-width: 0.8"/>
      </defs>
      <g>
       <use xlink:href="#m2f4dcacd6e" x="18" y="189" style="stroke: #000000; stroke-width: 0.8"/>
      </g>
     </g>
     <g id="text_4">
      <!-- 15 -->
      <g transform="translate(-10.104688 192.799219)scale(0.1 -0.1)">
       <defs>
        <path id="DejaVuSans-35" d="M 691 4666 
L 3169 4666 
L 3169 4134 
L 1269 4134 
L 1269 2991 
Q 1406 3038 1543 3061 
Q 1681 3084 1819 3084 
Q 2600 3084 3056 2656 
Q 3513 2228 3513 1497 
Q 3513 744 3044 326 
Q 2575 -91 1722 -91 
Q 1428 -91 1123 -41 
Q 819 9 494 109 
L 494 744 
Q 775 591 1075 516 
Q 1375 441 1709 441 
Q 2250 441 2565 725 
Q 2881 1009 2881 1497 
Q 2881 1984 2565 2268 
Q 2250 2553 1709 2553 
Q 1456 2553 1204 2497 
Q 953 2441 691 2322 
L 691 4666 
z
" transform="scale(0.015625)"/>
       </defs>
       <use xlink:href="#DejaVuSans-2212"/>
       <use xlink:href="#DejaVuSans-31" x="83.789062"/>
       <use xlink:href="#DejaVuSans-35" x="147.412109"/>
      </g>
     </g>
    </g>
    <g id="ytick_2">
     <g id="line2d_5">
      <g>
       <use xlink:href="#m2f4dcacd6e" x="18" y="161.82" style="stroke: #000000; stroke-width: 0.8"/>
      </g>
     </g>
     <g id="text_5">
      <!-- 10 -->
      <g transform="translate(-10.104688 165.619219)scale(0.1 -0.1)">
       <use xlink:href="#DejaVuSans-2212"/>
       <use xlink:href="#DejaVuSans-31" x="83.789062"/>
       <use xlink:href="#DejaVuSans-30" x="147.412109"/>
      </g>
     </g>
    </g>
    <g id="ytick_3">
     <g id="line2d_6">
      <g>
       <use xlink:href="#m2f4dcacd6e" x="18" y="134.64" style="stroke: #000000; stroke-width: 0.8"/>
      </g>
     </g>
     <g id="text_6">
      <!-- 5 -->
      <g transform="translate(-3.742188 138.439219)scale(0.1 -0.1)">
       <use xlink:href="#DejaVuSans-2212"/>
       <use xlink:href="#DejaVuSans-35" x="83.789062"/>
      </g>
     </g>
    </g>
    <g id="ytick_4">
     <g id="line2d_7">
      <g>
       <use xlink:href="#m2f4dcacd6e" x="18" y="107.46" style="stroke: #000000; stroke-width: 0.8"/>
      </g>
     </g>
     <g id="text_7">
      <!-- 0 -->
      <g transform="translate(4.6375 111.259219)scale(0.1 -0.1)">
       <use xlink:href="#DejaVuSans-30"/>
      </g>
     </g>
    </g>
    <g id="ytick_5">
     <g id="line2d_8">
      <g>
       <use xlink:href="#m2f4dcacd6e" x="18" y="80.28" style="stroke: #000000; stroke-width: 0.8"/>
      </g>
     </g>
     <g id="text_8">
      <!-- 5 -->
      <g transform="translate(4.6375 84.079219)scale(0.1 -0.1)">
       <use xlink:href="#DejaVuSans-35"/>
      </g>
     </g>
    </g>
    <g id="ytick_6">
     <g id="line2d_9">
      <g>
       <use xlink:href="#m2f4dcacd6e" x="18" y="53.1" style="stroke: #000000; stroke-width: 0.8"/>
      </g>
     </g>
     <g id="text_9">
      <!-- 10 -->
      <g transform="translate(-1.725 56.899219)scale(0.1 -0.1)">
       <use xlink:href="#DejaVuSans-31"/>
       <use xlink:href="#DejaVuSans-30" x="63.623047"/>
      </g>
     </g>
    </g>
    <g id="ytick_7">
     <g id="line2d_10">
      <g>
       <use xlink:href="#m2f4dcacd6e" x="18" y="25.92" style="stroke: #000000; stroke-width: 0.8"/>
      </g>
     </g>
     <g id="text_10">
      <!-- 15 -->
      <g transform="translate(-1.725 29.719219)scale(0.1 -0.1)">
       <use xlink:href="#DejaVuSans-31"/>
       <use xlink:href="#DejaVuSans-35" x="63.623047"/>
      </g>
     </g>
    </g>
   </g>
   <g id="patch_3">
    <path d="M 18 189 
L 18 25.92 
" style="fill: none; stroke: #000000; stroke-width: 0.8; stroke-linejoin: miter; stroke-linecap: square"/>
   </g>
   <g id="patch_4">
    <path d="M 129.6 189 
L 129.6 25.92 
" style="fill: none; stroke: #000000; stroke-width: 0.8; stroke-linejoin: miter; stroke-linecap: square"/>
   </g>
   <g id="patch_5">
    <path d="M 18 189 
L 129.6 189 
" style="fill: none; stroke: #000000; stroke-width: 0.8; stroke-linejoin: miter; stroke-linecap: square"/>
   </g>
   <g id="patch_6">
    <path d="M 18 25.92 
L 129.6 25.92 
" style="fill: none; stroke: #000000; stroke-width: 0.8; stroke-linejoin: miter; stroke-linecap: square"/>
   </g>
  </g>
 </g>
 <defs>
  <clipPath id="p0a9a2dd140">
   <rect x="18" y="25.92" width="111.6" height="163.08"/>
  </clipPath>
 </defs>
</svg>
