<?xml version="1.0" encoding="utf-8" standalone="no"?>
<!DOCTYPE svg PUBLIC "-//W3C//DTD SVG 1.1//EN"
  "http://www.w3.org/Graphics/SVG/1.1/DTD/svg11.dtd">
<svg xmlns:xlink="http://www.w3.org/1999/xlink" width="144pt" height="216pt" viewBox="0 0 144 216" xmlns="http://www.w3.org/2000/svg" version="1.1">
 <metadata>
  <rdf:RDF xmlns:dc="http://purl.org/dc/elements/1.1/" xmlns:cc="http://creativecommons.org/ns#" xmlns:rdf="http://www.w3.org/1999/02/22-rdf-syntax-ns#">
   <cc:Work>
    <dc:type rdf:resource="http://purl.org/dc/dcmitype/StillImage"/>
    <dc:date>2022-06-23T14:44:05.759720</dc:date>
    <dc:format>image/svg+xml</dc:format>
    <dc:creator>
     <cc:Agent>
      <dc:title>Matplotlib v3.5.1, https://matplotlib.org/</dc:title>
     </cc:Agent>
    </dc:creator>
   </cc:Work>
  </rdf:RDF>
 </metadata>
 <defs>
  <style type="text/css">*{stroke-linejoin: round; stroke-linecap: butt}</style>
 </defs>
 <g id="figure_1">
  <g id="patch_1">
   <path d="M 0 216 
L 144 216 
L 144 0 
L 0 0 
L 0 216 
z
" style="fill: none"/>
  </g>
  <g id="axes_1">
   <g id="patch_2">
    <path d="M 18 189 
L 129.6 189 
L 129.6 25.92 
L 18 25.92 
z
" style="fill: #ffffff"/>
   </g>
   <g id="PathCollection_1">
    <defs>
     <path id="m9273b4b521" d="M 0 2.738613 
C 0.726289 2.738613 1.422928 2.450055 1.936492 1.936492 
C 2.450055 1.422928 2.738613 0.726289 2.738613 0 
C 2.738613 -0.726289 2.450055 -1.422928 1.936492 -1.936492 
C 1.422928 -2.450055 0.726289 -2.738613 0 -2.738613 
C -0.726289 -2.738613 -1.422928 -2.450055 -1.936492 -1.936492 
C -2.450055 -1.422928 -2.738613 -0.726289 -2.738613 0 
C -2.738613 0.726289 -2.450055 1.422928 -1.936492 1.936492 
C -1.422928 2.450055 -0.726289 2.738613 0 2.738613 
z
" style="stroke: #ff0000; stroke-width: 1.75"/>
    </defs>
    <g clip-path="url(#p55071ec7f4)">
     <use xlink:href="#m9273b4b521" x="80.775" y="83.92143" style="fill: #ff0000; stroke: #ff0000; stroke-width: 1.75"/>
     <use xlink:href="#m9273b4b521" x="59.85" y="95.690715" style="fill: #ff0000; stroke: #ff0000; stroke-width: 1.75"/>
     <use xlink:href="#m9273b4b521" x="66.825" y="107.46" style="fill: #ff0000; stroke: #ff0000; stroke-width: 1.75"/>
     <use xlink:href="#m9273b4b521" x="80.775" y="107.46" style="fill: #ff0000; stroke: #ff0000; stroke-width: 1.75"/>
     <use xlink:href="#m9273b4b521" x="94.725" y="107.46" style="fill: #ff0000; stroke: #ff0000; stroke-width: 1.75"/>
     <use xlink:href="#m9273b4b521" x="59.85" y="119.229285" style="fill: #ff0000; stroke: #ff0000; stroke-width: 1.75"/>
     <use xlink:href="#m9273b4b521" x="80.775" y="130.99857" style="fill: #ff0000; stroke: #ff0000; stroke-width: 1.75"/>
    </g>
   </g>
   <g id="PathCollection_2">
    <defs>
     <path id="C0_0_a407b59063" d="M 0 2.738613 
C 0.726289 2.738613 1.422928 2.450055 1.936492 1.936492 
C 2.450055 1.422928 2.738613 0.726289 2.738613 -0 
C 2.738613 -0.726289 2.450055 -1.422928 1.936492 -1.936492 
C 1.422928 -2.450055 0.726289 -2.738613 0 -2.738613 
C -0.726289 -2.738613 -1.422928 -2.450055 -1.936492 -1.936492 
C -2.450055 -1.422928 -2.738613 -0.726289 -2.738613 0 
C -2.738613 0.726289 -2.450055 1.422928 -1.936492 1.936492 
C -1.422928 2.450055 -0.726289 2.738613 0 2.738613 
z
"/>
    </defs>
    <g clip-path="url(#p55071ec7f4)">
     <use xlink:href="#C0_0_a407b59063" x="66.825" y="83.92143" style="fill: none; stroke: #ff0000; stroke-width: 1.75"/>
    </g>
    <g clip-path="url(#p55071ec7f4)">
     <use xlink:href="#C0_0_a407b59063" x="73.8" y="95.690715" style="fill: none; stroke: #ff0000; stroke-width: 1.75"/>
    </g>
    <g clip-path="url(#p55071ec7f4)">
     <use xlink:href="#C0_0_a407b59063" x="87.75" y="95.690715" style="fill: none; stroke: #ff0000; stroke-width: 1.75"/>
    </g>
    <g clip-path="url(#p55071ec7f4)">
     <use xlink:href="#C0_0_a407b59063" x="52.875" y="107.46" style="fill: none; stroke: #ff0000; stroke-width: 1.75"/>
    </g>
    <g clip-path="url(#p55071ec7f4)">
     <use xlink:href="#C0_0_a407b59063" x="73.8" y="119.229285" style="fill: none; stroke: #ff0000; stroke-width: 1.75"/>
    </g>
    <g clip-path="url(#p55071ec7f4)">
     <use xlink:href="#C0_0_a407b59063" x="87.75" y="119.229285" style="fill: none; stroke: #ff0000; stroke-width: 1.75"/>
    </g>
    <g clip-path="url(#p55071ec7f4)">
     <use xlink:href="#C0_0_a407b59063" x="66.825" y="130.99857" style="fill: none; stroke: #ff0000; stroke-width: 1.75"/>
    </g>
   </g>
   <g id="PathCollection_3">
    <path d="M 98.008779 109.423483 
C 98.556453 109.423483 99.081769 109.20589 99.469033 108.818626 
C 99.856296 108.431362 100.073889 107.906046 100.073889 107.358373 
C 100.073889 106.810699 99.856296 106.285383 99.469033 105.898119 
C 99.081769 105.510855 98.556453 105.293262 98.008779 105.293262 
C 97.461106 105.293262 96.935789 105.510855 96.548526 105.898119 
C 96.161262 106.285383 95.943669 106.810699 95.943669 107.358373 
C 95.943669 107.906046 96.161262 108.431362 96.548526 108.818626 
C 96.935789 109.20589 97.461106 109.423483 98.008779 109.423483 
z
" clip-path="url(#p55071ec7f4)" style="stroke: #000000"/>
    <path d="M 84.753346 98.76213 
C 85.279028 98.76213 85.78325 98.553274 86.154963 98.181561 
C 86.526676 97.809848 86.735531 97.305626 86.735531 96.779945 
C 86.735531 96.254263 86.526676 95.750041 86.154963 95.378328 
C 85.78325 95.006615 85.279028 94.79776 84.753346 94.79776 
C 84.227664 94.79776 83.723442 95.006615 83.351729 95.378328 
C 82.980016 95.750041 82.771161 96.254263 82.771161 96.779945 
C 82.771161 97.305626 82.980016 97.809848 83.351729 98.181561 
C 83.723442 98.553274 84.227664 98.76213 84.753346 98.76213 
z
" clip-path="url(#p55071ec7f4)" style="stroke: #000000"/>
    <path d="M 81.552985 86.850599 
C 82.08698 86.850599 82.599176 86.63844 82.976768 86.260848 
C 83.35436 85.883256 83.566519 85.37106 83.566519 84.837065 
C 83.566519 84.303069 83.35436 83.790873 82.976768 83.413281 
C 82.599176 83.03569 82.08698 82.823531 81.552985 82.823531 
C 81.018989 82.823531 80.506793 83.03569 80.129201 83.413281 
C 79.751609 83.790873 79.539451 84.303069 79.539451 84.837065 
C 79.539451 85.37106 79.751609 85.883256 80.129201 86.260848 
C 80.506793 86.63844 81.018989 86.850599 81.552985 86.850599 
z
" clip-path="url(#p55071ec7f4)" style="stroke: #000000"/>
    <path d="M 83.488968 83.310456 
C 83.859547 83.310456 84.214998 83.163223 84.477037 82.901184 
C 84.739076 82.639145 84.886309 82.283694 84.886309 81.913114 
C 84.886309 81.542535 84.739076 81.187084 84.477037 80.925045 
C 84.214998 80.663006 83.859547 80.515773 83.488968 80.515773 
C 83.118389 80.515773 82.762937 80.663006 82.500898 80.925045 
C 82.238859 81.187084 82.091627 81.542535 82.091627 81.913114 
C 82.091627 82.283694 82.238859 82.639145 82.500898 82.901184 
C 82.762937 83.163223 83.118389 83.310456 83.488968 83.310456 
z
" clip-path="url(#p55071ec7f4)" style="stroke: #000000"/>
    <path d="M 87.156478 120.800916 
C 87.764135 120.800916 88.346986 120.559491 88.776664 120.129813 
C 89.206342 119.700135 89.447766 119.117285 89.447766 118.509628 
C 89.447766 117.901972 89.206342 117.319121 88.776664 116.889443 
C 88.346986 116.459765 87.764135 116.21834 87.156478 116.21834 
C 86.548822 116.21834 85.965971 116.459765 85.536293 116.889443 
C 85.106615 117.319121 84.865191 117.901972 84.865191 118.509628 
C 84.865191 119.117285 85.106615 119.700135 85.536293 120.129813 
C 85.965971 120.559491 86.548822 120.800916 87.156478 120.800916 
z
" clip-path="url(#p55071ec7f4)" style="stroke: #000000"/>
    <path d="M 82.87718 106.852078 
C 83.310466 106.852078 83.726064 106.679932 84.032444 106.373552 
C 84.338823 106.067173 84.51097 105.651575 84.51097 105.218288 
C 84.51097 104.785002 84.338823 104.369404 84.032444 104.063025 
C 83.726064 103.756645 83.310466 103.584499 82.87718 103.584499 
C 82.443894 103.584499 82.028295 103.756645 81.721916 104.063025 
C 81.415536 104.369404 81.24339 104.785002 81.24339 105.218288 
C 81.24339 105.651575 81.415536 106.067173 81.721916 106.373552 
C 82.028295 106.679932 82.443894 106.852078 82.87718 106.852078 
z
" clip-path="url(#p55071ec7f4)" style="stroke: #000000"/>
    <path d="M 75.300486 95.501207 
C 75.766846 95.501207 76.214168 95.31592 76.543935 94.986154 
C 76.873701 94.656387 77.058988 94.209065 77.058988 93.742705 
C 77.058988 93.276345 76.873701 92.829023 76.543935 92.499256 
C 76.214168 92.16949 75.766846 91.984203 75.300486 91.984203 
C 74.834126 91.984203 74.386804 92.16949 74.057038 92.499256 
C 73.727271 92.829023 73.541984 93.276345 73.541984 93.742705 
C 73.541984 94.209065 73.727271 94.656387 74.057038 94.986154 
C 74.386804 95.31592 74.834126 95.501207 75.300486 95.501207 
z
" clip-path="url(#p55071ec7f4)" style="stroke: #000000"/>
    <path d="M 76.444142 86.419343 
C 76.7051 86.419343 76.955406 86.315663 77.139931 86.131137 
C 77.324457 85.946612 77.428137 85.696306 77.428137 85.435348 
C 77.428137 85.174389 77.324457 84.924084 77.139931 84.739559 
C 76.955406 84.555033 76.7051 84.451353 76.444142 84.451353 
C 76.183183 84.451353 75.932878 84.555033 75.748352 84.739559 
C 75.563827 84.924084 75.460147 85.174389 75.460147 85.435348 
C 75.460147 85.696306 75.563827 85.946612 75.748352 86.131137 
C 75.932878 86.315663 76.183183 86.419343 76.444142 86.419343 
z
" clip-path="url(#p55071ec7f4)" style="stroke: #000000"/>
    <path d="M 84.274408 134.667889 
C 84.448922 134.667889 84.616311 134.598554 84.739711 134.475154 
C 84.86311 134.351754 84.932445 134.184365 84.932445 134.009852 
C 84.932445 133.835338 84.86311 133.667949 84.739711 133.544549 
C 84.616311 133.42115 84.448922 133.351815 84.274408 133.351815 
C 84.099895 133.351815 83.932505 133.42115 83.809106 133.544549 
C 83.685706 133.667949 83.616371 133.835338 83.616371 134.009852 
C 83.616371 134.184365 83.685706 134.351754 83.809106 134.475154 
C 83.932505 134.598554 84.099895 134.667889 84.274408 134.667889 
z
" clip-path="url(#p55071ec7f4)" style="stroke: #000000"/>
    <path d="M 83.85413 127.181559 
C 83.986732 127.181559 84.11392 127.128875 84.207684 127.035112 
C 84.301447 126.941349 84.35413 126.81416 84.35413 126.681559 
C 84.35413 126.548957 84.301447 126.421769 84.207684 126.328005 
C 84.11392 126.234242 83.986732 126.181559 83.85413 126.181559 
C 83.721529 126.181559 83.59434 126.234242 83.500577 126.328005 
C 83.406813 126.421769 83.35413 126.548957 83.35413 126.681559 
C 83.35413 126.81416 83.406813 126.941349 83.500577 127.035112 
C 83.59434 127.128875 83.721529 127.181559 83.85413 127.181559 
z
" clip-path="url(#p55071ec7f4)" style="stroke: #000000"/>
    <path d="M 74.191025 98.031107 
C 74.703444 98.031107 75.194944 97.827521 75.557279 97.465186 
C 75.919613 97.102852 76.123199 96.611352 76.123199 96.098933 
C 76.123199 95.586515 75.919613 95.095014 75.557279 94.73268 
C 75.194944 94.370345 74.703444 94.166759 74.191025 94.166759 
C 73.678607 94.166759 73.187107 94.370345 72.824772 94.73268 
C 72.462438 95.095014 72.258852 95.586515 72.258852 96.098933 
C 72.258852 96.611352 72.462438 97.102852 72.824772 97.465186 
C 73.187107 97.827521 73.678607 98.031107 74.191025 98.031107 
z
" clip-path="url(#p55071ec7f4)" style="stroke: #000000"/>
    <path d="M 67.726982 87.809973 
C 68.287818 87.809973 68.825759 87.58715 69.222331 87.190579 
C 69.618902 86.794008 69.841724 86.256067 69.841724 85.69523 
C 69.841724 85.134394 69.618902 84.596453 69.222331 84.199881 
C 68.825759 83.80331 68.287818 83.580488 67.726982 83.580488 
C 67.166145 83.580488 66.628204 83.80331 66.231633 84.199881 
C 65.835062 84.596453 65.612239 85.134394 65.612239 85.69523 
C 65.612239 86.256067 65.835062 86.794008 66.231633 87.190579 
C 66.628204 87.58715 67.166145 87.809973 67.726982 87.809973 
z
" clip-path="url(#p55071ec7f4)" style="stroke: #000000"/>
    <path d="M 76.969601 130.580848 
C 77.346111 130.580848 77.707252 130.431259 77.973485 130.165026 
C 78.239718 129.898793 78.389307 129.537652 78.389307 129.161142 
C 78.389307 128.784632 78.239718 128.423491 77.973485 128.157258 
C 77.707252 127.891025 77.346111 127.741436 76.969601 127.741436 
C 76.593091 127.741436 76.231951 127.891025 75.965718 128.157258 
C 75.699485 128.423491 75.549895 128.784632 75.549895 129.161142 
C 75.549895 129.537652 75.699485 129.898793 75.965718 130.165026 
C 76.231951 130.431259 76.593091 130.580848 76.969601 130.580848 
z
" clip-path="url(#p55071ec7f4)" style="stroke: #000000"/>
    <path d="M 74.348924 124.238045 
C 74.666741 124.238045 74.971583 124.111775 75.196314 123.887044 
C 75.421044 123.662313 75.547314 123.357471 75.547314 123.039654 
C 75.547314 122.721837 75.421044 122.416994 75.196314 122.192263 
C 74.971583 121.967533 74.666741 121.841263 74.348924 121.841263 
C 74.031107 121.841263 73.726264 121.967533 73.501533 122.192263 
C 73.276803 122.416994 73.150533 122.721837 73.150533 123.039654 
C 73.150533 123.357471 73.276803 123.662313 73.501533 123.887044 
C 73.726264 124.111775 74.031107 124.238045 74.348924 124.238045 
z
" clip-path="url(#p55071ec7f4)" style="stroke: #000000"/>
    <path d="M 73.674052 117.209131 
C 73.98694 117.209131 74.287055 117.084819 74.508301 116.863574 
C 74.729546 116.642328 74.853858 116.342213 74.853858 116.029325 
C 74.853858 115.716437 74.729546 115.416322 74.508301 115.195077 
C 74.287055 114.973831 73.98694 114.84952 73.674052 114.84952 
C 73.361164 114.84952 73.061049 114.973831 72.839804 115.195077 
C 72.618558 115.416322 72.494247 115.716437 72.494247 116.029325 
C 72.494247 116.342213 72.618558 116.642328 72.839804 116.863574 
C 73.061049 117.084819 73.361164 117.209131 73.674052 117.209131 
z
" clip-path="url(#p55071ec7f4)" style="stroke: #000000"/>
    <path d="M 62.343992 87.106965 
C 62.476594 87.106965 62.603782 87.054282 62.697546 86.960519 
C 62.791309 86.866755 62.843992 86.739567 62.843992 86.606965 
C 62.843992 86.474364 62.791309 86.347175 62.697546 86.253412 
C 62.603782 86.159648 62.476594 86.106965 62.343992 86.106965 
C 62.211391 86.106965 62.084202 86.159648 61.990439 86.253412 
C 61.896675 86.347175 61.843992 86.474364 61.843992 86.606965 
C 61.843992 86.739567 61.896675 86.866755 61.990439 86.960519 
C 62.084202 87.054282 62.211391 87.106965 62.343992 87.106965 
z
" clip-path="url(#p55071ec7f4)" style="stroke: #000000"/>
    <path d="M 58.760401 100.995182 
C 58.947928 100.995182 59.1278 100.920677 59.260401 100.788075 
C 59.393003 100.655474 59.467508 100.475602 59.467508 100.288075 
C 59.467508 100.100548 59.393003 99.920677 59.260401 99.788075 
C 59.1278 99.655474 58.947928 99.580968 58.760401 99.580968 
C 58.572874 99.580968 58.393003 99.655474 58.260401 99.788075 
C 58.1278 99.920677 58.053295 100.100548 58.053295 100.288075 
C 58.053295 100.475602 58.1278 100.655474 58.260401 100.788075 
C 58.393003 100.920677 58.572874 100.995182 58.760401 100.995182 
z
" clip-path="url(#p55071ec7f4)" style="stroke: #000000"/>
    <path d="M 55.790045 95.790274 
C 56.046541 95.790274 56.292566 95.688367 56.473937 95.506997 
C 56.655307 95.325627 56.757214 95.079602 56.757214 94.823106 
C 56.757214 94.56661 56.655307 94.320585 56.473937 94.139215 
C 56.292566 93.957845 56.046541 93.855938 55.790045 93.855938 
C 55.533549 93.855938 55.287524 93.957845 55.106154 94.139215 
C 54.924784 94.320585 54.822877 94.56661 54.822877 94.823106 
C 54.822877 95.079602 54.924784 95.325627 55.106154 95.506997 
C 55.287524 95.688367 55.533549 95.790274 55.790045 95.790274 
z
" clip-path="url(#p55071ec7f4)" style="stroke: #000000"/>
    <path d="M 64.24106 133.878953 
C 64.774037 133.878953 65.285257 133.667198 65.662129 133.290327 
C 66.039001 132.913455 66.250755 132.402235 66.250755 131.869258 
C 66.250755 131.33628 66.039001 130.825061 65.662129 130.448189 
C 65.285257 130.071317 64.774037 129.859563 64.24106 129.859563 
C 63.708083 129.859563 63.196863 130.071317 62.819991 130.448189 
C 62.443119 130.825061 62.231365 131.33628 62.231365 131.869258 
C 62.231365 132.402235 62.443119 132.913455 62.819991 133.290327 
C 63.196863 133.667198 63.708083 133.878953 64.24106 133.878953 
z
" clip-path="url(#p55071ec7f4)" style="stroke: #000000"/>
    <path d="M 59.068395 123.382293 
C 59.60838 123.382293 60.126322 123.167754 60.508149 122.785927 
C 60.889976 122.4041 61.104514 121.886159 61.104514 121.346174 
C 61.104514 120.806189 60.889976 120.288247 60.508149 119.90642 
C 60.126322 119.524593 59.60838 119.310055 59.068395 119.310055 
C 58.52841 119.310055 58.010469 119.524593 57.628642 119.90642 
C 57.246814 120.288247 57.032276 120.806189 57.032276 121.346174 
C 57.032276 121.886159 57.246814 122.4041 57.628642 122.785927 
C 58.010469 123.167754 58.52841 123.382293 59.068395 123.382293 
z
" clip-path="url(#p55071ec7f4)" style="stroke: #000000"/>
    <path d="M 59.717937 118.694938 
C 60.227459 118.694938 60.716181 118.492503 61.076467 118.132217 
C 61.436753 117.771931 61.639188 117.283209 61.639188 116.773687 
C 61.639188 116.264165 61.436753 115.775444 61.076467 115.415158 
C 60.716181 115.054871 60.227459 114.852436 59.717937 114.852436 
C 59.208415 114.852436 58.719694 115.054871 58.359408 115.415158 
C 57.999121 115.775444 57.796686 116.264165 57.796686 116.773687 
C 57.796686 117.283209 57.999121 117.771931 58.359408 118.132217 
C 58.719694 118.492503 59.208415 118.694938 59.717937 118.694938 
z
" clip-path="url(#p55071ec7f4)" style="stroke: #000000"/>
    <path d="M 54.696897 112.020678 
C 55.019423 112.020678 55.328784 111.892537 55.556844 111.664476 
C 55.784905 111.436415 55.913046 111.127055 55.913046 110.804528 
C 55.913046 110.482001 55.784905 110.172641 55.556844 109.94458 
C 55.328784 109.71652 55.019423 109.588378 54.696897 109.588378 
C 54.37437 109.588378 54.06501 109.71652 53.836949 109.94458 
C 53.608888 110.172641 53.480747 110.482001 53.480747 110.804528 
C 53.480747 111.127055 53.608888 111.436415 53.836949 111.664476 
C 54.06501 111.892537 54.37437 112.020678 54.696897 112.020678 
z
" clip-path="url(#p55071ec7f4)" style="stroke: #000000"/>
    <path d="M 51.49129 103.081881 
C 51.623891 103.081881 51.75108 103.029198 51.844843 102.935435 
C 51.938607 102.841671 51.99129 102.714483 51.99129 102.581881 
C 51.99129 102.44928 51.938607 102.322091 51.844843 102.228328 
C 51.75108 102.134564 51.623891 102.081881 51.49129 102.081881 
C 51.358688 102.081881 51.2315 102.134564 51.137737 102.228328 
C 51.043973 102.322091 50.99129 102.44928 50.99129 102.581881 
C 50.99129 102.714483 51.043973 102.841671 51.137737 102.935435 
C 51.2315 103.029198 51.358688 103.081881 51.49129 103.081881 
z
" clip-path="url(#p55071ec7f4)" style="stroke: #000000"/>
   </g>
   <g id="matplotlib.axis_1">
    <g id="xtick_1">
     <g id="line2d_1">
      <defs>
       <path id="mc144e83d79" d="M 0 0 
L 0 3.5 
" style="stroke: #000000; stroke-width: 0.8"/>
      </defs>
      <g>
       <use xlink:href="#mc144e83d79" x="18" y="189" style="stroke: #000000; stroke-width: 0.8"/>
      </g>
     </g>
     <g id="text_1">
      <!-- −10 -->
      <g transform="translate(7.447656 203.598437)scale(0.1 -0.1)">
       <defs>
        <path id="DejaVuSans-2212" d="M 678 2272 
L 4684 2272 
L 4684 1741 
L 678 1741 
L 678 2272 
z
" transform="scale(0.015625)"/>
        <path id="DejaVuSans-31" d="M 794 531 
L 1825 531 
L 1825 4091 
L 703 3866 
L 703 4441 
L 1819 4666 
L 2450 4666 
L 2450 531 
L 3481 531 
L 3481 0 
L 794 0 
L 794 531 
z
" transform="scale(0.015625)"/>
        <path id="DejaVuSans-30" d="M 2034 4250 
Q 1547 4250 1301 3770 
Q 1056 3291 1056 2328 
Q 1056 1369 1301 889 
Q 1547 409 2034 409 
Q 2525 409 2770 889 
Q 3016 1369 3016 2328 
Q 3016 3291 2770 3770 
Q 2525 4250 2034 4250 
z
M 2034 4750 
Q 2819 4750 3233 4129 
Q 3647 3509 3647 2328 
Q 3647 1150 3233 529 
Q 2819 -91 2034 -91 
Q 1250 -91 836 529 
Q 422 1150 422 2328 
Q 422 3509 836 4129 
Q 1250 4750 2034 4750 
z
" transform="scale(0.015625)"/>
       </defs>
       <use xlink:href="#DejaVuSans-2212"/>
       <use xlink:href="#DejaVuSans-31" x="83.789062"/>
       <use xlink:href="#DejaVuSans-30" x="147.412109"/>
      </g>
     </g>
    </g>
    <g id="xtick_2">
     <g id="line2d_2">
      <g>
       <use xlink:href="#mc144e83d79" x="73.8" y="189" style="stroke: #000000; stroke-width: 0.8"/>
      </g>
     </g>
     <g id="text_2">
      <!-- 0 -->
      <g transform="translate(70.61875 203.598437)scale(0.1 -0.1)">
       <use xlink:href="#DejaVuSans-30"/>
      </g>
     </g>
    </g>
    <g id="xtick_3">
     <g id="line2d_3">
      <g>
       <use xlink:href="#mc144e83d79" x="129.6" y="189" style="stroke: #000000; stroke-width: 0.8"/>
      </g>
     </g>
     <g id="text_3">
      <!-- 10 -->
      <g transform="translate(123.2375 203.598437)scale(0.1 -0.1)">
       <use xlink:href="#DejaVuSans-31"/>
       <use xlink:href="#DejaVuSans-30" x="63.623047"/>
      </g>
     </g>
    </g>
   </g>
   <g id="matplotlib.axis_2">
    <g id="ytick_1">
     <g id="line2d_4">
      <defs>
       <path id="m3b129d61c5" d="M 0 0 
L -3.5 0 
" style="stroke: #000000; stroke-width: 0.8"/>
      </defs>
      <g>
       <use xlink:href="#m3b129d61c5" x="18" y="189" style="stroke: #000000; stroke-width: 0.8"/>
      </g>
     </g>
     <g id="text_4">
      <!-- −15 -->
      <g transform="translate(-10.104688 192.799219)scale(0.1 -0.1)">
       <defs>
        <path id="DejaVuSans-35" d="M 691 4666 
L 3169 4666 
L 3169 4134 
L 1269 4134 
L 1269 2991 
Q 1406 3038 1543 3061 
Q 1681 3084 1819 3084 
Q 2600 3084 3056 2656 
Q 3513 2228 3513 1497 
Q 3513 744 3044 326 
Q 2575 -91 1722 -91 
Q 1428 -91 1123 -41 
Q 819 9 494 109 
L 494 744 
Q 775 591 1075 516 
Q 1375 441 1709 441 
Q 2250 441 2565 725 
Q 2881 1009 2881 1497 
Q 2881 1984 2565 2268 
Q 2250 2553 1709 2553 
Q 1456 2553 1204 2497 
Q 953 2441 691 2322 
L 691 4666 
z
" transform="scale(0.015625)"/>
       </defs>
       <use xlink:href="#DejaVuSans-2212"/>
       <use xlink:href="#DejaVuSans-31" x="83.789062"/>
       <use xlink:href="#DejaVuSans-35" x="147.412109"/>
      </g>
     </g>
    </g>
    <g id="ytick_2">
     <g id="line2d_5">
      <g>
       <use xlink:href="#m3b129d61c5" x="18" y="161.82" style="stroke: #000000; stroke-width: 0.8"/>
      </g>
     </g>
     <g id="text_5">
      <!-- −10 -->
      <g transform="translate(-10.104688 165.619219)scale(0.1 -0.1)">
       <use xlink:href="#DejaVuSans-2212"/>
       <use xlink:href="#DejaVuSans-31" x="83.789062"/>
       <use xlink:href="#DejaVuSans-30" x="147.412109"/>
      </g>
     </g>
    </g>
    <g id="ytick_3">
     <g id="line2d_6">
      <g>
       <use xlink:href="#m3b129d61c5" x="18" y="134.64" style="stroke: #000000; stroke-width: 0.8"/>
      </g>
     </g>
     <g id="text_6">
      <!-- −5 -->
      <g transform="translate(-3.742188 138.439219)scale(0.1 -0.1)">
       <use xlink:href="#DejaVuSans-2212"/>
       <use xlink:href="#DejaVuSans-35" x="83.789062"/>
      </g>
     </g>
    </g>
    <g id="ytick_4">
     <g id="line2d_7">
      <g>
       <use xlink:href="#m3b129d61c5" x="18" y="107.46" style="stroke: #000000; stroke-width: 0.8"/>
      </g>
     </g>
     <g id="text_7">
      <!-- 0 -->
      <g transform="translate(4.6375 111.259219)scale(0.1 -0.1)">
       <use xlink:href="#DejaVuSans-30"/>
      </g>
     </g>
    </g>
    <g id="ytick_5">
     <g id="line2d_8">
      <g>
       <use xlink:href="#m3b129d61c5" x="18" y="80.28" style="stroke: #000000; stroke-width: 0.8"/>
      </g>
     </g>
     <g id="text_8">
      <!-- 5 -->
      <g transform="translate(4.6375 84.079219)scale(0.1 -0.1)">
       <use xlink:href="#DejaVuSans-35"/>
      </g>
     </g>
    </g>
    <g id="ytick_6">
     <g id="line2d_9">
      <g>
       <use xlink:href="#m3b129d61c5" x="18" y="53.1" style="stroke: #000000; stroke-width: 0.8"/>
      </g>
     </g>
     <g id="text_9">
      <!-- 10 -->
      <g transform="translate(-1.725 56.899219)scale(0.1 -0.1)">
       <use xlink:href="#DejaVuSans-31"/>
       <use xlink:href="#DejaVuSans-30" x="63.623047"/>
      </g>
     </g>
    </g>
    <g id="ytick_7">
     <g id="line2d_10">
      <g>
       <use xlink:href="#m3b129d61c5" x="18" y="25.92" style="stroke: #000000; stroke-width: 0.8"/>
      </g>
     </g>
     <g id="text_10">
      <!-- 15 -->
      <g transform="translate(-1.725 29.719219)scale(0.1 -0.1)">
       <use xlink:href="#DejaVuSans-31"/>
       <use xlink:href="#DejaVuSans-35" x="63.623047"/>
      </g>
     </g>
    </g>
   </g>
   <g id="patch_3">
    <path d="M 18 189 
L 18 25.92 
" style="fill: none; stroke: #000000; stroke-width: 0.8; stroke-linejoin: miter; stroke-linecap: square"/>
   </g>
   <g id="patch_4">
    <path d="M 129.6 189 
L 129.6 25.92 
" style="fill: none; stroke: #000000; stroke-width: 0.8; stroke-linejoin: miter; stroke-linecap: square"/>
   </g>
   <g id="patch_5">
    <path d="M 18 189 
L 129.6 189 
" style="fill: none; stroke: #000000; stroke-width: 0.8; stroke-linejoin: miter; stroke-linecap: square"/>
   </g>
   <g id="patch_6">
    <path d="M 18 25.92 
L 129.6 25.92 
" style="fill: none; stroke: #000000; stroke-width: 0.8; stroke-linejoin: miter; stroke-linecap: square"/>
   </g>
  </g>
 </g>
 <defs>
  <clipPath id="p55071ec7f4">
   <rect x="18" y="25.92" width="111.6" height="163.08"/>
  </clipPath>
 </defs>
</svg>
