<?xml version="1.0" encoding="utf-8" standalone="no"?>
<!DOCTYPE svg PUBLIC "-//W3C//DTD SVG 1.1//EN"
  "http://www.w3.org/Graphics/SVG/1.1/DTD/svg11.dtd">
<svg xmlns:xlink="http://www.w3.org/1999/xlink" width="144pt" height="216pt" viewBox="0 0 144 216" xmlns="http://www.w3.org/2000/svg" version="1.1">
 <metadata>
  <rdf:RDF xmlns:dc="http://purl.org/dc/elements/1.1/" xmlns:cc="http://creativecommons.org/ns#" xmlns:rdf="http://www.w3.org/1999/02/22-rdf-syntax-ns#">
   <cc:Work>
    <dc:type rdf:resource="http://purl.org/dc/dcmitype/StillImage"/>
    <dc:date>2022-06-23T14:44:01.028368</dc:date>
    <dc:format>image/svg+xml</dc:format>
    <dc:creator>
     <cc:Agent>
      <dc:title>Matplotlib v3.5.1, https://matplotlib.org/</dc:title>
     </cc:Agent>
    </dc:creator>
   </cc:Work>
  </rdf:RDF>
 </metadata>
 <defs>
  <style type="text/css">*{stroke-linejoin: round; stroke-linecap: butt}</style>
 </defs>
 <g id="figure_1">
  <g id="patch_1">
   <path d="M 0 216 
L 144 216 
L 144 0 
L 0 0 
L 0 216 
z
" style="fill: none"/>
  </g>
  <g id="axes_1">
   <g id="patch_2">
    <path d="M 18 189 
L 129.6 189 
L 129.6 25.92 
L 18 25.92 
z
" style="fill: #ffffff"/>
   </g>
   <g id="PathCollection_1">
    <defs>
     <path id="mc559d283af" d="M 0 2.738613 
C 0.726289 2.738613 1.422928 2.450055 1.936492 1.936492 
C 2.450055 1.422928 2.738613 0.726289 2.738613 0 
C 2.738613 -0.726289 2.450055 -1.422928 1.936492 -1.936492 
C 1.422928 -2.450055 0.726289 -2.738613 0 -2.738613 
C -0.726289 -2.738613 -1.422928 -2.450055 -1.936492 -1.936492 
C -2.450055 -1.422928 -2.738613 -0.726289 -2.738613 0 
C -2.738613 0.726289 -2.450055 1.422928 -1.936492 1.936492 
C -1.422928 2.450055 -0.726289 2.738613 0 2.738613 
z
" style="stroke: #ff0000; stroke-width: 1.75"/>
    </defs>
    <g clip-path="url(#p3fa53afa94)">
     <use xlink:href="#mc559d283af" x="80.775" y="83.92143" style="fill: #ff0000; stroke: #ff0000; stroke-width: 1.75"/>
     <use xlink:href="#mc559d283af" x="59.85" y="95.690715" style="fill: #ff0000; stroke: #ff0000; stroke-width: 1.75"/>
     <use xlink:href="#mc559d283af" x="66.825" y="107.46" style="fill: #ff0000; stroke: #ff0000; stroke-width: 1.75"/>
     <use xlink:href="#mc559d283af" x="80.775" y="107.46" style="fill: #ff0000; stroke: #ff0000; stroke-width: 1.75"/>
     <use xlink:href="#mc559d283af" x="94.725" y="107.46" style="fill: #ff0000; stroke: #ff0000; stroke-width: 1.75"/>
     <use xlink:href="#mc559d283af" x="59.85" y="119.229285" style="fill: #ff0000; stroke: #ff0000; stroke-width: 1.75"/>
     <use xlink:href="#mc559d283af" x="80.775" y="130.99857" style="fill: #ff0000; stroke: #ff0000; stroke-width: 1.75"/>
    </g>
   </g>
   <g id="PathCollection_2">
    <defs>
     <path id="C0_0_5ff366b0cc" d="M 0 2.738613 
C 0.726289 2.738613 1.422928 2.450055 1.936492 1.936492 
C 2.450055 1.422928 2.738613 0.726289 2.738613 -0 
C 2.738613 -0.726289 2.450055 -1.422928 1.936492 -1.936492 
C 1.422928 -2.450055 0.726289 -2.738613 0 -2.738613 
C -0.726289 -2.738613 -1.422928 -2.450055 -1.936492 -1.936492 
C -2.450055 -1.422928 -2.738613 -0.726289 -2.738613 0 
C -2.738613 0.726289 -2.450055 1.422928 -1.936492 1.936492 
C -1.422928 2.450055 -0.726289 2.738613 0 2.738613 
z
"/>
    </defs>
    <g clip-path="url(#p3fa53afa94)">
     <use xlink:href="#C0_0_5ff366b0cc" x="66.825" y="83.92143" style="fill: none; stroke: #ff0000; stroke-width: 1.75"/>
    </g>
    <g clip-path="url(#p3fa53afa94)">
     <use xlink:href="#C0_0_5ff366b0cc" x="73.8" y="95.690715" style="fill: none; stroke: #ff0000; stroke-width: 1.75"/>
    </g>
    <g clip-path="url(#p3fa53afa94)">
     <use xlink:href="#C0_0_5ff366b0cc" x="87.75" y="95.690715" style="fill: none; stroke: #ff0000; stroke-width: 1.75"/>
    </g>
    <g clip-path="url(#p3fa53afa94)">
     <use xlink:href="#C0_0_5ff366b0cc" x="52.875" y="107.46" style="fill: none; stroke: #ff0000; stroke-width: 1.75"/>
    </g>
    <g clip-path="url(#p3fa53afa94)">
     <use xlink:href="#C0_0_5ff366b0cc" x="73.8" y="119.229285" style="fill: none; stroke: #ff0000; stroke-width: 1.75"/>
    </g>
    <g clip-path="url(#p3fa53afa94)">
     <use xlink:href="#C0_0_5ff366b0cc" x="87.75" y="119.229285" style="fill: none; stroke: #ff0000; stroke-width: 1.75"/>
    </g>
    <g clip-path="url(#p3fa53afa94)">
     <use xlink:href="#C0_0_5ff366b0cc" x="66.825" y="130.99857" style="fill: none; stroke: #ff0000; stroke-width: 1.75"/>
    </g>
   </g>
   <g id="PathCollection_3">
    <path d="M 98.008779 109.423483 
C 98.556453 109.423483 99.081769 109.20589 99.469033 108.818626 
C 99.856296 108.431362 100.073889 107.906046 100.073889 107.358373 
C 100.073889 106.810699 99.856296 106.285383 99.469033 105.898119 
C 99.081769 105.510855 98.556453 105.293262 98.008779 105.293262 
C 97.461106 105.293262 96.935789 105.510855 96.548526 105.898119 
C 96.161262 106.285383 95.943669 106.810699 95.943669 107.358373 
C 95.943669 107.906046 96.161262 108.431362 96.548526 108.818626 
C 96.935789 109.20589 97.461106 109.423483 98.008779 109.423483 
z
" clip-path="url(#p3fa53afa94)" style="stroke: #000000"/>
    <path d="M 91.201616 111.552304 
C 91.506643 111.552304 91.799218 111.431115 92.014904 111.215429 
C 92.230591 110.999742 92.351779 110.707167 92.351779 110.40214 
C 92.351779 110.097113 92.230591 109.804539 92.014904 109.588852 
C 91.799218 109.373165 91.506643 109.251977 91.201616 109.251977 
C 90.896589 109.251977 90.604014 109.373165 90.388328 109.588852 
C 90.172641 109.804539 90.051453 110.097113 90.051453 110.40214 
C 90.051453 110.707167 90.172641 110.999742 90.388328 111.215429 
C 90.604014 111.431115 90.896589 111.552304 91.201616 111.552304 
z
" clip-path="url(#p3fa53afa94)" style="stroke: #000000"/>
    <path d="M 84.753346 98.785779 
C 85.285299 98.785779 85.795537 98.574431 86.171685 98.198283 
C 86.547832 97.822136 86.75918 97.311898 86.75918 96.779945 
C 86.75918 96.247991 86.547832 95.737754 86.171685 95.361606 
C 85.795537 94.985458 85.285299 94.774111 84.753346 94.774111 
C 84.221393 94.774111 83.711155 94.985458 83.335007 95.361606 
C 82.958859 95.737754 82.747512 96.247991 82.747512 96.779945 
C 82.747512 97.311898 82.958859 97.822136 83.335007 98.198283 
C 83.711155 98.574431 84.221393 98.785779 84.753346 98.785779 
z
" clip-path="url(#p3fa53afa94)" style="stroke: #000000"/>
    <path d="M 81.552985 86.844832 
C 82.085451 86.844832 82.59618 86.633281 82.97269 86.256771 
C 83.349201 85.88026 83.560752 85.369531 83.560752 84.837065 
C 83.560752 84.304599 83.349201 83.793869 82.97269 83.417359 
C 82.59618 83.040849 82.085451 82.829298 81.552985 82.829298 
C 81.020519 82.829298 80.509789 83.040849 80.133279 83.417359 
C 79.756769 83.793869 79.545218 84.304599 79.545218 84.837065 
C 79.545218 85.369531 79.756769 85.88026 80.133279 86.256771 
C 80.509789 86.633281 81.020519 86.844832 81.552985 86.844832 
z
" clip-path="url(#p3fa53afa94)" style="stroke: #000000"/>
    <path d="M 83.488968 83.364506 
C 83.873881 83.364506 84.243082 83.211578 84.515257 82.939403 
C 84.787432 82.667228 84.940359 82.298028 84.940359 81.913114 
C 84.940359 81.528201 84.787432 81.159001 84.515257 80.886826 
C 84.243082 80.614651 83.873881 80.461723 83.488968 80.461723 
C 83.104054 80.461723 82.734854 80.614651 82.462679 80.886826 
C 82.190504 81.159001 82.037576 81.528201 82.037576 81.913114 
C 82.037576 82.298028 82.190504 82.667228 82.462679 82.939403 
C 82.734854 83.211578 83.104054 83.364506 83.488968 83.364506 
z
" clip-path="url(#p3fa53afa94)" style="stroke: #000000"/>
    <path d="M 88.92534 124.723627 
C 89.057941 124.723627 89.18513 124.670944 89.278893 124.577181 
C 89.372657 124.483417 89.42534 124.356229 89.42534 124.223627 
C 89.42534 124.091026 89.372657 123.963837 89.278893 123.870074 
C 89.18513 123.776311 89.057941 123.723627 88.92534 123.723627 
C 88.792738 123.723627 88.66555 123.776311 88.571786 123.870074 
C 88.478023 123.963837 88.42534 124.091026 88.42534 124.223627 
C 88.42534 124.356229 88.478023 124.483417 88.571786 124.577181 
C 88.66555 124.670944 88.792738 124.723627 88.92534 124.723627 
z
" clip-path="url(#p3fa53afa94)" style="stroke: #000000"/>
    <path d="M 87.156478 120.797009 
C 87.763099 120.797009 88.344956 120.555996 88.773901 120.127051 
C 89.202847 119.698105 89.44386 119.116249 89.44386 118.509628 
C 89.44386 117.903008 89.202847 117.321151 88.773901 116.892205 
C 88.344956 116.46326 87.763099 116.222247 87.156478 116.222247 
C 86.549858 116.222247 85.968001 116.46326 85.539056 116.892205 
C 85.11011 117.321151 84.869097 117.903008 84.869097 118.509628 
C 84.869097 119.116249 85.11011 119.698105 85.539056 120.127051 
C 85.968001 120.555996 86.549858 120.797009 87.156478 120.797009 
z
" clip-path="url(#p3fa53afa94)" style="stroke: #000000"/>
    <path d="M 82.87718 106.837554 
C 83.306614 106.837554 83.718518 106.666938 84.022174 106.363282 
C 84.32583 106.059626 84.496446 105.647723 84.496446 105.218288 
C 84.496446 104.788854 84.32583 104.37695 84.022174 104.073295 
C 83.718518 103.769639 83.306614 103.599023 82.87718 103.599023 
C 82.447745 103.599023 82.035842 103.769639 81.732186 104.073295 
C 81.42853 104.37695 81.257914 104.788854 81.257914 105.218288 
C 81.257914 105.647723 81.42853 106.059626 81.732186 106.363282 
C 82.035842 106.666938 82.447745 106.837554 82.87718 106.837554 
z
" clip-path="url(#p3fa53afa94)" style="stroke: #000000"/>
    <path d="M 75.300486 95.486661 
C 75.762989 95.486661 76.20661 95.302906 76.533649 94.975868 
C 76.860688 94.648829 77.044442 94.205207 77.044442 93.742705 
C 77.044442 93.280202 76.860688 92.836581 76.533649 92.509542 
C 76.20661 92.182503 75.762989 91.998749 75.300486 91.998749 
C 74.837984 91.998749 74.394362 92.182503 74.067323 92.509542 
C 73.740285 92.836581 73.556531 93.280202 73.556531 93.742705 
C 73.556531 94.205207 73.740285 94.648829 74.067323 94.975868 
C 74.394362 95.302906 74.837984 95.486661 75.300486 95.486661 
z
" clip-path="url(#p3fa53afa94)" style="stroke: #000000"/>
    <path d="M 76.444142 86.651498 
C 76.766668 86.651498 77.076029 86.523356 77.304089 86.295296 
C 77.53215 86.067235 77.660291 85.757875 77.660291 85.435348 
C 77.660291 85.112821 77.53215 84.803461 77.304089 84.5754 
C 77.076029 84.34734 76.766668 84.219198 76.444142 84.219198 
C 76.121615 84.219198 75.812255 84.34734 75.584194 84.5754 
C 75.356133 84.803461 75.227992 85.112821 75.227992 85.435348 
C 75.227992 85.757875 75.356133 86.067235 75.584194 86.295296 
C 75.812255 86.523356 76.121615 86.651498 76.444142 86.651498 
z
" clip-path="url(#p3fa53afa94)" style="stroke: #000000"/>
    <path d="M 84.274408 134.509852 
C 84.40701 134.509852 84.534198 134.457168 84.627962 134.363405 
C 84.721725 134.269642 84.774408 134.142453 84.774408 134.009852 
C 84.774408 133.87725 84.721725 133.750062 84.627962 133.656298 
C 84.534198 133.562535 84.40701 133.509852 84.274408 133.509852 
C 84.141807 133.509852 84.014618 133.562535 83.920855 133.656298 
C 83.827091 133.750062 83.774408 133.87725 83.774408 134.009852 
C 83.774408 134.142453 83.827091 134.269642 83.920855 134.363405 
C 84.014618 134.457168 84.141807 134.509852 84.274408 134.509852 
z
" clip-path="url(#p3fa53afa94)" style="stroke: #000000"/>
    <path d="M 83.85413 127.181559 
C 83.986732 127.181559 84.11392 127.128875 84.207684 127.035112 
C 84.301447 126.941349 84.35413 126.81416 84.35413 126.681559 
C 84.35413 126.548957 84.301447 126.421769 84.207684 126.328005 
C 84.11392 126.234242 83.986732 126.181559 83.85413 126.181559 
C 83.721529 126.181559 83.59434 126.234242 83.500577 126.328005 
C 83.406813 126.421769 83.35413 126.548957 83.35413 126.681559 
C 83.35413 126.81416 83.406813 126.941349 83.500577 127.035112 
C 83.59434 127.128875 83.721529 127.181559 83.85413 127.181559 
z
" clip-path="url(#p3fa53afa94)" style="stroke: #000000"/>
    <path d="M 74.191025 98.024576 
C 74.701712 98.024576 75.191551 97.821678 75.55266 97.460568 
C 75.91377 97.099458 76.116668 96.609619 76.116668 96.098933 
C 76.116668 95.588247 75.91377 95.098408 75.55266 94.737298 
C 75.191551 94.376188 74.701712 94.17329 74.191025 94.17329 
C 73.680339 94.17329 73.1905 94.376188 72.829391 94.737298 
C 72.468281 95.098408 72.265383 95.588247 72.265383 96.098933 
C 72.265383 96.609619 72.468281 97.099458 72.829391 97.460568 
C 73.1905 97.821678 73.680339 98.024576 74.191025 98.024576 
z
" clip-path="url(#p3fa53afa94)" style="stroke: #000000"/>
    <path d="M 67.726982 87.808319 
C 68.287379 87.808319 68.8249 87.58567 69.221161 87.189409 
C 69.617422 86.793148 69.84007 86.255628 69.84007 85.69523 
C 69.84007 85.134833 69.617422 84.597312 69.221161 84.201051 
C 68.8249 83.80479 68.287379 83.582142 67.726982 83.582142 
C 67.166584 83.582142 66.629064 83.80479 66.232803 84.201051 
C 65.836542 84.597312 65.613893 85.134833 65.613893 85.69523 
C 65.613893 86.255628 65.836542 86.793148 66.232803 87.189409 
C 66.629064 87.58567 67.166584 87.808319 67.726982 87.808319 
z
" clip-path="url(#p3fa53afa94)" style="stroke: #000000"/>
    <path d="M 76.969601 130.713853 
C 77.381385 130.713853 77.776359 130.55025 78.067534 130.259075 
C 78.358709 129.9679 78.522313 129.572926 78.522313 129.161142 
C 78.522313 128.749358 78.358709 128.354384 78.067534 128.063209 
C 77.776359 127.772034 77.381385 127.608431 76.969601 127.608431 
C 76.557817 127.608431 76.162844 127.772034 75.871668 128.063209 
C 75.580493 128.354384 75.41689 128.749358 75.41689 129.161142 
C 75.41689 129.572926 75.580493 129.9679 75.871668 130.259075 
C 76.162844 130.55025 76.557817 130.713853 76.969601 130.713853 
z
" clip-path="url(#p3fa53afa94)" style="stroke: #000000"/>
    <path d="M 74.348924 124.395057 
C 74.708381 124.395057 75.053164 124.252243 75.307338 123.998068 
C 75.561513 123.743894 75.704327 123.399111 75.704327 123.039654 
C 75.704327 122.680197 75.561513 122.335414 75.307338 122.081239 
C 75.053164 121.827065 74.708381 121.684251 74.348924 121.684251 
C 73.989467 121.684251 73.644683 121.827065 73.390509 122.081239 
C 73.136334 122.335414 72.993521 122.680197 72.993521 123.039654 
C 72.993521 123.399111 73.136334 123.743894 73.390509 123.998068 
C 73.644683 124.252243 73.989467 124.395057 74.348924 124.395057 
z
" clip-path="url(#p3fa53afa94)" style="stroke: #000000"/>
    <path d="M 73.674052 117.286759 
C 74.007527 117.286759 74.327389 117.154267 74.563192 116.918465 
C 74.798995 116.682662 74.931486 116.3628 74.931486 116.029325 
C 74.931486 115.69585 74.798995 115.375988 74.563192 115.140185 
C 74.327389 114.904383 74.007527 114.771892 73.674052 114.771892 
C 73.340577 114.771892 73.020715 114.904383 72.784913 115.140185 
C 72.54911 115.375988 72.416619 115.69585 72.416619 116.029325 
C 72.416619 116.3628 72.54911 116.682662 72.784913 116.918465 
C 73.020715 117.154267 73.340577 117.286759 73.674052 117.286759 
z
" clip-path="url(#p3fa53afa94)" style="stroke: #000000"/>
    <path d="M 62.343992 87.447862 
C 62.567001 87.447862 62.780905 87.35926 62.938596 87.201569 
C 63.096287 87.043878 63.184889 86.829974 63.184889 86.606965 
C 63.184889 86.383957 63.096287 86.170052 62.938596 86.012362 
C 62.780905 85.854671 62.567001 85.766069 62.343992 85.766069 
C 62.120984 85.766069 61.907079 85.854671 61.749389 86.012362 
C 61.591698 86.170052 61.503096 86.383957 61.503096 86.606965 
C 61.503096 86.829974 61.591698 87.043878 61.749389 87.201569 
C 61.907079 87.35926 62.120984 87.447862 62.343992 87.447862 
z
" clip-path="url(#p3fa53afa94)" style="stroke: #000000"/>
    <path d="M 73.510493 142.110244 
C 73.643094 142.110244 73.770283 142.057561 73.864046 141.963797 
C 73.95781 141.870034 74.010493 141.742845 74.010493 141.610244 
C 74.010493 141.477642 73.95781 141.350454 73.864046 141.25669 
C 73.770283 141.162927 73.643094 141.110244 73.510493 141.110244 
C 73.377891 141.110244 73.250703 141.162927 73.156939 141.25669 
C 73.063176 141.350454 73.010493 141.477642 73.010493 141.610244 
C 73.010493 141.742845 73.063176 141.870034 73.156939 141.963797 
C 73.250703 142.057561 73.377891 142.110244 73.510493 142.110244 
z
" clip-path="url(#p3fa53afa94)" style="stroke: #000000"/>
    <path d="M 71.797972 130.087335 
C 71.955663 130.087335 72.106916 130.024684 72.218421 129.91318 
C 72.329925 129.801676 72.392576 129.650423 72.392576 129.492732 
C 72.392576 129.335041 72.329925 129.183788 72.218421 129.072284 
C 72.106916 128.960779 71.955663 128.898128 71.797972 128.898128 
C 71.640282 128.898128 71.489028 128.960779 71.377524 129.072284 
C 71.26602 129.183788 71.203369 129.335041 71.203369 129.492732 
C 71.203369 129.650423 71.26602 129.801676 71.377524 129.91318 
C 71.489028 130.024684 71.640282 130.087335 71.797972 130.087335 
z
" clip-path="url(#p3fa53afa94)" style="stroke: #000000"/>
    <path d="M 59.779231 106.461571 
C 59.911832 106.461571 60.039021 106.408887 60.132784 106.315124 
C 60.226547 106.221361 60.279231 106.094172 60.279231 105.961571 
C 60.279231 105.828969 60.226547 105.701781 60.132784 105.608017 
C 60.039021 105.514254 59.911832 105.461571 59.779231 105.461571 
C 59.646629 105.461571 59.519441 105.514254 59.425677 105.608017 
C 59.331914 105.701781 59.279231 105.828969 59.279231 105.961571 
C 59.279231 106.094172 59.331914 106.221361 59.425677 106.315124 
C 59.519441 106.408887 59.646629 106.461571 59.779231 106.461571 
z
" clip-path="url(#p3fa53afa94)" style="stroke: #000000"/>
    <path d="M 58.760401 101.477282 
C 59.075783 101.477282 59.378289 101.35198 59.601298 101.128971 
C 59.824306 100.905963 59.949609 100.603456 59.949609 100.288075 
C 59.949609 99.972694 59.824306 99.670187 59.601298 99.447179 
C 59.378289 99.22417 59.075783 99.098868 58.760401 99.098868 
C 58.44502 99.098868 58.142513 99.22417 57.919505 99.447179 
C 57.696497 99.670187 57.571194 99.972694 57.571194 100.288075 
C 57.571194 100.603456 57.696497 100.905963 57.919505 101.128971 
C 58.142513 101.35198 58.44502 101.477282 58.760401 101.477282 
z
" clip-path="url(#p3fa53afa94)" style="stroke: #000000"/>
    <path d="M 55.790045 95.880477 
C 56.070463 95.880477 56.339434 95.769066 56.53772 95.57078 
C 56.736005 95.372495 56.847417 95.103524 56.847417 94.823106 
C 56.847417 94.542688 56.736005 94.273717 56.53772 94.075431 
C 56.339434 93.877146 56.070463 93.765735 55.790045 93.765735 
C 55.509627 93.765735 55.240656 93.877146 55.042371 94.075431 
C 54.844085 94.273717 54.732674 94.542688 54.732674 94.823106 
C 54.732674 95.103524 54.844085 95.372495 55.042371 95.57078 
C 55.240656 95.769066 55.509627 95.880477 55.790045 95.880477 
z
" clip-path="url(#p3fa53afa94)" style="stroke: #000000"/>
    <path d="M 64.24106 133.888509 
C 64.776572 133.888509 65.290222 133.675748 65.668886 133.297084 
C 66.04755 132.91842 66.260312 132.404769 66.260312 131.869258 
C 66.260312 131.333746 66.04755 130.820095 65.668886 130.441431 
C 65.290222 130.062767 64.776572 129.850006 64.24106 129.850006 
C 63.705548 129.850006 63.191898 130.062767 62.813234 130.441431 
C 62.43457 130.820095 62.221809 131.333746 62.221809 131.869258 
C 62.221809 132.404769 62.43457 132.91842 62.813234 133.297084 
C 63.191898 133.675748 63.705548 133.888509 64.24106 133.888509 
z
" clip-path="url(#p3fa53afa94)" style="stroke: #000000"/>
    <path d="M 59.068395 123.387823 
C 59.609847 123.387823 60.129195 123.172702 60.512059 122.789838 
C 60.894924 122.406974 61.110045 121.887626 61.110045 121.346174 
C 61.110045 120.804722 60.894924 120.285374 60.512059 119.902509 
C 60.129195 119.519645 59.609847 119.304524 59.068395 119.304524 
C 58.526943 119.304524 58.007595 119.519645 57.624731 119.902509 
C 57.241867 120.285374 57.026746 120.804722 57.026746 121.346174 
C 57.026746 121.887626 57.241867 122.406974 57.624731 122.789838 
C 58.007595 123.172702 58.526943 123.387823 59.068395 123.387823 
z
" clip-path="url(#p3fa53afa94)" style="stroke: #000000"/>
    <path d="M 59.717937 118.712327 
C 60.232071 118.712327 60.725215 118.50806 61.088763 118.144513 
C 61.45231 117.780965 61.656577 117.28782 61.656577 116.773687 
C 61.656577 116.259554 61.45231 115.766409 61.088763 115.402862 
C 60.725215 115.039315 60.232071 114.835047 59.717937 114.835047 
C 59.203804 114.835047 58.710659 115.039315 58.347112 115.402862 
C 57.983565 115.766409 57.779297 116.259554 57.779297 116.773687 
C 57.779297 117.28782 57.983565 117.780965 58.347112 118.144513 
C 58.710659 118.50806 59.203804 118.712327 59.717937 118.712327 
z
" clip-path="url(#p3fa53afa94)" style="stroke: #000000"/>
    <path d="M 54.696897 112.077393 
C 55.034464 112.077393 55.358252 111.943276 55.596948 111.70458 
C 55.835645 111.465883 55.969762 111.142096 55.969762 110.804528 
C 55.969762 110.46696 55.835645 110.143173 55.596948 109.904477 
C 55.358252 109.66578 55.034464 109.531663 54.696897 109.531663 
C 54.359329 109.531663 54.035542 109.66578 53.796845 109.904477 
C 53.558149 110.143173 53.424032 110.46696 53.424032 110.804528 
C 53.424032 111.142096 53.558149 111.465883 53.796845 111.70458 
C 54.035542 111.943276 54.359329 112.077393 54.696897 112.077393 
z
" clip-path="url(#p3fa53afa94)" style="stroke: #000000"/>
    <path d="M 51.49129 103.176485 
C 51.648981 103.176485 51.800234 103.113834 51.911738 103.002329 
C 52.023242 102.890825 52.085893 102.739572 52.085893 102.581881 
C 52.085893 102.42419 52.023242 102.272937 51.911738 102.161433 
C 51.800234 102.049929 51.648981 101.987278 51.49129 101.987278 
C 51.333599 101.987278 51.182346 102.049929 51.070842 102.161433 
C 50.959338 102.272937 50.896686 102.42419 50.896686 102.581881 
C 50.896686 102.739572 50.959338 102.890825 51.070842 103.002329 
C 51.182346 103.113834 51.333599 103.176485 51.49129 103.176485 
z
" clip-path="url(#p3fa53afa94)" style="stroke: #000000"/>
    <path d="M 62.370359 148.23998 
C 62.502961 148.23998 62.630149 148.187297 62.723913 148.093533 
C 62.817676 147.99977 62.870359 147.872582 62.870359 147.73998 
C 62.870359 147.607379 62.817676 147.48019 62.723913 147.386427 
C 62.630149 147.292663 62.502961 147.23998 62.370359 147.23998 
C 62.237758 147.23998 62.110569 147.292663 62.016806 147.386427 
C 61.923042 147.48019 61.870359 147.607379 61.870359 147.73998 
C 61.870359 147.872582 61.923042 147.99977 62.016806 148.093533 
C 62.110569 148.187297 62.237758 148.23998 62.370359 148.23998 
z
" clip-path="url(#p3fa53afa94)" style="stroke: #000000"/>
    <path d="M 47.400257 105.785484 
C 47.532859 105.785484 47.660047 105.732801 47.75381 105.639037 
C 47.847574 105.545274 47.900257 105.418086 47.900257 105.285484 
C 47.900257 105.152882 47.847574 105.025694 47.75381 104.931931 
C 47.660047 104.838167 47.532859 104.785484 47.400257 104.785484 
C 47.267656 104.785484 47.140467 104.838167 47.046704 104.931931 
C 46.95294 105.025694 46.900257 105.152882 46.900257 105.285484 
C 46.900257 105.418086 46.95294 105.545274 47.046704 105.639037 
C 47.140467 105.732801 47.267656 105.785484 47.400257 105.785484 
z
" clip-path="url(#p3fa53afa94)" style="stroke: #000000"/>
   </g>
   <g id="matplotlib.axis_1">
    <g id="xtick_1">
     <g id="line2d_1">
      <defs>
       <path id="m0b05224154" d="M 0 0 
L 0 3.5 
" style="stroke: #000000; stroke-width: 0.8"/>
      </defs>
      <g>
       <use xlink:href="#m0b05224154" x="18" y="189" style="stroke: #000000; stroke-width: 0.8"/>
      </g>
     </g>
     <g id="text_1">
      <!-- −10 -->
      <g transform="translate(7.447656 203.598437)scale(0.1 -0.1)">
       <defs>
        <path id="DejaVuSans-2212" d="M 678 2272 
L 4684 2272 
L 4684 1741 
L 678 1741 
L 678 2272 
z
" transform="scale(0.015625)"/>
        <path id="DejaVuSans-31" d="M 794 531 
L 1825 531 
L 1825 4091 
L 703 3866 
L 703 4441 
L 1819 4666 
L 2450 4666 
L 2450 531 
L 3481 531 
L 3481 0 
L 794 0 
L 794 531 
z
" transform="scale(0.015625)"/>
        <path id="DejaVuSans-30" d="M 2034 4250 
Q 1547 4250 1301 3770 
Q 1056 3291 1056 2328 
Q 1056 1369 1301 889 
Q 1547 409 2034 409 
Q 2525 409 2770 889 
Q 3016 1369 3016 2328 
Q 3016 3291 2770 3770 
Q 2525 4250 2034 4250 
z
M 2034 4750 
Q 2819 4750 3233 4129 
Q 3647 3509 3647 2328 
Q 3647 1150 3233 529 
Q 2819 -91 2034 -91 
Q 1250 -91 836 529 
Q 422 1150 422 2328 
Q 422 3509 836 4129 
Q 1250 4750 2034 4750 
z
" transform="scale(0.015625)"/>
       </defs>
       <use xlink:href="#DejaVuSans-2212"/>
       <use xlink:href="#DejaVuSans-31" x="83.789062"/>
       <use xlink:href="#DejaVuSans-30" x="147.412109"/>
      </g>
     </g>
    </g>
    <g id="xtick_2">
     <g id="line2d_2">
      <g>
       <use xlink:href="#m0b05224154" x="73.8" y="189" style="stroke: #000000; stroke-width: 0.8"/>
      </g>
     </g>
     <g id="text_2">
      <!-- 0 -->
      <g transform="translate(70.61875 203.598437)scale(0.1 -0.1)">
       <use xlink:href="#DejaVuSans-30"/>
      </g>
     </g>
    </g>
    <g id="xtick_3">
     <g id="line2d_3">
      <g>
       <use xlink:href="#m0b05224154" x="129.6" y="189" style="stroke: #000000; stroke-width: 0.8"/>
      </g>
     </g>
     <g id="text_3">
      <!-- 10 -->
      <g transform="translate(123.2375 203.598437)scale(0.1 -0.1)">
       <use xlink:href="#DejaVuSans-31"/>
       <use xlink:href="#DejaVuSans-30" x="63.623047"/>
      </g>
     </g>
    </g>
   </g>
   <g id="matplotlib.axis_2">
    <g id="ytick_1">
     <g id="line2d_4">
      <defs>
       <path id="ma19baaadb0" d="M 0 0 
L -3.5 0 
" style="stroke: #000000; stroke-width: 0.8"/>
      </defs>
      <g>
       <use xlink:href="#ma19baaadb0" x="18" y="189" style="stroke: #000000; stroke-width: 0.8"/>
      </g>
     </g>
     <g id="text_4">
      <!-- −15 -->
      <g transform="translate(-10.104688 192.799219)scale(0.1 -0.1)">
       <defs>
        <path id="DejaVuSans-35" d="M 691 4666 
L 3169 4666 
L 3169 4134 
L 1269 4134 
L 1269 2991 
Q 1406 3038 1543 3061 
Q 1681 3084 1819 3084 
Q 2600 3084 3056 2656 
Q 3513 2228 3513 1497 
Q 3513 744 3044 326 
Q 2575 -91 1722 -91 
Q 1428 -91 1123 -41 
Q 819 9 494 109 
L 494 744 
Q 775 591 1075 516 
Q 1375 441 1709 441 
Q 2250 441 2565 725 
Q 2881 1009 2881 1497 
Q 2881 1984 2565 2268 
Q 2250 2553 1709 2553 
Q 1456 2553 1204 2497 
Q 953 2441 691 2322 
L 691 4666 
z
" transform="scale(0.015625)"/>
       </defs>
       <use xlink:href="#DejaVuSans-2212"/>
       <use xlink:href="#DejaVuSans-31" x="83.789062"/>
       <use xlink:href="#DejaVuSans-35" x="147.412109"/>
      </g>
     </g>
    </g>
    <g id="ytick_2">
     <g id="line2d_5">
      <g>
       <use xlink:href="#ma19baaadb0" x="18" y="161.82" style="stroke: #000000; stroke-width: 0.8"/>
      </g>
     </g>
     <g id="text_5">
      <!-- −10 -->
      <g transform="translate(-10.104688 165.619219)scale(0.1 -0.1)">
       <use xlink:href="#DejaVuSans-2212"/>
       <use xlink:href="#DejaVuSans-31" x="83.789062"/>
       <use xlink:href="#DejaVuSans-30" x="147.412109"/>
      </g>
     </g>
    </g>
    <g id="ytick_3">
     <g id="line2d_6">
      <g>
       <use xlink:href="#ma19baaadb0" x="18" y="134.64" style="stroke: #000000; stroke-width: 0.8"/>
      </g>
     </g>
     <g id="text_6">
      <!-- −5 -->
      <g transform="translate(-3.742188 138.439219)scale(0.1 -0.1)">
       <use xlink:href="#DejaVuSans-2212"/>
       <use xlink:href="#DejaVuSans-35" x="83.789062"/>
      </g>
     </g>
    </g>
    <g id="ytick_4">
     <g id="line2d_7">
      <g>
       <use xlink:href="#ma19baaadb0" x="18" y="107.46" style="stroke: #000000; stroke-width: 0.8"/>
      </g>
     </g>
     <g id="text_7">
      <!-- 0 -->
      <g transform="translate(4.6375 111.259219)scale(0.1 -0.1)">
       <use xlink:href="#DejaVuSans-30"/>
      </g>
     </g>
    </g>
    <g id="ytick_5">
     <g id="line2d_8">
      <g>
       <use xlink:href="#ma19baaadb0" x="18" y="80.28" style="stroke: #000000; stroke-width: 0.8"/>
      </g>
     </g>
     <g id="text_8">
      <!-- 5 -->
      <g transform="translate(4.6375 84.079219)scale(0.1 -0.1)">
       <use xlink:href="#DejaVuSans-35"/>
      </g>
     </g>
    </g>
    <g id="ytick_6">
     <g id="line2d_9">
      <g>
       <use xlink:href="#ma19baaadb0" x="18" y="53.1" style="stroke: #000000; stroke-width: 0.8"/>
      </g>
     </g>
     <g id="text_9">
      <!-- 10 -->
      <g transform="translate(-1.725 56.899219)scale(0.1 -0.1)">
       <use xlink:href="#DejaVuSans-31"/>
       <use xlink:href="#DejaVuSans-30" x="63.623047"/>
      </g>
     </g>
    </g>
    <g id="ytick_7">
     <g id="line2d_10">
      <g>
       <use xlink:href="#ma19baaadb0" x="18" y="25.92" style="stroke: #000000; stroke-width: 0.8"/>
      </g>
     </g>
     <g id="text_10">
      <!-- 15 -->
      <g transform="translate(-1.725 29.719219)scale(0.1 -0.1)">
       <use xlink:href="#DejaVuSans-31"/>
       <use xlink:href="#DejaVuSans-35" x="63.623047"/>
      </g>
     </g>
    </g>
   </g>
   <g id="patch_3">
    <path d="M 18 189 
L 18 25.92 
" style="fill: none; stroke: #000000; stroke-width: 0.8; stroke-linejoin: miter; stroke-linecap: square"/>
   </g>
   <g id="patch_4">
    <path d="M 129.6 189 
L 129.6 25.92 
" style="fill: none; stroke: #000000; stroke-width: 0.8; stroke-linejoin: miter; stroke-linecap: square"/>
   </g>
   <g id="patch_5">
    <path d="M 18 189 
L 129.6 189 
" style="fill: none; stroke: #000000; stroke-width: 0.8; stroke-linejoin: miter; stroke-linecap: square"/>
   </g>
   <g id="patch_6">
    <path d="M 18 25.92 
L 129.6 25.92 
" style="fill: none; stroke: #000000; stroke-width: 0.8; stroke-linejoin: miter; stroke-linecap: square"/>
   </g>
  </g>
 </g>
 <defs>
  <clipPath id="p3fa53afa94">
   <rect x="18" y="25.92" width="111.6" height="163.08"/>
  </clipPath>
 </defs>
</svg>
