<?xml version="1.0" encoding="utf-8" standalone="no"?>
<!DOCTYPE svg PUBLIC "-//W3C//DTD SVG 1.1//EN"
  "http://www.w3.org/Graphics/SVG/1.1/DTD/svg11.dtd">
<svg xmlns:xlink="http://www.w3.org/1999/xlink" width="144pt" height="216pt" viewBox="0 0 144 216" xmlns="http://www.w3.org/2000/svg" version="1.1">
 <metadata>
  <rdf:RDF xmlns:dc="http://purl.org/dc/elements/1.1/" xmlns:cc="http://creativecommons.org/ns#" xmlns:rdf="http://www.w3.org/1999/02/22-rdf-syntax-ns#">
   <cc:Work>
    <dc:type rdf:resource="http://purl.org/dc/dcmitype/StillImage"/>
    <dc:date>2022-06-22T17:04:00.093083</dc:date>
    <dc:format>image/svg+xml</dc:format>
    <dc:creator>
     <cc:Agent>
      <dc:title>Matplotlib v3.5.1, https://matplotlib.org/</dc:title>
     </cc:Agent>
    </dc:creator>
   </cc:Work>
  </rdf:RDF>
 </metadata>
 <defs>
  <style type="text/css">*{stroke-linejoin: round; stroke-linecap: butt}</style>
 </defs>
 <g id="figure_1">
  <g id="patch_1">
   <path d="M 0 216 
L 144 216 
L 144 0 
L 0 0 
L 0 216 
z
" style="fill: none"/>
  </g>
  <g id="axes_1">
   <g id="patch_2">
    <path d="M 18 189 
L 129.6 189 
L 129.6 25.92 
L 18 25.92 
z
" style="fill: #ffffff"/>
   </g>
   <g id="PathCollection_1">
    <defs>
     <path id="m37a38989aa" d="M 0 2.738613 
C 0.726289 2.738613 1.422928 2.450055 1.936492 1.936492 
C 2.450055 1.422928 2.738613 0.726289 2.738613 0 
C 2.738613 -0.726289 2.450055 -1.422928 1.936492 -1.936492 
C 1.422928 -2.450055 0.726289 -2.738613 0 -2.738613 
C -0.726289 -2.738613 -1.422928 -2.450055 -1.936492 -1.936492 
C -2.450055 -1.422928 -2.738613 -0.726289 -2.738613 0 
C -2.738613 0.726289 -2.450055 1.422928 -1.936492 1.936492 
C -1.422928 2.450055 -0.726289 2.738613 0 2.738613 
z
" style="stroke: #ff0000; stroke-width: 1.75"/>
    </defs>
    <g clip-path="url(#p5171e9293f)">
     <use xlink:href="#m37a38989aa" x="80.775" y="83.92143" style="fill: #ff0000; stroke: #ff0000; stroke-width: 1.75"/>
     <use xlink:href="#m37a38989aa" x="59.85" y="95.690715" style="fill: #ff0000; stroke: #ff0000; stroke-width: 1.75"/>
     <use xlink:href="#m37a38989aa" x="66.825" y="107.46" style="fill: #ff0000; stroke: #ff0000; stroke-width: 1.75"/>
     <use xlink:href="#m37a38989aa" x="80.775" y="107.46" style="fill: #ff0000; stroke: #ff0000; stroke-width: 1.75"/>
     <use xlink:href="#m37a38989aa" x="94.725" y="107.46" style="fill: #ff0000; stroke: #ff0000; stroke-width: 1.75"/>
     <use xlink:href="#m37a38989aa" x="59.85" y="119.229285" style="fill: #ff0000; stroke: #ff0000; stroke-width: 1.75"/>
     <use xlink:href="#m37a38989aa" x="80.775" y="130.99857" style="fill: #ff0000; stroke: #ff0000; stroke-width: 1.75"/>
    </g>
   </g>
   <g id="PathCollection_2">
    <defs>
     <path id="C0_0_78d58ed1b4" d="M 0 2.738613 
C 0.726289 2.738613 1.422928 2.450055 1.936492 1.936492 
C 2.450055 1.422928 2.738613 0.726289 2.738613 -0 
C 2.738613 -0.726289 2.450055 -1.422928 1.936492 -1.936492 
C 1.422928 -2.450055 0.726289 -2.738613 0 -2.738613 
C -0.726289 -2.738613 -1.422928 -2.450055 -1.936492 -1.936492 
C -2.450055 -1.422928 -2.738613 -0.726289 -2.738613 0 
C -2.738613 0.726289 -2.450055 1.422928 -1.936492 1.936492 
C -1.422928 2.450055 -0.726289 2.738613 0 2.738613 
z
"/>
    </defs>
    <g clip-path="url(#p5171e9293f)">
     <use xlink:href="#C0_0_78d58ed1b4" x="66.825" y="83.92143" style="fill: none; stroke: #ff0000; stroke-width: 1.75"/>
    </g>
    <g clip-path="url(#p5171e9293f)">
     <use xlink:href="#C0_0_78d58ed1b4" x="73.8" y="95.690715" style="fill: none; stroke: #ff0000; stroke-width: 1.75"/>
    </g>
    <g clip-path="url(#p5171e9293f)">
     <use xlink:href="#C0_0_78d58ed1b4" x="87.75" y="95.690715" style="fill: none; stroke: #ff0000; stroke-width: 1.75"/>
    </g>
    <g clip-path="url(#p5171e9293f)">
     <use xlink:href="#C0_0_78d58ed1b4" x="52.875" y="107.46" style="fill: none; stroke: #ff0000; stroke-width: 1.75"/>
    </g>
    <g clip-path="url(#p5171e9293f)">
     <use xlink:href="#C0_0_78d58ed1b4" x="73.8" y="119.229285" style="fill: none; stroke: #ff0000; stroke-width: 1.75"/>
    </g>
    <g clip-path="url(#p5171e9293f)">
     <use xlink:href="#C0_0_78d58ed1b4" x="87.75" y="119.229285" style="fill: none; stroke: #ff0000; stroke-width: 1.75"/>
    </g>
    <g clip-path="url(#p5171e9293f)">
     <use xlink:href="#C0_0_78d58ed1b4" x="66.825" y="130.99857" style="fill: none; stroke: #ff0000; stroke-width: 1.75"/>
    </g>
   </g>
   <g id="PathCollection_3">
    <path d="M 117.908707 131.831236 
C 117.908707 131.831236 117.908707 131.831236 117.908707 131.831236 
C 117.908707 131.831236 117.908707 131.831236 117.908707 131.831236 
C 117.908707 131.831236 117.908707 131.831236 117.908707 131.831236 
C 117.908707 131.831236 117.908707 131.831236 117.908707 131.831236 
C 117.908707 131.831236 117.908707 131.831236 117.908707 131.831236 
C 117.908707 131.831236 117.908707 131.831236 117.908707 131.831236 
C 117.908707 131.831236 117.908707 131.831236 117.908707 131.831236 
C 117.908707 131.831236 117.908707 131.831236 117.908707 131.831236 
z
" clip-path="url(#p5171e9293f)" style="stroke: #000000"/>
    <path d="M 115.784725 106.937023 
C 115.784725 106.937023 115.784725 106.937023 115.784725 106.937023 
C 115.784725 106.937023 115.784725 106.937023 115.784725 106.937023 
C 115.784725 106.937023 115.784725 106.937023 115.784725 106.937023 
C 115.784725 106.937023 115.784725 106.937023 115.784725 106.937023 
C 115.784725 106.937023 115.784725 106.937023 115.784725 106.937023 
C 115.784725 106.937023 115.784725 106.937023 115.784725 106.937023 
C 115.784725 106.937023 115.784725 106.937023 115.784725 106.937023 
C 115.784725 106.937023 115.784725 106.937023 115.784725 106.937023 
z
" clip-path="url(#p5171e9293f)" style="stroke: #000000"/>
    <path d="M 109.477114 101.491106 
C 109.477114 101.491106 109.477114 101.491106 109.477114 101.491106 
C 109.477114 101.491106 109.477114 101.491106 109.477114 101.491106 
C 109.477114 101.491106 109.477114 101.491106 109.477114 101.491106 
C 109.477114 101.491106 109.477114 101.491106 109.477114 101.491106 
C 109.477114 101.491106 109.477114 101.491106 109.477114 101.491106 
C 109.477114 101.491106 109.477114 101.491106 109.477114 101.491106 
C 109.477114 101.491106 109.477114 101.491106 109.477114 101.491106 
C 109.477114 101.491106 109.477114 101.491106 109.477114 101.491106 
z
" clip-path="url(#p5171e9293f)" style="stroke: #000000"/>
    <path d="M 106.318429 89.916677 
C 106.318429 89.916677 106.318429 89.916677 106.318429 89.916677 
C 106.318429 89.916677 106.318429 89.916677 106.318429 89.916677 
C 106.318429 89.916677 106.318429 89.916677 106.318429 89.916677 
C 106.318429 89.916677 106.318429 89.916677 106.318429 89.916677 
C 106.318429 89.916677 106.318429 89.916677 106.318429 89.916677 
C 106.318429 89.916677 106.318429 89.916677 106.318429 89.916677 
C 106.318429 89.916677 106.318429 89.916677 106.318429 89.916677 
C 106.318429 89.916677 106.318429 89.916677 106.318429 89.916677 
z
" clip-path="url(#p5171e9293f)" style="stroke: #000000"/>
    <path d="M 104.006244 82.986959 
C 104.358851 82.986959 104.697064 82.846866 104.946395 82.597535 
C 105.195726 82.348205 105.335818 82.009992 105.335818 81.657385 
C 105.335818 81.304777 105.195726 80.966565 104.946395 80.717234 
C 104.697064 80.467903 104.358851 80.327811 104.006244 80.327811 
C 103.653637 80.327811 103.315424 80.467903 103.066093 80.717234 
C 102.816762 80.966565 102.67667 81.304777 102.67667 81.657385 
C 102.67667 82.009992 102.816762 82.348205 103.066093 82.597535 
C 103.315424 82.846866 103.653637 82.986959 104.006244 82.986959 
z
" clip-path="url(#p5171e9293f)" style="stroke: #000000"/>
    <path d="M 96.773761 69.264026 
C 96.773761 69.264026 96.773761 69.264026 96.773761 69.264026 
C 96.773761 69.264026 96.773761 69.264026 96.773761 69.264026 
C 96.773761 69.264026 96.773761 69.264026 96.773761 69.264026 
C 96.773761 69.264026 96.773761 69.264026 96.773761 69.264026 
C 96.773761 69.264026 96.773761 69.264026 96.773761 69.264026 
C 96.773761 69.264026 96.773761 69.264026 96.773761 69.264026 
C 96.773761 69.264026 96.773761 69.264026 96.773761 69.264026 
C 96.773761 69.264026 96.773761 69.264026 96.773761 69.264026 
z
" clip-path="url(#p5171e9293f)" style="stroke: #000000"/>
    <path d="M 97.001891 62.942763 
C 97.354056 62.942763 97.691846 62.802846 97.940864 62.553827 
C 98.189883 62.304808 98.3298 61.967019 98.3298 61.614854 
C 98.3298 61.262688 98.189883 60.924899 97.940864 60.67588 
C 97.691846 60.426862 97.354056 60.286945 97.001891 60.286945 
C 96.649725 60.286945 96.311936 60.426862 96.062917 60.67588 
C 95.813899 60.924899 95.673982 61.262688 95.673982 61.614854 
C 95.673982 61.967019 95.813899 62.304808 96.062917 62.553827 
C 96.311936 62.802846 96.649725 62.942763 97.001891 62.942763 
z
" clip-path="url(#p5171e9293f)" style="stroke: #000000"/>
    <path d="M 91.003565 49.384468 
C 91.341634 49.384468 91.665902 49.250152 91.904952 49.011101 
C 92.144003 48.77205 92.27832 48.447782 92.27832 48.109713 
C 92.27832 47.771644 92.144003 47.447376 91.904952 47.208325 
C 91.665902 46.969274 91.341634 46.834958 91.003565 46.834958 
C 90.665496 46.834958 90.341228 46.969274 90.102177 47.208325 
C 89.863126 47.447376 89.72881 47.771644 89.72881 48.109713 
C 89.72881 48.447782 89.863126 48.77205 90.102177 49.011101 
C 90.341228 49.250152 90.665496 49.384468 91.003565 49.384468 
z
" clip-path="url(#p5171e9293f)" style="stroke: #000000"/>
    <path d="M 87.276822 35.598894 
C 87.276822 35.598894 87.276822 35.598894 87.276822 35.598894 
C 87.276822 35.598894 87.276822 35.598894 87.276822 35.598894 
C 87.276822 35.598894 87.276822 35.598894 87.276822 35.598894 
C 87.276822 35.598894 87.276822 35.598894 87.276822 35.598894 
C 87.276822 35.598894 87.276822 35.598894 87.276822 35.598894 
C 87.276822 35.598894 87.276822 35.598894 87.276822 35.598894 
C 87.276822 35.598894 87.276822 35.598894 87.276822 35.598894 
C 87.276822 35.598894 87.276822 35.598894 87.276822 35.598894 
z
" clip-path="url(#p5171e9293f)" style="stroke: #000000"/>
    <path d="M 84.112627 31.020355 
C 84.270318 31.020355 84.421571 30.957704 84.533075 30.8462 
C 84.644579 30.734695 84.70723 30.583442 84.70723 30.425751 
C 84.70723 30.268061 84.644579 30.116807 84.533075 30.005303 
C 84.421571 29.893799 84.270318 29.831148 84.112627 29.831148 
C 83.954936 29.831148 83.803683 29.893799 83.692179 30.005303 
C 83.580675 30.116807 83.518023 30.268061 83.518023 30.425751 
C 83.518023 30.583442 83.580675 30.734695 83.692179 30.8462 
C 83.803683 30.957704 83.954936 31.020355 84.112627 31.020355 
z
" clip-path="url(#p5171e9293f)" style="stroke: #000000"/>
    <path d="M 120.659385 165.50348 
C 120.849776 165.50348 121.032395 165.427837 121.167021 165.293211 
C 121.301648 165.158584 121.377291 164.975966 121.377291 164.785575 
C 121.377291 164.595184 121.301648 164.412566 121.167021 164.277939 
C 121.032395 164.143313 120.849776 164.06767 120.659385 164.06767 
C 120.468995 164.06767 120.286376 164.143313 120.15175 164.277939 
C 120.017123 164.412566 119.94148 164.595184 119.94148 164.785575 
C 119.94148 164.975966 120.017123 165.158584 120.15175 165.293211 
C 120.286376 165.427837 120.468995 165.50348 120.659385 165.50348 
z
" clip-path="url(#p5171e9293f)" style="stroke: #000000"/>
    <path d="M 116.892462 157.084857 
C 116.892462 157.084857 116.892462 157.084857 116.892462 157.084857 
C 116.892462 157.084857 116.892462 157.084857 116.892462 157.084857 
C 116.892462 157.084857 116.892462 157.084857 116.892462 157.084857 
C 116.892462 157.084857 116.892462 157.084857 116.892462 157.084857 
C 116.892462 157.084857 116.892462 157.084857 116.892462 157.084857 
C 116.892462 157.084857 116.892462 157.084857 116.892462 157.084857 
C 116.892462 157.084857 116.892462 157.084857 116.892462 157.084857 
C 116.892462 157.084857 116.892462 157.084857 116.892462 157.084857 
z
" clip-path="url(#p5171e9293f)" style="stroke: #000000"/>
    <path d="M 112.511312 143.202079 
C 112.511312 143.202079 112.511312 143.202079 112.511312 143.202079 
C 112.511312 143.202079 112.511312 143.202079 112.511312 143.202079 
C 112.511312 143.202079 112.511312 143.202079 112.511312 143.202079 
C 112.511312 143.202079 112.511312 143.202079 112.511312 143.202079 
C 112.511312 143.202079 112.511312 143.202079 112.511312 143.202079 
C 112.511312 143.202079 112.511312 143.202079 112.511312 143.202079 
C 112.511312 143.202079 112.511312 143.202079 112.511312 143.202079 
C 112.511312 143.202079 112.511312 143.202079 112.511312 143.202079 
z
" clip-path="url(#p5171e9293f)" style="stroke: #000000"/>
    <path d="M 112.11332 132.015249 
C 112.11332 132.015249 112.11332 132.015249 112.11332 132.015249 
C 112.11332 132.015249 112.11332 132.015249 112.11332 132.015249 
C 112.11332 132.015249 112.11332 132.015249 112.11332 132.015249 
C 112.11332 132.015249 112.11332 132.015249 112.11332 132.015249 
C 112.11332 132.015249 112.11332 132.015249 112.11332 132.015249 
C 112.11332 132.015249 112.11332 132.015249 112.11332 132.015249 
C 112.11332 132.015249 112.11332 132.015249 112.11332 132.015249 
C 112.11332 132.015249 112.11332 132.015249 112.11332 132.015249 
z
" clip-path="url(#p5171e9293f)" style="stroke: #000000"/>
    <path d="M 106.797543 123.851681 
C 106.797543 123.851681 106.797543 123.851681 106.797543 123.851681 
C 106.797543 123.851681 106.797543 123.851681 106.797543 123.851681 
C 106.797543 123.851681 106.797543 123.851681 106.797543 123.851681 
C 106.797543 123.851681 106.797543 123.851681 106.797543 123.851681 
C 106.797543 123.851681 106.797543 123.851681 106.797543 123.851681 
C 106.797543 123.851681 106.797543 123.851681 106.797543 123.851681 
C 106.797543 123.851681 106.797543 123.851681 106.797543 123.851681 
C 106.797543 123.851681 106.797543 123.851681 106.797543 123.851681 
z
" clip-path="url(#p5171e9293f)" style="stroke: #000000"/>
    <path d="M 101.193992 113.807857 
C 101.193992 113.807857 101.193992 113.807857 101.193992 113.807857 
C 101.193992 113.807857 101.193992 113.807857 101.193992 113.807857 
C 101.193992 113.807857 101.193992 113.807857 101.193992 113.807857 
C 101.193992 113.807857 101.193992 113.807857 101.193992 113.807857 
C 101.193992 113.807857 101.193992 113.807857 101.193992 113.807857 
C 101.193992 113.807857 101.193992 113.807857 101.193992 113.807857 
C 101.193992 113.807857 101.193992 113.807857 101.193992 113.807857 
C 101.193992 113.807857 101.193992 113.807857 101.193992 113.807857 
z
" clip-path="url(#p5171e9293f)" style="stroke: #000000"/>
    <path d="M 99.412591 102.602661 
C 99.412591 102.602661 99.412591 102.602661 99.412591 102.602661 
C 99.412591 102.602661 99.412591 102.602661 99.412591 102.602661 
C 99.412591 102.602661 99.412591 102.602661 99.412591 102.602661 
C 99.412591 102.602661 99.412591 102.602661 99.412591 102.602661 
C 99.412591 102.602661 99.412591 102.602661 99.412591 102.602661 
C 99.412591 102.602661 99.412591 102.602661 99.412591 102.602661 
C 99.412591 102.602661 99.412591 102.602661 99.412591 102.602661 
C 99.412591 102.602661 99.412591 102.602661 99.412591 102.602661 
z
" clip-path="url(#p5171e9293f)" style="stroke: #000000"/>
    <path d="M 96.802609 92.025114 
C 96.802609 92.025114 96.802609 92.025114 96.802609 92.025114 
C 96.802609 92.025114 96.802609 92.025114 96.802609 92.025114 
C 96.802609 92.025114 96.802609 92.025114 96.802609 92.025114 
C 96.802609 92.025114 96.802609 92.025114 96.802609 92.025114 
C 96.802609 92.025114 96.802609 92.025114 96.802609 92.025114 
C 96.802609 92.025114 96.802609 92.025114 96.802609 92.025114 
C 96.802609 92.025114 96.802609 92.025114 96.802609 92.025114 
C 96.802609 92.025114 96.802609 92.025114 96.802609 92.025114 
z
" clip-path="url(#p5171e9293f)" style="stroke: #000000"/>
    <path d="M 93.050933 84.881126 
C 93.050933 84.881126 93.050933 84.881126 93.050933 84.881126 
C 93.050933 84.881126 93.050933 84.881126 93.050933 84.881126 
C 93.050933 84.881126 93.050933 84.881126 93.050933 84.881126 
C 93.050933 84.881126 93.050933 84.881126 93.050933 84.881126 
C 93.050933 84.881126 93.050933 84.881126 93.050933 84.881126 
C 93.050933 84.881126 93.050933 84.881126 93.050933 84.881126 
C 93.050933 84.881126 93.050933 84.881126 93.050933 84.881126 
C 93.050933 84.881126 93.050933 84.881126 93.050933 84.881126 
z
" clip-path="url(#p5171e9293f)" style="stroke: #000000"/>
    <path d="M 90.57024 71.987203 
C 90.57024 71.987203 90.57024 71.987203 90.57024 71.987203 
C 90.57024 71.987203 90.57024 71.987203 90.57024 71.987203 
C 90.57024 71.987203 90.57024 71.987203 90.57024 71.987203 
C 90.57024 71.987203 90.57024 71.987203 90.57024 71.987203 
C 90.57024 71.987203 90.57024 71.987203 90.57024 71.987203 
C 90.57024 71.987203 90.57024 71.987203 90.57024 71.987203 
C 90.57024 71.987203 90.57024 71.987203 90.57024 71.987203 
C 90.57024 71.987203 90.57024 71.987203 90.57024 71.987203 
z
" clip-path="url(#p5171e9293f)" style="stroke: #000000"/>
    <path d="M 85.605524 66.799015 
C 85.605524 66.799015 85.605524 66.799015 85.605524 66.799015 
C 85.605524 66.799015 85.605524 66.799015 85.605524 66.799015 
C 85.605524 66.799015 85.605524 66.799015 85.605524 66.799015 
C 85.605524 66.799015 85.605524 66.799015 85.605524 66.799015 
C 85.605524 66.799015 85.605524 66.799015 85.605524 66.799015 
C 85.605524 66.799015 85.605524 66.799015 85.605524 66.799015 
C 85.605524 66.799015 85.605524 66.799015 85.605524 66.799015 
C 85.605524 66.799015 85.605524 66.799015 85.605524 66.799015 
z
" clip-path="url(#p5171e9293f)" style="stroke: #000000"/>
    <path d="M 81.082139 56.348028 
C 81.418698 56.348028 81.741517 56.214312 81.9795 55.976329 
C 82.217483 55.738346 82.351199 55.415527 82.351199 55.078968 
C 82.351199 54.74241 82.217483 54.41959 81.9795 54.181608 
C 81.741517 53.943625 81.418698 53.809909 81.082139 53.809909 
C 80.745581 53.809909 80.422762 53.943625 80.184779 54.181608 
C 79.946796 54.41959 79.81308 54.74241 79.81308 55.078968 
C 79.81308 55.415527 79.946796 55.738346 80.184779 55.976329 
C 80.422762 56.214312 80.745581 56.348028 81.082139 56.348028 
z
" clip-path="url(#p5171e9293f)" style="stroke: #000000"/>
    <path d="M 75.0554 38.442987 
C 75.0554 38.442987 75.0554 38.442987 75.0554 38.442987 
C 75.0554 38.442987 75.0554 38.442987 75.0554 38.442987 
C 75.0554 38.442987 75.0554 38.442987 75.0554 38.442987 
C 75.0554 38.442987 75.0554 38.442987 75.0554 38.442987 
C 75.0554 38.442987 75.0554 38.442987 75.0554 38.442987 
C 75.0554 38.442987 75.0554 38.442987 75.0554 38.442987 
C 75.0554 38.442987 75.0554 38.442987 75.0554 38.442987 
C 75.0554 38.442987 75.0554 38.442987 75.0554 38.442987 
z
" clip-path="url(#p5171e9293f)" style="stroke: #000000"/>
    <path d="M 70.28075 27.455921 
C 70.28075 27.455921 70.28075 27.455921 70.28075 27.455921 
C 70.28075 27.455921 70.28075 27.455921 70.28075 27.455921 
C 70.28075 27.455921 70.28075 27.455921 70.28075 27.455921 
C 70.28075 27.455921 70.28075 27.455921 70.28075 27.455921 
C 70.28075 27.455921 70.28075 27.455921 70.28075 27.455921 
C 70.28075 27.455921 70.28075 27.455921 70.28075 27.455921 
C 70.28075 27.455921 70.28075 27.455921 70.28075 27.455921 
C 70.28075 27.455921 70.28075 27.455921 70.28075 27.455921 
z
" clip-path="url(#p5171e9293f)" style="stroke: #000000"/>
    <path d="M 113.968122 176.655085 
C 114.130525 176.655085 114.286299 176.590561 114.401135 176.475725 
C 114.515971 176.360889 114.580495 176.205115 114.580495 176.042712 
C 114.580495 175.880309 114.515971 175.724536 114.401135 175.6097 
C 114.286299 175.494863 114.130525 175.43034 113.968122 175.43034 
C 113.805719 175.43034 113.649946 175.494863 113.53511 175.6097 
C 113.420273 175.724536 113.35575 175.880309 113.35575 176.042712 
C 113.35575 176.205115 113.420273 176.360889 113.53511 176.475725 
C 113.649946 176.590561 113.805719 176.655085 113.968122 176.655085 
z
" clip-path="url(#p5171e9293f)" style="stroke: #000000"/>
    <path d="M 110.858774 167.188568 
C 110.858774 167.188568 110.858774 167.188568 110.858774 167.188568 
C 110.858774 167.188568 110.858774 167.188568 110.858774 167.188568 
C 110.858774 167.188568 110.858774 167.188568 110.858774 167.188568 
C 110.858774 167.188568 110.858774 167.188568 110.858774 167.188568 
C 110.858774 167.188568 110.858774 167.188568 110.858774 167.188568 
C 110.858774 167.188568 110.858774 167.188568 110.858774 167.188568 
C 110.858774 167.188568 110.858774 167.188568 110.858774 167.188568 
C 110.858774 167.188568 110.858774 167.188568 110.858774 167.188568 
z
" clip-path="url(#p5171e9293f)" style="stroke: #000000"/>
    <path d="M 107.54026 158.026466 
C 107.54026 158.026466 107.54026 158.026466 107.54026 158.026466 
C 107.54026 158.026466 107.54026 158.026466 107.54026 158.026466 
C 107.54026 158.026466 107.54026 158.026466 107.54026 158.026466 
C 107.54026 158.026466 107.54026 158.026466 107.54026 158.026466 
C 107.54026 158.026466 107.54026 158.026466 107.54026 158.026466 
C 107.54026 158.026466 107.54026 158.026466 107.54026 158.026466 
C 107.54026 158.026466 107.54026 158.026466 107.54026 158.026466 
C 107.54026 158.026466 107.54026 158.026466 107.54026 158.026466 
z
" clip-path="url(#p5171e9293f)" style="stroke: #000000"/>
    <path d="M 105.609201 143.970574 
C 105.609201 143.970574 105.609201 143.970574 105.609201 143.970574 
C 105.609201 143.970574 105.609201 143.970574 105.609201 143.970574 
C 105.609201 143.970574 105.609201 143.970574 105.609201 143.970574 
C 105.609201 143.970574 105.609201 143.970574 105.609201 143.970574 
C 105.609201 143.970574 105.609201 143.970574 105.609201 143.970574 
C 105.609201 143.970574 105.609201 143.970574 105.609201 143.970574 
C 105.609201 143.970574 105.609201 143.970574 105.609201 143.970574 
C 105.609201 143.970574 105.609201 143.970574 105.609201 143.970574 
z
" clip-path="url(#p5171e9293f)" style="stroke: #000000"/>
    <path d="M 100.423973 134.139854 
C 100.423973 134.139854 100.423973 134.139854 100.423973 134.139854 
C 100.423973 134.139854 100.423973 134.139854 100.423973 134.139854 
C 100.423973 134.139854 100.423973 134.139854 100.423973 134.139854 
C 100.423973 134.139854 100.423973 134.139854 100.423973 134.139854 
C 100.423973 134.139854 100.423973 134.139854 100.423973 134.139854 
C 100.423973 134.139854 100.423973 134.139854 100.423973 134.139854 
C 100.423973 134.139854 100.423973 134.139854 100.423973 134.139854 
C 100.423973 134.139854 100.423973 134.139854 100.423973 134.139854 
z
" clip-path="url(#p5171e9293f)" style="stroke: #000000"/>
    <path d="M 93.505177 129.734235 
C 93.505177 129.734235 93.505177 129.734235 93.505177 129.734235 
C 93.505177 129.734235 93.505177 129.734235 93.505177 129.734235 
C 93.505177 129.734235 93.505177 129.734235 93.505177 129.734235 
C 93.505177 129.734235 93.505177 129.734235 93.505177 129.734235 
C 93.505177 129.734235 93.505177 129.734235 93.505177 129.734235 
C 93.505177 129.734235 93.505177 129.734235 93.505177 129.734235 
C 93.505177 129.734235 93.505177 129.734235 93.505177 129.734235 
C 93.505177 129.734235 93.505177 129.734235 93.505177 129.734235 
z
" clip-path="url(#p5171e9293f)" style="stroke: #000000"/>
    <path d="M 93.059466 120.257874 
C 93.476942 120.257874 93.877376 120.092009 94.172576 119.796809 
C 94.467776 119.501608 94.633642 119.101175 94.633642 118.683699 
C 94.633642 118.266222 94.467776 117.865789 94.172576 117.570588 
C 93.877376 117.275388 93.476942 117.109523 93.059466 117.109523 
C 92.64199 117.109523 92.241556 117.275388 91.946356 117.570588 
C 91.651156 117.865789 91.485291 118.266222 91.485291 118.683699 
C 91.485291 119.101175 91.651156 119.501608 91.946356 119.796809 
C 92.241556 120.092009 92.64199 120.257874 93.059466 120.257874 
z
" clip-path="url(#p5171e9293f)" style="stroke: #000000"/>
    <path d="M 86.10873 106.29758 
C 86.10873 106.29758 86.10873 106.29758 86.10873 106.29758 
C 86.10873 106.29758 86.10873 106.29758 86.10873 106.29758 
C 86.10873 106.29758 86.10873 106.29758 86.10873 106.29758 
C 86.10873 106.29758 86.10873 106.29758 86.10873 106.29758 
C 86.10873 106.29758 86.10873 106.29758 86.10873 106.29758 
C 86.10873 106.29758 86.10873 106.29758 86.10873 106.29758 
C 86.10873 106.29758 86.10873 106.29758 86.10873 106.29758 
C 86.10873 106.29758 86.10873 106.29758 86.10873 106.29758 
z
" clip-path="url(#p5171e9293f)" style="stroke: #000000"/>
    <path d="M 86.13538 95.36134 
C 86.554965 95.36134 86.957421 95.194637 87.254112 94.897946 
C 87.550804 94.601255 87.717506 94.198799 87.717506 93.779214 
C 87.717506 93.359629 87.550804 92.957173 87.254112 92.660482 
C 86.957421 92.363791 86.554965 92.197088 86.13538 92.197088 
C 85.715796 92.197088 85.313339 92.363791 85.016648 92.660482 
C 84.719957 92.957173 84.553254 93.359629 84.553254 93.779214 
C 84.553254 94.198799 84.719957 94.601255 85.016648 94.897946 
C 85.313339 95.194637 85.715796 95.36134 86.13538 95.36134 
z
" clip-path="url(#p5171e9293f)" style="stroke: #000000"/>
    <path d="M 77.84173 89.057468 
C 78.261053 89.057468 78.663258 88.890869 78.959764 88.594363 
C 79.25627 88.297857 79.422869 87.895652 79.422869 87.476329 
C 79.422869 87.057006 79.25627 86.654801 78.959764 86.358295 
C 78.663258 86.061789 78.261053 85.89519 77.84173 85.89519 
C 77.422407 85.89519 77.020202 86.061789 76.723696 86.358295 
C 76.42719 86.654801 76.260591 87.057006 76.260591 87.476329 
C 76.260591 87.895652 76.42719 88.297857 76.723696 88.594363 
C 77.020202 88.890869 77.422407 89.057468 77.84173 89.057468 
z
" clip-path="url(#p5171e9293f)" style="stroke: #000000"/>
    <path d="M 78.142975 72.241188 
C 78.365983 72.241188 78.579887 72.152586 78.737578 71.994895 
C 78.895269 71.837205 78.983871 71.6233 78.983871 71.400292 
C 78.983871 71.177283 78.895269 70.963379 78.737578 70.805688 
C 78.579887 70.647997 78.365983 70.559395 78.142975 70.559395 
C 77.919966 70.559395 77.706062 70.647997 77.548371 70.805688 
C 77.39068 70.963379 77.302078 71.177283 77.302078 71.400292 
C 77.302078 71.6233 77.39068 71.837205 77.548371 71.994895 
C 77.706062 72.152586 77.919966 72.241188 78.142975 72.241188 
z
" clip-path="url(#p5171e9293f)" style="stroke: #000000"/>
    <path d="M 78.409427 64.045258 
C 78.409427 64.045258 78.409427 64.045258 78.409427 64.045258 
C 78.409427 64.045258 78.409427 64.045258 78.409427 64.045258 
C 78.409427 64.045258 78.409427 64.045258 78.409427 64.045258 
C 78.409427 64.045258 78.409427 64.045258 78.409427 64.045258 
C 78.409427 64.045258 78.409427 64.045258 78.409427 64.045258 
C 78.409427 64.045258 78.409427 64.045258 78.409427 64.045258 
C 78.409427 64.045258 78.409427 64.045258 78.409427 64.045258 
C 78.409427 64.045258 78.409427 64.045258 78.409427 64.045258 
z
" clip-path="url(#p5171e9293f)" style="stroke: #000000"/>
    <path d="M 68.686328 53.66974 
C 68.686328 53.66974 68.686328 53.66974 68.686328 53.66974 
C 68.686328 53.66974 68.686328 53.66974 68.686328 53.66974 
C 68.686328 53.66974 68.686328 53.66974 68.686328 53.66974 
C 68.686328 53.66974 68.686328 53.66974 68.686328 53.66974 
C 68.686328 53.66974 68.686328 53.66974 68.686328 53.66974 
C 68.686328 53.66974 68.686328 53.66974 68.686328 53.66974 
C 68.686328 53.66974 68.686328 53.66974 68.686328 53.66974 
C 68.686328 53.66974 68.686328 53.66974 68.686328 53.66974 
z
" clip-path="url(#p5171e9293f)" style="stroke: #000000"/>
    <path d="M 66.999391 46.928608 
C 66.999391 46.928608 66.999391 46.928608 66.999391 46.928608 
C 66.999391 46.928608 66.999391 46.928608 66.999391 46.928608 
C 66.999391 46.928608 66.999391 46.928608 66.999391 46.928608 
C 66.999391 46.928608 66.999391 46.928608 66.999391 46.928608 
C 66.999391 46.928608 66.999391 46.928608 66.999391 46.928608 
C 66.999391 46.928608 66.999391 46.928608 66.999391 46.928608 
C 66.999391 46.928608 66.999391 46.928608 66.999391 46.928608 
C 66.999391 46.928608 66.999391 46.928608 66.999391 46.928608 
z
" clip-path="url(#p5171e9293f)" style="stroke: #000000"/>
    <path d="M 65.492911 37.672245 
C 65.492911 37.672245 65.492911 37.672245 65.492911 37.672245 
C 65.492911 37.672245 65.492911 37.672245 65.492911 37.672245 
C 65.492911 37.672245 65.492911 37.672245 65.492911 37.672245 
C 65.492911 37.672245 65.492911 37.672245 65.492911 37.672245 
C 65.492911 37.672245 65.492911 37.672245 65.492911 37.672245 
C 65.492911 37.672245 65.492911 37.672245 65.492911 37.672245 
C 65.492911 37.672245 65.492911 37.672245 65.492911 37.672245 
C 65.492911 37.672245 65.492911 37.672245 65.492911 37.672245 
z
" clip-path="url(#p5171e9293f)" style="stroke: #000000"/>
    <path d="M 103.382698 180.967656 
C 103.382698 180.967656 103.382698 180.967656 103.382698 180.967656 
C 103.382698 180.967656 103.382698 180.967656 103.382698 180.967656 
C 103.382698 180.967656 103.382698 180.967656 103.382698 180.967656 
C 103.382698 180.967656 103.382698 180.967656 103.382698 180.967656 
C 103.382698 180.967656 103.382698 180.967656 103.382698 180.967656 
C 103.382698 180.967656 103.382698 180.967656 103.382698 180.967656 
C 103.382698 180.967656 103.382698 180.967656 103.382698 180.967656 
C 103.382698 180.967656 103.382698 180.967656 103.382698 180.967656 
z
" clip-path="url(#p5171e9293f)" style="stroke: #000000"/>
    <path d="M 101.114541 174.501422 
C 101.332128 174.501422 101.540833 174.414974 101.69469 174.261116 
C 101.848548 174.107259 101.934996 173.898554 101.934996 173.680967 
C 101.934996 173.46338 101.848548 173.254676 101.69469 173.100818 
C 101.540833 172.946961 101.332128 172.860513 101.114541 172.860513 
C 100.896954 172.860513 100.68825 172.946961 100.534392 173.100818 
C 100.380535 173.254676 100.294087 173.46338 100.294087 173.680967 
C 100.294087 173.898554 100.380535 174.107259 100.534392 174.261116 
C 100.68825 174.414974 100.896954 174.501422 101.114541 174.501422 
z
" clip-path="url(#p5171e9293f)" style="stroke: #000000"/>
    <path d="M 94.381219 160.578662 
C 94.381219 160.578662 94.381219 160.578662 94.381219 160.578662 
C 94.381219 160.578662 94.381219 160.578662 94.381219 160.578662 
C 94.381219 160.578662 94.381219 160.578662 94.381219 160.578662 
C 94.381219 160.578662 94.381219 160.578662 94.381219 160.578662 
C 94.381219 160.578662 94.381219 160.578662 94.381219 160.578662 
C 94.381219 160.578662 94.381219 160.578662 94.381219 160.578662 
C 94.381219 160.578662 94.381219 160.578662 94.381219 160.578662 
C 94.381219 160.578662 94.381219 160.578662 94.381219 160.578662 
z
" clip-path="url(#p5171e9293f)" style="stroke: #000000"/>
    <path d="M 93.835862 152.676631 
C 94.188469 152.676631 94.526682 152.536539 94.776012 152.287208 
C 95.025343 152.037877 95.165436 151.699664 95.165436 151.347057 
C 95.165436 150.99445 95.025343 150.656237 94.776012 150.406906 
C 94.526682 150.157575 94.188469 150.017483 93.835862 150.017483 
C 93.483255 150.017483 93.145042 150.157575 92.895711 150.406906 
C 92.64638 150.656237 92.506288 150.99445 92.506288 151.347057 
C 92.506288 151.699664 92.64638 152.037877 92.895711 152.287208 
C 93.145042 152.536539 93.483255 152.676631 93.835862 152.676631 
z
" clip-path="url(#p5171e9293f)" style="stroke: #000000"/>
    <path d="M 90.559174 139.098549 
C 90.952927 139.098549 91.330606 138.942109 91.609031 138.663684 
C 91.887456 138.385258 92.043896 138.00758 92.043896 137.613827 
C 92.043896 137.220074 91.887456 136.842395 91.609031 136.56397 
C 91.330606 136.285544 90.952927 136.129105 90.559174 136.129105 
C 90.165421 136.129105 89.787742 136.285544 89.509317 136.56397 
C 89.230892 136.842395 89.074452 137.220074 89.074452 137.613827 
C 89.074452 138.00758 89.230892 138.385258 89.509317 138.663684 
C 89.787742 138.942109 90.165421 139.098549 90.559174 139.098549 
z
" clip-path="url(#p5171e9293f)" style="stroke: #000000"/>
    <path d="M 87.296385 131.024125 
C 87.296385 131.024125 87.296385 131.024125 87.296385 131.024125 
C 87.296385 131.024125 87.296385 131.024125 87.296385 131.024125 
C 87.296385 131.024125 87.296385 131.024125 87.296385 131.024125 
C 87.296385 131.024125 87.296385 131.024125 87.296385 131.024125 
C 87.296385 131.024125 87.296385 131.024125 87.296385 131.024125 
C 87.296385 131.024125 87.296385 131.024125 87.296385 131.024125 
C 87.296385 131.024125 87.296385 131.024125 87.296385 131.024125 
C 87.296385 131.024125 87.296385 131.024125 87.296385 131.024125 
z
" clip-path="url(#p5171e9293f)" style="stroke: #000000"/>
    <path d="M 78.180548 122.001023 
C 78.599871 122.001023 79.002076 121.834424 79.298582 121.537918 
C 79.595088 121.241412 79.761687 120.839207 79.761687 120.419884 
C 79.761687 120.000561 79.595088 119.598356 79.298582 119.30185 
C 79.002076 119.005344 78.599871 118.838745 78.180548 118.838745 
C 77.761225 118.838745 77.35902 119.005344 77.062514 119.30185 
C 76.766008 119.598356 76.599409 120.000561 76.599409 120.419884 
C 76.599409 120.839207 76.766008 121.241412 77.062514 121.537918 
C 77.35902 121.834424 77.761225 122.001023 78.180548 122.001023 
z
" clip-path="url(#p5171e9293f)" style="stroke: #000000"/>
    <path d="M 76.27941 110.856652 
C 76.27941 110.856652 76.27941 110.856652 76.27941 110.856652 
C 76.27941 110.856652 76.27941 110.856652 76.27941 110.856652 
C 76.27941 110.856652 76.27941 110.856652 76.27941 110.856652 
C 76.27941 110.856652 76.27941 110.856652 76.27941 110.856652 
C 76.27941 110.856652 76.27941 110.856652 76.27941 110.856652 
C 76.27941 110.856652 76.27941 110.856652 76.27941 110.856652 
C 76.27941 110.856652 76.27941 110.856652 76.27941 110.856652 
C 76.27941 110.856652 76.27941 110.856652 76.27941 110.856652 
z
" clip-path="url(#p5171e9293f)" style="stroke: #000000"/>
    <path d="M 75.718531 103.290131 
C 76.102766 103.290131 76.471314 103.137473 76.743009 102.865779 
C 77.014703 102.594084 77.167361 102.225535 77.167361 101.841301 
C 77.167361 101.457067 77.014703 101.088519 76.743009 100.816824 
C 76.471314 100.54513 76.102766 100.392472 75.718531 100.392472 
C 75.334297 100.392472 74.965749 100.54513 74.694054 100.816824 
C 74.42236 101.088519 74.269702 101.457067 74.269702 101.841301 
C 74.269702 102.225535 74.42236 102.594084 74.694054 102.865779 
C 74.965749 103.137473 75.334297 103.290131 75.718531 103.290131 
z
" clip-path="url(#p5171e9293f)" style="stroke: #000000"/>
    <path d="M 69.827897 89.442861 
C 70.24722 89.442861 70.649425 89.276262 70.945931 88.979756 
C 71.242437 88.68325 71.409036 88.281045 71.409036 87.861722 
C 71.409036 87.442399 71.242437 87.040194 70.945931 86.743688 
C 70.649425 86.447182 70.24722 86.280583 69.827897 86.280583 
C 69.408574 86.280583 69.006369 86.447182 68.709863 86.743688 
C 68.413357 87.040194 68.246758 87.442399 68.246758 87.861722 
C 68.246758 88.281045 68.413357 88.68325 68.709863 88.979756 
C 69.006369 89.276262 69.408574 89.442861 69.827897 89.442861 
z
" clip-path="url(#p5171e9293f)" style="stroke: #000000"/>
    <path d="M 69.176929 79.102288 
C 69.176929 79.102288 69.176929 79.102288 69.176929 79.102288 
C 69.176929 79.102288 69.176929 79.102288 69.176929 79.102288 
C 69.176929 79.102288 69.176929 79.102288 69.176929 79.102288 
C 69.176929 79.102288 69.176929 79.102288 69.176929 79.102288 
C 69.176929 79.102288 69.176929 79.102288 69.176929 79.102288 
C 69.176929 79.102288 69.176929 79.102288 69.176929 79.102288 
C 69.176929 79.102288 69.176929 79.102288 69.176929 79.102288 
C 69.176929 79.102288 69.176929 79.102288 69.176929 79.102288 
z
" clip-path="url(#p5171e9293f)" style="stroke: #000000"/>
    <path d="M 66.328876 71.995089 
C 66.681483 71.995089 67.019696 71.854996 67.269027 71.605666 
C 67.518358 71.356335 67.65845 71.018122 67.65845 70.665515 
C 67.65845 70.312908 67.518358 69.974695 67.269027 69.725364 
C 67.019696 69.476033 66.681483 69.335941 66.328876 69.335941 
C 65.976269 69.335941 65.638056 69.476033 65.388725 69.725364 
C 65.139395 69.974695 64.999302 70.312908 64.999302 70.665515 
C 64.999302 71.018122 65.139395 71.356335 65.388725 71.605666 
C 65.638056 71.854996 65.976269 71.995089 66.328876 71.995089 
z
" clip-path="url(#p5171e9293f)" style="stroke: #000000"/>
    <path d="M 58.671449 59.400851 
C 58.671449 59.400851 58.671449 59.400851 58.671449 59.400851 
C 58.671449 59.400851 58.671449 59.400851 58.671449 59.400851 
C 58.671449 59.400851 58.671449 59.400851 58.671449 59.400851 
C 58.671449 59.400851 58.671449 59.400851 58.671449 59.400851 
C 58.671449 59.400851 58.671449 59.400851 58.671449 59.400851 
C 58.671449 59.400851 58.671449 59.400851 58.671449 59.400851 
C 58.671449 59.400851 58.671449 59.400851 58.671449 59.400851 
C 58.671449 59.400851 58.671449 59.400851 58.671449 59.400851 
z
" clip-path="url(#p5171e9293f)" style="stroke: #000000"/>
    <path d="M 57.018803 46.172976 
C 57.018803 46.172976 57.018803 46.172976 57.018803 46.172976 
C 57.018803 46.172976 57.018803 46.172976 57.018803 46.172976 
C 57.018803 46.172976 57.018803 46.172976 57.018803 46.172976 
C 57.018803 46.172976 57.018803 46.172976 57.018803 46.172976 
C 57.018803 46.172976 57.018803 46.172976 57.018803 46.172976 
C 57.018803 46.172976 57.018803 46.172976 57.018803 46.172976 
C 57.018803 46.172976 57.018803 46.172976 57.018803 46.172976 
C 57.018803 46.172976 57.018803 46.172976 57.018803 46.172976 
z
" clip-path="url(#p5171e9293f)" style="stroke: #000000"/>
    <path d="M 54.390382 37.869504 
C 54.390382 37.869504 54.390382 37.869504 54.390382 37.869504 
C 54.390382 37.869504 54.390382 37.869504 54.390382 37.869504 
C 54.390382 37.869504 54.390382 37.869504 54.390382 37.869504 
C 54.390382 37.869504 54.390382 37.869504 54.390382 37.869504 
C 54.390382 37.869504 54.390382 37.869504 54.390382 37.869504 
C 54.390382 37.869504 54.390382 37.869504 54.390382 37.869504 
C 54.390382 37.869504 54.390382 37.869504 54.390382 37.869504 
C 54.390382 37.869504 54.390382 37.869504 54.390382 37.869504 
z
" clip-path="url(#p5171e9293f)" style="stroke: #000000"/>
    <path d="M 94.081278 171.98612 
C 94.081278 171.98612 94.081278 171.98612 94.081278 171.98612 
C 94.081278 171.98612 94.081278 171.98612 94.081278 171.98612 
C 94.081278 171.98612 94.081278 171.98612 94.081278 171.98612 
C 94.081278 171.98612 94.081278 171.98612 94.081278 171.98612 
C 94.081278 171.98612 94.081278 171.98612 94.081278 171.98612 
C 94.081278 171.98612 94.081278 171.98612 94.081278 171.98612 
C 94.081278 171.98612 94.081278 171.98612 94.081278 171.98612 
C 94.081278 171.98612 94.081278 171.98612 94.081278 171.98612 
z
" clip-path="url(#p5171e9293f)" style="stroke: #000000"/>
    <path d="M 85.84351 164.680709 
C 86.192082 164.680709 86.526424 164.54222 86.772901 164.295743 
C 87.019378 164.049265 87.157867 163.714923 87.157867 163.366352 
C 87.157867 163.01778 87.019378 162.683438 86.772901 162.436961 
C 86.526424 162.190484 86.192082 162.051995 85.84351 162.051995 
C 85.494939 162.051995 85.160597 162.190484 84.914119 162.436961 
C 84.667642 162.683438 84.529153 163.01778 84.529153 163.366352 
C 84.529153 163.714923 84.667642 164.049265 84.914119 164.295743 
C 85.160597 164.54222 85.494939 164.680709 85.84351 164.680709 
z
" clip-path="url(#p5171e9293f)" style="stroke: #000000"/>
    <path d="M 85.471686 157.425451 
C 85.824733 157.425451 86.163368 157.285184 86.41301 157.035542 
C 86.662652 156.7859 86.802919 156.447265 86.802919 156.094218 
C 86.802919 155.741171 86.662652 155.402536 86.41301 155.152894 
C 86.163368 154.903252 85.824733 154.762985 85.471686 154.762985 
C 85.118639 154.762985 84.780004 154.903252 84.530362 155.152894 
C 84.28072 155.402536 84.140453 155.741171 84.140453 156.094218 
C 84.140453 156.447265 84.28072 156.7859 84.530362 157.035542 
C 84.780004 157.285184 85.118639 157.425451 85.471686 157.425451 
z
" clip-path="url(#p5171e9293f)" style="stroke: #000000"/>
    <path d="M 80.137478 144.588363 
C 80.137478 144.588363 80.137478 144.588363 80.137478 144.588363 
C 80.137478 144.588363 80.137478 144.588363 80.137478 144.588363 
C 80.137478 144.588363 80.137478 144.588363 80.137478 144.588363 
C 80.137478 144.588363 80.137478 144.588363 80.137478 144.588363 
C 80.137478 144.588363 80.137478 144.588363 80.137478 144.588363 
C 80.137478 144.588363 80.137478 144.588363 80.137478 144.588363 
C 80.137478 144.588363 80.137478 144.588363 80.137478 144.588363 
C 80.137478 144.588363 80.137478 144.588363 80.137478 144.588363 
z
" clip-path="url(#p5171e9293f)" style="stroke: #000000"/>
    <path d="M 75.936732 133.080764 
C 76.048236 133.080764 76.155189 133.036463 76.234034 132.957618 
C 76.312879 132.878772 76.35718 132.77182 76.35718 132.660316 
C 76.35718 132.548812 76.312879 132.441859 76.234034 132.363014 
C 76.155189 132.284169 76.048236 132.239868 75.936732 132.239868 
C 75.825228 132.239868 75.718276 132.284169 75.63943 132.363014 
C 75.560585 132.441859 75.516284 132.548812 75.516284 132.660316 
C 75.516284 132.77182 75.560585 132.878772 75.63943 132.957618 
C 75.718276 133.036463 75.825228 133.080764 75.936732 133.080764 
z
" clip-path="url(#p5171e9293f)" style="stroke: #000000"/>
    <path d="M 72.747246 122.56567 
C 72.747246 122.56567 72.747246 122.56567 72.747246 122.56567 
C 72.747246 122.56567 72.747246 122.56567 72.747246 122.56567 
C 72.747246 122.56567 72.747246 122.56567 72.747246 122.56567 
C 72.747246 122.56567 72.747246 122.56567 72.747246 122.56567 
C 72.747246 122.56567 72.747246 122.56567 72.747246 122.56567 
C 72.747246 122.56567 72.747246 122.56567 72.747246 122.56567 
C 72.747246 122.56567 72.747246 122.56567 72.747246 122.56567 
C 72.747246 122.56567 72.747246 122.56567 72.747246 122.56567 
z
" clip-path="url(#p5171e9293f)" style="stroke: #000000"/>
    <path d="M 70.766058 117.695828 
C 71.165691 117.695828 71.549011 117.537052 71.831595 117.254468 
C 72.114178 116.971885 72.272954 116.588565 72.272954 116.188931 
C 72.272954 115.789298 72.114178 115.405978 71.831595 115.123395 
C 71.549011 114.840811 71.165691 114.682035 70.766058 114.682035 
C 70.366424 114.682035 69.983104 114.840811 69.700521 115.123395 
C 69.417937 115.405978 69.259161 115.789298 69.259161 116.188931 
C 69.259161 116.588565 69.417937 116.971885 69.700521 117.254468 
C 69.983104 117.537052 70.366424 117.695828 70.766058 117.695828 
z
" clip-path="url(#p5171e9293f)" style="stroke: #000000"/>
    <path d="M 61.120725 100.744841 
C 61.120725 100.744841 61.120725 100.744841 61.120725 100.744841 
C 61.120725 100.744841 61.120725 100.744841 61.120725 100.744841 
C 61.120725 100.744841 61.120725 100.744841 61.120725 100.744841 
C 61.120725 100.744841 61.120725 100.744841 61.120725 100.744841 
C 61.120725 100.744841 61.120725 100.744841 61.120725 100.744841 
C 61.120725 100.744841 61.120725 100.744841 61.120725 100.744841 
C 61.120725 100.744841 61.120725 100.744841 61.120725 100.744841 
C 61.120725 100.744841 61.120725 100.744841 61.120725 100.744841 
z
" clip-path="url(#p5171e9293f)" style="stroke: #000000"/>
    <path d="M 60.050719 91.70054 
C 60.050719 91.70054 60.050719 91.70054 60.050719 91.70054 
C 60.050719 91.70054 60.050719 91.70054 60.050719 91.70054 
C 60.050719 91.70054 60.050719 91.70054 60.050719 91.70054 
C 60.050719 91.70054 60.050719 91.70054 60.050719 91.70054 
C 60.050719 91.70054 60.050719 91.70054 60.050719 91.70054 
C 60.050719 91.70054 60.050719 91.70054 60.050719 91.70054 
C 60.050719 91.70054 60.050719 91.70054 60.050719 91.70054 
C 60.050719 91.70054 60.050719 91.70054 60.050719 91.70054 
z
" clip-path="url(#p5171e9293f)" style="stroke: #000000"/>
    <path d="M 58.171001 84.968405 
C 58.590324 84.968405 58.992529 84.801806 59.289035 84.5053 
C 59.585541 84.208794 59.75214 83.806589 59.75214 83.387266 
C 59.75214 82.967943 59.585541 82.565738 59.289035 82.269232 
C 58.992529 81.972726 58.590324 81.806127 58.171001 81.806127 
C 57.751679 81.806127 57.349474 81.972726 57.052967 82.269232 
C 56.756461 82.565738 56.589863 82.967943 56.589863 83.387266 
C 56.589863 83.806589 56.756461 84.208794 57.052967 84.5053 
C 57.349474 84.801806 57.751679 84.968405 58.171001 84.968405 
z
" clip-path="url(#p5171e9293f)" style="stroke: #000000"/>
    <path d="M 55.029734 75.168385 
C 55.029734 75.168385 55.029734 75.168385 55.029734 75.168385 
C 55.029734 75.168385 55.029734 75.168385 55.029734 75.168385 
C 55.029734 75.168385 55.029734 75.168385 55.029734 75.168385 
C 55.029734 75.168385 55.029734 75.168385 55.029734 75.168385 
C 55.029734 75.168385 55.029734 75.168385 55.029734 75.168385 
C 55.029734 75.168385 55.029734 75.168385 55.029734 75.168385 
C 55.029734 75.168385 55.029734 75.168385 55.029734 75.168385 
C 55.029734 75.168385 55.029734 75.168385 55.029734 75.168385 
z
" clip-path="url(#p5171e9293f)" style="stroke: #000000"/>
    <path d="M 47.645013 60.681481 
C 47.994494 60.681481 48.329707 60.542631 48.576827 60.295511 
C 48.823947 60.048391 48.962797 59.713178 48.962797 59.363697 
C 48.962797 59.014217 48.823947 58.679003 48.576827 58.431883 
C 48.329707 58.184763 47.994494 58.045913 47.645013 58.045913 
C 47.295533 58.045913 46.960319 58.184763 46.713199 58.431883 
C 46.466079 58.679003 46.327229 59.014217 46.327229 59.363697 
C 46.327229 59.713178 46.466079 60.048391 46.713199 60.295511 
C 46.960319 60.542631 47.295533 60.681481 47.645013 60.681481 
z
" clip-path="url(#p5171e9293f)" style="stroke: #000000"/>
    <path d="M 47.776443 55.795376 
C 48.028231 55.795376 48.26974 55.695339 48.447781 55.517299 
C 48.625821 55.339258 48.725858 55.097749 48.725858 54.845961 
C 48.725858 54.594174 48.625821 54.352665 48.447781 54.174624 
C 48.26974 53.996583 48.028231 53.896547 47.776443 53.896547 
C 47.524655 53.896547 47.283146 53.996583 47.105106 54.174624 
C 46.927065 54.352665 46.827029 54.594174 46.827029 54.845961 
C 46.827029 55.097749 46.927065 55.339258 47.105106 55.517299 
C 47.283146 55.695339 47.524655 55.795376 47.776443 55.795376 
z
" clip-path="url(#p5171e9293f)" style="stroke: #000000"/>
    <path d="M 72.294077 165.93706 
C 72.294077 165.93706 72.294077 165.93706 72.294077 165.93706 
C 72.294077 165.93706 72.294077 165.93706 72.294077 165.93706 
C 72.294077 165.93706 72.294077 165.93706 72.294077 165.93706 
C 72.294077 165.93706 72.294077 165.93706 72.294077 165.93706 
C 72.294077 165.93706 72.294077 165.93706 72.294077 165.93706 
C 72.294077 165.93706 72.294077 165.93706 72.294077 165.93706 
C 72.294077 165.93706 72.294077 165.93706 72.294077 165.93706 
C 72.294077 165.93706 72.294077 165.93706 72.294077 165.93706 
z
" clip-path="url(#p5171e9293f)" style="stroke: #000000"/>
    <path d="M 71.435653 157.976378 
C 71.435653 157.976378 71.435653 157.976378 71.435653 157.976378 
C 71.435653 157.976378 71.435653 157.976378 71.435653 157.976378 
C 71.435653 157.976378 71.435653 157.976378 71.435653 157.976378 
C 71.435653 157.976378 71.435653 157.976378 71.435653 157.976378 
C 71.435653 157.976378 71.435653 157.976378 71.435653 157.976378 
C 71.435653 157.976378 71.435653 157.976378 71.435653 157.976378 
C 71.435653 157.976378 71.435653 157.976378 71.435653 157.976378 
C 71.435653 157.976378 71.435653 157.976378 71.435653 157.976378 
z
" clip-path="url(#p5171e9293f)" style="stroke: #000000"/>
    <path d="M 67.529055 149.509803 
C 67.529055 149.509803 67.529055 149.509803 67.529055 149.509803 
C 67.529055 149.509803 67.529055 149.509803 67.529055 149.509803 
C 67.529055 149.509803 67.529055 149.509803 67.529055 149.509803 
C 67.529055 149.509803 67.529055 149.509803 67.529055 149.509803 
C 67.529055 149.509803 67.529055 149.509803 67.529055 149.509803 
C 67.529055 149.509803 67.529055 149.509803 67.529055 149.509803 
C 67.529055 149.509803 67.529055 149.509803 67.529055 149.509803 
C 67.529055 149.509803 67.529055 149.509803 67.529055 149.509803 
z
" clip-path="url(#p5171e9293f)" style="stroke: #000000"/>
    <path d="M 66.541954 139.205732 
C 66.541954 139.205732 66.541954 139.205732 66.541954 139.205732 
C 66.541954 139.205732 66.541954 139.205732 66.541954 139.205732 
C 66.541954 139.205732 66.541954 139.205732 66.541954 139.205732 
C 66.541954 139.205732 66.541954 139.205732 66.541954 139.205732 
C 66.541954 139.205732 66.541954 139.205732 66.541954 139.205732 
C 66.541954 139.205732 66.541954 139.205732 66.541954 139.205732 
C 66.541954 139.205732 66.541954 139.205732 66.541954 139.205732 
C 66.541954 139.205732 66.541954 139.205732 66.541954 139.205732 
z
" clip-path="url(#p5171e9293f)" style="stroke: #000000"/>
    <path d="M 63.291126 128.202217 
C 63.291126 128.202217 63.291126 128.202217 63.291126 128.202217 
C 63.291126 128.202217 63.291126 128.202217 63.291126 128.202217 
C 63.291126 128.202217 63.291126 128.202217 63.291126 128.202217 
C 63.291126 128.202217 63.291126 128.202217 63.291126 128.202217 
C 63.291126 128.202217 63.291126 128.202217 63.291126 128.202217 
C 63.291126 128.202217 63.291126 128.202217 63.291126 128.202217 
C 63.291126 128.202217 63.291126 128.202217 63.291126 128.202217 
C 63.291126 128.202217 63.291126 128.202217 63.291126 128.202217 
z
" clip-path="url(#p5171e9293f)" style="stroke: #000000"/>
    <path d="M 57.199784 112.586316 
C 57.199784 112.586316 57.199784 112.586316 57.199784 112.586316 
C 57.199784 112.586316 57.199784 112.586316 57.199784 112.586316 
C 57.199784 112.586316 57.199784 112.586316 57.199784 112.586316 
C 57.199784 112.586316 57.199784 112.586316 57.199784 112.586316 
C 57.199784 112.586316 57.199784 112.586316 57.199784 112.586316 
C 57.199784 112.586316 57.199784 112.586316 57.199784 112.586316 
C 57.199784 112.586316 57.199784 112.586316 57.199784 112.586316 
C 57.199784 112.586316 57.199784 112.586316 57.199784 112.586316 
z
" clip-path="url(#p5171e9293f)" style="stroke: #000000"/>
    <path d="M 53.720579 113.123058 
C 54.139902 113.123058 54.542106 112.956459 54.838613 112.659953 
C 55.135119 112.363447 55.301717 111.961242 55.301717 111.541919 
C 55.301717 111.122596 55.135119 110.720391 54.838613 110.423885 
C 54.542106 110.127379 54.139902 109.96078 53.720579 109.96078 
C 53.301256 109.96078 52.899051 110.127379 52.602545 110.423885 
C 52.306039 110.720391 52.13944 111.122596 52.13944 111.541919 
C 52.13944 111.961242 52.306039 112.363447 52.602545 112.659953 
C 52.899051 112.956459 53.301256 113.123058 53.720579 113.123058 
z
" clip-path="url(#p5171e9293f)" style="stroke: #000000"/>
    <path d="M 48.125009 100.24274 
C 48.125009 100.24274 48.125009 100.24274 48.125009 100.24274 
C 48.125009 100.24274 48.125009 100.24274 48.125009 100.24274 
C 48.125009 100.24274 48.125009 100.24274 48.125009 100.24274 
C 48.125009 100.24274 48.125009 100.24274 48.125009 100.24274 
C 48.125009 100.24274 48.125009 100.24274 48.125009 100.24274 
C 48.125009 100.24274 48.125009 100.24274 48.125009 100.24274 
C 48.125009 100.24274 48.125009 100.24274 48.125009 100.24274 
C 48.125009 100.24274 48.125009 100.24274 48.125009 100.24274 
z
" clip-path="url(#p5171e9293f)" style="stroke: #000000"/>
    <path d="M 48.833599 83.243525 
C 49.186206 83.243525 49.524419 83.103433 49.773749 82.854102 
C 50.02308 82.604771 50.163173 82.266558 50.163173 81.913951 
C 50.163173 81.561344 50.02308 81.223131 49.773749 80.9738 
C 49.524419 80.724469 49.186206 80.584377 48.833599 80.584377 
C 48.480992 80.584377 48.142779 80.724469 47.893448 80.9738 
C 47.644117 81.223131 47.504025 81.561344 47.504025 81.913951 
C 47.504025 82.266558 47.644117 82.604771 47.893448 82.854102 
C 48.142779 83.103433 48.480992 83.243525 48.833599 83.243525 
z
" clip-path="url(#p5171e9293f)" style="stroke: #000000"/>
    <path d="M 42.274663 76.976393 
C 42.274663 76.976393 42.274663 76.976393 42.274663 76.976393 
C 42.274663 76.976393 42.274663 76.976393 42.274663 76.976393 
C 42.274663 76.976393 42.274663 76.976393 42.274663 76.976393 
C 42.274663 76.976393 42.274663 76.976393 42.274663 76.976393 
C 42.274663 76.976393 42.274663 76.976393 42.274663 76.976393 
C 42.274663 76.976393 42.274663 76.976393 42.274663 76.976393 
C 42.274663 76.976393 42.274663 76.976393 42.274663 76.976393 
C 42.274663 76.976393 42.274663 76.976393 42.274663 76.976393 
z
" clip-path="url(#p5171e9293f)" style="stroke: #000000"/>
    <path d="M 41.057324 65.34821 
C 41.057324 65.34821 41.057324 65.34821 41.057324 65.34821 
C 41.057324 65.34821 41.057324 65.34821 41.057324 65.34821 
C 41.057324 65.34821 41.057324 65.34821 41.057324 65.34821 
C 41.057324 65.34821 41.057324 65.34821 41.057324 65.34821 
C 41.057324 65.34821 41.057324 65.34821 41.057324 65.34821 
C 41.057324 65.34821 41.057324 65.34821 41.057324 65.34821 
C 41.057324 65.34821 41.057324 65.34821 41.057324 65.34821 
C 41.057324 65.34821 41.057324 65.34821 41.057324 65.34821 
z
" clip-path="url(#p5171e9293f)" style="stroke: #000000"/>
    <path d="M 66.10655 164.401679 
C 66.10655 164.401679 66.10655 164.401679 66.10655 164.401679 
C 66.10655 164.401679 66.10655 164.401679 66.10655 164.401679 
C 66.10655 164.401679 66.10655 164.401679 66.10655 164.401679 
C 66.10655 164.401679 66.10655 164.401679 66.10655 164.401679 
C 66.10655 164.401679 66.10655 164.401679 66.10655 164.401679 
C 66.10655 164.401679 66.10655 164.401679 66.10655 164.401679 
C 66.10655 164.401679 66.10655 164.401679 66.10655 164.401679 
C 66.10655 164.401679 66.10655 164.401679 66.10655 164.401679 
z
" clip-path="url(#p5171e9293f)" style="stroke: #000000"/>
    <path d="M 59.916306 162.932267 
C 59.916306 162.932267 59.916306 162.932267 59.916306 162.932267 
C 59.916306 162.932267 59.916306 162.932267 59.916306 162.932267 
C 59.916306 162.932267 59.916306 162.932267 59.916306 162.932267 
C 59.916306 162.932267 59.916306 162.932267 59.916306 162.932267 
C 59.916306 162.932267 59.916306 162.932267 59.916306 162.932267 
C 59.916306 162.932267 59.916306 162.932267 59.916306 162.932267 
C 59.916306 162.932267 59.916306 162.932267 59.916306 162.932267 
C 59.916306 162.932267 59.916306 162.932267 59.916306 162.932267 
z
" clip-path="url(#p5171e9293f)" style="stroke: #000000"/>
    <path d="M 60.330518 151.065658 
C 60.330518 151.065658 60.330518 151.065658 60.330518 151.065658 
C 60.330518 151.065658 60.330518 151.065658 60.330518 151.065658 
C 60.330518 151.065658 60.330518 151.065658 60.330518 151.065658 
C 60.330518 151.065658 60.330518 151.065658 60.330518 151.065658 
C 60.330518 151.065658 60.330518 151.065658 60.330518 151.065658 
C 60.330518 151.065658 60.330518 151.065658 60.330518 151.065658 
C 60.330518 151.065658 60.330518 151.065658 60.330518 151.065658 
C 60.330518 151.065658 60.330518 151.065658 60.330518 151.065658 
z
" clip-path="url(#p5171e9293f)" style="stroke: #000000"/>
    <path d="M 52.923411 141.188264 
C 52.923411 141.188264 52.923411 141.188264 52.923411 141.188264 
C 52.923411 141.188264 52.923411 141.188264 52.923411 141.188264 
C 52.923411 141.188264 52.923411 141.188264 52.923411 141.188264 
C 52.923411 141.188264 52.923411 141.188264 52.923411 141.188264 
C 52.923411 141.188264 52.923411 141.188264 52.923411 141.188264 
C 52.923411 141.188264 52.923411 141.188264 52.923411 141.188264 
C 52.923411 141.188264 52.923411 141.188264 52.923411 141.188264 
C 52.923411 141.188264 52.923411 141.188264 52.923411 141.188264 
z
" clip-path="url(#p5171e9293f)" style="stroke: #000000"/>
    <path d="M 50.034993 131.777061 
C 50.034993 131.777061 50.034993 131.777061 50.034993 131.777061 
C 50.034993 131.777061 50.034993 131.777061 50.034993 131.777061 
C 50.034993 131.777061 50.034993 131.777061 50.034993 131.777061 
C 50.034993 131.777061 50.034993 131.777061 50.034993 131.777061 
C 50.034993 131.777061 50.034993 131.777061 50.034993 131.777061 
C 50.034993 131.777061 50.034993 131.777061 50.034993 131.777061 
C 50.034993 131.777061 50.034993 131.777061 50.034993 131.777061 
C 50.034993 131.777061 50.034993 131.777061 50.034993 131.777061 
z
" clip-path="url(#p5171e9293f)" style="stroke: #000000"/>
    <path d="M 47.077335 120.479895 
C 47.077335 120.479895 47.077335 120.479895 47.077335 120.479895 
C 47.077335 120.479895 47.077335 120.479895 47.077335 120.479895 
C 47.077335 120.479895 47.077335 120.479895 47.077335 120.479895 
C 47.077335 120.479895 47.077335 120.479895 47.077335 120.479895 
C 47.077335 120.479895 47.077335 120.479895 47.077335 120.479895 
C 47.077335 120.479895 47.077335 120.479895 47.077335 120.479895 
C 47.077335 120.479895 47.077335 120.479895 47.077335 120.479895 
C 47.077335 120.479895 47.077335 120.479895 47.077335 120.479895 
z
" clip-path="url(#p5171e9293f)" style="stroke: #000000"/>
    <path d="M 44.198567 114.493747 
C 44.198567 114.493747 44.198567 114.493747 44.198567 114.493747 
C 44.198567 114.493747 44.198567 114.493747 44.198567 114.493747 
C 44.198567 114.493747 44.198567 114.493747 44.198567 114.493747 
C 44.198567 114.493747 44.198567 114.493747 44.198567 114.493747 
C 44.198567 114.493747 44.198567 114.493747 44.198567 114.493747 
C 44.198567 114.493747 44.198567 114.493747 44.198567 114.493747 
C 44.198567 114.493747 44.198567 114.493747 44.198567 114.493747 
C 44.198567 114.493747 44.198567 114.493747 44.198567 114.493747 
z
" clip-path="url(#p5171e9293f)" style="stroke: #000000"/>
    <path d="M 42.606197 99.792691 
C 42.606197 99.792691 42.606197 99.792691 42.606197 99.792691 
C 42.606197 99.792691 42.606197 99.792691 42.606197 99.792691 
C 42.606197 99.792691 42.606197 99.792691 42.606197 99.792691 
C 42.606197 99.792691 42.606197 99.792691 42.606197 99.792691 
C 42.606197 99.792691 42.606197 99.792691 42.606197 99.792691 
C 42.606197 99.792691 42.606197 99.792691 42.606197 99.792691 
C 42.606197 99.792691 42.606197 99.792691 42.606197 99.792691 
C 42.606197 99.792691 42.606197 99.792691 42.606197 99.792691 
z
" clip-path="url(#p5171e9293f)" style="stroke: #000000"/>
    <path d="M 34.233952 91.956027 
C 34.233952 91.956027 34.233952 91.956027 34.233952 91.956027 
C 34.233952 91.956027 34.233952 91.956027 34.233952 91.956027 
C 34.233952 91.956027 34.233952 91.956027 34.233952 91.956027 
C 34.233952 91.956027 34.233952 91.956027 34.233952 91.956027 
C 34.233952 91.956027 34.233952 91.956027 34.233952 91.956027 
C 34.233952 91.956027 34.233952 91.956027 34.233952 91.956027 
C 34.233952 91.956027 34.233952 91.956027 34.233952 91.956027 
C 34.233952 91.956027 34.233952 91.956027 34.233952 91.956027 
z
" clip-path="url(#p5171e9293f)" style="stroke: #000000"/>
    <path d="M 34.197129 80.703214 
C 34.549736 80.703214 34.887949 80.563122 35.13728 80.313791 
C 35.386611 80.06446 35.526703 79.726247 35.526703 79.37364 
C 35.526703 79.021033 35.386611 78.68282 35.13728 78.433489 
C 34.887949 78.184158 34.549736 78.044066 34.197129 78.044066 
C 33.844522 78.044066 33.506309 78.184158 33.256979 78.433489 
C 33.007648 78.68282 32.867555 79.021033 32.867555 79.37364 
C 32.867555 79.726247 33.007648 80.06446 33.256979 80.313791 
C 33.506309 80.563122 33.844522 80.703214 34.197129 80.703214 
z
" clip-path="url(#p5171e9293f)" style="stroke: #000000"/>
    <path d="M 47.26216 162.679317 
C 47.26216 162.679317 47.26216 162.679317 47.26216 162.679317 
C 47.26216 162.679317 47.26216 162.679317 47.26216 162.679317 
C 47.26216 162.679317 47.26216 162.679317 47.26216 162.679317 
C 47.26216 162.679317 47.26216 162.679317 47.26216 162.679317 
C 47.26216 162.679317 47.26216 162.679317 47.26216 162.679317 
C 47.26216 162.679317 47.26216 162.679317 47.26216 162.679317 
C 47.26216 162.679317 47.26216 162.679317 47.26216 162.679317 
C 47.26216 162.679317 47.26216 162.679317 47.26216 162.679317 
z
" clip-path="url(#p5171e9293f)" style="stroke: #000000"/>
    <path d="M 47.931923 154.613813 
C 47.931923 154.613813 47.931923 154.613813 47.931923 154.613813 
C 47.931923 154.613813 47.931923 154.613813 47.931923 154.613813 
C 47.931923 154.613813 47.931923 154.613813 47.931923 154.613813 
C 47.931923 154.613813 47.931923 154.613813 47.931923 154.613813 
C 47.931923 154.613813 47.931923 154.613813 47.931923 154.613813 
C 47.931923 154.613813 47.931923 154.613813 47.931923 154.613813 
C 47.931923 154.613813 47.931923 154.613813 47.931923 154.613813 
C 47.931923 154.613813 47.931923 154.613813 47.931923 154.613813 
z
" clip-path="url(#p5171e9293f)" style="stroke: #000000"/>
    <path d="M 41.661209 146.384712 
C 41.661209 146.384712 41.661209 146.384712 41.661209 146.384712 
C 41.661209 146.384712 41.661209 146.384712 41.661209 146.384712 
C 41.661209 146.384712 41.661209 146.384712 41.661209 146.384712 
C 41.661209 146.384712 41.661209 146.384712 41.661209 146.384712 
C 41.661209 146.384712 41.661209 146.384712 41.661209 146.384712 
C 41.661209 146.384712 41.661209 146.384712 41.661209 146.384712 
C 41.661209 146.384712 41.661209 146.384712 41.661209 146.384712 
C 41.661209 146.384712 41.661209 146.384712 41.661209 146.384712 
z
" clip-path="url(#p5171e9293f)" style="stroke: #000000"/>
    <path d="M 40.615896 138.143873 
C 40.968503 138.143873 41.306716 138.003781 41.556047 137.75445 
C 41.805378 137.505119 41.94547 137.166906 41.94547 136.814299 
C 41.94547 136.461692 41.805378 136.123479 41.556047 135.874148 
C 41.306716 135.624817 40.968503 135.484725 40.615896 135.484725 
C 40.263289 135.484725 39.925076 135.624817 39.675745 135.874148 
C 39.426414 136.123479 39.286322 136.461692 39.286322 136.814299 
C 39.286322 137.166906 39.426414 137.505119 39.675745 137.75445 
C 39.925076 138.003781 40.263289 138.143873 40.615896 138.143873 
z
" clip-path="url(#p5171e9293f)" style="stroke: #000000"/>
    <path d="M 37.36954 118.021126 
C 37.36954 118.021126 37.36954 118.021126 37.36954 118.021126 
C 37.36954 118.021126 37.36954 118.021126 37.36954 118.021126 
C 37.36954 118.021126 37.36954 118.021126 37.36954 118.021126 
C 37.36954 118.021126 37.36954 118.021126 37.36954 118.021126 
C 37.36954 118.021126 37.36954 118.021126 37.36954 118.021126 
C 37.36954 118.021126 37.36954 118.021126 37.36954 118.021126 
C 37.36954 118.021126 37.36954 118.021126 37.36954 118.021126 
C 37.36954 118.021126 37.36954 118.021126 37.36954 118.021126 
z
" clip-path="url(#p5171e9293f)" style="stroke: #000000"/>
    <path d="M 33.649928 110.357023 
C 33.649928 110.357023 33.649928 110.357023 33.649928 110.357023 
C 33.649928 110.357023 33.649928 110.357023 33.649928 110.357023 
C 33.649928 110.357023 33.649928 110.357023 33.649928 110.357023 
C 33.649928 110.357023 33.649928 110.357023 33.649928 110.357023 
C 33.649928 110.357023 33.649928 110.357023 33.649928 110.357023 
C 33.649928 110.357023 33.649928 110.357023 33.649928 110.357023 
C 33.649928 110.357023 33.649928 110.357023 33.649928 110.357023 
C 33.649928 110.357023 33.649928 110.357023 33.649928 110.357023 
z
" clip-path="url(#p5171e9293f)" style="stroke: #000000"/>
    <path d="M 29.225593 102.637014 
C 29.225593 102.637014 29.225593 102.637014 29.225593 102.637014 
C 29.225593 102.637014 29.225593 102.637014 29.225593 102.637014 
C 29.225593 102.637014 29.225593 102.637014 29.225593 102.637014 
C 29.225593 102.637014 29.225593 102.637014 29.225593 102.637014 
C 29.225593 102.637014 29.225593 102.637014 29.225593 102.637014 
C 29.225593 102.637014 29.225593 102.637014 29.225593 102.637014 
C 29.225593 102.637014 29.225593 102.637014 29.225593 102.637014 
C 29.225593 102.637014 29.225593 102.637014 29.225593 102.637014 
z
" clip-path="url(#p5171e9293f)" style="stroke: #000000"/>
    <path d="M 44.11263 177.049572 
C 44.11263 177.049572 44.11263 177.049572 44.11263 177.049572 
C 44.11263 177.049572 44.11263 177.049572 44.11263 177.049572 
C 44.11263 177.049572 44.11263 177.049572 44.11263 177.049572 
C 44.11263 177.049572 44.11263 177.049572 44.11263 177.049572 
C 44.11263 177.049572 44.11263 177.049572 44.11263 177.049572 
C 44.11263 177.049572 44.11263 177.049572 44.11263 177.049572 
C 44.11263 177.049572 44.11263 177.049572 44.11263 177.049572 
C 44.11263 177.049572 44.11263 177.049572 44.11263 177.049572 
z
" clip-path="url(#p5171e9293f)" style="stroke: #000000"/>
    <path d="M 36.181562 166.040896 
C 36.450815 166.040896 36.709077 165.933921 36.899467 165.74353 
C 37.089858 165.553139 37.196834 165.294878 37.196834 165.025624 
C 37.196834 164.756371 37.089858 164.49811 36.899467 164.307719 
C 36.709077 164.117328 36.450815 164.010353 36.181562 164.010353 
C 35.912309 164.010353 35.654047 164.117328 35.463657 164.307719 
C 35.273266 164.49811 35.16629 164.756371 35.16629 165.025624 
C 35.16629 165.294878 35.273266 165.553139 35.463657 165.74353 
C 35.654047 165.933921 35.912309 166.040896 36.181562 166.040896 
z
" clip-path="url(#p5171e9293f)" style="stroke: #000000"/>
    <path d="M 39.261159 159.165035 
C 39.261159 159.165035 39.261159 159.165035 39.261159 159.165035 
C 39.261159 159.165035 39.261159 159.165035 39.261159 159.165035 
C 39.261159 159.165035 39.261159 159.165035 39.261159 159.165035 
C 39.261159 159.165035 39.261159 159.165035 39.261159 159.165035 
C 39.261159 159.165035 39.261159 159.165035 39.261159 159.165035 
C 39.261159 159.165035 39.261159 159.165035 39.261159 159.165035 
C 39.261159 159.165035 39.261159 159.165035 39.261159 159.165035 
C 39.261159 159.165035 39.261159 159.165035 39.261159 159.165035 
z
" clip-path="url(#p5171e9293f)" style="stroke: #000000"/>
    <path d="M 29.55917 148.843379 
C 29.55917 148.843379 29.55917 148.843379 29.55917 148.843379 
C 29.55917 148.843379 29.55917 148.843379 29.55917 148.843379 
C 29.55917 148.843379 29.55917 148.843379 29.55917 148.843379 
C 29.55917 148.843379 29.55917 148.843379 29.55917 148.843379 
C 29.55917 148.843379 29.55917 148.843379 29.55917 148.843379 
C 29.55917 148.843379 29.55917 148.843379 29.55917 148.843379 
C 29.55917 148.843379 29.55917 148.843379 29.55917 148.843379 
C 29.55917 148.843379 29.55917 148.843379 29.55917 148.843379 
z
" clip-path="url(#p5171e9293f)" style="stroke: #000000"/>
    <path d="M 28.64349 140.28305 
C 28.64349 140.28305 28.64349 140.28305 28.64349 140.28305 
C 28.64349 140.28305 28.64349 140.28305 28.64349 140.28305 
C 28.64349 140.28305 28.64349 140.28305 28.64349 140.28305 
C 28.64349 140.28305 28.64349 140.28305 28.64349 140.28305 
C 28.64349 140.28305 28.64349 140.28305 28.64349 140.28305 
C 28.64349 140.28305 28.64349 140.28305 28.64349 140.28305 
C 28.64349 140.28305 28.64349 140.28305 28.64349 140.28305 
C 28.64349 140.28305 28.64349 140.28305 28.64349 140.28305 
z
" clip-path="url(#p5171e9293f)" style="stroke: #000000"/>
   </g>
   <g id="matplotlib.axis_1">
    <g id="xtick_1">
     <g id="line2d_1">
      <defs>
       <path id="mb48dba2fd6" d="M 0 0 
L 0 3.5 
" style="stroke: #000000; stroke-width: 0.8"/>
      </defs>
      <g>
       <use xlink:href="#mb48dba2fd6" x="18" y="189" style="stroke: #000000; stroke-width: 0.8"/>
      </g>
     </g>
     <g id="text_1">
      <!-- 10 -->
      <g transform="translate(7.447656 203.598437)scale(0.1 -0.1)">
       <defs>
        <path id="DejaVuSans-2212" d="M 678 2272 
L 4684 2272 
L 4684 1741 
L 678 1741 
L 678 2272 
z
" transform="scale(0.015625)"/>
        <path id="DejaVuSans-31" d="M 794 531 
L 1825 531 
L 1825 4091 
L 703 3866 
L 703 4441 
L 1819 4666 
L 2450 4666 
L 2450 531 
L 3481 531 
L 3481 0 
L 794 0 
L 794 531 
z
" transform="scale(0.015625)"/>
        <path id="DejaVuSans-30" d="M 2034 4250 
Q 1547 4250 1301 3770 
Q 1056 3291 1056 2328 
Q 1056 1369 1301 889 
Q 1547 409 2034 409 
Q 2525 409 2770 889 
Q 3016 1369 3016 2328 
Q 3016 3291 2770 3770 
Q 2525 4250 2034 4250 
z
M 2034 4750 
Q 2819 4750 3233 4129 
Q 3647 3509 3647 2328 
Q 3647 1150 3233 529 
Q 2819 -91 2034 -91 
Q 1250 -91 836 529 
Q 422 1150 422 2328 
Q 422 3509 836 4129 
Q 1250 4750 2034 4750 
z
" transform="scale(0.015625)"/>
       </defs>
       <use xlink:href="#DejaVuSans-2212"/>
       <use xlink:href="#DejaVuSans-31" x="83.789062"/>
       <use xlink:href="#DejaVuSans-30" x="147.412109"/>
      </g>
     </g>
    </g>
    <g id="xtick_2">
     <g id="line2d_2">
      <g>
       <use xlink:href="#mb48dba2fd6" x="73.8" y="189" style="stroke: #000000; stroke-width: 0.8"/>
      </g>
     </g>
     <g id="text_2">
      <!-- 0 -->
      <g transform="translate(70.61875 203.598437)scale(0.1 -0.1)">
       <use xlink:href="#DejaVuSans-30"/>
      </g>
     </g>
    </g>
    <g id="xtick_3">
     <g id="line2d_3">
      <g>
       <use xlink:href="#mb48dba2fd6" x="129.6" y="189" style="stroke: #000000; stroke-width: 0.8"/>
      </g>
     </g>
     <g id="text_3">
      <!-- 10 -->
      <g transform="translate(123.2375 203.598437)scale(0.1 -0.1)">
       <use xlink:href="#DejaVuSans-31"/>
       <use xlink:href="#DejaVuSans-30" x="63.623047"/>
      </g>
     </g>
    </g>
   </g>
   <g id="matplotlib.axis_2">
    <g id="ytick_1">
     <g id="line2d_4">
      <defs>
       <path id="m5cefa1bf5b" d="M 0 0 
L -3.5 0 
" style="stroke: #000000; stroke-width: 0.8"/>
      </defs>
      <g>
       <use xlink:href="#m5cefa1bf5b" x="18" y="189" style="stroke: #000000; stroke-width: 0.8"/>
      </g>
     </g>
     <g id="text_4">
      <!-- 15 -->
      <g transform="translate(-10.104688 192.799219)scale(0.1 -0.1)">
       <defs>
        <path id="DejaVuSans-35" d="M 691 4666 
L 3169 4666 
L 3169 4134 
L 1269 4134 
L 1269 2991 
Q 1406 3038 1543 3061 
Q 1681 3084 1819 3084 
Q 2600 3084 3056 2656 
Q 3513 2228 3513 1497 
Q 3513 744 3044 326 
Q 2575 -91 1722 -91 
Q 1428 -91 1123 -41 
Q 819 9 494 109 
L 494 744 
Q 775 591 1075 516 
Q 1375 441 1709 441 
Q 2250 441 2565 725 
Q 2881 1009 2881 1497 
Q 2881 1984 2565 2268 
Q 2250 2553 1709 2553 
Q 1456 2553 1204 2497 
Q 953 2441 691 2322 
L 691 4666 
z
" transform="scale(0.015625)"/>
       </defs>
       <use xlink:href="#DejaVuSans-2212"/>
       <use xlink:href="#DejaVuSans-31" x="83.789062"/>
       <use xlink:href="#DejaVuSans-35" x="147.412109"/>
      </g>
     </g>
    </g>
    <g id="ytick_2">
     <g id="line2d_5">
      <g>
       <use xlink:href="#m5cefa1bf5b" x="18" y="161.82" style="stroke: #000000; stroke-width: 0.8"/>
      </g>
     </g>
     <g id="text_5">
      <!-- 10 -->
      <g transform="translate(-10.104688 165.619219)scale(0.1 -0.1)">
       <use xlink:href="#DejaVuSans-2212"/>
       <use xlink:href="#DejaVuSans-31" x="83.789062"/>
       <use xlink:href="#DejaVuSans-30" x="147.412109"/>
      </g>
     </g>
    </g>
    <g id="ytick_3">
     <g id="line2d_6">
      <g>
       <use xlink:href="#m5cefa1bf5b" x="18" y="134.64" style="stroke: #000000; stroke-width: 0.8"/>
      </g>
     </g>
     <g id="text_6">
      <!-- 5 -->
      <g transform="translate(-3.742188 138.439219)scale(0.1 -0.1)">
       <use xlink:href="#DejaVuSans-2212"/>
       <use xlink:href="#DejaVuSans-35" x="83.789062"/>
      </g>
     </g>
    </g>
    <g id="ytick_4">
     <g id="line2d_7">
      <g>
       <use xlink:href="#m5cefa1bf5b" x="18" y="107.46" style="stroke: #000000; stroke-width: 0.8"/>
      </g>
     </g>
     <g id="text_7">
      <!-- 0 -->
      <g transform="translate(4.6375 111.259219)scale(0.1 -0.1)">
       <use xlink:href="#DejaVuSans-30"/>
      </g>
     </g>
    </g>
    <g id="ytick_5">
     <g id="line2d_8">
      <g>
       <use xlink:href="#m5cefa1bf5b" x="18" y="80.28" style="stroke: #000000; stroke-width: 0.8"/>
      </g>
     </g>
     <g id="text_8">
      <!-- 5 -->
      <g transform="translate(4.6375 84.079219)scale(0.1 -0.1)">
       <use xlink:href="#DejaVuSans-35"/>
      </g>
     </g>
    </g>
    <g id="ytick_6">
     <g id="line2d_9">
      <g>
       <use xlink:href="#m5cefa1bf5b" x="18" y="53.1" style="stroke: #000000; stroke-width: 0.8"/>
      </g>
     </g>
     <g id="text_9">
      <!-- 10 -->
      <g transform="translate(-1.725 56.899219)scale(0.1 -0.1)">
       <use xlink:href="#DejaVuSans-31"/>
       <use xlink:href="#DejaVuSans-30" x="63.623047"/>
      </g>
     </g>
    </g>
    <g id="ytick_7">
     <g id="line2d_10">
      <g>
       <use xlink:href="#m5cefa1bf5b" x="18" y="25.92" style="stroke: #000000; stroke-width: 0.8"/>
      </g>
     </g>
     <g id="text_10">
      <!-- 15 -->
      <g transform="translate(-1.725 29.719219)scale(0.1 -0.1)">
       <use xlink:href="#DejaVuSans-31"/>
       <use xlink:href="#DejaVuSans-35" x="63.623047"/>
      </g>
     </g>
    </g>
   </g>
   <g id="patch_3">
    <path d="M 18 189 
L 18 25.92 
" style="fill: none; stroke: #000000; stroke-width: 0.8; stroke-linejoin: miter; stroke-linecap: square"/>
   </g>
   <g id="patch_4">
    <path d="M 129.6 189 
L 129.6 25.92 
" style="fill: none; stroke: #000000; stroke-width: 0.8; stroke-linejoin: miter; stroke-linecap: square"/>
   </g>
   <g id="patch_5">
    <path d="M 18 189 
L 129.6 189 
" style="fill: none; stroke: #000000; stroke-width: 0.8; stroke-linejoin: miter; stroke-linecap: square"/>
   </g>
   <g id="patch_6">
    <path d="M 18 25.92 
L 129.6 25.92 
" style="fill: none; stroke: #000000; stroke-width: 0.8; stroke-linejoin: miter; stroke-linecap: square"/>
   </g>
  </g>
 </g>
 <defs>
  <clipPath id="p5171e9293f">
   <rect x="18" y="25.92" width="111.6" height="163.08"/>
  </clipPath>
 </defs>
</svg>
