<?xml version="1.0" encoding="utf-8" standalone="no"?>
<!DOCTYPE svg PUBLIC "-//W3C//DTD SVG 1.1//EN"
  "http://www.w3.org/Graphics/SVG/1.1/DTD/svg11.dtd">
<svg xmlns:xlink="http://www.w3.org/1999/xlink" width="144pt" height="216pt" viewBox="0 0 144 216" xmlns="http://www.w3.org/2000/svg" version="1.1">
 <metadata>
  <rdf:RDF xmlns:dc="http://purl.org/dc/elements/1.1/" xmlns:cc="http://creativecommons.org/ns#" xmlns:rdf="http://www.w3.org/1999/02/22-rdf-syntax-ns#">
   <cc:Work>
    <dc:type rdf:resource="http://purl.org/dc/dcmitype/StillImage"/>
    <dc:date>2022-06-23T10:50:41.952863</dc:date>
    <dc:format>image/svg+xml</dc:format>
    <dc:creator>
     <cc:Agent>
      <dc:title>Matplotlib v3.5.1, https://matplotlib.org/</dc:title>
     </cc:Agent>
    </dc:creator>
   </cc:Work>
  </rdf:RDF>
 </metadata>
 <defs>
  <style type="text/css">*{stroke-linejoin: round; stroke-linecap: butt}</style>
 </defs>
 <g id="figure_1">
  <g id="patch_1">
   <path d="M 0 216 
L 144 216 
L 144 0 
L 0 0 
L 0 216 
z
" style="fill: none"/>
  </g>
  <g id="axes_1">
   <g id="patch_2">
    <path d="M 18 189 
L 129.6 189 
L 129.6 25.92 
L 18 25.92 
z
" style="fill: #ffffff"/>
   </g>
   <g id="PathCollection_1">
    <defs>
     <path id="m8c2e7612a6" d="M 0 2.738613 
C 0.726289 2.738613 1.422928 2.450055 1.936492 1.936492 
C 2.450055 1.422928 2.738613 0.726289 2.738613 0 
C 2.738613 -0.726289 2.450055 -1.422928 1.936492 -1.936492 
C 1.422928 -2.450055 0.726289 -2.738613 0 -2.738613 
C -0.726289 -2.738613 -1.422928 -2.450055 -1.936492 -1.936492 
C -2.450055 -1.422928 -2.738613 -0.726289 -2.738613 0 
C -2.738613 0.726289 -2.450055 1.422928 -1.936492 1.936492 
C -1.422928 2.450055 -0.726289 2.738613 0 2.738613 
z
" style="stroke: #ff0000; stroke-width: 1.75"/>
    </defs>
    <g clip-path="url(#pfbcabd66b8)">
     <use xlink:href="#m8c2e7612a6" x="80.775" y="83.92143" style="fill: #ff0000; stroke: #ff0000; stroke-width: 1.75"/>
     <use xlink:href="#m8c2e7612a6" x="59.85" y="95.690715" style="fill: #ff0000; stroke: #ff0000; stroke-width: 1.75"/>
     <use xlink:href="#m8c2e7612a6" x="66.825" y="107.46" style="fill: #ff0000; stroke: #ff0000; stroke-width: 1.75"/>
     <use xlink:href="#m8c2e7612a6" x="80.775" y="107.46" style="fill: #ff0000; stroke: #ff0000; stroke-width: 1.75"/>
     <use xlink:href="#m8c2e7612a6" x="94.725" y="107.46" style="fill: #ff0000; stroke: #ff0000; stroke-width: 1.75"/>
     <use xlink:href="#m8c2e7612a6" x="59.85" y="119.229285" style="fill: #ff0000; stroke: #ff0000; stroke-width: 1.75"/>
     <use xlink:href="#m8c2e7612a6" x="80.775" y="130.99857" style="fill: #ff0000; stroke: #ff0000; stroke-width: 1.75"/>
    </g>
   </g>
   <g id="PathCollection_2">
    <defs>
     <path id="C0_0_13af40d670" d="M 0 2.738613 
C 0.726289 2.738613 1.422928 2.450055 1.936492 1.936492 
C 2.450055 1.422928 2.738613 0.726289 2.738613 -0 
C 2.738613 -0.726289 2.450055 -1.422928 1.936492 -1.936492 
C 1.422928 -2.450055 0.726289 -2.738613 0 -2.738613 
C -0.726289 -2.738613 -1.422928 -2.450055 -1.936492 -1.936492 
C -2.450055 -1.422928 -2.738613 -0.726289 -2.738613 0 
C -2.738613 0.726289 -2.450055 1.422928 -1.936492 1.936492 
C -1.422928 2.450055 -0.726289 2.738613 0 2.738613 
z
"/>
    </defs>
    <g clip-path="url(#pfbcabd66b8)">
     <use xlink:href="#C0_0_13af40d670" x="66.825" y="83.92143" style="fill: none; stroke: #ff0000; stroke-width: 1.75"/>
    </g>
    <g clip-path="url(#pfbcabd66b8)">
     <use xlink:href="#C0_0_13af40d670" x="73.8" y="95.690715" style="fill: none; stroke: #ff0000; stroke-width: 1.75"/>
    </g>
    <g clip-path="url(#pfbcabd66b8)">
     <use xlink:href="#C0_0_13af40d670" x="87.75" y="95.690715" style="fill: none; stroke: #ff0000; stroke-width: 1.75"/>
    </g>
    <g clip-path="url(#pfbcabd66b8)">
     <use xlink:href="#C0_0_13af40d670" x="52.875" y="107.46" style="fill: none; stroke: #ff0000; stroke-width: 1.75"/>
    </g>
    <g clip-path="url(#pfbcabd66b8)">
     <use xlink:href="#C0_0_13af40d670" x="73.8" y="119.229285" style="fill: none; stroke: #ff0000; stroke-width: 1.75"/>
    </g>
    <g clip-path="url(#pfbcabd66b8)">
     <use xlink:href="#C0_0_13af40d670" x="87.75" y="119.229285" style="fill: none; stroke: #ff0000; stroke-width: 1.75"/>
    </g>
    <g clip-path="url(#pfbcabd66b8)">
     <use xlink:href="#C0_0_13af40d670" x="66.825" y="130.99857" style="fill: none; stroke: #ff0000; stroke-width: 1.75"/>
    </g>
   </g>
   <g id="PathCollection_3">
    <path d="M 108.798287 67.211812 
C 109.21761 67.211812 109.619815 67.045214 109.916321 66.748708 
C 110.212827 66.452202 110.379426 66.049997 110.379426 65.630674 
C 110.379426 65.211351 110.212827 64.809146 109.916321 64.51264 
C 109.619815 64.216134 109.21761 64.049535 108.798287 64.049535 
C 108.378964 64.049535 107.976759 64.216134 107.680253 64.51264 
C 107.383747 64.809146 107.217148 65.211351 107.217148 65.630674 
C 107.217148 66.049997 107.383747 66.452202 107.680253 66.748708 
C 107.976759 67.045214 108.378964 67.211812 108.798287 67.211812 
z
" clip-path="url(#pfbcabd66b8)" style="stroke: #000000"/>
    <path d="M 105.579452 55.618676 
C 105.828782 55.618676 106.067935 55.519616 106.244239 55.343312 
C 106.420542 55.167008 106.519602 54.927856 106.519602 54.678525 
C 106.519602 54.429194 106.420542 54.190042 106.244239 54.013738 
C 106.067935 53.837435 105.828782 53.738374 105.579452 53.738374 
C 105.330121 53.738374 105.090968 53.837435 104.914665 54.013738 
C 104.738361 54.190042 104.639301 54.429194 104.639301 54.678525 
C 104.639301 54.927856 104.738361 55.167008 104.914665 55.343312 
C 105.090968 55.519616 105.330121 55.618676 105.579452 55.618676 
z
" clip-path="url(#pfbcabd66b8)" style="stroke: #000000"/>
    <path d="M 115.945782 119.576319 
C 115.945782 119.576319 115.945782 119.576319 115.945782 119.576319 
C 115.945782 119.576319 115.945782 119.576319 115.945782 119.576319 
C 115.945782 119.576319 115.945782 119.576319 115.945782 119.576319 
C 115.945782 119.576319 115.945782 119.576319 115.945782 119.576319 
C 115.945782 119.576319 115.945782 119.576319 115.945782 119.576319 
C 115.945782 119.576319 115.945782 119.576319 115.945782 119.576319 
C 115.945782 119.576319 115.945782 119.576319 115.945782 119.576319 
C 115.945782 119.576319 115.945782 119.576319 115.945782 119.576319 
z
" clip-path="url(#pfbcabd66b8)" style="stroke: #000000"/>
    <path d="M 109.769241 106.219791 
C 109.769241 106.219791 109.769241 106.219791 109.769241 106.219791 
C 109.769241 106.219791 109.769241 106.219791 109.769241 106.219791 
C 109.769241 106.219791 109.769241 106.219791 109.769241 106.219791 
C 109.769241 106.219791 109.769241 106.219791 109.769241 106.219791 
C 109.769241 106.219791 109.769241 106.219791 109.769241 106.219791 
C 109.769241 106.219791 109.769241 106.219791 109.769241 106.219791 
C 109.769241 106.219791 109.769241 106.219791 109.769241 106.219791 
C 109.769241 106.219791 109.769241 106.219791 109.769241 106.219791 
z
" clip-path="url(#pfbcabd66b8)" style="stroke: #000000"/>
    <path d="M 109.561727 101.038651 
C 109.98105 101.038651 110.383255 100.872052 110.679761 100.575546 
C 110.976267 100.27904 111.142866 99.876835 111.142866 99.457512 
C 111.142866 99.038189 110.976267 98.635984 110.679761 98.339478 
C 110.383255 98.042972 109.98105 97.876373 109.561727 97.876373 
C 109.142404 97.876373 108.740199 98.042972 108.443693 98.339478 
C 108.147187 98.635984 107.980588 99.038189 107.980588 99.457512 
C 107.980588 99.876835 108.147187 100.27904 108.443693 100.575546 
C 108.740199 100.872052 109.142404 101.038651 109.561727 101.038651 
z
" clip-path="url(#pfbcabd66b8)" style="stroke: #000000"/>
    <path d="M 109.825881 91.276647 
C 110.245204 91.276647 110.647409 91.110049 110.943915 90.813542 
C 111.240421 90.517036 111.40702 90.114831 111.40702 89.695508 
C 111.40702 89.276186 111.240421 88.873981 110.943915 88.577474 
C 110.647409 88.280968 110.245204 88.11437 109.825881 88.11437 
C 109.406558 88.11437 109.004353 88.280968 108.707847 88.577474 
C 108.411341 88.873981 108.244742 89.276186 108.244742 89.695508 
C 108.244742 90.114831 108.411341 90.517036 108.707847 90.813542 
C 109.004353 91.110049 109.406558 91.276647 109.825881 91.276647 
z
" clip-path="url(#pfbcabd66b8)" style="stroke: #000000"/>
    <path d="M 100.589102 78.408901 
C 100.589102 78.408901 100.589102 78.408901 100.589102 78.408901 
C 100.589102 78.408901 100.589102 78.408901 100.589102 78.408901 
C 100.589102 78.408901 100.589102 78.408901 100.589102 78.408901 
C 100.589102 78.408901 100.589102 78.408901 100.589102 78.408901 
C 100.589102 78.408901 100.589102 78.408901 100.589102 78.408901 
C 100.589102 78.408901 100.589102 78.408901 100.589102 78.408901 
C 100.589102 78.408901 100.589102 78.408901 100.589102 78.408901 
C 100.589102 78.408901 100.589102 78.408901 100.589102 78.408901 
z
" clip-path="url(#pfbcabd66b8)" style="stroke: #000000"/>
    <path d="M 99.017433 66.879192 
C 99.017433 66.879192 99.017433 66.879192 99.017433 66.879192 
C 99.017433 66.879192 99.017433 66.879192 99.017433 66.879192 
C 99.017433 66.879192 99.017433 66.879192 99.017433 66.879192 
C 99.017433 66.879192 99.017433 66.879192 99.017433 66.879192 
C 99.017433 66.879192 99.017433 66.879192 99.017433 66.879192 
C 99.017433 66.879192 99.017433 66.879192 99.017433 66.879192 
C 99.017433 66.879192 99.017433 66.879192 99.017433 66.879192 
C 99.017433 66.879192 99.017433 66.879192 99.017433 66.879192 
z
" clip-path="url(#pfbcabd66b8)" style="stroke: #000000"/>
    <path d="M 94.323819 63.69334 
C 94.687366 63.69334 95.036072 63.548901 95.293139 63.291835 
C 95.550205 63.034768 95.694644 62.686062 95.694644 62.322515 
C 95.694644 61.958968 95.550205 61.610262 95.293139 61.353195 
C 95.036072 61.096128 94.687366 60.95169 94.323819 60.95169 
C 93.960272 60.95169 93.611565 61.096128 93.354499 61.353195 
C 93.097432 61.610262 92.952993 61.958968 92.952993 62.322515 
C 92.952993 62.686062 93.097432 63.034768 93.354499 63.291835 
C 93.611565 63.548901 93.960272 63.69334 94.323819 63.69334 
z
" clip-path="url(#pfbcabd66b8)" style="stroke: #000000"/>
    <path d="M 94.126788 46.80441 
C 94.126788 46.80441 94.126788 46.80441 94.126788 46.80441 
C 94.126788 46.80441 94.126788 46.80441 94.126788 46.80441 
C 94.126788 46.80441 94.126788 46.80441 94.126788 46.80441 
C 94.126788 46.80441 94.126788 46.80441 94.126788 46.80441 
C 94.126788 46.80441 94.126788 46.80441 94.126788 46.80441 
C 94.126788 46.80441 94.126788 46.80441 94.126788 46.80441 
C 94.126788 46.80441 94.126788 46.80441 94.126788 46.80441 
C 94.126788 46.80441 94.126788 46.80441 94.126788 46.80441 
z
" clip-path="url(#pfbcabd66b8)" style="stroke: #000000"/>
    <path d="M 91.396869 37.855042 
C 91.396869 37.855042 91.396869 37.855042 91.396869 37.855042 
C 91.396869 37.855042 91.396869 37.855042 91.396869 37.855042 
C 91.396869 37.855042 91.396869 37.855042 91.396869 37.855042 
C 91.396869 37.855042 91.396869 37.855042 91.396869 37.855042 
C 91.396869 37.855042 91.396869 37.855042 91.396869 37.855042 
C 91.396869 37.855042 91.396869 37.855042 91.396869 37.855042 
C 91.396869 37.855042 91.396869 37.855042 91.396869 37.855042 
C 91.396869 37.855042 91.396869 37.855042 91.396869 37.855042 
z
" clip-path="url(#pfbcabd66b8)" style="stroke: #000000"/>
    <path d="M 119.331965 161.168785 
C 119.331965 161.168785 119.331965 161.168785 119.331965 161.168785 
C 119.331965 161.168785 119.331965 161.168785 119.331965 161.168785 
C 119.331965 161.168785 119.331965 161.168785 119.331965 161.168785 
C 119.331965 161.168785 119.331965 161.168785 119.331965 161.168785 
C 119.331965 161.168785 119.331965 161.168785 119.331965 161.168785 
C 119.331965 161.168785 119.331965 161.168785 119.331965 161.168785 
C 119.331965 161.168785 119.331965 161.168785 119.331965 161.168785 
C 119.331965 161.168785 119.331965 161.168785 119.331965 161.168785 
z
" clip-path="url(#pfbcabd66b8)" style="stroke: #000000"/>
    <path d="M 112.259942 153.818462 
C 112.547122 153.818462 112.822579 153.704364 113.025646 153.501297 
C 113.228713 153.29823 113.342811 153.022774 113.342811 152.735594 
C 113.342811 152.448413 113.228713 152.172957 113.025646 151.96989 
C 112.822579 151.766823 112.547122 151.652725 112.259942 151.652725 
C 111.972762 151.652725 111.697306 151.766823 111.494239 151.96989 
C 111.291172 152.172957 111.177074 152.448413 111.177074 152.735594 
C 111.177074 153.022774 111.291172 153.29823 111.494239 153.501297 
C 111.697306 153.704364 111.972762 153.818462 112.259942 153.818462 
z
" clip-path="url(#pfbcabd66b8)" style="stroke: #000000"/>
    <path d="M 115.457032 146.433474 
C 115.876355 146.433474 116.27856 146.266876 116.575066 145.970369 
C 116.871572 145.673863 117.038171 145.271658 117.038171 144.852335 
C 117.038171 144.433013 116.871572 144.030808 116.575066 143.734301 
C 116.27856 143.437795 115.876355 143.271197 115.457032 143.271197 
C 115.037709 143.271197 114.635504 143.437795 114.338998 143.734301 
C 114.042492 144.030808 113.875894 144.433013 113.875894 144.852335 
C 113.875894 145.271658 114.042492 145.673863 114.338998 145.970369 
C 114.635504 146.266876 115.037709 146.433474 115.457032 146.433474 
z
" clip-path="url(#pfbcabd66b8)" style="stroke: #000000"/>
    <path d="M 112.402349 134.378181 
C 112.402349 134.378181 112.402349 134.378181 112.402349 134.378181 
C 112.402349 134.378181 112.402349 134.378181 112.402349 134.378181 
C 112.402349 134.378181 112.402349 134.378181 112.402349 134.378181 
C 112.402349 134.378181 112.402349 134.378181 112.402349 134.378181 
C 112.402349 134.378181 112.402349 134.378181 112.402349 134.378181 
C 112.402349 134.378181 112.402349 134.378181 112.402349 134.378181 
C 112.402349 134.378181 112.402349 134.378181 112.402349 134.378181 
C 112.402349 134.378181 112.402349 134.378181 112.402349 134.378181 
z
" clip-path="url(#pfbcabd66b8)" style="stroke: #000000"/>
    <path d="M 106.271255 120.793881 
C 106.69084 120.793881 107.093296 120.627178 107.389987 120.330487 
C 107.686678 120.033796 107.853381 119.63134 107.853381 119.211755 
C 107.853381 118.79217 107.686678 118.389714 107.389987 118.093023 
C 107.093296 117.796332 106.69084 117.629629 106.271255 117.629629 
C 105.85167 117.629629 105.449214 117.796332 105.152523 118.093023 
C 104.855832 118.389714 104.689129 118.79217 104.689129 119.211755 
C 104.689129 119.63134 104.855832 120.033796 105.152523 120.330487 
C 105.449214 120.627178 105.85167 120.793881 106.271255 120.793881 
z
" clip-path="url(#pfbcabd66b8)" style="stroke: #000000"/>
    <path d="M 100.932446 105.828952 
C 100.932446 105.828952 100.932446 105.828952 100.932446 105.828952 
C 100.932446 105.828952 100.932446 105.828952 100.932446 105.828952 
C 100.932446 105.828952 100.932446 105.828952 100.932446 105.828952 
C 100.932446 105.828952 100.932446 105.828952 100.932446 105.828952 
C 100.932446 105.828952 100.932446 105.828952 100.932446 105.828952 
C 100.932446 105.828952 100.932446 105.828952 100.932446 105.828952 
C 100.932446 105.828952 100.932446 105.828952 100.932446 105.828952 
C 100.932446 105.828952 100.932446 105.828952 100.932446 105.828952 
z
" clip-path="url(#pfbcabd66b8)" style="stroke: #000000"/>
    <path d="M 102.47633 105.023697 
C 102.59973 105.023697 102.718092 104.97467 102.805349 104.887414 
C 102.892605 104.800157 102.941633 104.681795 102.941633 104.558395 
C 102.941633 104.434995 102.892605 104.316633 102.805349 104.229377 
C 102.718092 104.14212 102.59973 104.093093 102.47633 104.093093 
C 102.352931 104.093093 102.234568 104.14212 102.147312 104.229377 
C 102.060055 104.316633 102.011028 104.434995 102.011028 104.558395 
C 102.011028 104.681795 102.060055 104.800157 102.147312 104.887414 
C 102.234568 104.97467 102.352931 105.023697 102.47633 105.023697 
z
" clip-path="url(#pfbcabd66b8)" style="stroke: #000000"/>
    <path d="M 102.121511 93.686646 
C 102.540834 93.686646 102.943039 93.520048 103.239545 93.223542 
C 103.536051 92.927035 103.70265 92.52483 103.70265 92.105508 
C 103.70265 91.686185 103.536051 91.28398 103.239545 90.987474 
C 102.943039 90.690967 102.540834 90.524369 102.121511 90.524369 
C 101.702188 90.524369 101.299983 90.690967 101.003477 90.987474 
C 100.706971 91.28398 100.540372 91.686185 100.540372 92.105508 
C 100.540372 92.52483 100.706971 92.927035 101.003477 93.223542 
C 101.299983 93.520048 101.702188 93.686646 102.121511 93.686646 
z
" clip-path="url(#pfbcabd66b8)" style="stroke: #000000"/>
    <path d="M 94.8961 83.68412 
C 95.315423 83.68412 95.717628 83.517522 96.014134 83.221015 
C 96.31064 82.924509 96.477239 82.522304 96.477239 82.102981 
C 96.477239 81.683659 96.31064 81.281454 96.014134 80.984948 
C 95.717628 80.688441 95.315423 80.521843 94.8961 80.521843 
C 94.476777 80.521843 94.074572 80.688441 93.778066 80.984948 
C 93.48156 81.281454 93.314962 81.683659 93.314962 82.102981 
C 93.314962 82.522304 93.48156 82.924509 93.778066 83.221015 
C 94.074572 83.517522 94.476777 83.68412 94.8961 83.68412 
z
" clip-path="url(#pfbcabd66b8)" style="stroke: #000000"/>
    <path d="M 89.103928 74.737806 
C 89.523251 74.737806 89.925456 74.571207 90.221962 74.274701 
C 90.518468 73.978195 90.685067 73.57599 90.685067 73.156667 
C 90.685067 72.737344 90.518468 72.335139 90.221962 72.038633 
C 89.925456 71.742127 89.523251 71.575528 89.103928 71.575528 
C 88.684605 71.575528 88.2824 71.742127 87.985894 72.038633 
C 87.689388 72.335139 87.522789 72.737344 87.522789 73.156667 
C 87.522789 73.57599 87.689388 73.978195 87.985894 74.274701 
C 88.2824 74.571207 88.684605 74.737806 89.103928 74.737806 
z
" clip-path="url(#pfbcabd66b8)" style="stroke: #000000"/>
    <path d="M 82.511812 64.229466 
C 82.511812 64.229466 82.511812 64.229466 82.511812 64.229466 
C 82.511812 64.229466 82.511812 64.229466 82.511812 64.229466 
C 82.511812 64.229466 82.511812 64.229466 82.511812 64.229466 
C 82.511812 64.229466 82.511812 64.229466 82.511812 64.229466 
C 82.511812 64.229466 82.511812 64.229466 82.511812 64.229466 
C 82.511812 64.229466 82.511812 64.229466 82.511812 64.229466 
C 82.511812 64.229466 82.511812 64.229466 82.511812 64.229466 
C 82.511812 64.229466 82.511812 64.229466 82.511812 64.229466 
z
" clip-path="url(#pfbcabd66b8)" style="stroke: #000000"/>
    <path d="M 84.641019 52.574956 
C 85.060342 52.574956 85.462547 52.408357 85.759053 52.111851 
C 86.055559 51.815345 86.222158 51.41314 86.222158 50.993817 
C 86.222158 50.574494 86.055559 50.172289 85.759053 49.875783 
C 85.462547 49.579277 85.060342 49.412679 84.641019 49.412679 
C 84.221696 49.412679 83.819491 49.579277 83.522985 49.875783 
C 83.226479 50.172289 83.05988 50.574494 83.05988 50.993817 
C 83.05988 51.41314 83.226479 51.815345 83.522985 52.111851 
C 83.819491 52.408357 84.221696 52.574956 84.641019 52.574956 
z
" clip-path="url(#pfbcabd66b8)" style="stroke: #000000"/>
    <path d="M 73.049734 40.204722 
C 73.196482 40.204722 73.337239 40.146418 73.441006 40.042652 
C 73.544772 39.938886 73.603075 39.798128 73.603075 39.651381 
C 73.603075 39.504633 73.544772 39.363876 73.441006 39.26011 
C 73.337239 39.156343 73.196482 39.09804 73.049734 39.09804 
C 72.902987 39.09804 72.76223 39.156343 72.658463 39.26011 
C 72.554697 39.363876 72.496393 39.504633 72.496393 39.651381 
C 72.496393 39.798128 72.554697 39.938886 72.658463 40.042652 
C 72.76223 40.146418 72.902987 40.204722 73.049734 40.204722 
z
" clip-path="url(#pfbcabd66b8)" style="stroke: #000000"/>
    <path d="M 77.349083 32.184516 
C 77.349083 32.184516 77.349083 32.184516 77.349083 32.184516 
C 77.349083 32.184516 77.349083 32.184516 77.349083 32.184516 
C 77.349083 32.184516 77.349083 32.184516 77.349083 32.184516 
C 77.349083 32.184516 77.349083 32.184516 77.349083 32.184516 
C 77.349083 32.184516 77.349083 32.184516 77.349083 32.184516 
C 77.349083 32.184516 77.349083 32.184516 77.349083 32.184516 
C 77.349083 32.184516 77.349083 32.184516 77.349083 32.184516 
C 77.349083 32.184516 77.349083 32.184516 77.349083 32.184516 
z
" clip-path="url(#pfbcabd66b8)" style="stroke: #000000"/>
    <path d="M 112.970247 175.331506 
C 113.323295 175.331506 113.661929 175.191239 113.911571 174.941597 
C 114.161213 174.691955 114.30148 174.35332 114.30148 174.000273 
C 114.30148 173.647226 114.161213 173.308591 113.911571 173.058949 
C 113.661929 172.809307 113.323295 172.66904 112.970247 172.66904 
C 112.6172 172.66904 112.278566 172.809307 112.028924 173.058949 
C 111.779282 173.308591 111.639015 173.647226 111.639015 174.000273 
C 111.639015 174.35332 111.779282 174.691955 112.028924 174.941597 
C 112.278566 175.191239 112.6172 175.331506 112.970247 175.331506 
z
" clip-path="url(#pfbcabd66b8)" style="stroke: #000000"/>
    <path d="M 113.044497 168.156662 
C 113.138261 168.156662 113.228196 168.119409 113.294497 168.053109 
C 113.360798 167.986808 113.398051 167.896872 113.398051 167.803109 
C 113.398051 167.709345 113.360798 167.619409 113.294497 167.553109 
C 113.228196 167.486808 113.138261 167.449555 113.044497 167.449555 
C 112.950734 167.449555 112.860798 167.486808 112.794497 167.553109 
C 112.728196 167.619409 112.690944 167.709345 112.690944 167.803109 
C 112.690944 167.896872 112.728196 167.986808 112.794497 168.053109 
C 112.860798 168.119409 112.950734 168.156662 113.044497 168.156662 
z
" clip-path="url(#pfbcabd66b8)" style="stroke: #000000"/>
    <path d="M 103.834785 155.574253 
C 103.834785 155.574253 103.834785 155.574253 103.834785 155.574253 
C 103.834785 155.574253 103.834785 155.574253 103.834785 155.574253 
C 103.834785 155.574253 103.834785 155.574253 103.834785 155.574253 
C 103.834785 155.574253 103.834785 155.574253 103.834785 155.574253 
C 103.834785 155.574253 103.834785 155.574253 103.834785 155.574253 
C 103.834785 155.574253 103.834785 155.574253 103.834785 155.574253 
C 103.834785 155.574253 103.834785 155.574253 103.834785 155.574253 
C 103.834785 155.574253 103.834785 155.574253 103.834785 155.574253 
z
" clip-path="url(#pfbcabd66b8)" style="stroke: #000000"/>
    <path d="M 100.49499 151.282921 
C 100.856917 151.282921 101.20407 151.139125 101.459992 150.883204 
C 101.715913 150.627282 101.859709 150.28013 101.859709 149.918202 
C 101.859709 149.556274 101.715913 149.209121 101.459992 148.9532 
C 101.20407 148.697278 100.856917 148.553483 100.49499 148.553483 
C 100.133062 148.553483 99.785909 148.697278 99.529988 148.9532 
C 99.274066 149.209121 99.130271 149.556274 99.130271 149.918202 
C 99.130271 150.28013 99.274066 150.627282 99.529988 150.883204 
C 99.785909 151.139125 100.133062 151.282921 100.49499 151.282921 
z
" clip-path="url(#pfbcabd66b8)" style="stroke: #000000"/>
    <path d="M 103.962094 135.696451 
C 104.381678 135.696451 104.784134 135.529748 105.080826 135.233057 
C 105.377517 134.936366 105.54422 134.53391 105.54422 134.114325 
C 105.54422 133.69474 105.377517 133.292284 105.080826 132.995593 
C 104.784134 132.698902 104.381678 132.532199 103.962094 132.532199 
C 103.542509 132.532199 103.140053 132.698902 102.843361 132.995593 
C 102.54667 133.292284 102.379967 133.69474 102.379967 134.114325 
C 102.379967 134.53391 102.54667 134.936366 102.843361 135.233057 
C 103.140053 135.529748 103.542509 135.696451 103.962094 135.696451 
z
" clip-path="url(#pfbcabd66b8)" style="stroke: #000000"/>
    <path d="M 100.371404 128.532431 
C 100.790988 128.532431 101.193445 128.365728 101.490136 128.069037 
C 101.786827 127.772345 101.95353 127.369889 101.95353 126.950304 
C 101.95353 126.53072 101.786827 126.128264 101.490136 125.831572 
C 101.193445 125.534881 100.790988 125.368178 100.371404 125.368178 
C 99.951819 125.368178 99.549363 125.534881 99.252672 125.831572 
C 98.95598 126.128264 98.789278 126.53072 98.789278 126.950304 
C 98.789278 127.369889 98.95598 127.772345 99.252672 128.069037 
C 99.549363 128.365728 99.951819 128.532431 100.371404 128.532431 
z
" clip-path="url(#pfbcabd66b8)" style="stroke: #000000"/>
    <path d="M 91.615477 117.932352 
C 92.035062 117.932352 92.437518 117.765649 92.734209 117.468958 
C 93.0309 117.172267 93.197603 116.769811 93.197603 116.350226 
C 93.197603 115.930641 93.0309 115.528185 92.734209 115.231494 
C 92.437518 114.934802 92.035062 114.7681 91.615477 114.7681 
C 91.195892 114.7681 90.793436 114.934802 90.496745 115.231494 
C 90.200053 115.528185 90.033351 115.930641 90.033351 116.350226 
C 90.033351 116.769811 90.200053 117.172267 90.496745 117.468958 
C 90.793436 117.765649 91.195892 117.932352 91.615477 117.932352 
z
" clip-path="url(#pfbcabd66b8)" style="stroke: #000000"/>
    <path d="M 87.02717 108.002958 
C 87.446755 108.002958 87.849211 107.836255 88.145902 107.539564 
C 88.442593 107.242873 88.609296 106.840417 88.609296 106.420832 
C 88.609296 106.001247 88.442593 105.598791 88.145902 105.3021 
C 87.849211 105.005409 87.446755 104.838706 87.02717 104.838706 
C 86.607585 104.838706 86.205129 105.005409 85.908438 105.3021 
C 85.611747 105.598791 85.445044 106.001247 85.445044 106.420832 
C 85.445044 106.840417 85.611747 107.242873 85.908438 107.539564 
C 86.205129 107.836255 86.607585 108.002958 87.02717 108.002958 
z
" clip-path="url(#pfbcabd66b8)" style="stroke: #000000"/>
    <path d="M 87.809228 97.872137 
C 88.228813 97.872137 88.631269 97.705435 88.92796 97.408743 
C 89.224652 97.112052 89.391354 96.709596 89.391354 96.290011 
C 89.391354 95.870427 89.224652 95.46797 88.92796 95.171279 
C 88.631269 94.874588 88.228813 94.707885 87.809228 94.707885 
C 87.389644 94.707885 86.987187 94.874588 86.690496 95.171279 
C 86.393805 95.46797 86.227102 95.870427 86.227102 96.290011 
C 86.227102 96.709596 86.393805 97.112052 86.690496 97.408743 
C 86.987187 97.705435 87.389644 97.872137 87.809228 97.872137 
z
" clip-path="url(#pfbcabd66b8)" style="stroke: #000000"/>
    <path d="M 83.912966 80.604677 
C 83.912966 80.604677 83.912966 80.604677 83.912966 80.604677 
C 83.912966 80.604677 83.912966 80.604677 83.912966 80.604677 
C 83.912966 80.604677 83.912966 80.604677 83.912966 80.604677 
C 83.912966 80.604677 83.912966 80.604677 83.912966 80.604677 
C 83.912966 80.604677 83.912966 80.604677 83.912966 80.604677 
C 83.912966 80.604677 83.912966 80.604677 83.912966 80.604677 
C 83.912966 80.604677 83.912966 80.604677 83.912966 80.604677 
C 83.912966 80.604677 83.912966 80.604677 83.912966 80.604677 
z
" clip-path="url(#pfbcabd66b8)" style="stroke: #000000"/>
    <path d="M 76.929471 77.83262 
C 77.137003 77.83262 77.336064 77.750166 77.482812 77.603419 
C 77.62956 77.456671 77.712013 77.25761 77.712013 77.050078 
C 77.712013 76.842545 77.62956 76.643484 77.482812 76.496737 
C 77.336064 76.349989 77.137003 76.267535 76.929471 76.267535 
C 76.721938 76.267535 76.522878 76.349989 76.37613 76.496737 
C 76.229382 76.643484 76.146929 76.842545 76.146929 77.050078 
C 76.146929 77.25761 76.229382 77.456671 76.37613 77.603419 
C 76.522878 77.750166 76.721938 77.83262 76.929471 77.83262 
z
" clip-path="url(#pfbcabd66b8)" style="stroke: #000000"/>
    <path d="M 74.274744 70.458487 
C 74.694329 70.458487 75.096785 70.291784 75.393476 69.995093 
C 75.690168 69.698401 75.85687 69.295945 75.85687 68.87636 
C 75.85687 68.456776 75.690168 68.05432 75.393476 67.757628 
C 75.096785 67.460937 74.694329 67.294234 74.274744 67.294234 
C 73.85516 67.294234 73.452703 67.460937 73.156012 67.757628 
C 72.859321 68.05432 72.692618 68.456776 72.692618 68.87636 
C 72.692618 69.295945 72.859321 69.698401 73.156012 69.995093 
C 73.452703 70.291784 73.85516 70.458487 74.274744 70.458487 
z
" clip-path="url(#pfbcabd66b8)" style="stroke: #000000"/>
    <path d="M 71.709876 54.852102 
C 71.709876 54.852102 71.709876 54.852102 71.709876 54.852102 
C 71.709876 54.852102 71.709876 54.852102 71.709876 54.852102 
C 71.709876 54.852102 71.709876 54.852102 71.709876 54.852102 
C 71.709876 54.852102 71.709876 54.852102 71.709876 54.852102 
C 71.709876 54.852102 71.709876 54.852102 71.709876 54.852102 
C 71.709876 54.852102 71.709876 54.852102 71.709876 54.852102 
C 71.709876 54.852102 71.709876 54.852102 71.709876 54.852102 
C 71.709876 54.852102 71.709876 54.852102 71.709876 54.852102 
z
" clip-path="url(#pfbcabd66b8)" style="stroke: #000000"/>
    <path d="M 69.601186 45.38095 
C 69.806523 45.38095 70.003476 45.299369 70.148671 45.154175 
C 70.293866 45.00898 70.375447 44.812026 70.375447 44.60669 
C 70.375447 44.401354 70.293866 44.2044 70.148671 44.059205 
C 70.003476 43.914011 69.806523 43.83243 69.601186 43.83243 
C 69.39585 43.83243 69.198896 43.914011 69.053702 44.059205 
C 68.908507 44.2044 68.826926 44.401354 68.826926 44.60669 
C 68.826926 44.812026 68.908507 45.00898 69.053702 45.154175 
C 69.198896 45.299369 69.39585 45.38095 69.601186 45.38095 
z
" clip-path="url(#pfbcabd66b8)" style="stroke: #000000"/>
    <path d="M 65.361557 33.046706 
C 65.361557 33.046706 65.361557 33.046706 65.361557 33.046706 
C 65.361557 33.046706 65.361557 33.046706 65.361557 33.046706 
C 65.361557 33.046706 65.361557 33.046706 65.361557 33.046706 
C 65.361557 33.046706 65.361557 33.046706 65.361557 33.046706 
C 65.361557 33.046706 65.361557 33.046706 65.361557 33.046706 
C 65.361557 33.046706 65.361557 33.046706 65.361557 33.046706 
C 65.361557 33.046706 65.361557 33.046706 65.361557 33.046706 
C 65.361557 33.046706 65.361557 33.046706 65.361557 33.046706 
z
" clip-path="url(#pfbcabd66b8)" style="stroke: #000000"/>
    <path d="M 64.271133 25.190945 
C 64.271133 25.190945 64.271133 25.190945 64.271133 25.190945 
C 64.271133 25.190945 64.271133 25.190945 64.271133 25.190945 
C 64.271133 25.190945 64.271133 25.190945 64.271133 25.190945 
C 64.271133 25.190945 64.271133 25.190945 64.271133 25.190945 
C 64.271133 25.190945 64.271133 25.190945 64.271133 25.190945 
C 64.271133 25.190945 64.271133 25.190945 64.271133 25.190945 
C 64.271133 25.190945 64.271133 25.190945 64.271133 25.190945 
C 64.271133 25.190945 64.271133 25.190945 64.271133 25.190945 
z
" clip-path="url(#pfbcabd66b8)" style="stroke: #000000"/>
    <path d="M 102.213462 182.313181 
C 102.566509 182.313181 102.905144 182.172914 103.154786 181.923272 
C 103.404428 181.67363 103.544695 181.334995 103.544695 180.981948 
C 103.544695 180.628901 103.404428 180.290266 103.154786 180.040624 
C 102.905144 179.790982 102.566509 179.650715 102.213462 179.650715 
C 101.860415 179.650715 101.52178 179.790982 101.272138 180.040624 
C 101.022496 180.290266 100.882229 180.628901 100.882229 180.981948 
C 100.882229 181.334995 101.022496 181.67363 101.272138 181.923272 
C 101.52178 182.172914 101.860415 182.313181 102.213462 182.313181 
z
" clip-path="url(#pfbcabd66b8)" style="stroke: #000000"/>
    <path d="M 95.595071 170.23441 
C 95.595071 170.23441 95.595071 170.23441 95.595071 170.23441 
C 95.595071 170.23441 95.595071 170.23441 95.595071 170.23441 
C 95.595071 170.23441 95.595071 170.23441 95.595071 170.23441 
C 95.595071 170.23441 95.595071 170.23441 95.595071 170.23441 
C 95.595071 170.23441 95.595071 170.23441 95.595071 170.23441 
C 95.595071 170.23441 95.595071 170.23441 95.595071 170.23441 
C 95.595071 170.23441 95.595071 170.23441 95.595071 170.23441 
C 95.595071 170.23441 95.595071 170.23441 95.595071 170.23441 
z
" clip-path="url(#pfbcabd66b8)" style="stroke: #000000"/>
    <path d="M 96.698734 158.282374 
C 97.018932 158.282374 97.326059 158.155158 97.552473 157.928744 
C 97.778887 157.70233 97.906102 157.395204 97.906102 157.075006 
C 97.906102 156.754808 97.778887 156.447682 97.552473 156.221268 
C 97.326059 155.994854 97.018932 155.867638 96.698734 155.867638 
C 96.378537 155.867638 96.07141 155.994854 95.844996 156.221268 
C 95.618582 156.447682 95.491366 156.754808 95.491366 157.075006 
C 95.491366 157.395204 95.618582 157.70233 95.844996 157.928744 
C 96.07141 158.155158 96.378537 158.282374 96.698734 158.282374 
z
" clip-path="url(#pfbcabd66b8)" style="stroke: #000000"/>
    <path d="M 94.377346 151.526346 
C 94.746012 151.526346 95.099628 151.379874 95.360315 151.119187 
C 95.621001 150.858501 95.767473 150.504885 95.767473 150.136219 
C 95.767473 149.767553 95.621001 149.413937 95.360315 149.153251 
C 95.099628 148.892565 94.746012 148.746092 94.377346 148.746092 
C 94.00868 148.746092 93.655064 148.892565 93.394378 149.153251 
C 93.133692 149.413937 92.987219 149.767553 92.987219 150.136219 
C 92.987219 150.504885 93.133692 150.858501 93.394378 151.119187 
C 93.655064 151.379874 94.00868 151.526346 94.377346 151.526346 
z
" clip-path="url(#pfbcabd66b8)" style="stroke: #000000"/>
    <path d="M 87.574346 138.883241 
C 87.668109 138.883241 87.758045 138.845988 87.824346 138.779687 
C 87.890646 138.713387 87.927899 138.623451 87.927899 138.529687 
C 87.927899 138.435924 87.890646 138.345988 87.824346 138.279687 
C 87.758045 138.213387 87.668109 138.176134 87.574346 138.176134 
C 87.480582 138.176134 87.390646 138.213387 87.324346 138.279687 
C 87.258045 138.345988 87.220792 138.435924 87.220792 138.529687 
C 87.220792 138.623451 87.258045 138.713387 87.324346 138.779687 
C 87.390646 138.845988 87.480582 138.883241 87.574346 138.883241 
z
" clip-path="url(#pfbcabd66b8)" style="stroke: #000000"/>
    <path d="M 83.207858 130.502641 
C 83.627443 130.502641 84.029899 130.335938 84.326591 130.039247 
C 84.623282 129.742556 84.789985 129.3401 84.789985 128.920515 
C 84.789985 128.50093 84.623282 128.098474 84.326591 127.801783 
C 84.029899 127.505091 83.627443 127.338389 83.207858 127.338389 
C 82.788274 127.338389 82.385818 127.505091 82.089126 127.801783 
C 81.792435 128.098474 81.625732 128.50093 81.625732 128.920515 
C 81.625732 129.3401 81.792435 129.742556 82.089126 130.039247 
C 82.385818 130.335938 82.788274 130.502641 83.207858 130.502641 
z
" clip-path="url(#pfbcabd66b8)" style="stroke: #000000"/>
    <path d="M 82.838052 121.492564 
C 83.257637 121.492564 83.660093 121.325861 83.956784 121.02917 
C 84.253475 120.732479 84.420178 120.330023 84.420178 119.910438 
C 84.420178 119.490853 84.253475 119.088397 83.956784 118.791706 
C 83.660093 118.495015 83.257637 118.328312 82.838052 118.328312 
C 82.418467 118.328312 82.016011 118.495015 81.71932 118.791706 
C 81.422629 119.088397 81.255926 119.490853 81.255926 119.910438 
C 81.255926 120.330023 81.422629 120.732479 81.71932 121.02917 
C 82.016011 121.325861 82.418467 121.492564 82.838052 121.492564 
z
" clip-path="url(#pfbcabd66b8)" style="stroke: #000000"/>
    <path d="M 80.297112 106.54673 
C 80.682363 106.54673 81.051888 106.393668 81.324303 106.121253 
C 81.596717 105.848839 81.749779 105.479314 81.749779 105.094062 
C 81.749779 104.70881 81.596717 104.339286 81.324303 104.066871 
C 81.051888 103.794457 80.682363 103.641395 80.297112 103.641395 
C 79.91186 103.641395 79.542335 103.794457 79.26992 104.066871 
C 78.997506 104.339286 78.844444 104.70881 78.844444 105.094062 
C 78.844444 105.479314 78.997506 105.848839 79.26992 106.121253 
C 79.542335 106.393668 79.91186 106.54673 80.297112 106.54673 
z
" clip-path="url(#pfbcabd66b8)" style="stroke: #000000"/>
    <path d="M 74.483994 100.209939 
C 74.863014 100.209939 75.226561 100.059353 75.494568 99.791346 
C 75.762575 99.523338 75.913161 99.159792 75.913161 98.780772 
C 75.913161 98.401753 75.762575 98.038206 75.494568 97.770199 
C 75.226561 97.502192 74.863014 97.351606 74.483994 97.351606 
C 74.104975 97.351606 73.741428 97.502192 73.473421 97.770199 
C 73.205414 98.038206 73.054828 98.401753 73.054828 98.780772 
C 73.054828 99.159792 73.205414 99.523338 73.473421 99.791346 
C 73.741428 100.059353 74.104975 100.209939 74.483994 100.209939 
z
" clip-path="url(#pfbcabd66b8)" style="stroke: #000000"/>
    <path d="M 73.771476 91.534604 
C 74.150495 91.534604 74.514042 91.384018 74.782049 91.116011 
C 75.050056 90.848004 75.200642 90.484457 75.200642 90.105438 
C 75.200642 89.726418 75.050056 89.362871 74.782049 89.094864 
C 74.514042 88.826857 74.150495 88.676271 73.771476 88.676271 
C 73.392456 88.676271 73.028909 88.826857 72.760902 89.094864 
C 72.492895 89.362871 72.342309 89.726418 72.342309 90.105438 
C 72.342309 90.484457 72.492895 90.848004 72.760902 91.116011 
C 73.028909 91.384018 73.392456 91.534604 73.771476 91.534604 
z
" clip-path="url(#pfbcabd66b8)" style="stroke: #000000"/>
    <path d="M 65.549669 79.241995 
C 65.549669 79.241995 65.549669 79.241995 65.549669 79.241995 
C 65.549669 79.241995 65.549669 79.241995 65.549669 79.241995 
C 65.549669 79.241995 65.549669 79.241995 65.549669 79.241995 
C 65.549669 79.241995 65.549669 79.241995 65.549669 79.241995 
C 65.549669 79.241995 65.549669 79.241995 65.549669 79.241995 
C 65.549669 79.241995 65.549669 79.241995 65.549669 79.241995 
C 65.549669 79.241995 65.549669 79.241995 65.549669 79.241995 
C 65.549669 79.241995 65.549669 79.241995 65.549669 79.241995 
z
" clip-path="url(#pfbcabd66b8)" style="stroke: #000000"/>
    <path d="M 66.90196 65.034078 
C 66.90196 65.034078 66.90196 65.034078 66.90196 65.034078 
C 66.90196 65.034078 66.90196 65.034078 66.90196 65.034078 
C 66.90196 65.034078 66.90196 65.034078 66.90196 65.034078 
C 66.90196 65.034078 66.90196 65.034078 66.90196 65.034078 
C 66.90196 65.034078 66.90196 65.034078 66.90196 65.034078 
C 66.90196 65.034078 66.90196 65.034078 66.90196 65.034078 
C 66.90196 65.034078 66.90196 65.034078 66.90196 65.034078 
C 66.90196 65.034078 66.90196 65.034078 66.90196 65.034078 
z
" clip-path="url(#pfbcabd66b8)" style="stroke: #000000"/>
    <path d="M 55.664248 58.632142 
C 55.664248 58.632142 55.664248 58.632142 55.664248 58.632142 
C 55.664248 58.632142 55.664248 58.632142 55.664248 58.632142 
C 55.664248 58.632142 55.664248 58.632142 55.664248 58.632142 
C 55.664248 58.632142 55.664248 58.632142 55.664248 58.632142 
C 55.664248 58.632142 55.664248 58.632142 55.664248 58.632142 
C 55.664248 58.632142 55.664248 58.632142 55.664248 58.632142 
C 55.664248 58.632142 55.664248 58.632142 55.664248 58.632142 
C 55.664248 58.632142 55.664248 58.632142 55.664248 58.632142 
z
" clip-path="url(#pfbcabd66b8)" style="stroke: #000000"/>
    <path d="M 56.564615 49.228654 
C 56.74914 49.228654 56.926133 49.155342 57.056612 49.024862 
C 57.187092 48.894383 57.260404 48.71739 57.260404 48.532865 
C 57.260404 48.348339 57.187092 48.171347 57.056612 48.040867 
C 56.926133 47.910388 56.74914 47.837075 56.564615 47.837075 
C 56.380089 47.837075 56.203097 47.910388 56.072618 48.040867 
C 55.942138 48.171347 55.868826 48.348339 55.868826 48.532865 
C 55.868826 48.71739 55.942138 48.894383 56.072618 49.024862 
C 56.203097 49.155342 56.380089 49.228654 56.564615 49.228654 
z
" clip-path="url(#pfbcabd66b8)" style="stroke: #000000"/>
    <path d="M 53.898625 43.633819 
C 54.285889 43.633819 54.657343 43.479958 54.93118 43.206121 
C 55.205017 42.932284 55.358879 42.560829 55.358879 42.173566 
C 55.358879 41.786302 55.205017 41.414847 54.93118 41.14101 
C 54.657343 40.867174 54.285889 40.713312 53.898625 40.713312 
C 53.511361 40.713312 53.139907 40.867174 52.86607 41.14101 
C 52.592233 41.414847 52.438372 41.786302 52.438372 42.173566 
C 52.438372 42.560829 52.592233 42.932284 52.86607 43.206121 
C 53.139907 43.479958 53.511361 43.633819 53.898625 43.633819 
z
" clip-path="url(#pfbcabd66b8)" style="stroke: #000000"/>
    <path d="M 92.175273 175.937556 
C 92.269037 175.937556 92.358973 175.900303 92.425273 175.834002 
C 92.491574 175.767702 92.528827 175.677766 92.528827 175.584002 
C 92.528827 175.490239 92.491574 175.400303 92.425273 175.334002 
C 92.358973 175.267702 92.269037 175.230449 92.175273 175.230449 
C 92.08151 175.230449 91.991574 175.267702 91.925273 175.334002 
C 91.858973 175.400303 91.82172 175.490239 91.82172 175.584002 
C 91.82172 175.677766 91.858973 175.767702 91.925273 175.834002 
C 91.991574 175.900303 92.08151 175.937556 92.175273 175.937556 
z
" clip-path="url(#pfbcabd66b8)" style="stroke: #000000"/>
    <path d="M 85.121475 165.325312 
C 85.540797 165.325312 85.943002 165.158713 86.239509 164.862207 
C 86.536015 164.565701 86.702613 164.163496 86.702613 163.744173 
C 86.702613 163.32485 86.536015 162.922645 86.239509 162.626139 
C 85.943002 162.329633 85.540797 162.163034 85.121475 162.163034 
C 84.702152 162.163034 84.299947 162.329633 84.003441 162.626139 
C 83.706934 162.922645 83.540336 163.32485 83.540336 163.744173 
C 83.540336 164.163496 83.706934 164.565701 84.003441 164.862207 
C 84.299947 165.158713 84.702152 165.325312 85.121475 165.325312 
z
" clip-path="url(#pfbcabd66b8)" style="stroke: #000000"/>
    <path d="M 80.921131 157.584048 
C 81.340454 157.584048 81.742659 157.41745 82.039165 157.120943 
C 82.335671 156.824437 82.50227 156.422232 82.50227 156.002909 
C 82.50227 155.583587 82.335671 155.181382 82.039165 154.884875 
C 81.742659 154.588369 81.340454 154.421771 80.921131 154.421771 
C 80.501808 154.421771 80.099603 154.588369 79.803097 154.884875 
C 79.506591 155.181382 79.339993 155.583587 79.339993 156.002909 
C 79.339993 156.422232 79.506591 156.824437 79.803097 157.120943 
C 80.099603 157.41745 80.501808 157.584048 80.921131 157.584048 
z
" clip-path="url(#pfbcabd66b8)" style="stroke: #000000"/>
    <path d="M 81.984985 146.452211 
C 81.984985 146.452211 81.984985 146.452211 81.984985 146.452211 
C 81.984985 146.452211 81.984985 146.452211 81.984985 146.452211 
C 81.984985 146.452211 81.984985 146.452211 81.984985 146.452211 
C 81.984985 146.452211 81.984985 146.452211 81.984985 146.452211 
C 81.984985 146.452211 81.984985 146.452211 81.984985 146.452211 
C 81.984985 146.452211 81.984985 146.452211 81.984985 146.452211 
C 81.984985 146.452211 81.984985 146.452211 81.984985 146.452211 
C 81.984985 146.452211 81.984985 146.452211 81.984985 146.452211 
z
" clip-path="url(#pfbcabd66b8)" style="stroke: #000000"/>
    <path d="M 72.519363 134.327054 
C 72.891076 134.327054 73.247615 134.179371 73.510456 133.91653 
C 73.773296 133.653689 73.92098 133.29715 73.92098 132.925437 
C 73.92098 132.553724 73.773296 132.197185 73.510456 131.934344 
C 73.247615 131.671504 72.891076 131.52382 72.519363 131.52382 
C 72.14765 131.52382 71.791111 131.671504 71.52827 131.934344 
C 71.26543 132.197185 71.117746 132.553724 71.117746 132.925437 
C 71.117746 133.29715 71.26543 133.653689 71.52827 133.91653 
C 71.791111 134.179371 72.14765 134.327054 72.519363 134.327054 
z
" clip-path="url(#pfbcabd66b8)" style="stroke: #000000"/>
    <path d="M 71.800594 124.664277 
C 72.220179 124.664277 72.622635 124.497574 72.919326 124.200883 
C 73.216017 123.904191 73.38272 123.501735 73.38272 123.08215 
C 73.38272 122.662566 73.216017 122.26011 72.919326 121.963418 
C 72.622635 121.666727 72.220179 121.500024 71.800594 121.500024 
C 71.381009 121.500024 70.978553 121.666727 70.681862 121.963418 
C 70.385171 122.26011 70.218468 122.662566 70.218468 123.08215 
C 70.218468 123.501735 70.385171 123.904191 70.681862 124.200883 
C 70.978553 124.497574 71.381009 124.664277 71.800594 124.664277 
z
" clip-path="url(#pfbcabd66b8)" style="stroke: #000000"/>
    <path d="M 71.122018 113.426613 
C 71.122018 113.426613 71.122018 113.426613 71.122018 113.426613 
C 71.122018 113.426613 71.122018 113.426613 71.122018 113.426613 
C 71.122018 113.426613 71.122018 113.426613 71.122018 113.426613 
C 71.122018 113.426613 71.122018 113.426613 71.122018 113.426613 
C 71.122018 113.426613 71.122018 113.426613 71.122018 113.426613 
C 71.122018 113.426613 71.122018 113.426613 71.122018 113.426613 
C 71.122018 113.426613 71.122018 113.426613 71.122018 113.426613 
C 71.122018 113.426613 71.122018 113.426613 71.122018 113.426613 
z
" clip-path="url(#pfbcabd66b8)" style="stroke: #000000"/>
    <path d="M 64.214114 103.848909 
C 64.633699 103.848909 65.036155 103.682206 65.332846 103.385515 
C 65.629538 103.088824 65.79624 102.686368 65.79624 102.266783 
C 65.79624 101.847198 65.629538 101.444742 65.332846 101.148051 
C 65.036155 100.851359 64.633699 100.684657 64.214114 100.684657 
C 63.79453 100.684657 63.392073 100.851359 63.095382 101.148051 
C 62.798691 101.444742 62.631988 101.847198 62.631988 102.266783 
C 62.631988 102.686368 62.798691 103.088824 63.095382 103.385515 
C 63.392073 103.682206 63.79453 103.848909 64.214114 103.848909 
z
" clip-path="url(#pfbcabd66b8)" style="stroke: #000000"/>
    <path d="M 63.812989 94.212188 
C 63.812989 94.212188 63.812989 94.212188 63.812989 94.212188 
C 63.812989 94.212188 63.812989 94.212188 63.812989 94.212188 
C 63.812989 94.212188 63.812989 94.212188 63.812989 94.212188 
C 63.812989 94.212188 63.812989 94.212188 63.812989 94.212188 
C 63.812989 94.212188 63.812989 94.212188 63.812989 94.212188 
C 63.812989 94.212188 63.812989 94.212188 63.812989 94.212188 
C 63.812989 94.212188 63.812989 94.212188 63.812989 94.212188 
C 63.812989 94.212188 63.812989 94.212188 63.812989 94.212188 
z
" clip-path="url(#pfbcabd66b8)" style="stroke: #000000"/>
    <path d="M 55.120155 86.927776 
C 55.53974 86.927776 55.942196 86.761073 56.238887 86.464382 
C 56.535579 86.16769 56.702281 85.765234 56.702281 85.34565 
C 56.702281 84.926065 56.535579 84.523609 56.238887 84.226917 
C 55.942196 83.930226 55.53974 83.763523 55.120155 83.763523 
C 54.700571 83.763523 54.298114 83.930226 54.001423 84.226917 
C 53.704732 84.523609 53.538029 84.926065 53.538029 85.34565 
C 53.538029 85.765234 53.704732 86.16769 54.001423 86.464382 
C 54.298114 86.761073 54.700571 86.927776 55.120155 86.927776 
z
" clip-path="url(#pfbcabd66b8)" style="stroke: #000000"/>
    <path d="M 54.17317 70.528607 
C 54.17317 70.528607 54.17317 70.528607 54.17317 70.528607 
C 54.17317 70.528607 54.17317 70.528607 54.17317 70.528607 
C 54.17317 70.528607 54.17317 70.528607 54.17317 70.528607 
C 54.17317 70.528607 54.17317 70.528607 54.17317 70.528607 
C 54.17317 70.528607 54.17317 70.528607 54.17317 70.528607 
C 54.17317 70.528607 54.17317 70.528607 54.17317 70.528607 
C 54.17317 70.528607 54.17317 70.528607 54.17317 70.528607 
C 54.17317 70.528607 54.17317 70.528607 54.17317 70.528607 
z
" clip-path="url(#pfbcabd66b8)" style="stroke: #000000"/>
    <path d="M 51.321302 64.224998 
C 51.677383 64.224998 52.018928 64.083526 52.270716 63.831738 
C 52.522504 63.57995 52.663976 63.238405 52.663976 62.882324 
C 52.663976 62.526242 52.522504 62.184697 52.270716 61.932909 
C 52.018928 61.681121 51.677383 61.539649 51.321302 61.539649 
C 50.96522 61.539649 50.623675 61.681121 50.371887 61.932909 
C 50.1201 62.184697 49.978627 62.526242 49.978627 62.882324 
C 49.978627 63.238405 50.1201 63.57995 50.371887 63.831738 
C 50.623675 64.083526 50.96522 64.224998 51.321302 64.224998 
z
" clip-path="url(#pfbcabd66b8)" style="stroke: #000000"/>
    <path d="M 47.77791 51.745414 
C 48.181128 51.745414 48.567886 51.585214 48.853005 51.300096 
C 49.138123 51.014977 49.298323 50.62822 49.298323 50.225001 
C 49.298323 49.821783 49.138123 49.435025 48.853005 49.149907 
C 48.567886 48.864789 48.181128 48.704589 47.77791 48.704589 
C 47.374692 48.704589 46.987934 48.864789 46.702816 49.149907 
C 46.417698 49.435025 46.257497 49.821783 46.257497 50.225001 
C 46.257497 50.62822 46.417698 51.014977 46.702816 51.300096 
C 46.987934 51.585214 47.374692 51.745414 47.77791 51.745414 
z
" clip-path="url(#pfbcabd66b8)" style="stroke: #000000"/>
    <path d="M 50.297786 43.14585 
C 50.676094 43.14585 51.038958 42.995547 51.306462 42.728043 
C 51.573966 42.460539 51.724269 42.097675 51.724269 41.719367 
C 51.724269 41.34106 51.573966 40.978196 51.306462 40.710692 
C 51.038958 40.443188 50.676094 40.292885 50.297786 40.292885 
C 49.919479 40.292885 49.556615 40.443188 49.289111 40.710692 
C 49.021607 40.978196 48.871304 41.34106 48.871304 41.719367 
C 48.871304 42.097675 49.021607 42.460539 49.289111 42.728043 
C 49.556615 42.995547 49.919479 43.14585 50.297786 43.14585 
z
" clip-path="url(#pfbcabd66b8)" style="stroke: #000000"/>
    <path d="M 73.570578 164.968578 
C 73.570578 164.968578 73.570578 164.968578 73.570578 164.968578 
C 73.570578 164.968578 73.570578 164.968578 73.570578 164.968578 
C 73.570578 164.968578 73.570578 164.968578 73.570578 164.968578 
C 73.570578 164.968578 73.570578 164.968578 73.570578 164.968578 
C 73.570578 164.968578 73.570578 164.968578 73.570578 164.968578 
C 73.570578 164.968578 73.570578 164.968578 73.570578 164.968578 
C 73.570578 164.968578 73.570578 164.968578 73.570578 164.968578 
C 73.570578 164.968578 73.570578 164.968578 73.570578 164.968578 
z
" clip-path="url(#pfbcabd66b8)" style="stroke: #000000"/>
    <path d="M 74.198659 162.029586 
C 74.617982 162.029586 75.020187 161.862987 75.316693 161.566481 
C 75.613199 161.269975 75.779798 160.86777 75.779798 160.448447 
C 75.779798 160.029124 75.613199 159.626919 75.316693 159.330413 
C 75.020187 159.033907 74.617982 158.867308 74.198659 158.867308 
C 73.779336 158.867308 73.377131 159.033907 73.080625 159.330413 
C 72.784119 159.626919 72.61752 160.029124 72.61752 160.448447 
C 72.61752 160.86777 72.784119 161.269975 73.080625 161.566481 
C 73.377131 161.862987 73.779336 162.029586 74.198659 162.029586 
z
" clip-path="url(#pfbcabd66b8)" style="stroke: #000000"/>
    <path d="M 67.17734 148.613216 
C 67.17734 148.613216 67.17734 148.613216 67.17734 148.613216 
C 67.17734 148.613216 67.17734 148.613216 67.17734 148.613216 
C 67.17734 148.613216 67.17734 148.613216 67.17734 148.613216 
C 67.17734 148.613216 67.17734 148.613216 67.17734 148.613216 
C 67.17734 148.613216 67.17734 148.613216 67.17734 148.613216 
C 67.17734 148.613216 67.17734 148.613216 67.17734 148.613216 
C 67.17734 148.613216 67.17734 148.613216 67.17734 148.613216 
C 67.17734 148.613216 67.17734 148.613216 67.17734 148.613216 
z
" clip-path="url(#pfbcabd66b8)" style="stroke: #000000"/>
    <path d="M 64.696769 136.699614 
C 64.696769 136.699614 64.696769 136.699614 64.696769 136.699614 
C 64.696769 136.699614 64.696769 136.699614 64.696769 136.699614 
C 64.696769 136.699614 64.696769 136.699614 64.696769 136.699614 
C 64.696769 136.699614 64.696769 136.699614 64.696769 136.699614 
C 64.696769 136.699614 64.696769 136.699614 64.696769 136.699614 
C 64.696769 136.699614 64.696769 136.699614 64.696769 136.699614 
C 64.696769 136.699614 64.696769 136.699614 64.696769 136.699614 
C 64.696769 136.699614 64.696769 136.699614 64.696769 136.699614 
z
" clip-path="url(#pfbcabd66b8)" style="stroke: #000000"/>
    <path d="M 58.073718 129.01262 
C 58.493302 129.01262 58.895758 128.845917 59.19245 128.549226 
C 59.489141 128.252534 59.655844 127.850078 59.655844 127.430494 
C 59.655844 127.010909 59.489141 126.608453 59.19245 126.311762 
C 58.895758 126.01507 58.493302 125.848367 58.073718 125.848367 
C 57.654133 125.848367 57.251677 126.01507 56.954986 126.311762 
C 56.658294 126.608453 56.491591 127.010909 56.491591 127.430494 
C 56.491591 127.850078 56.658294 128.252534 56.954986 128.549226 
C 57.251677 128.845917 57.654133 129.01262 58.073718 129.01262 
z
" clip-path="url(#pfbcabd66b8)" style="stroke: #000000"/>
    <path d="M 57.278363 122.425328 
C 57.697948 122.425328 58.100404 122.258625 58.397095 121.961934 
C 58.693786 121.665243 58.860489 121.262787 58.860489 120.843202 
C 58.860489 120.423617 58.693786 120.021161 58.397095 119.72447 
C 58.100404 119.427778 57.697948 119.261076 57.278363 119.261076 
C 56.858778 119.261076 56.456322 119.427778 56.159631 119.72447 
C 55.86294 120.021161 55.696237 120.423617 55.696237 120.843202 
C 55.696237 121.262787 55.86294 121.665243 56.159631 121.961934 
C 56.456322 122.258625 56.858778 122.425328 57.278363 122.425328 
z
" clip-path="url(#pfbcabd66b8)" style="stroke: #000000"/>
    <path d="M 52.974437 107.826636 
C 53.364009 107.826636 53.737677 107.671857 54.013146 107.396388 
C 54.288615 107.120919 54.443394 106.747251 54.443394 106.357679 
C 54.443394 105.968107 54.288615 105.594438 54.013146 105.318969 
C 53.737677 105.0435 53.364009 104.888722 52.974437 104.888722 
C 52.584865 104.888722 52.211196 105.0435 51.935727 105.318969 
C 51.660258 105.594438 51.50548 105.968107 51.50548 106.357679 
C 51.50548 106.747251 51.660258 107.120919 51.935727 107.396388 
C 52.211196 107.671857 52.584865 107.826636 52.974437 107.826636 
z
" clip-path="url(#pfbcabd66b8)" style="stroke: #000000"/>
    <path d="M 48.49494 97.655394 
C 48.914524 97.655394 49.316981 97.488691 49.613672 97.192 
C 49.910363 96.895308 50.077066 96.492852 50.077066 96.073268 
C 50.077066 95.653683 49.910363 95.251227 49.613672 94.954535 
C 49.316981 94.657844 48.914524 94.491141 48.49494 94.491141 
C 48.075355 94.491141 47.672899 94.657844 47.376208 94.954535 
C 47.079516 95.251227 46.912814 95.653683 46.912814 96.073268 
C 46.912814 96.492852 47.079516 96.895308 47.376208 97.192 
C 47.672899 97.488691 48.075355 97.655394 48.49494 97.655394 
z
" clip-path="url(#pfbcabd66b8)" style="stroke: #000000"/>
    <path d="M 44.64639 85.704764 
C 45.065713 85.704764 45.467918 85.538165 45.764424 85.241659 
C 46.060931 84.945153 46.227529 84.542948 46.227529 84.123625 
C 46.227529 83.704302 46.060931 83.302097 45.764424 83.005591 
C 45.467918 82.709085 45.065713 82.542487 44.64639 82.542487 
C 44.227068 82.542487 43.824863 82.709085 43.528357 83.005591 
C 43.23185 83.302097 43.065252 83.704302 43.065252 84.123625 
C 43.065252 84.542948 43.23185 84.945153 43.528357 85.241659 
C 43.824863 85.538165 44.227068 85.704764 44.64639 85.704764 
z
" clip-path="url(#pfbcabd66b8)" style="stroke: #000000"/>
    <path d="M 42.137418 74.344771 
C 42.55674 74.344771 42.958945 74.178173 43.255452 73.881666 
C 43.551958 73.58516 43.718556 73.182955 43.718556 72.763632 
C 43.718556 72.34431 43.551958 71.942105 43.255452 71.645598 
C 42.958945 71.349092 42.55674 71.182494 42.137418 71.182494 
C 41.718095 71.182494 41.31589 71.349092 41.019384 71.645598 
C 40.722877 71.942105 40.556279 72.34431 40.556279 72.763632 
C 40.556279 73.182955 40.722877 73.58516 41.019384 73.881666 
C 41.31589 74.178173 41.718095 74.344771 42.137418 74.344771 
z
" clip-path="url(#pfbcabd66b8)" style="stroke: #000000"/>
    <path d="M 38.403038 64.956616 
C 38.822361 64.956616 39.224566 64.790017 39.521072 64.493511 
C 39.817578 64.197005 39.984177 63.7948 39.984177 63.375477 
C 39.984177 62.956154 39.817578 62.553949 39.521072 62.257443 
C 39.224566 61.960937 38.822361 61.794338 38.403038 61.794338 
C 37.983715 61.794338 37.58151 61.960937 37.285004 62.257443 
C 36.988498 62.553949 36.8219 62.956154 36.8219 63.375477 
C 36.8219 63.7948 36.988498 64.197005 37.285004 64.493511 
C 37.58151 64.790017 37.983715 64.956616 38.403038 64.956616 
z
" clip-path="url(#pfbcabd66b8)" style="stroke: #000000"/>
    <path d="M 64.202216 174.304572 
C 64.334818 174.304572 64.462006 174.251888 64.55577 174.158125 
C 64.649533 174.064361 64.702216 173.937173 64.702216 173.804572 
C 64.702216 173.67197 64.649533 173.544782 64.55577 173.451018 
C 64.462006 173.357255 64.334818 173.304572 64.202216 173.304572 
C 64.069615 173.304572 63.942426 173.357255 63.848663 173.451018 
C 63.754899 173.544782 63.702216 173.67197 63.702216 173.804572 
C 63.702216 173.937173 63.754899 174.064361 63.848663 174.158125 
C 63.942426 174.251888 64.069615 174.304572 64.202216 174.304572 
z
" clip-path="url(#pfbcabd66b8)" style="stroke: #000000"/>
    <path d="M 63.067773 162.129289 
C 63.487096 162.129289 63.889301 161.96269 64.185807 161.666184 
C 64.482313 161.369678 64.648912 160.967473 64.648912 160.54815 
C 64.648912 160.128827 64.482313 159.726622 64.185807 159.430116 
C 63.889301 159.13361 63.487096 158.967011 63.067773 158.967011 
C 62.64845 158.967011 62.246245 159.13361 61.949739 159.430116 
C 61.653233 159.726622 61.486634 160.128827 61.486634 160.54815 
C 61.486634 160.967473 61.653233 161.369678 61.949739 161.666184 
C 62.246245 161.96269 62.64845 162.129289 63.067773 162.129289 
z
" clip-path="url(#pfbcabd66b8)" style="stroke: #000000"/>
    <path d="M 56.811782 152.130578 
C 56.811782 152.130578 56.811782 152.130578 56.811782 152.130578 
C 56.811782 152.130578 56.811782 152.130578 56.811782 152.130578 
C 56.811782 152.130578 56.811782 152.130578 56.811782 152.130578 
C 56.811782 152.130578 56.811782 152.130578 56.811782 152.130578 
C 56.811782 152.130578 56.811782 152.130578 56.811782 152.130578 
C 56.811782 152.130578 56.811782 152.130578 56.811782 152.130578 
C 56.811782 152.130578 56.811782 152.130578 56.811782 152.130578 
C 56.811782 152.130578 56.811782 152.130578 56.811782 152.130578 
z
" clip-path="url(#pfbcabd66b8)" style="stroke: #000000"/>
    <path d="M 54.48319 143.661293 
C 54.899867 143.661293 55.299535 143.495745 55.59417 143.20111 
C 55.888805 142.906475 56.054353 142.506808 56.054353 142.09013 
C 56.054353 141.673453 55.888805 141.273786 55.59417 140.979151 
C 55.299535 140.684515 54.899867 140.518968 54.48319 140.518968 
C 54.066513 140.518968 53.666846 140.684515 53.37221 140.979151 
C 53.077575 141.273786 52.912027 141.673453 52.912027 142.09013 
C 52.912027 142.506808 53.077575 142.906475 53.37221 143.20111 
C 53.666846 143.495745 54.066513 143.661293 54.48319 143.661293 
z
" clip-path="url(#pfbcabd66b8)" style="stroke: #000000"/>
    <path d="M 52.728636 134.870024 
C 53.14822 134.870024 53.550676 134.703321 53.847368 134.40663 
C 54.144059 134.109939 54.310762 133.707482 54.310762 133.287898 
C 54.310762 132.868313 54.144059 132.465857 53.847368 132.169166 
C 53.550676 131.872474 53.14822 131.705772 52.728636 131.705772 
C 52.309051 131.705772 51.906595 131.872474 51.609903 132.169166 
C 51.313212 132.465857 51.146509 132.868313 51.146509 133.287898 
C 51.146509 133.707482 51.313212 134.109939 51.609903 134.40663 
C 51.906595 134.703321 52.309051 134.870024 52.728636 134.870024 
z
" clip-path="url(#pfbcabd66b8)" style="stroke: #000000"/>
    <path d="M 43.685619 120.85422 
C 44.104942 120.85422 44.507147 120.687621 44.803653 120.391115 
C 45.100159 120.094609 45.266758 119.692404 45.266758 119.273081 
C 45.266758 118.853758 45.100159 118.451553 44.803653 118.155047 
C 44.507147 117.858541 44.104942 117.691942 43.685619 117.691942 
C 43.266296 117.691942 42.864091 117.858541 42.567585 118.155047 
C 42.271079 118.451553 42.10448 118.853758 42.10448 119.273081 
C 42.10448 119.692404 42.271079 120.094609 42.567585 120.391115 
C 42.864091 120.687621 43.266296 120.85422 43.685619 120.85422 
z
" clip-path="url(#pfbcabd66b8)" style="stroke: #000000"/>
    <path d="M 44.73383 113.271393 
C 45.153153 113.271393 45.555358 113.104795 45.851864 112.808289 
C 46.14837 112.511783 46.314969 112.109578 46.314969 111.690255 
C 46.314969 111.270932 46.14837 110.868727 45.851864 110.572221 
C 45.555358 110.275715 45.153153 110.109116 44.73383 110.109116 
C 44.314507 110.109116 43.912302 110.275715 43.615796 110.572221 
C 43.31929 110.868727 43.152692 111.270932 43.152692 111.690255 
C 43.152692 112.109578 43.31929 112.511783 43.615796 112.808289 
C 43.912302 113.104795 44.314507 113.271393 44.73383 113.271393 
z
" clip-path="url(#pfbcabd66b8)" style="stroke: #000000"/>
    <path d="M 39.661326 101.624743 
C 39.661326 101.624743 39.661326 101.624743 39.661326 101.624743 
C 39.661326 101.624743 39.661326 101.624743 39.661326 101.624743 
C 39.661326 101.624743 39.661326 101.624743 39.661326 101.624743 
C 39.661326 101.624743 39.661326 101.624743 39.661326 101.624743 
C 39.661326 101.624743 39.661326 101.624743 39.661326 101.624743 
C 39.661326 101.624743 39.661326 101.624743 39.661326 101.624743 
C 39.661326 101.624743 39.661326 101.624743 39.661326 101.624743 
C 39.661326 101.624743 39.661326 101.624743 39.661326 101.624743 
z
" clip-path="url(#pfbcabd66b8)" style="stroke: #000000"/>
    <path d="M 34.229082 89.669363 
C 34.229082 89.669363 34.229082 89.669363 34.229082 89.669363 
C 34.229082 89.669363 34.229082 89.669363 34.229082 89.669363 
C 34.229082 89.669363 34.229082 89.669363 34.229082 89.669363 
C 34.229082 89.669363 34.229082 89.669363 34.229082 89.669363 
C 34.229082 89.669363 34.229082 89.669363 34.229082 89.669363 
C 34.229082 89.669363 34.229082 89.669363 34.229082 89.669363 
C 34.229082 89.669363 34.229082 89.669363 34.229082 89.669363 
C 34.229082 89.669363 34.229082 89.669363 34.229082 89.669363 
z
" clip-path="url(#pfbcabd66b8)" style="stroke: #000000"/>
    <path d="M 31.874715 81.886914 
C 31.874715 81.886914 31.874715 81.886914 31.874715 81.886914 
C 31.874715 81.886914 31.874715 81.886914 31.874715 81.886914 
C 31.874715 81.886914 31.874715 81.886914 31.874715 81.886914 
C 31.874715 81.886914 31.874715 81.886914 31.874715 81.886914 
C 31.874715 81.886914 31.874715 81.886914 31.874715 81.886914 
C 31.874715 81.886914 31.874715 81.886914 31.874715 81.886914 
C 31.874715 81.886914 31.874715 81.886914 31.874715 81.886914 
C 31.874715 81.886914 31.874715 81.886914 31.874715 81.886914 
z
" clip-path="url(#pfbcabd66b8)" style="stroke: #000000"/>
    <path d="M 52.615905 166.842597 
C 52.786663 166.842597 52.950451 166.774754 53.071195 166.65401 
C 53.191939 166.533266 53.259782 166.369478 53.259782 166.19872 
C 53.259782 166.027962 53.191939 165.864174 53.071195 165.74343 
C 52.950451 165.622685 52.786663 165.554842 52.615905 165.554842 
C 52.445147 165.554842 52.281359 165.622685 52.160615 165.74343 
C 52.039871 165.864174 51.972028 166.027962 51.972028 166.19872 
C 51.972028 166.369478 52.039871 166.533266 52.160615 166.65401 
C 52.281359 166.774754 52.445147 166.842597 52.615905 166.842597 
z
" clip-path="url(#pfbcabd66b8)" style="stroke: #000000"/>
    <path d="M 44.931026 156.224283 
C 44.931026 156.224283 44.931026 156.224283 44.931026 156.224283 
C 44.931026 156.224283 44.931026 156.224283 44.931026 156.224283 
C 44.931026 156.224283 44.931026 156.224283 44.931026 156.224283 
C 44.931026 156.224283 44.931026 156.224283 44.931026 156.224283 
C 44.931026 156.224283 44.931026 156.224283 44.931026 156.224283 
C 44.931026 156.224283 44.931026 156.224283 44.931026 156.224283 
C 44.931026 156.224283 44.931026 156.224283 44.931026 156.224283 
C 44.931026 156.224283 44.931026 156.224283 44.931026 156.224283 
z
" clip-path="url(#pfbcabd66b8)" style="stroke: #000000"/>
    <path d="M 39.822464 139.629303 
C 39.822464 139.629303 39.822464 139.629303 39.822464 139.629303 
C 39.822464 139.629303 39.822464 139.629303 39.822464 139.629303 
C 39.822464 139.629303 39.822464 139.629303 39.822464 139.629303 
C 39.822464 139.629303 39.822464 139.629303 39.822464 139.629303 
C 39.822464 139.629303 39.822464 139.629303 39.822464 139.629303 
C 39.822464 139.629303 39.822464 139.629303 39.822464 139.629303 
C 39.822464 139.629303 39.822464 139.629303 39.822464 139.629303 
C 39.822464 139.629303 39.822464 139.629303 39.822464 139.629303 
z
" clip-path="url(#pfbcabd66b8)" style="stroke: #000000"/>
    <path d="M 40.519747 130.342362 
C 40.519747 130.342362 40.519747 130.342362 40.519747 130.342362 
C 40.519747 130.342362 40.519747 130.342362 40.519747 130.342362 
C 40.519747 130.342362 40.519747 130.342362 40.519747 130.342362 
C 40.519747 130.342362 40.519747 130.342362 40.519747 130.342362 
C 40.519747 130.342362 40.519747 130.342362 40.519747 130.342362 
C 40.519747 130.342362 40.519747 130.342362 40.519747 130.342362 
C 40.519747 130.342362 40.519747 130.342362 40.519747 130.342362 
C 40.519747 130.342362 40.519747 130.342362 40.519747 130.342362 
z
" clip-path="url(#pfbcabd66b8)" style="stroke: #000000"/>
    <path d="M 33.652106 124.779564 
C 34.071429 124.779564 34.473634 124.612965 34.77014 124.316459 
C 35.066646 124.019953 35.233245 123.617748 35.233245 123.198425 
C 35.233245 122.779102 35.066646 122.376897 34.77014 122.080391 
C 34.473634 121.783885 34.071429 121.617287 33.652106 121.617287 
C 33.232783 121.617287 32.830578 121.783885 32.534072 122.080391 
C 32.237566 122.376897 32.070967 122.779102 32.070967 123.198425 
C 32.070967 123.617748 32.237566 124.019953 32.534072 124.316459 
C 32.830578 124.612965 33.232783 124.779564 33.652106 124.779564 
z
" clip-path="url(#pfbcabd66b8)" style="stroke: #000000"/>
    <path d="M 33.748557 119.357737 
C 34.163081 119.357737 34.560683 119.193045 34.853795 118.899933 
C 35.146908 118.60682 35.3116 118.209218 35.3116 117.794695 
C 35.3116 117.380171 35.146908 116.982569 34.853795 116.689456 
C 34.560683 116.396344 34.163081 116.231652 33.748557 116.231652 
C 33.334033 116.231652 32.936432 116.396344 32.643319 116.689456 
C 32.350207 116.982569 32.185514 117.380171 32.185514 117.794695 
C 32.185514 118.209218 32.350207 118.60682 32.643319 118.899933 
C 32.936432 119.193045 33.334033 119.357737 33.748557 119.357737 
z
" clip-path="url(#pfbcabd66b8)" style="stroke: #000000"/>
    <path d="M 41.878851 171.771495 
C 41.878851 171.771495 41.878851 171.771495 41.878851 171.771495 
C 41.878851 171.771495 41.878851 171.771495 41.878851 171.771495 
C 41.878851 171.771495 41.878851 171.771495 41.878851 171.771495 
C 41.878851 171.771495 41.878851 171.771495 41.878851 171.771495 
C 41.878851 171.771495 41.878851 171.771495 41.878851 171.771495 
C 41.878851 171.771495 41.878851 171.771495 41.878851 171.771495 
C 41.878851 171.771495 41.878851 171.771495 41.878851 171.771495 
C 41.878851 171.771495 41.878851 171.771495 41.878851 171.771495 
z
" clip-path="url(#pfbcabd66b8)" style="stroke: #000000"/>
    <path d="M 40.54283 155.332752 
C 40.54283 155.332752 40.54283 155.332752 40.54283 155.332752 
C 40.54283 155.332752 40.54283 155.332752 40.54283 155.332752 
C 40.54283 155.332752 40.54283 155.332752 40.54283 155.332752 
C 40.54283 155.332752 40.54283 155.332752 40.54283 155.332752 
C 40.54283 155.332752 40.54283 155.332752 40.54283 155.332752 
C 40.54283 155.332752 40.54283 155.332752 40.54283 155.332752 
C 40.54283 155.332752 40.54283 155.332752 40.54283 155.332752 
C 40.54283 155.332752 40.54283 155.332752 40.54283 155.332752 
z
" clip-path="url(#pfbcabd66b8)" style="stroke: #000000"/>
    <path d="M 32.598175 151.149095 
C 33.017236 151.149095 33.419189 150.982601 33.71551 150.68628 
C 34.01183 150.38996 34.178325 149.988006 34.178325 149.568946 
C 34.178325 149.149885 34.01183 148.747932 33.71551 148.451611 
C 33.419189 148.15529 33.017236 147.988796 32.598175 147.988796 
C 32.179114 147.988796 31.777161 148.15529 31.480841 148.451611 
C 31.18452 148.747932 31.018025 149.149885 31.018025 149.568946 
C 31.018025 149.988006 31.18452 150.38996 31.480841 150.68628 
C 31.777161 150.982601 32.179114 151.149095 32.598175 151.149095 
z
" clip-path="url(#pfbcabd66b8)" style="stroke: #000000"/>
    <path d="M 33.416527 135.716604 
C 33.416527 135.716604 33.416527 135.716604 33.416527 135.716604 
C 33.416527 135.716604 33.416527 135.716604 33.416527 135.716604 
C 33.416527 135.716604 33.416527 135.716604 33.416527 135.716604 
C 33.416527 135.716604 33.416527 135.716604 33.416527 135.716604 
C 33.416527 135.716604 33.416527 135.716604 33.416527 135.716604 
C 33.416527 135.716604 33.416527 135.716604 33.416527 135.716604 
C 33.416527 135.716604 33.416527 135.716604 33.416527 135.716604 
C 33.416527 135.716604 33.416527 135.716604 33.416527 135.716604 
z
" clip-path="url(#pfbcabd66b8)" style="stroke: #000000"/>
   </g>
   <g id="matplotlib.axis_1">
    <g id="xtick_1">
     <g id="line2d_1">
      <defs>
       <path id="m5e1b6ea17a" d="M 0 0 
L 0 3.5 
" style="stroke: #000000; stroke-width: 0.8"/>
      </defs>
      <g>
       <use xlink:href="#m5e1b6ea17a" x="18" y="189" style="stroke: #000000; stroke-width: 0.8"/>
      </g>
     </g>
     <g id="text_1">
      <!-- 10 -->
      <g transform="translate(7.447656 203.598437)scale(0.1 -0.1)">
       <defs>
        <path id="DejaVuSans-2212" d="M 678 2272 
L 4684 2272 
L 4684 1741 
L 678 1741 
L 678 2272 
z
" transform="scale(0.015625)"/>
        <path id="DejaVuSans-31" d="M 794 531 
L 1825 531 
L 1825 4091 
L 703 3866 
L 703 4441 
L 1819 4666 
L 2450 4666 
L 2450 531 
L 3481 531 
L 3481 0 
L 794 0 
L 794 531 
z
" transform="scale(0.015625)"/>
        <path id="DejaVuSans-30" d="M 2034 4250 
Q 1547 4250 1301 3770 
Q 1056 3291 1056 2328 
Q 1056 1369 1301 889 
Q 1547 409 2034 409 
Q 2525 409 2770 889 
Q 3016 1369 3016 2328 
Q 3016 3291 2770 3770 
Q 2525 4250 2034 4250 
z
M 2034 4750 
Q 2819 4750 3233 4129 
Q 3647 3509 3647 2328 
Q 3647 1150 3233 529 
Q 2819 -91 2034 -91 
Q 1250 -91 836 529 
Q 422 1150 422 2328 
Q 422 3509 836 4129 
Q 1250 4750 2034 4750 
z
" transform="scale(0.015625)"/>
       </defs>
       <use xlink:href="#DejaVuSans-2212"/>
       <use xlink:href="#DejaVuSans-31" x="83.789062"/>
       <use xlink:href="#DejaVuSans-30" x="147.412109"/>
      </g>
     </g>
    </g>
    <g id="xtick_2">
     <g id="line2d_2">
      <g>
       <use xlink:href="#m5e1b6ea17a" x="73.8" y="189" style="stroke: #000000; stroke-width: 0.8"/>
      </g>
     </g>
     <g id="text_2">
      <!-- 0 -->
      <g transform="translate(70.61875 203.598437)scale(0.1 -0.1)">
       <use xlink:href="#DejaVuSans-30"/>
      </g>
     </g>
    </g>
    <g id="xtick_3">
     <g id="line2d_3">
      <g>
       <use xlink:href="#m5e1b6ea17a" x="129.6" y="189" style="stroke: #000000; stroke-width: 0.8"/>
      </g>
     </g>
     <g id="text_3">
      <!-- 10 -->
      <g transform="translate(123.2375 203.598437)scale(0.1 -0.1)">
       <use xlink:href="#DejaVuSans-31"/>
       <use xlink:href="#DejaVuSans-30" x="63.623047"/>
      </g>
     </g>
    </g>
   </g>
   <g id="matplotlib.axis_2">
    <g id="ytick_1">
     <g id="line2d_4">
      <defs>
       <path id="m98f6231448" d="M 0 0 
L -3.5 0 
" style="stroke: #000000; stroke-width: 0.8"/>
      </defs>
      <g>
       <use xlink:href="#m98f6231448" x="18" y="189" style="stroke: #000000; stroke-width: 0.8"/>
      </g>
     </g>
     <g id="text_4">
      <!-- 15 -->
      <g transform="translate(-10.104688 192.799219)scale(0.1 -0.1)">
       <defs>
        <path id="DejaVuSans-35" d="M 691 4666 
L 3169 4666 
L 3169 4134 
L 1269 4134 
L 1269 2991 
Q 1406 3038 1543 3061 
Q 1681 3084 1819 3084 
Q 2600 3084 3056 2656 
Q 3513 2228 3513 1497 
Q 3513 744 3044 326 
Q 2575 -91 1722 -91 
Q 1428 -91 1123 -41 
Q 819 9 494 109 
L 494 744 
Q 775 591 1075 516 
Q 1375 441 1709 441 
Q 2250 441 2565 725 
Q 2881 1009 2881 1497 
Q 2881 1984 2565 2268 
Q 2250 2553 1709 2553 
Q 1456 2553 1204 2497 
Q 953 2441 691 2322 
L 691 4666 
z
" transform="scale(0.015625)"/>
       </defs>
       <use xlink:href="#DejaVuSans-2212"/>
       <use xlink:href="#DejaVuSans-31" x="83.789062"/>
       <use xlink:href="#DejaVuSans-35" x="147.412109"/>
      </g>
     </g>
    </g>
    <g id="ytick_2">
     <g id="line2d_5">
      <g>
       <use xlink:href="#m98f6231448" x="18" y="161.82" style="stroke: #000000; stroke-width: 0.8"/>
      </g>
     </g>
     <g id="text_5">
      <!-- 10 -->
      <g transform="translate(-10.104688 165.619219)scale(0.1 -0.1)">
       <use xlink:href="#DejaVuSans-2212"/>
       <use xlink:href="#DejaVuSans-31" x="83.789062"/>
       <use xlink:href="#DejaVuSans-30" x="147.412109"/>
      </g>
     </g>
    </g>
    <g id="ytick_3">
     <g id="line2d_6">
      <g>
       <use xlink:href="#m98f6231448" x="18" y="134.64" style="stroke: #000000; stroke-width: 0.8"/>
      </g>
     </g>
     <g id="text_6">
      <!-- 5 -->
      <g transform="translate(-3.742188 138.439219)scale(0.1 -0.1)">
       <use xlink:href="#DejaVuSans-2212"/>
       <use xlink:href="#DejaVuSans-35" x="83.789062"/>
      </g>
     </g>
    </g>
    <g id="ytick_4">
     <g id="line2d_7">
      <g>
       <use xlink:href="#m98f6231448" x="18" y="107.46" style="stroke: #000000; stroke-width: 0.8"/>
      </g>
     </g>
     <g id="text_7">
      <!-- 0 -->
      <g transform="translate(4.6375 111.259219)scale(0.1 -0.1)">
       <use xlink:href="#DejaVuSans-30"/>
      </g>
     </g>
    </g>
    <g id="ytick_5">
     <g id="line2d_8">
      <g>
       <use xlink:href="#m98f6231448" x="18" y="80.28" style="stroke: #000000; stroke-width: 0.8"/>
      </g>
     </g>
     <g id="text_8">
      <!-- 5 -->
      <g transform="translate(4.6375 84.079219)scale(0.1 -0.1)">
       <use xlink:href="#DejaVuSans-35"/>
      </g>
     </g>
    </g>
    <g id="ytick_6">
     <g id="line2d_9">
      <g>
       <use xlink:href="#m98f6231448" x="18" y="53.1" style="stroke: #000000; stroke-width: 0.8"/>
      </g>
     </g>
     <g id="text_9">
      <!-- 10 -->
      <g transform="translate(-1.725 56.899219)scale(0.1 -0.1)">
       <use xlink:href="#DejaVuSans-31"/>
       <use xlink:href="#DejaVuSans-30" x="63.623047"/>
      </g>
     </g>
    </g>
    <g id="ytick_7">
     <g id="line2d_10">
      <g>
       <use xlink:href="#m98f6231448" x="18" y="25.92" style="stroke: #000000; stroke-width: 0.8"/>
      </g>
     </g>
     <g id="text_10">
      <!-- 15 -->
      <g transform="translate(-1.725 29.719219)scale(0.1 -0.1)">
       <use xlink:href="#DejaVuSans-31"/>
       <use xlink:href="#DejaVuSans-35" x="63.623047"/>
      </g>
     </g>
    </g>
   </g>
   <g id="patch_3">
    <path d="M 18 189 
L 18 25.92 
" style="fill: none; stroke: #000000; stroke-width: 0.8; stroke-linejoin: miter; stroke-linecap: square"/>
   </g>
   <g id="patch_4">
    <path d="M 129.6 189 
L 129.6 25.92 
" style="fill: none; stroke: #000000; stroke-width: 0.8; stroke-linejoin: miter; stroke-linecap: square"/>
   </g>
   <g id="patch_5">
    <path d="M 18 189 
L 129.6 189 
" style="fill: none; stroke: #000000; stroke-width: 0.8; stroke-linejoin: miter; stroke-linecap: square"/>
   </g>
   <g id="patch_6">
    <path d="M 18 25.92 
L 129.6 25.92 
" style="fill: none; stroke: #000000; stroke-width: 0.8; stroke-linejoin: miter; stroke-linecap: square"/>
   </g>
  </g>
 </g>
 <defs>
  <clipPath id="pfbcabd66b8">
   <rect x="18" y="25.92" width="111.6" height="163.08"/>
  </clipPath>
 </defs>
</svg>
