<?xml version="1.0" encoding="utf-8" standalone="no"?>
<!DOCTYPE svg PUBLIC "-//W3C//DTD SVG 1.1//EN"
  "http://www.w3.org/Graphics/SVG/1.1/DTD/svg11.dtd">
<svg xmlns:xlink="http://www.w3.org/1999/xlink" width="144pt" height="216pt" viewBox="0 0 144 216" xmlns="http://www.w3.org/2000/svg" version="1.1">
 <metadata>
  <rdf:RDF xmlns:dc="http://purl.org/dc/elements/1.1/" xmlns:cc="http://creativecommons.org/ns#" xmlns:rdf="http://www.w3.org/1999/02/22-rdf-syntax-ns#">
   <cc:Work>
    <dc:type rdf:resource="http://purl.org/dc/dcmitype/StillImage"/>
    <dc:date>2022-06-23T11:28:12.409319</dc:date>
    <dc:format>image/svg+xml</dc:format>
    <dc:creator>
     <cc:Agent>
      <dc:title>Matplotlib v3.5.1, https://matplotlib.org/</dc:title>
     </cc:Agent>
    </dc:creator>
   </cc:Work>
  </rdf:RDF>
 </metadata>
 <defs>
  <style type="text/css">*{stroke-linejoin: round; stroke-linecap: butt}</style>
 </defs>
 <g id="figure_1">
  <g id="patch_1">
   <path d="M 0 216 
L 144 216 
L 144 0 
L 0 0 
L 0 216 
z
" style="fill: none"/>
  </g>
  <g id="axes_1">
   <g id="patch_2">
    <path d="M 18 189 
L 129.6 189 
L 129.6 25.92 
L 18 25.92 
z
" style="fill: #ffffff"/>
   </g>
   <g id="PathCollection_1">
    <defs>
     <path id="mb4eefad899" d="M 0 2.738613 
C 0.726289 2.738613 1.422928 2.450055 1.936492 1.936492 
C 2.450055 1.422928 2.738613 0.726289 2.738613 0 
C 2.738613 -0.726289 2.450055 -1.422928 1.936492 -1.936492 
C 1.422928 -2.450055 0.726289 -2.738613 0 -2.738613 
C -0.726289 -2.738613 -1.422928 -2.450055 -1.936492 -1.936492 
C -2.450055 -1.422928 -2.738613 -0.726289 -2.738613 0 
C -2.738613 0.726289 -2.450055 1.422928 -1.936492 1.936492 
C -1.422928 2.450055 -0.726289 2.738613 0 2.738613 
z
" style="stroke: #ff0000; stroke-width: 1.75"/>
    </defs>
    <g clip-path="url(#p267d76c248)">
     <use xlink:href="#mb4eefad899" x="80.775" y="83.92143" style="fill: #ff0000; stroke: #ff0000; stroke-width: 1.75"/>
     <use xlink:href="#mb4eefad899" x="59.85" y="95.690715" style="fill: #ff0000; stroke: #ff0000; stroke-width: 1.75"/>
     <use xlink:href="#mb4eefad899" x="66.825" y="107.46" style="fill: #ff0000; stroke: #ff0000; stroke-width: 1.75"/>
     <use xlink:href="#mb4eefad899" x="80.775" y="107.46" style="fill: #ff0000; stroke: #ff0000; stroke-width: 1.75"/>
     <use xlink:href="#mb4eefad899" x="94.725" y="107.46" style="fill: #ff0000; stroke: #ff0000; stroke-width: 1.75"/>
     <use xlink:href="#mb4eefad899" x="59.85" y="119.229285" style="fill: #ff0000; stroke: #ff0000; stroke-width: 1.75"/>
     <use xlink:href="#mb4eefad899" x="80.775" y="130.99857" style="fill: #ff0000; stroke: #ff0000; stroke-width: 1.75"/>
    </g>
   </g>
   <g id="PathCollection_2">
    <defs>
     <path id="C0_0_fab82df5ad" d="M 0 2.738613 
C 0.726289 2.738613 1.422928 2.450055 1.936492 1.936492 
C 2.450055 1.422928 2.738613 0.726289 2.738613 -0 
C 2.738613 -0.726289 2.450055 -1.422928 1.936492 -1.936492 
C 1.422928 -2.450055 0.726289 -2.738613 0 -2.738613 
C -0.726289 -2.738613 -1.422928 -2.450055 -1.936492 -1.936492 
C -2.450055 -1.422928 -2.738613 -0.726289 -2.738613 0 
C -2.738613 0.726289 -2.450055 1.422928 -1.936492 1.936492 
C -1.422928 2.450055 -0.726289 2.738613 0 2.738613 
z
"/>
    </defs>
    <g clip-path="url(#p267d76c248)">
     <use xlink:href="#C0_0_fab82df5ad" x="66.825" y="83.92143" style="fill: none; stroke: #ff0000; stroke-width: 1.75"/>
    </g>
    <g clip-path="url(#p267d76c248)">
     <use xlink:href="#C0_0_fab82df5ad" x="73.8" y="95.690715" style="fill: none; stroke: #ff0000; stroke-width: 1.75"/>
    </g>
    <g clip-path="url(#p267d76c248)">
     <use xlink:href="#C0_0_fab82df5ad" x="87.75" y="95.690715" style="fill: none; stroke: #ff0000; stroke-width: 1.75"/>
    </g>
    <g clip-path="url(#p267d76c248)">
     <use xlink:href="#C0_0_fab82df5ad" x="52.875" y="107.46" style="fill: none; stroke: #ff0000; stroke-width: 1.75"/>
    </g>
    <g clip-path="url(#p267d76c248)">
     <use xlink:href="#C0_0_fab82df5ad" x="73.8" y="119.229285" style="fill: none; stroke: #ff0000; stroke-width: 1.75"/>
    </g>
    <g clip-path="url(#p267d76c248)">
     <use xlink:href="#C0_0_fab82df5ad" x="87.75" y="119.229285" style="fill: none; stroke: #ff0000; stroke-width: 1.75"/>
    </g>
    <g clip-path="url(#p267d76c248)">
     <use xlink:href="#C0_0_fab82df5ad" x="66.825" y="130.99857" style="fill: none; stroke: #ff0000; stroke-width: 1.75"/>
    </g>
   </g>
   <g id="PathCollection_3">
    <path d="M 101.177466 56.470697 
C 101.469421 56.470697 101.749458 56.354702 101.955901 56.148259 
C 102.162344 55.941816 102.278339 55.661779 102.278339 55.369825 
C 102.278339 55.07787 102.162344 54.797834 101.955901 54.59139 
C 101.749458 54.384947 101.469421 54.268952 101.177466 54.268952 
C 100.885512 54.268952 100.605475 54.384947 100.399032 54.59139 
C 100.192589 54.797834 100.076594 55.07787 100.076594 55.369825 
C 100.076594 55.661779 100.192589 55.941816 100.399032 56.148259 
C 100.605475 56.354702 100.885512 56.470697 101.177466 56.470697 
z
" clip-path="url(#p267d76c248)" style="stroke: #000000"/>
    <path d="M 116.574585 118.002146 
C 116.574585 118.002146 116.574585 118.002146 116.574585 118.002146 
C 116.574585 118.002146 116.574585 118.002146 116.574585 118.002146 
C 116.574585 118.002146 116.574585 118.002146 116.574585 118.002146 
C 116.574585 118.002146 116.574585 118.002146 116.574585 118.002146 
C 116.574585 118.002146 116.574585 118.002146 116.574585 118.002146 
C 116.574585 118.002146 116.574585 118.002146 116.574585 118.002146 
C 116.574585 118.002146 116.574585 118.002146 116.574585 118.002146 
C 116.574585 118.002146 116.574585 118.002146 116.574585 118.002146 
z
" clip-path="url(#p267d76c248)" style="stroke: #000000"/>
    <path d="M 115.459119 108.546104 
C 115.459119 108.546104 115.459119 108.546104 115.459119 108.546104 
C 115.459119 108.546104 115.459119 108.546104 115.459119 108.546104 
C 115.459119 108.546104 115.459119 108.546104 115.459119 108.546104 
C 115.459119 108.546104 115.459119 108.546104 115.459119 108.546104 
C 115.459119 108.546104 115.459119 108.546104 115.459119 108.546104 
C 115.459119 108.546104 115.459119 108.546104 115.459119 108.546104 
C 115.459119 108.546104 115.459119 108.546104 115.459119 108.546104 
C 115.459119 108.546104 115.459119 108.546104 115.459119 108.546104 
z
" clip-path="url(#p267d76c248)" style="stroke: #000000"/>
    <path d="M 115.62481 96.470268 
C 115.62481 96.470268 115.62481 96.470268 115.62481 96.470268 
C 115.62481 96.470268 115.62481 96.470268 115.62481 96.470268 
C 115.62481 96.470268 115.62481 96.470268 115.62481 96.470268 
C 115.62481 96.470268 115.62481 96.470268 115.62481 96.470268 
C 115.62481 96.470268 115.62481 96.470268 115.62481 96.470268 
C 115.62481 96.470268 115.62481 96.470268 115.62481 96.470268 
C 115.62481 96.470268 115.62481 96.470268 115.62481 96.470268 
C 115.62481 96.470268 115.62481 96.470268 115.62481 96.470268 
z
" clip-path="url(#p267d76c248)" style="stroke: #000000"/>
    <path d="M 109.839913 86.875949 
C 109.839913 86.875949 109.839913 86.875949 109.839913 86.875949 
C 109.839913 86.875949 109.839913 86.875949 109.839913 86.875949 
C 109.839913 86.875949 109.839913 86.875949 109.839913 86.875949 
C 109.839913 86.875949 109.839913 86.875949 109.839913 86.875949 
C 109.839913 86.875949 109.839913 86.875949 109.839913 86.875949 
C 109.839913 86.875949 109.839913 86.875949 109.839913 86.875949 
C 109.839913 86.875949 109.839913 86.875949 109.839913 86.875949 
C 109.839913 86.875949 109.839913 86.875949 109.839913 86.875949 
z
" clip-path="url(#p267d76c248)" style="stroke: #000000"/>
    <path d="M 103.759935 79.78428 
C 103.759935 79.78428 103.759935 79.78428 103.759935 79.78428 
C 103.759935 79.78428 103.759935 79.78428 103.759935 79.78428 
C 103.759935 79.78428 103.759935 79.78428 103.759935 79.78428 
C 103.759935 79.78428 103.759935 79.78428 103.759935 79.78428 
C 103.759935 79.78428 103.759935 79.78428 103.759935 79.78428 
C 103.759935 79.78428 103.759935 79.78428 103.759935 79.78428 
C 103.759935 79.78428 103.759935 79.78428 103.759935 79.78428 
C 103.759935 79.78428 103.759935 79.78428 103.759935 79.78428 
z
" clip-path="url(#p267d76c248)" style="stroke: #000000"/>
    <path d="M 101.121307 65.1923 
C 101.121307 65.1923 101.121307 65.1923 101.121307 65.1923 
C 101.121307 65.1923 101.121307 65.1923 101.121307 65.1923 
C 101.121307 65.1923 101.121307 65.1923 101.121307 65.1923 
C 101.121307 65.1923 101.121307 65.1923 101.121307 65.1923 
C 101.121307 65.1923 101.121307 65.1923 101.121307 65.1923 
C 101.121307 65.1923 101.121307 65.1923 101.121307 65.1923 
C 101.121307 65.1923 101.121307 65.1923 101.121307 65.1923 
C 101.121307 65.1923 101.121307 65.1923 101.121307 65.1923 
z
" clip-path="url(#p267d76c248)" style="stroke: #000000"/>
    <path d="M 95.400971 57.699735 
C 95.400971 57.699735 95.400971 57.699735 95.400971 57.699735 
C 95.400971 57.699735 95.400971 57.699735 95.400971 57.699735 
C 95.400971 57.699735 95.400971 57.699735 95.400971 57.699735 
C 95.400971 57.699735 95.400971 57.699735 95.400971 57.699735 
C 95.400971 57.699735 95.400971 57.699735 95.400971 57.699735 
C 95.400971 57.699735 95.400971 57.699735 95.400971 57.699735 
C 95.400971 57.699735 95.400971 57.699735 95.400971 57.699735 
C 95.400971 57.699735 95.400971 57.699735 95.400971 57.699735 
z
" clip-path="url(#p267d76c248)" style="stroke: #000000"/>
    <path d="M 92.323569 48.069744 
C 92.323569 48.069744 92.323569 48.069744 92.323569 48.069744 
C 92.323569 48.069744 92.323569 48.069744 92.323569 48.069744 
C 92.323569 48.069744 92.323569 48.069744 92.323569 48.069744 
C 92.323569 48.069744 92.323569 48.069744 92.323569 48.069744 
C 92.323569 48.069744 92.323569 48.069744 92.323569 48.069744 
C 92.323569 48.069744 92.323569 48.069744 92.323569 48.069744 
C 92.323569 48.069744 92.323569 48.069744 92.323569 48.069744 
C 92.323569 48.069744 92.323569 48.069744 92.323569 48.069744 
z
" clip-path="url(#p267d76c248)" style="stroke: #000000"/>
    <path d="M 89.280618 35.953149 
C 89.374382 35.953149 89.464318 35.915897 89.530618 35.849596 
C 89.596919 35.783295 89.634172 35.69336 89.634172 35.599596 
C 89.634172 35.505833 89.596919 35.415897 89.530618 35.349596 
C 89.464318 35.283295 89.374382 35.246043 89.280618 35.246043 
C 89.186855 35.246043 89.096919 35.283295 89.030618 35.349596 
C 88.964318 35.415897 88.927065 35.505833 88.927065 35.599596 
C 88.927065 35.69336 88.964318 35.783295 89.030618 35.849596 
C 89.096919 35.915897 89.186855 35.953149 89.280618 35.953149 
z
" clip-path="url(#p267d76c248)" style="stroke: #000000"/>
    <path d="M 118.039528 164.050163 
C 118.133292 164.050163 118.223227 164.01291 118.289528 163.94661 
C 118.355829 163.880309 118.393082 163.790373 118.393082 163.69661 
C 118.393082 163.602846 118.355829 163.51291 118.289528 163.44661 
C 118.223227 163.380309 118.133292 163.343056 118.039528 163.343056 
C 117.945765 163.343056 117.855829 163.380309 117.789528 163.44661 
C 117.723227 163.51291 117.685975 163.602846 117.685975 163.69661 
C 117.685975 163.790373 117.723227 163.880309 117.789528 163.94661 
C 117.855829 164.01291 117.945765 164.050163 118.039528 164.050163 
z
" clip-path="url(#p267d76c248)" style="stroke: #000000"/>
    <path d="M 119.975422 160.494701 
C 119.975422 160.494701 119.975422 160.494701 119.975422 160.494701 
C 119.975422 160.494701 119.975422 160.494701 119.975422 160.494701 
C 119.975422 160.494701 119.975422 160.494701 119.975422 160.494701 
C 119.975422 160.494701 119.975422 160.494701 119.975422 160.494701 
C 119.975422 160.494701 119.975422 160.494701 119.975422 160.494701 
C 119.975422 160.494701 119.975422 160.494701 119.975422 160.494701 
C 119.975422 160.494701 119.975422 160.494701 119.975422 160.494701 
C 119.975422 160.494701 119.975422 160.494701 119.975422 160.494701 
z
" clip-path="url(#p267d76c248)" style="stroke: #000000"/>
    <path d="M 114.492935 147.173593 
C 114.492935 147.173593 114.492935 147.173593 114.492935 147.173593 
C 114.492935 147.173593 114.492935 147.173593 114.492935 147.173593 
C 114.492935 147.173593 114.492935 147.173593 114.492935 147.173593 
C 114.492935 147.173593 114.492935 147.173593 114.492935 147.173593 
C 114.492935 147.173593 114.492935 147.173593 114.492935 147.173593 
C 114.492935 147.173593 114.492935 147.173593 114.492935 147.173593 
C 114.492935 147.173593 114.492935 147.173593 114.492935 147.173593 
C 114.492935 147.173593 114.492935 147.173593 114.492935 147.173593 
z
" clip-path="url(#p267d76c248)" style="stroke: #000000"/>
    <path d="M 108.657552 133.887141 
C 108.751315 133.887141 108.841251 133.849889 108.907552 133.783588 
C 108.973853 133.717287 109.011105 133.627352 109.011105 133.533588 
C 109.011105 133.439825 108.973853 133.349889 108.907552 133.283588 
C 108.841251 133.217287 108.751315 133.180035 108.657552 133.180035 
C 108.563788 133.180035 108.473853 133.217287 108.407552 133.283588 
C 108.341251 133.349889 108.303998 133.439825 108.303998 133.533588 
C 108.303998 133.627352 108.341251 133.717287 108.407552 133.783588 
C 108.473853 133.849889 108.563788 133.887141 108.657552 133.887141 
z
" clip-path="url(#p267d76c248)" style="stroke: #000000"/>
    <path d="M 108.130794 121.167747 
C 108.130794 121.167747 108.130794 121.167747 108.130794 121.167747 
C 108.130794 121.167747 108.130794 121.167747 108.130794 121.167747 
C 108.130794 121.167747 108.130794 121.167747 108.130794 121.167747 
C 108.130794 121.167747 108.130794 121.167747 108.130794 121.167747 
C 108.130794 121.167747 108.130794 121.167747 108.130794 121.167747 
C 108.130794 121.167747 108.130794 121.167747 108.130794 121.167747 
C 108.130794 121.167747 108.130794 121.167747 108.130794 121.167747 
C 108.130794 121.167747 108.130794 121.167747 108.130794 121.167747 
z
" clip-path="url(#p267d76c248)" style="stroke: #000000"/>
    <path d="M 99.950058 112.78228 
C 100.369642 112.78228 100.772099 112.615577 101.06879 112.318886 
C 101.365481 112.022194 101.532184 111.619738 101.532184 111.200153 
C 101.532184 110.780569 101.365481 110.378113 101.06879 110.081421 
C 100.772099 109.78473 100.369642 109.618027 99.950058 109.618027 
C 99.530473 109.618027 99.128017 109.78473 98.831326 110.081421 
C 98.534634 110.378113 98.367932 110.780569 98.367932 111.200153 
C 98.367932 111.619738 98.534634 112.022194 98.831326 112.318886 
C 99.128017 112.615577 99.530473 112.78228 99.950058 112.78228 
z
" clip-path="url(#p267d76c248)" style="stroke: #000000"/>
    <path d="M 100.384332 103.67885 
C 100.384332 103.67885 100.384332 103.67885 100.384332 103.67885 
C 100.384332 103.67885 100.384332 103.67885 100.384332 103.67885 
C 100.384332 103.67885 100.384332 103.67885 100.384332 103.67885 
C 100.384332 103.67885 100.384332 103.67885 100.384332 103.67885 
C 100.384332 103.67885 100.384332 103.67885 100.384332 103.67885 
C 100.384332 103.67885 100.384332 103.67885 100.384332 103.67885 
C 100.384332 103.67885 100.384332 103.67885 100.384332 103.67885 
C 100.384332 103.67885 100.384332 103.67885 100.384332 103.67885 
z
" clip-path="url(#p267d76c248)" style="stroke: #000000"/>
    <path d="M 100.385137 93.277558 
C 100.385137 93.277558 100.385137 93.277558 100.385137 93.277558 
C 100.385137 93.277558 100.385137 93.277558 100.385137 93.277558 
C 100.385137 93.277558 100.385137 93.277558 100.385137 93.277558 
C 100.385137 93.277558 100.385137 93.277558 100.385137 93.277558 
C 100.385137 93.277558 100.385137 93.277558 100.385137 93.277558 
C 100.385137 93.277558 100.385137 93.277558 100.385137 93.277558 
C 100.385137 93.277558 100.385137 93.277558 100.385137 93.277558 
C 100.385137 93.277558 100.385137 93.277558 100.385137 93.277558 
z
" clip-path="url(#p267d76c248)" style="stroke: #000000"/>
    <path d="M 94.240872 81.582067 
C 94.660195 81.582067 95.0624 81.415469 95.358906 81.118963 
C 95.655412 80.822457 95.822011 80.420252 95.822011 80.000929 
C 95.822011 79.581606 95.655412 79.179401 95.358906 78.882895 
C 95.0624 78.586389 94.660195 78.41979 94.240872 78.41979 
C 93.821549 78.41979 93.419344 78.586389 93.122838 78.882895 
C 92.826332 79.179401 92.659733 79.581606 92.659733 80.000929 
C 92.659733 80.420252 92.826332 80.822457 93.122838 81.118963 
C 93.419344 81.415469 93.821549 81.582067 94.240872 81.582067 
z
" clip-path="url(#p267d76c248)" style="stroke: #000000"/>
    <path d="M 92.274107 70.459151 
C 92.274107 70.459151 92.274107 70.459151 92.274107 70.459151 
C 92.274107 70.459151 92.274107 70.459151 92.274107 70.459151 
C 92.274107 70.459151 92.274107 70.459151 92.274107 70.459151 
C 92.274107 70.459151 92.274107 70.459151 92.274107 70.459151 
C 92.274107 70.459151 92.274107 70.459151 92.274107 70.459151 
C 92.274107 70.459151 92.274107 70.459151 92.274107 70.459151 
C 92.274107 70.459151 92.274107 70.459151 92.274107 70.459151 
C 92.274107 70.459151 92.274107 70.459151 92.274107 70.459151 
z
" clip-path="url(#p267d76c248)" style="stroke: #000000"/>
    <path d="M 82.151258 62.279591 
C 82.570581 62.279591 82.972786 62.112992 83.269292 61.816486 
C 83.565798 61.51998 83.732397 61.117775 83.732397 60.698452 
C 83.732397 60.279129 83.565798 59.876924 83.269292 59.580418 
C 82.972786 59.283912 82.570581 59.117313 82.151258 59.117313 
C 81.731935 59.117313 81.32973 59.283912 81.033224 59.580418 
C 80.736718 59.876924 80.570119 60.279129 80.570119 60.698452 
C 80.570119 61.117775 80.736718 61.51998 81.033224 61.816486 
C 81.32973 62.112992 81.731935 62.279591 82.151258 62.279591 
z
" clip-path="url(#p267d76c248)" style="stroke: #000000"/>
    <path d="M 80.047473 49.630944 
C 80.047473 49.630944 80.047473 49.630944 80.047473 49.630944 
C 80.047473 49.630944 80.047473 49.630944 80.047473 49.630944 
C 80.047473 49.630944 80.047473 49.630944 80.047473 49.630944 
C 80.047473 49.630944 80.047473 49.630944 80.047473 49.630944 
C 80.047473 49.630944 80.047473 49.630944 80.047473 49.630944 
C 80.047473 49.630944 80.047473 49.630944 80.047473 49.630944 
C 80.047473 49.630944 80.047473 49.630944 80.047473 49.630944 
C 80.047473 49.630944 80.047473 49.630944 80.047473 49.630944 
z
" clip-path="url(#p267d76c248)" style="stroke: #000000"/>
    <path d="M 77.820676 45.202504 
C 78.016435 45.202504 78.204203 45.124728 78.342626 44.986306 
C 78.481048 44.847883 78.558824 44.660115 78.558824 44.464356 
C 78.558824 44.268597 78.481048 44.080829 78.342626 43.942407 
C 78.204203 43.803984 78.016435 43.726208 77.820676 43.726208 
C 77.624917 43.726208 77.43715 43.803984 77.298727 43.942407 
C 77.160304 44.080829 77.082528 44.268597 77.082528 44.464356 
C 77.082528 44.660115 77.160304 44.847883 77.298727 44.986306 
C 77.43715 45.124728 77.624917 45.202504 77.820676 45.202504 
z
" clip-path="url(#p267d76c248)" style="stroke: #000000"/>
    <path d="M 72.827985 28.941157 
C 72.827985 28.941157 72.827985 28.941157 72.827985 28.941157 
C 72.827985 28.941157 72.827985 28.941157 72.827985 28.941157 
C 72.827985 28.941157 72.827985 28.941157 72.827985 28.941157 
C 72.827985 28.941157 72.827985 28.941157 72.827985 28.941157 
C 72.827985 28.941157 72.827985 28.941157 72.827985 28.941157 
C 72.827985 28.941157 72.827985 28.941157 72.827985 28.941157 
C 72.827985 28.941157 72.827985 28.941157 72.827985 28.941157 
C 72.827985 28.941157 72.827985 28.941157 72.827985 28.941157 
z
" clip-path="url(#p267d76c248)" style="stroke: #000000"/>
    <path d="M 110.520129 170.346487 
C 110.520129 170.346487 110.520129 170.346487 110.520129 170.346487 
C 110.520129 170.346487 110.520129 170.346487 110.520129 170.346487 
C 110.520129 170.346487 110.520129 170.346487 110.520129 170.346487 
C 110.520129 170.346487 110.520129 170.346487 110.520129 170.346487 
C 110.520129 170.346487 110.520129 170.346487 110.520129 170.346487 
C 110.520129 170.346487 110.520129 170.346487 110.520129 170.346487 
C 110.520129 170.346487 110.520129 170.346487 110.520129 170.346487 
C 110.520129 170.346487 110.520129 170.346487 110.520129 170.346487 
z
" clip-path="url(#p267d76c248)" style="stroke: #000000"/>
    <path d="M 105.211849 158.55529 
C 105.211849 158.55529 105.211849 158.55529 105.211849 158.55529 
C 105.211849 158.55529 105.211849 158.55529 105.211849 158.55529 
C 105.211849 158.55529 105.211849 158.55529 105.211849 158.55529 
C 105.211849 158.55529 105.211849 158.55529 105.211849 158.55529 
C 105.211849 158.55529 105.211849 158.55529 105.211849 158.55529 
C 105.211849 158.55529 105.211849 158.55529 105.211849 158.55529 
C 105.211849 158.55529 105.211849 158.55529 105.211849 158.55529 
C 105.211849 158.55529 105.211849 158.55529 105.211849 158.55529 
z
" clip-path="url(#p267d76c248)" style="stroke: #000000"/>
    <path d="M 104.992484 149.323786 
C 105.411807 149.323786 105.814012 149.157188 106.110518 148.860681 
C 106.407024 148.564175 106.573623 148.16197 106.573623 147.742647 
C 106.573623 147.323325 106.407024 146.92112 106.110518 146.624613 
C 105.814012 146.328107 105.411807 146.161509 104.992484 146.161509 
C 104.573161 146.161509 104.170956 146.328107 103.87445 146.624613 
C 103.577944 146.92112 103.411345 147.323325 103.411345 147.742647 
C 103.411345 148.16197 103.577944 148.564175 103.87445 148.860681 
C 104.170956 149.157188 104.573161 149.323786 104.992484 149.323786 
z
" clip-path="url(#p267d76c248)" style="stroke: #000000"/>
    <path d="M 101.098012 134.400533 
C 101.517335 134.400533 101.91954 134.233934 102.216046 133.937428 
C 102.512552 133.640922 102.679151 133.238717 102.679151 132.819394 
C 102.679151 132.400071 102.512552 131.997866 102.216046 131.70136 
C 101.91954 131.404854 101.517335 131.238255 101.098012 131.238255 
C 100.678689 131.238255 100.276484 131.404854 99.979978 131.70136 
C 99.683472 131.997866 99.516874 132.400071 99.516874 132.819394 
C 99.516874 133.238717 99.683472 133.640922 99.979978 133.937428 
C 100.276484 134.233934 100.678689 134.400533 101.098012 134.400533 
z
" clip-path="url(#p267d76c248)" style="stroke: #000000"/>
    <path d="M 96.867335 129.547548 
C 97.286658 129.547548 97.688863 129.38095 97.985369 129.084444 
C 98.281875 128.787938 98.448474 128.385733 98.448474 127.96641 
C 98.448474 127.547087 98.281875 127.144882 97.985369 126.848376 
C 97.688863 126.55187 97.286658 126.385271 96.867335 126.385271 
C 96.448012 126.385271 96.045807 126.55187 95.749301 126.848376 
C 95.452795 127.144882 95.286196 127.547087 95.286196 127.96641 
C 95.286196 128.385733 95.452795 128.787938 95.749301 129.084444 
C 96.045807 129.38095 96.448012 129.547548 96.867335 129.547548 
z
" clip-path="url(#p267d76c248)" style="stroke: #000000"/>
    <path d="M 94.510187 112.491344 
C 94.929771 112.491344 95.332227 112.324642 95.628919 112.02795 
C 95.92561 111.731259 96.092313 111.328803 96.092313 110.909218 
C 96.092313 110.489634 95.92561 110.087177 95.628919 109.790486 
C 95.332227 109.493795 94.929771 109.327092 94.510187 109.327092 
C 94.090602 109.327092 93.688146 109.493795 93.391454 109.790486 
C 93.094763 110.087177 92.92806 110.489634 92.92806 110.909218 
C 92.92806 111.328803 93.094763 111.731259 93.391454 112.02795 
C 93.688146 112.324642 94.090602 112.491344 94.510187 112.491344 
z
" clip-path="url(#p267d76c248)" style="stroke: #000000"/>
    <path d="M 88.429157 108.076094 
C 88.807821 108.076094 89.171027 107.925649 89.438783 107.657893 
C 89.706539 107.390138 89.856984 107.026932 89.856984 106.648268 
C 89.856984 106.269604 89.706539 105.906398 89.438783 105.638642 
C 89.171027 105.370886 88.807821 105.220441 88.429157 105.220441 
C 88.050493 105.220441 87.687287 105.370886 87.419531 105.638642 
C 87.151776 105.906398 87.001331 106.269604 87.001331 106.648268 
C 87.001331 107.026932 87.151776 107.390138 87.419531 107.657893 
C 87.687287 107.925649 88.050493 108.076094 88.429157 108.076094 
z
" clip-path="url(#p267d76c248)" style="stroke: #000000"/>
    <path d="M 88.837834 99.371857 
C 89.226751 99.371857 89.599791 99.217339 89.874796 98.942334 
C 90.149802 98.667328 90.30432 98.294288 90.30432 97.905371 
C 90.30432 97.516455 90.149802 97.143415 89.874796 96.868409 
C 89.599791 96.593404 89.226751 96.438885 88.837834 96.438885 
C 88.448917 96.438885 88.075877 96.593404 87.800872 96.868409 
C 87.525866 97.143415 87.371348 97.516455 87.371348 97.905371 
C 87.371348 98.294288 87.525866 98.667328 87.800872 98.942334 
C 88.075877 99.217339 88.448917 99.371857 88.837834 99.371857 
z
" clip-path="url(#p267d76c248)" style="stroke: #000000"/>
    <path d="M 83.277144 81.845997 
C 83.277144 81.845997 83.277144 81.845997 83.277144 81.845997 
C 83.277144 81.845997 83.277144 81.845997 83.277144 81.845997 
C 83.277144 81.845997 83.277144 81.845997 83.277144 81.845997 
C 83.277144 81.845997 83.277144 81.845997 83.277144 81.845997 
C 83.277144 81.845997 83.277144 81.845997 83.277144 81.845997 
C 83.277144 81.845997 83.277144 81.845997 83.277144 81.845997 
C 83.277144 81.845997 83.277144 81.845997 83.277144 81.845997 
C 83.277144 81.845997 83.277144 81.845997 83.277144 81.845997 
z
" clip-path="url(#p267d76c248)" style="stroke: #000000"/>
    <path d="M 78.050995 80.458774 
C 78.409617 80.458774 78.753599 80.316292 79.007183 80.062708 
C 79.260767 79.809124 79.40325 79.465141 79.40325 79.106519 
C 79.40325 78.747897 79.260767 78.403915 79.007183 78.150331 
C 78.753599 77.896747 78.409617 77.754265 78.050995 77.754265 
C 77.692373 77.754265 77.348391 77.896747 77.094807 78.150331 
C 76.841222 78.403915 76.69874 78.747897 76.69874 79.106519 
C 76.69874 79.465141 76.841222 79.809124 77.094807 80.062708 
C 77.348391 80.316292 77.692373 80.458774 78.050995 80.458774 
z
" clip-path="url(#p267d76c248)" style="stroke: #000000"/>
    <path d="M 77.401578 68.272692 
C 77.821163 68.272692 78.223619 68.105989 78.52031 67.809298 
C 78.817002 67.512607 78.983704 67.110151 78.983704 66.690566 
C 78.983704 66.270981 78.817002 65.868525 78.52031 65.571834 
C 78.223619 65.275142 77.821163 65.10844 77.401578 65.10844 
C 76.981994 65.10844 76.579537 65.275142 76.282846 65.571834 
C 75.986155 65.868525 75.819452 66.270981 75.819452 66.690566 
C 75.819452 67.110151 75.986155 67.512607 76.282846 67.809298 
C 76.579537 68.105989 76.981994 68.272692 77.401578 68.272692 
z
" clip-path="url(#p267d76c248)" style="stroke: #000000"/>
    <path d="M 71.207766 56.240884 
C 71.553099 56.240884 71.884335 56.103681 72.128522 55.859494 
C 72.372709 55.615307 72.509912 55.284071 72.509912 54.938738 
C 72.509912 54.593405 72.372709 54.26217 72.128522 54.017982 
C 71.884335 53.773795 71.553099 53.636593 71.207766 53.636593 
C 70.862433 53.636593 70.531198 53.773795 70.287011 54.017982 
C 70.042823 54.26217 69.905621 54.593405 69.905621 54.938738 
C 69.905621 55.284071 70.042823 55.615307 70.287011 55.859494 
C 70.531198 56.103681 70.862433 56.240884 71.207766 56.240884 
z
" clip-path="url(#p267d76c248)" style="stroke: #000000"/>
    <path d="M 70.045786 46.866617 
C 70.045786 46.866617 70.045786 46.866617 70.045786 46.866617 
C 70.045786 46.866617 70.045786 46.866617 70.045786 46.866617 
C 70.045786 46.866617 70.045786 46.866617 70.045786 46.866617 
C 70.045786 46.866617 70.045786 46.866617 70.045786 46.866617 
C 70.045786 46.866617 70.045786 46.866617 70.045786 46.866617 
C 70.045786 46.866617 70.045786 46.866617 70.045786 46.866617 
C 70.045786 46.866617 70.045786 46.866617 70.045786 46.866617 
C 70.045786 46.866617 70.045786 46.866617 70.045786 46.866617 
z
" clip-path="url(#p267d76c248)" style="stroke: #000000"/>
    <path d="M 57.872612 35.444235 
C 57.872612 35.444235 57.872612 35.444235 57.872612 35.444235 
C 57.872612 35.444235 57.872612 35.444235 57.872612 35.444235 
C 57.872612 35.444235 57.872612 35.444235 57.872612 35.444235 
C 57.872612 35.444235 57.872612 35.444235 57.872612 35.444235 
C 57.872612 35.444235 57.872612 35.444235 57.872612 35.444235 
C 57.872612 35.444235 57.872612 35.444235 57.872612 35.444235 
C 57.872612 35.444235 57.872612 35.444235 57.872612 35.444235 
C 57.872612 35.444235 57.872612 35.444235 57.872612 35.444235 
z
" clip-path="url(#p267d76c248)" style="stroke: #000000"/>
    <path d="M 62.751149 26.500336 
C 62.751149 26.500336 62.751149 26.500336 62.751149 26.500336 
C 62.751149 26.500336 62.751149 26.500336 62.751149 26.500336 
C 62.751149 26.500336 62.751149 26.500336 62.751149 26.500336 
C 62.751149 26.500336 62.751149 26.500336 62.751149 26.500336 
C 62.751149 26.500336 62.751149 26.500336 62.751149 26.500336 
C 62.751149 26.500336 62.751149 26.500336 62.751149 26.500336 
C 62.751149 26.500336 62.751149 26.500336 62.751149 26.500336 
C 62.751149 26.500336 62.751149 26.500336 62.751149 26.500336 
z
" clip-path="url(#p267d76c248)" style="stroke: #000000"/>
    <path d="M 101.449247 171.491627 
C 101.82096 171.491627 102.177499 171.343944 102.44034 171.081103 
C 102.703181 170.818262 102.850864 170.461724 102.850864 170.090011 
C 102.850864 169.718297 102.703181 169.361759 102.44034 169.098918 
C 102.177499 168.836077 101.82096 168.688394 101.449247 168.688394 
C 101.077534 168.688394 100.720995 168.836077 100.458154 169.098918 
C 100.195314 169.361759 100.04763 169.718297 100.04763 170.090011 
C 100.04763 170.461724 100.195314 170.818262 100.458154 171.081103 
C 100.720995 171.343944 101.077534 171.491627 101.449247 171.491627 
z
" clip-path="url(#p267d76c248)" style="stroke: #000000"/>
    <path d="M 98.989776 161.782789 
C 99.409099 161.782789 99.811304 161.61619 100.10781 161.319684 
C 100.404316 161.023178 100.570915 160.620973 100.570915 160.20165 
C 100.570915 159.782328 100.404316 159.380123 100.10781 159.083616 
C 99.811304 158.78711 99.409099 158.620512 98.989776 158.620512 
C 98.570453 158.620512 98.168248 158.78711 97.871742 159.083616 
C 97.575236 159.380123 97.408637 159.782328 97.408637 160.20165 
C 97.408637 160.620973 97.575236 161.023178 97.871742 161.319684 
C 98.168248 161.61619 98.570453 161.782789 98.989776 161.782789 
z
" clip-path="url(#p267d76c248)" style="stroke: #000000"/>
    <path d="M 93.281844 146.79492 
C 93.700642 146.79492 94.102343 146.62853 94.398478 146.332395 
C 94.694613 146.03626 94.861003 145.634559 94.861003 145.215761 
C 94.861003 144.796963 94.694613 144.395262 94.398478 144.099127 
C 94.102343 143.802993 93.700642 143.636602 93.281844 143.636602 
C 92.863046 143.636602 92.461345 143.802993 92.16521 144.099127 
C 91.869076 144.395262 91.702686 144.796963 91.702686 145.215761 
C 91.702686 145.634559 91.869076 146.03626 92.16521 146.332395 
C 92.461345 146.62853 92.863046 146.79492 93.281844 146.79492 
z
" clip-path="url(#p267d76c248)" style="stroke: #000000"/>
    <path d="M 88.366873 142.5599 
C 88.786457 142.5599 89.188913 142.393198 89.485605 142.096506 
C 89.782296 141.799815 89.948999 141.397359 89.948999 140.977774 
C 89.948999 140.55819 89.782296 140.155733 89.485605 139.859042 
C 89.188913 139.562351 88.786457 139.395648 88.366873 139.395648 
C 87.947288 139.395648 87.544832 139.562351 87.24814 139.859042 
C 86.951449 140.155733 86.784746 140.55819 86.784746 140.977774 
C 86.784746 141.397359 86.951449 141.799815 87.24814 142.096506 
C 87.544832 142.393198 87.947288 142.5599 88.366873 142.5599 
z
" clip-path="url(#p267d76c248)" style="stroke: #000000"/>
    <path d="M 81.695535 127.867979 
C 82.074554 127.867979 82.438101 127.717393 82.706108 127.449385 
C 82.974115 127.181378 83.124701 126.817832 83.124701 126.438812 
C 83.124701 126.059793 82.974115 125.696246 82.706108 125.428239 
C 82.438101 125.160232 82.074554 125.009646 81.695535 125.009646 
C 81.316515 125.009646 80.952969 125.160232 80.684961 125.428239 
C 80.416954 125.696246 80.266368 126.059793 80.266368 126.438812 
C 80.266368 126.817832 80.416954 127.181378 80.684961 127.449385 
C 80.952969 127.717393 81.316515 127.867979 81.695535 127.867979 
z
" clip-path="url(#p267d76c248)" style="stroke: #000000"/>
    <path d="M 84.33264 122.663138 
C 84.33264 122.663138 84.33264 122.663138 84.33264 122.663138 
C 84.33264 122.663138 84.33264 122.663138 84.33264 122.663138 
C 84.33264 122.663138 84.33264 122.663138 84.33264 122.663138 
C 84.33264 122.663138 84.33264 122.663138 84.33264 122.663138 
C 84.33264 122.663138 84.33264 122.663138 84.33264 122.663138 
C 84.33264 122.663138 84.33264 122.663138 84.33264 122.663138 
C 84.33264 122.663138 84.33264 122.663138 84.33264 122.663138 
C 84.33264 122.663138 84.33264 122.663138 84.33264 122.663138 
z
" clip-path="url(#p267d76c248)" style="stroke: #000000"/>
    <path d="M 80.355848 109.088694 
C 80.775433 109.088694 81.177889 108.921991 81.47458 108.6253 
C 81.771272 108.328609 81.937974 107.926152 81.937974 107.506568 
C 81.937974 107.086983 81.771272 106.684527 81.47458 106.387836 
C 81.177889 106.091144 80.775433 105.924442 80.355848 105.924442 
C 79.936264 105.924442 79.533807 106.091144 79.237116 106.387836 
C 78.940425 106.684527 78.773722 107.086983 78.773722 107.506568 
C 78.773722 107.926152 78.940425 108.328609 79.237116 108.6253 
C 79.533807 108.921991 79.936264 109.088694 80.355848 109.088694 
z
" clip-path="url(#p267d76c248)" style="stroke: #000000"/>
    <path d="M 76.018082 97.153708 
C 76.41372 97.153708 76.793208 96.996519 77.072966 96.71676 
C 77.352725 96.437002 77.509913 96.057515 77.509913 95.661876 
C 77.509913 95.266238 77.352725 94.88675 77.072966 94.606992 
C 76.793208 94.327233 76.41372 94.170045 76.018082 94.170045 
C 75.622443 94.170045 75.242956 94.327233 74.963198 94.606992 
C 74.683439 94.88675 74.52625 95.266238 74.52625 95.661876 
C 74.52625 96.057515 74.683439 96.437002 74.963198 96.71676 
C 75.242956 96.996519 75.622443 97.153708 76.018082 97.153708 
z
" clip-path="url(#p267d76c248)" style="stroke: #000000"/>
    <path d="M 70.166487 93.73372 
C 70.586072 93.73372 70.988528 93.567017 71.285219 93.270326 
C 71.581911 92.973634 71.748613 92.571178 71.748613 92.151593 
C 71.748613 91.732009 71.581911 91.329553 71.285219 91.032861 
C 70.988528 90.73617 70.586072 90.569467 70.166487 90.569467 
C 69.746903 90.569467 69.344446 90.73617 69.047755 91.032861 
C 68.751064 91.329553 68.584361 91.732009 68.584361 92.151593 
C 68.584361 92.571178 68.751064 92.973634 69.047755 93.270326 
C 69.344446 93.567017 69.746903 93.73372 70.166487 93.73372 
z
" clip-path="url(#p267d76c248)" style="stroke: #000000"/>
    <path d="M 67.224996 79.375103 
C 67.644581 79.375103 68.047037 79.208401 68.343728 78.911709 
C 68.64042 78.615018 68.807122 78.212562 68.807122 77.792977 
C 68.807122 77.373393 68.64042 76.970936 68.343728 76.674245 
C 68.047037 76.377554 67.644581 76.210851 67.224996 76.210851 
C 66.805412 76.210851 66.402955 76.377554 66.106264 76.674245 
C 65.809573 76.970936 65.64287 77.373393 65.64287 77.792977 
C 65.64287 78.212562 65.809573 78.615018 66.106264 78.911709 
C 66.402955 79.208401 66.805412 79.375103 67.224996 79.375103 
z
" clip-path="url(#p267d76c248)" style="stroke: #000000"/>
    <path d="M 62.75548 68.918963 
C 63.174803 68.918963 63.577008 68.752364 63.873514 68.455858 
C 64.17002 68.159352 64.336618 67.757147 64.336618 67.337824 
C 64.336618 66.918501 64.17002 66.516296 63.873514 66.21979 
C 63.577008 65.923284 63.174803 65.756686 62.75548 65.756686 
C 62.336157 65.756686 61.933952 65.923284 61.637446 66.21979 
C 61.34094 66.516296 61.174341 66.918501 61.174341 67.337824 
C 61.174341 67.757147 61.34094 68.159352 61.637446 68.455858 
C 61.933952 68.752364 62.336157 68.918963 62.75548 68.918963 
z
" clip-path="url(#p267d76c248)" style="stroke: #000000"/>
    <path d="M 57.358399 60.262556 
C 57.777721 60.262556 58.179926 60.095958 58.476433 59.799452 
C 58.772939 59.502945 58.939537 59.10074 58.939537 58.681418 
C 58.939537 58.262095 58.772939 57.85989 58.476433 57.563384 
C 58.179926 57.266877 57.777721 57.100279 57.358399 57.100279 
C 56.939076 57.100279 56.536871 57.266877 56.240365 57.563384 
C 55.943858 57.85989 55.77726 58.262095 55.77726 58.681418 
C 55.77726 59.10074 55.943858 59.502945 56.240365 59.799452 
C 56.536871 60.095958 56.939076 60.262556 57.358399 60.262556 
z
" clip-path="url(#p267d76c248)" style="stroke: #000000"/>
    <path d="M 56.532314 49.170052 
C 56.532314 49.170052 56.532314 49.170052 56.532314 49.170052 
C 56.532314 49.170052 56.532314 49.170052 56.532314 49.170052 
C 56.532314 49.170052 56.532314 49.170052 56.532314 49.170052 
C 56.532314 49.170052 56.532314 49.170052 56.532314 49.170052 
C 56.532314 49.170052 56.532314 49.170052 56.532314 49.170052 
C 56.532314 49.170052 56.532314 49.170052 56.532314 49.170052 
C 56.532314 49.170052 56.532314 49.170052 56.532314 49.170052 
C 56.532314 49.170052 56.532314 49.170052 56.532314 49.170052 
z
" clip-path="url(#p267d76c248)" style="stroke: #000000"/>
    <path d="M 54.225867 35.40753 
C 54.225867 35.40753 54.225867 35.40753 54.225867 35.40753 
C 54.225867 35.40753 54.225867 35.40753 54.225867 35.40753 
C 54.225867 35.40753 54.225867 35.40753 54.225867 35.40753 
C 54.225867 35.40753 54.225867 35.40753 54.225867 35.40753 
C 54.225867 35.40753 54.225867 35.40753 54.225867 35.40753 
C 54.225867 35.40753 54.225867 35.40753 54.225867 35.40753 
C 54.225867 35.40753 54.225867 35.40753 54.225867 35.40753 
C 54.225867 35.40753 54.225867 35.40753 54.225867 35.40753 
z
" clip-path="url(#p267d76c248)" style="stroke: #000000"/>
    <path d="M 89.898169 172.938453 
C 90.303725 172.938453 90.692725 172.777324 90.979496 172.490553 
C 91.266267 172.203782 91.427396 171.814782 91.427396 171.409226 
C 91.427396 171.00367 91.266267 170.61467 90.979496 170.327899 
C 90.692725 170.041128 90.303725 169.879999 89.898169 169.879999 
C 89.492613 169.879999 89.103613 170.041128 88.816842 170.327899 
C 88.530071 170.61467 88.368942 171.00367 88.368942 171.409226 
C 88.368942 171.814782 88.530071 172.203782 88.816842 172.490553 
C 89.103613 172.777324 89.492613 172.938453 89.898169 172.938453 
z
" clip-path="url(#p267d76c248)" style="stroke: #000000"/>
    <path d="M 87.40572 164.477382 
C 87.698449 164.477382 87.979227 164.36108 88.186217 164.15409 
C 88.393207 163.9471 88.509509 163.666322 88.509509 163.373594 
C 88.509509 163.080865 88.393207 162.800087 88.186217 162.593097 
C 87.979227 162.386107 87.698449 162.269805 87.40572 162.269805 
C 87.112992 162.269805 86.832214 162.386107 86.625224 162.593097 
C 86.418234 162.800087 86.301932 163.080865 86.301932 163.373594 
C 86.301932 163.666322 86.418234 163.9471 86.625224 164.15409 
C 86.832214 164.36108 87.112992 164.477382 87.40572 164.477382 
z
" clip-path="url(#p267d76c248)" style="stroke: #000000"/>
    <path d="M 82.369231 158.524759 
C 82.788554 158.524759 83.190759 158.35816 83.487265 158.061654 
C 83.783771 157.765148 83.95037 157.362943 83.95037 156.94362 
C 83.95037 156.524297 83.783771 156.122092 83.487265 155.825586 
C 83.190759 155.52908 82.788554 155.362481 82.369231 155.362481 
C 81.949908 155.362481 81.547703 155.52908 81.251197 155.825586 
C 80.954691 156.122092 80.788092 156.524297 80.788092 156.94362 
C 80.788092 157.362943 80.954691 157.765148 81.251197 158.061654 
C 81.547703 158.35816 81.949908 158.524759 82.369231 158.524759 
z
" clip-path="url(#p267d76c248)" style="stroke: #000000"/>
    <path d="M 80.903471 145.227706 
C 81.323056 145.227706 81.725512 145.061003 82.022204 144.764312 
C 82.318895 144.46762 82.485598 144.065164 82.485598 143.64558 
C 82.485598 143.225995 82.318895 142.823539 82.022204 142.526847 
C 81.725512 142.230156 81.323056 142.063453 80.903471 142.063453 
C 80.483887 142.063453 80.081431 142.230156 79.784739 142.526847 
C 79.488048 142.823539 79.321345 143.225995 79.321345 143.64558 
C 79.321345 144.065164 79.488048 144.46762 79.784739 144.764312 
C 80.081431 145.061003 80.483887 145.227706 80.903471 145.227706 
z
" clip-path="url(#p267d76c248)" style="stroke: #000000"/>
    <path d="M 78.438 135.026924 
C 78.438 135.026924 78.438 135.026924 78.438 135.026924 
C 78.438 135.026924 78.438 135.026924 78.438 135.026924 
C 78.438 135.026924 78.438 135.026924 78.438 135.026924 
C 78.438 135.026924 78.438 135.026924 78.438 135.026924 
C 78.438 135.026924 78.438 135.026924 78.438 135.026924 
C 78.438 135.026924 78.438 135.026924 78.438 135.026924 
C 78.438 135.026924 78.438 135.026924 78.438 135.026924 
C 78.438 135.026924 78.438 135.026924 78.438 135.026924 
z
" clip-path="url(#p267d76c248)" style="stroke: #000000"/>
    <path d="M 70.048091 126.117169 
C 70.467675 126.117169 70.870132 125.950466 71.166823 125.653775 
C 71.463514 125.357084 71.630217 124.954628 71.630217 124.535043 
C 71.630217 124.115458 71.463514 123.713002 71.166823 123.416311 
C 70.870132 123.11962 70.467675 122.952917 70.048091 122.952917 
C 69.628506 122.952917 69.22605 123.11962 68.929359 123.416311 
C 68.632667 123.713002 68.465965 124.115458 68.465965 124.535043 
C 68.465965 124.954628 68.632667 125.357084 68.929359 125.653775 
C 69.22605 125.950466 69.628506 126.117169 70.048091 126.117169 
z
" clip-path="url(#p267d76c248)" style="stroke: #000000"/>
    <path d="M 68.201806 120.267355 
C 68.621391 120.267355 69.023847 120.100653 69.320538 119.803961 
C 69.617229 119.50727 69.783932 119.104814 69.783932 118.685229 
C 69.783932 118.265645 69.617229 117.863188 69.320538 117.566497 
C 69.023847 117.269806 68.621391 117.103103 68.201806 117.103103 
C 67.782221 117.103103 67.379765 117.269806 67.083074 117.566497 
C 66.786383 117.863188 66.61968 118.265645 66.61968 118.685229 
C 66.61968 119.104814 66.786383 119.50727 67.083074 119.803961 
C 67.379765 120.100653 67.782221 120.267355 68.201806 120.267355 
z
" clip-path="url(#p267d76c248)" style="stroke: #000000"/>
    <path d="M 64.585491 98.880617 
C 65.005076 98.880617 65.407532 98.713914 65.704223 98.417223 
C 66.000914 98.120532 66.167617 97.718076 66.167617 97.298491 
C 66.167617 96.878906 66.000914 96.47645 65.704223 96.179759 
C 65.407532 95.883068 65.005076 95.716365 64.585491 95.716365 
C 64.165906 95.716365 63.76345 95.883068 63.466759 96.179759 
C 63.170068 96.47645 63.003365 96.878906 63.003365 97.298491 
C 63.003365 97.718076 63.170068 98.120532 63.466759 98.417223 
C 63.76345 98.713914 64.165906 98.880617 64.585491 98.880617 
z
" clip-path="url(#p267d76c248)" style="stroke: #000000"/>
    <path d="M 61.823988 96.631038 
C 61.917751 96.631038 62.007687 96.593786 62.073988 96.527485 
C 62.140289 96.461184 62.177541 96.371248 62.177541 96.277485 
C 62.177541 96.183721 62.140289 96.093786 62.073988 96.027485 
C 62.007687 95.961184 61.917751 95.923931 61.823988 95.923931 
C 61.730224 95.923931 61.640289 95.961184 61.573988 96.027485 
C 61.507687 96.093786 61.470434 96.183721 61.470434 96.277485 
C 61.470434 96.371248 61.507687 96.461184 61.573988 96.527485 
C 61.640289 96.593786 61.730224 96.631038 61.823988 96.631038 
z
" clip-path="url(#p267d76c248)" style="stroke: #000000"/>
    <path d="M 61.243886 81.981127 
C 61.547542 81.981127 61.838802 81.860483 62.053519 81.645766 
C 62.268236 81.431048 62.38888 81.139789 62.38888 80.836133 
C 62.38888 80.532477 62.268236 80.241217 62.053519 80.0265 
C 61.838802 79.811782 61.547542 79.691139 61.243886 79.691139 
C 60.94023 79.691139 60.64897 79.811782 60.434253 80.0265 
C 60.219536 80.241217 60.098892 80.532477 60.098892 80.836133 
C 60.098892 81.139789 60.219536 81.431048 60.434253 81.645766 
C 60.64897 81.860483 60.94023 81.981127 61.243886 81.981127 
z
" clip-path="url(#p267d76c248)" style="stroke: #000000"/>
    <path d="M 54.484757 72.024395 
C 54.90408 72.024395 55.306285 71.857796 55.602791 71.56129 
C 55.899297 71.264784 56.065896 70.862579 56.065896 70.443256 
C 56.065896 70.023933 55.899297 69.621728 55.602791 69.325222 
C 55.306285 69.028716 54.90408 68.862117 54.484757 68.862117 
C 54.065434 68.862117 53.663229 69.028716 53.366723 69.325222 
C 53.070217 69.621728 52.903618 70.023933 52.903618 70.443256 
C 52.903618 70.862579 53.070217 71.264784 53.366723 71.56129 
C 53.663229 71.857796 54.065434 72.024395 54.484757 72.024395 
z
" clip-path="url(#p267d76c248)" style="stroke: #000000"/>
    <path d="M 44.871058 60.400266 
C 44.871058 60.400266 44.871058 60.400266 44.871058 60.400266 
C 44.871058 60.400266 44.871058 60.400266 44.871058 60.400266 
C 44.871058 60.400266 44.871058 60.400266 44.871058 60.400266 
C 44.871058 60.400266 44.871058 60.400266 44.871058 60.400266 
C 44.871058 60.400266 44.871058 60.400266 44.871058 60.400266 
C 44.871058 60.400266 44.871058 60.400266 44.871058 60.400266 
C 44.871058 60.400266 44.871058 60.400266 44.871058 60.400266 
C 44.871058 60.400266 44.871058 60.400266 44.871058 60.400266 
z
" clip-path="url(#p267d76c248)" style="stroke: #000000"/>
    <path d="M 46.143884 50.157376 
C 46.143884 50.157376 46.143884 50.157376 46.143884 50.157376 
C 46.143884 50.157376 46.143884 50.157376 46.143884 50.157376 
C 46.143884 50.157376 46.143884 50.157376 46.143884 50.157376 
C 46.143884 50.157376 46.143884 50.157376 46.143884 50.157376 
C 46.143884 50.157376 46.143884 50.157376 46.143884 50.157376 
C 46.143884 50.157376 46.143884 50.157376 46.143884 50.157376 
C 46.143884 50.157376 46.143884 50.157376 46.143884 50.157376 
C 46.143884 50.157376 46.143884 50.157376 46.143884 50.157376 
z
" clip-path="url(#p267d76c248)" style="stroke: #000000"/>
    <path d="M 78.57355 179.318637 
C 78.57355 179.318637 78.57355 179.318637 78.57355 179.318637 
C 78.57355 179.318637 78.57355 179.318637 78.57355 179.318637 
C 78.57355 179.318637 78.57355 179.318637 78.57355 179.318637 
C 78.57355 179.318637 78.57355 179.318637 78.57355 179.318637 
C 78.57355 179.318637 78.57355 179.318637 78.57355 179.318637 
C 78.57355 179.318637 78.57355 179.318637 78.57355 179.318637 
C 78.57355 179.318637 78.57355 179.318637 78.57355 179.318637 
C 78.57355 179.318637 78.57355 179.318637 78.57355 179.318637 
z
" clip-path="url(#p267d76c248)" style="stroke: #000000"/>
    <path d="M 77.07688 169.133203 
C 77.294467 169.133203 77.503171 169.046754 77.657029 168.892897 
C 77.810886 168.73904 77.897334 168.530335 77.897334 168.312748 
C 77.897334 168.095161 77.810886 167.886457 77.657029 167.732599 
C 77.503171 167.578742 77.294467 167.492294 77.07688 167.492294 
C 76.859293 167.492294 76.650588 167.578742 76.496731 167.732599 
C 76.342873 167.886457 76.256425 168.095161 76.256425 168.312748 
C 76.256425 168.530335 76.342873 168.73904 76.496731 168.892897 
C 76.650588 169.046754 76.859293 169.133203 77.07688 169.133203 
z
" clip-path="url(#p267d76c248)" style="stroke: #000000"/>
    <path d="M 71.499327 160.861392 
C 71.91865 160.861392 72.320855 160.694793 72.617361 160.398287 
C 72.913867 160.101781 73.080466 159.699576 73.080466 159.280253 
C 73.080466 158.86093 72.913867 158.458725 72.617361 158.162219 
C 72.320855 157.865713 71.91865 157.699114 71.499327 157.699114 
C 71.080004 157.699114 70.677799 157.865713 70.381293 158.162219 
C 70.084787 158.458725 69.918188 158.86093 69.918188 159.280253 
C 69.918188 159.699576 70.084787 160.101781 70.381293 160.398287 
C 70.677799 160.694793 71.080004 160.861392 71.499327 160.861392 
z
" clip-path="url(#p267d76c248)" style="stroke: #000000"/>
    <path d="M 65.107471 148.168327 
C 65.526794 148.168327 65.928999 148.001728 66.225505 147.705222 
C 66.522011 147.408716 66.68861 147.006511 66.68861 146.587188 
C 66.68861 146.167865 66.522011 145.76566 66.225505 145.469154 
C 65.928999 145.172648 65.526794 145.006049 65.107471 145.006049 
C 64.688148 145.006049 64.285943 145.172648 63.989437 145.469154 
C 63.692931 145.76566 63.526332 146.167865 63.526332 146.587188 
C 63.526332 147.006511 63.692931 147.408716 63.989437 147.705222 
C 64.285943 148.001728 64.688148 148.168327 65.107471 148.168327 
z
" clip-path="url(#p267d76c248)" style="stroke: #000000"/>
    <path d="M 66.942893 137.752434 
C 66.942893 137.752434 66.942893 137.752434 66.942893 137.752434 
C 66.942893 137.752434 66.942893 137.752434 66.942893 137.752434 
C 66.942893 137.752434 66.942893 137.752434 66.942893 137.752434 
C 66.942893 137.752434 66.942893 137.752434 66.942893 137.752434 
C 66.942893 137.752434 66.942893 137.752434 66.942893 137.752434 
C 66.942893 137.752434 66.942893 137.752434 66.942893 137.752434 
C 66.942893 137.752434 66.942893 137.752434 66.942893 137.752434 
C 66.942893 137.752434 66.942893 137.752434 66.942893 137.752434 
z
" clip-path="url(#p267d76c248)" style="stroke: #000000"/>
    <path d="M 61.780049 122.222756 
C 61.780049 122.222756 61.780049 122.222756 61.780049 122.222756 
C 61.780049 122.222756 61.780049 122.222756 61.780049 122.222756 
C 61.780049 122.222756 61.780049 122.222756 61.780049 122.222756 
C 61.780049 122.222756 61.780049 122.222756 61.780049 122.222756 
C 61.780049 122.222756 61.780049 122.222756 61.780049 122.222756 
C 61.780049 122.222756 61.780049 122.222756 61.780049 122.222756 
C 61.780049 122.222756 61.780049 122.222756 61.780049 122.222756 
C 61.780049 122.222756 61.780049 122.222756 61.780049 122.222756 
z
" clip-path="url(#p267d76c248)" style="stroke: #000000"/>
    <path d="M 55.022824 118.420746 
C 55.442409 118.420746 55.844865 118.254043 56.141556 117.957352 
C 56.438247 117.660661 56.60495 117.258205 56.60495 116.83862 
C 56.60495 116.419035 56.438247 116.016579 56.141556 115.719888 
C 55.844865 115.423197 55.442409 115.256494 55.022824 115.256494 
C 54.603239 115.256494 54.200783 115.423197 53.904092 115.719888 
C 53.607401 116.016579 53.440698 116.419035 53.440698 116.83862 
C 53.440698 117.258205 53.607401 117.660661 53.904092 117.957352 
C 54.200783 118.254043 54.603239 118.420746 55.022824 118.420746 
z
" clip-path="url(#p267d76c248)" style="stroke: #000000"/>
    <path d="M 53.273084 107.747098 
C 53.671807 107.747098 54.054252 107.588684 54.336191 107.306745 
C 54.618131 107.024805 54.776545 106.64236 54.776545 106.243638 
C 54.776545 105.844915 54.618131 105.46247 54.336191 105.180531 
C 54.054252 104.898591 53.671807 104.740177 53.273084 104.740177 
C 52.874362 104.740177 52.491917 104.898591 52.209978 105.180531 
C 51.928038 105.46247 51.769624 105.844915 51.769624 106.243638 
C 51.769624 106.64236 51.928038 107.024805 52.209978 107.306745 
C 52.491917 107.588684 52.874362 107.747098 53.273084 107.747098 
z
" clip-path="url(#p267d76c248)" style="stroke: #000000"/>
    <path d="M 52.647451 96.732359 
C 53.006073 96.732359 53.350055 96.589877 53.603639 96.336293 
C 53.857223 96.082709 53.999705 95.738727 53.999705 95.380104 
C 53.999705 95.021482 53.857223 94.6775 53.603639 94.423916 
C 53.350055 94.170332 53.006073 94.02785 52.647451 94.02785 
C 52.288829 94.02785 51.944847 94.170332 51.691262 94.423916 
C 51.437678 94.6775 51.295196 95.021482 51.295196 95.380104 
C 51.295196 95.738727 51.437678 96.082709 51.691262 96.336293 
C 51.944847 96.589877 52.288829 96.732359 52.647451 96.732359 
z
" clip-path="url(#p267d76c248)" style="stroke: #000000"/>
    <path d="M 47.416118 85.52382 
C 47.835441 85.52382 48.237646 85.357221 48.534152 85.060715 
C 48.830658 84.764209 48.997256 84.362004 48.997256 83.942681 
C 48.997256 83.523358 48.830658 83.121153 48.534152 82.824647 
C 48.237646 82.528141 47.835441 82.361542 47.416118 82.361542 
C 46.996795 82.361542 46.59459 82.528141 46.298084 82.824647 
C 46.001578 83.121153 45.834979 83.523358 45.834979 83.942681 
C 45.834979 84.362004 46.001578 84.764209 46.298084 85.060715 
C 46.59459 85.357221 46.996795 85.52382 47.416118 85.52382 
z
" clip-path="url(#p267d76c248)" style="stroke: #000000"/>
    <path d="M 41.817088 76.510524 
C 42.208284 76.510524 42.58351 76.3551 42.860127 76.078483 
C 43.136744 75.801866 43.292168 75.42664 43.292168 75.035444 
C 43.292168 74.644248 43.136744 74.269022 42.860127 73.992405 
C 42.58351 73.715787 42.208284 73.560364 41.817088 73.560364 
C 41.425892 73.560364 41.050666 73.715787 40.774048 73.992405 
C 40.497431 74.269022 40.342007 74.644248 40.342007 75.035444 
C 40.342007 75.42664 40.497431 75.801866 40.774048 76.078483 
C 41.050666 76.3551 41.425892 76.510524 41.817088 76.510524 
z
" clip-path="url(#p267d76c248)" style="stroke: #000000"/>
    <path d="M 39.817021 64.963856 
C 39.817021 64.963856 39.817021 64.963856 39.817021 64.963856 
C 39.817021 64.963856 39.817021 64.963856 39.817021 64.963856 
C 39.817021 64.963856 39.817021 64.963856 39.817021 64.963856 
C 39.817021 64.963856 39.817021 64.963856 39.817021 64.963856 
C 39.817021 64.963856 39.817021 64.963856 39.817021 64.963856 
C 39.817021 64.963856 39.817021 64.963856 39.817021 64.963856 
C 39.817021 64.963856 39.817021 64.963856 39.817021 64.963856 
C 39.817021 64.963856 39.817021 64.963856 39.817021 64.963856 
z
" clip-path="url(#p267d76c248)" style="stroke: #000000"/>
    <path d="M 65.458088 172.968782 
C 65.620491 172.968782 65.776264 172.904258 65.8911 172.789422 
C 66.005937 172.674586 66.07046 172.518812 66.07046 172.356409 
C 66.07046 172.194006 66.005937 172.038233 65.8911 171.923397 
C 65.776264 171.80856 65.620491 171.744037 65.458088 171.744037 
C 65.295685 171.744037 65.139911 171.80856 65.025075 171.923397 
C 64.910239 172.038233 64.845715 172.194006 64.845715 172.356409 
C 64.845715 172.518812 64.910239 172.674586 65.025075 172.789422 
C 65.139911 172.904258 65.295685 172.968782 65.458088 172.968782 
z
" clip-path="url(#p267d76c248)" style="stroke: #000000"/>
    <path d="M 60.095008 160.88638 
C 60.095008 160.88638 60.095008 160.88638 60.095008 160.88638 
C 60.095008 160.88638 60.095008 160.88638 60.095008 160.88638 
C 60.095008 160.88638 60.095008 160.88638 60.095008 160.88638 
C 60.095008 160.88638 60.095008 160.88638 60.095008 160.88638 
C 60.095008 160.88638 60.095008 160.88638 60.095008 160.88638 
C 60.095008 160.88638 60.095008 160.88638 60.095008 160.88638 
C 60.095008 160.88638 60.095008 160.88638 60.095008 160.88638 
C 60.095008 160.88638 60.095008 160.88638 60.095008 160.88638 
z
" clip-path="url(#p267d76c248)" style="stroke: #000000"/>
    <path d="M 60.091198 151.346019 
C 60.091198 151.346019 60.091198 151.346019 60.091198 151.346019 
C 60.091198 151.346019 60.091198 151.346019 60.091198 151.346019 
C 60.091198 151.346019 60.091198 151.346019 60.091198 151.346019 
C 60.091198 151.346019 60.091198 151.346019 60.091198 151.346019 
C 60.091198 151.346019 60.091198 151.346019 60.091198 151.346019 
C 60.091198 151.346019 60.091198 151.346019 60.091198 151.346019 
C 60.091198 151.346019 60.091198 151.346019 60.091198 151.346019 
C 60.091198 151.346019 60.091198 151.346019 60.091198 151.346019 
z
" clip-path="url(#p267d76c248)" style="stroke: #000000"/>
    <path d="M 54.343123 141.339873 
C 54.762707 141.339873 55.165164 141.17317 55.461855 140.876479 
C 55.758546 140.579788 55.925249 140.177332 55.925249 139.757747 
C 55.925249 139.338162 55.758546 138.935706 55.461855 138.639015 
C 55.165164 138.342324 54.762707 138.175621 54.343123 138.175621 
C 53.923538 138.175621 53.521082 138.342324 53.224391 138.639015 
C 52.927699 138.935706 52.760997 139.338162 52.760997 139.757747 
C 52.760997 140.177332 52.927699 140.579788 53.224391 140.876479 
C 53.521082 141.17317 53.923538 141.339873 54.343123 141.339873 
z
" clip-path="url(#p267d76c248)" style="stroke: #000000"/>
    <path d="M 50.488098 134.27926 
C 50.488098 134.27926 50.488098 134.27926 50.488098 134.27926 
C 50.488098 134.27926 50.488098 134.27926 50.488098 134.27926 
C 50.488098 134.27926 50.488098 134.27926 50.488098 134.27926 
C 50.488098 134.27926 50.488098 134.27926 50.488098 134.27926 
C 50.488098 134.27926 50.488098 134.27926 50.488098 134.27926 
C 50.488098 134.27926 50.488098 134.27926 50.488098 134.27926 
C 50.488098 134.27926 50.488098 134.27926 50.488098 134.27926 
C 50.488098 134.27926 50.488098 134.27926 50.488098 134.27926 
z
" clip-path="url(#p267d76c248)" style="stroke: #000000"/>
    <path d="M 47.151233 118.126893 
C 47.151233 118.126893 47.151233 118.126893 47.151233 118.126893 
C 47.151233 118.126893 47.151233 118.126893 47.151233 118.126893 
C 47.151233 118.126893 47.151233 118.126893 47.151233 118.126893 
C 47.151233 118.126893 47.151233 118.126893 47.151233 118.126893 
C 47.151233 118.126893 47.151233 118.126893 47.151233 118.126893 
C 47.151233 118.126893 47.151233 118.126893 47.151233 118.126893 
C 47.151233 118.126893 47.151233 118.126893 47.151233 118.126893 
C 47.151233 118.126893 47.151233 118.126893 47.151233 118.126893 
z
" clip-path="url(#p267d76c248)" style="stroke: #000000"/>
    <path d="M 45.97072 109.717491 
C 46.390043 109.717491 46.792248 109.550893 47.088754 109.254387 
C 47.38526 108.957881 47.551859 108.555676 47.551859 108.136353 
C 47.551859 107.71703 47.38526 107.314825 47.088754 107.018319 
C 46.792248 106.721813 46.390043 106.555214 45.97072 106.555214 
C 45.551397 106.555214 45.149192 106.721813 44.852686 107.018319 
C 44.55618 107.314825 44.389581 107.71703 44.389581 108.136353 
C 44.389581 108.555676 44.55618 108.957881 44.852686 109.254387 
C 45.149192 109.550893 45.551397 109.717491 45.97072 109.717491 
z
" clip-path="url(#p267d76c248)" style="stroke: #000000"/>
    <path d="M 38.525851 98.988893 
C 38.945435 98.988893 39.347892 98.82219 39.644583 98.525499 
C 39.941274 98.228808 40.107977 97.826352 40.107977 97.406767 
C 40.107977 96.987182 39.941274 96.584726 39.644583 96.288035 
C 39.347892 95.991343 38.945435 95.824641 38.525851 95.824641 
C 38.106266 95.824641 37.70381 95.991343 37.407119 96.288035 
C 37.110427 96.584726 36.943725 96.987182 36.943725 97.406767 
C 36.943725 97.826352 37.110427 98.228808 37.407119 98.525499 
C 37.70381 98.82219 38.106266 98.988893 38.525851 98.988893 
z
" clip-path="url(#p267d76c248)" style="stroke: #000000"/>
    <path d="M 37.924672 93.017107 
C 38.343995 93.017107 38.7462 92.850508 39.042706 92.554002 
C 39.339212 92.257496 39.505811 91.855291 39.505811 91.435968 
C 39.505811 91.016645 39.339212 90.61444 39.042706 90.317934 
C 38.7462 90.021428 38.343995 89.854829 37.924672 89.854829 
C 37.505349 89.854829 37.103144 90.021428 36.806638 90.317934 
C 36.510132 90.61444 36.343533 91.016645 36.343533 91.435968 
C 36.343533 91.855291 36.510132 92.257496 36.806638 92.554002 
C 37.103144 92.850508 37.505349 93.017107 37.924672 93.017107 
z
" clip-path="url(#p267d76c248)" style="stroke: #000000"/>
    <path d="M 33.939449 77.992378 
C 33.939449 77.992378 33.939449 77.992378 33.939449 77.992378 
C 33.939449 77.992378 33.939449 77.992378 33.939449 77.992378 
C 33.939449 77.992378 33.939449 77.992378 33.939449 77.992378 
C 33.939449 77.992378 33.939449 77.992378 33.939449 77.992378 
C 33.939449 77.992378 33.939449 77.992378 33.939449 77.992378 
C 33.939449 77.992378 33.939449 77.992378 33.939449 77.992378 
C 33.939449 77.992378 33.939449 77.992378 33.939449 77.992378 
C 33.939449 77.992378 33.939449 77.992378 33.939449 77.992378 
z
" clip-path="url(#p267d76c248)" style="stroke: #000000"/>
    <path d="M 55.730856 175.958632 
C 55.730856 175.958632 55.730856 175.958632 55.730856 175.958632 
C 55.730856 175.958632 55.730856 175.958632 55.730856 175.958632 
C 55.730856 175.958632 55.730856 175.958632 55.730856 175.958632 
C 55.730856 175.958632 55.730856 175.958632 55.730856 175.958632 
C 55.730856 175.958632 55.730856 175.958632 55.730856 175.958632 
C 55.730856 175.958632 55.730856 175.958632 55.730856 175.958632 
C 55.730856 175.958632 55.730856 175.958632 55.730856 175.958632 
C 55.730856 175.958632 55.730856 175.958632 55.730856 175.958632 
z
" clip-path="url(#p267d76c248)" style="stroke: #000000"/>
    <path d="M 48.752793 162.726024 
C 48.752793 162.726024 48.752793 162.726024 48.752793 162.726024 
C 48.752793 162.726024 48.752793 162.726024 48.752793 162.726024 
C 48.752793 162.726024 48.752793 162.726024 48.752793 162.726024 
C 48.752793 162.726024 48.752793 162.726024 48.752793 162.726024 
C 48.752793 162.726024 48.752793 162.726024 48.752793 162.726024 
C 48.752793 162.726024 48.752793 162.726024 48.752793 162.726024 
C 48.752793 162.726024 48.752793 162.726024 48.752793 162.726024 
C 48.752793 162.726024 48.752793 162.726024 48.752793 162.726024 
z
" clip-path="url(#p267d76c248)" style="stroke: #000000"/>
    <path d="M 48.04978 151.326935 
C 48.409652 151.326935 48.754834 151.183956 49.009302 150.929488 
C 49.26377 150.67502 49.406749 150.329839 49.406749 149.969966 
C 49.406749 149.610094 49.26377 149.264912 49.009302 149.010444 
C 48.754834 148.755976 48.409652 148.612997 48.04978 148.612997 
C 47.689907 148.612997 47.344726 148.755976 47.090258 149.010444 
C 46.83579 149.264912 46.692811 149.610094 46.692811 149.969966 
C 46.692811 150.329839 46.83579 150.67502 47.090258 150.929488 
C 47.344726 151.183956 47.689907 151.326935 48.04978 151.326935 
z
" clip-path="url(#p267d76c248)" style="stroke: #000000"/>
    <path d="M 43.116643 146.362443 
C 43.491697 146.362443 43.85144 146.213433 44.116643 145.94823 
C 44.381846 145.683027 44.530857 145.323283 44.530857 144.94823 
C 44.530857 144.573176 44.381846 144.213433 44.116643 143.94823 
C 43.85144 143.683027 43.491697 143.534016 43.116643 143.534016 
C 42.741589 143.534016 42.381846 143.683027 42.116643 143.94823 
C 41.85144 144.213433 41.70243 144.573176 41.70243 144.94823 
C 41.70243 145.323283 41.85144 145.683027 42.116643 145.94823 
C 42.381846 146.213433 42.741589 146.362443 43.116643 146.362443 
z
" clip-path="url(#p267d76c248)" style="stroke: #000000"/>
    <path d="M 39.752926 136.480125 
C 40.160494 136.480125 40.551425 136.318196 40.839619 136.030001 
C 41.127814 135.741807 41.289742 135.350877 41.289742 134.943308 
C 41.289742 134.535739 41.127814 134.144809 40.839619 133.856615 
C 40.551425 133.56842 40.160494 133.406491 39.752926 133.406491 
C 39.345357 133.406491 38.954427 133.56842 38.666232 133.856615 
C 38.378038 134.144809 38.216109 134.535739 38.216109 134.943308 
C 38.216109 135.350877 38.378038 135.741807 38.666232 136.030001 
C 38.954427 136.318196 39.345357 136.480125 39.752926 136.480125 
z
" clip-path="url(#p267d76c248)" style="stroke: #000000"/>
    <path d="M 38.512639 124.281076 
C 38.932224 124.281076 39.33468 124.114373 39.631371 123.817682 
C 39.928062 123.520991 40.094765 123.118534 40.094765 122.69895 
C 40.094765 122.279365 39.928062 121.876909 39.631371 121.580218 
C 39.33468 121.283526 38.932224 121.116824 38.512639 121.116824 
C 38.093054 121.116824 37.690598 121.283526 37.393907 121.580218 
C 37.097216 121.876909 36.930513 122.279365 36.930513 122.69895 
C 36.930513 123.118534 37.097216 123.520991 37.393907 123.817682 
C 37.690598 124.114373 38.093054 124.281076 38.512639 124.281076 
z
" clip-path="url(#p267d76c248)" style="stroke: #000000"/>
    <path d="M 30.552517 111.709365 
C 30.963746 111.709365 31.358188 111.545982 31.648971 111.255199 
C 31.939754 110.964416 32.103137 110.569974 32.103137 110.158745 
C 32.103137 109.747516 31.939754 109.353074 31.648971 109.062291 
C 31.358188 108.771508 30.963746 108.608125 30.552517 108.608125 
C 30.141288 108.608125 29.746846 108.771508 29.456063 109.062291 
C 29.16528 109.353074 29.001897 109.747516 29.001897 110.158745 
C 29.001897 110.569974 29.16528 110.964416 29.456063 111.255199 
C 29.746846 111.545982 30.141288 111.709365 30.552517 111.709365 
z
" clip-path="url(#p267d76c248)" style="stroke: #000000"/>
    <path d="M 30.008709 105.201012 
C 30.428032 105.201012 30.830237 105.034413 31.126743 104.737907 
C 31.423249 104.441401 31.589848 104.039196 31.589848 103.619873 
C 31.589848 103.20055 31.423249 102.798345 31.126743 102.501839 
C 30.830237 102.205333 30.428032 102.038735 30.008709 102.038735 
C 29.589386 102.038735 29.187181 102.205333 28.890675 102.501839 
C 28.594169 102.798345 28.42757 103.20055 28.42757 103.619873 
C 28.42757 104.039196 28.594169 104.441401 28.890675 104.737907 
C 29.187181 105.034413 29.589386 105.201012 30.008709 105.201012 
z
" clip-path="url(#p267d76c248)" style="stroke: #000000"/>
    <path d="M 30.609248 94.543336 
C 31.028571 94.543336 31.430776 94.376737 31.727282 94.080231 
C 32.023788 93.783725 32.190387 93.38152 32.190387 92.962197 
C 32.190387 92.542874 32.023788 92.140669 31.727282 91.844163 
C 31.430776 91.547657 31.028571 91.381058 30.609248 91.381058 
C 30.189925 91.381058 29.78772 91.547657 29.491214 91.844163 
C 29.194708 92.140669 29.028109 92.542874 29.028109 92.962197 
C 29.028109 93.38152 29.194708 93.783725 29.491214 94.080231 
C 29.78772 94.376737 30.189925 94.543336 30.609248 94.543336 
z
" clip-path="url(#p267d76c248)" style="stroke: #000000"/>
    <path d="M 45.645526 176.867938 
C 45.739289 176.867938 45.829225 176.830685 45.895526 176.764384 
C 45.961827 176.698084 45.999079 176.608148 45.999079 176.514384 
C 45.999079 176.420621 45.961827 176.330685 45.895526 176.264384 
C 45.829225 176.198084 45.739289 176.160831 45.645526 176.160831 
C 45.551762 176.160831 45.461827 176.198084 45.395526 176.264384 
C 45.329225 176.330685 45.291972 176.420621 45.291972 176.514384 
C 45.291972 176.608148 45.329225 176.698084 45.395526 176.764384 
C 45.461827 176.830685 45.551762 176.867938 45.645526 176.867938 
z
" clip-path="url(#p267d76c248)" style="stroke: #000000"/>
    <path d="M 39.136975 170.41406 
C 39.260375 170.41406 39.378737 170.365032 39.465993 170.277776 
C 39.55325 170.190519 39.602277 170.072157 39.602277 169.948757 
C 39.602277 169.825358 39.55325 169.706995 39.465993 169.619739 
C 39.378737 169.532482 39.260375 169.483455 39.136975 169.483455 
C 39.013575 169.483455 38.895213 169.532482 38.807956 169.619739 
C 38.7207 169.706995 38.671673 169.825358 38.671673 169.948757 
C 38.671673 170.072157 38.7207 170.190519 38.807956 170.277776 
C 38.895213 170.365032 39.013575 170.41406 39.136975 170.41406 
z
" clip-path="url(#p267d76c248)" style="stroke: #000000"/>
    <path d="M 35.371319 158.954535 
C 35.779173 158.954535 36.170377 158.792493 36.458773 158.504097 
C 36.747169 158.215701 36.909211 157.824497 36.909211 157.416643 
C 36.909211 157.008789 36.747169 156.617585 36.458773 156.329189 
C 36.170377 156.040793 35.779173 155.878751 35.371319 155.878751 
C 34.963466 155.878751 34.572262 156.040793 34.283866 156.329189 
C 33.99547 156.617585 33.833428 157.008789 33.833428 157.416643 
C 33.833428 157.824497 33.99547 158.215701 34.283866 158.504097 
C 34.572262 158.792493 34.963466 158.954535 35.371319 158.954535 
z
" clip-path="url(#p267d76c248)" style="stroke: #000000"/>
    <path d="M 33.859102 147.182847 
C 33.859102 147.182847 33.859102 147.182847 33.859102 147.182847 
C 33.859102 147.182847 33.859102 147.182847 33.859102 147.182847 
C 33.859102 147.182847 33.859102 147.182847 33.859102 147.182847 
C 33.859102 147.182847 33.859102 147.182847 33.859102 147.182847 
C 33.859102 147.182847 33.859102 147.182847 33.859102 147.182847 
C 33.859102 147.182847 33.859102 147.182847 33.859102 147.182847 
C 33.859102 147.182847 33.859102 147.182847 33.859102 147.182847 
C 33.859102 147.182847 33.859102 147.182847 33.859102 147.182847 
z
" clip-path="url(#p267d76c248)" style="stroke: #000000"/>
   </g>
   <g id="matplotlib.axis_1">
    <g id="xtick_1">
     <g id="line2d_1">
      <defs>
       <path id="m3596a2edae" d="M 0 0 
L 0 3.5 
" style="stroke: #000000; stroke-width: 0.8"/>
      </defs>
      <g>
       <use xlink:href="#m3596a2edae" x="18" y="189" style="stroke: #000000; stroke-width: 0.8"/>
      </g>
     </g>
     <g id="text_1">
      <!-- 10 -->
      <g transform="translate(7.447656 203.598437)scale(0.1 -0.1)">
       <defs>
        <path id="DejaVuSans-2212" d="M 678 2272 
L 4684 2272 
L 4684 1741 
L 678 1741 
L 678 2272 
z
" transform="scale(0.015625)"/>
        <path id="DejaVuSans-31" d="M 794 531 
L 1825 531 
L 1825 4091 
L 703 3866 
L 703 4441 
L 1819 4666 
L 2450 4666 
L 2450 531 
L 3481 531 
L 3481 0 
L 794 0 
L 794 531 
z
" transform="scale(0.015625)"/>
        <path id="DejaVuSans-30" d="M 2034 4250 
Q 1547 4250 1301 3770 
Q 1056 3291 1056 2328 
Q 1056 1369 1301 889 
Q 1547 409 2034 409 
Q 2525 409 2770 889 
Q 3016 1369 3016 2328 
Q 3016 3291 2770 3770 
Q 2525 4250 2034 4250 
z
M 2034 4750 
Q 2819 4750 3233 4129 
Q 3647 3509 3647 2328 
Q 3647 1150 3233 529 
Q 2819 -91 2034 -91 
Q 1250 -91 836 529 
Q 422 1150 422 2328 
Q 422 3509 836 4129 
Q 1250 4750 2034 4750 
z
" transform="scale(0.015625)"/>
       </defs>
       <use xlink:href="#DejaVuSans-2212"/>
       <use xlink:href="#DejaVuSans-31" x="83.789062"/>
       <use xlink:href="#DejaVuSans-30" x="147.412109"/>
      </g>
     </g>
    </g>
    <g id="xtick_2">
     <g id="line2d_2">
      <g>
       <use xlink:href="#m3596a2edae" x="73.8" y="189" style="stroke: #000000; stroke-width: 0.8"/>
      </g>
     </g>
     <g id="text_2">
      <!-- 0 -->
      <g transform="translate(70.61875 203.598437)scale(0.1 -0.1)">
       <use xlink:href="#DejaVuSans-30"/>
      </g>
     </g>
    </g>
    <g id="xtick_3">
     <g id="line2d_3">
      <g>
       <use xlink:href="#m3596a2edae" x="129.6" y="189" style="stroke: #000000; stroke-width: 0.8"/>
      </g>
     </g>
     <g id="text_3">
      <!-- 10 -->
      <g transform="translate(123.2375 203.598437)scale(0.1 -0.1)">
       <use xlink:href="#DejaVuSans-31"/>
       <use xlink:href="#DejaVuSans-30" x="63.623047"/>
      </g>
     </g>
    </g>
   </g>
   <g id="matplotlib.axis_2">
    <g id="ytick_1">
     <g id="line2d_4">
      <defs>
       <path id="m152a3553b2" d="M 0 0 
L -3.5 0 
" style="stroke: #000000; stroke-width: 0.8"/>
      </defs>
      <g>
       <use xlink:href="#m152a3553b2" x="18" y="189" style="stroke: #000000; stroke-width: 0.8"/>
      </g>
     </g>
     <g id="text_4">
      <!-- 15 -->
      <g transform="translate(-10.104688 192.799219)scale(0.1 -0.1)">
       <defs>
        <path id="DejaVuSans-35" d="M 691 4666 
L 3169 4666 
L 3169 4134 
L 1269 4134 
L 1269 2991 
Q 1406 3038 1543 3061 
Q 1681 3084 1819 3084 
Q 2600 3084 3056 2656 
Q 3513 2228 3513 1497 
Q 3513 744 3044 326 
Q 2575 -91 1722 -91 
Q 1428 -91 1123 -41 
Q 819 9 494 109 
L 494 744 
Q 775 591 1075 516 
Q 1375 441 1709 441 
Q 2250 441 2565 725 
Q 2881 1009 2881 1497 
Q 2881 1984 2565 2268 
Q 2250 2553 1709 2553 
Q 1456 2553 1204 2497 
Q 953 2441 691 2322 
L 691 4666 
z
" transform="scale(0.015625)"/>
       </defs>
       <use xlink:href="#DejaVuSans-2212"/>
       <use xlink:href="#DejaVuSans-31" x="83.789062"/>
       <use xlink:href="#DejaVuSans-35" x="147.412109"/>
      </g>
     </g>
    </g>
    <g id="ytick_2">
     <g id="line2d_5">
      <g>
       <use xlink:href="#m152a3553b2" x="18" y="161.82" style="stroke: #000000; stroke-width: 0.8"/>
      </g>
     </g>
     <g id="text_5">
      <!-- 10 -->
      <g transform="translate(-10.104688 165.619219)scale(0.1 -0.1)">
       <use xlink:href="#DejaVuSans-2212"/>
       <use xlink:href="#DejaVuSans-31" x="83.789062"/>
       <use xlink:href="#DejaVuSans-30" x="147.412109"/>
      </g>
     </g>
    </g>
    <g id="ytick_3">
     <g id="line2d_6">
      <g>
       <use xlink:href="#m152a3553b2" x="18" y="134.64" style="stroke: #000000; stroke-width: 0.8"/>
      </g>
     </g>
     <g id="text_6">
      <!-- 5 -->
      <g transform="translate(-3.742188 138.439219)scale(0.1 -0.1)">
       <use xlink:href="#DejaVuSans-2212"/>
       <use xlink:href="#DejaVuSans-35" x="83.789062"/>
      </g>
     </g>
    </g>
    <g id="ytick_4">
     <g id="line2d_7">
      <g>
       <use xlink:href="#m152a3553b2" x="18" y="107.46" style="stroke: #000000; stroke-width: 0.8"/>
      </g>
     </g>
     <g id="text_7">
      <!-- 0 -->
      <g transform="translate(4.6375 111.259219)scale(0.1 -0.1)">
       <use xlink:href="#DejaVuSans-30"/>
      </g>
     </g>
    </g>
    <g id="ytick_5">
     <g id="line2d_8">
      <g>
       <use xlink:href="#m152a3553b2" x="18" y="80.28" style="stroke: #000000; stroke-width: 0.8"/>
      </g>
     </g>
     <g id="text_8">
      <!-- 5 -->
      <g transform="translate(4.6375 84.079219)scale(0.1 -0.1)">
       <use xlink:href="#DejaVuSans-35"/>
      </g>
     </g>
    </g>
    <g id="ytick_6">
     <g id="line2d_9">
      <g>
       <use xlink:href="#m152a3553b2" x="18" y="53.1" style="stroke: #000000; stroke-width: 0.8"/>
      </g>
     </g>
     <g id="text_9">
      <!-- 10 -->
      <g transform="translate(-1.725 56.899219)scale(0.1 -0.1)">
       <use xlink:href="#DejaVuSans-31"/>
       <use xlink:href="#DejaVuSans-30" x="63.623047"/>
      </g>
     </g>
    </g>
    <g id="ytick_7">
     <g id="line2d_10">
      <g>
       <use xlink:href="#m152a3553b2" x="18" y="25.92" style="stroke: #000000; stroke-width: 0.8"/>
      </g>
     </g>
     <g id="text_10">
      <!-- 15 -->
      <g transform="translate(-1.725 29.719219)scale(0.1 -0.1)">
       <use xlink:href="#DejaVuSans-31"/>
       <use xlink:href="#DejaVuSans-35" x="63.623047"/>
      </g>
     </g>
    </g>
   </g>
   <g id="patch_3">
    <path d="M 18 189 
L 18 25.92 
" style="fill: none; stroke: #000000; stroke-width: 0.8; stroke-linejoin: miter; stroke-linecap: square"/>
   </g>
   <g id="patch_4">
    <path d="M 129.6 189 
L 129.6 25.92 
" style="fill: none; stroke: #000000; stroke-width: 0.8; stroke-linejoin: miter; stroke-linecap: square"/>
   </g>
   <g id="patch_5">
    <path d="M 18 189 
L 129.6 189 
" style="fill: none; stroke: #000000; stroke-width: 0.8; stroke-linejoin: miter; stroke-linecap: square"/>
   </g>
   <g id="patch_6">
    <path d="M 18 25.92 
L 129.6 25.92 
" style="fill: none; stroke: #000000; stroke-width: 0.8; stroke-linejoin: miter; stroke-linecap: square"/>
   </g>
  </g>
 </g>
 <defs>
  <clipPath id="p267d76c248">
   <rect x="18" y="25.92" width="111.6" height="163.08"/>
  </clipPath>
 </defs>
</svg>
