<?xml version="1.0" encoding="utf-8" standalone="no"?>
<!DOCTYPE svg PUBLIC "-//W3C//DTD SVG 1.1//EN"
  "http://www.w3.org/Graphics/SVG/1.1/DTD/svg11.dtd">
<svg xmlns:xlink="http://www.w3.org/1999/xlink" width="144pt" height="216pt" viewBox="0 0 144 216" xmlns="http://www.w3.org/2000/svg" version="1.1">
 <metadata>
  <rdf:RDF xmlns:dc="http://purl.org/dc/elements/1.1/" xmlns:cc="http://creativecommons.org/ns#" xmlns:rdf="http://www.w3.org/1999/02/22-rdf-syntax-ns#">
   <cc:Work>
    <dc:type rdf:resource="http://purl.org/dc/dcmitype/StillImage"/>
    <dc:date>2022-06-23T12:13:53.963340</dc:date>
    <dc:format>image/svg+xml</dc:format>
    <dc:creator>
     <cc:Agent>
      <dc:title>Matplotlib v3.5.1, https://matplotlib.org/</dc:title>
     </cc:Agent>
    </dc:creator>
   </cc:Work>
  </rdf:RDF>
 </metadata>
 <defs>
  <style type="text/css">*{stroke-linejoin: round; stroke-linecap: butt}</style>
 </defs>
 <g id="figure_1">
  <g id="patch_1">
   <path d="M 0 216 
L 144 216 
L 144 0 
L 0 0 
L 0 216 
z
" style="fill: none"/>
  </g>
  <g id="axes_1">
   <g id="patch_2">
    <path d="M 18 189 
L 129.6 189 
L 129.6 25.92 
L 18 25.92 
z
" style="fill: #ffffff"/>
   </g>
   <g id="PathCollection_1">
    <defs>
     <path id="m826d5fd7dd" d="M 0 2.738613 
C 0.726289 2.738613 1.422928 2.450055 1.936492 1.936492 
C 2.450055 1.422928 2.738613 0.726289 2.738613 0 
C 2.738613 -0.726289 2.450055 -1.422928 1.936492 -1.936492 
C 1.422928 -2.450055 0.726289 -2.738613 0 -2.738613 
C -0.726289 -2.738613 -1.422928 -2.450055 -1.936492 -1.936492 
C -2.450055 -1.422928 -2.738613 -0.726289 -2.738613 0 
C -2.738613 0.726289 -2.450055 1.422928 -1.936492 1.936492 
C -1.422928 2.450055 -0.726289 2.738613 0 2.738613 
z
" style="stroke: #ff0000; stroke-width: 1.75"/>
    </defs>
    <g clip-path="url(#p68ce02ea16)">
     <use xlink:href="#m826d5fd7dd" x="80.775" y="83.92143" style="fill: #ff0000; stroke: #ff0000; stroke-width: 1.75"/>
     <use xlink:href="#m826d5fd7dd" x="59.85" y="95.690715" style="fill: #ff0000; stroke: #ff0000; stroke-width: 1.75"/>
     <use xlink:href="#m826d5fd7dd" x="66.825" y="107.46" style="fill: #ff0000; stroke: #ff0000; stroke-width: 1.75"/>
     <use xlink:href="#m826d5fd7dd" x="80.775" y="107.46" style="fill: #ff0000; stroke: #ff0000; stroke-width: 1.75"/>
     <use xlink:href="#m826d5fd7dd" x="94.725" y="107.46" style="fill: #ff0000; stroke: #ff0000; stroke-width: 1.75"/>
     <use xlink:href="#m826d5fd7dd" x="59.85" y="119.229285" style="fill: #ff0000; stroke: #ff0000; stroke-width: 1.75"/>
     <use xlink:href="#m826d5fd7dd" x="80.775" y="130.99857" style="fill: #ff0000; stroke: #ff0000; stroke-width: 1.75"/>
    </g>
   </g>
   <g id="PathCollection_2">
    <defs>
     <path id="C0_0_62d81dd34b" d="M 0 2.738613 
C 0.726289 2.738613 1.422928 2.450055 1.936492 1.936492 
C 2.450055 1.422928 2.738613 0.726289 2.738613 -0 
C 2.738613 -0.726289 2.450055 -1.422928 1.936492 -1.936492 
C 1.422928 -2.450055 0.726289 -2.738613 0 -2.738613 
C -0.726289 -2.738613 -1.422928 -2.450055 -1.936492 -1.936492 
C -2.450055 -1.422928 -2.738613 -0.726289 -2.738613 0 
C -2.738613 0.726289 -2.450055 1.422928 -1.936492 1.936492 
C -1.422928 2.450055 -0.726289 2.738613 0 2.738613 
z
"/>
    </defs>
    <g clip-path="url(#p68ce02ea16)">
     <use xlink:href="#C0_0_62d81dd34b" x="66.825" y="83.92143" style="fill: none; stroke: #ff0000; stroke-width: 1.75"/>
    </g>
    <g clip-path="url(#p68ce02ea16)">
     <use xlink:href="#C0_0_62d81dd34b" x="73.8" y="95.690715" style="fill: none; stroke: #ff0000; stroke-width: 1.75"/>
    </g>
    <g clip-path="url(#p68ce02ea16)">
     <use xlink:href="#C0_0_62d81dd34b" x="87.75" y="95.690715" style="fill: none; stroke: #ff0000; stroke-width: 1.75"/>
    </g>
    <g clip-path="url(#p68ce02ea16)">
     <use xlink:href="#C0_0_62d81dd34b" x="52.875" y="107.46" style="fill: none; stroke: #ff0000; stroke-width: 1.75"/>
    </g>
    <g clip-path="url(#p68ce02ea16)">
     <use xlink:href="#C0_0_62d81dd34b" x="73.8" y="119.229285" style="fill: none; stroke: #ff0000; stroke-width: 1.75"/>
    </g>
    <g clip-path="url(#p68ce02ea16)">
     <use xlink:href="#C0_0_62d81dd34b" x="87.75" y="119.229285" style="fill: none; stroke: #ff0000; stroke-width: 1.75"/>
    </g>
    <g clip-path="url(#p68ce02ea16)">
     <use xlink:href="#C0_0_62d81dd34b" x="66.825" y="130.99857" style="fill: none; stroke: #ff0000; stroke-width: 1.75"/>
    </g>
   </g>
   <g id="PathCollection_3">
    <path d="M 116.870537 124.485574 
C 117.295006 124.485574 117.702147 124.316931 118.002292 124.016786 
C 118.302437 123.716641 118.47108 123.3095 118.47108 122.885031 
C 118.47108 122.460563 118.302437 122.053422 118.002292 121.753277 
C 117.702147 121.453132 117.295006 121.284489 116.870537 121.284489 
C 116.446068 121.284489 116.038927 121.453132 115.738782 121.753277 
C 115.438638 122.053422 115.269994 122.460563 115.269994 122.885031 
C 115.269994 123.3095 115.438638 123.716641 115.738782 124.016786 
C 116.038927 124.316931 116.446068 124.485574 116.870537 124.485574 
z
" clip-path="url(#p68ce02ea16)" style="stroke: #000000"/>
    <path d="M 116.735658 111.54405 
C 117.32867 111.54405 117.897474 111.308444 118.316797 110.889121 
C 118.73612 110.469798 118.971726 109.900994 118.971726 109.307982 
C 118.971726 108.71497 118.73612 108.146166 118.316797 107.726843 
C 117.897474 107.30752 117.32867 107.071914 116.735658 107.071914 
C 116.142646 107.071914 115.573842 107.30752 115.154519 107.726843 
C 114.735196 108.146166 114.49959 108.71497 114.49959 109.307982 
C 114.49959 109.900994 114.735196 110.469798 115.154519 110.889121 
C 115.573842 111.308444 116.142646 111.54405 116.735658 111.54405 
z
" clip-path="url(#p68ce02ea16)" style="stroke: #000000"/>
    <path d="M 108.507857 103.108947 
C 109.064708 103.108947 109.598826 102.887708 109.992579 102.493955 
C 110.386332 102.100202 110.607571 101.566084 110.607571 101.009233 
C 110.607571 100.452383 110.386332 99.918264 109.992579 99.524511 
C 109.598826 99.130759 109.064708 98.909519 108.507857 98.909519 
C 107.951007 98.909519 107.416888 99.130759 107.023135 99.524511 
C 106.629382 99.918264 106.408143 100.452383 106.408143 101.009233 
C 106.408143 101.566084 106.629382 102.100202 107.023135 102.493955 
C 107.416888 102.887708 107.951007 103.108947 108.507857 103.108947 
z
" clip-path="url(#p68ce02ea16)" style="stroke: #000000"/>
    <path d="M 106.222175 90.651264 
C 106.755663 90.651264 107.267371 90.439308 107.644604 90.062075 
C 108.021836 89.684843 108.233793 89.173134 108.233793 88.639647 
C 108.233793 88.10616 108.021836 87.594451 107.644604 87.217219 
C 107.267371 86.839987 106.755663 86.62803 106.222175 86.62803 
C 105.688688 86.62803 105.17698 86.839987 104.799747 87.217219 
C 104.422515 87.594451 104.210558 88.10616 104.210558 88.639647 
C 104.210558 89.173134 104.422515 89.684843 104.799747 90.062075 
C 105.17698 90.439308 105.688688 90.651264 106.222175 90.651264 
z
" clip-path="url(#p68ce02ea16)" style="stroke: #000000"/>
    <path d="M 101.852818 77.215905 
C 102.44583 77.215905 103.014634 76.980298 103.433957 76.560975 
C 103.85328 76.141653 104.088886 75.572849 104.088886 74.979837 
C 104.088886 74.386824 103.85328 73.818021 103.433957 73.398698 
C 103.014634 72.979375 102.44583 72.743769 101.852818 72.743769 
C 101.259806 72.743769 100.691002 72.979375 100.271679 73.398698 
C 99.852356 73.818021 99.61675 74.386824 99.61675 74.979837 
C 99.61675 75.572849 99.852356 76.141653 100.271679 76.560975 
C 100.691002 76.980298 101.259806 77.215905 101.852818 77.215905 
z
" clip-path="url(#p68ce02ea16)" style="stroke: #000000"/>
    <path d="M 98.420698 70.13367 
C 98.420698 70.13367 98.420698 70.13367 98.420698 70.13367 
C 98.420698 70.13367 98.420698 70.13367 98.420698 70.13367 
C 98.420698 70.13367 98.420698 70.13367 98.420698 70.13367 
C 98.420698 70.13367 98.420698 70.13367 98.420698 70.13367 
C 98.420698 70.13367 98.420698 70.13367 98.420698 70.13367 
C 98.420698 70.13367 98.420698 70.13367 98.420698 70.13367 
C 98.420698 70.13367 98.420698 70.13367 98.420698 70.13367 
C 98.420698 70.13367 98.420698 70.13367 98.420698 70.13367 
z
" clip-path="url(#p68ce02ea16)" style="stroke: #000000"/>
    <path d="M 95.708108 59.784151 
C 95.708108 59.784151 95.708108 59.784151 95.708108 59.784151 
C 95.708108 59.784151 95.708108 59.784151 95.708108 59.784151 
C 95.708108 59.784151 95.708108 59.784151 95.708108 59.784151 
C 95.708108 59.784151 95.708108 59.784151 95.708108 59.784151 
C 95.708108 59.784151 95.708108 59.784151 95.708108 59.784151 
C 95.708108 59.784151 95.708108 59.784151 95.708108 59.784151 
C 95.708108 59.784151 95.708108 59.784151 95.708108 59.784151 
C 95.708108 59.784151 95.708108 59.784151 95.708108 59.784151 
z
" clip-path="url(#p68ce02ea16)" style="stroke: #000000"/>
    <path d="M 91.103235 48.877591 
C 91.103235 48.877591 91.103235 48.877591 91.103235 48.877591 
C 91.103235 48.877591 91.103235 48.877591 91.103235 48.877591 
C 91.103235 48.877591 91.103235 48.877591 91.103235 48.877591 
C 91.103235 48.877591 91.103235 48.877591 91.103235 48.877591 
C 91.103235 48.877591 91.103235 48.877591 91.103235 48.877591 
C 91.103235 48.877591 91.103235 48.877591 91.103235 48.877591 
C 91.103235 48.877591 91.103235 48.877591 91.103235 48.877591 
C 91.103235 48.877591 91.103235 48.877591 91.103235 48.877591 
z
" clip-path="url(#p68ce02ea16)" style="stroke: #000000"/>
    <path d="M 89.462567 42.922483 
C 89.961851 42.922483 90.440753 42.724115 90.7938 42.371068 
C 91.146847 42.018021 91.345215 41.539119 91.345215 41.039835 
C 91.345215 40.540551 91.146847 40.061649 90.7938 39.708602 
C 90.440753 39.355555 89.961851 39.157188 89.462567 39.157188 
C 88.963283 39.157188 88.484381 39.355555 88.131334 39.708602 
C 87.778287 40.061649 87.579919 40.540551 87.579919 41.039835 
C 87.579919 41.539119 87.778287 42.018021 88.131334 42.371068 
C 88.484381 42.724115 88.963283 42.922483 89.462567 42.922483 
z
" clip-path="url(#p68ce02ea16)" style="stroke: #000000"/>
    <path d="M 121.437119 165.955604 
C 121.437119 165.955604 121.437119 165.955604 121.437119 165.955604 
C 121.437119 165.955604 121.437119 165.955604 121.437119 165.955604 
C 121.437119 165.955604 121.437119 165.955604 121.437119 165.955604 
C 121.437119 165.955604 121.437119 165.955604 121.437119 165.955604 
C 121.437119 165.955604 121.437119 165.955604 121.437119 165.955604 
C 121.437119 165.955604 121.437119 165.955604 121.437119 165.955604 
C 121.437119 165.955604 121.437119 165.955604 121.437119 165.955604 
C 121.437119 165.955604 121.437119 165.955604 121.437119 165.955604 
z
" clip-path="url(#p68ce02ea16)" style="stroke: #000000"/>
    <path d="M 119.188315 151.650832 
C 119.188315 151.650832 119.188315 151.650832 119.188315 151.650832 
C 119.188315 151.650832 119.188315 151.650832 119.188315 151.650832 
C 119.188315 151.650832 119.188315 151.650832 119.188315 151.650832 
C 119.188315 151.650832 119.188315 151.650832 119.188315 151.650832 
C 119.188315 151.650832 119.188315 151.650832 119.188315 151.650832 
C 119.188315 151.650832 119.188315 151.650832 119.188315 151.650832 
C 119.188315 151.650832 119.188315 151.650832 119.188315 151.650832 
C 119.188315 151.650832 119.188315 151.650832 119.188315 151.650832 
z
" clip-path="url(#p68ce02ea16)" style="stroke: #000000"/>
    <path d="M 117.028277 145.70634 
C 117.530027 145.70634 118.011294 145.506993 118.366084 145.152202 
C 118.720875 144.797412 118.920222 144.316145 118.920222 143.814395 
C 118.920222 143.312645 118.720875 142.831379 118.366084 142.476588 
C 118.011294 142.121798 117.530027 141.92245 117.028277 141.92245 
C 116.526528 141.92245 116.045261 142.121798 115.69047 142.476588 
C 115.33568 142.831379 115.136333 143.312645 115.136333 143.814395 
C 115.136333 144.316145 115.33568 144.797412 115.69047 145.152202 
C 116.045261 145.506993 116.526528 145.70634 117.028277 145.70634 
z
" clip-path="url(#p68ce02ea16)" style="stroke: #000000"/>
    <path d="M 113.856431 133.032739 
C 113.856431 133.032739 113.856431 133.032739 113.856431 133.032739 
C 113.856431 133.032739 113.856431 133.032739 113.856431 133.032739 
C 113.856431 133.032739 113.856431 133.032739 113.856431 133.032739 
C 113.856431 133.032739 113.856431 133.032739 113.856431 133.032739 
C 113.856431 133.032739 113.856431 133.032739 113.856431 133.032739 
C 113.856431 133.032739 113.856431 133.032739 113.856431 133.032739 
C 113.856431 133.032739 113.856431 133.032739 113.856431 133.032739 
C 113.856431 133.032739 113.856431 133.032739 113.856431 133.032739 
z
" clip-path="url(#p68ce02ea16)" style="stroke: #000000"/>
    <path d="M 102.421802 124.312806 
C 102.421802 124.312806 102.421802 124.312806 102.421802 124.312806 
C 102.421802 124.312806 102.421802 124.312806 102.421802 124.312806 
C 102.421802 124.312806 102.421802 124.312806 102.421802 124.312806 
C 102.421802 124.312806 102.421802 124.312806 102.421802 124.312806 
C 102.421802 124.312806 102.421802 124.312806 102.421802 124.312806 
C 102.421802 124.312806 102.421802 124.312806 102.421802 124.312806 
C 102.421802 124.312806 102.421802 124.312806 102.421802 124.312806 
C 102.421802 124.312806 102.421802 124.312806 102.421802 124.312806 
z
" clip-path="url(#p68ce02ea16)" style="stroke: #000000"/>
    <path d="M 102.041508 110.60074 
C 102.17411 110.60074 102.301298 110.548057 102.395062 110.454293 
C 102.488825 110.36053 102.541508 110.233341 102.541508 110.10074 
C 102.541508 109.968138 102.488825 109.84095 102.395062 109.747186 
C 102.301298 109.653423 102.17411 109.60074 102.041508 109.60074 
C 101.908907 109.60074 101.781718 109.653423 101.687955 109.747186 
C 101.594191 109.84095 101.541508 109.968138 101.541508 110.10074 
C 101.541508 110.233341 101.594191 110.36053 101.687955 110.454293 
C 101.781718 110.548057 101.908907 110.60074 102.041508 110.60074 
z
" clip-path="url(#p68ce02ea16)" style="stroke: #000000"/>
    <path d="M 101.57867 107.718255 
C 102.172053 107.718255 102.741212 107.482502 103.160797 107.062917 
C 103.580381 106.643332 103.816135 106.074174 103.816135 105.480791 
C 103.816135 104.887409 103.580381 104.31825 103.160797 103.898665 
C 102.741212 103.47908 102.172053 103.243327 101.57867 103.243327 
C 100.985288 103.243327 100.416129 103.47908 99.996544 103.898665 
C 99.57696 104.31825 99.341206 104.887409 99.341206 105.480791 
C 99.341206 106.074174 99.57696 106.643332 99.996544 107.062917 
C 100.416129 107.482502 100.985288 107.718255 101.57867 107.718255 
z
" clip-path="url(#p68ce02ea16)" style="stroke: #000000"/>
    <path d="M 97.179733 92.208805 
C 97.773115 92.208805 98.342274 91.973052 98.761859 91.553467 
C 99.181444 91.133882 99.417197 90.564724 99.417197 89.971341 
C 99.417197 89.377959 99.181444 88.8088 98.761859 88.389215 
C 98.342274 87.96963 97.773115 87.733877 97.179733 87.733877 
C 96.58635 87.733877 96.017192 87.96963 95.597607 88.389215 
C 95.178022 88.8088 94.942269 89.377959 94.942269 89.971341 
C 94.942269 90.564724 95.178022 91.133882 95.597607 91.553467 
C 96.017192 91.973052 96.58635 92.208805 97.179733 92.208805 
z
" clip-path="url(#p68ce02ea16)" style="stroke: #000000"/>
    <path d="M 92.058438 85.30248 
C 92.058438 85.30248 92.058438 85.30248 92.058438 85.30248 
C 92.058438 85.30248 92.058438 85.30248 92.058438 85.30248 
C 92.058438 85.30248 92.058438 85.30248 92.058438 85.30248 
C 92.058438 85.30248 92.058438 85.30248 92.058438 85.30248 
C 92.058438 85.30248 92.058438 85.30248 92.058438 85.30248 
C 92.058438 85.30248 92.058438 85.30248 92.058438 85.30248 
C 92.058438 85.30248 92.058438 85.30248 92.058438 85.30248 
C 92.058438 85.30248 92.058438 85.30248 92.058438 85.30248 
z
" clip-path="url(#p68ce02ea16)" style="stroke: #000000"/>
    <path d="M 88.704682 74.490717 
C 89.289753 74.490717 89.85094 74.258266 90.264647 73.844559 
C 90.678355 73.430851 90.910806 72.869665 90.910806 72.284594 
C 90.910806 71.699523 90.678355 71.138337 90.264647 70.724629 
C 89.85094 70.310922 89.289753 70.078471 88.704682 70.078471 
C 88.119612 70.078471 87.558425 70.310922 87.144718 70.724629 
C 86.73101 71.138337 86.498559 71.699523 86.498559 72.284594 
C 86.498559 72.869665 86.73101 73.430851 87.144718 73.844559 
C 87.558425 74.258266 88.119612 74.490717 88.704682 74.490717 
z
" clip-path="url(#p68ce02ea16)" style="stroke: #000000"/>
    <path d="M 85.046749 59.845746 
C 85.046749 59.845746 85.046749 59.845746 85.046749 59.845746 
C 85.046749 59.845746 85.046749 59.845746 85.046749 59.845746 
C 85.046749 59.845746 85.046749 59.845746 85.046749 59.845746 
C 85.046749 59.845746 85.046749 59.845746 85.046749 59.845746 
C 85.046749 59.845746 85.046749 59.845746 85.046749 59.845746 
C 85.046749 59.845746 85.046749 59.845746 85.046749 59.845746 
C 85.046749 59.845746 85.046749 59.845746 85.046749 59.845746 
C 85.046749 59.845746 85.046749 59.845746 85.046749 59.845746 
z
" clip-path="url(#p68ce02ea16)" style="stroke: #000000"/>
    <path d="M 82.897308 55.095027 
C 83.399668 55.095027 83.881521 54.895437 84.236743 54.540214 
C 84.591966 54.184992 84.791556 53.703139 84.791556 53.200779 
C 84.791556 52.698418 84.591966 52.216566 84.236743 51.861343 
C 83.881521 51.506121 83.399668 51.306531 82.897308 51.306531 
C 82.394947 51.306531 81.913095 51.506121 81.557872 51.861343 
C 81.20265 52.216566 81.00306 52.698418 81.00306 53.200779 
C 81.00306 53.703139 81.20265 54.184992 81.557872 54.540214 
C 81.913095 54.895437 82.394947 55.095027 82.897308 55.095027 
z
" clip-path="url(#p68ce02ea16)" style="stroke: #000000"/>
    <path d="M 77.758126 41.80767 
C 78.25741 41.80767 78.736312 41.609303 79.089359 41.256256 
C 79.442406 40.903209 79.640774 40.424307 79.640774 39.925023 
C 79.640774 39.425739 79.442406 38.946837 79.089359 38.59379 
C 78.736312 38.240743 78.25741 38.042375 77.758126 38.042375 
C 77.258842 38.042375 76.77994 38.240743 76.426893 38.59379 
C 76.073846 38.946837 75.875479 39.425739 75.875479 39.925023 
C 75.875479 40.424307 76.073846 40.903209 76.426893 41.256256 
C 76.77994 41.609303 77.258842 41.80767 77.758126 41.80767 
z
" clip-path="url(#p68ce02ea16)" style="stroke: #000000"/>
    <path d="M 76.289968 31.666722 
C 76.289968 31.666722 76.289968 31.666722 76.289968 31.666722 
C 76.289968 31.666722 76.289968 31.666722 76.289968 31.666722 
C 76.289968 31.666722 76.289968 31.666722 76.289968 31.666722 
C 76.289968 31.666722 76.289968 31.666722 76.289968 31.666722 
C 76.289968 31.666722 76.289968 31.666722 76.289968 31.666722 
C 76.289968 31.666722 76.289968 31.666722 76.289968 31.666722 
C 76.289968 31.666722 76.289968 31.666722 76.289968 31.666722 
C 76.289968 31.666722 76.289968 31.666722 76.289968 31.666722 
z
" clip-path="url(#p68ce02ea16)" style="stroke: #000000"/>
    <path d="M 69.770574 23.156264 
C 69.770574 23.156264 69.770574 23.156264 69.770574 23.156264 
C 69.770574 23.156264 69.770574 23.156264 69.770574 23.156264 
C 69.770574 23.156264 69.770574 23.156264 69.770574 23.156264 
C 69.770574 23.156264 69.770574 23.156264 69.770574 23.156264 
C 69.770574 23.156264 69.770574 23.156264 69.770574 23.156264 
C 69.770574 23.156264 69.770574 23.156264 69.770574 23.156264 
C 69.770574 23.156264 69.770574 23.156264 69.770574 23.156264 
C 69.770574 23.156264 69.770574 23.156264 69.770574 23.156264 
z
" clip-path="url(#p68ce02ea16)" style="stroke: #000000"/>
    <path d="M 113.173344 178.264582 
C 113.672628 178.264582 114.15153 178.066215 114.504577 177.713167 
C 114.857624 177.36012 115.055991 176.881219 115.055991 176.381935 
C 115.055991 175.882651 114.857624 175.403749 114.504577 175.050702 
C 114.15153 174.697655 113.672628 174.499287 113.173344 174.499287 
C 112.67406 174.499287 112.195158 174.697655 111.842111 175.050702 
C 111.489064 175.403749 111.290696 175.882651 111.290696 176.381935 
C 111.290696 176.881219 111.489064 177.36012 111.842111 177.713167 
C 112.195158 178.066215 112.67406 178.264582 113.173344 178.264582 
z
" clip-path="url(#p68ce02ea16)" style="stroke: #000000"/>
    <path d="M 109.637434 168.713293 
C 109.637434 168.713293 109.637434 168.713293 109.637434 168.713293 
C 109.637434 168.713293 109.637434 168.713293 109.637434 168.713293 
C 109.637434 168.713293 109.637434 168.713293 109.637434 168.713293 
C 109.637434 168.713293 109.637434 168.713293 109.637434 168.713293 
C 109.637434 168.713293 109.637434 168.713293 109.637434 168.713293 
C 109.637434 168.713293 109.637434 168.713293 109.637434 168.713293 
C 109.637434 168.713293 109.637434 168.713293 109.637434 168.713293 
C 109.637434 168.713293 109.637434 168.713293 109.637434 168.713293 
z
" clip-path="url(#p68ce02ea16)" style="stroke: #000000"/>
    <path d="M 105.464822 158.881443 
C 105.464822 158.881443 105.464822 158.881443 105.464822 158.881443 
C 105.464822 158.881443 105.464822 158.881443 105.464822 158.881443 
C 105.464822 158.881443 105.464822 158.881443 105.464822 158.881443 
C 105.464822 158.881443 105.464822 158.881443 105.464822 158.881443 
C 105.464822 158.881443 105.464822 158.881443 105.464822 158.881443 
C 105.464822 158.881443 105.464822 158.881443 105.464822 158.881443 
C 105.464822 158.881443 105.464822 158.881443 105.464822 158.881443 
C 105.464822 158.881443 105.464822 158.881443 105.464822 158.881443 
z
" clip-path="url(#p68ce02ea16)" style="stroke: #000000"/>
    <path d="M 105.925169 148.970982 
C 106.057771 148.970982 106.184959 148.918298 106.278723 148.824535 
C 106.372486 148.730772 106.425169 148.603583 106.425169 148.470982 
C 106.425169 148.33838 106.372486 148.211192 106.278723 148.117428 
C 106.184959 148.023665 106.057771 147.970982 105.925169 147.970982 
C 105.792568 147.970982 105.665379 148.023665 105.571616 148.117428 
C 105.477852 148.211192 105.425169 148.33838 105.425169 148.470982 
C 105.425169 148.603583 105.477852 148.730772 105.571616 148.824535 
C 105.665379 148.918298 105.792568 148.970982 105.925169 148.970982 
z
" clip-path="url(#p68ce02ea16)" style="stroke: #000000"/>
    <path d="M 102.250058 142.413133 
C 102.843071 142.413133 103.411874 142.177527 103.831197 141.758204 
C 104.25052 141.338881 104.486126 140.770077 104.486126 140.177065 
C 104.486126 139.584053 104.25052 139.015249 103.831197 138.595926 
C 103.411874 138.176603 102.843071 137.940997 102.250058 137.940997 
C 101.657046 137.940997 101.088243 138.176603 100.66892 138.595926 
C 100.249597 139.015249 100.01399 139.584053 100.01399 140.177065 
C 100.01399 140.770077 100.249597 141.338881 100.66892 141.758204 
C 101.088243 142.177527 101.657046 142.413133 102.250058 142.413133 
z
" clip-path="url(#p68ce02ea16)" style="stroke: #000000"/>
    <path d="M 95.11838 124.924355 
C 95.11838 124.924355 95.11838 124.924355 95.11838 124.924355 
C 95.11838 124.924355 95.11838 124.924355 95.11838 124.924355 
C 95.11838 124.924355 95.11838 124.924355 95.11838 124.924355 
C 95.11838 124.924355 95.11838 124.924355 95.11838 124.924355 
C 95.11838 124.924355 95.11838 124.924355 95.11838 124.924355 
C 95.11838 124.924355 95.11838 124.924355 95.11838 124.924355 
C 95.11838 124.924355 95.11838 124.924355 95.11838 124.924355 
C 95.11838 124.924355 95.11838 124.924355 95.11838 124.924355 
z
" clip-path="url(#p68ce02ea16)" style="stroke: #000000"/>
    <path d="M 94.522461 116.061551 
C 94.522461 116.061551 94.522461 116.061551 94.522461 116.061551 
C 94.522461 116.061551 94.522461 116.061551 94.522461 116.061551 
C 94.522461 116.061551 94.522461 116.061551 94.522461 116.061551 
C 94.522461 116.061551 94.522461 116.061551 94.522461 116.061551 
C 94.522461 116.061551 94.522461 116.061551 94.522461 116.061551 
C 94.522461 116.061551 94.522461 116.061551 94.522461 116.061551 
C 94.522461 116.061551 94.522461 116.061551 94.522461 116.061551 
C 94.522461 116.061551 94.522461 116.061551 94.522461 116.061551 
z
" clip-path="url(#p68ce02ea16)" style="stroke: #000000"/>
    <path d="M 85.627091 105.650233 
C 86.097215 105.650233 86.548148 105.46345 86.880576 105.131022 
C 87.213004 104.798594 87.399787 104.347661 87.399787 103.877537 
C 87.399787 103.407412 87.213004 102.956479 86.880576 102.624051 
C 86.548148 102.291623 86.097215 102.104841 85.627091 102.104841 
C 85.156966 102.104841 84.706033 102.291623 84.373605 102.624051 
C 84.041177 102.956479 83.854395 103.407412 83.854395 103.877537 
C 83.854395 104.347661 84.041177 104.798594 84.373605 105.131022 
C 84.706033 105.46345 85.156966 105.650233 85.627091 105.650233 
z
" clip-path="url(#p68ce02ea16)" style="stroke: #000000"/>
    <path d="M 85.762937 101.234271 
C 86.237463 101.234271 86.692617 101.04574 87.028157 100.7102 
C 87.363697 100.374659 87.552228 99.919505 87.552228 99.44498 
C 87.552228 98.970454 87.363697 98.5153 87.028157 98.17976 
C 86.692617 97.84422 86.237463 97.655689 85.762937 97.655689 
C 85.288411 97.655689 84.833257 97.84422 84.497717 98.17976 
C 84.162177 98.5153 83.973646 98.970454 83.973646 99.44498 
C 83.973646 99.919505 84.162177 100.374659 84.497717 100.7102 
C 84.833257 101.04574 85.288411 101.234271 85.762937 101.234271 
z
" clip-path="url(#p68ce02ea16)" style="stroke: #000000"/>
    <path d="M 83.255953 87.226799 
C 83.830313 87.226799 84.381226 86.998603 84.78736 86.592469 
C 85.193494 86.186335 85.42169 85.635422 85.42169 85.061062 
C 85.42169 84.486702 85.193494 83.935789 84.78736 83.529655 
C 84.381226 83.123521 83.830313 82.895325 83.255953 82.895325 
C 82.681593 82.895325 82.13068 83.123521 81.724546 83.529655 
C 81.318412 83.935789 81.090216 84.486702 81.090216 85.061062 
C 81.090216 85.635422 81.318412 86.186335 81.724546 86.592469 
C 82.13068 86.998603 82.681593 87.226799 83.255953 87.226799 
z
" clip-path="url(#p68ce02ea16)" style="stroke: #000000"/>
    <path d="M 80.932521 78.407201 
C 81.525533 78.407201 82.094337 78.171594 82.51366 77.752271 
C 82.932982 77.332949 83.168589 76.764145 83.168589 76.171133 
C 83.168589 75.578121 82.932982 75.009317 82.51366 74.589994 
C 82.094337 74.170671 81.525533 73.935065 80.932521 73.935065 
C 80.339509 73.935065 79.770705 74.170671 79.351382 74.589994 
C 78.932059 75.009317 78.696453 75.578121 78.696453 76.171133 
C 78.696453 76.764145 78.932059 77.332949 79.351382 77.752271 
C 79.770705 78.171594 80.339509 78.407201 80.932521 78.407201 
z
" clip-path="url(#p68ce02ea16)" style="stroke: #000000"/>
    <path d="M 73.268224 72.754163 
C 73.831671 72.754163 74.372116 72.530303 74.770534 72.131886 
C 75.168951 71.733469 75.39281 71.193023 75.39281 70.629576 
C 75.39281 70.06613 75.168951 69.525684 74.770534 69.127267 
C 74.372116 68.72885 73.831671 68.50499 73.268224 68.50499 
C 72.704777 68.50499 72.164332 68.72885 71.765915 69.127267 
C 71.367497 69.525684 71.143638 70.06613 71.143638 70.629576 
C 71.143638 71.193023 71.367497 71.733469 71.765915 72.131886 
C 72.164332 72.530303 72.704777 72.754163 73.268224 72.754163 
z
" clip-path="url(#p68ce02ea16)" style="stroke: #000000"/>
    <path d="M 72.817055 61.27722 
C 73.39304 61.27722 73.945511 61.048379 74.352794 60.641096 
C 74.760077 60.233813 74.988918 59.681342 74.988918 59.105357 
C 74.988918 58.529372 74.760077 57.9769 74.352794 57.569617 
C 73.945511 57.162335 73.39304 56.933493 72.817055 56.933493 
C 72.24107 56.933493 71.688598 57.162335 71.281315 57.569617 
C 70.874033 57.9769 70.645191 58.529372 70.645191 59.105357 
C 70.645191 59.681342 70.874033 60.233813 71.281315 60.641096 
C 71.688598 61.048379 72.24107 61.27722 72.817055 61.27722 
z
" clip-path="url(#p68ce02ea16)" style="stroke: #000000"/>
    <path d="M 66.727204 48.352292 
C 67.226488 48.352292 67.70539 48.153924 68.058437 47.800877 
C 68.411484 47.44783 68.609851 46.968928 68.609851 46.469644 
C 68.609851 45.97036 68.411484 45.491458 68.058437 45.138411 
C 67.70539 44.785364 67.226488 44.586996 66.727204 44.586996 
C 66.22792 44.586996 65.749018 44.785364 65.395971 45.138411 
C 65.042924 45.491458 64.844556 45.97036 64.844556 46.469644 
C 64.844556 46.968928 65.042924 47.44783 65.395971 47.800877 
C 65.749018 48.153924 66.22792 48.352292 66.727204 48.352292 
z
" clip-path="url(#p68ce02ea16)" style="stroke: #000000"/>
    <path d="M 67.228874 36.286474 
C 67.228874 36.286474 67.228874 36.286474 67.228874 36.286474 
C 67.228874 36.286474 67.228874 36.286474 67.228874 36.286474 
C 67.228874 36.286474 67.228874 36.286474 67.228874 36.286474 
C 67.228874 36.286474 67.228874 36.286474 67.228874 36.286474 
C 67.228874 36.286474 67.228874 36.286474 67.228874 36.286474 
C 67.228874 36.286474 67.228874 36.286474 67.228874 36.286474 
C 67.228874 36.286474 67.228874 36.286474 67.228874 36.286474 
C 67.228874 36.286474 67.228874 36.286474 67.228874 36.286474 
z
" clip-path="url(#p68ce02ea16)" style="stroke: #000000"/>
    <path d="M 57.343777 29.345602 
C 57.343777 29.345602 57.343777 29.345602 57.343777 29.345602 
C 57.343777 29.345602 57.343777 29.345602 57.343777 29.345602 
C 57.343777 29.345602 57.343777 29.345602 57.343777 29.345602 
C 57.343777 29.345602 57.343777 29.345602 57.343777 29.345602 
C 57.343777 29.345602 57.343777 29.345602 57.343777 29.345602 
C 57.343777 29.345602 57.343777 29.345602 57.343777 29.345602 
C 57.343777 29.345602 57.343777 29.345602 57.343777 29.345602 
C 57.343777 29.345602 57.343777 29.345602 57.343777 29.345602 
z
" clip-path="url(#p68ce02ea16)" style="stroke: #000000"/>
    <path d="M 101.38649 181.452724 
C 101.38649 181.452724 101.38649 181.452724 101.38649 181.452724 
C 101.38649 181.452724 101.38649 181.452724 101.38649 181.452724 
C 101.38649 181.452724 101.38649 181.452724 101.38649 181.452724 
C 101.38649 181.452724 101.38649 181.452724 101.38649 181.452724 
C 101.38649 181.452724 101.38649 181.452724 101.38649 181.452724 
C 101.38649 181.452724 101.38649 181.452724 101.38649 181.452724 
C 101.38649 181.452724 101.38649 181.452724 101.38649 181.452724 
C 101.38649 181.452724 101.38649 181.452724 101.38649 181.452724 
z
" clip-path="url(#p68ce02ea16)" style="stroke: #000000"/>
    <path d="M 101.138828 174.594385 
C 101.138828 174.594385 101.138828 174.594385 101.138828 174.594385 
C 101.138828 174.594385 101.138828 174.594385 101.138828 174.594385 
C 101.138828 174.594385 101.138828 174.594385 101.138828 174.594385 
C 101.138828 174.594385 101.138828 174.594385 101.138828 174.594385 
C 101.138828 174.594385 101.138828 174.594385 101.138828 174.594385 
C 101.138828 174.594385 101.138828 174.594385 101.138828 174.594385 
C 101.138828 174.594385 101.138828 174.594385 101.138828 174.594385 
C 101.138828 174.594385 101.138828 174.594385 101.138828 174.594385 
z
" clip-path="url(#p68ce02ea16)" style="stroke: #000000"/>
    <path d="M 94.958784 157.72803 
C 94.958784 157.72803 94.958784 157.72803 94.958784 157.72803 
C 94.958784 157.72803 94.958784 157.72803 94.958784 157.72803 
C 94.958784 157.72803 94.958784 157.72803 94.958784 157.72803 
C 94.958784 157.72803 94.958784 157.72803 94.958784 157.72803 
C 94.958784 157.72803 94.958784 157.72803 94.958784 157.72803 
C 94.958784 157.72803 94.958784 157.72803 94.958784 157.72803 
C 94.958784 157.72803 94.958784 157.72803 94.958784 157.72803 
C 94.958784 157.72803 94.958784 157.72803 94.958784 157.72803 
z
" clip-path="url(#p68ce02ea16)" style="stroke: #000000"/>
    <path d="M 94.713957 151.14881 
C 94.713957 151.14881 94.713957 151.14881 94.713957 151.14881 
C 94.713957 151.14881 94.713957 151.14881 94.713957 151.14881 
C 94.713957 151.14881 94.713957 151.14881 94.713957 151.14881 
C 94.713957 151.14881 94.713957 151.14881 94.713957 151.14881 
C 94.713957 151.14881 94.713957 151.14881 94.713957 151.14881 
C 94.713957 151.14881 94.713957 151.14881 94.713957 151.14881 
C 94.713957 151.14881 94.713957 151.14881 94.713957 151.14881 
C 94.713957 151.14881 94.713957 151.14881 94.713957 151.14881 
z
" clip-path="url(#p68ce02ea16)" style="stroke: #000000"/>
    <path d="M 87.965938 137.243138 
C 87.965938 137.243138 87.965938 137.243138 87.965938 137.243138 
C 87.965938 137.243138 87.965938 137.243138 87.965938 137.243138 
C 87.965938 137.243138 87.965938 137.243138 87.965938 137.243138 
C 87.965938 137.243138 87.965938 137.243138 87.965938 137.243138 
C 87.965938 137.243138 87.965938 137.243138 87.965938 137.243138 
C 87.965938 137.243138 87.965938 137.243138 87.965938 137.243138 
C 87.965938 137.243138 87.965938 137.243138 87.965938 137.243138 
C 87.965938 137.243138 87.965938 137.243138 87.965938 137.243138 
z
" clip-path="url(#p68ce02ea16)" style="stroke: #000000"/>
    <path d="M 87.076666 129.408199 
C 87.670048 129.408199 88.239207 129.172445 88.658792 128.752861 
C 89.078377 128.333276 89.31413 127.764117 89.31413 127.170735 
C 89.31413 126.577352 89.078377 126.008193 88.658792 125.588608 
C 88.239207 125.169024 87.670048 124.93327 87.076666 124.93327 
C 86.483283 124.93327 85.914125 125.169024 85.49454 125.588608 
C 85.074955 126.008193 84.839202 126.577352 84.839202 127.170735 
C 84.839202 127.764117 85.074955 128.333276 85.49454 128.752861 
C 85.914125 129.172445 86.483283 129.408199 87.076666 129.408199 
z
" clip-path="url(#p68ce02ea16)" style="stroke: #000000"/>
    <path d="M 83.177008 121.404285 
C 83.770021 121.404285 84.338824 121.168679 84.758147 120.749356 
C 85.17747 120.330033 85.413076 119.761229 85.413076 119.168217 
C 85.413076 118.575205 85.17747 118.006401 84.758147 117.587078 
C 84.338824 117.167756 83.770021 116.932149 83.177008 116.932149 
C 82.583996 116.932149 82.015193 117.167756 81.59587 117.587078 
C 81.176547 118.006401 80.94094 118.575205 80.94094 119.168217 
C 80.94094 119.761229 81.176547 120.330033 81.59587 120.749356 
C 82.015193 121.168679 82.583996 121.404285 83.177008 121.404285 
z
" clip-path="url(#p68ce02ea16)" style="stroke: #000000"/>
    <path d="M 79.087636 107.653481 
C 79.680277 107.653481 80.248725 107.418022 80.667786 106.998961 
C 81.086847 106.579901 81.322305 106.011453 81.322305 105.418812 
C 81.322305 104.82617 81.086847 104.257723 80.667786 103.838662 
C 80.248725 103.419601 79.680277 103.184143 79.087636 103.184143 
C 78.494995 103.184143 77.926547 103.419601 77.507487 103.838662 
C 77.088426 104.257723 76.852967 104.82617 76.852967 105.418812 
C 76.852967 106.011453 77.088426 106.579901 77.507487 106.998961 
C 77.926547 107.418022 78.494995 107.653481 79.087636 107.653481 
z
" clip-path="url(#p68ce02ea16)" style="stroke: #000000"/>
    <path d="M 74.923141 104.430612 
C 74.923141 104.430612 74.923141 104.430612 74.923141 104.430612 
C 74.923141 104.430612 74.923141 104.430612 74.923141 104.430612 
C 74.923141 104.430612 74.923141 104.430612 74.923141 104.430612 
C 74.923141 104.430612 74.923141 104.430612 74.923141 104.430612 
C 74.923141 104.430612 74.923141 104.430612 74.923141 104.430612 
C 74.923141 104.430612 74.923141 104.430612 74.923141 104.430612 
C 74.923141 104.430612 74.923141 104.430612 74.923141 104.430612 
C 74.923141 104.430612 74.923141 104.430612 74.923141 104.430612 
z
" clip-path="url(#p68ce02ea16)" style="stroke: #000000"/>
    <path d="M 70.977766 89.176299 
C 70.977766 89.176299 70.977766 89.176299 70.977766 89.176299 
C 70.977766 89.176299 70.977766 89.176299 70.977766 89.176299 
C 70.977766 89.176299 70.977766 89.176299 70.977766 89.176299 
C 70.977766 89.176299 70.977766 89.176299 70.977766 89.176299 
C 70.977766 89.176299 70.977766 89.176299 70.977766 89.176299 
C 70.977766 89.176299 70.977766 89.176299 70.977766 89.176299 
C 70.977766 89.176299 70.977766 89.176299 70.977766 89.176299 
C 70.977766 89.176299 70.977766 89.176299 70.977766 89.176299 
z
" clip-path="url(#p68ce02ea16)" style="stroke: #000000"/>
    <path d="M 66.181627 81.693722 
C 66.774639 81.693722 67.343443 81.458116 67.762766 81.038793 
C 68.182089 80.61947 68.417695 80.050666 68.417695 79.457654 
C 68.417695 78.864642 68.182089 78.295838 67.762766 77.876515 
C 67.343443 77.457192 66.774639 77.221586 66.181627 77.221586 
C 65.588615 77.221586 65.019811 77.457192 64.600488 77.876515 
C 64.181165 78.295838 63.945559 78.864642 63.945559 79.457654 
C 63.945559 80.050666 64.181165 80.61947 64.600488 81.038793 
C 65.019811 81.458116 65.588615 81.693722 66.181627 81.693722 
z
" clip-path="url(#p68ce02ea16)" style="stroke: #000000"/>
    <path d="M 66.959589 69.715267 
C 66.959589 69.715267 66.959589 69.715267 66.959589 69.715267 
C 66.959589 69.715267 66.959589 69.715267 66.959589 69.715267 
C 66.959589 69.715267 66.959589 69.715267 66.959589 69.715267 
C 66.959589 69.715267 66.959589 69.715267 66.959589 69.715267 
C 66.959589 69.715267 66.959589 69.715267 66.959589 69.715267 
C 66.959589 69.715267 66.959589 69.715267 66.959589 69.715267 
C 66.959589 69.715267 66.959589 69.715267 66.959589 69.715267 
C 66.959589 69.715267 66.959589 69.715267 66.959589 69.715267 
z
" clip-path="url(#p68ce02ea16)" style="stroke: #000000"/>
    <path d="M 63.651203 58.612885 
C 63.651203 58.612885 63.651203 58.612885 63.651203 58.612885 
C 63.651203 58.612885 63.651203 58.612885 63.651203 58.612885 
C 63.651203 58.612885 63.651203 58.612885 63.651203 58.612885 
C 63.651203 58.612885 63.651203 58.612885 63.651203 58.612885 
C 63.651203 58.612885 63.651203 58.612885 63.651203 58.612885 
C 63.651203 58.612885 63.651203 58.612885 63.651203 58.612885 
C 63.651203 58.612885 63.651203 58.612885 63.651203 58.612885 
C 63.651203 58.612885 63.651203 58.612885 63.651203 58.612885 
z
" clip-path="url(#p68ce02ea16)" style="stroke: #000000"/>
    <path d="M 59.221849 47.190448 
C 59.221849 47.190448 59.221849 47.190448 59.221849 47.190448 
C 59.221849 47.190448 59.221849 47.190448 59.221849 47.190448 
C 59.221849 47.190448 59.221849 47.190448 59.221849 47.190448 
C 59.221849 47.190448 59.221849 47.190448 59.221849 47.190448 
C 59.221849 47.190448 59.221849 47.190448 59.221849 47.190448 
C 59.221849 47.190448 59.221849 47.190448 59.221849 47.190448 
C 59.221849 47.190448 59.221849 47.190448 59.221849 47.190448 
C 59.221849 47.190448 59.221849 47.190448 59.221849 47.190448 
z
" clip-path="url(#p68ce02ea16)" style="stroke: #000000"/>
    <path d="M 54.570662 37.909316 
C 54.570662 37.909316 54.570662 37.909316 54.570662 37.909316 
C 54.570662 37.909316 54.570662 37.909316 54.570662 37.909316 
C 54.570662 37.909316 54.570662 37.909316 54.570662 37.909316 
C 54.570662 37.909316 54.570662 37.909316 54.570662 37.909316 
C 54.570662 37.909316 54.570662 37.909316 54.570662 37.909316 
C 54.570662 37.909316 54.570662 37.909316 54.570662 37.909316 
C 54.570662 37.909316 54.570662 37.909316 54.570662 37.909316 
C 54.570662 37.909316 54.570662 37.909316 54.570662 37.909316 
z
" clip-path="url(#p68ce02ea16)" style="stroke: #000000"/>
    <path d="M 90.846857 172.965833 
C 90.846857 172.965833 90.846857 172.965833 90.846857 172.965833 
C 90.846857 172.965833 90.846857 172.965833 90.846857 172.965833 
C 90.846857 172.965833 90.846857 172.965833 90.846857 172.965833 
C 90.846857 172.965833 90.846857 172.965833 90.846857 172.965833 
C 90.846857 172.965833 90.846857 172.965833 90.846857 172.965833 
C 90.846857 172.965833 90.846857 172.965833 90.846857 172.965833 
C 90.846857 172.965833 90.846857 172.965833 90.846857 172.965833 
C 90.846857 172.965833 90.846857 172.965833 90.846857 172.965833 
z
" clip-path="url(#p68ce02ea16)" style="stroke: #000000"/>
    <path d="M 83.856219 164.484231 
C 84.359188 164.484231 84.841624 164.284399 85.197277 163.928747 
C 85.552929 163.573094 85.752761 163.090657 85.752761 162.587689 
C 85.752761 162.08472 85.552929 161.602283 85.197277 161.24663 
C 84.841624 160.890978 84.359188 160.691146 83.856219 160.691146 
C 83.35325 160.691146 82.870813 160.890978 82.515161 161.24663 
C 82.159508 161.602283 81.959676 162.08472 81.959676 162.587689 
C 81.959676 163.090657 82.159508 163.573094 82.515161 163.928747 
C 82.870813 164.284399 83.35325 164.484231 83.856219 164.484231 
z
" clip-path="url(#p68ce02ea16)" style="stroke: #000000"/>
    <path d="M 87.591573 154.977932 
C 87.591573 154.977932 87.591573 154.977932 87.591573 154.977932 
C 87.591573 154.977932 87.591573 154.977932 87.591573 154.977932 
C 87.591573 154.977932 87.591573 154.977932 87.591573 154.977932 
C 87.591573 154.977932 87.591573 154.977932 87.591573 154.977932 
C 87.591573 154.977932 87.591573 154.977932 87.591573 154.977932 
C 87.591573 154.977932 87.591573 154.977932 87.591573 154.977932 
C 87.591573 154.977932 87.591573 154.977932 87.591573 154.977932 
C 87.591573 154.977932 87.591573 154.977932 87.591573 154.977932 
z
" clip-path="url(#p68ce02ea16)" style="stroke: #000000"/>
    <path d="M 83.14042 145.897959 
C 83.14042 145.897959 83.14042 145.897959 83.14042 145.897959 
C 83.14042 145.897959 83.14042 145.897959 83.14042 145.897959 
C 83.14042 145.897959 83.14042 145.897959 83.14042 145.897959 
C 83.14042 145.897959 83.14042 145.897959 83.14042 145.897959 
C 83.14042 145.897959 83.14042 145.897959 83.14042 145.897959 
C 83.14042 145.897959 83.14042 145.897959 83.14042 145.897959 
C 83.14042 145.897959 83.14042 145.897959 83.14042 145.897959 
C 83.14042 145.897959 83.14042 145.897959 83.14042 145.897959 
z
" clip-path="url(#p68ce02ea16)" style="stroke: #000000"/>
    <path d="M 72.911067 137.147872 
C 73.504079 137.147872 74.072883 136.912266 74.492206 136.492943 
C 74.911528 136.07362 75.147135 135.504817 75.147135 134.911804 
C 75.147135 134.318792 74.911528 133.749989 74.492206 133.330666 
C 74.072883 132.911343 73.504079 132.675736 72.911067 132.675736 
C 72.318055 132.675736 71.749251 132.911343 71.329928 133.330666 
C 70.910605 133.749989 70.674999 134.318792 70.674999 134.911804 
C 70.674999 135.504817 70.910605 136.07362 71.329928 136.492943 
C 71.749251 136.912266 72.318055 137.147872 72.911067 137.147872 
z
" clip-path="url(#p68ce02ea16)" style="stroke: #000000"/>
    <path d="M 70.464073 123.16923 
C 71.000088 123.16923 71.51422 122.956269 71.89324 122.57725 
C 72.272259 122.198231 72.48522 121.684098 72.48522 121.148083 
C 72.48522 120.612069 72.272259 120.097936 71.89324 119.718917 
C 71.51422 119.339898 71.000088 119.126937 70.464073 119.126937 
C 69.928059 119.126937 69.413926 119.339898 69.034907 119.718917 
C 68.655888 120.097936 68.442927 120.612069 68.442927 121.148083 
C 68.442927 121.684098 68.655888 122.198231 69.034907 122.57725 
C 69.413926 122.956269 69.928059 123.16923 70.464073 123.16923 
z
" clip-path="url(#p68ce02ea16)" style="stroke: #000000"/>
    <path d="M 68.416143 115.647047 
C 69.009155 115.647047 69.577959 115.411441 69.997282 114.992118 
C 70.416605 114.572795 70.652211 114.003991 70.652211 113.410979 
C 70.652211 112.817967 70.416605 112.249163 69.997282 111.82984 
C 69.577959 111.410517 69.009155 111.174911 68.416143 111.174911 
C 67.823131 111.174911 67.254327 111.410517 66.835004 111.82984 
C 66.415681 112.249163 66.180075 112.817967 66.180075 113.410979 
C 66.180075 114.003991 66.415681 114.572795 66.835004 114.992118 
C 67.254327 115.411441 67.823131 115.647047 68.416143 115.647047 
z
" clip-path="url(#p68ce02ea16)" style="stroke: #000000"/>
    <path d="M 64.008075 105.175909 
C 64.523342 105.175909 65.017574 104.971191 65.381923 104.606843 
C 65.746272 104.242494 65.950989 103.748261 65.950989 103.232994 
C 65.950989 102.717727 65.746272 102.223495 65.381923 101.859146 
C 65.017574 101.494798 64.523342 101.29008 64.008075 101.29008 
C 63.492808 101.29008 62.998576 101.494798 62.634227 101.859146 
C 62.269878 102.223495 62.06516 102.717727 62.06516 103.232994 
C 62.06516 103.748261 62.269878 104.242494 62.634227 104.606843 
C 62.998576 104.971191 63.492808 105.175909 64.008075 105.175909 
z
" clip-path="url(#p68ce02ea16)" style="stroke: #000000"/>
    <path d="M 59.881687 94.117779 
C 60.4747 94.117779 61.043503 93.882173 61.462826 93.46285 
C 61.882149 93.043527 62.117755 92.474724 62.117755 91.881711 
C 62.117755 91.288699 61.882149 90.719895 61.462826 90.300573 
C 61.043503 89.88125 60.4747 89.645643 59.881687 89.645643 
C 59.288675 89.645643 58.719872 89.88125 58.300549 90.300573 
C 57.881226 90.719895 57.645619 91.288699 57.645619 91.881711 
C 57.645619 92.474724 57.881226 93.043527 58.300549 93.46285 
C 58.719872 93.882173 59.288675 94.117779 59.881687 94.117779 
z
" clip-path="url(#p68ce02ea16)" style="stroke: #000000"/>
    <path d="M 56.316865 83.080809 
C 56.316865 83.080809 56.316865 83.080809 56.316865 83.080809 
C 56.316865 83.080809 56.316865 83.080809 56.316865 83.080809 
C 56.316865 83.080809 56.316865 83.080809 56.316865 83.080809 
C 56.316865 83.080809 56.316865 83.080809 56.316865 83.080809 
C 56.316865 83.080809 56.316865 83.080809 56.316865 83.080809 
C 56.316865 83.080809 56.316865 83.080809 56.316865 83.080809 
C 56.316865 83.080809 56.316865 83.080809 56.316865 83.080809 
C 56.316865 83.080809 56.316865 83.080809 56.316865 83.080809 
z
" clip-path="url(#p68ce02ea16)" style="stroke: #000000"/>
    <path d="M 51.540893 78.016813 
C 52.049829 78.016813 52.537989 77.81461 52.897862 77.454738 
C 53.257734 77.094865 53.459937 76.606705 53.459937 76.097769 
C 53.459937 75.588832 53.257734 75.100672 52.897862 74.7408 
C 52.537989 74.380927 52.049829 74.178725 51.540893 74.178725 
C 51.031956 74.178725 50.543796 74.380927 50.183924 74.7408 
C 49.824051 75.100672 49.621849 75.588832 49.621849 76.097769 
C 49.621849 76.606705 49.824051 77.094865 50.183924 77.454738 
C 50.543796 77.81461 51.031956 78.016813 51.540893 78.016813 
z
" clip-path="url(#p68ce02ea16)" style="stroke: #000000"/>
    <path d="M 47.010046 59.436545 
C 47.517806 59.436545 48.004837 59.23481 48.363878 58.875769 
C 48.722918 58.516729 48.924653 58.029698 48.924653 57.521938 
C 48.924653 57.014178 48.722918 56.527147 48.363878 56.168106 
C 48.004837 55.809066 47.517806 55.607331 47.010046 55.607331 
C 46.502286 55.607331 46.015255 55.809066 45.656215 56.168106 
C 45.297174 56.527147 45.095439 57.014178 45.095439 57.521938 
C 45.095439 58.029698 45.297174 58.516729 45.656215 58.875769 
C 46.015255 59.23481 46.502286 59.436545 47.010046 59.436545 
z
" clip-path="url(#p68ce02ea16)" style="stroke: #000000"/>
    <path d="M 48.431204 51.026059 
C 48.930488 51.026059 49.40939 50.827692 49.762437 50.474645 
C 50.115484 50.121598 50.313851 49.642696 50.313851 49.143412 
C 50.313851 48.644128 50.115484 48.165226 49.762437 47.812179 
C 49.40939 47.459132 48.930488 47.260764 48.431204 47.260764 
C 47.93192 47.260764 47.453018 47.459132 47.099971 47.812179 
C 46.746924 48.165226 46.548556 48.644128 46.548556 49.143412 
C 46.548556 49.642696 46.746924 50.121598 47.099971 50.474645 
C 47.453018 50.827692 47.93192 51.026059 48.431204 51.026059 
z
" clip-path="url(#p68ce02ea16)" style="stroke: #000000"/>
    <path d="M 44.178432 39.180652 
C 44.178432 39.180652 44.178432 39.180652 44.178432 39.180652 
C 44.178432 39.180652 44.178432 39.180652 44.178432 39.180652 
C 44.178432 39.180652 44.178432 39.180652 44.178432 39.180652 
C 44.178432 39.180652 44.178432 39.180652 44.178432 39.180652 
C 44.178432 39.180652 44.178432 39.180652 44.178432 39.180652 
C 44.178432 39.180652 44.178432 39.180652 44.178432 39.180652 
C 44.178432 39.180652 44.178432 39.180652 44.178432 39.180652 
C 44.178432 39.180652 44.178432 39.180652 44.178432 39.180652 
z
" clip-path="url(#p68ce02ea16)" style="stroke: #000000"/>
    <path d="M 79.269626 178.535823 
C 79.269626 178.535823 79.269626 178.535823 79.269626 178.535823 
C 79.269626 178.535823 79.269626 178.535823 79.269626 178.535823 
C 79.269626 178.535823 79.269626 178.535823 79.269626 178.535823 
C 79.269626 178.535823 79.269626 178.535823 79.269626 178.535823 
C 79.269626 178.535823 79.269626 178.535823 79.269626 178.535823 
C 79.269626 178.535823 79.269626 178.535823 79.269626 178.535823 
C 79.269626 178.535823 79.269626 178.535823 79.269626 178.535823 
C 79.269626 178.535823 79.269626 178.535823 79.269626 178.535823 
z
" clip-path="url(#p68ce02ea16)" style="stroke: #000000"/>
    <path d="M 77.904478 169.289069 
C 77.904478 169.289069 77.904478 169.289069 77.904478 169.289069 
C 77.904478 169.289069 77.904478 169.289069 77.904478 169.289069 
C 77.904478 169.289069 77.904478 169.289069 77.904478 169.289069 
C 77.904478 169.289069 77.904478 169.289069 77.904478 169.289069 
C 77.904478 169.289069 77.904478 169.289069 77.904478 169.289069 
C 77.904478 169.289069 77.904478 169.289069 77.904478 169.289069 
C 77.904478 169.289069 77.904478 169.289069 77.904478 169.289069 
C 77.904478 169.289069 77.904478 169.289069 77.904478 169.289069 
z
" clip-path="url(#p68ce02ea16)" style="stroke: #000000"/>
    <path d="M 70.817272 156.288761 
C 70.817272 156.288761 70.817272 156.288761 70.817272 156.288761 
C 70.817272 156.288761 70.817272 156.288761 70.817272 156.288761 
C 70.817272 156.288761 70.817272 156.288761 70.817272 156.288761 
C 70.817272 156.288761 70.817272 156.288761 70.817272 156.288761 
C 70.817272 156.288761 70.817272 156.288761 70.817272 156.288761 
C 70.817272 156.288761 70.817272 156.288761 70.817272 156.288761 
C 70.817272 156.288761 70.817272 156.288761 70.817272 156.288761 
C 70.817272 156.288761 70.817272 156.288761 70.817272 156.288761 
z
" clip-path="url(#p68ce02ea16)" style="stroke: #000000"/>
    <path d="M 69.518783 149.523133 
C 69.518783 149.523133 69.518783 149.523133 69.518783 149.523133 
C 69.518783 149.523133 69.518783 149.523133 69.518783 149.523133 
C 69.518783 149.523133 69.518783 149.523133 69.518783 149.523133 
C 69.518783 149.523133 69.518783 149.523133 69.518783 149.523133 
C 69.518783 149.523133 69.518783 149.523133 69.518783 149.523133 
C 69.518783 149.523133 69.518783 149.523133 69.518783 149.523133 
C 69.518783 149.523133 69.518783 149.523133 69.518783 149.523133 
C 69.518783 149.523133 69.518783 149.523133 69.518783 149.523133 
z
" clip-path="url(#p68ce02ea16)" style="stroke: #000000"/>
    <path d="M 64.454316 137.811893 
C 65.047329 137.811893 65.616132 137.576287 66.035455 137.156964 
C 66.454778 136.737641 66.690384 136.168837 66.690384 135.575825 
C 66.690384 134.982813 66.454778 134.414009 66.035455 133.994686 
C 65.616132 133.575363 65.047329 133.339757 64.454316 133.339757 
C 63.861304 133.339757 63.292501 133.575363 62.873178 133.994686 
C 62.453855 134.414009 62.218249 134.982813 62.218249 135.575825 
C 62.218249 136.168837 62.453855 136.737641 62.873178 137.156964 
C 63.292501 137.576287 63.861304 137.811893 64.454316 137.811893 
z
" clip-path="url(#p68ce02ea16)" style="stroke: #000000"/>
    <path d="M 58.726886 127.702175 
C 58.942572 127.702175 59.149454 127.616482 59.301967 127.463969 
C 59.454481 127.311455 59.540174 127.104574 59.540174 126.888887 
C 59.540174 126.673201 59.454481 126.466319 59.301967 126.313806 
C 59.149454 126.161292 58.942572 126.075599 58.726886 126.075599 
C 58.511199 126.075599 58.304318 126.161292 58.151804 126.313806 
C 57.999291 126.466319 57.913597 126.673201 57.913597 126.888887 
C 57.913597 127.104574 57.999291 127.311455 58.151804 127.463969 
C 58.304318 127.616482 58.511199 127.702175 58.726886 127.702175 
z
" clip-path="url(#p68ce02ea16)" style="stroke: #000000"/>
    <path d="M 56.510851 119.898923 
C 57.104234 119.898923 57.673393 119.66317 58.092977 119.243585 
C 58.512562 118.824001 58.748315 118.254842 58.748315 117.661459 
C 58.748315 117.068077 58.512562 116.498918 58.092977 116.079333 
C 57.673393 115.659748 57.104234 115.423995 56.510851 115.423995 
C 55.917469 115.423995 55.34831 115.659748 54.928725 116.079333 
C 54.50914 116.498918 54.273387 117.068077 54.273387 117.661459 
C 54.273387 118.254842 54.50914 118.824001 54.928725 119.243585 
C 55.34831 119.66317 55.917469 119.898923 56.510851 119.898923 
z
" clip-path="url(#p68ce02ea16)" style="stroke: #000000"/>
    <path d="M 52.357097 106.213615 
C 52.90524 106.213615 53.431007 105.995835 53.818603 105.608239 
C 54.206199 105.220643 54.423979 104.694876 54.423979 104.146733 
C 54.423979 103.598589 54.206199 103.072823 53.818603 102.685227 
C 53.431007 102.297631 52.90524 102.079851 52.357097 102.079851 
C 51.808953 102.079851 51.283186 102.297631 50.89559 102.685227 
C 50.507994 103.072823 50.290214 103.598589 50.290214 104.146733 
C 50.290214 104.694876 50.507994 105.220643 50.89559 105.608239 
C 51.283186 105.995835 51.808953 106.213615 52.357097 106.213615 
z
" clip-path="url(#p68ce02ea16)" style="stroke: #000000"/>
    <path d="M 53.348168 97.271374 
C 53.94118 97.271374 54.509983 97.035768 54.929306 96.616445 
C 55.348629 96.197122 55.584235 95.628318 55.584235 95.035306 
C 55.584235 94.442294 55.348629 93.87349 54.929306 93.454167 
C 54.509983 93.034844 53.94118 92.799238 53.348168 92.799238 
C 52.755155 92.799238 52.186352 93.034844 51.767029 93.454167 
C 51.347706 93.87349 51.1121 94.442294 51.1121 95.035306 
C 51.1121 95.628318 51.347706 96.197122 51.767029 96.616445 
C 52.186352 97.035768 52.755155 97.271374 53.348168 97.271374 
z
" clip-path="url(#p68ce02ea16)" style="stroke: #000000"/>
    <path d="M 46.869217 84.569915 
C 46.869217 84.569915 46.869217 84.569915 46.869217 84.569915 
C 46.869217 84.569915 46.869217 84.569915 46.869217 84.569915 
C 46.869217 84.569915 46.869217 84.569915 46.869217 84.569915 
C 46.869217 84.569915 46.869217 84.569915 46.869217 84.569915 
C 46.869217 84.569915 46.869217 84.569915 46.869217 84.569915 
C 46.869217 84.569915 46.869217 84.569915 46.869217 84.569915 
C 46.869217 84.569915 46.869217 84.569915 46.869217 84.569915 
C 46.869217 84.569915 46.869217 84.569915 46.869217 84.569915 
z
" clip-path="url(#p68ce02ea16)" style="stroke: #000000"/>
    <path d="M 40.44999 80.876455 
C 40.44999 80.876455 40.44999 80.876455 40.44999 80.876455 
C 40.44999 80.876455 40.44999 80.876455 40.44999 80.876455 
C 40.44999 80.876455 40.44999 80.876455 40.44999 80.876455 
C 40.44999 80.876455 40.44999 80.876455 40.44999 80.876455 
C 40.44999 80.876455 40.44999 80.876455 40.44999 80.876455 
C 40.44999 80.876455 40.44999 80.876455 40.44999 80.876455 
C 40.44999 80.876455 40.44999 80.876455 40.44999 80.876455 
C 40.44999 80.876455 40.44999 80.876455 40.44999 80.876455 
z
" clip-path="url(#p68ce02ea16)" style="stroke: #000000"/>
    <path d="M 39.793158 64.796302 
C 40.301508 64.796302 40.789104 64.594332 41.148561 64.234875 
C 41.508019 63.875418 41.709988 63.387821 41.709988 62.879472 
C 41.709988 62.371123 41.508019 61.883526 41.148561 61.524069 
C 40.789104 61.164612 40.301508 60.962643 39.793158 60.962643 
C 39.284809 60.962643 38.797213 61.164612 38.437755 61.524069 
C 38.078298 61.883526 37.876329 62.371123 37.876329 62.879472 
C 37.876329 63.387821 38.078298 63.875418 38.437755 64.234875 
C 38.797213 64.594332 39.284809 64.796302 39.793158 64.796302 
z
" clip-path="url(#p68ce02ea16)" style="stroke: #000000"/>
    <path d="M 38.997071 55.767054 
C 38.997071 55.767054 38.997071 55.767054 38.997071 55.767054 
C 38.997071 55.767054 38.997071 55.767054 38.997071 55.767054 
C 38.997071 55.767054 38.997071 55.767054 38.997071 55.767054 
C 38.997071 55.767054 38.997071 55.767054 38.997071 55.767054 
C 38.997071 55.767054 38.997071 55.767054 38.997071 55.767054 
C 38.997071 55.767054 38.997071 55.767054 38.997071 55.767054 
C 38.997071 55.767054 38.997071 55.767054 38.997071 55.767054 
C 38.997071 55.767054 38.997071 55.767054 38.997071 55.767054 
z
" clip-path="url(#p68ce02ea16)" style="stroke: #000000"/>
    <path d="M 66.386896 174.779966 
C 66.88618 174.779966 67.365082 174.581598 67.718129 174.228551 
C 68.071176 173.875504 68.269543 173.396602 68.269543 172.897318 
C 68.269543 172.398034 68.071176 171.919132 67.718129 171.566085 
C 67.365082 171.213038 66.88618 171.014671 66.386896 171.014671 
C 65.887612 171.014671 65.40871 171.213038 65.055663 171.566085 
C 64.702616 171.919132 64.504248 172.398034 64.504248 172.897318 
C 64.504248 173.396602 64.702616 173.875504 65.055663 174.228551 
C 65.40871 174.581598 65.887612 174.779966 66.386896 174.779966 
z
" clip-path="url(#p68ce02ea16)" style="stroke: #000000"/>
    <path d="M 59.110741 161.646857 
C 59.110741 161.646857 59.110741 161.646857 59.110741 161.646857 
C 59.110741 161.646857 59.110741 161.646857 59.110741 161.646857 
C 59.110741 161.646857 59.110741 161.646857 59.110741 161.646857 
C 59.110741 161.646857 59.110741 161.646857 59.110741 161.646857 
C 59.110741 161.646857 59.110741 161.646857 59.110741 161.646857 
C 59.110741 161.646857 59.110741 161.646857 59.110741 161.646857 
C 59.110741 161.646857 59.110741 161.646857 59.110741 161.646857 
C 59.110741 161.646857 59.110741 161.646857 59.110741 161.646857 
z
" clip-path="url(#p68ce02ea16)" style="stroke: #000000"/>
    <path d="M 57.778646 153.123471 
C 57.778646 153.123471 57.778646 153.123471 57.778646 153.123471 
C 57.778646 153.123471 57.778646 153.123471 57.778646 153.123471 
C 57.778646 153.123471 57.778646 153.123471 57.778646 153.123471 
C 57.778646 153.123471 57.778646 153.123471 57.778646 153.123471 
C 57.778646 153.123471 57.778646 153.123471 57.778646 153.123471 
C 57.778646 153.123471 57.778646 153.123471 57.778646 153.123471 
C 57.778646 153.123471 57.778646 153.123471 57.778646 153.123471 
C 57.778646 153.123471 57.778646 153.123471 57.778646 153.123471 
z
" clip-path="url(#p68ce02ea16)" style="stroke: #000000"/>
    <path d="M 57.305066 143.311099 
C 57.305066 143.311099 57.305066 143.311099 57.305066 143.311099 
C 57.305066 143.311099 57.305066 143.311099 57.305066 143.311099 
C 57.305066 143.311099 57.305066 143.311099 57.305066 143.311099 
C 57.305066 143.311099 57.305066 143.311099 57.305066 143.311099 
C 57.305066 143.311099 57.305066 143.311099 57.305066 143.311099 
C 57.305066 143.311099 57.305066 143.311099 57.305066 143.311099 
C 57.305066 143.311099 57.305066 143.311099 57.305066 143.311099 
C 57.305066 143.311099 57.305066 143.311099 57.305066 143.311099 
z
" clip-path="url(#p68ce02ea16)" style="stroke: #000000"/>
    <path d="M 51.247378 130.974167 
C 51.84039 130.974167 52.409193 130.738561 52.828516 130.319238 
C 53.247839 129.899915 53.483445 129.331111 53.483445 128.738099 
C 53.483445 128.145087 53.247839 127.576283 52.828516 127.15696 
C 52.409193 126.737637 51.84039 126.502031 51.247378 126.502031 
C 50.654365 126.502031 50.085562 126.737637 49.666239 127.15696 
C 49.246916 127.576283 49.01131 128.145087 49.01131 128.738099 
C 49.01131 129.331111 49.246916 129.899915 49.666239 130.319238 
C 50.085562 130.738561 50.654365 130.974167 51.247378 130.974167 
z
" clip-path="url(#p68ce02ea16)" style="stroke: #000000"/>
    <path d="M 43.59813 122.544085 
C 43.59813 122.544085 43.59813 122.544085 43.59813 122.544085 
C 43.59813 122.544085 43.59813 122.544085 43.59813 122.544085 
C 43.59813 122.544085 43.59813 122.544085 43.59813 122.544085 
C 43.59813 122.544085 43.59813 122.544085 43.59813 122.544085 
C 43.59813 122.544085 43.59813 122.544085 43.59813 122.544085 
C 43.59813 122.544085 43.59813 122.544085 43.59813 122.544085 
C 43.59813 122.544085 43.59813 122.544085 43.59813 122.544085 
C 43.59813 122.544085 43.59813 122.544085 43.59813 122.544085 
z
" clip-path="url(#p68ce02ea16)" style="stroke: #000000"/>
    <path d="M 43.858257 113.949938 
C 44.451269 113.949938 45.020073 113.714332 45.439396 113.295009 
C 45.858719 112.875686 46.094325 112.306882 46.094325 111.71387 
C 46.094325 111.120858 45.858719 110.552054 45.439396 110.132731 
C 45.020073 109.713409 44.451269 109.477802 43.858257 109.477802 
C 43.265245 109.477802 42.696441 109.713409 42.277118 110.132731 
C 41.857796 110.552054 41.622189 111.120858 41.622189 111.71387 
C 41.622189 112.306882 41.857796 112.875686 42.277118 113.295009 
C 42.696441 113.714332 43.265245 113.949938 43.858257 113.949938 
z
" clip-path="url(#p68ce02ea16)" style="stroke: #000000"/>
    <path d="M 38.560474 101.66862 
C 39.114619 101.66862 39.646142 101.448456 40.037982 101.056616 
C 40.429822 100.664777 40.649986 100.133253 40.649986 99.579108 
C 40.649986 99.024963 40.429822 98.493439 40.037982 98.101599 
C 39.646142 97.70976 39.114619 97.489595 38.560474 97.489595 
C 38.006329 97.489595 37.474805 97.70976 37.082965 98.101599 
C 36.691125 98.493439 36.470961 99.024963 36.470961 99.579108 
C 36.470961 100.133253 36.691125 100.664777 37.082965 101.056616 
C 37.474805 101.448456 38.006329 101.66862 38.560474 101.66862 
z
" clip-path="url(#p68ce02ea16)" style="stroke: #000000"/>
    <path d="M 39.699527 91.972288 
C 39.699527 91.972288 39.699527 91.972288 39.699527 91.972288 
C 39.699527 91.972288 39.699527 91.972288 39.699527 91.972288 
C 39.699527 91.972288 39.699527 91.972288 39.699527 91.972288 
C 39.699527 91.972288 39.699527 91.972288 39.699527 91.972288 
C 39.699527 91.972288 39.699527 91.972288 39.699527 91.972288 
C 39.699527 91.972288 39.699527 91.972288 39.699527 91.972288 
C 39.699527 91.972288 39.699527 91.972288 39.699527 91.972288 
C 39.699527 91.972288 39.699527 91.972288 39.699527 91.972288 
z
" clip-path="url(#p68ce02ea16)" style="stroke: #000000"/>
    <path d="M 36.605573 77.263782 
C 36.605573 77.263782 36.605573 77.263782 36.605573 77.263782 
C 36.605573 77.263782 36.605573 77.263782 36.605573 77.263782 
C 36.605573 77.263782 36.605573 77.263782 36.605573 77.263782 
C 36.605573 77.263782 36.605573 77.263782 36.605573 77.263782 
C 36.605573 77.263782 36.605573 77.263782 36.605573 77.263782 
C 36.605573 77.263782 36.605573 77.263782 36.605573 77.263782 
C 36.605573 77.263782 36.605573 77.263782 36.605573 77.263782 
C 36.605573 77.263782 36.605573 77.263782 36.605573 77.263782 
z
" clip-path="url(#p68ce02ea16)" style="stroke: #000000"/>
    <path d="M 51.168461 178.846507 
C 51.667745 178.846507 52.146647 178.648139 52.499694 178.295092 
C 52.852741 177.942045 53.051109 177.463143 53.051109 176.963859 
C 53.051109 176.464575 52.852741 175.985674 52.499694 175.632627 
C 52.146647 175.279579 51.667745 175.081212 51.168461 175.081212 
C 50.669177 175.081212 50.190275 175.279579 49.837228 175.632627 
C 49.484181 175.985674 49.285814 176.464575 49.285814 176.963859 
C 49.285814 177.463143 49.484181 177.942045 49.837228 178.295092 
C 50.190275 178.648139 50.669177 178.846507 51.168461 178.846507 
z
" clip-path="url(#p68ce02ea16)" style="stroke: #000000"/>
    <path d="M 50.467798 164.184437 
C 50.467798 164.184437 50.467798 164.184437 50.467798 164.184437 
C 50.467798 164.184437 50.467798 164.184437 50.467798 164.184437 
C 50.467798 164.184437 50.467798 164.184437 50.467798 164.184437 
C 50.467798 164.184437 50.467798 164.184437 50.467798 164.184437 
C 50.467798 164.184437 50.467798 164.184437 50.467798 164.184437 
C 50.467798 164.184437 50.467798 164.184437 50.467798 164.184437 
C 50.467798 164.184437 50.467798 164.184437 50.467798 164.184437 
C 50.467798 164.184437 50.467798 164.184437 50.467798 164.184437 
z
" clip-path="url(#p68ce02ea16)" style="stroke: #000000"/>
    <path d="M 44.461608 157.308645 
C 44.962745 157.308645 45.443424 157.109541 45.797781 156.755184 
C 46.152138 156.400827 46.351242 155.920148 46.351242 155.419012 
C 46.351242 154.917875 46.152138 154.437196 45.797781 154.082839 
C 45.443424 153.728482 44.962745 153.529378 44.461608 153.529378 
C 43.960472 153.529378 43.479793 153.728482 43.125436 154.082839 
C 42.771079 154.437196 42.571975 154.917875 42.571975 155.419012 
C 42.571975 155.920148 42.771079 156.400827 43.125436 156.755184 
C 43.479793 157.109541 43.960472 157.308645 44.461608 157.308645 
z
" clip-path="url(#p68ce02ea16)" style="stroke: #000000"/>
    <path d="M 44.717537 144.917201 
C 44.717537 144.917201 44.717537 144.917201 44.717537 144.917201 
C 44.717537 144.917201 44.717537 144.917201 44.717537 144.917201 
C 44.717537 144.917201 44.717537 144.917201 44.717537 144.917201 
C 44.717537 144.917201 44.717537 144.917201 44.717537 144.917201 
C 44.717537 144.917201 44.717537 144.917201 44.717537 144.917201 
C 44.717537 144.917201 44.717537 144.917201 44.717537 144.917201 
C 44.717537 144.917201 44.717537 144.917201 44.717537 144.917201 
C 44.717537 144.917201 44.717537 144.917201 44.717537 144.917201 
z
" clip-path="url(#p68ce02ea16)" style="stroke: #000000"/>
    <path d="M 43.708437 131.224981 
C 43.708437 131.224981 43.708437 131.224981 43.708437 131.224981 
C 43.708437 131.224981 43.708437 131.224981 43.708437 131.224981 
C 43.708437 131.224981 43.708437 131.224981 43.708437 131.224981 
C 43.708437 131.224981 43.708437 131.224981 43.708437 131.224981 
C 43.708437 131.224981 43.708437 131.224981 43.708437 131.224981 
C 43.708437 131.224981 43.708437 131.224981 43.708437 131.224981 
C 43.708437 131.224981 43.708437 131.224981 43.708437 131.224981 
C 43.708437 131.224981 43.708437 131.224981 43.708437 131.224981 
z
" clip-path="url(#p68ce02ea16)" style="stroke: #000000"/>
    <path d="M 41.183339 121.696807 
C 41.725762 121.696807 42.246042 121.4813 42.629593 121.097749 
C 43.013144 120.714198 43.228651 120.193918 43.228651 119.651495 
C 43.228651 119.109072 43.013144 118.588792 42.629593 118.205241 
C 42.246042 117.82169 41.725762 117.606183 41.183339 117.606183 
C 40.640916 117.606183 40.120636 117.82169 39.737085 118.205241 
C 39.353534 118.588792 39.138027 119.109072 39.138027 119.651495 
C 39.138027 120.193918 39.353534 120.714198 39.737085 121.097749 
C 40.120636 121.4813 40.640916 121.696807 41.183339 121.696807 
z
" clip-path="url(#p68ce02ea16)" style="stroke: #000000"/>
    <path d="M 34.815107 114.846857 
C 35.408119 114.846857 35.976922 114.611251 36.396245 114.191928 
C 36.815568 113.772605 37.051175 113.203801 37.051175 112.610789 
C 37.051175 112.017777 36.815568 111.448973 36.396245 111.029651 
C 35.976922 110.610328 35.408119 110.374721 34.815107 110.374721 
C 34.222094 110.374721 33.653291 110.610328 33.233968 111.029651 
C 32.814645 111.448973 32.579039 112.017777 32.579039 112.610789 
C 32.579039 113.203801 32.814645 113.772605 33.233968 114.191928 
C 33.653291 114.611251 34.222094 114.846857 34.815107 114.846857 
z
" clip-path="url(#p68ce02ea16)" style="stroke: #000000"/>
    <path d="M 47.437436 176.930416 
C 47.93672 176.930416 48.415622 176.732048 48.768669 176.379001 
C 49.121716 176.025954 49.320083 175.547052 49.320083 175.047768 
C 49.320083 174.548484 49.121716 174.069583 48.768669 173.716536 
C 48.415622 173.363488 47.93672 173.165121 47.437436 173.165121 
C 46.938152 173.165121 46.45925 173.363488 46.106203 173.716536 
C 45.753156 174.069583 45.554788 174.548484 45.554788 175.047768 
C 45.554788 175.547052 45.753156 176.025954 46.106203 176.379001 
C 46.45925 176.732048 46.938152 176.930416 47.437436 176.930416 
z
" clip-path="url(#p68ce02ea16)" style="stroke: #000000"/>
    <path d="M 41.331058 168.738441 
C 41.331058 168.738441 41.331058 168.738441 41.331058 168.738441 
C 41.331058 168.738441 41.331058 168.738441 41.331058 168.738441 
C 41.331058 168.738441 41.331058 168.738441 41.331058 168.738441 
C 41.331058 168.738441 41.331058 168.738441 41.331058 168.738441 
C 41.331058 168.738441 41.331058 168.738441 41.331058 168.738441 
C 41.331058 168.738441 41.331058 168.738441 41.331058 168.738441 
C 41.331058 168.738441 41.331058 168.738441 41.331058 168.738441 
C 41.331058 168.738441 41.331058 168.738441 41.331058 168.738441 
z
" clip-path="url(#p68ce02ea16)" style="stroke: #000000"/>
    <path d="M 37.857705 157.715462 
C 38.356989 157.715462 38.835891 157.517095 39.188938 157.164048 
C 39.541985 156.811 39.740352 156.332099 39.740352 155.832815 
C 39.740352 155.333531 39.541985 154.854629 39.188938 154.501582 
C 38.835891 154.148535 38.356989 153.950167 37.857705 153.950167 
C 37.358421 153.950167 36.879519 154.148535 36.526472 154.501582 
C 36.173425 154.854629 35.975057 155.333531 35.975057 155.832815 
C 35.975057 156.332099 36.173425 156.811 36.526472 157.164048 
C 36.879519 157.517095 37.358421 157.715462 37.857705 157.715462 
z
" clip-path="url(#p68ce02ea16)" style="stroke: #000000"/>
    <path d="M 31.522453 146.446163 
C 32.02359 146.446163 32.504269 146.24706 32.858626 145.892703 
C 33.212983 145.538346 33.412087 145.057667 33.412087 144.55653 
C 33.412087 144.055394 33.212983 143.574715 32.858626 143.220358 
C 32.504269 142.866 32.02359 142.666897 31.522453 142.666897 
C 31.021317 142.666897 30.540638 142.866 30.186281 143.220358 
C 29.831924 143.574715 29.63282 144.055394 29.63282 144.55653 
C 29.63282 145.057667 29.831924 145.538346 30.186281 145.892703 
C 30.540638 146.24706 31.021317 146.446163 31.522453 146.446163 
z
" clip-path="url(#p68ce02ea16)" style="stroke: #000000"/>
    <path d="M 26.870115 134.328761 
C 26.870115 134.328761 26.870115 134.328761 26.870115 134.328761 
C 26.870115 134.328761 26.870115 134.328761 26.870115 134.328761 
C 26.870115 134.328761 26.870115 134.328761 26.870115 134.328761 
C 26.870115 134.328761 26.870115 134.328761 26.870115 134.328761 
C 26.870115 134.328761 26.870115 134.328761 26.870115 134.328761 
C 26.870115 134.328761 26.870115 134.328761 26.870115 134.328761 
C 26.870115 134.328761 26.870115 134.328761 26.870115 134.328761 
C 26.870115 134.328761 26.870115 134.328761 26.870115 134.328761 
z
" clip-path="url(#p68ce02ea16)" style="stroke: #000000"/>
   </g>
   <g id="matplotlib.axis_1">
    <g id="xtick_1">
     <g id="line2d_1">
      <defs>
       <path id="m42b6b70c29" d="M 0 0 
L 0 3.5 
" style="stroke: #000000; stroke-width: 0.8"/>
      </defs>
      <g>
       <use xlink:href="#m42b6b70c29" x="18" y="189" style="stroke: #000000; stroke-width: 0.8"/>
      </g>
     </g>
     <g id="text_1">
      <!-- 10 -->
      <g transform="translate(7.447656 203.598437)scale(0.1 -0.1)">
       <defs>
        <path id="DejaVuSans-2212" d="M 678 2272 
L 4684 2272 
L 4684 1741 
L 678 1741 
L 678 2272 
z
" transform="scale(0.015625)"/>
        <path id="DejaVuSans-31" d="M 794 531 
L 1825 531 
L 1825 4091 
L 703 3866 
L 703 4441 
L 1819 4666 
L 2450 4666 
L 2450 531 
L 3481 531 
L 3481 0 
L 794 0 
L 794 531 
z
" transform="scale(0.015625)"/>
        <path id="DejaVuSans-30" d="M 2034 4250 
Q 1547 4250 1301 3770 
Q 1056 3291 1056 2328 
Q 1056 1369 1301 889 
Q 1547 409 2034 409 
Q 2525 409 2770 889 
Q 3016 1369 3016 2328 
Q 3016 3291 2770 3770 
Q 2525 4250 2034 4250 
z
M 2034 4750 
Q 2819 4750 3233 4129 
Q 3647 3509 3647 2328 
Q 3647 1150 3233 529 
Q 2819 -91 2034 -91 
Q 1250 -91 836 529 
Q 422 1150 422 2328 
Q 422 3509 836 4129 
Q 1250 4750 2034 4750 
z
" transform="scale(0.015625)"/>
       </defs>
       <use xlink:href="#DejaVuSans-2212"/>
       <use xlink:href="#DejaVuSans-31" x="83.789062"/>
       <use xlink:href="#DejaVuSans-30" x="147.412109"/>
      </g>
     </g>
    </g>
    <g id="xtick_2">
     <g id="line2d_2">
      <g>
       <use xlink:href="#m42b6b70c29" x="73.8" y="189" style="stroke: #000000; stroke-width: 0.8"/>
      </g>
     </g>
     <g id="text_2">
      <!-- 0 -->
      <g transform="translate(70.61875 203.598437)scale(0.1 -0.1)">
       <use xlink:href="#DejaVuSans-30"/>
      </g>
     </g>
    </g>
    <g id="xtick_3">
     <g id="line2d_3">
      <g>
       <use xlink:href="#m42b6b70c29" x="129.6" y="189" style="stroke: #000000; stroke-width: 0.8"/>
      </g>
     </g>
     <g id="text_3">
      <!-- 10 -->
      <g transform="translate(123.2375 203.598437)scale(0.1 -0.1)">
       <use xlink:href="#DejaVuSans-31"/>
       <use xlink:href="#DejaVuSans-30" x="63.623047"/>
      </g>
     </g>
    </g>
   </g>
   <g id="matplotlib.axis_2">
    <g id="ytick_1">
     <g id="line2d_4">
      <defs>
       <path id="m909013d14b" d="M 0 0 
L -3.5 0 
" style="stroke: #000000; stroke-width: 0.8"/>
      </defs>
      <g>
       <use xlink:href="#m909013d14b" x="18" y="189" style="stroke: #000000; stroke-width: 0.8"/>
      </g>
     </g>
     <g id="text_4">
      <!-- 15 -->
      <g transform="translate(-10.104688 192.799219)scale(0.1 -0.1)">
       <defs>
        <path id="DejaVuSans-35" d="M 691 4666 
L 3169 4666 
L 3169 4134 
L 1269 4134 
L 1269 2991 
Q 1406 3038 1543 3061 
Q 1681 3084 1819 3084 
Q 2600 3084 3056 2656 
Q 3513 2228 3513 1497 
Q 3513 744 3044 326 
Q 2575 -91 1722 -91 
Q 1428 -91 1123 -41 
Q 819 9 494 109 
L 494 744 
Q 775 591 1075 516 
Q 1375 441 1709 441 
Q 2250 441 2565 725 
Q 2881 1009 2881 1497 
Q 2881 1984 2565 2268 
Q 2250 2553 1709 2553 
Q 1456 2553 1204 2497 
Q 953 2441 691 2322 
L 691 4666 
z
" transform="scale(0.015625)"/>
       </defs>
       <use xlink:href="#DejaVuSans-2212"/>
       <use xlink:href="#DejaVuSans-31" x="83.789062"/>
       <use xlink:href="#DejaVuSans-35" x="147.412109"/>
      </g>
     </g>
    </g>
    <g id="ytick_2">
     <g id="line2d_5">
      <g>
       <use xlink:href="#m909013d14b" x="18" y="161.82" style="stroke: #000000; stroke-width: 0.8"/>
      </g>
     </g>
     <g id="text_5">
      <!-- 10 -->
      <g transform="translate(-10.104688 165.619219)scale(0.1 -0.1)">
       <use xlink:href="#DejaVuSans-2212"/>
       <use xlink:href="#DejaVuSans-31" x="83.789062"/>
       <use xlink:href="#DejaVuSans-30" x="147.412109"/>
      </g>
     </g>
    </g>
    <g id="ytick_3">
     <g id="line2d_6">
      <g>
       <use xlink:href="#m909013d14b" x="18" y="134.64" style="stroke: #000000; stroke-width: 0.8"/>
      </g>
     </g>
     <g id="text_6">
      <!-- 5 -->
      <g transform="translate(-3.742188 138.439219)scale(0.1 -0.1)">
       <use xlink:href="#DejaVuSans-2212"/>
       <use xlink:href="#DejaVuSans-35" x="83.789062"/>
      </g>
     </g>
    </g>
    <g id="ytick_4">
     <g id="line2d_7">
      <g>
       <use xlink:href="#m909013d14b" x="18" y="107.46" style="stroke: #000000; stroke-width: 0.8"/>
      </g>
     </g>
     <g id="text_7">
      <!-- 0 -->
      <g transform="translate(4.6375 111.259219)scale(0.1 -0.1)">
       <use xlink:href="#DejaVuSans-30"/>
      </g>
     </g>
    </g>
    <g id="ytick_5">
     <g id="line2d_8">
      <g>
       <use xlink:href="#m909013d14b" x="18" y="80.28" style="stroke: #000000; stroke-width: 0.8"/>
      </g>
     </g>
     <g id="text_8">
      <!-- 5 -->
      <g transform="translate(4.6375 84.079219)scale(0.1 -0.1)">
       <use xlink:href="#DejaVuSans-35"/>
      </g>
     </g>
    </g>
    <g id="ytick_6">
     <g id="line2d_9">
      <g>
       <use xlink:href="#m909013d14b" x="18" y="53.1" style="stroke: #000000; stroke-width: 0.8"/>
      </g>
     </g>
     <g id="text_9">
      <!-- 10 -->
      <g transform="translate(-1.725 56.899219)scale(0.1 -0.1)">
       <use xlink:href="#DejaVuSans-31"/>
       <use xlink:href="#DejaVuSans-30" x="63.623047"/>
      </g>
     </g>
    </g>
    <g id="ytick_7">
     <g id="line2d_10">
      <g>
       <use xlink:href="#m909013d14b" x="18" y="25.92" style="stroke: #000000; stroke-width: 0.8"/>
      </g>
     </g>
     <g id="text_10">
      <!-- 15 -->
      <g transform="translate(-1.725 29.719219)scale(0.1 -0.1)">
       <use xlink:href="#DejaVuSans-31"/>
       <use xlink:href="#DejaVuSans-35" x="63.623047"/>
      </g>
     </g>
    </g>
   </g>
   <g id="patch_3">
    <path d="M 18 189 
L 18 25.92 
" style="fill: none; stroke: #000000; stroke-width: 0.8; stroke-linejoin: miter; stroke-linecap: square"/>
   </g>
   <g id="patch_4">
    <path d="M 129.6 189 
L 129.6 25.92 
" style="fill: none; stroke: #000000; stroke-width: 0.8; stroke-linejoin: miter; stroke-linecap: square"/>
   </g>
   <g id="patch_5">
    <path d="M 18 189 
L 129.6 189 
" style="fill: none; stroke: #000000; stroke-width: 0.8; stroke-linejoin: miter; stroke-linecap: square"/>
   </g>
   <g id="patch_6">
    <path d="M 18 25.92 
L 129.6 25.92 
" style="fill: none; stroke: #000000; stroke-width: 0.8; stroke-linejoin: miter; stroke-linecap: square"/>
   </g>
  </g>
 </g>
 <defs>
  <clipPath id="p68ce02ea16">
   <rect x="18" y="25.92" width="111.6" height="163.08"/>
  </clipPath>
 </defs>
</svg>
