<?xml version="1.0" encoding="utf-8" standalone="no"?>
<!DOCTYPE svg PUBLIC "-//W3C//DTD SVG 1.1//EN"
  "http://www.w3.org/Graphics/SVG/1.1/DTD/svg11.dtd">
<svg xmlns:xlink="http://www.w3.org/1999/xlink" width="144pt" height="216pt" viewBox="0 0 144 216" xmlns="http://www.w3.org/2000/svg" version="1.1">
 <metadata>
  <rdf:RDF xmlns:dc="http://purl.org/dc/elements/1.1/" xmlns:cc="http://creativecommons.org/ns#" xmlns:rdf="http://www.w3.org/1999/02/22-rdf-syntax-ns#">
   <cc:Work>
    <dc:type rdf:resource="http://purl.org/dc/dcmitype/StillImage"/>
    <dc:date>2022-06-23T14:47:38.187820</dc:date>
    <dc:format>image/svg+xml</dc:format>
    <dc:creator>
     <cc:Agent>
      <dc:title>Matplotlib v3.5.1, https://matplotlib.org/</dc:title>
     </cc:Agent>
    </dc:creator>
   </cc:Work>
  </rdf:RDF>
 </metadata>
 <defs>
  <style type="text/css">*{stroke-linejoin: round; stroke-linecap: butt}</style>
 </defs>
 <g id="figure_1">
  <g id="patch_1">
   <path d="M 0 216 
L 144 216 
L 144 0 
L 0 0 
L 0 216 
z
" style="fill: none"/>
  </g>
  <g id="axes_1">
   <g id="patch_2">
    <path d="M 18 189 
L 129.6 189 
L 129.6 25.92 
L 18 25.92 
z
" style="fill: #ffffff"/>
   </g>
   <g id="PathCollection_1">
    <defs>
     <path id="m762d83d00a" d="M 0 2.738613 
C 0.726289 2.738613 1.422928 2.450055 1.936492 1.936492 
C 2.450055 1.422928 2.738613 0.726289 2.738613 0 
C 2.738613 -0.726289 2.450055 -1.422928 1.936492 -1.936492 
C 1.422928 -2.450055 0.726289 -2.738613 0 -2.738613 
C -0.726289 -2.738613 -1.422928 -2.450055 -1.936492 -1.936492 
C -2.450055 -1.422928 -2.738613 -0.726289 -2.738613 0 
C -2.738613 0.726289 -2.450055 1.422928 -1.936492 1.936492 
C -1.422928 2.450055 -0.726289 2.738613 0 2.738613 
z
" style="stroke: #ff0000; stroke-width: 1.75"/>
    </defs>
    <g clip-path="url(#p937582cacf)">
     <use xlink:href="#m762d83d00a" x="66.825" y="83.92143" style="fill: #ff0000; stroke: #ff0000; stroke-width: 1.75"/>
     <use xlink:href="#m762d83d00a" x="87.75" y="95.690715" style="fill: #ff0000; stroke: #ff0000; stroke-width: 1.75"/>
     <use xlink:href="#m762d83d00a" x="66.825" y="107.46" style="fill: #ff0000; stroke: #ff0000; stroke-width: 1.75"/>
     <use xlink:href="#m762d83d00a" x="73.8" y="119.229285" style="fill: #ff0000; stroke: #ff0000; stroke-width: 1.75"/>
     <use xlink:href="#m762d83d00a" x="87.75" y="119.229285" style="fill: #ff0000; stroke: #ff0000; stroke-width: 1.75"/>
     <use xlink:href="#m762d83d00a" x="66.825" y="130.99857" style="fill: #ff0000; stroke: #ff0000; stroke-width: 1.75"/>
     <use xlink:href="#m762d83d00a" x="80.775" y="130.99857" style="fill: #ff0000; stroke: #ff0000; stroke-width: 1.75"/>
    </g>
   </g>
   <g id="PathCollection_2">
    <defs>
     <path id="C0_0_96bcd2b143" d="M 0 2.738613 
C 0.726289 2.738613 1.422928 2.450055 1.936492 1.936492 
C 2.450055 1.422928 2.738613 0.726289 2.738613 -0 
C 2.738613 -0.726289 2.450055 -1.422928 1.936492 -1.936492 
C 1.422928 -2.450055 0.726289 -2.738613 0 -2.738613 
C -0.726289 -2.738613 -1.422928 -2.450055 -1.936492 -1.936492 
C -2.450055 -1.422928 -2.738613 -0.726289 -2.738613 0 
C -2.738613 0.726289 -2.450055 1.422928 -1.936492 1.936492 
C -1.422928 2.450055 -0.726289 2.738613 0 2.738613 
z
"/>
    </defs>
    <g clip-path="url(#p937582cacf)">
     <use xlink:href="#C0_0_96bcd2b143" x="80.775" y="83.92143" style="fill: none; stroke: #ff0000; stroke-width: 1.75"/>
    </g>
    <g clip-path="url(#p937582cacf)">
     <use xlink:href="#C0_0_96bcd2b143" x="59.85" y="95.690715" style="fill: none; stroke: #ff0000; stroke-width: 1.75"/>
    </g>
    <g clip-path="url(#p937582cacf)">
     <use xlink:href="#C0_0_96bcd2b143" x="73.8" y="95.690715" style="fill: none; stroke: #ff0000; stroke-width: 1.75"/>
    </g>
    <g clip-path="url(#p937582cacf)">
     <use xlink:href="#C0_0_96bcd2b143" x="52.875" y="107.46" style="fill: none; stroke: #ff0000; stroke-width: 1.75"/>
    </g>
    <g clip-path="url(#p937582cacf)">
     <use xlink:href="#C0_0_96bcd2b143" x="80.775" y="107.46" style="fill: none; stroke: #ff0000; stroke-width: 1.75"/>
    </g>
    <g clip-path="url(#p937582cacf)">
     <use xlink:href="#C0_0_96bcd2b143" x="94.725" y="107.46" style="fill: none; stroke: #ff0000; stroke-width: 1.75"/>
    </g>
    <g clip-path="url(#p937582cacf)">
     <use xlink:href="#C0_0_96bcd2b143" x="59.85" y="119.229285" style="fill: none; stroke: #ff0000; stroke-width: 1.75"/>
    </g>
   </g>
   <g id="PathCollection_3">
    <path d="M 112.211648 103.224818 
C 112.34425 103.224818 112.471438 103.172135 112.565201 103.078371 
C 112.658965 102.984608 112.711648 102.857419 112.711648 102.724818 
C 112.711648 102.592216 112.658965 102.465028 112.565201 102.371264 
C 112.471438 102.277501 112.34425 102.224818 112.211648 102.224818 
C 112.079047 102.224818 111.951858 102.277501 111.858095 102.371264 
C 111.764331 102.465028 111.711648 102.592216 111.711648 102.724818 
C 111.711648 102.857419 111.764331 102.984608 111.858095 103.078371 
C 111.951858 103.172135 112.079047 103.224818 112.211648 103.224818 
z
" clip-path="url(#p937582cacf)" style="stroke: #000000"/>
    <path d="M 102.079089 115.645248 
C 102.211691 115.645248 102.338879 115.592564 102.432643 115.498801 
C 102.526406 115.405037 102.579089 115.277849 102.579089 115.145248 
C 102.579089 115.012646 102.526406 114.885458 102.432643 114.791694 
C 102.338879 114.697931 102.211691 114.645248 102.079089 114.645248 
C 101.946488 114.645248 101.819299 114.697931 101.725536 114.791694 
C 101.631772 114.885458 101.579089 115.012646 101.579089 115.145248 
C 101.579089 115.277849 101.631772 115.405037 101.725536 115.498801 
C 101.819299 115.592564 101.946488 115.645248 102.079089 115.645248 
z
" clip-path="url(#p937582cacf)" style="stroke: #000000"/>
    <path d="M 100.468772 110.635441 
C 100.601374 110.635441 100.728562 110.582758 100.822326 110.488995 
C 100.916089 110.395231 100.968772 110.268043 100.968772 110.135441 
C 100.968772 110.00284 100.916089 109.875651 100.822326 109.781888 
C 100.728562 109.688125 100.601374 109.635441 100.468772 109.635441 
C 100.336171 109.635441 100.208982 109.688125 100.115219 109.781888 
C 100.021455 109.875651 99.968772 110.00284 99.968772 110.135441 
C 99.968772 110.268043 100.021455 110.395231 100.115219 110.488995 
C 100.208982 110.582758 100.336171 110.635441 100.468772 110.635441 
z
" clip-path="url(#p937582cacf)" style="stroke: #000000"/>
    <path d="M 97.04953 101.501259 
C 97.207221 101.501259 97.358474 101.438608 97.469978 101.327103 
C 97.581483 101.215599 97.644134 101.064346 97.644134 100.906655 
C 97.644134 100.748965 97.581483 100.597711 97.469978 100.486207 
C 97.358474 100.374703 97.207221 100.312052 97.04953 100.312052 
C 96.891839 100.312052 96.740586 100.374703 96.629082 100.486207 
C 96.517578 100.597711 96.454927 100.748965 96.454927 100.906655 
C 96.454927 101.064346 96.517578 101.215599 96.629082 101.327103 
C 96.740586 101.438608 96.891839 101.501259 97.04953 101.501259 
z
" clip-path="url(#p937582cacf)" style="stroke: #000000"/>
    <path d="M 97.951923 116.497938 
C 98.198722 116.497938 98.435446 116.399884 98.60996 116.22537 
C 98.784473 116.050857 98.882527 115.814133 98.882527 115.567333 
C 98.882527 115.320534 98.784473 115.08381 98.60996 114.909296 
C 98.435446 114.734783 98.198722 114.636729 97.951923 114.636729 
C 97.705123 114.636729 97.468399 114.734783 97.293886 114.909296 
C 97.119372 115.08381 97.021318 115.320534 97.021318 115.567333 
C 97.021318 115.814133 97.119372 116.050857 97.293886 116.22537 
C 97.468399 116.399884 97.705123 116.497938 97.951923 116.497938 
z
" clip-path="url(#p937582cacf)" style="stroke: #000000"/>
    <path d="M 96.931097 114.110623 
C 97.172586 114.110623 97.404217 114.014678 97.574975 113.84392 
C 97.745733 113.673162 97.841678 113.441531 97.841678 113.200043 
C 97.841678 112.958554 97.745733 112.726924 97.574975 112.556165 
C 97.404217 112.385407 97.172586 112.289463 96.931097 112.289463 
C 96.689609 112.289463 96.457978 112.385407 96.28722 112.556165 
C 96.116462 112.726924 96.020517 112.958554 96.020517 113.200043 
C 96.020517 113.441531 96.116462 113.673162 96.28722 113.84392 
C 96.457978 114.014678 96.689609 114.110623 96.931097 114.110623 
z
" clip-path="url(#p937582cacf)" style="stroke: #000000"/>
    <path d="M 94.437509 108.846514 
C 94.93429 108.846514 95.410792 108.649141 95.762069 108.297864 
C 96.113346 107.946586 96.31072 107.470085 96.31072 106.973304 
C 96.31072 106.476523 96.113346 106.000021 95.762069 105.648744 
C 95.410792 105.297467 94.93429 105.100093 94.437509 105.100093 
C 93.940728 105.100093 93.464227 105.297467 93.112949 105.648744 
C 92.761672 106.000021 92.564299 106.476523 92.564299 106.973304 
C 92.564299 107.470085 92.761672 107.946586 93.112949 108.297864 
C 93.464227 108.649141 93.940728 108.846514 94.437509 108.846514 
z
" clip-path="url(#p937582cacf)" style="stroke: #000000"/>
    <path d="M 89.65851 95.801688 
C 90.251522 95.801688 90.820326 95.566082 91.239649 95.146759 
C 91.658972 94.727436 91.894578 94.158632 91.894578 93.56562 
C 91.894578 92.972608 91.658972 92.403804 91.239649 91.984481 
C 90.820326 91.565158 90.251522 91.329552 89.65851 91.329552 
C 89.065498 91.329552 88.496694 91.565158 88.077371 91.984481 
C 87.658048 92.403804 87.422442 92.972608 87.422442 93.56562 
C 87.422442 94.158632 87.658048 94.727436 88.077371 95.146759 
C 88.496694 95.566082 89.065498 95.801688 89.65851 95.801688 
z
" clip-path="url(#p937582cacf)" style="stroke: #000000"/>
    <path d="M 84.108279 82.70892 
C 84.430806 82.70892 84.740166 82.580779 84.968227 82.352718 
C 85.196288 82.124658 85.324429 81.815297 85.324429 81.492771 
C 85.324429 81.170244 85.196288 80.860884 84.968227 80.632823 
C 84.740166 80.404762 84.430806 80.276621 84.108279 80.276621 
C 83.785753 80.276621 83.476392 80.404762 83.248332 80.632823 
C 83.020271 80.860884 82.89213 81.170244 82.89213 81.492771 
C 82.89213 81.815297 83.020271 82.124658 83.248332 82.352718 
C 83.476392 82.580779 83.785753 82.70892 84.108279 82.70892 
z
" clip-path="url(#p937582cacf)" style="stroke: #000000"/>
    <path d="M 91.454581 115.6964 
C 91.885954 115.6964 92.299718 115.525014 92.604745 115.219987 
C 92.909771 114.91496 93.081158 114.501197 93.081158 114.069824 
C 93.081158 113.638451 92.909771 113.224687 92.604745 112.91966 
C 92.299718 112.614634 91.885954 112.443247 91.454581 112.443247 
C 91.023208 112.443247 90.609445 112.614634 90.304418 112.91966 
C 89.999391 113.224687 89.828005 113.638451 89.828005 114.069824 
C 89.828005 114.501197 89.999391 114.91496 90.304418 115.219987 
C 90.609445 115.525014 91.023208 115.6964 91.454581 115.6964 
z
" clip-path="url(#p937582cacf)" style="stroke: #000000"/>
    <path d="M 87.138921 97.726403 
C 87.634436 97.726403 88.109723 97.529532 88.460106 97.17915 
C 88.810488 96.828767 89.007358 96.35348 89.007358 95.857965 
C 89.007358 95.362449 88.810488 94.887162 88.460106 94.53678 
C 88.109723 94.186397 87.634436 93.989527 87.138921 93.989527 
C 86.643405 93.989527 86.168118 94.186397 85.817735 94.53678 
C 85.467353 94.887162 85.270483 95.362449 85.270483 95.857965 
C 85.270483 96.35348 85.467353 96.828767 85.817735 97.17915 
C 86.168118 97.529532 86.643405 97.726403 87.138921 97.726403 
z
" clip-path="url(#p937582cacf)" style="stroke: #000000"/>
    <path d="M 83.09894 88.432006 
C 83.297225 88.432006 83.487416 88.353226 83.627625 88.213017 
C 83.767834 88.072808 83.846614 87.882617 83.846614 87.684332 
C 83.846614 87.486046 83.767834 87.295855 83.627625 87.155646 
C 83.487416 87.015437 83.297225 86.936657 83.09894 86.936657 
C 82.900654 86.936657 82.710463 87.015437 82.570254 87.155646 
C 82.430045 87.295855 82.351265 87.486046 82.351265 87.684332 
C 82.351265 87.882617 82.430045 88.072808 82.570254 88.213017 
C 82.710463 88.353226 82.900654 88.432006 83.09894 88.432006 
z
" clip-path="url(#p937582cacf)" style="stroke: #000000"/>
    <path d="M 82.076926 84.559438 
C 82.333422 84.559438 82.579447 84.457531 82.760817 84.276161 
C 82.942187 84.094791 83.044094 83.848766 83.044094 83.59227 
C 83.044094 83.335774 82.942187 83.089749 82.760817 82.908378 
C 82.579447 82.727008 82.333422 82.625101 82.076926 82.625101 
C 81.82043 82.625101 81.574405 82.727008 81.393035 82.908378 
C 81.211665 83.089749 81.109758 83.335774 81.109758 83.59227 
C 81.109758 83.848766 81.211665 84.094791 81.393035 84.276161 
C 81.574405 84.457531 81.82043 84.559438 82.076926 84.559438 
z
" clip-path="url(#p937582cacf)" style="stroke: #000000"/>
    <path d="M 88.661441 120.933062 
C 89.146463 120.933062 89.611686 120.740361 89.954649 120.397398 
C 90.297611 120.054435 90.490313 119.589213 90.490313 119.10419 
C 90.490313 118.619168 90.297611 118.153945 89.954649 117.810983 
C 89.611686 117.46802 89.146463 117.275319 88.661441 117.275319 
C 88.176419 117.275319 87.711196 117.46802 87.368233 117.810983 
C 87.025271 118.153945 86.832569 118.619168 86.832569 119.10419 
C 86.832569 119.589213 87.025271 120.054435 87.368233 120.397398 
C 87.711196 120.740361 88.176419 120.933062 88.661441 120.933062 
z
" clip-path="url(#p937582cacf)" style="stroke: #000000"/>
    <path d="M 86.368171 114.444346 
C 86.555698 114.444346 86.735569 114.36984 86.868171 114.237239 
C 87.000772 114.104637 87.075278 113.924766 87.075278 113.737239 
C 87.075278 113.549712 87.000772 113.36984 86.868171 113.237239 
C 86.735569 113.104637 86.555698 113.030132 86.368171 113.030132 
C 86.180644 113.030132 86.000772 113.104637 85.868171 113.237239 
C 85.735569 113.36984 85.661064 113.549712 85.661064 113.737239 
C 85.661064 113.924766 85.735569 114.104637 85.868171 114.237239 
C 86.000772 114.36984 86.180644 114.444346 86.368171 114.444346 
z
" clip-path="url(#p937582cacf)" style="stroke: #000000"/>
    <path d="M 84.309559 107.728272 
C 84.881456 107.728272 85.430006 107.501055 85.834398 107.096662 
C 86.23879 106.69227 86.466007 106.14372 86.466007 105.571823 
C 86.466007 104.999927 86.23879 104.451376 85.834398 104.046984 
C 85.430006 103.642592 84.881456 103.415375 84.309559 103.415375 
C 83.737662 103.415375 83.189112 103.642592 82.78472 104.046984 
C 82.380328 104.451376 82.153111 104.999927 82.153111 105.571823 
C 82.153111 106.14372 82.380328 106.69227 82.78472 107.096662 
C 83.189112 107.501055 83.737662 107.728272 84.309559 107.728272 
z
" clip-path="url(#p937582cacf)" style="stroke: #000000"/>
    <path d="M 82.536184 97.435654 
C 82.723711 97.435654 82.903583 97.361149 83.036184 97.228547 
C 83.168786 97.095945 83.243291 96.916074 83.243291 96.728547 
C 83.243291 96.54102 83.168786 96.361149 83.036184 96.228547 
C 82.903583 96.095945 82.723711 96.02144 82.536184 96.02144 
C 82.348657 96.02144 82.168786 96.095945 82.036184 96.228547 
C 81.903583 96.361149 81.829077 96.54102 81.829077 96.728547 
C 81.829077 96.916074 81.903583 97.095945 82.036184 97.228547 
C 82.168786 97.361149 82.348657 97.435654 82.536184 97.435654 
z
" clip-path="url(#p937582cacf)" style="stroke: #000000"/>
    <path d="M 78.476514 87.8955 
C 78.634205 87.8955 78.785458 87.832849 78.896962 87.721345 
C 79.008467 87.609841 79.071118 87.458587 79.071118 87.300897 
C 79.071118 87.143206 79.008467 86.991953 78.896962 86.880448 
C 78.785458 86.768944 78.634205 86.706293 78.476514 86.706293 
C 78.318824 86.706293 78.16757 86.768944 78.056066 86.880448 
C 77.944562 86.991953 77.881911 87.143206 77.881911 87.300897 
C 77.881911 87.458587 77.944562 87.609841 78.056066 87.721345 
C 78.16757 87.832849 78.318824 87.8955 78.476514 87.8955 
z
" clip-path="url(#p937582cacf)" style="stroke: #000000"/>
    <path d="M 78.505777 86.848519 
C 79.003814 86.848519 79.48152 86.650647 79.833686 86.298481 
C 80.185851 85.946315 80.383723 85.468609 80.383723 84.970572 
C 80.383723 84.472535 80.185851 83.994829 79.833686 83.642663 
C 79.48152 83.290498 79.003814 83.092625 78.505777 83.092625 
C 78.007739 83.092625 77.530033 83.290498 77.177868 83.642663 
C 76.825702 83.994829 76.62783 84.472535 76.62783 84.970572 
C 76.62783 85.468609 76.825702 85.946315 77.177868 86.298481 
C 77.530033 86.650647 78.007739 86.848519 78.505777 86.848519 
z
" clip-path="url(#p937582cacf)" style="stroke: #000000"/>
    <path d="M 75.624845 81.53858 
C 75.782536 81.53858 75.933789 81.475929 76.045293 81.364425 
C 76.156797 81.252921 76.219449 81.101668 76.219449 80.943977 
C 76.219449 80.786286 76.156797 80.635033 76.045293 80.523529 
C 75.933789 80.412024 75.782536 80.349373 75.624845 80.349373 
C 75.467154 80.349373 75.315901 80.412024 75.204397 80.523529 
C 75.092893 80.635033 75.030241 80.786286 75.030241 80.943977 
C 75.030241 81.101668 75.092893 81.252921 75.204397 81.364425 
C 75.315901 81.475929 75.467154 81.53858 75.624845 81.53858 
z
" clip-path="url(#p937582cacf)" style="stroke: #000000"/>
    <path d="M 84.964843 122.14597 
C 85.46288 122.14597 85.940586 121.948098 86.292752 121.595932 
C 86.644917 121.243766 86.84279 120.76606 86.84279 120.268023 
C 86.84279 119.769986 86.644917 119.29228 86.292752 118.940114 
C 85.940586 118.587949 85.46288 118.390076 84.964843 118.390076 
C 84.466806 118.390076 83.989099 118.587949 83.636934 118.940114 
C 83.284768 119.29228 83.086896 119.769986 83.086896 120.268023 
C 83.086896 120.76606 83.284768 121.243766 83.636934 121.595932 
C 83.989099 121.948098 84.466806 122.14597 84.964843 122.14597 
z
" clip-path="url(#p937582cacf)" style="stroke: #000000"/>
    <path d="M 80.136484 108.41617 
C 80.481817 108.41617 80.813052 108.278968 81.05724 108.034781 
C 81.301427 107.790594 81.438629 107.459358 81.438629 107.114025 
C 81.438629 106.768692 81.301427 106.437457 81.05724 106.193269 
C 80.813052 105.949082 80.481817 105.81188 80.136484 105.81188 
C 79.791151 105.81188 79.459915 105.949082 79.215728 106.193269 
C 78.971541 106.437457 78.834338 106.768692 78.834338 107.114025 
C 78.834338 107.459358 78.971541 107.790594 79.215728 108.034781 
C 79.459915 108.278968 79.791151 108.41617 80.136484 108.41617 
z
" clip-path="url(#p937582cacf)" style="stroke: #000000"/>
    <path d="M 75.376783 94.270852 
C 75.649911 94.270852 75.91189 94.162337 76.105021 93.969206 
C 76.298152 93.776075 76.406667 93.514097 76.406667 93.240969 
C 76.406667 92.96784 76.298152 92.705862 76.105021 92.512731 
C 75.91189 92.3196 75.649911 92.211085 75.376783 92.211085 
C 75.103655 92.211085 74.841676 92.3196 74.648545 92.512731 
C 74.455415 92.705862 74.346899 92.96784 74.346899 93.240969 
C 74.346899 93.514097 74.455415 93.776075 74.648545 93.969206 
C 74.841676 94.162337 75.103655 94.270852 75.376783 94.270852 
z
" clip-path="url(#p937582cacf)" style="stroke: #000000"/>
    <path d="M 73.598205 93.021107 
C 74.090513 93.021107 74.562724 92.825511 74.910838 92.477397 
C 75.258953 92.129283 75.454549 91.657072 75.454549 91.164764 
C 75.454549 90.672456 75.258953 90.200245 74.910838 89.85213 
C 74.562724 89.504016 74.090513 89.30842 73.598205 89.30842 
C 73.105897 89.30842 72.633686 89.504016 72.285572 89.85213 
C 71.937457 90.200245 71.741861 90.672456 71.741861 91.164764 
C 71.741861 91.657072 71.937457 92.129283 72.285572 92.477397 
C 72.633686 92.825511 73.105897 93.021107 73.598205 93.021107 
z
" clip-path="url(#p937582cacf)" style="stroke: #000000"/>
    <path d="M 72.763004 85.317594 
C 72.937517 85.317594 73.104907 85.24826 73.228306 85.12486 
C 73.351706 85.00146 73.421041 84.834071 73.421041 84.659557 
C 73.421041 84.485044 73.351706 84.317655 73.228306 84.194255 
C 73.104907 84.070855 72.937517 84.00152 72.763004 84.00152 
C 72.588491 84.00152 72.421101 84.070855 72.297702 84.194255 
C 72.174302 84.317655 72.104967 84.485044 72.104967 84.659557 
C 72.104967 84.834071 72.174302 85.00146 72.297702 85.12486 
C 72.421101 85.24826 72.588491 85.317594 72.763004 85.317594 
z
" clip-path="url(#p937582cacf)" style="stroke: #000000"/>
    <path d="M 83.103528 136.63772 
C 83.69654 136.63772 84.265344 136.402113 84.684667 135.98279 
C 85.10399 135.563468 85.339596 134.994664 85.339596 134.401652 
C 85.339596 133.80864 85.10399 133.239836 84.684667 132.820513 
C 84.265344 132.40119 83.69654 132.165584 83.103528 132.165584 
C 82.510516 132.165584 81.941712 132.40119 81.522389 132.820513 
C 81.103066 133.239836 80.86746 133.80864 80.86746 134.401652 
C 80.86746 134.994664 81.103066 135.563468 81.522389 135.98279 
C 81.941712 136.402113 82.510516 136.63772 83.103528 136.63772 
z
" clip-path="url(#p937582cacf)" style="stroke: #000000"/>
    <path d="M 84.351494 132.794164 
C 84.944506 132.794164 85.51331 132.558558 85.932633 132.139235 
C 86.351956 131.719912 86.587562 131.151109 86.587562 130.558096 
C 86.587562 129.965084 86.351956 129.396281 85.932633 128.976958 
C 85.51331 128.557635 84.944506 128.322029 84.351494 128.322029 
C 83.758482 128.322029 83.189678 128.557635 82.770355 128.976958 
C 82.351032 129.396281 82.115426 129.965084 82.115426 130.558096 
C 82.115426 131.151109 82.351032 131.719912 82.770355 132.139235 
C 83.189678 132.558558 83.758482 132.794164 84.351494 132.794164 
z
" clip-path="url(#p937582cacf)" style="stroke: #000000"/>
    <path d="M 73.123293 100.510764 
C 73.31082 100.510764 73.490691 100.436259 73.623293 100.303657 
C 73.755894 100.171056 73.830399 99.991184 73.830399 99.803657 
C 73.830399 99.616131 73.755894 99.436259 73.623293 99.303657 
C 73.490691 99.171056 73.31082 99.096551 73.123293 99.096551 
C 72.935766 99.096551 72.755894 99.171056 72.623293 99.303657 
C 72.490691 99.436259 72.416186 99.616131 72.416186 99.803657 
C 72.416186 99.991184 72.490691 100.171056 72.623293 100.303657 
C 72.755894 100.436259 72.935766 100.510764 73.123293 100.510764 
z
" clip-path="url(#p937582cacf)" style="stroke: #000000"/>
    <path d="M 72.417173 96.572224 
C 72.678132 96.572224 72.928437 96.468544 73.112963 96.284018 
C 73.297488 96.099493 73.401168 95.849188 73.401168 95.588229 
C 73.401168 95.327271 73.297488 95.076965 73.112963 94.89244 
C 72.928437 94.707914 72.678132 94.604234 72.417173 94.604234 
C 72.156215 94.604234 71.905909 94.707914 71.721384 94.89244 
C 71.536858 95.076965 71.433178 95.327271 71.433178 95.588229 
C 71.433178 95.849188 71.536858 96.099493 71.721384 96.284018 
C 71.905909 96.468544 72.156215 96.572224 72.417173 96.572224 
z
" clip-path="url(#p937582cacf)" style="stroke: #000000"/>
    <path d="M 68.394619 92.969948 
C 68.592905 92.969948 68.783096 92.891169 68.923305 92.75096 
C 69.063514 92.610751 69.142294 92.42056 69.142294 92.222274 
C 69.142294 92.023988 69.063514 91.833797 68.923305 91.693588 
C 68.783096 91.553379 68.592905 91.4746 68.394619 91.4746 
C 68.196334 91.4746 68.006143 91.553379 67.865934 91.693588 
C 67.725725 91.833797 67.646945 92.023988 67.646945 92.222274 
C 67.646945 92.42056 67.725725 92.610751 67.865934 92.75096 
C 68.006143 92.891169 68.196334 92.969948 68.394619 92.969948 
z
" clip-path="url(#p937582cacf)" style="stroke: #000000"/>
    <path d="M 68.060019 87.147048 
C 68.311807 87.147048 68.553316 87.047011 68.731357 86.868971 
C 68.909397 86.69093 69.009434 86.449421 69.009434 86.197633 
C 69.009434 85.945846 68.909397 85.704337 68.731357 85.526296 
C 68.553316 85.348255 68.311807 85.248219 68.060019 85.248219 
C 67.808231 85.248219 67.566722 85.348255 67.388682 85.526296 
C 67.210641 85.704337 67.110605 85.945846 67.110605 86.197633 
C 67.110605 86.449421 67.210641 86.69093 67.388682 86.868971 
C 67.566722 87.047011 67.808231 87.147048 68.060019 87.147048 
z
" clip-path="url(#p937582cacf)" style="stroke: #000000"/>
    <path d="M 67.674574 83.513191 
C 67.89026 83.513191 68.097142 83.427498 68.249655 83.274985 
C 68.402169 83.122471 68.487862 82.91559 68.487862 82.699903 
C 68.487862 82.484216 68.402169 82.277335 68.249655 82.124821 
C 68.097142 81.972308 67.89026 81.886615 67.674574 81.886615 
C 67.458887 81.886615 67.252005 81.972308 67.099492 82.124821 
C 66.946978 82.277335 66.861285 82.484216 66.861285 82.699903 
C 66.861285 82.91559 66.946978 83.122471 67.099492 83.274985 
C 67.252005 83.427498 67.458887 83.513191 67.674574 83.513191 
z
" clip-path="url(#p937582cacf)" style="stroke: #000000"/>
    <path d="M 73.578082 120.07101 
C 74.076119 120.07101 74.553825 119.873138 74.90599 119.520972 
C 75.258156 119.168806 75.456028 118.6911 75.456028 118.193063 
C 75.456028 117.695026 75.258156 117.21732 74.90599 116.865154 
C 74.553825 116.512989 74.076119 116.315116 73.578082 116.315116 
C 73.080044 116.315116 72.602338 116.512989 72.250173 116.865154 
C 71.898007 117.21732 71.700135 117.695026 71.700135 118.193063 
C 71.700135 118.6911 71.898007 119.168806 72.250173 119.520972 
C 72.602338 119.873138 73.080044 120.07101 73.578082 120.07101 
z
" clip-path="url(#p937582cacf)" style="stroke: #000000"/>
    <path d="M 70.679899 115.496602 
C 70.895585 115.496602 71.102467 115.410909 71.254981 115.258396 
C 71.407494 115.105882 71.493187 114.899 71.493187 114.683314 
C 71.493187 114.467627 71.407494 114.260746 71.254981 114.108232 
C 71.102467 113.955719 70.895585 113.870026 70.679899 113.870026 
C 70.464212 113.870026 70.257331 113.955719 70.104817 114.108232 
C 69.952304 114.260746 69.866611 114.467627 69.866611 114.683314 
C 69.866611 114.899 69.952304 115.105882 70.104817 115.258396 
C 70.257331 115.410909 70.464212 115.496602 70.679899 115.496602 
z
" clip-path="url(#p937582cacf)" style="stroke: #000000"/>
    <path d="M 62.20189 89.770038 
C 62.431562 89.770038 62.651859 89.678788 62.814262 89.516385 
C 62.976665 89.353982 63.067915 89.133685 63.067915 88.904012 
C 63.067915 88.67434 62.976665 88.454043 62.814262 88.29164 
C 62.651859 88.129237 62.431562 88.037987 62.20189 88.037987 
C 61.972217 88.037987 61.75192 88.129237 61.589517 88.29164 
C 61.427114 88.454043 61.335864 88.67434 61.335864 88.904012 
C 61.335864 89.133685 61.427114 89.353982 61.589517 89.516385 
C 61.75192 89.678788 61.972217 89.770038 62.20189 89.770038 
z
" clip-path="url(#p937582cacf)" style="stroke: #000000"/>
    <path d="M 61.847915 84.490712 
C 62.18139 84.490712 62.501252 84.358221 62.737055 84.122419 
C 62.972857 83.886616 63.105348 83.566754 63.105348 83.233279 
C 63.105348 82.899804 62.972857 82.579942 62.737055 82.344139 
C 62.501252 82.108337 62.18139 81.975845 61.847915 81.975845 
C 61.51444 81.975845 61.194578 82.108337 60.958775 82.344139 
C 60.722972 82.579942 60.590481 82.899804 60.590481 83.233279 
C 60.590481 83.566754 60.722972 83.886616 60.958775 84.122419 
C 61.194578 84.358221 61.51444 84.490712 61.847915 84.490712 
z
" clip-path="url(#p937582cacf)" style="stroke: #000000"/>
    <path d="M 72.859283 129.258234 
C 72.991884 129.258234 73.119073 129.205551 73.212836 129.111787 
C 73.3066 129.018024 73.359283 128.890835 73.359283 128.758234 
C 73.359283 128.625632 73.3066 128.498444 73.212836 128.40468 
C 73.119073 128.310917 72.991884 128.258234 72.859283 128.258234 
C 72.726681 128.258234 72.599493 128.310917 72.505729 128.40468 
C 72.411966 128.498444 72.359283 128.625632 72.359283 128.758234 
C 72.359283 128.890835 72.411966 129.018024 72.505729 129.111787 
C 72.599493 129.205551 72.726681 129.258234 72.859283 129.258234 
z
" clip-path="url(#p937582cacf)" style="stroke: #000000"/>
    <path d="M 70.35661 122.338703 
C 70.949251 122.338703 71.517699 122.103244 71.93676 121.684183 
C 72.35582 121.265123 72.591279 120.696675 72.591279 120.104034 
C 72.591279 119.511392 72.35582 118.942944 71.93676 118.523884 
C 71.517699 118.104823 70.949251 117.869364 70.35661 117.869364 
C 69.763969 117.869364 69.195521 118.104823 68.77646 118.523884 
C 68.3574 118.942944 68.121941 119.511392 68.121941 120.104034 
C 68.121941 120.696675 68.3574 121.265123 68.77646 121.684183 
C 69.195521 122.103244 69.763969 122.338703 70.35661 122.338703 
z
" clip-path="url(#p937582cacf)" style="stroke: #000000"/>
    <path d="M 66.352217 117.560952 
C 66.484819 117.560952 66.612007 117.508269 66.705771 117.414506 
C 66.799534 117.320742 66.852217 117.193554 66.852217 117.060952 
C 66.852217 116.928351 66.799534 116.801162 66.705771 116.707399 
C 66.612007 116.613635 66.484819 116.560952 66.352217 116.560952 
C 66.219616 116.560952 66.092427 116.613635 65.998664 116.707399 
C 65.9049 116.801162 65.852217 116.928351 65.852217 117.060952 
C 65.852217 117.193554 65.9049 117.320742 65.998664 117.414506 
C 66.092427 117.508269 66.219616 117.560952 66.352217 117.560952 
z
" clip-path="url(#p937582cacf)" style="stroke: #000000"/>
    <path d="M 65.952059 113.067541 
C 66.228904 113.067541 66.494448 112.957549 66.690207 112.76179 
C 66.885966 112.566031 66.995958 112.300487 66.995958 112.023642 
C 66.995958 111.746797 66.885966 111.481253 66.690207 111.285494 
C 66.494448 111.089735 66.228904 110.979743 65.952059 110.979743 
C 65.675214 110.979743 65.40967 111.089735 65.213911 111.285494 
C 65.018152 111.481253 64.90816 111.746797 64.90816 112.023642 
C 64.90816 112.300487 65.018152 112.566031 65.213911 112.76179 
C 65.40967 112.957549 65.675214 113.067541 65.952059 113.067541 
z
" clip-path="url(#p937582cacf)" style="stroke: #000000"/>
    <path d="M 64.939799 109.81558 
C 65.532811 109.81558 66.101614 109.579974 66.520937 109.160651 
C 66.94026 108.741328 67.175866 108.172524 67.175866 107.579512 
C 67.175866 106.9865 66.94026 106.417696 66.520937 105.998373 
C 66.101614 105.57905 65.532811 105.343444 64.939799 105.343444 
C 64.346786 105.343444 63.777983 105.57905 63.35866 105.998373 
C 62.939337 106.417696 62.703731 106.9865 62.703731 107.579512 
C 62.703731 108.172524 62.939337 108.741328 63.35866 109.160651 
C 63.777983 109.579974 64.346786 109.81558 64.939799 109.81558 
z
" clip-path="url(#p937582cacf)" style="stroke: #000000"/>
    <path d="M 64.98608 105.63179 
C 65.27647 105.63179 65.555004 105.516417 65.760341 105.311081 
C 65.965677 105.105745 66.08105 104.82721 66.08105 104.536821 
C 66.08105 104.246431 65.965677 103.967897 65.760341 103.76256 
C 65.555004 103.557224 65.27647 103.441851 64.98608 103.441851 
C 64.695691 103.441851 64.417156 103.557224 64.21182 103.76256 
C 64.006484 103.967897 63.891111 104.246431 63.891111 104.536821 
C 63.891111 104.82721 64.006484 105.105745 64.21182 105.311081 
C 64.417156 105.516417 64.695691 105.63179 64.98608 105.63179 
z
" clip-path="url(#p937582cacf)" style="stroke: #000000"/>
    <path d="M 61.637348 99.398343 
C 61.824875 99.398343 62.004747 99.323837 62.137348 99.191236 
C 62.26995 99.058634 62.344455 98.878763 62.344455 98.691236 
C 62.344455 98.503709 62.26995 98.323837 62.137348 98.191236 
C 62.004747 98.058634 61.824875 97.984129 61.637348 97.984129 
C 61.449821 97.984129 61.26995 98.058634 61.137348 98.191236 
C 61.004747 98.323837 60.930241 98.503709 60.930241 98.691236 
C 60.930241 98.878763 61.004747 99.058634 61.137348 99.191236 
C 61.26995 99.323837 61.449821 99.398343 61.637348 99.398343 
z
" clip-path="url(#p937582cacf)" style="stroke: #000000"/>
    <path d="M 61.281389 95.701025 
C 61.640846 95.701025 61.985629 95.558211 62.239803 95.304036 
C 62.493978 95.049862 62.636792 94.705079 62.636792 94.345622 
C 62.636792 93.986165 62.493978 93.641382 62.239803 93.387207 
C 61.985629 93.133032 61.640846 92.990219 61.281389 92.990219 
C 60.921932 92.990219 60.577148 93.133032 60.322974 93.387207 
C 60.068799 93.641382 59.925986 93.986165 59.925986 94.345622 
C 59.925986 94.705079 60.068799 95.049862 60.322974 95.304036 
C 60.577148 95.558211 60.921932 95.701025 61.281389 95.701025 
z
" clip-path="url(#p937582cacf)" style="stroke: #000000"/>
    <path d="M 61.407374 91.796475 
C 61.659162 91.796475 61.900671 91.696438 62.078712 91.518397 
C 62.256752 91.340357 62.356789 91.098848 62.356789 90.84706 
C 62.356789 90.595272 62.256752 90.353763 62.078712 90.175723 
C 61.900671 89.997682 61.659162 89.897646 61.407374 89.897646 
C 61.155586 89.897646 60.914078 89.997682 60.736037 90.175723 
C 60.557996 90.353763 60.45796 90.595272 60.45796 90.84706 
C 60.45796 91.098848 60.557996 91.340357 60.736037 91.518397 
C 60.914078 91.696438 61.155586 91.796475 61.407374 91.796475 
z
" clip-path="url(#p937582cacf)" style="stroke: #000000"/>
    <path d="M 68.92457 135.282502 
C 69.234904 135.282502 69.532569 135.159205 69.752008 134.939766 
C 69.971447 134.720327 70.094744 134.422662 70.094744 134.112329 
C 70.094744 133.801995 69.971447 133.50433 69.752008 133.284891 
C 69.532569 133.065452 69.234904 132.942155 68.92457 132.942155 
C 68.614237 132.942155 68.316572 133.065452 68.097133 133.284891 
C 67.877694 133.50433 67.754397 133.801995 67.754397 134.112329 
C 67.754397 134.422662 67.877694 134.720327 68.097133 134.939766 
C 68.316572 135.159205 68.614237 135.282502 68.92457 135.282502 
z
" clip-path="url(#p937582cacf)" style="stroke: #000000"/>
    <path d="M 67.176911 131.742734 
C 67.669866 131.742734 68.142697 131.546882 68.491268 131.19831 
C 68.83984 130.849738 69.035693 130.376908 69.035693 129.883953 
C 69.035693 129.390998 68.83984 128.918167 68.491268 128.569596 
C 68.142697 128.221024 67.669866 128.025171 67.176911 128.025171 
C 66.683957 128.025171 66.211126 128.221024 65.862554 128.569596 
C 65.513983 128.918167 65.31813 129.390998 65.31813 129.883953 
C 65.31813 130.376908 65.513983 130.849738 65.862554 131.19831 
C 66.211126 131.546882 66.683957 131.742734 67.176911 131.742734 
z
" clip-path="url(#p937582cacf)" style="stroke: #000000"/>
    <path d="M 58.524185 106.256865 
C 58.656787 106.256865 58.783975 106.204182 58.877738 106.110419 
C 58.971502 106.016655 59.024185 105.889467 59.024185 105.756865 
C 59.024185 105.624264 58.971502 105.497076 58.877738 105.403312 
C 58.783975 105.309549 58.656787 105.256865 58.524185 105.256865 
C 58.391583 105.256865 58.264395 105.309549 58.170632 105.403312 
C 58.076868 105.497076 58.024185 105.624264 58.024185 105.756865 
C 58.024185 105.889467 58.076868 106.016655 58.170632 106.110419 
C 58.264395 106.204182 58.391583 106.256865 58.524185 106.256865 
z
" clip-path="url(#p937582cacf)" style="stroke: #000000"/>
    <path d="M 57.78089 100.671897 
C 58.003898 100.671897 58.217803 100.583295 58.375493 100.425605 
C 58.533184 100.267914 58.621786 100.054009 58.621786 99.831001 
C 58.621786 99.607993 58.533184 99.394088 58.375493 99.236398 
C 58.217803 99.078707 58.003898 98.990105 57.78089 98.990105 
C 57.557881 98.990105 57.343977 99.078707 57.186286 99.236398 
C 57.028595 99.394088 56.939993 99.607993 56.939993 99.831001 
C 56.939993 100.054009 57.028595 100.267914 57.186286 100.425605 
C 57.343977 100.583295 57.557881 100.671897 57.78089 100.671897 
z
" clip-path="url(#p937582cacf)" style="stroke: #000000"/>
    <path d="M 57.452691 97.226972 
C 57.660224 97.226972 57.859284 97.144519 58.006032 96.997771 
C 58.15278 96.851023 58.235233 96.651962 58.235233 96.44443 
C 58.235233 96.236897 58.15278 96.037837 58.006032 95.891089 
C 57.859284 95.744341 57.660224 95.661888 57.452691 95.661888 
C 57.245158 95.661888 57.046098 95.744341 56.89935 95.891089 
C 56.752602 96.037837 56.670149 96.236897 56.670149 96.44443 
C 56.670149 96.651962 56.752602 96.851023 56.89935 96.997771 
C 57.046098 97.144519 57.245158 97.226972 57.452691 97.226972 
z
" clip-path="url(#p937582cacf)" style="stroke: #000000"/>
    <path d="M 59.618018 120.365098 
C 59.998799 120.365098 60.364036 120.213811 60.63329 119.944558 
C 60.902543 119.675305 61.053829 119.310068 61.053829 118.929287 
C 61.053829 118.548505 60.902543 118.183268 60.63329 117.914015 
C 60.364036 117.644762 59.998799 117.493476 59.618018 117.493476 
C 59.237236 117.493476 58.872 117.644762 58.602746 117.914015 
C 58.333493 118.183268 58.182207 118.548505 58.182207 118.929287 
C 58.182207 119.310068 58.333493 119.675305 58.602746 119.944558 
C 58.872 120.213811 59.237236 120.365098 59.618018 120.365098 
z
" clip-path="url(#p937582cacf)" style="stroke: #000000"/>
    <path d="M 56.545023 124.40544 
C 56.828883 124.40544 57.101155 124.292661 57.301873 124.091942 
C 57.502592 123.891223 57.615371 123.618952 57.615371 123.335092 
C 57.615371 123.051233 57.502592 122.778961 57.301873 122.578242 
C 57.101155 122.377523 56.828883 122.264745 56.545023 122.264745 
C 56.261164 122.264745 55.988892 122.377523 55.788173 122.578242 
C 55.587454 122.778961 55.474676 123.051233 55.474676 123.335092 
C 55.474676 123.618952 55.587454 123.891223 55.788173 124.091942 
C 55.988892 124.292661 56.261164 124.40544 56.545023 124.40544 
z
" clip-path="url(#p937582cacf)" style="stroke: #000000"/>
    <path d="M 53.226369 119.544868 
C 53.35897 119.544868 53.486158 119.492184 53.579922 119.398421 
C 53.673685 119.304657 53.726369 119.177469 53.726369 119.044868 
C 53.726369 118.912266 53.673685 118.785078 53.579922 118.691314 
C 53.486158 118.597551 53.35897 118.544868 53.226369 118.544868 
C 53.093767 118.544868 52.966579 118.597551 52.872815 118.691314 
C 52.779052 118.785078 52.726369 118.912266 52.726369 119.044868 
C 52.726369 119.177469 52.779052 119.304657 52.872815 119.398421 
C 52.966579 119.492184 53.093767 119.544868 53.226369 119.544868 
z
" clip-path="url(#p937582cacf)" style="stroke: #000000"/>
    <path d="M 53.833285 115.895462 
C 53.965887 115.895462 54.093075 115.842778 54.186839 115.749015 
C 54.280602 115.655251 54.333285 115.528063 54.333285 115.395462 
C 54.333285 115.26286 54.280602 115.135672 54.186839 115.041908 
C 54.093075 114.948145 53.965887 114.895462 53.833285 114.895462 
C 53.700684 114.895462 53.573495 114.948145 53.479732 115.041908 
C 53.385969 115.135672 53.333285 115.26286 53.333285 115.395462 
C 53.333285 115.528063 53.385969 115.655251 53.479732 115.749015 
C 53.573495 115.842778 53.700684 115.895462 53.833285 115.895462 
z
" clip-path="url(#p937582cacf)" style="stroke: #000000"/>
    <path d="M 53.242891 114.039392 
C 53.375493 114.039392 53.502681 113.986709 53.596444 113.892945 
C 53.690208 113.799182 53.742891 113.671993 53.742891 113.539392 
C 53.742891 113.40679 53.690208 113.279602 53.596444 113.185838 
C 53.502681 113.092075 53.375493 113.039392 53.242891 113.039392 
C 53.110289 113.039392 52.983101 113.092075 52.889338 113.185838 
C 52.795574 113.279602 52.742891 113.40679 52.742891 113.539392 
C 52.742891 113.671993 52.795574 113.799182 52.889338 113.892945 
C 52.983101 113.986709 53.110289 114.039392 53.242891 114.039392 
z
" clip-path="url(#p937582cacf)" style="stroke: #000000"/>
    <path d="M 49.186702 110.061363 
C 49.374229 110.061363 49.554101 109.986858 49.686702 109.854256 
C 49.819304 109.721654 49.893809 109.541783 49.893809 109.354256 
C 49.893809 109.166729 49.819304 108.986858 49.686702 108.854256 
C 49.554101 108.721654 49.374229 108.647149 49.186702 108.647149 
C 48.999175 108.647149 48.819304 108.721654 48.686702 108.854256 
C 48.554101 108.986858 48.479596 109.166729 48.479596 109.354256 
C 48.479596 109.541783 48.554101 109.721654 48.686702 109.854256 
C 48.819304 109.986858 48.999175 110.061363 49.186702 110.061363 
z
" clip-path="url(#p937582cacf)" style="stroke: #000000"/>
    <path d="M 49.912204 102.025073 
C 50.044806 102.025073 50.171994 101.97239 50.265757 101.878627 
C 50.359521 101.784863 50.412204 101.657675 50.412204 101.525073 
C 50.412204 101.392472 50.359521 101.265283 50.265757 101.17152 
C 50.171994 101.077757 50.044806 101.025073 49.912204 101.025073 
C 49.779603 101.025073 49.652414 101.077757 49.558651 101.17152 
C 49.464887 101.265283 49.412204 101.392472 49.412204 101.525073 
C 49.412204 101.657675 49.464887 101.784863 49.558651 101.878627 
C 49.652414 101.97239 49.779603 102.025073 49.912204 102.025073 
z
" clip-path="url(#p937582cacf)" style="stroke: #000000"/>
    <path d="M 47.609311 99.116566 
C 47.741912 99.116566 47.869101 99.063882 47.962864 98.970119 
C 48.056628 98.876356 48.109311 98.749167 48.109311 98.616566 
C 48.109311 98.483964 48.056628 98.356776 47.962864 98.263012 
C 47.869101 98.169249 47.741912 98.116566 47.609311 98.116566 
C 47.476709 98.116566 47.349521 98.169249 47.255757 98.263012 
C 47.161994 98.356776 47.109311 98.483964 47.109311 98.616566 
C 47.109311 98.749167 47.161994 98.876356 47.255757 98.970119 
C 47.349521 99.063882 47.476709 99.116566 47.609311 99.116566 
z
" clip-path="url(#p937582cacf)" style="stroke: #000000"/>
    <path d="M 43.179892 85.864625 
C 43.337582 85.864625 43.488836 85.801974 43.60034 85.69047 
C 43.711844 85.578966 43.774495 85.427712 43.774495 85.270022 
C 43.774495 85.112331 43.711844 84.961078 43.60034 84.849574 
C 43.488836 84.738069 43.337582 84.675418 43.179892 84.675418 
C 43.022201 84.675418 42.870948 84.738069 42.759443 84.849574 
C 42.647939 84.961078 42.585288 85.112331 42.585288 85.270022 
C 42.585288 85.427712 42.647939 85.578966 42.759443 85.69047 
C 42.870948 85.801974 43.022201 85.864625 43.179892 85.864625 
z
" clip-path="url(#p937582cacf)" style="stroke: #000000"/>
    <path d="M 44.680374 109.262829 
C 44.812975 109.262829 44.940164 109.210146 45.033927 109.116383 
C 45.12769 109.022619 45.180374 108.895431 45.180374 108.762829 
C 45.180374 108.630228 45.12769 108.503039 45.033927 108.409276 
C 44.940164 108.315512 44.812975 108.262829 44.680374 108.262829 
C 44.547772 108.262829 44.420584 108.315512 44.32682 108.409276 
C 44.233057 108.503039 44.180374 108.630228 44.180374 108.762829 
C 44.180374 108.895431 44.233057 109.022619 44.32682 109.116383 
C 44.420584 109.210146 44.547772 109.262829 44.680374 109.262829 
z
" clip-path="url(#p937582cacf)" style="stroke: #000000"/>
    <path d="M 37.56218 102.855761 
C 37.694782 102.855761 37.82197 102.803078 37.915733 102.709314 
C 38.009497 102.615551 38.06218 102.488362 38.06218 102.355761 
C 38.06218 102.223159 38.009497 102.095971 37.915733 102.002208 
C 37.82197 101.908444 37.694782 101.855761 37.56218 101.855761 
C 37.429578 101.855761 37.30239 101.908444 37.208627 102.002208 
C 37.114863 102.095971 37.06218 102.223159 37.06218 102.355761 
C 37.06218 102.488362 37.114863 102.615551 37.208627 102.709314 
C 37.30239 102.803078 37.429578 102.855761 37.56218 102.855761 
z
" clip-path="url(#p937582cacf)" style="stroke: #000000"/>
   </g>
   <g id="matplotlib.axis_1">
    <g id="xtick_1">
     <g id="line2d_1">
      <defs>
       <path id="ma4c0d16880" d="M 0 0 
L 0 3.5 
" style="stroke: #000000; stroke-width: 0.8"/>
      </defs>
      <g>
       <use xlink:href="#ma4c0d16880" x="18" y="189" style="stroke: #000000; stroke-width: 0.8"/>
      </g>
     </g>
     <g id="text_1">
      <!-- −10 -->
      <g transform="translate(7.447656 203.598437)scale(0.1 -0.1)">
       <defs>
        <path id="DejaVuSans-2212" d="M 678 2272 
L 4684 2272 
L 4684 1741 
L 678 1741 
L 678 2272 
z
" transform="scale(0.015625)"/>
        <path id="DejaVuSans-31" d="M 794 531 
L 1825 531 
L 1825 4091 
L 703 3866 
L 703 4441 
L 1819 4666 
L 2450 4666 
L 2450 531 
L 3481 531 
L 3481 0 
L 794 0 
L 794 531 
z
" transform="scale(0.015625)"/>
        <path id="DejaVuSans-30" d="M 2034 4250 
Q 1547 4250 1301 3770 
Q 1056 3291 1056 2328 
Q 1056 1369 1301 889 
Q 1547 409 2034 409 
Q 2525 409 2770 889 
Q 3016 1369 3016 2328 
Q 3016 3291 2770 3770 
Q 2525 4250 2034 4250 
z
M 2034 4750 
Q 2819 4750 3233 4129 
Q 3647 3509 3647 2328 
Q 3647 1150 3233 529 
Q 2819 -91 2034 -91 
Q 1250 -91 836 529 
Q 422 1150 422 2328 
Q 422 3509 836 4129 
Q 1250 4750 2034 4750 
z
" transform="scale(0.015625)"/>
       </defs>
       <use xlink:href="#DejaVuSans-2212"/>
       <use xlink:href="#DejaVuSans-31" x="83.789062"/>
       <use xlink:href="#DejaVuSans-30" x="147.412109"/>
      </g>
     </g>
    </g>
    <g id="xtick_2">
     <g id="line2d_2">
      <g>
       <use xlink:href="#ma4c0d16880" x="73.8" y="189" style="stroke: #000000; stroke-width: 0.8"/>
      </g>
     </g>
     <g id="text_2">
      <!-- 0 -->
      <g transform="translate(70.61875 203.598437)scale(0.1 -0.1)">
       <use xlink:href="#DejaVuSans-30"/>
      </g>
     </g>
    </g>
    <g id="xtick_3">
     <g id="line2d_3">
      <g>
       <use xlink:href="#ma4c0d16880" x="129.6" y="189" style="stroke: #000000; stroke-width: 0.8"/>
      </g>
     </g>
     <g id="text_3">
      <!-- 10 -->
      <g transform="translate(123.2375 203.598437)scale(0.1 -0.1)">
       <use xlink:href="#DejaVuSans-31"/>
       <use xlink:href="#DejaVuSans-30" x="63.623047"/>
      </g>
     </g>
    </g>
   </g>
   <g id="matplotlib.axis_2">
    <g id="ytick_1">
     <g id="line2d_4">
      <defs>
       <path id="m0fef974263" d="M 0 0 
L -3.5 0 
" style="stroke: #000000; stroke-width: 0.8"/>
      </defs>
      <g>
       <use xlink:href="#m0fef974263" x="18" y="189" style="stroke: #000000; stroke-width: 0.8"/>
      </g>
     </g>
     <g id="text_4">
      <!-- −15 -->
      <g transform="translate(-10.104688 192.799219)scale(0.1 -0.1)">
       <defs>
        <path id="DejaVuSans-35" d="M 691 4666 
L 3169 4666 
L 3169 4134 
L 1269 4134 
L 1269 2991 
Q 1406 3038 1543 3061 
Q 1681 3084 1819 3084 
Q 2600 3084 3056 2656 
Q 3513 2228 3513 1497 
Q 3513 744 3044 326 
Q 2575 -91 1722 -91 
Q 1428 -91 1123 -41 
Q 819 9 494 109 
L 494 744 
Q 775 591 1075 516 
Q 1375 441 1709 441 
Q 2250 441 2565 725 
Q 2881 1009 2881 1497 
Q 2881 1984 2565 2268 
Q 2250 2553 1709 2553 
Q 1456 2553 1204 2497 
Q 953 2441 691 2322 
L 691 4666 
z
" transform="scale(0.015625)"/>
       </defs>
       <use xlink:href="#DejaVuSans-2212"/>
       <use xlink:href="#DejaVuSans-31" x="83.789062"/>
       <use xlink:href="#DejaVuSans-35" x="147.412109"/>
      </g>
     </g>
    </g>
    <g id="ytick_2">
     <g id="line2d_5">
      <g>
       <use xlink:href="#m0fef974263" x="18" y="161.82" style="stroke: #000000; stroke-width: 0.8"/>
      </g>
     </g>
     <g id="text_5">
      <!-- −10 -->
      <g transform="translate(-10.104688 165.619219)scale(0.1 -0.1)">
       <use xlink:href="#DejaVuSans-2212"/>
       <use xlink:href="#DejaVuSans-31" x="83.789062"/>
       <use xlink:href="#DejaVuSans-30" x="147.412109"/>
      </g>
     </g>
    </g>
    <g id="ytick_3">
     <g id="line2d_6">
      <g>
       <use xlink:href="#m0fef974263" x="18" y="134.64" style="stroke: #000000; stroke-width: 0.8"/>
      </g>
     </g>
     <g id="text_6">
      <!-- −5 -->
      <g transform="translate(-3.742188 138.439219)scale(0.1 -0.1)">
       <use xlink:href="#DejaVuSans-2212"/>
       <use xlink:href="#DejaVuSans-35" x="83.789062"/>
      </g>
     </g>
    </g>
    <g id="ytick_4">
     <g id="line2d_7">
      <g>
       <use xlink:href="#m0fef974263" x="18" y="107.46" style="stroke: #000000; stroke-width: 0.8"/>
      </g>
     </g>
     <g id="text_7">
      <!-- 0 -->
      <g transform="translate(4.6375 111.259219)scale(0.1 -0.1)">
       <use xlink:href="#DejaVuSans-30"/>
      </g>
     </g>
    </g>
    <g id="ytick_5">
     <g id="line2d_8">
      <g>
       <use xlink:href="#m0fef974263" x="18" y="80.28" style="stroke: #000000; stroke-width: 0.8"/>
      </g>
     </g>
     <g id="text_8">
      <!-- 5 -->
      <g transform="translate(4.6375 84.079219)scale(0.1 -0.1)">
       <use xlink:href="#DejaVuSans-35"/>
      </g>
     </g>
    </g>
    <g id="ytick_6">
     <g id="line2d_9">
      <g>
       <use xlink:href="#m0fef974263" x="18" y="53.1" style="stroke: #000000; stroke-width: 0.8"/>
      </g>
     </g>
     <g id="text_9">
      <!-- 10 -->
      <g transform="translate(-1.725 56.899219)scale(0.1 -0.1)">
       <use xlink:href="#DejaVuSans-31"/>
       <use xlink:href="#DejaVuSans-30" x="63.623047"/>
      </g>
     </g>
    </g>
    <g id="ytick_7">
     <g id="line2d_10">
      <g>
       <use xlink:href="#m0fef974263" x="18" y="25.92" style="stroke: #000000; stroke-width: 0.8"/>
      </g>
     </g>
     <g id="text_10">
      <!-- 15 -->
      <g transform="translate(-1.725 29.719219)scale(0.1 -0.1)">
       <use xlink:href="#DejaVuSans-31"/>
       <use xlink:href="#DejaVuSans-35" x="63.623047"/>
      </g>
     </g>
    </g>
   </g>
   <g id="patch_3">
    <path d="M 18 189 
L 18 25.92 
" style="fill: none; stroke: #000000; stroke-width: 0.8; stroke-linejoin: miter; stroke-linecap: square"/>
   </g>
   <g id="patch_4">
    <path d="M 129.6 189 
L 129.6 25.92 
" style="fill: none; stroke: #000000; stroke-width: 0.8; stroke-linejoin: miter; stroke-linecap: square"/>
   </g>
   <g id="patch_5">
    <path d="M 18 189 
L 129.6 189 
" style="fill: none; stroke: #000000; stroke-width: 0.8; stroke-linejoin: miter; stroke-linecap: square"/>
   </g>
   <g id="patch_6">
    <path d="M 18 25.92 
L 129.6 25.92 
" style="fill: none; stroke: #000000; stroke-width: 0.8; stroke-linejoin: miter; stroke-linecap: square"/>
   </g>
  </g>
 </g>
 <defs>
  <clipPath id="p937582cacf">
   <rect x="18" y="25.92" width="111.6" height="163.08"/>
  </clipPath>
 </defs>
</svg>
