<?xml version="1.0" encoding="utf-8" standalone="no"?>
<!DOCTYPE svg PUBLIC "-//W3C//DTD SVG 1.1//EN"
  "http://www.w3.org/Graphics/SVG/1.1/DTD/svg11.dtd">
<svg xmlns:xlink="http://www.w3.org/1999/xlink" width="144pt" height="216pt" viewBox="0 0 144 216" xmlns="http://www.w3.org/2000/svg" version="1.1">
 <metadata>
  <rdf:RDF xmlns:dc="http://purl.org/dc/elements/1.1/" xmlns:cc="http://creativecommons.org/ns#" xmlns:rdf="http://www.w3.org/1999/02/22-rdf-syntax-ns#">
   <cc:Work>
    <dc:type rdf:resource="http://purl.org/dc/dcmitype/StillImage"/>
    <dc:date>2022-06-23T14:47:41.866985</dc:date>
    <dc:format>image/svg+xml</dc:format>
    <dc:creator>
     <cc:Agent>
      <dc:title>Matplotlib v3.5.1, https://matplotlib.org/</dc:title>
     </cc:Agent>
    </dc:creator>
   </cc:Work>
  </rdf:RDF>
 </metadata>
 <defs>
  <style type="text/css">*{stroke-linejoin: round; stroke-linecap: butt}</style>
 </defs>
 <g id="figure_1">
  <g id="patch_1">
   <path d="M 0 216 
L 144 216 
L 144 0 
L 0 0 
L 0 216 
z
" style="fill: none"/>
  </g>
  <g id="axes_1">
   <g id="patch_2">
    <path d="M 18 189 
L 129.6 189 
L 129.6 25.92 
L 18 25.92 
z
" style="fill: #ffffff"/>
   </g>
   <g id="PathCollection_1">
    <defs>
     <path id="m6faea03e75" d="M 0 2.738613 
C 0.726289 2.738613 1.422928 2.450055 1.936492 1.936492 
C 2.450055 1.422928 2.738613 0.726289 2.738613 0 
C 2.738613 -0.726289 2.450055 -1.422928 1.936492 -1.936492 
C 1.422928 -2.450055 0.726289 -2.738613 0 -2.738613 
C -0.726289 -2.738613 -1.422928 -2.450055 -1.936492 -1.936492 
C -2.450055 -1.422928 -2.738613 -0.726289 -2.738613 0 
C -2.738613 0.726289 -2.450055 1.422928 -1.936492 1.936492 
C -1.422928 2.450055 -0.726289 2.738613 0 2.738613 
z
" style="stroke: #ff0000; stroke-width: 1.75"/>
    </defs>
    <g clip-path="url(#p773496e3e2)">
     <use xlink:href="#m6faea03e75" x="66.825" y="83.92143" style="fill: #ff0000; stroke: #ff0000; stroke-width: 1.75"/>
     <use xlink:href="#m6faea03e75" x="87.75" y="95.690715" style="fill: #ff0000; stroke: #ff0000; stroke-width: 1.75"/>
     <use xlink:href="#m6faea03e75" x="66.825" y="107.46" style="fill: #ff0000; stroke: #ff0000; stroke-width: 1.75"/>
     <use xlink:href="#m6faea03e75" x="73.8" y="119.229285" style="fill: #ff0000; stroke: #ff0000; stroke-width: 1.75"/>
     <use xlink:href="#m6faea03e75" x="87.75" y="119.229285" style="fill: #ff0000; stroke: #ff0000; stroke-width: 1.75"/>
     <use xlink:href="#m6faea03e75" x="66.825" y="130.99857" style="fill: #ff0000; stroke: #ff0000; stroke-width: 1.75"/>
     <use xlink:href="#m6faea03e75" x="80.775" y="130.99857" style="fill: #ff0000; stroke: #ff0000; stroke-width: 1.75"/>
    </g>
   </g>
   <g id="PathCollection_2">
    <defs>
     <path id="C0_0_1524b9659a" d="M 0 2.738613 
C 0.726289 2.738613 1.422928 2.450055 1.936492 1.936492 
C 2.450055 1.422928 2.738613 0.726289 2.738613 -0 
C 2.738613 -0.726289 2.450055 -1.422928 1.936492 -1.936492 
C 1.422928 -2.450055 0.726289 -2.738613 0 -2.738613 
C -0.726289 -2.738613 -1.422928 -2.450055 -1.936492 -1.936492 
C -2.450055 -1.422928 -2.738613 -0.726289 -2.738613 0 
C -2.738613 0.726289 -2.450055 1.422928 -1.936492 1.936492 
C -1.422928 2.450055 -0.726289 2.738613 0 2.738613 
z
"/>
    </defs>
    <g clip-path="url(#p773496e3e2)">
     <use xlink:href="#C0_0_1524b9659a" x="80.775" y="83.92143" style="fill: none; stroke: #ff0000; stroke-width: 1.75"/>
    </g>
    <g clip-path="url(#p773496e3e2)">
     <use xlink:href="#C0_0_1524b9659a" x="59.85" y="95.690715" style="fill: none; stroke: #ff0000; stroke-width: 1.75"/>
    </g>
    <g clip-path="url(#p773496e3e2)">
     <use xlink:href="#C0_0_1524b9659a" x="73.8" y="95.690715" style="fill: none; stroke: #ff0000; stroke-width: 1.75"/>
    </g>
    <g clip-path="url(#p773496e3e2)">
     <use xlink:href="#C0_0_1524b9659a" x="52.875" y="107.46" style="fill: none; stroke: #ff0000; stroke-width: 1.75"/>
    </g>
    <g clip-path="url(#p773496e3e2)">
     <use xlink:href="#C0_0_1524b9659a" x="80.775" y="107.46" style="fill: none; stroke: #ff0000; stroke-width: 1.75"/>
    </g>
    <g clip-path="url(#p773496e3e2)">
     <use xlink:href="#C0_0_1524b9659a" x="94.725" y="107.46" style="fill: none; stroke: #ff0000; stroke-width: 1.75"/>
    </g>
    <g clip-path="url(#p773496e3e2)">
     <use xlink:href="#C0_0_1524b9659a" x="59.85" y="119.229285" style="fill: none; stroke: #ff0000; stroke-width: 1.75"/>
    </g>
   </g>
   <g id="PathCollection_3">
    <path d="M 97.951923 116.067333 
C 98.084524 116.067333 98.211713 116.01465 98.305476 115.920887 
C 98.399239 115.827123 98.451923 115.699935 98.451923 115.567333 
C 98.451923 115.434732 98.399239 115.307544 98.305476 115.21378 
C 98.211713 115.120017 98.084524 115.067333 97.951923 115.067333 
C 97.819321 115.067333 97.692133 115.120017 97.598369 115.21378 
C 97.504606 115.307544 97.451923 115.434732 97.451923 115.567333 
C 97.451923 115.699935 97.504606 115.827123 97.598369 115.920887 
C 97.692133 116.01465 97.819321 116.067333 97.951923 116.067333 
z
" clip-path="url(#p773496e3e2)" style="stroke: #000000"/>
    <path d="M 96.931097 113.982585 
C 97.13863 113.982585 97.337691 113.900131 97.484438 113.753384 
C 97.631186 113.606636 97.71364 113.407575 97.71364 113.200043 
C 97.71364 112.99251 97.631186 112.79345 97.484438 112.646702 
C 97.337691 112.499954 97.13863 112.4175 96.931097 112.4175 
C 96.723565 112.4175 96.524504 112.499954 96.377756 112.646702 
C 96.231009 112.79345 96.148555 112.99251 96.148555 113.200043 
C 96.148555 113.407575 96.231009 113.606636 96.377756 113.753384 
C 96.524504 113.900131 96.723565 113.982585 96.931097 113.982585 
z
" clip-path="url(#p773496e3e2)" style="stroke: #000000"/>
    <path d="M 94.437509 108.848887 
C 94.93492 108.848887 95.412024 108.651264 95.763747 108.299541 
C 96.115469 107.947819 96.313092 107.470714 96.313092 106.973304 
C 96.313092 106.475893 96.115469 105.998789 95.763747 105.647066 
C 95.412024 105.295344 94.93492 105.097721 94.437509 105.097721 
C 93.940099 105.097721 93.462994 105.295344 93.111272 105.647066 
C 92.759549 105.998789 92.561926 106.475893 92.561926 106.973304 
C 92.561926 107.470714 92.759549 107.947819 93.111272 108.299541 
C 93.462994 108.651264 93.940099 108.848887 94.437509 108.848887 
z
" clip-path="url(#p773496e3e2)" style="stroke: #000000"/>
    <path d="M 89.65851 95.801688 
C 90.251522 95.801688 90.820326 95.566082 91.239649 95.146759 
C 91.658972 94.727436 91.894578 94.158632 91.894578 93.56562 
C 91.894578 92.972608 91.658972 92.403804 91.239649 91.984481 
C 90.820326 91.565158 90.251522 91.329552 89.65851 91.329552 
C 89.065498 91.329552 88.496694 91.565158 88.077371 91.984481 
C 87.658048 92.403804 87.422442 92.972608 87.422442 93.56562 
C 87.422442 94.158632 87.658048 94.727436 88.077371 95.146759 
C 88.496694 95.566082 89.065498 95.801688 89.65851 95.801688 
z
" clip-path="url(#p773496e3e2)" style="stroke: #000000"/>
    <path d="M 84.108279 82.717516 
C 84.433085 82.717516 84.744632 82.588469 84.974305 82.358796 
C 85.203977 82.129123 85.333024 81.817577 85.333024 81.492771 
C 85.333024 81.167965 85.203977 80.856418 84.974305 80.626745 
C 84.744632 80.397073 84.433085 80.268026 84.108279 80.268026 
C 83.783473 80.268026 83.471927 80.397073 83.242254 80.626745 
C 83.012581 80.856418 82.883534 81.167965 82.883534 81.492771 
C 82.883534 81.817577 83.012581 82.129123 83.242254 82.358796 
C 83.471927 82.588469 83.783473 82.717516 84.108279 82.717516 
z
" clip-path="url(#p773496e3e2)" style="stroke: #000000"/>
    <path d="M 91.454581 115.230122 
C 91.762296 115.230122 92.057449 115.107865 92.275036 114.890278 
C 92.492623 114.672691 92.614879 114.377538 92.614879 114.069824 
C 92.614879 113.762109 92.492623 113.466956 92.275036 113.249369 
C 92.057449 113.031782 91.762296 112.909526 91.454581 112.909526 
C 91.146867 112.909526 90.851714 113.031782 90.634127 113.249369 
C 90.41654 113.466956 90.294283 113.762109 90.294283 114.069824 
C 90.294283 114.377538 90.41654 114.672691 90.634127 114.890278 
C 90.851714 115.107865 91.146867 115.230122 91.454581 115.230122 
z
" clip-path="url(#p773496e3e2)" style="stroke: #000000"/>
    <path d="M 87.138921 97.724002 
C 87.6338 97.724002 88.108476 97.527385 88.458409 97.177453 
C 88.808341 96.82752 89.004958 96.352844 89.004958 95.857965 
C 89.004958 95.363086 88.808341 94.888409 88.458409 94.538477 
C 88.108476 94.188544 87.6338 93.991927 87.138921 93.991927 
C 86.644042 93.991927 86.169365 94.188544 85.819433 94.538477 
C 85.4695 94.888409 85.272883 95.363086 85.272883 95.857965 
C 85.272883 96.352844 85.4695 96.82752 85.819433 97.177453 
C 86.169365 97.527385 86.644042 97.724002 87.138921 97.724002 
z
" clip-path="url(#p773496e3e2)" style="stroke: #000000"/>
    <path d="M 83.09894 88.278935 
C 83.25663 88.278935 83.407884 88.216284 83.519388 88.10478 
C 83.630892 87.993276 83.693543 87.842022 83.693543 87.684332 
C 83.693543 87.526641 83.630892 87.375388 83.519388 87.263883 
C 83.407884 87.152379 83.25663 87.089728 83.09894 87.089728 
C 82.941249 87.089728 82.789995 87.152379 82.678491 87.263883 
C 82.566987 87.375388 82.504336 87.526641 82.504336 87.684332 
C 82.504336 87.842022 82.566987 87.993276 82.678491 88.10478 
C 82.789995 88.216284 82.941249 88.278935 83.09894 88.278935 
z
" clip-path="url(#p773496e3e2)" style="stroke: #000000"/>
    <path d="M 82.076926 84.649641 
C 82.357344 84.649641 82.626315 84.53823 82.8246 84.339944 
C 83.022886 84.141658 83.134297 83.872688 83.134297 83.59227 
C 83.134297 83.311852 83.022886 83.042881 82.8246 82.844595 
C 82.626315 82.64631 82.357344 82.534898 82.076926 82.534898 
C 81.796508 82.534898 81.527537 82.64631 81.329252 82.844595 
C 81.130966 83.042881 81.019555 83.311852 81.019555 83.59227 
C 81.019555 83.872688 81.130966 84.141658 81.329252 84.339944 
C 81.527537 84.53823 81.796508 84.649641 82.076926 84.649641 
z
" clip-path="url(#p773496e3e2)" style="stroke: #000000"/>
    <path d="M 88.661441 120.927932 
C 89.145103 120.927932 89.60902 120.735771 89.951021 120.39377 
C 90.293022 120.05177 90.485183 119.587852 90.485183 119.10419 
C 90.485183 118.620528 90.293022 118.156611 89.951021 117.81461 
C 89.60902 117.47261 89.145103 117.280449 88.661441 117.280449 
C 88.177779 117.280449 87.713862 117.47261 87.371861 117.81461 
C 87.02986 118.156611 86.837699 118.620528 86.837699 119.10419 
C 86.837699 119.587852 87.02986 120.05177 87.371861 120.39377 
C 87.713862 120.735771 88.177779 120.927932 88.661441 120.927932 
z
" clip-path="url(#p773496e3e2)" style="stroke: #000000"/>
    <path d="M 84.309559 107.74063 
C 84.884733 107.74063 85.436427 107.512111 85.843137 107.105401 
C 86.249846 106.698692 86.478366 106.146998 86.478366 105.571823 
C 86.478366 104.996649 86.249846 104.444955 85.843137 104.038245 
C 85.436427 103.631536 84.884733 103.403017 84.309559 103.403017 
C 83.734385 103.403017 83.182691 103.631536 82.775981 104.038245 
C 82.369272 104.444955 82.140752 104.996649 82.140752 105.571823 
C 82.140752 106.146998 82.369272 106.698692 82.775981 107.105401 
C 83.182691 107.512111 83.734385 107.74063 84.309559 107.74063 
z
" clip-path="url(#p773496e3e2)" style="stroke: #000000"/>
    <path d="M 78.505777 86.85322 
C 79.005061 86.85322 79.483962 86.654852 79.837009 86.301805 
C 80.190057 85.948758 80.388424 85.469856 80.388424 84.970572 
C 80.388424 84.471288 80.190057 83.992386 79.837009 83.639339 
C 79.483962 83.286292 79.005061 83.087925 78.505777 83.087925 
C 78.006493 83.087925 77.527591 83.286292 77.174544 83.639339 
C 76.821497 83.992386 76.623129 84.471288 76.623129 84.970572 
C 76.623129 85.469856 76.821497 85.948758 77.174544 86.301805 
C 77.527591 86.654852 78.006493 86.85322 78.505777 86.85322 
z
" clip-path="url(#p773496e3e2)" style="stroke: #000000"/>
    <path d="M 84.964843 122.138852 
C 85.460992 122.138852 85.936888 121.94173 86.287718 121.590899 
C 86.638549 121.240068 86.835672 120.764173 86.835672 120.268023 
C 86.835672 119.771874 86.638549 119.295978 86.287718 118.945147 
C 85.936888 118.594317 85.460992 118.397194 84.964843 118.397194 
C 84.468693 118.397194 83.992798 118.594317 83.641967 118.945147 
C 83.291136 119.295978 83.094014 119.771874 83.094014 120.268023 
C 83.094014 120.764173 83.291136 121.240068 83.641967 121.590899 
C 83.992798 121.94173 84.468693 122.138852 84.964843 122.138852 
z
" clip-path="url(#p773496e3e2)" style="stroke: #000000"/>
    <path d="M 80.136484 108.463109 
C 80.494265 108.463109 80.837441 108.320961 81.09043 108.067971 
C 81.34342 107.814982 81.485568 107.471806 81.485568 107.114025 
C 81.485568 106.756244 81.34342 106.413068 81.09043 106.160079 
C 80.837441 105.907089 80.494265 105.764941 80.136484 105.764941 
C 79.778703 105.764941 79.435527 105.907089 79.182537 106.160079 
C 78.929548 106.413068 78.7874 106.756244 78.7874 107.114025 
C 78.7874 107.471806 78.929548 107.814982 79.182537 108.067971 
C 79.435527 108.320961 79.778703 108.463109 80.136484 108.463109 
z
" clip-path="url(#p773496e3e2)" style="stroke: #000000"/>
    <path d="M 75.376783 94.370019 
C 75.676211 94.370019 75.963415 94.251055 76.175142 94.039328 
C 76.38687 93.827601 76.505833 93.540396 76.505833 93.240969 
C 76.505833 92.941541 76.38687 92.654337 76.175142 92.442609 
C 75.963415 92.230882 75.676211 92.111918 75.376783 92.111918 
C 75.077355 92.111918 74.790151 92.230882 74.578424 92.442609 
C 74.366696 92.654337 74.247733 92.941541 74.247733 93.240969 
C 74.247733 93.540396 74.366696 93.827601 74.578424 94.039328 
C 74.790151 94.251055 75.077355 94.370019 75.376783 94.370019 
z
" clip-path="url(#p773496e3e2)" style="stroke: #000000"/>
    <path d="M 73.598205 93.028392 
C 74.092445 93.028392 74.566509 92.832028 74.915989 92.482548 
C 75.26547 92.133068 75.461834 91.659004 75.461834 91.164764 
C 75.461834 90.670524 75.26547 90.19646 74.915989 89.846979 
C 74.566509 89.497499 74.092445 89.301135 73.598205 89.301135 
C 73.103965 89.301135 72.629901 89.497499 72.280421 89.846979 
C 71.93094 90.19646 71.734577 90.670524 71.734577 91.164764 
C 71.734577 91.659004 71.93094 92.133068 72.280421 92.482548 
C 72.629901 92.832028 73.103965 93.028392 73.598205 93.028392 
z
" clip-path="url(#p773496e3e2)" style="stroke: #000000"/>
    <path d="M 72.763004 85.4421 
C 72.970537 85.4421 73.169597 85.359646 73.316345 85.212898 
C 73.463093 85.066151 73.545546 84.86709 73.545546 84.659557 
C 73.545546 84.452025 73.463093 84.252964 73.316345 84.106216 
C 73.169597 83.959469 72.970537 83.877015 72.763004 83.877015 
C 72.555471 83.877015 72.356411 83.959469 72.209663 84.106216 
C 72.062915 84.252964 71.980462 84.452025 71.980462 84.659557 
C 71.980462 84.86709 72.062915 85.066151 72.209663 85.212898 
C 72.356411 85.359646 72.555471 85.4421 72.763004 85.4421 
z
" clip-path="url(#p773496e3e2)" style="stroke: #000000"/>
    <path d="M 69.519862 78.212262 
C 69.652464 78.212262 69.779652 78.159579 69.873416 78.065815 
C 69.967179 77.972052 70.019862 77.844863 70.019862 77.712262 
C 70.019862 77.57966 69.967179 77.452472 69.873416 77.358708 
C 69.779652 77.264945 69.652464 77.212262 69.519862 77.212262 
C 69.387261 77.212262 69.260072 77.264945 69.166309 77.358708 
C 69.072545 77.452472 69.019862 77.57966 69.019862 77.712262 
C 69.019862 77.844863 69.072545 77.972052 69.166309 78.065815 
C 69.260072 78.159579 69.387261 78.212262 69.519862 78.212262 
z
" clip-path="url(#p773496e3e2)" style="stroke: #000000"/>
    <path d="M 83.103528 136.63772 
C 83.69654 136.63772 84.265344 136.402113 84.684667 135.98279 
C 85.10399 135.563468 85.339596 134.994664 85.339596 134.401652 
C 85.339596 133.80864 85.10399 133.239836 84.684667 132.820513 
C 84.265344 132.40119 83.69654 132.165584 83.103528 132.165584 
C 82.510516 132.165584 81.941712 132.40119 81.522389 132.820513 
C 81.103066 133.239836 80.86746 133.80864 80.86746 134.401652 
C 80.86746 134.994664 81.103066 135.563468 81.522389 135.98279 
C 81.941712 136.402113 82.510516 136.63772 83.103528 136.63772 
z
" clip-path="url(#p773496e3e2)" style="stroke: #000000"/>
    <path d="M 84.351494 132.794164 
C 84.944506 132.794164 85.51331 132.558558 85.932633 132.139235 
C 86.351956 131.719912 86.587562 131.151109 86.587562 130.558096 
C 86.587562 129.965084 86.351956 129.396281 85.932633 128.976958 
C 85.51331 128.557635 84.944506 128.322029 84.351494 128.322029 
C 83.758482 128.322029 83.189678 128.557635 82.770355 128.976958 
C 82.351032 129.396281 82.115426 129.965084 82.115426 130.558096 
C 82.115426 131.151109 82.351032 131.719912 82.770355 132.139235 
C 83.189678 132.558558 83.758482 132.794164 84.351494 132.794164 
z
" clip-path="url(#p773496e3e2)" style="stroke: #000000"/>
    <path d="M 73.123293 100.303657 
C 73.255894 100.303657 73.383083 100.250974 73.476846 100.157211 
C 73.57061 100.063447 73.623293 99.936259 73.623293 99.803657 
C 73.623293 99.671056 73.57061 99.543867 73.476846 99.450104 
C 73.383083 99.356341 73.255894 99.303657 73.123293 99.303657 
C 72.990691 99.303657 72.863503 99.356341 72.769739 99.450104 
C 72.675976 99.543867 72.623293 99.671056 72.623293 99.803657 
C 72.623293 99.936259 72.675976 100.063447 72.769739 100.157211 
C 72.863503 100.250974 72.990691 100.303657 73.123293 100.303657 
z
" clip-path="url(#p773496e3e2)" style="stroke: #000000"/>
    <path d="M 72.417173 96.804379 
C 72.7397 96.804379 73.04906 96.676238 73.277121 96.448177 
C 73.505182 96.220116 73.633323 95.910756 73.633323 95.588229 
C 73.633323 95.265702 73.505182 94.956342 73.277121 94.728281 
C 73.04906 94.500221 72.7397 94.372079 72.417173 94.372079 
C 72.094647 94.372079 71.785286 94.500221 71.557226 94.728281 
C 71.329165 94.956342 71.201024 95.265702 71.201024 95.588229 
C 71.201024 95.910756 71.329165 96.220116 71.557226 96.448177 
C 71.785286 96.676238 72.094647 96.804379 72.417173 96.804379 
z
" clip-path="url(#p773496e3e2)" style="stroke: #000000"/>
    <path d="M 68.394619 93.152879 
C 68.641419 93.152879 68.878143 93.054824 69.052656 92.880311 
C 69.22717 92.705798 69.325224 92.469073 69.325224 92.222274 
C 69.325224 91.975475 69.22717 91.73875 69.052656 91.564237 
C 68.878143 91.389724 68.641419 91.291669 68.394619 91.291669 
C 68.14782 91.291669 67.911096 91.389724 67.736582 91.564237 
C 67.562069 91.73875 67.464014 91.975475 67.464014 92.222274 
C 67.464014 92.469073 67.562069 92.705798 67.736582 92.880311 
C 67.911096 93.054824 68.14782 93.152879 68.394619 93.152879 
z
" clip-path="url(#p773496e3e2)" style="stroke: #000000"/>
    <path d="M 68.060019 86.945308 
C 68.258305 86.945308 68.448496 86.866528 68.588705 86.726319 
C 68.728914 86.58611 68.807694 86.395919 68.807694 86.197633 
C 68.807694 85.999348 68.728914 85.809157 68.588705 85.668948 
C 68.448496 85.528739 68.258305 85.449959 68.060019 85.449959 
C 67.861734 85.449959 67.671543 85.528739 67.531334 85.668948 
C 67.391124 85.809157 67.312345 85.999348 67.312345 86.197633 
C 67.312345 86.395919 67.391124 86.58611 67.531334 86.726319 
C 67.671543 86.866528 67.861734 86.945308 68.060019 86.945308 
z
" clip-path="url(#p773496e3e2)" style="stroke: #000000"/>
    <path d="M 67.674574 83.35794 
C 67.849087 83.35794 68.016476 83.288605 68.139876 83.165205 
C 68.263276 83.041806 68.332611 82.874417 68.332611 82.699903 
C 68.332611 82.52539 68.263276 82.358 68.139876 82.234601 
C 68.016476 82.111201 67.849087 82.041866 67.674574 82.041866 
C 67.50006 82.041866 67.332671 82.111201 67.209271 82.234601 
C 67.085871 82.358 67.016537 82.52539 67.016537 82.699903 
C 67.016537 82.874417 67.085871 83.041806 67.209271 83.165205 
C 67.332671 83.288605 67.50006 83.35794 67.674574 83.35794 
z
" clip-path="url(#p773496e3e2)" style="stroke: #000000"/>
    <path d="M 73.578082 120.07101 
C 74.076119 120.07101 74.553825 119.873138 74.90599 119.520972 
C 75.258156 119.168806 75.456028 118.6911 75.456028 118.193063 
C 75.456028 117.695026 75.258156 117.21732 74.90599 116.865154 
C 74.553825 116.512989 74.076119 116.315116 73.578082 116.315116 
C 73.080044 116.315116 72.602338 116.512989 72.250173 116.865154 
C 71.898007 117.21732 71.700135 117.695026 71.700135 118.193063 
C 71.700135 118.6911 71.898007 119.168806 72.250173 119.520972 
C 72.602338 119.873138 73.080044 120.07101 73.578082 120.07101 
z
" clip-path="url(#p773496e3e2)" style="stroke: #000000"/>
    <path d="M 62.20189 89.686555 
C 62.409422 89.686555 62.608483 89.604101 62.755231 89.457353 
C 62.901978 89.310605 62.984432 89.111545 62.984432 88.904012 
C 62.984432 88.69648 62.901978 88.497419 62.755231 88.350671 
C 62.608483 88.203924 62.409422 88.12147 62.20189 88.12147 
C 61.994357 88.12147 61.795297 88.203924 61.648549 88.350671 
C 61.501801 88.497419 61.419347 88.69648 61.419347 88.904012 
C 61.419347 89.111545 61.501801 89.310605 61.648549 89.457353 
C 61.795297 89.604101 61.994357 89.686555 62.20189 89.686555 
z
" clip-path="url(#p773496e3e2)" style="stroke: #000000"/>
    <path d="M 61.847915 84.449429 
C 62.170441 84.449429 62.479802 84.321287 62.707862 84.093227 
C 62.935923 83.865166 63.064064 83.555806 63.064064 83.233279 
C 63.064064 82.910752 62.935923 82.601392 62.707862 82.373331 
C 62.479802 82.14527 62.170441 82.017129 61.847915 82.017129 
C 61.525388 82.017129 61.216028 82.14527 60.987967 82.373331 
C 60.759906 82.601392 60.631765 82.910752 60.631765 83.233279 
C 60.631765 83.555806 60.759906 83.865166 60.987967 84.093227 
C 61.216028 84.321287 61.525388 84.449429 61.847915 84.449429 
z
" clip-path="url(#p773496e3e2)" style="stroke: #000000"/>
    <path d="M 71.206158 124.746418 
C 71.338759 124.746418 71.465948 124.693735 71.559711 124.599971 
C 71.653475 124.506208 71.706158 124.379019 71.706158 124.246418 
C 71.706158 124.113816 71.653475 123.986628 71.559711 123.892864 
C 71.465948 123.799101 71.338759 123.746418 71.206158 123.746418 
C 71.073556 123.746418 70.946368 123.799101 70.852604 123.892864 
C 70.758841 123.986628 70.706158 124.113816 70.706158 124.246418 
C 70.706158 124.379019 70.758841 124.506208 70.852604 124.599971 
C 70.946368 124.693735 71.073556 124.746418 71.206158 124.746418 
z
" clip-path="url(#p773496e3e2)" style="stroke: #000000"/>
    <path d="M 70.35661 122.338703 
C 70.949251 122.338703 71.517699 122.103244 71.93676 121.684183 
C 72.35582 121.265123 72.591279 120.696675 72.591279 120.104034 
C 72.591279 119.511392 72.35582 118.942944 71.93676 118.523884 
C 71.517699 118.104823 70.949251 117.869364 70.35661 117.869364 
C 69.763969 117.869364 69.195521 118.104823 68.77646 118.523884 
C 68.3574 118.942944 68.121941 119.511392 68.121941 120.104034 
C 68.121941 120.696675 68.3574 121.265123 68.77646 121.684183 
C 69.195521 122.103244 69.763969 122.338703 70.35661 122.338703 
z
" clip-path="url(#p773496e3e2)" style="stroke: #000000"/>
    <path d="M 65.952059 112.730749 
C 66.139586 112.730749 66.319458 112.656244 66.452059 112.523642 
C 66.584661 112.39104 66.659166 112.211169 66.659166 112.023642 
C 66.659166 111.836115 66.584661 111.656244 66.452059 111.523642 
C 66.319458 111.39104 66.139586 111.316535 65.952059 111.316535 
C 65.764532 111.316535 65.584661 111.39104 65.452059 111.523642 
C 65.319458 111.656244 65.244952 111.836115 65.244952 112.023642 
C 65.244952 112.211169 65.319458 112.39104 65.452059 112.523642 
C 65.584661 112.656244 65.764532 112.730749 65.952059 112.730749 
z
" clip-path="url(#p773496e3e2)" style="stroke: #000000"/>
    <path d="M 64.939799 109.814181 
C 65.53244 109.814181 66.100888 109.578722 66.519948 109.159662 
C 66.939009 108.740601 67.174468 108.172153 67.174468 107.579512 
C 67.174468 106.986871 66.939009 106.418423 66.519948 105.999362 
C 66.100888 105.580302 65.53244 105.344843 64.939799 105.344843 
C 64.347157 105.344843 63.778709 105.580302 63.359649 105.999362 
C 62.940588 106.418423 62.705129 106.986871 62.705129 107.579512 
C 62.705129 108.172153 62.940588 108.740601 63.359649 109.159662 
C 63.778709 109.578722 64.347157 109.814181 64.939799 109.814181 
z
" clip-path="url(#p773496e3e2)" style="stroke: #000000"/>
    <path d="M 64.98608 105.520815 
C 65.247039 105.520815 65.497344 105.417135 65.68187 105.23261 
C 65.866395 105.048084 65.970075 104.797779 65.970075 104.536821 
C 65.970075 104.275862 65.866395 104.025557 65.68187 103.841031 
C 65.497344 103.656506 65.247039 103.552826 64.98608 103.552826 
C 64.725122 103.552826 64.474817 103.656506 64.290291 103.841031 
C 64.105766 104.025557 64.002086 104.275862 64.002086 104.536821 
C 64.002086 104.797779 64.105766 105.048084 64.290291 105.23261 
C 64.474817 105.417135 64.725122 105.520815 64.98608 105.520815 
z
" clip-path="url(#p773496e3e2)" style="stroke: #000000"/>
    <path d="M 61.281389 95.725456 
C 61.647325 95.725456 61.998323 95.580068 62.257079 95.321312 
C 62.515835 95.062556 62.661223 94.711558 62.661223 94.345622 
C 62.661223 93.979685 62.515835 93.628687 62.257079 93.369931 
C 61.998323 93.111175 61.647325 92.965787 61.281389 92.965787 
C 60.915452 92.965787 60.564454 93.111175 60.305698 93.369931 
C 60.046942 93.628687 59.901554 93.979685 59.901554 94.345622 
C 59.901554 94.711558 60.046942 95.062556 60.305698 95.321312 
C 60.564454 95.580068 60.915452 95.725456 61.281389 95.725456 
z
" clip-path="url(#p773496e3e2)" style="stroke: #000000"/>
    <path d="M 61.407374 91.687956 
C 61.630382 91.687956 61.844287 91.599354 62.001978 91.441664 
C 62.159668 91.283973 62.248271 91.070068 62.248271 90.84706 
C 62.248271 90.624052 62.159668 90.410147 62.001978 90.252456 
C 61.844287 90.094766 61.630382 90.006164 61.407374 90.006164 
C 61.184366 90.006164 60.970461 90.094766 60.812771 90.252456 
C 60.65508 90.410147 60.566478 90.624052 60.566478 90.84706 
C 60.566478 91.070068 60.65508 91.283973 60.812771 91.441664 
C 60.970461 91.599354 61.184366 91.687956 61.407374 91.687956 
z
" clip-path="url(#p773496e3e2)" style="stroke: #000000"/>
    <path d="M 68.92457 135.182676 
C 69.20843 135.182676 69.480702 135.069897 69.68142 134.869179 
C 69.882139 134.66846 69.994918 134.396188 69.994918 134.112329 
C 69.994918 133.828469 69.882139 133.556197 69.68142 133.355478 
C 69.480702 133.15476 69.20843 133.041981 68.92457 133.041981 
C 68.640711 133.041981 68.368439 133.15476 68.16772 133.355478 
C 67.967001 133.556197 67.854223 133.828469 67.854223 134.112329 
C 67.854223 134.396188 67.967001 134.66846 68.16772 134.869179 
C 68.368439 135.069897 68.640711 135.182676 68.92457 135.182676 
z
" clip-path="url(#p773496e3e2)" style="stroke: #000000"/>
    <path d="M 67.176911 131.725465 
C 67.665286 131.725465 68.133724 131.531431 68.479057 131.186098 
C 68.82439 130.840765 69.018423 130.372328 69.018423 129.883953 
C 69.018423 129.395578 68.82439 128.927141 68.479057 128.581808 
C 68.133724 128.236475 67.665286 128.042441 67.176911 128.042441 
C 66.688537 128.042441 66.220099 128.236475 65.874766 128.581808 
C 65.529433 128.927141 65.3354 129.395578 65.3354 129.883953 
C 65.3354 130.372328 65.529433 130.840765 65.874766 131.186098 
C 66.220099 131.531431 66.688537 131.725465 67.176911 131.725465 
z
" clip-path="url(#p773496e3e2)" style="stroke: #000000"/>
    <path d="M 57.78089 100.671897 
C 58.003898 100.671897 58.217803 100.583295 58.375493 100.425605 
C 58.533184 100.267914 58.621786 100.054009 58.621786 99.831001 
C 58.621786 99.607993 58.533184 99.394088 58.375493 99.236398 
C 58.217803 99.078707 58.003898 98.990105 57.78089 98.990105 
C 57.557881 98.990105 57.343977 99.078707 57.186286 99.236398 
C 57.028595 99.394088 56.939993 99.607993 56.939993 99.831001 
C 56.939993 100.054009 57.028595 100.267914 57.186286 100.425605 
C 57.343977 100.583295 57.557881 100.671897 57.78089 100.671897 
z
" clip-path="url(#p773496e3e2)" style="stroke: #000000"/>
    <path d="M 57.452691 97.226972 
C 57.660224 97.226972 57.859284 97.144519 58.006032 96.997771 
C 58.15278 96.851023 58.235233 96.651962 58.235233 96.44443 
C 58.235233 96.236897 58.15278 96.037837 58.006032 95.891089 
C 57.859284 95.744341 57.660224 95.661888 57.452691 95.661888 
C 57.245158 95.661888 57.046098 95.744341 56.89935 95.891089 
C 56.752602 96.037837 56.670149 96.236897 56.670149 96.44443 
C 56.670149 96.651962 56.752602 96.851023 56.89935 96.997771 
C 57.046098 97.144519 57.245158 97.226972 57.452691 97.226972 
z
" clip-path="url(#p773496e3e2)" style="stroke: #000000"/>
    <path d="M 59.618018 120.309121 
C 59.983954 120.309121 60.334952 120.163733 60.593708 119.904977 
C 60.852464 119.646221 60.997852 119.295223 60.997852 118.929287 
C 60.997852 118.56335 60.852464 118.212352 60.593708 117.953596 
C 60.334952 117.69484 59.983954 117.549452 59.618018 117.549452 
C 59.252082 117.549452 58.901084 117.69484 58.642328 117.953596 
C 58.383572 118.212352 58.238183 118.56335 58.238183 118.929287 
C 58.238183 119.295223 58.383572 119.646221 58.642328 119.904977 
C 58.901084 120.163733 59.252082 120.309121 59.618018 120.309121 
z
" clip-path="url(#p773496e3e2)" style="stroke: #000000"/>
    <path d="M 56.545023 124.335092 
C 56.810227 124.335092 57.064603 124.229726 57.25213 124.042199 
C 57.439657 123.854672 57.545023 123.600295 57.545023 123.335092 
C 57.545023 123.069889 57.439657 122.815512 57.25213 122.627985 
C 57.064603 122.440458 56.810227 122.335092 56.545023 122.335092 
C 56.27982 122.335092 56.025444 122.440458 55.837917 122.627985 
C 55.65039 122.815512 55.545023 123.069889 55.545023 123.335092 
C 55.545023 123.600295 55.65039 123.854672 55.837917 124.042199 
C 56.025444 124.229726 56.27982 124.335092 56.545023 124.335092 
z
" clip-path="url(#p773496e3e2)" style="stroke: #000000"/>
    <path d="M 49.186702 110.012293 
C 49.361216 110.012293 49.528605 109.942958 49.652005 109.819558 
C 49.775404 109.696159 49.844739 109.528769 49.844739 109.354256 
C 49.844739 109.179743 49.775404 109.012353 49.652005 108.888954 
C 49.528605 108.765554 49.361216 108.696219 49.186702 108.696219 
C 49.012189 108.696219 48.8448 108.765554 48.7214 108.888954 
C 48.598 109.012353 48.528665 109.179743 48.528665 109.354256 
C 48.528665 109.528769 48.598 109.696159 48.7214 109.819558 
C 48.8448 109.942958 49.012189 110.012293 49.186702 110.012293 
z
" clip-path="url(#p773496e3e2)" style="stroke: #000000"/>
   </g>
   <g id="matplotlib.axis_1">
    <g id="xtick_1">
     <g id="line2d_1">
      <defs>
       <path id="m00a0169ceb" d="M 0 0 
L 0 3.5 
" style="stroke: #000000; stroke-width: 0.8"/>
      </defs>
      <g>
       <use xlink:href="#m00a0169ceb" x="18" y="189" style="stroke: #000000; stroke-width: 0.8"/>
      </g>
     </g>
     <g id="text_1">
      <!-- −10 -->
      <g transform="translate(7.447656 203.598437)scale(0.1 -0.1)">
       <defs>
        <path id="DejaVuSans-2212" d="M 678 2272 
L 4684 2272 
L 4684 1741 
L 678 1741 
L 678 2272 
z
" transform="scale(0.015625)"/>
        <path id="DejaVuSans-31" d="M 794 531 
L 1825 531 
L 1825 4091 
L 703 3866 
L 703 4441 
L 1819 4666 
L 2450 4666 
L 2450 531 
L 3481 531 
L 3481 0 
L 794 0 
L 794 531 
z
" transform="scale(0.015625)"/>
        <path id="DejaVuSans-30" d="M 2034 4250 
Q 1547 4250 1301 3770 
Q 1056 3291 1056 2328 
Q 1056 1369 1301 889 
Q 1547 409 2034 409 
Q 2525 409 2770 889 
Q 3016 1369 3016 2328 
Q 3016 3291 2770 3770 
Q 2525 4250 2034 4250 
z
M 2034 4750 
Q 2819 4750 3233 4129 
Q 3647 3509 3647 2328 
Q 3647 1150 3233 529 
Q 2819 -91 2034 -91 
Q 1250 -91 836 529 
Q 422 1150 422 2328 
Q 422 3509 836 4129 
Q 1250 4750 2034 4750 
z
" transform="scale(0.015625)"/>
       </defs>
       <use xlink:href="#DejaVuSans-2212"/>
       <use xlink:href="#DejaVuSans-31" x="83.789062"/>
       <use xlink:href="#DejaVuSans-30" x="147.412109"/>
      </g>
     </g>
    </g>
    <g id="xtick_2">
     <g id="line2d_2">
      <g>
       <use xlink:href="#m00a0169ceb" x="73.8" y="189" style="stroke: #000000; stroke-width: 0.8"/>
      </g>
     </g>
     <g id="text_2">
      <!-- 0 -->
      <g transform="translate(70.61875 203.598437)scale(0.1 -0.1)">
       <use xlink:href="#DejaVuSans-30"/>
      </g>
     </g>
    </g>
    <g id="xtick_3">
     <g id="line2d_3">
      <g>
       <use xlink:href="#m00a0169ceb" x="129.6" y="189" style="stroke: #000000; stroke-width: 0.8"/>
      </g>
     </g>
     <g id="text_3">
      <!-- 10 -->
      <g transform="translate(123.2375 203.598437)scale(0.1 -0.1)">
       <use xlink:href="#DejaVuSans-31"/>
       <use xlink:href="#DejaVuSans-30" x="63.623047"/>
      </g>
     </g>
    </g>
   </g>
   <g id="matplotlib.axis_2">
    <g id="ytick_1">
     <g id="line2d_4">
      <defs>
       <path id="m3e0b0abfa7" d="M 0 0 
L -3.5 0 
" style="stroke: #000000; stroke-width: 0.8"/>
      </defs>
      <g>
       <use xlink:href="#m3e0b0abfa7" x="18" y="189" style="stroke: #000000; stroke-width: 0.8"/>
      </g>
     </g>
     <g id="text_4">
      <!-- −15 -->
      <g transform="translate(-10.104688 192.799219)scale(0.1 -0.1)">
       <defs>
        <path id="DejaVuSans-35" d="M 691 4666 
L 3169 4666 
L 3169 4134 
L 1269 4134 
L 1269 2991 
Q 1406 3038 1543 3061 
Q 1681 3084 1819 3084 
Q 2600 3084 3056 2656 
Q 3513 2228 3513 1497 
Q 3513 744 3044 326 
Q 2575 -91 1722 -91 
Q 1428 -91 1123 -41 
Q 819 9 494 109 
L 494 744 
Q 775 591 1075 516 
Q 1375 441 1709 441 
Q 2250 441 2565 725 
Q 2881 1009 2881 1497 
Q 2881 1984 2565 2268 
Q 2250 2553 1709 2553 
Q 1456 2553 1204 2497 
Q 953 2441 691 2322 
L 691 4666 
z
" transform="scale(0.015625)"/>
       </defs>
       <use xlink:href="#DejaVuSans-2212"/>
       <use xlink:href="#DejaVuSans-31" x="83.789062"/>
       <use xlink:href="#DejaVuSans-35" x="147.412109"/>
      </g>
     </g>
    </g>
    <g id="ytick_2">
     <g id="line2d_5">
      <g>
       <use xlink:href="#m3e0b0abfa7" x="18" y="161.82" style="stroke: #000000; stroke-width: 0.8"/>
      </g>
     </g>
     <g id="text_5">
      <!-- −10 -->
      <g transform="translate(-10.104688 165.619219)scale(0.1 -0.1)">
       <use xlink:href="#DejaVuSans-2212"/>
       <use xlink:href="#DejaVuSans-31" x="83.789062"/>
       <use xlink:href="#DejaVuSans-30" x="147.412109"/>
      </g>
     </g>
    </g>
    <g id="ytick_3">
     <g id="line2d_6">
      <g>
       <use xlink:href="#m3e0b0abfa7" x="18" y="134.64" style="stroke: #000000; stroke-width: 0.8"/>
      </g>
     </g>
     <g id="text_6">
      <!-- −5 -->
      <g transform="translate(-3.742188 138.439219)scale(0.1 -0.1)">
       <use xlink:href="#DejaVuSans-2212"/>
       <use xlink:href="#DejaVuSans-35" x="83.789062"/>
      </g>
     </g>
    </g>
    <g id="ytick_4">
     <g id="line2d_7">
      <g>
       <use xlink:href="#m3e0b0abfa7" x="18" y="107.46" style="stroke: #000000; stroke-width: 0.8"/>
      </g>
     </g>
     <g id="text_7">
      <!-- 0 -->
      <g transform="translate(4.6375 111.259219)scale(0.1 -0.1)">
       <use xlink:href="#DejaVuSans-30"/>
      </g>
     </g>
    </g>
    <g id="ytick_5">
     <g id="line2d_8">
      <g>
       <use xlink:href="#m3e0b0abfa7" x="18" y="80.28" style="stroke: #000000; stroke-width: 0.8"/>
      </g>
     </g>
     <g id="text_8">
      <!-- 5 -->
      <g transform="translate(4.6375 84.079219)scale(0.1 -0.1)">
       <use xlink:href="#DejaVuSans-35"/>
      </g>
     </g>
    </g>
    <g id="ytick_6">
     <g id="line2d_9">
      <g>
       <use xlink:href="#m3e0b0abfa7" x="18" y="53.1" style="stroke: #000000; stroke-width: 0.8"/>
      </g>
     </g>
     <g id="text_9">
      <!-- 10 -->
      <g transform="translate(-1.725 56.899219)scale(0.1 -0.1)">
       <use xlink:href="#DejaVuSans-31"/>
       <use xlink:href="#DejaVuSans-30" x="63.623047"/>
      </g>
     </g>
    </g>
    <g id="ytick_7">
     <g id="line2d_10">
      <g>
       <use xlink:href="#m3e0b0abfa7" x="18" y="25.92" style="stroke: #000000; stroke-width: 0.8"/>
      </g>
     </g>
     <g id="text_10">
      <!-- 15 -->
      <g transform="translate(-1.725 29.719219)scale(0.1 -0.1)">
       <use xlink:href="#DejaVuSans-31"/>
       <use xlink:href="#DejaVuSans-35" x="63.623047"/>
      </g>
     </g>
    </g>
   </g>
   <g id="patch_3">
    <path d="M 18 189 
L 18 25.92 
" style="fill: none; stroke: #000000; stroke-width: 0.8; stroke-linejoin: miter; stroke-linecap: square"/>
   </g>
   <g id="patch_4">
    <path d="M 129.6 189 
L 129.6 25.92 
" style="fill: none; stroke: #000000; stroke-width: 0.8; stroke-linejoin: miter; stroke-linecap: square"/>
   </g>
   <g id="patch_5">
    <path d="M 18 189 
L 129.6 189 
" style="fill: none; stroke: #000000; stroke-width: 0.8; stroke-linejoin: miter; stroke-linecap: square"/>
   </g>
   <g id="patch_6">
    <path d="M 18 25.92 
L 129.6 25.92 
" style="fill: none; stroke: #000000; stroke-width: 0.8; stroke-linejoin: miter; stroke-linecap: square"/>
   </g>
  </g>
 </g>
 <defs>
  <clipPath id="p773496e3e2">
   <rect x="18" y="25.92" width="111.6" height="163.08"/>
  </clipPath>
 </defs>
</svg>
