<?xml version="1.0" encoding="utf-8" standalone="no"?>
<!DOCTYPE svg PUBLIC "-//W3C//DTD SVG 1.1//EN"
  "http://www.w3.org/Graphics/SVG/1.1/DTD/svg11.dtd">
<svg xmlns:xlink="http://www.w3.org/1999/xlink" width="144pt" height="216pt" viewBox="0 0 144 216" xmlns="http://www.w3.org/2000/svg" version="1.1">
 <metadata>
  <rdf:RDF xmlns:dc="http://purl.org/dc/elements/1.1/" xmlns:cc="http://creativecommons.org/ns#" xmlns:rdf="http://www.w3.org/1999/02/22-rdf-syntax-ns#">
   <cc:Work>
    <dc:type rdf:resource="http://purl.org/dc/dcmitype/StillImage"/>
    <dc:date>2022-06-23T14:51:43.144330</dc:date>
    <dc:format>image/svg+xml</dc:format>
    <dc:creator>
     <cc:Agent>
      <dc:title>Matplotlib v3.5.1, https://matplotlib.org/</dc:title>
     </cc:Agent>
    </dc:creator>
   </cc:Work>
  </rdf:RDF>
 </metadata>
 <defs>
  <style type="text/css">*{stroke-linejoin: round; stroke-linecap: butt}</style>
 </defs>
 <g id="figure_1">
  <g id="patch_1">
   <path d="M 0 216 
L 144 216 
L 144 0 
L 0 0 
L 0 216 
z
" style="fill: none"/>
  </g>
  <g id="axes_1">
   <g id="patch_2">
    <path d="M 18 189 
L 129.6 189 
L 129.6 25.92 
L 18 25.92 
z
" style="fill: #ffffff"/>
   </g>
   <g id="PathCollection_1">
    <defs>
     <path id="m2ec68caefc" d="M 0 2.738613 
C 0.726289 2.738613 1.422928 2.450055 1.936492 1.936492 
C 2.450055 1.422928 2.738613 0.726289 2.738613 0 
C 2.738613 -0.726289 2.450055 -1.422928 1.936492 -1.936492 
C 1.422928 -2.450055 0.726289 -2.738613 0 -2.738613 
C -0.726289 -2.738613 -1.422928 -2.450055 -1.936492 -1.936492 
C -2.450055 -1.422928 -2.738613 -0.726289 -2.738613 0 
C -2.738613 0.726289 -2.450055 1.422928 -1.936492 1.936492 
C -1.422928 2.450055 -0.726289 2.738613 0 2.738613 
z
" style="stroke: #ff0000; stroke-width: 1.75"/>
    </defs>
    <g clip-path="url(#p269ef03d8d)">
     <use xlink:href="#m2ec68caefc" x="80.775" y="83.92143" style="fill: #ff0000; stroke: #ff0000; stroke-width: 1.75"/>
     <use xlink:href="#m2ec68caefc" x="59.85" y="95.690715" style="fill: #ff0000; stroke: #ff0000; stroke-width: 1.75"/>
     <use xlink:href="#m2ec68caefc" x="66.825" y="107.46" style="fill: #ff0000; stroke: #ff0000; stroke-width: 1.75"/>
     <use xlink:href="#m2ec68caefc" x="80.775" y="107.46" style="fill: #ff0000; stroke: #ff0000; stroke-width: 1.75"/>
     <use xlink:href="#m2ec68caefc" x="94.725" y="107.46" style="fill: #ff0000; stroke: #ff0000; stroke-width: 1.75"/>
     <use xlink:href="#m2ec68caefc" x="59.85" y="119.229285" style="fill: #ff0000; stroke: #ff0000; stroke-width: 1.75"/>
     <use xlink:href="#m2ec68caefc" x="80.775" y="130.99857" style="fill: #ff0000; stroke: #ff0000; stroke-width: 1.75"/>
    </g>
   </g>
   <g id="PathCollection_2">
    <defs>
     <path id="C0_0_5ec73bddf6" d="M 0 2.738613 
C 0.726289 2.738613 1.422928 2.450055 1.936492 1.936492 
C 2.450055 1.422928 2.738613 0.726289 2.738613 -0 
C 2.738613 -0.726289 2.450055 -1.422928 1.936492 -1.936492 
C 1.422928 -2.450055 0.726289 -2.738613 0 -2.738613 
C -0.726289 -2.738613 -1.422928 -2.450055 -1.936492 -1.936492 
C -2.450055 -1.422928 -2.738613 -0.726289 -2.738613 0 
C -2.738613 0.726289 -2.450055 1.422928 -1.936492 1.936492 
C -1.422928 2.450055 -0.726289 2.738613 0 2.738613 
z
"/>
    </defs>
    <g clip-path="url(#p269ef03d8d)">
     <use xlink:href="#C0_0_5ec73bddf6" x="66.825" y="83.92143" style="fill: none; stroke: #ff0000; stroke-width: 1.75"/>
    </g>
    <g clip-path="url(#p269ef03d8d)">
     <use xlink:href="#C0_0_5ec73bddf6" x="73.8" y="95.690715" style="fill: none; stroke: #ff0000; stroke-width: 1.75"/>
    </g>
    <g clip-path="url(#p269ef03d8d)">
     <use xlink:href="#C0_0_5ec73bddf6" x="87.75" y="95.690715" style="fill: none; stroke: #ff0000; stroke-width: 1.75"/>
    </g>
    <g clip-path="url(#p269ef03d8d)">
     <use xlink:href="#C0_0_5ec73bddf6" x="52.875" y="107.46" style="fill: none; stroke: #ff0000; stroke-width: 1.75"/>
    </g>
    <g clip-path="url(#p269ef03d8d)">
     <use xlink:href="#C0_0_5ec73bddf6" x="73.8" y="119.229285" style="fill: none; stroke: #ff0000; stroke-width: 1.75"/>
    </g>
    <g clip-path="url(#p269ef03d8d)">
     <use xlink:href="#C0_0_5ec73bddf6" x="87.75" y="119.229285" style="fill: none; stroke: #ff0000; stroke-width: 1.75"/>
    </g>
    <g clip-path="url(#p269ef03d8d)">
     <use xlink:href="#C0_0_5ec73bddf6" x="66.825" y="130.99857" style="fill: none; stroke: #ff0000; stroke-width: 1.75"/>
    </g>
   </g>
   <g id="PathCollection_3">
    <path d="M 111.813064 86.33354 
C 111.970755 86.33354 112.122008 86.270889 112.233512 86.159385 
C 112.345016 86.04788 112.407668 85.896627 112.407668 85.738936 
C 112.407668 85.581246 112.345016 85.429992 112.233512 85.318488 
C 112.122008 85.206984 111.970755 85.144333 111.813064 85.144333 
C 111.655373 85.144333 111.50412 85.206984 111.392616 85.318488 
C 111.281112 85.429992 111.21846 85.581246 111.21846 85.738936 
C 111.21846 85.896627 111.281112 86.04788 111.392616 86.159385 
C 111.50412 86.270889 111.655373 86.33354 111.813064 86.33354 
z
" clip-path="url(#p269ef03d8d)" style="stroke: #000000"/>
    <path d="M 117.382381 110.846419 
C 117.629181 110.846419 117.865905 110.748365 118.040418 110.573851 
C 118.214932 110.399338 118.312986 110.162613 118.312986 109.915814 
C 118.312986 109.669015 118.214932 109.43229 118.040418 109.257777 
C 117.865905 109.083264 117.629181 108.985209 117.382381 108.985209 
C 117.135582 108.985209 116.898858 109.083264 116.724344 109.257777 
C 116.549831 109.43229 116.451776 109.669015 116.451776 109.915814 
C 116.451776 110.162613 116.549831 110.399338 116.724344 110.573851 
C 116.898858 110.748365 117.135582 110.846419 117.382381 110.846419 
z
" clip-path="url(#p269ef03d8d)" style="stroke: #000000"/>
    <path d="M 110.587332 96.571038 
C 110.774859 96.571038 110.954731 96.496533 111.087332 96.363931 
C 111.219934 96.23133 111.294439 96.051458 111.294439 95.863931 
C 111.294439 95.676404 111.219934 95.496533 111.087332 95.363931 
C 110.954731 95.23133 110.774859 95.156824 110.587332 95.156824 
C 110.399806 95.156824 110.219934 95.23133 110.087332 95.363931 
C 109.954731 95.496533 109.880226 95.676404 109.880226 95.863931 
C 109.880226 96.051458 109.954731 96.23133 110.087332 96.363931 
C 110.219934 96.496533 110.399806 96.571038 110.587332 96.571038 
z
" clip-path="url(#p269ef03d8d)" style="stroke: #000000"/>
    <path d="M 103.779794 76.907779 
C 104.056639 76.907779 104.322183 76.797788 104.517942 76.602029 
C 104.713701 76.406269 104.823693 76.140726 104.823693 75.863881 
C 104.823693 75.587035 104.713701 75.321492 104.517942 75.125733 
C 104.322183 74.929974 104.056639 74.819982 103.779794 74.819982 
C 103.502949 74.819982 103.237405 74.929974 103.041646 75.125733 
C 102.845887 75.321492 102.735895 75.587035 102.735895 75.863881 
C 102.735895 76.140726 102.845887 76.406269 103.041646 76.602029 
C 103.237405 76.797788 103.502949 76.907779 103.779794 76.907779 
z
" clip-path="url(#p269ef03d8d)" style="stroke: #000000"/>
    <path d="M 98.082169 58.646633 
C 98.21477 58.646633 98.341959 58.59395 98.435722 58.500186 
C 98.529486 58.406423 98.582169 58.279235 98.582169 58.146633 
C 98.582169 58.014031 98.529486 57.886843 98.435722 57.79308 
C 98.341959 57.699316 98.21477 57.646633 98.082169 57.646633 
C 97.949567 57.646633 97.822379 57.699316 97.728615 57.79308 
C 97.634852 57.886843 97.582169 58.014031 97.582169 58.146633 
C 97.582169 58.279235 97.634852 58.406423 97.728615 58.500186 
C 97.822379 58.59395 97.949567 58.646633 98.082169 58.646633 
z
" clip-path="url(#p269ef03d8d)" style="stroke: #000000"/>
    <path d="M 100.801311 83.033817 
C 100.999597 83.033817 101.189788 82.955037 101.329997 82.814828 
C 101.470206 82.674619 101.548986 82.484428 101.548986 82.286143 
C 101.548986 82.087857 101.470206 81.897666 101.329997 81.757457 
C 101.189788 81.617248 100.999597 81.538468 100.801311 81.538468 
C 100.603026 81.538468 100.412835 81.617248 100.272626 81.757457 
C 100.132417 81.897666 100.053637 82.087857 100.053637 82.286143 
C 100.053637 82.484428 100.132417 82.674619 100.272626 82.814828 
C 100.412835 82.955037 100.603026 83.033817 100.801311 83.033817 
z
" clip-path="url(#p269ef03d8d)" style="stroke: #000000"/>
    <path d="M 94.861209 63.448613 
C 95.018899 63.448613 95.170153 63.385962 95.281657 63.274458 
C 95.393161 63.162953 95.455812 63.0117 95.455812 62.854009 
C 95.455812 62.696319 95.393161 62.545065 95.281657 62.433561 
C 95.170153 62.322057 95.018899 62.259406 94.861209 62.259406 
C 94.703518 62.259406 94.552265 62.322057 94.44076 62.433561 
C 94.329256 62.545065 94.266605 62.696319 94.266605 62.854009 
C 94.266605 63.0117 94.329256 63.162953 94.44076 63.274458 
C 94.552265 63.385962 94.703518 63.448613 94.861209 63.448613 
z
" clip-path="url(#p269ef03d8d)" style="stroke: #000000"/>
    <path d="M 108.540903 113.607348 
C 108.797399 113.607348 109.043424 113.505441 109.224794 113.324071 
C 109.406164 113.142701 109.508071 112.896675 109.508071 112.640179 
C 109.508071 112.383683 109.406164 112.137658 109.224794 111.956288 
C 109.043424 111.774918 108.797399 111.673011 108.540903 111.673011 
C 108.284407 111.673011 108.038382 111.774918 107.857012 111.956288 
C 107.675642 112.137658 107.573735 112.383683 107.573735 112.640179 
C 107.573735 112.896675 107.675642 113.142701 107.857012 113.324071 
C 108.038382 113.505441 108.284407 113.607348 108.540903 113.607348 
z
" clip-path="url(#p269ef03d8d)" style="stroke: #000000"/>
    <path d="M 101.605174 96.381326 
C 101.912889 96.381326 102.208042 96.25907 102.425629 96.041483 
C 102.643216 95.823895 102.765472 95.528743 102.765472 95.221028 
C 102.765472 94.913313 102.643216 94.618161 102.425629 94.400574 
C 102.208042 94.182986 101.912889 94.06073 101.605174 94.06073 
C 101.29746 94.06073 101.002307 94.182986 100.78472 94.400574 
C 100.567133 94.618161 100.444876 94.913313 100.444876 95.221028 
C 100.444876 95.528743 100.567133 95.823895 100.78472 96.041483 
C 101.002307 96.25907 101.29746 96.381326 101.605174 96.381326 
z
" clip-path="url(#p269ef03d8d)" style="stroke: #000000"/>
    <path d="M 96.767834 89.14383 
C 97.135338 89.14383 97.487839 88.997819 97.747703 88.737955 
C 98.007568 88.47809 98.153578 88.125589 98.153578 87.758086 
C 98.153578 87.390582 98.007568 87.038081 97.747703 86.778217 
C 97.487839 86.518352 97.135338 86.372342 96.767834 86.372342 
C 96.400331 86.372342 96.04783 86.518352 95.787965 86.778217 
C 95.528101 87.038081 95.38209 87.390582 95.38209 87.758086 
C 95.38209 88.125589 95.528101 88.47809 95.787965 88.737955 
C 96.04783 88.997819 96.400331 89.14383 96.767834 89.14383 
z
" clip-path="url(#p269ef03d8d)" style="stroke: #000000"/>
    <path d="M 95.059391 73.812631 
C 95.315887 73.812631 95.561912 73.710724 95.743283 73.529354 
C 95.924653 73.347984 96.02656 73.101958 96.02656 72.845462 
C 96.02656 72.588966 95.924653 72.342941 95.743283 72.161571 
C 95.561912 71.980201 95.315887 71.878294 95.059391 71.878294 
C 94.802895 71.878294 94.55687 71.980201 94.3755 72.161571 
C 94.19413 72.342941 94.092223 72.588966 94.092223 72.845462 
C 94.092223 73.101958 94.19413 73.347984 94.3755 73.529354 
C 94.55687 73.710724 94.802895 73.812631 95.059391 73.812631 
z
" clip-path="url(#p269ef03d8d)" style="stroke: #000000"/>
    <path d="M 90.220996 71.603304 
C 90.501414 71.603304 90.770385 71.491893 90.96867 71.293607 
C 91.166956 71.095322 91.278367 70.826351 91.278367 70.545933 
C 91.278367 70.265515 91.166956 69.996544 90.96867 69.798259 
C 90.770385 69.599973 90.501414 69.488562 90.220996 69.488562 
C 89.940578 69.488562 89.671607 69.599973 89.473322 69.798259 
C 89.275036 69.996544 89.163625 70.265515 89.163625 70.545933 
C 89.163625 70.826351 89.275036 71.095322 89.473322 71.293607 
C 89.671607 71.491893 89.940578 71.603304 90.220996 71.603304 
z
" clip-path="url(#p269ef03d8d)" style="stroke: #000000"/>
    <path d="M 110.961812 140.640746 
C 111.119503 140.640746 111.270756 140.578094 111.38226 140.46659 
C 111.493764 140.355086 111.556416 140.203833 111.556416 140.046142 
C 111.556416 139.888451 111.493764 139.737198 111.38226 139.625694 
C 111.270756 139.51419 111.119503 139.451539 110.961812 139.451539 
C 110.804121 139.451539 110.652868 139.51419 110.541364 139.625694 
C 110.42986 139.737198 110.367208 139.888451 110.367208 140.046142 
C 110.367208 140.203833 110.42986 140.355086 110.541364 140.46659 
C 110.652868 140.578094 110.804121 140.640746 110.961812 140.640746 
z
" clip-path="url(#p269ef03d8d)" style="stroke: #000000"/>
    <path d="M 110.605676 132.570449 
C 110.763366 132.570449 110.91462 132.507798 111.026124 132.396293 
C 111.137628 132.284789 111.200279 132.133536 111.200279 131.975845 
C 111.200279 131.818154 111.137628 131.666901 111.026124 131.555397 
C 110.91462 131.443893 110.763366 131.381242 110.605676 131.381242 
C 110.447985 131.381242 110.296732 131.443893 110.185227 131.555397 
C 110.073723 131.666901 110.011072 131.818154 110.011072 131.975845 
C 110.011072 132.133536 110.073723 132.284789 110.185227 132.396293 
C 110.296732 132.507798 110.447985 132.570449 110.605676 132.570449 
z
" clip-path="url(#p269ef03d8d)" style="stroke: #000000"/>
    <path d="M 99.687814 111.906195 
C 100.229752 111.906195 100.749567 111.690881 101.132775 111.307673 
C 101.515983 110.924464 101.731297 110.40465 101.731297 109.862712 
C 101.731297 109.320774 101.515983 108.800959 101.132775 108.417751 
C 100.749567 108.034543 100.229752 107.819229 99.687814 107.819229 
C 99.145876 107.819229 98.626061 108.034543 98.242853 108.417751 
C 97.859645 108.800959 97.644331 109.320774 97.644331 109.862712 
C 97.644331 110.40465 97.859645 110.924464 98.242853 111.307673 
C 98.626061 111.690881 99.145876 111.906195 99.687814 111.906195 
z
" clip-path="url(#p269ef03d8d)" style="stroke: #000000"/>
    <path d="M 100.398679 107.269439 
C 100.531281 107.269439 100.658469 107.216756 100.752233 107.122992 
C 100.845996 107.029229 100.898679 106.90204 100.898679 106.769439 
C 100.898679 106.636837 100.845996 106.509649 100.752233 106.415885 
C 100.658469 106.322122 100.531281 106.269439 100.398679 106.269439 
C 100.266078 106.269439 100.13889 106.322122 100.045126 106.415885 
C 99.951363 106.509649 99.898679 106.636837 99.898679 106.769439 
C 99.898679 106.90204 99.951363 107.029229 100.045126 107.122992 
C 100.13889 107.216756 100.266078 107.269439 100.398679 107.269439 
z
" clip-path="url(#p269ef03d8d)" style="stroke: #000000"/>
    <path d="M 93.1811 94.901186 
C 93.745409 94.901186 94.286681 94.676984 94.685708 94.277957 
C 95.084735 93.87893 95.308937 93.337658 95.308937 92.773349 
C 95.308937 92.20904 95.084735 91.667767 94.685708 91.268741 
C 94.286681 90.869714 93.745409 90.645511 93.1811 90.645511 
C 92.61679 90.645511 92.075518 90.869714 91.676491 91.268741 
C 91.277464 91.667767 91.053262 92.20904 91.053262 92.773349 
C 91.053262 93.337658 91.277464 93.87893 91.676491 94.277957 
C 92.075518 94.676984 92.61679 94.901186 93.1811 94.901186 
z
" clip-path="url(#p269ef03d8d)" style="stroke: #000000"/>
    <path d="M 106.681866 138.489674 
C 106.938362 138.489674 107.184387 138.387767 107.365757 138.206397 
C 107.547127 138.025027 107.649034 137.779002 107.649034 137.522506 
C 107.649034 137.26601 107.547127 137.019985 107.365757 136.838615 
C 107.184387 136.657244 106.938362 136.555338 106.681866 136.555338 
C 106.42537 136.555338 106.179345 136.657244 105.997975 136.838615 
C 105.816605 137.019985 105.714698 137.26601 105.714698 137.522506 
C 105.714698 137.779002 105.816605 138.025027 105.997975 138.206397 
C 106.179345 138.387767 106.42537 138.489674 106.681866 138.489674 
z
" clip-path="url(#p269ef03d8d)" style="stroke: #000000"/>
    <path d="M 97.256611 113.211032 
C 97.803813 113.211032 98.328678 112.993626 98.715608 112.606695 
C 99.102539 112.219764 99.319945 111.6949 99.319945 111.147698 
C 99.319945 110.600495 99.102539 110.075631 98.715608 109.6887 
C 98.328678 109.30177 97.803813 109.084364 97.256611 109.084364 
C 96.709408 109.084364 96.184544 109.30177 95.797614 109.6887 
C 95.410683 110.075631 95.193277 110.600495 95.193277 111.147698 
C 95.193277 111.6949 95.410683 112.219764 95.797614 112.606695 
C 96.184544 112.993626 96.709408 113.211032 97.256611 113.211032 
z
" clip-path="url(#p269ef03d8d)" style="stroke: #000000"/>
    <path d="M 97.191318 108.60159 
C 97.727834 108.60159 98.242447 108.38843 98.621821 108.009057 
C 99.001195 107.629683 99.214355 107.115069 99.214355 106.578554 
C 99.214355 106.042038 99.001195 105.527425 98.621821 105.148051 
C 98.242447 104.768677 97.727834 104.555518 97.191318 104.555518 
C 96.654803 104.555518 96.140189 104.768677 95.760815 105.148051 
C 95.381442 105.527425 95.168282 106.042038 95.168282 106.578554 
C 95.168282 107.115069 95.381442 107.629683 95.760815 108.009057 
C 96.140189 108.38843 96.654803 108.60159 97.191318 108.60159 
z
" clip-path="url(#p269ef03d8d)" style="stroke: #000000"/>
    <path d="M 93.500403 103.731602 
C 93.633005 103.731602 93.760193 103.678919 93.853957 103.585156 
C 93.94772 103.491392 94.000403 103.364204 94.000403 103.231602 
C 94.000403 103.099001 93.94772 102.971812 93.853957 102.878049 
C 93.760193 102.784285 93.633005 102.731602 93.500403 102.731602 
C 93.367802 102.731602 93.240613 102.784285 93.14685 102.878049 
C 93.053086 102.971812 93.000403 103.099001 93.000403 103.231602 
C 93.000403 103.364204 93.053086 103.491392 93.14685 103.585156 
C 93.240613 103.678919 93.367802 103.731602 93.500403 103.731602 
z
" clip-path="url(#p269ef03d8d)" style="stroke: #000000"/>
    <path d="M 92.056576 99.386365 
C 92.383615 99.386365 92.697303 99.256431 92.928554 99.02518 
C 93.159805 98.793929 93.289739 98.480241 93.289739 98.153202 
C 93.289739 97.826164 93.159805 97.512476 92.928554 97.281225 
C 92.697303 97.049973 92.383615 96.92004 92.056576 96.92004 
C 91.729538 96.92004 91.41585 97.049973 91.184598 97.281225 
C 90.953347 97.512476 90.823413 97.826164 90.823413 98.153202 
C 90.823413 98.480241 90.953347 98.793929 91.184598 99.02518 
C 91.41585 99.256431 91.729538 99.386365 92.056576 99.386365 
z
" clip-path="url(#p269ef03d8d)" style="stroke: #000000"/>
    <path d="M 90.45208 90.436001 
C 90.626594 90.436001 90.793983 90.366666 90.917383 90.243267 
C 91.040782 90.119867 91.110117 89.952478 91.110117 89.777964 
C 91.110117 89.603451 91.040782 89.436061 90.917383 89.312662 
C 90.793983 89.189262 90.626594 89.119927 90.45208 89.119927 
C 90.277567 89.119927 90.110178 89.189262 89.986778 89.312662 
C 89.863378 89.436061 89.794043 89.603451 89.794043 89.777964 
C 89.794043 89.952478 89.863378 90.119867 89.986778 90.243267 
C 90.110178 90.366666 90.277567 90.436001 90.45208 90.436001 
z
" clip-path="url(#p269ef03d8d)" style="stroke: #000000"/>
    <path d="M 84.589393 83.460284 
C 85.194275 83.460284 85.774464 83.219962 86.20218 82.792246 
C 86.629896 82.364529 86.870219 81.784341 86.870219 81.179459 
C 86.870219 80.574577 86.629896 79.994388 86.20218 79.566672 
C 85.774464 79.138956 85.194275 78.898634 84.589393 78.898634 
C 83.984512 78.898634 83.404323 79.138956 82.976607 79.566672 
C 82.54889 79.994388 82.308568 80.574577 82.308568 81.179459 
C 82.308568 81.784341 82.54889 82.364529 82.976607 82.792246 
C 83.404323 83.219962 83.984512 83.460284 84.589393 83.460284 
z
" clip-path="url(#p269ef03d8d)" style="stroke: #000000"/>
    <path d="M 84.448426 76.423132 
C 84.581027 76.423132 84.708215 76.370449 84.801979 76.276686 
C 84.895742 76.182922 84.948426 76.055734 84.948426 75.923132 
C 84.948426 75.790531 84.895742 75.663342 84.801979 75.569579 
C 84.708215 75.475815 84.581027 75.423132 84.448426 75.423132 
C 84.315824 75.423132 84.188636 75.475815 84.094872 75.569579 
C 84.001109 75.663342 83.948426 75.790531 83.948426 75.923132 
C 83.948426 76.055734 84.001109 76.182922 84.094872 76.276686 
C 84.188636 76.370449 84.315824 76.423132 84.448426 76.423132 
z
" clip-path="url(#p269ef03d8d)" style="stroke: #000000"/>
    <path d="M 80.865072 74.041718 
C 81.167339 74.041718 81.457265 73.921626 81.671 73.707892 
C 81.884734 73.494157 82.004826 73.20423 82.004826 72.901964 
C 82.004826 72.599698 81.884734 72.309771 81.671 72.096037 
C 81.457265 71.882302 81.167339 71.762211 80.865072 71.762211 
C 80.562806 71.762211 80.272879 71.882302 80.059145 72.096037 
C 79.84541 72.309771 79.725319 72.599698 79.725319 72.901964 
C 79.725319 73.20423 79.84541 73.494157 80.059145 73.707892 
C 80.272879 73.921626 80.562806 74.041718 80.865072 74.041718 
z
" clip-path="url(#p269ef03d8d)" style="stroke: #000000"/>
    <path d="M 105.466733 147.051996 
C 105.599334 147.051996 105.726523 146.999313 105.820286 146.905549 
C 105.91405 146.811786 105.966733 146.684597 105.966733 146.551996 
C 105.966733 146.419394 105.91405 146.292206 105.820286 146.198442 
C 105.726523 146.104679 105.599334 146.051996 105.466733 146.051996 
C 105.334131 146.051996 105.206943 146.104679 105.11318 146.198442 
C 105.019416 146.292206 104.966733 146.419394 104.966733 146.551996 
C 104.966733 146.684597 105.019416 146.811786 105.11318 146.905549 
C 105.206943 146.999313 105.334131 147.051996 105.466733 147.051996 
z
" clip-path="url(#p269ef03d8d)" style="stroke: #000000"/>
    <path d="M 100.66079 138.62067 
C 100.937636 138.62067 101.203179 138.510679 101.398938 138.314919 
C 101.594697 138.11916 101.704689 137.853617 101.704689 137.576771 
C 101.704689 137.299926 101.594697 137.034383 101.398938 136.838624 
C 101.203179 136.642864 100.937636 136.532873 100.66079 136.532873 
C 100.383945 136.532873 100.118402 136.642864 99.922642 136.838624 
C 99.726883 137.034383 99.616891 137.299926 99.616891 137.576771 
C 99.616891 137.853617 99.726883 138.11916 99.922642 138.314919 
C 100.118402 138.510679 100.383945 138.62067 100.66079 138.62067 
z
" clip-path="url(#p269ef03d8d)" style="stroke: #000000"/>
    <path d="M 98.507625 137.220624 
C 98.780754 137.220624 99.042732 137.112109 99.235863 136.918978 
C 99.428994 136.725848 99.537509 136.463869 99.537509 136.190741 
C 99.537509 135.917612 99.428994 135.655634 99.235863 135.462503 
C 99.042732 135.269372 98.780754 135.160857 98.507625 135.160857 
C 98.234497 135.160857 97.972519 135.269372 97.779388 135.462503 
C 97.586257 135.655634 97.477742 135.917612 97.477742 136.190741 
C 97.477742 136.463869 97.586257 136.725848 97.779388 136.918978 
C 97.972519 137.112109 98.234497 137.220624 98.507625 137.220624 
z
" clip-path="url(#p269ef03d8d)" style="stroke: #000000"/>
    <path d="M 94.778805 118.476171 
C 95.025605 118.476171 95.262329 118.378117 95.436843 118.203603 
C 95.611356 118.02909 95.70941 117.792366 95.70941 117.545566 
C 95.70941 117.298767 95.611356 117.062043 95.436843 116.887529 
C 95.262329 116.713016 95.025605 116.614961 94.778805 116.614961 
C 94.532006 116.614961 94.295282 116.713016 94.120768 116.887529 
C 93.946255 117.062043 93.848201 117.298767 93.848201 117.545566 
C 93.848201 117.792366 93.946255 118.02909 94.120768 118.203603 
C 94.295282 118.378117 94.532006 118.476171 94.778805 118.476171 
z
" clip-path="url(#p269ef03d8d)" style="stroke: #000000"/>
    <path d="M 91.330439 113.654494 
C 91.537971 113.654494 91.737032 113.57204 91.88378 113.425292 
C 92.030528 113.278545 92.112981 113.079484 92.112981 112.871951 
C 92.112981 112.664419 92.030528 112.465358 91.88378 112.31861 
C 91.737032 112.171863 91.537971 112.089409 91.330439 112.089409 
C 91.122906 112.089409 90.923846 112.171863 90.777098 112.31861 
C 90.63035 112.465358 90.547897 112.664419 90.547897 112.871951 
C 90.547897 113.079484 90.63035 113.278545 90.777098 113.425292 
C 90.923846 113.57204 91.122906 113.654494 91.330439 113.654494 
z
" clip-path="url(#p269ef03d8d)" style="stroke: #000000"/>
    <path d="M 90.954674 108.926266 
C 91.142201 108.926266 91.322073 108.85176 91.454674 108.719159 
C 91.587276 108.586557 91.661781 108.406686 91.661781 108.219159 
C 91.661781 108.031632 91.587276 107.85176 91.454674 107.719159 
C 91.322073 107.586557 91.142201 107.512052 90.954674 107.512052 
C 90.767147 107.512052 90.587276 107.586557 90.454674 107.719159 
C 90.322073 107.85176 90.247567 108.031632 90.247567 108.219159 
C 90.247567 108.406686 90.322073 108.586557 90.454674 108.719159 
C 90.587276 108.85176 90.767147 108.926266 90.954674 108.926266 
z
" clip-path="url(#p269ef03d8d)" style="stroke: #000000"/>
    <path d="M 87.905811 104.758815 
C 88.441323 104.758815 88.954974 104.546054 89.333638 104.16739 
C 89.712302 103.788726 89.925063 103.275076 89.925063 102.739564 
C 89.925063 102.204052 89.712302 101.690401 89.333638 101.311737 
C 88.954974 100.933073 88.441323 100.720312 87.905811 100.720312 
C 87.3703 100.720312 86.856649 100.933073 86.477985 101.311737 
C 86.099321 101.690401 85.88656 102.204052 85.88656 102.739564 
C 85.88656 103.275076 86.099321 103.788726 86.477985 104.16739 
C 86.856649 104.546054 87.3703 104.758815 87.905811 104.758815 
z
" clip-path="url(#p269ef03d8d)" style="stroke: #000000"/>
    <path d="M 87.233738 99.217961 
C 87.604317 99.217961 87.959769 99.070728 88.221808 98.808689 
C 88.483847 98.54665 88.631079 98.191199 88.631079 97.82062 
C 88.631079 97.45004 88.483847 97.094589 88.221808 96.83255 
C 87.959769 96.570511 87.604317 96.423279 87.233738 96.423279 
C 86.863159 96.423279 86.507708 96.570511 86.245669 96.83255 
C 85.98363 97.094589 85.836397 97.45004 85.836397 97.82062 
C 85.836397 98.191199 85.98363 98.54665 86.245669 98.808689 
C 86.507708 99.070728 86.863159 99.217961 87.233738 99.217961 
z
" clip-path="url(#p269ef03d8d)" style="stroke: #000000"/>
    <path d="M 86.626904 99.335929 
C 87.332119 99.335929 88.008544 99.055745 88.507206 98.557083 
C 89.005868 98.058421 89.286052 97.381996 89.286052 96.676781 
C 89.286052 95.971567 89.005868 95.295142 88.507206 94.79648 
C 88.008544 94.297818 87.332119 94.017633 86.626904 94.017633 
C 85.92169 94.017633 85.245264 94.297818 84.746603 94.79648 
C 84.247941 95.295142 83.967756 95.971567 83.967756 96.676781 
C 83.967756 97.381996 84.247941 98.058421 84.746603 98.557083 
C 85.245264 99.055745 85.92169 99.335929 86.626904 99.335929 
z
" clip-path="url(#p269ef03d8d)" style="stroke: #000000"/>
    <path d="M 85.642234 93.396761 
C 86.027148 93.396761 86.396348 93.243833 86.668523 92.971658 
C 86.940698 92.699483 87.093626 92.330283 87.093626 91.945369 
C 87.093626 91.560456 86.940698 91.191256 86.668523 90.919081 
C 86.396348 90.646906 86.027148 90.493978 85.642234 90.493978 
C 85.257321 90.493978 84.88812 90.646906 84.615945 90.919081 
C 84.34377 91.191256 84.190843 91.560456 84.190843 91.945369 
C 84.190843 92.330283 84.34377 92.699483 84.615945 92.971658 
C 84.88812 93.243833 85.257321 93.396761 85.642234 93.396761 
z
" clip-path="url(#p269ef03d8d)" style="stroke: #000000"/>
    <path d="M 84.055606 88.862724 
C 84.648618 88.862724 85.217422 88.627118 85.636745 88.207795 
C 86.056068 87.788472 86.291674 87.219668 86.291674 86.626656 
C 86.291674 86.033644 86.056068 85.46484 85.636745 85.045517 
C 85.217422 84.626195 84.648618 84.390588 84.055606 84.390588 
C 83.462594 84.390588 82.89379 84.626195 82.474467 85.045517 
C 82.055144 85.46484 81.819538 86.033644 81.819538 86.626656 
C 81.819538 87.219668 82.055144 87.788472 82.474467 88.207795 
C 82.89379 88.627118 83.462594 88.862724 84.055606 88.862724 
z
" clip-path="url(#p269ef03d8d)" style="stroke: #000000"/>
    <path d="M 79.900419 84.282092 
C 80.437933 84.282092 80.953504 84.068536 81.333583 83.688456 
C 81.713663 83.308377 81.927219 82.792806 81.927219 82.255292 
C 81.927219 81.717778 81.713663 81.202208 81.333583 80.822128 
C 80.953504 80.442048 80.437933 80.228492 79.900419 80.228492 
C 79.362905 80.228492 78.847335 80.442048 78.467255 80.822128 
C 78.087175 81.202208 77.873619 81.717778 77.873619 82.255292 
C 77.873619 82.792806 78.087175 83.308377 78.467255 83.688456 
C 78.847335 84.068536 79.362905 84.282092 79.900419 84.282092 
z
" clip-path="url(#p269ef03d8d)" style="stroke: #000000"/>
    <path d="M 81.262371 79.680071 
C 81.449898 79.680071 81.62977 79.605565 81.762371 79.472964 
C 81.894973 79.340362 81.969478 79.160491 81.969478 78.972964 
C 81.969478 78.785437 81.894973 78.605565 81.762371 78.472964 
C 81.62977 78.340362 81.449898 78.265857 81.262371 78.265857 
C 81.074844 78.265857 80.894973 78.340362 80.762371 78.472964 
C 80.62977 78.605565 80.555264 78.785437 80.555264 78.972964 
C 80.555264 79.160491 80.62977 79.340362 80.762371 79.472964 
C 80.894973 79.605565 81.074844 79.680071 81.262371 79.680071 
z
" clip-path="url(#p269ef03d8d)" style="stroke: #000000"/>
    <path d="M 77.037594 74.654843 
C 77.212108 74.654843 77.379497 74.585508 77.502897 74.462108 
C 77.626296 74.338709 77.695631 74.171319 77.695631 73.996806 
C 77.695631 73.822292 77.626296 73.654903 77.502897 73.531503 
C 77.379497 73.408104 77.212108 73.338769 77.037594 73.338769 
C 76.863081 73.338769 76.695691 73.408104 76.572292 73.531503 
C 76.448892 73.654903 76.379557 73.822292 76.379557 73.996806 
C 76.379557 74.171319 76.448892 74.338709 76.572292 74.462108 
C 76.695691 74.585508 76.863081 74.654843 77.037594 74.654843 
z
" clip-path="url(#p269ef03d8d)" style="stroke: #000000"/>
    <path d="M 74.909213 66.089508 
C 75.066904 66.089508 75.218157 66.026856 75.329661 65.915352 
C 75.441165 65.803848 75.503817 65.652595 75.503817 65.494904 
C 75.503817 65.337213 75.441165 65.18596 75.329661 65.074456 
C 75.218157 64.962952 75.066904 64.9003 74.909213 64.9003 
C 74.751522 64.9003 74.600269 64.962952 74.488765 65.074456 
C 74.377261 65.18596 74.314609 65.337213 74.314609 65.494904 
C 74.314609 65.652595 74.377261 65.803848 74.488765 65.915352 
C 74.600269 66.026856 74.751522 66.089508 74.909213 66.089508 
z
" clip-path="url(#p269ef03d8d)" style="stroke: #000000"/>
    <path d="M 90.696373 123.115544 
C 91.233887 123.115544 91.749458 122.901988 92.129538 122.521908 
C 92.509617 122.141828 92.723174 121.626258 92.723174 121.088744 
C 92.723174 120.55123 92.509617 120.035659 92.129538 119.65558 
C 91.749458 119.2755 91.233887 119.061944 90.696373 119.061944 
C 90.15886 119.061944 89.643289 119.2755 89.263209 119.65558 
C 88.88313 120.035659 88.669573 120.55123 88.669573 121.088744 
C 88.669573 121.626258 88.88313 122.141828 89.263209 122.521908 
C 89.643289 122.901988 90.15886 123.115544 90.696373 123.115544 
z
" clip-path="url(#p269ef03d8d)" style="stroke: #000000"/>
    <path d="M 89.118696 121.937941 
C 89.704537 121.937941 90.266463 121.705184 90.680715 121.290931 
C 91.094967 120.876679 91.327724 120.314754 91.327724 119.728913 
C 91.327724 119.143071 91.094967 118.581146 90.680715 118.166894 
C 90.266463 117.752642 89.704537 117.519884 89.118696 117.519884 
C 88.532855 117.519884 87.97093 117.752642 87.556677 118.166894 
C 87.142425 118.581146 86.909668 119.143071 86.909668 119.728913 
C 86.909668 120.314754 87.142425 120.876679 87.556677 121.290931 
C 87.97093 121.705184 88.532855 121.937941 89.118696 121.937941 
z
" clip-path="url(#p269ef03d8d)" style="stroke: #000000"/>
    <path d="M 83.556733 108.917203 
C 84.096718 108.917203 84.614659 108.702665 84.996486 108.320838 
C 85.378313 107.939011 85.592852 107.421069 85.592852 106.881084 
C 85.592852 106.341099 85.378313 105.823158 84.996486 105.441331 
C 84.614659 105.059504 84.096718 104.844965 83.556733 104.844965 
C 83.016748 104.844965 82.498806 105.059504 82.116979 105.441331 
C 81.735152 105.823158 81.520614 106.341099 81.520614 106.881084 
C 81.520614 107.421069 81.735152 107.939011 82.116979 108.320838 
C 82.498806 108.702665 83.016748 108.917203 83.556733 108.917203 
z
" clip-path="url(#p269ef03d8d)" style="stroke: #000000"/>
    <path d="M 85.529713 107.384572 
C 86.012691 107.384572 86.475952 107.192684 86.817468 106.851167 
C 87.158985 106.50965 87.350874 106.04639 87.350874 105.563412 
C 87.350874 105.080435 87.158985 104.617174 86.817468 104.275657 
C 86.475952 103.934141 86.012691 103.742252 85.529713 103.742252 
C 85.046736 103.742252 84.583475 103.934141 84.241959 104.275657 
C 83.900442 104.617174 83.708553 105.080435 83.708553 105.563412 
C 83.708553 106.04639 83.900442 106.50965 84.241959 106.851167 
C 84.583475 107.192684 85.046736 107.384572 85.529713 107.384572 
z
" clip-path="url(#p269ef03d8d)" style="stroke: #000000"/>
    <path d="M 84.029454 100.89636 
C 84.227739 100.89636 84.41793 100.81758 84.55814 100.677371 
C 84.698349 100.537162 84.777128 100.346971 84.777128 100.148686 
C 84.777128 99.9504 84.698349 99.760209 84.55814 99.62 
C 84.41793 99.479791 84.227739 99.401011 84.029454 99.401011 
C 83.831168 99.401011 83.640977 99.479791 83.500768 99.62 
C 83.360559 99.760209 83.28178 99.9504 83.28178 100.148686 
C 83.28178 100.346971 83.360559 100.537162 83.500768 100.677371 
C 83.640977 100.81758 83.831168 100.89636 84.029454 100.89636 
z
" clip-path="url(#p269ef03d8d)" style="stroke: #000000"/>
    <path d="M 81.391522 98.889374 
C 81.607209 98.889374 81.814091 98.803681 81.966604 98.651168 
C 82.119118 98.498654 82.204811 98.291773 82.204811 98.076086 
C 82.204811 97.860399 82.119118 97.653518 81.966604 97.501004 
C 81.814091 97.348491 81.607209 97.262798 81.391522 97.262798 
C 81.175836 97.262798 80.968954 97.348491 80.816441 97.501004 
C 80.663927 97.653518 80.578234 97.860399 80.578234 98.076086 
C 80.578234 98.291773 80.663927 98.498654 80.816441 98.651168 
C 80.968954 98.803681 81.175836 98.889374 81.391522 98.889374 
z
" clip-path="url(#p269ef03d8d)" style="stroke: #000000"/>
    <path d="M 79.542558 92.969214 
C 79.987701 92.969214 80.414672 92.792357 80.729435 92.477593 
C 81.044199 92.16283 81.221056 91.735859 81.221056 91.290716 
C 81.221056 90.845573 81.044199 90.418602 80.729435 90.103838 
C 80.414672 89.789075 79.987701 89.612217 79.542558 89.612217 
C 79.097415 89.612217 78.670444 89.789075 78.35568 90.103838 
C 78.040916 90.418602 77.864059 90.845573 77.864059 91.290716 
C 77.864059 91.735859 78.040916 92.16283 78.35568 92.477593 
C 78.670444 92.792357 79.097415 92.969214 79.542558 92.969214 
z
" clip-path="url(#p269ef03d8d)" style="stroke: #000000"/>
    <path d="M 78.307913 91.919032 
C 78.838837 91.919032 79.348086 91.708094 79.723506 91.332674 
C 80.098925 90.957255 80.309864 90.448005 80.309864 89.917081 
C 80.309864 89.386158 80.098925 88.876908 79.723506 88.501489 
C 79.348086 88.126069 78.838837 87.915131 78.307913 87.915131 
C 77.77699 87.915131 77.26774 88.126069 76.892321 88.501489 
C 76.516901 88.876908 76.305963 89.386158 76.305963 89.917081 
C 76.305963 90.448005 76.516901 90.957255 76.892321 91.332674 
C 77.26774 91.708094 77.77699 91.919032 78.307913 91.919032 
z
" clip-path="url(#p269ef03d8d)" style="stroke: #000000"/>
    <path d="M 77.465517 86.499687 
C 78.058529 86.499687 78.627333 86.26408 79.046656 85.844757 
C 79.465979 85.425435 79.701585 84.856631 79.701585 84.263619 
C 79.701585 83.670606 79.465979 83.101803 79.046656 82.68248 
C 78.627333 82.263157 78.058529 82.027551 77.465517 82.027551 
C 76.872505 82.027551 76.303701 82.263157 75.884378 82.68248 
C 75.465055 83.101803 75.229449 83.670606 75.229449 84.263619 
C 75.229449 84.856631 75.465055 85.425435 75.884378 85.844757 
C 76.303701 86.26408 76.872505 86.499687 77.465517 86.499687 
z
" clip-path="url(#p269ef03d8d)" style="stroke: #000000"/>
    <path d="M 75.88286 82.572225 
C 76.134647 82.572225 76.376156 82.472189 76.554197 82.294148 
C 76.732238 82.116108 76.832274 81.874599 76.832274 81.622811 
C 76.832274 81.371023 76.732238 81.129514 76.554197 80.951474 
C 76.376156 80.773433 76.134647 80.673397 75.88286 80.673397 
C 75.631072 80.673397 75.389563 80.773433 75.211522 80.951474 
C 75.033481 81.129514 74.933445 81.371023 74.933445 81.622811 
C 74.933445 81.874599 75.033481 82.116108 75.211522 82.294148 
C 75.389563 82.472189 75.631072 82.572225 75.88286 82.572225 
z
" clip-path="url(#p269ef03d8d)" style="stroke: #000000"/>
    <path d="M 68.794742 59.398088 
C 68.952432 59.398088 69.103686 59.335437 69.21519 59.223933 
C 69.326694 59.112429 69.389345 58.961176 69.389345 58.803485 
C 69.389345 58.645794 69.326694 58.494541 69.21519 58.383037 
C 69.103686 58.271532 68.952432 58.208881 68.794742 58.208881 
C 68.637051 58.208881 68.485798 58.271532 68.374293 58.383037 
C 68.262789 58.494541 68.200138 58.645794 68.200138 58.803485 
C 68.200138 58.961176 68.262789 59.112429 68.374293 59.223933 
C 68.485798 59.335437 68.637051 59.398088 68.794742 59.398088 
z
" clip-path="url(#p269ef03d8d)" style="stroke: #000000"/>
    <path d="M 87.413411 130.809842 
C 87.998095 130.809842 88.558911 130.577545 88.972346 130.16411 
C 89.38578 129.750676 89.618078 129.18986 89.618078 128.605175 
C 89.618078 128.020491 89.38578 127.459675 88.972346 127.046241 
C 88.558911 126.632806 87.998095 126.400509 87.413411 126.400509 
C 86.828726 126.400509 86.26791 126.632806 85.854476 127.046241 
C 85.441042 127.459675 85.208744 128.020491 85.208744 128.605175 
C 85.208744 129.18986 85.441042 129.750676 85.854476 130.16411 
C 86.26791 130.577545 86.828726 130.809842 87.413411 130.809842 
z
" clip-path="url(#p269ef03d8d)" style="stroke: #000000"/>
    <path d="M 85.98172 125.147852 
C 86.246923 125.147852 86.5013 125.042486 86.688826 124.854959 
C 86.876353 124.667432 86.98172 124.413055 86.98172 124.147852 
C 86.98172 123.882649 86.876353 123.628272 86.688826 123.440746 
C 86.5013 123.253219 86.246923 123.147852 85.98172 123.147852 
C 85.716517 123.147852 85.46214 123.253219 85.274613 123.440746 
C 85.087086 123.628272 84.98172 123.882649 84.98172 124.147852 
C 84.98172 124.413055 85.087086 124.667432 85.274613 124.854959 
C 85.46214 125.042486 85.716517 125.147852 85.98172 125.147852 
z
" clip-path="url(#p269ef03d8d)" style="stroke: #000000"/>
    <path d="M 83.814246 121.004214 
C 83.946848 121.004214 84.074036 120.951531 84.1678 120.857768 
C 84.261563 120.764004 84.314246 120.636816 84.314246 120.504214 
C 84.314246 120.371613 84.261563 120.244424 84.1678 120.150661 
C 84.074036 120.056897 83.946848 120.004214 83.814246 120.004214 
C 83.681645 120.004214 83.554456 120.056897 83.460693 120.150661 
C 83.366929 120.244424 83.314246 120.371613 83.314246 120.504214 
C 83.314246 120.636816 83.366929 120.764004 83.460693 120.857768 
C 83.554456 120.951531 83.681645 121.004214 83.814246 121.004214 
z
" clip-path="url(#p269ef03d8d)" style="stroke: #000000"/>
    <path d="M 83.447488 116.513628 
C 83.937184 116.513628 84.406889 116.31907 84.753157 115.972802 
C 85.099425 115.626535 85.293983 115.156829 85.293983 114.667133 
C 85.293983 114.177437 85.099425 113.707731 84.753157 113.361464 
C 84.406889 113.015196 83.937184 112.820638 83.447488 112.820638 
C 82.957791 112.820638 82.488086 113.015196 82.141818 113.361464 
C 81.795551 113.707731 81.600992 114.177437 81.600992 114.667133 
C 81.600992 115.156829 81.795551 115.626535 82.141818 115.972802 
C 82.488086 116.31907 82.957791 116.513628 83.447488 116.513628 
z
" clip-path="url(#p269ef03d8d)" style="stroke: #000000"/>
    <path d="M 82.296976 113.159909 
C 82.454667 113.159909 82.60592 113.097258 82.717424 112.985754 
C 82.828928 112.87425 82.891579 112.722996 82.891579 112.565306 
C 82.891579 112.407615 82.828928 112.256362 82.717424 112.144858 
C 82.60592 112.033353 82.454667 111.970702 82.296976 111.970702 
C 82.139285 111.970702 81.988032 112.033353 81.876528 112.144858 
C 81.765024 112.256362 81.702372 112.407615 81.702372 112.565306 
C 81.702372 112.722996 81.765024 112.87425 81.876528 112.985754 
C 81.988032 113.097258 82.139285 113.159909 82.296976 113.159909 
z
" clip-path="url(#p269ef03d8d)" style="stroke: #000000"/>
    <path d="M 81.046078 109.827492 
C 81.585572 109.827492 82.103041 109.613149 82.484521 109.23167 
C 82.866001 108.85019 83.080344 108.33272 83.080344 107.793227 
C 83.080344 107.253733 82.866001 106.736263 82.484521 106.354784 
C 82.103041 105.973304 81.585572 105.758961 81.046078 105.758961 
C 80.506584 105.758961 79.989115 105.973304 79.607635 106.354784 
C 79.226156 106.736263 79.011812 107.253733 79.011812 107.793227 
C 79.011812 108.33272 79.226156 108.85019 79.607635 109.23167 
C 79.989115 109.613149 80.506584 109.827492 81.046078 109.827492 
z
" clip-path="url(#p269ef03d8d)" style="stroke: #000000"/>
    <path d="M 79.141103 105.860145 
C 79.709665 105.860145 80.255017 105.634253 80.657051 105.232219 
C 81.059085 104.830185 81.284977 104.284833 81.284977 103.716271 
C 81.284977 103.147709 81.059085 102.602358 80.657051 102.200324 
C 80.255017 101.79829 79.709665 101.572397 79.141103 101.572397 
C 78.572541 101.572397 78.027189 101.79829 77.625155 102.200324 
C 77.223121 102.602358 76.997229 103.147709 76.997229 103.716271 
C 76.997229 104.284833 77.223121 104.830185 77.625155 105.232219 
C 78.027189 105.634253 78.572541 105.860145 79.141103 105.860145 
z
" clip-path="url(#p269ef03d8d)" style="stroke: #000000"/>
    <path d="M 78.447103 98.057916 
C 78.782643 98.057916 79.104485 97.924605 79.341748 97.687342 
C 79.579011 97.450079 79.712322 97.128237 79.712322 96.792696 
C 79.712322 96.457156 79.579011 96.135314 79.341748 95.898051 
C 79.104485 95.660788 78.782643 95.527477 78.447103 95.527477 
C 78.111562 95.527477 77.78972 95.660788 77.552457 95.898051 
C 77.315194 96.135314 77.181883 96.457156 77.181883 96.792696 
C 77.181883 97.128237 77.315194 97.450079 77.552457 97.687342 
C 77.78972 97.924605 78.111562 98.057916 78.447103 98.057916 
z
" clip-path="url(#p269ef03d8d)" style="stroke: #000000"/>
    <path d="M 75.732323 95.201457 
C 76.437537 95.201457 77.113963 94.921273 77.612625 94.422611 
C 78.111287 93.923949 78.391471 93.247524 78.391471 92.542309 
C 78.391471 91.837095 78.111287 91.16067 77.612625 90.662008 
C 77.113963 90.163346 76.437537 89.883161 75.732323 89.883161 
C 75.027109 89.883161 74.350683 90.163346 73.852022 90.662008 
C 73.35336 91.16067 73.073175 91.837095 73.073175 92.542309 
C 73.073175 93.247524 73.35336 93.923949 73.852022 94.422611 
C 74.350683 94.921273 75.027109 95.201457 75.732323 95.201457 
z
" clip-path="url(#p269ef03d8d)" style="stroke: #000000"/>
    <path d="M 74.021466 91.301431 
C 74.605376 91.301431 75.165449 91.069441 75.578335 90.656555 
C 75.991221 90.243668 76.223211 89.683596 76.223211 89.099686 
C 76.223211 88.515776 75.991221 87.955704 75.578335 87.542817 
C 75.165449 87.129931 74.605376 86.897941 74.021466 86.897941 
C 73.437557 86.897941 72.877484 87.129931 72.464598 87.542817 
C 72.051711 87.955704 71.819722 88.515776 71.819722 89.099686 
C 71.819722 89.683596 72.051711 90.243668 72.464598 90.656555 
C 72.877484 91.069441 73.437557 91.301431 74.021466 91.301431 
z
" clip-path="url(#p269ef03d8d)" style="stroke: #000000"/>
    <path d="M 71.50779 86.795343 
C 71.804296 86.795343 72.088698 86.67754 72.29836 86.467878 
C 72.508021 86.258217 72.625824 85.973815 72.625824 85.677309 
C 72.625824 85.380803 72.508021 85.096401 72.29836 84.886739 
C 72.088698 84.677078 71.804296 84.559275 71.50779 84.559275 
C 71.211284 84.559275 70.926882 84.677078 70.717221 84.886739 
C 70.507559 85.096401 70.389756 85.380803 70.389756 85.677309 
C 70.389756 85.973815 70.507559 86.258217 70.717221 86.467878 
C 70.926882 86.67754 71.211284 86.795343 71.50779 86.795343 
z
" clip-path="url(#p269ef03d8d)" style="stroke: #000000"/>
    <path d="M 70.032717 73.814346 
C 70.309562 73.814346 70.575106 73.704354 70.770865 73.508595 
C 70.966624 73.312836 71.076616 73.047292 71.076616 72.770447 
C 71.076616 72.493602 70.966624 72.228058 70.770865 72.032299 
C 70.575106 71.83654 70.309562 71.726548 70.032717 71.726548 
C 69.755872 71.726548 69.490328 71.83654 69.294569 72.032299 
C 69.09881 72.228058 68.988818 72.493602 68.988818 72.770447 
C 68.988818 73.047292 69.09881 73.312836 69.294569 73.508595 
C 69.490328 73.704354 69.755872 73.814346 70.032717 73.814346 
z
" clip-path="url(#p269ef03d8d)" style="stroke: #000000"/>
    <path d="M 54.822523 33.199443 
C 54.955125 33.199443 55.082313 33.146759 55.176077 33.052996 
C 55.26984 32.959233 55.322523 32.832044 55.322523 32.699443 
C 55.322523 32.566841 55.26984 32.439653 55.176077 32.345889 
C 55.082313 32.252126 54.955125 32.199443 54.822523 32.199443 
C 54.689922 32.199443 54.562734 32.252126 54.46897 32.345889 
C 54.375207 32.439653 54.322523 32.566841 54.322523 32.699443 
C 54.322523 32.832044 54.375207 32.959233 54.46897 33.052996 
C 54.562734 33.146759 54.689922 33.199443 54.822523 33.199443 
z
" clip-path="url(#p269ef03d8d)" style="stroke: #000000"/>
    <path d="M 83.690673 136.251496 
C 84.132269 136.251496 84.555837 136.076048 84.868092 135.763793 
C 85.180348 135.451537 85.355796 135.027969 85.355796 134.586373 
C 85.355796 134.144777 85.180348 133.721209 84.868092 133.408953 
C 84.555837 133.096698 84.132269 132.92125 83.690673 132.92125 
C 83.249077 132.92125 82.825508 133.096698 82.513253 133.408953 
C 82.200998 133.721209 82.02555 134.144777 82.02555 134.586373 
C 82.02555 135.027969 82.200998 135.451537 82.513253 135.763793 
C 82.825508 136.076048 83.249077 136.251496 83.690673 136.251496 
z
" clip-path="url(#p269ef03d8d)" style="stroke: #000000"/>
    <path d="M 83.035356 133.969454 
C 83.74057 133.969454 84.416996 133.689269 84.915657 133.190607 
C 85.414319 132.691945 85.694504 132.01552 85.694504 131.310306 
C 85.694504 130.605091 85.414319 129.928666 84.915657 129.430004 
C 84.416996 128.931342 83.74057 128.651158 83.035356 128.651158 
C 82.330142 128.651158 81.653716 128.931342 81.155054 129.430004 
C 80.656393 129.928666 80.376208 130.605091 80.376208 131.310306 
C 80.376208 132.01552 80.656393 132.691945 81.155054 133.190607 
C 81.653716 133.689269 82.330142 133.969454 83.035356 133.969454 
z
" clip-path="url(#p269ef03d8d)" style="stroke: #000000"/>
    <path d="M 80.540319 127.196697 
C 80.747852 127.196697 80.946912 127.114244 81.09366 126.967496 
C 81.240408 126.820748 81.322862 126.621688 81.322862 126.414155 
C 81.322862 126.206623 81.240408 126.007562 81.09366 125.860814 
C 80.946912 125.714067 80.747852 125.631613 80.540319 125.631613 
C 80.332787 125.631613 80.133726 125.714067 79.986978 125.860814 
C 79.840231 126.007562 79.757777 126.206623 79.757777 126.414155 
C 79.757777 126.621688 79.840231 126.820748 79.986978 126.967496 
C 80.133726 127.114244 80.332787 127.196697 80.540319 127.196697 
z
" clip-path="url(#p269ef03d8d)" style="stroke: #000000"/>
    <path d="M 80.207604 122.917055 
C 80.415137 122.917055 80.614198 122.834601 80.760945 122.687853 
C 80.907693 122.541106 80.990147 122.342045 80.990147 122.134512 
C 80.990147 121.92698 80.907693 121.727919 80.760945 121.581171 
C 80.614198 121.434424 80.415137 121.35197 80.207604 121.35197 
C 80.000072 121.35197 79.801011 121.434424 79.654263 121.581171 
C 79.507516 121.727919 79.425062 121.92698 79.425062 122.134512 
C 79.425062 122.342045 79.507516 122.541106 79.654263 122.687853 
C 79.801011 122.834601 80.000072 122.917055 80.207604 122.917055 
z
" clip-path="url(#p269ef03d8d)" style="stroke: #000000"/>
    <path d="M 72.355469 98.565478 
C 72.948851 98.565478 73.51801 98.329725 73.937595 97.91014 
C 74.35718 97.490555 74.592933 96.921397 74.592933 96.328014 
C 74.592933 95.734632 74.35718 95.165473 73.937595 94.745888 
C 73.51801 94.326303 72.948851 94.09055 72.355469 94.09055 
C 71.762086 94.09055 71.192927 94.326303 70.773343 94.745888 
C 70.353758 95.165473 70.118004 95.734632 70.118004 96.328014 
C 70.118004 96.921397 70.353758 97.490555 70.773343 97.91014 
C 71.192927 98.329725 71.762086 98.565478 72.355469 98.565478 
z
" clip-path="url(#p269ef03d8d)" style="stroke: #000000"/>
    <path d="M 70.270271 90.938471 
C 70.526767 90.938471 70.772793 90.836564 70.954163 90.655194 
C 71.135533 90.473824 71.23744 90.227799 71.23744 89.971303 
C 71.23744 89.714807 71.135533 89.468782 70.954163 89.287412 
C 70.772793 89.106042 70.526767 89.004135 70.270271 89.004135 
C 70.013775 89.004135 69.76775 89.106042 69.58638 89.287412 
C 69.40501 89.468782 69.303103 89.714807 69.303103 89.971303 
C 69.303103 90.227799 69.40501 90.473824 69.58638 90.655194 
C 69.76775 90.836564 70.013775 90.938471 70.270271 90.938471 
z
" clip-path="url(#p269ef03d8d)" style="stroke: #000000"/>
    <path d="M 67.195076 88.965359 
C 67.736528 88.965359 68.255876 88.750238 68.63874 88.367374 
C 69.021604 87.98451 69.236726 87.465161 69.236726 86.92371 
C 69.236726 86.382258 69.021604 85.86291 68.63874 85.480045 
C 68.255876 85.097181 67.736528 84.88206 67.195076 84.88206 
C 66.653624 84.88206 66.134276 85.097181 65.751412 85.480045 
C 65.368547 85.86291 65.153426 86.382258 65.153426 86.92371 
C 65.153426 87.465161 65.368547 87.98451 65.751412 88.367374 
C 66.134276 88.750238 66.653624 88.965359 67.195076 88.965359 
z
" clip-path="url(#p269ef03d8d)" style="stroke: #000000"/>
    <path d="M 67.181723 82.728217 
C 67.53433 82.728217 67.872542 82.588124 68.121873 82.338793 
C 68.371204 82.089462 68.511297 81.75125 68.511297 81.398643 
C 68.511297 81.046035 68.371204 80.707823 68.121873 80.458492 
C 67.872542 80.209161 67.53433 80.069069 67.181723 80.069069 
C 66.829115 80.069069 66.490903 80.209161 66.241572 80.458492 
C 65.992241 80.707823 65.852149 81.046035 65.852149 81.398643 
C 65.852149 81.75125 65.992241 82.089462 66.241572 82.338793 
C 66.490903 82.588124 66.829115 82.728217 67.181723 82.728217 
z
" clip-path="url(#p269ef03d8d)" style="stroke: #000000"/>
    <path d="M 65.769893 80.550805 
C 66.192326 80.550805 66.597514 80.38297 66.89622 80.084265 
C 67.194925 79.78556 67.362759 79.380372 67.362759 78.957939 
C 67.362759 78.535505 67.194925 78.130317 66.89622 77.831612 
C 66.597514 77.532907 66.192326 77.365072 65.769893 77.365072 
C 65.34746 77.365072 64.942272 77.532907 64.643567 77.831612 
C 64.344861 78.130317 64.177027 78.535505 64.177027 78.957939 
C 64.177027 79.380372 64.344861 79.78556 64.643567 80.084265 
C 64.942272 80.38297 65.34746 80.550805 65.769893 80.550805 
z
" clip-path="url(#p269ef03d8d)" style="stroke: #000000"/>
    <path d="M 77.81169 137.646612 
C 78.131888 137.646612 78.439014 137.519396 78.665428 137.292982 
C 78.891842 137.066568 79.019058 136.759442 79.019058 136.439244 
C 79.019058 136.119046 78.891842 135.81192 78.665428 135.585506 
C 78.439014 135.359092 78.131888 135.231876 77.81169 135.231876 
C 77.491492 135.231876 77.184366 135.359092 76.957952 135.585506 
C 76.731538 135.81192 76.604322 136.119046 76.604322 136.439244 
C 76.604322 136.759442 76.731538 137.066568 76.957952 137.292982 
C 77.184366 137.519396 77.491492 137.646612 77.81169 137.646612 
z
" clip-path="url(#p269ef03d8d)" style="stroke: #000000"/>
    <path d="M 78.822555 132.39425 
C 79.259593 132.39425 79.67879 132.220613 79.987822 131.911581 
C 80.296855 131.602549 80.470492 131.183352 80.470492 130.746314 
C 80.470492 130.309276 80.296855 129.890079 79.987822 129.581047 
C 79.67879 129.272014 79.259593 129.098377 78.822555 129.098377 
C 78.385517 129.098377 77.96632 129.272014 77.657288 129.581047 
C 77.348255 129.890079 77.174618 130.309276 77.174618 130.746314 
C 77.174618 131.183352 77.348255 131.602549 77.657288 131.911581 
C 77.96632 132.220613 78.385517 132.39425 78.822555 132.39425 
z
" clip-path="url(#p269ef03d8d)" style="stroke: #000000"/>
    <path d="M 75.479588 124.420811 
C 76.031448 124.420811 76.56078 124.201555 76.951004 123.811331 
C 77.341228 123.421107 77.560484 122.891775 77.560484 122.339915 
C 77.560484 121.788055 77.341228 121.258724 76.951004 120.8685 
C 76.56078 120.478276 76.031448 120.259019 75.479588 120.259019 
C 74.927728 120.259019 74.398397 120.478276 74.008173 120.8685 
C 73.617949 121.258724 73.398693 121.788055 73.398693 122.339915 
C 73.398693 122.891775 73.617949 123.421107 74.008173 123.811331 
C 74.398397 124.201555 74.927728 124.420811 75.479588 124.420811 
z
" clip-path="url(#p269ef03d8d)" style="stroke: #000000"/>
    <path d="M 73.568673 121.719971 
C 74.161685 121.719971 74.730489 121.484364 75.149812 121.065041 
C 75.569135 120.645719 75.804741 120.076915 75.804741 119.483903 
C 75.804741 118.89089 75.569135 118.322087 75.149812 117.902764 
C 74.730489 117.483441 74.161685 117.247835 73.568673 117.247835 
C 72.975661 117.247835 72.406857 117.483441 71.987534 117.902764 
C 71.568212 118.322087 71.332605 118.89089 71.332605 119.483903 
C 71.332605 120.076915 71.568212 120.645719 71.987534 121.065041 
C 72.406857 121.484364 72.975661 121.719971 73.568673 121.719971 
z
" clip-path="url(#p269ef03d8d)" style="stroke: #000000"/>
    <path d="M 71.907802 112.70439 
C 72.444318 112.70439 72.958931 112.49123 73.338305 112.111857 
C 73.717679 111.732483 73.930839 111.217869 73.930839 110.681354 
C 73.930839 110.144838 73.717679 109.630225 73.338305 109.250851 
C 72.958931 108.871477 72.444318 108.658318 71.907802 108.658318 
C 71.371287 108.658318 70.856673 108.871477 70.477299 109.250851 
C 70.097926 109.630225 69.884766 110.144838 69.884766 110.681354 
C 69.884766 111.217869 70.097926 111.732483 70.477299 112.111857 
C 70.856673 112.49123 71.371287 112.70439 71.907802 112.70439 
z
" clip-path="url(#p269ef03d8d)" style="stroke: #000000"/>
    <path d="M 69.692613 106.322292 
C 70.142923 106.322292 70.57485 106.143382 70.893267 105.824965 
C 71.211684 105.506548 71.390594 105.074621 71.390594 104.624311 
C 71.390594 104.174001 71.211684 103.742074 70.893267 103.423657 
C 70.57485 103.105239 70.142923 102.926329 69.692613 102.926329 
C 69.242303 102.926329 68.810376 103.105239 68.491959 103.423657 
C 68.173542 103.742074 67.994632 104.174001 67.994632 104.624311 
C 67.994632 105.074621 68.173542 105.506548 68.491959 105.824965 
C 68.810376 106.143382 69.242303 106.322292 69.692613 106.322292 
z
" clip-path="url(#p269ef03d8d)" style="stroke: #000000"/>
    <path d="M 67.292217 103.515396 
C 67.594483 103.515396 67.88441 103.395304 68.098145 103.18157 
C 68.311879 102.967835 68.431971 102.677908 68.431971 102.375642 
C 68.431971 102.073376 68.311879 101.783449 68.098145 101.569715 
C 67.88441 101.35598 67.594483 101.235889 67.292217 101.235889 
C 66.989951 101.235889 66.700024 101.35598 66.48629 101.569715 
C 66.272555 101.783449 66.152464 102.073376 66.152464 102.375642 
C 66.152464 102.677908 66.272555 102.967835 66.48629 103.18157 
C 66.700024 103.395304 66.989951 103.515396 67.292217 103.515396 
z
" clip-path="url(#p269ef03d8d)" style="stroke: #000000"/>
    <path d="M 65.304605 94.930052 
C 65.701176 94.930052 66.081558 94.772493 66.361976 94.492075 
C 66.642395 94.211657 66.799954 93.831275 66.799954 93.434704 
C 66.799954 93.038133 66.642395 92.657751 66.361976 92.377332 
C 66.081558 92.096914 65.701176 91.939355 65.304605 91.939355 
C 64.908034 91.939355 64.527652 92.096914 64.247234 92.377332 
C 63.966816 92.657751 63.809256 93.038133 63.809256 93.434704 
C 63.809256 93.831275 63.966816 94.211657 64.247234 94.492075 
C 64.527652 94.772493 64.908034 94.930052 65.304605 94.930052 
z
" clip-path="url(#p269ef03d8d)" style="stroke: #000000"/>
    <path d="M 64.183691 89.568204 
C 64.714614 89.568204 65.223864 89.357266 65.599283 88.981846 
C 65.974703 88.606427 66.185641 88.097177 66.185641 87.566254 
C 66.185641 87.03533 65.974703 86.526081 65.599283 86.150661 
C 65.223864 85.775241 64.714614 85.564303 64.183691 85.564303 
C 63.652767 85.564303 63.143518 85.775241 62.768098 86.150661 
C 62.392679 86.526081 62.18174 87.03533 62.18174 87.566254 
C 62.18174 88.097177 62.392679 88.606427 62.768098 88.981846 
C 63.143518 89.357266 63.652767 89.568204 64.183691 89.568204 
z
" clip-path="url(#p269ef03d8d)" style="stroke: #000000"/>
    <path d="M 61.490159 84.703158 
C 61.777339 84.703158 62.052795 84.58906 62.255862 84.385993 
C 62.458929 84.182926 62.573027 83.907469 62.573027 83.620289 
C 62.573027 83.333109 62.458929 83.057653 62.255862 82.854586 
C 62.052795 82.651519 61.777339 82.537421 61.490159 82.537421 
C 61.202979 82.537421 60.927522 82.651519 60.724455 82.854586 
C 60.521388 83.057653 60.40729 83.333109 60.40729 83.620289 
C 60.40729 83.907469 60.521388 84.182926 60.724455 84.385993 
C 60.927522 84.58906 61.202979 84.703158 61.490159 84.703158 
z
" clip-path="url(#p269ef03d8d)" style="stroke: #000000"/>
    <path d="M 61.584674 78.720872 
C 61.80036 78.720872 62.007242 78.635179 62.159755 78.482666 
C 62.312269 78.330152 62.397962 78.12327 62.397962 77.907584 
C 62.397962 77.691897 62.312269 77.485016 62.159755 77.332502 
C 62.007242 77.179989 61.80036 77.094296 61.584674 77.094296 
C 61.368987 77.094296 61.162106 77.179989 61.009592 77.332502 
C 60.857079 77.485016 60.771385 77.691897 60.771385 77.907584 
C 60.771385 78.12327 60.857079 78.330152 61.009592 78.482666 
C 61.162106 78.635179 61.368987 78.720872 61.584674 78.720872 
z
" clip-path="url(#p269ef03d8d)" style="stroke: #000000"/>
    <path d="M 60.343424 76.300284 
C 60.759566 76.300284 61.15872 76.134949 61.452977 75.840692 
C 61.747234 75.546435 61.912569 75.147281 61.912569 74.731139 
C 61.912569 74.314997 61.747234 73.915843 61.452977 73.621587 
C 61.15872 73.32733 60.759566 73.161995 60.343424 73.161995 
C 59.927282 73.161995 59.528128 73.32733 59.233872 73.621587 
C 58.939615 73.915843 58.77428 74.314997 58.77428 74.731139 
C 58.77428 75.147281 58.939615 75.546435 59.233872 75.840692 
C 59.528128 76.134949 59.927282 76.300284 60.343424 76.300284 
z
" clip-path="url(#p269ef03d8d)" style="stroke: #000000"/>
    <path d="M 46.886607 41.593424 
C 47.019208 41.593424 47.146397 41.540741 47.24016 41.446977 
C 47.333924 41.353214 47.386607 41.226026 47.386607 41.093424 
C 47.386607 40.960823 47.333924 40.833634 47.24016 40.739871 
C 47.146397 40.646107 47.019208 40.593424 46.886607 40.593424 
C 46.754005 40.593424 46.626817 40.646107 46.533053 40.739871 
C 46.43929 40.833634 46.386607 40.960823 46.386607 41.093424 
C 46.386607 41.226026 46.43929 41.353214 46.533053 41.446977 
C 46.626817 41.540741 46.754005 41.593424 46.886607 41.593424 
z
" clip-path="url(#p269ef03d8d)" style="stroke: #000000"/>
    <path d="M 79.616553 147.40548 
C 79.889681 147.40548 80.15166 147.296965 80.34479 147.103834 
C 80.537921 146.910703 80.646436 146.648725 80.646436 146.375596 
C 80.646436 146.102468 80.537921 145.84049 80.34479 145.647359 
C 80.15166 145.454228 79.889681 145.345713 79.616553 145.345713 
C 79.343424 145.345713 79.081446 145.454228 78.888315 145.647359 
C 78.695184 145.84049 78.586669 146.102468 78.586669 146.375596 
C 78.586669 146.648725 78.695184 146.910703 78.888315 147.103834 
C 79.081446 147.296965 79.343424 147.40548 79.616553 147.40548 
z
" clip-path="url(#p269ef03d8d)" style="stroke: #000000"/>
    <path d="M 77.981863 140.131731 
C 78.387997 140.131731 78.777551 139.970372 79.064731 139.683192 
C 79.351911 139.396012 79.51327 139.006458 79.51327 138.600324 
C 79.51327 138.19419 79.351911 137.804636 79.064731 137.517455 
C 78.777551 137.230275 78.387997 137.068917 77.981863 137.068917 
C 77.575729 137.068917 77.186175 137.230275 76.898994 137.517455 
C 76.611814 137.804636 76.450456 138.19419 76.450456 138.600324 
C 76.450456 139.006458 76.611814 139.396012 76.898994 139.683192 
C 77.186175 139.970372 77.575729 140.131731 77.981863 140.131731 
z
" clip-path="url(#p269ef03d8d)" style="stroke: #000000"/>
    <path d="M 73.727133 132.575216 
C 74.089873 132.575216 74.437805 132.431098 74.694301 132.174602 
C 74.950797 131.918106 75.094916 131.570174 75.094916 131.207434 
C 75.094916 130.844694 74.950797 130.496762 74.694301 130.240266 
C 74.437805 129.98377 74.089873 129.839652 73.727133 129.839652 
C 73.364393 129.839652 73.016461 129.98377 72.759965 130.240266 
C 72.503469 130.496762 72.359351 130.844694 72.359351 131.207434 
C 72.359351 131.570174 72.503469 131.918106 72.759965 132.174602 
C 73.016461 132.431098 73.364393 132.575216 73.727133 132.575216 
z
" clip-path="url(#p269ef03d8d)" style="stroke: #000000"/>
    <path d="M 70.898899 123.27935 
C 71.494489 123.27935 72.065765 123.042719 72.48691 122.621574 
C 72.908056 122.200428 73.144686 121.629152 73.144686 121.033563 
C 73.144686 120.437973 72.908056 119.866697 72.48691 119.445551 
C 72.065765 119.024406 71.494489 118.787775 70.898899 118.787775 
C 70.303309 118.787775 69.732033 119.024406 69.310888 119.445551 
C 68.889742 119.866697 68.653112 120.437973 68.653112 121.033563 
C 68.653112 121.629152 68.889742 122.200428 69.310888 122.621574 
C 69.732033 123.042719 70.303309 123.27935 70.898899 123.27935 
z
" clip-path="url(#p269ef03d8d)" style="stroke: #000000"/>
    <path d="M 68.656966 119.084539 
C 69.168809 119.084539 69.659758 118.881181 70.021685 118.519253 
C 70.383613 118.157326 70.58697 117.666377 70.58697 117.154534 
C 70.58697 116.642691 70.383613 116.151743 70.021685 115.789815 
C 69.659758 115.427888 69.168809 115.22453 68.656966 115.22453 
C 68.145123 115.22453 67.654175 115.427888 67.292247 115.789815 
C 66.93032 116.151743 66.726962 116.642691 66.726962 117.154534 
C 66.726962 117.666377 66.93032 118.157326 67.292247 118.519253 
C 67.654175 118.881181 68.145123 119.084539 68.656966 119.084539 
z
" clip-path="url(#p269ef03d8d)" style="stroke: #000000"/>
    <path d="M 66.752274 114.518889 
C 67.195654 114.518889 67.620934 114.342732 67.934451 114.029215 
C 68.247968 113.715698 68.424124 113.290418 68.424124 112.847038 
C 68.424124 112.403658 68.247968 111.978378 67.934451 111.664861 
C 67.620934 111.351344 67.195654 111.175188 66.752274 111.175188 
C 66.308894 111.175188 65.883614 111.351344 65.570097 111.664861 
C 65.25658 111.978378 65.080423 112.403658 65.080423 112.847038 
C 65.080423 113.290418 65.25658 113.715698 65.570097 114.029215 
C 65.883614 114.342732 66.308894 114.518889 66.752274 114.518889 
z
" clip-path="url(#p269ef03d8d)" style="stroke: #000000"/>
    <path d="M 65.708227 111.522786 
C 66.413441 111.522786 67.089867 111.242602 67.588529 110.74394 
C 68.08719 110.245278 68.367375 109.568853 68.367375 108.863639 
C 68.367375 108.158424 68.08719 107.481999 67.588529 106.983337 
C 67.089867 106.484675 66.413441 106.204491 65.708227 106.204491 
C 65.003013 106.204491 64.326587 106.484675 63.827925 106.983337 
C 63.329264 107.481999 63.049079 108.158424 63.049079 108.863639 
C 63.049079 109.568853 63.329264 110.245278 63.827925 110.74394 
C 64.326587 111.242602 65.003013 111.522786 65.708227 111.522786 
z
" clip-path="url(#p269ef03d8d)" style="stroke: #000000"/>
    <path d="M 63.879284 103.010667 
C 64.011886 103.010667 64.139074 102.957984 64.232838 102.86422 
C 64.326601 102.770457 64.379284 102.643269 64.379284 102.510667 
C 64.379284 102.378065 64.326601 102.250877 64.232838 102.157114 
C 64.139074 102.06335 64.011886 102.010667 63.879284 102.010667 
C 63.746683 102.010667 63.619494 102.06335 63.525731 102.157114 
C 63.431967 102.250877 63.379284 102.378065 63.379284 102.510667 
C 63.379284 102.643269 63.431967 102.770457 63.525731 102.86422 
C 63.619494 102.957984 63.746683 103.010667 63.879284 103.010667 
z
" clip-path="url(#p269ef03d8d)" style="stroke: #000000"/>
    <path d="M 62.209717 99.107895 
C 62.678347 99.107895 63.127845 98.921706 63.459217 98.590335 
C 63.790588 98.258964 63.976776 97.809465 63.976776 97.340835 
C 63.976776 96.872205 63.790588 96.422707 63.459217 96.091335 
C 63.127845 95.759964 62.678347 95.573776 62.209717 95.573776 
C 61.741087 95.573776 61.291588 95.759964 60.960217 96.091335 
C 60.628846 96.422707 60.442658 96.872205 60.442658 97.340835 
C 60.442658 97.809465 60.628846 98.258964 60.960217 98.590335 
C 61.291588 98.921706 61.741087 99.107895 62.209717 99.107895 
z
" clip-path="url(#p269ef03d8d)" style="stroke: #000000"/>
    <path d="M 60.863287 94.152411 
C 61.185814 94.152411 61.495174 94.02427 61.723235 93.796209 
C 61.951296 93.568148 62.079437 93.258788 62.079437 92.936261 
C 62.079437 92.613735 61.951296 92.304375 61.723235 92.076314 
C 61.495174 91.848253 61.185814 91.720112 60.863287 91.720112 
C 60.540761 91.720112 60.2314 91.848253 60.00334 92.076314 
C 59.775279 92.304375 59.647138 92.613735 59.647138 92.936261 
C 59.647138 93.258788 59.775279 93.568148 60.00334 93.796209 
C 60.2314 94.02427 60.540761 94.152411 60.863287 94.152411 
z
" clip-path="url(#p269ef03d8d)" style="stroke: #000000"/>
    <path d="M 56.769662 86.865755 
C 56.957189 86.865755 57.137061 86.79125 57.269662 86.658649 
C 57.402264 86.526047 57.476769 86.346175 57.476769 86.158649 
C 57.476769 85.971122 57.402264 85.79125 57.269662 85.658649 
C 57.137061 85.526047 56.957189 85.451542 56.769662 85.451542 
C 56.582135 85.451542 56.402264 85.526047 56.269662 85.658649 
C 56.137061 85.79125 56.062555 85.971122 56.062555 86.158649 
C 56.062555 86.346175 56.137061 86.526047 56.269662 86.658649 
C 56.402264 86.79125 56.582135 86.865755 56.769662 86.865755 
z
" clip-path="url(#p269ef03d8d)" style="stroke: #000000"/>
    <path d="M 56.734336 81.8665 
C 56.908849 81.8665 57.076238 81.797165 57.199638 81.673765 
C 57.323038 81.550365 57.392373 81.382976 57.392373 81.208463 
C 57.392373 81.033949 57.323038 80.86656 57.199638 80.74316 
C 57.076238 80.61976 56.908849 80.550426 56.734336 80.550426 
C 56.559822 80.550426 56.392433 80.61976 56.269033 80.74316 
C 56.145633 80.86656 56.076298 81.033949 56.076298 81.208463 
C 56.076298 81.382976 56.145633 81.550365 56.269033 81.673765 
C 56.392433 81.797165 56.559822 81.8665 56.734336 81.8665 
z
" clip-path="url(#p269ef03d8d)" style="stroke: #000000"/>
    <path d="M 74.596972 149.602335 
C 74.795258 149.602335 74.985449 149.523555 75.125658 149.383346 
C 75.265867 149.243137 75.344647 149.052946 75.344647 148.85466 
C 75.344647 148.656375 75.265867 148.466184 75.125658 148.325975 
C 74.985449 148.185766 74.795258 148.106986 74.596972 148.106986 
C 74.398687 148.106986 74.208496 148.185766 74.068287 148.325975 
C 73.928077 148.466184 73.849298 148.656375 73.849298 148.85466 
C 73.849298 149.052946 73.928077 149.243137 74.068287 149.383346 
C 74.208496 149.523555 74.398687 149.602335 74.596972 149.602335 
z
" clip-path="url(#p269ef03d8d)" style="stroke: #000000"/>
    <path d="M 69.966288 137.370327 
C 70.513961 137.370327 71.039277 137.152734 71.426541 136.765471 
C 71.813805 136.378207 72.031398 135.852891 72.031398 135.305217 
C 72.031398 134.757544 71.813805 134.232227 71.426541 133.844964 
C 71.039277 133.4577 70.513961 133.240107 69.966288 133.240107 
C 69.418614 133.240107 68.893298 133.4577 68.506034 133.844964 
C 68.11877 134.232227 67.901177 134.757544 67.901177 135.305217 
C 67.901177 135.852891 68.11877 136.378207 68.506034 136.765471 
C 68.893298 137.152734 69.418614 137.370327 69.966288 137.370327 
z
" clip-path="url(#p269ef03d8d)" style="stroke: #000000"/>
    <path d="M 68.337026 132.562918 
C 68.87799 132.562918 69.396871 132.347991 69.77939 131.965471 
C 70.16191 131.582952 70.376837 131.064071 70.376837 130.523107 
C 70.376837 129.982143 70.16191 129.463262 69.77939 129.080743 
C 69.396871 128.698223 68.87799 128.483296 68.337026 128.483296 
C 67.796062 128.483296 67.277181 128.698223 66.894662 129.080743 
C 66.512142 129.463262 66.297215 129.982143 66.297215 130.523107 
C 66.297215 131.064071 66.512142 131.582952 66.894662 131.965471 
C 67.277181 132.347991 67.796062 132.562918 68.337026 132.562918 
z
" clip-path="url(#p269ef03d8d)" style="stroke: #000000"/>
    <path d="M 67.291084 128.229911 
C 67.506771 128.229911 67.713653 128.144218 67.866166 127.991704 
C 68.01868 127.839191 68.104373 127.632309 68.104373 127.416623 
C 68.104373 127.200936 68.01868 126.994054 67.866166 126.841541 
C 67.713653 126.689027 67.506771 126.603334 67.291084 126.603334 
C 67.075398 126.603334 66.868516 126.689027 66.716003 126.841541 
C 66.563489 126.994054 66.477796 127.200936 66.477796 127.416623 
C 66.477796 127.632309 66.563489 127.839191 66.716003 127.991704 
C 66.868516 128.144218 67.075398 128.229911 67.291084 128.229911 
z
" clip-path="url(#p269ef03d8d)" style="stroke: #000000"/>
    <path d="M 66.061208 123.888486 
C 66.602172 123.888486 67.121053 123.673559 67.503572 123.291039 
C 67.886092 122.90852 68.101019 122.389639 68.101019 121.848675 
C 68.101019 121.307711 67.886092 120.78883 67.503572 120.406311 
C 67.121053 120.023791 66.602172 119.808864 66.061208 119.808864 
C 65.520244 119.808864 65.001363 120.023791 64.618844 120.406311 
C 64.236325 120.78883 64.021397 121.307711 64.021397 121.848675 
C 64.021397 122.389639 64.236325 122.90852 64.618844 123.291039 
C 65.001363 123.673559 65.520244 123.888486 66.061208 123.888486 
z
" clip-path="url(#p269ef03d8d)" style="stroke: #000000"/>
    <path d="M 56.819441 100.687738 
C 57.359426 100.687738 57.877368 100.4732 58.259195 100.091373 
C 58.641022 99.709546 58.85556 99.191604 58.85556 98.651619 
C 58.85556 98.111634 58.641022 97.593693 58.259195 97.211866 
C 57.877368 96.830038 57.359426 96.6155 56.819441 96.6155 
C 56.279456 96.6155 55.761515 96.830038 55.379688 97.211866 
C 54.99786 97.593693 54.783322 98.111634 54.783322 98.651619 
C 54.783322 99.191604 54.99786 99.709546 55.379688 100.091373 
C 55.761515 100.4732 56.279456 100.687738 56.819441 100.687738 
z
" clip-path="url(#p269ef03d8d)" style="stroke: #000000"/>
    <path d="M 54.878053 96.623438 
C 55.119542 96.623438 55.351172 96.527494 55.521931 96.356735 
C 55.692689 96.185977 55.788633 95.954347 55.788633 95.712858 
C 55.788633 95.471369 55.692689 95.239739 55.521931 95.068981 
C 55.351172 94.898222 55.119542 94.802278 54.878053 94.802278 
C 54.636564 94.802278 54.404934 94.898222 54.234176 95.068981 
C 54.063417 95.239739 53.967473 95.471369 53.967473 95.712858 
C 53.967473 95.954347 54.063417 96.185977 54.234176 96.356735 
C 54.404934 96.527494 54.636564 96.623438 54.878053 96.623438 
z
" clip-path="url(#p269ef03d8d)" style="stroke: #000000"/>
    <path d="M 52.412091 89.475315 
C 52.87381 89.475315 53.316681 89.291872 53.643165 88.965388 
C 53.96965 88.638903 54.153093 88.196032 54.153093 87.734313 
C 54.153093 87.272594 53.96965 86.829723 53.643165 86.503239 
C 53.316681 86.176754 52.87381 85.993311 52.412091 85.993311 
C 51.950372 85.993311 51.507501 86.176754 51.181016 86.503239 
C 50.854531 86.829723 50.671089 87.272594 50.671089 87.734313 
C 50.671089 88.196032 50.854531 88.638903 51.181016 88.965388 
C 51.507501 89.291872 51.950372 89.475315 52.412091 89.475315 
z
" clip-path="url(#p269ef03d8d)" style="stroke: #000000"/>
    <path d="M 51.481379 83.431983 
C 51.794267 83.431983 52.094382 83.307671 52.315627 83.086426 
C 52.536873 82.86518 52.661184 82.565065 52.661184 82.252177 
C 52.661184 81.939289 52.536873 81.639174 52.315627 81.417929 
C 52.094382 81.196683 51.794267 81.072372 51.481379 81.072372 
C 51.168491 81.072372 50.868376 81.196683 50.64713 81.417929 
C 50.425885 81.639174 50.301573 81.939289 50.301573 82.252177 
C 50.301573 82.565065 50.425885 82.86518 50.64713 83.086426 
C 50.868376 83.307671 51.168491 83.431983 51.481379 83.431983 
z
" clip-path="url(#p269ef03d8d)" style="stroke: #000000"/>
    <path d="M 47.184472 69.588854 
C 47.317073 69.588854 47.444262 69.536171 47.538025 69.442408 
C 47.631789 69.348644 47.684472 69.221456 47.684472 69.088854 
C 47.684472 68.956253 47.631789 68.829065 47.538025 68.735301 
C 47.444262 68.641538 47.317073 68.588854 47.184472 68.588854 
C 47.05187 68.588854 46.924682 68.641538 46.830918 68.735301 
C 46.737155 68.829065 46.684472 68.956253 46.684472 69.088854 
C 46.684472 69.221456 46.737155 69.348644 46.830918 69.442408 
C 46.924682 69.536171 47.05187 69.588854 47.184472 69.588854 
z
" clip-path="url(#p269ef03d8d)" style="stroke: #000000"/>
    <path d="M 64.885574 136.620974 
C 65.121376 136.620974 65.347553 136.527288 65.51429 136.360551 
C 65.681028 136.193813 65.774713 135.967636 65.774713 135.731834 
C 65.774713 135.496031 65.681028 135.269855 65.51429 135.103117 
C 65.347553 134.93638 65.121376 134.842694 64.885574 134.842694 
C 64.649771 134.842694 64.423595 134.93638 64.256857 135.103117 
C 64.090119 135.269855 63.996434 135.496031 63.996434 135.731834 
C 63.996434 135.967636 64.090119 136.193813 64.256857 136.360551 
C 64.423595 136.527288 64.649771 136.620974 64.885574 136.620974 
z
" clip-path="url(#p269ef03d8d)" style="stroke: #000000"/>
    <path d="M 63.458647 134.120027 
C 64.047161 134.120027 64.61165 133.886208 65.027792 133.470066 
C 65.443934 133.053924 65.677752 132.489435 65.677752 131.900922 
C 65.677752 131.312408 65.443934 130.747919 65.027792 130.331777 
C 64.61165 129.915635 64.047161 129.681816 63.458647 129.681816 
C 62.870133 129.681816 62.305645 129.915635 61.889503 130.331777 
C 61.473361 130.747919 61.239542 131.312408 61.239542 131.900922 
C 61.239542 132.489435 61.473361 133.053924 61.889503 133.470066 
C 62.305645 133.886208 62.870133 134.120027 63.458647 134.120027 
z
" clip-path="url(#p269ef03d8d)" style="stroke: #000000"/>
    <path d="M 61.98823 127.608879 
C 62.203916 127.608879 62.410798 127.523186 62.563311 127.370672 
C 62.715825 127.218159 62.801518 127.011277 62.801518 126.795591 
C 62.801518 126.579904 62.715825 126.373022 62.563311 126.220509 
C 62.410798 126.067996 62.203916 125.982302 61.98823 125.982302 
C 61.772543 125.982302 61.565661 126.067996 61.413148 126.220509 
C 61.260634 126.373022 61.174941 126.579904 61.174941 126.795591 
C 61.174941 127.011277 61.260634 127.218159 61.413148 127.370672 
C 61.565661 127.523186 61.772543 127.608879 61.98823 127.608879 
z
" clip-path="url(#p269ef03d8d)" style="stroke: #000000"/>
    <path d="M 59.009161 122.184383 
C 59.601058 122.184383 60.168792 121.94922 60.587326 121.530686 
C 61.005861 121.112151 61.241024 120.544417 61.241024 119.95252 
C 61.241024 119.360623 61.005861 118.792888 60.587326 118.374354 
C 60.168792 117.955819 59.601058 117.720656 59.009161 117.720656 
C 58.417264 117.720656 57.849529 117.955819 57.430995 118.374354 
C 57.01246 118.792888 56.777297 119.360623 56.777297 119.95252 
C 56.777297 120.544417 57.01246 121.112151 57.430995 121.530686 
C 57.849529 121.94922 58.417264 122.184383 59.009161 122.184383 
z
" clip-path="url(#p269ef03d8d)" style="stroke: #000000"/>
    <path d="M 55.160214 112.618936 
C 55.711613 112.618936 56.240503 112.399863 56.630402 112.009964 
C 57.0203 111.620066 57.239373 111.091176 57.239373 110.539777 
C 57.239373 109.988377 57.0203 109.459487 56.630402 109.069589 
C 56.240503 108.679691 55.711613 108.460617 55.160214 108.460617 
C 54.608814 108.460617 54.079924 108.679691 53.690026 109.069589 
C 53.300128 109.459487 53.081054 109.988377 53.081054 110.539777 
C 53.081054 111.091176 53.300128 111.620066 53.690026 112.009964 
C 54.079924 112.399863 54.608814 112.618936 55.160214 112.618936 
z
" clip-path="url(#p269ef03d8d)" style="stroke: #000000"/>
    <path d="M 53.962756 105.014412 
C 54.13727 105.014412 54.304659 104.945077 54.428059 104.821677 
C 54.551458 104.698278 54.620793 104.530888 54.620793 104.356375 
C 54.620793 104.181861 54.551458 104.014472 54.428059 103.891072 
C 54.304659 103.767673 54.13727 103.698338 53.962756 103.698338 
C 53.788243 103.698338 53.620853 103.767673 53.497454 103.891072 
C 53.374054 104.014472 53.304719 104.181861 53.304719 104.356375 
C 53.304719 104.530888 53.374054 104.698278 53.497454 104.821677 
C 53.620853 104.945077 53.788243 105.014412 53.962756 105.014412 
z
" clip-path="url(#p269ef03d8d)" style="stroke: #000000"/>
    <path d="M 53.645574 102.559402 
C 53.983142 102.559402 54.306929 102.425285 54.545626 102.186589 
C 54.784322 101.947892 54.918439 101.624105 54.918439 101.286537 
C 54.918439 100.94897 54.784322 100.625182 54.545626 100.386486 
C 54.306929 100.147789 53.983142 100.013672 53.645574 100.013672 
C 53.308007 100.013672 52.984219 100.147789 52.745523 100.386486 
C 52.506827 100.625182 52.37271 100.94897 52.37271 101.286537 
C 52.37271 101.624105 52.506827 101.947892 52.745523 102.186589 
C 52.984219 102.425285 53.308007 102.559402 53.645574 102.559402 
z
" clip-path="url(#p269ef03d8d)" style="stroke: #000000"/>
    <path d="M 50.597712 93.504595 
C 50.755403 93.504595 50.906656 93.441944 51.01816 93.33044 
C 51.129665 93.218936 51.192316 93.067683 51.192316 92.909992 
C 51.192316 92.752301 51.129665 92.601048 51.01816 92.489544 
C 50.906656 92.378039 50.755403 92.315388 50.597712 92.315388 
C 50.440021 92.315388 50.288768 92.378039 50.177264 92.489544 
C 50.06576 92.601048 50.003109 92.752301 50.003109 92.909992 
C 50.003109 93.067683 50.06576 93.218936 50.177264 93.33044 
C 50.288768 93.441944 50.440021 93.504595 50.597712 93.504595 
z
" clip-path="url(#p269ef03d8d)" style="stroke: #000000"/>
    <path d="M 48.802106 87.969104 
C 48.959797 87.969104 49.11105 87.906453 49.222554 87.794949 
C 49.334058 87.683444 49.39671 87.532191 49.39671 87.3745 
C 49.39671 87.21681 49.334058 87.065556 49.222554 86.954052 
C 49.11105 86.842548 48.959797 86.779897 48.802106 86.779897 
C 48.644415 86.779897 48.493162 86.842548 48.381658 86.954052 
C 48.270154 87.065556 48.207503 87.21681 48.207503 87.3745 
C 48.207503 87.532191 48.270154 87.683444 48.381658 87.794949 
C 48.493162 87.906453 48.644415 87.969104 48.802106 87.969104 
z
" clip-path="url(#p269ef03d8d)" style="stroke: #000000"/>
    <path d="M 60.856671 137.846036 
C 60.989273 137.846036 61.116461 137.793353 61.210225 137.69959 
C 61.303988 137.605826 61.356671 137.478638 61.356671 137.346036 
C 61.356671 137.213435 61.303988 137.086246 61.210225 136.992483 
C 61.116461 136.898719 60.989273 136.846036 60.856671 136.846036 
C 60.72407 136.846036 60.596881 136.898719 60.503118 136.992483 
C 60.409354 137.086246 60.356671 137.213435 60.356671 137.346036 
C 60.356671 137.478638 60.409354 137.605826 60.503118 137.69959 
C 60.596881 137.793353 60.72407 137.846036 60.856671 137.846036 
z
" clip-path="url(#p269ef03d8d)" style="stroke: #000000"/>
    <path d="M 56.79715 125.702976 
C 57.126376 125.702976 57.442162 125.572173 57.67496 125.339375 
C 57.907758 125.106577 58.038561 124.790791 58.038561 124.461564 
C 58.038561 124.132338 57.907758 123.816552 57.67496 123.583754 
C 57.442162 123.350955 57.126376 123.220152 56.79715 123.220152 
C 56.467923 123.220152 56.152137 123.350955 55.919339 123.583754 
C 55.686541 123.816552 55.555738 124.132338 55.555738 124.461564 
C 55.555738 124.790791 55.686541 125.106577 55.919339 125.339375 
C 56.152137 125.572173 56.467923 125.702976 56.79715 125.702976 
z
" clip-path="url(#p269ef03d8d)" style="stroke: #000000"/>
    <path d="M 55.300454 120.765995 
C 55.843843 120.765995 56.365049 120.550104 56.749283 120.16587 
C 57.133517 119.781636 57.349408 119.26043 57.349408 118.717041 
C 57.349408 118.173652 57.133517 117.652445 56.749283 117.268211 
C 56.365049 116.883977 55.843843 116.668086 55.300454 116.668086 
C 54.757065 116.668086 54.235858 116.883977 53.851624 117.268211 
C 53.46739 117.652445 53.251499 118.173652 53.251499 118.717041 
C 53.251499 119.26043 53.46739 119.781636 53.851624 120.16587 
C 54.235858 120.550104 54.757065 120.765995 55.300454 120.765995 
z
" clip-path="url(#p269ef03d8d)" style="stroke: #000000"/>
    <path d="M 53.635722 117.971277 
C 54.02979 117.971277 54.407772 117.814711 54.686421 117.536062 
C 54.96507 117.257414 55.121635 116.879432 55.121635 116.485363 
C 55.121635 116.091294 54.96507 115.713312 54.686421 115.434663 
C 54.407772 115.156014 54.02979 114.999449 53.635722 114.999449 
C 53.241653 114.999449 52.863671 115.156014 52.585022 115.434663 
C 52.306373 115.713312 52.149808 116.091294 52.149808 116.485363 
C 52.149808 116.879432 52.306373 117.257414 52.585022 117.536062 
C 52.863671 117.814711 53.241653 117.971277 53.635722 117.971277 
z
" clip-path="url(#p269ef03d8d)" style="stroke: #000000"/>
    <path d="M 50.803962 113.760295 
C 51.229438 113.760295 51.637545 113.591252 51.938402 113.290395 
C 52.239259 112.989538 52.408302 112.581431 52.408302 112.155955 
C 52.408302 111.730479 52.239259 111.322372 51.938402 111.021515 
C 51.637545 110.720658 51.229438 110.551615 50.803962 110.551615 
C 50.378486 110.551615 49.970379 110.720658 49.669522 111.021515 
C 49.368665 111.322372 49.199622 111.730479 49.199622 112.155955 
C 49.199622 112.581431 49.368665 112.989538 49.669522 113.290395 
C 49.970379 113.591252 50.378486 113.760295 50.803962 113.760295 
z
" clip-path="url(#p269ef03d8d)" style="stroke: #000000"/>
    <path d="M 49.513311 109.001968 
C 50.099536 109.001968 50.66183 108.769059 51.076354 108.354535 
C 51.490878 107.940011 51.723788 107.377717 51.723788 106.791492 
C 51.723788 106.205267 51.490878 105.642973 51.076354 105.228449 
C 50.66183 104.813926 50.099536 104.581016 49.513311 104.581016 
C 48.927086 104.581016 48.364792 104.813926 47.950269 105.228449 
C 47.535745 105.642973 47.302835 106.205267 47.302835 106.791492 
C 47.302835 107.377717 47.535745 107.940011 47.950269 108.354535 
C 48.364792 108.769059 48.927086 109.001968 49.513311 109.001968 
z
" clip-path="url(#p269ef03d8d)" style="stroke: #000000"/>
    <path d="M 54.307417 130.819108 
C 54.465107 130.819108 54.616361 130.756457 54.727865 130.644953 
C 54.839369 130.533449 54.90202 130.382195 54.90202 130.224505 
C 54.90202 130.066814 54.839369 129.915561 54.727865 129.804056 
C 54.616361 129.692552 54.465107 129.629901 54.307417 129.629901 
C 54.149726 129.629901 53.998473 129.692552 53.886968 129.804056 
C 53.775464 129.915561 53.712813 130.066814 53.712813 130.224505 
C 53.712813 130.382195 53.775464 130.533449 53.886968 130.644953 
C 53.998473 130.756457 54.149726 130.819108 54.307417 130.819108 
z
" clip-path="url(#p269ef03d8d)" style="stroke: #000000"/>
    <path d="M 52.317731 126.671738 
C 52.598149 126.671738 52.867119 126.560327 53.065405 126.362041 
C 53.263691 126.163756 53.375102 125.894785 53.375102 125.614367 
C 53.375102 125.333949 53.263691 125.064978 53.065405 124.866693 
C 52.867119 124.668407 52.598149 124.556996 52.317731 124.556996 
C 52.037312 124.556996 51.768342 124.668407 51.570056 124.866693 
C 51.371771 125.064978 51.260359 125.333949 51.260359 125.614367 
C 51.260359 125.894785 51.371771 126.163756 51.570056 126.362041 
C 51.768342 126.560327 52.037312 126.671738 52.317731 126.671738 
z
" clip-path="url(#p269ef03d8d)" style="stroke: #000000"/>
    <path d="M 48.493032 114.139338 
C 48.625633 114.139338 48.752822 114.086655 48.846585 113.992891 
C 48.940349 113.899128 48.993032 113.771939 48.993032 113.639338 
C 48.993032 113.506736 48.940349 113.379548 48.846585 113.285784 
C 48.752822 113.192021 48.625633 113.139338 48.493032 113.139338 
C 48.36043 113.139338 48.233242 113.192021 48.139478 113.285784 
C 48.045715 113.379548 47.993032 113.506736 47.993032 113.639338 
C 47.993032 113.771939 48.045715 113.899128 48.139478 113.992891 
C 48.233242 114.086655 48.36043 114.139338 48.493032 114.139338 
z
" clip-path="url(#p269ef03d8d)" style="stroke: #000000"/>
    <path d="M 48.152154 110.539996 
C 48.381827 110.539996 48.602123 110.448746 48.764526 110.286343 
C 48.92693 110.12394 49.018179 109.903643 49.018179 109.67397 
C 49.018179 109.444298 48.92693 109.224001 48.764526 109.061598 
C 48.602123 108.899195 48.381827 108.807945 48.152154 108.807945 
C 47.922481 108.807945 47.702185 108.899195 47.539782 109.061598 
C 47.377379 109.224001 47.286129 109.444298 47.286129 109.67397 
C 47.286129 109.903643 47.377379 110.12394 47.539782 110.286343 
C 47.702185 110.448746 47.922481 110.539996 48.152154 110.539996 
z
" clip-path="url(#p269ef03d8d)" style="stroke: #000000"/>
    <path d="M 41.354586 99.763101 
C 41.529099 99.763101 41.696489 99.693766 41.819888 99.570366 
C 41.943288 99.446966 42.012623 99.279577 42.012623 99.105064 
C 42.012623 98.93055 41.943288 98.763161 41.819888 98.639761 
C 41.696489 98.516361 41.529099 98.447027 41.354586 98.447027 
C 41.180072 98.447027 41.012683 98.516361 40.889283 98.639761 
C 40.765884 98.763161 40.696549 98.93055 40.696549 99.105064 
C 40.696549 99.279577 40.765884 99.446966 40.889283 99.570366 
C 41.012683 99.693766 41.180072 99.763101 41.354586 99.763101 
z
" clip-path="url(#p269ef03d8d)" style="stroke: #000000"/>
    <path d="M 40.890362 92.242348 
C 41.200695 92.242348 41.49836 92.119051 41.717799 91.899612 
C 41.937238 91.680173 42.060535 91.382508 42.060535 91.072174 
C 42.060535 90.761841 41.937238 90.464176 41.717799 90.244737 
C 41.49836 90.025298 41.200695 89.902001 40.890362 89.902001 
C 40.580028 89.902001 40.282363 90.025298 40.062924 90.244737 
C 39.843485 90.464176 39.720188 90.761841 39.720188 91.072174 
C 39.720188 91.382508 39.843485 91.680173 40.062924 91.899612 
C 40.282363 92.119051 40.580028 92.242348 40.890362 92.242348 
z
" clip-path="url(#p269ef03d8d)" style="stroke: #000000"/>
    <path d="M 57.518109 155.734159 
C 57.650711 155.734159 57.777899 155.681476 57.871663 155.587712 
C 57.965426 155.493949 58.018109 155.366761 58.018109 155.234159 
C 58.018109 155.101557 57.965426 154.974369 57.871663 154.880606 
C 57.777899 154.786842 57.650711 154.734159 57.518109 154.734159 
C 57.385508 154.734159 57.25832 154.786842 57.164556 154.880606 
C 57.070793 154.974369 57.018109 155.101557 57.018109 155.234159 
C 57.018109 155.366761 57.070793 155.493949 57.164556 155.587712 
C 57.25832 155.681476 57.385508 155.734159 57.518109 155.734159 
z
" clip-path="url(#p269ef03d8d)" style="stroke: #000000"/>
    <path d="M 41.230308 111.218505 
C 41.529736 111.218505 41.81694 111.099541 42.028667 110.887813 
C 42.240394 110.676086 42.359358 110.388882 42.359358 110.089454 
C 42.359358 109.790027 42.240394 109.502822 42.028667 109.291095 
C 41.81694 109.079368 41.529736 108.960404 41.230308 108.960404 
C 40.93088 108.960404 40.643676 109.079368 40.431949 109.291095 
C 40.220221 109.502822 40.101257 109.790027 40.101257 110.089454 
C 40.101257 110.388882 40.220221 110.676086 40.431949 110.887813 
C 40.643676 111.099541 40.93088 111.218505 41.230308 111.218505 
z
" clip-path="url(#p269ef03d8d)" style="stroke: #000000"/>
    <path d="M 37.854082 102.136916 
C 38.123336 102.136916 38.381597 102.02994 38.571988 101.83955 
C 38.762379 101.649159 38.869354 101.390897 38.869354 101.121644 
C 38.869354 100.852391 38.762379 100.59413 38.571988 100.403739 
C 38.381597 100.213348 38.123336 100.106373 37.854082 100.106373 
C 37.584829 100.106373 37.326568 100.213348 37.136177 100.403739 
C 36.945786 100.59413 36.838811 100.852391 36.838811 101.121644 
C 36.838811 101.390897 36.945786 101.649159 37.136177 101.83955 
C 37.326568 102.02994 37.584829 102.136916 37.854082 102.136916 
z
" clip-path="url(#p269ef03d8d)" style="stroke: #000000"/>
    <path d="M 43.939348 135.233893 
C 44.191136 135.233893 44.432645 135.133857 44.610686 134.955816 
C 44.788726 134.777775 44.888763 134.536266 44.888763 134.284478 
C 44.888763 134.032691 44.788726 133.791182 44.610686 133.613141 
C 44.432645 133.4351 44.191136 133.335064 43.939348 133.335064 
C 43.687561 133.335064 43.446052 133.4351 43.268011 133.613141 
C 43.08997 133.791182 42.989934 134.032691 42.989934 134.284478 
C 42.989934 134.536266 43.08997 134.777775 43.268011 134.955816 
C 43.446052 135.133857 43.687561 135.233893 43.939348 135.233893 
z
" clip-path="url(#p269ef03d8d)" style="stroke: #000000"/>
    <path d="M 39.52304 135.188285 
C 39.655641 135.188285 39.78283 135.135601 39.876593 135.041838 
C 39.970357 134.948074 40.02304 134.820886 40.02304 134.688285 
C 40.02304 134.555683 39.970357 134.428495 39.876593 134.334731 
C 39.78283 134.240968 39.655641 134.188285 39.52304 134.188285 
C 39.390438 134.188285 39.26325 134.240968 39.169486 134.334731 
C 39.075723 134.428495 39.02304 134.555683 39.02304 134.688285 
C 39.02304 134.820886 39.075723 134.948074 39.169486 135.041838 
C 39.26325 135.135601 39.390438 135.188285 39.52304 135.188285 
z
" clip-path="url(#p269ef03d8d)" style="stroke: #000000"/>
    <path d="M 41.051668 164.665517 
C 41.18427 164.665517 41.311458 164.612834 41.405221 164.519071 
C 41.498985 164.425307 41.551668 164.298119 41.551668 164.165517 
C 41.551668 164.032916 41.498985 163.905727 41.405221 163.811964 
C 41.311458 163.7182 41.18427 163.665517 41.051668 163.665517 
C 40.919066 163.665517 40.791878 163.7182 40.698115 163.811964 
C 40.604351 163.905727 40.551668 164.032916 40.551668 164.165517 
C 40.551668 164.298119 40.604351 164.425307 40.698115 164.519071 
C 40.791878 164.612834 40.919066 164.665517 41.051668 164.665517 
z
" clip-path="url(#p269ef03d8d)" style="stroke: #000000"/>
   </g>
   <g id="matplotlib.axis_1">
    <g id="xtick_1">
     <g id="line2d_1">
      <defs>
       <path id="m85c934853e" d="M 0 0 
L 0 3.5 
" style="stroke: #000000; stroke-width: 0.8"/>
      </defs>
      <g>
       <use xlink:href="#m85c934853e" x="18" y="189" style="stroke: #000000; stroke-width: 0.8"/>
      </g>
     </g>
     <g id="text_1">
      <!-- 10 -->
      <g transform="translate(7.447656 203.598437)scale(0.1 -0.1)">
       <defs>
        <path id="DejaVuSans-2212" d="M 678 2272 
L 4684 2272 
L 4684 1741 
L 678 1741 
L 678 2272 
z
" transform="scale(0.015625)"/>
        <path id="DejaVuSans-31" d="M 794 531 
L 1825 531 
L 1825 4091 
L 703 3866 
L 703 4441 
L 1819 4666 
L 2450 4666 
L 2450 531 
L 3481 531 
L 3481 0 
L 794 0 
L 794 531 
z
" transform="scale(0.015625)"/>
        <path id="DejaVuSans-30" d="M 2034 4250 
Q 1547 4250 1301 3770 
Q 1056 3291 1056 2328 
Q 1056 1369 1301 889 
Q 1547 409 2034 409 
Q 2525 409 2770 889 
Q 3016 1369 3016 2328 
Q 3016 3291 2770 3770 
Q 2525 4250 2034 4250 
z
M 2034 4750 
Q 2819 4750 3233 4129 
Q 3647 3509 3647 2328 
Q 3647 1150 3233 529 
Q 2819 -91 2034 -91 
Q 1250 -91 836 529 
Q 422 1150 422 2328 
Q 422 3509 836 4129 
Q 1250 4750 2034 4750 
z
" transform="scale(0.015625)"/>
       </defs>
       <use xlink:href="#DejaVuSans-2212"/>
       <use xlink:href="#DejaVuSans-31" x="83.789062"/>
       <use xlink:href="#DejaVuSans-30" x="147.412109"/>
      </g>
     </g>
    </g>
    <g id="xtick_2">
     <g id="line2d_2">
      <g>
       <use xlink:href="#m85c934853e" x="73.8" y="189" style="stroke: #000000; stroke-width: 0.8"/>
      </g>
     </g>
     <g id="text_2">
      <!-- 0 -->
      <g transform="translate(70.61875 203.598437)scale(0.1 -0.1)">
       <use xlink:href="#DejaVuSans-30"/>
      </g>
     </g>
    </g>
    <g id="xtick_3">
     <g id="line2d_3">
      <g>
       <use xlink:href="#m85c934853e" x="129.6" y="189" style="stroke: #000000; stroke-width: 0.8"/>
      </g>
     </g>
     <g id="text_3">
      <!-- 10 -->
      <g transform="translate(123.2375 203.598437)scale(0.1 -0.1)">
       <use xlink:href="#DejaVuSans-31"/>
       <use xlink:href="#DejaVuSans-30" x="63.623047"/>
      </g>
     </g>
    </g>
   </g>
   <g id="matplotlib.axis_2">
    <g id="ytick_1">
     <g id="line2d_4">
      <defs>
       <path id="m4cb7bfbf77" d="M 0 0 
L -3.5 0 
" style="stroke: #000000; stroke-width: 0.8"/>
      </defs>
      <g>
       <use xlink:href="#m4cb7bfbf77" x="18" y="189" style="stroke: #000000; stroke-width: 0.8"/>
      </g>
     </g>
     <g id="text_4">
      <!-- 15 -->
      <g transform="translate(-10.104688 192.799219)scale(0.1 -0.1)">
       <defs>
        <path id="DejaVuSans-35" d="M 691 4666 
L 3169 4666 
L 3169 4134 
L 1269 4134 
L 1269 2991 
Q 1406 3038 1543 3061 
Q 1681 3084 1819 3084 
Q 2600 3084 3056 2656 
Q 3513 2228 3513 1497 
Q 3513 744 3044 326 
Q 2575 -91 1722 -91 
Q 1428 -91 1123 -41 
Q 819 9 494 109 
L 494 744 
Q 775 591 1075 516 
Q 1375 441 1709 441 
Q 2250 441 2565 725 
Q 2881 1009 2881 1497 
Q 2881 1984 2565 2268 
Q 2250 2553 1709 2553 
Q 1456 2553 1204 2497 
Q 953 2441 691 2322 
L 691 4666 
z
" transform="scale(0.015625)"/>
       </defs>
       <use xlink:href="#DejaVuSans-2212"/>
       <use xlink:href="#DejaVuSans-31" x="83.789062"/>
       <use xlink:href="#DejaVuSans-35" x="147.412109"/>
      </g>
     </g>
    </g>
    <g id="ytick_2">
     <g id="line2d_5">
      <g>
       <use xlink:href="#m4cb7bfbf77" x="18" y="161.82" style="stroke: #000000; stroke-width: 0.8"/>
      </g>
     </g>
     <g id="text_5">
      <!-- 10 -->
      <g transform="translate(-10.104688 165.619219)scale(0.1 -0.1)">
       <use xlink:href="#DejaVuSans-2212"/>
       <use xlink:href="#DejaVuSans-31" x="83.789062"/>
       <use xlink:href="#DejaVuSans-30" x="147.412109"/>
      </g>
     </g>
    </g>
    <g id="ytick_3">
     <g id="line2d_6">
      <g>
       <use xlink:href="#m4cb7bfbf77" x="18" y="134.64" style="stroke: #000000; stroke-width: 0.8"/>
      </g>
     </g>
     <g id="text_6">
      <!-- 5 -->
      <g transform="translate(-3.742188 138.439219)scale(0.1 -0.1)">
       <use xlink:href="#DejaVuSans-2212"/>
       <use xlink:href="#DejaVuSans-35" x="83.789062"/>
      </g>
     </g>
    </g>
    <g id="ytick_4">
     <g id="line2d_7">
      <g>
       <use xlink:href="#m4cb7bfbf77" x="18" y="107.46" style="stroke: #000000; stroke-width: 0.8"/>
      </g>
     </g>
     <g id="text_7">
      <!-- 0 -->
      <g transform="translate(4.6375 111.259219)scale(0.1 -0.1)">
       <use xlink:href="#DejaVuSans-30"/>
      </g>
     </g>
    </g>
    <g id="ytick_5">
     <g id="line2d_8">
      <g>
       <use xlink:href="#m4cb7bfbf77" x="18" y="80.28" style="stroke: #000000; stroke-width: 0.8"/>
      </g>
     </g>
     <g id="text_8">
      <!-- 5 -->
      <g transform="translate(4.6375 84.079219)scale(0.1 -0.1)">
       <use xlink:href="#DejaVuSans-35"/>
      </g>
     </g>
    </g>
    <g id="ytick_6">
     <g id="line2d_9">
      <g>
       <use xlink:href="#m4cb7bfbf77" x="18" y="53.1" style="stroke: #000000; stroke-width: 0.8"/>
      </g>
     </g>
     <g id="text_9">
      <!-- 10 -->
      <g transform="translate(-1.725 56.899219)scale(0.1 -0.1)">
       <use xlink:href="#DejaVuSans-31"/>
       <use xlink:href="#DejaVuSans-30" x="63.623047"/>
      </g>
     </g>
    </g>
    <g id="ytick_7">
     <g id="line2d_10">
      <g>
       <use xlink:href="#m4cb7bfbf77" x="18" y="25.92" style="stroke: #000000; stroke-width: 0.8"/>
      </g>
     </g>
     <g id="text_10">
      <!-- 15 -->
      <g transform="translate(-1.725 29.719219)scale(0.1 -0.1)">
       <use xlink:href="#DejaVuSans-31"/>
       <use xlink:href="#DejaVuSans-35" x="63.623047"/>
      </g>
     </g>
    </g>
   </g>
   <g id="patch_3">
    <path d="M 18 189 
L 18 25.92 
" style="fill: none; stroke: #000000; stroke-width: 0.8; stroke-linejoin: miter; stroke-linecap: square"/>
   </g>
   <g id="patch_4">
    <path d="M 129.6 189 
L 129.6 25.92 
" style="fill: none; stroke: #000000; stroke-width: 0.8; stroke-linejoin: miter; stroke-linecap: square"/>
   </g>
   <g id="patch_5">
    <path d="M 18 189 
L 129.6 189 
" style="fill: none; stroke: #000000; stroke-width: 0.8; stroke-linejoin: miter; stroke-linecap: square"/>
   </g>
   <g id="patch_6">
    <path d="M 18 25.92 
L 129.6 25.92 
" style="fill: none; stroke: #000000; stroke-width: 0.8; stroke-linejoin: miter; stroke-linecap: square"/>
   </g>
  </g>
 </g>
 <defs>
  <clipPath id="p269ef03d8d">
   <rect x="18" y="25.92" width="111.6" height="163.08"/>
  </clipPath>
 </defs>
</svg>
