<?xml version="1.0" encoding="utf-8" standalone="no"?>
<!DOCTYPE svg PUBLIC "-//W3C//DTD SVG 1.1//EN"
  "http://www.w3.org/Graphics/SVG/1.1/DTD/svg11.dtd">
<svg xmlns:xlink="http://www.w3.org/1999/xlink" width="144pt" height="216pt" viewBox="0 0 144 216" xmlns="http://www.w3.org/2000/svg" version="1.1">
 <metadata>
  <rdf:RDF xmlns:dc="http://purl.org/dc/elements/1.1/" xmlns:cc="http://creativecommons.org/ns#" xmlns:rdf="http://www.w3.org/1999/02/22-rdf-syntax-ns#">
   <cc:Work>
    <dc:type rdf:resource="http://purl.org/dc/dcmitype/StillImage"/>
    <dc:date>2022-06-23T14:43:44.670100</dc:date>
    <dc:format>image/svg+xml</dc:format>
    <dc:creator>
     <cc:Agent>
      <dc:title>Matplotlib v3.5.1, https://matplotlib.org/</dc:title>
     </cc:Agent>
    </dc:creator>
   </cc:Work>
  </rdf:RDF>
 </metadata>
 <defs>
  <style type="text/css">*{stroke-linejoin: round; stroke-linecap: butt}</style>
 </defs>
 <g id="figure_1">
  <g id="patch_1">
   <path d="M 0 216 
L 144 216 
L 144 0 
L 0 0 
L 0 216 
z
" style="fill: none"/>
  </g>
  <g id="axes_1">
   <g id="patch_2">
    <path d="M 18 189 
L 129.6 189 
L 129.6 25.92 
L 18 25.92 
z
" style="fill: #ffffff"/>
   </g>
   <g id="PathCollection_1">
    <defs>
     <path id="m5d4e2820ff" d="M 0 2.738613 
C 0.726289 2.738613 1.422928 2.450055 1.936492 1.936492 
C 2.450055 1.422928 2.738613 0.726289 2.738613 0 
C 2.738613 -0.726289 2.450055 -1.422928 1.936492 -1.936492 
C 1.422928 -2.450055 0.726289 -2.738613 0 -2.738613 
C -0.726289 -2.738613 -1.422928 -2.450055 -1.936492 -1.936492 
C -2.450055 -1.422928 -2.738613 -0.726289 -2.738613 0 
C -2.738613 0.726289 -2.450055 1.422928 -1.936492 1.936492 
C -1.422928 2.450055 -0.726289 2.738613 0 2.738613 
z
" style="stroke: #ff0000; stroke-width: 1.75"/>
    </defs>
    <g clip-path="url(#pa78b76737c)">
     <use xlink:href="#m5d4e2820ff" x="80.775" y="107.46" style="fill: #ff0000; stroke: #ff0000; stroke-width: 1.75"/>
     <use xlink:href="#m5d4e2820ff" x="94.725" y="107.46" style="fill: #ff0000; stroke: #ff0000; stroke-width: 1.75"/>
     <use xlink:href="#m5d4e2820ff" x="59.85" y="119.229285" style="fill: #ff0000; stroke: #ff0000; stroke-width: 1.75"/>
     <use xlink:href="#m5d4e2820ff" x="73.8" y="119.229285" style="fill: #ff0000; stroke: #ff0000; stroke-width: 1.75"/>
     <use xlink:href="#m5d4e2820ff" x="87.75" y="119.229285" style="fill: #ff0000; stroke: #ff0000; stroke-width: 1.75"/>
     <use xlink:href="#m5d4e2820ff" x="66.825" y="130.99857" style="fill: #ff0000; stroke: #ff0000; stroke-width: 1.75"/>
     <use xlink:href="#m5d4e2820ff" x="80.775" y="130.99857" style="fill: #ff0000; stroke: #ff0000; stroke-width: 1.75"/>
    </g>
   </g>
   <g id="PathCollection_2">
    <defs>
     <path id="C0_0_93dae88309" d="M 0 2.738613 
C 0.726289 2.738613 1.422928 2.450055 1.936492 1.936492 
C 2.450055 1.422928 2.738613 0.726289 2.738613 -0 
C 2.738613 -0.726289 2.450055 -1.422928 1.936492 -1.936492 
C 1.422928 -2.450055 0.726289 -2.738613 0 -2.738613 
C -0.726289 -2.738613 -1.422928 -2.450055 -1.936492 -1.936492 
C -2.450055 -1.422928 -2.738613 -0.726289 -2.738613 0 
C -2.738613 0.726289 -2.450055 1.422928 -1.936492 1.936492 
C -1.422928 2.450055 -0.726289 2.738613 0 2.738613 
z
"/>
    </defs>
    <g clip-path="url(#pa78b76737c)">
     <use xlink:href="#C0_0_93dae88309" x="66.825" y="83.92143" style="fill: none; stroke: #ff0000; stroke-width: 1.75"/>
    </g>
    <g clip-path="url(#pa78b76737c)">
     <use xlink:href="#C0_0_93dae88309" x="80.775" y="83.92143" style="fill: none; stroke: #ff0000; stroke-width: 1.75"/>
    </g>
    <g clip-path="url(#pa78b76737c)">
     <use xlink:href="#C0_0_93dae88309" x="59.85" y="95.690715" style="fill: none; stroke: #ff0000; stroke-width: 1.75"/>
    </g>
    <g clip-path="url(#pa78b76737c)">
     <use xlink:href="#C0_0_93dae88309" x="73.8" y="95.690715" style="fill: none; stroke: #ff0000; stroke-width: 1.75"/>
    </g>
    <g clip-path="url(#pa78b76737c)">
     <use xlink:href="#C0_0_93dae88309" x="87.75" y="95.690715" style="fill: none; stroke: #ff0000; stroke-width: 1.75"/>
    </g>
    <g clip-path="url(#pa78b76737c)">
     <use xlink:href="#C0_0_93dae88309" x="52.875" y="107.46" style="fill: none; stroke: #ff0000; stroke-width: 1.75"/>
    </g>
    <g clip-path="url(#pa78b76737c)">
     <use xlink:href="#C0_0_93dae88309" x="66.825" y="107.46" style="fill: none; stroke: #ff0000; stroke-width: 1.75"/>
    </g>
   </g>
   <g id="PathCollection_3">
    <path d="M 98.008779 109.427022 
C 98.557391 109.427022 99.083608 109.209056 99.471535 108.821129 
C 99.859463 108.433201 100.077429 107.906985 100.077429 107.358373 
C 100.077429 106.80976 99.859463 106.283544 99.471535 105.895616 
C 99.083608 105.507689 98.557391 105.289723 98.008779 105.289723 
C 97.460167 105.289723 96.933951 105.507689 96.546023 105.895616 
C 96.158096 106.283544 95.94013 106.80976 95.94013 107.358373 
C 95.94013 107.906985 96.158096 108.433201 96.546023 108.821129 
C 96.933951 109.209056 97.460167 109.427022 98.008779 109.427022 
z
" clip-path="url(#pa78b76737c)" style="stroke: #000000"/>
    <path d="M 91.201616 111.609509 
C 91.521814 111.609509 91.82894 111.482293 92.055354 111.255879 
C 92.281768 111.029465 92.408984 110.722338 92.408984 110.40214 
C 92.408984 110.081943 92.281768 109.774816 92.055354 109.548402 
C 91.82894 109.321988 91.521814 109.194772 91.201616 109.194772 
C 90.881418 109.194772 90.574292 109.321988 90.347878 109.548402 
C 90.121464 109.774816 89.994248 110.081943 89.994248 110.40214 
C 89.994248 110.722338 90.121464 111.029465 90.347878 111.255879 
C 90.574292 111.482293 90.881418 111.609509 91.201616 111.609509 
z
" clip-path="url(#pa78b76737c)" style="stroke: #000000"/>
    <path d="M 84.753346 98.776027 
C 85.282713 98.776027 85.79047 98.565707 86.164789 98.191388 
C 86.539108 97.817069 86.749428 97.309312 86.749428 96.779945 
C 86.749428 96.250578 86.539108 95.742821 86.164789 95.368501 
C 85.79047 94.994182 85.282713 94.783863 84.753346 94.783863 
C 84.223979 94.783863 83.716222 94.994182 83.341903 95.368501 
C 82.967584 95.742821 82.757264 96.250578 82.757264 96.779945 
C 82.757264 97.309312 82.967584 97.817069 83.341903 98.191388 
C 83.716222 98.565707 84.223979 98.776027 84.753346 98.776027 
z
" clip-path="url(#pa78b76737c)" style="stroke: #000000"/>
    <path d="M 81.552985 86.831179 
C 82.08183 86.831179 82.589087 86.621067 82.963037 86.247117 
C 83.336987 85.873167 83.547099 85.36591 83.547099 84.837065 
C 83.547099 84.308219 83.336987 83.800963 82.963037 83.427013 
C 82.589087 83.053063 82.08183 82.84295 81.552985 82.84295 
C 81.024139 82.84295 80.516883 83.053063 80.142933 83.427013 
C 79.768982 83.800963 79.55887 84.308219 79.55887 84.837065 
C 79.55887 85.36591 79.768982 85.873167 80.142933 86.247117 
C 80.516883 86.621067 81.024139 86.831179 81.552985 86.831179 
z
" clip-path="url(#pa78b76737c)" style="stroke: #000000"/>
    <path d="M 83.488968 83.286963 
C 83.853317 83.286963 84.202792 83.142205 84.460425 82.884572 
C 84.718059 82.626938 84.862816 82.277463 84.862816 81.913114 
C 84.862816 81.548766 84.718059 81.199291 84.460425 80.941657 
C 84.202792 80.684024 83.853317 80.539266 83.488968 80.539266 
C 83.124619 80.539266 82.775144 80.684024 82.51751 80.941657 
C 82.259877 81.199291 82.11512 81.548766 82.11512 81.913114 
C 82.11512 82.277463 82.259877 82.626938 82.51751 82.884572 
C 82.775144 83.142205 83.124619 83.286963 83.488968 83.286963 
z
" clip-path="url(#pa78b76737c)" style="stroke: #000000"/>
    <path d="M 88.92534 125.253511 
C 89.198468 125.253511 89.460447 125.144996 89.653577 124.951865 
C 89.846708 124.758734 89.955223 124.496756 89.955223 124.223627 
C 89.955223 123.950499 89.846708 123.688521 89.653577 123.49539 
C 89.460447 123.302259 89.198468 123.193744 88.92534 123.193744 
C 88.652211 123.193744 88.390233 123.302259 88.197102 123.49539 
C 88.003971 123.688521 87.895456 123.950499 87.895456 124.223627 
C 87.895456 124.496756 88.003971 124.758734 88.197102 124.951865 
C 88.390233 125.144996 88.652211 125.253511 88.92534 125.253511 
z
" clip-path="url(#pa78b76737c)" style="stroke: #000000"/>
    <path d="M 87.156478 120.807383 
C 87.76585 120.807383 88.350346 120.565277 88.781237 120.134386 
C 89.212128 119.703495 89.454233 119.119 89.454233 118.509628 
C 89.454233 117.900256 89.212128 117.315761 88.781237 116.88487 
C 88.350346 116.453979 87.76585 116.211873 87.156478 116.211873 
C 86.547107 116.211873 85.962611 116.453979 85.53172 116.88487 
C 85.100829 117.315761 84.858723 117.900256 84.858723 118.509628 
C 84.858723 119.119 85.100829 119.703495 85.53172 120.134386 
C 85.962611 120.565277 86.547107 120.807383 87.156478 120.807383 
z
" clip-path="url(#pa78b76737c)" style="stroke: #000000"/>
    <path d="M 82.87718 106.837554 
C 83.306614 106.837554 83.718518 106.666938 84.022174 106.363282 
C 84.32583 106.059626 84.496446 105.647723 84.496446 105.218288 
C 84.496446 104.788854 84.32583 104.37695 84.022174 104.073295 
C 83.718518 103.769639 83.306614 103.599023 82.87718 103.599023 
C 82.447745 103.599023 82.035842 103.769639 81.732186 104.073295 
C 81.42853 104.37695 81.257914 104.788854 81.257914 105.218288 
C 81.257914 105.647723 81.42853 106.059626 81.732186 106.363282 
C 82.035842 106.666938 82.447745 106.837554 82.87718 106.837554 
z
" clip-path="url(#pa78b76737c)" style="stroke: #000000"/>
    <path d="M 75.300486 95.489599 
C 75.763768 95.489599 76.208137 95.305535 76.535727 94.977946 
C 76.863317 94.650356 77.04738 94.205987 77.04738 93.742705 
C 77.04738 93.279423 76.863317 92.835054 76.535727 92.507464 
C 76.208137 92.179875 75.763768 91.995811 75.300486 91.995811 
C 74.837204 91.995811 74.392835 92.179875 74.065246 92.507464 
C 73.737656 92.835054 73.553592 93.279423 73.553592 93.742705 
C 73.553592 94.205987 73.737656 94.650356 74.065246 94.977946 
C 74.392835 95.305535 74.837204 95.489599 75.300486 95.489599 
z
" clip-path="url(#pa78b76737c)" style="stroke: #000000"/>
    <path d="M 76.444142 86.633739 
C 76.761959 86.633739 77.066801 86.507469 77.291532 86.282738 
C 77.516263 86.058008 77.642533 85.753165 77.642533 85.435348 
C 77.642533 85.117531 77.516263 84.812688 77.291532 84.587958 
C 77.066801 84.363227 76.761959 84.236957 76.444142 84.236957 
C 76.126325 84.236957 75.821482 84.363227 75.596751 84.587958 
C 75.372021 84.812688 75.245751 85.117531 75.245751 85.435348 
C 75.245751 85.753165 75.372021 86.058008 75.596751 86.282738 
C 75.821482 86.507469 76.126325 86.633739 76.444142 86.633739 
z
" clip-path="url(#pa78b76737c)" style="stroke: #000000"/>
    <path d="M 83.85413 127.276162 
C 84.011821 127.276162 84.163074 127.213511 84.274579 127.102007 
C 84.386083 126.990503 84.448734 126.839249 84.448734 126.681559 
C 84.448734 126.523868 84.386083 126.372615 84.274579 126.26111 
C 84.163074 126.149606 84.011821 126.086955 83.85413 126.086955 
C 83.69644 126.086955 83.545186 126.149606 83.433682 126.26111 
C 83.322178 126.372615 83.259527 126.523868 83.259527 126.681559 
C 83.259527 126.839249 83.322178 126.990503 83.433682 127.102007 
C 83.545186 127.213511 83.69644 127.276162 83.85413 127.276162 
z
" clip-path="url(#pa78b76737c)" style="stroke: #000000"/>
    <path d="M 79.883286 120.693261 
C 80.057799 120.693261 80.225188 120.623926 80.348588 120.500526 
C 80.471988 120.377127 80.541323 120.209737 80.541323 120.035224 
C 80.541323 119.86071 80.471988 119.693321 80.348588 119.569921 
C 80.225188 119.446522 80.057799 119.377187 79.883286 119.377187 
C 79.708772 119.377187 79.541383 119.446522 79.417983 119.569921 
C 79.294583 119.693321 79.225249 119.86071 79.225249 120.035224 
C 79.225249 120.209737 79.294583 120.377127 79.417983 120.500526 
C 79.541383 120.623926 79.708772 120.693261 79.883286 120.693261 
z
" clip-path="url(#pa78b76737c)" style="stroke: #000000"/>
    <path d="M 74.191025 98.01131 
C 74.698194 98.01131 75.184658 97.80981 75.54328 97.451188 
C 75.901902 97.092565 76.103402 96.606101 76.103402 96.098933 
C 76.103402 95.591765 75.901902 95.105301 75.54328 94.746678 
C 75.184658 94.388056 74.698194 94.186556 74.191025 94.186556 
C 73.683857 94.186556 73.197393 94.388056 72.838771 94.746678 
C 72.480149 95.105301 72.278649 95.591765 72.278649 96.098933 
C 72.278649 96.606101 72.480149 97.092565 72.838771 97.451188 
C 73.197393 97.80981 73.683857 98.01131 74.191025 98.01131 
z
" clip-path="url(#pa78b76737c)" style="stroke: #000000"/>
    <path d="M 67.726982 87.827917 
C 68.292577 87.827917 68.835083 87.603203 69.235019 87.203267 
C 69.634955 86.803331 69.859668 86.260825 69.859668 85.69523 
C 69.859668 85.129635 69.634955 84.587129 69.235019 84.187193 
C 68.835083 83.787257 68.292577 83.562544 67.726982 83.562544 
C 67.161387 83.562544 66.618881 83.787257 66.218945 84.187193 
C 65.819009 84.587129 65.594295 85.129635 65.594295 85.69523 
C 65.594295 86.260825 65.819009 86.803331 66.218945 87.203267 
C 66.618881 87.603203 67.161387 87.827917 67.726982 87.827917 
z
" clip-path="url(#pa78b76737c)" style="stroke: #000000"/>
    <path d="M 76.969601 130.772997 
C 77.39707 130.772997 77.807088 130.603162 78.109355 130.300896 
C 78.411621 129.998629 78.581456 129.588611 78.581456 129.161142 
C 78.581456 128.733673 78.411621 128.323655 78.109355 128.021389 
C 77.807088 127.719122 77.39707 127.549287 76.969601 127.549287 
C 76.542132 127.549287 76.132114 127.719122 75.829848 128.021389 
C 75.527581 128.323655 75.357746 128.733673 75.357746 129.161142 
C 75.357746 129.588611 75.527581 129.998629 75.829848 130.300896 
C 76.132114 130.603162 76.542132 130.772997 76.969601 130.772997 
z
" clip-path="url(#pa78b76737c)" style="stroke: #000000"/>
    <path d="M 74.348924 124.464789 
C 74.726874 124.464789 75.089395 124.314627 75.356646 124.047376 
C 75.623897 123.780125 75.774059 123.417604 75.774059 123.039654 
C 75.774059 122.661703 75.623897 122.299182 75.356646 122.031931 
C 75.089395 121.76468 74.726874 121.614519 74.348924 121.614519 
C 73.970973 121.614519 73.608452 121.76468 73.341201 122.031931 
C 73.07395 122.299182 72.923789 122.661703 72.923789 123.039654 
C 72.923789 123.417604 73.07395 123.780125 73.341201 124.047376 
C 73.608452 124.314627 73.970973 124.464789 74.348924 124.464789 
z
" clip-path="url(#pa78b76737c)" style="stroke: #000000"/>
    <path d="M 73.674052 117.324335 
C 74.017493 117.324335 74.346913 117.187885 74.589763 116.945035 
C 74.832612 116.702186 74.969062 116.372766 74.969062 116.029325 
C 74.969062 115.685884 74.832612 115.356464 74.589763 115.113615 
C 74.346913 114.870766 74.017493 114.734315 73.674052 114.734315 
C 73.330612 114.734315 73.001191 114.870766 72.758342 115.113615 
C 72.515493 115.356464 72.379042 115.685884 72.379042 116.029325 
C 72.379042 116.372766 72.515493 116.702186 72.758342 116.945035 
C 73.001191 117.187885 73.330612 117.324335 73.674052 117.324335 
z
" clip-path="url(#pa78b76737c)" style="stroke: #000000"/>
    <path d="M 62.343992 87.35464 
C 62.542278 87.35464 62.732469 87.27586 62.872678 87.135651 
C 63.012887 86.995442 63.091667 86.805251 63.091667 86.606965 
C 63.091667 86.40868 63.012887 86.218489 62.872678 86.07828 
C 62.732469 85.938071 62.542278 85.859291 62.343992 85.859291 
C 62.145707 85.859291 61.955516 85.938071 61.815307 86.07828 
C 61.675098 86.218489 61.596318 86.40868 61.596318 86.606965 
C 61.596318 86.805251 61.675098 86.995442 61.815307 87.135651 
C 61.955516 87.27586 62.145707 87.35464 62.343992 87.35464 
z
" clip-path="url(#pa78b76737c)" style="stroke: #000000"/>
    <path d="M 71.797972 130.087335 
C 71.955663 130.087335 72.106916 130.024684 72.218421 129.91318 
C 72.329925 129.801676 72.392576 129.650423 72.392576 129.492732 
C 72.392576 129.335041 72.329925 129.183788 72.218421 129.072284 
C 72.106916 128.960779 71.955663 128.898128 71.797972 128.898128 
C 71.640282 128.898128 71.489028 128.960779 71.377524 129.072284 
C 71.26602 129.183788 71.203369 129.335041 71.203369 129.492732 
C 71.203369 129.650423 71.26602 129.801676 71.377524 129.91318 
C 71.489028 130.024684 71.640282 130.087335 71.797972 130.087335 
z
" clip-path="url(#pa78b76737c)" style="stroke: #000000"/>
    <path d="M 67.310872 124.89763 
C 67.485386 124.89763 67.652775 124.828295 67.776175 124.704895 
C 67.899574 124.581496 67.968909 124.414106 67.968909 124.239593 
C 67.968909 124.065079 67.899574 123.89769 67.776175 123.77429 
C 67.652775 123.650891 67.485386 123.581556 67.310872 123.581556 
C 67.136359 123.581556 66.968969 123.650891 66.84557 123.77429 
C 66.72217 123.89769 66.652835 124.065079 66.652835 124.239593 
C 66.652835 124.414106 66.72217 124.581496 66.84557 124.704895 
C 66.968969 124.828295 67.136359 124.89763 67.310872 124.89763 
z
" clip-path="url(#pa78b76737c)" style="stroke: #000000"/>
    <path d="M 58.760401 101.537575 
C 59.091773 101.537575 59.409616 101.40592 59.643931 101.171605 
C 59.878246 100.93729 60.009901 100.619446 60.009901 100.288075 
C 60.009901 99.956704 59.878246 99.63886 59.643931 99.404545 
C 59.409616 99.170231 59.091773 99.038575 58.760401 99.038575 
C 58.42903 99.038575 58.111187 99.170231 57.876872 99.404545 
C 57.642557 99.63886 57.510902 99.956704 57.510902 100.288075 
C 57.510902 100.619446 57.642557 100.93729 57.876872 101.171605 
C 58.111187 101.40592 58.42903 101.537575 58.760401 101.537575 
z
" clip-path="url(#pa78b76737c)" style="stroke: #000000"/>
    <path d="M 55.790045 95.823106 
C 56.055248 95.823106 56.309625 95.717739 56.497152 95.530213 
C 56.684679 95.342686 56.790045 95.088309 56.790045 94.823106 
C 56.790045 94.557903 56.684679 94.303526 56.497152 94.115999 
C 56.309625 93.928472 56.055248 93.823106 55.790045 93.823106 
C 55.524842 93.823106 55.270465 93.928472 55.082939 94.115999 
C 54.895412 94.303526 54.790045 94.557903 54.790045 94.823106 
C 54.790045 95.088309 54.895412 95.342686 55.082939 95.530213 
C 55.270465 95.717739 55.524842 95.823106 55.790045 95.823106 
z
" clip-path="url(#pa78b76737c)" style="stroke: #000000"/>
    <path d="M 64.24106 133.875091 
C 64.773013 133.875091 65.283251 133.663744 65.659399 133.287596 
C 66.035547 132.911449 66.246894 132.401211 66.246894 131.869258 
C 66.246894 131.337304 66.035547 130.827067 65.659399 130.450919 
C 65.283251 130.074771 64.773013 129.863424 64.24106 129.863424 
C 63.709107 129.863424 63.198869 130.074771 62.822721 130.450919 
C 62.446574 130.827067 62.235226 131.337304 62.235226 131.869258 
C 62.235226 132.401211 62.446574 132.911449 62.822721 133.287596 
C 63.198869 133.663744 63.709107 133.875091 64.24106 133.875091 
z
" clip-path="url(#pa78b76737c)" style="stroke: #000000"/>
    <path d="M 59.068395 123.391485 
C 59.610818 123.391485 60.131098 123.175979 60.514649 122.792428 
C 60.8982 122.408877 61.113707 121.888597 61.113707 121.346174 
C 61.113707 120.803751 60.8982 120.283471 60.514649 119.89992 
C 60.131098 119.516369 59.610818 119.300862 59.068395 119.300862 
C 58.525972 119.300862 58.005692 119.516369 57.622141 119.89992 
C 57.23859 120.283471 57.023083 120.803751 57.023083 121.346174 
C 57.023083 121.888597 57.23859 122.408877 57.622141 122.792428 
C 58.005692 123.175979 58.525972 123.391485 59.068395 123.391485 
z
" clip-path="url(#pa78b76737c)" style="stroke: #000000"/>
    <path d="M 59.717937 118.705861 
C 60.230356 118.705861 60.721856 118.502275 61.084191 118.139941 
C 61.446525 117.777606 61.650111 117.286106 61.650111 116.773687 
C 61.650111 116.261269 61.446525 115.769769 61.084191 115.407434 
C 60.721856 115.045099 60.230356 114.841513 59.717937 114.841513 
C 59.205519 114.841513 58.714019 115.045099 58.351684 115.407434 
C 57.989349 115.769769 57.785763 116.261269 57.785763 116.773687 
C 57.785763 117.286106 57.989349 117.777606 58.351684 118.139941 
C 58.714019 118.502275 59.205519 118.705861 59.717937 118.705861 
z
" clip-path="url(#pa78b76737c)" style="stroke: #000000"/>
    <path d="M 54.696897 112.037691 
C 55.023935 112.037691 55.337623 111.907757 55.568875 111.676506 
C 55.800126 111.445255 55.93006 111.131567 55.93006 110.804528 
C 55.93006 110.47749 55.800126 110.163802 55.568875 109.93255 
C 55.337623 109.701299 55.023935 109.571365 54.696897 109.571365 
C 54.369858 109.571365 54.05617 109.701299 53.824919 109.93255 
C 53.593668 110.163802 53.463734 110.47749 53.463734 110.804528 
C 53.463734 111.131567 53.593668 111.445255 53.824919 111.676506 
C 54.05617 111.907757 54.369858 112.037691 54.696897 112.037691 
z
" clip-path="url(#pa78b76737c)" style="stroke: #000000"/>
    <path d="M 51.49129 103.176485 
C 51.648981 103.176485 51.800234 103.113834 51.911738 103.002329 
C 52.023242 102.890825 52.085893 102.739572 52.085893 102.581881 
C 52.085893 102.42419 52.023242 102.272937 51.911738 102.161433 
C 51.800234 102.049929 51.648981 101.987278 51.49129 101.987278 
C 51.333599 101.987278 51.182346 102.049929 51.070842 102.161433 
C 50.959338 102.272937 50.896686 102.42419 50.896686 102.581881 
C 50.896686 102.739572 50.959338 102.890825 51.070842 103.002329 
C 51.182346 103.113834 51.333599 103.176485 51.49129 103.176485 
z
" clip-path="url(#pa78b76737c)" style="stroke: #000000"/>
    <path d="M 47.400257 105.943521 
C 47.574771 105.943521 47.74216 105.874186 47.865559 105.750786 
C 47.988959 105.627387 48.058294 105.459997 48.058294 105.285484 
C 48.058294 105.110971 47.988959 104.943581 47.865559 104.820182 
C 47.74216 104.696782 47.574771 104.627447 47.400257 104.627447 
C 47.225744 104.627447 47.058354 104.696782 46.934955 104.820182 
C 46.811555 104.943581 46.74222 105.110971 46.74222 105.285484 
C 46.74222 105.459997 46.811555 105.627387 46.934955 105.750786 
C 47.058354 105.874186 47.225744 105.943521 47.400257 105.943521 
z
" clip-path="url(#pa78b76737c)" style="stroke: #000000"/>
   </g>
   <g id="matplotlib.axis_1">
    <g id="xtick_1">
     <g id="line2d_1">
      <defs>
       <path id="mbf0591cfc8" d="M 0 0 
L 0 3.5 
" style="stroke: #000000; stroke-width: 0.8"/>
      </defs>
      <g>
       <use xlink:href="#mbf0591cfc8" x="18" y="189" style="stroke: #000000; stroke-width: 0.8"/>
      </g>
     </g>
     <g id="text_1">
      <!-- −10 -->
      <g transform="translate(7.447656 203.598437)scale(0.1 -0.1)">
       <defs>
        <path id="DejaVuSans-2212" d="M 678 2272 
L 4684 2272 
L 4684 1741 
L 678 1741 
L 678 2272 
z
" transform="scale(0.015625)"/>
        <path id="DejaVuSans-31" d="M 794 531 
L 1825 531 
L 1825 4091 
L 703 3866 
L 703 4441 
L 1819 4666 
L 2450 4666 
L 2450 531 
L 3481 531 
L 3481 0 
L 794 0 
L 794 531 
z
" transform="scale(0.015625)"/>
        <path id="DejaVuSans-30" d="M 2034 4250 
Q 1547 4250 1301 3770 
Q 1056 3291 1056 2328 
Q 1056 1369 1301 889 
Q 1547 409 2034 409 
Q 2525 409 2770 889 
Q 3016 1369 3016 2328 
Q 3016 3291 2770 3770 
Q 2525 4250 2034 4250 
z
M 2034 4750 
Q 2819 4750 3233 4129 
Q 3647 3509 3647 2328 
Q 3647 1150 3233 529 
Q 2819 -91 2034 -91 
Q 1250 -91 836 529 
Q 422 1150 422 2328 
Q 422 3509 836 4129 
Q 1250 4750 2034 4750 
z
" transform="scale(0.015625)"/>
       </defs>
       <use xlink:href="#DejaVuSans-2212"/>
       <use xlink:href="#DejaVuSans-31" x="83.789062"/>
       <use xlink:href="#DejaVuSans-30" x="147.412109"/>
      </g>
     </g>
    </g>
    <g id="xtick_2">
     <g id="line2d_2">
      <g>
       <use xlink:href="#mbf0591cfc8" x="73.8" y="189" style="stroke: #000000; stroke-width: 0.8"/>
      </g>
     </g>
     <g id="text_2">
      <!-- 0 -->
      <g transform="translate(70.61875 203.598437)scale(0.1 -0.1)">
       <use xlink:href="#DejaVuSans-30"/>
      </g>
     </g>
    </g>
    <g id="xtick_3">
     <g id="line2d_3">
      <g>
       <use xlink:href="#mbf0591cfc8" x="129.6" y="189" style="stroke: #000000; stroke-width: 0.8"/>
      </g>
     </g>
     <g id="text_3">
      <!-- 10 -->
      <g transform="translate(123.2375 203.598437)scale(0.1 -0.1)">
       <use xlink:href="#DejaVuSans-31"/>
       <use xlink:href="#DejaVuSans-30" x="63.623047"/>
      </g>
     </g>
    </g>
   </g>
   <g id="matplotlib.axis_2">
    <g id="ytick_1">
     <g id="line2d_4">
      <defs>
       <path id="m5cf661e2dd" d="M 0 0 
L -3.5 0 
" style="stroke: #000000; stroke-width: 0.8"/>
      </defs>
      <g>
       <use xlink:href="#m5cf661e2dd" x="18" y="189" style="stroke: #000000; stroke-width: 0.8"/>
      </g>
     </g>
     <g id="text_4">
      <!-- −15 -->
      <g transform="translate(-10.104688 192.799219)scale(0.1 -0.1)">
       <defs>
        <path id="DejaVuSans-35" d="M 691 4666 
L 3169 4666 
L 3169 4134 
L 1269 4134 
L 1269 2991 
Q 1406 3038 1543 3061 
Q 1681 3084 1819 3084 
Q 2600 3084 3056 2656 
Q 3513 2228 3513 1497 
Q 3513 744 3044 326 
Q 2575 -91 1722 -91 
Q 1428 -91 1123 -41 
Q 819 9 494 109 
L 494 744 
Q 775 591 1075 516 
Q 1375 441 1709 441 
Q 2250 441 2565 725 
Q 2881 1009 2881 1497 
Q 2881 1984 2565 2268 
Q 2250 2553 1709 2553 
Q 1456 2553 1204 2497 
Q 953 2441 691 2322 
L 691 4666 
z
" transform="scale(0.015625)"/>
       </defs>
       <use xlink:href="#DejaVuSans-2212"/>
       <use xlink:href="#DejaVuSans-31" x="83.789062"/>
       <use xlink:href="#DejaVuSans-35" x="147.412109"/>
      </g>
     </g>
    </g>
    <g id="ytick_2">
     <g id="line2d_5">
      <g>
       <use xlink:href="#m5cf661e2dd" x="18" y="161.82" style="stroke: #000000; stroke-width: 0.8"/>
      </g>
     </g>
     <g id="text_5">
      <!-- −10 -->
      <g transform="translate(-10.104688 165.619219)scale(0.1 -0.1)">
       <use xlink:href="#DejaVuSans-2212"/>
       <use xlink:href="#DejaVuSans-31" x="83.789062"/>
       <use xlink:href="#DejaVuSans-30" x="147.412109"/>
      </g>
     </g>
    </g>
    <g id="ytick_3">
     <g id="line2d_6">
      <g>
       <use xlink:href="#m5cf661e2dd" x="18" y="134.64" style="stroke: #000000; stroke-width: 0.8"/>
      </g>
     </g>
     <g id="text_6">
      <!-- −5 -->
      <g transform="translate(-3.742188 138.439219)scale(0.1 -0.1)">
       <use xlink:href="#DejaVuSans-2212"/>
       <use xlink:href="#DejaVuSans-35" x="83.789062"/>
      </g>
     </g>
    </g>
    <g id="ytick_4">
     <g id="line2d_7">
      <g>
       <use xlink:href="#m5cf661e2dd" x="18" y="107.46" style="stroke: #000000; stroke-width: 0.8"/>
      </g>
     </g>
     <g id="text_7">
      <!-- 0 -->
      <g transform="translate(4.6375 111.259219)scale(0.1 -0.1)">
       <use xlink:href="#DejaVuSans-30"/>
      </g>
     </g>
    </g>
    <g id="ytick_5">
     <g id="line2d_8">
      <g>
       <use xlink:href="#m5cf661e2dd" x="18" y="80.28" style="stroke: #000000; stroke-width: 0.8"/>
      </g>
     </g>
     <g id="text_8">
      <!-- 5 -->
      <g transform="translate(4.6375 84.079219)scale(0.1 -0.1)">
       <use xlink:href="#DejaVuSans-35"/>
      </g>
     </g>
    </g>
    <g id="ytick_6">
     <g id="line2d_9">
      <g>
       <use xlink:href="#m5cf661e2dd" x="18" y="53.1" style="stroke: #000000; stroke-width: 0.8"/>
      </g>
     </g>
     <g id="text_9">
      <!-- 10 -->
      <g transform="translate(-1.725 56.899219)scale(0.1 -0.1)">
       <use xlink:href="#DejaVuSans-31"/>
       <use xlink:href="#DejaVuSans-30" x="63.623047"/>
      </g>
     </g>
    </g>
    <g id="ytick_7">
     <g id="line2d_10">
      <g>
       <use xlink:href="#m5cf661e2dd" x="18" y="25.92" style="stroke: #000000; stroke-width: 0.8"/>
      </g>
     </g>
     <g id="text_10">
      <!-- 15 -->
      <g transform="translate(-1.725 29.719219)scale(0.1 -0.1)">
       <use xlink:href="#DejaVuSans-31"/>
       <use xlink:href="#DejaVuSans-35" x="63.623047"/>
      </g>
     </g>
    </g>
   </g>
   <g id="patch_3">
    <path d="M 18 189 
L 18 25.92 
" style="fill: none; stroke: #000000; stroke-width: 0.8; stroke-linejoin: miter; stroke-linecap: square"/>
   </g>
   <g id="patch_4">
    <path d="M 129.6 189 
L 129.6 25.92 
" style="fill: none; stroke: #000000; stroke-width: 0.8; stroke-linejoin: miter; stroke-linecap: square"/>
   </g>
   <g id="patch_5">
    <path d="M 18 189 
L 129.6 189 
" style="fill: none; stroke: #000000; stroke-width: 0.8; stroke-linejoin: miter; stroke-linecap: square"/>
   </g>
   <g id="patch_6">
    <path d="M 18 25.92 
L 129.6 25.92 
" style="fill: none; stroke: #000000; stroke-width: 0.8; stroke-linejoin: miter; stroke-linecap: square"/>
   </g>
  </g>
 </g>
 <defs>
  <clipPath id="pa78b76737c">
   <rect x="18" y="25.92" width="111.6" height="163.08"/>
  </clipPath>
 </defs>
</svg>
