<?xml version="1.0" encoding="utf-8" standalone="no"?>
<!DOCTYPE svg PUBLIC "-//W3C//DTD SVG 1.1//EN"
  "http://www.w3.org/Graphics/SVG/1.1/DTD/svg11.dtd">
<svg xmlns:xlink="http://www.w3.org/1999/xlink" width="144pt" height="216pt" viewBox="0 0 144 216" xmlns="http://www.w3.org/2000/svg" version="1.1">
 <metadata>
  <rdf:RDF xmlns:dc="http://purl.org/dc/elements/1.1/" xmlns:cc="http://creativecommons.org/ns#" xmlns:rdf="http://www.w3.org/1999/02/22-rdf-syntax-ns#">
   <cc:Work>
    <dc:type rdf:resource="http://purl.org/dc/dcmitype/StillImage"/>
    <dc:date>2022-06-23T14:44:56.141032</dc:date>
    <dc:format>image/svg+xml</dc:format>
    <dc:creator>
     <cc:Agent>
      <dc:title>Matplotlib v3.5.1, https://matplotlib.org/</dc:title>
     </cc:Agent>
    </dc:creator>
   </cc:Work>
  </rdf:RDF>
 </metadata>
 <defs>
  <style type="text/css">*{stroke-linejoin: round; stroke-linecap: butt}</style>
 </defs>
 <g id="figure_1">
  <g id="patch_1">
   <path d="M 0 216 
L 144 216 
L 144 0 
L 0 0 
L 0 216 
z
" style="fill: none"/>
  </g>
  <g id="axes_1">
   <g id="patch_2">
    <path d="M 18 189 
L 129.6 189 
L 129.6 25.92 
L 18 25.92 
z
" style="fill: #ffffff"/>
   </g>
   <g id="PathCollection_1">
    <defs>
     <path id="mc2f5c19504" d="M 0 2.738613 
C 0.726289 2.738613 1.422928 2.450055 1.936492 1.936492 
C 2.450055 1.422928 2.738613 0.726289 2.738613 0 
C 2.738613 -0.726289 2.450055 -1.422928 1.936492 -1.936492 
C 1.422928 -2.450055 0.726289 -2.738613 0 -2.738613 
C -0.726289 -2.738613 -1.422928 -2.450055 -1.936492 -1.936492 
C -2.450055 -1.422928 -2.738613 -0.726289 -2.738613 0 
C -2.738613 0.726289 -2.450055 1.422928 -1.936492 1.936492 
C -1.422928 2.450055 -0.726289 2.738613 0 2.738613 
z
" style="stroke: #ff0000; stroke-width: 1.75"/>
    </defs>
    <g clip-path="url(#p647e2a9805)">
     <use xlink:href="#mc2f5c19504" x="80.775" y="107.46" style="fill: #ff0000; stroke: #ff0000; stroke-width: 1.75"/>
     <use xlink:href="#mc2f5c19504" x="94.725" y="107.46" style="fill: #ff0000; stroke: #ff0000; stroke-width: 1.75"/>
     <use xlink:href="#mc2f5c19504" x="59.85" y="119.229285" style="fill: #ff0000; stroke: #ff0000; stroke-width: 1.75"/>
     <use xlink:href="#mc2f5c19504" x="73.8" y="119.229285" style="fill: #ff0000; stroke: #ff0000; stroke-width: 1.75"/>
     <use xlink:href="#mc2f5c19504" x="87.75" y="119.229285" style="fill: #ff0000; stroke: #ff0000; stroke-width: 1.75"/>
     <use xlink:href="#mc2f5c19504" x="66.825" y="130.99857" style="fill: #ff0000; stroke: #ff0000; stroke-width: 1.75"/>
     <use xlink:href="#mc2f5c19504" x="80.775" y="130.99857" style="fill: #ff0000; stroke: #ff0000; stroke-width: 1.75"/>
    </g>
   </g>
   <g id="PathCollection_2">
    <defs>
     <path id="C0_0_c39a3dc2e6" d="M 0 2.738613 
C 0.726289 2.738613 1.422928 2.450055 1.936492 1.936492 
C 2.450055 1.422928 2.738613 0.726289 2.738613 -0 
C 2.738613 -0.726289 2.450055 -1.422928 1.936492 -1.936492 
C 1.422928 -2.450055 0.726289 -2.738613 0 -2.738613 
C -0.726289 -2.738613 -1.422928 -2.450055 -1.936492 -1.936492 
C -2.450055 -1.422928 -2.738613 -0.726289 -2.738613 0 
C -2.738613 0.726289 -2.450055 1.422928 -1.936492 1.936492 
C -1.422928 2.450055 -0.726289 2.738613 0 2.738613 
z
"/>
    </defs>
    <g clip-path="url(#p647e2a9805)">
     <use xlink:href="#C0_0_c39a3dc2e6" x="66.825" y="83.92143" style="fill: none; stroke: #ff0000; stroke-width: 1.75"/>
    </g>
    <g clip-path="url(#p647e2a9805)">
     <use xlink:href="#C0_0_c39a3dc2e6" x="80.775" y="83.92143" style="fill: none; stroke: #ff0000; stroke-width: 1.75"/>
    </g>
    <g clip-path="url(#p647e2a9805)">
     <use xlink:href="#C0_0_c39a3dc2e6" x="59.85" y="95.690715" style="fill: none; stroke: #ff0000; stroke-width: 1.75"/>
    </g>
    <g clip-path="url(#p647e2a9805)">
     <use xlink:href="#C0_0_c39a3dc2e6" x="73.8" y="95.690715" style="fill: none; stroke: #ff0000; stroke-width: 1.75"/>
    </g>
    <g clip-path="url(#p647e2a9805)">
     <use xlink:href="#C0_0_c39a3dc2e6" x="87.75" y="95.690715" style="fill: none; stroke: #ff0000; stroke-width: 1.75"/>
    </g>
    <g clip-path="url(#p647e2a9805)">
     <use xlink:href="#C0_0_c39a3dc2e6" x="52.875" y="107.46" style="fill: none; stroke: #ff0000; stroke-width: 1.75"/>
    </g>
    <g clip-path="url(#p647e2a9805)">
     <use xlink:href="#C0_0_c39a3dc2e6" x="66.825" y="107.46" style="fill: none; stroke: #ff0000; stroke-width: 1.75"/>
    </g>
   </g>
   <g id="PathCollection_3">
    <path d="M 110.345889 97.431097 
C 110.478491 97.431097 110.605679 97.378414 110.699443 97.28465 
C 110.793206 97.190887 110.845889 97.063698 110.845889 96.931097 
C 110.845889 96.798495 110.793206 96.671307 110.699443 96.577543 
C 110.605679 96.48378 110.478491 96.431097 110.345889 96.431097 
C 110.213288 96.431097 110.086099 96.48378 109.992336 96.577543 
C 109.898573 96.671307 109.845889 96.798495 109.845889 96.931097 
C 109.845889 97.063698 109.898573 97.190887 109.992336 97.28465 
C 110.086099 97.378414 110.213288 97.431097 110.345889 97.431097 
z
" clip-path="url(#p647e2a9805)" style="stroke: #000000"/>
    <path d="M 96.839381 54.290413 
C 96.971982 54.290413 97.099171 54.237729 97.192934 54.143966 
C 97.286697 54.050202 97.339381 53.923014 97.339381 53.790413 
C 97.339381 53.657811 97.286697 53.530623 97.192934 53.436859 
C 97.099171 53.343096 96.971982 53.290413 96.839381 53.290413 
C 96.706779 53.290413 96.579591 53.343096 96.485827 53.436859 
C 96.392064 53.530623 96.339381 53.657811 96.339381 53.790413 
C 96.339381 53.923014 96.392064 54.050202 96.485827 54.143966 
C 96.579591 54.237729 96.706779 54.290413 96.839381 54.290413 
z
" clip-path="url(#p647e2a9805)" style="stroke: #000000"/>
    <path d="M 112.855241 116.271957 
C 112.987843 116.271957 113.115031 116.219274 113.208795 116.125511 
C 113.302558 116.031747 113.355241 115.904559 113.355241 115.771957 
C 113.355241 115.639356 113.302558 115.512167 113.208795 115.418404 
C 113.115031 115.324641 112.987843 115.271957 112.855241 115.271957 
C 112.72264 115.271957 112.595451 115.324641 112.501688 115.418404 
C 112.407924 115.512167 112.355241 115.639356 112.355241 115.771957 
C 112.355241 115.904559 112.407924 116.031747 112.501688 116.125511 
C 112.595451 116.219274 112.72264 116.271957 112.855241 116.271957 
z
" clip-path="url(#p647e2a9805)" style="stroke: #000000"/>
    <path d="M 105.822985 95.837105 
C 106.010512 95.837105 106.190384 95.7626 106.322985 95.629999 
C 106.455587 95.497397 106.530092 95.317525 106.530092 95.129999 
C 106.530092 94.942472 106.455587 94.7626 106.322985 94.629999 
C 106.190384 94.497397 106.010512 94.422892 105.822985 94.422892 
C 105.635459 94.422892 105.455587 94.497397 105.322985 94.629999 
C 105.190384 94.7626 105.115879 94.942472 105.115879 95.129999 
C 105.115879 95.317525 105.190384 95.497397 105.322985 95.629999 
C 105.455587 95.7626 105.635459 95.837105 105.822985 95.837105 
z
" clip-path="url(#p647e2a9805)" style="stroke: #000000"/>
    <path d="M 98.317695 75.777517 
C 98.492208 75.777517 98.659597 75.708182 98.782997 75.584782 
C 98.906397 75.461383 98.975732 75.293993 98.975732 75.11948 
C 98.975732 74.944966 98.906397 74.777577 98.782997 74.654177 
C 98.659597 74.530778 98.492208 74.461443 98.317695 74.461443 
C 98.143181 74.461443 97.975792 74.530778 97.852392 74.654177 
C 97.728992 74.777577 97.659658 74.944966 97.659658 75.11948 
C 97.659658 75.293993 97.728992 75.461383 97.852392 75.584782 
C 97.975792 75.708182 98.143181 75.777517 98.317695 75.777517 
z
" clip-path="url(#p647e2a9805)" style="stroke: #000000"/>
    <path d="M 120.709299 157.034038 
C 120.841901 157.034038 120.969089 156.981355 121.062853 156.887592 
C 121.156616 156.793828 121.209299 156.66664 121.209299 156.534038 
C 121.209299 156.401437 121.156616 156.274248 121.062853 156.180485 
C 120.969089 156.086722 120.841901 156.034038 120.709299 156.034038 
C 120.576698 156.034038 120.449509 156.086722 120.355746 156.180485 
C 120.261982 156.274248 120.209299 156.401437 120.209299 156.534038 
C 120.209299 156.66664 120.261982 156.793828 120.355746 156.887592 
C 120.449509 156.981355 120.576698 157.034038 120.709299 157.034038 
z
" clip-path="url(#p647e2a9805)" style="stroke: #000000"/>
    <path d="M 114.46944 135.439426 
C 114.602042 135.439426 114.72923 135.386743 114.822994 135.292979 
C 114.916757 135.199216 114.96944 135.072028 114.96944 134.939426 
C 114.96944 134.806825 114.916757 134.679636 114.822994 134.585873 
C 114.72923 134.492109 114.602042 134.439426 114.46944 134.439426 
C 114.336839 134.439426 114.20965 134.492109 114.115887 134.585873 
C 114.022124 134.679636 113.96944 134.806825 113.96944 134.939426 
C 113.96944 135.072028 114.022124 135.199216 114.115887 135.292979 
C 114.20965 135.386743 114.336839 135.439426 114.46944 135.439426 
z
" clip-path="url(#p647e2a9805)" style="stroke: #000000"/>
    <path d="M 105.286534 107.636559 
C 105.461047 107.636559 105.628436 107.567224 105.751836 107.443824 
C 105.875236 107.320425 105.944571 107.153035 105.944571 106.978522 
C 105.944571 106.804009 105.875236 106.636619 105.751836 106.51322 
C 105.628436 106.38982 105.461047 106.320485 105.286534 106.320485 
C 105.11202 106.320485 104.944631 106.38982 104.821231 106.51322 
C 104.697831 106.636619 104.628497 106.804009 104.628497 106.978522 
C 104.628497 107.153035 104.697831 107.320425 104.821231 107.443824 
C 104.944631 107.567224 105.11202 107.636559 105.286534 107.636559 
z
" clip-path="url(#p647e2a9805)" style="stroke: #000000"/>
    <path d="M 108.551426 132.994684 
C 108.684027 132.994684 108.811216 132.942001 108.904979 132.848237 
C 108.998743 132.754474 109.051426 132.627285 109.051426 132.494684 
C 109.051426 132.362082 108.998743 132.234894 108.904979 132.14113 
C 108.811216 132.047367 108.684027 131.994684 108.551426 131.994684 
C 108.418824 131.994684 108.291636 132.047367 108.197872 132.14113 
C 108.104109 132.234894 108.051426 132.362082 108.051426 132.494684 
C 108.051426 132.627285 108.104109 132.754474 108.197872 132.848237 
C 108.291636 132.942001 108.418824 132.994684 108.551426 132.994684 
z
" clip-path="url(#p647e2a9805)" style="stroke: #000000"/>
    <path d="M 99.302493 105.750829 
C 99.435094 105.750829 99.562283 105.698146 99.656046 105.604382 
C 99.74981 105.510619 99.802493 105.38343 99.802493 105.250829 
C 99.802493 105.118227 99.74981 104.991039 99.656046 104.897276 
C 99.562283 104.803512 99.435094 104.750829 99.302493 104.750829 
C 99.169891 104.750829 99.042703 104.803512 98.948939 104.897276 
C 98.855176 104.991039 98.802493 105.118227 98.802493 105.250829 
C 98.802493 105.38343 98.855176 105.510619 98.948939 105.604382 
C 99.042703 105.698146 99.169891 105.750829 99.302493 105.750829 
z
" clip-path="url(#p647e2a9805)" style="stroke: #000000"/>
    <path d="M 97.571851 101.166539 
C 97.81334 101.166539 98.044971 101.070594 98.215729 100.899836 
C 98.386487 100.729077 98.482432 100.497447 98.482432 100.255958 
C 98.482432 100.01447 98.386487 99.782839 98.215729 99.612081 
C 98.044971 99.441323 97.81334 99.345378 97.571851 99.345378 
C 97.330363 99.345378 97.098732 99.441323 96.927974 99.612081 
C 96.757216 99.782839 96.661271 100.01447 96.661271 100.255958 
C 96.661271 100.497447 96.757216 100.729077 96.927974 100.899836 
C 97.098732 101.070594 97.330363 101.166539 97.571851 101.166539 
z
" clip-path="url(#p647e2a9805)" style="stroke: #000000"/>
    <path d="M 118.823598 173.487975 
C 118.956199 173.487975 119.083388 173.435292 119.177151 173.341528 
C 119.270915 173.247765 119.323598 173.120577 119.323598 172.987975 
C 119.323598 172.855374 119.270915 172.728185 119.177151 172.634422 
C 119.083388 172.540658 118.956199 172.487975 118.823598 172.487975 
C 118.690996 172.487975 118.563808 172.540658 118.470044 172.634422 
C 118.376281 172.728185 118.323598 172.855374 118.323598 172.987975 
C 118.323598 173.120577 118.376281 173.247765 118.470044 173.341528 
C 118.563808 173.435292 118.690996 173.487975 118.823598 173.487975 
z
" clip-path="url(#p647e2a9805)" style="stroke: #000000"/>
    <path d="M 104.589303 133.461261 
C 104.77683 133.461261 104.956701 133.386756 105.089303 133.254154 
C 105.221904 133.121553 105.296409 132.941681 105.296409 132.754154 
C 105.296409 132.566627 105.221904 132.386756 105.089303 132.254154 
C 104.956701 132.121553 104.77683 132.047047 104.589303 132.047047 
C 104.401776 132.047047 104.221904 132.121553 104.089303 132.254154 
C 103.956701 132.386756 103.882196 132.566627 103.882196 132.754154 
C 103.882196 132.941681 103.956701 133.121553 104.089303 133.254154 
C 104.221904 133.386756 104.401776 133.461261 104.589303 133.461261 
z
" clip-path="url(#p647e2a9805)" style="stroke: #000000"/>
    <path d="M 103.749299 129.169286 
C 103.936826 129.169286 104.116698 129.09478 104.249299 128.962179 
C 104.381901 128.829577 104.456406 128.649706 104.456406 128.462179 
C 104.456406 128.274652 104.381901 128.09478 104.249299 127.962179 
C 104.116698 127.829577 103.936826 127.755072 103.749299 127.755072 
C 103.561772 127.755072 103.381901 127.829577 103.249299 127.962179 
C 103.116698 128.09478 103.042192 128.274652 103.042192 128.462179 
C 103.042192 128.649706 103.116698 128.829577 103.249299 128.962179 
C 103.381901 129.09478 103.561772 129.169286 103.749299 129.169286 
z
" clip-path="url(#p647e2a9805)" style="stroke: #000000"/>
    <path d="M 97.161736 111.829197 
C 97.736503 111.829197 98.287807 111.600839 98.694229 111.194417 
C 99.100651 110.787995 99.329009 110.236691 99.329009 109.661923 
C 99.329009 109.087156 99.100651 108.535852 98.694229 108.12943 
C 98.287807 107.723008 97.736503 107.49465 97.161736 107.49465 
C 96.586968 107.49465 96.035664 107.723008 95.629242 108.12943 
C 95.22282 108.535852 94.994462 109.087156 94.994462 109.661923 
C 94.994462 110.236691 95.22282 110.787995 95.629242 111.194417 
C 96.035664 111.600839 96.586968 111.829197 97.161736 111.829197 
z
" clip-path="url(#p647e2a9805)" style="stroke: #000000"/>
    <path d="M 94.105186 109.685154 
C 94.474237 109.685154 94.828222 109.538529 95.089181 109.27757 
C 95.350139 109.016612 95.496765 108.662626 95.496765 108.293575 
C 95.496765 107.924524 95.350139 107.570539 95.089181 107.30958 
C 94.828222 107.048622 94.474237 106.901996 94.105186 106.901996 
C 93.736135 106.901996 93.38215 107.048622 93.121191 107.30958 
C 92.860233 107.570539 92.713607 107.924524 92.713607 108.293575 
C 92.713607 108.662626 92.860233 109.016612 93.121191 109.27757 
C 93.38215 109.538529 93.736135 109.685154 94.105186 109.685154 
z
" clip-path="url(#p647e2a9805)" style="stroke: #000000"/>
    <path d="M 90.081174 98.352627 
C 90.418742 98.352627 90.742529 98.21851 90.981226 97.979814 
C 91.219922 97.741117 91.354039 97.41733 91.354039 97.079762 
C 91.354039 96.742194 91.219922 96.418407 90.981226 96.179711 
C 90.742529 95.941014 90.418742 95.806897 90.081174 95.806897 
C 89.743607 95.806897 89.419819 95.941014 89.181123 96.179711 
C 88.942426 96.418407 88.808309 96.742194 88.808309 97.079762 
C 88.808309 97.41733 88.942426 97.741117 89.181123 97.979814 
C 89.419819 98.21851 89.743607 98.352627 90.081174 98.352627 
z
" clip-path="url(#p647e2a9805)" style="stroke: #000000"/>
    <path d="M 85.660089 86.95068 
C 86.01617 86.95068 86.357715 86.809207 86.609503 86.557419 
C 86.861291 86.305632 87.002763 85.964086 87.002763 85.608005 
C 87.002763 85.251923 86.861291 84.910378 86.609503 84.65859 
C 86.357715 84.406803 86.01617 84.26533 85.660089 84.26533 
C 85.304007 84.26533 84.962462 84.406803 84.710674 84.65859 
C 84.458886 84.910378 84.317414 85.251923 84.317414 85.608005 
C 84.317414 85.964086 84.458886 86.305632 84.710674 86.557419 
C 84.962462 86.809207 85.304007 86.95068 85.660089 86.95068 
z
" clip-path="url(#p647e2a9805)" style="stroke: #000000"/>
    <path d="M 113.6982 175.274894 
C 113.830802 175.274894 113.95799 175.222211 114.051754 175.128448 
C 114.145517 175.034684 114.1982 174.907496 114.1982 174.774894 
C 114.1982 174.642293 114.145517 174.515104 114.051754 174.421341 
C 113.95799 174.327577 113.830802 174.274894 113.6982 174.274894 
C 113.565599 174.274894 113.43841 174.327577 113.344647 174.421341 
C 113.250883 174.515104 113.1982 174.642293 113.1982 174.774894 
C 113.1982 174.907496 113.250883 175.034684 113.344647 175.128448 
C 113.43841 175.222211 113.565599 175.274894 113.6982 175.274894 
z
" clip-path="url(#p647e2a9805)" style="stroke: #000000"/>
    <path d="M 92.390253 120.489132 
C 92.805318 120.489132 93.203439 120.324225 93.496935 120.030729 
C 93.79043 119.737234 93.955337 119.339113 93.955337 118.924047 
C 93.955337 118.508982 93.79043 118.110861 93.496935 117.817365 
C 93.203439 117.52387 92.805318 117.358963 92.390253 117.358963 
C 91.975188 117.358963 91.577066 117.52387 91.283571 117.817365 
C 90.990076 118.110861 90.825168 118.508982 90.825168 118.924047 
C 90.825168 119.339113 90.990076 119.737234 91.283571 120.030729 
C 91.577066 120.324225 91.975188 120.489132 92.390253 120.489132 
z
" clip-path="url(#p647e2a9805)" style="stroke: #000000"/>
    <path d="M 93.592643 114.994209 
C 94.108474 114.994209 94.603247 114.789267 94.967995 114.42452 
C 95.332743 114.059772 95.537685 113.564999 95.537685 113.049168 
C 95.537685 112.533337 95.332743 112.038563 94.967995 111.673816 
C 94.603247 111.309068 94.108474 111.104126 93.592643 111.104126 
C 93.076812 111.104126 92.582039 111.309068 92.217291 111.673816 
C 91.852543 112.038563 91.647602 112.533337 91.647602 113.049168 
C 91.647602 113.564999 91.852543 114.059772 92.217291 114.42452 
C 92.582039 114.789267 93.076812 114.994209 93.592643 114.994209 
z
" clip-path="url(#p647e2a9805)" style="stroke: #000000"/>
    <path d="M 88.559372 103.171851 
C 88.888598 103.171851 89.204385 103.041048 89.437183 102.80825 
C 89.669981 102.575452 89.800784 102.259666 89.800784 101.930439 
C 89.800784 101.601213 89.669981 101.285427 89.437183 101.052629 
C 89.204385 100.81983 88.888598 100.689027 88.559372 100.689027 
C 88.230146 100.689027 87.914359 100.81983 87.681561 101.052629 
C 87.448763 101.285427 87.31796 101.601213 87.31796 101.930439 
C 87.31796 102.259666 87.448763 102.575452 87.681561 102.80825 
C 87.914359 103.041048 88.230146 103.171851 88.559372 103.171851 
z
" clip-path="url(#p647e2a9805)" style="stroke: #000000"/>
    <path d="M 83.9099 88.780961 
C 84.37626 88.780961 84.823582 88.595674 85.153348 88.265907 
C 85.483115 87.936141 85.668402 87.488819 85.668402 87.022459 
C 85.668402 86.556098 85.483115 86.108776 85.153348 85.77901 
C 84.823582 85.449244 84.37626 85.263957 83.9099 85.263957 
C 83.44354 85.263957 82.996217 85.449244 82.666451 85.77901 
C 82.336685 86.108776 82.151398 86.556098 82.151398 87.022459 
C 82.151398 87.488819 82.336685 87.936141 82.666451 88.265907 
C 82.996217 88.595674 83.44354 88.780961 83.9099 88.780961 
z
" clip-path="url(#p647e2a9805)" style="stroke: #000000"/>
    <path d="M 80.249141 84.070006 
C 80.436668 84.070006 80.61654 83.995501 80.749141 83.862899 
C 80.881743 83.730297 80.956248 83.550426 80.956248 83.362899 
C 80.956248 83.175372 80.881743 82.995501 80.749141 82.862899 
C 80.61654 82.730297 80.436668 82.655792 80.249141 82.655792 
C 80.061615 82.655792 79.881743 82.730297 79.749141 82.862899 
C 79.61654 82.995501 79.542035 83.175372 79.542035 83.362899 
C 79.542035 83.550426 79.61654 83.730297 79.749141 83.862899 
C 79.881743 83.995501 80.061615 84.070006 80.249141 84.070006 
z
" clip-path="url(#p647e2a9805)" style="stroke: #000000"/>
    <path d="M 92.669493 130.154995 
C 93.113757 130.154995 93.539885 129.978487 93.854027 129.664344 
C 94.16817 129.350202 94.344678 128.924074 94.344678 128.47981 
C 94.344678 128.035546 94.16817 127.609418 93.854027 127.295276 
C 93.539885 126.981134 93.113757 126.804626 92.669493 126.804626 
C 92.225229 126.804626 91.799101 126.981134 91.484959 127.295276 
C 91.170817 127.609418 90.994309 128.035546 90.994309 128.47981 
C 90.994309 128.924074 91.170817 129.350202 91.484959 129.664344 
C 91.799101 129.978487 92.225229 130.154995 92.669493 130.154995 
z
" clip-path="url(#p647e2a9805)" style="stroke: #000000"/>
    <path d="M 88.539853 119.875858 
C 88.697543 119.875858 88.848797 119.813207 88.960301 119.701702 
C 89.071805 119.590198 89.134456 119.438945 89.134456 119.281254 
C 89.134456 119.123563 89.071805 118.97231 88.960301 118.860806 
C 88.848797 118.749302 88.697543 118.686651 88.539853 118.686651 
C 88.382162 118.686651 88.230909 118.749302 88.119405 118.860806 
C 88.0079 118.97231 87.945249 119.123563 87.945249 119.281254 
C 87.945249 119.438945 88.0079 119.590198 88.119405 119.701702 
C 88.230909 119.813207 88.382162 119.875858 88.539853 119.875858 
z
" clip-path="url(#p647e2a9805)" style="stroke: #000000"/>
    <path d="M 88.272579 116.659527 
C 88.617912 116.659527 88.949148 116.522325 89.193335 116.278137 
C 89.437523 116.03395 89.574725 115.702715 89.574725 115.357382 
C 89.574725 115.012049 89.437523 114.680813 89.193335 114.436626 
C 88.949148 114.192438 88.617912 114.055236 88.272579 114.055236 
C 87.927247 114.055236 87.596011 114.192438 87.351824 114.436626 
C 87.107636 114.680813 86.970434 115.012049 86.970434 115.357382 
C 86.970434 115.702715 87.107636 116.03395 87.351824 116.278137 
C 87.596011 116.522325 87.927247 116.659527 88.272579 116.659527 
z
" clip-path="url(#p647e2a9805)" style="stroke: #000000"/>
    <path d="M 83.880597 107.891567 
C 84.451666 107.891567 84.999422 107.664679 85.403228 107.260873 
C 85.807034 106.857066 86.033922 106.309311 86.033922 105.738242 
C 86.033922 105.167173 85.807034 104.619418 85.403228 104.215611 
C 84.999422 103.811805 84.451666 103.584917 83.880597 103.584917 
C 83.309529 103.584917 82.761773 103.811805 82.357966 104.215611 
C 81.95416 104.619418 81.727272 105.167173 81.727272 105.738242 
C 81.727272 106.309311 81.95416 106.857066 82.357966 107.260873 
C 82.761773 107.664679 83.309529 107.891567 83.880597 107.891567 
z
" clip-path="url(#p647e2a9805)" style="stroke: #000000"/>
    <path d="M 81.801746 96.019502 
C 81.934348 96.019502 82.061536 95.966819 82.1553 95.873055 
C 82.249063 95.779292 82.301746 95.652103 82.301746 95.519502 
C 82.301746 95.3869 82.249063 95.259712 82.1553 95.165948 
C 82.061536 95.072185 81.934348 95.019502 81.801746 95.019502 
C 81.669145 95.019502 81.541956 95.072185 81.448193 95.165948 
C 81.354429 95.259712 81.301746 95.3869 81.301746 95.519502 
C 81.301746 95.652103 81.354429 95.779292 81.448193 95.873055 
C 81.541956 95.966819 81.669145 96.019502 81.801746 96.019502 
z
" clip-path="url(#p647e2a9805)" style="stroke: #000000"/>
    <path d="M 79.383954 92.712701 
C 79.717429 92.712701 80.037291 92.58021 80.273094 92.344408 
C 80.508896 92.108605 80.641387 91.788743 80.641387 91.455268 
C 80.641387 91.121793 80.508896 90.801931 80.273094 90.566128 
C 80.037291 90.330326 79.717429 90.197835 79.383954 90.197835 
C 79.050479 90.197835 78.730617 90.330326 78.494814 90.566128 
C 78.259012 90.801931 78.12652 91.121793 78.12652 91.455268 
C 78.12652 91.788743 78.259012 92.108605 78.494814 92.344408 
C 78.730617 92.58021 79.050479 92.712701 79.383954 92.712701 
z
" clip-path="url(#p647e2a9805)" style="stroke: #000000"/>
    <path d="M 76.074791 79.28888 
C 76.351637 79.28888 76.61718 79.178888 76.812939 78.983129 
C 77.008699 78.78737 77.11869 78.521826 77.11869 78.244981 
C 77.11869 77.968136 77.008699 77.702592 76.812939 77.506833 
C 76.61718 77.311074 76.351637 77.201082 76.074791 77.201082 
C 75.797946 77.201082 75.532403 77.311074 75.336644 77.506833 
C 75.140884 77.702592 75.030893 77.968136 75.030893 78.244981 
C 75.030893 78.521826 75.140884 78.78737 75.336644 78.983129 
C 75.532403 79.178888 75.797946 79.28888 76.074791 79.28888 
z
" clip-path="url(#p647e2a9805)" style="stroke: #000000"/>
    <path d="M 58.957868 31.224406 
C 59.090469 31.224406 59.217658 31.171723 59.311421 31.077959 
C 59.405185 30.984196 59.457868 30.857007 59.457868 30.724406 
C 59.457868 30.591804 59.405185 30.464616 59.311421 30.370852 
C 59.217658 30.277089 59.090469 30.224406 58.957868 30.224406 
C 58.825266 30.224406 58.698078 30.277089 58.604315 30.370852 
C 58.510551 30.464616 58.457868 30.591804 58.457868 30.724406 
C 58.457868 30.857007 58.510551 30.984196 58.604315 31.077959 
C 58.698078 31.171723 58.825266 31.224406 58.957868 31.224406 
z
" clip-path="url(#p647e2a9805)" style="stroke: #000000"/>
    <path d="M 99.637051 164.749658 
C 99.794741 164.749658 99.945995 164.687006 100.057499 164.575502 
C 100.169003 164.463998 100.231654 164.312745 100.231654 164.155054 
C 100.231654 163.997363 100.169003 163.84611 100.057499 163.734606 
C 99.945995 163.623102 99.794741 163.56045 99.637051 163.56045 
C 99.47936 163.56045 99.328107 163.623102 99.216602 163.734606 
C 99.105098 163.84611 99.042447 163.997363 99.042447 164.155054 
C 99.042447 164.312745 99.105098 164.463998 99.216602 164.575502 
C 99.328107 164.687006 99.47936 164.749658 99.637051 164.749658 
z
" clip-path="url(#p647e2a9805)" style="stroke: #000000"/>
    <path d="M 90.34043 139.04556 
C 90.563438 139.04556 90.777343 138.956958 90.935033 138.799267 
C 91.092724 138.641577 91.181326 138.427672 91.181326 138.204664 
C 91.181326 137.981655 91.092724 137.767751 90.935033 137.61006 
C 90.777343 137.452369 90.563438 137.363767 90.34043 137.363767 
C 90.117422 137.363767 89.903517 137.452369 89.745826 137.61006 
C 89.588136 137.767751 89.499533 137.981655 89.499533 138.204664 
C 89.499533 138.427672 89.588136 138.641577 89.745826 138.799267 
C 89.903517 138.956958 90.117422 139.04556 90.34043 139.04556 
z
" clip-path="url(#p647e2a9805)" style="stroke: #000000"/>
    <path d="M 86.16314 124.893199 
C 86.337654 124.893199 86.505043 124.823864 86.628443 124.700464 
C 86.751842 124.577065 86.821177 124.409675 86.821177 124.235162 
C 86.821177 124.060648 86.751842 123.893259 86.628443 123.769859 
C 86.505043 123.64646 86.337654 123.577125 86.16314 123.577125 
C 85.988627 123.577125 85.821238 123.64646 85.697838 123.769859 
C 85.574438 123.893259 85.505103 124.060648 85.505103 124.235162 
C 85.505103 124.409675 85.574438 124.577065 85.697838 124.700464 
C 85.821238 124.823864 85.988627 124.893199 86.16314 124.893199 
z
" clip-path="url(#p647e2a9805)" style="stroke: #000000"/>
    <path d="M 85.970947 119.661828 
C 86.325304 119.661828 86.665195 119.52104 86.915764 119.270472 
C 87.166332 119.019904 87.307119 118.680012 87.307119 118.325655 
C 87.307119 117.971298 87.166332 117.631407 86.915764 117.380839 
C 86.665195 117.13027 86.325304 116.989483 85.970947 116.989483 
C 85.61659 116.989483 85.276698 117.13027 85.02613 117.380839 
C 84.775562 117.631407 84.634774 117.971298 84.634774 118.325655 
C 84.634774 118.680012 84.775562 119.019904 85.02613 119.270472 
C 85.276698 119.52104 85.61659 119.661828 85.970947 119.661828 
z
" clip-path="url(#p647e2a9805)" style="stroke: #000000"/>
    <path d="M 83.676369 116.694466 
C 84.055743 116.694466 84.41963 116.543739 84.687888 116.275481 
C 84.956145 116.007223 85.106872 115.643337 85.106872 115.263963 
C 85.106872 114.884589 84.956145 114.520703 84.687888 114.252445 
C 84.41963 113.984187 84.055743 113.83346 83.676369 113.83346 
C 83.296996 113.83346 82.933109 113.984187 82.664851 114.252445 
C 82.396593 114.520703 82.245867 114.884589 82.245867 115.263963 
C 82.245867 115.643337 82.396593 116.007223 82.664851 116.275481 
C 82.933109 116.543739 83.296996 116.694466 83.676369 116.694466 
z
" clip-path="url(#p647e2a9805)" style="stroke: #000000"/>
    <path d="M 82.058978 114.117947 
C 82.246505 114.117947 82.426377 114.043442 82.558978 113.91084 
C 82.69158 113.778239 82.766085 113.598367 82.766085 113.41084 
C 82.766085 113.223313 82.69158 113.043442 82.558978 112.91084 
C 82.426377 112.778239 82.246505 112.703733 82.058978 112.703733 
C 81.871451 112.703733 81.69158 112.778239 81.558978 112.91084 
C 81.426377 113.043442 81.351872 113.223313 81.351872 113.41084 
C 81.351872 113.598367 81.426377 113.778239 81.558978 113.91084 
C 81.69158 114.043442 81.871451 114.117947 82.058978 114.117947 
z
" clip-path="url(#p647e2a9805)" style="stroke: #000000"/>
    <path d="M 80.210445 109.137657 
C 80.689955 109.137657 81.14989 108.947145 81.488954 108.608081 
C 81.828019 108.269016 82.018531 107.809081 82.018531 107.329571 
C 82.018531 106.850061 81.828019 106.390126 81.488954 106.051061 
C 81.14989 105.711996 80.689955 105.521485 80.210445 105.521485 
C 79.730935 105.521485 79.271 105.711996 78.931935 106.051061 
C 78.59287 106.390126 78.402359 106.850061 78.402359 107.329571 
C 78.402359 107.809081 78.59287 108.269016 78.931935 108.608081 
C 79.271 108.947145 79.730935 109.137657 80.210445 109.137657 
z
" clip-path="url(#p647e2a9805)" style="stroke: #000000"/>
    <path d="M 77.288581 98.523695 
C 77.463094 98.523695 77.630484 98.45436 77.753883 98.330961 
C 77.877283 98.207561 77.946618 98.040172 77.946618 97.865658 
C 77.946618 97.691145 77.877283 97.523756 77.753883 97.400356 
C 77.630484 97.276956 77.463094 97.207621 77.288581 97.207621 
C 77.114067 97.207621 76.946678 97.276956 76.823278 97.400356 
C 76.699879 97.523756 76.630544 97.691145 76.630544 97.865658 
C 76.630544 98.040172 76.699879 98.207561 76.823278 98.330961 
C 76.946678 98.45436 77.114067 98.523695 77.288581 98.523695 
z
" clip-path="url(#p647e2a9805)" style="stroke: #000000"/>
    <path d="M 75.139463 95.780291 
C 75.687606 95.780291 76.213373 95.562511 76.600969 95.174915 
C 76.988565 94.787319 77.206345 94.261552 77.206345 93.713409 
C 77.206345 93.165265 76.988565 92.639499 76.600969 92.251902 
C 76.213373 91.864306 75.687606 91.646527 75.139463 91.646527 
C 74.591319 91.646527 74.065552 91.864306 73.677956 92.251902 
C 73.29036 92.639499 73.072581 93.165265 73.072581 93.713409 
C 73.072581 94.261552 73.29036 94.787319 73.677956 95.174915 
C 74.065552 95.562511 74.591319 95.780291 75.139463 95.780291 
z
" clip-path="url(#p647e2a9805)" style="stroke: #000000"/>
    <path d="M 72.723927 87.63867 
C 73.212964 87.63867 73.682036 87.444374 74.027838 87.098572 
C 74.373639 86.752771 74.567935 86.283698 74.567935 85.794662 
C 74.567935 85.305625 74.373639 84.836552 74.027838 84.490751 
C 73.682036 84.144949 73.212964 83.950653 72.723927 83.950653 
C 72.23489 83.950653 71.765817 84.144949 71.420016 84.490751 
C 71.074215 84.836552 70.879918 85.305625 70.879918 85.794662 
C 70.879918 86.283698 71.074215 86.752771 71.420016 87.098572 
C 71.765817 87.444374 72.23489 87.63867 72.723927 87.63867 
z
" clip-path="url(#p647e2a9805)" style="stroke: #000000"/>
    <path d="M 84.045461 134.450734 
C 84.219975 134.450734 84.387364 134.381399 84.510764 134.257999 
C 84.634163 134.134599 84.703498 133.96721 84.703498 133.792697 
C 84.703498 133.618183 84.634163 133.450794 84.510764 133.327394 
C 84.387364 133.203995 84.219975 133.13466 84.045461 133.13466 
C 83.870948 133.13466 83.703558 133.203995 83.580159 133.327394 
C 83.456759 133.450794 83.387424 133.618183 83.387424 133.792697 
C 83.387424 133.96721 83.456759 134.134599 83.580159 134.257999 
C 83.703558 134.381399 83.870948 134.450734 84.045461 134.450734 
z
" clip-path="url(#p647e2a9805)" style="stroke: #000000"/>
    <path d="M 83.563194 131.913971 
C 83.941145 131.913971 84.303666 131.76381 84.570917 131.496559 
C 84.838168 131.229307 84.988329 130.866786 84.988329 130.488836 
C 84.988329 130.110886 84.838168 129.748365 84.570917 129.481113 
C 84.303666 129.213862 83.941145 129.063701 83.563194 129.063701 
C 83.185244 129.063701 82.822723 129.213862 82.555472 129.481113 
C 82.288221 129.748365 82.13806 130.110886 82.13806 130.488836 
C 82.13806 130.866786 82.288221 131.229307 82.555472 131.496559 
C 82.822723 131.76381 83.185244 131.913971 83.563194 131.913971 
z
" clip-path="url(#p647e2a9805)" style="stroke: #000000"/>
    <path d="M 79.517801 124.736176 
C 79.861241 124.736176 80.190662 124.599726 80.433511 124.356876 
C 80.67636 124.114027 80.812811 123.784607 80.812811 123.441166 
C 80.812811 123.097725 80.67636 122.768305 80.433511 122.525456 
C 80.190662 122.282606 79.861241 122.146156 79.517801 122.146156 
C 79.17436 122.146156 78.84494 122.282606 78.60209 122.525456 
C 78.359241 122.768305 78.222791 123.097725 78.222791 123.441166 
C 78.222791 123.784607 78.359241 124.114027 78.60209 124.356876 
C 78.84494 124.599726 79.17436 124.736176 79.517801 124.736176 
z
" clip-path="url(#p647e2a9805)" style="stroke: #000000"/>
    <path d="M 76.202801 114.05804 
C 76.432473 114.05804 76.65277 113.96679 76.815173 113.804387 
C 76.977576 113.641984 77.068826 113.421687 77.068826 113.192014 
C 77.068826 112.962342 76.977576 112.742045 76.815173 112.579642 
C 76.65277 112.417239 76.432473 112.325989 76.202801 112.325989 
C 75.973128 112.325989 75.752831 112.417239 75.590428 112.579642 
C 75.428025 112.742045 75.336775 112.962342 75.336775 113.192014 
C 75.336775 113.421687 75.428025 113.641984 75.590428 113.804387 
C 75.752831 113.96679 75.973128 114.05804 76.202801 114.05804 
z
" clip-path="url(#p647e2a9805)" style="stroke: #000000"/>
    <path d="M 75.045653 109.662745 
C 75.548622 109.662745 76.031058 109.462913 76.386711 109.10726 
C 76.742363 108.751607 76.942195 108.269171 76.942195 107.766202 
C 76.942195 107.263233 76.742363 106.780797 76.386711 106.425144 
C 76.031058 106.069491 75.548622 105.86966 75.045653 105.86966 
C 74.542684 105.86966 74.060247 106.069491 73.704594 106.425144 
C 73.348942 106.780797 73.14911 107.263233 73.14911 107.766202 
C 73.14911 108.269171 73.348942 108.751607 73.704594 109.10726 
C 74.060247 109.462913 74.542684 109.662745 75.045653 109.662745 
z
" clip-path="url(#p647e2a9805)" style="stroke: #000000"/>
    <path d="M 74.809232 105.351338 
C 74.941834 105.351338 75.069022 105.298655 75.162786 105.204892 
C 75.256549 105.111128 75.309232 104.98394 75.309232 104.851338 
C 75.309232 104.718737 75.256549 104.591548 75.162786 104.497785 
C 75.069022 104.404022 74.941834 104.351338 74.809232 104.351338 
C 74.676631 104.351338 74.549443 104.404022 74.455679 104.497785 
C 74.361916 104.591548 74.309232 104.718737 74.309232 104.851338 
C 74.309232 104.98394 74.361916 105.111128 74.455679 105.204892 
C 74.549443 105.298655 74.676631 105.351338 74.809232 105.351338 
z
" clip-path="url(#p647e2a9805)" style="stroke: #000000"/>
    <path d="M 74.634413 100.258494 
C 75.135549 100.258494 75.616228 100.059391 75.970585 99.705034 
C 76.324942 99.350676 76.524046 98.869998 76.524046 98.368861 
C 76.524046 97.867724 76.324942 97.387046 75.970585 97.032688 
C 75.616228 96.678331 75.135549 96.479228 74.634413 96.479228 
C 74.133276 96.479228 73.652597 96.678331 73.29824 97.032688 
C 72.943883 97.387046 72.744779 97.867724 72.744779 98.368861 
C 72.744779 98.869998 72.943883 99.350676 73.29824 99.705034 
C 73.652597 100.059391 74.133276 100.258494 74.634413 100.258494 
z
" clip-path="url(#p647e2a9805)" style="stroke: #000000"/>
    <path d="M 72.099254 95.394182 
C 72.625996 95.394182 73.131236 95.184905 73.503699 94.812442 
C 73.876162 94.439979 74.085439 93.934739 74.085439 93.407997 
C 74.085439 92.881254 73.876162 92.376015 73.503699 92.003551 
C 73.131236 91.631088 72.625996 91.421811 72.099254 91.421811 
C 71.572511 91.421811 71.067272 91.631088 70.694808 92.003551 
C 70.322345 92.376015 70.113068 92.881254 70.113068 93.407997 
C 70.113068 93.934739 70.322345 94.439979 70.694808 94.812442 
C 71.067272 95.184905 71.572511 95.394182 72.099254 95.394182 
z
" clip-path="url(#p647e2a9805)" style="stroke: #000000"/>
    <path d="M 67.590059 88.952591 
C 68.05334 88.952591 68.49771 88.768528 68.825299 88.440938 
C 69.152889 88.113348 69.336953 87.668979 69.336953 87.205697 
C 69.336953 86.742416 69.152889 86.298046 68.825299 85.970457 
C 68.49771 85.642867 68.05334 85.458803 67.590059 85.458803 
C 67.126777 85.458803 66.682408 85.642867 66.354818 85.970457 
C 66.027228 86.298046 65.843164 86.742416 65.843164 87.205697 
C 65.843164 87.668979 66.027228 88.113348 66.354818 88.440938 
C 66.682408 88.768528 67.126777 88.952591 67.590059 88.952591 
z
" clip-path="url(#p647e2a9805)" style="stroke: #000000"/>
    <path d="M 65.948755 86.649104 
C 66.405689 86.649104 66.843969 86.467562 67.16707 86.144461 
C 67.490171 85.82136 67.671713 85.383079 67.671713 84.926146 
C 67.671713 84.469212 67.490171 84.030931 67.16707 83.70783 
C 66.843969 83.384729 66.405689 83.203187 65.948755 83.203187 
C 65.491821 83.203187 65.05354 83.384729 64.730439 83.70783 
C 64.407338 84.030931 64.225796 84.469212 64.225796 84.926146 
C 64.225796 85.383079 64.407338 85.82136 64.730439 86.144461 
C 65.05354 86.467562 65.491821 86.649104 65.948755 86.649104 
z
" clip-path="url(#p647e2a9805)" style="stroke: #000000"/>
    <path d="M 80.700023 136.663164 
C 81.082197 136.663164 81.448769 136.511325 81.719007 136.241087 
C 81.989245 135.970849 82.141084 135.604277 82.141084 135.222103 
C 82.141084 134.83993 81.989245 134.473357 81.719007 134.20312 
C 81.448769 133.932882 81.082197 133.781043 80.700023 133.781043 
C 80.317849 133.781043 79.951277 133.932882 79.681039 134.20312 
C 79.410802 134.473357 79.258963 134.83993 79.258963 135.222103 
C 79.258963 135.604277 79.410802 135.970849 79.681039 136.241087 
C 79.951277 136.511325 80.317849 136.663164 80.700023 136.663164 
z
" clip-path="url(#p647e2a9805)" style="stroke: #000000"/>
    <path d="M 80.414054 132.127345 
C 80.932678 132.127345 81.430131 131.921293 81.796853 131.554571 
C 82.163576 131.187848 82.369627 130.690396 82.369627 130.171772 
C 82.369627 129.653148 82.163576 129.155696 81.796853 128.788973 
C 81.430131 128.422251 80.932678 128.216199 80.414054 128.216199 
C 79.89543 128.216199 79.397978 128.422251 79.031256 128.788973 
C 78.664533 129.155696 78.458482 129.653148 78.458482 130.171772 
C 78.458482 130.690396 78.664533 131.187848 79.031256 131.554571 
C 79.397978 131.921293 79.89543 132.127345 80.414054 132.127345 
z
" clip-path="url(#p647e2a9805)" style="stroke: #000000"/>
    <path d="M 77.202028 127.977178 
C 77.359719 127.977178 77.510972 127.914527 77.622476 127.803023 
C 77.73398 127.691519 77.796631 127.540265 77.796631 127.382575 
C 77.796631 127.224884 77.73398 127.073631 77.622476 126.962127 
C 77.510972 126.850622 77.359719 126.787971 77.202028 126.787971 
C 77.044337 126.787971 76.893084 126.850622 76.78158 126.962127 
C 76.670075 127.073631 76.607424 127.224884 76.607424 127.382575 
C 76.607424 127.540265 76.670075 127.691519 76.78158 127.803023 
C 76.893084 127.914527 77.044337 127.977178 77.202028 127.977178 
z
" clip-path="url(#p647e2a9805)" style="stroke: #000000"/>
    <path d="M 76.501318 125.814958 
C 76.857399 125.814958 77.198945 125.673486 77.450732 125.421698 
C 77.70252 125.16991 77.843993 124.828365 77.843993 124.472284 
C 77.843993 124.116202 77.70252 123.774657 77.450732 123.522869 
C 77.198945 123.271082 76.857399 123.129609 76.501318 123.129609 
C 76.145236 123.129609 75.803691 123.271082 75.551903 123.522869 
C 75.300116 123.774657 75.158643 124.116202 75.158643 124.472284 
C 75.158643 124.828365 75.300116 125.16991 75.551903 125.421698 
C 75.803691 125.673486 76.145236 125.814958 76.501318 125.814958 
z
" clip-path="url(#p647e2a9805)" style="stroke: #000000"/>
    <path d="M 72.392261 116.511522 
C 72.919004 116.511522 73.424243 116.302245 73.796707 115.929782 
C 74.16917 115.557319 74.378447 115.052079 74.378447 114.525337 
C 74.378447 113.998594 74.16917 113.493355 73.796707 113.120891 
C 73.424243 112.748428 72.919004 112.539151 72.392261 112.539151 
C 71.865519 112.539151 71.360279 112.748428 70.987816 113.120891 
C 70.615353 113.493355 70.406076 113.998594 70.406076 114.525337 
C 70.406076 115.052079 70.615353 115.557319 70.987816 115.929782 
C 71.360279 116.302245 71.865519 116.511522 72.392261 116.511522 
z
" clip-path="url(#p647e2a9805)" style="stroke: #000000"/>
    <path d="M 71.451986 110.905398 
C 71.609676 110.905398 71.76093 110.842747 71.872434 110.731243 
C 71.983938 110.619739 72.046589 110.468486 72.046589 110.310795 
C 72.046589 110.153104 71.983938 110.001851 71.872434 109.890347 
C 71.76093 109.778843 71.609676 109.716191 71.451986 109.716191 
C 71.294295 109.716191 71.143042 109.778843 71.031537 109.890347 
C 70.920033 110.001851 70.857382 110.153104 70.857382 110.310795 
C 70.857382 110.468486 70.920033 110.619739 71.031537 110.731243 
C 71.143042 110.842747 71.294295 110.905398 71.451986 110.905398 
z
" clip-path="url(#p647e2a9805)" style="stroke: #000000"/>
    <path d="M 68.575789 107.135556 
C 69.107229 107.135556 69.616973 106.924413 69.992757 106.548628 
C 70.368541 106.172844 70.579684 105.6631 70.579684 105.131661 
C 70.579684 104.600222 70.368541 104.090477 69.992757 103.714693 
C 69.616973 103.338909 69.107229 103.127766 68.575789 103.127766 
C 68.04435 103.127766 67.534606 103.338909 67.158822 103.714693 
C 66.783038 104.090477 66.571895 104.600222 66.571895 105.131661 
C 66.571895 105.6631 66.783038 106.172844 67.158822 106.548628 
C 67.534606 106.924413 68.04435 107.135556 68.575789 107.135556 
z
" clip-path="url(#p647e2a9805)" style="stroke: #000000"/>
    <path d="M 74.031601 131.031571 
C 74.373118 131.031571 74.700693 130.895885 74.942181 130.654397 
C 75.18367 130.412908 75.319356 130.085333 75.319356 129.743816 
C 75.319356 129.4023 75.18367 129.074725 74.942181 128.833236 
C 74.700693 128.591748 74.373118 128.456062 74.031601 128.456062 
C 73.690084 128.456062 73.36251 128.591748 73.121021 128.833236 
C 72.879532 129.074725 72.743846 129.4023 72.743846 129.743816 
C 72.743846 130.085333 72.879532 130.412908 73.121021 130.654397 
C 73.36251 130.895885 73.690084 131.031571 74.031601 131.031571 
z
" clip-path="url(#p647e2a9805)" style="stroke: #000000"/>
    <path d="M 71.476046 125.693059 
C 71.849626 125.693059 72.207955 125.544634 72.472116 125.280473 
C 72.736277 125.016312 72.884702 124.657983 72.884702 124.284402 
C 72.884702 123.910822 72.736277 123.552493 72.472116 123.288332 
C 72.207955 123.024171 71.849626 122.875746 71.476046 122.875746 
C 71.102466 122.875746 70.744136 123.024171 70.479975 123.288332 
C 70.215814 123.552493 70.067389 123.910822 70.067389 124.284402 
C 70.067389 124.657983 70.215814 125.016312 70.479975 125.280473 
C 70.744136 125.544634 71.102466 125.693059 71.476046 125.693059 
z
" clip-path="url(#p647e2a9805)" style="stroke: #000000"/>
    <path d="M 66.401929 111.986441 
C 66.75276 111.986441 67.089269 111.847055 67.337343 111.59898 
C 67.585418 111.350905 67.724805 111.014396 67.724805 110.663566 
C 67.724805 110.312735 67.585418 109.976226 67.337343 109.728151 
C 67.089269 109.480077 66.75276 109.34069 66.401929 109.34069 
C 66.051098 109.34069 65.714589 109.480077 65.466515 109.728151 
C 65.21844 109.976226 65.079053 110.312735 65.079053 110.663566 
C 65.079053 111.014396 65.21844 111.350905 65.466515 111.59898 
C 65.714589 111.847055 66.051098 111.986441 66.401929 111.986441 
z
" clip-path="url(#p647e2a9805)" style="stroke: #000000"/>
    <path d="M 64.90069 108.629046 
C 65.213578 108.629046 65.513693 108.504735 65.734938 108.283489 
C 65.956183 108.062244 66.080495 107.762129 66.080495 107.449241 
C 66.080495 107.136353 65.956183 106.836238 65.734938 106.614992 
C 65.513693 106.393747 65.213578 106.269435 64.90069 106.269435 
C 64.587802 106.269435 64.287686 106.393747 64.066441 106.614992 
C 63.845196 106.836238 63.720884 107.136353 63.720884 107.449241 
C 63.720884 107.762129 63.845196 108.062244 64.066441 108.283489 
C 64.287686 108.504735 64.587802 108.629046 64.90069 108.629046 
z
" clip-path="url(#p647e2a9805)" style="stroke: #000000"/>
    <path d="M 63.333423 104.344804 
C 63.850935 104.344804 64.347321 104.139194 64.713258 103.773258 
C 65.079194 103.407322 65.284804 102.910936 65.284804 102.393424 
C 65.284804 101.875911 65.079194 101.379525 64.713258 101.013589 
C 64.347321 100.647653 63.850935 100.442043 63.333423 100.442043 
C 62.815911 100.442043 62.319525 100.647653 61.953589 101.013589 
C 61.587652 101.379525 61.382042 101.875911 61.382042 102.393424 
C 61.382042 102.910936 61.587652 103.407322 61.953589 103.773258 
C 62.319525 104.139194 62.815911 104.344804 63.333423 104.344804 
z
" clip-path="url(#p647e2a9805)" style="stroke: #000000"/>
    <path d="M 62.330576 100.180545 
C 62.635603 100.180545 62.928178 100.059356 63.143865 99.84367 
C 63.359551 99.627983 63.48074 99.335408 63.48074 99.030381 
C 63.48074 98.725354 63.359551 98.43278 63.143865 98.217093 
C 62.928178 98.001406 62.635603 97.880218 62.330576 97.880218 
C 62.02555 97.880218 61.732975 98.001406 61.517288 98.217093 
C 61.301602 98.43278 61.180413 98.725354 61.180413 99.030381 
C 61.180413 99.335408 61.301602 99.627983 61.517288 99.84367 
C 61.732975 100.059356 62.02555 100.180545 62.330576 100.180545 
z
" clip-path="url(#p647e2a9805)" style="stroke: #000000"/>
    <path d="M 58.488419 85.741202 
C 58.775599 85.741202 59.051056 85.627105 59.254123 85.424038 
C 59.45719 85.220971 59.571287 84.945514 59.571287 84.658334 
C 59.571287 84.371154 59.45719 84.095697 59.254123 83.892631 
C 59.051056 83.689564 58.775599 83.575466 58.488419 83.575466 
C 58.201239 83.575466 57.925782 83.689564 57.722715 83.892631 
C 57.519648 84.095697 57.405551 84.371154 57.405551 84.658334 
C 57.405551 84.945514 57.519648 85.220971 57.722715 85.424038 
C 57.925782 85.627105 58.201239 85.741202 58.488419 85.741202 
z
" clip-path="url(#p647e2a9805)" style="stroke: #000000"/>
    <path d="M 69.539105 139.385126 
C 69.804308 139.385126 70.058684 139.27976 70.246211 139.092233 
C 70.433738 138.904706 70.539105 138.650329 70.539105 138.385126 
C 70.539105 138.119923 70.433738 137.865547 70.246211 137.67802 
C 70.058684 137.490493 69.804308 137.385126 69.539105 137.385126 
C 69.273902 137.385126 69.019525 137.490493 68.831998 137.67802 
C 68.644471 137.865547 68.539105 138.119923 68.539105 138.385126 
C 68.539105 138.650329 68.644471 138.904706 68.831998 139.092233 
C 69.019525 139.27976 69.273902 139.385126 69.539105 139.385126 
z
" clip-path="url(#p647e2a9805)" style="stroke: #000000"/>
    <path d="M 67.749584 131.96958 
C 67.991073 131.96958 68.222703 131.873636 68.393462 131.702878 
C 68.56422 131.532119 68.660164 131.300489 68.660164 131.059 
C 68.660164 130.817512 68.56422 130.585881 68.393462 130.415123 
C 68.222703 130.244365 67.991073 130.14842 67.749584 130.14842 
C 67.508096 130.14842 67.276465 130.244365 67.105707 130.415123 
C 66.934949 130.585881 66.839004 130.817512 66.839004 131.059 
C 66.839004 131.300489 66.934949 131.532119 67.105707 131.702878 
C 67.276465 131.873636 67.508096 131.96958 67.749584 131.96958 
z
" clip-path="url(#p647e2a9805)" style="stroke: #000000"/>
    <path d="M 67.515141 127.806102 
C 67.895922 127.806102 68.261159 127.654815 68.530412 127.385562 
C 68.799665 127.116309 68.950952 126.751072 68.950952 126.370291 
C 68.950952 125.989509 68.799665 125.624272 68.530412 125.355019 
C 68.261159 125.085766 67.895922 124.93448 67.515141 124.93448 
C 67.134359 124.93448 66.769122 125.085766 66.499869 125.355019 
C 66.230616 125.624272 66.07933 125.989509 66.07933 126.370291 
C 66.07933 126.751072 66.230616 127.116309 66.499869 127.385562 
C 66.769122 127.654815 67.134359 127.806102 67.515141 127.806102 
z
" clip-path="url(#p647e2a9805)" style="stroke: #000000"/>
    <path d="M 65.885139 123.288535 
C 66.100825 123.288535 66.307707 123.202842 66.46022 123.050328 
C 66.612734 122.897815 66.698427 122.690933 66.698427 122.475247 
C 66.698427 122.25956 66.612734 122.052678 66.46022 121.900165 
C 66.307707 121.747652 66.100825 121.661958 65.885139 121.661958 
C 65.669452 121.661958 65.46257 121.747652 65.310057 121.900165 
C 65.157543 122.052678 65.07185 122.25956 65.07185 122.475247 
C 65.07185 122.690933 65.157543 122.897815 65.310057 123.050328 
C 65.46257 123.202842 65.669452 123.288535 65.885139 123.288535 
z
" clip-path="url(#p647e2a9805)" style="stroke: #000000"/>
    <path d="M 61.000198 105.711522 
C 61.517151 105.711522 62.013002 105.506134 62.378543 105.140592 
C 62.744084 104.775051 62.949472 104.279201 62.949472 103.762247 
C 62.949472 103.245294 62.744084 102.749443 62.378543 102.383902 
C 62.013002 102.018361 61.517151 101.812973 61.000198 101.812973 
C 60.483244 101.812973 59.987394 102.018361 59.621853 102.383902 
C 59.256311 102.749443 59.050923 103.245294 59.050923 103.762247 
C 59.050923 104.279201 59.256311 104.775051 59.621853 105.140592 
C 59.987394 105.506134 60.483244 105.711522 61.000198 105.711522 
z
" clip-path="url(#p647e2a9805)" style="stroke: #000000"/>
    <path d="M 55.150225 96.464498 
C 55.307916 96.464498 55.459169 96.401847 55.570673 96.290343 
C 55.682178 96.178839 55.744829 96.027586 55.744829 95.869895 
C 55.744829 95.712204 55.682178 95.560951 55.570673 95.449447 
C 55.459169 95.337942 55.307916 95.275291 55.150225 95.275291 
C 54.992534 95.275291 54.841281 95.337942 54.729777 95.449447 
C 54.618273 95.560951 54.555622 95.712204 54.555622 95.869895 
C 54.555622 96.027586 54.618273 96.178839 54.729777 96.290343 
C 54.841281 96.401847 54.992534 96.464498 55.150225 96.464498 
z
" clip-path="url(#p647e2a9805)" style="stroke: #000000"/>
    <path d="M 69.081747 150.183286 
C 69.214349 150.183286 69.341537 150.130603 69.435301 150.036839 
C 69.529064 149.943076 69.581747 149.815888 69.581747 149.683286 
C 69.581747 149.550684 69.529064 149.423496 69.435301 149.329733 
C 69.341537 149.235969 69.214349 149.183286 69.081747 149.183286 
C 68.949146 149.183286 68.821957 149.235969 68.728194 149.329733 
C 68.63443 149.423496 68.581747 149.550684 68.581747 149.683286 
C 68.581747 149.815888 68.63443 149.943076 68.728194 150.036839 
C 68.821957 150.130603 68.949146 150.183286 69.081747 150.183286 
z
" clip-path="url(#p647e2a9805)" style="stroke: #000000"/>
    <path d="M 61.311199 132.868032 
C 61.443801 132.868032 61.570989 132.815349 61.664753 132.721586 
C 61.758516 132.627822 61.811199 132.500634 61.811199 132.368032 
C 61.811199 132.235431 61.758516 132.108242 61.664753 132.014479 
C 61.570989 131.920715 61.443801 131.868032 61.311199 131.868032 
C 61.178598 131.868032 61.051409 131.920715 60.957646 132.014479 
C 60.863883 132.108242 60.811199 132.235431 60.811199 132.368032 
C 60.811199 132.500634 60.863883 132.627822 60.957646 132.721586 
C 61.051409 132.815349 61.178598 132.868032 61.311199 132.868032 
z
" clip-path="url(#p647e2a9805)" style="stroke: #000000"/>
    <path d="M 62.60315 130.961211 
C 63.138157 130.961211 63.651325 130.74865 64.029632 130.370342 
C 64.40794 129.992035 64.620501 129.478868 64.620501 128.94386 
C 64.620501 128.408852 64.40794 127.895685 64.029632 127.517377 
C 63.651325 127.13907 63.138157 126.926509 62.60315 126.926509 
C 62.068142 126.926509 61.554975 127.13907 61.176667 127.517377 
C 60.798359 127.895685 60.585799 128.408852 60.585799 128.94386 
C 60.585799 129.478868 60.798359 129.992035 61.176667 130.370342 
C 61.554975 130.74865 62.068142 130.961211 62.60315 130.961211 
z
" clip-path="url(#p647e2a9805)" style="stroke: #000000"/>
    <path d="M 59.564859 125.060531 
C 60.140033 125.060531 60.691727 124.832012 61.098436 124.425303 
C 61.505146 124.018593 61.733665 123.466899 61.733665 122.891725 
C 61.733665 122.316551 61.505146 121.764857 61.098436 121.358147 
C 60.691727 120.951437 60.140033 120.722918 59.564859 120.722918 
C 58.989684 120.722918 58.43799 120.951437 58.031281 121.358147 
C 57.624571 121.764857 57.396052 122.316551 57.396052 122.891725 
C 57.396052 123.466899 57.624571 124.018593 58.031281 124.425303 
C 58.43799 124.832012 58.989684 125.060531 59.564859 125.060531 
z
" clip-path="url(#p647e2a9805)" style="stroke: #000000"/>
    <path d="M 58.528714 120.291879 
C 58.886495 120.291879 59.229671 120.149731 59.48266 119.896741 
C 59.73565 119.643751 59.877798 119.300576 59.877798 118.942795 
C 59.877798 118.585013 59.73565 118.241838 59.48266 117.988848 
C 59.229671 117.735859 58.886495 117.593711 58.528714 117.593711 
C 58.170933 117.593711 57.827757 117.735859 57.574767 117.988848 
C 57.321778 118.241838 57.17963 118.585013 57.17963 118.942795 
C 57.17963 119.300576 57.321778 119.643751 57.574767 119.896741 
C 57.827757 120.149731 58.170933 120.291879 58.528714 120.291879 
z
" clip-path="url(#p647e2a9805)" style="stroke: #000000"/>
    <path d="M 56.703457 115.556132 
C 56.87797 115.556132 57.04536 115.486797 57.168759 115.363397 
C 57.292159 115.239998 57.361494 115.072608 57.361494 114.898095 
C 57.361494 114.723581 57.292159 114.556192 57.168759 114.432792 
C 57.04536 114.309393 56.87797 114.240058 56.703457 114.240058 
C 56.528943 114.240058 56.361554 114.309393 56.238154 114.432792 
C 56.114755 114.556192 56.04542 114.723581 56.04542 114.898095 
C 56.04542 115.072608 56.114755 115.239998 56.238154 115.363397 
C 56.361554 115.486797 56.528943 115.556132 56.703457 115.556132 
z
" clip-path="url(#p647e2a9805)" style="stroke: #000000"/>
    <path d="M 52.92418 107.457298 
C 53.407158 107.457298 53.870419 107.265409 54.211935 106.923893 
C 54.553452 106.582376 54.745341 106.119115 54.745341 105.636138 
C 54.745341 105.153161 54.553452 104.6899 54.211935 104.348383 
C 53.870419 104.006867 53.407158 103.814978 52.92418 103.814978 
C 52.441203 103.814978 51.977942 104.006867 51.636426 104.348383 
C 51.294909 104.6899 51.10302 105.153161 51.10302 105.636138 
C 51.10302 106.119115 51.294909 106.582376 51.636426 106.923893 
C 51.977942 107.265409 52.441203 107.457298 52.92418 107.457298 
z
" clip-path="url(#p647e2a9805)" style="stroke: #000000"/>
    <path d="M 48.511552 87.378099 
C 48.669243 87.378099 48.820496 87.315448 48.932 87.203944 
C 49.043504 87.09244 49.106156 86.941186 49.106156 86.783496 
C 49.106156 86.625805 49.043504 86.474552 48.932 86.363047 
C 48.820496 86.251543 48.669243 86.188892 48.511552 86.188892 
C 48.353861 86.188892 48.202608 86.251543 48.091104 86.363047 
C 47.9796 86.474552 47.916948 86.625805 47.916948 86.783496 
C 47.916948 86.941186 47.9796 87.09244 48.091104 87.203944 
C 48.202608 87.315448 48.353861 87.378099 48.511552 87.378099 
z
" clip-path="url(#p647e2a9805)" style="stroke: #000000"/>
    <path d="M 45.361816 82.141824 
C 45.519507 82.141824 45.67076 82.079172 45.782264 81.967668 
C 45.893769 81.856164 45.95642 81.704911 45.95642 81.54722 
C 45.95642 81.389529 45.893769 81.238276 45.782264 81.126772 
C 45.67076 81.015268 45.519507 80.952617 45.361816 80.952617 
C 45.204126 80.952617 45.052872 81.015268 44.941368 81.126772 
C 44.829864 81.238276 44.767213 81.389529 44.767213 81.54722 
C 44.767213 81.704911 44.829864 81.856164 44.941368 81.967668 
C 45.052872 82.079172 45.204126 82.141824 45.361816 82.141824 
z
" clip-path="url(#p647e2a9805)" style="stroke: #000000"/>
    <path d="M 58.547719 136.029465 
C 58.958392 136.029465 59.352299 135.866303 59.642689 135.575914 
C 59.933078 135.285524 60.09624 134.891617 60.09624 134.480944 
C 60.09624 134.070272 59.933078 133.676364 59.642689 133.385975 
C 59.352299 133.095586 58.958392 132.932424 58.547719 132.932424 
C 58.137047 132.932424 57.743139 133.095586 57.45275 133.385975 
C 57.162361 133.676364 56.999199 134.070272 56.999199 134.480944 
C 56.999199 134.891617 57.162361 135.285524 57.45275 135.575914 
C 57.743139 135.866303 58.137047 136.029465 58.547719 136.029465 
z
" clip-path="url(#p647e2a9805)" style="stroke: #000000"/>
    <path d="M 56.274566 120.369802 
C 56.504239 120.369802 56.724535 120.278552 56.886938 120.116149 
C 57.049342 119.953746 57.140591 119.733449 57.140591 119.503776 
C 57.140591 119.274104 57.049342 119.053807 56.886938 118.891404 
C 56.724535 118.729001 56.504239 118.637751 56.274566 118.637751 
C 56.044893 118.637751 55.824597 118.729001 55.662194 118.891404 
C 55.499791 119.053807 55.408541 119.274104 55.408541 119.503776 
C 55.408541 119.733449 55.499791 119.953746 55.662194 120.116149 
C 55.824597 120.278552 56.044893 120.369802 56.274566 120.369802 
z
" clip-path="url(#p647e2a9805)" style="stroke: #000000"/>
    <path d="M 50.988768 110.297056 
C 51.326336 110.297056 51.650123 110.162939 51.888819 109.924242 
C 52.127516 109.685546 52.261633 109.361759 52.261633 109.024191 
C 52.261633 108.686623 52.127516 108.362836 51.888819 108.12414 
C 51.650123 107.885443 51.326336 107.751326 50.988768 107.751326 
C 50.6512 107.751326 50.327413 107.885443 50.088717 108.12414 
C 49.85002 108.362836 49.715903 108.686623 49.715903 109.024191 
C 49.715903 109.361759 49.85002 109.685546 50.088717 109.924242 
C 50.327413 110.162939 50.6512 110.297056 50.988768 110.297056 
z
" clip-path="url(#p647e2a9805)" style="stroke: #000000"/>
    <path d="M 47.507663 102.883109 
C 47.682176 102.883109 47.849565 102.813774 47.972965 102.690374 
C 48.096365 102.566975 48.1657 102.399585 48.1657 102.225072 
C 48.1657 102.050559 48.096365 101.883169 47.972965 101.75977 
C 47.849565 101.63637 47.682176 101.567035 47.507663 101.567035 
C 47.333149 101.567035 47.16576 101.63637 47.04236 101.75977 
C 46.91896 101.883169 46.849626 102.050559 46.849626 102.225072 
C 46.849626 102.399585 46.91896 102.566975 47.04236 102.690374 
C 47.16576 102.813774 47.333149 102.883109 47.507663 102.883109 
z
" clip-path="url(#p647e2a9805)" style="stroke: #000000"/>
    <path d="M 54.369587 130.67276 
C 54.592595 130.67276 54.806499 130.584158 54.96419 130.426468 
C 55.121881 130.268777 55.210483 130.054872 55.210483 129.831864 
C 55.210483 129.608856 55.121881 129.394951 54.96419 129.237261 
C 54.806499 129.07957 54.592595 128.990968 54.369587 128.990968 
C 54.146578 128.990968 53.932674 129.07957 53.774983 129.237261 
C 53.617292 129.394951 53.52869 129.608856 53.52869 129.831864 
C 53.52869 130.054872 53.617292 130.268777 53.774983 130.426468 
C 53.932674 130.584158 54.146578 130.67276 54.369587 130.67276 
z
" clip-path="url(#p647e2a9805)" style="stroke: #000000"/>
    <path d="M 43.970657 100.227298 
C 44.103258 100.227298 44.230447 100.174615 44.32421 100.080852 
C 44.417974 99.987088 44.470657 99.8599 44.470657 99.727298 
C 44.470657 99.594697 44.417974 99.467508 44.32421 99.373745 
C 44.230447 99.279981 44.103258 99.227298 43.970657 99.227298 
C 43.838055 99.227298 43.710867 99.279981 43.617103 99.373745 
C 43.52334 99.467508 43.470657 99.594697 43.470657 99.727298 
C 43.470657 99.8599 43.52334 99.987088 43.617103 100.080852 
C 43.710867 100.174615 43.838055 100.227298 43.970657 100.227298 
z
" clip-path="url(#p647e2a9805)" style="stroke: #000000"/>
    <path d="M 50.803565 142.210185 
C 50.961256 142.210185 51.112509 142.147534 51.224014 142.03603 
C 51.335518 141.924526 51.398169 141.773273 51.398169 141.615582 
C 51.398169 141.457891 51.335518 141.306638 51.224014 141.195134 
C 51.112509 141.083629 50.961256 141.020978 50.803565 141.020978 
C 50.645875 141.020978 50.494621 141.083629 50.383117 141.195134 
C 50.271613 141.306638 50.208962 141.457891 50.208962 141.615582 
C 50.208962 141.773273 50.271613 141.924526 50.383117 142.03603 
C 50.494621 142.147534 50.645875 142.210185 50.803565 142.210185 
z
" clip-path="url(#p647e2a9805)" style="stroke: #000000"/>
    <path d="M 48.56195 135.272503 
C 48.736463 135.272503 48.903853 135.203168 49.027252 135.079769 
C 49.150652 134.956369 49.219987 134.78898 49.219987 134.614466 
C 49.219987 134.439953 49.150652 134.272564 49.027252 134.149164 
C 48.903853 134.025764 48.736463 133.956429 48.56195 133.956429 
C 48.387436 133.956429 48.220047 134.025764 48.096647 134.149164 
C 47.973248 134.272564 47.903913 134.439953 47.903913 134.614466 
C 47.903913 134.78898 47.973248 134.956369 48.096647 135.079769 
C 48.220047 135.203168 48.387436 135.272503 48.56195 135.272503 
z
" clip-path="url(#p647e2a9805)" style="stroke: #000000"/>
    <path d="M 48.47409 133.098063 
C 48.648604 133.098063 48.815993 133.028728 48.939393 132.905328 
C 49.062792 132.781929 49.132127 132.614539 49.132127 132.440026 
C 49.132127 132.265512 49.062792 132.098123 48.939393 131.974723 
C 48.815993 131.851324 48.648604 131.781989 48.47409 131.781989 
C 48.299577 131.781989 48.132187 131.851324 48.008788 131.974723 
C 47.885388 132.098123 47.816053 132.265512 47.816053 132.440026 
C 47.816053 132.614539 47.885388 132.781929 48.008788 132.905328 
C 48.132187 133.028728 48.299577 133.098063 48.47409 133.098063 
z
" clip-path="url(#p647e2a9805)" style="stroke: #000000"/>
    <path d="M 44.195878 119.702843 
C 44.353568 119.702843 44.504822 119.640191 44.616326 119.528687 
C 44.72783 119.417183 44.790481 119.26593 44.790481 119.108239 
C 44.790481 118.950548 44.72783 118.799295 44.616326 118.687791 
C 44.504822 118.576287 44.353568 118.513635 44.195878 118.513635 
C 44.038187 118.513635 43.886934 118.576287 43.77543 118.687791 
C 43.663925 118.799295 43.601274 118.950548 43.601274 119.108239 
C 43.601274 119.26593 43.663925 119.417183 43.77543 119.528687 
C 43.886934 119.640191 44.038187 119.702843 44.195878 119.702843 
z
" clip-path="url(#p647e2a9805)" style="stroke: #000000"/>
    <path d="M 31.627842 80.428384 
C 31.760443 80.428384 31.887632 80.375701 31.981395 80.281937 
C 32.075158 80.188174 32.127842 80.060986 32.127842 79.928384 
C 32.127842 79.795782 32.075158 79.668594 31.981395 79.574831 
C 31.887632 79.481067 31.760443 79.428384 31.627842 79.428384 
C 31.49524 79.428384 31.368052 79.481067 31.274288 79.574831 
C 31.180525 79.668594 31.127842 79.795782 31.127842 79.928384 
C 31.127842 80.060986 31.180525 80.188174 31.274288 80.281937 
C 31.368052 80.375701 31.49524 80.428384 31.627842 80.428384 
z
" clip-path="url(#p647e2a9805)" style="stroke: #000000"/>
    <path d="M 45.376035 138.398366 
C 45.508637 138.398366 45.635825 138.345682 45.729589 138.251919 
C 45.823352 138.158155 45.876035 138.030967 45.876035 137.898366 
C 45.876035 137.765764 45.823352 137.638576 45.729589 137.544812 
C 45.635825 137.451049 45.508637 137.398366 45.376035 137.398366 
C 45.243434 137.398366 45.116245 137.451049 45.022482 137.544812 
C 44.928719 137.638576 44.876035 137.765764 44.876035 137.898366 
C 44.876035 138.030967 44.928719 138.158155 45.022482 138.251919 
C 45.116245 138.345682 45.243434 138.398366 45.376035 138.398366 
z
" clip-path="url(#p647e2a9805)" style="stroke: #000000"/>
    <path d="M 35.372013 145.241741 
C 35.504615 145.241741 35.631803 145.189058 35.725566 145.095294 
C 35.81933 145.001531 35.872013 144.874343 35.872013 144.741741 
C 35.872013 144.60914 35.81933 144.481951 35.725566 144.388188 
C 35.631803 144.294424 35.504615 144.241741 35.372013 144.241741 
C 35.239412 144.241741 35.112223 144.294424 35.01846 144.388188 
C 34.924696 144.481951 34.872013 144.60914 34.872013 144.741741 
C 34.872013 144.874343 34.924696 145.001531 35.01846 145.095294 
C 35.112223 145.189058 35.239412 145.241741 35.372013 145.241741 
z
" clip-path="url(#p647e2a9805)" style="stroke: #000000"/>
   </g>
   <g id="matplotlib.axis_1">
    <g id="xtick_1">
     <g id="line2d_1">
      <defs>
       <path id="m3bbefe4471" d="M 0 0 
L 0 3.5 
" style="stroke: #000000; stroke-width: 0.8"/>
      </defs>
      <g>
       <use xlink:href="#m3bbefe4471" x="18" y="189" style="stroke: #000000; stroke-width: 0.8"/>
      </g>
     </g>
     <g id="text_1">
      <!-- 10 -->
      <g transform="translate(7.447656 203.598437)scale(0.1 -0.1)">
       <defs>
        <path id="DejaVuSans-2212" d="M 678 2272 
L 4684 2272 
L 4684 1741 
L 678 1741 
L 678 2272 
z
" transform="scale(0.015625)"/>
        <path id="DejaVuSans-31" d="M 794 531 
L 1825 531 
L 1825 4091 
L 703 3866 
L 703 4441 
L 1819 4666 
L 2450 4666 
L 2450 531 
L 3481 531 
L 3481 0 
L 794 0 
L 794 531 
z
" transform="scale(0.015625)"/>
        <path id="DejaVuSans-30" d="M 2034 4250 
Q 1547 4250 1301 3770 
Q 1056 3291 1056 2328 
Q 1056 1369 1301 889 
Q 1547 409 2034 409 
Q 2525 409 2770 889 
Q 3016 1369 3016 2328 
Q 3016 3291 2770 3770 
Q 2525 4250 2034 4250 
z
M 2034 4750 
Q 2819 4750 3233 4129 
Q 3647 3509 3647 2328 
Q 3647 1150 3233 529 
Q 2819 -91 2034 -91 
Q 1250 -91 836 529 
Q 422 1150 422 2328 
Q 422 3509 836 4129 
Q 1250 4750 2034 4750 
z
" transform="scale(0.015625)"/>
       </defs>
       <use xlink:href="#DejaVuSans-2212"/>
       <use xlink:href="#DejaVuSans-31" x="83.789062"/>
       <use xlink:href="#DejaVuSans-30" x="147.412109"/>
      </g>
     </g>
    </g>
    <g id="xtick_2">
     <g id="line2d_2">
      <g>
       <use xlink:href="#m3bbefe4471" x="73.8" y="189" style="stroke: #000000; stroke-width: 0.8"/>
      </g>
     </g>
     <g id="text_2">
      <!-- 0 -->
      <g transform="translate(70.61875 203.598437)scale(0.1 -0.1)">
       <use xlink:href="#DejaVuSans-30"/>
      </g>
     </g>
    </g>
    <g id="xtick_3">
     <g id="line2d_3">
      <g>
       <use xlink:href="#m3bbefe4471" x="129.6" y="189" style="stroke: #000000; stroke-width: 0.8"/>
      </g>
     </g>
     <g id="text_3">
      <!-- 10 -->
      <g transform="translate(123.2375 203.598437)scale(0.1 -0.1)">
       <use xlink:href="#DejaVuSans-31"/>
       <use xlink:href="#DejaVuSans-30" x="63.623047"/>
      </g>
     </g>
    </g>
   </g>
   <g id="matplotlib.axis_2">
    <g id="ytick_1">
     <g id="line2d_4">
      <defs>
       <path id="mc1b407eaec" d="M 0 0 
L -3.5 0 
" style="stroke: #000000; stroke-width: 0.8"/>
      </defs>
      <g>
       <use xlink:href="#mc1b407eaec" x="18" y="189" style="stroke: #000000; stroke-width: 0.8"/>
      </g>
     </g>
     <g id="text_4">
      <!-- 15 -->
      <g transform="translate(-10.104688 192.799219)scale(0.1 -0.1)">
       <defs>
        <path id="DejaVuSans-35" d="M 691 4666 
L 3169 4666 
L 3169 4134 
L 1269 4134 
L 1269 2991 
Q 1406 3038 1543 3061 
Q 1681 3084 1819 3084 
Q 2600 3084 3056 2656 
Q 3513 2228 3513 1497 
Q 3513 744 3044 326 
Q 2575 -91 1722 -91 
Q 1428 -91 1123 -41 
Q 819 9 494 109 
L 494 744 
Q 775 591 1075 516 
Q 1375 441 1709 441 
Q 2250 441 2565 725 
Q 2881 1009 2881 1497 
Q 2881 1984 2565 2268 
Q 2250 2553 1709 2553 
Q 1456 2553 1204 2497 
Q 953 2441 691 2322 
L 691 4666 
z
" transform="scale(0.015625)"/>
       </defs>
       <use xlink:href="#DejaVuSans-2212"/>
       <use xlink:href="#DejaVuSans-31" x="83.789062"/>
       <use xlink:href="#DejaVuSans-35" x="147.412109"/>
      </g>
     </g>
    </g>
    <g id="ytick_2">
     <g id="line2d_5">
      <g>
       <use xlink:href="#mc1b407eaec" x="18" y="161.82" style="stroke: #000000; stroke-width: 0.8"/>
      </g>
     </g>
     <g id="text_5">
      <!-- 10 -->
      <g transform="translate(-10.104688 165.619219)scale(0.1 -0.1)">
       <use xlink:href="#DejaVuSans-2212"/>
       <use xlink:href="#DejaVuSans-31" x="83.789062"/>
       <use xlink:href="#DejaVuSans-30" x="147.412109"/>
      </g>
     </g>
    </g>
    <g id="ytick_3">
     <g id="line2d_6">
      <g>
       <use xlink:href="#mc1b407eaec" x="18" y="134.64" style="stroke: #000000; stroke-width: 0.8"/>
      </g>
     </g>
     <g id="text_6">
      <!-- 5 -->
      <g transform="translate(-3.742188 138.439219)scale(0.1 -0.1)">
       <use xlink:href="#DejaVuSans-2212"/>
       <use xlink:href="#DejaVuSans-35" x="83.789062"/>
      </g>
     </g>
    </g>
    <g id="ytick_4">
     <g id="line2d_7">
      <g>
       <use xlink:href="#mc1b407eaec" x="18" y="107.46" style="stroke: #000000; stroke-width: 0.8"/>
      </g>
     </g>
     <g id="text_7">
      <!-- 0 -->
      <g transform="translate(4.6375 111.259219)scale(0.1 -0.1)">
       <use xlink:href="#DejaVuSans-30"/>
      </g>
     </g>
    </g>
    <g id="ytick_5">
     <g id="line2d_8">
      <g>
       <use xlink:href="#mc1b407eaec" x="18" y="80.28" style="stroke: #000000; stroke-width: 0.8"/>
      </g>
     </g>
     <g id="text_8">
      <!-- 5 -->
      <g transform="translate(4.6375 84.079219)scale(0.1 -0.1)">
       <use xlink:href="#DejaVuSans-35"/>
      </g>
     </g>
    </g>
    <g id="ytick_6">
     <g id="line2d_9">
      <g>
       <use xlink:href="#mc1b407eaec" x="18" y="53.1" style="stroke: #000000; stroke-width: 0.8"/>
      </g>
     </g>
     <g id="text_9">
      <!-- 10 -->
      <g transform="translate(-1.725 56.899219)scale(0.1 -0.1)">
       <use xlink:href="#DejaVuSans-31"/>
       <use xlink:href="#DejaVuSans-30" x="63.623047"/>
      </g>
     </g>
    </g>
    <g id="ytick_7">
     <g id="line2d_10">
      <g>
       <use xlink:href="#mc1b407eaec" x="18" y="25.92" style="stroke: #000000; stroke-width: 0.8"/>
      </g>
     </g>
     <g id="text_10">
      <!-- 15 -->
      <g transform="translate(-1.725 29.719219)scale(0.1 -0.1)">
       <use xlink:href="#DejaVuSans-31"/>
       <use xlink:href="#DejaVuSans-35" x="63.623047"/>
      </g>
     </g>
    </g>
   </g>
   <g id="patch_3">
    <path d="M 18 189 
L 18 25.92 
" style="fill: none; stroke: #000000; stroke-width: 0.8; stroke-linejoin: miter; stroke-linecap: square"/>
   </g>
   <g id="patch_4">
    <path d="M 129.6 189 
L 129.6 25.92 
" style="fill: none; stroke: #000000; stroke-width: 0.8; stroke-linejoin: miter; stroke-linecap: square"/>
   </g>
   <g id="patch_5">
    <path d="M 18 189 
L 129.6 189 
" style="fill: none; stroke: #000000; stroke-width: 0.8; stroke-linejoin: miter; stroke-linecap: square"/>
   </g>
   <g id="patch_6">
    <path d="M 18 25.92 
L 129.6 25.92 
" style="fill: none; stroke: #000000; stroke-width: 0.8; stroke-linejoin: miter; stroke-linecap: square"/>
   </g>
  </g>
 </g>
 <defs>
  <clipPath id="p647e2a9805">
   <rect x="18" y="25.92" width="111.6" height="163.08"/>
  </clipPath>
 </defs>
</svg>
