<?xml version="1.0" encoding="utf-8" standalone="no"?>
<!DOCTYPE svg PUBLIC "-//W3C//DTD SVG 1.1//EN"
  "http://www.w3.org/Graphics/SVG/1.1/DTD/svg11.dtd">
<svg xmlns:xlink="http://www.w3.org/1999/xlink" width="144pt" height="216pt" viewBox="0 0 144 216" xmlns="http://www.w3.org/2000/svg" version="1.1">
 <metadata>
  <rdf:RDF xmlns:dc="http://purl.org/dc/elements/1.1/" xmlns:cc="http://creativecommons.org/ns#" xmlns:rdf="http://www.w3.org/1999/02/22-rdf-syntax-ns#">
   <cc:Work>
    <dc:type rdf:resource="http://purl.org/dc/dcmitype/StillImage"/>
    <dc:date>2022-06-23T14:48:04.379799</dc:date>
    <dc:format>image/svg+xml</dc:format>
    <dc:creator>
     <cc:Agent>
      <dc:title>Matplotlib v3.5.1, https://matplotlib.org/</dc:title>
     </cc:Agent>
    </dc:creator>
   </cc:Work>
  </rdf:RDF>
 </metadata>
 <defs>
  <style type="text/css">*{stroke-linejoin: round; stroke-linecap: butt}</style>
 </defs>
 <g id="figure_1">
  <g id="patch_1">
   <path d="M 0 216 
L 144 216 
L 144 0 
L 0 0 
L 0 216 
z
" style="fill: none"/>
  </g>
  <g id="axes_1">
   <g id="patch_2">
    <path d="M 18 189 
L 129.6 189 
L 129.6 25.92 
L 18 25.92 
z
" style="fill: #ffffff"/>
   </g>
   <g id="PathCollection_1">
    <defs>
     <path id="m5fd12607a1" d="M 0 2.738613 
C 0.726289 2.738613 1.422928 2.450055 1.936492 1.936492 
C 2.450055 1.422928 2.738613 0.726289 2.738613 0 
C 2.738613 -0.726289 2.450055 -1.422928 1.936492 -1.936492 
C 1.422928 -2.450055 0.726289 -2.738613 0 -2.738613 
C -0.726289 -2.738613 -1.422928 -2.450055 -1.936492 -1.936492 
C -2.450055 -1.422928 -2.738613 -0.726289 -2.738613 0 
C -2.738613 0.726289 -2.450055 1.422928 -1.936492 1.936492 
C -1.422928 2.450055 -0.726289 2.738613 0 2.738613 
z
" style="stroke: #ff0000; stroke-width: 1.75"/>
    </defs>
    <g clip-path="url(#p3b90e0ee12)">
     <use xlink:href="#m5fd12607a1" x="80.775" y="107.46" style="fill: #ff0000; stroke: #ff0000; stroke-width: 1.75"/>
     <use xlink:href="#m5fd12607a1" x="94.725" y="107.46" style="fill: #ff0000; stroke: #ff0000; stroke-width: 1.75"/>
     <use xlink:href="#m5fd12607a1" x="59.85" y="119.229285" style="fill: #ff0000; stroke: #ff0000; stroke-width: 1.75"/>
     <use xlink:href="#m5fd12607a1" x="73.8" y="119.229285" style="fill: #ff0000; stroke: #ff0000; stroke-width: 1.75"/>
     <use xlink:href="#m5fd12607a1" x="87.75" y="119.229285" style="fill: #ff0000; stroke: #ff0000; stroke-width: 1.75"/>
     <use xlink:href="#m5fd12607a1" x="66.825" y="130.99857" style="fill: #ff0000; stroke: #ff0000; stroke-width: 1.75"/>
     <use xlink:href="#m5fd12607a1" x="80.775" y="130.99857" style="fill: #ff0000; stroke: #ff0000; stroke-width: 1.75"/>
    </g>
   </g>
   <g id="PathCollection_2">
    <defs>
     <path id="C0_0_74ac4d2294" d="M 0 2.738613 
C 0.726289 2.738613 1.422928 2.450055 1.936492 1.936492 
C 2.450055 1.422928 2.738613 0.726289 2.738613 -0 
C 2.738613 -0.726289 2.450055 -1.422928 1.936492 -1.936492 
C 1.422928 -2.450055 0.726289 -2.738613 0 -2.738613 
C -0.726289 -2.738613 -1.422928 -2.450055 -1.936492 -1.936492 
C -2.450055 -1.422928 -2.738613 -0.726289 -2.738613 0 
C -2.738613 0.726289 -2.450055 1.422928 -1.936492 1.936492 
C -1.422928 2.450055 -0.726289 2.738613 0 2.738613 
z
"/>
    </defs>
    <g clip-path="url(#p3b90e0ee12)">
     <use xlink:href="#C0_0_74ac4d2294" x="66.825" y="83.92143" style="fill: none; stroke: #ff0000; stroke-width: 1.75"/>
    </g>
    <g clip-path="url(#p3b90e0ee12)">
     <use xlink:href="#C0_0_74ac4d2294" x="80.775" y="83.92143" style="fill: none; stroke: #ff0000; stroke-width: 1.75"/>
    </g>
    <g clip-path="url(#p3b90e0ee12)">
     <use xlink:href="#C0_0_74ac4d2294" x="59.85" y="95.690715" style="fill: none; stroke: #ff0000; stroke-width: 1.75"/>
    </g>
    <g clip-path="url(#p3b90e0ee12)">
     <use xlink:href="#C0_0_74ac4d2294" x="73.8" y="95.690715" style="fill: none; stroke: #ff0000; stroke-width: 1.75"/>
    </g>
    <g clip-path="url(#p3b90e0ee12)">
     <use xlink:href="#C0_0_74ac4d2294" x="87.75" y="95.690715" style="fill: none; stroke: #ff0000; stroke-width: 1.75"/>
    </g>
    <g clip-path="url(#p3b90e0ee12)">
     <use xlink:href="#C0_0_74ac4d2294" x="52.875" y="107.46" style="fill: none; stroke: #ff0000; stroke-width: 1.75"/>
    </g>
    <g clip-path="url(#p3b90e0ee12)">
     <use xlink:href="#C0_0_74ac4d2294" x="66.825" y="107.46" style="fill: none; stroke: #ff0000; stroke-width: 1.75"/>
    </g>
   </g>
   <g id="PathCollection_3">
    <path d="M 112.044794 87.031965 
C 112.177395 87.031965 112.304584 86.979282 112.398347 86.885519 
C 112.492111 86.791755 112.544794 86.664567 112.544794 86.531965 
C 112.544794 86.399364 112.492111 86.272175 112.398347 86.178412 
C 112.304584 86.084648 112.177395 86.031965 112.044794 86.031965 
C 111.912192 86.031965 111.785004 86.084648 111.691241 86.178412 
C 111.597477 86.272175 111.544794 86.399364 111.544794 86.531965 
C 111.544794 86.664567 111.597477 86.791755 111.691241 86.885519 
C 111.785004 86.979282 111.912192 87.031965 112.044794 87.031965 
z
" clip-path="url(#p3b90e0ee12)" style="stroke: #000000"/>
    <path d="M 107.15869 114.89709 
C 107.316381 114.89709 107.467634 114.834439 107.579139 114.722935 
C 107.690643 114.611431 107.753294 114.460177 107.753294 114.302487 
C 107.753294 114.144796 107.690643 113.993543 107.579139 113.882039 
C 107.467634 113.770534 107.316381 113.707883 107.15869 113.707883 
C 107.001 113.707883 106.849746 113.770534 106.738242 113.882039 
C 106.626738 113.993543 106.564087 114.144796 106.564087 114.302487 
C 106.564087 114.460177 106.626738 114.611431 106.738242 114.722935 
C 106.849746 114.834439 107.001 114.89709 107.15869 114.89709 
z
" clip-path="url(#p3b90e0ee12)" style="stroke: #000000"/>
    <path d="M 106.4127 130.859565 
C 106.545302 130.859565 106.67249 130.806881 106.766253 130.713118 
C 106.860017 130.619355 106.9127 130.492166 106.9127 130.359565 
C 106.9127 130.226963 106.860017 130.099775 106.766253 130.006011 
C 106.67249 129.912248 106.545302 129.859565 106.4127 129.859565 
C 106.280099 129.859565 106.15291 129.912248 106.059147 130.006011 
C 105.965383 130.099775 105.9127 130.226963 105.9127 130.359565 
C 105.9127 130.492166 105.965383 130.619355 106.059147 130.713118 
C 106.15291 130.806881 106.280099 130.859565 106.4127 130.859565 
z
" clip-path="url(#p3b90e0ee12)" style="stroke: #000000"/>
    <path d="M 105.931043 123.107289 
C 106.063645 123.107289 106.190833 123.054606 106.284596 122.960842 
C 106.37836 122.867079 106.431043 122.73989 106.431043 122.607289 
C 106.431043 122.474687 106.37836 122.347499 106.284596 122.253735 
C 106.190833 122.159972 106.063645 122.107289 105.931043 122.107289 
C 105.798441 122.107289 105.671253 122.159972 105.57749 122.253735 
C 105.483726 122.347499 105.431043 122.474687 105.431043 122.607289 
C 105.431043 122.73989 105.483726 122.867079 105.57749 122.960842 
C 105.671253 123.054606 105.798441 123.107289 105.931043 123.107289 
z
" clip-path="url(#p3b90e0ee12)" style="stroke: #000000"/>
    <path d="M 102.079089 116.454413 
C 102.426284 116.454413 102.759305 116.316471 103.004809 116.070967 
C 103.250313 115.825463 103.388254 115.492442 103.388254 115.145248 
C 103.388254 114.798053 103.250313 114.465032 103.004809 114.219528 
C 102.759305 113.974024 102.426284 113.836082 102.079089 113.836082 
C 101.731895 113.836082 101.398873 113.974024 101.15337 114.219528 
C 100.907866 114.465032 100.769924 114.798053 100.769924 115.145248 
C 100.769924 115.492442 100.907866 115.825463 101.15337 116.070967 
C 101.398873 116.316471 101.731895 116.454413 102.079089 116.454413 
z
" clip-path="url(#p3b90e0ee12)" style="stroke: #000000"/>
    <path d="M 100.468772 110.730045 
C 100.626463 110.730045 100.777716 110.667394 100.88922 110.55589 
C 101.000725 110.444385 101.063376 110.293132 101.063376 110.135441 
C 101.063376 109.977751 101.000725 109.826497 100.88922 109.714993 
C 100.777716 109.603489 100.626463 109.540838 100.468772 109.540838 
C 100.311081 109.540838 100.159828 109.603489 100.048324 109.714993 
C 99.93682 109.826497 99.874169 109.977751 99.874169 110.135441 
C 99.874169 110.293132 99.93682 110.444385 100.048324 110.55589 
C 100.159828 110.667394 100.311081 110.730045 100.468772 110.730045 
z
" clip-path="url(#p3b90e0ee12)" style="stroke: #000000"/>
    <path d="M 97.04953 101.613762 
C 97.237057 101.613762 97.416929 101.539257 97.54953 101.406655 
C 97.682132 101.274054 97.756637 101.094182 97.756637 100.906655 
C 97.756637 100.719128 97.682132 100.539257 97.54953 100.406655 
C 97.416929 100.274054 97.237057 100.199548 97.04953 100.199548 
C 96.862003 100.199548 96.682132 100.274054 96.54953 100.406655 
C 96.416929 100.539257 96.342423 100.719128 96.342423 100.906655 
C 96.342423 101.094182 96.416929 101.274054 96.54953 101.406655 
C 96.682132 101.539257 96.862003 101.613762 97.04953 101.613762 
z
" clip-path="url(#p3b90e0ee12)" style="stroke: #000000"/>
    <path d="M 103.643714 130.658296 
C 103.801405 130.658296 103.952658 130.595645 104.064162 130.484141 
C 104.175666 130.372637 104.238317 130.221383 104.238317 130.063693 
C 104.238317 129.906002 104.175666 129.754749 104.064162 129.643244 
C 103.952658 129.53174 103.801405 129.469089 103.643714 129.469089 
C 103.486023 129.469089 103.33477 129.53174 103.223266 129.643244 
C 103.111761 129.754749 103.04911 129.906002 103.04911 130.063693 
C 103.04911 130.221383 103.111761 130.372637 103.223266 130.484141 
C 103.33477 130.595645 103.486023 130.658296 103.643714 130.658296 
z
" clip-path="url(#p3b90e0ee12)" style="stroke: #000000"/>
    <path d="M 101.202681 124.43626 
C 101.335282 124.43626 101.462471 124.383576 101.556234 124.289813 
C 101.649998 124.196049 101.702681 124.068861 101.702681 123.93626 
C 101.702681 123.803658 101.649998 123.67647 101.556234 123.582706 
C 101.462471 123.488943 101.335282 123.43626 101.202681 123.43626 
C 101.070079 123.43626 100.942891 123.488943 100.849127 123.582706 
C 100.755364 123.67647 100.702681 123.803658 100.702681 123.93626 
C 100.702681 124.068861 100.755364 124.196049 100.849127 124.289813 
C 100.942891 124.383576 101.070079 124.43626 101.202681 124.43626 
z
" clip-path="url(#p3b90e0ee12)" style="stroke: #000000"/>
    <path d="M 97.951923 117.242518 
C 98.396187 117.242518 98.822315 117.06601 99.136457 116.751868 
C 99.450599 116.437726 99.627107 116.011598 99.627107 115.567333 
C 99.627107 115.123069 99.450599 114.696941 99.136457 114.382799 
C 98.822315 114.068657 98.396187 113.892149 97.951923 113.892149 
C 97.507658 113.892149 97.08153 114.068657 96.767388 114.382799 
C 96.453246 114.696941 96.276738 115.123069 96.276738 115.567333 
C 96.276738 116.011598 96.453246 116.437726 96.767388 116.751868 
C 97.08153 117.06601 97.507658 117.242518 97.951923 117.242518 
z
" clip-path="url(#p3b90e0ee12)" style="stroke: #000000"/>
    <path d="M 96.931097 114.360341 
C 97.238812 114.360341 97.533965 114.238084 97.751552 114.020497 
C 97.969139 113.80291 98.091395 113.507757 98.091395 113.200043 
C 98.091395 112.892328 97.969139 112.597175 97.751552 112.379588 
C 97.533965 112.162001 97.238812 112.039745 96.931097 112.039745 
C 96.623383 112.039745 96.32823 112.162001 96.110643 112.379588 
C 95.893056 112.597175 95.7708 112.892328 95.7708 113.200043 
C 95.7708 113.507757 95.893056 113.80291 96.110643 114.020497 
C 96.32823 114.238084 96.623383 114.360341 96.931097 114.360341 
z
" clip-path="url(#p3b90e0ee12)" style="stroke: #000000"/>
    <path d="M 94.437509 108.526015 
C 94.849293 108.526015 95.244267 108.362412 95.535442 108.071237 
C 95.826617 107.780061 95.990221 107.385088 95.990221 106.973304 
C 95.990221 106.56152 95.826617 106.166546 95.535442 105.875371 
C 95.244267 105.584196 94.849293 105.420592 94.437509 105.420592 
C 94.025725 105.420592 93.630752 105.584196 93.339576 105.875371 
C 93.048401 106.166546 92.884798 106.56152 92.884798 106.973304 
C 92.884798 107.385088 93.048401 107.780061 93.339576 108.071237 
C 93.630752 108.362412 94.025725 108.526015 94.437509 108.526015 
z
" clip-path="url(#p3b90e0ee12)" style="stroke: #000000"/>
    <path d="M 89.65851 95.656843 
C 90.213109 95.656843 90.745068 95.436499 91.137228 95.044338 
C 91.529389 94.652177 91.749733 94.120219 91.749733 93.56562 
C 91.749733 93.011021 91.529389 92.479063 91.137228 92.086902 
C 90.745068 91.694741 90.213109 91.474397 89.65851 91.474397 
C 89.103911 91.474397 88.571953 91.694741 88.179792 92.086902 
C 87.787632 92.479063 87.567287 93.011021 87.567287 93.56562 
C 87.567287 94.120219 87.787632 94.652177 88.179792 95.044338 
C 88.571953 95.436499 89.103911 95.656843 89.65851 95.656843 
z
" clip-path="url(#p3b90e0ee12)" style="stroke: #000000"/>
    <path d="M 85.458433 86.503782 
C 85.616124 86.503782 85.767377 86.441131 85.878881 86.329627 
C 85.990386 86.218123 86.053037 86.06687 86.053037 85.909179 
C 86.053037 85.751488 85.990386 85.600235 85.878881 85.488731 
C 85.767377 85.377226 85.616124 85.314575 85.458433 85.314575 
C 85.300742 85.314575 85.149489 85.377226 85.037985 85.488731 
C 84.926481 85.600235 84.86383 85.751488 84.86383 85.909179 
C 84.86383 86.06687 84.926481 86.218123 85.037985 86.329627 
C 85.149489 86.441131 85.300742 86.503782 85.458433 86.503782 
z
" clip-path="url(#p3b90e0ee12)" style="stroke: #000000"/>
    <path d="M 84.108279 82.681978 
C 84.423661 82.681978 84.726167 82.556675 84.949176 82.333667 
C 85.172184 82.110659 85.297486 81.808152 85.297486 81.492771 
C 85.297486 81.177389 85.172184 80.874883 84.949176 80.651874 
C 84.726167 80.428866 84.423661 80.303564 84.108279 80.303564 
C 83.792898 80.303564 83.490391 80.428866 83.267383 80.651874 
C 83.044375 80.874883 82.919072 81.177389 82.919072 81.492771 
C 82.919072 81.808152 83.044375 82.110659 83.267383 82.333667 
C 83.490391 82.556675 83.792898 82.681978 84.108279 82.681978 
z
" clip-path="url(#p3b90e0ee12)" style="stroke: #000000"/>
    <path d="M 110.838514 166.235514 
C 110.971116 166.235514 111.098304 166.182831 111.192068 166.089067 
C 111.285831 165.995304 111.338514 165.868115 111.338514 165.735514 
C 111.338514 165.602912 111.285831 165.475724 111.192068 165.38196 
C 111.098304 165.288197 110.971116 165.235514 110.838514 165.235514 
C 110.705913 165.235514 110.578724 165.288197 110.484961 165.38196 
C 110.391198 165.475724 110.338514 165.602912 110.338514 165.735514 
C 110.338514 165.868115 110.391198 165.995304 110.484961 166.089067 
C 110.578724 166.182831 110.705913 166.235514 110.838514 166.235514 
z
" clip-path="url(#p3b90e0ee12)" style="stroke: #000000"/>
    <path d="M 93.742031 118.813809 
C 93.899722 118.813809 94.050975 118.751157 94.16248 118.639653 
C 94.273984 118.528149 94.336635 118.376896 94.336635 118.219205 
C 94.336635 118.061514 94.273984 117.910261 94.16248 117.798757 
C 94.050975 117.687253 93.899722 117.624602 93.742031 117.624602 
C 93.584341 117.624602 93.433087 117.687253 93.321583 117.798757 
C 93.210079 117.910261 93.147428 118.061514 93.147428 118.219205 
C 93.147428 118.376896 93.210079 118.528149 93.321583 118.639653 
C 93.433087 118.751157 93.584341 118.813809 93.742031 118.813809 
z
" clip-path="url(#p3b90e0ee12)" style="stroke: #000000"/>
    <path d="M 91.454581 116.045963 
C 91.978659 116.045963 92.481343 115.837744 92.851922 115.467165 
C 93.222502 115.096586 93.43072 114.593902 93.43072 114.069824 
C 93.43072 113.545746 93.222502 113.043062 92.851922 112.672483 
C 92.481343 112.301903 91.978659 112.093685 91.454581 112.093685 
C 90.930503 112.093685 90.427819 112.301903 90.05724 112.672483 
C 89.686661 113.043062 89.478442 113.545746 89.478442 114.069824 
C 89.478442 114.593902 89.686661 115.096586 90.05724 115.467165 
C 90.427819 115.837744 90.930503 116.045963 91.454581 116.045963 
z
" clip-path="url(#p3b90e0ee12)" style="stroke: #000000"/>
    <path d="M 90.649646 108.760741 
C 90.782247 108.760741 90.909436 108.708057 91.003199 108.614294 
C 91.096962 108.520531 91.149646 108.393342 91.149646 108.260741 
C 91.149646 108.128139 91.096962 108.000951 91.003199 107.907187 
C 90.909436 107.813424 90.782247 107.760741 90.649646 107.760741 
C 90.517044 107.760741 90.389856 107.813424 90.296092 107.907187 
C 90.202329 108.000951 90.149646 108.128139 90.149646 108.260741 
C 90.149646 108.393342 90.202329 108.520531 90.296092 108.614294 
C 90.389856 108.708057 90.517044 108.760741 90.649646 108.760741 
z
" clip-path="url(#p3b90e0ee12)" style="stroke: #000000"/>
    <path d="M 87.955932 101.434544 
C 88.163464 101.434544 88.362525 101.35209 88.509273 101.205343 
C 88.65602 101.058595 88.738474 100.859534 88.738474 100.652002 
C 88.738474 100.444469 88.65602 100.245408 88.509273 100.098661 
C 88.362525 99.951913 88.163464 99.869459 87.955932 99.869459 
C 87.748399 99.869459 87.549338 99.951913 87.402591 100.098661 
C 87.255843 100.245408 87.173389 100.444469 87.173389 100.652002 
C 87.173389 100.859534 87.255843 101.058595 87.402591 101.205343 
C 87.549338 101.35209 87.748399 101.434544 87.955932 101.434544 
z
" clip-path="url(#p3b90e0ee12)" style="stroke: #000000"/>
    <path d="M 87.138921 97.145719 
C 87.480437 97.145719 87.808012 97.010033 88.049501 96.768545 
C 88.290989 96.527056 88.426675 96.199481 88.426675 95.857965 
C 88.426675 95.516448 88.290989 95.188873 88.049501 94.947385 
C 87.808012 94.705896 87.480437 94.57021 87.138921 94.57021 
C 86.797404 94.57021 86.469829 94.705896 86.22834 94.947385 
C 85.986852 95.188873 85.851166 95.516448 85.851166 95.857965 
C 85.851166 96.199481 85.986852 96.527056 86.22834 96.768545 
C 86.469829 97.010033 86.797404 97.145719 87.138921 97.145719 
z
" clip-path="url(#p3b90e0ee12)" style="stroke: #000000"/>
    <path d="M 83.09894 88.754679 
C 83.382799 88.754679 83.655071 88.641901 83.85579 88.441182 
C 84.056509 88.240463 84.169287 87.968191 84.169287 87.684332 
C 84.169287 87.400472 84.056509 87.128201 83.85579 86.927482 
C 83.655071 86.726763 83.382799 86.613984 83.09894 86.613984 
C 82.81508 86.613984 82.542808 86.726763 82.342089 86.927482 
C 82.141371 87.128201 82.028592 87.400472 82.028592 87.684332 
C 82.028592 87.968191 82.141371 88.240463 82.342089 88.441182 
C 82.542808 88.641901 82.81508 88.754679 83.09894 88.754679 
z
" clip-path="url(#p3b90e0ee12)" style="stroke: #000000"/>
    <path d="M 93.021669 127.048587 
C 93.454002 127.048587 93.868686 126.876819 94.174391 126.571114 
C 94.480097 126.265408 94.651865 125.850725 94.651865 125.418392 
C 94.651865 124.986059 94.480097 124.571375 94.174391 124.26567 
C 93.868686 123.959964 93.454002 123.788196 93.021669 123.788196 
C 92.589337 123.788196 92.174653 123.959964 91.868947 124.26567 
C 91.563242 124.571375 91.391474 124.986059 91.391474 125.418392 
C 91.391474 125.850725 91.563242 126.265408 91.868947 126.571114 
C 92.174653 126.876819 92.589337 127.048587 93.021669 127.048587 
z
" clip-path="url(#p3b90e0ee12)" style="stroke: #000000"/>
    <path d="M 90.725149 123.28422 
C 90.85775 123.28422 90.984939 123.231537 91.078702 123.137774 
C 91.172466 123.04401 91.225149 122.916822 91.225149 122.78422 
C 91.225149 122.651619 91.172466 122.52443 91.078702 122.430667 
C 90.984939 122.336903 90.85775 122.28422 90.725149 122.28422 
C 90.592547 122.28422 90.465359 122.336903 90.371595 122.430667 
C 90.277832 122.52443 90.225149 122.651619 90.225149 122.78422 
C 90.225149 122.916822 90.277832 123.04401 90.371595 123.137774 
C 90.465359 123.231537 90.592547 123.28422 90.725149 123.28422 
z
" clip-path="url(#p3b90e0ee12)" style="stroke: #000000"/>
    <path d="M 88.661441 120.986838 
C 89.160725 120.986838 89.639627 120.78847 89.992674 120.435423 
C 90.345721 120.082376 90.544089 119.603474 90.544089 119.10419 
C 90.544089 118.604906 90.345721 118.126005 89.992674 117.772957 
C 89.639627 117.41991 89.160725 117.221543 88.661441 117.221543 
C 88.162157 117.221543 87.683255 117.41991 87.330208 117.772957 
C 86.977161 118.126005 86.778793 118.604906 86.778793 119.10419 
C 86.778793 119.603474 86.977161 120.082376 87.330208 120.435423 
C 87.683255 120.78847 88.162157 120.986838 88.661441 120.986838 
z
" clip-path="url(#p3b90e0ee12)" style="stroke: #000000"/>
    <path d="M 86.368171 115.17305 
C 86.748952 115.17305 87.114189 115.021764 87.383442 114.75251 
C 87.652696 114.483257 87.803982 114.11802 87.803982 113.737239 
C 87.803982 113.356457 87.652696 112.99122 87.383442 112.721967 
C 87.114189 112.452714 86.748952 112.301428 86.368171 112.301428 
C 85.987389 112.301428 85.622152 112.452714 85.352899 112.721967 
C 85.083646 112.99122 84.93236 113.356457 84.93236 113.737239 
C 84.93236 114.11802 85.083646 114.483257 85.352899 114.75251 
C 85.622152 115.021764 85.987389 115.17305 86.368171 115.17305 
z
" clip-path="url(#p3b90e0ee12)" style="stroke: #000000"/>
    <path d="M 84.309559 107.53776 
C 84.830931 107.53776 85.33102 107.330616 85.699686 106.96195 
C 86.068352 106.593284 86.275496 106.093196 86.275496 105.571823 
C 86.275496 105.050451 86.068352 104.550362 85.699686 104.181696 
C 85.33102 103.81303 84.830931 103.605887 84.309559 103.605887 
C 83.788187 103.605887 83.288098 103.81303 82.919432 104.181696 
C 82.550766 104.550362 82.343623 105.050451 82.343623 105.571823 
C 82.343623 106.093196 82.550766 106.593284 82.919432 106.96195 
C 83.288098 107.330616 83.788187 107.53776 84.309559 107.53776 
z
" clip-path="url(#p3b90e0ee12)" style="stroke: #000000"/>
    <path d="M 82.536184 98.429711 
C 82.987338 98.429711 83.420075 98.250466 83.739089 97.931452 
C 84.058103 97.612438 84.237348 97.179701 84.237348 96.728547 
C 84.237348 96.277393 84.058103 95.844656 83.739089 95.525642 
C 83.420075 95.206628 82.987338 95.027383 82.536184 95.027383 
C 82.08503 95.027383 81.652294 95.206628 81.33328 95.525642 
C 81.014266 95.844656 80.83502 96.277393 80.83502 96.728547 
C 80.83502 97.179701 81.014266 97.612438 81.33328 97.931452 
C 81.652294 98.250466 82.08503 98.429711 82.536184 98.429711 
z
" clip-path="url(#p3b90e0ee12)" style="stroke: #000000"/>
    <path d="M 78.505777 86.228006 
C 78.839252 86.228006 79.159114 86.095514 79.394916 85.859712 
C 79.630719 85.623909 79.76321 85.304047 79.76321 84.970572 
C 79.76321 84.637097 79.630719 84.317235 79.394916 84.081432 
C 79.159114 83.84563 78.839252 83.713139 78.505777 83.713139 
C 78.172301 83.713139 77.85244 83.84563 77.616637 84.081432 
C 77.380834 84.317235 77.248343 84.637097 77.248343 84.970572 
C 77.248343 85.304047 77.380834 85.623909 77.616637 85.859712 
C 77.85244 86.095514 78.172301 86.228006 78.505777 86.228006 
z
" clip-path="url(#p3b90e0ee12)" style="stroke: #000000"/>
    <path d="M 95.373014 151.550219 
C 95.505616 151.550219 95.632804 151.497536 95.726568 151.403772 
C 95.820331 151.310009 95.873014 151.18282 95.873014 151.050219 
C 95.873014 150.917617 95.820331 150.790429 95.726568 150.696665 
C 95.632804 150.602902 95.505616 150.550219 95.373014 150.550219 
C 95.240413 150.550219 95.113224 150.602902 95.019461 150.696665 
C 94.925697 150.790429 94.873014 150.917617 94.873014 151.050219 
C 94.873014 151.18282 94.925697 151.310009 95.019461 151.403772 
C 95.113224 151.497536 95.240413 151.550219 95.373014 151.550219 
z
" clip-path="url(#p3b90e0ee12)" style="stroke: #000000"/>
    <path d="M 84.964843 121.841196 
C 85.382053 121.841196 85.782232 121.675437 86.077244 121.380425 
C 86.372257 121.085412 86.538016 120.685234 86.538016 120.268023 
C 86.538016 119.850813 86.372257 119.450634 86.077244 119.155622 
C 85.782232 118.860609 85.382053 118.69485 84.964843 118.69485 
C 84.547632 118.69485 84.147454 118.860609 83.852441 119.155622 
C 83.557429 119.450634 83.39167 119.850813 83.39167 120.268023 
C 83.39167 120.685234 83.557429 121.085412 83.852441 121.380425 
C 84.147454 121.675437 84.547632 121.841196 84.964843 121.841196 
z
" clip-path="url(#p3b90e0ee12)" style="stroke: #000000"/>
    <path d="M 83.373067 115.550203 
C 83.505668 115.550203 83.632857 115.49752 83.72662 115.403756 
C 83.820384 115.309993 83.873067 115.182804 83.873067 115.050203 
C 83.873067 114.917601 83.820384 114.790413 83.72662 114.69665 
C 83.632857 114.602886 83.505668 114.550203 83.373067 114.550203 
C 83.240465 114.550203 83.113277 114.602886 83.019513 114.69665 
C 82.92575 114.790413 82.873067 114.917601 82.873067 115.050203 
C 82.873067 115.182804 82.92575 115.309993 83.019513 115.403756 
C 83.113277 115.49752 83.240465 115.550203 83.373067 115.550203 
z
" clip-path="url(#p3b90e0ee12)" style="stroke: #000000"/>
    <path d="M 73.598205 92.88158 
C 74.05351 92.88158 74.490228 92.700685 74.812177 92.378736 
C 75.134126 92.056787 75.315021 91.620069 75.315021 91.164764 
C 75.315021 90.709459 75.134126 90.272741 74.812177 89.950792 
C 74.490228 89.628842 74.05351 89.447948 73.598205 89.447948 
C 73.1429 89.447948 72.706182 89.628842 72.384233 89.950792 
C 72.062284 90.272741 71.881389 90.709459 71.881389 91.164764 
C 71.881389 91.620069 72.062284 92.056787 72.384233 92.378736 
C 72.706182 92.700685 73.1429 92.88158 73.598205 92.88158 
z
" clip-path="url(#p3b90e0ee12)" style="stroke: #000000"/>
    <path d="M 72.763004 85.4421 
C 72.970537 85.4421 73.169597 85.359646 73.316345 85.212898 
C 73.463093 85.066151 73.545546 84.86709 73.545546 84.659557 
C 73.545546 84.452025 73.463093 84.252964 73.316345 84.106216 
C 73.169597 83.959469 72.970537 83.877015 72.763004 83.877015 
C 72.555471 83.877015 72.356411 83.959469 72.209663 84.106216 
C 72.062915 84.252964 71.980462 84.452025 71.980462 84.659557 
C 71.980462 84.86709 72.062915 85.066151 72.209663 85.212898 
C 72.356411 85.359646 72.555471 85.4421 72.763004 85.4421 
z
" clip-path="url(#p3b90e0ee12)" style="stroke: #000000"/>
    <path d="M 83.103528 136.550267 
C 83.673347 136.550267 84.219905 136.323875 84.622828 135.920952 
C 85.025751 135.518029 85.252143 134.971471 85.252143 134.401652 
C 85.252143 133.831832 85.025751 133.285275 84.622828 132.882351 
C 84.219905 132.479428 83.673347 132.253037 83.103528 132.253037 
C 82.533709 132.253037 81.987151 132.479428 81.584228 132.882351 
C 81.181305 133.285275 80.954913 133.831832 80.954913 134.401652 
C 80.954913 134.971471 81.181305 135.518029 81.584228 135.920952 
C 81.987151 136.323875 82.533709 136.550267 83.103528 136.550267 
z
" clip-path="url(#p3b90e0ee12)" style="stroke: #000000"/>
    <path d="M 84.351494 132.723833 
C 84.925854 132.723833 85.476767 132.495638 85.882901 132.089504 
C 86.289035 131.68337 86.517231 131.132457 86.517231 130.558096 
C 86.517231 129.983736 86.289035 129.432823 85.882901 129.026689 
C 85.476767 128.620555 84.925854 128.39236 84.351494 128.39236 
C 83.777134 128.39236 83.226221 128.620555 82.820087 129.026689 
C 82.413953 129.432823 82.185757 129.983736 82.185757 130.558096 
C 82.185757 131.132457 82.413953 131.68337 82.820087 132.089504 
C 83.226221 132.495638 83.777134 132.723833 84.351494 132.723833 
z
" clip-path="url(#p3b90e0ee12)" style="stroke: #000000"/>
    <path d="M 82.69702 127.300154 
C 82.895305 127.300154 83.085496 127.221375 83.225705 127.081166 
C 83.365914 126.940957 83.444694 126.750766 83.444694 126.55248 
C 83.444694 126.354194 83.365914 126.164003 83.225705 126.023794 
C 83.085496 125.883585 82.895305 125.804806 82.69702 125.804806 
C 82.498734 125.804806 82.308543 125.883585 82.168334 126.023794 
C 82.028125 126.164003 81.949345 126.354194 81.949345 126.55248 
C 81.949345 126.750766 82.028125 126.940957 82.168334 127.081166 
C 82.308543 127.221375 82.498734 127.300154 82.69702 127.300154 
z
" clip-path="url(#p3b90e0ee12)" style="stroke: #000000"/>
    <path d="M 79.741529 122.892943 
C 80.002487 122.892943 80.252793 122.789263 80.437318 122.604738 
C 80.621844 122.420212 80.725524 122.169907 80.725524 121.908948 
C 80.725524 121.64799 80.621844 121.397684 80.437318 121.213159 
C 80.252793 121.028633 80.002487 120.924953 79.741529 120.924953 
C 79.48057 120.924953 79.230265 121.028633 79.045739 121.213159 
C 78.861214 121.397684 78.757534 121.64799 78.757534 121.908948 
C 78.757534 122.169907 78.861214 122.420212 79.045739 122.604738 
C 79.230265 122.789263 79.48057 122.892943 79.741529 122.892943 
z
" clip-path="url(#p3b90e0ee12)" style="stroke: #000000"/>
    <path d="M 79.284066 117.149806 
C 79.416667 117.149806 79.543856 117.097123 79.637619 117.003359 
C 79.731383 116.909596 79.784066 116.782407 79.784066 116.649806 
C 79.784066 116.517204 79.731383 116.390016 79.637619 116.296252 
C 79.543856 116.202489 79.416667 116.149806 79.284066 116.149806 
C 79.151464 116.149806 79.024276 116.202489 78.930512 116.296252 
C 78.836749 116.390016 78.784066 116.517204 78.784066 116.649806 
C 78.784066 116.782407 78.836749 116.909596 78.930512 117.003359 
C 79.024276 117.097123 79.151464 117.149806 79.284066 117.149806 
z
" clip-path="url(#p3b90e0ee12)" style="stroke: #000000"/>
    <path d="M 73.123293 100.669683 
C 73.352965 100.669683 73.573262 100.578433 73.735665 100.41603 
C 73.898068 100.253627 73.989318 100.03333 73.989318 99.803657 
C 73.989318 99.573985 73.898068 99.353688 73.735665 99.191285 
C 73.573262 99.028882 73.352965 98.937632 73.123293 98.937632 
C 72.89362 98.937632 72.673323 99.028882 72.51092 99.191285 
C 72.348517 99.353688 72.257267 99.573985 72.257267 99.803657 
C 72.257267 100.03333 72.348517 100.253627 72.51092 100.41603 
C 72.673323 100.578433 72.89362 100.669683 73.123293 100.669683 
z
" clip-path="url(#p3b90e0ee12)" style="stroke: #000000"/>
    <path d="M 68.060019 86.792237 
C 68.21771 86.792237 68.368963 86.729586 68.480467 86.618082 
C 68.591972 86.506577 68.654623 86.355324 68.654623 86.197633 
C 68.654623 86.039943 68.591972 85.888689 68.480467 85.777185 
C 68.368963 85.665681 68.21771 85.60303 68.060019 85.60303 
C 67.902328 85.60303 67.751075 85.665681 67.639571 85.777185 
C 67.528067 85.888689 67.465416 86.039943 67.465416 86.197633 
C 67.465416 86.355324 67.528067 86.506577 67.639571 86.618082 
C 67.751075 86.729586 67.902328 86.792237 68.060019 86.792237 
z
" clip-path="url(#p3b90e0ee12)" style="stroke: #000000"/>
    <path d="M 77.229172 131.933524 
C 77.403685 131.933524 77.571075 131.864189 77.694474 131.74079 
C 77.817874 131.61739 77.887209 131.450001 77.887209 131.275487 
C 77.887209 131.100974 77.817874 130.933584 77.694474 130.810185 
C 77.571075 130.686785 77.403685 130.61745 77.229172 130.61745 
C 77.054658 130.61745 76.887269 130.686785 76.763869 130.810185 
C 76.64047 130.933584 76.571135 131.100974 76.571135 131.275487 
C 76.571135 131.450001 76.64047 131.61739 76.763869 131.74079 
C 76.887269 131.864189 77.054658 131.933524 77.229172 131.933524 
z
" clip-path="url(#p3b90e0ee12)" style="stroke: #000000"/>
    <path d="M 73.578082 119.758148 
C 73.993147 119.758148 74.391268 119.59324 74.684764 119.299745 
C 74.978259 119.00625 75.143166 118.608128 75.143166 118.193063 
C 75.143166 117.777998 74.978259 117.379877 74.684764 117.086381 
C 74.391268 116.792886 73.993147 116.627979 73.578082 116.627979 
C 73.163016 116.627979 72.764895 116.792886 72.4714 117.086381 
C 72.177904 117.379877 72.012997 117.777998 72.012997 118.193063 
C 72.012997 118.608128 72.177904 119.00625 72.4714 119.299745 
C 72.764895 119.59324 73.163016 119.758148 73.578082 119.758148 
z
" clip-path="url(#p3b90e0ee12)" style="stroke: #000000"/>
    <path d="M 62.20189 89.717301 
C 62.417576 89.717301 62.624458 89.631607 62.776971 89.479094 
C 62.929485 89.32658 63.015178 89.119699 63.015178 88.904012 
C 63.015178 88.688326 62.929485 88.481444 62.776971 88.328931 
C 62.624458 88.176417 62.417576 88.090724 62.20189 88.090724 
C 61.986203 88.090724 61.779322 88.176417 61.626808 88.328931 
C 61.474295 88.481444 61.388601 88.688326 61.388601 88.904012 
C 61.388601 89.119699 61.474295 89.32658 61.626808 89.479094 
C 61.779322 89.631607 61.986203 89.717301 62.20189 89.717301 
z
" clip-path="url(#p3b90e0ee12)" style="stroke: #000000"/>
    <path d="M 61.847915 84.422486 
C 62.163296 84.422486 62.465803 84.297184 62.688811 84.074175 
C 62.91182 83.851167 63.037122 83.54866 63.037122 83.233279 
C 63.037122 82.917897 62.91182 82.615391 62.688811 82.392382 
C 62.465803 82.169374 62.163296 82.044072 61.847915 82.044072 
C 61.532533 82.044072 61.230027 82.169374 61.007018 82.392382 
C 60.78401 82.615391 60.658708 82.917897 60.658708 83.233279 
C 60.658708 83.54866 60.78401 83.851167 61.007018 84.074175 
C 61.230027 84.297184 61.532533 84.422486 61.847915 84.422486 
z
" clip-path="url(#p3b90e0ee12)" style="stroke: #000000"/>
    <path d="M 72.859283 130.701148 
C 73.37455 130.701148 73.868782 130.496431 74.233131 130.132082 
C 74.59748 129.767733 74.802197 129.273501 74.802197 128.758234 
C 74.802197 128.242967 74.59748 127.748734 74.233131 127.384386 
C 73.868782 127.020037 73.37455 126.815319 72.859283 126.815319 
C 72.344016 126.815319 71.849783 127.020037 71.485435 127.384386 
C 71.121086 127.748734 70.916368 128.242967 70.916368 128.758234 
C 70.916368 129.273501 71.121086 129.767733 71.485435 130.132082 
C 71.849783 130.496431 72.344016 130.701148 72.859283 130.701148 
z
" clip-path="url(#p3b90e0ee12)" style="stroke: #000000"/>
    <path d="M 71.206158 124.841021 
C 71.363848 124.841021 71.515102 124.77837 71.626606 124.666866 
C 71.73811 124.555362 71.800761 124.404108 71.800761 124.246418 
C 71.800761 124.088727 71.73811 123.937474 71.626606 123.82597 
C 71.515102 123.714465 71.363848 123.651814 71.206158 123.651814 
C 71.048467 123.651814 70.897214 123.714465 70.78571 123.82597 
C 70.674205 123.937474 70.611554 124.088727 70.611554 124.246418 
C 70.611554 124.404108 70.674205 124.555362 70.78571 124.666866 
C 70.897214 124.77837 71.048467 124.841021 71.206158 124.841021 
z
" clip-path="url(#p3b90e0ee12)" style="stroke: #000000"/>
    <path d="M 70.35661 122.275897 
C 70.932595 122.275897 71.485066 122.047056 71.892349 121.639773 
C 72.299632 121.23249 72.528473 120.680018 72.528473 120.104034 
C 72.528473 119.528049 72.299632 118.975577 71.892349 118.568294 
C 71.485066 118.161011 70.932595 117.93217 70.35661 117.93217 
C 69.780625 117.93217 69.228153 118.161011 68.820871 118.568294 
C 68.413588 118.975577 68.184747 119.528049 68.184747 120.104034 
C 68.184747 120.680018 68.413588 121.23249 68.820871 121.639773 
C 69.228153 122.047056 69.780625 122.275897 70.35661 122.275897 
z
" clip-path="url(#p3b90e0ee12)" style="stroke: #000000"/>
    <path d="M 66.352217 117.655556 
C 66.509908 117.655556 66.661161 117.592904 66.772665 117.4814 
C 66.88417 117.369896 66.946821 117.218643 66.946821 117.060952 
C 66.946821 116.903261 66.88417 116.752008 66.772665 116.640504 
C 66.661161 116.529 66.509908 116.466349 66.352217 116.466349 
C 66.194527 116.466349 66.043273 116.529 65.931769 116.640504 
C 65.820265 116.752008 65.757614 116.903261 65.757614 117.060952 
C 65.757614 117.218643 65.820265 117.369896 65.931769 117.4814 
C 66.043273 117.592904 66.194527 117.655556 66.352217 117.655556 
z
" clip-path="url(#p3b90e0ee12)" style="stroke: #000000"/>
    <path d="M 65.952059 113.067541 
C 66.228904 113.067541 66.494448 112.957549 66.690207 112.76179 
C 66.885966 112.566031 66.995958 112.300487 66.995958 112.023642 
C 66.995958 111.746797 66.885966 111.481253 66.690207 111.285494 
C 66.494448 111.089735 66.228904 110.979743 65.952059 110.979743 
C 65.675214 110.979743 65.40967 111.089735 65.213911 111.285494 
C 65.018152 111.481253 64.90816 111.746797 64.90816 112.023642 
C 64.90816 112.300487 65.018152 112.566031 65.213911 112.76179 
C 65.40967 112.957549 65.675214 113.067541 65.952059 113.067541 
z
" clip-path="url(#p3b90e0ee12)" style="stroke: #000000"/>
    <path d="M 64.939799 109.677536 
C 65.496201 109.677536 66.029889 109.456475 66.423325 109.063039 
C 66.816761 108.669603 67.037822 108.135914 67.037822 107.579512 
C 67.037822 107.023109 66.816761 106.489421 66.423325 106.095985 
C 66.029889 105.702549 65.496201 105.481488 64.939799 105.481488 
C 64.383396 105.481488 63.849708 105.702549 63.456272 106.095985 
C 63.062836 106.489421 62.841775 107.023109 62.841775 107.579512 
C 62.841775 108.135914 63.062836 108.669603 63.456272 109.063039 
C 63.849708 109.456475 64.383396 109.677536 64.939799 109.677536 
z
" clip-path="url(#p3b90e0ee12)" style="stroke: #000000"/>
    <path d="M 61.637348 99.580376 
C 61.873151 99.580376 62.099327 99.48669 62.266065 99.319953 
C 62.432802 99.153215 62.526488 98.927038 62.526488 98.691236 
C 62.526488 98.455433 62.432802 98.229257 62.266065 98.062519 
C 62.099327 97.895781 61.873151 97.802096 61.637348 97.802096 
C 61.401546 97.802096 61.175369 97.895781 61.008631 98.062519 
C 60.841894 98.229257 60.748208 98.455433 60.748208 98.691236 
C 60.748208 98.927038 60.841894 99.153215 61.008631 99.319953 
C 61.175369 99.48669 61.401546 99.580376 61.637348 99.580376 
z
" clip-path="url(#p3b90e0ee12)" style="stroke: #000000"/>
    <path d="M 61.281389 94.940225 
C 61.439079 94.940225 61.590333 94.877574 61.701837 94.76607 
C 61.813341 94.654566 61.875992 94.503312 61.875992 94.345622 
C 61.875992 94.187931 61.813341 94.036678 61.701837 93.925173 
C 61.590333 93.813669 61.439079 93.751018 61.281389 93.751018 
C 61.123698 93.751018 60.972445 93.813669 60.86094 93.925173 
C 60.749436 94.036678 60.686785 94.187931 60.686785 94.345622 
C 60.686785 94.503312 60.749436 94.654566 60.86094 94.76607 
C 60.972445 94.877574 61.123698 94.940225 61.281389 94.940225 
z
" clip-path="url(#p3b90e0ee12)" style="stroke: #000000"/>
    <path d="M 61.407374 91.7362 
C 61.643177 91.7362 61.869353 91.642514 62.036091 91.475777 
C 62.202828 91.309039 62.296514 91.082863 62.296514 90.84706 
C 62.296514 90.611257 62.202828 90.385081 62.036091 90.218343 
C 61.869353 90.051606 61.643177 89.95792 61.407374 89.95792 
C 61.171572 89.95792 60.945395 90.051606 60.778657 90.218343 
C 60.61192 90.385081 60.518234 90.611257 60.518234 90.84706 
C 60.518234 91.082863 60.61192 91.309039 60.778657 91.475777 
C 60.945395 91.642514 61.171572 91.7362 61.407374 91.7362 
z
" clip-path="url(#p3b90e0ee12)" style="stroke: #000000"/>
    <path d="M 68.92457 135.648068 
C 69.331853 135.648068 69.72251 135.486253 70.010502 135.19826 
C 70.298495 134.910268 70.46031 134.519611 70.46031 134.112329 
C 70.46031 133.705046 70.298495 133.314389 70.010502 133.026397 
C 69.72251 132.738404 69.331853 132.576589 68.92457 132.576589 
C 68.517288 132.576589 68.126631 132.738404 67.838639 133.026397 
C 67.550646 133.314389 67.388831 133.705046 67.388831 134.112329 
C 67.388831 134.519611 67.550646 134.910268 67.838639 135.19826 
C 68.126631 135.486253 68.517288 135.648068 68.92457 135.648068 
z
" clip-path="url(#p3b90e0ee12)" style="stroke: #000000"/>
    <path d="M 67.176911 131.740297 
C 67.66922 131.740297 68.14143 131.544701 68.489545 131.196586 
C 68.837659 130.848472 69.033255 130.376261 69.033255 129.883953 
C 69.033255 129.391645 68.837659 128.919434 68.489545 128.57132 
C 68.14143 128.223205 67.66922 128.027609 67.176911 128.027609 
C 66.684603 128.027609 66.212393 128.223205 65.864278 128.57132 
C 65.516164 128.919434 65.320568 129.391645 65.320568 129.883953 
C 65.320568 130.376261 65.516164 130.848472 65.864278 131.196586 
C 66.212393 131.544701 66.684603 131.740297 67.176911 131.740297 
z
" clip-path="url(#p3b90e0ee12)" style="stroke: #000000"/>
    <path d="M 67.374482 127.292503 
C 67.572768 127.292503 67.762959 127.213723 67.903168 127.073514 
C 68.043377 126.933305 68.122156 126.743114 68.122156 126.544829 
C 68.122156 126.346543 68.043377 126.156352 67.903168 126.016143 
C 67.762959 125.875934 67.572768 125.797154 67.374482 125.797154 
C 67.176197 125.797154 66.986006 125.875934 66.845796 126.016143 
C 66.705587 126.156352 66.626808 126.346543 66.626808 126.544829 
C 66.626808 126.743114 66.705587 126.933305 66.845796 127.073514 
C 66.986006 127.213723 67.176197 127.292503 67.374482 127.292503 
z
" clip-path="url(#p3b90e0ee12)" style="stroke: #000000"/>
    <path d="M 65.178727 122.554289 
C 65.35324 122.554289 65.52063 122.484954 65.644029 122.361555 
C 65.767429 122.238155 65.836764 122.070766 65.836764 121.896252 
C 65.836764 121.721739 65.767429 121.554349 65.644029 121.43095 
C 65.52063 121.30755 65.35324 121.238215 65.178727 121.238215 
C 65.004213 121.238215 64.836824 121.30755 64.713424 121.43095 
C 64.590025 121.554349 64.52069 121.721739 64.52069 121.896252 
C 64.52069 122.070766 64.590025 122.238155 64.713424 122.361555 
C 64.836824 122.484954 65.004213 122.554289 65.178727 122.554289 
z
" clip-path="url(#p3b90e0ee12)" style="stroke: #000000"/>
    <path d="M 58.524185 107.500821 
C 58.986687 107.500821 59.430309 107.317067 59.757348 106.990028 
C 60.084387 106.66299 60.268141 106.219368 60.268141 105.756865 
C 60.268141 105.294363 60.084387 104.850741 59.757348 104.523703 
C 59.430309 104.196664 58.986687 104.01291 58.524185 104.01291 
C 58.061683 104.01291 57.618061 104.196664 57.291022 104.523703 
C 56.963984 104.850741 56.780229 105.294363 56.780229 105.756865 
C 56.780229 106.219368 56.963984 106.66299 57.291022 106.990028 
C 57.618061 107.317067 58.061683 107.500821 58.524185 107.500821 
z
" clip-path="url(#p3b90e0ee12)" style="stroke: #000000"/>
    <path d="M 57.78089 101.153877 
C 58.13172 101.153877 58.468229 101.01449 58.716304 100.766415 
C 58.964379 100.518341 59.103765 100.181832 59.103765 99.831001 
C 59.103765 99.48017 58.964379 99.143662 58.716304 98.895587 
C 58.468229 98.647512 58.13172 98.508125 57.78089 98.508125 
C 57.430059 98.508125 57.09355 98.647512 56.845475 98.895587 
C 56.597401 99.143662 56.458014 99.48017 56.458014 99.831001 
C 56.458014 100.181832 56.597401 100.518341 56.845475 100.766415 
C 57.09355 101.01449 57.430059 101.153877 57.78089 101.153877 
z
" clip-path="url(#p3b90e0ee12)" style="stroke: #000000"/>
    <path d="M 65.642821 140.06054 
C 65.865829 140.06054 66.079734 139.971938 66.237424 139.814247 
C 66.395115 139.656556 66.483717 139.442652 66.483717 139.219644 
C 66.483717 138.996635 66.395115 138.782731 66.237424 138.62504 
C 66.079734 138.467349 65.865829 138.378747 65.642821 138.378747 
C 65.419812 138.378747 65.205908 138.467349 65.048217 138.62504 
C 64.890526 138.782731 64.801924 138.996635 64.801924 139.219644 
C 64.801924 139.442652 64.890526 139.656556 65.048217 139.814247 
C 65.205908 139.971938 65.419812 140.06054 65.642821 140.06054 
z
" clip-path="url(#p3b90e0ee12)" style="stroke: #000000"/>
    <path d="M 59.618018 119.818426 
C 59.853821 119.818426 60.079997 119.724741 60.246735 119.558003 
C 60.413472 119.391266 60.507158 119.165089 60.507158 118.929287 
C 60.507158 118.693484 60.413472 118.467308 60.246735 118.30057 
C 60.079997 118.133832 59.853821 118.040147 59.618018 118.040147 
C 59.382215 118.040147 59.156039 118.133832 58.989301 118.30057 
C 58.822564 118.467308 58.728878 118.693484 58.728878 118.929287 
C 58.728878 119.165089 58.822564 119.391266 58.989301 119.558003 
C 59.156039 119.724741 59.382215 119.818426 59.618018 119.818426 
z
" clip-path="url(#p3b90e0ee12)" style="stroke: #000000"/>
    <path d="M 60.218311 138.028544 
C 60.425844 138.028544 60.624904 137.946091 60.771652 137.799343 
C 60.9184 137.652595 61.000853 137.453534 61.000853 137.246002 
C 61.000853 137.038469 60.9184 136.839409 60.771652 136.692661 
C 60.624904 136.545913 60.425844 136.46346 60.218311 136.46346 
C 60.010778 136.46346 59.811718 136.545913 59.66497 136.692661 
C 59.518222 136.839409 59.435769 137.038469 59.435769 137.246002 
C 59.435769 137.453534 59.518222 137.652595 59.66497 137.799343 
C 59.811718 137.946091 60.010778 138.028544 60.218311 138.028544 
z
" clip-path="url(#p3b90e0ee12)" style="stroke: #000000"/>
    <path d="M 56.545023 124.760227 
C 56.922974 124.760227 57.285495 124.610066 57.552746 124.342815 
C 57.819997 124.075564 57.970158 123.713042 57.970158 123.335092 
C 57.970158 122.957142 57.819997 122.594621 57.552746 122.32737 
C 57.285495 122.060118 56.922974 121.909957 56.545023 121.909957 
C 56.167073 121.909957 55.804552 122.060118 55.537301 122.32737 
C 55.27005 122.594621 55.119889 122.957142 55.119889 123.335092 
C 55.119889 123.713042 55.27005 124.075564 55.537301 124.342815 
C 55.804552 124.610066 56.167073 124.760227 56.545023 124.760227 
z
" clip-path="url(#p3b90e0ee12)" style="stroke: #000000"/>
    <path d="M 53.226369 120.447901 
C 53.598457 120.447901 53.955356 120.300068 54.218463 120.036962 
C 54.481569 119.773855 54.629402 119.416956 54.629402 119.044868 
C 54.629402 118.672779 54.481569 118.31588 54.218463 118.052773 
C 53.955356 117.789667 53.598457 117.641834 53.226369 117.641834 
C 52.85428 117.641834 52.497381 117.789667 52.234274 118.052773 
C 51.971168 118.31588 51.823335 118.672779 51.823335 119.044868 
C 51.823335 119.416956 51.971168 119.773855 52.234274 120.036962 
C 52.497381 120.300068 52.85428 120.447901 53.226369 120.447901 
z
" clip-path="url(#p3b90e0ee12)" style="stroke: #000000"/>
    <path d="M 53.833285 116.425345 
C 54.106414 116.425345 54.368392 116.31683 54.561523 116.123699 
C 54.754654 115.930568 54.863169 115.66859 54.863169 115.395462 
C 54.863169 115.122333 54.754654 114.860355 54.561523 114.667224 
C 54.368392 114.474093 54.106414 114.365578 53.833285 114.365578 
C 53.560157 114.365578 53.298179 114.474093 53.105048 114.667224 
C 52.911917 114.860355 52.803402 115.122333 52.803402 115.395462 
C 52.803402 115.66859 52.911917 115.930568 53.105048 116.123699 
C 53.298179 116.31683 53.560157 116.425345 53.833285 116.425345 
z
" clip-path="url(#p3b90e0ee12)" style="stroke: #000000"/>
    <path d="M 53.242891 114.539392 
C 53.508094 114.539392 53.762471 114.434025 53.949998 114.246499 
C 54.137525 114.058972 54.242891 113.804595 54.242891 113.539392 
C 54.242891 113.274189 54.137525 113.019812 53.949998 112.832285 
C 53.762471 112.644758 53.508094 112.539392 53.242891 112.539392 
C 52.977688 112.539392 52.723311 112.644758 52.535784 112.832285 
C 52.348257 113.019812 52.242891 113.274189 52.242891 113.539392 
C 52.242891 113.804595 52.348257 114.058972 52.535784 114.246499 
C 52.723311 114.434025 52.977688 114.539392 53.242891 114.539392 
z
" clip-path="url(#p3b90e0ee12)" style="stroke: #000000"/>
    <path d="M 47.609311 99.116566 
C 47.741912 99.116566 47.869101 99.063882 47.962864 98.970119 
C 48.056628 98.876356 48.109311 98.749167 48.109311 98.616566 
C 48.109311 98.483964 48.056628 98.356776 47.962864 98.263012 
C 47.869101 98.169249 47.741912 98.116566 47.609311 98.116566 
C 47.476709 98.116566 47.349521 98.169249 47.255757 98.263012 
C 47.161994 98.356776 47.109311 98.483964 47.109311 98.616566 
C 47.109311 98.749167 47.161994 98.876356 47.255757 98.970119 
C 47.349521 99.063882 47.476709 99.116566 47.609311 99.116566 
z
" clip-path="url(#p3b90e0ee12)" style="stroke: #000000"/>
    <path d="M 61.644406 151.703269 
C 61.777008 151.703269 61.904196 151.650586 61.997959 151.556822 
C 62.091723 151.463059 62.144406 151.33587 62.144406 151.203269 
C 62.144406 151.070667 62.091723 150.943479 61.997959 150.849715 
C 61.904196 150.755952 61.777008 150.703269 61.644406 150.703269 
C 61.511805 150.703269 61.384616 150.755952 61.290853 150.849715 
C 61.197089 150.943479 61.144406 151.070667 61.144406 151.203269 
C 61.144406 151.33587 61.197089 151.463059 61.290853 151.556822 
C 61.384616 151.650586 61.511805 151.703269 61.644406 151.703269 
z
" clip-path="url(#p3b90e0ee12)" style="stroke: #000000"/>
    <path d="M 44.680374 109.357433 
C 44.838064 109.357433 44.989318 109.294782 45.100822 109.183277 
C 45.212326 109.071773 45.274977 108.92052 45.274977 108.762829 
C 45.274977 108.605138 45.212326 108.453885 45.100822 108.342381 
C 44.989318 108.230877 44.838064 108.168226 44.680374 108.168226 
C 44.522683 108.168226 44.37143 108.230877 44.259925 108.342381 
C 44.148421 108.453885 44.08577 108.605138 44.08577 108.762829 
C 44.08577 108.92052 44.148421 109.071773 44.259925 109.183277 
C 44.37143 109.294782 44.522683 109.357433 44.680374 109.357433 
z
" clip-path="url(#p3b90e0ee12)" style="stroke: #000000"/>
    <path d="M 52.271871 139.671208 
C 52.429561 139.671208 52.580815 139.608557 52.692319 139.497052 
C 52.803823 139.385548 52.866474 139.234295 52.866474 139.076604 
C 52.866474 138.918913 52.803823 138.76766 52.692319 138.656156 
C 52.580815 138.544652 52.429561 138.482001 52.271871 138.482001 
C 52.11418 138.482001 51.962926 138.544652 51.851422 138.656156 
C 51.739918 138.76766 51.677267 138.918913 51.677267 139.076604 
C 51.677267 139.234295 51.739918 139.385548 51.851422 139.497052 
C 51.962926 139.608557 52.11418 139.671208 52.271871 139.671208 
z
" clip-path="url(#p3b90e0ee12)" style="stroke: #000000"/>
    <path d="M 49.809835 132.080335 
C 49.967525 132.080335 50.118779 132.017684 50.230283 131.90618 
C 50.341787 131.794676 50.404438 131.643422 50.404438 131.485732 
C 50.404438 131.328041 50.341787 131.176788 50.230283 131.065283 
C 50.118779 130.953779 49.967525 130.891128 49.809835 130.891128 
C 49.652144 130.891128 49.500891 130.953779 49.389386 131.065283 
C 49.277882 131.176788 49.215231 131.328041 49.215231 131.485732 
C 49.215231 131.643422 49.277882 131.794676 49.389386 131.90618 
C 49.500891 132.017684 49.652144 132.080335 49.809835 132.080335 
z
" clip-path="url(#p3b90e0ee12)" style="stroke: #000000"/>
    <path d="M 46.199576 126.744178 
C 46.332177 126.744178 46.459366 126.691495 46.553129 126.597731 
C 46.646893 126.503968 46.699576 126.376779 46.699576 126.244178 
C 46.699576 126.111576 46.646893 125.984388 46.553129 125.890624 
C 46.459366 125.796861 46.332177 125.744178 46.199576 125.744178 
C 46.066974 125.744178 45.939786 125.796861 45.846022 125.890624 
C 45.752259 125.984388 45.699576 126.111576 45.699576 126.244178 
C 45.699576 126.376779 45.752259 126.503968 45.846022 126.597731 
C 45.939786 126.691495 46.066974 126.744178 46.199576 126.744178 
z
" clip-path="url(#p3b90e0ee12)" style="stroke: #000000"/>
    <path d="M 42.798666 115.052645 
C 42.931268 115.052645 43.058456 114.999962 43.15222 114.906198 
C 43.245983 114.812435 43.298666 114.685247 43.298666 114.552645 
C 43.298666 114.420044 43.245983 114.292855 43.15222 114.199092 
C 43.058456 114.105328 42.931268 114.052645 42.798666 114.052645 
C 42.666065 114.052645 42.538876 114.105328 42.445113 114.199092 
C 42.351349 114.292855 42.298666 114.420044 42.298666 114.552645 
C 42.298666 114.685247 42.351349 114.812435 42.445113 114.906198 
C 42.538876 114.999962 42.666065 115.052645 42.798666 115.052645 
z
" clip-path="url(#p3b90e0ee12)" style="stroke: #000000"/>
    <path d="M 37.56218 102.855761 
C 37.694782 102.855761 37.82197 102.803078 37.915733 102.709314 
C 38.009497 102.615551 38.06218 102.488362 38.06218 102.355761 
C 38.06218 102.223159 38.009497 102.095971 37.915733 102.002208 
C 37.82197 101.908444 37.694782 101.855761 37.56218 101.855761 
C 37.429578 101.855761 37.30239 101.908444 37.208627 102.002208 
C 37.114863 102.095971 37.06218 102.223159 37.06218 102.355761 
C 37.06218 102.488362 37.114863 102.615551 37.208627 102.709314 
C 37.30239 102.803078 37.429578 102.855761 37.56218 102.855761 
z
" clip-path="url(#p3b90e0ee12)" style="stroke: #000000"/>
    <path d="M 33.94788 93.373351 
C 34.10557 93.373351 34.256824 93.3107 34.368328 93.199196 
C 34.479832 93.087692 34.542483 92.936439 34.542483 92.778748 
C 34.542483 92.621057 34.479832 92.469804 34.368328 92.3583 
C 34.256824 92.246795 34.10557 92.184144 33.94788 92.184144 
C 33.790189 92.184144 33.638936 92.246795 33.527431 92.3583 
C 33.415927 92.469804 33.353276 92.621057 33.353276 92.778748 
C 33.353276 92.936439 33.415927 93.087692 33.527431 93.199196 
C 33.638936 93.3107 33.790189 93.373351 33.94788 93.373351 
z
" clip-path="url(#p3b90e0ee12)" style="stroke: #000000"/>
    <path d="M 45.88183 137.708902 
C 46.014432 137.708902 46.14162 137.656219 46.235383 137.562455 
C 46.329147 137.468692 46.38183 137.341503 46.38183 137.208902 
C 46.38183 137.0763 46.329147 136.949112 46.235383 136.855348 
C 46.14162 136.761585 46.014432 136.708902 45.88183 136.708902 
C 45.749229 136.708902 45.62204 136.761585 45.528277 136.855348 
C 45.434513 136.949112 45.38183 137.0763 45.38183 137.208902 
C 45.38183 137.341503 45.434513 137.468692 45.528277 137.562455 
C 45.62204 137.656219 45.749229 137.708902 45.88183 137.708902 
z
" clip-path="url(#p3b90e0ee12)" style="stroke: #000000"/>
    <path d="M 32.30702 118.669582 
C 32.439622 118.669582 32.56681 118.616899 32.660574 118.523136 
C 32.754337 118.429372 32.80702 118.302184 32.80702 118.169582 
C 32.80702 118.036981 32.754337 117.909792 32.660574 117.816029 
C 32.56681 117.722265 32.439622 117.669582 32.30702 117.669582 
C 32.174419 117.669582 32.04723 117.722265 31.953467 117.816029 
C 31.859703 117.909792 31.80702 118.036981 31.80702 118.169582 
C 31.80702 118.302184 31.859703 118.429372 31.953467 118.523136 
C 32.04723 118.616899 32.174419 118.669582 32.30702 118.669582 
z
" clip-path="url(#p3b90e0ee12)" style="stroke: #000000"/>
    <path d="M 41.117239 152.221938 
C 41.24984 152.221938 41.377029 152.169254 41.470792 152.075491 
C 41.564556 151.981728 41.617239 151.854539 41.617239 151.721938 
C 41.617239 151.589336 41.564556 151.462148 41.470792 151.368384 
C 41.377029 151.274621 41.24984 151.221938 41.117239 151.221938 
C 40.984637 151.221938 40.857449 151.274621 40.763686 151.368384 
C 40.669922 151.462148 40.617239 151.589336 40.617239 151.721938 
C 40.617239 151.854539 40.669922 151.981728 40.763686 152.075491 
C 40.857449 152.169254 40.984637 152.221938 41.117239 152.221938 
z
" clip-path="url(#p3b90e0ee12)" style="stroke: #000000"/>
    <path d="M 31.64382 128.08101 
C 31.776422 128.08101 31.90361 128.028327 31.997374 127.934563 
C 32.091137 127.8408 32.14382 127.713611 32.14382 127.58101 
C 32.14382 127.448408 32.091137 127.32122 31.997374 127.227456 
C 31.90361 127.133693 31.776422 127.08101 31.64382 127.08101 
C 31.511219 127.08101 31.384031 127.133693 31.290267 127.227456 
C 31.196504 127.32122 31.14382 127.448408 31.14382 127.58101 
C 31.14382 127.713611 31.196504 127.8408 31.290267 127.934563 
C 31.384031 128.028327 31.511219 128.08101 31.64382 128.08101 
z
" clip-path="url(#p3b90e0ee12)" style="stroke: #000000"/>
   </g>
   <g id="matplotlib.axis_1">
    <g id="xtick_1">
     <g id="line2d_1">
      <defs>
       <path id="m2c34d288f0" d="M 0 0 
L 0 3.5 
" style="stroke: #000000; stroke-width: 0.8"/>
      </defs>
      <g>
       <use xlink:href="#m2c34d288f0" x="18" y="189" style="stroke: #000000; stroke-width: 0.8"/>
      </g>
     </g>
     <g id="text_1">
      <!-- 10 -->
      <g transform="translate(7.447656 203.598437)scale(0.1 -0.1)">
       <defs>
        <path id="DejaVuSans-2212" d="M 678 2272 
L 4684 2272 
L 4684 1741 
L 678 1741 
L 678 2272 
z
" transform="scale(0.015625)"/>
        <path id="DejaVuSans-31" d="M 794 531 
L 1825 531 
L 1825 4091 
L 703 3866 
L 703 4441 
L 1819 4666 
L 2450 4666 
L 2450 531 
L 3481 531 
L 3481 0 
L 794 0 
L 794 531 
z
" transform="scale(0.015625)"/>
        <path id="DejaVuSans-30" d="M 2034 4250 
Q 1547 4250 1301 3770 
Q 1056 3291 1056 2328 
Q 1056 1369 1301 889 
Q 1547 409 2034 409 
Q 2525 409 2770 889 
Q 3016 1369 3016 2328 
Q 3016 3291 2770 3770 
Q 2525 4250 2034 4250 
z
M 2034 4750 
Q 2819 4750 3233 4129 
Q 3647 3509 3647 2328 
Q 3647 1150 3233 529 
Q 2819 -91 2034 -91 
Q 1250 -91 836 529 
Q 422 1150 422 2328 
Q 422 3509 836 4129 
Q 1250 4750 2034 4750 
z
" transform="scale(0.015625)"/>
       </defs>
       <use xlink:href="#DejaVuSans-2212"/>
       <use xlink:href="#DejaVuSans-31" x="83.789062"/>
       <use xlink:href="#DejaVuSans-30" x="147.412109"/>
      </g>
     </g>
    </g>
    <g id="xtick_2">
     <g id="line2d_2">
      <g>
       <use xlink:href="#m2c34d288f0" x="73.8" y="189" style="stroke: #000000; stroke-width: 0.8"/>
      </g>
     </g>
     <g id="text_2">
      <!-- 0 -->
      <g transform="translate(70.61875 203.598437)scale(0.1 -0.1)">
       <use xlink:href="#DejaVuSans-30"/>
      </g>
     </g>
    </g>
    <g id="xtick_3">
     <g id="line2d_3">
      <g>
       <use xlink:href="#m2c34d288f0" x="129.6" y="189" style="stroke: #000000; stroke-width: 0.8"/>
      </g>
     </g>
     <g id="text_3">
      <!-- 10 -->
      <g transform="translate(123.2375 203.598437)scale(0.1 -0.1)">
       <use xlink:href="#DejaVuSans-31"/>
       <use xlink:href="#DejaVuSans-30" x="63.623047"/>
      </g>
     </g>
    </g>
   </g>
   <g id="matplotlib.axis_2">
    <g id="ytick_1">
     <g id="line2d_4">
      <defs>
       <path id="me456d6ae6d" d="M 0 0 
L -3.5 0 
" style="stroke: #000000; stroke-width: 0.8"/>
      </defs>
      <g>
       <use xlink:href="#me456d6ae6d" x="18" y="189" style="stroke: #000000; stroke-width: 0.8"/>
      </g>
     </g>
     <g id="text_4">
      <!-- 15 -->
      <g transform="translate(-10.104688 192.799219)scale(0.1 -0.1)">
       <defs>
        <path id="DejaVuSans-35" d="M 691 4666 
L 3169 4666 
L 3169 4134 
L 1269 4134 
L 1269 2991 
Q 1406 3038 1543 3061 
Q 1681 3084 1819 3084 
Q 2600 3084 3056 2656 
Q 3513 2228 3513 1497 
Q 3513 744 3044 326 
Q 2575 -91 1722 -91 
Q 1428 -91 1123 -41 
Q 819 9 494 109 
L 494 744 
Q 775 591 1075 516 
Q 1375 441 1709 441 
Q 2250 441 2565 725 
Q 2881 1009 2881 1497 
Q 2881 1984 2565 2268 
Q 2250 2553 1709 2553 
Q 1456 2553 1204 2497 
Q 953 2441 691 2322 
L 691 4666 
z
" transform="scale(0.015625)"/>
       </defs>
       <use xlink:href="#DejaVuSans-2212"/>
       <use xlink:href="#DejaVuSans-31" x="83.789062"/>
       <use xlink:href="#DejaVuSans-35" x="147.412109"/>
      </g>
     </g>
    </g>
    <g id="ytick_2">
     <g id="line2d_5">
      <g>
       <use xlink:href="#me456d6ae6d" x="18" y="161.82" style="stroke: #000000; stroke-width: 0.8"/>
      </g>
     </g>
     <g id="text_5">
      <!-- 10 -->
      <g transform="translate(-10.104688 165.619219)scale(0.1 -0.1)">
       <use xlink:href="#DejaVuSans-2212"/>
       <use xlink:href="#DejaVuSans-31" x="83.789062"/>
       <use xlink:href="#DejaVuSans-30" x="147.412109"/>
      </g>
     </g>
    </g>
    <g id="ytick_3">
     <g id="line2d_6">
      <g>
       <use xlink:href="#me456d6ae6d" x="18" y="134.64" style="stroke: #000000; stroke-width: 0.8"/>
      </g>
     </g>
     <g id="text_6">
      <!-- 5 -->
      <g transform="translate(-3.742188 138.439219)scale(0.1 -0.1)">
       <use xlink:href="#DejaVuSans-2212"/>
       <use xlink:href="#DejaVuSans-35" x="83.789062"/>
      </g>
     </g>
    </g>
    <g id="ytick_4">
     <g id="line2d_7">
      <g>
       <use xlink:href="#me456d6ae6d" x="18" y="107.46" style="stroke: #000000; stroke-width: 0.8"/>
      </g>
     </g>
     <g id="text_7">
      <!-- 0 -->
      <g transform="translate(4.6375 111.259219)scale(0.1 -0.1)">
       <use xlink:href="#DejaVuSans-30"/>
      </g>
     </g>
    </g>
    <g id="ytick_5">
     <g id="line2d_8">
      <g>
       <use xlink:href="#me456d6ae6d" x="18" y="80.28" style="stroke: #000000; stroke-width: 0.8"/>
      </g>
     </g>
     <g id="text_8">
      <!-- 5 -->
      <g transform="translate(4.6375 84.079219)scale(0.1 -0.1)">
       <use xlink:href="#DejaVuSans-35"/>
      </g>
     </g>
    </g>
    <g id="ytick_6">
     <g id="line2d_9">
      <g>
       <use xlink:href="#me456d6ae6d" x="18" y="53.1" style="stroke: #000000; stroke-width: 0.8"/>
      </g>
     </g>
     <g id="text_9">
      <!-- 10 -->
      <g transform="translate(-1.725 56.899219)scale(0.1 -0.1)">
       <use xlink:href="#DejaVuSans-31"/>
       <use xlink:href="#DejaVuSans-30" x="63.623047"/>
      </g>
     </g>
    </g>
    <g id="ytick_7">
     <g id="line2d_10">
      <g>
       <use xlink:href="#me456d6ae6d" x="18" y="25.92" style="stroke: #000000; stroke-width: 0.8"/>
      </g>
     </g>
     <g id="text_10">
      <!-- 15 -->
      <g transform="translate(-1.725 29.719219)scale(0.1 -0.1)">
       <use xlink:href="#DejaVuSans-31"/>
       <use xlink:href="#DejaVuSans-35" x="63.623047"/>
      </g>
     </g>
    </g>
   </g>
   <g id="patch_3">
    <path d="M 18 189 
L 18 25.92 
" style="fill: none; stroke: #000000; stroke-width: 0.8; stroke-linejoin: miter; stroke-linecap: square"/>
   </g>
   <g id="patch_4">
    <path d="M 129.6 189 
L 129.6 25.92 
" style="fill: none; stroke: #000000; stroke-width: 0.8; stroke-linejoin: miter; stroke-linecap: square"/>
   </g>
   <g id="patch_5">
    <path d="M 18 189 
L 129.6 189 
" style="fill: none; stroke: #000000; stroke-width: 0.8; stroke-linejoin: miter; stroke-linecap: square"/>
   </g>
   <g id="patch_6">
    <path d="M 18 25.92 
L 129.6 25.92 
" style="fill: none; stroke: #000000; stroke-width: 0.8; stroke-linejoin: miter; stroke-linecap: square"/>
   </g>
  </g>
 </g>
 <defs>
  <clipPath id="p3b90e0ee12">
   <rect x="18" y="25.92" width="111.6" height="163.08"/>
  </clipPath>
 </defs>
</svg>
