<?xml version="1.0" encoding="utf-8" standalone="no"?>
<!DOCTYPE svg PUBLIC "-//W3C//DTD SVG 1.1//EN"
  "http://www.w3.org/Graphics/SVG/1.1/DTD/svg11.dtd">
<svg xmlns:xlink="http://www.w3.org/1999/xlink" width="144pt" height="216pt" viewBox="0 0 144 216" xmlns="http://www.w3.org/2000/svg" version="1.1">
 <metadata>
  <rdf:RDF xmlns:dc="http://purl.org/dc/elements/1.1/" xmlns:cc="http://creativecommons.org/ns#" xmlns:rdf="http://www.w3.org/1999/02/22-rdf-syntax-ns#">
   <cc:Work>
    <dc:type rdf:resource="http://purl.org/dc/dcmitype/StillImage"/>
    <dc:date>2022-06-23T14:47:06.505520</dc:date>
    <dc:format>image/svg+xml</dc:format>
    <dc:creator>
     <cc:Agent>
      <dc:title>Matplotlib v3.5.1, https://matplotlib.org/</dc:title>
     </cc:Agent>
    </dc:creator>
   </cc:Work>
  </rdf:RDF>
 </metadata>
 <defs>
  <style type="text/css">*{stroke-linejoin: round; stroke-linecap: butt}</style>
 </defs>
 <g id="figure_1">
  <g id="patch_1">
   <path d="M 0 216 
L 144 216 
L 144 0 
L 0 0 
L 0 216 
z
" style="fill: none"/>
  </g>
  <g id="axes_1">
   <g id="patch_2">
    <path d="M 18 189 
L 129.6 189 
L 129.6 25.92 
L 18 25.92 
z
" style="fill: #ffffff"/>
   </g>
   <g id="PathCollection_1">
    <defs>
     <path id="m89d2c10beb" d="M 0 2.738613 
C 0.726289 2.738613 1.422928 2.450055 1.936492 1.936492 
C 2.450055 1.422928 2.738613 0.726289 2.738613 0 
C 2.738613 -0.726289 2.450055 -1.422928 1.936492 -1.936492 
C 1.422928 -2.450055 0.726289 -2.738613 0 -2.738613 
C -0.726289 -2.738613 -1.422928 -2.450055 -1.936492 -1.936492 
C -2.450055 -1.422928 -2.738613 -0.726289 -2.738613 0 
C -2.738613 0.726289 -2.450055 1.422928 -1.936492 1.936492 
C -1.422928 2.450055 -0.726289 2.738613 0 2.738613 
z
" style="stroke: #ff0000; stroke-width: 1.75"/>
    </defs>
    <g clip-path="url(#pc64ce70b80)">
     <use xlink:href="#m89d2c10beb" x="80.775" y="83.92143" style="fill: #ff0000; stroke: #ff0000; stroke-width: 1.75"/>
     <use xlink:href="#m89d2c10beb" x="59.85" y="95.690715" style="fill: #ff0000; stroke: #ff0000; stroke-width: 1.75"/>
     <use xlink:href="#m89d2c10beb" x="66.825" y="107.46" style="fill: #ff0000; stroke: #ff0000; stroke-width: 1.75"/>
     <use xlink:href="#m89d2c10beb" x="80.775" y="107.46" style="fill: #ff0000; stroke: #ff0000; stroke-width: 1.75"/>
     <use xlink:href="#m89d2c10beb" x="94.725" y="107.46" style="fill: #ff0000; stroke: #ff0000; stroke-width: 1.75"/>
     <use xlink:href="#m89d2c10beb" x="59.85" y="119.229285" style="fill: #ff0000; stroke: #ff0000; stroke-width: 1.75"/>
     <use xlink:href="#m89d2c10beb" x="80.775" y="130.99857" style="fill: #ff0000; stroke: #ff0000; stroke-width: 1.75"/>
    </g>
   </g>
   <g id="PathCollection_2">
    <defs>
     <path id="C0_0_e661b76e83" d="M 0 2.738613 
C 0.726289 2.738613 1.422928 2.450055 1.936492 1.936492 
C 2.450055 1.422928 2.738613 0.726289 2.738613 -0 
C 2.738613 -0.726289 2.450055 -1.422928 1.936492 -1.936492 
C 1.422928 -2.450055 0.726289 -2.738613 0 -2.738613 
C -0.726289 -2.738613 -1.422928 -2.450055 -1.936492 -1.936492 
C -2.450055 -1.422928 -2.738613 -0.726289 -2.738613 0 
C -2.738613 0.726289 -2.450055 1.422928 -1.936492 1.936492 
C -1.422928 2.450055 -0.726289 2.738613 0 2.738613 
z
"/>
    </defs>
    <g clip-path="url(#pc64ce70b80)">
     <use xlink:href="#C0_0_e661b76e83" x="66.825" y="83.92143" style="fill: none; stroke: #ff0000; stroke-width: 1.75"/>
    </g>
    <g clip-path="url(#pc64ce70b80)">
     <use xlink:href="#C0_0_e661b76e83" x="73.8" y="95.690715" style="fill: none; stroke: #ff0000; stroke-width: 1.75"/>
    </g>
    <g clip-path="url(#pc64ce70b80)">
     <use xlink:href="#C0_0_e661b76e83" x="87.75" y="95.690715" style="fill: none; stroke: #ff0000; stroke-width: 1.75"/>
    </g>
    <g clip-path="url(#pc64ce70b80)">
     <use xlink:href="#C0_0_e661b76e83" x="52.875" y="107.46" style="fill: none; stroke: #ff0000; stroke-width: 1.75"/>
    </g>
    <g clip-path="url(#pc64ce70b80)">
     <use xlink:href="#C0_0_e661b76e83" x="73.8" y="119.229285" style="fill: none; stroke: #ff0000; stroke-width: 1.75"/>
    </g>
    <g clip-path="url(#pc64ce70b80)">
     <use xlink:href="#C0_0_e661b76e83" x="87.75" y="119.229285" style="fill: none; stroke: #ff0000; stroke-width: 1.75"/>
    </g>
    <g clip-path="url(#pc64ce70b80)">
     <use xlink:href="#C0_0_e661b76e83" x="66.825" y="130.99857" style="fill: none; stroke: #ff0000; stroke-width: 1.75"/>
    </g>
   </g>
   <g id="PathCollection_3">
    <path d="M 119.114066 173.425606 
C 119.246667 173.425606 119.373856 173.372922 119.467619 173.279159 
C 119.561383 173.185395 119.614066 173.058207 119.614066 172.925606 
C 119.614066 172.793004 119.561383 172.665816 119.467619 172.572052 
C 119.373856 172.478289 119.246667 172.425606 119.114066 172.425606 
C 118.981464 172.425606 118.854276 172.478289 118.760512 172.572052 
C 118.666749 172.665816 118.614066 172.793004 118.614066 172.925606 
C 118.614066 173.058207 118.666749 173.185395 118.760512 173.279159 
C 118.854276 173.372922 118.981464 173.425606 119.114066 173.425606 
z
" clip-path="url(#pc64ce70b80)" style="stroke: #000000"/>
    <path d="M 94.247548 98.525535 
C 94.380149 98.525535 94.507338 98.472851 94.601101 98.379088 
C 94.694865 98.285325 94.747548 98.158136 94.747548 98.025535 
C 94.747548 97.892933 94.694865 97.765745 94.601101 97.671981 
C 94.507338 97.578218 94.380149 97.525535 94.247548 97.525535 
C 94.114946 97.525535 93.987758 97.578218 93.893994 97.671981 
C 93.800231 97.765745 93.747548 97.892933 93.747548 98.025535 
C 93.747548 98.158136 93.800231 98.285325 93.893994 98.379088 
C 93.987758 98.472851 94.114946 98.525535 94.247548 98.525535 
z
" clip-path="url(#pc64ce70b80)" style="stroke: #000000"/>
    <path d="M 90.380371 92.889815 
C 90.538062 92.889815 90.689315 92.827163 90.800819 92.715659 
C 90.912323 92.604155 90.974975 92.452902 90.974975 92.295211 
C 90.974975 92.13752 90.912323 91.986267 90.800819 91.874763 
C 90.689315 91.763259 90.538062 91.700608 90.380371 91.700608 
C 90.22268 91.700608 90.071427 91.763259 89.959923 91.874763 
C 89.848419 91.986267 89.785767 92.13752 89.785767 92.295211 
C 89.785767 92.452902 89.848419 92.604155 89.959923 92.715659 
C 90.071427 92.827163 90.22268 92.889815 90.380371 92.889815 
z
" clip-path="url(#pc64ce70b80)" style="stroke: #000000"/>
    <path d="M 86.398645 99.688013 
C 86.759754 99.688013 87.106123 99.544543 87.361466 99.289199 
C 87.616809 99.033856 87.760279 98.687488 87.760279 98.326378 
C 87.760279 97.965268 87.616809 97.6189 87.361466 97.363557 
C 87.106123 97.108214 86.759754 96.964743 86.398645 96.964743 
C 86.037535 96.964743 85.691166 97.108214 85.435823 97.363557 
C 85.18048 97.6189 85.03701 97.965268 85.03701 98.326378 
C 85.03701 98.687488 85.18048 99.033856 85.435823 99.289199 
C 85.691166 99.544543 86.037535 99.688013 86.398645 99.688013 
z
" clip-path="url(#pc64ce70b80)" style="stroke: #000000"/>
    <path d="M 80.936873 88.235382 
C 81.270349 88.235382 81.59021 88.102891 81.826013 87.867089 
C 82.061816 87.631286 82.194307 87.311424 82.194307 86.977949 
C 82.194307 86.644474 82.061816 86.324612 81.826013 86.088809 
C 81.59021 85.853007 81.270349 85.720515 80.936873 85.720515 
C 80.603398 85.720515 80.283536 85.853007 80.047734 86.088809 
C 79.811931 86.324612 79.67944 86.644474 79.67944 86.977949 
C 79.67944 87.311424 79.811931 87.631286 80.047734 87.867089 
C 80.283536 88.102891 80.603398 88.235382 80.936873 88.235382 
z
" clip-path="url(#pc64ce70b80)" style="stroke: #000000"/>
    <path d="M 85.915692 119.330153 
C 86.073382 119.330153 86.224636 119.267502 86.33614 119.155997 
C 86.447644 119.044493 86.510295 118.89324 86.510295 118.735549 
C 86.510295 118.577858 86.447644 118.426605 86.33614 118.315101 
C 86.224636 118.203597 86.073382 118.140946 85.915692 118.140946 
C 85.758001 118.140946 85.606748 118.203597 85.495243 118.315101 
C 85.383739 118.426605 85.321088 118.577858 85.321088 118.735549 
C 85.321088 118.89324 85.383739 119.044493 85.495243 119.155997 
C 85.606748 119.267502 85.758001 119.330153 85.915692 119.330153 
z
" clip-path="url(#pc64ce70b80)" style="stroke: #000000"/>
    <path d="M 83.105417 110.47528 
C 83.508044 110.47528 83.894235 110.315314 84.178936 110.030614 
C 84.463637 109.745913 84.623602 109.359722 84.623602 108.957095 
C 84.623602 108.554467 84.463637 108.168276 84.178936 107.883576 
C 83.894235 107.598875 83.508044 107.43891 83.105417 107.43891 
C 82.70279 107.43891 82.316599 107.598875 82.031898 107.883576 
C 81.747197 108.168276 81.587232 108.554467 81.587232 108.957095 
C 81.587232 109.359722 81.747197 109.745913 82.031898 110.030614 
C 82.316599 110.315314 82.70279 110.47528 83.105417 110.47528 
z
" clip-path="url(#pc64ce70b80)" style="stroke: #000000"/>
    <path d="M 77.377059 94.729262 
C 77.551573 94.729262 77.718962 94.659927 77.842362 94.536527 
C 77.965761 94.413128 78.035096 94.245739 78.035096 94.071225 
C 78.035096 93.896712 77.965761 93.729322 77.842362 93.605923 
C 77.718962 93.482523 77.551573 93.413188 77.377059 93.413188 
C 77.202546 93.413188 77.035156 93.482523 76.911757 93.605923 
C 76.788357 93.729322 76.719022 93.896712 76.719022 94.071225 
C 76.719022 94.245739 76.788357 94.413128 76.911757 94.536527 
C 77.035156 94.659927 77.202546 94.729262 77.377059 94.729262 
z
" clip-path="url(#pc64ce70b80)" style="stroke: #000000"/>
    <path d="M 75.726811 91.037984 
C 75.934344 91.037984 76.133404 90.95553 76.280152 90.808782 
C 76.4269 90.662035 76.509353 90.462974 76.509353 90.255442 
C 76.509353 90.047909 76.4269 89.848848 76.280152 89.702101 
C 76.133404 89.555353 75.934344 89.472899 75.726811 89.472899 
C 75.519278 89.472899 75.320218 89.555353 75.17347 89.702101 
C 75.026722 89.848848 74.944269 90.047909 74.944269 90.255442 
C 74.944269 90.462974 75.026722 90.662035 75.17347 90.808782 
C 75.320218 90.95553 75.519278 91.037984 75.726811 91.037984 
z
" clip-path="url(#pc64ce70b80)" style="stroke: #000000"/>
    <path d="M 83.378084 132.635544 
C 83.690973 132.635544 83.991088 132.511232 84.212333 132.289987 
C 84.433578 132.068741 84.55789 131.768626 84.55789 131.455738 
C 84.55789 131.14285 84.433578 130.842735 84.212333 130.62149 
C 83.991088 130.400244 83.690973 130.275933 83.378084 130.275933 
C 83.065196 130.275933 82.765081 130.400244 82.543836 130.62149 
C 82.322591 130.842735 82.198279 131.14285 82.198279 131.455738 
C 82.198279 131.768626 82.322591 132.068741 82.543836 132.289987 
C 82.765081 132.511232 83.065196 132.635544 83.378084 132.635544 
z
" clip-path="url(#pc64ce70b80)" style="stroke: #000000"/>
    <path d="M 70.799017 95.55922 
C 71.014704 95.55922 71.221585 95.473527 71.374099 95.321014 
C 71.526612 95.1685 71.612305 94.961619 71.612305 94.745932 
C 71.612305 94.530245 71.526612 94.323364 71.374099 94.17085 
C 71.221585 94.018337 71.014704 93.932644 70.799017 93.932644 
C 70.583331 93.932644 70.376449 94.018337 70.223936 94.17085 
C 70.071422 94.323364 69.985729 94.530245 69.985729 94.745932 
C 69.985729 94.961619 70.071422 95.1685 70.223936 95.321014 
C 70.376449 95.473527 70.583331 95.55922 70.799017 95.55922 
z
" clip-path="url(#pc64ce70b80)" style="stroke: #000000"/>
    <path d="M 67.021344 85.042523 
C 67.473337 85.042523 67.906879 84.862944 68.226486 84.543336 
C 68.546094 84.223729 68.725673 83.790187 68.725673 83.338194 
C 68.725673 82.8862 68.546094 82.452659 68.226486 82.133051 
C 67.906879 81.813444 67.473337 81.633865 67.021344 81.633865 
C 66.56935 81.633865 66.135809 81.813444 65.816201 82.133051 
C 65.496594 82.452659 65.317015 82.8862 65.317015 83.338194 
C 65.317015 83.790187 65.496594 84.223729 65.816201 84.543336 
C 66.135809 84.862944 66.56935 85.042523 67.021344 85.042523 
z
" clip-path="url(#pc64ce70b80)" style="stroke: #000000"/>
    <path d="M 75.760369 121.676968 
C 75.892971 121.676968 76.020159 121.624285 76.113923 121.530522 
C 76.207686 121.436758 76.260369 121.30957 76.260369 121.176968 
C 76.260369 121.044367 76.207686 120.917178 76.113923 120.823415 
C 76.020159 120.729651 75.892971 120.676968 75.760369 120.676968 
C 75.627768 120.676968 75.500579 120.729651 75.406816 120.823415 
C 75.313053 120.917178 75.260369 121.044367 75.260369 121.176968 
C 75.260369 121.30957 75.313053 121.436758 75.406816 121.530522 
C 75.500579 121.624285 75.627768 121.676968 75.760369 121.676968 
z
" clip-path="url(#pc64ce70b80)" style="stroke: #000000"/>
    <path d="M 71.688623 120.163983 
C 72.074885 120.163983 72.445378 120.01052 72.718507 119.737391 
C 72.991635 119.464263 73.145098 119.09377 73.145098 118.707508 
C 73.145098 118.321246 72.991635 117.950753 72.718507 117.677624 
C 72.445378 117.404496 72.074885 117.251032 71.688623 117.251032 
C 71.302361 117.251032 70.931868 117.404496 70.658739 117.677624 
C 70.385611 117.950753 70.232148 118.321246 70.232148 118.707508 
C 70.232148 119.09377 70.385611 119.464263 70.658739 119.737391 
C 70.931868 120.01052 71.302361 120.163983 71.688623 120.163983 
z
" clip-path="url(#pc64ce70b80)" style="stroke: #000000"/>
    <path d="M 69.06778 109.280089 
C 69.442833 109.280089 69.802577 109.131079 70.06778 108.865876 
C 70.332983 108.600673 70.481993 108.24093 70.481993 107.865876 
C 70.481993 107.490822 70.332983 107.131079 70.06778 106.865876 
C 69.802577 106.600673 69.442833 106.451662 69.06778 106.451662 
C 68.692726 106.451662 68.332983 106.600673 68.06778 106.865876 
C 67.802577 107.131079 67.653566 107.490822 67.653566 107.865876 
C 67.653566 108.24093 67.802577 108.600673 68.06778 108.865876 
C 68.332983 109.131079 68.692726 109.280089 69.06778 109.280089 
z
" clip-path="url(#pc64ce70b80)" style="stroke: #000000"/>
    <path d="M 67.185273 104.344716 
C 67.317875 104.344716 67.445063 104.292033 67.538827 104.19827 
C 67.63259 104.104506 67.685273 103.977318 67.685273 103.844716 
C 67.685273 103.712115 67.63259 103.584926 67.538827 103.491163 
C 67.445063 103.397399 67.317875 103.344716 67.185273 103.344716 
C 67.052672 103.344716 66.925483 103.397399 66.83172 103.491163 
C 66.737957 103.584926 66.685273 103.712115 66.685273 103.844716 
C 66.685273 103.977318 66.737957 104.104506 66.83172 104.19827 
C 66.925483 104.292033 67.052672 104.344716 67.185273 104.344716 
z
" clip-path="url(#pc64ce70b80)" style="stroke: #000000"/>
    <path d="M 69.476704 131.738771 
C 69.77897 131.738771 70.068897 131.618679 70.282631 131.404945 
C 70.496366 131.19121 70.616457 130.901283 70.616457 130.599017 
C 70.616457 130.296751 70.496366 130.006824 70.282631 129.79309 
C 70.068897 129.579355 69.77897 129.459264 69.476704 129.459264 
C 69.174437 129.459264 68.884511 129.579355 68.670776 129.79309 
C 68.457042 130.006824 68.33695 130.296751 68.33695 130.599017 
C 68.33695 130.901283 68.457042 131.19121 68.670776 131.404945 
C 68.884511 131.618679 69.174437 131.738771 69.476704 131.738771 
z
" clip-path="url(#pc64ce70b80)" style="stroke: #000000"/>
    <path d="M 64.329109 122.171871 
C 64.461711 122.171871 64.588899 122.119188 64.682663 122.025424 
C 64.776426 121.931661 64.829109 121.804473 64.829109 121.671871 
C 64.829109 121.539269 64.776426 121.412081 64.682663 121.318318 
C 64.588899 121.224554 64.461711 121.171871 64.329109 121.171871 
C 64.196508 121.171871 64.069319 121.224554 63.975556 121.318318 
C 63.881792 121.412081 63.829109 121.539269 63.829109 121.671871 
C 63.829109 121.804473 63.881792 121.931661 63.975556 122.025424 
C 64.069319 122.119188 64.196508 122.171871 64.329109 122.171871 
z
" clip-path="url(#pc64ce70b80)" style="stroke: #000000"/>
    <path d="M 63.808288 107.307565 
C 64.085133 107.307565 64.350677 107.197573 64.546436 107.001814 
C 64.742195 106.806055 64.852187 106.540512 64.852187 106.263666 
C 64.852187 105.986821 64.742195 105.721278 64.546436 105.525518 
C 64.350677 105.329759 64.085133 105.219768 63.808288 105.219768 
C 63.531443 105.219768 63.265899 105.329759 63.07014 105.525518 
C 62.874381 105.721278 62.764389 105.986821 62.764389 106.263666 
C 62.764389 106.540512 62.874381 106.806055 63.07014 107.001814 
C 63.265899 107.197573 63.531443 107.307565 63.808288 107.307565 
z
" clip-path="url(#pc64ce70b80)" style="stroke: #000000"/>
    <path d="M 56.097587 95.645502 
C 56.33339 95.645502 56.559567 95.551817 56.726304 95.385079 
C 56.893042 95.218341 56.986727 94.992165 56.986727 94.756362 
C 56.986727 94.52056 56.893042 94.294383 56.726304 94.127646 
C 56.559567 93.960908 56.33339 93.867223 56.097587 93.867223 
C 55.861785 93.867223 55.635608 93.960908 55.468871 94.127646 
C 55.302133 94.294383 55.208448 94.52056 55.208448 94.756362 
C 55.208448 94.992165 55.302133 95.218341 55.468871 95.385079 
C 55.635608 95.551817 55.861785 95.645502 56.097587 95.645502 
z
" clip-path="url(#pc64ce70b80)" style="stroke: #000000"/>
    <path d="M 59.293419 119.668723 
C 59.742026 119.668723 60.17232 119.49049 60.489534 119.173276 
C 60.806747 118.856063 60.984981 118.425769 60.984981 117.977162 
C 60.984981 117.528554 60.806747 117.09826 60.489534 116.781047 
C 60.17232 116.463834 59.742026 116.2856 59.293419 116.2856 
C 58.844812 116.2856 58.414518 116.463834 58.097304 116.781047 
C 57.780091 117.09826 57.601857 117.528554 57.601857 117.977162 
C 57.601857 118.425769 57.780091 118.856063 58.097304 119.173276 
C 58.414518 119.49049 58.844812 119.668723 59.293419 119.668723 
z
" clip-path="url(#pc64ce70b80)" style="stroke: #000000"/>
    <path d="M 59.485677 117.209407 
C 59.75088 117.209407 60.005257 117.10404 60.192784 116.916513 
C 60.38031 116.728986 60.485677 116.47461 60.485677 116.209407 
C 60.485677 115.944203 60.38031 115.689827 60.192784 115.5023 
C 60.005257 115.314773 59.75088 115.209407 59.485677 115.209407 
C 59.220474 115.209407 58.966097 115.314773 58.77857 115.5023 
C 58.591043 115.689827 58.485677 115.944203 58.485677 116.209407 
C 58.485677 116.47461 58.591043 116.728986 58.77857 116.916513 
C 58.966097 117.10404 59.220474 117.209407 59.485677 117.209407 
z
" clip-path="url(#pc64ce70b80)" style="stroke: #000000"/>
    <path d="M 55.597356 108.282931 
C 55.729958 108.282931 55.857146 108.230248 55.95091 108.136484 
C 56.044673 108.042721 56.097356 107.915533 56.097356 107.782931 
C 56.097356 107.65033 56.044673 107.523141 55.95091 107.429378 
C 55.857146 107.335614 55.729958 107.282931 55.597356 107.282931 
C 55.464755 107.282931 55.337566 107.335614 55.243803 107.429378 
C 55.150039 107.523141 55.097356 107.65033 55.097356 107.782931 
C 55.097356 107.915533 55.150039 108.042721 55.243803 108.136484 
C 55.337566 108.230248 55.464755 108.282931 55.597356 108.282931 
z
" clip-path="url(#pc64ce70b80)" style="stroke: #000000"/>
    <path d="M 50.771547 103.639029 
C 50.904149 103.639029 51.031337 103.586345 51.125101 103.492582 
C 51.218864 103.398819 51.271547 103.27163 51.271547 103.139029 
C 51.271547 103.006427 51.218864 102.879239 51.125101 102.785475 
C 51.031337 102.691712 50.904149 102.639029 50.771547 102.639029 
C 50.638946 102.639029 50.511757 102.691712 50.417994 102.785475 
C 50.32423 102.879239 50.271547 103.006427 50.271547 103.139029 
C 50.271547 103.27163 50.32423 103.398819 50.417994 103.492582 
C 50.511757 103.586345 50.638946 103.639029 50.771547 103.639029 
z
" clip-path="url(#pc64ce70b80)" style="stroke: #000000"/>
    <path d="M 32.311814 103.224499 
C 32.444416 103.224499 32.571604 103.171816 32.665367 103.078052 
C 32.759131 102.984289 32.811814 102.8571 32.811814 102.724499 
C 32.811814 102.591897 32.759131 102.464709 32.665367 102.370945 
C 32.571604 102.277182 32.444416 102.224499 32.311814 102.224499 
C 32.179212 102.224499 32.052024 102.277182 31.958261 102.370945 
C 31.864497 102.464709 31.811814 102.591897 31.811814 102.724499 
C 31.811814 102.8571 31.864497 102.984289 31.958261 103.078052 
C 32.052024 103.171816 32.179212 103.224499 32.311814 103.224499 
z
" clip-path="url(#pc64ce70b80)" style="stroke: #000000"/>
   </g>
   <g id="matplotlib.axis_1">
    <g id="xtick_1">
     <g id="line2d_1">
      <defs>
       <path id="mab20967b4c" d="M 0 0 
L 0 3.5 
" style="stroke: #000000; stroke-width: 0.8"/>
      </defs>
      <g>
       <use xlink:href="#mab20967b4c" x="18" y="189" style="stroke: #000000; stroke-width: 0.8"/>
      </g>
     </g>
     <g id="text_1">
      <!-- −10 -->
      <g transform="translate(7.447656 203.598437)scale(0.1 -0.1)">
       <defs>
        <path id="DejaVuSans-2212" d="M 678 2272 
L 4684 2272 
L 4684 1741 
L 678 1741 
L 678 2272 
z
" transform="scale(0.015625)"/>
        <path id="DejaVuSans-31" d="M 794 531 
L 1825 531 
L 1825 4091 
L 703 3866 
L 703 4441 
L 1819 4666 
L 2450 4666 
L 2450 531 
L 3481 531 
L 3481 0 
L 794 0 
L 794 531 
z
" transform="scale(0.015625)"/>
        <path id="DejaVuSans-30" d="M 2034 4250 
Q 1547 4250 1301 3770 
Q 1056 3291 1056 2328 
Q 1056 1369 1301 889 
Q 1547 409 2034 409 
Q 2525 409 2770 889 
Q 3016 1369 3016 2328 
Q 3016 3291 2770 3770 
Q 2525 4250 2034 4250 
z
M 2034 4750 
Q 2819 4750 3233 4129 
Q 3647 3509 3647 2328 
Q 3647 1150 3233 529 
Q 2819 -91 2034 -91 
Q 1250 -91 836 529 
Q 422 1150 422 2328 
Q 422 3509 836 4129 
Q 1250 4750 2034 4750 
z
" transform="scale(0.015625)"/>
       </defs>
       <use xlink:href="#DejaVuSans-2212"/>
       <use xlink:href="#DejaVuSans-31" x="83.789062"/>
       <use xlink:href="#DejaVuSans-30" x="147.412109"/>
      </g>
     </g>
    </g>
    <g id="xtick_2">
     <g id="line2d_2">
      <g>
       <use xlink:href="#mab20967b4c" x="73.8" y="189" style="stroke: #000000; stroke-width: 0.8"/>
      </g>
     </g>
     <g id="text_2">
      <!-- 0 -->
      <g transform="translate(70.61875 203.598437)scale(0.1 -0.1)">
       <use xlink:href="#DejaVuSans-30"/>
      </g>
     </g>
    </g>
    <g id="xtick_3">
     <g id="line2d_3">
      <g>
       <use xlink:href="#mab20967b4c" x="129.6" y="189" style="stroke: #000000; stroke-width: 0.8"/>
      </g>
     </g>
     <g id="text_3">
      <!-- 10 -->
      <g transform="translate(123.2375 203.598437)scale(0.1 -0.1)">
       <use xlink:href="#DejaVuSans-31"/>
       <use xlink:href="#DejaVuSans-30" x="63.623047"/>
      </g>
     </g>
    </g>
   </g>
   <g id="matplotlib.axis_2">
    <g id="ytick_1">
     <g id="line2d_4">
      <defs>
       <path id="m2f337765bc" d="M 0 0 
L -3.5 0 
" style="stroke: #000000; stroke-width: 0.8"/>
      </defs>
      <g>
       <use xlink:href="#m2f337765bc" x="18" y="189" style="stroke: #000000; stroke-width: 0.8"/>
      </g>
     </g>
     <g id="text_4">
      <!-- −15 -->
      <g transform="translate(-10.104688 192.799219)scale(0.1 -0.1)">
       <defs>
        <path id="DejaVuSans-35" d="M 691 4666 
L 3169 4666 
L 3169 4134 
L 1269 4134 
L 1269 2991 
Q 1406 3038 1543 3061 
Q 1681 3084 1819 3084 
Q 2600 3084 3056 2656 
Q 3513 2228 3513 1497 
Q 3513 744 3044 326 
Q 2575 -91 1722 -91 
Q 1428 -91 1123 -41 
Q 819 9 494 109 
L 494 744 
Q 775 591 1075 516 
Q 1375 441 1709 441 
Q 2250 441 2565 725 
Q 2881 1009 2881 1497 
Q 2881 1984 2565 2268 
Q 2250 2553 1709 2553 
Q 1456 2553 1204 2497 
Q 953 2441 691 2322 
L 691 4666 
z
" transform="scale(0.015625)"/>
       </defs>
       <use xlink:href="#DejaVuSans-2212"/>
       <use xlink:href="#DejaVuSans-31" x="83.789062"/>
       <use xlink:href="#DejaVuSans-35" x="147.412109"/>
      </g>
     </g>
    </g>
    <g id="ytick_2">
     <g id="line2d_5">
      <g>
       <use xlink:href="#m2f337765bc" x="18" y="161.82" style="stroke: #000000; stroke-width: 0.8"/>
      </g>
     </g>
     <g id="text_5">
      <!-- −10 -->
      <g transform="translate(-10.104688 165.619219)scale(0.1 -0.1)">
       <use xlink:href="#DejaVuSans-2212"/>
       <use xlink:href="#DejaVuSans-31" x="83.789062"/>
       <use xlink:href="#DejaVuSans-30" x="147.412109"/>
      </g>
     </g>
    </g>
    <g id="ytick_3">
     <g id="line2d_6">
      <g>
       <use xlink:href="#m2f337765bc" x="18" y="134.64" style="stroke: #000000; stroke-width: 0.8"/>
      </g>
     </g>
     <g id="text_6">
      <!-- −5 -->
      <g transform="translate(-3.742188 138.439219)scale(0.1 -0.1)">
       <use xlink:href="#DejaVuSans-2212"/>
       <use xlink:href="#DejaVuSans-35" x="83.789062"/>
      </g>
     </g>
    </g>
    <g id="ytick_4">
     <g id="line2d_7">
      <g>
       <use xlink:href="#m2f337765bc" x="18" y="107.46" style="stroke: #000000; stroke-width: 0.8"/>
      </g>
     </g>
     <g id="text_7">
      <!-- 0 -->
      <g transform="translate(4.6375 111.259219)scale(0.1 -0.1)">
       <use xlink:href="#DejaVuSans-30"/>
      </g>
     </g>
    </g>
    <g id="ytick_5">
     <g id="line2d_8">
      <g>
       <use xlink:href="#m2f337765bc" x="18" y="80.28" style="stroke: #000000; stroke-width: 0.8"/>
      </g>
     </g>
     <g id="text_8">
      <!-- 5 -->
      <g transform="translate(4.6375 84.079219)scale(0.1 -0.1)">
       <use xlink:href="#DejaVuSans-35"/>
      </g>
     </g>
    </g>
    <g id="ytick_6">
     <g id="line2d_9">
      <g>
       <use xlink:href="#m2f337765bc" x="18" y="53.1" style="stroke: #000000; stroke-width: 0.8"/>
      </g>
     </g>
     <g id="text_9">
      <!-- 10 -->
      <g transform="translate(-1.725 56.899219)scale(0.1 -0.1)">
       <use xlink:href="#DejaVuSans-31"/>
       <use xlink:href="#DejaVuSans-30" x="63.623047"/>
      </g>
     </g>
    </g>
    <g id="ytick_7">
     <g id="line2d_10">
      <g>
       <use xlink:href="#m2f337765bc" x="18" y="25.92" style="stroke: #000000; stroke-width: 0.8"/>
      </g>
     </g>
     <g id="text_10">
      <!-- 15 -->
      <g transform="translate(-1.725 29.719219)scale(0.1 -0.1)">
       <use xlink:href="#DejaVuSans-31"/>
       <use xlink:href="#DejaVuSans-35" x="63.623047"/>
      </g>
     </g>
    </g>
   </g>
   <g id="patch_3">
    <path d="M 18 189 
L 18 25.92 
" style="fill: none; stroke: #000000; stroke-width: 0.8; stroke-linejoin: miter; stroke-linecap: square"/>
   </g>
   <g id="patch_4">
    <path d="M 129.6 189 
L 129.6 25.92 
" style="fill: none; stroke: #000000; stroke-width: 0.8; stroke-linejoin: miter; stroke-linecap: square"/>
   </g>
   <g id="patch_5">
    <path d="M 18 189 
L 129.6 189 
" style="fill: none; stroke: #000000; stroke-width: 0.8; stroke-linejoin: miter; stroke-linecap: square"/>
   </g>
   <g id="patch_6">
    <path d="M 18 25.92 
L 129.6 25.92 
" style="fill: none; stroke: #000000; stroke-width: 0.8; stroke-linejoin: miter; stroke-linecap: square"/>
   </g>
  </g>
 </g>
 <defs>
  <clipPath id="pc64ce70b80">
   <rect x="18" y="25.92" width="111.6" height="163.08"/>
  </clipPath>
 </defs>
</svg>
