<?xml version="1.0" encoding="utf-8" standalone="no"?>
<!DOCTYPE svg PUBLIC "-//W3C//DTD SVG 1.1//EN"
  "http://www.w3.org/Graphics/SVG/1.1/DTD/svg11.dtd">
<svg xmlns:xlink="http://www.w3.org/1999/xlink" width="144pt" height="216pt" viewBox="0 0 144 216" xmlns="http://www.w3.org/2000/svg" version="1.1">
 <metadata>
  <rdf:RDF xmlns:dc="http://purl.org/dc/elements/1.1/" xmlns:cc="http://creativecommons.org/ns#" xmlns:rdf="http://www.w3.org/1999/02/22-rdf-syntax-ns#">
   <cc:Work>
    <dc:type rdf:resource="http://purl.org/dc/dcmitype/StillImage"/>
    <dc:date>2022-06-23T14:46:55.862970</dc:date>
    <dc:format>image/svg+xml</dc:format>
    <dc:creator>
     <cc:Agent>
      <dc:title>Matplotlib v3.5.1, https://matplotlib.org/</dc:title>
     </cc:Agent>
    </dc:creator>
   </cc:Work>
  </rdf:RDF>
 </metadata>
 <defs>
  <style type="text/css">*{stroke-linejoin: round; stroke-linecap: butt}</style>
 </defs>
 <g id="figure_1">
  <g id="patch_1">
   <path d="M 0 216 
L 144 216 
L 144 0 
L 0 0 
L 0 216 
z
" style="fill: none"/>
  </g>
  <g id="axes_1">
   <g id="patch_2">
    <path d="M 18 189 
L 129.6 189 
L 129.6 25.92 
L 18 25.92 
z
" style="fill: #ffffff"/>
   </g>
   <g id="PathCollection_1">
    <defs>
     <path id="m141ed3e3d8" d="M 0 2.738613 
C 0.726289 2.738613 1.422928 2.450055 1.936492 1.936492 
C 2.450055 1.422928 2.738613 0.726289 2.738613 0 
C 2.738613 -0.726289 2.450055 -1.422928 1.936492 -1.936492 
C 1.422928 -2.450055 0.726289 -2.738613 0 -2.738613 
C -0.726289 -2.738613 -1.422928 -2.450055 -1.936492 -1.936492 
C -2.450055 -1.422928 -2.738613 -0.726289 -2.738613 0 
C -2.738613 0.726289 -2.450055 1.422928 -1.936492 1.936492 
C -1.422928 2.450055 -0.726289 2.738613 0 2.738613 
z
" style="stroke: #ff0000; stroke-width: 1.75"/>
    </defs>
    <g clip-path="url(#pbc852596d3)">
     <use xlink:href="#m141ed3e3d8" x="66.825" y="83.92143" style="fill: #ff0000; stroke: #ff0000; stroke-width: 1.75"/>
     <use xlink:href="#m141ed3e3d8" x="87.75" y="95.690715" style="fill: #ff0000; stroke: #ff0000; stroke-width: 1.75"/>
     <use xlink:href="#m141ed3e3d8" x="66.825" y="107.46" style="fill: #ff0000; stroke: #ff0000; stroke-width: 1.75"/>
     <use xlink:href="#m141ed3e3d8" x="73.8" y="119.229285" style="fill: #ff0000; stroke: #ff0000; stroke-width: 1.75"/>
     <use xlink:href="#m141ed3e3d8" x="87.75" y="119.229285" style="fill: #ff0000; stroke: #ff0000; stroke-width: 1.75"/>
     <use xlink:href="#m141ed3e3d8" x="66.825" y="130.99857" style="fill: #ff0000; stroke: #ff0000; stroke-width: 1.75"/>
     <use xlink:href="#m141ed3e3d8" x="80.775" y="130.99857" style="fill: #ff0000; stroke: #ff0000; stroke-width: 1.75"/>
    </g>
   </g>
   <g id="PathCollection_2">
    <defs>
     <path id="C0_0_abb16a8c15" d="M 0 2.738613 
C 0.726289 2.738613 1.422928 2.450055 1.936492 1.936492 
C 2.450055 1.422928 2.738613 0.726289 2.738613 -0 
C 2.738613 -0.726289 2.450055 -1.422928 1.936492 -1.936492 
C 1.422928 -2.450055 0.726289 -2.738613 0 -2.738613 
C -0.726289 -2.738613 -1.422928 -2.450055 -1.936492 -1.936492 
C -2.450055 -1.422928 -2.738613 -0.726289 -2.738613 0 
C -2.738613 0.726289 -2.450055 1.422928 -1.936492 1.936492 
C -1.422928 2.450055 -0.726289 2.738613 0 2.738613 
z
"/>
    </defs>
    <g clip-path="url(#pbc852596d3)">
     <use xlink:href="#C0_0_abb16a8c15" x="80.775" y="83.92143" style="fill: none; stroke: #ff0000; stroke-width: 1.75"/>
    </g>
    <g clip-path="url(#pbc852596d3)">
     <use xlink:href="#C0_0_abb16a8c15" x="59.85" y="95.690715" style="fill: none; stroke: #ff0000; stroke-width: 1.75"/>
    </g>
    <g clip-path="url(#pbc852596d3)">
     <use xlink:href="#C0_0_abb16a8c15" x="73.8" y="95.690715" style="fill: none; stroke: #ff0000; stroke-width: 1.75"/>
    </g>
    <g clip-path="url(#pbc852596d3)">
     <use xlink:href="#C0_0_abb16a8c15" x="52.875" y="107.46" style="fill: none; stroke: #ff0000; stroke-width: 1.75"/>
    </g>
    <g clip-path="url(#pbc852596d3)">
     <use xlink:href="#C0_0_abb16a8c15" x="80.775" y="107.46" style="fill: none; stroke: #ff0000; stroke-width: 1.75"/>
    </g>
    <g clip-path="url(#pbc852596d3)">
     <use xlink:href="#C0_0_abb16a8c15" x="94.725" y="107.46" style="fill: none; stroke: #ff0000; stroke-width: 1.75"/>
    </g>
    <g clip-path="url(#pbc852596d3)">
     <use xlink:href="#C0_0_abb16a8c15" x="59.85" y="119.229285" style="fill: none; stroke: #ff0000; stroke-width: 1.75"/>
    </g>
   </g>
   <g id="PathCollection_3">
    <path d="M 108.102377 72.165808 
C 108.234978 72.165808 108.362167 72.113125 108.45593 72.019361 
C 108.549694 71.925598 108.602377 71.798409 108.602377 71.665808 
C 108.602377 71.533206 108.549694 71.406018 108.45593 71.312254 
C 108.362167 71.218491 108.234978 71.165808 108.102377 71.165808 
C 107.969775 71.165808 107.842587 71.218491 107.748823 71.312254 
C 107.65506 71.406018 107.602377 71.533206 107.602377 71.665808 
C 107.602377 71.798409 107.65506 71.925598 107.748823 72.019361 
C 107.842587 72.113125 107.969775 72.165808 108.102377 72.165808 
z
" clip-path="url(#pbc852596d3)" style="stroke: #000000"/>
    <path d="M 94.247548 98.525535 
C 94.380149 98.525535 94.507338 98.472851 94.601101 98.379088 
C 94.694865 98.285325 94.747548 98.158136 94.747548 98.025535 
C 94.747548 97.892933 94.694865 97.765745 94.601101 97.671981 
C 94.507338 97.578218 94.380149 97.525535 94.247548 97.525535 
C 94.114946 97.525535 93.987758 97.578218 93.893994 97.671981 
C 93.800231 97.765745 93.747548 97.892933 93.747548 98.025535 
C 93.747548 98.158136 93.800231 98.285325 93.893994 98.379088 
C 93.987758 98.472851 94.114946 98.525535 94.247548 98.525535 
z
" clip-path="url(#pbc852596d3)" style="stroke: #000000"/>
    <path d="M 83.59123 74.932489 
C 83.723832 74.932489 83.85102 74.879806 83.944784 74.786043 
C 84.038547 74.692279 84.09123 74.565091 84.09123 74.432489 
C 84.09123 74.299888 84.038547 74.172699 83.944784 74.078936 
C 83.85102 73.985173 83.723832 73.932489 83.59123 73.932489 
C 83.458629 73.932489 83.33144 73.985173 83.237677 74.078936 
C 83.143913 74.172699 83.09123 74.299888 83.09123 74.432489 
C 83.09123 74.565091 83.143913 74.692279 83.237677 74.786043 
C 83.33144 74.879806 83.458629 74.932489 83.59123 74.932489 
z
" clip-path="url(#pbc852596d3)" style="stroke: #000000"/>
    <path d="M 91.485729 113.511953 
C 91.643419 113.511953 91.794673 113.449302 91.906177 113.337798 
C 92.017681 113.226293 92.080332 113.07504 92.080332 112.917349 
C 92.080332 112.759659 92.017681 112.608405 91.906177 112.496901 
C 91.794673 112.385397 91.643419 112.322746 91.485729 112.322746 
C 91.328038 112.322746 91.176785 112.385397 91.06528 112.496901 
C 90.953776 112.608405 90.891125 112.759659 90.891125 112.917349 
C 90.891125 113.07504 90.953776 113.226293 91.06528 113.337798 
C 91.176785 113.449302 91.328038 113.511953 91.485729 113.511953 
z
" clip-path="url(#pbc852596d3)" style="stroke: #000000"/>
    <path d="M 86.398645 99.729411 
C 86.770733 99.729411 87.127632 99.581579 87.390739 99.318472 
C 87.653845 99.055366 87.801678 98.698467 87.801678 98.326378 
C 87.801678 97.954289 87.653845 97.59739 87.390739 97.334284 
C 87.127632 97.071177 86.770733 96.923345 86.398645 96.923345 
C 86.026556 96.923345 85.669657 97.071177 85.40655 97.334284 
C 85.143444 97.59739 84.995611 97.954289 84.995611 98.326378 
C 84.995611 98.698467 85.143444 99.055366 85.40655 99.318472 
C 85.669657 99.581579 86.026556 99.729411 86.398645 99.729411 
z
" clip-path="url(#pbc852596d3)" style="stroke: #000000"/>
    <path d="M 80.936873 88.157754 
C 81.249761 88.157754 81.549876 88.033443 81.771122 87.812197 
C 81.992367 87.590952 82.116679 87.290837 82.116679 86.977949 
C 82.116679 86.665061 81.992367 86.364946 81.771122 86.1437 
C 81.549876 85.922455 81.249761 85.798143 80.936873 85.798143 
C 80.623985 85.798143 80.32387 85.922455 80.102625 86.1437 
C 79.881379 86.364946 79.757068 86.665061 79.757068 86.977949 
C 79.757068 87.290837 79.881379 87.590952 80.102625 87.812197 
C 80.32387 88.033443 80.623985 88.157754 80.936873 88.157754 
z
" clip-path="url(#pbc852596d3)" style="stroke: #000000"/>
    <path d="M 85.915692 119.393586 
C 86.090205 119.393586 86.257594 119.324251 86.380994 119.200852 
C 86.504394 119.077452 86.573729 118.910063 86.573729 118.735549 
C 86.573729 118.561036 86.504394 118.393646 86.380994 118.270247 
C 86.257594 118.146847 86.090205 118.077512 85.915692 118.077512 
C 85.741178 118.077512 85.573789 118.146847 85.450389 118.270247 
C 85.32699 118.393646 85.257655 118.561036 85.257655 118.735549 
C 85.257655 118.910063 85.32699 119.077452 85.450389 119.200852 
C 85.573789 119.324251 85.741178 119.393586 85.915692 119.393586 
z
" clip-path="url(#pbc852596d3)" style="stroke: #000000"/>
    <path d="M 83.105417 110.47528 
C 83.508044 110.47528 83.894235 110.315314 84.178936 110.030614 
C 84.463637 109.745913 84.623602 109.359722 84.623602 108.957095 
C 84.623602 108.554467 84.463637 108.168276 84.178936 107.883576 
C 83.894235 107.598875 83.508044 107.43891 83.105417 107.43891 
C 82.70279 107.43891 82.316599 107.598875 82.031898 107.883576 
C 81.747197 108.168276 81.587232 108.554467 81.587232 108.957095 
C 81.587232 109.359722 81.747197 109.745913 82.031898 110.030614 
C 82.316599 110.315314 82.70279 110.47528 83.105417 110.47528 
z
" clip-path="url(#pbc852596d3)" style="stroke: #000000"/>
    <path d="M 77.377059 94.665829 
C 77.53475 94.665829 77.686003 94.603177 77.797507 94.491673 
C 77.909012 94.380169 77.971663 94.228916 77.971663 94.071225 
C 77.971663 93.913534 77.909012 93.762281 77.797507 93.650777 
C 77.686003 93.539273 77.53475 93.476622 77.377059 93.476622 
C 77.219368 93.476622 77.068115 93.539273 76.956611 93.650777 
C 76.845107 93.762281 76.782456 93.913534 76.782456 94.071225 
C 76.782456 94.228916 76.845107 94.380169 76.956611 94.491673 
C 77.068115 94.603177 77.219368 94.665829 77.377059 94.665829 
z
" clip-path="url(#pbc852596d3)" style="stroke: #000000"/>
    <path d="M 75.726811 91.003116 
C 75.925097 91.003116 76.115288 90.924336 76.255497 90.784127 
C 76.395706 90.643918 76.474485 90.453727 76.474485 90.255442 
C 76.474485 90.057156 76.395706 89.866965 76.255497 89.726756 
C 76.115288 89.586547 75.925097 89.507767 75.726811 89.507767 
C 75.528525 89.507767 75.338334 89.586547 75.198125 89.726756 
C 75.057916 89.866965 74.979137 90.057156 74.979137 90.255442 
C 74.979137 90.453727 75.057916 90.643918 75.198125 90.784127 
C 75.338334 90.924336 75.528525 91.003116 75.726811 91.003116 
z
" clip-path="url(#pbc852596d3)" style="stroke: #000000"/>
    <path d="M 83.378084 132.595492 
C 83.680351 132.595492 83.970277 132.4754 84.184012 132.261666 
C 84.397746 132.047931 84.517838 131.758004 84.517838 131.455738 
C 84.517838 131.153472 84.397746 130.863545 84.184012 130.649811 
C 83.970277 130.436076 83.680351 130.315985 83.378084 130.315985 
C 83.075818 130.315985 82.785891 130.436076 82.572157 130.649811 
C 82.358423 130.863545 82.238331 131.153472 82.238331 131.455738 
C 82.238331 131.758004 82.358423 132.047931 82.572157 132.261666 
C 82.785891 132.4754 83.075818 132.595492 83.378084 132.595492 
z
" clip-path="url(#pbc852596d3)" style="stroke: #000000"/>
    <path d="M 78.599213 113.560576 
C 78.731814 113.560576 78.859003 113.507893 78.952766 113.41413 
C 79.04653 113.320366 79.099213 113.193178 79.099213 113.060576 
C 79.099213 112.927975 79.04653 112.800787 78.952766 112.707023 
C 78.859003 112.61326 78.731814 112.560576 78.599213 112.560576 
C 78.466611 112.560576 78.339423 112.61326 78.245659 112.707023 
C 78.151896 112.800787 78.099213 112.927975 78.099213 113.060576 
C 78.099213 113.193178 78.151896 113.320366 78.245659 113.41413 
C 78.339423 113.507893 78.466611 113.560576 78.599213 113.560576 
z
" clip-path="url(#pbc852596d3)" style="stroke: #000000"/>
    <path d="M 70.799017 95.586828 
C 71.022025 95.586828 71.23593 95.498226 71.393621 95.340536 
C 71.551311 95.182845 71.639914 94.96894 71.639914 94.745932 
C 71.639914 94.522924 71.551311 94.309019 71.393621 94.151328 
C 71.23593 93.993638 71.022025 93.905036 70.799017 93.905036 
C 70.576009 93.905036 70.362104 93.993638 70.204414 94.151328 
C 70.046723 94.309019 69.958121 94.522924 69.958121 94.745932 
C 69.958121 94.96894 70.046723 95.182845 70.204414 95.340536 
C 70.362104 95.498226 70.576009 95.586828 70.799017 95.586828 
z
" clip-path="url(#pbc852596d3)" style="stroke: #000000"/>
    <path d="M 67.021344 85.026518 
C 67.469093 85.026518 67.898563 84.848625 68.215169 84.532019 
C 68.531775 84.215413 68.709668 83.785943 68.709668 83.338194 
C 68.709668 82.890445 68.531775 82.460974 68.215169 82.144368 
C 67.898563 81.827762 67.469093 81.64987 67.021344 81.64987 
C 66.573595 81.64987 66.144124 81.827762 65.827518 82.144368 
C 65.510912 82.460974 65.33302 82.890445 65.33302 83.338194 
C 65.33302 83.785943 65.510912 84.215413 65.827518 84.532019 
C 66.144124 84.848625 66.573595 85.026518 67.021344 85.026518 
z
" clip-path="url(#pbc852596d3)" style="stroke: #000000"/>
    <path d="M 71.688623 120.193422 
C 72.082692 120.193422 72.460674 120.036856 72.739323 119.758208 
C 73.017972 119.479559 73.174537 119.101577 73.174537 118.707508 
C 73.174537 118.313439 73.017972 117.935457 72.739323 117.656808 
C 72.460674 117.378159 72.082692 117.221594 71.688623 117.221594 
C 71.294554 117.221594 70.916572 117.378159 70.637923 117.656808 
C 70.359274 117.935457 70.202709 118.313439 70.202709 118.707508 
C 70.202709 119.101577 70.359274 119.479559 70.637923 119.758208 
C 70.916572 120.036856 71.294554 120.193422 71.688623 120.193422 
z
" clip-path="url(#pbc852596d3)" style="stroke: #000000"/>
    <path d="M 69.06778 109.332362 
C 69.456696 109.332362 69.829736 109.177844 70.104742 108.902838 
C 70.379747 108.627832 70.534266 108.254792 70.534266 107.865876 
C 70.534266 107.476959 70.379747 107.103919 70.104742 106.828914 
C 69.829736 106.553908 69.456696 106.39939 69.06778 106.39939 
C 68.678863 106.39939 68.305823 106.553908 68.030817 106.828914 
C 67.755812 107.103919 67.601294 107.476959 67.601294 107.865876 
C 67.601294 108.254792 67.755812 108.627832 68.030817 108.902838 
C 68.305823 109.177844 68.678863 109.332362 69.06778 109.332362 
z
" clip-path="url(#pbc852596d3)" style="stroke: #000000"/>
    <path d="M 67.185273 104.592391 
C 67.383559 104.592391 67.57375 104.513611 67.713959 104.373402 
C 67.854168 104.233193 67.932948 104.043002 67.932948 103.844716 
C 67.932948 103.646431 67.854168 103.45624 67.713959 103.316031 
C 67.57375 103.175822 67.383559 103.097042 67.185273 103.097042 
C 66.986988 103.097042 66.796797 103.175822 66.656588 103.316031 
C 66.516379 103.45624 66.437599 103.646431 66.437599 103.844716 
C 66.437599 104.043002 66.516379 104.233193 66.656588 104.373402 
C 66.796797 104.513611 66.986988 104.592391 67.185273 104.592391 
z
" clip-path="url(#pbc852596d3)" style="stroke: #000000"/>
    <path d="M 69.476704 131.738771 
C 69.77897 131.738771 70.068897 131.618679 70.282631 131.404945 
C 70.496366 131.19121 70.616457 130.901283 70.616457 130.599017 
C 70.616457 130.296751 70.496366 130.006824 70.282631 129.79309 
C 70.068897 129.579355 69.77897 129.459264 69.476704 129.459264 
C 69.174437 129.459264 68.884511 129.579355 68.670776 129.79309 
C 68.457042 130.006824 68.33695 130.296751 68.33695 130.599017 
C 68.33695 130.901283 68.457042 131.19121 68.670776 131.404945 
C 68.884511 131.618679 69.174437 131.738771 69.476704 131.738771 
z
" clip-path="url(#pbc852596d3)" style="stroke: #000000"/>
    <path d="M 63.808288 107.3817 
C 64.104794 107.3817 64.389196 107.263897 64.598858 107.054236 
C 64.808519 106.844574 64.926322 106.560172 64.926322 106.263666 
C 64.926322 105.96716 64.808519 105.682758 64.598858 105.473097 
C 64.389196 105.263435 64.104794 105.145632 63.808288 105.145632 
C 63.511782 105.145632 63.22738 105.263435 63.017719 105.473097 
C 62.808057 105.682758 62.690254 105.96716 62.690254 106.263666 
C 62.690254 106.560172 62.808057 106.844574 63.017719 107.054236 
C 63.22738 107.263897 63.511782 107.3817 63.808288 107.3817 
z
" clip-path="url(#pbc852596d3)" style="stroke: #000000"/>
    <path d="M 59.282985 102.08921 
C 59.415587 102.08921 59.542775 102.036527 59.636539 101.942764 
C 59.730302 101.849 59.782985 101.721812 59.782985 101.58921 
C 59.782985 101.456609 59.730302 101.32942 59.636539 101.235657 
C 59.542775 101.141893 59.415587 101.08921 59.282985 101.08921 
C 59.150384 101.08921 59.023195 101.141893 58.929432 101.235657 
C 58.835668 101.32942 58.782985 101.456609 58.782985 101.58921 
C 58.782985 101.721812 58.835668 101.849 58.929432 101.942764 
C 59.023195 102.036527 59.150384 102.08921 59.282985 102.08921 
z
" clip-path="url(#pbc852596d3)" style="stroke: #000000"/>
    <path d="M 56.097587 95.463469 
C 56.285114 95.463469 56.464986 95.388964 56.597587 95.256362 
C 56.730189 95.123761 56.804694 94.943889 56.804694 94.756362 
C 56.804694 94.568835 56.730189 94.388964 56.597587 94.256362 
C 56.464986 94.123761 56.285114 94.049256 56.097587 94.049256 
C 55.910061 94.049256 55.730189 94.123761 55.597587 94.256362 
C 55.464986 94.388964 55.390481 94.568835 55.390481 94.756362 
C 55.390481 94.943889 55.464986 95.123761 55.597587 95.256362 
C 55.730189 95.388964 55.910061 95.463469 56.097587 95.463469 
z
" clip-path="url(#pbc852596d3)" style="stroke: #000000"/>
    <path d="M 59.293419 119.642285 
C 59.735015 119.642285 60.158583 119.466837 60.470839 119.154581 
C 60.783094 118.842326 60.958542 118.418757 60.958542 117.977162 
C 60.958542 117.535566 60.783094 117.111997 60.470839 116.799742 
C 60.158583 116.487487 59.735015 116.312039 59.293419 116.312039 
C 58.851823 116.312039 58.428255 116.487487 58.115999 116.799742 
C 57.803744 117.111997 57.628296 117.535566 57.628296 117.977162 
C 57.628296 118.418757 57.803744 118.842326 58.115999 119.154581 
C 58.428255 119.466837 58.851823 119.642285 59.293419 119.642285 
z
" clip-path="url(#pbc852596d3)" style="stroke: #000000"/>
    <path d="M 59.485677 117.253305 
C 59.762522 117.253305 60.028066 117.143314 60.223825 116.947555 
C 60.419584 116.751795 60.529576 116.486252 60.529576 116.209407 
C 60.529576 115.932561 60.419584 115.667018 60.223825 115.471259 
C 60.028066 115.2755 59.762522 115.165508 59.485677 115.165508 
C 59.208832 115.165508 58.943288 115.2755 58.747529 115.471259 
C 58.55177 115.667018 58.441778 115.932561 58.441778 116.209407 
C 58.441778 116.486252 58.55177 116.751795 58.747529 116.947555 
C 58.943288 117.143314 59.208832 117.253305 59.485677 117.253305 
z
" clip-path="url(#pbc852596d3)" style="stroke: #000000"/>
    <path d="M 50.771547 103.639029 
C 50.904149 103.639029 51.031337 103.586345 51.125101 103.492582 
C 51.218864 103.398819 51.271547 103.27163 51.271547 103.139029 
C 51.271547 103.006427 51.218864 102.879239 51.125101 102.785475 
C 51.031337 102.691712 50.904149 102.639029 50.771547 102.639029 
C 50.638946 102.639029 50.511757 102.691712 50.417994 102.785475 
C 50.32423 102.879239 50.271547 103.006427 50.271547 103.139029 
C 50.271547 103.27163 50.32423 103.398819 50.417994 103.492582 
C 50.511757 103.586345 50.638946 103.639029 50.771547 103.639029 
z
" clip-path="url(#pbc852596d3)" style="stroke: #000000"/>
   </g>
   <g id="matplotlib.axis_1">
    <g id="xtick_1">
     <g id="line2d_1">
      <defs>
       <path id="m385cda4c6b" d="M 0 0 
L 0 3.5 
" style="stroke: #000000; stroke-width: 0.8"/>
      </defs>
      <g>
       <use xlink:href="#m385cda4c6b" x="18" y="189" style="stroke: #000000; stroke-width: 0.8"/>
      </g>
     </g>
     <g id="text_1">
      <!-- −10 -->
      <g transform="translate(7.447656 203.598437)scale(0.1 -0.1)">
       <defs>
        <path id="DejaVuSans-2212" d="M 678 2272 
L 4684 2272 
L 4684 1741 
L 678 1741 
L 678 2272 
z
" transform="scale(0.015625)"/>
        <path id="DejaVuSans-31" d="M 794 531 
L 1825 531 
L 1825 4091 
L 703 3866 
L 703 4441 
L 1819 4666 
L 2450 4666 
L 2450 531 
L 3481 531 
L 3481 0 
L 794 0 
L 794 531 
z
" transform="scale(0.015625)"/>
        <path id="DejaVuSans-30" d="M 2034 4250 
Q 1547 4250 1301 3770 
Q 1056 3291 1056 2328 
Q 1056 1369 1301 889 
Q 1547 409 2034 409 
Q 2525 409 2770 889 
Q 3016 1369 3016 2328 
Q 3016 3291 2770 3770 
Q 2525 4250 2034 4250 
z
M 2034 4750 
Q 2819 4750 3233 4129 
Q 3647 3509 3647 2328 
Q 3647 1150 3233 529 
Q 2819 -91 2034 -91 
Q 1250 -91 836 529 
Q 422 1150 422 2328 
Q 422 3509 836 4129 
Q 1250 4750 2034 4750 
z
" transform="scale(0.015625)"/>
       </defs>
       <use xlink:href="#DejaVuSans-2212"/>
       <use xlink:href="#DejaVuSans-31" x="83.789062"/>
       <use xlink:href="#DejaVuSans-30" x="147.412109"/>
      </g>
     </g>
    </g>
    <g id="xtick_2">
     <g id="line2d_2">
      <g>
       <use xlink:href="#m385cda4c6b" x="73.8" y="189" style="stroke: #000000; stroke-width: 0.8"/>
      </g>
     </g>
     <g id="text_2">
      <!-- 0 -->
      <g transform="translate(70.61875 203.598437)scale(0.1 -0.1)">
       <use xlink:href="#DejaVuSans-30"/>
      </g>
     </g>
    </g>
    <g id="xtick_3">
     <g id="line2d_3">
      <g>
       <use xlink:href="#m385cda4c6b" x="129.6" y="189" style="stroke: #000000; stroke-width: 0.8"/>
      </g>
     </g>
     <g id="text_3">
      <!-- 10 -->
      <g transform="translate(123.2375 203.598437)scale(0.1 -0.1)">
       <use xlink:href="#DejaVuSans-31"/>
       <use xlink:href="#DejaVuSans-30" x="63.623047"/>
      </g>
     </g>
    </g>
   </g>
   <g id="matplotlib.axis_2">
    <g id="ytick_1">
     <g id="line2d_4">
      <defs>
       <path id="m6aa9320e83" d="M 0 0 
L -3.5 0 
" style="stroke: #000000; stroke-width: 0.8"/>
      </defs>
      <g>
       <use xlink:href="#m6aa9320e83" x="18" y="189" style="stroke: #000000; stroke-width: 0.8"/>
      </g>
     </g>
     <g id="text_4">
      <!-- −15 -->
      <g transform="translate(-10.104688 192.799219)scale(0.1 -0.1)">
       <defs>
        <path id="DejaVuSans-35" d="M 691 4666 
L 3169 4666 
L 3169 4134 
L 1269 4134 
L 1269 2991 
Q 1406 3038 1543 3061 
Q 1681 3084 1819 3084 
Q 2600 3084 3056 2656 
Q 3513 2228 3513 1497 
Q 3513 744 3044 326 
Q 2575 -91 1722 -91 
Q 1428 -91 1123 -41 
Q 819 9 494 109 
L 494 744 
Q 775 591 1075 516 
Q 1375 441 1709 441 
Q 2250 441 2565 725 
Q 2881 1009 2881 1497 
Q 2881 1984 2565 2268 
Q 2250 2553 1709 2553 
Q 1456 2553 1204 2497 
Q 953 2441 691 2322 
L 691 4666 
z
" transform="scale(0.015625)"/>
       </defs>
       <use xlink:href="#DejaVuSans-2212"/>
       <use xlink:href="#DejaVuSans-31" x="83.789062"/>
       <use xlink:href="#DejaVuSans-35" x="147.412109"/>
      </g>
     </g>
    </g>
    <g id="ytick_2">
     <g id="line2d_5">
      <g>
       <use xlink:href="#m6aa9320e83" x="18" y="161.82" style="stroke: #000000; stroke-width: 0.8"/>
      </g>
     </g>
     <g id="text_5">
      <!-- −10 -->
      <g transform="translate(-10.104688 165.619219)scale(0.1 -0.1)">
       <use xlink:href="#DejaVuSans-2212"/>
       <use xlink:href="#DejaVuSans-31" x="83.789062"/>
       <use xlink:href="#DejaVuSans-30" x="147.412109"/>
      </g>
     </g>
    </g>
    <g id="ytick_3">
     <g id="line2d_6">
      <g>
       <use xlink:href="#m6aa9320e83" x="18" y="134.64" style="stroke: #000000; stroke-width: 0.8"/>
      </g>
     </g>
     <g id="text_6">
      <!-- −5 -->
      <g transform="translate(-3.742188 138.439219)scale(0.1 -0.1)">
       <use xlink:href="#DejaVuSans-2212"/>
       <use xlink:href="#DejaVuSans-35" x="83.789062"/>
      </g>
     </g>
    </g>
    <g id="ytick_4">
     <g id="line2d_7">
      <g>
       <use xlink:href="#m6aa9320e83" x="18" y="107.46" style="stroke: #000000; stroke-width: 0.8"/>
      </g>
     </g>
     <g id="text_7">
      <!-- 0 -->
      <g transform="translate(4.6375 111.259219)scale(0.1 -0.1)">
       <use xlink:href="#DejaVuSans-30"/>
      </g>
     </g>
    </g>
    <g id="ytick_5">
     <g id="line2d_8">
      <g>
       <use xlink:href="#m6aa9320e83" x="18" y="80.28" style="stroke: #000000; stroke-width: 0.8"/>
      </g>
     </g>
     <g id="text_8">
      <!-- 5 -->
      <g transform="translate(4.6375 84.079219)scale(0.1 -0.1)">
       <use xlink:href="#DejaVuSans-35"/>
      </g>
     </g>
    </g>
    <g id="ytick_6">
     <g id="line2d_9">
      <g>
       <use xlink:href="#m6aa9320e83" x="18" y="53.1" style="stroke: #000000; stroke-width: 0.8"/>
      </g>
     </g>
     <g id="text_9">
      <!-- 10 -->
      <g transform="translate(-1.725 56.899219)scale(0.1 -0.1)">
       <use xlink:href="#DejaVuSans-31"/>
       <use xlink:href="#DejaVuSans-30" x="63.623047"/>
      </g>
     </g>
    </g>
    <g id="ytick_7">
     <g id="line2d_10">
      <g>
       <use xlink:href="#m6aa9320e83" x="18" y="25.92" style="stroke: #000000; stroke-width: 0.8"/>
      </g>
     </g>
     <g id="text_10">
      <!-- 15 -->
      <g transform="translate(-1.725 29.719219)scale(0.1 -0.1)">
       <use xlink:href="#DejaVuSans-31"/>
       <use xlink:href="#DejaVuSans-35" x="63.623047"/>
      </g>
     </g>
    </g>
   </g>
   <g id="patch_3">
    <path d="M 18 189 
L 18 25.92 
" style="fill: none; stroke: #000000; stroke-width: 0.8; stroke-linejoin: miter; stroke-linecap: square"/>
   </g>
   <g id="patch_4">
    <path d="M 129.6 189 
L 129.6 25.92 
" style="fill: none; stroke: #000000; stroke-width: 0.8; stroke-linejoin: miter; stroke-linecap: square"/>
   </g>
   <g id="patch_5">
    <path d="M 18 189 
L 129.6 189 
" style="fill: none; stroke: #000000; stroke-width: 0.8; stroke-linejoin: miter; stroke-linecap: square"/>
   </g>
   <g id="patch_6">
    <path d="M 18 25.92 
L 129.6 25.92 
" style="fill: none; stroke: #000000; stroke-width: 0.8; stroke-linejoin: miter; stroke-linecap: square"/>
   </g>
  </g>
 </g>
 <defs>
  <clipPath id="pbc852596d3">
   <rect x="18" y="25.92" width="111.6" height="163.08"/>
  </clipPath>
 </defs>
</svg>
