<?xml version="1.0" encoding="utf-8" standalone="no"?>
<!DOCTYPE svg PUBLIC "-//W3C//DTD SVG 1.1//EN"
  "http://www.w3.org/Graphics/SVG/1.1/DTD/svg11.dtd">
<svg xmlns:xlink="http://www.w3.org/1999/xlink" width="144pt" height="216pt" viewBox="0 0 144 216" xmlns="http://www.w3.org/2000/svg" version="1.1">
 <metadata>
  <rdf:RDF xmlns:dc="http://purl.org/dc/elements/1.1/" xmlns:cc="http://creativecommons.org/ns#" xmlns:rdf="http://www.w3.org/1999/02/22-rdf-syntax-ns#">
   <cc:Work>
    <dc:type rdf:resource="http://purl.org/dc/dcmitype/StillImage"/>
    <dc:date>2022-06-18T00:14:06.730897</dc:date>
    <dc:format>image/svg+xml</dc:format>
    <dc:creator>
     <cc:Agent>
      <dc:title>Matplotlib v3.5.1, https://matplotlib.org/</dc:title>
     </cc:Agent>
    </dc:creator>
   </cc:Work>
  </rdf:RDF>
 </metadata>
 <defs>
  <style type="text/css">*{stroke-linejoin: round; stroke-linecap: butt}</style>
 </defs>
 <g id="figure_1">
  <g id="patch_1">
   <path d="M 0 216 
L 144 216 
L 144 0 
L 0 0 
L 0 216 
z
" style="fill: none"/>
  </g>
  <g id="axes_1">
   <g id="patch_2">
    <path d="M 18 189 
L 129.6 189 
L 129.6 25.92 
L 18 25.92 
z
" style="fill: #ffffff"/>
   </g>
   <g id="PathCollection_1">
    <defs>
     <path id="mb8a2b563e4" d="M 0 2.738613 
C 0.726289 2.738613 1.422928 2.450055 1.936492 1.936492 
C 2.450055 1.422928 2.738613 0.726289 2.738613 0 
C 2.738613 -0.726289 2.450055 -1.422928 1.936492 -1.936492 
C 1.422928 -2.450055 0.726289 -2.738613 0 -2.738613 
C -0.726289 -2.738613 -1.422928 -2.450055 -1.936492 -1.936492 
C -2.450055 -1.422928 -2.738613 -0.726289 -2.738613 0 
C -2.738613 0.726289 -2.450055 1.422928 -1.936492 1.936492 
C -1.422928 2.450055 -0.726289 2.738613 0 2.738613 
z
" style="stroke: #ff0000; stroke-width: 1.75"/>
    </defs>
    <g clip-path="url(#p86556d9cad)">
     <use xlink:href="#mb8a2b563e4" x="80.775" y="107.46" style="fill: #ff0000; stroke: #ff0000; stroke-width: 1.75"/>
     <use xlink:href="#mb8a2b563e4" x="94.725" y="107.46" style="fill: #ff0000; stroke: #ff0000; stroke-width: 1.75"/>
     <use xlink:href="#mb8a2b563e4" x="59.85" y="119.229285" style="fill: #ff0000; stroke: #ff0000; stroke-width: 1.75"/>
     <use xlink:href="#mb8a2b563e4" x="73.8" y="119.229285" style="fill: #ff0000; stroke: #ff0000; stroke-width: 1.75"/>
     <use xlink:href="#mb8a2b563e4" x="87.75" y="119.229285" style="fill: #ff0000; stroke: #ff0000; stroke-width: 1.75"/>
     <use xlink:href="#mb8a2b563e4" x="66.825" y="130.99857" style="fill: #ff0000; stroke: #ff0000; stroke-width: 1.75"/>
     <use xlink:href="#mb8a2b563e4" x="80.775" y="130.99857" style="fill: #ff0000; stroke: #ff0000; stroke-width: 1.75"/>
    </g>
   </g>
   <g id="PathCollection_2">
    <defs>
     <path id="C0_0_a07e5d0ad8" d="M 0 2.738613 
C 0.726289 2.738613 1.422928 2.450055 1.936492 1.936492 
C 2.450055 1.422928 2.738613 0.726289 2.738613 -0 
C 2.738613 -0.726289 2.450055 -1.422928 1.936492 -1.936492 
C 1.422928 -2.450055 0.726289 -2.738613 0 -2.738613 
C -0.726289 -2.738613 -1.422928 -2.450055 -1.936492 -1.936492 
C -2.450055 -1.422928 -2.738613 -0.726289 -2.738613 0 
C -2.738613 0.726289 -2.450055 1.422928 -1.936492 1.936492 
C -1.422928 2.450055 -0.726289 2.738613 0 2.738613 
z
"/>
    </defs>
    <g clip-path="url(#p86556d9cad)">
     <use xlink:href="#C0_0_a07e5d0ad8" x="66.825" y="83.92143" style="fill: none; stroke: #ff0000; stroke-width: 1.75"/>
    </g>
    <g clip-path="url(#p86556d9cad)">
     <use xlink:href="#C0_0_a07e5d0ad8" x="80.775" y="83.92143" style="fill: none; stroke: #ff0000; stroke-width: 1.75"/>
    </g>
    <g clip-path="url(#p86556d9cad)">
     <use xlink:href="#C0_0_a07e5d0ad8" x="59.85" y="95.690715" style="fill: none; stroke: #ff0000; stroke-width: 1.75"/>
    </g>
    <g clip-path="url(#p86556d9cad)">
     <use xlink:href="#C0_0_a07e5d0ad8" x="73.8" y="95.690715" style="fill: none; stroke: #ff0000; stroke-width: 1.75"/>
    </g>
    <g clip-path="url(#p86556d9cad)">
     <use xlink:href="#C0_0_a07e5d0ad8" x="87.75" y="95.690715" style="fill: none; stroke: #ff0000; stroke-width: 1.75"/>
    </g>
    <g clip-path="url(#p86556d9cad)">
     <use xlink:href="#C0_0_a07e5d0ad8" x="52.875" y="107.46" style="fill: none; stroke: #ff0000; stroke-width: 1.75"/>
    </g>
    <g clip-path="url(#p86556d9cad)">
     <use xlink:href="#C0_0_a07e5d0ad8" x="66.825" y="107.46" style="fill: none; stroke: #ff0000; stroke-width: 1.75"/>
    </g>
   </g>
   <g id="PathCollection_3">
    <path d="M 104.473449 55.959714 
C 104.606051 55.959714 104.733239 55.907031 104.827003 55.813268 
C 104.920766 55.719504 104.973449 55.592316 104.973449 55.459714 
C 104.973449 55.327113 104.920766 55.199924 104.827003 55.106161 
C 104.733239 55.012397 104.606051 54.959714 104.473449 54.959714 
C 104.340848 54.959714 104.213659 55.012397 104.119896 55.106161 
C 104.026133 55.199924 103.973449 55.327113 103.973449 55.459714 
C 103.973449 55.592316 104.026133 55.719504 104.119896 55.813268 
C 104.213659 55.907031 104.340848 55.959714 104.473449 55.959714 
z
" clip-path="url(#p86556d9cad)" style="stroke: #000000"/>
    <path d="M 120.312515 127.855155 
C 120.53376 127.855155 120.745974 127.767254 120.902418 127.61081 
C 121.058862 127.454366 121.146763 127.242152 121.146763 127.020907 
C 121.146763 126.799662 121.058862 126.587448 120.902418 126.431004 
C 120.745974 126.27456 120.53376 126.186658 120.312515 126.186658 
C 120.091269 126.186658 119.879056 126.27456 119.722612 126.431004 
C 119.566168 126.587448 119.478266 126.799662 119.478266 127.020907 
C 119.478266 127.242152 119.566168 127.454366 119.722612 127.61081 
C 119.879056 127.767254 120.091269 127.855155 120.312515 127.855155 
z
" clip-path="url(#p86556d9cad)" style="stroke: #000000"/>
    <path d="M 119.25557 122.424929 
C 119.25557 122.424929 119.25557 122.424929 119.25557 122.424929 
C 119.25557 122.424929 119.25557 122.424929 119.25557 122.424929 
C 119.25557 122.424929 119.25557 122.424929 119.25557 122.424929 
C 119.25557 122.424929 119.25557 122.424929 119.25557 122.424929 
C 119.25557 122.424929 119.25557 122.424929 119.25557 122.424929 
C 119.25557 122.424929 119.25557 122.424929 119.25557 122.424929 
C 119.25557 122.424929 119.25557 122.424929 119.25557 122.424929 
C 119.25557 122.424929 119.25557 122.424929 119.25557 122.424929 
z
" clip-path="url(#p86556d9cad)" style="stroke: #000000"/>
    <path d="M 112.79302 111.866263 
C 113.028822 111.866263 113.254999 111.772577 113.421736 111.60584 
C 113.588474 111.439102 113.682159 111.212926 113.682159 110.977123 
C 113.682159 110.74132 113.588474 110.515144 113.421736 110.348406 
C 113.254999 110.181669 113.028822 110.087983 112.79302 110.087983 
C 112.557217 110.087983 112.331041 110.181669 112.164303 110.348406 
C 111.997565 110.515144 111.90388 110.74132 111.90388 110.977123 
C 111.90388 111.212926 111.997565 111.439102 112.164303 111.60584 
C 112.331041 111.772577 112.557217 111.866263 112.79302 111.866263 
z
" clip-path="url(#p86556d9cad)" style="stroke: #000000"/>
    <path d="M 111.977161 96.011516 
C 112.070925 96.011516 112.16086 95.974263 112.227161 95.907962 
C 112.293462 95.841661 112.330715 95.751726 112.330715 95.657962 
C 112.330715 95.564199 112.293462 95.474263 112.227161 95.407962 
C 112.16086 95.341661 112.070925 95.304409 111.977161 95.304409 
C 111.883398 95.304409 111.793462 95.341661 111.727161 95.407962 
C 111.66086 95.474263 111.623608 95.564199 111.623608 95.657962 
C 111.623608 95.751726 111.66086 95.841661 111.727161 95.907962 
C 111.793462 95.974263 111.883398 96.011516 111.977161 96.011516 
z
" clip-path="url(#p86556d9cad)" style="stroke: #000000"/>
    <path d="M 108.512393 88.704147 
C 108.69992 88.704147 108.879791 88.629642 109.012393 88.49704 
C 109.144995 88.364439 109.2195 88.184567 109.2195 87.99704 
C 109.2195 87.809513 109.144995 87.629642 109.012393 87.49704 
C 108.879791 87.364439 108.69992 87.289933 108.512393 87.289933 
C 108.324866 87.289933 108.144995 87.364439 108.012393 87.49704 
C 107.879791 87.629642 107.805286 87.809513 107.805286 87.99704 
C 107.805286 88.184567 107.879791 88.364439 108.012393 88.49704 
C 108.144995 88.629642 108.324866 88.704147 108.512393 88.704147 
z
" clip-path="url(#p86556d9cad)" style="stroke: #000000"/>
    <path d="M 106.311738 81.140909 
C 106.311738 81.140909 106.311738 81.140909 106.311738 81.140909 
C 106.311738 81.140909 106.311738 81.140909 106.311738 81.140909 
C 106.311738 81.140909 106.311738 81.140909 106.311738 81.140909 
C 106.311738 81.140909 106.311738 81.140909 106.311738 81.140909 
C 106.311738 81.140909 106.311738 81.140909 106.311738 81.140909 
C 106.311738 81.140909 106.311738 81.140909 106.311738 81.140909 
C 106.311738 81.140909 106.311738 81.140909 106.311738 81.140909 
C 106.311738 81.140909 106.311738 81.140909 106.311738 81.140909 
z
" clip-path="url(#p86556d9cad)" style="stroke: #000000"/>
    <path d="M 101.036964 66.951372 
C 101.036964 66.951372 101.036964 66.951372 101.036964 66.951372 
C 101.036964 66.951372 101.036964 66.951372 101.036964 66.951372 
C 101.036964 66.951372 101.036964 66.951372 101.036964 66.951372 
C 101.036964 66.951372 101.036964 66.951372 101.036964 66.951372 
C 101.036964 66.951372 101.036964 66.951372 101.036964 66.951372 
C 101.036964 66.951372 101.036964 66.951372 101.036964 66.951372 
C 101.036964 66.951372 101.036964 66.951372 101.036964 66.951372 
C 101.036964 66.951372 101.036964 66.951372 101.036964 66.951372 
z
" clip-path="url(#p86556d9cad)" style="stroke: #000000"/>
    <path d="M 92.828837 58.091065 
C 92.922601 58.091065 93.012537 58.053812 93.078837 57.987511 
C 93.145138 57.92121 93.182391 57.831275 93.182391 57.737511 
C 93.182391 57.643748 93.145138 57.553812 93.078837 57.487511 
C 93.012537 57.42121 92.922601 57.383958 92.828837 57.383958 
C 92.735074 57.383958 92.645138 57.42121 92.578837 57.487511 
C 92.512537 57.553812 92.475284 57.643748 92.475284 57.737511 
C 92.475284 57.831275 92.512537 57.92121 92.578837 57.987511 
C 92.645138 58.053812 92.735074 58.091065 92.828837 58.091065 
z
" clip-path="url(#p86556d9cad)" style="stroke: #000000"/>
    <path d="M 91.848677 45.45322 
C 91.942441 45.45322 92.032377 45.415967 92.098677 45.349667 
C 92.164978 45.283366 92.202231 45.19343 92.202231 45.099667 
C 92.202231 45.005903 92.164978 44.915967 92.098677 44.849667 
C 92.032377 44.783366 91.942441 44.746113 91.848677 44.746113 
C 91.754914 44.746113 91.664978 44.783366 91.598677 44.849667 
C 91.532377 44.915967 91.495124 45.005903 91.495124 45.099667 
C 91.495124 45.19343 91.532377 45.283366 91.598677 45.349667 
C 91.664978 45.415967 91.754914 45.45322 91.848677 45.45322 
z
" clip-path="url(#p86556d9cad)" style="stroke: #000000"/>
    <path d="M 86.876588 37.646689 
C 86.970351 37.646689 87.060287 37.609437 87.126588 37.543136 
C 87.192889 37.476835 87.230141 37.386899 87.230141 37.293136 
C 87.230141 37.199372 87.192889 37.109437 87.126588 37.043136 
C 87.060287 36.976835 86.970351 36.939582 86.876588 36.939582 
C 86.782824 36.939582 86.692889 36.976835 86.626588 37.043136 
C 86.560287 37.109437 86.523035 37.199372 86.523035 37.293136 
C 86.523035 37.386899 86.560287 37.476835 86.626588 37.543136 
C 86.692889 37.609437 86.782824 37.646689 86.876588 37.646689 
z
" clip-path="url(#p86556d9cad)" style="stroke: #000000"/>
    <path d="M 122.55837 163.868475 
C 122.55837 163.868475 122.55837 163.868475 122.55837 163.868475 
C 122.55837 163.868475 122.55837 163.868475 122.55837 163.868475 
C 122.55837 163.868475 122.55837 163.868475 122.55837 163.868475 
C 122.55837 163.868475 122.55837 163.868475 122.55837 163.868475 
C 122.55837 163.868475 122.55837 163.868475 122.55837 163.868475 
C 122.55837 163.868475 122.55837 163.868475 122.55837 163.868475 
C 122.55837 163.868475 122.55837 163.868475 122.55837 163.868475 
C 122.55837 163.868475 122.55837 163.868475 122.55837 163.868475 
z
" clip-path="url(#p86556d9cad)" style="stroke: #000000"/>
    <path d="M 118.617737 154.665175 
C 118.848988 154.665175 119.070799 154.573297 119.234318 154.409778 
C 119.397837 154.246259 119.489714 154.024448 119.489714 153.793197 
C 119.489714 153.561946 119.397837 153.340135 119.234318 153.176615 
C 119.070799 153.013096 118.848988 152.921219 118.617737 152.921219 
C 118.386485 152.921219 118.164674 153.013096 118.001155 153.176615 
C 117.837636 153.340135 117.745759 153.561946 117.745759 153.793197 
C 117.745759 154.024448 117.837636 154.246259 118.001155 154.409778 
C 118.164674 154.573297 118.386485 154.665175 118.617737 154.665175 
z
" clip-path="url(#p86556d9cad)" style="stroke: #000000"/>
    <path d="M 112.663865 141.980827 
C 112.899667 141.980827 113.125844 141.887142 113.292581 141.720404 
C 113.459319 141.553666 113.553004 141.32749 113.553004 141.091687 
C 113.553004 140.855885 113.459319 140.629708 113.292581 140.462971 
C 113.125844 140.296233 112.899667 140.202548 112.663865 140.202548 
C 112.428062 140.202548 112.201886 140.296233 112.035148 140.462971 
C 111.86841 140.629708 111.774725 140.855885 111.774725 141.091687 
C 111.774725 141.32749 111.86841 141.553666 112.035148 141.720404 
C 112.201886 141.887142 112.428062 141.980827 112.663865 141.980827 
z
" clip-path="url(#p86556d9cad)" style="stroke: #000000"/>
    <path d="M 112.463052 137.028744 
C 112.556816 137.028744 112.646752 136.991491 112.713052 136.92519 
C 112.779353 136.85889 112.816606 136.768954 112.816606 136.67519 
C 112.816606 136.581427 112.779353 136.491491 112.713052 136.42519 
C 112.646752 136.35889 112.556816 136.321637 112.463052 136.321637 
C 112.369289 136.321637 112.279353 136.35889 112.213052 136.42519 
C 112.146752 136.491491 112.109499 136.581427 112.109499 136.67519 
C 112.109499 136.768954 112.146752 136.85889 112.213052 136.92519 
C 112.279353 136.991491 112.369289 137.028744 112.463052 137.028744 
z
" clip-path="url(#p86556d9cad)" style="stroke: #000000"/>
    <path d="M 105.963829 122.732744 
C 106.201092 122.732744 106.428669 122.638478 106.596439 122.470708 
C 106.764209 122.302938 106.858475 122.075361 106.858475 121.838098 
C 106.858475 121.600835 106.764209 121.373258 106.596439 121.205488 
C 106.428669 121.037718 106.201092 120.943453 105.963829 120.943453 
C 105.726566 120.943453 105.498989 121.037718 105.331219 121.205488 
C 105.163449 121.373258 105.069184 121.600835 105.069184 121.838098 
C 105.069184 122.075361 105.163449 122.302938 105.331219 122.470708 
C 105.498989 122.638478 105.726566 122.732744 105.963829 122.732744 
z
" clip-path="url(#p86556d9cad)" style="stroke: #000000"/>
    <path d="M 100.658454 112.492215 
C 100.895717 112.492215 101.123294 112.397949 101.291064 112.230179 
C 101.458834 112.062409 101.5531 111.834832 101.5531 111.597569 
C 101.5531 111.360307 101.458834 111.13273 101.291064 110.964959 
C 101.123294 110.797189 100.895717 110.702924 100.658454 110.702924 
C 100.421192 110.702924 100.193615 110.797189 100.025845 110.964959 
C 99.858074 111.13273 99.763809 111.360307 99.763809 111.597569 
C 99.763809 111.834832 99.858074 112.062409 100.025845 112.230179 
C 100.193615 112.397949 100.421192 112.492215 100.658454 112.492215 
z
" clip-path="url(#p86556d9cad)" style="stroke: #000000"/>
    <path d="M 98.352334 102.944493 
C 98.352334 102.944493 98.352334 102.944493 98.352334 102.944493 
C 98.352334 102.944493 98.352334 102.944493 98.352334 102.944493 
C 98.352334 102.944493 98.352334 102.944493 98.352334 102.944493 
C 98.352334 102.944493 98.352334 102.944493 98.352334 102.944493 
C 98.352334 102.944493 98.352334 102.944493 98.352334 102.944493 
C 98.352334 102.944493 98.352334 102.944493 98.352334 102.944493 
C 98.352334 102.944493 98.352334 102.944493 98.352334 102.944493 
C 98.352334 102.944493 98.352334 102.944493 98.352334 102.944493 
z
" clip-path="url(#p86556d9cad)" style="stroke: #000000"/>
    <path d="M 96.19642 92.429148 
C 96.410154 92.429148 96.615164 92.34423 96.766297 92.193097 
C 96.91743 92.041964 97.002347 91.836955 97.002347 91.62322 
C 97.002347 91.409486 96.91743 91.204476 96.766297 91.053343 
C 96.615164 90.90221 96.410154 90.817293 96.19642 90.817293 
C 95.982686 90.817293 95.777676 90.90221 95.626543 91.053343 
C 95.47541 91.204476 95.390493 91.409486 95.390493 91.62322 
C 95.390493 91.836955 95.47541 92.041964 95.626543 92.193097 
C 95.777676 92.34423 95.982686 92.429148 96.19642 92.429148 
z
" clip-path="url(#p86556d9cad)" style="stroke: #000000"/>
    <path d="M 91.36042 84.630522 
C 91.597683 84.630522 91.82526 84.536257 91.99303 84.368487 
C 92.1608 84.200717 92.255065 83.97314 92.255065 83.735877 
C 92.255065 83.498614 92.1608 83.271037 91.99303 83.103267 
C 91.82526 82.935497 91.597683 82.841231 91.36042 82.841231 
C 91.123157 82.841231 90.89558 82.935497 90.72781 83.103267 
C 90.56004 83.271037 90.465774 83.498614 90.465774 83.735877 
C 90.465774 83.97314 90.56004 84.200717 90.72781 84.368487 
C 90.89558 84.536257 91.123157 84.630522 91.36042 84.630522 
z
" clip-path="url(#p86556d9cad)" style="stroke: #000000"/>
    <path d="M 89.564308 71.777665 
C 89.564308 71.777665 89.564308 71.777665 89.564308 71.777665 
C 89.564308 71.777665 89.564308 71.777665 89.564308 71.777665 
C 89.564308 71.777665 89.564308 71.777665 89.564308 71.777665 
C 89.564308 71.777665 89.564308 71.777665 89.564308 71.777665 
C 89.564308 71.777665 89.564308 71.777665 89.564308 71.777665 
C 89.564308 71.777665 89.564308 71.777665 89.564308 71.777665 
C 89.564308 71.777665 89.564308 71.777665 89.564308 71.777665 
C 89.564308 71.777665 89.564308 71.777665 89.564308 71.777665 
z
" clip-path="url(#p86556d9cad)" style="stroke: #000000"/>
    <path d="M 88.863204 60.156897 
C 88.956967 60.156897 89.046903 60.119645 89.113204 60.053344 
C 89.179504 59.987043 89.216757 59.897107 89.216757 59.803344 
C 89.216757 59.70958 89.179504 59.619645 89.113204 59.553344 
C 89.046903 59.487043 88.956967 59.44979 88.863204 59.44979 
C 88.76944 59.44979 88.679504 59.487043 88.613204 59.553344 
C 88.546903 59.619645 88.50965 59.70958 88.50965 59.803344 
C 88.50965 59.897107 88.546903 59.987043 88.613204 60.053344 
C 88.679504 60.119645 88.76944 60.156897 88.863204 60.156897 
z
" clip-path="url(#p86556d9cad)" style="stroke: #000000"/>
    <path d="M 79.561936 50.078582 
C 79.561936 50.078582 79.561936 50.078582 79.561936 50.078582 
C 79.561936 50.078582 79.561936 50.078582 79.561936 50.078582 
C 79.561936 50.078582 79.561936 50.078582 79.561936 50.078582 
C 79.561936 50.078582 79.561936 50.078582 79.561936 50.078582 
C 79.561936 50.078582 79.561936 50.078582 79.561936 50.078582 
C 79.561936 50.078582 79.561936 50.078582 79.561936 50.078582 
C 79.561936 50.078582 79.561936 50.078582 79.561936 50.078582 
C 79.561936 50.078582 79.561936 50.078582 79.561936 50.078582 
z
" clip-path="url(#p86556d9cad)" style="stroke: #000000"/>
    <path d="M 76.357453 42.717124 
C 76.593256 42.717124 76.819432 42.623438 76.98617 42.456701 
C 77.152907 42.289963 77.246593 42.063787 77.246593 41.827984 
C 77.246593 41.592181 77.152907 41.366005 76.98617 41.199267 
C 76.819432 41.03253 76.593256 40.938844 76.357453 40.938844 
C 76.121651 40.938844 75.895474 41.03253 75.728736 41.199267 
C 75.561999 41.366005 75.468313 41.592181 75.468313 41.827984 
C 75.468313 42.063787 75.561999 42.289963 75.728736 42.456701 
C 75.895474 42.623438 76.121651 42.717124 76.357453 42.717124 
z
" clip-path="url(#p86556d9cad)" style="stroke: #000000"/>
    <path d="M 74.811073 37.69052 
C 74.811073 37.69052 74.811073 37.69052 74.811073 37.69052 
C 74.811073 37.69052 74.811073 37.69052 74.811073 37.69052 
C 74.811073 37.69052 74.811073 37.69052 74.811073 37.69052 
C 74.811073 37.69052 74.811073 37.69052 74.811073 37.69052 
C 74.811073 37.69052 74.811073 37.69052 74.811073 37.69052 
C 74.811073 37.69052 74.811073 37.69052 74.811073 37.69052 
C 74.811073 37.69052 74.811073 37.69052 74.811073 37.69052 
C 74.811073 37.69052 74.811073 37.69052 74.811073 37.69052 
z
" clip-path="url(#p86556d9cad)" style="stroke: #000000"/>
    <path d="M 70.297387 24.731299 
C 70.297387 24.731299 70.297387 24.731299 70.297387 24.731299 
C 70.297387 24.731299 70.297387 24.731299 70.297387 24.731299 
C 70.297387 24.731299 70.297387 24.731299 70.297387 24.731299 
C 70.297387 24.731299 70.297387 24.731299 70.297387 24.731299 
C 70.297387 24.731299 70.297387 24.731299 70.297387 24.731299 
C 70.297387 24.731299 70.297387 24.731299 70.297387 24.731299 
C 70.297387 24.731299 70.297387 24.731299 70.297387 24.731299 
C 70.297387 24.731299 70.297387 24.731299 70.297387 24.731299 
z
" clip-path="url(#p86556d9cad)" style="stroke: #000000"/>
    <path d="M 112.845403 167.507645 
C 112.939166 167.507645 113.029102 167.470392 113.095403 167.404091 
C 113.161703 167.33779 113.198956 167.247855 113.198956 167.154091 
C 113.198956 167.060328 113.161703 166.970392 113.095403 166.904091 
C 113.029102 166.83779 112.939166 166.800538 112.845403 166.800538 
C 112.751639 166.800538 112.661703 166.83779 112.595403 166.904091 
C 112.529102 166.970392 112.491849 167.060328 112.491849 167.154091 
C 112.491849 167.247855 112.529102 167.33779 112.595403 167.404091 
C 112.661703 167.470392 112.751639 167.507645 112.845403 167.507645 
z
" clip-path="url(#p86556d9cad)" style="stroke: #000000"/>
    <path d="M 109.143336 155.472447 
C 109.373008 155.472447 109.593305 155.381197 109.755708 155.218794 
C 109.918111 155.056391 110.009361 154.836095 110.009361 154.606422 
C 110.009361 154.376749 109.918111 154.156453 109.755708 153.994049 
C 109.593305 153.831646 109.373008 153.740396 109.143336 153.740396 
C 108.913663 153.740396 108.693366 153.831646 108.530963 153.994049 
C 108.36856 154.156453 108.27731 154.376749 108.27731 154.606422 
C 108.27731 154.836095 108.36856 155.056391 108.530963 155.218794 
C 108.693366 155.381197 108.913663 155.472447 109.143336 155.472447 
z
" clip-path="url(#p86556d9cad)" style="stroke: #000000"/>
    <path d="M 101.602885 149.307188 
C 101.840148 149.307188 102.067725 149.212923 102.235495 149.045153 
C 102.403265 148.877383 102.497531 148.649806 102.497531 148.412543 
C 102.497531 148.17528 102.403265 147.947703 102.235495 147.779933 
C 102.067725 147.612163 101.840148 147.517897 101.602885 147.517897 
C 101.365622 147.517897 101.138045 147.612163 100.970275 147.779933 
C 100.802505 147.947703 100.70824 148.17528 100.70824 148.412543 
C 100.70824 148.649806 100.802505 148.877383 100.970275 149.045153 
C 101.138045 149.212923 101.365622 149.307188 101.602885 149.307188 
z
" clip-path="url(#p86556d9cad)" style="stroke: #000000"/>
    <path d="M 102.751396 136.133168 
C 102.751396 136.133168 102.751396 136.133168 102.751396 136.133168 
C 102.751396 136.133168 102.751396 136.133168 102.751396 136.133168 
C 102.751396 136.133168 102.751396 136.133168 102.751396 136.133168 
C 102.751396 136.133168 102.751396 136.133168 102.751396 136.133168 
C 102.751396 136.133168 102.751396 136.133168 102.751396 136.133168 
C 102.751396 136.133168 102.751396 136.133168 102.751396 136.133168 
C 102.751396 136.133168 102.751396 136.133168 102.751396 136.133168 
C 102.751396 136.133168 102.751396 136.133168 102.751396 136.133168 
z
" clip-path="url(#p86556d9cad)" style="stroke: #000000"/>
    <path d="M 96.954705 128.542218 
C 97.191967 128.542218 97.419544 128.447953 97.587314 128.280183 
C 97.755084 128.112413 97.84935 127.884836 97.84935 127.647573 
C 97.84935 127.41031 97.755084 127.182733 97.587314 127.014963 
C 97.419544 126.847193 97.191967 126.752927 96.954705 126.752927 
C 96.717442 126.752927 96.489865 126.847193 96.322095 127.014963 
C 96.154325 127.182733 96.060059 127.41031 96.060059 127.647573 
C 96.060059 127.884836 96.154325 128.112413 96.322095 128.280183 
C 96.489865 128.447953 96.717442 128.542218 96.954705 128.542218 
z
" clip-path="url(#p86556d9cad)" style="stroke: #000000"/>
    <path d="M 93.991182 117.393788 
C 94.196518 117.393788 94.393472 117.312207 94.538667 117.167013 
C 94.683862 117.021818 94.765442 116.824864 94.765442 116.619528 
C 94.765442 116.414192 94.683862 116.217238 94.538667 116.072043 
C 94.393472 115.926849 94.196518 115.845268 93.991182 115.845268 
C 93.785846 115.845268 93.588892 115.926849 93.443698 116.072043 
C 93.298503 116.217238 93.216922 116.414192 93.216922 116.619528 
C 93.216922 116.824864 93.298503 117.021818 93.443698 117.167013 
C 93.588892 117.312207 93.785846 117.393788 93.991182 117.393788 
z
" clip-path="url(#p86556d9cad)" style="stroke: #000000"/>
    <path d="M 89.430881 109.631443 
C 89.621271 109.631443 89.80389 109.5558 89.938516 109.421173 
C 90.073143 109.286547 90.148786 109.103928 90.148786 108.913537 
C 90.148786 108.723147 90.073143 108.540528 89.938516 108.405902 
C 89.80389 108.271275 89.621271 108.195632 89.430881 108.195632 
C 89.24049 108.195632 89.057871 108.271275 88.923245 108.405902 
C 88.788618 108.540528 88.712975 108.723147 88.712975 108.913537 
C 88.712975 109.103928 88.788618 109.286547 88.923245 109.421173 
C 89.057871 109.5558 89.24049 109.631443 89.430881 109.631443 
z
" clip-path="url(#p86556d9cad)" style="stroke: #000000"/>
    <path d="M 84.473636 96.594718 
C 84.751388 96.594718 85.017801 96.484367 85.214201 96.287967 
C 85.4106 96.091567 85.520952 95.825154 85.520952 95.547402 
C 85.520952 95.269651 85.4106 95.003238 85.214201 94.806838 
C 85.017801 94.610438 84.751388 94.500087 84.473636 94.500087 
C 84.195885 94.500087 83.929472 94.610438 83.733072 94.806838 
C 83.536672 95.003238 83.42632 95.269651 83.42632 95.547402 
C 83.42632 95.825154 83.536672 96.091567 83.733072 96.287967 
C 83.929472 96.484367 84.195885 96.594718 84.473636 96.594718 
z
" clip-path="url(#p86556d9cad)" style="stroke: #000000"/>
    <path d="M 84.299267 86.959156 
C 84.518706 86.959156 84.729187 86.871972 84.884354 86.716805 
C 85.039521 86.561638 85.126705 86.351157 85.126705 86.131718 
C 85.126705 85.912279 85.039521 85.701798 84.884354 85.546631 
C 84.729187 85.391464 84.518706 85.30428 84.299267 85.30428 
C 84.079828 85.30428 83.869347 85.391464 83.71418 85.546631 
C 83.559014 85.701798 83.47183 85.912279 83.47183 86.131718 
C 83.47183 86.351157 83.559014 86.561638 83.71418 86.716805 
C 83.869347 86.871972 84.079828 86.959156 84.299267 86.959156 
z
" clip-path="url(#p86556d9cad)" style="stroke: #000000"/>
    <path d="M 75.944445 76.128857 
C 76.158179 76.128857 76.363188 76.04394 76.514321 75.892807 
C 76.665454 75.741674 76.750372 75.536664 76.750372 75.32293 
C 76.750372 75.109196 76.665454 74.904186 76.514321 74.753053 
C 76.363188 74.60192 76.158179 74.517003 75.944445 74.517003 
C 75.73071 74.517003 75.525701 74.60192 75.374568 74.753053 
C 75.223435 74.904186 75.138517 75.109196 75.138517 75.32293 
C 75.138517 75.536664 75.223435 75.741674 75.374568 75.892807 
C 75.525701 76.04394 75.73071 76.128857 75.944445 76.128857 
z
" clip-path="url(#p86556d9cad)" style="stroke: #000000"/>
    <path d="M 74.882221 65.83567 
C 75.075352 65.83567 75.260599 65.758938 75.397163 65.622374 
C 75.533727 65.48581 75.610459 65.300563 75.610459 65.107432 
C 75.610459 64.914302 75.533727 64.729055 75.397163 64.592491 
C 75.260599 64.455926 75.075352 64.379195 74.882221 64.379195 
C 74.68909 64.379195 74.503844 64.455926 74.36728 64.592491 
C 74.230715 64.729055 74.153984 64.914302 74.153984 65.107432 
C 74.153984 65.300563 74.230715 65.48581 74.36728 65.622374 
C 74.503844 65.758938 74.68909 65.83567 74.882221 65.83567 
z
" clip-path="url(#p86556d9cad)" style="stroke: #000000"/>
    <path d="M 69.92675 52.530843 
C 70.162552 52.530843 70.388729 52.437157 70.555466 52.27042 
C 70.722204 52.103682 70.815889 51.877506 70.815889 51.641703 
C 70.815889 51.4059 70.722204 51.179724 70.555466 51.012986 
C 70.388729 50.846249 70.162552 50.752563 69.92675 50.752563 
C 69.690947 50.752563 69.46477 50.846249 69.298033 51.012986 
C 69.131295 51.179724 69.03761 51.4059 69.03761 51.641703 
C 69.03761 51.877506 69.131295 52.103682 69.298033 52.27042 
C 69.46477 52.437157 69.690947 52.530843 69.92675 52.530843 
z
" clip-path="url(#p86556d9cad)" style="stroke: #000000"/>
    <path d="M 63.55553 46.447262 
C 63.753815 46.447262 63.944006 46.368482 64.084215 46.228273 
C 64.224424 46.088064 64.303204 45.897873 64.303204 45.699588 
C 64.303204 45.501302 64.224424 45.311111 64.084215 45.170902 
C 63.944006 45.030693 63.753815 44.951913 63.55553 44.951913 
C 63.357244 44.951913 63.167053 45.030693 63.026844 45.170902 
C 62.886635 45.311111 62.807855 45.501302 62.807855 45.699588 
C 62.807855 45.897873 62.886635 46.088064 63.026844 46.228273 
C 63.167053 46.368482 63.357244 46.447262 63.55553 46.447262 
z
" clip-path="url(#p86556d9cad)" style="stroke: #000000"/>
    <path d="M 64.885735 38.685328 
C 64.979498 38.685328 65.069434 38.648075 65.135735 38.581775 
C 65.202036 38.515474 65.239288 38.425538 65.239288 38.331775 
C 65.239288 38.238011 65.202036 38.148075 65.135735 38.081775 
C 65.069434 38.015474 64.979498 37.978221 64.885735 37.978221 
C 64.791971 37.978221 64.702036 38.015474 64.635735 38.081775 
C 64.569434 38.148075 64.532181 38.238011 64.532181 38.331775 
C 64.532181 38.425538 64.569434 38.515474 64.635735 38.581775 
C 64.702036 38.648075 64.791971 38.685328 64.885735 38.685328 
z
" clip-path="url(#p86556d9cad)" style="stroke: #000000"/>
    <path d="M 101.87543 181.202718 
C 101.87543 181.202718 101.87543 181.202718 101.87543 181.202718 
C 101.87543 181.202718 101.87543 181.202718 101.87543 181.202718 
C 101.87543 181.202718 101.87543 181.202718 101.87543 181.202718 
C 101.87543 181.202718 101.87543 181.202718 101.87543 181.202718 
C 101.87543 181.202718 101.87543 181.202718 101.87543 181.202718 
C 101.87543 181.202718 101.87543 181.202718 101.87543 181.202718 
C 101.87543 181.202718 101.87543 181.202718 101.87543 181.202718 
C 101.87543 181.202718 101.87543 181.202718 101.87543 181.202718 
z
" clip-path="url(#p86556d9cad)" style="stroke: #000000"/>
    <path d="M 99.541368 171.395012 
C 99.635132 171.395012 99.725067 171.357759 99.791368 171.291458 
C 99.857669 171.225158 99.894922 171.135222 99.894922 171.041458 
C 99.894922 170.947695 99.857669 170.857759 99.791368 170.791458 
C 99.725067 170.725158 99.635132 170.687905 99.541368 170.687905 
C 99.447605 170.687905 99.357669 170.725158 99.291368 170.791458 
C 99.225067 170.857759 99.187815 170.947695 99.187815 171.041458 
C 99.187815 171.135222 99.225067 171.225158 99.291368 171.291458 
C 99.357669 171.357759 99.447605 171.395012 99.541368 171.395012 
z
" clip-path="url(#p86556d9cad)" style="stroke: #000000"/>
    <path d="M 94.81836 164.923684 
C 95.054162 164.923684 95.280339 164.829999 95.447076 164.663261 
C 95.613814 164.496523 95.707499 164.270347 95.707499 164.034544 
C 95.707499 163.798742 95.613814 163.572565 95.447076 163.405828 
C 95.280339 163.23909 95.054162 163.145405 94.81836 163.145405 
C 94.582557 163.145405 94.35638 163.23909 94.189643 163.405828 
C 94.022905 163.572565 93.92922 163.798742 93.92922 164.034544 
C 93.92922 164.270347 94.022905 164.496523 94.189643 164.663261 
C 94.35638 164.829999 94.582557 164.923684 94.81836 164.923684 
z
" clip-path="url(#p86556d9cad)" style="stroke: #000000"/>
    <path d="M 88.716088 152.721989 
C 88.95189 152.721989 89.178067 152.628304 89.344804 152.461566 
C 89.511542 152.294828 89.605227 152.068652 89.605227 151.832849 
C 89.605227 151.597047 89.511542 151.37087 89.344804 151.204133 
C 89.178067 151.037395 88.95189 150.94371 88.716088 150.94371 
C 88.480285 150.94371 88.254109 151.037395 88.087371 151.204133 
C 87.920633 151.37087 87.826948 151.597047 87.826948 151.832849 
C 87.826948 152.068652 87.920633 152.294828 88.087371 152.461566 
C 88.254109 152.628304 88.480285 152.721989 88.716088 152.721989 
z
" clip-path="url(#p86556d9cad)" style="stroke: #000000"/>
    <path d="M 86.684895 143.810427 
C 86.922158 143.810427 87.149735 143.716162 87.317505 143.548392 
C 87.485275 143.380622 87.57954 143.153045 87.57954 142.915782 
C 87.57954 142.678519 87.485275 142.450942 87.317505 142.283172 
C 87.149735 142.115402 86.922158 142.021136 86.684895 142.021136 
C 86.447632 142.021136 86.220055 142.115402 86.052285 142.283172 
C 85.884515 142.450942 85.790249 142.678519 85.790249 142.915782 
C 85.790249 143.153045 85.884515 143.380622 86.052285 143.548392 
C 86.220055 143.716162 86.447632 143.810427 86.684895 143.810427 
z
" clip-path="url(#p86556d9cad)" style="stroke: #000000"/>
    <path d="M 85.256689 128.575308 
C 85.464221 128.575308 85.663282 128.492855 85.81003 128.346107 
C 85.956777 128.199359 86.039231 128.000299 86.039231 127.792766 
C 86.039231 127.585233 85.956777 127.386173 85.81003 127.239425 
C 85.663282 127.092677 85.464221 127.010224 85.256689 127.010224 
C 85.049156 127.010224 84.850095 127.092677 84.703348 127.239425 
C 84.5566 127.386173 84.474146 127.585233 84.474146 127.792766 
C 84.474146 128.000299 84.5566 128.199359 84.703348 128.346107 
C 84.850095 128.492855 85.049156 128.575308 85.256689 128.575308 
z
" clip-path="url(#p86556d9cad)" style="stroke: #000000"/>
    <path d="M 82.812225 121.827318 
C 83.049488 121.827318 83.277065 121.733053 83.444835 121.565283 
C 83.612605 121.397512 83.706871 121.169935 83.706871 120.932673 
C 83.706871 120.69541 83.612605 120.467833 83.444835 120.300063 
C 83.277065 120.132293 83.049488 120.038027 82.812225 120.038027 
C 82.574962 120.038027 82.347385 120.132293 82.179615 120.300063 
C 82.011845 120.467833 81.91758 120.69541 81.91758 120.932673 
C 81.91758 121.169935 82.011845 121.397512 82.179615 121.565283 
C 82.347385 121.733053 82.574962 121.827318 82.812225 121.827318 
z
" clip-path="url(#p86556d9cad)" style="stroke: #000000"/>
    <path d="M 76.173905 107.724417 
C 76.173905 107.724417 76.173905 107.724417 76.173905 107.724417 
C 76.173905 107.724417 76.173905 107.724417 76.173905 107.724417 
C 76.173905 107.724417 76.173905 107.724417 76.173905 107.724417 
C 76.173905 107.724417 76.173905 107.724417 76.173905 107.724417 
C 76.173905 107.724417 76.173905 107.724417 76.173905 107.724417 
C 76.173905 107.724417 76.173905 107.724417 76.173905 107.724417 
C 76.173905 107.724417 76.173905 107.724417 76.173905 107.724417 
C 76.173905 107.724417 76.173905 107.724417 76.173905 107.724417 
z
" clip-path="url(#p86556d9cad)" style="stroke: #000000"/>
    <path d="M 74.394217 105.017942 
C 74.592503 105.017942 74.782694 104.939163 74.922903 104.798954 
C 75.063112 104.658744 75.141892 104.468553 75.141892 104.270268 
C 75.141892 104.071982 75.063112 103.881791 74.922903 103.741582 
C 74.782694 103.601373 74.592503 103.522594 74.394217 103.522594 
C 74.195932 103.522594 74.005741 103.601373 73.865532 103.741582 
C 73.725323 103.881791 73.646543 104.071982 73.646543 104.270268 
C 73.646543 104.468553 73.725323 104.658744 73.865532 104.798954 
C 74.005741 104.939163 74.195932 105.017942 74.394217 105.017942 
z
" clip-path="url(#p86556d9cad)" style="stroke: #000000"/>
    <path d="M 73.133076 92.364654 
C 73.370338 92.364654 73.597915 92.270389 73.765686 92.102619 
C 73.933456 91.934849 74.027721 91.707272 74.027721 91.470009 
C 74.027721 91.232746 73.933456 91.005169 73.765686 90.837399 
C 73.597915 90.669629 73.370338 90.575364 73.133076 90.575364 
C 72.895813 90.575364 72.668236 90.669629 72.500466 90.837399 
C 72.332696 91.005169 72.23843 91.232746 72.23843 91.470009 
C 72.23843 91.707272 72.332696 91.934849 72.500466 92.102619 
C 72.668236 92.270389 72.895813 92.364654 73.133076 92.364654 
z
" clip-path="url(#p86556d9cad)" style="stroke: #000000"/>
    <path d="M 69.340312 79.93421 
C 69.577574 79.93421 69.805151 79.839945 69.972921 79.672175 
C 70.140692 79.504405 70.234957 79.276828 70.234957 79.039565 
C 70.234957 78.802302 70.140692 78.574725 69.972921 78.406955 
C 69.805151 78.239185 69.577574 78.144919 69.340312 78.144919 
C 69.103049 78.144919 68.875472 78.239185 68.707702 78.406955 
C 68.539932 78.574725 68.445666 78.802302 68.445666 79.039565 
C 68.445666 79.276828 68.539932 79.504405 68.707702 79.672175 
C 68.875472 79.839945 69.103049 79.93421 69.340312 79.93421 
z
" clip-path="url(#p86556d9cad)" style="stroke: #000000"/>
    <path d="M 62.417668 70.65047 
C 62.654931 70.65047 62.882508 70.556205 63.050278 70.388435 
C 63.218048 70.220664 63.312314 69.993087 63.312314 69.755825 
C 63.312314 69.518562 63.218048 69.290985 63.050278 69.123215 
C 62.882508 68.955445 62.654931 68.861179 62.417668 68.861179 
C 62.180406 68.861179 61.952829 68.955445 61.785058 69.123215 
C 61.617288 69.290985 61.523023 69.518562 61.523023 69.755825 
C 61.523023 69.993087 61.617288 70.220664 61.785058 70.388435 
C 61.952829 70.556205 62.180406 70.65047 62.417668 70.65047 
z
" clip-path="url(#p86556d9cad)" style="stroke: #000000"/>
    <path d="M 60.10716 63.085356 
C 60.344423 63.085356 60.572 62.99109 60.73977 62.82332 
C 60.90754 62.65555 61.001805 62.427973 61.001805 62.19071 
C 61.001805 61.953448 60.90754 61.725871 60.73977 61.558101 
C 60.572 61.39033 60.344423 61.296065 60.10716 61.296065 
C 59.869897 61.296065 59.64232 61.39033 59.47455 61.558101 
C 59.30678 61.725871 59.212514 61.953448 59.212514 62.19071 
C 59.212514 62.427973 59.30678 62.65555 59.47455 62.82332 
C 59.64232 62.99109 59.869897 63.085356 60.10716 63.085356 
z
" clip-path="url(#p86556d9cad)" style="stroke: #000000"/>
    <path d="M 58.392061 45.225984 
C 58.392061 45.225984 58.392061 45.225984 58.392061 45.225984 
C 58.392061 45.225984 58.392061 45.225984 58.392061 45.225984 
C 58.392061 45.225984 58.392061 45.225984 58.392061 45.225984 
C 58.392061 45.225984 58.392061 45.225984 58.392061 45.225984 
C 58.392061 45.225984 58.392061 45.225984 58.392061 45.225984 
C 58.392061 45.225984 58.392061 45.225984 58.392061 45.225984 
C 58.392061 45.225984 58.392061 45.225984 58.392061 45.225984 
C 58.392061 45.225984 58.392061 45.225984 58.392061 45.225984 
z
" clip-path="url(#p86556d9cad)" style="stroke: #000000"/>
    <path d="M 53.688969 37.20707 
C 53.782733 37.20707 53.872668 37.169817 53.938969 37.103517 
C 54.00527 37.037216 54.042523 36.94728 54.042523 36.853517 
C 54.042523 36.759753 54.00527 36.669817 53.938969 36.603517 
C 53.872668 36.537216 53.782733 36.499963 53.688969 36.499963 
C 53.595206 36.499963 53.50527 36.537216 53.438969 36.603517 
C 53.372668 36.669817 53.335416 36.759753 53.335416 36.853517 
C 53.335416 36.94728 53.372668 37.037216 53.438969 37.103517 
C 53.50527 37.169817 53.595206 37.20707 53.688969 37.20707 
z
" clip-path="url(#p86556d9cad)" style="stroke: #000000"/>
    <path d="M 87.148844 174.568417 
C 87.384647 174.568417 87.610823 174.474731 87.777561 174.307994 
C 87.944299 174.141256 88.037984 173.91508 88.037984 173.679277 
C 88.037984 173.443474 87.944299 173.217298 87.777561 173.05056 
C 87.610823 172.883823 87.384647 172.790137 87.148844 172.790137 
C 86.913042 172.790137 86.686865 172.883823 86.520128 173.05056 
C 86.35339 173.217298 86.259705 173.443474 86.259705 173.679277 
C 86.259705 173.91508 86.35339 174.141256 86.520128 174.307994 
C 86.686865 174.474731 86.913042 174.568417 87.148844 174.568417 
z
" clip-path="url(#p86556d9cad)" style="stroke: #000000"/>
    <path d="M 87.461518 167.3128 
C 87.555282 167.3128 87.645217 167.275547 87.711518 167.209246 
C 87.777819 167.142945 87.815072 167.05301 87.815072 166.959246 
C 87.815072 166.865483 87.777819 166.775547 87.711518 166.709246 
C 87.645217 166.642945 87.555282 166.605693 87.461518 166.605693 
C 87.367755 166.605693 87.277819 166.642945 87.211518 166.709246 
C 87.145217 166.775547 87.107965 166.865483 87.107965 166.959246 
C 87.107965 167.05301 87.145217 167.142945 87.211518 167.209246 
C 87.277819 167.275547 87.367755 167.3128 87.461518 167.3128 
z
" clip-path="url(#p86556d9cad)" style="stroke: #000000"/>
    <path d="M 79.563593 152.779162 
C 79.799396 152.779162 80.025572 152.685477 80.19231 152.518739 
C 80.359047 152.352002 80.452733 152.125825 80.452733 151.890023 
C 80.452733 151.65422 80.359047 151.428044 80.19231 151.261306 
C 80.025572 151.094568 79.799396 151.000883 79.563593 151.000883 
C 79.32779 151.000883 79.101614 151.094568 78.934876 151.261306 
C 78.768139 151.428044 78.674453 151.65422 78.674453 151.890023 
C 78.674453 152.125825 78.768139 152.352002 78.934876 152.518739 
C 79.101614 152.685477 79.32779 152.779162 79.563593 152.779162 
z
" clip-path="url(#p86556d9cad)" style="stroke: #000000"/>
    <path d="M 80.183864 145.587272 
C 80.183864 145.587272 80.183864 145.587272 80.183864 145.587272 
C 80.183864 145.587272 80.183864 145.587272 80.183864 145.587272 
C 80.183864 145.587272 80.183864 145.587272 80.183864 145.587272 
C 80.183864 145.587272 80.183864 145.587272 80.183864 145.587272 
C 80.183864 145.587272 80.183864 145.587272 80.183864 145.587272 
C 80.183864 145.587272 80.183864 145.587272 80.183864 145.587272 
C 80.183864 145.587272 80.183864 145.587272 80.183864 145.587272 
C 80.183864 145.587272 80.183864 145.587272 80.183864 145.587272 
z
" clip-path="url(#p86556d9cad)" style="stroke: #000000"/>
    <path d="M 79.015104 134.641247 
C 79.252366 134.641247 79.479943 134.546982 79.647714 134.379212 
C 79.815484 134.211442 79.909749 133.983865 79.909749 133.746602 
C 79.909749 133.509339 79.815484 133.281762 79.647714 133.113992 
C 79.479943 132.946222 79.252366 132.851956 79.015104 132.851956 
C 78.777841 132.851956 78.550264 132.946222 78.382494 133.113992 
C 78.214724 133.281762 78.120458 133.509339 78.120458 133.746602 
C 78.120458 133.983865 78.214724 134.211442 78.382494 134.379212 
C 78.550264 134.546982 78.777841 134.641247 79.015104 134.641247 
z
" clip-path="url(#p86556d9cad)" style="stroke: #000000"/>
    <path d="M 70.560286 125.293828 
C 70.767819 125.293828 70.96688 125.211374 71.113627 125.064626 
C 71.260375 124.917879 71.342829 124.718818 71.342829 124.511285 
C 71.342829 124.303753 71.260375 124.104692 71.113627 123.957944 
C 70.96688 123.811197 70.767819 123.728743 70.560286 123.728743 
C 70.352754 123.728743 70.153693 123.811197 70.006945 123.957944 
C 69.860198 124.104692 69.777744 124.303753 69.777744 124.511285 
C 69.777744 124.718818 69.860198 124.917879 70.006945 125.064626 
C 70.153693 125.211374 70.352754 125.293828 70.560286 125.293828 
z
" clip-path="url(#p86556d9cad)" style="stroke: #000000"/>
    <path d="M 68.58812 114.526067 
C 68.58812 114.526067 68.58812 114.526067 68.58812 114.526067 
C 68.58812 114.526067 68.58812 114.526067 68.58812 114.526067 
C 68.58812 114.526067 68.58812 114.526067 68.58812 114.526067 
C 68.58812 114.526067 68.58812 114.526067 68.58812 114.526067 
C 68.58812 114.526067 68.58812 114.526067 68.58812 114.526067 
C 68.58812 114.526067 68.58812 114.526067 68.58812 114.526067 
C 68.58812 114.526067 68.58812 114.526067 68.58812 114.526067 
C 68.58812 114.526067 68.58812 114.526067 68.58812 114.526067 
z
" clip-path="url(#p86556d9cad)" style="stroke: #000000"/>
    <path d="M 68.74073 107.73546 
C 69.022021 107.73546 69.291828 107.623703 69.49073 107.4248 
C 69.689633 107.225898 69.801391 106.956091 69.801391 106.6748 
C 69.801391 106.39351 69.689633 106.123703 69.49073 105.9248 
C 69.291828 105.725898 69.022021 105.61414 68.74073 105.61414 
C 68.45944 105.61414 68.189633 105.725898 67.99073 105.9248 
C 67.791828 106.123703 67.68007 106.39351 67.68007 106.6748 
C 67.68007 106.956091 67.791828 107.225898 67.99073 107.4248 
C 68.189633 107.623703 68.45944 107.73546 68.74073 107.73546 
z
" clip-path="url(#p86556d9cad)" style="stroke: #000000"/>
    <path d="M 63.217344 95.847956 
C 63.454607 95.847956 63.682184 95.753691 63.849954 95.585921 
C 64.017724 95.418151 64.111989 95.190574 64.111989 94.953311 
C 64.111989 94.716048 64.017724 94.488471 63.849954 94.320701 
C 63.682184 94.152931 63.454607 94.058665 63.217344 94.058665 
C 62.980081 94.058665 62.752504 94.152931 62.584734 94.320701 
C 62.416964 94.488471 62.322698 94.716048 62.322698 94.953311 
C 62.322698 95.190574 62.416964 95.418151 62.584734 95.585921 
C 62.752504 95.753691 62.980081 95.847956 63.217344 95.847956 
z
" clip-path="url(#p86556d9cad)" style="stroke: #000000"/>
    <path d="M 58.483052 86.031081 
C 58.673443 86.031081 58.856061 85.955438 58.990688 85.820811 
C 59.125314 85.686185 59.200957 85.503566 59.200957 85.313175 
C 59.200957 85.122785 59.125314 84.940166 58.990688 84.80554 
C 58.856061 84.670913 58.673443 84.59527 58.483052 84.59527 
C 58.292661 84.59527 58.110043 84.670913 57.975416 84.80554 
C 57.840789 84.940166 57.765146 85.122785 57.765146 85.313175 
C 57.765146 85.503566 57.840789 85.686185 57.975416 85.820811 
C 58.110043 85.955438 58.292661 86.031081 58.483052 86.031081 
z
" clip-path="url(#p86556d9cad)" style="stroke: #000000"/>
    <path d="M 54.988201 77.252871 
C 55.225463 77.252871 55.45304 77.158605 55.620811 76.990835 
C 55.788581 76.823065 55.882846 76.595488 55.882846 76.358225 
C 55.882846 76.120962 55.788581 75.893385 55.620811 75.725615 
C 55.45304 75.557845 55.225463 75.46358 54.988201 75.46358 
C 54.750938 75.46358 54.523361 75.557845 54.355591 75.725615 
C 54.187821 75.893385 54.093555 76.120962 54.093555 76.358225 
C 54.093555 76.595488 54.187821 76.823065 54.355591 76.990835 
C 54.523361 77.158605 54.750938 77.252871 54.988201 77.252871 
z
" clip-path="url(#p86556d9cad)" style="stroke: #000000"/>
    <path d="M 50.111404 63.737277 
C 50.347207 63.737277 50.573384 63.643591 50.740121 63.476854 
C 50.906859 63.310116 51.000544 63.08394 51.000544 62.848137 
C 51.000544 62.612334 50.906859 62.386158 50.740121 62.21942 
C 50.573384 62.052683 50.347207 61.958997 50.111404 61.958997 
C 49.875602 61.958997 49.649425 62.052683 49.482688 62.21942 
C 49.31595 62.386158 49.222265 62.612334 49.222265 62.848137 
C 49.222265 63.08394 49.31595 63.310116 49.482688 63.476854 
C 49.649425 63.643591 49.875602 63.737277 50.111404 63.737277 
z
" clip-path="url(#p86556d9cad)" style="stroke: #000000"/>
    <path d="M 43.857063 53.310929 
C 44.092866 53.310929 44.319042 53.217243 44.48578 53.050506 
C 44.652517 52.883768 44.746203 52.657592 44.746203 52.421789 
C 44.746203 52.185986 44.652517 51.95981 44.48578 51.793072 
C 44.319042 51.626335 44.092866 51.532649 43.857063 51.532649 
C 43.62126 51.532649 43.395084 51.626335 43.228346 51.793072 
C 43.061609 51.95981 42.967923 52.185986 42.967923 52.421789 
C 42.967923 52.657592 43.061609 52.883768 43.228346 53.050506 
C 43.395084 53.217243 43.62126 53.310929 43.857063 53.310929 
z
" clip-path="url(#p86556d9cad)" style="stroke: #000000"/>
    <path d="M 42.078082 45.718727 
C 42.313885 45.718727 42.540061 45.625042 42.706799 45.458304 
C 42.873537 45.291567 42.967222 45.06539 42.967222 44.829588 
C 42.967222 44.593785 42.873537 44.367608 42.706799 44.200871 
C 42.540061 44.034133 42.313885 43.940448 42.078082 43.940448 
C 41.84228 43.940448 41.616103 44.034133 41.449365 44.200871 
C 41.282628 44.367608 41.188942 44.593785 41.188942 44.829588 
C 41.188942 45.06539 41.282628 45.291567 41.449365 45.458304 
C 41.616103 45.625042 41.84228 45.718727 42.078082 45.718727 
z
" clip-path="url(#p86556d9cad)" style="stroke: #000000"/>
    <path d="M 81.66582 179.780526 
C 81.759584 179.780526 81.849519 179.743274 81.91582 179.676973 
C 81.982121 179.610672 82.019374 179.520736 82.019374 179.426973 
C 82.019374 179.333209 81.982121 179.243274 81.91582 179.176973 
C 81.849519 179.110672 81.759584 179.073419 81.66582 179.073419 
C 81.572057 179.073419 81.482121 179.110672 81.41582 179.176973 
C 81.349519 179.243274 81.312267 179.333209 81.312267 179.426973 
C 81.312267 179.520736 81.349519 179.610672 81.41582 179.676973 
C 81.482121 179.743274 81.572057 179.780526 81.66582 179.780526 
z
" clip-path="url(#p86556d9cad)" style="stroke: #000000"/>
    <path d="M 75.692116 165.222117 
C 75.927919 165.222117 76.154095 165.128432 76.320833 164.961694 
C 76.487571 164.794957 76.581256 164.56878 76.581256 164.332978 
C 76.581256 164.097175 76.487571 163.870999 76.320833 163.704261 
C 76.154095 163.537523 75.927919 163.443838 75.692116 163.443838 
C 75.456314 163.443838 75.230137 163.537523 75.0634 163.704261 
C 74.896662 163.870999 74.802977 164.097175 74.802977 164.332978 
C 74.802977 164.56878 74.896662 164.794957 75.0634 164.961694 
C 75.230137 165.128432 75.456314 165.222117 75.692116 165.222117 
z
" clip-path="url(#p86556d9cad)" style="stroke: #000000"/>
    <path d="M 72.046356 158.358237 
C 72.14012 158.358237 72.230055 158.320985 72.296356 158.254684 
C 72.362657 158.188383 72.39991 158.098447 72.39991 158.004684 
C 72.39991 157.91092 72.362657 157.820985 72.296356 157.754684 
C 72.230055 157.688383 72.14012 157.65113 72.046356 157.65113 
C 71.952593 157.65113 71.862657 157.688383 71.796356 157.754684 
C 71.730055 157.820985 71.692803 157.91092 71.692803 158.004684 
C 71.692803 158.098447 71.730055 158.188383 71.796356 158.254684 
C 71.862657 158.320985 71.952593 158.358237 72.046356 158.358237 
z
" clip-path="url(#p86556d9cad)" style="stroke: #000000"/>
    <path d="M 68.392485 144.101853 
C 68.629748 144.101853 68.857325 144.007588 69.025095 143.839818 
C 69.192865 143.672048 69.287131 143.444471 69.287131 143.207208 
C 69.287131 142.969945 69.192865 142.742368 69.025095 142.574598 
C 68.857325 142.406828 68.629748 142.312563 68.392485 142.312563 
C 68.155223 142.312563 67.927646 142.406828 67.759876 142.574598 
C 67.592105 142.742368 67.49784 142.969945 67.49784 143.207208 
C 67.49784 143.444471 67.592105 143.672048 67.759876 143.839818 
C 67.927646 144.007588 68.155223 144.101853 68.392485 144.101853 
z
" clip-path="url(#p86556d9cad)" style="stroke: #000000"/>
    <path d="M 66.357084 135.058742 
C 66.594347 135.058742 66.821924 134.964477 66.989694 134.796707 
C 67.157464 134.628937 67.251729 134.40136 67.251729 134.164097 
C 67.251729 133.926834 67.157464 133.699257 66.989694 133.531487 
C 66.821924 133.363717 66.594347 133.269451 66.357084 133.269451 
C 66.119821 133.269451 65.892244 133.363717 65.724474 133.531487 
C 65.556704 133.699257 65.462438 133.926834 65.462438 134.164097 
C 65.462438 134.40136 65.556704 134.628937 65.724474 134.796707 
C 65.892244 134.964477 66.119821 135.058742 66.357084 135.058742 
z
" clip-path="url(#p86556d9cad)" style="stroke: #000000"/>
    <path d="M 62.44532 128.510567 
C 62.682583 128.510567 62.91016 128.416302 63.07793 128.248531 
C 63.2457 128.080761 63.339965 127.853184 63.339965 127.615922 
C 63.339965 127.378659 63.2457 127.151082 63.07793 126.983312 
C 62.91016 126.815542 62.682583 126.721276 62.44532 126.721276 
C 62.208057 126.721276 61.98048 126.815542 61.81271 126.983312 
C 61.64494 127.151082 61.550674 127.378659 61.550674 127.615922 
C 61.550674 127.853184 61.64494 128.080761 61.81271 128.248531 
C 61.98048 128.416302 62.208057 128.510567 62.44532 128.510567 
z
" clip-path="url(#p86556d9cad)" style="stroke: #000000"/>
    <path d="M 62.150981 115.157382 
C 62.388244 115.157382 62.615821 115.063117 62.783591 114.895347 
C 62.951361 114.727577 63.045627 114.5 63.045627 114.262737 
C 63.045627 114.025474 62.951361 113.797897 62.783591 113.630127 
C 62.615821 113.462357 62.388244 113.368091 62.150981 113.368091 
C 61.913719 113.368091 61.686142 113.462357 61.518372 113.630127 
C 61.350601 113.797897 61.256336 114.025474 61.256336 114.262737 
C 61.256336 114.5 61.350601 114.727577 61.518372 114.895347 
C 61.686142 115.063117 61.913719 115.157382 62.150981 115.157382 
z
" clip-path="url(#p86556d9cad)" style="stroke: #000000"/>
    <path d="M 51.241846 105.091718 
C 51.524001 105.091718 51.794637 104.979617 51.99415 104.780104 
C 52.193664 104.58059 52.305765 104.309954 52.305765 104.0278 
C 52.305765 103.745645 52.193664 103.475009 51.99415 103.275495 
C 51.794637 103.075982 51.524001 102.963881 51.241846 102.963881 
C 50.959692 102.963881 50.689055 103.075982 50.489542 103.275495 
C 50.290028 103.475009 50.177927 103.745645 50.177927 104.0278 
C 50.177927 104.309954 50.290028 104.58059 50.489542 104.780104 
C 50.689055 104.979617 50.959692 105.091718 51.241846 105.091718 
z
" clip-path="url(#p86556d9cad)" style="stroke: #000000"/>
    <path d="M 52.441907 97.554129 
C 52.67917 97.554129 52.906747 97.459863 53.074517 97.292093 
C 53.242287 97.124323 53.336553 96.896746 53.336553 96.659483 
C 53.336553 96.422221 53.242287 96.194644 53.074517 96.026873 
C 52.906747 95.859103 52.67917 95.764838 52.441907 95.764838 
C 52.204644 95.764838 51.977067 95.859103 51.809297 96.026873 
C 51.641527 96.194644 51.547262 96.422221 51.547262 96.659483 
C 51.547262 96.896746 51.641527 97.124323 51.809297 97.292093 
C 51.977067 97.459863 52.204644 97.554129 52.441907 97.554129 
z
" clip-path="url(#p86556d9cad)" style="stroke: #000000"/>
    <path d="M 45.567001 85.96155 
C 45.567001 85.96155 45.567001 85.96155 45.567001 85.96155 
C 45.567001 85.96155 45.567001 85.96155 45.567001 85.96155 
C 45.567001 85.96155 45.567001 85.96155 45.567001 85.96155 
C 45.567001 85.96155 45.567001 85.96155 45.567001 85.96155 
C 45.567001 85.96155 45.567001 85.96155 45.567001 85.96155 
C 45.567001 85.96155 45.567001 85.96155 45.567001 85.96155 
C 45.567001 85.96155 45.567001 85.96155 45.567001 85.96155 
C 45.567001 85.96155 45.567001 85.96155 45.567001 85.96155 
z
" clip-path="url(#p86556d9cad)" style="stroke: #000000"/>
    <path d="M 41.94194 78.097051 
C 42.177742 78.097051 42.403919 78.003365 42.570656 77.836628 
C 42.737394 77.66989 42.831079 77.443714 42.831079 77.207911 
C 42.831079 76.972108 42.737394 76.745932 42.570656 76.579194 
C 42.403919 76.412457 42.177742 76.318771 41.94194 76.318771 
C 41.706137 76.318771 41.47996 76.412457 41.313223 76.579194 
C 41.146485 76.745932 41.0528 76.972108 41.0528 77.207911 
C 41.0528 77.443714 41.146485 77.66989 41.313223 77.836628 
C 41.47996 78.003365 41.706137 78.097051 41.94194 78.097051 
z
" clip-path="url(#p86556d9cad)" style="stroke: #000000"/>
    <path d="M 43.368898 69.406562 
C 43.604701 69.406562 43.830878 69.312877 43.997615 69.146139 
C 44.164353 68.979402 44.258038 68.753225 44.258038 68.517423 
C 44.258038 68.28162 44.164353 68.055444 43.997615 67.888706 
C 43.830878 67.721968 43.604701 67.628283 43.368898 67.628283 
C 43.133096 67.628283 42.906919 67.721968 42.740182 67.888706 
C 42.573444 68.055444 42.479759 68.28162 42.479759 68.517423 
C 42.479759 68.753225 42.573444 68.979402 42.740182 69.146139 
C 42.906919 69.312877 43.133096 69.406562 43.368898 69.406562 
z
" clip-path="url(#p86556d9cad)" style="stroke: #000000"/>
    <path d="M 65.505916 174.35201 
C 65.741718 174.35201 65.967895 174.258325 66.134633 174.091587 
C 66.30137 173.92485 66.395056 173.698673 66.395056 173.46287 
C 66.395056 173.227068 66.30137 173.000891 66.134633 172.834154 
C 65.967895 172.667416 65.741718 172.573731 65.505916 172.573731 
C 65.270113 172.573731 65.043937 172.667416 64.877199 172.834154 
C 64.710462 173.000891 64.616776 173.227068 64.616776 173.46287 
C 64.616776 173.698673 64.710462 173.92485 64.877199 174.091587 
C 65.043937 174.258325 65.270113 174.35201 65.505916 174.35201 
z
" clip-path="url(#p86556d9cad)" style="stroke: #000000"/>
    <path d="M 63.324341 161.951437 
C 63.560144 161.951437 63.78632 161.857752 63.953058 161.691014 
C 64.119796 161.524277 64.213481 161.2981 64.213481 161.062298 
C 64.213481 160.826495 64.119796 160.600318 63.953058 160.433581 
C 63.78632 160.266843 63.560144 160.173158 63.324341 160.173158 
C 63.088539 160.173158 62.862362 160.266843 62.695625 160.433581 
C 62.528887 160.600318 62.435202 160.826495 62.435202 161.062298 
C 62.435202 161.2981 62.528887 161.524277 62.695625 161.691014 
C 62.862362 161.857752 63.088539 161.951437 63.324341 161.951437 
z
" clip-path="url(#p86556d9cad)" style="stroke: #000000"/>
    <path d="M 55.409362 154.042451 
C 55.645165 154.042451 55.871341 153.948765 56.038079 153.782028 
C 56.204817 153.61529 56.298502 153.389113 56.298502 153.153311 
C 56.298502 152.917508 56.204817 152.691332 56.038079 152.524594 
C 55.871341 152.357857 55.645165 152.264171 55.409362 152.264171 
C 55.17356 152.264171 54.947383 152.357857 54.780646 152.524594 
C 54.613908 152.691332 54.520223 152.917508 54.520223 153.153311 
C 54.520223 153.389113 54.613908 153.61529 54.780646 153.782028 
C 54.947383 153.948765 55.17356 154.042451 55.409362 154.042451 
z
" clip-path="url(#p86556d9cad)" style="stroke: #000000"/>
    <path d="M 51.757082 138.317212 
C 51.757082 138.317212 51.757082 138.317212 51.757082 138.317212 
C 51.757082 138.317212 51.757082 138.317212 51.757082 138.317212 
C 51.757082 138.317212 51.757082 138.317212 51.757082 138.317212 
C 51.757082 138.317212 51.757082 138.317212 51.757082 138.317212 
C 51.757082 138.317212 51.757082 138.317212 51.757082 138.317212 
C 51.757082 138.317212 51.757082 138.317212 51.757082 138.317212 
C 51.757082 138.317212 51.757082 138.317212 51.757082 138.317212 
C 51.757082 138.317212 51.757082 138.317212 51.757082 138.317212 
z
" clip-path="url(#p86556d9cad)" style="stroke: #000000"/>
    <path d="M 53.785396 126.498349 
C 53.785396 126.498349 53.785396 126.498349 53.785396 126.498349 
C 53.785396 126.498349 53.785396 126.498349 53.785396 126.498349 
C 53.785396 126.498349 53.785396 126.498349 53.785396 126.498349 
C 53.785396 126.498349 53.785396 126.498349 53.785396 126.498349 
C 53.785396 126.498349 53.785396 126.498349 53.785396 126.498349 
C 53.785396 126.498349 53.785396 126.498349 53.785396 126.498349 
C 53.785396 126.498349 53.785396 126.498349 53.785396 126.498349 
C 53.785396 126.498349 53.785396 126.498349 53.785396 126.498349 
z
" clip-path="url(#p86556d9cad)" style="stroke: #000000"/>
    <path d="M 48.32765 123.791813 
C 48.564913 123.791813 48.79249 123.697548 48.96026 123.529778 
C 49.12803 123.362008 49.222295 123.134431 49.222295 122.897168 
C 49.222295 122.659905 49.12803 122.432328 48.96026 122.264558 
C 48.79249 122.096788 48.564913 122.002522 48.32765 122.002522 
C 48.090387 122.002522 47.86281 122.096788 47.69504 122.264558 
C 47.52727 122.432328 47.433004 122.659905 47.433004 122.897168 
C 47.433004 123.134431 47.52727 123.362008 47.69504 123.529778 
C 47.86281 123.697548 48.090387 123.791813 48.32765 123.791813 
z
" clip-path="url(#p86556d9cad)" style="stroke: #000000"/>
    <path d="M 38.355259 109.615201 
C 38.449022 109.615201 38.538958 109.577949 38.605259 109.511648 
C 38.67156 109.445347 38.708812 109.355411 38.708812 109.261648 
C 38.708812 109.167884 38.67156 109.077949 38.605259 109.011648 
C 38.538958 108.945347 38.449022 108.908094 38.355259 108.908094 
C 38.261495 108.908094 38.17156 108.945347 38.105259 109.011648 
C 38.038958 109.077949 38.001706 109.167884 38.001706 109.261648 
C 38.001706 109.355411 38.038958 109.445347 38.105259 109.511648 
C 38.17156 109.577949 38.261495 109.615201 38.355259 109.615201 
z
" clip-path="url(#p86556d9cad)" style="stroke: #000000"/>
    <path d="M 39.701692 95.939458 
C 39.701692 95.939458 39.701692 95.939458 39.701692 95.939458 
C 39.701692 95.939458 39.701692 95.939458 39.701692 95.939458 
C 39.701692 95.939458 39.701692 95.939458 39.701692 95.939458 
C 39.701692 95.939458 39.701692 95.939458 39.701692 95.939458 
C 39.701692 95.939458 39.701692 95.939458 39.701692 95.939458 
C 39.701692 95.939458 39.701692 95.939458 39.701692 95.939458 
C 39.701692 95.939458 39.701692 95.939458 39.701692 95.939458 
C 39.701692 95.939458 39.701692 95.939458 39.701692 95.939458 
z
" clip-path="url(#p86556d9cad)" style="stroke: #000000"/>
    <path d="M 33.916948 89.008419 
C 33.916948 89.008419 33.916948 89.008419 33.916948 89.008419 
C 33.916948 89.008419 33.916948 89.008419 33.916948 89.008419 
C 33.916948 89.008419 33.916948 89.008419 33.916948 89.008419 
C 33.916948 89.008419 33.916948 89.008419 33.916948 89.008419 
C 33.916948 89.008419 33.916948 89.008419 33.916948 89.008419 
C 33.916948 89.008419 33.916948 89.008419 33.916948 89.008419 
C 33.916948 89.008419 33.916948 89.008419 33.916948 89.008419 
C 33.916948 89.008419 33.916948 89.008419 33.916948 89.008419 
z
" clip-path="url(#p86556d9cad)" style="stroke: #000000"/>
    <path d="M 52.367619 161.478854 
C 52.577281 161.478854 52.778383 161.395554 52.926636 161.247301 
C 53.074889 161.099048 53.158189 160.897946 53.158189 160.688284 
C 53.158189 160.478623 53.074889 160.27752 52.926636 160.129267 
C 52.778383 159.981014 52.577281 159.897715 52.367619 159.897715 
C 52.157958 159.897715 51.956855 159.981014 51.808602 160.129267 
C 51.660349 160.27752 51.57705 160.478623 51.57705 160.688284 
C 51.57705 160.897946 51.660349 161.099048 51.808602 161.247301 
C 51.956855 161.395554 52.157958 161.478854 52.367619 161.478854 
z
" clip-path="url(#p86556d9cad)" style="stroke: #000000"/>
    <path d="M 49.316602 152.563058 
C 49.546275 152.563058 49.766572 152.471808 49.928975 152.309405 
C 50.091378 152.147002 50.182628 151.926705 50.182628 151.697033 
C 50.182628 151.46736 50.091378 151.247063 49.928975 151.08466 
C 49.766572 150.922257 49.546275 150.831007 49.316602 150.831007 
C 49.08693 150.831007 48.866633 150.922257 48.70423 151.08466 
C 48.541827 151.247063 48.450577 151.46736 48.450577 151.697033 
C 48.450577 151.926705 48.541827 152.147002 48.70423 152.309405 
C 48.866633 152.471808 49.08693 152.563058 49.316602 152.563058 
z
" clip-path="url(#p86556d9cad)" style="stroke: #000000"/>
    <path d="M 45.894525 143.728825 
C 46.130328 143.728825 46.356504 143.63514 46.523242 143.468402 
C 46.68998 143.301665 46.783665 143.075488 46.783665 142.839686 
C 46.783665 142.603883 46.68998 142.377707 46.523242 142.210969 
C 46.356504 142.044231 46.130328 141.950546 45.894525 141.950546 
C 45.658723 141.950546 45.432546 142.044231 45.265809 142.210969 
C 45.099071 142.377707 45.005386 142.603883 45.005386 142.839686 
C 45.005386 143.075488 45.099071 143.301665 45.265809 143.468402 
C 45.432546 143.63514 45.658723 143.728825 45.894525 143.728825 
z
" clip-path="url(#p86556d9cad)" style="stroke: #000000"/>
    <path d="M 42.585076 138.123555 
C 42.820879 138.123555 43.047055 138.02987 43.213793 137.863132 
C 43.38053 137.696395 43.474216 137.470218 43.474216 137.234416 
C 43.474216 136.998613 43.38053 136.772437 43.213793 136.605699 
C 43.047055 136.438961 42.820879 136.345276 42.585076 136.345276 
C 42.349273 136.345276 42.123097 136.438961 41.956359 136.605699 
C 41.789622 136.772437 41.695936 136.998613 41.695936 137.234416 
C 41.695936 137.470218 41.789622 137.696395 41.956359 137.863132 
C 42.123097 138.02987 42.349273 138.123555 42.585076 138.123555 
z
" clip-path="url(#p86556d9cad)" style="stroke: #000000"/>
    <path d="M 33.834683 121.825071 
C 33.834683 121.825071 33.834683 121.825071 33.834683 121.825071 
C 33.834683 121.825071 33.834683 121.825071 33.834683 121.825071 
C 33.834683 121.825071 33.834683 121.825071 33.834683 121.825071 
C 33.834683 121.825071 33.834683 121.825071 33.834683 121.825071 
C 33.834683 121.825071 33.834683 121.825071 33.834683 121.825071 
C 33.834683 121.825071 33.834683 121.825071 33.834683 121.825071 
C 33.834683 121.825071 33.834683 121.825071 33.834683 121.825071 
C 33.834683 121.825071 33.834683 121.825071 33.834683 121.825071 
z
" clip-path="url(#p86556d9cad)" style="stroke: #000000"/>
    <path d="M 32.504086 114.101057 
C 32.739889 114.101057 32.966065 114.007372 33.132803 113.840634 
C 33.29954 113.673896 33.393226 113.44772 33.393226 113.211917 
C 33.393226 112.976115 33.29954 112.749938 33.132803 112.5832 
C 32.966065 112.416463 32.739889 112.322777 32.504086 112.322777 
C 32.268284 112.322777 32.042107 112.416463 31.875369 112.5832 
C 31.708632 112.749938 31.614946 112.976115 31.614946 113.211917 
C 31.614946 113.44772 31.708632 113.673896 31.875369 113.840634 
C 32.042107 114.007372 32.268284 114.101057 32.504086 114.101057 
z
" clip-path="url(#p86556d9cad)" style="stroke: #000000"/>
    <path d="M 30.229917 101.901394 
C 30.32368 101.901394 30.413616 101.864141 30.479917 101.797841 
C 30.546218 101.73154 30.58347 101.641604 30.58347 101.547841 
C 30.58347 101.454077 30.546218 101.364141 30.479917 101.297841 
C 30.413616 101.23154 30.32368 101.194287 30.229917 101.194287 
C 30.136153 101.194287 30.046218 101.23154 29.979917 101.297841 
C 29.913616 101.364141 29.876363 101.454077 29.876363 101.547841 
C 29.876363 101.641604 29.913616 101.73154 29.979917 101.797841 
C 30.046218 101.864141 30.136153 101.901394 30.229917 101.901394 
z
" clip-path="url(#p86556d9cad)" style="stroke: #000000"/>
    <path d="M 48.459027 178.570068 
C 48.552791 178.570068 48.642726 178.532815 48.709027 178.466514 
C 48.775328 178.400214 48.812581 178.310278 48.812581 178.216514 
C 48.812581 178.122751 48.775328 178.032815 48.709027 177.966514 
C 48.642726 177.900214 48.552791 177.862961 48.459027 177.862961 
C 48.365264 177.862961 48.275328 177.900214 48.209027 177.966514 
C 48.142726 178.032815 48.105474 178.122751 48.105474 178.216514 
C 48.105474 178.310278 48.142726 178.400214 48.209027 178.466514 
C 48.275328 178.532815 48.365264 178.570068 48.459027 178.570068 
z
" clip-path="url(#p86556d9cad)" style="stroke: #000000"/>
    <path d="M 42.593137 167.498594 
C 42.593137 167.498594 42.593137 167.498594 42.593137 167.498594 
C 42.593137 167.498594 42.593137 167.498594 42.593137 167.498594 
C 42.593137 167.498594 42.593137 167.498594 42.593137 167.498594 
C 42.593137 167.498594 42.593137 167.498594 42.593137 167.498594 
C 42.593137 167.498594 42.593137 167.498594 42.593137 167.498594 
C 42.593137 167.498594 42.593137 167.498594 42.593137 167.498594 
C 42.593137 167.498594 42.593137 167.498594 42.593137 167.498594 
C 42.593137 167.498594 42.593137 167.498594 42.593137 167.498594 
z
" clip-path="url(#p86556d9cad)" style="stroke: #000000"/>
    <path d="M 33.840146 156.166096 
C 33.840146 156.166096 33.840146 156.166096 33.840146 156.166096 
C 33.840146 156.166096 33.840146 156.166096 33.840146 156.166096 
C 33.840146 156.166096 33.840146 156.166096 33.840146 156.166096 
C 33.840146 156.166096 33.840146 156.166096 33.840146 156.166096 
C 33.840146 156.166096 33.840146 156.166096 33.840146 156.166096 
C 33.840146 156.166096 33.840146 156.166096 33.840146 156.166096 
C 33.840146 156.166096 33.840146 156.166096 33.840146 156.166096 
C 33.840146 156.166096 33.840146 156.166096 33.840146 156.166096 
z
" clip-path="url(#p86556d9cad)" style="stroke: #000000"/>
    <path d="M 31.547682 148.719459 
C 31.748401 148.719459 31.940926 148.639712 32.082856 148.497783 
C 32.224785 148.355853 32.304532 148.163328 32.304532 147.962609 
C 32.304532 147.76189 32.224785 147.569365 32.082856 147.427435 
C 31.940926 147.285505 31.748401 147.205759 31.547682 147.205759 
C 31.346963 147.205759 31.154438 147.285505 31.012508 147.427435 
C 30.870578 147.569365 30.790832 147.76189 30.790832 147.962609 
C 30.790832 148.163328 30.870578 148.355853 31.012508 148.497783 
C 31.154438 148.639712 31.346963 148.719459 31.547682 148.719459 
z
" clip-path="url(#p86556d9cad)" style="stroke: #000000"/>
   </g>
   <g id="matplotlib.axis_1">
    <g id="xtick_1">
     <g id="line2d_1">
      <defs>
       <path id="mff3ba71e17" d="M 0 0 
L 0 3.5 
" style="stroke: #000000; stroke-width: 0.8"/>
      </defs>
      <g>
       <use xlink:href="#mff3ba71e17" x="18" y="189" style="stroke: #000000; stroke-width: 0.8"/>
      </g>
     </g>
     <g id="text_1">
      <!-- 10 -->
      <g transform="translate(7.447656 203.598437)scale(0.1 -0.1)">
       <defs>
        <path id="DejaVuSans-2212" d="M 678 2272 
L 4684 2272 
L 4684 1741 
L 678 1741 
L 678 2272 
z
" transform="scale(0.015625)"/>
        <path id="DejaVuSans-31" d="M 794 531 
L 1825 531 
L 1825 4091 
L 703 3866 
L 703 4441 
L 1819 4666 
L 2450 4666 
L 2450 531 
L 3481 531 
L 3481 0 
L 794 0 
L 794 531 
z
" transform="scale(0.015625)"/>
        <path id="DejaVuSans-30" d="M 2034 4250 
Q 1547 4250 1301 3770 
Q 1056 3291 1056 2328 
Q 1056 1369 1301 889 
Q 1547 409 2034 409 
Q 2525 409 2770 889 
Q 3016 1369 3016 2328 
Q 3016 3291 2770 3770 
Q 2525 4250 2034 4250 
z
M 2034 4750 
Q 2819 4750 3233 4129 
Q 3647 3509 3647 2328 
Q 3647 1150 3233 529 
Q 2819 -91 2034 -91 
Q 1250 -91 836 529 
Q 422 1150 422 2328 
Q 422 3509 836 4129 
Q 1250 4750 2034 4750 
z
" transform="scale(0.015625)"/>
       </defs>
       <use xlink:href="#DejaVuSans-2212"/>
       <use xlink:href="#DejaVuSans-31" x="83.789062"/>
       <use xlink:href="#DejaVuSans-30" x="147.412109"/>
      </g>
     </g>
    </g>
    <g id="xtick_2">
     <g id="line2d_2">
      <g>
       <use xlink:href="#mff3ba71e17" x="73.8" y="189" style="stroke: #000000; stroke-width: 0.8"/>
      </g>
     </g>
     <g id="text_2">
      <!-- 0 -->
      <g transform="translate(70.61875 203.598437)scale(0.1 -0.1)">
       <use xlink:href="#DejaVuSans-30"/>
      </g>
     </g>
    </g>
    <g id="xtick_3">
     <g id="line2d_3">
      <g>
       <use xlink:href="#mff3ba71e17" x="129.6" y="189" style="stroke: #000000; stroke-width: 0.8"/>
      </g>
     </g>
     <g id="text_3">
      <!-- 10 -->
      <g transform="translate(123.2375 203.598437)scale(0.1 -0.1)">
       <use xlink:href="#DejaVuSans-31"/>
       <use xlink:href="#DejaVuSans-30" x="63.623047"/>
      </g>
     </g>
    </g>
   </g>
   <g id="matplotlib.axis_2">
    <g id="ytick_1">
     <g id="line2d_4">
      <defs>
       <path id="mef29de8ca5" d="M 0 0 
L -3.5 0 
" style="stroke: #000000; stroke-width: 0.8"/>
      </defs>
      <g>
       <use xlink:href="#mef29de8ca5" x="18" y="189" style="stroke: #000000; stroke-width: 0.8"/>
      </g>
     </g>
     <g id="text_4">
      <!-- 15 -->
      <g transform="translate(-10.104688 192.799219)scale(0.1 -0.1)">
       <defs>
        <path id="DejaVuSans-35" d="M 691 4666 
L 3169 4666 
L 3169 4134 
L 1269 4134 
L 1269 2991 
Q 1406 3038 1543 3061 
Q 1681 3084 1819 3084 
Q 2600 3084 3056 2656 
Q 3513 2228 3513 1497 
Q 3513 744 3044 326 
Q 2575 -91 1722 -91 
Q 1428 -91 1123 -41 
Q 819 9 494 109 
L 494 744 
Q 775 591 1075 516 
Q 1375 441 1709 441 
Q 2250 441 2565 725 
Q 2881 1009 2881 1497 
Q 2881 1984 2565 2268 
Q 2250 2553 1709 2553 
Q 1456 2553 1204 2497 
Q 953 2441 691 2322 
L 691 4666 
z
" transform="scale(0.015625)"/>
       </defs>
       <use xlink:href="#DejaVuSans-2212"/>
       <use xlink:href="#DejaVuSans-31" x="83.789062"/>
       <use xlink:href="#DejaVuSans-35" x="147.412109"/>
      </g>
     </g>
    </g>
    <g id="ytick_2">
     <g id="line2d_5">
      <g>
       <use xlink:href="#mef29de8ca5" x="18" y="161.82" style="stroke: #000000; stroke-width: 0.8"/>
      </g>
     </g>
     <g id="text_5">
      <!-- 10 -->
      <g transform="translate(-10.104688 165.619219)scale(0.1 -0.1)">
       <use xlink:href="#DejaVuSans-2212"/>
       <use xlink:href="#DejaVuSans-31" x="83.789062"/>
       <use xlink:href="#DejaVuSans-30" x="147.412109"/>
      </g>
     </g>
    </g>
    <g id="ytick_3">
     <g id="line2d_6">
      <g>
       <use xlink:href="#mef29de8ca5" x="18" y="134.64" style="stroke: #000000; stroke-width: 0.8"/>
      </g>
     </g>
     <g id="text_6">
      <!-- 5 -->
      <g transform="translate(-3.742188 138.439219)scale(0.1 -0.1)">
       <use xlink:href="#DejaVuSans-2212"/>
       <use xlink:href="#DejaVuSans-35" x="83.789062"/>
      </g>
     </g>
    </g>
    <g id="ytick_4">
     <g id="line2d_7">
      <g>
       <use xlink:href="#mef29de8ca5" x="18" y="107.46" style="stroke: #000000; stroke-width: 0.8"/>
      </g>
     </g>
     <g id="text_7">
      <!-- 0 -->
      <g transform="translate(4.6375 111.259219)scale(0.1 -0.1)">
       <use xlink:href="#DejaVuSans-30"/>
      </g>
     </g>
    </g>
    <g id="ytick_5">
     <g id="line2d_8">
      <g>
       <use xlink:href="#mef29de8ca5" x="18" y="80.28" style="stroke: #000000; stroke-width: 0.8"/>
      </g>
     </g>
     <g id="text_8">
      <!-- 5 -->
      <g transform="translate(4.6375 84.079219)scale(0.1 -0.1)">
       <use xlink:href="#DejaVuSans-35"/>
      </g>
     </g>
    </g>
    <g id="ytick_6">
     <g id="line2d_9">
      <g>
       <use xlink:href="#mef29de8ca5" x="18" y="53.1" style="stroke: #000000; stroke-width: 0.8"/>
      </g>
     </g>
     <g id="text_9">
      <!-- 10 -->
      <g transform="translate(-1.725 56.899219)scale(0.1 -0.1)">
       <use xlink:href="#DejaVuSans-31"/>
       <use xlink:href="#DejaVuSans-30" x="63.623047"/>
      </g>
     </g>
    </g>
    <g id="ytick_7">
     <g id="line2d_10">
      <g>
       <use xlink:href="#mef29de8ca5" x="18" y="25.92" style="stroke: #000000; stroke-width: 0.8"/>
      </g>
     </g>
     <g id="text_10">
      <!-- 15 -->
      <g transform="translate(-1.725 29.719219)scale(0.1 -0.1)">
       <use xlink:href="#DejaVuSans-31"/>
       <use xlink:href="#DejaVuSans-35" x="63.623047"/>
      </g>
     </g>
    </g>
   </g>
   <g id="patch_3">
    <path d="M 18 189 
L 18 25.92 
" style="fill: none; stroke: #000000; stroke-width: 0.8; stroke-linejoin: miter; stroke-linecap: square"/>
   </g>
   <g id="patch_4">
    <path d="M 129.6 189 
L 129.6 25.92 
" style="fill: none; stroke: #000000; stroke-width: 0.8; stroke-linejoin: miter; stroke-linecap: square"/>
   </g>
   <g id="patch_5">
    <path d="M 18 189 
L 129.6 189 
" style="fill: none; stroke: #000000; stroke-width: 0.8; stroke-linejoin: miter; stroke-linecap: square"/>
   </g>
   <g id="patch_6">
    <path d="M 18 25.92 
L 129.6 25.92 
" style="fill: none; stroke: #000000; stroke-width: 0.8; stroke-linejoin: miter; stroke-linecap: square"/>
   </g>
  </g>
 </g>
 <defs>
  <clipPath id="p86556d9cad">
   <rect x="18" y="25.92" width="111.6" height="163.08"/>
  </clipPath>
 </defs>
</svg>
