<?xml version="1.0" encoding="utf-8" standalone="no"?>
<!DOCTYPE svg PUBLIC "-//W3C//DTD SVG 1.1//EN"
  "http://www.w3.org/Graphics/SVG/1.1/DTD/svg11.dtd">
<svg xmlns:xlink="http://www.w3.org/1999/xlink" width="144pt" height="216pt" viewBox="0 0 144 216" xmlns="http://www.w3.org/2000/svg" version="1.1">
 <metadata>
  <rdf:RDF xmlns:dc="http://purl.org/dc/elements/1.1/" xmlns:cc="http://creativecommons.org/ns#" xmlns:rdf="http://www.w3.org/1999/02/22-rdf-syntax-ns#">
   <cc:Work>
    <dc:type rdf:resource="http://purl.org/dc/dcmitype/StillImage"/>
    <dc:date>2022-06-23T12:06:37.375100</dc:date>
    <dc:format>image/svg+xml</dc:format>
    <dc:creator>
     <cc:Agent>
      <dc:title>Matplotlib v3.5.1, https://matplotlib.org/</dc:title>
     </cc:Agent>
    </dc:creator>
   </cc:Work>
  </rdf:RDF>
 </metadata>
 <defs>
  <style type="text/css">*{stroke-linejoin: round; stroke-linecap: butt}</style>
 </defs>
 <g id="figure_1">
  <g id="patch_1">
   <path d="M 0 216 
L 144 216 
L 144 0 
L 0 0 
L 0 216 
z
" style="fill: none"/>
  </g>
  <g id="axes_1">
   <g id="patch_2">
    <path d="M 18 189 
L 129.6 189 
L 129.6 25.92 
L 18 25.92 
z
" style="fill: #ffffff"/>
   </g>
   <g id="PathCollection_1">
    <defs>
     <path id="m38d21fe2e5" d="M 0 2.738613 
C 0.726289 2.738613 1.422928 2.450055 1.936492 1.936492 
C 2.450055 1.422928 2.738613 0.726289 2.738613 0 
C 2.738613 -0.726289 2.450055 -1.422928 1.936492 -1.936492 
C 1.422928 -2.450055 0.726289 -2.738613 0 -2.738613 
C -0.726289 -2.738613 -1.422928 -2.450055 -1.936492 -1.936492 
C -2.450055 -1.422928 -2.738613 -0.726289 -2.738613 0 
C -2.738613 0.726289 -2.450055 1.422928 -1.936492 1.936492 
C -1.422928 2.450055 -0.726289 2.738613 0 2.738613 
z
" style="stroke: #ff0000; stroke-width: 1.75"/>
    </defs>
    <g clip-path="url(#pdf8be52691)">
     <use xlink:href="#m38d21fe2e5" x="80.775" y="107.46" style="fill: #ff0000; stroke: #ff0000; stroke-width: 1.75"/>
     <use xlink:href="#m38d21fe2e5" x="94.725" y="107.46" style="fill: #ff0000; stroke: #ff0000; stroke-width: 1.75"/>
     <use xlink:href="#m38d21fe2e5" x="59.85" y="119.229285" style="fill: #ff0000; stroke: #ff0000; stroke-width: 1.75"/>
     <use xlink:href="#m38d21fe2e5" x="73.8" y="119.229285" style="fill: #ff0000; stroke: #ff0000; stroke-width: 1.75"/>
     <use xlink:href="#m38d21fe2e5" x="87.75" y="119.229285" style="fill: #ff0000; stroke: #ff0000; stroke-width: 1.75"/>
     <use xlink:href="#m38d21fe2e5" x="66.825" y="130.99857" style="fill: #ff0000; stroke: #ff0000; stroke-width: 1.75"/>
     <use xlink:href="#m38d21fe2e5" x="80.775" y="130.99857" style="fill: #ff0000; stroke: #ff0000; stroke-width: 1.75"/>
    </g>
   </g>
   <g id="PathCollection_2">
    <defs>
     <path id="C0_0_e16f51111b" d="M 0 2.738613 
C 0.726289 2.738613 1.422928 2.450055 1.936492 1.936492 
C 2.450055 1.422928 2.738613 0.726289 2.738613 -0 
C 2.738613 -0.726289 2.450055 -1.422928 1.936492 -1.936492 
C 1.422928 -2.450055 0.726289 -2.738613 0 -2.738613 
C -0.726289 -2.738613 -1.422928 -2.450055 -1.936492 -1.936492 
C -2.450055 -1.422928 -2.738613 -0.726289 -2.738613 0 
C -2.738613 0.726289 -2.450055 1.422928 -1.936492 1.936492 
C -1.422928 2.450055 -0.726289 2.738613 0 2.738613 
z
"/>
    </defs>
    <g clip-path="url(#pdf8be52691)">
     <use xlink:href="#C0_0_e16f51111b" x="66.825" y="83.92143" style="fill: none; stroke: #ff0000; stroke-width: 1.75"/>
    </g>
    <g clip-path="url(#pdf8be52691)">
     <use xlink:href="#C0_0_e16f51111b" x="80.775" y="83.92143" style="fill: none; stroke: #ff0000; stroke-width: 1.75"/>
    </g>
    <g clip-path="url(#pdf8be52691)">
     <use xlink:href="#C0_0_e16f51111b" x="59.85" y="95.690715" style="fill: none; stroke: #ff0000; stroke-width: 1.75"/>
    </g>
    <g clip-path="url(#pdf8be52691)">
     <use xlink:href="#C0_0_e16f51111b" x="73.8" y="95.690715" style="fill: none; stroke: #ff0000; stroke-width: 1.75"/>
    </g>
    <g clip-path="url(#pdf8be52691)">
     <use xlink:href="#C0_0_e16f51111b" x="87.75" y="95.690715" style="fill: none; stroke: #ff0000; stroke-width: 1.75"/>
    </g>
    <g clip-path="url(#pdf8be52691)">
     <use xlink:href="#C0_0_e16f51111b" x="52.875" y="107.46" style="fill: none; stroke: #ff0000; stroke-width: 1.75"/>
    </g>
    <g clip-path="url(#pdf8be52691)">
     <use xlink:href="#C0_0_e16f51111b" x="66.825" y="107.46" style="fill: none; stroke: #ff0000; stroke-width: 1.75"/>
    </g>
   </g>
   <g id="PathCollection_3">
    <path d="M 107.192706 56.610734 
C 107.192706 56.610734 107.192706 56.610734 107.192706 56.610734 
C 107.192706 56.610734 107.192706 56.610734 107.192706 56.610734 
C 107.192706 56.610734 107.192706 56.610734 107.192706 56.610734 
C 107.192706 56.610734 107.192706 56.610734 107.192706 56.610734 
C 107.192706 56.610734 107.192706 56.610734 107.192706 56.610734 
C 107.192706 56.610734 107.192706 56.610734 107.192706 56.610734 
C 107.192706 56.610734 107.192706 56.610734 107.192706 56.610734 
C 107.192706 56.610734 107.192706 56.610734 107.192706 56.610734 
z
" clip-path="url(#pdf8be52691)" style="stroke: #000000"/>
    <path d="M 97.371398 48.166304 
C 97.96478 48.166304 98.533939 47.930551 98.953524 47.510966 
C 99.373109 47.091382 99.608862 46.522223 99.608862 45.92884 
C 99.608862 45.335458 99.373109 44.766299 98.953524 44.346714 
C 98.533939 43.927129 97.96478 43.691376 97.371398 43.691376 
C 96.778016 43.691376 96.208857 43.927129 95.789272 44.346714 
C 95.369687 44.766299 95.133934 45.335458 95.133934 45.92884 
C 95.133934 46.522223 95.369687 47.091382 95.789272 47.510966 
C 96.208857 47.930551 96.778016 48.166304 97.371398 48.166304 
z
" clip-path="url(#pdf8be52691)" style="stroke: #000000"/>
    <path d="M 95.59317 40.524608 
C 96.186552 40.524608 96.755711 40.288855 97.175296 39.86927 
C 97.594881 39.449685 97.830634 38.880526 97.830634 38.287144 
C 97.830634 37.693761 97.594881 37.124602 97.175296 36.705018 
C 96.755711 36.285433 96.186552 36.049679 95.59317 36.049679 
C 94.999787 36.049679 94.430628 36.285433 94.011044 36.705018 
C 93.591459 37.124602 93.355705 37.693761 93.355705 38.287144 
C 93.355705 38.880526 93.591459 39.449685 94.011044 39.86927 
C 94.430628 40.288855 94.999787 40.524608 95.59317 40.524608 
z
" clip-path="url(#pdf8be52691)" style="stroke: #000000"/>
    <path d="M 119.148436 128.723938 
C 119.85365 128.723938 120.530076 128.443753 121.028737 127.945091 
C 121.527399 127.446429 121.807584 126.770004 121.807584 126.06479 
C 121.807584 125.359575 121.527399 124.68315 121.028737 124.184488 
C 120.530076 123.685826 119.85365 123.405642 119.148436 123.405642 
C 118.443222 123.405642 117.766796 123.685826 117.268134 124.184488 
C 116.769473 124.68315 116.489288 125.359575 116.489288 126.06479 
C 116.489288 126.770004 116.769473 127.446429 117.268134 127.945091 
C 117.766796 128.443753 118.443222 128.723938 119.148436 128.723938 
z
" clip-path="url(#pdf8be52691)" style="stroke: #000000"/>
    <path d="M 112.776699 121.001203 
C 113.481914 121.001203 114.158339 120.721018 114.657001 120.222356 
C 115.155663 119.723694 115.435847 119.047269 115.435847 118.342055 
C 115.435847 117.63684 115.155663 116.960415 114.657001 116.461753 
C 114.158339 115.963091 113.481914 115.682907 112.776699 115.682907 
C 112.071485 115.682907 111.39506 115.963091 110.896398 116.461753 
C 110.397736 116.960415 110.117551 117.63684 110.117551 118.342055 
C 110.117551 119.047269 110.397736 119.723694 110.896398 120.222356 
C 111.39506 120.721018 112.071485 121.001203 112.776699 121.001203 
z
" clip-path="url(#pdf8be52691)" style="stroke: #000000"/>
    <path d="M 113.400707 114.710248 
C 114.105922 114.710248 114.782347 114.430063 115.281009 113.931401 
C 115.779671 113.43274 116.059855 112.756314 116.059855 112.0511 
C 116.059855 111.345886 115.779671 110.66946 115.281009 110.170798 
C 114.782347 109.672137 114.105922 109.391952 113.400707 109.391952 
C 112.695493 109.391952 112.019068 109.672137 111.520406 110.170798 
C 111.021744 110.66946 110.741559 111.345886 110.741559 112.0511 
C 110.741559 112.756314 111.021744 113.43274 111.520406 113.931401 
C 112.019068 114.430063 112.695493 114.710248 113.400707 114.710248 
z
" clip-path="url(#pdf8be52691)" style="stroke: #000000"/>
    <path d="M 112.277086 98.735622 
C 112.277086 98.735622 112.277086 98.735622 112.277086 98.735622 
C 112.277086 98.735622 112.277086 98.735622 112.277086 98.735622 
C 112.277086 98.735622 112.277086 98.735622 112.277086 98.735622 
C 112.277086 98.735622 112.277086 98.735622 112.277086 98.735622 
C 112.277086 98.735622 112.277086 98.735622 112.277086 98.735622 
C 112.277086 98.735622 112.277086 98.735622 112.277086 98.735622 
C 112.277086 98.735622 112.277086 98.735622 112.277086 98.735622 
C 112.277086 98.735622 112.277086 98.735622 112.277086 98.735622 
z
" clip-path="url(#pdf8be52691)" style="stroke: #000000"/>
    <path d="M 108.816641 89.626793 
C 109.521855 89.626793 110.19828 89.346608 110.696942 88.847946 
C 111.195604 88.349284 111.475789 87.672859 111.475789 86.967645 
C 111.475789 86.26243 111.195604 85.586005 110.696942 85.087343 
C 110.19828 84.588681 109.521855 84.308497 108.816641 84.308497 
C 108.111426 84.308497 107.435001 84.588681 106.936339 85.087343 
C 106.437677 85.586005 106.157493 86.26243 106.157493 86.967645 
C 106.157493 87.672859 106.437677 88.349284 106.936339 88.847946 
C 107.435001 89.346608 108.111426 89.626793 108.816641 89.626793 
z
" clip-path="url(#pdf8be52691)" style="stroke: #000000"/>
    <path d="M 98.515176 78.932495 
C 99.220391 78.932495 99.896816 78.65231 100.395478 78.153648 
C 100.89414 77.654986 101.174324 76.978561 101.174324 76.273347 
C 101.174324 75.568132 100.89414 74.891707 100.395478 74.393045 
C 99.896816 73.894383 99.220391 73.614199 98.515176 73.614199 
C 97.809962 73.614199 97.133537 73.894383 96.634875 74.393045 
C 96.136213 74.891707 95.856028 75.568132 95.856028 76.273347 
C 95.856028 76.978561 96.136213 77.654986 96.634875 78.153648 
C 97.133537 78.65231 97.809962 78.932495 98.515176 78.932495 
z
" clip-path="url(#pdf8be52691)" style="stroke: #000000"/>
    <path d="M 100.179513 68.955687 
C 100.884947 68.955687 101.561584 68.675414 102.060402 68.176597 
C 102.559219 67.677779 102.839491 67.001143 102.839491 66.295708 
C 102.839491 65.590273 102.559219 64.913637 102.060402 64.414819 
C 101.561584 63.916002 100.884947 63.635729 100.179513 63.635729 
C 99.474078 63.635729 98.797441 63.916002 98.298624 64.414819 
C 97.799806 64.913637 97.519534 65.590273 97.519534 66.295708 
C 97.519534 67.001143 97.799806 67.677779 98.298624 68.176597 
C 98.797441 68.675414 99.474078 68.955687 100.179513 68.955687 
z
" clip-path="url(#pdf8be52691)" style="stroke: #000000"/>
    <path d="M 100.097858 61.122672 
C 100.803073 61.122672 101.479498 60.842488 101.97816 60.343826 
C 102.476822 59.845164 102.757006 59.168739 102.757006 58.463524 
C 102.757006 57.75831 102.476822 57.081885 101.97816 56.583223 
C 101.479498 56.084561 100.803073 55.804376 100.097858 55.804376 
C 99.392644 55.804376 98.716219 56.084561 98.217557 56.583223 
C 97.718895 57.081885 97.43871 57.75831 97.43871 58.463524 
C 97.43871 59.168739 97.718895 59.845164 98.217557 60.343826 
C 98.716219 60.842488 99.392644 61.122672 100.097858 61.122672 
z
" clip-path="url(#pdf8be52691)" style="stroke: #000000"/>
    <path d="M 90.02367 49.98953 
C 90.181361 49.98953 90.332614 49.926879 90.444118 49.815375 
C 90.555622 49.703871 90.618274 49.552617 90.618274 49.394927 
C 90.618274 49.237236 90.555622 49.085983 90.444118 48.974478 
C 90.332614 48.862974 90.181361 48.800323 90.02367 48.800323 
C 89.865979 48.800323 89.714726 48.862974 89.603222 48.974478 
C 89.491718 49.085983 89.429066 49.237236 89.429066 49.394927 
C 89.429066 49.552617 89.491718 49.703871 89.603222 49.815375 
C 89.714726 49.926879 89.865979 49.98953 90.02367 49.98953 
z
" clip-path="url(#pdf8be52691)" style="stroke: #000000"/>
    <path d="M 89.496245 38.703664 
C 90.089627 38.703664 90.658786 38.467911 91.078371 38.048326 
C 91.497955 37.628741 91.733709 37.059583 91.733709 36.4662 
C 91.733709 35.872818 91.497955 35.303659 91.078371 34.884074 
C 90.658786 34.464489 90.089627 34.228736 89.496245 34.228736 
C 88.902862 34.228736 88.333703 34.464489 87.914119 34.884074 
C 87.494534 35.303659 87.25878 35.872818 87.25878 36.4662 
C 87.25878 37.059583 87.494534 37.628741 87.914119 38.048326 
C 88.333703 38.467911 88.902862 38.703664 89.496245 38.703664 
z
" clip-path="url(#pdf8be52691)" style="stroke: #000000"/>
    <path d="M 120.140677 174.612974 
C 120.40588 174.612974 120.660256 174.507608 120.847783 174.320081 
C 121.03531 174.132554 121.140677 173.878177 121.140677 173.612974 
C 121.140677 173.347771 121.03531 173.093394 120.847783 172.905867 
C 120.660256 172.71834 120.40588 172.612974 120.140677 172.612974 
C 119.875473 172.612974 119.621097 172.71834 119.43357 172.905867 
C 119.246043 173.093394 119.140677 173.347771 119.140677 173.612974 
C 119.140677 173.878177 119.246043 174.132554 119.43357 174.320081 
C 119.621097 174.507608 119.875473 174.612974 120.140677 174.612974 
z
" clip-path="url(#pdf8be52691)" style="stroke: #000000"/>
    <path d="M 123.261552 161.84095 
C 123.261552 161.84095 123.261552 161.84095 123.261552 161.84095 
C 123.261552 161.84095 123.261552 161.84095 123.261552 161.84095 
C 123.261552 161.84095 123.261552 161.84095 123.261552 161.84095 
C 123.261552 161.84095 123.261552 161.84095 123.261552 161.84095 
C 123.261552 161.84095 123.261552 161.84095 123.261552 161.84095 
C 123.261552 161.84095 123.261552 161.84095 123.261552 161.84095 
C 123.261552 161.84095 123.261552 161.84095 123.261552 161.84095 
C 123.261552 161.84095 123.261552 161.84095 123.261552 161.84095 
z
" clip-path="url(#pdf8be52691)" style="stroke: #000000"/>
    <path d="M 119.092357 160.823753 
C 119.092357 160.823753 119.092357 160.823753 119.092357 160.823753 
C 119.092357 160.823753 119.092357 160.823753 119.092357 160.823753 
C 119.092357 160.823753 119.092357 160.823753 119.092357 160.823753 
C 119.092357 160.823753 119.092357 160.823753 119.092357 160.823753 
C 119.092357 160.823753 119.092357 160.823753 119.092357 160.823753 
C 119.092357 160.823753 119.092357 160.823753 119.092357 160.823753 
C 119.092357 160.823753 119.092357 160.823753 119.092357 160.823753 
C 119.092357 160.823753 119.092357 160.823753 119.092357 160.823753 
z
" clip-path="url(#pdf8be52691)" style="stroke: #000000"/>
    <path d="M 114.318103 142.968661 
C 114.879377 142.968661 115.417738 142.745664 115.814618 142.348784 
C 116.211499 141.951903 116.434496 141.413542 116.434496 140.852268 
C 116.434496 140.290994 116.211499 139.752633 115.814618 139.355752 
C 115.417738 138.958872 114.879377 138.735875 114.318103 138.735875 
C 113.756829 138.735875 113.218468 138.958872 112.821587 139.355752 
C 112.424707 139.752633 112.20171 140.290994 112.20171 140.852268 
C 112.20171 141.413542 112.424707 141.951903 112.821587 142.348784 
C 113.218468 142.745664 113.756829 142.968661 114.318103 142.968661 
z
" clip-path="url(#pdf8be52691)" style="stroke: #000000"/>
    <path d="M 110.397867 135.004853 
C 111.103302 135.004853 111.779939 134.724581 112.278756 134.225764 
C 112.777574 133.726946 113.057846 133.050309 113.057846 132.344875 
C 113.057846 131.63944 112.777574 130.962804 112.278756 130.463986 
C 111.779939 129.965168 111.103302 129.684896 110.397867 129.684896 
C 109.692433 129.684896 109.015796 129.965168 108.516978 130.463986 
C 108.018161 130.962804 107.737889 131.63944 107.737889 132.344875 
C 107.737889 133.050309 108.018161 133.726946 108.516978 134.225764 
C 109.015796 134.724581 109.692433 135.004853 110.397867 135.004853 
z
" clip-path="url(#pdf8be52691)" style="stroke: #000000"/>
    <path d="M 108.021173 125.40781 
C 108.726607 125.40781 109.403244 125.127538 109.902062 124.62872 
C 110.400879 124.129903 110.681151 123.453266 110.681151 122.747831 
C 110.681151 122.042397 110.400879 121.36576 109.902062 120.866942 
C 109.403244 120.368125 108.726607 120.087853 108.021173 120.087853 
C 107.315738 120.087853 106.639102 120.368125 106.140284 120.866942 
C 105.641466 121.36576 105.361194 122.042397 105.361194 122.747831 
C 105.361194 123.453266 105.641466 124.129903 106.140284 124.62872 
C 106.639102 125.127538 107.315738 125.40781 108.021173 125.40781 
z
" clip-path="url(#pdf8be52691)" style="stroke: #000000"/>
    <path d="M 101.139906 113.951844 
C 101.681844 113.951844 102.201659 113.736529 102.584867 113.353321 
C 102.968075 112.970113 103.183389 112.450299 103.183389 111.908361 
C 103.183389 111.366423 102.968075 110.846608 102.584867 110.4634 
C 102.201659 110.080192 101.681844 109.864877 101.139906 109.864877 
C 100.597968 109.864877 100.078154 110.080192 99.694946 110.4634 
C 99.311737 110.846608 99.096423 111.366423 99.096423 111.908361 
C 99.096423 112.450299 99.311737 112.970113 99.694946 113.353321 
C 100.078154 113.736529 100.597968 113.951844 101.139906 113.951844 
z
" clip-path="url(#pdf8be52691)" style="stroke: #000000"/>
    <path d="M 99.700433 103.289949 
C 100.405868 103.289949 101.082505 103.009677 101.581322 102.510859 
C 102.08014 102.012042 102.360412 101.335405 102.360412 100.62997 
C 102.360412 99.924536 102.08014 99.247899 101.581322 98.749082 
C 101.082505 98.250264 100.405868 97.969992 99.700433 97.969992 
C 98.994999 97.969992 98.318362 98.250264 97.819544 98.749082 
C 97.320727 99.247899 97.040455 99.924536 97.040455 100.62997 
C 97.040455 101.335405 97.320727 102.012042 97.819544 102.510859 
C 98.318362 103.009677 98.994999 103.289949 99.700433 103.289949 
z
" clip-path="url(#pdf8be52691)" style="stroke: #000000"/>
    <path d="M 100.158313 94.803464 
C 100.863527 94.803464 101.539952 94.52328 102.038614 94.024618 
C 102.537276 93.525956 102.81746 92.849531 102.81746 92.144316 
C 102.81746 91.439102 102.537276 90.762677 102.038614 90.264015 
C 101.539952 89.765353 100.863527 89.485168 100.158313 89.485168 
C 99.453098 89.485168 98.776673 89.765353 98.278011 90.264015 
C 97.779349 90.762677 97.499165 91.439102 97.499165 92.144316 
C 97.499165 92.849531 97.779349 93.525956 98.278011 94.024618 
C 98.776673 94.52328 99.453098 94.803464 100.158313 94.803464 
z
" clip-path="url(#pdf8be52691)" style="stroke: #000000"/>
    <path d="M 90.047531 82.374705 
C 90.752966 82.374705 91.429602 82.094433 91.92842 81.595615 
C 92.427238 81.096797 92.70751 80.420161 92.70751 79.714726 
C 92.70751 79.009292 92.427238 78.332655 91.92842 77.833837 
C 91.429602 77.33502 90.752966 77.054748 90.047531 77.054748 
C 89.342097 77.054748 88.66546 77.33502 88.166642 77.833837 
C 87.667825 78.332655 87.387553 79.009292 87.387553 79.714726 
C 87.387553 80.420161 87.667825 81.096797 88.166642 81.595615 
C 88.66546 82.094433 89.342097 82.374705 90.047531 82.374705 
z
" clip-path="url(#pdf8be52691)" style="stroke: #000000"/>
    <path d="M 88.541483 73.471634 
C 89.246698 73.471634 89.923123 73.19145 90.421785 72.692788 
C 90.920447 72.194126 91.200631 71.517701 91.200631 70.812486 
C 91.200631 70.107272 90.920447 69.430847 90.421785 68.932185 
C 89.923123 68.433523 89.246698 68.153338 88.541483 68.153338 
C 87.836269 68.153338 87.159844 68.433523 86.661182 68.932185 
C 86.16252 69.430847 85.882336 70.107272 85.882336 70.812486 
C 85.882336 71.517701 86.16252 72.194126 86.661182 72.692788 
C 87.159844 73.19145 87.836269 73.471634 88.541483 73.471634 
z
" clip-path="url(#pdf8be52691)" style="stroke: #000000"/>
    <path d="M 86.522789 65.089812 
C 87.081421 65.089812 87.617249 64.867865 88.012262 64.472852 
C 88.407274 64.077839 88.629222 63.542012 88.629222 62.983379 
C 88.629222 62.424747 88.407274 61.888919 88.012262 61.493906 
C 87.617249 61.098893 87.081421 60.876946 86.522789 60.876946 
C 85.964156 60.876946 85.428328 61.098893 85.033316 61.493906 
C 84.638303 61.888919 84.416356 62.424747 84.416356 62.983379 
C 84.416356 63.542012 84.638303 64.077839 85.033316 64.472852 
C 85.428328 64.867865 85.964156 65.089812 86.522789 65.089812 
z
" clip-path="url(#pdf8be52691)" style="stroke: #000000"/>
    <path d="M 80.527593 49.733424 
C 80.527593 49.733424 80.527593 49.733424 80.527593 49.733424 
C 80.527593 49.733424 80.527593 49.733424 80.527593 49.733424 
C 80.527593 49.733424 80.527593 49.733424 80.527593 49.733424 
C 80.527593 49.733424 80.527593 49.733424 80.527593 49.733424 
C 80.527593 49.733424 80.527593 49.733424 80.527593 49.733424 
C 80.527593 49.733424 80.527593 49.733424 80.527593 49.733424 
C 80.527593 49.733424 80.527593 49.733424 80.527593 49.733424 
C 80.527593 49.733424 80.527593 49.733424 80.527593 49.733424 
z
" clip-path="url(#pdf8be52691)" style="stroke: #000000"/>
    <path d="M 76.992136 44.100577 
C 77.585518 44.100577 78.154677 43.864824 78.574262 43.445239 
C 78.993847 43.025654 79.2296 42.456495 79.2296 41.863113 
C 79.2296 41.26973 78.993847 40.700572 78.574262 40.280987 
C 78.154677 39.861402 77.585518 39.625649 76.992136 39.625649 
C 76.398753 39.625649 75.829594 39.861402 75.41001 40.280987 
C 74.990425 40.700572 74.754671 41.26973 74.754671 41.863113 
C 74.754671 42.456495 74.990425 43.025654 75.41001 43.445239 
C 75.829594 43.864824 76.398753 44.100577 76.992136 44.100577 
z
" clip-path="url(#pdf8be52691)" style="stroke: #000000"/>
    <path d="M 77.06232 31.950907 
C 77.655702 31.950907 78.224861 31.715153 78.644446 31.295569 
C 79.064031 30.875984 79.299784 30.306825 79.299784 29.713443 
C 79.299784 29.12006 79.064031 28.550901 78.644446 28.131316 
C 78.224861 27.711732 77.655702 27.475978 77.06232 27.475978 
C 76.468937 27.475978 75.899779 27.711732 75.480194 28.131316 
C 75.060609 28.550901 74.824856 29.12006 74.824856 29.713443 
C 74.824856 30.306825 75.060609 30.875984 75.480194 31.295569 
C 75.899779 31.715153 76.468937 31.950907 77.06232 31.950907 
z
" clip-path="url(#pdf8be52691)" style="stroke: #000000"/>
    <path d="M 110.93534 170.784207 
C 111.640555 170.784207 112.31698 170.504022 112.815642 170.00536 
C 113.314304 169.506698 113.594488 168.830273 113.594488 168.125059 
C 113.594488 167.419844 113.314304 166.743419 112.815642 166.244757 
C 112.31698 165.746095 111.640555 165.465911 110.93534 165.465911 
C 110.230126 165.465911 109.553701 165.746095 109.055039 166.244757 
C 108.556377 166.743419 108.276192 167.419844 108.276192 168.125059 
C 108.276192 168.830273 108.556377 169.506698 109.055039 170.00536 
C 109.553701 170.504022 110.230126 170.784207 110.93534 170.784207 
z
" clip-path="url(#pdf8be52691)" style="stroke: #000000"/>
    <path d="M 105.224969 161.313739 
C 105.78668 161.313739 106.32546 161.090569 106.722649 160.69338 
C 107.119838 160.296191 107.343008 159.757411 107.343008 159.1957 
C 107.343008 158.63399 107.119838 158.09521 106.722649 157.69802 
C 106.32546 157.300831 105.78668 157.077661 105.224969 157.077661 
C 104.663259 157.077661 104.124479 157.300831 103.727289 157.69802 
C 103.3301 158.09521 103.10693 158.63399 103.10693 159.1957 
C 103.10693 159.757411 103.3301 160.296191 103.727289 160.69338 
C 104.124479 161.090569 104.663259 161.313739 105.224969 161.313739 
z
" clip-path="url(#pdf8be52691)" style="stroke: #000000"/>
    <path d="M 102.827703 149.856667 
C 103.533138 149.856667 104.209774 149.576395 104.708592 149.077577 
C 105.207409 148.57876 105.487682 147.902123 105.487682 147.196688 
C 105.487682 146.491254 105.207409 145.814617 104.708592 145.315799 
C 104.209774 144.816982 103.533138 144.53671 102.827703 144.53671 
C 102.122268 144.53671 101.445632 144.816982 100.946814 145.315799 
C 100.447997 145.814617 100.167724 146.491254 100.167724 147.196688 
C 100.167724 147.902123 100.447997 148.57876 100.946814 149.077577 
C 101.445632 149.576395 102.122268 149.856667 102.827703 149.856667 
z
" clip-path="url(#pdf8be52691)" style="stroke: #000000"/>
    <path d="M 103.88882 135.606699 
C 104.481832 135.606699 105.050636 135.371093 105.469958 134.95177 
C 105.889281 134.532447 106.124888 133.963643 106.124888 133.370631 
C 106.124888 132.777619 105.889281 132.208815 105.469958 131.789492 
C 105.050636 131.370169 104.481832 131.134563 103.88882 131.134563 
C 103.295807 131.134563 102.727004 131.370169 102.307681 131.789492 
C 101.888358 132.208815 101.652752 132.777619 101.652752 133.370631 
C 101.652752 133.963643 101.888358 134.532447 102.307681 134.95177 
C 102.727004 135.371093 103.295807 135.606699 103.88882 135.606699 
z
" clip-path="url(#pdf8be52691)" style="stroke: #000000"/>
    <path d="M 94.329174 127.393973 
C 94.966905 127.393973 95.578601 127.1406 96.029544 126.689657 
C 96.480488 126.238713 96.733861 125.627017 96.733861 124.989287 
C 96.733861 124.351556 96.480488 123.73986 96.029544 123.288917 
C 95.578601 122.837973 94.966905 122.5846 94.329174 122.5846 
C 93.691444 122.5846 93.079748 122.837973 92.628804 123.288917 
C 92.177861 123.73986 91.924488 124.351556 91.924488 124.989287 
C 91.924488 125.627017 92.177861 126.238713 92.628804 126.689657 
C 93.079748 127.1406 93.691444 127.393973 94.329174 127.393973 
z
" clip-path="url(#pdf8be52691)" style="stroke: #000000"/>
    <path d="M 94.085298 119.922037 
C 94.921443 119.922037 95.723454 119.589833 96.314698 118.99859 
C 96.905942 118.407346 97.238145 117.605335 97.238145 116.76919 
C 97.238145 115.933045 96.905942 115.131034 96.314698 114.53979 
C 95.723454 113.948546 94.921443 113.616342 94.085298 113.616342 
C 93.249153 113.616342 92.447142 113.948546 91.855898 114.53979 
C 91.264654 115.131034 90.93245 115.933045 90.93245 116.76919 
C 90.93245 117.605335 91.264654 118.407346 91.855898 118.99859 
C 92.447142 119.589833 93.249153 119.922037 94.085298 119.922037 
z
" clip-path="url(#pdf8be52691)" style="stroke: #000000"/>
    <path d="M 88.690628 110.536251 
C 89.328358 110.536251 89.940055 110.282878 90.390998 109.831934 
C 90.841942 109.380991 91.095315 108.769294 91.095315 108.131564 
C 91.095315 107.493834 90.841942 106.882137 90.390998 106.431194 
C 89.940055 105.980251 89.328358 105.726878 88.690628 105.726878 
C 88.052898 105.726878 87.441201 105.980251 86.990258 106.431194 
C 86.539315 106.882137 86.285942 107.493834 86.285942 108.131564 
C 86.285942 108.769294 86.539315 109.380991 86.990258 109.831934 
C 87.441201 110.282878 88.052898 110.536251 88.690628 110.536251 
z
" clip-path="url(#pdf8be52691)" style="stroke: #000000"/>
    <path d="M 84.100415 97.853155 
C 84.737847 97.853155 85.349257 97.5999 85.79999 97.149168 
C 86.250722 96.698435 86.503977 96.087025 86.503977 95.449593 
C 86.503977 94.812161 86.250722 94.20075 85.79999 93.750018 
C 85.349257 93.299285 84.737847 93.046031 84.100415 93.046031 
C 83.462983 93.046031 82.851572 93.299285 82.40084 93.750018 
C 81.950107 94.20075 81.696853 94.812161 81.696853 95.449593 
C 81.696853 96.087025 81.950107 96.698435 82.40084 97.149168 
C 82.851572 97.5999 83.462983 97.853155 84.100415 97.853155 
z
" clip-path="url(#pdf8be52691)" style="stroke: #000000"/>
    <path d="M 81.359699 85.864036 
C 82.065133 85.864036 82.74177 85.583764 83.240587 85.084946 
C 83.739405 84.586129 84.019677 83.909492 84.019677 83.204057 
C 84.019677 82.498623 83.739405 81.821986 83.240587 81.323169 
C 82.74177 80.824351 82.065133 80.544079 81.359699 80.544079 
C 80.654264 80.544079 79.977627 80.824351 79.47881 81.323169 
C 78.979992 81.821986 78.69972 82.498623 78.69972 83.204057 
C 78.69972 83.909492 78.979992 84.586129 79.47881 85.084946 
C 79.977627 85.583764 80.654264 85.864036 81.359699 85.864036 
z
" clip-path="url(#pdf8be52691)" style="stroke: #000000"/>
    <path d="M 76.983486 82.1279 
C 77.688921 82.1279 78.365557 81.847628 78.864375 81.34881 
C 79.363193 80.849992 79.643465 80.173356 79.643465 79.467921 
C 79.643465 78.762487 79.363193 78.08585 78.864375 77.587032 
C 78.365557 77.088215 77.688921 76.807943 76.983486 76.807943 
C 76.278052 76.807943 75.601415 77.088215 75.102597 77.587032 
C 74.60378 78.08585 74.323508 78.762487 74.323508 79.467921 
C 74.323508 80.173356 74.60378 80.849992 75.102597 81.34881 
C 75.601415 81.847628 76.278052 82.1279 76.983486 82.1279 
z
" clip-path="url(#pdf8be52691)" style="stroke: #000000"/>
    <path d="M 73.325986 62.235595 
C 73.325986 62.235595 73.325986 62.235595 73.325986 62.235595 
C 73.325986 62.235595 73.325986 62.235595 73.325986 62.235595 
C 73.325986 62.235595 73.325986 62.235595 73.325986 62.235595 
C 73.325986 62.235595 73.325986 62.235595 73.325986 62.235595 
C 73.325986 62.235595 73.325986 62.235595 73.325986 62.235595 
C 73.325986 62.235595 73.325986 62.235595 73.325986 62.235595 
C 73.325986 62.235595 73.325986 62.235595 73.325986 62.235595 
C 73.325986 62.235595 73.325986 62.235595 73.325986 62.235595 
z
" clip-path="url(#pdf8be52691)" style="stroke: #000000"/>
    <path d="M 72.383961 58.304697 
C 72.383961 58.304697 72.383961 58.304697 72.383961 58.304697 
C 72.383961 58.304697 72.383961 58.304697 72.383961 58.304697 
C 72.383961 58.304697 72.383961 58.304697 72.383961 58.304697 
C 72.383961 58.304697 72.383961 58.304697 72.383961 58.304697 
C 72.383961 58.304697 72.383961 58.304697 72.383961 58.304697 
C 72.383961 58.304697 72.383961 58.304697 72.383961 58.304697 
C 72.383961 58.304697 72.383961 58.304697 72.383961 58.304697 
C 72.383961 58.304697 72.383961 58.304697 72.383961 58.304697 
z
" clip-path="url(#pdf8be52691)" style="stroke: #000000"/>
    <path d="M 71.07833 43.913289 
C 71.671713 43.913289 72.240872 43.677536 72.660457 43.257951 
C 73.080041 42.838366 73.315795 42.269207 73.315795 41.675825 
C 73.315795 41.082442 73.080041 40.513283 72.660457 40.093699 
C 72.240872 39.674114 71.671713 39.438361 71.07833 39.438361 
C 70.484948 39.438361 69.915789 39.674114 69.496204 40.093699 
C 69.07662 40.513283 68.840866 41.082442 68.840866 41.675825 
C 68.840866 42.269207 69.07662 42.838366 69.496204 43.257951 
C 69.915789 43.677536 70.484948 43.913289 71.07833 43.913289 
z
" clip-path="url(#pdf8be52691)" style="stroke: #000000"/>
    <path d="M 63.085904 36.217152 
C 63.630733 36.217152 64.15332 36.000689 64.538572 35.615437 
C 64.923824 35.230185 65.140286 34.707598 65.140286 34.16277 
C 65.140286 33.617941 64.923824 33.095354 64.538572 32.710102 
C 64.15332 32.32485 63.630733 32.108388 63.085904 32.108388 
C 62.541076 32.108388 62.018489 32.32485 61.633237 32.710102 
C 61.247985 33.095354 61.031522 33.617941 61.031522 34.16277 
C 61.031522 34.707598 61.247985 35.230185 61.633237 35.615437 
C 62.018489 36.000689 62.541076 36.217152 63.085904 36.217152 
z
" clip-path="url(#pdf8be52691)" style="stroke: #000000"/>
    <path d="M 98.37029 175.207868 
C 98.910765 175.207868 99.429177 174.993135 99.811351 174.610961 
C 100.193524 174.228787 100.408258 173.710376 100.408258 173.169901 
C 100.408258 172.629425 100.193524 172.111014 99.811351 171.72884 
C 99.429177 171.346666 98.910765 171.131933 98.37029 171.131933 
C 97.829815 171.131933 97.311403 171.346666 96.929229 171.72884 
C 96.547056 172.111014 96.332322 172.629425 96.332322 173.169901 
C 96.332322 173.710376 96.547056 174.228787 96.929229 174.610961 
C 97.311403 174.993135 97.829815 175.207868 98.37029 175.207868 
z
" clip-path="url(#pdf8be52691)" style="stroke: #000000"/>
    <path d="M 96.347052 162.551116 
C 96.908325 162.551116 97.446687 162.32812 97.843567 161.931239 
C 98.240448 161.534359 98.463444 160.995997 98.463444 160.434724 
C 98.463444 159.87345 98.240448 159.335088 97.843567 158.938208 
C 97.446687 158.541327 96.908325 158.318331 96.347052 158.318331 
C 95.785778 158.318331 95.247416 158.541327 94.850536 158.938208 
C 94.453655 159.335088 94.230659 159.87345 94.230659 160.434724 
C 94.230659 160.995997 94.453655 161.534359 94.850536 161.931239 
C 95.247416 162.32812 95.785778 162.551116 96.347052 162.551116 
z
" clip-path="url(#pdf8be52691)" style="stroke: #000000"/>
    <path d="M 87.026123 154.484523 
C 87.731337 154.484523 88.407762 154.204339 88.906424 153.705677 
C 89.405086 153.207015 89.685271 152.53059 89.685271 151.825375 
C 89.685271 151.120161 89.405086 150.443736 88.906424 149.945074 
C 88.407762 149.446412 87.731337 149.166227 87.026123 149.166227 
C 86.320908 149.166227 85.644483 149.446412 85.145821 149.945074 
C 84.647159 150.443736 84.366975 151.120161 84.366975 151.825375 
C 84.366975 152.53059 84.647159 153.207015 85.145821 153.705677 
C 85.644483 154.204339 86.320908 154.484523 87.026123 154.484523 
z
" clip-path="url(#pdf8be52691)" style="stroke: #000000"/>
    <path d="M 88.486709 145.084473 
C 89.192144 145.084473 89.868781 144.804201 90.367598 144.305383 
C 90.866416 143.806565 91.146688 143.129929 91.146688 142.424494 
C 91.146688 141.71906 90.866416 141.042423 90.367598 140.543605 
C 89.868781 140.044788 89.192144 139.764516 88.486709 139.764516 
C 87.781275 139.764516 87.104638 140.044788 86.60582 140.543605 
C 86.107003 141.042423 85.826731 141.71906 85.826731 142.424494 
C 85.826731 143.129929 86.107003 143.806565 86.60582 144.305383 
C 87.104638 144.804201 87.781275 145.084473 88.486709 145.084473 
z
" clip-path="url(#pdf8be52691)" style="stroke: #000000"/>
    <path d="M 87.447647 131.895602 
C 88.040659 131.895602 88.609463 131.659996 89.028786 131.240673 
C 89.448109 130.82135 89.683715 130.252547 89.683715 129.659534 
C 89.683715 129.066522 89.448109 128.497719 89.028786 128.078396 
C 88.609463 127.659073 88.040659 127.423466 87.447647 127.423466 
C 86.854635 127.423466 86.285831 127.659073 85.866508 128.078396 
C 85.447186 128.497719 85.211579 129.066522 85.211579 129.659534 
C 85.211579 130.252547 85.447186 130.82135 85.866508 131.240673 
C 86.285831 131.659996 86.854635 131.895602 87.447647 131.895602 
z
" clip-path="url(#pdf8be52691)" style="stroke: #000000"/>
    <path d="M 86.167038 119.837532 
C 86.76005 119.837532 87.328854 119.601926 87.748177 119.182603 
C 88.1675 118.76328 88.403106 118.194476 88.403106 117.601464 
C 88.403106 117.008452 88.1675 116.439648 87.748177 116.020325 
C 87.328854 115.601002 86.76005 115.365396 86.167038 115.365396 
C 85.574026 115.365396 85.005222 115.601002 84.585899 116.020325 
C 84.166576 116.439648 83.93097 117.008452 83.93097 117.601464 
C 83.93097 118.194476 84.166576 118.76328 84.585899 119.182603 
C 85.005222 119.601926 85.574026 119.837532 86.167038 119.837532 
z
" clip-path="url(#pdf8be52691)" style="stroke: #000000"/>
    <path d="M 79.745468 110.202044 
C 80.389945 110.202044 81.008112 109.945991 81.463826 109.490277 
C 81.919539 109.034563 82.175593 108.416396 82.175593 107.771919 
C 82.175593 107.127443 81.919539 106.509275 81.463826 106.053561 
C 81.008112 105.597848 80.389945 105.341794 79.745468 105.341794 
C 79.100991 105.341794 78.482824 105.597848 78.02711 106.053561 
C 77.571397 106.509275 77.315343 107.127443 77.315343 107.771919 
C 77.315343 108.416396 77.571397 109.034563 78.02711 109.490277 
C 78.482824 109.945991 79.100991 110.202044 79.745468 110.202044 
z
" clip-path="url(#pdf8be52691)" style="stroke: #000000"/>
    <path d="M 79.012951 101.617475 
C 79.718385 101.617475 80.395022 101.337203 80.89384 100.838386 
C 81.392657 100.339568 81.672929 99.662931 81.672929 98.957497 
C 81.672929 98.252062 81.392657 97.575425 80.89384 97.076608 
C 80.395022 96.57779 79.718385 96.297518 79.012951 96.297518 
C 78.307516 96.297518 77.630879 96.57779 77.132062 97.076608 
C 76.633244 97.575425 76.352972 98.252062 76.352972 98.957497 
C 76.352972 99.662931 76.633244 100.339568 77.132062 100.838386 
C 77.630879 101.337203 78.307516 101.617475 79.012951 101.617475 
z
" clip-path="url(#pdf8be52691)" style="stroke: #000000"/>
    <path d="M 73.154414 91.007049 
C 73.859848 91.007049 74.536485 90.726777 75.035303 90.227959 
C 75.53412 89.729142 75.814392 89.052505 75.814392 88.34707 
C 75.814392 87.641636 75.53412 86.964999 75.035303 86.466181 
C 74.536485 85.967364 73.859848 85.687092 73.154414 85.687092 
C 72.448979 85.687092 71.772342 85.967364 71.273525 86.466181 
C 70.774707 86.964999 70.494435 87.641636 70.494435 88.34707 
C 70.494435 89.052505 70.774707 89.729142 71.273525 90.227959 
C 71.772342 90.726777 72.448979 91.007049 73.154414 91.007049 
z
" clip-path="url(#pdf8be52691)" style="stroke: #000000"/>
    <path d="M 65.902601 83.447602 
C 66.730698 83.447602 67.524989 83.118596 68.110542 82.533043 
C 68.696094 81.94749 69.0251 81.153199 69.0251 80.325103 
C 69.0251 79.497006 68.696094 78.702715 68.110542 78.117163 
C 67.524989 77.53161 66.730698 77.202604 65.902601 77.202604 
C 65.074505 77.202604 64.280214 77.53161 63.694661 78.117163 
C 63.109109 78.702715 62.780102 79.497006 62.780102 80.325103 
C 62.780102 81.153199 63.109109 81.94749 63.694661 82.533043 
C 64.280214 83.118596 65.074505 83.447602 65.902601 83.447602 
z
" clip-path="url(#pdf8be52691)" style="stroke: #000000"/>
    <path d="M 66.807648 68.788472 
C 67.512862 68.788472 68.189288 68.508287 68.68795 68.009625 
C 69.186612 67.510964 69.466796 66.834538 69.466796 66.129324 
C 69.466796 65.42411 69.186612 64.747684 68.68795 64.249022 
C 68.189288 63.750361 67.512862 63.470176 66.807648 63.470176 
C 66.102434 63.470176 65.426008 63.750361 64.927347 64.249022 
C 64.428685 64.747684 64.1485 65.42411 64.1485 66.129324 
C 64.1485 66.834538 64.428685 67.510964 64.927347 68.009625 
C 65.426008 68.508287 66.102434 68.788472 66.807648 68.788472 
z
" clip-path="url(#pdf8be52691)" style="stroke: #000000"/>
    <path d="M 61.85166 51.558355 
C 61.85166 51.558355 61.85166 51.558355 61.85166 51.558355 
C 61.85166 51.558355 61.85166 51.558355 61.85166 51.558355 
C 61.85166 51.558355 61.85166 51.558355 61.85166 51.558355 
C 61.85166 51.558355 61.85166 51.558355 61.85166 51.558355 
C 61.85166 51.558355 61.85166 51.558355 61.85166 51.558355 
C 61.85166 51.558355 61.85166 51.558355 61.85166 51.558355 
C 61.85166 51.558355 61.85166 51.558355 61.85166 51.558355 
C 61.85166 51.558355 61.85166 51.558355 61.85166 51.558355 
z
" clip-path="url(#pdf8be52691)" style="stroke: #000000"/>
    <path d="M 57.18596 47.624649 
C 57.318561 47.624649 57.44575 47.571966 57.539513 47.478202 
C 57.633277 47.384439 57.68596 47.257251 57.68596 47.124649 
C 57.68596 46.992048 57.633277 46.864859 57.539513 46.771096 
C 57.44575 46.677332 57.318561 46.624649 57.18596 46.624649 
C 57.053358 46.624649 56.92617 46.677332 56.832407 46.771096 
C 56.738643 46.864859 56.68596 46.992048 56.68596 47.124649 
C 56.68596 47.257251 56.738643 47.384439 56.832407 47.478202 
C 56.92617 47.571966 57.053358 47.624649 57.18596 47.624649 
z
" clip-path="url(#pdf8be52691)" style="stroke: #000000"/>
    <path d="M 55.130815 42.272427 
C 55.710406 42.272427 56.266336 42.042153 56.676169 41.63232 
C 57.086002 41.222487 57.316276 40.666556 57.316276 40.086965 
C 57.316276 39.507374 57.086002 38.951443 56.676169 38.54161 
C 56.266336 38.131777 55.710406 37.901503 55.130815 37.901503 
C 54.551223 37.901503 53.995293 38.131777 53.58546 38.54161 
C 53.175627 38.951443 52.945353 39.507374 52.945353 40.086965 
C 52.945353 40.666556 53.175627 41.222487 53.58546 41.63232 
C 53.995293 42.042153 54.551223 42.272427 55.130815 42.272427 
z
" clip-path="url(#pdf8be52691)" style="stroke: #000000"/>
    <path d="M 87.650668 180.472685 
C 88.196925 180.472685 88.720882 180.255655 89.107144 179.869393 
C 89.493406 179.483131 89.710436 178.959174 89.710436 178.412918 
C 89.710436 177.866661 89.493406 177.342704 89.107144 176.956443 
C 88.720882 176.570181 88.196925 176.353151 87.650668 176.353151 
C 87.104412 176.353151 86.580455 176.570181 86.194193 176.956443 
C 85.807931 177.342704 85.590901 177.866661 85.590901 178.412918 
C 85.590901 178.959174 85.807931 179.483131 86.194193 179.869393 
C 86.580455 180.255655 87.104412 180.472685 87.650668 180.472685 
z
" clip-path="url(#pdf8be52691)" style="stroke: #000000"/>
    <path d="M 88.282001 168.503757 
C 88.987215 168.503757 89.66364 168.223572 90.162302 167.724911 
C 90.660964 167.226249 90.941149 166.549823 90.941149 165.844609 
C 90.941149 165.139395 90.660964 164.462969 90.162302 163.964308 
C 89.66364 163.465646 88.987215 163.185461 88.282001 163.185461 
C 87.576786 163.185461 86.900361 163.465646 86.401699 163.964308 
C 85.903037 164.462969 85.622853 165.139395 85.622853 165.844609 
C 85.622853 166.549823 85.903037 167.226249 86.401699 167.724911 
C 86.900361 168.223572 87.576786 168.503757 88.282001 168.503757 
z
" clip-path="url(#pdf8be52691)" style="stroke: #000000"/>
    <path d="M 78.352262 156.861273 
C 79.057476 156.861273 79.733902 156.581088 80.232564 156.082426 
C 80.731225 155.583764 81.01141 154.907339 81.01141 154.202125 
C 81.01141 153.49691 80.731225 152.820485 80.232564 152.321823 
C 79.733902 151.823161 79.057476 151.542977 78.352262 151.542977 
C 77.647048 151.542977 76.970622 151.823161 76.471961 152.321823 
C 75.973299 152.820485 75.693114 153.49691 75.693114 154.202125 
C 75.693114 154.907339 75.973299 155.583764 76.471961 156.082426 
C 76.970622 156.581088 77.647048 156.861273 78.352262 156.861273 
z
" clip-path="url(#pdf8be52691)" style="stroke: #000000"/>
    <path d="M 76.503196 147.278725 
C 77.096208 147.278725 77.665012 147.043119 78.084335 146.623796 
C 78.503658 146.204473 78.739264 145.635669 78.739264 145.042657 
C 78.739264 144.449645 78.503658 143.880841 78.084335 143.461518 
C 77.665012 143.042195 77.096208 142.806589 76.503196 142.806589 
C 75.910184 142.806589 75.34138 143.042195 74.922057 143.461518 
C 74.502734 143.880841 74.267128 144.449645 74.267128 145.042657 
C 74.267128 145.635669 74.502734 146.204473 74.922057 146.623796 
C 75.34138 147.043119 75.910184 147.278725 76.503196 147.278725 
z
" clip-path="url(#pdf8be52691)" style="stroke: #000000"/>
    <path d="M 73.509132 138.115081 
C 74.214567 138.115081 74.891203 137.834808 75.390021 137.335991 
C 75.888838 136.837173 76.169111 136.160537 76.169111 135.455102 
C 76.169111 134.749667 75.888838 134.073031 75.390021 133.574213 
C 74.891203 133.075396 74.214567 132.795123 73.509132 132.795123 
C 72.803697 132.795123 72.127061 133.075396 71.628243 133.574213 
C 71.129426 134.073031 70.849153 134.749667 70.849153 135.455102 
C 70.849153 136.160537 71.129426 136.837173 71.628243 137.335991 
C 72.127061 137.834808 72.803697 138.115081 73.509132 138.115081 
z
" clip-path="url(#pdf8be52691)" style="stroke: #000000"/>
    <path d="M 74.000182 127.079196 
C 74.740199 127.079196 75.450006 126.785184 75.973277 126.261913 
C 76.496548 125.738642 76.790559 125.028835 76.790559 124.288818 
C 76.790559 123.548802 76.496548 122.838994 75.973277 122.315724 
C 75.450006 121.792453 74.740199 121.498441 74.000182 121.498441 
C 73.260165 121.498441 72.550358 121.792453 72.027087 122.315724 
C 71.503816 122.838994 71.209805 123.548802 71.209805 124.288818 
C 71.209805 125.028835 71.503816 125.738642 72.027087 126.261913 
C 72.550358 126.785184 73.260165 127.079196 74.000182 127.079196 
z
" clip-path="url(#pdf8be52691)" style="stroke: #000000"/>
    <path d="M 70.032702 113.734138 
C 70.625714 113.734138 71.194518 113.498532 71.613841 113.079209 
C 72.033164 112.659886 72.26877 112.091082 72.26877 111.49807 
C 72.26877 110.905058 72.033164 110.336254 71.613841 109.916931 
C 71.194518 109.497608 70.625714 109.262002 70.032702 109.262002 
C 69.43969 109.262002 68.870886 109.497608 68.451563 109.916931 
C 68.03224 110.336254 67.796634 110.905058 67.796634 111.49807 
C 67.796634 112.091082 68.03224 112.659886 68.451563 113.079209 
C 68.870886 113.498532 69.43969 113.734138 70.032702 113.734138 
z
" clip-path="url(#pdf8be52691)" style="stroke: #000000"/>
    <path d="M 65.367789 105.728387 
C 66.007596 105.728387 66.621283 105.474189 67.073694 105.021778 
C 67.526106 104.569367 67.780303 103.955679 67.780303 103.315873 
C 67.780303 102.676067 67.526106 102.062379 67.073694 101.609968 
C 66.621283 101.157557 66.007596 100.903359 65.367789 100.903359 
C 64.727983 100.903359 64.114296 101.157557 63.661884 101.609968 
C 63.209473 102.062379 62.955275 102.676067 62.955275 103.315873 
C 62.955275 103.955679 63.209473 104.569367 63.661884 105.021778 
C 64.114296 105.474189 64.727983 105.728387 65.367789 105.728387 
z
" clip-path="url(#pdf8be52691)" style="stroke: #000000"/>
    <path d="M 59.985527 95.382752 
C 60.690962 95.382752 61.367598 95.10248 61.866416 94.603662 
C 62.365234 94.104844 62.645506 93.428208 62.645506 92.722773 
C 62.645506 92.017339 62.365234 91.340702 61.866416 90.841884 
C 61.367598 90.343067 60.690962 90.062795 59.985527 90.062795 
C 59.280093 90.062795 58.603456 90.343067 58.104638 90.841884 
C 57.605821 91.340702 57.325549 92.017339 57.325549 92.722773 
C 57.325549 93.428208 57.605821 94.104844 58.104638 94.603662 
C 58.603456 95.10248 59.280093 95.382752 59.985527 95.382752 
z
" clip-path="url(#pdf8be52691)" style="stroke: #000000"/>
    <path d="M 52.454887 84.862011 
C 53.047899 84.862011 53.616703 84.626405 54.036026 84.207082 
C 54.455349 83.787759 54.690955 83.218955 54.690955 82.625943 
C 54.690955 82.032931 54.455349 81.464127 54.036026 81.044804 
C 53.616703 80.625482 53.047899 80.389875 52.454887 80.389875 
C 51.861875 80.389875 51.293071 80.625482 50.873748 81.044804 
C 50.454425 81.464127 50.218819 82.032931 50.218819 82.625943 
C 50.218819 83.218955 50.454425 83.787759 50.873748 84.207082 
C 51.293071 84.626405 51.861875 84.862011 52.454887 84.862011 
z
" clip-path="url(#pdf8be52691)" style="stroke: #000000"/>
    <path d="M 54.119895 75.957204 
C 54.825109 75.957204 55.501535 75.677019 56.000197 75.178357 
C 56.498858 74.679695 56.779043 74.00327 56.779043 73.298056 
C 56.779043 72.592841 56.498858 71.916416 56.000197 71.417754 
C 55.501535 70.919092 54.825109 70.638908 54.119895 70.638908 
C 53.414681 70.638908 52.738255 70.919092 52.239594 71.417754 
C 51.740932 71.916416 51.460747 72.592841 51.460747 73.298056 
C 51.460747 74.00327 51.740932 74.679695 52.239594 75.178357 
C 52.738255 75.677019 53.414681 75.957204 54.119895 75.957204 
z
" clip-path="url(#pdf8be52691)" style="stroke: #000000"/>
    <path d="M 51.39991 65.006178 
C 51.937921 65.006178 52.453968 64.792424 52.834399 64.411993 
C 53.21483 64.031562 53.428584 63.515514 53.428584 62.977504 
C 53.428584 62.439493 53.21483 61.923445 52.834399 61.543014 
C 52.453968 61.162583 51.937921 60.948829 51.39991 60.948829 
C 50.861899 60.948829 50.345852 61.162583 49.965421 61.543014 
C 49.58499 61.923445 49.371236 62.439493 49.371236 62.977504 
C 49.371236 63.515514 49.58499 64.031562 49.965421 64.411993 
C 50.345852 64.792424 50.861899 65.006178 51.39991 65.006178 
z
" clip-path="url(#pdf8be52691)" style="stroke: #000000"/>
    <path d="M 50.578927 54.761685 
C 50.578927 54.761685 50.578927 54.761685 50.578927 54.761685 
C 50.578927 54.761685 50.578927 54.761685 50.578927 54.761685 
C 50.578927 54.761685 50.578927 54.761685 50.578927 54.761685 
C 50.578927 54.761685 50.578927 54.761685 50.578927 54.761685 
C 50.578927 54.761685 50.578927 54.761685 50.578927 54.761685 
C 50.578927 54.761685 50.578927 54.761685 50.578927 54.761685 
C 50.578927 54.761685 50.578927 54.761685 50.578927 54.761685 
C 50.578927 54.761685 50.578927 54.761685 50.578927 54.761685 
z
" clip-path="url(#pdf8be52691)" style="stroke: #000000"/>
    <path d="M 44.837371 42.031781 
C 45.430753 42.031781 45.999912 41.796028 46.419497 41.376443 
C 46.839082 40.956858 47.074835 40.387699 47.074835 39.794317 
C 47.074835 39.200934 46.839082 38.631775 46.419497 38.212191 
C 45.999912 37.792606 45.430753 37.556853 44.837371 37.556853 
C 44.243989 37.556853 43.67483 37.792606 43.255245 38.212191 
C 42.83566 38.631775 42.599907 39.200934 42.599907 39.794317 
C 42.599907 40.387699 42.83566 40.956858 43.255245 41.376443 
C 43.67483 41.796028 44.243989 42.031781 44.837371 42.031781 
z
" clip-path="url(#pdf8be52691)" style="stroke: #000000"/>
    <path d="M 74.715744 172.810964 
C 75.420959 172.810964 76.097384 172.530779 76.596046 172.032117 
C 77.094708 171.533456 77.374892 170.85703 77.374892 170.151816 
C 77.374892 169.446602 77.094708 168.770176 76.596046 168.271514 
C 76.097384 167.772852 75.420959 167.492668 74.715744 167.492668 
C 74.01053 167.492668 73.334105 167.772852 72.835443 168.271514 
C 72.336781 168.770176 72.056596 169.446602 72.056596 170.151816 
C 72.056596 170.85703 72.336781 171.533456 72.835443 172.032117 
C 73.334105 172.530779 74.01053 172.810964 74.715744 172.810964 
z
" clip-path="url(#pdf8be52691)" style="stroke: #000000"/>
    <path d="M 75.89064 158.562515 
C 75.89064 158.562515 75.89064 158.562515 75.89064 158.562515 
C 75.89064 158.562515 75.89064 158.562515 75.89064 158.562515 
C 75.89064 158.562515 75.89064 158.562515 75.89064 158.562515 
C 75.89064 158.562515 75.89064 158.562515 75.89064 158.562515 
C 75.89064 158.562515 75.89064 158.562515 75.89064 158.562515 
C 75.89064 158.562515 75.89064 158.562515 75.89064 158.562515 
C 75.89064 158.562515 75.89064 158.562515 75.89064 158.562515 
C 75.89064 158.562515 75.89064 158.562515 75.89064 158.562515 
z
" clip-path="url(#pdf8be52691)" style="stroke: #000000"/>
    <path d="M 70.531989 148.5073 
C 71.237423 148.5073 71.91406 148.227028 72.412877 147.72821 
C 72.911695 147.229393 73.191967 146.552756 73.191967 145.847321 
C 73.191967 145.141887 72.911695 144.46525 72.412877 143.966433 
C 71.91406 143.467615 71.237423 143.187343 70.531989 143.187343 
C 69.826554 143.187343 69.149917 143.467615 68.6511 143.966433 
C 68.152282 144.46525 67.87201 145.141887 67.87201 145.847321 
C 67.87201 146.552756 68.152282 147.229393 68.6511 147.72821 
C 69.149917 148.227028 69.826554 148.5073 70.531989 148.5073 
z
" clip-path="url(#pdf8be52691)" style="stroke: #000000"/>
    <path d="M 60.60597 138.337019 
C 61.311404 138.337019 61.988041 138.056747 62.486859 137.55793 
C 62.985676 137.059112 63.265948 136.382475 63.265948 135.677041 
C 63.265948 134.971606 62.985676 134.294969 62.486859 133.796152 
C 61.988041 133.297334 61.311404 133.017062 60.60597 133.017062 
C 59.900535 133.017062 59.223899 133.297334 58.725081 133.796152 
C 58.226264 134.294969 57.945991 134.971606 57.945991 135.677041 
C 57.945991 136.382475 58.226264 137.059112 58.725081 137.55793 
C 59.223899 138.056747 59.900535 138.337019 60.60597 138.337019 
z
" clip-path="url(#pdf8be52691)" style="stroke: #000000"/>
    <path d="M 62.924507 130.633713 
C 63.629942 130.633713 64.306579 130.35344 64.805396 129.854623 
C 65.304214 129.355805 65.584486 128.679169 65.584486 127.973734 
C 65.584486 127.268299 65.304214 126.591663 64.805396 126.092845 
C 64.306579 125.594028 63.629942 125.313755 62.924507 125.313755 
C 62.219073 125.313755 61.542436 125.594028 61.043618 126.092845 
C 60.544801 126.591663 60.264529 127.268299 60.264529 127.973734 
C 60.264529 128.679169 60.544801 129.355805 61.043618 129.854623 
C 61.542436 130.35344 62.219073 130.633713 62.924507 130.633713 
z
" clip-path="url(#pdf8be52691)" style="stroke: #000000"/>
    <path d="M 55.660049 117.069489 
C 56.019506 117.069489 56.364289 116.926675 56.618463 116.6725 
C 56.872638 116.418326 57.015452 116.073543 57.015452 115.714086 
C 57.015452 115.354629 56.872638 115.009846 56.618463 114.755671 
C 56.364289 114.501497 56.019506 114.358683 55.660049 114.358683 
C 55.300591 114.358683 54.955808 114.501497 54.701634 114.755671 
C 54.447459 115.009846 54.304646 115.354629 54.304646 115.714086 
C 54.304646 116.073543 54.447459 116.418326 54.701634 116.6725 
C 54.955808 116.926675 55.300591 117.069489 55.660049 117.069489 
z
" clip-path="url(#pdf8be52691)" style="stroke: #000000"/>
    <path d="M 52.081171 109.31649 
C 52.718603 109.31649 53.330014 109.063235 53.780746 108.612503 
C 54.231479 108.16177 54.484733 107.55036 54.484733 106.912928 
C 54.484733 106.275496 54.231479 105.664085 53.780746 105.213353 
C 53.330014 104.76262 52.718603 104.509366 52.081171 104.509366 
C 51.443739 104.509366 50.832329 104.76262 50.381596 105.213353 
C 49.930864 105.664085 49.677609 106.275496 49.677609 106.912928 
C 49.677609 107.55036 49.930864 108.16177 50.381596 108.612503 
C 50.832329 109.063235 51.443739 109.31649 52.081171 109.31649 
z
" clip-path="url(#pdf8be52691)" style="stroke: #000000"/>
    <path d="M 49.429479 102.256573 
C 50.062995 102.256573 50.67065 102.004875 51.118614 101.556911 
C 51.566578 101.108947 51.818277 100.501292 51.818277 99.867775 
C 51.818277 99.234259 51.566578 98.626604 51.118614 98.17864 
C 50.67065 97.730676 50.062995 97.478977 49.429479 97.478977 
C 48.795962 97.478977 48.188307 97.730676 47.740343 98.17864 
C 47.292379 98.626604 47.040681 99.234259 47.040681 99.867775 
C 47.040681 100.501292 47.292379 101.108947 47.740343 101.556911 
C 48.188307 102.004875 48.795962 102.256573 49.429479 102.256573 
z
" clip-path="url(#pdf8be52691)" style="stroke: #000000"/>
    <path d="M 47.98028 85.369673 
C 48.112882 85.369673 48.24007 85.316989 48.333833 85.223226 
C 48.427597 85.129463 48.48028 85.002274 48.48028 84.869673 
C 48.48028 84.737071 48.427597 84.609883 48.333833 84.516119 
C 48.24007 84.422356 48.112882 84.369673 47.98028 84.369673 
C 47.847678 84.369673 47.72049 84.422356 47.626727 84.516119 
C 47.532963 84.609883 47.48028 84.737071 47.48028 84.869673 
C 47.48028 85.002274 47.532963 85.129463 47.626727 85.223226 
C 47.72049 85.316989 47.847678 85.369673 47.98028 85.369673 
z
" clip-path="url(#pdf8be52691)" style="stroke: #000000"/>
    <path d="M 42.56556 73.439618 
C 42.56556 73.439618 42.56556 73.439618 42.56556 73.439618 
C 42.56556 73.439618 42.56556 73.439618 42.56556 73.439618 
C 42.56556 73.439618 42.56556 73.439618 42.56556 73.439618 
C 42.56556 73.439618 42.56556 73.439618 42.56556 73.439618 
C 42.56556 73.439618 42.56556 73.439618 42.56556 73.439618 
C 42.56556 73.439618 42.56556 73.439618 42.56556 73.439618 
C 42.56556 73.439618 42.56556 73.439618 42.56556 73.439618 
C 42.56556 73.439618 42.56556 73.439618 42.56556 73.439618 
z
" clip-path="url(#pdf8be52691)" style="stroke: #000000"/>
    <path d="M 41.004675 67.760665 
C 41.71011 67.760665 42.386746 67.480393 42.885564 66.981575 
C 43.384382 66.482757 43.664654 65.806121 43.664654 65.100686 
C 43.664654 64.395252 43.384382 63.718615 42.885564 63.219797 
C 42.386746 62.72098 41.71011 62.440708 41.004675 62.440708 
C 40.299241 62.440708 39.622604 62.72098 39.123786 63.219797 
C 38.624969 63.718615 38.344697 64.395252 38.344697 65.100686 
C 38.344697 65.806121 38.624969 66.482757 39.123786 66.981575 
C 39.622604 67.480393 40.299241 67.760665 41.004675 67.760665 
z
" clip-path="url(#pdf8be52691)" style="stroke: #000000"/>
    <path d="M 66.972563 170.859884 
C 67.677778 170.859884 68.354203 170.579699 68.852865 170.081037 
C 69.351527 169.582375 69.631711 168.90595 69.631711 168.200736 
C 69.631711 167.495521 69.351527 166.819096 68.852865 166.320434 
C 68.354203 165.821772 67.677778 165.541588 66.972563 165.541588 
C 66.267349 165.541588 65.590924 165.821772 65.092262 166.320434 
C 64.5936 166.819096 64.313415 167.495521 64.313415 168.200736 
C 64.313415 168.90595 64.5936 169.582375 65.092262 170.081037 
C 65.590924 170.579699 66.267349 170.859884 66.972563 170.859884 
z
" clip-path="url(#pdf8be52691)" style="stroke: #000000"/>
    <path d="M 60.194636 167.366956 
C 60.90007 167.366956 61.576707 167.086684 62.075525 166.587867 
C 62.574342 166.089049 62.854614 165.412412 62.854614 164.706978 
C 62.854614 164.001543 62.574342 163.324907 62.075525 162.826089 
C 61.576707 162.327271 60.90007 162.046999 60.194636 162.046999 
C 59.489201 162.046999 58.812565 162.327271 58.313747 162.826089 
C 57.814929 163.324907 57.534657 164.001543 57.534657 164.706978 
C 57.534657 165.412412 57.814929 166.089049 58.313747 166.587867 
C 58.812565 167.086684 59.489201 167.366956 60.194636 167.366956 
z
" clip-path="url(#pdf8be52691)" style="stroke: #000000"/>
    <path d="M 58.487872 152.389349 
C 59.193086 152.389349 59.869511 152.109164 60.368173 151.610502 
C 60.866835 151.11184 61.147019 150.435415 61.147019 149.730201 
C 61.147019 149.024986 60.866835 148.348561 60.368173 147.849899 
C 59.869511 147.351237 59.193086 147.071053 58.487872 147.071053 
C 57.782657 147.071053 57.106232 147.351237 56.60757 147.849899 
C 56.108908 148.348561 55.828724 149.024986 55.828724 149.730201 
C 55.828724 150.435415 56.108908 151.11184 56.60757 151.610502 
C 57.106232 152.109164 57.782657 152.389349 58.487872 152.389349 
z
" clip-path="url(#pdf8be52691)" style="stroke: #000000"/>
    <path d="M 52.61287 143.787592 
C 53.318304 143.787592 53.994941 143.507319 54.493759 143.008502 
C 54.992576 142.509684 55.272848 141.833048 55.272848 141.127613 
C 55.272848 140.422178 54.992576 139.745542 54.493759 139.246724 
C 53.994941 138.747907 53.318304 138.467634 52.61287 138.467634 
C 51.907435 138.467634 51.230799 138.747907 50.731981 139.246724 
C 50.233164 139.745542 49.952891 140.422178 49.952891 141.127613 
C 49.952891 141.833048 50.233164 142.509684 50.731981 143.008502 
C 51.230799 143.507319 51.907435 143.787592 52.61287 143.787592 
z
" clip-path="url(#pdf8be52691)" style="stroke: #000000"/>
    <path d="M 49.206024 134.900976 
C 49.911458 134.900976 50.588095 134.620704 51.086913 134.121886 
C 51.58573 133.623069 51.866002 132.946432 51.866002 132.240997 
C 51.866002 131.535563 51.58573 130.858926 51.086913 130.360108 
C 50.588095 129.861291 49.911458 129.581019 49.206024 129.581019 
C 48.500589 129.581019 47.823952 129.861291 47.325135 130.360108 
C 46.826317 130.858926 46.546045 131.535563 46.546045 132.240997 
C 46.546045 132.946432 46.826317 133.623069 47.325135 134.121886 
C 47.823952 134.620704 48.500589 134.900976 49.206024 134.900976 
z
" clip-path="url(#pdf8be52691)" style="stroke: #000000"/>
    <path d="M 47.304686 115.328781 
C 47.304686 115.328781 47.304686 115.328781 47.304686 115.328781 
C 47.304686 115.328781 47.304686 115.328781 47.304686 115.328781 
C 47.304686 115.328781 47.304686 115.328781 47.304686 115.328781 
C 47.304686 115.328781 47.304686 115.328781 47.304686 115.328781 
C 47.304686 115.328781 47.304686 115.328781 47.304686 115.328781 
C 47.304686 115.328781 47.304686 115.328781 47.304686 115.328781 
C 47.304686 115.328781 47.304686 115.328781 47.304686 115.328781 
C 47.304686 115.328781 47.304686 115.328781 47.304686 115.328781 
z
" clip-path="url(#pdf8be52691)" style="stroke: #000000"/>
    <path d="M 40.291359 110.676794 
C 40.852633 110.676794 41.390994 110.453798 41.787874 110.056917 
C 42.184755 109.660036 42.407752 109.121675 42.407752 108.560401 
C 42.407752 107.999127 42.184755 107.460766 41.787874 107.063886 
C 41.390994 106.667005 40.852633 106.444009 40.291359 106.444009 
C 39.730085 106.444009 39.191724 106.667005 38.794843 107.063886 
C 38.397963 107.460766 38.174966 107.999127 38.174966 108.560401 
C 38.174966 109.121675 38.397963 109.660036 38.794843 110.056917 
C 39.191724 110.453798 39.730085 110.676794 40.291359 110.676794 
z
" clip-path="url(#pdf8be52691)" style="stroke: #000000"/>
    <path d="M 39.356505 105.264977 
C 40.061939 105.264977 40.738576 104.984705 41.237394 104.485887 
C 41.736211 103.98707 42.016483 103.310433 42.016483 102.604999 
C 42.016483 101.899564 41.736211 101.222927 41.237394 100.72411 
C 40.738576 100.225292 40.061939 99.94502 39.356505 99.94502 
C 38.65107 99.94502 37.974434 100.225292 37.475616 100.72411 
C 36.976798 101.222927 36.696526 101.899564 36.696526 102.604999 
C 36.696526 103.310433 36.976798 103.98707 37.475616 104.485887 
C 37.974434 104.984705 38.65107 105.264977 39.356505 105.264977 
z
" clip-path="url(#pdf8be52691)" style="stroke: #000000"/>
    <path d="M 33.353701 91.954284 
C 34.058915 91.954284 34.73534 91.674099 35.234002 91.175437 
C 35.732664 90.676775 36.012849 90.00035 36.012849 89.295136 
C 36.012849 88.589921 35.732664 87.913496 35.234002 87.414834 
C 34.73534 86.916172 34.058915 86.635988 33.353701 86.635988 
C 32.648486 86.635988 31.972061 86.916172 31.473399 87.414834 
C 30.974737 87.913496 30.694553 88.589921 30.694553 89.295136 
C 30.694553 90.00035 30.974737 90.676775 31.473399 91.175437 
C 31.972061 91.674099 32.648486 91.954284 33.353701 91.954284 
z
" clip-path="url(#pdf8be52691)" style="stroke: #000000"/>
    <path d="M 35.445345 85.248301 
C 36.150779 85.248301 36.827416 84.968029 37.326234 84.469211 
C 37.825051 83.970394 38.105323 83.293757 38.105323 82.588322 
C 38.105323 81.882888 37.825051 81.206251 37.326234 80.707434 
C 36.827416 80.208616 36.150779 79.928344 35.445345 79.928344 
C 34.73991 79.928344 34.063273 80.208616 33.564456 80.707434 
C 33.065638 81.206251 32.785366 81.882888 32.785366 82.588322 
C 32.785366 83.293757 33.065638 83.970394 33.564456 84.469211 
C 34.063273 84.968029 34.73991 85.248301 35.445345 85.248301 
z
" clip-path="url(#pdf8be52691)" style="stroke: #000000"/>
    <path d="M 47.943633 164.078462 
C 47.943633 164.078462 47.943633 164.078462 47.943633 164.078462 
C 47.943633 164.078462 47.943633 164.078462 47.943633 164.078462 
C 47.943633 164.078462 47.943633 164.078462 47.943633 164.078462 
C 47.943633 164.078462 47.943633 164.078462 47.943633 164.078462 
C 47.943633 164.078462 47.943633 164.078462 47.943633 164.078462 
C 47.943633 164.078462 47.943633 164.078462 47.943633 164.078462 
C 47.943633 164.078462 47.943633 164.078462 47.943633 164.078462 
C 47.943633 164.078462 47.943633 164.078462 47.943633 164.078462 
z
" clip-path="url(#pdf8be52691)" style="stroke: #000000"/>
    <path d="M 46.670321 159.924198 
C 47.375535 159.924198 48.05196 159.644013 48.550622 159.145352 
C 49.049284 158.64669 49.329469 157.970264 49.329469 157.26505 
C 49.329469 156.559836 49.049284 155.88341 48.550622 155.384749 
C 48.05196 154.886087 47.375535 154.605902 46.670321 154.605902 
C 45.965106 154.605902 45.288681 154.886087 44.790019 155.384749 
C 44.291357 155.88341 44.011173 156.559836 44.011173 157.26505 
C 44.011173 157.970264 44.291357 158.64669 44.790019 159.145352 
C 45.288681 159.644013 45.965106 159.924198 46.670321 159.924198 
z
" clip-path="url(#pdf8be52691)" style="stroke: #000000"/>
    <path d="M 42.738166 142.546607 
C 42.738166 142.546607 42.738166 142.546607 42.738166 142.546607 
C 42.738166 142.546607 42.738166 142.546607 42.738166 142.546607 
C 42.738166 142.546607 42.738166 142.546607 42.738166 142.546607 
C 42.738166 142.546607 42.738166 142.546607 42.738166 142.546607 
C 42.738166 142.546607 42.738166 142.546607 42.738166 142.546607 
C 42.738166 142.546607 42.738166 142.546607 42.738166 142.546607 
C 42.738166 142.546607 42.738166 142.546607 42.738166 142.546607 
C 42.738166 142.546607 42.738166 142.546607 42.738166 142.546607 
z
" clip-path="url(#pdf8be52691)" style="stroke: #000000"/>
    <path d="M 38.175964 133.964583 
C 38.735922 133.964583 39.273021 133.742109 39.668971 133.346159 
C 40.064921 132.950209 40.287395 132.413111 40.287395 131.853153 
C 40.287395 131.293195 40.064921 130.756096 39.668971 130.360146 
C 39.273021 129.964196 38.735922 129.741722 38.175964 129.741722 
C 37.616007 129.741722 37.078908 129.964196 36.682958 130.360146 
C 36.287008 130.756096 36.064534 131.293195 36.064534 131.853153 
C 36.064534 132.413111 36.287008 132.950209 36.682958 133.346159 
C 37.078908 133.742109 37.616007 133.964583 38.175964 133.964583 
z
" clip-path="url(#pdf8be52691)" style="stroke: #000000"/>
    <path d="M 34.944921 127.032876 
C 35.650356 127.032876 36.326992 126.752604 36.82581 126.253786 
C 37.324628 125.754969 37.6049 125.078332 37.6049 124.372898 
C 37.6049 123.667463 37.324628 122.990826 36.82581 122.492009 
C 36.326992 121.993191 35.650356 121.712919 34.944921 121.712919 
C 34.239487 121.712919 33.56285 121.993191 33.064032 122.492009 
C 32.565215 122.990826 32.284943 123.667463 32.284943 124.372898 
C 32.284943 125.078332 32.565215 125.754969 33.064032 126.253786 
C 33.56285 126.752604 34.239487 127.032876 34.944921 127.032876 
z
" clip-path="url(#pdf8be52691)" style="stroke: #000000"/>
    <path d="M 34.359351 111.562717 
C 34.359351 111.562717 34.359351 111.562717 34.359351 111.562717 
C 34.359351 111.562717 34.359351 111.562717 34.359351 111.562717 
C 34.359351 111.562717 34.359351 111.562717 34.359351 111.562717 
C 34.359351 111.562717 34.359351 111.562717 34.359351 111.562717 
C 34.359351 111.562717 34.359351 111.562717 34.359351 111.562717 
C 34.359351 111.562717 34.359351 111.562717 34.359351 111.562717 
C 34.359351 111.562717 34.359351 111.562717 34.359351 111.562717 
C 34.359351 111.562717 34.359351 111.562717 34.359351 111.562717 
z
" clip-path="url(#pdf8be52691)" style="stroke: #000000"/>
    <path d="M 44.359923 176.735074 
C 44.897437 176.735074 45.413008 176.521518 45.793087 176.141438 
C 46.173167 175.761359 46.386723 175.245788 46.386723 174.708274 
C 46.386723 174.170761 46.173167 173.65519 45.793087 173.27511 
C 45.413008 172.89503 44.897437 172.681474 44.359923 172.681474 
C 43.82241 172.681474 43.306839 172.89503 42.926759 173.27511 
C 42.546679 173.65519 42.333123 174.170761 42.333123 174.708274 
C 42.333123 175.245788 42.546679 175.761359 42.926759 176.141438 
C 43.306839 176.521518 43.82241 176.735074 44.359923 176.735074 
z
" clip-path="url(#pdf8be52691)" style="stroke: #000000"/>
    <path d="M 41.646471 168.985049 
C 41.646471 168.985049 41.646471 168.985049 41.646471 168.985049 
C 41.646471 168.985049 41.646471 168.985049 41.646471 168.985049 
C 41.646471 168.985049 41.646471 168.985049 41.646471 168.985049 
C 41.646471 168.985049 41.646471 168.985049 41.646471 168.985049 
C 41.646471 168.985049 41.646471 168.985049 41.646471 168.985049 
C 41.646471 168.985049 41.646471 168.985049 41.646471 168.985049 
C 41.646471 168.985049 41.646471 168.985049 41.646471 168.985049 
C 41.646471 168.985049 41.646471 168.985049 41.646471 168.985049 
z
" clip-path="url(#pdf8be52691)" style="stroke: #000000"/>
    <path d="M 34.534 156.55206 
C 34.534 156.55206 34.534 156.55206 34.534 156.55206 
C 34.534 156.55206 34.534 156.55206 34.534 156.55206 
C 34.534 156.55206 34.534 156.55206 34.534 156.55206 
C 34.534 156.55206 34.534 156.55206 34.534 156.55206 
C 34.534 156.55206 34.534 156.55206 34.534 156.55206 
C 34.534 156.55206 34.534 156.55206 34.534 156.55206 
C 34.534 156.55206 34.534 156.55206 34.534 156.55206 
C 34.534 156.55206 34.534 156.55206 34.534 156.55206 
z
" clip-path="url(#pdf8be52691)" style="stroke: #000000"/>
    <path d="M 33.380609 149.823985 
C 34.085823 149.823985 34.762248 149.5438 35.26091 149.045138 
C 35.759572 148.546477 36.039757 147.870051 36.039757 147.164837 
C 36.039757 146.459622 35.759572 145.783197 35.26091 145.284535 
C 34.762248 144.785873 34.085823 144.505689 33.380609 144.505689 
C 32.675394 144.505689 31.998969 144.785873 31.500307 145.284535 
C 31.001645 145.783197 30.721461 146.459622 30.721461 147.164837 
C 30.721461 147.870051 31.001645 148.546477 31.500307 149.045138 
C 31.998969 149.5438 32.675394 149.823985 33.380609 149.823985 
z
" clip-path="url(#pdf8be52691)" style="stroke: #000000"/>
    <path d="M 28.697044 138.578581 
C 29.402479 138.578581 30.079116 138.298309 30.577933 137.799492 
C 31.076751 137.300674 31.357023 136.624037 31.357023 135.918603 
C 31.357023 135.213168 31.076751 134.536531 30.577933 134.037714 
C 30.079116 133.538896 29.402479 133.258624 28.697044 133.258624 
C 27.99161 133.258624 27.314973 133.538896 26.816155 134.037714 
C 26.317338 134.536531 26.037066 135.213168 26.037066 135.918603 
C 26.037066 136.624037 26.317338 137.300674 26.816155 137.799492 
C 27.314973 138.298309 27.99161 138.578581 28.697044 138.578581 
z
" clip-path="url(#pdf8be52691)" style="stroke: #000000"/>
   </g>
   <g id="matplotlib.axis_1">
    <g id="xtick_1">
     <g id="line2d_1">
      <defs>
       <path id="m11bb26f917" d="M 0 0 
L 0 3.5 
" style="stroke: #000000; stroke-width: 0.8"/>
      </defs>
      <g>
       <use xlink:href="#m11bb26f917" x="18" y="189" style="stroke: #000000; stroke-width: 0.8"/>
      </g>
     </g>
     <g id="text_1">
      <!-- 10 -->
      <g transform="translate(7.447656 203.598437)scale(0.1 -0.1)">
       <defs>
        <path id="DejaVuSans-2212" d="M 678 2272 
L 4684 2272 
L 4684 1741 
L 678 1741 
L 678 2272 
z
" transform="scale(0.015625)"/>
        <path id="DejaVuSans-31" d="M 794 531 
L 1825 531 
L 1825 4091 
L 703 3866 
L 703 4441 
L 1819 4666 
L 2450 4666 
L 2450 531 
L 3481 531 
L 3481 0 
L 794 0 
L 794 531 
z
" transform="scale(0.015625)"/>
        <path id="DejaVuSans-30" d="M 2034 4250 
Q 1547 4250 1301 3770 
Q 1056 3291 1056 2328 
Q 1056 1369 1301 889 
Q 1547 409 2034 409 
Q 2525 409 2770 889 
Q 3016 1369 3016 2328 
Q 3016 3291 2770 3770 
Q 2525 4250 2034 4250 
z
M 2034 4750 
Q 2819 4750 3233 4129 
Q 3647 3509 3647 2328 
Q 3647 1150 3233 529 
Q 2819 -91 2034 -91 
Q 1250 -91 836 529 
Q 422 1150 422 2328 
Q 422 3509 836 4129 
Q 1250 4750 2034 4750 
z
" transform="scale(0.015625)"/>
       </defs>
       <use xlink:href="#DejaVuSans-2212"/>
       <use xlink:href="#DejaVuSans-31" x="83.789062"/>
       <use xlink:href="#DejaVuSans-30" x="147.412109"/>
      </g>
     </g>
    </g>
    <g id="xtick_2">
     <g id="line2d_2">
      <g>
       <use xlink:href="#m11bb26f917" x="73.8" y="189" style="stroke: #000000; stroke-width: 0.8"/>
      </g>
     </g>
     <g id="text_2">
      <!-- 0 -->
      <g transform="translate(70.61875 203.598437)scale(0.1 -0.1)">
       <use xlink:href="#DejaVuSans-30"/>
      </g>
     </g>
    </g>
    <g id="xtick_3">
     <g id="line2d_3">
      <g>
       <use xlink:href="#m11bb26f917" x="129.6" y="189" style="stroke: #000000; stroke-width: 0.8"/>
      </g>
     </g>
     <g id="text_3">
      <!-- 10 -->
      <g transform="translate(123.2375 203.598437)scale(0.1 -0.1)">
       <use xlink:href="#DejaVuSans-31"/>
       <use xlink:href="#DejaVuSans-30" x="63.623047"/>
      </g>
     </g>
    </g>
   </g>
   <g id="matplotlib.axis_2">
    <g id="ytick_1">
     <g id="line2d_4">
      <defs>
       <path id="m261a6f5bd2" d="M 0 0 
L -3.5 0 
" style="stroke: #000000; stroke-width: 0.8"/>
      </defs>
      <g>
       <use xlink:href="#m261a6f5bd2" x="18" y="189" style="stroke: #000000; stroke-width: 0.8"/>
      </g>
     </g>
     <g id="text_4">
      <!-- 15 -->
      <g transform="translate(-10.104688 192.799219)scale(0.1 -0.1)">
       <defs>
        <path id="DejaVuSans-35" d="M 691 4666 
L 3169 4666 
L 3169 4134 
L 1269 4134 
L 1269 2991 
Q 1406 3038 1543 3061 
Q 1681 3084 1819 3084 
Q 2600 3084 3056 2656 
Q 3513 2228 3513 1497 
Q 3513 744 3044 326 
Q 2575 -91 1722 -91 
Q 1428 -91 1123 -41 
Q 819 9 494 109 
L 494 744 
Q 775 591 1075 516 
Q 1375 441 1709 441 
Q 2250 441 2565 725 
Q 2881 1009 2881 1497 
Q 2881 1984 2565 2268 
Q 2250 2553 1709 2553 
Q 1456 2553 1204 2497 
Q 953 2441 691 2322 
L 691 4666 
z
" transform="scale(0.015625)"/>
       </defs>
       <use xlink:href="#DejaVuSans-2212"/>
       <use xlink:href="#DejaVuSans-31" x="83.789062"/>
       <use xlink:href="#DejaVuSans-35" x="147.412109"/>
      </g>
     </g>
    </g>
    <g id="ytick_2">
     <g id="line2d_5">
      <g>
       <use xlink:href="#m261a6f5bd2" x="18" y="161.82" style="stroke: #000000; stroke-width: 0.8"/>
      </g>
     </g>
     <g id="text_5">
      <!-- 10 -->
      <g transform="translate(-10.104688 165.619219)scale(0.1 -0.1)">
       <use xlink:href="#DejaVuSans-2212"/>
       <use xlink:href="#DejaVuSans-31" x="83.789062"/>
       <use xlink:href="#DejaVuSans-30" x="147.412109"/>
      </g>
     </g>
    </g>
    <g id="ytick_3">
     <g id="line2d_6">
      <g>
       <use xlink:href="#m261a6f5bd2" x="18" y="134.64" style="stroke: #000000; stroke-width: 0.8"/>
      </g>
     </g>
     <g id="text_6">
      <!-- 5 -->
      <g transform="translate(-3.742188 138.439219)scale(0.1 -0.1)">
       <use xlink:href="#DejaVuSans-2212"/>
       <use xlink:href="#DejaVuSans-35" x="83.789062"/>
      </g>
     </g>
    </g>
    <g id="ytick_4">
     <g id="line2d_7">
      <g>
       <use xlink:href="#m261a6f5bd2" x="18" y="107.46" style="stroke: #000000; stroke-width: 0.8"/>
      </g>
     </g>
     <g id="text_7">
      <!-- 0 -->
      <g transform="translate(4.6375 111.259219)scale(0.1 -0.1)">
       <use xlink:href="#DejaVuSans-30"/>
      </g>
     </g>
    </g>
    <g id="ytick_5">
     <g id="line2d_8">
      <g>
       <use xlink:href="#m261a6f5bd2" x="18" y="80.28" style="stroke: #000000; stroke-width: 0.8"/>
      </g>
     </g>
     <g id="text_8">
      <!-- 5 -->
      <g transform="translate(4.6375 84.079219)scale(0.1 -0.1)">
       <use xlink:href="#DejaVuSans-35"/>
      </g>
     </g>
    </g>
    <g id="ytick_6">
     <g id="line2d_9">
      <g>
       <use xlink:href="#m261a6f5bd2" x="18" y="53.1" style="stroke: #000000; stroke-width: 0.8"/>
      </g>
     </g>
     <g id="text_9">
      <!-- 10 -->
      <g transform="translate(-1.725 56.899219)scale(0.1 -0.1)">
       <use xlink:href="#DejaVuSans-31"/>
       <use xlink:href="#DejaVuSans-30" x="63.623047"/>
      </g>
     </g>
    </g>
    <g id="ytick_7">
     <g id="line2d_10">
      <g>
       <use xlink:href="#m261a6f5bd2" x="18" y="25.92" style="stroke: #000000; stroke-width: 0.8"/>
      </g>
     </g>
     <g id="text_10">
      <!-- 15 -->
      <g transform="translate(-1.725 29.719219)scale(0.1 -0.1)">
       <use xlink:href="#DejaVuSans-31"/>
       <use xlink:href="#DejaVuSans-35" x="63.623047"/>
      </g>
     </g>
    </g>
   </g>
   <g id="patch_3">
    <path d="M 18 189 
L 18 25.92 
" style="fill: none; stroke: #000000; stroke-width: 0.8; stroke-linejoin: miter; stroke-linecap: square"/>
   </g>
   <g id="patch_4">
    <path d="M 129.6 189 
L 129.6 25.92 
" style="fill: none; stroke: #000000; stroke-width: 0.8; stroke-linejoin: miter; stroke-linecap: square"/>
   </g>
   <g id="patch_5">
    <path d="M 18 189 
L 129.6 189 
" style="fill: none; stroke: #000000; stroke-width: 0.8; stroke-linejoin: miter; stroke-linecap: square"/>
   </g>
   <g id="patch_6">
    <path d="M 18 25.92 
L 129.6 25.92 
" style="fill: none; stroke: #000000; stroke-width: 0.8; stroke-linejoin: miter; stroke-linecap: square"/>
   </g>
  </g>
 </g>
 <defs>
  <clipPath id="pdf8be52691">
   <rect x="18" y="25.92" width="111.6" height="163.08"/>
  </clipPath>
 </defs>
</svg>
