<?xml version="1.0" encoding="utf-8" standalone="no"?>
<!DOCTYPE svg PUBLIC "-//W3C//DTD SVG 1.1//EN"
  "http://www.w3.org/Graphics/SVG/1.1/DTD/svg11.dtd">
<svg xmlns:xlink="http://www.w3.org/1999/xlink" width="144pt" height="216pt" viewBox="0 0 144 216" xmlns="http://www.w3.org/2000/svg" version="1.1">
 <metadata>
  <rdf:RDF xmlns:dc="http://purl.org/dc/elements/1.1/" xmlns:cc="http://creativecommons.org/ns#" xmlns:rdf="http://www.w3.org/1999/02/22-rdf-syntax-ns#">
   <cc:Work>
    <dc:type rdf:resource="http://purl.org/dc/dcmitype/StillImage"/>
    <dc:date>2022-06-23T12:06:36.243166</dc:date>
    <dc:format>image/svg+xml</dc:format>
    <dc:creator>
     <cc:Agent>
      <dc:title>Matplotlib v3.5.1, https://matplotlib.org/</dc:title>
     </cc:Agent>
    </dc:creator>
   </cc:Work>
  </rdf:RDF>
 </metadata>
 <defs>
  <style type="text/css">*{stroke-linejoin: round; stroke-linecap: butt}</style>
 </defs>
 <g id="figure_1">
  <g id="patch_1">
   <path d="M 0 216 
L 144 216 
L 144 0 
L 0 0 
L 0 216 
z
" style="fill: none"/>
  </g>
  <g id="axes_1">
   <g id="patch_2">
    <path d="M 18 189 
L 129.6 189 
L 129.6 25.92 
L 18 25.92 
z
" style="fill: #ffffff"/>
   </g>
   <g id="PathCollection_1">
    <defs>
     <path id="mfbd8a068a3" d="M 0 2.738613 
C 0.726289 2.738613 1.422928 2.450055 1.936492 1.936492 
C 2.450055 1.422928 2.738613 0.726289 2.738613 0 
C 2.738613 -0.726289 2.450055 -1.422928 1.936492 -1.936492 
C 1.422928 -2.450055 0.726289 -2.738613 0 -2.738613 
C -0.726289 -2.738613 -1.422928 -2.450055 -1.936492 -1.936492 
C -2.450055 -1.422928 -2.738613 -0.726289 -2.738613 0 
C -2.738613 0.726289 -2.450055 1.422928 -1.936492 1.936492 
C -1.422928 2.450055 -0.726289 2.738613 0 2.738613 
z
" style="stroke: #ff0000; stroke-width: 1.75"/>
    </defs>
    <g clip-path="url(#p09b261ce7b)">
     <use xlink:href="#mfbd8a068a3" x="80.775" y="107.46" style="fill: #ff0000; stroke: #ff0000; stroke-width: 1.75"/>
     <use xlink:href="#mfbd8a068a3" x="94.725" y="107.46" style="fill: #ff0000; stroke: #ff0000; stroke-width: 1.75"/>
     <use xlink:href="#mfbd8a068a3" x="59.85" y="119.229285" style="fill: #ff0000; stroke: #ff0000; stroke-width: 1.75"/>
     <use xlink:href="#mfbd8a068a3" x="73.8" y="119.229285" style="fill: #ff0000; stroke: #ff0000; stroke-width: 1.75"/>
     <use xlink:href="#mfbd8a068a3" x="87.75" y="119.229285" style="fill: #ff0000; stroke: #ff0000; stroke-width: 1.75"/>
     <use xlink:href="#mfbd8a068a3" x="66.825" y="130.99857" style="fill: #ff0000; stroke: #ff0000; stroke-width: 1.75"/>
     <use xlink:href="#mfbd8a068a3" x="80.775" y="130.99857" style="fill: #ff0000; stroke: #ff0000; stroke-width: 1.75"/>
    </g>
   </g>
   <g id="PathCollection_2">
    <defs>
     <path id="C0_0_81f6a579b3" d="M 0 2.738613 
C 0.726289 2.738613 1.422928 2.450055 1.936492 1.936492 
C 2.450055 1.422928 2.738613 0.726289 2.738613 -0 
C 2.738613 -0.726289 2.450055 -1.422928 1.936492 -1.936492 
C 1.422928 -2.450055 0.726289 -2.738613 0 -2.738613 
C -0.726289 -2.738613 -1.422928 -2.450055 -1.936492 -1.936492 
C -2.450055 -1.422928 -2.738613 -0.726289 -2.738613 0 
C -2.738613 0.726289 -2.450055 1.422928 -1.936492 1.936492 
C -1.422928 2.450055 -0.726289 2.738613 0 2.738613 
z
"/>
    </defs>
    <g clip-path="url(#p09b261ce7b)">
     <use xlink:href="#C0_0_81f6a579b3" x="66.825" y="83.92143" style="fill: none; stroke: #ff0000; stroke-width: 1.75"/>
    </g>
    <g clip-path="url(#p09b261ce7b)">
     <use xlink:href="#C0_0_81f6a579b3" x="80.775" y="83.92143" style="fill: none; stroke: #ff0000; stroke-width: 1.75"/>
    </g>
    <g clip-path="url(#p09b261ce7b)">
     <use xlink:href="#C0_0_81f6a579b3" x="59.85" y="95.690715" style="fill: none; stroke: #ff0000; stroke-width: 1.75"/>
    </g>
    <g clip-path="url(#p09b261ce7b)">
     <use xlink:href="#C0_0_81f6a579b3" x="73.8" y="95.690715" style="fill: none; stroke: #ff0000; stroke-width: 1.75"/>
    </g>
    <g clip-path="url(#p09b261ce7b)">
     <use xlink:href="#C0_0_81f6a579b3" x="87.75" y="95.690715" style="fill: none; stroke: #ff0000; stroke-width: 1.75"/>
    </g>
    <g clip-path="url(#p09b261ce7b)">
     <use xlink:href="#C0_0_81f6a579b3" x="52.875" y="107.46" style="fill: none; stroke: #ff0000; stroke-width: 1.75"/>
    </g>
    <g clip-path="url(#p09b261ce7b)">
     <use xlink:href="#C0_0_81f6a579b3" x="66.825" y="107.46" style="fill: none; stroke: #ff0000; stroke-width: 1.75"/>
    </g>
   </g>
   <g id="PathCollection_3">
    <path d="M 107.192706 56.610734 
C 107.192706 56.610734 107.192706 56.610734 107.192706 56.610734 
C 107.192706 56.610734 107.192706 56.610734 107.192706 56.610734 
C 107.192706 56.610734 107.192706 56.610734 107.192706 56.610734 
C 107.192706 56.610734 107.192706 56.610734 107.192706 56.610734 
C 107.192706 56.610734 107.192706 56.610734 107.192706 56.610734 
C 107.192706 56.610734 107.192706 56.610734 107.192706 56.610734 
C 107.192706 56.610734 107.192706 56.610734 107.192706 56.610734 
C 107.192706 56.610734 107.192706 56.610734 107.192706 56.610734 
z
" clip-path="url(#p09b261ce7b)" style="stroke: #000000"/>
    <path d="M 97.371398 48.588819 
C 98.076833 48.588819 98.753469 48.308547 99.252287 47.809729 
C 99.751104 47.310911 100.031377 46.634275 100.031377 45.92884 
C 100.031377 45.223406 99.751104 44.546769 99.252287 44.047951 
C 98.753469 43.549134 98.076833 43.268862 97.371398 43.268862 
C 96.665963 43.268862 95.989327 43.549134 95.490509 44.047951 
C 94.991692 44.546769 94.711419 45.223406 94.711419 45.92884 
C 94.711419 46.634275 94.991692 47.310911 95.490509 47.809729 
C 95.989327 48.308547 96.665963 48.588819 97.371398 48.588819 
z
" clip-path="url(#p09b261ce7b)" style="stroke: #000000"/>
    <path d="M 95.59317 40.947122 
C 96.298604 40.947122 96.975241 40.66685 97.474059 40.168033 
C 97.972876 39.669215 98.253148 38.992578 98.253148 38.287144 
C 98.253148 37.581709 97.972876 36.905072 97.474059 36.406255 
C 96.975241 35.907437 96.298604 35.627165 95.59317 35.627165 
C 94.887735 35.627165 94.211098 35.907437 93.712281 36.406255 
C 93.213463 36.905072 92.933191 37.581709 92.933191 38.287144 
C 92.933191 38.992578 93.213463 39.669215 93.712281 40.168033 
C 94.211098 40.66685 94.887735 40.947122 95.59317 40.947122 
z
" clip-path="url(#p09b261ce7b)" style="stroke: #000000"/>
    <path d="M 119.148436 128.724768 
C 119.85387 128.724768 120.530507 128.444496 121.029325 127.945679 
C 121.528142 127.446861 121.808414 126.770224 121.808414 126.06479 
C 121.808414 125.359355 121.528142 124.682718 121.029325 124.183901 
C 120.530507 123.685083 119.85387 123.404811 119.148436 123.404811 
C 118.443001 123.404811 117.766365 123.685083 117.267547 124.183901 
C 116.768729 124.682718 116.488457 125.359355 116.488457 126.06479 
C 116.488457 126.770224 116.768729 127.446861 117.267547 127.945679 
C 117.766365 128.444496 118.443001 128.724768 119.148436 128.724768 
z
" clip-path="url(#p09b261ce7b)" style="stroke: #000000"/>
    <path d="M 112.776699 121.002033 
C 113.482134 121.002033 114.158771 120.721761 114.657588 120.222943 
C 115.156406 119.724126 115.436678 119.047489 115.436678 118.342055 
C 115.436678 117.63662 115.156406 116.959983 114.657588 116.461166 
C 114.158771 115.962348 113.482134 115.682076 112.776699 115.682076 
C 112.071265 115.682076 111.394628 115.962348 110.89581 116.461166 
C 110.396993 116.959983 110.116721 117.63662 110.116721 118.342055 
C 110.116721 119.047489 110.396993 119.724126 110.89581 120.222943 
C 111.394628 120.721761 112.071265 121.002033 112.776699 121.002033 
z
" clip-path="url(#p09b261ce7b)" style="stroke: #000000"/>
    <path d="M 113.400707 114.710248 
C 114.105922 114.710248 114.782347 114.430063 115.281009 113.931401 
C 115.779671 113.43274 116.059855 112.756314 116.059855 112.0511 
C 116.059855 111.345886 115.779671 110.66946 115.281009 110.170798 
C 114.782347 109.672137 114.105922 109.391952 113.400707 109.391952 
C 112.695493 109.391952 112.019068 109.672137 111.520406 110.170798 
C 111.021744 110.66946 110.741559 111.345886 110.741559 112.0511 
C 110.741559 112.756314 111.021744 113.43274 111.520406 113.931401 
C 112.019068 114.430063 112.695493 114.710248 113.400707 114.710248 
z
" clip-path="url(#p09b261ce7b)" style="stroke: #000000"/>
    <path d="M 112.277086 98.735622 
C 112.277086 98.735622 112.277086 98.735622 112.277086 98.735622 
C 112.277086 98.735622 112.277086 98.735622 112.277086 98.735622 
C 112.277086 98.735622 112.277086 98.735622 112.277086 98.735622 
C 112.277086 98.735622 112.277086 98.735622 112.277086 98.735622 
C 112.277086 98.735622 112.277086 98.735622 112.277086 98.735622 
C 112.277086 98.735622 112.277086 98.735622 112.277086 98.735622 
C 112.277086 98.735622 112.277086 98.735622 112.277086 98.735622 
C 112.277086 98.735622 112.277086 98.735622 112.277086 98.735622 
z
" clip-path="url(#p09b261ce7b)" style="stroke: #000000"/>
    <path d="M 108.816641 89.627623 
C 109.522075 89.627623 110.198712 89.347351 110.69753 88.848534 
C 111.196347 88.349716 111.476619 87.673079 111.476619 86.967645 
C 111.476619 86.26221 111.196347 85.585573 110.69753 85.086756 
C 110.198712 84.587938 109.522075 84.307666 108.816641 84.307666 
C 108.111206 84.307666 107.434569 84.587938 106.935752 85.086756 
C 106.436934 85.585573 106.156662 86.26221 106.156662 86.967645 
C 106.156662 87.673079 106.436934 88.349716 106.935752 88.848534 
C 107.434569 89.347351 108.111206 89.627623 108.816641 89.627623 
z
" clip-path="url(#p09b261ce7b)" style="stroke: #000000"/>
    <path d="M 98.515176 78.932495 
C 99.220391 78.932495 99.896816 78.65231 100.395478 78.153648 
C 100.89414 77.654986 101.174324 76.978561 101.174324 76.273347 
C 101.174324 75.568132 100.89414 74.891707 100.395478 74.393045 
C 99.896816 73.894383 99.220391 73.614199 98.515176 73.614199 
C 97.809962 73.614199 97.133537 73.894383 96.634875 74.393045 
C 96.136213 74.891707 95.856028 75.568132 95.856028 76.273347 
C 95.856028 76.978561 96.136213 77.654986 96.634875 78.153648 
C 97.133537 78.65231 97.809962 78.932495 98.515176 78.932495 
z
" clip-path="url(#p09b261ce7b)" style="stroke: #000000"/>
    <path d="M 100.179513 68.955687 
C 100.884947 68.955687 101.561584 68.675414 102.060402 68.176597 
C 102.559219 67.677779 102.839491 67.001143 102.839491 66.295708 
C 102.839491 65.590273 102.559219 64.913637 102.060402 64.414819 
C 101.561584 63.916002 100.884947 63.635729 100.179513 63.635729 
C 99.474078 63.635729 98.797441 63.916002 98.298624 64.414819 
C 97.799806 64.913637 97.519534 65.590273 97.519534 66.295708 
C 97.519534 67.001143 97.799806 67.677779 98.298624 68.176597 
C 98.797441 68.675414 99.474078 68.955687 100.179513 68.955687 
z
" clip-path="url(#p09b261ce7b)" style="stroke: #000000"/>
    <path d="M 100.097858 61.122672 
C 100.803073 61.122672 101.479498 60.842488 101.97816 60.343826 
C 102.476822 59.845164 102.757006 59.168739 102.757006 58.463524 
C 102.757006 57.75831 102.476822 57.081885 101.97816 56.583223 
C 101.479498 56.084561 100.803073 55.804376 100.097858 55.804376 
C 99.392644 55.804376 98.716219 56.084561 98.217557 56.583223 
C 97.718895 57.081885 97.43871 57.75831 97.43871 58.463524 
C 97.43871 59.168739 97.718895 59.845164 98.217557 60.343826 
C 98.716219 60.842488 99.392644 61.122672 100.097858 61.122672 
z
" clip-path="url(#p09b261ce7b)" style="stroke: #000000"/>
    <path d="M 90.02367 51.456479 
C 90.5704 51.456479 91.094811 51.239261 91.481408 50.852665 
C 91.868005 50.466068 92.085223 49.941657 92.085223 49.394927 
C 92.085223 48.848196 91.868005 48.323785 91.481408 47.937189 
C 91.094811 47.550592 90.5704 47.333374 90.02367 47.333374 
C 89.47694 47.333374 88.952529 47.550592 88.565932 47.937189 
C 88.179335 48.323785 87.962117 48.848196 87.962117 49.394927 
C 87.962117 49.941657 88.179335 50.466068 88.565932 50.852665 
C 88.952529 51.239261 89.47694 51.456479 90.02367 51.456479 
z
" clip-path="url(#p09b261ce7b)" style="stroke: #000000"/>
    <path d="M 89.496245 39.126179 
C 90.201679 39.126179 90.878316 38.845907 91.377133 38.347089 
C 91.875951 37.848271 92.156223 37.171635 92.156223 36.4662 
C 92.156223 35.760766 91.875951 35.084129 91.377133 34.585311 
C 90.878316 34.086494 90.201679 33.806222 89.496245 33.806222 
C 88.79081 33.806222 88.114173 34.086494 87.615356 34.585311 
C 87.116538 35.084129 86.836266 35.760766 86.836266 36.4662 
C 86.836266 37.171635 87.116538 37.848271 87.615356 38.347089 
C 88.114173 38.845907 88.79081 39.126179 89.496245 39.126179 
z
" clip-path="url(#p09b261ce7b)" style="stroke: #000000"/>
    <path d="M 120.140677 175.670951 
C 120.686458 175.670951 121.20996 175.454109 121.595886 175.068183 
C 121.981812 174.682257 122.198653 174.158756 122.198653 173.612974 
C 122.198653 173.067192 121.981812 172.543691 121.595886 172.157765 
C 121.20996 171.771839 120.686458 171.554997 120.140677 171.554997 
C 119.594895 171.554997 119.071393 171.771839 118.685467 172.157765 
C 118.299541 172.543691 118.0827 173.067192 118.0827 173.612974 
C 118.0827 174.158756 118.299541 174.682257 118.685467 175.068183 
C 119.071393 175.454109 119.594895 175.670951 120.140677 175.670951 
z
" clip-path="url(#p09b261ce7b)" style="stroke: #000000"/>
    <path d="M 123.261552 161.84095 
C 123.261552 161.84095 123.261552 161.84095 123.261552 161.84095 
C 123.261552 161.84095 123.261552 161.84095 123.261552 161.84095 
C 123.261552 161.84095 123.261552 161.84095 123.261552 161.84095 
C 123.261552 161.84095 123.261552 161.84095 123.261552 161.84095 
C 123.261552 161.84095 123.261552 161.84095 123.261552 161.84095 
C 123.261552 161.84095 123.261552 161.84095 123.261552 161.84095 
C 123.261552 161.84095 123.261552 161.84095 123.261552 161.84095 
C 123.261552 161.84095 123.261552 161.84095 123.261552 161.84095 
z
" clip-path="url(#p09b261ce7b)" style="stroke: #000000"/>
    <path d="M 119.092357 160.823753 
C 119.092357 160.823753 119.092357 160.823753 119.092357 160.823753 
C 119.092357 160.823753 119.092357 160.823753 119.092357 160.823753 
C 119.092357 160.823753 119.092357 160.823753 119.092357 160.823753 
C 119.092357 160.823753 119.092357 160.823753 119.092357 160.823753 
C 119.092357 160.823753 119.092357 160.823753 119.092357 160.823753 
C 119.092357 160.823753 119.092357 160.823753 119.092357 160.823753 
C 119.092357 160.823753 119.092357 160.823753 119.092357 160.823753 
C 119.092357 160.823753 119.092357 160.823753 119.092357 160.823753 
z
" clip-path="url(#p09b261ce7b)" style="stroke: #000000"/>
    <path d="M 114.318103 143.088336 
C 114.911115 143.088336 115.479919 142.85273 115.899242 142.433407 
C 116.318565 142.014084 116.554171 141.44528 116.554171 140.852268 
C 116.554171 140.259256 116.318565 139.690452 115.899242 139.271129 
C 115.479919 138.851806 114.911115 138.6162 114.318103 138.6162 
C 113.725091 138.6162 113.156287 138.851806 112.736964 139.271129 
C 112.317641 139.690452 112.082035 140.259256 112.082035 140.852268 
C 112.082035 141.44528 112.317641 142.014084 112.736964 142.433407 
C 113.156287 142.85273 113.725091 143.088336 114.318103 143.088336 
z
" clip-path="url(#p09b261ce7b)" style="stroke: #000000"/>
    <path d="M 110.397867 135.004853 
C 111.103302 135.004853 111.779939 134.724581 112.278756 134.225764 
C 112.777574 133.726946 113.057846 133.050309 113.057846 132.344875 
C 113.057846 131.63944 112.777574 130.962804 112.278756 130.463986 
C 111.779939 129.965168 111.103302 129.684896 110.397867 129.684896 
C 109.692433 129.684896 109.015796 129.965168 108.516978 130.463986 
C 108.018161 130.962804 107.737889 131.63944 107.737889 132.344875 
C 107.737889 133.050309 108.018161 133.726946 108.516978 134.225764 
C 109.015796 134.724581 109.692433 135.004853 110.397867 135.004853 
z
" clip-path="url(#p09b261ce7b)" style="stroke: #000000"/>
    <path d="M 108.021173 125.40781 
C 108.726607 125.40781 109.403244 125.127538 109.902062 124.62872 
C 110.400879 124.129903 110.681151 123.453266 110.681151 122.747831 
C 110.681151 122.042397 110.400879 121.36576 109.902062 120.866942 
C 109.403244 120.368125 108.726607 120.087853 108.021173 120.087853 
C 107.315738 120.087853 106.639102 120.368125 106.140284 120.866942 
C 105.641466 121.36576 105.361194 122.042397 105.361194 122.747831 
C 105.361194 123.453266 105.641466 124.129903 106.140284 124.62872 
C 106.639102 125.127538 107.315738 125.40781 108.021173 125.40781 
z
" clip-path="url(#p09b261ce7b)" style="stroke: #000000"/>
    <path d="M 101.139906 114.028042 
C 101.702052 114.028042 102.24125 113.804699 102.638748 113.407202 
C 103.036245 113.009704 103.259588 112.470507 103.259588 111.908361 
C 103.259588 111.346214 103.036245 110.807017 102.638748 110.409519 
C 102.24125 110.012022 101.702052 109.788679 101.139906 109.788679 
C 100.57776 109.788679 100.038562 110.012022 99.641065 110.409519 
C 99.243568 110.807017 99.020225 111.346214 99.020225 111.908361 
C 99.020225 112.470507 99.243568 113.009704 99.641065 113.407202 
C 100.038562 113.804699 100.57776 114.028042 101.139906 114.028042 
z
" clip-path="url(#p09b261ce7b)" style="stroke: #000000"/>
    <path d="M 99.700433 103.289949 
C 100.405868 103.289949 101.082505 103.009677 101.581322 102.510859 
C 102.08014 102.012042 102.360412 101.335405 102.360412 100.62997 
C 102.360412 99.924536 102.08014 99.247899 101.581322 98.749082 
C 101.082505 98.250264 100.405868 97.969992 99.700433 97.969992 
C 98.994999 97.969992 98.318362 98.250264 97.819544 98.749082 
C 97.320727 99.247899 97.040455 99.924536 97.040455 100.62997 
C 97.040455 101.335405 97.320727 102.012042 97.819544 102.510859 
C 98.318362 103.009677 98.994999 103.289949 99.700433 103.289949 
z
" clip-path="url(#p09b261ce7b)" style="stroke: #000000"/>
    <path d="M 100.158313 94.803464 
C 100.863527 94.803464 101.539952 94.52328 102.038614 94.024618 
C 102.537276 93.525956 102.81746 92.849531 102.81746 92.144316 
C 102.81746 91.439102 102.537276 90.762677 102.038614 90.264015 
C 101.539952 89.765353 100.863527 89.485168 100.158313 89.485168 
C 99.453098 89.485168 98.776673 89.765353 98.278011 90.264015 
C 97.779349 90.762677 97.499165 91.439102 97.499165 92.144316 
C 97.499165 92.849531 97.779349 93.525956 98.278011 94.024618 
C 98.776673 94.52328 99.453098 94.803464 100.158313 94.803464 
z
" clip-path="url(#p09b261ce7b)" style="stroke: #000000"/>
    <path d="M 90.047531 82.374705 
C 90.752966 82.374705 91.429602 82.094433 91.92842 81.595615 
C 92.427238 81.096797 92.70751 80.420161 92.70751 79.714726 
C 92.70751 79.009292 92.427238 78.332655 91.92842 77.833837 
C 91.429602 77.33502 90.752966 77.054748 90.047531 77.054748 
C 89.342097 77.054748 88.66546 77.33502 88.166642 77.833837 
C 87.667825 78.332655 87.387553 79.009292 87.387553 79.714726 
C 87.387553 80.420161 87.667825 81.096797 88.166642 81.595615 
C 88.66546 82.094433 89.342097 82.374705 90.047531 82.374705 
z
" clip-path="url(#p09b261ce7b)" style="stroke: #000000"/>
    <path d="M 88.541483 73.471634 
C 89.246698 73.471634 89.923123 73.19145 90.421785 72.692788 
C 90.920447 72.194126 91.200631 71.517701 91.200631 70.812486 
C 91.200631 70.107272 90.920447 69.430847 90.421785 68.932185 
C 89.923123 68.433523 89.246698 68.153338 88.541483 68.153338 
C 87.836269 68.153338 87.159844 68.433523 86.661182 68.932185 
C 86.16252 69.430847 85.882336 70.107272 85.882336 70.812486 
C 85.882336 71.517701 86.16252 72.194126 86.661182 72.692788 
C 87.159844 73.19145 87.836269 73.471634 88.541483 73.471634 
z
" clip-path="url(#p09b261ce7b)" style="stroke: #000000"/>
    <path d="M 86.522789 65.147576 
C 87.09674 65.147576 87.647262 64.919543 88.053107 64.513697 
C 88.458952 64.107852 88.686986 63.557331 88.686986 62.983379 
C 88.686986 62.409427 88.458952 61.858906 88.053107 61.453061 
C 87.647262 61.047216 87.09674 60.819182 86.522789 60.819182 
C 85.948837 60.819182 85.398315 61.047216 84.99247 61.453061 
C 84.586625 61.858906 84.358592 62.409427 84.358592 62.983379 
C 84.358592 63.557331 84.586625 64.107852 84.99247 64.513697 
C 85.398315 64.919543 85.948837 65.147576 86.522789 65.147576 
z
" clip-path="url(#p09b261ce7b)" style="stroke: #000000"/>
    <path d="M 80.527593 49.733424 
C 80.527593 49.733424 80.527593 49.733424 80.527593 49.733424 
C 80.527593 49.733424 80.527593 49.733424 80.527593 49.733424 
C 80.527593 49.733424 80.527593 49.733424 80.527593 49.733424 
C 80.527593 49.733424 80.527593 49.733424 80.527593 49.733424 
C 80.527593 49.733424 80.527593 49.733424 80.527593 49.733424 
C 80.527593 49.733424 80.527593 49.733424 80.527593 49.733424 
C 80.527593 49.733424 80.527593 49.733424 80.527593 49.733424 
C 80.527593 49.733424 80.527593 49.733424 80.527593 49.733424 
z
" clip-path="url(#p09b261ce7b)" style="stroke: #000000"/>
    <path d="M 76.992136 44.523091 
C 77.69757 44.523091 78.374207 44.242819 78.873025 43.744002 
C 79.371842 43.245184 79.652114 42.568547 79.652114 41.863113 
C 79.652114 41.157678 79.371842 40.481042 78.873025 39.982224 
C 78.374207 39.483406 77.69757 39.203134 76.992136 39.203134 
C 76.286701 39.203134 75.610064 39.483406 75.111247 39.982224 
C 74.612429 40.481042 74.332157 41.157678 74.332157 41.863113 
C 74.332157 42.568547 74.612429 43.245184 75.111247 43.744002 
C 75.610064 44.242819 76.286701 44.523091 76.992136 44.523091 
z
" clip-path="url(#p09b261ce7b)" style="stroke: #000000"/>
    <path d="M 77.06232 32.373421 
C 77.767754 32.373421 78.444391 32.093149 78.943209 31.594331 
C 79.442026 31.095514 79.722298 30.418877 79.722298 29.713443 
C 79.722298 29.008008 79.442026 28.331371 78.943209 27.832554 
C 78.444391 27.333736 77.767754 27.053464 77.06232 27.053464 
C 76.356885 27.053464 75.680249 27.333736 75.181431 27.832554 
C 74.682613 28.331371 74.402341 29.008008 74.402341 29.713443 
C 74.402341 30.418877 74.682613 31.095514 75.181431 31.594331 
C 75.680249 32.093149 76.356885 32.373421 77.06232 32.373421 
z
" clip-path="url(#p09b261ce7b)" style="stroke: #000000"/>
    <path d="M 110.93534 170.784207 
C 111.640555 170.784207 112.31698 170.504022 112.815642 170.00536 
C 113.314304 169.506698 113.594488 168.830273 113.594488 168.125059 
C 113.594488 167.419844 113.314304 166.743419 112.815642 166.244757 
C 112.31698 165.746095 111.640555 165.465911 110.93534 165.465911 
C 110.230126 165.465911 109.553701 165.746095 109.055039 166.244757 
C 108.556377 166.743419 108.276192 167.419844 108.276192 168.125059 
C 108.276192 168.830273 108.556377 169.506698 109.055039 170.00536 
C 109.553701 170.504022 110.230126 170.784207 110.93534 170.784207 
z
" clip-path="url(#p09b261ce7b)" style="stroke: #000000"/>
    <path d="M 105.224969 161.431768 
C 105.817981 161.431768 106.386785 161.196162 106.806108 160.776839 
C 107.225431 160.357516 107.461037 159.788712 107.461037 159.1957 
C 107.461037 158.602688 107.225431 158.033884 106.806108 157.614561 
C 106.386785 157.195238 105.817981 156.959632 105.224969 156.959632 
C 104.631957 156.959632 104.063153 157.195238 103.64383 157.614561 
C 103.224507 158.033884 102.988901 158.602688 102.988901 159.1957 
C 102.988901 159.788712 103.224507 160.357516 103.64383 160.776839 
C 104.063153 161.196162 104.631957 161.431768 105.224969 161.431768 
z
" clip-path="url(#p09b261ce7b)" style="stroke: #000000"/>
    <path d="M 102.827703 149.856667 
C 103.533138 149.856667 104.209774 149.576395 104.708592 149.077577 
C 105.207409 148.57876 105.487682 147.902123 105.487682 147.196688 
C 105.487682 146.491254 105.207409 145.814617 104.708592 145.315799 
C 104.209774 144.816982 103.533138 144.53671 102.827703 144.53671 
C 102.122268 144.53671 101.445632 144.816982 100.946814 145.315799 
C 100.447997 145.814617 100.167724 146.491254 100.167724 147.196688 
C 100.167724 147.902123 100.447997 148.57876 100.946814 149.077577 
C 101.445632 149.576395 102.122268 149.856667 102.827703 149.856667 
z
" clip-path="url(#p09b261ce7b)" style="stroke: #000000"/>
    <path d="M 103.88882 135.608095 
C 104.482202 135.608095 105.051361 135.372342 105.470946 134.952757 
C 105.89053 134.533172 106.126284 133.964013 106.126284 133.370631 
C 106.126284 132.777248 105.89053 132.208089 105.470946 131.788505 
C 105.051361 131.36892 104.482202 131.133167 103.88882 131.133167 
C 103.295437 131.133167 102.726278 131.36892 102.306693 131.788505 
C 101.887109 132.208089 101.651355 132.777248 101.651355 133.370631 
C 101.651355 133.964013 101.887109 134.533172 102.306693 134.952757 
C 102.726278 135.372342 103.295437 135.608095 103.88882 135.608095 
z
" clip-path="url(#p09b261ce7b)" style="stroke: #000000"/>
    <path d="M 94.329174 127.393973 
C 94.966905 127.393973 95.578601 127.1406 96.029544 126.689657 
C 96.480488 126.238713 96.733861 125.627017 96.733861 124.989287 
C 96.733861 124.351556 96.480488 123.73986 96.029544 123.288917 
C 95.578601 122.837973 94.966905 122.5846 94.329174 122.5846 
C 93.691444 122.5846 93.079748 122.837973 92.628804 123.288917 
C 92.177861 123.73986 91.924488 124.351556 91.924488 124.989287 
C 91.924488 125.627017 92.177861 126.238713 92.628804 126.689657 
C 93.079748 127.1406 93.691444 127.393973 94.329174 127.393973 
z
" clip-path="url(#p09b261ce7b)" style="stroke: #000000"/>
    <path d="M 94.085298 119.931961 
C 94.924075 119.931961 95.72861 119.598712 96.321715 119.005607 
C 96.91482 118.412502 97.24807 117.607966 97.24807 116.76919 
C 97.24807 115.930413 96.91482 115.125877 96.321715 114.532772 
C 95.72861 113.939668 94.924075 113.606418 94.085298 113.606418 
C 93.246521 113.606418 92.441985 113.939668 91.848881 114.532772 
C 91.255776 115.125877 90.922526 115.930413 90.922526 116.76919 
C 90.922526 117.607966 91.255776 118.412502 91.848881 119.005607 
C 92.441985 119.598712 93.246521 119.931961 94.085298 119.931961 
z
" clip-path="url(#p09b261ce7b)" style="stroke: #000000"/>
    <path d="M 88.690628 111.294336 
C 89.529405 111.294336 90.333941 110.961086 90.927045 110.367981 
C 91.52015 109.774877 91.8534 108.970341 91.8534 108.131564 
C 91.8534 107.292787 91.52015 106.488252 90.927045 105.895147 
C 90.333941 105.302042 89.529405 104.968792 88.690628 104.968792 
C 87.851851 104.968792 87.047316 105.302042 86.454211 105.895147 
C 85.861106 106.488252 85.527856 107.292787 85.527856 108.131564 
C 85.527856 108.970341 85.861106 109.774877 86.454211 110.367981 
C 87.047316 110.961086 87.851851 111.294336 88.690628 111.294336 
z
" clip-path="url(#p09b261ce7b)" style="stroke: #000000"/>
    <path d="M 84.100415 97.855402 
C 84.738443 97.855402 85.350425 97.601911 85.801579 97.150757 
C 86.252733 96.699603 86.506224 96.087621 86.506224 95.449593 
C 86.506224 94.811565 86.252733 94.199583 85.801579 93.748429 
C 85.350425 93.297275 84.738443 93.043783 84.100415 93.043783 
C 83.462387 93.043783 82.850405 93.297275 82.399251 93.748429 
C 81.948097 94.199583 81.694605 94.811565 81.694605 95.449593 
C 81.694605 96.087621 81.948097 96.699603 82.399251 97.150757 
C 82.850405 97.601911 83.462387 97.855402 84.100415 97.855402 
z
" clip-path="url(#p09b261ce7b)" style="stroke: #000000"/>
    <path d="M 81.359699 85.864036 
C 82.065133 85.864036 82.74177 85.583764 83.240587 85.084946 
C 83.739405 84.586129 84.019677 83.909492 84.019677 83.204057 
C 84.019677 82.498623 83.739405 81.821986 83.240587 81.323169 
C 82.74177 80.824351 82.065133 80.544079 81.359699 80.544079 
C 80.654264 80.544079 79.977627 80.824351 79.47881 81.323169 
C 78.979992 81.821986 78.69972 82.498623 78.69972 83.204057 
C 78.69972 83.909492 78.979992 84.586129 79.47881 85.084946 
C 79.977627 85.583764 80.654264 85.864036 81.359699 85.864036 
z
" clip-path="url(#p09b261ce7b)" style="stroke: #000000"/>
    <path d="M 76.983486 82.1279 
C 77.688921 82.1279 78.365557 81.847628 78.864375 81.34881 
C 79.363193 80.849992 79.643465 80.173356 79.643465 79.467921 
C 79.643465 78.762487 79.363193 78.08585 78.864375 77.587032 
C 78.365557 77.088215 77.688921 76.807943 76.983486 76.807943 
C 76.278052 76.807943 75.601415 77.088215 75.102597 77.587032 
C 74.60378 78.08585 74.323508 78.762487 74.323508 79.467921 
C 74.323508 80.173356 74.60378 80.849992 75.102597 81.34881 
C 75.601415 81.847628 76.278052 82.1279 76.983486 82.1279 
z
" clip-path="url(#p09b261ce7b)" style="stroke: #000000"/>
    <path d="M 73.325986 62.235595 
C 73.325986 62.235595 73.325986 62.235595 73.325986 62.235595 
C 73.325986 62.235595 73.325986 62.235595 73.325986 62.235595 
C 73.325986 62.235595 73.325986 62.235595 73.325986 62.235595 
C 73.325986 62.235595 73.325986 62.235595 73.325986 62.235595 
C 73.325986 62.235595 73.325986 62.235595 73.325986 62.235595 
C 73.325986 62.235595 73.325986 62.235595 73.325986 62.235595 
C 73.325986 62.235595 73.325986 62.235595 73.325986 62.235595 
C 73.325986 62.235595 73.325986 62.235595 73.325986 62.235595 
z
" clip-path="url(#p09b261ce7b)" style="stroke: #000000"/>
    <path d="M 72.383961 58.304697 
C 72.383961 58.304697 72.383961 58.304697 72.383961 58.304697 
C 72.383961 58.304697 72.383961 58.304697 72.383961 58.304697 
C 72.383961 58.304697 72.383961 58.304697 72.383961 58.304697 
C 72.383961 58.304697 72.383961 58.304697 72.383961 58.304697 
C 72.383961 58.304697 72.383961 58.304697 72.383961 58.304697 
C 72.383961 58.304697 72.383961 58.304697 72.383961 58.304697 
C 72.383961 58.304697 72.383961 58.304697 72.383961 58.304697 
C 72.383961 58.304697 72.383961 58.304697 72.383961 58.304697 
z
" clip-path="url(#p09b261ce7b)" style="stroke: #000000"/>
    <path d="M 71.07833 44.335803 
C 71.783765 44.335803 72.460402 44.055531 72.959219 43.556714 
C 73.458037 43.057896 73.738309 42.381259 73.738309 41.675825 
C 73.738309 40.97039 73.458037 40.293754 72.959219 39.794936 
C 72.460402 39.296118 71.783765 39.015846 71.07833 39.015846 
C 70.372896 39.015846 69.696259 39.296118 69.197442 39.794936 
C 68.698624 40.293754 68.418352 40.97039 68.418352 41.675825 
C 68.418352 42.381259 68.698624 43.057896 69.197442 43.556714 
C 69.696259 44.055531 70.372896 44.335803 71.07833 44.335803 
z
" clip-path="url(#p09b261ce7b)" style="stroke: #000000"/>
    <path d="M 63.085904 36.821918 
C 63.791119 36.821918 64.467544 36.541733 64.966206 36.043071 
C 65.464868 35.54441 65.745052 34.867984 65.745052 34.16277 
C 65.745052 33.457556 65.464868 32.78113 64.966206 32.282468 
C 64.467544 31.783807 63.791119 31.503622 63.085904 31.503622 
C 62.38069 31.503622 61.704265 31.783807 61.205603 32.282468 
C 60.706941 32.78113 60.426756 33.457556 60.426756 34.16277 
C 60.426756 34.867984 60.706941 35.54441 61.205603 36.043071 
C 61.704265 36.541733 62.38069 36.821918 63.085904 36.821918 
z
" clip-path="url(#p09b261ce7b)" style="stroke: #000000"/>
    <path d="M 98.37029 175.284643 
C 98.931126 175.284643 99.469068 175.06182 99.865639 174.665249 
C 100.26221 174.268678 100.485033 173.730737 100.485033 173.169901 
C 100.485033 172.609064 100.26221 172.071123 99.865639 171.674552 
C 99.469068 171.277981 98.931126 171.055158 98.37029 171.055158 
C 97.809454 171.055158 97.271512 171.277981 96.874941 171.674552 
C 96.47837 172.071123 96.255547 172.609064 96.255547 173.169901 
C 96.255547 173.730737 96.47837 174.268678 96.874941 174.665249 
C 97.271512 175.06182 97.809454 175.284643 98.37029 175.284643 
z
" clip-path="url(#p09b261ce7b)" style="stroke: #000000"/>
    <path d="M 96.347052 162.670792 
C 96.940064 162.670792 97.508867 162.435185 97.92819 162.015862 
C 98.347513 161.596539 98.58312 161.027736 98.58312 160.434724 
C 98.58312 159.841711 98.347513 159.272908 97.92819 158.853585 
C 97.508867 158.434262 96.940064 158.198656 96.347052 158.198656 
C 95.754039 158.198656 95.185236 158.434262 94.765913 158.853585 
C 94.34659 159.272908 94.110984 159.841711 94.110984 160.434724 
C 94.110984 161.027736 94.34659 161.596539 94.765913 162.015862 
C 95.185236 162.435185 95.754039 162.670792 96.347052 162.670792 
z
" clip-path="url(#p09b261ce7b)" style="stroke: #000000"/>
    <path d="M 87.026123 154.485354 
C 87.731557 154.485354 88.408194 154.205082 88.907011 153.706264 
C 89.405829 153.207447 89.686101 152.53081 89.686101 151.825375 
C 89.686101 151.119941 89.405829 150.443304 88.907011 149.944487 
C 88.408194 149.445669 87.731557 149.165397 87.026123 149.165397 
C 86.320688 149.165397 85.644051 149.445669 85.145234 149.944487 
C 84.646416 150.443304 84.366144 151.119941 84.366144 151.825375 
C 84.366144 152.53081 84.646416 153.207447 85.145234 153.706264 
C 85.644051 154.205082 86.320688 154.485354 87.026123 154.485354 
z
" clip-path="url(#p09b261ce7b)" style="stroke: #000000"/>
    <path d="M 88.486709 145.084473 
C 89.192144 145.084473 89.868781 144.804201 90.367598 144.305383 
C 90.866416 143.806565 91.146688 143.129929 91.146688 142.424494 
C 91.146688 141.71906 90.866416 141.042423 90.367598 140.543605 
C 89.868781 140.044788 89.192144 139.764516 88.486709 139.764516 
C 87.781275 139.764516 87.104638 140.044788 86.60582 140.543605 
C 86.107003 141.042423 85.826731 141.71906 85.826731 142.424494 
C 85.826731 143.129929 86.107003 143.806565 86.60582 144.305383 
C 87.104638 144.804201 87.781275 145.084473 88.486709 145.084473 
z
" clip-path="url(#p09b261ce7b)" style="stroke: #000000"/>
    <path d="M 87.447647 131.895602 
C 88.040659 131.895602 88.609463 131.659996 89.028786 131.240673 
C 89.448109 130.82135 89.683715 130.252547 89.683715 129.659534 
C 89.683715 129.066522 89.448109 128.497719 89.028786 128.078396 
C 88.609463 127.659073 88.040659 127.423466 87.447647 127.423466 
C 86.854635 127.423466 86.285831 127.659073 85.866508 128.078396 
C 85.447186 128.497719 85.211579 129.066522 85.211579 129.659534 
C 85.211579 130.252547 85.447186 130.82135 85.866508 131.240673 
C 86.285831 131.659996 86.854635 131.895602 87.447647 131.895602 
z
" clip-path="url(#p09b261ce7b)" style="stroke: #000000"/>
    <path d="M 86.167038 119.856846 
C 86.765172 119.856846 87.338889 119.619204 87.761834 119.19626 
C 88.184779 118.773315 88.42242 118.199598 88.42242 117.601464 
C 88.42242 117.00333 88.184779 116.429613 87.761834 116.006668 
C 87.338889 115.583723 86.765172 115.346082 86.167038 115.346082 
C 85.568904 115.346082 84.995187 115.583723 84.572242 116.006668 
C 84.149297 116.429613 83.911656 117.00333 83.911656 117.601464 
C 83.911656 118.199598 84.149297 118.773315 84.572242 119.19626 
C 84.995187 119.619204 85.568904 119.856846 86.167038 119.856846 
z
" clip-path="url(#p09b261ce7b)" style="stroke: #000000"/>
    <path d="M 79.745468 110.183319 
C 80.384979 110.183319 80.998383 109.929239 81.450586 109.477037 
C 81.902788 109.024834 82.156868 108.41143 82.156868 107.771919 
C 82.156868 107.132408 81.902788 106.519004 81.450586 106.066802 
C 80.998383 105.614599 80.384979 105.360519 79.745468 105.360519 
C 79.105957 105.360519 78.492553 105.614599 78.04035 106.066802 
C 77.588148 106.519004 77.334068 107.132408 77.334068 107.771919 
C 77.334068 108.41143 77.588148 109.024834 78.04035 109.477037 
C 78.492553 109.929239 79.105957 110.183319 79.745468 110.183319 
z
" clip-path="url(#p09b261ce7b)" style="stroke: #000000"/>
    <path d="M 79.012951 101.617475 
C 79.718385 101.617475 80.395022 101.337203 80.89384 100.838386 
C 81.392657 100.339568 81.672929 99.662931 81.672929 98.957497 
C 81.672929 98.252062 81.392657 97.575425 80.89384 97.076608 
C 80.395022 96.57779 79.718385 96.297518 79.012951 96.297518 
C 78.307516 96.297518 77.630879 96.57779 77.132062 97.076608 
C 76.633244 97.575425 76.352972 98.252062 76.352972 98.957497 
C 76.352972 99.662931 76.633244 100.339568 77.132062 100.838386 
C 77.630879 101.337203 78.307516 101.617475 79.012951 101.617475 
z
" clip-path="url(#p09b261ce7b)" style="stroke: #000000"/>
    <path d="M 73.154414 91.006218 
C 73.859628 91.006218 74.536054 90.726034 75.034715 90.227372 
C 75.533377 89.72871 75.813562 89.052285 75.813562 88.34707 
C 75.813562 87.641856 75.533377 86.965431 75.034715 86.466769 
C 74.536054 85.968107 73.859628 85.687922 73.154414 85.687922 
C 72.449199 85.687922 71.772774 85.968107 71.274112 86.466769 
C 70.77545 86.965431 70.495266 87.641856 70.495266 88.34707 
C 70.495266 89.052285 70.77545 89.72871 71.274112 90.227372 
C 71.772774 90.726034 72.449199 91.006218 73.154414 91.006218 
z
" clip-path="url(#p09b261ce7b)" style="stroke: #000000"/>
    <path d="M 65.902601 83.433651 
C 66.726998 83.433651 67.517741 83.106115 68.100677 82.523178 
C 68.683614 81.940242 69.01115 81.149499 69.01115 80.325103 
C 69.01115 79.500706 68.683614 78.709963 68.100677 78.127027 
C 67.517741 77.54409 66.726998 77.216554 65.902601 77.216554 
C 65.078205 77.216554 64.287462 77.54409 63.704526 78.127027 
C 63.121589 78.709963 62.794053 79.500706 62.794053 80.325103 
C 62.794053 81.149499 63.121589 81.940242 63.704526 82.523178 
C 64.287462 83.106115 65.078205 83.433651 65.902601 83.433651 
z
" clip-path="url(#p09b261ce7b)" style="stroke: #000000"/>
    <path d="M 66.807648 68.788472 
C 67.512862 68.788472 68.189288 68.508287 68.68795 68.009625 
C 69.186612 67.510964 69.466796 66.834538 69.466796 66.129324 
C 69.466796 65.42411 69.186612 64.747684 68.68795 64.249022 
C 68.189288 63.750361 67.512862 63.470176 66.807648 63.470176 
C 66.102434 63.470176 65.426008 63.750361 64.927347 64.249022 
C 64.428685 64.747684 64.1485 65.42411 64.1485 66.129324 
C 64.1485 66.834538 64.428685 67.510964 64.927347 68.009625 
C 65.426008 68.508287 66.102434 68.788472 66.807648 68.788472 
z
" clip-path="url(#p09b261ce7b)" style="stroke: #000000"/>
    <path d="M 61.85166 51.558355 
C 61.85166 51.558355 61.85166 51.558355 61.85166 51.558355 
C 61.85166 51.558355 61.85166 51.558355 61.85166 51.558355 
C 61.85166 51.558355 61.85166 51.558355 61.85166 51.558355 
C 61.85166 51.558355 61.85166 51.558355 61.85166 51.558355 
C 61.85166 51.558355 61.85166 51.558355 61.85166 51.558355 
C 61.85166 51.558355 61.85166 51.558355 61.85166 51.558355 
C 61.85166 51.558355 61.85166 51.558355 61.85166 51.558355 
C 61.85166 51.558355 61.85166 51.558355 61.85166 51.558355 
z
" clip-path="url(#p09b261ce7b)" style="stroke: #000000"/>
    <path d="M 57.18596 49.114811 
C 57.713757 49.114811 58.220008 48.905115 58.593217 48.531906 
C 58.966426 48.158697 59.176122 47.652446 59.176122 47.124649 
C 59.176122 46.596852 58.966426 46.090601 58.593217 45.717392 
C 58.220008 45.344183 57.713757 45.134487 57.18596 45.134487 
C 56.658163 45.134487 56.151912 45.344183 55.778703 45.717392 
C 55.405494 46.090601 55.195798 46.596852 55.195798 47.124649 
C 55.195798 47.652446 55.405494 48.158697 55.778703 48.531906 
C 56.151912 48.905115 56.658163 49.114811 57.18596 49.114811 
z
" clip-path="url(#p09b261ce7b)" style="stroke: #000000"/>
    <path d="M 55.130815 42.746113 
C 55.836029 42.746113 56.512454 42.465928 57.011116 41.967266 
C 57.509778 41.468605 57.789962 40.792179 57.789962 40.086965 
C 57.789962 39.381751 57.509778 38.705325 57.011116 38.206663 
C 56.512454 37.708002 55.836029 37.427817 55.130815 37.427817 
C 54.4256 37.427817 53.749175 37.708002 53.250513 38.206663 
C 52.751851 38.705325 52.471667 39.381751 52.471667 40.086965 
C 52.471667 40.792179 52.751851 41.468605 53.250513 41.967266 
C 53.749175 42.465928 54.4256 42.746113 55.130815 42.746113 
z
" clip-path="url(#p09b261ce7b)" style="stroke: #000000"/>
    <path d="M 87.650668 180.529311 
C 88.211942 180.529311 88.750304 180.306314 89.147184 179.909434 
C 89.544065 179.512553 89.767061 178.974192 89.767061 178.412918 
C 89.767061 177.851644 89.544065 177.313283 89.147184 176.916402 
C 88.750304 176.519522 88.211942 176.296525 87.650668 176.296525 
C 87.089395 176.296525 86.551033 176.519522 86.154153 176.916402 
C 85.757272 177.313283 85.534276 177.851644 85.534276 178.412918 
C 85.534276 178.974192 85.757272 179.512553 86.154153 179.909434 
C 86.551033 180.306314 87.089395 180.529311 87.650668 180.529311 
z
" clip-path="url(#p09b261ce7b)" style="stroke: #000000"/>
    <path d="M 88.282001 168.504588 
C 88.987435 168.504588 89.664072 168.224316 90.16289 167.725498 
C 90.661707 167.22668 90.941979 166.550044 90.941979 165.844609 
C 90.941979 165.139175 90.661707 164.462538 90.16289 163.96372 
C 89.664072 163.464903 88.987435 163.184631 88.282001 163.184631 
C 87.576566 163.184631 86.899929 163.464903 86.401112 163.96372 
C 85.902294 164.462538 85.622022 165.139175 85.622022 165.844609 
C 85.622022 166.550044 85.902294 167.22668 86.401112 167.725498 
C 86.899929 168.224316 87.576566 168.504588 88.282001 168.504588 
z
" clip-path="url(#p09b261ce7b)" style="stroke: #000000"/>
    <path d="M 78.352262 156.862103 
C 79.057697 156.862103 79.734333 156.581831 80.233151 156.083013 
C 80.731969 155.584196 81.012241 154.907559 81.012241 154.202125 
C 81.012241 153.49669 80.731969 152.820053 80.233151 152.321236 
C 79.734333 151.822418 79.057697 151.542146 78.352262 151.542146 
C 77.646828 151.542146 76.970191 151.822418 76.471373 152.321236 
C 75.972556 152.820053 75.692284 153.49669 75.692284 154.202125 
C 75.692284 154.907559 75.972556 155.584196 76.471373 156.083013 
C 76.970191 156.581831 77.646828 156.862103 78.352262 156.862103 
z
" clip-path="url(#p09b261ce7b)" style="stroke: #000000"/>
    <path d="M 76.503196 147.280121 
C 77.096578 147.280121 77.665737 147.044368 78.085322 146.624783 
C 78.504907 146.205199 78.74066 145.63604 78.74066 145.042657 
C 78.74066 144.449275 78.504907 143.880116 78.085322 143.460531 
C 77.665737 143.040946 77.096578 142.805193 76.503196 142.805193 
C 75.909813 142.805193 75.340655 143.040946 74.92107 143.460531 
C 74.501485 143.880116 74.265732 144.449275 74.265732 145.042657 
C 74.265732 145.63604 74.501485 146.205199 74.92107 146.624783 
C 75.340655 147.044368 75.909813 147.280121 76.503196 147.280121 
z
" clip-path="url(#p09b261ce7b)" style="stroke: #000000"/>
    <path d="M 73.509132 138.115081 
C 74.214567 138.115081 74.891203 137.834808 75.390021 137.335991 
C 75.888838 136.837173 76.169111 136.160537 76.169111 135.455102 
C 76.169111 134.749667 75.888838 134.073031 75.390021 133.574213 
C 74.891203 133.075396 74.214567 132.795123 73.509132 132.795123 
C 72.803697 132.795123 72.127061 133.075396 71.628243 133.574213 
C 71.129426 134.073031 70.849153 134.749667 70.849153 135.455102 
C 70.849153 136.160537 71.129426 136.837173 71.628243 137.335991 
C 72.127061 137.834808 72.803697 138.115081 73.509132 138.115081 
z
" clip-path="url(#p09b261ce7b)" style="stroke: #000000"/>
    <path d="M 74.000182 127.440169 
C 74.83593 127.440169 75.637561 127.108123 76.228524 126.51716 
C 76.819487 125.926197 77.151533 125.124566 77.151533 124.288818 
C 77.151533 123.45307 76.819487 122.65144 76.228524 122.060477 
C 75.637561 121.469514 74.83593 121.137467 74.000182 121.137467 
C 73.164434 121.137467 72.362804 121.469514 71.771841 122.060477 
C 71.180877 122.65144 70.848831 123.45307 70.848831 124.288818 
C 70.848831 125.124566 71.180877 125.926197 71.771841 126.51716 
C 72.362804 127.108123 73.164434 127.440169 74.000182 127.440169 
z
" clip-path="url(#p09b261ce7b)" style="stroke: #000000"/>
    <path d="M 70.032702 113.901632 
C 70.670134 113.901632 71.281544 113.648378 71.732277 113.197645 
C 72.18301 112.746913 72.436264 112.135502 72.436264 111.49807 
C 72.436264 110.860638 72.18301 110.249228 71.732277 109.798495 
C 71.281544 109.347763 70.670134 109.094508 70.032702 109.094508 
C 69.39527 109.094508 68.78386 109.347763 68.333127 109.798495 
C 67.882395 110.249228 67.62914 110.860638 67.62914 111.49807 
C 67.62914 112.135502 67.882395 112.746913 68.333127 113.197645 
C 68.78386 113.648378 69.39527 113.901632 70.032702 113.901632 
z
" clip-path="url(#p09b261ce7b)" style="stroke: #000000"/>
    <path d="M 65.367789 106.314715 
C 66.163092 106.314715 66.925927 105.998738 67.488291 105.436374 
C 68.050654 104.874011 68.366631 104.111175 68.366631 103.315873 
C 68.366631 102.520571 68.050654 101.757735 67.488291 101.195371 
C 66.925927 100.633008 66.163092 100.317031 65.367789 100.317031 
C 64.572487 100.317031 63.809652 100.633008 63.247288 101.195371 
C 62.684924 101.757735 62.368947 102.520571 62.368947 103.315873 
C 62.368947 104.111175 62.684924 104.874011 63.247288 105.436374 
C 63.809652 105.998738 64.572487 106.314715 65.367789 106.314715 
z
" clip-path="url(#p09b261ce7b)" style="stroke: #000000"/>
    <path d="M 59.985527 95.382752 
C 60.690962 95.382752 61.367598 95.10248 61.866416 94.603662 
C 62.365234 94.104844 62.645506 93.428208 62.645506 92.722773 
C 62.645506 92.017339 62.365234 91.340702 61.866416 90.841884 
C 61.367598 90.343067 60.690962 90.062795 59.985527 90.062795 
C 59.280093 90.062795 58.603456 90.343067 58.104638 90.841884 
C 57.605821 91.340702 57.325549 92.017339 57.325549 92.722773 
C 57.325549 93.428208 57.605821 94.104844 58.104638 94.603662 
C 58.603456 95.10248 59.280093 95.382752 59.985527 95.382752 
z
" clip-path="url(#p09b261ce7b)" style="stroke: #000000"/>
    <path d="M 52.454887 84.862011 
C 53.047899 84.862011 53.616703 84.626405 54.036026 84.207082 
C 54.455349 83.787759 54.690955 83.218955 54.690955 82.625943 
C 54.690955 82.032931 54.455349 81.464127 54.036026 81.044804 
C 53.616703 80.625482 53.047899 80.389875 52.454887 80.389875 
C 51.861875 80.389875 51.293071 80.625482 50.873748 81.044804 
C 50.454425 81.464127 50.218819 82.032931 50.218819 82.625943 
C 50.218819 83.218955 50.454425 83.787759 50.873748 84.207082 
C 51.293071 84.626405 51.861875 84.862011 52.454887 84.862011 
z
" clip-path="url(#p09b261ce7b)" style="stroke: #000000"/>
    <path d="M 54.119895 75.957204 
C 54.825109 75.957204 55.501535 75.677019 56.000197 75.178357 
C 56.498858 74.679695 56.779043 74.00327 56.779043 73.298056 
C 56.779043 72.592841 56.498858 71.916416 56.000197 71.417754 
C 55.501535 70.919092 54.825109 70.638908 54.119895 70.638908 
C 53.414681 70.638908 52.738255 70.919092 52.239594 71.417754 
C 51.740932 71.916416 51.460747 72.592841 51.460747 73.298056 
C 51.460747 74.00327 51.740932 74.679695 52.239594 75.178357 
C 52.738255 75.677019 53.414681 75.957204 54.119895 75.957204 
z
" clip-path="url(#p09b261ce7b)" style="stroke: #000000"/>
    <path d="M 51.39991 65.093896 
C 51.961184 65.093896 52.499545 64.8709 52.896426 64.474019 
C 53.293306 64.077139 53.516303 63.538778 53.516303 62.977504 
C 53.516303 62.41623 53.293306 61.877869 52.896426 61.480988 
C 52.499545 61.084107 51.961184 60.861111 51.39991 60.861111 
C 50.838636 60.861111 50.300275 61.084107 49.903394 61.480988 
C 49.506514 61.877869 49.283517 62.41623 49.283517 62.977504 
C 49.283517 63.538778 49.506514 64.077139 49.903394 64.474019 
C 50.300275 64.8709 50.838636 65.093896 51.39991 65.093896 
z
" clip-path="url(#p09b261ce7b)" style="stroke: #000000"/>
    <path d="M 50.578927 54.761685 
C 50.578927 54.761685 50.578927 54.761685 50.578927 54.761685 
C 50.578927 54.761685 50.578927 54.761685 50.578927 54.761685 
C 50.578927 54.761685 50.578927 54.761685 50.578927 54.761685 
C 50.578927 54.761685 50.578927 54.761685 50.578927 54.761685 
C 50.578927 54.761685 50.578927 54.761685 50.578927 54.761685 
C 50.578927 54.761685 50.578927 54.761685 50.578927 54.761685 
C 50.578927 54.761685 50.578927 54.761685 50.578927 54.761685 
C 50.578927 54.761685 50.578927 54.761685 50.578927 54.761685 
z
" clip-path="url(#p09b261ce7b)" style="stroke: #000000"/>
    <path d="M 44.837371 42.454295 
C 45.542806 42.454295 46.219442 42.174023 46.71826 41.675206 
C 47.217077 41.176388 47.49735 40.499751 47.49735 39.794317 
C 47.49735 39.088882 47.217077 38.412245 46.71826 37.913428 
C 46.219442 37.41461 45.542806 37.134338 44.837371 37.134338 
C 44.131936 37.134338 43.4553 37.41461 42.956482 37.913428 
C 42.457665 38.412245 42.177392 39.088882 42.177392 39.794317 
C 42.177392 40.499751 42.457665 41.176388 42.956482 41.675206 
C 43.4553 42.174023 44.131936 42.454295 44.837371 42.454295 
z
" clip-path="url(#p09b261ce7b)" style="stroke: #000000"/>
    <path d="M 74.715744 172.810964 
C 75.420959 172.810964 76.097384 172.530779 76.596046 172.032117 
C 77.094708 171.533456 77.374892 170.85703 77.374892 170.151816 
C 77.374892 169.446602 77.094708 168.770176 76.596046 168.271514 
C 76.097384 167.772852 75.420959 167.492668 74.715744 167.492668 
C 74.01053 167.492668 73.334105 167.772852 72.835443 168.271514 
C 72.336781 168.770176 72.056596 169.446602 72.056596 170.151816 
C 72.056596 170.85703 72.336781 171.533456 72.835443 172.032117 
C 73.334105 172.530779 74.01053 172.810964 74.715744 172.810964 
z
" clip-path="url(#p09b261ce7b)" style="stroke: #000000"/>
    <path d="M 75.89064 158.562515 
C 75.89064 158.562515 75.89064 158.562515 75.89064 158.562515 
C 75.89064 158.562515 75.89064 158.562515 75.89064 158.562515 
C 75.89064 158.562515 75.89064 158.562515 75.89064 158.562515 
C 75.89064 158.562515 75.89064 158.562515 75.89064 158.562515 
C 75.89064 158.562515 75.89064 158.562515 75.89064 158.562515 
C 75.89064 158.562515 75.89064 158.562515 75.89064 158.562515 
C 75.89064 158.562515 75.89064 158.562515 75.89064 158.562515 
C 75.89064 158.562515 75.89064 158.562515 75.89064 158.562515 
z
" clip-path="url(#p09b261ce7b)" style="stroke: #000000"/>
    <path d="M 70.531989 148.5073 
C 71.237423 148.5073 71.91406 148.227028 72.412877 147.72821 
C 72.911695 147.229393 73.191967 146.552756 73.191967 145.847321 
C 73.191967 145.141887 72.911695 144.46525 72.412877 143.966433 
C 71.91406 143.467615 71.237423 143.187343 70.531989 143.187343 
C 69.826554 143.187343 69.149917 143.467615 68.6511 143.966433 
C 68.152282 144.46525 67.87201 145.141887 67.87201 145.847321 
C 67.87201 146.552756 68.152282 147.229393 68.6511 147.72821 
C 69.149917 148.227028 69.826554 148.5073 70.531989 148.5073 
z
" clip-path="url(#p09b261ce7b)" style="stroke: #000000"/>
    <path d="M 60.60597 138.337019 
C 61.311404 138.337019 61.988041 138.056747 62.486859 137.55793 
C 62.985676 137.059112 63.265948 136.382475 63.265948 135.677041 
C 63.265948 134.971606 62.985676 134.294969 62.486859 133.796152 
C 61.988041 133.297334 61.311404 133.017062 60.60597 133.017062 
C 59.900535 133.017062 59.223899 133.297334 58.725081 133.796152 
C 58.226264 134.294969 57.945991 134.971606 57.945991 135.677041 
C 57.945991 136.382475 58.226264 137.059112 58.725081 137.55793 
C 59.223899 138.056747 59.900535 138.337019 60.60597 138.337019 
z
" clip-path="url(#p09b261ce7b)" style="stroke: #000000"/>
    <path d="M 62.924507 130.633713 
C 63.629942 130.633713 64.306579 130.35344 64.805396 129.854623 
C 65.304214 129.355805 65.584486 128.679169 65.584486 127.973734 
C 65.584486 127.268299 65.304214 126.591663 64.805396 126.092845 
C 64.306579 125.594028 63.629942 125.313755 62.924507 125.313755 
C 62.219073 125.313755 61.542436 125.594028 61.043618 126.092845 
C 60.544801 126.591663 60.264529 127.268299 60.264529 127.973734 
C 60.264529 128.679169 60.544801 129.355805 61.043618 129.854623 
C 61.542436 130.35344 62.219073 130.633713 62.924507 130.633713 
z
" clip-path="url(#p09b261ce7b)" style="stroke: #000000"/>
    <path d="M 55.660049 117.832125 
C 56.221759 117.832125 56.760539 117.608955 57.157728 117.211766 
C 57.554918 116.814576 57.778088 116.275796 57.778088 115.714086 
C 57.778088 115.152375 57.554918 114.613595 57.157728 114.216406 
C 56.760539 113.819217 56.221759 113.596047 55.660049 113.596047 
C 55.098338 113.596047 54.559558 113.819217 54.162369 114.216406 
C 53.765179 114.613595 53.542009 115.152375 53.542009 115.714086 
C 53.542009 116.275796 53.765179 116.814576 54.162369 117.211766 
C 54.559558 117.608955 55.098338 117.832125 55.660049 117.832125 
z
" clip-path="url(#p09b261ce7b)" style="stroke: #000000"/>
    <path d="M 52.081171 109.31649 
C 52.718603 109.31649 53.330014 109.063235 53.780746 108.612503 
C 54.231479 108.16177 54.484733 107.55036 54.484733 106.912928 
C 54.484733 106.275496 54.231479 105.664085 53.780746 105.213353 
C 53.330014 104.76262 52.718603 104.509366 52.081171 104.509366 
C 51.443739 104.509366 50.832329 104.76262 50.381596 105.213353 
C 49.930864 105.664085 49.677609 106.275496 49.677609 106.912928 
C 49.677609 107.55036 49.930864 108.16177 50.381596 108.612503 
C 50.832329 109.063235 51.443739 109.31649 52.081171 109.31649 
z
" clip-path="url(#p09b261ce7b)" style="stroke: #000000"/>
    <path d="M 49.429479 102.271337 
C 50.066911 102.271337 50.678321 102.018083 51.129054 101.56735 
C 51.579786 101.116618 51.833041 100.505207 51.833041 99.867775 
C 51.833041 99.230343 51.579786 98.618933 51.129054 98.1682 
C 50.678321 97.717468 50.066911 97.464213 49.429479 97.464213 
C 48.792047 97.464213 48.180636 97.717468 47.729904 98.1682 
C 47.279171 98.618933 47.025917 99.230343 47.025917 99.867775 
C 47.025917 100.505207 47.279171 101.116618 47.729904 101.56735 
C 48.180636 102.018083 48.792047 102.271337 49.429479 102.271337 
z
" clip-path="url(#p09b261ce7b)" style="stroke: #000000"/>
    <path d="M 47.98028 84.869673 
C 47.98028 84.869673 47.98028 84.869673 47.98028 84.869673 
C 47.98028 84.869673 47.98028 84.869673 47.98028 84.869673 
C 47.98028 84.869673 47.98028 84.869673 47.98028 84.869673 
C 47.98028 84.869673 47.98028 84.869673 47.98028 84.869673 
C 47.98028 84.869673 47.98028 84.869673 47.98028 84.869673 
C 47.98028 84.869673 47.98028 84.869673 47.98028 84.869673 
C 47.98028 84.869673 47.98028 84.869673 47.98028 84.869673 
C 47.98028 84.869673 47.98028 84.869673 47.98028 84.869673 
z
" clip-path="url(#p09b261ce7b)" style="stroke: #000000"/>
    <path d="M 42.56556 73.439618 
C 42.56556 73.439618 42.56556 73.439618 42.56556 73.439618 
C 42.56556 73.439618 42.56556 73.439618 42.56556 73.439618 
C 42.56556 73.439618 42.56556 73.439618 42.56556 73.439618 
C 42.56556 73.439618 42.56556 73.439618 42.56556 73.439618 
C 42.56556 73.439618 42.56556 73.439618 42.56556 73.439618 
C 42.56556 73.439618 42.56556 73.439618 42.56556 73.439618 
C 42.56556 73.439618 42.56556 73.439618 42.56556 73.439618 
C 42.56556 73.439618 42.56556 73.439618 42.56556 73.439618 
z
" clip-path="url(#p09b261ce7b)" style="stroke: #000000"/>
    <path d="M 41.004675 67.760665 
C 41.71011 67.760665 42.386746 67.480393 42.885564 66.981575 
C 43.384382 66.482757 43.664654 65.806121 43.664654 65.100686 
C 43.664654 64.395252 43.384382 63.718615 42.885564 63.219797 
C 42.386746 62.72098 41.71011 62.440708 41.004675 62.440708 
C 40.299241 62.440708 39.622604 62.72098 39.123786 63.219797 
C 38.624969 63.718615 38.344697 64.395252 38.344697 65.100686 
C 38.344697 65.806121 38.624969 66.482757 39.123786 66.981575 
C 39.622604 67.480393 40.299241 67.760665 41.004675 67.760665 
z
" clip-path="url(#p09b261ce7b)" style="stroke: #000000"/>
    <path d="M 66.972563 170.860714 
C 67.677998 170.860714 68.354635 170.580442 68.853452 170.081625 
C 69.35227 169.582807 69.632542 168.90617 69.632542 168.200736 
C 69.632542 167.495301 69.35227 166.818664 68.853452 166.319847 
C 68.354635 165.821029 67.677998 165.540757 66.972563 165.540757 
C 66.267129 165.540757 65.590492 165.821029 65.091674 166.319847 
C 64.592857 166.818664 64.312585 167.495301 64.312585 168.200736 
C 64.312585 168.90617 64.592857 169.582807 65.091674 170.081625 
C 65.590492 170.580442 66.267129 170.860714 66.972563 170.860714 
z
" clip-path="url(#p09b261ce7b)" style="stroke: #000000"/>
    <path d="M 60.194636 167.366956 
C 60.90007 167.366956 61.576707 167.086684 62.075525 166.587867 
C 62.574342 166.089049 62.854614 165.412412 62.854614 164.706978 
C 62.854614 164.001543 62.574342 163.324907 62.075525 162.826089 
C 61.576707 162.327271 60.90007 162.046999 60.194636 162.046999 
C 59.489201 162.046999 58.812565 162.327271 58.313747 162.826089 
C 57.814929 163.324907 57.534657 164.001543 57.534657 164.706978 
C 57.534657 165.412412 57.814929 166.089049 58.313747 166.587867 
C 58.812565 167.086684 59.489201 167.366956 60.194636 167.366956 
z
" clip-path="url(#p09b261ce7b)" style="stroke: #000000"/>
    <path d="M 58.487872 152.390179 
C 59.193306 152.390179 59.869943 152.109907 60.36876 151.611089 
C 60.867578 151.112272 61.14785 150.435635 61.14785 149.730201 
C 61.14785 149.024766 60.867578 148.348129 60.36876 147.849312 
C 59.869943 147.350494 59.193306 147.070222 58.487872 147.070222 
C 57.782437 147.070222 57.1058 147.350494 56.606983 147.849312 
C 56.108165 148.348129 55.827893 149.024766 55.827893 149.730201 
C 55.827893 150.435635 56.108165 151.112272 56.606983 151.611089 
C 57.1058 152.109907 57.782437 152.390179 58.487872 152.390179 
z
" clip-path="url(#p09b261ce7b)" style="stroke: #000000"/>
    <path d="M 52.61287 143.787592 
C 53.318304 143.787592 53.994941 143.507319 54.493759 143.008502 
C 54.992576 142.509684 55.272848 141.833048 55.272848 141.127613 
C 55.272848 140.422178 54.992576 139.745542 54.493759 139.246724 
C 53.994941 138.747907 53.318304 138.467634 52.61287 138.467634 
C 51.907435 138.467634 51.230799 138.747907 50.731981 139.246724 
C 50.233164 139.745542 49.952891 140.422178 49.952891 141.127613 
C 49.952891 141.833048 50.233164 142.509684 50.731981 143.008502 
C 51.230799 143.507319 51.907435 143.787592 52.61287 143.787592 
z
" clip-path="url(#p09b261ce7b)" style="stroke: #000000"/>
    <path d="M 49.206024 134.900976 
C 49.911458 134.900976 50.588095 134.620704 51.086913 134.121886 
C 51.58573 133.623069 51.866002 132.946432 51.866002 132.240997 
C 51.866002 131.535563 51.58573 130.858926 51.086913 130.360108 
C 50.588095 129.861291 49.911458 129.581019 49.206024 129.581019 
C 48.500589 129.581019 47.823952 129.861291 47.325135 130.360108 
C 46.826317 130.858926 46.546045 131.535563 46.546045 132.240997 
C 46.546045 132.946432 46.826317 133.623069 47.325135 134.121886 
C 47.823952 134.620704 48.500589 134.900976 49.206024 134.900976 
z
" clip-path="url(#p09b261ce7b)" style="stroke: #000000"/>
    <path d="M 47.304686 116.630926 
C 47.650019 116.630926 47.981254 116.493724 48.225442 116.249537 
C 48.469629 116.00535 48.606831 115.674114 48.606831 115.328781 
C 48.606831 114.983448 48.469629 114.652213 48.225442 114.408025 
C 47.981254 114.163838 47.650019 114.026636 47.304686 114.026636 
C 46.959353 114.026636 46.628117 114.163838 46.38393 114.408025 
C 46.139743 114.652213 46.00254 114.983448 46.00254 115.328781 
C 46.00254 115.674114 46.139743 116.00535 46.38393 116.249537 
C 46.628117 116.493724 46.959353 116.630926 47.304686 116.630926 
z
" clip-path="url(#p09b261ce7b)" style="stroke: #000000"/>
    <path d="M 40.291359 110.796469 
C 40.884371 110.796469 41.453175 110.560863 41.872498 110.14154 
C 42.291821 109.722217 42.527427 109.153413 42.527427 108.560401 
C 42.527427 107.967389 42.291821 107.398585 41.872498 106.979262 
C 41.453175 106.55994 40.884371 106.324333 40.291359 106.324333 
C 39.698347 106.324333 39.129543 106.55994 38.71022 106.979262 
C 38.290897 107.398585 38.055291 107.967389 38.055291 108.560401 
C 38.055291 109.153413 38.290897 109.722217 38.71022 110.14154 
C 39.129543 110.560863 39.698347 110.796469 40.291359 110.796469 
z
" clip-path="url(#p09b261ce7b)" style="stroke: #000000"/>
    <path d="M 39.356505 105.264977 
C 40.061939 105.264977 40.738576 104.984705 41.237394 104.485887 
C 41.736211 103.98707 42.016483 103.310433 42.016483 102.604999 
C 42.016483 101.899564 41.736211 101.222927 41.237394 100.72411 
C 40.738576 100.225292 40.061939 99.94502 39.356505 99.94502 
C 38.65107 99.94502 37.974434 100.225292 37.475616 100.72411 
C 36.976798 101.222927 36.696526 101.899564 36.696526 102.604999 
C 36.696526 103.310433 36.976798 103.98707 37.475616 104.485887 
C 37.974434 104.984705 38.65107 105.264977 39.356505 105.264977 
z
" clip-path="url(#p09b261ce7b)" style="stroke: #000000"/>
    <path d="M 33.353701 91.954284 
C 34.058915 91.954284 34.73534 91.674099 35.234002 91.175437 
C 35.732664 90.676775 36.012849 90.00035 36.012849 89.295136 
C 36.012849 88.589921 35.732664 87.913496 35.234002 87.414834 
C 34.73534 86.916172 34.058915 86.635988 33.353701 86.635988 
C 32.648486 86.635988 31.972061 86.916172 31.473399 87.414834 
C 30.974737 87.913496 30.694553 88.589921 30.694553 89.295136 
C 30.694553 90.00035 30.974737 90.676775 31.473399 91.175437 
C 31.972061 91.674099 32.648486 91.954284 33.353701 91.954284 
z
" clip-path="url(#p09b261ce7b)" style="stroke: #000000"/>
    <path d="M 35.445345 85.248301 
C 36.150779 85.248301 36.827416 84.968029 37.326234 84.469211 
C 37.825051 83.970394 38.105323 83.293757 38.105323 82.588322 
C 38.105323 81.882888 37.825051 81.206251 37.326234 80.707434 
C 36.827416 80.208616 36.150779 79.928344 35.445345 79.928344 
C 34.73991 79.928344 34.063273 80.208616 33.564456 80.707434 
C 33.065638 81.206251 32.785366 81.882888 32.785366 82.588322 
C 32.785366 83.293757 33.065638 83.970394 33.564456 84.469211 
C 34.063273 84.968029 34.73991 85.248301 35.445345 85.248301 
z
" clip-path="url(#p09b261ce7b)" style="stroke: #000000"/>
    <path d="M 47.943633 164.078462 
C 47.943633 164.078462 47.943633 164.078462 47.943633 164.078462 
C 47.943633 164.078462 47.943633 164.078462 47.943633 164.078462 
C 47.943633 164.078462 47.943633 164.078462 47.943633 164.078462 
C 47.943633 164.078462 47.943633 164.078462 47.943633 164.078462 
C 47.943633 164.078462 47.943633 164.078462 47.943633 164.078462 
C 47.943633 164.078462 47.943633 164.078462 47.943633 164.078462 
C 47.943633 164.078462 47.943633 164.078462 47.943633 164.078462 
C 47.943633 164.078462 47.943633 164.078462 47.943633 164.078462 
z
" clip-path="url(#p09b261ce7b)" style="stroke: #000000"/>
    <path d="M 46.670321 159.924198 
C 47.375535 159.924198 48.05196 159.644013 48.550622 159.145352 
C 49.049284 158.64669 49.329469 157.970264 49.329469 157.26505 
C 49.329469 156.559836 49.049284 155.88341 48.550622 155.384749 
C 48.05196 154.886087 47.375535 154.605902 46.670321 154.605902 
C 45.965106 154.605902 45.288681 154.886087 44.790019 155.384749 
C 44.291357 155.88341 44.011173 156.559836 44.011173 157.26505 
C 44.011173 157.970264 44.291357 158.64669 44.790019 159.145352 
C 45.288681 159.644013 45.965106 159.924198 46.670321 159.924198 
z
" clip-path="url(#p09b261ce7b)" style="stroke: #000000"/>
    <path d="M 42.738166 142.546607 
C 42.738166 142.546607 42.738166 142.546607 42.738166 142.546607 
C 42.738166 142.546607 42.738166 142.546607 42.738166 142.546607 
C 42.738166 142.546607 42.738166 142.546607 42.738166 142.546607 
C 42.738166 142.546607 42.738166 142.546607 42.738166 142.546607 
C 42.738166 142.546607 42.738166 142.546607 42.738166 142.546607 
C 42.738166 142.546607 42.738166 142.546607 42.738166 142.546607 
C 42.738166 142.546607 42.738166 142.546607 42.738166 142.546607 
C 42.738166 142.546607 42.738166 142.546607 42.738166 142.546607 
z
" clip-path="url(#p09b261ce7b)" style="stroke: #000000"/>
    <path d="M 38.175964 134.089221 
C 38.768977 134.089221 39.33778 133.853614 39.757103 133.434291 
C 40.176426 133.014969 40.412032 132.446165 40.412032 131.853153 
C 40.412032 131.26014 40.176426 130.691337 39.757103 130.272014 
C 39.33778 129.852691 38.768977 129.617085 38.175964 129.617085 
C 37.582952 129.617085 37.014149 129.852691 36.594826 130.272014 
C 36.175503 130.691337 35.939897 131.26014 35.939897 131.853153 
C 35.939897 132.446165 36.175503 133.014969 36.594826 133.434291 
C 37.014149 133.853614 37.582952 134.089221 38.175964 134.089221 
z
" clip-path="url(#p09b261ce7b)" style="stroke: #000000"/>
    <path d="M 34.944921 127.032876 
C 35.650356 127.032876 36.326992 126.752604 36.82581 126.253786 
C 37.324628 125.754969 37.6049 125.078332 37.6049 124.372898 
C 37.6049 123.667463 37.324628 122.990826 36.82581 122.492009 
C 36.326992 121.993191 35.650356 121.712919 34.944921 121.712919 
C 34.239487 121.712919 33.56285 121.993191 33.064032 122.492009 
C 32.565215 122.990826 32.284943 123.667463 32.284943 124.372898 
C 32.284943 125.078332 32.565215 125.754969 33.064032 126.253786 
C 33.56285 126.752604 34.239487 127.032876 34.944921 127.032876 
z
" clip-path="url(#p09b261ce7b)" style="stroke: #000000"/>
    <path d="M 34.359351 111.562717 
C 34.359351 111.562717 34.359351 111.562717 34.359351 111.562717 
C 34.359351 111.562717 34.359351 111.562717 34.359351 111.562717 
C 34.359351 111.562717 34.359351 111.562717 34.359351 111.562717 
C 34.359351 111.562717 34.359351 111.562717 34.359351 111.562717 
C 34.359351 111.562717 34.359351 111.562717 34.359351 111.562717 
C 34.359351 111.562717 34.359351 111.562717 34.359351 111.562717 
C 34.359351 111.562717 34.359351 111.562717 34.359351 111.562717 
C 34.359351 111.562717 34.359351 111.562717 34.359351 111.562717 
z
" clip-path="url(#p09b261ce7b)" style="stroke: #000000"/>
    <path d="M 44.359923 176.823017 
C 44.92076 176.823017 45.458701 176.600194 45.855272 176.203623 
C 46.251843 175.807052 46.474666 175.269111 46.474666 174.708274 
C 46.474666 174.147438 46.251843 173.609497 45.855272 173.212925 
C 45.458701 172.816354 44.92076 172.593532 44.359923 172.593532 
C 43.799087 172.593532 43.261146 172.816354 42.864574 173.212925 
C 42.468003 173.609497 42.245181 174.147438 42.245181 174.708274 
C 42.245181 175.269111 42.468003 175.807052 42.864574 176.203623 
C 43.261146 176.600194 43.799087 176.823017 44.359923 176.823017 
z
" clip-path="url(#p09b261ce7b)" style="stroke: #000000"/>
    <path d="M 41.646471 168.985049 
C 41.646471 168.985049 41.646471 168.985049 41.646471 168.985049 
C 41.646471 168.985049 41.646471 168.985049 41.646471 168.985049 
C 41.646471 168.985049 41.646471 168.985049 41.646471 168.985049 
C 41.646471 168.985049 41.646471 168.985049 41.646471 168.985049 
C 41.646471 168.985049 41.646471 168.985049 41.646471 168.985049 
C 41.646471 168.985049 41.646471 168.985049 41.646471 168.985049 
C 41.646471 168.985049 41.646471 168.985049 41.646471 168.985049 
C 41.646471 168.985049 41.646471 168.985049 41.646471 168.985049 
z
" clip-path="url(#p09b261ce7b)" style="stroke: #000000"/>
    <path d="M 34.534 156.55206 
C 34.534 156.55206 34.534 156.55206 34.534 156.55206 
C 34.534 156.55206 34.534 156.55206 34.534 156.55206 
C 34.534 156.55206 34.534 156.55206 34.534 156.55206 
C 34.534 156.55206 34.534 156.55206 34.534 156.55206 
C 34.534 156.55206 34.534 156.55206 34.534 156.55206 
C 34.534 156.55206 34.534 156.55206 34.534 156.55206 
C 34.534 156.55206 34.534 156.55206 34.534 156.55206 
C 34.534 156.55206 34.534 156.55206 34.534 156.55206 
z
" clip-path="url(#p09b261ce7b)" style="stroke: #000000"/>
    <path d="M 33.380609 149.823985 
C 34.085823 149.823985 34.762248 149.5438 35.26091 149.045138 
C 35.759572 148.546477 36.039757 147.870051 36.039757 147.164837 
C 36.039757 146.459622 35.759572 145.783197 35.26091 145.284535 
C 34.762248 144.785873 34.085823 144.505689 33.380609 144.505689 
C 32.675394 144.505689 31.998969 144.785873 31.500307 145.284535 
C 31.001645 145.783197 30.721461 146.459622 30.721461 147.164837 
C 30.721461 147.870051 31.001645 148.546477 31.500307 149.045138 
C 31.998969 149.5438 32.675394 149.823985 33.380609 149.823985 
z
" clip-path="url(#p09b261ce7b)" style="stroke: #000000"/>
    <path d="M 28.697044 138.578581 
C 29.402479 138.578581 30.079116 138.298309 30.577933 137.799492 
C 31.076751 137.300674 31.357023 136.624037 31.357023 135.918603 
C 31.357023 135.213168 31.076751 134.536531 30.577933 134.037714 
C 30.079116 133.538896 29.402479 133.258624 28.697044 133.258624 
C 27.99161 133.258624 27.314973 133.538896 26.816155 134.037714 
C 26.317338 134.536531 26.037066 135.213168 26.037066 135.918603 
C 26.037066 136.624037 26.317338 137.300674 26.816155 137.799492 
C 27.314973 138.298309 27.99161 138.578581 28.697044 138.578581 
z
" clip-path="url(#p09b261ce7b)" style="stroke: #000000"/>
   </g>
   <g id="matplotlib.axis_1">
    <g id="xtick_1">
     <g id="line2d_1">
      <defs>
       <path id="mfdd6adc2a1" d="M 0 0 
L 0 3.5 
" style="stroke: #000000; stroke-width: 0.8"/>
      </defs>
      <g>
       <use xlink:href="#mfdd6adc2a1" x="18" y="189" style="stroke: #000000; stroke-width: 0.8"/>
      </g>
     </g>
     <g id="text_1">
      <!-- 10 -->
      <g transform="translate(7.447656 203.598437)scale(0.1 -0.1)">
       <defs>
        <path id="DejaVuSans-2212" d="M 678 2272 
L 4684 2272 
L 4684 1741 
L 678 1741 
L 678 2272 
z
" transform="scale(0.015625)"/>
        <path id="DejaVuSans-31" d="M 794 531 
L 1825 531 
L 1825 4091 
L 703 3866 
L 703 4441 
L 1819 4666 
L 2450 4666 
L 2450 531 
L 3481 531 
L 3481 0 
L 794 0 
L 794 531 
z
" transform="scale(0.015625)"/>
        <path id="DejaVuSans-30" d="M 2034 4250 
Q 1547 4250 1301 3770 
Q 1056 3291 1056 2328 
Q 1056 1369 1301 889 
Q 1547 409 2034 409 
Q 2525 409 2770 889 
Q 3016 1369 3016 2328 
Q 3016 3291 2770 3770 
Q 2525 4250 2034 4250 
z
M 2034 4750 
Q 2819 4750 3233 4129 
Q 3647 3509 3647 2328 
Q 3647 1150 3233 529 
Q 2819 -91 2034 -91 
Q 1250 -91 836 529 
Q 422 1150 422 2328 
Q 422 3509 836 4129 
Q 1250 4750 2034 4750 
z
" transform="scale(0.015625)"/>
       </defs>
       <use xlink:href="#DejaVuSans-2212"/>
       <use xlink:href="#DejaVuSans-31" x="83.789062"/>
       <use xlink:href="#DejaVuSans-30" x="147.412109"/>
      </g>
     </g>
    </g>
    <g id="xtick_2">
     <g id="line2d_2">
      <g>
       <use xlink:href="#mfdd6adc2a1" x="73.8" y="189" style="stroke: #000000; stroke-width: 0.8"/>
      </g>
     </g>
     <g id="text_2">
      <!-- 0 -->
      <g transform="translate(70.61875 203.598437)scale(0.1 -0.1)">
       <use xlink:href="#DejaVuSans-30"/>
      </g>
     </g>
    </g>
    <g id="xtick_3">
     <g id="line2d_3">
      <g>
       <use xlink:href="#mfdd6adc2a1" x="129.6" y="189" style="stroke: #000000; stroke-width: 0.8"/>
      </g>
     </g>
     <g id="text_3">
      <!-- 10 -->
      <g transform="translate(123.2375 203.598437)scale(0.1 -0.1)">
       <use xlink:href="#DejaVuSans-31"/>
       <use xlink:href="#DejaVuSans-30" x="63.623047"/>
      </g>
     </g>
    </g>
   </g>
   <g id="matplotlib.axis_2">
    <g id="ytick_1">
     <g id="line2d_4">
      <defs>
       <path id="m03599751da" d="M 0 0 
L -3.5 0 
" style="stroke: #000000; stroke-width: 0.8"/>
      </defs>
      <g>
       <use xlink:href="#m03599751da" x="18" y="189" style="stroke: #000000; stroke-width: 0.8"/>
      </g>
     </g>
     <g id="text_4">
      <!-- 15 -->
      <g transform="translate(-10.104688 192.799219)scale(0.1 -0.1)">
       <defs>
        <path id="DejaVuSans-35" d="M 691 4666 
L 3169 4666 
L 3169 4134 
L 1269 4134 
L 1269 2991 
Q 1406 3038 1543 3061 
Q 1681 3084 1819 3084 
Q 2600 3084 3056 2656 
Q 3513 2228 3513 1497 
Q 3513 744 3044 326 
Q 2575 -91 1722 -91 
Q 1428 -91 1123 -41 
Q 819 9 494 109 
L 494 744 
Q 775 591 1075 516 
Q 1375 441 1709 441 
Q 2250 441 2565 725 
Q 2881 1009 2881 1497 
Q 2881 1984 2565 2268 
Q 2250 2553 1709 2553 
Q 1456 2553 1204 2497 
Q 953 2441 691 2322 
L 691 4666 
z
" transform="scale(0.015625)"/>
       </defs>
       <use xlink:href="#DejaVuSans-2212"/>
       <use xlink:href="#DejaVuSans-31" x="83.789062"/>
       <use xlink:href="#DejaVuSans-35" x="147.412109"/>
      </g>
     </g>
    </g>
    <g id="ytick_2">
     <g id="line2d_5">
      <g>
       <use xlink:href="#m03599751da" x="18" y="161.82" style="stroke: #000000; stroke-width: 0.8"/>
      </g>
     </g>
     <g id="text_5">
      <!-- 10 -->
      <g transform="translate(-10.104688 165.619219)scale(0.1 -0.1)">
       <use xlink:href="#DejaVuSans-2212"/>
       <use xlink:href="#DejaVuSans-31" x="83.789062"/>
       <use xlink:href="#DejaVuSans-30" x="147.412109"/>
      </g>
     </g>
    </g>
    <g id="ytick_3">
     <g id="line2d_6">
      <g>
       <use xlink:href="#m03599751da" x="18" y="134.64" style="stroke: #000000; stroke-width: 0.8"/>
      </g>
     </g>
     <g id="text_6">
      <!-- 5 -->
      <g transform="translate(-3.742188 138.439219)scale(0.1 -0.1)">
       <use xlink:href="#DejaVuSans-2212"/>
       <use xlink:href="#DejaVuSans-35" x="83.789062"/>
      </g>
     </g>
    </g>
    <g id="ytick_4">
     <g id="line2d_7">
      <g>
       <use xlink:href="#m03599751da" x="18" y="107.46" style="stroke: #000000; stroke-width: 0.8"/>
      </g>
     </g>
     <g id="text_7">
      <!-- 0 -->
      <g transform="translate(4.6375 111.259219)scale(0.1 -0.1)">
       <use xlink:href="#DejaVuSans-30"/>
      </g>
     </g>
    </g>
    <g id="ytick_5">
     <g id="line2d_8">
      <g>
       <use xlink:href="#m03599751da" x="18" y="80.28" style="stroke: #000000; stroke-width: 0.8"/>
      </g>
     </g>
     <g id="text_8">
      <!-- 5 -->
      <g transform="translate(4.6375 84.079219)scale(0.1 -0.1)">
       <use xlink:href="#DejaVuSans-35"/>
      </g>
     </g>
    </g>
    <g id="ytick_6">
     <g id="line2d_9">
      <g>
       <use xlink:href="#m03599751da" x="18" y="53.1" style="stroke: #000000; stroke-width: 0.8"/>
      </g>
     </g>
     <g id="text_9">
      <!-- 10 -->
      <g transform="translate(-1.725 56.899219)scale(0.1 -0.1)">
       <use xlink:href="#DejaVuSans-31"/>
       <use xlink:href="#DejaVuSans-30" x="63.623047"/>
      </g>
     </g>
    </g>
    <g id="ytick_7">
     <g id="line2d_10">
      <g>
       <use xlink:href="#m03599751da" x="18" y="25.92" style="stroke: #000000; stroke-width: 0.8"/>
      </g>
     </g>
     <g id="text_10">
      <!-- 15 -->
      <g transform="translate(-1.725 29.719219)scale(0.1 -0.1)">
       <use xlink:href="#DejaVuSans-31"/>
       <use xlink:href="#DejaVuSans-35" x="63.623047"/>
      </g>
     </g>
    </g>
   </g>
   <g id="patch_3">
    <path d="M 18 189 
L 18 25.92 
" style="fill: none; stroke: #000000; stroke-width: 0.8; stroke-linejoin: miter; stroke-linecap: square"/>
   </g>
   <g id="patch_4">
    <path d="M 129.6 189 
L 129.6 25.92 
" style="fill: none; stroke: #000000; stroke-width: 0.8; stroke-linejoin: miter; stroke-linecap: square"/>
   </g>
   <g id="patch_5">
    <path d="M 18 189 
L 129.6 189 
" style="fill: none; stroke: #000000; stroke-width: 0.8; stroke-linejoin: miter; stroke-linecap: square"/>
   </g>
   <g id="patch_6">
    <path d="M 18 25.92 
L 129.6 25.92 
" style="fill: none; stroke: #000000; stroke-width: 0.8; stroke-linejoin: miter; stroke-linecap: square"/>
   </g>
  </g>
 </g>
 <defs>
  <clipPath id="p09b261ce7b">
   <rect x="18" y="25.92" width="111.6" height="163.08"/>
  </clipPath>
 </defs>
</svg>
