<?xml version="1.0" encoding="utf-8" standalone="no"?>
<!DOCTYPE svg PUBLIC "-//W3C//DTD SVG 1.1//EN"
  "http://www.w3.org/Graphics/SVG/1.1/DTD/svg11.dtd">
<svg xmlns:xlink="http://www.w3.org/1999/xlink" width="144pt" height="216pt" viewBox="0 0 144 216" xmlns="http://www.w3.org/2000/svg" version="1.1">
 <metadata>
  <rdf:RDF xmlns:dc="http://purl.org/dc/elements/1.1/" xmlns:cc="http://creativecommons.org/ns#" xmlns:rdf="http://www.w3.org/1999/02/22-rdf-syntax-ns#">
   <cc:Work>
    <dc:type rdf:resource="http://purl.org/dc/dcmitype/StillImage"/>
    <dc:date>2022-06-28T09:18:20.790395</dc:date>
    <dc:format>image/svg+xml</dc:format>
    <dc:creator>
     <cc:Agent>
      <dc:title>Matplotlib v3.5.1, https://matplotlib.org/</dc:title>
     </cc:Agent>
    </dc:creator>
   </cc:Work>
  </rdf:RDF>
 </metadata>
 <defs>
  <style type="text/css">*{stroke-linejoin: round; stroke-linecap: butt}</style>
 </defs>
 <g id="figure_1">
  <g id="patch_1">
   <path d="M 0 216 
L 144 216 
L 144 0 
L 0 0 
L 0 216 
z
" style="fill: none"/>
  </g>
  <g id="axes_1">
   <g id="patch_2">
    <path d="M 18 189 
L 129.6 189 
L 129.6 25.92 
L 18 25.92 
z
" style="fill: #ffffff"/>
   </g>
   <g id="PathCollection_1">
    <defs>
     <path id="mb3f6bf171f" d="M 0 2.738613 
C 0.726289 2.738613 1.422928 2.450055 1.936492 1.936492 
C 2.450055 1.422928 2.738613 0.726289 2.738613 0 
C 2.738613 -0.726289 2.450055 -1.422928 1.936492 -1.936492 
C 1.422928 -2.450055 0.726289 -2.738613 0 -2.738613 
C -0.726289 -2.738613 -1.422928 -2.450055 -1.936492 -1.936492 
C -2.450055 -1.422928 -2.738613 -0.726289 -2.738613 0 
C -2.738613 0.726289 -2.450055 1.422928 -1.936492 1.936492 
C -1.422928 2.450055 -0.726289 2.738613 0 2.738613 
z
" style="stroke: #ff0000; stroke-width: 1.75"/>
    </defs>
    <g clip-path="url(#p6daf9aef82)">
     <use xlink:href="#mb3f6bf171f" x="80.775" y="83.92143" style="fill: #ff0000; stroke: #ff0000; stroke-width: 1.75"/>
     <use xlink:href="#mb3f6bf171f" x="59.85" y="95.690715" style="fill: #ff0000; stroke: #ff0000; stroke-width: 1.75"/>
     <use xlink:href="#mb3f6bf171f" x="66.825" y="107.46" style="fill: #ff0000; stroke: #ff0000; stroke-width: 1.75"/>
     <use xlink:href="#mb3f6bf171f" x="80.775" y="107.46" style="fill: #ff0000; stroke: #ff0000; stroke-width: 1.75"/>
     <use xlink:href="#mb3f6bf171f" x="94.725" y="107.46" style="fill: #ff0000; stroke: #ff0000; stroke-width: 1.75"/>
     <use xlink:href="#mb3f6bf171f" x="59.85" y="119.229285" style="fill: #ff0000; stroke: #ff0000; stroke-width: 1.75"/>
     <use xlink:href="#mb3f6bf171f" x="80.775" y="130.99857" style="fill: #ff0000; stroke: #ff0000; stroke-width: 1.75"/>
    </g>
   </g>
   <g id="PathCollection_2">
    <defs>
     <path id="C0_0_9ac9ec8e77" d="M 0 2.738613 
C 0.726289 2.738613 1.422928 2.450055 1.936492 1.936492 
C 2.450055 1.422928 2.738613 0.726289 2.738613 -0 
C 2.738613 -0.726289 2.450055 -1.422928 1.936492 -1.936492 
C 1.422928 -2.450055 0.726289 -2.738613 0 -2.738613 
C -0.726289 -2.738613 -1.422928 -2.450055 -1.936492 -1.936492 
C -2.450055 -1.422928 -2.738613 -0.726289 -2.738613 0 
C -2.738613 0.726289 -2.450055 1.422928 -1.936492 1.936492 
C -1.422928 2.450055 -0.726289 2.738613 0 2.738613 
z
"/>
    </defs>
    <g clip-path="url(#p6daf9aef82)">
     <use xlink:href="#C0_0_9ac9ec8e77" x="66.825" y="83.92143" style="fill: none; stroke: #ff0000; stroke-width: 1.75"/>
    </g>
    <g clip-path="url(#p6daf9aef82)">
     <use xlink:href="#C0_0_9ac9ec8e77" x="73.8" y="95.690715" style="fill: none; stroke: #ff0000; stroke-width: 1.75"/>
    </g>
    <g clip-path="url(#p6daf9aef82)">
     <use xlink:href="#C0_0_9ac9ec8e77" x="87.75" y="95.690715" style="fill: none; stroke: #ff0000; stroke-width: 1.75"/>
    </g>
    <g clip-path="url(#p6daf9aef82)">
     <use xlink:href="#C0_0_9ac9ec8e77" x="52.875" y="107.46" style="fill: none; stroke: #ff0000; stroke-width: 1.75"/>
    </g>
    <g clip-path="url(#p6daf9aef82)">
     <use xlink:href="#C0_0_9ac9ec8e77" x="73.8" y="119.229285" style="fill: none; stroke: #ff0000; stroke-width: 1.75"/>
    </g>
    <g clip-path="url(#p6daf9aef82)">
     <use xlink:href="#C0_0_9ac9ec8e77" x="87.75" y="119.229285" style="fill: none; stroke: #ff0000; stroke-width: 1.75"/>
    </g>
    <g clip-path="url(#p6daf9aef82)">
     <use xlink:href="#C0_0_9ac9ec8e77" x="66.825" y="130.99857" style="fill: none; stroke: #ff0000; stroke-width: 1.75"/>
    </g>
   </g>
   <g id="PathCollection_3">
    <path d="M 121.947298 140.056915 
C 122.313234 140.056915 122.664232 139.911527 122.922988 139.652771 
C 123.181745 139.394015 123.327133 139.043017 123.327133 138.677081 
C 123.327133 138.311144 123.181745 137.960146 122.922988 137.70139 
C 122.664232 137.442634 122.313234 137.297246 121.947298 137.297246 
C 121.581362 137.297246 121.230364 137.442634 120.971608 137.70139 
C 120.712852 137.960146 120.567464 138.311144 120.567464 138.677081 
C 120.567464 139.043017 120.712852 139.394015 120.971608 139.652771 
C 121.230364 139.911527 121.581362 140.056915 121.947298 140.056915 
z
" clip-path="url(#p6daf9aef82)" style="stroke: #000000"/>
    <path d="M 118.723259 131.729542 
C 119.222543 131.729542 119.701444 131.531174 120.054492 131.178127 
C 120.407539 130.82508 120.605906 130.346178 120.605906 129.846895 
C 120.605906 129.347611 120.407539 128.868709 120.054492 128.515662 
C 119.701444 128.162615 119.222543 127.964247 118.723259 127.964247 
C 118.223975 127.964247 117.745073 128.162615 117.392026 128.515662 
C 117.038979 128.868709 116.840611 129.347611 116.840611 129.846895 
C 116.840611 130.346178 117.038979 130.82508 117.392026 131.178127 
C 117.745073 131.531174 118.223975 131.729542 118.723259 131.729542 
z
" clip-path="url(#p6daf9aef82)" style="stroke: #000000"/>
    <path d="M 115.84993 122.372681 
C 116.443312 122.372681 117.012471 122.136928 117.432056 121.717343 
C 117.85164 121.297758 118.087394 120.728599 118.087394 120.135217 
C 118.087394 119.541834 117.85164 118.972676 117.432056 118.553091 
C 117.012471 118.133506 116.443312 117.897753 115.84993 117.897753 
C 115.256547 117.897753 114.687388 118.133506 114.267803 118.553091 
C 113.848219 118.972676 113.612465 119.541834 113.612465 120.135217 
C 113.612465 120.728599 113.848219 121.297758 114.267803 121.717343 
C 114.687388 122.136928 115.256547 122.372681 115.84993 122.372681 
z
" clip-path="url(#p6daf9aef82)" style="stroke: #000000"/>
    <path d="M 107.952073 102.367621 
C 108.545456 102.367621 109.114615 102.131868 109.5342 101.712283 
C 109.953784 101.292698 110.189538 100.723539 110.189538 100.130157 
C 110.189538 99.536774 109.953784 98.967615 109.5342 98.548031 
C 109.114615 98.128446 108.545456 97.892693 107.952073 97.892693 
C 107.358691 97.892693 106.789532 98.128446 106.369947 98.548031 
C 105.950363 98.967615 105.714609 99.536774 105.714609 100.130157 
C 105.714609 100.723539 105.950363 101.292698 106.369947 101.712283 
C 106.789532 102.131868 107.358691 102.367621 107.952073 102.367621 
z
" clip-path="url(#p6daf9aef82)" style="stroke: #000000"/>
    <path d="M 97.25114 67.993327 
C 97.844152 67.993327 98.412956 67.75772 98.832279 67.338398 
C 99.251602 66.919075 99.487208 66.350271 99.487208 65.757259 
C 99.487208 65.164247 99.251602 64.595443 98.832279 64.17612 
C 98.412956 63.756797 97.844152 63.521191 97.25114 63.521191 
C 96.658128 63.521191 96.089324 63.756797 95.670001 64.17612 
C 95.250678 64.595443 95.015072 65.164247 95.015072 65.757259 
C 95.015072 66.350271 95.250678 66.919075 95.670001 67.338398 
C 96.089324 67.75772 96.658128 67.993327 97.25114 67.993327 
z
" clip-path="url(#p6daf9aef82)" style="stroke: #000000"/>
    <path d="M 112.495478 148.477493 
C 113.08849 148.477493 113.657293 148.241887 114.076616 147.822564 
C 114.495939 147.403241 114.731546 146.834437 114.731546 146.241425 
C 114.731546 145.648413 114.495939 145.079609 114.076616 144.660286 
C 113.657293 144.240963 113.08849 144.005357 112.495478 144.005357 
C 111.902465 144.005357 111.333662 144.240963 110.914339 144.660286 
C 110.495016 145.079609 110.25941 145.648413 110.25941 146.241425 
C 110.25941 146.834437 110.495016 147.403241 110.914339 147.822564 
C 111.333662 148.241887 111.902465 148.477493 112.495478 148.477493 
z
" clip-path="url(#p6daf9aef82)" style="stroke: #000000"/>
    <path d="M 109.184666 136.774404 
C 109.777678 136.774404 110.346482 136.538798 110.765805 136.119475 
C 111.185128 135.700152 111.420734 135.131348 111.420734 134.538336 
C 111.420734 133.945324 111.185128 133.37652 110.765805 132.957197 
C 110.346482 132.537874 109.777678 132.302268 109.184666 132.302268 
C 108.591654 132.302268 108.02285 132.537874 107.603527 132.957197 
C 107.184204 133.37652 106.948598 133.945324 106.948598 134.538336 
C 106.948598 135.131348 107.184204 135.700152 107.603527 136.119475 
C 108.02285 136.538798 108.591654 136.774404 109.184666 136.774404 
z
" clip-path="url(#p6daf9aef82)" style="stroke: #000000"/>
    <path d="M 102.090386 125.826352 
C 102.683769 125.826352 103.252928 125.590599 103.672512 125.171014 
C 104.092097 124.751429 104.32785 124.18227 104.32785 123.588888 
C 104.32785 122.995505 104.092097 122.426346 103.672512 122.006762 
C 103.252928 121.587177 102.683769 121.351424 102.090386 121.351424 
C 101.497004 121.351424 100.927845 121.587177 100.50826 122.006762 
C 100.088675 122.426346 99.852922 122.995505 99.852922 123.588888 
C 99.852922 124.18227 100.088675 124.751429 100.50826 125.171014 
C 100.927845 125.590599 101.497004 125.826352 102.090386 125.826352 
z
" clip-path="url(#p6daf9aef82)" style="stroke: #000000"/>
    <path d="M 103.722771 115.023187 
C 104.316154 115.023187 104.885313 114.787433 105.304897 114.367848 
C 105.724482 113.948264 105.960236 113.379105 105.960236 112.785722 
C 105.960236 112.19234 105.724482 111.623181 105.304897 111.203596 
C 104.885313 110.784012 104.316154 110.548258 103.722771 110.548258 
C 103.129389 110.548258 102.56023 110.784012 102.140645 111.203596 
C 101.72106 111.623181 101.485307 112.19234 101.485307 112.785722 
C 101.485307 113.379105 101.72106 113.948264 102.140645 114.367848 
C 102.56023 114.787433 103.129389 115.023187 103.722771 115.023187 
z
" clip-path="url(#p6daf9aef82)" style="stroke: #000000"/>
    <path d="M 99.527136 104.351728 
C 100.120519 104.351728 100.689678 104.115975 101.109262 103.69639 
C 101.528847 103.276805 101.7646 102.707646 101.7646 102.114264 
C 101.7646 101.520881 101.528847 100.951722 101.109262 100.532138 
C 100.689678 100.112553 100.120519 99.876799 99.527136 99.876799 
C 98.933754 99.876799 98.364595 100.112553 97.94501 100.532138 
C 97.525425 100.951722 97.289672 101.520881 97.289672 102.114264 
C 97.289672 102.707646 97.525425 103.276805 97.94501 103.69639 
C 98.364595 104.115975 98.933754 104.351728 99.527136 104.351728 
z
" clip-path="url(#p6daf9aef82)" style="stroke: #000000"/>
    <path d="M 96.292599 92.515733 
C 96.885611 92.515733 97.454415 92.280127 97.873738 91.860804 
C 98.293061 91.441481 98.528667 90.872677 98.528667 90.279665 
C 98.528667 89.686653 98.293061 89.117849 97.873738 88.698526 
C 97.454415 88.279203 96.885611 88.043597 96.292599 88.043597 
C 95.699587 88.043597 95.130783 88.279203 94.71146 88.698526 
C 94.292137 89.117849 94.056531 89.686653 94.056531 90.279665 
C 94.056531 90.872677 94.292137 91.441481 94.71146 91.860804 
C 95.130783 92.280127 95.699587 92.515733 96.292599 92.515733 
z
" clip-path="url(#p6daf9aef82)" style="stroke: #000000"/>
    <path d="M 94.431541 86.073259 
C 95.024554 86.073259 95.593357 85.837653 96.01268 85.41833 
C 96.432003 84.999007 96.667609 84.430204 96.667609 83.837192 
C 96.667609 83.244179 96.432003 82.675376 96.01268 82.256053 
C 95.593357 81.83673 95.024554 81.601124 94.431541 81.601124 
C 93.838529 81.601124 93.269726 81.83673 92.850403 82.256053 
C 92.43108 82.675376 92.195473 83.244179 92.195473 83.837192 
C 92.195473 84.430204 92.43108 84.999007 92.850403 85.41833 
C 93.269726 85.837653 93.838529 86.073259 94.431541 86.073259 
z
" clip-path="url(#p6daf9aef82)" style="stroke: #000000"/>
    <path d="M 89.337784 75.845814 
C 89.930796 75.845814 90.4996 75.610208 90.918923 75.190885 
C 91.338246 74.771562 91.573852 74.202758 91.573852 73.609746 
C 91.573852 73.016734 91.338246 72.44793 90.918923 72.028607 
C 90.4996 71.609284 89.930796 71.373678 89.337784 71.373678 
C 88.744772 71.373678 88.175968 71.609284 87.756645 72.028607 
C 87.337322 72.44793 87.101716 73.016734 87.101716 73.609746 
C 87.101716 74.202758 87.337322 74.771562 87.756645 75.190885 
C 88.175968 75.610208 88.744772 75.845814 89.337784 75.845814 
z
" clip-path="url(#p6daf9aef82)" style="stroke: #000000"/>
    <path d="M 82.997033 63.809543 
C 83.578599 63.809543 84.136424 63.578485 84.547653 63.167255 
C 84.958883 62.756026 85.189941 62.198201 85.189941 61.616635 
C 85.189941 61.035069 84.958883 60.477244 84.547653 60.066015 
C 84.136424 59.654786 83.578599 59.423727 82.997033 59.423727 
C 82.415467 59.423727 81.857642 59.654786 81.446413 60.066015 
C 81.035184 60.477244 80.804125 61.035069 80.804125 61.616635 
C 80.804125 62.198201 81.035184 62.756026 81.446413 63.167255 
C 81.857642 63.578485 82.415467 63.809543 82.997033 63.809543 
z
" clip-path="url(#p6daf9aef82)" style="stroke: #000000"/>
    <path d="M 85.433059 55.25595 
C 85.8932 55.25595 86.334556 55.073134 86.659925 54.747766 
C 86.985294 54.422397 87.168109 53.981041 87.168109 53.5209 
C 87.168109 53.060759 86.985294 52.619403 86.659925 52.294034 
C 86.334556 51.968666 85.8932 51.78585 85.433059 51.78585 
C 84.972919 51.78585 84.531562 51.968666 84.206194 52.294034 
C 83.880825 52.619403 83.698009 53.060759 83.698009 53.5209 
C 83.698009 53.981041 83.880825 54.422397 84.206194 54.747766 
C 84.531562 55.073134 84.972919 55.25595 85.433059 55.25595 
z
" clip-path="url(#p6daf9aef82)" style="stroke: #000000"/>
    <path d="M 110.129156 159.166032 
C 110.406001 159.166032 110.671544 159.056041 110.867304 158.860281 
C 111.063063 158.664522 111.173054 158.398979 111.173054 158.122133 
C 111.173054 157.845288 111.063063 157.579745 110.867304 157.383986 
C 110.671544 157.188226 110.406001 157.078235 110.129156 157.078235 
C 109.85231 157.078235 109.586767 157.188226 109.391008 157.383986 
C 109.195249 157.579745 109.085257 157.845288 109.085257 158.122133 
C 109.085257 158.398979 109.195249 158.664522 109.391008 158.860281 
C 109.586767 159.056041 109.85231 159.166032 110.129156 159.166032 
z
" clip-path="url(#p6daf9aef82)" style="stroke: #000000"/>
    <path d="M 93.918982 127.448614 
C 94.511994 127.448614 95.080798 127.213008 95.500121 126.793685 
C 95.919444 126.374362 96.15505 125.805558 96.15505 125.212546 
C 96.15505 124.619534 95.919444 124.05073 95.500121 123.631407 
C 95.080798 123.212084 94.511994 122.976478 93.918982 122.976478 
C 93.32597 122.976478 92.757166 123.212084 92.337843 123.631407 
C 91.918521 124.05073 91.682914 124.619534 91.682914 125.212546 
C 91.682914 125.805558 91.918521 126.374362 92.337843 126.793685 
C 92.757166 127.213008 93.32597 127.448614 93.918982 127.448614 
z
" clip-path="url(#p6daf9aef82)" style="stroke: #000000"/>
    <path d="M 92.004333 116.605334 
C 92.597715 116.605334 93.166874 116.369581 93.586459 115.949996 
C 94.006044 115.530411 94.241797 114.961253 94.241797 114.36787 
C 94.241797 113.774488 94.006044 113.205329 93.586459 112.785744 
C 93.166874 112.366159 92.597715 112.130406 92.004333 112.130406 
C 91.41095 112.130406 90.841791 112.366159 90.422207 112.785744 
C 90.002622 113.205329 89.766869 113.774488 89.766869 114.36787 
C 89.766869 114.961253 90.002622 115.530411 90.422207 115.949996 
C 90.841791 116.369581 91.41095 116.605334 92.004333 116.605334 
z
" clip-path="url(#p6daf9aef82)" style="stroke: #000000"/>
    <path d="M 89.02526 108.896247 
C 89.618642 108.896247 90.187801 108.660493 90.607386 108.240908 
C 91.026971 107.821324 91.262724 107.252165 91.262724 106.658782 
C 91.262724 106.0654 91.026971 105.496241 90.607386 105.076656 
C 90.187801 104.657071 89.618642 104.421318 89.02526 104.421318 
C 88.431877 104.421318 87.862719 104.657071 87.443134 105.076656 
C 87.023549 105.496241 86.787796 106.0654 86.787796 106.658782 
C 86.787796 107.252165 87.023549 107.821324 87.443134 108.240908 
C 87.862719 108.660493 88.431877 108.896247 89.02526 108.896247 
z
" clip-path="url(#p6daf9aef82)" style="stroke: #000000"/>
    <path d="M 84.193357 92.141036 
C 84.729371 92.141036 85.243504 91.928076 85.622523 91.549056 
C 86.001542 91.170037 86.214503 90.655904 86.214503 90.11989 
C 86.214503 89.583875 86.001542 89.069743 85.622523 88.690723 
C 85.243504 88.311704 84.729371 88.098743 84.193357 88.098743 
C 83.657342 88.098743 83.14321 88.311704 82.76419 88.690723 
C 82.385171 89.069743 82.17221 89.583875 82.17221 90.11989 
C 82.17221 90.655904 82.385171 91.170037 82.76419 91.549056 
C 83.14321 91.928076 83.657342 92.141036 84.193357 92.141036 
z
" clip-path="url(#p6daf9aef82)" style="stroke: #000000"/>
    <path d="M 84.127473 88.23144 
C 84.663487 88.23144 85.17762 88.018479 85.556639 87.63946 
C 85.935659 87.260441 86.148619 86.746308 86.148619 86.210293 
C 86.148619 85.674279 85.935659 85.160146 85.556639 84.781127 
C 85.17762 84.402108 84.663487 84.189147 84.127473 84.189147 
C 83.591459 84.189147 83.077326 84.402108 82.698306 84.781127 
C 82.319287 85.160146 82.106326 85.674279 82.106326 86.210293 
C 82.106326 86.746308 82.319287 87.260441 82.698306 87.63946 
C 83.077326 88.018479 83.591459 88.23144 84.127473 88.23144 
z
" clip-path="url(#p6daf9aef82)" style="stroke: #000000"/>
    <path d="M 80.51767 80.16692 
C 81.111053 80.16692 81.680212 79.931167 82.099796 79.511582 
C 82.519381 79.091997 82.755134 78.522838 82.755134 77.929456 
C 82.755134 77.336074 82.519381 76.766915 82.099796 76.34733 
C 81.680212 75.927745 81.111053 75.691992 80.51767 75.691992 
C 79.924288 75.691992 79.355129 75.927745 78.935544 76.34733 
C 78.515959 76.766915 78.280206 77.336074 78.280206 77.929456 
C 78.280206 78.522838 78.515959 79.091997 78.935544 79.511582 
C 79.355129 79.931167 79.924288 80.16692 80.51767 80.16692 
z
" clip-path="url(#p6daf9aef82)" style="stroke: #000000"/>
    <path d="M 92.22125 154.100642 
C 92.770796 154.100642 93.297908 153.882305 93.686496 153.493717 
C 94.075084 153.105129 94.293421 152.578017 94.293421 152.028471 
C 94.293421 151.478925 94.075084 150.951813 93.686496 150.563225 
C 93.297908 150.174638 92.770796 149.956301 92.22125 149.956301 
C 91.671704 149.956301 91.144592 150.174638 90.756004 150.563225 
C 90.367416 150.951813 90.149079 151.478925 90.149079 152.028471 
C 90.149079 152.578017 90.367416 153.105129 90.756004 153.493717 
C 91.144592 153.882305 91.671704 154.100642 92.22125 154.100642 
z
" clip-path="url(#p6daf9aef82)" style="stroke: #000000"/>
    <path d="M 86.862521 141.99696 
C 87.455904 141.99696 88.025063 141.761207 88.444647 141.341622 
C 88.864232 140.922037 89.099985 140.352878 89.099985 139.759496 
C 89.099985 139.166113 88.864232 138.596954 88.444647 138.17737 
C 88.025063 137.757785 87.455904 137.522032 86.862521 137.522032 
C 86.269139 137.522032 85.69998 137.757785 85.280395 138.17737 
C 84.86081 138.596954 84.625057 139.166113 84.625057 139.759496 
C 84.625057 140.352878 84.86081 140.922037 85.280395 141.341622 
C 85.69998 141.761207 86.269139 141.99696 86.862521 141.99696 
z
" clip-path="url(#p6daf9aef82)" style="stroke: #000000"/>
    <path d="M 88.386931 130.727255 
C 88.852527 130.727255 89.299116 130.542271 89.628342 130.213045 
C 89.957569 129.883819 90.142552 129.43723 90.142552 128.971633 
C 90.142552 128.506037 89.957569 128.059448 89.628342 127.730221 
C 89.299116 127.400995 88.852527 127.216012 88.386931 127.216012 
C 87.921334 127.216012 87.474745 127.400995 87.145519 127.730221 
C 86.816292 128.059448 86.631309 128.506037 86.631309 128.971633 
C 86.631309 129.43723 86.816292 129.883819 87.145519 130.213045 
C 87.474745 130.542271 87.921334 130.727255 88.386931 130.727255 
z
" clip-path="url(#p6daf9aef82)" style="stroke: #000000"/>
    <path d="M 82.414929 115.940063 
C 82.950943 115.940063 83.465076 115.727102 83.844096 115.348082 
C 84.223115 114.969063 84.436076 114.45493 84.436076 113.918916 
C 84.436076 113.382902 84.223115 112.868769 83.844096 112.489749 
C 83.465076 112.11073 82.950943 111.897769 82.414929 111.897769 
C 81.878915 111.897769 81.364782 112.11073 80.985763 112.489749 
C 80.606743 112.868769 80.393783 113.382902 80.393783 113.918916 
C 80.393783 114.45493 80.606743 114.969063 80.985763 115.348082 
C 81.364782 115.727102 81.878915 115.940063 82.414929 115.940063 
z
" clip-path="url(#p6daf9aef82)" style="stroke: #000000"/>
    <path d="M 84.167353 110.668785 
C 84.703367 110.668785 85.2175 110.455824 85.596519 110.076804 
C 85.975539 109.697785 86.188499 109.183652 86.188499 108.647638 
C 86.188499 108.111624 85.975539 107.597491 85.596519 107.218472 
C 85.2175 106.839452 84.703367 106.626491 84.167353 106.626491 
C 83.631338 106.626491 83.117206 106.839452 82.738186 107.218472 
C 82.359167 107.597491 82.146206 108.111624 82.146206 108.647638 
C 82.146206 109.183652 82.359167 109.697785 82.738186 110.076804 
C 83.117206 110.455824 83.631338 110.668785 84.167353 110.668785 
z
" clip-path="url(#p6daf9aef82)" style="stroke: #000000"/>
    <path d="M 75.362265 97.320459 
C 75.955648 97.320459 76.524806 97.084706 76.944391 96.665121 
C 77.363976 96.245536 77.599729 95.676377 77.599729 95.082995 
C 77.599729 94.489612 77.363976 93.920453 76.944391 93.500869 
C 76.524806 93.081284 75.955648 92.845531 75.362265 92.845531 
C 74.768883 92.845531 74.199724 93.081284 73.780139 93.500869 
C 73.360554 93.920453 73.124801 94.489612 73.124801 95.082995 
C 73.124801 95.676377 73.360554 96.245536 73.780139 96.665121 
C 74.199724 97.084706 74.768883 97.320459 75.362265 97.320459 
z
" clip-path="url(#p6daf9aef82)" style="stroke: #000000"/>
    <path d="M 69.815831 97.440356 
C 70.351845 97.440356 70.865978 97.227396 71.244997 96.848376 
C 71.624017 96.469357 71.836977 95.955224 71.836977 95.41921 
C 71.836977 94.883196 71.624017 94.369063 71.244997 93.990043 
C 70.865978 93.611024 70.351845 93.398063 69.815831 93.398063 
C 69.279816 93.398063 68.765684 93.611024 68.386664 93.990043 
C 68.007645 94.369063 67.794684 94.883196 67.794684 95.41921 
C 67.794684 95.955224 68.007645 96.469357 68.386664 96.848376 
C 68.765684 97.227396 69.279816 97.440356 69.815831 97.440356 
z
" clip-path="url(#p6daf9aef82)" style="stroke: #000000"/>
    <path d="M 66.49815 80.389264 
C 67.091532 80.389264 67.660691 80.153511 68.080276 79.733926 
C 68.499861 79.314341 68.735614 78.745182 68.735614 78.1518 
C 68.735614 77.558417 68.499861 76.989258 68.080276 76.569674 
C 67.660691 76.150089 67.091532 75.914335 66.49815 75.914335 
C 65.904767 75.914335 65.335609 76.150089 64.916024 76.569674 
C 64.496439 76.989258 64.260686 77.558417 64.260686 78.1518 
C 64.260686 78.745182 64.496439 79.314341 64.916024 79.733926 
C 65.335609 80.153511 65.904767 80.389264 66.49815 80.389264 
z
" clip-path="url(#p6daf9aef82)" style="stroke: #000000"/>
    <path d="M 62.181963 58.668762 
C 62.672316 58.668762 63.142652 58.473943 63.489384 58.127211 
C 63.836116 57.780479 64.030935 57.310143 64.030935 56.81979 
C 64.030935 56.329437 63.836116 55.859101 63.489384 55.512369 
C 63.142652 55.165637 62.672316 54.970817 62.181963 54.970817 
C 61.69161 54.970817 61.221274 55.165637 60.874542 55.512369 
C 60.52781 55.859101 60.332991 56.329437 60.332991 56.81979 
C 60.332991 57.310143 60.52781 57.780479 60.874542 58.127211 
C 61.221274 58.473943 61.69161 58.668762 62.181963 58.668762 
z
" clip-path="url(#p6daf9aef82)" style="stroke: #000000"/>
    <path d="M 87.733506 176.388236 
C 87.908019 176.388236 88.075409 176.318901 88.198808 176.195502 
C 88.322208 176.072102 88.391543 175.904713 88.391543 175.730199 
C 88.391543 175.555686 88.322208 175.388297 88.198808 175.264897 
C 88.075409 175.141497 87.908019 175.072162 87.733506 175.072162 
C 87.558993 175.072162 87.391603 175.141497 87.268204 175.264897 
C 87.144804 175.388297 87.075469 175.555686 87.075469 175.730199 
C 87.075469 175.904713 87.144804 176.072102 87.268204 176.195502 
C 87.391603 176.318901 87.558993 176.388236 87.733506 176.388236 
z
" clip-path="url(#p6daf9aef82)" style="stroke: #000000"/>
    <path d="M 89.408198 165.729159 
C 89.774134 165.729159 90.125132 165.583771 90.383888 165.325015 
C 90.642644 165.066259 90.788032 164.715261 90.788032 164.349324 
C 90.788032 163.983388 90.642644 163.63239 90.383888 163.373634 
C 90.125132 163.114878 89.774134 162.96949 89.408198 162.96949 
C 89.042261 162.96949 88.691264 163.114878 88.432507 163.373634 
C 88.173751 163.63239 88.028363 163.983388 88.028363 164.349324 
C 88.028363 164.715261 88.173751 165.066259 88.432507 165.325015 
C 88.691264 165.583771 89.042261 165.729159 89.408198 165.729159 
z
" clip-path="url(#p6daf9aef82)" style="stroke: #000000"/>
    <path d="M 72.776108 123.582114 
C 73.327046 123.582114 73.855493 123.363224 74.245065 122.973652 
C 74.634637 122.58408 74.853527 122.055633 74.853527 121.504695 
C 74.853527 120.953757 74.634637 120.42531 74.245065 120.035738 
C 73.855493 119.646166 73.327046 119.427276 72.776108 119.427276 
C 72.22517 119.427276 71.696723 119.646166 71.307151 120.035738 
C 70.917579 120.42531 70.698689 120.953757 70.698689 121.504695 
C 70.698689 122.055633 70.917579 122.58408 71.307151 122.973652 
C 71.696723 123.363224 72.22517 123.582114 72.776108 123.582114 
z
" clip-path="url(#p6daf9aef82)" style="stroke: #000000"/>
    <path d="M 66.527884 116.221213 
C 67.121266 116.221213 67.690425 115.98546 68.11001 115.565875 
C 68.529595 115.14629 68.765348 114.577131 68.765348 113.983749 
C 68.765348 113.390366 68.529595 112.821207 68.11001 112.401623 
C 67.690425 111.982038 67.121266 111.746285 66.527884 111.746285 
C 65.934501 111.746285 65.365342 111.982038 64.945758 112.401623 
C 64.526173 112.821207 64.290419 113.390366 64.290419 113.983749 
C 64.290419 114.577131 64.526173 115.14629 64.945758 115.565875 
C 65.365342 115.98546 65.934501 116.221213 66.527884 116.221213 
z
" clip-path="url(#p6daf9aef82)" style="stroke: #000000"/>
    <path d="M 62.318491 96.833018 
C 62.911873 96.833018 63.481032 96.597265 63.900617 96.17768 
C 64.320202 95.758095 64.555955 95.188936 64.555955 94.595554 
C 64.555955 94.002171 64.320202 93.433012 63.900617 93.013428 
C 63.481032 92.593843 62.911873 92.358089 62.318491 92.358089 
C 61.725108 92.358089 61.15595 92.593843 60.736365 93.013428 
C 60.31678 93.433012 60.081027 94.002171 60.081027 94.595554 
C 60.081027 95.188936 60.31678 95.758095 60.736365 96.17768 
C 61.15595 96.597265 61.725108 96.833018 62.318491 96.833018 
z
" clip-path="url(#p6daf9aef82)" style="stroke: #000000"/>
    <path d="M 49.576329 59.822559 
C 50.029157 59.822559 50.4635 59.642649 50.783698 59.322451 
C 51.103895 59.002253 51.283806 58.567911 51.283806 58.115083 
C 51.283806 57.662254 51.103895 57.227912 50.783698 56.907714 
C 50.4635 56.587517 50.029157 56.407606 49.576329 56.407606 
C 49.123501 56.407606 48.689159 56.587517 48.368961 56.907714 
C 48.048763 57.227912 47.868853 57.662254 47.868853 58.115083 
C 47.868853 58.567911 48.048763 59.002253 48.368961 59.322451 
C 48.689159 59.642649 49.123501 59.822559 49.576329 59.822559 
z
" clip-path="url(#p6daf9aef82)" style="stroke: #000000"/>
    <path d="M 46.009707 56.092401 
C 46.296887 56.092401 46.572344 55.978303 46.77541 55.775236 
C 46.978477 55.572169 47.092575 55.296712 47.092575 55.009532 
C 47.092575 54.722352 46.978477 54.446896 46.77541 54.243829 
C 46.572344 54.040762 46.296887 53.926664 46.009707 53.926664 
C 45.722527 53.926664 45.44707 54.040762 45.244003 54.243829 
C 45.040936 54.446896 44.926839 54.722352 44.926839 55.009532 
C 44.926839 55.296712 45.040936 55.572169 45.244003 55.775236 
C 45.44707 55.978303 45.722527 56.092401 46.009707 56.092401 
z
" clip-path="url(#p6daf9aef82)" style="stroke: #000000"/>
    <path d="M 66.676712 159.40571 
C 67.269724 159.40571 67.838528 159.170104 68.257851 158.750781 
C 68.677174 158.331458 68.91278 157.762655 68.91278 157.169643 
C 68.91278 156.57663 68.677174 156.007827 68.257851 155.588504 
C 67.838528 155.169181 67.269724 154.933575 66.676712 154.933575 
C 66.0837 154.933575 65.514896 155.169181 65.095573 155.588504 
C 64.67625 156.007827 64.440644 156.57663 64.440644 157.169643 
C 64.440644 157.762655 64.67625 158.331458 65.095573 158.750781 
C 65.514896 159.170104 66.0837 159.40571 66.676712 159.40571 
z
" clip-path="url(#p6daf9aef82)" style="stroke: #000000"/>
    <path d="M 64.084373 139.561379 
C 64.216974 139.561379 64.344163 139.508696 64.437926 139.414933 
C 64.531689 139.321169 64.584373 139.193981 64.584373 139.061379 
C 64.584373 138.928778 64.531689 138.80159 64.437926 138.707826 
C 64.344163 138.614063 64.216974 138.561379 64.084373 138.561379 
C 63.951771 138.561379 63.824583 138.614063 63.730819 138.707826 
C 63.637056 138.80159 63.584373 138.928778 63.584373 139.061379 
C 63.584373 139.193981 63.637056 139.321169 63.730819 139.414933 
C 63.824583 139.508696 63.951771 139.561379 64.084373 139.561379 
z
" clip-path="url(#p6daf9aef82)" style="stroke: #000000"/>
    <path d="M 63.635252 129.09002 
C 64.228634 129.09002 64.797793 128.854267 65.217378 128.434682 
C 65.636962 128.015097 65.872716 127.445938 65.872716 126.852556 
C 65.872716 126.259174 65.636962 125.690015 65.217378 125.27043 
C 64.797793 124.850845 64.228634 124.615092 63.635252 124.615092 
C 63.041869 124.615092 62.47271 124.850845 62.053125 125.27043 
C 61.633541 125.690015 61.397787 126.259174 61.397787 126.852556 
C 61.397787 127.445938 61.633541 128.015097 62.053125 128.434682 
C 62.47271 128.854267 63.041869 129.09002 63.635252 129.09002 
z
" clip-path="url(#p6daf9aef82)" style="stroke: #000000"/>
    <path d="M 58.623635 119.749193 
C 59.217018 119.749193 59.786177 119.51344 60.205762 119.093855 
C 60.625346 118.67427 60.8611 118.105111 60.8611 117.511729 
C 60.8611 116.918347 60.625346 116.349188 60.205762 115.929603 
C 59.786177 115.510018 59.217018 115.274265 58.623635 115.274265 
C 58.030253 115.274265 57.461094 115.510018 57.041509 115.929603 
C 56.621925 116.349188 56.386171 116.918347 56.386171 117.511729 
C 56.386171 118.105111 56.621925 118.67427 57.041509 119.093855 
C 57.461094 119.51344 58.030253 119.749193 58.623635 119.749193 
z
" clip-path="url(#p6daf9aef82)" style="stroke: #000000"/>
    <path d="M 55.171988 105.736507 
C 55.765371 105.736507 56.33453 105.500754 56.754114 105.081169 
C 57.173699 104.661585 57.409452 104.092426 57.409452 103.499043 
C 57.409452 102.905661 57.173699 102.336502 56.754114 101.916917 
C 56.33453 101.497332 55.765371 101.261579 55.171988 101.261579 
C 54.578606 101.261579 54.009447 101.497332 53.589862 101.916917 
C 53.170277 102.336502 52.934524 102.905661 52.934524 103.499043 
C 52.934524 104.092426 53.170277 104.661585 53.589862 105.081169 
C 54.009447 105.500754 54.578606 105.736507 55.171988 105.736507 
z
" clip-path="url(#p6daf9aef82)" style="stroke: #000000"/>
    <path d="M 50.080964 93.458938 
C 50.673976 93.458938 51.24278 93.223332 51.662103 92.804009 
C 52.081426 92.384686 52.317032 91.815882 52.317032 91.22287 
C 52.317032 90.629858 52.081426 90.061054 51.662103 89.641731 
C 51.24278 89.222408 50.673976 88.986802 50.080964 88.986802 
C 49.487952 88.986802 48.919148 89.222408 48.499825 89.641731 
C 48.080502 90.061054 47.844896 90.629858 47.844896 91.22287 
C 47.844896 91.815882 48.080502 92.384686 48.499825 92.804009 
C 48.919148 93.223332 49.487952 93.458938 50.080964 93.458938 
z
" clip-path="url(#p6daf9aef82)" style="stroke: #000000"/>
    <path d="M 48.135196 88.292468 
C 48.728208 88.292468 49.297012 88.056862 49.716335 87.637539 
C 50.135658 87.218216 50.371264 86.649412 50.371264 86.0564 
C 50.371264 85.463388 50.135658 84.894584 49.716335 84.475261 
C 49.297012 84.055938 48.728208 83.820332 48.135196 83.820332 
C 47.542184 83.820332 46.97338 84.055938 46.554057 84.475261 
C 46.134735 84.894584 45.899128 85.463388 45.899128 86.0564 
C 45.899128 86.649412 46.134735 87.218216 46.554057 87.637539 
C 46.97338 88.056862 47.542184 88.292468 48.135196 88.292468 
z
" clip-path="url(#p6daf9aef82)" style="stroke: #000000"/>
    <path d="M 63.563569 169.67887 
C 63.824528 169.67887 64.074833 169.57519 64.259359 169.390664 
C 64.443884 169.206139 64.547564 168.955833 64.547564 168.694875 
C 64.547564 168.433916 64.443884 168.183611 64.259359 167.999085 
C 64.074833 167.81456 63.824528 167.71088 63.563569 167.71088 
C 63.302611 167.71088 63.052305 167.81456 62.86778 167.999085 
C 62.683254 168.183611 62.579574 168.433916 62.579574 168.694875 
C 62.579574 168.955833 62.683254 169.206139 62.86778 169.390664 
C 63.052305 169.57519 63.302611 169.67887 63.563569 169.67887 
z
" clip-path="url(#p6daf9aef82)" style="stroke: #000000"/>
    <path d="M 58.792873 151.133221 
C 59.348826 151.133221 59.882084 150.912338 60.275202 150.51922 
C 60.66832 150.126102 60.889203 149.592844 60.889203 149.036891 
C 60.889203 148.480938 60.66832 147.94768 60.275202 147.554562 
C 59.882084 147.161443 59.348826 146.940561 58.792873 146.940561 
C 58.23692 146.940561 57.703662 147.161443 57.310544 147.554562 
C 56.917425 147.94768 56.696543 148.480938 56.696543 149.036891 
C 56.696543 149.592844 56.917425 150.126102 57.310544 150.51922 
C 57.703662 150.912338 58.23692 151.133221 58.792873 151.133221 
z
" clip-path="url(#p6daf9aef82)" style="stroke: #000000"/>
    <path d="M 50.889073 144.183594 
C 51.482086 144.183594 52.050889 143.947988 52.470212 143.528665 
C 52.889535 143.109342 53.125141 142.540538 53.125141 141.947526 
C 53.125141 141.354514 52.889535 140.78571 52.470212 140.366387 
C 52.050889 139.947064 51.482086 139.711458 50.889073 139.711458 
C 50.296061 139.711458 49.727257 139.947064 49.307935 140.366387 
C 48.888612 140.78571 48.653005 141.354514 48.653005 141.947526 
C 48.653005 142.540538 48.888612 143.109342 49.307935 143.528665 
C 49.727257 143.947988 50.296061 144.183594 50.889073 144.183594 
z
" clip-path="url(#p6daf9aef82)" style="stroke: #000000"/>
    <path d="M 42.044926 112.846065 
C 42.638309 112.846065 43.207468 112.610312 43.627053 112.190727 
C 44.046637 111.771142 44.282391 111.201983 44.282391 110.608601 
C 44.282391 110.015219 44.046637 109.44606 43.627053 109.026475 
C 43.207468 108.60689 42.638309 108.371137 42.044926 108.371137 
C 41.451544 108.371137 40.882385 108.60689 40.4628 109.026475 
C 40.043216 109.44606 39.807462 110.015219 39.807462 110.608601 
C 39.807462 111.201983 40.043216 111.771142 40.4628 112.190727 
C 40.882385 112.610312 41.451544 112.846065 42.044926 112.846065 
z
" clip-path="url(#p6daf9aef82)" style="stroke: #000000"/>
    <path d="M 39.865104 101.076875 
C 40.458116 101.076875 41.02692 100.841269 41.446243 100.421946 
C 41.865566 100.002623 42.101172 99.433819 42.101172 98.840807 
C 42.101172 98.247795 41.865566 97.678991 41.446243 97.259668 
C 41.02692 96.840345 40.458116 96.604739 39.865104 96.604739 
C 39.272092 96.604739 38.703288 96.840345 38.283965 97.259668 
C 37.864643 97.678991 37.629036 98.247795 37.629036 98.840807 
C 37.629036 99.433819 37.864643 100.002623 38.283965 100.421946 
C 38.703288 100.841269 39.272092 101.076875 39.865104 101.076875 
z
" clip-path="url(#p6daf9aef82)" style="stroke: #000000"/>
    <path d="M 37.898601 125.96746 
C 38.491983 125.96746 39.061142 125.731707 39.480727 125.312122 
C 39.900311 124.892537 40.136065 124.323378 40.136065 123.729996 
C 40.136065 123.136613 39.900311 122.567454 39.480727 122.14787 
C 39.061142 121.728285 38.491983 121.492531 37.898601 121.492531 
C 37.305218 121.492531 36.736059 121.728285 36.316474 122.14787 
C 35.89689 122.567454 35.661136 123.136613 35.661136 123.729996 
C 35.661136 124.323378 35.89689 124.892537 36.316474 125.312122 
C 36.736059 125.731707 37.305218 125.96746 37.898601 125.96746 
z
" clip-path="url(#p6daf9aef82)" style="stroke: #000000"/>
    <path d="M 32.944619 113.335383 
C 33.537631 113.335383 34.106435 113.099776 34.525758 112.680454 
C 34.945081 112.261131 35.180687 111.692327 35.180687 111.099315 
C 35.180687 110.506303 34.945081 109.937499 34.525758 109.518176 
C 34.106435 109.098853 33.537631 108.863247 32.944619 108.863247 
C 32.351607 108.863247 31.782803 109.098853 31.36348 109.518176 
C 30.944157 109.937499 30.708551 110.506303 30.708551 111.099315 
C 30.708551 111.692327 30.944157 112.261131 31.36348 112.680454 
C 31.782803 113.099776 32.351607 113.335383 32.944619 113.335383 
z
" clip-path="url(#p6daf9aef82)" style="stroke: #000000"/>
    <path d="M 40.40762 168.62907 
C 40.565311 168.62907 40.716564 168.566419 40.828068 168.454915 
C 40.939572 168.343411 41.002223 168.192158 41.002223 168.034467 
C 41.002223 167.876776 40.939572 167.725523 40.828068 167.614019 
C 40.716564 167.502514 40.565311 167.439863 40.40762 167.439863 
C 40.249929 167.439863 40.098676 167.502514 39.987172 167.614019 
C 39.875667 167.725523 39.813016 167.876776 39.813016 168.034467 
C 39.813016 168.192158 39.875667 168.343411 39.987172 168.454915 
C 40.098676 168.566419 40.249929 168.62907 40.40762 168.62907 
z
" clip-path="url(#p6daf9aef82)" style="stroke: #000000"/>
    <path d="M 28.883332 141.119534 
C 29.331081 141.119534 29.760551 140.941641 30.077157 140.625035 
C 30.393764 140.308429 30.571656 139.878958 30.571656 139.43121 
C 30.571656 138.983461 30.393764 138.55399 30.077157 138.237384 
C 29.760551 137.920778 29.331081 137.742885 28.883332 137.742885 
C 28.435583 137.742885 28.006113 137.920778 27.689506 138.237384 
C 27.3729 138.55399 27.195008 138.983461 27.195008 139.43121 
C 27.195008 139.878958 27.3729 140.308429 27.689506 140.625035 
C 28.006113 140.941641 28.435583 141.119534 28.883332 141.119534 
z
" clip-path="url(#p6daf9aef82)" style="stroke: #000000"/>
    <path d="M 27.575633 130.265153 
C 28.168646 130.265153 28.737449 130.029546 29.156772 129.610224 
C 29.576095 129.190901 29.811701 128.622097 29.811701 128.029085 
C 29.811701 127.436073 29.576095 126.867269 29.156772 126.447946 
C 28.737449 126.028623 28.168646 125.793017 27.575633 125.793017 
C 26.982621 125.793017 26.413817 126.028623 25.994495 126.447946 
C 25.575172 126.867269 25.339565 127.436073 25.339565 128.029085 
C 25.339565 128.622097 25.575172 129.190901 25.994495 129.610224 
C 26.413817 130.029546 26.982621 130.265153 27.575633 130.265153 
z
" clip-path="url(#p6daf9aef82)" style="stroke: #000000"/>
   </g>
   <g id="matplotlib.axis_1">
    <g id="xtick_1">
     <g id="line2d_1">
      <defs>
       <path id="m033bee2c21" d="M 0 0 
L 0 3.5 
" style="stroke: #000000; stroke-width: 0.8"/>
      </defs>
      <g>
       <use xlink:href="#m033bee2c21" x="18" y="189" style="stroke: #000000; stroke-width: 0.8"/>
      </g>
     </g>
     <g id="text_1">
      <!-- −10 -->
      <g transform="translate(7.447656 203.598437)scale(0.1 -0.1)">
       <defs>
        <path id="DejaVuSans-2212" d="M 678 2272 
L 4684 2272 
L 4684 1741 
L 678 1741 
L 678 2272 
z
" transform="scale(0.015625)"/>
        <path id="DejaVuSans-31" d="M 794 531 
L 1825 531 
L 1825 4091 
L 703 3866 
L 703 4441 
L 1819 4666 
L 2450 4666 
L 2450 531 
L 3481 531 
L 3481 0 
L 794 0 
L 794 531 
z
" transform="scale(0.015625)"/>
        <path id="DejaVuSans-30" d="M 2034 4250 
Q 1547 4250 1301 3770 
Q 1056 3291 1056 2328 
Q 1056 1369 1301 889 
Q 1547 409 2034 409 
Q 2525 409 2770 889 
Q 3016 1369 3016 2328 
Q 3016 3291 2770 3770 
Q 2525 4250 2034 4250 
z
M 2034 4750 
Q 2819 4750 3233 4129 
Q 3647 3509 3647 2328 
Q 3647 1150 3233 529 
Q 2819 -91 2034 -91 
Q 1250 -91 836 529 
Q 422 1150 422 2328 
Q 422 3509 836 4129 
Q 1250 4750 2034 4750 
z
" transform="scale(0.015625)"/>
       </defs>
       <use xlink:href="#DejaVuSans-2212"/>
       <use xlink:href="#DejaVuSans-31" x="83.789062"/>
       <use xlink:href="#DejaVuSans-30" x="147.412109"/>
      </g>
     </g>
    </g>
    <g id="xtick_2">
     <g id="line2d_2">
      <g>
       <use xlink:href="#m033bee2c21" x="73.8" y="189" style="stroke: #000000; stroke-width: 0.8"/>
      </g>
     </g>
     <g id="text_2">
      <!-- 0 -->
      <g transform="translate(70.61875 203.598437)scale(0.1 -0.1)">
       <use xlink:href="#DejaVuSans-30"/>
      </g>
     </g>
    </g>
    <g id="xtick_3">
     <g id="line2d_3">
      <g>
       <use xlink:href="#m033bee2c21" x="129.6" y="189" style="stroke: #000000; stroke-width: 0.8"/>
      </g>
     </g>
     <g id="text_3">
      <!-- 10 -->
      <g transform="translate(123.2375 203.598437)scale(0.1 -0.1)">
       <use xlink:href="#DejaVuSans-31"/>
       <use xlink:href="#DejaVuSans-30" x="63.623047"/>
      </g>
     </g>
    </g>
   </g>
   <g id="matplotlib.axis_2">
    <g id="ytick_1">
     <g id="line2d_4">
      <defs>
       <path id="mbd97b845b3" d="M 0 0 
L -3.5 0 
" style="stroke: #000000; stroke-width: 0.8"/>
      </defs>
      <g>
       <use xlink:href="#mbd97b845b3" x="18" y="189" style="stroke: #000000; stroke-width: 0.8"/>
      </g>
     </g>
     <g id="text_4">
      <!-- −15 -->
      <g transform="translate(-10.104688 192.799219)scale(0.1 -0.1)">
       <defs>
        <path id="DejaVuSans-35" d="M 691 4666 
L 3169 4666 
L 3169 4134 
L 1269 4134 
L 1269 2991 
Q 1406 3038 1543 3061 
Q 1681 3084 1819 3084 
Q 2600 3084 3056 2656 
Q 3513 2228 3513 1497 
Q 3513 744 3044 326 
Q 2575 -91 1722 -91 
Q 1428 -91 1123 -41 
Q 819 9 494 109 
L 494 744 
Q 775 591 1075 516 
Q 1375 441 1709 441 
Q 2250 441 2565 725 
Q 2881 1009 2881 1497 
Q 2881 1984 2565 2268 
Q 2250 2553 1709 2553 
Q 1456 2553 1204 2497 
Q 953 2441 691 2322 
L 691 4666 
z
" transform="scale(0.015625)"/>
       </defs>
       <use xlink:href="#DejaVuSans-2212"/>
       <use xlink:href="#DejaVuSans-31" x="83.789062"/>
       <use xlink:href="#DejaVuSans-35" x="147.412109"/>
      </g>
     </g>
    </g>
    <g id="ytick_2">
     <g id="line2d_5">
      <g>
       <use xlink:href="#mbd97b845b3" x="18" y="161.82" style="stroke: #000000; stroke-width: 0.8"/>
      </g>
     </g>
     <g id="text_5">
      <!-- −10 -->
      <g transform="translate(-10.104688 165.619219)scale(0.1 -0.1)">
       <use xlink:href="#DejaVuSans-2212"/>
       <use xlink:href="#DejaVuSans-31" x="83.789062"/>
       <use xlink:href="#DejaVuSans-30" x="147.412109"/>
      </g>
     </g>
    </g>
    <g id="ytick_3">
     <g id="line2d_6">
      <g>
       <use xlink:href="#mbd97b845b3" x="18" y="134.64" style="stroke: #000000; stroke-width: 0.8"/>
      </g>
     </g>
     <g id="text_6">
      <!-- −5 -->
      <g transform="translate(-3.742188 138.439219)scale(0.1 -0.1)">
       <use xlink:href="#DejaVuSans-2212"/>
       <use xlink:href="#DejaVuSans-35" x="83.789062"/>
      </g>
     </g>
    </g>
    <g id="ytick_4">
     <g id="line2d_7">
      <g>
       <use xlink:href="#mbd97b845b3" x="18" y="107.46" style="stroke: #000000; stroke-width: 0.8"/>
      </g>
     </g>
     <g id="text_7">
      <!-- 0 -->
      <g transform="translate(4.6375 111.259219)scale(0.1 -0.1)">
       <use xlink:href="#DejaVuSans-30"/>
      </g>
     </g>
    </g>
    <g id="ytick_5">
     <g id="line2d_8">
      <g>
       <use xlink:href="#mbd97b845b3" x="18" y="80.28" style="stroke: #000000; stroke-width: 0.8"/>
      </g>
     </g>
     <g id="text_8">
      <!-- 5 -->
      <g transform="translate(4.6375 84.079219)scale(0.1 -0.1)">
       <use xlink:href="#DejaVuSans-35"/>
      </g>
     </g>
    </g>
    <g id="ytick_6">
     <g id="line2d_9">
      <g>
       <use xlink:href="#mbd97b845b3" x="18" y="53.1" style="stroke: #000000; stroke-width: 0.8"/>
      </g>
     </g>
     <g id="text_9">
      <!-- 10 -->
      <g transform="translate(-1.725 56.899219)scale(0.1 -0.1)">
       <use xlink:href="#DejaVuSans-31"/>
       <use xlink:href="#DejaVuSans-30" x="63.623047"/>
      </g>
     </g>
    </g>
    <g id="ytick_7">
     <g id="line2d_10">
      <g>
       <use xlink:href="#mbd97b845b3" x="18" y="25.92" style="stroke: #000000; stroke-width: 0.8"/>
      </g>
     </g>
     <g id="text_10">
      <!-- 15 -->
      <g transform="translate(-1.725 29.719219)scale(0.1 -0.1)">
       <use xlink:href="#DejaVuSans-31"/>
       <use xlink:href="#DejaVuSans-35" x="63.623047"/>
      </g>
     </g>
    </g>
   </g>
   <g id="patch_3">
    <path d="M 18 189 
L 18 25.92 
" style="fill: none; stroke: #000000; stroke-width: 0.8; stroke-linejoin: miter; stroke-linecap: square"/>
   </g>
   <g id="patch_4">
    <path d="M 129.6 189 
L 129.6 25.92 
" style="fill: none; stroke: #000000; stroke-width: 0.8; stroke-linejoin: miter; stroke-linecap: square"/>
   </g>
   <g id="patch_5">
    <path d="M 18 189 
L 129.6 189 
" style="fill: none; stroke: #000000; stroke-width: 0.8; stroke-linejoin: miter; stroke-linecap: square"/>
   </g>
   <g id="patch_6">
    <path d="M 18 25.92 
L 129.6 25.92 
" style="fill: none; stroke: #000000; stroke-width: 0.8; stroke-linejoin: miter; stroke-linecap: square"/>
   </g>
  </g>
 </g>
 <defs>
  <clipPath id="p6daf9aef82">
   <rect x="18" y="25.92" width="111.6" height="163.08"/>
  </clipPath>
 </defs>
</svg>
