<?xml version="1.0" encoding="utf-8" standalone="no"?>
<!DOCTYPE svg PUBLIC "-//W3C//DTD SVG 1.1//EN"
  "http://www.w3.org/Graphics/SVG/1.1/DTD/svg11.dtd">
<svg xmlns:xlink="http://www.w3.org/1999/xlink" width="144pt" height="216pt" viewBox="0 0 144 216" xmlns="http://www.w3.org/2000/svg" version="1.1">
 <metadata>
  <rdf:RDF xmlns:dc="http://purl.org/dc/elements/1.1/" xmlns:cc="http://creativecommons.org/ns#" xmlns:rdf="http://www.w3.org/1999/02/22-rdf-syntax-ns#">
   <cc:Work>
    <dc:type rdf:resource="http://purl.org/dc/dcmitype/StillImage"/>
    <dc:date>2022-06-28T09:16:13.432540</dc:date>
    <dc:format>image/svg+xml</dc:format>
    <dc:creator>
     <cc:Agent>
      <dc:title>Matplotlib v3.5.1, https://matplotlib.org/</dc:title>
     </cc:Agent>
    </dc:creator>
   </cc:Work>
  </rdf:RDF>
 </metadata>
 <defs>
  <style type="text/css">*{stroke-linejoin: round; stroke-linecap: butt}</style>
 </defs>
 <g id="figure_1">
  <g id="patch_1">
   <path d="M 0 216 
L 144 216 
L 144 0 
L 0 0 
L 0 216 
z
" style="fill: none"/>
  </g>
  <g id="axes_1">
   <g id="patch_2">
    <path d="M 18 189 
L 129.6 189 
L 129.6 25.92 
L 18 25.92 
z
" style="fill: #ffffff"/>
   </g>
   <g id="PathCollection_1">
    <defs>
     <path id="ma0462265b4" d="M 0 2.738613 
C 0.726289 2.738613 1.422928 2.450055 1.936492 1.936492 
C 2.450055 1.422928 2.738613 0.726289 2.738613 0 
C 2.738613 -0.726289 2.450055 -1.422928 1.936492 -1.936492 
C 1.422928 -2.450055 0.726289 -2.738613 0 -2.738613 
C -0.726289 -2.738613 -1.422928 -2.450055 -1.936492 -1.936492 
C -2.450055 -1.422928 -2.738613 -0.726289 -2.738613 0 
C -2.738613 0.726289 -2.450055 1.422928 -1.936492 1.936492 
C -1.422928 2.450055 -0.726289 2.738613 0 2.738613 
z
" style="stroke: #ff0000; stroke-width: 1.75"/>
    </defs>
    <g clip-path="url(#p116bd571f4)">
     <use xlink:href="#ma0462265b4" x="80.775" y="83.92143" style="fill: #ff0000; stroke: #ff0000; stroke-width: 1.75"/>
     <use xlink:href="#ma0462265b4" x="59.85" y="95.690715" style="fill: #ff0000; stroke: #ff0000; stroke-width: 1.75"/>
     <use xlink:href="#ma0462265b4" x="66.825" y="107.46" style="fill: #ff0000; stroke: #ff0000; stroke-width: 1.75"/>
     <use xlink:href="#ma0462265b4" x="80.775" y="107.46" style="fill: #ff0000; stroke: #ff0000; stroke-width: 1.75"/>
     <use xlink:href="#ma0462265b4" x="94.725" y="107.46" style="fill: #ff0000; stroke: #ff0000; stroke-width: 1.75"/>
     <use xlink:href="#ma0462265b4" x="59.85" y="119.229285" style="fill: #ff0000; stroke: #ff0000; stroke-width: 1.75"/>
     <use xlink:href="#ma0462265b4" x="80.775" y="130.99857" style="fill: #ff0000; stroke: #ff0000; stroke-width: 1.75"/>
    </g>
   </g>
   <g id="PathCollection_2">
    <defs>
     <path id="C0_0_41011bb8cc" d="M 0 2.738613 
C 0.726289 2.738613 1.422928 2.450055 1.936492 1.936492 
C 2.450055 1.422928 2.738613 0.726289 2.738613 -0 
C 2.738613 -0.726289 2.450055 -1.422928 1.936492 -1.936492 
C 1.422928 -2.450055 0.726289 -2.738613 0 -2.738613 
C -0.726289 -2.738613 -1.422928 -2.450055 -1.936492 -1.936492 
C -2.450055 -1.422928 -2.738613 -0.726289 -2.738613 0 
C -2.738613 0.726289 -2.450055 1.422928 -1.936492 1.936492 
C -1.422928 2.450055 -0.726289 2.738613 0 2.738613 
z
"/>
    </defs>
    <g clip-path="url(#p116bd571f4)">
     <use xlink:href="#C0_0_41011bb8cc" x="66.825" y="83.92143" style="fill: none; stroke: #ff0000; stroke-width: 1.75"/>
    </g>
    <g clip-path="url(#p116bd571f4)">
     <use xlink:href="#C0_0_41011bb8cc" x="73.8" y="95.690715" style="fill: none; stroke: #ff0000; stroke-width: 1.75"/>
    </g>
    <g clip-path="url(#p116bd571f4)">
     <use xlink:href="#C0_0_41011bb8cc" x="87.75" y="95.690715" style="fill: none; stroke: #ff0000; stroke-width: 1.75"/>
    </g>
    <g clip-path="url(#p116bd571f4)">
     <use xlink:href="#C0_0_41011bb8cc" x="52.875" y="107.46" style="fill: none; stroke: #ff0000; stroke-width: 1.75"/>
    </g>
    <g clip-path="url(#p116bd571f4)">
     <use xlink:href="#C0_0_41011bb8cc" x="73.8" y="119.229285" style="fill: none; stroke: #ff0000; stroke-width: 1.75"/>
    </g>
    <g clip-path="url(#p116bd571f4)">
     <use xlink:href="#C0_0_41011bb8cc" x="87.75" y="119.229285" style="fill: none; stroke: #ff0000; stroke-width: 1.75"/>
    </g>
    <g clip-path="url(#p116bd571f4)">
     <use xlink:href="#C0_0_41011bb8cc" x="66.825" y="130.99857" style="fill: none; stroke: #ff0000; stroke-width: 1.75"/>
    </g>
   </g>
   <g id="PathCollection_3">
    <path d="M 91.633331 96.059032 
C 92.020927 96.059032 92.3927 95.905038 92.666772 95.630967 
C 92.940843 95.356895 93.094837 94.985121 93.094837 94.597525 
C 93.094837 94.209929 92.940843 93.838156 92.666772 93.564084 
C 92.3927 93.290013 92.020927 93.136019 91.633331 93.136019 
C 91.245735 93.136019 90.873961 93.290013 90.599889 93.564084 
C 90.325818 93.838156 90.171824 94.209929 90.171824 94.597525 
C 90.171824 94.985121 90.325818 95.356895 90.599889 95.630967 
C 90.873961 95.905038 91.245735 96.059032 91.633331 96.059032 
z
" clip-path="url(#p116bd571f4)" style="stroke: #000000"/>
    <path d="M 89.693969 94.739135 
C 90.07752 94.739135 90.445413 94.586748 90.716624 94.315537 
C 90.987836 94.044325 91.140222 93.676432 91.140222 93.292881 
C 91.140222 92.90933 90.987836 92.541436 90.716624 92.270225 
C 90.445413 91.999013 90.07752 91.846627 89.693969 91.846627 
C 89.310418 91.846627 88.942524 91.999013 88.671313 92.270225 
C 88.400101 92.541436 88.247715 92.90933 88.247715 93.292881 
C 88.247715 93.676432 88.400101 94.044325 88.671313 94.315537 
C 88.942524 94.586748 89.310418 94.739135 89.693969 94.739135 
z
" clip-path="url(#p116bd571f4)" style="stroke: #000000"/>
    <path d="M 92.208641 119.430291 
C 92.589422 119.430291 92.954659 119.279005 93.223912 119.009752 
C 93.493166 118.740499 93.644452 118.375262 93.644452 117.99448 
C 93.644452 117.613699 93.493166 117.248462 93.223912 116.979209 
C 92.954659 116.709955 92.589422 116.558669 92.208641 116.558669 
C 91.827859 116.558669 91.462622 116.709955 91.193369 116.979209 
C 90.924116 117.248462 90.77283 117.613699 90.77283 117.99448 
C 90.77283 118.375262 90.924116 118.740499 91.193369 119.009752 
C 91.462622 119.279005 91.827859 119.430291 92.208641 119.430291 
z
" clip-path="url(#p116bd571f4)" style="stroke: #000000"/>
    <path d="M 86.489578 98.096691 
C 86.712586 98.096691 86.92649 98.008089 87.084181 97.850399 
C 87.241872 97.692708 87.330474 97.478803 87.330474 97.255795 
C 87.330474 97.032787 87.241872 96.818882 87.084181 96.661191 
C 86.92649 96.503501 86.712586 96.414899 86.489578 96.414899 
C 86.266569 96.414899 86.052665 96.503501 85.894974 96.661191 
C 85.737283 96.818882 85.648681 97.032787 85.648681 97.255795 
C 85.648681 97.478803 85.737283 97.692708 85.894974 97.850399 
C 86.052665 98.008089 86.266569 98.096691 86.489578 98.096691 
z
" clip-path="url(#p116bd571f4)" style="stroke: #000000"/>
    <path d="M 82.501217 88.264766 
C 82.880591 88.264766 83.244478 88.114039 83.512736 87.845782 
C 83.780993 87.577524 83.93172 87.213637 83.93172 86.834263 
C 83.93172 86.45489 83.780993 86.091003 83.512736 85.822745 
C 83.244478 85.554487 82.880591 85.403761 82.501217 85.403761 
C 82.121844 85.403761 81.757957 85.554487 81.489699 85.822745 
C 81.221441 86.091003 81.070715 86.45489 81.070715 86.834263 
C 81.070715 87.213637 81.221441 87.577524 81.489699 87.845782 
C 81.757957 88.114039 82.121844 88.264766 82.501217 88.264766 
z
" clip-path="url(#p116bd571f4)" style="stroke: #000000"/>
    <path d="M 86.187604 119.855859 
C 86.395136 119.855859 86.594197 119.773405 86.740945 119.626658 
C 86.887693 119.47991 86.970146 119.280849 86.970146 119.073317 
C 86.970146 118.865784 86.887693 118.666724 86.740945 118.519976 
C 86.594197 118.373228 86.395136 118.290774 86.187604 118.290774 
C 85.980071 118.290774 85.781011 118.373228 85.634263 118.519976 
C 85.487515 118.666724 85.405062 118.865784 85.405062 119.073317 
C 85.405062 119.280849 85.487515 119.47991 85.634263 119.626658 
C 85.781011 119.773405 85.980071 119.855859 86.187604 119.855859 
z
" clip-path="url(#p116bd571f4)" style="stroke: #000000"/>
    <path d="M 76.774826 95.13058 
C 77.010629 95.13058 77.236805 95.036894 77.403543 94.870157 
C 77.57028 94.703419 77.663966 94.477243 77.663966 94.24144 
C 77.663966 94.005637 77.57028 93.779461 77.403543 93.612723 
C 77.236805 93.445986 77.010629 93.3523 76.774826 93.3523 
C 76.539023 93.3523 76.312847 93.445986 76.146109 93.612723 
C 75.979372 93.779461 75.885686 94.005637 75.885686 94.24144 
C 75.885686 94.477243 75.979372 94.703419 76.146109 94.870157 
C 76.312847 95.036894 76.539023 95.13058 76.774826 95.13058 
z
" clip-path="url(#p116bd571f4)" style="stroke: #000000"/>
    <path d="M 73.775103 81.549494 
C 73.907705 81.549494 74.034893 81.496811 74.128656 81.403047 
C 74.22242 81.309284 74.275103 81.182096 74.275103 81.049494 
C 74.275103 80.916892 74.22242 80.789704 74.128656 80.695941 
C 74.034893 80.602177 73.907705 80.549494 73.775103 80.549494 
C 73.642502 80.549494 73.515313 80.602177 73.42155 80.695941 
C 73.327786 80.789704 73.275103 80.916892 73.275103 81.049494 
C 73.275103 81.182096 73.327786 81.309284 73.42155 81.403047 
C 73.515313 81.496811 73.642502 81.549494 73.775103 81.549494 
z
" clip-path="url(#p116bd571f4)" style="stroke: #000000"/>
    <path d="M 67.910537 84.825829 
C 68.285591 84.825829 68.645334 84.676819 68.910537 84.411616 
C 69.17574 84.146413 69.324751 83.78667 69.324751 83.411616 
C 69.324751 83.036562 69.17574 82.676819 68.910537 82.411616 
C 68.645334 82.146413 68.285591 81.997402 67.910537 81.997402 
C 67.535483 81.997402 67.17574 82.146413 66.910537 82.411616 
C 66.645334 82.676819 66.496324 83.036562 66.496324 83.411616 
C 66.496324 83.78667 66.645334 84.146413 66.910537 84.411616 
C 67.17574 84.676819 67.535483 84.825829 67.910537 84.825829 
z
" clip-path="url(#p116bd571f4)" style="stroke: #000000"/>
    <path d="M 77.437965 130.115103 
C 77.63625 130.115103 77.826441 130.036323 77.96665 129.896114 
C 78.106859 129.755905 78.185639 129.565714 78.185639 129.367428 
C 78.185639 129.169143 78.106859 128.978952 77.96665 128.838743 
C 77.826441 128.698533 77.63625 128.619754 77.437965 128.619754 
C 77.239679 128.619754 77.049488 128.698533 76.909279 128.838743 
C 76.76907 128.978952 76.69029 129.169143 76.69029 129.367428 
C 76.69029 129.565714 76.76907 129.755905 76.909279 129.896114 
C 77.049488 130.036323 77.239679 130.115103 77.437965 130.115103 
z
" clip-path="url(#p116bd571f4)" style="stroke: #000000"/>
    <path d="M 71.908513 116.76797 
C 72.296109 116.76797 72.667882 116.613976 72.941954 116.339904 
C 73.216026 116.065833 73.370019 115.694059 73.370019 115.306463 
C 73.370019 114.918867 73.216026 114.547094 72.941954 114.273022 
C 72.667882 113.99895 72.296109 113.844957 71.908513 113.844957 
C 71.520917 113.844957 71.149144 113.99895 70.875072 114.273022 
C 70.601 114.547094 70.447006 114.918867 70.447006 115.306463 
C 70.447006 115.694059 70.601 116.065833 70.875072 116.339904 
C 71.149144 116.613976 71.520917 116.76797 71.908513 116.76797 
z
" clip-path="url(#p116bd571f4)" style="stroke: #000000"/>
    <path d="M 62.675533 99.42637 
C 62.86306 99.42637 63.042932 99.351865 63.175533 99.219263 
C 63.308135 99.086661 63.38264 98.90679 63.38264 98.719263 
C 63.38264 98.531736 63.308135 98.351865 63.175533 98.219263 
C 63.042932 98.086661 62.86306 98.012156 62.675533 98.012156 
C 62.488006 98.012156 62.308135 98.086661 62.175533 98.219263 
C 62.042932 98.351865 61.968426 98.531736 61.968426 98.719263 
C 61.968426 98.90679 62.042932 99.086661 62.175533 99.219263 
C 62.308135 99.351865 62.488006 99.42637 62.675533 99.42637 
z
" clip-path="url(#p116bd571f4)" style="stroke: #000000"/>
    <path d="M 65.878376 119.645045 
C 66.010978 119.645045 66.138166 119.592362 66.23193 119.498599 
C 66.325693 119.404835 66.378376 119.277647 66.378376 119.145045 
C 66.378376 119.012444 66.325693 118.885255 66.23193 118.791492 
C 66.138166 118.697728 66.010978 118.645045 65.878376 118.645045 
C 65.745775 118.645045 65.618586 118.697728 65.524823 118.791492 
C 65.431059 118.885255 65.378376 119.012444 65.378376 119.145045 
C 65.378376 119.277647 65.431059 119.404835 65.524823 119.498599 
C 65.618586 119.592362 65.745775 119.645045 65.878376 119.645045 
z
" clip-path="url(#p116bd571f4)" style="stroke: #000000"/>
    <path d="M 65.655204 135.833098 
C 66.033154 135.833098 66.395675 135.682936 66.662927 135.415685 
C 66.930178 135.148434 67.080339 134.785913 67.080339 134.407963 
C 67.080339 134.030013 66.930178 133.667491 66.662927 133.40024 
C 66.395675 133.132989 66.033154 132.982828 65.655204 132.982828 
C 65.277254 132.982828 64.914733 133.132989 64.647481 133.40024 
C 64.38023 133.667491 64.230069 134.030013 64.230069 134.407963 
C 64.230069 134.785913 64.38023 135.148434 64.647481 135.415685 
C 64.914733 135.682936 65.277254 135.833098 65.655204 135.833098 
z
" clip-path="url(#p116bd571f4)" style="stroke: #000000"/>
    <path d="M 59.907971 121.419173 
C 60.292885 121.419173 60.662085 121.266245 60.93426 120.99407 
C 61.206435 120.721895 61.359363 120.352695 61.359363 119.967781 
C 61.359363 119.582867 61.206435 119.213667 60.93426 118.941492 
C 60.662085 118.669317 60.292885 118.516389 59.907971 118.516389 
C 59.523058 118.516389 59.153857 118.669317 58.881682 118.941492 
C 58.609507 119.213667 58.45658 119.582867 58.45658 119.967781 
C 58.45658 120.352695 58.609507 120.721895 58.881682 120.99407 
C 59.153857 121.266245 59.523058 121.419173 59.907971 121.419173 
z
" clip-path="url(#p116bd571f4)" style="stroke: #000000"/>
   </g>
   <g id="matplotlib.axis_1">
    <g id="xtick_1">
     <g id="line2d_1">
      <defs>
       <path id="m8ae7ca5237" d="M 0 0 
L 0 3.5 
" style="stroke: #000000; stroke-width: 0.8"/>
      </defs>
      <g>
       <use xlink:href="#m8ae7ca5237" x="18" y="189" style="stroke: #000000; stroke-width: 0.8"/>
      </g>
     </g>
     <g id="text_1">
      <!-- −10 -->
      <g transform="translate(7.447656 203.598437)scale(0.1 -0.1)">
       <defs>
        <path id="DejaVuSans-2212" d="M 678 2272 
L 4684 2272 
L 4684 1741 
L 678 1741 
L 678 2272 
z
" transform="scale(0.015625)"/>
        <path id="DejaVuSans-31" d="M 794 531 
L 1825 531 
L 1825 4091 
L 703 3866 
L 703 4441 
L 1819 4666 
L 2450 4666 
L 2450 531 
L 3481 531 
L 3481 0 
L 794 0 
L 794 531 
z
" transform="scale(0.015625)"/>
        <path id="DejaVuSans-30" d="M 2034 4250 
Q 1547 4250 1301 3770 
Q 1056 3291 1056 2328 
Q 1056 1369 1301 889 
Q 1547 409 2034 409 
Q 2525 409 2770 889 
Q 3016 1369 3016 2328 
Q 3016 3291 2770 3770 
Q 2525 4250 2034 4250 
z
M 2034 4750 
Q 2819 4750 3233 4129 
Q 3647 3509 3647 2328 
Q 3647 1150 3233 529 
Q 2819 -91 2034 -91 
Q 1250 -91 836 529 
Q 422 1150 422 2328 
Q 422 3509 836 4129 
Q 1250 4750 2034 4750 
z
" transform="scale(0.015625)"/>
       </defs>
       <use xlink:href="#DejaVuSans-2212"/>
       <use xlink:href="#DejaVuSans-31" x="83.789062"/>
       <use xlink:href="#DejaVuSans-30" x="147.412109"/>
      </g>
     </g>
    </g>
    <g id="xtick_2">
     <g id="line2d_2">
      <g>
       <use xlink:href="#m8ae7ca5237" x="73.8" y="189" style="stroke: #000000; stroke-width: 0.8"/>
      </g>
     </g>
     <g id="text_2">
      <!-- 0 -->
      <g transform="translate(70.61875 203.598437)scale(0.1 -0.1)">
       <use xlink:href="#DejaVuSans-30"/>
      </g>
     </g>
    </g>
    <g id="xtick_3">
     <g id="line2d_3">
      <g>
       <use xlink:href="#m8ae7ca5237" x="129.6" y="189" style="stroke: #000000; stroke-width: 0.8"/>
      </g>
     </g>
     <g id="text_3">
      <!-- 10 -->
      <g transform="translate(123.2375 203.598437)scale(0.1 -0.1)">
       <use xlink:href="#DejaVuSans-31"/>
       <use xlink:href="#DejaVuSans-30" x="63.623047"/>
      </g>
     </g>
    </g>
   </g>
   <g id="matplotlib.axis_2">
    <g id="ytick_1">
     <g id="line2d_4">
      <defs>
       <path id="m4020244a59" d="M 0 0 
L -3.5 0 
" style="stroke: #000000; stroke-width: 0.8"/>
      </defs>
      <g>
       <use xlink:href="#m4020244a59" x="18" y="189" style="stroke: #000000; stroke-width: 0.8"/>
      </g>
     </g>
     <g id="text_4">
      <!-- −15 -->
      <g transform="translate(-10.104688 192.799219)scale(0.1 -0.1)">
       <defs>
        <path id="DejaVuSans-35" d="M 691 4666 
L 3169 4666 
L 3169 4134 
L 1269 4134 
L 1269 2991 
Q 1406 3038 1543 3061 
Q 1681 3084 1819 3084 
Q 2600 3084 3056 2656 
Q 3513 2228 3513 1497 
Q 3513 744 3044 326 
Q 2575 -91 1722 -91 
Q 1428 -91 1123 -41 
Q 819 9 494 109 
L 494 744 
Q 775 591 1075 516 
Q 1375 441 1709 441 
Q 2250 441 2565 725 
Q 2881 1009 2881 1497 
Q 2881 1984 2565 2268 
Q 2250 2553 1709 2553 
Q 1456 2553 1204 2497 
Q 953 2441 691 2322 
L 691 4666 
z
" transform="scale(0.015625)"/>
       </defs>
       <use xlink:href="#DejaVuSans-2212"/>
       <use xlink:href="#DejaVuSans-31" x="83.789062"/>
       <use xlink:href="#DejaVuSans-35" x="147.412109"/>
      </g>
     </g>
    </g>
    <g id="ytick_2">
     <g id="line2d_5">
      <g>
       <use xlink:href="#m4020244a59" x="18" y="161.82" style="stroke: #000000; stroke-width: 0.8"/>
      </g>
     </g>
     <g id="text_5">
      <!-- −10 -->
      <g transform="translate(-10.104688 165.619219)scale(0.1 -0.1)">
       <use xlink:href="#DejaVuSans-2212"/>
       <use xlink:href="#DejaVuSans-31" x="83.789062"/>
       <use xlink:href="#DejaVuSans-30" x="147.412109"/>
      </g>
     </g>
    </g>
    <g id="ytick_3">
     <g id="line2d_6">
      <g>
       <use xlink:href="#m4020244a59" x="18" y="134.64" style="stroke: #000000; stroke-width: 0.8"/>
      </g>
     </g>
     <g id="text_6">
      <!-- −5 -->
      <g transform="translate(-3.742188 138.439219)scale(0.1 -0.1)">
       <use xlink:href="#DejaVuSans-2212"/>
       <use xlink:href="#DejaVuSans-35" x="83.789062"/>
      </g>
     </g>
    </g>
    <g id="ytick_4">
     <g id="line2d_7">
      <g>
       <use xlink:href="#m4020244a59" x="18" y="107.46" style="stroke: #000000; stroke-width: 0.8"/>
      </g>
     </g>
     <g id="text_7">
      <!-- 0 -->
      <g transform="translate(4.6375 111.259219)scale(0.1 -0.1)">
       <use xlink:href="#DejaVuSans-30"/>
      </g>
     </g>
    </g>
    <g id="ytick_5">
     <g id="line2d_8">
      <g>
       <use xlink:href="#m4020244a59" x="18" y="80.28" style="stroke: #000000; stroke-width: 0.8"/>
      </g>
     </g>
     <g id="text_8">
      <!-- 5 -->
      <g transform="translate(4.6375 84.079219)scale(0.1 -0.1)">
       <use xlink:href="#DejaVuSans-35"/>
      </g>
     </g>
    </g>
    <g id="ytick_6">
     <g id="line2d_9">
      <g>
       <use xlink:href="#m4020244a59" x="18" y="53.1" style="stroke: #000000; stroke-width: 0.8"/>
      </g>
     </g>
     <g id="text_9">
      <!-- 10 -->
      <g transform="translate(-1.725 56.899219)scale(0.1 -0.1)">
       <use xlink:href="#DejaVuSans-31"/>
       <use xlink:href="#DejaVuSans-30" x="63.623047"/>
      </g>
     </g>
    </g>
    <g id="ytick_7">
     <g id="line2d_10">
      <g>
       <use xlink:href="#m4020244a59" x="18" y="25.92" style="stroke: #000000; stroke-width: 0.8"/>
      </g>
     </g>
     <g id="text_10">
      <!-- 15 -->
      <g transform="translate(-1.725 29.719219)scale(0.1 -0.1)">
       <use xlink:href="#DejaVuSans-31"/>
       <use xlink:href="#DejaVuSans-35" x="63.623047"/>
      </g>
     </g>
    </g>
   </g>
   <g id="patch_3">
    <path d="M 18 189 
L 18 25.92 
" style="fill: none; stroke: #000000; stroke-width: 0.8; stroke-linejoin: miter; stroke-linecap: square"/>
   </g>
   <g id="patch_4">
    <path d="M 129.6 189 
L 129.6 25.92 
" style="fill: none; stroke: #000000; stroke-width: 0.8; stroke-linejoin: miter; stroke-linecap: square"/>
   </g>
   <g id="patch_5">
    <path d="M 18 189 
L 129.6 189 
" style="fill: none; stroke: #000000; stroke-width: 0.8; stroke-linejoin: miter; stroke-linecap: square"/>
   </g>
   <g id="patch_6">
    <path d="M 18 25.92 
L 129.6 25.92 
" style="fill: none; stroke: #000000; stroke-width: 0.8; stroke-linejoin: miter; stroke-linecap: square"/>
   </g>
  </g>
 </g>
 <defs>
  <clipPath id="p116bd571f4">
   <rect x="18" y="25.92" width="111.6" height="163.08"/>
  </clipPath>
 </defs>
</svg>
