<?xml version="1.0" encoding="utf-8" standalone="no"?>
<!DOCTYPE svg PUBLIC "-//W3C//DTD SVG 1.1//EN"
  "http://www.w3.org/Graphics/SVG/1.1/DTD/svg11.dtd">
<svg xmlns:xlink="http://www.w3.org/1999/xlink" width="144pt" height="216pt" viewBox="0 0 144 216" xmlns="http://www.w3.org/2000/svg" version="1.1">
 <metadata>
  <rdf:RDF xmlns:dc="http://purl.org/dc/elements/1.1/" xmlns:cc="http://creativecommons.org/ns#" xmlns:rdf="http://www.w3.org/1999/02/22-rdf-syntax-ns#">
   <cc:Work>
    <dc:type rdf:resource="http://purl.org/dc/dcmitype/StillImage"/>
    <dc:date>2022-06-28T09:16:08.412538</dc:date>
    <dc:format>image/svg+xml</dc:format>
    <dc:creator>
     <cc:Agent>
      <dc:title>Matplotlib v3.5.1, https://matplotlib.org/</dc:title>
     </cc:Agent>
    </dc:creator>
   </cc:Work>
  </rdf:RDF>
 </metadata>
 <defs>
  <style type="text/css">*{stroke-linejoin: round; stroke-linecap: butt}</style>
 </defs>
 <g id="figure_1">
  <g id="patch_1">
   <path d="M 0 216 
L 144 216 
L 144 0 
L 0 0 
L 0 216 
z
" style="fill: none"/>
  </g>
  <g id="axes_1">
   <g id="patch_2">
    <path d="M 18 189 
L 129.6 189 
L 129.6 25.92 
L 18 25.92 
z
" style="fill: #ffffff"/>
   </g>
   <g id="PathCollection_1">
    <defs>
     <path id="m98ea67da45" d="M 0 2.738613 
C 0.726289 2.738613 1.422928 2.450055 1.936492 1.936492 
C 2.450055 1.422928 2.738613 0.726289 2.738613 0 
C 2.738613 -0.726289 2.450055 -1.422928 1.936492 -1.936492 
C 1.422928 -2.450055 0.726289 -2.738613 0 -2.738613 
C -0.726289 -2.738613 -1.422928 -2.450055 -1.936492 -1.936492 
C -2.450055 -1.422928 -2.738613 -0.726289 -2.738613 0 
C -2.738613 0.726289 -2.450055 1.422928 -1.936492 1.936492 
C -1.422928 2.450055 -0.726289 2.738613 0 2.738613 
z
" style="stroke: #ff0000; stroke-width: 1.75"/>
    </defs>
    <g clip-path="url(#p41783279d0)">
     <use xlink:href="#m98ea67da45" x="80.775" y="83.92143" style="fill: #ff0000; stroke: #ff0000; stroke-width: 1.75"/>
     <use xlink:href="#m98ea67da45" x="59.85" y="95.690715" style="fill: #ff0000; stroke: #ff0000; stroke-width: 1.75"/>
     <use xlink:href="#m98ea67da45" x="66.825" y="107.46" style="fill: #ff0000; stroke: #ff0000; stroke-width: 1.75"/>
     <use xlink:href="#m98ea67da45" x="80.775" y="107.46" style="fill: #ff0000; stroke: #ff0000; stroke-width: 1.75"/>
     <use xlink:href="#m98ea67da45" x="94.725" y="107.46" style="fill: #ff0000; stroke: #ff0000; stroke-width: 1.75"/>
     <use xlink:href="#m98ea67da45" x="59.85" y="119.229285" style="fill: #ff0000; stroke: #ff0000; stroke-width: 1.75"/>
     <use xlink:href="#m98ea67da45" x="80.775" y="130.99857" style="fill: #ff0000; stroke: #ff0000; stroke-width: 1.75"/>
    </g>
   </g>
   <g id="PathCollection_2">
    <defs>
     <path id="C0_0_640320e571" d="M 0 2.738613 
C 0.726289 2.738613 1.422928 2.450055 1.936492 1.936492 
C 2.450055 1.422928 2.738613 0.726289 2.738613 -0 
C 2.738613 -0.726289 2.450055 -1.422928 1.936492 -1.936492 
C 1.422928 -2.450055 0.726289 -2.738613 0 -2.738613 
C -0.726289 -2.738613 -1.422928 -2.450055 -1.936492 -1.936492 
C -2.450055 -1.422928 -2.738613 -0.726289 -2.738613 0 
C -2.738613 0.726289 -2.450055 1.422928 -1.936492 1.936492 
C -1.422928 2.450055 -0.726289 2.738613 0 2.738613 
z
"/>
    </defs>
    <g clip-path="url(#p41783279d0)">
     <use xlink:href="#C0_0_640320e571" x="66.825" y="83.92143" style="fill: none; stroke: #ff0000; stroke-width: 1.75"/>
    </g>
    <g clip-path="url(#p41783279d0)">
     <use xlink:href="#C0_0_640320e571" x="73.8" y="95.690715" style="fill: none; stroke: #ff0000; stroke-width: 1.75"/>
    </g>
    <g clip-path="url(#p41783279d0)">
     <use xlink:href="#C0_0_640320e571" x="87.75" y="95.690715" style="fill: none; stroke: #ff0000; stroke-width: 1.75"/>
    </g>
    <g clip-path="url(#p41783279d0)">
     <use xlink:href="#C0_0_640320e571" x="52.875" y="107.46" style="fill: none; stroke: #ff0000; stroke-width: 1.75"/>
    </g>
    <g clip-path="url(#p41783279d0)">
     <use xlink:href="#C0_0_640320e571" x="73.8" y="119.229285" style="fill: none; stroke: #ff0000; stroke-width: 1.75"/>
    </g>
    <g clip-path="url(#p41783279d0)">
     <use xlink:href="#C0_0_640320e571" x="87.75" y="119.229285" style="fill: none; stroke: #ff0000; stroke-width: 1.75"/>
    </g>
    <g clip-path="url(#p41783279d0)">
     <use xlink:href="#C0_0_640320e571" x="66.825" y="130.99857" style="fill: none; stroke: #ff0000; stroke-width: 1.75"/>
    </g>
   </g>
   <g id="PathCollection_3">
    <path d="M 104.802554 114.631839 
C 104.935156 114.631839 105.062344 114.579156 105.156107 114.485393 
C 105.249871 114.391629 105.302554 114.264441 105.302554 114.131839 
C 105.302554 113.999238 105.249871 113.872049 105.156107 113.778286 
C 105.062344 113.684523 104.935156 113.631839 104.802554 113.631839 
C 104.669952 113.631839 104.542764 113.684523 104.449001 113.778286 
C 104.355237 113.872049 104.302554 113.999238 104.302554 114.131839 
C 104.302554 114.264441 104.355237 114.391629 104.449001 114.485393 
C 104.542764 114.579156 104.669952 114.631839 104.802554 114.631839 
z
" clip-path="url(#p41783279d0)" style="stroke: #000000"/>
    <path d="M 100.400129 108.490904 
C 100.574642 108.490904 100.742031 108.421569 100.865431 108.298169 
C 100.988831 108.174769 101.058166 108.00738 101.058166 107.832867 
C 101.058166 107.658353 100.988831 107.490964 100.865431 107.367564 
C 100.742031 107.244164 100.574642 107.17483 100.400129 107.17483 
C 100.225615 107.17483 100.058226 107.244164 99.934826 107.367564 
C 99.811427 107.490964 99.742092 107.658353 99.742092 107.832867 
C 99.742092 108.00738 99.811427 108.174769 99.934826 108.298169 
C 100.058226 108.421569 100.225615 108.490904 100.400129 108.490904 
z
" clip-path="url(#p41783279d0)" style="stroke: #000000"/>
    <path d="M 91.633331 95.965308 
C 91.996071 95.965308 92.344003 95.82119 92.600499 95.564694 
C 92.856995 95.308198 93.001113 94.960266 93.001113 94.597525 
C 93.001113 94.234785 92.856995 93.886853 92.600499 93.630357 
C 92.344003 93.373861 91.996071 93.229743 91.633331 93.229743 
C 91.27059 93.229743 90.922658 93.373861 90.666162 93.630357 
C 90.409666 93.886853 90.265548 94.234785 90.265548 94.597525 
C 90.265548 94.960266 90.409666 95.308198 90.666162 95.564694 
C 90.922658 95.82119 91.27059 95.965308 91.633331 95.965308 
z
" clip-path="url(#p41783279d0)" style="stroke: #000000"/>
    <path d="M 89.693969 94.690222 
C 90.064548 94.690222 90.419999 94.542989 90.682038 94.28095 
C 90.944077 94.018911 91.09131 93.66346 91.09131 93.292881 
C 91.09131 92.922302 90.944077 92.56685 90.682038 92.304811 
C 90.419999 92.042772 90.064548 91.89554 89.693969 91.89554 
C 89.323389 91.89554 88.967938 92.042772 88.705899 92.304811 
C 88.44386 92.56685 88.296627 92.922302 88.296627 93.292881 
C 88.296627 93.66346 88.44386 94.018911 88.705899 94.28095 
C 88.967938 94.542989 89.323389 94.690222 89.693969 94.690222 
z
" clip-path="url(#p41783279d0)" style="stroke: #000000"/>
    <path d="M 84.271448 77.800696 
C 84.40405 77.800696 84.531238 77.748013 84.625002 77.65425 
C 84.718765 77.560486 84.771448 77.433298 84.771448 77.300696 
C 84.771448 77.168095 84.718765 77.040906 84.625002 76.947143 
C 84.531238 76.853379 84.40405 76.800696 84.271448 76.800696 
C 84.138847 76.800696 84.011658 76.853379 83.917895 76.947143 
C 83.824131 77.040906 83.771448 77.168095 83.771448 77.300696 
C 83.771448 77.433298 83.824131 77.560486 83.917895 77.65425 
C 84.011658 77.748013 84.138847 77.800696 84.271448 77.800696 
z
" clip-path="url(#p41783279d0)" style="stroke: #000000"/>
    <path d="M 80.477124 60.37531 
C 80.609725 60.37531 80.736914 60.322627 80.830677 60.228864 
C 80.92444 60.1351 80.977124 60.007912 80.977124 59.87531 
C 80.977124 59.742709 80.92444 59.61552 80.830677 59.521757 
C 80.736914 59.427994 80.609725 59.37531 80.477124 59.37531 
C 80.344522 59.37531 80.217334 59.427994 80.12357 59.521757 
C 80.029807 59.61552 79.977124 59.742709 79.977124 59.87531 
C 79.977124 60.007912 80.029807 60.1351 80.12357 60.228864 
C 80.217334 60.322627 80.344522 60.37531 80.477124 60.37531 
z
" clip-path="url(#p41783279d0)" style="stroke: #000000"/>
    <path d="M 92.208641 119.356115 
C 92.569751 119.356115 92.916119 119.212645 93.171462 118.957301 
C 93.426805 118.701958 93.570276 118.35559 93.570276 117.99448 
C 93.570276 117.63337 93.426805 117.287002 93.171462 117.031659 
C 92.916119 116.776316 92.569751 116.632845 92.208641 116.632845 
C 91.847531 116.632845 91.501163 116.776316 91.24582 117.031659 
C 90.990476 117.287002 90.847006 117.63337 90.847006 117.99448 
C 90.847006 118.35559 90.990476 118.701958 91.24582 118.957301 
C 91.501163 119.212645 91.847531 119.356115 92.208641 119.356115 
z
" clip-path="url(#p41783279d0)" style="stroke: #000000"/>
    <path d="M 86.489578 98.326143 
C 86.773437 98.326143 87.045709 98.213364 87.246428 98.012645 
C 87.447147 97.811926 87.559925 97.539654 87.559925 97.255795 
C 87.559925 96.971936 87.447147 96.699664 87.246428 96.498945 
C 87.045709 96.298226 86.773437 96.185447 86.489578 96.185447 
C 86.205718 96.185447 85.933447 96.298226 85.732728 96.498945 
C 85.532009 96.699664 85.41923 96.971936 85.41923 97.255795 
C 85.41923 97.539654 85.532009 97.811926 85.732728 98.012645 
C 85.933447 98.213364 86.205718 98.326143 86.489578 98.326143 
z
" clip-path="url(#p41783279d0)" style="stroke: #000000"/>
    <path d="M 84.201085 94.500825 
C 84.358776 94.500825 84.510029 94.438174 84.621533 94.32667 
C 84.733037 94.215166 84.795688 94.063912 84.795688 93.906222 
C 84.795688 93.748531 84.733037 93.597278 84.621533 93.485773 
C 84.510029 93.374269 84.358776 93.311618 84.201085 93.311618 
C 84.043394 93.311618 83.892141 93.374269 83.780637 93.485773 
C 83.669133 93.597278 83.606481 93.748531 83.606481 93.906222 
C 83.606481 94.063912 83.669133 94.215166 83.780637 94.32667 
C 83.892141 94.438174 84.043394 94.500825 84.201085 94.500825 
z
" clip-path="url(#p41783279d0)" style="stroke: #000000"/>
    <path d="M 82.501217 88.264766 
C 82.880591 88.264766 83.244478 88.114039 83.512736 87.845782 
C 83.780993 87.577524 83.93172 87.213637 83.93172 86.834263 
C 83.93172 86.45489 83.780993 86.091003 83.512736 85.822745 
C 83.244478 85.554487 82.880591 85.403761 82.501217 85.403761 
C 82.121844 85.403761 81.757957 85.554487 81.489699 85.822745 
C 81.221441 86.091003 81.070715 86.45489 81.070715 86.834263 
C 81.070715 87.213637 81.221441 87.577524 81.489699 87.845782 
C 81.757957 88.114039 82.121844 88.264766 82.501217 88.264766 
z
" clip-path="url(#p41783279d0)" style="stroke: #000000"/>
    <path d="M 90.188148 131.050431 
C 90.32075 131.050431 90.447938 130.997748 90.541702 130.903985 
C 90.635465 130.810221 90.688148 130.683033 90.688148 130.550431 
C 90.688148 130.41783 90.635465 130.290641 90.541702 130.196878 
C 90.447938 130.103115 90.32075 130.050431 90.188148 130.050431 
C 90.055547 130.050431 89.928358 130.103115 89.834595 130.196878 
C 89.740832 130.290641 89.688148 130.41783 89.688148 130.550431 
C 89.688148 130.683033 89.740832 130.810221 89.834595 130.903985 
C 89.928358 130.997748 90.055547 131.050431 90.188148 131.050431 
z
" clip-path="url(#p41783279d0)" style="stroke: #000000"/>
    <path d="M 86.187604 119.573317 
C 86.320205 119.573317 86.447394 119.520634 86.541157 119.42687 
C 86.634921 119.333107 86.687604 119.205918 86.687604 119.073317 
C 86.687604 118.940715 86.634921 118.813527 86.541157 118.719763 
C 86.447394 118.626 86.320205 118.573317 86.187604 118.573317 
C 86.055002 118.573317 85.927814 118.626 85.83405 118.719763 
C 85.740287 118.813527 85.687604 118.940715 85.687604 119.073317 
C 85.687604 119.205918 85.740287 119.333107 85.83405 119.42687 
C 85.927814 119.520634 86.055002 119.573317 86.187604 119.573317 
z
" clip-path="url(#p41783279d0)" style="stroke: #000000"/>
    <path d="M 80.854057 101.08157 
C 81.028571 101.08157 81.19596 101.012235 81.31936 100.888835 
C 81.442759 100.765436 81.512094 100.598046 81.512094 100.423533 
C 81.512094 100.249019 81.442759 100.08163 81.31936 99.95823 
C 81.19596 99.834831 81.028571 99.765496 80.854057 99.765496 
C 80.679544 99.765496 80.512155 99.834831 80.388755 99.95823 
C 80.265355 100.08163 80.19602 100.249019 80.19602 100.423533 
C 80.19602 100.598046 80.265355 100.765436 80.388755 100.888835 
C 80.512155 101.012235 80.679544 101.08157 80.854057 101.08157 
z
" clip-path="url(#p41783279d0)" style="stroke: #000000"/>
    <path d="M 76.774826 95.107465 
C 77.004499 95.107465 77.224795 95.016215 77.387198 94.853812 
C 77.549601 94.691409 77.640851 94.471113 77.640851 94.24144 
C 77.640851 94.011767 77.549601 93.791471 77.387198 93.629068 
C 77.224795 93.466664 77.004499 93.375415 76.774826 93.375415 
C 76.545153 93.375415 76.324857 93.466664 76.162453 93.629068 
C 76.00005 93.791471 75.9088 94.011767 75.9088 94.24144 
C 75.9088 94.471113 76.00005 94.691409 76.162453 94.853812 
C 76.324857 95.016215 76.545153 95.107465 76.774826 95.107465 
z
" clip-path="url(#p41783279d0)" style="stroke: #000000"/>
    <path d="M 75.687092 88.825628 
C 75.819694 88.825628 75.946882 88.772945 76.040646 88.679181 
C 76.134409 88.585418 76.187092 88.458229 76.187092 88.325628 
C 76.187092 88.193026 76.134409 88.065838 76.040646 87.972075 
C 75.946882 87.878311 75.819694 87.825628 75.687092 87.825628 
C 75.554491 87.825628 75.427302 87.878311 75.333539 87.972075 
C 75.239775 88.065838 75.187092 88.193026 75.187092 88.325628 
C 75.187092 88.458229 75.239775 88.585418 75.333539 88.679181 
C 75.427302 88.772945 75.554491 88.825628 75.687092 88.825628 
z
" clip-path="url(#p41783279d0)" style="stroke: #000000"/>
    <path d="M 84.718055 137.049602 
C 84.892569 137.049602 85.059958 136.980268 85.183358 136.856868 
C 85.306757 136.733468 85.376092 136.566079 85.376092 136.391565 
C 85.376092 136.217052 85.306757 136.049663 85.183358 135.926263 
C 85.059958 135.802863 84.892569 135.733528 84.718055 135.733528 
C 84.543542 135.733528 84.376152 135.802863 84.252753 135.926263 
C 84.129353 136.049663 84.060018 136.217052 84.060018 136.391565 
C 84.060018 136.566079 84.129353 136.733468 84.252753 136.856868 
C 84.376152 136.980268 84.543542 137.049602 84.718055 137.049602 
z
" clip-path="url(#p41783279d0)" style="stroke: #000000"/>
    <path d="M 83.724625 128.965848 
C 83.882316 128.965848 84.033569 128.903197 84.145073 128.791693 
C 84.256577 128.680189 84.319228 128.528935 84.319228 128.371244 
C 84.319228 128.213554 84.256577 128.0623 84.145073 127.950796 
C 84.033569 127.839292 83.882316 127.776641 83.724625 127.776641 
C 83.566934 127.776641 83.415681 127.839292 83.304177 127.950796 
C 83.192672 128.0623 83.130021 128.213554 83.130021 128.371244 
C 83.130021 128.528935 83.192672 128.680189 83.304177 128.791693 
C 83.415681 128.903197 83.566934 128.965848 83.724625 128.965848 
z
" clip-path="url(#p41783279d0)" style="stroke: #000000"/>
    <path d="M 71.408623 97.663098 
C 71.606908 97.663098 71.797099 97.584318 71.937308 97.444109 
C 72.077517 97.3039 72.156297 97.113709 72.156297 96.915424 
C 72.156297 96.717138 72.077517 96.526947 71.937308 96.386738 
C 71.797099 96.246529 71.606908 96.167749 71.408623 96.167749 
C 71.210337 96.167749 71.020146 96.246529 70.879937 96.386738 
C 70.739728 96.526947 70.660948 96.717138 70.660948 96.915424 
C 70.660948 97.113709 70.739728 97.3039 70.879937 97.444109 
C 71.020146 97.584318 71.210337 97.663098 71.408623 97.663098 
z
" clip-path="url(#p41783279d0)" style="stroke: #000000"/>
    <path d="M 67.910537 84.803195 
C 68.279588 84.803195 68.633574 84.656569 68.894532 84.395611 
C 69.155491 84.134652 69.302116 83.780667 69.302116 83.411616 
C 69.302116 83.042565 69.155491 82.688579 68.894532 82.427621 
C 68.633574 82.166662 68.279588 82.020037 67.910537 82.020037 
C 67.541486 82.020037 67.187501 82.166662 66.926542 82.427621 
C 66.665584 82.688579 66.518958 83.042565 66.518958 83.411616 
C 66.518958 83.780667 66.665584 84.134652 66.926542 84.395611 
C 67.187501 84.656569 67.541486 84.803195 67.910537 84.803195 
z
" clip-path="url(#p41783279d0)" style="stroke: #000000"/>
    <path d="M 77.437965 130.507182 
C 77.740231 130.507182 78.030158 130.38709 78.243892 130.173356 
C 78.457627 129.959621 78.577718 129.669694 78.577718 129.367428 
C 78.577718 129.065162 78.457627 128.775235 78.243892 128.561501 
C 78.030158 128.347766 77.740231 128.227675 77.437965 128.227675 
C 77.135698 128.227675 76.845772 128.347766 76.632037 128.561501 
C 76.418303 128.775235 76.298211 129.065162 76.298211 129.367428 
C 76.298211 129.669694 76.418303 129.959621 76.632037 130.173356 
C 76.845772 130.38709 77.135698 130.507182 77.437965 130.507182 
z
" clip-path="url(#p41783279d0)" style="stroke: #000000"/>
    <path d="M 71.69859 123.906223 
C 71.896875 123.906223 72.087066 123.827443 72.227275 123.687234 
C 72.367484 123.547025 72.446264 123.356834 72.446264 123.158549 
C 72.446264 122.960263 72.367484 122.770072 72.227275 122.629863 
C 72.087066 122.489654 71.896875 122.410874 71.69859 122.410874 
C 71.500304 122.410874 71.310113 122.489654 71.169904 122.629863 
C 71.029695 122.770072 70.950915 122.960263 70.950915 123.158549 
C 70.950915 123.356834 71.029695 123.547025 71.169904 123.687234 
C 71.310113 123.827443 71.500304 123.906223 71.69859 123.906223 
z
" clip-path="url(#p41783279d0)" style="stroke: #000000"/>
    <path d="M 71.908513 116.726169 
C 72.285023 116.726169 72.646163 116.57658 72.912396 116.310347 
C 73.178629 116.044114 73.328219 115.682974 73.328219 115.306463 
C 73.328219 114.929953 73.178629 114.568813 72.912396 114.30258 
C 72.646163 114.036347 72.285023 113.886757 71.908513 113.886757 
C 71.532002 113.886757 71.170862 114.036347 70.904629 114.30258 
C 70.638396 114.568813 70.488807 114.929953 70.488807 115.306463 
C 70.488807 115.682974 70.638396 116.044114 70.904629 116.310347 
C 71.170862 116.57658 71.532002 116.726169 71.908513 116.726169 
z
" clip-path="url(#p41783279d0)" style="stroke: #000000"/>
    <path d="M 70.919521 111.405588 
C 71.077212 111.405588 71.228465 111.342937 71.33997 111.231433 
C 71.451474 111.119929 71.514125 110.968675 71.514125 110.810985 
C 71.514125 110.653294 71.451474 110.502041 71.33997 110.390537 
C 71.228465 110.279032 71.077212 110.216381 70.919521 110.216381 
C 70.761831 110.216381 70.610577 110.279032 70.499073 110.390537 
C 70.387569 110.502041 70.324918 110.653294 70.324918 110.810985 
C 70.324918 110.968675 70.387569 111.119929 70.499073 111.231433 
C 70.610577 111.342937 70.761831 111.405588 70.919521 111.405588 
z
" clip-path="url(#p41783279d0)" style="stroke: #000000"/>
    <path d="M 62.675533 99.814232 
C 62.965922 99.814232 63.244457 99.698859 63.449793 99.493523 
C 63.65513 99.288187 63.770502 99.009652 63.770502 98.719263 
C 63.770502 98.428874 63.65513 98.150339 63.449793 97.945003 
C 63.244457 97.739666 62.965922 97.624294 62.675533 97.624294 
C 62.385144 97.624294 62.106609 97.739666 61.901273 97.945003 
C 61.695937 98.150339 61.580564 98.428874 61.580564 98.719263 
C 61.580564 99.009652 61.695937 99.288187 61.901273 99.493523 
C 62.106609 99.698859 62.385144 99.814232 62.675533 99.814232 
z
" clip-path="url(#p41783279d0)" style="stroke: #000000"/>
    <path d="M 59.874362 81.126992 
C 60.006964 81.126992 60.134152 81.074309 60.227916 80.980545 
C 60.321679 80.886782 60.374362 80.759593 60.374362 80.626992 
C 60.374362 80.49439 60.321679 80.367202 60.227916 80.273438 
C 60.134152 80.179675 60.006964 80.126992 59.874362 80.126992 
C 59.741761 80.126992 59.614572 80.179675 59.520809 80.273438 
C 59.427045 80.367202 59.374362 80.49439 59.374362 80.626992 
C 59.374362 80.759593 59.427045 80.886782 59.520809 80.980545 
C 59.614572 81.074309 59.741761 81.126992 59.874362 81.126992 
z
" clip-path="url(#p41783279d0)" style="stroke: #000000"/>
    <path d="M 65.655204 135.781811 
C 66.019553 135.781811 66.369028 135.637054 66.626661 135.37942 
C 66.884295 135.121787 67.029052 134.772312 67.029052 134.407963 
C 67.029052 134.043614 66.884295 133.694139 66.626661 133.436505 
C 66.369028 133.178872 66.019553 133.034115 65.655204 133.034115 
C 65.290855 133.034115 64.94138 133.178872 64.683747 133.436505 
C 64.426113 133.694139 64.281356 134.043614 64.281356 134.407963 
C 64.281356 134.772312 64.426113 135.121787 64.683747 135.37942 
C 64.94138 135.637054 65.290855 135.781811 65.655204 135.781811 
z
" clip-path="url(#p41783279d0)" style="stroke: #000000"/>
    <path d="M 59.907971 121.429287 
C 60.295567 121.429287 60.66734 121.275294 60.941412 121.001222 
C 61.215484 120.72715 61.369477 120.355377 61.369477 119.967781 
C 61.369477 119.580185 61.215484 119.208412 60.941412 118.93434 
C 60.66734 118.660268 60.295567 118.506275 59.907971 118.506275 
C 59.520375 118.506275 59.148602 118.660268 58.87453 118.93434 
C 58.600458 119.208412 58.446465 119.580185 58.446465 119.967781 
C 58.446465 120.355377 58.600458 120.72715 58.87453 121.001222 
C 59.148602 121.275294 59.520375 121.429287 59.907971 121.429287 
z
" clip-path="url(#p41783279d0)" style="stroke: #000000"/>
    <path d="M 56.263238 115.773224 
C 56.395839 115.773224 56.523028 115.72054 56.616791 115.626777 
C 56.710554 115.533014 56.763238 115.405825 56.763238 115.273224 
C 56.763238 115.140622 56.710554 115.013434 56.616791 114.91967 
C 56.523028 114.825907 56.395839 114.773224 56.263238 114.773224 
C 56.130636 114.773224 56.003448 114.825907 55.909684 114.91967 
C 55.815921 115.013434 55.763238 115.140622 55.763238 115.273224 
C 55.763238 115.405825 55.815921 115.533014 55.909684 115.626777 
C 56.003448 115.72054 56.130636 115.773224 56.263238 115.773224 
z
" clip-path="url(#p41783279d0)" style="stroke: #000000"/>
    <path d="M 55.67479 111.75575 
C 55.807392 111.75575 55.93458 111.703067 56.028343 111.609303 
C 56.122107 111.51554 56.17479 111.388351 56.17479 111.25575 
C 56.17479 111.123148 56.122107 110.99596 56.028343 110.902196 
C 55.93458 110.808433 55.807392 110.75575 55.67479 110.75575 
C 55.542189 110.75575 55.415 110.808433 55.321237 110.902196 
C 55.227473 110.99596 55.17479 111.123148 55.17479 111.25575 
C 55.17479 111.388351 55.227473 111.51554 55.321237 111.609303 
C 55.415 111.703067 55.542189 111.75575 55.67479 111.75575 
z
" clip-path="url(#p41783279d0)" style="stroke: #000000"/>
    <path d="M 50.69043 101.612564 
C 50.823031 101.612564 50.95022 101.559881 51.043983 101.466118 
C 51.137747 101.372354 51.19043 101.245166 51.19043 101.112564 
C 51.19043 100.979963 51.137747 100.852774 51.043983 100.759011 
C 50.95022 100.665247 50.823031 100.612564 50.69043 100.612564 
C 50.557828 100.612564 50.43064 100.665247 50.336876 100.759011 
C 50.243113 100.852774 50.19043 100.979963 50.19043 101.112564 
C 50.19043 101.245166 50.243113 101.372354 50.336876 101.466118 
C 50.43064 101.559881 50.557828 101.612564 50.69043 101.612564 
z
" clip-path="url(#p41783279d0)" style="stroke: #000000"/>
    <path d="M 60.692957 134.368933 
C 60.825559 134.368933 60.952747 134.31625 61.046511 134.222486 
C 61.140274 134.128723 61.192957 134.001534 61.192957 133.868933 
C 61.192957 133.736331 61.140274 133.609143 61.046511 133.515379 
C 60.952747 133.421616 60.825559 133.368933 60.692957 133.368933 
C 60.560356 133.368933 60.433167 133.421616 60.339404 133.515379 
C 60.24564 133.609143 60.192957 133.736331 60.192957 133.868933 
C 60.192957 134.001534 60.24564 134.128723 60.339404 134.222486 
C 60.433167 134.31625 60.560356 134.368933 60.692957 134.368933 
z
" clip-path="url(#p41783279d0)" style="stroke: #000000"/>
    <path d="M 51.793363 123.593068 
C 51.925964 123.593068 52.053153 123.540385 52.146916 123.446621 
C 52.24068 123.352858 52.293363 123.22567 52.293363 123.093068 
C 52.293363 122.960466 52.24068 122.833278 52.146916 122.739515 
C 52.053153 122.645751 51.925964 122.593068 51.793363 122.593068 
C 51.660761 122.593068 51.533573 122.645751 51.439809 122.739515 
C 51.346046 122.833278 51.293363 122.960466 51.293363 123.093068 
C 51.293363 123.22567 51.346046 123.352858 51.439809 123.446621 
C 51.533573 123.540385 51.660761 123.593068 51.793363 123.593068 
z
" clip-path="url(#p41783279d0)" style="stroke: #000000"/>
    <path d="M 49.575423 117.909906 
C 49.708025 117.909906 49.835213 117.857223 49.928977 117.76346 
C 50.02274 117.669696 50.075423 117.542508 50.075423 117.409906 
C 50.075423 117.277305 50.02274 117.150116 49.928977 117.056353 
C 49.835213 116.962589 49.708025 116.909906 49.575423 116.909906 
C 49.442822 116.909906 49.315634 116.962589 49.22187 117.056353 
C 49.128107 117.150116 49.075423 117.277305 49.075423 117.409906 
C 49.075423 117.542508 49.128107 117.669696 49.22187 117.76346 
C 49.315634 117.857223 49.442822 117.909906 49.575423 117.909906 
z
" clip-path="url(#p41783279d0)" style="stroke: #000000"/>
    <path d="M 42.947271 152.764681 
C 43.079872 152.764681 43.207061 152.711998 43.300824 152.618235 
C 43.394588 152.524471 43.447271 152.397283 43.447271 152.264681 
C 43.447271 152.13208 43.394588 152.004891 43.300824 151.911128 
C 43.207061 151.817364 43.079872 151.764681 42.947271 151.764681 
C 42.814669 151.764681 42.687481 151.817364 42.593717 151.911128 
C 42.499954 152.004891 42.447271 152.13208 42.447271 152.264681 
C 42.447271 152.397283 42.499954 152.524471 42.593717 152.618235 
C 42.687481 152.711998 42.814669 152.764681 42.947271 152.764681 
z
" clip-path="url(#p41783279d0)" style="stroke: #000000"/>
    <path d="M 32.929943 124.601209 
C 33.062544 124.601209 33.189733 124.548525 33.283496 124.454762 
C 33.37726 124.360999 33.429943 124.23381 33.429943 124.101209 
C 33.429943 123.968607 33.37726 123.841419 33.283496 123.747655 
C 33.189733 123.653892 33.062544 123.601209 32.929943 123.601209 
C 32.797341 123.601209 32.670153 123.653892 32.57639 123.747655 
C 32.482626 123.841419 32.429943 123.968607 32.429943 124.101209 
C 32.429943 124.23381 32.482626 124.360999 32.57639 124.454762 
C 32.670153 124.548525 32.797341 124.601209 32.929943 124.601209 
z
" clip-path="url(#p41783279d0)" style="stroke: #000000"/>
   </g>
   <g id="matplotlib.axis_1">
    <g id="xtick_1">
     <g id="line2d_1">
      <defs>
       <path id="m72e0590f19" d="M 0 0 
L 0 3.5 
" style="stroke: #000000; stroke-width: 0.8"/>
      </defs>
      <g>
       <use xlink:href="#m72e0590f19" x="18" y="189" style="stroke: #000000; stroke-width: 0.8"/>
      </g>
     </g>
     <g id="text_1">
      <!-- −10 -->
      <g transform="translate(7.447656 203.598437)scale(0.1 -0.1)">
       <defs>
        <path id="DejaVuSans-2212" d="M 678 2272 
L 4684 2272 
L 4684 1741 
L 678 1741 
L 678 2272 
z
" transform="scale(0.015625)"/>
        <path id="DejaVuSans-31" d="M 794 531 
L 1825 531 
L 1825 4091 
L 703 3866 
L 703 4441 
L 1819 4666 
L 2450 4666 
L 2450 531 
L 3481 531 
L 3481 0 
L 794 0 
L 794 531 
z
" transform="scale(0.015625)"/>
        <path id="DejaVuSans-30" d="M 2034 4250 
Q 1547 4250 1301 3770 
Q 1056 3291 1056 2328 
Q 1056 1369 1301 889 
Q 1547 409 2034 409 
Q 2525 409 2770 889 
Q 3016 1369 3016 2328 
Q 3016 3291 2770 3770 
Q 2525 4250 2034 4250 
z
M 2034 4750 
Q 2819 4750 3233 4129 
Q 3647 3509 3647 2328 
Q 3647 1150 3233 529 
Q 2819 -91 2034 -91 
Q 1250 -91 836 529 
Q 422 1150 422 2328 
Q 422 3509 836 4129 
Q 1250 4750 2034 4750 
z
" transform="scale(0.015625)"/>
       </defs>
       <use xlink:href="#DejaVuSans-2212"/>
       <use xlink:href="#DejaVuSans-31" x="83.789062"/>
       <use xlink:href="#DejaVuSans-30" x="147.412109"/>
      </g>
     </g>
    </g>
    <g id="xtick_2">
     <g id="line2d_2">
      <g>
       <use xlink:href="#m72e0590f19" x="73.8" y="189" style="stroke: #000000; stroke-width: 0.8"/>
      </g>
     </g>
     <g id="text_2">
      <!-- 0 -->
      <g transform="translate(70.61875 203.598437)scale(0.1 -0.1)">
       <use xlink:href="#DejaVuSans-30"/>
      </g>
     </g>
    </g>
    <g id="xtick_3">
     <g id="line2d_3">
      <g>
       <use xlink:href="#m72e0590f19" x="129.6" y="189" style="stroke: #000000; stroke-width: 0.8"/>
      </g>
     </g>
     <g id="text_3">
      <!-- 10 -->
      <g transform="translate(123.2375 203.598437)scale(0.1 -0.1)">
       <use xlink:href="#DejaVuSans-31"/>
       <use xlink:href="#DejaVuSans-30" x="63.623047"/>
      </g>
     </g>
    </g>
   </g>
   <g id="matplotlib.axis_2">
    <g id="ytick_1">
     <g id="line2d_4">
      <defs>
       <path id="mda77278b9c" d="M 0 0 
L -3.5 0 
" style="stroke: #000000; stroke-width: 0.8"/>
      </defs>
      <g>
       <use xlink:href="#mda77278b9c" x="18" y="189" style="stroke: #000000; stroke-width: 0.8"/>
      </g>
     </g>
     <g id="text_4">
      <!-- −15 -->
      <g transform="translate(-10.104688 192.799219)scale(0.1 -0.1)">
       <defs>
        <path id="DejaVuSans-35" d="M 691 4666 
L 3169 4666 
L 3169 4134 
L 1269 4134 
L 1269 2991 
Q 1406 3038 1543 3061 
Q 1681 3084 1819 3084 
Q 2600 3084 3056 2656 
Q 3513 2228 3513 1497 
Q 3513 744 3044 326 
Q 2575 -91 1722 -91 
Q 1428 -91 1123 -41 
Q 819 9 494 109 
L 494 744 
Q 775 591 1075 516 
Q 1375 441 1709 441 
Q 2250 441 2565 725 
Q 2881 1009 2881 1497 
Q 2881 1984 2565 2268 
Q 2250 2553 1709 2553 
Q 1456 2553 1204 2497 
Q 953 2441 691 2322 
L 691 4666 
z
" transform="scale(0.015625)"/>
       </defs>
       <use xlink:href="#DejaVuSans-2212"/>
       <use xlink:href="#DejaVuSans-31" x="83.789062"/>
       <use xlink:href="#DejaVuSans-35" x="147.412109"/>
      </g>
     </g>
    </g>
    <g id="ytick_2">
     <g id="line2d_5">
      <g>
       <use xlink:href="#mda77278b9c" x="18" y="161.82" style="stroke: #000000; stroke-width: 0.8"/>
      </g>
     </g>
     <g id="text_5">
      <!-- −10 -->
      <g transform="translate(-10.104688 165.619219)scale(0.1 -0.1)">
       <use xlink:href="#DejaVuSans-2212"/>
       <use xlink:href="#DejaVuSans-31" x="83.789062"/>
       <use xlink:href="#DejaVuSans-30" x="147.412109"/>
      </g>
     </g>
    </g>
    <g id="ytick_3">
     <g id="line2d_6">
      <g>
       <use xlink:href="#mda77278b9c" x="18" y="134.64" style="stroke: #000000; stroke-width: 0.8"/>
      </g>
     </g>
     <g id="text_6">
      <!-- −5 -->
      <g transform="translate(-3.742188 138.439219)scale(0.1 -0.1)">
       <use xlink:href="#DejaVuSans-2212"/>
       <use xlink:href="#DejaVuSans-35" x="83.789062"/>
      </g>
     </g>
    </g>
    <g id="ytick_4">
     <g id="line2d_7">
      <g>
       <use xlink:href="#mda77278b9c" x="18" y="107.46" style="stroke: #000000; stroke-width: 0.8"/>
      </g>
     </g>
     <g id="text_7">
      <!-- 0 -->
      <g transform="translate(4.6375 111.259219)scale(0.1 -0.1)">
       <use xlink:href="#DejaVuSans-30"/>
      </g>
     </g>
    </g>
    <g id="ytick_5">
     <g id="line2d_8">
      <g>
       <use xlink:href="#mda77278b9c" x="18" y="80.28" style="stroke: #000000; stroke-width: 0.8"/>
      </g>
     </g>
     <g id="text_8">
      <!-- 5 -->
      <g transform="translate(4.6375 84.079219)scale(0.1 -0.1)">
       <use xlink:href="#DejaVuSans-35"/>
      </g>
     </g>
    </g>
    <g id="ytick_6">
     <g id="line2d_9">
      <g>
       <use xlink:href="#mda77278b9c" x="18" y="53.1" style="stroke: #000000; stroke-width: 0.8"/>
      </g>
     </g>
     <g id="text_9">
      <!-- 10 -->
      <g transform="translate(-1.725 56.899219)scale(0.1 -0.1)">
       <use xlink:href="#DejaVuSans-31"/>
       <use xlink:href="#DejaVuSans-30" x="63.623047"/>
      </g>
     </g>
    </g>
    <g id="ytick_7">
     <g id="line2d_10">
      <g>
       <use xlink:href="#mda77278b9c" x="18" y="25.92" style="stroke: #000000; stroke-width: 0.8"/>
      </g>
     </g>
     <g id="text_10">
      <!-- 15 -->
      <g transform="translate(-1.725 29.719219)scale(0.1 -0.1)">
       <use xlink:href="#DejaVuSans-31"/>
       <use xlink:href="#DejaVuSans-35" x="63.623047"/>
      </g>
     </g>
    </g>
   </g>
   <g id="patch_3">
    <path d="M 18 189 
L 18 25.92 
" style="fill: none; stroke: #000000; stroke-width: 0.8; stroke-linejoin: miter; stroke-linecap: square"/>
   </g>
   <g id="patch_4">
    <path d="M 129.6 189 
L 129.6 25.92 
" style="fill: none; stroke: #000000; stroke-width: 0.8; stroke-linejoin: miter; stroke-linecap: square"/>
   </g>
   <g id="patch_5">
    <path d="M 18 189 
L 129.6 189 
" style="fill: none; stroke: #000000; stroke-width: 0.8; stroke-linejoin: miter; stroke-linecap: square"/>
   </g>
   <g id="patch_6">
    <path d="M 18 25.92 
L 129.6 25.92 
" style="fill: none; stroke: #000000; stroke-width: 0.8; stroke-linejoin: miter; stroke-linecap: square"/>
   </g>
  </g>
 </g>
 <defs>
  <clipPath id="p41783279d0">
   <rect x="18" y="25.92" width="111.6" height="163.08"/>
  </clipPath>
 </defs>
</svg>
