<?xml version="1.0" encoding="utf-8" standalone="no"?>
<!DOCTYPE svg PUBLIC "-//W3C//DTD SVG 1.1//EN"
  "http://www.w3.org/Graphics/SVG/1.1/DTD/svg11.dtd">
<svg xmlns:xlink="http://www.w3.org/1999/xlink" width="144pt" height="216pt" viewBox="0 0 144 216" xmlns="http://www.w3.org/2000/svg" version="1.1">
 <metadata>
  <rdf:RDF xmlns:dc="http://purl.org/dc/elements/1.1/" xmlns:cc="http://creativecommons.org/ns#" xmlns:rdf="http://www.w3.org/1999/02/22-rdf-syntax-ns#">
   <cc:Work>
    <dc:type rdf:resource="http://purl.org/dc/dcmitype/StillImage"/>
    <dc:date>2022-06-18T00:14:25.028572</dc:date>
    <dc:format>image/svg+xml</dc:format>
    <dc:creator>
     <cc:Agent>
      <dc:title>Matplotlib v3.5.1, https://matplotlib.org/</dc:title>
     </cc:Agent>
    </dc:creator>
   </cc:Work>
  </rdf:RDF>
 </metadata>
 <defs>
  <style type="text/css">*{stroke-linejoin: round; stroke-linecap: butt}</style>
 </defs>
 <g id="figure_1">
  <g id="patch_1">
   <path d="M 0 216 
L 144 216 
L 144 0 
L 0 0 
L 0 216 
z
" style="fill: none"/>
  </g>
  <g id="axes_1">
   <g id="patch_2">
    <path d="M 18 189 
L 129.6 189 
L 129.6 25.92 
L 18 25.92 
z
" style="fill: #ffffff"/>
   </g>
   <g id="PathCollection_1">
    <defs>
     <path id="m7dbc6049bb" d="M 0 2.738613 
C 0.726289 2.738613 1.422928 2.450055 1.936492 1.936492 
C 2.450055 1.422928 2.738613 0.726289 2.738613 0 
C 2.738613 -0.726289 2.450055 -1.422928 1.936492 -1.936492 
C 1.422928 -2.450055 0.726289 -2.738613 0 -2.738613 
C -0.726289 -2.738613 -1.422928 -2.450055 -1.936492 -1.936492 
C -2.450055 -1.422928 -2.738613 -0.726289 -2.738613 0 
C -2.738613 0.726289 -2.450055 1.422928 -1.936492 1.936492 
C -1.422928 2.450055 -0.726289 2.738613 0 2.738613 
z
" style="stroke: #ff0000; stroke-width: 1.75"/>
    </defs>
    <g clip-path="url(#p2ed266266f)">
     <use xlink:href="#m7dbc6049bb" x="80.775" y="83.92143" style="fill: #ff0000; stroke: #ff0000; stroke-width: 1.75"/>
     <use xlink:href="#m7dbc6049bb" x="59.85" y="95.690715" style="fill: #ff0000; stroke: #ff0000; stroke-width: 1.75"/>
     <use xlink:href="#m7dbc6049bb" x="66.825" y="107.46" style="fill: #ff0000; stroke: #ff0000; stroke-width: 1.75"/>
     <use xlink:href="#m7dbc6049bb" x="80.775" y="107.46" style="fill: #ff0000; stroke: #ff0000; stroke-width: 1.75"/>
     <use xlink:href="#m7dbc6049bb" x="94.725" y="107.46" style="fill: #ff0000; stroke: #ff0000; stroke-width: 1.75"/>
     <use xlink:href="#m7dbc6049bb" x="59.85" y="119.229285" style="fill: #ff0000; stroke: #ff0000; stroke-width: 1.75"/>
     <use xlink:href="#m7dbc6049bb" x="80.775" y="130.99857" style="fill: #ff0000; stroke: #ff0000; stroke-width: 1.75"/>
    </g>
   </g>
   <g id="PathCollection_2">
    <defs>
     <path id="C0_0_d3a384925c" d="M 0 2.738613 
C 0.726289 2.738613 1.422928 2.450055 1.936492 1.936492 
C 2.450055 1.422928 2.738613 0.726289 2.738613 -0 
C 2.738613 -0.726289 2.450055 -1.422928 1.936492 -1.936492 
C 1.422928 -2.450055 0.726289 -2.738613 0 -2.738613 
C -0.726289 -2.738613 -1.422928 -2.450055 -1.936492 -1.936492 
C -2.450055 -1.422928 -2.738613 -0.726289 -2.738613 0 
C -2.738613 0.726289 -2.450055 1.422928 -1.936492 1.936492 
C -1.422928 2.450055 -0.726289 2.738613 0 2.738613 
z
"/>
    </defs>
    <g clip-path="url(#p2ed266266f)">
     <use xlink:href="#C0_0_d3a384925c" x="66.825" y="83.92143" style="fill: none; stroke: #ff0000; stroke-width: 1.75"/>
    </g>
    <g clip-path="url(#p2ed266266f)">
     <use xlink:href="#C0_0_d3a384925c" x="73.8" y="95.690715" style="fill: none; stroke: #ff0000; stroke-width: 1.75"/>
    </g>
    <g clip-path="url(#p2ed266266f)">
     <use xlink:href="#C0_0_d3a384925c" x="87.75" y="95.690715" style="fill: none; stroke: #ff0000; stroke-width: 1.75"/>
    </g>
    <g clip-path="url(#p2ed266266f)">
     <use xlink:href="#C0_0_d3a384925c" x="52.875" y="107.46" style="fill: none; stroke: #ff0000; stroke-width: 1.75"/>
    </g>
    <g clip-path="url(#p2ed266266f)">
     <use xlink:href="#C0_0_d3a384925c" x="73.8" y="119.229285" style="fill: none; stroke: #ff0000; stroke-width: 1.75"/>
    </g>
    <g clip-path="url(#p2ed266266f)">
     <use xlink:href="#C0_0_d3a384925c" x="87.75" y="119.229285" style="fill: none; stroke: #ff0000; stroke-width: 1.75"/>
    </g>
    <g clip-path="url(#p2ed266266f)">
     <use xlink:href="#C0_0_d3a384925c" x="66.825" y="130.99857" style="fill: none; stroke: #ff0000; stroke-width: 1.75"/>
    </g>
   </g>
   <g id="PathCollection_3">
    <path d="M 111.680596 77.587049 
C 111.680596 77.587049 111.680596 77.587049 111.680596 77.587049 
C 111.680596 77.587049 111.680596 77.587049 111.680596 77.587049 
C 111.680596 77.587049 111.680596 77.587049 111.680596 77.587049 
C 111.680596 77.587049 111.680596 77.587049 111.680596 77.587049 
C 111.680596 77.587049 111.680596 77.587049 111.680596 77.587049 
C 111.680596 77.587049 111.680596 77.587049 111.680596 77.587049 
C 111.680596 77.587049 111.680596 77.587049 111.680596 77.587049 
C 111.680596 77.587049 111.680596 77.587049 111.680596 77.587049 
z
" clip-path="url(#p2ed266266f)" style="stroke: #000000"/>
    <path d="M 117.179461 126.74637 
C 117.366988 126.74637 117.54686 126.671865 117.679461 126.539263 
C 117.812063 126.406662 117.886568 126.22679 117.886568 126.039263 
C 117.886568 125.851736 117.812063 125.671865 117.679461 125.539263 
C 117.54686 125.406662 117.366988 125.332156 117.179461 125.332156 
C 116.991934 125.332156 116.812063 125.406662 116.679461 125.539263 
C 116.54686 125.671865 116.472354 125.851736 116.472354 126.039263 
C 116.472354 126.22679 116.54686 126.406662 116.679461 126.539263 
C 116.812063 126.671865 116.991934 126.74637 117.179461 126.74637 
z
" clip-path="url(#p2ed266266f)" style="stroke: #000000"/>
    <path d="M 112.183374 108.667517 
C 112.420637 108.667517 112.648214 108.573251 112.815984 108.405481 
C 112.983754 108.237711 113.078019 108.010134 113.078019 107.772871 
C 113.078019 107.535609 112.983754 107.308032 112.815984 107.140262 
C 112.648214 106.972491 112.420637 106.878226 112.183374 106.878226 
C 111.946111 106.878226 111.718534 106.972491 111.550764 107.140262 
C 111.382994 107.308032 111.288728 107.535609 111.288728 107.772871 
C 111.288728 108.010134 111.382994 108.237711 111.550764 108.405481 
C 111.718534 108.573251 111.946111 108.667517 112.183374 108.667517 
z
" clip-path="url(#p2ed266266f)" style="stroke: #000000"/>
    <path d="M 111.236062 101.614966 
C 111.236062 101.614966 111.236062 101.614966 111.236062 101.614966 
C 111.236062 101.614966 111.236062 101.614966 111.236062 101.614966 
C 111.236062 101.614966 111.236062 101.614966 111.236062 101.614966 
C 111.236062 101.614966 111.236062 101.614966 111.236062 101.614966 
C 111.236062 101.614966 111.236062 101.614966 111.236062 101.614966 
C 111.236062 101.614966 111.236062 101.614966 111.236062 101.614966 
C 111.236062 101.614966 111.236062 101.614966 111.236062 101.614966 
C 111.236062 101.614966 111.236062 101.614966 111.236062 101.614966 
z
" clip-path="url(#p2ed266266f)" style="stroke: #000000"/>
    <path d="M 108.045997 89.416595 
C 108.045997 89.416595 108.045997 89.416595 108.045997 89.416595 
C 108.045997 89.416595 108.045997 89.416595 108.045997 89.416595 
C 108.045997 89.416595 108.045997 89.416595 108.045997 89.416595 
C 108.045997 89.416595 108.045997 89.416595 108.045997 89.416595 
C 108.045997 89.416595 108.045997 89.416595 108.045997 89.416595 
C 108.045997 89.416595 108.045997 89.416595 108.045997 89.416595 
C 108.045997 89.416595 108.045997 89.416595 108.045997 89.416595 
C 108.045997 89.416595 108.045997 89.416595 108.045997 89.416595 
z
" clip-path="url(#p2ed266266f)" style="stroke: #000000"/>
    <path d="M 99.351527 76.681273 
C 99.351527 76.681273 99.351527 76.681273 99.351527 76.681273 
C 99.351527 76.681273 99.351527 76.681273 99.351527 76.681273 
C 99.351527 76.681273 99.351527 76.681273 99.351527 76.681273 
C 99.351527 76.681273 99.351527 76.681273 99.351527 76.681273 
C 99.351527 76.681273 99.351527 76.681273 99.351527 76.681273 
C 99.351527 76.681273 99.351527 76.681273 99.351527 76.681273 
C 99.351527 76.681273 99.351527 76.681273 99.351527 76.681273 
C 99.351527 76.681273 99.351527 76.681273 99.351527 76.681273 
z
" clip-path="url(#p2ed266266f)" style="stroke: #000000"/>
    <path d="M 100.295212 70.426145 
C 100.295212 70.426145 100.295212 70.426145 100.295212 70.426145 
C 100.295212 70.426145 100.295212 70.426145 100.295212 70.426145 
C 100.295212 70.426145 100.295212 70.426145 100.295212 70.426145 
C 100.295212 70.426145 100.295212 70.426145 100.295212 70.426145 
C 100.295212 70.426145 100.295212 70.426145 100.295212 70.426145 
C 100.295212 70.426145 100.295212 70.426145 100.295212 70.426145 
C 100.295212 70.426145 100.295212 70.426145 100.295212 70.426145 
C 100.295212 70.426145 100.295212 70.426145 100.295212 70.426145 
z
" clip-path="url(#p2ed266266f)" style="stroke: #000000"/>
    <path d="M 94.168388 59.046133 
C 94.168388 59.046133 94.168388 59.046133 94.168388 59.046133 
C 94.168388 59.046133 94.168388 59.046133 94.168388 59.046133 
C 94.168388 59.046133 94.168388 59.046133 94.168388 59.046133 
C 94.168388 59.046133 94.168388 59.046133 94.168388 59.046133 
C 94.168388 59.046133 94.168388 59.046133 94.168388 59.046133 
C 94.168388 59.046133 94.168388 59.046133 94.168388 59.046133 
C 94.168388 59.046133 94.168388 59.046133 94.168388 59.046133 
C 94.168388 59.046133 94.168388 59.046133 94.168388 59.046133 
z
" clip-path="url(#p2ed266266f)" style="stroke: #000000"/>
    <path d="M 93.546205 47.894601 
C 93.546205 47.894601 93.546205 47.894601 93.546205 47.894601 
C 93.546205 47.894601 93.546205 47.894601 93.546205 47.894601 
C 93.546205 47.894601 93.546205 47.894601 93.546205 47.894601 
C 93.546205 47.894601 93.546205 47.894601 93.546205 47.894601 
C 93.546205 47.894601 93.546205 47.894601 93.546205 47.894601 
C 93.546205 47.894601 93.546205 47.894601 93.546205 47.894601 
C 93.546205 47.894601 93.546205 47.894601 93.546205 47.894601 
C 93.546205 47.894601 93.546205 47.894601 93.546205 47.894601 
z
" clip-path="url(#p2ed266266f)" style="stroke: #000000"/>
    <path d="M 88.289691 35.057557 
C 88.289691 35.057557 88.289691 35.057557 88.289691 35.057557 
C 88.289691 35.057557 88.289691 35.057557 88.289691 35.057557 
C 88.289691 35.057557 88.289691 35.057557 88.289691 35.057557 
C 88.289691 35.057557 88.289691 35.057557 88.289691 35.057557 
C 88.289691 35.057557 88.289691 35.057557 88.289691 35.057557 
C 88.289691 35.057557 88.289691 35.057557 88.289691 35.057557 
C 88.289691 35.057557 88.289691 35.057557 88.289691 35.057557 
C 88.289691 35.057557 88.289691 35.057557 88.289691 35.057557 
z
" clip-path="url(#p2ed266266f)" style="stroke: #000000"/>
    <path d="M 122.239907 173.722996 
C 122.239907 173.722996 122.239907 173.722996 122.239907 173.722996 
C 122.239907 173.722996 122.239907 173.722996 122.239907 173.722996 
C 122.239907 173.722996 122.239907 173.722996 122.239907 173.722996 
C 122.239907 173.722996 122.239907 173.722996 122.239907 173.722996 
C 122.239907 173.722996 122.239907 173.722996 122.239907 173.722996 
C 122.239907 173.722996 122.239907 173.722996 122.239907 173.722996 
C 122.239907 173.722996 122.239907 173.722996 122.239907 173.722996 
C 122.239907 173.722996 122.239907 173.722996 122.239907 173.722996 
z
" clip-path="url(#p2ed266266f)" style="stroke: #000000"/>
    <path d="M 121.060817 166.774826 
C 121.060817 166.774826 121.060817 166.774826 121.060817 166.774826 
C 121.060817 166.774826 121.060817 166.774826 121.060817 166.774826 
C 121.060817 166.774826 121.060817 166.774826 121.060817 166.774826 
C 121.060817 166.774826 121.060817 166.774826 121.060817 166.774826 
C 121.060817 166.774826 121.060817 166.774826 121.060817 166.774826 
C 121.060817 166.774826 121.060817 166.774826 121.060817 166.774826 
C 121.060817 166.774826 121.060817 166.774826 121.060817 166.774826 
C 121.060817 166.774826 121.060817 166.774826 121.060817 166.774826 
z
" clip-path="url(#p2ed266266f)" style="stroke: #000000"/>
    <path d="M 119.291258 153.074194 
C 119.291258 153.074194 119.291258 153.074194 119.291258 153.074194 
C 119.291258 153.074194 119.291258 153.074194 119.291258 153.074194 
C 119.291258 153.074194 119.291258 153.074194 119.291258 153.074194 
C 119.291258 153.074194 119.291258 153.074194 119.291258 153.074194 
C 119.291258 153.074194 119.291258 153.074194 119.291258 153.074194 
C 119.291258 153.074194 119.291258 153.074194 119.291258 153.074194 
C 119.291258 153.074194 119.291258 153.074194 119.291258 153.074194 
C 119.291258 153.074194 119.291258 153.074194 119.291258 153.074194 
z
" clip-path="url(#p2ed266266f)" style="stroke: #000000"/>
    <path d="M 113.998868 146.745992 
C 113.998868 146.745992 113.998868 146.745992 113.998868 146.745992 
C 113.998868 146.745992 113.998868 146.745992 113.998868 146.745992 
C 113.998868 146.745992 113.998868 146.745992 113.998868 146.745992 
C 113.998868 146.745992 113.998868 146.745992 113.998868 146.745992 
C 113.998868 146.745992 113.998868 146.745992 113.998868 146.745992 
C 113.998868 146.745992 113.998868 146.745992 113.998868 146.745992 
C 113.998868 146.745992 113.998868 146.745992 113.998868 146.745992 
C 113.998868 146.745992 113.998868 146.745992 113.998868 146.745992 
z
" clip-path="url(#p2ed266266f)" style="stroke: #000000"/>
    <path d="M 109.880787 137.21185 
C 109.880787 137.21185 109.880787 137.21185 109.880787 137.21185 
C 109.880787 137.21185 109.880787 137.21185 109.880787 137.21185 
C 109.880787 137.21185 109.880787 137.21185 109.880787 137.21185 
C 109.880787 137.21185 109.880787 137.21185 109.880787 137.21185 
C 109.880787 137.21185 109.880787 137.21185 109.880787 137.21185 
C 109.880787 137.21185 109.880787 137.21185 109.880787 137.21185 
C 109.880787 137.21185 109.880787 137.21185 109.880787 137.21185 
C 109.880787 137.21185 109.880787 137.21185 109.880787 137.21185 
z
" clip-path="url(#p2ed266266f)" style="stroke: #000000"/>
    <path d="M 108.364935 123.30414 
C 108.364935 123.30414 108.364935 123.30414 108.364935 123.30414 
C 108.364935 123.30414 108.364935 123.30414 108.364935 123.30414 
C 108.364935 123.30414 108.364935 123.30414 108.364935 123.30414 
C 108.364935 123.30414 108.364935 123.30414 108.364935 123.30414 
C 108.364935 123.30414 108.364935 123.30414 108.364935 123.30414 
C 108.364935 123.30414 108.364935 123.30414 108.364935 123.30414 
C 108.364935 123.30414 108.364935 123.30414 108.364935 123.30414 
C 108.364935 123.30414 108.364935 123.30414 108.364935 123.30414 
z
" clip-path="url(#p2ed266266f)" style="stroke: #000000"/>
    <path d="M 105.819705 113.670113 
C 105.819705 113.670113 105.819705 113.670113 105.819705 113.670113 
C 105.819705 113.670113 105.819705 113.670113 105.819705 113.670113 
C 105.819705 113.670113 105.819705 113.670113 105.819705 113.670113 
C 105.819705 113.670113 105.819705 113.670113 105.819705 113.670113 
C 105.819705 113.670113 105.819705 113.670113 105.819705 113.670113 
C 105.819705 113.670113 105.819705 113.670113 105.819705 113.670113 
C 105.819705 113.670113 105.819705 113.670113 105.819705 113.670113 
C 105.819705 113.670113 105.819705 113.670113 105.819705 113.670113 
z
" clip-path="url(#p2ed266266f)" style="stroke: #000000"/>
    <path d="M 105.475876 104.822959 
C 105.676595 104.822959 105.86912 104.743213 106.01105 104.601283 
C 106.15298 104.459353 106.232726 104.266828 106.232726 104.066109 
C 106.232726 103.86539 106.15298 103.672865 106.01105 103.530936 
C 105.86912 103.389006 105.676595 103.309259 105.475876 103.309259 
C 105.275157 103.309259 105.082632 103.389006 104.940702 103.530936 
C 104.798773 103.672865 104.719026 103.86539 104.719026 104.066109 
C 104.719026 104.266828 104.798773 104.459353 104.940702 104.601283 
C 105.082632 104.743213 105.275157 104.822959 105.475876 104.822959 
z
" clip-path="url(#p2ed266266f)" style="stroke: #000000"/>
    <path d="M 95.156438 95.631323 
C 95.437729 95.631323 95.707536 95.519565 95.906438 95.320663 
C 96.10534 95.121761 96.217098 94.851953 96.217098 94.570663 
C 96.217098 94.289373 96.10534 94.019565 95.906438 93.820663 
C 95.707536 93.621761 95.437729 93.510003 95.156438 93.510003 
C 94.875148 93.510003 94.60534 93.621761 94.406438 93.820663 
C 94.207536 94.019565 94.095778 94.289373 94.095778 94.570663 
C 94.095778 94.851953 94.207536 95.121761 94.406438 95.320663 
C 94.60534 95.519565 94.875148 95.631323 95.156438 95.631323 
z
" clip-path="url(#p2ed266266f)" style="stroke: #000000"/>
    <path d="M 93.695771 83.974799 
C 93.911458 83.974799 94.11834 83.889105 94.270853 83.736592 
C 94.423367 83.584079 94.50906 83.377197 94.50906 83.16151 
C 94.50906 82.945824 94.423367 82.738942 94.270853 82.586429 
C 94.11834 82.433915 93.911458 82.348222 93.695771 82.348222 
C 93.480085 82.348222 93.273203 82.433915 93.12069 82.586429 
C 92.968176 82.738942 92.882483 82.945824 92.882483 83.16151 
C 92.882483 83.377197 92.968176 83.584079 93.12069 83.736592 
C 93.273203 83.889105 93.480085 83.974799 93.695771 83.974799 
z
" clip-path="url(#p2ed266266f)" style="stroke: #000000"/>
    <path d="M 88.220392 69.331883 
C 88.501682 69.331883 88.771489 69.220125 88.970392 69.021223 
C 89.169294 68.822321 89.281052 68.552514 89.281052 68.271223 
C 89.281052 67.989933 89.169294 67.720125 88.970392 67.521223 
C 88.771489 67.322321 88.501682 67.210563 88.220392 67.210563 
C 87.939101 67.210563 87.669294 67.322321 87.470392 67.521223 
C 87.271489 67.720125 87.159732 67.989933 87.159732 68.271223 
C 87.159732 68.552514 87.271489 68.822321 87.470392 69.021223 
C 87.669294 69.220125 87.939101 69.331883 88.220392 69.331883 
z
" clip-path="url(#p2ed266266f)" style="stroke: #000000"/>
    <path d="M 84.759596 60.336901 
C 84.759596 60.336901 84.759596 60.336901 84.759596 60.336901 
C 84.759596 60.336901 84.759596 60.336901 84.759596 60.336901 
C 84.759596 60.336901 84.759596 60.336901 84.759596 60.336901 
C 84.759596 60.336901 84.759596 60.336901 84.759596 60.336901 
C 84.759596 60.336901 84.759596 60.336901 84.759596 60.336901 
C 84.759596 60.336901 84.759596 60.336901 84.759596 60.336901 
C 84.759596 60.336901 84.759596 60.336901 84.759596 60.336901 
C 84.759596 60.336901 84.759596 60.336901 84.759596 60.336901 
z
" clip-path="url(#p2ed266266f)" style="stroke: #000000"/>
    <path d="M 77.238239 48.012983 
C 77.238239 48.012983 77.238239 48.012983 77.238239 48.012983 
C 77.238239 48.012983 77.238239 48.012983 77.238239 48.012983 
C 77.238239 48.012983 77.238239 48.012983 77.238239 48.012983 
C 77.238239 48.012983 77.238239 48.012983 77.238239 48.012983 
C 77.238239 48.012983 77.238239 48.012983 77.238239 48.012983 
C 77.238239 48.012983 77.238239 48.012983 77.238239 48.012983 
C 77.238239 48.012983 77.238239 48.012983 77.238239 48.012983 
C 77.238239 48.012983 77.238239 48.012983 77.238239 48.012983 
z
" clip-path="url(#p2ed266266f)" style="stroke: #000000"/>
    <path d="M 79.578465 43.237909 
C 79.7922 43.237909 79.997209 43.152991 80.148342 43.001858 
C 80.299475 42.850725 80.384393 42.645716 80.384393 42.431981 
C 80.384393 42.218247 80.299475 42.013237 80.148342 41.862104 
C 79.997209 41.710971 79.7922 41.626054 79.578465 41.626054 
C 79.364731 41.626054 79.159722 41.710971 79.008589 41.862104 
C 78.857455 42.013237 78.772538 42.218247 78.772538 42.431981 
C 78.772538 42.645716 78.857455 42.850725 79.008589 43.001858 
C 79.159722 43.152991 79.364731 43.237909 79.578465 43.237909 
z
" clip-path="url(#p2ed266266f)" style="stroke: #000000"/>
    <path d="M 75.481238 32.729121 
C 75.694972 32.729121 75.899981 32.644203 76.051114 32.49307 
C 76.202248 32.341937 76.287165 32.136928 76.287165 31.923193 
C 76.287165 31.709459 76.202248 31.50445 76.051114 31.353316 
C 75.899981 31.202183 75.694972 31.117266 75.481238 31.117266 
C 75.267503 31.117266 75.062494 31.202183 74.911361 31.353316 
C 74.760228 31.50445 74.67531 31.709459 74.67531 31.923193 
C 74.67531 32.136928 74.760228 32.341937 74.911361 32.49307 
C 75.062494 32.644203 75.267503 32.729121 75.481238 32.729121 
z
" clip-path="url(#p2ed266266f)" style="stroke: #000000"/>
    <path d="M 68.902343 22.532631 
C 68.902343 22.532631 68.902343 22.532631 68.902343 22.532631 
C 68.902343 22.532631 68.902343 22.532631 68.902343 22.532631 
C 68.902343 22.532631 68.902343 22.532631 68.902343 22.532631 
C 68.902343 22.532631 68.902343 22.532631 68.902343 22.532631 
C 68.902343 22.532631 68.902343 22.532631 68.902343 22.532631 
C 68.902343 22.532631 68.902343 22.532631 68.902343 22.532631 
C 68.902343 22.532631 68.902343 22.532631 68.902343 22.532631 
C 68.902343 22.532631 68.902343 22.532631 68.902343 22.532631 
z
" clip-path="url(#p2ed266266f)" style="stroke: #000000"/>
    <path d="M 113.089641 174.734018 
C 113.089641 174.734018 113.089641 174.734018 113.089641 174.734018 
C 113.089641 174.734018 113.089641 174.734018 113.089641 174.734018 
C 113.089641 174.734018 113.089641 174.734018 113.089641 174.734018 
C 113.089641 174.734018 113.089641 174.734018 113.089641 174.734018 
C 113.089641 174.734018 113.089641 174.734018 113.089641 174.734018 
C 113.089641 174.734018 113.089641 174.734018 113.089641 174.734018 
C 113.089641 174.734018 113.089641 174.734018 113.089641 174.734018 
C 113.089641 174.734018 113.089641 174.734018 113.089641 174.734018 
z
" clip-path="url(#p2ed266266f)" style="stroke: #000000"/>
    <path d="M 109.433592 169.743896 
C 109.433592 169.743896 109.433592 169.743896 109.433592 169.743896 
C 109.433592 169.743896 109.433592 169.743896 109.433592 169.743896 
C 109.433592 169.743896 109.433592 169.743896 109.433592 169.743896 
C 109.433592 169.743896 109.433592 169.743896 109.433592 169.743896 
C 109.433592 169.743896 109.433592 169.743896 109.433592 169.743896 
C 109.433592 169.743896 109.433592 169.743896 109.433592 169.743896 
C 109.433592 169.743896 109.433592 169.743896 109.433592 169.743896 
C 109.433592 169.743896 109.433592 169.743896 109.433592 169.743896 
z
" clip-path="url(#p2ed266266f)" style="stroke: #000000"/>
    <path d="M 107.632108 159.003549 
C 107.632108 159.003549 107.632108 159.003549 107.632108 159.003549 
C 107.632108 159.003549 107.632108 159.003549 107.632108 159.003549 
C 107.632108 159.003549 107.632108 159.003549 107.632108 159.003549 
C 107.632108 159.003549 107.632108 159.003549 107.632108 159.003549 
C 107.632108 159.003549 107.632108 159.003549 107.632108 159.003549 
C 107.632108 159.003549 107.632108 159.003549 107.632108 159.003549 
C 107.632108 159.003549 107.632108 159.003549 107.632108 159.003549 
C 107.632108 159.003549 107.632108 159.003549 107.632108 159.003549 
z
" clip-path="url(#p2ed266266f)" style="stroke: #000000"/>
    <path d="M 103.698126 150.482274 
C 103.909854 150.482274 104.112938 150.398153 104.262651 150.24844 
C 104.412365 150.098726 104.496485 149.895642 104.496485 149.683914 
C 104.496485 149.472187 104.412365 149.269103 104.262651 149.119389 
C 104.112938 148.969675 103.909854 148.885555 103.698126 148.885555 
C 103.486399 148.885555 103.283315 148.969675 103.133601 149.119389 
C 102.983887 149.269103 102.899767 149.472187 102.899767 149.683914 
C 102.899767 149.895642 102.983887 150.098726 103.133601 150.24844 
C 103.283315 150.398153 103.486399 150.482274 103.698126 150.482274 
z
" clip-path="url(#p2ed266266f)" style="stroke: #000000"/>
    <path d="M 102.312195 134.454479 
C 102.312195 134.454479 102.312195 134.454479 102.312195 134.454479 
C 102.312195 134.454479 102.312195 134.454479 102.312195 134.454479 
C 102.312195 134.454479 102.312195 134.454479 102.312195 134.454479 
C 102.312195 134.454479 102.312195 134.454479 102.312195 134.454479 
C 102.312195 134.454479 102.312195 134.454479 102.312195 134.454479 
C 102.312195 134.454479 102.312195 134.454479 102.312195 134.454479 
C 102.312195 134.454479 102.312195 134.454479 102.312195 134.454479 
C 102.312195 134.454479 102.312195 134.454479 102.312195 134.454479 
z
" clip-path="url(#p2ed266266f)" style="stroke: #000000"/>
    <path d="M 98.175236 126.882159 
C 98.175236 126.882159 98.175236 126.882159 98.175236 126.882159 
C 98.175236 126.882159 98.175236 126.882159 98.175236 126.882159 
C 98.175236 126.882159 98.175236 126.882159 98.175236 126.882159 
C 98.175236 126.882159 98.175236 126.882159 98.175236 126.882159 
C 98.175236 126.882159 98.175236 126.882159 98.175236 126.882159 
C 98.175236 126.882159 98.175236 126.882159 98.175236 126.882159 
C 98.175236 126.882159 98.175236 126.882159 98.175236 126.882159 
C 98.175236 126.882159 98.175236 126.882159 98.175236 126.882159 
z
" clip-path="url(#p2ed266266f)" style="stroke: #000000"/>
    <path d="M 92.126664 120.851083 
C 92.407955 120.851083 92.677762 120.739325 92.876664 120.540423 
C 93.075567 120.341521 93.187325 120.071713 93.187325 119.790423 
C 93.187325 119.509132 93.075567 119.239325 92.876664 119.040423 
C 92.677762 118.841521 92.407955 118.729763 92.126664 118.729763 
C 91.845374 118.729763 91.575567 118.841521 91.376664 119.040423 
C 91.177762 119.239325 91.066004 119.509132 91.066004 119.790423 
C 91.066004 120.071713 91.177762 120.341521 91.376664 120.540423 
C 91.575567 120.739325 91.845374 120.851083 92.126664 120.851083 
z
" clip-path="url(#p2ed266266f)" style="stroke: #000000"/>
    <path d="M 87.372243 111.033961 
C 87.653533 111.033961 87.92334 110.922204 88.122243 110.723301 
C 88.321145 110.524399 88.432903 110.254592 88.432903 109.973301 
C 88.432903 109.692011 88.321145 109.422204 88.122243 109.223301 
C 87.92334 109.024399 87.653533 108.912641 87.372243 108.912641 
C 87.090952 108.912641 86.821145 109.024399 86.622243 109.223301 
C 86.42334 109.422204 86.311582 109.692011 86.311582 109.973301 
C 86.311582 110.254592 86.42334 110.524399 86.622243 110.723301 
C 86.821145 110.922204 87.090952 111.033961 87.372243 111.033961 
z
" clip-path="url(#p2ed266266f)" style="stroke: #000000"/>
    <path d="M 84.984085 95.002593 
C 85.265375 95.002593 85.535183 94.890835 85.734085 94.691933 
C 85.932987 94.49303 86.044745 94.223223 86.044745 93.941933 
C 86.044745 93.660642 85.932987 93.390835 85.734085 93.191933 
C 85.535183 92.99303 85.265375 92.881273 84.984085 92.881273 
C 84.702795 92.881273 84.432987 92.99303 84.234085 93.191933 
C 84.035183 93.390835 83.923425 93.660642 83.923425 93.941933 
C 83.923425 94.223223 84.035183 94.49303 84.234085 94.691933 
C 84.432987 94.890835 84.702795 95.002593 84.984085 95.002593 
z
" clip-path="url(#p2ed266266f)" style="stroke: #000000"/>
    <path d="M 81.624323 89.108823 
C 81.905613 89.108823 82.17542 88.997065 82.374323 88.798162 
C 82.573225 88.59926 82.684983 88.329453 82.684983 88.048162 
C 82.684983 87.766872 82.573225 87.497065 82.374323 87.298162 
C 82.17542 87.09926 81.905613 86.987502 81.624323 86.987502 
C 81.343032 86.987502 81.073225 87.09926 80.874323 87.298162 
C 80.67542 87.497065 80.563663 87.766872 80.563663 88.048162 
C 80.563663 88.329453 80.67542 88.59926 80.874323 88.798162 
C 81.073225 88.997065 81.343032 89.108823 81.624323 89.108823 
z
" clip-path="url(#p2ed266266f)" style="stroke: #000000"/>
    <path d="M 79.117431 75.610845 
C 79.315716 75.610845 79.505907 75.532065 79.646116 75.391856 
C 79.786325 75.251647 79.865105 75.061456 79.865105 74.86317 
C 79.865105 74.664885 79.786325 74.474694 79.646116 74.334485 
C 79.505907 74.194276 79.315716 74.115496 79.117431 74.115496 
C 78.919145 74.115496 78.728954 74.194276 78.588745 74.334485 
C 78.448536 74.474694 78.369756 74.664885 78.369756 74.86317 
C 78.369756 75.061456 78.448536 75.251647 78.588745 75.391856 
C 78.728954 75.532065 78.919145 75.610845 79.117431 75.610845 
z
" clip-path="url(#p2ed266266f)" style="stroke: #000000"/>
    <path d="M 72.260625 64.048687 
C 72.260625 64.048687 72.260625 64.048687 72.260625 64.048687 
C 72.260625 64.048687 72.260625 64.048687 72.260625 64.048687 
C 72.260625 64.048687 72.260625 64.048687 72.260625 64.048687 
C 72.260625 64.048687 72.260625 64.048687 72.260625 64.048687 
C 72.260625 64.048687 72.260625 64.048687 72.260625 64.048687 
C 72.260625 64.048687 72.260625 64.048687 72.260625 64.048687 
C 72.260625 64.048687 72.260625 64.048687 72.260625 64.048687 
C 72.260625 64.048687 72.260625 64.048687 72.260625 64.048687 
z
" clip-path="url(#p2ed266266f)" style="stroke: #000000"/>
    <path d="M 72.458317 53.736557 
C 72.458317 53.736557 72.458317 53.736557 72.458317 53.736557 
C 72.458317 53.736557 72.458317 53.736557 72.458317 53.736557 
C 72.458317 53.736557 72.458317 53.736557 72.458317 53.736557 
C 72.458317 53.736557 72.458317 53.736557 72.458317 53.736557 
C 72.458317 53.736557 72.458317 53.736557 72.458317 53.736557 
C 72.458317 53.736557 72.458317 53.736557 72.458317 53.736557 
C 72.458317 53.736557 72.458317 53.736557 72.458317 53.736557 
C 72.458317 53.736557 72.458317 53.736557 72.458317 53.736557 
z
" clip-path="url(#p2ed266266f)" style="stroke: #000000"/>
    <path d="M 67.870041 46.304568 
C 67.870041 46.304568 67.870041 46.304568 67.870041 46.304568 
C 67.870041 46.304568 67.870041 46.304568 67.870041 46.304568 
C 67.870041 46.304568 67.870041 46.304568 67.870041 46.304568 
C 67.870041 46.304568 67.870041 46.304568 67.870041 46.304568 
C 67.870041 46.304568 67.870041 46.304568 67.870041 46.304568 
C 67.870041 46.304568 67.870041 46.304568 67.870041 46.304568 
C 67.870041 46.304568 67.870041 46.304568 67.870041 46.304568 
C 67.870041 46.304568 67.870041 46.304568 67.870041 46.304568 
z
" clip-path="url(#p2ed266266f)" style="stroke: #000000"/>
    <path d="M 67.82822 34.907418 
C 67.82822 34.907418 67.82822 34.907418 67.82822 34.907418 
C 67.82822 34.907418 67.82822 34.907418 67.82822 34.907418 
C 67.82822 34.907418 67.82822 34.907418 67.82822 34.907418 
C 67.82822 34.907418 67.82822 34.907418 67.82822 34.907418 
C 67.82822 34.907418 67.82822 34.907418 67.82822 34.907418 
C 67.82822 34.907418 67.82822 34.907418 67.82822 34.907418 
C 67.82822 34.907418 67.82822 34.907418 67.82822 34.907418 
C 67.82822 34.907418 67.82822 34.907418 67.82822 34.907418 
z
" clip-path="url(#p2ed266266f)" style="stroke: #000000"/>
    <path d="M 101.889462 181.337527 
C 101.889462 181.337527 101.889462 181.337527 101.889462 181.337527 
C 101.889462 181.337527 101.889462 181.337527 101.889462 181.337527 
C 101.889462 181.337527 101.889462 181.337527 101.889462 181.337527 
C 101.889462 181.337527 101.889462 181.337527 101.889462 181.337527 
C 101.889462 181.337527 101.889462 181.337527 101.889462 181.337527 
C 101.889462 181.337527 101.889462 181.337527 101.889462 181.337527 
C 101.889462 181.337527 101.889462 181.337527 101.889462 181.337527 
C 101.889462 181.337527 101.889462 181.337527 101.889462 181.337527 
z
" clip-path="url(#p2ed266266f)" style="stroke: #000000"/>
    <path d="M 100.095837 173.959838 
C 100.095837 173.959838 100.095837 173.959838 100.095837 173.959838 
C 100.095837 173.959838 100.095837 173.959838 100.095837 173.959838 
C 100.095837 173.959838 100.095837 173.959838 100.095837 173.959838 
C 100.095837 173.959838 100.095837 173.959838 100.095837 173.959838 
C 100.095837 173.959838 100.095837 173.959838 100.095837 173.959838 
C 100.095837 173.959838 100.095837 173.959838 100.095837 173.959838 
C 100.095837 173.959838 100.095837 173.959838 100.095837 173.959838 
C 100.095837 173.959838 100.095837 173.959838 100.095837 173.959838 
z
" clip-path="url(#p2ed266266f)" style="stroke: #000000"/>
    <path d="M 98.364324 160.322862 
C 98.364324 160.322862 98.364324 160.322862 98.364324 160.322862 
C 98.364324 160.322862 98.364324 160.322862 98.364324 160.322862 
C 98.364324 160.322862 98.364324 160.322862 98.364324 160.322862 
C 98.364324 160.322862 98.364324 160.322862 98.364324 160.322862 
C 98.364324 160.322862 98.364324 160.322862 98.364324 160.322862 
C 98.364324 160.322862 98.364324 160.322862 98.364324 160.322862 
C 98.364324 160.322862 98.364324 160.322862 98.364324 160.322862 
C 98.364324 160.322862 98.364324 160.322862 98.364324 160.322862 
z
" clip-path="url(#p2ed266266f)" style="stroke: #000000"/>
    <path d="M 96.366338 150.527127 
C 96.366338 150.527127 96.366338 150.527127 96.366338 150.527127 
C 96.366338 150.527127 96.366338 150.527127 96.366338 150.527127 
C 96.366338 150.527127 96.366338 150.527127 96.366338 150.527127 
C 96.366338 150.527127 96.366338 150.527127 96.366338 150.527127 
C 96.366338 150.527127 96.366338 150.527127 96.366338 150.527127 
C 96.366338 150.527127 96.366338 150.527127 96.366338 150.527127 
C 96.366338 150.527127 96.366338 150.527127 96.366338 150.527127 
C 96.366338 150.527127 96.366338 150.527127 96.366338 150.527127 
z
" clip-path="url(#p2ed266266f)" style="stroke: #000000"/>
    <path d="M 87.94576 146.553153 
C 88.226178 146.553153 88.495149 146.441742 88.693434 146.243456 
C 88.89172 146.04517 89.003131 145.7762 89.003131 145.495782 
C 89.003131 145.215364 88.89172 144.946393 88.693434 144.748107 
C 88.495149 144.549822 88.226178 144.43841 87.94576 144.43841 
C 87.665342 144.43841 87.396371 144.549822 87.198085 144.748107 
C 86.9998 144.946393 86.888388 145.215364 86.888388 145.495782 
C 86.888388 145.7762 86.9998 146.04517 87.198085 146.243456 
C 87.396371 146.441742 87.665342 146.553153 87.94576 146.553153 
z
" clip-path="url(#p2ed266266f)" style="stroke: #000000"/>
    <path d="M 89.608848 129.456204 
C 89.889266 129.456204 90.158237 129.344793 90.356523 129.146507 
C 90.554808 128.948222 90.666219 128.679251 90.666219 128.398833 
C 90.666219 128.118415 90.554808 127.849444 90.356523 127.651159 
C 90.158237 127.452873 89.889266 127.341462 89.608848 127.341462 
C 89.32843 127.341462 89.059459 127.452873 88.861174 127.651159 
C 88.662888 127.849444 88.551477 128.118415 88.551477 128.398833 
C 88.551477 128.679251 88.662888 128.948222 88.861174 129.146507 
C 89.059459 129.344793 89.32843 129.456204 89.608848 129.456204 
z
" clip-path="url(#p2ed266266f)" style="stroke: #000000"/>
    <path d="M 80.548882 117.501444 
C 80.548882 117.501444 80.548882 117.501444 80.548882 117.501444 
C 80.548882 117.501444 80.548882 117.501444 80.548882 117.501444 
C 80.548882 117.501444 80.548882 117.501444 80.548882 117.501444 
C 80.548882 117.501444 80.548882 117.501444 80.548882 117.501444 
C 80.548882 117.501444 80.548882 117.501444 80.548882 117.501444 
C 80.548882 117.501444 80.548882 117.501444 80.548882 117.501444 
C 80.548882 117.501444 80.548882 117.501444 80.548882 117.501444 
C 80.548882 117.501444 80.548882 117.501444 80.548882 117.501444 
z
" clip-path="url(#p2ed266266f)" style="stroke: #000000"/>
    <path d="M 79.679894 108.530595 
C 80.013889 108.530595 80.334249 108.397898 80.57042 108.161727 
C 80.80659 107.925557 80.939287 107.605197 80.939287 107.271202 
C 80.939287 106.937207 80.80659 106.616846 80.57042 106.380676 
C 80.334249 106.144506 80.013889 106.011808 79.679894 106.011808 
C 79.345899 106.011808 79.025538 106.144506 78.789368 106.380676 
C 78.553198 106.616846 78.4205 106.937207 78.4205 107.271202 
C 78.4205 107.605197 78.553198 107.925557 78.789368 108.161727 
C 79.025538 108.397898 79.345899 108.530595 79.679894 108.530595 
z
" clip-path="url(#p2ed266266f)" style="stroke: #000000"/>
    <path d="M 72.779821 99.27272 
C 73.061112 99.27272 73.330919 99.160962 73.529821 98.96206 
C 73.728724 98.763157 73.840482 98.49335 73.840482 98.21206 
C 73.840482 97.930769 73.728724 97.660962 73.529821 97.46206 
C 73.330919 97.263157 73.061112 97.151399 72.779821 97.151399 
C 72.498531 97.151399 72.228724 97.263157 72.029821 97.46206 
C 71.830919 97.660962 71.719161 97.930769 71.719161 98.21206 
C 71.719161 98.49335 71.830919 98.763157 72.029821 98.96206 
C 72.228724 99.160962 72.498531 99.27272 72.779821 99.27272 
z
" clip-path="url(#p2ed266266f)" style="stroke: #000000"/>
    <path d="M 70.751786 93.279631 
C 70.9861 93.279631 71.21085 93.186537 71.376535 93.020852 
C 71.542221 92.855166 71.635315 92.630416 71.635315 92.396102 
C 71.635315 92.161787 71.542221 91.937037 71.376535 91.771352 
C 71.21085 91.605666 70.9861 91.512572 70.751786 91.512572 
C 70.517471 91.512572 70.292721 91.605666 70.127036 91.771352 
C 69.96135 91.937037 69.868256 92.161787 69.868256 92.396102 
C 69.868256 92.630416 69.96135 92.855166 70.127036 93.020852 
C 70.292721 93.186537 70.517471 93.279631 70.751786 93.279631 
z
" clip-path="url(#p2ed266266f)" style="stroke: #000000"/>
    <path d="M 69.44591 77.941114 
C 69.44591 77.941114 69.44591 77.941114 69.44591 77.941114 
C 69.44591 77.941114 69.44591 77.941114 69.44591 77.941114 
C 69.44591 77.941114 69.44591 77.941114 69.44591 77.941114 
C 69.44591 77.941114 69.44591 77.941114 69.44591 77.941114 
C 69.44591 77.941114 69.44591 77.941114 69.44591 77.941114 
C 69.44591 77.941114 69.44591 77.941114 69.44591 77.941114 
C 69.44591 77.941114 69.44591 77.941114 69.44591 77.941114 
C 69.44591 77.941114 69.44591 77.941114 69.44591 77.941114 
z
" clip-path="url(#p2ed266266f)" style="stroke: #000000"/>
    <path d="M 61.657638 72.971772 
C 61.751402 72.971772 61.841337 72.934519 61.907638 72.868219 
C 61.973939 72.801918 62.011192 72.711982 62.011192 72.618219 
C 62.011192 72.524455 61.973939 72.434519 61.907638 72.368219 
C 61.841337 72.301918 61.751402 72.264665 61.657638 72.264665 
C 61.563875 72.264665 61.473939 72.301918 61.407638 72.368219 
C 61.341337 72.434519 61.304085 72.524455 61.304085 72.618219 
C 61.304085 72.711982 61.341337 72.801918 61.407638 72.868219 
C 61.473939 72.934519 61.563875 72.971772 61.657638 72.971772 
z
" clip-path="url(#p2ed266266f)" style="stroke: #000000"/>
    <path d="M 59.773472 56.91888 
C 59.773472 56.91888 59.773472 56.91888 59.773472 56.91888 
C 59.773472 56.91888 59.773472 56.91888 59.773472 56.91888 
C 59.773472 56.91888 59.773472 56.91888 59.773472 56.91888 
C 59.773472 56.91888 59.773472 56.91888 59.773472 56.91888 
C 59.773472 56.91888 59.773472 56.91888 59.773472 56.91888 
C 59.773472 56.91888 59.773472 56.91888 59.773472 56.91888 
C 59.773472 56.91888 59.773472 56.91888 59.773472 56.91888 
C 59.773472 56.91888 59.773472 56.91888 59.773472 56.91888 
z
" clip-path="url(#p2ed266266f)" style="stroke: #000000"/>
    <path d="M 55.039609 47.708049 
C 55.275412 47.708049 55.501588 47.614363 55.668326 47.447626 
C 55.835064 47.280888 55.928749 47.054712 55.928749 46.818909 
C 55.928749 46.583106 55.835064 46.35693 55.668326 46.190192 
C 55.501588 46.023455 55.275412 45.929769 55.039609 45.929769 
C 54.803807 45.929769 54.57763 46.023455 54.410893 46.190192 
C 54.244155 46.35693 54.15047 46.583106 54.15047 46.818909 
C 54.15047 47.054712 54.244155 47.280888 54.410893 47.447626 
C 54.57763 47.614363 54.803807 47.708049 55.039609 47.708049 
z
" clip-path="url(#p2ed266266f)" style="stroke: #000000"/>
    <path d="M 53.105228 37.017584 
C 53.216732 37.017584 53.323685 36.973282 53.40253 36.894437 
C 53.481375 36.815592 53.525676 36.708639 53.525676 36.597135 
C 53.525676 36.485631 53.481375 36.378679 53.40253 36.299834 
C 53.323685 36.220988 53.216732 36.176687 53.105228 36.176687 
C 52.993724 36.176687 52.886772 36.220988 52.807926 36.299834 
C 52.729081 36.378679 52.68478 36.485631 52.68478 36.597135 
C 52.68478 36.708639 52.729081 36.815592 52.807926 36.894437 
C 52.886772 36.973282 52.993724 37.017584 53.105228 37.017584 
z
" clip-path="url(#p2ed266266f)" style="stroke: #000000"/>
    <path d="M 87.422251 176.136064 
C 87.635986 176.136064 87.840995 176.051146 87.992128 175.900013 
C 88.143261 175.74888 88.228179 175.543871 88.228179 175.330136 
C 88.228179 175.116402 88.143261 174.911392 87.992128 174.760259 
C 87.840995 174.609126 87.635986 174.524209 87.422251 174.524209 
C 87.208517 174.524209 87.003508 174.609126 86.852375 174.760259 
C 86.701242 174.911392 86.616324 175.116402 86.616324 175.330136 
C 86.616324 175.543871 86.701242 175.74888 86.852375 175.900013 
C 87.003508 176.051146 87.208517 176.136064 87.422251 176.136064 
z
" clip-path="url(#p2ed266266f)" style="stroke: #000000"/>
    <path d="M 85.459133 168.332807 
C 85.611647 168.332807 85.757934 168.272213 85.865777 168.16437 
C 85.973621 168.056527 86.034215 167.910239 86.034215 167.757726 
C 86.034215 167.605212 85.973621 167.458925 85.865777 167.351082 
C 85.757934 167.243238 85.611647 167.182644 85.459133 167.182644 
C 85.30662 167.182644 85.160332 167.243238 85.052489 167.351082 
C 84.944646 167.458925 84.884051 167.605212 84.884051 167.757726 
C 84.884051 167.910239 84.944646 168.056527 85.052489 168.16437 
C 85.160332 168.272213 85.30662 168.332807 85.459133 168.332807 
z
" clip-path="url(#p2ed266266f)" style="stroke: #000000"/>
    <path d="M 80.253759 157.381176 
C 80.253759 157.381176 80.253759 157.381176 80.253759 157.381176 
C 80.253759 157.381176 80.253759 157.381176 80.253759 157.381176 
C 80.253759 157.381176 80.253759 157.381176 80.253759 157.381176 
C 80.253759 157.381176 80.253759 157.381176 80.253759 157.381176 
C 80.253759 157.381176 80.253759 157.381176 80.253759 157.381176 
C 80.253759 157.381176 80.253759 157.381176 80.253759 157.381176 
C 80.253759 157.381176 80.253759 157.381176 80.253759 157.381176 
C 80.253759 157.381176 80.253759 157.381176 80.253759 157.381176 
z
" clip-path="url(#p2ed266266f)" style="stroke: #000000"/>
    <path d="M 81.590553 142.253996 
C 81.590553 142.253996 81.590553 142.253996 81.590553 142.253996 
C 81.590553 142.253996 81.590553 142.253996 81.590553 142.253996 
C 81.590553 142.253996 81.590553 142.253996 81.590553 142.253996 
C 81.590553 142.253996 81.590553 142.253996 81.590553 142.253996 
C 81.590553 142.253996 81.590553 142.253996 81.590553 142.253996 
C 81.590553 142.253996 81.590553 142.253996 81.590553 142.253996 
C 81.590553 142.253996 81.590553 142.253996 81.590553 142.253996 
C 81.590553 142.253996 81.590553 142.253996 81.590553 142.253996 
z
" clip-path="url(#p2ed266266f)" style="stroke: #000000"/>
    <path d="M 73.904454 135.219752 
C 74.185745 135.219752 74.455552 135.107994 74.654454 134.909092 
C 74.853357 134.710189 74.965114 134.440382 74.965114 134.159092 
C 74.965114 133.877801 74.853357 133.607994 74.654454 133.409092 
C 74.455552 133.210189 74.185745 133.098431 73.904454 133.098431 
C 73.623164 133.098431 73.353357 133.210189 73.154454 133.409092 
C 72.955552 133.607994 72.843794 133.877801 72.843794 134.159092 
C 72.843794 134.440382 72.955552 134.710189 73.154454 134.909092 
C 73.353357 135.107994 73.623164 135.219752 73.904454 135.219752 
z
" clip-path="url(#p2ed266266f)" style="stroke: #000000"/>
    <path d="M 71.287855 122.828601 
C 71.517527 122.828601 71.737824 122.737351 71.900227 122.574948 
C 72.06263 122.412545 72.15388 122.192248 72.15388 121.962576 
C 72.15388 121.732903 72.06263 121.512606 71.900227 121.350203 
C 71.737824 121.1878 71.517527 121.09655 71.287855 121.09655 
C 71.058182 121.09655 70.837885 121.1878 70.675482 121.350203 
C 70.513079 121.512606 70.421829 121.732903 70.421829 121.962576 
C 70.421829 122.192248 70.513079 122.412545 70.675482 122.574948 
C 70.837885 122.737351 71.058182 122.828601 71.287855 122.828601 
z
" clip-path="url(#p2ed266266f)" style="stroke: #000000"/>
    <path d="M 68.810907 113.244145 
C 68.810907 113.244145 68.810907 113.244145 68.810907 113.244145 
C 68.810907 113.244145 68.810907 113.244145 68.810907 113.244145 
C 68.810907 113.244145 68.810907 113.244145 68.810907 113.244145 
C 68.810907 113.244145 68.810907 113.244145 68.810907 113.244145 
C 68.810907 113.244145 68.810907 113.244145 68.810907 113.244145 
C 68.810907 113.244145 68.810907 113.244145 68.810907 113.244145 
C 68.810907 113.244145 68.810907 113.244145 68.810907 113.244145 
C 68.810907 113.244145 68.810907 113.244145 68.810907 113.244145 
z
" clip-path="url(#p2ed266266f)" style="stroke: #000000"/>
    <path d="M 64.206323 107.001048 
C 64.540318 107.001048 64.860679 106.86835 65.096849 106.63218 
C 65.333019 106.39601 65.465717 106.07565 65.465717 105.741654 
C 65.465717 105.407659 65.333019 105.087299 65.096849 104.851129 
C 64.860679 104.614959 64.540318 104.482261 64.206323 104.482261 
C 63.872328 104.482261 63.551968 104.614959 63.315797 104.851129 
C 63.079627 105.087299 62.94693 105.407659 62.94693 105.741654 
C 62.94693 106.07565 63.079627 106.39601 63.315797 106.63218 
C 63.551968 106.86835 63.872328 107.001048 64.206323 107.001048 
z
" clip-path="url(#p2ed266266f)" style="stroke: #000000"/>
    <path d="M 64.260119 90.214824 
C 64.260119 90.214824 64.260119 90.214824 64.260119 90.214824 
C 64.260119 90.214824 64.260119 90.214824 64.260119 90.214824 
C 64.260119 90.214824 64.260119 90.214824 64.260119 90.214824 
C 64.260119 90.214824 64.260119 90.214824 64.260119 90.214824 
C 64.260119 90.214824 64.260119 90.214824 64.260119 90.214824 
C 64.260119 90.214824 64.260119 90.214824 64.260119 90.214824 
C 64.260119 90.214824 64.260119 90.214824 64.260119 90.214824 
C 64.260119 90.214824 64.260119 90.214824 64.260119 90.214824 
z
" clip-path="url(#p2ed266266f)" style="stroke: #000000"/>
    <path d="M 56.616384 86.546007 
C 56.616384 86.546007 56.616384 86.546007 56.616384 86.546007 
C 56.616384 86.546007 56.616384 86.546007 56.616384 86.546007 
C 56.616384 86.546007 56.616384 86.546007 56.616384 86.546007 
C 56.616384 86.546007 56.616384 86.546007 56.616384 86.546007 
C 56.616384 86.546007 56.616384 86.546007 56.616384 86.546007 
C 56.616384 86.546007 56.616384 86.546007 56.616384 86.546007 
C 56.616384 86.546007 56.616384 86.546007 56.616384 86.546007 
C 56.616384 86.546007 56.616384 86.546007 56.616384 86.546007 
z
" clip-path="url(#p2ed266266f)" style="stroke: #000000"/>
    <path d="M 49.585128 71.457538 
C 49.585128 71.457538 49.585128 71.457538 49.585128 71.457538 
C 49.585128 71.457538 49.585128 71.457538 49.585128 71.457538 
C 49.585128 71.457538 49.585128 71.457538 49.585128 71.457538 
C 49.585128 71.457538 49.585128 71.457538 49.585128 71.457538 
C 49.585128 71.457538 49.585128 71.457538 49.585128 71.457538 
C 49.585128 71.457538 49.585128 71.457538 49.585128 71.457538 
C 49.585128 71.457538 49.585128 71.457538 49.585128 71.457538 
C 49.585128 71.457538 49.585128 71.457538 49.585128 71.457538 
z
" clip-path="url(#p2ed266266f)" style="stroke: #000000"/>
    <path d="M 51.054545 61.095929 
C 51.054545 61.095929 51.054545 61.095929 51.054545 61.095929 
C 51.054545 61.095929 51.054545 61.095929 51.054545 61.095929 
C 51.054545 61.095929 51.054545 61.095929 51.054545 61.095929 
C 51.054545 61.095929 51.054545 61.095929 51.054545 61.095929 
C 51.054545 61.095929 51.054545 61.095929 51.054545 61.095929 
C 51.054545 61.095929 51.054545 61.095929 51.054545 61.095929 
C 51.054545 61.095929 51.054545 61.095929 51.054545 61.095929 
C 51.054545 61.095929 51.054545 61.095929 51.054545 61.095929 
z
" clip-path="url(#p2ed266266f)" style="stroke: #000000"/>
    <path d="M 43.317066 46.133437 
C 43.317066 46.133437 43.317066 46.133437 43.317066 46.133437 
C 43.317066 46.133437 43.317066 46.133437 43.317066 46.133437 
C 43.317066 46.133437 43.317066 46.133437 43.317066 46.133437 
C 43.317066 46.133437 43.317066 46.133437 43.317066 46.133437 
C 43.317066 46.133437 43.317066 46.133437 43.317066 46.133437 
C 43.317066 46.133437 43.317066 46.133437 43.317066 46.133437 
C 43.317066 46.133437 43.317066 46.133437 43.317066 46.133437 
C 43.317066 46.133437 43.317066 46.133437 43.317066 46.133437 
z
" clip-path="url(#p2ed266266f)" style="stroke: #000000"/>
    <path d="M 76.718908 169.346671 
C 76.718908 169.346671 76.718908 169.346671 76.718908 169.346671 
C 76.718908 169.346671 76.718908 169.346671 76.718908 169.346671 
C 76.718908 169.346671 76.718908 169.346671 76.718908 169.346671 
C 76.718908 169.346671 76.718908 169.346671 76.718908 169.346671 
C 76.718908 169.346671 76.718908 169.346671 76.718908 169.346671 
C 76.718908 169.346671 76.718908 169.346671 76.718908 169.346671 
C 76.718908 169.346671 76.718908 169.346671 76.718908 169.346671 
C 76.718908 169.346671 76.718908 169.346671 76.718908 169.346671 
z
" clip-path="url(#p2ed266266f)" style="stroke: #000000"/>
    <path d="M 70.071318 157.245575 
C 70.071318 157.245575 70.071318 157.245575 70.071318 157.245575 
C 70.071318 157.245575 70.071318 157.245575 70.071318 157.245575 
C 70.071318 157.245575 70.071318 157.245575 70.071318 157.245575 
C 70.071318 157.245575 70.071318 157.245575 70.071318 157.245575 
C 70.071318 157.245575 70.071318 157.245575 70.071318 157.245575 
C 70.071318 157.245575 70.071318 157.245575 70.071318 157.245575 
C 70.071318 157.245575 70.071318 157.245575 70.071318 157.245575 
C 70.071318 157.245575 70.071318 157.245575 70.071318 157.245575 
z
" clip-path="url(#p2ed266266f)" style="stroke: #000000"/>
    <path d="M 65.538284 146.00074 
C 65.752019 146.00074 65.957028 145.915823 66.108161 145.76469 
C 66.259294 145.613557 66.344212 145.408547 66.344212 145.194813 
C 66.344212 144.981078 66.259294 144.776069 66.108161 144.624936 
C 65.957028 144.473803 65.752019 144.388885 65.538284 144.388885 
C 65.32455 144.388885 65.119541 144.473803 64.968408 144.624936 
C 64.817275 144.776069 64.732357 144.981078 64.732357 145.194813 
C 64.732357 145.408547 64.817275 145.613557 64.968408 145.76469 
C 65.119541 145.915823 65.32455 146.00074 65.538284 146.00074 
z
" clip-path="url(#p2ed266266f)" style="stroke: #000000"/>
    <path d="M 65.682996 139.257276 
C 65.964286 139.257276 66.234093 139.145518 66.432996 138.946616 
C 66.631898 138.747713 66.743656 138.477906 66.743656 138.196616 
C 66.743656 137.915325 66.631898 137.645518 66.432996 137.446616 
C 66.234093 137.247713 65.964286 137.135955 65.682996 137.135955 
C 65.401705 137.135955 65.131898 137.247713 64.932996 137.446616 
C 64.734093 137.645518 64.622336 137.915325 64.622336 138.196616 
C 64.622336 138.477906 64.734093 138.747713 64.932996 138.946616 
C 65.131898 139.145518 65.401705 139.257276 65.682996 139.257276 
z
" clip-path="url(#p2ed266266f)" style="stroke: #000000"/>
    <path d="M 59.618624 127.485171 
C 59.841632 127.485171 60.055537 127.396569 60.213228 127.238878 
C 60.370918 127.081187 60.459521 126.867283 60.459521 126.644274 
C 60.459521 126.421266 60.370918 126.207362 60.213228 126.049671 
C 60.055537 125.89198 59.841632 125.803378 59.618624 125.803378 
C 59.395616 125.803378 59.181711 125.89198 59.024021 126.049671 
C 58.86633 126.207362 58.777728 126.421266 58.777728 126.644274 
C 58.777728 126.867283 58.86633 127.081187 59.024021 127.238878 
C 59.181711 127.396569 59.395616 127.485171 59.618624 127.485171 
z
" clip-path="url(#p2ed266266f)" style="stroke: #000000"/>
    <path d="M 56.035121 116.812317 
C 56.252708 116.812317 56.461413 116.725869 56.61527 116.572012 
C 56.769127 116.418155 56.855576 116.20945 56.855576 115.991863 
C 56.855576 115.774276 56.769127 115.565571 56.61527 115.411714 
C 56.461413 115.257857 56.252708 115.171408 56.035121 115.171408 
C 55.817534 115.171408 55.608829 115.257857 55.454972 115.411714 
C 55.301115 115.565571 55.214666 115.774276 55.214666 115.991863 
C 55.214666 116.20945 55.301115 116.418155 55.454972 116.572012 
C 55.608829 116.725869 55.817534 116.812317 56.035121 116.812317 
z
" clip-path="url(#p2ed266266f)" style="stroke: #000000"/>
    <path d="M 57.57666 107.842566 
C 57.857951 107.842566 58.127758 107.730809 58.32666 107.531906 
C 58.525563 107.333004 58.637321 107.063197 58.637321 106.781906 
C 58.637321 106.500616 58.525563 106.230809 58.32666 106.031906 
C 58.127758 105.833004 57.857951 105.721246 57.57666 105.721246 
C 57.29537 105.721246 57.025563 105.833004 56.82666 106.031906 
C 56.627758 106.230809 56.516 106.500616 56.516 106.781906 
C 56.516 107.063197 56.627758 107.333004 56.82666 107.531906 
C 57.025563 107.730809 57.29537 107.842566 57.57666 107.842566 
z
" clip-path="url(#p2ed266266f)" style="stroke: #000000"/>
    <path d="M 50.620235 93.624389 
C 50.894307 93.624389 51.15719 93.515499 51.350988 93.321701 
C 51.544786 93.127903 51.653676 92.86502 51.653676 92.590948 
C 51.653676 92.316876 51.544786 92.053993 51.350988 91.860195 
C 51.15719 91.666397 50.894307 91.557507 50.620235 91.557507 
C 50.346163 91.557507 50.08328 91.666397 49.889482 91.860195 
C 49.695684 92.053993 49.586794 92.316876 49.586794 92.590948 
C 49.586794 92.86502 49.695684 93.127903 49.889482 93.321701 
C 50.08328 93.515499 50.346163 93.624389 50.620235 93.624389 
z
" clip-path="url(#p2ed266266f)" style="stroke: #000000"/>
    <path d="M 44.195283 84.211591 
C 44.195283 84.211591 44.195283 84.211591 44.195283 84.211591 
C 44.195283 84.211591 44.195283 84.211591 44.195283 84.211591 
C 44.195283 84.211591 44.195283 84.211591 44.195283 84.211591 
C 44.195283 84.211591 44.195283 84.211591 44.195283 84.211591 
C 44.195283 84.211591 44.195283 84.211591 44.195283 84.211591 
C 44.195283 84.211591 44.195283 84.211591 44.195283 84.211591 
C 44.195283 84.211591 44.195283 84.211591 44.195283 84.211591 
C 44.195283 84.211591 44.195283 84.211591 44.195283 84.211591 
z
" clip-path="url(#p2ed266266f)" style="stroke: #000000"/>
    <path d="M 46.284201 77.218518 
C 46.534769 77.218518 46.775109 77.118967 46.952287 76.941788 
C 47.129466 76.764609 47.229018 76.52427 47.229018 76.273702 
C 47.229018 76.023133 47.129466 75.782794 46.952287 75.605615 
C 46.775109 75.428437 46.534769 75.328885 46.284201 75.328885 
C 46.033633 75.328885 45.793293 75.428437 45.616115 75.605615 
C 45.438936 75.782794 45.339384 76.023133 45.339384 76.273702 
C 45.339384 76.52427 45.438936 76.764609 45.616115 76.941788 
C 45.793293 77.118967 46.033633 77.218518 46.284201 77.218518 
z
" clip-path="url(#p2ed266266f)" style="stroke: #000000"/>
    <path d="M 34.79488 65.530621 
C 34.79488 65.530621 34.79488 65.530621 34.79488 65.530621 
C 34.79488 65.530621 34.79488 65.530621 34.79488 65.530621 
C 34.79488 65.530621 34.79488 65.530621 34.79488 65.530621 
C 34.79488 65.530621 34.79488 65.530621 34.79488 65.530621 
C 34.79488 65.530621 34.79488 65.530621 34.79488 65.530621 
C 34.79488 65.530621 34.79488 65.530621 34.79488 65.530621 
C 34.79488 65.530621 34.79488 65.530621 34.79488 65.530621 
C 34.79488 65.530621 34.79488 65.530621 34.79488 65.530621 
z
" clip-path="url(#p2ed266266f)" style="stroke: #000000"/>
    <path d="M 64.609806 171.795565 
C 64.823541 171.795565 65.02855 171.710647 65.179683 171.559514 
C 65.330816 171.408381 65.415734 171.203372 65.415734 170.989637 
C 65.415734 170.775903 65.330816 170.570893 65.179683 170.41976 
C 65.02855 170.268627 64.823541 170.18371 64.609806 170.18371 
C 64.396072 170.18371 64.191063 170.268627 64.03993 170.41976 
C 63.888797 170.570893 63.803879 170.775903 63.803879 170.989637 
C 63.803879 171.203372 63.888797 171.408381 64.03993 171.559514 
C 64.191063 171.710647 64.396072 171.795565 64.609806 171.795565 
z
" clip-path="url(#p2ed266266f)" style="stroke: #000000"/>
    <path d="M 60.672584 162.717118 
C 60.672584 162.717118 60.672584 162.717118 60.672584 162.717118 
C 60.672584 162.717118 60.672584 162.717118 60.672584 162.717118 
C 60.672584 162.717118 60.672584 162.717118 60.672584 162.717118 
C 60.672584 162.717118 60.672584 162.717118 60.672584 162.717118 
C 60.672584 162.717118 60.672584 162.717118 60.672584 162.717118 
C 60.672584 162.717118 60.672584 162.717118 60.672584 162.717118 
C 60.672584 162.717118 60.672584 162.717118 60.672584 162.717118 
C 60.672584 162.717118 60.672584 162.717118 60.672584 162.717118 
z
" clip-path="url(#p2ed266266f)" style="stroke: #000000"/>
    <path d="M 57.746358 152.77709 
C 57.971088 152.77709 58.186645 152.687803 58.345553 152.528895 
C 58.504462 152.369986 58.593748 152.15443 58.593748 151.929699 
C 58.593748 151.704969 58.504462 151.489413 58.345553 151.330504 
C 58.186645 151.171596 57.971088 151.082309 57.746358 151.082309 
C 57.521627 151.082309 57.306071 151.171596 57.147162 151.330504 
C 56.988254 151.489413 56.898967 151.704969 56.898967 151.929699 
C 56.898967 152.15443 56.988254 152.369986 57.147162 152.528895 
C 57.306071 152.687803 57.521627 152.77709 57.746358 152.77709 
z
" clip-path="url(#p2ed266266f)" style="stroke: #000000"/>
    <path d="M 54.158436 141.278254 
C 54.158436 141.278254 54.158436 141.278254 54.158436 141.278254 
C 54.158436 141.278254 54.158436 141.278254 54.158436 141.278254 
C 54.158436 141.278254 54.158436 141.278254 54.158436 141.278254 
C 54.158436 141.278254 54.158436 141.278254 54.158436 141.278254 
C 54.158436 141.278254 54.158436 141.278254 54.158436 141.278254 
C 54.158436 141.278254 54.158436 141.278254 54.158436 141.278254 
C 54.158436 141.278254 54.158436 141.278254 54.158436 141.278254 
C 54.158436 141.278254 54.158436 141.278254 54.158436 141.278254 
z
" clip-path="url(#p2ed266266f)" style="stroke: #000000"/>
    <path d="M 45.557364 128.818168 
C 45.793167 128.818168 46.019343 128.724483 46.186081 128.557745 
C 46.352819 128.391008 46.446504 128.164831 46.446504 127.929029 
C 46.446504 127.693226 46.352819 127.46705 46.186081 127.300312 
C 46.019343 127.133574 45.793167 127.039889 45.557364 127.039889 
C 45.321562 127.039889 45.095385 127.133574 44.928648 127.300312 
C 44.76191 127.46705 44.668225 127.693226 44.668225 127.929029 
C 44.668225 128.164831 44.76191 128.391008 44.928648 128.557745 
C 45.095385 128.724483 45.321562 128.818168 45.557364 128.818168 
z
" clip-path="url(#p2ed266266f)" style="stroke: #000000"/>
    <path d="M 50.358556 118.625352 
C 50.358556 118.625352 50.358556 118.625352 50.358556 118.625352 
C 50.358556 118.625352 50.358556 118.625352 50.358556 118.625352 
C 50.358556 118.625352 50.358556 118.625352 50.358556 118.625352 
C 50.358556 118.625352 50.358556 118.625352 50.358556 118.625352 
C 50.358556 118.625352 50.358556 118.625352 50.358556 118.625352 
C 50.358556 118.625352 50.358556 118.625352 50.358556 118.625352 
C 50.358556 118.625352 50.358556 118.625352 50.358556 118.625352 
C 50.358556 118.625352 50.358556 118.625352 50.358556 118.625352 
z
" clip-path="url(#p2ed266266f)" style="stroke: #000000"/>
    <path d="M 39.994668 110.87549 
C 39.994668 110.87549 39.994668 110.87549 39.994668 110.87549 
C 39.994668 110.87549 39.994668 110.87549 39.994668 110.87549 
C 39.994668 110.87549 39.994668 110.87549 39.994668 110.87549 
C 39.994668 110.87549 39.994668 110.87549 39.994668 110.87549 
C 39.994668 110.87549 39.994668 110.87549 39.994668 110.87549 
C 39.994668 110.87549 39.994668 110.87549 39.994668 110.87549 
C 39.994668 110.87549 39.994668 110.87549 39.994668 110.87549 
C 39.994668 110.87549 39.994668 110.87549 39.994668 110.87549 
z
" clip-path="url(#p2ed266266f)" style="stroke: #000000"/>
    <path d="M 38.041885 96.684983 
C 38.041885 96.684983 38.041885 96.684983 38.041885 96.684983 
C 38.041885 96.684983 38.041885 96.684983 38.041885 96.684983 
C 38.041885 96.684983 38.041885 96.684983 38.041885 96.684983 
C 38.041885 96.684983 38.041885 96.684983 38.041885 96.684983 
C 38.041885 96.684983 38.041885 96.684983 38.041885 96.684983 
C 38.041885 96.684983 38.041885 96.684983 38.041885 96.684983 
C 38.041885 96.684983 38.041885 96.684983 38.041885 96.684983 
C 38.041885 96.684983 38.041885 96.684983 38.041885 96.684983 
z
" clip-path="url(#p2ed266266f)" style="stroke: #000000"/>
    <path d="M 41.919446 86.191463 
C 41.919446 86.191463 41.919446 86.191463 41.919446 86.191463 
C 41.919446 86.191463 41.919446 86.191463 41.919446 86.191463 
C 41.919446 86.191463 41.919446 86.191463 41.919446 86.191463 
C 41.919446 86.191463 41.919446 86.191463 41.919446 86.191463 
C 41.919446 86.191463 41.919446 86.191463 41.919446 86.191463 
C 41.919446 86.191463 41.919446 86.191463 41.919446 86.191463 
C 41.919446 86.191463 41.919446 86.191463 41.919446 86.191463 
C 41.919446 86.191463 41.919446 86.191463 41.919446 86.191463 
z
" clip-path="url(#p2ed266266f)" style="stroke: #000000"/>
    <path d="M 32.449866 78.391961 
C 32.449866 78.391961 32.449866 78.391961 32.449866 78.391961 
C 32.449866 78.391961 32.449866 78.391961 32.449866 78.391961 
C 32.449866 78.391961 32.449866 78.391961 32.449866 78.391961 
C 32.449866 78.391961 32.449866 78.391961 32.449866 78.391961 
C 32.449866 78.391961 32.449866 78.391961 32.449866 78.391961 
C 32.449866 78.391961 32.449866 78.391961 32.449866 78.391961 
C 32.449866 78.391961 32.449866 78.391961 32.449866 78.391961 
C 32.449866 78.391961 32.449866 78.391961 32.449866 78.391961 
z
" clip-path="url(#p2ed266266f)" style="stroke: #000000"/>
    <path d="M 55.411661 175.057503 
C 55.411661 175.057503 55.411661 175.057503 55.411661 175.057503 
C 55.411661 175.057503 55.411661 175.057503 55.411661 175.057503 
C 55.411661 175.057503 55.411661 175.057503 55.411661 175.057503 
C 55.411661 175.057503 55.411661 175.057503 55.411661 175.057503 
C 55.411661 175.057503 55.411661 175.057503 55.411661 175.057503 
C 55.411661 175.057503 55.411661 175.057503 55.411661 175.057503 
C 55.411661 175.057503 55.411661 175.057503 55.411661 175.057503 
C 55.411661 175.057503 55.411661 175.057503 55.411661 175.057503 
z
" clip-path="url(#p2ed266266f)" style="stroke: #000000"/>
    <path d="M 46.256354 164.712041 
C 46.256354 164.712041 46.256354 164.712041 46.256354 164.712041 
C 46.256354 164.712041 46.256354 164.712041 46.256354 164.712041 
C 46.256354 164.712041 46.256354 164.712041 46.256354 164.712041 
C 46.256354 164.712041 46.256354 164.712041 46.256354 164.712041 
C 46.256354 164.712041 46.256354 164.712041 46.256354 164.712041 
C 46.256354 164.712041 46.256354 164.712041 46.256354 164.712041 
C 46.256354 164.712041 46.256354 164.712041 46.256354 164.712041 
C 46.256354 164.712041 46.256354 164.712041 46.256354 164.712041 
z
" clip-path="url(#p2ed266266f)" style="stroke: #000000"/>
    <path d="M 44.233101 154.444443 
C 44.233101 154.444443 44.233101 154.444443 44.233101 154.444443 
C 44.233101 154.444443 44.233101 154.444443 44.233101 154.444443 
C 44.233101 154.444443 44.233101 154.444443 44.233101 154.444443 
C 44.233101 154.444443 44.233101 154.444443 44.233101 154.444443 
C 44.233101 154.444443 44.233101 154.444443 44.233101 154.444443 
C 44.233101 154.444443 44.233101 154.444443 44.233101 154.444443 
C 44.233101 154.444443 44.233101 154.444443 44.233101 154.444443 
C 44.233101 154.444443 44.233101 154.444443 44.233101 154.444443 
z
" clip-path="url(#p2ed266266f)" style="stroke: #000000"/>
    <path d="M 46.872252 143.11162 
C 46.872252 143.11162 46.872252 143.11162 46.872252 143.11162 
C 46.872252 143.11162 46.872252 143.11162 46.872252 143.11162 
C 46.872252 143.11162 46.872252 143.11162 46.872252 143.11162 
C 46.872252 143.11162 46.872252 143.11162 46.872252 143.11162 
C 46.872252 143.11162 46.872252 143.11162 46.872252 143.11162 
C 46.872252 143.11162 46.872252 143.11162 46.872252 143.11162 
C 46.872252 143.11162 46.872252 143.11162 46.872252 143.11162 
C 46.872252 143.11162 46.872252 143.11162 46.872252 143.11162 
z
" clip-path="url(#p2ed266266f)" style="stroke: #000000"/>
    <path d="M 41.284529 134.939616 
C 41.520332 134.939616 41.746508 134.84593 41.913246 134.679193 
C 42.079984 134.512455 42.173669 134.286279 42.173669 134.050476 
C 42.173669 133.814673 42.079984 133.588497 41.913246 133.421759 
C 41.746508 133.255022 41.520332 133.161336 41.284529 133.161336 
C 41.048727 133.161336 40.82255 133.255022 40.655812 133.421759 
C 40.489075 133.588497 40.395389 133.814673 40.395389 134.050476 
C 40.395389 134.286279 40.489075 134.512455 40.655812 134.679193 
C 40.82255 134.84593 41.048727 134.939616 41.284529 134.939616 
z
" clip-path="url(#p2ed266266f)" style="stroke: #000000"/>
    <path d="M 37.281684 122.976872 
C 37.502929 122.976872 37.715142 122.88897 37.871586 122.732526 
C 38.02803 122.576082 38.115932 122.363869 38.115932 122.142623 
C 38.115932 121.921378 38.02803 121.709165 37.871586 121.552721 
C 37.715142 121.396277 37.502929 121.308375 37.281684 121.308375 
C 37.060438 121.308375 36.848225 121.396277 36.691781 121.552721 
C 36.535337 121.709165 36.447435 121.921378 36.447435 122.142623 
C 36.447435 122.363869 36.535337 122.576082 36.691781 122.732526 
C 36.848225 122.88897 37.060438 122.976872 37.281684 122.976872 
z
" clip-path="url(#p2ed266266f)" style="stroke: #000000"/>
    <path d="M 27.840597 113.091611 
C 27.840597 113.091611 27.840597 113.091611 27.840597 113.091611 
C 27.840597 113.091611 27.840597 113.091611 27.840597 113.091611 
C 27.840597 113.091611 27.840597 113.091611 27.840597 113.091611 
C 27.840597 113.091611 27.840597 113.091611 27.840597 113.091611 
C 27.840597 113.091611 27.840597 113.091611 27.840597 113.091611 
C 27.840597 113.091611 27.840597 113.091611 27.840597 113.091611 
C 27.840597 113.091611 27.840597 113.091611 27.840597 113.091611 
C 27.840597 113.091611 27.840597 113.091611 27.840597 113.091611 
z
" clip-path="url(#p2ed266266f)" style="stroke: #000000"/>
    <path d="M 38.953527 167.106356 
C 38.953527 167.106356 38.953527 167.106356 38.953527 167.106356 
C 38.953527 167.106356 38.953527 167.106356 38.953527 167.106356 
C 38.953527 167.106356 38.953527 167.106356 38.953527 167.106356 
C 38.953527 167.106356 38.953527 167.106356 38.953527 167.106356 
C 38.953527 167.106356 38.953527 167.106356 38.953527 167.106356 
C 38.953527 167.106356 38.953527 167.106356 38.953527 167.106356 
C 38.953527 167.106356 38.953527 167.106356 38.953527 167.106356 
C 38.953527 167.106356 38.953527 167.106356 38.953527 167.106356 
z
" clip-path="url(#p2ed266266f)" style="stroke: #000000"/>
    <path d="M 38.703227 157.357167 
C 38.703227 157.357167 38.703227 157.357167 38.703227 157.357167 
C 38.703227 157.357167 38.703227 157.357167 38.703227 157.357167 
C 38.703227 157.357167 38.703227 157.357167 38.703227 157.357167 
C 38.703227 157.357167 38.703227 157.357167 38.703227 157.357167 
C 38.703227 157.357167 38.703227 157.357167 38.703227 157.357167 
C 38.703227 157.357167 38.703227 157.357167 38.703227 157.357167 
C 38.703227 157.357167 38.703227 157.357167 38.703227 157.357167 
C 38.703227 157.357167 38.703227 157.357167 38.703227 157.357167 
z
" clip-path="url(#p2ed266266f)" style="stroke: #000000"/>
    <path d="M 31.579506 145.486803 
C 31.579506 145.486803 31.579506 145.486803 31.579506 145.486803 
C 31.579506 145.486803 31.579506 145.486803 31.579506 145.486803 
C 31.579506 145.486803 31.579506 145.486803 31.579506 145.486803 
C 31.579506 145.486803 31.579506 145.486803 31.579506 145.486803 
C 31.579506 145.486803 31.579506 145.486803 31.579506 145.486803 
C 31.579506 145.486803 31.579506 145.486803 31.579506 145.486803 
C 31.579506 145.486803 31.579506 145.486803 31.579506 145.486803 
C 31.579506 145.486803 31.579506 145.486803 31.579506 145.486803 
z
" clip-path="url(#p2ed266266f)" style="stroke: #000000"/>
    <path d="M 33.704272 136.407371 
C 33.911805 136.407371 34.110866 136.324918 34.257613 136.17817 
C 34.404361 136.031422 34.486815 135.832362 34.486815 135.624829 
C 34.486815 135.417296 34.404361 135.218236 34.257613 135.071488 
C 34.110866 134.92474 33.911805 134.842287 33.704272 134.842287 
C 33.49674 134.842287 33.297679 134.92474 33.150931 135.071488 
C 33.004184 135.218236 32.92173 135.417296 32.92173 135.624829 
C 32.92173 135.832362 33.004184 136.031422 33.150931 136.17817 
C 33.297679 136.324918 33.49674 136.407371 33.704272 136.407371 
z
" clip-path="url(#p2ed266266f)" style="stroke: #000000"/>
   </g>
   <g id="matplotlib.axis_1">
    <g id="xtick_1">
     <g id="line2d_1">
      <defs>
       <path id="mf97b078e7f" d="M 0 0 
L 0 3.5 
" style="stroke: #000000; stroke-width: 0.8"/>
      </defs>
      <g>
       <use xlink:href="#mf97b078e7f" x="18" y="189" style="stroke: #000000; stroke-width: 0.8"/>
      </g>
     </g>
     <g id="text_1">
      <!-- 10 -->
      <g transform="translate(7.447656 203.598437)scale(0.1 -0.1)">
       <defs>
        <path id="DejaVuSans-2212" d="M 678 2272 
L 4684 2272 
L 4684 1741 
L 678 1741 
L 678 2272 
z
" transform="scale(0.015625)"/>
        <path id="DejaVuSans-31" d="M 794 531 
L 1825 531 
L 1825 4091 
L 703 3866 
L 703 4441 
L 1819 4666 
L 2450 4666 
L 2450 531 
L 3481 531 
L 3481 0 
L 794 0 
L 794 531 
z
" transform="scale(0.015625)"/>
        <path id="DejaVuSans-30" d="M 2034 4250 
Q 1547 4250 1301 3770 
Q 1056 3291 1056 2328 
Q 1056 1369 1301 889 
Q 1547 409 2034 409 
Q 2525 409 2770 889 
Q 3016 1369 3016 2328 
Q 3016 3291 2770 3770 
Q 2525 4250 2034 4250 
z
M 2034 4750 
Q 2819 4750 3233 4129 
Q 3647 3509 3647 2328 
Q 3647 1150 3233 529 
Q 2819 -91 2034 -91 
Q 1250 -91 836 529 
Q 422 1150 422 2328 
Q 422 3509 836 4129 
Q 1250 4750 2034 4750 
z
" transform="scale(0.015625)"/>
       </defs>
       <use xlink:href="#DejaVuSans-2212"/>
       <use xlink:href="#DejaVuSans-31" x="83.789062"/>
       <use xlink:href="#DejaVuSans-30" x="147.412109"/>
      </g>
     </g>
    </g>
    <g id="xtick_2">
     <g id="line2d_2">
      <g>
       <use xlink:href="#mf97b078e7f" x="73.8" y="189" style="stroke: #000000; stroke-width: 0.8"/>
      </g>
     </g>
     <g id="text_2">
      <!-- 0 -->
      <g transform="translate(70.61875 203.598437)scale(0.1 -0.1)">
       <use xlink:href="#DejaVuSans-30"/>
      </g>
     </g>
    </g>
    <g id="xtick_3">
     <g id="line2d_3">
      <g>
       <use xlink:href="#mf97b078e7f" x="129.6" y="189" style="stroke: #000000; stroke-width: 0.8"/>
      </g>
     </g>
     <g id="text_3">
      <!-- 10 -->
      <g transform="translate(123.2375 203.598437)scale(0.1 -0.1)">
       <use xlink:href="#DejaVuSans-31"/>
       <use xlink:href="#DejaVuSans-30" x="63.623047"/>
      </g>
     </g>
    </g>
   </g>
   <g id="matplotlib.axis_2">
    <g id="ytick_1">
     <g id="line2d_4">
      <defs>
       <path id="m946be4c2fa" d="M 0 0 
L -3.5 0 
" style="stroke: #000000; stroke-width: 0.8"/>
      </defs>
      <g>
       <use xlink:href="#m946be4c2fa" x="18" y="189" style="stroke: #000000; stroke-width: 0.8"/>
      </g>
     </g>
     <g id="text_4">
      <!-- 15 -->
      <g transform="translate(-10.104688 192.799219)scale(0.1 -0.1)">
       <defs>
        <path id="DejaVuSans-35" d="M 691 4666 
L 3169 4666 
L 3169 4134 
L 1269 4134 
L 1269 2991 
Q 1406 3038 1543 3061 
Q 1681 3084 1819 3084 
Q 2600 3084 3056 2656 
Q 3513 2228 3513 1497 
Q 3513 744 3044 326 
Q 2575 -91 1722 -91 
Q 1428 -91 1123 -41 
Q 819 9 494 109 
L 494 744 
Q 775 591 1075 516 
Q 1375 441 1709 441 
Q 2250 441 2565 725 
Q 2881 1009 2881 1497 
Q 2881 1984 2565 2268 
Q 2250 2553 1709 2553 
Q 1456 2553 1204 2497 
Q 953 2441 691 2322 
L 691 4666 
z
" transform="scale(0.015625)"/>
       </defs>
       <use xlink:href="#DejaVuSans-2212"/>
       <use xlink:href="#DejaVuSans-31" x="83.789062"/>
       <use xlink:href="#DejaVuSans-35" x="147.412109"/>
      </g>
     </g>
    </g>
    <g id="ytick_2">
     <g id="line2d_5">
      <g>
       <use xlink:href="#m946be4c2fa" x="18" y="161.82" style="stroke: #000000; stroke-width: 0.8"/>
      </g>
     </g>
     <g id="text_5">
      <!-- 10 -->
      <g transform="translate(-10.104688 165.619219)scale(0.1 -0.1)">
       <use xlink:href="#DejaVuSans-2212"/>
       <use xlink:href="#DejaVuSans-31" x="83.789062"/>
       <use xlink:href="#DejaVuSans-30" x="147.412109"/>
      </g>
     </g>
    </g>
    <g id="ytick_3">
     <g id="line2d_6">
      <g>
       <use xlink:href="#m946be4c2fa" x="18" y="134.64" style="stroke: #000000; stroke-width: 0.8"/>
      </g>
     </g>
     <g id="text_6">
      <!-- 5 -->
      <g transform="translate(-3.742188 138.439219)scale(0.1 -0.1)">
       <use xlink:href="#DejaVuSans-2212"/>
       <use xlink:href="#DejaVuSans-35" x="83.789062"/>
      </g>
     </g>
    </g>
    <g id="ytick_4">
     <g id="line2d_7">
      <g>
       <use xlink:href="#m946be4c2fa" x="18" y="107.46" style="stroke: #000000; stroke-width: 0.8"/>
      </g>
     </g>
     <g id="text_7">
      <!-- 0 -->
      <g transform="translate(4.6375 111.259219)scale(0.1 -0.1)">
       <use xlink:href="#DejaVuSans-30"/>
      </g>
     </g>
    </g>
    <g id="ytick_5">
     <g id="line2d_8">
      <g>
       <use xlink:href="#m946be4c2fa" x="18" y="80.28" style="stroke: #000000; stroke-width: 0.8"/>
      </g>
     </g>
     <g id="text_8">
      <!-- 5 -->
      <g transform="translate(4.6375 84.079219)scale(0.1 -0.1)">
       <use xlink:href="#DejaVuSans-35"/>
      </g>
     </g>
    </g>
    <g id="ytick_6">
     <g id="line2d_9">
      <g>
       <use xlink:href="#m946be4c2fa" x="18" y="53.1" style="stroke: #000000; stroke-width: 0.8"/>
      </g>
     </g>
     <g id="text_9">
      <!-- 10 -->
      <g transform="translate(-1.725 56.899219)scale(0.1 -0.1)">
       <use xlink:href="#DejaVuSans-31"/>
       <use xlink:href="#DejaVuSans-30" x="63.623047"/>
      </g>
     </g>
    </g>
    <g id="ytick_7">
     <g id="line2d_10">
      <g>
       <use xlink:href="#m946be4c2fa" x="18" y="25.92" style="stroke: #000000; stroke-width: 0.8"/>
      </g>
     </g>
     <g id="text_10">
      <!-- 15 -->
      <g transform="translate(-1.725 29.719219)scale(0.1 -0.1)">
       <use xlink:href="#DejaVuSans-31"/>
       <use xlink:href="#DejaVuSans-35" x="63.623047"/>
      </g>
     </g>
    </g>
   </g>
   <g id="patch_3">
    <path d="M 18 189 
L 18 25.92 
" style="fill: none; stroke: #000000; stroke-width: 0.8; stroke-linejoin: miter; stroke-linecap: square"/>
   </g>
   <g id="patch_4">
    <path d="M 129.6 189 
L 129.6 25.92 
" style="fill: none; stroke: #000000; stroke-width: 0.8; stroke-linejoin: miter; stroke-linecap: square"/>
   </g>
   <g id="patch_5">
    <path d="M 18 189 
L 129.6 189 
" style="fill: none; stroke: #000000; stroke-width: 0.8; stroke-linejoin: miter; stroke-linecap: square"/>
   </g>
   <g id="patch_6">
    <path d="M 18 25.92 
L 129.6 25.92 
" style="fill: none; stroke: #000000; stroke-width: 0.8; stroke-linejoin: miter; stroke-linecap: square"/>
   </g>
  </g>
 </g>
 <defs>
  <clipPath id="p2ed266266f">
   <rect x="18" y="25.92" width="111.6" height="163.08"/>
  </clipPath>
 </defs>
</svg>
