<?xml version="1.0" encoding="utf-8" standalone="no"?>
<!DOCTYPE svg PUBLIC "-//W3C//DTD SVG 1.1//EN"
  "http://www.w3.org/Graphics/SVG/1.1/DTD/svg11.dtd">
<svg xmlns:xlink="http://www.w3.org/1999/xlink" width="144pt" height="216pt" viewBox="0 0 144 216" xmlns="http://www.w3.org/2000/svg" version="1.1">
 <metadata>
  <rdf:RDF xmlns:dc="http://purl.org/dc/elements/1.1/" xmlns:cc="http://creativecommons.org/ns#" xmlns:rdf="http://www.w3.org/1999/02/22-rdf-syntax-ns#">
   <cc:Work>
    <dc:type rdf:resource="http://purl.org/dc/dcmitype/StillImage"/>
    <dc:date>2022-06-23T14:52:11.823658</dc:date>
    <dc:format>image/svg+xml</dc:format>
    <dc:creator>
     <cc:Agent>
      <dc:title>Matplotlib v3.5.1, https://matplotlib.org/</dc:title>
     </cc:Agent>
    </dc:creator>
   </cc:Work>
  </rdf:RDF>
 </metadata>
 <defs>
  <style type="text/css">*{stroke-linejoin: round; stroke-linecap: butt}</style>
 </defs>
 <g id="figure_1">
  <g id="patch_1">
   <path d="M 0 216 
L 144 216 
L 144 0 
L 0 0 
L 0 216 
z
" style="fill: none"/>
  </g>
  <g id="axes_1">
   <g id="patch_2">
    <path d="M 18 189 
L 129.6 189 
L 129.6 25.92 
L 18 25.92 
z
" style="fill: #ffffff"/>
   </g>
   <g id="PathCollection_1">
    <defs>
     <path id="m1029544c94" d="M 0 2.738613 
C 0.726289 2.738613 1.422928 2.450055 1.936492 1.936492 
C 2.450055 1.422928 2.738613 0.726289 2.738613 0 
C 2.738613 -0.726289 2.450055 -1.422928 1.936492 -1.936492 
C 1.422928 -2.450055 0.726289 -2.738613 0 -2.738613 
C -0.726289 -2.738613 -1.422928 -2.450055 -1.936492 -1.936492 
C -2.450055 -1.422928 -2.738613 -0.726289 -2.738613 0 
C -2.738613 0.726289 -2.450055 1.422928 -1.936492 1.936492 
C -1.422928 2.450055 -0.726289 2.738613 0 2.738613 
z
" style="stroke: #ff0000; stroke-width: 1.75"/>
    </defs>
    <g clip-path="url(#p9295de1a14)">
     <use xlink:href="#m1029544c94" x="80.775" y="83.92143" style="fill: #ff0000; stroke: #ff0000; stroke-width: 1.75"/>
     <use xlink:href="#m1029544c94" x="59.85" y="95.690715" style="fill: #ff0000; stroke: #ff0000; stroke-width: 1.75"/>
     <use xlink:href="#m1029544c94" x="66.825" y="107.46" style="fill: #ff0000; stroke: #ff0000; stroke-width: 1.75"/>
     <use xlink:href="#m1029544c94" x="80.775" y="107.46" style="fill: #ff0000; stroke: #ff0000; stroke-width: 1.75"/>
     <use xlink:href="#m1029544c94" x="94.725" y="107.46" style="fill: #ff0000; stroke: #ff0000; stroke-width: 1.75"/>
     <use xlink:href="#m1029544c94" x="59.85" y="119.229285" style="fill: #ff0000; stroke: #ff0000; stroke-width: 1.75"/>
     <use xlink:href="#m1029544c94" x="80.775" y="130.99857" style="fill: #ff0000; stroke: #ff0000; stroke-width: 1.75"/>
    </g>
   </g>
   <g id="PathCollection_2">
    <defs>
     <path id="C0_0_115cf5ddbc" d="M 0 2.738613 
C 0.726289 2.738613 1.422928 2.450055 1.936492 1.936492 
C 2.450055 1.422928 2.738613 0.726289 2.738613 -0 
C 2.738613 -0.726289 2.450055 -1.422928 1.936492 -1.936492 
C 1.422928 -2.450055 0.726289 -2.738613 0 -2.738613 
C -0.726289 -2.738613 -1.422928 -2.450055 -1.936492 -1.936492 
C -2.450055 -1.422928 -2.738613 -0.726289 -2.738613 0 
C -2.738613 0.726289 -2.450055 1.422928 -1.936492 1.936492 
C -1.422928 2.450055 -0.726289 2.738613 0 2.738613 
z
"/>
    </defs>
    <g clip-path="url(#p9295de1a14)">
     <use xlink:href="#C0_0_115cf5ddbc" x="66.825" y="83.92143" style="fill: none; stroke: #ff0000; stroke-width: 1.75"/>
    </g>
    <g clip-path="url(#p9295de1a14)">
     <use xlink:href="#C0_0_115cf5ddbc" x="73.8" y="95.690715" style="fill: none; stroke: #ff0000; stroke-width: 1.75"/>
    </g>
    <g clip-path="url(#p9295de1a14)">
     <use xlink:href="#C0_0_115cf5ddbc" x="87.75" y="95.690715" style="fill: none; stroke: #ff0000; stroke-width: 1.75"/>
    </g>
    <g clip-path="url(#p9295de1a14)">
     <use xlink:href="#C0_0_115cf5ddbc" x="52.875" y="107.46" style="fill: none; stroke: #ff0000; stroke-width: 1.75"/>
    </g>
    <g clip-path="url(#p9295de1a14)">
     <use xlink:href="#C0_0_115cf5ddbc" x="73.8" y="119.229285" style="fill: none; stroke: #ff0000; stroke-width: 1.75"/>
    </g>
    <g clip-path="url(#p9295de1a14)">
     <use xlink:href="#C0_0_115cf5ddbc" x="87.75" y="119.229285" style="fill: none; stroke: #ff0000; stroke-width: 1.75"/>
    </g>
    <g clip-path="url(#p9295de1a14)">
     <use xlink:href="#C0_0_115cf5ddbc" x="66.825" y="130.99857" style="fill: none; stroke: #ff0000; stroke-width: 1.75"/>
    </g>
   </g>
   <g id="PathCollection_3">
    <path d="M 113.295812 114.36883 
C 114.001246 114.36883 114.677883 114.088557 115.176701 113.58974 
C 115.675518 113.090922 115.95579 112.414286 115.95579 111.708851 
C 115.95579 111.003416 115.675518 110.32678 115.176701 109.827962 
C 114.677883 109.329145 114.001246 109.048872 113.295812 109.048872 
C 112.590377 109.048872 111.913741 109.329145 111.414923 109.827962 
C 110.916105 110.32678 110.635833 111.003416 110.635833 111.708851 
C 110.635833 112.414286 110.916105 113.090922 111.414923 113.58974 
C 111.913741 114.088557 112.590377 114.36883 113.295812 114.36883 
z
" clip-path="url(#p9295de1a14)" style="stroke: #000000"/>
    <path d="M 106.756985 96.555819 
C 106.944512 96.555819 107.124383 96.481314 107.256985 96.348712 
C 107.389586 96.21611 107.464091 96.036239 107.464091 95.848712 
C 107.464091 95.661185 107.389586 95.481314 107.256985 95.348712 
C 107.124383 95.21611 106.944512 95.141605 106.756985 95.141605 
C 106.569458 95.141605 106.389586 95.21611 106.256985 95.348712 
C 106.124383 95.481314 106.049878 95.661185 106.049878 95.848712 
C 106.049878 96.036239 106.124383 96.21611 106.256985 96.348712 
C 106.389586 96.481314 106.569458 96.555819 106.756985 96.555819 
z
" clip-path="url(#p9295de1a14)" style="stroke: #000000"/>
    <path d="M 109.782914 91.3941 
C 110.488348 91.3941 111.164985 91.113827 111.663803 90.61501 
C 112.16262 90.116192 112.442892 89.439556 112.442892 88.734121 
C 112.442892 88.028686 112.16262 87.35205 111.663803 86.853232 
C 111.164985 86.354415 110.488348 86.074142 109.782914 86.074142 
C 109.077479 86.074142 108.400842 86.354415 107.902025 86.853232 
C 107.403207 87.35205 107.122935 88.028686 107.122935 88.734121 
C 107.122935 89.439556 107.403207 90.116192 107.902025 90.61501 
C 108.400842 91.113827 109.077479 91.3941 109.782914 91.3941 
z
" clip-path="url(#p9295de1a14)" style="stroke: #000000"/>
    <path d="M 100.505583 60.329356 
C 101.211017 60.329356 101.887654 60.049084 102.386471 59.550267 
C 102.885289 59.051449 103.165561 58.374812 103.165561 57.669378 
C 103.165561 56.963943 102.885289 56.287306 102.386471 55.788489 
C 101.887654 55.289671 101.211017 55.009399 100.505583 55.009399 
C 99.800148 55.009399 99.123511 55.289671 98.624694 55.788489 
C 98.125876 56.287306 97.845604 56.963943 97.845604 57.669378 
C 97.845604 58.374812 98.125876 59.051449 98.624694 59.550267 
C 99.123511 60.049084 99.800148 60.329356 100.505583 60.329356 
z
" clip-path="url(#p9295de1a14)" style="stroke: #000000"/>
    <path d="M 91.470625 49.394118 
C 92.031461 49.394118 92.569402 49.171295 92.965974 48.774724 
C 93.362545 48.378153 93.585367 47.840211 93.585367 47.279375 
C 93.585367 46.718539 93.362545 46.180597 92.965974 45.784026 
C 92.569402 45.387455 92.031461 45.164633 91.470625 45.164633 
C 90.909789 45.164633 90.371847 45.387455 89.975276 45.784026 
C 89.578705 46.180597 89.355882 46.718539 89.355882 47.279375 
C 89.355882 47.840211 89.578705 48.378153 89.975276 48.774724 
C 90.371847 49.171295 90.909789 49.394118 91.470625 49.394118 
z
" clip-path="url(#p9295de1a14)" style="stroke: #000000"/>
    <path d="M 122.423578 169.122233 
C 123.128792 169.122233 123.805218 168.842048 124.30388 168.343387 
C 124.802541 167.844725 125.082726 167.168299 125.082726 166.463085 
C 125.082726 165.757871 124.802541 165.081445 124.30388 164.582784 
C 123.805218 164.084122 123.128792 163.803937 122.423578 163.803937 
C 121.718364 163.803937 121.041938 164.084122 120.543277 164.582784 
C 120.044615 165.081445 119.76443 165.757871 119.76443 166.463085 
C 119.76443 167.168299 120.044615 167.844725 120.543277 168.343387 
C 121.041938 168.842048 121.718364 169.122233 122.423578 169.122233 
z
" clip-path="url(#p9295de1a14)" style="stroke: #000000"/>
    <path d="M 118.973866 157.098738 
C 119.53161 157.098738 120.066585 156.877144 120.460969 156.482759 
C 120.855354 156.088375 121.076948 155.5534 121.076948 154.995656 
C 121.076948 154.437912 120.855354 153.902937 120.460969 153.508553 
C 120.066585 153.114169 119.53161 152.892575 118.973866 152.892575 
C 118.416122 152.892575 117.881147 153.114169 117.486763 153.508553 
C 117.092379 153.902937 116.870785 154.437912 116.870785 154.995656 
C 116.870785 155.5534 117.092379 156.088375 117.486763 156.482759 
C 117.881147 156.877144 118.416122 157.098738 118.973866 157.098738 
z
" clip-path="url(#p9295de1a14)" style="stroke: #000000"/>
    <path d="M 118.887742 148.04427 
C 119.44814 148.04427 119.98566 147.821622 120.381921 147.425361 
C 120.778182 147.0291 121.000831 146.491579 121.000831 145.931182 
C 121.000831 145.370784 120.778182 144.833264 120.381921 144.437003 
C 119.98566 144.040742 119.44814 143.818093 118.887742 143.818093 
C 118.327345 143.818093 117.789824 144.040742 117.393563 144.437003 
C 116.997302 144.833264 116.774654 145.370784 116.774654 145.931182 
C 116.774654 146.491579 116.997302 147.0291 117.393563 147.425361 
C 117.789824 147.821622 118.327345 148.04427 118.887742 148.04427 
z
" clip-path="url(#p9295de1a14)" style="stroke: #000000"/>
    <path d="M 114.831705 131.477839 
C 115.53714 131.477839 116.213776 131.197566 116.712594 130.698749 
C 117.211411 130.199931 117.491684 129.523295 117.491684 128.81786 
C 117.491684 128.112425 117.211411 127.435789 116.712594 126.936971 
C 116.213776 126.438154 115.53714 126.157881 114.831705 126.157881 
C 114.12627 126.157881 113.449634 126.438154 112.950816 126.936971 
C 112.451999 127.435789 112.171726 128.112425 112.171726 128.81786 
C 112.171726 129.523295 112.451999 130.199931 112.950816 130.698749 
C 113.449634 131.197566 114.12627 131.477839 114.831705 131.477839 
z
" clip-path="url(#p9295de1a14)" style="stroke: #000000"/>
    <path d="M 106.990108 126.343318 
C 107.695322 126.343318 108.371748 126.063134 108.870409 125.564472 
C 109.369071 125.06581 109.649256 124.389385 109.649256 123.68417 
C 109.649256 122.978956 109.369071 122.302531 108.870409 121.803869 
C 108.371748 121.305207 107.695322 121.025022 106.990108 121.025022 
C 106.284894 121.025022 105.608468 121.305207 105.109806 121.803869 
C 104.611145 122.302531 104.33096 122.978956 104.33096 123.68417 
C 104.33096 124.389385 104.611145 125.06581 105.109806 125.564472 
C 105.608468 126.063134 106.284894 126.343318 106.990108 126.343318 
z
" clip-path="url(#p9295de1a14)" style="stroke: #000000"/>
    <path d="M 109.841248 113.783263 
C 110.43426 113.783263 111.003064 113.547657 111.422386 113.128334 
C 111.841709 112.709011 112.077316 112.140207 112.077316 111.547195 
C 112.077316 110.954183 111.841709 110.385379 111.422386 109.966056 
C 111.003064 109.546733 110.43426 109.311127 109.841248 109.311127 
C 109.248235 109.311127 108.679432 109.546733 108.260109 109.966056 
C 107.840786 110.385379 107.60518 110.954183 107.60518 111.547195 
C 107.60518 112.140207 107.840786 112.709011 108.260109 113.128334 
C 108.679432 113.547657 109.248235 113.783263 109.841248 113.783263 
z
" clip-path="url(#p9295de1a14)" style="stroke: #000000"/>
    <path d="M 100.465747 104.942873 
C 101.058759 104.942873 101.627563 104.707267 102.046886 104.287944 
C 102.466209 103.868621 102.701815 103.299817 102.701815 102.706805 
C 102.701815 102.113793 102.466209 101.544989 102.046886 101.125666 
C 101.627563 100.706343 101.058759 100.470737 100.465747 100.470737 
C 99.872735 100.470737 99.303931 100.706343 98.884608 101.125666 
C 98.465285 101.544989 98.229679 102.113793 98.229679 102.706805 
C 98.229679 103.299817 98.465285 103.868621 98.884608 104.287944 
C 99.303931 104.707267 99.872735 104.942873 100.465747 104.942873 
z
" clip-path="url(#p9295de1a14)" style="stroke: #000000"/>
    <path d="M 95.960647 90.514758 
C 96.665861 90.514758 97.342286 90.234573 97.840948 89.735911 
C 98.33961 89.23725 98.619794 88.560824 98.619794 87.85561 
C 98.619794 87.150396 98.33961 86.47397 97.840948 85.975308 
C 97.342286 85.476646 96.665861 85.196462 95.960647 85.196462 
C 95.255432 85.196462 94.579007 85.476646 94.080345 85.975308 
C 93.581683 86.47397 93.301499 87.150396 93.301499 87.85561 
C 93.301499 88.560824 93.581683 89.23725 94.080345 89.735911 
C 94.579007 90.234573 95.255432 90.514758 95.960647 90.514758 
z
" clip-path="url(#p9295de1a14)" style="stroke: #000000"/>
    <path d="M 94.670645 90.089701 
C 95.303553 90.089701 95.910624 89.838244 96.358157 89.39071 
C 96.80569 88.943177 97.057147 88.336106 97.057147 87.703198 
C 97.057147 87.070291 96.80569 86.46322 96.358157 86.015686 
C 95.910624 85.568153 95.303553 85.316696 94.670645 85.316696 
C 94.037737 85.316696 93.430667 85.568153 92.983133 86.015686 
C 92.5356 86.46322 92.284143 87.070291 92.284143 87.703198 
C 92.284143 88.336106 92.5356 88.943177 92.983133 89.39071 
C 93.430667 89.838244 94.037737 90.089701 94.670645 90.089701 
z
" clip-path="url(#p9295de1a14)" style="stroke: #000000"/>
    <path d="M 86.272393 75.110049 
C 86.977827 75.110049 87.654464 74.829777 88.153281 74.330959 
C 88.652099 73.832142 88.932371 73.155505 88.932371 72.45007 
C 88.932371 71.744636 88.652099 71.067999 88.153281 70.569181 
C 87.654464 70.070364 86.977827 69.790092 86.272393 69.790092 
C 85.566958 69.790092 84.890321 70.070364 84.391504 70.569181 
C 83.892686 71.067999 83.612414 71.744636 83.612414 72.45007 
C 83.612414 73.155505 83.892686 73.832142 84.391504 74.330959 
C 84.890321 74.829777 85.566958 75.110049 86.272393 75.110049 
z
" clip-path="url(#p9295de1a14)" style="stroke: #000000"/>
    <path d="M 82.612611 63.979697 
C 83.205623 63.979697 83.774427 63.744091 84.19375 63.324768 
C 84.613073 62.905445 84.848679 62.336641 84.848679 61.743629 
C 84.848679 61.150617 84.613073 60.581813 84.19375 60.16249 
C 83.774427 59.743167 83.205623 59.507561 82.612611 59.507561 
C 82.019599 59.507561 81.450795 59.743167 81.031472 60.16249 
C 80.612149 60.581813 80.376543 61.150617 80.376543 61.743629 
C 80.376543 62.336641 80.612149 62.905445 81.031472 63.324768 
C 81.450795 63.744091 82.019599 63.979697 82.612611 63.979697 
z
" clip-path="url(#p9295de1a14)" style="stroke: #000000"/>
    <path d="M 82.561196 54.925288 
C 83.266631 54.925288 83.943267 54.645016 84.442085 54.146198 
C 84.940902 53.64738 85.221174 52.970744 85.221174 52.265309 
C 85.221174 51.559875 84.940902 50.883238 84.442085 50.38442 
C 83.943267 49.885603 83.266631 49.605331 82.561196 49.605331 
C 81.855761 49.605331 81.179125 49.885603 80.680307 50.38442 
C 80.18149 50.883238 79.901217 51.559875 79.901217 52.265309 
C 79.901217 52.970744 80.18149 53.64738 80.680307 54.146198 
C 81.179125 54.645016 81.855761 54.925288 82.561196 54.925288 
z
" clip-path="url(#p9295de1a14)" style="stroke: #000000"/>
    <path d="M 107.705668 162.992555 
C 108.265185 162.992555 108.801861 162.770256 109.197499 162.374618 
C 109.593138 161.97898 109.815436 161.442303 109.815436 160.882786 
C 109.815436 160.323269 109.593138 159.786593 109.197499 159.390955 
C 108.801861 158.995316 108.265185 158.773018 107.705668 158.773018 
C 107.14615 158.773018 106.609474 158.995316 106.213836 159.390955 
C 105.818197 159.786593 105.595899 160.323269 105.595899 160.882786 
C 105.595899 161.442303 105.818197 161.97898 106.213836 162.374618 
C 106.609474 162.770256 107.14615 162.992555 107.705668 162.992555 
z
" clip-path="url(#p9295de1a14)" style="stroke: #000000"/>
    <path d="M 103.408822 148.49464 
C 104.114036 148.49464 104.790462 148.214455 105.289124 147.715794 
C 105.787785 147.217132 106.06797 146.540706 106.06797 145.835492 
C 106.06797 145.130278 105.787785 144.453852 105.289124 143.95519 
C 104.790462 143.456529 104.114036 143.176344 103.408822 143.176344 
C 102.703608 143.176344 102.027182 143.456529 101.52852 143.95519 
C 101.029859 144.453852 100.749674 145.130278 100.749674 145.835492 
C 100.749674 146.540706 101.029859 147.217132 101.52852 147.715794 
C 102.027182 148.214455 102.703608 148.49464 103.408822 148.49464 
z
" clip-path="url(#p9295de1a14)" style="stroke: #000000"/>
    <path d="M 97.046819 137.458909 
C 97.752034 137.458909 98.428459 137.178725 98.927121 136.680063 
C 99.425783 136.181401 99.705967 135.504976 99.705967 134.799761 
C 99.705967 134.094547 99.425783 133.418122 98.927121 132.91946 
C 98.428459 132.420798 97.752034 132.140613 97.046819 132.140613 
C 96.341605 132.140613 95.665179 132.420798 95.166518 132.91946 
C 94.667856 133.418122 94.387671 134.094547 94.387671 134.799761 
C 94.387671 135.504976 94.667856 136.181401 95.166518 136.680063 
C 95.665179 137.178725 96.341605 137.458909 97.046819 137.458909 
z
" clip-path="url(#p9295de1a14)" style="stroke: #000000"/>
    <path d="M 92.093536 127.281022 
C 92.632042 127.281022 93.148565 127.067071 93.529346 126.686289 
C 93.910128 126.305508 94.124079 125.788985 94.124079 125.250478 
C 94.124079 124.711972 93.910128 124.195449 93.529346 123.814667 
C 93.148565 123.433886 92.632042 123.219935 92.093536 123.219935 
C 91.555029 123.219935 91.038506 123.433886 90.657725 123.814667 
C 90.276943 124.195449 90.062992 124.711972 90.062992 125.250478 
C 90.062992 125.788985 90.276943 126.305508 90.657725 126.686289 
C 91.038506 127.067071 91.555029 127.281022 92.093536 127.281022 
z
" clip-path="url(#p9295de1a14)" style="stroke: #000000"/>
    <path d="M 92.072125 120.236383 
C 92.709557 120.236383 93.320967 119.983129 93.7717 119.532396 
C 94.222433 119.081664 94.475687 118.470253 94.475687 117.832821 
C 94.475687 117.195389 94.222433 116.583979 93.7717 116.133246 
C 93.320967 115.682514 92.709557 115.429259 92.072125 115.429259 
C 91.434693 115.429259 90.823283 115.682514 90.37255 116.133246 
C 89.921818 116.583979 89.668563 117.195389 89.668563 117.832821 
C 89.668563 118.470253 89.921818 119.081664 90.37255 119.532396 
C 90.823283 119.983129 91.434693 120.236383 92.072125 120.236383 
z
" clip-path="url(#p9295de1a14)" style="stroke: #000000"/>
    <path d="M 92.008432 109.963544 
C 92.847208 109.963544 93.651744 109.630294 94.244849 109.03719 
C 94.837954 108.444085 95.171203 107.639549 95.171203 106.800772 
C 95.171203 105.961995 94.837954 105.15746 94.244849 104.564355 
C 93.651744 103.97125 92.847208 103.638001 92.008432 103.638001 
C 91.169655 103.638001 90.365119 103.97125 89.772014 104.564355 
C 89.178909 105.15746 88.84566 105.961995 88.84566 106.800772 
C 88.84566 107.639549 89.178909 108.444085 89.772014 109.03719 
C 90.365119 109.630294 91.169655 109.963544 92.008432 109.963544 
z
" clip-path="url(#p9295de1a14)" style="stroke: #000000"/>
    <path d="M 83.414151 97.815963 
C 84.119366 97.815963 84.795791 97.535779 85.294453 97.037117 
C 85.793115 96.538455 86.073299 95.86203 86.073299 95.156816 
C 86.073299 94.451601 85.793115 93.775176 85.294453 93.276514 
C 84.795791 92.777852 84.119366 92.497668 83.414151 92.497668 
C 82.708937 92.497668 82.032512 92.777852 81.53385 93.276514 
C 81.035188 93.775176 80.755003 94.451601 80.755003 95.156816 
C 80.755003 95.86203 81.035188 96.538455 81.53385 97.037117 
C 82.032512 97.535779 82.708937 97.815963 83.414151 97.815963 
z
" clip-path="url(#p9295de1a14)" style="stroke: #000000"/>
    <path d="M 80.463576 84.135903 
C 81.169011 84.135903 81.845648 83.855631 82.344465 83.356813 
C 82.843283 82.857995 83.123555 82.181359 83.123555 81.475924 
C 83.123555 80.77049 82.843283 80.093853 82.344465 79.595035 
C 81.845648 79.096218 81.169011 78.815946 80.463576 78.815946 
C 79.758142 78.815946 79.081505 79.096218 78.582688 79.595035 
C 78.08387 80.093853 77.803598 80.77049 77.803598 81.475924 
C 77.803598 82.181359 78.08387 82.857995 78.582688 83.356813 
C 79.081505 83.855631 79.758142 84.135903 80.463576 84.135903 
z
" clip-path="url(#p9295de1a14)" style="stroke: #000000"/>
    <path d="M 76.291298 78.586224 
C 76.908707 78.586224 77.500912 78.340925 77.937486 77.90435 
C 78.37406 77.467776 78.619359 76.875571 78.619359 76.258162 
C 78.619359 75.640753 78.37406 75.048548 77.937486 74.611974 
C 77.500912 74.1754 76.908707 73.930101 76.291298 73.930101 
C 75.673889 73.930101 75.081684 74.1754 74.64511 74.611974 
C 74.208535 75.048548 73.963236 75.640753 73.963236 76.258162 
C 73.963236 76.875571 74.208535 77.467776 74.64511 77.90435 
C 75.081684 78.340925 75.673889 78.586224 76.291298 78.586224 
z
" clip-path="url(#p9295de1a14)" style="stroke: #000000"/>
    <path d="M 75.855517 65.849284 
C 76.560732 65.849284 77.237157 65.569099 77.735819 65.070438 
C 78.234481 64.571776 78.514665 63.89535 78.514665 63.190136 
C 78.514665 62.484922 78.234481 61.808496 77.735819 61.309835 
C 77.237157 60.811173 76.560732 60.530988 75.855517 60.530988 
C 75.150303 60.530988 74.473877 60.811173 73.975216 61.309835 
C 73.476554 61.808496 73.196369 62.484922 73.196369 63.190136 
C 73.196369 63.89535 73.476554 64.571776 73.975216 65.070438 
C 74.473877 65.569099 75.150303 65.849284 75.855517 65.849284 
z
" clip-path="url(#p9295de1a14)" style="stroke: #000000"/>
    <path d="M 70.203015 59.349508 
C 70.763851 59.349508 71.301793 59.126685 71.698364 58.730114 
C 72.094935 58.333543 72.317758 57.795601 72.317758 57.234765 
C 72.317758 56.673929 72.094935 56.135987 71.698364 55.739416 
C 71.301793 55.342845 70.763851 55.120023 70.203015 55.120023 
C 69.642179 55.120023 69.104237 55.342845 68.707666 55.739416 
C 68.311095 56.135987 68.088273 56.673929 68.088273 57.234765 
C 68.088273 57.795601 68.311095 58.333543 68.707666 58.730114 
C 69.104237 59.126685 69.642179 59.349508 70.203015 59.349508 
z
" clip-path="url(#p9295de1a14)" style="stroke: #000000"/>
    <path d="M 70.000084 43.731541 
C 70.705518 43.731541 71.382155 43.451268 71.880972 42.952451 
C 72.37979 42.453633 72.660062 41.776997 72.660062 41.071562 
C 72.660062 40.366127 72.37979 39.689491 71.880972 39.190673 
C 71.382155 38.691856 70.705518 38.411583 70.000084 38.411583 
C 69.294649 38.411583 68.618012 38.691856 68.119195 39.190673 
C 67.620377 39.689491 67.340105 40.366127 67.340105 41.071562 
C 67.340105 41.776997 67.620377 42.453633 68.119195 42.952451 
C 68.618012 43.451268 69.294649 43.731541 70.000084 43.731541 
z
" clip-path="url(#p9295de1a14)" style="stroke: #000000"/>
    <path d="M 97.421602 174.204361 
C 98.127037 174.204361 98.803673 173.924089 99.302491 173.425271 
C 99.801308 172.926453 100.08158 172.249817 100.08158 171.544382 
C 100.08158 170.838948 99.801308 170.162311 99.302491 169.663493 
C 98.803673 169.164676 98.127037 168.884404 97.421602 168.884404 
C 96.716167 168.884404 96.039531 169.164676 95.540713 169.663493 
C 95.041896 170.162311 94.761623 170.838948 94.761623 171.544382 
C 94.761623 172.249817 95.041896 172.926453 95.540713 173.425271 
C 96.039531 173.924089 96.716167 174.204361 97.421602 174.204361 
z
" clip-path="url(#p9295de1a14)" style="stroke: #000000"/>
    <path d="M 93.559608 150.604281 
C 94.264822 150.604281 94.941248 150.324096 95.43991 149.825434 
C 95.938571 149.326772 96.218756 148.650347 96.218756 147.945133 
C 96.218756 147.239918 95.938571 146.563493 95.43991 146.064831 
C 94.941248 145.566169 94.264822 145.285985 93.559608 145.285985 
C 92.854394 145.285985 92.177968 145.566169 91.679307 146.064831 
C 91.180645 146.563493 90.90046 147.239918 90.90046 147.945133 
C 90.90046 148.650347 91.180645 149.326772 91.679307 149.825434 
C 92.177968 150.324096 92.854394 150.604281 93.559608 150.604281 
z
" clip-path="url(#p9295de1a14)" style="stroke: #000000"/>
    <path d="M 91.578864 143.62121 
C 92.024007 143.62121 92.450978 143.444352 92.765741 143.129589 
C 93.080505 142.814825 93.257362 142.387854 93.257362 141.942711 
C 93.257362 141.497568 93.080505 141.070597 92.765741 140.755834 
C 92.450978 140.44107 92.024007 140.264213 91.578864 140.264213 
C 91.133721 140.264213 90.70675 140.44107 90.391986 140.755834 
C 90.077223 141.070597 89.900365 141.497568 89.900365 141.942711 
C 89.900365 142.387854 90.077223 142.814825 90.391986 143.129589 
C 90.70675 143.444352 91.133721 143.62121 91.578864 143.62121 
z
" clip-path="url(#p9295de1a14)" style="stroke: #000000"/>
    <path d="M 86.90527 132.264653 
C 87.543001 132.264653 88.154697 132.01128 88.60564 131.560336 
C 89.056584 131.109393 89.309957 130.497696 89.309957 129.859966 
C 89.309957 129.222236 89.056584 128.61054 88.60564 128.159596 
C 88.154697 127.708653 87.543001 127.45528 86.90527 127.45528 
C 86.26754 127.45528 85.655844 127.708653 85.2049 128.159596 
C 84.753957 128.61054 84.500584 129.222236 84.500584 129.859966 
C 84.500584 130.497696 84.753957 131.109393 85.2049 131.560336 
C 85.655844 132.01128 86.26754 132.264653 86.90527 132.264653 
z
" clip-path="url(#p9295de1a14)" style="stroke: #000000"/>
    <path d="M 85.722434 124.571042 
C 86.427648 124.571042 87.104074 124.290858 87.602735 123.792196 
C 88.101397 123.293534 88.381582 122.617109 88.381582 121.911894 
C 88.381582 121.20668 88.101397 120.530255 87.602735 120.031593 
C 87.104074 119.532931 86.427648 119.252747 85.722434 119.252747 
C 85.01722 119.252747 84.340794 119.532931 83.842132 120.031593 
C 83.343471 120.530255 83.063286 121.20668 83.063286 121.911894 
C 83.063286 122.617109 83.343471 123.293534 83.842132 123.792196 
C 84.340794 124.290858 85.01722 124.571042 85.722434 124.571042 
z
" clip-path="url(#p9295de1a14)" style="stroke: #000000"/>
    <path d="M 83.862072 111.019215 
C 84.567726 111.019215 85.244574 110.738855 85.743547 110.239882 
C 86.242521 109.740909 86.52288 109.064061 86.52288 108.358406 
C 86.52288 107.652752 86.242521 106.975904 85.743547 106.476931 
C 85.244574 105.977958 84.567726 105.697598 83.862072 105.697598 
C 83.156417 105.697598 82.479569 105.977958 81.980596 106.476931 
C 81.481623 106.975904 81.201263 107.652752 81.201263 108.358406 
C 81.201263 109.064061 81.481623 109.740909 81.980596 110.239882 
C 82.479569 110.738855 83.156417 111.019215 83.862072 111.019215 
z
" clip-path="url(#p9295de1a14)" style="stroke: #000000"/>
    <path d="M 78.262651 101.575303 
C 78.900083 101.575303 79.511493 101.322049 79.962225 100.871316 
C 80.412958 100.420584 80.666212 99.809173 80.666212 99.171741 
C 80.666212 98.534309 80.412958 97.922899 79.962225 97.472166 
C 79.511493 97.021434 78.900083 96.768179 78.262651 96.768179 
C 77.625218 96.768179 77.013808 97.021434 76.563076 97.472166 
C 76.112343 97.922899 75.859089 98.534309 75.859089 99.171741 
C 75.859089 99.809173 76.112343 100.420584 76.563076 100.871316 
C 77.013808 101.322049 77.625218 101.575303 78.262651 101.575303 
z
" clip-path="url(#p9295de1a14)" style="stroke: #000000"/>
    <path d="M 65.227287 93.256127 
C 65.932501 93.256127 66.608927 92.975942 67.107588 92.47728 
C 67.60625 91.978618 67.886435 91.302193 67.886435 90.596979 
C 67.886435 89.891764 67.60625 89.215339 67.107588 88.716677 
C 66.608927 88.218015 65.932501 87.937831 65.227287 87.937831 
C 64.522072 87.937831 63.845647 88.218015 63.346985 88.716677 
C 62.848323 89.215339 62.568139 89.891764 62.568139 90.596979 
C 62.568139 91.302193 62.848323 91.978618 63.346985 92.47728 
C 63.845647 92.975942 64.522072 93.256127 65.227287 93.256127 
z
" clip-path="url(#p9295de1a14)" style="stroke: #000000"/>
    <path d="M 72.65288 81.818411 
C 73.358314 81.818411 74.034951 81.538139 74.533768 81.039321 
C 75.032586 80.540503 75.312858 79.863867 75.312858 79.158432 
C 75.312858 78.452998 75.032586 77.776361 74.533768 77.277543 
C 74.034951 76.778726 73.358314 76.498454 72.65288 76.498454 
C 71.947445 76.498454 71.270808 76.778726 70.771991 77.277543 
C 70.273173 77.776361 69.992901 78.452998 69.992901 79.158432 
C 69.992901 79.863867 70.273173 80.540503 70.771991 81.039321 
C 71.270808 81.538139 71.947445 81.818411 72.65288 81.818411 
z
" clip-path="url(#p9295de1a14)" style="stroke: #000000"/>
    <path d="M 62.421411 72.447935 
C 63.126845 72.447935 63.803482 72.167663 64.3023 71.668846 
C 64.801117 71.170028 65.081389 70.493391 65.081389 69.787957 
C 65.081389 69.082522 64.801117 68.405885 64.3023 67.907068 
C 63.803482 67.40825 63.126845 67.127978 62.421411 67.127978 
C 61.715976 67.127978 61.039339 67.40825 60.540522 67.907068 
C 60.041704 68.405885 59.761432 69.082522 59.761432 69.787957 
C 59.761432 70.493391 60.041704 71.170028 60.540522 71.668846 
C 61.039339 72.167663 61.715976 72.447935 62.421411 72.447935 
z
" clip-path="url(#p9295de1a14)" style="stroke: #000000"/>
    <path d="M 64.140654 60.938571 
C 64.846088 60.938571 65.522725 60.658299 66.021543 60.159482 
C 66.52036 59.660664 66.800632 58.984027 66.800632 58.278593 
C 66.800632 57.573158 66.52036 56.896522 66.021543 56.397704 
C 65.522725 55.898886 64.846088 55.618614 64.140654 55.618614 
C 63.435219 55.618614 62.758582 55.898886 62.259765 56.397704 
C 61.760947 56.896522 61.480675 57.573158 61.480675 58.278593 
C 61.480675 58.984027 61.760947 59.660664 62.259765 60.159482 
C 62.758582 60.658299 63.435219 60.938571 64.140654 60.938571 
z
" clip-path="url(#p9295de1a14)" style="stroke: #000000"/>
    <path d="M 61.431365 48.797787 
C 62.136799 48.797787 62.813436 48.517514 63.312254 48.018697 
C 63.811071 47.519879 64.091343 46.843243 64.091343 46.137808 
C 64.091343 45.432373 63.811071 44.755737 63.312254 44.256919 
C 62.813436 43.758102 62.136799 43.477829 61.431365 43.477829 
C 60.72593 43.477829 60.049293 43.758102 59.550476 44.256919 
C 59.051658 44.755737 58.771386 45.432373 58.771386 46.137808 
C 58.771386 46.843243 59.051658 47.519879 59.550476 48.018697 
C 60.049293 48.517514 60.72593 48.797787 61.431365 48.797787 
z
" clip-path="url(#p9295de1a14)" style="stroke: #000000"/>
    <path d="M 52.481593 38.685025 
C 53.04199 38.685025 53.579511 38.462377 53.975772 38.066116 
C 54.372033 37.669855 54.594681 37.132334 54.594681 36.571937 
C 54.594681 36.011539 54.372033 35.474018 53.975772 35.077757 
C 53.579511 34.681496 53.04199 34.458848 52.481593 34.458848 
C 51.921195 34.458848 51.383674 34.681496 50.987414 35.077757 
C 50.591153 35.474018 50.368504 36.011539 50.368504 36.571937 
C 50.368504 37.132334 50.591153 37.669855 50.987414 38.066116 
C 51.383674 38.462377 51.921195 38.685025 52.481593 38.685025 
z
" clip-path="url(#p9295de1a14)" style="stroke: #000000"/>
    <path d="M 91.682565 177.135571 
C 92.242523 177.135571 92.779622 176.913098 93.175572 176.517148 
C 93.571522 176.121198 93.793995 175.584099 93.793995 175.024141 
C 93.793995 174.464183 93.571522 173.927084 93.175572 173.531134 
C 92.779622 173.135184 92.242523 172.91271 91.682565 172.91271 
C 91.122607 172.91271 90.585508 173.135184 90.189558 173.531134 
C 89.793608 173.927084 89.571134 174.464183 89.571134 175.024141 
C 89.571134 175.584099 89.793608 176.121198 90.189558 176.517148 
C 90.585508 176.913098 91.122607 177.135571 91.682565 177.135571 
z
" clip-path="url(#p9295de1a14)" style="stroke: #000000"/>
    <path d="M 88.608875 168.785724 
C 89.31409 168.785724 89.990515 168.50554 90.489177 168.006878 
C 90.987839 167.508216 91.268023 166.831791 91.268023 166.126576 
C 91.268023 165.421362 90.987839 164.744937 90.489177 164.246275 
C 89.990515 163.747613 89.31409 163.467428 88.608875 163.467428 
C 87.903661 163.467428 87.227236 163.747613 86.728574 164.246275 
C 86.229912 164.744937 85.949727 165.421362 85.949727 166.126576 
C 85.949727 166.831791 86.229912 167.508216 86.728574 168.006878 
C 87.227236 168.50554 87.903661 168.785724 88.608875 168.785724 
z
" clip-path="url(#p9295de1a14)" style="stroke: #000000"/>
    <path d="M 82.992186 156.010691 
C 83.69762 156.010691 84.374257 155.730419 84.873075 155.231601 
C 85.371892 154.732784 85.652164 154.056147 85.652164 153.350712 
C 85.652164 152.645278 85.371892 151.968641 84.873075 151.469824 
C 84.374257 150.971006 83.69762 150.690734 82.992186 150.690734 
C 82.286751 150.690734 81.610114 150.971006 81.111297 151.469824 
C 80.612479 151.968641 80.332207 152.645278 80.332207 153.350712 
C 80.332207 154.056147 80.612479 154.732784 81.111297 155.231601 
C 81.610114 155.730419 82.286751 156.010691 82.992186 156.010691 
z
" clip-path="url(#p9295de1a14)" style="stroke: #000000"/>
    <path d="M 79.137377 149.495636 
C 79.842811 149.495636 80.519448 149.215364 81.018265 148.716546 
C 81.517083 148.217729 81.797355 147.541092 81.797355 146.835657 
C 81.797355 146.130223 81.517083 145.453586 81.018265 144.954768 
C 80.519448 144.455951 79.842811 144.175679 79.137377 144.175679 
C 78.431942 144.175679 77.755305 144.455951 77.256488 144.954768 
C 76.75767 145.453586 76.477398 146.130223 76.477398 146.835657 
C 76.477398 147.541092 76.75767 148.217729 77.256488 148.716546 
C 77.755305 149.215364 78.431942 149.495636 79.137377 149.495636 
z
" clip-path="url(#p9295de1a14)" style="stroke: #000000"/>
    <path d="M 73.331917 136.957348 
C 74.037352 136.957348 74.713989 136.677075 75.212806 136.178258 
C 75.711624 135.67944 75.991896 135.002804 75.991896 134.297369 
C 75.991896 133.591934 75.711624 132.915298 75.212806 132.41648 
C 74.713989 131.917663 74.037352 131.63739 73.331917 131.63739 
C 72.626483 131.63739 71.949846 131.917663 71.451028 132.41648 
C 70.952211 132.915298 70.671939 133.591934 70.671939 134.297369 
C 70.671939 135.002804 70.952211 135.67944 71.451028 136.178258 
C 71.949846 136.677075 72.626483 136.957348 73.331917 136.957348 
z
" clip-path="url(#p9295de1a14)" style="stroke: #000000"/>
    <path d="M 71.571647 124.611587 
C 72.309557 124.611587 73.017343 124.318412 73.539124 123.796631 
C 74.060905 123.27485 74.35408 122.567064 74.35408 121.829154 
C 74.35408 121.091245 74.060905 120.383458 73.539124 119.861677 
C 73.017343 119.339896 72.309557 119.046722 71.571647 119.046722 
C 70.833737 119.046722 70.125951 119.339896 69.60417 119.861677 
C 69.082389 120.383458 68.789215 121.091245 68.789215 121.829154 
C 68.789215 122.567064 69.082389 123.27485 69.60417 123.796631 
C 70.125951 124.318412 70.833737 124.611587 71.571647 124.611587 
z
" clip-path="url(#p9295de1a14)" style="stroke: #000000"/>
    <path d="M 70.555405 114.20172 
C 71.123124 114.20172 71.667667 113.976163 72.069105 113.574725 
C 72.470543 113.173287 72.6961 112.628744 72.6961 112.061025 
C 72.6961 111.493306 72.470543 110.948763 72.069105 110.547325 
C 71.667667 110.145887 71.123124 109.92033 70.555405 109.92033 
C 69.987686 109.92033 69.443143 110.145887 69.041705 110.547325 
C 68.640267 110.948763 68.41471 111.493306 68.41471 112.061025 
C 68.41471 112.628744 68.640267 113.173287 69.041705 113.574725 
C 69.443143 113.976163 69.987686 114.20172 70.555405 114.20172 
z
" clip-path="url(#p9295de1a14)" style="stroke: #000000"/>
    <path d="M 67.160546 106.037534 
C 67.865981 106.037534 68.542618 105.757262 69.041435 105.258444 
C 69.540253 104.759627 69.820525 104.08299 69.820525 103.377556 
C 69.820525 102.672121 69.540253 101.995484 69.041435 101.496667 
C 68.542618 100.997849 67.865981 100.717577 67.160546 100.717577 
C 66.455112 100.717577 65.778475 100.997849 65.279657 101.496667 
C 64.78084 101.995484 64.500568 102.672121 64.500568 103.377556 
C 64.500568 104.08299 64.78084 104.759627 65.279657 105.258444 
C 65.778475 105.757262 66.455112 106.037534 67.160546 106.037534 
z
" clip-path="url(#p9295de1a14)" style="stroke: #000000"/>
    <path d="M 60.557264 97.106013 
C 61.150276 97.106013 61.71908 96.870407 62.138403 96.451084 
C 62.557725 96.031761 62.793332 95.462957 62.793332 94.869945 
C 62.793332 94.276933 62.557725 93.708129 62.138403 93.288806 
C 61.71908 92.869483 61.150276 92.633877 60.557264 92.633877 
C 59.964252 92.633877 59.395448 92.869483 58.976125 93.288806 
C 58.556802 93.708129 58.321196 94.276933 58.321196 94.869945 
C 58.321196 95.462957 58.556802 96.031761 58.976125 96.451084 
C 59.395448 96.870407 59.964252 97.106013 60.557264 97.106013 
z
" clip-path="url(#p9295de1a14)" style="stroke: #000000"/>
    <path d="M 58.408863 86.437896 
C 58.944375 86.437896 59.458026 86.225135 59.83669 85.846471 
C 60.215354 85.467807 60.428115 84.954157 60.428115 84.418645 
C 60.428115 83.883133 60.215354 83.369483 59.83669 82.990819 
C 59.458026 82.612155 58.944375 82.399393 58.408863 82.399393 
C 57.873351 82.399393 57.359701 82.612155 56.981037 82.990819 
C 56.602373 83.369483 56.389612 83.883133 56.389612 84.418645 
C 56.389612 84.954157 56.602373 85.467807 56.981037 85.846471 
C 57.359701 86.225135 57.873351 86.437896 58.408863 86.437896 
z
" clip-path="url(#p9295de1a14)" style="stroke: #000000"/>
    <path d="M 53.523285 75.602197 
C 54.22872 75.602197 54.905357 75.321925 55.404174 74.823108 
C 55.902992 74.32429 56.183264 73.647653 56.183264 72.942219 
C 56.183264 72.236784 55.902992 71.560147 55.404174 71.06133 
C 54.905357 70.562512 54.22872 70.28224 53.523285 70.28224 
C 52.817851 70.28224 52.141214 70.562512 51.642397 71.06133 
C 51.143579 71.560147 50.863307 72.236784 50.863307 72.942219 
C 50.863307 73.647653 51.143579 74.32429 51.642397 74.823108 
C 52.141214 75.321925 52.817851 75.602197 53.523285 75.602197 
z
" clip-path="url(#p9295de1a14)" style="stroke: #000000"/>
    <path d="M 48.929949 67.209548 
C 49.635383 67.209548 50.31202 66.929276 50.810837 66.430458 
C 51.309655 65.931641 51.589927 65.255004 51.589927 64.549569 
C 51.589927 63.844135 51.309655 63.167498 50.810837 62.668681 
C 50.31202 62.169863 49.635383 61.889591 48.929949 61.889591 
C 48.224514 61.889591 47.547877 62.169863 47.04906 62.668681 
C 46.550242 63.167498 46.26997 63.844135 46.26997 64.549569 
C 46.26997 65.255004 46.550242 65.931641 47.04906 66.430458 
C 47.547877 66.929276 48.224514 67.209548 48.929949 67.209548 
z
" clip-path="url(#p9295de1a14)" style="stroke: #000000"/>
    <path d="M 48.275672 54.523988 
C 48.980887 54.523988 49.657312 54.243804 50.155974 53.745142 
C 50.654636 53.24648 50.93482 52.570055 50.93482 51.86484 
C 50.93482 51.159626 50.654636 50.483201 50.155974 49.984539 
C 49.657312 49.485877 48.980887 49.205692 48.275672 49.205692 
C 47.570458 49.205692 46.894033 49.485877 46.395371 49.984539 
C 45.896709 50.483201 45.616525 51.159626 45.616525 51.86484 
C 45.616525 52.570055 45.896709 53.24648 46.395371 53.745142 
C 46.894033 54.243804 47.570458 54.523988 48.275672 54.523988 
z
" clip-path="url(#p9295de1a14)" style="stroke: #000000"/>
    <path d="M 46.011047 44.230788 
C 46.716261 44.230788 47.392687 43.950603 47.891349 43.451941 
C 48.39001 42.95328 48.670195 42.276854 48.670195 41.57164 
C 48.670195 40.866426 48.39001 40.19 47.891349 39.691338 
C 47.392687 39.192676 46.716261 38.912492 46.011047 38.912492 
C 45.305833 38.912492 44.629407 39.192676 44.130746 39.691338 
C 43.632084 40.19 43.351899 40.866426 43.351899 41.57164 
C 43.351899 42.276854 43.632084 42.95328 44.130746 43.451941 
C 44.629407 43.950603 45.305833 44.230788 46.011047 44.230788 
z
" clip-path="url(#p9295de1a14)" style="stroke: #000000"/>
    <path d="M 74.385301 179.277276 
C 74.942598 179.277276 75.477145 179.055859 75.871214 178.66179 
C 76.265283 178.267721 76.4867 177.733174 76.4867 177.175876 
C 76.4867 176.618578 76.265283 176.084031 75.871214 175.689962 
C 75.477145 175.295893 74.942598 175.074476 74.385301 175.074476 
C 73.828003 175.074476 73.293456 175.295893 72.899387 175.689962 
C 72.505318 176.084031 72.283901 176.618578 72.283901 177.175876 
C 72.283901 177.733174 72.505318 178.267721 72.899387 178.66179 
C 73.293456 179.055859 73.828003 179.277276 74.385301 179.277276 
z
" clip-path="url(#p9295de1a14)" style="stroke: #000000"/>
    <path d="M 78.655601 173.645696 
C 79.361035 173.645696 80.037672 173.365424 80.53649 172.866607 
C 81.035307 172.367789 81.315579 171.691152 81.315579 170.985718 
C 81.315579 170.280283 81.035307 169.603647 80.53649 169.104829 
C 80.037672 168.606011 79.361035 168.325739 78.655601 168.325739 
C 77.950166 168.325739 77.273529 168.606011 76.774712 169.104829 
C 76.275894 169.603647 75.995622 170.280283 75.995622 170.985718 
C 75.995622 171.691152 76.275894 172.367789 76.774712 172.866607 
C 77.273529 173.365424 77.950166 173.645696 78.655601 173.645696 
z
" clip-path="url(#p9295de1a14)" style="stroke: #000000"/>
    <path d="M 72.325264 149.397584 
C 73.030478 149.397584 73.706904 149.117399 74.205565 148.618737 
C 74.704227 148.120076 74.984412 147.44365 74.984412 146.738436 
C 74.984412 146.033222 74.704227 145.356796 74.205565 144.858134 
C 73.706904 144.359473 73.030478 144.079288 72.325264 144.079288 
C 71.62005 144.079288 70.943624 144.359473 70.444962 144.858134 
C 69.946301 145.356796 69.666116 146.033222 69.666116 146.738436 
C 69.666116 147.44365 69.946301 148.120076 70.444962 148.618737 
C 70.943624 149.117399 71.62005 149.397584 72.325264 149.397584 
z
" clip-path="url(#p9295de1a14)" style="stroke: #000000"/>
    <path d="M 63.227525 137.613154 
C 63.820537 137.613154 64.38934 137.377548 64.808663 136.958225 
C 65.227986 136.538902 65.463592 135.970099 65.463592 135.377086 
C 65.463592 134.784074 65.227986 134.21527 64.808663 133.795948 
C 64.38934 133.376625 63.820537 133.141018 63.227525 133.141018 
C 62.634512 133.141018 62.065709 133.376625 61.646386 133.795948 
C 61.227063 134.21527 60.991457 134.784074 60.991457 135.377086 
C 60.991457 135.970099 61.227063 136.538902 61.646386 136.958225 
C 62.065709 137.377548 62.634512 137.613154 63.227525 137.613154 
z
" clip-path="url(#p9295de1a14)" style="stroke: #000000"/>
    <path d="M 57.445644 128.219066 
C 58.003388 128.219066 58.538363 127.997472 58.932747 127.603088 
C 59.327132 127.208704 59.548726 126.673729 59.548726 126.115985 
C 59.548726 125.558241 59.327132 125.023266 58.932747 124.628882 
C 58.538363 124.234497 58.003388 124.012904 57.445644 124.012904 
C 56.8879 124.012904 56.352925 124.234497 55.958541 124.628882 
C 55.564157 125.023266 55.342563 125.558241 55.342563 126.115985 
C 55.342563 126.673729 55.564157 127.208704 55.958541 127.603088 
C 56.352925 127.997472 56.8879 128.219066 57.445644 128.219066 
z
" clip-path="url(#p9295de1a14)" style="stroke: #000000"/>
    <path d="M 57.466778 117.238452 
C 58.052619 117.238452 58.614545 117.005695 59.028797 116.591443 
C 59.443049 116.177191 59.675806 115.615265 59.675806 115.029424 
C 59.675806 114.443583 59.443049 113.881657 59.028797 113.467405 
C 58.614545 113.053153 58.052619 112.820396 57.466778 112.820396 
C 56.880937 112.820396 56.319012 113.053153 55.904759 113.467405 
C 55.490507 113.881657 55.25775 114.443583 55.25775 115.029424 
C 55.25775 115.615265 55.490507 116.177191 55.904759 116.591443 
C 56.319012 117.005695 56.880937 117.238452 57.466778 117.238452 
z
" clip-path="url(#p9295de1a14)" style="stroke: #000000"/>
    <path d="M 53.605723 108.220027 
C 54.311158 108.220027 54.987795 107.939755 55.486612 107.440937 
C 55.98543 106.94212 56.265702 106.265483 56.265702 105.560048 
C 56.265702 104.854614 55.98543 104.177977 55.486612 103.679159 
C 54.987795 103.180342 54.311158 102.90007 53.605723 102.90007 
C 52.900289 102.90007 52.223652 103.180342 51.724835 103.679159 
C 51.226017 104.177977 50.945745 104.854614 50.945745 105.560048 
C 50.945745 106.265483 51.226017 106.94212 51.724835 107.440937 
C 52.223652 107.939755 52.900289 108.220027 53.605723 108.220027 
z
" clip-path="url(#p9295de1a14)" style="stroke: #000000"/>
    <path d="M 52.660323 96.920784 
C 53.365757 96.920784 54.042394 96.640512 54.541212 96.141694 
C 55.040029 95.642876 55.320301 94.96624 55.320301 94.260805 
C 55.320301 93.555371 55.040029 92.878734 54.541212 92.379916 
C 54.042394 91.881099 53.365757 91.600827 52.660323 91.600827 
C 51.954888 91.600827 51.278251 91.881099 50.779434 92.379916 
C 50.280616 92.878734 50.000344 93.555371 50.000344 94.260805 
C 50.000344 94.96624 50.280616 95.642876 50.779434 96.141694 
C 51.278251 96.640512 51.954888 96.920784 52.660323 96.920784 
z
" clip-path="url(#p9295de1a14)" style="stroke: #000000"/>
    <path d="M 46.982268 87.493343 
C 47.57528 87.493343 48.144084 87.257737 48.563407 86.838414 
C 48.98273 86.419091 49.218336 85.850287 49.218336 85.257275 
C 49.218336 84.664263 48.98273 84.095459 48.563407 83.676137 
C 48.144084 83.256814 47.57528 83.021207 46.982268 83.021207 
C 46.389256 83.021207 45.820452 83.256814 45.401129 83.676137 
C 44.981806 84.095459 44.7462 84.664263 44.7462 85.257275 
C 44.7462 85.850287 44.981806 86.419091 45.401129 86.838414 
C 45.820452 87.257737 46.389256 87.493343 46.982268 87.493343 
z
" clip-path="url(#p9295de1a14)" style="stroke: #000000"/>
    <path d="M 40.92 79.246107 
C 41.625435 79.246107 42.302071 78.965835 42.800889 78.467017 
C 43.299706 77.9682 43.579979 77.291563 43.579979 76.586129 
C 43.579979 75.880694 43.299706 75.204057 42.800889 74.70524 
C 42.302071 74.206422 41.625435 73.92615 40.92 73.92615 
C 40.214566 73.92615 39.537929 74.206422 39.039111 74.70524 
C 38.540294 75.204057 38.260022 75.880694 38.260022 76.586129 
C 38.260022 77.291563 38.540294 77.9682 39.039111 78.467017 
C 39.537929 78.965835 40.214566 79.246107 40.92 79.246107 
z
" clip-path="url(#p9295de1a14)" style="stroke: #000000"/>
    <path d="M 39.439603 66.069298 
C 40.144817 66.069298 40.821243 65.789113 41.319905 65.290452 
C 41.818567 64.79179 42.098751 64.115364 42.098751 63.41015 
C 42.098751 62.704936 41.818567 62.02851 41.319905 61.529849 
C 40.821243 61.031187 40.144817 60.751002 39.439603 60.751002 
C 38.734389 60.751002 38.057963 61.031187 37.559302 61.529849 
C 37.06064 62.02851 36.780455 62.704936 36.780455 63.41015 
C 36.780455 64.115364 37.06064 64.79179 37.559302 65.290452 
C 38.057963 65.789113 38.734389 66.069298 39.439603 66.069298 
z
" clip-path="url(#p9295de1a14)" style="stroke: #000000"/>
    <path d="M 69.114602 173.860737 
C 69.819816 173.860737 70.496242 173.580553 70.994904 173.081891 
C 71.493566 172.583229 71.77375 171.906804 71.77375 171.20159 
C 71.77375 170.496375 71.493566 169.81995 70.994904 169.321288 
C 70.496242 168.822626 69.819816 168.542442 69.114602 168.542442 
C 68.409388 168.542442 67.732962 168.822626 67.234301 169.321288 
C 66.735639 169.81995 66.455454 170.496375 66.455454 171.20159 
C 66.455454 171.906804 66.735639 172.583229 67.234301 173.081891 
C 67.732962 173.580553 68.409388 173.860737 69.114602 173.860737 
z
" clip-path="url(#p9295de1a14)" style="stroke: #000000"/>
    <path d="M 60.551234 162.642694 
C 61.256448 162.642694 61.932874 162.36251 62.431536 161.863848 
C 62.930198 161.365186 63.210382 160.688761 63.210382 159.983547 
C 63.210382 159.278332 62.930198 158.601907 62.431536 158.103245 
C 61.932874 157.604583 61.256448 157.324399 60.551234 157.324399 
C 59.84602 157.324399 59.169594 157.604583 58.670933 158.103245 
C 58.172271 158.601907 57.892086 159.278332 57.892086 159.983547 
C 57.892086 160.688761 58.172271 161.365186 58.670933 161.863848 
C 59.169594 162.36251 59.84602 162.642694 60.551234 162.642694 
z
" clip-path="url(#p9295de1a14)" style="stroke: #000000"/>
    <path d="M 52.874443 143.681537 
C 53.467455 143.681537 54.036258 143.445931 54.455581 143.026608 
C 54.874904 142.607285 55.110511 142.038481 55.110511 141.445469 
C 55.110511 140.852457 54.874904 140.283653 54.455581 139.86433 
C 54.036258 139.445007 53.467455 139.209401 52.874443 139.209401 
C 52.28143 139.209401 51.712627 139.445007 51.293304 139.86433 
C 50.873981 140.283653 50.638375 140.852457 50.638375 141.445469 
C 50.638375 142.038481 50.873981 142.607285 51.293304 143.026608 
C 51.712627 143.445931 52.28143 143.681537 52.874443 143.681537 
z
" clip-path="url(#p9295de1a14)" style="stroke: #000000"/>
    <path d="M 50.569639 129.201425 
C 51.064518 129.201425 51.539194 129.004807 51.889127 128.654875 
C 52.239059 128.304942 52.435676 127.830266 52.435676 127.335387 
C 52.435676 126.840508 52.239059 126.365831 51.889127 126.015899 
C 51.539194 125.665966 51.064518 125.469349 50.569639 125.469349 
C 50.07476 125.469349 49.600083 125.665966 49.250151 126.015899 
C 48.900218 126.365831 48.703601 126.840508 48.703601 127.335387 
C 48.703601 127.830266 48.900218 128.304942 49.250151 128.654875 
C 49.600083 129.004807 50.07476 129.201425 50.569639 129.201425 
z
" clip-path="url(#p9295de1a14)" style="stroke: #000000"/>
    <path d="M 49.777598 121.845755 
C 50.013401 121.845755 50.239577 121.75207 50.406315 121.585332 
C 50.573052 121.418595 50.666738 121.192418 50.666738 120.956616 
C 50.666738 120.720813 50.573052 120.494637 50.406315 120.327899 
C 50.239577 120.161161 50.013401 120.067476 49.777598 120.067476 
C 49.541795 120.067476 49.315619 120.161161 49.148881 120.327899 
C 48.982144 120.494637 48.888458 120.720813 48.888458 120.956616 
C 48.888458 121.192418 48.982144 121.418595 49.148881 121.585332 
C 49.315619 121.75207 49.541795 121.845755 49.777598 121.845755 
z
" clip-path="url(#p9295de1a14)" style="stroke: #000000"/>
    <path d="M 43.167942 114.089892 
C 43.873156 114.089892 44.549581 113.809707 45.048243 113.311045 
C 45.546905 112.812383 45.82709 112.135958 45.82709 111.430744 
C 45.82709 110.725529 45.546905 110.049104 45.048243 109.550442 
C 44.549581 109.05178 43.873156 108.771596 43.167942 108.771596 
C 42.462727 108.771596 41.786302 109.05178 41.28764 109.550442 
C 40.788978 110.049104 40.508794 110.725529 40.508794 111.430744 
C 40.508794 112.135958 40.788978 112.812383 41.28764 113.311045 
C 41.786302 113.809707 42.462727 114.089892 43.167942 114.089892 
z
" clip-path="url(#p9295de1a14)" style="stroke: #000000"/>
    <path d="M 37.39558 102.279364 
C 37.988592 102.279364 38.557396 102.043758 38.976719 101.624435 
C 39.396042 101.205112 39.631648 100.636308 39.631648 100.043296 
C 39.631648 99.450284 39.396042 98.88148 38.976719 98.462157 
C 38.557396 98.042835 37.988592 97.807228 37.39558 97.807228 
C 36.802568 97.807228 36.233764 98.042835 35.814441 98.462157 
C 35.395119 98.88148 35.159512 99.450284 35.159512 100.043296 
C 35.159512 100.636308 35.395119 101.205112 35.814441 101.624435 
C 36.233764 102.043758 36.802568 102.279364 37.39558 102.279364 
z
" clip-path="url(#p9295de1a14)" style="stroke: #000000"/>
    <path d="M 34.941398 83.635895 
C 35.646612 83.635895 36.323037 83.355711 36.821699 82.857049 
C 37.320361 82.358387 37.600546 81.681962 37.600546 80.976747 
C 37.600546 80.271533 37.320361 79.595108 36.821699 79.096446 
C 36.323037 78.597784 35.646612 78.317599 34.941398 78.317599 
C 34.236183 78.317599 33.559758 78.597784 33.061096 79.096446 
C 32.562434 79.595108 32.28225 80.271533 32.28225 80.976747 
C 32.28225 81.681962 32.562434 82.358387 33.061096 82.857049 
C 33.559758 83.355711 34.236183 83.635895 34.941398 83.635895 
z
" clip-path="url(#p9295de1a14)" style="stroke: #000000"/>
    <path d="M 55.954827 174.297924 
C 56.515663 174.297924 57.053605 174.075101 57.450176 173.67853 
C 57.846747 173.281959 58.06957 172.744017 58.06957 172.183181 
C 58.06957 171.622345 57.846747 171.084403 57.450176 170.687832 
C 57.053605 170.291261 56.515663 170.068438 55.954827 170.068438 
C 55.393991 170.068438 54.856049 170.291261 54.459478 170.687832 
C 54.062907 171.084403 53.840085 171.622345 53.840085 172.183181 
C 53.840085 172.744017 54.062907 173.281959 54.459478 173.67853 
C 54.856049 174.075101 55.393991 174.297924 55.954827 174.297924 
z
" clip-path="url(#p9295de1a14)" style="stroke: #000000"/>
    <path d="M 46.171877 162.364095 
C 46.71955 162.364095 47.244866 162.146501 47.63213 161.759238 
C 48.019394 161.371974 48.236987 160.846658 48.236987 160.298984 
C 48.236987 159.751311 48.019394 159.225994 47.63213 158.838731 
C 47.244866 158.451467 46.71955 158.233874 46.171877 158.233874 
C 45.624203 158.233874 45.098887 158.451467 44.711623 158.838731 
C 44.324359 159.225994 44.106766 159.751311 44.106766 160.298984 
C 44.106766 160.846658 44.324359 161.371974 44.711623 161.759238 
C 45.098887 162.146501 45.624203 162.364095 46.171877 162.364095 
z
" clip-path="url(#p9295de1a14)" style="stroke: #000000"/>
    <path d="M 40.905781 147.663034 
C 41.610995 147.663034 42.287421 147.38285 42.786083 146.884188 
C 43.284744 146.385526 43.564929 145.709101 43.564929 145.003887 
C 43.564929 144.298672 43.284744 143.622247 42.786083 143.123585 
C 42.287421 142.624923 41.610995 142.344739 40.905781 142.344739 
C 40.200567 142.344739 39.524141 142.624923 39.02548 143.123585 
C 38.526818 143.622247 38.246633 144.298672 38.246633 145.003887 
C 38.246633 145.709101 38.526818 146.385526 39.02548 146.884188 
C 39.524141 147.38285 40.200567 147.663034 40.905781 147.663034 
z
" clip-path="url(#p9295de1a14)" style="stroke: #000000"/>
    <path d="M 38.050918 126.721417 
C 38.756132 126.721417 39.432557 126.441233 39.931219 125.942571 
C 40.429881 125.443909 40.710066 124.767483 40.710066 124.062269 
C 40.710066 123.357055 40.429881 122.680629 39.931219 122.181968 
C 39.432557 121.683306 38.756132 121.403121 38.050918 121.403121 
C 37.345703 121.403121 36.669278 121.683306 36.170616 122.181968 
C 35.671954 122.680629 35.39177 123.357055 35.39177 124.062269 
C 35.39177 124.767483 35.671954 125.443909 36.170616 125.942571 
C 36.669278 126.441233 37.345703 126.721417 38.050918 126.721417 
z
" clip-path="url(#p9295de1a14)" style="stroke: #000000"/>
    <path d="M 33.70744 114.632941 
C 34.412875 114.632941 35.089512 114.352669 35.588329 113.853852 
C 36.087147 113.355034 36.367419 112.678397 36.367419 111.972963 
C 36.367419 111.267528 36.087147 110.590891 35.588329 110.092074 
C 35.089512 109.593256 34.412875 109.312984 33.70744 109.312984 
C 33.002006 109.312984 32.325369 109.593256 31.826552 110.092074 
C 31.327734 110.590891 31.047462 111.267528 31.047462 111.972963 
C 31.047462 112.678397 31.327734 113.355034 31.826552 113.853852 
C 32.325369 114.352669 33.002006 114.632941 33.70744 114.632941 
z
" clip-path="url(#p9295de1a14)" style="stroke: #000000"/>
    <path d="M 45.037966 180.072201 
C 45.743181 180.072201 46.419606 179.792016 46.918268 179.293354 
C 47.41693 178.794692 47.697114 178.118267 47.697114 177.413053 
C 47.697114 176.707838 47.41693 176.031413 46.918268 175.532751 
C 46.419606 175.034089 45.743181 174.753905 45.037966 174.753905 
C 44.332752 174.753905 43.656327 175.034089 43.157665 175.532751 
C 42.659003 176.031413 42.378818 176.707838 42.378818 177.413053 
C 42.378818 178.118267 42.659003 178.794692 43.157665 179.293354 
C 43.656327 179.792016 44.332752 180.072201 45.037966 180.072201 
z
" clip-path="url(#p9295de1a14)" style="stroke: #000000"/>
    <path d="M 41.264234 171.310299 
C 41.969449 171.310299 42.645874 171.030115 43.144536 170.531453 
C 43.643198 170.032791 43.923382 169.356366 43.923382 168.651151 
C 43.923382 167.945937 43.643198 167.269511 43.144536 166.77085 
C 42.645874 166.272188 41.969449 165.992003 41.264234 165.992003 
C 40.55902 165.992003 39.882595 166.272188 39.383933 166.77085 
C 38.885271 167.269511 38.605086 167.945937 38.605086 168.651151 
C 38.605086 169.356366 38.885271 170.032791 39.383933 170.531453 
C 39.882595 171.030115 40.55902 171.310299 41.264234 171.310299 
z
" clip-path="url(#p9295de1a14)" style="stroke: #000000"/>
    <path d="M 35.895475 157.520363 
C 36.60091 157.520363 37.277547 157.24009 37.776364 156.741273 
C 38.275182 156.242455 38.555454 155.565819 38.555454 154.860384 
C 38.555454 154.15495 38.275182 153.478313 37.776364 152.979495 
C 37.277547 152.480678 36.60091 152.200406 35.895475 152.200406 
C 35.190041 152.200406 34.513404 152.480678 34.014587 152.979495 
C 33.515769 153.478313 33.235497 154.15495 33.235497 154.860384 
C 33.235497 155.565819 33.515769 156.242455 34.014587 156.741273 
C 34.513404 157.24009 35.190041 157.520363 35.895475 157.520363 
z
" clip-path="url(#p9295de1a14)" style="stroke: #000000"/>
    <path d="M 32.947391 153.673003 
C 33.508227 153.673003 34.046168 153.45018 34.442739 153.053609 
C 34.839311 152.657038 35.062133 152.119096 35.062133 151.55826 
C 35.062133 150.997424 34.839311 150.459482 34.442739 150.062911 
C 34.046168 149.66634 33.508227 149.443517 32.947391 149.443517 
C 32.386554 149.443517 31.848613 149.66634 31.452042 150.062911 
C 31.055471 150.459482 30.832648 150.997424 30.832648 151.55826 
C 30.832648 152.119096 31.055471 152.657038 31.452042 153.053609 
C 31.848613 153.45018 32.386554 153.673003 32.947391 153.673003 
z
" clip-path="url(#p9295de1a14)" style="stroke: #000000"/>
   </g>
   <g id="matplotlib.axis_1">
    <g id="xtick_1">
     <g id="line2d_1">
      <defs>
       <path id="m9b92492942" d="M 0 0 
L 0 3.5 
" style="stroke: #000000; stroke-width: 0.8"/>
      </defs>
      <g>
       <use xlink:href="#m9b92492942" x="18" y="189" style="stroke: #000000; stroke-width: 0.8"/>
      </g>
     </g>
     <g id="text_1">
      <!-- 10 -->
      <g transform="translate(7.447656 203.598437)scale(0.1 -0.1)">
       <defs>
        <path id="DejaVuSans-2212" d="M 678 2272 
L 4684 2272 
L 4684 1741 
L 678 1741 
L 678 2272 
z
" transform="scale(0.015625)"/>
        <path id="DejaVuSans-31" d="M 794 531 
L 1825 531 
L 1825 4091 
L 703 3866 
L 703 4441 
L 1819 4666 
L 2450 4666 
L 2450 531 
L 3481 531 
L 3481 0 
L 794 0 
L 794 531 
z
" transform="scale(0.015625)"/>
        <path id="DejaVuSans-30" d="M 2034 4250 
Q 1547 4250 1301 3770 
Q 1056 3291 1056 2328 
Q 1056 1369 1301 889 
Q 1547 409 2034 409 
Q 2525 409 2770 889 
Q 3016 1369 3016 2328 
Q 3016 3291 2770 3770 
Q 2525 4250 2034 4250 
z
M 2034 4750 
Q 2819 4750 3233 4129 
Q 3647 3509 3647 2328 
Q 3647 1150 3233 529 
Q 2819 -91 2034 -91 
Q 1250 -91 836 529 
Q 422 1150 422 2328 
Q 422 3509 836 4129 
Q 1250 4750 2034 4750 
z
" transform="scale(0.015625)"/>
       </defs>
       <use xlink:href="#DejaVuSans-2212"/>
       <use xlink:href="#DejaVuSans-31" x="83.789062"/>
       <use xlink:href="#DejaVuSans-30" x="147.412109"/>
      </g>
     </g>
    </g>
    <g id="xtick_2">
     <g id="line2d_2">
      <g>
       <use xlink:href="#m9b92492942" x="73.8" y="189" style="stroke: #000000; stroke-width: 0.8"/>
      </g>
     </g>
     <g id="text_2">
      <!-- 0 -->
      <g transform="translate(70.61875 203.598437)scale(0.1 -0.1)">
       <use xlink:href="#DejaVuSans-30"/>
      </g>
     </g>
    </g>
    <g id="xtick_3">
     <g id="line2d_3">
      <g>
       <use xlink:href="#m9b92492942" x="129.6" y="189" style="stroke: #000000; stroke-width: 0.8"/>
      </g>
     </g>
     <g id="text_3">
      <!-- 10 -->
      <g transform="translate(123.2375 203.598437)scale(0.1 -0.1)">
       <use xlink:href="#DejaVuSans-31"/>
       <use xlink:href="#DejaVuSans-30" x="63.623047"/>
      </g>
     </g>
    </g>
   </g>
   <g id="matplotlib.axis_2">
    <g id="ytick_1">
     <g id="line2d_4">
      <defs>
       <path id="m9996c44016" d="M 0 0 
L -3.5 0 
" style="stroke: #000000; stroke-width: 0.8"/>
      </defs>
      <g>
       <use xlink:href="#m9996c44016" x="18" y="189" style="stroke: #000000; stroke-width: 0.8"/>
      </g>
     </g>
     <g id="text_4">
      <!-- 15 -->
      <g transform="translate(-10.104688 192.799219)scale(0.1 -0.1)">
       <defs>
        <path id="DejaVuSans-35" d="M 691 4666 
L 3169 4666 
L 3169 4134 
L 1269 4134 
L 1269 2991 
Q 1406 3038 1543 3061 
Q 1681 3084 1819 3084 
Q 2600 3084 3056 2656 
Q 3513 2228 3513 1497 
Q 3513 744 3044 326 
Q 2575 -91 1722 -91 
Q 1428 -91 1123 -41 
Q 819 9 494 109 
L 494 744 
Q 775 591 1075 516 
Q 1375 441 1709 441 
Q 2250 441 2565 725 
Q 2881 1009 2881 1497 
Q 2881 1984 2565 2268 
Q 2250 2553 1709 2553 
Q 1456 2553 1204 2497 
Q 953 2441 691 2322 
L 691 4666 
z
" transform="scale(0.015625)"/>
       </defs>
       <use xlink:href="#DejaVuSans-2212"/>
       <use xlink:href="#DejaVuSans-31" x="83.789062"/>
       <use xlink:href="#DejaVuSans-35" x="147.412109"/>
      </g>
     </g>
    </g>
    <g id="ytick_2">
     <g id="line2d_5">
      <g>
       <use xlink:href="#m9996c44016" x="18" y="161.82" style="stroke: #000000; stroke-width: 0.8"/>
      </g>
     </g>
     <g id="text_5">
      <!-- 10 -->
      <g transform="translate(-10.104688 165.619219)scale(0.1 -0.1)">
       <use xlink:href="#DejaVuSans-2212"/>
       <use xlink:href="#DejaVuSans-31" x="83.789062"/>
       <use xlink:href="#DejaVuSans-30" x="147.412109"/>
      </g>
     </g>
    </g>
    <g id="ytick_3">
     <g id="line2d_6">
      <g>
       <use xlink:href="#m9996c44016" x="18" y="134.64" style="stroke: #000000; stroke-width: 0.8"/>
      </g>
     </g>
     <g id="text_6">
      <!-- 5 -->
      <g transform="translate(-3.742188 138.439219)scale(0.1 -0.1)">
       <use xlink:href="#DejaVuSans-2212"/>
       <use xlink:href="#DejaVuSans-35" x="83.789062"/>
      </g>
     </g>
    </g>
    <g id="ytick_4">
     <g id="line2d_7">
      <g>
       <use xlink:href="#m9996c44016" x="18" y="107.46" style="stroke: #000000; stroke-width: 0.8"/>
      </g>
     </g>
     <g id="text_7">
      <!-- 0 -->
      <g transform="translate(4.6375 111.259219)scale(0.1 -0.1)">
       <use xlink:href="#DejaVuSans-30"/>
      </g>
     </g>
    </g>
    <g id="ytick_5">
     <g id="line2d_8">
      <g>
       <use xlink:href="#m9996c44016" x="18" y="80.28" style="stroke: #000000; stroke-width: 0.8"/>
      </g>
     </g>
     <g id="text_8">
      <!-- 5 -->
      <g transform="translate(4.6375 84.079219)scale(0.1 -0.1)">
       <use xlink:href="#DejaVuSans-35"/>
      </g>
     </g>
    </g>
    <g id="ytick_6">
     <g id="line2d_9">
      <g>
       <use xlink:href="#m9996c44016" x="18" y="53.1" style="stroke: #000000; stroke-width: 0.8"/>
      </g>
     </g>
     <g id="text_9">
      <!-- 10 -->
      <g transform="translate(-1.725 56.899219)scale(0.1 -0.1)">
       <use xlink:href="#DejaVuSans-31"/>
       <use xlink:href="#DejaVuSans-30" x="63.623047"/>
      </g>
     </g>
    </g>
    <g id="ytick_7">
     <g id="line2d_10">
      <g>
       <use xlink:href="#m9996c44016" x="18" y="25.92" style="stroke: #000000; stroke-width: 0.8"/>
      </g>
     </g>
     <g id="text_10">
      <!-- 15 -->
      <g transform="translate(-1.725 29.719219)scale(0.1 -0.1)">
       <use xlink:href="#DejaVuSans-31"/>
       <use xlink:href="#DejaVuSans-35" x="63.623047"/>
      </g>
     </g>
    </g>
   </g>
   <g id="patch_3">
    <path d="M 18 189 
L 18 25.92 
" style="fill: none; stroke: #000000; stroke-width: 0.8; stroke-linejoin: miter; stroke-linecap: square"/>
   </g>
   <g id="patch_4">
    <path d="M 129.6 189 
L 129.6 25.92 
" style="fill: none; stroke: #000000; stroke-width: 0.8; stroke-linejoin: miter; stroke-linecap: square"/>
   </g>
   <g id="patch_5">
    <path d="M 18 189 
L 129.6 189 
" style="fill: none; stroke: #000000; stroke-width: 0.8; stroke-linejoin: miter; stroke-linecap: square"/>
   </g>
   <g id="patch_6">
    <path d="M 18 25.92 
L 129.6 25.92 
" style="fill: none; stroke: #000000; stroke-width: 0.8; stroke-linejoin: miter; stroke-linecap: square"/>
   </g>
  </g>
 </g>
 <defs>
  <clipPath id="p9295de1a14">
   <rect x="18" y="25.92" width="111.6" height="163.08"/>
  </clipPath>
 </defs>
</svg>
