<?xml version="1.0" encoding="utf-8" standalone="no"?>
<!DOCTYPE svg PUBLIC "-//W3C//DTD SVG 1.1//EN"
  "http://www.w3.org/Graphics/SVG/1.1/DTD/svg11.dtd">
<svg xmlns:xlink="http://www.w3.org/1999/xlink" width="144pt" height="216pt" viewBox="0 0 144 216" xmlns="http://www.w3.org/2000/svg" version="1.1">
 <metadata>
  <rdf:RDF xmlns:dc="http://purl.org/dc/elements/1.1/" xmlns:cc="http://creativecommons.org/ns#" xmlns:rdf="http://www.w3.org/1999/02/22-rdf-syntax-ns#">
   <cc:Work>
    <dc:type rdf:resource="http://purl.org/dc/dcmitype/StillImage"/>
    <dc:date>2022-06-23T12:10:51.532092</dc:date>
    <dc:format>image/svg+xml</dc:format>
    <dc:creator>
     <cc:Agent>
      <dc:title>Matplotlib v3.5.1, https://matplotlib.org/</dc:title>
     </cc:Agent>
    </dc:creator>
   </cc:Work>
  </rdf:RDF>
 </metadata>
 <defs>
  <style type="text/css">*{stroke-linejoin: round; stroke-linecap: butt}</style>
 </defs>
 <g id="figure_1">
  <g id="patch_1">
   <path d="M 0 216 
L 144 216 
L 144 0 
L 0 0 
L 0 216 
z
" style="fill: none"/>
  </g>
  <g id="axes_1">
   <g id="patch_2">
    <path d="M 18 189 
L 129.6 189 
L 129.6 25.92 
L 18 25.92 
z
" style="fill: #ffffff"/>
   </g>
   <g id="PathCollection_1">
    <defs>
     <path id="mf0740e8cbb" d="M 0 2.738613 
C 0.726289 2.738613 1.422928 2.450055 1.936492 1.936492 
C 2.450055 1.422928 2.738613 0.726289 2.738613 0 
C 2.738613 -0.726289 2.450055 -1.422928 1.936492 -1.936492 
C 1.422928 -2.450055 0.726289 -2.738613 0 -2.738613 
C -0.726289 -2.738613 -1.422928 -2.450055 -1.936492 -1.936492 
C -2.450055 -1.422928 -2.738613 -0.726289 -2.738613 0 
C -2.738613 0.726289 -2.450055 1.422928 -1.936492 1.936492 
C -1.422928 2.450055 -0.726289 2.738613 0 2.738613 
z
" style="stroke: #ff0000; stroke-width: 1.75"/>
    </defs>
    <g clip-path="url(#p3bb12cfddc)">
     <use xlink:href="#mf0740e8cbb" x="80.775" y="83.92143" style="fill: #ff0000; stroke: #ff0000; stroke-width: 1.75"/>
     <use xlink:href="#mf0740e8cbb" x="59.85" y="95.690715" style="fill: #ff0000; stroke: #ff0000; stroke-width: 1.75"/>
     <use xlink:href="#mf0740e8cbb" x="66.825" y="107.46" style="fill: #ff0000; stroke: #ff0000; stroke-width: 1.75"/>
     <use xlink:href="#mf0740e8cbb" x="80.775" y="107.46" style="fill: #ff0000; stroke: #ff0000; stroke-width: 1.75"/>
     <use xlink:href="#mf0740e8cbb" x="94.725" y="107.46" style="fill: #ff0000; stroke: #ff0000; stroke-width: 1.75"/>
     <use xlink:href="#mf0740e8cbb" x="59.85" y="119.229285" style="fill: #ff0000; stroke: #ff0000; stroke-width: 1.75"/>
     <use xlink:href="#mf0740e8cbb" x="80.775" y="130.99857" style="fill: #ff0000; stroke: #ff0000; stroke-width: 1.75"/>
    </g>
   </g>
   <g id="PathCollection_2">
    <defs>
     <path id="C0_0_8fc52ae63a" d="M 0 2.738613 
C 0.726289 2.738613 1.422928 2.450055 1.936492 1.936492 
C 2.450055 1.422928 2.738613 0.726289 2.738613 -0 
C 2.738613 -0.726289 2.450055 -1.422928 1.936492 -1.936492 
C 1.422928 -2.450055 0.726289 -2.738613 0 -2.738613 
C -0.726289 -2.738613 -1.422928 -2.450055 -1.936492 -1.936492 
C -2.450055 -1.422928 -2.738613 -0.726289 -2.738613 0 
C -2.738613 0.726289 -2.450055 1.422928 -1.936492 1.936492 
C -1.422928 2.450055 -0.726289 2.738613 0 2.738613 
z
"/>
    </defs>
    <g clip-path="url(#p3bb12cfddc)">
     <use xlink:href="#C0_0_8fc52ae63a" x="66.825" y="83.92143" style="fill: none; stroke: #ff0000; stroke-width: 1.75"/>
    </g>
    <g clip-path="url(#p3bb12cfddc)">
     <use xlink:href="#C0_0_8fc52ae63a" x="73.8" y="95.690715" style="fill: none; stroke: #ff0000; stroke-width: 1.75"/>
    </g>
    <g clip-path="url(#p3bb12cfddc)">
     <use xlink:href="#C0_0_8fc52ae63a" x="87.75" y="95.690715" style="fill: none; stroke: #ff0000; stroke-width: 1.75"/>
    </g>
    <g clip-path="url(#p3bb12cfddc)">
     <use xlink:href="#C0_0_8fc52ae63a" x="52.875" y="107.46" style="fill: none; stroke: #ff0000; stroke-width: 1.75"/>
    </g>
    <g clip-path="url(#p3bb12cfddc)">
     <use xlink:href="#C0_0_8fc52ae63a" x="73.8" y="119.229285" style="fill: none; stroke: #ff0000; stroke-width: 1.75"/>
    </g>
    <g clip-path="url(#p3bb12cfddc)">
     <use xlink:href="#C0_0_8fc52ae63a" x="87.75" y="119.229285" style="fill: none; stroke: #ff0000; stroke-width: 1.75"/>
    </g>
    <g clip-path="url(#p3bb12cfddc)">
     <use xlink:href="#C0_0_8fc52ae63a" x="66.825" y="130.99857" style="fill: none; stroke: #ff0000; stroke-width: 1.75"/>
    </g>
   </g>
   <g id="PathCollection_3">
    <path d="M 114.804936 114.237525 
C 115.51015 114.237525 116.186576 113.95734 116.685238 113.458679 
C 117.1839 112.960017 117.464084 112.283591 117.464084 111.578377 
C 117.464084 110.873163 117.1839 110.196737 116.685238 109.698076 
C 116.186576 109.199414 115.51015 108.919229 114.804936 108.919229 
C 114.099722 108.919229 113.423296 109.199414 112.924635 109.698076 
C 112.425973 110.196737 112.145788 110.873163 112.145788 111.578377 
C 112.145788 112.283591 112.425973 112.960017 112.924635 113.458679 
C 113.423296 113.95734 114.099722 114.237525 114.804936 114.237525 
z
" clip-path="url(#p3bb12cfddc)" style="stroke: #000000"/>
    <path d="M 113.108835 100.963778 
C 113.814049 100.963778 114.490475 100.683593 114.989136 100.184932 
C 115.487798 99.68627 115.767983 99.009844 115.767983 98.30463 
C 115.767983 97.599416 115.487798 96.92299 114.989136 96.424328 
C 114.490475 95.925667 113.814049 95.645482 113.108835 95.645482 
C 112.403621 95.645482 111.727195 95.925667 111.228533 96.424328 
C 110.729872 96.92299 110.449687 97.599416 110.449687 98.30463 
C 110.449687 99.009844 110.729872 99.68627 111.228533 100.184932 
C 111.727195 100.683593 112.403621 100.963778 113.108835 100.963778 
z
" clip-path="url(#p3bb12cfddc)" style="stroke: #000000"/>
    <path d="M 111.037552 89.11859 
C 111.037552 89.11859 111.037552 89.11859 111.037552 89.11859 
C 111.037552 89.11859 111.037552 89.11859 111.037552 89.11859 
C 111.037552 89.11859 111.037552 89.11859 111.037552 89.11859 
C 111.037552 89.11859 111.037552 89.11859 111.037552 89.11859 
C 111.037552 89.11859 111.037552 89.11859 111.037552 89.11859 
C 111.037552 89.11859 111.037552 89.11859 111.037552 89.11859 
C 111.037552 89.11859 111.037552 89.11859 111.037552 89.11859 
C 111.037552 89.11859 111.037552 89.11859 111.037552 89.11859 
z
" clip-path="url(#p3bb12cfddc)" style="stroke: #000000"/>
    <path d="M 100.90272 77.602328 
C 101.607934 77.602328 102.28436 77.322143 102.783022 76.823482 
C 103.281683 76.32482 103.561868 75.648394 103.561868 74.94318 
C 103.561868 74.237966 103.281683 73.56154 102.783022 73.062879 
C 102.28436 72.564217 101.607934 72.284032 100.90272 72.284032 
C 100.197506 72.284032 99.52108 72.564217 99.022418 73.062879 
C 98.523757 73.56154 98.243572 74.237966 98.243572 74.94318 
C 98.243572 75.648394 98.523757 76.32482 99.022418 76.823482 
C 99.52108 77.322143 100.197506 77.602328 100.90272 77.602328 
z
" clip-path="url(#p3bb12cfddc)" style="stroke: #000000"/>
    <path d="M 101.742031 68.621329 
C 101.742031 68.621329 101.742031 68.621329 101.742031 68.621329 
C 101.742031 68.621329 101.742031 68.621329 101.742031 68.621329 
C 101.742031 68.621329 101.742031 68.621329 101.742031 68.621329 
C 101.742031 68.621329 101.742031 68.621329 101.742031 68.621329 
C 101.742031 68.621329 101.742031 68.621329 101.742031 68.621329 
C 101.742031 68.621329 101.742031 68.621329 101.742031 68.621329 
C 101.742031 68.621329 101.742031 68.621329 101.742031 68.621329 
C 101.742031 68.621329 101.742031 68.621329 101.742031 68.621329 
z
" clip-path="url(#p3bb12cfddc)" style="stroke: #000000"/>
    <path d="M 95.773278 62.54595 
C 96.478713 62.54595 97.155349 62.265678 97.654167 61.766861 
C 98.152985 61.268043 98.433257 60.591406 98.433257 59.885972 
C 98.433257 59.180537 98.152985 58.5039 97.654167 58.005083 
C 97.155349 57.506265 96.478713 57.225993 95.773278 57.225993 
C 95.067844 57.225993 94.391207 57.506265 93.892389 58.005083 
C 93.393572 58.5039 93.1133 59.180537 93.1133 59.885972 
C 93.1133 60.591406 93.393572 61.268043 93.892389 61.766861 
C 94.391207 62.265678 95.067844 62.54595 95.773278 62.54595 
z
" clip-path="url(#p3bb12cfddc)" style="stroke: #000000"/>
    <path d="M 91.631394 48.360231 
C 92.336829 48.360231 93.013466 48.079959 93.512283 47.581142 
C 94.011101 47.082324 94.291373 46.405687 94.291373 45.700253 
C 94.291373 44.994818 94.011101 44.318182 93.512283 43.819364 
C 93.013466 43.320546 92.336829 43.040274 91.631394 43.040274 
C 90.92596 43.040274 90.249323 43.320546 89.750505 43.819364 
C 89.251688 44.318182 88.971416 44.994818 88.971416 45.700253 
C 88.971416 46.405687 89.251688 47.082324 89.750505 47.581142 
C 90.249323 48.079959 90.92596 48.360231 91.631394 48.360231 
z
" clip-path="url(#p3bb12cfddc)" style="stroke: #000000"/>
    <path d="M 86.588566 38.660905 
C 87.294001 38.660905 87.970638 38.380633 88.469455 37.881815 
C 88.968273 37.382998 89.248545 36.706361 89.248545 36.000927 
C 89.248545 35.295492 88.968273 34.618855 88.469455 34.120038 
C 87.970638 33.62122 87.294001 33.340948 86.588566 33.340948 
C 85.883132 33.340948 85.206495 33.62122 84.707678 34.120038 
C 84.20886 34.618855 83.928588 35.295492 83.928588 36.000927 
C 83.928588 36.706361 84.20886 37.382998 84.707678 37.881815 
C 85.206495 38.380633 85.883132 38.660905 86.588566 38.660905 
z
" clip-path="url(#p3bb12cfddc)" style="stroke: #000000"/>
    <path d="M 119.68917 163.832177 
C 120.248246 163.832177 120.784498 163.610054 121.179824 163.214728 
C 121.57515 162.819402 121.797273 162.28315 121.797273 161.724075 
C 121.797273 161.164999 121.57515 160.628747 121.179824 160.233421 
C 120.784498 159.838095 120.248246 159.615972 119.68917 159.615972 
C 119.130095 159.615972 118.593843 159.838095 118.198517 160.233421 
C 117.803191 160.628747 117.581068 161.164999 117.581068 161.724075 
C 117.581068 162.28315 117.803191 162.819402 118.198517 163.214728 
C 118.593843 163.610054 119.130095 163.832177 119.68917 163.832177 
z
" clip-path="url(#p3bb12cfddc)" style="stroke: #000000"/>
    <path d="M 119.160912 156.939417 
C 119.866347 156.939417 120.542983 156.659145 121.041801 156.160327 
C 121.540619 155.66151 121.820891 154.984873 121.820891 154.279439 
C 121.820891 153.574004 121.540619 152.897367 121.041801 152.39855 
C 120.542983 151.899732 119.866347 151.61946 119.160912 151.61946 
C 118.455478 151.61946 117.778841 151.899732 117.280023 152.39855 
C 116.781206 152.897367 116.500934 153.574004 116.500934 154.279439 
C 116.500934 154.984873 116.781206 155.66151 117.280023 156.160327 
C 117.778841 156.659145 118.455478 156.939417 119.160912 156.939417 
z
" clip-path="url(#p3bb12cfddc)" style="stroke: #000000"/>
    <path d="M 111.681233 142.819509 
C 111.681233 142.819509 111.681233 142.819509 111.681233 142.819509 
C 111.681233 142.819509 111.681233 142.819509 111.681233 142.819509 
C 111.681233 142.819509 111.681233 142.819509 111.681233 142.819509 
C 111.681233 142.819509 111.681233 142.819509 111.681233 142.819509 
C 111.681233 142.819509 111.681233 142.819509 111.681233 142.819509 
C 111.681233 142.819509 111.681233 142.819509 111.681233 142.819509 
C 111.681233 142.819509 111.681233 142.819509 111.681233 142.819509 
C 111.681233 142.819509 111.681233 142.819509 111.681233 142.819509 
z
" clip-path="url(#p3bb12cfddc)" style="stroke: #000000"/>
    <path d="M 108.300619 132.17118 
C 108.867491 132.17118 109.411222 131.94596 109.812061 131.54512 
C 110.212901 131.144281 110.438121 130.60055 110.438121 130.033678 
C 110.438121 129.466806 110.212901 128.923075 109.812061 128.522235 
C 109.411222 128.121396 108.867491 127.896175 108.300619 127.896175 
C 107.733747 127.896175 107.190016 128.121396 106.789177 128.522235 
C 106.388337 128.923075 106.163117 129.466806 106.163117 130.033678 
C 106.163117 130.60055 106.388337 131.144281 106.789177 131.54512 
C 107.190016 131.94596 107.733747 132.17118 108.300619 132.17118 
z
" clip-path="url(#p3bb12cfddc)" style="stroke: #000000"/>
    <path d="M 110.399545 127.505647 
C 111.104759 127.505647 111.781185 127.225463 112.279846 126.726801 
C 112.778508 126.228139 113.058693 125.551713 113.058693 124.846499 
C 113.058693 124.141285 112.778508 123.464859 112.279846 122.966198 
C 111.781185 122.467536 111.104759 122.187351 110.399545 122.187351 
C 109.69433 122.187351 109.017905 122.467536 108.519243 122.966198 
C 108.020581 123.464859 107.740397 124.141285 107.740397 124.846499 
C 107.740397 125.551713 108.020581 126.228139 108.519243 126.726801 
C 109.017905 127.225463 109.69433 127.505647 110.399545 127.505647 
z
" clip-path="url(#p3bb12cfddc)" style="stroke: #000000"/>
    <path d="M 103.854062 115.80959 
C 104.559497 115.80959 105.236134 115.529318 105.734951 115.0305 
C 106.233769 114.531682 106.514041 113.855046 106.514041 113.149611 
C 106.514041 112.444177 106.233769 111.76754 105.734951 111.268722 
C 105.236134 110.769905 104.559497 110.489633 103.854062 110.489633 
C 103.148628 110.489633 102.471991 110.769905 101.973174 111.268722 
C 101.474356 111.76754 101.194084 112.444177 101.194084 113.149611 
C 101.194084 113.855046 101.474356 114.531682 101.973174 115.0305 
C 102.471991 115.529318 103.148628 115.80959 103.854062 115.80959 
z
" clip-path="url(#p3bb12cfddc)" style="stroke: #000000"/>
    <path d="M 101.77464 102.896962 
C 102.479854 102.896962 103.15628 102.616777 103.654942 102.118116 
C 104.153603 101.619454 104.433788 100.943028 104.433788 100.237814 
C 104.433788 99.5326 104.153603 98.856174 103.654942 98.357513 
C 103.15628 97.858851 102.479854 97.578666 101.77464 97.578666 
C 101.069426 97.578666 100.393 97.858851 99.894339 98.357513 
C 99.395677 98.856174 99.115492 99.5326 99.115492 100.237814 
C 99.115492 100.943028 99.395677 101.619454 99.894339 102.118116 
C 100.393 102.616777 101.069426 102.896962 101.77464 102.896962 
z
" clip-path="url(#p3bb12cfddc)" style="stroke: #000000"/>
    <path d="M 97.602153 100.046445 
C 98.307368 100.046445 98.983793 99.76626 99.482455 99.267599 
C 99.981117 98.768937 100.261301 98.092511 100.261301 97.387297 
C 100.261301 96.682083 99.981117 96.005657 99.482455 95.506996 
C 98.983793 95.008334 98.307368 94.728149 97.602153 94.728149 
C 96.896939 94.728149 96.220514 95.008334 95.721852 95.506996 
C 95.22319 96.005657 94.943005 96.682083 94.943005 97.387297 
C 94.943005 98.092511 95.22319 98.768937 95.721852 99.267599 
C 96.220514 99.76626 96.896939 100.046445 97.602153 100.046445 
z
" clip-path="url(#p3bb12cfddc)" style="stroke: #000000"/>
    <path d="M 93.189958 83.365912 
C 93.895393 83.365912 94.572029 83.085639 95.070847 82.586822 
C 95.569664 82.088004 95.849937 81.411368 95.849937 80.705933 
C 95.849937 80.000499 95.569664 79.323862 95.070847 78.825044 
C 94.572029 78.326227 93.895393 78.045955 93.189958 78.045955 
C 92.484523 78.045955 91.807887 78.326227 91.309069 78.825044 
C 90.810252 79.323862 90.529979 80.000499 90.529979 80.705933 
C 90.529979 81.411368 90.810252 82.088004 91.309069 82.586822 
C 91.807887 83.085639 92.484523 83.365912 93.189958 83.365912 
z
" clip-path="url(#p3bb12cfddc)" style="stroke: #000000"/>
    <path d="M 88.958918 71.706932 
C 89.55193 71.706932 90.120734 71.471325 90.540057 71.052003 
C 90.95938 70.63268 91.194986 70.063876 91.194986 69.470864 
C 91.194986 68.877852 90.95938 68.309048 90.540057 67.889725 
C 90.120734 67.470402 89.55193 67.234796 88.958918 67.234796 
C 88.365906 67.234796 87.797102 67.470402 87.377779 67.889725 
C 86.958456 68.309048 86.72285 68.877852 86.72285 69.470864 
C 86.72285 70.063876 86.958456 70.63268 87.377779 71.052003 
C 87.797102 71.471325 88.365906 71.706932 88.958918 71.706932 
z
" clip-path="url(#p3bb12cfddc)" style="stroke: #000000"/>
    <path d="M 81.193411 63.141934 
C 81.773002 63.141934 82.328933 62.91166 82.738766 62.501827 
C 83.148599 62.091994 83.378873 61.536064 83.378873 60.956473 
C 83.378873 60.376881 83.148599 59.820951 82.738766 59.411118 
C 82.328933 59.001285 81.773002 58.771011 81.193411 58.771011 
C 80.61382 58.771011 80.057889 59.001285 79.648056 59.411118 
C 79.238223 59.820951 79.007949 60.376881 79.007949 60.956473 
C 79.007949 61.536064 79.238223 62.091994 79.648056 62.501827 
C 80.057889 62.91166 80.61382 63.141934 81.193411 63.141934 
z
" clip-path="url(#p3bb12cfddc)" style="stroke: #000000"/>
    <path d="M 83.820772 59.596384 
C 84.382046 59.596384 84.920407 59.373388 85.317288 58.976507 
C 85.714168 58.579627 85.937165 58.041266 85.937165 57.479992 
C 85.937165 56.918718 85.714168 56.380357 85.317288 55.983476 
C 84.920407 55.586595 84.382046 55.363599 83.820772 55.363599 
C 83.259498 55.363599 82.721137 55.586595 82.324257 55.983476 
C 81.927376 56.380357 81.704379 56.918718 81.704379 57.479992 
C 81.704379 58.041266 81.927376 58.579627 82.324257 58.976507 
C 82.721137 59.373388 83.259498 59.596384 83.820772 59.596384 
z
" clip-path="url(#p3bb12cfddc)" style="stroke: #000000"/>
    <path d="M 77.499487 45.414343 
C 78.204922 45.414343 78.881558 45.134071 79.380376 44.635253 
C 79.879193 44.136435 80.159465 43.459799 80.159465 42.754364 
C 80.159465 42.04893 79.879193 41.372293 79.380376 40.873475 
C 78.881558 40.374658 78.204922 40.094386 77.499487 40.094386 
C 76.794052 40.094386 76.117416 40.374658 75.618598 40.873475 
C 75.119781 41.372293 74.839508 42.04893 74.839508 42.754364 
C 74.839508 43.459799 75.119781 44.136435 75.618598 44.635253 
C 76.117416 45.134071 76.794052 45.414343 77.499487 45.414343 
z
" clip-path="url(#p3bb12cfddc)" style="stroke: #000000"/>
    <path d="M 75.281778 35.900798 
C 75.987213 35.900798 76.66385 35.620526 77.162667 35.121708 
C 77.661485 34.62289 77.941757 33.946254 77.941757 33.240819 
C 77.941757 32.535385 77.661485 31.858748 77.162667 31.35993 
C 76.66385 30.861113 75.987213 30.580841 75.281778 30.580841 
C 74.576344 30.580841 73.899707 30.861113 73.400889 31.35993 
C 72.902072 31.858748 72.6218 32.535385 72.6218 33.240819 
C 72.6218 33.946254 72.902072 34.62289 73.400889 35.121708 
C 73.899707 35.620526 74.576344 35.900798 75.281778 35.900798 
z
" clip-path="url(#p3bb12cfddc)" style="stroke: #000000"/>
    <path d="M 110.741825 168.011517 
C 111.447039 168.011517 112.123464 167.731333 112.622126 167.232671 
C 113.120788 166.734009 113.400972 166.057584 113.400972 165.35237 
C 113.400972 164.647155 113.120788 163.97073 112.622126 163.472068 
C 112.123464 162.973406 111.447039 162.693222 110.741825 162.693222 
C 110.03661 162.693222 109.360185 162.973406 108.861523 163.472068 
C 108.362861 163.97073 108.082677 164.647155 108.082677 165.35237 
C 108.082677 166.057584 108.362861 166.734009 108.861523 167.232671 
C 109.360185 167.731333 110.03661 168.011517 110.741825 168.011517 
z
" clip-path="url(#p3bb12cfddc)" style="stroke: #000000"/>
    <path d="M 110.829709 163.060975 
C 111.389227 163.060975 111.925903 162.838677 112.321541 162.443038 
C 112.717179 162.0474 112.939478 161.510724 112.939478 160.951207 
C 112.939478 160.391689 112.717179 159.855013 112.321541 159.459375 
C 111.925903 159.063737 111.389227 158.841438 110.829709 158.841438 
C 110.270192 158.841438 109.733516 159.063737 109.337878 159.459375 
C 108.942239 159.855013 108.719941 160.391689 108.719941 160.951207 
C 108.719941 161.510724 108.942239 162.0474 109.337878 162.443038 
C 109.733516 162.838677 110.270192 163.060975 110.829709 163.060975 
z
" clip-path="url(#p3bb12cfddc)" style="stroke: #000000"/>
    <path d="M 104.766394 153.146941 
C 105.471828 153.146941 106.148465 152.866669 106.647282 152.367852 
C 107.1461 151.869034 107.426372 151.192398 107.426372 150.486963 
C 107.426372 149.781528 107.1461 149.104892 106.647282 148.606074 
C 106.148465 148.107257 105.471828 147.826984 104.766394 147.826984 
C 104.060959 147.826984 103.384322 148.107257 102.885505 148.606074 
C 102.386687 149.104892 102.106415 149.781528 102.106415 150.486963 
C 102.106415 151.192398 102.386687 151.869034 102.885505 152.367852 
C 103.384322 152.866669 104.060959 153.146941 104.766394 153.146941 
z
" clip-path="url(#p3bb12cfddc)" style="stroke: #000000"/>
    <path d="M 100.55132 135.030633 
C 100.55132 135.030633 100.55132 135.030633 100.55132 135.030633 
C 100.55132 135.030633 100.55132 135.030633 100.55132 135.030633 
C 100.55132 135.030633 100.55132 135.030633 100.55132 135.030633 
C 100.55132 135.030633 100.55132 135.030633 100.55132 135.030633 
C 100.55132 135.030633 100.55132 135.030633 100.55132 135.030633 
C 100.55132 135.030633 100.55132 135.030633 100.55132 135.030633 
C 100.55132 135.030633 100.55132 135.030633 100.55132 135.030633 
C 100.55132 135.030633 100.55132 135.030633 100.55132 135.030633 
z
" clip-path="url(#p3bb12cfddc)" style="stroke: #000000"/>
    <path d="M 95.575471 127.940469 
C 96.280685 127.940469 96.957111 127.660284 97.455773 127.161622 
C 97.954434 126.662961 98.234619 125.986535 98.234619 125.281321 
C 98.234619 124.576107 97.954434 123.899681 97.455773 123.401019 
C 96.957111 122.902358 96.280685 122.622173 95.575471 122.622173 
C 94.870257 122.622173 94.193831 122.902358 93.695169 123.401019 
C 93.196508 123.899681 92.916323 124.576107 92.916323 125.281321 
C 92.916323 125.986535 93.196508 126.662961 93.695169 127.161622 
C 94.193831 127.660284 94.870257 127.940469 95.575471 127.940469 
z
" clip-path="url(#p3bb12cfddc)" style="stroke: #000000"/>
    <path d="M 98.02168 120.604264 
C 98.727114 120.604264 99.403751 120.323991 99.902569 119.825174 
C 100.401386 119.326356 100.681658 118.64972 100.681658 117.944285 
C 100.681658 117.23885 100.401386 116.562214 99.902569 116.063396 
C 99.403751 115.564579 98.727114 115.284306 98.02168 115.284306 
C 97.316245 115.284306 96.639609 115.564579 96.140791 116.063396 
C 95.641974 116.562214 95.361701 117.23885 95.361701 117.944285 
C 95.361701 118.64972 95.641974 119.326356 96.140791 119.825174 
C 96.639609 120.323991 97.316245 120.604264 98.02168 120.604264 
z
" clip-path="url(#p3bb12cfddc)" style="stroke: #000000"/>
    <path d="M 89.626446 109.750846 
C 90.33188 109.750846 91.008517 109.470573 91.507335 108.971756 
C 92.006152 108.472938 92.286424 107.796302 92.286424 107.090867 
C 92.286424 106.385432 92.006152 105.708796 91.507335 105.209978 
C 91.008517 104.711161 90.33188 104.430888 89.626446 104.430888 
C 88.921011 104.430888 88.244374 104.711161 87.745557 105.209978 
C 87.246739 105.708796 86.966467 106.385432 86.966467 107.090867 
C 86.966467 107.796302 87.246739 108.472938 87.745557 108.971756 
C 88.244374 109.470573 88.921011 109.750846 89.626446 109.750846 
z
" clip-path="url(#p3bb12cfddc)" style="stroke: #000000"/>
    <path d="M 87.471154 98.563654 
C 88.108586 98.563654 88.719996 98.3104 89.170729 97.859667 
C 89.621461 97.408935 89.874716 96.797524 89.874716 96.160092 
C 89.874716 95.52266 89.621461 94.91125 89.170729 94.460517 
C 88.719996 94.009785 88.108586 93.75653 87.471154 93.75653 
C 86.833722 93.75653 86.222311 94.009785 85.771579 94.460517 
C 85.320846 94.91125 85.067592 95.52266 85.067592 96.160092 
C 85.067592 96.797524 85.320846 97.408935 85.771579 97.859667 
C 86.222311 98.3104 86.833722 98.563654 87.471154 98.563654 
z
" clip-path="url(#p3bb12cfddc)" style="stroke: #000000"/>
    <path d="M 84.356296 89.906534 
C 85.061731 89.906534 85.738368 89.626262 86.237185 89.127444 
C 86.736003 88.628626 87.016275 87.95199 87.016275 87.246555 
C 87.016275 86.541121 86.736003 85.864484 86.237185 85.365666 
C 85.738368 84.866849 85.061731 84.586577 84.356296 84.586577 
C 83.650862 84.586577 82.974225 84.866849 82.475407 85.365666 
C 81.97659 85.864484 81.696318 86.541121 81.696318 87.246555 
C 81.696318 87.95199 81.97659 88.628626 82.475407 89.127444 
C 82.974225 89.626262 83.650862 89.906534 84.356296 89.906534 
z
" clip-path="url(#p3bb12cfddc)" style="stroke: #000000"/>
    <path d="M 76.277923 75.903942 
C 76.983357 75.903942 77.659994 75.62367 78.158811 75.124853 
C 78.657629 74.626035 78.937901 73.949398 78.937901 73.243964 
C 78.937901 72.538529 78.657629 71.861892 78.158811 71.363075 
C 77.659994 70.864257 76.983357 70.583985 76.277923 70.583985 
C 75.572488 70.583985 74.895851 70.864257 74.397034 71.363075 
C 73.898216 71.861892 73.617944 72.538529 73.617944 73.243964 
C 73.617944 73.949398 73.898216 74.626035 74.397034 75.124853 
C 74.895851 75.62367 75.572488 75.903942 76.277923 75.903942 
z
" clip-path="url(#p3bb12cfddc)" style="stroke: #000000"/>
    <path d="M 70.8986 63.664483 
C 71.604034 63.664483 72.280671 63.384211 72.779489 62.885393 
C 73.278306 62.386576 73.558578 61.709939 73.558578 61.004504 
C 73.558578 60.29907 73.278306 59.622433 72.779489 59.123615 
C 72.280671 58.624798 71.604034 58.344526 70.8986 58.344526 
C 70.193165 58.344526 69.516529 58.624798 69.017711 59.123615 
C 68.518894 59.622433 68.238621 60.29907 68.238621 61.004504 
C 68.238621 61.709939 68.518894 62.386576 69.017711 62.885393 
C 69.516529 63.384211 70.193165 63.664483 70.8986 63.664483 
z
" clip-path="url(#p3bb12cfddc)" style="stroke: #000000"/>
    <path d="M 73.974016 58.139972 
C 74.534852 58.139972 75.072793 57.917149 75.469365 57.520578 
C 75.865936 57.124007 76.088758 56.586065 76.088758 56.025229 
C 76.088758 55.464393 75.865936 54.926451 75.469365 54.52988 
C 75.072793 54.133309 74.534852 53.910486 73.974016 53.910486 
C 73.413179 53.910486 72.875238 54.133309 72.478667 54.52988 
C 72.082096 54.926451 71.859273 55.464393 71.859273 56.025229 
C 71.859273 56.586065 72.082096 57.124007 72.478667 57.520578 
C 72.875238 57.917149 73.413179 58.139972 73.974016 58.139972 
z
" clip-path="url(#p3bb12cfddc)" style="stroke: #000000"/>
    <path d="M 69.825492 45.521512 
C 70.530927 45.521512 71.207564 45.24124 71.706381 44.742422 
C 72.205199 44.243605 72.485471 43.566968 72.485471 42.861534 
C 72.485471 42.156099 72.205199 41.479462 71.706381 40.980645 
C 71.207564 40.481827 70.530927 40.201555 69.825492 40.201555 
C 69.120058 40.201555 68.443421 40.481827 67.944603 40.980645 
C 67.445786 41.479462 67.165514 42.156099 67.165514 42.861534 
C 67.165514 43.566968 67.445786 44.243605 67.944603 44.742422 
C 68.443421 45.24124 69.120058 45.521512 69.825492 45.521512 
z
" clip-path="url(#p3bb12cfddc)" style="stroke: #000000"/>
    <path d="M 64.687342 36.192732 
C 65.243744 36.192732 65.777433 35.971671 66.170869 35.578235 
C 66.564305 35.184799 66.785366 34.651111 66.785366 34.094708 
C 66.785366 33.538306 66.564305 33.004617 66.170869 32.611181 
C 65.777433 32.217745 65.243744 31.996684 64.687342 31.996684 
C 64.13094 31.996684 63.597251 32.217745 63.203815 32.611181 
C 62.810379 33.004617 62.589318 33.538306 62.589318 34.094708 
C 62.589318 34.651111 62.810379 35.184799 63.203815 35.578235 
C 63.597251 35.971671 64.13094 36.192732 64.687342 36.192732 
z
" clip-path="url(#p3bb12cfddc)" style="stroke: #000000"/>
    <path d="M 101.569728 177.153121 
C 102.274943 177.153121 102.951368 176.872936 103.45003 176.374275 
C 103.948692 175.875613 104.228876 175.199187 104.228876 174.493973 
C 104.228876 173.788759 103.948692 173.112333 103.45003 172.613671 
C 102.951368 172.11501 102.274943 171.834825 101.569728 171.834825 
C 100.864514 171.834825 100.188089 172.11501 99.689427 172.613671 
C 99.190765 173.112333 98.910581 173.788759 98.910581 174.493973 
C 98.910581 175.199187 99.190765 175.875613 99.689427 176.374275 
C 100.188089 176.872936 100.864514 177.153121 101.569728 177.153121 
z
" clip-path="url(#p3bb12cfddc)" style="stroke: #000000"/>
    <path d="M 99.331846 158.926453 
C 99.331846 158.926453 99.331846 158.926453 99.331846 158.926453 
C 99.331846 158.926453 99.331846 158.926453 99.331846 158.926453 
C 99.331846 158.926453 99.331846 158.926453 99.331846 158.926453 
C 99.331846 158.926453 99.331846 158.926453 99.331846 158.926453 
C 99.331846 158.926453 99.331846 158.926453 99.331846 158.926453 
C 99.331846 158.926453 99.331846 158.926453 99.331846 158.926453 
C 99.331846 158.926453 99.331846 158.926453 99.331846 158.926453 
C 99.331846 158.926453 99.331846 158.926453 99.331846 158.926453 
z
" clip-path="url(#p3bb12cfddc)" style="stroke: #000000"/>
    <path d="M 93.258523 155.388381 
C 93.819797 155.388381 94.358158 155.165384 94.755039 154.768504 
C 95.151919 154.371623 95.374916 153.833262 95.374916 153.271988 
C 95.374916 152.710714 95.151919 152.172353 94.755039 151.775472 
C 94.358158 151.378592 93.819797 151.155595 93.258523 151.155595 
C 92.697249 151.155595 92.158888 151.378592 91.762007 151.775472 
C 91.365127 152.172353 91.14213 152.710714 91.14213 153.271988 
C 91.14213 153.833262 91.365127 154.371623 91.762007 154.768504 
C 92.158888 155.165384 92.697249 155.388381 93.258523 155.388381 
z
" clip-path="url(#p3bb12cfddc)" style="stroke: #000000"/>
    <path d="M 90.064196 145.479821 
C 90.409529 145.479821 90.740764 145.342619 90.984951 145.098431 
C 91.229139 144.854244 91.366341 144.523009 91.366341 144.177676 
C 91.366341 143.832343 91.229139 143.501107 90.984951 143.25692 
C 90.740764 143.012732 90.409529 142.87553 90.064196 142.87553 
C 89.718863 142.87553 89.387627 143.012732 89.14344 143.25692 
C 88.899252 143.501107 88.76205 143.832343 88.76205 144.177676 
C 88.76205 144.523009 88.899252 144.854244 89.14344 145.098431 
C 89.387627 145.342619 89.718863 145.479821 90.064196 145.479821 
z
" clip-path="url(#p3bb12cfddc)" style="stroke: #000000"/>
    <path d="M 87.081415 132.492437 
C 87.786849 132.492437 88.463486 132.212165 88.962303 131.713348 
C 89.461121 131.21453 89.741393 130.537893 89.741393 129.832459 
C 89.741393 129.127024 89.461121 128.450388 88.962303 127.95157 
C 88.463486 127.452752 87.786849 127.17248 87.081415 127.17248 
C 86.37598 127.17248 85.699343 127.452752 85.200526 127.95157 
C 84.701708 128.450388 84.421436 129.127024 84.421436 129.832459 
C 84.421436 130.537893 84.701708 131.21453 85.200526 131.713348 
C 85.699343 132.212165 86.37598 132.492437 87.081415 132.492437 
z
" clip-path="url(#p3bb12cfddc)" style="stroke: #000000"/>
    <path d="M 81.700459 122.780217 
C 82.405894 122.780217 83.082531 122.499945 83.581348 122.001128 
C 84.080166 121.50231 84.360438 120.825673 84.360438 120.120239 
C 84.360438 119.414804 84.080166 118.738167 83.581348 118.23935 
C 83.082531 117.740532 82.405894 117.46026 81.700459 117.46026 
C 80.995025 117.46026 80.318388 117.740532 79.81957 118.23935 
C 79.320753 118.738167 79.040481 119.414804 79.040481 120.120239 
C 79.040481 120.825673 79.320753 121.50231 79.81957 122.001128 
C 80.318388 122.499945 80.995025 122.780217 81.700459 122.780217 
z
" clip-path="url(#p3bb12cfddc)" style="stroke: #000000"/>
    <path d="M 78.755598 111.542003 
C 79.594244 111.542003 80.398654 111.208805 80.991666 110.615793 
C 81.584678 110.022781 81.917876 109.218371 81.917876 108.379725 
C 81.917876 107.541079 81.584678 106.736669 80.991666 106.143657 
C 80.398654 105.550645 79.594244 105.217448 78.755598 105.217448 
C 77.916952 105.217448 77.112542 105.550645 76.51953 106.143657 
C 75.926518 106.736669 75.59332 107.541079 75.59332 108.379725 
C 75.59332 109.218371 75.926518 110.022781 76.51953 110.615793 
C 77.112542 111.208805 77.916952 111.542003 78.755598 111.542003 
z
" clip-path="url(#p3bb12cfddc)" style="stroke: #000000"/>
    <path d="M 73.692389 101.862153 
C 74.397824 101.862153 75.074461 101.581881 75.573278 101.083064 
C 76.072096 100.584246 76.352368 99.907609 76.352368 99.202175 
C 76.352368 98.49674 76.072096 97.820104 75.573278 97.321286 
C 75.074461 96.822468 74.397824 96.542196 73.692389 96.542196 
C 72.986955 96.542196 72.310318 96.822468 71.8115 97.321286 
C 71.312683 97.820104 71.032411 98.49674 71.032411 99.202175 
C 71.032411 99.907609 71.312683 100.584246 71.8115 101.083064 
C 72.310318 101.581881 72.986955 101.862153 73.692389 101.862153 
z
" clip-path="url(#p3bb12cfddc)" style="stroke: #000000"/>
    <path d="M 68.310117 89.890732 
C 68.947549 89.890732 69.558959 89.637478 70.009692 89.186745 
C 70.460424 88.736013 70.713679 88.124603 70.713679 87.48717 
C 70.713679 86.849738 70.460424 86.238328 70.009692 85.787595 
C 69.558959 85.336863 68.947549 85.083608 68.310117 85.083608 
C 67.672685 85.083608 67.061274 85.336863 66.610542 85.787595 
C 66.159809 86.238328 65.906555 86.849738 65.906555 87.48717 
C 65.906555 88.124603 66.159809 88.736013 66.610542 89.186745 
C 67.061274 89.637478 67.672685 89.890732 68.310117 89.890732 
z
" clip-path="url(#p3bb12cfddc)" style="stroke: #000000"/>
    <path d="M 69.241426 81.421661 
C 69.946641 81.421661 70.623066 81.141476 71.121728 80.642815 
C 71.62039 80.144153 71.900574 79.467727 71.900574 78.762513 
C 71.900574 78.057299 71.62039 77.380873 71.121728 76.882212 
C 70.623066 76.38355 69.946641 76.103365 69.241426 76.103365 
C 68.536212 76.103365 67.859787 76.38355 67.361125 76.882212 
C 66.862463 77.380873 66.582278 78.057299 66.582278 78.762513 
C 66.582278 79.467727 66.862463 80.144153 67.361125 80.642815 
C 67.859787 81.141476 68.536212 81.421661 69.241426 81.421661 
z
" clip-path="url(#p3bb12cfddc)" style="stroke: #000000"/>
    <path d="M 65.934728 68.002844 
C 66.496439 68.002844 67.035219 67.779674 67.432408 67.382484 
C 67.829597 66.985295 68.052767 66.446515 68.052767 65.884805 
C 68.052767 65.323094 67.829597 64.784314 67.432408 64.387125 
C 67.035219 63.989935 66.496439 63.766765 65.934728 63.766765 
C 65.373018 63.766765 64.834238 63.989935 64.437048 64.387125 
C 64.039859 64.784314 63.816689 65.323094 63.816689 65.884805 
C 63.816689 66.446515 64.039859 66.985295 64.437048 67.382484 
C 64.834238 67.779674 65.373018 68.002844 65.934728 68.002844 
z
" clip-path="url(#p3bb12cfddc)" style="stroke: #000000"/>
    <path d="M 58.214425 60.966979 
C 58.214425 60.966979 58.214425 60.966979 58.214425 60.966979 
C 58.214425 60.966979 58.214425 60.966979 58.214425 60.966979 
C 58.214425 60.966979 58.214425 60.966979 58.214425 60.966979 
C 58.214425 60.966979 58.214425 60.966979 58.214425 60.966979 
C 58.214425 60.966979 58.214425 60.966979 58.214425 60.966979 
C 58.214425 60.966979 58.214425 60.966979 58.214425 60.966979 
C 58.214425 60.966979 58.214425 60.966979 58.214425 60.966979 
C 58.214425 60.966979 58.214425 60.966979 58.214425 60.966979 
z
" clip-path="url(#p3bb12cfddc)" style="stroke: #000000"/>
    <path d="M 61.917825 48.178454 
C 62.62326 48.178454 63.299897 47.898182 63.798714 47.399364 
C 64.297532 46.900547 64.577804 46.22391 64.577804 45.518475 
C 64.577804 44.813041 64.297532 44.136404 63.798714 43.637587 
C 63.299897 43.138769 62.62326 42.858497 61.917825 42.858497 
C 61.212391 42.858497 60.535754 43.138769 60.036936 43.637587 
C 59.538119 44.136404 59.257847 44.813041 59.257847 45.518475 
C 59.257847 46.22391 59.538119 46.900547 60.036936 47.399364 
C 60.535754 47.898182 61.212391 48.178454 61.917825 48.178454 
z
" clip-path="url(#p3bb12cfddc)" style="stroke: #000000"/>
    <path d="M 53.357844 41.742378 
C 53.91868 41.742378 54.456622 41.519555 54.853193 41.122984 
C 55.249764 40.726413 55.472586 40.188472 55.472586 39.627635 
C 55.472586 39.066799 55.249764 38.528858 54.853193 38.132287 
C 54.456622 37.735715 53.91868 37.512893 53.357844 37.512893 
C 52.797008 37.512893 52.259066 37.735715 51.862495 38.132287 
C 51.465924 38.528858 51.243101 39.066799 51.243101 39.627635 
C 51.243101 40.188472 51.465924 40.726413 51.862495 41.122984 
C 52.259066 41.519555 52.797008 41.742378 53.357844 41.742378 
z
" clip-path="url(#p3bb12cfddc)" style="stroke: #000000"/>
    <path d="M 95.133594 180.594253 
C 95.838808 180.594253 96.515234 180.314069 97.013895 179.815407 
C 97.512557 179.316745 97.792742 178.64032 97.792742 177.935105 
C 97.792742 177.229891 97.512557 176.553466 97.013895 176.054804 
C 96.515234 175.556142 95.838808 175.275957 95.133594 175.275957 
C 94.42838 175.275957 93.751954 175.556142 93.253292 176.054804 
C 92.754631 176.553466 92.474446 177.229891 92.474446 177.935105 
C 92.474446 178.64032 92.754631 179.316745 93.253292 179.815407 
C 93.751954 180.314069 94.42838 180.594253 95.133594 180.594253 
z
" clip-path="url(#p3bb12cfddc)" style="stroke: #000000"/>
    <path d="M 85.307851 168.251139 
C 86.013065 168.251139 86.689491 167.970954 87.188153 167.472292 
C 87.686814 166.97363 87.966999 166.297205 87.966999 165.591991 
C 87.966999 164.886776 87.686814 164.210351 87.188153 163.711689 
C 86.689491 163.213027 86.013065 162.932843 85.307851 162.932843 
C 84.602637 162.932843 83.926211 163.213027 83.427549 163.711689 
C 82.928888 164.210351 82.648703 164.886776 82.648703 165.591991 
C 82.648703 166.297205 82.928888 166.97363 83.427549 167.472292 
C 83.926211 167.970954 84.602637 168.251139 85.307851 168.251139 
z
" clip-path="url(#p3bb12cfddc)" style="stroke: #000000"/>
    <path d="M 82.780696 155.657214 
C 83.357489 155.657214 83.910734 155.428052 84.318588 155.020198 
C 84.726442 154.612344 84.955604 154.059098 84.955604 153.482306 
C 84.955604 152.905514 84.726442 152.352268 84.318588 151.944415 
C 83.910734 151.536561 83.357489 151.307399 82.780696 151.307399 
C 82.203904 151.307399 81.650658 151.536561 81.242805 151.944415 
C 80.834951 152.352268 80.605789 152.905514 80.605789 153.482306 
C 80.605789 154.059098 80.834951 154.612344 81.242805 155.020198 
C 81.650658 155.428052 82.203904 155.657214 82.780696 155.657214 
z
" clip-path="url(#p3bb12cfddc)" style="stroke: #000000"/>
    <path d="M 81.244379 146.380994 
C 81.949593 146.380994 82.626019 146.100809 83.124681 145.602148 
C 83.623342 145.103486 83.903527 144.42706 83.903527 143.721846 
C 83.903527 143.016632 83.623342 142.340206 83.124681 141.841545 
C 82.626019 141.342883 81.949593 141.062698 81.244379 141.062698 
C 80.539165 141.062698 79.862739 141.342883 79.364077 141.841545 
C 78.865416 142.340206 78.585231 143.016632 78.585231 143.721846 
C 78.585231 144.42706 78.865416 145.103486 79.364077 145.602148 
C 79.862739 146.100809 80.539165 146.380994 81.244379 146.380994 
z
" clip-path="url(#p3bb12cfddc)" style="stroke: #000000"/>
    <path d="M 78.166305 138.961997 
C 78.87174 138.961997 79.548377 138.681724 80.047194 138.182907 
C 80.546012 137.684089 80.826284 137.007453 80.826284 136.302018 
C 80.826284 135.596583 80.546012 134.919947 80.047194 134.421129 
C 79.548377 133.922312 78.87174 133.64204 78.166305 133.64204 
C 77.460871 133.64204 76.784234 133.922312 76.285416 134.421129 
C 75.786599 134.919947 75.506327 135.596583 75.506327 136.302018 
C 75.506327 137.007453 75.786599 137.684089 76.285416 138.182907 
C 76.784234 138.681724 77.460871 138.961997 78.166305 138.961997 
z
" clip-path="url(#p3bb12cfddc)" style="stroke: #000000"/>
    <path d="M 73.517518 129.50801 
C 74.078354 129.50801 74.616295 129.285188 75.012866 128.888616 
C 75.409437 128.492045 75.63226 127.954104 75.63226 127.393268 
C 75.63226 126.832431 75.409437 126.29449 75.012866 125.897919 
C 74.616295 125.501348 74.078354 125.278525 73.517518 125.278525 
C 72.956681 125.278525 72.41874 125.501348 72.022169 125.897919 
C 71.625598 126.29449 71.402775 126.832431 71.402775 127.393268 
C 71.402775 127.954104 71.625598 128.492045 72.022169 128.888616 
C 72.41874 129.285188 72.956681 129.50801 73.517518 129.50801 
z
" clip-path="url(#p3bb12cfddc)" style="stroke: #000000"/>
    <path d="M 66.923079 116.862381 
C 67.628513 116.862381 68.30515 116.582109 68.803968 116.083292 
C 69.302785 115.584474 69.583057 114.907837 69.583057 114.202403 
C 69.583057 113.496968 69.302785 112.820331 68.803968 112.321514 
C 68.30515 111.822696 67.628513 111.542424 66.923079 111.542424 
C 66.217644 111.542424 65.541007 111.822696 65.04219 112.321514 
C 64.543372 112.820331 64.2631 113.496968 64.2631 114.202403 
C 64.2631 114.907837 64.543372 115.584474 65.04219 116.083292 
C 65.541007 116.582109 66.217644 116.862381 66.923079 116.862381 
z
" clip-path="url(#p3bb12cfddc)" style="stroke: #000000"/>
    <path d="M 67.345251 107.193665 
C 68.050685 107.193665 68.727322 106.913393 69.22614 106.414575 
C 69.724957 105.915757 70.005229 105.239121 70.005229 104.533686 
C 70.005229 103.828252 69.724957 103.151615 69.22614 102.652797 
C 68.727322 102.15398 68.050685 101.873708 67.345251 101.873708 
C 66.639816 101.873708 65.96318 102.15398 65.464362 102.652797 
C 64.965544 103.151615 64.685272 103.828252 64.685272 104.533686 
C 64.685272 105.239121 64.965544 105.915757 65.464362 106.414575 
C 65.96318 106.913393 66.639816 107.193665 67.345251 107.193665 
z
" clip-path="url(#p3bb12cfddc)" style="stroke: #000000"/>
    <path d="M 64.922425 94.023622 
C 65.627639 94.023622 66.304065 93.743438 66.802726 93.244776 
C 67.301388 92.746114 67.581573 92.069689 67.581573 91.364474 
C 67.581573 90.65926 67.301388 89.982835 66.802726 89.484173 
C 66.304065 88.985511 65.627639 88.705326 64.922425 88.705326 
C 64.217211 88.705326 63.540785 88.985511 63.042123 89.484173 
C 62.543462 89.982835 62.263277 90.65926 62.263277 91.364474 
C 62.263277 92.069689 62.543462 92.746114 63.042123 93.244776 
C 63.540785 93.743438 64.217211 94.023622 64.922425 94.023622 
z
" clip-path="url(#p3bb12cfddc)" style="stroke: #000000"/>
    <path d="M 58.510159 86.997489 
C 59.215593 86.997489 59.89223 86.717217 60.391047 86.2184 
C 60.889865 85.719582 61.170137 85.042945 61.170137 84.337511 
C 61.170137 83.632076 60.889865 82.95544 60.391047 82.456622 
C 59.89223 81.957804 59.215593 81.677532 58.510159 81.677532 
C 57.804724 81.677532 57.128087 81.957804 56.62927 82.456622 
C 56.130452 82.95544 55.85018 83.632076 55.85018 84.337511 
C 55.85018 85.042945 56.130452 85.719582 56.62927 86.2184 
C 57.128087 86.717217 57.804724 86.997489 58.510159 86.997489 
z
" clip-path="url(#p3bb12cfddc)" style="stroke: #000000"/>
    <path d="M 53.677502 72.250813 
C 53.677502 72.250813 53.677502 72.250813 53.677502 72.250813 
C 53.677502 72.250813 53.677502 72.250813 53.677502 72.250813 
C 53.677502 72.250813 53.677502 72.250813 53.677502 72.250813 
C 53.677502 72.250813 53.677502 72.250813 53.677502 72.250813 
C 53.677502 72.250813 53.677502 72.250813 53.677502 72.250813 
C 53.677502 72.250813 53.677502 72.250813 53.677502 72.250813 
C 53.677502 72.250813 53.677502 72.250813 53.677502 72.250813 
C 53.677502 72.250813 53.677502 72.250813 53.677502 72.250813 
z
" clip-path="url(#p3bb12cfddc)" style="stroke: #000000"/>
    <path d="M 51.459491 64.874166 
C 52.022506 64.874166 52.562536 64.650478 52.960648 64.252367 
C 53.358759 63.854256 53.582447 63.314225 53.582447 62.751211 
C 53.582447 62.188197 53.358759 61.648166 52.960648 61.250055 
C 52.562536 60.851944 52.022506 60.628256 51.459491 60.628256 
C 50.896477 60.628256 50.356447 60.851944 49.958335 61.250055 
C 49.560224 61.648166 49.336536 62.188197 49.336536 62.751211 
C 49.336536 63.314225 49.560224 63.854256 49.958335 64.252367 
C 50.356447 64.650478 50.896477 64.874166 51.459491 64.874166 
z
" clip-path="url(#p3bb12cfddc)" style="stroke: #000000"/>
    <path d="M 46.397251 52.2292 
C 47.102686 52.2292 47.779323 51.948928 48.27814 51.45011 
C 48.776958 50.951292 49.05723 50.274656 49.05723 49.569221 
C 49.05723 48.863787 48.776958 48.18715 48.27814 47.688332 
C 47.779323 47.189515 47.102686 46.909243 46.397251 46.909243 
C 45.691817 46.909243 45.01518 47.189515 44.516362 47.688332 
C 44.017545 48.18715 43.737273 48.863787 43.737273 49.569221 
C 43.737273 50.274656 44.017545 50.951292 44.516362 51.45011 
C 45.01518 51.948928 45.691817 52.2292 46.397251 52.2292 
z
" clip-path="url(#p3bb12cfddc)" style="stroke: #000000"/>
    <path d="M 80.028153 180.541104 
C 80.585003 180.541104 81.119122 180.319865 81.512874 179.926112 
C 81.906627 179.532359 82.127866 178.99824 82.127866 178.44139 
C 82.127866 177.884539 81.906627 177.350421 81.512874 176.956668 
C 81.119122 176.562915 80.585003 176.341676 80.028153 176.341676 
C 79.471302 176.341676 78.937184 176.562915 78.543431 176.956668 
C 78.149678 177.350421 77.928439 177.884539 77.928439 178.44139 
C 77.928439 178.99824 78.149678 179.532359 78.543431 179.926112 
C 78.937184 180.319865 79.471302 180.541104 80.028153 180.541104 
z
" clip-path="url(#p3bb12cfddc)" style="stroke: #000000"/>
    <path d="M 75.712523 168.457474 
C 76.272481 168.457474 76.80958 168.235001 77.20553 167.839051 
C 77.60148 167.4431 77.823954 166.906002 77.823954 166.346044 
C 77.823954 165.786086 77.60148 165.248987 77.20553 164.853037 
C 76.80958 164.457087 76.272481 164.234613 75.712523 164.234613 
C 75.152566 164.234613 74.615467 164.457087 74.219517 164.853037 
C 73.823567 165.248987 73.601093 165.786086 73.601093 166.346044 
C 73.601093 166.906002 73.823567 167.4431 74.219517 167.839051 
C 74.615467 168.235001 75.152566 168.457474 75.712523 168.457474 
z
" clip-path="url(#p3bb12cfddc)" style="stroke: #000000"/>
    <path d="M 74.016712 156.925475 
C 74.721927 156.925475 75.398352 156.645291 75.897014 156.146629 
C 76.395676 155.647967 76.67586 154.971541 76.67586 154.266327 
C 76.67586 153.561113 76.395676 152.884687 75.897014 152.386026 
C 75.398352 151.887364 74.721927 151.607179 74.016712 151.607179 
C 73.311498 151.607179 72.635073 151.887364 72.136411 152.386026 
C 71.637749 152.884687 71.357564 153.561113 71.357564 154.266327 
C 71.357564 154.971541 71.637749 155.647967 72.136411 156.146629 
C 72.635073 156.645291 73.311498 156.925475 74.016712 156.925475 
z
" clip-path="url(#p3bb12cfddc)" style="stroke: #000000"/>
    <path d="M 69.713688 154.201619 
C 70.419123 154.201619 71.09576 153.921347 71.594577 153.42253 
C 72.093395 152.923712 72.373667 152.247075 72.373667 151.541641 
C 72.373667 150.836206 72.093395 150.15957 71.594577 149.660752 
C 71.09576 149.161934 70.419123 148.881662 69.713688 148.881662 
C 69.008254 148.881662 68.331617 149.161934 67.8328 149.660752 
C 67.333982 150.15957 67.05371 150.836206 67.05371 151.541641 
C 67.05371 152.247075 67.333982 152.923712 67.8328 153.42253 
C 68.331617 153.921347 69.008254 154.201619 69.713688 154.201619 
z
" clip-path="url(#p3bb12cfddc)" style="stroke: #000000"/>
    <path d="M 62.23032 140.560094 
C 62.768826 140.560094 63.285349 140.346143 63.666131 139.965362 
C 64.046912 139.58458 64.260863 139.068057 64.260863 138.529551 
C 64.260863 137.991044 64.046912 137.474521 63.666131 137.09374 
C 63.285349 136.712958 62.768826 136.499007 62.23032 136.499007 
C 61.691813 136.499007 61.17529 136.712958 60.794509 137.09374 
C 60.413727 137.474521 60.199777 137.991044 60.199777 138.529551 
C 60.199777 139.068057 60.413727 139.58458 60.794509 139.965362 
C 61.17529 140.346143 61.691813 140.560094 62.23032 140.560094 
z
" clip-path="url(#p3bb12cfddc)" style="stroke: #000000"/>
    <path d="M 60.501342 123.769252 
C 61.206776 123.769252 61.883413 123.48898 62.382231 122.990162 
C 62.881048 122.491345 63.16132 121.814708 63.16132 121.109273 
C 63.16132 120.403839 62.881048 119.727202 62.382231 119.228385 
C 61.883413 118.729567 61.206776 118.449295 60.501342 118.449295 
C 59.795907 118.449295 59.11927 118.729567 58.620453 119.228385 
C 58.121635 119.727202 57.841363 120.403839 57.841363 121.109273 
C 57.841363 121.814708 58.121635 122.491345 58.620453 122.990162 
C 59.11927 123.48898 59.795907 123.769252 60.501342 123.769252 
z
" clip-path="url(#p3bb12cfddc)" style="stroke: #000000"/>
    <path d="M 58.606575 115.440957 
C 59.311789 115.440957 59.988214 115.160773 60.486876 114.662111 
C 60.985538 114.163449 61.265723 113.487024 61.265723 112.78181 
C 61.265723 112.076595 60.985538 111.40017 60.486876 110.901508 
C 59.988214 110.402846 59.311789 110.122662 58.606575 110.122662 
C 57.90136 110.122662 57.224935 110.402846 56.726273 110.901508 
C 56.227611 111.40017 55.947427 112.076595 55.947427 112.78181 
C 55.947427 113.487024 56.227611 114.163449 56.726273 114.662111 
C 57.224935 115.160773 57.90136 115.440957 58.606575 115.440957 
z
" clip-path="url(#p3bb12cfddc)" style="stroke: #000000"/>
    <path d="M 51.669852 107.305343 
C 52.508497 107.305343 53.312907 106.972145 53.90592 106.379133 
C 54.498932 105.786121 54.832129 104.981711 54.832129 104.143065 
C 54.832129 103.304419 54.498932 102.500009 53.90592 101.906997 
C 53.312907 101.313985 52.508497 100.980787 51.669852 100.980787 
C 50.831206 100.980787 50.026796 101.313985 49.433784 101.906997 
C 48.840771 102.500009 48.507574 103.304419 48.507574 104.143065 
C 48.507574 104.981711 48.840771 105.786121 49.433784 106.379133 
C 50.026796 106.972145 50.831206 107.305343 51.669852 107.305343 
z
" clip-path="url(#p3bb12cfddc)" style="stroke: #000000"/>
    <path d="M 50.200214 97.705799 
C 50.793597 97.705799 51.362756 97.470046 51.78234 97.050461 
C 52.201925 96.630877 52.437678 96.061718 52.437678 95.468335 
C 52.437678 94.874953 52.201925 94.305794 51.78234 93.886209 
C 51.362756 93.466624 50.793597 93.230871 50.200214 93.230871 
C 49.606832 93.230871 49.037673 93.466624 48.618088 93.886209 
C 48.198503 94.305794 47.96275 94.874953 47.96275 95.468335 
C 47.96275 96.061718 48.198503 96.630877 48.618088 97.050461 
C 49.037673 97.470046 49.606832 97.705799 50.200214 97.705799 
z
" clip-path="url(#p3bb12cfddc)" style="stroke: #000000"/>
    <path d="M 47.746711 83.17303 
C 47.904402 83.17303 48.055655 83.110379 48.16716 82.998875 
C 48.278664 82.887371 48.341315 82.736118 48.341315 82.578427 
C 48.341315 82.420736 48.278664 82.269483 48.16716 82.157979 
C 48.055655 82.046474 47.904402 81.983823 47.746711 81.983823 
C 47.589021 81.983823 47.437767 82.046474 47.326263 82.157979 
C 47.214759 82.269483 47.152108 82.420736 47.152108 82.578427 
C 47.152108 82.736118 47.214759 82.887371 47.326263 82.998875 
C 47.437767 83.110379 47.589021 83.17303 47.746711 83.17303 
z
" clip-path="url(#p3bb12cfddc)" style="stroke: #000000"/>
    <path d="M 43.791229 77.048091 
C 43.791229 77.048091 43.791229 77.048091 43.791229 77.048091 
C 43.791229 77.048091 43.791229 77.048091 43.791229 77.048091 
C 43.791229 77.048091 43.791229 77.048091 43.791229 77.048091 
C 43.791229 77.048091 43.791229 77.048091 43.791229 77.048091 
C 43.791229 77.048091 43.791229 77.048091 43.791229 77.048091 
C 43.791229 77.048091 43.791229 77.048091 43.791229 77.048091 
C 43.791229 77.048091 43.791229 77.048091 43.791229 77.048091 
C 43.791229 77.048091 43.791229 77.048091 43.791229 77.048091 
z
" clip-path="url(#p3bb12cfddc)" style="stroke: #000000"/>
    <path d="M 37.084223 65.291497 
C 37.645059 65.291497 38.183 65.068675 38.579571 64.672104 
C 38.976142 64.275533 39.198965 63.737591 39.198965 63.176755 
C 39.198965 62.615919 38.976142 62.077977 38.579571 61.681406 
C 38.183 61.284835 37.645059 61.062012 37.084223 61.062012 
C 36.523386 61.062012 35.985445 61.284835 35.588874 61.681406 
C 35.192303 62.077977 34.96948 62.615919 34.96948 63.176755 
C 34.96948 63.737591 35.192303 64.275533 35.588874 64.672104 
C 35.985445 65.068675 36.523386 65.291497 37.084223 65.291497 
z
" clip-path="url(#p3bb12cfddc)" style="stroke: #000000"/>
    <path d="M 37.271313 59.511277 
C 37.976527 59.511277 38.652953 59.231092 39.151615 58.732431 
C 39.650276 58.233769 39.930461 57.557343 39.930461 56.852129 
C 39.930461 56.146915 39.650276 55.470489 39.151615 54.971828 
C 38.652953 54.473166 37.976527 54.192981 37.271313 54.192981 
C 36.566099 54.192981 35.889673 54.473166 35.391012 54.971828 
C 34.89235 55.470489 34.612165 56.146915 34.612165 56.852129 
C 34.612165 57.557343 34.89235 58.233769 35.391012 58.732431 
C 35.889673 59.231092 36.566099 59.511277 37.271313 59.511277 
z
" clip-path="url(#p3bb12cfddc)" style="stroke: #000000"/>
    <path d="M 65.514302 171.902041 
C 65.514302 171.902041 65.514302 171.902041 65.514302 171.902041 
C 65.514302 171.902041 65.514302 171.902041 65.514302 171.902041 
C 65.514302 171.902041 65.514302 171.902041 65.514302 171.902041 
C 65.514302 171.902041 65.514302 171.902041 65.514302 171.902041 
C 65.514302 171.902041 65.514302 171.902041 65.514302 171.902041 
C 65.514302 171.902041 65.514302 171.902041 65.514302 171.902041 
C 65.514302 171.902041 65.514302 171.902041 65.514302 171.902041 
C 65.514302 171.902041 65.514302 171.902041 65.514302 171.902041 
z
" clip-path="url(#p3bb12cfddc)" style="stroke: #000000"/>
    <path d="M 62.437127 162.301608 
C 63.142562 162.301608 63.819198 162.021336 64.318016 161.522519 
C 64.816834 161.023701 65.097106 160.347064 65.097106 159.64163 
C 65.097106 158.936195 64.816834 158.259559 64.318016 157.760741 
C 63.819198 157.261923 63.142562 156.981651 62.437127 156.981651 
C 61.731693 156.981651 61.055056 157.261923 60.556238 157.760741 
C 60.057421 158.259559 59.777149 158.936195 59.777149 159.64163 
C 59.777149 160.347064 60.057421 161.023701 60.556238 161.522519 
C 61.055056 162.021336 61.731693 162.301608 62.437127 162.301608 
z
" clip-path="url(#p3bb12cfddc)" style="stroke: #000000"/>
    <path d="M 58.638839 152.088148 
C 59.344273 152.088148 60.02091 151.807876 60.519728 151.309058 
C 61.018545 150.810241 61.298817 150.133604 61.298817 149.42817 
C 61.298817 148.722735 61.018545 148.046098 60.519728 147.547281 
C 60.02091 147.048463 59.344273 146.768191 58.638839 146.768191 
C 57.933404 146.768191 57.256768 147.048463 56.75795 147.547281 
C 56.259132 148.046098 55.97886 148.722735 55.97886 149.42817 
C 55.97886 150.133604 56.259132 150.810241 56.75795 151.309058 
C 57.256768 151.807876 57.933404 152.088148 58.638839 152.088148 
z
" clip-path="url(#p3bb12cfddc)" style="stroke: #000000"/>
    <path d="M 54.619917 147.994086 
C 55.325352 147.994086 56.001988 147.713814 56.500806 147.214996 
C 56.999623 146.716179 57.279896 146.039542 57.279896 145.334108 
C 57.279896 144.628673 56.999623 143.952036 56.500806 143.453219 
C 56.001988 142.954401 55.325352 142.674129 54.619917 142.674129 
C 53.914482 142.674129 53.237846 142.954401 52.739028 143.453219 
C 52.240211 143.952036 51.959938 144.628673 51.959938 145.334108 
C 51.959938 146.039542 52.240211 146.716179 52.739028 147.214996 
C 53.237846 147.713814 53.914482 147.994086 54.619917 147.994086 
z
" clip-path="url(#p3bb12cfddc)" style="stroke: #000000"/>
    <path d="M 48.256313 133.578399 
C 48.849325 133.578399 49.418129 133.342793 49.837451 132.92347 
C 50.256774 132.504147 50.492381 131.935344 50.492381 131.342331 
C 50.492381 130.749319 50.256774 130.180515 49.837451 129.761193 
C 49.418129 129.34187 48.849325 129.106263 48.256313 129.106263 
C 47.663301 129.106263 47.094497 129.34187 46.675174 129.761193 
C 46.255851 130.180515 46.020245 130.749319 46.020245 131.342331 
C 46.020245 131.935344 46.255851 132.504147 46.675174 132.92347 
C 47.094497 133.342793 47.663301 133.578399 48.256313 133.578399 
z
" clip-path="url(#p3bb12cfddc)" style="stroke: #000000"/>
    <path d="M 48.879895 123.299644 
C 49.585109 123.299644 50.261535 123.019459 50.760197 122.520798 
C 51.258858 122.022136 51.539043 121.34571 51.539043 120.640496 
C 51.539043 119.935282 51.258858 119.258856 50.760197 118.760195 
C 50.261535 118.261533 49.585109 117.981348 48.879895 117.981348 
C 48.174681 117.981348 47.498255 118.261533 46.999594 118.760195 
C 46.500932 119.258856 46.220747 119.935282 46.220747 120.640496 
C 46.220747 121.34571 46.500932 122.022136 46.999594 122.520798 
C 47.498255 123.019459 48.174681 123.299644 48.879895 123.299644 
z
" clip-path="url(#p3bb12cfddc)" style="stroke: #000000"/>
    <path d="M 43.814827 113.05382 
C 44.242296 113.05382 44.652315 112.883984 44.954581 112.581718 
C 45.256847 112.279452 45.426682 111.869434 45.426682 111.441965 
C 45.426682 111.014496 45.256847 110.604477 44.954581 110.302211 
C 44.652315 109.999945 44.242296 109.83011 43.814827 109.83011 
C 43.387358 109.83011 42.97734 109.999945 42.675074 110.302211 
C 42.372808 110.604477 42.202972 111.014496 42.202972 111.441965 
C 42.202972 111.869434 42.372808 112.279452 42.675074 112.581718 
C 42.97734 112.883984 43.387358 113.05382 43.814827 113.05382 
z
" clip-path="url(#p3bb12cfddc)" style="stroke: #000000"/>
    <path d="M 41.932489 102.03278 
C 42.637924 102.03278 43.31456 101.752508 43.813378 101.25369 
C 44.312195 100.754872 44.592467 100.078236 44.592467 99.372801 
C 44.592467 98.667367 44.312195 97.99073 43.813378 97.491912 
C 43.31456 96.993095 42.637924 96.712823 41.932489 96.712823 
C 41.227054 96.712823 40.550418 96.993095 40.0516 97.491912 
C 39.552783 97.99073 39.27251 98.667367 39.27251 99.372801 
C 39.27251 100.078236 39.552783 100.754872 40.0516 101.25369 
C 40.550418 101.752508 41.227054 102.03278 41.932489 102.03278 
z
" clip-path="url(#p3bb12cfddc)" style="stroke: #000000"/>
    <path d="M 37.197856 92.020079 
C 37.90307 92.020079 38.579495 91.739894 39.078157 91.241232 
C 39.576819 90.74257 39.857004 90.066145 39.857004 89.360931 
C 39.857004 88.655716 39.576819 87.979291 39.078157 87.480629 
C 38.579495 86.981967 37.90307 86.701783 37.197856 86.701783 
C 36.492641 86.701783 35.816216 86.981967 35.317554 87.480629 
C 34.818892 87.979291 34.538708 88.655716 34.538708 89.360931 
C 34.538708 90.066145 34.818892 90.74257 35.317554 91.241232 
C 35.816216 91.739894 36.492641 92.020079 37.197856 92.020079 
z
" clip-path="url(#p3bb12cfddc)" style="stroke: #000000"/>
    <path d="M 34.250173 78.846789 
C 34.250173 78.846789 34.250173 78.846789 34.250173 78.846789 
C 34.250173 78.846789 34.250173 78.846789 34.250173 78.846789 
C 34.250173 78.846789 34.250173 78.846789 34.250173 78.846789 
C 34.250173 78.846789 34.250173 78.846789 34.250173 78.846789 
C 34.250173 78.846789 34.250173 78.846789 34.250173 78.846789 
C 34.250173 78.846789 34.250173 78.846789 34.250173 78.846789 
C 34.250173 78.846789 34.250173 78.846789 34.250173 78.846789 
C 34.250173 78.846789 34.250173 78.846789 34.250173 78.846789 
z
" clip-path="url(#p3bb12cfddc)" style="stroke: #000000"/>
    <path d="M 53.335232 166.3892 
C 53.883845 166.3892 54.410061 166.171234 54.797988 165.783307 
C 55.185916 165.395379 55.403882 164.869163 55.403882 164.320551 
C 55.403882 163.771938 55.185916 163.245722 54.797988 162.857795 
C 54.410061 162.469867 53.883845 162.251901 53.335232 162.251901 
C 52.78662 162.251901 52.260404 162.469867 51.872476 162.857795 
C 51.484549 163.245722 51.266583 163.771938 51.266583 164.320551 
C 51.266583 164.869163 51.484549 165.395379 51.872476 165.783307 
C 52.260404 166.171234 52.78662 166.3892 53.335232 166.3892 
z
" clip-path="url(#p3bb12cfddc)" style="stroke: #000000"/>
    <path d="M 46.905218 159.346916 
C 47.610433 159.346916 48.286858 159.066731 48.78552 158.56807 
C 49.284182 158.069408 49.564366 157.392982 49.564366 156.687768 
C 49.564366 155.982554 49.284182 155.306128 48.78552 154.807466 
C 48.286858 154.308805 47.610433 154.02862 46.905218 154.02862 
C 46.200004 154.02862 45.523579 154.308805 45.024917 154.807466 
C 44.526255 155.306128 44.24607 155.982554 44.24607 156.687768 
C 44.24607 157.392982 44.526255 158.069408 45.024917 158.56807 
C 45.523579 159.066731 46.200004 159.346916 46.905218 159.346916 
z
" clip-path="url(#p3bb12cfddc)" style="stroke: #000000"/>
    <path d="M 40.922269 148.561016 
C 41.627483 148.561016 42.303908 148.280831 42.80257 147.78217 
C 43.301232 147.283508 43.581417 146.607082 43.581417 145.901868 
C 43.581417 145.196654 43.301232 144.520228 42.80257 144.021566 
C 42.303908 143.522905 41.627483 143.24272 40.922269 143.24272 
C 40.217054 143.24272 39.540629 143.522905 39.041967 144.021566 
C 38.543305 144.520228 38.263121 145.196654 38.263121 145.901868 
C 38.263121 146.607082 38.543305 147.283508 39.041967 147.78217 
C 39.540629 148.280831 40.217054 148.561016 40.922269 148.561016 
z
" clip-path="url(#p3bb12cfddc)" style="stroke: #000000"/>
    <path d="M 40.83459 134.087387 
C 41.539805 134.087387 42.21623 133.807202 42.714892 133.30854 
C 43.213554 132.809879 43.493738 132.133453 43.493738 131.428239 
C 43.493738 130.723025 43.213554 130.046599 42.714892 129.547937 
C 42.21623 129.049276 41.539805 128.769091 40.83459 128.769091 
C 40.129376 128.769091 39.452951 129.049276 38.954289 129.547937 
C 38.455627 130.046599 38.175442 130.723025 38.175442 131.428239 
C 38.175442 132.133453 38.455627 132.809879 38.954289 133.30854 
C 39.452951 133.807202 40.129376 134.087387 40.83459 134.087387 
z
" clip-path="url(#p3bb12cfddc)" style="stroke: #000000"/>
    <path d="M 37.557421 124.945785 
C 38.262635 124.945785 38.939061 124.665601 39.437723 124.166939 
C 39.936384 123.668277 40.216569 122.991852 40.216569 122.286637 
C 40.216569 121.581423 39.936384 120.904998 39.437723 120.406336 
C 38.939061 119.907674 38.262635 119.627489 37.557421 119.627489 
C 36.852207 119.627489 36.175781 119.907674 35.67712 120.406336 
C 35.178458 120.904998 34.898273 121.581423 34.898273 122.286637 
C 34.898273 122.991852 35.178458 123.668277 35.67712 124.166939 
C 36.175781 124.665601 36.852207 124.945785 37.557421 124.945785 
z
" clip-path="url(#p3bb12cfddc)" style="stroke: #000000"/>
    <path d="M 39.112686 112.733554 
C 39.354175 112.733554 39.585805 112.63761 39.756564 112.466851 
C 39.927322 112.296093 40.023266 112.064463 40.023266 111.822974 
C 40.023266 111.581485 39.927322 111.349855 39.756564 111.179097 
C 39.585805 111.008338 39.354175 110.912394 39.112686 110.912394 
C 38.871197 110.912394 38.639567 111.008338 38.468809 111.179097 
C 38.29805 111.349855 38.202106 111.581485 38.202106 111.822974 
C 38.202106 112.064463 38.29805 112.296093 38.468809 112.466851 
C 38.639567 112.63761 38.871197 112.733554 39.112686 112.733554 
z
" clip-path="url(#p3bb12cfddc)" style="stroke: #000000"/>
    <path d="M 37.176802 171.419006 
C 37.737638 171.419006 38.275579 171.196183 38.672151 170.799612 
C 39.068722 170.403041 39.291544 169.865099 39.291544 169.304263 
C 39.291544 168.743427 39.068722 168.205485 38.672151 167.808914 
C 38.275579 167.412343 37.737638 167.18952 37.176802 167.18952 
C 36.615966 167.18952 36.078024 167.412343 35.681453 167.808914 
C 35.284882 168.205485 35.062059 168.743427 35.062059 169.304263 
C 35.062059 169.865099 35.284882 170.403041 35.681453 170.799612 
C 36.078024 171.196183 36.615966 171.419006 37.176802 171.419006 
z
" clip-path="url(#p3bb12cfddc)" style="stroke: #000000"/>
    <path d="M 34.352354 147.546635 
C 34.91319 147.546635 35.451131 147.323812 35.847703 146.927241 
C 36.244274 146.53067 36.467096 145.992729 36.467096 145.431892 
C 36.467096 144.871056 36.244274 144.333115 35.847703 143.936544 
C 35.451131 143.539972 34.91319 143.31715 34.352354 143.31715 
C 33.791517 143.31715 33.253576 143.539972 32.857005 143.936544 
C 32.460434 144.333115 32.237611 144.871056 32.237611 145.431892 
C 32.237611 145.992729 32.460434 146.53067 32.857005 146.927241 
C 33.253576 147.323812 33.791517 147.546635 34.352354 147.546635 
z
" clip-path="url(#p3bb12cfddc)" style="stroke: #000000"/>
    <path d="M 31.054974 136.894953 
C 31.760408 136.894953 32.437045 136.614681 32.935863 136.115864 
C 33.43468 135.617046 33.714952 134.940409 33.714952 134.234975 
C 33.714952 133.52954 33.43468 132.852904 32.935863 132.354086 
C 32.437045 131.855268 31.760408 131.574996 31.054974 131.574996 
C 30.349539 131.574996 29.672902 131.855268 29.174085 132.354086 
C 28.675267 132.852904 28.394995 133.52954 28.394995 134.234975 
C 28.394995 134.940409 28.675267 135.617046 29.174085 136.115864 
C 29.672902 136.614681 30.349539 136.894953 31.054974 136.894953 
z
" clip-path="url(#p3bb12cfddc)" style="stroke: #000000"/>
    <path d="M 26.695896 127.608822 
C 27.256732 127.608822 27.794673 127.385999 28.191244 126.989428 
C 28.587816 126.592857 28.810638 126.054915 28.810638 125.494079 
C 28.810638 124.933243 28.587816 124.395301 28.191244 123.99873 
C 27.794673 123.602159 27.256732 123.379336 26.695896 123.379336 
C 26.135059 123.379336 25.597118 123.602159 25.200547 123.99873 
C 24.803976 124.395301 24.581153 124.933243 24.581153 125.494079 
C 24.581153 126.054915 24.803976 126.592857 25.200547 126.989428 
C 25.597118 127.385999 26.135059 127.608822 26.695896 127.608822 
z
" clip-path="url(#p3bb12cfddc)" style="stroke: #000000"/>
   </g>
   <g id="matplotlib.axis_1">
    <g id="xtick_1">
     <g id="line2d_1">
      <defs>
       <path id="m2ca6cd7145" d="M 0 0 
L 0 3.5 
" style="stroke: #000000; stroke-width: 0.8"/>
      </defs>
      <g>
       <use xlink:href="#m2ca6cd7145" x="18" y="189" style="stroke: #000000; stroke-width: 0.8"/>
      </g>
     </g>
     <g id="text_1">
      <!-- 10 -->
      <g transform="translate(7.447656 203.598437)scale(0.1 -0.1)">
       <defs>
        <path id="DejaVuSans-2212" d="M 678 2272 
L 4684 2272 
L 4684 1741 
L 678 1741 
L 678 2272 
z
" transform="scale(0.015625)"/>
        <path id="DejaVuSans-31" d="M 794 531 
L 1825 531 
L 1825 4091 
L 703 3866 
L 703 4441 
L 1819 4666 
L 2450 4666 
L 2450 531 
L 3481 531 
L 3481 0 
L 794 0 
L 794 531 
z
" transform="scale(0.015625)"/>
        <path id="DejaVuSans-30" d="M 2034 4250 
Q 1547 4250 1301 3770 
Q 1056 3291 1056 2328 
Q 1056 1369 1301 889 
Q 1547 409 2034 409 
Q 2525 409 2770 889 
Q 3016 1369 3016 2328 
Q 3016 3291 2770 3770 
Q 2525 4250 2034 4250 
z
M 2034 4750 
Q 2819 4750 3233 4129 
Q 3647 3509 3647 2328 
Q 3647 1150 3233 529 
Q 2819 -91 2034 -91 
Q 1250 -91 836 529 
Q 422 1150 422 2328 
Q 422 3509 836 4129 
Q 1250 4750 2034 4750 
z
" transform="scale(0.015625)"/>
       </defs>
       <use xlink:href="#DejaVuSans-2212"/>
       <use xlink:href="#DejaVuSans-31" x="83.789062"/>
       <use xlink:href="#DejaVuSans-30" x="147.412109"/>
      </g>
     </g>
    </g>
    <g id="xtick_2">
     <g id="line2d_2">
      <g>
       <use xlink:href="#m2ca6cd7145" x="73.8" y="189" style="stroke: #000000; stroke-width: 0.8"/>
      </g>
     </g>
     <g id="text_2">
      <!-- 0 -->
      <g transform="translate(70.61875 203.598437)scale(0.1 -0.1)">
       <use xlink:href="#DejaVuSans-30"/>
      </g>
     </g>
    </g>
    <g id="xtick_3">
     <g id="line2d_3">
      <g>
       <use xlink:href="#m2ca6cd7145" x="129.6" y="189" style="stroke: #000000; stroke-width: 0.8"/>
      </g>
     </g>
     <g id="text_3">
      <!-- 10 -->
      <g transform="translate(123.2375 203.598437)scale(0.1 -0.1)">
       <use xlink:href="#DejaVuSans-31"/>
       <use xlink:href="#DejaVuSans-30" x="63.623047"/>
      </g>
     </g>
    </g>
   </g>
   <g id="matplotlib.axis_2">
    <g id="ytick_1">
     <g id="line2d_4">
      <defs>
       <path id="m310cfa34d4" d="M 0 0 
L -3.5 0 
" style="stroke: #000000; stroke-width: 0.8"/>
      </defs>
      <g>
       <use xlink:href="#m310cfa34d4" x="18" y="189" style="stroke: #000000; stroke-width: 0.8"/>
      </g>
     </g>
     <g id="text_4">
      <!-- 15 -->
      <g transform="translate(-10.104688 192.799219)scale(0.1 -0.1)">
       <defs>
        <path id="DejaVuSans-35" d="M 691 4666 
L 3169 4666 
L 3169 4134 
L 1269 4134 
L 1269 2991 
Q 1406 3038 1543 3061 
Q 1681 3084 1819 3084 
Q 2600 3084 3056 2656 
Q 3513 2228 3513 1497 
Q 3513 744 3044 326 
Q 2575 -91 1722 -91 
Q 1428 -91 1123 -41 
Q 819 9 494 109 
L 494 744 
Q 775 591 1075 516 
Q 1375 441 1709 441 
Q 2250 441 2565 725 
Q 2881 1009 2881 1497 
Q 2881 1984 2565 2268 
Q 2250 2553 1709 2553 
Q 1456 2553 1204 2497 
Q 953 2441 691 2322 
L 691 4666 
z
" transform="scale(0.015625)"/>
       </defs>
       <use xlink:href="#DejaVuSans-2212"/>
       <use xlink:href="#DejaVuSans-31" x="83.789062"/>
       <use xlink:href="#DejaVuSans-35" x="147.412109"/>
      </g>
     </g>
    </g>
    <g id="ytick_2">
     <g id="line2d_5">
      <g>
       <use xlink:href="#m310cfa34d4" x="18" y="161.82" style="stroke: #000000; stroke-width: 0.8"/>
      </g>
     </g>
     <g id="text_5">
      <!-- 10 -->
      <g transform="translate(-10.104688 165.619219)scale(0.1 -0.1)">
       <use xlink:href="#DejaVuSans-2212"/>
       <use xlink:href="#DejaVuSans-31" x="83.789062"/>
       <use xlink:href="#DejaVuSans-30" x="147.412109"/>
      </g>
     </g>
    </g>
    <g id="ytick_3">
     <g id="line2d_6">
      <g>
       <use xlink:href="#m310cfa34d4" x="18" y="134.64" style="stroke: #000000; stroke-width: 0.8"/>
      </g>
     </g>
     <g id="text_6">
      <!-- 5 -->
      <g transform="translate(-3.742188 138.439219)scale(0.1 -0.1)">
       <use xlink:href="#DejaVuSans-2212"/>
       <use xlink:href="#DejaVuSans-35" x="83.789062"/>
      </g>
     </g>
    </g>
    <g id="ytick_4">
     <g id="line2d_7">
      <g>
       <use xlink:href="#m310cfa34d4" x="18" y="107.46" style="stroke: #000000; stroke-width: 0.8"/>
      </g>
     </g>
     <g id="text_7">
      <!-- 0 -->
      <g transform="translate(4.6375 111.259219)scale(0.1 -0.1)">
       <use xlink:href="#DejaVuSans-30"/>
      </g>
     </g>
    </g>
    <g id="ytick_5">
     <g id="line2d_8">
      <g>
       <use xlink:href="#m310cfa34d4" x="18" y="80.28" style="stroke: #000000; stroke-width: 0.8"/>
      </g>
     </g>
     <g id="text_8">
      <!-- 5 -->
      <g transform="translate(4.6375 84.079219)scale(0.1 -0.1)">
       <use xlink:href="#DejaVuSans-35"/>
      </g>
     </g>
    </g>
    <g id="ytick_6">
     <g id="line2d_9">
      <g>
       <use xlink:href="#m310cfa34d4" x="18" y="53.1" style="stroke: #000000; stroke-width: 0.8"/>
      </g>
     </g>
     <g id="text_9">
      <!-- 10 -->
      <g transform="translate(-1.725 56.899219)scale(0.1 -0.1)">
       <use xlink:href="#DejaVuSans-31"/>
       <use xlink:href="#DejaVuSans-30" x="63.623047"/>
      </g>
     </g>
    </g>
    <g id="ytick_7">
     <g id="line2d_10">
      <g>
       <use xlink:href="#m310cfa34d4" x="18" y="25.92" style="stroke: #000000; stroke-width: 0.8"/>
      </g>
     </g>
     <g id="text_10">
      <!-- 15 -->
      <g transform="translate(-1.725 29.719219)scale(0.1 -0.1)">
       <use xlink:href="#DejaVuSans-31"/>
       <use xlink:href="#DejaVuSans-35" x="63.623047"/>
      </g>
     </g>
    </g>
   </g>
   <g id="patch_3">
    <path d="M 18 189 
L 18 25.92 
" style="fill: none; stroke: #000000; stroke-width: 0.8; stroke-linejoin: miter; stroke-linecap: square"/>
   </g>
   <g id="patch_4">
    <path d="M 129.6 189 
L 129.6 25.92 
" style="fill: none; stroke: #000000; stroke-width: 0.8; stroke-linejoin: miter; stroke-linecap: square"/>
   </g>
   <g id="patch_5">
    <path d="M 18 189 
L 129.6 189 
" style="fill: none; stroke: #000000; stroke-width: 0.8; stroke-linejoin: miter; stroke-linecap: square"/>
   </g>
   <g id="patch_6">
    <path d="M 18 25.92 
L 129.6 25.92 
" style="fill: none; stroke: #000000; stroke-width: 0.8; stroke-linejoin: miter; stroke-linecap: square"/>
   </g>
  </g>
 </g>
 <defs>
  <clipPath id="p3bb12cfddc">
   <rect x="18" y="25.92" width="111.6" height="163.08"/>
  </clipPath>
 </defs>
</svg>
