<?xml version="1.0" encoding="utf-8" standalone="no"?>
<!DOCTYPE svg PUBLIC "-//W3C//DTD SVG 1.1//EN"
  "http://www.w3.org/Graphics/SVG/1.1/DTD/svg11.dtd">
<svg xmlns:xlink="http://www.w3.org/1999/xlink" width="144pt" height="216pt" viewBox="0 0 144 216" xmlns="http://www.w3.org/2000/svg" version="1.1">
 <metadata>
  <rdf:RDF xmlns:dc="http://purl.org/dc/elements/1.1/" xmlns:cc="http://creativecommons.org/ns#" xmlns:rdf="http://www.w3.org/1999/02/22-rdf-syntax-ns#">
   <cc:Work>
    <dc:type rdf:resource="http://purl.org/dc/dcmitype/StillImage"/>
    <dc:date>2022-06-23T14:51:54.802162</dc:date>
    <dc:format>image/svg+xml</dc:format>
    <dc:creator>
     <cc:Agent>
      <dc:title>Matplotlib v3.5.1, https://matplotlib.org/</dc:title>
     </cc:Agent>
    </dc:creator>
   </cc:Work>
  </rdf:RDF>
 </metadata>
 <defs>
  <style type="text/css">*{stroke-linejoin: round; stroke-linecap: butt}</style>
 </defs>
 <g id="figure_1">
  <g id="patch_1">
   <path d="M 0 216 
L 144 216 
L 144 0 
L 0 0 
L 0 216 
z
" style="fill: none"/>
  </g>
  <g id="axes_1">
   <g id="patch_2">
    <path d="M 18 189 
L 129.6 189 
L 129.6 25.92 
L 18 25.92 
z
" style="fill: #ffffff"/>
   </g>
   <g id="PathCollection_1">
    <defs>
     <path id="m27fced30f5" d="M 0 2.738613 
C 0.726289 2.738613 1.422928 2.450055 1.936492 1.936492 
C 2.450055 1.422928 2.738613 0.726289 2.738613 0 
C 2.738613 -0.726289 2.450055 -1.422928 1.936492 -1.936492 
C 1.422928 -2.450055 0.726289 -2.738613 0 -2.738613 
C -0.726289 -2.738613 -1.422928 -2.450055 -1.936492 -1.936492 
C -2.450055 -1.422928 -2.738613 -0.726289 -2.738613 0 
C -2.738613 0.726289 -2.450055 1.422928 -1.936492 1.936492 
C -1.422928 2.450055 -0.726289 2.738613 0 2.738613 
z
" style="stroke: #ff0000; stroke-width: 1.75"/>
    </defs>
    <g clip-path="url(#pa2a1ad37a8)">
     <use xlink:href="#m27fced30f5" x="66.825" y="83.92143" style="fill: #ff0000; stroke: #ff0000; stroke-width: 1.75"/>
     <use xlink:href="#m27fced30f5" x="87.75" y="95.690715" style="fill: #ff0000; stroke: #ff0000; stroke-width: 1.75"/>
     <use xlink:href="#m27fced30f5" x="66.825" y="107.46" style="fill: #ff0000; stroke: #ff0000; stroke-width: 1.75"/>
     <use xlink:href="#m27fced30f5" x="73.8" y="119.229285" style="fill: #ff0000; stroke: #ff0000; stroke-width: 1.75"/>
     <use xlink:href="#m27fced30f5" x="87.75" y="119.229285" style="fill: #ff0000; stroke: #ff0000; stroke-width: 1.75"/>
     <use xlink:href="#m27fced30f5" x="66.825" y="130.99857" style="fill: #ff0000; stroke: #ff0000; stroke-width: 1.75"/>
     <use xlink:href="#m27fced30f5" x="80.775" y="130.99857" style="fill: #ff0000; stroke: #ff0000; stroke-width: 1.75"/>
    </g>
   </g>
   <g id="PathCollection_2">
    <defs>
     <path id="C0_0_5297fa861f" d="M 0 2.738613 
C 0.726289 2.738613 1.422928 2.450055 1.936492 1.936492 
C 2.450055 1.422928 2.738613 0.726289 2.738613 -0 
C 2.738613 -0.726289 2.450055 -1.422928 1.936492 -1.936492 
C 1.422928 -2.450055 0.726289 -2.738613 0 -2.738613 
C -0.726289 -2.738613 -1.422928 -2.450055 -1.936492 -1.936492 
C -2.450055 -1.422928 -2.738613 -0.726289 -2.738613 0 
C -2.738613 0.726289 -2.450055 1.422928 -1.936492 1.936492 
C -1.422928 2.450055 -0.726289 2.738613 0 2.738613 
z
"/>
    </defs>
    <g clip-path="url(#pa2a1ad37a8)">
     <use xlink:href="#C0_0_5297fa861f" x="80.775" y="83.92143" style="fill: none; stroke: #ff0000; stroke-width: 1.75"/>
    </g>
    <g clip-path="url(#pa2a1ad37a8)">
     <use xlink:href="#C0_0_5297fa861f" x="59.85" y="95.690715" style="fill: none; stroke: #ff0000; stroke-width: 1.75"/>
    </g>
    <g clip-path="url(#pa2a1ad37a8)">
     <use xlink:href="#C0_0_5297fa861f" x="73.8" y="95.690715" style="fill: none; stroke: #ff0000; stroke-width: 1.75"/>
    </g>
    <g clip-path="url(#pa2a1ad37a8)">
     <use xlink:href="#C0_0_5297fa861f" x="52.875" y="107.46" style="fill: none; stroke: #ff0000; stroke-width: 1.75"/>
    </g>
    <g clip-path="url(#pa2a1ad37a8)">
     <use xlink:href="#C0_0_5297fa861f" x="80.775" y="107.46" style="fill: none; stroke: #ff0000; stroke-width: 1.75"/>
    </g>
    <g clip-path="url(#pa2a1ad37a8)">
     <use xlink:href="#C0_0_5297fa861f" x="94.725" y="107.46" style="fill: none; stroke: #ff0000; stroke-width: 1.75"/>
    </g>
    <g clip-path="url(#pa2a1ad37a8)">
     <use xlink:href="#C0_0_5297fa861f" x="59.85" y="119.229285" style="fill: none; stroke: #ff0000; stroke-width: 1.75"/>
    </g>
   </g>
   <g id="PathCollection_3">
    <path d="M 113.295812 113.946315 
C 113.889194 113.946315 114.458353 113.710562 114.877938 113.290977 
C 115.297523 112.871392 115.533276 112.302233 115.533276 111.708851 
C 115.533276 111.115469 115.297523 110.54631 114.877938 110.126725 
C 114.458353 109.70714 113.889194 109.471387 113.295812 109.471387 
C 112.702429 109.471387 112.13327 109.70714 111.713686 110.126725 
C 111.294101 110.54631 111.058348 111.115469 111.058348 111.708851 
C 111.058348 112.302233 111.294101 112.871392 111.713686 113.290977 
C 112.13327 113.710562 112.702429 113.946315 113.295812 113.946315 
z
" clip-path="url(#pa2a1ad37a8)" style="stroke: #000000"/>
    <path d="M 109.782914 90.971585 
C 110.376296 90.971585 110.945455 90.735832 111.36504 90.316247 
C 111.784625 89.896662 112.020378 89.327503 112.020378 88.734121 
C 112.020378 88.140739 111.784625 87.57158 111.36504 87.151995 
C 110.945455 86.73241 110.376296 86.496657 109.782914 86.496657 
C 109.189531 86.496657 108.620372 86.73241 108.200788 87.151995 
C 107.781203 87.57158 107.54545 88.140739 107.54545 88.734121 
C 107.54545 89.327503 107.781203 89.896662 108.200788 90.316247 
C 108.620372 90.735832 109.189531 90.971585 109.782914 90.971585 
z
" clip-path="url(#pa2a1ad37a8)" style="stroke: #000000"/>
    <path d="M 100.505583 59.905446 
C 101.098595 59.905446 101.667398 59.669839 102.086721 59.250516 
C 102.506044 58.831194 102.741651 58.26239 102.741651 57.669378 
C 102.741651 57.076366 102.506044 56.507562 102.086721 56.088239 
C 101.667398 55.668916 101.098595 55.43331 100.505583 55.43331 
C 99.91257 55.43331 99.343767 55.668916 98.924444 56.088239 
C 98.505121 56.507562 98.269515 57.076366 98.269515 57.669378 
C 98.269515 58.26239 98.505121 58.831194 98.924444 59.250516 
C 99.343767 59.669839 99.91257 59.905446 100.505583 59.905446 
z
" clip-path="url(#pa2a1ad37a8)" style="stroke: #000000"/>
    <path d="M 91.470625 47.779375 
C 91.603226 47.779375 91.730415 47.726692 91.824178 47.632929 
C 91.917942 47.539165 91.970625 47.411977 91.970625 47.279375 
C 91.970625 47.146774 91.917942 47.019585 91.824178 46.925822 
C 91.730415 46.832058 91.603226 46.779375 91.470625 46.779375 
C 91.338023 46.779375 91.210835 46.832058 91.117071 46.925822 
C 91.023308 47.019585 90.970625 47.146774 90.970625 47.279375 
C 90.970625 47.411977 91.023308 47.539165 91.117071 47.632929 
C 91.210835 47.726692 91.338023 47.779375 91.470625 47.779375 
z
" clip-path="url(#pa2a1ad37a8)" style="stroke: #000000"/>
    <path d="M 122.423578 168.268522 
C 122.902385 168.268522 123.361647 168.078289 123.700215 167.739721 
C 124.038782 167.401154 124.229015 166.941892 124.229015 166.463085 
C 124.229015 165.984278 124.038782 165.525017 123.700215 165.186449 
C 123.361647 164.847881 122.902385 164.657648 122.423578 164.657648 
C 121.944771 164.657648 121.48551 164.847881 121.146942 165.186449 
C 120.808374 165.525017 120.618141 165.984278 120.618141 166.463085 
C 120.618141 166.941892 120.808374 167.401154 121.146942 167.739721 
C 121.48551 168.078289 121.944771 168.268522 122.423578 168.268522 
z
" clip-path="url(#pa2a1ad37a8)" style="stroke: #000000"/>
    <path d="M 118.887742 146.431182 
C 119.020344 146.431182 119.147532 146.378499 119.241296 146.284735 
C 119.335059 146.190972 119.387742 146.063783 119.387742 145.931182 
C 119.387742 145.79858 119.335059 145.671392 119.241296 145.577628 
C 119.147532 145.483865 119.020344 145.431182 118.887742 145.431182 
C 118.755141 145.431182 118.627952 145.483865 118.534189 145.577628 
C 118.440425 145.671392 118.387742 145.79858 118.387742 145.931182 
C 118.387742 146.063783 118.440425 146.190972 118.534189 146.284735 
C 118.627952 146.378499 118.755141 146.431182 118.887742 146.431182 
z
" clip-path="url(#pa2a1ad37a8)" style="stroke: #000000"/>
    <path d="M 114.831705 131.055324 
C 115.425087 131.055324 115.994246 130.819571 116.413831 130.399986 
C 116.833416 129.980401 117.069169 129.411242 117.069169 128.81786 
C 117.069169 128.224478 116.833416 127.655319 116.413831 127.235734 
C 115.994246 126.816149 115.425087 126.580396 114.831705 126.580396 
C 114.238323 126.580396 113.669164 126.816149 113.249579 127.235734 
C 112.829994 127.655319 112.594241 128.224478 112.594241 128.81786 
C 112.594241 129.411242 112.829994 129.980401 113.249579 130.399986 
C 113.669164 130.819571 114.238323 131.055324 114.831705 131.055324 
z
" clip-path="url(#pa2a1ad37a8)" style="stroke: #000000"/>
    <path d="M 106.990108 125.921635 
C 107.58349 125.921635 108.152649 125.685881 108.572234 125.266296 
C 108.991819 124.846712 109.227572 124.277553 109.227572 123.68417 
C 109.227572 123.090788 108.991819 122.521629 108.572234 122.102044 
C 108.152649 121.682459 107.58349 121.446706 106.990108 121.446706 
C 106.396725 121.446706 105.827566 121.682459 105.407982 122.102044 
C 104.988397 122.521629 104.752644 123.090788 104.752644 123.68417 
C 104.752644 124.277553 104.988397 124.846712 105.407982 125.266296 
C 105.827566 125.685881 106.396725 125.921635 106.990108 125.921635 
z
" clip-path="url(#pa2a1ad37a8)" style="stroke: #000000"/>
    <path d="M 109.841248 113.553029 
C 110.373201 113.553029 110.883438 113.341681 111.259586 112.965534 
C 111.635734 112.589386 111.847081 112.079148 111.847081 111.547195 
C 111.847081 111.015242 111.635734 110.505004 111.259586 110.128856 
C 110.883438 109.752708 110.373201 109.541361 109.841248 109.541361 
C 109.309294 109.541361 108.799057 109.752708 108.422909 110.128856 
C 108.046761 110.505004 107.835414 111.015242 107.835414 111.547195 
C 107.835414 112.079148 108.046761 112.589386 108.422909 112.965534 
C 108.799057 113.341681 109.309294 113.553029 109.841248 113.553029 
z
" clip-path="url(#pa2a1ad37a8)" style="stroke: #000000"/>
    <path d="M 100.465747 104.727952 
C 101.001761 104.727952 101.515894 104.514991 101.894914 104.135971 
C 102.273933 103.756952 102.486894 103.242819 102.486894 102.706805 
C 102.486894 102.170791 102.273933 101.656658 101.894914 101.277639 
C 101.515894 100.898619 101.001761 100.685658 100.465747 100.685658 
C 99.929733 100.685658 99.4156 100.898619 99.036581 101.277639 
C 98.657561 101.656658 98.4446 102.170791 98.4446 102.706805 
C 98.4446 103.242819 98.657561 103.756952 99.036581 104.135971 
C 99.4156 104.514991 99.929733 104.727952 100.465747 104.727952 
z
" clip-path="url(#pa2a1ad37a8)" style="stroke: #000000"/>
    <path d="M 95.960647 90.091678 
C 96.553659 90.091678 97.122462 89.856072 97.541785 89.436749 
C 97.961108 89.017426 98.196715 88.448622 98.196715 87.85561 
C 98.196715 87.262598 97.961108 86.693794 97.541785 86.274471 
C 97.122462 85.855148 96.553659 85.619542 95.960647 85.619542 
C 95.367634 85.619542 94.798831 85.855148 94.379508 86.274471 
C 93.960185 86.693794 93.724579 87.262598 93.724579 87.85561 
C 93.724579 88.448622 93.960185 89.017426 94.379508 89.436749 
C 94.798831 89.856072 95.367634 90.091678 95.960647 90.091678 
z
" clip-path="url(#pa2a1ad37a8)" style="stroke: #000000"/>
    <path d="M 94.670645 89.613337 
C 95.17722 89.613337 95.663115 89.412073 96.021317 89.05387 
C 96.37952 88.695668 96.580784 88.209773 96.580784 87.703198 
C 96.580784 87.196624 96.37952 86.710729 96.021317 86.352526 
C 95.663115 85.994324 95.17722 85.79306 94.670645 85.79306 
C 94.16407 85.79306 93.678175 85.994324 93.319973 86.352526 
C 92.961771 86.710729 92.760506 87.196624 92.760506 87.703198 
C 92.760506 88.209773 92.961771 88.695668 93.319973 89.05387 
C 93.678175 89.412073 94.16407 89.613337 94.670645 89.613337 
z
" clip-path="url(#pa2a1ad37a8)" style="stroke: #000000"/>
    <path d="M 86.272393 74.687534 
C 86.865775 74.687534 87.434934 74.451781 87.854519 74.032196 
C 88.274103 73.612612 88.509857 73.043453 88.509857 72.45007 
C 88.509857 71.856688 88.274103 71.287529 87.854519 70.867944 
C 87.434934 70.448359 86.865775 70.212606 86.272393 70.212606 
C 85.67901 70.212606 85.109851 70.448359 84.690266 70.867944 
C 84.270682 71.287529 84.034928 71.856688 84.034928 72.45007 
C 84.034928 73.043453 84.270682 73.612612 84.690266 74.032196 
C 85.109851 74.451781 85.67901 74.687534 86.272393 74.687534 
z
" clip-path="url(#pa2a1ad37a8)" style="stroke: #000000"/>
    <path d="M 82.612611 62.243629 
C 82.745213 62.243629 82.872401 62.190946 82.966164 62.097182 
C 83.059928 62.003419 83.112611 61.876231 83.112611 61.743629 
C 83.112611 61.611027 83.059928 61.483839 82.966164 61.390076 
C 82.872401 61.296312 82.745213 61.243629 82.612611 61.243629 
C 82.480009 61.243629 82.352821 61.296312 82.259058 61.390076 
C 82.165294 61.483839 82.112611 61.611027 82.112611 61.743629 
C 82.112611 61.876231 82.165294 62.003419 82.259058 62.097182 
C 82.352821 62.190946 82.480009 62.243629 82.612611 62.243629 
z
" clip-path="url(#pa2a1ad37a8)" style="stroke: #000000"/>
    <path d="M 82.561196 54.501377 
C 83.154208 54.501377 83.723012 54.265771 84.142335 53.846448 
C 84.561658 53.427125 84.797264 52.858321 84.797264 52.265309 
C 84.797264 51.672297 84.561658 51.103493 84.142335 50.68417 
C 83.723012 50.264847 83.154208 50.029241 82.561196 50.029241 
C 81.968184 50.029241 81.39938 50.264847 80.980057 50.68417 
C 80.560734 51.103493 80.325128 51.672297 80.325128 52.265309 
C 80.325128 52.858321 80.560734 53.427125 80.980057 53.846448 
C 81.39938 54.265771 81.968184 54.501377 82.561196 54.501377 
z
" clip-path="url(#pa2a1ad37a8)" style="stroke: #000000"/>
    <path d="M 103.408822 148.07156 
C 104.001834 148.07156 104.570638 147.835954 104.989961 147.416631 
C 105.409284 146.997308 105.64489 146.428504 105.64489 145.835492 
C 105.64489 145.24248 105.409284 144.673676 104.989961 144.254353 
C 104.570638 143.83503 104.001834 143.599424 103.408822 143.599424 
C 102.81581 143.599424 102.247006 143.83503 101.827683 144.254353 
C 101.40836 144.673676 101.172754 145.24248 101.172754 145.835492 
C 101.172754 146.428504 101.40836 146.997308 101.827683 147.416631 
C 102.247006 147.835954 102.81581 148.07156 103.408822 148.07156 
z
" clip-path="url(#pa2a1ad37a8)" style="stroke: #000000"/>
    <path d="M 97.046819 137.035829 
C 97.639831 137.035829 98.208635 136.800223 98.627958 136.3809 
C 99.047281 135.961577 99.282887 135.392774 99.282887 134.799761 
C 99.282887 134.206749 99.047281 133.637945 98.627958 133.218623 
C 98.208635 132.7993 97.639831 132.563693 97.046819 132.563693 
C 96.453807 132.563693 95.885003 132.7993 95.46568 133.218623 
C 95.046357 133.637945 94.810751 134.206749 94.810751 134.799761 
C 94.810751 135.392774 95.046357 135.961577 95.46568 136.3809 
C 95.885003 136.800223 96.453807 137.035829 97.046819 137.035829 
z
" clip-path="url(#pa2a1ad37a8)" style="stroke: #000000"/>
    <path d="M 92.072125 120.068889 
C 92.665137 120.068889 93.233941 119.833283 93.653264 119.41396 
C 94.072587 118.994637 94.308193 118.425834 94.308193 117.832821 
C 94.308193 117.239809 94.072587 116.671005 93.653264 116.251683 
C 93.233941 115.83236 92.665137 115.596753 92.072125 115.596753 
C 91.479113 115.596753 90.910309 115.83236 90.490986 116.251683 
C 90.071663 116.671005 89.836057 117.239809 89.836057 117.832821 
C 89.836057 118.425834 90.071663 118.994637 90.490986 119.41396 
C 90.910309 119.833283 91.479113 120.068889 92.072125 120.068889 
z
" clip-path="url(#pa2a1ad37a8)" style="stroke: #000000"/>
    <path d="M 92.008432 109.038236 
C 92.601814 109.038236 93.170973 108.802483 93.590558 108.382898 
C 94.010142 107.963314 94.245896 107.394155 94.245896 106.800772 
C 94.245896 106.20739 94.010142 105.638231 93.590558 105.218646 
C 93.170973 104.799061 92.601814 104.563308 92.008432 104.563308 
C 91.415049 104.563308 90.84589 104.799061 90.426305 105.218646 
C 90.006721 105.638231 89.770967 106.20739 89.770967 106.800772 
C 89.770967 107.394155 90.006721 107.963314 90.426305 108.382898 
C 90.84589 108.802483 91.415049 109.038236 92.008432 109.038236 
z
" clip-path="url(#pa2a1ad37a8)" style="stroke: #000000"/>
    <path d="M 83.414151 97.392884 
C 84.007164 97.392884 84.575967 97.157277 84.99529 96.737954 
C 85.414613 96.318631 85.650219 95.749828 85.650219 95.156816 
C 85.650219 94.563803 85.414613 93.995 84.99529 93.575677 
C 84.575967 93.156354 84.007164 92.920748 83.414151 92.920748 
C 82.821139 92.920748 82.252335 93.156354 81.833013 93.575677 
C 81.41369 93.995 81.178083 94.563803 81.178083 95.156816 
C 81.178083 95.749828 81.41369 96.318631 81.833013 96.737954 
C 82.252335 97.157277 82.821139 97.392884 83.414151 97.392884 
z
" clip-path="url(#pa2a1ad37a8)" style="stroke: #000000"/>
    <path d="M 80.463576 83.713388 
C 81.056959 83.713388 81.626118 83.477635 82.045703 83.05805 
C 82.465287 82.638466 82.701041 82.069307 82.701041 81.475924 
C 82.701041 80.882542 82.465287 80.313383 82.045703 79.893798 
C 81.626118 79.474213 81.056959 79.23846 80.463576 79.23846 
C 79.870194 79.23846 79.301035 79.474213 78.88145 79.893798 
C 78.461866 80.313383 78.226112 80.882542 78.226112 81.475924 
C 78.226112 82.069307 78.461866 82.638466 78.88145 83.05805 
C 79.301035 83.477635 79.870194 83.713388 80.463576 83.713388 
z
" clip-path="url(#pa2a1ad37a8)" style="stroke: #000000"/>
    <path d="M 76.291298 78.256206 
C 76.821185 78.256206 77.329441 78.04568 77.704128 77.670993 
C 78.078815 77.296306 78.289342 76.78805 78.289342 76.258162 
C 78.289342 75.728275 78.078815 75.220019 77.704128 74.845332 
C 77.329441 74.470645 76.821185 74.260118 76.291298 74.260118 
C 75.76141 74.260118 75.253154 74.470645 74.878467 74.845332 
C 74.50378 75.220019 74.293254 75.728275 74.293254 76.258162 
C 74.293254 76.78805 74.50378 77.296306 74.878467 77.670993 
C 75.253154 78.04568 75.76141 78.256206 76.291298 78.256206 
z
" clip-path="url(#pa2a1ad37a8)" style="stroke: #000000"/>
    <path d="M 75.855517 65.426204 
C 76.448529 65.426204 77.017333 65.190598 77.436656 64.771275 
C 77.855979 64.351952 78.091585 63.783148 78.091585 63.190136 
C 78.091585 62.597124 77.855979 62.02832 77.436656 61.608997 
C 77.017333 61.189674 76.448529 60.954068 75.855517 60.954068 
C 75.262505 60.954068 74.693701 61.189674 74.274378 61.608997 
C 73.855055 62.02832 73.619449 62.597124 73.619449 63.190136 
C 73.619449 63.783148 73.855055 64.351952 74.274378 64.771275 
C 74.693701 65.190598 75.262505 65.426204 75.855517 65.426204 
z
" clip-path="url(#pa2a1ad37a8)" style="stroke: #000000"/>
    <path d="M 70.000084 43.30763 
C 70.593096 43.30763 71.1619 43.072024 71.581222 42.652701 
C 72.000545 42.233378 72.236152 41.664574 72.236152 41.071562 
C 72.236152 40.47855 72.000545 39.909746 71.581222 39.490423 
C 71.1619 39.0711 70.593096 38.835494 70.000084 38.835494 
C 69.407071 38.835494 68.838268 39.0711 68.418945 39.490423 
C 67.999622 39.909746 67.764016 40.47855 67.764016 41.071562 
C 67.764016 41.664574 67.999622 42.233378 68.418945 42.652701 
C 68.838268 43.072024 69.407071 43.30763 70.000084 43.30763 
z
" clip-path="url(#pa2a1ad37a8)" style="stroke: #000000"/>
    <path d="M 97.421602 173.78045 
C 98.014614 173.78045 98.583418 173.544844 99.002741 173.125521 
C 99.422064 172.706198 99.65767 172.137394 99.65767 171.544382 
C 99.65767 170.95137 99.422064 170.382566 99.002741 169.963243 
C 98.583418 169.54392 98.014614 169.308314 97.421602 169.308314 
C 96.82859 169.308314 96.259786 169.54392 95.840463 169.963243 
C 95.42114 170.382566 95.185534 170.95137 95.185534 171.544382 
C 95.185534 172.137394 95.42114 172.706198 95.840463 173.125521 
C 96.259786 173.544844 96.82859 173.78045 97.421602 173.78045 
z
" clip-path="url(#pa2a1ad37a8)" style="stroke: #000000"/>
    <path d="M 93.559608 150.171353 
C 94.150009 150.171353 94.716307 149.936784 95.133784 149.519308 
C 95.55126 149.101832 95.785828 148.535533 95.785828 147.945133 
C 95.785828 147.354732 95.55126 146.788433 95.133784 146.370957 
C 94.716307 145.953481 94.150009 145.718912 93.559608 145.718912 
C 92.969208 145.718912 92.402909 145.953481 91.985433 146.370957 
C 91.567956 146.788433 91.333388 147.354732 91.333388 147.945133 
C 91.333388 148.535533 91.567956 149.101832 91.985433 149.519308 
C 92.402909 149.936784 92.969208 150.171353 93.559608 150.171353 
z
" clip-path="url(#pa2a1ad37a8)" style="stroke: #000000"/>
    <path d="M 86.90527 132.017971 
C 87.47758 132.017971 88.026526 131.79059 88.43121 131.385906 
C 88.835894 130.981222 89.063275 130.432276 89.063275 129.859966 
C 89.063275 129.287657 88.835894 128.73871 88.43121 128.334026 
C 88.026526 127.929343 87.47758 127.701962 86.90527 127.701962 
C 86.332961 127.701962 85.784015 127.929343 85.379331 128.334026 
C 84.974647 128.73871 84.747266 129.287657 84.747266 129.859966 
C 84.747266 130.432276 84.974647 130.981222 85.379331 131.385906 
C 85.784015 131.79059 86.332961 132.017971 86.90527 132.017971 
z
" clip-path="url(#pa2a1ad37a8)" style="stroke: #000000"/>
    <path d="M 85.722434 124.149359 
C 86.315816 124.149359 86.884975 123.913605 87.30456 123.494021 
C 87.724145 123.074436 87.959898 122.505277 87.959898 121.911894 
C 87.959898 121.318512 87.724145 120.749353 87.30456 120.329768 
C 86.884975 119.910184 86.315816 119.67443 85.722434 119.67443 
C 85.129051 119.67443 84.559893 119.910184 84.140308 120.329768 
C 83.720723 120.749353 83.48497 121.318512 83.48497 121.911894 
C 83.48497 122.505277 83.720723 123.074436 84.140308 123.494021 
C 84.559893 123.913605 85.129051 124.149359 85.722434 124.149359 
z
" clip-path="url(#pa2a1ad37a8)" style="stroke: #000000"/>
    <path d="M 83.862072 110.595871 
C 84.455454 110.595871 85.024613 110.360117 85.444198 109.940533 
C 85.863783 109.520948 86.099536 108.951789 86.099536 108.358406 
C 86.099536 107.765024 85.863783 107.195865 85.444198 106.77628 
C 85.024613 106.356696 84.455454 106.120942 83.862072 106.120942 
C 83.268689 106.120942 82.69953 106.356696 82.279946 106.77628 
C 81.860361 107.195865 81.624608 107.765024 81.624608 108.358406 
C 81.624608 108.951789 81.860361 109.520948 82.279946 109.940533 
C 82.69953 110.360117 83.268689 110.595871 83.862072 110.595871 
z
" clip-path="url(#pa2a1ad37a8)" style="stroke: #000000"/>
    <path d="M 78.262651 101.407809 
C 78.855663 101.407809 79.424466 101.172203 79.843789 100.75288 
C 80.263112 100.333557 80.498718 99.764753 80.498718 99.171741 
C 80.498718 98.578729 80.263112 98.009925 79.843789 97.590602 
C 79.424466 97.17128 78.855663 96.935673 78.262651 96.935673 
C 77.669638 96.935673 77.100835 97.17128 76.681512 97.590602 
C 76.262189 98.009925 76.026583 98.578729 76.026583 99.171741 
C 76.026583 99.764753 76.262189 100.333557 76.681512 100.75288 
C 77.100835 101.172203 77.669638 101.407809 78.262651 101.407809 
z
" clip-path="url(#pa2a1ad37a8)" style="stroke: #000000"/>
    <path d="M 65.227287 92.834443 
C 65.820669 92.834443 66.389828 92.598689 66.809413 92.179105 
C 67.228998 91.75952 67.464751 91.190361 67.464751 90.596979 
C 67.464751 90.003596 67.228998 89.434437 66.809413 89.014852 
C 66.389828 88.595268 65.820669 88.359514 65.227287 88.359514 
C 64.633904 88.359514 64.064745 88.595268 63.645161 89.014852 
C 63.225576 89.434437 62.989823 90.003596 62.989823 90.596979 
C 62.989823 91.190361 63.225576 91.75952 63.645161 92.179105 
C 64.064745 92.598689 64.633904 92.834443 65.227287 92.834443 
z
" clip-path="url(#pa2a1ad37a8)" style="stroke: #000000"/>
    <path d="M 72.65288 81.395896 
C 73.246262 81.395896 73.815421 81.160143 74.235006 80.740558 
C 74.65459 80.320974 74.890344 79.751815 74.890344 79.158432 
C 74.890344 78.56505 74.65459 77.995891 74.235006 77.576306 
C 73.815421 77.156721 73.246262 76.920968 72.65288 76.920968 
C 72.059497 76.920968 71.490338 77.156721 71.070753 77.576306 
C 70.651169 77.995891 70.415415 78.56505 70.415415 79.158432 
C 70.415415 79.751815 70.651169 80.320974 71.070753 80.740558 
C 71.490338 81.160143 72.059497 81.395896 72.65288 81.395896 
z
" clip-path="url(#pa2a1ad37a8)" style="stroke: #000000"/>
    <path d="M 62.421411 72.025421 
C 63.014793 72.025421 63.583952 71.789668 64.003537 71.370083 
C 64.423122 70.950498 64.658875 70.381339 64.658875 69.787957 
C 64.658875 69.194574 64.423122 68.625415 64.003537 68.205831 
C 63.583952 67.786246 63.014793 67.550492 62.421411 67.550492 
C 61.828028 67.550492 61.258869 67.786246 60.839285 68.205831 
C 60.4197 68.625415 60.183947 69.194574 60.183947 69.787957 
C 60.183947 70.381339 60.4197 70.950498 60.839285 71.370083 
C 61.258869 71.789668 61.828028 72.025421 62.421411 72.025421 
z
" clip-path="url(#pa2a1ad37a8)" style="stroke: #000000"/>
    <path d="M 64.140654 60.514661 
C 64.733666 60.514661 65.30247 60.279055 65.721793 59.859732 
C 66.141115 59.440409 66.376722 58.871605 66.376722 58.278593 
C 66.376722 57.685581 66.141115 57.116777 65.721793 56.697454 
C 65.30247 56.278131 64.733666 56.042525 64.140654 56.042525 
C 63.547642 56.042525 62.978838 56.278131 62.559515 56.697454 
C 62.140192 57.116777 61.904586 57.685581 61.904586 58.278593 
C 61.904586 58.871605 62.140192 59.440409 62.559515 59.859732 
C 62.978838 60.279055 63.547642 60.514661 64.140654 60.514661 
z
" clip-path="url(#pa2a1ad37a8)" style="stroke: #000000"/>
    <path d="M 61.431365 48.373876 
C 62.024377 48.373876 62.593181 48.13827 63.012504 47.718947 
C 63.431827 47.299624 63.667433 46.73082 63.667433 46.137808 
C 63.667433 45.544796 63.431827 44.975992 63.012504 44.556669 
C 62.593181 44.137346 62.024377 43.90174 61.431365 43.90174 
C 60.838353 43.90174 60.269549 44.137346 59.850226 44.556669 
C 59.430903 44.975992 59.195297 45.544796 59.195297 46.137808 
C 59.195297 46.73082 59.430903 47.299624 59.850226 47.718947 
C 60.269549 48.13827 60.838353 48.373876 61.431365 48.373876 
z
" clip-path="url(#pa2a1ad37a8)" style="stroke: #000000"/>
    <path d="M 52.481593 37.071937 
C 52.614194 37.071937 52.741383 37.019253 52.835146 36.92549 
C 52.92891 36.831726 52.981593 36.704538 52.981593 36.571937 
C 52.981593 36.439335 52.92891 36.312147 52.835146 36.218383 
C 52.741383 36.12462 52.614194 36.071937 52.481593 36.071937 
C 52.348991 36.071937 52.221803 36.12462 52.128039 36.218383 
C 52.034276 36.312147 51.981593 36.439335 51.981593 36.571937 
C 51.981593 36.704538 52.034276 36.831726 52.128039 36.92549 
C 52.221803 37.019253 52.348991 37.071937 52.481593 37.071937 
z
" clip-path="url(#pa2a1ad37a8)" style="stroke: #000000"/>
    <path d="M 88.608875 168.239665 
C 89.169273 168.239665 89.706794 168.017017 90.103055 167.620756 
C 90.499316 167.224495 90.721964 166.686974 90.721964 166.126576 
C 90.721964 165.566179 90.499316 165.028658 90.103055 164.632397 
C 89.706794 164.236136 89.169273 164.013488 88.608875 164.013488 
C 88.048478 164.013488 87.510957 164.236136 87.114696 164.632397 
C 86.718435 165.028658 86.495787 165.566179 86.495787 166.126576 
C 86.495787 166.686974 86.718435 167.224495 87.114696 167.620756 
C 87.510957 168.017017 88.048478 168.239665 88.608875 168.239665 
z
" clip-path="url(#pa2a1ad37a8)" style="stroke: #000000"/>
    <path d="M 82.992186 155.58678 
C 83.585198 155.58678 84.154002 155.351174 84.573325 154.931851 
C 84.992647 154.512528 85.228254 153.943725 85.228254 153.350712 
C 85.228254 152.7577 84.992647 152.188897 84.573325 151.769574 
C 84.154002 151.350251 83.585198 151.114645 82.992186 151.114645 
C 82.399174 151.114645 81.83037 151.350251 81.411047 151.769574 
C 80.991724 152.188897 80.756118 152.7577 80.756118 153.350712 
C 80.756118 153.943725 80.991724 154.512528 81.411047 154.931851 
C 81.83037 155.351174 82.399174 155.58678 82.992186 155.58678 
z
" clip-path="url(#pa2a1ad37a8)" style="stroke: #000000"/>
    <path d="M 79.137377 149.071725 
C 79.730389 149.071725 80.299192 148.836119 80.718515 148.416796 
C 81.137838 147.997473 81.373445 147.428669 81.373445 146.835657 
C 81.373445 146.242645 81.137838 145.673841 80.718515 145.254518 
C 80.299192 144.835195 79.730389 144.599589 79.137377 144.599589 
C 78.544364 144.599589 77.975561 144.835195 77.556238 145.254518 
C 77.136915 145.673841 76.901309 146.242645 76.901309 146.835657 
C 76.901309 147.428669 77.136915 147.997473 77.556238 148.416796 
C 77.975561 148.836119 78.544364 149.071725 79.137377 149.071725 
z
" clip-path="url(#pa2a1ad37a8)" style="stroke: #000000"/>
    <path d="M 73.331917 136.534833 
C 73.9253 136.534833 74.494459 136.29908 74.914043 135.879495 
C 75.333628 135.45991 75.569382 134.890751 75.569382 134.297369 
C 75.569382 133.703987 75.333628 133.134828 74.914043 132.715243 
C 74.494459 132.295658 73.9253 132.059905 73.331917 132.059905 
C 72.738535 132.059905 72.169376 132.295658 71.749791 132.715243 
C 71.330206 133.134828 71.094453 133.703987 71.094453 134.297369 
C 71.094453 134.890751 71.330206 135.45991 71.749791 135.879495 
C 72.169376 136.29908 72.738535 136.534833 73.331917 136.534833 
z
" clip-path="url(#pa2a1ad37a8)" style="stroke: #000000"/>
    <path d="M 71.571647 124.066619 
C 72.16503 124.066619 72.734189 123.830865 73.153773 123.411281 
C 73.573358 122.991696 73.809111 122.422537 73.809111 121.829154 
C 73.809111 121.235772 73.573358 120.666613 73.153773 120.247028 
C 72.734189 119.827444 72.16503 119.59169 71.571647 119.59169 
C 70.978265 119.59169 70.409106 119.827444 69.989521 120.247028 
C 69.569936 120.666613 69.334183 121.235772 69.334183 121.829154 
C 69.334183 122.422537 69.569936 122.991696 69.989521 123.411281 
C 70.409106 123.830865 70.978265 124.066619 71.571647 124.066619 
z
" clip-path="url(#pa2a1ad37a8)" style="stroke: #000000"/>
    <path d="M 70.555405 114.006067 
C 71.071236 114.006067 71.56601 113.801125 71.930757 113.436377 
C 72.295505 113.071629 72.500447 112.576856 72.500447 112.061025 
C 72.500447 111.545194 72.295505 111.050421 71.930757 110.685673 
C 71.56601 110.320925 71.071236 110.115983 70.555405 110.115983 
C 70.039574 110.115983 69.544801 110.320925 69.180053 110.685673 
C 68.815306 111.050421 68.610364 111.545194 68.610364 112.061025 
C 68.610364 112.576856 68.815306 113.071629 69.180053 113.436377 
C 69.544801 113.801125 70.039574 114.006067 70.555405 114.006067 
z
" clip-path="url(#pa2a1ad37a8)" style="stroke: #000000"/>
    <path d="M 67.160546 105.61502 
C 67.753929 105.61502 68.323088 105.379266 68.742672 104.959682 
C 69.162257 104.540097 69.398011 103.970938 69.398011 103.377556 
C 69.398011 102.784173 69.162257 102.215014 68.742672 101.795429 
C 68.323088 101.375845 67.753929 101.140091 67.160546 101.140091 
C 66.567164 101.140091 65.998005 101.375845 65.57842 101.795429 
C 65.158835 102.215014 64.923082 102.784173 64.923082 103.377556 
C 64.923082 103.970938 65.158835 104.540097 65.57842 104.959682 
C 65.998005 105.379266 66.567164 105.61502 67.160546 105.61502 
z
" clip-path="url(#pa2a1ad37a8)" style="stroke: #000000"/>
    <path d="M 60.557264 96.911594 
C 61.098716 96.911594 61.618064 96.696473 62.000928 96.313609 
C 62.383792 95.930745 62.598913 95.411397 62.598913 94.869945 
C 62.598913 94.328493 62.383792 93.809145 62.000928 93.426281 
C 61.618064 93.043416 61.098716 92.828295 60.557264 92.828295 
C 60.015812 92.828295 59.496464 93.043416 59.113599 93.426281 
C 58.730735 93.809145 58.515614 94.328493 58.515614 94.869945 
C 58.515614 95.411397 58.730735 95.930745 59.113599 96.313609 
C 59.496464 96.696473 60.015812 96.911594 60.557264 96.911594 
z
" clip-path="url(#pa2a1ad37a8)" style="stroke: #000000"/>
    <path d="M 58.408863 84.918645 
C 58.541465 84.918645 58.668653 84.865962 58.762417 84.772198 
C 58.85618 84.678435 58.908863 84.551246 58.908863 84.418645 
C 58.908863 84.286043 58.85618 84.158855 58.762417 84.065092 
C 58.668653 83.971328 58.541465 83.918645 58.408863 83.918645 
C 58.276262 83.918645 58.149073 83.971328 58.05531 84.065092 
C 57.961546 84.158855 57.908863 84.286043 57.908863 84.418645 
C 57.908863 84.551246 57.961546 84.678435 58.05531 84.772198 
C 58.149073 84.865962 58.276262 84.918645 58.408863 84.918645 
z
" clip-path="url(#pa2a1ad37a8)" style="stroke: #000000"/>
    <path d="M 53.523285 75.179683 
C 54.116668 75.179683 54.685827 74.94393 55.105412 74.524345 
C 55.524996 74.10476 55.76075 73.535601 55.76075 72.942219 
C 55.76075 72.348836 55.524996 71.779677 55.105412 71.360093 
C 54.685827 70.940508 54.116668 70.704755 53.523285 70.704755 
C 52.929903 70.704755 52.360744 70.940508 51.941159 71.360093 
C 51.521575 71.779677 51.285821 72.348836 51.285821 72.942219 
C 51.285821 73.535601 51.521575 74.10476 51.941159 74.524345 
C 52.360744 74.94393 52.929903 75.179683 53.523285 75.179683 
z
" clip-path="url(#pa2a1ad37a8)" style="stroke: #000000"/>
    <path d="M 48.929949 66.785637 
C 49.522961 66.785637 50.091765 66.550031 50.511087 66.130708 
C 50.93041 65.711385 51.166017 65.142582 51.166017 64.549569 
C 51.166017 63.956557 50.93041 63.387753 50.511087 62.968431 
C 50.091765 62.549108 49.522961 62.313501 48.929949 62.313501 
C 48.336936 62.313501 47.768133 62.549108 47.34881 62.968431 
C 46.929487 63.387753 46.693881 63.956557 46.693881 64.549569 
C 46.693881 65.142582 46.929487 65.711385 47.34881 66.130708 
C 47.768133 66.550031 48.336936 66.785637 48.929949 66.785637 
z
" clip-path="url(#pa2a1ad37a8)" style="stroke: #000000"/>
    <path d="M 48.275672 53.790483 
C 48.786359 53.790483 49.276198 53.587585 49.637307 53.226475 
C 49.998417 52.865365 50.201315 52.375527 50.201315 51.86484 
C 50.201315 51.354154 49.998417 50.864315 49.637307 50.503205 
C 49.276198 50.142096 48.786359 49.939198 48.275672 49.939198 
C 47.764986 49.939198 47.275147 50.142096 46.914038 50.503205 
C 46.552928 50.864315 46.35003 51.354154 46.35003 51.86484 
C 46.35003 52.375527 46.552928 52.865365 46.914038 53.226475 
C 47.275147 53.587585 47.764986 53.790483 48.275672 53.790483 
z
" clip-path="url(#pa2a1ad37a8)" style="stroke: #000000"/>
    <path d="M 46.011047 42.07164 
C 46.143649 42.07164 46.270837 42.018957 46.364601 41.925193 
C 46.458364 41.83143 46.511047 41.704241 46.511047 41.57164 
C 46.511047 41.439038 46.458364 41.31185 46.364601 41.218086 
C 46.270837 41.124323 46.143649 41.07164 46.011047 41.07164 
C 45.878446 41.07164 45.751257 41.124323 45.657494 41.218086 
C 45.56373 41.31185 45.511047 41.439038 45.511047 41.57164 
C 45.511047 41.704241 45.56373 41.83143 45.657494 41.925193 
C 45.751257 42.018957 45.878446 42.07164 46.011047 42.07164 
z
" clip-path="url(#pa2a1ad37a8)" style="stroke: #000000"/>
    <path d="M 78.655601 173.221786 
C 79.248613 173.221786 79.817417 172.98618 80.23674 172.566857 
C 80.656063 172.147534 80.891669 171.57873 80.891669 170.985718 
C 80.891669 170.392706 80.656063 169.823902 80.23674 169.404579 
C 79.817417 168.985256 79.248613 168.74965 78.655601 168.74965 
C 78.062589 168.74965 77.493785 168.985256 77.074462 169.404579 
C 76.655139 169.823902 76.419533 170.392706 76.419533 170.985718 
C 76.419533 171.57873 76.655139 172.147534 77.074462 172.566857 
C 77.493785 172.98618 78.062589 173.221786 78.655601 173.221786 
z
" clip-path="url(#pa2a1ad37a8)" style="stroke: #000000"/>
    <path d="M 72.325264 148.974504 
C 72.918276 148.974504 73.48708 148.738898 73.906403 148.319575 
C 74.325726 147.900252 74.561332 147.331448 74.561332 146.738436 
C 74.561332 146.145424 74.325726 145.57662 73.906403 145.157297 
C 73.48708 144.737974 72.918276 144.502368 72.325264 144.502368 
C 71.732252 144.502368 71.163448 144.737974 70.744125 145.157297 
C 70.324802 145.57662 70.089196 146.145424 70.089196 146.738436 
C 70.089196 147.331448 70.324802 147.900252 70.744125 148.319575 
C 71.163448 148.738898 71.732252 148.974504 72.325264 148.974504 
z
" clip-path="url(#pa2a1ad37a8)" style="stroke: #000000"/>
    <path d="M 63.227525 137.396338 
C 63.763036 137.396338 64.276687 137.183577 64.655351 136.804913 
C 65.034015 136.426249 65.246776 135.912598 65.246776 135.377086 
C 65.246776 134.841575 65.034015 134.327924 64.655351 133.94926 
C 64.276687 133.570596 63.763036 133.357835 63.227525 133.357835 
C 62.692013 133.357835 62.178362 133.570596 61.799698 133.94926 
C 61.421034 134.327924 61.208273 134.841575 61.208273 135.377086 
C 61.208273 135.912598 61.421034 136.426249 61.799698 136.804913 
C 62.178362 137.183577 62.692013 137.396338 63.227525 137.396338 
z
" clip-path="url(#pa2a1ad37a8)" style="stroke: #000000"/>
    <path d="M 57.466778 115.529424 
C 57.59938 115.529424 57.726568 115.476741 57.820331 115.382977 
C 57.914095 115.289214 57.966778 115.162025 57.966778 115.029424 
C 57.966778 114.896822 57.914095 114.769634 57.820331 114.675871 
C 57.726568 114.582107 57.59938 114.529424 57.466778 114.529424 
C 57.334177 114.529424 57.206988 114.582107 57.113225 114.675871 
C 57.019461 114.769634 56.966778 114.896822 56.966778 115.029424 
C 56.966778 115.162025 57.019461 115.289214 57.113225 115.382977 
C 57.206988 115.476741 57.334177 115.529424 57.466778 115.529424 
z
" clip-path="url(#pa2a1ad37a8)" style="stroke: #000000"/>
    <path d="M 53.605723 107.797513 
C 54.199106 107.797513 54.768265 107.561759 55.18785 107.142174 
C 55.607434 106.72259 55.843188 106.153431 55.843188 105.560048 
C 55.843188 104.966666 55.607434 104.397507 55.18785 103.977922 
C 54.768265 103.558337 54.199106 103.322584 53.605723 103.322584 
C 53.012341 103.322584 52.443182 103.558337 52.023597 103.977922 
C 51.604013 104.397507 51.368259 104.966666 51.368259 105.560048 
C 51.368259 106.153431 51.604013 106.72259 52.023597 107.142174 
C 52.443182 107.561759 53.012341 107.797513 53.605723 107.797513 
z
" clip-path="url(#pa2a1ad37a8)" style="stroke: #000000"/>
    <path d="M 52.660323 96.498269 
C 53.253705 96.498269 53.822864 96.262516 54.242449 95.842931 
C 54.662034 95.423346 54.897787 94.854188 54.897787 94.260805 
C 54.897787 93.667423 54.662034 93.098264 54.242449 92.678679 
C 53.822864 92.259094 53.253705 92.023341 52.660323 92.023341 
C 52.06694 92.023341 51.497781 92.259094 51.078197 92.678679 
C 50.658612 93.098264 50.422859 93.667423 50.422859 94.260805 
C 50.422859 94.854188 50.658612 95.423346 51.078197 95.842931 
C 51.497781 96.262516 52.06694 96.498269 52.660323 96.498269 
z
" clip-path="url(#pa2a1ad37a8)" style="stroke: #000000"/>
    <path d="M 46.982268 86.743189 
C 47.376337 86.743189 47.754319 86.586624 48.032968 86.307975 
C 48.311617 86.029326 48.468182 85.651344 48.468182 85.257275 
C 48.468182 84.863206 48.311617 84.485224 48.032968 84.206576 
C 47.754319 83.927927 47.376337 83.771361 46.982268 83.771361 
C 46.588199 83.771361 46.210217 83.927927 45.931568 84.206576 
C 45.65292 84.485224 45.496354 84.863206 45.496354 85.257275 
C 45.496354 85.651344 45.65292 86.029326 45.931568 86.307975 
C 46.210217 86.586624 46.588199 86.743189 46.982268 86.743189 
z
" clip-path="url(#pa2a1ad37a8)" style="stroke: #000000"/>
    <path d="M 40.92 78.822197 
C 41.513012 78.822197 42.081816 78.58659 42.501139 78.167267 
C 42.920462 77.747944 43.156068 77.179141 43.156068 76.586129 
C 43.156068 75.993116 42.920462 75.424313 42.501139 75.00499 
C 42.081816 74.585667 41.513012 74.350061 40.92 74.350061 
C 40.326988 74.350061 39.758184 74.585667 39.338861 75.00499 
C 38.919538 75.424313 38.683932 75.993116 38.683932 76.586129 
C 38.683932 77.179141 38.919538 77.747944 39.338861 78.167267 
C 39.758184 78.58659 40.326988 78.822197 40.92 78.822197 
z
" clip-path="url(#pa2a1ad37a8)" style="stroke: #000000"/>
    <path d="M 39.439603 65.453633 
C 39.981541 65.453633 40.501356 65.238319 40.884564 64.855111 
C 41.267772 64.471903 41.483086 63.952088 41.483086 63.41015 
C 41.483086 62.868212 41.267772 62.348397 40.884564 61.965189 
C 40.501356 61.581981 39.981541 61.366667 39.439603 61.366667 
C 38.897665 61.366667 38.37785 61.581981 37.994642 61.965189 
C 37.611434 62.348397 37.39612 62.868212 37.39612 63.41015 
C 37.39612 63.952088 37.611434 64.471903 37.994642 64.855111 
C 38.37785 65.238319 38.897665 65.453633 39.439603 65.453633 
z
" clip-path="url(#pa2a1ad37a8)" style="stroke: #000000"/>
    <path d="M 69.114602 173.079536 
C 69.61264 173.079536 70.090346 172.881664 70.442511 172.529498 
C 70.794677 172.177333 70.992549 171.699627 70.992549 171.20159 
C 70.992549 170.703552 70.794677 170.225846 70.442511 169.873681 
C 70.090346 169.521515 69.61264 169.323643 69.114602 169.323643 
C 68.616565 169.323643 68.138859 169.521515 67.786693 169.873681 
C 67.434528 170.225846 67.236655 170.703552 67.236655 171.20159 
C 67.236655 171.699627 67.434528 172.177333 67.786693 172.529498 
C 68.138859 172.881664 68.616565 173.079536 69.114602 173.079536 
z
" clip-path="url(#pa2a1ad37a8)" style="stroke: #000000"/>
    <path d="M 60.551234 162.219615 
C 61.144246 162.219615 61.71305 161.984008 62.132373 161.564685 
C 62.551696 161.145362 62.787302 160.576559 62.787302 159.983547 
C 62.787302 159.390534 62.551696 158.821731 62.132373 158.402408 
C 61.71305 157.983085 61.144246 157.747479 60.551234 157.747479 
C 59.958222 157.747479 59.389418 157.983085 58.970095 158.402408 
C 58.550772 158.821731 58.315166 159.390534 58.315166 159.983547 
C 58.315166 160.576559 58.550772 161.145362 58.970095 161.564685 
C 59.389418 161.984008 59.958222 162.219615 60.551234 162.219615 
z
" clip-path="url(#pa2a1ad37a8)" style="stroke: #000000"/>
    <path d="M 43.167942 113.666812 
C 43.760954 113.666812 44.329758 113.431205 44.74908 113.011882 
C 45.168403 112.592559 45.40401 112.023756 45.40401 111.430744 
C 45.40401 110.837731 45.168403 110.268928 44.74908 109.849605 
C 44.329758 109.430282 43.760954 109.194676 43.167942 109.194676 
C 42.57493 109.194676 42.006126 109.430282 41.586803 109.849605 
C 41.16748 110.268928 40.931874 110.837731 40.931874 111.430744 
C 40.931874 112.023756 41.16748 112.592559 41.586803 113.011882 
C 42.006126 113.431205 42.57493 113.666812 43.167942 113.666812 
z
" clip-path="url(#pa2a1ad37a8)" style="stroke: #000000"/>
    <path d="M 37.39558 100.543296 
C 37.528182 100.543296 37.65537 100.490613 37.749134 100.39685 
C 37.842897 100.303086 37.89558 100.175898 37.89558 100.043296 
C 37.89558 99.910695 37.842897 99.783506 37.749134 99.689743 
C 37.65537 99.595979 37.528182 99.543296 37.39558 99.543296 
C 37.262979 99.543296 37.13579 99.595979 37.042027 99.689743 
C 36.948263 99.783506 36.89558 99.910695 36.89558 100.043296 
C 36.89558 100.175898 36.948263 100.303086 37.042027 100.39685 
C 37.13579 100.490613 37.262979 100.543296 37.39558 100.543296 
z
" clip-path="url(#pa2a1ad37a8)" style="stroke: #000000"/>
    <path d="M 34.941398 83.211416 
C 35.534039 83.211416 36.102487 82.975958 36.521547 82.556897 
C 36.940608 82.137836 37.176067 81.569388 37.176067 80.976747 
C 37.176067 80.384106 36.940608 79.815658 36.521547 79.396598 
C 36.102487 78.977537 35.534039 78.742078 34.941398 78.742078 
C 34.348757 78.742078 33.780309 78.977537 33.361248 79.396598 
C 32.942187 79.815658 32.706729 80.384106 32.706729 80.976747 
C 32.706729 81.569388 32.942187 82.137836 33.361248 82.556897 
C 33.780309 82.975958 34.348757 83.211416 34.941398 83.211416 
z
" clip-path="url(#pa2a1ad37a8)" style="stroke: #000000"/>
    <path d="M 40.905781 147.207094 
C 41.490079 147.207094 42.050523 146.97495 42.463684 146.561789 
C 42.876845 146.148629 43.108988 145.588184 43.108988 145.003887 
C 43.108988 144.419589 42.876845 143.859144 42.463684 143.445984 
C 42.050523 143.032823 41.490079 142.800679 40.905781 142.800679 
C 40.321484 142.800679 39.761039 143.032823 39.347878 143.445984 
C 38.934718 143.859144 38.702574 144.419589 38.702574 145.003887 
C 38.702574 145.588184 38.934718 146.148629 39.347878 146.561789 
C 39.761039 146.97495 40.321484 147.207094 40.905781 147.207094 
z
" clip-path="url(#pa2a1ad37a8)" style="stroke: #000000"/>
    <path d="M 38.050918 126.298337 
C 38.64393 126.298337 39.212734 126.062731 39.632057 125.643408 
C 40.051379 125.224085 40.286986 124.655281 40.286986 124.062269 
C 40.286986 123.469257 40.051379 122.900453 39.632057 122.48113 
C 39.212734 122.061807 38.64393 121.826201 38.050918 121.826201 
C 37.457906 121.826201 36.889102 122.061807 36.469779 122.48113 
C 36.050456 122.900453 35.81485 123.469257 35.81485 124.062269 
C 35.81485 124.655281 36.050456 125.224085 36.469779 125.643408 
C 36.889102 126.062731 37.457906 126.298337 38.050918 126.298337 
z
" clip-path="url(#pa2a1ad37a8)" style="stroke: #000000"/>
    <path d="M 33.70744 114.210427 
C 34.300823 114.210427 34.869982 113.974674 35.289567 113.555089 
C 35.709151 113.135504 35.944905 112.566345 35.944905 111.972963 
C 35.944905 111.37958 35.709151 110.810421 35.289567 110.390837 
C 34.869982 109.971252 34.300823 109.735498 33.70744 109.735498 
C 33.114058 109.735498 32.544899 109.971252 32.125314 110.390837 
C 31.70573 110.810421 31.469976 111.37958 31.469976 111.972963 
C 31.469976 112.566345 31.70573 113.135504 32.125314 113.555089 
C 32.544899 113.974674 33.114058 114.210427 33.70744 114.210427 
z
" clip-path="url(#pa2a1ad37a8)" style="stroke: #000000"/>
    <path d="M 45.037966 178.4834 
C 45.321826 178.4834 45.594097 178.370622 45.794816 178.169903 
C 45.995535 177.969184 46.108314 177.696912 46.108314 177.413053 
C 46.108314 177.129193 45.995535 176.856922 45.794816 176.656203 
C 45.594097 176.455484 45.321826 176.342705 45.037966 176.342705 
C 44.754107 176.342705 44.481835 176.455484 44.281116 176.656203 
C 44.080397 176.856922 43.967619 177.129193 43.967619 177.413053 
C 43.967619 177.696912 44.080397 177.969184 44.281116 178.169903 
C 44.481835 178.370622 44.754107 178.4834 45.037966 178.4834 
z
" clip-path="url(#pa2a1ad37a8)" style="stroke: #000000"/>
    <path d="M 41.264234 170.606724 
C 41.782858 170.606724 42.280311 170.400672 42.647033 170.03395 
C 43.013756 169.667227 43.219807 169.169775 43.219807 168.651151 
C 43.219807 168.132527 43.013756 167.635075 42.647033 167.268353 
C 42.280311 166.90163 41.782858 166.695579 41.264234 166.695579 
C 40.74561 166.695579 40.248158 166.90163 39.881436 167.268353 
C 39.514713 167.635075 39.308662 168.132527 39.308662 168.651151 
C 39.308662 169.169775 39.514713 169.667227 39.881436 170.03395 
C 40.248158 170.400672 40.74561 170.606724 41.264234 170.606724 
z
" clip-path="url(#pa2a1ad37a8)" style="stroke: #000000"/>
    <path d="M 35.895475 157.096452 
C 36.488488 157.096452 37.057291 156.860846 37.476614 156.441523 
C 37.895937 156.0222 38.131543 155.453396 38.131543 154.860384 
C 38.131543 154.267372 37.895937 153.698568 37.476614 153.279245 
C 37.057291 152.859922 36.488488 152.624316 35.895475 152.624316 
C 35.302463 152.624316 34.73366 152.859922 34.314337 153.279245 
C 33.895014 153.698568 33.659407 154.267372 33.659407 154.860384 
C 33.659407 155.453396 33.895014 156.0222 34.314337 156.441523 
C 34.73366 156.860846 35.302463 157.096452 35.895475 157.096452 
z
" clip-path="url(#pa2a1ad37a8)" style="stroke: #000000"/>
   </g>
   <g id="matplotlib.axis_1">
    <g id="xtick_1">
     <g id="line2d_1">
      <defs>
       <path id="m67e3902364" d="M 0 0 
L 0 3.5 
" style="stroke: #000000; stroke-width: 0.8"/>
      </defs>
      <g>
       <use xlink:href="#m67e3902364" x="18" y="189" style="stroke: #000000; stroke-width: 0.8"/>
      </g>
     </g>
     <g id="text_1">
      <!-- −10 -->
      <g transform="translate(7.447656 203.598437)scale(0.1 -0.1)">
       <defs>
        <path id="DejaVuSans-2212" d="M 678 2272 
L 4684 2272 
L 4684 1741 
L 678 1741 
L 678 2272 
z
" transform="scale(0.015625)"/>
        <path id="DejaVuSans-31" d="M 794 531 
L 1825 531 
L 1825 4091 
L 703 3866 
L 703 4441 
L 1819 4666 
L 2450 4666 
L 2450 531 
L 3481 531 
L 3481 0 
L 794 0 
L 794 531 
z
" transform="scale(0.015625)"/>
        <path id="DejaVuSans-30" d="M 2034 4250 
Q 1547 4250 1301 3770 
Q 1056 3291 1056 2328 
Q 1056 1369 1301 889 
Q 1547 409 2034 409 
Q 2525 409 2770 889 
Q 3016 1369 3016 2328 
Q 3016 3291 2770 3770 
Q 2525 4250 2034 4250 
z
M 2034 4750 
Q 2819 4750 3233 4129 
Q 3647 3509 3647 2328 
Q 3647 1150 3233 529 
Q 2819 -91 2034 -91 
Q 1250 -91 836 529 
Q 422 1150 422 2328 
Q 422 3509 836 4129 
Q 1250 4750 2034 4750 
z
" transform="scale(0.015625)"/>
       </defs>
       <use xlink:href="#DejaVuSans-2212"/>
       <use xlink:href="#DejaVuSans-31" x="83.789062"/>
       <use xlink:href="#DejaVuSans-30" x="147.412109"/>
      </g>
     </g>
    </g>
    <g id="xtick_2">
     <g id="line2d_2">
      <g>
       <use xlink:href="#m67e3902364" x="73.8" y="189" style="stroke: #000000; stroke-width: 0.8"/>
      </g>
     </g>
     <g id="text_2">
      <!-- 0 -->
      <g transform="translate(70.61875 203.598437)scale(0.1 -0.1)">
       <use xlink:href="#DejaVuSans-30"/>
      </g>
     </g>
    </g>
    <g id="xtick_3">
     <g id="line2d_3">
      <g>
       <use xlink:href="#m67e3902364" x="129.6" y="189" style="stroke: #000000; stroke-width: 0.8"/>
      </g>
     </g>
     <g id="text_3">
      <!-- 10 -->
      <g transform="translate(123.2375 203.598437)scale(0.1 -0.1)">
       <use xlink:href="#DejaVuSans-31"/>
       <use xlink:href="#DejaVuSans-30" x="63.623047"/>
      </g>
     </g>
    </g>
   </g>
   <g id="matplotlib.axis_2">
    <g id="ytick_1">
     <g id="line2d_4">
      <defs>
       <path id="m9447122db3" d="M 0 0 
L -3.5 0 
" style="stroke: #000000; stroke-width: 0.8"/>
      </defs>
      <g>
       <use xlink:href="#m9447122db3" x="18" y="189" style="stroke: #000000; stroke-width: 0.8"/>
      </g>
     </g>
     <g id="text_4">
      <!-- −15 -->
      <g transform="translate(-10.104688 192.799219)scale(0.1 -0.1)">
       <defs>
        <path id="DejaVuSans-35" d="M 691 4666 
L 3169 4666 
L 3169 4134 
L 1269 4134 
L 1269 2991 
Q 1406 3038 1543 3061 
Q 1681 3084 1819 3084 
Q 2600 3084 3056 2656 
Q 3513 2228 3513 1497 
Q 3513 744 3044 326 
Q 2575 -91 1722 -91 
Q 1428 -91 1123 -41 
Q 819 9 494 109 
L 494 744 
Q 775 591 1075 516 
Q 1375 441 1709 441 
Q 2250 441 2565 725 
Q 2881 1009 2881 1497 
Q 2881 1984 2565 2268 
Q 2250 2553 1709 2553 
Q 1456 2553 1204 2497 
Q 953 2441 691 2322 
L 691 4666 
z
" transform="scale(0.015625)"/>
       </defs>
       <use xlink:href="#DejaVuSans-2212"/>
       <use xlink:href="#DejaVuSans-31" x="83.789062"/>
       <use xlink:href="#DejaVuSans-35" x="147.412109"/>
      </g>
     </g>
    </g>
    <g id="ytick_2">
     <g id="line2d_5">
      <g>
       <use xlink:href="#m9447122db3" x="18" y="161.82" style="stroke: #000000; stroke-width: 0.8"/>
      </g>
     </g>
     <g id="text_5">
      <!-- −10 -->
      <g transform="translate(-10.104688 165.619219)scale(0.1 -0.1)">
       <use xlink:href="#DejaVuSans-2212"/>
       <use xlink:href="#DejaVuSans-31" x="83.789062"/>
       <use xlink:href="#DejaVuSans-30" x="147.412109"/>
      </g>
     </g>
    </g>
    <g id="ytick_3">
     <g id="line2d_6">
      <g>
       <use xlink:href="#m9447122db3" x="18" y="134.64" style="stroke: #000000; stroke-width: 0.8"/>
      </g>
     </g>
     <g id="text_6">
      <!-- −5 -->
      <g transform="translate(-3.742188 138.439219)scale(0.1 -0.1)">
       <use xlink:href="#DejaVuSans-2212"/>
       <use xlink:href="#DejaVuSans-35" x="83.789062"/>
      </g>
     </g>
    </g>
    <g id="ytick_4">
     <g id="line2d_7">
      <g>
       <use xlink:href="#m9447122db3" x="18" y="107.46" style="stroke: #000000; stroke-width: 0.8"/>
      </g>
     </g>
     <g id="text_7">
      <!-- 0 -->
      <g transform="translate(4.6375 111.259219)scale(0.1 -0.1)">
       <use xlink:href="#DejaVuSans-30"/>
      </g>
     </g>
    </g>
    <g id="ytick_5">
     <g id="line2d_8">
      <g>
       <use xlink:href="#m9447122db3" x="18" y="80.28" style="stroke: #000000; stroke-width: 0.8"/>
      </g>
     </g>
     <g id="text_8">
      <!-- 5 -->
      <g transform="translate(4.6375 84.079219)scale(0.1 -0.1)">
       <use xlink:href="#DejaVuSans-35"/>
      </g>
     </g>
    </g>
    <g id="ytick_6">
     <g id="line2d_9">
      <g>
       <use xlink:href="#m9447122db3" x="18" y="53.1" style="stroke: #000000; stroke-width: 0.8"/>
      </g>
     </g>
     <g id="text_9">
      <!-- 10 -->
      <g transform="translate(-1.725 56.899219)scale(0.1 -0.1)">
       <use xlink:href="#DejaVuSans-31"/>
       <use xlink:href="#DejaVuSans-30" x="63.623047"/>
      </g>
     </g>
    </g>
    <g id="ytick_7">
     <g id="line2d_10">
      <g>
       <use xlink:href="#m9447122db3" x="18" y="25.92" style="stroke: #000000; stroke-width: 0.8"/>
      </g>
     </g>
     <g id="text_10">
      <!-- 15 -->
      <g transform="translate(-1.725 29.719219)scale(0.1 -0.1)">
       <use xlink:href="#DejaVuSans-31"/>
       <use xlink:href="#DejaVuSans-35" x="63.623047"/>
      </g>
     </g>
    </g>
   </g>
   <g id="patch_3">
    <path d="M 18 189 
L 18 25.92 
" style="fill: none; stroke: #000000; stroke-width: 0.8; stroke-linejoin: miter; stroke-linecap: square"/>
   </g>
   <g id="patch_4">
    <path d="M 129.6 189 
L 129.6 25.92 
" style="fill: none; stroke: #000000; stroke-width: 0.8; stroke-linejoin: miter; stroke-linecap: square"/>
   </g>
   <g id="patch_5">
    <path d="M 18 189 
L 129.6 189 
" style="fill: none; stroke: #000000; stroke-width: 0.8; stroke-linejoin: miter; stroke-linecap: square"/>
   </g>
   <g id="patch_6">
    <path d="M 18 25.92 
L 129.6 25.92 
" style="fill: none; stroke: #000000; stroke-width: 0.8; stroke-linejoin: miter; stroke-linecap: square"/>
   </g>
  </g>
 </g>
 <defs>
  <clipPath id="pa2a1ad37a8">
   <rect x="18" y="25.92" width="111.6" height="163.08"/>
  </clipPath>
 </defs>
</svg>
