<?xml version="1.0" encoding="utf-8" standalone="no"?>
<!DOCTYPE svg PUBLIC "-//W3C//DTD SVG 1.1//EN"
  "http://www.w3.org/Graphics/SVG/1.1/DTD/svg11.dtd">
<svg xmlns:xlink="http://www.w3.org/1999/xlink" width="144pt" height="216pt" viewBox="0 0 144 216" xmlns="http://www.w3.org/2000/svg" version="1.1">
 <metadata>
  <rdf:RDF xmlns:dc="http://purl.org/dc/elements/1.1/" xmlns:cc="http://creativecommons.org/ns#" xmlns:rdf="http://www.w3.org/1999/02/22-rdf-syntax-ns#">
   <cc:Work>
    <dc:type rdf:resource="http://purl.org/dc/dcmitype/StillImage"/>
    <dc:date>2022-06-18T00:14:08.480219</dc:date>
    <dc:format>image/svg+xml</dc:format>
    <dc:creator>
     <cc:Agent>
      <dc:title>Matplotlib v3.5.1, https://matplotlib.org/</dc:title>
     </cc:Agent>
    </dc:creator>
   </cc:Work>
  </rdf:RDF>
 </metadata>
 <defs>
  <style type="text/css">*{stroke-linejoin: round; stroke-linecap: butt}</style>
 </defs>
 <g id="figure_1">
  <g id="patch_1">
   <path d="M 0 216 
L 144 216 
L 144 0 
L 0 0 
L 0 216 
z
" style="fill: none"/>
  </g>
  <g id="axes_1">
   <g id="patch_2">
    <path d="M 18 189 
L 129.6 189 
L 129.6 25.92 
L 18 25.92 
z
" style="fill: #ffffff"/>
   </g>
   <g id="PathCollection_1">
    <defs>
     <path id="ma317b04972" d="M 0 2.738613 
C 0.726289 2.738613 1.422928 2.450055 1.936492 1.936492 
C 2.450055 1.422928 2.738613 0.726289 2.738613 0 
C 2.738613 -0.726289 2.450055 -1.422928 1.936492 -1.936492 
C 1.422928 -2.450055 0.726289 -2.738613 0 -2.738613 
C -0.726289 -2.738613 -1.422928 -2.450055 -1.936492 -1.936492 
C -2.450055 -1.422928 -2.738613 -0.726289 -2.738613 0 
C -2.738613 0.726289 -2.450055 1.422928 -1.936492 1.936492 
C -1.422928 2.450055 -0.726289 2.738613 0 2.738613 
z
" style="stroke: #ff0000; stroke-width: 1.75"/>
    </defs>
    <g clip-path="url(#p5fdc0979d1)">
     <use xlink:href="#ma317b04972" x="66.825" y="83.92143" style="fill: #ff0000; stroke: #ff0000; stroke-width: 1.75"/>
     <use xlink:href="#ma317b04972" x="87.75" y="95.690715" style="fill: #ff0000; stroke: #ff0000; stroke-width: 1.75"/>
     <use xlink:href="#ma317b04972" x="66.825" y="107.46" style="fill: #ff0000; stroke: #ff0000; stroke-width: 1.75"/>
     <use xlink:href="#ma317b04972" x="73.8" y="119.229285" style="fill: #ff0000; stroke: #ff0000; stroke-width: 1.75"/>
     <use xlink:href="#ma317b04972" x="87.75" y="119.229285" style="fill: #ff0000; stroke: #ff0000; stroke-width: 1.75"/>
     <use xlink:href="#ma317b04972" x="66.825" y="130.99857" style="fill: #ff0000; stroke: #ff0000; stroke-width: 1.75"/>
     <use xlink:href="#ma317b04972" x="80.775" y="130.99857" style="fill: #ff0000; stroke: #ff0000; stroke-width: 1.75"/>
    </g>
   </g>
   <g id="PathCollection_2">
    <defs>
     <path id="C0_0_3d280d0a56" d="M 0 2.738613 
C 0.726289 2.738613 1.422928 2.450055 1.936492 1.936492 
C 2.450055 1.422928 2.738613 0.726289 2.738613 -0 
C 2.738613 -0.726289 2.450055 -1.422928 1.936492 -1.936492 
C 1.422928 -2.450055 0.726289 -2.738613 0 -2.738613 
C -0.726289 -2.738613 -1.422928 -2.450055 -1.936492 -1.936492 
C -2.450055 -1.422928 -2.738613 -0.726289 -2.738613 0 
C -2.738613 0.726289 -2.450055 1.422928 -1.936492 1.936492 
C -1.422928 2.450055 -0.726289 2.738613 0 2.738613 
z
"/>
    </defs>
    <g clip-path="url(#p5fdc0979d1)">
     <use xlink:href="#C0_0_3d280d0a56" x="80.775" y="83.92143" style="fill: none; stroke: #ff0000; stroke-width: 1.75"/>
    </g>
    <g clip-path="url(#p5fdc0979d1)">
     <use xlink:href="#C0_0_3d280d0a56" x="59.85" y="95.690715" style="fill: none; stroke: #ff0000; stroke-width: 1.75"/>
    </g>
    <g clip-path="url(#p5fdc0979d1)">
     <use xlink:href="#C0_0_3d280d0a56" x="73.8" y="95.690715" style="fill: none; stroke: #ff0000; stroke-width: 1.75"/>
    </g>
    <g clip-path="url(#p5fdc0979d1)">
     <use xlink:href="#C0_0_3d280d0a56" x="52.875" y="107.46" style="fill: none; stroke: #ff0000; stroke-width: 1.75"/>
    </g>
    <g clip-path="url(#p5fdc0979d1)">
     <use xlink:href="#C0_0_3d280d0a56" x="80.775" y="107.46" style="fill: none; stroke: #ff0000; stroke-width: 1.75"/>
    </g>
    <g clip-path="url(#p5fdc0979d1)">
     <use xlink:href="#C0_0_3d280d0a56" x="94.725" y="107.46" style="fill: none; stroke: #ff0000; stroke-width: 1.75"/>
    </g>
    <g clip-path="url(#p5fdc0979d1)">
     <use xlink:href="#C0_0_3d280d0a56" x="59.85" y="119.229285" style="fill: none; stroke: #ff0000; stroke-width: 1.75"/>
    </g>
   </g>
   <g id="PathCollection_3">
    <path d="M 107.463647 69.109172 
C 107.463647 69.109172 107.463647 69.109172 107.463647 69.109172 
C 107.463647 69.109172 107.463647 69.109172 107.463647 69.109172 
C 107.463647 69.109172 107.463647 69.109172 107.463647 69.109172 
C 107.463647 69.109172 107.463647 69.109172 107.463647 69.109172 
C 107.463647 69.109172 107.463647 69.109172 107.463647 69.109172 
C 107.463647 69.109172 107.463647 69.109172 107.463647 69.109172 
C 107.463647 69.109172 107.463647 69.109172 107.463647 69.109172 
C 107.463647 69.109172 107.463647 69.109172 107.463647 69.109172 
z
" clip-path="url(#p5fdc0979d1)" style="stroke: #000000"/>
    <path d="M 123.11247 153.075507 
C 123.11247 153.075507 123.11247 153.075507 123.11247 153.075507 
C 123.11247 153.075507 123.11247 153.075507 123.11247 153.075507 
C 123.11247 153.075507 123.11247 153.075507 123.11247 153.075507 
C 123.11247 153.075507 123.11247 153.075507 123.11247 153.075507 
C 123.11247 153.075507 123.11247 153.075507 123.11247 153.075507 
C 123.11247 153.075507 123.11247 153.075507 123.11247 153.075507 
C 123.11247 153.075507 123.11247 153.075507 123.11247 153.075507 
C 123.11247 153.075507 123.11247 153.075507 123.11247 153.075507 
z
" clip-path="url(#p5fdc0979d1)" style="stroke: #000000"/>
    <path d="M 116.732773 124.188585 
C 116.942434 124.188585 117.143537 124.105286 117.29179 123.957033 
C 117.440043 123.80878 117.523342 123.607677 117.523342 123.398016 
C 117.523342 123.188354 117.440043 122.987252 117.29179 122.838999 
C 117.143537 122.690746 116.942434 122.607446 116.732773 122.607446 
C 116.523111 122.607446 116.322009 122.690746 116.173756 122.838999 
C 116.025503 122.987252 115.942203 123.188354 115.942203 123.398016 
C 115.942203 123.607677 116.025503 123.80878 116.173756 123.957033 
C 116.322009 124.105286 116.523111 124.188585 116.732773 124.188585 
z
" clip-path="url(#p5fdc0979d1)" style="stroke: #000000"/>
    <path d="M 114.802516 109.326422 
C 114.802516 109.326422 114.802516 109.326422 114.802516 109.326422 
C 114.802516 109.326422 114.802516 109.326422 114.802516 109.326422 
C 114.802516 109.326422 114.802516 109.326422 114.802516 109.326422 
C 114.802516 109.326422 114.802516 109.326422 114.802516 109.326422 
C 114.802516 109.326422 114.802516 109.326422 114.802516 109.326422 
C 114.802516 109.326422 114.802516 109.326422 114.802516 109.326422 
C 114.802516 109.326422 114.802516 109.326422 114.802516 109.326422 
C 114.802516 109.326422 114.802516 109.326422 114.802516 109.326422 
z
" clip-path="url(#p5fdc0979d1)" style="stroke: #000000"/>
    <path d="M 109.264319 103.990291 
C 109.264319 103.990291 109.264319 103.990291 109.264319 103.990291 
C 109.264319 103.990291 109.264319 103.990291 109.264319 103.990291 
C 109.264319 103.990291 109.264319 103.990291 109.264319 103.990291 
C 109.264319 103.990291 109.264319 103.990291 109.264319 103.990291 
C 109.264319 103.990291 109.264319 103.990291 109.264319 103.990291 
C 109.264319 103.990291 109.264319 103.990291 109.264319 103.990291 
C 109.264319 103.990291 109.264319 103.990291 109.264319 103.990291 
C 109.264319 103.990291 109.264319 103.990291 109.264319 103.990291 
z
" clip-path="url(#p5fdc0979d1)" style="stroke: #000000"/>
    <path d="M 107.706947 87.080802 
C 107.94275 87.080802 108.168926 86.987117 108.335664 86.820379 
C 108.502402 86.653641 108.596087 86.427465 108.596087 86.191662 
C 108.596087 85.95586 108.502402 85.729683 108.335664 85.562946 
C 108.168926 85.396208 107.94275 85.302523 107.706947 85.302523 
C 107.471145 85.302523 107.244968 85.396208 107.078231 85.562946 
C 106.911493 85.729683 106.817808 85.95586 106.817808 86.191662 
C 106.817808 86.427465 106.911493 86.653641 107.078231 86.820379 
C 107.244968 86.987117 107.471145 87.080802 107.706947 87.080802 
z
" clip-path="url(#p5fdc0979d1)" style="stroke: #000000"/>
    <path d="M 99.214368 78.432122 
C 99.451631 78.432122 99.679208 78.337857 99.846978 78.170087 
C 100.014748 78.002317 100.109014 77.77474 100.109014 77.537477 
C 100.109014 77.300214 100.014748 77.072637 99.846978 76.904867 
C 99.679208 76.737097 99.451631 76.642832 99.214368 76.642832 
C 98.977106 76.642832 98.749529 76.737097 98.581759 76.904867 
C 98.413988 77.072637 98.319723 77.300214 98.319723 77.537477 
C 98.319723 77.77474 98.413988 78.002317 98.581759 78.170087 
C 98.749529 78.337857 98.977106 78.432122 99.214368 78.432122 
z
" clip-path="url(#p5fdc0979d1)" style="stroke: #000000"/>
    <path d="M 100.754149 67.840587 
C 100.989952 67.840587 101.216128 67.746902 101.382866 67.580164 
C 101.549604 67.413427 101.643289 67.18725 101.643289 66.951448 
C 101.643289 66.715645 101.549604 66.489469 101.382866 66.322731 
C 101.216128 66.155993 100.989952 66.062308 100.754149 66.062308 
C 100.518347 66.062308 100.29217 66.155993 100.125433 66.322731 
C 99.958695 66.489469 99.86501 66.715645 99.86501 66.951448 
C 99.86501 67.18725 99.958695 67.413427 100.125433 67.580164 
C 100.29217 67.746902 100.518347 67.840587 100.754149 67.840587 
z
" clip-path="url(#p5fdc0979d1)" style="stroke: #000000"/>
    <path d="M 92.654143 59.975324 
C 92.891406 59.975324 93.118983 59.881059 93.286753 59.713289 
C 93.454523 59.545518 93.548789 59.317941 93.548789 59.080679 
C 93.548789 58.843416 93.454523 58.615839 93.286753 58.448069 
C 93.118983 58.280299 92.891406 58.186033 92.654143 58.186033 
C 92.41688 58.186033 92.189303 58.280299 92.021533 58.448069 
C 91.853763 58.615839 91.759498 58.843416 91.759498 59.080679 
C 91.759498 59.317941 91.853763 59.545518 92.021533 59.713289 
C 92.189303 59.881059 92.41688 59.975324 92.654143 59.975324 
z
" clip-path="url(#p5fdc0979d1)" style="stroke: #000000"/>
    <path d="M 95.673692 48.001506 
C 95.910955 48.001506 96.138532 47.90724 96.306302 47.73947 
C 96.474072 47.5717 96.568337 47.344123 96.568337 47.10686 
C 96.568337 46.869598 96.474072 46.64202 96.306302 46.47425 
C 96.138532 46.30648 95.910955 46.212215 95.673692 46.212215 
C 95.436429 46.212215 95.208852 46.30648 95.041082 46.47425 
C 94.873312 46.64202 94.779046 46.869598 94.779046 47.10686 
C 94.779046 47.344123 94.873312 47.5717 95.041082 47.73947 
C 95.208852 47.90724 95.436429 48.001506 95.673692 48.001506 
z
" clip-path="url(#p5fdc0979d1)" style="stroke: #000000"/>
    <path d="M 87.797294 38.109596 
C 87.891058 38.109596 87.980994 38.072343 88.047294 38.006042 
C 88.113595 37.939742 88.150848 37.849806 88.150848 37.756042 
C 88.150848 37.662279 88.113595 37.572343 88.047294 37.506042 
C 87.980994 37.439742 87.891058 37.402489 87.797294 37.402489 
C 87.703531 37.402489 87.613595 37.439742 87.547294 37.506042 
C 87.480994 37.572343 87.443741 37.662279 87.443741 37.756042 
C 87.443741 37.849806 87.480994 37.939742 87.547294 38.006042 
C 87.613595 38.072343 87.703531 38.109596 87.797294 38.109596 
z
" clip-path="url(#p5fdc0979d1)" style="stroke: #000000"/>
    <path d="M 86.395665 30.872273 
C 86.631468 30.872273 86.857644 30.778588 87.024382 30.61185 
C 87.19112 30.445112 87.284805 30.218936 87.284805 29.983133 
C 87.284805 29.747331 87.19112 29.521154 87.024382 29.354417 
C 86.857644 29.187679 86.631468 29.093994 86.395665 29.093994 
C 86.159863 29.093994 85.933686 29.187679 85.766949 29.354417 
C 85.600211 29.521154 85.506526 29.747331 85.506526 29.983133 
C 85.506526 30.218936 85.600211 30.445112 85.766949 30.61185 
C 85.933686 30.778588 86.159863 30.872273 86.395665 30.872273 
z
" clip-path="url(#p5fdc0979d1)" style="stroke: #000000"/>
    <path d="M 116.375814 154.413407 
C 116.613077 154.413407 116.840654 154.319141 117.008424 154.151371 
C 117.176194 153.983601 117.27046 153.756024 117.27046 153.518761 
C 117.27046 153.281499 117.176194 153.053922 117.008424 152.886151 
C 116.840654 152.718381 116.613077 152.624116 116.375814 152.624116 
C 116.138551 152.624116 115.910974 152.718381 115.743204 152.886151 
C 115.575434 153.053922 115.481169 153.281499 115.481169 153.518761 
C 115.481169 153.756024 115.575434 153.983601 115.743204 154.151371 
C 115.910974 154.319141 116.138551 154.413407 116.375814 154.413407 
z
" clip-path="url(#p5fdc0979d1)" style="stroke: #000000"/>
    <path d="M 114.218626 146.206059 
C 114.411756 146.206059 114.597003 146.129327 114.733567 145.992763 
C 114.870132 145.856199 114.946863 145.670952 114.946863 145.477821 
C 114.946863 145.28469 114.870132 145.099443 114.733567 144.962879 
C 114.597003 144.826315 114.411756 144.749583 114.218626 144.749583 
C 114.025495 144.749583 113.840248 144.826315 113.703684 144.962879 
C 113.56712 145.099443 113.490388 145.28469 113.490388 145.477821 
C 113.490388 145.670952 113.56712 145.856199 113.703684 145.992763 
C 113.840248 146.129327 114.025495 146.206059 114.218626 146.206059 
z
" clip-path="url(#p5fdc0979d1)" style="stroke: #000000"/>
    <path d="M 107.268773 133.714379 
C 107.506036 133.714379 107.733613 133.620114 107.901383 133.452344 
C 108.069153 133.284573 108.163418 133.056996 108.163418 132.819734 
C 108.163418 132.582471 108.069153 132.354894 107.901383 132.187124 
C 107.733613 132.019354 107.506036 131.925088 107.268773 131.925088 
C 107.03151 131.925088 106.803933 132.019354 106.636163 132.187124 
C 106.468393 132.354894 106.374128 132.582471 106.374128 132.819734 
C 106.374128 133.056996 106.468393 133.284573 106.636163 133.452344 
C 106.803933 133.620114 107.03151 133.714379 107.268773 133.714379 
z
" clip-path="url(#p5fdc0979d1)" style="stroke: #000000"/>
    <path d="M 109.21125 122.597414 
C 109.448513 122.597414 109.67609 122.503148 109.84386 122.335378 
C 110.01163 122.167608 110.105895 121.940031 110.105895 121.702768 
C 110.105895 121.465505 110.01163 121.237928 109.84386 121.070158 
C 109.67609 120.902388 109.448513 120.808123 109.21125 120.808123 
C 108.973987 120.808123 108.74641 120.902388 108.57864 121.070158 
C 108.41087 121.237928 108.316605 121.465505 108.316605 121.702768 
C 108.316605 121.940031 108.41087 122.167608 108.57864 122.335378 
C 108.74641 122.503148 108.973987 122.597414 109.21125 122.597414 
z
" clip-path="url(#p5fdc0979d1)" style="stroke: #000000"/>
    <path d="M 102.285021 117.384157 
C 102.517819 117.384157 102.741114 117.291666 102.905727 117.127053 
C 103.07034 116.962439 103.162832 116.739145 103.162832 116.506347 
C 103.162832 116.273549 103.07034 116.050254 102.905727 115.885641 
C 102.741114 115.721028 102.517819 115.628536 102.285021 115.628536 
C 102.052223 115.628536 101.828928 115.721028 101.664315 115.885641 
C 101.499702 116.050254 101.40721 116.273549 101.40721 116.506347 
C 101.40721 116.739145 101.499702 116.962439 101.664315 117.127053 
C 101.828928 117.291666 102.052223 117.384157 102.285021 117.384157 
z
" clip-path="url(#p5fdc0979d1)" style="stroke: #000000"/>
    <path d="M 98.34527 103.518775 
C 98.541029 103.518775 98.728797 103.440999 98.86722 103.302576 
C 99.005642 103.164154 99.083418 102.976386 99.083418 102.780627 
C 99.083418 102.584868 99.005642 102.3971 98.86722 102.258678 
C 98.728797 102.120255 98.541029 102.042479 98.34527 102.042479 
C 98.149511 102.042479 97.961743 102.120255 97.823321 102.258678 
C 97.684898 102.3971 97.607122 102.584868 97.607122 102.780627 
C 97.607122 102.976386 97.684898 103.164154 97.823321 103.302576 
C 97.961743 103.440999 98.149511 103.518775 98.34527 103.518775 
z
" clip-path="url(#p5fdc0979d1)" style="stroke: #000000"/>
    <path d="M 95.987678 95.275185 
C 96.22348 95.275185 96.449657 95.1815 96.616395 95.014762 
C 96.783132 94.848024 96.876818 94.621848 96.876818 94.386045 
C 96.876818 94.150243 96.783132 93.924066 96.616395 93.757329 
C 96.449657 93.590591 96.22348 93.496906 95.987678 93.496906 
C 95.751875 93.496906 95.525699 93.590591 95.358961 93.757329 
C 95.192224 93.924066 95.098538 94.150243 95.098538 94.386045 
C 95.098538 94.621848 95.192224 94.848024 95.358961 95.014762 
C 95.525699 95.1815 95.751875 95.275185 95.987678 95.275185 
z
" clip-path="url(#p5fdc0979d1)" style="stroke: #000000"/>
    <path d="M 90.337427 80.591466 
C 90.551161 80.591466 90.75617 80.506548 90.907303 80.355415 
C 91.058437 80.204282 91.143354 79.999273 91.143354 79.785538 
C 91.143354 79.571804 91.058437 79.366795 90.907303 79.215662 
C 90.75617 79.064528 90.551161 78.979611 90.337427 78.979611 
C 90.123692 78.979611 89.918683 79.064528 89.76755 79.215662 
C 89.616417 79.366795 89.531499 79.571804 89.531499 79.785538 
C 89.531499 79.999273 89.616417 80.204282 89.76755 80.355415 
C 89.918683 80.506548 90.123692 80.591466 90.337427 80.591466 
z
" clip-path="url(#p5fdc0979d1)" style="stroke: #000000"/>
    <path d="M 90.95506 74.405942 
C 91.190862 74.405942 91.417039 74.312257 91.583776 74.145519 
C 91.750514 73.978782 91.844199 73.752605 91.844199 73.516803 
C 91.844199 73.281 91.750514 73.054823 91.583776 72.888086 
C 91.417039 72.721348 91.190862 72.627663 90.95506 72.627663 
C 90.719257 72.627663 90.493081 72.721348 90.326343 72.888086 
C 90.159605 73.054823 90.06592 73.281 90.06592 73.516803 
C 90.06592 73.752605 90.159605 73.978782 90.326343 74.145519 
C 90.493081 74.312257 90.719257 74.405942 90.95506 74.405942 
z
" clip-path="url(#p5fdc0979d1)" style="stroke: #000000"/>
    <path d="M 83.727802 61.188334 
C 83.935334 61.188334 84.134395 61.10588 84.281143 60.959133 
C 84.427891 60.812385 84.510344 60.613324 84.510344 60.405792 
C 84.510344 60.198259 84.427891 59.999199 84.281143 59.852451 
C 84.134395 59.705703 83.935334 59.623249 83.727802 59.623249 
C 83.520269 59.623249 83.321209 59.705703 83.174461 59.852451 
C 83.027713 59.999199 82.94526 60.198259 82.94526 60.405792 
C 82.94526 60.613324 83.027713 60.812385 83.174461 60.959133 
C 83.321209 61.10588 83.520269 61.188334 83.727802 61.188334 
z
" clip-path="url(#p5fdc0979d1)" style="stroke: #000000"/>
    <path d="M 78.44148 54.167438 
C 78.615994 54.167438 78.783383 54.098104 78.906783 53.974704 
C 79.030183 53.851304 79.099517 53.683915 79.099517 53.509401 
C 79.099517 53.334888 79.030183 53.167499 78.906783 53.044099 
C 78.783383 52.920699 78.615994 52.851364 78.44148 52.851364 
C 78.266967 52.851364 78.099578 52.920699 77.976178 53.044099 
C 77.852778 53.167499 77.783443 53.334888 77.783443 53.509401 
C 77.783443 53.683915 77.852778 53.851304 77.976178 53.974704 
C 78.099578 54.098104 78.266967 54.167438 78.44148 54.167438 
z
" clip-path="url(#p5fdc0979d1)" style="stroke: #000000"/>
    <path d="M 74.586258 45.749024 
C 74.680022 45.749024 74.769958 45.711771 74.836258 45.645471 
C 74.902559 45.57917 74.939812 45.489234 74.939812 45.395471 
C 74.939812 45.301707 74.902559 45.211771 74.836258 45.145471 
C 74.769958 45.07917 74.680022 45.041917 74.586258 45.041917 
C 74.492495 45.041917 74.402559 45.07917 74.336258 45.145471 
C 74.269958 45.211771 74.232705 45.301707 74.232705 45.395471 
C 74.232705 45.489234 74.269958 45.57917 74.336258 45.645471 
C 74.402559 45.711771 74.492495 45.749024 74.586258 45.749024 
z
" clip-path="url(#p5fdc0979d1)" style="stroke: #000000"/>
    <path d="M 74.228932 35.4362 
C 74.464735 35.4362 74.690911 35.342515 74.857649 35.175777 
C 75.024386 35.00904 75.118072 34.782863 75.118072 34.547061 
C 75.118072 34.311258 75.024386 34.085082 74.857649 33.918344 
C 74.690911 33.751606 74.464735 33.657921 74.228932 33.657921 
C 73.993129 33.657921 73.766953 33.751606 73.600215 33.918344 
C 73.433478 34.085082 73.339792 34.311258 73.339792 34.547061 
C 73.339792 34.782863 73.433478 35.00904 73.600215 35.175777 
C 73.766953 35.342515 73.993129 35.4362 74.228932 35.4362 
z
" clip-path="url(#p5fdc0979d1)" style="stroke: #000000"/>
    <path d="M 114.72005 178.51895 
C 114.955853 178.51895 115.182029 178.425265 115.348767 178.258527 
C 115.515504 178.09179 115.60919 177.865613 115.60919 177.629811 
C 115.60919 177.394008 115.515504 177.167832 115.348767 177.001094 
C 115.182029 176.834356 114.955853 176.740671 114.72005 176.740671 
C 114.484247 176.740671 114.258071 176.834356 114.091333 177.001094 
C 113.924596 177.167832 113.83091 177.394008 113.83091 177.629811 
C 113.83091 177.865613 113.924596 178.09179 114.091333 178.258527 
C 114.258071 178.425265 114.484247 178.51895 114.72005 178.51895 
z
" clip-path="url(#p5fdc0979d1)" style="stroke: #000000"/>
    <path d="M 110.257734 164.371907 
C 110.257734 164.371907 110.257734 164.371907 110.257734 164.371907 
C 110.257734 164.371907 110.257734 164.371907 110.257734 164.371907 
C 110.257734 164.371907 110.257734 164.371907 110.257734 164.371907 
C 110.257734 164.371907 110.257734 164.371907 110.257734 164.371907 
C 110.257734 164.371907 110.257734 164.371907 110.257734 164.371907 
C 110.257734 164.371907 110.257734 164.371907 110.257734 164.371907 
C 110.257734 164.371907 110.257734 164.371907 110.257734 164.371907 
C 110.257734 164.371907 110.257734 164.371907 110.257734 164.371907 
z
" clip-path="url(#p5fdc0979d1)" style="stroke: #000000"/>
    <path d="M 111.604765 157.19811 
C 111.842028 157.19811 112.069605 157.103844 112.237375 156.936074 
C 112.405145 156.768304 112.49941 156.540727 112.49941 156.303464 
C 112.49941 156.066201 112.405145 155.838624 112.237375 155.670854 
C 112.069605 155.503084 111.842028 155.408819 111.604765 155.408819 
C 111.367502 155.408819 111.139925 155.503084 110.972155 155.670854 
C 110.804385 155.838624 110.710119 156.066201 110.710119 156.303464 
C 110.710119 156.540727 110.804385 156.768304 110.972155 156.936074 
C 111.139925 157.103844 111.367502 157.19811 111.604765 157.19811 
z
" clip-path="url(#p5fdc0979d1)" style="stroke: #000000"/>
    <path d="M 103.93451 150.800523 
C 104.171773 150.800523 104.39935 150.706257 104.56712 150.538487 
C 104.73489 150.370717 104.829156 150.14314 104.829156 149.905877 
C 104.829156 149.668614 104.73489 149.441037 104.56712 149.273267 
C 104.39935 149.105497 104.171773 149.011232 103.93451 149.011232 
C 103.697248 149.011232 103.469671 149.105497 103.301901 149.273267 
C 103.134131 149.441037 103.039865 149.668614 103.039865 149.905877 
C 103.039865 150.14314 103.134131 150.370717 103.301901 150.538487 
C 103.469671 150.706257 103.697248 150.800523 103.93451 150.800523 
z
" clip-path="url(#p5fdc0979d1)" style="stroke: #000000"/>
    <path d="M 104.760382 133.888186 
C 104.760382 133.888186 104.760382 133.888186 104.760382 133.888186 
C 104.760382 133.888186 104.760382 133.888186 104.760382 133.888186 
C 104.760382 133.888186 104.760382 133.888186 104.760382 133.888186 
C 104.760382 133.888186 104.760382 133.888186 104.760382 133.888186 
C 104.760382 133.888186 104.760382 133.888186 104.760382 133.888186 
C 104.760382 133.888186 104.760382 133.888186 104.760382 133.888186 
C 104.760382 133.888186 104.760382 133.888186 104.760382 133.888186 
C 104.760382 133.888186 104.760382 133.888186 104.760382 133.888186 
z
" clip-path="url(#p5fdc0979d1)" style="stroke: #000000"/>
    <path d="M 97.4093 127.300877 
C 97.628739 127.300877 97.83922 127.213693 97.994387 127.058526 
C 98.149553 126.903359 98.236737 126.692878 98.236737 126.473439 
C 98.236737 126.254 98.149553 126.043519 97.994387 125.888353 
C 97.83922 125.733186 97.628739 125.646002 97.4093 125.646002 
C 97.189861 125.646002 96.97938 125.733186 96.824213 125.888353 
C 96.669046 126.043519 96.581862 126.254 96.581862 126.473439 
C 96.581862 126.692878 96.669046 126.903359 96.824213 127.058526 
C 96.97938 127.213693 97.189861 127.300877 97.4093 127.300877 
z
" clip-path="url(#p5fdc0979d1)" style="stroke: #000000"/>
    <path d="M 93.348331 121.368126 
C 93.584134 121.368126 93.81031 121.27444 93.977048 121.107703 
C 94.143785 120.940965 94.237471 120.714789 94.237471 120.478986 
C 94.237471 120.243183 94.143785 120.017007 93.977048 119.850269 
C 93.81031 119.683532 93.584134 119.589846 93.348331 119.589846 
C 93.112528 119.589846 92.886352 119.683532 92.719614 119.850269 
C 92.552877 120.017007 92.459191 120.243183 92.459191 120.478986 
C 92.459191 120.714789 92.552877 120.940965 92.719614 121.107703 
C 92.886352 121.27444 93.112528 121.368126 93.348331 121.368126 
z
" clip-path="url(#p5fdc0979d1)" style="stroke: #000000"/>
    <path d="M 88.121207 108.56095 
C 88.35701 108.56095 88.583186 108.467265 88.749924 108.300527 
C 88.916662 108.13379 89.010347 107.907613 89.010347 107.671811 
C 89.010347 107.436008 88.916662 107.209831 88.749924 107.043094 
C 88.583186 106.876356 88.35701 106.782671 88.121207 106.782671 
C 87.885405 106.782671 87.659228 106.876356 87.492491 107.043094 
C 87.325753 107.209831 87.232068 107.436008 87.232068 107.671811 
C 87.232068 107.907613 87.325753 108.13379 87.492491 108.300527 
C 87.659228 108.467265 87.885405 108.56095 88.121207 108.56095 
z
" clip-path="url(#p5fdc0979d1)" style="stroke: #000000"/>
    <path d="M 85.450408 92.135767 
C 85.648693 92.135767 85.838884 92.056987 85.979093 91.916778 
C 86.119302 91.776569 86.198082 91.586378 86.198082 91.388093 
C 86.198082 91.189807 86.119302 90.999616 85.979093 90.859407 
C 85.838884 90.719198 85.648693 90.640418 85.450408 90.640418 
C 85.252122 90.640418 85.061931 90.719198 84.921722 90.859407 
C 84.781513 90.999616 84.702733 91.189807 84.702733 91.388093 
C 84.702733 91.586378 84.781513 91.776569 84.921722 91.916778 
C 85.061931 92.056987 85.252122 92.135767 85.450408 92.135767 
z
" clip-path="url(#p5fdc0979d1)" style="stroke: #000000"/>
    <path d="M 84.80243 87.2529 
C 85.016165 87.2529 85.221174 87.167982 85.372307 87.016849 
C 85.52344 86.865716 85.608358 86.660707 85.608358 86.446972 
C 85.608358 86.233238 85.52344 86.028228 85.372307 85.877095 
C 85.221174 85.725962 85.016165 85.641045 84.80243 85.641045 
C 84.588696 85.641045 84.383687 85.725962 84.232554 85.877095 
C 84.081421 86.028228 83.996503 86.233238 83.996503 86.446972 
C 83.996503 86.660707 84.081421 86.865716 84.232554 87.016849 
C 84.383687 87.167982 84.588696 87.2529 84.80243 87.2529 
z
" clip-path="url(#p5fdc0979d1)" style="stroke: #000000"/>
    <path d="M 77.553138 74.463842 
C 77.790401 74.463842 78.017978 74.369577 78.185748 74.201806 
C 78.353518 74.034036 78.447784 73.806459 78.447784 73.569197 
C 78.447784 73.331934 78.353518 73.104357 78.185748 72.936587 
C 78.017978 72.768817 77.790401 72.674551 77.553138 72.674551 
C 77.315876 72.674551 77.088298 72.768817 76.920528 72.936587 
C 76.752758 73.104357 76.658493 73.331934 76.658493 73.569197 
C 76.658493 73.806459 76.752758 74.034036 76.920528 74.201806 
C 77.088298 74.369577 77.315876 74.463842 77.553138 74.463842 
z
" clip-path="url(#p5fdc0979d1)" style="stroke: #000000"/>
    <path d="M 75.198584 63.328354 
C 75.410311 63.328354 75.613396 63.244233 75.763109 63.09452 
C 75.912823 62.944806 75.996943 62.741722 75.996943 62.529994 
C 75.996943 62.318267 75.912823 62.115183 75.763109 61.965469 
C 75.613396 61.815755 75.410311 61.731635 75.198584 61.731635 
C 74.986857 61.731635 74.783773 61.815755 74.634059 61.965469 
C 74.484345 62.115183 74.400225 62.318267 74.400225 62.529994 
C 74.400225 62.741722 74.484345 62.944806 74.634059 63.09452 
C 74.783773 63.244233 74.986857 63.328354 75.198584 63.328354 
z
" clip-path="url(#p5fdc0979d1)" style="stroke: #000000"/>
    <path d="M 69.810661 56.248053 
C 70.047923 56.248053 70.2755 56.153787 70.44327 55.986017 
C 70.61104 55.818247 70.705306 55.59067 70.705306 55.353407 
C 70.705306 55.116144 70.61104 54.888567 70.44327 54.720797 
C 70.2755 54.553027 70.047923 54.458762 69.810661 54.458762 
C 69.573398 54.458762 69.345821 54.553027 69.178051 54.720797 
C 69.010281 54.888567 68.916015 55.116144 68.916015 55.353407 
C 68.916015 55.59067 69.010281 55.818247 69.178051 55.986017 
C 69.345821 56.153787 69.573398 56.248053 69.810661 56.248053 
z
" clip-path="url(#p5fdc0979d1)" style="stroke: #000000"/>
    <path d="M 65.151936 44.685797 
C 65.151936 44.685797 65.151936 44.685797 65.151936 44.685797 
C 65.151936 44.685797 65.151936 44.685797 65.151936 44.685797 
C 65.151936 44.685797 65.151936 44.685797 65.151936 44.685797 
C 65.151936 44.685797 65.151936 44.685797 65.151936 44.685797 
C 65.151936 44.685797 65.151936 44.685797 65.151936 44.685797 
C 65.151936 44.685797 65.151936 44.685797 65.151936 44.685797 
C 65.151936 44.685797 65.151936 44.685797 65.151936 44.685797 
C 65.151936 44.685797 65.151936 44.685797 65.151936 44.685797 
z
" clip-path="url(#p5fdc0979d1)" style="stroke: #000000"/>
    <path d="M 63.933998 35.413018 
C 63.933998 35.413018 63.933998 35.413018 63.933998 35.413018 
C 63.933998 35.413018 63.933998 35.413018 63.933998 35.413018 
C 63.933998 35.413018 63.933998 35.413018 63.933998 35.413018 
C 63.933998 35.413018 63.933998 35.413018 63.933998 35.413018 
C 63.933998 35.413018 63.933998 35.413018 63.933998 35.413018 
C 63.933998 35.413018 63.933998 35.413018 63.933998 35.413018 
C 63.933998 35.413018 63.933998 35.413018 63.933998 35.413018 
C 63.933998 35.413018 63.933998 35.413018 63.933998 35.413018 
z
" clip-path="url(#p5fdc0979d1)" style="stroke: #000000"/>
    <path d="M 99.376422 167.697488 
C 99.612225 167.697488 99.838401 167.603802 100.005139 167.437065 
C 100.171877 167.270327 100.265562 167.044151 100.265562 166.808348 
C 100.265562 166.572545 100.171877 166.346369 100.005139 166.179631 
C 99.838401 166.012894 99.612225 165.919208 99.376422 165.919208 
C 99.14062 165.919208 98.914443 166.012894 98.747706 166.179631 
C 98.580968 166.346369 98.487283 166.572545 98.487283 166.808348 
C 98.487283 167.044151 98.580968 167.270327 98.747706 167.437065 
C 98.914443 167.603802 99.14062 167.697488 99.376422 167.697488 
z
" clip-path="url(#p5fdc0979d1)" style="stroke: #000000"/>
    <path d="M 95.402876 163.173355 
C 95.51438 163.173355 95.621332 163.129054 95.700178 163.050208 
C 95.779023 162.971363 95.823324 162.864411 95.823324 162.752907 
C 95.823324 162.641402 95.779023 162.53445 95.700178 162.455605 
C 95.621332 162.37676 95.51438 162.332458 95.402876 162.332458 
C 95.291372 162.332458 95.184419 162.37676 95.105574 162.455605 
C 95.026729 162.53445 94.982428 162.641402 94.982428 162.752907 
C 94.982428 162.864411 95.026729 162.971363 95.105574 163.050208 
C 95.184419 163.129054 95.291372 163.173355 95.402876 163.173355 
z
" clip-path="url(#p5fdc0979d1)" style="stroke: #000000"/>
    <path d="M 96.401804 153.543825 
C 96.639066 153.543825 96.866643 153.449559 97.034414 153.281789 
C 97.202184 153.114019 97.296449 152.886442 97.296449 152.649179 
C 97.296449 152.411916 97.202184 152.184339 97.034414 152.016569 
C 96.866643 151.848799 96.639066 151.754534 96.401804 151.754534 
C 96.164541 151.754534 95.936964 151.848799 95.769194 152.016569 
C 95.601424 152.184339 95.507158 152.411916 95.507158 152.649179 
C 95.507158 152.886442 95.601424 153.114019 95.769194 153.281789 
C 95.936964 153.449559 96.164541 153.543825 96.401804 153.543825 
z
" clip-path="url(#p5fdc0979d1)" style="stroke: #000000"/>
    <path d="M 88.011653 139.592119 
C 88.247455 139.592119 88.473632 139.498434 88.640369 139.331696 
C 88.807107 139.164959 88.900792 138.938782 88.900792 138.70298 
C 88.900792 138.467177 88.807107 138.241001 88.640369 138.074263 
C 88.473632 137.907525 88.247455 137.81384 88.011653 137.81384 
C 87.77585 137.81384 87.549674 137.907525 87.382936 138.074263 
C 87.216198 138.241001 87.122513 138.467177 87.122513 138.70298 
C 87.122513 138.938782 87.216198 139.164959 87.382936 139.331696 
C 87.549674 139.498434 87.77585 139.592119 88.011653 139.592119 
z
" clip-path="url(#p5fdc0979d1)" style="stroke: #000000"/>
    <path d="M 85.895044 133.189752 
C 86.130847 133.189752 86.357024 133.096067 86.523761 132.929329 
C 86.690499 132.762592 86.784184 132.536415 86.784184 132.300613 
C 86.784184 132.06481 86.690499 131.838634 86.523761 131.671896 
C 86.357024 131.505158 86.130847 131.411473 85.895044 131.411473 
C 85.659242 131.411473 85.433065 131.505158 85.266328 131.671896 
C 85.09959 131.838634 85.005905 132.06481 85.005905 132.300613 
C 85.005905 132.536415 85.09959 132.762592 85.266328 132.929329 
C 85.433065 133.096067 85.659242 133.189752 85.895044 133.189752 
z
" clip-path="url(#p5fdc0979d1)" style="stroke: #000000"/>
    <path d="M 82.788061 120.584758 
C 83.025324 120.584758 83.252901 120.490492 83.420671 120.322722 
C 83.588441 120.154952 83.682707 119.927375 83.682707 119.690112 
C 83.682707 119.452849 83.588441 119.225272 83.420671 119.057502 
C 83.252901 118.889732 83.025324 118.795467 82.788061 118.795467 
C 82.550798 118.795467 82.323221 118.889732 82.155451 119.057502 
C 81.987681 119.225272 81.893416 119.452849 81.893416 119.690112 
C 81.893416 119.927375 81.987681 120.154952 82.155451 120.322722 
C 82.323221 120.490492 82.550798 120.584758 82.788061 120.584758 
z
" clip-path="url(#p5fdc0979d1)" style="stroke: #000000"/>
    <path d="M 77.980866 114.966542 
C 78.218129 114.966542 78.445706 114.872277 78.613476 114.704507 
C 78.781246 114.536736 78.875512 114.309159 78.875512 114.071897 
C 78.875512 113.834634 78.781246 113.607057 78.613476 113.439287 
C 78.445706 113.271517 78.218129 113.177251 77.980866 113.177251 
C 77.743604 113.177251 77.516027 113.271517 77.348257 113.439287 
C 77.180486 113.607057 77.086221 113.834634 77.086221 114.071897 
C 77.086221 114.309159 77.180486 114.536736 77.348257 114.704507 
C 77.516027 114.872277 77.743604 114.966542 77.980866 114.966542 
z
" clip-path="url(#p5fdc0979d1)" style="stroke: #000000"/>
    <path d="M 72.521288 101.372742 
C 72.758551 101.372742 72.986128 101.278476 73.153898 101.110706 
C 73.321668 100.942936 73.415933 100.715359 73.415933 100.478096 
C 73.415933 100.240833 73.321668 100.013256 73.153898 99.845486 
C 72.986128 99.677716 72.758551 99.583451 72.521288 99.583451 
C 72.284025 99.583451 72.056448 99.677716 71.888678 99.845486 
C 71.720908 100.013256 71.626642 100.240833 71.626642 100.478096 
C 71.626642 100.715359 71.720908 100.942936 71.888678 101.110706 
C 72.056448 101.278476 72.284025 101.372742 72.521288 101.372742 
z
" clip-path="url(#p5fdc0979d1)" style="stroke: #000000"/>
    <path d="M 73.095011 89.336808 
C 73.330814 89.336808 73.55699 89.243122 73.723728 89.076385 
C 73.890466 88.909647 73.984151 88.683471 73.984151 88.447668 
C 73.984151 88.211865 73.890466 87.985689 73.723728 87.818951 
C 73.55699 87.652214 73.330814 87.558528 73.095011 87.558528 
C 72.859209 87.558528 72.633032 87.652214 72.466295 87.818951 
C 72.299557 87.985689 72.205872 88.211865 72.205872 88.447668 
C 72.205872 88.683471 72.299557 88.909647 72.466295 89.076385 
C 72.633032 89.243122 72.859209 89.336808 73.095011 89.336808 
z
" clip-path="url(#p5fdc0979d1)" style="stroke: #000000"/>
    <path d="M 69.449151 82.662112 
C 69.684953 82.662112 69.91113 82.568426 70.077867 82.401689 
C 70.244605 82.234951 70.33829 82.008775 70.33829 81.772972 
C 70.33829 81.537169 70.244605 81.310993 70.077867 81.144255 
C 69.91113 80.977518 69.684953 80.883832 69.449151 80.883832 
C 69.213348 80.883832 68.987172 80.977518 68.820434 81.144255 
C 68.653696 81.310993 68.560011 81.537169 68.560011 81.772972 
C 68.560011 82.008775 68.653696 82.234951 68.820434 82.401689 
C 68.987172 82.568426 69.213348 82.662112 69.449151 82.662112 
z
" clip-path="url(#p5fdc0979d1)" style="stroke: #000000"/>
    <path d="M 65.859492 63.431194 
C 65.859492 63.431194 65.859492 63.431194 65.859492 63.431194 
C 65.859492 63.431194 65.859492 63.431194 65.859492 63.431194 
C 65.859492 63.431194 65.859492 63.431194 65.859492 63.431194 
C 65.859492 63.431194 65.859492 63.431194 65.859492 63.431194 
C 65.859492 63.431194 65.859492 63.431194 65.859492 63.431194 
C 65.859492 63.431194 65.859492 63.431194 65.859492 63.431194 
C 65.859492 63.431194 65.859492 63.431194 65.859492 63.431194 
C 65.859492 63.431194 65.859492 63.431194 65.859492 63.431194 
z
" clip-path="url(#p5fdc0979d1)" style="stroke: #000000"/>
    <path d="M 57.600974 57.971723 
C 57.763378 57.971723 57.919151 57.907199 58.033987 57.792363 
C 58.148824 57.677527 58.213347 57.521754 58.213347 57.35935 
C 58.213347 57.196947 58.148824 57.041174 58.033987 56.926338 
C 57.919151 56.811501 57.763378 56.746978 57.600974 56.746978 
C 57.438571 56.746978 57.282798 56.811501 57.167962 56.926338 
C 57.053125 57.041174 56.988602 57.196947 56.988602 57.35935 
C 56.988602 57.521754 57.053125 57.677527 57.167962 57.792363 
C 57.282798 57.907199 57.438571 57.971723 57.600974 57.971723 
z
" clip-path="url(#p5fdc0979d1)" style="stroke: #000000"/>
    <path d="M 56.626563 48.896539 
C 56.862366 48.896539 57.088542 48.802853 57.25528 48.636116 
C 57.422017 48.469378 57.515703 48.243201 57.515703 48.007399 
C 57.515703 47.771596 57.422017 47.54542 57.25528 47.378682 
C 57.088542 47.211944 56.862366 47.118259 56.626563 47.118259 
C 56.39076 47.118259 56.164584 47.211944 55.997846 47.378682 
C 55.831109 47.54542 55.737423 47.771596 55.737423 48.007399 
C 55.737423 48.243201 55.831109 48.469378 55.997846 48.636116 
C 56.164584 48.802853 56.39076 48.896539 56.626563 48.896539 
z
" clip-path="url(#p5fdc0979d1)" style="stroke: #000000"/>
    <path d="M 56.677546 35.87761 
C 56.771309 35.87761 56.861245 35.840358 56.927546 35.774057 
C 56.993846 35.707756 57.031099 35.61782 57.031099 35.524057 
C 57.031099 35.430293 56.993846 35.340358 56.927546 35.274057 
C 56.861245 35.207756 56.771309 35.170504 56.677546 35.170504 
C 56.583782 35.170504 56.493846 35.207756 56.427546 35.274057 
C 56.361245 35.340358 56.323992 35.430293 56.323992 35.524057 
C 56.323992 35.61782 56.361245 35.707756 56.427546 35.774057 
C 56.493846 35.840358 56.583782 35.87761 56.677546 35.87761 
z
" clip-path="url(#p5fdc0979d1)" style="stroke: #000000"/>
    <path d="M 95.756547 175.636513 
C 95.850311 175.636513 95.940246 175.59926 96.006547 175.532959 
C 96.072848 175.466659 96.110101 175.376723 96.110101 175.282959 
C 96.110101 175.189196 96.072848 175.09926 96.006547 175.032959 
C 95.940246 174.966659 95.850311 174.929406 95.756547 174.929406 
C 95.662784 174.929406 95.572848 174.966659 95.506547 175.032959 
C 95.440246 175.09926 95.402994 175.189196 95.402994 175.282959 
C 95.402994 175.376723 95.440246 175.466659 95.506547 175.532959 
C 95.572848 175.59926 95.662784 175.636513 95.756547 175.636513 
z
" clip-path="url(#p5fdc0979d1)" style="stroke: #000000"/>
    <path d="M 85.671349 165.223212 
C 85.811558 165.223212 85.946043 165.167506 86.045186 165.068364 
C 86.144329 164.969221 86.200034 164.834736 86.200034 164.694526 
C 86.200034 164.554317 86.144329 164.419832 86.045186 164.320689 
C 85.946043 164.221547 85.811558 164.165841 85.671349 164.165841 
C 85.53114 164.165841 85.396654 164.221547 85.297511 164.320689 
C 85.198369 164.419832 85.142663 164.554317 85.142663 164.694526 
C 85.142663 164.834736 85.198369 164.969221 85.297511 165.068364 
C 85.396654 165.167506 85.53114 165.223212 85.671349 165.223212 
z
" clip-path="url(#p5fdc0979d1)" style="stroke: #000000"/>
    <path d="M 84.404979 158.195619 
C 84.642242 158.195619 84.869819 158.101354 85.037589 157.933584 
C 85.205359 157.765814 85.299625 157.538237 85.299625 157.300974 
C 85.299625 157.063711 85.205359 156.836134 85.037589 156.668364 
C 84.869819 156.500594 84.642242 156.406328 84.404979 156.406328 
C 84.167717 156.406328 83.94014 156.500594 83.77237 156.668364 
C 83.604599 156.836134 83.510334 157.063711 83.510334 157.300974 
C 83.510334 157.538237 83.604599 157.765814 83.77237 157.933584 
C 83.94014 158.101354 84.167717 158.195619 84.404979 158.195619 
z
" clip-path="url(#p5fdc0979d1)" style="stroke: #000000"/>
    <path d="M 78.401954 142.072672 
C 78.639217 142.072672 78.866794 141.978407 79.034564 141.810637 
C 79.202334 141.642867 79.296599 141.41529 79.296599 141.178027 
C 79.296599 140.940764 79.202334 140.713187 79.034564 140.545417 
C 78.866794 140.377647 78.639217 140.283381 78.401954 140.283381 
C 78.164691 140.283381 77.937114 140.377647 77.769344 140.545417 
C 77.601574 140.713187 77.507308 140.940764 77.507308 141.178027 
C 77.507308 141.41529 77.601574 141.642867 77.769344 141.810637 
C 77.937114 141.978407 78.164691 142.072672 78.401954 142.072672 
z
" clip-path="url(#p5fdc0979d1)" style="stroke: #000000"/>
    <path d="M 74.167479 133.907834 
C 74.404742 133.907834 74.632319 133.813568 74.800089 133.645798 
C 74.967859 133.478028 75.062125 133.250451 75.062125 133.013188 
C 75.062125 132.775926 74.967859 132.548349 74.800089 132.380579 
C 74.632319 132.212808 74.404742 132.118543 74.167479 132.118543 
C 73.930217 132.118543 73.70264 132.212808 73.534869 132.380579 
C 73.367099 132.548349 73.272834 132.775926 73.272834 133.013188 
C 73.272834 133.250451 73.367099 133.478028 73.534869 133.645798 
C 73.70264 133.813568 73.930217 133.907834 74.167479 133.907834 
z
" clip-path="url(#p5fdc0979d1)" style="stroke: #000000"/>
    <path d="M 70.716693 125.838337 
C 70.928421 125.838337 71.131505 125.754217 71.281219 125.604503 
C 71.430932 125.454789 71.515053 125.251705 71.515053 125.039978 
C 71.515053 124.82825 71.430932 124.625166 71.281219 124.475453 
C 71.131505 124.325739 70.928421 124.241619 70.716693 124.241619 
C 70.504966 124.241619 70.301882 124.325739 70.152168 124.475453 
C 70.002454 124.625166 69.918334 124.82825 69.918334 125.039978 
C 69.918334 125.251705 70.002454 125.454789 70.152168 125.604503 
C 70.301882 125.754217 70.504966 125.838337 70.716693 125.838337 
z
" clip-path="url(#p5fdc0979d1)" style="stroke: #000000"/>
    <path d="M 67.181163 112.213035 
C 67.39685 112.213035 67.603732 112.127342 67.756245 111.974828 
C 67.908758 111.822315 67.994452 111.615433 67.994452 111.399747 
C 67.994452 111.18406 67.908758 110.977178 67.756245 110.824665 
C 67.603732 110.672152 67.39685 110.586458 67.181163 110.586458 
C 66.965477 110.586458 66.758595 110.672152 66.606082 110.824665 
C 66.453568 110.977178 66.367875 111.18406 66.367875 111.399747 
C 66.367875 111.615433 66.453568 111.822315 66.606082 111.974828 
C 66.758595 112.127342 66.965477 112.213035 67.181163 112.213035 
z
" clip-path="url(#p5fdc0979d1)" style="stroke: #000000"/>
    <path d="M 63.764969 104.07767 
C 63.974631 104.07767 64.175733 103.99437 64.323986 103.846117 
C 64.472239 103.697864 64.555539 103.496762 64.555539 103.2871 
C 64.555539 103.077439 64.472239 102.876336 64.323986 102.728083 
C 64.175733 102.57983 63.974631 102.496531 63.764969 102.496531 
C 63.555308 102.496531 63.354205 102.57983 63.205952 102.728083 
C 63.057699 102.876336 62.9744 103.077439 62.9744 103.2871 
C 62.9744 103.496762 63.057699 103.697864 63.205952 103.846117 
C 63.354205 103.99437 63.555308 104.07767 63.764969 104.07767 
z
" clip-path="url(#p5fdc0979d1)" style="stroke: #000000"/>
    <path d="M 57.116605 90.785248 
C 57.353868 90.785248 57.581445 90.690983 57.749215 90.523212 
C 57.916985 90.355442 58.01125 90.127865 58.01125 89.890603 
C 58.01125 89.65334 57.916985 89.425763 57.749215 89.257993 
C 57.581445 89.090223 57.353868 88.995957 57.116605 88.995957 
C 56.879342 88.995957 56.651765 89.090223 56.483995 89.257993 
C 56.316225 89.425763 56.221959 89.65334 56.221959 89.890603 
C 56.221959 90.127865 56.316225 90.355442 56.483995 90.523212 
C 56.651765 90.690983 56.879342 90.785248 57.116605 90.785248 
z
" clip-path="url(#p5fdc0979d1)" style="stroke: #000000"/>
    <path d="M 56.84316 81.946339 
C 57.078962 81.946339 57.305139 81.852654 57.471877 81.685916 
C 57.638614 81.519178 57.7323 81.293002 57.7323 81.057199 
C 57.7323 80.821397 57.638614 80.59522 57.471877 80.428483 
C 57.305139 80.261745 57.078962 80.16806 56.84316 80.16806 
C 56.607357 80.16806 56.381181 80.261745 56.214443 80.428483 
C 56.047706 80.59522 55.95402 80.821397 55.95402 81.057199 
C 55.95402 81.293002 56.047706 81.519178 56.214443 81.685916 
C 56.381181 81.852654 56.607357 81.946339 56.84316 81.946339 
z
" clip-path="url(#p5fdc0979d1)" style="stroke: #000000"/>
    <path d="M 56.226439 77.481933 
C 56.440173 77.481933 56.645182 77.397016 56.796315 77.245883 
C 56.947448 77.094749 57.032366 76.88974 57.032366 76.676006 
C 57.032366 76.462271 56.947448 76.257262 56.796315 76.106129 
C 56.645182 75.954996 56.440173 75.870078 56.226439 75.870078 
C 56.012704 75.870078 55.807695 75.954996 55.656562 76.106129 
C 55.505429 76.257262 55.420511 76.462271 55.420511 76.676006 
C 55.420511 76.88974 55.505429 77.094749 55.656562 77.245883 
C 55.807695 77.397016 56.012704 77.481933 56.226439 77.481933 
z
" clip-path="url(#p5fdc0979d1)" style="stroke: #000000"/>
    <path d="M 52.366342 58.926814 
C 52.366342 58.926814 52.366342 58.926814 52.366342 58.926814 
C 52.366342 58.926814 52.366342 58.926814 52.366342 58.926814 
C 52.366342 58.926814 52.366342 58.926814 52.366342 58.926814 
C 52.366342 58.926814 52.366342 58.926814 52.366342 58.926814 
C 52.366342 58.926814 52.366342 58.926814 52.366342 58.926814 
C 52.366342 58.926814 52.366342 58.926814 52.366342 58.926814 
C 52.366342 58.926814 52.366342 58.926814 52.366342 58.926814 
C 52.366342 58.926814 52.366342 58.926814 52.366342 58.926814 
z
" clip-path="url(#p5fdc0979d1)" style="stroke: #000000"/>
    <path d="M 45.946438 48.754822 
C 45.946438 48.754822 45.946438 48.754822 45.946438 48.754822 
C 45.946438 48.754822 45.946438 48.754822 45.946438 48.754822 
C 45.946438 48.754822 45.946438 48.754822 45.946438 48.754822 
C 45.946438 48.754822 45.946438 48.754822 45.946438 48.754822 
C 45.946438 48.754822 45.946438 48.754822 45.946438 48.754822 
C 45.946438 48.754822 45.946438 48.754822 45.946438 48.754822 
C 45.946438 48.754822 45.946438 48.754822 45.946438 48.754822 
C 45.946438 48.754822 45.946438 48.754822 45.946438 48.754822 
z
" clip-path="url(#p5fdc0979d1)" style="stroke: #000000"/>
    <path d="M 80.565886 178.342178 
C 80.565886 178.342178 80.565886 178.342178 80.565886 178.342178 
C 80.565886 178.342178 80.565886 178.342178 80.565886 178.342178 
C 80.565886 178.342178 80.565886 178.342178 80.565886 178.342178 
C 80.565886 178.342178 80.565886 178.342178 80.565886 178.342178 
C 80.565886 178.342178 80.565886 178.342178 80.565886 178.342178 
C 80.565886 178.342178 80.565886 178.342178 80.565886 178.342178 
C 80.565886 178.342178 80.565886 178.342178 80.565886 178.342178 
C 80.565886 178.342178 80.565886 178.342178 80.565886 178.342178 
z
" clip-path="url(#p5fdc0979d1)" style="stroke: #000000"/>
    <path d="M 75.016086 165.905577 
C 75.251888 165.905577 75.478065 165.811891 75.644803 165.645154 
C 75.81154 165.478416 75.905226 165.252239 75.905226 165.016437 
C 75.905226 164.780634 75.81154 164.554458 75.644803 164.38772 
C 75.478065 164.220982 75.251888 164.127297 75.016086 164.127297 
C 74.780283 164.127297 74.554107 164.220982 74.387369 164.38772 
C 74.220632 164.554458 74.126946 164.780634 74.126946 165.016437 
C 74.126946 165.252239 74.220632 165.478416 74.387369 165.645154 
C 74.554107 165.811891 74.780283 165.905577 75.016086 165.905577 
z
" clip-path="url(#p5fdc0979d1)" style="stroke: #000000"/>
    <path d="M 72.113551 154.925382 
C 72.113551 154.925382 72.113551 154.925382 72.113551 154.925382 
C 72.113551 154.925382 72.113551 154.925382 72.113551 154.925382 
C 72.113551 154.925382 72.113551 154.925382 72.113551 154.925382 
C 72.113551 154.925382 72.113551 154.925382 72.113551 154.925382 
C 72.113551 154.925382 72.113551 154.925382 72.113551 154.925382 
C 72.113551 154.925382 72.113551 154.925382 72.113551 154.925382 
C 72.113551 154.925382 72.113551 154.925382 72.113551 154.925382 
C 72.113551 154.925382 72.113551 154.925382 72.113551 154.925382 
z
" clip-path="url(#p5fdc0979d1)" style="stroke: #000000"/>
    <path d="M 65.442802 147.824666 
C 65.442802 147.824666 65.442802 147.824666 65.442802 147.824666 
C 65.442802 147.824666 65.442802 147.824666 65.442802 147.824666 
C 65.442802 147.824666 65.442802 147.824666 65.442802 147.824666 
C 65.442802 147.824666 65.442802 147.824666 65.442802 147.824666 
C 65.442802 147.824666 65.442802 147.824666 65.442802 147.824666 
C 65.442802 147.824666 65.442802 147.824666 65.442802 147.824666 
C 65.442802 147.824666 65.442802 147.824666 65.442802 147.824666 
C 65.442802 147.824666 65.442802 147.824666 65.442802 147.824666 
z
" clip-path="url(#p5fdc0979d1)" style="stroke: #000000"/>
    <path d="M 63.12964 138.86216 
C 63.366903 138.86216 63.59448 138.767894 63.76225 138.600124 
C 63.93002 138.432354 64.024285 138.204777 64.024285 137.967514 
C 64.024285 137.730251 63.93002 137.502674 63.76225 137.334904 
C 63.59448 137.167134 63.366903 137.072869 63.12964 137.072869 
C 62.892377 137.072869 62.6648 137.167134 62.49703 137.334904 
C 62.32926 137.502674 62.234994 137.730251 62.234994 137.967514 
C 62.234994 138.204777 62.32926 138.432354 62.49703 138.600124 
C 62.6648 138.767894 62.892377 138.86216 63.12964 138.86216 
z
" clip-path="url(#p5fdc0979d1)" style="stroke: #000000"/>
    <path d="M 56.660588 129.46361 
C 56.818279 129.46361 56.969532 129.400959 57.081036 129.289455 
C 57.192541 129.177951 57.255192 129.026698 57.255192 128.869007 
C 57.255192 128.711316 57.192541 128.560063 57.081036 128.448559 
C 56.969532 128.337055 56.818279 128.274403 56.660588 128.274403 
C 56.502897 128.274403 56.351644 128.337055 56.24014 128.448559 
C 56.128636 128.560063 56.065985 128.711316 56.065985 128.869007 
C 56.065985 129.026698 56.128636 129.177951 56.24014 129.289455 
C 56.351644 129.400959 56.502897 129.46361 56.660588 129.46361 
z
" clip-path="url(#p5fdc0979d1)" style="stroke: #000000"/>
    <path d="M 56.213121 118.434139 
C 56.448924 118.434139 56.6751 118.340453 56.841838 118.173716 
C 57.008576 118.006978 57.102261 117.780802 57.102261 117.544999 
C 57.102261 117.309196 57.008576 117.08302 56.841838 116.916282 
C 56.6751 116.749545 56.448924 116.655859 56.213121 116.655859 
C 55.977319 116.655859 55.751142 116.749545 55.584405 116.916282 
C 55.417667 117.08302 55.323982 117.309196 55.323982 117.544999 
C 55.323982 117.780802 55.417667 118.006978 55.584405 118.173716 
C 55.751142 118.340453 55.977319 118.434139 56.213121 118.434139 
z
" clip-path="url(#p5fdc0979d1)" style="stroke: #000000"/>
    <path d="M 53.078547 107.705162 
C 53.358965 107.705162 53.627935 107.593751 53.826221 107.395465 
C 54.024507 107.19718 54.135918 106.928209 54.135918 106.647791 
C 54.135918 106.367373 54.024507 106.098402 53.826221 105.900116 
C 53.627935 105.701831 53.358965 105.59042 53.078547 105.59042 
C 52.798128 105.59042 52.529158 105.701831 52.330872 105.900116 
C 52.132587 106.098402 52.021175 106.367373 52.021175 106.647791 
C 52.021175 106.928209 52.132587 107.19718 52.330872 107.395465 
C 52.529158 107.593751 52.798128 107.705162 53.078547 107.705162 
z
" clip-path="url(#p5fdc0979d1)" style="stroke: #000000"/>
    <path d="M 47.776548 95.573531 
C 48.013811 95.573531 48.241388 95.479266 48.409158 95.311496 
C 48.576928 95.143726 48.671193 94.916149 48.671193 94.678886 
C 48.671193 94.441623 48.576928 94.214046 48.409158 94.046276 
C 48.241388 93.878506 48.013811 93.78424 47.776548 93.78424 
C 47.539285 93.78424 47.311708 93.878506 47.143938 94.046276 
C 46.976168 94.214046 46.881902 94.441623 46.881902 94.678886 
C 46.881902 94.916149 46.976168 95.143726 47.143938 95.311496 
C 47.311708 95.479266 47.539285 95.573531 47.776548 95.573531 
z
" clip-path="url(#p5fdc0979d1)" style="stroke: #000000"/>
    <path d="M 47.793459 87.014962 
C 48.007194 87.014962 48.212203 86.930045 48.363336 86.778911 
C 48.514469 86.627778 48.599387 86.422769 48.599387 86.209035 
C 48.599387 85.9953 48.514469 85.790291 48.363336 85.639158 
C 48.212203 85.488025 48.007194 85.403107 47.793459 85.403107 
C 47.579725 85.403107 47.374716 85.488025 47.223582 85.639158 
C 47.072449 85.790291 46.987532 85.9953 46.987532 86.209035 
C 46.987532 86.422769 47.072449 86.627778 47.223582 86.778911 
C 47.374716 86.930045 47.579725 87.014962 47.793459 87.014962 
z
" clip-path="url(#p5fdc0979d1)" style="stroke: #000000"/>
    <path d="M 42.331172 76.312452 
C 42.331172 76.312452 42.331172 76.312452 42.331172 76.312452 
C 42.331172 76.312452 42.331172 76.312452 42.331172 76.312452 
C 42.331172 76.312452 42.331172 76.312452 42.331172 76.312452 
C 42.331172 76.312452 42.331172 76.312452 42.331172 76.312452 
C 42.331172 76.312452 42.331172 76.312452 42.331172 76.312452 
C 42.331172 76.312452 42.331172 76.312452 42.331172 76.312452 
C 42.331172 76.312452 42.331172 76.312452 42.331172 76.312452 
C 42.331172 76.312452 42.331172 76.312452 42.331172 76.312452 
z
" clip-path="url(#p5fdc0979d1)" style="stroke: #000000"/>
    <path d="M 41.690753 69.455078 
C 41.928016 69.455078 42.155593 69.360813 42.323363 69.193043 
C 42.491133 69.025273 42.585399 68.797695 42.585399 68.560433 
C 42.585399 68.32317 42.491133 68.095593 42.323363 67.927823 
C 42.155593 67.760053 41.928016 67.665787 41.690753 67.665787 
C 41.45349 67.665787 41.225913 67.760053 41.058143 67.927823 
C 40.890373 68.095593 40.796108 68.32317 40.796108 68.560433 
C 40.796108 68.797695 40.890373 69.025273 41.058143 69.193043 
C 41.225913 69.360813 41.45349 69.455078 41.690753 69.455078 
z
" clip-path="url(#p5fdc0979d1)" style="stroke: #000000"/>
    <path d="M 66.427133 167.888149 
C 66.662935 167.888149 66.889112 167.794464 67.055849 167.627726 
C 67.222587 167.460989 67.316272 167.234812 67.316272 166.99901 
C 67.316272 166.763207 67.222587 166.537031 67.055849 166.370293 
C 66.889112 166.203555 66.662935 166.10987 66.427133 166.10987 
C 66.19133 166.10987 65.965154 166.203555 65.798416 166.370293 
C 65.631678 166.537031 65.537993 166.763207 65.537993 166.99901 
C 65.537993 167.234812 65.631678 167.460989 65.798416 167.627726 
C 65.965154 167.794464 66.19133 167.888149 66.427133 167.888149 
z
" clip-path="url(#p5fdc0979d1)" style="stroke: #000000"/>
    <path d="M 57.498003 161.939974 
C 57.733805 161.939974 57.959982 161.846288 58.126719 161.679551 
C 58.293457 161.512813 58.387142 161.286637 58.387142 161.050834 
C 58.387142 160.815031 58.293457 160.588855 58.126719 160.422117 
C 57.959982 160.25538 57.733805 160.161694 57.498003 160.161694 
C 57.2622 160.161694 57.036024 160.25538 56.869286 160.422117 
C 56.702548 160.588855 56.608863 160.815031 56.608863 161.050834 
C 56.608863 161.286637 56.702548 161.512813 56.869286 161.679551 
C 57.036024 161.846288 57.2622 161.939974 57.498003 161.939974 
z
" clip-path="url(#p5fdc0979d1)" style="stroke: #000000"/>
    <path d="M 56.892744 153.597651 
C 57.104471 153.597651 57.307555 153.513531 57.457269 153.363817 
C 57.606983 153.214103 57.691103 153.011019 57.691103 152.799292 
C 57.691103 152.587565 57.606983 152.38448 57.457269 152.234767 
C 57.307555 152.085053 57.104471 152.000933 56.892744 152.000933 
C 56.681017 152.000933 56.477933 152.085053 56.328219 152.234767 
C 56.178505 152.38448 56.094385 152.587565 56.094385 152.799292 
C 56.094385 153.011019 56.178505 153.214103 56.328219 153.363817 
C 56.477933 153.513531 56.681017 153.597651 56.892744 153.597651 
z
" clip-path="url(#p5fdc0979d1)" style="stroke: #000000"/>
    <path d="M 52.622959 141.406376 
C 52.622959 141.406376 52.622959 141.406376 52.622959 141.406376 
C 52.622959 141.406376 52.622959 141.406376 52.622959 141.406376 
C 52.622959 141.406376 52.622959 141.406376 52.622959 141.406376 
C 52.622959 141.406376 52.622959 141.406376 52.622959 141.406376 
C 52.622959 141.406376 52.622959 141.406376 52.622959 141.406376 
C 52.622959 141.406376 52.622959 141.406376 52.622959 141.406376 
C 52.622959 141.406376 52.622959 141.406376 52.622959 141.406376 
C 52.622959 141.406376 52.622959 141.406376 52.622959 141.406376 
z
" clip-path="url(#p5fdc0979d1)" style="stroke: #000000"/>
    <path d="M 49.837019 131.727352 
C 50.074282 131.727352 50.301859 131.633086 50.469629 131.465316 
C 50.637399 131.297546 50.731665 131.069969 50.731665 130.832706 
C 50.731665 130.595444 50.637399 130.367867 50.469629 130.200097 
C 50.301859 130.032326 50.074282 129.938061 49.837019 129.938061 
C 49.599757 129.938061 49.37218 130.032326 49.20441 130.200097 
C 49.036639 130.367867 48.942374 130.595444 48.942374 130.832706 
C 48.942374 131.069969 49.036639 131.297546 49.20441 131.465316 
C 49.37218 131.633086 49.599757 131.727352 49.837019 131.727352 
z
" clip-path="url(#p5fdc0979d1)" style="stroke: #000000"/>
    <path d="M 48.254873 114.970659 
C 48.490675 114.970659 48.716852 114.876973 48.88359 114.710236 
C 49.050327 114.543498 49.144013 114.317322 49.144013 114.081519 
C 49.144013 113.845717 49.050327 113.61954 48.88359 113.452802 
C 48.716852 113.286065 48.490675 113.192379 48.254873 113.192379 
C 48.01907 113.192379 47.792894 113.286065 47.626156 113.452802 
C 47.459419 113.61954 47.365733 113.845717 47.365733 114.081519 
C 47.365733 114.317322 47.459419 114.543498 47.626156 114.710236 
C 47.792894 114.876973 48.01907 114.970659 48.254873 114.970659 
z
" clip-path="url(#p5fdc0979d1)" style="stroke: #000000"/>
    <path d="M 43.98042 110.261324 
C 44.10382 110.261324 44.222182 110.212297 44.309439 110.12504 
C 44.396696 110.037784 44.445723 109.919422 44.445723 109.796022 
C 44.445723 109.672622 44.396696 109.55426 44.309439 109.467003 
C 44.222182 109.379747 44.10382 109.330719 43.98042 109.330719 
C 43.857021 109.330719 43.738659 109.379747 43.651402 109.467003 
C 43.564145 109.55426 43.515118 109.672622 43.515118 109.796022 
C 43.515118 109.919422 43.564145 110.037784 43.651402 110.12504 
C 43.738659 110.212297 43.857021 110.261324 43.98042 110.261324 
z
" clip-path="url(#p5fdc0979d1)" style="stroke: #000000"/>
    <path d="M 43.75388 99.68169 
C 43.967615 99.68169 44.172624 99.596773 44.323757 99.44564 
C 44.47489 99.294507 44.559808 99.089497 44.559808 98.875763 
C 44.559808 98.662028 44.47489 98.457019 44.323757 98.305886 
C 44.172624 98.154753 43.967615 98.069835 43.75388 98.069835 
C 43.540146 98.069835 43.335137 98.154753 43.184004 98.305886 
C 43.032871 98.457019 42.947953 98.662028 42.947953 98.875763 
C 42.947953 99.089497 43.032871 99.294507 43.184004 99.44564 
C 43.335137 99.596773 43.540146 99.68169 43.75388 99.68169 
z
" clip-path="url(#p5fdc0979d1)" style="stroke: #000000"/>
    <path d="M 34.132906 90.02298 
C 34.368709 90.02298 34.594885 89.929294 34.761623 89.762557 
C 34.92836 89.595819 35.022046 89.369643 35.022046 89.13384 
C 35.022046 88.898038 34.92836 88.671861 34.761623 88.505123 
C 34.594885 88.338386 34.368709 88.2447 34.132906 88.2447 
C 33.897104 88.2447 33.670927 88.338386 33.504189 88.505123 
C 33.337452 88.671861 33.243766 88.898038 33.243766 89.13384 
C 33.243766 89.369643 33.337452 89.595819 33.504189 89.762557 
C 33.670927 89.929294 33.897104 90.02298 34.132906 90.02298 
z
" clip-path="url(#p5fdc0979d1)" style="stroke: #000000"/>
    <path d="M 52.282788 174.538556 
C 52.282788 174.538556 52.282788 174.538556 52.282788 174.538556 
C 52.282788 174.538556 52.282788 174.538556 52.282788 174.538556 
C 52.282788 174.538556 52.282788 174.538556 52.282788 174.538556 
C 52.282788 174.538556 52.282788 174.538556 52.282788 174.538556 
C 52.282788 174.538556 52.282788 174.538556 52.282788 174.538556 
C 52.282788 174.538556 52.282788 174.538556 52.282788 174.538556 
C 52.282788 174.538556 52.282788 174.538556 52.282788 174.538556 
C 52.282788 174.538556 52.282788 174.538556 52.282788 174.538556 
z
" clip-path="url(#p5fdc0979d1)" style="stroke: #000000"/>
    <path d="M 48.123307 166.851323 
C 48.36057 166.851323 48.588147 166.757057 48.755917 166.589287 
C 48.923687 166.421517 49.017953 166.19394 49.017953 165.956677 
C 49.017953 165.719415 48.923687 165.491837 48.755917 165.324067 
C 48.588147 165.156297 48.36057 165.062032 48.123307 165.062032 
C 47.886044 165.062032 47.658467 165.156297 47.490697 165.324067 
C 47.322927 165.491837 47.228662 165.719415 47.228662 165.956677 
C 47.228662 166.19394 47.322927 166.421517 47.490697 166.589287 
C 47.658467 166.757057 47.886044 166.851323 48.123307 166.851323 
z
" clip-path="url(#p5fdc0979d1)" style="stroke: #000000"/>
    <path d="M 45.678335 158.631334 
C 45.915598 158.631334 46.143175 158.537068 46.310945 158.369298 
C 46.478715 158.201528 46.572981 157.973951 46.572981 157.736688 
C 46.572981 157.499426 46.478715 157.271849 46.310945 157.104079 
C 46.143175 156.936308 45.915598 156.842043 45.678335 156.842043 
C 45.441072 156.842043 45.213495 156.936308 45.045725 157.104079 
C 44.877955 157.271849 44.78369 157.499426 44.78369 157.736688 
C 44.78369 157.973951 44.877955 158.201528 45.045725 158.369298 
C 45.213495 158.537068 45.441072 158.631334 45.678335 158.631334 
z
" clip-path="url(#p5fdc0979d1)" style="stroke: #000000"/>
    <path d="M 44.62518 148.341669 
C 44.815571 148.341669 44.99819 148.266026 45.132816 148.131399 
C 45.267443 147.996773 45.343086 147.814154 45.343086 147.623764 
C 45.343086 147.433373 45.267443 147.250754 45.132816 147.116128 
C 44.99819 146.981501 44.815571 146.905858 44.62518 146.905858 
C 44.43479 146.905858 44.252171 146.981501 44.117545 147.116128 
C 43.982918 147.250754 43.907275 147.433373 43.907275 147.623764 
C 43.907275 147.814154 43.982918 147.996773 44.117545 148.131399 
C 44.252171 148.266026 44.43479 148.341669 44.62518 148.341669 
z
" clip-path="url(#p5fdc0979d1)" style="stroke: #000000"/>
    <path d="M 46.452721 133.082732 
C 46.689983 133.082732 46.91756 132.988466 47.08533 132.820696 
C 47.253101 132.652926 47.347366 132.425349 47.347366 132.188086 
C 47.347366 131.950824 47.253101 131.723247 47.08533 131.555476 
C 46.91756 131.387706 46.689983 131.293441 46.452721 131.293441 
C 46.215458 131.293441 45.987881 131.387706 45.820111 131.555476 
C 45.652341 131.723247 45.558075 131.950824 45.558075 132.188086 
C 45.558075 132.425349 45.652341 132.652926 45.820111 132.820696 
C 45.987881 132.988466 46.215458 133.082732 46.452721 133.082732 
z
" clip-path="url(#p5fdc0979d1)" style="stroke: #000000"/>
    <path d="M 33.200299 129.128612 
C 33.407831 129.128612 33.606892 129.046158 33.75364 128.899411 
C 33.900388 128.752663 33.982841 128.553602 33.982841 128.34607 
C 33.982841 128.138537 33.900388 127.939476 33.75364 127.792729 
C 33.606892 127.645981 33.407831 127.563527 33.200299 127.563527 
C 32.992766 127.563527 32.793706 127.645981 32.646958 127.792729 
C 32.50021 127.939476 32.417757 128.138537 32.417757 128.34607 
C 32.417757 128.553602 32.50021 128.752663 32.646958 128.899411 
C 32.793706 129.046158 32.992766 129.128612 33.200299 129.128612 
z
" clip-path="url(#p5fdc0979d1)" style="stroke: #000000"/>
    <path d="M 33.654227 110.191198 
C 33.867961 110.191198 34.072971 110.106281 34.224104 109.955148 
C 34.375237 109.804015 34.460154 109.599005 34.460154 109.385271 
C 34.460154 109.171536 34.375237 108.966527 34.224104 108.815394 
C 34.072971 108.664261 33.867961 108.579343 33.654227 108.579343 
C 33.440493 108.579343 33.235483 108.664261 33.08435 108.815394 
C 32.933217 108.966527 32.8483 109.171536 32.8483 109.385271 
C 32.8483 109.599005 32.933217 109.804015 33.08435 109.955148 
C 33.235483 110.106281 33.440493 110.191198 33.654227 110.191198 
z
" clip-path="url(#p5fdc0979d1)" style="stroke: #000000"/>
    <path d="M 38.325055 169.554833 
C 38.325055 169.554833 38.325055 169.554833 38.325055 169.554833 
C 38.325055 169.554833 38.325055 169.554833 38.325055 169.554833 
C 38.325055 169.554833 38.325055 169.554833 38.325055 169.554833 
C 38.325055 169.554833 38.325055 169.554833 38.325055 169.554833 
C 38.325055 169.554833 38.325055 169.554833 38.325055 169.554833 
C 38.325055 169.554833 38.325055 169.554833 38.325055 169.554833 
C 38.325055 169.554833 38.325055 169.554833 38.325055 169.554833 
C 38.325055 169.554833 38.325055 169.554833 38.325055 169.554833 
z
" clip-path="url(#p5fdc0979d1)" style="stroke: #000000"/>
    <path d="M 36.242066 158.310376 
C 36.479329 158.310376 36.706906 158.216111 36.874676 158.04834 
C 37.042446 157.88057 37.136712 157.652993 37.136712 157.415731 
C 37.136712 157.178468 37.042446 156.950891 36.874676 156.783121 
C 36.706906 156.615351 36.479329 156.521085 36.242066 156.521085 
C 36.004803 156.521085 35.777226 156.615351 35.609456 156.783121 
C 35.441686 156.950891 35.347421 157.178468 35.347421 157.415731 
C 35.347421 157.652993 35.441686 157.88057 35.609456 158.04834 
C 35.777226 158.216111 36.004803 158.310376 36.242066 158.310376 
z
" clip-path="url(#p5fdc0979d1)" style="stroke: #000000"/>
    <path d="M 32.145928 144.562286 
C 32.381731 144.562286 32.607907 144.468601 32.774645 144.301863 
C 32.941382 144.135126 33.035068 143.908949 33.035068 143.673146 
C 33.035068 143.437344 32.941382 143.211167 32.774645 143.04443 
C 32.607907 142.877692 32.381731 142.784007 32.145928 142.784007 
C 31.910126 142.784007 31.683949 142.877692 31.517211 143.04443 
C 31.350474 143.211167 31.256788 143.437344 31.256788 143.673146 
C 31.256788 143.908949 31.350474 144.135126 31.517211 144.301863 
C 31.683949 144.468601 31.910126 144.562286 32.145928 144.562286 
z
" clip-path="url(#p5fdc0979d1)" style="stroke: #000000"/>
    <path d="M 27.354043 127.86641 
C 27.516446 127.86641 27.67222 127.801886 27.787056 127.68705 
C 27.901892 127.572214 27.966416 127.41644 27.966416 127.254037 
C 27.966416 127.091634 27.901892 126.935861 27.787056 126.821025 
C 27.67222 126.706188 27.516446 126.641665 27.354043 126.641665 
C 27.19164 126.641665 27.035867 126.706188 26.921031 126.821025 
C 26.806194 126.935861 26.741671 127.091634 26.741671 127.254037 
C 26.741671 127.41644 26.806194 127.572214 26.921031 127.68705 
C 27.035867 127.801886 27.19164 127.86641 27.354043 127.86641 
z
" clip-path="url(#p5fdc0979d1)" style="stroke: #000000"/>
    <path d="M 33.486132 169.40972 
C 33.723395 169.40972 33.950972 169.315455 34.118742 169.147685 
C 34.286512 168.979915 34.380778 168.752337 34.380778 168.515075 
C 34.380778 168.277812 34.286512 168.050235 34.118742 167.882465 
C 33.950972 167.714695 33.723395 167.620429 33.486132 167.620429 
C 33.24887 167.620429 33.021293 167.714695 32.853523 167.882465 
C 32.685752 168.050235 32.591487 168.277812 32.591487 168.515075 
C 32.591487 168.752337 32.685752 168.979915 32.853523 169.147685 
C 33.021293 169.315455 33.24887 169.40972 33.486132 169.40972 
z
" clip-path="url(#p5fdc0979d1)" style="stroke: #000000"/>
   </g>
   <g id="matplotlib.axis_1">
    <g id="xtick_1">
     <g id="line2d_1">
      <defs>
       <path id="m4239e8c583" d="M 0 0 
L 0 3.5 
" style="stroke: #000000; stroke-width: 0.8"/>
      </defs>
      <g>
       <use xlink:href="#m4239e8c583" x="18" y="189" style="stroke: #000000; stroke-width: 0.8"/>
      </g>
     </g>
     <g id="text_1">
      <!-- 10 -->
      <g transform="translate(7.447656 203.598437)scale(0.1 -0.1)">
       <defs>
        <path id="DejaVuSans-2212" d="M 678 2272 
L 4684 2272 
L 4684 1741 
L 678 1741 
L 678 2272 
z
" transform="scale(0.015625)"/>
        <path id="DejaVuSans-31" d="M 794 531 
L 1825 531 
L 1825 4091 
L 703 3866 
L 703 4441 
L 1819 4666 
L 2450 4666 
L 2450 531 
L 3481 531 
L 3481 0 
L 794 0 
L 794 531 
z
" transform="scale(0.015625)"/>
        <path id="DejaVuSans-30" d="M 2034 4250 
Q 1547 4250 1301 3770 
Q 1056 3291 1056 2328 
Q 1056 1369 1301 889 
Q 1547 409 2034 409 
Q 2525 409 2770 889 
Q 3016 1369 3016 2328 
Q 3016 3291 2770 3770 
Q 2525 4250 2034 4250 
z
M 2034 4750 
Q 2819 4750 3233 4129 
Q 3647 3509 3647 2328 
Q 3647 1150 3233 529 
Q 2819 -91 2034 -91 
Q 1250 -91 836 529 
Q 422 1150 422 2328 
Q 422 3509 836 4129 
Q 1250 4750 2034 4750 
z
" transform="scale(0.015625)"/>
       </defs>
       <use xlink:href="#DejaVuSans-2212"/>
       <use xlink:href="#DejaVuSans-31" x="83.789062"/>
       <use xlink:href="#DejaVuSans-30" x="147.412109"/>
      </g>
     </g>
    </g>
    <g id="xtick_2">
     <g id="line2d_2">
      <g>
       <use xlink:href="#m4239e8c583" x="73.8" y="189" style="stroke: #000000; stroke-width: 0.8"/>
      </g>
     </g>
     <g id="text_2">
      <!-- 0 -->
      <g transform="translate(70.61875 203.598437)scale(0.1 -0.1)">
       <use xlink:href="#DejaVuSans-30"/>
      </g>
     </g>
    </g>
    <g id="xtick_3">
     <g id="line2d_3">
      <g>
       <use xlink:href="#m4239e8c583" x="129.6" y="189" style="stroke: #000000; stroke-width: 0.8"/>
      </g>
     </g>
     <g id="text_3">
      <!-- 10 -->
      <g transform="translate(123.2375 203.598437)scale(0.1 -0.1)">
       <use xlink:href="#DejaVuSans-31"/>
       <use xlink:href="#DejaVuSans-30" x="63.623047"/>
      </g>
     </g>
    </g>
   </g>
   <g id="matplotlib.axis_2">
    <g id="ytick_1">
     <g id="line2d_4">
      <defs>
       <path id="m004860701b" d="M 0 0 
L -3.5 0 
" style="stroke: #000000; stroke-width: 0.8"/>
      </defs>
      <g>
       <use xlink:href="#m004860701b" x="18" y="189" style="stroke: #000000; stroke-width: 0.8"/>
      </g>
     </g>
     <g id="text_4">
      <!-- 15 -->
      <g transform="translate(-10.104688 192.799219)scale(0.1 -0.1)">
       <defs>
        <path id="DejaVuSans-35" d="M 691 4666 
L 3169 4666 
L 3169 4134 
L 1269 4134 
L 1269 2991 
Q 1406 3038 1543 3061 
Q 1681 3084 1819 3084 
Q 2600 3084 3056 2656 
Q 3513 2228 3513 1497 
Q 3513 744 3044 326 
Q 2575 -91 1722 -91 
Q 1428 -91 1123 -41 
Q 819 9 494 109 
L 494 744 
Q 775 591 1075 516 
Q 1375 441 1709 441 
Q 2250 441 2565 725 
Q 2881 1009 2881 1497 
Q 2881 1984 2565 2268 
Q 2250 2553 1709 2553 
Q 1456 2553 1204 2497 
Q 953 2441 691 2322 
L 691 4666 
z
" transform="scale(0.015625)"/>
       </defs>
       <use xlink:href="#DejaVuSans-2212"/>
       <use xlink:href="#DejaVuSans-31" x="83.789062"/>
       <use xlink:href="#DejaVuSans-35" x="147.412109"/>
      </g>
     </g>
    </g>
    <g id="ytick_2">
     <g id="line2d_5">
      <g>
       <use xlink:href="#m004860701b" x="18" y="161.82" style="stroke: #000000; stroke-width: 0.8"/>
      </g>
     </g>
     <g id="text_5">
      <!-- 10 -->
      <g transform="translate(-10.104688 165.619219)scale(0.1 -0.1)">
       <use xlink:href="#DejaVuSans-2212"/>
       <use xlink:href="#DejaVuSans-31" x="83.789062"/>
       <use xlink:href="#DejaVuSans-30" x="147.412109"/>
      </g>
     </g>
    </g>
    <g id="ytick_3">
     <g id="line2d_6">
      <g>
       <use xlink:href="#m004860701b" x="18" y="134.64" style="stroke: #000000; stroke-width: 0.8"/>
      </g>
     </g>
     <g id="text_6">
      <!-- 5 -->
      <g transform="translate(-3.742188 138.439219)scale(0.1 -0.1)">
       <use xlink:href="#DejaVuSans-2212"/>
       <use xlink:href="#DejaVuSans-35" x="83.789062"/>
      </g>
     </g>
    </g>
    <g id="ytick_4">
     <g id="line2d_7">
      <g>
       <use xlink:href="#m004860701b" x="18" y="107.46" style="stroke: #000000; stroke-width: 0.8"/>
      </g>
     </g>
     <g id="text_7">
      <!-- 0 -->
      <g transform="translate(4.6375 111.259219)scale(0.1 -0.1)">
       <use xlink:href="#DejaVuSans-30"/>
      </g>
     </g>
    </g>
    <g id="ytick_5">
     <g id="line2d_8">
      <g>
       <use xlink:href="#m004860701b" x="18" y="80.28" style="stroke: #000000; stroke-width: 0.8"/>
      </g>
     </g>
     <g id="text_8">
      <!-- 5 -->
      <g transform="translate(4.6375 84.079219)scale(0.1 -0.1)">
       <use xlink:href="#DejaVuSans-35"/>
      </g>
     </g>
    </g>
    <g id="ytick_6">
     <g id="line2d_9">
      <g>
       <use xlink:href="#m004860701b" x="18" y="53.1" style="stroke: #000000; stroke-width: 0.8"/>
      </g>
     </g>
     <g id="text_9">
      <!-- 10 -->
      <g transform="translate(-1.725 56.899219)scale(0.1 -0.1)">
       <use xlink:href="#DejaVuSans-31"/>
       <use xlink:href="#DejaVuSans-30" x="63.623047"/>
      </g>
     </g>
    </g>
    <g id="ytick_7">
     <g id="line2d_10">
      <g>
       <use xlink:href="#m004860701b" x="18" y="25.92" style="stroke: #000000; stroke-width: 0.8"/>
      </g>
     </g>
     <g id="text_10">
      <!-- 15 -->
      <g transform="translate(-1.725 29.719219)scale(0.1 -0.1)">
       <use xlink:href="#DejaVuSans-31"/>
       <use xlink:href="#DejaVuSans-35" x="63.623047"/>
      </g>
     </g>
    </g>
   </g>
   <g id="patch_3">
    <path d="M 18 189 
L 18 25.92 
" style="fill: none; stroke: #000000; stroke-width: 0.8; stroke-linejoin: miter; stroke-linecap: square"/>
   </g>
   <g id="patch_4">
    <path d="M 129.6 189 
L 129.6 25.92 
" style="fill: none; stroke: #000000; stroke-width: 0.8; stroke-linejoin: miter; stroke-linecap: square"/>
   </g>
   <g id="patch_5">
    <path d="M 18 189 
L 129.6 189 
" style="fill: none; stroke: #000000; stroke-width: 0.8; stroke-linejoin: miter; stroke-linecap: square"/>
   </g>
   <g id="patch_6">
    <path d="M 18 25.92 
L 129.6 25.92 
" style="fill: none; stroke: #000000; stroke-width: 0.8; stroke-linejoin: miter; stroke-linecap: square"/>
   </g>
  </g>
 </g>
 <defs>
  <clipPath id="p5fdc0979d1">
   <rect x="18" y="25.92" width="111.6" height="163.08"/>
  </clipPath>
 </defs>
</svg>
