<?xml version="1.0" encoding="utf-8" standalone="no"?>
<!DOCTYPE svg PUBLIC "-//W3C//DTD SVG 1.1//EN"
  "http://www.w3.org/Graphics/SVG/1.1/DTD/svg11.dtd">
<svg xmlns:xlink="http://www.w3.org/1999/xlink" width="144pt" height="216pt" viewBox="0 0 144 216" xmlns="http://www.w3.org/2000/svg" version="1.1">
 <metadata>
  <rdf:RDF xmlns:dc="http://purl.org/dc/elements/1.1/" xmlns:cc="http://creativecommons.org/ns#" xmlns:rdf="http://www.w3.org/1999/02/22-rdf-syntax-ns#">
   <cc:Work>
    <dc:type rdf:resource="http://purl.org/dc/dcmitype/StillImage"/>
    <dc:date>2022-06-23T14:55:19.094507</dc:date>
    <dc:format>image/svg+xml</dc:format>
    <dc:creator>
     <cc:Agent>
      <dc:title>Matplotlib v3.5.1, https://matplotlib.org/</dc:title>
     </cc:Agent>
    </dc:creator>
   </cc:Work>
  </rdf:RDF>
 </metadata>
 <defs>
  <style type="text/css">*{stroke-linejoin: round; stroke-linecap: butt}</style>
 </defs>
 <g id="figure_1">
  <g id="patch_1">
   <path d="M 0 216 
L 144 216 
L 144 0 
L 0 0 
L 0 216 
z
" style="fill: none"/>
  </g>
  <g id="axes_1">
   <g id="patch_2">
    <path d="M 18 189 
L 129.6 189 
L 129.6 25.92 
L 18 25.92 
z
" style="fill: #ffffff"/>
   </g>
   <g id="PathCollection_1">
    <defs>
     <path id="m965d012eee" d="M 0 2.738613 
C 0.726289 2.738613 1.422928 2.450055 1.936492 1.936492 
C 2.450055 1.422928 2.738613 0.726289 2.738613 0 
C 2.738613 -0.726289 2.450055 -1.422928 1.936492 -1.936492 
C 1.422928 -2.450055 0.726289 -2.738613 0 -2.738613 
C -0.726289 -2.738613 -1.422928 -2.450055 -1.936492 -1.936492 
C -2.450055 -1.422928 -2.738613 -0.726289 -2.738613 0 
C -2.738613 0.726289 -2.450055 1.422928 -1.936492 1.936492 
C -1.422928 2.450055 -0.726289 2.738613 0 2.738613 
z
" style="stroke: #ff0000; stroke-width: 1.75"/>
    </defs>
    <g clip-path="url(#p90622426d3)">
     <use xlink:href="#m965d012eee" x="80.775" y="83.92143" style="fill: #ff0000; stroke: #ff0000; stroke-width: 1.75"/>
     <use xlink:href="#m965d012eee" x="59.85" y="95.690715" style="fill: #ff0000; stroke: #ff0000; stroke-width: 1.75"/>
     <use xlink:href="#m965d012eee" x="66.825" y="107.46" style="fill: #ff0000; stroke: #ff0000; stroke-width: 1.75"/>
     <use xlink:href="#m965d012eee" x="80.775" y="107.46" style="fill: #ff0000; stroke: #ff0000; stroke-width: 1.75"/>
     <use xlink:href="#m965d012eee" x="94.725" y="107.46" style="fill: #ff0000; stroke: #ff0000; stroke-width: 1.75"/>
     <use xlink:href="#m965d012eee" x="59.85" y="119.229285" style="fill: #ff0000; stroke: #ff0000; stroke-width: 1.75"/>
     <use xlink:href="#m965d012eee" x="80.775" y="130.99857" style="fill: #ff0000; stroke: #ff0000; stroke-width: 1.75"/>
    </g>
   </g>
   <g id="PathCollection_2">
    <defs>
     <path id="C0_0_cff80b5122" d="M 0 2.738613 
C 0.726289 2.738613 1.422928 2.450055 1.936492 1.936492 
C 2.450055 1.422928 2.738613 0.726289 2.738613 -0 
C 2.738613 -0.726289 2.450055 -1.422928 1.936492 -1.936492 
C 1.422928 -2.450055 0.726289 -2.738613 0 -2.738613 
C -0.726289 -2.738613 -1.422928 -2.450055 -1.936492 -1.936492 
C -2.450055 -1.422928 -2.738613 -0.726289 -2.738613 0 
C -2.738613 0.726289 -2.450055 1.422928 -1.936492 1.936492 
C -1.422928 2.450055 -0.726289 2.738613 0 2.738613 
z
"/>
    </defs>
    <g clip-path="url(#p90622426d3)">
     <use xlink:href="#C0_0_cff80b5122" x="66.825" y="83.92143" style="fill: none; stroke: #ff0000; stroke-width: 1.75"/>
    </g>
    <g clip-path="url(#p90622426d3)">
     <use xlink:href="#C0_0_cff80b5122" x="73.8" y="95.690715" style="fill: none; stroke: #ff0000; stroke-width: 1.75"/>
    </g>
    <g clip-path="url(#p90622426d3)">
     <use xlink:href="#C0_0_cff80b5122" x="87.75" y="95.690715" style="fill: none; stroke: #ff0000; stroke-width: 1.75"/>
    </g>
    <g clip-path="url(#p90622426d3)">
     <use xlink:href="#C0_0_cff80b5122" x="52.875" y="107.46" style="fill: none; stroke: #ff0000; stroke-width: 1.75"/>
    </g>
    <g clip-path="url(#p90622426d3)">
     <use xlink:href="#C0_0_cff80b5122" x="73.8" y="119.229285" style="fill: none; stroke: #ff0000; stroke-width: 1.75"/>
    </g>
    <g clip-path="url(#p90622426d3)">
     <use xlink:href="#C0_0_cff80b5122" x="87.75" y="119.229285" style="fill: none; stroke: #ff0000; stroke-width: 1.75"/>
    </g>
    <g clip-path="url(#p90622426d3)">
     <use xlink:href="#C0_0_cff80b5122" x="66.825" y="130.99857" style="fill: none; stroke: #ff0000; stroke-width: 1.75"/>
    </g>
   </g>
   <g id="PathCollection_3">
    <path d="M 97.752449 48.689102 
C 98.457664 48.689102 99.134089 48.408917 99.632751 47.910255 
C 100.131413 47.411593 100.411597 46.735168 100.411597 46.029954 
C 100.411597 45.324739 100.131413 44.648314 99.632751 44.149652 
C 99.134089 43.65099 98.457664 43.370806 97.752449 43.370806 
C 97.047235 43.370806 96.37081 43.65099 95.872148 44.149652 
C 95.373486 44.648314 95.093302 45.324739 95.093302 46.029954 
C 95.093302 46.735168 95.373486 47.411593 95.872148 47.910255 
C 96.37081 48.408917 97.047235 48.689102 97.752449 48.689102 
z
" clip-path="url(#p90622426d3)" style="stroke: #000000"/>
    <path d="M 114.729221 123.634247 
C 115.290058 123.634247 115.827999 123.411424 116.22457 123.014853 
C 116.621141 122.618282 116.843964 122.080341 116.843964 121.519504 
C 116.843964 120.958668 116.621141 120.420727 116.22457 120.024156 
C 115.827999 119.627584 115.290058 119.404762 114.729221 119.404762 
C 114.168385 119.404762 113.630444 119.627584 113.233873 120.024156 
C 112.837301 120.420727 112.614479 120.958668 112.614479 121.519504 
C 112.614479 122.080341 112.837301 122.618282 113.233873 123.014853 
C 113.630444 123.411424 114.168385 123.634247 114.729221 123.634247 
z
" clip-path="url(#p90622426d3)" style="stroke: #000000"/>
    <path d="M 113.921564 116.249398 
C 114.626998 116.249398 115.303635 115.969125 115.802452 115.470308 
C 116.30127 114.97149 116.581542 114.294854 116.581542 113.589419 
C 116.581542 112.883985 116.30127 112.207348 115.802452 111.70853 
C 115.303635 111.209713 114.626998 110.929441 113.921564 110.929441 
C 113.216129 110.929441 112.539492 111.209713 112.040675 111.70853 
C 111.541857 112.207348 111.261585 112.883985 111.261585 113.589419 
C 111.261585 114.294854 111.541857 114.97149 112.040675 115.470308 
C 112.539492 115.969125 113.216129 116.249398 113.921564 116.249398 
z
" clip-path="url(#p90622426d3)" style="stroke: #000000"/>
    <path d="M 108.042418 100.844462 
C 108.747853 100.844462 109.424489 100.56419 109.923307 100.065373 
C 110.422125 99.566555 110.702397 98.889918 110.702397 98.184484 
C 110.702397 97.479049 110.422125 96.802412 109.923307 96.303595 
C 109.424489 95.804777 108.747853 95.524505 108.042418 95.524505 
C 107.336984 95.524505 106.660347 95.804777 106.161529 96.303595 
C 105.662712 96.802412 105.38244 97.479049 105.38244 98.184484 
C 105.38244 98.889918 105.662712 99.566555 106.161529 100.065373 
C 106.660347 100.56419 107.336984 100.844462 108.042418 100.844462 
z
" clip-path="url(#p90622426d3)" style="stroke: #000000"/>
    <path d="M 101.898174 66.827003 
C 102.603609 66.827003 103.280246 66.546731 103.779063 66.047914 
C 104.277881 65.549096 104.558153 64.872459 104.558153 64.167025 
C 104.558153 63.46159 104.277881 62.784954 103.779063 62.286136 
C 103.280246 61.787318 102.603609 61.507046 101.898174 61.507046 
C 101.19274 61.507046 100.516103 61.787318 100.017285 62.286136 
C 99.518468 62.784954 99.238196 63.46159 99.238196 64.167025 
C 99.238196 64.872459 99.518468 65.549096 100.017285 66.047914 
C 100.516103 66.546731 101.19274 66.827003 101.898174 66.827003 
z
" clip-path="url(#p90622426d3)" style="stroke: #000000"/>
    <path d="M 94.403569 62.829539 
C 94.766309 62.829539 95.114241 62.685421 95.370737 62.428925 
C 95.627233 62.172429 95.771351 61.824497 95.771351 61.461757 
C 95.771351 61.099017 95.627233 60.751085 95.370737 60.494589 
C 95.114241 60.238093 94.766309 60.093975 94.403569 60.093975 
C 94.040829 60.093975 93.692897 60.238093 93.436401 60.494589 
C 93.179905 60.751085 93.035786 61.099017 93.035786 61.461757 
C 93.035786 61.824497 93.179905 62.172429 93.436401 62.428925 
C 93.692897 62.685421 94.040829 62.829539 94.403569 62.829539 
z
" clip-path="url(#p90622426d3)" style="stroke: #000000"/>
    <path d="M 86.798433 49.480649 
C 87.503868 49.480649 88.180504 49.200377 88.679322 48.701559 
C 89.178139 48.202741 89.458412 47.526105 89.458412 46.82067 
C 89.458412 46.115236 89.178139 45.438599 88.679322 44.939781 
C 88.180504 44.440964 87.503868 44.160692 86.798433 44.160692 
C 86.092999 44.160692 85.416362 44.440964 84.917544 44.939781 
C 84.418727 45.438599 84.138455 46.115236 84.138455 46.82067 
C 84.138455 47.526105 84.418727 48.202741 84.917544 48.701559 
C 85.416362 49.200377 86.092999 49.480649 86.798433 49.480649 
z
" clip-path="url(#p90622426d3)" style="stroke: #000000"/>
    <path d="M 82.548806 29.94369 
C 83.141818 29.94369 83.710622 29.708083 84.129945 29.28876 
C 84.549267 28.869438 84.784874 28.300634 84.784874 27.707622 
C 84.784874 27.114609 84.549267 26.545806 84.129945 26.126483 
C 83.710622 25.70716 83.141818 25.471554 82.548806 25.471554 
C 81.955794 25.471554 81.38699 25.70716 80.967667 26.126483 
C 80.548344 26.545806 80.312738 27.114609 80.312738 27.707622 
C 80.312738 28.300634 80.548344 28.869438 80.967667 29.28876 
C 81.38699 29.708083 81.955794 29.94369 82.548806 29.94369 
z
" clip-path="url(#p90622426d3)" style="stroke: #000000"/>
    <path d="M 121.668565 165.964632 
C 122.261947 165.964632 122.831106 165.728879 123.250691 165.309294 
C 123.670276 164.889709 123.906029 164.32055 123.906029 163.727168 
C 123.906029 163.133786 123.670276 162.564627 123.250691 162.145042 
C 122.831106 161.725457 122.261947 161.489704 121.668565 161.489704 
C 121.075182 161.489704 120.506023 161.725457 120.086439 162.145042 
C 119.666854 162.564627 119.431101 163.133786 119.431101 163.727168 
C 119.431101 164.32055 119.666854 164.889709 120.086439 165.309294 
C 120.506023 165.728879 121.075182 165.964632 121.668565 165.964632 
z
" clip-path="url(#p90622426d3)" style="stroke: #000000"/>
    <path d="M 113.027495 144.149389 
C 113.732929 144.149389 114.409566 143.869117 114.908384 143.370299 
C 115.407201 142.871482 115.687473 142.194845 115.687473 141.48941 
C 115.687473 140.783976 115.407201 140.107339 114.908384 139.608522 
C 114.409566 139.109704 113.732929 138.829432 113.027495 138.829432 
C 112.32206 138.829432 111.645424 139.109704 111.146606 139.608522 
C 110.647788 140.107339 110.367516 140.783976 110.367516 141.48941 
C 110.367516 142.194845 110.647788 142.871482 111.146606 143.370299 
C 111.645424 143.869117 112.32206 144.149389 113.027495 144.149389 
z
" clip-path="url(#p90622426d3)" style="stroke: #000000"/>
    <path d="M 112.479408 139.116989 
C 113.184842 139.116989 113.861479 138.836717 114.360297 138.337899 
C 114.859114 137.839082 115.139386 137.162445 115.139386 136.45701 
C 115.139386 135.751576 114.859114 135.074939 114.360297 134.576122 
C 113.861479 134.077304 113.184842 133.797032 112.479408 133.797032 
C 111.773973 133.797032 111.097336 134.077304 110.598519 134.576122 
C 110.099701 135.074939 109.819429 135.751576 109.819429 136.45701 
C 109.819429 137.162445 110.099701 137.839082 110.598519 138.337899 
C 111.097336 138.836717 111.773973 139.116989 112.479408 139.116989 
z
" clip-path="url(#p90622426d3)" style="stroke: #000000"/>
    <path d="M 103.51358 125.070204 
C 104.219014 125.070204 104.895651 124.789932 105.394469 124.291114 
C 105.893286 123.792297 106.173558 123.11566 106.173558 122.410225 
C 106.173558 121.704791 105.893286 121.028154 105.394469 120.529336 
C 104.895651 120.030519 104.219014 119.750247 103.51358 119.750247 
C 102.808145 119.750247 102.131508 120.030519 101.632691 120.529336 
C 101.133873 121.028154 100.853601 121.704791 100.853601 122.410225 
C 100.853601 123.11566 101.133873 123.792297 101.632691 124.291114 
C 102.131508 124.789932 102.808145 125.070204 103.51358 125.070204 
z
" clip-path="url(#p90622426d3)" style="stroke: #000000"/>
    <path d="M 104.63812 113.107804 
C 105.198956 113.107804 105.736898 112.884982 106.133469 112.488411 
C 106.53004 112.091839 106.752863 111.553898 106.752863 110.993062 
C 106.752863 110.432225 106.53004 109.894284 106.133469 109.497713 
C 105.736898 109.101142 105.198956 108.878319 104.63812 108.878319 
C 104.077284 108.878319 103.539342 109.101142 103.142771 109.497713 
C 102.7462 109.894284 102.523378 110.432225 102.523378 110.993062 
C 102.523378 111.553898 102.7462 112.091839 103.142771 112.488411 
C 103.539342 112.884982 104.077284 113.107804 104.63812 113.107804 
z
" clip-path="url(#p90622426d3)" style="stroke: #000000"/>
    <path d="M 99.943213 102.935234 
C 100.648427 102.935234 101.324853 102.655049 101.823514 102.156387 
C 102.322176 101.657726 102.602361 100.9813 102.602361 100.276086 
C 102.602361 99.570872 102.322176 98.894446 101.823514 98.395784 
C 101.324853 97.897122 100.648427 97.616938 99.943213 97.616938 
C 99.237999 97.616938 98.561573 97.897122 98.062911 98.395784 
C 97.56425 98.894446 97.284065 99.570872 97.284065 100.276086 
C 97.284065 100.9813 97.56425 101.657726 98.062911 102.156387 
C 98.561573 102.655049 99.237999 102.935234 99.943213 102.935234 
z
" clip-path="url(#p90622426d3)" style="stroke: #000000"/>
    <path d="M 97.558267 88.396881 
C 97.690869 88.396881 97.818057 88.344198 97.911821 88.250435 
C 98.005584 88.156671 98.058267 88.029483 98.058267 87.896881 
C 98.058267 87.76428 98.005584 87.637091 97.911821 87.543328 
C 97.818057 87.449564 97.690869 87.396881 97.558267 87.396881 
C 97.425666 87.396881 97.298477 87.449564 97.204714 87.543328 
C 97.11095 87.637091 97.058267 87.76428 97.058267 87.896881 
C 97.058267 88.029483 97.11095 88.156671 97.204714 88.250435 
C 97.298477 88.344198 97.425666 88.396881 97.558267 88.396881 
z
" clip-path="url(#p90622426d3)" style="stroke: #000000"/>
    <path d="M 92.691362 86.138234 
C 93.284374 86.138234 93.853178 85.902628 94.272501 85.483305 
C 94.691824 85.063982 94.92743 84.495179 94.92743 83.902166 
C 94.92743 83.309154 94.691824 82.740351 94.272501 82.321028 
C 93.853178 81.901705 93.284374 81.666098 92.691362 81.666098 
C 92.09835 81.666098 91.529546 81.901705 91.110223 82.321028 
C 90.6909 82.740351 90.455294 83.309154 90.455294 83.902166 
C 90.455294 84.495179 90.6909 85.063982 91.110223 85.483305 
C 91.529546 85.902628 92.09835 86.138234 92.691362 86.138234 
z
" clip-path="url(#p90622426d3)" style="stroke: #000000"/>
    <path d="M 81.585727 39.427692 
C 81.882233 39.427692 82.166635 39.309889 82.376296 39.100228 
C 82.585958 38.890566 82.703761 38.606164 82.703761 38.309658 
C 82.703761 38.013152 82.585958 37.72875 82.376296 37.519089 
C 82.166635 37.309427 81.882233 37.191624 81.585727 37.191624 
C 81.289221 37.191624 81.004819 37.309427 80.795157 37.519089 
C 80.585496 37.72875 80.467693 38.013152 80.467693 38.309658 
C 80.467693 38.606164 80.585496 38.890566 80.795157 39.100228 
C 81.004819 39.309889 81.289221 39.427692 81.585727 39.427692 
z
" clip-path="url(#p90622426d3)" style="stroke: #000000"/>
    <path d="M 75.546681 35.420441 
C 76.139693 35.420441 76.708496 35.184834 77.127819 34.765511 
C 77.547142 34.346188 77.782748 33.777385 77.782748 33.184373 
C 77.782748 32.59136 77.547142 32.022557 77.127819 31.603234 
C 76.708496 31.183911 76.139693 30.948305 75.546681 30.948305 
C 74.953668 30.948305 74.384865 31.183911 73.965542 31.603234 
C 73.546219 32.022557 73.310613 32.59136 73.310613 33.184373 
C 73.310613 33.777385 73.546219 34.346188 73.965542 34.765511 
C 74.384865 35.184834 74.953668 35.420441 75.546681 35.420441 
z
" clip-path="url(#p90622426d3)" style="stroke: #000000"/>
    <path d="M 109.224553 169.008507 
C 109.432085 169.008507 109.631146 168.926054 109.777894 168.779306 
C 109.924641 168.632558 110.007095 168.433498 110.007095 168.225965 
C 110.007095 168.018433 109.924641 167.819372 109.777894 167.672624 
C 109.631146 167.525876 109.432085 167.443423 109.224553 167.443423 
C 109.01702 167.443423 108.81796 167.525876 108.671212 167.672624 
C 108.524464 167.819372 108.44201 168.018433 108.44201 168.225965 
C 108.44201 168.433498 108.524464 168.632558 108.671212 168.779306 
C 108.81796 168.926054 109.01702 169.008507 109.224553 169.008507 
z
" clip-path="url(#p90622426d3)" style="stroke: #000000"/>
    <path d="M 106.978548 156.410804 
C 107.571931 156.410804 108.14109 156.17505 108.560674 155.755466 
C 108.980259 155.335881 109.216012 154.766722 109.216012 154.173339 
C 109.216012 153.579957 108.980259 153.010798 108.560674 152.591213 
C 108.14109 152.171629 107.571931 151.935875 106.978548 151.935875 
C 106.385166 151.935875 105.816007 152.171629 105.396422 152.591213 
C 104.976837 153.010798 104.741084 153.579957 104.741084 154.173339 
C 104.741084 154.766722 104.976837 155.335881 105.396422 155.755466 
C 105.816007 156.17505 106.385166 156.410804 106.978548 156.410804 
z
" clip-path="url(#p90622426d3)" style="stroke: #000000"/>
    <path d="M 105.476283 146.620185 
C 106.007722 146.620185 106.517467 146.409042 106.893251 146.033258 
C 107.269035 145.657474 107.480178 145.147729 107.480178 144.61629 
C 107.480178 144.084851 107.269035 143.575107 106.893251 143.199323 
C 106.517467 142.823538 106.007722 142.612395 105.476283 142.612395 
C 104.944844 142.612395 104.4351 142.823538 104.059316 143.199323 
C 103.683531 143.575107 103.472388 144.084851 103.472388 144.61629 
C 103.472388 145.147729 103.683531 145.657474 104.059316 146.033258 
C 104.4351 146.409042 104.944844 146.620185 105.476283 146.620185 
z
" clip-path="url(#p90622426d3)" style="stroke: #000000"/>
    <path d="M 100.839045 140.742172 
C 101.407186 140.742172 101.952134 140.516447 102.35387 140.114711 
C 102.755607 139.712975 102.981331 139.168027 102.981331 138.599886 
C 102.981331 138.031745 102.755607 137.486797 102.35387 137.085061 
C 101.952134 136.683324 101.407186 136.4576 100.839045 136.4576 
C 100.270904 136.4576 99.725957 136.683324 99.32422 137.085061 
C 98.922484 137.486797 98.696759 138.031745 98.696759 138.599886 
C 98.696759 139.168027 98.922484 139.712975 99.32422 140.114711 
C 99.725957 140.516447 100.270904 140.742172 100.839045 140.742172 
z
" clip-path="url(#p90622426d3)" style="stroke: #000000"/>
    <path d="M 92.596639 122.567749 
C 93.234071 122.567749 93.845481 122.314495 94.296214 121.863762 
C 94.746946 121.41303 95.000201 120.801619 95.000201 120.164187 
C 95.000201 119.526755 94.746946 118.915345 94.296214 118.464612 
C 93.845481 118.01388 93.234071 117.760625 92.596639 117.760625 
C 91.959207 117.760625 91.347796 118.01388 90.897064 118.464612 
C 90.446331 118.915345 90.193077 119.526755 90.193077 120.164187 
C 90.193077 120.801619 90.446331 121.41303 90.897064 121.863762 
C 91.347796 122.314495 91.959207 122.567749 92.596639 122.567749 
z
" clip-path="url(#p90622426d3)" style="stroke: #000000"/>
    <path d="M 87.601451 105.429234 
C 87.88531 105.429234 88.157582 105.316455 88.358301 105.115736 
C 88.55902 104.915017 88.671798 104.642746 88.671798 104.358886 
C 88.671798 104.075027 88.55902 103.802755 88.358301 103.602036 
C 88.157582 103.401317 87.88531 103.288539 87.601451 103.288539 
C 87.317591 103.288539 87.04532 103.401317 86.844601 103.602036 
C 86.643882 103.802755 86.531103 104.075027 86.531103 104.358886 
C 86.531103 104.642746 86.643882 104.915017 86.844601 105.115736 
C 87.04532 105.316455 87.317591 105.429234 87.601451 105.429234 
z
" clip-path="url(#p90622426d3)" style="stroke: #000000"/>
    <path d="M 88.774319 99.745503 
C 89.613096 99.745503 90.417631 99.412254 91.010736 98.819149 
C 91.603841 98.226044 91.937091 97.421509 91.937091 96.582732 
C 91.937091 95.743955 91.603841 94.939419 91.010736 94.346315 
C 90.417631 93.75321 89.613096 93.41996 88.774319 93.41996 
C 87.935542 93.41996 87.131007 93.75321 86.537902 94.346315 
C 85.944797 94.939419 85.611547 95.743955 85.611547 96.582732 
C 85.611547 97.421509 85.944797 98.226044 86.537902 98.819149 
C 87.131007 99.412254 87.935542 99.745503 88.774319 99.745503 
z
" clip-path="url(#p90622426d3)" style="stroke: #000000"/>
    <path d="M 84.406385 90.529268 
C 85.11182 90.529268 85.788457 90.248996 86.287274 89.750178 
C 86.786092 89.251361 87.066364 88.574724 87.066364 87.869289 
C 87.066364 87.163855 86.786092 86.487218 86.287274 85.988401 
C 85.788457 85.489583 85.11182 85.209311 84.406385 85.209311 
C 83.700951 85.209311 83.024314 85.489583 82.525497 85.988401 
C 82.026679 86.487218 81.746407 87.163855 81.746407 87.869289 
C 81.746407 88.574724 82.026679 89.251361 82.525497 89.750178 
C 83.024314 90.248996 83.700951 90.529268 84.406385 90.529268 
z
" clip-path="url(#p90622426d3)" style="stroke: #000000"/>
    <path d="M 78.667654 79.371573 
C 79.373089 79.371573 80.049726 79.091301 80.548543 78.592483 
C 81.047361 78.093665 81.327633 77.417029 81.327633 76.711594 
C 81.327633 76.00616 81.047361 75.329523 80.548543 74.830705 
C 80.049726 74.331888 79.373089 74.051616 78.667654 74.051616 
C 77.96222 74.051616 77.285583 74.331888 76.786765 74.830705 
C 76.287948 75.329523 76.007676 76.00616 76.007676 76.711594 
C 76.007676 77.417029 76.287948 78.093665 76.786765 78.592483 
C 77.285583 79.091301 77.96222 79.371573 78.667654 79.371573 
z
" clip-path="url(#p90622426d3)" style="stroke: #000000"/>
    <path d="M 76.762915 71.103806 
C 77.46835 71.103806 78.144986 70.823534 78.643804 70.324716 
C 79.142622 69.825898 79.422894 69.149262 79.422894 68.443827 
C 79.422894 67.738393 79.142622 67.061756 78.643804 66.562938 
C 78.144986 66.064121 77.46835 65.783849 76.762915 65.783849 
C 76.057481 65.783849 75.380844 66.064121 74.882026 66.562938 
C 74.383209 67.061756 74.102937 67.738393 74.102937 68.443827 
C 74.102937 69.149262 74.383209 69.825898 74.882026 70.324716 
C 75.380844 70.823534 76.057481 71.103806 76.762915 71.103806 
z
" clip-path="url(#p90622426d3)" style="stroke: #000000"/>
    <path d="M 70.916434 56.079577 
C 71.574887 56.079577 72.206459 55.817971 72.672056 55.352375 
C 73.137652 54.886779 73.399258 54.255206 73.399258 53.596753 
C 73.399258 52.938301 73.137652 52.306728 72.672056 51.841132 
C 72.206459 51.375536 71.574887 51.11393 70.916434 51.11393 
C 70.257982 51.11393 69.626409 51.375536 69.160813 51.841132 
C 68.695216 52.306728 68.43361 52.938301 68.43361 53.596753 
C 68.43361 54.255206 68.695216 54.886779 69.160813 55.352375 
C 69.626409 55.817971 70.257982 56.079577 70.916434 56.079577 
z
" clip-path="url(#p90622426d3)" style="stroke: #000000"/>
    <path d="M 68.075415 46.861774 
C 68.731144 46.861774 69.360103 46.60125 69.823773 46.13758 
C 70.287443 45.67391 70.547967 45.044951 70.547967 44.389222 
C 70.547967 43.733494 70.287443 43.104534 69.823773 42.640865 
C 69.360103 42.177195 68.731144 41.916671 68.075415 41.916671 
C 67.419687 41.916671 66.790728 42.177195 66.327058 42.640865 
C 65.863388 43.104534 65.602864 43.733494 65.602864 44.389222 
C 65.602864 45.044951 65.863388 45.67391 66.327058 46.13758 
C 66.790728 46.60125 67.419687 46.861774 68.075415 46.861774 
z
" clip-path="url(#p90622426d3)" style="stroke: #000000"/>
    <path d="M 60.748139 28.995293 
C 61.341151 28.995293 61.909955 28.759687 62.329278 28.340364 
C 62.748601 27.921041 62.984207 27.352238 62.984207 26.759225 
C 62.984207 26.166213 62.748601 25.597409 62.329278 25.178087 
C 61.909955 24.758764 61.341151 24.523157 60.748139 24.523157 
C 60.155127 24.523157 59.586323 24.758764 59.167 25.178087 
C 58.747677 25.597409 58.512071 26.166213 58.512071 26.759225 
C 58.512071 27.352238 58.747677 27.921041 59.167 28.340364 
C 59.586323 28.759687 60.155127 28.995293 60.748139 28.995293 
z
" clip-path="url(#p90622426d3)" style="stroke: #000000"/>
    <path d="M 95.180291 148.15446 
C 95.885505 148.15446 96.561931 147.874276 97.060592 147.375614 
C 97.559254 146.876952 97.839439 146.200527 97.839439 145.495312 
C 97.839439 144.790098 97.559254 144.113672 97.060592 143.615011 
C 96.561931 143.116349 95.885505 142.836164 95.180291 142.836164 
C 94.475077 142.836164 93.798651 143.116349 93.299989 143.615011 
C 92.801328 144.113672 92.521143 144.790098 92.521143 145.495312 
C 92.521143 146.200527 92.801328 146.876952 93.299989 147.375614 
C 93.798651 147.874276 94.475077 148.15446 95.180291 148.15446 
z
" clip-path="url(#p90622426d3)" style="stroke: #000000"/>
    <path d="M 89.978833 139.879165 
C 90.571845 139.879165 91.140649 139.643558 91.559972 139.224235 
C 91.979295 138.804913 92.214901 138.236109 92.214901 137.643097 
C 92.214901 137.050084 91.979295 136.481281 91.559972 136.061958 
C 91.140649 135.642635 90.571845 135.407029 89.978833 135.407029 
C 89.385821 135.407029 88.817017 135.642635 88.397694 136.061958 
C 87.978371 136.481281 87.742765 137.050084 87.742765 137.643097 
C 87.742765 138.236109 87.978371 138.804913 88.397694 139.224235 
C 88.817017 139.643558 89.385821 139.879165 89.978833 139.879165 
z
" clip-path="url(#p90622426d3)" style="stroke: #000000"/>
    <path d="M 84.96955 136.215176 
C 85.783686 136.215176 86.564587 135.891716 87.140268 135.316035 
C 87.71595 134.740354 88.03941 133.959453 88.03941 133.145316 
C 88.03941 132.33118 87.71595 131.550279 87.140268 130.974598 
C 86.564587 130.398917 85.783686 130.075457 84.96955 130.075457 
C 84.155414 130.075457 83.374513 130.398917 82.798831 130.974598 
C 82.22315 131.550279 81.89969 132.33118 81.89969 133.145316 
C 81.89969 133.959453 82.22315 134.740354 82.798831 135.316035 
C 83.374513 135.891716 84.155414 136.215176 84.96955 136.215176 
z
" clip-path="url(#p90622426d3)" style="stroke: #000000"/>
    <path d="M 85.389496 119.504496 
C 86.061851 119.504496 86.706759 119.237366 87.182187 118.761939 
C 87.657614 118.286512 87.924743 117.641604 87.924743 116.969248 
C 87.924743 116.296893 87.657614 115.651985 87.182187 115.176558 
C 86.706759 114.701131 86.061851 114.434001 85.389496 114.434001 
C 84.71714 114.434001 84.072232 114.701131 83.596805 115.176558 
C 83.121378 115.651985 82.854248 116.296893 82.854248 116.969248 
C 82.854248 117.641604 83.121378 118.286512 83.596805 118.761939 
C 84.072232 119.237366 84.71714 119.504496 85.389496 119.504496 
z
" clip-path="url(#p90622426d3)" style="stroke: #000000"/>
    <path d="M 77.772233 106.394501 
C 78.477447 106.394501 79.153872 106.114316 79.652534 105.615655 
C 80.151196 105.116993 80.431381 104.440567 80.431381 103.735353 
C 80.431381 103.030139 80.151196 102.353713 79.652534 101.855051 
C 79.153872 101.35639 78.477447 101.076205 77.772233 101.076205 
C 77.067018 101.076205 76.390593 101.35639 75.891931 101.855051 
C 75.393269 102.353713 75.113085 103.030139 75.113085 103.735353 
C 75.113085 104.440567 75.393269 105.116993 75.891931 105.615655 
C 76.390593 106.114316 77.067018 106.394501 77.772233 106.394501 
z
" clip-path="url(#p90622426d3)" style="stroke: #000000"/>
    <path d="M 74.739492 100.98541 
C 75.444927 100.98541 76.121563 100.705138 76.620381 100.20632 
C 77.119199 99.707503 77.399471 99.030866 77.399471 98.325431 
C 77.399471 97.619997 77.119199 96.94336 76.620381 96.444542 
C 76.121563 95.945725 75.444927 95.665453 74.739492 95.665453 
C 74.034058 95.665453 73.357421 95.945725 72.858603 96.444542 
C 72.359786 96.94336 72.079514 97.619997 72.079514 98.325431 
C 72.079514 99.030866 72.359786 99.707503 72.858603 100.20632 
C 73.357421 100.705138 74.034058 100.98541 74.739492 100.98541 
z
" clip-path="url(#p90622426d3)" style="stroke: #000000"/>
    <path d="M 66.839557 91.466642 
C 67.299697 91.466642 67.741054 91.283826 68.066422 90.958458 
C 68.391791 90.633089 68.574607 90.191733 68.574607 89.731592 
C 68.574607 89.271451 68.391791 88.830095 68.066422 88.504726 
C 67.741054 88.179358 67.299697 87.996542 66.839557 87.996542 
C 66.379416 87.996542 65.93806 88.179358 65.612691 88.504726 
C 65.287323 88.830095 65.104507 89.271451 65.104507 89.731592 
C 65.104507 90.191733 65.287323 90.633089 65.612691 90.958458 
C 65.93806 91.283826 66.379416 91.466642 66.839557 91.466642 
z
" clip-path="url(#p90622426d3)" style="stroke: #000000"/>
    <path d="M 62.771273 85.60875 
C 63.476708 85.60875 64.153345 85.328478 64.652162 84.829661 
C 65.15098 84.330843 65.431252 83.654206 65.431252 82.948772 
C 65.431252 82.243337 65.15098 81.566701 64.652162 81.067883 
C 64.153345 80.569065 63.476708 80.288793 62.771273 80.288793 
C 62.065839 80.288793 61.389202 80.569065 60.890384 81.067883 
C 60.391567 81.566701 60.111295 82.243337 60.111295 82.948772 
C 60.111295 83.654206 60.391567 84.330843 60.890384 84.829661 
C 61.389202 85.328478 62.065839 85.60875 62.771273 85.60875 
z
" clip-path="url(#p90622426d3)" style="stroke: #000000"/>
    <path d="M 57.223293 60.228455 
C 57.928507 60.228455 58.604933 59.948271 59.103594 59.449609 
C 59.602256 58.950947 59.882441 58.274521 59.882441 57.569307 
C 59.882441 56.864093 59.602256 56.187667 59.103594 55.689006 
C 58.604933 55.190344 57.928507 54.910159 57.223293 54.910159 
C 56.518079 54.910159 55.841653 55.190344 55.342991 55.689006 
C 54.844329 56.187667 54.564145 56.864093 54.564145 57.569307 
C 54.564145 58.274521 54.844329 58.950947 55.342991 59.449609 
C 55.841653 59.948271 56.518079 60.228455 57.223293 60.228455 
z
" clip-path="url(#p90622426d3)" style="stroke: #000000"/>
    <path d="M 53.626637 42.216951 
C 54.332072 42.216951 55.008708 41.936679 55.507526 41.437861 
C 56.006343 40.939044 56.286616 40.262407 56.286616 39.556972 
C 56.286616 38.851538 56.006343 38.174901 55.507526 37.676083 
C 55.008708 37.177266 54.332072 36.896994 53.626637 36.896994 
C 52.921202 36.896994 52.244566 37.177266 51.745748 37.676083 
C 51.246931 38.174901 50.966658 38.851538 50.966658 39.556972 
C 50.966658 40.262407 51.246931 40.939044 51.745748 41.437861 
C 52.244566 41.936679 52.921202 42.216951 53.626637 42.216951 
z
" clip-path="url(#p90622426d3)" style="stroke: #000000"/>
    <path d="M 90.401776 178.393613 
C 91.105221 178.393613 91.779949 178.114132 92.277359 177.616721 
C 92.77477 177.119311 93.054251 176.444583 93.054251 175.741138 
C 93.054251 175.037694 92.77477 174.362966 92.277359 173.865555 
C 91.779949 173.368145 91.105221 173.088663 90.401776 173.088663 
C 89.698332 173.088663 89.023604 173.368145 88.526193 173.865555 
C 88.028783 174.362966 87.749301 175.037694 87.749301 175.741138 
C 87.749301 176.444583 88.028783 177.119311 88.526193 177.616721 
C 89.023604 178.114132 89.698332 178.393613 90.401776 178.393613 
z
" clip-path="url(#p90622426d3)" style="stroke: #000000"/>
    <path d="M 83.661661 170.617001 
C 84.35789 170.617001 85.025697 170.340387 85.518005 169.848079 
C 86.010313 169.35577 86.286927 168.687964 86.286927 167.991735 
C 86.286927 167.295506 86.010313 166.627699 85.518005 166.135391 
C 85.025697 165.643083 84.35789 165.366468 83.661661 165.366468 
C 82.965432 165.366468 82.297625 165.643083 81.805317 166.135391 
C 81.313009 166.627699 81.036394 167.295506 81.036394 167.991735 
C 81.036394 168.687964 81.313009 169.35577 81.805317 169.848079 
C 82.297625 170.340387 82.965432 170.617001 83.661661 170.617001 
z
" clip-path="url(#p90622426d3)" style="stroke: #000000"/>
    <path d="M 79.882519 144.778923 
C 80.587734 144.778923 81.264159 144.498738 81.762821 144.000077 
C 82.261483 143.501415 82.541667 142.824989 82.541667 142.119775 
C 82.541667 141.414561 82.261483 140.738135 81.762821 140.239474 
C 81.264159 139.740812 80.587734 139.460627 79.882519 139.460627 
C 79.177305 139.460627 78.50088 139.740812 78.002218 140.239474 
C 77.503556 140.738135 77.223371 141.414561 77.223371 142.119775 
C 77.223371 142.824989 77.503556 143.501415 78.002218 144.000077 
C 78.50088 144.498738 79.177305 144.778923 79.882519 144.778923 
z
" clip-path="url(#p90622426d3)" style="stroke: #000000"/>
    <path d="M 76.595005 136.295425 
C 77.151408 136.295425 77.685096 136.074364 78.078532 135.680928 
C 78.471968 135.287492 78.693029 134.753803 78.693029 134.197401 
C 78.693029 133.640998 78.471968 133.10731 78.078532 132.713874 
C 77.685096 132.320438 77.151408 132.099377 76.595005 132.099377 
C 76.038603 132.099377 75.504914 132.320438 75.111478 132.713874 
C 74.718043 133.10731 74.496981 133.640998 74.496981 134.197401 
C 74.496981 134.753803 74.718043 135.287492 75.111478 135.680928 
C 75.504914 136.074364 76.038603 136.295425 76.595005 136.295425 
z
" clip-path="url(#p90622426d3)" style="stroke: #000000"/>
    <path d="M 72.181078 121.205334 
C 72.886512 121.205334 73.563149 120.925062 74.061967 120.426244 
C 74.560784 119.927427 74.841056 119.25079 74.841056 118.545356 
C 74.841056 117.839921 74.560784 117.163284 74.061967 116.664467 
C 73.563149 116.165649 72.886512 115.885377 72.181078 115.885377 
C 71.475643 115.885377 70.799006 116.165649 70.300189 116.664467 
C 69.801371 117.163284 69.521099 117.839921 69.521099 118.545356 
C 69.521099 119.25079 69.801371 119.927427 70.300189 120.426244 
C 70.799006 120.925062 71.475643 121.205334 72.181078 121.205334 
z
" clip-path="url(#p90622426d3)" style="stroke: #000000"/>
    <path d="M 70.839412 115.140832 
C 71.544626 115.140832 72.221051 114.860648 72.719713 114.361986 
C 73.218375 113.863324 73.49856 113.186899 73.49856 112.481684 
C 73.49856 111.77647 73.218375 111.100045 72.719713 110.601383 
C 72.221051 110.102721 71.544626 109.822536 70.839412 109.822536 
C 70.134197 109.822536 69.457772 110.102721 68.95911 110.601383 
C 68.460448 111.100045 68.180264 111.77647 68.180264 112.481684 
C 68.180264 113.186899 68.460448 113.863324 68.95911 114.361986 
C 69.457772 114.860648 70.134197 115.140832 70.839412 115.140832 
z
" clip-path="url(#p90622426d3)" style="stroke: #000000"/>
    <path d="M 66.459153 104.774475 
C 67.164367 104.774475 67.840792 104.494291 68.339454 103.995629 
C 68.838116 103.496967 69.118301 102.820542 69.118301 102.115327 
C 69.118301 101.410113 68.838116 100.733688 68.339454 100.235026 
C 67.840792 99.736364 67.164367 99.456179 66.459153 99.456179 
C 65.753938 99.456179 65.077513 99.736364 64.578851 100.235026 
C 64.080189 100.733688 63.800005 101.410113 63.800005 102.115327 
C 63.800005 102.820542 64.080189 103.496967 64.578851 103.995629 
C 65.077513 104.494291 65.753938 104.774475 66.459153 104.774475 
z
" clip-path="url(#p90622426d3)" style="stroke: #000000"/>
    <path d="M 60.034744 99.013681 
C 60.873521 99.013681 61.678057 98.680431 62.271161 98.087326 
C 62.864266 97.494222 63.197516 96.689686 63.197516 95.850909 
C 63.197516 95.012132 62.864266 94.207597 62.271161 93.614492 
C 61.678057 93.021387 60.873521 92.688138 60.034744 92.688138 
C 59.195967 92.688138 58.391432 93.021387 57.798327 93.614492 
C 57.205222 94.207597 56.871973 95.012132 56.871973 95.850909 
C 56.871973 96.689686 57.205222 97.494222 57.798327 98.087326 
C 58.391432 98.680431 59.195967 99.013681 60.034744 99.013681 
z
" clip-path="url(#p90622426d3)" style="stroke: #000000"/>
    <path d="M 52.601925 72.523585 
C 53.193822 72.523585 53.761556 72.288422 54.180091 71.869887 
C 54.598625 71.451353 54.833789 70.883618 54.833789 70.291721 
C 54.833789 69.699824 54.598625 69.13209 54.180091 68.713555 
C 53.761556 68.295021 53.193822 68.059858 52.601925 68.059858 
C 52.010028 68.059858 51.442294 68.295021 51.023759 68.713555 
C 50.605225 69.13209 50.370061 69.699824 50.370061 70.291721 
C 50.370061 70.883618 50.605225 71.451353 51.023759 71.869887 
C 51.442294 72.288422 52.010028 72.523585 52.601925 72.523585 
z
" clip-path="url(#p90622426d3)" style="stroke: #000000"/>
    <path d="M 50.522974 64.17064 
C 51.228189 64.17064 51.904614 63.890455 52.403276 63.391794 
C 52.901938 62.893132 53.182122 62.216706 53.182122 61.511492 
C 53.182122 60.806278 52.901938 60.129852 52.403276 59.631191 
C 51.904614 59.132529 51.228189 58.852344 50.522974 58.852344 
C 49.81776 58.852344 49.141335 59.132529 48.642673 59.631191 
C 48.144011 60.129852 47.863826 60.806278 47.863826 61.511492 
C 47.863826 62.216706 48.144011 62.893132 48.642673 63.391794 
C 49.141335 63.890455 49.81776 64.17064 50.522974 64.17064 
z
" clip-path="url(#p90622426d3)" style="stroke: #000000"/>
    <path d="M 52.48212 54.58938 
C 53.065251 54.58938 53.624578 54.3577 54.036914 53.945364 
C 54.44925 53.533027 54.680931 52.973701 54.680931 52.390569 
C 54.680931 51.807438 54.44925 51.248112 54.036914 50.835775 
C 53.624578 50.423439 53.065251 50.191758 52.48212 50.191758 
C 51.898988 50.191758 51.339662 50.423439 50.927326 50.835775 
C 50.514989 51.248112 50.283309 51.807438 50.283309 52.390569 
C 50.283309 52.973701 50.514989 53.533027 50.927326 53.945364 
C 51.339662 54.3577 51.898988 54.58938 52.48212 54.58938 
z
" clip-path="url(#p90622426d3)" style="stroke: #000000"/>
    <path d="M 77.804483 169.458077 
C 78.397866 169.458077 78.967025 169.222324 79.386609 168.802739 
C 79.806194 168.383154 80.041947 167.813995 80.041947 167.220613 
C 80.041947 166.62723 79.806194 166.058071 79.386609 165.638487 
C 78.967025 165.218902 78.397866 164.983149 77.804483 164.983149 
C 77.211101 164.983149 76.641942 165.218902 76.222357 165.638487 
C 75.802772 166.058071 75.567019 166.62723 75.567019 167.220613 
C 75.567019 167.813995 75.802772 168.383154 76.222357 168.802739 
C 76.641942 169.222324 77.211101 169.458077 77.804483 169.458077 
z
" clip-path="url(#p90622426d3)" style="stroke: #000000"/>
    <path d="M 75.304906 157.98343 
C 76.0099 157.98343 76.686114 157.703333 77.18462 157.204827 
C 77.683126 156.706321 77.963223 156.030107 77.963223 155.325113 
C 77.963223 154.62012 77.683126 153.943906 77.18462 153.4454 
C 76.686114 152.946894 76.0099 152.666797 75.304906 152.666797 
C 74.599912 152.666797 73.923698 152.946894 73.425192 153.4454 
C 72.926687 153.943906 72.64659 154.62012 72.64659 155.325113 
C 72.64659 156.030107 72.926687 156.706321 73.425192 157.204827 
C 73.923698 157.703333 74.599912 157.98343 75.304906 157.98343 
z
" clip-path="url(#p90622426d3)" style="stroke: #000000"/>
    <path d="M 69.843737 149.825642 
C 70.549171 149.825642 71.225808 149.54537 71.724626 149.046552 
C 72.223443 148.547735 72.503715 147.871098 72.503715 147.165663 
C 72.503715 146.460229 72.223443 145.783592 71.724626 145.284775 
C 71.225808 144.785957 70.549171 144.505685 69.843737 144.505685 
C 69.138302 144.505685 68.461666 144.785957 67.962848 145.284775 
C 67.46403 145.783592 67.183758 146.460229 67.183758 147.165663 
C 67.183758 147.871098 67.46403 148.547735 67.962848 149.046552 
C 68.461666 149.54537 69.138302 149.825642 69.843737 149.825642 
z
" clip-path="url(#p90622426d3)" style="stroke: #000000"/>
    <path d="M 57.786031 128.630018 
C 58.379044 128.630018 58.947847 128.394412 59.36717 127.975089 
C 59.786493 127.555766 60.022099 126.986962 60.022099 126.39395 
C 60.022099 125.800938 59.786493 125.232134 59.36717 124.812811 
C 58.947847 124.393488 58.379044 124.157882 57.786031 124.157882 
C 57.193019 124.157882 56.624215 124.393488 56.204893 124.812811 
C 55.78557 125.232134 55.549963 125.800938 55.549963 126.39395 
C 55.549963 126.986962 55.78557 127.555766 56.204893 127.975089 
C 56.624215 128.394412 57.193019 128.630018 57.786031 128.630018 
z
" clip-path="url(#p90622426d3)" style="stroke: #000000"/>
    <path d="M 57.367322 116.546802 
C 57.902834 116.546802 58.416485 116.334041 58.795149 115.955377 
C 59.173813 115.576713 59.386574 115.063062 59.386574 114.52755 
C 59.386574 113.992038 59.173813 113.478388 58.795149 113.099724 
C 58.416485 112.72106 57.902834 112.508299 57.367322 112.508299 
C 56.83181 112.508299 56.31816 112.72106 55.939496 113.099724 
C 55.560832 113.478388 55.348071 113.992038 55.348071 114.52755 
C 55.348071 115.063062 55.560832 115.576713 55.939496 115.955377 
C 56.31816 116.334041 56.83181 116.546802 57.367322 116.546802 
z
" clip-path="url(#p90622426d3)" style="stroke: #000000"/>
    <path d="M 53.730407 108.483259 
C 54.569053 108.483259 55.373463 108.150062 55.966475 107.55705 
C 56.559487 106.964038 56.892684 106.159628 56.892684 105.320982 
C 56.892684 104.482336 56.559487 103.677926 55.966475 103.084914 
C 55.373463 102.491902 54.569053 102.158704 53.730407 102.158704 
C 52.891761 102.158704 52.087351 102.491902 51.494339 103.084914 
C 50.901327 103.677926 50.568129 104.482336 50.568129 105.320982 
C 50.568129 106.159628 50.901327 106.964038 51.494339 107.55705 
C 52.087351 108.150062 52.891761 108.483259 53.730407 108.483259 
z
" clip-path="url(#p90622426d3)" style="stroke: #000000"/>
    <path d="M 50.585797 97.176702 
C 51.291011 97.176702 51.967437 96.896518 52.466098 96.397856 
C 52.96476 95.899194 53.244945 95.222769 53.244945 94.517555 
C 53.244945 93.81234 52.96476 93.135915 52.466098 92.637253 
C 51.967437 92.138591 51.291011 91.858407 50.585797 91.858407 
C 49.880583 91.858407 49.204157 92.138591 48.705495 92.637253 
C 48.206834 93.135915 47.926649 93.81234 47.926649 94.517555 
C 47.926649 95.222769 48.206834 95.899194 48.705495 96.397856 
C 49.204157 96.896518 49.880583 97.176702 50.585797 97.176702 
z
" clip-path="url(#p90622426d3)" style="stroke: #000000"/>
    <path d="M 44.593882 87.933216 
C 45.119564 87.933216 45.623786 87.724361 45.995499 87.352647 
C 46.367212 86.980934 46.576067 86.476712 46.576067 85.951031 
C 46.576067 85.425349 46.367212 84.921127 45.995499 84.549414 
C 45.623786 84.177701 45.119564 83.968846 44.593882 83.968846 
C 44.0682 83.968846 43.563978 84.177701 43.192265 84.549414 
C 42.820552 84.921127 42.611697 85.425349 42.611697 85.951031 
C 42.611697 86.476712 42.820552 86.980934 43.192265 87.352647 
C 43.563978 87.724361 44.0682 87.933216 44.593882 87.933216 
z
" clip-path="url(#p90622426d3)" style="stroke: #000000"/>
    <path d="M 40.859559 75.427834 
C 41.394061 75.427834 41.906744 75.215474 42.284694 74.837524 
C 42.662644 74.459574 42.875004 73.946891 42.875004 73.412389 
C 42.875004 72.877887 42.662644 72.365204 42.284694 71.987254 
C 41.906744 71.609304 41.394061 71.396944 40.859559 71.396944 
C 40.325056 71.396944 39.812374 71.609304 39.434424 71.987254 
C 39.056474 72.365204 38.844114 72.877887 38.844114 73.412389 
C 38.844114 73.946891 39.056474 74.459574 39.434424 74.837524 
C 39.812374 75.215474 40.325056 75.427834 40.859559 75.427834 
z
" clip-path="url(#p90622426d3)" style="stroke: #000000"/>
    <path d="M 38.967174 68.441144 
C 39.431231 68.441144 39.876344 68.256773 40.204482 67.928635 
C 40.53262 67.600497 40.716992 67.155384 40.716992 66.691327 
C 40.716992 66.22727 40.53262 65.782157 40.204482 65.454019 
C 39.876344 65.125881 39.431231 64.941509 38.967174 64.941509 
C 38.503117 64.941509 38.058004 65.125881 37.729866 65.454019 
C 37.401728 65.782157 37.217357 66.22727 37.217357 66.691327 
C 37.217357 67.155384 37.401728 67.600497 37.729866 67.928635 
C 38.058004 68.256773 38.503117 68.441144 38.967174 68.441144 
z
" clip-path="url(#p90622426d3)" style="stroke: #000000"/>
    <path d="M 62.620334 154.743677 
C 62.752936 154.743677 62.880124 154.690994 62.973888 154.597231 
C 63.067651 154.503467 63.120334 154.376279 63.120334 154.243677 
C 63.120334 154.111076 63.067651 153.983888 62.973888 153.890124 
C 62.880124 153.796361 62.752936 153.743677 62.620334 153.743677 
C 62.487733 153.743677 62.360544 153.796361 62.266781 153.890124 
C 62.173017 153.983888 62.120334 154.111076 62.120334 154.243677 
C 62.120334 154.376279 62.173017 154.503467 62.266781 154.597231 
C 62.360544 154.690994 62.487733 154.743677 62.620334 154.743677 
z
" clip-path="url(#p90622426d3)" style="stroke: #000000"/>
    <path d="M 55.477896 149.299417 
C 56.070909 149.299417 56.639712 149.063811 57.059035 148.644488 
C 57.478358 148.225165 57.713964 147.656361 57.713964 147.063349 
C 57.713964 146.470337 57.478358 145.901533 57.059035 145.48221 
C 56.639712 145.062887 56.070909 144.827281 55.477896 144.827281 
C 54.884884 144.827281 54.31608 145.062887 53.896758 145.48221 
C 53.477435 145.901533 53.241828 146.470337 53.241828 147.063349 
C 53.241828 147.656361 53.477435 148.225165 53.896758 148.644488 
C 54.31608 149.063811 54.884884 149.299417 55.477896 149.299417 
z
" clip-path="url(#p90622426d3)" style="stroke: #000000"/>
    <path d="M 50.604186 134.649095 
C 51.309401 134.649095 51.985826 134.36891 52.484488 133.870248 
C 52.98315 133.371587 53.263334 132.695161 53.263334 131.989947 
C 53.263334 131.284733 52.98315 130.608307 52.484488 130.109645 
C 51.985826 129.610984 51.309401 129.330799 50.604186 129.330799 
C 49.898972 129.330799 49.222547 129.610984 48.723885 130.109645 
C 48.225223 130.608307 47.945038 131.284733 47.945038 131.989947 
C 47.945038 132.695161 48.225223 133.371587 48.723885 133.870248 
C 49.222547 134.36891 49.898972 134.649095 50.604186 134.649095 
z
" clip-path="url(#p90622426d3)" style="stroke: #000000"/>
    <path d="M 48.89999 123.309613 
C 49.605425 123.309613 50.282061 123.029341 50.780879 122.530523 
C 51.279696 122.031706 51.559969 121.355069 51.559969 120.649635 
C 51.559969 119.9442 51.279696 119.267563 50.780879 118.768746 
C 50.282061 118.269928 49.605425 117.989656 48.89999 117.989656 
C 48.194555 117.989656 47.517919 118.269928 47.019101 118.768746 
C 46.520284 119.267563 46.240012 119.9442 46.240012 120.649635 
C 46.240012 121.355069 46.520284 122.031706 47.019101 122.530523 
C 47.517919 123.029341 48.194555 123.309613 48.89999 123.309613 
z
" clip-path="url(#p90622426d3)" style="stroke: #000000"/>
    <path d="M 42.849747 110.329456 
C 43.554962 110.329456 44.231387 110.049271 44.730049 109.55061 
C 45.228711 109.051948 45.508895 108.375522 45.508895 107.670308 
C 45.508895 106.965094 45.228711 106.288668 44.730049 105.790007 
C 44.231387 105.291345 43.554962 105.01116 42.849747 105.01116 
C 42.144533 105.01116 41.468108 105.291345 40.969446 105.790007 
C 40.470784 106.288668 40.190599 106.965094 40.190599 107.670308 
C 40.190599 108.375522 40.470784 109.051948 40.969446 109.55061 
C 41.468108 110.049271 42.144533 110.329456 42.849747 110.329456 
z
" clip-path="url(#p90622426d3)" style="stroke: #000000"/>
    <path d="M 33.272655 82.491106 
C 33.977869 82.491106 34.654295 82.210921 35.152957 81.712259 
C 35.651618 81.213598 35.931803 80.537172 35.931803 79.831958 
C 35.931803 79.126744 35.651618 78.450318 35.152957 77.951656 
C 34.654295 77.452995 33.977869 77.17281 33.272655 77.17281 
C 32.567441 77.17281 31.891015 77.452995 31.392353 77.951656 
C 30.893692 78.450318 30.613507 79.126744 30.613507 79.831958 
C 30.613507 80.537172 30.893692 81.213598 31.392353 81.712259 
C 31.891015 82.210921 32.567441 82.491106 33.272655 82.491106 
z
" clip-path="url(#p90622426d3)" style="stroke: #000000"/>
    <path d="M 44.545117 169.004448 
C 45.182847 169.004448 45.794543 168.751075 46.245487 168.300131 
C 46.69643 167.849188 46.949803 167.237491 46.949803 166.599761 
C 46.949803 165.962031 46.69643 165.350335 46.245487 164.899391 
C 45.794543 164.448448 45.182847 164.195075 44.545117 164.195075 
C 43.907386 164.195075 43.29569 164.448448 42.844746 164.899391 
C 42.393803 165.350335 42.14043 165.962031 42.14043 166.599761 
C 42.14043 167.237491 42.393803 167.849188 42.844746 168.300131 
C 43.29569 168.751075 43.907386 169.004448 44.545117 169.004448 
z
" clip-path="url(#p90622426d3)" style="stroke: #000000"/>
    <path d="M 42.817539 155.363569 
C 43.522753 155.363569 44.199179 155.083384 44.69784 154.584723 
C 45.196502 154.086061 45.476687 153.409635 45.476687 152.704421 
C 45.476687 151.999207 45.196502 151.322781 44.69784 150.82412 
C 44.199179 150.325458 43.522753 150.045273 42.817539 150.045273 
C 42.112325 150.045273 41.435899 150.325458 40.937237 150.82412 
C 40.438576 151.322781 40.158391 151.999207 40.158391 152.704421 
C 40.158391 153.409635 40.438576 154.086061 40.937237 154.584723 
C 41.435899 155.083384 42.112325 155.363569 42.817539 155.363569 
z
" clip-path="url(#p90622426d3)" style="stroke: #000000"/>
    <path d="M 40.527829 149.343478 
C 41.233043 149.343478 41.909468 149.063293 42.40813 148.564631 
C 42.906792 148.06597 43.186977 147.389544 43.186977 146.68433 
C 43.186977 145.979116 42.906792 145.30269 42.40813 144.804028 
C 41.909468 144.305366 41.233043 144.025182 40.527829 144.025182 
C 39.822614 144.025182 39.146189 144.305366 38.647527 144.804028 
C 38.148865 145.30269 37.868681 145.979116 37.868681 146.68433 
C 37.868681 147.389544 38.148865 148.06597 38.647527 148.564631 
C 39.146189 149.063293 39.822614 149.343478 40.527829 149.343478 
z
" clip-path="url(#p90622426d3)" style="stroke: #000000"/>
    <path d="M 33.712716 113.875327 
C 33.900243 113.875327 34.080115 113.800821 34.212716 113.66822 
C 34.345318 113.535618 34.419823 113.355747 34.419823 113.16822 
C 34.419823 112.980693 34.345318 112.800821 34.212716 112.66822 
C 34.080115 112.535618 33.900243 112.461113 33.712716 112.461113 
C 33.525189 112.461113 33.345318 112.535618 33.212716 112.66822 
C 33.080115 112.800821 33.005609 112.980693 33.005609 113.16822 
C 33.005609 113.355747 33.080115 113.535618 33.212716 113.66822 
C 33.345318 113.800821 33.525189 113.875327 33.712716 113.875327 
z
" clip-path="url(#p90622426d3)" style="stroke: #000000"/>
    <path d="M 40.04136 160.511734 
C 40.746574 160.511734 41.423 160.23155 41.921661 159.732888 
C 42.420323 159.234226 42.700508 158.5578 42.700508 157.852586 
C 42.700508 157.147372 42.420323 156.470946 41.921661 155.972285 
C 41.423 155.473623 40.746574 155.193438 40.04136 155.193438 
C 39.336146 155.193438 38.65972 155.473623 38.161058 155.972285 
C 37.662396 156.470946 37.382212 157.147372 37.382212 157.852586 
C 37.382212 158.5578 37.662396 159.234226 38.161058 159.732888 
C 38.65972 160.23155 39.336146 160.511734 40.04136 160.511734 
z
" clip-path="url(#p90622426d3)" style="stroke: #000000"/>
   </g>
   <g id="matplotlib.axis_1">
    <g id="xtick_1">
     <g id="line2d_1">
      <defs>
       <path id="m79e5ccf851" d="M 0 0 
L 0 3.5 
" style="stroke: #000000; stroke-width: 0.8"/>
      </defs>
      <g>
       <use xlink:href="#m79e5ccf851" x="18" y="189" style="stroke: #000000; stroke-width: 0.8"/>
      </g>
     </g>
     <g id="text_1">
      <!-- −10 -->
      <g transform="translate(7.447656 203.598437)scale(0.1 -0.1)">
       <defs>
        <path id="DejaVuSans-2212" d="M 678 2272 
L 4684 2272 
L 4684 1741 
L 678 1741 
L 678 2272 
z
" transform="scale(0.015625)"/>
        <path id="DejaVuSans-31" d="M 794 531 
L 1825 531 
L 1825 4091 
L 703 3866 
L 703 4441 
L 1819 4666 
L 2450 4666 
L 2450 531 
L 3481 531 
L 3481 0 
L 794 0 
L 794 531 
z
" transform="scale(0.015625)"/>
        <path id="DejaVuSans-30" d="M 2034 4250 
Q 1547 4250 1301 3770 
Q 1056 3291 1056 2328 
Q 1056 1369 1301 889 
Q 1547 409 2034 409 
Q 2525 409 2770 889 
Q 3016 1369 3016 2328 
Q 3016 3291 2770 3770 
Q 2525 4250 2034 4250 
z
M 2034 4750 
Q 2819 4750 3233 4129 
Q 3647 3509 3647 2328 
Q 3647 1150 3233 529 
Q 2819 -91 2034 -91 
Q 1250 -91 836 529 
Q 422 1150 422 2328 
Q 422 3509 836 4129 
Q 1250 4750 2034 4750 
z
" transform="scale(0.015625)"/>
       </defs>
       <use xlink:href="#DejaVuSans-2212"/>
       <use xlink:href="#DejaVuSans-31" x="83.789062"/>
       <use xlink:href="#DejaVuSans-30" x="147.412109"/>
      </g>
     </g>
    </g>
    <g id="xtick_2">
     <g id="line2d_2">
      <g>
       <use xlink:href="#m79e5ccf851" x="73.8" y="189" style="stroke: #000000; stroke-width: 0.8"/>
      </g>
     </g>
     <g id="text_2">
      <!-- 0 -->
      <g transform="translate(70.61875 203.598437)scale(0.1 -0.1)">
       <use xlink:href="#DejaVuSans-30"/>
      </g>
     </g>
    </g>
    <g id="xtick_3">
     <g id="line2d_3">
      <g>
       <use xlink:href="#m79e5ccf851" x="129.6" y="189" style="stroke: #000000; stroke-width: 0.8"/>
      </g>
     </g>
     <g id="text_3">
      <!-- 10 -->
      <g transform="translate(123.2375 203.598437)scale(0.1 -0.1)">
       <use xlink:href="#DejaVuSans-31"/>
       <use xlink:href="#DejaVuSans-30" x="63.623047"/>
      </g>
     </g>
    </g>
   </g>
   <g id="matplotlib.axis_2">
    <g id="ytick_1">
     <g id="line2d_4">
      <defs>
       <path id="mb772b570a6" d="M 0 0 
L -3.5 0 
" style="stroke: #000000; stroke-width: 0.8"/>
      </defs>
      <g>
       <use xlink:href="#mb772b570a6" x="18" y="189" style="stroke: #000000; stroke-width: 0.8"/>
      </g>
     </g>
     <g id="text_4">
      <!-- −15 -->
      <g transform="translate(-10.104688 192.799219)scale(0.1 -0.1)">
       <defs>
        <path id="DejaVuSans-35" d="M 691 4666 
L 3169 4666 
L 3169 4134 
L 1269 4134 
L 1269 2991 
Q 1406 3038 1543 3061 
Q 1681 3084 1819 3084 
Q 2600 3084 3056 2656 
Q 3513 2228 3513 1497 
Q 3513 744 3044 326 
Q 2575 -91 1722 -91 
Q 1428 -91 1123 -41 
Q 819 9 494 109 
L 494 744 
Q 775 591 1075 516 
Q 1375 441 1709 441 
Q 2250 441 2565 725 
Q 2881 1009 2881 1497 
Q 2881 1984 2565 2268 
Q 2250 2553 1709 2553 
Q 1456 2553 1204 2497 
Q 953 2441 691 2322 
L 691 4666 
z
" transform="scale(0.015625)"/>
       </defs>
       <use xlink:href="#DejaVuSans-2212"/>
       <use xlink:href="#DejaVuSans-31" x="83.789062"/>
       <use xlink:href="#DejaVuSans-35" x="147.412109"/>
      </g>
     </g>
    </g>
    <g id="ytick_2">
     <g id="line2d_5">
      <g>
       <use xlink:href="#mb772b570a6" x="18" y="161.82" style="stroke: #000000; stroke-width: 0.8"/>
      </g>
     </g>
     <g id="text_5">
      <!-- −10 -->
      <g transform="translate(-10.104688 165.619219)scale(0.1 -0.1)">
       <use xlink:href="#DejaVuSans-2212"/>
       <use xlink:href="#DejaVuSans-31" x="83.789062"/>
       <use xlink:href="#DejaVuSans-30" x="147.412109"/>
      </g>
     </g>
    </g>
    <g id="ytick_3">
     <g id="line2d_6">
      <g>
       <use xlink:href="#mb772b570a6" x="18" y="134.64" style="stroke: #000000; stroke-width: 0.8"/>
      </g>
     </g>
     <g id="text_6">
      <!-- −5 -->
      <g transform="translate(-3.742188 138.439219)scale(0.1 -0.1)">
       <use xlink:href="#DejaVuSans-2212"/>
       <use xlink:href="#DejaVuSans-35" x="83.789062"/>
      </g>
     </g>
    </g>
    <g id="ytick_4">
     <g id="line2d_7">
      <g>
       <use xlink:href="#mb772b570a6" x="18" y="107.46" style="stroke: #000000; stroke-width: 0.8"/>
      </g>
     </g>
     <g id="text_7">
      <!-- 0 -->
      <g transform="translate(4.6375 111.259219)scale(0.1 -0.1)">
       <use xlink:href="#DejaVuSans-30"/>
      </g>
     </g>
    </g>
    <g id="ytick_5">
     <g id="line2d_8">
      <g>
       <use xlink:href="#mb772b570a6" x="18" y="80.28" style="stroke: #000000; stroke-width: 0.8"/>
      </g>
     </g>
     <g id="text_8">
      <!-- 5 -->
      <g transform="translate(4.6375 84.079219)scale(0.1 -0.1)">
       <use xlink:href="#DejaVuSans-35"/>
      </g>
     </g>
    </g>
    <g id="ytick_6">
     <g id="line2d_9">
      <g>
       <use xlink:href="#mb772b570a6" x="18" y="53.1" style="stroke: #000000; stroke-width: 0.8"/>
      </g>
     </g>
     <g id="text_9">
      <!-- 10 -->
      <g transform="translate(-1.725 56.899219)scale(0.1 -0.1)">
       <use xlink:href="#DejaVuSans-31"/>
       <use xlink:href="#DejaVuSans-30" x="63.623047"/>
      </g>
     </g>
    </g>
    <g id="ytick_7">
     <g id="line2d_10">
      <g>
       <use xlink:href="#mb772b570a6" x="18" y="25.92" style="stroke: #000000; stroke-width: 0.8"/>
      </g>
     </g>
     <g id="text_10">
      <!-- 15 -->
      <g transform="translate(-1.725 29.719219)scale(0.1 -0.1)">
       <use xlink:href="#DejaVuSans-31"/>
       <use xlink:href="#DejaVuSans-35" x="63.623047"/>
      </g>
     </g>
    </g>
   </g>
   <g id="patch_3">
    <path d="M 18 189 
L 18 25.92 
" style="fill: none; stroke: #000000; stroke-width: 0.8; stroke-linejoin: miter; stroke-linecap: square"/>
   </g>
   <g id="patch_4">
    <path d="M 129.6 189 
L 129.6 25.92 
" style="fill: none; stroke: #000000; stroke-width: 0.8; stroke-linejoin: miter; stroke-linecap: square"/>
   </g>
   <g id="patch_5">
    <path d="M 18 189 
L 129.6 189 
" style="fill: none; stroke: #000000; stroke-width: 0.8; stroke-linejoin: miter; stroke-linecap: square"/>
   </g>
   <g id="patch_6">
    <path d="M 18 25.92 
L 129.6 25.92 
" style="fill: none; stroke: #000000; stroke-width: 0.8; stroke-linejoin: miter; stroke-linecap: square"/>
   </g>
  </g>
 </g>
 <defs>
  <clipPath id="p90622426d3">
   <rect x="18" y="25.92" width="111.6" height="163.08"/>
  </clipPath>
 </defs>
</svg>
