<?xml version="1.0" encoding="utf-8" standalone="no"?>
<!DOCTYPE svg PUBLIC "-//W3C//DTD SVG 1.1//EN"
  "http://www.w3.org/Graphics/SVG/1.1/DTD/svg11.dtd">
<svg xmlns:xlink="http://www.w3.org/1999/xlink" width="144pt" height="216pt" viewBox="0 0 144 216" xmlns="http://www.w3.org/2000/svg" version="1.1">
 <metadata>
  <rdf:RDF xmlns:dc="http://purl.org/dc/elements/1.1/" xmlns:cc="http://creativecommons.org/ns#" xmlns:rdf="http://www.w3.org/1999/02/22-rdf-syntax-ns#">
   <cc:Work>
    <dc:type rdf:resource="http://purl.org/dc/dcmitype/StillImage"/>
    <dc:date>2022-06-23T14:55:16.852522</dc:date>
    <dc:format>image/svg+xml</dc:format>
    <dc:creator>
     <cc:Agent>
      <dc:title>Matplotlib v3.5.1, https://matplotlib.org/</dc:title>
     </cc:Agent>
    </dc:creator>
   </cc:Work>
  </rdf:RDF>
 </metadata>
 <defs>
  <style type="text/css">*{stroke-linejoin: round; stroke-linecap: butt}</style>
 </defs>
 <g id="figure_1">
  <g id="patch_1">
   <path d="M 0 216 
L 144 216 
L 144 0 
L 0 0 
L 0 216 
z
" style="fill: none"/>
  </g>
  <g id="axes_1">
   <g id="patch_2">
    <path d="M 18 189 
L 129.6 189 
L 129.6 25.92 
L 18 25.92 
z
" style="fill: #ffffff"/>
   </g>
   <g id="PathCollection_1">
    <defs>
     <path id="m0df04b479d" d="M 0 2.738613 
C 0.726289 2.738613 1.422928 2.450055 1.936492 1.936492 
C 2.450055 1.422928 2.738613 0.726289 2.738613 0 
C 2.738613 -0.726289 2.450055 -1.422928 1.936492 -1.936492 
C 1.422928 -2.450055 0.726289 -2.738613 0 -2.738613 
C -0.726289 -2.738613 -1.422928 -2.450055 -1.936492 -1.936492 
C -2.450055 -1.422928 -2.738613 -0.726289 -2.738613 0 
C -2.738613 0.726289 -2.450055 1.422928 -1.936492 1.936492 
C -1.422928 2.450055 -0.726289 2.738613 0 2.738613 
z
" style="stroke: #ff0000; stroke-width: 1.75"/>
    </defs>
    <g clip-path="url(#pb73f9a3dd7)">
     <use xlink:href="#m0df04b479d" x="80.775" y="83.92143" style="fill: #ff0000; stroke: #ff0000; stroke-width: 1.75"/>
     <use xlink:href="#m0df04b479d" x="59.85" y="95.690715" style="fill: #ff0000; stroke: #ff0000; stroke-width: 1.75"/>
     <use xlink:href="#m0df04b479d" x="66.825" y="107.46" style="fill: #ff0000; stroke: #ff0000; stroke-width: 1.75"/>
     <use xlink:href="#m0df04b479d" x="80.775" y="107.46" style="fill: #ff0000; stroke: #ff0000; stroke-width: 1.75"/>
     <use xlink:href="#m0df04b479d" x="94.725" y="107.46" style="fill: #ff0000; stroke: #ff0000; stroke-width: 1.75"/>
     <use xlink:href="#m0df04b479d" x="59.85" y="119.229285" style="fill: #ff0000; stroke: #ff0000; stroke-width: 1.75"/>
     <use xlink:href="#m0df04b479d" x="80.775" y="130.99857" style="fill: #ff0000; stroke: #ff0000; stroke-width: 1.75"/>
    </g>
   </g>
   <g id="PathCollection_2">
    <defs>
     <path id="C0_0_89740e1951" d="M 0 2.738613 
C 0.726289 2.738613 1.422928 2.450055 1.936492 1.936492 
C 2.450055 1.422928 2.738613 0.726289 2.738613 -0 
C 2.738613 -0.726289 2.450055 -1.422928 1.936492 -1.936492 
C 1.422928 -2.450055 0.726289 -2.738613 0 -2.738613 
C -0.726289 -2.738613 -1.422928 -2.450055 -1.936492 -1.936492 
C -2.450055 -1.422928 -2.738613 -0.726289 -2.738613 0 
C -2.738613 0.726289 -2.450055 1.422928 -1.936492 1.936492 
C -1.422928 2.450055 -0.726289 2.738613 0 2.738613 
z
"/>
    </defs>
    <g clip-path="url(#pb73f9a3dd7)">
     <use xlink:href="#C0_0_89740e1951" x="66.825" y="83.92143" style="fill: none; stroke: #ff0000; stroke-width: 1.75"/>
    </g>
    <g clip-path="url(#pb73f9a3dd7)">
     <use xlink:href="#C0_0_89740e1951" x="73.8" y="95.690715" style="fill: none; stroke: #ff0000; stroke-width: 1.75"/>
    </g>
    <g clip-path="url(#pb73f9a3dd7)">
     <use xlink:href="#C0_0_89740e1951" x="87.75" y="95.690715" style="fill: none; stroke: #ff0000; stroke-width: 1.75"/>
    </g>
    <g clip-path="url(#pb73f9a3dd7)">
     <use xlink:href="#C0_0_89740e1951" x="52.875" y="107.46" style="fill: none; stroke: #ff0000; stroke-width: 1.75"/>
    </g>
    <g clip-path="url(#pb73f9a3dd7)">
     <use xlink:href="#C0_0_89740e1951" x="73.8" y="119.229285" style="fill: none; stroke: #ff0000; stroke-width: 1.75"/>
    </g>
    <g clip-path="url(#pb73f9a3dd7)">
     <use xlink:href="#C0_0_89740e1951" x="87.75" y="119.229285" style="fill: none; stroke: #ff0000; stroke-width: 1.75"/>
    </g>
    <g clip-path="url(#pb73f9a3dd7)">
     <use xlink:href="#C0_0_89740e1951" x="66.825" y="130.99857" style="fill: none; stroke: #ff0000; stroke-width: 1.75"/>
    </g>
   </g>
   <g id="PathCollection_3">
    <path d="M 109.342891 65.840771 
C 109.926801 65.840771 110.486874 65.608781 110.89976 65.195895 
C 111.312646 64.783009 111.544636 64.222936 111.544636 63.639026 
C 111.544636 63.055117 111.312646 62.495044 110.89976 62.082158 
C 110.486874 61.669271 109.926801 61.437282 109.342891 61.437282 
C 108.758982 61.437282 108.198909 61.669271 107.786023 62.082158 
C 107.373136 62.495044 107.141147 63.055117 107.141147 63.639026 
C 107.141147 64.222936 107.373136 64.783009 107.786023 65.195895 
C 108.198909 65.608781 108.758982 65.840771 109.342891 65.840771 
z
" clip-path="url(#pb73f9a3dd7)" style="stroke: #000000"/>
    <path d="M 105.895356 59.016335 
C 106.470936 59.016335 107.02302 58.787654 107.430016 58.380658 
C 107.837013 57.973661 108.065693 57.421578 108.065693 56.845998 
C 108.065693 56.270418 107.837013 55.718335 107.430016 55.311338 
C 107.02302 54.904342 106.470936 54.675662 105.895356 54.675662 
C 105.319776 54.675662 104.767693 54.904342 104.360697 55.311338 
C 103.9537 55.718335 103.72502 56.270418 103.72502 56.845998 
C 103.72502 57.421578 103.9537 57.973661 104.360697 58.380658 
C 104.767693 58.787654 105.319776 59.016335 105.895356 59.016335 
z
" clip-path="url(#pb73f9a3dd7)" style="stroke: #000000"/>
    <path d="M 97.752449 48.689102 
C 98.457664 48.689102 99.134089 48.408917 99.632751 47.910255 
C 100.131413 47.411593 100.411597 46.735168 100.411597 46.029954 
C 100.411597 45.324739 100.131413 44.648314 99.632751 44.149652 
C 99.134089 43.65099 98.457664 43.370806 97.752449 43.370806 
C 97.047235 43.370806 96.37081 43.65099 95.872148 44.149652 
C 95.373486 44.648314 95.093302 45.324739 95.093302 46.029954 
C 95.093302 46.735168 95.373486 47.411593 95.872148 47.910255 
C 96.37081 48.408917 97.047235 48.689102 97.752449 48.689102 
z
" clip-path="url(#pb73f9a3dd7)" style="stroke: #000000"/>
    <path d="M 114.729221 123.756969 
C 115.322604 123.756969 115.891763 123.521215 116.311347 123.10163 
C 116.730932 122.682046 116.966686 122.112887 116.966686 121.519504 
C 116.966686 120.926122 116.730932 120.356963 116.311347 119.937378 
C 115.891763 119.517793 115.322604 119.28204 114.729221 119.28204 
C 114.135839 119.28204 113.56668 119.517793 113.147095 119.937378 
C 112.72751 120.356963 112.491757 120.926122 112.491757 121.519504 
C 112.491757 122.112887 112.72751 122.682046 113.147095 123.10163 
C 113.56668 123.521215 114.135839 123.756969 114.729221 123.756969 
z
" clip-path="url(#pb73f9a3dd7)" style="stroke: #000000"/>
    <path d="M 113.921564 116.249398 
C 114.626998 116.249398 115.303635 115.969125 115.802452 115.470308 
C 116.30127 114.97149 116.581542 114.294854 116.581542 113.589419 
C 116.581542 112.883985 116.30127 112.207348 115.802452 111.70853 
C 115.303635 111.209713 114.626998 110.929441 113.921564 110.929441 
C 113.216129 110.929441 112.539492 111.209713 112.040675 111.70853 
C 111.541857 112.207348 111.261585 112.883985 111.261585 113.589419 
C 111.261585 114.294854 111.541857 114.97149 112.040675 115.470308 
C 112.539492 115.969125 113.216129 116.249398 113.921564 116.249398 
z
" clip-path="url(#pb73f9a3dd7)" style="stroke: #000000"/>
    <path d="M 108.042418 100.844462 
C 108.747853 100.844462 109.424489 100.56419 109.923307 100.065373 
C 110.422125 99.566555 110.702397 98.889918 110.702397 98.184484 
C 110.702397 97.479049 110.422125 96.802412 109.923307 96.303595 
C 109.424489 95.804777 108.747853 95.524505 108.042418 95.524505 
C 107.336984 95.524505 106.660347 95.804777 106.161529 96.303595 
C 105.662712 96.802412 105.38244 97.479049 105.38244 98.184484 
C 105.38244 98.889918 105.662712 99.566555 106.161529 100.065373 
C 106.660347 100.56419 107.336984 100.844462 108.042418 100.844462 
z
" clip-path="url(#pb73f9a3dd7)" style="stroke: #000000"/>
    <path d="M 108.766716 88.274139 
C 109.035969 88.274139 109.29423 88.167164 109.484621 87.976773 
C 109.675012 87.786382 109.781987 87.528121 109.781987 87.258868 
C 109.781987 86.989614 109.675012 86.731353 109.484621 86.540962 
C 109.29423 86.350571 109.035969 86.243596 108.766716 86.243596 
C 108.497463 86.243596 108.239201 86.350571 108.04881 86.540962 
C 107.85842 86.731353 107.751444 86.989614 107.751444 87.258868 
C 107.751444 87.528121 107.85842 87.786382 108.04881 87.976773 
C 108.239201 88.167164 108.497463 88.274139 108.766716 88.274139 
z
" clip-path="url(#pb73f9a3dd7)" style="stroke: #000000"/>
    <path d="M 105.160622 80.36533 
C 105.509649 80.36533 105.844427 80.22666 106.091227 79.97986 
C 106.338026 79.733061 106.476696 79.398283 106.476696 79.049256 
C 106.476696 78.700229 106.338026 78.36545 106.091227 78.118651 
C 105.844427 77.871851 105.509649 77.733182 105.160622 77.733182 
C 104.811595 77.733182 104.476816 77.871851 104.230017 78.118651 
C 103.983218 78.36545 103.844548 78.700229 103.844548 79.049256 
C 103.844548 79.398283 103.983218 79.733061 104.230017 79.97986 
C 104.476816 80.22666 104.811595 80.36533 105.160622 80.36533 
z
" clip-path="url(#pb73f9a3dd7)" style="stroke: #000000"/>
    <path d="M 101.898174 66.827003 
C 102.603609 66.827003 103.280246 66.546731 103.779063 66.047914 
C 104.277881 65.549096 104.558153 64.872459 104.558153 64.167025 
C 104.558153 63.46159 104.277881 62.784954 103.779063 62.286136 
C 103.280246 61.787318 102.603609 61.507046 101.898174 61.507046 
C 101.19274 61.507046 100.516103 61.787318 100.017285 62.286136 
C 99.518468 62.784954 99.238196 63.46159 99.238196 64.167025 
C 99.238196 64.872459 99.518468 65.549096 100.017285 66.047914 
C 100.516103 66.546731 101.19274 66.827003 101.898174 66.827003 
z
" clip-path="url(#pb73f9a3dd7)" style="stroke: #000000"/>
    <path d="M 94.403569 63.697825 
C 94.996581 63.697825 95.565385 63.462219 95.984708 63.042896 
C 96.40403 62.623573 96.639637 62.054769 96.639637 61.461757 
C 96.639637 60.868745 96.40403 60.299941 95.984708 59.880618 
C 95.565385 59.461295 94.996581 59.225689 94.403569 59.225689 
C 93.810557 59.225689 93.241753 59.461295 92.82243 59.880618 
C 92.403107 60.299941 92.167501 60.868745 92.167501 61.461757 
C 92.167501 62.054769 92.403107 62.623573 92.82243 63.042896 
C 93.241753 63.462219 93.810557 63.697825 94.403569 63.697825 
z
" clip-path="url(#pb73f9a3dd7)" style="stroke: #000000"/>
    <path d="M 86.798433 49.480649 
C 87.503868 49.480649 88.180504 49.200377 88.679322 48.701559 
C 89.178139 48.202741 89.458412 47.526105 89.458412 46.82067 
C 89.458412 46.115236 89.178139 45.438599 88.679322 44.939781 
C 88.180504 44.440964 87.503868 44.160692 86.798433 44.160692 
C 86.092999 44.160692 85.416362 44.440964 84.917544 44.939781 
C 84.418727 45.438599 84.138455 46.115236 84.138455 46.82067 
C 84.138455 47.526105 84.418727 48.202741 84.917544 48.701559 
C 85.416362 49.200377 86.092999 49.480649 86.798433 49.480649 
z
" clip-path="url(#pb73f9a3dd7)" style="stroke: #000000"/>
    <path d="M 82.548806 30.3676 
C 83.25424 30.3676 83.930877 30.087328 84.429695 29.58851 
C 84.928512 29.089693 85.208784 28.413056 85.208784 27.707622 
C 85.208784 27.002187 84.928512 26.32555 84.429695 25.826733 
C 83.930877 25.327915 83.25424 25.047643 82.548806 25.047643 
C 81.843371 25.047643 81.166734 25.327915 80.667917 25.826733 
C 80.169099 26.32555 79.888827 27.002187 79.888827 27.707622 
C 79.888827 28.413056 80.169099 29.089693 80.667917 29.58851 
C 81.166734 30.087328 81.843371 30.3676 82.548806 30.3676 
z
" clip-path="url(#pb73f9a3dd7)" style="stroke: #000000"/>
    <path d="M 121.668565 166.387147 
C 122.373999 166.387147 123.050636 166.106874 123.549454 165.608057 
C 124.048271 165.109239 124.328543 164.432603 124.328543 163.727168 
C 124.328543 163.021733 124.048271 162.345097 123.549454 161.846279 
C 123.050636 161.347462 122.373999 161.067189 121.668565 161.067189 
C 120.96313 161.067189 120.286493 161.347462 119.787676 161.846279 
C 119.288858 162.345097 119.008586 163.021733 119.008586 163.727168 
C 119.008586 164.432603 119.288858 165.109239 119.787676 165.608057 
C 120.286493 166.106874 120.96313 166.387147 121.668565 166.387147 
z
" clip-path="url(#pb73f9a3dd7)" style="stroke: #000000"/>
    <path d="M 113.027495 144.149389 
C 113.732929 144.149389 114.409566 143.869117 114.908384 143.370299 
C 115.407201 142.871482 115.687473 142.194845 115.687473 141.48941 
C 115.687473 140.783976 115.407201 140.107339 114.908384 139.608522 
C 114.409566 139.109704 113.732929 138.829432 113.027495 138.829432 
C 112.32206 138.829432 111.645424 139.109704 111.146606 139.608522 
C 110.647788 140.107339 110.367516 140.783976 110.367516 141.48941 
C 110.367516 142.194845 110.647788 142.871482 111.146606 143.370299 
C 111.645424 143.869117 112.32206 144.149389 113.027495 144.149389 
z
" clip-path="url(#pb73f9a3dd7)" style="stroke: #000000"/>
    <path d="M 112.479408 139.116989 
C 113.184842 139.116989 113.861479 138.836717 114.360297 138.337899 
C 114.859114 137.839082 115.139386 137.162445 115.139386 136.45701 
C 115.139386 135.751576 114.859114 135.074939 114.360297 134.576122 
C 113.861479 134.077304 113.184842 133.797032 112.479408 133.797032 
C 111.773973 133.797032 111.097336 134.077304 110.598519 134.576122 
C 110.099701 135.074939 109.819429 135.751576 109.819429 136.45701 
C 109.819429 137.162445 110.099701 137.839082 110.598519 138.337899 
C 111.097336 138.836717 111.773973 139.116989 112.479408 139.116989 
z
" clip-path="url(#pb73f9a3dd7)" style="stroke: #000000"/>
    <path d="M 103.51358 125.070204 
C 104.219014 125.070204 104.895651 124.789932 105.394469 124.291114 
C 105.893286 123.792297 106.173558 123.11566 106.173558 122.410225 
C 106.173558 121.704791 105.893286 121.028154 105.394469 120.529336 
C 104.895651 120.030519 104.219014 119.750247 103.51358 119.750247 
C 102.808145 119.750247 102.131508 120.030519 101.632691 120.529336 
C 101.133873 121.028154 100.853601 121.704791 100.853601 122.410225 
C 100.853601 123.11566 101.133873 123.792297 101.632691 124.291114 
C 102.131508 124.789932 102.808145 125.070204 103.51358 125.070204 
z
" clip-path="url(#pb73f9a3dd7)" style="stroke: #000000"/>
    <path d="M 104.63812 113.395498 
C 105.275254 113.395498 105.886377 113.142362 106.336899 112.69184 
C 106.78742 112.241319 107.040556 111.630195 107.040556 110.993062 
C 107.040556 110.355928 106.78742 109.744804 106.336899 109.294283 
C 105.886377 108.843762 105.275254 108.590626 104.63812 108.590626 
C 104.000987 108.590626 103.389863 108.843762 102.939341 109.294283 
C 102.48882 109.744804 102.235684 110.355928 102.235684 110.993062 
C 102.235684 111.630195 102.48882 112.241319 102.939341 112.69184 
C 103.389863 113.142362 104.000987 113.395498 104.63812 113.395498 
z
" clip-path="url(#pb73f9a3dd7)" style="stroke: #000000"/>
    <path d="M 99.943213 102.936064 
C 100.648647 102.936064 101.325284 102.655792 101.824102 102.156975 
C 102.322919 101.658157 102.603191 100.98152 102.603191 100.276086 
C 102.603191 99.570651 102.322919 98.894015 101.824102 98.395197 
C 101.325284 97.896379 100.648647 97.616107 99.943213 97.616107 
C 99.237778 97.616107 98.561142 97.896379 98.062324 98.395197 
C 97.563507 98.894015 97.283234 99.570651 97.283234 100.276086 
C 97.283234 100.98152 97.563507 101.658157 98.062324 102.156975 
C 98.561142 102.655792 99.237778 102.936064 99.943213 102.936064 
z
" clip-path="url(#pb73f9a3dd7)" style="stroke: #000000"/>
    <path d="M 97.558267 89.994905 
C 98.11467 89.994905 98.648358 89.773844 99.041794 89.380408 
C 99.43523 88.986972 99.656291 88.453284 99.656291 87.896881 
C 99.656291 87.340479 99.43523 86.80679 99.041794 86.413354 
C 98.648358 86.019918 98.11467 85.798857 97.558267 85.798857 
C 97.001865 85.798857 96.468176 86.019918 96.07474 86.413354 
C 95.681304 86.80679 95.460243 87.340479 95.460243 87.896881 
C 95.460243 88.453284 95.681304 88.986972 96.07474 89.380408 
C 96.468176 89.773844 97.001865 89.994905 97.558267 89.994905 
z
" clip-path="url(#pb73f9a3dd7)" style="stroke: #000000"/>
    <path d="M 92.691362 86.306853 
C 93.329092 86.306853 93.940789 86.05348 94.391732 85.602536 
C 94.842676 85.151593 95.096049 84.539897 95.096049 83.902166 
C 95.096049 83.264436 94.842676 82.65274 94.391732 82.201796 
C 93.940789 81.750853 93.329092 81.49748 92.691362 81.49748 
C 92.053632 81.49748 91.441935 81.750853 90.990992 82.201796 
C 90.540049 82.65274 90.286676 83.264436 90.286676 83.902166 
C 90.286676 84.539897 90.540049 85.151593 90.990992 85.602536 
C 91.441935 86.05348 92.053632 86.306853 92.691362 86.306853 
z
" clip-path="url(#pb73f9a3dd7)" style="stroke: #000000"/>
    <path d="M 94.559117 77.978535 
C 95.076629 77.978535 95.573015 77.772926 95.938951 77.406989 
C 96.304888 77.041053 96.510497 76.544667 96.510497 76.027155 
C 96.510497 75.509643 96.304888 75.013257 95.938951 74.64732 
C 95.573015 74.281384 95.076629 74.075774 94.559117 74.075774 
C 94.041604 74.075774 93.545219 74.281384 93.179282 74.64732 
C 92.813346 75.013257 92.607736 75.509643 92.607736 76.027155 
C 92.607736 76.544667 92.813346 77.041053 93.179282 77.406989 
C 93.545219 77.772926 94.041604 77.978535 94.559117 77.978535 
z
" clip-path="url(#pb73f9a3dd7)" style="stroke: #000000"/>
    <path d="M 81.57618 64.796695 
C 81.917696 64.796695 82.245271 64.661009 82.48676 64.41952 
C 82.728248 64.178032 82.863934 63.850457 82.863934 63.50894 
C 82.863934 63.167424 82.728248 62.839849 82.48676 62.59836 
C 82.245271 62.356871 81.917696 62.221185 81.57618 62.221185 
C 81.234663 62.221185 80.907088 62.356871 80.665599 62.59836 
C 80.424111 62.839849 80.288425 63.167424 80.288425 63.50894 
C 80.288425 63.850457 80.424111 64.178032 80.665599 64.41952 
C 80.907088 64.661009 81.234663 64.796695 81.57618 64.796695 
z
" clip-path="url(#pb73f9a3dd7)" style="stroke: #000000"/>
    <path d="M 81.585727 40.426051 
C 82.147001 40.426051 82.685362 40.203055 83.082242 39.806174 
C 83.479123 39.409293 83.70212 38.870932 83.70212 38.309658 
C 83.70212 37.748384 83.479123 37.210023 83.082242 36.813143 
C 82.685362 36.416262 82.147001 36.193266 81.585727 36.193266 
C 81.024453 36.193266 80.486092 36.416262 80.089211 36.813143 
C 79.692331 37.210023 79.469334 37.748384 79.469334 38.309658 
C 79.469334 38.870932 79.692331 39.409293 80.089211 39.806174 
C 80.486092 40.203055 81.024453 40.426051 81.585727 40.426051 
z
" clip-path="url(#pb73f9a3dd7)" style="stroke: #000000"/>
    <path d="M 75.546681 35.844351 
C 76.252115 35.844351 76.928752 35.564079 77.427569 35.065261 
C 77.926387 34.566444 78.206659 33.889807 78.206659 33.184373 
C 78.206659 32.478938 77.926387 31.802301 77.427569 31.303484 
C 76.928752 30.804666 76.252115 30.524394 75.546681 30.524394 
C 74.841246 30.524394 74.164609 30.804666 73.665792 31.303484 
C 73.166974 31.802301 72.886702 32.478938 72.886702 33.184373 
C 72.886702 33.889807 73.166974 34.566444 73.665792 35.065261 
C 74.164609 35.564079 74.841246 35.844351 75.546681 35.844351 
z
" clip-path="url(#pb73f9a3dd7)" style="stroke: #000000"/>
    <path d="M 109.224553 170.342358 
C 109.785827 170.342358 110.324188 170.119361 110.721068 169.722481 
C 111.117949 169.3256 111.340945 168.787239 111.340945 168.225965 
C 111.340945 167.664691 111.117949 167.12633 110.721068 166.72945 
C 110.324188 166.332569 109.785827 166.109572 109.224553 166.109572 
C 108.663279 166.109572 108.124918 166.332569 107.728037 166.72945 
C 107.331156 167.12633 107.10816 167.664691 107.10816 168.225965 
C 107.10816 168.787239 107.331156 169.3256 107.728037 169.722481 
C 108.124918 170.119361 108.663279 170.342358 109.224553 170.342358 
z
" clip-path="url(#pb73f9a3dd7)" style="stroke: #000000"/>
    <path d="M 106.978548 156.833318 
C 107.683983 156.833318 108.36062 156.553046 108.859437 156.054228 
C 109.358255 155.555411 109.638527 154.878774 109.638527 154.173339 
C 109.638527 153.467905 109.358255 152.791268 108.859437 152.292451 
C 108.36062 151.793633 107.683983 151.513361 106.978548 151.513361 
C 106.273114 151.513361 105.596477 151.793633 105.097659 152.292451 
C 104.598842 152.791268 104.31857 153.467905 104.31857 154.173339 
C 104.31857 154.878774 104.598842 155.555411 105.097659 156.054228 
C 105.596477 156.553046 106.273114 156.833318 106.978548 156.833318 
z
" clip-path="url(#pb73f9a3dd7)" style="stroke: #000000"/>
    <path d="M 105.476283 146.852358 
C 106.069296 146.852358 106.638099 146.616752 107.057422 146.197429 
C 107.476745 145.778106 107.712351 145.209302 107.712351 144.61629 
C 107.712351 144.023278 107.476745 143.454474 107.057422 143.035151 
C 106.638099 142.615829 106.069296 142.380222 105.476283 142.380222 
C 104.883271 142.380222 104.314467 142.615829 103.895145 143.035151 
C 103.475822 143.454474 103.240215 144.023278 103.240215 144.61629 
C 103.240215 145.209302 103.475822 145.778106 103.895145 146.197429 
C 104.314467 146.616752 104.883271 146.852358 105.476283 146.852358 
z
" clip-path="url(#pb73f9a3dd7)" style="stroke: #000000"/>
    <path d="M 100.839045 140.83735 
C 101.432428 140.83735 102.001587 140.601597 102.421171 140.182012 
C 102.840756 139.762427 103.07651 139.193268 103.07651 138.599886 
C 103.07651 138.006503 102.840756 137.437344 102.421171 137.01776 
C 102.001587 136.598175 101.432428 136.362422 100.839045 136.362422 
C 100.245663 136.362422 99.676504 136.598175 99.256919 137.01776 
C 98.837334 137.437344 98.601581 138.006503 98.601581 138.599886 
C 98.601581 139.193268 98.837334 139.762427 99.256919 140.182012 
C 99.676504 140.601597 100.245663 140.83735 100.839045 140.83735 
z
" clip-path="url(#pb73f9a3dd7)" style="stroke: #000000"/>
    <path d="M 97.586046 127.914259 
C 98.140191 127.914259 98.671714 127.694095 99.063554 127.302255 
C 99.455394 126.910415 99.675558 126.378892 99.675558 125.824746 
C 99.675558 125.270601 99.455394 124.739078 99.063554 124.347238 
C 98.671714 123.955398 98.140191 123.735234 97.586046 123.735234 
C 97.031901 123.735234 96.500377 123.955398 96.108537 124.347238 
C 95.716698 124.739078 95.496533 125.270601 95.496533 125.824746 
C 95.496533 126.378892 95.716698 126.910415 96.108537 127.302255 
C 96.500377 127.694095 97.031901 127.914259 97.586046 127.914259 
z
" clip-path="url(#pb73f9a3dd7)" style="stroke: #000000"/>
    <path d="M 92.596639 123.326959 
C 93.435415 123.326959 94.239951 122.993709 94.833056 122.400604 
C 95.426161 121.8075 95.75941 121.002964 95.75941 120.164187 
C 95.75941 119.32541 95.426161 118.520875 94.833056 117.92777 
C 94.239951 117.334665 93.435415 117.001415 92.596639 117.001415 
C 91.757862 117.001415 90.953326 117.334665 90.360221 117.92777 
C 89.767117 118.520875 89.433867 119.32541 89.433867 120.164187 
C 89.433867 121.002964 89.767117 121.8075 90.360221 122.400604 
C 90.953326 122.993709 91.757862 123.326959 92.596639 123.326959 
z
" clip-path="url(#pb73f9a3dd7)" style="stroke: #000000"/>
    <path d="M 87.601451 106.594954 
C 88.194463 106.594954 88.763267 106.359348 89.18259 105.940025 
C 89.601913 105.520702 89.837519 104.951898 89.837519 104.358886 
C 89.837519 103.765874 89.601913 103.19707 89.18259 102.777747 
C 88.763267 102.358424 88.194463 102.122818 87.601451 102.122818 
C 87.008439 102.122818 86.439635 102.358424 86.020312 102.777747 
C 85.600989 103.19707 85.365383 103.765874 85.365383 104.358886 
C 85.365383 104.951898 85.600989 105.520702 86.020312 105.940025 
C 86.439635 106.359348 87.008439 106.594954 87.601451 106.594954 
z
" clip-path="url(#pb73f9a3dd7)" style="stroke: #000000"/>
    <path d="M 88.774319 99.745503 
C 89.613096 99.745503 90.417631 99.412254 91.010736 98.819149 
C 91.603841 98.226044 91.937091 97.421509 91.937091 96.582732 
C 91.937091 95.743955 91.603841 94.939419 91.010736 94.346315 
C 90.417631 93.75321 89.613096 93.41996 88.774319 93.41996 
C 87.935542 93.41996 87.131007 93.75321 86.537902 94.346315 
C 85.944797 94.939419 85.611547 95.743955 85.611547 96.582732 
C 85.611547 97.421509 85.944797 98.226044 86.537902 98.819149 
C 87.131007 99.412254 87.935542 99.745503 88.774319 99.745503 
z
" clip-path="url(#pb73f9a3dd7)" style="stroke: #000000"/>
    <path d="M 84.406385 90.529268 
C 85.11182 90.529268 85.788457 90.248996 86.287274 89.750178 
C 86.786092 89.251361 87.066364 88.574724 87.066364 87.869289 
C 87.066364 87.163855 86.786092 86.487218 86.287274 85.988401 
C 85.788457 85.489583 85.11182 85.209311 84.406385 85.209311 
C 83.700951 85.209311 83.024314 85.489583 82.525497 85.988401 
C 82.026679 86.487218 81.746407 87.163855 81.746407 87.869289 
C 81.746407 88.574724 82.026679 89.251361 82.525497 89.750178 
C 83.024314 90.248996 83.700951 90.529268 84.406385 90.529268 
z
" clip-path="url(#pb73f9a3dd7)" style="stroke: #000000"/>
    <path d="M 78.667654 79.371573 
C 79.373089 79.371573 80.049726 79.091301 80.548543 78.592483 
C 81.047361 78.093665 81.327633 77.417029 81.327633 76.711594 
C 81.327633 76.00616 81.047361 75.329523 80.548543 74.830705 
C 80.049726 74.331888 79.373089 74.051616 78.667654 74.051616 
C 77.96222 74.051616 77.285583 74.331888 76.786765 74.830705 
C 76.287948 75.329523 76.007676 76.00616 76.007676 76.711594 
C 76.007676 77.417029 76.287948 78.093665 76.786765 78.592483 
C 77.285583 79.091301 77.96222 79.371573 78.667654 79.371573 
z
" clip-path="url(#pb73f9a3dd7)" style="stroke: #000000"/>
    <path d="M 76.762915 71.103806 
C 77.46835 71.103806 78.144986 70.823534 78.643804 70.324716 
C 79.142622 69.825898 79.422894 69.149262 79.422894 68.443827 
C 79.422894 67.738393 79.142622 67.061756 78.643804 66.562938 
C 78.144986 66.064121 77.46835 65.783849 76.762915 65.783849 
C 76.057481 65.783849 75.380844 66.064121 74.882026 66.562938 
C 74.383209 67.061756 74.102937 67.738393 74.102937 68.443827 
C 74.102937 69.149262 74.383209 69.825898 74.882026 70.324716 
C 75.380844 70.823534 76.057481 71.103806 76.762915 71.103806 
z
" clip-path="url(#pb73f9a3dd7)" style="stroke: #000000"/>
    <path d="M 70.916434 56.256732 
C 71.621869 56.256732 72.298505 55.97646 72.797323 55.477642 
C 73.296141 54.978825 73.576413 54.302188 73.576413 53.596753 
C 73.576413 52.891319 73.296141 52.214682 72.797323 51.715864 
C 72.298505 51.217047 71.621869 50.936775 70.916434 50.936775 
C 70.211 50.936775 69.534363 51.217047 69.035545 51.715864 
C 68.536728 52.214682 68.256456 52.891319 68.256456 53.596753 
C 68.256456 54.302188 68.536728 54.978825 69.035545 55.477642 
C 69.534363 55.97646 70.211 56.256732 70.916434 56.256732 
z
" clip-path="url(#pb73f9a3dd7)" style="stroke: #000000"/>
    <path d="M 68.075415 47.04837 
C 68.78063 47.04837 69.457055 46.768186 69.955717 46.269524 
C 70.454379 45.770862 70.734563 45.094437 70.734563 44.389222 
C 70.734563 43.684008 70.454379 43.007583 69.955717 42.508921 
C 69.457055 42.010259 68.78063 41.730074 68.075415 41.730074 
C 67.370201 41.730074 66.693776 42.010259 66.195114 42.508921 
C 65.696452 43.007583 65.416267 43.684008 65.416267 44.389222 
C 65.416267 45.094437 65.696452 45.770862 66.195114 46.269524 
C 66.693776 46.768186 67.370201 47.04837 68.075415 47.04837 
z
" clip-path="url(#pb73f9a3dd7)" style="stroke: #000000"/>
    <path d="M 60.748139 29.418373 
C 61.453353 29.418373 62.129779 29.138189 62.628441 28.639527 
C 63.127103 28.140865 63.407287 27.46444 63.407287 26.759225 
C 63.407287 26.054011 63.127103 25.377586 62.628441 24.878924 
C 62.129779 24.380262 61.453353 24.100077 60.748139 24.100077 
C 60.042925 24.100077 59.366499 24.380262 58.867838 24.878924 
C 58.369176 25.377586 58.088991 26.054011 58.088991 26.759225 
C 58.088991 27.46444 58.369176 28.140865 58.867838 28.639527 
C 59.366499 29.138189 60.042925 29.418373 60.748139 29.418373 
z
" clip-path="url(#pb73f9a3dd7)" style="stroke: #000000"/>
    <path d="M 96.76794 177.581583 
C 97.329214 177.581583 97.867575 177.358586 98.264455 176.961706 
C 98.661336 176.564825 98.884333 176.026464 98.884333 175.46519 
C 98.884333 174.903916 98.661336 174.365555 98.264455 173.968674 
C 97.867575 173.571794 97.329214 173.348797 96.76794 173.348797 
C 96.206666 173.348797 95.668305 173.571794 95.271424 173.968674 
C 94.874544 174.365555 94.651547 174.903916 94.651547 175.46519 
C 94.651547 176.026464 94.874544 176.564825 95.271424 176.961706 
C 95.668305 177.358586 96.206666 177.581583 96.76794 177.581583 
z
" clip-path="url(#pb73f9a3dd7)" style="stroke: #000000"/>
    <path d="M 95.180291 148.155291 
C 95.885725 148.155291 96.562362 147.875019 97.06118 147.376201 
C 97.559997 146.877384 97.840269 146.200747 97.840269 145.495312 
C 97.840269 144.789878 97.559997 144.113241 97.06118 143.614423 
C 96.562362 143.115606 95.885725 142.835334 95.180291 142.835334 
C 94.474856 142.835334 93.79822 143.115606 93.299402 143.614423 
C 92.800584 144.113241 92.520312 144.789878 92.520312 145.495312 
C 92.520312 146.200747 92.800584 146.877384 93.299402 147.376201 
C 93.79822 147.875019 94.474856 148.155291 95.180291 148.155291 
z
" clip-path="url(#pb73f9a3dd7)" style="stroke: #000000"/>
    <path d="M 89.978833 140.046659 
C 90.616265 140.046659 91.227675 139.793404 91.678408 139.342672 
C 92.12914 138.891939 92.382395 138.280529 92.382395 137.643097 
C 92.382395 137.005665 92.12914 136.394254 91.678408 135.943522 
C 91.227675 135.492789 90.616265 135.239535 89.978833 135.239535 
C 89.341401 135.239535 88.72999 135.492789 88.279258 135.943522 
C 87.828525 136.394254 87.575271 137.005665 87.575271 137.643097 
C 87.575271 138.280529 87.828525 138.891939 88.279258 139.342672 
C 88.72999 139.793404 89.341401 140.046659 89.978833 140.046659 
z
" clip-path="url(#pb73f9a3dd7)" style="stroke: #000000"/>
    <path d="M 84.96955 136.308088 
C 85.808327 136.308088 86.612862 135.974839 87.205967 135.381734 
C 87.799072 134.788629 88.132322 133.984093 88.132322 133.145316 
C 88.132322 132.30654 87.799072 131.502004 87.205967 130.908899 
C 86.612862 130.315794 85.808327 129.982545 84.96955 129.982545 
C 84.130773 129.982545 83.326237 130.315794 82.733133 130.908899 
C 82.140028 131.502004 81.806778 132.30654 81.806778 133.145316 
C 81.806778 133.984093 82.140028 134.788629 82.733133 135.381734 
C 83.326237 135.974839 84.130773 136.308088 84.96955 136.308088 
z
" clip-path="url(#pb73f9a3dd7)" style="stroke: #000000"/>
    <path d="M 85.389496 120.13202 
C 86.228273 120.13202 87.032808 119.798771 87.625913 119.205666 
C 88.219018 118.612561 88.552268 117.808025 88.552268 116.969248 
C 88.552268 116.130472 88.219018 115.325936 87.625913 114.732831 
C 87.032808 114.139726 86.228273 113.806477 85.389496 113.806477 
C 84.550719 113.806477 83.746183 114.139726 83.153079 114.732831 
C 82.559974 115.325936 82.226724 116.130472 82.226724 116.969248 
C 82.226724 117.808025 82.559974 118.612561 83.153079 119.205666 
C 83.746183 119.798771 84.550719 120.13202 85.389496 120.13202 
z
" clip-path="url(#pb73f9a3dd7)" style="stroke: #000000"/>
    <path d="M 77.772233 106.427935 
C 78.486314 106.427935 79.171244 106.144228 79.676176 105.639296 
C 80.181108 105.134365 80.464815 104.449434 80.464815 103.735353 
C 80.464815 103.021272 80.181108 102.336341 79.676176 101.83141 
C 79.171244 101.326478 78.486314 101.042771 77.772233 101.042771 
C 77.058151 101.042771 76.373221 101.326478 75.868289 101.83141 
C 75.363358 102.336341 75.07965 103.021272 75.07965 103.735353 
C 75.07965 104.449434 75.363358 105.134365 75.868289 105.639296 
C 76.373221 106.144228 77.058151 106.427935 77.772233 106.427935 
z
" clip-path="url(#pb73f9a3dd7)" style="stroke: #000000"/>
    <path d="M 74.739492 100.98541 
C 75.444927 100.98541 76.121563 100.705138 76.620381 100.20632 
C 77.119199 99.707503 77.399471 99.030866 77.399471 98.325431 
C 77.399471 97.619997 77.119199 96.94336 76.620381 96.444542 
C 76.121563 95.945725 75.444927 95.665453 74.739492 95.665453 
C 74.034058 95.665453 73.357421 95.945725 72.858603 96.444542 
C 72.359786 96.94336 72.079514 97.619997 72.079514 98.325431 
C 72.079514 99.030866 72.359786 99.707503 72.858603 100.20632 
C 73.357421 100.705138 74.034058 100.98541 74.739492 100.98541 
z
" clip-path="url(#pb73f9a3dd7)" style="stroke: #000000"/>
    <path d="M 66.839557 91.96766 
C 67.432569 91.96766 68.001373 91.732054 68.420696 91.312731 
C 68.840019 90.893408 69.075625 90.324604 69.075625 89.731592 
C 69.075625 89.13858 68.840019 88.569776 68.420696 88.150453 
C 68.001373 87.73113 67.432569 87.495524 66.839557 87.495524 
C 66.246545 87.495524 65.677741 87.73113 65.258418 88.150453 
C 64.839095 88.569776 64.603489 89.13858 64.603489 89.731592 
C 64.603489 90.324604 64.839095 90.893408 65.258418 91.312731 
C 65.677741 91.732054 66.246545 91.96766 66.839557 91.96766 
z
" clip-path="url(#pb73f9a3dd7)" style="stroke: #000000"/>
    <path d="M 62.771273 85.60875 
C 63.476708 85.60875 64.153345 85.328478 64.652162 84.829661 
C 65.15098 84.330843 65.431252 83.654206 65.431252 82.948772 
C 65.431252 82.243337 65.15098 81.566701 64.652162 81.067883 
C 64.153345 80.569065 63.476708 80.288793 62.771273 80.288793 
C 62.065839 80.288793 61.389202 80.569065 60.890384 81.067883 
C 60.391567 81.566701 60.111295 82.243337 60.111295 82.948772 
C 60.111295 83.654206 60.391567 84.330843 60.890384 84.829661 
C 61.389202 85.328478 62.065839 85.60875 62.771273 85.60875 
z
" clip-path="url(#pb73f9a3dd7)" style="stroke: #000000"/>
    <path d="M 65.500194 72.298799 
C 66.01146 72.298799 66.501854 72.095671 66.863373 71.734152 
C 67.224893 71.372632 67.428021 70.882238 67.428021 70.370972 
C 67.428021 69.859706 67.224893 69.369312 66.863373 69.007793 
C 66.501854 68.646273 66.01146 68.443145 65.500194 68.443145 
C 64.988928 68.443145 64.498534 68.646273 64.137014 69.007793 
C 63.775495 69.369312 63.572367 69.859706 63.572367 70.370972 
C 63.572367 70.882238 63.775495 71.372632 64.137014 71.734152 
C 64.498534 72.095671 64.988928 72.298799 65.500194 72.298799 
z
" clip-path="url(#pb73f9a3dd7)" style="stroke: #000000"/>
    <path d="M 57.223293 60.229286 
C 57.928727 60.229286 58.605364 59.949014 59.104182 59.450196 
C 59.602999 58.951378 59.883271 58.274742 59.883271 57.569307 
C 59.883271 56.863873 59.602999 56.187236 59.104182 55.688418 
C 58.605364 55.189601 57.928727 54.909329 57.223293 54.909329 
C 56.517858 54.909329 55.841222 55.189601 55.342404 55.688418 
C 54.843586 56.187236 54.563314 56.863873 54.563314 57.569307 
C 54.563314 58.274742 54.843586 58.951378 55.342404 59.450196 
C 55.841222 59.949014 56.517858 60.229286 57.223293 60.229286 
z
" clip-path="url(#pb73f9a3dd7)" style="stroke: #000000"/>
    <path d="M 53.626637 42.216951 
C 54.332072 42.216951 55.008708 41.936679 55.507526 41.437861 
C 56.006343 40.939044 56.286616 40.262407 56.286616 39.556972 
C 56.286616 38.851538 56.006343 38.174901 55.507526 37.676083 
C 55.008708 37.177266 54.332072 36.896994 53.626637 36.896994 
C 52.921202 36.896994 52.244566 37.177266 51.745748 37.676083 
C 51.246931 38.174901 50.966658 38.851538 50.966658 39.556972 
C 50.966658 40.262407 51.246931 40.939044 51.745748 41.437861 
C 52.244566 41.936679 52.921202 42.216951 53.626637 42.216951 
z
" clip-path="url(#pb73f9a3dd7)" style="stroke: #000000"/>
    <path d="M 90.401776 178.400286 
C 91.106991 178.400286 91.783416 178.120102 92.282078 177.62144 
C 92.78074 177.122778 93.060924 176.446353 93.060924 175.741138 
C 93.060924 175.035924 92.78074 174.359499 92.282078 173.860837 
C 91.783416 173.362175 91.106991 173.08199 90.401776 173.08199 
C 89.696562 173.08199 89.020137 173.362175 88.521475 173.860837 
C 88.022813 174.359499 87.742628 175.035924 87.742628 175.741138 
C 87.742628 176.446353 88.022813 177.122778 88.521475 177.62144 
C 89.020137 178.120102 89.696562 178.400286 90.401776 178.400286 
z
" clip-path="url(#pb73f9a3dd7)" style="stroke: #000000"/>
    <path d="M 83.661661 170.650883 
C 84.366875 170.650883 85.043301 170.370698 85.541962 169.872036 
C 86.040624 169.373375 86.320809 168.696949 86.320809 167.991735 
C 86.320809 167.286521 86.040624 166.610095 85.541962 166.111433 
C 85.043301 165.612771 84.366875 165.332587 83.661661 165.332587 
C 82.956447 165.332587 82.280021 165.612771 81.781359 166.111433 
C 81.282698 166.610095 81.002513 167.286521 81.002513 167.991735 
C 81.002513 168.696949 81.282698 169.373375 81.781359 169.872036 
C 82.280021 170.370698 82.956447 170.650883 83.661661 170.650883 
z
" clip-path="url(#pb73f9a3dd7)" style="stroke: #000000"/>
    <path d="M 85.763821 154.874755 
C 85.896423 154.874755 86.023611 154.822072 86.117375 154.728309 
C 86.211138 154.634545 86.263821 154.507357 86.263821 154.374755 
C 86.263821 154.242154 86.211138 154.114966 86.117375 154.021202 
C 86.023611 153.927439 85.896423 153.874755 85.763821 153.874755 
C 85.63122 153.874755 85.504032 153.927439 85.410268 154.021202 
C 85.316505 154.114966 85.263821 154.242154 85.263821 154.374755 
C 85.263821 154.507357 85.316505 154.634545 85.410268 154.728309 
C 85.504032 154.822072 85.63122 154.874755 85.763821 154.874755 
z
" clip-path="url(#pb73f9a3dd7)" style="stroke: #000000"/>
    <path d="M 79.882519 144.779754 
C 80.587954 144.779754 81.264591 144.499482 81.763408 144.000664 
C 82.262226 143.501846 82.542498 142.82521 82.542498 142.119775 
C 82.542498 141.414341 82.262226 140.737704 81.763408 140.238886 
C 81.264591 139.740069 80.587954 139.459797 79.882519 139.459797 
C 79.177085 139.459797 78.500448 139.740069 78.001631 140.238886 
C 77.502813 140.737704 77.222541 141.414341 77.222541 142.119775 
C 77.222541 142.82521 77.502813 143.501846 78.001631 144.000664 
C 78.500448 144.499482 79.177085 144.779754 79.882519 144.779754 
z
" clip-path="url(#pb73f9a3dd7)" style="stroke: #000000"/>
    <path d="M 76.595005 136.433469 
C 77.188018 136.433469 77.756821 136.197862 78.176144 135.778539 
C 78.595467 135.359217 78.831073 134.790413 78.831073 134.197401 
C 78.831073 133.604388 78.595467 133.035585 78.176144 132.616262 
C 77.756821 132.196939 77.188018 131.961333 76.595005 131.961333 
C 76.001993 131.961333 75.433189 132.196939 75.013867 132.616262 
C 74.594544 133.035585 74.358937 133.604388 74.358937 134.197401 
C 74.358937 134.790413 74.594544 135.359217 75.013867 135.778539 
C 75.433189 136.197862 76.001993 136.433469 76.595005 136.433469 
z
" clip-path="url(#pb73f9a3dd7)" style="stroke: #000000"/>
    <path d="M 72.181078 121.205334 
C 72.886512 121.205334 73.563149 120.925062 74.061967 120.426244 
C 74.560784 119.927427 74.841056 119.25079 74.841056 118.545356 
C 74.841056 117.839921 74.560784 117.163284 74.061967 116.664467 
C 73.563149 116.165649 72.886512 115.885377 72.181078 115.885377 
C 71.475643 115.885377 70.799006 116.165649 70.300189 116.664467 
C 69.801371 117.163284 69.521099 117.839921 69.521099 118.545356 
C 69.521099 119.25079 69.801371 119.927427 70.300189 120.426244 
C 70.799006 120.925062 71.475643 121.205334 72.181078 121.205334 
z
" clip-path="url(#pb73f9a3dd7)" style="stroke: #000000"/>
    <path d="M 70.839412 115.15157 
C 71.547474 115.15157 72.22663 114.870254 72.727306 114.369578 
C 73.227981 113.868903 73.509297 113.189746 73.509297 112.481684 
C 73.509297 111.773622 73.227981 111.094466 72.727306 110.59379 
C 72.22663 110.093115 71.547474 109.811799 70.839412 109.811799 
C 70.13135 109.811799 69.452193 110.093115 68.951517 110.59379 
C 68.450842 111.094466 68.169526 111.773622 68.169526 112.481684 
C 68.169526 113.189746 68.450842 113.868903 68.951517 114.369578 
C 69.452193 114.870254 70.13135 115.15157 70.839412 115.15157 
z
" clip-path="url(#pb73f9a3dd7)" style="stroke: #000000"/>
    <path d="M 66.459153 104.776136 
C 67.164807 104.776136 67.841655 104.495776 68.340628 103.996803 
C 68.839601 103.49783 69.119961 102.820982 69.119961 102.115327 
C 69.119961 101.409673 68.839601 100.732825 68.340628 100.233852 
C 67.841655 99.734878 67.164807 99.454519 66.459153 99.454519 
C 65.753498 99.454519 65.07665 99.734878 64.577677 100.233852 
C 64.078704 100.732825 63.798344 101.409673 63.798344 102.115327 
C 63.798344 102.820982 64.078704 103.49783 64.577677 103.996803 
C 65.07665 104.495776 65.753498 104.776136 66.459153 104.776136 
z
" clip-path="url(#pb73f9a3dd7)" style="stroke: #000000"/>
    <path d="M 60.034744 99.013681 
C 60.873521 99.013681 61.678057 98.680431 62.271161 98.087326 
C 62.864266 97.494222 63.197516 96.689686 63.197516 95.850909 
C 63.197516 95.012132 62.864266 94.207597 62.271161 93.614492 
C 61.678057 93.021387 60.873521 92.688138 60.034744 92.688138 
C 59.195967 92.688138 58.391432 93.021387 57.798327 93.614492 
C 57.205222 94.207597 56.871973 95.012132 56.871973 95.850909 
C 56.871973 96.689686 57.205222 97.494222 57.798327 98.087326 
C 58.391432 98.680431 59.195967 99.013681 60.034744 99.013681 
z
" clip-path="url(#pb73f9a3dd7)" style="stroke: #000000"/>
    <path d="M 55.184127 87.64483 
C 55.73963 87.64483 56.272456 87.424126 56.665256 87.031326 
C 57.058056 86.638526 57.278759 86.105701 57.278759 85.550198 
C 57.278759 84.994695 57.058056 84.461869 56.665256 84.069069 
C 56.272456 83.67627 55.73963 83.455566 55.184127 83.455566 
C 54.628625 83.455566 54.095799 83.67627 53.702999 84.069069 
C 53.310199 84.461869 53.089496 84.994695 53.089496 85.550198 
C 53.089496 86.105701 53.310199 86.638526 53.702999 87.031326 
C 54.095799 87.424126 54.628625 87.64483 55.184127 87.64483 
z
" clip-path="url(#pb73f9a3dd7)" style="stroke: #000000"/>
    <path d="M 52.601925 72.9517 
C 53.30736 72.9517 53.983996 72.671428 54.482814 72.17261 
C 54.981631 71.673793 55.261904 70.997156 55.261904 70.291721 
C 55.261904 69.586287 54.981631 68.90965 54.482814 68.410832 
C 53.983996 67.912015 53.30736 67.631743 52.601925 67.631743 
C 51.89649 67.631743 51.219854 67.912015 50.721036 68.410832 
C 50.222219 68.90965 49.941946 69.586287 49.941946 70.291721 
C 49.941946 70.997156 50.222219 71.673793 50.721036 72.17261 
C 51.219854 72.671428 51.89649 72.9517 52.601925 72.9517 
z
" clip-path="url(#pb73f9a3dd7)" style="stroke: #000000"/>
    <path d="M 50.522974 64.171471 
C 51.228409 64.171471 51.905046 63.891198 52.403863 63.392381 
C 52.902681 62.893563 53.182953 62.216927 53.182953 61.511492 
C 53.182953 60.806058 52.902681 60.129421 52.403863 59.630603 
C 51.905046 59.131786 51.228409 58.851514 50.522974 58.851514 
C 49.81754 58.851514 49.140903 59.131786 48.642085 59.630603 
C 48.143268 60.129421 47.862996 60.806058 47.862996 61.511492 
C 47.862996 62.216927 48.143268 62.893563 48.642085 63.392381 
C 49.140903 63.891198 49.81754 64.171471 50.522974 64.171471 
z
" clip-path="url(#pb73f9a3dd7)" style="stroke: #000000"/>
    <path d="M 52.48212 55.049717 
C 53.187334 55.049717 53.863759 54.769533 54.362421 54.270871 
C 54.861083 53.772209 55.141268 53.095784 55.141268 52.390569 
C 55.141268 51.685355 54.861083 51.00893 54.362421 50.510268 
C 53.863759 50.011606 53.187334 49.731422 52.48212 49.731422 
C 51.776905 49.731422 51.10048 50.011606 50.601818 50.510268 
C 50.103156 51.00893 49.822972 51.685355 49.822972 52.390569 
C 49.822972 53.095784 50.103156 53.772209 50.601818 54.270871 
C 51.10048 54.769533 51.776905 55.049717 52.48212 55.049717 
z
" clip-path="url(#pb73f9a3dd7)" style="stroke: #000000"/>
    <path d="M 77.804483 169.879761 
C 78.509698 169.879761 79.186123 169.599576 79.684785 169.100914 
C 80.183447 168.602253 80.463631 167.925827 80.463631 167.220613 
C 80.463631 166.515399 80.183447 165.838973 79.684785 165.340311 
C 79.186123 164.841649 78.509698 164.561465 77.804483 164.561465 
C 77.099269 164.561465 76.422843 164.841649 75.924182 165.340311 
C 75.42552 165.838973 75.145335 166.515399 75.145335 167.220613 
C 75.145335 167.925827 75.42552 168.602253 75.924182 169.100914 
C 76.422843 169.599576 77.099269 169.879761 77.804483 169.879761 
z
" clip-path="url(#pb73f9a3dd7)" style="stroke: #000000"/>
    <path d="M 75.304906 157.985092 
C 76.010341 157.985092 76.686977 157.70482 77.185795 157.206002 
C 77.684613 156.707185 77.964885 156.030548 77.964885 155.325113 
C 77.964885 154.619679 77.684613 153.943042 77.185795 153.444224 
C 76.686977 152.945407 76.010341 152.665135 75.304906 152.665135 
C 74.599472 152.665135 73.922835 152.945407 73.424017 153.444224 
C 72.9252 153.943042 72.644928 154.619679 72.644928 155.325113 
C 72.644928 156.030548 72.9252 156.707185 73.424017 157.206002 
C 73.922835 157.70482 74.599472 157.985092 75.304906 157.985092 
z
" clip-path="url(#pb73f9a3dd7)" style="stroke: #000000"/>
    <path d="M 69.843737 149.825642 
C 70.549171 149.825642 71.225808 149.54537 71.724626 149.046552 
C 72.223443 148.547735 72.503715 147.871098 72.503715 147.165663 
C 72.503715 146.460229 72.223443 145.783592 71.724626 145.284775 
C 71.225808 144.785957 70.549171 144.505685 69.843737 144.505685 
C 69.138302 144.505685 68.461666 144.785957 67.962848 145.284775 
C 67.46403 145.783592 67.183758 146.460229 67.183758 147.165663 
C 67.183758 147.871098 67.46403 148.547735 67.962848 149.046552 
C 68.461666 149.54537 69.138302 149.825642 69.843737 149.825642 
z
" clip-path="url(#pb73f9a3dd7)" style="stroke: #000000"/>
    <path d="M 65.513482 142.747814 
C 66.050996 142.747814 66.566567 142.534258 66.946646 142.154178 
C 67.326726 141.774099 67.540282 141.258528 67.540282 140.721014 
C 67.540282 140.1835 67.326726 139.667929 66.946646 139.28785 
C 66.566567 138.90777 66.050996 138.694214 65.513482 138.694214 
C 64.975968 138.694214 64.460397 138.90777 64.080318 139.28785 
C 63.700238 139.667929 63.486682 140.1835 63.486682 140.721014 
C 63.486682 141.258528 63.700238 141.774099 64.080318 142.154178 
C 64.460397 142.534258 64.975968 142.747814 65.513482 142.747814 
z
" clip-path="url(#pb73f9a3dd7)" style="stroke: #000000"/>
    <path d="M 57.786031 128.816417 
C 58.428477 128.816417 59.044697 128.561171 59.498974 128.106893 
C 59.953252 127.652615 60.208499 127.036396 60.208499 126.39395 
C 60.208499 125.751504 59.953252 125.135285 59.498974 124.681007 
C 59.044697 124.226729 58.428477 123.971483 57.786031 123.971483 
C 57.143586 123.971483 56.527366 124.226729 56.073088 124.681007 
C 55.618811 125.135285 55.363564 125.751504 55.363564 126.39395 
C 55.363564 127.036396 55.618811 127.652615 56.073088 128.106893 
C 56.527366 128.561171 57.143586 128.816417 57.786031 128.816417 
z
" clip-path="url(#pb73f9a3dd7)" style="stroke: #000000"/>
    <path d="M 57.367322 116.763618 
C 57.960334 116.763618 58.529138 116.528012 58.948461 116.108689 
C 59.367784 115.689366 59.60339 115.120562 59.60339 114.52755 
C 59.60339 113.934538 59.367784 113.365734 58.948461 112.946411 
C 58.529138 112.527088 57.960334 112.291482 57.367322 112.291482 
C 56.77431 112.291482 56.205506 112.527088 55.786183 112.946411 
C 55.36686 113.365734 55.131254 113.934538 55.131254 114.52755 
C 55.131254 115.120562 55.36686 115.689366 55.786183 116.108689 
C 56.205506 116.528012 56.77431 116.763618 57.367322 116.763618 
z
" clip-path="url(#pb73f9a3dd7)" style="stroke: #000000"/>
    <path d="M 53.730407 108.483753 
C 54.569184 108.483753 55.373719 108.150504 55.966824 107.557399 
C 56.559929 106.964294 56.893178 106.159759 56.893178 105.320982 
C 56.893178 104.482205 56.559929 103.677669 55.966824 103.084564 
C 55.373719 102.49146 54.569184 102.15821 53.730407 102.15821 
C 52.89163 102.15821 52.087094 102.49146 51.493989 103.084564 
C 50.900885 103.677669 50.567635 104.482205 50.567635 105.320982 
C 50.567635 106.159759 50.900885 106.964294 51.493989 107.557399 
C 52.087094 108.150504 52.89163 108.483753 53.730407 108.483753 
z
" clip-path="url(#pb73f9a3dd7)" style="stroke: #000000"/>
    <path d="M 50.585797 97.177533 
C 51.291231 97.177533 51.967868 96.897261 52.466686 96.398443 
C 52.965503 95.899626 53.245775 95.222989 53.245775 94.517555 
C 53.245775 93.81212 52.965503 93.135483 52.466686 92.636666 
C 51.967868 92.137848 51.291231 91.857576 50.585797 91.857576 
C 49.880362 91.857576 49.203726 92.137848 48.704908 92.636666 
C 48.20609 93.135483 47.925818 93.81212 47.925818 94.517555 
C 47.925818 95.222989 48.20609 95.899626 48.704908 96.398443 
C 49.203726 96.897261 49.880362 97.177533 50.585797 97.177533 
z
" clip-path="url(#pb73f9a3dd7)" style="stroke: #000000"/>
    <path d="M 44.593882 88.188495 
C 45.187264 88.188495 45.756423 87.952742 46.176008 87.533157 
C 46.595593 87.113572 46.831346 86.544413 46.831346 85.951031 
C 46.831346 85.357648 46.595593 84.788489 46.176008 84.368905 
C 45.756423 83.94932 45.187264 83.713567 44.593882 83.713567 
C 44.0005 83.713567 43.431341 83.94932 43.011756 84.368905 
C 42.592171 84.788489 42.356418 85.357648 42.356418 85.951031 
C 42.356418 86.544413 42.592171 87.113572 43.011756 87.533157 
C 43.431341 87.952742 44.0005 88.188495 44.593882 88.188495 
z
" clip-path="url(#pb73f9a3dd7)" style="stroke: #000000"/>
    <path d="M 40.859559 75.648457 
C 41.452571 75.648457 42.021375 75.412851 42.440698 74.993528 
C 42.860021 74.574205 43.095627 74.005401 43.095627 73.412389 
C 43.095627 72.819377 42.860021 72.250573 42.440698 71.83125 
C 42.021375 71.411927 41.452571 71.176321 40.859559 71.176321 
C 40.266547 71.176321 39.697743 71.411927 39.27842 71.83125 
C 38.859097 72.250573 38.623491 72.819377 38.623491 73.412389 
C 38.623491 74.005401 38.859097 74.574205 39.27842 74.993528 
C 39.697743 75.412851 40.266547 75.648457 40.859559 75.648457 
z
" clip-path="url(#pb73f9a3dd7)" style="stroke: #000000"/>
    <path d="M 38.967174 68.927395 
C 39.560187 68.927395 40.12899 68.691788 40.548313 68.272466 
C 40.967636 67.853143 41.203242 67.284339 41.203242 66.691327 
C 41.203242 66.098315 40.967636 65.529511 40.548313 65.110188 
C 40.12899 64.690865 39.560187 64.455259 38.967174 64.455259 
C 38.374162 64.455259 37.805358 64.690865 37.386036 65.110188 
C 36.966713 65.529511 36.731106 66.098315 36.731106 66.691327 
C 36.731106 67.284339 36.966713 67.853143 37.386036 68.272466 
C 37.805358 68.691788 38.374162 68.927395 38.967174 68.927395 
z
" clip-path="url(#pb73f9a3dd7)" style="stroke: #000000"/>
    <path d="M 62.620334 156.479745 
C 63.213346 156.479745 63.78215 156.244139 64.201473 155.824816 
C 64.620796 155.405493 64.856402 154.83669 64.856402 154.243677 
C 64.856402 153.650665 64.620796 153.081862 64.201473 152.662539 
C 63.78215 152.243216 63.213346 152.007609 62.620334 152.007609 
C 62.027322 152.007609 61.458518 152.243216 61.039195 152.662539 
C 60.619872 153.081862 60.384266 153.650665 60.384266 154.243677 
C 60.384266 154.83669 60.619872 155.405493 61.039195 155.824816 
C 61.458518 156.244139 62.027322 156.479745 62.620334 156.479745 
z
" clip-path="url(#pb73f9a3dd7)" style="stroke: #000000"/>
    <path d="M 55.477896 149.723328 
C 56.183331 149.723328 56.859968 149.443055 57.358785 148.944238 
C 57.857603 148.44542 58.137875 147.768784 58.137875 147.063349 
C 58.137875 146.357914 57.857603 145.681278 57.358785 145.18246 
C 56.859968 144.683643 56.183331 144.40337 55.477896 144.40337 
C 54.772462 144.40337 54.095825 144.683643 53.597008 145.18246 
C 53.09819 145.681278 52.817918 146.357914 52.817918 147.063349 
C 52.817918 147.768784 53.09819 148.44542 53.597008 148.944238 
C 54.095825 149.443055 54.772462 149.723328 55.477896 149.723328 
z
" clip-path="url(#pb73f9a3dd7)" style="stroke: #000000"/>
    <path d="M 50.604186 134.649925 
C 51.309621 134.649925 51.986258 134.369653 52.485075 133.870836 
C 52.983893 133.372018 53.264165 132.695381 53.264165 131.989947 
C 53.264165 131.284512 52.983893 130.607876 52.485075 130.109058 
C 51.986258 129.61024 51.309621 129.329968 50.604186 129.329968 
C 49.898752 129.329968 49.222115 129.61024 48.723297 130.109058 
C 48.22448 130.607876 47.944208 131.284512 47.944208 131.989947 
C 47.944208 132.695381 48.22448 133.372018 48.723297 133.870836 
C 49.222115 134.369653 49.898752 134.649925 50.604186 134.649925 
z
" clip-path="url(#pb73f9a3dd7)" style="stroke: #000000"/>
    <path d="M 48.89999 123.309613 
C 49.605425 123.309613 50.282061 123.029341 50.780879 122.530523 
C 51.279696 122.031706 51.559969 121.355069 51.559969 120.649635 
C 51.559969 119.9442 51.279696 119.267563 50.780879 118.768746 
C 50.282061 118.269928 49.605425 117.989656 48.89999 117.989656 
C 48.194555 117.989656 47.517919 118.269928 47.019101 118.768746 
C 46.520284 119.267563 46.240012 119.9442 46.240012 120.649635 
C 46.240012 121.355069 46.520284 122.031706 47.019101 122.530523 
C 47.517919 123.029341 48.194555 123.309613 48.89999 123.309613 
z
" clip-path="url(#pb73f9a3dd7)" style="stroke: #000000"/>
    <path d="M 42.849747 110.330287 
C 43.555182 110.330287 44.231819 110.050015 44.730636 109.551197 
C 45.229454 109.052379 45.509726 108.375743 45.509726 107.670308 
C 45.509726 106.964874 45.229454 106.288237 44.730636 105.789419 
C 44.231819 105.290602 43.555182 105.01033 42.849747 105.01033 
C 42.144313 105.01033 41.467676 105.290602 40.968858 105.789419 
C 40.470041 106.288237 40.189769 106.964874 40.189769 107.670308 
C 40.189769 108.375743 40.470041 109.052379 40.968858 109.551197 
C 41.467676 110.050015 42.144313 110.330287 42.849747 110.330287 
z
" clip-path="url(#pb73f9a3dd7)" style="stroke: #000000"/>
    <path d="M 40.461238 100.965868 
C 40.99574 100.965868 41.508423 100.753508 41.886373 100.375557 
C 42.264323 99.997607 42.476683 99.484925 42.476683 98.950423 
C 42.476683 98.41592 42.264323 97.903238 41.886373 97.525288 
C 41.508423 97.147337 40.99574 96.934977 40.461238 96.934977 
C 39.926736 96.934977 39.414053 97.147337 39.036103 97.525288 
C 38.658153 97.903238 38.445793 98.41592 38.445793 98.950423 
C 38.445793 99.484925 38.658153 99.997607 39.036103 100.375557 
C 39.414053 100.753508 39.926736 100.965868 40.461238 100.965868 
z
" clip-path="url(#pb73f9a3dd7)" style="stroke: #000000"/>
    <path d="M 33.201199 92.476742 
C 33.514087 92.476742 33.814202 92.35243 34.035447 92.131185 
C 34.256692 91.90994 34.381004 91.609825 34.381004 91.296937 
C 34.381004 90.984048 34.256692 90.683933 34.035447 90.462688 
C 33.814202 90.241443 33.514087 90.117131 33.201199 90.117131 
C 32.88831 90.117131 32.588195 90.241443 32.36695 90.462688 
C 32.145705 90.683933 32.021393 90.984048 32.021393 91.296937 
C 32.021393 91.609825 32.145705 91.90994 32.36695 92.131185 
C 32.588195 92.35243 32.88831 92.476742 33.201199 92.476742 
z
" clip-path="url(#pb73f9a3dd7)" style="stroke: #000000"/>
    <path d="M 33.272655 82.491936 
C 33.97809 82.491936 34.654726 82.211664 35.153544 81.712847 
C 35.652361 81.214029 35.932634 80.537392 35.932634 79.831958 
C 35.932634 79.126523 35.652361 78.449887 35.153544 77.951069 
C 34.654726 77.452251 33.97809 77.171979 33.272655 77.171979 
C 32.56722 77.171979 31.890584 77.452251 31.391766 77.951069 
C 30.892949 78.449887 30.612676 79.126523 30.612676 79.831958 
C 30.612676 80.537392 30.892949 81.214029 31.391766 81.712847 
C 31.890584 82.211664 32.56722 82.491936 33.272655 82.491936 
z
" clip-path="url(#pb73f9a3dd7)" style="stroke: #000000"/>
    <path d="M 44.545117 169.25974 
C 45.250551 169.25974 45.927188 168.979468 46.426005 168.48065 
C 46.924823 167.981833 47.205095 167.305196 47.205095 166.599761 
C 47.205095 165.894327 46.924823 165.21769 46.426005 164.718872 
C 45.927188 164.220055 45.250551 163.939783 44.545117 163.939783 
C 43.839682 163.939783 43.163045 164.220055 42.664228 164.718872 
C 42.16541 165.21769 41.885138 165.894327 41.885138 166.599761 
C 41.885138 167.305196 42.16541 167.981833 42.664228 168.48065 
C 43.163045 168.979468 43.839682 169.25974 44.545117 169.25974 
z
" clip-path="url(#pb73f9a3dd7)" style="stroke: #000000"/>
    <path d="M 42.817539 155.3644 
C 43.522973 155.3644 44.19961 155.084127 44.698428 154.58531 
C 45.197245 154.086492 45.477517 153.409856 45.477517 152.704421 
C 45.477517 151.998987 45.197245 151.32235 44.698428 150.823532 
C 44.19961 150.324715 43.522973 150.044443 42.817539 150.044443 
C 42.112104 150.044443 41.435468 150.324715 40.93665 150.823532 
C 40.437832 151.32235 40.15756 151.998987 40.15756 152.704421 
C 40.15756 153.409856 40.437832 154.086492 40.93665 154.58531 
C 41.435468 155.084127 42.112104 155.3644 42.817539 155.3644 
z
" clip-path="url(#pb73f9a3dd7)" style="stroke: #000000"/>
    <path d="M 40.527829 149.344308 
C 41.233263 149.344308 41.9099 149.064036 42.408717 148.565219 
C 42.907535 148.066401 43.187807 147.389764 43.187807 146.68433 
C 43.187807 145.978895 42.907535 145.302259 42.408717 144.803441 
C 41.9099 144.304623 41.233263 144.024351 40.527829 144.024351 
C 39.822394 144.024351 39.145757 144.304623 38.64694 144.803441 
C 38.148122 145.302259 37.86785 145.978895 37.86785 146.68433 
C 37.86785 147.389764 38.148122 148.066401 38.64694 148.565219 
C 39.145757 149.064036 39.822394 149.344308 40.527829 149.344308 
z
" clip-path="url(#pb73f9a3dd7)" style="stroke: #000000"/>
    <path d="M 37.08433 134.459841 
C 37.320132 134.459841 37.546309 134.366156 37.713046 134.199418 
C 37.879784 134.03268 37.973469 133.806504 37.973469 133.570701 
C 37.973469 133.334899 37.879784 133.108722 37.713046 132.941984 
C 37.546309 132.775247 37.320132 132.681562 37.08433 132.681562 
C 36.848527 132.681562 36.622351 132.775247 36.455613 132.941984 
C 36.288875 133.108722 36.19519 133.334899 36.19519 133.570701 
C 36.19519 133.806504 36.288875 134.03268 36.455613 134.199418 
C 36.622351 134.366156 36.848527 134.459841 37.08433 134.459841 
z
" clip-path="url(#pb73f9a3dd7)" style="stroke: #000000"/>
    <path d="M 37.593419 124.671896 
C 38.059015 124.671896 38.505604 124.486913 38.834831 124.157686 
C 39.164057 123.82846 39.34904 123.381871 39.34904 122.916275 
C 39.34904 122.450678 39.164057 122.004089 38.834831 121.674863 
C 38.505604 121.345636 38.059015 121.160653 37.593419 121.160653 
C 37.127822 121.160653 36.681233 121.345636 36.352007 121.674863 
C 36.02278 122.004089 35.837797 122.450678 35.837797 122.916275 
C 35.837797 123.381871 36.02278 123.82846 36.352007 124.157686 
C 36.681233 124.486913 37.127822 124.671896 37.593419 124.671896 
z
" clip-path="url(#pb73f9a3dd7)" style="stroke: #000000"/>
    <path d="M 33.712716 115.404288 
C 34.305728 115.404288 34.874532 115.168681 35.293855 114.749359 
C 35.713178 114.330036 35.948784 113.761232 35.948784 113.16822 
C 35.948784 112.575208 35.713178 112.006404 35.293855 111.587081 
C 34.874532 111.167758 34.305728 110.932152 33.712716 110.932152 
C 33.119704 110.932152 32.5509 111.167758 32.131577 111.587081 
C 31.712254 112.006404 31.476648 112.575208 31.476648 113.16822 
C 31.476648 113.761232 31.712254 114.330036 32.131577 114.749359 
C 32.5509 115.168681 33.119704 115.404288 33.712716 115.404288 
z
" clip-path="url(#pb73f9a3dd7)" style="stroke: #000000"/>
    <path d="M 36.989783 170.349522 
C 37.551057 170.349522 38.089418 170.126526 38.486299 169.729645 
C 38.883179 169.332765 39.106176 168.794403 39.106176 168.23313 
C 39.106176 167.671856 38.883179 167.133494 38.486299 166.736614 
C 38.089418 166.339733 37.551057 166.116737 36.989783 166.116737 
C 36.428509 166.116737 35.890148 166.339733 35.493267 166.736614 
C 35.096387 167.133494 34.87339 167.671856 34.87339 168.23313 
C 34.87339 168.794403 35.096387 169.332765 35.493267 169.729645 
C 35.890148 170.126526 36.428509 170.349522 36.989783 170.349522 
z
" clip-path="url(#pb73f9a3dd7)" style="stroke: #000000"/>
    <path d="M 40.04136 160.512565 
C 40.746794 160.512565 41.423431 160.232293 41.922249 159.733475 
C 42.421066 159.234658 42.701338 158.558021 42.701338 157.852586 
C 42.701338 157.147152 42.421066 156.470515 41.922249 155.971697 
C 41.423431 155.47288 40.746794 155.192608 40.04136 155.192608 
C 39.335925 155.192608 38.659289 155.47288 38.160471 155.971697 
C 37.661653 156.470515 37.381381 157.147152 37.381381 157.852586 
C 37.381381 158.558021 37.661653 159.234658 38.160471 159.733475 
C 38.659289 160.232293 39.335925 160.512565 40.04136 160.512565 
z
" clip-path="url(#pb73f9a3dd7)" style="stroke: #000000"/>
   </g>
   <g id="matplotlib.axis_1">
    <g id="xtick_1">
     <g id="line2d_1">
      <defs>
       <path id="md352cec306" d="M 0 0 
L 0 3.5 
" style="stroke: #000000; stroke-width: 0.8"/>
      </defs>
      <g>
       <use xlink:href="#md352cec306" x="18" y="189" style="stroke: #000000; stroke-width: 0.8"/>
      </g>
     </g>
     <g id="text_1">
      <!-- 10 -->
      <g transform="translate(7.447656 203.598437)scale(0.1 -0.1)">
       <defs>
        <path id="DejaVuSans-2212" d="M 678 2272 
L 4684 2272 
L 4684 1741 
L 678 1741 
L 678 2272 
z
" transform="scale(0.015625)"/>
        <path id="DejaVuSans-31" d="M 794 531 
L 1825 531 
L 1825 4091 
L 703 3866 
L 703 4441 
L 1819 4666 
L 2450 4666 
L 2450 531 
L 3481 531 
L 3481 0 
L 794 0 
L 794 531 
z
" transform="scale(0.015625)"/>
        <path id="DejaVuSans-30" d="M 2034 4250 
Q 1547 4250 1301 3770 
Q 1056 3291 1056 2328 
Q 1056 1369 1301 889 
Q 1547 409 2034 409 
Q 2525 409 2770 889 
Q 3016 1369 3016 2328 
Q 3016 3291 2770 3770 
Q 2525 4250 2034 4250 
z
M 2034 4750 
Q 2819 4750 3233 4129 
Q 3647 3509 3647 2328 
Q 3647 1150 3233 529 
Q 2819 -91 2034 -91 
Q 1250 -91 836 529 
Q 422 1150 422 2328 
Q 422 3509 836 4129 
Q 1250 4750 2034 4750 
z
" transform="scale(0.015625)"/>
       </defs>
       <use xlink:href="#DejaVuSans-2212"/>
       <use xlink:href="#DejaVuSans-31" x="83.789062"/>
       <use xlink:href="#DejaVuSans-30" x="147.412109"/>
      </g>
     </g>
    </g>
    <g id="xtick_2">
     <g id="line2d_2">
      <g>
       <use xlink:href="#md352cec306" x="73.8" y="189" style="stroke: #000000; stroke-width: 0.8"/>
      </g>
     </g>
     <g id="text_2">
      <!-- 0 -->
      <g transform="translate(70.61875 203.598437)scale(0.1 -0.1)">
       <use xlink:href="#DejaVuSans-30"/>
      </g>
     </g>
    </g>
    <g id="xtick_3">
     <g id="line2d_3">
      <g>
       <use xlink:href="#md352cec306" x="129.6" y="189" style="stroke: #000000; stroke-width: 0.8"/>
      </g>
     </g>
     <g id="text_3">
      <!-- 10 -->
      <g transform="translate(123.2375 203.598437)scale(0.1 -0.1)">
       <use xlink:href="#DejaVuSans-31"/>
       <use xlink:href="#DejaVuSans-30" x="63.623047"/>
      </g>
     </g>
    </g>
   </g>
   <g id="matplotlib.axis_2">
    <g id="ytick_1">
     <g id="line2d_4">
      <defs>
       <path id="mf51cf7640f" d="M 0 0 
L -3.5 0 
" style="stroke: #000000; stroke-width: 0.8"/>
      </defs>
      <g>
       <use xlink:href="#mf51cf7640f" x="18" y="189" style="stroke: #000000; stroke-width: 0.8"/>
      </g>
     </g>
     <g id="text_4">
      <!-- 15 -->
      <g transform="translate(-10.104688 192.799219)scale(0.1 -0.1)">
       <defs>
        <path id="DejaVuSans-35" d="M 691 4666 
L 3169 4666 
L 3169 4134 
L 1269 4134 
L 1269 2991 
Q 1406 3038 1543 3061 
Q 1681 3084 1819 3084 
Q 2600 3084 3056 2656 
Q 3513 2228 3513 1497 
Q 3513 744 3044 326 
Q 2575 -91 1722 -91 
Q 1428 -91 1123 -41 
Q 819 9 494 109 
L 494 744 
Q 775 591 1075 516 
Q 1375 441 1709 441 
Q 2250 441 2565 725 
Q 2881 1009 2881 1497 
Q 2881 1984 2565 2268 
Q 2250 2553 1709 2553 
Q 1456 2553 1204 2497 
Q 953 2441 691 2322 
L 691 4666 
z
" transform="scale(0.015625)"/>
       </defs>
       <use xlink:href="#DejaVuSans-2212"/>
       <use xlink:href="#DejaVuSans-31" x="83.789062"/>
       <use xlink:href="#DejaVuSans-35" x="147.412109"/>
      </g>
     </g>
    </g>
    <g id="ytick_2">
     <g id="line2d_5">
      <g>
       <use xlink:href="#mf51cf7640f" x="18" y="161.82" style="stroke: #000000; stroke-width: 0.8"/>
      </g>
     </g>
     <g id="text_5">
      <!-- 10 -->
      <g transform="translate(-10.104688 165.619219)scale(0.1 -0.1)">
       <use xlink:href="#DejaVuSans-2212"/>
       <use xlink:href="#DejaVuSans-31" x="83.789062"/>
       <use xlink:href="#DejaVuSans-30" x="147.412109"/>
      </g>
     </g>
    </g>
    <g id="ytick_3">
     <g id="line2d_6">
      <g>
       <use xlink:href="#mf51cf7640f" x="18" y="134.64" style="stroke: #000000; stroke-width: 0.8"/>
      </g>
     </g>
     <g id="text_6">
      <!-- 5 -->
      <g transform="translate(-3.742188 138.439219)scale(0.1 -0.1)">
       <use xlink:href="#DejaVuSans-2212"/>
       <use xlink:href="#DejaVuSans-35" x="83.789062"/>
      </g>
     </g>
    </g>
    <g id="ytick_4">
     <g id="line2d_7">
      <g>
       <use xlink:href="#mf51cf7640f" x="18" y="107.46" style="stroke: #000000; stroke-width: 0.8"/>
      </g>
     </g>
     <g id="text_7">
      <!-- 0 -->
      <g transform="translate(4.6375 111.259219)scale(0.1 -0.1)">
       <use xlink:href="#DejaVuSans-30"/>
      </g>
     </g>
    </g>
    <g id="ytick_5">
     <g id="line2d_8">
      <g>
       <use xlink:href="#mf51cf7640f" x="18" y="80.28" style="stroke: #000000; stroke-width: 0.8"/>
      </g>
     </g>
     <g id="text_8">
      <!-- 5 -->
      <g transform="translate(4.6375 84.079219)scale(0.1 -0.1)">
       <use xlink:href="#DejaVuSans-35"/>
      </g>
     </g>
    </g>
    <g id="ytick_6">
     <g id="line2d_9">
      <g>
       <use xlink:href="#mf51cf7640f" x="18" y="53.1" style="stroke: #000000; stroke-width: 0.8"/>
      </g>
     </g>
     <g id="text_9">
      <!-- 10 -->
      <g transform="translate(-1.725 56.899219)scale(0.1 -0.1)">
       <use xlink:href="#DejaVuSans-31"/>
       <use xlink:href="#DejaVuSans-30" x="63.623047"/>
      </g>
     </g>
    </g>
    <g id="ytick_7">
     <g id="line2d_10">
      <g>
       <use xlink:href="#mf51cf7640f" x="18" y="25.92" style="stroke: #000000; stroke-width: 0.8"/>
      </g>
     </g>
     <g id="text_10">
      <!-- 15 -->
      <g transform="translate(-1.725 29.719219)scale(0.1 -0.1)">
       <use xlink:href="#DejaVuSans-31"/>
       <use xlink:href="#DejaVuSans-35" x="63.623047"/>
      </g>
     </g>
    </g>
   </g>
   <g id="patch_3">
    <path d="M 18 189 
L 18 25.92 
" style="fill: none; stroke: #000000; stroke-width: 0.8; stroke-linejoin: miter; stroke-linecap: square"/>
   </g>
   <g id="patch_4">
    <path d="M 129.6 189 
L 129.6 25.92 
" style="fill: none; stroke: #000000; stroke-width: 0.8; stroke-linejoin: miter; stroke-linecap: square"/>
   </g>
   <g id="patch_5">
    <path d="M 18 189 
L 129.6 189 
" style="fill: none; stroke: #000000; stroke-width: 0.8; stroke-linejoin: miter; stroke-linecap: square"/>
   </g>
   <g id="patch_6">
    <path d="M 18 25.92 
L 129.6 25.92 
" style="fill: none; stroke: #000000; stroke-width: 0.8; stroke-linejoin: miter; stroke-linecap: square"/>
   </g>
  </g>
 </g>
 <defs>
  <clipPath id="pb73f9a3dd7">
   <rect x="18" y="25.92" width="111.6" height="163.08"/>
  </clipPath>
 </defs>
</svg>
