<?xml version="1.0" encoding="utf-8" standalone="no"?>
<!DOCTYPE svg PUBLIC "-//W3C//DTD SVG 1.1//EN"
  "http://www.w3.org/Graphics/SVG/1.1/DTD/svg11.dtd">
<svg xmlns:xlink="http://www.w3.org/1999/xlink" width="144pt" height="216pt" viewBox="0 0 144 216" xmlns="http://www.w3.org/2000/svg" version="1.1">
 <metadata>
  <rdf:RDF xmlns:dc="http://purl.org/dc/elements/1.1/" xmlns:cc="http://creativecommons.org/ns#" xmlns:rdf="http://www.w3.org/1999/02/22-rdf-syntax-ns#">
   <cc:Work>
    <dc:type rdf:resource="http://purl.org/dc/dcmitype/StillImage"/>
    <dc:date>2022-06-23T14:55:17.957547</dc:date>
    <dc:format>image/svg+xml</dc:format>
    <dc:creator>
     <cc:Agent>
      <dc:title>Matplotlib v3.5.1, https://matplotlib.org/</dc:title>
     </cc:Agent>
    </dc:creator>
   </cc:Work>
  </rdf:RDF>
 </metadata>
 <defs>
  <style type="text/css">*{stroke-linejoin: round; stroke-linecap: butt}</style>
 </defs>
 <g id="figure_1">
  <g id="patch_1">
   <path d="M 0 216 
L 144 216 
L 144 0 
L 0 0 
L 0 216 
z
" style="fill: none"/>
  </g>
  <g id="axes_1">
   <g id="patch_2">
    <path d="M 18 189 
L 129.6 189 
L 129.6 25.92 
L 18 25.92 
z
" style="fill: #ffffff"/>
   </g>
   <g id="PathCollection_1">
    <defs>
     <path id="m44c3c9bff8" d="M 0 2.738613 
C 0.726289 2.738613 1.422928 2.450055 1.936492 1.936492 
C 2.450055 1.422928 2.738613 0.726289 2.738613 0 
C 2.738613 -0.726289 2.450055 -1.422928 1.936492 -1.936492 
C 1.422928 -2.450055 0.726289 -2.738613 0 -2.738613 
C -0.726289 -2.738613 -1.422928 -2.450055 -1.936492 -1.936492 
C -2.450055 -1.422928 -2.738613 -0.726289 -2.738613 0 
C -2.738613 0.726289 -2.450055 1.422928 -1.936492 1.936492 
C -1.422928 2.450055 -0.726289 2.738613 0 2.738613 
z
" style="stroke: #ff0000; stroke-width: 1.75"/>
    </defs>
    <g clip-path="url(#pca56263cb8)">
     <use xlink:href="#m44c3c9bff8" x="80.775" y="83.92143" style="fill: #ff0000; stroke: #ff0000; stroke-width: 1.75"/>
     <use xlink:href="#m44c3c9bff8" x="59.85" y="95.690715" style="fill: #ff0000; stroke: #ff0000; stroke-width: 1.75"/>
     <use xlink:href="#m44c3c9bff8" x="66.825" y="107.46" style="fill: #ff0000; stroke: #ff0000; stroke-width: 1.75"/>
     <use xlink:href="#m44c3c9bff8" x="80.775" y="107.46" style="fill: #ff0000; stroke: #ff0000; stroke-width: 1.75"/>
     <use xlink:href="#m44c3c9bff8" x="94.725" y="107.46" style="fill: #ff0000; stroke: #ff0000; stroke-width: 1.75"/>
     <use xlink:href="#m44c3c9bff8" x="59.85" y="119.229285" style="fill: #ff0000; stroke: #ff0000; stroke-width: 1.75"/>
     <use xlink:href="#m44c3c9bff8" x="80.775" y="130.99857" style="fill: #ff0000; stroke: #ff0000; stroke-width: 1.75"/>
    </g>
   </g>
   <g id="PathCollection_2">
    <defs>
     <path id="C0_0_53f155aa14" d="M 0 2.738613 
C 0.726289 2.738613 1.422928 2.450055 1.936492 1.936492 
C 2.450055 1.422928 2.738613 0.726289 2.738613 -0 
C 2.738613 -0.726289 2.450055 -1.422928 1.936492 -1.936492 
C 1.422928 -2.450055 0.726289 -2.738613 0 -2.738613 
C -0.726289 -2.738613 -1.422928 -2.450055 -1.936492 -1.936492 
C -2.450055 -1.422928 -2.738613 -0.726289 -2.738613 0 
C -2.738613 0.726289 -2.450055 1.422928 -1.936492 1.936492 
C -1.422928 2.450055 -0.726289 2.738613 0 2.738613 
z
"/>
    </defs>
    <g clip-path="url(#pca56263cb8)">
     <use xlink:href="#C0_0_53f155aa14" x="66.825" y="83.92143" style="fill: none; stroke: #ff0000; stroke-width: 1.75"/>
    </g>
    <g clip-path="url(#pca56263cb8)">
     <use xlink:href="#C0_0_53f155aa14" x="73.8" y="95.690715" style="fill: none; stroke: #ff0000; stroke-width: 1.75"/>
    </g>
    <g clip-path="url(#pca56263cb8)">
     <use xlink:href="#C0_0_53f155aa14" x="87.75" y="95.690715" style="fill: none; stroke: #ff0000; stroke-width: 1.75"/>
    </g>
    <g clip-path="url(#pca56263cb8)">
     <use xlink:href="#C0_0_53f155aa14" x="52.875" y="107.46" style="fill: none; stroke: #ff0000; stroke-width: 1.75"/>
    </g>
    <g clip-path="url(#pca56263cb8)">
     <use xlink:href="#C0_0_53f155aa14" x="73.8" y="119.229285" style="fill: none; stroke: #ff0000; stroke-width: 1.75"/>
    </g>
    <g clip-path="url(#pca56263cb8)">
     <use xlink:href="#C0_0_53f155aa14" x="87.75" y="119.229285" style="fill: none; stroke: #ff0000; stroke-width: 1.75"/>
    </g>
    <g clip-path="url(#pca56263cb8)">
     <use xlink:href="#C0_0_53f155aa14" x="66.825" y="130.99857" style="fill: none; stroke: #ff0000; stroke-width: 1.75"/>
    </g>
   </g>
   <g id="PathCollection_3">
    <path d="M 109.342891 65.753769 
C 109.903728 65.753769 110.441669 65.530946 110.83824 65.134375 
C 111.234811 64.737804 111.457634 64.199863 111.457634 63.639026 
C 111.457634 63.07819 111.234811 62.540249 110.83824 62.143678 
C 110.441669 61.747106 109.903728 61.524284 109.342891 61.524284 
C 108.782055 61.524284 108.244114 61.747106 107.847543 62.143678 
C 107.450972 62.540249 107.228149 63.07819 107.228149 63.639026 
C 107.228149 64.199863 107.450972 64.737804 107.847543 65.134375 
C 108.244114 65.530946 108.782055 65.753769 109.342891 65.753769 
z
" clip-path="url(#pca56263cb8)" style="stroke: #000000"/>
    <path d="M 105.895356 58.959087 
C 106.455754 58.959087 106.993275 58.736438 107.389536 58.340177 
C 107.785797 57.943916 108.008445 57.406396 108.008445 56.845998 
C 108.008445 56.285601 107.785797 55.74808 107.389536 55.351819 
C 106.993275 54.955558 106.455754 54.73291 105.895356 54.73291 
C 105.334959 54.73291 104.797438 54.955558 104.401177 55.351819 
C 104.004916 55.74808 103.782268 56.285601 103.782268 56.845998 
C 103.782268 57.406396 104.004916 57.943916 104.401177 58.340177 
C 104.797438 58.736438 105.334959 58.959087 105.895356 58.959087 
z
" clip-path="url(#pca56263cb8)" style="stroke: #000000"/>
    <path d="M 97.752449 48.689102 
C 98.457664 48.689102 99.134089 48.408917 99.632751 47.910255 
C 100.131413 47.411593 100.411597 46.735168 100.411597 46.029954 
C 100.411597 45.324739 100.131413 44.648314 99.632751 44.149652 
C 99.134089 43.65099 98.457664 43.370806 97.752449 43.370806 
C 97.047235 43.370806 96.37081 43.65099 95.872148 44.149652 
C 95.373486 44.648314 95.093302 45.324739 95.093302 46.029954 
C 95.093302 46.735168 95.373486 47.411593 95.872148 47.910255 
C 96.37081 48.408917 97.047235 48.689102 97.752449 48.689102 
z
" clip-path="url(#pca56263cb8)" style="stroke: #000000"/>
    <path d="M 114.729221 123.755572 
C 115.322233 123.755572 115.891037 123.519966 116.31036 123.100643 
C 116.729683 122.68132 116.965289 122.112516 116.965289 121.519504 
C 116.965289 120.926492 116.729683 120.357688 116.31036 119.938365 
C 115.891037 119.519043 115.322233 119.283436 114.729221 119.283436 
C 114.136209 119.283436 113.567405 119.519043 113.148083 119.938365 
C 112.72876 120.357688 112.493153 120.926492 112.493153 121.519504 
C 112.493153 122.112516 112.72876 122.68132 113.148083 123.100643 
C 113.567405 123.519966 114.136209 123.755572 114.729221 123.755572 
z
" clip-path="url(#pca56263cb8)" style="stroke: #000000"/>
    <path d="M 113.921564 116.249398 
C 114.626998 116.249398 115.303635 115.969125 115.802452 115.470308 
C 116.30127 114.97149 116.581542 114.294854 116.581542 113.589419 
C 116.581542 112.883985 116.30127 112.207348 115.802452 111.70853 
C 115.303635 111.209713 114.626998 110.929441 113.921564 110.929441 
C 113.216129 110.929441 112.539492 111.209713 112.040675 111.70853 
C 111.541857 112.207348 111.261585 112.883985 111.261585 113.589419 
C 111.261585 114.294854 111.541857 114.97149 112.040675 115.470308 
C 112.539492 115.969125 113.216129 116.249398 113.921564 116.249398 
z
" clip-path="url(#pca56263cb8)" style="stroke: #000000"/>
    <path d="M 108.042418 100.844462 
C 108.747853 100.844462 109.424489 100.56419 109.923307 100.065373 
C 110.422125 99.566555 110.702397 98.889918 110.702397 98.184484 
C 110.702397 97.479049 110.422125 96.802412 109.923307 96.303595 
C 109.424489 95.804777 108.747853 95.524505 108.042418 95.524505 
C 107.336984 95.524505 106.660347 95.804777 106.161529 96.303595 
C 105.662712 96.802412 105.38244 97.479049 105.38244 98.184484 
C 105.38244 98.889918 105.662712 99.566555 106.161529 100.065373 
C 106.660347 100.56419 107.336984 100.844462 108.042418 100.844462 
z
" clip-path="url(#pca56263cb8)" style="stroke: #000000"/>
    <path d="M 101.898174 66.827003 
C 102.603609 66.827003 103.280246 66.546731 103.779063 66.047914 
C 104.277881 65.549096 104.558153 64.872459 104.558153 64.167025 
C 104.558153 63.46159 104.277881 62.784954 103.779063 62.286136 
C 103.280246 61.787318 102.603609 61.507046 101.898174 61.507046 
C 101.19274 61.507046 100.516103 61.787318 100.017285 62.286136 
C 99.518468 62.784954 99.238196 63.46159 99.238196 64.167025 
C 99.238196 64.872459 99.518468 65.549096 100.017285 66.047914 
C 100.516103 66.546731 101.19274 66.827003 101.898174 66.827003 
z
" clip-path="url(#pca56263cb8)" style="stroke: #000000"/>
    <path d="M 94.403569 63.57815 
C 94.964843 63.57815 95.503204 63.355153 95.900084 62.958273 
C 96.296965 62.561392 96.519961 62.023031 96.519961 61.461757 
C 96.519961 60.900483 96.296965 60.362122 95.900084 59.965241 
C 95.503204 59.568361 94.964843 59.345364 94.403569 59.345364 
C 93.842295 59.345364 93.303934 59.568361 92.907053 59.965241 
C 92.510172 60.362122 92.287176 60.900483 92.287176 61.461757 
C 92.287176 62.023031 92.510172 62.561392 92.907053 62.958273 
C 93.303934 63.355153 93.842295 63.57815 94.403569 63.57815 
z
" clip-path="url(#pca56263cb8)" style="stroke: #000000"/>
    <path d="M 86.798433 49.480649 
C 87.503868 49.480649 88.180504 49.200377 88.679322 48.701559 
C 89.178139 48.202741 89.458412 47.526105 89.458412 46.82067 
C 89.458412 46.115236 89.178139 45.438599 88.679322 44.939781 
C 88.180504 44.440964 87.503868 44.160692 86.798433 44.160692 
C 86.092999 44.160692 85.416362 44.440964 84.917544 44.939781 
C 84.418727 45.438599 84.138455 46.115236 84.138455 46.82067 
C 84.138455 47.526105 84.418727 48.202741 84.917544 48.701559 
C 85.416362 49.200377 86.092999 49.480649 86.798433 49.480649 
z
" clip-path="url(#pca56263cb8)" style="stroke: #000000"/>
    <path d="M 82.548806 30.3676 
C 83.25424 30.3676 83.930877 30.087328 84.429695 29.58851 
C 84.928512 29.089693 85.208784 28.413056 85.208784 27.707622 
C 85.208784 27.002187 84.928512 26.32555 84.429695 25.826733 
C 83.930877 25.327915 83.25424 25.047643 82.548806 25.047643 
C 81.843371 25.047643 81.166734 25.327915 80.667917 25.826733 
C 80.169099 26.32555 79.888827 27.002187 79.888827 27.707622 
C 79.888827 28.413056 80.169099 29.089693 80.667917 29.58851 
C 81.166734 30.087328 81.843371 30.3676 82.548806 30.3676 
z
" clip-path="url(#pca56263cb8)" style="stroke: #000000"/>
    <path d="M 121.668565 166.387147 
C 122.373999 166.387147 123.050636 166.106874 123.549454 165.608057 
C 124.048271 165.109239 124.328543 164.432603 124.328543 163.727168 
C 124.328543 163.021733 124.048271 162.345097 123.549454 161.846279 
C 123.050636 161.347462 122.373999 161.067189 121.668565 161.067189 
C 120.96313 161.067189 120.286493 161.347462 119.787676 161.846279 
C 119.288858 162.345097 119.008586 163.021733 119.008586 163.727168 
C 119.008586 164.432603 119.288858 165.109239 119.787676 165.608057 
C 120.286493 166.106874 120.96313 166.387147 121.668565 166.387147 
z
" clip-path="url(#pca56263cb8)" style="stroke: #000000"/>
    <path d="M 113.027495 144.149389 
C 113.732929 144.149389 114.409566 143.869117 114.908384 143.370299 
C 115.407201 142.871482 115.687473 142.194845 115.687473 141.48941 
C 115.687473 140.783976 115.407201 140.107339 114.908384 139.608522 
C 114.409566 139.109704 113.732929 138.829432 113.027495 138.829432 
C 112.32206 138.829432 111.645424 139.109704 111.146606 139.608522 
C 110.647788 140.107339 110.367516 140.783976 110.367516 141.48941 
C 110.367516 142.194845 110.647788 142.871482 111.146606 143.370299 
C 111.645424 143.869117 112.32206 144.149389 113.027495 144.149389 
z
" clip-path="url(#pca56263cb8)" style="stroke: #000000"/>
    <path d="M 112.479408 139.116989 
C 113.184842 139.116989 113.861479 138.836717 114.360297 138.337899 
C 114.859114 137.839082 115.139386 137.162445 115.139386 136.45701 
C 115.139386 135.751576 114.859114 135.074939 114.360297 134.576122 
C 113.861479 134.077304 113.184842 133.797032 112.479408 133.797032 
C 111.773973 133.797032 111.097336 134.077304 110.598519 134.576122 
C 110.099701 135.074939 109.819429 135.751576 109.819429 136.45701 
C 109.819429 137.162445 110.099701 137.839082 110.598519 138.337899 
C 111.097336 138.836717 111.773973 139.116989 112.479408 139.116989 
z
" clip-path="url(#pca56263cb8)" style="stroke: #000000"/>
    <path d="M 103.51358 125.070204 
C 104.219014 125.070204 104.895651 124.789932 105.394469 124.291114 
C 105.893286 123.792297 106.173558 123.11566 106.173558 122.410225 
C 106.173558 121.704791 105.893286 121.028154 105.394469 120.529336 
C 104.895651 120.030519 104.219014 119.750247 103.51358 119.750247 
C 102.808145 119.750247 102.131508 120.030519 101.632691 120.529336 
C 101.133873 121.028154 100.853601 121.704791 100.853601 122.410225 
C 100.853601 123.11566 101.133873 123.792297 101.632691 124.291114 
C 102.131508 124.789932 102.808145 125.070204 103.51358 125.070204 
z
" clip-path="url(#pca56263cb8)" style="stroke: #000000"/>
    <path d="M 104.63812 113.230526 
C 105.231503 113.230526 105.800662 112.994773 106.220246 112.575188 
C 106.639831 112.155603 106.875584 111.586444 106.875584 110.993062 
C 106.875584 110.399679 106.639831 109.83052 106.220246 109.410936 
C 105.800662 108.991351 105.231503 108.755598 104.63812 108.755598 
C 104.044738 108.755598 103.475579 108.991351 103.055994 109.410936 
C 102.636409 109.83052 102.400656 110.399679 102.400656 110.993062 
C 102.400656 111.586444 102.636409 112.155603 103.055994 112.575188 
C 103.475579 112.994773 104.044738 113.230526 104.63812 113.230526 
z
" clip-path="url(#pca56263cb8)" style="stroke: #000000"/>
    <path d="M 99.943213 102.935234 
C 100.648427 102.935234 101.324853 102.655049 101.823514 102.156387 
C 102.322176 101.657726 102.602361 100.9813 102.602361 100.276086 
C 102.602361 99.570872 102.322176 98.894446 101.823514 98.395784 
C 101.324853 97.897122 100.648427 97.616938 99.943213 97.616938 
C 99.237999 97.616938 98.561573 97.897122 98.062911 98.395784 
C 97.56425 98.894446 97.284065 99.570872 97.284065 100.276086 
C 97.284065 100.9813 97.56425 101.657726 98.062911 102.156387 
C 98.561573 102.655049 99.237999 102.935234 99.943213 102.935234 
z
" clip-path="url(#pca56263cb8)" style="stroke: #000000"/>
    <path d="M 97.558267 89.914232 
C 98.093275 89.914232 98.606442 89.701671 98.98475 89.323364 
C 99.363057 88.945056 99.575618 88.431889 99.575618 87.896881 
C 99.575618 87.361874 99.363057 86.848706 98.98475 86.470399 
C 98.606442 86.092091 98.093275 85.87953 97.558267 85.87953 
C 97.023259 85.87953 96.510092 86.092091 96.131785 86.470399 
C 95.753477 86.848706 95.540916 87.361874 95.540916 87.896881 
C 95.540916 88.431889 95.753477 88.945056 96.131785 89.323364 
C 96.510092 89.701671 97.023259 89.914232 97.558267 89.914232 
z
" clip-path="url(#pca56263cb8)" style="stroke: #000000"/>
    <path d="M 92.691362 86.238848 
C 93.311057 86.238848 93.905455 85.992641 94.343646 85.55445 
C 94.781836 85.116259 95.028044 84.521862 95.028044 83.902166 
C 95.028044 83.282471 94.781836 82.688074 94.343646 82.249883 
C 93.905455 81.811692 93.311057 81.565484 92.691362 81.565484 
C 92.071667 81.565484 91.477269 81.811692 91.039078 82.249883 
C 90.600888 82.688074 90.35468 83.282471 90.35468 83.902166 
C 90.35468 84.521862 90.600888 85.116259 91.039078 85.55445 
C 91.477269 85.992641 92.071667 86.238848 92.691362 86.238848 
z
" clip-path="url(#pca56263cb8)" style="stroke: #000000"/>
    <path d="M 94.559117 76.685192 
C 94.73363 76.685192 94.901019 76.615857 95.024419 76.492457 
C 95.147819 76.369058 95.217154 76.201668 95.217154 76.027155 
C 95.217154 75.852641 95.147819 75.685252 95.024419 75.561852 
C 94.901019 75.438453 94.73363 75.369118 94.559117 75.369118 
C 94.384603 75.369118 94.217214 75.438453 94.093814 75.561852 
C 93.970415 75.685252 93.90108 75.852641 93.90108 76.027155 
C 93.90108 76.201668 93.970415 76.369058 94.093814 76.492457 
C 94.217214 76.615857 94.384603 76.685192 94.559117 76.685192 
z
" clip-path="url(#pca56263cb8)" style="stroke: #000000"/>
    <path d="M 81.585727 40.421089 
C 82.145685 40.421089 82.682784 40.198615 83.078734 39.802665 
C 83.474684 39.406715 83.697157 38.869616 83.697157 38.309658 
C 83.697157 37.7497 83.474684 37.212602 83.078734 36.816652 
C 82.682784 36.420701 82.145685 36.198228 81.585727 36.198228 
C 81.025769 36.198228 80.48867 36.420701 80.09272 36.816652 
C 79.69677 37.212602 79.474296 37.7497 79.474296 38.309658 
C 79.474296 38.869616 79.69677 39.406715 80.09272 39.802665 
C 80.48867 40.198615 81.025769 40.421089 81.585727 40.421089 
z
" clip-path="url(#pca56263cb8)" style="stroke: #000000"/>
    <path d="M 75.546681 35.844351 
C 76.252115 35.844351 76.928752 35.564079 77.427569 35.065261 
C 77.926387 34.566444 78.206659 33.889807 78.206659 33.184373 
C 78.206659 32.478938 77.926387 31.802301 77.427569 31.303484 
C 76.928752 30.804666 76.252115 30.524394 75.546681 30.524394 
C 74.841246 30.524394 74.164609 30.804666 73.665792 31.303484 
C 73.166974 31.802301 72.886702 32.478938 72.886702 33.184373 
C 72.886702 33.889807 73.166974 34.566444 73.665792 35.065261 
C 74.164609 35.564079 74.841246 35.844351 75.546681 35.844351 
z
" clip-path="url(#pca56263cb8)" style="stroke: #000000"/>
    <path d="M 109.224553 170.329047 
C 109.782296 170.329047 110.317272 170.107453 110.711656 169.713068 
C 111.10604 169.318684 111.327634 168.783709 111.327634 168.225965 
C 111.327634 167.668221 111.10604 167.133246 110.711656 166.738862 
C 110.317272 166.344478 109.782296 166.122884 109.224553 166.122884 
C 108.666809 166.122884 108.131834 166.344478 107.73745 166.738862 
C 107.343065 167.133246 107.121471 167.668221 107.121471 168.225965 
C 107.121471 168.783709 107.343065 169.318684 107.73745 169.713068 
C 108.131834 170.107453 108.666809 170.329047 109.224553 170.329047 
z
" clip-path="url(#pca56263cb8)" style="stroke: #000000"/>
    <path d="M 106.978548 156.833318 
C 107.683983 156.833318 108.36062 156.553046 108.859437 156.054228 
C 109.358255 155.555411 109.638527 154.878774 109.638527 154.173339 
C 109.638527 153.467905 109.358255 152.791268 108.859437 152.292451 
C 108.36062 151.793633 107.683983 151.513361 106.978548 151.513361 
C 106.273114 151.513361 105.596477 151.793633 105.097659 152.292451 
C 104.598842 152.791268 104.31857 153.467905 104.31857 154.173339 
C 104.31857 154.878774 104.598842 155.555411 105.097659 156.054228 
C 105.596477 156.553046 106.273114 156.833318 106.978548 156.833318 
z
" clip-path="url(#pca56263cb8)" style="stroke: #000000"/>
    <path d="M 105.476283 146.775848 
C 106.049005 146.775848 106.598346 146.548303 107.003321 146.143328 
C 107.408296 145.738353 107.635841 145.189012 107.635841 144.61629 
C 107.635841 144.043569 107.408296 143.494228 107.003321 143.089252 
C 106.598346 142.684277 106.049005 142.456733 105.476283 142.456733 
C 104.903562 142.456733 104.354221 142.684277 103.949245 143.089252 
C 103.54427 143.494228 103.316726 144.043569 103.316726 144.61629 
C 103.316726 145.189012 103.54427 145.738353 103.949245 146.143328 
C 104.354221 146.548303 104.903562 146.775848 105.476283 146.775848 
z
" clip-path="url(#pca56263cb8)" style="stroke: #000000"/>
    <path d="M 100.839045 140.835954 
C 101.432058 140.835954 102.000861 140.600347 102.420184 140.181025 
C 102.839507 139.761702 103.075113 139.192898 103.075113 138.599886 
C 103.075113 138.006874 102.839507 137.43807 102.420184 137.018747 
C 102.000861 136.599424 101.432058 136.363818 100.839045 136.363818 
C 100.246033 136.363818 99.677229 136.599424 99.257907 137.018747 
C 98.838584 137.43807 98.602977 138.006874 98.602977 138.599886 
C 98.602977 139.192898 98.838584 139.761702 99.257907 140.181025 
C 99.677229 140.600347 100.246033 140.835954 100.839045 140.835954 
z
" clip-path="url(#pca56263cb8)" style="stroke: #000000"/>
    <path d="M 97.586046 127.82279 
C 98.115933 127.82279 98.624189 127.612264 98.998876 127.237577 
C 99.373563 126.86289 99.58409 126.354634 99.58409 125.824746 
C 99.58409 125.294859 99.373563 124.786603 98.998876 124.411916 
C 98.624189 124.037229 98.115933 123.826702 97.586046 123.826702 
C 97.056158 123.826702 96.547902 124.037229 96.173215 124.411916 
C 95.798528 124.786603 95.588002 125.294859 95.588002 125.824746 
C 95.588002 126.354634 95.798528 126.86289 96.173215 127.237577 
C 96.547902 127.612264 97.056158 127.82279 97.586046 127.82279 
z
" clip-path="url(#pca56263cb8)" style="stroke: #000000"/>
    <path d="M 92.596639 123.166499 
C 93.392861 123.166499 94.15658 122.850157 94.719594 122.287142 
C 95.282608 121.724128 95.598951 120.96041 95.598951 120.164187 
C 95.598951 119.367965 95.282608 118.604246 94.719594 118.041232 
C 94.15658 117.478218 93.392861 117.161875 92.596639 117.161875 
C 91.800416 117.161875 91.036698 117.478218 90.473683 118.041232 
C 89.910669 118.604246 89.594326 119.367965 89.594326 120.164187 
C 89.594326 120.96041 89.910669 121.724128 90.473683 122.287142 
C 91.036698 122.850157 91.800416 123.166499 92.596639 123.166499 
z
" clip-path="url(#pca56263cb8)" style="stroke: #000000"/>
    <path d="M 87.601451 106.478568 
C 88.163597 106.478568 88.702795 106.255225 89.100292 105.857727 
C 89.497789 105.46023 89.721132 104.921032 89.721132 104.358886 
C 89.721132 103.79674 89.497789 103.257542 89.100292 102.860045 
C 88.702795 102.462548 88.163597 102.239205 87.601451 102.239205 
C 87.039305 102.239205 86.500107 102.462548 86.10261 102.860045 
C 85.705112 103.257542 85.481769 103.79674 85.481769 104.358886 
C 85.481769 104.921032 85.705112 105.46023 86.10261 105.857727 
C 86.500107 106.255225 87.039305 106.478568 87.601451 106.478568 
z
" clip-path="url(#pca56263cb8)" style="stroke: #000000"/>
    <path d="M 88.774319 99.74501 
C 89.612965 99.74501 90.417375 99.411812 91.010387 98.8188 
C 91.603399 98.225788 91.936597 97.421378 91.936597 96.582732 
C 91.936597 95.744086 91.603399 94.939676 91.010387 94.346664 
C 90.417375 93.753652 89.612965 93.420454 88.774319 93.420454 
C 87.935673 93.420454 87.131263 93.753652 86.538251 94.346664 
C 85.945239 94.939676 85.612041 95.744086 85.612041 96.582732 
C 85.612041 97.421378 85.945239 98.225788 86.538251 98.8188 
C 87.131263 99.411812 87.935673 99.74501 88.774319 99.74501 
z
" clip-path="url(#pca56263cb8)" style="stroke: #000000"/>
    <path d="M 84.406385 90.529268 
C 85.11182 90.529268 85.788457 90.248996 86.287274 89.750178 
C 86.786092 89.251361 87.066364 88.574724 87.066364 87.869289 
C 87.066364 87.163855 86.786092 86.487218 86.287274 85.988401 
C 85.788457 85.489583 85.11182 85.209311 84.406385 85.209311 
C 83.700951 85.209311 83.024314 85.489583 82.525497 85.988401 
C 82.026679 86.487218 81.746407 87.163855 81.746407 87.869289 
C 81.746407 88.574724 82.026679 89.251361 82.525497 89.750178 
C 83.024314 90.248996 83.700951 90.529268 84.406385 90.529268 
z
" clip-path="url(#pca56263cb8)" style="stroke: #000000"/>
    <path d="M 78.667654 79.371573 
C 79.373089 79.371573 80.049726 79.091301 80.548543 78.592483 
C 81.047361 78.093665 81.327633 77.417029 81.327633 76.711594 
C 81.327633 76.00616 81.047361 75.329523 80.548543 74.830705 
C 80.049726 74.331888 79.373089 74.051616 78.667654 74.051616 
C 77.96222 74.051616 77.285583 74.331888 76.786765 74.830705 
C 76.287948 75.329523 76.007676 76.00616 76.007676 76.711594 
C 76.007676 77.417029 76.287948 78.093665 76.786765 78.592483 
C 77.285583 79.091301 77.96222 79.371573 78.667654 79.371573 
z
" clip-path="url(#pca56263cb8)" style="stroke: #000000"/>
    <path d="M 76.762915 71.103806 
C 77.46835 71.103806 78.144986 70.823534 78.643804 70.324716 
C 79.142622 69.825898 79.422894 69.149262 79.422894 68.443827 
C 79.422894 67.738393 79.142622 67.061756 78.643804 66.562938 
C 78.144986 66.064121 77.46835 65.783849 76.762915 65.783849 
C 76.057481 65.783849 75.380844 66.064121 74.882026 66.562938 
C 74.383209 67.061756 74.102937 67.738393 74.102937 68.443827 
C 74.102937 69.149262 74.383209 69.825898 74.882026 70.324716 
C 75.380844 70.823534 76.057481 71.103806 76.762915 71.103806 
z
" clip-path="url(#pca56263cb8)" style="stroke: #000000"/>
    <path d="M 70.916434 56.255901 
C 71.621648 56.255901 72.298074 55.975717 72.796736 55.477055 
C 73.295397 54.978393 73.575582 54.301968 73.575582 53.596753 
C 73.575582 52.891539 73.295397 52.215114 72.796736 51.716452 
C 72.298074 51.21779 71.621648 50.937605 70.916434 50.937605 
C 70.21122 50.937605 69.534794 51.21779 69.036133 51.716452 
C 68.537471 52.215114 68.257286 52.891539 68.257286 53.596753 
C 68.257286 54.301968 68.537471 54.978393 69.036133 55.477055 
C 69.534794 55.975717 70.21122 56.255901 70.916434 56.255901 
z
" clip-path="url(#pca56263cb8)" style="stroke: #000000"/>
    <path d="M 68.075415 47.04837 
C 68.78063 47.04837 69.457055 46.768186 69.955717 46.269524 
C 70.454379 45.770862 70.734563 45.094437 70.734563 44.389222 
C 70.734563 43.684008 70.454379 43.007583 69.955717 42.508921 
C 69.457055 42.010259 68.78063 41.730074 68.075415 41.730074 
C 67.370201 41.730074 66.693776 42.010259 66.195114 42.508921 
C 65.696452 43.007583 65.416267 43.684008 65.416267 44.389222 
C 65.416267 45.094437 65.696452 45.770862 66.195114 46.269524 
C 66.693776 46.768186 67.370201 47.04837 68.075415 47.04837 
z
" clip-path="url(#pca56263cb8)" style="stroke: #000000"/>
    <path d="M 60.748139 29.418373 
C 61.453353 29.418373 62.129779 29.138189 62.628441 28.639527 
C 63.127103 28.140865 63.407287 27.46444 63.407287 26.759225 
C 63.407287 26.054011 63.127103 25.377586 62.628441 24.878924 
C 62.129779 24.380262 61.453353 24.100077 60.748139 24.100077 
C 60.042925 24.100077 59.366499 24.380262 58.867838 24.878924 
C 58.369176 25.377586 58.088991 26.054011 58.088991 26.759225 
C 58.088991 27.46444 58.369176 28.140865 58.867838 28.639527 
C 59.366499 29.138189 60.042925 29.418373 60.748139 29.418373 
z
" clip-path="url(#pca56263cb8)" style="stroke: #000000"/>
    <path d="M 96.76794 177.523167 
C 97.313722 177.523167 97.837223 177.306325 98.223149 176.920399 
C 98.609075 176.534473 98.825917 176.010972 98.825917 175.46519 
C 98.825917 174.919408 98.609075 174.395907 98.223149 174.009981 
C 97.837223 173.624054 97.313722 173.407213 96.76794 173.407213 
C 96.222158 173.407213 95.698657 173.624054 95.31273 174.009981 
C 94.926804 174.395907 94.709963 174.919408 94.709963 175.46519 
C 94.709963 176.010972 94.926804 176.534473 95.31273 176.920399 
C 95.698657 177.306325 96.222158 177.523167 96.76794 177.523167 
z
" clip-path="url(#pca56263cb8)" style="stroke: #000000"/>
    <path d="M 95.180291 148.15446 
C 95.885505 148.15446 96.561931 147.874276 97.060592 147.375614 
C 97.559254 146.876952 97.839439 146.200527 97.839439 145.495312 
C 97.839439 144.790098 97.559254 144.113672 97.060592 143.615011 
C 96.561931 143.116349 95.885505 142.836164 95.180291 142.836164 
C 94.475077 142.836164 93.798651 143.116349 93.299989 143.615011 
C 92.801328 144.113672 92.521143 144.790098 92.521143 145.495312 
C 92.521143 146.200527 92.801328 146.876952 93.299989 147.375614 
C 93.798651 147.874276 94.475077 148.15446 95.180291 148.15446 
z
" clip-path="url(#pca56263cb8)" style="stroke: #000000"/>
    <path d="M 89.978833 139.893011 
C 90.575517 139.893011 91.147843 139.655946 91.569762 139.234026 
C 91.991682 138.812107 92.228747 138.239781 92.228747 137.643097 
C 92.228747 137.046412 91.991682 136.474086 91.569762 136.052167 
C 91.147843 135.630248 90.575517 135.393182 89.978833 135.393182 
C 89.382149 135.393182 88.809823 135.630248 88.387903 136.052167 
C 87.965984 136.474086 87.728919 137.046412 87.728919 137.643097 
C 87.728919 138.239781 87.965984 138.812107 88.387903 139.234026 
C 88.809823 139.655946 89.382149 139.893011 89.978833 139.893011 
z
" clip-path="url(#pca56263cb8)" style="stroke: #000000"/>
    <path d="M 84.96955 136.308088 
C 85.808327 136.308088 86.612862 135.974839 87.205967 135.381734 
C 87.799072 134.788629 88.132322 133.984093 88.132322 133.145316 
C 88.132322 132.30654 87.799072 131.502004 87.205967 130.908899 
C 86.612862 130.315794 85.808327 129.982545 84.96955 129.982545 
C 84.130773 129.982545 83.326237 130.315794 82.733133 130.908899 
C 82.140028 131.502004 81.806778 132.30654 81.806778 133.145316 
C 81.806778 133.984093 82.140028 134.788629 82.733133 135.381734 
C 83.326237 135.974839 84.130773 136.308088 84.96955 136.308088 
z
" clip-path="url(#pca56263cb8)" style="stroke: #000000"/>
    <path d="M 85.389496 120.131526 
C 86.228142 120.131526 87.032552 119.798329 87.625564 119.205316 
C 88.218576 118.612304 88.551774 117.807894 88.551774 116.969248 
C 88.551774 116.130603 88.218576 115.326193 87.625564 114.733181 
C 87.032552 114.140168 86.228142 113.806971 85.389496 113.806971 
C 84.55085 113.806971 83.74644 114.140168 83.153428 114.733181 
C 82.560416 115.326193 82.227218 116.130603 82.227218 116.969248 
C 82.227218 117.807894 82.560416 118.612304 83.153428 119.205316 
C 83.74644 119.798329 84.55085 120.131526 85.389496 120.131526 
z
" clip-path="url(#pca56263cb8)" style="stroke: #000000"/>
    <path d="M 77.772233 106.394501 
C 78.477447 106.394501 79.153872 106.114316 79.652534 105.615655 
C 80.151196 105.116993 80.431381 104.440567 80.431381 103.735353 
C 80.431381 103.030139 80.151196 102.353713 79.652534 101.855051 
C 79.153872 101.35639 78.477447 101.076205 77.772233 101.076205 
C 77.067018 101.076205 76.390593 101.35639 75.891931 101.855051 
C 75.393269 102.353713 75.113085 103.030139 75.113085 103.735353 
C 75.113085 104.440567 75.393269 105.116993 75.891931 105.615655 
C 76.390593 106.114316 77.067018 106.394501 77.772233 106.394501 
z
" clip-path="url(#pca56263cb8)" style="stroke: #000000"/>
    <path d="M 74.739492 100.98541 
C 75.444927 100.98541 76.121563 100.705138 76.620381 100.20632 
C 77.119199 99.707503 77.399471 99.030866 77.399471 98.325431 
C 77.399471 97.619997 77.119199 96.94336 76.620381 96.444542 
C 76.121563 95.945725 75.444927 95.665453 74.739492 95.665453 
C 74.034058 95.665453 73.357421 95.945725 72.858603 96.444542 
C 72.359786 96.94336 72.079514 97.619997 72.079514 98.325431 
C 72.079514 99.030866 72.359786 99.707503 72.858603 100.20632 
C 73.357421 100.705138 74.034058 100.98541 74.739492 100.98541 
z
" clip-path="url(#pca56263cb8)" style="stroke: #000000"/>
    <path d="M 66.839557 91.8927 
C 67.412689 91.8927 67.962425 91.664992 68.367691 91.259726 
C 68.772956 90.85446 69.000664 90.304724 69.000664 89.731592 
C 69.000664 89.15846 68.772956 88.608724 68.367691 88.203458 
C 67.962425 87.798193 67.412689 87.570485 66.839557 87.570485 
C 66.266424 87.570485 65.716689 87.798193 65.311423 88.203458 
C 64.906157 88.608724 64.678449 89.15846 64.678449 89.731592 
C 64.678449 90.304724 64.906157 90.85446 65.311423 91.259726 
C 65.716689 91.664992 66.266424 91.8927 66.839557 91.8927 
z
" clip-path="url(#pca56263cb8)" style="stroke: #000000"/>
    <path d="M 62.771273 85.60875 
C 63.476708 85.60875 64.153345 85.328478 64.652162 84.829661 
C 65.15098 84.330843 65.431252 83.654206 65.431252 82.948772 
C 65.431252 82.243337 65.15098 81.566701 64.652162 81.067883 
C 64.153345 80.569065 63.476708 80.288793 62.771273 80.288793 
C 62.065839 80.288793 61.389202 80.569065 60.890384 81.067883 
C 60.391567 81.566701 60.111295 82.243337 60.111295 82.948772 
C 60.111295 83.654206 60.391567 84.330843 60.890384 84.829661 
C 61.389202 85.328478 62.065839 85.60875 62.771273 85.60875 
z
" clip-path="url(#pca56263cb8)" style="stroke: #000000"/>
    <path d="M 57.223293 60.229286 
C 57.928727 60.229286 58.605364 59.949014 59.104182 59.450196 
C 59.602999 58.951378 59.883271 58.274742 59.883271 57.569307 
C 59.883271 56.863873 59.602999 56.187236 59.104182 55.688418 
C 58.605364 55.189601 57.928727 54.909329 57.223293 54.909329 
C 56.517858 54.909329 55.841222 55.189601 55.342404 55.688418 
C 54.843586 56.187236 54.563314 56.863873 54.563314 57.569307 
C 54.563314 58.274742 54.843586 58.951378 55.342404 59.450196 
C 55.841222 59.949014 56.517858 60.229286 57.223293 60.229286 
z
" clip-path="url(#pca56263cb8)" style="stroke: #000000"/>
    <path d="M 53.626637 42.216951 
C 54.332072 42.216951 55.008708 41.936679 55.507526 41.437861 
C 56.006343 40.939044 56.286616 40.262407 56.286616 39.556972 
C 56.286616 38.851538 56.006343 38.174901 55.507526 37.676083 
C 55.008708 37.177266 54.332072 36.896994 53.626637 36.896994 
C 52.921202 36.896994 52.244566 37.177266 51.745748 37.676083 
C 51.246931 38.174901 50.966658 38.851538 50.966658 39.556972 
C 50.966658 40.262407 51.246931 40.939044 51.745748 41.437861 
C 52.244566 41.936679 52.921202 42.216951 53.626637 42.216951 
z
" clip-path="url(#pca56263cb8)" style="stroke: #000000"/>
    <path d="M 90.401776 178.400286 
C 91.106991 178.400286 91.783416 178.120102 92.282078 177.62144 
C 92.78074 177.122778 93.060924 176.446353 93.060924 175.741138 
C 93.060924 175.035924 92.78074 174.359499 92.282078 173.860837 
C 91.783416 173.362175 91.106991 173.08199 90.401776 173.08199 
C 89.696562 173.08199 89.020137 173.362175 88.521475 173.860837 
C 88.022813 174.359499 87.742628 175.035924 87.742628 175.741138 
C 87.742628 176.446353 88.022813 177.122778 88.521475 177.62144 
C 89.020137 178.120102 89.696562 178.400286 90.401776 178.400286 
z
" clip-path="url(#pca56263cb8)" style="stroke: #000000"/>
    <path d="M 83.661661 170.650883 
C 84.366875 170.650883 85.043301 170.370698 85.541962 169.872036 
C 86.040624 169.373375 86.320809 168.696949 86.320809 167.991735 
C 86.320809 167.286521 86.040624 166.610095 85.541962 166.111433 
C 85.043301 165.612771 84.366875 165.332587 83.661661 165.332587 
C 82.956447 165.332587 82.280021 165.612771 81.781359 166.111433 
C 81.282698 166.610095 81.002513 167.286521 81.002513 167.991735 
C 81.002513 168.696949 81.282698 169.373375 81.781359 169.872036 
C 82.280021 170.370698 82.956447 170.650883 83.661661 170.650883 
z
" clip-path="url(#pca56263cb8)" style="stroke: #000000"/>
    <path d="M 79.882519 144.778923 
C 80.587734 144.778923 81.264159 144.498738 81.762821 144.000077 
C 82.261483 143.501415 82.541667 142.824989 82.541667 142.119775 
C 82.541667 141.414561 82.261483 140.738135 81.762821 140.239474 
C 81.264159 139.740812 80.587734 139.460627 79.882519 139.460627 
C 79.177305 139.460627 78.50088 139.740812 78.002218 140.239474 
C 77.503556 140.738135 77.223371 141.414561 77.223371 142.119775 
C 77.223371 142.824989 77.503556 143.501415 78.002218 144.000077 
C 78.50088 144.498738 79.177305 144.778923 79.882519 144.778923 
z
" clip-path="url(#pca56263cb8)" style="stroke: #000000"/>
    <path d="M 76.595005 136.425036 
C 77.185781 136.425036 77.75244 136.190318 78.170181 135.772577 
C 78.587923 135.354835 78.822641 134.788176 78.822641 134.197401 
C 78.822641 133.606625 78.587923 133.039966 78.170181 132.622225 
C 77.75244 132.204483 77.185781 131.969766 76.595005 131.969766 
C 76.00423 131.969766 75.437571 132.204483 75.019829 132.622225 
C 74.602088 133.039966 74.36737 133.606625 74.36737 134.197401 
C 74.36737 134.788176 74.602088 135.354835 75.019829 135.772577 
C 75.437571 136.190318 76.00423 136.425036 76.595005 136.425036 
z
" clip-path="url(#pca56263cb8)" style="stroke: #000000"/>
    <path d="M 72.181078 121.205334 
C 72.886512 121.205334 73.563149 120.925062 74.061967 120.426244 
C 74.560784 119.927427 74.841056 119.25079 74.841056 118.545356 
C 74.841056 117.839921 74.560784 117.163284 74.061967 116.664467 
C 73.563149 116.165649 72.886512 115.885377 72.181078 115.885377 
C 71.475643 115.885377 70.799006 116.165649 70.300189 116.664467 
C 69.801371 117.163284 69.521099 117.839921 69.521099 118.545356 
C 69.521099 119.25079 69.801371 119.927427 70.300189 120.426244 
C 70.799006 120.925062 71.475643 121.205334 72.181078 121.205334 
z
" clip-path="url(#pca56263cb8)" style="stroke: #000000"/>
    <path d="M 70.839412 115.140832 
C 71.544626 115.140832 72.221051 114.860648 72.719713 114.361986 
C 73.218375 113.863324 73.49856 113.186899 73.49856 112.481684 
C 73.49856 111.77647 73.218375 111.100045 72.719713 110.601383 
C 72.221051 110.102721 71.544626 109.822536 70.839412 109.822536 
C 70.134197 109.822536 69.457772 110.102721 68.95911 110.601383 
C 68.460448 111.100045 68.180264 111.77647 68.180264 112.481684 
C 68.180264 113.186899 68.460448 113.863324 68.95911 114.361986 
C 69.457772 114.860648 70.134197 115.140832 70.839412 115.140832 
z
" clip-path="url(#pca56263cb8)" style="stroke: #000000"/>
    <path d="M 66.459153 104.774475 
C 67.164367 104.774475 67.840792 104.494291 68.339454 103.995629 
C 68.838116 103.496967 69.118301 102.820542 69.118301 102.115327 
C 69.118301 101.410113 68.838116 100.733688 68.339454 100.235026 
C 67.840792 99.736364 67.164367 99.456179 66.459153 99.456179 
C 65.753938 99.456179 65.077513 99.736364 64.578851 100.235026 
C 64.080189 100.733688 63.800005 101.410113 63.800005 102.115327 
C 63.800005 102.820542 64.080189 103.496967 64.578851 103.995629 
C 65.077513 104.494291 65.753938 104.774475 66.459153 104.774475 
z
" clip-path="url(#pca56263cb8)" style="stroke: #000000"/>
    <path d="M 60.034744 99.013681 
C 60.873521 99.013681 61.678057 98.680431 62.271161 98.087326 
C 62.864266 97.494222 63.197516 96.689686 63.197516 95.850909 
C 63.197516 95.012132 62.864266 94.207597 62.271161 93.614492 
C 61.678057 93.021387 60.873521 92.688138 60.034744 92.688138 
C 59.195967 92.688138 58.391432 93.021387 57.798327 93.614492 
C 57.205222 94.207597 56.871973 95.012132 56.871973 95.850909 
C 56.871973 96.689686 57.205222 97.494222 57.798327 98.087326 
C 58.391432 98.680431 59.195967 99.013681 60.034744 99.013681 
z
" clip-path="url(#pca56263cb8)" style="stroke: #000000"/>
    <path d="M 55.184127 87.505771 
C 55.702751 87.505771 56.200204 87.299719 56.566926 86.932997 
C 56.933649 86.566274 57.1397 86.068822 57.1397 85.550198 
C 57.1397 85.031574 56.933649 84.534122 56.566926 84.167399 
C 56.200204 83.800677 55.702751 83.594625 55.184127 83.594625 
C 54.665504 83.594625 54.168051 83.800677 53.801329 84.167399 
C 53.434606 84.534122 53.228555 85.031574 53.228555 85.550198 
C 53.228555 86.068822 53.434606 86.566274 53.801329 86.932997 
C 54.168051 87.299719 54.665504 87.505771 55.184127 87.505771 
z
" clip-path="url(#pca56263cb8)" style="stroke: #000000"/>
    <path d="M 52.601925 72.950869 
C 53.307139 72.950869 53.983565 72.670685 54.482227 72.172023 
C 54.980888 71.673361 55.261073 70.996936 55.261073 70.291721 
C 55.261073 69.586507 54.980888 68.910082 54.482227 68.41142 
C 53.983565 67.912758 53.307139 67.632573 52.601925 67.632573 
C 51.896711 67.632573 51.220285 67.912758 50.721623 68.41142 
C 50.222962 68.910082 49.942777 69.586507 49.942777 70.291721 
C 49.942777 70.996936 50.222962 71.673361 50.721623 72.172023 
C 51.220285 72.670685 51.896711 72.950869 52.601925 72.950869 
z
" clip-path="url(#pca56263cb8)" style="stroke: #000000"/>
    <path d="M 50.522974 64.171471 
C 51.228409 64.171471 51.905046 63.891198 52.403863 63.392381 
C 52.902681 62.893563 53.182953 62.216927 53.182953 61.511492 
C 53.182953 60.806058 52.902681 60.129421 52.403863 59.630603 
C 51.905046 59.131786 51.228409 58.851514 50.522974 58.851514 
C 49.81754 58.851514 49.140903 59.131786 48.642085 59.630603 
C 48.143268 60.129421 47.862996 60.806058 47.862996 61.511492 
C 47.862996 62.216927 48.143268 62.893563 48.642085 63.392381 
C 49.140903 63.891198 49.81754 64.171471 50.522974 64.171471 
z
" clip-path="url(#pca56263cb8)" style="stroke: #000000"/>
    <path d="M 52.48212 55.049717 
C 53.187334 55.049717 53.863759 54.769533 54.362421 54.270871 
C 54.861083 53.772209 55.141268 53.095784 55.141268 52.390569 
C 55.141268 51.685355 54.861083 51.00893 54.362421 50.510268 
C 53.863759 50.011606 53.187334 49.731422 52.48212 49.731422 
C 51.776905 49.731422 51.10048 50.011606 50.601818 50.510268 
C 50.103156 51.00893 49.822972 51.685355 49.822972 52.390569 
C 49.822972 53.095784 50.103156 53.772209 50.601818 54.270871 
C 51.10048 54.769533 51.776905 55.049717 52.48212 55.049717 
z
" clip-path="url(#pca56263cb8)" style="stroke: #000000"/>
    <path d="M 77.804483 169.879761 
C 78.509698 169.879761 79.186123 169.599576 79.684785 169.100914 
C 80.183447 168.602253 80.463631 167.925827 80.463631 167.220613 
C 80.463631 166.515399 80.183447 165.838973 79.684785 165.340311 
C 79.186123 164.841649 78.509698 164.561465 77.804483 164.561465 
C 77.099269 164.561465 76.422843 164.841649 75.924182 165.340311 
C 75.42552 165.838973 75.145335 166.515399 75.145335 167.220613 
C 75.145335 167.925827 75.42552 168.602253 75.924182 169.100914 
C 76.422843 169.599576 77.099269 169.879761 77.804483 169.879761 
z
" clip-path="url(#pca56263cb8)" style="stroke: #000000"/>
    <path d="M 75.304906 157.984261 
C 76.01012 157.984261 76.686546 157.704077 77.185208 157.205415 
C 77.683869 156.706753 77.964054 156.030328 77.964054 155.325113 
C 77.964054 154.619899 77.683869 153.943474 77.185208 153.444812 
C 76.686546 152.94615 76.01012 152.665965 75.304906 152.665965 
C 74.599692 152.665965 73.923266 152.94615 73.424605 153.444812 
C 72.925943 153.943474 72.645758 154.619899 72.645758 155.325113 
C 72.645758 156.030328 72.925943 156.706753 73.424605 157.205415 
C 73.923266 157.704077 74.599692 157.984261 75.304906 157.984261 
z
" clip-path="url(#pca56263cb8)" style="stroke: #000000"/>
    <path d="M 69.843737 149.825642 
C 70.549171 149.825642 71.225808 149.54537 71.724626 149.046552 
C 72.223443 148.547735 72.503715 147.871098 72.503715 147.165663 
C 72.503715 146.460229 72.223443 145.783592 71.724626 145.284775 
C 71.225808 144.785957 70.549171 144.505685 69.843737 144.505685 
C 69.138302 144.505685 68.461666 144.785957 67.962848 145.284775 
C 67.46403 145.783592 67.183758 146.460229 67.183758 147.165663 
C 67.183758 147.871098 67.46403 148.547735 67.962848 149.046552 
C 68.461666 149.54537 69.138302 149.825642 69.843737 149.825642 
z
" clip-path="url(#pca56263cb8)" style="stroke: #000000"/>
    <path d="M 65.513482 142.392865 
C 65.956862 142.392865 66.382142 142.216708 66.695659 141.903191 
C 67.009176 141.589674 67.185333 141.164394 67.185333 140.721014 
C 67.185333 140.277634 67.009176 139.852354 66.695659 139.538837 
C 66.382142 139.22532 65.956862 139.049163 65.513482 139.049163 
C 65.070102 139.049163 64.644822 139.22532 64.331305 139.538837 
C 64.017788 139.852354 63.841631 140.277634 63.841631 140.721014 
C 63.841631 141.164394 64.017788 141.589674 64.331305 141.903191 
C 64.644822 142.216708 65.070102 142.392865 65.513482 142.392865 
z
" clip-path="url(#pca56263cb8)" style="stroke: #000000"/>
    <path d="M 57.786031 128.797512 
C 58.423463 128.797512 59.034874 128.544257 59.485606 128.093525 
C 59.936339 127.642792 60.189593 127.031382 60.189593 126.39395 
C 60.189593 125.756518 59.936339 125.145108 59.485606 124.694375 
C 59.034874 124.243642 58.423463 123.990388 57.786031 123.990388 
C 57.148599 123.990388 56.537189 124.243642 56.086456 124.694375 
C 55.635724 125.145108 55.382469 125.756518 55.382469 126.39395 
C 55.382469 127.031382 55.635724 127.642792 56.086456 128.093525 
C 56.537189 128.544257 57.148599 128.797512 57.786031 128.797512 
z
" clip-path="url(#pca56263cb8)" style="stroke: #000000"/>
    <path d="M 57.367322 116.732217 
C 57.952007 116.732217 58.512823 116.499919 58.926257 116.086485 
C 59.339691 115.673051 59.571989 115.112235 59.571989 114.52755 
C 59.571989 113.942866 59.339691 113.38205 58.926257 112.968615 
C 58.512823 112.555181 57.952007 112.322883 57.367322 112.322883 
C 56.782638 112.322883 56.221822 112.555181 55.808387 112.968615 
C 55.394953 113.38205 55.162655 113.942866 55.162655 114.52755 
C 55.162655 115.112235 55.394953 115.673051 55.808387 116.086485 
C 56.221822 116.499919 56.782638 116.732217 57.367322 116.732217 
z
" clip-path="url(#pca56263cb8)" style="stroke: #000000"/>
    <path d="M 53.730407 108.483259 
C 54.569053 108.483259 55.373463 108.150062 55.966475 107.55705 
C 56.559487 106.964038 56.892684 106.159628 56.892684 105.320982 
C 56.892684 104.482336 56.559487 103.677926 55.966475 103.084914 
C 55.373463 102.491902 54.569053 102.158704 53.730407 102.158704 
C 52.891761 102.158704 52.087351 102.491902 51.494339 103.084914 
C 50.901327 103.677926 50.568129 104.482336 50.568129 105.320982 
C 50.568129 106.159628 50.901327 106.964038 51.494339 107.55705 
C 52.087351 108.150062 52.891761 108.483259 53.730407 108.483259 
z
" clip-path="url(#pca56263cb8)" style="stroke: #000000"/>
    <path d="M 50.585797 97.176702 
C 51.291011 97.176702 51.967437 96.896518 52.466098 96.397856 
C 52.96476 95.899194 53.244945 95.222769 53.244945 94.517555 
C 53.244945 93.81234 52.96476 93.135915 52.466098 92.637253 
C 51.967437 92.138591 51.291011 91.858407 50.585797 91.858407 
C 49.880583 91.858407 49.204157 92.138591 48.705495 92.637253 
C 48.206834 93.135915 47.926649 93.81234 47.926649 94.517555 
C 47.926649 95.222769 48.206834 95.899194 48.705495 96.397856 
C 49.204157 96.896518 49.880583 97.176702 50.585797 97.176702 
z
" clip-path="url(#pca56263cb8)" style="stroke: #000000"/>
    <path d="M 44.593882 88.187099 
C 45.186894 88.187099 45.755698 87.951493 46.175021 87.53217 
C 46.594344 87.112847 46.82995 86.544043 46.82995 85.951031 
C 46.82995 85.358019 46.594344 84.789215 46.175021 84.369892 
C 45.755698 83.950569 45.186894 83.714963 44.593882 83.714963 
C 44.00087 83.714963 43.432066 83.950569 43.012743 84.369892 
C 42.59342 84.789215 42.357814 85.358019 42.357814 85.951031 
C 42.357814 86.544043 42.59342 87.112847 43.012743 87.53217 
C 43.432066 87.951493 44.00087 88.187099 44.593882 88.187099 
z
" clip-path="url(#pca56263cb8)" style="stroke: #000000"/>
    <path d="M 40.859559 75.596352 
C 41.438753 75.596352 41.994302 75.366236 42.403854 74.956684 
C 42.813406 74.547132 43.043522 73.991583 43.043522 73.412389 
C 43.043522 72.833195 42.813406 72.277646 42.403854 71.868094 
C 41.994302 71.458542 41.438753 71.228426 40.859559 71.228426 
C 40.280365 71.228426 39.724815 71.458542 39.315263 71.868094 
C 38.905712 72.277646 38.675595 72.833195 38.675595 73.412389 
C 38.675595 73.991583 38.905712 74.547132 39.315263 74.956684 
C 39.724815 75.366236 40.280365 75.596352 40.859559 75.596352 
z
" clip-path="url(#pca56263cb8)" style="stroke: #000000"/>
    <path d="M 38.967174 68.806069 
C 39.528011 68.806069 40.065952 68.583247 40.462523 68.186675 
C 40.859094 67.790104 41.081917 67.252163 41.081917 66.691327 
C 41.081917 66.13049 40.859094 65.592549 40.462523 65.195978 
C 40.065952 64.799407 39.528011 64.576584 38.967174 64.576584 
C 38.406338 64.576584 37.868397 64.799407 37.471826 65.195978 
C 37.075254 65.592549 36.852432 66.13049 36.852432 66.691327 
C 36.852432 67.252163 37.075254 67.790104 37.471826 68.186675 
C 37.868397 68.583247 38.406338 68.806069 38.967174 68.806069 
z
" clip-path="url(#pca56263cb8)" style="stroke: #000000"/>
    <path d="M 62.620334 156.35842 
C 63.18117 156.35842 63.719112 156.135597 64.115683 155.739026 
C 64.512254 155.342455 64.735077 154.804514 64.735077 154.243677 
C 64.735077 153.682841 64.512254 153.1449 64.115683 152.748329 
C 63.719112 152.351758 63.18117 152.128935 62.620334 152.128935 
C 62.059498 152.128935 61.521556 152.351758 61.124985 152.748329 
C 60.728414 153.1449 60.505592 153.682841 60.505592 154.243677 
C 60.505592 154.804514 60.728414 155.342455 61.124985 155.739026 
C 61.521556 156.135597 62.059498 156.35842 62.620334 156.35842 
z
" clip-path="url(#pca56263cb8)" style="stroke: #000000"/>
    <path d="M 55.477896 149.722497 
C 56.183111 149.722497 56.859536 149.442312 57.358198 148.943651 
C 57.85686 148.444989 58.137044 147.768563 58.137044 147.063349 
C 58.137044 146.358135 57.85686 145.681709 57.358198 145.183047 
C 56.859536 144.684386 56.183111 144.404201 55.477896 144.404201 
C 54.772682 144.404201 54.096257 144.684386 53.597595 145.183047 
C 53.098933 145.681709 52.818748 146.358135 52.818748 147.063349 
C 52.818748 147.768563 53.098933 148.444989 53.597595 148.943651 
C 54.096257 149.442312 54.772682 149.722497 55.477896 149.722497 
z
" clip-path="url(#pca56263cb8)" style="stroke: #000000"/>
    <path d="M 50.604186 134.649925 
C 51.309621 134.649925 51.986258 134.369653 52.485075 133.870836 
C 52.983893 133.372018 53.264165 132.695381 53.264165 131.989947 
C 53.264165 131.284512 52.983893 130.607876 52.485075 130.109058 
C 51.986258 129.61024 51.309621 129.329968 50.604186 129.329968 
C 49.898752 129.329968 49.222115 129.61024 48.723297 130.109058 
C 48.22448 130.607876 47.944208 131.284512 47.944208 131.989947 
C 47.944208 132.695381 48.22448 133.372018 48.723297 133.870836 
C 49.222115 134.369653 49.898752 134.649925 50.604186 134.649925 
z
" clip-path="url(#pca56263cb8)" style="stroke: #000000"/>
    <path d="M 48.89999 123.309613 
C 49.605425 123.309613 50.282061 123.029341 50.780879 122.530523 
C 51.279696 122.031706 51.559969 121.355069 51.559969 120.649635 
C 51.559969 119.9442 51.279696 119.267563 50.780879 118.768746 
C 50.282061 118.269928 49.605425 117.989656 48.89999 117.989656 
C 48.194555 117.989656 47.517919 118.269928 47.019101 118.768746 
C 46.520284 119.267563 46.240012 119.9442 46.240012 120.649635 
C 46.240012 121.355069 46.520284 122.031706 47.019101 122.530523 
C 47.517919 123.029341 48.194555 123.309613 48.89999 123.309613 
z
" clip-path="url(#pca56263cb8)" style="stroke: #000000"/>
    <path d="M 42.849747 110.329456 
C 43.554962 110.329456 44.231387 110.049271 44.730049 109.55061 
C 45.228711 109.051948 45.508895 108.375522 45.508895 107.670308 
C 45.508895 106.965094 45.228711 106.288668 44.730049 105.790007 
C 44.231387 105.291345 43.554962 105.01116 42.849747 105.01116 
C 42.144533 105.01116 41.468108 105.291345 40.969446 105.790007 
C 40.470784 106.288668 40.190599 106.965094 40.190599 107.670308 
C 40.190599 108.375522 40.470784 109.051948 40.969446 109.55061 
C 41.468108 110.049271 42.144533 110.329456 42.849747 110.329456 
z
" clip-path="url(#pca56263cb8)" style="stroke: #000000"/>
    <path d="M 40.461238 100.166572 
C 40.783765 100.166572 41.093125 100.038431 41.321186 99.81037 
C 41.549246 99.582309 41.677387 99.272949 41.677387 98.950423 
C 41.677387 98.627896 41.549246 98.318536 41.321186 98.090475 
C 41.093125 97.862414 40.783765 97.734273 40.461238 97.734273 
C 40.138711 97.734273 39.829351 97.862414 39.60129 98.090475 
C 39.373229 98.318536 39.245088 98.627896 39.245088 98.950423 
C 39.245088 99.272949 39.373229 99.582309 39.60129 99.81037 
C 39.829351 100.038431 40.138711 100.166572 40.461238 100.166572 
z
" clip-path="url(#pca56263cb8)" style="stroke: #000000"/>
    <path d="M 33.272655 82.491936 
C 33.97809 82.491936 34.654726 82.211664 35.153544 81.712847 
C 35.652361 81.214029 35.932634 80.537392 35.932634 79.831958 
C 35.932634 79.126523 35.652361 78.449887 35.153544 77.951069 
C 34.654726 77.452251 33.97809 77.171979 33.272655 77.171979 
C 32.56722 77.171979 31.890584 77.452251 31.391766 77.951069 
C 30.892949 78.449887 30.612676 79.126523 30.612676 79.831958 
C 30.612676 80.537392 30.892949 81.214029 31.391766 81.712847 
C 31.890584 82.211664 32.56722 82.491936 33.272655 82.491936 
z
" clip-path="url(#pca56263cb8)" style="stroke: #000000"/>
    <path d="M 44.545117 169.25974 
C 45.250551 169.25974 45.927188 168.979468 46.426005 168.48065 
C 46.924823 167.981833 47.205095 167.305196 47.205095 166.599761 
C 47.205095 165.894327 46.924823 165.21769 46.426005 164.718872 
C 45.927188 164.220055 45.250551 163.939783 44.545117 163.939783 
C 43.839682 163.939783 43.163045 164.220055 42.664228 164.718872 
C 42.16541 165.21769 41.885138 165.894327 41.885138 166.599761 
C 41.885138 167.305196 42.16541 167.981833 42.664228 168.48065 
C 43.163045 168.979468 43.839682 169.25974 44.545117 169.25974 
z
" clip-path="url(#pca56263cb8)" style="stroke: #000000"/>
    <path d="M 42.817539 155.3644 
C 43.522973 155.3644 44.19961 155.084127 44.698428 154.58531 
C 45.197245 154.086492 45.477517 153.409856 45.477517 152.704421 
C 45.477517 151.998987 45.197245 151.32235 44.698428 150.823532 
C 44.19961 150.324715 43.522973 150.044443 42.817539 150.044443 
C 42.112104 150.044443 41.435468 150.324715 40.93665 150.823532 
C 40.437832 151.32235 40.15756 151.998987 40.15756 152.704421 
C 40.15756 153.409856 40.437832 154.086492 40.93665 154.58531 
C 41.435468 155.084127 42.112104 155.3644 42.817539 155.3644 
z
" clip-path="url(#pca56263cb8)" style="stroke: #000000"/>
    <path d="M 40.527829 149.344308 
C 41.233263 149.344308 41.9099 149.064036 42.408717 148.565219 
C 42.907535 148.066401 43.187807 147.389764 43.187807 146.68433 
C 43.187807 145.978895 42.907535 145.302259 42.408717 144.803441 
C 41.9099 144.304623 41.233263 144.024351 40.527829 144.024351 
C 39.822394 144.024351 39.145757 144.304623 38.64694 144.803441 
C 38.148122 145.302259 37.86785 145.978895 37.86785 146.68433 
C 37.86785 147.389764 38.148122 148.066401 38.64694 148.565219 
C 39.145757 149.064036 39.822394 149.344308 40.527829 149.344308 
z
" clip-path="url(#pca56263cb8)" style="stroke: #000000"/>
    <path d="M 33.712716 115.313677 
C 34.281698 115.313677 34.827453 115.087618 35.229784 114.685287 
C 35.632115 114.282956 35.858174 113.737202 35.858174 113.16822 
C 35.858174 112.599238 35.632115 112.053483 35.229784 111.651152 
C 34.827453 111.248821 34.281698 111.022762 33.712716 111.022762 
C 33.143734 111.022762 32.59798 111.248821 32.195649 111.651152 
C 31.793317 112.053483 31.567259 112.599238 31.567259 113.16822 
C 31.567259 113.737202 31.793317 114.282956 32.195649 114.685287 
C 32.59798 115.087618 33.143734 115.313677 33.712716 115.313677 
z
" clip-path="url(#pca56263cb8)" style="stroke: #000000"/>
    <path d="M 36.989783 170.314025 
C 37.541643 170.314025 38.070975 170.094769 38.461199 169.704545 
C 38.851423 169.314321 39.070679 168.78499 39.070679 168.23313 
C 39.070679 167.68127 38.851423 167.151938 38.461199 166.761714 
C 38.070975 166.37149 37.541643 166.152234 36.989783 166.152234 
C 36.437923 166.152234 35.908592 166.37149 35.518368 166.761714 
C 35.128144 167.151938 34.908887 167.68127 34.908887 168.23313 
C 34.908887 168.78499 35.128144 169.314321 35.518368 169.704545 
C 35.908592 170.094769 36.437923 170.314025 36.989783 170.314025 
z
" clip-path="url(#pca56263cb8)" style="stroke: #000000"/>
    <path d="M 40.04136 160.512565 
C 40.746794 160.512565 41.423431 160.232293 41.922249 159.733475 
C 42.421066 159.234658 42.701338 158.558021 42.701338 157.852586 
C 42.701338 157.147152 42.421066 156.470515 41.922249 155.971697 
C 41.423431 155.47288 40.746794 155.192608 40.04136 155.192608 
C 39.335925 155.192608 38.659289 155.47288 38.160471 155.971697 
C 37.661653 156.470515 37.381381 157.147152 37.381381 157.852586 
C 37.381381 158.558021 37.661653 159.234658 38.160471 159.733475 
C 38.659289 160.232293 39.335925 160.512565 40.04136 160.512565 
z
" clip-path="url(#pca56263cb8)" style="stroke: #000000"/>
   </g>
   <g id="matplotlib.axis_1">
    <g id="xtick_1">
     <g id="line2d_1">
      <defs>
       <path id="m4ee3b09569" d="M 0 0 
L 0 3.5 
" style="stroke: #000000; stroke-width: 0.8"/>
      </defs>
      <g>
       <use xlink:href="#m4ee3b09569" x="18" y="189" style="stroke: #000000; stroke-width: 0.8"/>
      </g>
     </g>
     <g id="text_1">
      <!-- 10 -->
      <g transform="translate(7.447656 203.598437)scale(0.1 -0.1)">
       <defs>
        <path id="DejaVuSans-2212" d="M 678 2272 
L 4684 2272 
L 4684 1741 
L 678 1741 
L 678 2272 
z
" transform="scale(0.015625)"/>
        <path id="DejaVuSans-31" d="M 794 531 
L 1825 531 
L 1825 4091 
L 703 3866 
L 703 4441 
L 1819 4666 
L 2450 4666 
L 2450 531 
L 3481 531 
L 3481 0 
L 794 0 
L 794 531 
z
" transform="scale(0.015625)"/>
        <path id="DejaVuSans-30" d="M 2034 4250 
Q 1547 4250 1301 3770 
Q 1056 3291 1056 2328 
Q 1056 1369 1301 889 
Q 1547 409 2034 409 
Q 2525 409 2770 889 
Q 3016 1369 3016 2328 
Q 3016 3291 2770 3770 
Q 2525 4250 2034 4250 
z
M 2034 4750 
Q 2819 4750 3233 4129 
Q 3647 3509 3647 2328 
Q 3647 1150 3233 529 
Q 2819 -91 2034 -91 
Q 1250 -91 836 529 
Q 422 1150 422 2328 
Q 422 3509 836 4129 
Q 1250 4750 2034 4750 
z
" transform="scale(0.015625)"/>
       </defs>
       <use xlink:href="#DejaVuSans-2212"/>
       <use xlink:href="#DejaVuSans-31" x="83.789062"/>
       <use xlink:href="#DejaVuSans-30" x="147.412109"/>
      </g>
     </g>
    </g>
    <g id="xtick_2">
     <g id="line2d_2">
      <g>
       <use xlink:href="#m4ee3b09569" x="73.8" y="189" style="stroke: #000000; stroke-width: 0.8"/>
      </g>
     </g>
     <g id="text_2">
      <!-- 0 -->
      <g transform="translate(70.61875 203.598437)scale(0.1 -0.1)">
       <use xlink:href="#DejaVuSans-30"/>
      </g>
     </g>
    </g>
    <g id="xtick_3">
     <g id="line2d_3">
      <g>
       <use xlink:href="#m4ee3b09569" x="129.6" y="189" style="stroke: #000000; stroke-width: 0.8"/>
      </g>
     </g>
     <g id="text_3">
      <!-- 10 -->
      <g transform="translate(123.2375 203.598437)scale(0.1 -0.1)">
       <use xlink:href="#DejaVuSans-31"/>
       <use xlink:href="#DejaVuSans-30" x="63.623047"/>
      </g>
     </g>
    </g>
   </g>
   <g id="matplotlib.axis_2">
    <g id="ytick_1">
     <g id="line2d_4">
      <defs>
       <path id="maf31240c02" d="M 0 0 
L -3.5 0 
" style="stroke: #000000; stroke-width: 0.8"/>
      </defs>
      <g>
       <use xlink:href="#maf31240c02" x="18" y="189" style="stroke: #000000; stroke-width: 0.8"/>
      </g>
     </g>
     <g id="text_4">
      <!-- 15 -->
      <g transform="translate(-10.104688 192.799219)scale(0.1 -0.1)">
       <defs>
        <path id="DejaVuSans-35" d="M 691 4666 
L 3169 4666 
L 3169 4134 
L 1269 4134 
L 1269 2991 
Q 1406 3038 1543 3061 
Q 1681 3084 1819 3084 
Q 2600 3084 3056 2656 
Q 3513 2228 3513 1497 
Q 3513 744 3044 326 
Q 2575 -91 1722 -91 
Q 1428 -91 1123 -41 
Q 819 9 494 109 
L 494 744 
Q 775 591 1075 516 
Q 1375 441 1709 441 
Q 2250 441 2565 725 
Q 2881 1009 2881 1497 
Q 2881 1984 2565 2268 
Q 2250 2553 1709 2553 
Q 1456 2553 1204 2497 
Q 953 2441 691 2322 
L 691 4666 
z
" transform="scale(0.015625)"/>
       </defs>
       <use xlink:href="#DejaVuSans-2212"/>
       <use xlink:href="#DejaVuSans-31" x="83.789062"/>
       <use xlink:href="#DejaVuSans-35" x="147.412109"/>
      </g>
     </g>
    </g>
    <g id="ytick_2">
     <g id="line2d_5">
      <g>
       <use xlink:href="#maf31240c02" x="18" y="161.82" style="stroke: #000000; stroke-width: 0.8"/>
      </g>
     </g>
     <g id="text_5">
      <!-- 10 -->
      <g transform="translate(-10.104688 165.619219)scale(0.1 -0.1)">
       <use xlink:href="#DejaVuSans-2212"/>
       <use xlink:href="#DejaVuSans-31" x="83.789062"/>
       <use xlink:href="#DejaVuSans-30" x="147.412109"/>
      </g>
     </g>
    </g>
    <g id="ytick_3">
     <g id="line2d_6">
      <g>
       <use xlink:href="#maf31240c02" x="18" y="134.64" style="stroke: #000000; stroke-width: 0.8"/>
      </g>
     </g>
     <g id="text_6">
      <!-- 5 -->
      <g transform="translate(-3.742188 138.439219)scale(0.1 -0.1)">
       <use xlink:href="#DejaVuSans-2212"/>
       <use xlink:href="#DejaVuSans-35" x="83.789062"/>
      </g>
     </g>
    </g>
    <g id="ytick_4">
     <g id="line2d_7">
      <g>
       <use xlink:href="#maf31240c02" x="18" y="107.46" style="stroke: #000000; stroke-width: 0.8"/>
      </g>
     </g>
     <g id="text_7">
      <!-- 0 -->
      <g transform="translate(4.6375 111.259219)scale(0.1 -0.1)">
       <use xlink:href="#DejaVuSans-30"/>
      </g>
     </g>
    </g>
    <g id="ytick_5">
     <g id="line2d_8">
      <g>
       <use xlink:href="#maf31240c02" x="18" y="80.28" style="stroke: #000000; stroke-width: 0.8"/>
      </g>
     </g>
     <g id="text_8">
      <!-- 5 -->
      <g transform="translate(4.6375 84.079219)scale(0.1 -0.1)">
       <use xlink:href="#DejaVuSans-35"/>
      </g>
     </g>
    </g>
    <g id="ytick_6">
     <g id="line2d_9">
      <g>
       <use xlink:href="#maf31240c02" x="18" y="53.1" style="stroke: #000000; stroke-width: 0.8"/>
      </g>
     </g>
     <g id="text_9">
      <!-- 10 -->
      <g transform="translate(-1.725 56.899219)scale(0.1 -0.1)">
       <use xlink:href="#DejaVuSans-31"/>
       <use xlink:href="#DejaVuSans-30" x="63.623047"/>
      </g>
     </g>
    </g>
    <g id="ytick_7">
     <g id="line2d_10">
      <g>
       <use xlink:href="#maf31240c02" x="18" y="25.92" style="stroke: #000000; stroke-width: 0.8"/>
      </g>
     </g>
     <g id="text_10">
      <!-- 15 -->
      <g transform="translate(-1.725 29.719219)scale(0.1 -0.1)">
       <use xlink:href="#DejaVuSans-31"/>
       <use xlink:href="#DejaVuSans-35" x="63.623047"/>
      </g>
     </g>
    </g>
   </g>
   <g id="patch_3">
    <path d="M 18 189 
L 18 25.92 
" style="fill: none; stroke: #000000; stroke-width: 0.8; stroke-linejoin: miter; stroke-linecap: square"/>
   </g>
   <g id="patch_4">
    <path d="M 129.6 189 
L 129.6 25.92 
" style="fill: none; stroke: #000000; stroke-width: 0.8; stroke-linejoin: miter; stroke-linecap: square"/>
   </g>
   <g id="patch_5">
    <path d="M 18 189 
L 129.6 189 
" style="fill: none; stroke: #000000; stroke-width: 0.8; stroke-linejoin: miter; stroke-linecap: square"/>
   </g>
   <g id="patch_6">
    <path d="M 18 25.92 
L 129.6 25.92 
" style="fill: none; stroke: #000000; stroke-width: 0.8; stroke-linejoin: miter; stroke-linecap: square"/>
   </g>
  </g>
 </g>
 <defs>
  <clipPath id="pca56263cb8">
   <rect x="18" y="25.92" width="111.6" height="163.08"/>
  </clipPath>
 </defs>
</svg>
