<?xml version="1.0" encoding="utf-8" standalone="no"?>
<!DOCTYPE svg PUBLIC "-//W3C//DTD SVG 1.1//EN"
  "http://www.w3.org/Graphics/SVG/1.1/DTD/svg11.dtd">
<svg xmlns:xlink="http://www.w3.org/1999/xlink" width="144pt" height="216pt" viewBox="0 0 144 216" xmlns="http://www.w3.org/2000/svg" version="1.1">
 <metadata>
  <rdf:RDF xmlns:dc="http://purl.org/dc/elements/1.1/" xmlns:cc="http://creativecommons.org/ns#" xmlns:rdf="http://www.w3.org/1999/02/22-rdf-syntax-ns#">
   <cc:Work>
    <dc:type rdf:resource="http://purl.org/dc/dcmitype/StillImage"/>
    <dc:date>2022-06-28T09:15:51.061527</dc:date>
    <dc:format>image/svg+xml</dc:format>
    <dc:creator>
     <cc:Agent>
      <dc:title>Matplotlib v3.5.1, https://matplotlib.org/</dc:title>
     </cc:Agent>
    </dc:creator>
   </cc:Work>
  </rdf:RDF>
 </metadata>
 <defs>
  <style type="text/css">*{stroke-linejoin: round; stroke-linecap: butt}</style>
 </defs>
 <g id="figure_1">
  <g id="patch_1">
   <path d="M 0 216 
L 144 216 
L 144 0 
L 0 0 
L 0 216 
z
" style="fill: none"/>
  </g>
  <g id="axes_1">
   <g id="patch_2">
    <path d="M 18 189 
L 129.6 189 
L 129.6 25.92 
L 18 25.92 
z
" style="fill: #ffffff"/>
   </g>
   <g id="PathCollection_1">
    <defs>
     <path id="mdca3b421ec" d="M 0 2.738613 
C 0.726289 2.738613 1.422928 2.450055 1.936492 1.936492 
C 2.450055 1.422928 2.738613 0.726289 2.738613 0 
C 2.738613 -0.726289 2.450055 -1.422928 1.936492 -1.936492 
C 1.422928 -2.450055 0.726289 -2.738613 0 -2.738613 
C -0.726289 -2.738613 -1.422928 -2.450055 -1.936492 -1.936492 
C -2.450055 -1.422928 -2.738613 -0.726289 -2.738613 0 
C -2.738613 0.726289 -2.450055 1.422928 -1.936492 1.936492 
C -1.422928 2.450055 -0.726289 2.738613 0 2.738613 
z
" style="stroke: #ff0000; stroke-width: 1.75"/>
    </defs>
    <g clip-path="url(#pa55dd14a57)">
     <use xlink:href="#mdca3b421ec" x="80.775" y="107.46" style="fill: #ff0000; stroke: #ff0000; stroke-width: 1.75"/>
     <use xlink:href="#mdca3b421ec" x="94.725" y="107.46" style="fill: #ff0000; stroke: #ff0000; stroke-width: 1.75"/>
     <use xlink:href="#mdca3b421ec" x="59.85" y="119.229285" style="fill: #ff0000; stroke: #ff0000; stroke-width: 1.75"/>
     <use xlink:href="#mdca3b421ec" x="73.8" y="119.229285" style="fill: #ff0000; stroke: #ff0000; stroke-width: 1.75"/>
     <use xlink:href="#mdca3b421ec" x="87.75" y="119.229285" style="fill: #ff0000; stroke: #ff0000; stroke-width: 1.75"/>
     <use xlink:href="#mdca3b421ec" x="66.825" y="130.99857" style="fill: #ff0000; stroke: #ff0000; stroke-width: 1.75"/>
     <use xlink:href="#mdca3b421ec" x="80.775" y="130.99857" style="fill: #ff0000; stroke: #ff0000; stroke-width: 1.75"/>
    </g>
   </g>
   <g id="PathCollection_2">
    <defs>
     <path id="C0_0_47dff28e0f" d="M 0 2.738613 
C 0.726289 2.738613 1.422928 2.450055 1.936492 1.936492 
C 2.450055 1.422928 2.738613 0.726289 2.738613 -0 
C 2.738613 -0.726289 2.450055 -1.422928 1.936492 -1.936492 
C 1.422928 -2.450055 0.726289 -2.738613 0 -2.738613 
C -0.726289 -2.738613 -1.422928 -2.450055 -1.936492 -1.936492 
C -2.450055 -1.422928 -2.738613 -0.726289 -2.738613 0 
C -2.738613 0.726289 -2.450055 1.422928 -1.936492 1.936492 
C -1.422928 2.450055 -0.726289 2.738613 0 2.738613 
z
"/>
    </defs>
    <g clip-path="url(#pa55dd14a57)">
     <use xlink:href="#C0_0_47dff28e0f" x="66.825" y="83.92143" style="fill: none; stroke: #ff0000; stroke-width: 1.75"/>
    </g>
    <g clip-path="url(#pa55dd14a57)">
     <use xlink:href="#C0_0_47dff28e0f" x="80.775" y="83.92143" style="fill: none; stroke: #ff0000; stroke-width: 1.75"/>
    </g>
    <g clip-path="url(#pa55dd14a57)">
     <use xlink:href="#C0_0_47dff28e0f" x="59.85" y="95.690715" style="fill: none; stroke: #ff0000; stroke-width: 1.75"/>
    </g>
    <g clip-path="url(#pa55dd14a57)">
     <use xlink:href="#C0_0_47dff28e0f" x="73.8" y="95.690715" style="fill: none; stroke: #ff0000; stroke-width: 1.75"/>
    </g>
    <g clip-path="url(#pa55dd14a57)">
     <use xlink:href="#C0_0_47dff28e0f" x="87.75" y="95.690715" style="fill: none; stroke: #ff0000; stroke-width: 1.75"/>
    </g>
    <g clip-path="url(#pa55dd14a57)">
     <use xlink:href="#C0_0_47dff28e0f" x="52.875" y="107.46" style="fill: none; stroke: #ff0000; stroke-width: 1.75"/>
    </g>
    <g clip-path="url(#pa55dd14a57)">
     <use xlink:href="#C0_0_47dff28e0f" x="66.825" y="107.46" style="fill: none; stroke: #ff0000; stroke-width: 1.75"/>
    </g>
   </g>
   <g id="PathCollection_3">
    <path d="M 100.400129 108.332867 
C 100.53273 108.332867 100.659919 108.280183 100.753682 108.18642 
C 100.847446 108.092656 100.900129 107.965468 100.900129 107.832867 
C 100.900129 107.700265 100.847446 107.573077 100.753682 107.479313 
C 100.659919 107.38555 100.53273 107.332867 100.400129 107.332867 
C 100.267527 107.332867 100.140339 107.38555 100.046575 107.479313 
C 99.952812 107.573077 99.900129 107.700265 99.900129 107.832867 
C 99.900129 107.965468 99.952812 108.092656 100.046575 108.18642 
C 100.140339 108.280183 100.267527 108.332867 100.400129 108.332867 
z
" clip-path="url(#pa55dd14a57)" style="stroke: #000000"/>
    <path d="M 91.633331 96.006182 
C 92.006911 96.006182 92.36524 95.857757 92.629401 95.593596 
C 92.893562 95.329435 93.041987 94.971106 93.041987 94.597525 
C 93.041987 94.223945 92.893562 93.865616 92.629401 93.601455 
C 92.36524 93.337294 92.006911 93.188869 91.633331 93.188869 
C 91.25975 93.188869 90.901421 93.337294 90.63726 93.601455 
C 90.373099 93.865616 90.224674 94.223945 90.224674 94.597525 
C 90.224674 94.971106 90.373099 95.329435 90.63726 95.593596 
C 90.901421 95.857757 91.25975 96.006182 91.633331 96.006182 
z
" clip-path="url(#pa55dd14a57)" style="stroke: #000000"/>
    <path d="M 89.693969 94.68446 
C 90.06302 94.68446 90.417005 94.537834 90.677963 94.276876 
C 90.938922 94.015917 91.085547 93.661932 91.085547 93.292881 
C 91.085547 92.92383 90.938922 92.569844 90.677963 92.308886 
C 90.417005 92.047928 90.06302 91.901302 89.693969 91.901302 
C 89.324917 91.901302 88.970932 92.047928 88.709974 92.308886 
C 88.449015 92.569844 88.30239 92.92383 88.30239 93.292881 
C 88.30239 93.661932 88.449015 94.015917 88.709974 94.276876 
C 88.970932 94.537834 89.324917 94.68446 89.693969 94.68446 
z
" clip-path="url(#pa55dd14a57)" style="stroke: #000000"/>
    <path d="M 84.271448 77.800696 
C 84.40405 77.800696 84.531238 77.748013 84.625002 77.65425 
C 84.718765 77.560486 84.771448 77.433298 84.771448 77.300696 
C 84.771448 77.168095 84.718765 77.040906 84.625002 76.947143 
C 84.531238 76.853379 84.40405 76.800696 84.271448 76.800696 
C 84.138847 76.800696 84.011658 76.853379 83.917895 76.947143 
C 83.824131 77.040906 83.771448 77.168095 83.771448 77.300696 
C 83.771448 77.433298 83.824131 77.560486 83.917895 77.65425 
C 84.011658 77.748013 84.138847 77.800696 84.271448 77.800696 
z
" clip-path="url(#pa55dd14a57)" style="stroke: #000000"/>
    <path d="M 92.208641 119.424983 
C 92.588015 119.424983 92.951901 119.274256 93.220159 119.005998 
C 93.488417 118.737741 93.639144 118.373854 93.639144 117.99448 
C 93.639144 117.615106 93.488417 117.25122 93.220159 116.982962 
C 92.951901 116.714704 92.588015 116.563977 92.208641 116.563977 
C 91.829267 116.563977 91.46538 116.714704 91.197123 116.982962 
C 90.928865 117.25122 90.778138 117.615106 90.778138 117.99448 
C 90.778138 118.373854 90.928865 118.737741 91.197123 119.005998 
C 91.46538 119.274256 91.829267 119.424983 92.208641 119.424983 
z
" clip-path="url(#pa55dd14a57)" style="stroke: #000000"/>
    <path d="M 86.489578 98.096691 
C 86.712586 98.096691 86.92649 98.008089 87.084181 97.850399 
C 87.241872 97.692708 87.330474 97.478803 87.330474 97.255795 
C 87.330474 97.032787 87.241872 96.818882 87.084181 96.661191 
C 86.92649 96.503501 86.712586 96.414899 86.489578 96.414899 
C 86.266569 96.414899 86.052665 96.503501 85.894974 96.661191 
C 85.737283 96.818882 85.648681 97.032787 85.648681 97.255795 
C 85.648681 97.478803 85.737283 97.692708 85.894974 97.850399 
C 86.052665 98.008089 86.266569 98.096691 86.489578 98.096691 
z
" clip-path="url(#pa55dd14a57)" style="stroke: #000000"/>
    <path d="M 84.201085 94.795361 
C 84.436888 94.795361 84.663064 94.701676 84.829802 94.534938 
C 84.996539 94.368201 85.090225 94.142024 85.090225 93.906222 
C 85.090225 93.670419 84.996539 93.444242 84.829802 93.277505 
C 84.663064 93.110767 84.436888 93.017082 84.201085 93.017082 
C 83.965282 93.017082 83.739106 93.110767 83.572368 93.277505 
C 83.405631 93.444242 83.311945 93.670419 83.311945 93.906222 
C 83.311945 94.142024 83.405631 94.368201 83.572368 94.534938 
C 83.739106 94.701676 83.965282 94.795361 84.201085 94.795361 
z
" clip-path="url(#pa55dd14a57)" style="stroke: #000000"/>
    <path d="M 82.501217 88.259398 
C 82.879168 88.259398 83.241689 88.109237 83.50894 87.841986 
C 83.776191 87.574735 83.926352 87.212214 83.926352 86.834263 
C 83.926352 86.456313 83.776191 86.093792 83.50894 85.826541 
C 83.241689 85.55929 82.879168 85.409128 82.501217 85.409128 
C 82.123267 85.409128 81.760746 85.55929 81.493495 85.826541 
C 81.226244 86.093792 81.076082 86.456313 81.076082 86.834263 
C 81.076082 87.212214 81.226244 87.574735 81.493495 87.841986 
C 81.760746 88.109237 82.123267 88.259398 82.501217 88.259398 
z
" clip-path="url(#pa55dd14a57)" style="stroke: #000000"/>
    <path d="M 90.188148 131.050431 
C 90.32075 131.050431 90.447938 130.997748 90.541702 130.903985 
C 90.635465 130.810221 90.688148 130.683033 90.688148 130.550431 
C 90.688148 130.41783 90.635465 130.290641 90.541702 130.196878 
C 90.447938 130.103115 90.32075 130.050431 90.188148 130.050431 
C 90.055547 130.050431 89.928358 130.103115 89.834595 130.196878 
C 89.740832 130.290641 89.688148 130.41783 89.688148 130.550431 
C 89.688148 130.683033 89.740832 130.810221 89.834595 130.903985 
C 89.928358 130.997748 90.055547 131.050431 90.188148 131.050431 
z
" clip-path="url(#pa55dd14a57)" style="stroke: #000000"/>
    <path d="M 86.187604 119.855859 
C 86.395136 119.855859 86.594197 119.773405 86.740945 119.626658 
C 86.887693 119.47991 86.970146 119.280849 86.970146 119.073317 
C 86.970146 118.865784 86.887693 118.666724 86.740945 118.519976 
C 86.594197 118.373228 86.395136 118.290774 86.187604 118.290774 
C 85.980071 118.290774 85.781011 118.373228 85.634263 118.519976 
C 85.487515 118.666724 85.405062 118.865784 85.405062 119.073317 
C 85.405062 119.280849 85.487515 119.47991 85.634263 119.626658 
C 85.781011 119.773405 85.980071 119.855859 86.187604 119.855859 
z
" clip-path="url(#pa55dd14a57)" style="stroke: #000000"/>
    <path d="M 76.774826 94.899477 
C 76.949339 94.899477 77.116729 94.830142 77.240128 94.706742 
C 77.363528 94.583343 77.432863 94.415953 77.432863 94.24144 
C 77.432863 94.066927 77.363528 93.899537 77.240128 93.776138 
C 77.116729 93.652738 76.949339 93.583403 76.774826 93.583403 
C 76.600312 93.583403 76.432923 93.652738 76.309523 93.776138 
C 76.186124 93.899537 76.116789 94.066927 76.116789 94.24144 
C 76.116789 94.415953 76.186124 94.583343 76.309523 94.706742 
C 76.432923 94.830142 76.600312 94.899477 76.774826 94.899477 
z
" clip-path="url(#pa55dd14a57)" style="stroke: #000000"/>
    <path d="M 75.687092 88.920231 
C 75.844783 88.920231 75.996036 88.85758 76.10754 88.746076 
C 76.219045 88.634572 76.281696 88.483319 76.281696 88.325628 
C 76.281696 88.167937 76.219045 88.016684 76.10754 87.90518 
C 75.996036 87.793676 75.844783 87.731024 75.687092 87.731024 
C 75.529401 87.731024 75.378148 87.793676 75.266644 87.90518 
C 75.15514 88.016684 75.092489 88.167937 75.092489 88.325628 
C 75.092489 88.483319 75.15514 88.634572 75.266644 88.746076 
C 75.378148 88.85758 75.529401 88.920231 75.687092 88.920231 
z
" clip-path="url(#pa55dd14a57)" style="stroke: #000000"/>
    <path d="M 62.089178 42.365767 
C 62.221779 42.365767 62.348968 42.313084 62.442731 42.21932 
C 62.536495 42.125557 62.589178 41.998368 62.589178 41.865767 
C 62.589178 41.733165 62.536495 41.605977 62.442731 41.512213 
C 62.348968 41.41845 62.221779 41.365767 62.089178 41.365767 
C 61.956576 41.365767 61.829388 41.41845 61.735624 41.512213 
C 61.641861 41.605977 61.589178 41.733165 61.589178 41.865767 
C 61.589178 41.998368 61.641861 42.125557 61.735624 42.21932 
C 61.829388 42.313084 61.956576 42.365767 62.089178 42.365767 
z
" clip-path="url(#pa55dd14a57)" style="stroke: #000000"/>
    <path d="M 84.718055 137.098672 
C 84.905582 137.098672 85.085454 137.024167 85.218055 136.891565 
C 85.350657 136.758964 85.425162 136.579092 85.425162 136.391565 
C 85.425162 136.204039 85.350657 136.024167 85.218055 135.891565 
C 85.085454 135.758964 84.905582 135.684459 84.718055 135.684459 
C 84.530528 135.684459 84.350657 135.758964 84.218055 135.891565 
C 84.085454 136.024167 84.010948 136.204039 84.010948 136.391565 
C 84.010948 136.579092 84.085454 136.758964 84.218055 136.891565 
C 84.350657 137.024167 84.530528 137.098672 84.718055 137.098672 
z
" clip-path="url(#pa55dd14a57)" style="stroke: #000000"/>
    <path d="M 85.076806 132.899084 
C 85.234497 132.899084 85.38575 132.836433 85.497254 132.724928 
C 85.608758 132.613424 85.67141 132.462171 85.67141 132.30448 
C 85.67141 132.146789 85.608758 131.995536 85.497254 131.884032 
C 85.38575 131.772528 85.234497 131.709877 85.076806 131.709877 
C 84.919115 131.709877 84.767862 131.772528 84.656358 131.884032 
C 84.544854 131.995536 84.482202 132.146789 84.482202 132.30448 
C 84.482202 132.462171 84.544854 132.613424 84.656358 132.724928 
C 84.767862 132.836433 84.919115 132.899084 85.076806 132.899084 
z
" clip-path="url(#pa55dd14a57)" style="stroke: #000000"/>
    <path d="M 83.724625 129.338413 
C 83.981121 129.338413 84.227146 129.236506 84.408516 129.055136 
C 84.589886 128.873766 84.691793 128.62774 84.691793 128.371244 
C 84.691793 128.114748 84.589886 127.868723 84.408516 127.687353 
C 84.227146 127.505983 83.981121 127.404076 83.724625 127.404076 
C 83.468129 127.404076 83.222104 127.505983 83.040734 127.687353 
C 82.859364 127.868723 82.757457 128.114748 82.757457 128.371244 
C 82.757457 128.62774 82.859364 128.873766 83.040734 129.055136 
C 83.222104 129.236506 83.468129 129.338413 83.724625 129.338413 
z
" clip-path="url(#pa55dd14a57)" style="stroke: #000000"/>
    <path d="M 67.910537 84.808957 
C 68.281116 84.808957 68.636568 84.661724 68.898607 84.399685 
C 69.160646 84.137646 69.307878 83.782195 69.307878 83.411616 
C 69.307878 83.041037 69.160646 82.685585 68.898607 82.423546 
C 68.636568 82.161507 68.281116 82.014275 67.910537 82.014275 
C 67.539958 82.014275 67.184507 82.161507 66.922468 82.423546 
C 66.660429 82.685585 66.513196 83.041037 66.513196 83.411616 
C 66.513196 83.782195 66.660429 84.137646 66.922468 84.399685 
C 67.184507 84.661724 67.539958 84.808957 67.910537 84.808957 
z
" clip-path="url(#pa55dd14a57)" style="stroke: #000000"/>
    <path d="M 81.312666 137.359769 
C 81.445267 137.359769 81.572456 137.307085 81.666219 137.213322 
C 81.759983 137.119559 81.812666 136.99237 81.812666 136.859769 
C 81.812666 136.727167 81.759983 136.599979 81.666219 136.506215 
C 81.572456 136.412452 81.445267 136.359769 81.312666 136.359769 
C 81.180064 136.359769 81.052876 136.412452 80.959112 136.506215 
C 80.865349 136.599979 80.812666 136.727167 80.812666 136.859769 
C 80.812666 136.99237 80.865349 137.119559 80.959112 137.213322 
C 81.052876 137.307085 81.180064 137.359769 81.312666 137.359769 
z
" clip-path="url(#pa55dd14a57)" style="stroke: #000000"/>
    <path d="M 77.437965 130.507182 
C 77.740231 130.507182 78.030158 130.38709 78.243892 130.173356 
C 78.457627 129.959621 78.577718 129.669694 78.577718 129.367428 
C 78.577718 129.065162 78.457627 128.775235 78.243892 128.561501 
C 78.030158 128.347766 77.740231 128.227675 77.437965 128.227675 
C 77.135698 128.227675 76.845772 128.347766 76.632037 128.561501 
C 76.418303 128.775235 76.298211 129.065162 76.298211 129.367428 
C 76.298211 129.669694 76.418303 129.959621 76.632037 130.173356 
C 76.845772 130.38709 77.135698 130.507182 77.437965 130.507182 
z
" clip-path="url(#pa55dd14a57)" style="stroke: #000000"/>
    <path d="M 71.69859 124.047688 
C 71.934392 124.047688 72.160569 123.954003 72.327306 123.787265 
C 72.494044 123.620528 72.587729 123.394351 72.587729 123.158549 
C 72.587729 122.922746 72.494044 122.69657 72.327306 122.529832 
C 72.160569 122.363094 71.934392 122.269409 71.69859 122.269409 
C 71.462787 122.269409 71.236611 122.363094 71.069873 122.529832 
C 70.903135 122.69657 70.80945 122.922746 70.80945 123.158549 
C 70.80945 123.394351 70.903135 123.620528 71.069873 123.787265 
C 71.236611 123.954003 71.462787 124.047688 71.69859 124.047688 
z
" clip-path="url(#pa55dd14a57)" style="stroke: #000000"/>
    <path d="M 71.908513 116.661866 
C 72.26797 116.661866 72.612753 116.519052 72.866927 116.264878 
C 73.121102 116.010703 73.263916 115.66592 73.263916 115.306463 
C 73.263916 114.947006 73.121102 114.602223 72.866927 114.348049 
C 72.612753 114.093874 72.26797 113.95106 71.908513 113.95106 
C 71.549056 113.95106 71.204273 114.093874 70.950098 114.348049 
C 70.695924 114.602223 70.55311 114.947006 70.55311 115.306463 
C 70.55311 115.66592 70.695924 116.010703 70.950098 116.264878 
C 71.204273 116.519052 71.549056 116.661866 71.908513 116.661866 
z
" clip-path="url(#pa55dd14a57)" style="stroke: #000000"/>
    <path d="M 62.675533 99.869426 
C 62.98056 99.869426 63.273135 99.748238 63.488821 99.532551 
C 63.704508 99.316865 63.825696 99.02429 63.825696 98.719263 
C 63.825696 98.414236 63.704508 98.121661 63.488821 97.905975 
C 63.273135 97.690288 62.98056 97.5691 62.675533 97.5691 
C 62.370506 97.5691 62.077931 97.690288 61.862245 97.905975 
C 61.646558 98.121661 61.52537 98.414236 61.52537 98.719263 
C 61.52537 99.02429 61.646558 99.316865 61.862245 99.532551 
C 62.077931 99.748238 62.370506 99.869426 62.675533 99.869426 
z
" clip-path="url(#pa55dd14a57)" style="stroke: #000000"/>
    <path d="M 59.874362 81.126992 
C 60.006964 81.126992 60.134152 81.074309 60.227916 80.980545 
C 60.321679 80.886782 60.374362 80.759593 60.374362 80.626992 
C 60.374362 80.49439 60.321679 80.367202 60.227916 80.273438 
C 60.134152 80.179675 60.006964 80.126992 59.874362 80.126992 
C 59.741761 80.126992 59.614572 80.179675 59.520809 80.273438 
C 59.427045 80.367202 59.374362 80.49439 59.374362 80.626992 
C 59.374362 80.759593 59.427045 80.886782 59.520809 80.980545 
C 59.614572 81.074309 59.741761 81.126992 59.874362 81.126992 
z
" clip-path="url(#pa55dd14a57)" style="stroke: #000000"/>
    <path d="M 69.537406 125.634063 
C 69.695097 125.634063 69.84635 125.571411 69.957854 125.459907 
C 70.069358 125.348403 70.132009 125.19715 70.132009 125.039459 
C 70.132009 124.881768 70.069358 124.730515 69.957854 124.619011 
C 69.84635 124.507507 69.695097 124.444855 69.537406 124.444855 
C 69.379715 124.444855 69.228462 124.507507 69.116958 124.619011 
C 69.005454 124.730515 68.942802 124.881768 68.942802 125.039459 
C 68.942802 125.19715 69.005454 125.348403 69.116958 125.459907 
C 69.228462 125.571411 69.379715 125.634063 69.537406 125.634063 
z
" clip-path="url(#pa55dd14a57)" style="stroke: #000000"/>
    <path d="M 65.655204 135.799542 
C 66.024255 135.799542 66.37824 135.652916 66.639199 135.391958 
C 66.900157 135.130999 67.046783 134.777014 67.046783 134.407963 
C 67.046783 134.038912 66.900157 133.684926 66.639199 133.423968 
C 66.37824 133.163009 66.024255 133.016384 65.655204 133.016384 
C 65.286153 133.016384 64.932168 133.163009 64.671209 133.423968 
C 64.410251 133.684926 64.263625 134.038912 64.263625 134.407963 
C 64.263625 134.777014 64.410251 135.130999 64.671209 135.391958 
C 64.932168 135.652916 65.286153 135.799542 65.655204 135.799542 
z
" clip-path="url(#pa55dd14a57)" style="stroke: #000000"/>
    <path d="M 59.907971 121.429287 
C 60.295567 121.429287 60.66734 121.275294 60.941412 121.001222 
C 61.215484 120.72715 61.369477 120.355377 61.369477 119.967781 
C 61.369477 119.580185 61.215484 119.208412 60.941412 118.93434 
C 60.66734 118.660268 60.295567 118.506275 59.907971 118.506275 
C 59.520375 118.506275 59.148602 118.660268 58.87453 118.93434 
C 58.600458 119.208412 58.446465 119.580185 58.446465 119.967781 
C 58.446465 120.355377 58.600458 120.72715 58.87453 121.001222 
C 59.148602 121.275294 59.520375 121.429287 59.907971 121.429287 
z
" clip-path="url(#pa55dd14a57)" style="stroke: #000000"/>
    <path d="M 60.692957 134.368933 
C 60.825559 134.368933 60.952747 134.31625 61.046511 134.222486 
C 61.140274 134.128723 61.192957 134.001534 61.192957 133.868933 
C 61.192957 133.736331 61.140274 133.609143 61.046511 133.515379 
C 60.952747 133.421616 60.825559 133.368933 60.692957 133.368933 
C 60.560356 133.368933 60.433167 133.421616 60.339404 133.515379 
C 60.24564 133.609143 60.192957 133.736331 60.192957 133.868933 
C 60.192957 134.001534 60.24564 134.128723 60.339404 134.222486 
C 60.433167 134.31625 60.560356 134.368933 60.692957 134.368933 
z
" clip-path="url(#pa55dd14a57)" style="stroke: #000000"/>
   </g>
   <g id="matplotlib.axis_1">
    <g id="xtick_1">
     <g id="line2d_1">
      <defs>
       <path id="ma5fc57a248" d="M 0 0 
L 0 3.5 
" style="stroke: #000000; stroke-width: 0.8"/>
      </defs>
      <g>
       <use xlink:href="#ma5fc57a248" x="18" y="189" style="stroke: #000000; stroke-width: 0.8"/>
      </g>
     </g>
     <g id="text_1">
      <!-- −10 -->
      <g transform="translate(7.447656 203.598437)scale(0.1 -0.1)">
       <defs>
        <path id="DejaVuSans-2212" d="M 678 2272 
L 4684 2272 
L 4684 1741 
L 678 1741 
L 678 2272 
z
" transform="scale(0.015625)"/>
        <path id="DejaVuSans-31" d="M 794 531 
L 1825 531 
L 1825 4091 
L 703 3866 
L 703 4441 
L 1819 4666 
L 2450 4666 
L 2450 531 
L 3481 531 
L 3481 0 
L 794 0 
L 794 531 
z
" transform="scale(0.015625)"/>
        <path id="DejaVuSans-30" d="M 2034 4250 
Q 1547 4250 1301 3770 
Q 1056 3291 1056 2328 
Q 1056 1369 1301 889 
Q 1547 409 2034 409 
Q 2525 409 2770 889 
Q 3016 1369 3016 2328 
Q 3016 3291 2770 3770 
Q 2525 4250 2034 4250 
z
M 2034 4750 
Q 2819 4750 3233 4129 
Q 3647 3509 3647 2328 
Q 3647 1150 3233 529 
Q 2819 -91 2034 -91 
Q 1250 -91 836 529 
Q 422 1150 422 2328 
Q 422 3509 836 4129 
Q 1250 4750 2034 4750 
z
" transform="scale(0.015625)"/>
       </defs>
       <use xlink:href="#DejaVuSans-2212"/>
       <use xlink:href="#DejaVuSans-31" x="83.789062"/>
       <use xlink:href="#DejaVuSans-30" x="147.412109"/>
      </g>
     </g>
    </g>
    <g id="xtick_2">
     <g id="line2d_2">
      <g>
       <use xlink:href="#ma5fc57a248" x="73.8" y="189" style="stroke: #000000; stroke-width: 0.8"/>
      </g>
     </g>
     <g id="text_2">
      <!-- 0 -->
      <g transform="translate(70.61875 203.598437)scale(0.1 -0.1)">
       <use xlink:href="#DejaVuSans-30"/>
      </g>
     </g>
    </g>
    <g id="xtick_3">
     <g id="line2d_3">
      <g>
       <use xlink:href="#ma5fc57a248" x="129.6" y="189" style="stroke: #000000; stroke-width: 0.8"/>
      </g>
     </g>
     <g id="text_3">
      <!-- 10 -->
      <g transform="translate(123.2375 203.598437)scale(0.1 -0.1)">
       <use xlink:href="#DejaVuSans-31"/>
       <use xlink:href="#DejaVuSans-30" x="63.623047"/>
      </g>
     </g>
    </g>
   </g>
   <g id="matplotlib.axis_2">
    <g id="ytick_1">
     <g id="line2d_4">
      <defs>
       <path id="mffbd3ce25c" d="M 0 0 
L -3.5 0 
" style="stroke: #000000; stroke-width: 0.8"/>
      </defs>
      <g>
       <use xlink:href="#mffbd3ce25c" x="18" y="189" style="stroke: #000000; stroke-width: 0.8"/>
      </g>
     </g>
     <g id="text_4">
      <!-- −15 -->
      <g transform="translate(-10.104688 192.799219)scale(0.1 -0.1)">
       <defs>
        <path id="DejaVuSans-35" d="M 691 4666 
L 3169 4666 
L 3169 4134 
L 1269 4134 
L 1269 2991 
Q 1406 3038 1543 3061 
Q 1681 3084 1819 3084 
Q 2600 3084 3056 2656 
Q 3513 2228 3513 1497 
Q 3513 744 3044 326 
Q 2575 -91 1722 -91 
Q 1428 -91 1123 -41 
Q 819 9 494 109 
L 494 744 
Q 775 591 1075 516 
Q 1375 441 1709 441 
Q 2250 441 2565 725 
Q 2881 1009 2881 1497 
Q 2881 1984 2565 2268 
Q 2250 2553 1709 2553 
Q 1456 2553 1204 2497 
Q 953 2441 691 2322 
L 691 4666 
z
" transform="scale(0.015625)"/>
       </defs>
       <use xlink:href="#DejaVuSans-2212"/>
       <use xlink:href="#DejaVuSans-31" x="83.789062"/>
       <use xlink:href="#DejaVuSans-35" x="147.412109"/>
      </g>
     </g>
    </g>
    <g id="ytick_2">
     <g id="line2d_5">
      <g>
       <use xlink:href="#mffbd3ce25c" x="18" y="161.82" style="stroke: #000000; stroke-width: 0.8"/>
      </g>
     </g>
     <g id="text_5">
      <!-- −10 -->
      <g transform="translate(-10.104688 165.619219)scale(0.1 -0.1)">
       <use xlink:href="#DejaVuSans-2212"/>
       <use xlink:href="#DejaVuSans-31" x="83.789062"/>
       <use xlink:href="#DejaVuSans-30" x="147.412109"/>
      </g>
     </g>
    </g>
    <g id="ytick_3">
     <g id="line2d_6">
      <g>
       <use xlink:href="#mffbd3ce25c" x="18" y="134.64" style="stroke: #000000; stroke-width: 0.8"/>
      </g>
     </g>
     <g id="text_6">
      <!-- −5 -->
      <g transform="translate(-3.742188 138.439219)scale(0.1 -0.1)">
       <use xlink:href="#DejaVuSans-2212"/>
       <use xlink:href="#DejaVuSans-35" x="83.789062"/>
      </g>
     </g>
    </g>
    <g id="ytick_4">
     <g id="line2d_7">
      <g>
       <use xlink:href="#mffbd3ce25c" x="18" y="107.46" style="stroke: #000000; stroke-width: 0.8"/>
      </g>
     </g>
     <g id="text_7">
      <!-- 0 -->
      <g transform="translate(4.6375 111.259219)scale(0.1 -0.1)">
       <use xlink:href="#DejaVuSans-30"/>
      </g>
     </g>
    </g>
    <g id="ytick_5">
     <g id="line2d_8">
      <g>
       <use xlink:href="#mffbd3ce25c" x="18" y="80.28" style="stroke: #000000; stroke-width: 0.8"/>
      </g>
     </g>
     <g id="text_8">
      <!-- 5 -->
      <g transform="translate(4.6375 84.079219)scale(0.1 -0.1)">
       <use xlink:href="#DejaVuSans-35"/>
      </g>
     </g>
    </g>
    <g id="ytick_6">
     <g id="line2d_9">
      <g>
       <use xlink:href="#mffbd3ce25c" x="18" y="53.1" style="stroke: #000000; stroke-width: 0.8"/>
      </g>
     </g>
     <g id="text_9">
      <!-- 10 -->
      <g transform="translate(-1.725 56.899219)scale(0.1 -0.1)">
       <use xlink:href="#DejaVuSans-31"/>
       <use xlink:href="#DejaVuSans-30" x="63.623047"/>
      </g>
     </g>
    </g>
    <g id="ytick_7">
     <g id="line2d_10">
      <g>
       <use xlink:href="#mffbd3ce25c" x="18" y="25.92" style="stroke: #000000; stroke-width: 0.8"/>
      </g>
     </g>
     <g id="text_10">
      <!-- 15 -->
      <g transform="translate(-1.725 29.719219)scale(0.1 -0.1)">
       <use xlink:href="#DejaVuSans-31"/>
       <use xlink:href="#DejaVuSans-35" x="63.623047"/>
      </g>
     </g>
    </g>
   </g>
   <g id="patch_3">
    <path d="M 18 189 
L 18 25.92 
" style="fill: none; stroke: #000000; stroke-width: 0.8; stroke-linejoin: miter; stroke-linecap: square"/>
   </g>
   <g id="patch_4">
    <path d="M 129.6 189 
L 129.6 25.92 
" style="fill: none; stroke: #000000; stroke-width: 0.8; stroke-linejoin: miter; stroke-linecap: square"/>
   </g>
   <g id="patch_5">
    <path d="M 18 189 
L 129.6 189 
" style="fill: none; stroke: #000000; stroke-width: 0.8; stroke-linejoin: miter; stroke-linecap: square"/>
   </g>
   <g id="patch_6">
    <path d="M 18 25.92 
L 129.6 25.92 
" style="fill: none; stroke: #000000; stroke-width: 0.8; stroke-linejoin: miter; stroke-linecap: square"/>
   </g>
  </g>
 </g>
 <defs>
  <clipPath id="pa55dd14a57">
   <rect x="18" y="25.92" width="111.6" height="163.08"/>
  </clipPath>
 </defs>
</svg>
