<?xml version="1.0" encoding="utf-8" standalone="no"?>
<!DOCTYPE svg PUBLIC "-//W3C//DTD SVG 1.1//EN"
  "http://www.w3.org/Graphics/SVG/1.1/DTD/svg11.dtd">
<svg xmlns:xlink="http://www.w3.org/1999/xlink" width="144pt" height="216pt" viewBox="0 0 144 216" xmlns="http://www.w3.org/2000/svg" version="1.1">
 <metadata>
  <rdf:RDF xmlns:dc="http://purl.org/dc/elements/1.1/" xmlns:cc="http://creativecommons.org/ns#" xmlns:rdf="http://www.w3.org/1999/02/22-rdf-syntax-ns#">
   <cc:Work>
    <dc:type rdf:resource="http://purl.org/dc/dcmitype/StillImage"/>
    <dc:date>2022-06-23T14:45:33.896099</dc:date>
    <dc:format>image/svg+xml</dc:format>
    <dc:creator>
     <cc:Agent>
      <dc:title>Matplotlib v3.5.1, https://matplotlib.org/</dc:title>
     </cc:Agent>
    </dc:creator>
   </cc:Work>
  </rdf:RDF>
 </metadata>
 <defs>
  <style type="text/css">*{stroke-linejoin: round; stroke-linecap: butt}</style>
 </defs>
 <g id="figure_1">
  <g id="patch_1">
   <path d="M 0 216 
L 144 216 
L 144 0 
L 0 0 
L 0 216 
z
" style="fill: none"/>
  </g>
  <g id="axes_1">
   <g id="patch_2">
    <path d="M 18 189 
L 129.6 189 
L 129.6 25.92 
L 18 25.92 
z
" style="fill: #ffffff"/>
   </g>
   <g id="PathCollection_1">
    <defs>
     <path id="m39cab1ea6b" d="M 0 2.738613 
C 0.726289 2.738613 1.422928 2.450055 1.936492 1.936492 
C 2.450055 1.422928 2.738613 0.726289 2.738613 0 
C 2.738613 -0.726289 2.450055 -1.422928 1.936492 -1.936492 
C 1.422928 -2.450055 0.726289 -2.738613 0 -2.738613 
C -0.726289 -2.738613 -1.422928 -2.450055 -1.936492 -1.936492 
C -2.450055 -1.422928 -2.738613 -0.726289 -2.738613 0 
C -2.738613 0.726289 -2.450055 1.422928 -1.936492 1.936492 
C -1.422928 2.450055 -0.726289 2.738613 0 2.738613 
z
" style="stroke: #ff0000; stroke-width: 1.75"/>
    </defs>
    <g clip-path="url(#pe95fbc9587)">
     <use xlink:href="#m39cab1ea6b" x="80.775" y="83.92143" style="fill: #ff0000; stroke: #ff0000; stroke-width: 1.75"/>
     <use xlink:href="#m39cab1ea6b" x="59.85" y="95.690715" style="fill: #ff0000; stroke: #ff0000; stroke-width: 1.75"/>
     <use xlink:href="#m39cab1ea6b" x="66.825" y="107.46" style="fill: #ff0000; stroke: #ff0000; stroke-width: 1.75"/>
     <use xlink:href="#m39cab1ea6b" x="80.775" y="107.46" style="fill: #ff0000; stroke: #ff0000; stroke-width: 1.75"/>
     <use xlink:href="#m39cab1ea6b" x="94.725" y="107.46" style="fill: #ff0000; stroke: #ff0000; stroke-width: 1.75"/>
     <use xlink:href="#m39cab1ea6b" x="59.85" y="119.229285" style="fill: #ff0000; stroke: #ff0000; stroke-width: 1.75"/>
     <use xlink:href="#m39cab1ea6b" x="80.775" y="130.99857" style="fill: #ff0000; stroke: #ff0000; stroke-width: 1.75"/>
    </g>
   </g>
   <g id="PathCollection_2">
    <defs>
     <path id="C0_0_a289e2da23" d="M 0 2.738613 
C 0.726289 2.738613 1.422928 2.450055 1.936492 1.936492 
C 2.450055 1.422928 2.738613 0.726289 2.738613 -0 
C 2.738613 -0.726289 2.450055 -1.422928 1.936492 -1.936492 
C 1.422928 -2.450055 0.726289 -2.738613 0 -2.738613 
C -0.726289 -2.738613 -1.422928 -2.450055 -1.936492 -1.936492 
C -2.450055 -1.422928 -2.738613 -0.726289 -2.738613 0 
C -2.738613 0.726289 -2.450055 1.422928 -1.936492 1.936492 
C -1.422928 2.450055 -0.726289 2.738613 0 2.738613 
z
"/>
    </defs>
    <g clip-path="url(#pe95fbc9587)">
     <use xlink:href="#C0_0_a289e2da23" x="66.825" y="83.92143" style="fill: none; stroke: #ff0000; stroke-width: 1.75"/>
    </g>
    <g clip-path="url(#pe95fbc9587)">
     <use xlink:href="#C0_0_a289e2da23" x="73.8" y="95.690715" style="fill: none; stroke: #ff0000; stroke-width: 1.75"/>
    </g>
    <g clip-path="url(#pe95fbc9587)">
     <use xlink:href="#C0_0_a289e2da23" x="87.75" y="95.690715" style="fill: none; stroke: #ff0000; stroke-width: 1.75"/>
    </g>
    <g clip-path="url(#pe95fbc9587)">
     <use xlink:href="#C0_0_a289e2da23" x="52.875" y="107.46" style="fill: none; stroke: #ff0000; stroke-width: 1.75"/>
    </g>
    <g clip-path="url(#pe95fbc9587)">
     <use xlink:href="#C0_0_a289e2da23" x="73.8" y="119.229285" style="fill: none; stroke: #ff0000; stroke-width: 1.75"/>
    </g>
    <g clip-path="url(#pe95fbc9587)">
     <use xlink:href="#C0_0_a289e2da23" x="87.75" y="119.229285" style="fill: none; stroke: #ff0000; stroke-width: 1.75"/>
    </g>
    <g clip-path="url(#pe95fbc9587)">
     <use xlink:href="#C0_0_a289e2da23" x="66.825" y="130.99857" style="fill: none; stroke: #ff0000; stroke-width: 1.75"/>
    </g>
   </g>
   <g id="PathCollection_3">
    <path d="M 97.161736 111.824577 
C 97.735278 111.824577 98.285407 111.596706 98.690963 111.191151 
C 99.096519 110.785595 99.32439 110.235466 99.32439 109.661923 
C 99.32439 109.088381 99.096519 108.538252 98.690963 108.132696 
C 98.285407 107.72714 97.735278 107.49927 97.161736 107.49927 
C 96.588193 107.49927 96.038064 107.72714 95.632508 108.132696 
C 95.226953 108.538252 94.999082 109.088381 94.999082 109.661923 
C 94.999082 110.235466 95.226953 110.785595 95.632508 111.191151 
C 96.038064 111.596706 96.588193 111.824577 97.161736 111.824577 
z
" clip-path="url(#pe95fbc9587)" style="stroke: #000000"/>
    <path d="M 94.105186 109.588585 
C 94.448627 109.588585 94.778047 109.452135 95.020896 109.209286 
C 95.263746 108.966436 95.400196 108.637016 95.400196 108.293575 
C 95.400196 107.950135 95.263746 107.620714 95.020896 107.377865 
C 94.778047 107.135016 94.448627 106.998565 94.105186 106.998565 
C 93.761745 106.998565 93.432325 107.135016 93.189476 107.377865 
C 92.946626 107.620714 92.810176 107.950135 92.810176 108.293575 
C 92.810176 108.637016 92.946626 108.966436 93.189476 109.209286 
C 93.432325 109.452135 93.761745 109.588585 94.105186 109.588585 
z
" clip-path="url(#pe95fbc9587)" style="stroke: #000000"/>
    <path d="M 90.081174 98.556058 
C 90.472693 98.556058 90.848228 98.400506 91.125073 98.123661 
C 91.401918 97.846816 91.55747 97.47128 91.55747 97.079762 
C 91.55747 96.688244 91.401918 96.312709 91.125073 96.035863 
C 90.848228 95.759018 90.472693 95.603466 90.081174 95.603466 
C 89.689656 95.603466 89.314121 95.759018 89.037276 96.035863 
C 88.76043 96.312709 88.604878 96.688244 88.604878 97.079762 
C 88.604878 97.47128 88.76043 97.846816 89.037276 98.123661 
C 89.314121 98.400506 89.689656 98.556058 90.081174 98.556058 
z
" clip-path="url(#pe95fbc9587)" style="stroke: #000000"/>
    <path d="M 85.660089 86.637888 
C 85.933217 86.637888 86.195195 86.529373 86.388326 86.336242 
C 86.581457 86.143112 86.689972 85.881133 86.689972 85.608005 
C 86.689972 85.334877 86.581457 85.072898 86.388326 84.879767 
C 86.195195 84.686636 85.933217 84.578121 85.660089 84.578121 
C 85.38696 84.578121 85.124982 84.686636 84.931851 84.879767 
C 84.73872 85.072898 84.630205 85.334877 84.630205 85.608005 
C 84.630205 85.881133 84.73872 86.143112 84.931851 86.336242 
C 85.124982 86.529373 85.38696 86.637888 85.660089 86.637888 
z
" clip-path="url(#pe95fbc9587)" style="stroke: #000000"/>
    <path d="M 92.390253 119.967946 
C 92.667098 119.967946 92.932642 119.857954 93.128401 119.662195 
C 93.32416 119.466436 93.434152 119.200893 93.434152 118.924047 
C 93.434152 118.647202 93.32416 118.381659 93.128401 118.185899 
C 92.932642 117.99014 92.667098 117.880149 92.390253 117.880149 
C 92.113408 117.880149 91.847864 117.99014 91.652105 118.185899 
C 91.456346 118.381659 91.346354 118.647202 91.346354 118.924047 
C 91.346354 119.200893 91.456346 119.466436 91.652105 119.662195 
C 91.847864 119.857954 92.113408 119.967946 92.390253 119.967946 
z
" clip-path="url(#pe95fbc9587)" style="stroke: #000000"/>
    <path d="M 83.9099 88.848771 
C 84.394243 88.848771 84.858815 88.656339 85.201297 88.313856 
C 85.54378 87.971374 85.736212 87.506802 85.736212 87.022459 
C 85.736212 86.538115 85.54378 86.073544 85.201297 85.731061 
C 84.858815 85.388578 84.394243 85.196147 83.9099 85.196147 
C 83.425556 85.196147 82.960985 85.388578 82.618502 85.731061 
C 82.276019 86.073544 82.083588 86.538115 82.083588 87.022459 
C 82.083588 87.506802 82.276019 87.971374 82.618502 88.313856 
C 82.960985 88.656339 83.425556 88.848771 83.9099 88.848771 
z
" clip-path="url(#pe95fbc9587)" style="stroke: #000000"/>
    <path d="M 80.249141 84.293504 
C 80.495941 84.293504 80.732665 84.195449 80.907178 84.020936 
C 81.081692 83.846423 81.179746 83.609698 81.179746 83.362899 
C 81.179746 83.1161 81.081692 82.879375 80.907178 82.704862 
C 80.732665 82.530349 80.495941 82.432294 80.249141 82.432294 
C 80.002342 82.432294 79.765618 82.530349 79.591104 82.704862 
C 79.416591 82.879375 79.318537 83.1161 79.318537 83.362899 
C 79.318537 83.609698 79.416591 83.846423 79.591104 84.020936 
C 79.765618 84.195449 80.002342 84.293504 80.249141 84.293504 
z
" clip-path="url(#pe95fbc9587)" style="stroke: #000000"/>
    <path d="M 88.272579 116.614815 
C 88.606055 116.614815 88.925917 116.482324 89.161719 116.246521 
C 89.397522 116.010719 89.530013 115.690857 89.530013 115.357382 
C 89.530013 115.023906 89.397522 114.704044 89.161719 114.468242 
C 88.925917 114.232439 88.606055 114.099948 88.272579 114.099948 
C 87.939104 114.099948 87.619242 114.232439 87.38344 114.468242 
C 87.147637 114.704044 87.015146 115.023906 87.015146 115.357382 
C 87.015146 115.690857 87.147637 116.010719 87.38344 116.246521 
C 87.619242 116.482324 87.939104 116.614815 88.272579 116.614815 
z
" clip-path="url(#pe95fbc9587)" style="stroke: #000000"/>
    <path d="M 83.880597 107.872537 
C 84.446619 107.872537 84.989534 107.647655 85.389772 107.247417 
C 85.79001 106.847179 86.014893 106.304264 86.014893 105.738242 
C 86.014893 105.17222 85.79001 104.629305 85.389772 104.229067 
C 84.989534 103.828829 84.446619 103.603947 83.880597 103.603947 
C 83.314575 103.603947 82.77166 103.828829 82.371422 104.229067 
C 81.971185 104.629305 81.746302 105.17222 81.746302 105.738242 
C 81.746302 106.304264 81.971185 106.847179 82.371422 107.247417 
C 82.77166 107.647655 83.314575 107.872537 83.880597 107.872537 
z
" clip-path="url(#pe95fbc9587)" style="stroke: #000000"/>
    <path d="M 79.383954 92.162375 
C 79.571481 92.162375 79.751352 92.08787 79.883954 91.955268 
C 80.016555 91.822666 80.091061 91.642795 80.091061 91.455268 
C 80.091061 91.267741 80.016555 91.08787 79.883954 90.955268 
C 79.751352 90.822666 79.571481 90.748161 79.383954 90.748161 
C 79.196427 90.748161 79.016555 90.822666 78.883954 90.955268 
C 78.751352 91.08787 78.676847 91.267741 78.676847 91.455268 
C 78.676847 91.642795 78.751352 91.822666 78.883954 91.955268 
C 79.016555 92.08787 79.196427 92.162375 79.383954 92.162375 
z
" clip-path="url(#pe95fbc9587)" style="stroke: #000000"/>
    <path d="M 99.637051 164.655054 
C 99.769652 164.655054 99.89684 164.602371 99.990604 164.508607 
C 100.084367 164.414844 100.137051 164.287655 100.137051 164.155054 
C 100.137051 164.022452 100.084367 163.895264 99.990604 163.801501 
C 99.89684 163.707737 99.769652 163.655054 99.637051 163.655054 
C 99.504449 163.655054 99.377261 163.707737 99.283497 163.801501 
C 99.189734 163.895264 99.137051 164.022452 99.137051 164.155054 
C 99.137051 164.287655 99.189734 164.414844 99.283497 164.508607 
C 99.377261 164.602371 99.504449 164.655054 99.637051 164.655054 
z
" clip-path="url(#pe95fbc9587)" style="stroke: #000000"/>
    <path d="M 85.970947 119.524046 
C 86.288764 119.524046 86.593607 119.397776 86.818337 119.173046 
C 87.043068 118.948315 87.169338 118.643472 87.169338 118.325655 
C 87.169338 118.007838 87.043068 117.702996 86.818337 117.478265 
C 86.593607 117.253534 86.288764 117.127264 85.970947 117.127264 
C 85.65313 117.127264 85.348287 117.253534 85.123557 117.478265 
C 84.898826 117.702996 84.772556 118.007838 84.772556 118.325655 
C 84.772556 118.643472 84.898826 118.948315 85.123557 119.173046 
C 85.348287 119.397776 85.65313 119.524046 85.970947 119.524046 
z
" clip-path="url(#pe95fbc9587)" style="stroke: #000000"/>
    <path d="M 83.676369 115.858567 
C 83.83406 115.858567 83.985313 115.795915 84.096818 115.684411 
C 84.208322 115.572907 84.270973 115.421654 84.270973 115.263963 
C 84.270973 115.106272 84.208322 114.955019 84.096818 114.843515 
C 83.985313 114.732011 83.83406 114.669359 83.676369 114.669359 
C 83.518679 114.669359 83.367425 114.732011 83.255921 114.843515 
C 83.144417 114.955019 83.081766 115.106272 83.081766 115.263963 
C 83.081766 115.421654 83.144417 115.572907 83.255921 115.684411 
C 83.367425 115.795915 83.518679 115.858567 83.676369 115.858567 
z
" clip-path="url(#pe95fbc9587)" style="stroke: #000000"/>
    <path d="M 80.210445 109.102267 
C 80.680569 109.102267 81.131502 108.915484 81.46393 108.583056 
C 81.796358 108.250628 81.983141 107.799695 81.983141 107.329571 
C 81.983141 106.859446 81.796358 106.408514 81.46393 106.076085 
C 81.131502 105.743657 80.680569 105.556875 80.210445 105.556875 
C 79.74032 105.556875 79.289388 105.743657 78.956959 106.076085 
C 78.624531 106.408514 78.437749 106.859446 78.437749 107.329571 
C 78.437749 107.799695 78.624531 108.250628 78.956959 108.583056 
C 79.289388 108.915484 79.74032 109.102267 80.210445 109.102267 
z
" clip-path="url(#pe95fbc9587)" style="stroke: #000000"/>
    <path d="M 75.139463 95.894366 
C 75.717859 95.894366 76.272644 95.664567 76.681632 95.255579 
C 77.090621 94.84659 77.32042 94.291806 77.32042 93.713409 
C 77.32042 93.135012 77.090621 92.580227 76.681632 92.171239 
C 76.272644 91.762251 75.717859 91.532452 75.139463 91.532452 
C 74.561066 91.532452 74.006281 91.762251 73.597293 92.171239 
C 73.188305 92.580227 72.958505 93.135012 72.958505 93.713409 
C 72.958505 94.291806 73.188305 94.84659 73.597293 95.255579 
C 74.006281 95.664567 74.561066 95.894366 75.139463 95.894366 
z
" clip-path="url(#pe95fbc9587)" style="stroke: #000000"/>
    <path d="M 84.045461 134.633593 
C 84.26847 134.633593 84.482374 134.544991 84.640065 134.3873 
C 84.797756 134.229609 84.886358 134.015705 84.886358 133.792697 
C 84.886358 133.569688 84.797756 133.355784 84.640065 133.198093 
C 84.482374 133.040402 84.26847 132.9518 84.045461 132.9518 
C 83.822453 132.9518 83.608548 133.040402 83.450858 133.198093 
C 83.293167 133.355784 83.204565 133.569688 83.204565 133.792697 
C 83.204565 134.015705 83.293167 134.229609 83.450858 134.3873 
C 83.608548 134.544991 83.822453 134.633593 84.045461 134.633593 
z
" clip-path="url(#pe95fbc9587)" style="stroke: #000000"/>
    <path d="M 83.563194 132.028871 
C 83.971617 132.028871 84.363366 131.866603 84.652164 131.577805 
C 84.940962 131.289007 85.10323 130.897258 85.10323 130.488836 
C 85.10323 130.080414 84.940962 129.688665 84.652164 129.399867 
C 84.363366 129.111069 83.971617 128.948801 83.563194 128.948801 
C 83.154772 128.948801 82.763023 129.111069 82.474225 129.399867 
C 82.185427 129.688665 82.023159 130.080414 82.023159 130.488836 
C 82.023159 130.897258 82.185427 131.289007 82.474225 131.577805 
C 82.763023 131.866603 83.154772 132.028871 83.563194 132.028871 
z
" clip-path="url(#pe95fbc9587)" style="stroke: #000000"/>
    <path d="M 79.517801 123.941166 
C 79.650402 123.941166 79.777591 123.888483 79.871354 123.794719 
C 79.965118 123.700956 80.017801 123.573767 80.017801 123.441166 
C 80.017801 123.308564 79.965118 123.181376 79.871354 123.087613 
C 79.777591 122.993849 79.650402 122.941166 79.517801 122.941166 
C 79.385199 122.941166 79.258011 122.993849 79.164247 123.087613 
C 79.070484 123.181376 79.017801 123.308564 79.017801 123.441166 
C 79.017801 123.573767 79.070484 123.700956 79.164247 123.794719 
C 79.258011 123.888483 79.385199 123.941166 79.517801 123.941166 
z
" clip-path="url(#pe95fbc9587)" style="stroke: #000000"/>
    <path d="M 75.045653 108.360806 
C 75.203343 108.360806 75.354597 108.298154 75.466101 108.18665 
C 75.577605 108.075146 75.640256 107.923893 75.640256 107.766202 
C 75.640256 107.608511 75.577605 107.457258 75.466101 107.345754 
C 75.354597 107.23425 75.203343 107.171599 75.045653 107.171599 
C 74.887962 107.171599 74.736709 107.23425 74.625204 107.345754 
C 74.5137 107.457258 74.451049 107.608511 74.451049 107.766202 
C 74.451049 107.923893 74.5137 108.075146 74.625204 108.18665 
C 74.736709 108.298154 74.887962 108.360806 75.045653 108.360806 
z
" clip-path="url(#pe95fbc9587)" style="stroke: #000000"/>
    <path d="M 74.634413 98.868861 
C 74.767014 98.868861 74.894203 98.816178 74.987966 98.722414 
C 75.081729 98.628651 75.134413 98.501463 75.134413 98.368861 
C 75.134413 98.236259 75.081729 98.109071 74.987966 98.015308 
C 74.894203 97.921544 74.767014 97.868861 74.634413 97.868861 
C 74.501811 97.868861 74.374623 97.921544 74.280859 98.015308 
C 74.187096 98.109071 74.134413 98.236259 74.134413 98.368861 
C 74.134413 98.501463 74.187096 98.628651 74.280859 98.722414 
C 74.374623 98.816178 74.501811 98.868861 74.634413 98.868861 
z
" clip-path="url(#pe95fbc9587)" style="stroke: #000000"/>
    <path d="M 72.099254 95.247001 
C 72.586963 95.247001 73.054763 95.053232 73.399626 94.708369 
C 73.744489 94.363507 73.938258 93.895707 73.938258 93.407997 
C 73.938258 92.920287 73.744489 92.452487 73.399626 92.107624 
C 73.054763 91.762762 72.586963 91.568992 72.099254 91.568992 
C 71.611544 91.568992 71.143744 91.762762 70.798881 92.107624 
C 70.454018 92.452487 70.260249 92.920287 70.260249 93.407997 
C 70.260249 93.895707 70.454018 94.363507 70.798881 94.708369 
C 71.143744 95.053232 71.611544 95.247001 72.099254 95.247001 
z
" clip-path="url(#pe95fbc9587)" style="stroke: #000000"/>
    <path d="M 67.590059 89.052193 
C 68.079755 89.052193 68.54946 88.857634 68.895728 88.511367 
C 69.241996 88.165099 69.436554 87.695394 69.436554 87.205697 
C 69.436554 86.716001 69.241996 86.246296 68.895728 85.900028 
C 68.54946 85.55376 68.079755 85.359202 67.590059 85.359202 
C 67.100362 85.359202 66.630657 85.55376 66.284389 85.900028 
C 65.938122 86.246296 65.743563 86.716001 65.743563 87.205697 
C 65.743563 87.695394 65.938122 88.165099 66.284389 88.511367 
C 66.630657 88.857634 67.100362 89.052193 67.590059 89.052193 
z
" clip-path="url(#pe95fbc9587)" style="stroke: #000000"/>
    <path d="M 65.948755 86.734231 
C 66.428265 86.734231 66.8882 86.54372 67.227264 86.204655 
C 67.566329 85.865591 67.75684 85.405656 67.75684 84.926146 
C 67.75684 84.446636 67.566329 83.986701 67.227264 83.647636 
C 66.8882 83.308571 66.428265 83.11806 65.948755 83.11806 
C 65.469245 83.11806 65.00931 83.308571 64.670245 83.647636 
C 64.33118 83.986701 64.140669 84.446636 64.140669 84.926146 
C 64.140669 85.405656 64.33118 85.865591 64.670245 86.204655 
C 65.00931 86.54372 65.469245 86.734231 65.948755 86.734231 
z
" clip-path="url(#pe95fbc9587)" style="stroke: #000000"/>
    <path d="M 63.066737 73.149625 
C 63.199338 73.149625 63.326527 73.096942 63.42029 73.003179 
C 63.514054 72.909415 63.566737 72.782227 63.566737 72.649625 
C 63.566737 72.517024 63.514054 72.389835 63.42029 72.296072 
C 63.326527 72.202309 63.199338 72.149625 63.066737 72.149625 
C 62.934135 72.149625 62.806947 72.202309 62.713183 72.296072 
C 62.61942 72.389835 62.566737 72.517024 62.566737 72.649625 
C 62.566737 72.782227 62.61942 72.909415 62.713183 73.003179 
C 62.806947 73.096942 62.934135 73.149625 63.066737 73.149625 
z
" clip-path="url(#pe95fbc9587)" style="stroke: #000000"/>
    <path d="M 80.700023 136.438253 
C 81.02255 136.438253 81.33191 136.310112 81.559971 136.082051 
C 81.788032 135.85399 81.916173 135.54463 81.916173 135.222103 
C 81.916173 134.899577 81.788032 134.590216 81.559971 134.362156 
C 81.33191 134.134095 81.02255 134.005954 80.700023 134.005954 
C 80.377497 134.005954 80.068136 134.134095 79.840076 134.362156 
C 79.612015 134.590216 79.483874 134.899577 79.483874 135.222103 
C 79.483874 135.54463 79.612015 135.85399 79.840076 136.082051 
C 80.068136 136.310112 80.377497 136.438253 80.700023 136.438253 
z
" clip-path="url(#pe95fbc9587)" style="stroke: #000000"/>
    <path d="M 80.414054 132.114687 
C 80.929321 132.114687 81.423554 131.909969 81.787902 131.54562 
C 82.152251 131.181271 82.356969 130.687039 82.356969 130.171772 
C 82.356969 129.656505 82.152251 129.162273 81.787902 128.797924 
C 81.423554 128.433575 80.929321 128.228857 80.414054 128.228857 
C 79.898787 128.228857 79.404555 128.433575 79.040206 128.797924 
C 78.675858 129.162273 78.47114 129.656505 78.47114 130.171772 
C 78.47114 130.687039 78.675858 131.181271 79.040206 131.54562 
C 79.404555 131.909969 79.898787 132.114687 80.414054 132.114687 
z
" clip-path="url(#pe95fbc9587)" style="stroke: #000000"/>
    <path d="M 76.501318 124.972284 
C 76.633919 124.972284 76.761108 124.919601 76.854871 124.825837 
C 76.948635 124.732074 77.001318 124.604885 77.001318 124.472284 
C 77.001318 124.339682 76.948635 124.212494 76.854871 124.11873 
C 76.761108 124.024967 76.633919 123.972284 76.501318 123.972284 
C 76.368716 123.972284 76.241528 124.024967 76.147764 124.11873 
C 76.054001 124.212494 76.001318 124.339682 76.001318 124.472284 
C 76.001318 124.604885 76.054001 124.732074 76.147764 124.825837 
C 76.241528 124.919601 76.368716 124.972284 76.501318 124.972284 
z
" clip-path="url(#pe95fbc9587)" style="stroke: #000000"/>
    <path d="M 72.392261 115.025337 
C 72.524863 115.025337 72.652051 114.972653 72.745815 114.87889 
C 72.839578 114.785127 72.892261 114.657938 72.892261 114.525337 
C 72.892261 114.392735 72.839578 114.265547 72.745815 114.171783 
C 72.652051 114.07802 72.524863 114.025337 72.392261 114.025337 
C 72.25966 114.025337 72.132471 114.07802 72.038708 114.171783 
C 71.944944 114.265547 71.892261 114.392735 71.892261 114.525337 
C 71.892261 114.657938 71.944944 114.785127 72.038708 114.87889 
C 72.132471 114.972653 72.25966 115.025337 72.392261 115.025337 
z
" clip-path="url(#pe95fbc9587)" style="stroke: #000000"/>
    <path d="M 68.575789 106.658699 
C 68.980765 106.658699 69.369208 106.4978 69.655568 106.21144 
C 69.941929 105.925079 70.102827 105.536636 70.102827 105.131661 
C 70.102827 104.726685 69.941929 104.338243 69.655568 104.051882 
C 69.369208 103.765521 68.980765 103.604623 68.575789 103.604623 
C 68.170814 103.604623 67.782371 103.765521 67.496011 104.051882 
C 67.20965 104.338243 67.048751 104.726685 67.048751 105.131661 
C 67.048751 105.536636 67.20965 105.925079 67.496011 106.21144 
C 67.782371 106.4978 68.170814 106.658699 68.575789 106.658699 
z
" clip-path="url(#pe95fbc9587)" style="stroke: #000000"/>
    <path d="M 71.476046 124.879006 
C 71.633736 124.879006 71.78499 124.816355 71.896494 124.704851 
C 72.007998 124.593346 72.070649 124.442093 72.070649 124.284402 
C 72.070649 124.126712 72.007998 123.975458 71.896494 123.863954 
C 71.78499 123.75245 71.633736 123.689799 71.476046 123.689799 
C 71.318355 123.689799 71.167102 123.75245 71.055597 123.863954 
C 70.944093 123.975458 70.881442 124.126712 70.881442 124.284402 
C 70.881442 124.442093 70.944093 124.593346 71.055597 124.704851 
C 71.167102 124.816355 71.318355 124.879006 71.476046 124.879006 
z
" clip-path="url(#pe95fbc9587)" style="stroke: #000000"/>
    <path d="M 66.401929 111.97964 
C 66.750956 111.97964 67.085735 111.84097 67.332534 111.594171 
C 67.579333 111.347371 67.718003 111.012593 67.718003 110.663566 
C 67.718003 110.314539 67.579333 109.97976 67.332534 109.732961 
C 67.085735 109.486162 66.750956 109.347492 66.401929 109.347492 
C 66.052902 109.347492 65.718123 109.486162 65.471324 109.732961 
C 65.224525 109.97976 65.085855 110.314539 65.085855 110.663566 
C 65.085855 111.012593 65.224525 111.347371 65.471324 111.594171 
C 65.718123 111.84097 66.052902 111.97964 66.401929 111.97964 
z
" clip-path="url(#pe95fbc9587)" style="stroke: #000000"/>
    <path d="M 64.90069 108.619414 
C 65.211023 108.619414 65.508688 108.496118 65.728127 108.276679 
C 65.947566 108.057239 66.070863 107.759574 66.070863 107.449241 
C 66.070863 107.138907 65.947566 106.841242 65.728127 106.621803 
C 65.508688 106.402364 65.211023 106.279067 64.90069 106.279067 
C 64.590356 106.279067 64.292691 106.402364 64.073252 106.621803 
C 63.853813 106.841242 63.730516 107.138907 63.730516 107.449241 
C 63.730516 107.759574 63.853813 108.057239 64.073252 108.276679 
C 64.292691 108.496118 64.590356 108.619414 64.90069 108.619414 
z
" clip-path="url(#pe95fbc9587)" style="stroke: #000000"/>
    <path d="M 67.749584 131.766107 
C 67.937111 131.766107 68.116983 131.691602 68.249584 131.559 
C 68.382186 131.426399 68.456691 131.246527 68.456691 131.059 
C 68.456691 130.871473 68.382186 130.691602 68.249584 130.559 
C 68.116983 130.426399 67.937111 130.351894 67.749584 130.351894 
C 67.562057 130.351894 67.382186 130.426399 67.249584 130.559 
C 67.116983 130.691602 67.042477 130.871473 67.042477 131.059 
C 67.042477 131.246527 67.116983 131.426399 67.249584 131.559 
C 67.382186 131.691602 67.562057 131.766107 67.749584 131.766107 
z
" clip-path="url(#pe95fbc9587)" style="stroke: #000000"/>
    <path d="M 61.000198 104.356851 
C 61.157889 104.356851 61.309142 104.2942 61.420646 104.182695 
C 61.53215 104.071191 61.594801 103.919938 61.594801 103.762247 
C 61.594801 103.604556 61.53215 103.453303 61.420646 103.341799 
C 61.309142 103.230295 61.157889 103.167644 61.000198 103.167644 
C 60.842507 103.167644 60.691254 103.230295 60.57975 103.341799 
C 60.468245 103.453303 60.405594 103.604556 60.405594 103.762247 
C 60.405594 103.919938 60.468245 104.071191 60.57975 104.182695 
C 60.691254 104.2942 60.842507 104.356851 61.000198 104.356851 
z
" clip-path="url(#pe95fbc9587)" style="stroke: #000000"/>
    <path d="M 62.60315 130.49238 
C 63.013822 130.49238 63.40773 130.329218 63.698119 130.038829 
C 63.988508 129.74844 64.15167 129.354532 64.15167 128.94386 
C 64.15167 128.533187 63.988508 128.13928 63.698119 127.84889 
C 63.40773 127.558501 63.013822 127.395339 62.60315 127.395339 
C 62.192477 127.395339 61.79857 127.558501 61.50818 127.84889 
C 61.217791 128.13928 61.054629 128.533187 61.054629 128.94386 
C 61.054629 129.354532 61.217791 129.74844 61.50818 130.038829 
C 61.79857 130.329218 62.192477 130.49238 62.60315 130.49238 
z
" clip-path="url(#pe95fbc9587)" style="stroke: #000000"/>
    <path d="M 59.564859 125.086113 
C 60.146817 125.086113 60.705019 124.854899 61.116525 124.443392 
C 61.528032 124.031885 61.759247 123.473683 61.759247 122.891725 
C 61.759247 122.309766 61.528032 121.751565 61.116525 121.340058 
C 60.705019 120.928551 60.146817 120.697336 59.564859 120.697336 
C 58.9829 120.697336 58.424699 120.928551 58.013192 121.340058 
C 57.601685 121.751565 57.37047 122.309766 57.37047 122.891725 
C 57.37047 123.473683 57.601685 124.031885 58.013192 124.443392 
C 58.424699 124.854899 58.9829 125.086113 59.564859 125.086113 
z
" clip-path="url(#pe95fbc9587)" style="stroke: #000000"/>
    <path d="M 58.528714 120.438143 
C 58.925285 120.438143 59.305667 120.280584 59.586085 120.000166 
C 59.866503 119.719748 60.024063 119.339366 60.024063 118.942795 
C 60.024063 118.546223 59.866503 118.165841 59.586085 117.885423 
C 59.305667 117.605005 58.925285 117.447446 58.528714 117.447446 
C 58.132143 117.447446 57.751761 117.605005 57.471342 117.885423 
C 57.190924 118.165841 57.033365 118.546223 57.033365 118.942795 
C 57.033365 119.339366 57.190924 119.719748 57.471342 120.000166 
C 57.751761 120.280584 58.132143 120.438143 58.528714 120.438143 
z
" clip-path="url(#pe95fbc9587)" style="stroke: #000000"/>
    <path d="M 52.92418 107.509348 
C 53.420962 107.509348 53.897463 107.311975 54.24874 106.960698 
C 54.600018 106.60942 54.797391 106.132919 54.797391 105.636138 
C 54.797391 105.139357 54.600018 104.662855 54.24874 104.311578 
C 53.897463 103.960301 53.420962 103.762927 52.92418 103.762927 
C 52.427399 103.762927 51.950898 103.960301 51.599621 104.311578 
C 51.248343 104.662855 51.05097 105.139357 51.05097 105.636138 
C 51.05097 106.132919 51.248343 106.60942 51.599621 106.960698 
C 51.950898 107.311975 52.427399 107.509348 52.92418 107.509348 
z
" clip-path="url(#pe95fbc9587)" style="stroke: #000000"/>
    <path d="M 50.988768 110.094539 
C 51.272628 110.094539 51.544899 109.98176 51.745618 109.781041 
C 51.946337 109.580322 52.059116 109.30805 52.059116 109.024191 
C 52.059116 108.740331 51.946337 108.46806 51.745618 108.267341 
C 51.544899 108.066622 51.272628 107.953843 50.988768 107.953843 
C 50.704909 107.953843 50.432637 108.066622 50.231918 108.267341 
C 50.031199 108.46806 49.91842 108.740331 49.91842 109.024191 
C 49.91842 109.30805 50.031199 109.580322 50.231918 109.781041 
C 50.432637 109.98176 50.704909 110.094539 50.988768 110.094539 
z
" clip-path="url(#pe95fbc9587)" style="stroke: #000000"/>
    <path d="M 48.47409 132.940026 
C 48.606692 132.940026 48.73388 132.887343 48.827644 132.793579 
C 48.921407 132.699816 48.97409 132.572627 48.97409 132.440026 
C 48.97409 132.307424 48.921407 132.180236 48.827644 132.086472 
C 48.73388 131.992709 48.606692 131.940026 48.47409 131.940026 
C 48.341489 131.940026 48.2143 131.992709 48.120537 132.086472 
C 48.026773 132.180236 47.97409 132.307424 47.97409 132.440026 
C 47.97409 132.572627 48.026773 132.699816 48.120537 132.793579 
C 48.2143 132.887343 48.341489 132.940026 48.47409 132.940026 
z
" clip-path="url(#pe95fbc9587)" style="stroke: #000000"/>
   </g>
   <g id="matplotlib.axis_1">
    <g id="xtick_1">
     <g id="line2d_1">
      <defs>
       <path id="m0e6393d27c" d="M 0 0 
L 0 3.5 
" style="stroke: #000000; stroke-width: 0.8"/>
      </defs>
      <g>
       <use xlink:href="#m0e6393d27c" x="18" y="189" style="stroke: #000000; stroke-width: 0.8"/>
      </g>
     </g>
     <g id="text_1">
      <!-- −10 -->
      <g transform="translate(7.447656 203.598437)scale(0.1 -0.1)">
       <defs>
        <path id="DejaVuSans-2212" d="M 678 2272 
L 4684 2272 
L 4684 1741 
L 678 1741 
L 678 2272 
z
" transform="scale(0.015625)"/>
        <path id="DejaVuSans-31" d="M 794 531 
L 1825 531 
L 1825 4091 
L 703 3866 
L 703 4441 
L 1819 4666 
L 2450 4666 
L 2450 531 
L 3481 531 
L 3481 0 
L 794 0 
L 794 531 
z
" transform="scale(0.015625)"/>
        <path id="DejaVuSans-30" d="M 2034 4250 
Q 1547 4250 1301 3770 
Q 1056 3291 1056 2328 
Q 1056 1369 1301 889 
Q 1547 409 2034 409 
Q 2525 409 2770 889 
Q 3016 1369 3016 2328 
Q 3016 3291 2770 3770 
Q 2525 4250 2034 4250 
z
M 2034 4750 
Q 2819 4750 3233 4129 
Q 3647 3509 3647 2328 
Q 3647 1150 3233 529 
Q 2819 -91 2034 -91 
Q 1250 -91 836 529 
Q 422 1150 422 2328 
Q 422 3509 836 4129 
Q 1250 4750 2034 4750 
z
" transform="scale(0.015625)"/>
       </defs>
       <use xlink:href="#DejaVuSans-2212"/>
       <use xlink:href="#DejaVuSans-31" x="83.789062"/>
       <use xlink:href="#DejaVuSans-30" x="147.412109"/>
      </g>
     </g>
    </g>
    <g id="xtick_2">
     <g id="line2d_2">
      <g>
       <use xlink:href="#m0e6393d27c" x="73.8" y="189" style="stroke: #000000; stroke-width: 0.8"/>
      </g>
     </g>
     <g id="text_2">
      <!-- 0 -->
      <g transform="translate(70.61875 203.598437)scale(0.1 -0.1)">
       <use xlink:href="#DejaVuSans-30"/>
      </g>
     </g>
    </g>
    <g id="xtick_3">
     <g id="line2d_3">
      <g>
       <use xlink:href="#m0e6393d27c" x="129.6" y="189" style="stroke: #000000; stroke-width: 0.8"/>
      </g>
     </g>
     <g id="text_3">
      <!-- 10 -->
      <g transform="translate(123.2375 203.598437)scale(0.1 -0.1)">
       <use xlink:href="#DejaVuSans-31"/>
       <use xlink:href="#DejaVuSans-30" x="63.623047"/>
      </g>
     </g>
    </g>
   </g>
   <g id="matplotlib.axis_2">
    <g id="ytick_1">
     <g id="line2d_4">
      <defs>
       <path id="m3bf74c0f29" d="M 0 0 
L -3.5 0 
" style="stroke: #000000; stroke-width: 0.8"/>
      </defs>
      <g>
       <use xlink:href="#m3bf74c0f29" x="18" y="189" style="stroke: #000000; stroke-width: 0.8"/>
      </g>
     </g>
     <g id="text_4">
      <!-- −15 -->
      <g transform="translate(-10.104688 192.799219)scale(0.1 -0.1)">
       <defs>
        <path id="DejaVuSans-35" d="M 691 4666 
L 3169 4666 
L 3169 4134 
L 1269 4134 
L 1269 2991 
Q 1406 3038 1543 3061 
Q 1681 3084 1819 3084 
Q 2600 3084 3056 2656 
Q 3513 2228 3513 1497 
Q 3513 744 3044 326 
Q 2575 -91 1722 -91 
Q 1428 -91 1123 -41 
Q 819 9 494 109 
L 494 744 
Q 775 591 1075 516 
Q 1375 441 1709 441 
Q 2250 441 2565 725 
Q 2881 1009 2881 1497 
Q 2881 1984 2565 2268 
Q 2250 2553 1709 2553 
Q 1456 2553 1204 2497 
Q 953 2441 691 2322 
L 691 4666 
z
" transform="scale(0.015625)"/>
       </defs>
       <use xlink:href="#DejaVuSans-2212"/>
       <use xlink:href="#DejaVuSans-31" x="83.789062"/>
       <use xlink:href="#DejaVuSans-35" x="147.412109"/>
      </g>
     </g>
    </g>
    <g id="ytick_2">
     <g id="line2d_5">
      <g>
       <use xlink:href="#m3bf74c0f29" x="18" y="161.82" style="stroke: #000000; stroke-width: 0.8"/>
      </g>
     </g>
     <g id="text_5">
      <!-- −10 -->
      <g transform="translate(-10.104688 165.619219)scale(0.1 -0.1)">
       <use xlink:href="#DejaVuSans-2212"/>
       <use xlink:href="#DejaVuSans-31" x="83.789062"/>
       <use xlink:href="#DejaVuSans-30" x="147.412109"/>
      </g>
     </g>
    </g>
    <g id="ytick_3">
     <g id="line2d_6">
      <g>
       <use xlink:href="#m3bf74c0f29" x="18" y="134.64" style="stroke: #000000; stroke-width: 0.8"/>
      </g>
     </g>
     <g id="text_6">
      <!-- −5 -->
      <g transform="translate(-3.742188 138.439219)scale(0.1 -0.1)">
       <use xlink:href="#DejaVuSans-2212"/>
       <use xlink:href="#DejaVuSans-35" x="83.789062"/>
      </g>
     </g>
    </g>
    <g id="ytick_4">
     <g id="line2d_7">
      <g>
       <use xlink:href="#m3bf74c0f29" x="18" y="107.46" style="stroke: #000000; stroke-width: 0.8"/>
      </g>
     </g>
     <g id="text_7">
      <!-- 0 -->
      <g transform="translate(4.6375 111.259219)scale(0.1 -0.1)">
       <use xlink:href="#DejaVuSans-30"/>
      </g>
     </g>
    </g>
    <g id="ytick_5">
     <g id="line2d_8">
      <g>
       <use xlink:href="#m3bf74c0f29" x="18" y="80.28" style="stroke: #000000; stroke-width: 0.8"/>
      </g>
     </g>
     <g id="text_8">
      <!-- 5 -->
      <g transform="translate(4.6375 84.079219)scale(0.1 -0.1)">
       <use xlink:href="#DejaVuSans-35"/>
      </g>
     </g>
    </g>
    <g id="ytick_6">
     <g id="line2d_9">
      <g>
       <use xlink:href="#m3bf74c0f29" x="18" y="53.1" style="stroke: #000000; stroke-width: 0.8"/>
      </g>
     </g>
     <g id="text_9">
      <!-- 10 -->
      <g transform="translate(-1.725 56.899219)scale(0.1 -0.1)">
       <use xlink:href="#DejaVuSans-31"/>
       <use xlink:href="#DejaVuSans-30" x="63.623047"/>
      </g>
     </g>
    </g>
    <g id="ytick_7">
     <g id="line2d_10">
      <g>
       <use xlink:href="#m3bf74c0f29" x="18" y="25.92" style="stroke: #000000; stroke-width: 0.8"/>
      </g>
     </g>
     <g id="text_10">
      <!-- 15 -->
      <g transform="translate(-1.725 29.719219)scale(0.1 -0.1)">
       <use xlink:href="#DejaVuSans-31"/>
       <use xlink:href="#DejaVuSans-35" x="63.623047"/>
      </g>
     </g>
    </g>
   </g>
   <g id="patch_3">
    <path d="M 18 189 
L 18 25.92 
" style="fill: none; stroke: #000000; stroke-width: 0.8; stroke-linejoin: miter; stroke-linecap: square"/>
   </g>
   <g id="patch_4">
    <path d="M 129.6 189 
L 129.6 25.92 
" style="fill: none; stroke: #000000; stroke-width: 0.8; stroke-linejoin: miter; stroke-linecap: square"/>
   </g>
   <g id="patch_5">
    <path d="M 18 189 
L 129.6 189 
" style="fill: none; stroke: #000000; stroke-width: 0.8; stroke-linejoin: miter; stroke-linecap: square"/>
   </g>
   <g id="patch_6">
    <path d="M 18 25.92 
L 129.6 25.92 
" style="fill: none; stroke: #000000; stroke-width: 0.8; stroke-linejoin: miter; stroke-linecap: square"/>
   </g>
  </g>
 </g>
 <defs>
  <clipPath id="pe95fbc9587">
   <rect x="18" y="25.92" width="111.6" height="163.08"/>
  </clipPath>
 </defs>
</svg>
