<?xml version="1.0" encoding="utf-8" standalone="no"?>
<!DOCTYPE svg PUBLIC "-//W3C//DTD SVG 1.1//EN"
  "http://www.w3.org/Graphics/SVG/1.1/DTD/svg11.dtd">
<svg xmlns:xlink="http://www.w3.org/1999/xlink" width="144pt" height="216pt" viewBox="0 0 144 216" xmlns="http://www.w3.org/2000/svg" version="1.1">
 <metadata>
  <rdf:RDF xmlns:dc="http://purl.org/dc/elements/1.1/" xmlns:cc="http://creativecommons.org/ns#" xmlns:rdf="http://www.w3.org/1999/02/22-rdf-syntax-ns#">
   <cc:Work>
    <dc:type rdf:resource="http://purl.org/dc/dcmitype/StillImage"/>
    <dc:date>2022-06-23T14:54:56.582690</dc:date>
    <dc:format>image/svg+xml</dc:format>
    <dc:creator>
     <cc:Agent>
      <dc:title>Matplotlib v3.5.1, https://matplotlib.org/</dc:title>
     </cc:Agent>
    </dc:creator>
   </cc:Work>
  </rdf:RDF>
 </metadata>
 <defs>
  <style type="text/css">*{stroke-linejoin: round; stroke-linecap: butt}</style>
 </defs>
 <g id="figure_1">
  <g id="patch_1">
   <path d="M 0 216 
L 144 216 
L 144 0 
L 0 0 
L 0 216 
z
" style="fill: none"/>
  </g>
  <g id="axes_1">
   <g id="patch_2">
    <path d="M 18 189 
L 129.6 189 
L 129.6 25.92 
L 18 25.92 
z
" style="fill: #ffffff"/>
   </g>
   <g id="PathCollection_1">
    <defs>
     <path id="m370016d734" d="M 0 2.738613 
C 0.726289 2.738613 1.422928 2.450055 1.936492 1.936492 
C 2.450055 1.422928 2.738613 0.726289 2.738613 0 
C 2.738613 -0.726289 2.450055 -1.422928 1.936492 -1.936492 
C 1.422928 -2.450055 0.726289 -2.738613 0 -2.738613 
C -0.726289 -2.738613 -1.422928 -2.450055 -1.936492 -1.936492 
C -2.450055 -1.422928 -2.738613 -0.726289 -2.738613 0 
C -2.738613 0.726289 -2.450055 1.422928 -1.936492 1.936492 
C -1.422928 2.450055 -0.726289 2.738613 0 2.738613 
z
" style="stroke: #ff0000; stroke-width: 1.75"/>
    </defs>
    <g clip-path="url(#pd525787dee)">
     <use xlink:href="#m370016d734" x="80.775" y="107.46" style="fill: #ff0000; stroke: #ff0000; stroke-width: 1.75"/>
     <use xlink:href="#m370016d734" x="94.725" y="107.46" style="fill: #ff0000; stroke: #ff0000; stroke-width: 1.75"/>
     <use xlink:href="#m370016d734" x="59.85" y="119.229285" style="fill: #ff0000; stroke: #ff0000; stroke-width: 1.75"/>
     <use xlink:href="#m370016d734" x="73.8" y="119.229285" style="fill: #ff0000; stroke: #ff0000; stroke-width: 1.75"/>
     <use xlink:href="#m370016d734" x="87.75" y="119.229285" style="fill: #ff0000; stroke: #ff0000; stroke-width: 1.75"/>
     <use xlink:href="#m370016d734" x="66.825" y="130.99857" style="fill: #ff0000; stroke: #ff0000; stroke-width: 1.75"/>
     <use xlink:href="#m370016d734" x="80.775" y="130.99857" style="fill: #ff0000; stroke: #ff0000; stroke-width: 1.75"/>
    </g>
   </g>
   <g id="PathCollection_2">
    <defs>
     <path id="C0_0_987dd46e24" d="M 0 2.738613 
C 0.726289 2.738613 1.422928 2.450055 1.936492 1.936492 
C 2.450055 1.422928 2.738613 0.726289 2.738613 -0 
C 2.738613 -0.726289 2.450055 -1.422928 1.936492 -1.936492 
C 1.422928 -2.450055 0.726289 -2.738613 0 -2.738613 
C -0.726289 -2.738613 -1.422928 -2.450055 -1.936492 -1.936492 
C -2.450055 -1.422928 -2.738613 -0.726289 -2.738613 0 
C -2.738613 0.726289 -2.450055 1.422928 -1.936492 1.936492 
C -1.422928 2.450055 -0.726289 2.738613 0 2.738613 
z
"/>
    </defs>
    <g clip-path="url(#pd525787dee)">
     <use xlink:href="#C0_0_987dd46e24" x="66.825" y="83.92143" style="fill: none; stroke: #ff0000; stroke-width: 1.75"/>
    </g>
    <g clip-path="url(#pd525787dee)">
     <use xlink:href="#C0_0_987dd46e24" x="80.775" y="83.92143" style="fill: none; stroke: #ff0000; stroke-width: 1.75"/>
    </g>
    <g clip-path="url(#pd525787dee)">
     <use xlink:href="#C0_0_987dd46e24" x="59.85" y="95.690715" style="fill: none; stroke: #ff0000; stroke-width: 1.75"/>
    </g>
    <g clip-path="url(#pd525787dee)">
     <use xlink:href="#C0_0_987dd46e24" x="73.8" y="95.690715" style="fill: none; stroke: #ff0000; stroke-width: 1.75"/>
    </g>
    <g clip-path="url(#pd525787dee)">
     <use xlink:href="#C0_0_987dd46e24" x="87.75" y="95.690715" style="fill: none; stroke: #ff0000; stroke-width: 1.75"/>
    </g>
    <g clip-path="url(#pd525787dee)">
     <use xlink:href="#C0_0_987dd46e24" x="52.875" y="107.46" style="fill: none; stroke: #ff0000; stroke-width: 1.75"/>
    </g>
    <g clip-path="url(#pd525787dee)">
     <use xlink:href="#C0_0_987dd46e24" x="66.825" y="107.46" style="fill: none; stroke: #ff0000; stroke-width: 1.75"/>
    </g>
   </g>
   <g id="PathCollection_3">
    <path d="M 109.342891 64.139026 
C 109.475493 64.139026 109.602681 64.086343 109.696445 63.99258 
C 109.790208 63.898816 109.842891 63.771628 109.842891 63.639026 
C 109.842891 63.506425 109.790208 63.379236 109.696445 63.285473 
C 109.602681 63.19171 109.475493 63.139026 109.342891 63.139026 
C 109.21029 63.139026 109.083102 63.19171 108.989338 63.285473 
C 108.895575 63.379236 108.842891 63.506425 108.842891 63.639026 
C 108.842891 63.771628 108.895575 63.898816 108.989338 63.99258 
C 109.083102 64.086343 109.21029 64.139026 109.342891 64.139026 
z
" clip-path="url(#pd525787dee)" style="stroke: #000000"/>
    <path d="M 105.895356 57.345998 
C 106.027958 57.345998 106.155146 57.293315 106.24891 57.199552 
C 106.342673 57.105788 106.395356 56.9786 106.395356 56.845998 
C 106.395356 56.713397 106.342673 56.586208 106.24891 56.492445 
C 106.155146 56.398681 106.027958 56.345998 105.895356 56.345998 
C 105.762755 56.345998 105.635567 56.398681 105.541803 56.492445 
C 105.44804 56.586208 105.395356 56.713397 105.395356 56.845998 
C 105.395356 56.9786 105.44804 57.105788 105.541803 57.199552 
C 105.635567 57.293315 105.762755 57.345998 105.895356 57.345998 
z
" clip-path="url(#pd525787dee)" style="stroke: #000000"/>
    <path d="M 97.752449 47.903164 
C 98.249231 47.903164 98.725732 47.705791 99.077009 47.354513 
C 99.428287 47.003236 99.62566 46.526735 99.62566 46.029954 
C 99.62566 45.533172 99.428287 45.056671 99.077009 44.705394 
C 98.725732 44.354116 98.249231 44.156743 97.752449 44.156743 
C 97.255668 44.156743 96.779167 44.354116 96.42789 44.705394 
C 96.076612 45.056671 95.879239 45.533172 95.879239 46.029954 
C 95.879239 46.526735 96.076612 47.003236 96.42789 47.354513 
C 96.779167 47.705791 97.255668 47.903164 97.752449 47.903164 
z
" clip-path="url(#pd525787dee)" style="stroke: #000000"/>
    <path d="M 114.729221 123.050911 
C 115.135355 123.050911 115.52491 122.889553 115.81209 122.602373 
C 116.09927 122.315193 116.260628 121.925638 116.260628 121.519504 
C 116.260628 121.11337 116.09927 120.723816 115.81209 120.436636 
C 115.52491 120.149456 115.135355 119.988097 114.729221 119.988097 
C 114.323087 119.988097 113.933533 120.149456 113.646353 120.436636 
C 113.359173 120.723816 113.197814 121.11337 113.197814 121.519504 
C 113.197814 121.925638 113.359173 122.315193 113.646353 122.602373 
C 113.933533 122.889553 114.323087 123.050911 114.729221 123.050911 
z
" clip-path="url(#pd525787dee)" style="stroke: #000000"/>
    <path d="M 113.921564 115.826883 
C 114.514946 115.826883 115.084105 115.59113 115.50369 115.171545 
C 115.923274 114.75196 116.159028 114.182802 116.159028 113.589419 
C 116.159028 112.996037 115.923274 112.426878 115.50369 112.007293 
C 115.084105 111.587708 114.514946 111.351955 113.921564 111.351955 
C 113.328181 111.351955 112.759022 111.587708 112.339437 112.007293 
C 111.919853 112.426878 111.684099 112.996037 111.684099 113.589419 
C 111.684099 114.182802 111.919853 114.75196 112.339437 115.171545 
C 112.759022 115.59113 113.328181 115.826883 113.921564 115.826883 
z
" clip-path="url(#pd525787dee)" style="stroke: #000000"/>
    <path d="M 108.042418 100.421948 
C 108.635801 100.421948 109.204959 100.186195 109.624544 99.76661 
C 110.044129 99.347025 110.279882 98.777866 110.279882 98.184484 
C 110.279882 97.591101 110.044129 97.021942 109.624544 96.602358 
C 109.204959 96.182773 108.635801 95.947019 108.042418 95.947019 
C 107.449036 95.947019 106.879877 96.182773 106.460292 96.602358 
C 106.040707 97.021942 105.804954 97.591101 105.804954 98.184484 
C 105.804954 98.777866 106.040707 99.347025 106.460292 99.76661 
C 106.879877 100.186195 107.449036 100.421948 108.042418 100.421948 
z
" clip-path="url(#pd525787dee)" style="stroke: #000000"/>
    <path d="M 101.898174 66.403093 
C 102.491186 66.403093 103.05999 66.167487 103.479313 65.748164 
C 103.898636 65.328841 104.134242 64.760037 104.134242 64.167025 
C 104.134242 63.574013 103.898636 63.005209 103.479313 62.585886 
C 103.05999 62.166563 102.491186 61.930957 101.898174 61.930957 
C 101.305162 61.930957 100.736358 62.166563 100.317035 62.585886 
C 99.897713 63.005209 99.662106 63.574013 99.662106 64.167025 
C 99.662106 64.760037 99.897713 65.328841 100.317035 65.748164 
C 100.736358 66.167487 101.305162 66.403093 101.898174 66.403093 
z
" clip-path="url(#pd525787dee)" style="stroke: #000000"/>
    <path d="M 94.403569 61.961757 
C 94.53617 61.961757 94.663359 61.909074 94.757122 61.81531 
C 94.850886 61.721547 94.903569 61.594358 94.903569 61.461757 
C 94.903569 61.329155 94.850886 61.201967 94.757122 61.108204 
C 94.663359 61.01444 94.53617 60.961757 94.403569 60.961757 
C 94.270967 60.961757 94.143779 61.01444 94.050015 61.108204 
C 93.956252 61.201967 93.903569 61.329155 93.903569 61.461757 
C 93.903569 61.594358 93.956252 61.721547 94.050015 61.81531 
C 94.143779 61.909074 94.270967 61.961757 94.403569 61.961757 
z
" clip-path="url(#pd525787dee)" style="stroke: #000000"/>
    <path d="M 86.798433 49.056738 
C 87.391445 49.056738 87.960249 48.821132 88.379572 48.401809 
C 88.798895 47.982486 89.034501 47.413682 89.034501 46.82067 
C 89.034501 46.227658 88.798895 45.658854 88.379572 45.239531 
C 87.960249 44.820208 87.391445 44.584602 86.798433 44.584602 
C 86.205421 44.584602 85.636617 44.820208 85.217294 45.239531 
C 84.797971 45.658854 84.562365 46.227658 84.562365 46.82067 
C 84.562365 47.413682 84.797971 47.982486 85.217294 48.401809 
C 85.636617 48.821132 86.205421 49.056738 86.798433 49.056738 
z
" clip-path="url(#pd525787dee)" style="stroke: #000000"/>
    <path d="M 82.548806 29.641958 
C 83.061798 29.641958 83.553848 29.438144 83.916588 29.075404 
C 84.279328 28.712664 84.483142 28.220614 84.483142 27.707622 
C 84.483142 27.19463 84.279328 26.702579 83.916588 26.339839 
C 83.553848 25.977099 83.061798 25.773285 82.548806 25.773285 
C 82.035814 25.773285 81.543763 25.977099 81.181023 26.339839 
C 80.818283 26.702579 80.614469 27.19463 80.614469 27.707622 
C 80.614469 28.220614 80.818283 28.712664 81.181023 29.075404 
C 81.543763 29.438144 82.035814 29.641958 82.548806 29.641958 
z
" clip-path="url(#pd525787dee)" style="stroke: #000000"/>
    <path d="M 121.668565 165.963236 
C 122.261577 165.963236 122.830381 165.72763 123.249704 165.308307 
C 123.669027 164.888984 123.904633 164.32018 123.904633 163.727168 
C 123.904633 163.134156 123.669027 162.565352 123.249704 162.146029 
C 122.830381 161.726706 122.261577 161.4911 121.668565 161.4911 
C 121.075553 161.4911 120.506749 161.726706 120.087426 162.146029 
C 119.668103 162.565352 119.432497 163.134156 119.432497 163.727168 
C 119.432497 164.32018 119.668103 164.888984 120.087426 165.308307 
C 120.506749 165.72763 121.075553 165.963236 121.668565 165.963236 
z
" clip-path="url(#pd525787dee)" style="stroke: #000000"/>
    <path d="M 113.027495 143.726875 
C 113.620877 143.726875 114.190036 143.491121 114.609621 143.071537 
C 115.029206 142.651952 115.264959 142.082793 115.264959 141.48941 
C 115.264959 140.896028 115.029206 140.326869 114.609621 139.907284 
C 114.190036 139.4877 113.620877 139.251946 113.027495 139.251946 
C 112.434112 139.251946 111.864954 139.4877 111.445369 139.907284 
C 111.025784 140.326869 110.790031 140.896028 110.790031 141.48941 
C 110.790031 142.082793 111.025784 142.651952 111.445369 143.071537 
C 111.864954 143.491121 112.434112 143.726875 113.027495 143.726875 
z
" clip-path="url(#pd525787dee)" style="stroke: #000000"/>
    <path d="M 112.479408 138.694475 
C 113.07279 138.694475 113.641949 138.458721 114.061534 138.039137 
C 114.481119 137.619552 114.716872 137.050393 114.716872 136.45701 
C 114.716872 135.863628 114.481119 135.294469 114.061534 134.874884 
C 113.641949 134.4553 113.07279 134.219546 112.479408 134.219546 
C 111.886025 134.219546 111.316866 134.4553 110.897282 134.874884 
C 110.477697 135.294469 110.241943 135.863628 110.241943 136.45701 
C 110.241943 137.050393 110.477697 137.619552 110.897282 138.039137 
C 111.316866 138.458721 111.886025 138.694475 112.479408 138.694475 
z
" clip-path="url(#pd525787dee)" style="stroke: #000000"/>
    <path d="M 103.51358 124.64769 
C 104.106962 124.64769 104.676121 124.411936 105.095706 123.992351 
C 105.515291 123.572767 105.751044 123.003608 105.751044 122.410225 
C 105.751044 121.816843 105.515291 121.247684 105.095706 120.828099 
C 104.676121 120.408514 104.106962 120.172761 103.51358 120.172761 
C 102.920197 120.172761 102.351038 120.408514 101.931454 120.828099 
C 101.511869 121.247684 101.276115 121.816843 101.276115 122.410225 
C 101.276115 123.003608 101.511869 123.572767 101.931454 123.992351 
C 102.351038 124.411936 102.920197 124.64769 103.51358 124.64769 
z
" clip-path="url(#pd525787dee)" style="stroke: #000000"/>
    <path d="M 104.63812 113.014208 
C 105.174134 113.014208 105.688267 112.801248 106.067287 112.422228 
C 106.446306 112.043209 106.659267 111.529076 106.659267 110.993062 
C 106.659267 110.457047 106.446306 109.942915 106.067287 109.563895 
C 105.688267 109.184876 105.174134 108.971915 104.63812 108.971915 
C 104.102106 108.971915 103.587973 109.184876 103.208954 109.563895 
C 102.829934 109.942915 102.616974 110.457047 102.616974 110.993062 
C 102.616974 111.529076 102.829934 112.043209 103.208954 112.422228 
C 103.587973 112.801248 104.102106 113.014208 104.63812 113.014208 
z
" clip-path="url(#pd525787dee)" style="stroke: #000000"/>
    <path d="M 99.943213 102.512154 
C 100.536225 102.512154 101.105029 102.276548 101.524352 101.857225 
C 101.943675 101.437902 102.179281 100.869098 102.179281 100.276086 
C 102.179281 99.683074 101.943675 99.11427 101.524352 98.694947 
C 101.105029 98.275624 100.536225 98.040018 99.943213 98.040018 
C 99.350201 98.040018 98.781397 98.275624 98.362074 98.694947 
C 97.942751 99.11427 97.707145 99.683074 97.707145 100.276086 
C 97.707145 100.869098 97.942751 101.437902 98.362074 101.857225 
C 98.781397 102.276548 99.350201 102.512154 99.943213 102.512154 
z
" clip-path="url(#pd525787dee)" style="stroke: #000000"/>
    <path d="M 92.691362 85.923313 
C 93.227376 85.923313 93.741509 85.710352 94.120529 85.331333 
C 94.499548 84.952314 94.712509 84.438181 94.712509 83.902166 
C 94.712509 83.366152 94.499548 82.852019 94.120529 82.473 
C 93.741509 82.093981 93.227376 81.88102 92.691362 81.88102 
C 92.155348 81.88102 91.641215 82.093981 91.262196 82.473 
C 90.883176 82.852019 90.670215 83.366152 90.670215 83.902166 
C 90.670215 84.438181 90.883176 84.952314 91.262196 85.331333 
C 91.641215 85.710352 92.155348 85.923313 92.691362 85.923313 
z
" clip-path="url(#pd525787dee)" style="stroke: #000000"/>
    <path d="M 81.585727 38.809658 
C 81.718328 38.809658 81.845517 38.756975 81.93928 38.663212 
C 82.033044 38.569448 82.085727 38.44226 82.085727 38.309658 
C 82.085727 38.177057 82.033044 38.049868 81.93928 37.956105 
C 81.845517 37.862341 81.718328 37.809658 81.585727 37.809658 
C 81.453125 37.809658 81.325937 37.862341 81.232173 37.956105 
C 81.13841 38.049868 81.085727 38.177057 81.085727 38.309658 
C 81.085727 38.44226 81.13841 38.569448 81.232173 38.663212 
C 81.325937 38.756975 81.453125 38.809658 81.585727 38.809658 
z
" clip-path="url(#pd525787dee)" style="stroke: #000000"/>
    <path d="M 75.546681 35.321875 
C 76.113553 35.321875 76.657284 35.096654 77.058123 34.695815 
C 77.458962 34.294976 77.684183 33.751245 77.684183 33.184373 
C 77.684183 32.6175 77.458962 32.073769 77.058123 31.67293 
C 76.657284 31.272091 76.113553 31.04687 75.546681 31.04687 
C 74.979808 31.04687 74.436077 31.272091 74.035238 31.67293 
C 73.634399 32.073769 73.409178 32.6175 73.409178 33.184373 
C 73.409178 33.751245 73.634399 34.294976 74.035238 34.695815 
C 74.436077 35.096654 74.979808 35.321875 75.546681 35.321875 
z
" clip-path="url(#pd525787dee)" style="stroke: #000000"/>
    <path d="M 109.224553 168.725965 
C 109.357154 168.725965 109.484343 168.673282 109.578106 168.579519 
C 109.67187 168.485755 109.724553 168.358567 109.724553 168.225965 
C 109.724553 168.093364 109.67187 167.966175 109.578106 167.872412 
C 109.484343 167.778648 109.357154 167.725965 109.224553 167.725965 
C 109.091951 167.725965 108.964763 167.778648 108.870999 167.872412 
C 108.777236 167.966175 108.724553 168.093364 108.724553 168.225965 
C 108.724553 168.358567 108.777236 168.485755 108.870999 168.579519 
C 108.964763 168.673282 109.091951 168.725965 109.224553 168.725965 
z
" clip-path="url(#pd525787dee)" style="stroke: #000000"/>
    <path d="M 106.978548 156.410804 
C 107.571931 156.410804 108.14109 156.17505 108.560674 155.755466 
C 108.980259 155.335881 109.216012 154.766722 109.216012 154.173339 
C 109.216012 153.579957 108.980259 153.010798 108.560674 152.591213 
C 108.14109 152.171629 107.571931 151.935875 106.978548 151.935875 
C 106.385166 151.935875 105.816007 152.171629 105.396422 152.591213 
C 104.976837 153.010798 104.741084 153.579957 104.741084 154.173339 
C 104.741084 154.766722 104.976837 155.335881 105.396422 155.755466 
C 105.816007 156.17505 106.385166 156.410804 106.978548 156.410804 
z
" clip-path="url(#pd525787dee)" style="stroke: #000000"/>
    <path d="M 105.476283 145.583458 
C 105.732779 145.583458 105.978804 145.481552 106.160175 145.300181 
C 106.341545 145.118811 106.443452 144.872786 106.443452 144.61629 
C 106.443452 144.359794 106.341545 144.113769 106.160175 143.932399 
C 105.978804 143.751029 105.732779 143.649122 105.476283 143.649122 
C 105.219787 143.649122 104.973762 143.751029 104.792392 143.932399 
C 104.611022 144.113769 104.509115 144.359794 104.509115 144.61629 
C 104.509115 144.872786 104.611022 145.118811 104.792392 145.300181 
C 104.973762 145.481552 105.219787 145.583458 105.476283 145.583458 
z
" clip-path="url(#pd525787dee)" style="stroke: #000000"/>
    <path d="M 100.839045 140.588063 
C 101.366316 140.588063 101.872062 140.378576 102.244899 140.005739 
C 102.617735 139.632902 102.827222 139.127156 102.827222 138.599886 
C 102.827222 138.072615 102.617735 137.566869 102.244899 137.194032 
C 101.872062 136.821196 101.366316 136.611709 100.839045 136.611709 
C 100.311775 136.611709 99.806029 136.821196 99.433192 137.194032 
C 99.060355 137.566869 98.850869 138.072615 98.850869 138.599886 
C 98.850869 139.127156 99.060355 139.632902 99.433192 140.005739 
C 99.806029 140.378576 100.311775 140.588063 100.839045 140.588063 
z
" clip-path="url(#pd525787dee)" style="stroke: #000000"/>
    <path d="M 92.596639 122.401651 
C 93.190021 122.401651 93.75918 122.165898 94.178765 121.746313 
C 94.598349 121.326729 94.834103 120.75757 94.834103 120.164187 
C 94.834103 119.570805 94.598349 119.001646 94.178765 118.582061 
C 93.75918 118.162476 93.190021 117.926723 92.596639 117.926723 
C 92.003256 117.926723 91.434097 118.162476 91.014512 118.582061 
C 90.594928 119.001646 90.359174 119.570805 90.359174 120.164187 
C 90.359174 120.75757 90.594928 121.326729 91.014512 121.746313 
C 91.434097 122.165898 92.003256 122.401651 92.596639 122.401651 
z
" clip-path="url(#pd525787dee)" style="stroke: #000000"/>
    <path d="M 88.774319 98.824369 
C 89.368808 98.824369 89.939029 98.588176 90.359396 98.167809 
C 90.779763 97.747441 91.015956 97.177221 91.015956 96.582732 
C 91.015956 95.988243 90.779763 95.418022 90.359396 94.997655 
C 89.939029 94.577288 89.368808 94.341095 88.774319 94.341095 
C 88.17983 94.341095 87.609609 94.577288 87.189242 94.997655 
C 86.768875 95.418022 86.532682 95.988243 86.532682 96.582732 
C 86.532682 97.177221 86.768875 97.747441 87.189242 98.167809 
C 87.609609 98.588176 88.17983 98.824369 88.774319 98.824369 
z
" clip-path="url(#pd525787dee)" style="stroke: #000000"/>
    <path d="M 84.406385 90.106754 
C 84.999768 90.106754 85.568927 89.871 85.988512 89.451415 
C 86.408096 89.031831 86.64385 88.462672 86.64385 87.869289 
C 86.64385 87.275907 86.408096 86.706748 85.988512 86.287163 
C 85.568927 85.867579 84.999768 85.631825 84.406385 85.631825 
C 83.813003 85.631825 83.243844 85.867579 82.824259 86.287163 
C 82.404675 86.706748 82.168921 87.275907 82.168921 87.869289 
C 82.168921 88.462672 82.404675 89.031831 82.824259 89.451415 
C 83.243844 89.871 83.813003 90.106754 84.406385 90.106754 
z
" clip-path="url(#pd525787dee)" style="stroke: #000000"/>
    <path d="M 78.667654 78.949058 
C 79.261037 78.949058 79.830196 78.713305 80.24978 78.29372 
C 80.669365 77.874135 80.905119 77.304977 80.905119 76.711594 
C 80.905119 76.118212 80.669365 75.549053 80.24978 75.129468 
C 79.830196 74.709883 79.261037 74.47413 78.667654 74.47413 
C 78.074272 74.47413 77.505113 74.709883 77.085528 75.129468 
C 76.665943 75.549053 76.43019 76.118212 76.43019 76.711594 
C 76.43019 77.304977 76.665943 77.874135 77.085528 78.29372 
C 77.505113 78.713305 78.074272 78.949058 78.667654 78.949058 
z
" clip-path="url(#pd525787dee)" style="stroke: #000000"/>
    <path d="M 76.762915 70.681291 
C 77.356298 70.681291 77.925457 70.445538 78.345041 70.025953 
C 78.764626 69.606369 79.000379 69.03721 79.000379 68.443827 
C 79.000379 67.850445 78.764626 67.281286 78.345041 66.861701 
C 77.925457 66.442116 77.356298 66.206363 76.762915 66.206363 
C 76.169533 66.206363 75.600374 66.442116 75.180789 66.861701 
C 74.761204 67.281286 74.525451 67.850445 74.525451 68.443827 
C 74.525451 69.03721 74.761204 69.606369 75.180789 70.025953 
C 75.600374 70.445538 76.169533 70.681291 76.762915 70.681291 
z
" clip-path="url(#pd525787dee)" style="stroke: #000000"/>
    <path d="M 70.916434 55.834218 
C 71.509817 55.834218 72.078975 55.598464 72.49856 55.178879 
C 72.918145 54.759295 73.153898 54.190136 73.153898 53.596753 
C 73.153898 53.003371 72.918145 52.434212 72.49856 52.014627 
C 72.078975 51.595042 71.509817 51.359289 70.916434 51.359289 
C 70.323052 51.359289 69.753893 51.595042 69.334308 52.014627 
C 68.914723 52.434212 68.67897 53.003371 68.67897 53.596753 
C 68.67897 54.190136 68.914723 54.759295 69.334308 55.178879 
C 69.753893 55.598464 70.323052 55.834218 70.916434 55.834218 
z
" clip-path="url(#pd525787dee)" style="stroke: #000000"/>
    <path d="M 68.075415 46.303829 
C 68.583175 46.303829 69.070207 46.102094 69.429247 45.743054 
C 69.788287 45.384013 69.990022 44.896982 69.990022 44.389222 
C 69.990022 43.881463 69.788287 43.394431 69.429247 43.035391 
C 69.070207 42.67635 68.583175 42.474615 68.075415 42.474615 
C 67.567656 42.474615 67.080624 42.67635 66.721584 43.035391 
C 66.362544 43.394431 66.160809 43.881463 66.160809 44.389222 
C 66.160809 44.896982 66.362544 45.384013 66.721584 45.743054 
C 67.080624 46.102094 67.567656 46.303829 68.075415 46.303829 
z
" clip-path="url(#pd525787dee)" style="stroke: #000000"/>
    <path d="M 60.748139 27.5069 
C 60.946425 27.5069 61.136616 27.42812 61.276825 27.287911 
C 61.417034 27.147702 61.495814 26.957511 61.495814 26.759225 
C 61.495814 26.56094 61.417034 26.370749 61.276825 26.23054 
C 61.136616 26.090331 60.946425 26.011551 60.748139 26.011551 
C 60.549854 26.011551 60.359663 26.090331 60.219454 26.23054 
C 60.079244 26.370749 60.000465 26.56094 60.000465 26.759225 
C 60.000465 26.957511 60.079244 27.147702 60.219454 27.287911 
C 60.359663 27.42812 60.549854 27.5069 60.748139 27.5069 
z
" clip-path="url(#pd525787dee)" style="stroke: #000000"/>
    <path d="M 96.76794 175.96519 
C 96.900541 175.96519 97.02773 175.912507 97.121493 175.818743 
C 97.215257 175.72498 97.26794 175.597791 97.26794 175.46519 
C 97.26794 175.332588 97.215257 175.2054 97.121493 175.111636 
C 97.02773 175.017873 96.900541 174.96519 96.76794 174.96519 
C 96.635338 174.96519 96.50815 175.017873 96.414386 175.111636 
C 96.320623 175.2054 96.26794 175.332588 96.26794 175.46519 
C 96.26794 175.597791 96.320623 175.72498 96.414386 175.818743 
C 96.50815 175.912507 96.635338 175.96519 96.76794 175.96519 
z
" clip-path="url(#pd525787dee)" style="stroke: #000000"/>
    <path d="M 95.180291 147.732776 
C 95.773673 147.732776 96.342832 147.497023 96.762417 147.077438 
C 97.182002 146.657854 97.417755 146.088695 97.417755 145.495312 
C 97.417755 144.90193 97.182002 144.332771 96.762417 143.913186 
C 96.342832 143.493601 95.773673 143.257848 95.180291 143.257848 
C 94.586908 143.257848 94.017749 143.493601 93.598165 143.913186 
C 93.17858 144.332771 92.942827 144.90193 92.942827 145.495312 
C 92.942827 146.088695 93.17858 146.657854 93.598165 147.077438 
C 94.017749 147.497023 94.586908 147.732776 95.180291 147.732776 
z
" clip-path="url(#pd525787dee)" style="stroke: #000000"/>
    <path d="M 89.978833 139.677362 
C 90.518326 139.677362 91.035796 139.463019 91.417276 139.08154 
C 91.798755 138.70006 92.013098 138.18259 92.013098 137.643097 
C 92.013098 137.103603 91.798755 136.586133 91.417276 136.204654 
C 91.035796 135.823174 90.518326 135.608831 89.978833 135.608831 
C 89.439339 135.608831 88.921869 135.823174 88.54039 136.204654 
C 88.15891 136.586133 87.944567 137.103603 87.944567 137.643097 
C 87.944567 138.18259 88.15891 138.70006 88.54039 139.08154 
C 88.921869 139.463019 89.439339 139.677362 89.978833 139.677362 
z
" clip-path="url(#pd525787dee)" style="stroke: #000000"/>
    <path d="M 84.96955 135.382781 
C 85.562932 135.382781 86.132091 135.147027 86.551676 134.727443 
C 86.971261 134.307858 87.207014 133.738699 87.207014 133.145316 
C 87.207014 132.551934 86.971261 131.982775 86.551676 131.56319 
C 86.132091 131.143606 85.562932 130.907852 84.96955 130.907852 
C 84.376167 130.907852 83.807008 131.143606 83.387424 131.56319 
C 82.967839 131.982775 82.732086 132.551934 82.732086 133.145316 
C 82.732086 133.738699 82.967839 134.307858 83.387424 134.727443 
C 83.807008 135.147027 84.376167 135.382781 84.96955 135.382781 
z
" clip-path="url(#pd525787dee)" style="stroke: #000000"/>
    <path d="M 85.389496 119.206713 
C 85.982878 119.206713 86.552037 118.970959 86.971622 118.551375 
C 87.391207 118.13179 87.62696 117.562631 87.62696 116.969248 
C 87.62696 116.375866 87.391207 115.806707 86.971622 115.387122 
C 86.552037 114.967538 85.982878 114.731784 85.389496 114.731784 
C 84.796113 114.731784 84.226955 114.967538 83.80737 115.387122 
C 83.387785 115.806707 83.152032 116.375866 83.152032 116.969248 
C 83.152032 117.562631 83.387785 118.13179 83.80737 118.551375 
C 84.226955 118.970959 84.796113 119.206713 85.389496 119.206713 
z
" clip-path="url(#pd525787dee)" style="stroke: #000000"/>
    <path d="M 77.772233 105.971421 
C 78.365245 105.971421 78.934049 105.735815 79.353371 105.316492 
C 79.772694 104.897169 80.008301 104.328365 80.008301 103.735353 
C 80.008301 103.142341 79.772694 102.573537 79.353371 102.154214 
C 78.934049 101.734891 78.365245 101.499285 77.772233 101.499285 
C 77.17922 101.499285 76.610417 101.734891 76.191094 102.154214 
C 75.771771 102.573537 75.536165 103.142341 75.536165 103.735353 
C 75.536165 104.328365 75.771771 104.897169 76.191094 105.316492 
C 76.610417 105.735815 77.17922 105.971421 77.772233 105.971421 
z
" clip-path="url(#pd525787dee)" style="stroke: #000000"/>
    <path d="M 74.739492 100.562895 
C 75.332875 100.562895 75.902034 100.327142 76.321618 99.907557 
C 76.741203 99.487973 76.976956 98.918814 76.976956 98.325431 
C 76.976956 97.732049 76.741203 97.16289 76.321618 96.743305 
C 75.902034 96.32372 75.332875 96.087967 74.739492 96.087967 
C 74.14611 96.087967 73.576951 96.32372 73.157366 96.743305 
C 72.737781 97.16289 72.502028 97.732049 72.502028 98.325431 
C 72.502028 98.918814 72.737781 99.487973 73.157366 99.907557 
C 73.576951 100.327142 74.14611 100.562895 74.739492 100.562895 
z
" clip-path="url(#pd525787dee)" style="stroke: #000000"/>
    <path d="M 66.839557 91.750844 
C 67.375069 91.750844 67.888719 91.538083 68.267383 91.159419 
C 68.646047 90.780755 68.858808 90.267104 68.858808 89.731592 
C 68.858808 89.19608 68.646047 88.68243 68.267383 88.303766 
C 67.888719 87.925102 67.375069 87.712341 66.839557 87.712341 
C 66.304045 87.712341 65.790394 87.925102 65.41173 88.303766 
C 65.033066 88.68243 64.820305 89.19608 64.820305 89.731592 
C 64.820305 90.267104 65.033066 90.780755 65.41173 91.159419 
C 65.790394 91.538083 66.304045 91.750844 66.839557 91.750844 
z
" clip-path="url(#pd525787dee)" style="stroke: #000000"/>
    <path d="M 62.771273 85.186236 
C 63.364656 85.186236 63.933815 84.950483 64.353399 84.530898 
C 64.772984 84.111313 65.008737 83.542154 65.008737 82.948772 
C 65.008737 82.355389 64.772984 81.786231 64.353399 81.366646 
C 63.933815 80.947061 63.364656 80.711308 62.771273 80.711308 
C 62.177891 80.711308 61.608732 80.947061 61.189147 81.366646 
C 60.769562 81.786231 60.533809 82.355389 60.533809 82.948772 
C 60.533809 83.542154 60.769562 84.111313 61.189147 84.530898 
C 61.608732 84.950483 62.177891 85.186236 62.771273 85.186236 
z
" clip-path="url(#pd525787dee)" style="stroke: #000000"/>
    <path d="M 65.500194 70.870972 
C 65.632795 70.870972 65.759984 70.818289 65.853747 70.724526 
C 65.947511 70.630762 66.000194 70.503574 66.000194 70.370972 
C 66.000194 70.238371 65.947511 70.111182 65.853747 70.017419 
C 65.759984 69.923655 65.632795 69.870972 65.500194 69.870972 
C 65.367592 69.870972 65.240404 69.923655 65.14664 70.017419 
C 65.052877 70.111182 65.000194 70.238371 65.000194 70.370972 
C 65.000194 70.503574 65.052877 70.630762 65.14664 70.724526 
C 65.240404 70.818289 65.367592 70.870972 65.500194 70.870972 
z
" clip-path="url(#pd525787dee)" style="stroke: #000000"/>
    <path d="M 57.223293 59.805375 
C 57.816305 59.805375 58.385109 59.569769 58.804432 59.150446 
C 59.223755 58.731123 59.459361 58.162319 59.459361 57.569307 
C 59.459361 56.976295 59.223755 56.407491 58.804432 55.988168 
C 58.385109 55.568845 57.816305 55.333239 57.223293 55.333239 
C 56.630281 55.333239 56.061477 55.568845 55.642154 55.988168 
C 55.222831 56.407491 54.987225 56.976295 54.987225 57.569307 
C 54.987225 58.162319 55.222831 58.731123 55.642154 59.150446 
C 56.061477 59.569769 56.630281 59.805375 57.223293 59.805375 
z
" clip-path="url(#pd525787dee)" style="stroke: #000000"/>
    <path d="M 53.626637 41.79304 
C 54.219649 41.79304 54.788453 41.557434 55.207776 41.138111 
C 55.627099 40.718788 55.862705 40.149984 55.862705 39.556972 
C 55.862705 38.96396 55.627099 38.395156 55.207776 37.975833 
C 54.788453 37.55651 54.219649 37.320904 53.626637 37.320904 
C 53.033625 37.320904 52.464821 37.55651 52.045498 37.975833 
C 51.626175 38.395156 51.390569 38.96396 51.390569 39.556972 
C 51.390569 40.149984 51.626175 40.718788 52.045498 41.138111 
C 52.464821 41.557434 53.033625 41.79304 53.626637 41.79304 
z
" clip-path="url(#pd525787dee)" style="stroke: #000000"/>
    <path d="M 90.401776 177.977206 
C 90.994788 177.977206 91.563592 177.7416 91.982915 177.322277 
C 92.402238 176.902954 92.637844 176.33415 92.637844 175.741138 
C 92.637844 175.148126 92.402238 174.579322 91.982915 174.159999 
C 91.563592 173.740677 90.994788 173.50507 90.401776 173.50507 
C 89.808764 173.50507 89.23996 173.740677 88.820637 174.159999 
C 88.401315 174.579322 88.165708 175.148126 88.165708 175.741138 
C 88.165708 176.33415 88.401315 176.902954 88.820637 177.322277 
C 89.23996 177.7416 89.808764 177.977206 90.401776 177.977206 
z
" clip-path="url(#pd525787dee)" style="stroke: #000000"/>
    <path d="M 83.661661 170.227803 
C 84.254673 170.227803 84.823477 169.992197 85.2428 169.572874 
C 85.662123 169.153551 85.897729 168.584747 85.897729 167.991735 
C 85.897729 167.398723 85.662123 166.829919 85.2428 166.410596 
C 84.823477 165.991273 84.254673 165.755667 83.661661 165.755667 
C 83.068649 165.755667 82.499845 165.991273 82.080522 166.410596 
C 81.661199 166.829919 81.425593 167.398723 81.425593 167.991735 
C 81.425593 168.584747 81.661199 169.153551 82.080522 169.572874 
C 82.499845 169.992197 83.068649 170.227803 83.661661 170.227803 
z
" clip-path="url(#pd525787dee)" style="stroke: #000000"/>
    <path d="M 79.882519 144.357239 
C 80.475902 144.357239 81.045061 144.121486 81.464646 143.701901 
C 81.88423 143.282316 82.119984 142.713158 82.119984 142.119775 
C 82.119984 141.526393 81.88423 140.957234 81.464646 140.537649 
C 81.045061 140.118064 80.475902 139.882311 79.882519 139.882311 
C 79.289137 139.882311 78.719978 140.118064 78.300393 140.537649 
C 77.880809 140.957234 77.645055 141.526393 77.645055 142.119775 
C 77.645055 142.713158 77.880809 143.282316 78.300393 143.701901 
C 78.719978 144.121486 79.289137 144.357239 79.882519 144.357239 
z
" clip-path="url(#pd525787dee)" style="stroke: #000000"/>
    <path d="M 76.595005 136.214752 
C 77.130013 136.214752 77.64318 136.002191 78.021488 135.623883 
C 78.399796 135.245576 78.612356 134.732408 78.612356 134.197401 
C 78.612356 133.662393 78.399796 133.149226 78.021488 132.770918 
C 77.64318 132.39261 77.130013 132.18005 76.595005 132.18005 
C 76.059998 132.18005 75.54683 132.39261 75.168523 132.770918 
C 74.790215 133.149226 74.577654 133.662393 74.577654 134.197401 
C 74.577654 134.732408 74.790215 135.245576 75.168523 135.623883 
C 75.54683 136.002191 76.059998 136.214752 76.595005 136.214752 
z
" clip-path="url(#pd525787dee)" style="stroke: #000000"/>
    <path d="M 72.181078 120.78282 
C 72.77446 120.78282 73.343619 120.547066 73.763204 120.127482 
C 74.182789 119.707897 74.418542 119.138738 74.418542 118.545356 
C 74.418542 117.951973 74.182789 117.382814 73.763204 116.963229 
C 73.343619 116.543645 72.77446 116.307891 72.181078 116.307891 
C 71.587695 116.307891 71.018536 116.543645 70.598952 116.963229 
C 70.179367 117.382814 69.943614 117.951973 69.943614 118.545356 
C 69.943614 119.138738 70.179367 119.707897 70.598952 120.127482 
C 71.018536 120.547066 71.587695 120.78282 72.181078 120.78282 
z
" clip-path="url(#pd525787dee)" style="stroke: #000000"/>
    <path d="M 70.839412 114.717752 
C 71.432424 114.717752 72.001228 114.482146 72.42055 114.062823 
C 72.839873 113.6435 73.07548 113.074696 73.07548 112.481684 
C 73.07548 111.888672 72.839873 111.319868 72.42055 110.900545 
C 72.001228 110.481223 71.432424 110.245616 70.839412 110.245616 
C 70.246399 110.245616 69.677596 110.481223 69.258273 110.900545 
C 68.83895 111.319868 68.603344 111.888672 68.603344 112.481684 
C 68.603344 113.074696 68.83895 113.6435 69.258273 114.062823 
C 69.677596 114.482146 70.246399 114.717752 70.839412 114.717752 
z
" clip-path="url(#pd525787dee)" style="stroke: #000000"/>
    <path d="M 66.459153 104.352791 
C 67.052535 104.352791 67.621694 104.117038 68.041279 103.697453 
C 68.460864 103.277869 68.696617 102.70871 68.696617 102.115327 
C 68.696617 101.521945 68.460864 100.952786 68.041279 100.533201 
C 67.621694 100.113616 67.052535 99.877863 66.459153 99.877863 
C 65.86577 99.877863 65.296611 100.113616 64.877027 100.533201 
C 64.457442 100.952786 64.221688 101.521945 64.221688 102.115327 
C 64.221688 102.70871 64.457442 103.277869 64.877027 103.697453 
C 65.296611 104.117038 65.86577 104.352791 66.459153 104.352791 
z
" clip-path="url(#pd525787dee)" style="stroke: #000000"/>
    <path d="M 60.034744 98.425504 
C 60.717535 98.425504 61.372452 98.154228 61.855257 97.671422 
C 62.338063 97.188617 62.609339 96.5337 62.609339 95.850909 
C 62.609339 95.168119 62.338063 94.513202 61.855257 94.030396 
C 61.372452 93.54759 60.717535 93.276315 60.034744 93.276315 
C 59.351954 93.276315 58.697037 93.54759 58.214231 94.030396 
C 57.731425 94.513202 57.46015 95.168119 57.46015 95.850909 
C 57.46015 96.5337 57.731425 97.188617 58.214231 97.671422 
C 58.697037 98.154228 59.351954 98.425504 60.034744 98.425504 
z
" clip-path="url(#pd525787dee)" style="stroke: #000000"/>
    <path d="M 55.184127 86.050198 
C 55.316729 86.050198 55.443917 85.997515 55.537681 85.903751 
C 55.631444 85.809988 55.684127 85.682799 55.684127 85.550198 
C 55.684127 85.417596 55.631444 85.290408 55.537681 85.196644 
C 55.443917 85.102881 55.316729 85.050198 55.184127 85.050198 
C 55.051526 85.050198 54.924338 85.102881 54.830574 85.196644 
C 54.736811 85.290408 54.684127 85.417596 54.684127 85.550198 
C 54.684127 85.682799 54.736811 85.809988 54.830574 85.903751 
C 54.924338 85.997515 55.051526 86.050198 55.184127 86.050198 
z
" clip-path="url(#pd525787dee)" style="stroke: #000000"/>
    <path d="M 52.601925 72.529185 
C 53.195307 72.529185 53.764466 72.293432 54.184051 71.873847 
C 54.603636 71.454263 54.839389 70.885104 54.839389 70.291721 
C 54.839389 69.698339 54.603636 69.12918 54.184051 68.709595 
C 53.764466 68.29001 53.195307 68.054257 52.601925 68.054257 
C 52.008543 68.054257 51.439384 68.29001 51.019799 68.709595 
C 50.600214 69.12918 50.364461 69.698339 50.364461 70.291721 
C 50.364461 70.885104 50.600214 71.454263 51.019799 71.873847 
C 51.439384 72.293432 52.008543 72.529185 52.601925 72.529185 
z
" clip-path="url(#pd525787dee)" style="stroke: #000000"/>
    <path d="M 50.522974 63.74756 
C 51.115986 63.74756 51.68479 63.511954 52.104113 63.092631 
C 52.523436 62.673308 52.759042 62.104504 52.759042 61.511492 
C 52.759042 60.91848 52.523436 60.349676 52.104113 59.930353 
C 51.68479 59.51103 51.115986 59.275424 50.522974 59.275424 
C 49.929962 59.275424 49.361158 59.51103 48.941835 59.930353 
C 48.522513 60.349676 48.286906 60.91848 48.286906 61.511492 
C 48.286906 62.104504 48.522513 62.673308 48.941835 63.092631 
C 49.361158 63.511954 49.929962 63.74756 50.522974 63.74756 
z
" clip-path="url(#pd525787dee)" style="stroke: #000000"/>
    <path d="M 52.48212 54.370745 
C 53.007269 54.370745 53.510979 54.162102 53.882316 53.790765 
C 54.253652 53.419429 54.462296 52.915718 54.462296 52.390569 
C 54.462296 51.865421 54.253652 51.36171 53.882316 50.990374 
C 53.510979 50.619037 53.007269 50.410394 52.48212 50.410394 
C 51.956971 50.410394 51.45326 50.619037 51.081924 50.990374 
C 50.710588 51.36171 50.501944 51.865421 50.501944 52.390569 
C 50.501944 52.915718 50.710588 53.419429 51.081924 53.790765 
C 51.45326 54.162102 51.956971 54.370745 52.48212 54.370745 
z
" clip-path="url(#pd525787dee)" style="stroke: #000000"/>
    <path d="M 77.804483 169.456681 
C 78.397495 169.456681 78.966299 169.221075 79.385622 168.801752 
C 79.804945 168.382429 80.040551 167.813625 80.040551 167.220613 
C 80.040551 166.627601 79.804945 166.058797 79.385622 165.639474 
C 78.966299 165.220151 78.397495 164.984545 77.804483 164.984545 
C 77.211471 164.984545 76.642667 165.220151 76.223344 165.639474 
C 75.804021 166.058797 75.568415 166.627601 75.568415 167.220613 
C 75.568415 167.813625 75.804021 168.382429 76.223344 168.801752 
C 76.642667 169.221075 77.211471 169.456681 77.804483 169.456681 
z
" clip-path="url(#pd525787dee)" style="stroke: #000000"/>
    <path d="M 75.304906 157.562578 
C 75.898289 157.562578 76.467447 157.326824 76.887032 156.907239 
C 77.306617 156.487655 77.54237 155.918496 77.54237 155.325113 
C 77.54237 154.731731 77.306617 154.162572 76.887032 153.742987 
C 76.467447 153.323402 75.898289 153.087649 75.304906 153.087649 
C 74.711524 153.087649 74.142365 153.323402 73.72278 153.742987 
C 73.303195 154.162572 73.067442 154.731731 73.067442 155.325113 
C 73.067442 155.918496 73.303195 156.487655 73.72278 156.907239 
C 74.142365 157.326824 74.711524 157.562578 75.304906 157.562578 
z
" clip-path="url(#pd525787dee)" style="stroke: #000000"/>
    <path d="M 69.843737 149.403128 
C 70.437119 149.403128 71.006278 149.167374 71.425863 148.74779 
C 71.845448 148.328205 72.081201 147.759046 72.081201 147.165663 
C 72.081201 146.572281 71.845448 146.003122 71.425863 145.583537 
C 71.006278 145.163953 70.437119 144.928199 69.843737 144.928199 
C 69.250354 144.928199 68.681196 145.163953 68.261611 145.583537 
C 67.842026 146.003122 67.606273 146.572281 67.606273 147.165663 
C 67.606273 147.759046 67.842026 148.328205 68.261611 148.74779 
C 68.681196 149.167374 69.250354 149.403128 69.843737 149.403128 
z
" clip-path="url(#pd525787dee)" style="stroke: #000000"/>
    <path d="M 57.786031 128.630018 
C 58.379044 128.630018 58.947847 128.394412 59.36717 127.975089 
C 59.786493 127.555766 60.022099 126.986962 60.022099 126.39395 
C 60.022099 125.800938 59.786493 125.232134 59.36717 124.812811 
C 58.947847 124.393488 58.379044 124.157882 57.786031 124.157882 
C 57.193019 124.157882 56.624215 124.393488 56.204893 124.812811 
C 55.78557 125.232134 55.549963 125.800938 55.549963 126.39395 
C 55.549963 126.986962 55.78557 127.555766 56.204893 127.975089 
C 56.624215 128.394412 57.193019 128.630018 57.786031 128.630018 
z
" clip-path="url(#pd525787dee)" style="stroke: #000000"/>
    <path d="M 57.367322 115.02755 
C 57.499924 115.02755 57.627112 114.974867 57.720876 114.881104 
C 57.814639 114.78734 57.867322 114.660152 57.867322 114.52755 
C 57.867322 114.394949 57.814639 114.26776 57.720876 114.173997 
C 57.627112 114.080233 57.499924 114.02755 57.367322 114.02755 
C 57.234721 114.02755 57.107532 114.080233 57.013769 114.173997 
C 56.920005 114.26776 56.867322 114.394949 56.867322 114.52755 
C 56.867322 114.660152 56.920005 114.78734 57.013769 114.881104 
C 57.107532 114.974867 57.234721 115.02755 57.367322 115.02755 
z
" clip-path="url(#pd525787dee)" style="stroke: #000000"/>
    <path d="M 53.730407 107.742349 
C 54.372561 107.742349 54.9885 107.487219 55.442572 107.033147 
C 55.896644 106.579075 56.151774 105.963136 56.151774 105.320982 
C 56.151774 104.678828 55.896644 104.062888 55.442572 103.608816 
C 54.9885 103.154745 54.372561 102.899614 53.730407 102.899614 
C 53.088253 102.899614 52.472313 103.154745 52.018242 103.608816 
C 51.56417 104.062888 51.309039 104.678828 51.309039 105.320982 
C 51.309039 105.963136 51.56417 106.579075 52.018242 107.033147 
C 52.472313 107.487219 53.088253 107.742349 53.730407 107.742349 
z
" clip-path="url(#pd525787dee)" style="stroke: #000000"/>
    <path d="M 50.585797 96.755019 
C 51.179179 96.755019 51.748338 96.519265 52.167923 96.099681 
C 52.587508 95.680096 52.823261 95.110937 52.823261 94.517555 
C 52.823261 93.924172 52.587508 93.355013 52.167923 92.935428 
C 51.748338 92.515844 51.179179 92.28009 50.585797 92.28009 
C 49.992414 92.28009 49.423256 92.515844 49.003671 92.935428 
C 48.584086 93.355013 48.348333 93.924172 48.348333 94.517555 
C 48.348333 95.110937 48.584086 95.680096 49.003671 96.099681 
C 49.423256 96.519265 49.992414 96.755019 50.585797 96.755019 
z
" clip-path="url(#pd525787dee)" style="stroke: #000000"/>
    <path d="M 44.593882 87.870075 
C 45.102818 87.870075 45.590979 87.667872 45.950851 87.308 
C 46.310723 86.948127 46.512926 86.459967 46.512926 85.951031 
C 46.512926 85.442094 46.310723 84.953934 45.950851 84.594062 
C 45.590979 84.234189 45.102818 84.031987 44.593882 84.031987 
C 44.084946 84.031987 43.596785 84.234189 43.236913 84.594062 
C 42.877041 84.953934 42.674838 85.442094 42.674838 85.951031 
C 42.674838 86.459967 42.877041 86.948127 43.236913 87.308 
C 43.596785 87.667872 44.084946 87.870075 44.593882 87.870075 
z
" clip-path="url(#pd525787dee)" style="stroke: #000000"/>
    <path d="M 40.859559 73.912389 
C 40.99216 73.912389 41.119349 73.859706 41.213112 73.765942 
C 41.306876 73.672179 41.359559 73.544991 41.359559 73.412389 
C 41.359559 73.279787 41.306876 73.152599 41.213112 73.058836 
C 41.119349 72.965072 40.99216 72.912389 40.859559 72.912389 
C 40.726957 72.912389 40.599769 72.965072 40.506005 73.058836 
C 40.412242 73.152599 40.359559 73.279787 40.359559 73.412389 
C 40.359559 73.544991 40.412242 73.672179 40.506005 73.765942 
C 40.599769 73.859706 40.726957 73.912389 40.859559 73.912389 
z
" clip-path="url(#pd525787dee)" style="stroke: #000000"/>
    <path d="M 38.967174 67.191327 
C 39.099776 67.191327 39.226964 67.138644 39.320728 67.04488 
C 39.414491 66.951117 39.467174 66.823928 39.467174 66.691327 
C 39.467174 66.558725 39.414491 66.431537 39.320728 66.337773 
C 39.226964 66.24401 39.099776 66.191327 38.967174 66.191327 
C 38.834573 66.191327 38.707384 66.24401 38.613621 66.337773 
C 38.519858 66.431537 38.467174 66.558725 38.467174 66.691327 
C 38.467174 66.823928 38.519858 66.951117 38.613621 67.04488 
C 38.707384 67.138644 38.834573 67.191327 38.967174 67.191327 
z
" clip-path="url(#pd525787dee)" style="stroke: #000000"/>
    <path d="M 62.620334 155.679488 
C 63.001116 155.679488 63.366353 155.528202 63.635606 155.258949 
C 63.904859 154.989696 64.056145 154.624459 64.056145 154.243677 
C 64.056145 153.862896 63.904859 153.497659 63.635606 153.228406 
C 63.366353 152.959153 63.001116 152.807867 62.620334 152.807867 
C 62.239553 152.807867 61.874316 152.959153 61.605063 153.228406 
C 61.335809 153.497659 61.184523 153.862896 61.184523 154.243677 
C 61.184523 154.624459 61.335809 154.989696 61.605063 155.258949 
C 61.874316 155.528202 62.239553 155.679488 62.620334 155.679488 
z
" clip-path="url(#pd525787dee)" style="stroke: #000000"/>
    <path d="M 55.477896 149.300813 
C 56.071279 149.300813 56.640438 149.06506 57.060023 148.645475 
C 57.479607 148.22589 57.715361 147.656731 57.715361 147.063349 
C 57.715361 146.469967 57.479607 145.900808 57.060023 145.481223 
C 56.640438 145.061638 56.071279 144.825885 55.477896 144.825885 
C 54.884514 144.825885 54.315355 145.061638 53.89577 145.481223 
C 53.476186 145.900808 53.240432 146.469967 53.240432 147.063349 
C 53.240432 147.656731 53.476186 148.22589 53.89577 148.645475 
C 54.315355 149.06506 54.884514 149.300813 55.477896 149.300813 
z
" clip-path="url(#pd525787dee)" style="stroke: #000000"/>
    <path d="M 50.604186 134.227411 
C 51.197569 134.227411 51.766728 133.991658 52.186312 133.572073 
C 52.605897 133.152488 52.841651 132.583329 52.841651 131.989947 
C 52.841651 131.396564 52.605897 130.827405 52.186312 130.407821 
C 51.766728 129.988236 51.197569 129.752483 50.604186 129.752483 
C 50.010804 129.752483 49.441645 129.988236 49.02206 130.407821 
C 48.602475 130.827405 48.366722 131.396564 48.366722 131.989947 
C 48.366722 132.583329 48.602475 133.152488 49.02206 133.572073 
C 49.441645 133.991658 50.010804 134.227411 50.604186 134.227411 
z
" clip-path="url(#pd525787dee)" style="stroke: #000000"/>
    <path d="M 48.89999 122.887099 
C 49.493372 122.887099 50.062531 122.651345 50.482116 122.231761 
C 50.901701 121.812176 51.137454 121.243017 51.137454 120.649635 
C 51.137454 120.056252 50.901701 119.487093 50.482116 119.067508 
C 50.062531 118.647924 49.493372 118.41217 48.89999 118.41217 
C 48.306608 118.41217 47.737449 118.647924 47.317864 119.067508 
C 46.898279 119.487093 46.662526 120.056252 46.662526 120.649635 
C 46.662526 121.243017 46.898279 121.812176 47.317864 122.231761 
C 47.737449 122.651345 48.306608 122.887099 48.89999 122.887099 
z
" clip-path="url(#pd525787dee)" style="stroke: #000000"/>
    <path d="M 42.849747 109.907772 
C 43.44313 109.907772 44.012289 109.672019 44.431873 109.252434 
C 44.851458 108.832849 45.087211 108.263691 45.087211 107.670308 
C 45.087211 107.076926 44.851458 106.507767 44.431873 106.088182 
C 44.012289 105.668597 43.44313 105.432844 42.849747 105.432844 
C 42.256365 105.432844 41.687206 105.668597 41.267621 106.088182 
C 40.848036 106.507767 40.612283 107.076926 40.612283 107.670308 
C 40.612283 108.263691 40.848036 108.832849 41.267621 109.252434 
C 41.687206 109.672019 42.256365 109.907772 42.849747 109.907772 
z
" clip-path="url(#pd525787dee)" style="stroke: #000000"/>
    <path d="M 33.272655 82.068026 
C 33.865667 82.068026 34.434471 81.83242 34.853794 81.413097 
C 35.273117 80.993774 35.508723 80.42497 35.508723 79.831958 
C 35.508723 79.238946 35.273117 78.670142 34.853794 78.250819 
C 34.434471 77.831496 33.865667 77.59589 33.272655 77.59589 
C 32.679643 77.59589 32.110839 77.831496 31.691516 78.250819 
C 31.272193 78.670142 31.036587 79.238946 31.036587 79.831958 
C 31.036587 80.42497 31.272193 80.993774 31.691516 81.413097 
C 32.110839 81.83242 32.679643 82.068026 33.272655 82.068026 
z
" clip-path="url(#pd525787dee)" style="stroke: #000000"/>
    <path d="M 44.545117 168.835829 
C 45.138129 168.835829 45.706932 168.600223 46.126255 168.1809 
C 46.545578 167.761577 46.781185 167.192773 46.781185 166.599761 
C 46.781185 166.006749 46.545578 165.437945 46.126255 165.018622 
C 45.706932 164.599299 45.138129 164.363693 44.545117 164.363693 
C 43.952104 164.363693 43.383301 164.599299 42.963978 165.018622 
C 42.544655 165.437945 42.309049 166.006749 42.309049 166.599761 
C 42.309049 167.192773 42.544655 167.761577 42.963978 168.1809 
C 43.383301 168.600223 43.952104 168.835829 44.545117 168.835829 
z
" clip-path="url(#pd525787dee)" style="stroke: #000000"/>
    <path d="M 42.817539 154.941885 
C 43.410921 154.941885 43.98008 154.706132 44.399665 154.286547 
C 44.81925 153.866962 45.055003 153.297804 45.055003 152.704421 
C 45.055003 152.111039 44.81925 151.54188 44.399665 151.122295 
C 43.98008 150.70271 43.410921 150.466957 42.817539 150.466957 
C 42.224156 150.466957 41.654997 150.70271 41.235413 151.122295 
C 40.815828 151.54188 40.580075 152.111039 40.580075 152.704421 
C 40.580075 153.297804 40.815828 153.866962 41.235413 154.286547 
C 41.654997 154.706132 42.224156 154.941885 42.817539 154.941885 
z
" clip-path="url(#pd525787dee)" style="stroke: #000000"/>
    <path d="M 40.527829 148.921794 
C 41.121211 148.921794 41.69037 148.686041 42.109955 148.266456 
C 42.529539 147.846871 42.765293 147.277712 42.765293 146.68433 
C 42.765293 146.090947 42.529539 145.521788 42.109955 145.102204 
C 41.69037 144.682619 41.121211 144.446866 40.527829 144.446866 
C 39.934446 144.446866 39.365287 144.682619 38.945702 145.102204 
C 38.526118 145.521788 38.290364 146.090947 38.290364 146.68433 
C 38.290364 147.277712 38.526118 147.846871 38.945702 148.266456 
C 39.365287 148.686041 39.934446 148.921794 40.527829 148.921794 
z
" clip-path="url(#pd525787dee)" style="stroke: #000000"/>
    <path d="M 33.712716 113.66822 
C 33.845318 113.66822 33.972506 113.615537 34.06627 113.521773 
C 34.160033 113.42801 34.212716 113.300821 34.212716 113.16822 
C 34.212716 113.035618 34.160033 112.90843 34.06627 112.814666 
C 33.972506 112.720903 33.845318 112.66822 33.712716 112.66822 
C 33.580115 112.66822 33.452926 112.720903 33.359163 112.814666 
C 33.265399 112.90843 33.212716 113.035618 33.212716 113.16822 
C 33.212716 113.300821 33.265399 113.42801 33.359163 113.521773 
C 33.452926 113.615537 33.580115 113.66822 33.712716 113.66822 
z
" clip-path="url(#pd525787dee)" style="stroke: #000000"/>
    <path d="M 40.04136 160.088654 
C 40.634372 160.088654 41.203176 159.853048 41.622499 159.433725 
C 42.041822 159.014402 42.277428 158.445598 42.277428 157.852586 
C 42.277428 157.259574 42.041822 156.69077 41.622499 156.271447 
C 41.203176 155.852124 40.634372 155.616518 40.04136 155.616518 
C 39.448348 155.616518 38.879544 155.852124 38.460221 156.271447 
C 38.040898 156.69077 37.805292 157.259574 37.805292 157.852586 
C 37.805292 158.445598 38.040898 159.014402 38.460221 159.433725 
C 38.879544 159.853048 39.448348 160.088654 40.04136 160.088654 
z
" clip-path="url(#pd525787dee)" style="stroke: #000000"/>
   </g>
   <g id="matplotlib.axis_1">
    <g id="xtick_1">
     <g id="line2d_1">
      <defs>
       <path id="mbb6e92bd0a" d="M 0 0 
L 0 3.5 
" style="stroke: #000000; stroke-width: 0.8"/>
      </defs>
      <g>
       <use xlink:href="#mbb6e92bd0a" x="18" y="189" style="stroke: #000000; stroke-width: 0.8"/>
      </g>
     </g>
     <g id="text_1">
      <!-- 10 -->
      <g transform="translate(7.447656 203.598437)scale(0.1 -0.1)">
       <defs>
        <path id="DejaVuSans-2212" d="M 678 2272 
L 4684 2272 
L 4684 1741 
L 678 1741 
L 678 2272 
z
" transform="scale(0.015625)"/>
        <path id="DejaVuSans-31" d="M 794 531 
L 1825 531 
L 1825 4091 
L 703 3866 
L 703 4441 
L 1819 4666 
L 2450 4666 
L 2450 531 
L 3481 531 
L 3481 0 
L 794 0 
L 794 531 
z
" transform="scale(0.015625)"/>
        <path id="DejaVuSans-30" d="M 2034 4250 
Q 1547 4250 1301 3770 
Q 1056 3291 1056 2328 
Q 1056 1369 1301 889 
Q 1547 409 2034 409 
Q 2525 409 2770 889 
Q 3016 1369 3016 2328 
Q 3016 3291 2770 3770 
Q 2525 4250 2034 4250 
z
M 2034 4750 
Q 2819 4750 3233 4129 
Q 3647 3509 3647 2328 
Q 3647 1150 3233 529 
Q 2819 -91 2034 -91 
Q 1250 -91 836 529 
Q 422 1150 422 2328 
Q 422 3509 836 4129 
Q 1250 4750 2034 4750 
z
" transform="scale(0.015625)"/>
       </defs>
       <use xlink:href="#DejaVuSans-2212"/>
       <use xlink:href="#DejaVuSans-31" x="83.789062"/>
       <use xlink:href="#DejaVuSans-30" x="147.412109"/>
      </g>
     </g>
    </g>
    <g id="xtick_2">
     <g id="line2d_2">
      <g>
       <use xlink:href="#mbb6e92bd0a" x="73.8" y="189" style="stroke: #000000; stroke-width: 0.8"/>
      </g>
     </g>
     <g id="text_2">
      <!-- 0 -->
      <g transform="translate(70.61875 203.598437)scale(0.1 -0.1)">
       <use xlink:href="#DejaVuSans-30"/>
      </g>
     </g>
    </g>
    <g id="xtick_3">
     <g id="line2d_3">
      <g>
       <use xlink:href="#mbb6e92bd0a" x="129.6" y="189" style="stroke: #000000; stroke-width: 0.8"/>
      </g>
     </g>
     <g id="text_3">
      <!-- 10 -->
      <g transform="translate(123.2375 203.598437)scale(0.1 -0.1)">
       <use xlink:href="#DejaVuSans-31"/>
       <use xlink:href="#DejaVuSans-30" x="63.623047"/>
      </g>
     </g>
    </g>
   </g>
   <g id="matplotlib.axis_2">
    <g id="ytick_1">
     <g id="line2d_4">
      <defs>
       <path id="mbcf116b62c" d="M 0 0 
L -3.5 0 
" style="stroke: #000000; stroke-width: 0.8"/>
      </defs>
      <g>
       <use xlink:href="#mbcf116b62c" x="18" y="189" style="stroke: #000000; stroke-width: 0.8"/>
      </g>
     </g>
     <g id="text_4">
      <!-- 15 -->
      <g transform="translate(-10.104688 192.799219)scale(0.1 -0.1)">
       <defs>
        <path id="DejaVuSans-35" d="M 691 4666 
L 3169 4666 
L 3169 4134 
L 1269 4134 
L 1269 2991 
Q 1406 3038 1543 3061 
Q 1681 3084 1819 3084 
Q 2600 3084 3056 2656 
Q 3513 2228 3513 1497 
Q 3513 744 3044 326 
Q 2575 -91 1722 -91 
Q 1428 -91 1123 -41 
Q 819 9 494 109 
L 494 744 
Q 775 591 1075 516 
Q 1375 441 1709 441 
Q 2250 441 2565 725 
Q 2881 1009 2881 1497 
Q 2881 1984 2565 2268 
Q 2250 2553 1709 2553 
Q 1456 2553 1204 2497 
Q 953 2441 691 2322 
L 691 4666 
z
" transform="scale(0.015625)"/>
       </defs>
       <use xlink:href="#DejaVuSans-2212"/>
       <use xlink:href="#DejaVuSans-31" x="83.789062"/>
       <use xlink:href="#DejaVuSans-35" x="147.412109"/>
      </g>
     </g>
    </g>
    <g id="ytick_2">
     <g id="line2d_5">
      <g>
       <use xlink:href="#mbcf116b62c" x="18" y="161.82" style="stroke: #000000; stroke-width: 0.8"/>
      </g>
     </g>
     <g id="text_5">
      <!-- 10 -->
      <g transform="translate(-10.104688 165.619219)scale(0.1 -0.1)">
       <use xlink:href="#DejaVuSans-2212"/>
       <use xlink:href="#DejaVuSans-31" x="83.789062"/>
       <use xlink:href="#DejaVuSans-30" x="147.412109"/>
      </g>
     </g>
    </g>
    <g id="ytick_3">
     <g id="line2d_6">
      <g>
       <use xlink:href="#mbcf116b62c" x="18" y="134.64" style="stroke: #000000; stroke-width: 0.8"/>
      </g>
     </g>
     <g id="text_6">
      <!-- 5 -->
      <g transform="translate(-3.742188 138.439219)scale(0.1 -0.1)">
       <use xlink:href="#DejaVuSans-2212"/>
       <use xlink:href="#DejaVuSans-35" x="83.789062"/>
      </g>
     </g>
    </g>
    <g id="ytick_4">
     <g id="line2d_7">
      <g>
       <use xlink:href="#mbcf116b62c" x="18" y="107.46" style="stroke: #000000; stroke-width: 0.8"/>
      </g>
     </g>
     <g id="text_7">
      <!-- 0 -->
      <g transform="translate(4.6375 111.259219)scale(0.1 -0.1)">
       <use xlink:href="#DejaVuSans-30"/>
      </g>
     </g>
    </g>
    <g id="ytick_5">
     <g id="line2d_8">
      <g>
       <use xlink:href="#mbcf116b62c" x="18" y="80.28" style="stroke: #000000; stroke-width: 0.8"/>
      </g>
     </g>
     <g id="text_8">
      <!-- 5 -->
      <g transform="translate(4.6375 84.079219)scale(0.1 -0.1)">
       <use xlink:href="#DejaVuSans-35"/>
      </g>
     </g>
    </g>
    <g id="ytick_6">
     <g id="line2d_9">
      <g>
       <use xlink:href="#mbcf116b62c" x="18" y="53.1" style="stroke: #000000; stroke-width: 0.8"/>
      </g>
     </g>
     <g id="text_9">
      <!-- 10 -->
      <g transform="translate(-1.725 56.899219)scale(0.1 -0.1)">
       <use xlink:href="#DejaVuSans-31"/>
       <use xlink:href="#DejaVuSans-30" x="63.623047"/>
      </g>
     </g>
    </g>
    <g id="ytick_7">
     <g id="line2d_10">
      <g>
       <use xlink:href="#mbcf116b62c" x="18" y="25.92" style="stroke: #000000; stroke-width: 0.8"/>
      </g>
     </g>
     <g id="text_10">
      <!-- 15 -->
      <g transform="translate(-1.725 29.719219)scale(0.1 -0.1)">
       <use xlink:href="#DejaVuSans-31"/>
       <use xlink:href="#DejaVuSans-35" x="63.623047"/>
      </g>
     </g>
    </g>
   </g>
   <g id="patch_3">
    <path d="M 18 189 
L 18 25.92 
" style="fill: none; stroke: #000000; stroke-width: 0.8; stroke-linejoin: miter; stroke-linecap: square"/>
   </g>
   <g id="patch_4">
    <path d="M 129.6 189 
L 129.6 25.92 
" style="fill: none; stroke: #000000; stroke-width: 0.8; stroke-linejoin: miter; stroke-linecap: square"/>
   </g>
   <g id="patch_5">
    <path d="M 18 189 
L 129.6 189 
" style="fill: none; stroke: #000000; stroke-width: 0.8; stroke-linejoin: miter; stroke-linecap: square"/>
   </g>
   <g id="patch_6">
    <path d="M 18 25.92 
L 129.6 25.92 
" style="fill: none; stroke: #000000; stroke-width: 0.8; stroke-linejoin: miter; stroke-linecap: square"/>
   </g>
  </g>
 </g>
 <defs>
  <clipPath id="pd525787dee">
   <rect x="18" y="25.92" width="111.6" height="163.08"/>
  </clipPath>
 </defs>
</svg>
