<?xml version="1.0" encoding="utf-8" standalone="no"?>
<!DOCTYPE svg PUBLIC "-//W3C//DTD SVG 1.1//EN"
  "http://www.w3.org/Graphics/SVG/1.1/DTD/svg11.dtd">
<svg xmlns:xlink="http://www.w3.org/1999/xlink" width="144pt" height="216pt" viewBox="0 0 144 216" xmlns="http://www.w3.org/2000/svg" version="1.1">
 <metadata>
  <rdf:RDF xmlns:dc="http://purl.org/dc/elements/1.1/" xmlns:cc="http://creativecommons.org/ns#" xmlns:rdf="http://www.w3.org/1999/02/22-rdf-syntax-ns#">
   <cc:Work>
    <dc:type rdf:resource="http://purl.org/dc/dcmitype/StillImage"/>
    <dc:date>2022-06-23T14:54:57.699704</dc:date>
    <dc:format>image/svg+xml</dc:format>
    <dc:creator>
     <cc:Agent>
      <dc:title>Matplotlib v3.5.1, https://matplotlib.org/</dc:title>
     </cc:Agent>
    </dc:creator>
   </cc:Work>
  </rdf:RDF>
 </metadata>
 <defs>
  <style type="text/css">*{stroke-linejoin: round; stroke-linecap: butt}</style>
 </defs>
 <g id="figure_1">
  <g id="patch_1">
   <path d="M 0 216 
L 144 216 
L 144 0 
L 0 0 
L 0 216 
z
" style="fill: none"/>
  </g>
  <g id="axes_1">
   <g id="patch_2">
    <path d="M 18 189 
L 129.6 189 
L 129.6 25.92 
L 18 25.92 
z
" style="fill: #ffffff"/>
   </g>
   <g id="PathCollection_1">
    <defs>
     <path id="md225126c21" d="M 0 2.738613 
C 0.726289 2.738613 1.422928 2.450055 1.936492 1.936492 
C 2.450055 1.422928 2.738613 0.726289 2.738613 0 
C 2.738613 -0.726289 2.450055 -1.422928 1.936492 -1.936492 
C 1.422928 -2.450055 0.726289 -2.738613 0 -2.738613 
C -0.726289 -2.738613 -1.422928 -2.450055 -1.936492 -1.936492 
C -2.450055 -1.422928 -2.738613 -0.726289 -2.738613 0 
C -2.738613 0.726289 -2.450055 1.422928 -1.936492 1.936492 
C -1.422928 2.450055 -0.726289 2.738613 0 2.738613 
z
" style="stroke: #ff0000; stroke-width: 1.75"/>
    </defs>
    <g clip-path="url(#pb1244b84c4)">
     <use xlink:href="#md225126c21" x="80.775" y="107.46" style="fill: #ff0000; stroke: #ff0000; stroke-width: 1.75"/>
     <use xlink:href="#md225126c21" x="94.725" y="107.46" style="fill: #ff0000; stroke: #ff0000; stroke-width: 1.75"/>
     <use xlink:href="#md225126c21" x="59.85" y="119.229285" style="fill: #ff0000; stroke: #ff0000; stroke-width: 1.75"/>
     <use xlink:href="#md225126c21" x="73.8" y="119.229285" style="fill: #ff0000; stroke: #ff0000; stroke-width: 1.75"/>
     <use xlink:href="#md225126c21" x="87.75" y="119.229285" style="fill: #ff0000; stroke: #ff0000; stroke-width: 1.75"/>
     <use xlink:href="#md225126c21" x="66.825" y="130.99857" style="fill: #ff0000; stroke: #ff0000; stroke-width: 1.75"/>
     <use xlink:href="#md225126c21" x="80.775" y="130.99857" style="fill: #ff0000; stroke: #ff0000; stroke-width: 1.75"/>
    </g>
   </g>
   <g id="PathCollection_2">
    <defs>
     <path id="C0_0_cdf8b856f4" d="M 0 2.738613 
C 0.726289 2.738613 1.422928 2.450055 1.936492 1.936492 
C 2.450055 1.422928 2.738613 0.726289 2.738613 -0 
C 2.738613 -0.726289 2.450055 -1.422928 1.936492 -1.936492 
C 1.422928 -2.450055 0.726289 -2.738613 0 -2.738613 
C -0.726289 -2.738613 -1.422928 -2.450055 -1.936492 -1.936492 
C -2.450055 -1.422928 -2.738613 -0.726289 -2.738613 0 
C -2.738613 0.726289 -2.450055 1.422928 -1.936492 1.936492 
C -1.422928 2.450055 -0.726289 2.738613 0 2.738613 
z
"/>
    </defs>
    <g clip-path="url(#pb1244b84c4)">
     <use xlink:href="#C0_0_cdf8b856f4" x="66.825" y="83.92143" style="fill: none; stroke: #ff0000; stroke-width: 1.75"/>
    </g>
    <g clip-path="url(#pb1244b84c4)">
     <use xlink:href="#C0_0_cdf8b856f4" x="80.775" y="83.92143" style="fill: none; stroke: #ff0000; stroke-width: 1.75"/>
    </g>
    <g clip-path="url(#pb1244b84c4)">
     <use xlink:href="#C0_0_cdf8b856f4" x="59.85" y="95.690715" style="fill: none; stroke: #ff0000; stroke-width: 1.75"/>
    </g>
    <g clip-path="url(#pb1244b84c4)">
     <use xlink:href="#C0_0_cdf8b856f4" x="73.8" y="95.690715" style="fill: none; stroke: #ff0000; stroke-width: 1.75"/>
    </g>
    <g clip-path="url(#pb1244b84c4)">
     <use xlink:href="#C0_0_cdf8b856f4" x="87.75" y="95.690715" style="fill: none; stroke: #ff0000; stroke-width: 1.75"/>
    </g>
    <g clip-path="url(#pb1244b84c4)">
     <use xlink:href="#C0_0_cdf8b856f4" x="52.875" y="107.46" style="fill: none; stroke: #ff0000; stroke-width: 1.75"/>
    </g>
    <g clip-path="url(#pb1244b84c4)">
     <use xlink:href="#C0_0_cdf8b856f4" x="66.825" y="107.46" style="fill: none; stroke: #ff0000; stroke-width: 1.75"/>
    </g>
   </g>
   <g id="PathCollection_3">
    <path d="M 109.342891 64.139026 
C 109.475493 64.139026 109.602681 64.086343 109.696445 63.99258 
C 109.790208 63.898816 109.842891 63.771628 109.842891 63.639026 
C 109.842891 63.506425 109.790208 63.379236 109.696445 63.285473 
C 109.602681 63.19171 109.475493 63.139026 109.342891 63.139026 
C 109.21029 63.139026 109.083102 63.19171 108.989338 63.285473 
C 108.895575 63.379236 108.842891 63.506425 108.842891 63.639026 
C 108.842891 63.771628 108.895575 63.898816 108.989338 63.99258 
C 109.083102 64.086343 109.21029 64.139026 109.342891 64.139026 
z
" clip-path="url(#pb1244b84c4)" style="stroke: #000000"/>
    <path d="M 105.895356 57.345998 
C 106.027958 57.345998 106.155146 57.293315 106.24891 57.199552 
C 106.342673 57.105788 106.395356 56.9786 106.395356 56.845998 
C 106.395356 56.713397 106.342673 56.586208 106.24891 56.492445 
C 106.155146 56.398681 106.027958 56.345998 105.895356 56.345998 
C 105.762755 56.345998 105.635567 56.398681 105.541803 56.492445 
C 105.44804 56.586208 105.395356 56.713397 105.395356 56.845998 
C 105.395356 56.9786 105.44804 57.105788 105.541803 57.199552 
C 105.635567 57.293315 105.762755 57.345998 105.895356 57.345998 
z
" clip-path="url(#pb1244b84c4)" style="stroke: #000000"/>
    <path d="M 97.752449 46.624557 
C 97.91014 46.624557 98.061393 46.561906 98.172898 46.450402 
C 98.284402 46.338898 98.347053 46.187644 98.347053 46.029954 
C 98.347053 45.872263 98.284402 45.72101 98.172898 45.609505 
C 98.061393 45.498001 97.91014 45.43535 97.752449 45.43535 
C 97.594759 45.43535 97.443505 45.498001 97.332001 45.609505 
C 97.220497 45.72101 97.157846 45.872263 97.157846 46.029954 
C 97.157846 46.187644 97.220497 46.338898 97.332001 46.450402 
C 97.443505 46.561906 97.594759 46.624557 97.752449 46.624557 
z
" clip-path="url(#pb1244b84c4)" style="stroke: #000000"/>
    <path d="M 114.729221 122.019504 
C 114.861823 122.019504 114.989011 121.966821 115.082775 121.873058 
C 115.176538 121.779294 115.229221 121.652106 115.229221 121.519504 
C 115.229221 121.386903 115.176538 121.259714 115.082775 121.165951 
C 114.989011 121.072187 114.861823 121.019504 114.729221 121.019504 
C 114.59662 121.019504 114.469431 121.072187 114.375668 121.165951 
C 114.281904 121.259714 114.229221 121.386903 114.229221 121.519504 
C 114.229221 121.652106 114.281904 121.779294 114.375668 121.873058 
C 114.469431 121.966821 114.59662 122.019504 114.729221 122.019504 
z
" clip-path="url(#pb1244b84c4)" style="stroke: #000000"/>
    <path d="M 113.921564 115.826883 
C 114.514946 115.826883 115.084105 115.59113 115.50369 115.171545 
C 115.923274 114.75196 116.159028 114.182802 116.159028 113.589419 
C 116.159028 112.996037 115.923274 112.426878 115.50369 112.007293 
C 115.084105 111.587708 114.514946 111.351955 113.921564 111.351955 
C 113.328181 111.351955 112.759022 111.587708 112.339437 112.007293 
C 111.919853 112.426878 111.684099 112.996037 111.684099 113.589419 
C 111.684099 114.182802 111.919853 114.75196 112.339437 115.171545 
C 112.759022 115.59113 113.328181 115.826883 113.921564 115.826883 
z
" clip-path="url(#pb1244b84c4)" style="stroke: #000000"/>
    <path d="M 108.042418 100.067131 
C 108.541702 100.067131 109.020604 99.868764 109.373651 99.515716 
C 109.726698 99.162669 109.925066 98.683768 109.925066 98.184484 
C 109.925066 97.6852 109.726698 97.206298 109.373651 96.853251 
C 109.020604 96.500204 108.541702 96.301836 108.042418 96.301836 
C 107.543134 96.301836 107.064232 96.500204 106.711185 96.853251 
C 106.358138 97.206298 106.159771 97.6852 106.159771 98.184484 
C 106.159771 98.683768 106.358138 99.162669 106.711185 99.515716 
C 107.064232 99.868764 107.543134 100.067131 108.042418 100.067131 
z
" clip-path="url(#pb1244b84c4)" style="stroke: #000000"/>
    <path d="M 101.898174 66.403093 
C 102.491186 66.403093 103.05999 66.167487 103.479313 65.748164 
C 103.898636 65.328841 104.134242 64.760037 104.134242 64.167025 
C 104.134242 63.574013 103.898636 63.005209 103.479313 62.585886 
C 103.05999 62.166563 102.491186 61.930957 101.898174 61.930957 
C 101.305162 61.930957 100.736358 62.166563 100.317035 62.585886 
C 99.897713 63.005209 99.662106 63.574013 99.662106 64.167025 
C 99.662106 64.760037 99.897713 65.328841 100.317035 65.748164 
C 100.736358 66.167487 101.305162 66.403093 101.898174 66.403093 
z
" clip-path="url(#pb1244b84c4)" style="stroke: #000000"/>
    <path d="M 94.403569 61.961757 
C 94.53617 61.961757 94.663359 61.909074 94.757122 61.81531 
C 94.850886 61.721547 94.903569 61.594358 94.903569 61.461757 
C 94.903569 61.329155 94.850886 61.201967 94.757122 61.108204 
C 94.663359 61.01444 94.53617 60.961757 94.403569 60.961757 
C 94.270967 60.961757 94.143779 61.01444 94.050015 61.108204 
C 93.956252 61.201967 93.903569 61.329155 93.903569 61.461757 
C 93.903569 61.594358 93.956252 61.721547 94.050015 61.81531 
C 94.143779 61.909074 94.270967 61.961757 94.403569 61.961757 
z
" clip-path="url(#pb1244b84c4)" style="stroke: #000000"/>
    <path d="M 86.798433 49.055339 
C 87.391074 49.055339 87.959522 48.81988 88.378583 48.40082 
C 88.797643 47.981759 89.033102 47.413311 89.033102 46.82067 
C 89.033102 46.228029 88.797643 45.659581 88.378583 45.24052 
C 87.959522 44.82146 87.391074 44.586001 86.798433 44.586001 
C 86.205792 44.586001 85.637344 44.82146 85.218283 45.24052 
C 84.799223 45.659581 84.563764 46.228029 84.563764 46.82067 
C 84.563764 47.413311 84.799223 47.981759 85.218283 48.40082 
C 85.637344 48.81988 86.205792 49.055339 86.798433 49.055339 
z
" clip-path="url(#pb1244b84c4)" style="stroke: #000000"/>
    <path d="M 82.548806 29.590269 
C 83.04809 29.590269 83.526991 29.391902 83.880039 29.038854 
C 84.233086 28.685807 84.431453 28.206906 84.431453 27.707622 
C 84.431453 27.208338 84.233086 26.729436 83.880039 26.376389 
C 83.526991 26.023342 83.04809 25.824974 82.548806 25.824974 
C 82.049522 25.824974 81.57062 26.023342 81.217573 26.376389 
C 80.864526 26.729436 80.666158 27.208338 80.666158 27.707622 
C 80.666158 28.206906 80.864526 28.685807 81.217573 29.038854 
C 81.57062 29.391902 82.049522 29.590269 82.548806 29.590269 
z
" clip-path="url(#pb1244b84c4)" style="stroke: #000000"/>
    <path d="M 121.668565 165.616801 
C 122.169701 165.616801 122.65038 165.417698 123.004737 165.063341 
C 123.359094 164.708983 123.558198 164.228305 123.558198 163.727168 
C 123.558198 163.226031 123.359094 162.745353 123.004737 162.390995 
C 122.65038 162.036638 122.169701 161.837535 121.668565 161.837535 
C 121.167428 161.837535 120.686749 162.036638 120.332392 162.390995 
C 119.978035 162.745353 119.778931 163.226031 119.778931 163.727168 
C 119.778931 164.228305 119.978035 164.708983 120.332392 165.063341 
C 120.686749 165.417698 121.167428 165.616801 121.668565 165.616801 
z
" clip-path="url(#pb1244b84c4)" style="stroke: #000000"/>
    <path d="M 113.027495 143.726875 
C 113.620877 143.726875 114.190036 143.491121 114.609621 143.071537 
C 115.029206 142.651952 115.264959 142.082793 115.264959 141.48941 
C 115.264959 140.896028 115.029206 140.326869 114.609621 139.907284 
C 114.190036 139.4877 113.620877 139.251946 113.027495 139.251946 
C 112.434112 139.251946 111.864954 139.4877 111.445369 139.907284 
C 111.025784 140.326869 110.790031 140.896028 110.790031 141.48941 
C 110.790031 142.082793 111.025784 142.651952 111.445369 143.071537 
C 111.864954 143.491121 112.434112 143.726875 113.027495 143.726875 
z
" clip-path="url(#pb1244b84c4)" style="stroke: #000000"/>
    <path d="M 112.479408 138.694475 
C 113.07279 138.694475 113.641949 138.458721 114.061534 138.039137 
C 114.481119 137.619552 114.716872 137.050393 114.716872 136.45701 
C 114.716872 135.863628 114.481119 135.294469 114.061534 134.874884 
C 113.641949 134.4553 113.07279 134.219546 112.479408 134.219546 
C 111.886025 134.219546 111.316866 134.4553 110.897282 134.874884 
C 110.477697 135.294469 110.241943 135.863628 110.241943 136.45701 
C 110.241943 137.050393 110.477697 137.619552 110.897282 138.039137 
C 111.316866 138.458721 111.886025 138.694475 112.479408 138.694475 
z
" clip-path="url(#pb1244b84c4)" style="stroke: #000000"/>
    <path d="M 103.51358 124.64769 
C 104.106962 124.64769 104.676121 124.411936 105.095706 123.992351 
C 105.515291 123.572767 105.751044 123.003608 105.751044 122.410225 
C 105.751044 121.816843 105.515291 121.247684 105.095706 120.828099 
C 104.676121 120.408514 104.106962 120.172761 103.51358 120.172761 
C 102.920197 120.172761 102.351038 120.408514 101.931454 120.828099 
C 101.511869 121.247684 101.276115 121.816843 101.276115 122.410225 
C 101.276115 123.003608 101.511869 123.572767 101.931454 123.992351 
C 102.351038 124.411936 102.920197 124.64769 103.51358 124.64769 
z
" clip-path="url(#pb1244b84c4)" style="stroke: #000000"/>
    <path d="M 104.63812 113.014208 
C 105.174134 113.014208 105.688267 112.801248 106.067287 112.422228 
C 106.446306 112.043209 106.659267 111.529076 106.659267 110.993062 
C 106.659267 110.457047 106.446306 109.942915 106.067287 109.563895 
C 105.688267 109.184876 105.174134 108.971915 104.63812 108.971915 
C 104.102106 108.971915 103.587973 109.184876 103.208954 109.563895 
C 102.829934 109.942915 102.616974 110.457047 102.616974 110.993062 
C 102.616974 111.529076 102.829934 112.043209 103.208954 112.422228 
C 103.587973 112.801248 104.102106 113.014208 104.63812 113.014208 
z
" clip-path="url(#pb1244b84c4)" style="stroke: #000000"/>
    <path d="M 99.943213 101.807493 
C 100.349347 101.807493 100.738901 101.646134 101.026081 101.358954 
C 101.313261 101.071774 101.47462 100.68222 101.47462 100.276086 
C 101.47462 99.869952 101.313261 99.480397 101.026081 99.193217 
C 100.738901 98.906037 100.349347 98.744679 99.943213 98.744679 
C 99.537079 98.744679 99.147525 98.906037 98.860345 99.193217 
C 98.573164 99.480397 98.411806 99.869952 98.411806 100.276086 
C 98.411806 100.68222 98.573164 101.071774 98.860345 101.358954 
C 99.147525 101.646134 99.537079 101.807493 99.943213 101.807493 
z
" clip-path="url(#pb1244b84c4)" style="stroke: #000000"/>
    <path d="M 97.558267 88.396881 
C 97.690869 88.396881 97.818057 88.344198 97.911821 88.250435 
C 98.005584 88.156671 98.058267 88.029483 98.058267 87.896881 
C 98.058267 87.76428 98.005584 87.637091 97.911821 87.543328 
C 97.818057 87.449564 97.690869 87.396881 97.558267 87.396881 
C 97.425666 87.396881 97.298477 87.449564 97.204714 87.543328 
C 97.11095 87.637091 97.058267 87.76428 97.058267 87.896881 
C 97.058267 88.029483 97.11095 88.156671 97.204714 88.250435 
C 97.298477 88.344198 97.425666 88.396881 97.558267 88.396881 
z
" clip-path="url(#pb1244b84c4)" style="stroke: #000000"/>
    <path d="M 92.691362 85.923313 
C 93.227376 85.923313 93.741509 85.710352 94.120529 85.331333 
C 94.499548 84.952314 94.712509 84.438181 94.712509 83.902166 
C 94.712509 83.366152 94.499548 82.852019 94.120529 82.473 
C 93.741509 82.093981 93.227376 81.88102 92.691362 81.88102 
C 92.155348 81.88102 91.641215 82.093981 91.262196 82.473 
C 90.883176 82.852019 90.670215 83.366152 90.670215 83.902166 
C 90.670215 84.438181 90.883176 84.952314 91.262196 85.331333 
C 91.641215 85.710352 92.155348 85.923313 92.691362 85.923313 
z
" clip-path="url(#pb1244b84c4)" style="stroke: #000000"/>
    <path d="M 81.585727 38.809658 
C 81.718328 38.809658 81.845517 38.756975 81.93928 38.663212 
C 82.033044 38.569448 82.085727 38.44226 82.085727 38.309658 
C 82.085727 38.177057 82.033044 38.049868 81.93928 37.956105 
C 81.845517 37.862341 81.718328 37.809658 81.585727 37.809658 
C 81.453125 37.809658 81.325937 37.862341 81.232173 37.956105 
C 81.13841 38.049868 81.085727 38.177057 81.085727 38.309658 
C 81.085727 38.44226 81.13841 38.569448 81.232173 38.663212 
C 81.325937 38.756975 81.453125 38.809658 81.585727 38.809658 
z
" clip-path="url(#pb1244b84c4)" style="stroke: #000000"/>
    <path d="M 75.546681 35.06702 
C 76.045964 35.06702 76.524866 34.868652 76.877913 34.515605 
C 77.23096 34.162558 77.429328 33.683657 77.429328 33.184373 
C 77.429328 32.685089 77.23096 32.206187 76.877913 31.85314 
C 76.524866 31.500093 76.045964 31.301725 75.546681 31.301725 
C 75.047397 31.301725 74.568495 31.500093 74.215448 31.85314 
C 73.862401 32.206187 73.664033 32.685089 73.664033 33.184373 
C 73.664033 33.683657 73.862401 34.162558 74.215448 34.515605 
C 74.568495 34.868652 75.047397 35.06702 75.546681 35.06702 
z
" clip-path="url(#pb1244b84c4)" style="stroke: #000000"/>
    <path d="M 109.224553 168.725965 
C 109.357154 168.725965 109.484343 168.673282 109.578106 168.579519 
C 109.67187 168.485755 109.724553 168.358567 109.724553 168.225965 
C 109.724553 168.093364 109.67187 167.966175 109.578106 167.872412 
C 109.484343 167.778648 109.357154 167.725965 109.224553 167.725965 
C 109.091951 167.725965 108.964763 167.778648 108.870999 167.872412 
C 108.777236 167.966175 108.724553 168.093364 108.724553 168.225965 
C 108.724553 168.358567 108.777236 168.485755 108.870999 168.579519 
C 108.964763 168.673282 109.091951 168.725965 109.224553 168.725965 
z
" clip-path="url(#pb1244b84c4)" style="stroke: #000000"/>
    <path d="M 106.978548 156.409407 
C 107.57156 156.409407 108.140364 156.173801 108.559687 155.754478 
C 108.97901 155.335155 109.214616 154.766352 109.214616 154.173339 
C 109.214616 153.580327 108.97901 153.011524 108.559687 152.592201 
C 108.140364 152.172878 107.57156 151.937271 106.978548 151.937271 
C 106.385536 151.937271 105.816732 152.172878 105.397409 152.592201 
C 104.978086 153.011524 104.74248 153.580327 104.74248 154.173339 
C 104.74248 154.766352 104.978086 155.335155 105.397409 155.754478 
C 105.816732 156.173801 106.385536 156.409407 106.978548 156.409407 
z
" clip-path="url(#pb1244b84c4)" style="stroke: #000000"/>
    <path d="M 105.476283 145.11629 
C 105.608885 145.11629 105.736073 145.063607 105.829837 144.969844 
C 105.9236 144.87608 105.976283 144.748892 105.976283 144.61629 
C 105.976283 144.483689 105.9236 144.3565 105.829837 144.262737 
C 105.736073 144.168973 105.608885 144.11629 105.476283 144.11629 
C 105.343682 144.11629 105.216493 144.168973 105.12273 144.262737 
C 105.028967 144.3565 104.976283 144.483689 104.976283 144.61629 
C 104.976283 144.748892 105.028967 144.87608 105.12273 144.969844 
C 105.216493 145.063607 105.343682 145.11629 105.476283 145.11629 
z
" clip-path="url(#pb1244b84c4)" style="stroke: #000000"/>
    <path d="M 100.839045 139.739639 
C 101.141312 139.739639 101.431238 139.619548 101.644973 139.405813 
C 101.858707 139.192079 101.978799 138.902152 101.978799 138.599886 
C 101.978799 138.29762 101.858707 138.007693 101.644973 137.793958 
C 101.431238 137.580224 101.141312 137.460132 100.839045 137.460132 
C 100.536779 137.460132 100.246852 137.580224 100.033118 137.793958 
C 99.819383 138.007693 99.699292 138.29762 99.699292 138.599886 
C 99.699292 138.902152 99.819383 139.192079 100.033118 139.405813 
C 100.246852 139.619548 100.536779 139.739639 100.839045 139.739639 
z
" clip-path="url(#pb1244b84c4)" style="stroke: #000000"/>
    <path d="M 92.596639 122.401651 
C 93.190021 122.401651 93.75918 122.165898 94.178765 121.746313 
C 94.598349 121.326729 94.834103 120.75757 94.834103 120.164187 
C 94.834103 119.570805 94.598349 119.001646 94.178765 118.582061 
C 93.75918 118.162476 93.190021 117.926723 92.596639 117.926723 
C 92.003256 117.926723 91.434097 118.162476 91.014512 118.582061 
C 90.594928 119.001646 90.359174 119.570805 90.359174 120.164187 
C 90.359174 120.75757 90.594928 121.326729 91.014512 121.746313 
C 91.434097 122.165898 92.003256 122.401651 92.596639 122.401651 
z
" clip-path="url(#pb1244b84c4)" style="stroke: #000000"/>
    <path d="M 88.774319 98.824369 
C 89.368808 98.824369 89.939029 98.588176 90.359396 98.167809 
C 90.779763 97.747441 91.015956 97.177221 91.015956 96.582732 
C 91.015956 95.988243 90.779763 95.418022 90.359396 94.997655 
C 89.939029 94.577288 89.368808 94.341095 88.774319 94.341095 
C 88.17983 94.341095 87.609609 94.577288 87.189242 94.997655 
C 86.768875 95.418022 86.532682 95.988243 86.532682 96.582732 
C 86.532682 97.177221 86.768875 97.747441 87.189242 98.167809 
C 87.609609 98.588176 88.17983 98.824369 88.774319 98.824369 
z
" clip-path="url(#pb1244b84c4)" style="stroke: #000000"/>
    <path d="M 84.406385 90.106754 
C 84.999768 90.106754 85.568927 89.871 85.988512 89.451415 
C 86.408096 89.031831 86.64385 88.462672 86.64385 87.869289 
C 86.64385 87.275907 86.408096 86.706748 85.988512 86.287163 
C 85.568927 85.867579 84.999768 85.631825 84.406385 85.631825 
C 83.813003 85.631825 83.243844 85.867579 82.824259 86.287163 
C 82.404675 86.706748 82.168921 87.275907 82.168921 87.869289 
C 82.168921 88.462672 82.404675 89.031831 82.824259 89.451415 
C 83.243844 89.871 83.813003 90.106754 84.406385 90.106754 
z
" clip-path="url(#pb1244b84c4)" style="stroke: #000000"/>
    <path d="M 78.667654 78.949058 
C 79.261037 78.949058 79.830196 78.713305 80.24978 78.29372 
C 80.669365 77.874135 80.905119 77.304977 80.905119 76.711594 
C 80.905119 76.118212 80.669365 75.549053 80.24978 75.129468 
C 79.830196 74.709883 79.261037 74.47413 78.667654 74.47413 
C 78.074272 74.47413 77.505113 74.709883 77.085528 75.129468 
C 76.665943 75.549053 76.43019 76.118212 76.43019 76.711594 
C 76.43019 77.304977 76.665943 77.874135 77.085528 78.29372 
C 77.505113 78.713305 78.074272 78.949058 78.667654 78.949058 
z
" clip-path="url(#pb1244b84c4)" style="stroke: #000000"/>
    <path d="M 76.762915 70.681291 
C 77.356298 70.681291 77.925457 70.445538 78.345041 70.025953 
C 78.764626 69.606369 79.000379 69.03721 79.000379 68.443827 
C 79.000379 67.850445 78.764626 67.281286 78.345041 66.861701 
C 77.925457 66.442116 77.356298 66.206363 76.762915 66.206363 
C 76.169533 66.206363 75.600374 66.442116 75.180789 66.861701 
C 74.761204 67.281286 74.525451 67.850445 74.525451 68.443827 
C 74.525451 69.03721 74.761204 69.606369 75.180789 70.025953 
C 75.600374 70.445538 76.169533 70.681291 76.762915 70.681291 
z
" clip-path="url(#pb1244b84c4)" style="stroke: #000000"/>
    <path d="M 70.916434 55.832821 
C 71.509446 55.832821 72.07825 55.597215 72.497573 55.177892 
C 72.916896 54.758569 73.152502 54.189766 73.152502 53.596753 
C 73.152502 53.003741 72.916896 52.434937 72.497573 52.015615 
C 72.07825 51.596292 71.509446 51.360685 70.916434 51.360685 
C 70.323422 51.360685 69.754618 51.596292 69.335295 52.015615 
C 68.915972 52.434937 68.680366 53.003741 68.680366 53.596753 
C 68.680366 54.189766 68.915972 54.758569 69.335295 55.177892 
C 69.754618 55.597215 70.323422 55.832821 70.916434 55.832821 
z
" clip-path="url(#pb1244b84c4)" style="stroke: #000000"/>
    <path d="M 68.075415 46.05095 
C 68.516111 46.05095 68.938816 45.87586 69.250435 45.564241 
C 69.562053 45.252623 69.737144 44.829918 69.737144 44.389222 
C 69.737144 43.948527 69.562053 43.525822 69.250435 43.214203 
C 68.938816 42.902584 68.516111 42.727494 68.075415 42.727494 
C 67.63472 42.727494 67.212015 42.902584 66.900396 43.214203 
C 66.588777 43.525822 66.413687 43.948527 66.413687 44.389222 
C 66.413687 44.829918 66.588777 45.252623 66.900396 45.564241 
C 67.212015 45.87586 67.63472 46.05095 68.075415 46.05095 
z
" clip-path="url(#pb1244b84c4)" style="stroke: #000000"/>
    <path d="M 60.748139 27.259225 
C 60.880741 27.259225 61.007929 27.206542 61.101693 27.112779 
C 61.195456 27.019015 61.248139 26.891827 61.248139 26.759225 
C 61.248139 26.626624 61.195456 26.499435 61.101693 26.405672 
C 61.007929 26.311909 60.880741 26.259225 60.748139 26.259225 
C 60.615538 26.259225 60.488349 26.311909 60.394586 26.405672 
C 60.300822 26.499435 60.248139 26.626624 60.248139 26.759225 
C 60.248139 26.891827 60.300822 27.019015 60.394586 27.112779 
C 60.488349 27.206542 60.615538 27.259225 60.748139 27.259225 
z
" clip-path="url(#pb1244b84c4)" style="stroke: #000000"/>
    <path d="M 96.76794 175.96519 
C 96.900541 175.96519 97.02773 175.912507 97.121493 175.818743 
C 97.215257 175.72498 97.26794 175.597791 97.26794 175.46519 
C 97.26794 175.332588 97.215257 175.2054 97.121493 175.111636 
C 97.02773 175.017873 96.900541 174.96519 96.76794 174.96519 
C 96.635338 174.96519 96.50815 175.017873 96.414386 175.111636 
C 96.320623 175.2054 96.26794 175.332588 96.26794 175.46519 
C 96.26794 175.597791 96.320623 175.72498 96.414386 175.818743 
C 96.50815 175.912507 96.635338 175.96519 96.76794 175.96519 
z
" clip-path="url(#pb1244b84c4)" style="stroke: #000000"/>
    <path d="M 95.180291 147.732776 
C 95.773673 147.732776 96.342832 147.497023 96.762417 147.077438 
C 97.182002 146.657854 97.417755 146.088695 97.417755 145.495312 
C 97.417755 144.90193 97.182002 144.332771 96.762417 143.913186 
C 96.342832 143.493601 95.773673 143.257848 95.180291 143.257848 
C 94.586908 143.257848 94.017749 143.493601 93.598165 143.913186 
C 93.17858 144.332771 92.942827 144.90193 92.942827 145.495312 
C 92.942827 146.088695 93.17858 146.657854 93.598165 147.077438 
C 94.017749 147.497023 94.586908 147.732776 95.180291 147.732776 
z
" clip-path="url(#pb1244b84c4)" style="stroke: #000000"/>
    <path d="M 89.978833 139.664243 
C 90.514847 139.664243 91.02898 139.451282 91.407999 139.072263 
C 91.787019 138.693244 91.999979 138.179111 91.999979 137.643097 
C 91.999979 137.107082 91.787019 136.59295 91.407999 136.21393 
C 91.02898 135.834911 90.514847 135.62195 89.978833 135.62195 
C 89.442818 135.62195 88.928686 135.834911 88.549666 136.21393 
C 88.170647 136.59295 87.957686 137.107082 87.957686 137.643097 
C 87.957686 138.179111 88.170647 138.693244 88.549666 139.072263 
C 88.928686 139.451282 89.442818 139.664243 89.978833 139.664243 
z
" clip-path="url(#pb1244b84c4)" style="stroke: #000000"/>
    <path d="M 84.96955 135.382781 
C 85.562932 135.382781 86.132091 135.147027 86.551676 134.727443 
C 86.971261 134.307858 87.207014 133.738699 87.207014 133.145316 
C 87.207014 132.551934 86.971261 131.982775 86.551676 131.56319 
C 86.132091 131.143606 85.562932 130.907852 84.96955 130.907852 
C 84.376167 130.907852 83.807008 131.143606 83.387424 131.56319 
C 82.967839 131.982775 82.732086 132.551934 82.732086 133.145316 
C 82.732086 133.738699 82.967839 134.307858 83.387424 134.727443 
C 83.807008 135.147027 84.376167 135.382781 84.96955 135.382781 
z
" clip-path="url(#pb1244b84c4)" style="stroke: #000000"/>
    <path d="M 85.389496 119.206713 
C 85.982878 119.206713 86.552037 118.970959 86.971622 118.551375 
C 87.391207 118.13179 87.62696 117.562631 87.62696 116.969248 
C 87.62696 116.375866 87.391207 115.806707 86.971622 115.387122 
C 86.552037 114.967538 85.982878 114.731784 85.389496 114.731784 
C 84.796113 114.731784 84.226955 114.967538 83.80737 115.387122 
C 83.387785 115.806707 83.152032 116.375866 83.152032 116.969248 
C 83.152032 117.562631 83.387785 118.13179 83.80737 118.551375 
C 84.226955 118.970959 84.796113 119.206713 85.389496 119.206713 
z
" clip-path="url(#pb1244b84c4)" style="stroke: #000000"/>
    <path d="M 77.772233 104.702521 
C 78.028729 104.702521 78.274754 104.600614 78.456124 104.419244 
C 78.637494 104.237874 78.739401 103.991849 78.739401 103.735353 
C 78.739401 103.478857 78.637494 103.232832 78.456124 103.051462 
C 78.274754 102.870092 78.028729 102.768185 77.772233 102.768185 
C 77.515737 102.768185 77.269711 102.870092 77.088341 103.051462 
C 76.906971 103.232832 76.805064 103.478857 76.805064 103.735353 
C 76.805064 103.991849 76.906971 104.237874 77.088341 104.419244 
C 77.269711 104.600614 77.515737 104.702521 77.772233 104.702521 
z
" clip-path="url(#pb1244b84c4)" style="stroke: #000000"/>
    <path d="M 74.739492 100.562895 
C 75.332875 100.562895 75.902034 100.327142 76.321618 99.907557 
C 76.741203 99.487973 76.976956 98.918814 76.976956 98.325431 
C 76.976956 97.732049 76.741203 97.16289 76.321618 96.743305 
C 75.902034 96.32372 75.332875 96.087967 74.739492 96.087967 
C 74.14611 96.087967 73.576951 96.32372 73.157366 96.743305 
C 72.737781 97.16289 72.502028 97.732049 72.502028 98.325431 
C 72.502028 98.918814 72.737781 99.487973 73.157366 99.907557 
C 73.576951 100.327142 74.14611 100.562895 74.739492 100.562895 
z
" clip-path="url(#pb1244b84c4)" style="stroke: #000000"/>
    <path d="M 66.839557 91.762135 
C 67.378063 91.762135 67.894586 91.548184 68.275368 91.167403 
C 68.656149 90.786621 68.8701 90.270098 68.8701 89.731592 
C 68.8701 89.193086 68.656149 88.676563 68.275368 88.295781 
C 67.894586 87.915 67.378063 87.701049 66.839557 87.701049 
C 66.30105 87.701049 65.784527 87.915 65.403746 88.295781 
C 65.022964 88.676563 64.809014 89.193086 64.809014 89.731592 
C 64.809014 90.270098 65.022964 90.786621 65.403746 91.167403 
C 65.784527 91.548184 66.30105 91.762135 66.839557 91.762135 
z
" clip-path="url(#pb1244b84c4)" style="stroke: #000000"/>
    <path d="M 62.771273 85.186236 
C 63.364656 85.186236 63.933815 84.950483 64.353399 84.530898 
C 64.772984 84.111313 65.008737 83.542154 65.008737 82.948772 
C 65.008737 82.355389 64.772984 81.786231 64.353399 81.366646 
C 63.933815 80.947061 63.364656 80.711308 62.771273 80.711308 
C 62.177891 80.711308 61.608732 80.947061 61.189147 81.366646 
C 60.769562 81.786231 60.533809 82.355389 60.533809 82.948772 
C 60.533809 83.542154 60.769562 84.111313 61.189147 84.530898 
C 61.608732 84.950483 62.177891 85.186236 62.771273 85.186236 
z
" clip-path="url(#pb1244b84c4)" style="stroke: #000000"/>
    <path d="M 57.223293 59.805375 
C 57.816305 59.805375 58.385109 59.569769 58.804432 59.150446 
C 59.223755 58.731123 59.459361 58.162319 59.459361 57.569307 
C 59.459361 56.976295 59.223755 56.407491 58.804432 55.988168 
C 58.385109 55.568845 57.816305 55.333239 57.223293 55.333239 
C 56.630281 55.333239 56.061477 55.568845 55.642154 55.988168 
C 55.222831 56.407491 54.987225 56.976295 54.987225 57.569307 
C 54.987225 58.162319 55.222831 58.731123 55.642154 59.150446 
C 56.061477 59.569769 56.630281 59.805375 57.223293 59.805375 
z
" clip-path="url(#pb1244b84c4)" style="stroke: #000000"/>
    <path d="M 53.626637 41.570506 
C 54.160632 41.570506 54.672829 41.358347 55.05042 40.980756 
C 55.428012 40.603164 55.640171 40.090968 55.640171 39.556972 
C 55.640171 39.022977 55.428012 38.510781 55.05042 38.133189 
C 54.672829 37.755597 54.160632 37.543438 53.626637 37.543438 
C 53.092642 37.543438 52.580445 37.755597 52.202854 38.133189 
C 51.825262 38.510781 51.613103 39.022977 51.613103 39.556972 
C 51.613103 40.090968 51.825262 40.603164 52.202854 40.980756 
C 52.580445 41.358347 53.092642 41.570506 53.626637 41.570506 
z
" clip-path="url(#pb1244b84c4)" style="stroke: #000000"/>
    <path d="M 90.401776 176.488813 
C 90.600062 176.488813 90.790253 176.410033 90.930462 176.269824 
C 91.070671 176.129615 91.149451 175.939424 91.149451 175.741138 
C 91.149451 175.542853 91.070671 175.352662 90.930462 175.212453 
C 90.790253 175.072244 90.600062 174.993464 90.401776 174.993464 
C 90.203491 174.993464 90.0133 175.072244 89.873091 175.212453 
C 89.732882 175.352662 89.654102 175.542853 89.654102 175.741138 
C 89.654102 175.939424 89.732882 176.129615 89.873091 176.269824 
C 90.0133 176.410033 90.203491 176.488813 90.401776 176.488813 
z
" clip-path="url(#pb1244b84c4)" style="stroke: #000000"/>
    <path d="M 83.661661 169.901874 
C 84.168236 169.901874 84.654131 169.700609 85.012333 169.342407 
C 85.370535 168.984204 85.5718 168.49831 85.5718 167.991735 
C 85.5718 167.48516 85.370535 166.999265 85.012333 166.641063 
C 84.654131 166.28286 84.168236 166.081596 83.661661 166.081596 
C 83.155086 166.081596 82.669191 166.28286 82.310989 166.641063 
C 81.952786 166.999265 81.751522 167.48516 81.751522 167.991735 
C 81.751522 168.49831 81.952786 168.984204 82.310989 169.342407 
C 82.669191 169.700609 83.155086 169.901874 83.661661 169.901874 
z
" clip-path="url(#pb1244b84c4)" style="stroke: #000000"/>
    <path d="M 79.882519 144.357239 
C 80.475902 144.357239 81.045061 144.121486 81.464646 143.701901 
C 81.88423 143.282316 82.119984 142.713158 82.119984 142.119775 
C 82.119984 141.526393 81.88423 140.957234 81.464646 140.537649 
C 81.045061 140.118064 80.475902 139.882311 79.882519 139.882311 
C 79.289137 139.882311 78.719978 140.118064 78.300393 140.537649 
C 77.880809 140.957234 77.645055 141.526393 77.645055 142.119775 
C 77.645055 142.713158 77.880809 143.282316 78.300393 143.701901 
C 78.719978 144.121486 79.289137 144.357239 79.882519 144.357239 
z
" clip-path="url(#pb1244b84c4)" style="stroke: #000000"/>
    <path d="M 76.595005 136.16539 
C 77.116922 136.16539 77.617533 135.958031 77.986584 135.588979 
C 78.355635 135.219928 78.562995 134.719318 78.562995 134.197401 
C 78.562995 133.675484 78.355635 133.174873 77.986584 132.805822 
C 77.617533 132.436771 77.116922 132.229411 76.595005 132.229411 
C 76.073088 132.229411 75.572478 132.436771 75.203427 132.805822 
C 74.834375 133.174873 74.627016 133.675484 74.627016 134.197401 
C 74.627016 134.719318 74.834375 135.219928 75.203427 135.588979 
C 75.572478 135.958031 76.073088 136.16539 76.595005 136.16539 
z
" clip-path="url(#pb1244b84c4)" style="stroke: #000000"/>
    <path d="M 72.181078 120.78282 
C 72.77446 120.78282 73.343619 120.547066 73.763204 120.127482 
C 74.182789 119.707897 74.418542 119.138738 74.418542 118.545356 
C 74.418542 117.951973 74.182789 117.382814 73.763204 116.963229 
C 73.343619 116.543645 72.77446 116.307891 72.181078 116.307891 
C 71.587695 116.307891 71.018536 116.543645 70.598952 116.963229 
C 70.179367 117.382814 69.943614 117.951973 69.943614 118.545356 
C 69.943614 119.138738 70.179367 119.707897 70.598952 120.127482 
C 71.018536 120.547066 71.587695 120.78282 72.181078 120.78282 
z
" clip-path="url(#pb1244b84c4)" style="stroke: #000000"/>
    <path d="M 66.459153 104.352791 
C 67.052535 104.352791 67.621694 104.117038 68.041279 103.697453 
C 68.460864 103.277869 68.696617 102.70871 68.696617 102.115327 
C 68.696617 101.521945 68.460864 100.952786 68.041279 100.533201 
C 67.621694 100.113616 67.052535 99.877863 66.459153 99.877863 
C 65.86577 99.877863 65.296611 100.113616 64.877027 100.533201 
C 64.457442 100.952786 64.221688 101.521945 64.221688 102.115327 
C 64.221688 102.70871 64.457442 103.277869 64.877027 103.697453 
C 65.296611 104.117038 65.86577 104.352791 66.459153 104.352791 
z
" clip-path="url(#pb1244b84c4)" style="stroke: #000000"/>
    <path d="M 60.034744 98.500869 
C 60.737522 98.500869 61.41161 98.221652 61.908549 97.724714 
C 62.405487 97.227775 62.684704 96.553687 62.684704 95.850909 
C 62.684704 95.148132 62.405487 94.474044 61.908549 93.977105 
C 61.41161 93.480166 60.737522 93.20095 60.034744 93.20095 
C 59.331967 93.20095 58.657878 93.480166 58.16094 93.977105 
C 57.664001 94.474044 57.384785 95.148132 57.384785 95.850909 
C 57.384785 96.553687 57.664001 97.227775 58.16094 97.724714 
C 58.657878 98.221652 59.331967 98.500869 60.034744 98.500869 
z
" clip-path="url(#pb1244b84c4)" style="stroke: #000000"/>
    <path d="M 55.184127 86.050198 
C 55.316729 86.050198 55.443917 85.997515 55.537681 85.903751 
C 55.631444 85.809988 55.684127 85.682799 55.684127 85.550198 
C 55.684127 85.417596 55.631444 85.290408 55.537681 85.196644 
C 55.443917 85.102881 55.316729 85.050198 55.184127 85.050198 
C 55.051526 85.050198 54.924338 85.102881 54.830574 85.196644 
C 54.736811 85.290408 54.684127 85.417596 54.684127 85.550198 
C 54.684127 85.682799 54.736811 85.809988 54.830574 85.903751 
C 54.924338 85.997515 55.051526 86.050198 55.184127 86.050198 
z
" clip-path="url(#pb1244b84c4)" style="stroke: #000000"/>
    <path d="M 52.601925 72.529185 
C 53.195307 72.529185 53.764466 72.293432 54.184051 71.873847 
C 54.603636 71.454263 54.839389 70.885104 54.839389 70.291721 
C 54.839389 69.698339 54.603636 69.12918 54.184051 68.709595 
C 53.764466 68.29001 53.195307 68.054257 52.601925 68.054257 
C 52.008543 68.054257 51.439384 68.29001 51.019799 68.709595 
C 50.600214 69.12918 50.364461 69.698339 50.364461 70.291721 
C 50.364461 70.885104 50.600214 71.454263 51.019799 71.873847 
C 51.439384 72.293432 52.008543 72.529185 52.601925 72.529185 
z
" clip-path="url(#pb1244b84c4)" style="stroke: #000000"/>
    <path d="M 50.522974 63.74756 
C 51.115986 63.74756 51.68479 63.511954 52.104113 63.092631 
C 52.523436 62.673308 52.759042 62.104504 52.759042 61.511492 
C 52.759042 60.91848 52.523436 60.349676 52.104113 59.930353 
C 51.68479 59.51103 51.115986 59.275424 50.522974 59.275424 
C 49.929962 59.275424 49.361158 59.51103 48.941835 59.930353 
C 48.522513 60.349676 48.286906 60.91848 48.286906 61.511492 
C 48.286906 62.104504 48.522513 62.673308 48.941835 63.092631 
C 49.361158 63.511954 49.929962 63.74756 50.522974 63.74756 
z
" clip-path="url(#pb1244b84c4)" style="stroke: #000000"/>
    <path d="M 52.48212 54.402187 
C 53.015607 54.402187 53.527315 54.19023 53.904548 53.812998 
C 54.28178 53.435765 54.493737 52.924057 54.493737 52.390569 
C 54.493737 51.857082 54.28178 51.345374 53.904548 50.968141 
C 53.527315 50.590909 53.015607 50.378952 52.48212 50.378952 
C 51.948633 50.378952 51.436924 50.590909 51.059692 50.968141 
C 50.682459 51.345374 50.470503 51.857082 50.470503 52.390569 
C 50.470503 52.924057 50.682459 53.435765 51.059692 53.812998 
C 51.436924 54.19023 51.948633 54.402187 52.48212 54.402187 
z
" clip-path="url(#pb1244b84c4)" style="stroke: #000000"/>
    <path d="M 77.804483 169.190649 
C 78.326943 169.190649 78.828075 168.983074 79.197509 168.613639 
C 79.566944 168.244204 79.77452 167.743073 79.77452 167.220613 
C 79.77452 166.698153 79.566944 166.197021 79.197509 165.827587 
C 78.828075 165.458152 78.326943 165.250576 77.804483 165.250576 
C 77.282023 165.250576 76.780892 165.458152 76.411457 165.827587 
C 76.042022 166.197021 75.834447 166.698153 75.834447 167.220613 
C 75.834447 167.743073 76.042022 168.244204 76.411457 168.613639 
C 76.780892 168.983074 77.282023 169.190649 77.804483 169.190649 
z
" clip-path="url(#pb1244b84c4)" style="stroke: #000000"/>
    <path d="M 75.304906 157.561181 
C 75.897918 157.561181 76.466722 157.325575 76.886045 156.906252 
C 77.305368 156.486929 77.540974 155.918125 77.540974 155.325113 
C 77.540974 154.732101 77.305368 154.163297 76.886045 153.743974 
C 76.466722 153.324652 75.897918 153.089045 75.304906 153.089045 
C 74.711894 153.089045 74.14309 153.324652 73.723767 153.743974 
C 73.304444 154.163297 73.068838 154.732101 73.068838 155.325113 
C 73.068838 155.918125 73.304444 156.486929 73.723767 156.906252 
C 74.14309 157.325575 74.711894 157.561181 75.304906 157.561181 
z
" clip-path="url(#pb1244b84c4)" style="stroke: #000000"/>
    <path d="M 69.843737 149.403128 
C 70.437119 149.403128 71.006278 149.167374 71.425863 148.74779 
C 71.845448 148.328205 72.081201 147.759046 72.081201 147.165663 
C 72.081201 146.572281 71.845448 146.003122 71.425863 145.583537 
C 71.006278 145.163953 70.437119 144.928199 69.843737 144.928199 
C 69.250354 144.928199 68.681196 145.163953 68.261611 145.583537 
C 67.842026 146.003122 67.606273 146.572281 67.606273 147.165663 
C 67.606273 147.759046 67.842026 148.328205 68.261611 148.74779 
C 68.681196 149.167374 69.250354 149.403128 69.843737 149.403128 
z
" clip-path="url(#pb1244b84c4)" style="stroke: #000000"/>
    <path d="M 57.786031 128.630018 
C 58.379044 128.630018 58.947847 128.394412 59.36717 127.975089 
C 59.786493 127.555766 60.022099 126.986962 60.022099 126.39395 
C 60.022099 125.800938 59.786493 125.232134 59.36717 124.812811 
C 58.947847 124.393488 58.379044 124.157882 57.786031 124.157882 
C 57.193019 124.157882 56.624215 124.393488 56.204893 124.812811 
C 55.78557 125.232134 55.549963 125.800938 55.549963 126.39395 
C 55.549963 126.986962 55.78557 127.555766 56.204893 127.975089 
C 56.624215 128.394412 57.193019 128.630018 57.786031 128.630018 
z
" clip-path="url(#pb1244b84c4)" style="stroke: #000000"/>
    <path d="M 53.730407 107.832896 
C 54.396574 107.832896 55.035547 107.568225 55.506599 107.097174 
C 55.97765 106.626122 56.242321 105.987149 56.242321 105.320982 
C 56.242321 104.654814 55.97765 104.015841 55.506599 103.54479 
C 55.035547 103.073738 54.396574 102.809067 53.730407 102.809067 
C 53.064239 102.809067 52.425267 103.073738 51.954215 103.54479 
C 51.483163 104.015841 51.218492 104.654814 51.218492 105.320982 
C 51.218492 105.987149 51.483163 106.626122 51.954215 107.097174 
C 52.425267 107.568225 53.064239 107.832896 53.730407 107.832896 
z
" clip-path="url(#pb1244b84c4)" style="stroke: #000000"/>
    <path d="M 50.585797 96.755019 
C 51.179179 96.755019 51.748338 96.519265 52.167923 96.099681 
C 52.587508 95.680096 52.823261 95.110937 52.823261 94.517555 
C 52.823261 93.924172 52.587508 93.355013 52.167923 92.935428 
C 51.748338 92.515844 51.179179 92.28009 50.585797 92.28009 
C 49.992414 92.28009 49.423256 92.515844 49.003671 92.935428 
C 48.584086 93.355013 48.348333 93.924172 48.348333 94.517555 
C 48.348333 95.110937 48.584086 95.680096 49.003671 96.099681 
C 49.423256 96.519265 49.992414 96.755019 50.585797 96.755019 
z
" clip-path="url(#pb1244b84c4)" style="stroke: #000000"/>
    <path d="M 44.593882 87.686081 
C 45.054023 87.686081 45.495379 87.503265 45.820748 87.177896 
C 46.146116 86.852528 46.328932 86.411171 46.328932 85.951031 
C 46.328932 85.49089 46.146116 85.049534 45.820748 84.724165 
C 45.495379 84.398797 45.054023 84.215981 44.593882 84.215981 
C 44.133741 84.215981 43.692385 84.398797 43.367016 84.724165 
C 43.041648 85.049534 42.858832 85.49089 42.858832 85.951031 
C 42.858832 86.411171 43.041648 86.852528 43.367016 87.177896 
C 43.692385 87.503265 44.133741 87.686081 44.593882 87.686081 
z
" clip-path="url(#pb1244b84c4)" style="stroke: #000000"/>
    <path d="M 40.859559 73.912389 
C 40.99216 73.912389 41.119349 73.859706 41.213112 73.765942 
C 41.306876 73.672179 41.359559 73.544991 41.359559 73.412389 
C 41.359559 73.279787 41.306876 73.152599 41.213112 73.058836 
C 41.119349 72.965072 40.99216 72.912389 40.859559 72.912389 
C 40.726957 72.912389 40.599769 72.965072 40.506005 73.058836 
C 40.412242 73.152599 40.359559 73.279787 40.359559 73.412389 
C 40.359559 73.544991 40.412242 73.672179 40.506005 73.765942 
C 40.599769 73.859706 40.726957 73.912389 40.859559 73.912389 
z
" clip-path="url(#pb1244b84c4)" style="stroke: #000000"/>
    <path d="M 38.967174 67.191327 
C 39.099776 67.191327 39.226964 67.138644 39.320728 67.04488 
C 39.414491 66.951117 39.467174 66.823928 39.467174 66.691327 
C 39.467174 66.558725 39.414491 66.431537 39.320728 66.337773 
C 39.226964 66.24401 39.099776 66.191327 38.967174 66.191327 
C 38.834573 66.191327 38.707384 66.24401 38.613621 66.337773 
C 38.519858 66.431537 38.467174 66.558725 38.467174 66.691327 
C 38.467174 66.823928 38.519858 66.951117 38.613621 67.04488 
C 38.707384 67.138644 38.834573 67.191327 38.967174 67.191327 
z
" clip-path="url(#pb1244b84c4)" style="stroke: #000000"/>
    <path d="M 62.620334 154.743677 
C 62.752936 154.743677 62.880124 154.690994 62.973888 154.597231 
C 63.067651 154.503467 63.120334 154.376279 63.120334 154.243677 
C 63.120334 154.111076 63.067651 153.983888 62.973888 153.890124 
C 62.880124 153.796361 62.752936 153.743677 62.620334 153.743677 
C 62.487733 153.743677 62.360544 153.796361 62.266781 153.890124 
C 62.173017 153.983888 62.120334 154.111076 62.120334 154.243677 
C 62.120334 154.376279 62.173017 154.503467 62.266781 154.597231 
C 62.360544 154.690994 62.487733 154.743677 62.620334 154.743677 
z
" clip-path="url(#pb1244b84c4)" style="stroke: #000000"/>
    <path d="M 55.477896 149.299417 
C 56.070909 149.299417 56.639712 149.063811 57.059035 148.644488 
C 57.478358 148.225165 57.713964 147.656361 57.713964 147.063349 
C 57.713964 146.470337 57.478358 145.901533 57.059035 145.48221 
C 56.639712 145.062887 56.070909 144.827281 55.477896 144.827281 
C 54.884884 144.827281 54.31608 145.062887 53.896758 145.48221 
C 53.477435 145.901533 53.241828 146.470337 53.241828 147.063349 
C 53.241828 147.656361 53.477435 148.225165 53.896758 148.644488 
C 54.31608 149.063811 54.884884 149.299417 55.477896 149.299417 
z
" clip-path="url(#pb1244b84c4)" style="stroke: #000000"/>
    <path d="M 50.604186 134.227411 
C 51.197569 134.227411 51.766728 133.991658 52.186312 133.572073 
C 52.605897 133.152488 52.841651 132.583329 52.841651 131.989947 
C 52.841651 131.396564 52.605897 130.827405 52.186312 130.407821 
C 51.766728 129.988236 51.197569 129.752483 50.604186 129.752483 
C 50.010804 129.752483 49.441645 129.988236 49.02206 130.407821 
C 48.602475 130.827405 48.366722 131.396564 48.366722 131.989947 
C 48.366722 132.583329 48.602475 133.152488 49.02206 133.572073 
C 49.441645 133.991658 50.010804 134.227411 50.604186 134.227411 
z
" clip-path="url(#pb1244b84c4)" style="stroke: #000000"/>
    <path d="M 48.89999 122.885703 
C 49.493002 122.885703 50.061806 122.650096 50.481129 122.230773 
C 50.900452 121.811451 51.136058 121.242647 51.136058 120.649635 
C 51.136058 120.056622 50.900452 119.487819 50.481129 119.068496 
C 50.061806 118.649173 49.493002 118.413567 48.89999 118.413567 
C 48.306978 118.413567 47.738174 118.649173 47.318851 119.068496 
C 46.899528 119.487819 46.663922 120.056622 46.663922 120.649635 
C 46.663922 121.242647 46.899528 121.811451 47.318851 122.230773 
C 47.738174 122.650096 48.306978 122.885703 48.89999 122.885703 
z
" clip-path="url(#pb1244b84c4)" style="stroke: #000000"/>
    <path d="M 42.849747 109.907772 
C 43.44313 109.907772 44.012289 109.672019 44.431873 109.252434 
C 44.851458 108.832849 45.087211 108.263691 45.087211 107.670308 
C 45.087211 107.076926 44.851458 106.507767 44.431873 106.088182 
C 44.012289 105.668597 43.44313 105.432844 42.849747 105.432844 
C 42.256365 105.432844 41.687206 105.668597 41.267621 106.088182 
C 40.848036 106.507767 40.612283 107.076926 40.612283 107.670308 
C 40.612283 108.263691 40.848036 108.832849 41.267621 109.252434 
C 41.687206 109.672019 42.256365 109.907772 42.849747 109.907772 
z
" clip-path="url(#pb1244b84c4)" style="stroke: #000000"/>
    <path d="M 33.272655 82.068026 
C 33.865667 82.068026 34.434471 81.83242 34.853794 81.413097 
C 35.273117 80.993774 35.508723 80.42497 35.508723 79.831958 
C 35.508723 79.238946 35.273117 78.670142 34.853794 78.250819 
C 34.434471 77.831496 33.865667 77.59589 33.272655 77.59589 
C 32.679643 77.59589 32.110839 77.831496 31.691516 78.250819 
C 31.272193 78.670142 31.036587 79.238946 31.036587 79.831958 
C 31.036587 80.42497 31.272193 80.993774 31.691516 81.413097 
C 32.110839 81.83242 32.679643 82.068026 33.272655 82.068026 
z
" clip-path="url(#pb1244b84c4)" style="stroke: #000000"/>
    <path d="M 44.545117 168.482409 
C 45.044401 168.482409 45.523302 168.284041 45.876349 167.930994 
C 46.229396 167.577947 46.427764 167.099045 46.427764 166.599761 
C 46.427764 166.100477 46.229396 165.621575 45.876349 165.268528 
C 45.523302 164.915481 45.044401 164.717114 44.545117 164.717114 
C 44.045833 164.717114 43.566931 164.915481 43.213884 165.268528 
C 42.860837 165.621575 42.662469 166.100477 42.662469 166.599761 
C 42.662469 167.099045 42.860837 167.577947 43.213884 167.930994 
C 43.566931 168.284041 44.045833 168.482409 44.545117 168.482409 
z
" clip-path="url(#pb1244b84c4)" style="stroke: #000000"/>
    <path d="M 42.817539 154.85461 
C 43.387776 154.85461 43.934734 154.628052 44.337952 154.224834 
C 44.74117 153.821616 44.967727 153.274658 44.967727 152.704421 
C 44.967727 152.134184 44.74117 151.587226 44.337952 151.184008 
C 43.934734 150.78079 43.387776 150.554233 42.817539 150.554233 
C 42.247302 150.554233 41.700344 150.78079 41.297126 151.184008 
C 40.893908 151.587226 40.66735 152.134184 40.66735 152.704421 
C 40.66735 153.274658 40.893908 153.821616 41.297126 154.224834 
C 41.700344 154.628052 42.247302 154.85461 42.817539 154.85461 
z
" clip-path="url(#pb1244b84c4)" style="stroke: #000000"/>
    <path d="M 40.527829 148.865287 
C 41.106225 148.865287 41.66101 148.635488 42.069998 148.226499 
C 42.478986 147.817511 42.708786 147.262726 42.708786 146.68433 
C 42.708786 146.105933 42.478986 145.551148 42.069998 145.14216 
C 41.66101 144.733172 41.106225 144.503373 40.527829 144.503373 
C 39.949432 144.503373 39.394647 144.733172 38.985659 145.14216 
C 38.576671 145.551148 38.346871 146.105933 38.346871 146.68433 
C 38.346871 147.262726 38.576671 147.817511 38.985659 148.226499 
C 39.394647 148.635488 39.949432 148.865287 40.527829 148.865287 
z
" clip-path="url(#pb1244b84c4)" style="stroke: #000000"/>
    <path d="M 33.712716 113.66822 
C 33.845318 113.66822 33.972506 113.615537 34.06627 113.521773 
C 34.160033 113.42801 34.212716 113.300821 34.212716 113.16822 
C 34.212716 113.035618 34.160033 112.90843 34.06627 112.814666 
C 33.972506 112.720903 33.845318 112.66822 33.712716 112.66822 
C 33.580115 112.66822 33.452926 112.720903 33.359163 112.814666 
C 33.265399 112.90843 33.212716 113.035618 33.212716 113.16822 
C 33.212716 113.300821 33.265399 113.42801 33.359163 113.521773 
C 33.452926 113.615537 33.580115 113.66822 33.712716 113.66822 
z
" clip-path="url(#pb1244b84c4)" style="stroke: #000000"/>
    <path d="M 40.04136 159.735234 
C 40.540644 159.735234 41.019546 159.536866 41.372593 159.183819 
C 41.72564 158.830772 41.924007 158.35187 41.924007 157.852586 
C 41.924007 157.353302 41.72564 156.8744 41.372593 156.521353 
C 41.019546 156.168306 40.540644 155.969939 40.04136 155.969939 
C 39.542076 155.969939 39.063174 156.168306 38.710127 156.521353 
C 38.35708 156.8744 38.158712 157.353302 38.158712 157.852586 
C 38.158712 158.35187 38.35708 158.830772 38.710127 159.183819 
C 39.063174 159.536866 39.542076 159.735234 40.04136 159.735234 
z
" clip-path="url(#pb1244b84c4)" style="stroke: #000000"/>
   </g>
   <g id="matplotlib.axis_1">
    <g id="xtick_1">
     <g id="line2d_1">
      <defs>
       <path id="m95e99de932" d="M 0 0 
L 0 3.5 
" style="stroke: #000000; stroke-width: 0.8"/>
      </defs>
      <g>
       <use xlink:href="#m95e99de932" x="18" y="189" style="stroke: #000000; stroke-width: 0.8"/>
      </g>
     </g>
     <g id="text_1">
      <!-- 10 -->
      <g transform="translate(7.447656 203.598437)scale(0.1 -0.1)">
       <defs>
        <path id="DejaVuSans-2212" d="M 678 2272 
L 4684 2272 
L 4684 1741 
L 678 1741 
L 678 2272 
z
" transform="scale(0.015625)"/>
        <path id="DejaVuSans-31" d="M 794 531 
L 1825 531 
L 1825 4091 
L 703 3866 
L 703 4441 
L 1819 4666 
L 2450 4666 
L 2450 531 
L 3481 531 
L 3481 0 
L 794 0 
L 794 531 
z
" transform="scale(0.015625)"/>
        <path id="DejaVuSans-30" d="M 2034 4250 
Q 1547 4250 1301 3770 
Q 1056 3291 1056 2328 
Q 1056 1369 1301 889 
Q 1547 409 2034 409 
Q 2525 409 2770 889 
Q 3016 1369 3016 2328 
Q 3016 3291 2770 3770 
Q 2525 4250 2034 4250 
z
M 2034 4750 
Q 2819 4750 3233 4129 
Q 3647 3509 3647 2328 
Q 3647 1150 3233 529 
Q 2819 -91 2034 -91 
Q 1250 -91 836 529 
Q 422 1150 422 2328 
Q 422 3509 836 4129 
Q 1250 4750 2034 4750 
z
" transform="scale(0.015625)"/>
       </defs>
       <use xlink:href="#DejaVuSans-2212"/>
       <use xlink:href="#DejaVuSans-31" x="83.789062"/>
       <use xlink:href="#DejaVuSans-30" x="147.412109"/>
      </g>
     </g>
    </g>
    <g id="xtick_2">
     <g id="line2d_2">
      <g>
       <use xlink:href="#m95e99de932" x="73.8" y="189" style="stroke: #000000; stroke-width: 0.8"/>
      </g>
     </g>
     <g id="text_2">
      <!-- 0 -->
      <g transform="translate(70.61875 203.598437)scale(0.1 -0.1)">
       <use xlink:href="#DejaVuSans-30"/>
      </g>
     </g>
    </g>
    <g id="xtick_3">
     <g id="line2d_3">
      <g>
       <use xlink:href="#m95e99de932" x="129.6" y="189" style="stroke: #000000; stroke-width: 0.8"/>
      </g>
     </g>
     <g id="text_3">
      <!-- 10 -->
      <g transform="translate(123.2375 203.598437)scale(0.1 -0.1)">
       <use xlink:href="#DejaVuSans-31"/>
       <use xlink:href="#DejaVuSans-30" x="63.623047"/>
      </g>
     </g>
    </g>
   </g>
   <g id="matplotlib.axis_2">
    <g id="ytick_1">
     <g id="line2d_4">
      <defs>
       <path id="m3873de3d7e" d="M 0 0 
L -3.5 0 
" style="stroke: #000000; stroke-width: 0.8"/>
      </defs>
      <g>
       <use xlink:href="#m3873de3d7e" x="18" y="189" style="stroke: #000000; stroke-width: 0.8"/>
      </g>
     </g>
     <g id="text_4">
      <!-- 15 -->
      <g transform="translate(-10.104688 192.799219)scale(0.1 -0.1)">
       <defs>
        <path id="DejaVuSans-35" d="M 691 4666 
L 3169 4666 
L 3169 4134 
L 1269 4134 
L 1269 2991 
Q 1406 3038 1543 3061 
Q 1681 3084 1819 3084 
Q 2600 3084 3056 2656 
Q 3513 2228 3513 1497 
Q 3513 744 3044 326 
Q 2575 -91 1722 -91 
Q 1428 -91 1123 -41 
Q 819 9 494 109 
L 494 744 
Q 775 591 1075 516 
Q 1375 441 1709 441 
Q 2250 441 2565 725 
Q 2881 1009 2881 1497 
Q 2881 1984 2565 2268 
Q 2250 2553 1709 2553 
Q 1456 2553 1204 2497 
Q 953 2441 691 2322 
L 691 4666 
z
" transform="scale(0.015625)"/>
       </defs>
       <use xlink:href="#DejaVuSans-2212"/>
       <use xlink:href="#DejaVuSans-31" x="83.789062"/>
       <use xlink:href="#DejaVuSans-35" x="147.412109"/>
      </g>
     </g>
    </g>
    <g id="ytick_2">
     <g id="line2d_5">
      <g>
       <use xlink:href="#m3873de3d7e" x="18" y="161.82" style="stroke: #000000; stroke-width: 0.8"/>
      </g>
     </g>
     <g id="text_5">
      <!-- 10 -->
      <g transform="translate(-10.104688 165.619219)scale(0.1 -0.1)">
       <use xlink:href="#DejaVuSans-2212"/>
       <use xlink:href="#DejaVuSans-31" x="83.789062"/>
       <use xlink:href="#DejaVuSans-30" x="147.412109"/>
      </g>
     </g>
    </g>
    <g id="ytick_3">
     <g id="line2d_6">
      <g>
       <use xlink:href="#m3873de3d7e" x="18" y="134.64" style="stroke: #000000; stroke-width: 0.8"/>
      </g>
     </g>
     <g id="text_6">
      <!-- 5 -->
      <g transform="translate(-3.742188 138.439219)scale(0.1 -0.1)">
       <use xlink:href="#DejaVuSans-2212"/>
       <use xlink:href="#DejaVuSans-35" x="83.789062"/>
      </g>
     </g>
    </g>
    <g id="ytick_4">
     <g id="line2d_7">
      <g>
       <use xlink:href="#m3873de3d7e" x="18" y="107.46" style="stroke: #000000; stroke-width: 0.8"/>
      </g>
     </g>
     <g id="text_7">
      <!-- 0 -->
      <g transform="translate(4.6375 111.259219)scale(0.1 -0.1)">
       <use xlink:href="#DejaVuSans-30"/>
      </g>
     </g>
    </g>
    <g id="ytick_5">
     <g id="line2d_8">
      <g>
       <use xlink:href="#m3873de3d7e" x="18" y="80.28" style="stroke: #000000; stroke-width: 0.8"/>
      </g>
     </g>
     <g id="text_8">
      <!-- 5 -->
      <g transform="translate(4.6375 84.079219)scale(0.1 -0.1)">
       <use xlink:href="#DejaVuSans-35"/>
      </g>
     </g>
    </g>
    <g id="ytick_6">
     <g id="line2d_9">
      <g>
       <use xlink:href="#m3873de3d7e" x="18" y="53.1" style="stroke: #000000; stroke-width: 0.8"/>
      </g>
     </g>
     <g id="text_9">
      <!-- 10 -->
      <g transform="translate(-1.725 56.899219)scale(0.1 -0.1)">
       <use xlink:href="#DejaVuSans-31"/>
       <use xlink:href="#DejaVuSans-30" x="63.623047"/>
      </g>
     </g>
    </g>
    <g id="ytick_7">
     <g id="line2d_10">
      <g>
       <use xlink:href="#m3873de3d7e" x="18" y="25.92" style="stroke: #000000; stroke-width: 0.8"/>
      </g>
     </g>
     <g id="text_10">
      <!-- 15 -->
      <g transform="translate(-1.725 29.719219)scale(0.1 -0.1)">
       <use xlink:href="#DejaVuSans-31"/>
       <use xlink:href="#DejaVuSans-35" x="63.623047"/>
      </g>
     </g>
    </g>
   </g>
   <g id="patch_3">
    <path d="M 18 189 
L 18 25.92 
" style="fill: none; stroke: #000000; stroke-width: 0.8; stroke-linejoin: miter; stroke-linecap: square"/>
   </g>
   <g id="patch_4">
    <path d="M 129.6 189 
L 129.6 25.92 
" style="fill: none; stroke: #000000; stroke-width: 0.8; stroke-linejoin: miter; stroke-linecap: square"/>
   </g>
   <g id="patch_5">
    <path d="M 18 189 
L 129.6 189 
" style="fill: none; stroke: #000000; stroke-width: 0.8; stroke-linejoin: miter; stroke-linecap: square"/>
   </g>
   <g id="patch_6">
    <path d="M 18 25.92 
L 129.6 25.92 
" style="fill: none; stroke: #000000; stroke-width: 0.8; stroke-linejoin: miter; stroke-linecap: square"/>
   </g>
  </g>
 </g>
 <defs>
  <clipPath id="pb1244b84c4">
   <rect x="18" y="25.92" width="111.6" height="163.08"/>
  </clipPath>
 </defs>
</svg>
