<?xml version="1.0" encoding="utf-8" standalone="no"?>
<!DOCTYPE svg PUBLIC "-//W3C//DTD SVG 1.1//EN"
  "http://www.w3.org/Graphics/SVG/1.1/DTD/svg11.dtd">
<svg xmlns:xlink="http://www.w3.org/1999/xlink" width="144pt" height="216pt" viewBox="0 0 144 216" xmlns="http://www.w3.org/2000/svg" version="1.1">
 <metadata>
  <rdf:RDF xmlns:dc="http://purl.org/dc/elements/1.1/" xmlns:cc="http://creativecommons.org/ns#" xmlns:rdf="http://www.w3.org/1999/02/22-rdf-syntax-ns#">
   <cc:Work>
    <dc:type rdf:resource="http://purl.org/dc/dcmitype/StillImage"/>
    <dc:date>2022-06-23T14:52:54.565113</dc:date>
    <dc:format>image/svg+xml</dc:format>
    <dc:creator>
     <cc:Agent>
      <dc:title>Matplotlib v3.5.1, https://matplotlib.org/</dc:title>
     </cc:Agent>
    </dc:creator>
   </cc:Work>
  </rdf:RDF>
 </metadata>
 <defs>
  <style type="text/css">*{stroke-linejoin: round; stroke-linecap: butt}</style>
 </defs>
 <g id="figure_1">
  <g id="patch_1">
   <path d="M 0 216 
L 144 216 
L 144 0 
L 0 0 
L 0 216 
z
" style="fill: none"/>
  </g>
  <g id="axes_1">
   <g id="patch_2">
    <path d="M 18 189 
L 129.6 189 
L 129.6 25.92 
L 18 25.92 
z
" style="fill: #ffffff"/>
   </g>
   <g id="PathCollection_1">
    <defs>
     <path id="md4d7219730" d="M 0 2.738613 
C 0.726289 2.738613 1.422928 2.450055 1.936492 1.936492 
C 2.450055 1.422928 2.738613 0.726289 2.738613 0 
C 2.738613 -0.726289 2.450055 -1.422928 1.936492 -1.936492 
C 1.422928 -2.450055 0.726289 -2.738613 0 -2.738613 
C -0.726289 -2.738613 -1.422928 -2.450055 -1.936492 -1.936492 
C -2.450055 -1.422928 -2.738613 -0.726289 -2.738613 0 
C -2.738613 0.726289 -2.450055 1.422928 -1.936492 1.936492 
C -1.422928 2.450055 -0.726289 2.738613 0 2.738613 
z
" style="stroke: #ff0000; stroke-width: 1.75"/>
    </defs>
    <g clip-path="url(#p41bed6572c)">
     <use xlink:href="#md4d7219730" x="80.775" y="107.46" style="fill: #ff0000; stroke: #ff0000; stroke-width: 1.75"/>
     <use xlink:href="#md4d7219730" x="94.725" y="107.46" style="fill: #ff0000; stroke: #ff0000; stroke-width: 1.75"/>
     <use xlink:href="#md4d7219730" x="59.85" y="119.229285" style="fill: #ff0000; stroke: #ff0000; stroke-width: 1.75"/>
     <use xlink:href="#md4d7219730" x="73.8" y="119.229285" style="fill: #ff0000; stroke: #ff0000; stroke-width: 1.75"/>
     <use xlink:href="#md4d7219730" x="87.75" y="119.229285" style="fill: #ff0000; stroke: #ff0000; stroke-width: 1.75"/>
     <use xlink:href="#md4d7219730" x="66.825" y="130.99857" style="fill: #ff0000; stroke: #ff0000; stroke-width: 1.75"/>
     <use xlink:href="#md4d7219730" x="80.775" y="130.99857" style="fill: #ff0000; stroke: #ff0000; stroke-width: 1.75"/>
    </g>
   </g>
   <g id="PathCollection_2">
    <defs>
     <path id="C0_0_f04f0c3025" d="M 0 2.738613 
C 0.726289 2.738613 1.422928 2.450055 1.936492 1.936492 
C 2.450055 1.422928 2.738613 0.726289 2.738613 -0 
C 2.738613 -0.726289 2.450055 -1.422928 1.936492 -1.936492 
C 1.422928 -2.450055 0.726289 -2.738613 0 -2.738613 
C -0.726289 -2.738613 -1.422928 -2.450055 -1.936492 -1.936492 
C -2.450055 -1.422928 -2.738613 -0.726289 -2.738613 0 
C -2.738613 0.726289 -2.450055 1.422928 -1.936492 1.936492 
C -1.422928 2.450055 -0.726289 2.738613 0 2.738613 
z
"/>
    </defs>
    <g clip-path="url(#p41bed6572c)">
     <use xlink:href="#C0_0_f04f0c3025" x="66.825" y="83.92143" style="fill: none; stroke: #ff0000; stroke-width: 1.75"/>
    </g>
    <g clip-path="url(#p41bed6572c)">
     <use xlink:href="#C0_0_f04f0c3025" x="80.775" y="83.92143" style="fill: none; stroke: #ff0000; stroke-width: 1.75"/>
    </g>
    <g clip-path="url(#p41bed6572c)">
     <use xlink:href="#C0_0_f04f0c3025" x="59.85" y="95.690715" style="fill: none; stroke: #ff0000; stroke-width: 1.75"/>
    </g>
    <g clip-path="url(#p41bed6572c)">
     <use xlink:href="#C0_0_f04f0c3025" x="73.8" y="95.690715" style="fill: none; stroke: #ff0000; stroke-width: 1.75"/>
    </g>
    <g clip-path="url(#p41bed6572c)">
     <use xlink:href="#C0_0_f04f0c3025" x="87.75" y="95.690715" style="fill: none; stroke: #ff0000; stroke-width: 1.75"/>
    </g>
    <g clip-path="url(#p41bed6572c)">
     <use xlink:href="#C0_0_f04f0c3025" x="52.875" y="107.46" style="fill: none; stroke: #ff0000; stroke-width: 1.75"/>
    </g>
    <g clip-path="url(#p41bed6572c)">
     <use xlink:href="#C0_0_f04f0c3025" x="66.825" y="107.46" style="fill: none; stroke: #ff0000; stroke-width: 1.75"/>
    </g>
   </g>
   <g id="PathCollection_3">
    <path d="M 114.616673 102.497193 
C 114.824206 102.497193 115.023266 102.414739 115.170014 102.267992 
C 115.316762 102.121244 115.399215 101.922183 115.399215 101.714651 
C 115.399215 101.507118 115.316762 101.308058 115.170014 101.16131 
C 115.023266 101.014562 114.824206 100.932108 114.616673 100.932108 
C 114.40914 100.932108 114.21008 101.014562 114.063332 101.16131 
C 113.916584 101.308058 113.834131 101.507118 113.834131 101.714651 
C 113.834131 101.922183 113.916584 102.121244 114.063332 102.267992 
C 114.21008 102.414739 114.40914 102.497193 114.616673 102.497193 
z
" clip-path="url(#p41bed6572c)" style="stroke: #000000"/>
    <path d="M 111.685126 110.736812 
C 111.900812 110.736812 112.107694 110.651119 112.260207 110.498606 
C 112.412721 110.346092 112.498414 110.139211 112.498414 109.923524 
C 112.498414 109.707837 112.412721 109.500956 112.260207 109.348442 
C 112.107694 109.195929 111.900812 109.110236 111.685126 109.110236 
C 111.469439 109.110236 111.262558 109.195929 111.110044 109.348442 
C 110.957531 109.500956 110.871837 109.707837 110.871837 109.923524 
C 110.871837 110.139211 110.957531 110.346092 111.110044 110.498606 
C 111.262558 110.651119 111.469439 110.736812 111.685126 110.736812 
z
" clip-path="url(#p41bed6572c)" style="stroke: #000000"/>
    <path d="M 105.805221 93.070404 
C 105.937822 93.070404 106.065011 93.01772 106.158774 92.923957 
C 106.252537 92.830194 106.305221 92.703005 106.305221 92.570404 
C 106.305221 92.437802 106.252537 92.310614 106.158774 92.21685 
C 106.065011 92.123087 105.937822 92.070404 105.805221 92.070404 
C 105.672619 92.070404 105.545431 92.123087 105.451667 92.21685 
C 105.357904 92.310614 105.305221 92.437802 105.305221 92.570404 
C 105.305221 92.703005 105.357904 92.830194 105.451667 92.923957 
C 105.545431 93.01772 105.672619 93.070404 105.805221 93.070404 
z
" clip-path="url(#p41bed6572c)" style="stroke: #000000"/>
    <path d="M 118.096411 150.859615 
C 118.229012 150.859615 118.3562 150.806932 118.449964 150.713169 
C 118.543727 150.619405 118.596411 150.492217 118.596411 150.359615 
C 118.596411 150.227014 118.543727 150.099825 118.449964 150.006062 
C 118.3562 149.912298 118.229012 149.859615 118.096411 149.859615 
C 117.963809 149.859615 117.836621 149.912298 117.742857 150.006062 
C 117.649094 150.099825 117.596411 150.227014 117.596411 150.359615 
C 117.596411 150.492217 117.649094 150.619405 117.742857 150.713169 
C 117.836621 150.806932 117.963809 150.859615 118.096411 150.859615 
z
" clip-path="url(#p41bed6572c)" style="stroke: #000000"/>
    <path d="M 113.146068 138.066585 
C 113.320582 138.066585 113.487971 137.99725 113.611371 137.873851 
C 113.73477 137.750451 113.804105 137.583062 113.804105 137.408548 
C 113.804105 137.234035 113.73477 137.066646 113.611371 136.943246 
C 113.487971 136.819846 113.320582 136.750511 113.146068 136.750511 
C 112.971555 136.750511 112.804165 136.819846 112.680766 136.943246 
C 112.557366 137.066646 112.488031 137.234035 112.488031 137.408548 
C 112.488031 137.583062 112.557366 137.750451 112.680766 137.873851 
C 112.804165 137.99725 112.971555 138.066585 113.146068 138.066585 
z
" clip-path="url(#p41bed6572c)" style="stroke: #000000"/>
    <path d="M 106.07917 112.381868 
C 106.396987 112.381868 106.70183 112.255598 106.92656 112.030867 
C 107.151291 111.806137 107.277561 111.501294 107.277561 111.183477 
C 107.277561 110.86566 107.151291 110.560817 106.92656 110.336087 
C 106.70183 110.111356 106.396987 109.985086 106.07917 109.985086 
C 105.761353 109.985086 105.45651 110.111356 105.23178 110.336087 
C 105.007049 110.560817 104.880779 110.86566 104.880779 111.183477 
C 104.880779 111.501294 105.007049 111.806137 105.23178 112.030867 
C 105.45651 112.255598 105.761353 112.381868 106.07917 112.381868 
z
" clip-path="url(#p41bed6572c)" style="stroke: #000000"/>
    <path d="M 102.062037 107.871793 
C 102.423147 107.871793 102.769515 107.728323 103.024858 107.472979 
C 103.280201 107.217636 103.423672 106.871268 103.423672 106.510158 
C 103.423672 106.149048 103.280201 105.80268 103.024858 105.547337 
C 102.769515 105.291994 102.423147 105.148523 102.062037 105.148523 
C 101.700927 105.148523 101.354559 105.291994 101.099216 105.547337 
C 100.843873 105.80268 100.700402 106.149048 100.700402 106.510158 
C 100.700402 106.871268 100.843873 107.217636 101.099216 107.472979 
C 101.354559 107.728323 101.700927 107.871793 102.062037 107.871793 
z
" clip-path="url(#p41bed6572c)" style="stroke: #000000"/>
    <path d="M 100.334264 101.411158 
C 100.508778 101.411158 100.676167 101.341823 100.799567 101.218424 
C 100.922966 101.095024 100.992301 100.927635 100.992301 100.753121 
C 100.992301 100.578608 100.922966 100.411218 100.799567 100.287819 
C 100.676167 100.164419 100.508778 100.095084 100.334264 100.095084 
C 100.159751 100.095084 99.992361 100.164419 99.868962 100.287819 
C 99.745562 100.411218 99.676227 100.578608 99.676227 100.753121 
C 99.676227 100.927635 99.745562 101.095024 99.868962 101.218424 
C 99.992361 101.341823 100.159751 101.411158 100.334264 101.411158 
z
" clip-path="url(#p41bed6572c)" style="stroke: #000000"/>
    <path d="M 97.475411 96.313676 
C 97.727198 96.313676 97.968707 96.21364 98.146748 96.035599 
C 98.324789 95.857558 98.424825 95.616049 98.424825 95.364262 
C 98.424825 95.112474 98.324789 94.870965 98.146748 94.692924 
C 97.968707 94.514884 97.727198 94.414847 97.475411 94.414847 
C 97.223623 94.414847 96.982114 94.514884 96.804073 94.692924 
C 96.626033 94.870965 96.525996 95.112474 96.525996 95.364262 
C 96.525996 95.616049 96.626033 95.857558 96.804073 96.035599 
C 96.982114 96.21364 97.223623 96.313676 97.475411 96.313676 
z
" clip-path="url(#p41bed6572c)" style="stroke: #000000"/>
    <path d="M 97.335819 88.624002 
C 97.571622 88.624002 97.797798 88.530317 97.964536 88.363579 
C 98.131273 88.196841 98.224959 87.970665 98.224959 87.734862 
C 98.224959 87.49906 98.131273 87.272883 97.964536 87.106146 
C 97.797798 86.939408 97.571622 86.845723 97.335819 86.845723 
C 97.100017 86.845723 96.87384 86.939408 96.707102 87.106146 
C 96.540365 87.272883 96.446679 87.49906 96.446679 87.734862 
C 96.446679 87.970665 96.540365 88.196841 96.707102 88.363579 
C 96.87384 88.530317 97.100017 88.624002 97.335819 88.624002 
z
" clip-path="url(#p41bed6572c)" style="stroke: #000000"/>
    <path d="M 93.946042 82.106867 
C 94.103733 82.106867 94.254986 82.044216 94.366491 81.932712 
C 94.477995 81.821208 94.540646 81.669954 94.540646 81.512264 
C 94.540646 81.354573 94.477995 81.20332 94.366491 81.091816 
C 94.254986 80.980311 94.103733 80.91766 93.946042 80.91766 
C 93.788352 80.91766 93.637098 80.980311 93.525594 81.091816 
C 93.41409 81.20332 93.351439 81.354573 93.351439 81.512264 
C 93.351439 81.669954 93.41409 81.821208 93.525594 81.932712 
C 93.637098 82.044216 93.788352 82.106867 93.946042 82.106867 
z
" clip-path="url(#p41bed6572c)" style="stroke: #000000"/>
    <path d="M 109.951955 149.155023 
C 110.15024 149.155023 110.340431 149.076244 110.48064 148.936035 
C 110.620849 148.795826 110.699629 148.605635 110.699629 148.407349 
C 110.699629 148.209064 110.620849 148.018873 110.48064 147.878663 
C 110.340431 147.738454 110.15024 147.659675 109.951955 147.659675 
C 109.753669 147.659675 109.563478 147.738454 109.423269 147.878663 
C 109.28306 148.018873 109.20428 148.209064 109.20428 148.407349 
C 109.20428 148.605635 109.28306 148.795826 109.423269 148.936035 
C 109.563478 149.076244 109.753669 149.155023 109.951955 149.155023 
z
" clip-path="url(#p41bed6572c)" style="stroke: #000000"/>
    <path d="M 109.179039 135.099209 
C 109.31164 135.099209 109.438829 135.046526 109.532592 134.952763 
C 109.626356 134.858999 109.679039 134.731811 109.679039 134.599209 
C 109.679039 134.466608 109.626356 134.339419 109.532592 134.245656 
C 109.438829 134.151893 109.31164 134.099209 109.179039 134.099209 
C 109.046437 134.099209 108.919249 134.151893 108.825485 134.245656 
C 108.731722 134.339419 108.679039 134.466608 108.679039 134.599209 
C 108.679039 134.731811 108.731722 134.858999 108.825485 134.952763 
C 108.919249 135.046526 109.046437 135.099209 109.179039 135.099209 
z
" clip-path="url(#p41bed6572c)" style="stroke: #000000"/>
    <path d="M 104.999959 126.678082 
C 105.15765 126.678082 105.308903 126.61543 105.420407 126.503926 
C 105.531911 126.392422 105.594563 126.241169 105.594563 126.083478 
C 105.594563 125.925787 105.531911 125.774534 105.420407 125.66303 
C 105.308903 125.551526 105.15765 125.488875 104.999959 125.488875 
C 104.842268 125.488875 104.691015 125.551526 104.579511 125.66303 
C 104.468007 125.774534 104.405355 125.925787 104.405355 126.083478 
C 104.405355 126.241169 104.468007 126.392422 104.579511 126.503926 
C 104.691015 126.61543 104.842268 126.678082 104.999959 126.678082 
z
" clip-path="url(#p41bed6572c)" style="stroke: #000000"/>
    <path d="M 98.789024 114.20355 
C 99.18435 114.20355 99.563538 114.046485 99.843076 113.766947 
C 100.122614 113.48741 100.279678 113.108222 100.279678 112.712896 
C 100.279678 112.31757 100.122614 111.938382 99.843076 111.658845 
C 99.563538 111.379307 99.18435 111.222242 98.789024 111.222242 
C 98.393698 111.222242 98.014511 111.379307 97.734973 111.658845 
C 97.455435 111.938382 97.298371 112.31757 97.298371 112.712896 
C 97.298371 113.108222 97.455435 113.48741 97.734973 113.766947 
C 98.014511 114.046485 98.393698 114.20355 98.789024 114.20355 
z
" clip-path="url(#p41bed6572c)" style="stroke: #000000"/>
    <path d="M 94.502199 110.157178 
C 95.154613 110.157178 95.780393 109.897972 96.241719 109.436645 
C 96.703045 108.975319 96.962252 108.349539 96.962252 107.697126 
C 96.962252 107.044712 96.703045 106.418932 96.241719 105.957606 
C 95.780393 105.49628 95.154613 105.237073 94.502199 105.237073 
C 93.849786 105.237073 93.224005 105.49628 92.762679 105.957606 
C 92.301353 106.418932 92.042147 107.044712 92.042147 107.697126 
C 92.042147 108.349539 92.301353 108.975319 92.762679 109.436645 
C 93.224005 109.897972 93.849786 110.157178 94.502199 110.157178 
z
" clip-path="url(#p41bed6572c)" style="stroke: #000000"/>
    <path d="M 92.916212 106.346493 
C 93.445057 106.346493 93.952313 106.136381 94.326264 105.762431 
C 94.700214 105.388481 94.910326 104.881224 94.910326 104.352379 
C 94.910326 103.823533 94.700214 103.316277 94.326264 102.942327 
C 93.952313 102.568377 93.445057 102.358264 92.916212 102.358264 
C 92.387366 102.358264 91.88011 102.568377 91.50616 102.942327 
C 91.132209 103.316277 90.922097 103.823533 90.922097 104.352379 
C 90.922097 104.881224 91.132209 105.388481 91.50616 105.762431 
C 91.88011 106.136381 92.387366 106.346493 92.916212 106.346493 
z
" clip-path="url(#p41bed6572c)" style="stroke: #000000"/>
    <path d="M 96.551204 95.883699 
C 96.792692 95.883699 97.024323 95.787755 97.195081 95.616997 
C 97.365839 95.446238 97.461784 95.214608 97.461784 94.973119 
C 97.461784 94.731631 97.365839 94.5 97.195081 94.329242 
C 97.024323 94.158484 96.792692 94.062539 96.551204 94.062539 
C 96.309715 94.062539 96.078085 94.158484 95.907326 94.329242 
C 95.736568 94.5 95.640624 94.731631 95.640624 94.973119 
C 95.640624 95.214608 95.736568 95.446238 95.907326 95.616997 
C 96.078085 95.787755 96.309715 95.883699 96.551204 95.883699 
z
" clip-path="url(#p41bed6572c)" style="stroke: #000000"/>
    <path d="M 88.19712 84.420764 
C 88.546147 84.420764 88.880925 84.282095 89.127725 84.035295 
C 89.374524 83.788496 89.513194 83.453717 89.513194 83.10469 
C 89.513194 82.755664 89.374524 82.420885 89.127725 82.174086 
C 88.880925 81.927286 88.546147 81.788616 88.19712 81.788616 
C 87.848093 81.788616 87.513314 81.927286 87.266515 82.174086 
C 87.019716 82.420885 86.881046 82.755664 86.881046 83.10469 
C 86.881046 83.453717 87.019716 83.788496 87.266515 84.035295 
C 87.513314 84.282095 87.848093 84.420764 88.19712 84.420764 
z
" clip-path="url(#p41bed6572c)" style="stroke: #000000"/>
    <path d="M 84.167287 80.136652 
C 84.492094 80.136652 84.80364 80.007605 85.033313 79.777932 
C 85.262985 79.548259 85.392032 79.236713 85.392032 78.911907 
C 85.392032 78.587101 85.262985 78.275554 85.033313 78.045881 
C 84.80364 77.816209 84.492094 77.687162 84.167287 77.687162 
C 83.842481 77.687162 83.530935 77.816209 83.301262 78.045881 
C 83.071589 78.275554 82.942543 78.587101 82.942543 78.911907 
C 82.942543 79.236713 83.071589 79.548259 83.301262 79.777932 
C 83.530935 80.007605 83.842481 80.136652 84.167287 80.136652 
z
" clip-path="url(#p41bed6572c)" style="stroke: #000000"/>
    <path d="M 81.482684 67.347251 
C 81.657197 67.347251 81.824587 67.277916 81.947986 67.154516 
C 82.071386 67.031117 82.140721 66.863727 82.140721 66.689214 
C 82.140721 66.514701 82.071386 66.347311 81.947986 66.223912 
C 81.824587 66.100512 81.657197 66.031177 81.482684 66.031177 
C 81.308171 66.031177 81.140781 66.100512 81.017382 66.223912 
C 80.893982 66.347311 80.824647 66.514701 80.824647 66.689214 
C 80.824647 66.863727 80.893982 67.031117 81.017382 67.154516 
C 81.140781 67.277916 81.308171 67.347251 81.482684 67.347251 
z
" clip-path="url(#p41bed6572c)" style="stroke: #000000"/>
    <path d="M 78.760487 60.282232 
C 78.893088 60.282232 79.020277 60.229549 79.11404 60.135785 
C 79.207803 60.042022 79.260487 59.914834 79.260487 59.782232 
C 79.260487 59.64963 79.207803 59.522442 79.11404 59.428679 
C 79.020277 59.334915 78.893088 59.282232 78.760487 59.282232 
C 78.627885 59.282232 78.500697 59.334915 78.406933 59.428679 
C 78.31317 59.522442 78.260487 59.64963 78.260487 59.782232 
C 78.260487 59.914834 78.31317 60.042022 78.406933 60.135785 
C 78.500697 60.229549 78.627885 60.282232 78.760487 60.282232 
z
" clip-path="url(#p41bed6572c)" style="stroke: #000000"/>
    <path d="M 104.547204 146.817745 
C 104.745489 146.817745 104.93568 146.738966 105.075889 146.598757 
C 105.216098 146.458548 105.294878 146.268357 105.294878 146.070071 
C 105.294878 145.871785 105.216098 145.681594 105.075889 145.541385 
C 104.93568 145.401176 104.745489 145.322397 104.547204 145.322397 
C 104.348918 145.322397 104.158727 145.401176 104.018518 145.541385 
C 103.878309 145.681594 103.799529 145.871785 103.799529 146.070071 
C 103.799529 146.268357 103.878309 146.458548 104.018518 146.598757 
C 104.158727 146.738966 104.348918 146.817745 104.547204 146.817745 
z
" clip-path="url(#p41bed6572c)" style="stroke: #000000"/>
    <path d="M 98.146711 129.036504 
C 98.279313 129.036504 98.406501 128.983821 98.500264 128.890058 
C 98.594028 128.796294 98.646711 128.669106 98.646711 128.536504 
C 98.646711 128.403903 98.594028 128.276714 98.500264 128.182951 
C 98.406501 128.089187 98.279313 128.036504 98.146711 128.036504 
C 98.014109 128.036504 97.886921 128.089187 97.793158 128.182951 
C 97.699394 128.276714 97.646711 128.403903 97.646711 128.536504 
C 97.646711 128.669106 97.699394 128.796294 97.793158 128.890058 
C 97.886921 128.983821 98.014109 129.036504 98.146711 129.036504 
z
" clip-path="url(#p41bed6572c)" style="stroke: #000000"/>
    <path d="M 91.579617 119.446436 
C 92.022107 119.446436 92.446534 119.270633 92.759422 118.957745 
C 93.07231 118.644857 93.248114 118.22043 93.248114 117.777939 
C 93.248114 117.335449 93.07231 116.911022 92.759422 116.598134 
C 92.446534 116.285246 92.022107 116.109442 91.579617 116.109442 
C 91.137126 116.109442 90.712699 116.285246 90.399811 116.598134 
C 90.086923 116.911022 89.91112 117.335449 89.91112 117.777939 
C 89.91112 118.22043 90.086923 118.644857 90.399811 118.957745 
C 90.712699 119.270633 91.137126 119.446436 91.579617 119.446436 
z
" clip-path="url(#p41bed6572c)" style="stroke: #000000"/>
    <path d="M 90.651267 111.196177 
C 91.000294 111.196177 91.335073 111.057507 91.581872 110.810708 
C 91.828671 110.563909 91.967341 110.22913 91.967341 109.880103 
C 91.967341 109.531076 91.828671 109.196298 91.581872 108.949498 
C 91.335073 108.702699 91.000294 108.564029 90.651267 108.564029 
C 90.30224 108.564029 89.967461 108.702699 89.720662 108.949498 
C 89.473863 109.196298 89.335193 109.531076 89.335193 109.880103 
C 89.335193 110.22913 89.473863 110.563909 89.720662 110.810708 
C 89.967461 111.057507 90.30224 111.196177 90.651267 111.196177 
z
" clip-path="url(#p41bed6572c)" style="stroke: #000000"/>
    <path d="M 89.201141 105.133841 
C 89.333743 105.133841 89.460931 105.081158 89.554694 104.987394 
C 89.648458 104.893631 89.701141 104.766442 89.701141 104.633841 
C 89.701141 104.501239 89.648458 104.374051 89.554694 104.280288 
C 89.460931 104.186524 89.333743 104.133841 89.201141 104.133841 
C 89.068539 104.133841 88.941351 104.186524 88.847588 104.280288 
C 88.753824 104.374051 88.701141 104.501239 88.701141 104.633841 
C 88.701141 104.766442 88.753824 104.893631 88.847588 104.987394 
C 88.941351 105.081158 89.068539 105.133841 89.201141 105.133841 
z
" clip-path="url(#p41bed6572c)" style="stroke: #000000"/>
    <path d="M 83.224922 97.188912 
C 83.542738 97.188912 83.847581 97.062642 84.072312 96.837911 
C 84.297042 96.613181 84.423312 96.308338 84.423312 95.990521 
C 84.423312 95.672704 84.297042 95.367861 84.072312 95.143131 
C 83.847581 94.9184 83.542738 94.79213 83.224922 94.79213 
C 82.907105 94.79213 82.602262 94.9184 82.377531 95.143131 
C 82.152801 95.367861 82.026531 95.672704 82.026531 95.990521 
C 82.026531 96.308338 82.152801 96.613181 82.377531 96.837911 
C 82.602262 97.062642 82.907105 97.188912 83.224922 97.188912 
z
" clip-path="url(#p41bed6572c)" style="stroke: #000000"/>
    <path d="M 85.127702 95.953619 
C 85.694574 95.953619 86.238305 95.728399 86.639144 95.32756 
C 87.039984 94.92672 87.265204 94.382989 87.265204 93.816117 
C 87.265204 93.249245 87.039984 92.705514 86.639144 92.304675 
C 86.238305 91.903835 85.694574 91.678615 85.127702 91.678615 
C 84.56083 91.678615 84.017099 91.903835 83.616259 92.304675 
C 83.21542 92.705514 82.9902 93.249245 82.9902 93.816117 
C 82.9902 94.382989 83.21542 94.92672 83.616259 95.32756 
C 84.017099 95.728399 84.56083 95.953619 85.127702 95.953619 
z
" clip-path="url(#p41bed6572c)" style="stroke: #000000"/>
    <path d="M 79.734091 88.689374 
C 80.351828 88.689374 80.944348 88.443944 81.381154 88.007138 
C 81.81796 87.570332 82.06339 86.977812 82.06339 86.360075 
C 82.06339 85.742338 81.81796 85.149818 81.381154 84.713012 
C 80.944348 84.276206 80.351828 84.030776 79.734091 84.030776 
C 79.116354 84.030776 78.523834 84.276206 78.087028 84.713012 
C 77.650222 85.149818 77.404792 85.742338 77.404792 86.360075 
C 77.404792 86.977812 77.650222 87.570332 78.087028 88.007138 
C 78.523834 88.443944 79.116354 88.689374 79.734091 88.689374 
z
" clip-path="url(#p41bed6572c)" style="stroke: #000000"/>
    <path d="M 78.805993 78.918539 
C 78.980507 78.918539 79.147896 78.849204 79.271296 78.725804 
C 79.394695 78.602405 79.46403 78.435015 79.46403 78.260502 
C 79.46403 78.085988 79.394695 77.918599 79.271296 77.795199 
C 79.147896 77.6718 78.980507 77.602465 78.805993 77.602465 
C 78.63148 77.602465 78.46409 77.6718 78.340691 77.795199 
C 78.217291 77.918599 78.147956 78.085988 78.147956 78.260502 
C 78.147956 78.435015 78.217291 78.602405 78.340691 78.725804 
C 78.46409 78.849204 78.63148 78.918539 78.805993 78.918539 
z
" clip-path="url(#p41bed6572c)" style="stroke: #000000"/>
    <path d="M 75.902377 74.450524 
C 76.163336 74.450524 76.413641 74.346844 76.598167 74.162318 
C 76.782692 73.977793 76.886372 73.727487 76.886372 73.466529 
C 76.886372 73.20557 76.782692 72.955265 76.598167 72.77074 
C 76.413641 72.586214 76.163336 72.482534 75.902377 72.482534 
C 75.641419 72.482534 75.391113 72.586214 75.206588 72.77074 
C 75.022062 72.955265 74.918383 73.20557 74.918383 73.466529 
C 74.918383 73.727487 75.022062 73.977793 75.206588 74.162318 
C 75.391113 74.346844 75.641419 74.450524 75.902377 74.450524 
z
" clip-path="url(#p41bed6572c)" style="stroke: #000000"/>
    <path d="M 74.715068 68.283841 
C 74.847669 68.283841 74.974858 68.231158 75.068621 68.137394 
C 75.162385 68.043631 75.215068 67.916442 75.215068 67.783841 
C 75.215068 67.651239 75.162385 67.524051 75.068621 67.430288 
C 74.974858 67.336524 74.847669 67.283841 74.715068 67.283841 
C 74.582466 67.283841 74.455278 67.336524 74.361514 67.430288 
C 74.267751 67.524051 74.215068 67.651239 74.215068 67.783841 
C 74.215068 67.916442 74.267751 68.043631 74.361514 68.137394 
C 74.455278 68.231158 74.582466 68.283841 74.715068 68.283841 
z
" clip-path="url(#p41bed6572c)" style="stroke: #000000"/>
    <path d="M 77.562894 62.266685 
C 77.720584 62.266685 77.871838 62.204034 77.983342 62.09253 
C 78.094846 61.981026 78.157497 61.829773 78.157497 61.672082 
C 78.157497 61.514391 78.094846 61.363138 77.983342 61.251634 
C 77.871838 61.140129 77.720584 61.077478 77.562894 61.077478 
C 77.405203 61.077478 77.25395 61.140129 77.142446 61.251634 
C 77.030941 61.363138 76.96829 61.514391 76.96829 61.672082 
C 76.96829 61.829773 77.030941 61.981026 77.142446 62.09253 
C 77.25395 62.204034 77.405203 62.266685 77.562894 62.266685 
z
" clip-path="url(#p41bed6572c)" style="stroke: #000000"/>
    <path d="M 102.723918 162.446588 
C 102.85652 162.446588 102.983708 162.393905 103.077472 162.300142 
C 103.171235 162.206378 103.223918 162.07919 103.223918 161.946588 
C 103.223918 161.813987 103.171235 161.686798 103.077472 161.593035 
C 102.983708 161.499271 102.85652 161.446588 102.723918 161.446588 
C 102.591317 161.446588 102.464128 161.499271 102.370365 161.593035 
C 102.276601 161.686798 102.223918 161.813987 102.223918 161.946588 
C 102.223918 162.07919 102.276601 162.206378 102.370365 162.300142 
C 102.464128 162.393905 102.591317 162.446588 102.723918 162.446588 
z
" clip-path="url(#p41bed6572c)" style="stroke: #000000"/>
    <path d="M 101.138151 157.389758 
C 101.312665 157.389758 101.480054 157.320423 101.603454 157.197024 
C 101.726853 157.073624 101.796188 156.906235 101.796188 156.731721 
C 101.796188 156.557208 101.726853 156.389819 101.603454 156.266419 
C 101.480054 156.143019 101.312665 156.073684 101.138151 156.073684 
C 100.963638 156.073684 100.796248 156.143019 100.672849 156.266419 
C 100.549449 156.389819 100.480114 156.557208 100.480114 156.731721 
C 100.480114 156.906235 100.549449 157.073624 100.672849 157.197024 
C 100.796248 157.320423 100.963638 157.389758 101.138151 157.389758 
z
" clip-path="url(#p41bed6572c)" style="stroke: #000000"/>
    <path d="M 90.366567 132.817227 
C 90.541081 132.817227 90.70847 132.747892 90.83187 132.624493 
C 90.955269 132.501093 91.024604 132.333704 91.024604 132.15919 
C 91.024604 131.984677 90.955269 131.817288 90.83187 131.693888 
C 90.70847 131.570488 90.541081 131.501153 90.366567 131.501153 
C 90.192054 131.501153 90.024664 131.570488 89.901265 131.693888 
C 89.777865 131.817288 89.70853 131.984677 89.70853 132.15919 
C 89.70853 132.333704 89.777865 132.501093 89.901265 132.624493 
C 90.024664 132.747892 90.192054 132.817227 90.366567 132.817227 
z
" clip-path="url(#p41bed6572c)" style="stroke: #000000"/>
    <path d="M 91.08786 124.538669 
C 91.55422 124.538669 92.001542 124.353383 92.331308 124.023616 
C 92.661075 123.69385 92.846362 123.246528 92.846362 122.780167 
C 92.846362 122.313807 92.661075 121.866485 92.331308 121.536719 
C 92.001542 121.206952 91.55422 121.021665 91.08786 121.021665 
C 90.621499 121.021665 90.174177 121.206952 89.844411 121.536719 
C 89.514644 121.866485 89.329358 122.313807 89.329358 122.780167 
C 89.329358 123.246528 89.514644 123.69385 89.844411 124.023616 
C 90.174177 124.353383 90.621499 124.538669 91.08786 124.538669 
z
" clip-path="url(#p41bed6572c)" style="stroke: #000000"/>
    <path d="M 85.532232 119.258326 
C 86.066734 119.258326 86.579416 119.045966 86.957366 118.668016 
C 87.335317 118.290066 87.547677 117.777383 87.547677 117.242881 
C 87.547677 116.708379 87.335317 116.195696 86.957366 115.817746 
C 86.579416 115.439796 86.066734 115.227436 85.532232 115.227436 
C 84.997729 115.227436 84.485047 115.439796 84.107097 115.817746 
C 83.729146 116.195696 83.516786 116.708379 83.516786 117.242881 
C 83.516786 117.777383 83.729146 118.290066 84.107097 118.668016 
C 84.485047 119.045966 84.997729 119.258326 85.532232 119.258326 
z
" clip-path="url(#p41bed6572c)" style="stroke: #000000"/>
    <path d="M 84.588058 113.770183 
C 85.021344 113.770183 85.436942 113.598037 85.743322 113.291657 
C 86.049701 112.985278 86.221848 112.569679 86.221848 112.136393 
C 86.221848 111.703107 86.049701 111.287509 85.743322 110.981129 
C 85.436942 110.67475 85.021344 110.502603 84.588058 110.502603 
C 84.154771 110.502603 83.739173 110.67475 83.432794 110.981129 
C 83.126414 111.287509 82.954268 111.703107 82.954268 112.136393 
C 82.954268 112.569679 83.126414 112.985278 83.432794 113.291657 
C 83.739173 113.598037 84.154771 113.770183 84.588058 113.770183 
z
" clip-path="url(#p41bed6572c)" style="stroke: #000000"/>
    <path d="M 82.682966 108.923775 
C 83.235285 108.923775 83.765057 108.704337 84.155606 108.313788 
C 84.546154 107.923239 84.765593 107.393467 84.765593 106.841148 
C 84.765593 106.288829 84.546154 105.759056 84.155606 105.368508 
C 83.765057 104.977959 83.235285 104.75852 82.682966 104.75852 
C 82.130646 104.75852 81.600874 104.977959 81.210325 105.368508 
C 80.819777 105.759056 80.600338 106.288829 80.600338 106.841148 
C 80.600338 107.393467 80.819777 107.923239 81.210325 108.313788 
C 81.600874 108.704337 82.130646 108.923775 82.682966 108.923775 
z
" clip-path="url(#p41bed6572c)" style="stroke: #000000"/>
    <path d="M 82.354228 100.822827 
C 82.541755 100.822827 82.721627 100.748322 82.854228 100.61572 
C 82.98683 100.483119 83.061335 100.303247 83.061335 100.11572 
C 83.061335 99.928193 82.98683 99.748322 82.854228 99.61572 
C 82.721627 99.483119 82.541755 99.408613 82.354228 99.408613 
C 82.166701 99.408613 81.98683 99.483119 81.854228 99.61572 
C 81.721627 99.748322 81.647121 99.928193 81.647121 100.11572 
C 81.647121 100.303247 81.721627 100.483119 81.854228 100.61572 
C 81.98683 100.748322 82.166701 100.822827 82.354228 100.822827 
z
" clip-path="url(#p41bed6572c)" style="stroke: #000000"/>
    <path d="M 78.399909 95.041866 
C 78.812796 95.041866 79.208827 94.877825 79.500782 94.58587 
C 79.792736 94.293915 79.956778 93.897884 79.956778 93.484997 
C 79.956778 93.072111 79.792736 92.67608 79.500782 92.384125 
C 79.208827 92.09217 78.812796 91.928129 78.399909 91.928129 
C 77.987023 91.928129 77.590992 92.09217 77.299037 92.384125 
C 77.007082 92.67608 76.843041 93.072111 76.843041 93.484997 
C 76.843041 93.897884 77.007082 94.293915 77.299037 94.58587 
C 77.590992 94.877825 77.987023 95.041866 78.399909 95.041866 
z
" clip-path="url(#p41bed6572c)" style="stroke: #000000"/>
    <path d="M 78.671917 89.366326 
C 79.107091 89.366326 79.5245 89.19343 79.832215 88.885715 
C 80.139929 88.578 80.312826 88.160591 80.312826 87.725417 
C 80.312826 87.290243 80.139929 86.872834 79.832215 86.565119 
C 79.5245 86.257405 79.107091 86.084508 78.671917 86.084508 
C 78.236743 86.084508 77.819333 86.257405 77.511619 86.565119 
C 77.203904 86.872834 77.031008 87.290243 77.031008 87.725417 
C 77.031008 88.160591 77.203904 88.578 77.511619 88.885715 
C 77.819333 89.19343 78.236743 89.366326 78.671917 89.366326 
z
" clip-path="url(#p41bed6572c)" style="stroke: #000000"/>
    <path d="M 72.310239 83.08145 
C 72.442841 83.08145 72.570029 83.028767 72.663793 82.935004 
C 72.757556 82.84124 72.810239 82.714052 72.810239 82.58145 
C 72.810239 82.448849 72.757556 82.32166 72.663793 82.227897 
C 72.570029 82.134133 72.442841 82.08145 72.310239 82.08145 
C 72.177638 82.08145 72.050449 82.134133 71.956686 82.227897 
C 71.862922 82.32166 71.810239 82.448849 71.810239 82.58145 
C 71.810239 82.714052 71.862922 82.84124 71.956686 82.935004 
C 72.050449 83.028767 72.177638 83.08145 72.310239 83.08145 
z
" clip-path="url(#p41bed6572c)" style="stroke: #000000"/>
    <path d="M 75.366756 78.657073 
C 75.657146 78.657073 75.93568 78.5417 76.141017 78.336364 
C 76.346353 78.131028 76.461726 77.852493 76.461726 77.562104 
C 76.461726 77.271714 76.346353 76.99318 76.141017 76.787843 
C 75.93568 76.582507 75.657146 76.467134 75.366756 76.467134 
C 75.076367 76.467134 74.797832 76.582507 74.592496 76.787843 
C 74.38716 76.99318 74.271787 77.271714 74.271787 77.562104 
C 74.271787 77.852493 74.38716 78.131028 74.592496 78.336364 
C 74.797832 78.5417 75.076367 78.657073 75.366756 78.657073 
z
" clip-path="url(#p41bed6572c)" style="stroke: #000000"/>
    <path d="M 68.771838 70.332426 
C 69.007641 70.332426 69.233817 70.23874 69.400555 70.072003 
C 69.567293 69.905265 69.660978 69.679088 69.660978 69.443286 
C 69.660978 69.207483 69.567293 68.981307 69.400555 68.814569 
C 69.233817 68.647831 69.007641 68.554146 68.771838 68.554146 
C 68.536036 68.554146 68.309859 68.647831 68.143122 68.814569 
C 67.976384 68.981307 67.882699 69.207483 67.882699 69.443286 
C 67.882699 69.679088 67.976384 69.905265 68.143122 70.072003 
C 68.309859 70.23874 68.536036 70.332426 68.771838 70.332426 
z
" clip-path="url(#p41bed6572c)" style="stroke: #000000"/>
    <path d="M 65.668061 57.401628 
C 65.800662 57.401628 65.927851 57.348945 66.021614 57.255182 
C 66.115377 57.161418 66.168061 57.03423 66.168061 56.901628 
C 66.168061 56.769027 66.115377 56.641838 66.021614 56.548075 
C 65.927851 56.454311 65.800662 56.401628 65.668061 56.401628 
C 65.535459 56.401628 65.408271 56.454311 65.314507 56.548075 
C 65.220744 56.641838 65.168061 56.769027 65.168061 56.901628 
C 65.168061 57.03423 65.220744 57.161418 65.314507 57.255182 
C 65.408271 57.348945 65.535459 57.401628 65.668061 57.401628 
z
" clip-path="url(#p41bed6572c)" style="stroke: #000000"/>
    <path d="M 94.592675 166.869989 
C 94.780202 166.869989 94.960074 166.795484 95.092675 166.662882 
C 95.225277 166.530281 95.299782 166.350409 95.299782 166.162882 
C 95.299782 165.975356 95.225277 165.795484 95.092675 165.662882 
C 94.960074 165.530281 94.780202 165.455776 94.592675 165.455776 
C 94.405149 165.455776 94.225277 165.530281 94.092675 165.662882 
C 93.960074 165.795484 93.885569 165.975356 93.885569 166.162882 
C 93.885569 166.350409 93.960074 166.530281 94.092675 166.662882 
C 94.225277 166.795484 94.405149 166.869989 94.592675 166.869989 
z
" clip-path="url(#p41bed6572c)" style="stroke: #000000"/>
    <path d="M 94.220894 160.662314 
C 94.408421 160.662314 94.588293 160.587809 94.720894 160.455207 
C 94.853496 160.322606 94.928001 160.142734 94.928001 159.955207 
C 94.928001 159.76768 94.853496 159.587809 94.720894 159.455207 
C 94.588293 159.322606 94.408421 159.2481 94.220894 159.2481 
C 94.033368 159.2481 93.853496 159.322606 93.720894 159.455207 
C 93.588293 159.587809 93.513788 159.76768 93.513788 159.955207 
C 93.513788 160.142734 93.588293 160.322606 93.720894 160.455207 
C 93.853496 160.587809 94.033368 160.662314 94.220894 160.662314 
z
" clip-path="url(#p41bed6572c)" style="stroke: #000000"/>
    <path d="M 90.4014 146.832394 
C 90.534001 146.832394 90.66119 146.779711 90.754953 146.685948 
C 90.848717 146.592184 90.9014 146.464996 90.9014 146.332394 
C 90.9014 146.199793 90.848717 146.072604 90.754953 145.978841 
C 90.66119 145.885077 90.534001 145.832394 90.4014 145.832394 
C 90.268798 145.832394 90.14161 145.885077 90.047846 145.978841 
C 89.954083 146.072604 89.9014 146.199793 89.9014 146.332394 
C 89.9014 146.464996 89.954083 146.592184 90.047846 146.685948 
C 90.14161 146.779711 90.268798 146.832394 90.4014 146.832394 
z
" clip-path="url(#p41bed6572c)" style="stroke: #000000"/>
    <path d="M 84.734694 139.554383 
C 84.892385 139.554383 85.043638 139.491732 85.155142 139.380228 
C 85.266647 139.268724 85.329298 139.11747 85.329298 138.95978 
C 85.329298 138.802089 85.266647 138.650836 85.155142 138.539332 
C 85.043638 138.427827 84.892385 138.365176 84.734694 138.365176 
C 84.577004 138.365176 84.42575 138.427827 84.314246 138.539332 
C 84.202742 138.650836 84.140091 138.802089 84.140091 138.95978 
C 84.140091 139.11747 84.202742 139.268724 84.314246 139.380228 
C 84.42575 139.491732 84.577004 139.554383 84.734694 139.554383 
z
" clip-path="url(#p41bed6572c)" style="stroke: #000000"/>
    <path d="M 83.263385 134.799487 
C 83.80337 134.799487 84.321311 134.584948 84.703138 134.203121 
C 85.084965 133.821294 85.299504 133.303353 85.299504 132.763368 
C 85.299504 132.223382 85.084965 131.705441 84.703138 131.323614 
C 84.321311 130.941787 83.80337 130.727248 83.263385 130.727248 
C 82.7234 130.727248 82.205458 130.941787 81.823631 131.323614 
C 81.441804 131.705441 81.227266 132.223382 81.227266 132.763368 
C 81.227266 133.303353 81.441804 133.821294 81.823631 134.203121 
C 82.205458 134.584948 82.7234 134.799487 83.263385 134.799487 
z
" clip-path="url(#p41bed6572c)" style="stroke: #000000"/>
    <path d="M 81.000921 126.541662 
C 81.45458 126.541662 81.889718 126.361421 82.210503 126.040637 
C 82.531288 125.719852 82.711528 125.284713 82.711528 124.831055 
C 82.711528 124.377397 82.531288 123.942258 82.210503 123.621474 
C 81.889718 123.300689 81.45458 123.120449 81.000921 123.120449 
C 80.547263 123.120449 80.112125 123.300689 79.79134 123.621474 
C 79.470555 123.942258 79.290315 124.377397 79.290315 124.831055 
C 79.290315 125.284713 79.470555 125.719852 79.79134 126.040637 
C 80.112125 126.361421 80.547263 126.541662 81.000921 126.541662 
z
" clip-path="url(#p41bed6572c)" style="stroke: #000000"/>
    <path d="M 76.694809 124.489476 
C 76.985198 124.489476 77.263733 124.374103 77.469069 124.168767 
C 77.674405 123.963431 77.789778 123.684896 77.789778 123.394507 
C 77.789778 123.104118 77.674405 122.825583 77.469069 122.620247 
C 77.263733 122.41491 76.985198 122.299537 76.694809 122.299537 
C 76.40442 122.299537 76.125885 122.41491 75.920549 122.620247 
C 75.715212 122.825583 75.599839 123.104118 75.599839 123.394507 
C 75.599839 123.684896 75.715212 123.963431 75.920549 124.168767 
C 76.125885 124.374103 76.40442 124.489476 76.694809 124.489476 
z
" clip-path="url(#p41bed6572c)" style="stroke: #000000"/>
    <path d="M 80.943755 116.470076 
C 81.076357 116.470076 81.203545 116.417392 81.297308 116.323629 
C 81.391072 116.229866 81.443755 116.102677 81.443755 115.970076 
C 81.443755 115.837474 81.391072 115.710286 81.297308 115.616522 
C 81.203545 115.522759 81.076357 115.470076 80.943755 115.470076 
C 80.811154 115.470076 80.683965 115.522759 80.590202 115.616522 
C 80.496438 115.710286 80.443755 115.837474 80.443755 115.970076 
C 80.443755 116.102677 80.496438 116.229866 80.590202 116.323629 
C 80.683965 116.417392 80.811154 116.470076 80.943755 116.470076 
z
" clip-path="url(#p41bed6572c)" style="stroke: #000000"/>
    <path d="M 76.918908 111.145522 
C 77.356869 111.145522 77.776951 110.971519 78.086636 110.661833 
C 78.396321 110.352148 78.570325 109.932066 78.570325 109.494105 
C 78.570325 109.056144 78.396321 108.636062 78.086636 108.326377 
C 77.776951 108.016692 77.356869 107.842688 76.918908 107.842688 
C 76.480947 107.842688 76.060865 108.016692 75.75118 108.326377 
C 75.441495 108.636062 75.267491 109.056144 75.267491 109.494105 
C 75.267491 109.932066 75.441495 110.352148 75.75118 110.661833 
C 76.060865 110.971519 76.480947 111.145522 76.918908 111.145522 
z
" clip-path="url(#p41bed6572c)" style="stroke: #000000"/>
    <path d="M 73.553873 104.969142 
C 73.924452 104.969142 74.279903 104.821909 74.541942 104.55987 
C 74.803981 104.297831 74.951214 103.94238 74.951214 103.5718 
C 74.951214 103.201221 74.803981 102.84577 74.541942 102.583731 
C 74.279903 102.321692 73.924452 102.174459 73.553873 102.174459 
C 73.183294 102.174459 72.827842 102.321692 72.565803 102.583731 
C 72.303764 102.84577 72.156532 103.201221 72.156532 103.5718 
C 72.156532 103.94238 72.303764 104.297831 72.565803 104.55987 
C 72.827842 104.821909 73.183294 104.969142 73.553873 104.969142 
z
" clip-path="url(#p41bed6572c)" style="stroke: #000000"/>
    <path d="M 75.434302 97.335864 
C 76.052694 97.335864 76.645842 97.090174 77.083111 96.652905 
C 77.52038 96.215636 77.76607 95.622489 77.76607 95.004097 
C 77.76607 94.385704 77.52038 93.792557 77.083111 93.355288 
C 76.645842 92.918019 76.052694 92.672329 75.434302 92.672329 
C 74.81591 92.672329 74.222763 92.918019 73.785493 93.355288 
C 73.348224 93.792557 73.102534 94.385704 73.102534 95.004097 
C 73.102534 95.622489 73.348224 96.215636 73.785493 96.652905 
C 74.222763 97.090174 74.81591 97.335864 75.434302 97.335864 
z
" clip-path="url(#p41bed6572c)" style="stroke: #000000"/>
    <path d="M 70.712485 93.506358 
C 71.17183 93.506358 71.612424 93.323858 71.93723 92.999052 
C 72.262036 92.674246 72.444536 92.233652 72.444536 91.774307 
C 72.444536 91.314962 72.262036 90.874368 71.93723 90.549562 
C 71.612424 90.224756 71.17183 90.042256 70.712485 90.042256 
C 70.25314 90.042256 69.812546 90.224756 69.48774 90.549562 
C 69.162934 90.874368 68.980434 91.314962 68.980434 91.774307 
C 68.980434 92.233652 69.162934 92.674246 69.48774 92.999052 
C 69.812546 93.323858 70.25314 93.506358 70.712485 93.506358 
z
" clip-path="url(#p41bed6572c)" style="stroke: #000000"/>
    <path d="M 66.947754 85.98244 
C 67.52575 85.98244 68.080152 85.752799 68.488857 85.344094 
C 68.897563 84.935388 69.127203 84.380987 69.127203 83.80299 
C 69.127203 83.224993 68.897563 82.670592 68.488857 82.261887 
C 68.080152 81.853181 67.52575 81.623541 66.947754 81.623541 
C 66.369757 81.623541 65.815356 81.853181 65.40665 82.261887 
C 64.997945 82.670592 64.768304 83.224993 64.768304 83.80299 
C 64.768304 84.380987 64.997945 84.935388 65.40665 85.344094 
C 65.815356 85.752799 66.369757 85.98244 66.947754 85.98244 
z
" clip-path="url(#p41bed6572c)" style="stroke: #000000"/>
    <path d="M 63.628706 71.487047 
C 63.761308 71.487047 63.888496 71.434364 63.98226 71.340601 
C 64.076023 71.246837 64.128706 71.119649 64.128706 70.987047 
C 64.128706 70.854446 64.076023 70.727257 63.98226 70.633494 
C 63.888496 70.539731 63.761308 70.487047 63.628706 70.487047 
C 63.496105 70.487047 63.368916 70.539731 63.275153 70.633494 
C 63.181389 70.727257 63.128706 70.854446 63.128706 70.987047 
C 63.128706 71.119649 63.181389 71.246837 63.275153 71.340601 
C 63.368916 71.434364 63.496105 71.487047 63.628706 71.487047 
z
" clip-path="url(#p41bed6572c)" style="stroke: #000000"/>
    <path d="M 60.31684 65.721924 
C 60.449442 65.721924 60.57663 65.669241 60.670394 65.575478 
C 60.764157 65.481714 60.81684 65.354526 60.81684 65.221924 
C 60.81684 65.089323 60.764157 64.962134 60.670394 64.868371 
C 60.57663 64.774607 60.449442 64.721924 60.31684 64.721924 
C 60.184239 64.721924 60.05705 64.774607 59.963287 64.868371 
C 59.869523 64.962134 59.81684 65.089323 59.81684 65.221924 
C 59.81684 65.354526 59.869523 65.481714 59.963287 65.575478 
C 60.05705 65.669241 60.184239 65.721924 60.31684 65.721924 
z
" clip-path="url(#p41bed6572c)" style="stroke: #000000"/>
    <path d="M 88.989226 173.800478 
C 89.146917 173.800478 89.29817 173.737827 89.409674 173.626322 
C 89.521178 173.514818 89.58383 173.363565 89.58383 173.205874 
C 89.58383 173.048184 89.521178 172.89693 89.409674 172.785426 
C 89.29817 172.673922 89.146917 172.611271 88.989226 172.611271 
C 88.831535 172.611271 88.680282 172.673922 88.568778 172.785426 
C 88.457274 172.89693 88.394622 173.048184 88.394622 173.205874 
C 88.394622 173.363565 88.457274 173.514818 88.568778 173.626322 
C 88.680282 173.737827 88.831535 173.800478 88.989226 173.800478 
z
" clip-path="url(#p41bed6572c)" style="stroke: #000000"/>
    <path d="M 87.399353 166.763592 
C 87.573866 166.763592 87.741255 166.694257 87.864655 166.570857 
C 87.988055 166.447458 88.05739 166.280068 88.05739 166.105555 
C 88.05739 165.931042 87.988055 165.763652 87.864655 165.640253 
C 87.741255 165.516853 87.573866 165.447518 87.399353 165.447518 
C 87.224839 165.447518 87.05745 165.516853 86.93405 165.640253 
C 86.810651 165.763652 86.741316 165.931042 86.741316 166.105555 
C 86.741316 166.280068 86.810651 166.447458 86.93405 166.570857 
C 87.05745 166.694257 87.224839 166.763592 87.399353 166.763592 
z
" clip-path="url(#p41bed6572c)" style="stroke: #000000"/>
    <path d="M 82.521578 155.072642 
C 82.679269 155.072642 82.830522 155.009991 82.942026 154.898487 
C 83.05353 154.786983 83.116181 154.63573 83.116181 154.478039 
C 83.116181 154.320348 83.05353 154.169095 82.942026 154.057591 
C 82.830522 153.946087 82.679269 153.883435 82.521578 153.883435 
C 82.363887 153.883435 82.212634 153.946087 82.10113 154.057591 
C 81.989626 154.169095 81.926974 154.320348 81.926974 154.478039 
C 81.926974 154.63573 81.989626 154.786983 82.10113 154.898487 
C 82.212634 155.009991 82.363887 155.072642 82.521578 155.072642 
z
" clip-path="url(#p41bed6572c)" style="stroke: #000000"/>
    <path d="M 82.772102 148.569701 
C 83.04523 148.569701 83.307209 148.461186 83.50034 148.268055 
C 83.693471 148.074924 83.801986 147.812946 83.801986 147.539817 
C 83.801986 147.266689 83.693471 147.004711 83.50034 146.81158 
C 83.307209 146.618449 83.04523 146.509934 82.772102 146.509934 
C 82.498974 146.509934 82.236995 146.618449 82.043864 146.81158 
C 81.850734 147.004711 81.742218 147.266689 81.742218 147.539817 
C 81.742218 147.812946 81.850734 148.074924 82.043864 148.268055 
C 82.236995 148.461186 82.498974 148.569701 82.772102 148.569701 
z
" clip-path="url(#p41bed6572c)" style="stroke: #000000"/>
    <path d="M 78.007494 135.210787 
C 78.554697 135.210787 79.079561 134.993381 79.466491 134.606451 
C 79.853422 134.21952 80.070828 133.694656 80.070828 133.147453 
C 80.070828 132.600251 79.853422 132.075387 79.466491 131.688456 
C 79.079561 131.301526 78.554697 131.08412 78.007494 131.08412 
C 77.460291 131.08412 76.935427 131.301526 76.548497 131.688456 
C 76.161566 132.075387 75.94416 132.600251 75.94416 133.147453 
C 75.94416 133.694656 76.161566 134.21952 76.548497 134.606451 
C 76.935427 134.993381 77.460291 135.210787 78.007494 135.210787 
z
" clip-path="url(#p41bed6572c)" style="stroke: #000000"/>
    <path d="M 77.344779 132.185877 
C 77.810375 132.185877 78.256964 132.000893 78.586191 131.671667 
C 78.915417 131.342441 79.1004 130.895851 79.1004 130.430255 
C 79.1004 129.964659 78.915417 129.51807 78.586191 129.188843 
C 78.256964 128.859617 77.810375 128.674634 77.344779 128.674634 
C 76.879183 128.674634 76.432593 128.859617 76.103367 129.188843 
C 75.774141 129.51807 75.589157 129.964659 75.589157 130.430255 
C 75.589157 130.895851 75.774141 131.342441 76.103367 131.671667 
C 76.432593 132.000893 76.879183 132.185877 77.344779 132.185877 
z
" clip-path="url(#p41bed6572c)" style="stroke: #000000"/>
    <path d="M 74.634208 124.329073 
C 75.045992 124.329073 75.440965 124.165469 75.73214 123.874294 
C 76.023316 123.583119 76.186919 123.188145 76.186919 122.776362 
C 76.186919 122.364578 76.023316 121.969604 75.73214 121.678429 
C 75.440965 121.387254 75.045992 121.22365 74.634208 121.22365 
C 74.222424 121.22365 73.82745 121.387254 73.536275 121.678429 
C 73.2451 121.969604 73.081496 122.364578 73.081496 122.776362 
C 73.081496 123.188145 73.2451 123.583119 73.536275 123.874294 
C 73.82745 124.165469 74.222424 124.329073 74.634208 124.329073 
z
" clip-path="url(#p41bed6572c)" style="stroke: #000000"/>
    <path d="M 72.485386 118.802842 
C 73.029256 118.802842 73.550924 118.58676 73.935498 118.202186 
C 74.320072 117.817612 74.536154 117.295944 74.536154 116.752074 
C 74.536154 116.208204 74.320072 115.686536 73.935498 115.301962 
C 73.550924 114.917387 73.029256 114.701306 72.485386 114.701306 
C 71.941515 114.701306 71.419848 114.917387 71.035273 115.301962 
C 70.650699 115.686536 70.434617 116.208204 70.434617 116.752074 
C 70.434617 117.295944 70.650699 117.817612 71.035273 118.202186 
C 71.419848 118.58676 71.941515 118.802842 72.485386 118.802842 
z
" clip-path="url(#p41bed6572c)" style="stroke: #000000"/>
    <path d="M 69.372522 112.392651 
C 69.843388 112.392651 70.295033 112.205573 70.627986 111.87262 
C 70.960939 111.539667 71.148016 111.088023 71.148016 110.617156 
C 71.148016 110.14629 70.960939 109.694645 70.627986 109.361692 
C 70.295033 109.028739 69.843388 108.841662 69.372522 108.841662 
C 68.901655 108.841662 68.45001 109.028739 68.117058 109.361692 
C 67.784105 109.694645 67.597027 110.14629 67.597027 110.617156 
C 67.597027 111.088023 67.784105 111.539667 68.117058 111.87262 
C 68.45001 112.205573 68.901655 112.392651 69.372522 112.392651 
z
" clip-path="url(#p41bed6572c)" style="stroke: #000000"/>
    <path d="M 66.260288 106.949775 
C 66.784903 106.949775 67.288101 106.741343 67.659059 106.370385 
C 68.030017 105.999426 68.238449 105.496228 68.238449 104.971614 
C 68.238449 104.447 68.030017 103.943802 67.659059 103.572843 
C 67.288101 103.201885 66.784903 102.993454 66.260288 102.993454 
C 65.735674 102.993454 65.232476 103.201885 64.861518 103.572843 
C 64.490559 103.943802 64.282128 104.447 64.282128 104.971614 
C 64.282128 105.496228 64.490559 105.999426 64.861518 106.370385 
C 65.232476 106.741343 65.735674 106.949775 66.260288 106.949775 
z
" clip-path="url(#p41bed6572c)" style="stroke: #000000"/>
    <path d="M 65.871134 98.378887 
C 66.117933 98.378887 66.354658 98.280832 66.529171 98.106319 
C 66.703684 97.931806 66.801739 97.695081 66.801739 97.448282 
C 66.801739 97.201483 66.703684 96.964758 66.529171 96.790245 
C 66.354658 96.615732 66.117933 96.517677 65.871134 96.517677 
C 65.624335 96.517677 65.38761 96.615732 65.213097 96.790245 
C 65.038584 96.964758 64.940529 97.201483 64.940529 97.448282 
C 64.940529 97.695081 65.038584 97.931806 65.213097 98.106319 
C 65.38761 98.280832 65.624335 98.378887 65.871134 98.378887 
z
" clip-path="url(#p41bed6572c)" style="stroke: #000000"/>
    <path d="M 64.477869 94.728659 
C 64.652383 94.728659 64.819772 94.659324 64.943172 94.535925 
C 65.066571 94.412525 65.135906 94.245136 65.135906 94.070622 
C 65.135906 93.896109 65.066571 93.72872 64.943172 93.60532 
C 64.819772 93.48192 64.652383 93.412585 64.477869 93.412585 
C 64.303356 93.412585 64.135967 93.48192 64.012567 93.60532 
C 63.889167 93.72872 63.819832 93.896109 63.819832 94.070622 
C 63.819832 94.245136 63.889167 94.412525 64.012567 94.535925 
C 64.135967 94.659324 64.303356 94.728659 64.477869 94.728659 
z
" clip-path="url(#p41bed6572c)" style="stroke: #000000"/>
    <path d="M 62.480097 87.231845 
C 62.678383 87.231845 62.868574 87.153065 63.008783 87.012856 
C 63.148992 86.872647 63.227772 86.682456 63.227772 86.484171 
C 63.227772 86.285885 63.148992 86.095694 63.008783 85.955485 
C 62.868574 85.815276 62.678383 85.736496 62.480097 85.736496 
C 62.281812 85.736496 62.091621 85.815276 61.951412 85.955485 
C 61.811203 86.095694 61.732423 86.285885 61.732423 86.484171 
C 61.732423 86.682456 61.811203 86.872647 61.951412 87.012856 
C 62.091621 87.153065 62.281812 87.231845 62.480097 87.231845 
z
" clip-path="url(#p41bed6572c)" style="stroke: #000000"/>
    <path d="M 59.420825 82.020334 
C 59.738642 82.020334 60.043485 81.894064 60.268216 81.669333 
C 60.492946 81.444603 60.619216 81.13976 60.619216 80.821943 
C 60.619216 80.504126 60.492946 80.199283 60.268216 79.974553 
C 60.043485 79.749822 59.738642 79.623552 59.420825 79.623552 
C 59.103008 79.623552 58.798166 79.749822 58.573435 79.974553 
C 58.348704 80.199283 58.222434 80.504126 58.222434 80.821943 
C 58.222434 81.13976 58.348704 81.444603 58.573435 81.669333 
C 58.798166 81.894064 59.103008 82.020334 59.420825 82.020334 
z
" clip-path="url(#p41bed6572c)" style="stroke: #000000"/>
    <path d="M 81.689005 167.089606 
C 81.821606 167.089606 81.948794 167.036923 82.042558 166.94316 
C 82.136321 166.849396 82.189005 166.722208 82.189005 166.589606 
C 82.189005 166.457005 82.136321 166.329817 82.042558 166.236053 
C 81.948794 166.14229 81.821606 166.089606 81.689005 166.089606 
C 81.556403 166.089606 81.429215 166.14229 81.335451 166.236053 
C 81.241688 166.329817 81.189005 166.457005 81.189005 166.589606 
C 81.189005 166.722208 81.241688 166.849396 81.335451 166.94316 
C 81.429215 167.036923 81.556403 167.089606 81.689005 167.089606 
z
" clip-path="url(#p41bed6572c)" style="stroke: #000000"/>
    <path d="M 71.688176 137.230808 
C 72.112645 137.230808 72.519786 137.062165 72.819931 136.76202 
C 73.120076 136.461875 73.288719 136.054734 73.288719 135.630265 
C 73.288719 135.205797 73.120076 134.798656 72.819931 134.498511 
C 72.519786 134.198366 72.112645 134.029723 71.688176 134.029723 
C 71.263707 134.029723 70.856566 134.198366 70.556421 134.498511 
C 70.256276 134.798656 70.087633 135.205797 70.087633 135.630265 
C 70.087633 136.054734 70.256276 136.461875 70.556421 136.76202 
C 70.856566 137.062165 71.263707 137.230808 71.688176 137.230808 
z
" clip-path="url(#p41bed6572c)" style="stroke: #000000"/>
    <path d="M 69.586454 132.848204 
C 70.161222 132.848204 70.712525 132.619847 71.118948 132.213425 
C 71.52537 131.807003 71.753727 131.255699 71.753727 130.680931 
C 71.753727 130.106164 71.52537 129.55486 71.118948 129.148438 
C 70.712525 128.742015 70.161222 128.513658 69.586454 128.513658 
C 69.011686 128.513658 68.460382 128.742015 68.05396 129.148438 
C 67.647538 129.55486 67.419181 130.106164 67.419181 130.680931 
C 67.419181 131.255699 67.647538 131.807003 68.05396 132.213425 
C 68.460382 132.619847 69.011686 132.848204 69.586454 132.848204 
z
" clip-path="url(#p41bed6572c)" style="stroke: #000000"/>
    <path d="M 68.840551 129.899164 
C 69.301483 129.899164 69.743598 129.716034 70.069526 129.390106 
C 70.395454 129.064178 70.578585 128.622063 70.578585 128.161131 
C 70.578585 127.700199 70.395454 127.258083 70.069526 126.932155 
C 69.743598 126.606227 69.301483 126.423097 68.840551 126.423097 
C 68.379619 126.423097 67.937504 126.606227 67.611575 126.932155 
C 67.285647 127.258083 67.102517 127.700199 67.102517 128.161131 
C 67.102517 128.622063 67.285647 129.064178 67.611575 129.390106 
C 67.937504 129.716034 68.379619 129.899164 68.840551 129.899164 
z
" clip-path="url(#p41bed6572c)" style="stroke: #000000"/>
    <path d="M 68.196208 119.393741 
C 68.503923 119.393741 68.799076 119.271485 69.016663 119.053898 
C 69.23425 118.836311 69.356506 118.541158 69.356506 118.233443 
C 69.356506 117.925729 69.23425 117.630576 69.016663 117.412989 
C 68.799076 117.195402 68.503923 117.073145 68.196208 117.073145 
C 67.888494 117.073145 67.593341 117.195402 67.375754 117.412989 
C 67.158167 117.630576 67.035911 117.925729 67.035911 118.233443 
C 67.035911 118.541158 67.158167 118.836311 67.375754 119.053898 
C 67.593341 119.271485 67.888494 119.393741 68.196208 119.393741 
z
" clip-path="url(#p41bed6572c)" style="stroke: #000000"/>
    <path d="M 63.031259 114.097397 
C 63.417521 114.097397 63.788015 113.943934 64.061143 113.670805 
C 64.334271 113.397677 64.487735 113.027183 64.487735 112.640922 
C 64.487735 112.25466 64.334271 111.884166 64.061143 111.611038 
C 63.788015 111.33791 63.417521 111.184446 63.031259 111.184446 
C 62.644998 111.184446 62.274504 111.33791 62.001376 111.611038 
C 61.728247 111.884166 61.574784 112.25466 61.574784 112.640922 
C 61.574784 113.027183 61.728247 113.397677 62.001376 113.670805 
C 62.274504 113.943934 62.644998 114.097397 63.031259 114.097397 
z
" clip-path="url(#p41bed6572c)" style="stroke: #000000"/>
    <path d="M 60.587575 109.861295 
C 60.987813 109.861295 61.371712 109.702279 61.654723 109.419268 
C 61.937733 109.136257 62.09675 108.752358 62.09675 108.352121 
C 62.09675 107.951883 61.937733 107.567984 61.654723 107.284973 
C 61.371712 107.001962 60.987813 106.842946 60.587575 106.842946 
C 60.187337 106.842946 59.803438 107.001962 59.520427 107.284973 
C 59.237416 107.567984 59.0784 107.951883 59.0784 108.352121 
C 59.0784 108.752358 59.237416 109.136257 59.520427 109.419268 
C 59.803438 109.702279 60.187337 109.861295 60.587575 109.861295 
z
" clip-path="url(#p41bed6572c)" style="stroke: #000000"/>
    <path d="M 60.684162 102.510867 
C 60.816763 102.510867 60.943952 102.458183 61.037715 102.36442 
C 61.131479 102.270656 61.184162 102.143468 61.184162 102.010867 
C 61.184162 101.878265 61.131479 101.751077 61.037715 101.657313 
C 60.943952 101.56355 60.816763 101.510867 60.684162 101.510867 
C 60.55156 101.510867 60.424372 101.56355 60.330608 101.657313 
C 60.236845 101.751077 60.184162 101.878265 60.184162 102.010867 
C 60.184162 102.143468 60.236845 102.270656 60.330608 102.36442 
C 60.424372 102.458183 60.55156 102.510867 60.684162 102.510867 
z
" clip-path="url(#p41bed6572c)" style="stroke: #000000"/>
    <path d="M 56.983817 96.680456 
C 57.554886 96.680456 58.102642 96.453568 58.506448 96.049762 
C 58.910254 95.645955 59.137142 95.098199 59.137142 94.527131 
C 59.137142 93.956062 58.910254 93.408306 58.506448 93.0045 
C 58.102642 92.600694 57.554886 92.373806 56.983817 92.373806 
C 56.412749 92.373806 55.864993 92.600694 55.461186 93.0045 
C 55.05738 93.408306 54.830492 93.956062 54.830492 94.527131 
C 54.830492 95.098199 55.05738 95.645955 55.461186 96.049762 
C 55.864993 96.453568 56.412749 96.680456 56.983817 96.680456 
z
" clip-path="url(#p41bed6572c)" style="stroke: #000000"/>
    <path d="M 56.231842 88.790729 
C 56.522232 88.790729 56.800766 88.675356 57.006103 88.470019 
C 57.211439 88.264683 57.326812 87.986148 57.326812 87.695759 
C 57.326812 87.40537 57.211439 87.126835 57.006103 86.921499 
C 56.800766 86.716163 56.522232 86.60079 56.231842 86.60079 
C 55.941453 86.60079 55.662918 86.716163 55.457582 86.921499 
C 55.252246 87.126835 55.136873 87.40537 55.136873 87.695759 
C 55.136873 87.986148 55.252246 88.264683 55.457582 88.470019 
C 55.662918 88.675356 55.941453 88.790729 56.231842 88.790729 
z
" clip-path="url(#p41bed6572c)" style="stroke: #000000"/>
    <path d="M 51.771541 80.982392 
C 51.904142 80.982392 52.031331 80.929709 52.125094 80.835945 
C 52.218858 80.742182 52.271541 80.614993 52.271541 80.482392 
C 52.271541 80.34979 52.218858 80.222602 52.125094 80.128838 
C 52.031331 80.035075 51.904142 79.982392 51.771541 79.982392 
C 51.638939 79.982392 51.511751 80.035075 51.417987 80.128838 
C 51.324224 80.222602 51.271541 80.34979 51.271541 80.482392 
C 51.271541 80.614993 51.324224 80.742182 51.417987 80.835945 
C 51.511751 80.929709 51.638939 80.982392 51.771541 80.982392 
z
" clip-path="url(#p41bed6572c)" style="stroke: #000000"/>
    <path d="M 46.690718 71.410442 
C 46.82332 71.410442 46.950508 71.357759 47.044272 71.263996 
C 47.138035 71.170232 47.190718 71.043044 47.190718 70.910442 
C 47.190718 70.777841 47.138035 70.650652 47.044272 70.556889 
C 46.950508 70.463125 46.82332 70.410442 46.690718 70.410442 
C 46.558117 70.410442 46.430928 70.463125 46.337165 70.556889 
C 46.243401 70.650652 46.190718 70.777841 46.190718 70.910442 
C 46.190718 71.043044 46.243401 71.170232 46.337165 71.263996 
C 46.430928 71.357759 46.558117 71.410442 46.690718 71.410442 
z
" clip-path="url(#p41bed6572c)" style="stroke: #000000"/>
    <path d="M 70.60193 153.026462 
C 70.734531 153.026462 70.86172 152.973779 70.955483 152.880016 
C 71.049247 152.786252 71.10193 152.659064 71.10193 152.526462 
C 71.10193 152.393861 71.049247 152.266672 70.955483 152.172909 
C 70.86172 152.079145 70.734531 152.026462 70.60193 152.026462 
C 70.469328 152.026462 70.34214 152.079145 70.248376 152.172909 
C 70.154613 152.266672 70.10193 152.393861 70.10193 152.526462 
C 70.10193 152.659064 70.154613 152.786252 70.248376 152.880016 
C 70.34214 152.973779 70.469328 153.026462 70.60193 153.026462 
z
" clip-path="url(#p41bed6572c)" style="stroke: #000000"/>
    <path d="M 66.960293 143.875149 
C 67.253789 143.875149 67.535303 143.758542 67.742836 143.551009 
C 67.950368 143.343476 68.066975 143.061962 68.066975 142.768467 
C 68.066975 142.474971 67.950368 142.193457 67.742836 141.985924 
C 67.535303 141.778392 67.253789 141.661785 66.960293 141.661785 
C 66.666798 141.661785 66.385284 141.778392 66.177751 141.985924 
C 65.970218 142.193457 65.853611 142.474971 65.853611 142.768467 
C 65.853611 143.061962 65.970218 143.343476 66.177751 143.551009 
C 66.385284 143.758542 66.666798 143.875149 66.960293 143.875149 
z
" clip-path="url(#p41bed6572c)" style="stroke: #000000"/>
    <path d="M 66.588897 141.67158 
C 66.746588 141.67158 66.897841 141.608929 67.009345 141.497424 
C 67.12085 141.38592 67.183501 141.234667 67.183501 141.076976 
C 67.183501 140.919286 67.12085 140.768032 67.009345 140.656528 
C 66.897841 140.545024 66.746588 140.482373 66.588897 140.482373 
C 66.431206 140.482373 66.279953 140.545024 66.168449 140.656528 
C 66.056945 140.768032 65.994294 140.919286 65.994294 141.076976 
C 65.994294 141.234667 66.056945 141.38592 66.168449 141.497424 
C 66.279953 141.608929 66.431206 141.67158 66.588897 141.67158 
z
" clip-path="url(#p41bed6572c)" style="stroke: #000000"/>
    <path d="M 63.541309 137.229454 
C 63.715822 137.229454 63.883211 137.16012 64.006611 137.03672 
C 64.130011 136.91332 64.199346 136.745931 64.199346 136.571417 
C 64.199346 136.396904 64.130011 136.229515 64.006611 136.106115 
C 63.883211 135.982715 63.715822 135.91338 63.541309 135.91338 
C 63.366795 135.91338 63.199406 135.982715 63.076006 136.106115 
C 62.952607 136.229515 62.883272 136.396904 62.883272 136.571417 
C 62.883272 136.745931 62.952607 136.91332 63.076006 137.03672 
C 63.199406 137.16012 63.366795 137.229454 63.541309 137.229454 
z
" clip-path="url(#p41bed6572c)" style="stroke: #000000"/>
    <path d="M 60.868576 127.51931 
C 61.310172 127.51931 61.733741 127.343863 62.045996 127.031607 
C 62.358251 126.719352 62.533699 126.295783 62.533699 125.854188 
C 62.533699 125.412592 62.358251 124.989023 62.045996 124.676768 
C 61.733741 124.364512 61.310172 124.189065 60.868576 124.189065 
C 60.426981 124.189065 60.003412 124.364512 59.691157 124.676768 
C 59.378901 124.989023 59.203453 125.412592 59.203453 125.854188 
C 59.203453 126.295783 59.378901 126.719352 59.691157 127.031607 
C 60.003412 127.343863 60.426981 127.51931 60.868576 127.51931 
z
" clip-path="url(#p41bed6572c)" style="stroke: #000000"/>
    <path d="M 57.174877 122.143766 
C 57.720183 122.143766 58.243228 121.927114 58.628817 121.541524 
C 59.014407 121.155935 59.231059 120.63289 59.231059 120.087584 
C 59.231059 119.542278 59.014407 119.019234 58.628817 118.633644 
C 58.243228 118.248055 57.720183 118.031402 57.174877 118.031402 
C 56.629571 118.031402 56.106527 118.248055 55.720937 118.633644 
C 55.335348 119.019234 55.118695 119.542278 55.118695 120.087584 
C 55.118695 120.63289 55.335348 121.155935 55.720937 121.541524 
C 56.106527 121.927114 56.629571 122.143766 57.174877 122.143766 
z
" clip-path="url(#p41bed6572c)" style="stroke: #000000"/>
    <path d="M 53.38868 115.919215 
C 53.744761 115.919215 54.086306 115.777742 54.338094 115.525954 
C 54.589882 115.274167 54.731354 114.932622 54.731354 114.57654 
C 54.731354 114.220459 54.589882 113.878913 54.338094 113.627126 
C 54.086306 113.375338 53.744761 113.233865 53.38868 113.233865 
C 53.032598 113.233865 52.691053 113.375338 52.439265 113.627126 
C 52.187478 113.878913 52.046005 114.220459 52.046005 114.57654 
C 52.046005 114.932622 52.187478 115.274167 52.439265 115.525954 
C 52.691053 115.777742 53.032598 115.919215 53.38868 115.919215 
z
" clip-path="url(#p41bed6572c)" style="stroke: #000000"/>
    <path d="M 54.09081 110.256095 
C 54.633717 110.256095 55.154461 110.040396 55.538354 109.656503 
C 55.922247 109.27261 56.137946 108.751866 56.137946 108.208959 
C 56.137946 107.666053 55.922247 107.145309 55.538354 106.761416 
C 55.154461 106.377523 54.633717 106.161824 54.09081 106.161824 
C 53.547903 106.161824 53.02716 106.377523 52.643267 106.761416 
C 52.259374 107.145309 52.043675 107.666053 52.043675 108.208959 
C 52.043675 108.751866 52.259374 109.27261 52.643267 109.656503 
C 53.02716 110.040396 53.547903 110.256095 54.09081 110.256095 
z
" clip-path="url(#p41bed6572c)" style="stroke: #000000"/>
    <path d="M 48.821744 100.103091 
C 48.954346 100.103091 49.081534 100.050408 49.175297 99.956645 
C 49.269061 99.862881 49.321744 99.735693 49.321744 99.603091 
C 49.321744 99.47049 49.269061 99.343301 49.175297 99.249538 
C 49.081534 99.155774 48.954346 99.103091 48.821744 99.103091 
C 48.689143 99.103091 48.561954 99.155774 48.468191 99.249538 
C 48.374427 99.343301 48.321744 99.47049 48.321744 99.603091 
C 48.321744 99.735693 48.374427 99.862881 48.468191 99.956645 
C 48.561954 100.050408 48.689143 100.103091 48.821744 100.103091 
z
" clip-path="url(#p41bed6572c)" style="stroke: #000000"/>
    <path d="M 45.209493 84.171126 
C 45.425179 84.171126 45.632061 84.085433 45.784574 83.932919 
C 45.937088 83.780406 46.022781 83.573524 46.022781 83.357837 
C 46.022781 83.142151 45.937088 82.935269 45.784574 82.782756 
C 45.632061 82.630242 45.425179 82.544549 45.209493 82.544549 
C 44.993806 82.544549 44.786924 82.630242 44.634411 82.782756 
C 44.481897 82.935269 44.396204 83.142151 44.396204 83.357837 
C 44.396204 83.573524 44.481897 83.780406 44.634411 83.932919 
C 44.786924 84.085433 44.993806 84.171126 45.209493 84.171126 
z
" clip-path="url(#p41bed6572c)" style="stroke: #000000"/>
    <path d="M 67.074755 164.297785 
C 67.207356 164.297785 67.334545 164.245102 67.428308 164.151338 
C 67.522071 164.057575 67.574755 163.930387 67.574755 163.797785 
C 67.574755 163.665183 67.522071 163.537995 67.428308 163.444232 
C 67.334545 163.350468 67.207356 163.297785 67.074755 163.297785 
C 66.942153 163.297785 66.814965 163.350468 66.721201 163.444232 
C 66.627438 163.537995 66.574755 163.665183 66.574755 163.797785 
C 66.574755 163.930387 66.627438 164.057575 66.721201 164.151338 
C 66.814965 164.245102 66.942153 164.297785 67.074755 164.297785 
z
" clip-path="url(#p41bed6572c)" style="stroke: #000000"/>
    <path d="M 58.098537 143.328357 
C 58.314223 143.328357 58.521105 143.242664 58.673618 143.09015 
C 58.826132 142.937637 58.911825 142.730755 58.911825 142.515068 
C 58.911825 142.299382 58.826132 142.0925 58.673618 141.939987 
C 58.521105 141.787473 58.314223 141.70178 58.098537 141.70178 
C 57.88285 141.70178 57.675968 141.787473 57.523455 141.939987 
C 57.370941 142.0925 57.285248 142.299382 57.285248 142.515068 
C 57.285248 142.730755 57.370941 142.937637 57.523455 143.09015 
C 57.675968 143.242664 57.88285 143.328357 58.098537 143.328357 
z
" clip-path="url(#p41bed6572c)" style="stroke: #000000"/>
    <path d="M 56.584821 132.2055 
C 56.969735 132.2055 57.338935 132.052572 57.61111 131.780397 
C 57.883285 131.508222 58.036213 131.139022 58.036213 130.754108 
C 58.036213 130.369195 57.883285 129.999994 57.61111 129.727819 
C 57.338935 129.455644 56.969735 129.302717 56.584821 129.302717 
C 56.199908 129.302717 55.830707 129.455644 55.558532 129.727819 
C 55.286357 129.999994 55.13343 130.369195 55.13343 130.754108 
C 55.13343 131.139022 55.286357 131.508222 55.558532 131.780397 
C 55.830707 132.052572 56.199908 132.2055 56.584821 132.2055 
z
" clip-path="url(#p41bed6572c)" style="stroke: #000000"/>
    <path d="M 50.101452 122.277087 
C 50.259143 122.277087 50.410396 122.214436 50.521901 122.102931 
C 50.633405 121.991427 50.696056 121.840174 50.696056 121.682483 
C 50.696056 121.524793 50.633405 121.373539 50.521901 121.262035 
C 50.410396 121.150531 50.259143 121.08788 50.101452 121.08788 
C 49.943762 121.08788 49.792508 121.150531 49.681004 121.262035 
C 49.5695 121.373539 49.506849 121.524793 49.506849 121.682483 
C 49.506849 121.840174 49.5695 121.991427 49.681004 122.102931 
C 49.792508 122.214436 49.943762 122.277087 50.101452 122.277087 
z
" clip-path="url(#p41bed6572c)" style="stroke: #000000"/>
    <path d="M 49.747189 112.373855 
C 50.177596 112.373855 50.590433 112.202853 50.894777 111.898509 
C 51.19912 111.594165 51.370123 111.181328 51.370123 110.750921 
C 51.370123 110.320514 51.19912 109.907678 50.894777 109.603334 
C 50.590433 109.29899 50.177596 109.127988 49.747189 109.127988 
C 49.316782 109.127988 48.903946 109.29899 48.599602 109.603334 
C 48.295258 109.907678 48.124256 110.320514 48.124256 110.750921 
C 48.124256 111.181328 48.295258 111.594165 48.599602 111.898509 
C 48.903946 112.202853 49.316782 112.373855 49.747189 112.373855 
z
" clip-path="url(#p41bed6572c)" style="stroke: #000000"/>
    <path d="M 47.379607 105.739783 
C 47.621096 105.739783 47.852726 105.643839 48.023484 105.47308 
C 48.194243 105.302322 48.290187 105.070692 48.290187 104.829203 
C 48.290187 104.587714 48.194243 104.356084 48.023484 104.185326 
C 47.852726 104.014567 47.621096 103.918623 47.379607 103.918623 
C 47.138118 103.918623 46.906488 104.014567 46.73573 104.185326 
C 46.564971 104.356084 46.469027 104.587714 46.469027 104.829203 
C 46.469027 105.070692 46.564971 105.302322 46.73573 105.47308 
C 46.906488 105.643839 47.138118 105.739783 47.379607 105.739783 
z
" clip-path="url(#p41bed6572c)" style="stroke: #000000"/>
    <path d="M 43.195088 99.222557 
C 43.42476 99.222557 43.645057 99.131307 43.80746 98.968904 
C 43.969863 98.806501 44.061113 98.586204 44.061113 98.356532 
C 44.061113 98.126859 43.969863 97.906562 43.80746 97.744159 
C 43.645057 97.581756 43.42476 97.490506 43.195088 97.490506 
C 42.965415 97.490506 42.745118 97.581756 42.582715 97.744159 
C 42.420312 97.906562 42.329062 98.126859 42.329062 98.356532 
C 42.329062 98.586204 42.420312 98.806501 42.582715 98.968904 
C 42.745118 99.131307 42.965415 99.222557 43.195088 99.222557 
z
" clip-path="url(#p41bed6572c)" style="stroke: #000000"/>
    <path d="M 39.601059 86.158106 
C 39.75875 86.158106 39.910003 86.095454 40.021508 85.98395 
C 40.133012 85.872446 40.195663 85.721193 40.195663 85.563502 
C 40.195663 85.405811 40.133012 85.254558 40.021508 85.143054 
C 39.910003 85.03155 39.75875 84.968899 39.601059 84.968899 
C 39.443369 84.968899 39.292115 85.03155 39.180611 85.143054 
C 39.069107 85.254558 39.006456 85.405811 39.006456 85.563502 
C 39.006456 85.721193 39.069107 85.872446 39.180611 85.98395 
C 39.292115 86.095454 39.443369 86.158106 39.601059 86.158106 
z
" clip-path="url(#p41bed6572c)" style="stroke: #000000"/>
    <path d="M 60.33637 169.265681 
C 60.468972 169.265681 60.59616 169.212998 60.689923 169.119235 
C 60.783687 169.025471 60.83637 168.898283 60.83637 168.765681 
C 60.83637 168.63308 60.783687 168.505891 60.689923 168.412128 
C 60.59616 168.318365 60.468972 168.265681 60.33637 168.265681 
C 60.203768 168.265681 60.07658 168.318365 59.982817 168.412128 
C 59.889053 168.505891 59.83637 168.63308 59.83637 168.765681 
C 59.83637 168.898283 59.889053 169.025471 59.982817 169.119235 
C 60.07658 169.212998 60.203768 169.265681 60.33637 169.265681 
z
" clip-path="url(#p41bed6572c)" style="stroke: #000000"/>
    <path d="M 54.760969 150.189065 
C 54.893571 150.189065 55.020759 150.136382 55.114523 150.042619 
C 55.208286 149.948855 55.260969 149.821667 55.260969 149.689065 
C 55.260969 149.556464 55.208286 149.429275 55.114523 149.335512 
C 55.020759 149.241748 54.893571 149.189065 54.760969 149.189065 
C 54.628368 149.189065 54.501179 149.241748 54.407416 149.335512 
C 54.313652 149.429275 54.260969 149.556464 54.260969 149.689065 
C 54.260969 149.821667 54.313652 149.948855 54.407416 150.042619 
C 54.501179 150.136382 54.628368 150.189065 54.760969 150.189065 
z
" clip-path="url(#p41bed6572c)" style="stroke: #000000"/>
    <path d="M 48.668009 132.286362 
C 48.975724 132.286362 49.270877 132.164106 49.488464 131.946519 
C 49.706051 131.728932 49.828307 131.433779 49.828307 131.126064 
C 49.828307 130.81835 49.706051 130.523197 49.488464 130.30561 
C 49.270877 130.088023 48.975724 129.965766 48.668009 129.965766 
C 48.360295 129.965766 48.065142 130.088023 47.847555 130.30561 
C 47.629968 130.523197 47.507711 130.81835 47.507711 131.126064 
C 47.507711 131.433779 47.629968 131.728932 47.847555 131.946519 
C 48.065142 132.164106 48.360295 132.286362 48.668009 132.286362 
z
" clip-path="url(#p41bed6572c)" style="stroke: #000000"/>
    <path d="M 46.73477 125.532459 
C 47.02195 125.532459 47.297406 125.418361 47.500473 125.215294 
C 47.70354 125.012227 47.817638 124.736771 47.817638 124.449591 
C 47.817638 124.162411 47.70354 123.886954 47.500473 123.683887 
C 47.297406 123.48082 47.02195 123.366722 46.73477 123.366722 
C 46.44759 123.366722 46.172133 123.48082 45.969066 123.683887 
C 45.765999 123.886954 45.651901 124.162411 45.651901 124.449591 
C 45.651901 124.736771 45.765999 125.012227 45.969066 125.215294 
C 46.172133 125.418361 46.44759 125.532459 46.73477 125.532459 
z
" clip-path="url(#p41bed6572c)" style="stroke: #000000"/>
    <path d="M 45.065113 117.597932 
C 45.326071 117.597932 45.576377 117.494253 45.760902 117.309727 
C 45.945428 117.125201 46.049108 116.874896 46.049108 116.613938 
C 46.049108 116.352979 45.945428 116.102674 45.760902 115.918148 
C 45.576377 115.733623 45.326071 115.629943 45.065113 115.629943 
C 44.804154 115.629943 44.553849 115.733623 44.369323 115.918148 
C 44.184798 116.102674 44.081118 116.352979 44.081118 116.613938 
C 44.081118 116.874896 44.184798 117.125201 44.369323 117.309727 
C 44.553849 117.494253 44.804154 117.597932 45.065113 117.597932 
z
" clip-path="url(#p41bed6572c)" style="stroke: #000000"/>
    <path d="M 40.712858 114.159729 
C 40.84546 114.159729 40.972648 114.107046 41.066411 114.013282 
C 41.160175 113.919519 41.212858 113.792331 41.212858 113.659729 
C 41.212858 113.527128 41.160175 113.399939 41.066411 113.306176 
C 40.972648 113.212412 40.84546 113.159729 40.712858 113.159729 
C 40.580256 113.159729 40.453068 113.212412 40.359305 113.306176 
C 40.265541 113.399939 40.212858 113.527128 40.212858 113.659729 
C 40.212858 113.792331 40.265541 113.919519 40.359305 114.013282 
C 40.453068 114.107046 40.580256 114.159729 40.712858 114.159729 
z
" clip-path="url(#p41bed6572c)" style="stroke: #000000"/>
    <path d="M 41.407406 110.159779 
C 41.663902 110.159779 41.909927 110.057872 42.091297 109.876502 
C 42.272668 109.695132 42.374574 109.449107 42.374574 109.192611 
C 42.374574 108.936115 42.272668 108.69009 42.091297 108.50872 
C 41.909927 108.32735 41.663902 108.225443 41.407406 108.225443 
C 41.15091 108.225443 40.904885 108.32735 40.723515 108.50872 
C 40.542145 108.69009 40.440238 108.936115 40.440238 109.192611 
C 40.440238 109.449107 40.542145 109.695132 40.723515 109.876502 
C 40.904885 110.057872 41.15091 110.159779 41.407406 110.159779 
z
" clip-path="url(#p41bed6572c)" style="stroke: #000000"/>
    <path d="M 39.376413 102.978791 
C 39.56394 102.978791 39.743811 102.904286 39.876413 102.771684 
C 40.009014 102.639083 40.083519 102.459211 40.083519 102.271684 
C 40.083519 102.084157 40.009014 101.904286 39.876413 101.771684 
C 39.743811 101.639083 39.56394 101.564577 39.376413 101.564577 
C 39.188886 101.564577 39.009014 101.639083 38.876413 101.771684 
C 38.743811 101.904286 38.669306 102.084157 38.669306 102.271684 
C 38.669306 102.459211 38.743811 102.639083 38.876413 102.771684 
C 39.009014 102.904286 39.188886 102.978791 39.376413 102.978791 
z
" clip-path="url(#p41bed6572c)" style="stroke: #000000"/>
    <path d="M 35.072255 94.731732 
C 35.229946 94.731732 35.381199 94.669081 35.492704 94.557577 
C 35.604208 94.446073 35.666859 94.294819 35.666859 94.137129 
C 35.666859 93.979438 35.604208 93.828185 35.492704 93.716681 
C 35.381199 93.605176 35.229946 93.542525 35.072255 93.542525 
C 34.914565 93.542525 34.763311 93.605176 34.651807 93.716681 
C 34.540303 93.828185 34.477652 93.979438 34.477652 94.137129 
C 34.477652 94.294819 34.540303 94.446073 34.651807 94.557577 
C 34.763311 94.669081 34.914565 94.731732 35.072255 94.731732 
z
" clip-path="url(#p41bed6572c)" style="stroke: #000000"/>
    <path d="M 41.188072 134.810684 
C 41.320673 134.810684 41.447862 134.758001 41.541625 134.664237 
C 41.635389 134.570474 41.688072 134.443285 41.688072 134.310684 
C 41.688072 134.178082 41.635389 134.050894 41.541625 133.95713 
C 41.447862 133.863367 41.320673 133.810684 41.188072 133.810684 
C 41.05547 133.810684 40.928282 133.863367 40.834518 133.95713 
C 40.740755 134.050894 40.688072 134.178082 40.688072 134.310684 
C 40.688072 134.443285 40.740755 134.570474 40.834518 134.664237 
C 40.928282 134.758001 41.05547 134.810684 41.188072 134.810684 
z
" clip-path="url(#p41bed6572c)" style="stroke: #000000"/>
    <path d="M 35.306883 109.507184 
C 35.439485 109.507184 35.566673 109.454501 35.660436 109.360737 
C 35.7542 109.266974 35.806883 109.139785 35.806883 109.007184 
C 35.806883 108.874582 35.7542 108.747394 35.660436 108.653631 
C 35.566673 108.559867 35.439485 108.507184 35.306883 108.507184 
C 35.174281 108.507184 35.047093 108.559867 34.95333 108.653631 
C 34.859566 108.747394 34.806883 108.874582 34.806883 109.007184 
C 34.806883 109.139785 34.859566 109.266974 34.95333 109.360737 
C 35.047093 109.454501 35.174281 109.507184 35.306883 109.507184 
z
" clip-path="url(#p41bed6572c)" style="stroke: #000000"/>
    <path d="M 30.534581 116.831433 
C 30.667182 116.831433 30.79437 116.77875 30.888134 116.684986 
C 30.981897 116.591223 31.034581 116.464035 31.034581 116.331433 
C 31.034581 116.198831 30.981897 116.071643 30.888134 115.97788 
C 30.79437 115.884116 30.667182 115.831433 30.534581 115.831433 
C 30.401979 115.831433 30.274791 115.884116 30.181027 115.97788 
C 30.087264 116.071643 30.034581 116.198831 30.034581 116.331433 
C 30.034581 116.464035 30.087264 116.591223 30.181027 116.684986 
C 30.274791 116.77875 30.401979 116.831433 30.534581 116.831433 
z
" clip-path="url(#p41bed6572c)" style="stroke: #000000"/>
    <path d="M 41.505145 174.55269 
C 41.637746 174.55269 41.764935 174.500007 41.858698 174.406243 
C 41.952462 174.31248 42.005145 174.185292 42.005145 174.05269 
C 42.005145 173.920088 41.952462 173.7929 41.858698 173.699137 
C 41.764935 173.605373 41.637746 173.55269 41.505145 173.55269 
C 41.372543 173.55269 41.245355 173.605373 41.151591 173.699137 
C 41.057828 173.7929 41.005145 173.920088 41.005145 174.05269 
C 41.005145 174.185292 41.057828 174.31248 41.151591 174.406243 
C 41.245355 174.500007 41.372543 174.55269 41.505145 174.55269 
z
" clip-path="url(#p41bed6572c)" style="stroke: #000000"/>
   </g>
   <g id="matplotlib.axis_1">
    <g id="xtick_1">
     <g id="line2d_1">
      <defs>
       <path id="m2ce0815cd5" d="M 0 0 
L 0 3.5 
" style="stroke: #000000; stroke-width: 0.8"/>
      </defs>
      <g>
       <use xlink:href="#m2ce0815cd5" x="18" y="189" style="stroke: #000000; stroke-width: 0.8"/>
      </g>
     </g>
     <g id="text_1">
      <!-- 10 -->
      <g transform="translate(7.447656 203.598437)scale(0.1 -0.1)">
       <defs>
        <path id="DejaVuSans-2212" d="M 678 2272 
L 4684 2272 
L 4684 1741 
L 678 1741 
L 678 2272 
z
" transform="scale(0.015625)"/>
        <path id="DejaVuSans-31" d="M 794 531 
L 1825 531 
L 1825 4091 
L 703 3866 
L 703 4441 
L 1819 4666 
L 2450 4666 
L 2450 531 
L 3481 531 
L 3481 0 
L 794 0 
L 794 531 
z
" transform="scale(0.015625)"/>
        <path id="DejaVuSans-30" d="M 2034 4250 
Q 1547 4250 1301 3770 
Q 1056 3291 1056 2328 
Q 1056 1369 1301 889 
Q 1547 409 2034 409 
Q 2525 409 2770 889 
Q 3016 1369 3016 2328 
Q 3016 3291 2770 3770 
Q 2525 4250 2034 4250 
z
M 2034 4750 
Q 2819 4750 3233 4129 
Q 3647 3509 3647 2328 
Q 3647 1150 3233 529 
Q 2819 -91 2034 -91 
Q 1250 -91 836 529 
Q 422 1150 422 2328 
Q 422 3509 836 4129 
Q 1250 4750 2034 4750 
z
" transform="scale(0.015625)"/>
       </defs>
       <use xlink:href="#DejaVuSans-2212"/>
       <use xlink:href="#DejaVuSans-31" x="83.789062"/>
       <use xlink:href="#DejaVuSans-30" x="147.412109"/>
      </g>
     </g>
    </g>
    <g id="xtick_2">
     <g id="line2d_2">
      <g>
       <use xlink:href="#m2ce0815cd5" x="73.8" y="189" style="stroke: #000000; stroke-width: 0.8"/>
      </g>
     </g>
     <g id="text_2">
      <!-- 0 -->
      <g transform="translate(70.61875 203.598437)scale(0.1 -0.1)">
       <use xlink:href="#DejaVuSans-30"/>
      </g>
     </g>
    </g>
    <g id="xtick_3">
     <g id="line2d_3">
      <g>
       <use xlink:href="#m2ce0815cd5" x="129.6" y="189" style="stroke: #000000; stroke-width: 0.8"/>
      </g>
     </g>
     <g id="text_3">
      <!-- 10 -->
      <g transform="translate(123.2375 203.598437)scale(0.1 -0.1)">
       <use xlink:href="#DejaVuSans-31"/>
       <use xlink:href="#DejaVuSans-30" x="63.623047"/>
      </g>
     </g>
    </g>
   </g>
   <g id="matplotlib.axis_2">
    <g id="ytick_1">
     <g id="line2d_4">
      <defs>
       <path id="me5eb3d5819" d="M 0 0 
L -3.5 0 
" style="stroke: #000000; stroke-width: 0.8"/>
      </defs>
      <g>
       <use xlink:href="#me5eb3d5819" x="18" y="189" style="stroke: #000000; stroke-width: 0.8"/>
      </g>
     </g>
     <g id="text_4">
      <!-- 15 -->
      <g transform="translate(-10.104688 192.799219)scale(0.1 -0.1)">
       <defs>
        <path id="DejaVuSans-35" d="M 691 4666 
L 3169 4666 
L 3169 4134 
L 1269 4134 
L 1269 2991 
Q 1406 3038 1543 3061 
Q 1681 3084 1819 3084 
Q 2600 3084 3056 2656 
Q 3513 2228 3513 1497 
Q 3513 744 3044 326 
Q 2575 -91 1722 -91 
Q 1428 -91 1123 -41 
Q 819 9 494 109 
L 494 744 
Q 775 591 1075 516 
Q 1375 441 1709 441 
Q 2250 441 2565 725 
Q 2881 1009 2881 1497 
Q 2881 1984 2565 2268 
Q 2250 2553 1709 2553 
Q 1456 2553 1204 2497 
Q 953 2441 691 2322 
L 691 4666 
z
" transform="scale(0.015625)"/>
       </defs>
       <use xlink:href="#DejaVuSans-2212"/>
       <use xlink:href="#DejaVuSans-31" x="83.789062"/>
       <use xlink:href="#DejaVuSans-35" x="147.412109"/>
      </g>
     </g>
    </g>
    <g id="ytick_2">
     <g id="line2d_5">
      <g>
       <use xlink:href="#me5eb3d5819" x="18" y="161.82" style="stroke: #000000; stroke-width: 0.8"/>
      </g>
     </g>
     <g id="text_5">
      <!-- 10 -->
      <g transform="translate(-10.104688 165.619219)scale(0.1 -0.1)">
       <use xlink:href="#DejaVuSans-2212"/>
       <use xlink:href="#DejaVuSans-31" x="83.789062"/>
       <use xlink:href="#DejaVuSans-30" x="147.412109"/>
      </g>
     </g>
    </g>
    <g id="ytick_3">
     <g id="line2d_6">
      <g>
       <use xlink:href="#me5eb3d5819" x="18" y="134.64" style="stroke: #000000; stroke-width: 0.8"/>
      </g>
     </g>
     <g id="text_6">
      <!-- 5 -->
      <g transform="translate(-3.742188 138.439219)scale(0.1 -0.1)">
       <use xlink:href="#DejaVuSans-2212"/>
       <use xlink:href="#DejaVuSans-35" x="83.789062"/>
      </g>
     </g>
    </g>
    <g id="ytick_4">
     <g id="line2d_7">
      <g>
       <use xlink:href="#me5eb3d5819" x="18" y="107.46" style="stroke: #000000; stroke-width: 0.8"/>
      </g>
     </g>
     <g id="text_7">
      <!-- 0 -->
      <g transform="translate(4.6375 111.259219)scale(0.1 -0.1)">
       <use xlink:href="#DejaVuSans-30"/>
      </g>
     </g>
    </g>
    <g id="ytick_5">
     <g id="line2d_8">
      <g>
       <use xlink:href="#me5eb3d5819" x="18" y="80.28" style="stroke: #000000; stroke-width: 0.8"/>
      </g>
     </g>
     <g id="text_8">
      <!-- 5 -->
      <g transform="translate(4.6375 84.079219)scale(0.1 -0.1)">
       <use xlink:href="#DejaVuSans-35"/>
      </g>
     </g>
    </g>
    <g id="ytick_6">
     <g id="line2d_9">
      <g>
       <use xlink:href="#me5eb3d5819" x="18" y="53.1" style="stroke: #000000; stroke-width: 0.8"/>
      </g>
     </g>
     <g id="text_9">
      <!-- 10 -->
      <g transform="translate(-1.725 56.899219)scale(0.1 -0.1)">
       <use xlink:href="#DejaVuSans-31"/>
       <use xlink:href="#DejaVuSans-30" x="63.623047"/>
      </g>
     </g>
    </g>
    <g id="ytick_7">
     <g id="line2d_10">
      <g>
       <use xlink:href="#me5eb3d5819" x="18" y="25.92" style="stroke: #000000; stroke-width: 0.8"/>
      </g>
     </g>
     <g id="text_10">
      <!-- 15 -->
      <g transform="translate(-1.725 29.719219)scale(0.1 -0.1)">
       <use xlink:href="#DejaVuSans-31"/>
       <use xlink:href="#DejaVuSans-35" x="63.623047"/>
      </g>
     </g>
    </g>
   </g>
   <g id="patch_3">
    <path d="M 18 189 
L 18 25.92 
" style="fill: none; stroke: #000000; stroke-width: 0.8; stroke-linejoin: miter; stroke-linecap: square"/>
   </g>
   <g id="patch_4">
    <path d="M 129.6 189 
L 129.6 25.92 
" style="fill: none; stroke: #000000; stroke-width: 0.8; stroke-linejoin: miter; stroke-linecap: square"/>
   </g>
   <g id="patch_5">
    <path d="M 18 189 
L 129.6 189 
" style="fill: none; stroke: #000000; stroke-width: 0.8; stroke-linejoin: miter; stroke-linecap: square"/>
   </g>
   <g id="patch_6">
    <path d="M 18 25.92 
L 129.6 25.92 
" style="fill: none; stroke: #000000; stroke-width: 0.8; stroke-linejoin: miter; stroke-linecap: square"/>
   </g>
  </g>
 </g>
 <defs>
  <clipPath id="p41bed6572c">
   <rect x="18" y="25.92" width="111.6" height="163.08"/>
  </clipPath>
 </defs>
</svg>
