<?xml version="1.0" encoding="utf-8" standalone="no"?>
<!DOCTYPE svg PUBLIC "-//W3C//DTD SVG 1.1//EN"
  "http://www.w3.org/Graphics/SVG/1.1/DTD/svg11.dtd">
<svg xmlns:xlink="http://www.w3.org/1999/xlink" width="144pt" height="216pt" viewBox="0 0 144 216" xmlns="http://www.w3.org/2000/svg" version="1.1">
 <metadata>
  <rdf:RDF xmlns:dc="http://purl.org/dc/elements/1.1/" xmlns:cc="http://creativecommons.org/ns#" xmlns:rdf="http://www.w3.org/1999/02/22-rdf-syntax-ns#">
   <cc:Work>
    <dc:type rdf:resource="http://purl.org/dc/dcmitype/StillImage"/>
    <dc:date>2022-06-23T14:52:37.831741</dc:date>
    <dc:format>image/svg+xml</dc:format>
    <dc:creator>
     <cc:Agent>
      <dc:title>Matplotlib v3.5.1, https://matplotlib.org/</dc:title>
     </cc:Agent>
    </dc:creator>
   </cc:Work>
  </rdf:RDF>
 </metadata>
 <defs>
  <style type="text/css">*{stroke-linejoin: round; stroke-linecap: butt}</style>
 </defs>
 <g id="figure_1">
  <g id="patch_1">
   <path d="M 0 216 
L 144 216 
L 144 0 
L 0 0 
L 0 216 
z
" style="fill: none"/>
  </g>
  <g id="axes_1">
   <g id="patch_2">
    <path d="M 18 189 
L 129.6 189 
L 129.6 25.92 
L 18 25.92 
z
" style="fill: #ffffff"/>
   </g>
   <g id="PathCollection_1">
    <defs>
     <path id="m93ad5ed275" d="M 0 2.738613 
C 0.726289 2.738613 1.422928 2.450055 1.936492 1.936492 
C 2.450055 1.422928 2.738613 0.726289 2.738613 0 
C 2.738613 -0.726289 2.450055 -1.422928 1.936492 -1.936492 
C 1.422928 -2.450055 0.726289 -2.738613 0 -2.738613 
C -0.726289 -2.738613 -1.422928 -2.450055 -1.936492 -1.936492 
C -2.450055 -1.422928 -2.738613 -0.726289 -2.738613 0 
C -2.738613 0.726289 -2.450055 1.422928 -1.936492 1.936492 
C -1.422928 2.450055 -0.726289 2.738613 0 2.738613 
z
" style="stroke: #ff0000; stroke-width: 1.75"/>
    </defs>
    <g clip-path="url(#p1963e121e1)">
     <use xlink:href="#m93ad5ed275" x="66.825" y="83.92143" style="fill: #ff0000; stroke: #ff0000; stroke-width: 1.75"/>
     <use xlink:href="#m93ad5ed275" x="87.75" y="95.690715" style="fill: #ff0000; stroke: #ff0000; stroke-width: 1.75"/>
     <use xlink:href="#m93ad5ed275" x="66.825" y="107.46" style="fill: #ff0000; stroke: #ff0000; stroke-width: 1.75"/>
     <use xlink:href="#m93ad5ed275" x="73.8" y="119.229285" style="fill: #ff0000; stroke: #ff0000; stroke-width: 1.75"/>
     <use xlink:href="#m93ad5ed275" x="87.75" y="119.229285" style="fill: #ff0000; stroke: #ff0000; stroke-width: 1.75"/>
     <use xlink:href="#m93ad5ed275" x="66.825" y="130.99857" style="fill: #ff0000; stroke: #ff0000; stroke-width: 1.75"/>
     <use xlink:href="#m93ad5ed275" x="80.775" y="130.99857" style="fill: #ff0000; stroke: #ff0000; stroke-width: 1.75"/>
    </g>
   </g>
   <g id="PathCollection_2">
    <defs>
     <path id="C0_0_1ca811caeb" d="M 0 2.738613 
C 0.726289 2.738613 1.422928 2.450055 1.936492 1.936492 
C 2.450055 1.422928 2.738613 0.726289 2.738613 -0 
C 2.738613 -0.726289 2.450055 -1.422928 1.936492 -1.936492 
C 1.422928 -2.450055 0.726289 -2.738613 0 -2.738613 
C -0.726289 -2.738613 -1.422928 -2.450055 -1.936492 -1.936492 
C -2.450055 -1.422928 -2.738613 -0.726289 -2.738613 0 
C -2.738613 0.726289 -2.450055 1.422928 -1.936492 1.936492 
C -1.422928 2.450055 -0.726289 2.738613 0 2.738613 
z
"/>
    </defs>
    <g clip-path="url(#p1963e121e1)">
     <use xlink:href="#C0_0_1ca811caeb" x="80.775" y="83.92143" style="fill: none; stroke: #ff0000; stroke-width: 1.75"/>
    </g>
    <g clip-path="url(#p1963e121e1)">
     <use xlink:href="#C0_0_1ca811caeb" x="59.85" y="95.690715" style="fill: none; stroke: #ff0000; stroke-width: 1.75"/>
    </g>
    <g clip-path="url(#p1963e121e1)">
     <use xlink:href="#C0_0_1ca811caeb" x="73.8" y="95.690715" style="fill: none; stroke: #ff0000; stroke-width: 1.75"/>
    </g>
    <g clip-path="url(#p1963e121e1)">
     <use xlink:href="#C0_0_1ca811caeb" x="52.875" y="107.46" style="fill: none; stroke: #ff0000; stroke-width: 1.75"/>
    </g>
    <g clip-path="url(#p1963e121e1)">
     <use xlink:href="#C0_0_1ca811caeb" x="80.775" y="107.46" style="fill: none; stroke: #ff0000; stroke-width: 1.75"/>
    </g>
    <g clip-path="url(#p1963e121e1)">
     <use xlink:href="#C0_0_1ca811caeb" x="94.725" y="107.46" style="fill: none; stroke: #ff0000; stroke-width: 1.75"/>
    </g>
    <g clip-path="url(#p1963e121e1)">
     <use xlink:href="#C0_0_1ca811caeb" x="59.85" y="119.229285" style="fill: none; stroke: #ff0000; stroke-width: 1.75"/>
    </g>
   </g>
   <g id="PathCollection_3">
    <path d="M 114.616673 102.372688 
C 114.791187 102.372688 114.958576 102.303353 115.081976 102.179953 
C 115.205375 102.056554 115.27471 101.889164 115.27471 101.714651 
C 115.27471 101.540137 115.205375 101.372748 115.081976 101.249348 
C 114.958576 101.125949 114.791187 101.056614 114.616673 101.056614 
C 114.44216 101.056614 114.27477 101.125949 114.151371 101.249348 
C 114.027971 101.372748 113.958636 101.540137 113.958636 101.714651 
C 113.958636 101.889164 114.027971 102.056554 114.151371 102.179953 
C 114.27477 102.303353 114.44216 102.372688 114.616673 102.372688 
z
" clip-path="url(#p1963e121e1)" style="stroke: #000000"/>
    <path d="M 111.685126 110.423524 
C 111.817727 110.423524 111.944916 110.370841 112.038679 110.277077 
C 112.132443 110.183314 112.185126 110.056126 112.185126 109.923524 
C 112.185126 109.790922 112.132443 109.663734 112.038679 109.569971 
C 111.944916 109.476207 111.817727 109.423524 111.685126 109.423524 
C 111.552524 109.423524 111.425336 109.476207 111.331572 109.569971 
C 111.237809 109.663734 111.185126 109.790922 111.185126 109.923524 
C 111.185126 110.056126 111.237809 110.183314 111.331572 110.277077 
C 111.425336 110.370841 111.552524 110.423524 111.685126 110.423524 
z
" clip-path="url(#p1963e121e1)" style="stroke: #000000"/>
    <path d="M 109.453868 103.198579 
C 109.628382 103.198579 109.795771 103.129244 109.919171 103.005844 
C 110.042571 102.882445 110.111906 102.715055 110.111906 102.540542 
C 110.111906 102.366028 110.042571 102.198639 109.919171 102.075239 
C 109.795771 101.95184 109.628382 101.882505 109.453868 101.882505 
C 109.279355 101.882505 109.111966 101.95184 108.988566 102.075239 
C 108.865166 102.198639 108.795831 102.366028 108.795831 102.540542 
C 108.795831 102.715055 108.865166 102.882445 108.988566 103.005844 
C 109.111966 103.129244 109.279355 103.198579 109.453868 103.198579 
z
" clip-path="url(#p1963e121e1)" style="stroke: #000000"/>
    <path d="M 107.177373 101.611783 
C 107.309974 101.611783 107.437163 101.5591 107.530926 101.465336 
C 107.62469 101.371573 107.677373 101.244384 107.677373 101.111783 
C 107.677373 100.979181 107.62469 100.851993 107.530926 100.758229 
C 107.437163 100.664466 107.309974 100.611783 107.177373 100.611783 
C 107.044771 100.611783 106.917583 100.664466 106.823819 100.758229 
C 106.730056 100.851993 106.677373 100.979181 106.677373 101.111783 
C 106.677373 101.244384 106.730056 101.371573 106.823819 101.465336 
C 106.917583 101.5591 107.044771 101.611783 107.177373 101.611783 
z
" clip-path="url(#p1963e121e1)" style="stroke: #000000"/>
    <path d="M 105.805221 93.070404 
C 105.937822 93.070404 106.065011 93.01772 106.158774 92.923957 
C 106.252537 92.830194 106.305221 92.703005 106.305221 92.570404 
C 106.305221 92.437802 106.252537 92.310614 106.158774 92.21685 
C 106.065011 92.123087 105.937822 92.070404 105.805221 92.070404 
C 105.672619 92.070404 105.545431 92.123087 105.451667 92.21685 
C 105.357904 92.310614 105.305221 92.437802 105.305221 92.570404 
C 105.305221 92.703005 105.357904 92.830194 105.451667 92.923957 
C 105.545431 93.01772 105.672619 93.070404 105.805221 93.070404 
z
" clip-path="url(#p1963e121e1)" style="stroke: #000000"/>
    <path d="M 106.07917 112.312527 
C 106.378598 112.312527 106.665802 112.193564 106.877529 111.981836 
C 107.089256 111.770109 107.20822 111.482905 107.20822 111.183477 
C 107.20822 110.884049 107.089256 110.596845 106.877529 110.385118 
C 106.665802 110.17339 106.378598 110.054427 106.07917 110.054427 
C 105.779742 110.054427 105.492538 110.17339 105.280811 110.385118 
C 105.069083 110.596845 104.950119 110.884049 104.950119 111.183477 
C 104.950119 111.482905 105.069083 111.770109 105.280811 111.981836 
C 105.492538 112.193564 105.779742 112.312527 106.07917 112.312527 
z
" clip-path="url(#p1963e121e1)" style="stroke: #000000"/>
    <path d="M 102.062037 107.852833 
C 102.418118 107.852833 102.759664 107.71136 103.011451 107.459573 
C 103.263239 107.207785 103.404712 106.86624 103.404712 106.510158 
C 103.404712 106.154077 103.263239 105.812531 103.011451 105.560744 
C 102.759664 105.308956 102.418118 105.167483 102.062037 105.167483 
C 101.705955 105.167483 101.36441 105.308956 101.112623 105.560744 
C 100.860835 105.812531 100.719362 106.154077 100.719362 106.510158 
C 100.719362 106.86624 100.860835 107.207785 101.112623 107.459573 
C 101.36441 107.71136 101.705955 107.852833 102.062037 107.852833 
z
" clip-path="url(#p1963e121e1)" style="stroke: #000000"/>
    <path d="M 100.334264 101.347725 
C 100.491955 101.347725 100.643208 101.285074 100.754712 101.173569 
C 100.866217 101.062065 100.928868 100.910812 100.928868 100.753121 
C 100.928868 100.59543 100.866217 100.444177 100.754712 100.332673 
C 100.643208 100.221169 100.491955 100.158518 100.334264 100.158518 
C 100.176574 100.158518 100.02532 100.221169 99.913816 100.332673 
C 99.802312 100.444177 99.739661 100.59543 99.739661 100.753121 
C 99.739661 100.910812 99.802312 101.062065 99.913816 101.173569 
C 100.02532 101.285074 100.176574 101.347725 100.334264 101.347725 
z
" clip-path="url(#p1963e121e1)" style="stroke: #000000"/>
    <path d="M 97.475411 96.294867 
C 97.72221 96.294867 97.958934 96.196812 98.133448 96.022299 
C 98.307961 95.847785 98.406016 95.611061 98.406016 95.364262 
C 98.406016 95.117462 98.307961 94.880738 98.133448 94.706225 
C 97.958934 94.531711 97.72221 94.433657 97.475411 94.433657 
C 97.228611 94.433657 96.991887 94.531711 96.817374 94.706225 
C 96.64286 94.880738 96.544806 95.117462 96.544806 95.364262 
C 96.544806 95.611061 96.64286 95.847785 96.817374 96.022299 
C 96.991887 96.196812 97.228611 96.294867 97.475411 96.294867 
z
" clip-path="url(#p1963e121e1)" style="stroke: #000000"/>
    <path d="M 97.335819 88.600888 
C 97.565492 88.600888 97.785789 88.509638 97.948192 88.347235 
C 98.110595 88.184832 98.201845 87.964535 98.201845 87.734862 
C 98.201845 87.50519 98.110595 87.284893 97.948192 87.12249 
C 97.785789 86.960087 97.565492 86.868837 97.335819 86.868837 
C 97.106147 86.868837 96.88585 86.960087 96.723447 87.12249 
C 96.561044 87.284893 96.469794 87.50519 96.469794 87.734862 
C 96.469794 87.964535 96.561044 88.184832 96.723447 88.347235 
C 96.88585 88.509638 97.106147 88.600888 97.335819 88.600888 
z
" clip-path="url(#p1963e121e1)" style="stroke: #000000"/>
    <path d="M 109.951955 148.907349 
C 110.084556 148.907349 110.211745 148.854666 110.305508 148.760902 
C 110.399272 148.667139 110.451955 148.539951 110.451955 148.407349 
C 110.451955 148.274748 110.399272 148.147559 110.305508 148.053796 
C 110.211745 147.960032 110.084556 147.907349 109.951955 147.907349 
C 109.819353 147.907349 109.692165 147.960032 109.598401 148.053796 
C 109.504638 148.147559 109.451955 148.274748 109.451955 148.407349 
C 109.451955 148.539951 109.504638 148.667139 109.598401 148.760902 
C 109.692165 148.854666 109.819353 148.907349 109.951955 148.907349 
z
" clip-path="url(#p1963e121e1)" style="stroke: #000000"/>
    <path d="M 102.659629 123.430136 
C 102.792231 123.430136 102.919419 123.377453 103.013183 123.28369 
C 103.106946 123.189926 103.159629 123.062738 103.159629 122.930136 
C 103.159629 122.797535 103.106946 122.670347 103.013183 122.576583 
C 102.919419 122.48282 102.792231 122.430136 102.659629 122.430136 
C 102.527028 122.430136 102.399839 122.48282 102.306076 122.576583 
C 102.212312 122.670347 102.159629 122.797535 102.159629 122.930136 
C 102.159629 123.062738 102.212312 123.189926 102.306076 123.28369 
C 102.399839 123.377453 102.527028 123.430136 102.659629 123.430136 
z
" clip-path="url(#p1963e121e1)" style="stroke: #000000"/>
    <path d="M 98.789024 114.19881 
C 99.183093 114.19881 99.561075 114.042245 99.839724 113.763596 
C 100.118373 113.484947 100.274938 113.106965 100.274938 112.712896 
C 100.274938 112.318827 100.118373 111.940845 99.839724 111.662196 
C 99.561075 111.383547 99.183093 111.226982 98.789024 111.226982 
C 98.394956 111.226982 98.016974 111.383547 97.738325 111.662196 
C 97.459676 111.940845 97.303111 112.318827 97.303111 112.712896 
C 97.303111 113.106965 97.459676 113.484947 97.738325 113.763596 
C 98.016974 114.042245 98.394956 114.19881 98.789024 114.19881 
z
" clip-path="url(#p1963e121e1)" style="stroke: #000000"/>
    <path d="M 94.502199 110.19211 
C 95.163877 110.19211 95.798543 109.929223 96.26642 109.461346 
C 96.734297 108.99347 96.997184 108.358803 96.997184 107.697126 
C 96.997184 107.035448 96.734297 106.400782 96.26642 105.932905 
C 95.798543 105.465028 95.163877 105.202141 94.502199 105.202141 
C 93.840522 105.202141 93.205855 105.465028 92.737979 105.932905 
C 92.270102 106.400782 92.007214 107.035448 92.007214 107.697126 
C 92.007214 108.358803 92.270102 108.99347 92.737979 109.461346 
C 93.205855 109.929223 93.840522 110.19211 94.502199 110.19211 
z
" clip-path="url(#p1963e121e1)" style="stroke: #000000"/>
    <path d="M 92.916212 106.340556 
C 93.443482 106.340556 93.949228 106.131069 94.322065 105.758232 
C 94.694902 105.385395 94.904388 104.879649 94.904388 104.352379 
C 94.904388 103.825108 94.694902 103.319362 94.322065 102.946525 
C 93.949228 102.573689 93.443482 102.364202 92.916212 102.364202 
C 92.388941 102.364202 91.883195 102.573689 91.510358 102.946525 
C 91.137522 103.319362 90.928035 103.825108 90.928035 104.352379 
C 90.928035 104.879649 91.137522 105.385395 91.510358 105.758232 
C 91.883195 106.131069 92.388941 106.340556 92.916212 106.340556 
z
" clip-path="url(#p1963e121e1)" style="stroke: #000000"/>
    <path d="M 96.551204 95.957114 
C 96.812162 95.957114 97.062468 95.853434 97.246993 95.668909 
C 97.431519 95.484383 97.535198 95.234078 97.535198 94.973119 
C 97.535198 94.712161 97.431519 94.461855 97.246993 94.27733 
C 97.062468 94.092804 96.812162 93.989124 96.551204 93.989124 
C 96.290245 93.989124 96.03994 94.092804 95.855414 94.27733 
C 95.670889 94.461855 95.567209 94.712161 95.567209 94.973119 
C 95.567209 95.234078 95.670889 95.484383 95.855414 95.668909 
C 96.03994 95.853434 96.290245 95.957114 96.551204 95.957114 
z
" clip-path="url(#p1963e121e1)" style="stroke: #000000"/>
    <path d="M 88.19712 84.561166 
C 88.583382 84.561166 88.953875 84.407702 89.227003 84.134574 
C 89.500132 83.861446 89.653595 83.490952 89.653595 83.10469 
C 89.653595 82.718429 89.500132 82.347935 89.227003 82.074807 
C 88.953875 81.801679 88.583382 81.648215 88.19712 81.648215 
C 87.810858 81.648215 87.440365 81.801679 87.167236 82.074807 
C 86.894108 82.347935 86.740644 82.718429 86.740644 83.10469 
C 86.740644 83.490952 86.894108 83.861446 87.167236 84.134574 
C 87.440365 84.407702 87.810858 84.561166 88.19712 84.561166 
z
" clip-path="url(#p1963e121e1)" style="stroke: #000000"/>
    <path d="M 84.167287 80.214052 
C 84.51262 80.214052 84.843856 80.07685 85.088043 79.832662 
C 85.33223 79.588475 85.469433 79.25724 85.469433 78.911907 
C 85.469433 78.566574 85.33223 78.235338 85.088043 77.991151 
C 84.843856 77.746964 84.51262 77.609761 84.167287 77.609761 
C 83.821954 77.609761 83.490719 77.746964 83.246532 77.991151 
C 83.002344 78.235338 82.865142 78.566574 82.865142 78.911907 
C 82.865142 79.25724 83.002344 79.588475 83.246532 79.832662 
C 83.490719 80.07685 83.821954 80.214052 84.167287 80.214052 
z
" clip-path="url(#p1963e121e1)" style="stroke: #000000"/>
    <path d="M 91.579617 119.550635 
C 92.049741 119.550635 92.500674 119.363853 92.833102 119.031425 
C 93.16553 118.698996 93.352313 118.248064 93.352313 117.777939 
C 93.352313 117.307815 93.16553 116.856882 92.833102 116.524454 
C 92.500674 116.192026 92.049741 116.005243 91.579617 116.005243 
C 91.109492 116.005243 90.658559 116.192026 90.326131 116.524454 
C 89.993703 116.856882 89.806921 117.307815 89.806921 117.777939 
C 89.806921 118.248064 89.993703 118.698996 90.326131 119.031425 
C 90.658559 119.363853 91.109492 119.550635 91.579617 119.550635 
z
" clip-path="url(#p1963e121e1)" style="stroke: #000000"/>
    <path d="M 90.651267 111.040401 
C 90.958982 111.040401 91.254134 110.918145 91.471722 110.700558 
C 91.689309 110.482971 91.811565 110.187818 91.811565 109.880103 
C 91.811565 109.572389 91.689309 109.277236 91.471722 109.059649 
C 91.254134 108.842062 90.958982 108.719805 90.651267 108.719805 
C 90.343552 108.719805 90.0484 108.842062 89.830812 109.059649 
C 89.613225 109.277236 89.490969 109.572389 89.490969 109.880103 
C 89.490969 110.187818 89.613225 110.482971 89.830812 110.700558 
C 90.0484 110.918145 90.343552 111.040401 90.651267 111.040401 
z
" clip-path="url(#p1963e121e1)" style="stroke: #000000"/>
    <path d="M 83.224922 97.08549 
C 83.515311 97.08549 83.793846 96.970117 83.999182 96.764781 
C 84.204518 96.559445 84.319891 96.28091 84.319891 95.990521 
C 84.319891 95.700132 84.204518 95.421597 83.999182 95.216261 
C 83.793846 95.010924 83.515311 94.895551 83.224922 94.895551 
C 82.934532 94.895551 82.655997 95.010924 82.450661 95.216261 
C 82.245325 95.421597 82.129952 95.700132 82.129952 95.990521 
C 82.129952 96.28091 82.245325 96.559445 82.450661 96.764781 
C 82.655997 96.970117 82.934532 97.08549 83.224922 97.08549 
z
" clip-path="url(#p1963e121e1)" style="stroke: #000000"/>
    <path d="M 85.127702 95.92255 
C 85.686335 95.92255 86.222162 95.700603 86.617175 95.30559 
C 87.012188 94.910577 87.234135 94.37475 87.234135 93.816117 
C 87.234135 93.257484 87.012188 92.721657 86.617175 92.326644 
C 86.222162 91.931631 85.686335 91.709684 85.127702 91.709684 
C 84.569069 91.709684 84.033242 91.931631 83.638229 92.326644 
C 83.243216 92.721657 83.021269 93.257484 83.021269 93.816117 
C 83.021269 94.37475 83.243216 94.910577 83.638229 95.30559 
C 84.033242 95.700603 84.569069 95.92255 85.127702 95.92255 
z
" clip-path="url(#p1963e121e1)" style="stroke: #000000"/>
    <path d="M 79.734091 88.706493 
C 80.356368 88.706493 80.953243 88.45926 81.393259 88.019243 
C 81.833276 87.579227 82.080509 86.982352 82.080509 86.360075 
C 82.080509 85.737798 81.833276 85.140923 81.393259 84.700907 
C 80.953243 84.26089 80.356368 84.013657 79.734091 84.013657 
C 79.111813 84.013657 78.514939 84.26089 78.074923 84.700907 
C 77.634906 85.140923 77.387673 85.737798 77.387673 86.360075 
C 77.387673 86.982352 77.634906 87.579227 78.074923 88.019243 
C 78.514939 88.45926 79.111813 88.706493 79.734091 88.706493 
z
" clip-path="url(#p1963e121e1)" style="stroke: #000000"/>
    <path d="M 78.805993 79.043044 
C 79.013526 79.043044 79.212586 78.960591 79.359334 78.813843 
C 79.506082 78.667095 79.588536 78.468035 79.588536 78.260502 
C 79.588536 78.052969 79.506082 77.853909 79.359334 77.707161 
C 79.212586 77.560413 79.013526 77.47796 78.805993 77.47796 
C 78.598461 77.47796 78.3994 77.560413 78.252652 77.707161 
C 78.105905 77.853909 78.023451 78.052969 78.023451 78.260502 
C 78.023451 78.468035 78.105905 78.667095 78.252652 78.813843 
C 78.3994 78.960591 78.598461 79.043044 78.805993 79.043044 
z
" clip-path="url(#p1963e121e1)" style="stroke: #000000"/>
    <path d="M 75.902377 74.377109 
C 76.143866 74.377109 76.375496 74.281165 76.546255 74.110406 
C 76.717013 73.939648 76.812957 73.708018 76.812957 73.466529 
C 76.812957 73.22504 76.717013 72.99341 76.546255 72.822652 
C 76.375496 72.651893 76.143866 72.555949 75.902377 72.555949 
C 75.660889 72.555949 75.429258 72.651893 75.2585 72.822652 
C 75.087742 72.99341 74.991797 73.22504 74.991797 73.466529 
C 74.991797 73.708018 75.087742 73.939648 75.2585 74.110406 
C 75.429258 74.281165 75.660889 74.377109 75.902377 74.377109 
z
" clip-path="url(#p1963e121e1)" style="stroke: #000000"/>
    <path d="M 101.138151 157.231721 
C 101.270753 157.231721 101.397941 157.179038 101.491705 157.085275 
C 101.585468 156.991511 101.638151 156.864323 101.638151 156.731721 
C 101.638151 156.59912 101.585468 156.471931 101.491705 156.378168 
C 101.397941 156.284405 101.270753 156.231721 101.138151 156.231721 
C 101.00555 156.231721 100.878361 156.284405 100.784598 156.378168 
C 100.690834 156.471931 100.638151 156.59912 100.638151 156.731721 
C 100.638151 156.864323 100.690834 156.991511 100.784598 157.085275 
C 100.878361 157.179038 101.00555 157.231721 101.138151 157.231721 
z
" clip-path="url(#p1963e121e1)" style="stroke: #000000"/>
    <path d="M 91.08786 124.431584 
C 91.52582 124.431584 91.945903 124.257581 92.255588 123.947896 
C 92.565273 123.63821 92.739277 123.218128 92.739277 122.780167 
C 92.739277 122.342207 92.565273 121.922124 92.255588 121.612439 
C 91.945903 121.302754 91.52582 121.12875 91.08786 121.12875 
C 90.649899 121.12875 90.229817 121.302754 89.920131 121.612439 
C 89.610446 121.922124 89.436443 122.342207 89.436443 122.780167 
C 89.436443 123.218128 89.610446 123.63821 89.920131 123.947896 
C 90.229817 124.257581 90.649899 124.431584 91.08786 124.431584 
z
" clip-path="url(#p1963e121e1)" style="stroke: #000000"/>
    <path d="M 85.532232 119.242881 
C 86.062638 119.242881 86.571391 119.032148 86.946445 118.657095 
C 87.321499 118.282041 87.532232 117.773287 87.532232 117.242881 
C 87.532232 116.712475 87.321499 116.203721 86.946445 115.828667 
C 86.571391 115.453614 86.062638 115.242881 85.532232 115.242881 
C 85.001825 115.242881 84.493072 115.453614 84.118018 115.828667 
C 83.742964 116.203721 83.532232 116.712475 83.532232 117.242881 
C 83.532232 117.773287 83.742964 118.282041 84.118018 118.657095 
C 84.493072 119.032148 85.001825 119.242881 85.532232 119.242881 
z
" clip-path="url(#p1963e121e1)" style="stroke: #000000"/>
    <path d="M 84.588058 113.556099 
C 84.964568 113.556099 85.325708 113.40651 85.591941 113.140277 
C 85.858174 112.874044 86.007763 112.512904 86.007763 112.136393 
C 86.007763 111.759883 85.858174 111.398743 85.591941 111.13251 
C 85.325708 110.866277 84.964568 110.716688 84.588058 110.716688 
C 84.211547 110.716688 83.850407 110.866277 83.584174 111.13251 
C 83.317941 111.398743 83.168352 111.759883 83.168352 112.136393 
C 83.168352 112.512904 83.317941 112.874044 83.584174 113.140277 
C 83.850407 113.40651 84.211547 113.556099 84.588058 113.556099 
z
" clip-path="url(#p1963e121e1)" style="stroke: #000000"/>
    <path d="M 82.682966 108.992906 
C 83.253619 108.992906 83.800976 108.766183 84.204489 108.362671 
C 84.608001 107.959158 84.834724 107.411801 84.834724 106.841148 
C 84.834724 106.270495 84.608001 105.723137 84.204489 105.319625 
C 83.800976 104.916112 83.253619 104.689389 82.682966 104.689389 
C 82.112313 104.689389 81.564955 104.916112 81.161443 105.319625 
C 80.75793 105.723137 80.531207 106.270495 80.531207 106.841148 
C 80.531207 107.411801 80.75793 107.959158 81.161443 108.362671 
C 81.564955 108.766183 82.112313 108.992906 82.682966 108.992906 
z
" clip-path="url(#p1963e121e1)" style="stroke: #000000"/>
    <path d="M 82.354228 100.61572 
C 82.48683 100.61572 82.614018 100.563037 82.707781 100.469274 
C 82.801545 100.37551 82.854228 100.248322 82.854228 100.11572 
C 82.854228 99.983119 82.801545 99.85593 82.707781 99.762167 
C 82.614018 99.668403 82.48683 99.61572 82.354228 99.61572 
C 82.221627 99.61572 82.094438 99.668403 82.000675 99.762167 
C 81.906911 99.85593 81.854228 99.983119 81.854228 100.11572 
C 81.854228 100.248322 81.906911 100.37551 82.000675 100.469274 
C 82.094438 100.563037 82.221627 100.61572 82.354228 100.61572 
z
" clip-path="url(#p1963e121e1)" style="stroke: #000000"/>
    <path d="M 78.399909 95.041866 
C 78.812796 95.041866 79.208827 94.877825 79.500782 94.58587 
C 79.792736 94.293915 79.956778 93.897884 79.956778 93.484997 
C 79.956778 93.072111 79.792736 92.67608 79.500782 92.384125 
C 79.208827 92.09217 78.812796 91.928129 78.399909 91.928129 
C 77.987023 91.928129 77.590992 92.09217 77.299037 92.384125 
C 77.007082 92.67608 76.843041 93.072111 76.843041 93.484997 
C 76.843041 93.897884 77.007082 94.293915 77.299037 94.58587 
C 77.590992 94.877825 77.987023 95.041866 78.399909 95.041866 
z
" clip-path="url(#p1963e121e1)" style="stroke: #000000"/>
    <path d="M 78.671917 89.403916 
C 79.11706 89.403916 79.544031 89.227058 79.858794 88.912295 
C 80.173558 88.597531 80.350415 88.17056 80.350415 87.725417 
C 80.350415 87.280274 80.173558 86.853303 79.858794 86.53854 
C 79.544031 86.223776 79.11706 86.046919 78.671917 86.046919 
C 78.226774 86.046919 77.799803 86.223776 77.485039 86.53854 
C 77.170276 86.853303 76.993418 87.280274 76.993418 87.725417 
C 76.993418 88.17056 77.170276 88.597531 77.485039 88.912295 
C 77.799803 89.227058 78.226774 89.403916 78.671917 89.403916 
z
" clip-path="url(#p1963e121e1)" style="stroke: #000000"/>
    <path d="M 72.310239 83.08145 
C 72.442841 83.08145 72.570029 83.028767 72.663793 82.935004 
C 72.757556 82.84124 72.810239 82.714052 72.810239 82.58145 
C 72.810239 82.448849 72.757556 82.32166 72.663793 82.227897 
C 72.570029 82.134133 72.442841 82.08145 72.310239 82.08145 
C 72.177638 82.08145 72.050449 82.134133 71.956686 82.227897 
C 71.862922 82.32166 71.810239 82.448849 71.810239 82.58145 
C 71.810239 82.714052 71.862922 82.84124 71.956686 82.935004 
C 72.050449 83.028767 72.177638 83.08145 72.310239 83.08145 
z
" clip-path="url(#p1963e121e1)" style="stroke: #000000"/>
    <path d="M 75.366756 78.878178 
C 75.715783 78.878178 76.050562 78.739508 76.297361 78.492708 
C 76.544161 78.245909 76.68283 77.91113 76.68283 77.562104 
C 76.68283 77.213077 76.544161 76.878298 76.297361 76.631499 
C 76.050562 76.384699 75.715783 76.24603 75.366756 76.24603 
C 75.01773 76.24603 74.682951 76.384699 74.436152 76.631499 
C 74.189352 76.878298 74.050682 77.213077 74.050682 77.562104 
C 74.050682 77.91113 74.189352 78.245909 74.436152 78.492708 
C 74.682951 78.739508 75.01773 78.878178 75.366756 78.878178 
z
" clip-path="url(#p1963e121e1)" style="stroke: #000000"/>
    <path d="M 68.771838 70.256574 
C 68.987525 70.256574 69.194406 70.170881 69.34692 70.018367 
C 69.499433 69.865854 69.585127 69.658972 69.585127 69.443286 
C 69.585127 69.227599 69.499433 69.020718 69.34692 68.868204 
C 69.194406 68.715691 68.987525 68.629998 68.771838 68.629998 
C 68.556152 68.629998 68.34927 68.715691 68.196757 68.868204 
C 68.044243 69.020718 67.95855 69.227599 67.95855 69.443286 
C 67.95855 69.658972 68.044243 69.865854 68.196757 70.018367 
C 68.34927 70.170881 68.556152 70.256574 68.771838 70.256574 
z
" clip-path="url(#p1963e121e1)" style="stroke: #000000"/>
    <path d="M 65.668061 57.401628 
C 65.800662 57.401628 65.927851 57.348945 66.021614 57.255182 
C 66.115377 57.161418 66.168061 57.03423 66.168061 56.901628 
C 66.168061 56.769027 66.115377 56.641838 66.021614 56.548075 
C 65.927851 56.454311 65.800662 56.401628 65.668061 56.401628 
C 65.535459 56.401628 65.408271 56.454311 65.314507 56.548075 
C 65.220744 56.641838 65.168061 56.769027 65.168061 56.901628 
C 65.168061 57.03423 65.220744 57.161418 65.314507 57.255182 
C 65.408271 57.348945 65.535459 57.401628 65.668061 57.401628 
z
" clip-path="url(#p1963e121e1)" style="stroke: #000000"/>
    <path d="M 94.592675 166.662882 
C 94.725277 166.662882 94.852465 166.610199 94.946229 166.516436 
C 95.039992 166.422672 95.092675 166.295484 95.092675 166.162882 
C 95.092675 166.030281 95.039992 165.903093 94.946229 165.809329 
C 94.852465 165.715566 94.725277 165.662882 94.592675 165.662882 
C 94.460074 165.662882 94.332885 165.715566 94.239122 165.809329 
C 94.145359 165.903093 94.092675 166.030281 94.092675 166.162882 
C 94.092675 166.295484 94.145359 166.422672 94.239122 166.516436 
C 94.332885 166.610199 94.460074 166.662882 94.592675 166.662882 
z
" clip-path="url(#p1963e121e1)" style="stroke: #000000"/>
    <path d="M 84.734694 139.45978 
C 84.867296 139.45978 84.994484 139.407097 85.088248 139.313333 
C 85.182011 139.21957 85.234694 139.092381 85.234694 138.95978 
C 85.234694 138.827178 85.182011 138.69999 85.088248 138.606226 
C 84.994484 138.512463 84.867296 138.45978 84.734694 138.45978 
C 84.602093 138.45978 84.474904 138.512463 84.381141 138.606226 
C 84.287377 138.69999 84.234694 138.827178 84.234694 138.95978 
C 84.234694 139.092381 84.287377 139.21957 84.381141 139.313333 
C 84.474904 139.407097 84.602093 139.45978 84.734694 139.45978 
z
" clip-path="url(#p1963e121e1)" style="stroke: #000000"/>
    <path d="M 83.263385 134.863081 
C 83.820235 134.863081 84.354354 134.641842 84.748107 134.248089 
C 85.141859 133.854337 85.363098 133.320218 85.363098 132.763368 
C 85.363098 132.206517 85.141859 131.672399 84.748107 131.278646 
C 84.354354 130.884893 83.820235 130.663654 83.263385 130.663654 
C 82.706534 130.663654 82.172416 130.884893 81.778663 131.278646 
C 81.38491 131.672399 81.163671 132.206517 81.163671 132.763368 
C 81.163671 133.320218 81.38491 133.854337 81.778663 134.248089 
C 82.172416 134.641842 82.706534 134.863081 83.263385 134.863081 
z
" clip-path="url(#p1963e121e1)" style="stroke: #000000"/>
    <path d="M 81.000921 126.11881 
C 81.342438 126.11881 81.670013 125.983124 81.911502 125.741635 
C 82.15299 125.500147 82.288676 125.172572 82.288676 124.831055 
C 82.288676 124.489539 82.15299 124.161964 81.911502 123.920475 
C 81.670013 123.678986 81.342438 123.5433 81.000921 123.5433 
C 80.659405 123.5433 80.33183 123.678986 80.090341 123.920475 
C 79.848853 124.161964 79.713167 124.489539 79.713167 124.831055 
C 79.713167 125.172572 79.848853 125.500147 80.090341 125.741635 
C 80.33183 125.983124 80.659405 126.11881 81.000921 126.11881 
z
" clip-path="url(#p1963e121e1)" style="stroke: #000000"/>
    <path d="M 76.694809 124.305087 
C 76.936298 124.305087 77.167928 124.209142 77.338686 124.038384 
C 77.509445 123.867626 77.605389 123.635995 77.605389 123.394507 
C 77.605389 123.153018 77.509445 122.921388 77.338686 122.750629 
C 77.167928 122.579871 76.936298 122.483927 76.694809 122.483927 
C 76.45332 122.483927 76.22169 122.579871 76.050931 122.750629 
C 75.880173 122.921388 75.784229 123.153018 75.784229 123.394507 
C 75.784229 123.635995 75.880173 123.867626 76.050931 124.038384 
C 76.22169 124.209142 76.45332 124.305087 76.694809 124.305087 
z
" clip-path="url(#p1963e121e1)" style="stroke: #000000"/>
    <path d="M 76.918908 110.998714 
C 77.317935 110.998714 77.700672 110.840179 77.982827 110.558024 
C 78.264981 110.275869 78.423516 109.893132 78.423516 109.494105 
C 78.423516 109.095078 78.264981 108.712341 77.982827 108.430186 
C 77.700672 108.148032 77.317935 107.989497 76.918908 107.989497 
C 76.519881 107.989497 76.137144 108.148032 75.854989 108.430186 
C 75.572835 108.712341 75.414299 109.095078 75.414299 109.494105 
C 75.414299 109.893132 75.572835 110.275869 75.854989 110.558024 
C 76.137144 110.840179 76.519881 110.998714 76.918908 110.998714 
z
" clip-path="url(#p1963e121e1)" style="stroke: #000000"/>
    <path d="M 73.553873 104.796545 
C 73.878679 104.796545 74.190226 104.667498 74.419898 104.437826 
C 74.649571 104.208153 74.778618 103.896607 74.778618 103.5718 
C 74.778618 103.246994 74.649571 102.935448 74.419898 102.705775 
C 74.190226 102.476102 73.878679 102.347056 73.553873 102.347056 
C 73.229067 102.347056 72.91752 102.476102 72.687847 102.705775 
C 72.458175 102.935448 72.329128 103.246994 72.329128 103.5718 
C 72.329128 103.896607 72.458175 104.208153 72.687847 104.437826 
C 72.91752 104.667498 73.229067 104.796545 73.553873 104.796545 
z
" clip-path="url(#p1963e121e1)" style="stroke: #000000"/>
    <path d="M 75.434302 97.407658 
C 76.071734 97.407658 76.683145 97.154404 77.133877 96.703671 
C 77.58461 96.252939 77.837864 95.641529 77.837864 95.004097 
C 77.837864 94.366664 77.58461 93.755254 77.133877 93.304522 
C 76.683145 92.853789 76.071734 92.600535 75.434302 92.600535 
C 74.79687 92.600535 74.18546 92.853789 73.734727 93.304522 
C 73.283995 93.755254 73.03074 94.366664 73.03074 95.004097 
C 73.03074 95.641529 73.283995 96.252939 73.734727 96.703671 
C 74.18546 97.154404 74.79687 97.407658 75.434302 97.407658 
z
" clip-path="url(#p1963e121e1)" style="stroke: #000000"/>
    <path d="M 70.712485 93.633089 
C 71.20544 93.633089 71.67827 93.437236 72.026842 93.088664 
C 72.375414 92.740093 72.571266 92.267262 72.571266 91.774307 
C 72.571266 91.281353 72.375414 90.808522 72.026842 90.45995 
C 71.67827 90.111379 71.20544 89.915526 70.712485 89.915526 
C 70.21953 89.915526 69.746699 90.111379 69.398128 90.45995 
C 69.049556 90.808522 68.853703 91.281353 68.853703 91.774307 
C 68.853703 92.267262 69.049556 92.740093 69.398128 93.088664 
C 69.746699 93.437236 70.21953 93.633089 70.712485 93.633089 
z
" clip-path="url(#p1963e121e1)" style="stroke: #000000"/>
    <path d="M 66.947754 86.039058 
C 67.540766 86.039058 68.10957 85.803452 68.528893 85.384129 
C 68.948215 84.964806 69.183822 84.396002 69.183822 83.80299 
C 69.183822 83.209978 68.948215 82.641174 68.528893 82.221851 
C 68.10957 81.802528 67.540766 81.566922 66.947754 81.566922 
C 66.354742 81.566922 65.785938 81.802528 65.366615 82.221851 
C 64.947292 82.641174 64.711686 83.209978 64.711686 83.80299 
C 64.711686 84.396002 64.947292 84.964806 65.366615 85.384129 
C 65.785938 85.803452 66.354742 86.039058 66.947754 86.039058 
z
" clip-path="url(#p1963e121e1)" style="stroke: #000000"/>
    <path d="M 60.31684 65.721924 
C 60.449442 65.721924 60.57663 65.669241 60.670394 65.575478 
C 60.764157 65.481714 60.81684 65.354526 60.81684 65.221924 
C 60.81684 65.089323 60.764157 64.962134 60.670394 64.868371 
C 60.57663 64.774607 60.449442 64.721924 60.31684 64.721924 
C 60.184239 64.721924 60.05705 64.774607 59.963287 64.868371 
C 59.869523 64.962134 59.81684 65.089323 59.81684 65.221924 
C 59.81684 65.354526 59.869523 65.481714 59.963287 65.575478 
C 60.05705 65.669241 60.184239 65.721924 60.31684 65.721924 
z
" clip-path="url(#p1963e121e1)" style="stroke: #000000"/>
    <path d="M 78.007494 135.131642 
C 78.533707 135.131642 79.038438 134.922575 79.410527 134.550487 
C 79.782616 134.178398 79.991683 133.673666 79.991683 133.147453 
C 79.991683 132.621241 79.782616 132.116509 79.410527 131.74442 
C 79.038438 131.372332 78.533707 131.163265 78.007494 131.163265 
C 77.481281 131.163265 76.97655 131.372332 76.604461 131.74442 
C 76.232372 132.116509 76.023306 132.621241 76.023306 133.147453 
C 76.023306 133.673666 76.232372 134.178398 76.604461 134.550487 
C 76.97655 134.922575 77.481281 135.131642 78.007494 135.131642 
z
" clip-path="url(#p1963e121e1)" style="stroke: #000000"/>
    <path d="M 77.344779 132.074689 
C 77.780888 132.074689 78.199194 131.901421 78.507569 131.593046 
C 78.815945 131.28467 78.989213 130.866364 78.989213 130.430255 
C 78.989213 129.994146 78.815945 129.57584 78.507569 129.267465 
C 78.199194 128.959089 77.780888 128.785821 77.344779 128.785821 
C 76.90867 128.785821 76.490364 128.959089 76.181988 129.267465 
C 75.873613 129.57584 75.700345 129.994146 75.700345 130.430255 
C 75.700345 130.866364 75.873613 131.28467 76.181988 131.593046 
C 76.490364 131.901421 76.90867 132.074689 77.344779 132.074689 
z
" clip-path="url(#p1963e121e1)" style="stroke: #000000"/>
    <path d="M 74.634208 124.27171 
C 75.030779 124.27171 75.411161 124.114151 75.691579 123.833733 
C 75.971997 123.553315 76.129556 123.172933 76.129556 122.776362 
C 76.129556 122.37979 75.971997 121.999408 75.691579 121.71899 
C 75.411161 121.438572 75.030779 121.281013 74.634208 121.281013 
C 74.237636 121.281013 73.857255 121.438572 73.576836 121.71899 
C 73.296418 121.999408 73.138859 122.37979 73.138859 122.776362 
C 73.138859 123.172933 73.296418 123.553315 73.576836 123.833733 
C 73.857255 124.114151 74.237636 124.27171 74.634208 124.27171 
z
" clip-path="url(#p1963e121e1)" style="stroke: #000000"/>
    <path d="M 72.485386 118.903833 
C 73.056039 118.903833 73.603396 118.67711 74.006909 118.273597 
C 74.410421 117.870084 74.637144 117.322727 74.637144 116.752074 
C 74.637144 116.181421 74.410421 115.634064 74.006909 115.230551 
C 73.603396 114.827038 73.056039 114.600315 72.485386 114.600315 
C 71.914733 114.600315 71.367375 114.827038 70.963863 115.230551 
C 70.56035 115.634064 70.333627 116.181421 70.333627 116.752074 
C 70.333627 117.322727 70.56035 117.870084 70.963863 118.273597 
C 71.367375 118.67711 71.914733 118.903833 72.485386 118.903833 
z
" clip-path="url(#p1963e121e1)" style="stroke: #000000"/>
    <path d="M 69.372522 112.414575 
C 69.849202 112.414575 70.306424 112.225187 70.643488 111.888123 
C 70.980552 111.551059 71.16994 111.093837 71.16994 110.617156 
C 71.16994 110.140475 70.980552 109.683254 70.643488 109.34619 
C 70.306424 109.009126 69.849202 108.819738 69.372522 108.819738 
C 68.895841 108.819738 68.438619 109.009126 68.101555 109.34619 
C 67.764491 109.683254 67.575103 110.140475 67.575103 110.617156 
C 67.575103 111.093837 67.764491 111.551059 68.101555 111.888123 
C 68.438619 112.225187 68.895841 112.414575 69.372522 112.414575 
z
" clip-path="url(#p1963e121e1)" style="stroke: #000000"/>
    <path d="M 66.260288 106.947753 
C 66.784367 106.947753 67.28705 106.739534 67.65763 106.368955 
C 68.028209 105.998376 68.236427 105.495692 68.236427 104.971614 
C 68.236427 104.447536 68.028209 103.944852 67.65763 103.574273 
C 67.28705 103.203694 66.784367 102.995475 66.260288 102.995475 
C 65.73621 102.995475 65.233526 103.203694 64.862947 103.574273 
C 64.492368 103.944852 64.28415 104.447536 64.28415 104.971614 
C 64.28415 105.495692 64.492368 105.998376 64.862947 106.368955 
C 65.233526 106.739534 65.73621 106.947753 66.260288 106.947753 
z
" clip-path="url(#p1963e121e1)" style="stroke: #000000"/>
    <path d="M 65.871134 98.26157 
C 66.086821 98.26157 66.293702 98.175877 66.446216 98.023364 
C 66.598729 97.87085 66.684422 97.663969 66.684422 97.448282 
C 66.684422 97.232595 66.598729 97.025714 66.446216 96.8732 
C 66.293702 96.720687 66.086821 96.634994 65.871134 96.634994 
C 65.655447 96.634994 65.448566 96.720687 65.296052 96.8732 
C 65.143539 97.025714 65.057846 97.232595 65.057846 97.448282 
C 65.057846 97.663969 65.143539 97.87085 65.296052 98.023364 
C 65.448566 98.175877 65.655447 98.26157 65.871134 98.26157 
z
" clip-path="url(#p1963e121e1)" style="stroke: #000000"/>
    <path d="M 64.477869 94.665226 
C 64.63556 94.665226 64.786813 94.602575 64.898318 94.491071 
C 65.009822 94.379566 65.072473 94.228313 65.072473 94.070622 
C 65.072473 93.912932 65.009822 93.761678 64.898318 93.650174 
C 64.786813 93.53867 64.63556 93.476019 64.477869 93.476019 
C 64.320179 93.476019 64.168925 93.53867 64.057421 93.650174 
C 63.945917 93.761678 63.883266 93.912932 63.883266 94.070622 
C 63.883266 94.228313 63.945917 94.379566 64.057421 94.491071 
C 64.168925 94.602575 64.320179 94.665226 64.477869 94.665226 
z
" clip-path="url(#p1963e121e1)" style="stroke: #000000"/>
    <path d="M 62.480097 87.567039 
C 62.767277 87.567039 63.042734 87.452941 63.245801 87.249874 
C 63.448868 87.046807 63.562966 86.771351 63.562966 86.484171 
C 63.562966 86.196991 63.448868 85.921534 63.245801 85.718467 
C 63.042734 85.5154 62.767277 85.401302 62.480097 85.401302 
C 62.192917 85.401302 61.917461 85.5154 61.714394 85.718467 
C 61.511327 85.921534 61.397229 86.196991 61.397229 86.484171 
C 61.397229 86.771351 61.511327 87.046807 61.714394 87.249874 
C 61.917461 87.452941 62.192917 87.567039 62.480097 87.567039 
z
" clip-path="url(#p1963e121e1)" style="stroke: #000000"/>
    <path d="M 59.420825 82.102318 
C 59.760385 82.102318 60.086082 81.96741 60.326187 81.727305 
C 60.566292 81.4872 60.7012 81.161502 60.7012 80.821943 
C 60.7012 80.482384 60.566292 80.156686 60.326187 79.916581 
C 60.086082 79.676477 59.760385 79.541568 59.420825 79.541568 
C 59.081266 79.541568 58.755568 79.676477 58.515464 79.916581 
C 58.275359 80.156686 58.14045 80.482384 58.14045 80.821943 
C 58.14045 81.161502 58.275359 81.4872 58.515464 81.727305 
C 58.755568 81.96741 59.081266 82.102318 59.420825 82.102318 
z
" clip-path="url(#p1963e121e1)" style="stroke: #000000"/>
    <path d="M 71.688176 136.713134 
C 71.975356 136.713134 72.250813 136.599036 72.45388 136.395969 
C 72.656947 136.192902 72.771044 135.917446 72.771044 135.630265 
C 72.771044 135.343085 72.656947 135.067629 72.45388 134.864562 
C 72.250813 134.661495 71.975356 134.547397 71.688176 134.547397 
C 71.400996 134.547397 71.125539 134.661495 70.922472 134.864562 
C 70.719405 135.067629 70.605308 135.343085 70.605308 135.630265 
C 70.605308 135.917446 70.719405 136.192902 70.922472 136.395969 
C 71.125539 136.599036 71.400996 136.713134 71.688176 136.713134 
z
" clip-path="url(#p1963e121e1)" style="stroke: #000000"/>
    <path d="M 69.586454 132.916999 
C 70.179466 132.916999 70.74827 132.681393 71.167593 132.26207 
C 71.586916 131.842747 71.822522 131.273943 71.822522 130.680931 
C 71.822522 130.087919 71.586916 129.519115 71.167593 129.099792 
C 70.74827 128.680469 70.179466 128.444863 69.586454 128.444863 
C 68.993442 128.444863 68.424638 128.680469 68.005315 129.099792 
C 67.585992 129.519115 67.350386 130.087919 67.350386 130.680931 
C 67.350386 131.273943 67.585992 131.842747 68.005315 132.26207 
C 68.424638 132.681393 68.993442 132.916999 69.586454 132.916999 
z
" clip-path="url(#p1963e121e1)" style="stroke: #000000"/>
    <path d="M 68.840551 129.842923 
C 69.286568 129.842923 69.714377 129.665719 70.029758 129.350338 
C 70.345139 129.034956 70.522344 128.607147 70.522344 128.161131 
C 70.522344 127.715114 70.345139 127.287305 70.029758 126.971924 
C 69.714377 126.656542 69.286568 126.479338 68.840551 126.479338 
C 68.394534 126.479338 67.966725 126.656542 67.651344 126.971924 
C 67.335962 127.287305 67.158758 127.715114 67.158758 128.161131 
C 67.158758 128.607147 67.335962 129.034956 67.651344 129.350338 
C 67.966725 129.665719 68.394534 129.842923 68.840551 129.842923 
z
" clip-path="url(#p1963e121e1)" style="stroke: #000000"/>
    <path d="M 68.196208 119.513818 
C 68.535768 119.513818 68.861465 119.37891 69.10157 119.138805 
C 69.341675 118.8987 69.476583 118.573003 69.476583 118.233443 
C 69.476583 117.893884 69.341675 117.568186 69.10157 117.328082 
C 68.861465 117.087977 68.535768 116.953068 68.196208 116.953068 
C 67.856649 116.953068 67.530951 117.087977 67.290847 117.328082 
C 67.050742 117.568186 66.915834 117.893884 66.915834 118.233443 
C 66.915834 118.573003 67.050742 118.8987 67.290847 119.138805 
C 67.530951 119.37891 67.856649 119.513818 68.196208 119.513818 
z
" clip-path="url(#p1963e121e1)" style="stroke: #000000"/>
    <path d="M 63.031259 114.032501 
C 63.40031 114.032501 63.754296 113.885875 64.015254 113.624917 
C 64.276213 113.363958 64.422838 113.009973 64.422838 112.640922 
C 64.422838 112.271871 64.276213 111.917885 64.015254 111.656927 
C 63.754296 111.395968 63.40031 111.249343 63.031259 111.249343 
C 62.662208 111.249343 62.308223 111.395968 62.047264 111.656927 
C 61.786306 111.917885 61.63968 112.271871 61.63968 112.640922 
C 61.63968 113.009973 61.786306 113.363958 62.047264 113.624917 
C 62.308223 113.885875 62.662208 114.032501 63.031259 114.032501 
z
" clip-path="url(#p1963e121e1)" style="stroke: #000000"/>
    <path d="M 60.587575 109.913113 
C 61.001555 109.913113 61.398635 109.748637 61.691363 109.455909 
C 61.984092 109.163181 62.148568 108.766101 62.148568 108.352121 
C 62.148568 107.93814 61.984092 107.54106 61.691363 107.248332 
C 61.398635 106.955604 61.001555 106.791128 60.587575 106.791128 
C 60.173595 106.791128 59.776514 106.955604 59.483786 107.248332 
C 59.191058 107.54106 59.026582 107.93814 59.026582 108.352121 
C 59.026582 108.766101 59.191058 109.163181 59.483786 109.455909 
C 59.776514 109.748637 60.173595 109.913113 60.587575 109.913113 
z
" clip-path="url(#p1963e121e1)" style="stroke: #000000"/>
    <path d="M 56.983817 96.720039 
C 57.565383 96.720039 58.123208 96.48898 58.534437 96.077751 
C 58.945667 95.666522 59.176725 95.108697 59.176725 94.527131 
C 59.176725 93.945565 58.945667 93.38774 58.534437 92.976511 
C 58.123208 92.565281 57.565383 92.334223 56.983817 92.334223 
C 56.402251 92.334223 55.844426 92.565281 55.433197 92.976511 
C 55.021968 93.38774 54.790909 93.945565 54.790909 94.527131 
C 54.790909 95.108697 55.021968 95.666522 55.433197 96.077751 
C 55.844426 96.48898 56.402251 96.720039 56.983817 96.720039 
z
" clip-path="url(#p1963e121e1)" style="stroke: #000000"/>
    <path d="M 56.231842 88.920504 
C 56.556649 88.920504 56.868195 88.791457 57.097868 88.561785 
C 57.32754 88.332112 57.456587 88.020565 57.456587 87.695759 
C 57.456587 87.370953 57.32754 87.059406 57.097868 86.829734 
C 56.868195 86.600061 56.556649 86.471014 56.231842 86.471014 
C 55.907036 86.471014 55.59549 86.600061 55.365817 86.829734 
C 55.136144 87.059406 55.007098 87.370953 55.007098 87.695759 
C 55.007098 88.020565 55.136144 88.332112 55.365817 88.561785 
C 55.59549 88.791457 55.907036 88.920504 56.231842 88.920504 
z
" clip-path="url(#p1963e121e1)" style="stroke: #000000"/>
    <path d="M 46.690718 71.410442 
C 46.82332 71.410442 46.950508 71.357759 47.044272 71.263996 
C 47.138035 71.170232 47.190718 71.043044 47.190718 70.910442 
C 47.190718 70.777841 47.138035 70.650652 47.044272 70.556889 
C 46.950508 70.463125 46.82332 70.410442 46.690718 70.410442 
C 46.558117 70.410442 46.430928 70.463125 46.337165 70.556889 
C 46.243401 70.650652 46.190718 70.777841 46.190718 70.910442 
C 46.190718 71.043044 46.243401 71.170232 46.337165 71.263996 
C 46.430928 71.357759 46.558117 71.410442 46.690718 71.410442 
z
" clip-path="url(#p1963e121e1)" style="stroke: #000000"/>
    <path d="M 66.960293 143.268467 
C 67.092895 143.268467 67.220083 143.215784 67.313847 143.12202 
C 67.40761 143.028257 67.460293 142.901068 67.460293 142.768467 
C 67.460293 142.635865 67.40761 142.508677 67.313847 142.414913 
C 67.220083 142.32115 67.092895 142.268467 66.960293 142.268467 
C 66.827692 142.268467 66.700503 142.32115 66.60674 142.414913 
C 66.512977 142.508677 66.460293 142.635865 66.460293 142.768467 
C 66.460293 142.901068 66.512977 143.028257 66.60674 143.12202 
C 66.700503 143.215784 66.827692 143.268467 66.960293 143.268467 
z
" clip-path="url(#p1963e121e1)" style="stroke: #000000"/>
    <path d="M 66.588897 141.576976 
C 66.721499 141.576976 66.848687 141.524293 66.942451 141.43053 
C 67.036214 141.336766 67.088897 141.209578 67.088897 141.076976 
C 67.088897 140.944375 67.036214 140.817186 66.942451 140.723423 
C 66.848687 140.629659 66.721499 140.576976 66.588897 140.576976 
C 66.456296 140.576976 66.329107 140.629659 66.235344 140.723423 
C 66.14158 140.817186 66.088897 140.944375 66.088897 141.076976 
C 66.088897 141.209578 66.14158 141.336766 66.235344 141.43053 
C 66.329107 141.524293 66.456296 141.576976 66.588897 141.576976 
z
" clip-path="url(#p1963e121e1)" style="stroke: #000000"/>
    <path d="M 63.541309 137.229454 
C 63.715822 137.229454 63.883211 137.16012 64.006611 137.03672 
C 64.130011 136.91332 64.199346 136.745931 64.199346 136.571417 
C 64.199346 136.396904 64.130011 136.229515 64.006611 136.106115 
C 63.883211 135.982715 63.715822 135.91338 63.541309 135.91338 
C 63.366795 135.91338 63.199406 135.982715 63.076006 136.106115 
C 62.952607 136.229515 62.883272 136.396904 62.883272 136.571417 
C 62.883272 136.745931 62.952607 136.91332 63.076006 137.03672 
C 63.199406 137.16012 63.366795 137.229454 63.541309 137.229454 
z
" clip-path="url(#p1963e121e1)" style="stroke: #000000"/>
    <path d="M 60.868576 127.215822 
C 61.229686 127.215822 61.576054 127.072352 61.831398 126.817009 
C 62.086741 126.561666 62.230211 126.215297 62.230211 125.854188 
C 62.230211 125.493078 62.086741 125.146709 61.831398 124.891366 
C 61.576054 124.636023 61.229686 124.492553 60.868576 124.492553 
C 60.507467 124.492553 60.161098 124.636023 59.905755 124.891366 
C 59.650412 125.146709 59.506941 125.493078 59.506941 125.854188 
C 59.506941 126.215297 59.650412 126.561666 59.905755 126.817009 
C 60.161098 127.072352 60.507467 127.215822 60.868576 127.215822 
z
" clip-path="url(#p1963e121e1)" style="stroke: #000000"/>
    <path d="M 57.174877 122.207266 
C 57.737023 122.207266 58.276221 121.983923 58.673718 121.586425 
C 59.071216 121.188928 59.294559 120.64973 59.294559 120.087584 
C 59.294559 119.525438 59.071216 118.98624 58.673718 118.588743 
C 58.276221 118.191246 57.737023 117.967903 57.174877 117.967903 
C 56.612731 117.967903 56.073533 118.191246 55.676036 118.588743 
C 55.278539 118.98624 55.055196 119.525438 55.055196 120.087584 
C 55.055196 120.64973 55.278539 121.188928 55.676036 121.586425 
C 56.073533 121.983923 56.612731 122.207266 57.174877 122.207266 
z
" clip-path="url(#p1963e121e1)" style="stroke: #000000"/>
    <path d="M 53.38868 115.931943 
C 53.748137 115.931943 54.09292 115.789129 54.347094 115.534955 
C 54.601269 115.28078 54.744083 114.935997 54.744083 114.57654 
C 54.744083 114.217083 54.601269 113.8723 54.347094 113.618125 
C 54.09292 113.363951 53.748137 113.221137 53.38868 113.221137 
C 53.029223 113.221137 52.68444 113.363951 52.430265 113.618125 
C 52.17609 113.8723 52.033277 114.217083 52.033277 114.57654 
C 52.033277 114.935997 52.17609 115.28078 52.430265 115.534955 
C 52.68444 115.789129 53.029223 115.931943 53.38868 115.931943 
z
" clip-path="url(#p1963e121e1)" style="stroke: #000000"/>
    <path d="M 54.09081 110.279372 
C 54.63989 110.279372 55.166555 110.06122 55.554813 109.672962 
C 55.943071 109.284704 56.161222 108.758039 56.161222 108.208959 
C 56.161222 107.65988 55.943071 107.133215 55.554813 106.744957 
C 55.166555 106.356699 54.63989 106.138547 54.09081 106.138547 
C 53.54173 106.138547 53.015066 106.356699 52.626808 106.744957 
C 52.23855 107.133215 52.020398 107.65988 52.020398 108.208959 
C 52.020398 108.758039 52.23855 109.284704 52.626808 109.672962 
C 53.015066 110.06122 53.54173 110.279372 54.09081 110.279372 
z
" clip-path="url(#p1963e121e1)" style="stroke: #000000"/>
    <path d="M 45.209493 83.857837 
C 45.342094 83.857837 45.469283 83.805154 45.563046 83.711391 
C 45.656809 83.617627 45.709493 83.490439 45.709493 83.357837 
C 45.709493 83.225236 45.656809 83.098048 45.563046 83.004284 
C 45.469283 82.910521 45.342094 82.857837 45.209493 82.857837 
C 45.076891 82.857837 44.949703 82.910521 44.855939 83.004284 
C 44.762176 83.098048 44.709493 83.225236 44.709493 83.357837 
C 44.709493 83.490439 44.762176 83.617627 44.855939 83.711391 
C 44.949703 83.805154 45.076891 83.857837 45.209493 83.857837 
z
" clip-path="url(#p1963e121e1)" style="stroke: #000000"/>
    <path d="M 56.584821 131.872142 
C 56.881327 131.872142 57.165729 131.754339 57.37539 131.544678 
C 57.585052 131.335016 57.702855 131.050614 57.702855 130.754108 
C 57.702855 130.457602 57.585052 130.1732 57.37539 129.963539 
C 57.165729 129.753877 56.881327 129.636074 56.584821 129.636074 
C 56.288315 129.636074 56.003913 129.753877 55.794252 129.963539 
C 55.58459 130.1732 55.466787 130.457602 55.466787 130.754108 
C 55.466787 131.050614 55.58459 131.335016 55.794252 131.544678 
C 56.003913 131.754339 56.288315 131.872142 56.584821 131.872142 
z
" clip-path="url(#p1963e121e1)" style="stroke: #000000"/>
    <path d="M 49.747189 112.506543 
C 50.212786 112.506543 50.659375 112.32156 50.988601 111.992333 
C 51.317827 111.663107 51.502811 111.216518 51.502811 110.750921 
C 51.502811 110.285325 51.317827 109.838736 50.988601 109.50951 
C 50.659375 109.180283 50.212786 108.9953 49.747189 108.9953 
C 49.281593 108.9953 48.835004 109.180283 48.505777 109.50951 
C 48.176551 109.838736 47.991568 110.285325 47.991568 110.750921 
C 47.991568 111.216518 48.176551 111.663107 48.505777 111.992333 
C 48.835004 112.32156 49.281593 112.506543 49.747189 112.506543 
z
" clip-path="url(#p1963e121e1)" style="stroke: #000000"/>
    <path d="M 47.379607 105.999377 
C 47.689941 105.999377 47.987606 105.87608 48.207045 105.656641 
C 48.426484 105.437202 48.549781 105.139537 48.549781 104.829203 
C 48.549781 104.518869 48.426484 104.221204 48.207045 104.001765 
C 47.987606 103.782326 47.689941 103.659029 47.379607 103.659029 
C 47.069273 103.659029 46.771608 103.782326 46.552169 104.001765 
C 46.33273 104.221204 46.209433 104.518869 46.209433 104.829203 
C 46.209433 105.139537 46.33273 105.437202 46.552169 105.656641 
C 46.771608 105.87608 47.069273 105.999377 47.379607 105.999377 
z
" clip-path="url(#p1963e121e1)" style="stroke: #000000"/>
    <path d="M 43.195088 99.356532 
C 43.460291 99.356532 43.714667 99.251165 43.902194 99.063638 
C 44.089721 98.876112 44.195088 98.621735 44.195088 98.356532 
C 44.195088 98.091329 44.089721 97.836952 43.902194 97.649425 
C 43.714667 97.461898 43.460291 97.356532 43.195088 97.356532 
C 42.929884 97.356532 42.675508 97.461898 42.487981 97.649425 
C 42.300454 97.836952 42.195088 98.091329 42.195088 98.356532 
C 42.195088 98.621735 42.300454 98.876112 42.487981 99.063638 
C 42.675508 99.251165 42.929884 99.356532 43.195088 99.356532 
z
" clip-path="url(#p1963e121e1)" style="stroke: #000000"/>
    <path d="M 48.668009 131.626064 
C 48.800611 131.626064 48.927799 131.573381 49.021563 131.479618 
C 49.115326 131.385854 49.168009 131.258666 49.168009 131.126064 
C 49.168009 130.993463 49.115326 130.866274 49.021563 130.772511 
C 48.927799 130.678747 48.800611 130.626064 48.668009 130.626064 
C 48.535408 130.626064 48.408219 130.678747 48.314456 130.772511 
C 48.220693 130.866274 48.168009 130.993463 48.168009 131.126064 
C 48.168009 131.258666 48.220693 131.385854 48.314456 131.479618 
C 48.408219 131.573381 48.535408 131.626064 48.668009 131.626064 
z
" clip-path="url(#p1963e121e1)" style="stroke: #000000"/>
    <path d="M 46.73477 125.156698 
C 46.922297 125.156698 47.102168 125.082192 47.23477 124.949591 
C 47.367371 124.816989 47.441877 124.637118 47.441877 124.449591 
C 47.441877 124.262064 47.367371 124.082192 47.23477 123.949591 
C 47.102168 123.816989 46.922297 123.742484 46.73477 123.742484 
C 46.547243 123.742484 46.367371 123.816989 46.23477 123.949591 
C 46.102168 124.082192 46.027663 124.262064 46.027663 124.449591 
C 46.027663 124.637118 46.102168 124.816989 46.23477 124.949591 
C 46.367371 125.082192 46.547243 125.156698 46.73477 125.156698 
z
" clip-path="url(#p1963e121e1)" style="stroke: #000000"/>
    <path d="M 45.065113 117.361612 
C 45.263398 117.361612 45.453589 117.282832 45.593798 117.142623 
C 45.734008 117.002414 45.812787 116.812223 45.812787 116.613938 
C 45.812787 116.415652 45.734008 116.225461 45.593798 116.085252 
C 45.453589 115.945043 45.263398 115.866263 45.065113 115.866263 
C 44.866827 115.866263 44.676636 115.945043 44.536427 116.085252 
C 44.396218 116.225461 44.317438 116.415652 44.317438 116.613938 
C 44.317438 116.812223 44.396218 117.002414 44.536427 117.142623 
C 44.676636 117.282832 44.866827 117.361612 45.065113 117.361612 
z
" clip-path="url(#p1963e121e1)" style="stroke: #000000"/>
    <path d="M 40.712858 114.159729 
C 40.84546 114.159729 40.972648 114.107046 41.066411 114.013282 
C 41.160175 113.919519 41.212858 113.792331 41.212858 113.659729 
C 41.212858 113.527128 41.160175 113.399939 41.066411 113.306176 
C 40.972648 113.212412 40.84546 113.159729 40.712858 113.159729 
C 40.580256 113.159729 40.453068 113.212412 40.359305 113.306176 
C 40.265541 113.399939 40.212858 113.527128 40.212858 113.659729 
C 40.212858 113.792331 40.265541 113.919519 40.359305 114.013282 
C 40.453068 114.107046 40.580256 114.159729 40.712858 114.159729 
z
" clip-path="url(#p1963e121e1)" style="stroke: #000000"/>
    <path d="M 41.407406 109.975153 
C 41.614939 109.975153 41.813999 109.8927 41.960747 109.745952 
C 42.107495 109.599204 42.189949 109.400144 42.189949 109.192611 
C 42.189949 108.985078 42.107495 108.786018 41.960747 108.63927 
C 41.813999 108.492522 41.614939 108.410069 41.407406 108.410069 
C 41.199874 108.410069 41.000813 108.492522 40.854065 108.63927 
C 40.707318 108.786018 40.624864 108.985078 40.624864 109.192611 
C 40.624864 109.400144 40.707318 109.599204 40.854065 109.745952 
C 41.000813 109.8927 41.199874 109.975153 41.407406 109.975153 
z
" clip-path="url(#p1963e121e1)" style="stroke: #000000"/>
    <path d="M 39.376413 102.771684 
C 39.509014 102.771684 39.636203 102.719001 39.729966 102.625237 
C 39.82373 102.531474 39.876413 102.404286 39.876413 102.271684 
C 39.876413 102.139083 39.82373 102.011894 39.729966 101.918131 
C 39.636203 101.824367 39.509014 101.771684 39.376413 101.771684 
C 39.243811 101.771684 39.116623 101.824367 39.022859 101.918131 
C 38.929096 102.011894 38.876413 102.139083 38.876413 102.271684 
C 38.876413 102.404286 38.929096 102.531474 39.022859 102.625237 
C 39.116623 102.719001 39.243811 102.771684 39.376413 102.771684 
z
" clip-path="url(#p1963e121e1)" style="stroke: #000000"/>
    <path d="M 37.037264 115.015362 
C 37.169865 115.015362 37.297054 114.962679 37.390817 114.868915 
C 37.484581 114.775152 37.537264 114.647963 37.537264 114.515362 
C 37.537264 114.38276 37.484581 114.255572 37.390817 114.161808 
C 37.297054 114.068045 37.169865 114.015362 37.037264 114.015362 
C 36.904662 114.015362 36.777474 114.068045 36.68371 114.161808 
C 36.589947 114.255572 36.537264 114.38276 36.537264 114.515362 
C 36.537264 114.647963 36.589947 114.775152 36.68371 114.868915 
C 36.777474 114.962679 36.904662 115.015362 37.037264 115.015362 
z
" clip-path="url(#p1963e121e1)" style="stroke: #000000"/>
    <path d="M 35.306883 109.820472 
C 35.52257 109.820472 35.729451 109.734779 35.881965 109.582266 
C 36.034478 109.429752 36.120171 109.22287 36.120171 109.007184 
C 36.120171 108.791497 36.034478 108.584616 35.881965 108.432102 
C 35.729451 108.279589 35.52257 108.193896 35.306883 108.193896 
C 35.091196 108.193896 34.884315 108.279589 34.731801 108.432102 
C 34.579288 108.584616 34.493595 108.791497 34.493595 109.007184 
C 34.493595 109.22287 34.579288 109.429752 34.731801 109.582266 
C 34.884315 109.734779 35.091196 109.820472 35.306883 109.820472 
z
" clip-path="url(#p1963e121e1)" style="stroke: #000000"/>
    <path d="M 30.534581 116.98947 
C 30.709094 116.98947 30.876483 116.920135 30.999883 116.796735 
C 31.123283 116.673336 31.192618 116.505946 31.192618 116.331433 
C 31.192618 116.15692 31.123283 115.98953 30.999883 115.866131 
C 30.876483 115.742731 30.709094 115.673396 30.534581 115.673396 
C 30.360067 115.673396 30.192678 115.742731 30.069278 115.866131 
C 29.945878 115.98953 29.876544 116.15692 29.876544 116.331433 
C 29.876544 116.505946 29.945878 116.673336 30.069278 116.796735 
C 30.192678 116.920135 30.360067 116.98947 30.534581 116.98947 
z
" clip-path="url(#p1963e121e1)" style="stroke: #000000"/>
   </g>
   <g id="matplotlib.axis_1">
    <g id="xtick_1">
     <g id="line2d_1">
      <defs>
       <path id="m170923593c" d="M 0 0 
L 0 3.5 
" style="stroke: #000000; stroke-width: 0.8"/>
      </defs>
      <g>
       <use xlink:href="#m170923593c" x="18" y="189" style="stroke: #000000; stroke-width: 0.8"/>
      </g>
     </g>
     <g id="text_1">
      <!-- 10 -->
      <g transform="translate(7.447656 203.598437)scale(0.1 -0.1)">
       <defs>
        <path id="DejaVuSans-2212" d="M 678 2272 
L 4684 2272 
L 4684 1741 
L 678 1741 
L 678 2272 
z
" transform="scale(0.015625)"/>
        <path id="DejaVuSans-31" d="M 794 531 
L 1825 531 
L 1825 4091 
L 703 3866 
L 703 4441 
L 1819 4666 
L 2450 4666 
L 2450 531 
L 3481 531 
L 3481 0 
L 794 0 
L 794 531 
z
" transform="scale(0.015625)"/>
        <path id="DejaVuSans-30" d="M 2034 4250 
Q 1547 4250 1301 3770 
Q 1056 3291 1056 2328 
Q 1056 1369 1301 889 
Q 1547 409 2034 409 
Q 2525 409 2770 889 
Q 3016 1369 3016 2328 
Q 3016 3291 2770 3770 
Q 2525 4250 2034 4250 
z
M 2034 4750 
Q 2819 4750 3233 4129 
Q 3647 3509 3647 2328 
Q 3647 1150 3233 529 
Q 2819 -91 2034 -91 
Q 1250 -91 836 529 
Q 422 1150 422 2328 
Q 422 3509 836 4129 
Q 1250 4750 2034 4750 
z
" transform="scale(0.015625)"/>
       </defs>
       <use xlink:href="#DejaVuSans-2212"/>
       <use xlink:href="#DejaVuSans-31" x="83.789062"/>
       <use xlink:href="#DejaVuSans-30" x="147.412109"/>
      </g>
     </g>
    </g>
    <g id="xtick_2">
     <g id="line2d_2">
      <g>
       <use xlink:href="#m170923593c" x="73.8" y="189" style="stroke: #000000; stroke-width: 0.8"/>
      </g>
     </g>
     <g id="text_2">
      <!-- 0 -->
      <g transform="translate(70.61875 203.598437)scale(0.1 -0.1)">
       <use xlink:href="#DejaVuSans-30"/>
      </g>
     </g>
    </g>
    <g id="xtick_3">
     <g id="line2d_3">
      <g>
       <use xlink:href="#m170923593c" x="129.6" y="189" style="stroke: #000000; stroke-width: 0.8"/>
      </g>
     </g>
     <g id="text_3">
      <!-- 10 -->
      <g transform="translate(123.2375 203.598437)scale(0.1 -0.1)">
       <use xlink:href="#DejaVuSans-31"/>
       <use xlink:href="#DejaVuSans-30" x="63.623047"/>
      </g>
     </g>
    </g>
   </g>
   <g id="matplotlib.axis_2">
    <g id="ytick_1">
     <g id="line2d_4">
      <defs>
       <path id="m05d35d6769" d="M 0 0 
L -3.5 0 
" style="stroke: #000000; stroke-width: 0.8"/>
      </defs>
      <g>
       <use xlink:href="#m05d35d6769" x="18" y="189" style="stroke: #000000; stroke-width: 0.8"/>
      </g>
     </g>
     <g id="text_4">
      <!-- 15 -->
      <g transform="translate(-10.104688 192.799219)scale(0.1 -0.1)">
       <defs>
        <path id="DejaVuSans-35" d="M 691 4666 
L 3169 4666 
L 3169 4134 
L 1269 4134 
L 1269 2991 
Q 1406 3038 1543 3061 
Q 1681 3084 1819 3084 
Q 2600 3084 3056 2656 
Q 3513 2228 3513 1497 
Q 3513 744 3044 326 
Q 2575 -91 1722 -91 
Q 1428 -91 1123 -41 
Q 819 9 494 109 
L 494 744 
Q 775 591 1075 516 
Q 1375 441 1709 441 
Q 2250 441 2565 725 
Q 2881 1009 2881 1497 
Q 2881 1984 2565 2268 
Q 2250 2553 1709 2553 
Q 1456 2553 1204 2497 
Q 953 2441 691 2322 
L 691 4666 
z
" transform="scale(0.015625)"/>
       </defs>
       <use xlink:href="#DejaVuSans-2212"/>
       <use xlink:href="#DejaVuSans-31" x="83.789062"/>
       <use xlink:href="#DejaVuSans-35" x="147.412109"/>
      </g>
     </g>
    </g>
    <g id="ytick_2">
     <g id="line2d_5">
      <g>
       <use xlink:href="#m05d35d6769" x="18" y="161.82" style="stroke: #000000; stroke-width: 0.8"/>
      </g>
     </g>
     <g id="text_5">
      <!-- 10 -->
      <g transform="translate(-10.104688 165.619219)scale(0.1 -0.1)">
       <use xlink:href="#DejaVuSans-2212"/>
       <use xlink:href="#DejaVuSans-31" x="83.789062"/>
       <use xlink:href="#DejaVuSans-30" x="147.412109"/>
      </g>
     </g>
    </g>
    <g id="ytick_3">
     <g id="line2d_6">
      <g>
       <use xlink:href="#m05d35d6769" x="18" y="134.64" style="stroke: #000000; stroke-width: 0.8"/>
      </g>
     </g>
     <g id="text_6">
      <!-- 5 -->
      <g transform="translate(-3.742188 138.439219)scale(0.1 -0.1)">
       <use xlink:href="#DejaVuSans-2212"/>
       <use xlink:href="#DejaVuSans-35" x="83.789062"/>
      </g>
     </g>
    </g>
    <g id="ytick_4">
     <g id="line2d_7">
      <g>
       <use xlink:href="#m05d35d6769" x="18" y="107.46" style="stroke: #000000; stroke-width: 0.8"/>
      </g>
     </g>
     <g id="text_7">
      <!-- 0 -->
      <g transform="translate(4.6375 111.259219)scale(0.1 -0.1)">
       <use xlink:href="#DejaVuSans-30"/>
      </g>
     </g>
    </g>
    <g id="ytick_5">
     <g id="line2d_8">
      <g>
       <use xlink:href="#m05d35d6769" x="18" y="80.28" style="stroke: #000000; stroke-width: 0.8"/>
      </g>
     </g>
     <g id="text_8">
      <!-- 5 -->
      <g transform="translate(4.6375 84.079219)scale(0.1 -0.1)">
       <use xlink:href="#DejaVuSans-35"/>
      </g>
     </g>
    </g>
    <g id="ytick_6">
     <g id="line2d_9">
      <g>
       <use xlink:href="#m05d35d6769" x="18" y="53.1" style="stroke: #000000; stroke-width: 0.8"/>
      </g>
     </g>
     <g id="text_9">
      <!-- 10 -->
      <g transform="translate(-1.725 56.899219)scale(0.1 -0.1)">
       <use xlink:href="#DejaVuSans-31"/>
       <use xlink:href="#DejaVuSans-30" x="63.623047"/>
      </g>
     </g>
    </g>
    <g id="ytick_7">
     <g id="line2d_10">
      <g>
       <use xlink:href="#m05d35d6769" x="18" y="25.92" style="stroke: #000000; stroke-width: 0.8"/>
      </g>
     </g>
     <g id="text_10">
      <!-- 15 -->
      <g transform="translate(-1.725 29.719219)scale(0.1 -0.1)">
       <use xlink:href="#DejaVuSans-31"/>
       <use xlink:href="#DejaVuSans-35" x="63.623047"/>
      </g>
     </g>
    </g>
   </g>
   <g id="patch_3">
    <path d="M 18 189 
L 18 25.92 
" style="fill: none; stroke: #000000; stroke-width: 0.8; stroke-linejoin: miter; stroke-linecap: square"/>
   </g>
   <g id="patch_4">
    <path d="M 129.6 189 
L 129.6 25.92 
" style="fill: none; stroke: #000000; stroke-width: 0.8; stroke-linejoin: miter; stroke-linecap: square"/>
   </g>
   <g id="patch_5">
    <path d="M 18 189 
L 129.6 189 
" style="fill: none; stroke: #000000; stroke-width: 0.8; stroke-linejoin: miter; stroke-linecap: square"/>
   </g>
   <g id="patch_6">
    <path d="M 18 25.92 
L 129.6 25.92 
" style="fill: none; stroke: #000000; stroke-width: 0.8; stroke-linejoin: miter; stroke-linecap: square"/>
   </g>
  </g>
 </g>
 <defs>
  <clipPath id="p1963e121e1">
   <rect x="18" y="25.92" width="111.6" height="163.08"/>
  </clipPath>
 </defs>
</svg>
