<?xml version="1.0" encoding="utf-8" standalone="no"?>
<!DOCTYPE svg PUBLIC "-//W3C//DTD SVG 1.1//EN"
  "http://www.w3.org/Graphics/SVG/1.1/DTD/svg11.dtd">
<svg xmlns:xlink="http://www.w3.org/1999/xlink" width="144pt" height="216pt" viewBox="0 0 144 216" xmlns="http://www.w3.org/2000/svg" version="1.1">
 <metadata>
  <rdf:RDF xmlns:dc="http://purl.org/dc/elements/1.1/" xmlns:cc="http://creativecommons.org/ns#" xmlns:rdf="http://www.w3.org/1999/02/22-rdf-syntax-ns#">
   <cc:Work>
    <dc:type rdf:resource="http://purl.org/dc/dcmitype/StillImage"/>
    <dc:date>2022-06-23T14:45:55.149281</dc:date>
    <dc:format>image/svg+xml</dc:format>
    <dc:creator>
     <cc:Agent>
      <dc:title>Matplotlib v3.5.1, https://matplotlib.org/</dc:title>
     </cc:Agent>
    </dc:creator>
   </cc:Work>
  </rdf:RDF>
 </metadata>
 <defs>
  <style type="text/css">*{stroke-linejoin: round; stroke-linecap: butt}</style>
 </defs>
 <g id="figure_1">
  <g id="patch_1">
   <path d="M 0 216 
L 144 216 
L 144 0 
L 0 0 
L 0 216 
z
" style="fill: none"/>
  </g>
  <g id="axes_1">
   <g id="patch_2">
    <path d="M 18 189 
L 129.6 189 
L 129.6 25.92 
L 18 25.92 
z
" style="fill: #ffffff"/>
   </g>
   <g id="PathCollection_1">
    <defs>
     <path id="m8d567c71f8" d="M 0 2.738613 
C 0.726289 2.738613 1.422928 2.450055 1.936492 1.936492 
C 2.450055 1.422928 2.738613 0.726289 2.738613 0 
C 2.738613 -0.726289 2.450055 -1.422928 1.936492 -1.936492 
C 1.422928 -2.450055 0.726289 -2.738613 0 -2.738613 
C -0.726289 -2.738613 -1.422928 -2.450055 -1.936492 -1.936492 
C -2.450055 -1.422928 -2.738613 -0.726289 -2.738613 0 
C -2.738613 0.726289 -2.450055 1.422928 -1.936492 1.936492 
C -1.422928 2.450055 -0.726289 2.738613 0 2.738613 
z
" style="stroke: #ff0000; stroke-width: 1.75"/>
    </defs>
    <g clip-path="url(#p379e93e278)">
     <use xlink:href="#m8d567c71f8" x="80.775" y="107.46" style="fill: #ff0000; stroke: #ff0000; stroke-width: 1.75"/>
     <use xlink:href="#m8d567c71f8" x="94.725" y="107.46" style="fill: #ff0000; stroke: #ff0000; stroke-width: 1.75"/>
     <use xlink:href="#m8d567c71f8" x="59.85" y="119.229285" style="fill: #ff0000; stroke: #ff0000; stroke-width: 1.75"/>
     <use xlink:href="#m8d567c71f8" x="73.8" y="119.229285" style="fill: #ff0000; stroke: #ff0000; stroke-width: 1.75"/>
     <use xlink:href="#m8d567c71f8" x="87.75" y="119.229285" style="fill: #ff0000; stroke: #ff0000; stroke-width: 1.75"/>
     <use xlink:href="#m8d567c71f8" x="66.825" y="130.99857" style="fill: #ff0000; stroke: #ff0000; stroke-width: 1.75"/>
     <use xlink:href="#m8d567c71f8" x="80.775" y="130.99857" style="fill: #ff0000; stroke: #ff0000; stroke-width: 1.75"/>
    </g>
   </g>
   <g id="PathCollection_2">
    <defs>
     <path id="C0_0_405a475af3" d="M 0 2.738613 
C 0.726289 2.738613 1.422928 2.450055 1.936492 1.936492 
C 2.450055 1.422928 2.738613 0.726289 2.738613 -0 
C 2.738613 -0.726289 2.450055 -1.422928 1.936492 -1.936492 
C 1.422928 -2.450055 0.726289 -2.738613 0 -2.738613 
C -0.726289 -2.738613 -1.422928 -2.450055 -1.936492 -1.936492 
C -2.450055 -1.422928 -2.738613 -0.726289 -2.738613 0 
C -2.738613 0.726289 -2.450055 1.422928 -1.936492 1.936492 
C -1.422928 2.450055 -0.726289 2.738613 0 2.738613 
z
"/>
    </defs>
    <g clip-path="url(#p379e93e278)">
     <use xlink:href="#C0_0_405a475af3" x="66.825" y="83.92143" style="fill: none; stroke: #ff0000; stroke-width: 1.75"/>
    </g>
    <g clip-path="url(#p379e93e278)">
     <use xlink:href="#C0_0_405a475af3" x="80.775" y="83.92143" style="fill: none; stroke: #ff0000; stroke-width: 1.75"/>
    </g>
    <g clip-path="url(#p379e93e278)">
     <use xlink:href="#C0_0_405a475af3" x="59.85" y="95.690715" style="fill: none; stroke: #ff0000; stroke-width: 1.75"/>
    </g>
    <g clip-path="url(#p379e93e278)">
     <use xlink:href="#C0_0_405a475af3" x="73.8" y="95.690715" style="fill: none; stroke: #ff0000; stroke-width: 1.75"/>
    </g>
    <g clip-path="url(#p379e93e278)">
     <use xlink:href="#C0_0_405a475af3" x="87.75" y="95.690715" style="fill: none; stroke: #ff0000; stroke-width: 1.75"/>
    </g>
    <g clip-path="url(#p379e93e278)">
     <use xlink:href="#C0_0_405a475af3" x="52.875" y="107.46" style="fill: none; stroke: #ff0000; stroke-width: 1.75"/>
    </g>
    <g clip-path="url(#p379e93e278)">
     <use xlink:href="#C0_0_405a475af3" x="66.825" y="107.46" style="fill: none; stroke: #ff0000; stroke-width: 1.75"/>
    </g>
   </g>
   <g id="PathCollection_3">
    <path d="M 113.538817 101.564895 
C 114.130341 101.564895 114.697717 101.32988 115.115988 100.911609 
C 115.534258 100.493338 115.769273 99.925962 115.769273 99.334438 
C 115.769273 98.742914 115.534258 98.175537 115.115988 97.757267 
C 114.697717 97.338996 114.130341 97.103981 113.538817 97.103981 
C 112.947293 97.103981 112.379916 97.338996 111.961646 97.757267 
C 111.543375 98.175537 111.30836 98.742914 111.30836 99.334438 
C 111.30836 99.925962 111.543375 100.493338 111.961646 100.911609 
C 112.379916 101.32988 112.947293 101.564895 113.538817 101.564895 
z
" clip-path="url(#p379e93e278)" style="stroke: #000000"/>
    <path d="M 109.849647 92.029263 
C 110.431213 92.029263 110.989038 91.798204 111.400267 91.386975 
C 111.811497 90.975746 112.042555 90.417921 112.042555 89.836355 
C 112.042555 89.254789 111.811497 88.696964 111.400267 88.285735 
C 110.989038 87.874505 110.431213 87.643447 109.849647 87.643447 
C 109.268081 87.643447 108.710256 87.874505 108.299027 88.285735 
C 107.887798 88.696964 107.656739 89.254789 107.656739 89.836355 
C 107.656739 90.417921 107.887798 90.975746 108.299027 91.386975 
C 108.710256 91.798204 109.268081 92.029263 109.849647 92.029263 
z
" clip-path="url(#p379e93e278)" style="stroke: #000000"/>
    <path d="M 104.703081 78.060966 
C 105.137314 78.060966 105.553821 77.888444 105.86087 77.581394 
C 106.167919 77.274345 106.340442 76.857839 106.340442 76.423605 
C 106.340442 75.989372 106.167919 75.572865 105.86087 75.265816 
C 105.553821 74.958767 105.137314 74.786244 104.703081 74.786244 
C 104.268848 74.786244 103.852341 74.958767 103.545292 75.265816 
C 103.238243 75.572865 103.06572 75.989372 103.06572 76.423605 
C 103.06572 76.857839 103.238243 77.274345 103.545292 77.581394 
C 103.852341 77.888444 104.268848 78.060966 104.703081 78.060966 
z
" clip-path="url(#p379e93e278)" style="stroke: #000000"/>
    <path d="M 100.135534 73.332215 
C 100.728546 73.332215 101.29735 73.096609 101.716673 72.677286 
C 102.135996 72.257963 102.371602 71.689159 102.371602 71.096147 
C 102.371602 70.503135 102.135996 69.934331 101.716673 69.515008 
C 101.29735 69.095685 100.728546 68.860079 100.135534 68.860079 
C 99.542522 68.860079 98.973718 69.095685 98.554395 69.515008 
C 98.135072 69.934331 97.899466 70.503135 97.899466 71.096147 
C 97.899466 71.689159 98.135072 72.257963 98.554395 72.677286 
C 98.973718 73.096609 99.542522 73.332215 100.135534 73.332215 
z
" clip-path="url(#p379e93e278)" style="stroke: #000000"/>
    <path d="M 94.700942 61.388052 
C 95.293954 61.388052 95.862757 61.152445 96.28208 60.733122 
C 96.701403 60.3138 96.93701 59.744996 96.93701 59.151984 
C 96.93701 58.558971 96.701403 57.990168 96.28208 57.570845 
C 95.862757 57.151522 95.293954 56.915916 94.700942 56.915916 
C 94.107929 56.915916 93.539126 57.151522 93.119803 57.570845 
C 92.70048 57.990168 92.464874 58.558971 92.464874 59.151984 
C 92.464874 59.744996 92.70048 60.3138 93.119803 60.733122 
C 93.539126 61.152445 94.107929 61.388052 94.700942 61.388052 
z
" clip-path="url(#p379e93e278)" style="stroke: #000000"/>
    <path d="M 90.288723 45.434583 
C 90.824737 45.434583 91.33887 45.221622 91.717889 44.842602 
C 92.096909 44.463583 92.30987 43.94945 92.30987 43.413436 
C 92.30987 42.877422 92.096909 42.363289 91.717889 41.98427 
C 91.33887 41.60525 90.824737 41.392289 90.288723 41.392289 
C 89.752709 41.392289 89.238576 41.60525 88.859556 41.98427 
C 88.480537 42.363289 88.267576 42.877422 88.267576 43.413436 
C 88.267576 43.94945 88.480537 44.463583 88.859556 44.842602 
C 89.238576 45.221622 89.752709 45.434583 90.288723 45.434583 
z
" clip-path="url(#p379e93e278)" style="stroke: #000000"/>
    <path d="M 104.552852 116.695304 
C 105.258287 116.695304 105.934923 116.415032 106.433741 115.916214 
C 106.932558 115.417397 107.212831 114.74076 107.212831 114.035325 
C 107.212831 113.329891 106.932558 112.653254 106.433741 112.154437 
C 105.934923 111.655619 105.258287 111.375347 104.552852 111.375347 
C 103.847417 111.375347 103.170781 111.655619 102.671963 112.154437 
C 102.173146 112.653254 101.892873 113.329891 101.892873 114.035325 
C 101.892873 114.74076 102.173146 115.417397 102.671963 115.916214 
C 103.170781 116.415032 103.847417 116.695304 104.552852 116.695304 
z
" clip-path="url(#p379e93e278)" style="stroke: #000000"/>
    <path d="M 100.165759 102.726173 
C 100.651457 102.726173 101.117328 102.533203 101.460769 102.189762 
C 101.804209 101.846321 101.997179 101.38045 101.997179 100.894752 
C 101.997179 100.409053 101.804209 99.943183 101.460769 99.599742 
C 101.117328 99.256301 100.651457 99.063331 100.165759 99.063331 
C 99.68006 99.063331 99.214189 99.256301 98.870749 99.599742 
C 98.527308 99.943183 98.334338 100.409053 98.334338 100.894752 
C 98.334338 101.38045 98.527308 101.846321 98.870749 102.189762 
C 99.214189 102.533203 99.68006 102.726173 100.165759 102.726173 
z
" clip-path="url(#p379e93e278)" style="stroke: #000000"/>
    <path d="M 95.980206 85.822977 
C 96.573589 85.822977 97.142748 85.587224 97.562333 85.167639 
C 97.981917 84.748055 98.217671 84.178896 98.217671 83.585513 
C 98.217671 82.992131 97.981917 82.422972 97.562333 82.003387 
C 97.142748 81.583802 96.573589 81.348049 95.980206 81.348049 
C 95.386824 81.348049 94.817665 81.583802 94.39808 82.003387 
C 93.978496 82.422972 93.742742 82.992131 93.742742 83.585513 
C 93.742742 84.178896 93.978496 84.748055 94.39808 85.167639 
C 94.817665 85.587224 95.386824 85.822977 95.980206 85.822977 
z
" clip-path="url(#p379e93e278)" style="stroke: #000000"/>
    <path d="M 84.585762 63.965189 
C 85.107679 63.965189 85.60829 63.75783 85.977341 63.388779 
C 86.346392 63.019728 86.553751 62.519117 86.553751 61.9972 
C 86.553751 61.475283 86.346392 60.974672 85.977341 60.605621 
C 85.60829 60.23657 85.107679 60.02921 84.585762 60.02921 
C 84.063845 60.02921 83.563234 60.23657 83.194183 60.605621 
C 82.825132 60.974672 82.617772 61.475283 82.617772 61.9972 
C 82.617772 62.519117 82.825132 63.019728 83.194183 63.388779 
C 83.563234 63.75783 84.063845 63.965189 84.585762 63.965189 
z
" clip-path="url(#p379e93e278)" style="stroke: #000000"/>
    <path d="M 78.786689 52.345719 
C 79.379702 52.345719 79.948505 52.110113 80.367828 51.69079 
C 80.787151 51.271467 81.022757 50.702663 81.022757 50.109651 
C 81.022757 49.516639 80.787151 48.947835 80.367828 48.528512 
C 79.948505 48.109189 79.379702 47.873583 78.786689 47.873583 
C 78.193677 47.873583 77.624873 48.109189 77.205551 48.528512 
C 76.786228 48.947835 76.550621 49.516639 76.550621 50.109651 
C 76.550621 50.702663 76.786228 51.271467 77.205551 51.69079 
C 77.624873 52.110113 78.193677 52.345719 78.786689 52.345719 
z
" clip-path="url(#p379e93e278)" style="stroke: #000000"/>
    <path d="M 75.381983 36.575958 
C 75.917997 36.575958 76.43213 36.362997 76.811149 35.983978 
C 77.190169 35.604959 77.403129 35.090826 77.403129 34.554812 
C 77.403129 34.018797 77.190169 33.504664 76.811149 33.125645 
C 76.43213 32.746626 75.917997 32.533665 75.381983 32.533665 
C 74.845968 32.533665 74.331836 32.746626 73.952816 33.125645 
C 73.573797 33.504664 73.360836 34.018797 73.360836 34.554812 
C 73.360836 35.090826 73.573797 35.604959 73.952816 35.983978 
C 74.331836 36.362997 74.845968 36.575958 75.381983 36.575958 
z
" clip-path="url(#p379e93e278)" style="stroke: #000000"/>
    <path d="M 114.467865 170.784561 
C 115.061247 170.784561 115.630406 170.548808 116.049991 170.129223 
C 116.469576 169.709639 116.705329 169.14048 116.705329 168.547097 
C 116.705329 167.953715 116.469576 167.384556 116.049991 166.964971 
C 115.630406 166.545386 115.061247 166.309633 114.467865 166.309633 
C 113.874482 166.309633 113.305323 166.545386 112.885739 166.964971 
C 112.466154 167.384556 112.230401 167.953715 112.230401 168.547097 
C 112.230401 169.14048 112.466154 169.709639 112.885739 170.129223 
C 113.305323 170.548808 113.874482 170.784561 114.467865 170.784561 
z
" clip-path="url(#p379e93e278)" style="stroke: #000000"/>
    <path d="M 105.660472 157.572585 
C 106.252369 157.572585 106.820103 157.337422 107.238637 156.918888 
C 107.657172 156.500353 107.892335 155.932619 107.892335 155.340722 
C 107.892335 154.748825 107.657172 154.181091 107.238637 153.762556 
C 106.820103 153.344022 106.252369 153.108858 105.660472 153.108858 
C 105.068574 153.108858 104.50084 153.344022 104.082306 153.762556 
C 103.663771 154.181091 103.428608 154.748825 103.428608 155.340722 
C 103.428608 155.932619 103.663771 156.500353 104.082306 156.918888 
C 104.50084 157.337422 105.068574 157.572585 105.660472 157.572585 
z
" clip-path="url(#p379e93e278)" style="stroke: #000000"/>
    <path d="M 102.022431 149.154313 
C 102.615814 149.154313 103.184973 148.918559 103.604557 148.498975 
C 104.024142 148.07939 104.259896 147.510231 104.259896 146.916848 
C 104.259896 146.323466 104.024142 145.754307 103.604557 145.334722 
C 103.184973 144.915138 102.615814 144.679384 102.022431 144.679384 
C 101.429049 144.679384 100.85989 144.915138 100.440305 145.334722 
C 100.020721 145.754307 99.784967 146.323466 99.784967 146.916848 
C 99.784967 147.510231 100.020721 148.07939 100.440305 148.498975 
C 100.85989 148.918559 101.429049 149.154313 102.022431 149.154313 
z
" clip-path="url(#p379e93e278)" style="stroke: #000000"/>
    <path d="M 98.350769 137.782246 
C 99.023887 137.782246 99.669525 137.514814 100.145491 137.038848 
C 100.621456 136.562882 100.888889 135.917244 100.888889 135.244127 
C 100.888889 134.571009 100.621456 133.925371 100.145491 133.449405 
C 99.669525 132.97344 99.023887 132.706007 98.350769 132.706007 
C 97.677652 132.706007 97.032014 132.97344 96.556048 133.449405 
C 96.080082 133.925371 95.81265 134.571009 95.81265 135.244127 
C 95.81265 135.917244 96.080082 136.562882 96.556048 137.038848 
C 97.032014 137.514814 97.677652 137.782246 98.350769 137.782246 
z
" clip-path="url(#p379e93e278)" style="stroke: #000000"/>
    <path d="M 98.624231 128.940761 
C 99.160245 128.940761 99.674378 128.727801 100.053397 128.348781 
C 100.432417 127.969762 100.645377 127.455629 100.645377 126.919615 
C 100.645377 126.3836 100.432417 125.869468 100.053397 125.490448 
C 99.674378 125.111429 99.160245 124.898468 98.624231 124.898468 
C 98.088216 124.898468 97.574084 125.111429 97.195064 125.490448 
C 96.816045 125.869468 96.603084 126.3836 96.603084 126.919615 
C 96.603084 127.455629 96.816045 127.969762 97.195064 128.348781 
C 97.574084 128.727801 98.088216 128.940761 98.624231 128.940761 
z
" clip-path="url(#p379e93e278)" style="stroke: #000000"/>
    <path d="M 94.214171 118.654536 
C 94.807183 118.654536 95.375987 118.41893 95.79531 117.999607 
C 96.214632 117.580284 96.450239 117.01148 96.450239 116.418468 
C 96.450239 115.825456 96.214632 115.256652 95.79531 114.837329 
C 95.375987 114.418006 94.807183 114.1824 94.214171 114.1824 
C 93.621159 114.1824 93.052355 114.418006 92.633032 114.837329 
C 92.213709 115.256652 91.978103 115.825456 91.978103 116.418468 
C 91.978103 117.01148 92.213709 117.580284 92.633032 117.999607 
C 93.052355 118.41893 93.621159 118.654536 94.214171 118.654536 
z
" clip-path="url(#p379e93e278)" style="stroke: #000000"/>
    <path d="M 85.928364 109.866662 
C 86.189322 109.866662 86.439628 109.762982 86.624153 109.578456 
C 86.808679 109.393931 86.912358 109.143625 86.912358 108.882667 
C 86.912358 108.621708 86.808679 108.371403 86.624153 108.186877 
C 86.439628 108.002352 86.189322 107.898672 85.928364 107.898672 
C 85.667405 107.898672 85.4171 108.002352 85.232574 108.186877 
C 85.048049 108.371403 84.944369 108.621708 84.944369 108.882667 
C 84.944369 109.143625 85.048049 109.393931 85.232574 109.578456 
C 85.4171 109.762982 85.667405 109.866662 85.928364 109.866662 
z
" clip-path="url(#p379e93e278)" style="stroke: #000000"/>
    <path d="M 81.207001 87.195376 
C 81.730541 87.195376 82.232709 86.987371 82.602908 86.617172 
C 82.973107 86.246973 83.181112 85.744805 83.181112 85.221265 
C 83.181112 84.697725 82.973107 84.195557 82.602908 83.825358 
C 82.232709 83.455159 81.730541 83.247154 81.207001 83.247154 
C 80.68346 83.247154 80.181292 83.455159 79.811094 83.825358 
C 79.440895 84.195557 79.23289 84.697725 79.23289 85.221265 
C 79.23289 85.744805 79.440895 86.246973 79.811094 86.617172 
C 80.181292 86.987371 80.68346 87.195376 81.207001 87.195376 
z
" clip-path="url(#p379e93e278)" style="stroke: #000000"/>
    <path d="M 77.311818 64.538401 
C 77.905201 64.538401 78.47436 64.302648 78.893944 63.883063 
C 79.313529 63.463478 79.549282 62.894319 79.549282 62.300937 
C 79.549282 61.707554 79.313529 61.138395 78.893944 60.718811 
C 78.47436 60.299226 77.905201 60.063473 77.311818 60.063473 
C 76.718436 60.063473 76.149277 60.299226 75.729692 60.718811 
C 75.310107 61.138395 75.074354 61.707554 75.074354 62.300937 
C 75.074354 62.894319 75.310107 63.463478 75.729692 63.883063 
C 76.149277 64.302648 76.718436 64.538401 77.311818 64.538401 
z
" clip-path="url(#p379e93e278)" style="stroke: #000000"/>
    <path d="M 63.733553 45.987013 
C 63.866154 45.987013 63.993343 45.93433 64.087106 45.840567 
C 64.18087 45.746803 64.233553 45.619615 64.233553 45.487013 
C 64.233553 45.354412 64.18087 45.227223 64.087106 45.13346 
C 63.993343 45.039696 63.866154 44.987013 63.733553 44.987013 
C 63.600951 44.987013 63.473763 45.039696 63.38 45.13346 
C 63.286236 45.227223 63.233553 45.354412 63.233553 45.487013 
C 63.233553 45.619615 63.286236 45.746803 63.38 45.840567 
C 63.473763 45.93433 63.600951 45.987013 63.733553 45.987013 
z
" clip-path="url(#p379e93e278)" style="stroke: #000000"/>
    <path d="M 61.452651 32.808366 
C 61.988665 32.808366 62.502798 32.595406 62.881817 32.216386 
C 63.260837 31.837367 63.473797 31.323234 63.473797 30.78722 
C 63.473797 30.251205 63.260837 29.737073 62.881817 29.358053 
C 62.502798 28.979034 61.988665 28.766073 61.452651 28.766073 
C 60.916636 28.766073 60.402504 28.979034 60.023484 29.358053 
C 59.644465 29.737073 59.431504 30.251205 59.431504 30.78722 
C 59.431504 31.323234 59.644465 31.837367 60.023484 32.216386 
C 60.402504 32.595406 60.916636 32.808366 61.452651 32.808366 
z
" clip-path="url(#p379e93e278)" style="stroke: #000000"/>
    <path d="M 102.321707 175.004675 
C 102.915089 175.004675 103.484248 174.768921 103.903833 174.349337 
C 104.323417 173.929752 104.559171 173.360593 104.559171 172.76721 
C 104.559171 172.173828 104.323417 171.604669 103.903833 171.185084 
C 103.484248 170.7655 102.915089 170.529746 102.321707 170.529746 
C 101.728324 170.529746 101.159165 170.7655 100.73958 171.185084 
C 100.319996 171.604669 100.084242 172.173828 100.084242 172.76721 
C 100.084242 173.360593 100.319996 173.929752 100.73958 174.349337 
C 101.159165 174.768921 101.728324 175.004675 102.321707 175.004675 
z
" clip-path="url(#p379e93e278)" style="stroke: #000000"/>
    <path d="M 95.943327 162.828346 
C 96.536339 162.828346 97.105142 162.59274 97.524465 162.173417 
C 97.943788 161.754094 98.179395 161.18529 98.179395 160.592278 
C 98.179395 159.999266 97.943788 159.430462 97.524465 159.011139 
C 97.105142 158.591816 96.536339 158.35621 95.943327 158.35621 
C 95.350314 158.35621 94.781511 158.591816 94.362188 159.011139 
C 93.942865 159.430462 93.707259 159.999266 93.707259 160.592278 
C 93.707259 161.18529 93.942865 161.754094 94.362188 162.173417 
C 94.781511 162.59274 95.350314 162.828346 95.943327 162.828346 
z
" clip-path="url(#p379e93e278)" style="stroke: #000000"/>
    <path d="M 94.928142 151.83923 
C 95.521525 151.83923 96.090684 151.603477 96.510268 151.183892 
C 96.929853 150.764307 97.165606 150.195148 97.165606 149.601766 
C 97.165606 149.008383 96.929853 148.439225 96.510268 148.01964 
C 96.090684 147.600055 95.521525 147.364302 94.928142 147.364302 
C 94.33476 147.364302 93.765601 147.600055 93.346016 148.01964 
C 92.926431 148.439225 92.690678 149.008383 92.690678 149.601766 
C 92.690678 150.195148 92.926431 150.764307 93.346016 151.183892 
C 93.765601 151.603477 94.33476 151.83923 94.928142 151.83923 
z
" clip-path="url(#p379e93e278)" style="stroke: #000000"/>
    <path d="M 91.02337 144.489842 
C 91.717065 144.489842 92.382443 144.214234 92.87296 143.723717 
C 93.363477 143.2332 93.639085 142.567822 93.639085 141.874127 
C 93.639085 141.180431 93.363477 140.515054 92.87296 140.024537 
C 92.382443 139.53402 91.717065 139.258411 91.02337 139.258411 
C 90.329674 139.258411 89.664297 139.53402 89.17378 140.024537 
C 88.683263 140.515054 88.407654 141.180431 88.407654 141.874127 
C 88.407654 142.567822 88.683263 143.2332 89.17378 143.723717 
C 89.664297 144.214234 90.329674 144.489842 91.02337 144.489842 
z
" clip-path="url(#p379e93e278)" style="stroke: #000000"/>
    <path d="M 82.496118 135.697131 
C 83.029605 135.697131 83.541314 135.485174 83.918546 135.107942 
C 84.295778 134.73071 84.507735 134.219001 84.507735 133.685514 
C 84.507735 133.152027 84.295778 132.640318 83.918546 132.263086 
C 83.541314 131.885854 83.029605 131.673897 82.496118 131.673897 
C 81.962631 131.673897 81.450922 131.885854 81.07369 132.263086 
C 80.696457 132.640318 80.484501 133.152027 80.484501 133.685514 
C 80.484501 134.219001 80.696457 134.73071 81.07369 135.107942 
C 81.450922 135.485174 81.962631 135.697131 82.496118 135.697131 
z
" clip-path="url(#p379e93e278)" style="stroke: #000000"/>
    <path d="M 86.103442 122.553925 
C 86.808876 122.553925 87.485513 122.273653 87.98433 121.774835 
C 88.483148 121.276018 88.76342 120.599381 88.76342 119.893946 
C 88.76342 119.188512 88.483148 118.511875 87.98433 118.013058 
C 87.485513 117.51424 86.808876 117.233968 86.103442 117.233968 
C 85.398007 117.233968 84.72137 117.51424 84.222553 118.013058 
C 83.723735 118.511875 83.443463 119.188512 83.443463 119.893946 
C 83.443463 120.599381 83.723735 121.276018 84.222553 121.774835 
C 84.72137 122.273653 85.398007 122.553925 86.103442 122.553925 
z
" clip-path="url(#p379e93e278)" style="stroke: #000000"/>
    <path d="M 77.13128 110.03284 
C 77.836715 110.03284 78.513351 109.752568 79.012169 109.253751 
C 79.510986 108.754933 79.791259 108.078296 79.791259 107.372862 
C 79.791259 106.667427 79.510986 105.99079 79.012169 105.491973 
C 78.513351 104.993155 77.836715 104.712883 77.13128 104.712883 
C 76.425845 104.712883 75.749209 104.993155 75.250391 105.491973 
C 74.751574 105.99079 74.471301 106.667427 74.471301 107.372862 
C 74.471301 108.078296 74.751574 108.754933 75.250391 109.253751 
C 75.749209 109.752568 76.425845 110.03284 77.13128 110.03284 
z
" clip-path="url(#p379e93e278)" style="stroke: #000000"/>
    <path d="M 77.96754 101.501671 
C 78.672974 101.501671 79.349611 101.221398 79.848429 100.722581 
C 80.347246 100.223763 80.627518 99.547127 80.627518 98.841692 
C 80.627518 98.136257 80.347246 97.459621 79.848429 96.960803 
C 79.349611 96.461986 78.672974 96.181713 77.96754 96.181713 
C 77.262105 96.181713 76.585469 96.461986 76.086651 96.960803 
C 75.587833 97.459621 75.307561 98.136257 75.307561 98.841692 
C 75.307561 99.547127 75.587833 100.223763 76.086651 100.722581 
C 76.585469 101.221398 77.262105 101.501671 77.96754 101.501671 
z
" clip-path="url(#p379e93e278)" style="stroke: #000000"/>
    <path d="M 72.619707 94.185563 
C 73.238751 94.185563 73.832525 93.939614 74.270256 93.501884 
C 74.707986 93.064153 74.953935 92.470379 74.953935 91.851335 
C 74.953935 91.23229 74.707986 90.638516 74.270256 90.200786 
C 73.832525 89.763055 73.238751 89.517106 72.619707 89.517106 
C 72.000662 89.517106 71.406888 89.763055 70.969158 90.200786 
C 70.531427 90.638516 70.285478 91.23229 70.285478 91.851335 
C 70.285478 92.470379 70.531427 93.064153 70.969158 93.501884 
C 71.406888 93.939614 72.000662 94.185563 72.619707 94.185563 
z
" clip-path="url(#p379e93e278)" style="stroke: #000000"/>
    <path d="M 73.260253 84.945711 
C 73.965687 84.945711 74.642324 84.665439 75.141142 84.166621 
C 75.639959 83.667804 75.920231 82.991167 75.920231 82.285733 
C 75.920231 81.580298 75.639959 80.903661 75.141142 80.404844 
C 74.642324 79.906026 73.965687 79.625754 73.260253 79.625754 
C 72.554818 79.625754 71.878181 79.906026 71.379364 80.404844 
C 70.880546 80.903661 70.600274 81.580298 70.600274 82.285733 
C 70.600274 82.991167 70.880546 83.667804 71.379364 84.166621 
C 71.878181 84.665439 72.554818 84.945711 73.260253 84.945711 
z
" clip-path="url(#p379e93e278)" style="stroke: #000000"/>
    <path d="M 63.982717 59.154316 
C 64.57573 59.154316 65.144533 58.91871 65.563856 58.499387 
C 65.983179 58.080064 66.218785 57.51126 66.218785 56.918248 
C 66.218785 56.325236 65.983179 55.756432 65.563856 55.337109 
C 65.144533 54.917786 64.57573 54.68218 63.982717 54.68218 
C 63.389705 54.68218 62.820902 54.917786 62.401579 55.337109 
C 61.982256 55.756432 61.746649 56.325236 61.746649 56.918248 
C 61.746649 57.51126 61.982256 58.080064 62.401579 58.499387 
C 62.820902 58.91871 63.389705 59.154316 63.982717 59.154316 
z
" clip-path="url(#p379e93e278)" style="stroke: #000000"/>
    <path d="M 75.851835 134.210855 
C 76.444847 134.210855 77.01365 133.975249 77.432973 133.555926 
C 77.852296 133.136603 78.087903 132.567799 78.087903 131.974787 
C 78.087903 131.381775 77.852296 130.812971 77.432973 130.393648 
C 77.01365 129.974325 76.444847 129.738719 75.851835 129.738719 
C 75.258822 129.738719 74.690019 129.974325 74.270696 130.393648 
C 73.851373 130.812971 73.615767 131.381775 73.615767 131.974787 
C 73.615767 132.567799 73.851373 133.136603 74.270696 133.555926 
C 74.690019 133.975249 75.258822 134.210855 75.851835 134.210855 
z
" clip-path="url(#p379e93e278)" style="stroke: #000000"/>
    <path d="M 66.500682 104.33231 
C 66.633284 104.33231 66.760472 104.279626 66.854235 104.185863 
C 66.947999 104.0921 67.000682 103.964911 67.000682 103.83231 
C 67.000682 103.699708 66.947999 103.57252 66.854235 103.478756 
C 66.760472 103.384993 66.633284 103.33231 66.500682 103.33231 
C 66.36808 103.33231 66.240892 103.384993 66.147129 103.478756 
C 66.053365 103.57252 66.000682 103.699708 66.000682 103.83231 
C 66.000682 103.964911 66.053365 104.0921 66.147129 104.185863 
C 66.240892 104.279626 66.36808 104.33231 66.500682 104.33231 
z
" clip-path="url(#p379e93e278)" style="stroke: #000000"/>
    <path d="M 61.245077 97.441572 
C 61.849959 97.441572 62.430148 97.20125 62.857864 96.773534 
C 63.28558 96.345818 63.525902 95.765629 63.525902 95.160747 
C 63.525902 94.555865 63.28558 93.975676 62.857864 93.54796 
C 62.430148 93.120244 61.849959 92.879922 61.245077 92.879922 
C 60.640195 92.879922 60.060007 93.120244 59.63229 93.54796 
C 59.204574 93.975676 58.964252 94.555865 58.964252 95.160747 
C 58.964252 95.765629 59.204574 96.345818 59.63229 96.773534 
C 60.060007 97.20125 60.640195 97.441572 61.245077 97.441572 
z
" clip-path="url(#p379e93e278)" style="stroke: #000000"/>
    <path d="M 60.161563 87.590823 
C 60.866998 87.590823 61.543635 87.310551 62.042452 86.811734 
C 62.54127 86.312916 62.821542 85.636279 62.821542 84.930845 
C 62.821542 84.22541 62.54127 83.548774 62.042452 83.049956 
C 61.543635 82.551138 60.866998 82.270866 60.161563 82.270866 
C 59.456129 82.270866 58.779492 82.551138 58.280675 83.049956 
C 57.781857 83.548774 57.501585 84.22541 57.501585 84.930845 
C 57.501585 85.636279 57.781857 86.312916 58.280675 86.811734 
C 58.779492 87.310551 59.456129 87.590823 60.161563 87.590823 
z
" clip-path="url(#p379e93e278)" style="stroke: #000000"/>
    <path d="M 45.448647 54.249049 
C 45.581249 54.249049 45.708437 54.196366 45.802201 54.102603 
C 45.895964 54.008839 45.948647 53.881651 45.948647 53.749049 
C 45.948647 53.616448 45.895964 53.489259 45.802201 53.395496 
C 45.708437 53.301732 45.581249 53.249049 45.448647 53.249049 
C 45.316046 53.249049 45.188857 53.301732 45.095094 53.395496 
C 45.00133 53.489259 44.948647 53.616448 44.948647 53.749049 
C 44.948647 53.881651 45.00133 54.008839 45.095094 54.102603 
C 45.188857 54.196366 45.316046 54.249049 45.448647 54.249049 
z
" clip-path="url(#p379e93e278)" style="stroke: #000000"/>
    <path d="M 67.213407 139.65901 
C 67.918842 139.65901 68.595478 139.378738 69.094296 138.87992 
C 69.593113 138.381103 69.873386 137.704466 69.873386 136.999031 
C 69.873386 136.293597 69.593113 135.61696 69.094296 135.118143 
C 68.595478 134.619325 67.918842 134.339053 67.213407 134.339053 
C 66.507972 134.339053 65.831336 134.619325 65.332518 135.118143 
C 64.833701 135.61696 64.553428 136.293597 64.553428 136.999031 
C 64.553428 137.704466 64.833701 138.381103 65.332518 138.87992 
C 65.831336 139.378738 66.507972 139.65901 67.213407 139.65901 
z
" clip-path="url(#p379e93e278)" style="stroke: #000000"/>
    <path d="M 60.087019 132.280987 
C 60.792454 132.280987 61.46909 132.000715 61.967908 131.501898 
C 62.466725 131.00308 62.746998 130.326443 62.746998 129.621009 
C 62.746998 128.915574 62.466725 128.238937 61.967908 127.74012 
C 61.46909 127.241302 60.792454 126.96103 60.087019 126.96103 
C 59.381584 126.96103 58.704948 127.241302 58.20613 127.74012 
C 57.707313 128.238937 57.42704 128.915574 57.42704 129.621009 
C 57.42704 130.326443 57.707313 131.00308 58.20613 131.501898 
C 58.704948 132.000715 59.381584 132.280987 60.087019 132.280987 
z
" clip-path="url(#p379e93e278)" style="stroke: #000000"/>
    <path d="M 58.993056 116.462911 
C 59.530072 116.462911 60.045164 116.249552 60.424892 115.869825 
C 60.804619 115.490098 61.017977 114.975005 61.017977 114.43799 
C 61.017977 113.900975 60.804619 113.385882 60.424892 113.006155 
C 60.045164 112.626427 59.530072 112.413069 58.993056 112.413069 
C 58.456041 112.413069 57.940948 112.626427 57.561221 113.006155 
C 57.181494 113.385882 56.968135 113.900975 56.968135 114.43799 
C 56.968135 114.975005 57.181494 115.490098 57.561221 115.869825 
C 57.940948 116.249552 58.456041 116.462911 58.993056 116.462911 
z
" clip-path="url(#p379e93e278)" style="stroke: #000000"/>
    <path d="M 48.64347 95.696462 
C 49.347801 95.696462 50.023379 95.416629 50.521417 94.918591 
C 51.019454 94.420554 51.299288 93.744976 51.299288 93.040645 
C 51.299288 92.336313 51.019454 91.660735 50.521417 91.162698 
C 50.023379 90.66466 49.347801 90.384827 48.64347 90.384827 
C 47.939139 90.384827 47.263561 90.66466 46.765523 91.162698 
C 46.267486 91.660735 45.987652 92.336313 45.987652 93.040645 
C 45.987652 93.744976 46.267486 94.420554 46.765523 94.918591 
C 47.263561 95.416629 47.939139 95.696462 48.64347 95.696462 
z
" clip-path="url(#p379e93e278)" style="stroke: #000000"/>
    <path d="M 47.004396 88.330073 
C 47.597778 88.330073 48.166937 88.09432 48.586522 87.674735 
C 49.006106 87.25515 49.24186 86.685992 49.24186 86.092609 
C 49.24186 85.499227 49.006106 84.930068 48.586522 84.510483 
C 48.166937 84.090898 47.597778 83.855145 47.004396 83.855145 
C 46.411013 83.855145 45.841854 84.090898 45.422269 84.510483 
C 45.002685 84.930068 44.766931 85.499227 44.766931 86.092609 
C 44.766931 86.685992 45.002685 87.25515 45.422269 87.674735 
C 45.841854 88.09432 46.411013 88.330073 47.004396 88.330073 
z
" clip-path="url(#p379e93e278)" style="stroke: #000000"/>
    <path d="M 39.078823 78.247238 
C 39.629761 78.247238 40.158208 78.028348 40.54778 77.638776 
C 40.937352 77.249205 41.156242 76.720757 41.156242 76.169819 
C 41.156242 75.618882 40.937352 75.090434 40.54778 74.700863 
C 40.158208 74.311291 39.629761 74.092401 39.078823 74.092401 
C 38.527885 74.092401 37.999438 74.311291 37.609866 74.700863 
C 37.220294 75.090434 37.001404 75.618882 37.001404 76.169819 
C 37.001404 76.720757 37.220294 77.249205 37.609866 77.638776 
C 37.999438 78.028348 38.527885 78.247238 39.078823 78.247238 
z
" clip-path="url(#p379e93e278)" style="stroke: #000000"/>
    <path d="M 67.306816 173.035468 
C 67.847291 173.035468 68.365703 172.820734 68.747877 172.438561 
C 69.130051 172.056387 69.344784 171.537975 69.344784 170.9975 
C 69.344784 170.457025 69.130051 169.938613 68.747877 169.556439 
C 68.365703 169.174265 67.847291 168.959532 67.306816 168.959532 
C 66.766341 168.959532 66.247929 169.174265 65.865755 169.556439 
C 65.483582 169.938613 65.268849 170.457025 65.268849 170.9975 
C 65.268849 171.537975 65.483582 172.056387 65.865755 172.438561 
C 66.247929 172.820734 66.766341 173.035468 67.306816 173.035468 
z
" clip-path="url(#p379e93e278)" style="stroke: #000000"/>
    <path d="M 56.795638 154.479387 
C 57.388651 154.479387 57.957454 154.243781 58.376777 153.824458 
C 58.7961 153.405135 59.031706 152.836331 59.031706 152.243319 
C 59.031706 151.650307 58.7961 151.081503 58.376777 150.66218 
C 57.957454 150.242857 57.388651 150.007251 56.795638 150.007251 
C 56.202626 150.007251 55.633823 150.242857 55.2145 150.66218 
C 54.795177 151.081503 54.559571 151.650307 54.559571 152.243319 
C 54.559571 152.836331 54.795177 153.405135 55.2145 153.824458 
C 55.633823 154.243781 56.202626 154.479387 56.795638 154.479387 
z
" clip-path="url(#p379e93e278)" style="stroke: #000000"/>
    <path d="M 49.486676 140.486209 
C 50.094333 140.486209 50.677183 140.244784 51.106861 139.815106 
C 51.536539 139.385428 51.777964 138.802578 51.777964 138.194921 
C 51.777964 137.587264 51.536539 137.004414 51.106861 136.574736 
C 50.677183 136.145058 50.094333 135.903633 49.486676 135.903633 
C 48.879019 135.903633 48.296169 136.145058 47.866491 136.574736 
C 47.436813 137.004414 47.195388 137.587264 47.195388 138.194921 
C 47.195388 138.802578 47.436813 139.385428 47.866491 139.815106 
C 48.296169 140.244784 48.879019 140.486209 49.486676 140.486209 
z
" clip-path="url(#p379e93e278)" style="stroke: #000000"/>
    <path d="M 44.970759 120.751903 
C 45.563771 120.751903 46.132575 120.516296 46.551898 120.096973 
C 46.97122 119.677651 47.206827 119.108847 47.206827 118.515835 
C 47.206827 117.922822 46.97122 117.354019 46.551898 116.934696 
C 46.132575 116.515373 45.563771 116.279767 44.970759 116.279767 
C 44.377747 116.279767 43.808943 116.515373 43.38962 116.934696 
C 42.970297 117.354019 42.734691 117.922822 42.734691 118.515835 
C 42.734691 119.108847 42.970297 119.677651 43.38962 120.096973 
C 43.808943 120.516296 44.377747 120.751903 44.970759 120.751903 
z
" clip-path="url(#p379e93e278)" style="stroke: #000000"/>
    <path d="M 34.800361 92.017087 
C 35.393744 92.017087 35.962903 91.781334 36.382487 91.361749 
C 36.802072 90.942164 37.037825 90.373005 37.037825 89.779623 
C 37.037825 89.18624 36.802072 88.617081 36.382487 88.197497 
C 35.962903 87.777912 35.393744 87.542159 34.800361 87.542159 
C 34.206979 87.542159 33.63782 87.777912 33.218235 88.197497 
C 32.79865 88.617081 32.562897 89.18624 32.562897 89.779623 
C 32.562897 90.373005 32.79865 90.942164 33.218235 91.361749 
C 33.63782 91.781334 34.206979 92.017087 34.800361 92.017087 
z
" clip-path="url(#p379e93e278)" style="stroke: #000000"/>
    <path d="M 34.033423 81.870054 
C 34.54411 81.870054 35.033949 81.667156 35.395058 81.306046 
C 35.756168 80.944936 35.959066 80.455098 35.959066 79.944411 
C 35.959066 79.433725 35.756168 78.943886 35.395058 78.582776 
C 35.033949 78.221667 34.54411 78.018769 34.033423 78.018769 
C 33.522737 78.018769 33.032898 78.221667 32.671789 78.582776 
C 32.310679 78.943886 32.107781 79.433725 32.107781 79.944411 
C 32.107781 80.455098 32.310679 80.944936 32.671789 81.306046 
C 33.032898 81.667156 33.522737 81.870054 34.033423 81.870054 
z
" clip-path="url(#p379e93e278)" style="stroke: #000000"/>
    <path d="M 50.700238 164.668204 
C 51.293621 164.668204 51.86278 164.432451 52.282364 164.012866 
C 52.701949 163.593281 52.937703 163.024122 52.937703 162.43074 
C 52.937703 161.837357 52.701949 161.268198 52.282364 160.848614 
C 51.86278 160.429029 51.293621 160.193276 50.700238 160.193276 
C 50.106856 160.193276 49.537697 160.429029 49.118112 160.848614 
C 48.698527 161.268198 48.462774 161.837357 48.462774 162.43074 
C 48.462774 163.024122 48.698527 163.593281 49.118112 164.012866 
C 49.537697 164.432451 50.106856 164.668204 50.700238 164.668204 
z
" clip-path="url(#p379e93e278)" style="stroke: #000000"/>
    <path d="M 42.214328 138.176781 
C 42.807341 138.176781 43.376144 137.941175 43.795467 137.521852 
C 44.21479 137.102529 44.450396 136.533725 44.450396 135.940713 
C 44.450396 135.347701 44.21479 134.778897 43.795467 134.359574 
C 43.376144 133.940251 42.807341 133.704645 42.214328 133.704645 
C 41.621316 133.704645 41.052513 133.940251 40.63319 134.359574 
C 40.213867 134.778897 39.97826 135.347701 39.97826 135.940713 
C 39.97826 136.533725 40.213867 137.102529 40.63319 137.521852 
C 41.052513 137.941175 41.621316 138.176781 42.214328 138.176781 
z
" clip-path="url(#p379e93e278)" style="stroke: #000000"/>
    <path d="M 34.200141 150.510058 
C 34.718765 150.510058 35.216217 150.304006 35.582939 149.937284 
C 35.949662 149.570561 36.155713 149.073109 36.155713 148.554485 
C 36.155713 148.035861 35.949662 147.538409 35.582939 147.171686 
C 35.216217 146.804964 34.718765 146.598912 34.200141 146.598912 
C 33.681517 146.598912 33.184064 146.804964 32.817342 147.171686 
C 32.450619 147.538409 32.244568 148.035861 32.244568 148.554485 
C 32.244568 149.073109 32.450619 149.570561 32.817342 149.937284 
C 33.184064 150.304006 33.681517 150.510058 34.200141 150.510058 
z
" clip-path="url(#p379e93e278)" style="stroke: #000000"/>
   </g>
   <g id="matplotlib.axis_1">
    <g id="xtick_1">
     <g id="line2d_1">
      <defs>
       <path id="m044693c315" d="M 0 0 
L 0 3.5 
" style="stroke: #000000; stroke-width: 0.8"/>
      </defs>
      <g>
       <use xlink:href="#m044693c315" x="18" y="189" style="stroke: #000000; stroke-width: 0.8"/>
      </g>
     </g>
     <g id="text_1">
      <!-- −10 -->
      <g transform="translate(7.447656 203.598437)scale(0.1 -0.1)">
       <defs>
        <path id="DejaVuSans-2212" d="M 678 2272 
L 4684 2272 
L 4684 1741 
L 678 1741 
L 678 2272 
z
" transform="scale(0.015625)"/>
        <path id="DejaVuSans-31" d="M 794 531 
L 1825 531 
L 1825 4091 
L 703 3866 
L 703 4441 
L 1819 4666 
L 2450 4666 
L 2450 531 
L 3481 531 
L 3481 0 
L 794 0 
L 794 531 
z
" transform="scale(0.015625)"/>
        <path id="DejaVuSans-30" d="M 2034 4250 
Q 1547 4250 1301 3770 
Q 1056 3291 1056 2328 
Q 1056 1369 1301 889 
Q 1547 409 2034 409 
Q 2525 409 2770 889 
Q 3016 1369 3016 2328 
Q 3016 3291 2770 3770 
Q 2525 4250 2034 4250 
z
M 2034 4750 
Q 2819 4750 3233 4129 
Q 3647 3509 3647 2328 
Q 3647 1150 3233 529 
Q 2819 -91 2034 -91 
Q 1250 -91 836 529 
Q 422 1150 422 2328 
Q 422 3509 836 4129 
Q 1250 4750 2034 4750 
z
" transform="scale(0.015625)"/>
       </defs>
       <use xlink:href="#DejaVuSans-2212"/>
       <use xlink:href="#DejaVuSans-31" x="83.789062"/>
       <use xlink:href="#DejaVuSans-30" x="147.412109"/>
      </g>
     </g>
    </g>
    <g id="xtick_2">
     <g id="line2d_2">
      <g>
       <use xlink:href="#m044693c315" x="73.8" y="189" style="stroke: #000000; stroke-width: 0.8"/>
      </g>
     </g>
     <g id="text_2">
      <!-- 0 -->
      <g transform="translate(70.61875 203.598437)scale(0.1 -0.1)">
       <use xlink:href="#DejaVuSans-30"/>
      </g>
     </g>
    </g>
    <g id="xtick_3">
     <g id="line2d_3">
      <g>
       <use xlink:href="#m044693c315" x="129.6" y="189" style="stroke: #000000; stroke-width: 0.8"/>
      </g>
     </g>
     <g id="text_3">
      <!-- 10 -->
      <g transform="translate(123.2375 203.598437)scale(0.1 -0.1)">
       <use xlink:href="#DejaVuSans-31"/>
       <use xlink:href="#DejaVuSans-30" x="63.623047"/>
      </g>
     </g>
    </g>
   </g>
   <g id="matplotlib.axis_2">
    <g id="ytick_1">
     <g id="line2d_4">
      <defs>
       <path id="me33eb3448c" d="M 0 0 
L -3.5 0 
" style="stroke: #000000; stroke-width: 0.8"/>
      </defs>
      <g>
       <use xlink:href="#me33eb3448c" x="18" y="189" style="stroke: #000000; stroke-width: 0.8"/>
      </g>
     </g>
     <g id="text_4">
      <!-- −15 -->
      <g transform="translate(-10.104688 192.799219)scale(0.1 -0.1)">
       <defs>
        <path id="DejaVuSans-35" d="M 691 4666 
L 3169 4666 
L 3169 4134 
L 1269 4134 
L 1269 2991 
Q 1406 3038 1543 3061 
Q 1681 3084 1819 3084 
Q 2600 3084 3056 2656 
Q 3513 2228 3513 1497 
Q 3513 744 3044 326 
Q 2575 -91 1722 -91 
Q 1428 -91 1123 -41 
Q 819 9 494 109 
L 494 744 
Q 775 591 1075 516 
Q 1375 441 1709 441 
Q 2250 441 2565 725 
Q 2881 1009 2881 1497 
Q 2881 1984 2565 2268 
Q 2250 2553 1709 2553 
Q 1456 2553 1204 2497 
Q 953 2441 691 2322 
L 691 4666 
z
" transform="scale(0.015625)"/>
       </defs>
       <use xlink:href="#DejaVuSans-2212"/>
       <use xlink:href="#DejaVuSans-31" x="83.789062"/>
       <use xlink:href="#DejaVuSans-35" x="147.412109"/>
      </g>
     </g>
    </g>
    <g id="ytick_2">
     <g id="line2d_5">
      <g>
       <use xlink:href="#me33eb3448c" x="18" y="161.82" style="stroke: #000000; stroke-width: 0.8"/>
      </g>
     </g>
     <g id="text_5">
      <!-- −10 -->
      <g transform="translate(-10.104688 165.619219)scale(0.1 -0.1)">
       <use xlink:href="#DejaVuSans-2212"/>
       <use xlink:href="#DejaVuSans-31" x="83.789062"/>
       <use xlink:href="#DejaVuSans-30" x="147.412109"/>
      </g>
     </g>
    </g>
    <g id="ytick_3">
     <g id="line2d_6">
      <g>
       <use xlink:href="#me33eb3448c" x="18" y="134.64" style="stroke: #000000; stroke-width: 0.8"/>
      </g>
     </g>
     <g id="text_6">
      <!-- −5 -->
      <g transform="translate(-3.742188 138.439219)scale(0.1 -0.1)">
       <use xlink:href="#DejaVuSans-2212"/>
       <use xlink:href="#DejaVuSans-35" x="83.789062"/>
      </g>
     </g>
    </g>
    <g id="ytick_4">
     <g id="line2d_7">
      <g>
       <use xlink:href="#me33eb3448c" x="18" y="107.46" style="stroke: #000000; stroke-width: 0.8"/>
      </g>
     </g>
     <g id="text_7">
      <!-- 0 -->
      <g transform="translate(4.6375 111.259219)scale(0.1 -0.1)">
       <use xlink:href="#DejaVuSans-30"/>
      </g>
     </g>
    </g>
    <g id="ytick_5">
     <g id="line2d_8">
      <g>
       <use xlink:href="#me33eb3448c" x="18" y="80.28" style="stroke: #000000; stroke-width: 0.8"/>
      </g>
     </g>
     <g id="text_8">
      <!-- 5 -->
      <g transform="translate(4.6375 84.079219)scale(0.1 -0.1)">
       <use xlink:href="#DejaVuSans-35"/>
      </g>
     </g>
    </g>
    <g id="ytick_6">
     <g id="line2d_9">
      <g>
       <use xlink:href="#me33eb3448c" x="18" y="53.1" style="stroke: #000000; stroke-width: 0.8"/>
      </g>
     </g>
     <g id="text_9">
      <!-- 10 -->
      <g transform="translate(-1.725 56.899219)scale(0.1 -0.1)">
       <use xlink:href="#DejaVuSans-31"/>
       <use xlink:href="#DejaVuSans-30" x="63.623047"/>
      </g>
     </g>
    </g>
    <g id="ytick_7">
     <g id="line2d_10">
      <g>
       <use xlink:href="#me33eb3448c" x="18" y="25.92" style="stroke: #000000; stroke-width: 0.8"/>
      </g>
     </g>
     <g id="text_10">
      <!-- 15 -->
      <g transform="translate(-1.725 29.719219)scale(0.1 -0.1)">
       <use xlink:href="#DejaVuSans-31"/>
       <use xlink:href="#DejaVuSans-35" x="63.623047"/>
      </g>
     </g>
    </g>
   </g>
   <g id="patch_3">
    <path d="M 18 189 
L 18 25.92 
" style="fill: none; stroke: #000000; stroke-width: 0.8; stroke-linejoin: miter; stroke-linecap: square"/>
   </g>
   <g id="patch_4">
    <path d="M 129.6 189 
L 129.6 25.92 
" style="fill: none; stroke: #000000; stroke-width: 0.8; stroke-linejoin: miter; stroke-linecap: square"/>
   </g>
   <g id="patch_5">
    <path d="M 18 189 
L 129.6 189 
" style="fill: none; stroke: #000000; stroke-width: 0.8; stroke-linejoin: miter; stroke-linecap: square"/>
   </g>
   <g id="patch_6">
    <path d="M 18 25.92 
L 129.6 25.92 
" style="fill: none; stroke: #000000; stroke-width: 0.8; stroke-linejoin: miter; stroke-linecap: square"/>
   </g>
  </g>
 </g>
 <defs>
  <clipPath id="p379e93e278">
   <rect x="18" y="25.92" width="111.6" height="163.08"/>
  </clipPath>
 </defs>
</svg>
