<?xml version="1.0" encoding="utf-8" standalone="no"?>
<!DOCTYPE svg PUBLIC "-//W3C//DTD SVG 1.1//EN"
  "http://www.w3.org/Graphics/SVG/1.1/DTD/svg11.dtd">
<svg xmlns:xlink="http://www.w3.org/1999/xlink" width="144pt" height="216pt" viewBox="0 0 144 216" xmlns="http://www.w3.org/2000/svg" version="1.1">
 <metadata>
  <rdf:RDF xmlns:dc="http://purl.org/dc/elements/1.1/" xmlns:cc="http://creativecommons.org/ns#" xmlns:rdf="http://www.w3.org/1999/02/22-rdf-syntax-ns#">
   <cc:Work>
    <dc:type rdf:resource="http://purl.org/dc/dcmitype/StillImage"/>
    <dc:date>2022-06-22T17:24:07.153843</dc:date>
    <dc:format>image/svg+xml</dc:format>
    <dc:creator>
     <cc:Agent>
      <dc:title>Matplotlib v3.5.1, https://matplotlib.org/</dc:title>
     </cc:Agent>
    </dc:creator>
   </cc:Work>
  </rdf:RDF>
 </metadata>
 <defs>
  <style type="text/css">*{stroke-linejoin: round; stroke-linecap: butt}</style>
 </defs>
 <g id="figure_1">
  <g id="patch_1">
   <path d="M 0 216 
L 144 216 
L 144 0 
L 0 0 
L 0 216 
z
" style="fill: none"/>
  </g>
  <g id="axes_1">
   <g id="patch_2">
    <path d="M 18 189 
L 129.6 189 
L 129.6 25.92 
L 18 25.92 
z
" style="fill: #ffffff"/>
   </g>
   <g id="PathCollection_1">
    <defs>
     <path id="mffaa9c5658" d="M 0 2.738613 
C 0.726289 2.738613 1.422928 2.450055 1.936492 1.936492 
C 2.450055 1.422928 2.738613 0.726289 2.738613 0 
C 2.738613 -0.726289 2.450055 -1.422928 1.936492 -1.936492 
C 1.422928 -2.450055 0.726289 -2.738613 0 -2.738613 
C -0.726289 -2.738613 -1.422928 -2.450055 -1.936492 -1.936492 
C -2.450055 -1.422928 -2.738613 -0.726289 -2.738613 0 
C -2.738613 0.726289 -2.450055 1.422928 -1.936492 1.936492 
C -1.422928 2.450055 -0.726289 2.738613 0 2.738613 
z
" style="stroke: #ff0000; stroke-width: 1.75"/>
    </defs>
    <g clip-path="url(#pf0616d865c)">
     <use xlink:href="#mffaa9c5658" x="66.825" y="83.92143" style="fill: #ff0000; stroke: #ff0000; stroke-width: 1.75"/>
     <use xlink:href="#mffaa9c5658" x="87.75" y="95.690715" style="fill: #ff0000; stroke: #ff0000; stroke-width: 1.75"/>
     <use xlink:href="#mffaa9c5658" x="66.825" y="107.46" style="fill: #ff0000; stroke: #ff0000; stroke-width: 1.75"/>
     <use xlink:href="#mffaa9c5658" x="73.8" y="119.229285" style="fill: #ff0000; stroke: #ff0000; stroke-width: 1.75"/>
     <use xlink:href="#mffaa9c5658" x="87.75" y="119.229285" style="fill: #ff0000; stroke: #ff0000; stroke-width: 1.75"/>
     <use xlink:href="#mffaa9c5658" x="66.825" y="130.99857" style="fill: #ff0000; stroke: #ff0000; stroke-width: 1.75"/>
     <use xlink:href="#mffaa9c5658" x="80.775" y="130.99857" style="fill: #ff0000; stroke: #ff0000; stroke-width: 1.75"/>
    </g>
   </g>
   <g id="PathCollection_2">
    <defs>
     <path id="C0_0_1cf3af0084" d="M 0 2.738613 
C 0.726289 2.738613 1.422928 2.450055 1.936492 1.936492 
C 2.450055 1.422928 2.738613 0.726289 2.738613 -0 
C 2.738613 -0.726289 2.450055 -1.422928 1.936492 -1.936492 
C 1.422928 -2.450055 0.726289 -2.738613 0 -2.738613 
C -0.726289 -2.738613 -1.422928 -2.450055 -1.936492 -1.936492 
C -2.450055 -1.422928 -2.738613 -0.726289 -2.738613 0 
C -2.738613 0.726289 -2.450055 1.422928 -1.936492 1.936492 
C -1.422928 2.450055 -0.726289 2.738613 0 2.738613 
z
"/>
    </defs>
    <g clip-path="url(#pf0616d865c)">
     <use xlink:href="#C0_0_1cf3af0084" x="80.775" y="83.92143" style="fill: none; stroke: #ff0000; stroke-width: 1.75"/>
    </g>
    <g clip-path="url(#pf0616d865c)">
     <use xlink:href="#C0_0_1cf3af0084" x="59.85" y="95.690715" style="fill: none; stroke: #ff0000; stroke-width: 1.75"/>
    </g>
    <g clip-path="url(#pf0616d865c)">
     <use xlink:href="#C0_0_1cf3af0084" x="73.8" y="95.690715" style="fill: none; stroke: #ff0000; stroke-width: 1.75"/>
    </g>
    <g clip-path="url(#pf0616d865c)">
     <use xlink:href="#C0_0_1cf3af0084" x="52.875" y="107.46" style="fill: none; stroke: #ff0000; stroke-width: 1.75"/>
    </g>
    <g clip-path="url(#pf0616d865c)">
     <use xlink:href="#C0_0_1cf3af0084" x="80.775" y="107.46" style="fill: none; stroke: #ff0000; stroke-width: 1.75"/>
    </g>
    <g clip-path="url(#pf0616d865c)">
     <use xlink:href="#C0_0_1cf3af0084" x="94.725" y="107.46" style="fill: none; stroke: #ff0000; stroke-width: 1.75"/>
    </g>
    <g clip-path="url(#pf0616d865c)">
     <use xlink:href="#C0_0_1cf3af0084" x="59.85" y="119.229285" style="fill: none; stroke: #ff0000; stroke-width: 1.75"/>
    </g>
   </g>
   <g id="PathCollection_3">
    <path d="M 113.914 124.335022 
C 113.914 124.335022 113.914 124.335022 113.914 124.335022 
C 113.914 124.335022 113.914 124.335022 113.914 124.335022 
C 113.914 124.335022 113.914 124.335022 113.914 124.335022 
C 113.914 124.335022 113.914 124.335022 113.914 124.335022 
C 113.914 124.335022 113.914 124.335022 113.914 124.335022 
C 113.914 124.335022 113.914 124.335022 113.914 124.335022 
C 113.914 124.335022 113.914 124.335022 113.914 124.335022 
C 113.914 124.335022 113.914 124.335022 113.914 124.335022 
z
" clip-path="url(#pf0616d865c)" style="stroke: #000000"/>
    <path d="M 114.823844 112.77401 
C 114.823844 112.77401 114.823844 112.77401 114.823844 112.77401 
C 114.823844 112.77401 114.823844 112.77401 114.823844 112.77401 
C 114.823844 112.77401 114.823844 112.77401 114.823844 112.77401 
C 114.823844 112.77401 114.823844 112.77401 114.823844 112.77401 
C 114.823844 112.77401 114.823844 112.77401 114.823844 112.77401 
C 114.823844 112.77401 114.823844 112.77401 114.823844 112.77401 
C 114.823844 112.77401 114.823844 112.77401 114.823844 112.77401 
C 114.823844 112.77401 114.823844 112.77401 114.823844 112.77401 
z
" clip-path="url(#pf0616d865c)" style="stroke: #000000"/>
    <path d="M 106.487565 102.380565 
C 106.487565 102.380565 106.487565 102.380565 106.487565 102.380565 
C 106.487565 102.380565 106.487565 102.380565 106.487565 102.380565 
C 106.487565 102.380565 106.487565 102.380565 106.487565 102.380565 
C 106.487565 102.380565 106.487565 102.380565 106.487565 102.380565 
C 106.487565 102.380565 106.487565 102.380565 106.487565 102.380565 
C 106.487565 102.380565 106.487565 102.380565 106.487565 102.380565 
C 106.487565 102.380565 106.487565 102.380565 106.487565 102.380565 
C 106.487565 102.380565 106.487565 102.380565 106.487565 102.380565 
z
" clip-path="url(#pf0616d865c)" style="stroke: #000000"/>
    <path d="M 110.092447 88.034106 
C 110.510981 88.034106 110.91243 87.86782 111.208379 87.571872 
C 111.504327 87.275923 111.670613 86.874475 111.670613 86.45594 
C 111.670613 86.037406 111.504327 85.635957 111.208379 85.340008 
C 110.91243 85.04406 110.510981 84.877774 110.092447 84.877774 
C 109.673913 84.877774 109.272464 85.04406 108.976515 85.340008 
C 108.680567 85.635957 108.514281 86.037406 108.514281 86.45594 
C 108.514281 86.874475 108.680567 87.275923 108.976515 87.571872 
C 109.272464 87.86782 109.673913 88.034106 110.092447 88.034106 
z
" clip-path="url(#pf0616d865c)" style="stroke: #000000"/>
    <path d="M 104.045718 79.83834 
C 104.045718 79.83834 104.045718 79.83834 104.045718 79.83834 
C 104.045718 79.83834 104.045718 79.83834 104.045718 79.83834 
C 104.045718 79.83834 104.045718 79.83834 104.045718 79.83834 
C 104.045718 79.83834 104.045718 79.83834 104.045718 79.83834 
C 104.045718 79.83834 104.045718 79.83834 104.045718 79.83834 
C 104.045718 79.83834 104.045718 79.83834 104.045718 79.83834 
C 104.045718 79.83834 104.045718 79.83834 104.045718 79.83834 
C 104.045718 79.83834 104.045718 79.83834 104.045718 79.83834 
z
" clip-path="url(#pf0616d865c)" style="stroke: #000000"/>
    <path d="M 101.870554 72.371564 
C 102.289877 72.371564 102.692081 72.204965 102.988588 71.908459 
C 103.285094 71.611953 103.451692 71.209748 103.451692 70.790425 
C 103.451692 70.371102 103.285094 69.968897 102.988588 69.672391 
C 102.692081 69.375885 102.289877 69.209286 101.870554 69.209286 
C 101.451231 69.209286 101.049026 69.375885 100.75252 69.672391 
C 100.456014 69.968897 100.289415 70.371102 100.289415 70.790425 
C 100.289415 71.209748 100.456014 71.611953 100.75252 71.908459 
C 101.049026 72.204965 101.451231 72.371564 101.870554 72.371564 
z
" clip-path="url(#pf0616d865c)" style="stroke: #000000"/>
    <path d="M 94.886379 56.64503 
C 95.187235 56.64503 95.475811 56.525498 95.688549 56.31276 
C 95.901287 56.100022 96.020818 55.811447 96.020818 55.51059 
C 96.020818 55.209733 95.901287 54.921158 95.688549 54.70842 
C 95.475811 54.495682 95.187235 54.37615 94.886379 54.37615 
C 94.585522 54.37615 94.296946 54.495682 94.084208 54.70842 
C 93.87147 54.921158 93.751939 55.209733 93.751939 55.51059 
C 93.751939 55.811447 93.87147 56.100022 94.084208 56.31276 
C 94.296946 56.525498 94.585522 56.64503 94.886379 56.64503 
z
" clip-path="url(#pf0616d865c)" style="stroke: #000000"/>
    <path d="M 90.073549 45.18209 
C 90.450421 45.18209 90.811908 45.032357 91.078396 44.765868 
C 91.344885 44.49938 91.494618 44.137893 91.494618 43.761021 
C 91.494618 43.384149 91.344885 43.022662 91.078396 42.756173 
C 90.811908 42.489685 90.450421 42.339952 90.073549 42.339952 
C 89.696677 42.339952 89.33519 42.489685 89.068701 42.756173 
C 88.802213 43.022662 88.65248 43.384149 88.65248 43.761021 
C 88.65248 44.137893 88.802213 44.49938 89.068701 44.765868 
C 89.33519 45.032357 89.696677 45.18209 90.073549 45.18209 
z
" clip-path="url(#pf0616d865c)" style="stroke: #000000"/>
    <path d="M 88.720199 36.577281 
C 88.720199 36.577281 88.720199 36.577281 88.720199 36.577281 
C 88.720199 36.577281 88.720199 36.577281 88.720199 36.577281 
C 88.720199 36.577281 88.720199 36.577281 88.720199 36.577281 
C 88.720199 36.577281 88.720199 36.577281 88.720199 36.577281 
C 88.720199 36.577281 88.720199 36.577281 88.720199 36.577281 
C 88.720199 36.577281 88.720199 36.577281 88.720199 36.577281 
C 88.720199 36.577281 88.720199 36.577281 88.720199 36.577281 
C 88.720199 36.577281 88.720199 36.577281 88.720199 36.577281 
z
" clip-path="url(#pf0616d865c)" style="stroke: #000000"/>
    <path d="M 86.403796 31.771074 
C 86.403796 31.771074 86.403796 31.771074 86.403796 31.771074 
C 86.403796 31.771074 86.403796 31.771074 86.403796 31.771074 
C 86.403796 31.771074 86.403796 31.771074 86.403796 31.771074 
C 86.403796 31.771074 86.403796 31.771074 86.403796 31.771074 
C 86.403796 31.771074 86.403796 31.771074 86.403796 31.771074 
C 86.403796 31.771074 86.403796 31.771074 86.403796 31.771074 
C 86.403796 31.771074 86.403796 31.771074 86.403796 31.771074 
C 86.403796 31.771074 86.403796 31.771074 86.403796 31.771074 
z
" clip-path="url(#pf0616d865c)" style="stroke: #000000"/>
    <path d="M 118.571663 167.482388 
C 118.571663 167.482388 118.571663 167.482388 118.571663 167.482388 
C 118.571663 167.482388 118.571663 167.482388 118.571663 167.482388 
C 118.571663 167.482388 118.571663 167.482388 118.571663 167.482388 
C 118.571663 167.482388 118.571663 167.482388 118.571663 167.482388 
C 118.571663 167.482388 118.571663 167.482388 118.571663 167.482388 
C 118.571663 167.482388 118.571663 167.482388 118.571663 167.482388 
C 118.571663 167.482388 118.571663 167.482388 118.571663 167.482388 
C 118.571663 167.482388 118.571663 167.482388 118.571663 167.482388 
z
" clip-path="url(#pf0616d865c)" style="stroke: #000000"/>
    <path d="M 118.27689 156.674931 
C 118.672529 156.674931 119.052016 156.517742 119.331775 156.237983 
C 119.611533 155.958225 119.768722 155.578737 119.768722 155.183099 
C 119.768722 154.787461 119.611533 154.407973 119.331775 154.128215 
C 119.052016 153.848456 118.672529 153.691267 118.27689 153.691267 
C 117.881252 153.691267 117.501765 153.848456 117.222006 154.128215 
C 116.942248 154.407973 116.785059 154.787461 116.785059 155.183099 
C 116.785059 155.578737 116.942248 155.958225 117.222006 156.237983 
C 117.501765 156.517742 117.881252 156.674931 118.27689 156.674931 
z
" clip-path="url(#pf0616d865c)" style="stroke: #000000"/>
    <path d="M 114.637184 148.160273 
C 115.056507 148.160273 115.458712 147.993675 115.755218 147.697168 
C 116.051724 147.400662 116.218323 146.998457 116.218323 146.579134 
C 116.218323 146.159812 116.051724 145.757607 115.755218 145.4611 
C 115.458712 145.164594 115.056507 144.997996 114.637184 144.997996 
C 114.217861 144.997996 113.815656 145.164594 113.51915 145.4611 
C 113.222644 145.757607 113.056045 146.159812 113.056045 146.579134 
C 113.056045 146.998457 113.222644 147.400662 113.51915 147.697168 
C 113.815656 147.993675 114.217861 148.160273 114.637184 148.160273 
z
" clip-path="url(#pf0616d865c)" style="stroke: #000000"/>
    <path d="M 109.322785 136.955413 
C 109.742108 136.955413 110.144313 136.788814 110.440819 136.492308 
C 110.737325 136.195802 110.903923 135.793597 110.903923 135.374274 
C 110.903923 134.954951 110.737325 134.552746 110.440819 134.25624 
C 110.144313 133.959734 109.742108 133.793135 109.322785 133.793135 
C 108.903462 133.793135 108.501257 133.959734 108.204751 134.25624 
C 107.908245 134.552746 107.741646 134.954951 107.741646 135.374274 
C 107.741646 135.793597 107.908245 136.195802 108.204751 136.492308 
C 108.501257 136.788814 108.903462 136.955413 109.322785 136.955413 
z
" clip-path="url(#pf0616d865c)" style="stroke: #000000"/>
    <path d="M 108.658717 123.497788 
C 109.078302 123.497788 109.480758 123.331085 109.777449 123.034394 
C 110.07414 122.737702 110.240843 122.335246 110.240843 121.915661 
C 110.240843 121.496077 110.07414 121.093621 109.777449 120.796929 
C 109.480758 120.500238 109.078302 120.333535 108.658717 120.333535 
C 108.239132 120.333535 107.836676 120.500238 107.539985 120.796929 
C 107.243294 121.093621 107.076591 121.496077 107.076591 121.915661 
C 107.076591 122.335246 107.243294 122.737702 107.539985 123.034394 
C 107.836676 123.331085 108.239132 123.497788 108.658717 123.497788 
z
" clip-path="url(#pf0616d865c)" style="stroke: #000000"/>
    <path d="M 100.862702 116.465789 
C 100.862702 116.465789 100.862702 116.465789 100.862702 116.465789 
C 100.862702 116.465789 100.862702 116.465789 100.862702 116.465789 
C 100.862702 116.465789 100.862702 116.465789 100.862702 116.465789 
C 100.862702 116.465789 100.862702 116.465789 100.862702 116.465789 
C 100.862702 116.465789 100.862702 116.465789 100.862702 116.465789 
C 100.862702 116.465789 100.862702 116.465789 100.862702 116.465789 
C 100.862702 116.465789 100.862702 116.465789 100.862702 116.465789 
C 100.862702 116.465789 100.862702 116.465789 100.862702 116.465789 
z
" clip-path="url(#pf0616d865c)" style="stroke: #000000"/>
    <path d="M 94.734519 104.91787 
C 95.154103 104.91787 95.556559 104.751167 95.853251 104.454476 
C 96.149942 104.157785 96.316645 103.755329 96.316645 103.335744 
C 96.316645 102.916159 96.149942 102.513703 95.853251 102.217012 
C 95.556559 101.920321 95.154103 101.753618 94.734519 101.753618 
C 94.314934 101.753618 93.912478 101.920321 93.615786 102.217012 
C 93.319095 102.513703 93.152392 102.916159 93.152392 103.335744 
C 93.152392 103.755329 93.319095 104.157785 93.615786 104.454476 
C 93.912478 104.751167 94.314934 104.91787 94.734519 104.91787 
z
" clip-path="url(#pf0616d865c)" style="stroke: #000000"/>
    <path d="M 97.244527 91.767098 
C 97.244527 91.767098 97.244527 91.767098 97.244527 91.767098 
C 97.244527 91.767098 97.244527 91.767098 97.244527 91.767098 
C 97.244527 91.767098 97.244527 91.767098 97.244527 91.767098 
C 97.244527 91.767098 97.244527 91.767098 97.244527 91.767098 
C 97.244527 91.767098 97.244527 91.767098 97.244527 91.767098 
C 97.244527 91.767098 97.244527 91.767098 97.244527 91.767098 
C 97.244527 91.767098 97.244527 91.767098 97.244527 91.767098 
C 97.244527 91.767098 97.244527 91.767098 97.244527 91.767098 
z
" clip-path="url(#pf0616d865c)" style="stroke: #000000"/>
    <path d="M 92.018 79.316409 
C 92.018 79.316409 92.018 79.316409 92.018 79.316409 
C 92.018 79.316409 92.018 79.316409 92.018 79.316409 
C 92.018 79.316409 92.018 79.316409 92.018 79.316409 
C 92.018 79.316409 92.018 79.316409 92.018 79.316409 
C 92.018 79.316409 92.018 79.316409 92.018 79.316409 
C 92.018 79.316409 92.018 79.316409 92.018 79.316409 
C 92.018 79.316409 92.018 79.316409 92.018 79.316409 
C 92.018 79.316409 92.018 79.316409 92.018 79.316409 
z
" clip-path="url(#pf0616d865c)" style="stroke: #000000"/>
    <path d="M 87.225956 73.218164 
C 87.645279 73.218164 88.047484 73.051565 88.34399 72.755059 
C 88.640497 72.458553 88.807095 72.056348 88.807095 71.637025 
C 88.807095 71.217702 88.640497 70.815497 88.34399 70.518991 
C 88.047484 70.222485 87.645279 70.055886 87.225956 70.055886 
C 86.806634 70.055886 86.404429 70.222485 86.107922 70.518991 
C 85.811416 70.815497 85.644818 71.217702 85.644818 71.637025 
C 85.644818 72.056348 85.811416 72.458553 86.107922 72.755059 
C 86.404429 73.051565 86.806634 73.218164 87.225956 73.218164 
z
" clip-path="url(#pf0616d865c)" style="stroke: #000000"/>
    <path d="M 85.026546 60.648629 
C 85.026546 60.648629 85.026546 60.648629 85.026546 60.648629 
C 85.026546 60.648629 85.026546 60.648629 85.026546 60.648629 
C 85.026546 60.648629 85.026546 60.648629 85.026546 60.648629 
C 85.026546 60.648629 85.026546 60.648629 85.026546 60.648629 
C 85.026546 60.648629 85.026546 60.648629 85.026546 60.648629 
C 85.026546 60.648629 85.026546 60.648629 85.026546 60.648629 
C 85.026546 60.648629 85.026546 60.648629 85.026546 60.648629 
C 85.026546 60.648629 85.026546 60.648629 85.026546 60.648629 
z
" clip-path="url(#pf0616d865c)" style="stroke: #000000"/>
    <path d="M 79.300354 49.977577 
C 79.300354 49.977577 79.300354 49.977577 79.300354 49.977577 
C 79.300354 49.977577 79.300354 49.977577 79.300354 49.977577 
C 79.300354 49.977577 79.300354 49.977577 79.300354 49.977577 
C 79.300354 49.977577 79.300354 49.977577 79.300354 49.977577 
C 79.300354 49.977577 79.300354 49.977577 79.300354 49.977577 
C 79.300354 49.977577 79.300354 49.977577 79.300354 49.977577 
C 79.300354 49.977577 79.300354 49.977577 79.300354 49.977577 
C 79.300354 49.977577 79.300354 49.977577 79.300354 49.977577 
z
" clip-path="url(#pf0616d865c)" style="stroke: #000000"/>
    <path d="M 81.153695 41.974172 
C 81.247458 41.974172 81.337394 41.93692 81.403695 41.870619 
C 81.469996 41.804318 81.507248 41.714382 81.507248 41.620619 
C 81.507248 41.526856 81.469996 41.43692 81.403695 41.370619 
C 81.337394 41.304318 81.247458 41.267066 81.153695 41.267066 
C 81.059931 41.267066 80.969996 41.304318 80.903695 41.370619 
C 80.837394 41.43692 80.800142 41.526856 80.800142 41.620619 
C 80.800142 41.714382 80.837394 41.804318 80.903695 41.870619 
C 80.969996 41.93692 81.059931 41.974172 81.153695 41.974172 
z
" clip-path="url(#pf0616d865c)" style="stroke: #000000"/>
    <path d="M 74.408406 32.934807 
C 74.408406 32.934807 74.408406 32.934807 74.408406 32.934807 
C 74.408406 32.934807 74.408406 32.934807 74.408406 32.934807 
C 74.408406 32.934807 74.408406 32.934807 74.408406 32.934807 
C 74.408406 32.934807 74.408406 32.934807 74.408406 32.934807 
C 74.408406 32.934807 74.408406 32.934807 74.408406 32.934807 
C 74.408406 32.934807 74.408406 32.934807 74.408406 32.934807 
C 74.408406 32.934807 74.408406 32.934807 74.408406 32.934807 
C 74.408406 32.934807 74.408406 32.934807 74.408406 32.934807 
z
" clip-path="url(#pf0616d865c)" style="stroke: #000000"/>
    <path d="M 115.158588 177.529603 
C 115.158588 177.529603 115.158588 177.529603 115.158588 177.529603 
C 115.158588 177.529603 115.158588 177.529603 115.158588 177.529603 
C 115.158588 177.529603 115.158588 177.529603 115.158588 177.529603 
C 115.158588 177.529603 115.158588 177.529603 115.158588 177.529603 
C 115.158588 177.529603 115.158588 177.529603 115.158588 177.529603 
C 115.158588 177.529603 115.158588 177.529603 115.158588 177.529603 
C 115.158588 177.529603 115.158588 177.529603 115.158588 177.529603 
C 115.158588 177.529603 115.158588 177.529603 115.158588 177.529603 
z
" clip-path="url(#pf0616d865c)" style="stroke: #000000"/>
    <path d="M 107.432268 169.259007 
C 107.564869 169.259007 107.692057 169.206324 107.785821 169.112561 
C 107.879584 169.018797 107.932268 168.891609 107.932268 168.759007 
C 107.932268 168.626406 107.879584 168.499217 107.785821 168.405454 
C 107.692057 168.311691 107.564869 168.259007 107.432268 168.259007 
C 107.299666 168.259007 107.172478 168.311691 107.078714 168.405454 
C 106.984951 168.499217 106.932268 168.626406 106.932268 168.759007 
C 106.932268 168.891609 106.984951 169.018797 107.078714 169.112561 
C 107.172478 169.206324 107.299666 169.259007 107.432268 169.259007 
z
" clip-path="url(#pf0616d865c)" style="stroke: #000000"/>
    <path d="M 110.254928 158.023477 
C 110.254928 158.023477 110.254928 158.023477 110.254928 158.023477 
C 110.254928 158.023477 110.254928 158.023477 110.254928 158.023477 
C 110.254928 158.023477 110.254928 158.023477 110.254928 158.023477 
C 110.254928 158.023477 110.254928 158.023477 110.254928 158.023477 
C 110.254928 158.023477 110.254928 158.023477 110.254928 158.023477 
C 110.254928 158.023477 110.254928 158.023477 110.254928 158.023477 
C 110.254928 158.023477 110.254928 158.023477 110.254928 158.023477 
C 110.254928 158.023477 110.254928 158.023477 110.254928 158.023477 
z
" clip-path="url(#pf0616d865c)" style="stroke: #000000"/>
    <path d="M 103.287766 153.573631 
C 103.707089 153.573631 104.109294 153.407033 104.4058 153.110527 
C 104.702306 152.81402 104.868904 152.411815 104.868904 151.992493 
C 104.868904 151.57317 104.702306 151.170965 104.4058 150.874459 
C 104.109294 150.577952 103.707089 150.411354 103.287766 150.411354 
C 102.868443 150.411354 102.466238 150.577952 102.169732 150.874459 
C 101.873226 151.170965 101.706627 151.57317 101.706627 151.992493 
C 101.706627 152.411815 101.873226 152.81402 102.169732 153.110527 
C 102.466238 153.407033 102.868443 153.573631 103.287766 153.573631 
z
" clip-path="url(#pf0616d865c)" style="stroke: #000000"/>
    <path d="M 101.164514 133.827293 
C 101.583837 133.827293 101.986042 133.660694 102.282548 133.364188 
C 102.579054 133.067682 102.745653 132.665477 102.745653 132.246154 
C 102.745653 131.826831 102.579054 131.424626 102.282548 131.12812 
C 101.986042 130.831614 101.583837 130.665015 101.164514 130.665015 
C 100.745191 130.665015 100.342986 130.831614 100.04648 131.12812 
C 99.749974 131.424626 99.583375 131.826831 99.583375 132.246154 
C 99.583375 132.665477 99.749974 133.067682 100.04648 133.364188 
C 100.342986 133.660694 100.745191 133.827293 101.164514 133.827293 
z
" clip-path="url(#pf0616d865c)" style="stroke: #000000"/>
    <path d="M 98.617404 126.514261 
C 99.036989 126.514261 99.439445 126.347558 99.736136 126.050867 
C 100.032827 125.754176 100.19953 125.351719 100.19953 124.932135 
C 100.19953 124.51255 100.032827 124.110094 99.736136 123.813403 
C 99.439445 123.516711 99.036989 123.350009 98.617404 123.350009 
C 98.197819 123.350009 97.795363 123.516711 97.498672 123.813403 
C 97.201981 124.110094 97.035278 124.51255 97.035278 124.932135 
C 97.035278 125.351719 97.201981 125.754176 97.498672 126.050867 
C 97.795363 126.347558 98.197819 126.514261 98.617404 126.514261 
z
" clip-path="url(#pf0616d865c)" style="stroke: #000000"/>
    <path d="M 92.864781 122.149573 
C 93.284366 122.149573 93.686822 121.98287 93.983513 121.686179 
C 94.280204 121.389488 94.446907 120.987032 94.446907 120.567447 
C 94.446907 120.147862 94.280204 119.745406 93.983513 119.448715 
C 93.686822 119.152024 93.284366 118.985321 92.864781 118.985321 
C 92.445196 118.985321 92.04274 119.152024 91.746049 119.448715 
C 91.449358 119.745406 91.282655 120.147862 91.282655 120.567447 
C 91.282655 120.987032 91.449358 121.389488 91.746049 121.686179 
C 92.04274 121.98287 92.445196 122.149573 92.864781 122.149573 
z
" clip-path="url(#pf0616d865c)" style="stroke: #000000"/>
    <path d="M 91.66149 107.558167 
C 92.081074 107.558167 92.48353 107.391464 92.780222 107.094773 
C 93.076913 106.798081 93.243616 106.395625 93.243616 105.976041 
C 93.243616 105.556456 93.076913 105.154 92.780222 104.857308 
C 92.48353 104.560617 92.081074 104.393914 91.66149 104.393914 
C 91.241905 104.393914 90.839449 104.560617 90.542757 104.857308 
C 90.246066 105.154 90.079363 105.556456 90.079363 105.976041 
C 90.079363 106.395625 90.246066 106.798081 90.542757 107.094773 
C 90.839449 107.391464 91.241905 107.558167 91.66149 107.558167 
z
" clip-path="url(#pf0616d865c)" style="stroke: #000000"/>
    <path d="M 84.862244 101.160237 
C 85.241263 101.160237 85.60481 101.009651 85.872817 100.741643 
C 86.140824 100.473636 86.29141 100.110089 86.29141 99.73107 
C 86.29141 99.352051 86.140824 98.988504 85.872817 98.720497 
C 85.60481 98.45249 85.241263 98.301904 84.862244 98.301904 
C 84.483224 98.301904 84.119677 98.45249 83.85167 98.720497 
C 83.583663 98.988504 83.433077 99.352051 83.433077 99.73107 
C 83.433077 100.110089 83.583663 100.473636 83.85167 100.741643 
C 84.119677 101.009651 84.483224 101.160237 84.862244 101.160237 
z
" clip-path="url(#pf0616d865c)" style="stroke: #000000"/>
    <path d="M 79.814207 86.710877 
C 80.207007 86.710877 80.583771 86.554816 80.861523 86.277065 
C 81.139274 85.999313 81.295335 85.622549 81.295335 85.229749 
C 81.295335 84.836949 81.139274 84.460184 80.861523 84.182433 
C 80.583771 83.904682 80.207007 83.748621 79.814207 83.748621 
C 79.421407 83.748621 79.044642 83.904682 78.766891 84.182433 
C 78.48914 84.460184 78.333078 84.836949 78.333078 85.229749 
C 78.333078 85.622549 78.48914 85.999313 78.766891 86.277065 
C 79.044642 86.554816 79.421407 86.710877 79.814207 86.710877 
z
" clip-path="url(#pf0616d865c)" style="stroke: #000000"/>
    <path d="M 79.347362 78.370141 
C 79.766685 78.370141 80.16889 78.203542 80.465396 77.907036 
C 80.761902 77.61053 80.928501 77.208325 80.928501 76.789002 
C 80.928501 76.369679 80.761902 75.967474 80.465396 75.670968 
C 80.16889 75.374462 79.766685 75.207863 79.347362 75.207863 
C 78.928039 75.207863 78.525834 75.374462 78.229328 75.670968 
C 77.932822 75.967474 77.766223 76.369679 77.766223 76.789002 
C 77.766223 77.208325 77.932822 77.61053 78.229328 77.907036 
C 78.525834 78.203542 78.928039 78.370141 79.347362 78.370141 
z
" clip-path="url(#pf0616d865c)" style="stroke: #000000"/>
    <path d="M 72.590057 69.594179 
C 73.00938 69.594179 73.411585 69.42758 73.708091 69.131074 
C 74.004597 68.834568 74.171196 68.432363 74.171196 68.01304 
C 74.171196 67.593717 74.004597 67.191512 73.708091 66.895006 
C 73.411585 66.5985 73.00938 66.431901 72.590057 66.431901 
C 72.170734 66.431901 71.768529 66.5985 71.472023 66.895006 
C 71.175517 67.191512 71.008919 67.593717 71.008919 68.01304 
C 71.008919 68.432363 71.175517 68.834568 71.472023 69.131074 
C 71.768529 69.42758 72.170734 69.594179 72.590057 69.594179 
z
" clip-path="url(#pf0616d865c)" style="stroke: #000000"/>
    <path d="M 72.58345 57.494348 
C 72.934281 57.494348 73.27079 57.354961 73.518864 57.106887 
C 73.766939 56.858812 73.906326 56.522303 73.906326 56.171472 
C 73.906326 55.820642 73.766939 55.484133 73.518864 55.236058 
C 73.27079 54.987983 72.934281 54.848597 72.58345 54.848597 
C 72.232619 54.848597 71.89611 54.987983 71.648036 55.236058 
C 71.399961 55.484133 71.260574 55.820642 71.260574 56.171472 
C 71.260574 56.522303 71.399961 56.858812 71.648036 57.106887 
C 71.89611 57.354961 72.232619 57.494348 72.58345 57.494348 
z
" clip-path="url(#pf0616d865c)" style="stroke: #000000"/>
    <path d="M 72.154047 49.144207 
C 72.57337 49.144207 72.975575 48.977609 73.272081 48.681103 
C 73.568587 48.384597 73.735186 47.982392 73.735186 47.563069 
C 73.735186 47.143746 73.568587 46.741541 73.272081 46.445035 
C 72.975575 46.148529 72.57337 45.98193 72.154047 45.98193 
C 71.734724 45.98193 71.332519 46.148529 71.036013 46.445035 
C 70.739507 46.741541 70.572908 47.143746 70.572908 47.563069 
C 70.572908 47.982392 70.739507 48.384597 71.036013 48.681103 
C 71.332519 48.977609 71.734724 49.144207 72.154047 49.144207 
z
" clip-path="url(#pf0616d865c)" style="stroke: #000000"/>
    <path d="M 65.741667 35.668038 
C 65.741667 35.668038 65.741667 35.668038 65.741667 35.668038 
C 65.741667 35.668038 65.741667 35.668038 65.741667 35.668038 
C 65.741667 35.668038 65.741667 35.668038 65.741667 35.668038 
C 65.741667 35.668038 65.741667 35.668038 65.741667 35.668038 
C 65.741667 35.668038 65.741667 35.668038 65.741667 35.668038 
C 65.741667 35.668038 65.741667 35.668038 65.741667 35.668038 
C 65.741667 35.668038 65.741667 35.668038 65.741667 35.668038 
C 65.741667 35.668038 65.741667 35.668038 65.741667 35.668038 
z
" clip-path="url(#pf0616d865c)" style="stroke: #000000"/>
    <path d="M 59.596598 26.587342 
C 59.596598 26.587342 59.596598 26.587342 59.596598 26.587342 
C 59.596598 26.587342 59.596598 26.587342 59.596598 26.587342 
C 59.596598 26.587342 59.596598 26.587342 59.596598 26.587342 
C 59.596598 26.587342 59.596598 26.587342 59.596598 26.587342 
C 59.596598 26.587342 59.596598 26.587342 59.596598 26.587342 
C 59.596598 26.587342 59.596598 26.587342 59.596598 26.587342 
C 59.596598 26.587342 59.596598 26.587342 59.596598 26.587342 
C 59.596598 26.587342 59.596598 26.587342 59.596598 26.587342 
z
" clip-path="url(#pf0616d865c)" style="stroke: #000000"/>
    <path d="M 106.032071 176.732763 
C 106.032071 176.732763 106.032071 176.732763 106.032071 176.732763 
C 106.032071 176.732763 106.032071 176.732763 106.032071 176.732763 
C 106.032071 176.732763 106.032071 176.732763 106.032071 176.732763 
C 106.032071 176.732763 106.032071 176.732763 106.032071 176.732763 
C 106.032071 176.732763 106.032071 176.732763 106.032071 176.732763 
C 106.032071 176.732763 106.032071 176.732763 106.032071 176.732763 
C 106.032071 176.732763 106.032071 176.732763 106.032071 176.732763 
C 106.032071 176.732763 106.032071 176.732763 106.032071 176.732763 
z
" clip-path="url(#pf0616d865c)" style="stroke: #000000"/>
    <path d="M 100.103499 175.517215 
C 100.103499 175.517215 100.103499 175.517215 100.103499 175.517215 
C 100.103499 175.517215 100.103499 175.517215 100.103499 175.517215 
C 100.103499 175.517215 100.103499 175.517215 100.103499 175.517215 
C 100.103499 175.517215 100.103499 175.517215 100.103499 175.517215 
C 100.103499 175.517215 100.103499 175.517215 100.103499 175.517215 
C 100.103499 175.517215 100.103499 175.517215 100.103499 175.517215 
C 100.103499 175.517215 100.103499 175.517215 100.103499 175.517215 
C 100.103499 175.517215 100.103499 175.517215 100.103499 175.517215 
z
" clip-path="url(#pf0616d865c)" style="stroke: #000000"/>
    <path d="M 95.59535 163.204412 
C 96.014673 163.204412 96.416878 163.037813 96.713384 162.741307 
C 97.00989 162.444801 97.176489 162.042596 97.176489 161.623273 
C 97.176489 161.20395 97.00989 160.801745 96.713384 160.505239 
C 96.416878 160.208733 96.014673 160.042134 95.59535 160.042134 
C 95.176027 160.042134 94.773822 160.208733 94.477316 160.505239 
C 94.18081 160.801745 94.014211 161.20395 94.014211 161.623273 
C 94.014211 162.042596 94.18081 162.444801 94.477316 162.741307 
C 94.773822 163.037813 95.176027 163.204412 95.59535 163.204412 
z
" clip-path="url(#pf0616d865c)" style="stroke: #000000"/>
    <path d="M 91.808307 148.575179 
C 91.808307 148.575179 91.808307 148.575179 91.808307 148.575179 
C 91.808307 148.575179 91.808307 148.575179 91.808307 148.575179 
C 91.808307 148.575179 91.808307 148.575179 91.808307 148.575179 
C 91.808307 148.575179 91.808307 148.575179 91.808307 148.575179 
C 91.808307 148.575179 91.808307 148.575179 91.808307 148.575179 
C 91.808307 148.575179 91.808307 148.575179 91.808307 148.575179 
C 91.808307 148.575179 91.808307 148.575179 91.808307 148.575179 
C 91.808307 148.575179 91.808307 148.575179 91.808307 148.575179 
z
" clip-path="url(#pf0616d865c)" style="stroke: #000000"/>
    <path d="M 84.271411 147.263705 
C 84.690209 147.263705 85.091911 147.097315 85.388045 146.80118 
C 85.68418 146.505045 85.85057 146.103344 85.85057 145.684546 
C 85.85057 145.265748 85.68418 144.864047 85.388045 144.567912 
C 85.091911 144.271777 84.690209 144.105387 84.271411 144.105387 
C 83.852614 144.105387 83.450912 144.271777 83.154778 144.567912 
C 82.858643 144.864047 82.692253 145.265748 82.692253 145.684546 
C 82.692253 146.103344 82.858643 146.505045 83.154778 146.80118 
C 83.450912 147.097315 83.852614 147.263705 84.271411 147.263705 
z
" clip-path="url(#pf0616d865c)" style="stroke: #000000"/>
    <path d="M 86.051609 128.598289 
C 86.471194 128.598289 86.87365 128.431586 87.170341 128.134895 
C 87.467032 127.838204 87.633735 127.435748 87.633735 127.016163 
C 87.633735 126.596578 87.467032 126.194122 87.170341 125.897431 
C 86.87365 125.60074 86.471194 125.434037 86.051609 125.434037 
C 85.632024 125.434037 85.229568 125.60074 84.932877 125.897431 
C 84.636186 126.194122 84.469483 126.596578 84.469483 127.016163 
C 84.469483 127.435748 84.636186 127.838204 84.932877 128.134895 
C 85.229568 128.431586 85.632024 128.598289 86.051609 128.598289 
z
" clip-path="url(#pf0616d865c)" style="stroke: #000000"/>
    <path d="M 78.412961 113.864186 
C 78.412961 113.864186 78.412961 113.864186 78.412961 113.864186 
C 78.412961 113.864186 78.412961 113.864186 78.412961 113.864186 
C 78.412961 113.864186 78.412961 113.864186 78.412961 113.864186 
C 78.412961 113.864186 78.412961 113.864186 78.412961 113.864186 
C 78.412961 113.864186 78.412961 113.864186 78.412961 113.864186 
C 78.412961 113.864186 78.412961 113.864186 78.412961 113.864186 
C 78.412961 113.864186 78.412961 113.864186 78.412961 113.864186 
C 78.412961 113.864186 78.412961 113.864186 78.412961 113.864186 
z
" clip-path="url(#pf0616d865c)" style="stroke: #000000"/>
    <path d="M 77.656803 109.603456 
C 77.656803 109.603456 77.656803 109.603456 77.656803 109.603456 
C 77.656803 109.603456 77.656803 109.603456 77.656803 109.603456 
C 77.656803 109.603456 77.656803 109.603456 77.656803 109.603456 
C 77.656803 109.603456 77.656803 109.603456 77.656803 109.603456 
C 77.656803 109.603456 77.656803 109.603456 77.656803 109.603456 
C 77.656803 109.603456 77.656803 109.603456 77.656803 109.603456 
C 77.656803 109.603456 77.656803 109.603456 77.656803 109.603456 
C 77.656803 109.603456 77.656803 109.603456 77.656803 109.603456 
z
" clip-path="url(#pf0616d865c)" style="stroke: #000000"/>
    <path d="M 76.034974 100.845573 
C 76.454558 100.845573 76.857014 100.678871 77.153706 100.382179 
C 77.450397 100.085488 77.6171 99.683032 77.6171 99.263447 
C 77.6171 98.843863 77.450397 98.441406 77.153706 98.144715 
C 76.857014 97.848024 76.454558 97.681321 76.034974 97.681321 
C 75.615389 97.681321 75.212933 97.848024 74.916241 98.144715 
C 74.61955 98.441406 74.452847 98.843863 74.452847 99.263447 
C 74.452847 99.683032 74.61955 100.085488 74.916241 100.382179 
C 75.212933 100.678871 75.615389 100.845573 76.034974 100.845573 
z
" clip-path="url(#pf0616d865c)" style="stroke: #000000"/>
    <path d="M 69.635391 91.625205 
C 70.01441 91.625205 70.377957 91.474619 70.645964 91.206612 
C 70.913971 90.938604 71.064557 90.575058 71.064557 90.196038 
C 71.064557 89.817019 70.913971 89.453472 70.645964 89.185465 
C 70.377957 88.917458 70.01441 88.766872 69.635391 88.766872 
C 69.256371 88.766872 68.892824 88.917458 68.624817 89.185465 
C 68.35681 89.453472 68.206224 89.817019 68.206224 90.196038 
C 68.206224 90.575058 68.35681 90.938604 68.624817 91.206612 
C 68.892824 91.474619 69.256371 91.625205 69.635391 91.625205 
z
" clip-path="url(#pf0616d865c)" style="stroke: #000000"/>
    <path d="M 67.625086 81.198276 
C 68.044409 81.198276 68.446614 81.031677 68.74312 80.735171 
C 69.039627 80.438665 69.206225 80.03646 69.206225 79.617137 
C 69.206225 79.197814 69.039627 78.795609 68.74312 78.499103 
C 68.446614 78.202597 68.044409 78.035998 67.625086 78.035998 
C 67.205764 78.035998 66.803559 78.202597 66.507052 78.499103 
C 66.210546 78.795609 66.043948 79.197814 66.043948 79.617137 
C 66.043948 80.03646 66.210546 80.438665 66.507052 80.735171 
C 66.803559 81.031677 67.205764 81.198276 67.625086 81.198276 
z
" clip-path="url(#pf0616d865c)" style="stroke: #000000"/>
    <path d="M 57.312734 68.554849 
C 57.312734 68.554849 57.312734 68.554849 57.312734 68.554849 
C 57.312734 68.554849 57.312734 68.554849 57.312734 68.554849 
C 57.312734 68.554849 57.312734 68.554849 57.312734 68.554849 
C 57.312734 68.554849 57.312734 68.554849 57.312734 68.554849 
C 57.312734 68.554849 57.312734 68.554849 57.312734 68.554849 
C 57.312734 68.554849 57.312734 68.554849 57.312734 68.554849 
C 57.312734 68.554849 57.312734 68.554849 57.312734 68.554849 
C 57.312734 68.554849 57.312734 68.554849 57.312734 68.554849 
z
" clip-path="url(#pf0616d865c)" style="stroke: #000000"/>
    <path d="M 57.900784 59.368224 
C 57.900784 59.368224 57.900784 59.368224 57.900784 59.368224 
C 57.900784 59.368224 57.900784 59.368224 57.900784 59.368224 
C 57.900784 59.368224 57.900784 59.368224 57.900784 59.368224 
C 57.900784 59.368224 57.900784 59.368224 57.900784 59.368224 
C 57.900784 59.368224 57.900784 59.368224 57.900784 59.368224 
C 57.900784 59.368224 57.900784 59.368224 57.900784 59.368224 
C 57.900784 59.368224 57.900784 59.368224 57.900784 59.368224 
C 57.900784 59.368224 57.900784 59.368224 57.900784 59.368224 
z
" clip-path="url(#pf0616d865c)" style="stroke: #000000"/>
    <path d="M 60.216286 47.604587 
C 60.216286 47.604587 60.216286 47.604587 60.216286 47.604587 
C 60.216286 47.604587 60.216286 47.604587 60.216286 47.604587 
C 60.216286 47.604587 60.216286 47.604587 60.216286 47.604587 
C 60.216286 47.604587 60.216286 47.604587 60.216286 47.604587 
C 60.216286 47.604587 60.216286 47.604587 60.216286 47.604587 
C 60.216286 47.604587 60.216286 47.604587 60.216286 47.604587 
C 60.216286 47.604587 60.216286 47.604587 60.216286 47.604587 
C 60.216286 47.604587 60.216286 47.604587 60.216286 47.604587 
z
" clip-path="url(#pf0616d865c)" style="stroke: #000000"/>
    <path d="M 55.904133 38.144083 
C 55.904133 38.144083 55.904133 38.144083 55.904133 38.144083 
C 55.904133 38.144083 55.904133 38.144083 55.904133 38.144083 
C 55.904133 38.144083 55.904133 38.144083 55.904133 38.144083 
C 55.904133 38.144083 55.904133 38.144083 55.904133 38.144083 
C 55.904133 38.144083 55.904133 38.144083 55.904133 38.144083 
C 55.904133 38.144083 55.904133 38.144083 55.904133 38.144083 
C 55.904133 38.144083 55.904133 38.144083 55.904133 38.144083 
C 55.904133 38.144083 55.904133 38.144083 55.904133 38.144083 
z
" clip-path="url(#pf0616d865c)" style="stroke: #000000"/>
    <path d="M 86.039465 177.195186 
C 86.039465 177.195186 86.039465 177.195186 86.039465 177.195186 
C 86.039465 177.195186 86.039465 177.195186 86.039465 177.195186 
C 86.039465 177.195186 86.039465 177.195186 86.039465 177.195186 
C 86.039465 177.195186 86.039465 177.195186 86.039465 177.195186 
C 86.039465 177.195186 86.039465 177.195186 86.039465 177.195186 
C 86.039465 177.195186 86.039465 177.195186 86.039465 177.195186 
C 86.039465 177.195186 86.039465 177.195186 86.039465 177.195186 
C 86.039465 177.195186 86.039465 177.195186 86.039465 177.195186 
z
" clip-path="url(#pf0616d865c)" style="stroke: #000000"/>
    <path d="M 82.944193 166.808456 
C 82.944193 166.808456 82.944193 166.808456 82.944193 166.808456 
C 82.944193 166.808456 82.944193 166.808456 82.944193 166.808456 
C 82.944193 166.808456 82.944193 166.808456 82.944193 166.808456 
C 82.944193 166.808456 82.944193 166.808456 82.944193 166.808456 
C 82.944193 166.808456 82.944193 166.808456 82.944193 166.808456 
C 82.944193 166.808456 82.944193 166.808456 82.944193 166.808456 
C 82.944193 166.808456 82.944193 166.808456 82.944193 166.808456 
C 82.944193 166.808456 82.944193 166.808456 82.944193 166.808456 
z
" clip-path="url(#pf0616d865c)" style="stroke: #000000"/>
    <path d="M 87.154968 160.01007 
C 87.574291 160.01007 87.976496 159.843472 88.273002 159.546965 
C 88.569509 159.250459 88.736107 158.848254 88.736107 158.428931 
C 88.736107 158.009609 88.569509 157.607404 88.273002 157.310897 
C 87.976496 157.014391 87.574291 156.847793 87.154968 156.847793 
C 86.735646 156.847793 86.333441 157.014391 86.036935 157.310897 
C 85.740428 157.607404 85.57383 158.009609 85.57383 158.428931 
C 85.57383 158.848254 85.740428 159.250459 86.036935 159.546965 
C 86.333441 159.843472 86.735646 160.01007 87.154968 160.01007 
z
" clip-path="url(#pf0616d865c)" style="stroke: #000000"/>
    <path d="M 79.22293 146.747273 
C 79.22293 146.747273 79.22293 146.747273 79.22293 146.747273 
C 79.22293 146.747273 79.22293 146.747273 79.22293 146.747273 
C 79.22293 146.747273 79.22293 146.747273 79.22293 146.747273 
C 79.22293 146.747273 79.22293 146.747273 79.22293 146.747273 
C 79.22293 146.747273 79.22293 146.747273 79.22293 146.747273 
C 79.22293 146.747273 79.22293 146.747273 79.22293 146.747273 
C 79.22293 146.747273 79.22293 146.747273 79.22293 146.747273 
C 79.22293 146.747273 79.22293 146.747273 79.22293 146.747273 
z
" clip-path="url(#pf0616d865c)" style="stroke: #000000"/>
    <path d="M 75.837484 135.10794 
C 75.837484 135.10794 75.837484 135.10794 75.837484 135.10794 
C 75.837484 135.10794 75.837484 135.10794 75.837484 135.10794 
C 75.837484 135.10794 75.837484 135.10794 75.837484 135.10794 
C 75.837484 135.10794 75.837484 135.10794 75.837484 135.10794 
C 75.837484 135.10794 75.837484 135.10794 75.837484 135.10794 
C 75.837484 135.10794 75.837484 135.10794 75.837484 135.10794 
C 75.837484 135.10794 75.837484 135.10794 75.837484 135.10794 
C 75.837484 135.10794 75.837484 135.10794 75.837484 135.10794 
z
" clip-path="url(#pf0616d865c)" style="stroke: #000000"/>
    <path d="M 74.679647 126.513133 
C 75.057954 126.513133 75.420818 126.36283 75.688322 126.095326 
C 75.955826 125.827822 76.106129 125.464958 76.106129 125.086651 
C 76.106129 124.708343 75.955826 124.345479 75.688322 124.077975 
C 75.420818 123.810471 75.057954 123.660168 74.679647 123.660168 
C 74.301339 123.660168 73.938475 123.810471 73.670971 124.077975 
C 73.403467 124.345479 73.253164 124.708343 73.253164 125.086651 
C 73.253164 125.464958 73.403467 125.827822 73.670971 126.095326 
C 73.938475 126.36283 74.301339 126.513133 74.679647 126.513133 
z
" clip-path="url(#pf0616d865c)" style="stroke: #000000"/>
    <path d="M 66.526174 113.035488 
C 66.905193 113.035488 67.26874 112.884902 67.536747 112.616894 
C 67.804754 112.348887 67.95534 111.985341 67.95534 111.606321 
C 67.95534 111.227302 67.804754 110.863755 67.536747 110.595748 
C 67.26874 110.327741 66.905193 110.177155 66.526174 110.177155 
C 66.147154 110.177155 65.783608 110.327741 65.5156 110.595748 
C 65.247593 110.863755 65.097007 111.227302 65.097007 111.606321 
C 65.097007 111.985341 65.247593 112.348887 65.5156 112.616894 
C 65.783608 112.884902 66.147154 113.035488 66.526174 113.035488 
z
" clip-path="url(#pf0616d865c)" style="stroke: #000000"/>
    <path d="M 65.800067 99.64901 
C 65.800067 99.64901 65.800067 99.64901 65.800067 99.64901 
C 65.800067 99.64901 65.800067 99.64901 65.800067 99.64901 
C 65.800067 99.64901 65.800067 99.64901 65.800067 99.64901 
C 65.800067 99.64901 65.800067 99.64901 65.800067 99.64901 
C 65.800067 99.64901 65.800067 99.64901 65.800067 99.64901 
C 65.800067 99.64901 65.800067 99.64901 65.800067 99.64901 
C 65.800067 99.64901 65.800067 99.64901 65.800067 99.64901 
C 65.800067 99.64901 65.800067 99.64901 65.800067 99.64901 
z
" clip-path="url(#pf0616d865c)" style="stroke: #000000"/>
    <path d="M 60.91867 92.380302 
C 61.337993 92.380302 61.740198 92.213703 62.036704 91.917197 
C 62.33321 91.620691 62.499809 91.218486 62.499809 90.799163 
C 62.499809 90.37984 62.33321 89.977635 62.036704 89.681129 
C 61.740198 89.384623 61.337993 89.218024 60.91867 89.218024 
C 60.499347 89.218024 60.097142 89.384623 59.800636 89.681129 
C 59.50413 89.977635 59.337531 90.37984 59.337531 90.799163 
C 59.337531 91.218486 59.50413 91.620691 59.800636 91.917197 
C 60.097142 92.213703 60.499347 92.380302 60.91867 92.380302 
z
" clip-path="url(#pf0616d865c)" style="stroke: #000000"/>
    <path d="M 55.657914 85.529005 
C 56.077499 85.529005 56.479955 85.362302 56.776647 85.065611 
C 57.073338 84.76892 57.240041 84.366464 57.240041 83.946879 
C 57.240041 83.527294 57.073338 83.124838 56.776647 82.828147 
C 56.479955 82.531455 56.077499 82.364753 55.657914 82.364753 
C 55.23833 82.364753 54.835874 82.531455 54.539182 82.828147 
C 54.242491 83.124838 54.075788 83.527294 54.075788 83.946879 
C 54.075788 84.366464 54.242491 84.76892 54.539182 85.065611 
C 54.835874 85.362302 55.23833 85.529005 55.657914 85.529005 
z
" clip-path="url(#pf0616d865c)" style="stroke: #000000"/>
    <path d="M 54.766251 71.448425 
C 54.766251 71.448425 54.766251 71.448425 54.766251 71.448425 
C 54.766251 71.448425 54.766251 71.448425 54.766251 71.448425 
C 54.766251 71.448425 54.766251 71.448425 54.766251 71.448425 
C 54.766251 71.448425 54.766251 71.448425 54.766251 71.448425 
C 54.766251 71.448425 54.766251 71.448425 54.766251 71.448425 
C 54.766251 71.448425 54.766251 71.448425 54.766251 71.448425 
C 54.766251 71.448425 54.766251 71.448425 54.766251 71.448425 
C 54.766251 71.448425 54.766251 71.448425 54.766251 71.448425 
z
" clip-path="url(#pf0616d865c)" style="stroke: #000000"/>
    <path d="M 50.536548 63.742118 
C 50.955871 63.742118 51.358076 63.575519 51.654582 63.279013 
C 51.951088 62.982507 52.117687 62.580302 52.117687 62.160979 
C 52.117687 61.741656 51.951088 61.339451 51.654582 61.042945 
C 51.358076 60.746439 50.955871 60.57984 50.536548 60.57984 
C 50.117225 60.57984 49.71502 60.746439 49.418514 61.042945 
C 49.122008 61.339451 48.955409 61.741656 48.955409 62.160979 
C 48.955409 62.580302 49.122008 62.982507 49.418514 63.279013 
C 49.71502 63.575519 50.117225 63.742118 50.536548 63.742118 
z
" clip-path="url(#pf0616d865c)" style="stroke: #000000"/>
    <path d="M 47.893143 53.083353 
C 47.893143 53.083353 47.893143 53.083353 47.893143 53.083353 
C 47.893143 53.083353 47.893143 53.083353 47.893143 53.083353 
C 47.893143 53.083353 47.893143 53.083353 47.893143 53.083353 
C 47.893143 53.083353 47.893143 53.083353 47.893143 53.083353 
C 47.893143 53.083353 47.893143 53.083353 47.893143 53.083353 
C 47.893143 53.083353 47.893143 53.083353 47.893143 53.083353 
C 47.893143 53.083353 47.893143 53.083353 47.893143 53.083353 
C 47.893143 53.083353 47.893143 53.083353 47.893143 53.083353 
z
" clip-path="url(#pf0616d865c)" style="stroke: #000000"/>
    <path d="M 45.59421 42.236887 
C 45.59421 42.236887 45.59421 42.236887 45.59421 42.236887 
C 45.59421 42.236887 45.59421 42.236887 45.59421 42.236887 
C 45.59421 42.236887 45.59421 42.236887 45.59421 42.236887 
C 45.59421 42.236887 45.59421 42.236887 45.59421 42.236887 
C 45.59421 42.236887 45.59421 42.236887 45.59421 42.236887 
C 45.59421 42.236887 45.59421 42.236887 45.59421 42.236887 
C 45.59421 42.236887 45.59421 42.236887 45.59421 42.236887 
C 45.59421 42.236887 45.59421 42.236887 45.59421 42.236887 
z
" clip-path="url(#pf0616d865c)" style="stroke: #000000"/>
    <path d="M 77.411323 178.280701 
C 77.779215 178.280701 78.132089 178.134535 78.392228 177.874396 
C 78.652368 177.614257 78.798533 177.261383 78.798533 176.893491 
C 78.798533 176.525599 78.652368 176.172725 78.392228 175.912586 
C 78.132089 175.652447 77.779215 175.506281 77.411323 175.506281 
C 77.043431 175.506281 76.690557 175.652447 76.430418 175.912586 
C 76.170279 176.172725 76.024114 176.525599 76.024114 176.893491 
C 76.024114 177.261383 76.170279 177.614257 76.430418 177.874396 
C 76.690557 178.134535 77.043431 178.280701 77.411323 178.280701 
z
" clip-path="url(#pf0616d865c)" style="stroke: #000000"/>
    <path d="M 75.465931 169.07037 
C 75.465931 169.07037 75.465931 169.07037 75.465931 169.07037 
C 75.465931 169.07037 75.465931 169.07037 75.465931 169.07037 
C 75.465931 169.07037 75.465931 169.07037 75.465931 169.07037 
C 75.465931 169.07037 75.465931 169.07037 75.465931 169.07037 
C 75.465931 169.07037 75.465931 169.07037 75.465931 169.07037 
C 75.465931 169.07037 75.465931 169.07037 75.465931 169.07037 
C 75.465931 169.07037 75.465931 169.07037 75.465931 169.07037 
C 75.465931 169.07037 75.465931 169.07037 75.465931 169.07037 
z
" clip-path="url(#pf0616d865c)" style="stroke: #000000"/>
    <path d="M 75.059885 156.468877 
C 75.059885 156.468877 75.059885 156.468877 75.059885 156.468877 
C 75.059885 156.468877 75.059885 156.468877 75.059885 156.468877 
C 75.059885 156.468877 75.059885 156.468877 75.059885 156.468877 
C 75.059885 156.468877 75.059885 156.468877 75.059885 156.468877 
C 75.059885 156.468877 75.059885 156.468877 75.059885 156.468877 
C 75.059885 156.468877 75.059885 156.468877 75.059885 156.468877 
C 75.059885 156.468877 75.059885 156.468877 75.059885 156.468877 
C 75.059885 156.468877 75.059885 156.468877 75.059885 156.468877 
z
" clip-path="url(#pf0616d865c)" style="stroke: #000000"/>
    <path d="M 67.485723 150.010055 
C 67.485723 150.010055 67.485723 150.010055 67.485723 150.010055 
C 67.485723 150.010055 67.485723 150.010055 67.485723 150.010055 
C 67.485723 150.010055 67.485723 150.010055 67.485723 150.010055 
C 67.485723 150.010055 67.485723 150.010055 67.485723 150.010055 
C 67.485723 150.010055 67.485723 150.010055 67.485723 150.010055 
C 67.485723 150.010055 67.485723 150.010055 67.485723 150.010055 
C 67.485723 150.010055 67.485723 150.010055 67.485723 150.010055 
C 67.485723 150.010055 67.485723 150.010055 67.485723 150.010055 
z
" clip-path="url(#pf0616d865c)" style="stroke: #000000"/>
    <path d="M 61.248105 140.10438 
C 61.667428 140.10438 62.069633 139.937781 62.366139 139.641275 
C 62.662645 139.344769 62.829244 138.942564 62.829244 138.523241 
C 62.829244 138.103918 62.662645 137.701713 62.366139 137.405207 
C 62.069633 137.108701 61.667428 136.942102 61.248105 136.942102 
C 60.828782 136.942102 60.426577 137.108701 60.130071 137.405207 
C 59.833565 137.701713 59.666966 138.103918 59.666966 138.523241 
C 59.666966 138.942564 59.833565 139.344769 60.130071 139.641275 
C 60.426577 139.937781 60.828782 140.10438 61.248105 140.10438 
z
" clip-path="url(#pf0616d865c)" style="stroke: #000000"/>
    <path d="M 60.584343 125.576577 
C 61.003927 125.576577 61.406384 125.409875 61.703075 125.113183 
C 61.999766 124.816492 62.166469 124.414036 62.166469 123.994451 
C 62.166469 123.574867 61.999766 123.17241 61.703075 122.875719 
C 61.406384 122.579028 61.003927 122.412325 60.584343 122.412325 
C 60.164758 122.412325 59.762302 122.579028 59.465611 122.875719 
C 59.168919 123.17241 59.002217 123.574867 59.002217 123.994451 
C 59.002217 124.414036 59.168919 124.816492 59.465611 125.113183 
C 59.762302 125.409875 60.164758 125.576577 60.584343 125.576577 
z
" clip-path="url(#pf0616d865c)" style="stroke: #000000"/>
    <path d="M 54.425477 118.81722 
C 54.425477 118.81722 54.425477 118.81722 54.425477 118.81722 
C 54.425477 118.81722 54.425477 118.81722 54.425477 118.81722 
C 54.425477 118.81722 54.425477 118.81722 54.425477 118.81722 
C 54.425477 118.81722 54.425477 118.81722 54.425477 118.81722 
C 54.425477 118.81722 54.425477 118.81722 54.425477 118.81722 
C 54.425477 118.81722 54.425477 118.81722 54.425477 118.81722 
C 54.425477 118.81722 54.425477 118.81722 54.425477 118.81722 
C 54.425477 118.81722 54.425477 118.81722 54.425477 118.81722 
z
" clip-path="url(#pf0616d865c)" style="stroke: #000000"/>
    <path d="M 53.744852 108.563298 
C 54.164437 108.563298 54.566893 108.396596 54.863584 108.099904 
C 55.160275 107.803213 55.326978 107.400757 55.326978 106.981172 
C 55.326978 106.561588 55.160275 106.159131 54.863584 105.86244 
C 54.566893 105.565749 54.164437 105.399046 53.744852 105.399046 
C 53.325267 105.399046 52.922811 105.565749 52.62612 105.86244 
C 52.329429 106.159131 52.162726 106.561588 52.162726 106.981172 
C 52.162726 107.400757 52.329429 107.803213 52.62612 108.099904 
C 52.922811 108.396596 53.325267 108.563298 53.744852 108.563298 
z
" clip-path="url(#pf0616d865c)" style="stroke: #000000"/>
    <path d="M 47.296128 96.191133 
C 47.296128 96.191133 47.296128 96.191133 47.296128 96.191133 
C 47.296128 96.191133 47.296128 96.191133 47.296128 96.191133 
C 47.296128 96.191133 47.296128 96.191133 47.296128 96.191133 
C 47.296128 96.191133 47.296128 96.191133 47.296128 96.191133 
C 47.296128 96.191133 47.296128 96.191133 47.296128 96.191133 
C 47.296128 96.191133 47.296128 96.191133 47.296128 96.191133 
C 47.296128 96.191133 47.296128 96.191133 47.296128 96.191133 
C 47.296128 96.191133 47.296128 96.191133 47.296128 96.191133 
z
" clip-path="url(#pf0616d865c)" style="stroke: #000000"/>
    <path d="M 48.77148 88.967272 
C 49.191065 88.967272 49.593521 88.800569 49.890213 88.503878 
C 50.186904 88.207187 50.353607 87.804731 50.353607 87.385146 
C 50.353607 86.965561 50.186904 86.563105 49.890213 86.266414 
C 49.593521 85.969723 49.191065 85.80302 48.77148 85.80302 
C 48.351896 85.80302 47.94944 85.969723 47.652748 86.266414 
C 47.356057 86.563105 47.189354 86.965561 47.189354 87.385146 
C 47.189354 87.804731 47.356057 88.207187 47.652748 88.503878 
C 47.94944 88.800569 48.351896 88.967272 48.77148 88.967272 
z
" clip-path="url(#pf0616d865c)" style="stroke: #000000"/>
    <path d="M 38.513197 76.473717 
C 38.93252 76.473717 39.334725 76.307118 39.631231 76.010612 
C 39.927737 75.714106 40.094336 75.311901 40.094336 74.892578 
C 40.094336 74.473255 39.927737 74.07105 39.631231 73.774544 
C 39.334725 73.478038 38.93252 73.311439 38.513197 73.311439 
C 38.093874 73.311439 37.691669 73.478038 37.395163 73.774544 
C 37.098657 74.07105 36.932058 74.473255 36.932058 74.892578 
C 36.932058 75.311901 37.098657 75.714106 37.395163 76.010612 
C 37.691669 76.307118 38.093874 76.473717 38.513197 76.473717 
z
" clip-path="url(#pf0616d865c)" style="stroke: #000000"/>
    <path d="M 40.897816 65.479603 
C 41.317139 65.479603 41.719344 65.313004 42.01585 65.016498 
C 42.312356 64.719992 42.478955 64.317787 42.478955 63.898464 
C 42.478955 63.479141 42.312356 63.076936 42.01585 62.78043 
C 41.719344 62.483924 41.317139 62.317325 40.897816 62.317325 
C 40.478493 62.317325 40.076289 62.483924 39.779782 62.78043 
C 39.483276 63.076936 39.316678 63.479141 39.316678 63.898464 
C 39.316678 64.317787 39.483276 64.719992 39.779782 65.016498 
C 40.076289 65.313004 40.478493 65.479603 40.897816 65.479603 
z
" clip-path="url(#pf0616d865c)" style="stroke: #000000"/>
    <path d="M 68.692295 171.754765 
C 68.939095 171.754765 69.175819 171.65671 69.350332 171.482197 
C 69.524846 171.307684 69.6229 171.070959 69.6229 170.82416 
C 69.6229 170.577361 69.524846 170.340636 69.350332 170.166123 
C 69.175819 169.991609 68.939095 169.893555 68.692295 169.893555 
C 68.445496 169.893555 68.208772 169.991609 68.034258 170.166123 
C 67.859745 170.340636 67.761691 170.577361 67.761691 170.82416 
C 67.761691 171.070959 67.859745 171.307684 68.034258 171.482197 
C 68.208772 171.65671 68.445496 171.754765 68.692295 171.754765 
z
" clip-path="url(#pf0616d865c)" style="stroke: #000000"/>
    <path d="M 59.382238 160.133991 
C 59.382238 160.133991 59.382238 160.133991 59.382238 160.133991 
C 59.382238 160.133991 59.382238 160.133991 59.382238 160.133991 
C 59.382238 160.133991 59.382238 160.133991 59.382238 160.133991 
C 59.382238 160.133991 59.382238 160.133991 59.382238 160.133991 
C 59.382238 160.133991 59.382238 160.133991 59.382238 160.133991 
C 59.382238 160.133991 59.382238 160.133991 59.382238 160.133991 
C 59.382238 160.133991 59.382238 160.133991 59.382238 160.133991 
C 59.382238 160.133991 59.382238 160.133991 59.382238 160.133991 
z
" clip-path="url(#pf0616d865c)" style="stroke: #000000"/>
    <path d="M 54.925412 148.618122 
C 54.925412 148.618122 54.925412 148.618122 54.925412 148.618122 
C 54.925412 148.618122 54.925412 148.618122 54.925412 148.618122 
C 54.925412 148.618122 54.925412 148.618122 54.925412 148.618122 
C 54.925412 148.618122 54.925412 148.618122 54.925412 148.618122 
C 54.925412 148.618122 54.925412 148.618122 54.925412 148.618122 
C 54.925412 148.618122 54.925412 148.618122 54.925412 148.618122 
C 54.925412 148.618122 54.925412 148.618122 54.925412 148.618122 
C 54.925412 148.618122 54.925412 148.618122 54.925412 148.618122 
z
" clip-path="url(#pf0616d865c)" style="stroke: #000000"/>
    <path d="M 55.402681 140.457105 
C 55.402681 140.457105 55.402681 140.457105 55.402681 140.457105 
C 55.402681 140.457105 55.402681 140.457105 55.402681 140.457105 
C 55.402681 140.457105 55.402681 140.457105 55.402681 140.457105 
C 55.402681 140.457105 55.402681 140.457105 55.402681 140.457105 
C 55.402681 140.457105 55.402681 140.457105 55.402681 140.457105 
C 55.402681 140.457105 55.402681 140.457105 55.402681 140.457105 
C 55.402681 140.457105 55.402681 140.457105 55.402681 140.457105 
C 55.402681 140.457105 55.402681 140.457105 55.402681 140.457105 
z
" clip-path="url(#pf0616d865c)" style="stroke: #000000"/>
    <path d="M 50.691657 135.268499 
C 51.111242 135.268499 51.513698 135.101796 51.810389 134.805105 
C 52.10708 134.508413 52.273783 134.105957 52.273783 133.686372 
C 52.273783 133.266788 52.10708 132.864332 51.810389 132.56764 
C 51.513698 132.270949 51.111242 132.104246 50.691657 132.104246 
C 50.272072 132.104246 49.869616 132.270949 49.572925 132.56764 
C 49.276234 132.864332 49.109531 133.266788 49.109531 133.686372 
C 49.109531 134.105957 49.276234 134.508413 49.572925 134.805105 
C 49.869616 135.101796 50.272072 135.268499 50.691657 135.268499 
z
" clip-path="url(#pf0616d865c)" style="stroke: #000000"/>
    <path d="M 45.402585 121.358677 
C 45.82217 121.358677 46.224626 121.191974 46.521317 120.895283 
C 46.818008 120.598591 46.984711 120.196135 46.984711 119.77655 
C 46.984711 119.356966 46.818008 118.95451 46.521317 118.657818 
C 46.224626 118.361127 45.82217 118.194424 45.402585 118.194424 
C 44.983 118.194424 44.580544 118.361127 44.283853 118.657818 
C 43.987162 118.95451 43.820459 119.356966 43.820459 119.77655 
C 43.820459 120.196135 43.987162 120.598591 44.283853 120.895283 
C 44.580544 121.191974 44.983 121.358677 45.402585 121.358677 
z
" clip-path="url(#pf0616d865c)" style="stroke: #000000"/>
    <path d="M 45.020907 111.624379 
C 45.187645 111.624379 45.347576 111.558133 45.465477 111.440232 
C 45.583378 111.322331 45.649624 111.1624 45.649624 110.995662 
C 45.649624 110.828924 45.583378 110.668994 45.465477 110.551092 
C 45.347576 110.433191 45.187645 110.366945 45.020907 110.366945 
C 44.854169 110.366945 44.694238 110.433191 44.576337 110.551092 
C 44.458436 110.668994 44.39219 110.828924 44.39219 110.995662 
C 44.39219 111.1624 44.458436 111.322331 44.576337 111.440232 
C 44.694238 111.558133 44.854169 111.624379 45.020907 111.624379 
z
" clip-path="url(#pf0616d865c)" style="stroke: #000000"/>
    <path d="M 41.892894 101.655312 
C 41.892894 101.655312 41.892894 101.655312 41.892894 101.655312 
C 41.892894 101.655312 41.892894 101.655312 41.892894 101.655312 
C 41.892894 101.655312 41.892894 101.655312 41.892894 101.655312 
C 41.892894 101.655312 41.892894 101.655312 41.892894 101.655312 
C 41.892894 101.655312 41.892894 101.655312 41.892894 101.655312 
C 41.892894 101.655312 41.892894 101.655312 41.892894 101.655312 
C 41.892894 101.655312 41.892894 101.655312 41.892894 101.655312 
C 41.892894 101.655312 41.892894 101.655312 41.892894 101.655312 
z
" clip-path="url(#pf0616d865c)" style="stroke: #000000"/>
    <path d="M 35.963823 88.788116 
C 36.375883 88.788116 36.771122 88.624403 37.062493 88.333032 
C 37.353864 88.041661 37.517577 87.646422 37.517577 87.234362 
C 37.517577 86.822302 37.353864 86.427063 37.062493 86.135692 
C 36.771122 85.844322 36.375883 85.680608 35.963823 85.680608 
C 35.551763 85.680608 35.156524 85.844322 34.865153 86.135692 
C 34.573783 86.427063 34.410069 86.822302 34.410069 87.234362 
C 34.410069 87.646422 34.573783 88.041661 34.865153 88.333032 
C 35.156524 88.624403 35.551763 88.788116 35.963823 88.788116 
z
" clip-path="url(#pf0616d865c)" style="stroke: #000000"/>
    <path d="M 49.714688 174.673707 
C 49.714688 174.673707 49.714688 174.673707 49.714688 174.673707 
C 49.714688 174.673707 49.714688 174.673707 49.714688 174.673707 
C 49.714688 174.673707 49.714688 174.673707 49.714688 174.673707 
C 49.714688 174.673707 49.714688 174.673707 49.714688 174.673707 
C 49.714688 174.673707 49.714688 174.673707 49.714688 174.673707 
C 49.714688 174.673707 49.714688 174.673707 49.714688 174.673707 
C 49.714688 174.673707 49.714688 174.673707 49.714688 174.673707 
C 49.714688 174.673707 49.714688 174.673707 49.714688 174.673707 
z
" clip-path="url(#pf0616d865c)" style="stroke: #000000"/>
    <path d="M 55.595802 163.058628 
C 55.595802 163.058628 55.595802 163.058628 55.595802 163.058628 
C 55.595802 163.058628 55.595802 163.058628 55.595802 163.058628 
C 55.595802 163.058628 55.595802 163.058628 55.595802 163.058628 
C 55.595802 163.058628 55.595802 163.058628 55.595802 163.058628 
C 55.595802 163.058628 55.595802 163.058628 55.595802 163.058628 
C 55.595802 163.058628 55.595802 163.058628 55.595802 163.058628 
C 55.595802 163.058628 55.595802 163.058628 55.595802 163.058628 
C 55.595802 163.058628 55.595802 163.058628 55.595802 163.058628 
z
" clip-path="url(#pf0616d865c)" style="stroke: #000000"/>
    <path d="M 47.448389 152.998568 
C 47.867712 152.998568 48.269917 152.831969 48.566423 152.535463 
C 48.862929 152.238957 49.029528 151.836752 49.029528 151.417429 
C 49.029528 150.998106 48.862929 150.595901 48.566423 150.299395 
C 48.269917 150.002889 47.867712 149.83629 47.448389 149.83629 
C 47.029066 149.83629 46.626861 150.002889 46.330355 150.299395 
C 46.033849 150.595901 45.86725 150.998106 45.86725 151.417429 
C 45.86725 151.836752 46.033849 152.238957 46.330355 152.535463 
C 46.626861 152.831969 47.029066 152.998568 47.448389 152.998568 
z
" clip-path="url(#pf0616d865c)" style="stroke: #000000"/>
    <path d="M 45.355458 146.63056 
C 45.355458 146.63056 45.355458 146.63056 45.355458 146.63056 
C 45.355458 146.63056 45.355458 146.63056 45.355458 146.63056 
C 45.355458 146.63056 45.355458 146.63056 45.355458 146.63056 
C 45.355458 146.63056 45.355458 146.63056 45.355458 146.63056 
C 45.355458 146.63056 45.355458 146.63056 45.355458 146.63056 
C 45.355458 146.63056 45.355458 146.63056 45.355458 146.63056 
C 45.355458 146.63056 45.355458 146.63056 45.355458 146.63056 
C 45.355458 146.63056 45.355458 146.63056 45.355458 146.63056 
z
" clip-path="url(#pf0616d865c)" style="stroke: #000000"/>
    <path d="M 39.364965 138.062134 
C 39.784288 138.062134 40.186493 137.895536 40.482999 137.59903 
C 40.779505 137.302524 40.946104 136.900319 40.946104 136.480996 
C 40.946104 136.061673 40.779505 135.659468 40.482999 135.362962 
C 40.186493 135.066456 39.784288 134.899857 39.364965 134.899857 
C 38.945643 134.899857 38.543438 135.066456 38.246931 135.362962 
C 37.950425 135.659468 37.783827 136.061673 37.783827 136.480996 
C 37.783827 136.900319 37.950425 137.302524 38.246931 137.59903 
C 38.543438 137.895536 38.945643 138.062134 39.364965 138.062134 
z
" clip-path="url(#pf0616d865c)" style="stroke: #000000"/>
    <path d="M 35.383273 122.602902 
C 35.802858 122.602902 36.205314 122.436199 36.502005 122.139508 
C 36.798696 121.842816 36.965399 121.44036 36.965399 121.020776 
C 36.965399 120.601191 36.798696 120.198735 36.502005 119.902043 
C 36.205314 119.605352 35.802858 119.438649 35.383273 119.438649 
C 34.963688 119.438649 34.561232 119.605352 34.264541 119.902043 
C 33.96785 120.198735 33.801147 120.601191 33.801147 121.020776 
C 33.801147 121.44036 33.96785 121.842816 34.264541 122.139508 
C 34.561232 122.436199 34.963688 122.602902 35.383273 122.602902 
z
" clip-path="url(#pf0616d865c)" style="stroke: #000000"/>
    <path d="M 34.222333 115.382653 
C 34.641656 115.382653 35.043861 115.216054 35.340367 114.919548 
C 35.636873 114.623042 35.803472 114.220837 35.803472 113.801514 
C 35.803472 113.382191 35.636873 112.979986 35.340367 112.68348 
C 35.043861 112.386974 34.641656 112.220376 34.222333 112.220376 
C 33.80301 112.220376 33.400805 112.386974 33.104299 112.68348 
C 32.807793 112.979986 32.641194 113.382191 32.641194 113.801514 
C 32.641194 114.220837 32.807793 114.623042 33.104299 114.919548 
C 33.400805 115.216054 33.80301 115.382653 34.222333 115.382653 
z
" clip-path="url(#pf0616d865c)" style="stroke: #000000"/>
    <path d="M 30.372736 100.492271 
C 30.792059 100.492271 31.194264 100.325673 31.49077 100.029166 
C 31.787276 99.73266 31.953875 99.330455 31.953875 98.911132 
C 31.953875 98.49181 31.787276 98.089605 31.49077 97.793098 
C 31.194264 97.496592 30.792059 97.329994 30.372736 97.329994 
C 29.953413 97.329994 29.551208 97.496592 29.254702 97.793098 
C 28.958196 98.089605 28.791597 98.49181 28.791597 98.911132 
C 28.791597 99.330455 28.958196 99.73266 29.254702 100.029166 
C 29.551208 100.325673 29.953413 100.492271 30.372736 100.492271 
z
" clip-path="url(#pf0616d865c)" style="stroke: #000000"/>
    <path d="M 42.127803 170.353433 
C 42.127803 170.353433 42.127803 170.353433 42.127803 170.353433 
C 42.127803 170.353433 42.127803 170.353433 42.127803 170.353433 
C 42.127803 170.353433 42.127803 170.353433 42.127803 170.353433 
C 42.127803 170.353433 42.127803 170.353433 42.127803 170.353433 
C 42.127803 170.353433 42.127803 170.353433 42.127803 170.353433 
C 42.127803 170.353433 42.127803 170.353433 42.127803 170.353433 
C 42.127803 170.353433 42.127803 170.353433 42.127803 170.353433 
C 42.127803 170.353433 42.127803 170.353433 42.127803 170.353433 
z
" clip-path="url(#pf0616d865c)" style="stroke: #000000"/>
    <path d="M 37.143969 163.567131 
C 37.143969 163.567131 37.143969 163.567131 37.143969 163.567131 
C 37.143969 163.567131 37.143969 163.567131 37.143969 163.567131 
C 37.143969 163.567131 37.143969 163.567131 37.143969 163.567131 
C 37.143969 163.567131 37.143969 163.567131 37.143969 163.567131 
C 37.143969 163.567131 37.143969 163.567131 37.143969 163.567131 
C 37.143969 163.567131 37.143969 163.567131 37.143969 163.567131 
C 37.143969 163.567131 37.143969 163.567131 37.143969 163.567131 
C 37.143969 163.567131 37.143969 163.567131 37.143969 163.567131 
z
" clip-path="url(#pf0616d865c)" style="stroke: #000000"/>
    <path d="M 30.077939 149.374345 
C 30.388918 149.374345 30.687201 149.250792 30.907096 149.030898 
C 31.12699 148.811003 31.250543 148.51272 31.250543 148.201741 
C 31.250543 147.890763 31.12699 147.59248 30.907096 147.372585 
C 30.687201 147.15269 30.388918 147.029137 30.077939 147.029137 
C 29.766961 147.029137 29.468678 147.15269 29.248783 147.372585 
C 29.028888 147.59248 28.905335 147.890763 28.905335 148.201741 
C 28.905335 148.51272 29.028888 148.811003 29.248783 149.030898 
C 29.468678 149.250792 29.766961 149.374345 30.077939 149.374345 
z
" clip-path="url(#pf0616d865c)" style="stroke: #000000"/>
    <path d="M 29.197596 139.385495 
C 29.616919 139.385495 30.019124 139.218896 30.31563 138.92239 
C 30.612136 138.625884 30.778735 138.223679 30.778735 137.804356 
C 30.778735 137.385033 30.612136 136.982828 30.31563 136.686322 
C 30.019124 136.389816 29.616919 136.223217 29.197596 136.223217 
C 28.778273 136.223217 28.376068 136.389816 28.079562 136.686322 
C 27.783056 136.982828 27.616457 137.385033 27.616457 137.804356 
C 27.616457 138.223679 27.783056 138.625884 28.079562 138.92239 
C 28.376068 139.218896 28.778273 139.385495 29.197596 139.385495 
z
" clip-path="url(#pf0616d865c)" style="stroke: #000000"/>
   </g>
   <g id="matplotlib.axis_1">
    <g id="xtick_1">
     <g id="line2d_1">
      <defs>
       <path id="mcee9040e34" d="M 0 0 
L 0 3.5 
" style="stroke: #000000; stroke-width: 0.8"/>
      </defs>
      <g>
       <use xlink:href="#mcee9040e34" x="18" y="189" style="stroke: #000000; stroke-width: 0.8"/>
      </g>
     </g>
     <g id="text_1">
      <!-- 10 -->
      <g transform="translate(7.447656 203.598437)scale(0.1 -0.1)">
       <defs>
        <path id="DejaVuSans-2212" d="M 678 2272 
L 4684 2272 
L 4684 1741 
L 678 1741 
L 678 2272 
z
" transform="scale(0.015625)"/>
        <path id="DejaVuSans-31" d="M 794 531 
L 1825 531 
L 1825 4091 
L 703 3866 
L 703 4441 
L 1819 4666 
L 2450 4666 
L 2450 531 
L 3481 531 
L 3481 0 
L 794 0 
L 794 531 
z
" transform="scale(0.015625)"/>
        <path id="DejaVuSans-30" d="M 2034 4250 
Q 1547 4250 1301 3770 
Q 1056 3291 1056 2328 
Q 1056 1369 1301 889 
Q 1547 409 2034 409 
Q 2525 409 2770 889 
Q 3016 1369 3016 2328 
Q 3016 3291 2770 3770 
Q 2525 4250 2034 4250 
z
M 2034 4750 
Q 2819 4750 3233 4129 
Q 3647 3509 3647 2328 
Q 3647 1150 3233 529 
Q 2819 -91 2034 -91 
Q 1250 -91 836 529 
Q 422 1150 422 2328 
Q 422 3509 836 4129 
Q 1250 4750 2034 4750 
z
" transform="scale(0.015625)"/>
       </defs>
       <use xlink:href="#DejaVuSans-2212"/>
       <use xlink:href="#DejaVuSans-31" x="83.789062"/>
       <use xlink:href="#DejaVuSans-30" x="147.412109"/>
      </g>
     </g>
    </g>
    <g id="xtick_2">
     <g id="line2d_2">
      <g>
       <use xlink:href="#mcee9040e34" x="73.8" y="189" style="stroke: #000000; stroke-width: 0.8"/>
      </g>
     </g>
     <g id="text_2">
      <!-- 0 -->
      <g transform="translate(70.61875 203.598437)scale(0.1 -0.1)">
       <use xlink:href="#DejaVuSans-30"/>
      </g>
     </g>
    </g>
    <g id="xtick_3">
     <g id="line2d_3">
      <g>
       <use xlink:href="#mcee9040e34" x="129.6" y="189" style="stroke: #000000; stroke-width: 0.8"/>
      </g>
     </g>
     <g id="text_3">
      <!-- 10 -->
      <g transform="translate(123.2375 203.598437)scale(0.1 -0.1)">
       <use xlink:href="#DejaVuSans-31"/>
       <use xlink:href="#DejaVuSans-30" x="63.623047"/>
      </g>
     </g>
    </g>
   </g>
   <g id="matplotlib.axis_2">
    <g id="ytick_1">
     <g id="line2d_4">
      <defs>
       <path id="m9486987dbc" d="M 0 0 
L -3.5 0 
" style="stroke: #000000; stroke-width: 0.8"/>
      </defs>
      <g>
       <use xlink:href="#m9486987dbc" x="18" y="189" style="stroke: #000000; stroke-width: 0.8"/>
      </g>
     </g>
     <g id="text_4">
      <!-- 15 -->
      <g transform="translate(-10.104688 192.799219)scale(0.1 -0.1)">
       <defs>
        <path id="DejaVuSans-35" d="M 691 4666 
L 3169 4666 
L 3169 4134 
L 1269 4134 
L 1269 2991 
Q 1406 3038 1543 3061 
Q 1681 3084 1819 3084 
Q 2600 3084 3056 2656 
Q 3513 2228 3513 1497 
Q 3513 744 3044 326 
Q 2575 -91 1722 -91 
Q 1428 -91 1123 -41 
Q 819 9 494 109 
L 494 744 
Q 775 591 1075 516 
Q 1375 441 1709 441 
Q 2250 441 2565 725 
Q 2881 1009 2881 1497 
Q 2881 1984 2565 2268 
Q 2250 2553 1709 2553 
Q 1456 2553 1204 2497 
Q 953 2441 691 2322 
L 691 4666 
z
" transform="scale(0.015625)"/>
       </defs>
       <use xlink:href="#DejaVuSans-2212"/>
       <use xlink:href="#DejaVuSans-31" x="83.789062"/>
       <use xlink:href="#DejaVuSans-35" x="147.412109"/>
      </g>
     </g>
    </g>
    <g id="ytick_2">
     <g id="line2d_5">
      <g>
       <use xlink:href="#m9486987dbc" x="18" y="161.82" style="stroke: #000000; stroke-width: 0.8"/>
      </g>
     </g>
     <g id="text_5">
      <!-- 10 -->
      <g transform="translate(-10.104688 165.619219)scale(0.1 -0.1)">
       <use xlink:href="#DejaVuSans-2212"/>
       <use xlink:href="#DejaVuSans-31" x="83.789062"/>
       <use xlink:href="#DejaVuSans-30" x="147.412109"/>
      </g>
     </g>
    </g>
    <g id="ytick_3">
     <g id="line2d_6">
      <g>
       <use xlink:href="#m9486987dbc" x="18" y="134.64" style="stroke: #000000; stroke-width: 0.8"/>
      </g>
     </g>
     <g id="text_6">
      <!-- 5 -->
      <g transform="translate(-3.742188 138.439219)scale(0.1 -0.1)">
       <use xlink:href="#DejaVuSans-2212"/>
       <use xlink:href="#DejaVuSans-35" x="83.789062"/>
      </g>
     </g>
    </g>
    <g id="ytick_4">
     <g id="line2d_7">
      <g>
       <use xlink:href="#m9486987dbc" x="18" y="107.46" style="stroke: #000000; stroke-width: 0.8"/>
      </g>
     </g>
     <g id="text_7">
      <!-- 0 -->
      <g transform="translate(4.6375 111.259219)scale(0.1 -0.1)">
       <use xlink:href="#DejaVuSans-30"/>
      </g>
     </g>
    </g>
    <g id="ytick_5">
     <g id="line2d_8">
      <g>
       <use xlink:href="#m9486987dbc" x="18" y="80.28" style="stroke: #000000; stroke-width: 0.8"/>
      </g>
     </g>
     <g id="text_8">
      <!-- 5 -->
      <g transform="translate(4.6375 84.079219)scale(0.1 -0.1)">
       <use xlink:href="#DejaVuSans-35"/>
      </g>
     </g>
    </g>
    <g id="ytick_6">
     <g id="line2d_9">
      <g>
       <use xlink:href="#m9486987dbc" x="18" y="53.1" style="stroke: #000000; stroke-width: 0.8"/>
      </g>
     </g>
     <g id="text_9">
      <!-- 10 -->
      <g transform="translate(-1.725 56.899219)scale(0.1 -0.1)">
       <use xlink:href="#DejaVuSans-31"/>
       <use xlink:href="#DejaVuSans-30" x="63.623047"/>
      </g>
     </g>
    </g>
    <g id="ytick_7">
     <g id="line2d_10">
      <g>
       <use xlink:href="#m9486987dbc" x="18" y="25.92" style="stroke: #000000; stroke-width: 0.8"/>
      </g>
     </g>
     <g id="text_10">
      <!-- 15 -->
      <g transform="translate(-1.725 29.719219)scale(0.1 -0.1)">
       <use xlink:href="#DejaVuSans-31"/>
       <use xlink:href="#DejaVuSans-35" x="63.623047"/>
      </g>
     </g>
    </g>
   </g>
   <g id="patch_3">
    <path d="M 18 189 
L 18 25.92 
" style="fill: none; stroke: #000000; stroke-width: 0.8; stroke-linejoin: miter; stroke-linecap: square"/>
   </g>
   <g id="patch_4">
    <path d="M 129.6 189 
L 129.6 25.92 
" style="fill: none; stroke: #000000; stroke-width: 0.8; stroke-linejoin: miter; stroke-linecap: square"/>
   </g>
   <g id="patch_5">
    <path d="M 18 189 
L 129.6 189 
" style="fill: none; stroke: #000000; stroke-width: 0.8; stroke-linejoin: miter; stroke-linecap: square"/>
   </g>
   <g id="patch_6">
    <path d="M 18 25.92 
L 129.6 25.92 
" style="fill: none; stroke: #000000; stroke-width: 0.8; stroke-linejoin: miter; stroke-linecap: square"/>
   </g>
  </g>
 </g>
 <defs>
  <clipPath id="pf0616d865c">
   <rect x="18" y="25.92" width="111.6" height="163.08"/>
  </clipPath>
 </defs>
</svg>
