<?xml version="1.0" encoding="utf-8" standalone="no"?>
<!DOCTYPE svg PUBLIC "-//W3C//DTD SVG 1.1//EN"
  "http://www.w3.org/Graphics/SVG/1.1/DTD/svg11.dtd">
<svg xmlns:xlink="http://www.w3.org/1999/xlink" width="144pt" height="216pt" viewBox="0 0 144 216" xmlns="http://www.w3.org/2000/svg" version="1.1">
 <metadata>
  <rdf:RDF xmlns:dc="http://purl.org/dc/elements/1.1/" xmlns:cc="http://creativecommons.org/ns#" xmlns:rdf="http://www.w3.org/1999/02/22-rdf-syntax-ns#">
   <cc:Work>
    <dc:type rdf:resource="http://purl.org/dc/dcmitype/StillImage"/>
    <dc:date>2022-06-28T09:24:57.758694</dc:date>
    <dc:format>image/svg+xml</dc:format>
    <dc:creator>
     <cc:Agent>
      <dc:title>Matplotlib v3.5.1, https://matplotlib.org/</dc:title>
     </cc:Agent>
    </dc:creator>
   </cc:Work>
  </rdf:RDF>
 </metadata>
 <defs>
  <style type="text/css">*{stroke-linejoin: round; stroke-linecap: butt}</style>
 </defs>
 <g id="figure_1">
  <g id="patch_1">
   <path d="M 0 216 
L 144 216 
L 144 0 
L 0 0 
L 0 216 
z
" style="fill: none"/>
  </g>
  <g id="axes_1">
   <g id="patch_2">
    <path d="M 18 189 
L 129.6 189 
L 129.6 25.92 
L 18 25.92 
z
" style="fill: #ffffff"/>
   </g>
   <g id="PathCollection_1">
    <defs>
     <path id="m8d89bf90ac" d="M 0 2.738613 
C 0.726289 2.738613 1.422928 2.450055 1.936492 1.936492 
C 2.450055 1.422928 2.738613 0.726289 2.738613 0 
C 2.738613 -0.726289 2.450055 -1.422928 1.936492 -1.936492 
C 1.422928 -2.450055 0.726289 -2.738613 0 -2.738613 
C -0.726289 -2.738613 -1.422928 -2.450055 -1.936492 -1.936492 
C -2.450055 -1.422928 -2.738613 -0.726289 -2.738613 0 
C -2.738613 0.726289 -2.450055 1.422928 -1.936492 1.936492 
C -1.422928 2.450055 -0.726289 2.738613 0 2.738613 
z
" style="stroke: #ff0000; stroke-width: 1.75"/>
    </defs>
    <g clip-path="url(#pa717adf5f6)">
     <use xlink:href="#m8d89bf90ac" x="80.775" y="107.46" style="fill: #ff0000; stroke: #ff0000; stroke-width: 1.75"/>
     <use xlink:href="#m8d89bf90ac" x="94.725" y="107.46" style="fill: #ff0000; stroke: #ff0000; stroke-width: 1.75"/>
     <use xlink:href="#m8d89bf90ac" x="59.85" y="119.229285" style="fill: #ff0000; stroke: #ff0000; stroke-width: 1.75"/>
     <use xlink:href="#m8d89bf90ac" x="73.8" y="119.229285" style="fill: #ff0000; stroke: #ff0000; stroke-width: 1.75"/>
     <use xlink:href="#m8d89bf90ac" x="87.75" y="119.229285" style="fill: #ff0000; stroke: #ff0000; stroke-width: 1.75"/>
     <use xlink:href="#m8d89bf90ac" x="66.825" y="130.99857" style="fill: #ff0000; stroke: #ff0000; stroke-width: 1.75"/>
     <use xlink:href="#m8d89bf90ac" x="80.775" y="130.99857" style="fill: #ff0000; stroke: #ff0000; stroke-width: 1.75"/>
    </g>
   </g>
   <g id="PathCollection_2">
    <defs>
     <path id="C0_0_d8941b6d2d" d="M 0 2.738613 
C 0.726289 2.738613 1.422928 2.450055 1.936492 1.936492 
C 2.450055 1.422928 2.738613 0.726289 2.738613 -0 
C 2.738613 -0.726289 2.450055 -1.422928 1.936492 -1.936492 
C 1.422928 -2.450055 0.726289 -2.738613 0 -2.738613 
C -0.726289 -2.738613 -1.422928 -2.450055 -1.936492 -1.936492 
C -2.450055 -1.422928 -2.738613 -0.726289 -2.738613 0 
C -2.738613 0.726289 -2.450055 1.422928 -1.936492 1.936492 
C -1.422928 2.450055 -0.726289 2.738613 0 2.738613 
z
"/>
    </defs>
    <g clip-path="url(#pa717adf5f6)">
     <use xlink:href="#C0_0_d8941b6d2d" x="66.825" y="83.92143" style="fill: none; stroke: #ff0000; stroke-width: 1.75"/>
    </g>
    <g clip-path="url(#pa717adf5f6)">
     <use xlink:href="#C0_0_d8941b6d2d" x="80.775" y="83.92143" style="fill: none; stroke: #ff0000; stroke-width: 1.75"/>
    </g>
    <g clip-path="url(#pa717adf5f6)">
     <use xlink:href="#C0_0_d8941b6d2d" x="59.85" y="95.690715" style="fill: none; stroke: #ff0000; stroke-width: 1.75"/>
    </g>
    <g clip-path="url(#pa717adf5f6)">
     <use xlink:href="#C0_0_d8941b6d2d" x="73.8" y="95.690715" style="fill: none; stroke: #ff0000; stroke-width: 1.75"/>
    </g>
    <g clip-path="url(#pa717adf5f6)">
     <use xlink:href="#C0_0_d8941b6d2d" x="87.75" y="95.690715" style="fill: none; stroke: #ff0000; stroke-width: 1.75"/>
    </g>
    <g clip-path="url(#pa717adf5f6)">
     <use xlink:href="#C0_0_d8941b6d2d" x="52.875" y="107.46" style="fill: none; stroke: #ff0000; stroke-width: 1.75"/>
    </g>
    <g clip-path="url(#pa717adf5f6)">
     <use xlink:href="#C0_0_d8941b6d2d" x="66.825" y="107.46" style="fill: none; stroke: #ff0000; stroke-width: 1.75"/>
    </g>
   </g>
   <g id="PathCollection_3">
    <path d="M 97.43029 109.80611 
C 98.025513 109.80611 98.596438 109.569625 99.017325 109.148739 
C 99.438211 108.727852 99.674696 108.156927 99.674696 107.561704 
C 99.674696 106.96648 99.438211 106.395555 99.017325 105.974668 
C 98.596438 105.553782 98.025513 105.317297 97.43029 105.317297 
C 96.835066 105.317297 96.264141 105.553782 95.843255 105.974668 
C 95.422368 106.395555 95.185883 106.96648 95.185883 107.561704 
C 95.185883 108.156927 95.422368 108.727852 95.843255 109.148739 
C 96.264141 109.569625 96.835066 109.80611 97.43029 109.80611 
z
" clip-path="url(#pa717adf5f6)" style="stroke: #000000"/>
    <path d="M 91.655833 110.430242 
C 91.830346 110.430242 91.997736 110.360907 92.121135 110.237507 
C 92.244535 110.114107 92.31387 109.946718 92.31387 109.772205 
C 92.31387 109.597691 92.244535 109.430302 92.121135 109.306902 
C 91.997736 109.183502 91.830346 109.114168 91.655833 109.114168 
C 91.481319 109.114168 91.31393 109.183502 91.19053 109.306902 
C 91.067131 109.430302 90.997796 109.597691 90.997796 109.772205 
C 90.997796 109.946718 91.067131 110.114107 91.19053 110.237507 
C 91.31393 110.360907 91.481319 110.430242 91.655833 110.430242 
z
" clip-path="url(#pa717adf5f6)" style="stroke: #000000"/>
    <path d="M 85.073589 106.831635 
C 85.436329 106.831635 85.784261 106.687517 86.040757 106.431021 
C 86.297253 106.174525 86.441371 105.826593 86.441371 105.463853 
C 86.441371 105.101113 86.297253 104.753181 86.040757 104.496685 
C 85.784261 104.240189 85.436329 104.09607 85.073589 104.09607 
C 84.710849 104.09607 84.362917 104.240189 84.106421 104.496685 
C 83.849925 104.753181 83.705806 105.101113 83.705806 105.463853 
C 83.705806 105.826593 83.849925 106.174525 84.106421 106.431021 
C 84.362917 106.687517 84.710849 106.831635 85.073589 106.831635 
z
" clip-path="url(#pa717adf5f6)" style="stroke: #000000"/>
    <path d="M 88.826632 100.12764 
C 89.257039 100.12764 89.669876 99.956638 89.974219 99.652294 
C 90.278563 99.34795 90.449566 98.935114 90.449566 98.504707 
C 90.449566 98.0743 90.278563 97.661463 89.974219 97.35712 
C 89.669876 97.052776 89.257039 96.881773 88.826632 96.881773 
C 88.396225 96.881773 87.983388 97.052776 87.679045 97.35712 
C 87.374701 97.661463 87.203699 98.0743 87.203699 98.504707 
C 87.203699 98.935114 87.374701 99.34795 87.679045 99.652294 
C 87.983388 99.956638 88.396225 100.12764 88.826632 100.12764 
z
" clip-path="url(#pa717adf5f6)" style="stroke: #000000"/>
    <path d="M 83.208467 87.175891 
C 83.809113 87.175891 84.38524 86.937252 84.809962 86.51253 
C 85.234683 86.087809 85.473322 85.511682 85.473322 84.911035 
C 85.473322 84.310389 85.234683 83.734262 84.809962 83.309541 
C 84.38524 82.884819 83.809113 82.64618 83.208467 82.64618 
C 82.60782 82.64618 82.031693 82.884819 81.606972 83.309541 
C 81.182251 83.734262 80.943611 84.310389 80.943611 84.911035 
C 80.943611 85.511682 81.182251 86.087809 81.606972 86.51253 
C 82.031693 86.937252 82.60782 87.175891 83.208467 87.175891 
z
" clip-path="url(#pa717adf5f6)" style="stroke: #000000"/>
    <path d="M 80.460069 80.387414 
C 80.647596 80.387414 80.827467 80.312909 80.960069 80.180307 
C 81.092671 80.047706 81.167176 79.867834 81.167176 79.680307 
C 81.167176 79.492781 81.092671 79.312909 80.960069 79.180307 
C 80.827467 79.047706 80.647596 78.973201 80.460069 78.973201 
C 80.272542 78.973201 80.092671 79.047706 79.960069 79.180307 
C 79.827467 79.312909 79.752962 79.492781 79.752962 79.680307 
C 79.752962 79.867834 79.827467 80.047706 79.960069 80.180307 
C 80.092671 80.312909 80.272542 80.387414 80.460069 80.387414 
z
" clip-path="url(#pa717adf5f6)" style="stroke: #000000"/>
    <path d="M 86.8111 120.066608 
C 87.318268 120.066608 87.804732 119.865108 88.163354 119.506486 
C 88.521976 119.147864 88.723476 118.6614 88.723476 118.154232 
C 88.723476 117.647064 88.521976 117.160599 88.163354 116.801977 
C 87.804732 116.443355 87.318268 116.241855 86.8111 116.241855 
C 86.303931 116.241855 85.817467 116.443355 85.458845 116.801977 
C 85.100223 117.160599 84.898723 117.647064 84.898723 118.154232 
C 84.898723 118.6614 85.100223 119.147864 85.458845 119.506486 
C 85.817467 119.865108 86.303931 120.066608 86.8111 120.066608 
z
" clip-path="url(#pa717adf5f6)" style="stroke: #000000"/>
    <path d="M 82.17071 108.09462 
C 82.684273 108.09462 83.176872 107.890579 83.540016 107.527435 
C 83.903161 107.16429 84.107202 106.671692 84.107202 106.158128 
C 84.107202 105.644565 83.903161 105.151966 83.540016 104.788822 
C 83.176872 104.425678 82.684273 104.221637 82.17071 104.221637 
C 81.657146 104.221637 81.164548 104.425678 80.801403 104.788822 
C 80.438259 105.151966 80.234218 105.644565 80.234218 106.158128 
C 80.234218 106.671692 80.438259 107.16429 80.801403 107.527435 
C 81.164548 107.890579 81.657146 108.09462 82.17071 108.09462 
z
" clip-path="url(#pa717adf5f6)" style="stroke: #000000"/>
    <path d="M 77.89278 96.009276 
C 78.091065 96.009276 78.281256 95.930496 78.421465 95.790287 
C 78.561674 95.650078 78.640454 95.459887 78.640454 95.261602 
C 78.640454 95.063316 78.561674 94.873125 78.421465 94.732916 
C 78.281256 94.592707 78.091065 94.513927 77.89278 94.513927 
C 77.694494 94.513927 77.504303 94.592707 77.364094 94.732916 
C 77.223885 94.873125 77.145105 95.063316 77.145105 95.261602 
C 77.145105 95.459887 77.223885 95.650078 77.364094 95.790287 
C 77.504303 95.930496 77.694494 96.009276 77.89278 96.009276 
z
" clip-path="url(#pa717adf5f6)" style="stroke: #000000"/>
    <path d="M 79.451148 130.03398 
C 79.971974 130.03398 80.471539 129.827053 80.839818 129.458773 
C 81.208098 129.090494 81.415025 128.590929 81.415025 128.070103 
C 81.415025 127.549277 81.208098 127.049712 80.839818 126.681432 
C 80.471539 126.313152 79.971974 126.106226 79.451148 126.106226 
C 78.930322 126.106226 78.430757 126.313152 78.062477 126.681432 
C 77.694197 127.049712 77.487271 127.549277 77.487271 128.070103 
C 77.487271 128.590929 77.694197 129.090494 78.062477 129.458773 
C 78.430757 129.827053 78.930322 130.03398 79.451148 130.03398 
z
" clip-path="url(#pa717adf5f6)" style="stroke: #000000"/>
    <path d="M 72.54799 95.880637 
C 73.062692 95.880637 73.556381 95.676144 73.92033 95.312196 
C 74.284278 94.948247 74.488771 94.454557 74.488771 93.939856 
C 74.488771 93.425155 74.284278 92.931466 73.92033 92.567517 
C 73.556381 92.203569 73.062692 91.999076 72.54799 91.999076 
C 72.033289 91.999076 71.5396 92.203569 71.175651 92.567517 
C 70.811703 92.931466 70.60721 93.425155 70.60721 93.939856 
C 70.60721 94.454557 70.811703 94.948247 71.175651 95.312196 
C 71.5396 95.676144 72.033289 95.880637 72.54799 95.880637 
z
" clip-path="url(#pa717adf5f6)" style="stroke: #000000"/>
    <path d="M 68.884622 86.789375 
C 69.4087 86.789375 69.911384 86.581156 70.281963 86.210577 
C 70.652542 85.839998 70.86076 85.337314 70.86076 84.813236 
C 70.86076 84.289158 70.652542 83.786474 70.281963 83.415895 
C 69.911384 83.045316 69.4087 82.837097 68.884622 82.837097 
C 68.360543 82.837097 67.85786 83.045316 67.48728 83.415895 
C 67.116701 83.786474 66.908483 84.289158 66.908483 84.813236 
C 66.908483 85.337314 67.116701 85.839998 67.48728 86.210577 
C 67.85786 86.581156 68.360543 86.789375 68.884622 86.789375 
z
" clip-path="url(#pa717adf5f6)" style="stroke: #000000"/>
    <path d="M 75.439545 134.93811 
C 75.572146 134.93811 75.699335 134.885427 75.793098 134.791663 
C 75.886862 134.6979 75.939545 134.570712 75.939545 134.43811 
C 75.939545 134.305509 75.886862 134.17832 75.793098 134.084557 
C 75.699335 133.990793 75.572146 133.93811 75.439545 133.93811 
C 75.306943 133.93811 75.179755 133.990793 75.085991 134.084557 
C 74.992228 134.17832 74.939545 134.305509 74.939545 134.43811 
C 74.939545 134.570712 74.992228 134.6979 75.085991 134.791663 
C 75.179755 134.885427 75.306943 134.93811 75.439545 134.93811 
z
" clip-path="url(#pa717adf5f6)" style="stroke: #000000"/>
    <path d="M 76.877193 130.733381 
C 77.128981 130.733381 77.37049 130.633345 77.548531 130.455304 
C 77.726571 130.277263 77.826608 130.035754 77.826608 129.783967 
C 77.826608 129.532179 77.726571 129.29067 77.548531 129.112629 
C 77.37049 128.934589 77.128981 128.834552 76.877193 128.834552 
C 76.625406 128.834552 76.383897 128.934589 76.205856 129.112629 
C 76.027815 129.29067 75.927779 129.532179 75.927779 129.783967 
C 75.927779 130.035754 76.027815 130.277263 76.205856 130.455304 
C 76.383897 130.633345 76.625406 130.733381 76.877193 130.733381 
z
" clip-path="url(#pa717adf5f6)" style="stroke: #000000"/>
    <path d="M 74.837685 122.828171 
C 75.285433 122.828171 75.714904 122.650278 76.03151 122.333672 
C 76.348116 122.017066 76.526009 121.587595 76.526009 121.139846 
C 76.526009 120.692098 76.348116 120.262627 76.03151 119.946021 
C 75.714904 119.629415 75.285433 119.451522 74.837685 119.451522 
C 74.389936 119.451522 73.960465 119.629415 73.643859 119.946021 
C 73.327253 120.262627 73.14936 120.692098 73.14936 121.139846 
C 73.14936 121.587595 73.327253 122.017066 73.643859 122.333672 
C 73.960465 122.650278 74.389936 122.828171 74.837685 122.828171 
z
" clip-path="url(#pa717adf5f6)" style="stroke: #000000"/>
    <path d="M 71.823752 120.434444 
C 72.337885 120.434444 72.83103 120.230177 73.194577 119.86663 
C 73.558124 119.503083 73.762392 119.009938 73.762392 118.495804 
C 73.762392 117.981671 73.558124 117.488526 73.194577 117.124979 
C 72.83103 116.761432 72.337885 116.557165 71.823752 116.557165 
C 71.309619 116.557165 70.816474 116.761432 70.452927 117.124979 
C 70.089379 117.488526 69.885112 117.981671 69.885112 118.495804 
C 69.885112 119.009938 70.089379 119.503083 70.452927 119.86663 
C 70.816474 120.230177 71.309619 120.434444 71.823752 120.434444 
z
" clip-path="url(#pa717adf5f6)" style="stroke: #000000"/>
    <path d="M 67.938949 107.775033 
C 68.456462 107.775033 68.952848 107.569423 69.318784 107.203487 
C 69.68472 106.83755 69.89033 106.341164 69.89033 105.823652 
C 69.89033 105.30614 69.68472 104.809754 69.318784 104.443818 
C 68.952848 104.077881 68.456462 103.872272 67.938949 103.872272 
C 67.421437 103.872272 66.925051 104.077881 66.559115 104.443818 
C 66.193179 104.809754 65.987569 105.30614 65.987569 105.823652 
C 65.987569 106.341164 66.193179 106.83755 66.559115 107.203487 
C 66.925051 107.569423 67.421437 107.775033 67.938949 107.775033 
z
" clip-path="url(#pa717adf5f6)" style="stroke: #000000"/>
    <path d="M 64.784122 97.263923 
C 64.916724 97.263923 65.043912 97.21124 65.137676 97.117476 
C 65.231439 97.023713 65.284122 96.896524 65.284122 96.763923 
C 65.284122 96.631321 65.231439 96.504133 65.137676 96.410369 
C 65.043912 96.316606 64.916724 96.263923 64.784122 96.263923 
C 64.651521 96.263923 64.524332 96.316606 64.430569 96.410369 
C 64.336805 96.504133 64.284122 96.631321 64.284122 96.763923 
C 64.284122 96.896524 64.336805 97.023713 64.430569 97.117476 
C 64.524332 97.21124 64.651521 97.263923 64.784122 97.263923 
z
" clip-path="url(#pa717adf5f6)" style="stroke: #000000"/>
    <path d="M 62.659 95.291378 
C 63.12536 95.291378 63.572682 95.106091 63.902448 94.776325 
C 64.232215 94.446558 64.417502 93.999236 64.417502 93.532876 
C 64.417502 93.066516 64.232215 92.619194 63.902448 92.289428 
C 63.572682 91.959661 63.12536 91.774374 62.659 91.774374 
C 62.19264 91.774374 61.745317 91.959661 61.415551 92.289428 
C 61.085785 92.619194 60.900498 93.066516 60.900498 93.532876 
C 60.900498 93.999236 61.085785 94.446558 61.415551 94.776325 
C 61.745317 95.106091 62.19264 95.291378 62.659 95.291378 
z
" clip-path="url(#pa717adf5f6)" style="stroke: #000000"/>
    <path d="M 56.600715 72.793324 
C 56.733316 72.793324 56.860505 72.740641 56.954268 72.646877 
C 57.048032 72.553114 57.100715 72.425926 57.100715 72.293324 
C 57.100715 72.160722 57.048032 72.033534 56.954268 71.939771 
C 56.860505 71.846007 56.733316 71.793324 56.600715 71.793324 
C 56.468113 71.793324 56.340925 71.846007 56.247161 71.939771 
C 56.153398 72.033534 56.100715 72.160722 56.100715 72.293324 
C 56.100715 72.425926 56.153398 72.553114 56.247161 72.646877 
C 56.340925 72.740641 56.468113 72.793324 56.600715 72.793324 
z
" clip-path="url(#pa717adf5f6)" style="stroke: #000000"/>
    <path d="M 69.486775 134.724424 
C 69.908179 134.724424 70.31238 134.556998 70.610358 134.25902 
C 70.908335 133.961043 71.075761 133.556842 71.075761 133.135438 
C 71.075761 132.714034 70.908335 132.309833 70.610358 132.011855 
C 70.31238 131.713877 69.908179 131.546452 69.486775 131.546452 
C 69.065371 131.546452 68.66117 131.713877 68.363192 132.011855 
C 68.065215 132.309833 67.897789 132.714034 67.897789 133.135438 
C 67.897789 133.556842 68.065215 133.961043 68.363192 134.25902 
C 68.66117 134.556998 69.065371 134.724424 69.486775 134.724424 
z
" clip-path="url(#pa717adf5f6)" style="stroke: #000000"/>
    <path d="M 62.110978 106.08815 
C 62.24358 106.08815 62.370768 106.035467 62.464532 105.941704 
C 62.558295 105.84794 62.610978 105.720752 62.610978 105.58815 
C 62.610978 105.455549 62.558295 105.32836 62.464532 105.234597 
C 62.370768 105.140833 62.24358 105.08815 62.110978 105.08815 
C 61.978377 105.08815 61.851188 105.140833 61.757425 105.234597 
C 61.663662 105.32836 61.610978 105.455549 61.610978 105.58815 
C 61.610978 105.720752 61.663662 105.84794 61.757425 105.941704 
C 61.851188 106.035467 61.978377 106.08815 62.110978 106.08815 
z
" clip-path="url(#pa717adf5f6)" style="stroke: #000000"/>
    <path d="M 59.835462 100.288283 
C 60.348454 100.288283 60.840505 100.084469 61.203245 99.721729 
C 61.565985 99.358989 61.769799 98.866939 61.769799 98.353947 
C 61.769799 97.840955 61.565985 97.348905 61.203245 96.986165 
C 60.840505 96.623424 60.348454 96.41961 59.835462 96.41961 
C 59.32247 96.41961 58.83042 96.623424 58.46768 96.986165 
C 58.10494 97.348905 57.901126 97.840955 57.901126 98.353947 
C 57.901126 98.866939 58.10494 99.358989 58.46768 99.721729 
C 58.83042 100.084469 59.32247 100.288283 59.835462 100.288283 
z
" clip-path="url(#pa717adf5f6)" style="stroke: #000000"/>
    <path d="M 58.410556 98.212935 
C 58.958229 98.212935 59.483545 97.995342 59.870809 97.608078 
C 60.258073 97.220814 60.475666 96.695498 60.475666 96.147825 
C 60.475666 95.600151 60.258073 95.074835 59.870809 94.687571 
C 59.483545 94.300307 58.958229 94.082714 58.410556 94.082714 
C 57.862882 94.082714 57.337566 94.300307 56.950302 94.687571 
C 56.563038 95.074835 56.345445 95.600151 56.345445 96.147825 
C 56.345445 96.695498 56.563038 97.220814 56.950302 97.608078 
C 57.337566 97.995342 57.862882 98.212935 58.410556 98.212935 
z
" clip-path="url(#pa717adf5f6)" style="stroke: #000000"/>
    <path d="M 63.896264 134.591429 
C 64.195692 134.591429 64.482896 134.472465 64.694623 134.260738 
C 64.906351 134.049011 65.025314 133.761806 65.025314 133.462379 
C 65.025314 133.162951 64.906351 132.875747 64.694623 132.664019 
C 64.482896 132.452292 64.195692 132.333328 63.896264 132.333328 
C 63.596836 132.333328 63.309632 132.452292 63.097905 132.664019 
C 62.886177 132.875747 62.767214 133.162951 62.767214 133.462379 
C 62.767214 133.761806 62.886177 134.049011 63.097905 134.260738 
C 63.309632 134.472465 63.596836 134.591429 63.896264 134.591429 
z
" clip-path="url(#pa717adf5f6)" style="stroke: #000000"/>
    <path d="M 58.915627 123.654301 
C 59.370932 123.654301 59.80765 123.473407 60.129599 123.151457 
C 60.451548 122.829508 60.632443 122.39279 60.632443 121.937485 
C 60.632443 121.48218 60.451548 121.045462 60.129599 120.723513 
C 59.80765 120.401564 59.370932 120.22067 58.915627 120.22067 
C 58.460322 120.22067 58.023604 120.401564 57.701655 120.723513 
C 57.379706 121.045462 57.198811 121.48218 57.198811 121.937485 
C 57.198811 122.39279 57.379706 122.829508 57.701655 123.151457 
C 58.023604 123.473407 58.460322 123.654301 58.915627 123.654301 
z
" clip-path="url(#pa717adf5f6)" style="stroke: #000000"/>
    <path d="M 56.757117 115.769912 
C 56.889718 115.769912 57.016907 115.717229 57.11067 115.623466 
C 57.204434 115.529702 57.257117 115.402514 57.257117 115.269912 
C 57.257117 115.137311 57.204434 115.010122 57.11067 114.916359 
C 57.016907 114.822596 56.889718 114.769912 56.757117 114.769912 
C 56.624515 114.769912 56.497327 114.822596 56.403563 114.916359 
C 56.3098 115.010122 56.257117 115.137311 56.257117 115.269912 
C 56.257117 115.402514 56.3098 115.529702 56.403563 115.623466 
C 56.497327 115.717229 56.624515 115.769912 56.757117 115.769912 
z
" clip-path="url(#pa717adf5f6)" style="stroke: #000000"/>
    <path d="M 52.837971 110.84092 
C 53.363652 110.84092 53.867874 110.632065 54.239587 110.260352 
C 54.6113 109.888639 54.820156 109.384417 54.820156 108.858735 
C 54.820156 108.333054 54.6113 107.828832 54.239587 107.457119 
C 53.867874 107.085405 53.363652 106.87655 52.837971 106.87655 
C 52.312289 106.87655 51.808067 107.085405 51.436354 107.457119 
C 51.064641 107.828832 50.855785 108.333054 50.855785 108.858735 
C 50.855785 109.384417 51.064641 109.888639 51.436354 110.260352 
C 51.808067 110.632065 52.312289 110.84092 52.837971 110.84092 
z
" clip-path="url(#pa717adf5f6)" style="stroke: #000000"/>
   </g>
   <g id="matplotlib.axis_1">
    <g id="xtick_1">
     <g id="line2d_1">
      <defs>
       <path id="mdd54286972" d="M 0 0 
L 0 3.5 
" style="stroke: #000000; stroke-width: 0.8"/>
      </defs>
      <g>
       <use xlink:href="#mdd54286972" x="18" y="189" style="stroke: #000000; stroke-width: 0.8"/>
      </g>
     </g>
     <g id="text_1">
      <!-- −10 -->
      <g transform="translate(7.447656 203.598437)scale(0.1 -0.1)">
       <defs>
        <path id="DejaVuSans-2212" d="M 678 2272 
L 4684 2272 
L 4684 1741 
L 678 1741 
L 678 2272 
z
" transform="scale(0.015625)"/>
        <path id="DejaVuSans-31" d="M 794 531 
L 1825 531 
L 1825 4091 
L 703 3866 
L 703 4441 
L 1819 4666 
L 2450 4666 
L 2450 531 
L 3481 531 
L 3481 0 
L 794 0 
L 794 531 
z
" transform="scale(0.015625)"/>
        <path id="DejaVuSans-30" d="M 2034 4250 
Q 1547 4250 1301 3770 
Q 1056 3291 1056 2328 
Q 1056 1369 1301 889 
Q 1547 409 2034 409 
Q 2525 409 2770 889 
Q 3016 1369 3016 2328 
Q 3016 3291 2770 3770 
Q 2525 4250 2034 4250 
z
M 2034 4750 
Q 2819 4750 3233 4129 
Q 3647 3509 3647 2328 
Q 3647 1150 3233 529 
Q 2819 -91 2034 -91 
Q 1250 -91 836 529 
Q 422 1150 422 2328 
Q 422 3509 836 4129 
Q 1250 4750 2034 4750 
z
" transform="scale(0.015625)"/>
       </defs>
       <use xlink:href="#DejaVuSans-2212"/>
       <use xlink:href="#DejaVuSans-31" x="83.789062"/>
       <use xlink:href="#DejaVuSans-30" x="147.412109"/>
      </g>
     </g>
    </g>
    <g id="xtick_2">
     <g id="line2d_2">
      <g>
       <use xlink:href="#mdd54286972" x="73.8" y="189" style="stroke: #000000; stroke-width: 0.8"/>
      </g>
     </g>
     <g id="text_2">
      <!-- 0 -->
      <g transform="translate(70.61875 203.598437)scale(0.1 -0.1)">
       <use xlink:href="#DejaVuSans-30"/>
      </g>
     </g>
    </g>
    <g id="xtick_3">
     <g id="line2d_3">
      <g>
       <use xlink:href="#mdd54286972" x="129.6" y="189" style="stroke: #000000; stroke-width: 0.8"/>
      </g>
     </g>
     <g id="text_3">
      <!-- 10 -->
      <g transform="translate(123.2375 203.598437)scale(0.1 -0.1)">
       <use xlink:href="#DejaVuSans-31"/>
       <use xlink:href="#DejaVuSans-30" x="63.623047"/>
      </g>
     </g>
    </g>
   </g>
   <g id="matplotlib.axis_2">
    <g id="ytick_1">
     <g id="line2d_4">
      <defs>
       <path id="mf8f98a8673" d="M 0 0 
L -3.5 0 
" style="stroke: #000000; stroke-width: 0.8"/>
      </defs>
      <g>
       <use xlink:href="#mf8f98a8673" x="18" y="189" style="stroke: #000000; stroke-width: 0.8"/>
      </g>
     </g>
     <g id="text_4">
      <!-- −15 -->
      <g transform="translate(-10.104688 192.799219)scale(0.1 -0.1)">
       <defs>
        <path id="DejaVuSans-35" d="M 691 4666 
L 3169 4666 
L 3169 4134 
L 1269 4134 
L 1269 2991 
Q 1406 3038 1543 3061 
Q 1681 3084 1819 3084 
Q 2600 3084 3056 2656 
Q 3513 2228 3513 1497 
Q 3513 744 3044 326 
Q 2575 -91 1722 -91 
Q 1428 -91 1123 -41 
Q 819 9 494 109 
L 494 744 
Q 775 591 1075 516 
Q 1375 441 1709 441 
Q 2250 441 2565 725 
Q 2881 1009 2881 1497 
Q 2881 1984 2565 2268 
Q 2250 2553 1709 2553 
Q 1456 2553 1204 2497 
Q 953 2441 691 2322 
L 691 4666 
z
" transform="scale(0.015625)"/>
       </defs>
       <use xlink:href="#DejaVuSans-2212"/>
       <use xlink:href="#DejaVuSans-31" x="83.789062"/>
       <use xlink:href="#DejaVuSans-35" x="147.412109"/>
      </g>
     </g>
    </g>
    <g id="ytick_2">
     <g id="line2d_5">
      <g>
       <use xlink:href="#mf8f98a8673" x="18" y="161.82" style="stroke: #000000; stroke-width: 0.8"/>
      </g>
     </g>
     <g id="text_5">
      <!-- −10 -->
      <g transform="translate(-10.104688 165.619219)scale(0.1 -0.1)">
       <use xlink:href="#DejaVuSans-2212"/>
       <use xlink:href="#DejaVuSans-31" x="83.789062"/>
       <use xlink:href="#DejaVuSans-30" x="147.412109"/>
      </g>
     </g>
    </g>
    <g id="ytick_3">
     <g id="line2d_6">
      <g>
       <use xlink:href="#mf8f98a8673" x="18" y="134.64" style="stroke: #000000; stroke-width: 0.8"/>
      </g>
     </g>
     <g id="text_6">
      <!-- −5 -->
      <g transform="translate(-3.742188 138.439219)scale(0.1 -0.1)">
       <use xlink:href="#DejaVuSans-2212"/>
       <use xlink:href="#DejaVuSans-35" x="83.789062"/>
      </g>
     </g>
    </g>
    <g id="ytick_4">
     <g id="line2d_7">
      <g>
       <use xlink:href="#mf8f98a8673" x="18" y="107.46" style="stroke: #000000; stroke-width: 0.8"/>
      </g>
     </g>
     <g id="text_7">
      <!-- 0 -->
      <g transform="translate(4.6375 111.259219)scale(0.1 -0.1)">
       <use xlink:href="#DejaVuSans-30"/>
      </g>
     </g>
    </g>
    <g id="ytick_5">
     <g id="line2d_8">
      <g>
       <use xlink:href="#mf8f98a8673" x="18" y="80.28" style="stroke: #000000; stroke-width: 0.8"/>
      </g>
     </g>
     <g id="text_8">
      <!-- 5 -->
      <g transform="translate(4.6375 84.079219)scale(0.1 -0.1)">
       <use xlink:href="#DejaVuSans-35"/>
      </g>
     </g>
    </g>
    <g id="ytick_6">
     <g id="line2d_9">
      <g>
       <use xlink:href="#mf8f98a8673" x="18" y="53.1" style="stroke: #000000; stroke-width: 0.8"/>
      </g>
     </g>
     <g id="text_9">
      <!-- 10 -->
      <g transform="translate(-1.725 56.899219)scale(0.1 -0.1)">
       <use xlink:href="#DejaVuSans-31"/>
       <use xlink:href="#DejaVuSans-30" x="63.623047"/>
      </g>
     </g>
    </g>
    <g id="ytick_7">
     <g id="line2d_10">
      <g>
       <use xlink:href="#mf8f98a8673" x="18" y="25.92" style="stroke: #000000; stroke-width: 0.8"/>
      </g>
     </g>
     <g id="text_10">
      <!-- 15 -->
      <g transform="translate(-1.725 29.719219)scale(0.1 -0.1)">
       <use xlink:href="#DejaVuSans-31"/>
       <use xlink:href="#DejaVuSans-35" x="63.623047"/>
      </g>
     </g>
    </g>
   </g>
   <g id="patch_3">
    <path d="M 18 189 
L 18 25.92 
" style="fill: none; stroke: #000000; stroke-width: 0.8; stroke-linejoin: miter; stroke-linecap: square"/>
   </g>
   <g id="patch_4">
    <path d="M 129.6 189 
L 129.6 25.92 
" style="fill: none; stroke: #000000; stroke-width: 0.8; stroke-linejoin: miter; stroke-linecap: square"/>
   </g>
   <g id="patch_5">
    <path d="M 18 189 
L 129.6 189 
" style="fill: none; stroke: #000000; stroke-width: 0.8; stroke-linejoin: miter; stroke-linecap: square"/>
   </g>
   <g id="patch_6">
    <path d="M 18 25.92 
L 129.6 25.92 
" style="fill: none; stroke: #000000; stroke-width: 0.8; stroke-linejoin: miter; stroke-linecap: square"/>
   </g>
  </g>
 </g>
 <defs>
  <clipPath id="pa717adf5f6">
   <rect x="18" y="25.92" width="111.6" height="163.08"/>
  </clipPath>
 </defs>
</svg>
