<?xml version="1.0" encoding="utf-8" standalone="no"?>
<!DOCTYPE svg PUBLIC "-//W3C//DTD SVG 1.1//EN"
  "http://www.w3.org/Graphics/SVG/1.1/DTD/svg11.dtd">
<svg xmlns:xlink="http://www.w3.org/1999/xlink" width="144pt" height="216pt" viewBox="0 0 144 216" xmlns="http://www.w3.org/2000/svg" version="1.1">
 <metadata>
  <rdf:RDF xmlns:dc="http://purl.org/dc/elements/1.1/" xmlns:cc="http://creativecommons.org/ns#" xmlns:rdf="http://www.w3.org/1999/02/22-rdf-syntax-ns#">
   <cc:Work>
    <dc:type rdf:resource="http://purl.org/dc/dcmitype/StillImage"/>
    <dc:date>2022-06-28T09:25:00.093806</dc:date>
    <dc:format>image/svg+xml</dc:format>
    <dc:creator>
     <cc:Agent>
      <dc:title>Matplotlib v3.5.1, https://matplotlib.org/</dc:title>
     </cc:Agent>
    </dc:creator>
   </cc:Work>
  </rdf:RDF>
 </metadata>
 <defs>
  <style type="text/css">*{stroke-linejoin: round; stroke-linecap: butt}</style>
 </defs>
 <g id="figure_1">
  <g id="patch_1">
   <path d="M 0 216 
L 144 216 
L 144 0 
L 0 0 
L 0 216 
z
" style="fill: none"/>
  </g>
  <g id="axes_1">
   <g id="patch_2">
    <path d="M 18 189 
L 129.6 189 
L 129.6 25.92 
L 18 25.92 
z
" style="fill: #ffffff"/>
   </g>
   <g id="PathCollection_1">
    <defs>
     <path id="m3aa0b1629f" d="M 0 2.738613 
C 0.726289 2.738613 1.422928 2.450055 1.936492 1.936492 
C 2.450055 1.422928 2.738613 0.726289 2.738613 0 
C 2.738613 -0.726289 2.450055 -1.422928 1.936492 -1.936492 
C 1.422928 -2.450055 0.726289 -2.738613 0 -2.738613 
C -0.726289 -2.738613 -1.422928 -2.450055 -1.936492 -1.936492 
C -2.450055 -1.422928 -2.738613 -0.726289 -2.738613 0 
C -2.738613 0.726289 -2.450055 1.422928 -1.936492 1.936492 
C -1.422928 2.450055 -0.726289 2.738613 0 2.738613 
z
" style="stroke: #ff0000; stroke-width: 1.75"/>
    </defs>
    <g clip-path="url(#p9efa85f32e)">
     <use xlink:href="#m3aa0b1629f" x="80.775" y="107.46" style="fill: #ff0000; stroke: #ff0000; stroke-width: 1.75"/>
     <use xlink:href="#m3aa0b1629f" x="94.725" y="107.46" style="fill: #ff0000; stroke: #ff0000; stroke-width: 1.75"/>
     <use xlink:href="#m3aa0b1629f" x="59.85" y="119.229285" style="fill: #ff0000; stroke: #ff0000; stroke-width: 1.75"/>
     <use xlink:href="#m3aa0b1629f" x="73.8" y="119.229285" style="fill: #ff0000; stroke: #ff0000; stroke-width: 1.75"/>
     <use xlink:href="#m3aa0b1629f" x="87.75" y="119.229285" style="fill: #ff0000; stroke: #ff0000; stroke-width: 1.75"/>
     <use xlink:href="#m3aa0b1629f" x="66.825" y="130.99857" style="fill: #ff0000; stroke: #ff0000; stroke-width: 1.75"/>
     <use xlink:href="#m3aa0b1629f" x="80.775" y="130.99857" style="fill: #ff0000; stroke: #ff0000; stroke-width: 1.75"/>
    </g>
   </g>
   <g id="PathCollection_2">
    <defs>
     <path id="C0_0_696fda2390" d="M 0 2.738613 
C 0.726289 2.738613 1.422928 2.450055 1.936492 1.936492 
C 2.450055 1.422928 2.738613 0.726289 2.738613 -0 
C 2.738613 -0.726289 2.450055 -1.422928 1.936492 -1.936492 
C 1.422928 -2.450055 0.726289 -2.738613 0 -2.738613 
C -0.726289 -2.738613 -1.422928 -2.450055 -1.936492 -1.936492 
C -2.450055 -1.422928 -2.738613 -0.726289 -2.738613 0 
C -2.738613 0.726289 -2.450055 1.422928 -1.936492 1.936492 
C -1.422928 2.450055 -0.726289 2.738613 0 2.738613 
z
"/>
    </defs>
    <g clip-path="url(#p9efa85f32e)">
     <use xlink:href="#C0_0_696fda2390" x="66.825" y="83.92143" style="fill: none; stroke: #ff0000; stroke-width: 1.75"/>
    </g>
    <g clip-path="url(#p9efa85f32e)">
     <use xlink:href="#C0_0_696fda2390" x="80.775" y="83.92143" style="fill: none; stroke: #ff0000; stroke-width: 1.75"/>
    </g>
    <g clip-path="url(#p9efa85f32e)">
     <use xlink:href="#C0_0_696fda2390" x="59.85" y="95.690715" style="fill: none; stroke: #ff0000; stroke-width: 1.75"/>
    </g>
    <g clip-path="url(#p9efa85f32e)">
     <use xlink:href="#C0_0_696fda2390" x="73.8" y="95.690715" style="fill: none; stroke: #ff0000; stroke-width: 1.75"/>
    </g>
    <g clip-path="url(#p9efa85f32e)">
     <use xlink:href="#C0_0_696fda2390" x="87.75" y="95.690715" style="fill: none; stroke: #ff0000; stroke-width: 1.75"/>
    </g>
    <g clip-path="url(#p9efa85f32e)">
     <use xlink:href="#C0_0_696fda2390" x="52.875" y="107.46" style="fill: none; stroke: #ff0000; stroke-width: 1.75"/>
    </g>
    <g clip-path="url(#p9efa85f32e)">
     <use xlink:href="#C0_0_696fda2390" x="66.825" y="107.46" style="fill: none; stroke: #ff0000; stroke-width: 1.75"/>
    </g>
   </g>
   <g id="PathCollection_3">
    <path d="M 97.43029 109.812988 
C 98.027337 109.812988 98.600012 109.575779 99.022189 109.153602 
C 99.444365 108.731426 99.681575 108.158751 99.681575 107.561704 
C 99.681575 106.964656 99.444365 106.391981 99.022189 105.969805 
C 98.600012 105.547628 98.027337 105.310419 97.43029 105.310419 
C 96.833242 105.310419 96.260567 105.547628 95.838391 105.969805 
C 95.416214 106.391981 95.179005 106.964656 95.179005 107.561704 
C 95.179005 108.158751 95.416214 108.731426 95.838391 109.153602 
C 96.260567 109.575779 96.833242 109.812988 97.43029 109.812988 
z
" clip-path="url(#p9efa85f32e)" style="stroke: #000000"/>
    <path d="M 91.655833 110.272205 
C 91.788434 110.272205 91.915623 110.219521 92.009386 110.125758 
C 92.10315 110.031994 92.155833 109.904806 92.155833 109.772205 
C 92.155833 109.639603 92.10315 109.512415 92.009386 109.418651 
C 91.915623 109.324888 91.788434 109.272205 91.655833 109.272205 
C 91.523231 109.272205 91.396043 109.324888 91.302279 109.418651 
C 91.208516 109.512415 91.155833 109.639603 91.155833 109.772205 
C 91.155833 109.904806 91.208516 110.031994 91.302279 110.125758 
C 91.396043 110.219521 91.523231 110.272205 91.655833 110.272205 
z
" clip-path="url(#p9efa85f32e)" style="stroke: #000000"/>
    <path d="M 85.073589 106.888988 
C 85.451539 106.888988 85.81406 106.738827 86.081311 106.471575 
C 86.348563 106.204324 86.498724 105.841803 86.498724 105.463853 
C 86.498724 105.085903 86.348563 104.723381 86.081311 104.45613 
C 85.81406 104.188879 85.451539 104.038718 85.073589 104.038718 
C 84.695639 104.038718 84.333117 104.188879 84.065866 104.45613 
C 83.798615 104.723381 83.648454 105.085903 83.648454 105.463853 
C 83.648454 105.841803 83.798615 106.204324 84.065866 106.471575 
C 84.333117 106.738827 84.695639 106.888988 85.073589 106.888988 
z
" clip-path="url(#p9efa85f32e)" style="stroke: #000000"/>
    <path d="M 88.826632 100.149141 
C 89.262741 100.149141 89.681047 99.975873 89.989423 99.667497 
C 90.297798 99.359122 90.471066 98.940816 90.471066 98.504707 
C 90.471066 98.068598 90.297798 97.650292 89.989423 97.341916 
C 89.681047 97.033541 89.262741 96.860273 88.826632 96.860273 
C 88.390523 96.860273 87.972217 97.033541 87.663842 97.341916 
C 87.355466 97.650292 87.182198 98.068598 87.182198 98.504707 
C 87.182198 98.940816 87.355466 99.359122 87.663842 99.667497 
C 87.972217 99.975873 88.390523 100.149141 88.826632 100.149141 
z
" clip-path="url(#p9efa85f32e)" style="stroke: #000000"/>
    <path d="M 83.208467 87.178576 
C 83.809826 87.178576 84.386635 86.939654 84.81186 86.514429 
C 85.237085 86.089204 85.476007 85.512394 85.476007 84.911035 
C 85.476007 84.309677 85.237085 83.732867 84.81186 83.307642 
C 84.386635 82.882417 83.809826 82.643495 83.208467 82.643495 
C 82.607108 82.643495 82.030298 82.882417 81.605073 83.307642 
C 81.179848 83.732867 80.940926 84.309677 80.940926 84.911035 
C 80.940926 85.512394 81.179848 86.089204 81.605073 86.514429 
C 82.030298 86.939654 82.607108 87.178576 83.208467 87.178576 
z
" clip-path="url(#p9efa85f32e)" style="stroke: #000000"/>
    <path d="M 80.460069 80.274911 
C 80.61776 80.274911 80.769013 80.21226 80.880517 80.100756 
C 80.992021 79.989252 81.054673 79.837998 81.054673 79.680307 
C 81.054673 79.522617 80.992021 79.371363 80.880517 79.259859 
C 80.769013 79.148355 80.61776 79.085704 80.460069 79.085704 
C 80.302378 79.085704 80.151125 79.148355 80.039621 79.259859 
C 79.928117 79.371363 79.865465 79.522617 79.865465 79.680307 
C 79.865465 79.837998 79.928117 79.989252 80.039621 80.100756 
C 80.151125 80.21226 80.302378 80.274911 80.460069 80.274911 
z
" clip-path="url(#p9efa85f32e)" style="stroke: #000000"/>
    <path d="M 86.8111 120.086406 
C 87.323518 120.086406 87.815018 119.88282 88.177353 119.520485 
C 88.539687 119.15815 88.743273 118.66665 88.743273 118.154232 
C 88.743273 117.641813 88.539687 117.150313 88.177353 116.787978 
C 87.815018 116.425644 87.323518 116.222058 86.8111 116.222058 
C 86.298681 116.222058 85.807181 116.425644 85.444846 116.787978 
C 85.082512 117.150313 84.878926 117.641813 84.878926 118.154232 
C 84.878926 118.66665 85.082512 119.15815 85.444846 119.520485 
C 85.807181 119.88282 86.298681 120.086406 86.8111 120.086406 
z
" clip-path="url(#p9efa85f32e)" style="stroke: #000000"/>
    <path d="M 82.17071 108.107403 
C 82.687664 108.107403 83.183514 107.902015 83.549055 107.536474 
C 83.914597 107.170932 84.119984 106.675082 84.119984 106.158128 
C 84.119984 105.641175 83.914597 105.145325 83.549055 104.779783 
C 83.183514 104.414242 82.687664 104.208854 82.17071 104.208854 
C 81.653756 104.208854 81.157906 104.414242 80.792365 104.779783 
C 80.426823 105.145325 80.221435 105.641175 80.221435 106.158128 
C 80.221435 106.675082 80.426823 107.170932 80.792365 107.536474 
C 81.157906 107.902015 81.653756 108.107403 82.17071 108.107403 
z
" clip-path="url(#p9efa85f32e)" style="stroke: #000000"/>
    <path d="M 77.89278 96.009276 
C 78.091065 96.009276 78.281256 95.930496 78.421465 95.790287 
C 78.561674 95.650078 78.640454 95.459887 78.640454 95.261602 
C 78.640454 95.063316 78.561674 94.873125 78.421465 94.732916 
C 78.281256 94.592707 78.091065 94.513927 77.89278 94.513927 
C 77.694494 94.513927 77.504303 94.592707 77.364094 94.732916 
C 77.223885 94.873125 77.145105 95.063316 77.145105 95.261602 
C 77.145105 95.459887 77.223885 95.650078 77.364094 95.790287 
C 77.504303 95.930496 77.694494 96.009276 77.89278 96.009276 
z
" clip-path="url(#p9efa85f32e)" style="stroke: #000000"/>
    <path d="M 79.451148 130.038093 
C 79.973065 130.038093 80.473676 129.830733 80.842727 129.461682 
C 81.211778 129.092631 81.419138 128.59202 81.419138 128.070103 
C 81.419138 127.548186 81.211778 127.047575 80.842727 126.678524 
C 80.473676 126.309473 79.973065 126.102113 79.451148 126.102113 
C 78.929231 126.102113 78.42862 126.309473 78.059569 126.678524 
C 77.690518 127.047575 77.483158 127.548186 77.483158 128.070103 
C 77.483158 128.59202 77.690518 129.092631 78.059569 129.461682 
C 78.42862 129.830733 78.929231 130.038093 79.451148 130.038093 
z
" clip-path="url(#p9efa85f32e)" style="stroke: #000000"/>
    <path d="M 72.54799 95.874193 
C 73.060982 95.874193 73.553033 95.670379 73.915773 95.307639 
C 74.278513 94.944899 74.482327 94.452848 74.482327 93.939856 
C 74.482327 93.426864 74.278513 92.934814 73.915773 92.572074 
C 73.553033 92.209334 73.060982 92.00552 72.54799 92.00552 
C 72.034998 92.00552 71.542948 92.209334 71.180208 92.572074 
C 70.817468 92.934814 70.613654 93.426864 70.613654 93.939856 
C 70.613654 94.452848 70.817468 94.944899 71.180208 95.307639 
C 71.542948 95.670379 72.034998 95.874193 72.54799 95.874193 
z
" clip-path="url(#p9efa85f32e)" style="stroke: #000000"/>
    <path d="M 68.884622 86.783272 
C 69.407081 86.783272 69.908213 86.575697 70.277648 86.206262 
C 70.647083 85.836827 70.854658 85.335696 70.854658 84.813236 
C 70.854658 84.290776 70.647083 83.789645 70.277648 83.42021 
C 69.908213 83.050775 69.407081 82.8432 68.884622 82.8432 
C 68.362162 82.8432 67.86103 83.050775 67.491595 83.42021 
C 67.122161 83.789645 66.914585 84.290776 66.914585 84.813236 
C 66.914585 85.335696 67.122161 85.836827 67.491595 86.206262 
C 67.86103 86.575697 68.362162 86.783272 68.884622 86.783272 
z
" clip-path="url(#p9efa85f32e)" style="stroke: #000000"/>
    <path d="M 76.877193 130.81385 
C 77.150322 130.81385 77.4123 130.705335 77.605431 130.512204 
C 77.798562 130.319073 77.907077 130.057095 77.907077 129.783967 
C 77.907077 129.510838 77.798562 129.24886 77.605431 129.055729 
C 77.4123 128.862598 77.150322 128.754083 76.877193 128.754083 
C 76.604065 128.754083 76.342087 128.862598 76.148956 129.055729 
C 75.955825 129.24886 75.84731 129.510838 75.84731 129.783967 
C 75.84731 130.057095 75.955825 130.319073 76.148956 130.512204 
C 76.342087 130.705335 76.604065 130.81385 76.877193 130.81385 
z
" clip-path="url(#p9efa85f32e)" style="stroke: #000000"/>
    <path d="M 74.837685 122.831408 
C 75.286292 122.831408 75.716586 122.653174 76.033799 122.335961 
C 76.351013 122.018748 76.529246 121.588454 76.529246 121.139846 
C 76.529246 120.691239 76.351013 120.260945 76.033799 119.943732 
C 75.716586 119.626518 75.286292 119.448285 74.837685 119.448285 
C 74.389077 119.448285 73.958783 119.626518 73.64157 119.943732 
C 73.324356 120.260945 73.146123 120.691239 73.146123 121.139846 
C 73.146123 121.588454 73.324356 122.018748 73.64157 122.335961 
C 73.958783 122.653174 74.389077 122.831408 74.837685 122.831408 
z
" clip-path="url(#p9efa85f32e)" style="stroke: #000000"/>
    <path d="M 71.823752 120.432296 
C 72.337315 120.432296 72.829914 120.228255 73.193058 119.865111 
C 73.556203 119.501966 73.760244 119.009368 73.760244 118.495804 
C 73.760244 117.982241 73.556203 117.489642 73.193058 117.126498 
C 72.829914 116.763354 72.337315 116.559313 71.823752 116.559313 
C 71.310188 116.559313 70.81759 116.763354 70.454446 117.126498 
C 70.091301 117.489642 69.88726 117.982241 69.88726 118.495804 
C 69.88726 119.009368 70.091301 119.501966 70.454446 119.865111 
C 70.81759 120.228255 71.310188 120.432296 71.823752 120.432296 
z
" clip-path="url(#p9efa85f32e)" style="stroke: #000000"/>
    <path d="M 67.938949 107.775033 
C 68.456462 107.775033 68.952848 107.569423 69.318784 107.203487 
C 69.68472 106.83755 69.89033 106.341164 69.89033 105.823652 
C 69.89033 105.30614 69.68472 104.809754 69.318784 104.443818 
C 68.952848 104.077881 68.456462 103.872272 67.938949 103.872272 
C 67.421437 103.872272 66.925051 104.077881 66.559115 104.443818 
C 66.193179 104.809754 65.987569 105.30614 65.987569 105.823652 
C 65.987569 106.341164 66.193179 106.83755 66.559115 107.203487 
C 66.925051 107.569423 67.421437 107.775033 67.938949 107.775033 
z
" clip-path="url(#p9efa85f32e)" style="stroke: #000000"/>
    <path d="M 62.659 95.285603 
C 63.123828 95.285603 63.569681 95.100925 63.898365 94.772241 
C 64.227048 94.443558 64.411727 93.997705 64.411727 93.532876 
C 64.411727 93.068048 64.227048 92.622195 63.898365 92.293511 
C 63.569681 91.964828 63.123828 91.780149 62.659 91.780149 
C 62.194171 91.780149 61.748318 91.964828 61.419635 92.293511 
C 61.090951 92.622195 60.906273 93.068048 60.906273 93.532876 
C 60.906273 93.997705 61.090951 94.443558 61.419635 94.772241 
C 61.748318 95.100925 62.194171 95.285603 62.659 95.285603 
z
" clip-path="url(#p9efa85f32e)" style="stroke: #000000"/>
    <path d="M 69.486775 134.732156 
C 69.91023 134.732156 70.316398 134.563916 70.615825 134.264488 
C 70.915253 133.96506 71.083493 133.558892 71.083493 133.135438 
C 71.083493 132.711983 70.915253 132.305815 70.615825 132.006387 
C 70.316398 131.70696 69.91023 131.538719 69.486775 131.538719 
C 69.06332 131.538719 68.657152 131.70696 68.357724 132.006387 
C 68.058297 132.305815 67.890056 132.711983 67.890056 133.135438 
C 67.890056 133.558892 68.058297 133.96506 68.357724 134.264488 
C 68.657152 134.563916 69.06332 134.732156 69.486775 134.732156 
z
" clip-path="url(#p9efa85f32e)" style="stroke: #000000"/>
    <path d="M 59.835462 100.279589 
C 60.346149 100.279589 60.835987 100.076692 61.197097 99.715582 
C 61.558207 99.354472 61.761105 98.864633 61.761105 98.353947 
C 61.761105 97.843261 61.558207 97.353422 61.197097 96.992312 
C 60.835987 96.631202 60.346149 96.428304 59.835462 96.428304 
C 59.324776 96.428304 58.834937 96.631202 58.473827 96.992312 
C 58.112718 97.353422 57.90982 97.843261 57.90982 98.353947 
C 57.90982 98.864633 58.112718 99.354472 58.473827 99.715582 
C 58.834937 100.076692 59.324776 100.279589 59.835462 100.279589 
z
" clip-path="url(#p9efa85f32e)" style="stroke: #000000"/>
    <path d="M 58.410556 98.212935 
C 58.958229 98.212935 59.483545 97.995342 59.870809 97.608078 
C 60.258073 97.220814 60.475666 96.695498 60.475666 96.147825 
C 60.475666 95.600151 60.258073 95.074835 59.870809 94.687571 
C 59.483545 94.300307 58.958229 94.082714 58.410556 94.082714 
C 57.862882 94.082714 57.337566 94.300307 56.950302 94.687571 
C 56.563038 95.074835 56.345445 95.600151 56.345445 96.147825 
C 56.345445 96.695498 56.563038 97.220814 56.950302 97.608078 
C 57.337566 97.995342 57.862882 98.212935 58.410556 98.212935 
z
" clip-path="url(#p9efa85f32e)" style="stroke: #000000"/>
    <path d="M 63.896264 134.669747 
C 64.216462 134.669747 64.523588 134.542531 64.750002 134.316117 
C 64.976416 134.089703 65.103632 133.782576 65.103632 133.462379 
C 65.103632 133.142181 64.976416 132.835054 64.750002 132.60864 
C 64.523588 132.382226 64.216462 132.25501 63.896264 132.25501 
C 63.576066 132.25501 63.26894 132.382226 63.042526 132.60864 
C 62.816112 132.835054 62.688896 133.142181 62.688896 133.462379 
C 62.688896 133.782576 62.816112 134.089703 63.042526 134.316117 
C 63.26894 134.542531 63.576066 134.669747 63.896264 134.669747 
z
" clip-path="url(#p9efa85f32e)" style="stroke: #000000"/>
    <path d="M 58.915627 123.660444 
C 59.372561 123.660444 59.810841 123.478902 60.133942 123.155801 
C 60.457044 122.8327 60.638585 122.394419 60.638585 121.937485 
C 60.638585 121.480551 60.457044 121.042271 60.133942 120.71917 
C 59.810841 120.396069 59.372561 120.214527 58.915627 120.214527 
C 58.458693 120.214527 58.020412 120.396069 57.697311 120.71917 
C 57.37421 121.042271 57.192669 121.480551 57.192669 121.937485 
C 57.192669 122.394419 57.37421 122.8327 57.697311 123.155801 
C 58.020412 123.478902 58.458693 123.660444 58.915627 123.660444 
z
" clip-path="url(#p9efa85f32e)" style="stroke: #000000"/>
    <path d="M 52.837971 110.848897 
C 53.365768 110.848897 53.872019 110.639201 54.245228 110.265992 
C 54.618437 109.892783 54.828133 109.386532 54.828133 108.858735 
C 54.828133 108.330938 54.618437 107.824687 54.245228 107.451478 
C 53.872019 107.078269 53.365768 106.868573 52.837971 106.868573 
C 52.310173 106.868573 51.803922 107.078269 51.430713 107.451478 
C 51.057505 107.824687 50.847809 108.330938 50.847809 108.858735 
C 50.847809 109.386532 51.057505 109.892783 51.430713 110.265992 
C 51.803922 110.639201 52.310173 110.848897 52.837971 110.848897 
z
" clip-path="url(#p9efa85f32e)" style="stroke: #000000"/>
    <path d="M 71.71369 173.269613 
C 71.846291 173.269613 71.97348 173.21693 72.067243 173.123167 
C 72.161006 173.029403 72.21369 172.902215 72.21369 172.769613 
C 72.21369 172.637012 72.161006 172.509823 72.067243 172.41606 
C 71.97348 172.322296 71.846291 172.269613 71.71369 172.269613 
C 71.581088 172.269613 71.4539 172.322296 71.360136 172.41606 
C 71.266373 172.509823 71.21369 172.637012 71.21369 172.769613 
C 71.21369 172.902215 71.266373 173.029403 71.360136 173.123167 
C 71.4539 173.21693 71.581088 173.269613 71.71369 173.269613 
z
" clip-path="url(#p9efa85f32e)" style="stroke: #000000"/>
   </g>
   <g id="matplotlib.axis_1">
    <g id="xtick_1">
     <g id="line2d_1">
      <defs>
       <path id="mb23bf0e18d" d="M 0 0 
L 0 3.5 
" style="stroke: #000000; stroke-width: 0.8"/>
      </defs>
      <g>
       <use xlink:href="#mb23bf0e18d" x="18" y="189" style="stroke: #000000; stroke-width: 0.8"/>
      </g>
     </g>
     <g id="text_1">
      <!-- −10 -->
      <g transform="translate(7.447656 203.598437)scale(0.1 -0.1)">
       <defs>
        <path id="DejaVuSans-2212" d="M 678 2272 
L 4684 2272 
L 4684 1741 
L 678 1741 
L 678 2272 
z
" transform="scale(0.015625)"/>
        <path id="DejaVuSans-31" d="M 794 531 
L 1825 531 
L 1825 4091 
L 703 3866 
L 703 4441 
L 1819 4666 
L 2450 4666 
L 2450 531 
L 3481 531 
L 3481 0 
L 794 0 
L 794 531 
z
" transform="scale(0.015625)"/>
        <path id="DejaVuSans-30" d="M 2034 4250 
Q 1547 4250 1301 3770 
Q 1056 3291 1056 2328 
Q 1056 1369 1301 889 
Q 1547 409 2034 409 
Q 2525 409 2770 889 
Q 3016 1369 3016 2328 
Q 3016 3291 2770 3770 
Q 2525 4250 2034 4250 
z
M 2034 4750 
Q 2819 4750 3233 4129 
Q 3647 3509 3647 2328 
Q 3647 1150 3233 529 
Q 2819 -91 2034 -91 
Q 1250 -91 836 529 
Q 422 1150 422 2328 
Q 422 3509 836 4129 
Q 1250 4750 2034 4750 
z
" transform="scale(0.015625)"/>
       </defs>
       <use xlink:href="#DejaVuSans-2212"/>
       <use xlink:href="#DejaVuSans-31" x="83.789062"/>
       <use xlink:href="#DejaVuSans-30" x="147.412109"/>
      </g>
     </g>
    </g>
    <g id="xtick_2">
     <g id="line2d_2">
      <g>
       <use xlink:href="#mb23bf0e18d" x="73.8" y="189" style="stroke: #000000; stroke-width: 0.8"/>
      </g>
     </g>
     <g id="text_2">
      <!-- 0 -->
      <g transform="translate(70.61875 203.598437)scale(0.1 -0.1)">
       <use xlink:href="#DejaVuSans-30"/>
      </g>
     </g>
    </g>
    <g id="xtick_3">
     <g id="line2d_3">
      <g>
       <use xlink:href="#mb23bf0e18d" x="129.6" y="189" style="stroke: #000000; stroke-width: 0.8"/>
      </g>
     </g>
     <g id="text_3">
      <!-- 10 -->
      <g transform="translate(123.2375 203.598437)scale(0.1 -0.1)">
       <use xlink:href="#DejaVuSans-31"/>
       <use xlink:href="#DejaVuSans-30" x="63.623047"/>
      </g>
     </g>
    </g>
   </g>
   <g id="matplotlib.axis_2">
    <g id="ytick_1">
     <g id="line2d_4">
      <defs>
       <path id="maa4a885bdd" d="M 0 0 
L -3.5 0 
" style="stroke: #000000; stroke-width: 0.8"/>
      </defs>
      <g>
       <use xlink:href="#maa4a885bdd" x="18" y="189" style="stroke: #000000; stroke-width: 0.8"/>
      </g>
     </g>
     <g id="text_4">
      <!-- −15 -->
      <g transform="translate(-10.104688 192.799219)scale(0.1 -0.1)">
       <defs>
        <path id="DejaVuSans-35" d="M 691 4666 
L 3169 4666 
L 3169 4134 
L 1269 4134 
L 1269 2991 
Q 1406 3038 1543 3061 
Q 1681 3084 1819 3084 
Q 2600 3084 3056 2656 
Q 3513 2228 3513 1497 
Q 3513 744 3044 326 
Q 2575 -91 1722 -91 
Q 1428 -91 1123 -41 
Q 819 9 494 109 
L 494 744 
Q 775 591 1075 516 
Q 1375 441 1709 441 
Q 2250 441 2565 725 
Q 2881 1009 2881 1497 
Q 2881 1984 2565 2268 
Q 2250 2553 1709 2553 
Q 1456 2553 1204 2497 
Q 953 2441 691 2322 
L 691 4666 
z
" transform="scale(0.015625)"/>
       </defs>
       <use xlink:href="#DejaVuSans-2212"/>
       <use xlink:href="#DejaVuSans-31" x="83.789062"/>
       <use xlink:href="#DejaVuSans-35" x="147.412109"/>
      </g>
     </g>
    </g>
    <g id="ytick_2">
     <g id="line2d_5">
      <g>
       <use xlink:href="#maa4a885bdd" x="18" y="161.82" style="stroke: #000000; stroke-width: 0.8"/>
      </g>
     </g>
     <g id="text_5">
      <!-- −10 -->
      <g transform="translate(-10.104688 165.619219)scale(0.1 -0.1)">
       <use xlink:href="#DejaVuSans-2212"/>
       <use xlink:href="#DejaVuSans-31" x="83.789062"/>
       <use xlink:href="#DejaVuSans-30" x="147.412109"/>
      </g>
     </g>
    </g>
    <g id="ytick_3">
     <g id="line2d_6">
      <g>
       <use xlink:href="#maa4a885bdd" x="18" y="134.64" style="stroke: #000000; stroke-width: 0.8"/>
      </g>
     </g>
     <g id="text_6">
      <!-- −5 -->
      <g transform="translate(-3.742188 138.439219)scale(0.1 -0.1)">
       <use xlink:href="#DejaVuSans-2212"/>
       <use xlink:href="#DejaVuSans-35" x="83.789062"/>
      </g>
     </g>
    </g>
    <g id="ytick_4">
     <g id="line2d_7">
      <g>
       <use xlink:href="#maa4a885bdd" x="18" y="107.46" style="stroke: #000000; stroke-width: 0.8"/>
      </g>
     </g>
     <g id="text_7">
      <!-- 0 -->
      <g transform="translate(4.6375 111.259219)scale(0.1 -0.1)">
       <use xlink:href="#DejaVuSans-30"/>
      </g>
     </g>
    </g>
    <g id="ytick_5">
     <g id="line2d_8">
      <g>
       <use xlink:href="#maa4a885bdd" x="18" y="80.28" style="stroke: #000000; stroke-width: 0.8"/>
      </g>
     </g>
     <g id="text_8">
      <!-- 5 -->
      <g transform="translate(4.6375 84.079219)scale(0.1 -0.1)">
       <use xlink:href="#DejaVuSans-35"/>
      </g>
     </g>
    </g>
    <g id="ytick_6">
     <g id="line2d_9">
      <g>
       <use xlink:href="#maa4a885bdd" x="18" y="53.1" style="stroke: #000000; stroke-width: 0.8"/>
      </g>
     </g>
     <g id="text_9">
      <!-- 10 -->
      <g transform="translate(-1.725 56.899219)scale(0.1 -0.1)">
       <use xlink:href="#DejaVuSans-31"/>
       <use xlink:href="#DejaVuSans-30" x="63.623047"/>
      </g>
     </g>
    </g>
    <g id="ytick_7">
     <g id="line2d_10">
      <g>
       <use xlink:href="#maa4a885bdd" x="18" y="25.92" style="stroke: #000000; stroke-width: 0.8"/>
      </g>
     </g>
     <g id="text_10">
      <!-- 15 -->
      <g transform="translate(-1.725 29.719219)scale(0.1 -0.1)">
       <use xlink:href="#DejaVuSans-31"/>
       <use xlink:href="#DejaVuSans-35" x="63.623047"/>
      </g>
     </g>
    </g>
   </g>
   <g id="patch_3">
    <path d="M 18 189 
L 18 25.92 
" style="fill: none; stroke: #000000; stroke-width: 0.8; stroke-linejoin: miter; stroke-linecap: square"/>
   </g>
   <g id="patch_4">
    <path d="M 129.6 189 
L 129.6 25.92 
" style="fill: none; stroke: #000000; stroke-width: 0.8; stroke-linejoin: miter; stroke-linecap: square"/>
   </g>
   <g id="patch_5">
    <path d="M 18 189 
L 129.6 189 
" style="fill: none; stroke: #000000; stroke-width: 0.8; stroke-linejoin: miter; stroke-linecap: square"/>
   </g>
   <g id="patch_6">
    <path d="M 18 25.92 
L 129.6 25.92 
" style="fill: none; stroke: #000000; stroke-width: 0.8; stroke-linejoin: miter; stroke-linecap: square"/>
   </g>
  </g>
 </g>
 <defs>
  <clipPath id="p9efa85f32e">
   <rect x="18" y="25.92" width="111.6" height="163.08"/>
  </clipPath>
 </defs>
</svg>
