<?xml version="1.0" encoding="utf-8" standalone="no"?>
<!DOCTYPE svg PUBLIC "-//W3C//DTD SVG 1.1//EN"
  "http://www.w3.org/Graphics/SVG/1.1/DTD/svg11.dtd">
<svg xmlns:xlink="http://www.w3.org/1999/xlink" width="144pt" height="216pt" viewBox="0 0 144 216" xmlns="http://www.w3.org/2000/svg" version="1.1">
 <metadata>
  <rdf:RDF xmlns:dc="http://purl.org/dc/elements/1.1/" xmlns:cc="http://creativecommons.org/ns#" xmlns:rdf="http://www.w3.org/1999/02/22-rdf-syntax-ns#">
   <cc:Work>
    <dc:type rdf:resource="http://purl.org/dc/dcmitype/StillImage"/>
    <dc:date>2022-06-28T09:24:53.003591</dc:date>
    <dc:format>image/svg+xml</dc:format>
    <dc:creator>
     <cc:Agent>
      <dc:title>Matplotlib v3.5.1, https://matplotlib.org/</dc:title>
     </cc:Agent>
    </dc:creator>
   </cc:Work>
  </rdf:RDF>
 </metadata>
 <defs>
  <style type="text/css">*{stroke-linejoin: round; stroke-linecap: butt}</style>
 </defs>
 <g id="figure_1">
  <g id="patch_1">
   <path d="M 0 216 
L 144 216 
L 144 0 
L 0 0 
L 0 216 
z
" style="fill: none"/>
  </g>
  <g id="axes_1">
   <g id="patch_2">
    <path d="M 18 189 
L 129.6 189 
L 129.6 25.92 
L 18 25.92 
z
" style="fill: #ffffff"/>
   </g>
   <g id="PathCollection_1">
    <defs>
     <path id="m670f058701" d="M 0 2.738613 
C 0.726289 2.738613 1.422928 2.450055 1.936492 1.936492 
C 2.450055 1.422928 2.738613 0.726289 2.738613 0 
C 2.738613 -0.726289 2.450055 -1.422928 1.936492 -1.936492 
C 1.422928 -2.450055 0.726289 -2.738613 0 -2.738613 
C -0.726289 -2.738613 -1.422928 -2.450055 -1.936492 -1.936492 
C -2.450055 -1.422928 -2.738613 -0.726289 -2.738613 0 
C -2.738613 0.726289 -2.450055 1.422928 -1.936492 1.936492 
C -1.422928 2.450055 -0.726289 2.738613 0 2.738613 
z
" style="stroke: #ff0000; stroke-width: 1.75"/>
    </defs>
    <g clip-path="url(#pc01780ac25)">
     <use xlink:href="#m670f058701" x="80.775" y="107.46" style="fill: #ff0000; stroke: #ff0000; stroke-width: 1.75"/>
     <use xlink:href="#m670f058701" x="94.725" y="107.46" style="fill: #ff0000; stroke: #ff0000; stroke-width: 1.75"/>
     <use xlink:href="#m670f058701" x="59.85" y="119.229285" style="fill: #ff0000; stroke: #ff0000; stroke-width: 1.75"/>
     <use xlink:href="#m670f058701" x="73.8" y="119.229285" style="fill: #ff0000; stroke: #ff0000; stroke-width: 1.75"/>
     <use xlink:href="#m670f058701" x="87.75" y="119.229285" style="fill: #ff0000; stroke: #ff0000; stroke-width: 1.75"/>
     <use xlink:href="#m670f058701" x="66.825" y="130.99857" style="fill: #ff0000; stroke: #ff0000; stroke-width: 1.75"/>
     <use xlink:href="#m670f058701" x="80.775" y="130.99857" style="fill: #ff0000; stroke: #ff0000; stroke-width: 1.75"/>
    </g>
   </g>
   <g id="PathCollection_2">
    <defs>
     <path id="C0_0_3243b73f0a" d="M 0 2.738613 
C 0.726289 2.738613 1.422928 2.450055 1.936492 1.936492 
C 2.450055 1.422928 2.738613 0.726289 2.738613 -0 
C 2.738613 -0.726289 2.450055 -1.422928 1.936492 -1.936492 
C 1.422928 -2.450055 0.726289 -2.738613 0 -2.738613 
C -0.726289 -2.738613 -1.422928 -2.450055 -1.936492 -1.936492 
C -2.450055 -1.422928 -2.738613 -0.726289 -2.738613 0 
C -2.738613 0.726289 -2.450055 1.422928 -1.936492 1.936492 
C -1.422928 2.450055 -0.726289 2.738613 0 2.738613 
z
"/>
    </defs>
    <g clip-path="url(#pc01780ac25)">
     <use xlink:href="#C0_0_3243b73f0a" x="66.825" y="83.92143" style="fill: none; stroke: #ff0000; stroke-width: 1.75"/>
    </g>
    <g clip-path="url(#pc01780ac25)">
     <use xlink:href="#C0_0_3243b73f0a" x="80.775" y="83.92143" style="fill: none; stroke: #ff0000; stroke-width: 1.75"/>
    </g>
    <g clip-path="url(#pc01780ac25)">
     <use xlink:href="#C0_0_3243b73f0a" x="59.85" y="95.690715" style="fill: none; stroke: #ff0000; stroke-width: 1.75"/>
    </g>
    <g clip-path="url(#pc01780ac25)">
     <use xlink:href="#C0_0_3243b73f0a" x="73.8" y="95.690715" style="fill: none; stroke: #ff0000; stroke-width: 1.75"/>
    </g>
    <g clip-path="url(#pc01780ac25)">
     <use xlink:href="#C0_0_3243b73f0a" x="87.75" y="95.690715" style="fill: none; stroke: #ff0000; stroke-width: 1.75"/>
    </g>
    <g clip-path="url(#pc01780ac25)">
     <use xlink:href="#C0_0_3243b73f0a" x="52.875" y="107.46" style="fill: none; stroke: #ff0000; stroke-width: 1.75"/>
    </g>
    <g clip-path="url(#pc01780ac25)">
     <use xlink:href="#C0_0_3243b73f0a" x="66.825" y="107.46" style="fill: none; stroke: #ff0000; stroke-width: 1.75"/>
    </g>
   </g>
   <g id="PathCollection_3">
    <path d="M 97.43029 109.789339 
C 98.021066 109.789339 98.587724 109.554621 99.005466 109.136879 
C 99.423207 108.719138 99.657925 108.152479 99.657925 107.561704 
C 99.657925 106.970928 99.423207 106.404269 99.005466 105.986528 
C 98.587724 105.568786 98.021066 105.334068 97.43029 105.334068 
C 96.839514 105.334068 96.272855 105.568786 95.855114 105.986528 
C 95.437372 106.404269 95.202655 106.970928 95.202655 107.561704 
C 95.202655 108.152479 95.437372 108.719138 95.855114 109.136879 
C 96.272855 109.554621 96.839514 109.789339 97.43029 109.789339 
z
" clip-path="url(#pc01780ac25)" style="stroke: #000000"/>
    <path d="M 85.073589 106.431021 
C 85.330085 106.431021 85.57611 106.329114 85.75748 106.147744 
C 85.93885 105.966374 86.040757 105.720349 86.040757 105.463853 
C 86.040757 105.207357 85.93885 104.961332 85.75748 104.779962 
C 85.57611 104.598592 85.330085 104.496685 85.073589 104.496685 
C 84.817093 104.496685 84.571068 104.598592 84.389698 104.779962 
C 84.208328 104.961332 84.106421 105.207357 84.106421 105.463853 
C 84.106421 105.720349 84.208328 105.966374 84.389698 106.147744 
C 84.571068 106.329114 84.817093 106.431021 85.073589 106.431021 
z
" clip-path="url(#pc01780ac25)" style="stroke: #000000"/>
    <path d="M 88.826632 100.089784 
C 89.246999 100.089784 89.650206 99.92277 89.947451 99.625526 
C 90.244695 99.328281 90.411709 98.925074 90.411709 98.504707 
C 90.411709 98.08434 90.244695 97.681133 89.947451 97.383888 
C 89.650206 97.086644 89.246999 96.91963 88.826632 96.91963 
C 88.406265 96.91963 88.003058 97.086644 87.705813 97.383888 
C 87.408569 97.681133 87.241555 98.08434 87.241555 98.504707 
C 87.241555 98.925074 87.408569 99.328281 87.705813 99.625526 
C 88.003058 99.92277 88.406265 100.089784 88.826632 100.089784 
z
" clip-path="url(#pc01780ac25)" style="stroke: #000000"/>
    <path d="M 83.208467 87.163689 
C 83.805877 87.163689 84.3789 86.926335 84.801333 86.503902 
C 85.223766 86.081469 85.46112 85.508446 85.46112 84.911035 
C 85.46112 84.313625 85.223766 83.740602 84.801333 83.318169 
C 84.3789 82.895736 83.805877 82.658382 83.208467 82.658382 
C 82.611056 82.658382 82.038034 82.895736 81.615601 83.318169 
C 81.193167 83.740602 80.955814 84.313625 80.955814 84.911035 
C 80.955814 85.508446 81.193167 86.081469 81.615601 86.503902 
C 82.038034 86.926335 82.611056 87.163689 83.208467 87.163689 
z
" clip-path="url(#pc01780ac25)" style="stroke: #000000"/>
    <path d="M 80.460069 80.521204 
C 80.683077 80.521204 80.896982 80.432602 81.054673 80.274911 
C 81.212363 80.11722 81.300965 79.903316 81.300965 79.680307 
C 81.300965 79.457299 81.212363 79.243395 81.054673 79.085704 
C 80.896982 78.928013 80.683077 78.839411 80.460069 78.839411 
C 80.237061 78.839411 80.023156 78.928013 79.865465 79.085704 
C 79.707775 79.243395 79.619173 79.457299 79.619173 79.680307 
C 79.619173 79.903316 79.707775 80.11722 79.865465 80.274911 
C 80.023156 80.432602 80.237061 80.521204 80.460069 80.521204 
z
" clip-path="url(#pc01780ac25)" style="stroke: #000000"/>
    <path d="M 86.8111 120.053061 
C 87.314675 120.053061 87.797693 119.852988 88.153774 119.496907 
C 88.509856 119.140825 88.709928 118.657807 88.709928 118.154232 
C 88.709928 117.650656 88.509856 117.167638 88.153774 116.811557 
C 87.797693 116.455475 87.314675 116.255403 86.8111 116.255403 
C 86.307524 116.255403 85.824506 116.455475 85.468425 116.811557 
C 85.112343 117.167638 84.912271 117.650656 84.912271 118.154232 
C 84.912271 118.657807 85.112343 119.140825 85.468425 119.496907 
C 85.824506 119.852988 86.307524 120.053061 86.8111 120.053061 
z
" clip-path="url(#pc01780ac25)" style="stroke: #000000"/>
    <path d="M 82.17071 108.040776 
C 82.669994 108.040776 83.148896 107.842408 83.501943 107.489361 
C 83.85499 107.136314 84.053357 106.657412 84.053357 106.158128 
C 84.053357 105.658844 83.85499 105.179943 83.501943 104.826896 
C 83.148896 104.473848 82.669994 104.275481 82.17071 104.275481 
C 81.671426 104.275481 81.192524 104.473848 80.839477 104.826896 
C 80.48643 105.179943 80.288062 105.658844 80.288062 106.158128 
C 80.288062 106.657412 80.48643 107.136314 80.839477 107.489361 
C 81.192524 107.842408 81.671426 108.040776 82.17071 108.040776 
z
" clip-path="url(#pc01780ac25)" style="stroke: #000000"/>
    <path d="M 77.89278 96.044144 
C 78.100312 96.044144 78.299373 95.96169 78.446121 95.814943 
C 78.592868 95.668195 78.675322 95.469134 78.675322 95.261602 
C 78.675322 95.054069 78.592868 94.855008 78.446121 94.708261 
C 78.299373 94.561513 78.100312 94.479059 77.89278 94.479059 
C 77.685247 94.479059 77.486187 94.561513 77.339439 94.708261 
C 77.192691 94.855008 77.110237 95.054069 77.110237 95.261602 
C 77.110237 95.469134 77.192691 95.668195 77.339439 95.814943 
C 77.486187 95.96169 77.685247 96.044144 77.89278 96.044144 
z
" clip-path="url(#pc01780ac25)" style="stroke: #000000"/>
    <path d="M 79.451148 130.040139 
C 79.973608 130.040139 80.474739 129.832564 80.844174 129.463129 
C 81.213609 129.093694 81.421184 128.592563 81.421184 128.070103 
C 81.421184 127.547643 81.213609 127.046512 80.844174 126.677077 
C 80.474739 126.307642 79.973608 126.100066 79.451148 126.100066 
C 78.928688 126.100066 78.427557 126.307642 78.058122 126.677077 
C 77.688687 127.046512 77.481111 127.547643 77.481111 128.070103 
C 77.481111 128.592563 77.688687 129.093694 78.058122 129.463129 
C 78.427557 129.832564 78.928688 130.040139 79.451148 130.040139 
z
" clip-path="url(#pc01780ac25)" style="stroke: #000000"/>
    <path d="M 72.54799 95.847749 
C 73.05397 95.847749 73.539293 95.646722 73.897074 95.28894 
C 74.254856 94.931159 74.455883 94.445835 74.455883 93.939856 
C 74.455883 93.433877 74.254856 92.948554 73.897074 92.590772 
C 73.539293 92.232991 73.05397 92.031964 72.54799 92.031964 
C 72.042011 92.031964 71.556688 92.232991 71.198907 92.590772 
C 70.841125 92.948554 70.640098 93.433877 70.640098 93.939856 
C 70.640098 94.445835 70.841125 94.931159 71.198907 95.28894 
C 71.556688 95.646722 72.042011 95.847749 72.54799 95.847749 
z
" clip-path="url(#pc01780ac25)" style="stroke: #000000"/>
    <path d="M 68.884622 86.783272 
C 69.407081 86.783272 69.908213 86.575697 70.277648 86.206262 
C 70.647083 85.836827 70.854658 85.335696 70.854658 84.813236 
C 70.854658 84.290776 70.647083 83.789645 70.277648 83.42021 
C 69.908213 83.050775 69.407081 82.8432 68.884622 82.8432 
C 68.362162 82.8432 67.86103 83.050775 67.491595 83.42021 
C 67.122161 83.789645 66.914585 84.290776 66.914585 84.813236 
C 66.914585 85.335696 67.122161 85.836827 67.491595 86.206262 
C 67.86103 86.575697 68.362162 86.783272 68.884622 86.783272 
z
" clip-path="url(#pc01780ac25)" style="stroke: #000000"/>
    <path d="M 76.877193 130.81385 
C 77.150322 130.81385 77.4123 130.705335 77.605431 130.512204 
C 77.798562 130.319073 77.907077 130.057095 77.907077 129.783967 
C 77.907077 129.510838 77.798562 129.24886 77.605431 129.055729 
C 77.4123 128.862598 77.150322 128.754083 76.877193 128.754083 
C 76.604065 128.754083 76.342087 128.862598 76.148956 129.055729 
C 75.955825 129.24886 75.84731 129.510838 75.84731 129.783967 
C 75.84731 130.057095 75.955825 130.319073 76.148956 130.512204 
C 76.342087 130.705335 76.604065 130.81385 76.877193 130.81385 
z
" clip-path="url(#pc01780ac25)" style="stroke: #000000"/>
    <path d="M 74.837685 122.821639 
C 75.283701 122.821639 75.71151 122.644435 76.026892 122.329053 
C 76.342273 122.013672 76.519477 121.585863 76.519477 121.139846 
C 76.519477 120.69383 76.342273 120.266021 76.026892 119.950639 
C 75.71151 119.635258 75.283701 119.458054 74.837685 119.458054 
C 74.391668 119.458054 73.963859 119.635258 73.648477 119.950639 
C 73.333096 120.266021 73.155892 120.69383 73.155892 121.139846 
C 73.155892 121.585863 73.333096 122.013672 73.648477 122.329053 
C 73.963859 122.644435 74.391668 122.821639 74.837685 122.821639 
z
" clip-path="url(#pc01780ac25)" style="stroke: #000000"/>
    <path d="M 71.823752 120.405943 
C 72.330327 120.405943 72.816222 120.204679 73.174424 119.846476 
C 73.532626 119.488274 73.733891 119.002379 73.733891 118.495804 
C 73.733891 117.98923 73.532626 117.503335 73.174424 117.145132 
C 72.816222 116.78693 72.330327 116.585666 71.823752 116.585666 
C 71.317177 116.585666 70.831282 116.78693 70.47308 117.145132 
C 70.114877 117.503335 69.913613 117.98923 69.913613 118.495804 
C 69.913613 119.002379 70.114877 119.488274 70.47308 119.846476 
C 70.831282 120.204679 71.317177 120.405943 71.823752 120.405943 
z
" clip-path="url(#pc01780ac25)" style="stroke: #000000"/>
    <path d="M 67.938949 107.744903 
C 68.448471 107.744903 68.937193 107.542468 69.297479 107.182182 
C 69.657765 106.821896 69.860201 106.333174 69.860201 105.823652 
C 69.860201 105.31413 69.657765 104.825409 69.297479 104.465123 
C 68.937193 104.104836 68.448471 103.902401 67.938949 103.902401 
C 67.429428 103.902401 66.940706 104.104836 66.58042 104.465123 
C 66.220134 104.825409 66.017698 105.31413 66.017698 105.823652 
C 66.017698 106.333174 66.220134 106.821896 66.58042 107.182182 
C 66.940706 107.542468 67.429428 107.744903 67.938949 107.744903 
z
" clip-path="url(#pc01780ac25)" style="stroke: #000000"/>
    <path d="M 64.784122 97.263923 
C 64.916724 97.263923 65.043912 97.21124 65.137676 97.117476 
C 65.231439 97.023713 65.284122 96.896524 65.284122 96.763923 
C 65.284122 96.631321 65.231439 96.504133 65.137676 96.410369 
C 65.043912 96.316606 64.916724 96.263923 64.784122 96.263923 
C 64.651521 96.263923 64.524332 96.316606 64.430569 96.410369 
C 64.336805 96.504133 64.284122 96.631321 64.284122 96.763923 
C 64.284122 96.896524 64.336805 97.023713 64.430569 97.117476 
C 64.524332 97.21124 64.651521 97.263923 64.784122 97.263923 
z
" clip-path="url(#pc01780ac25)" style="stroke: #000000"/>
    <path d="M 62.659 95.291378 
C 63.12536 95.291378 63.572682 95.106091 63.902448 94.776325 
C 64.232215 94.446558 64.417502 93.999236 64.417502 93.532876 
C 64.417502 93.066516 64.232215 92.619194 63.902448 92.289428 
C 63.572682 91.959661 63.12536 91.774374 62.659 91.774374 
C 62.19264 91.774374 61.745317 91.959661 61.415551 92.289428 
C 61.085785 92.619194 60.900498 93.066516 60.900498 93.532876 
C 60.900498 93.999236 61.085785 94.446558 61.415551 94.776325 
C 61.745317 95.106091 62.19264 95.291378 62.659 95.291378 
z
" clip-path="url(#pc01780ac25)" style="stroke: #000000"/>
    <path d="M 69.486775 134.716577 
C 69.906098 134.716577 70.308303 134.549978 70.604809 134.253472 
C 70.901315 133.956966 71.067914 133.554761 71.067914 133.135438 
C 71.067914 132.716115 70.901315 132.31391 70.604809 132.017404 
C 70.308303 131.720898 69.906098 131.554299 69.486775 131.554299 
C 69.067452 131.554299 68.665247 131.720898 68.368741 132.017404 
C 68.072235 132.31391 67.905636 132.716115 67.905636 133.135438 
C 67.905636 133.554761 68.072235 133.956966 68.368741 134.253472 
C 68.665247 134.549978 69.067452 134.716577 69.486775 134.716577 
z
" clip-path="url(#pc01780ac25)" style="stroke: #000000"/>
    <path d="M 59.835462 100.268554 
C 60.343222 100.268554 60.830253 100.066819 61.189294 99.707778 
C 61.548334 99.348738 61.750069 98.861707 61.750069 98.353947 
C 61.750069 97.846187 61.548334 97.359156 61.189294 97.000115 
C 60.830253 96.641075 60.343222 96.43934 59.835462 96.43934 
C 59.327703 96.43934 58.840671 96.641075 58.481631 97.000115 
C 58.12259 97.359156 57.920855 97.846187 57.920855 98.353947 
C 57.920855 98.861707 58.12259 99.348738 58.481631 99.707778 
C 58.840671 100.066819 59.327703 100.268554 59.835462 100.268554 
z
" clip-path="url(#pc01780ac25)" style="stroke: #000000"/>
    <path d="M 58.410556 98.204006 
C 58.955861 98.204006 59.478906 97.987354 59.864496 97.601765 
C 60.250085 97.216175 60.466737 96.69313 60.466737 96.147825 
C 60.466737 95.602519 60.250085 95.079474 59.864496 94.693884 
C 59.478906 94.308295 58.955861 94.091643 58.410556 94.091643 
C 57.86525 94.091643 57.342205 94.308295 56.956616 94.693884 
C 56.571026 95.079474 56.354374 95.602519 56.354374 96.147825 
C 56.354374 96.69313 56.571026 97.216175 56.956616 97.601765 
C 57.342205 97.987354 57.86525 98.204006 58.410556 98.204006 
z
" clip-path="url(#pc01780ac25)" style="stroke: #000000"/>
    <path d="M 63.896264 134.678528 
C 64.218791 134.678528 64.528151 134.550387 64.756212 134.322326 
C 64.984272 134.094266 65.112414 133.784905 65.112414 133.462379 
C 65.112414 133.139852 64.984272 132.830492 64.756212 132.602431 
C 64.528151 132.37437 64.218791 132.246229 63.896264 132.246229 
C 63.573737 132.246229 63.264377 132.37437 63.036316 132.602431 
C 62.808256 132.830492 62.680114 133.139852 62.680114 133.462379 
C 62.680114 133.784905 62.808256 134.094266 63.036316 134.322326 
C 63.264377 134.550387 63.573737 134.678528 63.896264 134.678528 
z
" clip-path="url(#pc01780ac25)" style="stroke: #000000"/>
    <path d="M 58.915627 123.622553 
C 59.362512 123.622553 59.791154 123.445004 60.10715 123.129008 
C 60.423146 122.813013 60.600695 122.384371 60.600695 121.937485 
C 60.600695 121.4906 60.423146 121.061958 60.10715 120.745962 
C 59.791154 120.429967 59.362512 120.252417 58.915627 120.252417 
C 58.468742 120.252417 58.0401 120.429967 57.724104 120.745962 
C 57.408108 121.061958 57.230559 121.4906 57.230559 121.937485 
C 57.230559 122.384371 57.408108 122.813013 57.724104 123.129008 
C 58.0401 123.445004 58.468742 123.622553 58.915627 123.622553 
z
" clip-path="url(#pc01780ac25)" style="stroke: #000000"/>
    <path d="M 52.837971 110.822612 
C 53.358797 110.822612 53.858361 110.615686 54.226641 110.247406 
C 54.594921 109.879126 54.801847 109.379561 54.801847 108.858735 
C 54.801847 108.337909 54.594921 107.838344 54.226641 107.470065 
C 53.858361 107.101785 53.358797 106.894858 52.837971 106.894858 
C 52.317144 106.894858 51.81758 107.101785 51.4493 107.470065 
C 51.08102 107.838344 50.874094 108.337909 50.874094 108.858735 
C 50.874094 109.379561 51.08102 109.879126 51.4493 110.247406 
C 51.81758 110.615686 52.317144 110.822612 52.837971 110.822612 
z
" clip-path="url(#pc01780ac25)" style="stroke: #000000"/>
   </g>
   <g id="matplotlib.axis_1">
    <g id="xtick_1">
     <g id="line2d_1">
      <defs>
       <path id="mbf269c4355" d="M 0 0 
L 0 3.5 
" style="stroke: #000000; stroke-width: 0.8"/>
      </defs>
      <g>
       <use xlink:href="#mbf269c4355" x="18" y="189" style="stroke: #000000; stroke-width: 0.8"/>
      </g>
     </g>
     <g id="text_1">
      <!-- −10 -->
      <g transform="translate(7.447656 203.598437)scale(0.1 -0.1)">
       <defs>
        <path id="DejaVuSans-2212" d="M 678 2272 
L 4684 2272 
L 4684 1741 
L 678 1741 
L 678 2272 
z
" transform="scale(0.015625)"/>
        <path id="DejaVuSans-31" d="M 794 531 
L 1825 531 
L 1825 4091 
L 703 3866 
L 703 4441 
L 1819 4666 
L 2450 4666 
L 2450 531 
L 3481 531 
L 3481 0 
L 794 0 
L 794 531 
z
" transform="scale(0.015625)"/>
        <path id="DejaVuSans-30" d="M 2034 4250 
Q 1547 4250 1301 3770 
Q 1056 3291 1056 2328 
Q 1056 1369 1301 889 
Q 1547 409 2034 409 
Q 2525 409 2770 889 
Q 3016 1369 3016 2328 
Q 3016 3291 2770 3770 
Q 2525 4250 2034 4250 
z
M 2034 4750 
Q 2819 4750 3233 4129 
Q 3647 3509 3647 2328 
Q 3647 1150 3233 529 
Q 2819 -91 2034 -91 
Q 1250 -91 836 529 
Q 422 1150 422 2328 
Q 422 3509 836 4129 
Q 1250 4750 2034 4750 
z
" transform="scale(0.015625)"/>
       </defs>
       <use xlink:href="#DejaVuSans-2212"/>
       <use xlink:href="#DejaVuSans-31" x="83.789062"/>
       <use xlink:href="#DejaVuSans-30" x="147.412109"/>
      </g>
     </g>
    </g>
    <g id="xtick_2">
     <g id="line2d_2">
      <g>
       <use xlink:href="#mbf269c4355" x="73.8" y="189" style="stroke: #000000; stroke-width: 0.8"/>
      </g>
     </g>
     <g id="text_2">
      <!-- 0 -->
      <g transform="translate(70.61875 203.598437)scale(0.1 -0.1)">
       <use xlink:href="#DejaVuSans-30"/>
      </g>
     </g>
    </g>
    <g id="xtick_3">
     <g id="line2d_3">
      <g>
       <use xlink:href="#mbf269c4355" x="129.6" y="189" style="stroke: #000000; stroke-width: 0.8"/>
      </g>
     </g>
     <g id="text_3">
      <!-- 10 -->
      <g transform="translate(123.2375 203.598437)scale(0.1 -0.1)">
       <use xlink:href="#DejaVuSans-31"/>
       <use xlink:href="#DejaVuSans-30" x="63.623047"/>
      </g>
     </g>
    </g>
   </g>
   <g id="matplotlib.axis_2">
    <g id="ytick_1">
     <g id="line2d_4">
      <defs>
       <path id="mb73561aeca" d="M 0 0 
L -3.5 0 
" style="stroke: #000000; stroke-width: 0.8"/>
      </defs>
      <g>
       <use xlink:href="#mb73561aeca" x="18" y="189" style="stroke: #000000; stroke-width: 0.8"/>
      </g>
     </g>
     <g id="text_4">
      <!-- −15 -->
      <g transform="translate(-10.104688 192.799219)scale(0.1 -0.1)">
       <defs>
        <path id="DejaVuSans-35" d="M 691 4666 
L 3169 4666 
L 3169 4134 
L 1269 4134 
L 1269 2991 
Q 1406 3038 1543 3061 
Q 1681 3084 1819 3084 
Q 2600 3084 3056 2656 
Q 3513 2228 3513 1497 
Q 3513 744 3044 326 
Q 2575 -91 1722 -91 
Q 1428 -91 1123 -41 
Q 819 9 494 109 
L 494 744 
Q 775 591 1075 516 
Q 1375 441 1709 441 
Q 2250 441 2565 725 
Q 2881 1009 2881 1497 
Q 2881 1984 2565 2268 
Q 2250 2553 1709 2553 
Q 1456 2553 1204 2497 
Q 953 2441 691 2322 
L 691 4666 
z
" transform="scale(0.015625)"/>
       </defs>
       <use xlink:href="#DejaVuSans-2212"/>
       <use xlink:href="#DejaVuSans-31" x="83.789062"/>
       <use xlink:href="#DejaVuSans-35" x="147.412109"/>
      </g>
     </g>
    </g>
    <g id="ytick_2">
     <g id="line2d_5">
      <g>
       <use xlink:href="#mb73561aeca" x="18" y="161.82" style="stroke: #000000; stroke-width: 0.8"/>
      </g>
     </g>
     <g id="text_5">
      <!-- −10 -->
      <g transform="translate(-10.104688 165.619219)scale(0.1 -0.1)">
       <use xlink:href="#DejaVuSans-2212"/>
       <use xlink:href="#DejaVuSans-31" x="83.789062"/>
       <use xlink:href="#DejaVuSans-30" x="147.412109"/>
      </g>
     </g>
    </g>
    <g id="ytick_3">
     <g id="line2d_6">
      <g>
       <use xlink:href="#mb73561aeca" x="18" y="134.64" style="stroke: #000000; stroke-width: 0.8"/>
      </g>
     </g>
     <g id="text_6">
      <!-- −5 -->
      <g transform="translate(-3.742188 138.439219)scale(0.1 -0.1)">
       <use xlink:href="#DejaVuSans-2212"/>
       <use xlink:href="#DejaVuSans-35" x="83.789062"/>
      </g>
     </g>
    </g>
    <g id="ytick_4">
     <g id="line2d_7">
      <g>
       <use xlink:href="#mb73561aeca" x="18" y="107.46" style="stroke: #000000; stroke-width: 0.8"/>
      </g>
     </g>
     <g id="text_7">
      <!-- 0 -->
      <g transform="translate(4.6375 111.259219)scale(0.1 -0.1)">
       <use xlink:href="#DejaVuSans-30"/>
      </g>
     </g>
    </g>
    <g id="ytick_5">
     <g id="line2d_8">
      <g>
       <use xlink:href="#mb73561aeca" x="18" y="80.28" style="stroke: #000000; stroke-width: 0.8"/>
      </g>
     </g>
     <g id="text_8">
      <!-- 5 -->
      <g transform="translate(4.6375 84.079219)scale(0.1 -0.1)">
       <use xlink:href="#DejaVuSans-35"/>
      </g>
     </g>
    </g>
    <g id="ytick_6">
     <g id="line2d_9">
      <g>
       <use xlink:href="#mb73561aeca" x="18" y="53.1" style="stroke: #000000; stroke-width: 0.8"/>
      </g>
     </g>
     <g id="text_9">
      <!-- 10 -->
      <g transform="translate(-1.725 56.899219)scale(0.1 -0.1)">
       <use xlink:href="#DejaVuSans-31"/>
       <use xlink:href="#DejaVuSans-30" x="63.623047"/>
      </g>
     </g>
    </g>
    <g id="ytick_7">
     <g id="line2d_10">
      <g>
       <use xlink:href="#mb73561aeca" x="18" y="25.92" style="stroke: #000000; stroke-width: 0.8"/>
      </g>
     </g>
     <g id="text_10">
      <!-- 15 -->
      <g transform="translate(-1.725 29.719219)scale(0.1 -0.1)">
       <use xlink:href="#DejaVuSans-31"/>
       <use xlink:href="#DejaVuSans-35" x="63.623047"/>
      </g>
     </g>
    </g>
   </g>
   <g id="patch_3">
    <path d="M 18 189 
L 18 25.92 
" style="fill: none; stroke: #000000; stroke-width: 0.8; stroke-linejoin: miter; stroke-linecap: square"/>
   </g>
   <g id="patch_4">
    <path d="M 129.6 189 
L 129.6 25.92 
" style="fill: none; stroke: #000000; stroke-width: 0.8; stroke-linejoin: miter; stroke-linecap: square"/>
   </g>
   <g id="patch_5">
    <path d="M 18 189 
L 129.6 189 
" style="fill: none; stroke: #000000; stroke-width: 0.8; stroke-linejoin: miter; stroke-linecap: square"/>
   </g>
   <g id="patch_6">
    <path d="M 18 25.92 
L 129.6 25.92 
" style="fill: none; stroke: #000000; stroke-width: 0.8; stroke-linejoin: miter; stroke-linecap: square"/>
   </g>
  </g>
 </g>
 <defs>
  <clipPath id="pc01780ac25">
   <rect x="18" y="25.92" width="111.6" height="163.08"/>
  </clipPath>
 </defs>
</svg>
