<?xml version="1.0" encoding="utf-8" standalone="no"?>
<!DOCTYPE svg PUBLIC "-//W3C//DTD SVG 1.1//EN"
  "http://www.w3.org/Graphics/SVG/1.1/DTD/svg11.dtd">
<svg xmlns:xlink="http://www.w3.org/1999/xlink" width="144pt" height="216pt" viewBox="0 0 144 216" xmlns="http://www.w3.org/2000/svg" version="1.1">
 <metadata>
  <rdf:RDF xmlns:dc="http://purl.org/dc/elements/1.1/" xmlns:cc="http://creativecommons.org/ns#" xmlns:rdf="http://www.w3.org/1999/02/22-rdf-syntax-ns#">
   <cc:Work>
    <dc:type rdf:resource="http://purl.org/dc/dcmitype/StillImage"/>
    <dc:date>2022-06-18T00:14:22.322811</dc:date>
    <dc:format>image/svg+xml</dc:format>
    <dc:creator>
     <cc:Agent>
      <dc:title>Matplotlib v3.5.1, https://matplotlib.org/</dc:title>
     </cc:Agent>
    </dc:creator>
   </cc:Work>
  </rdf:RDF>
 </metadata>
 <defs>
  <style type="text/css">*{stroke-linejoin: round; stroke-linecap: butt}</style>
 </defs>
 <g id="figure_1">
  <g id="patch_1">
   <path d="M 0 216 
L 144 216 
L 144 0 
L 0 0 
L 0 216 
z
" style="fill: none"/>
  </g>
  <g id="axes_1">
   <g id="patch_2">
    <path d="M 18 189 
L 129.6 189 
L 129.6 25.92 
L 18 25.92 
z
" style="fill: #ffffff"/>
   </g>
   <g id="PathCollection_1">
    <defs>
     <path id="mdf81287940" d="M 0 2.738613 
C 0.726289 2.738613 1.422928 2.450055 1.936492 1.936492 
C 2.450055 1.422928 2.738613 0.726289 2.738613 0 
C 2.738613 -0.726289 2.450055 -1.422928 1.936492 -1.936492 
C 1.422928 -2.450055 0.726289 -2.738613 0 -2.738613 
C -0.726289 -2.738613 -1.422928 -2.450055 -1.936492 -1.936492 
C -2.450055 -1.422928 -2.738613 -0.726289 -2.738613 0 
C -2.738613 0.726289 -2.450055 1.422928 -1.936492 1.936492 
C -1.422928 2.450055 -0.726289 2.738613 0 2.738613 
z
" style="stroke: #ff0000; stroke-width: 1.75"/>
    </defs>
    <g clip-path="url(#p6e3b615f6d)">
     <use xlink:href="#mdf81287940" x="80.775" y="83.92143" style="fill: #ff0000; stroke: #ff0000; stroke-width: 1.75"/>
     <use xlink:href="#mdf81287940" x="59.85" y="95.690715" style="fill: #ff0000; stroke: #ff0000; stroke-width: 1.75"/>
     <use xlink:href="#mdf81287940" x="66.825" y="107.46" style="fill: #ff0000; stroke: #ff0000; stroke-width: 1.75"/>
     <use xlink:href="#mdf81287940" x="80.775" y="107.46" style="fill: #ff0000; stroke: #ff0000; stroke-width: 1.75"/>
     <use xlink:href="#mdf81287940" x="94.725" y="107.46" style="fill: #ff0000; stroke: #ff0000; stroke-width: 1.75"/>
     <use xlink:href="#mdf81287940" x="59.85" y="119.229285" style="fill: #ff0000; stroke: #ff0000; stroke-width: 1.75"/>
     <use xlink:href="#mdf81287940" x="80.775" y="130.99857" style="fill: #ff0000; stroke: #ff0000; stroke-width: 1.75"/>
    </g>
   </g>
   <g id="PathCollection_2">
    <defs>
     <path id="C0_0_ae242b225d" d="M 0 2.738613 
C 0.726289 2.738613 1.422928 2.450055 1.936492 1.936492 
C 2.450055 1.422928 2.738613 0.726289 2.738613 -0 
C 2.738613 -0.726289 2.450055 -1.422928 1.936492 -1.936492 
C 1.422928 -2.450055 0.726289 -2.738613 0 -2.738613 
C -0.726289 -2.738613 -1.422928 -2.450055 -1.936492 -1.936492 
C -2.450055 -1.422928 -2.738613 -0.726289 -2.738613 0 
C -2.738613 0.726289 -2.450055 1.422928 -1.936492 1.936492 
C -1.422928 2.450055 -0.726289 2.738613 0 2.738613 
z
"/>
    </defs>
    <g clip-path="url(#p6e3b615f6d)">
     <use xlink:href="#C0_0_ae242b225d" x="66.825" y="83.92143" style="fill: none; stroke: #ff0000; stroke-width: 1.75"/>
    </g>
    <g clip-path="url(#p6e3b615f6d)">
     <use xlink:href="#C0_0_ae242b225d" x="73.8" y="95.690715" style="fill: none; stroke: #ff0000; stroke-width: 1.75"/>
    </g>
    <g clip-path="url(#p6e3b615f6d)">
     <use xlink:href="#C0_0_ae242b225d" x="87.75" y="95.690715" style="fill: none; stroke: #ff0000; stroke-width: 1.75"/>
    </g>
    <g clip-path="url(#p6e3b615f6d)">
     <use xlink:href="#C0_0_ae242b225d" x="52.875" y="107.46" style="fill: none; stroke: #ff0000; stroke-width: 1.75"/>
    </g>
    <g clip-path="url(#p6e3b615f6d)">
     <use xlink:href="#C0_0_ae242b225d" x="73.8" y="119.229285" style="fill: none; stroke: #ff0000; stroke-width: 1.75"/>
    </g>
    <g clip-path="url(#p6e3b615f6d)">
     <use xlink:href="#C0_0_ae242b225d" x="87.75" y="119.229285" style="fill: none; stroke: #ff0000; stroke-width: 1.75"/>
    </g>
    <g clip-path="url(#p6e3b615f6d)">
     <use xlink:href="#C0_0_ae242b225d" x="66.825" y="130.99857" style="fill: none; stroke: #ff0000; stroke-width: 1.75"/>
    </g>
   </g>
   <g id="PathCollection_3">
    <path d="M 111.228264 78.782175 
C 111.509555 78.782175 111.779362 78.670417 111.978264 78.471515 
C 112.177167 78.272612 112.288925 78.002805 112.288925 77.721515 
C 112.288925 77.440224 112.177167 77.170417 111.978264 76.971515 
C 111.779362 76.772612 111.509555 76.660855 111.228264 76.660855 
C 110.946974 76.660855 110.677167 76.772612 110.478264 76.971515 
C 110.279362 77.170417 110.167604 77.440224 110.167604 77.721515 
C 110.167604 78.002805 110.279362 78.272612 110.478264 78.471515 
C 110.677167 78.670417 110.946974 78.782175 111.228264 78.782175 
z
" clip-path="url(#p6e3b615f6d)" style="stroke: #000000"/>
    <path d="M 106.149015 57.934121 
C 106.378688 57.934121 106.598985 57.842871 106.761388 57.680468 
C 106.923791 57.518065 107.015041 57.297768 107.015041 57.068096 
C 107.015041 56.838423 106.923791 56.618126 106.761388 56.455723 
C 106.598985 56.29332 106.378688 56.20207 106.149015 56.20207 
C 105.919343 56.20207 105.699046 56.29332 105.536643 56.455723 
C 105.37424 56.618126 105.28299 56.838423 105.28299 57.068096 
C 105.28299 57.297768 105.37424 57.518065 105.536643 57.680468 
C 105.699046 57.842871 105.919343 57.934121 106.149015 57.934121 
z
" clip-path="url(#p6e3b615f6d)" style="stroke: #000000"/>
    <path d="M 115.622921 109.733271 
C 115.821207 109.733271 116.011398 109.654491 116.151607 109.514282 
C 116.291816 109.374073 116.370595 109.183882 116.370595 108.985597 
C 116.370595 108.787311 116.291816 108.59712 116.151607 108.456911 
C 116.011398 108.316702 115.821207 108.237922 115.622921 108.237922 
C 115.424636 108.237922 115.234445 108.316702 115.094235 108.456911 
C 114.954026 108.59712 114.875247 108.787311 114.875247 108.985597 
C 114.875247 109.183882 114.954026 109.374073 115.094235 109.514282 
C 115.234445 109.654491 115.424636 109.733271 115.622921 109.733271 
z
" clip-path="url(#p6e3b615f6d)" style="stroke: #000000"/>
    <path d="M 109.49469 100.673968 
C 109.731953 100.673968 109.95953 100.579703 110.1273 100.411933 
C 110.29507 100.244162 110.389336 100.016585 110.389336 99.779323 
C 110.389336 99.54206 110.29507 99.314483 110.1273 99.146713 
C 109.95953 98.978943 109.731953 98.884677 109.49469 98.884677 
C 109.257428 98.884677 109.029851 98.978943 108.86208 99.146713 
C 108.69431 99.314483 108.600045 99.54206 108.600045 99.779323 
C 108.600045 100.016585 108.69431 100.244162 108.86208 100.411933 
C 109.029851 100.579703 109.257428 100.673968 109.49469 100.673968 
z
" clip-path="url(#p6e3b615f6d)" style="stroke: #000000"/>
    <path d="M 101.227821 94.25127 
C 101.481996 94.25127 101.725794 94.150285 101.905523 93.970557 
C 102.085251 93.790828 102.186236 93.54703 102.186236 93.292855 
C 102.186236 93.038681 102.085251 92.794882 101.905523 92.615154 
C 101.725794 92.435425 101.481996 92.334441 101.227821 92.334441 
C 100.973647 92.334441 100.729848 92.435425 100.55012 92.615154 
C 100.370391 92.794882 100.269407 93.038681 100.269407 93.292855 
C 100.269407 93.54703 100.370391 93.790828 100.55012 93.970557 
C 100.729848 94.150285 100.973647 94.25127 101.227821 94.25127 
z
" clip-path="url(#p6e3b615f6d)" style="stroke: #000000"/>
    <path d="M 102.091024 74.750963 
C 102.231233 74.750963 102.365719 74.695257 102.464861 74.596115 
C 102.564004 74.496972 102.61971 74.362487 102.61971 74.222278 
C 102.61971 74.082068 102.564004 73.947583 102.464861 73.84844 
C 102.365719 73.749298 102.231233 73.693592 102.091024 73.693592 
C 101.950815 73.693592 101.81633 73.749298 101.717187 73.84844 
C 101.618044 73.947583 101.562339 74.082068 101.562339 74.222278 
C 101.562339 74.362487 101.618044 74.496972 101.717187 74.596115 
C 101.81633 74.695257 101.950815 74.750963 102.091024 74.750963 
z
" clip-path="url(#p6e3b615f6d)" style="stroke: #000000"/>
    <path d="M 100.11592 70.525517 
C 100.209683 70.525517 100.299619 70.488265 100.36592 70.421964 
C 100.43222 70.355663 100.469473 70.265728 100.469473 70.171964 
C 100.469473 70.078201 100.43222 69.988265 100.36592 69.921964 
C 100.299619 69.855663 100.209683 69.818411 100.11592 69.818411 
C 100.022156 69.818411 99.93222 69.855663 99.86592 69.921964 
C 99.799619 69.988265 99.762366 70.078201 99.762366 70.171964 
C 99.762366 70.265728 99.799619 70.355663 99.86592 70.421964 
C 99.93222 70.488265 100.022156 70.525517 100.11592 70.525517 
z
" clip-path="url(#p6e3b615f6d)" style="stroke: #000000"/>
    <path d="M 95.998436 54.444231 
C 96.279726 54.444231 96.549533 54.332473 96.748436 54.133571 
C 96.947338 53.934669 97.059096 53.664861 97.059096 53.383571 
C 97.059096 53.102281 96.947338 52.832473 96.748436 52.633571 
C 96.549533 52.434669 96.279726 52.322911 95.998436 52.322911 
C 95.717145 52.322911 95.447338 52.434669 95.248436 52.633571 
C 95.049533 52.832473 94.937775 53.102281 94.937775 53.383571 
C 94.937775 53.664861 95.049533 53.934669 95.248436 54.133571 
C 95.447338 54.332473 95.717145 54.444231 95.998436 54.444231 
z
" clip-path="url(#p6e3b615f6d)" style="stroke: #000000"/>
    <path d="M 94.709125 44.697727 
C 94.709125 44.697727 94.709125 44.697727 94.709125 44.697727 
C 94.709125 44.697727 94.709125 44.697727 94.709125 44.697727 
C 94.709125 44.697727 94.709125 44.697727 94.709125 44.697727 
C 94.709125 44.697727 94.709125 44.697727 94.709125 44.697727 
C 94.709125 44.697727 94.709125 44.697727 94.709125 44.697727 
C 94.709125 44.697727 94.709125 44.697727 94.709125 44.697727 
C 94.709125 44.697727 94.709125 44.697727 94.709125 44.697727 
C 94.709125 44.697727 94.709125 44.697727 94.709125 44.697727 
z
" clip-path="url(#p6e3b615f6d)" style="stroke: #000000"/>
    <path d="M 89.109666 39.318445 
C 89.390956 39.318445 89.660764 39.206687 89.859666 39.007785 
C 90.058568 38.808883 90.170326 38.539075 90.170326 38.257785 
C 90.170326 37.976495 90.058568 37.706687 89.859666 37.507785 
C 89.660764 37.308883 89.390956 37.197125 89.109666 37.197125 
C 88.828376 37.197125 88.558568 37.308883 88.359666 37.507785 
C 88.160764 37.706687 88.049006 37.976495 88.049006 38.257785 
C 88.049006 38.539075 88.160764 38.808883 88.359666 39.007785 
C 88.558568 39.206687 88.828376 39.318445 89.109666 39.318445 
z
" clip-path="url(#p6e3b615f6d)" style="stroke: #000000"/>
    <path d="M 122.27817 173.481763 
C 122.558589 173.481763 122.827559 173.370351 123.025845 173.172066 
C 123.22413 172.97378 123.335542 172.704809 123.335542 172.424391 
C 123.335542 172.143973 123.22413 171.875002 123.025845 171.676717 
C 122.827559 171.478431 122.558589 171.36702 122.27817 171.36702 
C 121.997752 171.36702 121.728782 171.478431 121.530496 171.676717 
C 121.33221 171.875002 121.220799 172.143973 121.220799 172.424391 
C 121.220799 172.704809 121.33221 172.97378 121.530496 173.172066 
C 121.728782 173.370351 121.997752 173.481763 122.27817 173.481763 
z
" clip-path="url(#p6e3b615f6d)" style="stroke: #000000"/>
    <path d="M 117.045443 167.578229 
C 117.325861 167.578229 117.594831 167.466818 117.793117 167.268532 
C 117.991403 167.070247 118.102814 166.801276 118.102814 166.520858 
C 118.102814 166.24044 117.991403 165.971469 117.793117 165.773184 
C 117.594831 165.574898 117.325861 165.463487 117.045443 165.463487 
C 116.765024 165.463487 116.496054 165.574898 116.297768 165.773184 
C 116.099483 165.971469 115.988071 166.24044 115.988071 166.520858 
C 115.988071 166.801276 116.099483 167.070247 116.297768 167.268532 
C 116.496054 167.466818 116.765024 167.578229 117.045443 167.578229 
z
" clip-path="url(#p6e3b615f6d)" style="stroke: #000000"/>
    <path d="M 116.835534 156.422201 
C 117.060265 156.422201 117.275821 156.332914 117.43473 156.174006 
C 117.593638 156.015097 117.682925 155.799541 117.682925 155.57481 
C 117.682925 155.35008 117.593638 155.134523 117.43473 154.975615 
C 117.275821 154.816706 117.060265 154.72742 116.835534 154.72742 
C 116.610804 154.72742 116.395248 154.816706 116.236339 154.975615 
C 116.077431 155.134523 115.988144 155.35008 115.988144 155.57481 
C 115.988144 155.799541 116.077431 156.015097 116.236339 156.174006 
C 116.395248 156.332914 116.610804 156.422201 116.835534 156.422201 
z
" clip-path="url(#p6e3b615f6d)" style="stroke: #000000"/>
    <path d="M 111.865182 143.837802 
C 112.146472 143.837802 112.41628 143.726044 112.615182 143.527142 
C 112.814084 143.32824 112.925842 143.058432 112.925842 142.777142 
C 112.925842 142.495851 112.814084 142.226044 112.615182 142.027142 
C 112.41628 141.82824 112.146472 141.716482 111.865182 141.716482 
C 111.583892 141.716482 111.314084 141.82824 111.115182 142.027142 
C 110.91628 142.226044 110.804522 142.495851 110.804522 142.777142 
C 110.804522 143.058432 110.91628 143.32824 111.115182 143.527142 
C 111.314084 143.726044 111.583892 143.837802 111.865182 143.837802 
z
" clip-path="url(#p6e3b615f6d)" style="stroke: #000000"/>
    <path d="M 113.626182 133.773526 
C 113.626182 133.773526 113.626182 133.773526 113.626182 133.773526 
C 113.626182 133.773526 113.626182 133.773526 113.626182 133.773526 
C 113.626182 133.773526 113.626182 133.773526 113.626182 133.773526 
C 113.626182 133.773526 113.626182 133.773526 113.626182 133.773526 
C 113.626182 133.773526 113.626182 133.773526 113.626182 133.773526 
C 113.626182 133.773526 113.626182 133.773526 113.626182 133.773526 
C 113.626182 133.773526 113.626182 133.773526 113.626182 133.773526 
C 113.626182 133.773526 113.626182 133.773526 113.626182 133.773526 
z
" clip-path="url(#p6e3b615f6d)" style="stroke: #000000"/>
    <path d="M 103.949272 126.093117 
C 104.158933 126.093117 104.360036 126.009818 104.508289 125.861565 
C 104.656542 125.713312 104.739841 125.512209 104.739841 125.302548 
C 104.739841 125.092886 104.656542 124.891784 104.508289 124.743531 
C 104.360036 124.595278 104.158933 124.511978 103.949272 124.511978 
C 103.73961 124.511978 103.538508 124.595278 103.390255 124.743531 
C 103.242002 124.891784 103.158702 125.092886 103.158702 125.302548 
C 103.158702 125.512209 103.242002 125.713312 103.390255 125.861565 
C 103.538508 126.009818 103.73961 126.093117 103.949272 126.093117 
z
" clip-path="url(#p6e3b615f6d)" style="stroke: #000000"/>
    <path d="M 100.781513 112.64208 
C 101.009574 112.64208 101.228325 112.55147 101.389588 112.390207 
C 101.550851 112.228944 101.641461 112.010193 101.641461 111.782132 
C 101.641461 111.554071 101.550851 111.335321 101.389588 111.174057 
C 101.228325 111.012794 101.009574 110.922184 100.781513 110.922184 
C 100.553452 110.922184 100.334702 111.012794 100.173438 111.174057 
C 100.012175 111.335321 99.921566 111.554071 99.921566 111.782132 
C 99.921566 112.010193 100.012175 112.228944 100.173438 112.390207 
C 100.334702 112.55147 100.553452 112.64208 100.781513 112.64208 
z
" clip-path="url(#p6e3b615f6d)" style="stroke: #000000"/>
    <path d="M 102.462733 108.008494 
C 102.744023 108.008494 103.01383 107.896736 103.212733 107.697834 
C 103.411635 107.498932 103.523393 107.229124 103.523393 106.947834 
C 103.523393 106.666544 103.411635 106.396736 103.212733 106.197834 
C 103.01383 105.998932 102.744023 105.887174 102.462733 105.887174 
C 102.181442 105.887174 101.911635 105.998932 101.712733 106.197834 
C 101.51383 106.396736 101.402072 106.666544 101.402072 106.947834 
C 101.402072 107.229124 101.51383 107.498932 101.712733 107.697834 
C 101.911635 107.896736 102.181442 108.008494 102.462733 108.008494 
z
" clip-path="url(#p6e3b615f6d)" style="stroke: #000000"/>
    <path d="M 94.034295 93.349622 
C 94.315585 93.349622 94.585392 93.237864 94.784295 93.038962 
C 94.983197 92.84006 95.094955 92.570252 95.094955 92.288962 
C 95.094955 92.007672 94.983197 91.737864 94.784295 91.538962 
C 94.585392 91.34006 94.315585 91.228302 94.034295 91.228302 
C 93.753004 91.228302 93.483197 91.34006 93.284295 91.538962 
C 93.085392 91.737864 92.973634 92.007672 92.973634 92.288962 
C 92.973634 92.570252 93.085392 92.84006 93.284295 93.038962 
C 93.483197 93.237864 93.753004 93.349622 94.034295 93.349622 
z
" clip-path="url(#p6e3b615f6d)" style="stroke: #000000"/>
    <path d="M 96.050397 79.939131 
C 96.264132 79.939131 96.469141 79.854213 96.620274 79.70308 
C 96.771407 79.551947 96.856325 79.346938 96.856325 79.133203 
C 96.856325 78.919469 96.771407 78.71446 96.620274 78.563327 
C 96.469141 78.412193 96.264132 78.327276 96.050397 78.327276 
C 95.836663 78.327276 95.631654 78.412193 95.480521 78.563327 
C 95.329387 78.71446 95.24447 78.919469 95.24447 79.133203 
C 95.24447 79.346938 95.329387 79.551947 95.480521 79.70308 
C 95.631654 79.854213 95.836663 79.939131 96.050397 79.939131 
z
" clip-path="url(#p6e3b615f6d)" style="stroke: #000000"/>
    <path d="M 88.748372 73.46372 
C 89.029663 73.46372 89.29947 73.351962 89.498372 73.15306 
C 89.697275 72.954158 89.809033 72.68435 89.809033 72.40306 
C 89.809033 72.12177 89.697275 71.851962 89.498372 71.65306 
C 89.29947 71.454158 89.029663 71.3424 88.748372 71.3424 
C 88.467082 71.3424 88.197275 71.454158 87.998372 71.65306 
C 87.79947 71.851962 87.687712 72.12177 87.687712 72.40306 
C 87.687712 72.68435 87.79947 72.954158 87.998372 73.15306 
C 88.197275 73.351962 88.467082 73.46372 88.748372 73.46372 
z
" clip-path="url(#p6e3b615f6d)" style="stroke: #000000"/>
    <path d="M 86.752711 64.808702 
C 86.910402 64.808702 87.061655 64.746051 87.173159 64.634547 
C 87.284663 64.523043 87.347315 64.371789 87.347315 64.214099 
C 87.347315 64.056408 87.284663 63.905155 87.173159 63.793651 
C 87.061655 63.682146 86.910402 63.619495 86.752711 63.619495 
C 86.59502 63.619495 86.443767 63.682146 86.332263 63.793651 
C 86.220759 63.905155 86.158107 64.056408 86.158107 64.214099 
C 86.158107 64.371789 86.220759 64.523043 86.332263 64.634547 
C 86.443767 64.746051 86.59502 64.808702 86.752711 64.808702 
z
" clip-path="url(#p6e3b615f6d)" style="stroke: #000000"/>
    <path d="M 81.766526 50.629902 
C 82.047816 50.629902 82.317624 50.518144 82.516526 50.319242 
C 82.715428 50.12034 82.827186 49.850532 82.827186 49.569242 
C 82.827186 49.287952 82.715428 49.018144 82.516526 48.819242 
C 82.317624 48.62034 82.047816 48.508582 81.766526 48.508582 
C 81.485236 48.508582 81.215428 48.62034 81.016526 48.819242 
C 80.817624 49.018144 80.705866 49.287952 80.705866 49.569242 
C 80.705866 49.850532 80.817624 50.12034 81.016526 50.319242 
C 81.215428 50.518144 81.485236 50.629902 81.766526 50.629902 
z
" clip-path="url(#p6e3b615f6d)" style="stroke: #000000"/>
    <path d="M 77.174876 41.826467 
C 77.455294 41.826467 77.724264 41.715055 77.92255 41.51677 
C 78.120836 41.318484 78.232247 41.049514 78.232247 40.769095 
C 78.232247 40.488677 78.120836 40.219707 77.92255 40.021421 
C 77.724264 39.823136 77.455294 39.711724 77.174876 39.711724 
C 76.894457 39.711724 76.625487 39.823136 76.427201 40.021421 
C 76.228916 40.219707 76.117504 40.488677 76.117504 40.769095 
C 76.117504 41.049514 76.228916 41.318484 76.427201 41.51677 
C 76.625487 41.715055 76.894457 41.826467 77.174876 41.826467 
z
" clip-path="url(#p6e3b615f6d)" style="stroke: #000000"/>
    <path d="M 75.299108 31.550268 
C 75.299108 31.550268 75.299108 31.550268 75.299108 31.550268 
C 75.299108 31.550268 75.299108 31.550268 75.299108 31.550268 
C 75.299108 31.550268 75.299108 31.550268 75.299108 31.550268 
C 75.299108 31.550268 75.299108 31.550268 75.299108 31.550268 
C 75.299108 31.550268 75.299108 31.550268 75.299108 31.550268 
C 75.299108 31.550268 75.299108 31.550268 75.299108 31.550268 
C 75.299108 31.550268 75.299108 31.550268 75.299108 31.550268 
C 75.299108 31.550268 75.299108 31.550268 75.299108 31.550268 
z
" clip-path="url(#p6e3b615f6d)" style="stroke: #000000"/>
    <path d="M 71.158593 22.35867 
C 71.158593 22.35867 71.158593 22.35867 71.158593 22.35867 
C 71.158593 22.35867 71.158593 22.35867 71.158593 22.35867 
C 71.158593 22.35867 71.158593 22.35867 71.158593 22.35867 
C 71.158593 22.35867 71.158593 22.35867 71.158593 22.35867 
C 71.158593 22.35867 71.158593 22.35867 71.158593 22.35867 
C 71.158593 22.35867 71.158593 22.35867 71.158593 22.35867 
C 71.158593 22.35867 71.158593 22.35867 71.158593 22.35867 
C 71.158593 22.35867 71.158593 22.35867 71.158593 22.35867 
z
" clip-path="url(#p6e3b615f6d)" style="stroke: #000000"/>
    <path d="M 112.659683 179.40415 
C 112.882691 179.40415 113.096595 179.315547 113.254286 179.157857 
C 113.411977 179.000166 113.500579 178.786262 113.500579 178.563253 
C 113.500579 178.340245 113.411977 178.12634 113.254286 177.96865 
C 113.096595 177.810959 112.882691 177.722357 112.659683 177.722357 
C 112.436674 177.722357 112.22277 177.810959 112.065079 177.96865 
C 111.907388 178.12634 111.818786 178.340245 111.818786 178.563253 
C 111.818786 178.786262 111.907388 179.000166 112.065079 179.157857 
C 112.22277 179.315547 112.436674 179.40415 112.659683 179.40415 
z
" clip-path="url(#p6e3b615f6d)" style="stroke: #000000"/>
    <path d="M 113.290984 165.097787 
C 113.571402 165.097787 113.840373 164.986375 114.038659 164.78809 
C 114.236944 164.589804 114.348355 164.320833 114.348355 164.040415 
C 114.348355 163.759997 114.236944 163.491026 114.038659 163.292741 
C 113.840373 163.094455 113.571402 162.983044 113.290984 162.983044 
C 113.010566 162.983044 112.741595 163.094455 112.54331 163.292741 
C 112.345024 163.491026 112.233613 163.759997 112.233613 164.040415 
C 112.233613 164.320833 112.345024 164.589804 112.54331 164.78809 
C 112.741595 164.986375 113.010566 165.097787 113.290984 165.097787 
z
" clip-path="url(#p6e3b615f6d)" style="stroke: #000000"/>
    <path d="M 108.087764 160.594322 
C 108.369054 160.594322 108.638861 160.482565 108.837764 160.283662 
C 109.036666 160.08476 109.148424 159.814953 109.148424 159.533662 
C 109.148424 159.252372 109.036666 158.982565 108.837764 158.783662 
C 108.638861 158.58476 108.369054 158.473002 108.087764 158.473002 
C 107.806473 158.473002 107.536666 158.58476 107.337764 158.783662 
C 107.138861 158.982565 107.027103 159.252372 107.027103 159.533662 
C 107.027103 159.814953 107.138861 160.08476 107.337764 160.283662 
C 107.536666 160.482565 107.806473 160.594322 108.087764 160.594322 
z
" clip-path="url(#p6e3b615f6d)" style="stroke: #000000"/>
    <path d="M 101.738127 146.361152 
C 102.019418 146.361152 102.289225 146.249395 102.488127 146.050492 
C 102.68703 145.85159 102.798787 145.581783 102.798787 145.300492 
C 102.798787 145.019202 102.68703 144.749395 102.488127 144.550492 
C 102.289225 144.35159 102.019418 144.239832 101.738127 144.239832 
C 101.456837 144.239832 101.18703 144.35159 100.988127 144.550492 
C 100.789225 144.749395 100.677467 145.019202 100.677467 145.300492 
C 100.677467 145.581783 100.789225 145.85159 100.988127 146.050492 
C 101.18703 146.249395 101.456837 146.361152 101.738127 146.361152 
z
" clip-path="url(#p6e3b615f6d)" style="stroke: #000000"/>
    <path d="M 100.178063 137.80541 
C 100.459353 137.80541 100.72916 137.693652 100.928063 137.49475 
C 101.126965 137.295848 101.238723 137.02604 101.238723 136.74475 
C 101.238723 136.46346 101.126965 136.193652 100.928063 135.99475 
C 100.72916 135.795848 100.459353 135.68409 100.178063 135.68409 
C 99.896772 135.68409 99.626965 135.795848 99.428063 135.99475 
C 99.22916 136.193652 99.117403 136.46346 99.117403 136.74475 
C 99.117403 137.02604 99.22916 137.295848 99.428063 137.49475 
C 99.626965 137.693652 99.896772 137.80541 100.178063 137.80541 
z
" clip-path="url(#p6e3b615f6d)" style="stroke: #000000"/>
    <path d="M 96.354621 126.648048 
C 96.635911 126.648048 96.905718 126.53629 97.104621 126.337388 
C 97.303523 126.138486 97.415281 125.868679 97.415281 125.587388 
C 97.415281 125.306098 97.303523 125.03629 97.104621 124.837388 
C 96.905718 124.638486 96.635911 124.526728 96.354621 124.526728 
C 96.07333 124.526728 95.803523 124.638486 95.604621 124.837388 
C 95.405718 125.03629 95.29396 125.306098 95.29396 125.587388 
C 95.29396 125.868679 95.405718 126.138486 95.604621 126.337388 
C 95.803523 126.53629 96.07333 126.648048 96.354621 126.648048 
z
" clip-path="url(#p6e3b615f6d)" style="stroke: #000000"/>
    <path d="M 90.960498 117.218706 
C 91.241788 117.218706 91.511595 117.106948 91.710498 116.908046 
C 91.9094 116.709144 92.021158 116.439336 92.021158 116.158046 
C 92.021158 115.876756 91.9094 115.606948 91.710498 115.408046 
C 91.511595 115.209144 91.241788 115.097386 90.960498 115.097386 
C 90.679207 115.097386 90.4094 115.209144 90.210498 115.408046 
C 90.011595 115.606948 89.899838 115.876756 89.899838 116.158046 
C 89.899838 116.439336 90.011595 116.709144 90.210498 116.908046 
C 90.4094 117.106948 90.679207 117.218706 90.960498 117.218706 
z
" clip-path="url(#p6e3b615f6d)" style="stroke: #000000"/>
    <path d="M 89.520795 105.800743 
C 89.85479 105.800743 90.17515 105.668046 90.411321 105.431875 
C 90.647491 105.195705 90.780188 104.875345 90.780188 104.54135 
C 90.780188 104.207355 90.647491 103.886994 90.411321 103.650824 
C 90.17515 103.414654 89.85479 103.281956 89.520795 103.281956 
C 89.1868 103.281956 88.866439 103.414654 88.630269 103.650824 
C 88.394099 103.886994 88.261401 104.207355 88.261401 104.54135 
C 88.261401 104.875345 88.394099 105.195705 88.630269 105.431875 
C 88.866439 105.668046 89.1868 105.800743 89.520795 105.800743 
z
" clip-path="url(#p6e3b615f6d)" style="stroke: #000000"/>
    <path d="M 83.598912 96.164842 
C 83.880202 96.164842 84.15001 96.053084 84.348912 95.854182 
C 84.547814 95.65528 84.659572 95.385472 84.659572 95.104182 
C 84.659572 94.822892 84.547814 94.553084 84.348912 94.354182 
C 84.15001 94.15528 83.880202 94.043522 83.598912 94.043522 
C 83.317622 94.043522 83.047814 94.15528 82.848912 94.354182 
C 82.65001 94.553084 82.538252 94.822892 82.538252 95.104182 
C 82.538252 95.385472 82.65001 95.65528 82.848912 95.854182 
C 83.047814 96.053084 83.317622 96.164842 83.598912 96.164842 
z
" clip-path="url(#p6e3b615f6d)" style="stroke: #000000"/>
    <path d="M 81.103186 87.757625 
C 81.338989 87.757625 81.565165 87.66394 81.731903 87.497202 
C 81.898641 87.330464 81.992326 87.104288 81.992326 86.868485 
C 81.992326 86.632683 81.898641 86.406506 81.731903 86.239769 
C 81.565165 86.073031 81.338989 85.979346 81.103186 85.979346 
C 80.867384 85.979346 80.641207 86.073031 80.474469 86.239769 
C 80.307732 86.406506 80.214046 86.632683 80.214046 86.868485 
C 80.214046 87.104288 80.307732 87.330464 80.474469 87.497202 
C 80.641207 87.66394 80.867384 87.757625 81.103186 87.757625 
z
" clip-path="url(#p6e3b615f6d)" style="stroke: #000000"/>
    <path d="M 81.398172 80.132025 
C 81.679463 80.132025 81.94927 80.020267 82.148172 79.821365 
C 82.347075 79.622462 82.458833 79.352655 82.458833 79.071365 
C 82.458833 78.790074 82.347075 78.520267 82.148172 78.321365 
C 81.94927 78.122462 81.679463 78.010704 81.398172 78.010704 
C 81.116882 78.010704 80.847075 78.122462 80.648172 78.321365 
C 80.44927 78.520267 80.337512 78.790074 80.337512 79.071365 
C 80.337512 79.352655 80.44927 79.622462 80.648172 79.821365 
C 80.847075 80.020267 81.116882 80.132025 81.398172 80.132025 
z
" clip-path="url(#p6e3b615f6d)" style="stroke: #000000"/>
    <path d="M 72.925672 67.661579 
C 73.206962 67.661579 73.47677 67.549822 73.675672 67.350919 
C 73.874574 67.152017 73.986332 66.88221 73.986332 66.600919 
C 73.986332 66.319629 73.874574 66.049822 73.675672 65.850919 
C 73.47677 65.652017 73.206962 65.540259 72.925672 65.540259 
C 72.644382 65.540259 72.374574 65.652017 72.175672 65.850919 
C 71.97677 66.049822 71.865012 66.319629 71.865012 66.600919 
C 71.865012 66.88221 71.97677 67.152017 72.175672 67.350919 
C 72.374574 67.549822 72.644382 67.661579 72.925672 67.661579 
z
" clip-path="url(#p6e3b615f6d)" style="stroke: #000000"/>
    <path d="M 69.349704 56.449293 
C 69.349704 56.449293 69.349704 56.449293 69.349704 56.449293 
C 69.349704 56.449293 69.349704 56.449293 69.349704 56.449293 
C 69.349704 56.449293 69.349704 56.449293 69.349704 56.449293 
C 69.349704 56.449293 69.349704 56.449293 69.349704 56.449293 
C 69.349704 56.449293 69.349704 56.449293 69.349704 56.449293 
C 69.349704 56.449293 69.349704 56.449293 69.349704 56.449293 
C 69.349704 56.449293 69.349704 56.449293 69.349704 56.449293 
C 69.349704 56.449293 69.349704 56.449293 69.349704 56.449293 
z
" clip-path="url(#p6e3b615f6d)" style="stroke: #000000"/>
    <path d="M 65.486484 44.262809 
C 65.712898 44.262809 65.930069 44.172854 66.090168 44.012755 
C 66.250267 43.852656 66.340222 43.635485 66.340222 43.409071 
C 66.340222 43.182657 66.250267 42.965486 66.090168 42.805387 
C 65.930069 42.645288 65.712898 42.555333 65.486484 42.555333 
C 65.26007 42.555333 65.042899 42.645288 64.8828 42.805387 
C 64.722701 42.965486 64.632746 43.182657 64.632746 43.409071 
C 64.632746 43.635485 64.722701 43.852656 64.8828 44.012755 
C 65.042899 44.172854 65.26007 44.262809 65.486484 44.262809 
z
" clip-path="url(#p6e3b615f6d)" style="stroke: #000000"/>
    <path d="M 66.470066 31.86997 
C 66.694796 31.86997 66.910353 31.780684 67.069261 31.621776 
C 67.22817 31.462867 67.317456 31.247311 67.317456 31.02258 
C 67.317456 30.79785 67.22817 30.582293 67.069261 30.423385 
C 66.910353 30.264476 66.694796 30.17519 66.470066 30.17519 
C 66.245335 30.17519 66.029779 30.264476 65.87087 30.423385 
C 65.711962 30.582293 65.622675 30.79785 65.622675 31.02258 
C 65.622675 31.247311 65.711962 31.462867 65.87087 31.621776 
C 66.029779 31.780684 66.245335 31.86997 66.470066 31.86997 
z
" clip-path="url(#p6e3b615f6d)" style="stroke: #000000"/>
    <path d="M 100.763824 182.376485 
C 101.045115 182.376485 101.314922 182.264727 101.513824 182.065825 
C 101.712727 181.866923 101.824484 181.597115 101.824484 181.315825 
C 101.824484 181.034535 101.712727 180.764727 101.513824 180.565825 
C 101.314922 180.366923 101.045115 180.255165 100.763824 180.255165 
C 100.482534 180.255165 100.212727 180.366923 100.013824 180.565825 
C 99.814922 180.764727 99.703164 181.034535 99.703164 181.315825 
C 99.703164 181.597115 99.814922 181.866923 100.013824 182.065825 
C 100.212727 182.264727 100.482534 182.376485 100.763824 182.376485 
z
" clip-path="url(#p6e3b615f6d)" style="stroke: #000000"/>
    <path d="M 96.587663 166.618638 
C 96.587663 166.618638 96.587663 166.618638 96.587663 166.618638 
C 96.587663 166.618638 96.587663 166.618638 96.587663 166.618638 
C 96.587663 166.618638 96.587663 166.618638 96.587663 166.618638 
C 96.587663 166.618638 96.587663 166.618638 96.587663 166.618638 
C 96.587663 166.618638 96.587663 166.618638 96.587663 166.618638 
C 96.587663 166.618638 96.587663 166.618638 96.587663 166.618638 
C 96.587663 166.618638 96.587663 166.618638 96.587663 166.618638 
C 96.587663 166.618638 96.587663 166.618638 96.587663 166.618638 
z
" clip-path="url(#p6e3b615f6d)" style="stroke: #000000"/>
    <path d="M 98.429833 164.244016 
C 98.710251 164.244016 98.979222 164.132605 99.177507 163.934319 
C 99.375793 163.736034 99.487204 163.467063 99.487204 163.186645 
C 99.487204 162.906227 99.375793 162.637256 99.177507 162.43897 
C 98.979222 162.240685 98.710251 162.129274 98.429833 162.129274 
C 98.149415 162.129274 97.880444 162.240685 97.682158 162.43897 
C 97.483873 162.637256 97.372462 162.906227 97.372462 163.186645 
C 97.372462 163.467063 97.483873 163.736034 97.682158 163.934319 
C 97.880444 164.132605 98.149415 164.244016 98.429833 164.244016 
z
" clip-path="url(#p6e3b615f6d)" style="stroke: #000000"/>
    <path d="M 93.409817 152.173444 
C 93.691107 152.173444 93.960914 152.061686 94.159817 151.862784 
C 94.358719 151.663882 94.470477 151.394074 94.470477 151.112784 
C 94.470477 150.831494 94.358719 150.561686 94.159817 150.362784 
C 93.960914 150.163882 93.691107 150.052124 93.409817 150.052124 
C 93.128526 150.052124 92.858719 150.163882 92.659817 150.362784 
C 92.460914 150.561686 92.349157 150.831494 92.349157 151.112784 
C 92.349157 151.394074 92.460914 151.663882 92.659817 151.862784 
C 92.858719 152.061686 93.128526 152.173444 93.409817 152.173444 
z
" clip-path="url(#p6e3b615f6d)" style="stroke: #000000"/>
    <path d="M 88.462444 144.864591 
C 88.743734 144.864591 89.013541 144.752833 89.212444 144.553931 
C 89.411346 144.355028 89.523104 144.085221 89.523104 143.803931 
C 89.523104 143.52264 89.411346 143.252833 89.212444 143.053931 
C 89.013541 142.855028 88.743734 142.743271 88.462444 142.743271 
C 88.181153 142.743271 87.911346 142.855028 87.712444 143.053931 
C 87.513541 143.252833 87.401783 143.52264 87.401783 143.803931 
C 87.401783 144.085221 87.513541 144.355028 87.712444 144.553931 
C 87.911346 144.752833 88.181153 144.864591 88.462444 144.864591 
z
" clip-path="url(#p6e3b615f6d)" style="stroke: #000000"/>
    <path d="M 84.579748 131.21965 
C 84.833922 131.21965 85.077721 131.118665 85.257449 130.938937 
C 85.437178 130.759208 85.538162 130.51541 85.538162 130.261235 
C 85.538162 130.007061 85.437178 129.763262 85.257449 129.583534 
C 85.077721 129.403805 84.833922 129.302821 84.579748 129.302821 
C 84.325573 129.302821 84.081775 129.403805 83.902046 129.583534 
C 83.722318 129.763262 83.621333 130.007061 83.621333 130.261235 
C 83.621333 130.51541 83.722318 130.759208 83.902046 130.938937 
C 84.081775 131.118665 84.325573 131.21965 84.579748 131.21965 
z
" clip-path="url(#p6e3b615f6d)" style="stroke: #000000"/>
    <path d="M 82.129297 120.228026 
C 82.460668 120.228026 82.778512 120.09637 83.012827 119.862056 
C 83.247141 119.627741 83.378797 119.309897 83.378797 118.978526 
C 83.378797 118.647155 83.247141 118.329311 83.012827 118.094996 
C 82.778512 117.860681 82.460668 117.729026 82.129297 117.729026 
C 81.797926 117.729026 81.480082 117.860681 81.245767 118.094996 
C 81.011452 118.329311 80.879797 118.647155 80.879797 118.978526 
C 80.879797 119.309897 81.011452 119.627741 81.245767 119.862056 
C 81.480082 120.09637 81.797926 120.228026 82.129297 120.228026 
z
" clip-path="url(#p6e3b615f6d)" style="stroke: #000000"/>
    <path d="M 78.493657 110.358073 
C 78.827652 110.358073 79.148012 110.225375 79.384183 109.989205 
C 79.620353 109.753035 79.75305 109.432675 79.75305 109.098679 
C 79.75305 108.764684 79.620353 108.444324 79.384183 108.208154 
C 79.148012 107.971984 78.827652 107.839286 78.493657 107.839286 
C 78.159662 107.839286 77.839301 107.971984 77.603131 108.208154 
C 77.366961 108.444324 77.234263 108.764684 77.234263 109.098679 
C 77.234263 109.432675 77.366961 109.753035 77.603131 109.989205 
C 77.839301 110.225375 78.159662 110.358073 78.493657 110.358073 
z
" clip-path="url(#p6e3b615f6d)" style="stroke: #000000"/>
    <path d="M 71.431949 99.090031 
C 71.667752 99.090031 71.893929 98.996346 72.060666 98.829608 
C 72.227404 98.662871 72.321089 98.436694 72.321089 98.200891 
C 72.321089 97.965089 72.227404 97.738912 72.060666 97.572175 
C 71.893929 97.405437 71.667752 97.311752 71.431949 97.311752 
C 71.196147 97.311752 70.96997 97.405437 70.803233 97.572175 
C 70.636495 97.738912 70.54281 97.965089 70.54281 98.200891 
C 70.54281 98.436694 70.636495 98.662871 70.803233 98.829608 
C 70.96997 98.996346 71.196147 99.090031 71.431949 99.090031 
z
" clip-path="url(#p6e3b615f6d)" style="stroke: #000000"/>
    <path d="M 70.597102 89.713224 
C 70.878393 89.713224 71.1482 89.601466 71.347102 89.402564 
C 71.546005 89.203661 71.657763 88.933854 71.657763 88.652564 
C 71.657763 88.371273 71.546005 88.101466 71.347102 87.902564 
C 71.1482 87.703661 70.878393 87.591903 70.597102 87.591903 
C 70.315812 87.591903 70.046005 87.703661 69.847102 87.902564 
C 69.6482 88.101466 69.536442 88.371273 69.536442 88.652564 
C 69.536442 88.933854 69.6482 89.203661 69.847102 89.402564 
C 70.046005 89.601466 70.315812 89.713224 70.597102 89.713224 
z
" clip-path="url(#p6e3b615f6d)" style="stroke: #000000"/>
    <path d="M 69.668171 78.618977 
C 69.949461 78.618977 70.219269 78.507219 70.418171 78.308317 
C 70.617073 78.109414 70.728831 77.839607 70.728831 77.558317 
C 70.728831 77.277026 70.617073 77.007219 70.418171 76.808317 
C 70.219269 76.609414 69.949461 76.497656 69.668171 76.497656 
C 69.386881 76.497656 69.117073 76.609414 68.918171 76.808317 
C 68.719269 77.007219 68.607511 77.277026 68.607511 77.558317 
C 68.607511 77.839607 68.719269 78.109414 68.918171 78.308317 
C 69.117073 78.507219 69.386881 78.618977 69.668171 78.618977 
z
" clip-path="url(#p6e3b615f6d)" style="stroke: #000000"/>
    <path d="M 61.538554 68.109561 
C 61.774357 68.109561 62.000533 68.015876 62.167271 67.849138 
C 62.334009 67.6824 62.427694 67.456224 62.427694 67.220421 
C 62.427694 66.984619 62.334009 66.758442 62.167271 66.591704 
C 62.000533 66.424967 61.774357 66.331282 61.538554 66.331282 
C 61.302752 66.331282 61.076575 66.424967 60.909837 66.591704 
C 60.7431 66.758442 60.649414 66.984619 60.649414 67.220421 
C 60.649414 67.456224 60.7431 67.6824 60.909837 67.849138 
C 61.076575 68.015876 61.302752 68.109561 61.538554 68.109561 
z
" clip-path="url(#p6e3b615f6d)" style="stroke: #000000"/>
    <path d="M 59.576764 59.511685 
C 59.858054 59.511685 60.127861 59.399927 60.326764 59.201025 
C 60.525666 59.002122 60.637424 58.732315 60.637424 58.451025 
C 60.637424 58.169734 60.525666 57.899927 60.326764 57.701025 
C 60.127861 57.502122 59.858054 57.390364 59.576764 57.390364 
C 59.295473 57.390364 59.025666 57.502122 58.826764 57.701025 
C 58.627861 57.899927 58.516103 58.169734 58.516103 58.451025 
C 58.516103 58.732315 58.627861 59.002122 58.826764 59.201025 
C 59.025666 59.399927 59.295473 59.511685 59.576764 59.511685 
z
" clip-path="url(#p6e3b615f6d)" style="stroke: #000000"/>
    <path d="M 60.416086 46.657218 
C 60.640816 46.657218 60.856373 46.567932 61.015281 46.409023 
C 61.17419 46.250115 61.263476 46.034558 61.263476 45.809828 
C 61.263476 45.585097 61.17419 45.369541 61.015281 45.210632 
C 60.856373 45.051724 60.640816 44.962438 60.416086 44.962438 
C 60.191355 44.962438 59.975799 45.051724 59.81689 45.210632 
C 59.657982 45.369541 59.568695 45.585097 59.568695 45.809828 
C 59.568695 46.034558 59.657982 46.250115 59.81689 46.409023 
C 59.975799 46.567932 60.191355 46.657218 60.416086 46.657218 
z
" clip-path="url(#p6e3b615f6d)" style="stroke: #000000"/>
    <path d="M 55.716552 39.244818 
C 55.997842 39.244818 56.267649 39.13306 56.466552 38.934158 
C 56.665454 38.735256 56.777212 38.465449 56.777212 38.184158 
C 56.777212 37.902868 56.665454 37.63306 56.466552 37.434158 
C 56.267649 37.235256 55.997842 37.123498 55.716552 37.123498 
C 55.435261 37.123498 55.165454 37.235256 54.966552 37.434158 
C 54.767649 37.63306 54.655892 37.902868 54.655892 38.184158 
C 54.655892 38.465449 54.767649 38.735256 54.966552 38.934158 
C 55.165454 39.13306 55.435261 39.244818 55.716552 39.244818 
z
" clip-path="url(#p6e3b615f6d)" style="stroke: #000000"/>
    <path d="M 85.095722 175.172105 
C 85.37614 175.172105 85.645111 175.060693 85.843397 174.862408 
C 86.041682 174.664122 86.153094 174.395151 86.153094 174.114733 
C 86.153094 173.834315 86.041682 173.565345 85.843397 173.367059 
C 85.645111 173.168773 85.37614 173.057362 85.095722 173.057362 
C 84.815304 173.057362 84.546334 173.168773 84.348048 173.367059 
C 84.149762 173.565345 84.038351 173.834315 84.038351 174.114733 
C 84.038351 174.395151 84.149762 174.664122 84.348048 174.862408 
C 84.546334 175.060693 84.815304 175.172105 85.095722 175.172105 
z
" clip-path="url(#p6e3b615f6d)" style="stroke: #000000"/>
    <path d="M 86.675475 165.80909 
C 86.956765 165.80909 87.226573 165.697332 87.425475 165.49843 
C 87.624377 165.299527 87.736135 165.02972 87.736135 164.74843 
C 87.736135 164.467139 87.624377 164.197332 87.425475 163.99843 
C 87.226573 163.799527 86.956765 163.687769 86.675475 163.687769 
C 86.394185 163.687769 86.124377 163.799527 85.925475 163.99843 
C 85.726573 164.197332 85.614815 164.467139 85.614815 164.74843 
C 85.614815 165.02972 85.726573 165.299527 85.925475 165.49843 
C 86.124377 165.697332 86.394185 165.80909 86.675475 165.80909 
z
" clip-path="url(#p6e3b615f6d)" style="stroke: #000000"/>
    <path d="M 79.2271 155.565082 
C 79.508391 155.565082 79.778198 155.453324 79.9771 155.254422 
C 80.176003 155.055519 80.28776 154.785712 80.28776 154.504422 
C 80.28776 154.223131 80.176003 153.953324 79.9771 153.754422 
C 79.778198 153.555519 79.508391 153.443762 79.2271 153.443762 
C 78.94581 153.443762 78.676003 153.555519 78.4771 153.754422 
C 78.278198 153.953324 78.16644 154.223131 78.16644 154.504422 
C 78.16644 154.785712 78.278198 155.055519 78.4771 155.254422 
C 78.676003 155.453324 78.94581 155.565082 79.2271 155.565082 
z
" clip-path="url(#p6e3b615f6d)" style="stroke: #000000"/>
    <path d="M 79.466737 144.147775 
C 79.748027 144.147775 80.017835 144.036017 80.216737 143.837115 
C 80.415639 143.638213 80.527397 143.368405 80.527397 143.087115 
C 80.527397 142.805825 80.415639 142.536017 80.216737 142.337115 
C 80.017835 142.138213 79.748027 142.026455 79.466737 142.026455 
C 79.185447 142.026455 78.915639 142.138213 78.716737 142.337115 
C 78.517835 142.536017 78.406077 142.805825 78.406077 143.087115 
C 78.406077 143.368405 78.517835 143.638213 78.716737 143.837115 
C 78.915639 144.036017 79.185447 144.147775 79.466737 144.147775 
z
" clip-path="url(#p6e3b615f6d)" style="stroke: #000000"/>
    <path d="M 72.884472 134.054636 
C 73.165762 134.054636 73.43557 133.942878 73.634472 133.743976 
C 73.833374 133.545074 73.945132 133.275266 73.945132 132.993976 
C 73.945132 132.712686 73.833374 132.442878 73.634472 132.243976 
C 73.43557 132.045074 73.165762 131.933316 72.884472 131.933316 
C 72.603182 131.933316 72.333374 132.045074 72.134472 132.243976 
C 71.93557 132.442878 71.823812 132.712686 71.823812 132.993976 
C 71.823812 133.275266 71.93557 133.545074 72.134472 133.743976 
C 72.333374 133.942878 72.603182 134.054636 72.884472 134.054636 
z
" clip-path="url(#p6e3b615f6d)" style="stroke: #000000"/>
    <path d="M 70.875246 126.396754 
C 71.156537 126.396754 71.426344 126.284996 71.625246 126.086094 
C 71.824149 125.887192 71.935906 125.617384 71.935906 125.336094 
C 71.935906 125.054804 71.824149 124.784996 71.625246 124.586094 
C 71.426344 124.387192 71.156537 124.275434 70.875246 124.275434 
C 70.593956 124.275434 70.324149 124.387192 70.125246 124.586094 
C 69.926344 124.784996 69.814586 125.054804 69.814586 125.336094 
C 69.814586 125.617384 69.926344 125.887192 70.125246 126.086094 
C 70.324149 126.284996 70.593956 126.396754 70.875246 126.396754 
z
" clip-path="url(#p6e3b615f6d)" style="stroke: #000000"/>
    <path d="M 64.038919 109.246501 
C 64.372914 109.246501 64.693274 109.113803 64.929444 108.877633 
C 65.165615 108.641463 65.298312 108.321103 65.298312 107.987107 
C 65.298312 107.653112 65.165615 107.332752 64.929444 107.096582 
C 64.693274 106.860412 64.372914 106.727714 64.038919 106.727714 
C 63.704923 106.727714 63.384563 106.860412 63.148393 107.096582 
C 62.912223 107.332752 62.779525 107.653112 62.779525 107.987107 
C 62.779525 108.321103 62.912223 108.641463 63.148393 108.877633 
C 63.384563 109.113803 63.704923 109.246501 64.038919 109.246501 
z
" clip-path="url(#p6e3b615f6d)" style="stroke: #000000"/>
    <path d="M 68.64932 104.622479 
C 68.885123 104.622479 69.111299 104.528793 69.278037 104.362056 
C 69.444774 104.195318 69.53846 103.969141 69.53846 103.733339 
C 69.53846 103.497536 69.444774 103.27136 69.278037 103.104622 
C 69.111299 102.937885 68.885123 102.844199 68.64932 102.844199 
C 68.413517 102.844199 68.187341 102.937885 68.020603 103.104622 
C 67.853866 103.27136 67.76018 103.497536 67.76018 103.733339 
C 67.76018 103.969141 67.853866 104.195318 68.020603 104.362056 
C 68.187341 104.528793 68.413517 104.622479 68.64932 104.622479 
z
" clip-path="url(#p6e3b615f6d)" style="stroke: #000000"/>
    <path d="M 59.846185 94.005456 
C 60.18018 94.005456 60.50054 93.872758 60.736711 93.636588 
C 60.972881 93.400418 61.105578 93.080057 61.105578 92.746062 
C 61.105578 92.412067 60.972881 92.091707 60.736711 91.855537 
C 60.50054 91.619366 60.18018 91.486669 59.846185 91.486669 
C 59.51219 91.486669 59.191829 91.619366 58.955659 91.855537 
C 58.719489 92.091707 58.586791 92.412067 58.586791 92.746062 
C 58.586791 93.080057 58.719489 93.400418 58.955659 93.636588 
C 59.191829 93.872758 59.51219 94.005456 59.846185 94.005456 
z
" clip-path="url(#p6e3b615f6d)" style="stroke: #000000"/>
    <path d="M 55.450171 84.660891 
C 55.731462 84.660891 56.001269 84.549133 56.200171 84.35023 
C 56.399074 84.151328 56.510832 83.881521 56.510832 83.60023 
C 56.510832 83.31894 56.399074 83.049133 56.200171 82.85023 
C 56.001269 82.651328 55.731462 82.53957 55.450171 82.53957 
C 55.168881 82.53957 54.899074 82.651328 54.700171 82.85023 
C 54.501269 83.049133 54.389511 83.31894 54.389511 83.60023 
C 54.389511 83.881521 54.501269 84.151328 54.700171 84.35023 
C 54.899074 84.549133 55.168881 84.660891 55.450171 84.660891 
z
" clip-path="url(#p6e3b615f6d)" style="stroke: #000000"/>
    <path d="M 51.737809 77.275313 
C 52.019099 77.275313 52.288907 77.163555 52.487809 76.964652 
C 52.686711 76.76575 52.798469 76.495943 52.798469 76.214652 
C 52.798469 75.933362 52.686711 75.663555 52.487809 75.464652 
C 52.288907 75.26575 52.019099 75.153992 51.737809 75.153992 
C 51.456519 75.153992 51.186711 75.26575 50.987809 75.464652 
C 50.788907 75.663555 50.677149 75.933362 50.677149 76.214652 
C 50.677149 76.495943 50.788907 76.76575 50.987809 76.964652 
C 51.186711 77.163555 51.456519 77.275313 51.737809 77.275313 
z
" clip-path="url(#p6e3b615f6d)" style="stroke: #000000"/>
    <path d="M 46.090355 61.932746 
C 46.371645 61.932746 46.641452 61.820989 46.840355 61.622086 
C 47.039257 61.423184 47.151015 61.153377 47.151015 60.872086 
C 47.151015 60.590796 47.039257 60.320989 46.840355 60.122086 
C 46.641452 59.923184 46.371645 59.811426 46.090355 59.811426 
C 45.809064 59.811426 45.539257 59.923184 45.340355 60.122086 
C 45.141452 60.320989 45.029694 60.590796 45.029694 60.872086 
C 45.029694 61.153377 45.141452 61.423184 45.340355 61.622086 
C 45.539257 61.820989 45.809064 61.932746 46.090355 61.932746 
z
" clip-path="url(#p6e3b615f6d)" style="stroke: #000000"/>
    <path d="M 43.34195 53.603364 
C 43.62324 53.603364 43.893048 53.491607 44.09195 53.292704 
C 44.290852 53.093802 44.40261 52.823995 44.40261 52.542704 
C 44.40261 52.261414 44.290852 51.991607 44.09195 51.792704 
C 43.893048 51.593802 43.62324 51.482044 43.34195 51.482044 
C 43.06066 51.482044 42.790852 51.593802 42.59195 51.792704 
C 42.393048 51.991607 42.28129 52.261414 42.28129 52.542704 
C 42.28129 52.823995 42.393048 53.093802 42.59195 53.292704 
C 42.790852 53.491607 43.06066 53.603364 43.34195 53.603364 
z
" clip-path="url(#p6e3b615f6d)" style="stroke: #000000"/>
    <path d="M 44.548755 40.529449 
C 44.548755 40.529449 44.548755 40.529449 44.548755 40.529449 
C 44.548755 40.529449 44.548755 40.529449 44.548755 40.529449 
C 44.548755 40.529449 44.548755 40.529449 44.548755 40.529449 
C 44.548755 40.529449 44.548755 40.529449 44.548755 40.529449 
C 44.548755 40.529449 44.548755 40.529449 44.548755 40.529449 
C 44.548755 40.529449 44.548755 40.529449 44.548755 40.529449 
C 44.548755 40.529449 44.548755 40.529449 44.548755 40.529449 
C 44.548755 40.529449 44.548755 40.529449 44.548755 40.529449 
z
" clip-path="url(#p6e3b615f6d)" style="stroke: #000000"/>
    <path d="M 72.864397 171.419968 
C 73.144815 171.419968 73.413786 171.308557 73.612071 171.110271 
C 73.810357 170.911986 73.921768 170.643015 73.921768 170.362597 
C 73.921768 170.082179 73.810357 169.813208 73.612071 169.614923 
C 73.413786 169.416637 73.144815 169.305226 72.864397 169.305226 
C 72.583979 169.305226 72.315008 169.416637 72.116722 169.614923 
C 71.918437 169.813208 71.807025 170.082179 71.807025 170.362597 
C 71.807025 170.643015 71.918437 170.911986 72.116722 171.110271 
C 72.315008 171.308557 72.583979 171.419968 72.864397 171.419968 
z
" clip-path="url(#p6e3b615f6d)" style="stroke: #000000"/>
    <path d="M 74.722883 159.522667 
C 75.004173 159.522667 75.27398 159.410909 75.472883 159.212007 
C 75.671785 159.013105 75.783543 158.743298 75.783543 158.462007 
C 75.783543 158.180717 75.671785 157.910909 75.472883 157.712007 
C 75.27398 157.513105 75.004173 157.401347 74.722883 157.401347 
C 74.441592 157.401347 74.171785 157.513105 73.972883 157.712007 
C 73.77398 157.910909 73.662222 158.180717 73.662222 158.462007 
C 73.662222 158.743298 73.77398 159.013105 73.972883 159.212007 
C 74.171785 159.410909 74.441592 159.522667 74.722883 159.522667 
z
" clip-path="url(#p6e3b615f6d)" style="stroke: #000000"/>
    <path d="M 65.503233 150.421251 
C 65.784523 150.421251 66.054331 150.309493 66.253233 150.110591 
C 66.452135 149.911689 66.563893 149.641881 66.563893 149.360591 
C 66.563893 149.079301 66.452135 148.809493 66.253233 148.610591 
C 66.054331 148.411689 65.784523 148.299931 65.503233 148.299931 
C 65.221943 148.299931 64.952135 148.411689 64.753233 148.610591 
C 64.554331 148.809493 64.442573 149.079301 64.442573 149.360591 
C 64.442573 149.641881 64.554331 149.911689 64.753233 150.110591 
C 64.952135 150.309493 65.221943 150.421251 65.503233 150.421251 
z
" clip-path="url(#p6e3b615f6d)" style="stroke: #000000"/>
    <path d="M 64.449426 139.80866 
C 64.667013 139.80866 64.875718 139.722211 65.029575 139.568354 
C 65.183433 139.414497 65.269881 139.205792 65.269881 138.988205 
C 65.269881 138.770618 65.183433 138.561914 65.029575 138.408056 
C 64.875718 138.254199 64.667013 138.167751 64.449426 138.167751 
C 64.231839 138.167751 64.023135 138.254199 63.869277 138.408056 
C 63.71542 138.561914 63.628972 138.770618 63.628972 138.988205 
C 63.628972 139.205792 63.71542 139.414497 63.869277 139.568354 
C 64.023135 139.722211 64.231839 139.80866 64.449426 139.80866 
z
" clip-path="url(#p6e3b615f6d)" style="stroke: #000000"/>
    <path d="M 60.458802 124.181002 
C 60.792797 124.181002 61.113157 124.048305 61.349327 123.812134 
C 61.585498 123.575964 61.718195 123.255604 61.718195 122.921609 
C 61.718195 122.587614 61.585498 122.267253 61.349327 122.031083 
C 61.113157 121.794913 60.792797 121.662215 60.458802 121.662215 
C 60.124807 121.662215 59.804446 121.794913 59.568276 122.031083 
C 59.332106 122.267253 59.199408 122.587614 59.199408 122.921609 
C 59.199408 123.255604 59.332106 123.575964 59.568276 123.812134 
C 59.804446 124.048305 60.124807 124.181002 60.458802 124.181002 
z
" clip-path="url(#p6e3b615f6d)" style="stroke: #000000"/>
    <path d="M 56.065537 116.638831 
C 56.351898 116.638831 56.626569 116.525059 56.829056 116.322572 
C 57.031544 116.120084 57.145316 115.845413 57.145316 115.559053 
C 57.145316 115.272692 57.031544 114.998021 56.829056 114.795534 
C 56.626569 114.593046 56.351898 114.479274 56.065537 114.479274 
C 55.779177 114.479274 55.504506 114.593046 55.302018 114.795534 
C 55.099531 114.998021 54.985759 115.272692 54.985759 115.559053 
C 54.985759 115.845413 55.099531 116.120084 55.302018 116.322572 
C 55.504506 116.525059 55.779177 116.638831 56.065537 116.638831 
z
" clip-path="url(#p6e3b615f6d)" style="stroke: #000000"/>
    <path d="M 56.418298 109.735921 
C 56.751773 109.735921 57.071635 109.60343 57.307438 109.367627 
C 57.54324 109.131825 57.675731 108.811963 57.675731 108.478488 
C 57.675731 108.145012 57.54324 107.82515 57.307438 107.589348 
C 57.071635 107.353545 56.751773 107.221054 56.418298 107.221054 
C 56.084823 107.221054 55.764961 107.353545 55.529158 107.589348 
C 55.293356 107.82515 55.160864 108.145012 55.160864 108.478488 
C 55.160864 108.811963 55.293356 109.131825 55.529158 109.367627 
C 55.764961 109.60343 56.084823 109.735921 56.418298 109.735921 
z
" clip-path="url(#p6e3b615f6d)" style="stroke: #000000"/>
    <path d="M 50.176992 98.993755 
C 50.398237 98.993755 50.610451 98.905854 50.766895 98.74941 
C 50.923339 98.592966 51.01124 98.380752 51.01124 98.159507 
C 51.01124 97.938262 50.923339 97.726048 50.766895 97.569604 
C 50.610451 97.41316 50.398237 97.325258 50.176992 97.325258 
C 49.955747 97.325258 49.743533 97.41316 49.587089 97.569604 
C 49.430645 97.726048 49.342743 97.938262 49.342743 98.159507 
C 49.342743 98.380752 49.430645 98.592966 49.587089 98.74941 
C 49.743533 98.905854 49.955747 98.993755 50.176992 98.993755 
z
" clip-path="url(#p6e3b615f6d)" style="stroke: #000000"/>
    <path d="M 46.892533 87.26222 
C 47.10426 87.26222 47.307344 87.1781 47.457058 87.028386 
C 47.606772 86.878673 47.690892 86.675589 47.690892 86.463861 
C 47.690892 86.252134 47.606772 86.04905 47.457058 85.899336 
C 47.307344 85.749622 47.10426 85.665502 46.892533 85.665502 
C 46.680806 85.665502 46.477722 85.749622 46.328008 85.899336 
C 46.178294 86.04905 46.094174 86.252134 46.094174 86.463861 
C 46.094174 86.675589 46.178294 86.878673 46.328008 87.028386 
C 46.477722 87.1781 46.680806 87.26222 46.892533 87.26222 
z
" clip-path="url(#p6e3b615f6d)" style="stroke: #000000"/>
    <path d="M 44.441354 79.994077 
C 44.622724 79.994077 44.79669 79.922018 44.924938 79.79377 
C 45.053186 79.665522 45.125245 79.491555 45.125245 79.310185 
C 45.125245 79.128815 45.053186 78.954849 44.924938 78.826601 
C 44.79669 78.698353 44.622724 78.626294 44.441354 78.626294 
C 44.259984 78.626294 44.086018 78.698353 43.95777 78.826601 
C 43.829522 78.954849 43.757463 79.128815 43.757463 79.310185 
C 43.757463 79.491555 43.829522 79.665522 43.95777 79.79377 
C 44.086018 79.922018 44.259984 79.994077 44.441354 79.994077 
z
" clip-path="url(#p6e3b615f6d)" style="stroke: #000000"/>
    <path d="M 38.483638 64.977774 
C 38.764928 64.977774 39.034735 64.866016 39.233638 64.667114 
C 39.43254 64.468212 39.544298 64.198404 39.544298 63.917114 
C 39.544298 63.635824 39.43254 63.366016 39.233638 63.167114 
C 39.034735 62.968212 38.764928 62.856454 38.483638 62.856454 
C 38.202347 62.856454 37.93254 62.968212 37.733638 63.167114 
C 37.534735 63.366016 37.422978 63.635824 37.422978 63.917114 
C 37.422978 64.198404 37.534735 64.468212 37.733638 64.667114 
C 37.93254 64.866016 38.202347 64.977774 38.483638 64.977774 
z
" clip-path="url(#p6e3b615f6d)" style="stroke: #000000"/>
    <path d="M 37.871246 58.232617 
C 38.152536 58.232617 38.422344 58.120859 38.621246 57.921957 
C 38.820148 57.723054 38.931906 57.453247 38.931906 57.171957 
C 38.931906 56.890666 38.820148 56.620859 38.621246 56.421957 
C 38.422344 56.223054 38.152536 56.111297 37.871246 56.111297 
C 37.589955 56.111297 37.320148 56.223054 37.121246 56.421957 
C 36.922344 56.620859 36.810586 56.890666 36.810586 57.171957 
C 36.810586 57.453247 36.922344 57.723054 37.121246 57.921957 
C 37.320148 58.120859 37.589955 58.232617 37.871246 58.232617 
z
" clip-path="url(#p6e3b615f6d)" style="stroke: #000000"/>
    <path d="M 62.385443 172.980368 
C 62.611857 172.980368 62.829029 172.890412 62.989128 172.730313 
C 63.149226 172.570215 63.239182 172.353043 63.239182 172.126629 
C 63.239182 171.900215 63.149226 171.683044 62.989128 171.522945 
C 62.829029 171.362846 62.611857 171.272891 62.385443 171.272891 
C 62.159029 171.272891 61.941858 171.362846 61.781759 171.522945 
C 61.62166 171.683044 61.531705 171.900215 61.531705 172.126629 
C 61.531705 172.353043 61.62166 172.570215 61.781759 172.730313 
C 61.941858 172.890412 62.159029 172.980368 62.385443 172.980368 
z
" clip-path="url(#p6e3b615f6d)" style="stroke: #000000"/>
    <path d="M 59.853007 161.609032 
C 60.134297 161.609032 60.404104 161.497274 60.603007 161.298372 
C 60.801909 161.09947 60.913667 160.829662 60.913667 160.548372 
C 60.913667 160.267082 60.801909 159.997274 60.603007 159.798372 
C 60.404104 159.59947 60.134297 159.487712 59.853007 159.487712 
C 59.571716 159.487712 59.301909 159.59947 59.103007 159.798372 
C 58.904104 159.997274 58.792347 160.267082 58.792347 160.548372 
C 58.792347 160.829662 58.904104 161.09947 59.103007 161.298372 
C 59.301909 161.497274 59.571716 161.609032 59.853007 161.609032 
z
" clip-path="url(#p6e3b615f6d)" style="stroke: #000000"/>
    <path d="M 57.816309 149.558488 
C 57.816309 149.558488 57.816309 149.558488 57.816309 149.558488 
C 57.816309 149.558488 57.816309 149.558488 57.816309 149.558488 
C 57.816309 149.558488 57.816309 149.558488 57.816309 149.558488 
C 57.816309 149.558488 57.816309 149.558488 57.816309 149.558488 
C 57.816309 149.558488 57.816309 149.558488 57.816309 149.558488 
C 57.816309 149.558488 57.816309 149.558488 57.816309 149.558488 
C 57.816309 149.558488 57.816309 149.558488 57.816309 149.558488 
C 57.816309 149.558488 57.816309 149.558488 57.816309 149.558488 
z
" clip-path="url(#p6e3b615f6d)" style="stroke: #000000"/>
    <path d="M 55.611674 137.670693 
C 55.892965 137.670693 56.162772 137.558936 56.361674 137.360033 
C 56.560577 137.161131 56.672334 136.891324 56.672334 136.610033 
C 56.672334 136.328743 56.560577 136.058936 56.361674 135.860033 
C 56.162772 135.661131 55.892965 135.549373 55.611674 135.549373 
C 55.330384 135.549373 55.060577 135.661131 54.861674 135.860033 
C 54.662772 136.058936 54.551014 136.328743 54.551014 136.610033 
C 54.551014 136.891324 54.662772 137.161131 54.861674 137.360033 
C 55.060577 137.558936 55.330384 137.670693 55.611674 137.670693 
z
" clip-path="url(#p6e3b615f6d)" style="stroke: #000000"/>
    <path d="M 49.746359 133.773025 
C 50.027649 133.773025 50.297457 133.661267 50.496359 133.462365 
C 50.695261 133.263463 50.807019 132.993655 50.807019 132.712365 
C 50.807019 132.431075 50.695261 132.161267 50.496359 131.962365 
C 50.297457 131.763463 50.027649 131.651705 49.746359 131.651705 
C 49.465069 131.651705 49.195261 131.763463 48.996359 131.962365 
C 48.797457 132.161267 48.685699 132.431075 48.685699 132.712365 
C 48.685699 132.993655 48.797457 133.263463 48.996359 133.462365 
C 49.195261 133.661267 49.465069 133.773025 49.746359 133.773025 
z
" clip-path="url(#p6e3b615f6d)" style="stroke: #000000"/>
    <path d="M 48.723421 120.074473 
C 48.939107 120.074473 49.145989 119.98878 49.298503 119.836267 
C 49.451016 119.683753 49.536709 119.476872 49.536709 119.261185 
C 49.536709 119.045498 49.451016 118.838617 49.298503 118.686103 
C 49.145989 118.53359 48.939107 118.447897 48.723421 118.447897 
C 48.507734 118.447897 48.300853 118.53359 48.148339 118.686103 
C 47.995826 118.838617 47.910133 119.045498 47.910133 119.261185 
C 47.910133 119.476872 47.995826 119.683753 48.148339 119.836267 
C 48.300853 119.98878 48.507734 120.074473 48.723421 120.074473 
z
" clip-path="url(#p6e3b615f6d)" style="stroke: #000000"/>
    <path d="M 45.512361 107.190825 
C 45.738775 107.190825 45.955946 107.10087 46.116045 106.940771 
C 46.276144 106.780672 46.366099 106.563501 46.366099 106.337087 
C 46.366099 106.110673 46.276144 105.893502 46.116045 105.733403 
C 45.955946 105.573304 45.738775 105.483349 45.512361 105.483349 
C 45.285947 105.483349 45.068775 105.573304 44.908677 105.733403 
C 44.748578 105.893502 44.658622 106.110673 44.658622 106.337087 
C 44.658622 106.563501 44.748578 106.780672 44.908677 106.940771 
C 45.068775 107.10087 45.285947 107.190825 45.512361 107.190825 
z
" clip-path="url(#p6e3b615f6d)" style="stroke: #000000"/>
    <path d="M 42.465566 102.246298 
C 42.746856 102.246298 43.016663 102.13454 43.215566 101.935638 
C 43.414468 101.736735 43.526226 101.466928 43.526226 101.185638 
C 43.526226 100.904347 43.414468 100.63454 43.215566 100.435638 
C 43.016663 100.236735 42.746856 100.124977 42.465566 100.124977 
C 42.184275 100.124977 41.914468 100.236735 41.715566 100.435638 
C 41.516663 100.63454 41.404906 100.904347 41.404906 101.185638 
C 41.404906 101.466928 41.516663 101.736735 41.715566 101.935638 
C 41.914468 102.13454 42.184275 102.246298 42.465566 102.246298 
z
" clip-path="url(#p6e3b615f6d)" style="stroke: #000000"/>
    <path d="M 38.7902 87.956757 
C 39.07149 87.956757 39.341297 87.845 39.5402 87.646097 
C 39.739102 87.447195 39.85086 87.177388 39.85086 86.896097 
C 39.85086 86.614807 39.739102 86.345 39.5402 86.146097 
C 39.341297 85.947195 39.07149 85.835437 38.7902 85.835437 
C 38.508909 85.835437 38.239102 85.947195 38.0402 86.146097 
C 37.841297 86.345 37.729539 86.614807 37.729539 86.896097 
C 37.729539 87.177388 37.841297 87.447195 38.0402 87.646097 
C 38.239102 87.845 38.508909 87.956757 38.7902 87.956757 
z
" clip-path="url(#p6e3b615f6d)" style="stroke: #000000"/>
    <path d="M 35.053945 82.7731 
C 35.147709 82.7731 35.237644 82.735848 35.303945 82.669547 
C 35.370246 82.603246 35.407499 82.51331 35.407499 82.419547 
C 35.407499 82.325783 35.370246 82.235848 35.303945 82.169547 
C 35.237644 82.103246 35.147709 82.065993 35.053945 82.065993 
C 34.960182 82.065993 34.870246 82.103246 34.803945 82.169547 
C 34.737644 82.235848 34.700392 82.325783 34.700392 82.419547 
C 34.700392 82.51331 34.737644 82.603246 34.803945 82.669547 
C 34.870246 82.735848 34.960182 82.7731 35.053945 82.7731 
z
" clip-path="url(#p6e3b615f6d)" style="stroke: #000000"/>
    <path d="M 52.762101 172.723709 
C 52.762101 172.723709 52.762101 172.723709 52.762101 172.723709 
C 52.762101 172.723709 52.762101 172.723709 52.762101 172.723709 
C 52.762101 172.723709 52.762101 172.723709 52.762101 172.723709 
C 52.762101 172.723709 52.762101 172.723709 52.762101 172.723709 
C 52.762101 172.723709 52.762101 172.723709 52.762101 172.723709 
C 52.762101 172.723709 52.762101 172.723709 52.762101 172.723709 
C 52.762101 172.723709 52.762101 172.723709 52.762101 172.723709 
C 52.762101 172.723709 52.762101 172.723709 52.762101 172.723709 
z
" clip-path="url(#p6e3b615f6d)" style="stroke: #000000"/>
    <path d="M 50.490522 163.598027 
C 50.716936 163.598027 50.934107 163.508072 51.094206 163.347973 
C 51.254305 163.187874 51.34426 162.970703 51.34426 162.744289 
C 51.34426 162.517875 51.254305 162.300704 51.094206 162.140605 
C 50.934107 161.980506 50.716936 161.890551 50.490522 161.890551 
C 50.264108 161.890551 50.046937 161.980506 49.886838 162.140605 
C 49.726739 162.300704 49.636783 162.517875 49.636783 162.744289 
C 49.636783 162.970703 49.726739 163.187874 49.886838 163.347973 
C 50.046937 163.508072 50.264108 163.598027 50.490522 163.598027 
z
" clip-path="url(#p6e3b615f6d)" style="stroke: #000000"/>
    <path d="M 47.739025 156.069258 
C 48.020316 156.069258 48.290123 155.9575 48.489025 155.758598 
C 48.687928 155.559696 48.799686 155.289888 48.799686 155.008598 
C 48.799686 154.727308 48.687928 154.4575 48.489025 154.258598 
C 48.290123 154.059696 48.020316 153.947938 47.739025 153.947938 
C 47.457735 153.947938 47.187928 154.059696 46.989025 154.258598 
C 46.790123 154.4575 46.678365 154.727308 46.678365 155.008598 
C 46.678365 155.289888 46.790123 155.559696 46.989025 155.758598 
C 47.187928 155.9575 47.457735 156.069258 47.739025 156.069258 
z
" clip-path="url(#p6e3b615f6d)" style="stroke: #000000"/>
    <path d="M 48.273481 145.396322 
C 48.509284 145.396322 48.73546 145.302636 48.902198 145.135899 
C 49.068936 144.969161 49.162621 144.742985 49.162621 144.507182 
C 49.162621 144.271379 49.068936 144.045203 48.902198 143.878465 
C 48.73546 143.711728 48.509284 143.618042 48.273481 143.618042 
C 48.037679 143.618042 47.811502 143.711728 47.644765 143.878465 
C 47.478027 144.045203 47.384342 144.271379 47.384342 144.507182 
C 47.384342 144.742985 47.478027 144.969161 47.644765 145.135899 
C 47.811502 145.302636 48.037679 145.396322 48.273481 145.396322 
z
" clip-path="url(#p6e3b615f6d)" style="stroke: #000000"/>
    <path d="M 38.301404 133.537821 
C 38.424804 133.537821 38.543166 133.488794 38.630423 133.401537 
C 38.71768 133.31428 38.766707 133.195918 38.766707 133.072519 
C 38.766707 132.949119 38.71768 132.830757 38.630423 132.7435 
C 38.543166 132.656243 38.424804 132.607216 38.301404 132.607216 
C 38.178005 132.607216 38.059643 132.656243 37.972386 132.7435 
C 37.885129 132.830757 37.836102 132.949119 37.836102 133.072519 
C 37.836102 133.195918 37.885129 133.31428 37.972386 133.401537 
C 38.059643 133.488794 38.178005 133.537821 38.301404 133.537821 
z
" clip-path="url(#p6e3b615f6d)" style="stroke: #000000"/>
    <path d="M 34.288115 124.710684 
C 34.39962 124.710684 34.506572 124.666383 34.585417 124.587537 
C 34.664263 124.508692 34.708564 124.40174 34.708564 124.290236 
C 34.708564 124.178732 34.664263 124.071779 34.585417 123.992934 
C 34.506572 123.914089 34.39962 123.869787 34.288115 123.869787 
C 34.176611 123.869787 34.069659 123.914089 33.990814 123.992934 
C 33.911968 124.071779 33.867667 124.178732 33.867667 124.290236 
C 33.867667 124.40174 33.911968 124.508692 33.990814 124.587537 
C 34.069659 124.666383 34.176611 124.710684 34.288115 124.710684 
z
" clip-path="url(#p6e3b615f6d)" style="stroke: #000000"/>
    <path d="M 37.804249 116.42055 
C 38.041512 116.42055 38.269089 116.326284 38.436859 116.158514 
C 38.604629 115.990744 38.698894 115.763167 38.698894 115.525905 
C 38.698894 115.288642 38.604629 115.061065 38.436859 114.893295 
C 38.269089 114.725525 38.041512 114.631259 37.804249 114.631259 
C 37.566986 114.631259 37.339409 114.725525 37.171639 114.893295 
C 37.003869 115.061065 36.909603 115.288642 36.909603 115.525905 
C 36.909603 115.763167 37.003869 115.990744 37.171639 116.158514 
C 37.339409 116.326284 37.566986 116.42055 37.804249 116.42055 
z
" clip-path="url(#p6e3b615f6d)" style="stroke: #000000"/>
    <path d="M 29.825951 103.848759 
C 29.825951 103.848759 29.825951 103.848759 29.825951 103.848759 
C 29.825951 103.848759 29.825951 103.848759 29.825951 103.848759 
C 29.825951 103.848759 29.825951 103.848759 29.825951 103.848759 
C 29.825951 103.848759 29.825951 103.848759 29.825951 103.848759 
C 29.825951 103.848759 29.825951 103.848759 29.825951 103.848759 
C 29.825951 103.848759 29.825951 103.848759 29.825951 103.848759 
C 29.825951 103.848759 29.825951 103.848759 29.825951 103.848759 
C 29.825951 103.848759 29.825951 103.848759 29.825951 103.848759 
z
" clip-path="url(#p6e3b615f6d)" style="stroke: #000000"/>
    <path d="M 44.696449 178.614065 
C 44.97774 178.614065 45.247547 178.502307 45.446449 178.303405 
C 45.645352 178.104503 45.75711 177.834695 45.75711 177.553405 
C 45.75711 177.272115 45.645352 177.002307 45.446449 176.803405 
C 45.247547 176.604503 44.97774 176.492745 44.696449 176.492745 
C 44.415159 176.492745 44.145352 176.604503 43.946449 176.803405 
C 43.747547 177.002307 43.635789 177.272115 43.635789 177.553405 
C 43.635789 177.834695 43.747547 178.104503 43.946449 178.303405 
C 44.145352 178.502307 44.415159 178.614065 44.696449 178.614065 
z
" clip-path="url(#p6e3b615f6d)" style="stroke: #000000"/>
    <path d="M 41.966341 168.952261 
C 42.247631 168.952261 42.517439 168.840503 42.716341 168.641601 
C 42.915243 168.442698 43.027001 168.172891 43.027001 167.891601 
C 43.027001 167.61031 42.915243 167.340503 42.716341 167.141601 
C 42.517439 166.942698 42.247631 166.830941 41.966341 166.830941 
C 41.685051 166.830941 41.415243 166.942698 41.216341 167.141601 
C 41.017439 167.340503 40.905681 167.61031 40.905681 167.891601 
C 40.905681 168.172891 41.017439 168.442698 41.216341 168.641601 
C 41.415243 168.840503 41.685051 168.952261 41.966341 168.952261 
z
" clip-path="url(#p6e3b615f6d)" style="stroke: #000000"/>
    <path d="M 32.299268 158.092292 
C 32.523999 158.092292 32.739555 158.003005 32.898464 157.844097 
C 33.057372 157.685188 33.146659 157.469632 33.146659 157.244901 
C 33.146659 157.020171 33.057372 156.804614 32.898464 156.645706 
C 32.739555 156.486797 32.523999 156.397511 32.299268 156.397511 
C 32.074538 156.397511 31.858981 156.486797 31.700073 156.645706 
C 31.541164 156.804614 31.451878 157.020171 31.451878 157.244901 
C 31.451878 157.469632 31.541164 157.685188 31.700073 157.844097 
C 31.858981 158.003005 32.074538 158.092292 32.299268 158.092292 
z
" clip-path="url(#p6e3b615f6d)" style="stroke: #000000"/>
    <path d="M 34.973555 150.092201 
C 34.973555 150.092201 34.973555 150.092201 34.973555 150.092201 
C 34.973555 150.092201 34.973555 150.092201 34.973555 150.092201 
C 34.973555 150.092201 34.973555 150.092201 34.973555 150.092201 
C 34.973555 150.092201 34.973555 150.092201 34.973555 150.092201 
C 34.973555 150.092201 34.973555 150.092201 34.973555 150.092201 
C 34.973555 150.092201 34.973555 150.092201 34.973555 150.092201 
C 34.973555 150.092201 34.973555 150.092201 34.973555 150.092201 
C 34.973555 150.092201 34.973555 150.092201 34.973555 150.092201 
z
" clip-path="url(#p6e3b615f6d)" style="stroke: #000000"/>
   </g>
   <g id="matplotlib.axis_1">
    <g id="xtick_1">
     <g id="line2d_1">
      <defs>
       <path id="m327c2dd429" d="M 0 0 
L 0 3.5 
" style="stroke: #000000; stroke-width: 0.8"/>
      </defs>
      <g>
       <use xlink:href="#m327c2dd429" x="18" y="189" style="stroke: #000000; stroke-width: 0.8"/>
      </g>
     </g>
     <g id="text_1">
      <!-- 10 -->
      <g transform="translate(7.447656 203.598437)scale(0.1 -0.1)">
       <defs>
        <path id="DejaVuSans-2212" d="M 678 2272 
L 4684 2272 
L 4684 1741 
L 678 1741 
L 678 2272 
z
" transform="scale(0.015625)"/>
        <path id="DejaVuSans-31" d="M 794 531 
L 1825 531 
L 1825 4091 
L 703 3866 
L 703 4441 
L 1819 4666 
L 2450 4666 
L 2450 531 
L 3481 531 
L 3481 0 
L 794 0 
L 794 531 
z
" transform="scale(0.015625)"/>
        <path id="DejaVuSans-30" d="M 2034 4250 
Q 1547 4250 1301 3770 
Q 1056 3291 1056 2328 
Q 1056 1369 1301 889 
Q 1547 409 2034 409 
Q 2525 409 2770 889 
Q 3016 1369 3016 2328 
Q 3016 3291 2770 3770 
Q 2525 4250 2034 4250 
z
M 2034 4750 
Q 2819 4750 3233 4129 
Q 3647 3509 3647 2328 
Q 3647 1150 3233 529 
Q 2819 -91 2034 -91 
Q 1250 -91 836 529 
Q 422 1150 422 2328 
Q 422 3509 836 4129 
Q 1250 4750 2034 4750 
z
" transform="scale(0.015625)"/>
       </defs>
       <use xlink:href="#DejaVuSans-2212"/>
       <use xlink:href="#DejaVuSans-31" x="83.789062"/>
       <use xlink:href="#DejaVuSans-30" x="147.412109"/>
      </g>
     </g>
    </g>
    <g id="xtick_2">
     <g id="line2d_2">
      <g>
       <use xlink:href="#m327c2dd429" x="73.8" y="189" style="stroke: #000000; stroke-width: 0.8"/>
      </g>
     </g>
     <g id="text_2">
      <!-- 0 -->
      <g transform="translate(70.61875 203.598437)scale(0.1 -0.1)">
       <use xlink:href="#DejaVuSans-30"/>
      </g>
     </g>
    </g>
    <g id="xtick_3">
     <g id="line2d_3">
      <g>
       <use xlink:href="#m327c2dd429" x="129.6" y="189" style="stroke: #000000; stroke-width: 0.8"/>
      </g>
     </g>
     <g id="text_3">
      <!-- 10 -->
      <g transform="translate(123.2375 203.598437)scale(0.1 -0.1)">
       <use xlink:href="#DejaVuSans-31"/>
       <use xlink:href="#DejaVuSans-30" x="63.623047"/>
      </g>
     </g>
    </g>
   </g>
   <g id="matplotlib.axis_2">
    <g id="ytick_1">
     <g id="line2d_4">
      <defs>
       <path id="m0866e72edd" d="M 0 0 
L -3.5 0 
" style="stroke: #000000; stroke-width: 0.8"/>
      </defs>
      <g>
       <use xlink:href="#m0866e72edd" x="18" y="189" style="stroke: #000000; stroke-width: 0.8"/>
      </g>
     </g>
     <g id="text_4">
      <!-- 15 -->
      <g transform="translate(-10.104688 192.799219)scale(0.1 -0.1)">
       <defs>
        <path id="DejaVuSans-35" d="M 691 4666 
L 3169 4666 
L 3169 4134 
L 1269 4134 
L 1269 2991 
Q 1406 3038 1543 3061 
Q 1681 3084 1819 3084 
Q 2600 3084 3056 2656 
Q 3513 2228 3513 1497 
Q 3513 744 3044 326 
Q 2575 -91 1722 -91 
Q 1428 -91 1123 -41 
Q 819 9 494 109 
L 494 744 
Q 775 591 1075 516 
Q 1375 441 1709 441 
Q 2250 441 2565 725 
Q 2881 1009 2881 1497 
Q 2881 1984 2565 2268 
Q 2250 2553 1709 2553 
Q 1456 2553 1204 2497 
Q 953 2441 691 2322 
L 691 4666 
z
" transform="scale(0.015625)"/>
       </defs>
       <use xlink:href="#DejaVuSans-2212"/>
       <use xlink:href="#DejaVuSans-31" x="83.789062"/>
       <use xlink:href="#DejaVuSans-35" x="147.412109"/>
      </g>
     </g>
    </g>
    <g id="ytick_2">
     <g id="line2d_5">
      <g>
       <use xlink:href="#m0866e72edd" x="18" y="161.82" style="stroke: #000000; stroke-width: 0.8"/>
      </g>
     </g>
     <g id="text_5">
      <!-- 10 -->
      <g transform="translate(-10.104688 165.619219)scale(0.1 -0.1)">
       <use xlink:href="#DejaVuSans-2212"/>
       <use xlink:href="#DejaVuSans-31" x="83.789062"/>
       <use xlink:href="#DejaVuSans-30" x="147.412109"/>
      </g>
     </g>
    </g>
    <g id="ytick_3">
     <g id="line2d_6">
      <g>
       <use xlink:href="#m0866e72edd" x="18" y="134.64" style="stroke: #000000; stroke-width: 0.8"/>
      </g>
     </g>
     <g id="text_6">
      <!-- 5 -->
      <g transform="translate(-3.742188 138.439219)scale(0.1 -0.1)">
       <use xlink:href="#DejaVuSans-2212"/>
       <use xlink:href="#DejaVuSans-35" x="83.789062"/>
      </g>
     </g>
    </g>
    <g id="ytick_4">
     <g id="line2d_7">
      <g>
       <use xlink:href="#m0866e72edd" x="18" y="107.46" style="stroke: #000000; stroke-width: 0.8"/>
      </g>
     </g>
     <g id="text_7">
      <!-- 0 -->
      <g transform="translate(4.6375 111.259219)scale(0.1 -0.1)">
       <use xlink:href="#DejaVuSans-30"/>
      </g>
     </g>
    </g>
    <g id="ytick_5">
     <g id="line2d_8">
      <g>
       <use xlink:href="#m0866e72edd" x="18" y="80.28" style="stroke: #000000; stroke-width: 0.8"/>
      </g>
     </g>
     <g id="text_8">
      <!-- 5 -->
      <g transform="translate(4.6375 84.079219)scale(0.1 -0.1)">
       <use xlink:href="#DejaVuSans-35"/>
      </g>
     </g>
    </g>
    <g id="ytick_6">
     <g id="line2d_9">
      <g>
       <use xlink:href="#m0866e72edd" x="18" y="53.1" style="stroke: #000000; stroke-width: 0.8"/>
      </g>
     </g>
     <g id="text_9">
      <!-- 10 -->
      <g transform="translate(-1.725 56.899219)scale(0.1 -0.1)">
       <use xlink:href="#DejaVuSans-31"/>
       <use xlink:href="#DejaVuSans-30" x="63.623047"/>
      </g>
     </g>
    </g>
    <g id="ytick_7">
     <g id="line2d_10">
      <g>
       <use xlink:href="#m0866e72edd" x="18" y="25.92" style="stroke: #000000; stroke-width: 0.8"/>
      </g>
     </g>
     <g id="text_10">
      <!-- 15 -->
      <g transform="translate(-1.725 29.719219)scale(0.1 -0.1)">
       <use xlink:href="#DejaVuSans-31"/>
       <use xlink:href="#DejaVuSans-35" x="63.623047"/>
      </g>
     </g>
    </g>
   </g>
   <g id="patch_3">
    <path d="M 18 189 
L 18 25.92 
" style="fill: none; stroke: #000000; stroke-width: 0.8; stroke-linejoin: miter; stroke-linecap: square"/>
   </g>
   <g id="patch_4">
    <path d="M 129.6 189 
L 129.6 25.92 
" style="fill: none; stroke: #000000; stroke-width: 0.8; stroke-linejoin: miter; stroke-linecap: square"/>
   </g>
   <g id="patch_5">
    <path d="M 18 189 
L 129.6 189 
" style="fill: none; stroke: #000000; stroke-width: 0.8; stroke-linejoin: miter; stroke-linecap: square"/>
   </g>
   <g id="patch_6">
    <path d="M 18 25.92 
L 129.6 25.92 
" style="fill: none; stroke: #000000; stroke-width: 0.8; stroke-linejoin: miter; stroke-linecap: square"/>
   </g>
  </g>
 </g>
 <defs>
  <clipPath id="p6e3b615f6d">
   <rect x="18" y="25.92" width="111.6" height="163.08"/>
  </clipPath>
 </defs>
</svg>
