<?xml version="1.0" encoding="utf-8" standalone="no"?>
<!DOCTYPE svg PUBLIC "-//W3C//DTD SVG 1.1//EN"
  "http://www.w3.org/Graphics/SVG/1.1/DTD/svg11.dtd">
<svg xmlns:xlink="http://www.w3.org/1999/xlink" width="144pt" height="216pt" viewBox="0 0 144 216" xmlns="http://www.w3.org/2000/svg" version="1.1">
 <metadata>
  <rdf:RDF xmlns:dc="http://purl.org/dc/elements/1.1/" xmlns:cc="http://creativecommons.org/ns#" xmlns:rdf="http://www.w3.org/1999/02/22-rdf-syntax-ns#">
   <cc:Work>
    <dc:type rdf:resource="http://purl.org/dc/dcmitype/StillImage"/>
    <dc:date>2022-06-28T09:18:32.160431</dc:date>
    <dc:format>image/svg+xml</dc:format>
    <dc:creator>
     <cc:Agent>
      <dc:title>Matplotlib v3.5.1, https://matplotlib.org/</dc:title>
     </cc:Agent>
    </dc:creator>
   </cc:Work>
  </rdf:RDF>
 </metadata>
 <defs>
  <style type="text/css">*{stroke-linejoin: round; stroke-linecap: butt}</style>
 </defs>
 <g id="figure_1">
  <g id="patch_1">
   <path d="M 0 216 
L 144 216 
L 144 0 
L 0 0 
L 0 216 
z
" style="fill: none"/>
  </g>
  <g id="axes_1">
   <g id="patch_2">
    <path d="M 18 189 
L 129.6 189 
L 129.6 25.92 
L 18 25.92 
z
" style="fill: #ffffff"/>
   </g>
   <g id="PathCollection_1">
    <defs>
     <path id="m5a01a0b5c6" d="M 0 2.738613 
C 0.726289 2.738613 1.422928 2.450055 1.936492 1.936492 
C 2.450055 1.422928 2.738613 0.726289 2.738613 0 
C 2.738613 -0.726289 2.450055 -1.422928 1.936492 -1.936492 
C 1.422928 -2.450055 0.726289 -2.738613 0 -2.738613 
C -0.726289 -2.738613 -1.422928 -2.450055 -1.936492 -1.936492 
C -2.450055 -1.422928 -2.738613 -0.726289 -2.738613 0 
C -2.738613 0.726289 -2.450055 1.422928 -1.936492 1.936492 
C -1.422928 2.450055 -0.726289 2.738613 0 2.738613 
z
" style="stroke: #ff0000; stroke-width: 1.75"/>
    </defs>
    <g clip-path="url(#pcbd008bfca)">
     <use xlink:href="#m5a01a0b5c6" x="66.825" y="83.92143" style="fill: #ff0000; stroke: #ff0000; stroke-width: 1.75"/>
     <use xlink:href="#m5a01a0b5c6" x="87.75" y="95.690715" style="fill: #ff0000; stroke: #ff0000; stroke-width: 1.75"/>
     <use xlink:href="#m5a01a0b5c6" x="66.825" y="107.46" style="fill: #ff0000; stroke: #ff0000; stroke-width: 1.75"/>
     <use xlink:href="#m5a01a0b5c6" x="73.8" y="119.229285" style="fill: #ff0000; stroke: #ff0000; stroke-width: 1.75"/>
     <use xlink:href="#m5a01a0b5c6" x="87.75" y="119.229285" style="fill: #ff0000; stroke: #ff0000; stroke-width: 1.75"/>
     <use xlink:href="#m5a01a0b5c6" x="66.825" y="130.99857" style="fill: #ff0000; stroke: #ff0000; stroke-width: 1.75"/>
     <use xlink:href="#m5a01a0b5c6" x="80.775" y="130.99857" style="fill: #ff0000; stroke: #ff0000; stroke-width: 1.75"/>
    </g>
   </g>
   <g id="PathCollection_2">
    <defs>
     <path id="C0_0_c904c075ed" d="M 0 2.738613 
C 0.726289 2.738613 1.422928 2.450055 1.936492 1.936492 
C 2.450055 1.422928 2.738613 0.726289 2.738613 -0 
C 2.738613 -0.726289 2.450055 -1.422928 1.936492 -1.936492 
C 1.422928 -2.450055 0.726289 -2.738613 0 -2.738613 
C -0.726289 -2.738613 -1.422928 -2.450055 -1.936492 -1.936492 
C -2.450055 -1.422928 -2.738613 -0.726289 -2.738613 0 
C -2.738613 0.726289 -2.450055 1.422928 -1.936492 1.936492 
C -1.422928 2.450055 -0.726289 2.738613 0 2.738613 
z
"/>
    </defs>
    <g clip-path="url(#pcbd008bfca)">
     <use xlink:href="#C0_0_c904c075ed" x="80.775" y="83.92143" style="fill: none; stroke: #ff0000; stroke-width: 1.75"/>
    </g>
    <g clip-path="url(#pcbd008bfca)">
     <use xlink:href="#C0_0_c904c075ed" x="59.85" y="95.690715" style="fill: none; stroke: #ff0000; stroke-width: 1.75"/>
    </g>
    <g clip-path="url(#pcbd008bfca)">
     <use xlink:href="#C0_0_c904c075ed" x="73.8" y="95.690715" style="fill: none; stroke: #ff0000; stroke-width: 1.75"/>
    </g>
    <g clip-path="url(#pcbd008bfca)">
     <use xlink:href="#C0_0_c904c075ed" x="52.875" y="107.46" style="fill: none; stroke: #ff0000; stroke-width: 1.75"/>
    </g>
    <g clip-path="url(#pcbd008bfca)">
     <use xlink:href="#C0_0_c904c075ed" x="80.775" y="107.46" style="fill: none; stroke: #ff0000; stroke-width: 1.75"/>
    </g>
    <g clip-path="url(#pcbd008bfca)">
     <use xlink:href="#C0_0_c904c075ed" x="94.725" y="107.46" style="fill: none; stroke: #ff0000; stroke-width: 1.75"/>
    </g>
    <g clip-path="url(#pcbd008bfca)">
     <use xlink:href="#C0_0_c904c075ed" x="59.85" y="119.229285" style="fill: none; stroke: #ff0000; stroke-width: 1.75"/>
    </g>
   </g>
   <g id="PathCollection_3">
    <path d="M 121.947298 140.600531 
C 122.457403 140.600531 122.946684 140.397864 123.307383 140.037166 
C 123.668082 139.676467 123.870749 139.187186 123.870749 138.677081 
C 123.870749 138.166976 123.668082 137.677695 123.307383 137.316996 
C 122.946684 136.956297 122.457403 136.75363 121.947298 136.75363 
C 121.437193 136.75363 120.947912 136.956297 120.587213 137.316996 
C 120.226514 137.677695 120.023848 138.166976 120.023848 138.677081 
C 120.023848 139.187186 120.226514 139.676467 120.587213 140.037166 
C 120.947912 140.397864 121.437193 140.600531 121.947298 140.600531 
z
" clip-path="url(#pcbd008bfca)" style="stroke: #000000"/>
    <path d="M 118.723259 131.627946 
C 119.195599 131.627946 119.648657 131.440283 119.982652 131.106288 
C 120.316647 130.772293 120.50431 130.319235 120.50431 129.846895 
C 120.50431 129.374554 120.316647 128.921496 119.982652 128.587501 
C 119.648657 128.253506 119.195599 128.065843 118.723259 128.065843 
C 118.250918 128.065843 117.79786 128.253506 117.463865 128.587501 
C 117.12987 128.921496 116.942207 129.374554 116.942207 129.846895 
C 116.942207 130.319235 117.12987 130.772293 117.463865 131.106288 
C 117.79786 131.440283 118.250918 131.627946 118.723259 131.627946 
z
" clip-path="url(#pcbd008bfca)" style="stroke: #000000"/>
    <path d="M 115.84993 122.372681 
C 116.443312 122.372681 117.012471 122.136928 117.432056 121.717343 
C 117.85164 121.297758 118.087394 120.728599 118.087394 120.135217 
C 118.087394 119.541834 117.85164 118.972676 117.432056 118.553091 
C 117.012471 118.133506 116.443312 117.897753 115.84993 117.897753 
C 115.256547 117.897753 114.687388 118.133506 114.267803 118.553091 
C 113.848219 118.972676 113.612465 119.541834 113.612465 120.135217 
C 113.612465 120.728599 113.848219 121.297758 114.267803 121.717343 
C 114.687388 122.136928 115.256547 122.372681 115.84993 122.372681 
z
" clip-path="url(#pcbd008bfca)" style="stroke: #000000"/>
    <path d="M 107.952073 102.784305 
C 108.655962 102.784305 109.331115 102.504647 109.828839 102.006923 
C 110.326564 101.509199 110.606221 100.834045 110.606221 100.130157 
C 110.606221 99.426269 110.326564 98.751115 109.828839 98.253391 
C 109.331115 97.755667 108.655962 97.476009 107.952073 97.476009 
C 107.248185 97.476009 106.573032 97.755667 106.075307 98.253391 
C 105.577583 98.751115 105.297925 99.426269 105.297925 100.130157 
C 105.297925 100.834045 105.577583 101.509199 106.075307 102.006923 
C 106.573032 102.504647 107.248185 102.784305 107.952073 102.784305 
z
" clip-path="url(#pcbd008bfca)" style="stroke: #000000"/>
    <path d="M 97.25114 67.993327 
C 97.844152 67.993327 98.412956 67.75772 98.832279 67.338398 
C 99.251602 66.919075 99.487208 66.350271 99.487208 65.757259 
C 99.487208 65.164247 99.251602 64.595443 98.832279 64.17612 
C 98.412956 63.756797 97.844152 63.521191 97.25114 63.521191 
C 96.658128 63.521191 96.089324 63.756797 95.670001 64.17612 
C 95.250678 64.595443 95.015072 65.164247 95.015072 65.757259 
C 95.015072 66.350271 95.250678 66.919075 95.670001 67.338398 
C 96.089324 67.75772 96.658128 67.993327 97.25114 67.993327 
z
" clip-path="url(#pcbd008bfca)" style="stroke: #000000"/>
    <path d="M 112.495478 148.478889 
C 113.08886 148.478889 113.658019 148.243136 114.077604 147.823551 
C 114.497188 147.403966 114.732942 146.834807 114.732942 146.241425 
C 114.732942 145.648042 114.497188 145.078883 114.077604 144.659299 
C 113.658019 144.239714 113.08886 144.003961 112.495478 144.003961 
C 111.902095 144.003961 111.332936 144.239714 110.913351 144.659299 
C 110.493767 145.078883 110.258013 145.648042 110.258013 146.241425 
C 110.258013 146.834807 110.493767 147.403966 110.913351 147.823551 
C 111.332936 148.243136 111.902095 148.478889 112.495478 148.478889 
z
" clip-path="url(#pcbd008bfca)" style="stroke: #000000"/>
    <path d="M 109.184666 136.7758 
C 109.778048 136.7758 110.347207 136.540047 110.766792 136.120462 
C 111.186377 135.700878 111.42213 135.131719 111.42213 134.538336 
C 111.42213 133.944954 111.186377 133.375795 110.766792 132.95621 
C 110.347207 132.536625 109.778048 132.300872 109.184666 132.300872 
C 108.591283 132.300872 108.022124 132.536625 107.60254 132.95621 
C 107.182955 133.375795 106.947202 133.944954 106.947202 134.538336 
C 106.947202 135.131719 107.182955 135.700878 107.60254 136.120462 
C 108.022124 136.540047 108.591283 136.7758 109.184666 136.7758 
z
" clip-path="url(#pcbd008bfca)" style="stroke: #000000"/>
    <path d="M 102.090386 125.900681 
C 102.703481 125.900681 103.291548 125.657096 103.725071 125.223573 
C 104.158595 124.790049 104.40218 124.201983 104.40218 123.588888 
C 104.40218 122.975793 104.158595 122.387726 103.725071 121.954203 
C 103.291548 121.520679 102.703481 121.277094 102.090386 121.277094 
C 101.477291 121.277094 100.889225 121.520679 100.455701 121.954203 
C 100.022178 122.387726 99.778593 122.975793 99.778593 123.588888 
C 99.778593 124.201983 100.022178 124.790049 100.455701 125.223573 
C 100.889225 125.657096 101.477291 125.900681 102.090386 125.900681 
z
" clip-path="url(#pcbd008bfca)" style="stroke: #000000"/>
    <path d="M 103.722771 115.445701 
C 104.428206 115.445701 105.104843 115.165429 105.60366 114.666611 
C 106.102478 114.167794 106.38275 113.491157 106.38275 112.785722 
C 106.38275 112.080288 106.102478 111.403651 105.60366 110.904834 
C 105.104843 110.406016 104.428206 110.125744 103.722771 110.125744 
C 103.017337 110.125744 102.3407 110.406016 101.841882 110.904834 
C 101.343065 111.403651 101.062793 112.080288 101.062793 112.785722 
C 101.062793 113.491157 101.343065 114.167794 101.841882 114.666611 
C 102.3407 115.165429 103.017337 115.445701 103.722771 115.445701 
z
" clip-path="url(#pcbd008bfca)" style="stroke: #000000"/>
    <path d="M 99.527136 104.773412 
C 100.232351 104.773412 100.908776 104.493227 101.407438 103.994565 
C 101.9061 103.495903 102.186284 102.819478 102.186284 102.114264 
C 102.186284 101.409049 101.9061 100.732624 101.407438 100.233962 
C 100.908776 99.7353 100.232351 99.455116 99.527136 99.455116 
C 98.821922 99.455116 98.145496 99.7353 97.646835 100.233962 
C 97.148173 100.732624 96.867988 101.409049 96.867988 102.114264 
C 96.867988 102.819478 97.148173 103.495903 97.646835 103.994565 
C 98.145496 104.493227 98.821922 104.773412 99.527136 104.773412 
z
" clip-path="url(#pcbd008bfca)" style="stroke: #000000"/>
    <path d="M 96.292599 92.556529 
C 96.89643 92.556529 97.475612 92.316624 97.902585 91.889651 
C 98.329558 91.462678 98.569463 90.883496 98.569463 90.279665 
C 98.569463 89.675833 98.329558 89.096652 97.902585 88.669679 
C 97.475612 88.242706 96.89643 88.002801 96.292599 88.002801 
C 95.688767 88.002801 95.109586 88.242706 94.682613 88.669679 
C 94.25564 89.096652 94.015735 89.675833 94.015735 90.279665 
C 94.015735 90.883496 94.25564 91.462678 94.682613 91.889651 
C 95.109586 92.316624 95.688767 92.556529 96.292599 92.556529 
z
" clip-path="url(#pcbd008bfca)" style="stroke: #000000"/>
    <path d="M 94.431541 86.040399 
C 95.015839 86.040399 95.576284 85.808255 95.989444 85.395094 
C 96.402605 84.981934 96.634749 84.421489 96.634749 83.837192 
C 96.634749 83.252894 96.402605 82.692449 95.989444 82.279289 
C 95.576284 81.866128 95.015839 81.633984 94.431541 81.633984 
C 93.847244 81.633984 93.286799 81.866128 92.873639 82.279289 
C 92.460478 82.692449 92.228334 83.252894 92.228334 83.837192 
C 92.228334 84.421489 92.460478 84.981934 92.873639 85.395094 
C 93.286799 85.808255 93.847244 86.040399 94.431541 86.040399 
z
" clip-path="url(#pcbd008bfca)" style="stroke: #000000"/>
    <path d="M 89.337784 75.845814 
C 89.930796 75.845814 90.4996 75.610208 90.918923 75.190885 
C 91.338246 74.771562 91.573852 74.202758 91.573852 73.609746 
C 91.573852 73.016734 91.338246 72.44793 90.918923 72.028607 
C 90.4996 71.609284 89.930796 71.373678 89.337784 71.373678 
C 88.744772 71.373678 88.175968 71.609284 87.756645 72.028607 
C 87.337322 72.44793 87.101716 73.016734 87.101716 73.609746 
C 87.101716 74.202758 87.337322 74.771562 87.756645 75.190885 
C 88.175968 75.610208 88.744772 75.845814 89.337784 75.845814 
z
" clip-path="url(#pcbd008bfca)" style="stroke: #000000"/>
    <path d="M 82.997033 62.686983 
C 83.280893 62.686983 83.553164 62.574204 83.753883 62.373485 
C 83.954602 62.172766 84.067381 61.900495 84.067381 61.616635 
C 84.067381 61.332776 83.954602 61.060504 83.753883 60.859785 
C 83.553164 60.659066 83.280893 60.546288 82.997033 60.546288 
C 82.713174 60.546288 82.440902 60.659066 82.240183 60.859785 
C 82.039464 61.060504 81.926686 61.332776 81.926686 61.616635 
C 81.926686 61.900495 82.039464 62.172766 82.240183 62.373485 
C 82.440902 62.574204 82.713174 62.686983 82.997033 62.686983 
z
" clip-path="url(#pcbd008bfca)" style="stroke: #000000"/>
    <path d="M 110.129156 158.869808 
C 110.327441 158.869808 110.517632 158.791028 110.657841 158.650819 
C 110.79805 158.51061 110.87683 158.320419 110.87683 158.122133 
C 110.87683 157.923848 110.79805 157.733657 110.657841 157.593448 
C 110.517632 157.453239 110.327441 157.374459 110.129156 157.374459 
C 109.93087 157.374459 109.740679 157.453239 109.60047 157.593448 
C 109.460261 157.733657 109.381481 157.923848 109.381481 158.122133 
C 109.381481 158.320419 109.460261 158.51061 109.60047 158.650819 
C 109.740679 158.791028 109.93087 158.869808 110.129156 158.869808 
z
" clip-path="url(#pcbd008bfca)" style="stroke: #000000"/>
    <path d="M 93.918982 127.871694 
C 94.624197 127.871694 95.300622 127.59151 95.799284 127.092848 
C 96.297946 126.594186 96.57813 125.91776 96.57813 125.212546 
C 96.57813 124.507332 96.297946 123.830906 95.799284 123.332245 
C 95.300622 122.833583 94.624197 122.553398 93.918982 122.553398 
C 93.213768 122.553398 92.537343 122.833583 92.038681 123.332245 
C 91.540019 123.830906 91.259834 124.507332 91.259834 125.212546 
C 91.259834 125.91776 91.540019 126.594186 92.038681 127.092848 
C 92.537343 127.59151 93.213768 127.871694 93.918982 127.871694 
z
" clip-path="url(#pcbd008bfca)" style="stroke: #000000"/>
    <path d="M 92.004333 117.027849 
C 92.709767 117.027849 93.386404 116.747577 93.885222 116.248759 
C 94.384039 115.749941 94.664311 115.073305 94.664311 114.36787 
C 94.664311 113.662436 94.384039 112.985799 93.885222 112.486981 
C 93.386404 111.988164 92.709767 111.707892 92.004333 111.707892 
C 91.298898 111.707892 90.622261 111.988164 90.123444 112.486981 
C 89.624626 112.985799 89.344354 113.662436 89.344354 114.36787 
C 89.344354 115.073305 89.624626 115.749941 90.123444 116.248759 
C 90.622261 116.747577 91.298898 117.027849 92.004333 117.027849 
z
" clip-path="url(#pcbd008bfca)" style="stroke: #000000"/>
    <path d="M 89.02526 109.318761 
C 89.730694 109.318761 90.407331 109.038489 90.906149 108.539671 
C 91.404966 108.040854 91.685238 107.364217 91.685238 106.658782 
C 91.685238 105.953348 91.404966 105.276711 90.906149 104.777893 
C 90.407331 104.279076 89.730694 103.998804 89.02526 103.998804 
C 88.319825 103.998804 87.643189 104.279076 87.144371 104.777893 
C 86.645553 105.276711 86.365281 105.953348 86.365281 106.658782 
C 86.365281 107.364217 86.645553 108.040854 87.144371 108.539671 
C 87.643189 109.038489 88.319825 109.318761 89.02526 109.318761 
z
" clip-path="url(#pcbd008bfca)" style="stroke: #000000"/>
    <path d="M 84.193357 90.61989 
C 84.325958 90.61989 84.453147 90.567207 84.54691 90.473443 
C 84.640673 90.37968 84.693357 90.252491 84.693357 90.11989 
C 84.693357 89.987288 84.640673 89.8601 84.54691 89.766336 
C 84.453147 89.672573 84.325958 89.61989 84.193357 89.61989 
C 84.060755 89.61989 83.933567 89.672573 83.839803 89.766336 
C 83.74604 89.8601 83.693357 89.987288 83.693357 90.11989 
C 83.693357 90.252491 83.74604 90.37968 83.839803 90.473443 
C 83.933567 90.567207 84.060755 90.61989 84.193357 90.61989 
z
" clip-path="url(#pcbd008bfca)" style="stroke: #000000"/>
    <path d="M 84.127473 88.325036 
C 84.688309 88.325036 85.226251 88.102213 85.622822 87.705642 
C 86.019393 87.309071 86.242215 86.77113 86.242215 86.210293 
C 86.242215 85.649457 86.019393 85.111516 85.622822 84.714945 
C 85.226251 84.318374 84.688309 84.095551 84.127473 84.095551 
C 83.566637 84.095551 83.028695 84.318374 82.632124 84.714945 
C 82.235553 85.111516 82.01273 85.649457 82.01273 86.210293 
C 82.01273 86.77113 82.235553 87.309071 82.632124 87.705642 
C 83.028695 88.102213 83.566637 88.325036 84.127473 88.325036 
z
" clip-path="url(#pcbd008bfca)" style="stroke: #000000"/>
    <path d="M 80.51767 80.588604 
C 81.222884 80.588604 81.89931 80.308419 82.397972 79.809758 
C 82.896634 79.311096 83.176818 78.63467 83.176818 77.929456 
C 83.176818 77.224242 82.896634 76.547816 82.397972 76.049154 
C 81.89931 75.550493 81.222884 75.270308 80.51767 75.270308 
C 79.812456 75.270308 79.13603 75.550493 78.637369 76.049154 
C 78.138707 76.547816 77.858522 77.224242 77.858522 77.929456 
C 77.858522 78.63467 78.138707 79.311096 78.637369 79.809758 
C 79.13603 80.308419 79.812456 80.588604 80.51767 80.588604 
z
" clip-path="url(#pcbd008bfca)" style="stroke: #000000"/>
    <path d="M 86.862521 141.99696 
C 87.455904 141.99696 88.025063 141.761207 88.444647 141.341622 
C 88.864232 140.922037 89.099985 140.352878 89.099985 139.759496 
C 89.099985 139.166113 88.864232 138.596954 88.444647 138.17737 
C 88.025063 137.757785 87.455904 137.522032 86.862521 137.522032 
C 86.269139 137.522032 85.69998 137.757785 85.280395 138.17737 
C 84.86081 138.596954 84.625057 139.166113 84.625057 139.759496 
C 84.625057 140.352878 84.86081 140.922037 85.280395 141.341622 
C 85.69998 141.761207 86.269139 141.99696 86.862521 141.99696 
z
" clip-path="url(#pcbd008bfca)" style="stroke: #000000"/>
    <path d="M 82.414929 115.844558 
C 82.925616 115.844558 83.415454 115.641661 83.776564 115.280551 
C 84.137674 114.919441 84.340572 114.429602 84.340572 113.918916 
C 84.340572 113.40823 84.137674 112.918391 83.776564 112.557281 
C 83.415454 112.196171 82.925616 111.993273 82.414929 111.993273 
C 81.904243 111.993273 81.414404 112.196171 81.053294 112.557281 
C 80.692184 112.918391 80.489287 113.40823 80.489287 113.918916 
C 80.489287 114.429602 80.692184 114.919441 81.053294 115.280551 
C 81.414404 115.641661 81.904243 115.844558 82.414929 115.844558 
z
" clip-path="url(#pcbd008bfca)" style="stroke: #000000"/>
    <path d="M 84.167353 110.762381 
C 84.728189 110.762381 85.26613 110.539558 85.662701 110.142987 
C 86.059273 109.746416 86.282095 109.208474 86.282095 108.647638 
C 86.282095 108.086802 86.059273 107.54886 85.662701 107.152289 
C 85.26613 106.755718 84.728189 106.532895 84.167353 106.532895 
C 83.606516 106.532895 83.068575 106.755718 82.672004 107.152289 
C 82.275433 107.54886 82.05261 108.086802 82.05261 108.647638 
C 82.05261 109.208474 82.275433 109.746416 82.672004 110.142987 
C 83.068575 110.539558 83.606516 110.762381 84.167353 110.762381 
z
" clip-path="url(#pcbd008bfca)" style="stroke: #000000"/>
    <path d="M 75.362265 97.742973 
C 76.0677 97.742973 76.744336 97.462701 77.243154 96.963884 
C 77.741972 96.465066 78.022244 95.788429 78.022244 95.082995 
C 78.022244 94.37756 77.741972 93.700923 77.243154 93.202106 
C 76.744336 92.703288 76.0677 92.423016 75.362265 92.423016 
C 74.656831 92.423016 73.980194 92.703288 73.481376 93.202106 
C 72.982559 93.700923 72.702287 94.37756 72.702287 95.082995 
C 72.702287 95.788429 72.982559 96.465066 73.481376 96.963884 
C 73.980194 97.462701 74.656831 97.742973 75.362265 97.742973 
z
" clip-path="url(#pcbd008bfca)" style="stroke: #000000"/>
    <path d="M 69.815831 97.533952 
C 70.376667 97.533952 70.914608 97.31113 71.31118 96.914559 
C 71.707751 96.517988 71.930573 95.980046 71.930573 95.41921 
C 71.930573 94.858374 71.707751 94.320432 71.31118 93.923861 
C 70.914608 93.52729 70.376667 93.304467 69.815831 93.304467 
C 69.254995 93.304467 68.717053 93.52729 68.320482 93.923861 
C 67.923911 94.320432 67.701088 94.858374 67.701088 95.41921 
C 67.701088 95.980046 67.923911 96.517988 68.320482 96.914559 
C 68.717053 97.31113 69.254995 97.533952 69.815831 97.533952 
z
" clip-path="url(#pcbd008bfca)" style="stroke: #000000"/>
    <path d="M 66.49815 80.810948 
C 67.203364 80.810948 67.87979 80.530763 68.378451 80.032101 
C 68.877113 79.533439 69.157298 78.857014 69.157298 78.1518 
C 69.157298 77.446585 68.877113 76.77016 68.378451 76.271498 
C 67.87979 75.772836 67.203364 75.492652 66.49815 75.492652 
C 65.792936 75.492652 65.11651 75.772836 64.617848 76.271498 
C 64.119187 76.77016 63.839002 77.446585 63.839002 78.1518 
C 63.839002 78.857014 64.119187 79.533439 64.617848 80.032101 
C 65.11651 80.530763 65.792936 80.810948 66.49815 80.810948 
z
" clip-path="url(#pcbd008bfca)" style="stroke: #000000"/>
    <path d="M 62.181963 58.560792 
C 62.643682 58.560792 63.086553 58.377349 63.413038 58.050864 
C 63.739522 57.72438 63.922965 57.281509 63.922965 56.81979 
C 63.922965 56.358071 63.739522 55.9152 63.413038 55.588715 
C 63.086553 55.262231 62.643682 55.078788 62.181963 55.078788 
C 61.720244 55.078788 61.277373 55.262231 60.950889 55.588715 
C 60.624404 55.9152 60.440961 56.358071 60.440961 56.81979 
C 60.440961 57.281509 60.624404 57.72438 60.950889 58.050864 
C 61.277373 58.377349 61.720244 58.560792 62.181963 58.560792 
z
" clip-path="url(#pcbd008bfca)" style="stroke: #000000"/>
    <path d="M 89.408198 165.190221 
C 89.631206 165.190221 89.845111 165.101619 90.002801 164.943928 
C 90.160492 164.786237 90.249094 164.572333 90.249094 164.349324 
C 90.249094 164.126316 90.160492 163.912412 90.002801 163.754721 
C 89.845111 163.59703 89.631206 163.508428 89.408198 163.508428 
C 89.185189 163.508428 88.971285 163.59703 88.813594 163.754721 
C 88.655904 163.912412 88.567301 164.126316 88.567301 164.349324 
C 88.567301 164.572333 88.655904 164.786237 88.813594 164.943928 
C 88.971285 165.101619 89.185189 165.190221 89.408198 165.190221 
z
" clip-path="url(#pcbd008bfca)" style="stroke: #000000"/>
    <path d="M 72.776108 123.895782 
C 73.410232 123.895782 74.018469 123.643842 74.466862 123.195449 
C 74.915255 122.747056 75.167195 122.138819 75.167195 121.504695 
C 75.167195 120.870571 74.915255 120.262334 74.466862 119.813941 
C 74.018469 119.365548 73.410232 119.113608 72.776108 119.113608 
C 72.141984 119.113608 71.533747 119.365548 71.085354 119.813941 
C 70.636961 120.262334 70.385021 120.870571 70.385021 121.504695 
C 70.385021 122.138819 70.636961 122.747056 71.085354 123.195449 
C 71.533747 123.643842 72.141984 123.895782 72.776108 123.895782 
z
" clip-path="url(#pcbd008bfca)" style="stroke: #000000"/>
    <path d="M 66.527884 116.642897 
C 67.233098 116.642897 67.909523 116.362712 68.408185 115.86405 
C 68.906847 115.365389 69.187032 114.688963 69.187032 113.983749 
C 69.187032 113.278535 68.906847 112.602109 68.408185 112.103447 
C 67.909523 111.604785 67.233098 111.324601 66.527884 111.324601 
C 65.822669 111.324601 65.146244 111.604785 64.647582 112.103447 
C 64.14892 112.602109 63.868736 113.278535 63.868736 113.983749 
C 63.868736 114.688963 64.14892 115.365389 64.647582 115.86405 
C 65.146244 116.362712 65.822669 116.642897 66.527884 116.642897 
z
" clip-path="url(#pcbd008bfca)" style="stroke: #000000"/>
    <path d="M 62.318491 97.255532 
C 63.023925 97.255532 63.700562 96.97526 64.19938 96.476443 
C 64.698197 95.977625 64.978469 95.300988 64.978469 94.595554 
C 64.978469 93.890119 64.698197 93.213482 64.19938 92.714665 
C 63.700562 92.215847 63.023925 91.935575 62.318491 91.935575 
C 61.613056 91.935575 60.93642 92.215847 60.437602 92.714665 
C 59.938784 93.213482 59.658512 93.890119 59.658512 94.595554 
C 59.658512 95.300988 59.938784 95.977625 60.437602 96.476443 
C 60.93642 96.97526 61.613056 97.255532 62.318491 97.255532 
z
" clip-path="url(#pcbd008bfca)" style="stroke: #000000"/>
    <path d="M 66.676712 159.407107 
C 67.270094 159.407107 67.839253 159.171353 68.258838 158.751769 
C 68.678423 158.332184 68.914176 157.763025 68.914176 157.169643 
C 68.914176 156.57626 68.678423 156.007101 68.258838 155.587516 
C 67.839253 155.167932 67.270094 154.932178 66.676712 154.932178 
C 66.08333 154.932178 65.514171 155.167932 65.094586 155.587516 
C 64.675001 156.007101 64.439248 156.57626 64.439248 157.169643 
C 64.439248 157.763025 64.675001 158.332184 65.094586 158.751769 
C 65.514171 159.171353 66.08333 159.407107 66.676712 159.407107 
z
" clip-path="url(#pcbd008bfca)" style="stroke: #000000"/>
    <path d="M 63.635252 129.512535 
C 64.340686 129.512535 65.017323 129.232262 65.51614 128.733445 
C 66.014958 128.234627 66.29523 127.557991 66.29523 126.852556 
C 66.29523 126.147121 66.014958 125.470485 65.51614 124.971667 
C 65.017323 124.47285 64.340686 124.192577 63.635252 124.192577 
C 62.929817 124.192577 62.25318 124.47285 61.754363 124.971667 
C 61.255545 125.470485 60.975273 126.147121 60.975273 126.852556 
C 60.975273 127.557991 61.255545 128.234627 61.754363 128.733445 
C 62.25318 129.232262 62.929817 129.512535 63.635252 129.512535 
z
" clip-path="url(#pcbd008bfca)" style="stroke: #000000"/>
    <path d="M 58.623635 120.171707 
C 59.32907 120.171707 60.005707 119.891435 60.504524 119.392618 
C 61.003342 118.8938 61.283614 118.217164 61.283614 117.511729 
C 61.283614 116.806294 61.003342 116.129658 60.504524 115.63084 
C 60.005707 115.132023 59.32907 114.85175 58.623635 114.85175 
C 57.918201 114.85175 57.241564 115.132023 56.742747 115.63084 
C 56.243929 116.129658 55.963657 116.806294 55.963657 117.511729 
C 55.963657 118.217164 56.243929 118.8938 56.742747 119.392618 
C 57.241564 119.891435 57.918201 120.171707 58.623635 120.171707 
z
" clip-path="url(#pcbd008bfca)" style="stroke: #000000"/>
    <path d="M 55.171988 106.158191 
C 55.877203 106.158191 56.553628 105.878007 57.05229 105.379345 
C 57.550952 104.880683 57.831136 104.204257 57.831136 103.499043 
C 57.831136 102.793829 57.550952 102.117403 57.05229 101.618742 
C 56.553628 101.12008 55.877203 100.839895 55.171988 100.839895 
C 54.466774 100.839895 53.790348 101.12008 53.291687 101.618742 
C 52.793025 102.117403 52.51284 102.793829 52.51284 103.499043 
C 52.51284 104.204257 52.793025 104.880683 53.291687 105.379345 
C 53.790348 105.878007 54.466774 106.158191 55.171988 106.158191 
z
" clip-path="url(#pcbd008bfca)" style="stroke: #000000"/>
    <path d="M 50.080964 93.568078 
C 50.70292 93.568078 51.299487 93.320972 51.739276 92.881182 
C 52.179066 92.441393 52.426172 91.844826 52.426172 91.22287 
C 52.426172 90.600914 52.179066 90.004347 51.739276 89.564558 
C 51.299487 89.124768 50.70292 88.877662 50.080964 88.877662 
C 49.459008 88.877662 48.862441 89.124768 48.422652 89.564558 
C 47.982862 90.004347 47.735756 90.600914 47.735756 91.22287 
C 47.735756 91.844826 47.982862 92.441393 48.422652 92.881182 
C 48.862441 93.320972 49.459008 93.568078 50.080964 93.568078 
z
" clip-path="url(#pcbd008bfca)" style="stroke: #000000"/>
    <path d="M 48.135196 88.266876 
C 48.721421 88.266876 49.283715 88.033966 49.698239 87.619443 
C 50.112763 87.204919 50.345673 86.642625 50.345673 86.0564 
C 50.345673 85.470175 50.112763 84.907881 49.698239 84.493357 
C 49.283715 84.078833 48.721421 83.845924 48.135196 83.845924 
C 47.548971 83.845924 46.986677 84.078833 46.572154 84.493357 
C 46.15763 84.907881 45.92472 85.470175 45.92472 86.0564 
C 45.92472 86.642625 46.15763 87.204919 46.572154 87.619443 
C 46.986677 88.033966 47.548971 88.266876 48.135196 88.266876 
z
" clip-path="url(#pcbd008bfca)" style="stroke: #000000"/>
    <path d="M 63.563569 169.194875 
C 63.696171 169.194875 63.823359 169.142192 63.917123 169.048428 
C 64.010886 168.954665 64.063569 168.827476 64.063569 168.694875 
C 64.063569 168.562273 64.010886 168.435085 63.917123 168.341321 
C 63.823359 168.247558 63.696171 168.194875 63.563569 168.194875 
C 63.430968 168.194875 63.303779 168.247558 63.210016 168.341321 
C 63.116252 168.435085 63.063569 168.562273 63.063569 168.694875 
C 63.063569 168.827476 63.116252 168.954665 63.210016 169.048428 
C 63.303779 169.142192 63.430968 169.194875 63.563569 169.194875 
z
" clip-path="url(#pcbd008bfca)" style="stroke: #000000"/>
    <path d="M 58.792873 151.272959 
C 59.385885 151.272959 59.954689 151.037353 60.374012 150.61803 
C 60.793335 150.198707 61.028941 149.629903 61.028941 149.036891 
C 61.028941 148.443879 60.793335 147.875075 60.374012 147.455752 
C 59.954689 147.036429 59.385885 146.800823 58.792873 146.800823 
C 58.199861 146.800823 57.631057 147.036429 57.211734 147.455752 
C 56.792411 147.875075 56.556805 148.443879 56.556805 149.036891 
C 56.556805 149.629903 56.792411 150.198707 57.211734 150.61803 
C 57.631057 151.037353 58.199861 151.272959 58.792873 151.272959 
z
" clip-path="url(#pcbd008bfca)" style="stroke: #000000"/>
    <path d="M 50.889073 143.915516 
C 51.41099 143.915516 51.911601 143.708156 52.280652 143.339105 
C 52.649703 142.970054 52.857063 142.469443 52.857063 141.947526 
C 52.857063 141.425609 52.649703 140.924998 52.280652 140.555947 
C 51.911601 140.186896 51.41099 139.979537 50.889073 139.979537 
C 50.367156 139.979537 49.866546 140.186896 49.497495 140.555947 
C 49.128443 140.924998 48.921084 141.425609 48.921084 141.947526 
C 48.921084 142.469443 49.128443 142.970054 49.497495 143.339105 
C 49.866546 143.708156 50.367156 143.915516 50.889073 143.915516 
z
" clip-path="url(#pcbd008bfca)" style="stroke: #000000"/>
    <path d="M 42.044926 112.846065 
C 42.638309 112.846065 43.207468 112.610312 43.627053 112.190727 
C 44.046637 111.771142 44.282391 111.201983 44.282391 110.608601 
C 44.282391 110.015219 44.046637 109.44606 43.627053 109.026475 
C 43.207468 108.60689 42.638309 108.371137 42.044926 108.371137 
C 41.451544 108.371137 40.882385 108.60689 40.4628 109.026475 
C 40.043216 109.44606 39.807462 110.015219 39.807462 110.608601 
C 39.807462 111.201983 40.043216 111.771142 40.4628 112.190727 
C 40.882385 112.610312 41.451544 112.846065 42.044926 112.846065 
z
" clip-path="url(#pcbd008bfca)" style="stroke: #000000"/>
    <path d="M 39.865104 101.074075 
C 40.457374 101.074075 41.025465 100.838764 41.444263 100.419966 
C 41.863061 100.001168 42.098372 99.433077 42.098372 98.840807 
C 42.098372 98.248538 41.863061 97.680446 41.444263 97.261648 
C 41.025465 96.842851 40.457374 96.607539 39.865104 96.607539 
C 39.272835 96.607539 38.704743 96.842851 38.285946 97.261648 
C 37.867148 97.680446 37.631837 98.248538 37.631837 98.840807 
C 37.631837 99.433077 37.867148 100.001168 38.285946 100.419966 
C 38.704743 100.838764 39.272835 101.074075 39.865104 101.074075 
z
" clip-path="url(#pcbd008bfca)" style="stroke: #000000"/>
    <path d="M 37.898601 125.966064 
C 38.491613 125.966064 39.060416 125.730457 39.479739 125.311134 
C 39.899062 124.891812 40.134669 124.323008 40.134669 123.729996 
C 40.134669 123.136983 39.899062 122.56818 39.479739 122.148857 
C 39.060416 121.729534 38.491613 121.493928 37.898601 121.493928 
C 37.305588 121.493928 36.736785 121.729534 36.317462 122.148857 
C 35.898139 122.56818 35.662533 123.136983 35.662533 123.729996 
C 35.662533 124.323008 35.898139 124.891812 36.317462 125.311134 
C 36.736785 125.730457 37.305588 125.966064 37.898601 125.966064 
z
" clip-path="url(#pcbd008bfca)" style="stroke: #000000"/>
    <path d="M 32.944619 113.336779 
C 33.538001 113.336779 34.10716 113.101026 34.526745 112.681441 
C 34.94633 112.261856 35.182083 111.692697 35.182083 111.099315 
C 35.182083 110.505932 34.94633 109.936773 34.526745 109.517189 
C 34.10716 109.097604 33.538001 108.86185 32.944619 108.86185 
C 32.351236 108.86185 31.782078 109.097604 31.362493 109.517189 
C 30.942908 109.936773 30.707155 110.505932 30.707155 111.099315 
C 30.707155 111.692697 30.942908 112.261856 31.362493 112.681441 
C 31.782078 113.101026 32.351236 113.336779 32.944619 113.336779 
z
" clip-path="url(#pcbd008bfca)" style="stroke: #000000"/>
    <path d="M 40.40762 168.62907 
C 40.565311 168.62907 40.716564 168.566419 40.828068 168.454915 
C 40.939572 168.343411 41.002223 168.192158 41.002223 168.034467 
C 41.002223 167.876776 40.939572 167.725523 40.828068 167.614019 
C 40.716564 167.502514 40.565311 167.439863 40.40762 167.439863 
C 40.249929 167.439863 40.098676 167.502514 39.987172 167.614019 
C 39.875667 167.725523 39.813016 167.876776 39.813016 168.034467 
C 39.813016 168.192158 39.875667 168.343411 39.987172 168.454915 
C 40.098676 168.566419 40.249929 168.62907 40.40762 168.62907 
z
" clip-path="url(#pcbd008bfca)" style="stroke: #000000"/>
    <path d="M 28.883332 140.43121 
C 29.148535 140.43121 29.402912 140.325843 29.590439 140.138316 
C 29.777966 139.95079 29.883332 139.696413 29.883332 139.43121 
C 29.883332 139.166007 29.777966 138.91163 29.590439 138.724103 
C 29.402912 138.536576 29.148535 138.43121 28.883332 138.43121 
C 28.618129 138.43121 28.363752 138.536576 28.176225 138.724103 
C 27.988698 138.91163 27.883332 139.166007 27.883332 139.43121 
C 27.883332 139.696413 27.988698 139.95079 28.176225 140.138316 
C 28.363752 140.325843 28.618129 140.43121 28.883332 140.43121 
z
" clip-path="url(#pcbd008bfca)" style="stroke: #000000"/>
    <path d="M 27.575633 130.180843 
C 28.146286 130.180843 28.693644 129.95412 29.097156 129.550608 
C 29.500669 129.147095 29.727392 128.599738 29.727392 128.029085 
C 29.727392 127.458432 29.500669 126.911074 29.097156 126.507562 
C 28.693644 126.104049 28.146286 125.877326 27.575633 125.877326 
C 27.00498 125.877326 26.457623 126.104049 26.05411 126.507562 
C 25.650598 126.911074 25.423875 127.458432 25.423875 128.029085 
C 25.423875 128.599738 25.650598 129.147095 26.05411 129.550608 
C 26.457623 129.95412 27.00498 130.180843 27.575633 130.180843 
z
" clip-path="url(#pcbd008bfca)" style="stroke: #000000"/>
   </g>
   <g id="matplotlib.axis_1">
    <g id="xtick_1">
     <g id="line2d_1">
      <defs>
       <path id="m7e81f94e70" d="M 0 0 
L 0 3.5 
" style="stroke: #000000; stroke-width: 0.8"/>
      </defs>
      <g>
       <use xlink:href="#m7e81f94e70" x="18" y="189" style="stroke: #000000; stroke-width: 0.8"/>
      </g>
     </g>
     <g id="text_1">
      <!-- −10 -->
      <g transform="translate(7.447656 203.598437)scale(0.1 -0.1)">
       <defs>
        <path id="DejaVuSans-2212" d="M 678 2272 
L 4684 2272 
L 4684 1741 
L 678 1741 
L 678 2272 
z
" transform="scale(0.015625)"/>
        <path id="DejaVuSans-31" d="M 794 531 
L 1825 531 
L 1825 4091 
L 703 3866 
L 703 4441 
L 1819 4666 
L 2450 4666 
L 2450 531 
L 3481 531 
L 3481 0 
L 794 0 
L 794 531 
z
" transform="scale(0.015625)"/>
        <path id="DejaVuSans-30" d="M 2034 4250 
Q 1547 4250 1301 3770 
Q 1056 3291 1056 2328 
Q 1056 1369 1301 889 
Q 1547 409 2034 409 
Q 2525 409 2770 889 
Q 3016 1369 3016 2328 
Q 3016 3291 2770 3770 
Q 2525 4250 2034 4250 
z
M 2034 4750 
Q 2819 4750 3233 4129 
Q 3647 3509 3647 2328 
Q 3647 1150 3233 529 
Q 2819 -91 2034 -91 
Q 1250 -91 836 529 
Q 422 1150 422 2328 
Q 422 3509 836 4129 
Q 1250 4750 2034 4750 
z
" transform="scale(0.015625)"/>
       </defs>
       <use xlink:href="#DejaVuSans-2212"/>
       <use xlink:href="#DejaVuSans-31" x="83.789062"/>
       <use xlink:href="#DejaVuSans-30" x="147.412109"/>
      </g>
     </g>
    </g>
    <g id="xtick_2">
     <g id="line2d_2">
      <g>
       <use xlink:href="#m7e81f94e70" x="73.8" y="189" style="stroke: #000000; stroke-width: 0.8"/>
      </g>
     </g>
     <g id="text_2">
      <!-- 0 -->
      <g transform="translate(70.61875 203.598437)scale(0.1 -0.1)">
       <use xlink:href="#DejaVuSans-30"/>
      </g>
     </g>
    </g>
    <g id="xtick_3">
     <g id="line2d_3">
      <g>
       <use xlink:href="#m7e81f94e70" x="129.6" y="189" style="stroke: #000000; stroke-width: 0.8"/>
      </g>
     </g>
     <g id="text_3">
      <!-- 10 -->
      <g transform="translate(123.2375 203.598437)scale(0.1 -0.1)">
       <use xlink:href="#DejaVuSans-31"/>
       <use xlink:href="#DejaVuSans-30" x="63.623047"/>
      </g>
     </g>
    </g>
   </g>
   <g id="matplotlib.axis_2">
    <g id="ytick_1">
     <g id="line2d_4">
      <defs>
       <path id="m312f42f2c7" d="M 0 0 
L -3.5 0 
" style="stroke: #000000; stroke-width: 0.8"/>
      </defs>
      <g>
       <use xlink:href="#m312f42f2c7" x="18" y="189" style="stroke: #000000; stroke-width: 0.8"/>
      </g>
     </g>
     <g id="text_4">
      <!-- −15 -->
      <g transform="translate(-10.104688 192.799219)scale(0.1 -0.1)">
       <defs>
        <path id="DejaVuSans-35" d="M 691 4666 
L 3169 4666 
L 3169 4134 
L 1269 4134 
L 1269 2991 
Q 1406 3038 1543 3061 
Q 1681 3084 1819 3084 
Q 2600 3084 3056 2656 
Q 3513 2228 3513 1497 
Q 3513 744 3044 326 
Q 2575 -91 1722 -91 
Q 1428 -91 1123 -41 
Q 819 9 494 109 
L 494 744 
Q 775 591 1075 516 
Q 1375 441 1709 441 
Q 2250 441 2565 725 
Q 2881 1009 2881 1497 
Q 2881 1984 2565 2268 
Q 2250 2553 1709 2553 
Q 1456 2553 1204 2497 
Q 953 2441 691 2322 
L 691 4666 
z
" transform="scale(0.015625)"/>
       </defs>
       <use xlink:href="#DejaVuSans-2212"/>
       <use xlink:href="#DejaVuSans-31" x="83.789062"/>
       <use xlink:href="#DejaVuSans-35" x="147.412109"/>
      </g>
     </g>
    </g>
    <g id="ytick_2">
     <g id="line2d_5">
      <g>
       <use xlink:href="#m312f42f2c7" x="18" y="161.82" style="stroke: #000000; stroke-width: 0.8"/>
      </g>
     </g>
     <g id="text_5">
      <!-- −10 -->
      <g transform="translate(-10.104688 165.619219)scale(0.1 -0.1)">
       <use xlink:href="#DejaVuSans-2212"/>
       <use xlink:href="#DejaVuSans-31" x="83.789062"/>
       <use xlink:href="#DejaVuSans-30" x="147.412109"/>
      </g>
     </g>
    </g>
    <g id="ytick_3">
     <g id="line2d_6">
      <g>
       <use xlink:href="#m312f42f2c7" x="18" y="134.64" style="stroke: #000000; stroke-width: 0.8"/>
      </g>
     </g>
     <g id="text_6">
      <!-- −5 -->
      <g transform="translate(-3.742188 138.439219)scale(0.1 -0.1)">
       <use xlink:href="#DejaVuSans-2212"/>
       <use xlink:href="#DejaVuSans-35" x="83.789062"/>
      </g>
     </g>
    </g>
    <g id="ytick_4">
     <g id="line2d_7">
      <g>
       <use xlink:href="#m312f42f2c7" x="18" y="107.46" style="stroke: #000000; stroke-width: 0.8"/>
      </g>
     </g>
     <g id="text_7">
      <!-- 0 -->
      <g transform="translate(4.6375 111.259219)scale(0.1 -0.1)">
       <use xlink:href="#DejaVuSans-30"/>
      </g>
     </g>
    </g>
    <g id="ytick_5">
     <g id="line2d_8">
      <g>
       <use xlink:href="#m312f42f2c7" x="18" y="80.28" style="stroke: #000000; stroke-width: 0.8"/>
      </g>
     </g>
     <g id="text_8">
      <!-- 5 -->
      <g transform="translate(4.6375 84.079219)scale(0.1 -0.1)">
       <use xlink:href="#DejaVuSans-35"/>
      </g>
     </g>
    </g>
    <g id="ytick_6">
     <g id="line2d_9">
      <g>
       <use xlink:href="#m312f42f2c7" x="18" y="53.1" style="stroke: #000000; stroke-width: 0.8"/>
      </g>
     </g>
     <g id="text_9">
      <!-- 10 -->
      <g transform="translate(-1.725 56.899219)scale(0.1 -0.1)">
       <use xlink:href="#DejaVuSans-31"/>
       <use xlink:href="#DejaVuSans-30" x="63.623047"/>
      </g>
     </g>
    </g>
    <g id="ytick_7">
     <g id="line2d_10">
      <g>
       <use xlink:href="#m312f42f2c7" x="18" y="25.92" style="stroke: #000000; stroke-width: 0.8"/>
      </g>
     </g>
     <g id="text_10">
      <!-- 15 -->
      <g transform="translate(-1.725 29.719219)scale(0.1 -0.1)">
       <use xlink:href="#DejaVuSans-31"/>
       <use xlink:href="#DejaVuSans-35" x="63.623047"/>
      </g>
     </g>
    </g>
   </g>
   <g id="patch_3">
    <path d="M 18 189 
L 18 25.92 
" style="fill: none; stroke: #000000; stroke-width: 0.8; stroke-linejoin: miter; stroke-linecap: square"/>
   </g>
   <g id="patch_4">
    <path d="M 129.6 189 
L 129.6 25.92 
" style="fill: none; stroke: #000000; stroke-width: 0.8; stroke-linejoin: miter; stroke-linecap: square"/>
   </g>
   <g id="patch_5">
    <path d="M 18 189 
L 129.6 189 
" style="fill: none; stroke: #000000; stroke-width: 0.8; stroke-linejoin: miter; stroke-linecap: square"/>
   </g>
   <g id="patch_6">
    <path d="M 18 25.92 
L 129.6 25.92 
" style="fill: none; stroke: #000000; stroke-width: 0.8; stroke-linejoin: miter; stroke-linecap: square"/>
   </g>
  </g>
 </g>
 <defs>
  <clipPath id="pcbd008bfca">
   <rect x="18" y="25.92" width="111.6" height="163.08"/>
  </clipPath>
 </defs>
</svg>
