<?xml version="1.0" encoding="utf-8" standalone="no"?>
<!DOCTYPE svg PUBLIC "-//W3C//DTD SVG 1.1//EN"
  "http://www.w3.org/Graphics/SVG/1.1/DTD/svg11.dtd">
<svg xmlns:xlink="http://www.w3.org/1999/xlink" width="144pt" height="216pt" viewBox="0 0 144 216" xmlns="http://www.w3.org/2000/svg" version="1.1">
 <metadata>
  <rdf:RDF xmlns:dc="http://purl.org/dc/elements/1.1/" xmlns:cc="http://creativecommons.org/ns#" xmlns:rdf="http://www.w3.org/1999/02/22-rdf-syntax-ns#">
   <cc:Work>
    <dc:type rdf:resource="http://purl.org/dc/dcmitype/StillImage"/>
    <dc:date>2022-06-28T09:18:29.860435</dc:date>
    <dc:format>image/svg+xml</dc:format>
    <dc:creator>
     <cc:Agent>
      <dc:title>Matplotlib v3.5.1, https://matplotlib.org/</dc:title>
     </cc:Agent>
    </dc:creator>
   </cc:Work>
  </rdf:RDF>
 </metadata>
 <defs>
  <style type="text/css">*{stroke-linejoin: round; stroke-linecap: butt}</style>
 </defs>
 <g id="figure_1">
  <g id="patch_1">
   <path d="M 0 216 
L 144 216 
L 144 0 
L 0 0 
L 0 216 
z
" style="fill: none"/>
  </g>
  <g id="axes_1">
   <g id="patch_2">
    <path d="M 18 189 
L 129.6 189 
L 129.6 25.92 
L 18 25.92 
z
" style="fill: #ffffff"/>
   </g>
   <g id="PathCollection_1">
    <defs>
     <path id="m4ccfa0ac07" d="M 0 2.738613 
C 0.726289 2.738613 1.422928 2.450055 1.936492 1.936492 
C 2.450055 1.422928 2.738613 0.726289 2.738613 0 
C 2.738613 -0.726289 2.450055 -1.422928 1.936492 -1.936492 
C 1.422928 -2.450055 0.726289 -2.738613 0 -2.738613 
C -0.726289 -2.738613 -1.422928 -2.450055 -1.936492 -1.936492 
C -2.450055 -1.422928 -2.738613 -0.726289 -2.738613 0 
C -2.738613 0.726289 -2.450055 1.422928 -1.936492 1.936492 
C -1.422928 2.450055 -0.726289 2.738613 0 2.738613 
z
" style="stroke: #ff0000; stroke-width: 1.75"/>
    </defs>
    <g clip-path="url(#pc3636833f0)">
     <use xlink:href="#m4ccfa0ac07" x="66.825" y="83.92143" style="fill: #ff0000; stroke: #ff0000; stroke-width: 1.75"/>
     <use xlink:href="#m4ccfa0ac07" x="87.75" y="95.690715" style="fill: #ff0000; stroke: #ff0000; stroke-width: 1.75"/>
     <use xlink:href="#m4ccfa0ac07" x="66.825" y="107.46" style="fill: #ff0000; stroke: #ff0000; stroke-width: 1.75"/>
     <use xlink:href="#m4ccfa0ac07" x="73.8" y="119.229285" style="fill: #ff0000; stroke: #ff0000; stroke-width: 1.75"/>
     <use xlink:href="#m4ccfa0ac07" x="87.75" y="119.229285" style="fill: #ff0000; stroke: #ff0000; stroke-width: 1.75"/>
     <use xlink:href="#m4ccfa0ac07" x="66.825" y="130.99857" style="fill: #ff0000; stroke: #ff0000; stroke-width: 1.75"/>
     <use xlink:href="#m4ccfa0ac07" x="80.775" y="130.99857" style="fill: #ff0000; stroke: #ff0000; stroke-width: 1.75"/>
    </g>
   </g>
   <g id="PathCollection_2">
    <defs>
     <path id="C0_0_83d531f94f" d="M 0 2.738613 
C 0.726289 2.738613 1.422928 2.450055 1.936492 1.936492 
C 2.450055 1.422928 2.738613 0.726289 2.738613 -0 
C 2.738613 -0.726289 2.450055 -1.422928 1.936492 -1.936492 
C 1.422928 -2.450055 0.726289 -2.738613 0 -2.738613 
C -0.726289 -2.738613 -1.422928 -2.450055 -1.936492 -1.936492 
C -2.450055 -1.422928 -2.738613 -0.726289 -2.738613 0 
C -2.738613 0.726289 -2.450055 1.422928 -1.936492 1.936492 
C -1.422928 2.450055 -0.726289 2.738613 0 2.738613 
z
"/>
    </defs>
    <g clip-path="url(#pc3636833f0)">
     <use xlink:href="#C0_0_83d531f94f" x="80.775" y="83.92143" style="fill: none; stroke: #ff0000; stroke-width: 1.75"/>
    </g>
    <g clip-path="url(#pc3636833f0)">
     <use xlink:href="#C0_0_83d531f94f" x="59.85" y="95.690715" style="fill: none; stroke: #ff0000; stroke-width: 1.75"/>
    </g>
    <g clip-path="url(#pc3636833f0)">
     <use xlink:href="#C0_0_83d531f94f" x="73.8" y="95.690715" style="fill: none; stroke: #ff0000; stroke-width: 1.75"/>
    </g>
    <g clip-path="url(#pc3636833f0)">
     <use xlink:href="#C0_0_83d531f94f" x="52.875" y="107.46" style="fill: none; stroke: #ff0000; stroke-width: 1.75"/>
    </g>
    <g clip-path="url(#pc3636833f0)">
     <use xlink:href="#C0_0_83d531f94f" x="80.775" y="107.46" style="fill: none; stroke: #ff0000; stroke-width: 1.75"/>
    </g>
    <g clip-path="url(#pc3636833f0)">
     <use xlink:href="#C0_0_83d531f94f" x="94.725" y="107.46" style="fill: none; stroke: #ff0000; stroke-width: 1.75"/>
    </g>
    <g clip-path="url(#pc3636833f0)">
     <use xlink:href="#C0_0_83d531f94f" x="59.85" y="119.229285" style="fill: none; stroke: #ff0000; stroke-width: 1.75"/>
    </g>
   </g>
   <g id="PathCollection_3">
    <path d="M 121.947298 140.931099 
C 122.545071 140.931099 123.118441 140.693602 123.54113 140.270913 
C 123.963819 139.848223 124.201317 139.274853 124.201317 138.677081 
C 124.201317 138.079308 123.963819 137.505938 123.54113 137.083249 
C 123.118441 136.66056 122.545071 136.423062 121.947298 136.423062 
C 121.349525 136.423062 120.776155 136.66056 120.353466 137.083249 
C 119.930777 137.505938 119.693279 138.079308 119.693279 138.677081 
C 119.693279 139.274853 119.930777 139.848223 120.353466 140.270913 
C 120.776155 140.693602 121.349525 140.931099 121.947298 140.931099 
z
" clip-path="url(#pc3636833f0)" style="stroke: #000000"/>
    <path d="M 118.723259 132.358809 
C 119.389426 132.358809 120.028399 132.094138 120.49945 131.623086 
C 120.970502 131.152035 121.235173 130.513062 121.235173 129.846895 
C 121.235173 129.180727 120.970502 128.541754 120.49945 128.070703 
C 120.028399 127.599651 119.389426 127.33498 118.723259 127.33498 
C 118.057091 127.33498 117.418118 127.599651 116.947067 128.070703 
C 116.476015 128.541754 116.211344 129.180727 116.211344 129.846895 
C 116.211344 130.513062 116.476015 131.152035 116.947067 131.623086 
C 117.418118 132.094138 118.057091 132.358809 118.723259 132.358809 
z
" clip-path="url(#pc3636833f0)" style="stroke: #000000"/>
    <path d="M 115.84993 122.795195 
C 116.555364 122.795195 117.232001 122.514923 117.730818 122.016106 
C 118.229636 121.517288 118.509908 120.840651 118.509908 120.135217 
C 118.509908 119.429782 118.229636 118.753146 117.730818 118.254328 
C 117.232001 117.75551 116.555364 117.475238 115.84993 117.475238 
C 115.144495 117.475238 114.467858 117.75551 113.969041 118.254328 
C 113.470223 118.753146 113.189951 119.429782 113.189951 120.135217 
C 113.189951 120.840651 113.470223 121.517288 113.969041 122.016106 
C 114.467858 122.514923 115.144495 122.795195 115.84993 122.795195 
z
" clip-path="url(#pc3636833f0)" style="stroke: #000000"/>
    <path d="M 107.952073 102.790135 
C 108.657508 102.790135 109.334145 102.509863 109.832962 102.011046 
C 110.33178 101.512228 110.612052 100.835591 110.612052 100.130157 
C 110.612052 99.424722 110.33178 98.748085 109.832962 98.249268 
C 109.334145 97.75045 108.657508 97.470178 107.952073 97.470178 
C 107.246639 97.470178 106.570002 97.75045 106.071185 98.249268 
C 105.572367 98.748085 105.292095 99.424722 105.292095 100.130157 
C 105.292095 100.835591 105.572367 101.512228 106.071185 102.011046 
C 106.570002 102.509863 107.246639 102.790135 107.952073 102.790135 
z
" clip-path="url(#pc3636833f0)" style="stroke: #000000"/>
    <path d="M 107.126588 87.732788 
C 107.660584 87.732788 108.17278 87.52063 108.550372 87.143038 
C 108.927964 86.765446 109.140122 86.25325 109.140122 85.719254 
C 109.140122 85.185259 108.927964 84.673063 108.550372 84.295471 
C 108.17278 83.917879 107.660584 83.70572 107.126588 83.70572 
C 106.592593 83.70572 106.080397 83.917879 105.702805 84.295471 
C 105.325213 84.673063 105.113054 85.185259 105.113054 85.719254 
C 105.113054 86.25325 105.325213 86.765446 105.702805 87.143038 
C 106.080397 87.52063 106.592593 87.732788 107.126588 87.732788 
z
" clip-path="url(#pc3636833f0)" style="stroke: #000000"/>
    <path d="M 103.573128 80.775596 
C 104.078509 80.775596 104.56326 80.574806 104.920618 80.217447 
C 105.277977 79.860089 105.478767 79.375338 105.478767 78.869957 
C 105.478767 78.364576 105.277977 77.879825 104.920618 77.522467 
C 104.56326 77.165108 104.078509 76.964318 103.573128 76.964318 
C 103.067747 76.964318 102.582996 77.165108 102.225638 77.522467 
C 101.868279 77.879825 101.667489 78.364576 101.667489 78.869957 
C 101.667489 79.375338 101.868279 79.860089 102.225638 80.217447 
C 102.582996 80.574806 103.067747 80.775596 103.573128 80.775596 
z
" clip-path="url(#pc3636833f0)" style="stroke: #000000"/>
    <path d="M 97.25114 68.417237 
C 97.956574 68.417237 98.633211 68.136965 99.132029 67.638148 
C 99.630846 67.13933 99.911118 66.462693 99.911118 65.757259 
C 99.911118 65.051824 99.630846 64.375187 99.132029 63.87637 
C 98.633211 63.377552 97.956574 63.09728 97.25114 63.09728 
C 96.545705 63.09728 95.869069 63.377552 95.370251 63.87637 
C 94.871433 64.375187 94.591161 65.051824 94.591161 65.757259 
C 94.591161 66.462693 94.871433 67.13933 95.370251 67.638148 
C 95.869069 68.136965 96.545705 68.417237 97.25114 68.417237 
z
" clip-path="url(#pc3636833f0)" style="stroke: #000000"/>
    <path d="M 112.495478 148.673724 
C 113.140531 148.673724 113.759251 148.417442 114.215373 147.96132 
C 114.671494 147.505199 114.927777 146.886478 114.927777 146.241425 
C 114.927777 145.596371 114.671494 144.977651 114.215373 144.521529 
C 113.759251 144.065408 113.140531 143.809125 112.495478 143.809125 
C 111.850424 143.809125 111.231704 144.065408 110.775582 144.521529 
C 110.319461 144.977651 110.063178 145.596371 110.063178 146.241425 
C 110.063178 146.886478 110.319461 147.505199 110.775582 147.96132 
C 111.231704 148.417442 111.850424 148.673724 112.495478 148.673724 
z
" clip-path="url(#pc3636833f0)" style="stroke: #000000"/>
    <path d="M 109.184666 137.198315 
C 109.8901 137.198315 110.566737 136.918043 111.065555 136.419225 
C 111.564372 135.920408 111.844644 135.243771 111.844644 134.538336 
C 111.844644 133.832902 111.564372 133.156265 111.065555 132.657447 
C 110.566737 132.15863 109.8901 131.878358 109.184666 131.878358 
C 108.479231 131.878358 107.802594 132.15863 107.303777 132.657447 
C 106.804959 133.156265 106.524687 133.832902 106.524687 134.538336 
C 106.524687 135.243771 106.804959 135.920408 107.303777 136.419225 
C 107.802594 136.918043 108.479231 137.198315 109.184666 137.198315 
z
" clip-path="url(#pc3636833f0)" style="stroke: #000000"/>
    <path d="M 102.090386 126.248866 
C 102.795821 126.248866 103.472458 125.968594 103.971275 125.469777 
C 104.470093 124.970959 104.750365 124.294322 104.750365 123.588888 
C 104.750365 122.883453 104.470093 122.206816 103.971275 121.707999 
C 103.472458 121.209181 102.795821 120.928909 102.090386 120.928909 
C 101.384952 120.928909 100.708315 121.209181 100.209497 121.707999 
C 99.71068 122.206816 99.430408 122.883453 99.430408 123.588888 
C 99.430408 124.294322 99.71068 124.970959 100.209497 125.469777 
C 100.708315 125.968594 101.384952 126.248866 102.090386 126.248866 
z
" clip-path="url(#pc3636833f0)" style="stroke: #000000"/>
    <path d="M 103.722771 115.445701 
C 104.428206 115.445701 105.104843 115.165429 105.60366 114.666611 
C 106.102478 114.167794 106.38275 113.491157 106.38275 112.785722 
C 106.38275 112.080288 106.102478 111.403651 105.60366 110.904834 
C 105.104843 110.406016 104.428206 110.125744 103.722771 110.125744 
C 103.017337 110.125744 102.3407 110.406016 101.841882 110.904834 
C 101.343065 111.403651 101.062793 112.080288 101.062793 112.785722 
C 101.062793 113.491157 101.343065 114.167794 101.841882 114.666611 
C 102.3407 115.165429 103.017337 115.445701 103.722771 115.445701 
z
" clip-path="url(#pc3636833f0)" style="stroke: #000000"/>
    <path d="M 99.527136 104.774242 
C 100.232571 104.774242 100.909208 104.49397 101.408025 103.995153 
C 101.906843 103.496335 102.187115 102.819698 102.187115 102.114264 
C 102.187115 101.408829 101.906843 100.732192 101.408025 100.233375 
C 100.909208 99.734557 100.232571 99.454285 99.527136 99.454285 
C 98.821702 99.454285 98.145065 99.734557 97.646247 100.233375 
C 97.14743 100.732192 96.867158 101.408829 96.867158 102.114264 
C 96.867158 102.819698 97.14743 103.496335 97.646247 103.995153 
C 98.145065 104.49397 98.821702 104.774242 99.527136 104.774242 
z
" clip-path="url(#pc3636833f0)" style="stroke: #000000"/>
    <path d="M 96.292599 92.938813 
C 96.997813 92.938813 97.674239 92.658628 98.1729 92.159966 
C 98.671562 91.661305 98.951747 90.984879 98.951747 90.279665 
C 98.951747 89.574451 98.671562 88.898025 98.1729 88.399363 
C 97.674239 87.900702 96.997813 87.620517 96.292599 87.620517 
C 95.587385 87.620517 94.910959 87.900702 94.412297 88.399363 
C 93.913636 88.898025 93.633451 89.574451 93.633451 90.279665 
C 93.633451 90.984879 93.913636 91.661305 94.412297 92.159966 
C 94.910959 92.658628 95.587385 92.938813 96.292599 92.938813 
z
" clip-path="url(#pc3636833f0)" style="stroke: #000000"/>
    <path d="M 94.431541 86.496339 
C 95.136756 86.496339 95.813181 86.216155 96.311843 85.717493 
C 96.810505 85.218831 97.090689 84.542406 97.090689 83.837192 
C 97.090689 83.131977 96.810505 82.455552 96.311843 81.95689 
C 95.813181 81.458228 95.136756 81.178044 94.431541 81.178044 
C 93.726327 81.178044 93.049902 81.458228 92.55124 81.95689 
C 92.052578 82.455552 91.772394 83.131977 91.772394 83.837192 
C 91.772394 84.542406 92.052578 85.218831 92.55124 85.717493 
C 93.049902 86.216155 93.726327 86.496339 94.431541 86.496339 
z
" clip-path="url(#pc3636833f0)" style="stroke: #000000"/>
    <path d="M 89.337784 76.268894 
C 90.042998 76.268894 90.719424 75.988709 91.218086 75.490048 
C 91.716748 74.991386 91.996932 74.31496 91.996932 73.609746 
C 91.996932 72.904532 91.716748 72.228106 91.218086 71.729445 
C 90.719424 71.230783 90.042998 70.950598 89.337784 70.950598 
C 88.63257 70.950598 87.956144 71.230783 87.457483 71.729445 
C 86.958821 72.228106 86.678636 72.904532 86.678636 73.609746 
C 86.678636 74.31496 86.958821 74.991386 87.457483 75.490048 
C 87.956144 75.988709 88.63257 76.268894 89.337784 76.268894 
z
" clip-path="url(#pc3636833f0)" style="stroke: #000000"/>
    <path d="M 82.997033 64.269947 
C 83.7007 64.269947 84.375641 63.990377 84.873208 63.49281 
C 85.370775 62.995243 85.650345 62.320302 85.650345 61.616635 
C 85.650345 60.912969 85.370775 60.238028 84.873208 59.74046 
C 84.375641 59.242893 83.7007 58.963323 82.997033 58.963323 
C 82.293367 58.963323 81.618426 59.242893 81.120858 59.74046 
C 80.623291 60.238028 80.343721 60.912969 80.343721 61.616635 
C 80.343721 62.320302 80.623291 62.995243 81.120858 63.49281 
C 81.618426 63.990377 82.293367 64.269947 82.997033 64.269947 
z
" clip-path="url(#pc3636833f0)" style="stroke: #000000"/>
    <path d="M 85.433059 55.770814 
C 86.029744 55.770814 86.60207 55.533749 87.023989 55.11183 
C 87.445909 54.68991 87.682974 54.117584 87.682974 53.5209 
C 87.682974 52.924216 87.445909 52.35189 87.023989 51.92997 
C 86.60207 51.508051 86.029744 51.270986 85.433059 51.270986 
C 84.836375 51.270986 84.264049 51.508051 83.84213 51.92997 
C 83.42021 52.35189 83.183145 52.924216 83.183145 53.5209 
C 83.183145 54.117584 83.42021 54.68991 83.84213 55.11183 
C 84.264049 55.533749 84.836375 55.770814 85.433059 55.770814 
z
" clip-path="url(#pc3636833f0)" style="stroke: #000000"/>
    <path d="M 110.129156 160.358201 
C 110.722168 160.358201 111.290971 160.122595 111.710294 159.703272 
C 112.129617 159.283949 112.365224 158.715146 112.365224 158.122133 
C 112.365224 157.529121 112.129617 156.960318 111.710294 156.540995 
C 111.290971 156.121672 110.722168 155.886066 110.129156 155.886066 
C 109.536143 155.886066 108.96734 156.121672 108.548017 156.540995 
C 108.128694 156.960318 107.893088 157.529121 107.893088 158.122133 
C 107.893088 158.715146 108.128694 159.283949 108.548017 159.703272 
C 108.96734 160.122595 109.536143 160.358201 110.129156 160.358201 
z
" clip-path="url(#pc3636833f0)" style="stroke: #000000"/>
    <path d="M 93.918982 127.871694 
C 94.624197 127.871694 95.300622 127.59151 95.799284 127.092848 
C 96.297946 126.594186 96.57813 125.91776 96.57813 125.212546 
C 96.57813 124.507332 96.297946 123.830906 95.799284 123.332245 
C 95.300622 122.833583 94.624197 122.553398 93.918982 122.553398 
C 93.213768 122.553398 92.537343 122.833583 92.038681 123.332245 
C 91.540019 123.830906 91.259834 124.507332 91.259834 125.212546 
C 91.259834 125.91776 91.540019 126.594186 92.038681 127.092848 
C 92.537343 127.59151 93.213768 127.871694 93.918982 127.871694 
z
" clip-path="url(#pc3636833f0)" style="stroke: #000000"/>
    <path d="M 92.004333 117.027849 
C 92.709767 117.027849 93.386404 116.747577 93.885222 116.248759 
C 94.384039 115.749941 94.664311 115.073305 94.664311 114.36787 
C 94.664311 113.662436 94.384039 112.985799 93.885222 112.486981 
C 93.386404 111.988164 92.709767 111.707892 92.004333 111.707892 
C 91.298898 111.707892 90.622261 111.988164 90.123444 112.486981 
C 89.624626 112.985799 89.344354 113.662436 89.344354 114.36787 
C 89.344354 115.073305 89.624626 115.749941 90.123444 116.248759 
C 90.622261 116.747577 91.298898 117.027849 92.004333 117.027849 
z
" clip-path="url(#pc3636833f0)" style="stroke: #000000"/>
    <path d="M 89.02526 109.318761 
C 89.730694 109.318761 90.407331 109.038489 90.906149 108.539671 
C 91.404966 108.040854 91.685238 107.364217 91.685238 106.658782 
C 91.685238 105.953348 91.404966 105.276711 90.906149 104.777893 
C 90.407331 104.279076 89.730694 103.998804 89.02526 103.998804 
C 88.319825 103.998804 87.643189 104.279076 87.144371 104.777893 
C 86.645553 105.276711 86.365281 105.953348 86.365281 106.658782 
C 86.365281 107.364217 86.645553 108.040854 87.144371 108.539671 
C 87.643189 109.038489 88.319825 109.318761 89.02526 109.318761 
z
" clip-path="url(#pc3636833f0)" style="stroke: #000000"/>
    <path d="M 84.193357 92.355958 
C 84.786369 92.355958 85.355173 92.120352 85.774495 91.701029 
C 86.193818 91.281706 86.429425 90.712902 86.429425 90.11989 
C 86.429425 89.526878 86.193818 88.958074 85.774495 88.538751 
C 85.355173 88.119428 84.786369 87.883822 84.193357 87.883822 
C 83.600344 87.883822 83.031541 88.119428 82.612218 88.538751 
C 82.192895 88.958074 81.957289 89.526878 81.957289 90.11989 
C 81.957289 90.712902 82.192895 91.281706 82.612218 91.701029 
C 83.031541 92.120352 83.600344 92.355958 84.193357 92.355958 
z
" clip-path="url(#pc3636833f0)" style="stroke: #000000"/>
    <path d="M 84.127473 88.446361 
C 84.720485 88.446361 85.289289 88.210755 85.708612 87.791432 
C 86.127935 87.372109 86.363541 86.803306 86.363541 86.210293 
C 86.363541 85.617281 86.127935 85.048478 85.708612 84.629155 
C 85.289289 84.209832 84.720485 83.974226 84.127473 83.974226 
C 83.534461 83.974226 82.965657 84.209832 82.546334 84.629155 
C 82.127011 85.048478 81.891405 85.617281 81.891405 86.210293 
C 81.891405 86.803306 82.127011 87.372109 82.546334 87.791432 
C 82.965657 88.210755 83.534461 88.446361 84.127473 88.446361 
z
" clip-path="url(#pc3636833f0)" style="stroke: #000000"/>
    <path d="M 80.51767 80.588604 
C 81.222884 80.588604 81.89931 80.308419 82.397972 79.809758 
C 82.896634 79.311096 83.176818 78.63467 83.176818 77.929456 
C 83.176818 77.224242 82.896634 76.547816 82.397972 76.049154 
C 81.89931 75.550493 81.222884 75.270308 80.51767 75.270308 
C 79.812456 75.270308 79.13603 75.550493 78.637369 76.049154 
C 78.138707 76.547816 77.858522 77.224242 77.858522 77.929456 
C 77.858522 78.63467 78.138707 79.311096 78.637369 79.809758 
C 79.13603 80.308419 79.812456 80.588604 80.51767 80.588604 
z
" clip-path="url(#pc3636833f0)" style="stroke: #000000"/>
    <path d="M 64.99492 35.119183 
C 65.550874 35.119183 66.084131 34.898301 66.477249 34.505182 
C 66.870368 34.112064 67.09125 33.578806 67.09125 33.022853 
C 67.09125 32.4669 66.870368 31.933642 66.477249 31.540524 
C 66.084131 31.147406 65.550874 30.926523 64.99492 30.926523 
C 64.438967 30.926523 63.90571 31.147406 63.512591 31.540524 
C 63.119473 31.933642 62.898591 32.4669 62.898591 33.022853 
C 62.898591 33.578806 63.119473 34.112064 63.512591 34.505182 
C 63.90571 34.898301 64.438967 35.119183 64.99492 35.119183 
z
" clip-path="url(#pc3636833f0)" style="stroke: #000000"/>
    <path d="M 92.22125 154.579865 
C 92.897887 154.579865 93.546903 154.311034 94.025357 153.832579 
C 94.503812 153.354124 94.772643 152.705109 94.772643 152.028471 
C 94.772643 151.351834 94.503812 150.702818 94.025357 150.224364 
C 93.546903 149.745909 92.897887 149.477078 92.22125 149.477078 
C 91.544612 149.477078 90.895597 149.745909 90.417142 150.224364 
C 89.938687 150.702818 89.669857 151.351834 89.669857 152.028471 
C 89.669857 152.705109 89.938687 153.354124 90.417142 153.832579 
C 90.895597 154.311034 91.544612 154.579865 92.22125 154.579865 
z
" clip-path="url(#pc3636833f0)" style="stroke: #000000"/>
    <path d="M 86.862521 142.419474 
C 87.567956 142.419474 88.244592 142.139202 88.74341 141.640385 
C 89.242228 141.141567 89.5225 140.46493 89.5225 139.759496 
C 89.5225 139.054061 89.242228 138.377425 88.74341 137.878607 
C 88.244592 137.379789 87.567956 137.099517 86.862521 137.099517 
C 86.157087 137.099517 85.48045 137.379789 84.981632 137.878607 
C 84.482815 138.377425 84.202543 139.054061 84.202543 139.759496 
C 84.202543 140.46493 84.482815 141.141567 84.981632 141.640385 
C 85.48045 142.139202 86.157087 142.419474 86.862521 142.419474 
z
" clip-path="url(#pc3636833f0)" style="stroke: #000000"/>
    <path d="M 88.386931 131.088026 
C 88.948204 131.088026 89.486566 130.86503 89.883446 130.468149 
C 90.280327 130.071268 90.503323 129.532907 90.503323 128.971633 
C 90.503323 128.410359 90.280327 127.871998 89.883446 127.475118 
C 89.486566 127.078237 88.948204 126.855241 88.386931 126.855241 
C 87.825657 126.855241 87.287295 127.078237 86.890415 127.475118 
C 86.493534 127.871998 86.270538 128.410359 86.270538 128.971633 
C 86.270538 129.532907 86.493534 130.071268 86.890415 130.468149 
C 87.287295 130.86503 87.825657 131.088026 88.386931 131.088026 
z
" clip-path="url(#pc3636833f0)" style="stroke: #000000"/>
    <path d="M 82.414929 116.154984 
C 83.007941 116.154984 83.576745 115.919378 83.996068 115.500055 
C 84.415391 115.080732 84.650997 114.511928 84.650997 113.918916 
C 84.650997 113.325904 84.415391 112.7571 83.996068 112.337777 
C 83.576745 111.918454 83.007941 111.682848 82.414929 111.682848 
C 81.821917 111.682848 81.253113 111.918454 80.83379 112.337777 
C 80.414467 112.7571 80.178861 113.325904 80.178861 113.918916 
C 80.178861 114.511928 80.414467 115.080732 80.83379 115.500055 
C 81.253113 115.919378 81.821917 116.154984 82.414929 116.154984 
z
" clip-path="url(#pc3636833f0)" style="stroke: #000000"/>
    <path d="M 84.167353 110.883706 
C 84.760365 110.883706 85.329169 110.6481 85.748491 110.228777 
C 86.167814 109.809454 86.403421 109.24065 86.403421 108.647638 
C 86.403421 108.054626 86.167814 107.485822 85.748491 107.066499 
C 85.329169 106.647176 84.760365 106.41157 84.167353 106.41157 
C 83.57434 106.41157 83.005537 106.647176 82.586214 107.066499 
C 82.166891 107.485822 81.931285 108.054626 81.931285 108.647638 
C 81.931285 109.24065 82.166891 109.809454 82.586214 110.228777 
C 83.005537 110.6481 83.57434 110.883706 84.167353 110.883706 
z
" clip-path="url(#pc3636833f0)" style="stroke: #000000"/>
    <path d="M 75.362265 97.742143 
C 76.067479 97.742143 76.743905 97.461958 77.242567 96.963296 
C 77.741228 96.464635 78.021413 95.788209 78.021413 95.082995 
C 78.021413 94.377781 77.741228 93.701355 77.242567 93.202693 
C 76.743905 92.704031 76.067479 92.423847 75.362265 92.423847 
C 74.657051 92.423847 73.980625 92.704031 73.481964 93.202693 
C 72.983302 93.701355 72.703117 94.377781 72.703117 95.082995 
C 72.703117 95.788209 72.983302 96.464635 73.481964 96.963296 
C 73.980625 97.461958 74.657051 97.742143 75.362265 97.742143 
z
" clip-path="url(#pc3636833f0)" style="stroke: #000000"/>
    <path d="M 69.815831 97.655278 
C 70.408843 97.655278 70.977647 97.419672 71.39697 97.000349 
C 71.816293 96.581026 72.051899 96.012222 72.051899 95.41921 
C 72.051899 94.826198 71.816293 94.257394 71.39697 93.838071 
C 70.977647 93.418748 70.408843 93.183142 69.815831 93.183142 
C 69.222819 93.183142 68.654015 93.418748 68.234692 93.838071 
C 67.815369 94.257394 67.579763 94.826198 67.579763 95.41921 
C 67.579763 96.012222 67.815369 96.581026 68.234692 97.000349 
C 68.654015 97.419672 69.222819 97.655278 69.815831 97.655278 
z
" clip-path="url(#pc3636833f0)" style="stroke: #000000"/>
    <path d="M 66.49815 80.810948 
C 67.203364 80.810948 67.87979 80.530763 68.378451 80.032101 
C 68.877113 79.533439 69.157298 78.857014 69.157298 78.1518 
C 69.157298 77.446585 68.877113 76.77016 68.378451 76.271498 
C 67.87979 75.772836 67.203364 75.492652 66.49815 75.492652 
C 65.792936 75.492652 65.11651 75.772836 64.617848 76.271498 
C 64.119187 76.77016 63.839002 77.446585 63.839002 78.1518 
C 63.839002 78.857014 64.119187 79.533439 64.617848 80.032101 
C 65.11651 80.530763 65.792936 80.810948 66.49815 80.810948 
z
" clip-path="url(#pc3636833f0)" style="stroke: #000000"/>
    <path d="M 62.181963 59.221098 
C 62.818798 59.221098 63.429635 58.968081 63.879945 58.517771 
C 64.330254 58.067461 64.583271 57.456624 64.583271 56.81979 
C 64.583271 56.182955 64.330254 55.572118 63.879945 55.121808 
C 63.429635 54.671499 62.818798 54.418482 62.181963 54.418482 
C 61.545129 54.418482 60.934292 54.671499 60.483982 55.121808 
C 60.033672 55.572118 59.780655 56.182955 59.780655 56.81979 
C 59.780655 57.456624 60.033672 58.067461 60.483982 58.517771 
C 60.934292 58.968081 61.545129 59.221098 62.181963 59.221098 
z
" clip-path="url(#pc3636833f0)" style="stroke: #000000"/>
    <path d="M 87.733506 177.964868 
C 88.326147 177.964868 88.894595 177.72941 89.313656 177.310349 
C 89.732716 176.891288 89.968175 176.32284 89.968175 175.730199 
C 89.968175 175.137558 89.732716 174.56911 89.313656 174.15005 
C 88.894595 173.730989 88.326147 173.49553 87.733506 173.49553 
C 87.140865 173.49553 86.572417 173.730989 86.153356 174.15005 
C 85.734296 174.56911 85.498837 175.137558 85.498837 175.730199 
C 85.498837 176.32284 85.734296 176.891288 86.153356 177.310349 
C 86.572417 177.72941 87.140865 177.964868 87.733506 177.964868 
z
" clip-path="url(#pc3636833f0)" style="stroke: #000000"/>
    <path d="M 89.408198 166.585392 
C 90.00121 166.585392 90.570014 166.349786 90.989337 165.930463 
C 91.40866 165.51114 91.644266 164.942337 91.644266 164.349324 
C 91.644266 163.756312 91.40866 163.187509 90.989337 162.768186 
C 90.570014 162.348863 90.00121 162.113256 89.408198 162.113256 
C 88.815186 162.113256 88.246382 162.348863 87.827059 162.768186 
C 87.407736 163.187509 87.17213 163.756312 87.17213 164.349324 
C 87.17213 164.942337 87.407736 165.51114 87.827059 165.930463 
C 88.246382 166.349786 88.815186 166.585392 89.408198 166.585392 
z
" clip-path="url(#pc3636833f0)" style="stroke: #000000"/>
    <path d="M 83.437388 157.380864 
C 83.721248 157.380864 83.993519 157.268085 84.194238 157.067366 
C 84.394957 156.866648 84.507736 156.594376 84.507736 156.310516 
C 84.507736 156.026657 84.394957 155.754385 84.194238 155.553666 
C 83.993519 155.352947 83.721248 155.240169 83.437388 155.240169 
C 83.153529 155.240169 82.881257 155.352947 82.680538 155.553666 
C 82.479819 155.754385 82.367041 156.026657 82.367041 156.310516 
C 82.367041 156.594376 82.479819 156.866648 82.680538 157.067366 
C 82.881257 157.268085 83.153529 157.380864 83.437388 157.380864 
z
" clip-path="url(#pc3636833f0)" style="stroke: #000000"/>
    <path d="M 72.776108 123.807585 
C 73.386842 123.807585 73.972643 123.564938 74.404497 123.133084 
C 74.836351 122.70123 75.078998 122.115429 75.078998 121.504695 
C 75.078998 120.893962 74.836351 120.30816 74.404497 119.876306 
C 73.972643 119.444452 73.386842 119.201806 72.776108 119.201806 
C 72.165375 119.201806 71.579573 119.444452 71.147719 119.876306 
C 70.715866 120.30816 70.473219 120.893962 70.473219 121.504695 
C 70.473219 122.115429 70.715866 122.70123 71.147719 123.133084 
C 71.579573 123.564938 72.165375 123.807585 72.776108 123.807585 
z
" clip-path="url(#pc3636833f0)" style="stroke: #000000"/>
    <path d="M 66.527884 116.643727 
C 67.233318 116.643727 67.909955 116.363455 68.408773 115.864638 
C 68.90759 115.36582 69.187862 114.689183 69.187862 113.983749 
C 69.187862 113.278314 68.90759 112.601678 68.408773 112.10286 
C 67.909955 111.604042 67.233318 111.32377 66.527884 111.32377 
C 65.822449 111.32377 65.145812 111.604042 64.646995 112.10286 
C 64.148177 112.601678 63.867905 113.278314 63.867905 113.983749 
C 63.867905 114.689183 64.148177 115.36582 64.646995 115.864638 
C 65.145812 116.363455 65.822449 116.643727 66.527884 116.643727 
z
" clip-path="url(#pc3636833f0)" style="stroke: #000000"/>
    <path d="M 62.318491 97.254702 
C 63.023705 97.254702 63.700131 96.974517 64.198792 96.475855 
C 64.697454 95.977193 64.977639 95.300768 64.977639 94.595554 
C 64.977639 93.890339 64.697454 93.213914 64.198792 92.715252 
C 63.700131 92.21659 63.023705 91.936406 62.318491 91.936406 
C 61.613277 91.936406 60.936851 92.21659 60.438189 92.715252 
C 59.939528 93.213914 59.659343 93.890339 59.659343 94.595554 
C 59.659343 95.300768 59.939528 95.977193 60.438189 96.475855 
C 60.936851 96.974517 61.613277 97.254702 62.318491 97.254702 
z
" clip-path="url(#pc3636833f0)" style="stroke: #000000"/>
    <path d="M 49.576329 60.35394 
C 50.170081 60.35394 50.739595 60.11804 51.159441 59.698194 
C 51.579287 59.278348 51.815187 58.708835 51.815187 58.115083 
C 51.815187 57.521331 51.579287 56.951817 51.159441 56.531971 
C 50.739595 56.112125 50.170081 55.876225 49.576329 55.876225 
C 48.982577 55.876225 48.413064 56.112125 47.993218 56.531971 
C 47.573372 56.951817 47.337472 57.521331 47.337472 58.115083 
C 47.337472 58.708835 47.573372 59.278348 47.993218 59.698194 
C 48.413064 60.11804 48.982577 60.35394 49.576329 60.35394 
z
" clip-path="url(#pc3636833f0)" style="stroke: #000000"/>
    <path d="M 46.009707 57.2456 
C 46.602719 57.2456 47.171523 57.009994 47.590846 56.590671 
C 48.010169 56.171348 48.245775 55.602544 48.245775 55.009532 
C 48.245775 54.41652 48.010169 53.847716 47.590846 53.428393 
C 47.171523 53.00907 46.602719 52.773464 46.009707 52.773464 
C 45.416695 52.773464 44.847891 53.00907 44.428568 53.428393 
C 44.009245 53.847716 43.773639 54.41652 43.773639 55.009532 
C 43.773639 55.602544 44.009245 56.171348 44.428568 56.590671 
C 44.847891 57.009994 45.416695 57.2456 46.009707 57.2456 
z
" clip-path="url(#pc3636833f0)" style="stroke: #000000"/>
    <path d="M 66.676712 159.829621 
C 67.382147 159.829621 68.058783 159.549349 68.557601 159.050531 
C 69.056418 158.551714 69.33669 157.875077 69.33669 157.169643 
C 69.33669 156.464208 69.056418 155.787571 68.557601 155.288754 
C 68.058783 154.789936 67.382147 154.509664 66.676712 154.509664 
C 65.971277 154.509664 65.294641 154.789936 64.795823 155.288754 
C 64.297006 155.787571 64.016733 156.464208 64.016733 157.169643 
C 64.016733 157.875077 64.297006 158.551714 64.795823 159.050531 
C 65.294641 159.549349 65.971277 159.829621 66.676712 159.829621 
z
" clip-path="url(#pc3636833f0)" style="stroke: #000000"/>
    <path d="M 64.084373 141.166139 
C 64.642561 141.166139 65.177963 140.944368 65.572662 140.549669 
C 65.967361 140.15497 66.189132 139.619568 66.189132 139.061379 
C 66.189132 138.503191 65.967361 137.967789 65.572662 137.57309 
C 65.177963 137.178391 64.642561 136.95662 64.084373 136.95662 
C 63.526184 136.95662 62.990782 137.178391 62.596083 137.57309 
C 62.201384 137.967789 61.979613 138.503191 61.979613 139.061379 
C 61.979613 139.619568 62.201384 140.15497 62.596083 140.549669 
C 62.990782 140.944368 63.526184 141.166139 64.084373 141.166139 
z
" clip-path="url(#pc3636833f0)" style="stroke: #000000"/>
    <path d="M 63.635252 129.512535 
C 64.340686 129.512535 65.017323 129.232262 65.51614 128.733445 
C 66.014958 128.234627 66.29523 127.557991 66.29523 126.852556 
C 66.29523 126.147121 66.014958 125.470485 65.51614 124.971667 
C 65.017323 124.47285 64.340686 124.192577 63.635252 124.192577 
C 62.929817 124.192577 62.25318 124.47285 61.754363 124.971667 
C 61.255545 125.470485 60.975273 126.147121 60.975273 126.852556 
C 60.975273 127.557991 61.255545 128.234627 61.754363 128.733445 
C 62.25318 129.232262 62.929817 129.512535 63.635252 129.512535 
z
" clip-path="url(#pc3636833f0)" style="stroke: #000000"/>
    <path d="M 58.623635 120.170877 
C 59.32885 120.170877 60.005275 119.890692 60.503937 119.39203 
C 61.002599 118.893369 61.282783 118.216943 61.282783 117.511729 
C 61.282783 116.806515 61.002599 116.130089 60.503937 115.631427 
C 60.005275 115.132766 59.32885 114.852581 58.623635 114.852581 
C 57.918421 114.852581 57.241996 115.132766 56.743334 115.631427 
C 56.244672 116.130089 55.964488 116.806515 55.964488 117.511729 
C 55.964488 118.216943 56.244672 118.893369 56.743334 119.39203 
C 57.241996 119.890692 57.918421 120.170877 58.623635 120.170877 
z
" clip-path="url(#pc3636833f0)" style="stroke: #000000"/>
    <path d="M 55.171988 106.159022 
C 55.877423 106.159022 56.55406 105.87875 57.052877 105.379932 
C 57.551695 104.881114 57.831967 104.204478 57.831967 103.499043 
C 57.831967 102.793609 57.551695 102.116972 57.052877 101.618154 
C 56.55406 101.119337 55.877423 100.839065 55.171988 100.839065 
C 54.466554 100.839065 53.789917 101.119337 53.291099 101.618154 
C 52.792282 102.116972 52.51201 102.793609 52.51201 103.499043 
C 52.51201 104.204478 52.792282 104.881114 53.291099 105.379932 
C 53.789917 105.87875 54.466554 106.159022 55.171988 106.159022 
z
" clip-path="url(#pc3636833f0)" style="stroke: #000000"/>
    <path d="M 50.080964 93.882018 
C 50.786178 93.882018 51.462604 93.601833 51.961265 93.103172 
C 52.459927 92.60451 52.740112 91.928084 52.740112 91.22287 
C 52.740112 90.517656 52.459927 89.84123 51.961265 89.342568 
C 51.462604 88.843907 50.786178 88.563722 50.080964 88.563722 
C 49.37575 88.563722 48.699324 88.843907 48.200662 89.342568 
C 47.702001 89.84123 47.421816 90.517656 47.421816 91.22287 
C 47.421816 91.928084 47.702001 92.60451 48.200662 93.103172 
C 48.699324 93.601833 49.37575 93.882018 50.080964 93.882018 
z
" clip-path="url(#pc3636833f0)" style="stroke: #000000"/>
    <path d="M 48.135196 88.715548 
C 48.840411 88.715548 49.516836 88.435363 50.015498 87.936701 
C 50.51416 87.43804 50.794344 86.761614 50.794344 86.0564 
C 50.794344 85.351186 50.51416 84.67476 50.015498 84.176098 
C 49.516836 83.677437 48.840411 83.397252 48.135196 83.397252 
C 47.429982 83.397252 46.753557 83.677437 46.254895 84.176098 
C 45.756233 84.67476 45.476048 85.351186 45.476048 86.0564 
C 45.476048 86.761614 45.756233 87.43804 46.254895 87.936701 
C 46.753557 88.435363 47.429982 88.715548 48.135196 88.715548 
z
" clip-path="url(#pc3636833f0)" style="stroke: #000000"/>
    <path d="M 63.563569 170.930943 
C 64.156581 170.930943 64.725385 170.695336 65.144708 170.276014 
C 65.564031 169.856691 65.799637 169.287887 65.799637 168.694875 
C 65.799637 168.101863 65.564031 167.533059 65.144708 167.113736 
C 64.725385 166.694413 64.156581 166.458807 63.563569 166.458807 
C 62.970557 166.458807 62.401753 166.694413 61.98243 167.113736 
C 61.563107 167.533059 61.327501 168.101863 61.327501 168.694875 
C 61.327501 169.287887 61.563107 169.856691 61.98243 170.276014 
C 62.401753 170.695336 62.970557 170.930943 63.563569 170.930943 
z
" clip-path="url(#pc3636833f0)" style="stroke: #000000"/>
    <path d="M 58.792873 151.696039 
C 59.498087 151.696039 60.174513 151.415854 60.673174 150.917192 
C 61.171836 150.418531 61.452021 149.742105 61.452021 149.036891 
C 61.452021 148.331677 61.171836 147.655251 60.673174 147.156589 
C 60.174513 146.657927 59.498087 146.377743 58.792873 146.377743 
C 58.087658 146.377743 57.411233 146.657927 56.912571 147.156589 
C 56.413909 147.655251 56.133725 148.331677 56.133725 149.036891 
C 56.133725 149.742105 56.413909 150.418531 56.912571 150.917192 
C 57.411233 151.415854 58.087658 151.696039 58.792873 151.696039 
z
" clip-path="url(#pc3636833f0)" style="stroke: #000000"/>
    <path d="M 50.889073 144.606674 
C 51.594288 144.606674 52.270713 144.32649 52.769375 143.827828 
C 53.268037 143.329166 53.548221 142.652741 53.548221 141.947526 
C 53.548221 141.242312 53.268037 140.565886 52.769375 140.067225 
C 52.270713 139.568563 51.594288 139.288378 50.889073 139.288378 
C 50.183859 139.288378 49.507434 139.568563 49.008772 140.067225 
C 48.51011 140.565886 48.229925 141.242312 48.229925 141.947526 
C 48.229925 142.652741 48.51011 143.329166 49.008772 143.827828 
C 49.507434 144.32649 50.183859 144.606674 50.889073 144.606674 
z
" clip-path="url(#pc3636833f0)" style="stroke: #000000"/>
    <path d="M 47.313452 130.863467 
C 47.848964 130.863467 48.362614 130.650706 48.741278 130.272042 
C 49.119942 129.893378 49.332703 129.379727 49.332703 128.844216 
C 49.332703 128.308704 49.119942 127.795053 48.741278 127.416389 
C 48.362614 127.037725 47.848964 126.824964 47.313452 126.824964 
C 46.77794 126.824964 46.264289 127.037725 45.885625 127.416389 
C 45.506961 127.795053 45.2942 128.308704 45.2942 128.844216 
C 45.2942 129.379727 45.506961 129.893378 45.885625 130.272042 
C 46.264289 130.650706 46.77794 130.863467 47.313452 130.863467 
z
" clip-path="url(#pc3636833f0)" style="stroke: #000000"/>
    <path d="M 42.044926 113.26858 
C 42.750361 113.26858 43.426998 112.988307 43.925815 112.48949 
C 44.424633 111.990672 44.704905 111.314036 44.704905 110.608601 
C 44.704905 109.903166 44.424633 109.22653 43.925815 108.727712 
C 43.426998 108.228895 42.750361 107.948622 42.044926 107.948622 
C 41.339492 107.948622 40.662855 108.228895 40.164038 108.727712 
C 39.66522 109.22653 39.384948 109.903166 39.384948 110.608601 
C 39.384948 111.314036 39.66522 111.990672 40.164038 112.48949 
C 40.662855 112.988307 41.339492 113.26858 42.044926 113.26858 
z
" clip-path="url(#pc3636833f0)" style="stroke: #000000"/>
    <path d="M 39.865104 101.499955 
C 40.570319 101.499955 41.246744 101.21977 41.745406 100.721109 
C 42.244068 100.222447 42.524252 99.546021 42.524252 98.840807 
C 42.524252 98.135593 42.244068 97.459167 41.745406 96.960506 
C 41.246744 96.461844 40.570319 96.181659 39.865104 96.181659 
C 39.15989 96.181659 38.483465 96.461844 37.984803 96.960506 
C 37.486141 97.459167 37.205956 98.135593 37.205956 98.840807 
C 37.205956 99.546021 37.486141 100.222447 37.984803 100.721109 
C 38.483465 101.21977 39.15989 101.499955 39.865104 101.499955 
z
" clip-path="url(#pc3636833f0)" style="stroke: #000000"/>
    <path d="M 38.054526 93.913222 
C 38.585965 93.913222 39.095709 93.702079 39.471493 93.326294 
C 39.847278 92.95051 40.058421 92.440766 40.058421 91.909327 
C 40.058421 91.377888 39.847278 90.868143 39.471493 90.492359 
C 39.095709 90.116575 38.585965 89.905432 38.054526 89.905432 
C 37.523087 89.905432 37.013342 90.116575 36.637558 90.492359 
C 36.261774 90.868143 36.050631 91.377888 36.050631 91.909327 
C 36.050631 92.440766 36.261774 92.95051 36.637558 93.326294 
C 37.013342 93.702079 37.523087 93.913222 38.054526 93.913222 
z
" clip-path="url(#pc3636833f0)" style="stroke: #000000"/>
    <path d="M 50.935541 152.649238 
C 51.204794 152.649238 51.463056 152.542263 51.653446 152.351872 
C 51.843837 152.161481 51.950813 151.90322 51.950813 151.633967 
C 51.950813 151.364713 51.843837 151.106452 51.653446 150.916061 
C 51.463056 150.72567 51.204794 150.618695 50.935541 150.618695 
C 50.666288 150.618695 50.408026 150.72567 50.217636 150.916061 
C 50.027245 151.106452 49.920269 151.364713 49.920269 151.633967 
C 49.920269 151.90322 50.027245 152.161481 50.217636 152.351872 
C 50.408026 152.542263 50.666288 152.649238 50.935541 152.649238 
z
" clip-path="url(#pc3636833f0)" style="stroke: #000000"/>
    <path d="M 37.898601 126.389974 
C 38.604035 126.389974 39.280672 126.109702 39.779489 125.610885 
C 40.278307 125.112067 40.558579 124.43543 40.558579 123.729996 
C 40.558579 123.024561 40.278307 122.347924 39.779489 121.849107 
C 39.280672 121.350289 38.604035 121.070017 37.898601 121.070017 
C 37.193166 121.070017 36.516529 121.350289 36.017712 121.849107 
C 35.518894 122.347924 35.238622 123.024561 35.238622 123.729996 
C 35.238622 124.43543 35.518894 125.112067 36.017712 125.610885 
C 36.516529 126.109702 37.193166 126.389974 37.898601 126.389974 
z
" clip-path="url(#pc3636833f0)" style="stroke: #000000"/>
    <path d="M 32.944619 113.759293 
C 33.650053 113.759293 34.32669 113.479021 34.825508 112.980204 
C 35.324325 112.481386 35.604597 111.804749 35.604597 111.099315 
C 35.604597 110.39388 35.324325 109.717243 34.825508 109.218426 
C 34.32669 108.719608 33.650053 108.439336 32.944619 108.439336 
C 32.239184 108.439336 31.562548 108.719608 31.06373 109.218426 
C 30.564912 109.717243 30.28464 110.39388 30.28464 111.099315 
C 30.28464 111.804749 30.564912 112.481386 31.06373 112.980204 
C 31.562548 113.479021 32.239184 113.759293 32.944619 113.759293 
z
" clip-path="url(#pc3636833f0)" style="stroke: #000000"/>
    <path d="M 40.40762 170.270535 
C 41.000632 170.270535 41.569436 170.034929 41.988759 169.615606 
C 42.408082 169.196283 42.643688 168.627479 42.643688 168.034467 
C 42.643688 167.441455 42.408082 166.872651 41.988759 166.453328 
C 41.569436 166.034005 41.000632 165.798399 40.40762 165.798399 
C 39.814608 165.798399 39.245804 166.034005 38.826481 166.453328 
C 38.407158 166.872651 38.171552 167.441455 38.171552 168.034467 
C 38.171552 168.627479 38.407158 169.196283 38.826481 169.615606 
C 39.245804 170.034929 39.814608 170.270535 40.40762 170.270535 
z
" clip-path="url(#pc3636833f0)" style="stroke: #000000"/>
    <path d="M 28.883332 141.689311 
C 29.482187 141.689311 30.056596 141.451383 30.48005 141.027928 
C 30.903505 140.604473 31.141433 140.030065 31.141433 139.43121 
C 31.141433 138.832354 30.903505 138.257946 30.48005 137.834491 
C 30.056596 137.411037 29.482187 137.173109 28.883332 137.173109 
C 28.284476 137.173109 27.710068 137.411037 27.286613 137.834491 
C 26.863159 138.257946 26.625231 138.832354 26.625231 139.43121 
C 26.625231 140.030065 26.863159 140.604473 27.286613 141.027928 
C 27.710068 141.451383 28.284476 141.689311 28.883332 141.689311 
z
" clip-path="url(#pc3636833f0)" style="stroke: #000000"/>
    <path d="M 27.575633 130.413284 
C 28.207931 130.413284 28.814416 130.16207 29.261517 129.714969 
C 29.708619 129.267867 29.959833 128.661382 29.959833 128.029085 
C 29.959833 127.396788 29.708619 126.790303 29.261517 126.343201 
C 28.814416 125.896099 28.207931 125.644885 27.575633 125.644885 
C 26.943336 125.644885 26.336851 125.896099 25.88975 126.343201 
C 25.442648 126.790303 25.191434 127.396788 25.191434 128.029085 
C 25.191434 128.661382 25.442648 129.267867 25.88975 129.714969 
C 26.336851 130.16207 26.943336 130.413284 27.575633 130.413284 
z
" clip-path="url(#pc3636833f0)" style="stroke: #000000"/>
   </g>
   <g id="matplotlib.axis_1">
    <g id="xtick_1">
     <g id="line2d_1">
      <defs>
       <path id="mb2e833793d" d="M 0 0 
L 0 3.5 
" style="stroke: #000000; stroke-width: 0.8"/>
      </defs>
      <g>
       <use xlink:href="#mb2e833793d" x="18" y="189" style="stroke: #000000; stroke-width: 0.8"/>
      </g>
     </g>
     <g id="text_1">
      <!-- −10 -->
      <g transform="translate(7.447656 203.598437)scale(0.1 -0.1)">
       <defs>
        <path id="DejaVuSans-2212" d="M 678 2272 
L 4684 2272 
L 4684 1741 
L 678 1741 
L 678 2272 
z
" transform="scale(0.015625)"/>
        <path id="DejaVuSans-31" d="M 794 531 
L 1825 531 
L 1825 4091 
L 703 3866 
L 703 4441 
L 1819 4666 
L 2450 4666 
L 2450 531 
L 3481 531 
L 3481 0 
L 794 0 
L 794 531 
z
" transform="scale(0.015625)"/>
        <path id="DejaVuSans-30" d="M 2034 4250 
Q 1547 4250 1301 3770 
Q 1056 3291 1056 2328 
Q 1056 1369 1301 889 
Q 1547 409 2034 409 
Q 2525 409 2770 889 
Q 3016 1369 3016 2328 
Q 3016 3291 2770 3770 
Q 2525 4250 2034 4250 
z
M 2034 4750 
Q 2819 4750 3233 4129 
Q 3647 3509 3647 2328 
Q 3647 1150 3233 529 
Q 2819 -91 2034 -91 
Q 1250 -91 836 529 
Q 422 1150 422 2328 
Q 422 3509 836 4129 
Q 1250 4750 2034 4750 
z
" transform="scale(0.015625)"/>
       </defs>
       <use xlink:href="#DejaVuSans-2212"/>
       <use xlink:href="#DejaVuSans-31" x="83.789062"/>
       <use xlink:href="#DejaVuSans-30" x="147.412109"/>
      </g>
     </g>
    </g>
    <g id="xtick_2">
     <g id="line2d_2">
      <g>
       <use xlink:href="#mb2e833793d" x="73.8" y="189" style="stroke: #000000; stroke-width: 0.8"/>
      </g>
     </g>
     <g id="text_2">
      <!-- 0 -->
      <g transform="translate(70.61875 203.598437)scale(0.1 -0.1)">
       <use xlink:href="#DejaVuSans-30"/>
      </g>
     </g>
    </g>
    <g id="xtick_3">
     <g id="line2d_3">
      <g>
       <use xlink:href="#mb2e833793d" x="129.6" y="189" style="stroke: #000000; stroke-width: 0.8"/>
      </g>
     </g>
     <g id="text_3">
      <!-- 10 -->
      <g transform="translate(123.2375 203.598437)scale(0.1 -0.1)">
       <use xlink:href="#DejaVuSans-31"/>
       <use xlink:href="#DejaVuSans-30" x="63.623047"/>
      </g>
     </g>
    </g>
   </g>
   <g id="matplotlib.axis_2">
    <g id="ytick_1">
     <g id="line2d_4">
      <defs>
       <path id="maa1c53c41d" d="M 0 0 
L -3.5 0 
" style="stroke: #000000; stroke-width: 0.8"/>
      </defs>
      <g>
       <use xlink:href="#maa1c53c41d" x="18" y="189" style="stroke: #000000; stroke-width: 0.8"/>
      </g>
     </g>
     <g id="text_4">
      <!-- −15 -->
      <g transform="translate(-10.104688 192.799219)scale(0.1 -0.1)">
       <defs>
        <path id="DejaVuSans-35" d="M 691 4666 
L 3169 4666 
L 3169 4134 
L 1269 4134 
L 1269 2991 
Q 1406 3038 1543 3061 
Q 1681 3084 1819 3084 
Q 2600 3084 3056 2656 
Q 3513 2228 3513 1497 
Q 3513 744 3044 326 
Q 2575 -91 1722 -91 
Q 1428 -91 1123 -41 
Q 819 9 494 109 
L 494 744 
Q 775 591 1075 516 
Q 1375 441 1709 441 
Q 2250 441 2565 725 
Q 2881 1009 2881 1497 
Q 2881 1984 2565 2268 
Q 2250 2553 1709 2553 
Q 1456 2553 1204 2497 
Q 953 2441 691 2322 
L 691 4666 
z
" transform="scale(0.015625)"/>
       </defs>
       <use xlink:href="#DejaVuSans-2212"/>
       <use xlink:href="#DejaVuSans-31" x="83.789062"/>
       <use xlink:href="#DejaVuSans-35" x="147.412109"/>
      </g>
     </g>
    </g>
    <g id="ytick_2">
     <g id="line2d_5">
      <g>
       <use xlink:href="#maa1c53c41d" x="18" y="161.82" style="stroke: #000000; stroke-width: 0.8"/>
      </g>
     </g>
     <g id="text_5">
      <!-- −10 -->
      <g transform="translate(-10.104688 165.619219)scale(0.1 -0.1)">
       <use xlink:href="#DejaVuSans-2212"/>
       <use xlink:href="#DejaVuSans-31" x="83.789062"/>
       <use xlink:href="#DejaVuSans-30" x="147.412109"/>
      </g>
     </g>
    </g>
    <g id="ytick_3">
     <g id="line2d_6">
      <g>
       <use xlink:href="#maa1c53c41d" x="18" y="134.64" style="stroke: #000000; stroke-width: 0.8"/>
      </g>
     </g>
     <g id="text_6">
      <!-- −5 -->
      <g transform="translate(-3.742188 138.439219)scale(0.1 -0.1)">
       <use xlink:href="#DejaVuSans-2212"/>
       <use xlink:href="#DejaVuSans-35" x="83.789062"/>
      </g>
     </g>
    </g>
    <g id="ytick_4">
     <g id="line2d_7">
      <g>
       <use xlink:href="#maa1c53c41d" x="18" y="107.46" style="stroke: #000000; stroke-width: 0.8"/>
      </g>
     </g>
     <g id="text_7">
      <!-- 0 -->
      <g transform="translate(4.6375 111.259219)scale(0.1 -0.1)">
       <use xlink:href="#DejaVuSans-30"/>
      </g>
     </g>
    </g>
    <g id="ytick_5">
     <g id="line2d_8">
      <g>
       <use xlink:href="#maa1c53c41d" x="18" y="80.28" style="stroke: #000000; stroke-width: 0.8"/>
      </g>
     </g>
     <g id="text_8">
      <!-- 5 -->
      <g transform="translate(4.6375 84.079219)scale(0.1 -0.1)">
       <use xlink:href="#DejaVuSans-35"/>
      </g>
     </g>
    </g>
    <g id="ytick_6">
     <g id="line2d_9">
      <g>
       <use xlink:href="#maa1c53c41d" x="18" y="53.1" style="stroke: #000000; stroke-width: 0.8"/>
      </g>
     </g>
     <g id="text_9">
      <!-- 10 -->
      <g transform="translate(-1.725 56.899219)scale(0.1 -0.1)">
       <use xlink:href="#DejaVuSans-31"/>
       <use xlink:href="#DejaVuSans-30" x="63.623047"/>
      </g>
     </g>
    </g>
    <g id="ytick_7">
     <g id="line2d_10">
      <g>
       <use xlink:href="#maa1c53c41d" x="18" y="25.92" style="stroke: #000000; stroke-width: 0.8"/>
      </g>
     </g>
     <g id="text_10">
      <!-- 15 -->
      <g transform="translate(-1.725 29.719219)scale(0.1 -0.1)">
       <use xlink:href="#DejaVuSans-31"/>
       <use xlink:href="#DejaVuSans-35" x="63.623047"/>
      </g>
     </g>
    </g>
   </g>
   <g id="patch_3">
    <path d="M 18 189 
L 18 25.92 
" style="fill: none; stroke: #000000; stroke-width: 0.8; stroke-linejoin: miter; stroke-linecap: square"/>
   </g>
   <g id="patch_4">
    <path d="M 129.6 189 
L 129.6 25.92 
" style="fill: none; stroke: #000000; stroke-width: 0.8; stroke-linejoin: miter; stroke-linecap: square"/>
   </g>
   <g id="patch_5">
    <path d="M 18 189 
L 129.6 189 
" style="fill: none; stroke: #000000; stroke-width: 0.8; stroke-linejoin: miter; stroke-linecap: square"/>
   </g>
   <g id="patch_6">
    <path d="M 18 25.92 
L 129.6 25.92 
" style="fill: none; stroke: #000000; stroke-width: 0.8; stroke-linejoin: miter; stroke-linecap: square"/>
   </g>
  </g>
 </g>
 <defs>
  <clipPath id="pc3636833f0">
   <rect x="18" y="25.92" width="111.6" height="163.08"/>
  </clipPath>
 </defs>
</svg>
