<?xml version="1.0" encoding="utf-8" standalone="no"?>
<!DOCTYPE svg PUBLIC "-//W3C//DTD SVG 1.1//EN"
  "http://www.w3.org/Graphics/SVG/1.1/DTD/svg11.dtd">
<svg xmlns:xlink="http://www.w3.org/1999/xlink" width="144pt" height="216pt" viewBox="0 0 144 216" xmlns="http://www.w3.org/2000/svg" version="1.1">
 <metadata>
  <rdf:RDF xmlns:dc="http://purl.org/dc/elements/1.1/" xmlns:cc="http://creativecommons.org/ns#" xmlns:rdf="http://www.w3.org/1999/02/22-rdf-syntax-ns#">
   <cc:Work>
    <dc:type rdf:resource="http://purl.org/dc/dcmitype/StillImage"/>
    <dc:date>2022-06-28T09:24:50.691996</dc:date>
    <dc:format>image/svg+xml</dc:format>
    <dc:creator>
     <cc:Agent>
      <dc:title>Matplotlib v3.5.1, https://matplotlib.org/</dc:title>
     </cc:Agent>
    </dc:creator>
   </cc:Work>
  </rdf:RDF>
 </metadata>
 <defs>
  <style type="text/css">*{stroke-linejoin: round; stroke-linecap: butt}</style>
 </defs>
 <g id="figure_1">
  <g id="patch_1">
   <path d="M 0 216 
L 144 216 
L 144 0 
L 0 0 
L 0 216 
z
" style="fill: none"/>
  </g>
  <g id="axes_1">
   <g id="patch_2">
    <path d="M 18 189 
L 129.6 189 
L 129.6 25.92 
L 18 25.92 
z
" style="fill: #ffffff"/>
   </g>
   <g id="PathCollection_1">
    <defs>
     <path id="m48f94d13f6" d="M 0 2.738613 
C 0.726289 2.738613 1.422928 2.450055 1.936492 1.936492 
C 2.450055 1.422928 2.738613 0.726289 2.738613 0 
C 2.738613 -0.726289 2.450055 -1.422928 1.936492 -1.936492 
C 1.422928 -2.450055 0.726289 -2.738613 0 -2.738613 
C -0.726289 -2.738613 -1.422928 -2.450055 -1.936492 -1.936492 
C -2.450055 -1.422928 -2.738613 -0.726289 -2.738613 0 
C -2.738613 0.726289 -2.450055 1.422928 -1.936492 1.936492 
C -1.422928 2.450055 -0.726289 2.738613 0 2.738613 
z
" style="stroke: #ff0000; stroke-width: 1.75"/>
    </defs>
    <g clip-path="url(#pf3f5ca688a)">
     <use xlink:href="#m48f94d13f6" x="80.775" y="83.92143" style="fill: #ff0000; stroke: #ff0000; stroke-width: 1.75"/>
     <use xlink:href="#m48f94d13f6" x="59.85" y="95.690715" style="fill: #ff0000; stroke: #ff0000; stroke-width: 1.75"/>
     <use xlink:href="#m48f94d13f6" x="66.825" y="107.46" style="fill: #ff0000; stroke: #ff0000; stroke-width: 1.75"/>
     <use xlink:href="#m48f94d13f6" x="80.775" y="107.46" style="fill: #ff0000; stroke: #ff0000; stroke-width: 1.75"/>
     <use xlink:href="#m48f94d13f6" x="94.725" y="107.46" style="fill: #ff0000; stroke: #ff0000; stroke-width: 1.75"/>
     <use xlink:href="#m48f94d13f6" x="59.85" y="119.229285" style="fill: #ff0000; stroke: #ff0000; stroke-width: 1.75"/>
     <use xlink:href="#m48f94d13f6" x="80.775" y="130.99857" style="fill: #ff0000; stroke: #ff0000; stroke-width: 1.75"/>
    </g>
   </g>
   <g id="PathCollection_2">
    <defs>
     <path id="C0_0_8a321146d2" d="M 0 2.738613 
C 0.726289 2.738613 1.422928 2.450055 1.936492 1.936492 
C 2.450055 1.422928 2.738613 0.726289 2.738613 -0 
C 2.738613 -0.726289 2.450055 -1.422928 1.936492 -1.936492 
C 1.422928 -2.450055 0.726289 -2.738613 0 -2.738613 
C -0.726289 -2.738613 -1.422928 -2.450055 -1.936492 -1.936492 
C -2.450055 -1.422928 -2.738613 -0.726289 -2.738613 0 
C -2.738613 0.726289 -2.450055 1.422928 -1.936492 1.936492 
C -1.422928 2.450055 -0.726289 2.738613 0 2.738613 
z
"/>
    </defs>
    <g clip-path="url(#pf3f5ca688a)">
     <use xlink:href="#C0_0_8a321146d2" x="66.825" y="83.92143" style="fill: none; stroke: #ff0000; stroke-width: 1.75"/>
    </g>
    <g clip-path="url(#pf3f5ca688a)">
     <use xlink:href="#C0_0_8a321146d2" x="73.8" y="95.690715" style="fill: none; stroke: #ff0000; stroke-width: 1.75"/>
    </g>
    <g clip-path="url(#pf3f5ca688a)">
     <use xlink:href="#C0_0_8a321146d2" x="87.75" y="95.690715" style="fill: none; stroke: #ff0000; stroke-width: 1.75"/>
    </g>
    <g clip-path="url(#pf3f5ca688a)">
     <use xlink:href="#C0_0_8a321146d2" x="52.875" y="107.46" style="fill: none; stroke: #ff0000; stroke-width: 1.75"/>
    </g>
    <g clip-path="url(#pf3f5ca688a)">
     <use xlink:href="#C0_0_8a321146d2" x="73.8" y="119.229285" style="fill: none; stroke: #ff0000; stroke-width: 1.75"/>
    </g>
    <g clip-path="url(#pf3f5ca688a)">
     <use xlink:href="#C0_0_8a321146d2" x="87.75" y="119.229285" style="fill: none; stroke: #ff0000; stroke-width: 1.75"/>
    </g>
    <g clip-path="url(#pf3f5ca688a)">
     <use xlink:href="#C0_0_8a321146d2" x="66.825" y="130.99857" style="fill: none; stroke: #ff0000; stroke-width: 1.75"/>
    </g>
   </g>
   <g id="PathCollection_3">
    <path d="M 97.43029 109.854289 
C 98.038291 109.854289 98.621471 109.612728 99.051393 109.182806 
C 99.481314 108.752885 99.722875 108.169704 99.722875 107.561704 
C 99.722875 106.953703 99.481314 106.370522 99.051393 105.940601 
C 98.621471 105.510679 98.038291 105.269118 97.43029 105.269118 
C 96.822289 105.269118 96.239108 105.510679 95.809187 105.940601 
C 95.379265 106.370522 95.137704 106.953703 95.137704 107.561704 
C 95.137704 108.169704 95.379265 108.752885 95.809187 109.182806 
C 96.239108 109.612728 96.822289 109.854289 97.43029 109.854289 
z
" clip-path="url(#pf3f5ca688a)" style="stroke: #000000"/>
    <path d="M 85.073589 107.020722 
C 85.486475 107.020722 85.882506 106.85668 86.174461 106.564725 
C 86.466416 106.27277 86.630457 105.876739 86.630457 105.463853 
C 86.630457 105.050966 86.466416 104.654935 86.174461 104.362981 
C 85.882506 104.071026 85.486475 103.906984 85.073589 103.906984 
C 84.660702 103.906984 84.264671 104.071026 83.972716 104.362981 
C 83.680762 104.654935 83.51672 105.050966 83.51672 105.463853 
C 83.51672 105.876739 83.680762 106.27277 83.972716 106.564725 
C 84.264671 106.85668 84.660702 107.020722 85.073589 107.020722 
z
" clip-path="url(#pf3f5ca688a)" style="stroke: #000000"/>
    <path d="M 88.826632 100.224602 
C 89.282754 100.224602 89.720255 100.043383 90.042782 99.720856 
C 90.365308 99.39833 90.546527 98.960828 90.546527 98.504707 
C 90.546527 98.048585 90.365308 97.611084 90.042782 97.288557 
C 89.720255 96.966031 89.282754 96.784812 88.826632 96.784812 
C 88.370511 96.784812 87.933009 96.966031 87.610482 97.288557 
C 87.287956 97.611084 87.106737 98.048585 87.106737 98.504707 
C 87.106737 98.960828 87.287956 99.39833 87.610482 99.720856 
C 87.933009 100.043383 88.370511 100.224602 88.826632 100.224602 
z
" clip-path="url(#pf3f5ca688a)" style="stroke: #000000"/>
    <path d="M 83.208467 87.224093 
C 83.821897 87.224093 84.410285 86.980374 84.844045 86.546614 
C 85.277806 86.112853 85.521524 85.524465 85.521524 84.911035 
C 85.521524 84.297606 85.277806 83.709218 84.844045 83.275457 
C 84.410285 82.841697 83.821897 82.597978 83.208467 82.597978 
C 82.595037 82.597978 82.006649 82.841697 81.572888 83.275457 
C 81.139128 83.709218 80.89541 84.297606 80.89541 84.911035 
C 80.89541 85.524465 81.139128 86.112853 81.572888 86.546614 
C 82.006649 86.980374 82.595037 87.224093 83.208467 87.224093 
z
" clip-path="url(#pf3f5ca688a)" style="stroke: #000000"/>
    <path d="M 80.460069 80.46285 
C 80.667602 80.46285 80.866662 80.380396 81.01341 80.233648 
C 81.160158 80.086901 81.242611 79.88784 81.242611 79.680307 
C 81.242611 79.472775 81.160158 79.273714 81.01341 79.126967 
C 80.866662 78.980219 80.667602 78.897765 80.460069 78.897765 
C 80.252536 78.897765 80.053476 78.980219 79.906728 79.126967 
C 79.75998 79.273714 79.677527 79.472775 79.677527 79.680307 
C 79.677527 79.88784 79.75998 80.086901 79.906728 80.233648 
C 80.053476 80.380396 80.252536 80.46285 80.460069 80.46285 
z
" clip-path="url(#pf3f5ca688a)" style="stroke: #000000"/>
    <path d="M 86.8111 120.122221 
C 87.333017 120.122221 87.833627 119.914862 88.202678 119.545811 
C 88.571729 119.17676 88.779089 118.676149 88.779089 118.154232 
C 88.779089 117.632315 88.571729 117.131704 88.202678 116.762653 
C 87.833627 116.393602 87.333017 116.186242 86.8111 116.186242 
C 86.289183 116.186242 85.788572 116.393602 85.419521 116.762653 
C 85.05047 117.131704 84.84311 117.632315 84.84311 118.154232 
C 84.84311 118.676149 85.05047 119.17676 85.419521 119.545811 
C 85.788572 119.914862 86.289183 120.122221 86.8111 120.122221 
z
" clip-path="url(#pf3f5ca688a)" style="stroke: #000000"/>
    <path d="M 82.17071 108.122005 
C 82.691536 108.122005 83.191101 107.915079 83.55938 107.546799 
C 83.92766 107.178519 84.134587 106.678955 84.134587 106.158128 
C 84.134587 105.637302 83.92766 105.137738 83.55938 104.769458 
C 83.191101 104.401178 82.691536 104.194252 82.17071 104.194252 
C 81.649884 104.194252 81.150319 104.401178 80.782039 104.769458 
C 80.41376 105.137738 80.206833 105.637302 80.206833 106.158128 
C 80.206833 106.678955 80.41376 107.178519 80.782039 107.546799 
C 81.150319 107.915079 81.649884 108.122005 82.17071 108.122005 
z
" clip-path="url(#pf3f5ca688a)" style="stroke: #000000"/>
    <path d="M 77.89278 96.009276 
C 78.091065 96.009276 78.281256 95.930496 78.421465 95.790287 
C 78.561674 95.650078 78.640454 95.459887 78.640454 95.261602 
C 78.640454 95.063316 78.561674 94.873125 78.421465 94.732916 
C 78.281256 94.592707 78.091065 94.513927 77.89278 94.513927 
C 77.694494 94.513927 77.504303 94.592707 77.364094 94.732916 
C 77.223885 94.873125 77.145105 95.063316 77.145105 95.261602 
C 77.145105 95.459887 77.223885 95.650078 77.364094 95.790287 
C 77.504303 95.930496 77.694494 96.009276 77.89278 96.009276 
z
" clip-path="url(#pf3f5ca688a)" style="stroke: #000000"/>
    <path d="M 79.451148 130.036039 
C 79.97252 130.036039 80.472609 129.828896 80.841275 129.46023 
C 81.209941 129.091564 81.417084 128.591475 81.417084 128.070103 
C 81.417084 127.54873 81.209941 127.048642 80.841275 126.679976 
C 80.472609 126.31131 79.97252 126.104166 79.451148 126.104166 
C 78.929775 126.104166 78.429687 126.31131 78.061021 126.679976 
C 77.692355 127.048642 77.485211 127.54873 77.485211 128.070103 
C 77.485211 128.591475 77.692355 129.091564 78.061021 129.46023 
C 78.429687 129.828896 78.929775 130.036039 79.451148 130.036039 
z
" clip-path="url(#pf3f5ca688a)" style="stroke: #000000"/>
    <path d="M 75.8959 107.658037 
C 76.028502 107.658037 76.15569 107.605353 76.249454 107.51159 
C 76.343217 107.417827 76.3959 107.290638 76.3959 107.158037 
C 76.3959 107.025435 76.343217 106.898247 76.249454 106.804483 
C 76.15569 106.71072 76.028502 106.658037 75.8959 106.658037 
C 75.763299 106.658037 75.63611 106.71072 75.542347 106.804483 
C 75.448583 106.898247 75.3959 107.025435 75.3959 107.158037 
C 75.3959 107.290638 75.448583 107.417827 75.542347 107.51159 
C 75.63611 107.605353 75.763299 107.658037 75.8959 107.658037 
z
" clip-path="url(#pf3f5ca688a)" style="stroke: #000000"/>
    <path d="M 72.54799 95.930018 
C 73.075788 95.930018 73.582039 95.720322 73.955248 95.347113 
C 74.328456 94.973905 74.538153 94.467654 74.538153 93.939856 
C 74.538153 93.412059 74.328456 92.905808 73.955248 92.532599 
C 73.582039 92.15939 73.075788 91.949694 72.54799 91.949694 
C 72.020193 91.949694 71.513942 92.15939 71.140733 92.532599 
C 70.767524 92.905808 70.557828 93.412059 70.557828 93.939856 
C 70.557828 94.467654 70.767524 94.973905 71.140733 95.347113 
C 71.513942 95.720322 72.020193 95.930018 72.54799 95.930018 
z
" clip-path="url(#pf3f5ca688a)" style="stroke: #000000"/>
    <path d="M 68.884622 86.783272 
C 69.407081 86.783272 69.908213 86.575697 70.277648 86.206262 
C 70.647083 85.836827 70.854658 85.335696 70.854658 84.813236 
C 70.854658 84.290776 70.647083 83.789645 70.277648 83.42021 
C 69.908213 83.050775 69.407081 82.8432 68.884622 82.8432 
C 68.362162 82.8432 67.86103 83.050775 67.491595 83.42021 
C 67.122161 83.789645 66.914585 84.290776 66.914585 84.813236 
C 66.914585 85.335696 67.122161 85.836827 67.491595 86.206262 
C 67.86103 86.575697 68.362162 86.783272 68.884622 86.783272 
z
" clip-path="url(#pf3f5ca688a)" style="stroke: #000000"/>
    <path d="M 76.877193 130.694547 
C 77.118682 130.694547 77.350312 130.598602 77.521071 130.427844 
C 77.691829 130.257086 77.787773 130.025455 77.787773 129.783967 
C 77.787773 129.542478 77.691829 129.310848 77.521071 129.140089 
C 77.350312 128.969331 77.118682 128.873387 76.877193 128.873387 
C 76.635705 128.873387 76.404074 128.969331 76.233316 129.140089 
C 76.062558 129.310848 75.966613 129.542478 75.966613 129.783967 
C 75.966613 130.025455 76.062558 130.257086 76.233316 130.427844 
C 76.404074 130.598602 76.635705 130.694547 76.877193 130.694547 
z
" clip-path="url(#pf3f5ca688a)" style="stroke: #000000"/>
    <path d="M 74.837685 122.815031 
C 75.281949 122.815031 75.708077 122.638523 76.022219 122.324381 
C 76.336361 122.010239 76.512869 121.58411 76.512869 121.139846 
C 76.512869 120.695582 76.336361 120.269454 76.022219 119.955312 
C 75.708077 119.64117 75.281949 119.464662 74.837685 119.464662 
C 74.39342 119.464662 73.967292 119.64117 73.65315 119.955312 
C 73.339008 120.269454 73.1625 120.695582 73.1625 121.139846 
C 73.1625 121.58411 73.339008 122.010239 73.65315 122.324381 
C 73.967292 122.638523 74.39342 122.815031 74.837685 122.815031 
z
" clip-path="url(#pf3f5ca688a)" style="stroke: #000000"/>
    <path d="M 71.823752 120.497755 
C 72.354675 120.497755 72.863925 120.286817 73.239345 119.911397 
C 73.614764 119.535977 73.825702 119.026728 73.825702 118.495804 
C 73.825702 117.964881 73.614764 117.455631 73.239345 117.080212 
C 72.863925 116.704792 72.354675 116.493854 71.823752 116.493854 
C 71.292828 116.493854 70.783579 116.704792 70.408159 117.080212 
C 70.03274 117.455631 69.821802 117.964881 69.821802 118.495804 
C 69.821802 119.026728 70.03274 119.535977 70.408159 119.911397 
C 70.783579 120.286817 71.292828 120.497755 71.823752 120.497755 
z
" clip-path="url(#pf3f5ca688a)" style="stroke: #000000"/>
    <path d="M 67.938949 107.799791 
C 68.463028 107.799791 68.965711 107.591573 69.336291 107.220993 
C 69.70687 106.850414 69.915088 106.34773 69.915088 105.823652 
C 69.915088 105.299574 69.70687 104.79689 69.336291 104.426311 
C 68.965711 104.055732 68.463028 103.847513 67.938949 103.847513 
C 67.414871 103.847513 66.912188 104.055732 66.541608 104.426311 
C 66.171029 104.79689 65.962811 105.299574 65.962811 105.823652 
C 65.962811 106.34773 66.171029 106.850414 66.541608 107.220993 
C 66.912188 107.591573 67.414871 107.799791 67.938949 107.799791 
z
" clip-path="url(#pf3f5ca688a)" style="stroke: #000000"/>
    <path d="M 62.659 95.291378 
C 63.12536 95.291378 63.572682 95.106091 63.902448 94.776325 
C 64.232215 94.446558 64.417502 93.999236 64.417502 93.532876 
C 64.417502 93.066516 64.232215 92.619194 63.902448 92.289428 
C 63.572682 91.959661 63.12536 91.774374 62.659 91.774374 
C 62.19264 91.774374 61.745317 91.959661 61.415551 92.289428 
C 61.085785 92.619194 60.900498 93.066516 60.900498 93.532876 
C 60.900498 93.999236 61.085785 94.446558 61.415551 94.776325 
C 61.745317 95.106091 62.19264 95.291378 62.659 95.291378 
z
" clip-path="url(#pf3f5ca688a)" style="stroke: #000000"/>
    <path d="M 69.486775 134.720515 
C 69.907142 134.720515 70.310349 134.553501 70.607594 134.256256 
C 70.904838 133.959012 71.071852 133.555805 71.071852 133.135438 
C 71.071852 132.71507 70.904838 132.311864 70.607594 132.014619 
C 70.310349 131.717374 69.907142 131.550361 69.486775 131.550361 
C 69.066408 131.550361 68.663201 131.717374 68.365956 132.014619 
C 68.068712 132.311864 67.901698 132.71507 67.901698 133.135438 
C 67.901698 133.555805 68.068712 133.959012 68.365956 134.256256 
C 68.663201 134.553501 69.066408 134.720515 69.486775 134.720515 
z
" clip-path="url(#pf3f5ca688a)" style="stroke: #000000"/>
    <path d="M 61.510269 112.648348 
C 61.642871 112.648348 61.770059 112.595664 61.863823 112.501901 
C 61.957586 112.408137 62.010269 112.280949 62.010269 112.148348 
C 62.010269 112.015746 61.957586 111.888558 61.863823 111.794794 
C 61.770059 111.701031 61.642871 111.648348 61.510269 111.648348 
C 61.377668 111.648348 61.250479 111.701031 61.156716 111.794794 
C 61.062952 111.888558 61.010269 112.015746 61.010269 112.148348 
C 61.010269 112.280949 61.062952 112.408137 61.156716 112.501901 
C 61.250479 112.595664 61.377668 112.648348 61.510269 112.648348 
z
" clip-path="url(#pf3f5ca688a)" style="stroke: #000000"/>
    <path d="M 59.835462 100.340133 
C 60.362205 100.340133 60.867444 100.130856 61.239908 99.758392 
C 61.612371 99.385929 61.821648 98.88069 61.821648 98.353947 
C 61.821648 97.827204 61.612371 97.321965 61.239908 96.949502 
C 60.867444 96.577038 60.362205 96.367761 59.835462 96.367761 
C 59.30872 96.367761 58.80348 96.577038 58.431017 96.949502 
C 58.058554 97.321965 57.849277 97.827204 57.849277 98.353947 
C 57.849277 98.88069 58.058554 99.385929 58.431017 99.758392 
C 58.80348 100.130856 59.30872 100.340133 59.835462 100.340133 
z
" clip-path="url(#pf3f5ca688a)" style="stroke: #000000"/>
    <path d="M 58.410556 98.259255 
C 58.970514 98.259255 59.507612 98.036781 59.903562 97.640831 
C 60.299512 97.244881 60.521986 96.707782 60.521986 96.147825 
C 60.521986 95.587867 60.299512 95.050768 59.903562 94.654818 
C 59.507612 94.258868 58.970514 94.036394 58.410556 94.036394 
C 57.850598 94.036394 57.313499 94.258868 56.917549 94.654818 
C 56.521599 95.050768 56.299125 95.587867 56.299125 96.147825 
C 56.299125 96.707782 56.521599 97.244881 56.917549 97.640831 
C 57.313499 98.036781 57.850598 98.259255 58.410556 98.259255 
z
" clip-path="url(#pf3f5ca688a)" style="stroke: #000000"/>
    <path d="M 63.896264 134.651586 
C 64.211645 134.651586 64.514152 134.526283 64.73716 134.303275 
C 64.960169 134.080267 65.085471 133.77776 65.085471 133.462379 
C 65.085471 133.146997 64.960169 132.844491 64.73716 132.621482 
C 64.514152 132.398474 64.211645 132.273172 63.896264 132.273172 
C 63.580883 132.273172 63.278376 132.398474 63.055368 132.621482 
C 62.832359 132.844491 62.707057 133.146997 62.707057 133.462379 
C 62.707057 133.77776 62.832359 134.080267 63.055368 134.303275 
C 63.278376 134.526283 63.580883 134.651586 63.896264 134.651586 
z
" clip-path="url(#pf3f5ca688a)" style="stroke: #000000"/>
    <path d="M 58.915627 123.718537 
C 59.387967 123.718537 59.841025 123.530874 60.175021 123.196879 
C 60.509016 122.862884 60.696678 122.409826 60.696678 121.937485 
C 60.696678 121.465145 60.509016 121.012087 60.175021 120.678092 
C 59.841025 120.344097 59.387967 120.156434 58.915627 120.156434 
C 58.443287 120.156434 57.990228 120.344097 57.656233 120.678092 
C 57.322238 121.012087 57.134575 121.465145 57.134575 121.937485 
C 57.134575 122.409826 57.322238 122.862884 57.656233 123.196879 
C 57.990228 123.530874 58.443287 123.718537 58.915627 123.718537 
z
" clip-path="url(#pf3f5ca688a)" style="stroke: #000000"/>
    <path d="M 52.837971 110.877987 
C 53.373482 110.877987 53.887133 110.665226 54.265797 110.286562 
C 54.644461 109.907898 54.857222 109.394247 54.857222 108.858735 
C 54.857222 108.323223 54.644461 107.809573 54.265797 107.430909 
C 53.887133 107.052245 53.373482 106.839484 52.837971 106.839484 
C 52.302459 106.839484 51.788808 107.052245 51.410144 107.430909 
C 51.03148 107.809573 50.818719 108.323223 50.818719 108.858735 
C 50.818719 109.394247 51.03148 109.907898 51.410144 110.286562 
C 51.788808 110.665226 52.302459 110.877987 52.837971 110.877987 
z
" clip-path="url(#pf3f5ca688a)" style="stroke: #000000"/>
   </g>
   <g id="matplotlib.axis_1">
    <g id="xtick_1">
     <g id="line2d_1">
      <defs>
       <path id="mdaf5037167" d="M 0 0 
L 0 3.5 
" style="stroke: #000000; stroke-width: 0.8"/>
      </defs>
      <g>
       <use xlink:href="#mdaf5037167" x="18" y="189" style="stroke: #000000; stroke-width: 0.8"/>
      </g>
     </g>
     <g id="text_1">
      <!-- −10 -->
      <g transform="translate(7.447656 203.598437)scale(0.1 -0.1)">
       <defs>
        <path id="DejaVuSans-2212" d="M 678 2272 
L 4684 2272 
L 4684 1741 
L 678 1741 
L 678 2272 
z
" transform="scale(0.015625)"/>
        <path id="DejaVuSans-31" d="M 794 531 
L 1825 531 
L 1825 4091 
L 703 3866 
L 703 4441 
L 1819 4666 
L 2450 4666 
L 2450 531 
L 3481 531 
L 3481 0 
L 794 0 
L 794 531 
z
" transform="scale(0.015625)"/>
        <path id="DejaVuSans-30" d="M 2034 4250 
Q 1547 4250 1301 3770 
Q 1056 3291 1056 2328 
Q 1056 1369 1301 889 
Q 1547 409 2034 409 
Q 2525 409 2770 889 
Q 3016 1369 3016 2328 
Q 3016 3291 2770 3770 
Q 2525 4250 2034 4250 
z
M 2034 4750 
Q 2819 4750 3233 4129 
Q 3647 3509 3647 2328 
Q 3647 1150 3233 529 
Q 2819 -91 2034 -91 
Q 1250 -91 836 529 
Q 422 1150 422 2328 
Q 422 3509 836 4129 
Q 1250 4750 2034 4750 
z
" transform="scale(0.015625)"/>
       </defs>
       <use xlink:href="#DejaVuSans-2212"/>
       <use xlink:href="#DejaVuSans-31" x="83.789062"/>
       <use xlink:href="#DejaVuSans-30" x="147.412109"/>
      </g>
     </g>
    </g>
    <g id="xtick_2">
     <g id="line2d_2">
      <g>
       <use xlink:href="#mdaf5037167" x="73.8" y="189" style="stroke: #000000; stroke-width: 0.8"/>
      </g>
     </g>
     <g id="text_2">
      <!-- 0 -->
      <g transform="translate(70.61875 203.598437)scale(0.1 -0.1)">
       <use xlink:href="#DejaVuSans-30"/>
      </g>
     </g>
    </g>
    <g id="xtick_3">
     <g id="line2d_3">
      <g>
       <use xlink:href="#mdaf5037167" x="129.6" y="189" style="stroke: #000000; stroke-width: 0.8"/>
      </g>
     </g>
     <g id="text_3">
      <!-- 10 -->
      <g transform="translate(123.2375 203.598437)scale(0.1 -0.1)">
       <use xlink:href="#DejaVuSans-31"/>
       <use xlink:href="#DejaVuSans-30" x="63.623047"/>
      </g>
     </g>
    </g>
   </g>
   <g id="matplotlib.axis_2">
    <g id="ytick_1">
     <g id="line2d_4">
      <defs>
       <path id="m76048aa3c3" d="M 0 0 
L -3.5 0 
" style="stroke: #000000; stroke-width: 0.8"/>
      </defs>
      <g>
       <use xlink:href="#m76048aa3c3" x="18" y="189" style="stroke: #000000; stroke-width: 0.8"/>
      </g>
     </g>
     <g id="text_4">
      <!-- −15 -->
      <g transform="translate(-10.104688 192.799219)scale(0.1 -0.1)">
       <defs>
        <path id="DejaVuSans-35" d="M 691 4666 
L 3169 4666 
L 3169 4134 
L 1269 4134 
L 1269 2991 
Q 1406 3038 1543 3061 
Q 1681 3084 1819 3084 
Q 2600 3084 3056 2656 
Q 3513 2228 3513 1497 
Q 3513 744 3044 326 
Q 2575 -91 1722 -91 
Q 1428 -91 1123 -41 
Q 819 9 494 109 
L 494 744 
Q 775 591 1075 516 
Q 1375 441 1709 441 
Q 2250 441 2565 725 
Q 2881 1009 2881 1497 
Q 2881 1984 2565 2268 
Q 2250 2553 1709 2553 
Q 1456 2553 1204 2497 
Q 953 2441 691 2322 
L 691 4666 
z
" transform="scale(0.015625)"/>
       </defs>
       <use xlink:href="#DejaVuSans-2212"/>
       <use xlink:href="#DejaVuSans-31" x="83.789062"/>
       <use xlink:href="#DejaVuSans-35" x="147.412109"/>
      </g>
     </g>
    </g>
    <g id="ytick_2">
     <g id="line2d_5">
      <g>
       <use xlink:href="#m76048aa3c3" x="18" y="161.82" style="stroke: #000000; stroke-width: 0.8"/>
      </g>
     </g>
     <g id="text_5">
      <!-- −10 -->
      <g transform="translate(-10.104688 165.619219)scale(0.1 -0.1)">
       <use xlink:href="#DejaVuSans-2212"/>
       <use xlink:href="#DejaVuSans-31" x="83.789062"/>
       <use xlink:href="#DejaVuSans-30" x="147.412109"/>
      </g>
     </g>
    </g>
    <g id="ytick_3">
     <g id="line2d_6">
      <g>
       <use xlink:href="#m76048aa3c3" x="18" y="134.64" style="stroke: #000000; stroke-width: 0.8"/>
      </g>
     </g>
     <g id="text_6">
      <!-- −5 -->
      <g transform="translate(-3.742188 138.439219)scale(0.1 -0.1)">
       <use xlink:href="#DejaVuSans-2212"/>
       <use xlink:href="#DejaVuSans-35" x="83.789062"/>
      </g>
     </g>
    </g>
    <g id="ytick_4">
     <g id="line2d_7">
      <g>
       <use xlink:href="#m76048aa3c3" x="18" y="107.46" style="stroke: #000000; stroke-width: 0.8"/>
      </g>
     </g>
     <g id="text_7">
      <!-- 0 -->
      <g transform="translate(4.6375 111.259219)scale(0.1 -0.1)">
       <use xlink:href="#DejaVuSans-30"/>
      </g>
     </g>
    </g>
    <g id="ytick_5">
     <g id="line2d_8">
      <g>
       <use xlink:href="#m76048aa3c3" x="18" y="80.28" style="stroke: #000000; stroke-width: 0.8"/>
      </g>
     </g>
     <g id="text_8">
      <!-- 5 -->
      <g transform="translate(4.6375 84.079219)scale(0.1 -0.1)">
       <use xlink:href="#DejaVuSans-35"/>
      </g>
     </g>
    </g>
    <g id="ytick_6">
     <g id="line2d_9">
      <g>
       <use xlink:href="#m76048aa3c3" x="18" y="53.1" style="stroke: #000000; stroke-width: 0.8"/>
      </g>
     </g>
     <g id="text_9">
      <!-- 10 -->
      <g transform="translate(-1.725 56.899219)scale(0.1 -0.1)">
       <use xlink:href="#DejaVuSans-31"/>
       <use xlink:href="#DejaVuSans-30" x="63.623047"/>
      </g>
     </g>
    </g>
    <g id="ytick_7">
     <g id="line2d_10">
      <g>
       <use xlink:href="#m76048aa3c3" x="18" y="25.92" style="stroke: #000000; stroke-width: 0.8"/>
      </g>
     </g>
     <g id="text_10">
      <!-- 15 -->
      <g transform="translate(-1.725 29.719219)scale(0.1 -0.1)">
       <use xlink:href="#DejaVuSans-31"/>
       <use xlink:href="#DejaVuSans-35" x="63.623047"/>
      </g>
     </g>
    </g>
   </g>
   <g id="patch_3">
    <path d="M 18 189 
L 18 25.92 
" style="fill: none; stroke: #000000; stroke-width: 0.8; stroke-linejoin: miter; stroke-linecap: square"/>
   </g>
   <g id="patch_4">
    <path d="M 129.6 189 
L 129.6 25.92 
" style="fill: none; stroke: #000000; stroke-width: 0.8; stroke-linejoin: miter; stroke-linecap: square"/>
   </g>
   <g id="patch_5">
    <path d="M 18 189 
L 129.6 189 
" style="fill: none; stroke: #000000; stroke-width: 0.8; stroke-linejoin: miter; stroke-linecap: square"/>
   </g>
   <g id="patch_6">
    <path d="M 18 25.92 
L 129.6 25.92 
" style="fill: none; stroke: #000000; stroke-width: 0.8; stroke-linejoin: miter; stroke-linecap: square"/>
   </g>
  </g>
 </g>
 <defs>
  <clipPath id="pf3f5ca688a">
   <rect x="18" y="25.92" width="111.6" height="163.08"/>
  </clipPath>
 </defs>
</svg>
