<?xml version="1.0" encoding="utf-8" standalone="no"?>
<!DOCTYPE svg PUBLIC "-//W3C//DTD SVG 1.1//EN"
  "http://www.w3.org/Graphics/SVG/1.1/DTD/svg11.dtd">
<svg xmlns:xlink="http://www.w3.org/1999/xlink" width="144pt" height="216pt" viewBox="0 0 144 216" xmlns="http://www.w3.org/2000/svg" version="1.1">
 <metadata>
  <rdf:RDF xmlns:dc="http://purl.org/dc/elements/1.1/" xmlns:cc="http://creativecommons.org/ns#" xmlns:rdf="http://www.w3.org/1999/02/22-rdf-syntax-ns#">
   <cc:Work>
    <dc:type rdf:resource="http://purl.org/dc/dcmitype/StillImage"/>
    <dc:date>2022-06-28T09:24:43.510253</dc:date>
    <dc:format>image/svg+xml</dc:format>
    <dc:creator>
     <cc:Agent>
      <dc:title>Matplotlib v3.5.1, https://matplotlib.org/</dc:title>
     </cc:Agent>
    </dc:creator>
   </cc:Work>
  </rdf:RDF>
 </metadata>
 <defs>
  <style type="text/css">*{stroke-linejoin: round; stroke-linecap: butt}</style>
 </defs>
 <g id="figure_1">
  <g id="patch_1">
   <path d="M 0 216 
L 144 216 
L 144 0 
L 0 0 
L 0 216 
z
" style="fill: none"/>
  </g>
  <g id="axes_1">
   <g id="patch_2">
    <path d="M 18 189 
L 129.6 189 
L 129.6 25.92 
L 18 25.92 
z
" style="fill: #ffffff"/>
   </g>
   <g id="PathCollection_1">
    <defs>
     <path id="mcda8af7196" d="M 0 2.738613 
C 0.726289 2.738613 1.422928 2.450055 1.936492 1.936492 
C 2.450055 1.422928 2.738613 0.726289 2.738613 0 
C 2.738613 -0.726289 2.450055 -1.422928 1.936492 -1.936492 
C 1.422928 -2.450055 0.726289 -2.738613 0 -2.738613 
C -0.726289 -2.738613 -1.422928 -2.450055 -1.936492 -1.936492 
C -2.450055 -1.422928 -2.738613 -0.726289 -2.738613 0 
C -2.738613 0.726289 -2.450055 1.422928 -1.936492 1.936492 
C -1.422928 2.450055 -0.726289 2.738613 0 2.738613 
z
" style="stroke: #ff0000; stroke-width: 1.75"/>
    </defs>
    <g clip-path="url(#pafd3833fec)">
     <use xlink:href="#mcda8af7196" x="80.775" y="83.92143" style="fill: #ff0000; stroke: #ff0000; stroke-width: 1.75"/>
     <use xlink:href="#mcda8af7196" x="59.85" y="95.690715" style="fill: #ff0000; stroke: #ff0000; stroke-width: 1.75"/>
     <use xlink:href="#mcda8af7196" x="66.825" y="107.46" style="fill: #ff0000; stroke: #ff0000; stroke-width: 1.75"/>
     <use xlink:href="#mcda8af7196" x="80.775" y="107.46" style="fill: #ff0000; stroke: #ff0000; stroke-width: 1.75"/>
     <use xlink:href="#mcda8af7196" x="94.725" y="107.46" style="fill: #ff0000; stroke: #ff0000; stroke-width: 1.75"/>
     <use xlink:href="#mcda8af7196" x="59.85" y="119.229285" style="fill: #ff0000; stroke: #ff0000; stroke-width: 1.75"/>
     <use xlink:href="#mcda8af7196" x="80.775" y="130.99857" style="fill: #ff0000; stroke: #ff0000; stroke-width: 1.75"/>
    </g>
   </g>
   <g id="PathCollection_2">
    <defs>
     <path id="C0_0_989e66d6ff" d="M 0 2.738613 
C 0.726289 2.738613 1.422928 2.450055 1.936492 1.936492 
C 2.450055 1.422928 2.738613 0.726289 2.738613 -0 
C 2.738613 -0.726289 2.450055 -1.422928 1.936492 -1.936492 
C 1.422928 -2.450055 0.726289 -2.738613 0 -2.738613 
C -0.726289 -2.738613 -1.422928 -2.450055 -1.936492 -1.936492 
C -2.450055 -1.422928 -2.738613 -0.726289 -2.738613 0 
C -2.738613 0.726289 -2.450055 1.422928 -1.936492 1.936492 
C -1.422928 2.450055 -0.726289 2.738613 0 2.738613 
z
"/>
    </defs>
    <g clip-path="url(#pafd3833fec)">
     <use xlink:href="#C0_0_989e66d6ff" x="66.825" y="83.92143" style="fill: none; stroke: #ff0000; stroke-width: 1.75"/>
    </g>
    <g clip-path="url(#pafd3833fec)">
     <use xlink:href="#C0_0_989e66d6ff" x="73.8" y="95.690715" style="fill: none; stroke: #ff0000; stroke-width: 1.75"/>
    </g>
    <g clip-path="url(#pafd3833fec)">
     <use xlink:href="#C0_0_989e66d6ff" x="87.75" y="95.690715" style="fill: none; stroke: #ff0000; stroke-width: 1.75"/>
    </g>
    <g clip-path="url(#pafd3833fec)">
     <use xlink:href="#C0_0_989e66d6ff" x="52.875" y="107.46" style="fill: none; stroke: #ff0000; stroke-width: 1.75"/>
    </g>
    <g clip-path="url(#pafd3833fec)">
     <use xlink:href="#C0_0_989e66d6ff" x="73.8" y="119.229285" style="fill: none; stroke: #ff0000; stroke-width: 1.75"/>
    </g>
    <g clip-path="url(#pafd3833fec)">
     <use xlink:href="#C0_0_989e66d6ff" x="87.75" y="119.229285" style="fill: none; stroke: #ff0000; stroke-width: 1.75"/>
    </g>
    <g clip-path="url(#pafd3833fec)">
     <use xlink:href="#C0_0_989e66d6ff" x="66.825" y="130.99857" style="fill: none; stroke: #ff0000; stroke-width: 1.75"/>
    </g>
   </g>
   <g id="PathCollection_3">
    <path d="M 102.625831 81.927856 
C 102.758432 81.927856 102.885621 81.875173 102.979384 81.78141 
C 103.073148 81.687646 103.125831 81.560458 103.125831 81.427856 
C 103.125831 81.295255 103.073148 81.168066 102.979384 81.074303 
C 102.885621 80.980539 102.758432 80.927856 102.625831 80.927856 
C 102.493229 80.927856 102.366041 80.980539 102.272277 81.074303 
C 102.178514 81.168066 102.125831 81.295255 102.125831 81.427856 
C 102.125831 81.560458 102.178514 81.687646 102.272277 81.78141 
C 102.366041 81.875173 102.493229 81.927856 102.625831 81.927856 
z
" clip-path="url(#pafd3833fec)" style="stroke: #000000"/>
    <path d="M 100.267098 101.596264 
C 100.399699 101.596264 100.526888 101.543581 100.620651 101.449817 
C 100.714415 101.356054 100.767098 101.228865 100.767098 101.096264 
C 100.767098 100.963662 100.714415 100.836474 100.620651 100.74271 
C 100.526888 100.648947 100.399699 100.596264 100.267098 100.596264 
C 100.134496 100.596264 100.007308 100.648947 99.913544 100.74271 
C 99.819781 100.836474 99.767098 100.963662 99.767098 101.096264 
C 99.767098 101.228865 99.819781 101.356054 99.913544 101.449817 
C 100.007308 101.543581 100.134496 101.596264 100.267098 101.596264 
z
" clip-path="url(#pafd3833fec)" style="stroke: #000000"/>
    <path d="M 97.43029 109.800561 
C 98.024042 109.800561 98.593555 109.564661 99.013401 109.144815 
C 99.433247 108.724969 99.669148 108.155456 99.669148 107.561704 
C 99.669148 106.967951 99.433247 106.398438 99.013401 105.978592 
C 98.593555 105.558746 98.024042 105.322846 97.43029 105.322846 
C 96.836538 105.322846 96.267024 105.558746 95.847178 105.978592 
C 95.427332 106.398438 95.191432 106.967951 95.191432 107.561704 
C 95.191432 108.155456 95.427332 108.724969 95.847178 109.144815 
C 96.267024 109.564661 96.836538 109.800561 97.43029 109.800561 
z
" clip-path="url(#pafd3833fec)" style="stroke: #000000"/>
    <path d="M 107.789189 167.256709 
C 107.921791 167.256709 108.048979 167.204026 108.142743 167.110263 
C 108.236506 167.016499 108.289189 166.889311 108.289189 166.756709 
C 108.289189 166.624108 108.236506 166.496919 108.142743 166.403156 
C 108.048979 166.309392 107.921791 166.256709 107.789189 166.256709 
C 107.656588 166.256709 107.529399 166.309392 107.435636 166.403156 
C 107.341872 166.496919 107.289189 166.624108 107.289189 166.756709 
C 107.289189 166.889311 107.341872 167.016499 107.435636 167.110263 
C 107.529399 167.204026 107.656588 167.256709 107.789189 167.256709 
z
" clip-path="url(#pafd3833fec)" style="stroke: #000000"/>
    <path d="M 91.655833 110.366808 
C 91.813523 110.366808 91.964777 110.304157 92.076281 110.192653 
C 92.187785 110.081149 92.250436 109.929895 92.250436 109.772205 
C 92.250436 109.614514 92.187785 109.46326 92.076281 109.351756 
C 91.964777 109.240252 91.813523 109.177601 91.655833 109.177601 
C 91.498142 109.177601 91.346889 109.240252 91.235385 109.351756 
C 91.12388 109.46326 91.061229 109.614514 91.061229 109.772205 
C 91.061229 109.929895 91.12388 110.081149 91.235385 110.192653 
C 91.346889 110.304157 91.498142 110.366808 91.655833 110.366808 
z
" clip-path="url(#pafd3833fec)" style="stroke: #000000"/>
    <path d="M 85.073589 106.671221 
C 85.393787 106.671221 85.700913 106.544005 85.927327 106.317591 
C 86.153741 106.091177 86.280957 105.784051 86.280957 105.463853 
C 86.280957 105.143655 86.153741 104.836529 85.927327 104.610115 
C 85.700913 104.383701 85.393787 104.256485 85.073589 104.256485 
C 84.753391 104.256485 84.446265 104.383701 84.219851 104.610115 
C 83.993437 104.836529 83.866221 105.143655 83.866221 105.463853 
C 83.866221 105.784051 83.993437 106.091177 84.219851 106.317591 
C 84.446265 106.544005 84.753391 106.671221 85.073589 106.671221 
z
" clip-path="url(#pafd3833fec)" style="stroke: #000000"/>
    <path d="M 88.826632 100.12028 
C 89.255087 100.12028 89.666051 99.950053 89.969015 99.64709 
C 90.271978 99.344126 90.442205 98.933162 90.442205 98.504707 
C 90.442205 98.076252 90.271978 97.665288 89.969015 97.362324 
C 89.666051 97.059361 89.255087 96.889134 88.826632 96.889134 
C 88.398177 96.889134 87.987213 97.059361 87.684249 97.362324 
C 87.381286 97.665288 87.211059 98.076252 87.211059 98.504707 
C 87.211059 98.933162 87.381286 99.344126 87.684249 99.64709 
C 87.987213 99.950053 88.398177 100.12028 88.826632 100.12028 
z
" clip-path="url(#pafd3833fec)" style="stroke: #000000"/>
    <path d="M 83.208467 87.181252 
C 83.810535 87.181252 84.388025 86.942047 84.813752 86.516321 
C 85.239479 86.090594 85.478683 85.513104 85.478683 84.911035 
C 85.478683 84.308967 85.239479 83.731477 84.813752 83.30575 
C 84.388025 82.880023 83.810535 82.640819 83.208467 82.640819 
C 82.606398 82.640819 82.028908 82.880023 81.603181 83.30575 
C 81.177455 83.731477 80.93825 84.308967 80.93825 84.911035 
C 80.93825 85.513104 81.177455 86.090594 81.603181 86.516321 
C 82.028908 86.942047 82.606398 87.181252 83.208467 87.181252 
z
" clip-path="url(#pafd3833fec)" style="stroke: #000000"/>
    <path d="M 80.460069 80.493596 
C 80.675756 80.493596 80.882637 80.407903 81.035151 80.255389 
C 81.187664 80.102876 81.273357 79.895994 81.273357 79.680307 
C 81.273357 79.464621 81.187664 79.257739 81.035151 79.105226 
C 80.882637 78.952712 80.675756 78.867019 80.460069 78.867019 
C 80.244382 78.867019 80.037501 78.952712 79.884987 79.105226 
C 79.732474 79.257739 79.646781 79.464621 79.646781 79.680307 
C 79.646781 79.895994 79.732474 80.102876 79.884987 80.255389 
C 80.037501 80.407903 80.244382 80.493596 80.460069 80.493596 
z
" clip-path="url(#pafd3833fec)" style="stroke: #000000"/>
    <path d="M 86.8111 120.062125 
C 87.317079 120.062125 87.802402 119.861097 88.160183 119.503316 
C 88.517965 119.145534 88.718992 118.660211 88.718992 118.154232 
C 88.718992 117.648253 88.517965 117.162929 88.160183 116.805148 
C 87.802402 116.447367 87.317079 116.246339 86.8111 116.246339 
C 86.30512 116.246339 85.819797 116.447367 85.462016 116.805148 
C 85.104234 117.162929 84.903207 117.648253 84.903207 118.154232 
C 84.903207 118.660211 85.104234 119.145534 85.462016 119.503316 
C 85.819797 119.861097 86.30512 120.062125 86.8111 120.062125 
z
" clip-path="url(#pafd3833fec)" style="stroke: #000000"/>
    <path d="M 82.17071 108.052376 
C 82.67307 108.052376 83.154923 107.852786 83.510145 107.497564 
C 83.865368 107.142341 84.064958 106.660489 84.064958 106.158128 
C 84.064958 105.655768 83.865368 105.173915 83.510145 104.818693 
C 83.154923 104.46347 82.67307 104.26388 82.17071 104.26388 
C 81.668349 104.26388 81.186497 104.46347 80.831274 104.818693 
C 80.476052 105.173915 80.276462 105.655768 80.276462 106.158128 
C 80.276462 106.660489 80.476052 107.142341 80.831274 107.497564 
C 81.186497 107.852786 81.668349 108.052376 82.17071 108.052376 
z
" clip-path="url(#pafd3833fec)" style="stroke: #000000"/>
    <path d="M 77.89278 95.761602 
C 78.025381 95.761602 78.15257 95.708918 78.246333 95.615155 
C 78.340097 95.521392 78.39278 95.394203 78.39278 95.261602 
C 78.39278 95.129 78.340097 95.001812 78.246333 94.908048 
C 78.15257 94.814285 78.025381 94.761602 77.89278 94.761602 
C 77.760178 94.761602 77.63299 94.814285 77.539226 94.908048 
C 77.445463 95.001812 77.39278 95.129 77.39278 95.261602 
C 77.39278 95.394203 77.445463 95.521392 77.539226 95.615155 
C 77.63299 95.708918 77.760178 95.761602 77.89278 95.761602 
z
" clip-path="url(#pafd3833fec)" style="stroke: #000000"/>
    <path d="M 79.451148 130.03398 
C 79.971974 130.03398 80.471539 129.827053 80.839818 129.458773 
C 81.208098 129.090494 81.415025 128.590929 81.415025 128.070103 
C 81.415025 127.549277 81.208098 127.049712 80.839818 126.681432 
C 80.471539 126.313152 79.971974 126.106226 79.451148 126.106226 
C 78.930322 126.106226 78.430757 126.313152 78.062477 126.681432 
C 77.694197 127.049712 77.487271 127.549277 77.487271 128.070103 
C 77.487271 128.590929 77.694197 129.090494 78.062477 129.458773 
C 78.430757 129.827053 78.930322 130.03398 79.451148 130.03398 
z
" clip-path="url(#pafd3833fec)" style="stroke: #000000"/>
    <path d="M 72.54799 95.867683 
C 73.059256 95.867683 73.549651 95.664555 73.91117 95.303036 
C 74.27269 94.941517 74.475818 94.451122 74.475818 93.939856 
C 74.475818 93.428591 74.27269 92.938196 73.91117 92.576677 
C 73.549651 92.215157 73.059256 92.012029 72.54799 92.012029 
C 72.036725 92.012029 71.54633 92.215157 71.184811 92.576677 
C 70.823291 92.938196 70.620163 93.428591 70.620163 93.939856 
C 70.620163 94.451122 70.823291 94.941517 71.184811 95.303036 
C 71.54633 95.664555 72.036725 95.867683 72.54799 95.867683 
z
" clip-path="url(#pafd3833fec)" style="stroke: #000000"/>
    <path d="M 68.884622 86.785313 
C 69.407622 86.785313 69.909273 86.577522 70.27909 86.207705 
C 70.648908 85.837887 70.856698 85.336237 70.856698 84.813236 
C 70.856698 84.290235 70.648908 83.788585 70.27909 83.418767 
C 69.909273 83.04895 69.407622 82.841159 68.884622 82.841159 
C 68.361621 82.841159 67.85997 83.04895 67.490153 83.418767 
C 67.120335 83.788585 66.912545 84.290235 66.912545 84.813236 
C 66.912545 85.336237 67.120335 85.837887 67.490153 86.207705 
C 67.85997 86.577522 68.361621 86.785313 68.884622 86.785313 
z
" clip-path="url(#pafd3833fec)" style="stroke: #000000"/>
    <path d="M 76.877193 130.854314 
C 77.161053 130.854314 77.433324 130.741536 77.634043 130.540817 
C 77.834762 130.340098 77.947541 130.067826 77.947541 129.783967 
C 77.947541 129.500107 77.834762 129.227836 77.634043 129.027117 
C 77.433324 128.826398 77.161053 128.713619 76.877193 128.713619 
C 76.593334 128.713619 76.321062 128.826398 76.120343 129.027117 
C 75.919624 129.227836 75.806846 129.500107 75.806846 129.783967 
C 75.806846 130.067826 75.919624 130.340098 76.120343 130.540817 
C 76.321062 130.741536 76.593334 130.854314 76.877193 130.854314 
z
" clip-path="url(#pafd3833fec)" style="stroke: #000000"/>
    <path d="M 74.837685 122.834627 
C 75.287146 122.834627 75.718258 122.656054 76.036075 122.338237 
C 76.353892 122.02042 76.532465 121.589307 76.532465 121.139846 
C 76.532465 120.690385 76.353892 120.259272 76.036075 119.941456 
C 75.718258 119.623639 75.287146 119.445066 74.837685 119.445066 
C 74.388223 119.445066 73.957111 119.623639 73.639294 119.941456 
C 73.321477 120.259272 73.142904 120.690385 73.142904 121.139846 
C 73.142904 121.589307 73.321477 122.02042 73.639294 122.338237 
C 73.957111 122.656054 74.388223 122.834627 74.837685 122.834627 
z
" clip-path="url(#pafd3833fec)" style="stroke: #000000"/>
    <path d="M 71.823752 120.434444 
C 72.337885 120.434444 72.83103 120.230177 73.194577 119.86663 
C 73.558124 119.503083 73.762392 119.009938 73.762392 118.495804 
C 73.762392 117.981671 73.558124 117.488526 73.194577 117.124979 
C 72.83103 116.761432 72.337885 116.557165 71.823752 116.557165 
C 71.309619 116.557165 70.816474 116.761432 70.452927 117.124979 
C 70.089379 117.488526 69.885112 117.981671 69.885112 118.495804 
C 69.885112 119.009938 70.089379 119.503083 70.452927 119.86663 
C 70.816474 120.230177 71.309619 120.434444 71.823752 120.434444 
z
" clip-path="url(#pafd3833fec)" style="stroke: #000000"/>
    <path d="M 67.938949 107.738259 
C 68.446709 107.738259 68.933741 107.536524 69.292781 107.177484 
C 69.651821 106.818443 69.853556 106.331412 69.853556 105.823652 
C 69.853556 105.315893 69.651821 104.828861 69.292781 104.469821 
C 68.933741 104.11078 68.446709 103.909045 67.938949 103.909045 
C 67.43119 103.909045 66.944158 104.11078 66.585118 104.469821 
C 66.226078 104.828861 66.024343 105.315893 66.024343 105.823652 
C 66.024343 106.331412 66.226078 106.818443 66.585118 107.177484 
C 66.944158 107.536524 67.43119 107.738259 67.938949 107.738259 
z
" clip-path="url(#pafd3833fec)" style="stroke: #000000"/>
    <path d="M 64.784122 97.263923 
C 64.916724 97.263923 65.043912 97.21124 65.137676 97.117476 
C 65.231439 97.023713 65.284122 96.896524 65.284122 96.763923 
C 65.284122 96.631321 65.231439 96.504133 65.137676 96.410369 
C 65.043912 96.316606 64.916724 96.263923 64.784122 96.263923 
C 64.651521 96.263923 64.524332 96.316606 64.430569 96.410369 
C 64.336805 96.504133 64.284122 96.631321 64.284122 96.763923 
C 64.284122 96.896524 64.336805 97.023713 64.430569 97.117476 
C 64.524332 97.21124 64.651521 97.263923 64.784122 97.263923 
z
" clip-path="url(#pafd3833fec)" style="stroke: #000000"/>
    <path d="M 62.659 95.288498 
C 63.124596 95.288498 63.571185 95.103514 63.900412 94.774288 
C 64.229638 94.445062 64.414621 93.998472 64.414621 93.532876 
C 64.414621 93.06728 64.229638 92.620691 63.900412 92.291464 
C 63.571185 91.962238 63.124596 91.777255 62.659 91.777255 
C 62.193403 91.777255 61.746814 91.962238 61.417588 92.291464 
C 61.088362 92.620691 60.903378 93.06728 60.903378 93.532876 
C 60.903378 93.998472 61.088362 94.445062 61.417588 94.774288 
C 61.746814 95.103514 62.193403 95.288498 62.659 95.288498 
z
" clip-path="url(#pafd3833fec)" style="stroke: #000000"/>
    <path d="M 69.486775 134.735981 
C 69.911244 134.735981 70.318385 134.567337 70.61853 134.267192 
C 70.918675 133.967048 71.087318 133.559907 71.087318 133.135438 
C 71.087318 132.710969 70.918675 132.303828 70.61853 132.003683 
C 70.318385 131.703538 69.911244 131.534895 69.486775 131.534895 
C 69.062306 131.534895 68.655165 131.703538 68.35502 132.003683 
C 68.054875 132.303828 67.886232 132.710969 67.886232 133.135438 
C 67.886232 133.559907 68.054875 133.967048 68.35502 134.267192 
C 68.655165 134.567337 69.062306 134.735981 69.486775 134.735981 
z
" clip-path="url(#pafd3833fec)" style="stroke: #000000"/>
    <path d="M 59.835462 100.281774 
C 60.346728 100.281774 60.837122 100.078646 61.198642 99.717127 
C 61.560161 99.355607 61.763289 98.865213 61.763289 98.353947 
C 61.763289 97.842681 61.560161 97.352287 61.198642 96.990767 
C 60.837122 96.629248 60.346728 96.42612 59.835462 96.42612 
C 59.324197 96.42612 58.833802 96.629248 58.472283 96.990767 
C 58.110763 97.352287 57.907635 97.842681 57.907635 98.353947 
C 57.907635 98.865213 58.110763 99.355607 58.472283 99.717127 
C 58.833802 100.078646 59.324197 100.281774 59.835462 100.281774 
z
" clip-path="url(#pafd3833fec)" style="stroke: #000000"/>
    <path d="M 58.410556 98.209377 
C 58.957286 98.209377 59.481697 97.992159 59.868294 97.605562 
C 60.25489 97.218966 60.472108 96.694555 60.472108 96.147825 
C 60.472108 95.601094 60.25489 95.076683 59.868294 94.690087 
C 59.481697 94.30349 58.957286 94.086272 58.410556 94.086272 
C 57.863825 94.086272 57.339414 94.30349 56.952818 94.690087 
C 56.566221 95.076683 56.349003 95.601094 56.349003 96.147825 
C 56.349003 96.694555 56.566221 97.218966 56.952818 97.605562 
C 57.339414 97.992159 57.863825 98.209377 58.410556 98.209377 
z
" clip-path="url(#pafd3833fec)" style="stroke: #000000"/>
    <path d="M 63.896264 134.622677 
C 64.203979 134.622677 64.499131 134.50042 64.716719 134.282833 
C 64.934306 134.065246 65.056562 133.770093 65.056562 133.462379 
C 65.056562 133.154664 64.934306 132.859511 64.716719 132.641924 
C 64.499131 132.424337 64.203979 132.302081 63.896264 132.302081 
C 63.588549 132.302081 63.293397 132.424337 63.07581 132.641924 
C 62.858222 132.859511 62.735966 133.154664 62.735966 133.462379 
C 62.735966 133.770093 62.858222 134.065246 63.07581 134.282833 
C 63.293397 134.50042 63.588549 134.622677 63.896264 134.622677 
z
" clip-path="url(#pafd3833fec)" style="stroke: #000000"/>
    <path d="M 58.915627 123.619278 
C 59.361644 123.619278 59.789453 123.442074 60.104834 123.126692 
C 60.420215 122.811311 60.59742 122.383502 60.59742 121.937485 
C 60.59742 121.491469 60.420215 121.06366 60.104834 120.748278 
C 59.789453 120.432897 59.361644 120.255692 58.915627 120.255692 
C 58.46961 120.255692 58.041801 120.432897 57.72642 120.748278 
C 57.411038 121.06366 57.233834 121.491469 57.233834 121.937485 
C 57.233834 122.383502 57.411038 122.811311 57.72642 123.126692 
C 58.041801 123.442074 58.46961 123.619278 58.915627 123.619278 
z
" clip-path="url(#pafd3833fec)" style="stroke: #000000"/>
    <path d="M 52.837971 110.818473 
C 53.357699 110.818473 53.856211 110.611983 54.223715 110.244479 
C 54.591218 109.876976 54.797708 109.378464 54.797708 108.858735 
C 54.797708 108.339007 54.591218 107.840495 54.223715 107.472991 
C 53.856211 107.105488 53.357699 106.898997 52.837971 106.898997 
C 52.318242 106.898997 51.81973 107.105488 51.452227 107.472991 
C 51.084723 107.840495 50.878233 108.339007 50.878233 108.858735 
C 50.878233 109.378464 51.084723 109.876976 51.452227 110.244479 
C 51.81973 110.611983 52.318242 110.818473 52.837971 110.818473 
z
" clip-path="url(#pafd3833fec)" style="stroke: #000000"/>
   </g>
   <g id="matplotlib.axis_1">
    <g id="xtick_1">
     <g id="line2d_1">
      <defs>
       <path id="m663b63a8c0" d="M 0 0 
L 0 3.5 
" style="stroke: #000000; stroke-width: 0.8"/>
      </defs>
      <g>
       <use xlink:href="#m663b63a8c0" x="18" y="189" style="stroke: #000000; stroke-width: 0.8"/>
      </g>
     </g>
     <g id="text_1">
      <!-- −10 -->
      <g transform="translate(7.447656 203.598437)scale(0.1 -0.1)">
       <defs>
        <path id="DejaVuSans-2212" d="M 678 2272 
L 4684 2272 
L 4684 1741 
L 678 1741 
L 678 2272 
z
" transform="scale(0.015625)"/>
        <path id="DejaVuSans-31" d="M 794 531 
L 1825 531 
L 1825 4091 
L 703 3866 
L 703 4441 
L 1819 4666 
L 2450 4666 
L 2450 531 
L 3481 531 
L 3481 0 
L 794 0 
L 794 531 
z
" transform="scale(0.015625)"/>
        <path id="DejaVuSans-30" d="M 2034 4250 
Q 1547 4250 1301 3770 
Q 1056 3291 1056 2328 
Q 1056 1369 1301 889 
Q 1547 409 2034 409 
Q 2525 409 2770 889 
Q 3016 1369 3016 2328 
Q 3016 3291 2770 3770 
Q 2525 4250 2034 4250 
z
M 2034 4750 
Q 2819 4750 3233 4129 
Q 3647 3509 3647 2328 
Q 3647 1150 3233 529 
Q 2819 -91 2034 -91 
Q 1250 -91 836 529 
Q 422 1150 422 2328 
Q 422 3509 836 4129 
Q 1250 4750 2034 4750 
z
" transform="scale(0.015625)"/>
       </defs>
       <use xlink:href="#DejaVuSans-2212"/>
       <use xlink:href="#DejaVuSans-31" x="83.789062"/>
       <use xlink:href="#DejaVuSans-30" x="147.412109"/>
      </g>
     </g>
    </g>
    <g id="xtick_2">
     <g id="line2d_2">
      <g>
       <use xlink:href="#m663b63a8c0" x="73.8" y="189" style="stroke: #000000; stroke-width: 0.8"/>
      </g>
     </g>
     <g id="text_2">
      <!-- 0 -->
      <g transform="translate(70.61875 203.598437)scale(0.1 -0.1)">
       <use xlink:href="#DejaVuSans-30"/>
      </g>
     </g>
    </g>
    <g id="xtick_3">
     <g id="line2d_3">
      <g>
       <use xlink:href="#m663b63a8c0" x="129.6" y="189" style="stroke: #000000; stroke-width: 0.8"/>
      </g>
     </g>
     <g id="text_3">
      <!-- 10 -->
      <g transform="translate(123.2375 203.598437)scale(0.1 -0.1)">
       <use xlink:href="#DejaVuSans-31"/>
       <use xlink:href="#DejaVuSans-30" x="63.623047"/>
      </g>
     </g>
    </g>
   </g>
   <g id="matplotlib.axis_2">
    <g id="ytick_1">
     <g id="line2d_4">
      <defs>
       <path id="m7ec535951f" d="M 0 0 
L -3.5 0 
" style="stroke: #000000; stroke-width: 0.8"/>
      </defs>
      <g>
       <use xlink:href="#m7ec535951f" x="18" y="189" style="stroke: #000000; stroke-width: 0.8"/>
      </g>
     </g>
     <g id="text_4">
      <!-- −15 -->
      <g transform="translate(-10.104688 192.799219)scale(0.1 -0.1)">
       <defs>
        <path id="DejaVuSans-35" d="M 691 4666 
L 3169 4666 
L 3169 4134 
L 1269 4134 
L 1269 2991 
Q 1406 3038 1543 3061 
Q 1681 3084 1819 3084 
Q 2600 3084 3056 2656 
Q 3513 2228 3513 1497 
Q 3513 744 3044 326 
Q 2575 -91 1722 -91 
Q 1428 -91 1123 -41 
Q 819 9 494 109 
L 494 744 
Q 775 591 1075 516 
Q 1375 441 1709 441 
Q 2250 441 2565 725 
Q 2881 1009 2881 1497 
Q 2881 1984 2565 2268 
Q 2250 2553 1709 2553 
Q 1456 2553 1204 2497 
Q 953 2441 691 2322 
L 691 4666 
z
" transform="scale(0.015625)"/>
       </defs>
       <use xlink:href="#DejaVuSans-2212"/>
       <use xlink:href="#DejaVuSans-31" x="83.789062"/>
       <use xlink:href="#DejaVuSans-35" x="147.412109"/>
      </g>
     </g>
    </g>
    <g id="ytick_2">
     <g id="line2d_5">
      <g>
       <use xlink:href="#m7ec535951f" x="18" y="161.82" style="stroke: #000000; stroke-width: 0.8"/>
      </g>
     </g>
     <g id="text_5">
      <!-- −10 -->
      <g transform="translate(-10.104688 165.619219)scale(0.1 -0.1)">
       <use xlink:href="#DejaVuSans-2212"/>
       <use xlink:href="#DejaVuSans-31" x="83.789062"/>
       <use xlink:href="#DejaVuSans-30" x="147.412109"/>
      </g>
     </g>
    </g>
    <g id="ytick_3">
     <g id="line2d_6">
      <g>
       <use xlink:href="#m7ec535951f" x="18" y="134.64" style="stroke: #000000; stroke-width: 0.8"/>
      </g>
     </g>
     <g id="text_6">
      <!-- −5 -->
      <g transform="translate(-3.742188 138.439219)scale(0.1 -0.1)">
       <use xlink:href="#DejaVuSans-2212"/>
       <use xlink:href="#DejaVuSans-35" x="83.789062"/>
      </g>
     </g>
    </g>
    <g id="ytick_4">
     <g id="line2d_7">
      <g>
       <use xlink:href="#m7ec535951f" x="18" y="107.46" style="stroke: #000000; stroke-width: 0.8"/>
      </g>
     </g>
     <g id="text_7">
      <!-- 0 -->
      <g transform="translate(4.6375 111.259219)scale(0.1 -0.1)">
       <use xlink:href="#DejaVuSans-30"/>
      </g>
     </g>
    </g>
    <g id="ytick_5">
     <g id="line2d_8">
      <g>
       <use xlink:href="#m7ec535951f" x="18" y="80.28" style="stroke: #000000; stroke-width: 0.8"/>
      </g>
     </g>
     <g id="text_8">
      <!-- 5 -->
      <g transform="translate(4.6375 84.079219)scale(0.1 -0.1)">
       <use xlink:href="#DejaVuSans-35"/>
      </g>
     </g>
    </g>
    <g id="ytick_6">
     <g id="line2d_9">
      <g>
       <use xlink:href="#m7ec535951f" x="18" y="53.1" style="stroke: #000000; stroke-width: 0.8"/>
      </g>
     </g>
     <g id="text_9">
      <!-- 10 -->
      <g transform="translate(-1.725 56.899219)scale(0.1 -0.1)">
       <use xlink:href="#DejaVuSans-31"/>
       <use xlink:href="#DejaVuSans-30" x="63.623047"/>
      </g>
     </g>
    </g>
    <g id="ytick_7">
     <g id="line2d_10">
      <g>
       <use xlink:href="#m7ec535951f" x="18" y="25.92" style="stroke: #000000; stroke-width: 0.8"/>
      </g>
     </g>
     <g id="text_10">
      <!-- 15 -->
      <g transform="translate(-1.725 29.719219)scale(0.1 -0.1)">
       <use xlink:href="#DejaVuSans-31"/>
       <use xlink:href="#DejaVuSans-35" x="63.623047"/>
      </g>
     </g>
    </g>
   </g>
   <g id="patch_3">
    <path d="M 18 189 
L 18 25.92 
" style="fill: none; stroke: #000000; stroke-width: 0.8; stroke-linejoin: miter; stroke-linecap: square"/>
   </g>
   <g id="patch_4">
    <path d="M 129.6 189 
L 129.6 25.92 
" style="fill: none; stroke: #000000; stroke-width: 0.8; stroke-linejoin: miter; stroke-linecap: square"/>
   </g>
   <g id="patch_5">
    <path d="M 18 189 
L 129.6 189 
" style="fill: none; stroke: #000000; stroke-width: 0.8; stroke-linejoin: miter; stroke-linecap: square"/>
   </g>
   <g id="patch_6">
    <path d="M 18 25.92 
L 129.6 25.92 
" style="fill: none; stroke: #000000; stroke-width: 0.8; stroke-linejoin: miter; stroke-linecap: square"/>
   </g>
  </g>
 </g>
 <defs>
  <clipPath id="pafd3833fec">
   <rect x="18" y="25.92" width="111.6" height="163.08"/>
  </clipPath>
 </defs>
</svg>
