<?xml version="1.0" encoding="utf-8" standalone="no"?>
<!DOCTYPE svg PUBLIC "-//W3C//DTD SVG 1.1//EN"
  "http://www.w3.org/Graphics/SVG/1.1/DTD/svg11.dtd">
<svg xmlns:xlink="http://www.w3.org/1999/xlink" width="144pt" height="216pt" viewBox="0 0 144 216" xmlns="http://www.w3.org/2000/svg" version="1.1">
 <metadata>
  <rdf:RDF xmlns:dc="http://purl.org/dc/elements/1.1/" xmlns:cc="http://creativecommons.org/ns#" xmlns:rdf="http://www.w3.org/1999/02/22-rdf-syntax-ns#">
   <cc:Work>
    <dc:type rdf:resource="http://purl.org/dc/dcmitype/StillImage"/>
    <dc:date>2022-06-23T12:17:09.043454</dc:date>
    <dc:format>image/svg+xml</dc:format>
    <dc:creator>
     <cc:Agent>
      <dc:title>Matplotlib v3.5.1, https://matplotlib.org/</dc:title>
     </cc:Agent>
    </dc:creator>
   </cc:Work>
  </rdf:RDF>
 </metadata>
 <defs>
  <style type="text/css">*{stroke-linejoin: round; stroke-linecap: butt}</style>
 </defs>
 <g id="figure_1">
  <g id="patch_1">
   <path d="M 0 216 
L 144 216 
L 144 0 
L 0 0 
L 0 216 
z
" style="fill: none"/>
  </g>
  <g id="axes_1">
   <g id="patch_2">
    <path d="M 18 189 
L 129.6 189 
L 129.6 25.92 
L 18 25.92 
z
" style="fill: #ffffff"/>
   </g>
   <g id="PathCollection_1">
    <defs>
     <path id="m9a07520a82" d="M 0 2.738613 
C 0.726289 2.738613 1.422928 2.450055 1.936492 1.936492 
C 2.450055 1.422928 2.738613 0.726289 2.738613 0 
C 2.738613 -0.726289 2.450055 -1.422928 1.936492 -1.936492 
C 1.422928 -2.450055 0.726289 -2.738613 0 -2.738613 
C -0.726289 -2.738613 -1.422928 -2.450055 -1.936492 -1.936492 
C -2.450055 -1.422928 -2.738613 -0.726289 -2.738613 0 
C -2.738613 0.726289 -2.450055 1.422928 -1.936492 1.936492 
C -1.422928 2.450055 -0.726289 2.738613 0 2.738613 
z
" style="stroke: #ff0000; stroke-width: 1.75"/>
    </defs>
    <g clip-path="url(#p27021bf521)">
     <use xlink:href="#m9a07520a82" x="80.775" y="107.46" style="fill: #ff0000; stroke: #ff0000; stroke-width: 1.75"/>
     <use xlink:href="#m9a07520a82" x="94.725" y="107.46" style="fill: #ff0000; stroke: #ff0000; stroke-width: 1.75"/>
     <use xlink:href="#m9a07520a82" x="59.85" y="119.229285" style="fill: #ff0000; stroke: #ff0000; stroke-width: 1.75"/>
     <use xlink:href="#m9a07520a82" x="73.8" y="119.229285" style="fill: #ff0000; stroke: #ff0000; stroke-width: 1.75"/>
     <use xlink:href="#m9a07520a82" x="87.75" y="119.229285" style="fill: #ff0000; stroke: #ff0000; stroke-width: 1.75"/>
     <use xlink:href="#m9a07520a82" x="66.825" y="130.99857" style="fill: #ff0000; stroke: #ff0000; stroke-width: 1.75"/>
     <use xlink:href="#m9a07520a82" x="80.775" y="130.99857" style="fill: #ff0000; stroke: #ff0000; stroke-width: 1.75"/>
    </g>
   </g>
   <g id="PathCollection_2">
    <defs>
     <path id="C0_0_ae75011d0c" d="M 0 2.738613 
C 0.726289 2.738613 1.422928 2.450055 1.936492 1.936492 
C 2.450055 1.422928 2.738613 0.726289 2.738613 -0 
C 2.738613 -0.726289 2.450055 -1.422928 1.936492 -1.936492 
C 1.422928 -2.450055 0.726289 -2.738613 0 -2.738613 
C -0.726289 -2.738613 -1.422928 -2.450055 -1.936492 -1.936492 
C -2.450055 -1.422928 -2.738613 -0.726289 -2.738613 0 
C -2.738613 0.726289 -2.450055 1.422928 -1.936492 1.936492 
C -1.422928 2.450055 -0.726289 2.738613 0 2.738613 
z
"/>
    </defs>
    <g clip-path="url(#p27021bf521)">
     <use xlink:href="#C0_0_ae75011d0c" x="66.825" y="83.92143" style="fill: none; stroke: #ff0000; stroke-width: 1.75"/>
    </g>
    <g clip-path="url(#p27021bf521)">
     <use xlink:href="#C0_0_ae75011d0c" x="80.775" y="83.92143" style="fill: none; stroke: #ff0000; stroke-width: 1.75"/>
    </g>
    <g clip-path="url(#p27021bf521)">
     <use xlink:href="#C0_0_ae75011d0c" x="59.85" y="95.690715" style="fill: none; stroke: #ff0000; stroke-width: 1.75"/>
    </g>
    <g clip-path="url(#p27021bf521)">
     <use xlink:href="#C0_0_ae75011d0c" x="73.8" y="95.690715" style="fill: none; stroke: #ff0000; stroke-width: 1.75"/>
    </g>
    <g clip-path="url(#p27021bf521)">
     <use xlink:href="#C0_0_ae75011d0c" x="87.75" y="95.690715" style="fill: none; stroke: #ff0000; stroke-width: 1.75"/>
    </g>
    <g clip-path="url(#p27021bf521)">
     <use xlink:href="#C0_0_ae75011d0c" x="52.875" y="107.46" style="fill: none; stroke: #ff0000; stroke-width: 1.75"/>
    </g>
    <g clip-path="url(#p27021bf521)">
     <use xlink:href="#C0_0_ae75011d0c" x="66.825" y="107.46" style="fill: none; stroke: #ff0000; stroke-width: 1.75"/>
    </g>
   </g>
   <g id="PathCollection_3">
    <path d="M 105.720289 59.818761 
C 106.313671 59.818761 106.88283 59.583008 107.302415 59.163423 
C 107.722 58.743839 107.957753 58.17468 107.957753 57.581297 
C 107.957753 56.987915 107.722 56.418756 107.302415 55.999171 
C 106.88283 55.579586 106.313671 55.343833 105.720289 55.343833 
C 105.126906 55.343833 104.557747 55.579586 104.138163 55.999171 
C 103.718578 56.418756 103.482824 56.987915 103.482824 57.581297 
C 103.482824 58.17468 103.718578 58.743839 104.138163 59.163423 
C 104.557747 59.583008 105.126906 59.818761 105.720289 59.818761 
z
" clip-path="url(#p27021bf521)" style="stroke: #000000"/>
    <path d="M 116.306218 126.979372 
C 117.011432 126.979372 117.687858 126.699187 118.18652 126.200525 
C 118.685181 125.701864 118.965366 125.025438 118.965366 124.320224 
C 118.965366 123.615009 118.685181 122.938584 118.18652 122.439922 
C 117.687858 121.94126 117.011432 121.661076 116.306218 121.661076 
C 115.601004 121.661076 114.924578 121.94126 114.425916 122.439922 
C 113.927255 122.938584 113.64707 123.615009 113.64707 124.320224 
C 113.64707 125.025438 113.927255 125.701864 114.425916 126.200525 
C 114.924578 126.699187 115.601004 126.979372 116.306218 126.979372 
z
" clip-path="url(#p27021bf521)" style="stroke: #000000"/>
    <path d="M 113.318008 108.397695 
C 114.023222 108.397695 114.699647 108.11751 115.198309 107.618849 
C 115.696971 107.120187 115.977156 106.443761 115.977156 105.738547 
C 115.977156 105.033333 115.696971 104.356907 115.198309 103.858246 
C 114.699647 103.359584 114.023222 103.079399 113.318008 103.079399 
C 112.612793 103.079399 111.936368 103.359584 111.437706 103.858246 
C 110.939044 104.356907 110.65886 105.033333 110.65886 105.738547 
C 110.65886 106.443761 110.939044 107.120187 111.437706 107.618849 
C 111.936368 108.11751 112.612793 108.397695 113.318008 108.397695 
z
" clip-path="url(#p27021bf521)" style="stroke: #000000"/>
    <path d="M 111.136447 101.432774 
C 111.136447 101.432774 111.136447 101.432774 111.136447 101.432774 
C 111.136447 101.432774 111.136447 101.432774 111.136447 101.432774 
C 111.136447 101.432774 111.136447 101.432774 111.136447 101.432774 
C 111.136447 101.432774 111.136447 101.432774 111.136447 101.432774 
C 111.136447 101.432774 111.136447 101.432774 111.136447 101.432774 
C 111.136447 101.432774 111.136447 101.432774 111.136447 101.432774 
C 111.136447 101.432774 111.136447 101.432774 111.136447 101.432774 
C 111.136447 101.432774 111.136447 101.432774 111.136447 101.432774 
z
" clip-path="url(#p27021bf521)" style="stroke: #000000"/>
    <path d="M 108.505215 88.332417 
C 108.932684 88.332417 109.342702 88.162582 109.644969 87.860316 
C 109.947235 87.55805 110.11707 87.148031 110.11707 86.720562 
C 110.11707 86.293093 109.947235 85.883075 109.644969 85.580809 
C 109.342702 85.278543 108.932684 85.108707 108.505215 85.108707 
C 108.077746 85.108707 107.667728 85.278543 107.365462 85.580809 
C 107.063195 85.883075 106.89336 86.293093 106.89336 86.720562 
C 106.89336 87.148031 107.063195 87.55805 107.365462 87.860316 
C 107.667728 88.162582 108.077746 88.332417 108.505215 88.332417 
z
" clip-path="url(#p27021bf521)" style="stroke: #000000"/>
    <path d="M 105.850867 84.172263 
C 106.331773 84.172263 106.793047 83.981197 107.133099 83.641145 
C 107.473151 83.301093 107.664216 82.839819 107.664216 82.358913 
C 107.664216 81.878007 107.473151 81.416733 107.133099 81.076681 
C 106.793047 80.73663 106.331773 80.545564 105.850867 80.545564 
C 105.369961 80.545564 104.908687 80.73663 104.568635 81.076681 
C 104.228583 81.416733 104.037517 81.878007 104.037517 82.358913 
C 104.037517 82.839819 104.228583 83.301093 104.568635 83.641145 
C 104.908687 83.981197 105.369961 84.172263 105.850867 84.172263 
z
" clip-path="url(#p27021bf521)" style="stroke: #000000"/>
    <path d="M 97.637708 73.381471 
C 98.342922 73.381471 99.019348 73.101287 99.51801 72.602625 
C 100.016671 72.103963 100.296856 71.427538 100.296856 70.722323 
C 100.296856 70.017109 100.016671 69.340684 99.51801 68.842022 
C 99.019348 68.34336 98.342922 68.063176 97.637708 68.063176 
C 96.932494 68.063176 96.256068 68.34336 95.757407 68.842022 
C 95.258745 69.340684 94.97856 70.017109 94.97856 70.722323 
C 94.97856 71.427538 95.258745 72.103963 95.757407 72.602625 
C 96.256068 73.101287 96.932494 73.381471 97.637708 73.381471 
z
" clip-path="url(#p27021bf521)" style="stroke: #000000"/>
    <path d="M 95.635892 60.777126 
C 95.768494 60.777126 95.895682 60.724443 95.989446 60.630679 
C 96.083209 60.536916 96.135892 60.409727 96.135892 60.277126 
C 96.135892 60.144524 96.083209 60.017336 95.989446 59.923572 
C 95.895682 59.829809 95.768494 59.777126 95.635892 59.777126 
C 95.503291 59.777126 95.376102 59.829809 95.282339 59.923572 
C 95.188575 60.017336 95.135892 60.144524 95.135892 60.277126 
C 95.135892 60.409727 95.188575 60.536916 95.282339 60.630679 
C 95.376102 60.724443 95.503291 60.777126 95.635892 60.777126 
z
" clip-path="url(#p27021bf521)" style="stroke: #000000"/>
    <path d="M 91.801901 46.514623 
C 91.801901 46.514623 91.801901 46.514623 91.801901 46.514623 
C 91.801901 46.514623 91.801901 46.514623 91.801901 46.514623 
C 91.801901 46.514623 91.801901 46.514623 91.801901 46.514623 
C 91.801901 46.514623 91.801901 46.514623 91.801901 46.514623 
C 91.801901 46.514623 91.801901 46.514623 91.801901 46.514623 
C 91.801901 46.514623 91.801901 46.514623 91.801901 46.514623 
C 91.801901 46.514623 91.801901 46.514623 91.801901 46.514623 
C 91.801901 46.514623 91.801901 46.514623 91.801901 46.514623 
z
" clip-path="url(#p27021bf521)" style="stroke: #000000"/>
    <path d="M 119.107596 163.112864 
C 119.107596 163.112864 119.107596 163.112864 119.107596 163.112864 
C 119.107596 163.112864 119.107596 163.112864 119.107596 163.112864 
C 119.107596 163.112864 119.107596 163.112864 119.107596 163.112864 
C 119.107596 163.112864 119.107596 163.112864 119.107596 163.112864 
C 119.107596 163.112864 119.107596 163.112864 119.107596 163.112864 
C 119.107596 163.112864 119.107596 163.112864 119.107596 163.112864 
C 119.107596 163.112864 119.107596 163.112864 119.107596 163.112864 
C 119.107596 163.112864 119.107596 163.112864 119.107596 163.112864 
z
" clip-path="url(#p27021bf521)" style="stroke: #000000"/>
    <path d="M 112.928961 156.187315 
C 113.528893 156.187315 114.104334 155.94896 114.528551 155.524744 
C 114.952767 155.100527 115.191122 154.525086 115.191122 153.925154 
C 115.191122 153.325222 114.952767 152.749781 114.528551 152.325565 
C 114.104334 151.901349 113.528893 151.662993 112.928961 151.662993 
C 112.329029 151.662993 111.753588 151.901349 111.329372 152.325565 
C 110.905156 152.749781 110.6668 153.325222 110.6668 153.925154 
C 110.6668 154.525086 110.905156 155.100527 111.329372 155.524744 
C 111.753588 155.94896 112.329029 156.187315 112.928961 156.187315 
z
" clip-path="url(#p27021bf521)" style="stroke: #000000"/>
    <path d="M 115.379334 147.332275 
C 116.082334 147.332275 116.756635 147.05297 117.253732 146.555874 
C 117.750828 146.058778 118.030133 145.384476 118.030133 144.681476 
C 118.030133 143.978476 117.750828 143.304174 117.253732 142.807078 
C 116.756635 142.309982 116.082334 142.030677 115.379334 142.030677 
C 114.676334 142.030677 114.002032 142.309982 113.504936 142.807078 
C 113.00784 143.304174 112.728535 143.978476 112.728535 144.681476 
C 112.728535 145.384476 113.00784 146.058778 113.504936 146.555874 
C 114.002032 147.05297 114.676334 147.332275 115.379334 147.332275 
z
" clip-path="url(#p27021bf521)" style="stroke: #000000"/>
    <path d="M 111.119797 133.227565 
C 111.825232 133.227565 112.501868 132.947293 113.000686 132.448475 
C 113.499503 131.949658 113.779776 131.273021 113.779776 130.567586 
C 113.779776 129.862152 113.499503 129.185515 113.000686 128.686698 
C 112.501868 128.18788 111.825232 127.907608 111.119797 127.907608 
C 110.414362 127.907608 109.737726 128.18788 109.238908 128.686698 
C 108.740091 129.185515 108.459818 129.862152 108.459818 130.567586 
C 108.459818 131.273021 108.740091 131.949658 109.238908 132.448475 
C 109.737726 132.947293 110.414362 133.227565 111.119797 133.227565 
z
" clip-path="url(#p27021bf521)" style="stroke: #000000"/>
    <path d="M 109.051857 127.989539 
C 109.757291 127.989539 110.433928 127.709267 110.932746 127.21045 
C 111.431563 126.711632 111.711835 126.034995 111.711835 125.329561 
C 111.711835 124.624126 111.431563 123.94749 110.932746 123.448672 
C 110.433928 122.949854 109.757291 122.669582 109.051857 122.669582 
C 108.346422 122.669582 107.669785 122.949854 107.170968 123.448672 
C 106.67215 123.94749 106.391878 124.624126 106.391878 125.329561 
C 106.391878 126.034995 106.67215 126.711632 107.170968 127.21045 
C 107.669785 127.709267 108.346422 127.989539 109.051857 127.989539 
z
" clip-path="url(#p27021bf521)" style="stroke: #000000"/>
    <path d="M 103.757187 111.433798 
C 104.462401 111.433798 105.138827 111.153614 105.637488 110.654952 
C 106.13615 110.15629 106.416335 109.479864 106.416335 108.77465 
C 106.416335 108.069436 106.13615 107.39301 105.637488 106.894349 
C 105.138827 106.395687 104.462401 106.115502 103.757187 106.115502 
C 103.051973 106.115502 102.375547 106.395687 101.876885 106.894349 
C 101.378223 107.39301 101.098039 108.069436 101.098039 108.77465 
C 101.098039 109.479864 101.378223 110.15629 101.876885 110.654952 
C 102.375547 111.153614 103.051973 111.433798 103.757187 111.433798 
z
" clip-path="url(#p27021bf521)" style="stroke: #000000"/>
    <path d="M 100.481304 102.774374 
C 101.186518 102.774374 101.862944 102.494189 102.361605 101.995527 
C 102.860267 101.496865 103.140452 100.82044 103.140452 100.115226 
C 103.140452 99.410011 102.860267 98.733586 102.361605 98.234924 
C 101.862944 97.736262 101.186518 97.456078 100.481304 97.456078 
C 99.77609 97.456078 99.099664 97.736262 98.601002 98.234924 
C 98.102341 98.733586 97.822156 99.410011 97.822156 100.115226 
C 97.822156 100.82044 98.102341 101.496865 98.601002 101.995527 
C 99.099664 102.494189 99.77609 102.774374 100.481304 102.774374 
z
" clip-path="url(#p27021bf521)" style="stroke: #000000"/>
    <path d="M 96.090063 94.999368 
C 96.795497 94.999368 97.472134 94.719096 97.970951 94.220278 
C 98.469769 93.721461 98.750041 93.044824 98.750041 92.339389 
C 98.750041 91.633955 98.469769 90.957318 97.970951 90.4585 
C 97.472134 89.959683 96.795497 89.679411 96.090063 89.679411 
C 95.384628 89.679411 94.707991 89.959683 94.209174 90.4585 
C 93.710356 90.957318 93.430084 91.633955 93.430084 92.339389 
C 93.430084 93.044824 93.710356 93.721461 94.209174 94.220278 
C 94.707991 94.719096 95.384628 94.999368 96.090063 94.999368 
z
" clip-path="url(#p27021bf521)" style="stroke: #000000"/>
    <path d="M 92.903645 85.646857 
C 93.609079 85.646857 94.285716 85.366585 94.784533 84.867768 
C 95.283351 84.36895 95.563623 83.692314 95.563623 82.986879 
C 95.563623 82.281444 95.283351 81.604808 94.784533 81.10599 
C 94.285716 80.607173 93.609079 80.3269 92.903645 80.3269 
C 92.19821 80.3269 91.521573 80.607173 91.022756 81.10599 
C 90.523938 81.604808 90.243666 82.281444 90.243666 82.986879 
C 90.243666 83.692314 90.523938 84.36895 91.022756 84.867768 
C 91.521573 85.366585 92.19821 85.646857 92.903645 85.646857 
z
" clip-path="url(#p27021bf521)" style="stroke: #000000"/>
    <path d="M 85.515222 75.597534 
C 86.220657 75.597534 86.897294 75.317262 87.396111 74.818444 
C 87.894929 74.319627 88.175201 73.64299 88.175201 72.937556 
C 88.175201 72.232121 87.894929 71.555484 87.396111 71.056667 
C 86.897294 70.557849 86.220657 70.277577 85.515222 70.277577 
C 84.809788 70.277577 84.133151 70.557849 83.634333 71.056667 
C 83.135516 71.555484 82.855244 72.232121 82.855244 72.937556 
C 82.855244 73.64299 83.135516 74.319627 83.634333 74.818444 
C 84.133151 75.317262 84.809788 75.597534 85.515222 75.597534 
z
" clip-path="url(#p27021bf521)" style="stroke: #000000"/>
    <path d="M 90.07014 60.787156 
C 90.684239 60.787156 91.273268 60.543172 91.707501 60.108938 
C 92.141735 59.674705 92.385719 59.085676 92.385719 58.471577 
C 92.385719 57.857479 92.141735 57.26845 91.707501 56.834216 
C 91.273268 56.399983 90.684239 56.155999 90.07014 56.155999 
C 89.456042 56.155999 88.867013 56.399983 88.432779 56.834216 
C 87.998546 57.26845 87.754562 57.857479 87.754562 58.471577 
C 87.754562 59.085676 87.998546 59.674705 88.432779 60.108938 
C 88.867013 60.543172 89.456042 60.787156 90.07014 60.787156 
z
" clip-path="url(#p27021bf521)" style="stroke: #000000"/>
    <path d="M 79.826109 54.58268 
C 80.419491 54.58268 80.98865 54.346926 81.408235 53.927342 
C 81.82782 53.507757 82.063573 52.938598 82.063573 52.345215 
C 82.063573 51.751833 81.82782 51.182674 81.408235 50.763089 
C 80.98865 50.343505 80.419491 50.107751 79.826109 50.107751 
C 79.232727 50.107751 78.663568 50.343505 78.243983 50.763089 
C 77.824398 51.182674 77.588645 51.751833 77.588645 52.345215 
C 77.588645 52.938598 77.824398 53.507757 78.243983 53.927342 
C 78.663568 54.346926 79.232727 54.58268 79.826109 54.58268 
z
" clip-path="url(#p27021bf521)" style="stroke: #000000"/>
    <path d="M 79.098925 43.508193 
C 79.098925 43.508193 79.098925 43.508193 79.098925 43.508193 
C 79.098925 43.508193 79.098925 43.508193 79.098925 43.508193 
C 79.098925 43.508193 79.098925 43.508193 79.098925 43.508193 
C 79.098925 43.508193 79.098925 43.508193 79.098925 43.508193 
C 79.098925 43.508193 79.098925 43.508193 79.098925 43.508193 
C 79.098925 43.508193 79.098925 43.508193 79.098925 43.508193 
C 79.098925 43.508193 79.098925 43.508193 79.098925 43.508193 
C 79.098925 43.508193 79.098925 43.508193 79.098925 43.508193 
z
" clip-path="url(#p27021bf521)" style="stroke: #000000"/>
    <path d="M 71.477619 28.112219 
C 72.071001 28.112219 72.64016 27.876466 73.059745 27.456881 
C 73.47933 27.037296 73.715083 26.468138 73.715083 25.874755 
C 73.715083 25.281373 73.47933 24.712214 73.059745 24.292629 
C 72.64016 23.873044 72.071001 23.637291 71.477619 23.637291 
C 70.884236 23.637291 70.315078 23.873044 69.895493 24.292629 
C 69.475908 24.712214 69.240155 25.281373 69.240155 25.874755 
C 69.240155 26.468138 69.475908 27.037296 69.895493 27.456881 
C 70.315078 27.876466 70.884236 28.112219 71.477619 28.112219 
z
" clip-path="url(#p27021bf521)" style="stroke: #000000"/>
    <path d="M 115.974616 176.367299 
C 115.974616 176.367299 115.974616 176.367299 115.974616 176.367299 
C 115.974616 176.367299 115.974616 176.367299 115.974616 176.367299 
C 115.974616 176.367299 115.974616 176.367299 115.974616 176.367299 
C 115.974616 176.367299 115.974616 176.367299 115.974616 176.367299 
C 115.974616 176.367299 115.974616 176.367299 115.974616 176.367299 
C 115.974616 176.367299 115.974616 176.367299 115.974616 176.367299 
C 115.974616 176.367299 115.974616 176.367299 115.974616 176.367299 
C 115.974616 176.367299 115.974616 176.367299 115.974616 176.367299 
z
" clip-path="url(#p27021bf521)" style="stroke: #000000"/>
    <path d="M 113.009955 168.56276 
C 113.603338 168.56276 114.172497 168.327006 114.592081 167.907422 
C 115.011666 167.487837 115.247419 166.918678 115.247419 166.325296 
C 115.247419 165.731913 115.011666 165.162754 114.592081 164.743169 
C 114.172497 164.323585 113.603338 164.087831 113.009955 164.087831 
C 112.416573 164.087831 111.847414 164.323585 111.427829 164.743169 
C 111.008244 165.162754 110.772491 165.731913 110.772491 166.325296 
C 110.772491 166.918678 111.008244 167.487837 111.427829 167.907422 
C 111.847414 168.327006 112.416573 168.56276 113.009955 168.56276 
z
" clip-path="url(#p27021bf521)" style="stroke: #000000"/>
    <path d="M 109.448494 157.268886 
C 109.448494 157.268886 109.448494 157.268886 109.448494 157.268886 
C 109.448494 157.268886 109.448494 157.268886 109.448494 157.268886 
C 109.448494 157.268886 109.448494 157.268886 109.448494 157.268886 
C 109.448494 157.268886 109.448494 157.268886 109.448494 157.268886 
C 109.448494 157.268886 109.448494 157.268886 109.448494 157.268886 
C 109.448494 157.268886 109.448494 157.268886 109.448494 157.268886 
C 109.448494 157.268886 109.448494 157.268886 109.448494 157.268886 
C 109.448494 157.268886 109.448494 157.268886 109.448494 157.268886 
z
" clip-path="url(#p27021bf521)" style="stroke: #000000"/>
    <path d="M 101.130752 152.061328 
C 101.836187 152.061328 102.512823 151.781056 103.011641 151.282239 
C 103.510459 150.783421 103.790731 150.106784 103.790731 149.40135 
C 103.790731 148.695915 103.510459 148.019278 103.011641 147.520461 
C 102.512823 147.021643 101.836187 146.741371 101.130752 146.741371 
C 100.425318 146.741371 99.748681 147.021643 99.249863 147.520461 
C 98.751046 148.019278 98.470774 148.695915 98.470774 149.40135 
C 98.470774 150.106784 98.751046 150.783421 99.249863 151.282239 
C 99.748681 151.781056 100.425318 152.061328 101.130752 152.061328 
z
" clip-path="url(#p27021bf521)" style="stroke: #000000"/>
    <path d="M 99.22774 141.074889 
C 99.933174 141.074889 100.609811 140.794617 101.108628 140.2958 
C 101.607446 139.796982 101.887718 139.120345 101.887718 138.414911 
C 101.887718 137.709476 101.607446 137.032839 101.108628 136.534022 
C 100.609811 136.035204 99.933174 135.754932 99.22774 135.754932 
C 98.522305 135.754932 97.845668 136.035204 97.346851 136.534022 
C 96.848033 137.032839 96.567761 137.709476 96.567761 138.414911 
C 96.567761 139.120345 96.848033 139.796982 97.346851 140.2958 
C 97.845668 140.794617 98.522305 141.074889 99.22774 141.074889 
z
" clip-path="url(#p27021bf521)" style="stroke: #000000"/>
    <path d="M 100.277804 129.338422 
C 100.836879 129.338422 101.373132 129.116299 101.768458 128.720973 
C 102.163784 128.325647 102.385907 127.789395 102.385907 127.23032 
C 102.385907 126.671244 102.163784 126.134992 101.768458 125.739666 
C 101.373132 125.34434 100.836879 125.122217 100.277804 125.122217 
C 99.718729 125.122217 99.182476 125.34434 98.78715 125.739666 
C 98.391824 126.134992 98.169701 126.671244 98.169701 127.23032 
C 98.169701 127.789395 98.391824 128.325647 98.78715 128.720973 
C 99.182476 129.116299 99.718729 129.338422 100.277804 129.338422 
z
" clip-path="url(#p27021bf521)" style="stroke: #000000"/>
    <path d="M 91.226147 121.010869 
C 91.931582 121.010869 92.608218 120.730597 93.107036 120.231779 
C 93.605854 119.732962 93.886126 119.056325 93.886126 118.35089 
C 93.886126 117.645456 93.605854 116.968819 93.107036 116.470002 
C 92.608218 115.971184 91.931582 115.690912 91.226147 115.690912 
C 90.520713 115.690912 89.844076 115.971184 89.345258 116.470002 
C 88.846441 116.968819 88.566169 117.645456 88.566169 118.35089 
C 88.566169 119.056325 88.846441 119.732962 89.345258 120.231779 
C 89.844076 120.730597 90.520713 121.010869 91.226147 121.010869 
z
" clip-path="url(#p27021bf521)" style="stroke: #000000"/>
    <path d="M 90.322307 106.678205 
C 91.027742 106.678205 91.704379 106.397933 92.203196 105.899115 
C 92.702014 105.400298 92.982286 104.723661 92.982286 104.018226 
C 92.982286 103.312792 92.702014 102.636155 92.203196 102.137337 
C 91.704379 101.63852 91.027742 101.358248 90.322307 101.358248 
C 89.616873 101.358248 88.940236 101.63852 88.441419 102.137337 
C 87.942601 102.636155 87.662329 103.312792 87.662329 104.018226 
C 87.662329 104.723661 87.942601 105.400298 88.441419 105.899115 
C 88.940236 106.397933 89.616873 106.678205 90.322307 106.678205 
z
" clip-path="url(#p27021bf521)" style="stroke: #000000"/>
    <path d="M 86.263886 98.801225 
C 86.789568 98.801225 87.29379 98.59237 87.665503 98.220657 
C 88.037216 97.848944 88.246071 97.344722 88.246071 96.81904 
C 88.246071 96.293358 88.037216 95.789136 87.665503 95.417423 
C 87.29379 95.04571 86.789568 94.836855 86.263886 94.836855 
C 85.738205 94.836855 85.233983 95.04571 84.86227 95.417423 
C 84.490556 95.789136 84.281701 96.293358 84.281701 96.81904 
C 84.281701 97.344722 84.490556 97.848944 84.86227 98.220657 
C 85.233983 98.59237 85.738205 98.801225 86.263886 98.801225 
z
" clip-path="url(#p27021bf521)" style="stroke: #000000"/>
    <path d="M 82.390562 87.183281 
C 82.912479 87.183281 83.41309 86.975921 83.782141 86.60687 
C 84.151192 86.237819 84.358551 85.737208 84.358551 85.215291 
C 84.358551 84.693374 84.151192 84.192764 83.782141 83.823713 
C 83.41309 83.454662 82.912479 83.247302 82.390562 83.247302 
C 81.868645 83.247302 81.368034 83.454662 80.998983 83.823713 
C 80.629932 84.192764 80.422572 84.693374 80.422572 85.215291 
C 80.422572 85.737208 80.629932 86.237819 80.998983 86.60687 
C 81.368034 86.975921 81.868645 87.183281 82.390562 87.183281 
z
" clip-path="url(#p27021bf521)" style="stroke: #000000"/>
    <path d="M 78.748842 80.317272 
C 79.309678 80.317272 79.847619 80.094449 80.24419 79.697878 
C 80.640761 79.301307 80.863584 78.763366 80.863584 78.202529 
C 80.863584 77.641693 80.640761 77.103752 80.24419 76.707181 
C 79.847619 76.31061 79.309678 76.087787 78.748842 76.087787 
C 78.188005 76.087787 77.650064 76.31061 77.253493 76.707181 
C 76.856922 77.103752 76.634099 77.641693 76.634099 78.202529 
C 76.634099 78.763366 76.856922 79.301307 77.253493 79.697878 
C 77.650064 80.094449 78.188005 80.317272 78.748842 80.317272 
z
" clip-path="url(#p27021bf521)" style="stroke: #000000"/>
    <path d="M 75.287939 62.462552 
C 75.287939 62.462552 75.287939 62.462552 75.287939 62.462552 
C 75.287939 62.462552 75.287939 62.462552 75.287939 62.462552 
C 75.287939 62.462552 75.287939 62.462552 75.287939 62.462552 
C 75.287939 62.462552 75.287939 62.462552 75.287939 62.462552 
C 75.287939 62.462552 75.287939 62.462552 75.287939 62.462552 
C 75.287939 62.462552 75.287939 62.462552 75.287939 62.462552 
C 75.287939 62.462552 75.287939 62.462552 75.287939 62.462552 
C 75.287939 62.462552 75.287939 62.462552 75.287939 62.462552 
z
" clip-path="url(#p27021bf521)" style="stroke: #000000"/>
    <path d="M 72.17439 53.515533 
C 72.767402 53.515533 73.336206 53.279927 73.755529 52.860604 
C 74.174852 52.441281 74.410458 51.872478 74.410458 51.279465 
C 74.410458 50.686453 74.174852 50.117649 73.755529 49.698327 
C 73.336206 49.279004 72.767402 49.043397 72.17439 49.043397 
C 71.581378 49.043397 71.012574 49.279004 70.593251 49.698327 
C 70.173928 50.117649 69.938322 50.686453 69.938322 51.279465 
C 69.938322 51.872478 70.173928 52.441281 70.593251 52.860604 
C 71.012574 53.279927 71.581378 53.515533 72.17439 53.515533 
z
" clip-path="url(#p27021bf521)" style="stroke: #000000"/>
    <path d="M 65.936606 41.948098 
C 65.936606 41.948098 65.936606 41.948098 65.936606 41.948098 
C 65.936606 41.948098 65.936606 41.948098 65.936606 41.948098 
C 65.936606 41.948098 65.936606 41.948098 65.936606 41.948098 
C 65.936606 41.948098 65.936606 41.948098 65.936606 41.948098 
C 65.936606 41.948098 65.936606 41.948098 65.936606 41.948098 
C 65.936606 41.948098 65.936606 41.948098 65.936606 41.948098 
C 65.936606 41.948098 65.936606 41.948098 65.936606 41.948098 
C 65.936606 41.948098 65.936606 41.948098 65.936606 41.948098 
z
" clip-path="url(#p27021bf521)" style="stroke: #000000"/>
    <path d="M 65.524276 33.146254 
C 65.524276 33.146254 65.524276 33.146254 65.524276 33.146254 
C 65.524276 33.146254 65.524276 33.146254 65.524276 33.146254 
C 65.524276 33.146254 65.524276 33.146254 65.524276 33.146254 
C 65.524276 33.146254 65.524276 33.146254 65.524276 33.146254 
C 65.524276 33.146254 65.524276 33.146254 65.524276 33.146254 
C 65.524276 33.146254 65.524276 33.146254 65.524276 33.146254 
C 65.524276 33.146254 65.524276 33.146254 65.524276 33.146254 
C 65.524276 33.146254 65.524276 33.146254 65.524276 33.146254 
z
" clip-path="url(#p27021bf521)" style="stroke: #000000"/>
    <path d="M 62.545257 25.595664 
C 62.545257 25.595664 62.545257 25.595664 62.545257 25.595664 
C 62.545257 25.595664 62.545257 25.595664 62.545257 25.595664 
C 62.545257 25.595664 62.545257 25.595664 62.545257 25.595664 
C 62.545257 25.595664 62.545257 25.595664 62.545257 25.595664 
C 62.545257 25.595664 62.545257 25.595664 62.545257 25.595664 
C 62.545257 25.595664 62.545257 25.595664 62.545257 25.595664 
C 62.545257 25.595664 62.545257 25.595664 62.545257 25.595664 
C 62.545257 25.595664 62.545257 25.595664 62.545257 25.595664 
z
" clip-path="url(#p27021bf521)" style="stroke: #000000"/>
    <path d="M 102.982342 179.099374 
C 102.982342 179.099374 102.982342 179.099374 102.982342 179.099374 
C 102.982342 179.099374 102.982342 179.099374 102.982342 179.099374 
C 102.982342 179.099374 102.982342 179.099374 102.982342 179.099374 
C 102.982342 179.099374 102.982342 179.099374 102.982342 179.099374 
C 102.982342 179.099374 102.982342 179.099374 102.982342 179.099374 
C 102.982342 179.099374 102.982342 179.099374 102.982342 179.099374 
C 102.982342 179.099374 102.982342 179.099374 102.982342 179.099374 
C 102.982342 179.099374 102.982342 179.099374 102.982342 179.099374 
z
" clip-path="url(#p27021bf521)" style="stroke: #000000"/>
    <path d="M 104.712765 174.633983 
C 105.305777 174.633983 105.874581 174.398377 106.293904 173.979054 
C 106.713227 173.559731 106.948833 172.990927 106.948833 172.397915 
C 106.948833 171.804903 106.713227 171.236099 106.293904 170.816776 
C 105.874581 170.397453 105.305777 170.161847 104.712765 170.161847 
C 104.119753 170.161847 103.550949 170.397453 103.131626 170.816776 
C 102.712303 171.236099 102.476697 171.804903 102.476697 172.397915 
C 102.476697 172.990927 102.712303 173.559731 103.131626 173.979054 
C 103.550949 174.398377 104.119753 174.633983 104.712765 174.633983 
z
" clip-path="url(#p27021bf521)" style="stroke: #000000"/>
    <path d="M 100.395918 164.810748 
C 101.057862 164.810748 101.692784 164.547755 102.160849 164.07969 
C 102.628915 163.611624 102.891908 162.976702 102.891908 162.314758 
C 102.891908 161.652814 102.628915 161.017892 102.160849 160.549826 
C 101.692784 160.081761 101.057862 159.818768 100.395918 159.818768 
C 99.733973 159.818768 99.099051 160.081761 98.630986 160.549826 
C 98.162921 161.017892 97.899927 161.652814 97.899927 162.314758 
C 97.899927 162.976702 98.162921 163.611624 98.630986 164.07969 
C 99.099051 164.547755 99.733973 164.810748 100.395918 164.810748 
z
" clip-path="url(#p27021bf521)" style="stroke: #000000"/>
    <path d="M 92.170591 151.003384 
C 92.671727 151.003384 93.152406 150.80428 93.506763 150.449923 
C 93.86112 150.095566 94.060224 149.614887 94.060224 149.11375 
C 94.060224 148.612614 93.86112 148.131935 93.506763 147.777578 
C 93.152406 147.423221 92.671727 147.224117 92.170591 147.224117 
C 91.669454 147.224117 91.188775 147.423221 90.834418 147.777578 
C 90.480061 148.131935 90.280957 148.612614 90.280957 149.11375 
C 90.280957 149.614887 90.480061 150.095566 90.834418 150.449923 
C 91.188775 150.80428 91.669454 151.003384 92.170591 151.003384 
z
" clip-path="url(#p27021bf521)" style="stroke: #000000"/>
    <path d="M 90.595342 146.191366 
C 91.300776 146.191366 91.977413 145.911094 92.476231 145.412277 
C 92.975048 144.913459 93.25532 144.236823 93.25532 143.531388 
C 93.25532 142.825953 92.975048 142.149317 92.476231 141.650499 
C 91.977413 141.151682 91.300776 140.871409 90.595342 140.871409 
C 89.889907 140.871409 89.213271 141.151682 88.714453 141.650499 
C 88.215635 142.149317 87.935363 142.825953 87.935363 143.531388 
C 87.935363 144.236823 88.215635 144.913459 88.714453 145.412277 
C 89.213271 145.911094 89.889907 146.191366 90.595342 146.191366 
z
" clip-path="url(#p27021bf521)" style="stroke: #000000"/>
    <path d="M 83.637784 134.009214 
C 84.255193 134.009214 84.847398 133.763915 85.283972 133.32734 
C 85.720546 132.890766 85.965845 132.298561 85.965845 131.681152 
C 85.965845 131.063743 85.720546 130.471538 85.283972 130.034964 
C 84.847398 129.59839 84.255193 129.353091 83.637784 129.353091 
C 83.020375 129.353091 82.42817 129.59839 81.991596 130.034964 
C 81.555022 130.471538 81.309722 131.063743 81.309722 131.681152 
C 81.309722 132.298561 81.555022 132.890766 81.991596 133.32734 
C 82.42817 133.763915 83.020375 134.009214 83.637784 134.009214 
z
" clip-path="url(#p27021bf521)" style="stroke: #000000"/>
    <path d="M 82.280087 128.992921 
C 82.985522 128.992921 83.662159 128.712649 84.160976 128.213831 
C 84.659794 127.715014 84.940066 127.038377 84.940066 126.332942 
C 84.940066 125.627508 84.659794 124.950871 84.160976 124.452054 
C 83.662159 123.953236 82.985522 123.672964 82.280087 123.672964 
C 81.574653 123.672964 80.898016 123.953236 80.399198 124.452054 
C 79.900381 124.950871 79.620109 125.627508 79.620109 126.332942 
C 79.620109 127.038377 79.900381 127.715014 80.399198 128.213831 
C 80.898016 128.712649 81.574653 128.992921 82.280087 128.992921 
z
" clip-path="url(#p27021bf521)" style="stroke: #000000"/>
    <path d="M 77.122765 109.763409 
C 77.280456 109.763409 77.431709 109.700758 77.543213 109.589254 
C 77.654717 109.47775 77.717368 109.326496 77.717368 109.168806 
C 77.717368 109.011115 77.654717 108.859862 77.543213 108.748357 
C 77.431709 108.636853 77.280456 108.574202 77.122765 108.574202 
C 76.965074 108.574202 76.813821 108.636853 76.702317 108.748357 
C 76.590812 108.859862 76.528161 109.011115 76.528161 109.168806 
C 76.528161 109.326496 76.590812 109.47775 76.702317 109.589254 
C 76.813821 109.700758 76.965074 109.763409 77.122765 109.763409 
z
" clip-path="url(#p27021bf521)" style="stroke: #000000"/>
    <path d="M 75.170796 102.376026 
C 75.763808 102.376026 76.332612 102.14042 76.751934 101.721097 
C 77.171257 101.301774 77.406864 100.732971 77.406864 100.139958 
C 77.406864 99.546946 77.171257 98.978142 76.751934 98.55882 
C 76.332612 98.139497 75.763808 97.90389 75.170796 97.90389 
C 74.577783 97.90389 74.00898 98.139497 73.589657 98.55882 
C 73.170334 98.978142 72.934728 99.546946 72.934728 100.139958 
C 72.934728 100.732971 73.170334 101.301774 73.589657 101.721097 
C 74.00898 102.14042 74.577783 102.376026 75.170796 102.376026 
z
" clip-path="url(#p27021bf521)" style="stroke: #000000"/>
    <path d="M 71.432322 88.814449 
C 71.432322 88.814449 71.432322 88.814449 71.432322 88.814449 
C 71.432322 88.814449 71.432322 88.814449 71.432322 88.814449 
C 71.432322 88.814449 71.432322 88.814449 71.432322 88.814449 
C 71.432322 88.814449 71.432322 88.814449 71.432322 88.814449 
C 71.432322 88.814449 71.432322 88.814449 71.432322 88.814449 
C 71.432322 88.814449 71.432322 88.814449 71.432322 88.814449 
C 71.432322 88.814449 71.432322 88.814449 71.432322 88.814449 
C 71.432322 88.814449 71.432322 88.814449 71.432322 88.814449 
z
" clip-path="url(#p27021bf521)" style="stroke: #000000"/>
    <path d="M 68.84628 78.414083 
C 69.403131 78.414083 69.937249 78.192843 70.331002 77.799091 
C 70.724755 77.405338 70.945994 76.871219 70.945994 76.314369 
C 70.945994 75.757518 70.724755 75.2234 70.331002 74.829647 
C 69.937249 74.435894 69.403131 74.214655 68.84628 74.214655 
C 68.289429 74.214655 67.755311 74.435894 67.361558 74.829647 
C 66.967805 75.2234 66.746566 75.757518 66.746566 76.314369 
C 66.746566 76.871219 66.967805 77.405338 67.361558 77.799091 
C 67.755311 78.192843 68.289429 78.414083 68.84628 78.414083 
z
" clip-path="url(#p27021bf521)" style="stroke: #000000"/>
    <path d="M 62.624455 67.213966 
C 62.624455 67.213966 62.624455 67.213966 62.624455 67.213966 
C 62.624455 67.213966 62.624455 67.213966 62.624455 67.213966 
C 62.624455 67.213966 62.624455 67.213966 62.624455 67.213966 
C 62.624455 67.213966 62.624455 67.213966 62.624455 67.213966 
C 62.624455 67.213966 62.624455 67.213966 62.624455 67.213966 
C 62.624455 67.213966 62.624455 67.213966 62.624455 67.213966 
C 62.624455 67.213966 62.624455 67.213966 62.624455 67.213966 
C 62.624455 67.213966 62.624455 67.213966 62.624455 67.213966 
z
" clip-path="url(#p27021bf521)" style="stroke: #000000"/>
    <path d="M 61.908869 59.285073 
C 62.083383 59.285073 62.250772 59.215738 62.374172 59.092339 
C 62.497571 58.968939 62.566906 58.80155 62.566906 58.627036 
C 62.566906 58.452523 62.497571 58.285133 62.374172 58.161734 
C 62.250772 58.038334 62.083383 57.968999 61.908869 57.968999 
C 61.734356 57.968999 61.566966 58.038334 61.443567 58.161734 
C 61.320167 58.285133 61.250832 58.452523 61.250832 58.627036 
C 61.250832 58.80155 61.320167 58.968939 61.443567 59.092339 
C 61.566966 59.215738 61.734356 59.285073 61.908869 59.285073 
z
" clip-path="url(#p27021bf521)" style="stroke: #000000"/>
    <path d="M 62.04298 52.57465 
C 62.636363 52.57465 63.205522 52.338896 63.625106 51.919312 
C 64.044691 51.499727 64.280445 50.930568 64.280445 50.337185 
C 64.280445 49.743803 64.044691 49.174644 63.625106 48.755059 
C 63.205522 48.335475 62.636363 48.099721 62.04298 48.099721 
C 61.449598 48.099721 60.880439 48.335475 60.460854 48.755059 
C 60.041269 49.174644 59.805516 49.743803 59.805516 50.337185 
C 59.805516 50.930568 60.041269 51.499727 60.460854 51.919312 
C 60.880439 52.338896 61.449598 52.57465 62.04298 52.57465 
z
" clip-path="url(#p27021bf521)" style="stroke: #000000"/>
    <path d="M 48.781984 38.590627 
C 49.335218 38.590627 49.865868 38.370825 50.257064 37.979629 
C 50.64826 37.588433 50.868062 37.057783 50.868062 36.504549 
C 50.868062 35.951314 50.64826 35.420664 50.257064 35.029469 
C 49.865868 34.638273 49.335218 34.41847 48.781984 34.41847 
C 48.228749 34.41847 47.698099 34.638273 47.306904 35.029469 
C 46.915708 35.420664 46.695905 35.951314 46.695905 36.504549 
C 46.695905 37.057783 46.915708 37.588433 47.306904 37.979629 
C 47.698099 38.370825 48.228749 38.590627 48.781984 38.590627 
z
" clip-path="url(#p27021bf521)" style="stroke: #000000"/>
    <path d="M 90.906534 174.690761 
C 90.906534 174.690761 90.906534 174.690761 90.906534 174.690761 
C 90.906534 174.690761 90.906534 174.690761 90.906534 174.690761 
C 90.906534 174.690761 90.906534 174.690761 90.906534 174.690761 
C 90.906534 174.690761 90.906534 174.690761 90.906534 174.690761 
C 90.906534 174.690761 90.906534 174.690761 90.906534 174.690761 
C 90.906534 174.690761 90.906534 174.690761 90.906534 174.690761 
C 90.906534 174.690761 90.906534 174.690761 90.906534 174.690761 
C 90.906534 174.690761 90.906534 174.690761 90.906534 174.690761 
z
" clip-path="url(#p27021bf521)" style="stroke: #000000"/>
    <path d="M 89.967445 162.066734 
C 90.251304 162.066734 90.523576 161.953956 90.724295 161.753237 
C 90.925014 161.552518 91.037792 161.280246 91.037792 160.996387 
C 91.037792 160.712527 90.925014 160.440256 90.724295 160.239537 
C 90.523576 160.038818 90.251304 159.926039 89.967445 159.926039 
C 89.683585 159.926039 89.411314 160.038818 89.210595 160.239537 
C 89.009876 160.440256 88.897097 160.712527 88.897097 160.996387 
C 88.897097 161.280246 89.009876 161.552518 89.210595 161.753237 
C 89.411314 161.953956 89.683585 162.066734 89.967445 162.066734 
z
" clip-path="url(#p27021bf521)" style="stroke: #000000"/>
    <path d="M 78.48115 153.67284 
C 78.48115 153.67284 78.48115 153.67284 78.48115 153.67284 
C 78.48115 153.67284 78.48115 153.67284 78.48115 153.67284 
C 78.48115 153.67284 78.48115 153.67284 78.48115 153.67284 
C 78.48115 153.67284 78.48115 153.67284 78.48115 153.67284 
C 78.48115 153.67284 78.48115 153.67284 78.48115 153.67284 
C 78.48115 153.67284 78.48115 153.67284 78.48115 153.67284 
C 78.48115 153.67284 78.48115 153.67284 78.48115 153.67284 
C 78.48115 153.67284 78.48115 153.67284 78.48115 153.67284 
z
" clip-path="url(#p27021bf521)" style="stroke: #000000"/>
    <path d="M 80.958875 149.08691 
C 81.494889 149.08691 82.009022 148.87395 82.388041 148.49493 
C 82.76706 148.115911 82.980021 147.601778 82.980021 147.065764 
C 82.980021 146.529749 82.76706 146.015617 82.388041 145.636597 
C 82.009022 145.257578 81.494889 145.044617 80.958875 145.044617 
C 80.42286 145.044617 79.908727 145.257578 79.529708 145.636597 
C 79.150689 146.015617 78.937728 146.529749 78.937728 147.065764 
C 78.937728 147.601778 79.150689 148.115911 79.529708 148.49493 
C 79.908727 148.87395 80.42286 149.08691 80.958875 149.08691 
z
" clip-path="url(#p27021bf521)" style="stroke: #000000"/>
    <path d="M 75.564297 137.513321 
C 76.269731 137.513321 76.946368 137.233049 77.445186 136.734231 
C 77.944003 136.235414 78.224275 135.558777 78.224275 134.853342 
C 78.224275 134.147908 77.944003 133.471271 77.445186 132.972453 
C 76.946368 132.473636 76.269731 132.193364 75.564297 132.193364 
C 74.858862 132.193364 74.182226 132.473636 73.683408 132.972453 
C 73.18459 133.471271 72.904318 134.147908 72.904318 134.853342 
C 72.904318 135.558777 73.18459 136.235414 73.683408 136.734231 
C 74.182226 137.233049 74.858862 137.513321 75.564297 137.513321 
z
" clip-path="url(#p27021bf521)" style="stroke: #000000"/>
    <path d="M 71.169918 124.476498 
C 71.357445 124.476498 71.537317 124.401993 71.669918 124.269391 
C 71.80252 124.13679 71.877025 123.956918 71.877025 123.769391 
C 71.877025 123.581864 71.80252 123.401993 71.669918 123.269391 
C 71.537317 123.13679 71.357445 123.062285 71.169918 123.062285 
C 70.982391 123.062285 70.80252 123.13679 70.669918 123.269391 
C 70.537317 123.401993 70.462811 123.581864 70.462811 123.769391 
C 70.462811 123.956918 70.537317 124.13679 70.669918 124.269391 
C 70.80252 124.401993 70.982391 124.476498 71.169918 124.476498 
z
" clip-path="url(#p27021bf521)" style="stroke: #000000"/>
    <path d="M 65.784115 117.050707 
C 66.489549 117.050707 67.166186 116.770435 67.665004 116.271618 
C 68.163821 115.7728 68.444093 115.096163 68.444093 114.390729 
C 68.444093 113.685294 68.163821 113.008657 67.665004 112.50984 
C 67.166186 112.011022 66.489549 111.73075 65.784115 111.73075 
C 65.07868 111.73075 64.402043 112.011022 63.903226 112.50984 
C 63.404408 113.008657 63.124136 113.685294 63.124136 114.390729 
C 63.124136 115.096163 63.404408 115.7728 63.903226 116.271618 
C 64.402043 116.770435 65.07868 117.050707 65.784115 117.050707 
z
" clip-path="url(#p27021bf521)" style="stroke: #000000"/>
    <path d="M 65.858028 105.215008 
C 66.563462 105.215008 67.240099 104.934736 67.738916 104.435919 
C 68.237734 103.937101 68.518006 103.260464 68.518006 102.55503 
C 68.518006 101.849595 68.237734 101.172959 67.738916 100.674141 
C 67.240099 100.175323 66.563462 99.895051 65.858028 99.895051 
C 65.152593 99.895051 64.475956 100.175323 63.977139 100.674141 
C 63.478321 101.172959 63.198049 101.849595 63.198049 102.55503 
C 63.198049 103.260464 63.478321 103.937101 63.977139 104.435919 
C 64.475956 104.934736 65.152593 105.215008 65.858028 105.215008 
z
" clip-path="url(#p27021bf521)" style="stroke: #000000"/>
    <path d="M 60.337978 100.035987 
C 61.043413 100.035987 61.720049 99.755715 62.218867 99.256898 
C 62.717684 98.75808 62.997957 98.081443 62.997957 97.376009 
C 62.997957 96.670574 62.717684 95.993938 62.218867 95.49512 
C 61.720049 94.996302 61.043413 94.71603 60.337978 94.71603 
C 59.632543 94.71603 58.955907 94.996302 58.457089 95.49512 
C 57.958272 95.993938 57.677999 96.670574 57.677999 97.376009 
C 57.677999 98.081443 57.958272 98.75808 58.457089 99.256898 
C 58.955907 99.755715 59.632543 100.035987 60.337978 100.035987 
z
" clip-path="url(#p27021bf521)" style="stroke: #000000"/>
    <path d="M 53.477774 83.92748 
C 53.477774 83.92748 53.477774 83.92748 53.477774 83.92748 
C 53.477774 83.92748 53.477774 83.92748 53.477774 83.92748 
C 53.477774 83.92748 53.477774 83.92748 53.477774 83.92748 
C 53.477774 83.92748 53.477774 83.92748 53.477774 83.92748 
C 53.477774 83.92748 53.477774 83.92748 53.477774 83.92748 
C 53.477774 83.92748 53.477774 83.92748 53.477774 83.92748 
C 53.477774 83.92748 53.477774 83.92748 53.477774 83.92748 
C 53.477774 83.92748 53.477774 83.92748 53.477774 83.92748 
z
" clip-path="url(#p27021bf521)" style="stroke: #000000"/>
    <path d="M 53.613907 71.071342 
C 54.06839 71.071342 54.504321 70.890773 54.82569 70.569405 
C 55.147058 70.248036 55.327626 69.812106 55.327626 69.357622 
C 55.327626 68.903138 55.147058 68.467208 54.82569 68.145839 
C 54.504321 67.824471 54.06839 67.643902 53.613907 67.643902 
C 53.159423 67.643902 52.723492 67.824471 52.402124 68.145839 
C 52.080755 68.467208 51.900187 68.903138 51.900187 69.357622 
C 51.900187 69.812106 52.080755 70.248036 52.402124 70.569405 
C 52.723492 70.890773 53.159423 71.071342 53.613907 71.071342 
z
" clip-path="url(#p27021bf521)" style="stroke: #000000"/>
    <path d="M 50.191537 62.207388 
C 50.784919 62.207388 51.354078 61.971635 51.773663 61.55205 
C 52.193248 61.132465 52.429001 60.563306 52.429001 59.969924 
C 52.429001 59.376541 52.193248 58.807383 51.773663 58.387798 
C 51.354078 57.968213 50.784919 57.73246 50.191537 57.73246 
C 49.598154 57.73246 49.028996 57.968213 48.609411 58.387798 
C 48.189826 58.807383 47.954073 59.376541 47.954073 59.969924 
C 47.954073 60.563306 48.189826 61.132465 48.609411 61.55205 
C 49.028996 61.971635 49.598154 62.207388 50.191537 62.207388 
z
" clip-path="url(#p27021bf521)" style="stroke: #000000"/>
    <path d="M 46.102448 49.388467 
C 46.695831 49.388467 47.264989 49.152714 47.684574 48.733129 
C 48.104159 48.313544 48.339912 47.744385 48.339912 47.151003 
C 48.339912 46.55762 48.104159 45.988461 47.684574 45.568877 
C 47.264989 45.149292 46.695831 44.913538 46.102448 44.913538 
C 45.509066 44.913538 44.939907 45.149292 44.520322 45.568877 
C 44.100737 45.988461 43.864984 46.55762 43.864984 47.151003 
C 43.864984 47.744385 44.100737 48.313544 44.520322 48.733129 
C 44.939907 49.152714 45.509066 49.388467 46.102448 49.388467 
z
" clip-path="url(#p27021bf521)" style="stroke: #000000"/>
    <path d="M 77.580449 177.858166 
C 77.580449 177.858166 77.580449 177.858166 77.580449 177.858166 
C 77.580449 177.858166 77.580449 177.858166 77.580449 177.858166 
C 77.580449 177.858166 77.580449 177.858166 77.580449 177.858166 
C 77.580449 177.858166 77.580449 177.858166 77.580449 177.858166 
C 77.580449 177.858166 77.580449 177.858166 77.580449 177.858166 
C 77.580449 177.858166 77.580449 177.858166 77.580449 177.858166 
C 77.580449 177.858166 77.580449 177.858166 77.580449 177.858166 
C 77.580449 177.858166 77.580449 177.858166 77.580449 177.858166 
z
" clip-path="url(#p27021bf521)" style="stroke: #000000"/>
    <path d="M 74.845082 167.031149 
C 74.845082 167.031149 74.845082 167.031149 74.845082 167.031149 
C 74.845082 167.031149 74.845082 167.031149 74.845082 167.031149 
C 74.845082 167.031149 74.845082 167.031149 74.845082 167.031149 
C 74.845082 167.031149 74.845082 167.031149 74.845082 167.031149 
C 74.845082 167.031149 74.845082 167.031149 74.845082 167.031149 
C 74.845082 167.031149 74.845082 167.031149 74.845082 167.031149 
C 74.845082 167.031149 74.845082 167.031149 74.845082 167.031149 
C 74.845082 167.031149 74.845082 167.031149 74.845082 167.031149 
z
" clip-path="url(#p27021bf521)" style="stroke: #000000"/>
    <path d="M 73.750866 157.835549 
C 74.456301 157.835549 75.132937 157.555277 75.631755 157.056459 
C 76.130572 156.557642 76.410845 155.881005 76.410845 155.17557 
C 76.410845 154.470136 76.130572 153.793499 75.631755 153.294681 
C 75.132937 152.795864 74.456301 152.515592 73.750866 152.515592 
C 73.045431 152.515592 72.368795 152.795864 71.869977 153.294681 
C 71.37116 153.793499 71.090888 154.470136 71.090888 155.17557 
C 71.090888 155.881005 71.37116 156.557642 71.869977 157.056459 
C 72.368795 157.555277 73.045431 157.835549 73.750866 157.835549 
z
" clip-path="url(#p27021bf521)" style="stroke: #000000"/>
    <path d="M 68.826476 150.333768 
C 69.53169 150.333768 70.208115 150.053583 70.706777 149.554921 
C 71.205439 149.05626 71.485623 148.379834 71.485623 147.67462 
C 71.485623 146.969406 71.205439 146.29298 70.706777 145.794318 
C 70.208115 145.295657 69.53169 145.015472 68.826476 145.015472 
C 68.121261 145.015472 67.444836 145.295657 66.946174 145.794318 
C 66.447512 146.29298 66.167328 146.969406 66.167328 147.67462 
C 66.167328 148.379834 66.447512 149.05626 66.946174 149.554921 
C 67.444836 150.053583 68.121261 150.333768 68.826476 150.333768 
z
" clip-path="url(#p27021bf521)" style="stroke: #000000"/>
    <path d="M 66.289416 140.330668 
C 66.85069 140.330668 67.389051 140.107671 67.785931 139.710791 
C 68.182812 139.31391 68.405809 138.775549 68.405809 138.214275 
C 68.405809 137.653001 68.182812 137.11464 67.785931 136.717759 
C 67.389051 136.320879 66.85069 136.097882 66.289416 136.097882 
C 65.728142 136.097882 65.189781 136.320879 64.7929 136.717759 
C 64.39602 137.11464 64.173023 137.653001 64.173023 138.214275 
C 64.173023 138.775549 64.39602 139.31391 64.7929 139.710791 
C 65.189781 140.107671 65.728142 140.330668 66.289416 140.330668 
z
" clip-path="url(#p27021bf521)" style="stroke: #000000"/>
    <path d="M 62.821868 131.496212 
C 63.078364 131.496212 63.324389 131.394305 63.505759 131.212935 
C 63.687129 131.031565 63.789036 130.785539 63.789036 130.529043 
C 63.789036 130.272547 63.687129 130.026522 63.505759 129.845152 
C 63.324389 129.663782 63.078364 129.561875 62.821868 129.561875 
C 62.565372 129.561875 62.319347 129.663782 62.137977 129.845152 
C 61.956607 130.026522 61.8547 130.272547 61.8547 130.529043 
C 61.8547 130.785539 61.956607 131.031565 62.137977 131.212935 
C 62.319347 131.394305 62.565372 131.496212 62.821868 131.496212 
z
" clip-path="url(#p27021bf521)" style="stroke: #000000"/>
    <path d="M 60.74702 119.173511 
C 61.067218 119.173511 61.374344 119.046295 61.600758 118.819881 
C 61.827172 118.593467 61.954388 118.28634 61.954388 117.966142 
C 61.954388 117.645945 61.827172 117.338818 61.600758 117.112404 
C 61.374344 116.88599 61.067218 116.758774 60.74702 116.758774 
C 60.426822 116.758774 60.119696 116.88599 59.893282 117.112404 
C 59.666868 117.338818 59.539652 117.645945 59.539652 117.966142 
C 59.539652 118.28634 59.666868 118.593467 59.893282 118.819881 
C 60.119696 119.046295 60.426822 119.173511 60.74702 119.173511 
z
" clip-path="url(#p27021bf521)" style="stroke: #000000"/>
    <path d="M 53.261968 102.612663 
C 53.261968 102.612663 53.261968 102.612663 53.261968 102.612663 
C 53.261968 102.612663 53.261968 102.612663 53.261968 102.612663 
C 53.261968 102.612663 53.261968 102.612663 53.261968 102.612663 
C 53.261968 102.612663 53.261968 102.612663 53.261968 102.612663 
C 53.261968 102.612663 53.261968 102.612663 53.261968 102.612663 
C 53.261968 102.612663 53.261968 102.612663 53.261968 102.612663 
C 53.261968 102.612663 53.261968 102.612663 53.261968 102.612663 
C 53.261968 102.612663 53.261968 102.612663 53.261968 102.612663 
z
" clip-path="url(#p27021bf521)" style="stroke: #000000"/>
    <path d="M 47.056352 97.319752 
C 47.611403 97.319752 48.143796 97.099227 48.536276 96.706747 
C 48.928757 96.314266 49.149281 95.781874 49.149281 95.226822 
C 49.149281 94.671771 48.928757 94.139378 48.536276 93.746898 
C 48.143796 93.354417 47.611403 93.133893 47.056352 93.133893 
C 46.5013 93.133893 45.968908 93.354417 45.576427 93.746898 
C 45.183946 94.139378 44.963422 94.671771 44.963422 95.226822 
C 44.963422 95.781874 45.183946 96.314266 45.576427 96.706747 
C 45.968908 97.099227 46.5013 97.319752 47.056352 97.319752 
z
" clip-path="url(#p27021bf521)" style="stroke: #000000"/>
    <path d="M 46.558794 90.234504 
C 47.093297 90.234504 47.605979 90.022144 47.983929 89.644193 
C 48.36188 89.266243 48.57424 88.753561 48.57424 88.219058 
C 48.57424 87.684556 48.36188 87.171874 47.983929 86.793924 
C 47.605979 86.415973 47.093297 86.203613 46.558794 86.203613 
C 46.024292 86.203613 45.51161 86.415973 45.133659 86.793924 
C 44.755709 87.171874 44.543349 87.684556 44.543349 88.219058 
C 44.543349 88.753561 44.755709 89.266243 45.133659 89.644193 
C 45.51161 90.022144 46.024292 90.234504 46.558794 90.234504 
z
" clip-path="url(#p27021bf521)" style="stroke: #000000"/>
    <path d="M 44.015618 75.55891 
C 44.721053 75.55891 45.39769 75.278638 45.896507 74.77982 
C 46.395325 74.281003 46.675597 73.604366 46.675597 72.898932 
C 46.675597 72.193497 46.395325 71.51686 45.896507 71.018043 
C 45.39769 70.519225 44.721053 70.238953 44.015618 70.238953 
C 43.310184 70.238953 42.633547 70.519225 42.13473 71.018043 
C 41.635912 71.51686 41.35564 72.193497 41.35564 72.898932 
C 41.35564 73.604366 41.635912 74.281003 42.13473 74.77982 
C 42.633547 75.278638 43.310184 75.55891 44.015618 75.55891 
z
" clip-path="url(#p27021bf521)" style="stroke: #000000"/>
    <path d="M 40.870513 67.518691 
C 41.465003 67.518691 42.035223 67.282498 42.45559 66.862131 
C 42.875958 66.441764 43.112151 65.871543 43.112151 65.277054 
C 43.112151 64.682565 42.875958 64.112344 42.45559 63.691977 
C 42.035223 63.27161 41.465003 63.035417 40.870513 63.035417 
C 40.276024 63.035417 39.705804 63.27161 39.285436 63.691977 
C 38.865069 64.112344 38.628876 64.682565 38.628876 65.277054 
C 38.628876 65.871543 38.865069 66.441764 39.285436 66.862131 
C 39.705804 67.282498 40.276024 67.518691 40.870513 67.518691 
z
" clip-path="url(#p27021bf521)" style="stroke: #000000"/>
    <path d="M 64.003455 172.316421 
C 64.596468 172.316421 65.165271 172.080815 65.584594 171.661492 
C 66.003917 171.242169 66.239523 170.673366 66.239523 170.080353 
C 66.239523 169.487341 66.003917 168.918537 65.584594 168.499215 
C 65.165271 168.079892 64.596468 167.844285 64.003455 167.844285 
C 63.410443 167.844285 62.841639 168.079892 62.422317 168.499215 
C 62.002994 168.918537 61.767387 169.487341 61.767387 170.080353 
C 61.767387 170.673366 62.002994 171.242169 62.422317 171.661492 
C 62.841639 172.080815 63.410443 172.316421 64.003455 172.316421 
z
" clip-path="url(#p27021bf521)" style="stroke: #000000"/>
    <path d="M 60.869355 170.035873 
C 61.462738 170.035873 62.031897 169.80012 62.451482 169.380535 
C 62.871066 168.96095 63.10682 168.391791 63.10682 167.798409 
C 63.10682 167.205026 62.871066 166.635867 62.451482 166.216283 
C 62.031897 165.796698 61.462738 165.560944 60.869355 165.560944 
C 60.275973 165.560944 59.706814 165.796698 59.287229 166.216283 
C 58.867645 166.635867 58.631891 167.205026 58.631891 167.798409 
C 58.631891 168.391791 58.867645 168.96095 59.287229 169.380535 
C 59.706814 169.80012 60.275973 170.035873 60.869355 170.035873 
z
" clip-path="url(#p27021bf521)" style="stroke: #000000"/>
    <path d="M 59.800054 155.032258 
C 60.505268 155.032258 61.181693 154.752073 61.680355 154.253412 
C 62.179017 153.75475 62.459202 153.078324 62.459202 152.37311 
C 62.459202 151.667896 62.179017 150.99147 61.680355 150.492809 
C 61.181693 149.994147 60.505268 149.713962 59.800054 149.713962 
C 59.094839 149.713962 58.418414 149.994147 57.919752 150.492809 
C 57.42109 150.99147 57.140906 151.667896 57.140906 152.37311 
C 57.140906 153.078324 57.42109 153.75475 57.919752 154.253412 
C 58.418414 154.752073 59.094839 155.032258 59.800054 155.032258 
z
" clip-path="url(#p27021bf521)" style="stroke: #000000"/>
    <path d="M 52.573229 141.504457 
C 52.573229 141.504457 52.573229 141.504457 52.573229 141.504457 
C 52.573229 141.504457 52.573229 141.504457 52.573229 141.504457 
C 52.573229 141.504457 52.573229 141.504457 52.573229 141.504457 
C 52.573229 141.504457 52.573229 141.504457 52.573229 141.504457 
C 52.573229 141.504457 52.573229 141.504457 52.573229 141.504457 
C 52.573229 141.504457 52.573229 141.504457 52.573229 141.504457 
C 52.573229 141.504457 52.573229 141.504457 52.573229 141.504457 
C 52.573229 141.504457 52.573229 141.504457 52.573229 141.504457 
z
" clip-path="url(#p27021bf521)" style="stroke: #000000"/>
    <path d="M 50.233638 131.676906 
C 50.938852 131.676906 51.615277 131.396722 52.113939 130.89806 
C 52.612601 130.399398 52.892785 129.722972 52.892785 129.017758 
C 52.892785 128.312544 52.612601 127.636118 52.113939 127.137457 
C 51.615277 126.638795 50.938852 126.35861 50.233638 126.35861 
C 49.528423 126.35861 48.851998 126.638795 48.353336 127.137457 
C 47.854674 127.636118 47.57449 128.312544 47.57449 129.017758 
C 47.57449 129.722972 47.854674 130.399398 48.353336 130.89806 
C 48.851998 131.396722 49.528423 131.676906 50.233638 131.676906 
z
" clip-path="url(#p27021bf521)" style="stroke: #000000"/>
    <path d="M 46.01441 122.930189 
C 46.574368 122.930189 47.111467 122.707715 47.507417 122.311765 
C 47.903367 121.915815 48.125841 121.378716 48.125841 120.818759 
C 48.125841 120.258801 47.903367 119.721702 47.507417 119.325752 
C 47.111467 118.929802 46.574368 118.707328 46.01441 118.707328 
C 45.454452 118.707328 44.917353 118.929802 44.521403 119.325752 
C 44.125453 119.721702 43.90298 120.258801 43.90298 120.818759 
C 43.90298 121.378716 44.125453 121.915815 44.521403 122.311765 
C 44.917353 122.707715 45.454452 122.930189 46.01441 122.930189 
z
" clip-path="url(#p27021bf521)" style="stroke: #000000"/>
    <path d="M 45.419074 110.586317 
C 46.124288 110.586317 46.800714 110.306132 47.299375 109.80747 
C 47.798037 109.308808 48.078222 108.632383 48.078222 107.927169 
C 48.078222 107.221954 47.798037 106.545529 47.299375 106.046867 
C 46.800714 105.548205 46.124288 105.268021 45.419074 105.268021 
C 44.71386 105.268021 44.037434 105.548205 43.538772 106.046867 
C 43.04011 106.545529 42.759926 107.221954 42.759926 107.927169 
C 42.759926 108.632383 43.04011 109.308808 43.538772 109.80747 
C 44.037434 110.306132 44.71386 110.586317 45.419074 110.586317 
z
" clip-path="url(#p27021bf521)" style="stroke: #000000"/>
    <path d="M 39.276536 99.068198 
C 39.810023 99.068198 40.321732 98.856242 40.698964 98.479009 
C 41.076196 98.101777 41.288153 97.590068 41.288153 97.056581 
C 41.288153 96.523094 41.076196 96.011385 40.698964 95.634153 
C 40.321732 95.256921 39.810023 95.044964 39.276536 95.044964 
C 38.743049 95.044964 38.23134 95.256921 37.854108 95.634153 
C 37.476876 96.011385 37.264919 96.523094 37.264919 97.056581 
C 37.264919 97.590068 37.476876 98.101777 37.854108 98.479009 
C 38.23134 98.856242 38.743049 99.068198 39.276536 99.068198 
z
" clip-path="url(#p27021bf521)" style="stroke: #000000"/>
    <path d="M 34.480663 90.859185 
C 34.480663 90.859185 34.480663 90.859185 34.480663 90.859185 
C 34.480663 90.859185 34.480663 90.859185 34.480663 90.859185 
C 34.480663 90.859185 34.480663 90.859185 34.480663 90.859185 
C 34.480663 90.859185 34.480663 90.859185 34.480663 90.859185 
C 34.480663 90.859185 34.480663 90.859185 34.480663 90.859185 
C 34.480663 90.859185 34.480663 90.859185 34.480663 90.859185 
C 34.480663 90.859185 34.480663 90.859185 34.480663 90.859185 
C 34.480663 90.859185 34.480663 90.859185 34.480663 90.859185 
z
" clip-path="url(#p27021bf521)" style="stroke: #000000"/>
    <path d="M 56.449255 176.185321 
C 56.449255 176.185321 56.449255 176.185321 56.449255 176.185321 
C 56.449255 176.185321 56.449255 176.185321 56.449255 176.185321 
C 56.449255 176.185321 56.449255 176.185321 56.449255 176.185321 
C 56.449255 176.185321 56.449255 176.185321 56.449255 176.185321 
C 56.449255 176.185321 56.449255 176.185321 56.449255 176.185321 
C 56.449255 176.185321 56.449255 176.185321 56.449255 176.185321 
C 56.449255 176.185321 56.449255 176.185321 56.449255 176.185321 
C 56.449255 176.185321 56.449255 176.185321 56.449255 176.185321 
z
" clip-path="url(#p27021bf521)" style="stroke: #000000"/>
    <path d="M 48.81329 164.333341 
C 48.81329 164.333341 48.81329 164.333341 48.81329 164.333341 
C 48.81329 164.333341 48.81329 164.333341 48.81329 164.333341 
C 48.81329 164.333341 48.81329 164.333341 48.81329 164.333341 
C 48.81329 164.333341 48.81329 164.333341 48.81329 164.333341 
C 48.81329 164.333341 48.81329 164.333341 48.81329 164.333341 
C 48.81329 164.333341 48.81329 164.333341 48.81329 164.333341 
C 48.81329 164.333341 48.81329 164.333341 48.81329 164.333341 
C 48.81329 164.333341 48.81329 164.333341 48.81329 164.333341 
z
" clip-path="url(#p27021bf521)" style="stroke: #000000"/>
    <path d="M 47.772452 159.096759 
C 48.444299 159.096759 49.088718 158.829832 49.563785 158.354765 
C 50.038853 157.879698 50.30578 157.235278 50.30578 156.563432 
C 50.30578 155.891585 50.038853 155.247166 49.563785 154.772098 
C 49.088718 154.297031 48.444299 154.030104 47.772452 154.030104 
C 47.100606 154.030104 46.456186 154.297031 45.981119 154.772098 
C 45.506052 155.247166 45.239125 155.891585 45.239125 156.563432 
C 45.239125 157.235278 45.506052 157.879698 45.981119 158.354765 
C 46.456186 158.829832 47.100606 159.096759 47.772452 159.096759 
z
" clip-path="url(#p27021bf521)" style="stroke: #000000"/>
    <path d="M 45.553512 147.703823 
C 45.553512 147.703823 45.553512 147.703823 45.553512 147.703823 
C 45.553512 147.703823 45.553512 147.703823 45.553512 147.703823 
C 45.553512 147.703823 45.553512 147.703823 45.553512 147.703823 
C 45.553512 147.703823 45.553512 147.703823 45.553512 147.703823 
C 45.553512 147.703823 45.553512 147.703823 45.553512 147.703823 
C 45.553512 147.703823 45.553512 147.703823 45.553512 147.703823 
C 45.553512 147.703823 45.553512 147.703823 45.553512 147.703823 
C 45.553512 147.703823 45.553512 147.703823 45.553512 147.703823 
z
" clip-path="url(#p27021bf521)" style="stroke: #000000"/>
    <path d="M 40.704527 136.969968 
C 41.194881 136.969968 41.665216 136.775149 42.011948 136.428417 
C 42.35868 136.081685 42.5535 135.611349 42.5535 135.120996 
C 42.5535 134.630643 42.35868 134.160307 42.011948 133.813575 
C 41.665216 133.466843 41.194881 133.272024 40.704527 133.272024 
C 40.214174 133.272024 39.743839 133.466843 39.397107 133.813575 
C 39.050375 134.160307 38.855555 134.630643 38.855555 135.120996 
C 38.855555 135.611349 39.050375 136.081685 39.397107 136.428417 
C 39.743839 136.775149 40.214174 136.969968 40.704527 136.969968 
z
" clip-path="url(#p27021bf521)" style="stroke: #000000"/>
    <path d="M 33.380051 122.963732 
C 34.085485 122.963732 34.762122 122.68346 35.260939 122.184642 
C 35.759757 121.685825 36.040029 121.009188 36.040029 120.303753 
C 36.040029 119.598319 35.759757 118.921682 35.260939 118.422864 
C 34.762122 117.924047 34.085485 117.643775 33.380051 117.643775 
C 32.674616 117.643775 31.997979 117.924047 31.499162 118.422864 
C 31.000344 118.921682 30.720072 119.598319 30.720072 120.303753 
C 30.720072 121.009188 31.000344 121.685825 31.499162 122.184642 
C 31.997979 122.68346 32.674616 122.963732 33.380051 122.963732 
z
" clip-path="url(#p27021bf521)" style="stroke: #000000"/>
    <path d="M 33.695407 114.569604 
C 34.144868 114.569604 34.575981 114.391031 34.893798 114.073214 
C 35.211615 113.755397 35.390187 113.324285 35.390187 112.874824 
C 35.390187 112.425362 35.211615 111.99425 34.893798 111.676433 
C 34.575981 111.358616 34.144868 111.180043 33.695407 111.180043 
C 33.245946 111.180043 32.814833 111.358616 32.497016 111.676433 
C 32.179199 111.99425 32.000626 112.425362 32.000626 112.874824 
C 32.000626 113.324285 32.179199 113.755397 32.497016 114.073214 
C 32.814833 114.391031 33.245946 114.569604 33.695407 114.569604 
z
" clip-path="url(#p27021bf521)" style="stroke: #000000"/>
    <path d="M 32.278831 104.762741 
C 32.708266 104.762741 33.120169 104.592125 33.423825 104.288469 
C 33.727481 103.984813 33.898097 103.572909 33.898097 103.143475 
C 33.898097 102.714041 33.727481 102.302137 33.423825 101.998481 
C 33.120169 101.694825 32.708266 101.524209 32.278831 101.524209 
C 31.849397 101.524209 31.437493 101.694825 31.133837 101.998481 
C 30.830181 102.302137 30.659565 102.714041 30.659565 103.143475 
C 30.659565 103.572909 30.830181 103.984813 31.133837 104.288469 
C 31.437493 104.592125 31.849397 104.762741 32.278831 104.762741 
z
" clip-path="url(#p27021bf521)" style="stroke: #000000"/>
    <path d="M 40.591985 172.258959 
C 40.591985 172.258959 40.591985 172.258959 40.591985 172.258959 
C 40.591985 172.258959 40.591985 172.258959 40.591985 172.258959 
C 40.591985 172.258959 40.591985 172.258959 40.591985 172.258959 
C 40.591985 172.258959 40.591985 172.258959 40.591985 172.258959 
C 40.591985 172.258959 40.591985 172.258959 40.591985 172.258959 
C 40.591985 172.258959 40.591985 172.258959 40.591985 172.258959 
C 40.591985 172.258959 40.591985 172.258959 40.591985 172.258959 
C 40.591985 172.258959 40.591985 172.258959 40.591985 172.258959 
z
" clip-path="url(#p27021bf521)" style="stroke: #000000"/>
    <path d="M 36.142548 156.968036 
C 36.142548 156.968036 36.142548 156.968036 36.142548 156.968036 
C 36.142548 156.968036 36.142548 156.968036 36.142548 156.968036 
C 36.142548 156.968036 36.142548 156.968036 36.142548 156.968036 
C 36.142548 156.968036 36.142548 156.968036 36.142548 156.968036 
C 36.142548 156.968036 36.142548 156.968036 36.142548 156.968036 
C 36.142548 156.968036 36.142548 156.968036 36.142548 156.968036 
C 36.142548 156.968036 36.142548 156.968036 36.142548 156.968036 
C 36.142548 156.968036 36.142548 156.968036 36.142548 156.968036 
z
" clip-path="url(#p27021bf521)" style="stroke: #000000"/>
    <path d="M 36.417645 147.163899 
C 36.417645 147.163899 36.417645 147.163899 36.417645 147.163899 
C 36.417645 147.163899 36.417645 147.163899 36.417645 147.163899 
C 36.417645 147.163899 36.417645 147.163899 36.417645 147.163899 
C 36.417645 147.163899 36.417645 147.163899 36.417645 147.163899 
C 36.417645 147.163899 36.417645 147.163899 36.417645 147.163899 
C 36.417645 147.163899 36.417645 147.163899 36.417645 147.163899 
C 36.417645 147.163899 36.417645 147.163899 36.417645 147.163899 
C 36.417645 147.163899 36.417645 147.163899 36.417645 147.163899 
z
" clip-path="url(#p27021bf521)" style="stroke: #000000"/>
    <path d="M 29.515264 137.590629 
C 29.515264 137.590629 29.515264 137.590629 29.515264 137.590629 
C 29.515264 137.590629 29.515264 137.590629 29.515264 137.590629 
C 29.515264 137.590629 29.515264 137.590629 29.515264 137.590629 
C 29.515264 137.590629 29.515264 137.590629 29.515264 137.590629 
C 29.515264 137.590629 29.515264 137.590629 29.515264 137.590629 
C 29.515264 137.590629 29.515264 137.590629 29.515264 137.590629 
C 29.515264 137.590629 29.515264 137.590629 29.515264 137.590629 
C 29.515264 137.590629 29.515264 137.590629 29.515264 137.590629 
z
" clip-path="url(#p27021bf521)" style="stroke: #000000"/>
    <path d="M 28.073785 127.784605 
C 28.073785 127.784605 28.073785 127.784605 28.073785 127.784605 
C 28.073785 127.784605 28.073785 127.784605 28.073785 127.784605 
C 28.073785 127.784605 28.073785 127.784605 28.073785 127.784605 
C 28.073785 127.784605 28.073785 127.784605 28.073785 127.784605 
C 28.073785 127.784605 28.073785 127.784605 28.073785 127.784605 
C 28.073785 127.784605 28.073785 127.784605 28.073785 127.784605 
C 28.073785 127.784605 28.073785 127.784605 28.073785 127.784605 
C 28.073785 127.784605 28.073785 127.784605 28.073785 127.784605 
z
" clip-path="url(#p27021bf521)" style="stroke: #000000"/>
   </g>
   <g id="matplotlib.axis_1">
    <g id="xtick_1">
     <g id="line2d_1">
      <defs>
       <path id="m1d6833b7dd" d="M 0 0 
L 0 3.5 
" style="stroke: #000000; stroke-width: 0.8"/>
      </defs>
      <g>
       <use xlink:href="#m1d6833b7dd" x="18" y="189" style="stroke: #000000; stroke-width: 0.8"/>
      </g>
     </g>
     <g id="text_1">
      <!-- 10 -->
      <g transform="translate(7.447656 203.598437)scale(0.1 -0.1)">
       <defs>
        <path id="DejaVuSans-2212" d="M 678 2272 
L 4684 2272 
L 4684 1741 
L 678 1741 
L 678 2272 
z
" transform="scale(0.015625)"/>
        <path id="DejaVuSans-31" d="M 794 531 
L 1825 531 
L 1825 4091 
L 703 3866 
L 703 4441 
L 1819 4666 
L 2450 4666 
L 2450 531 
L 3481 531 
L 3481 0 
L 794 0 
L 794 531 
z
" transform="scale(0.015625)"/>
        <path id="DejaVuSans-30" d="M 2034 4250 
Q 1547 4250 1301 3770 
Q 1056 3291 1056 2328 
Q 1056 1369 1301 889 
Q 1547 409 2034 409 
Q 2525 409 2770 889 
Q 3016 1369 3016 2328 
Q 3016 3291 2770 3770 
Q 2525 4250 2034 4250 
z
M 2034 4750 
Q 2819 4750 3233 4129 
Q 3647 3509 3647 2328 
Q 3647 1150 3233 529 
Q 2819 -91 2034 -91 
Q 1250 -91 836 529 
Q 422 1150 422 2328 
Q 422 3509 836 4129 
Q 1250 4750 2034 4750 
z
" transform="scale(0.015625)"/>
       </defs>
       <use xlink:href="#DejaVuSans-2212"/>
       <use xlink:href="#DejaVuSans-31" x="83.789062"/>
       <use xlink:href="#DejaVuSans-30" x="147.412109"/>
      </g>
     </g>
    </g>
    <g id="xtick_2">
     <g id="line2d_2">
      <g>
       <use xlink:href="#m1d6833b7dd" x="73.8" y="189" style="stroke: #000000; stroke-width: 0.8"/>
      </g>
     </g>
     <g id="text_2">
      <!-- 0 -->
      <g transform="translate(70.61875 203.598437)scale(0.1 -0.1)">
       <use xlink:href="#DejaVuSans-30"/>
      </g>
     </g>
    </g>
    <g id="xtick_3">
     <g id="line2d_3">
      <g>
       <use xlink:href="#m1d6833b7dd" x="129.6" y="189" style="stroke: #000000; stroke-width: 0.8"/>
      </g>
     </g>
     <g id="text_3">
      <!-- 10 -->
      <g transform="translate(123.2375 203.598437)scale(0.1 -0.1)">
       <use xlink:href="#DejaVuSans-31"/>
       <use xlink:href="#DejaVuSans-30" x="63.623047"/>
      </g>
     </g>
    </g>
   </g>
   <g id="matplotlib.axis_2">
    <g id="ytick_1">
     <g id="line2d_4">
      <defs>
       <path id="mb588d08e37" d="M 0 0 
L -3.5 0 
" style="stroke: #000000; stroke-width: 0.8"/>
      </defs>
      <g>
       <use xlink:href="#mb588d08e37" x="18" y="189" style="stroke: #000000; stroke-width: 0.8"/>
      </g>
     </g>
     <g id="text_4">
      <!-- 15 -->
      <g transform="translate(-10.104688 192.799219)scale(0.1 -0.1)">
       <defs>
        <path id="DejaVuSans-35" d="M 691 4666 
L 3169 4666 
L 3169 4134 
L 1269 4134 
L 1269 2991 
Q 1406 3038 1543 3061 
Q 1681 3084 1819 3084 
Q 2600 3084 3056 2656 
Q 3513 2228 3513 1497 
Q 3513 744 3044 326 
Q 2575 -91 1722 -91 
Q 1428 -91 1123 -41 
Q 819 9 494 109 
L 494 744 
Q 775 591 1075 516 
Q 1375 441 1709 441 
Q 2250 441 2565 725 
Q 2881 1009 2881 1497 
Q 2881 1984 2565 2268 
Q 2250 2553 1709 2553 
Q 1456 2553 1204 2497 
Q 953 2441 691 2322 
L 691 4666 
z
" transform="scale(0.015625)"/>
       </defs>
       <use xlink:href="#DejaVuSans-2212"/>
       <use xlink:href="#DejaVuSans-31" x="83.789062"/>
       <use xlink:href="#DejaVuSans-35" x="147.412109"/>
      </g>
     </g>
    </g>
    <g id="ytick_2">
     <g id="line2d_5">
      <g>
       <use xlink:href="#mb588d08e37" x="18" y="161.82" style="stroke: #000000; stroke-width: 0.8"/>
      </g>
     </g>
     <g id="text_5">
      <!-- 10 -->
      <g transform="translate(-10.104688 165.619219)scale(0.1 -0.1)">
       <use xlink:href="#DejaVuSans-2212"/>
       <use xlink:href="#DejaVuSans-31" x="83.789062"/>
       <use xlink:href="#DejaVuSans-30" x="147.412109"/>
      </g>
     </g>
    </g>
    <g id="ytick_3">
     <g id="line2d_6">
      <g>
       <use xlink:href="#mb588d08e37" x="18" y="134.64" style="stroke: #000000; stroke-width: 0.8"/>
      </g>
     </g>
     <g id="text_6">
      <!-- 5 -->
      <g transform="translate(-3.742188 138.439219)scale(0.1 -0.1)">
       <use xlink:href="#DejaVuSans-2212"/>
       <use xlink:href="#DejaVuSans-35" x="83.789062"/>
      </g>
     </g>
    </g>
    <g id="ytick_4">
     <g id="line2d_7">
      <g>
       <use xlink:href="#mb588d08e37" x="18" y="107.46" style="stroke: #000000; stroke-width: 0.8"/>
      </g>
     </g>
     <g id="text_7">
      <!-- 0 -->
      <g transform="translate(4.6375 111.259219)scale(0.1 -0.1)">
       <use xlink:href="#DejaVuSans-30"/>
      </g>
     </g>
    </g>
    <g id="ytick_5">
     <g id="line2d_8">
      <g>
       <use xlink:href="#mb588d08e37" x="18" y="80.28" style="stroke: #000000; stroke-width: 0.8"/>
      </g>
     </g>
     <g id="text_8">
      <!-- 5 -->
      <g transform="translate(4.6375 84.079219)scale(0.1 -0.1)">
       <use xlink:href="#DejaVuSans-35"/>
      </g>
     </g>
    </g>
    <g id="ytick_6">
     <g id="line2d_9">
      <g>
       <use xlink:href="#mb588d08e37" x="18" y="53.1" style="stroke: #000000; stroke-width: 0.8"/>
      </g>
     </g>
     <g id="text_9">
      <!-- 10 -->
      <g transform="translate(-1.725 56.899219)scale(0.1 -0.1)">
       <use xlink:href="#DejaVuSans-31"/>
       <use xlink:href="#DejaVuSans-30" x="63.623047"/>
      </g>
     </g>
    </g>
    <g id="ytick_7">
     <g id="line2d_10">
      <g>
       <use xlink:href="#mb588d08e37" x="18" y="25.92" style="stroke: #000000; stroke-width: 0.8"/>
      </g>
     </g>
     <g id="text_10">
      <!-- 15 -->
      <g transform="translate(-1.725 29.719219)scale(0.1 -0.1)">
       <use xlink:href="#DejaVuSans-31"/>
       <use xlink:href="#DejaVuSans-35" x="63.623047"/>
      </g>
     </g>
    </g>
   </g>
   <g id="patch_3">
    <path d="M 18 189 
L 18 25.92 
" style="fill: none; stroke: #000000; stroke-width: 0.8; stroke-linejoin: miter; stroke-linecap: square"/>
   </g>
   <g id="patch_4">
    <path d="M 129.6 189 
L 129.6 25.92 
" style="fill: none; stroke: #000000; stroke-width: 0.8; stroke-linejoin: miter; stroke-linecap: square"/>
   </g>
   <g id="patch_5">
    <path d="M 18 189 
L 129.6 189 
" style="fill: none; stroke: #000000; stroke-width: 0.8; stroke-linejoin: miter; stroke-linecap: square"/>
   </g>
   <g id="patch_6">
    <path d="M 18 25.92 
L 129.6 25.92 
" style="fill: none; stroke: #000000; stroke-width: 0.8; stroke-linejoin: miter; stroke-linecap: square"/>
   </g>
  </g>
 </g>
 <defs>
  <clipPath id="p27021bf521">
   <rect x="18" y="25.92" width="111.6" height="163.08"/>
  </clipPath>
 </defs>
</svg>
