<?xml version="1.0" encoding="utf-8" standalone="no"?>
<!DOCTYPE svg PUBLIC "-//W3C//DTD SVG 1.1//EN"
  "http://www.w3.org/Graphics/SVG/1.1/DTD/svg11.dtd">
<svg xmlns:xlink="http://www.w3.org/1999/xlink" width="144pt" height="216pt" viewBox="0 0 144 216" xmlns="http://www.w3.org/2000/svg" version="1.1">
 <metadata>
  <rdf:RDF xmlns:dc="http://purl.org/dc/elements/1.1/" xmlns:cc="http://creativecommons.org/ns#" xmlns:rdf="http://www.w3.org/1999/02/22-rdf-syntax-ns#">
   <cc:Work>
    <dc:type rdf:resource="http://purl.org/dc/dcmitype/StillImage"/>
    <dc:date>2022-06-22T17:24:53.440028</dc:date>
    <dc:format>image/svg+xml</dc:format>
    <dc:creator>
     <cc:Agent>
      <dc:title>Matplotlib v3.5.1, https://matplotlib.org/</dc:title>
     </cc:Agent>
    </dc:creator>
   </cc:Work>
  </rdf:RDF>
 </metadata>
 <defs>
  <style type="text/css">*{stroke-linejoin: round; stroke-linecap: butt}</style>
 </defs>
 <g id="figure_1">
  <g id="patch_1">
   <path d="M 0 216 
L 144 216 
L 144 0 
L 0 0 
L 0 216 
z
" style="fill: none"/>
  </g>
  <g id="axes_1">
   <g id="patch_2">
    <path d="M 18 189 
L 129.6 189 
L 129.6 25.92 
L 18 25.92 
z
" style="fill: #ffffff"/>
   </g>
   <g id="PathCollection_1">
    <defs>
     <path id="m10446eeb38" d="M 0 2.738613 
C 0.726289 2.738613 1.422928 2.450055 1.936492 1.936492 
C 2.450055 1.422928 2.738613 0.726289 2.738613 0 
C 2.738613 -0.726289 2.450055 -1.422928 1.936492 -1.936492 
C 1.422928 -2.450055 0.726289 -2.738613 0 -2.738613 
C -0.726289 -2.738613 -1.422928 -2.450055 -1.936492 -1.936492 
C -2.450055 -1.422928 -2.738613 -0.726289 -2.738613 0 
C -2.738613 0.726289 -2.450055 1.422928 -1.936492 1.936492 
C -1.422928 2.450055 -0.726289 2.738613 0 2.738613 
z
" style="stroke: #ff0000; stroke-width: 1.75"/>
    </defs>
    <g clip-path="url(#p289f6e0936)">
     <use xlink:href="#m10446eeb38" x="80.775" y="107.46" style="fill: #ff0000; stroke: #ff0000; stroke-width: 1.75"/>
     <use xlink:href="#m10446eeb38" x="94.725" y="107.46" style="fill: #ff0000; stroke: #ff0000; stroke-width: 1.75"/>
     <use xlink:href="#m10446eeb38" x="59.85" y="119.229285" style="fill: #ff0000; stroke: #ff0000; stroke-width: 1.75"/>
     <use xlink:href="#m10446eeb38" x="73.8" y="119.229285" style="fill: #ff0000; stroke: #ff0000; stroke-width: 1.75"/>
     <use xlink:href="#m10446eeb38" x="87.75" y="119.229285" style="fill: #ff0000; stroke: #ff0000; stroke-width: 1.75"/>
     <use xlink:href="#m10446eeb38" x="66.825" y="130.99857" style="fill: #ff0000; stroke: #ff0000; stroke-width: 1.75"/>
     <use xlink:href="#m10446eeb38" x="80.775" y="130.99857" style="fill: #ff0000; stroke: #ff0000; stroke-width: 1.75"/>
    </g>
   </g>
   <g id="PathCollection_2">
    <defs>
     <path id="C0_0_7cf5764c53" d="M 0 2.738613 
C 0.726289 2.738613 1.422928 2.450055 1.936492 1.936492 
C 2.450055 1.422928 2.738613 0.726289 2.738613 -0 
C 2.738613 -0.726289 2.450055 -1.422928 1.936492 -1.936492 
C 1.422928 -2.450055 0.726289 -2.738613 0 -2.738613 
C -0.726289 -2.738613 -1.422928 -2.450055 -1.936492 -1.936492 
C -2.450055 -1.422928 -2.738613 -0.726289 -2.738613 0 
C -2.738613 0.726289 -2.450055 1.422928 -1.936492 1.936492 
C -1.422928 2.450055 -0.726289 2.738613 0 2.738613 
z
"/>
    </defs>
    <g clip-path="url(#p289f6e0936)">
     <use xlink:href="#C0_0_7cf5764c53" x="66.825" y="83.92143" style="fill: none; stroke: #ff0000; stroke-width: 1.75"/>
    </g>
    <g clip-path="url(#p289f6e0936)">
     <use xlink:href="#C0_0_7cf5764c53" x="80.775" y="83.92143" style="fill: none; stroke: #ff0000; stroke-width: 1.75"/>
    </g>
    <g clip-path="url(#p289f6e0936)">
     <use xlink:href="#C0_0_7cf5764c53" x="59.85" y="95.690715" style="fill: none; stroke: #ff0000; stroke-width: 1.75"/>
    </g>
    <g clip-path="url(#p289f6e0936)">
     <use xlink:href="#C0_0_7cf5764c53" x="73.8" y="95.690715" style="fill: none; stroke: #ff0000; stroke-width: 1.75"/>
    </g>
    <g clip-path="url(#p289f6e0936)">
     <use xlink:href="#C0_0_7cf5764c53" x="87.75" y="95.690715" style="fill: none; stroke: #ff0000; stroke-width: 1.75"/>
    </g>
    <g clip-path="url(#p289f6e0936)">
     <use xlink:href="#C0_0_7cf5764c53" x="52.875" y="107.46" style="fill: none; stroke: #ff0000; stroke-width: 1.75"/>
    </g>
    <g clip-path="url(#p289f6e0936)">
     <use xlink:href="#C0_0_7cf5764c53" x="66.825" y="107.46" style="fill: none; stroke: #ff0000; stroke-width: 1.75"/>
    </g>
   </g>
   <g id="PathCollection_3">
    <path d="M 107.01357 65.810711 
C 107.434457 65.810711 107.838161 65.643491 108.135773 65.345879 
C 108.433385 65.048268 108.600605 64.644563 108.600605 64.223676 
C 108.600605 63.80279 108.433385 63.399085 108.135773 63.101473 
C 107.838161 62.803861 107.434457 62.636641 107.01357 62.636641 
C 106.592683 62.636641 106.188978 62.803861 105.891367 63.101473 
C 105.593755 63.399085 105.426535 63.80279 105.426535 64.223676 
C 105.426535 64.644563 105.593755 65.048268 105.891367 65.345879 
C 106.188978 65.643491 106.592683 65.810711 107.01357 65.810711 
z
" clip-path="url(#p289f6e0936)" style="stroke: #000000"/>
    <path d="M 118.596751 121.382146 
C 118.896178 121.382146 119.183382 121.263182 119.39511 121.051454 
C 119.606837 120.839727 119.725801 120.552523 119.725801 120.253095 
C 119.725801 119.953668 119.606837 119.666463 119.39511 119.454736 
C 119.183382 119.243009 118.896178 119.124045 118.596751 119.124045 
C 118.297323 119.124045 118.010119 119.243009 117.798391 119.454736 
C 117.586664 119.666463 117.4677 119.953668 117.4677 120.253095 
C 117.4677 120.552523 117.586664 120.839727 117.798391 121.051454 
C 118.010119 121.263182 118.297323 121.382146 118.596751 121.382146 
z
" clip-path="url(#p289f6e0936)" style="stroke: #000000"/>
    <path d="M 118.107719 112.700907 
C 118.451636 112.700907 118.781513 112.564268 119.024699 112.321082 
C 119.267884 112.077896 119.404524 111.748019 119.404524 111.404103 
C 119.404524 111.060186 119.267884 110.730309 119.024699 110.487123 
C 118.781513 110.243937 118.451636 110.107298 118.107719 110.107298 
C 117.763802 110.107298 117.433925 110.243937 117.190739 110.487123 
C 116.947554 110.730309 116.810914 111.060186 116.810914 111.404103 
C 116.810914 111.748019 116.947554 112.077896 117.190739 112.321082 
C 117.433925 112.564268 117.763802 112.700907 118.107719 112.700907 
z
" clip-path="url(#p289f6e0936)" style="stroke: #000000"/>
    <path d="M 114.285334 106.106988 
C 114.783996 106.106988 115.262301 105.908867 115.614908 105.55626 
C 115.967515 105.203653 116.165636 104.725348 116.165636 104.226686 
C 116.165636 103.728024 115.967515 103.249719 115.614908 102.897112 
C 115.262301 102.544505 114.783996 102.346385 114.285334 102.346385 
C 113.786672 102.346385 113.308367 102.544505 112.95576 102.897112 
C 112.603153 103.249719 112.405033 103.728024 112.405033 104.226686 
C 112.405033 104.725348 112.603153 105.203653 112.95576 105.55626 
C 113.308367 105.908867 113.786672 106.106988 114.285334 106.106988 
z
" clip-path="url(#p289f6e0936)" style="stroke: #000000"/>
    <path d="M 110.405353 88.612016 
C 110.724367 88.612016 111.030358 88.48527 111.255935 88.259693 
C 111.481512 88.034116 111.608257 87.728125 111.608257 87.409111 
C 111.608257 87.090097 111.481512 86.784106 111.255935 86.558529 
C 111.030358 86.332952 110.724367 86.206207 110.405353 86.206207 
C 110.086339 86.206207 109.780348 86.332952 109.554771 86.558529 
C 109.329194 86.784106 109.202448 87.090097 109.202448 87.409111 
C 109.202448 87.728125 109.329194 88.034116 109.554771 88.259693 
C 109.780348 88.48527 110.086339 88.612016 110.405353 88.612016 
z
" clip-path="url(#p289f6e0936)" style="stroke: #000000"/>
    <path d="M 102.192581 78.150958 
C 102.522885 78.150958 102.839705 78.019727 103.073265 77.786167 
C 103.306826 77.552607 103.438057 77.235787 103.438057 76.905483 
C 103.438057 76.575179 103.306826 76.258359 103.073265 76.024798 
C 102.839705 75.791238 102.522885 75.660007 102.192581 75.660007 
C 101.862277 75.660007 101.545457 75.791238 101.311897 76.024798 
C 101.078337 76.258359 100.947106 76.575179 100.947106 76.905483 
C 100.947106 77.235787 101.078337 77.552607 101.311897 77.786167 
C 101.545457 78.019727 101.862277 78.150958 102.192581 78.150958 
z
" clip-path="url(#p289f6e0936)" style="stroke: #000000"/>
    <path d="M 102.355444 72.353212 
C 102.853168 72.353212 103.330573 72.155464 103.682518 71.80352 
C 104.034462 71.451576 104.23221 70.97417 104.23221 70.476446 
C 104.23221 69.978722 104.034462 69.501316 103.682518 69.149372 
C 103.330573 68.797428 102.853168 68.59968 102.355444 68.59968 
C 101.857719 68.59968 101.380314 68.797428 101.02837 69.149372 
C 100.676426 69.501316 100.478678 69.978722 100.478678 70.476446 
C 100.478678 70.97417 100.676426 71.451576 101.02837 71.80352 
C 101.380314 72.155464 101.857719 72.353212 102.355444 72.353212 
z
" clip-path="url(#p289f6e0936)" style="stroke: #000000"/>
    <path d="M 96.113736 56.309516 
C 96.113736 56.309516 96.113736 56.309516 96.113736 56.309516 
C 96.113736 56.309516 96.113736 56.309516 96.113736 56.309516 
C 96.113736 56.309516 96.113736 56.309516 96.113736 56.309516 
C 96.113736 56.309516 96.113736 56.309516 96.113736 56.309516 
C 96.113736 56.309516 96.113736 56.309516 96.113736 56.309516 
C 96.113736 56.309516 96.113736 56.309516 96.113736 56.309516 
C 96.113736 56.309516 96.113736 56.309516 96.113736 56.309516 
C 96.113736 56.309516 96.113736 56.309516 96.113736 56.309516 
z
" clip-path="url(#p289f6e0936)" style="stroke: #000000"/>
    <path d="M 94.093152 50.649705 
C 94.512736 50.649705 94.915193 50.483002 95.211884 50.186311 
C 95.508575 49.88962 95.675278 49.487164 95.675278 49.067579 
C 95.675278 48.647994 95.508575 48.245538 95.211884 47.948847 
C 94.915193 47.652156 94.512736 47.485453 94.093152 47.485453 
C 93.673567 47.485453 93.271111 47.652156 92.97442 47.948847 
C 92.677728 48.245538 92.511026 48.647994 92.511026 49.067579 
C 92.511026 49.487164 92.677728 49.88962 92.97442 50.186311 
C 93.271111 50.483002 93.673567 50.649705 94.093152 50.649705 
z
" clip-path="url(#p289f6e0936)" style="stroke: #000000"/>
    <path d="M 87.913288 37.077558 
C 87.913288 37.077558 87.913288 37.077558 87.913288 37.077558 
C 87.913288 37.077558 87.913288 37.077558 87.913288 37.077558 
C 87.913288 37.077558 87.913288 37.077558 87.913288 37.077558 
C 87.913288 37.077558 87.913288 37.077558 87.913288 37.077558 
C 87.913288 37.077558 87.913288 37.077558 87.913288 37.077558 
C 87.913288 37.077558 87.913288 37.077558 87.913288 37.077558 
C 87.913288 37.077558 87.913288 37.077558 87.913288 37.077558 
C 87.913288 37.077558 87.913288 37.077558 87.913288 37.077558 
z
" clip-path="url(#p289f6e0936)" style="stroke: #000000"/>
    <path d="M 80.246205 29.206435 
C 80.246205 29.206435 80.246205 29.206435 80.246205 29.206435 
C 80.246205 29.206435 80.246205 29.206435 80.246205 29.206435 
C 80.246205 29.206435 80.246205 29.206435 80.246205 29.206435 
C 80.246205 29.206435 80.246205 29.206435 80.246205 29.206435 
C 80.246205 29.206435 80.246205 29.206435 80.246205 29.206435 
C 80.246205 29.206435 80.246205 29.206435 80.246205 29.206435 
C 80.246205 29.206435 80.246205 29.206435 80.246205 29.206435 
C 80.246205 29.206435 80.246205 29.206435 80.246205 29.206435 
z
" clip-path="url(#p289f6e0936)" style="stroke: #000000"/>
    <path d="M 121.394493 164.906687 
C 121.394493 164.906687 121.394493 164.906687 121.394493 164.906687 
C 121.394493 164.906687 121.394493 164.906687 121.394493 164.906687 
C 121.394493 164.906687 121.394493 164.906687 121.394493 164.906687 
C 121.394493 164.906687 121.394493 164.906687 121.394493 164.906687 
C 121.394493 164.906687 121.394493 164.906687 121.394493 164.906687 
C 121.394493 164.906687 121.394493 164.906687 121.394493 164.906687 
C 121.394493 164.906687 121.394493 164.906687 121.394493 164.906687 
C 121.394493 164.906687 121.394493 164.906687 121.394493 164.906687 
z
" clip-path="url(#p289f6e0936)" style="stroke: #000000"/>
    <path d="M 119.330271 154.803111 
C 119.749855 154.803111 120.152311 154.636408 120.449003 154.339717 
C 120.745694 154.043025 120.912397 153.640569 120.912397 153.220984 
C 120.912397 152.8014 120.745694 152.398944 120.449003 152.102252 
C 120.152311 151.805561 119.749855 151.638858 119.330271 151.638858 
C 118.910686 151.638858 118.50823 151.805561 118.211538 152.102252 
C 117.914847 152.398944 117.748144 152.8014 117.748144 153.220984 
C 117.748144 153.640569 117.914847 154.043025 118.211538 154.339717 
C 118.50823 154.636408 118.910686 154.803111 119.330271 154.803111 
z
" clip-path="url(#p289f6e0936)" style="stroke: #000000"/>
    <path d="M 115.373592 145.690155 
C 115.485096 145.690155 115.592049 145.645854 115.670894 145.567008 
C 115.749739 145.488163 115.79404 145.381211 115.79404 145.269707 
C 115.79404 145.158202 115.749739 145.05125 115.670894 144.972405 
C 115.592049 144.89356 115.485096 144.849258 115.373592 144.849258 
C 115.262088 144.849258 115.155136 144.89356 115.07629 144.972405 
C 114.997445 145.05125 114.953144 145.158202 114.953144 145.269707 
C 114.953144 145.381211 114.997445 145.488163 115.07629 145.567008 
C 115.155136 145.645854 115.262088 145.690155 115.373592 145.690155 
z
" clip-path="url(#p289f6e0936)" style="stroke: #000000"/>
    <path d="M 111.887689 137.658824 
C 112.152892 137.658824 112.407269 137.553458 112.594796 137.365931 
C 112.782323 137.178404 112.887689 136.924027 112.887689 136.658824 
C 112.887689 136.393621 112.782323 136.139244 112.594796 135.951717 
C 112.407269 135.76419 112.152892 135.658824 111.887689 135.658824 
C 111.622486 135.658824 111.368109 135.76419 111.180583 135.951717 
C 110.993056 136.139244 110.887689 136.393621 110.887689 136.658824 
C 110.887689 136.924027 110.993056 137.178404 111.180583 137.365931 
C 111.368109 137.553458 111.622486 137.658824 111.887689 137.658824 
z
" clip-path="url(#p289f6e0936)" style="stroke: #000000"/>
    <path d="M 108.996431 126.680974 
C 109.495249 126.680974 109.973703 126.482791 110.32642 126.130074 
C 110.679138 125.777357 110.87732 125.298902 110.87732 124.800085 
C 110.87732 124.301267 110.679138 123.822813 110.32642 123.470095 
C 109.973703 123.117378 109.495249 122.919196 108.996431 122.919196 
C 108.497614 122.919196 108.019159 123.117378 107.666442 123.470095 
C 107.313725 123.822813 107.115542 124.301267 107.115542 124.800085 
C 107.115542 125.298902 107.313725 125.777357 107.666442 126.130074 
C 108.019159 126.482791 108.497614 126.680974 108.996431 126.680974 
z
" clip-path="url(#p289f6e0936)" style="stroke: #000000"/>
    <path d="M 101.833128 117.71761 
C 102.331946 117.71761 102.8104 117.519428 103.163118 117.166711 
C 103.515835 116.813993 103.714017 116.335539 103.714017 115.836721 
C 103.714017 115.337904 103.515835 114.859449 103.163118 114.506732 
C 102.8104 114.154015 102.331946 113.955832 101.833128 113.955832 
C 101.334311 113.955832 100.855856 114.154015 100.503139 114.506732 
C 100.150422 114.859449 99.95224 115.337904 99.95224 115.836721 
C 99.95224 116.335539 100.150422 116.813993 100.503139 117.166711 
C 100.855856 117.519428 101.334311 117.71761 101.833128 117.71761 
z
" clip-path="url(#p289f6e0936)" style="stroke: #000000"/>
    <path d="M 100.445799 103.941346 
C 100.94446 103.941346 101.422765 103.743225 101.775373 103.390618 
C 102.12798 103.038011 102.3261 102.559706 102.3261 102.061044 
C 102.3261 101.562382 102.12798 101.084077 101.775373 100.73147 
C 101.422765 100.378863 100.94446 100.180743 100.445799 100.180743 
C 99.947137 100.180743 99.468832 100.378863 99.116225 100.73147 
C 98.763617 101.084077 98.565497 101.562382 98.565497 102.061044 
C 98.565497 102.559706 98.763617 103.038011 99.116225 103.390618 
C 99.468832 103.743225 99.947137 103.941346 100.445799 103.941346 
z
" clip-path="url(#p289f6e0936)" style="stroke: #000000"/>
    <path d="M 94.231388 93.861013 
C 94.730206 93.861013 95.20866 93.662831 95.561378 93.310113 
C 95.914095 92.957396 96.112277 92.478942 96.112277 91.980124 
C 96.112277 91.481307 95.914095 91.002852 95.561378 90.650135 
C 95.20866 90.297418 94.730206 90.099235 94.231388 90.099235 
C 93.732571 90.099235 93.254116 90.297418 92.901399 90.650135 
C 92.548682 91.002852 92.350499 91.481307 92.350499 91.980124 
C 92.350499 92.478942 92.548682 92.957396 92.901399 93.310113 
C 93.254116 93.662831 93.732571 93.861013 94.231388 93.861013 
z
" clip-path="url(#p289f6e0936)" style="stroke: #000000"/>
    <path d="M 94.446575 84.565678 
C 94.945392 84.565678 95.423847 84.367496 95.776564 84.014779 
C 96.129281 83.662062 96.327464 83.183607 96.327464 82.68479 
C 96.327464 82.185972 96.129281 81.707518 95.776564 81.3548 
C 95.423847 81.002083 94.945392 80.803901 94.446575 80.803901 
C 93.947757 80.803901 93.469303 81.002083 93.116586 81.3548 
C 92.763868 81.707518 92.565686 82.185972 92.565686 82.68479 
C 92.565686 83.183607 92.763868 83.662062 93.116586 84.014779 
C 93.469303 84.367496 93.947757 84.565678 94.446575 84.565678 
z
" clip-path="url(#p289f6e0936)" style="stroke: #000000"/>
    <path d="M 89.961086 72.477422 
C 90.459748 72.477422 90.938053 72.279301 91.29066 71.926694 
C 91.643267 71.574087 91.841388 71.095782 91.841388 70.59712 
C 91.841388 70.098458 91.643267 69.620153 91.29066 69.267546 
C 90.938053 68.914939 90.459748 68.716819 89.961086 68.716819 
C 89.462424 68.716819 88.984119 68.914939 88.631512 69.267546 
C 88.278905 69.620153 88.080784 70.098458 88.080784 70.59712 
C 88.080784 71.095782 88.278905 71.574087 88.631512 71.926694 
C 88.984119 72.279301 89.462424 72.477422 89.961086 72.477422 
z
" clip-path="url(#p289f6e0936)" style="stroke: #000000"/>
    <path d="M 84.0718 60.545829 
C 84.238538 60.545829 84.398469 60.479584 84.51637 60.361682 
C 84.634271 60.243781 84.700517 60.08385 84.700517 59.917112 
C 84.700517 59.750375 84.634271 59.590444 84.51637 59.472543 
C 84.398469 59.354641 84.238538 59.288396 84.0718 59.288396 
C 83.905063 59.288396 83.745132 59.354641 83.62723 59.472543 
C 83.509329 59.590444 83.443084 59.750375 83.443084 59.917112 
C 83.443084 60.08385 83.509329 60.243781 83.62723 60.361682 
C 83.745132 60.479584 83.905063 60.545829 84.0718 60.545829 
z
" clip-path="url(#p289f6e0936)" style="stroke: #000000"/>
    <path d="M 81.224849 54.373413 
C 81.224849 54.373413 81.224849 54.373413 81.224849 54.373413 
C 81.224849 54.373413 81.224849 54.373413 81.224849 54.373413 
C 81.224849 54.373413 81.224849 54.373413 81.224849 54.373413 
C 81.224849 54.373413 81.224849 54.373413 81.224849 54.373413 
C 81.224849 54.373413 81.224849 54.373413 81.224849 54.373413 
C 81.224849 54.373413 81.224849 54.373413 81.224849 54.373413 
C 81.224849 54.373413 81.224849 54.373413 81.224849 54.373413 
C 81.224849 54.373413 81.224849 54.373413 81.224849 54.373413 
z
" clip-path="url(#p289f6e0936)" style="stroke: #000000"/>
    <path d="M 78.483576 43.507177 
C 78.898911 43.507177 79.297291 43.342162 79.590977 43.048476 
C 79.884664 42.75479 80.049678 42.356409 80.049678 41.941074 
C 80.049678 41.525739 79.884664 41.127359 79.590977 40.833672 
C 79.297291 40.539986 78.898911 40.374972 78.483576 40.374972 
C 78.06824 40.374972 77.66986 40.539986 77.376174 40.833672 
C 77.082487 41.127359 76.917473 41.525739 76.917473 41.941074 
C 76.917473 42.356409 77.082487 42.75479 77.376174 43.048476 
C 77.66986 43.342162 78.06824 43.507177 78.483576 43.507177 
z
" clip-path="url(#p289f6e0936)" style="stroke: #000000"/>
    <path d="M 77.169627 32.02192 
C 77.589212 32.02192 77.991668 31.855218 78.288359 31.558526 
C 78.585051 31.261835 78.751753 30.859379 78.751753 30.439794 
C 78.751753 30.02021 78.585051 29.617753 78.288359 29.321062 
C 77.991668 29.024371 77.589212 28.857668 77.169627 28.857668 
C 76.750043 28.857668 76.347586 29.024371 76.050895 29.321062 
C 75.754204 29.617753 75.587501 30.02021 75.587501 30.439794 
C 75.587501 30.859379 75.754204 31.261835 76.050895 31.558526 
C 76.347586 31.855218 76.750043 32.02192 77.169627 32.02192 
z
" clip-path="url(#p289f6e0936)" style="stroke: #000000"/>
    <path d="M 108.064175 170.232831 
C 108.064175 170.232831 108.064175 170.232831 108.064175 170.232831 
C 108.064175 170.232831 108.064175 170.232831 108.064175 170.232831 
C 108.064175 170.232831 108.064175 170.232831 108.064175 170.232831 
C 108.064175 170.232831 108.064175 170.232831 108.064175 170.232831 
C 108.064175 170.232831 108.064175 170.232831 108.064175 170.232831 
C 108.064175 170.232831 108.064175 170.232831 108.064175 170.232831 
C 108.064175 170.232831 108.064175 170.232831 108.064175 170.232831 
C 108.064175 170.232831 108.064175 170.232831 108.064175 170.232831 
z
" clip-path="url(#p289f6e0936)" style="stroke: #000000"/>
    <path d="M 104.767131 159.534447 
C 105.217229 159.534447 105.648953 159.355621 105.96722 159.037354 
C 106.285488 158.719086 106.464314 158.287363 106.464314 157.837264 
C 106.464314 157.387166 106.285488 156.955442 105.96722 156.637175 
C 105.648953 156.318907 105.217229 156.140082 104.767131 156.140082 
C 104.317033 156.140082 103.885309 156.318907 103.567041 156.637175 
C 103.248774 156.955442 103.069948 157.387166 103.069948 157.837264 
C 103.069948 158.287363 103.248774 158.719086 103.567041 159.037354 
C 103.885309 159.355621 104.317033 159.534447 104.767131 159.534447 
z
" clip-path="url(#p289f6e0936)" style="stroke: #000000"/>
    <path d="M 100.239188 145.428927 
C 100.239188 145.428927 100.239188 145.428927 100.239188 145.428927 
C 100.239188 145.428927 100.239188 145.428927 100.239188 145.428927 
C 100.239188 145.428927 100.239188 145.428927 100.239188 145.428927 
C 100.239188 145.428927 100.239188 145.428927 100.239188 145.428927 
C 100.239188 145.428927 100.239188 145.428927 100.239188 145.428927 
C 100.239188 145.428927 100.239188 145.428927 100.239188 145.428927 
C 100.239188 145.428927 100.239188 145.428927 100.239188 145.428927 
C 100.239188 145.428927 100.239188 145.428927 100.239188 145.428927 
z
" clip-path="url(#p289f6e0936)" style="stroke: #000000"/>
    <path d="M 99.338769 138.982427 
C 99.713456 138.982427 100.072847 138.833562 100.337791 138.568618 
C 100.602735 138.303674 100.7516 137.944283 100.7516 137.569596 
C 100.7516 137.194909 100.602735 136.835518 100.337791 136.570574 
C 100.072847 136.30563 99.713456 136.156766 99.338769 136.156766 
C 98.964082 136.156766 98.604691 136.30563 98.339747 136.570574 
C 98.074803 136.835518 97.925939 137.194909 97.925939 137.569596 
C 97.925939 137.944283 98.074803 138.303674 98.339747 138.568618 
C 98.604691 138.833562 98.964082 138.982427 99.338769 138.982427 
z
" clip-path="url(#p289f6e0936)" style="stroke: #000000"/>
    <path d="M 97.738117 129.044893 
C 97.738117 129.044893 97.738117 129.044893 97.738117 129.044893 
C 97.738117 129.044893 97.738117 129.044893 97.738117 129.044893 
C 97.738117 129.044893 97.738117 129.044893 97.738117 129.044893 
C 97.738117 129.044893 97.738117 129.044893 97.738117 129.044893 
C 97.738117 129.044893 97.738117 129.044893 97.738117 129.044893 
C 97.738117 129.044893 97.738117 129.044893 97.738117 129.044893 
C 97.738117 129.044893 97.738117 129.044893 97.738117 129.044893 
C 97.738117 129.044893 97.738117 129.044893 97.738117 129.044893 
z
" clip-path="url(#p289f6e0936)" style="stroke: #000000"/>
    <path d="M 93.740254 116.176888 
C 94.239072 116.176888 94.717526 115.978706 95.070243 115.625988 
C 95.422961 115.273271 95.621143 114.794817 95.621143 114.295999 
C 95.621143 113.797181 95.422961 113.318727 95.070243 112.96601 
C 94.717526 112.613292 94.239072 112.41511 93.740254 112.41511 
C 93.241436 112.41511 92.762982 112.613292 92.410265 112.96601 
C 92.057547 113.318727 91.859365 113.797181 91.859365 114.295999 
C 91.859365 114.794817 92.057547 115.273271 92.410265 115.625988 
C 92.762982 115.978706 93.241436 116.176888 93.740254 116.176888 
z
" clip-path="url(#p289f6e0936)" style="stroke: #000000"/>
    <path d="M 87.767065 107.935251 
C 88.265882 107.935251 88.744337 107.737069 89.097054 107.384352 
C 89.449771 107.031634 89.647954 106.55318 89.647954 106.054362 
C 89.647954 105.555545 89.449771 105.07709 89.097054 104.724373 
C 88.744337 104.371656 88.265882 104.173473 87.767065 104.173473 
C 87.268247 104.173473 86.789793 104.371656 86.437075 104.724373 
C 86.084358 105.07709 85.886176 105.555545 85.886176 106.054362 
C 85.886176 106.55318 86.084358 107.031634 86.437075 107.384352 
C 86.789793 107.737069 87.268247 107.935251 87.767065 107.935251 
z
" clip-path="url(#p289f6e0936)" style="stroke: #000000"/>
    <path d="M 85.359867 96.017637 
C 85.77919 96.017637 86.181395 95.851038 86.477901 95.554532 
C 86.774407 95.258026 86.941006 94.855821 86.941006 94.436498 
C 86.941006 94.017175 86.774407 93.61497 86.477901 93.318464 
C 86.181395 93.021958 85.77919 92.855359 85.359867 92.855359 
C 84.940544 92.855359 84.538339 93.021958 84.241833 93.318464 
C 83.945327 93.61497 83.778728 94.017175 83.778728 94.436498 
C 83.778728 94.855821 83.945327 95.258026 84.241833 95.554532 
C 84.538339 95.851038 84.940544 96.017637 85.359867 96.017637 
z
" clip-path="url(#p289f6e0936)" style="stroke: #000000"/>
    <path d="M 82.069323 86.718663 
C 82.568141 86.718663 83.046595 86.52048 83.399313 86.167763 
C 83.75203 85.815046 83.950212 85.336591 83.950212 84.837774 
C 83.950212 84.338956 83.75203 83.860502 83.399313 83.507785 
C 83.046595 83.155067 82.568141 82.956885 82.069323 82.956885 
C 81.570506 82.956885 81.092051 83.155067 80.739334 83.507785 
C 80.386617 83.860502 80.188434 84.338956 80.188434 84.837774 
C 80.188434 85.336591 80.386617 85.815046 80.739334 86.167763 
C 81.092051 86.52048 81.570506 86.718663 82.069323 86.718663 
z
" clip-path="url(#p289f6e0936)" style="stroke: #000000"/>
    <path d="M 77.235004 77.947594 
C 77.733821 77.947594 78.212276 77.749411 78.564993 77.396694 
C 78.91771 77.043977 79.115892 76.565522 79.115892 76.066705 
C 79.115892 75.567887 78.91771 75.089433 78.564993 74.736715 
C 78.212276 74.383998 77.733821 74.185816 77.235004 74.185816 
C 76.736186 74.185816 76.257732 74.383998 75.905014 74.736715 
C 75.552297 75.089433 75.354115 75.567887 75.354115 76.066705 
C 75.354115 76.565522 75.552297 77.043977 75.905014 77.396694 
C 76.257732 77.749411 76.736186 77.947594 77.235004 77.947594 
z
" clip-path="url(#p289f6e0936)" style="stroke: #000000"/>
    <path d="M 74.473646 62.897211 
C 74.473646 62.897211 74.473646 62.897211 74.473646 62.897211 
C 74.473646 62.897211 74.473646 62.897211 74.473646 62.897211 
C 74.473646 62.897211 74.473646 62.897211 74.473646 62.897211 
C 74.473646 62.897211 74.473646 62.897211 74.473646 62.897211 
C 74.473646 62.897211 74.473646 62.897211 74.473646 62.897211 
C 74.473646 62.897211 74.473646 62.897211 74.473646 62.897211 
C 74.473646 62.897211 74.473646 62.897211 74.473646 62.897211 
C 74.473646 62.897211 74.473646 62.897211 74.473646 62.897211 
z
" clip-path="url(#p289f6e0936)" style="stroke: #000000"/>
    <path d="M 70.992536 57.859578 
C 70.992536 57.859578 70.992536 57.859578 70.992536 57.859578 
C 70.992536 57.859578 70.992536 57.859578 70.992536 57.859578 
C 70.992536 57.859578 70.992536 57.859578 70.992536 57.859578 
C 70.992536 57.859578 70.992536 57.859578 70.992536 57.859578 
C 70.992536 57.859578 70.992536 57.859578 70.992536 57.859578 
C 70.992536 57.859578 70.992536 57.859578 70.992536 57.859578 
C 70.992536 57.859578 70.992536 57.859578 70.992536 57.859578 
C 70.992536 57.859578 70.992536 57.859578 70.992536 57.859578 
z
" clip-path="url(#p289f6e0936)" style="stroke: #000000"/>
    <path d="M 67.491442 44.893091 
C 67.491442 44.893091 67.491442 44.893091 67.491442 44.893091 
C 67.491442 44.893091 67.491442 44.893091 67.491442 44.893091 
C 67.491442 44.893091 67.491442 44.893091 67.491442 44.893091 
C 67.491442 44.893091 67.491442 44.893091 67.491442 44.893091 
C 67.491442 44.893091 67.491442 44.893091 67.491442 44.893091 
C 67.491442 44.893091 67.491442 44.893091 67.491442 44.893091 
C 67.491442 44.893091 67.491442 44.893091 67.491442 44.893091 
C 67.491442 44.893091 67.491442 44.893091 67.491442 44.893091 
z
" clip-path="url(#p289f6e0936)" style="stroke: #000000"/>
    <path d="M 61.861459 32.747777 
C 62.246033 32.747777 62.614908 32.594984 62.886843 32.323049 
C 63.158778 32.051114 63.311571 31.682239 63.311571 31.297664 
C 63.311571 30.91309 63.158778 30.544215 62.886843 30.27228 
C 62.614908 30.000345 62.246033 29.847552 61.861459 29.847552 
C 61.476885 29.847552 61.10801 30.000345 60.836075 30.27228 
C 60.56414 30.544215 60.411347 30.91309 60.411347 31.297664 
C 60.411347 31.682239 60.56414 32.051114 60.836075 32.323049 
C 61.10801 32.594984 61.476885 32.747777 61.861459 32.747777 
z
" clip-path="url(#p289f6e0936)" style="stroke: #000000"/>
    <path d="M 60.415082 25.974857 
C 60.415082 25.974857 60.415082 25.974857 60.415082 25.974857 
C 60.415082 25.974857 60.415082 25.974857 60.415082 25.974857 
C 60.415082 25.974857 60.415082 25.974857 60.415082 25.974857 
C 60.415082 25.974857 60.415082 25.974857 60.415082 25.974857 
C 60.415082 25.974857 60.415082 25.974857 60.415082 25.974857 
C 60.415082 25.974857 60.415082 25.974857 60.415082 25.974857 
C 60.415082 25.974857 60.415082 25.974857 60.415082 25.974857 
C 60.415082 25.974857 60.415082 25.974857 60.415082 25.974857 
z
" clip-path="url(#p289f6e0936)" style="stroke: #000000"/>
    <path d="M 100.251028 169.678776 
C 100.67269 169.678776 101.077139 169.511248 101.375299 169.213088 
C 101.673459 168.914928 101.840987 168.51048 101.840987 168.088818 
C 101.840987 167.667156 101.673459 167.262707 101.375299 166.964547 
C 101.077139 166.666387 100.67269 166.498859 100.251028 166.498859 
C 99.829366 166.498859 99.424917 166.666387 99.126757 166.964547 
C 98.828597 167.262707 98.661069 167.667156 98.661069 168.088818 
C 98.661069 168.51048 98.828597 168.914928 99.126757 169.213088 
C 99.424917 169.511248 99.829366 169.678776 100.251028 169.678776 
z
" clip-path="url(#p289f6e0936)" style="stroke: #000000"/>
    <path d="M 95.232709 161.179829 
C 95.232709 161.179829 95.232709 161.179829 95.232709 161.179829 
C 95.232709 161.179829 95.232709 161.179829 95.232709 161.179829 
C 95.232709 161.179829 95.232709 161.179829 95.232709 161.179829 
C 95.232709 161.179829 95.232709 161.179829 95.232709 161.179829 
C 95.232709 161.179829 95.232709 161.179829 95.232709 161.179829 
C 95.232709 161.179829 95.232709 161.179829 95.232709 161.179829 
C 95.232709 161.179829 95.232709 161.179829 95.232709 161.179829 
C 95.232709 161.179829 95.232709 161.179829 95.232709 161.179829 
z
" clip-path="url(#p289f6e0936)" style="stroke: #000000"/>
    <path d="M 92.743181 152.878768 
C 92.743181 152.878768 92.743181 152.878768 92.743181 152.878768 
C 92.743181 152.878768 92.743181 152.878768 92.743181 152.878768 
C 92.743181 152.878768 92.743181 152.878768 92.743181 152.878768 
C 92.743181 152.878768 92.743181 152.878768 92.743181 152.878768 
C 92.743181 152.878768 92.743181 152.878768 92.743181 152.878768 
C 92.743181 152.878768 92.743181 152.878768 92.743181 152.878768 
C 92.743181 152.878768 92.743181 152.878768 92.743181 152.878768 
C 92.743181 152.878768 92.743181 152.878768 92.743181 152.878768 
z
" clip-path="url(#p289f6e0936)" style="stroke: #000000"/>
    <path d="M 89.090982 141.965784 
C 89.090982 141.965784 89.090982 141.965784 89.090982 141.965784 
C 89.090982 141.965784 89.090982 141.965784 89.090982 141.965784 
C 89.090982 141.965784 89.090982 141.965784 89.090982 141.965784 
C 89.090982 141.965784 89.090982 141.965784 89.090982 141.965784 
C 89.090982 141.965784 89.090982 141.965784 89.090982 141.965784 
C 89.090982 141.965784 89.090982 141.965784 89.090982 141.965784 
C 89.090982 141.965784 89.090982 141.965784 89.090982 141.965784 
C 89.090982 141.965784 89.090982 141.965784 89.090982 141.965784 
z
" clip-path="url(#p289f6e0936)" style="stroke: #000000"/>
    <path d="M 89.258841 130.142011 
C 89.757659 130.142011 90.236113 129.943828 90.588831 129.591111 
C 90.941548 129.238394 91.13973 128.759939 91.13973 128.261122 
C 91.13973 127.762304 90.941548 127.28385 90.588831 126.931132 
C 90.236113 126.578415 89.757659 126.380233 89.258841 126.380233 
C 88.760024 126.380233 88.281569 126.578415 87.928852 126.931132 
C 87.576135 127.28385 87.377952 127.762304 87.377952 128.261122 
C 87.377952 128.759939 87.576135 129.238394 87.928852 129.591111 
C 88.281569 129.943828 88.760024 130.142011 89.258841 130.142011 
z
" clip-path="url(#p289f6e0936)" style="stroke: #000000"/>
    <path d="M 78.942556 119.846685 
C 79.441374 119.846685 79.919828 119.648503 80.272546 119.295785 
C 80.625263 118.943068 80.823445 118.464614 80.823445 117.965796 
C 80.823445 117.466978 80.625263 116.988524 80.272546 116.635807 
C 79.919828 116.283089 79.441374 116.084907 78.942556 116.084907 
C 78.443739 116.084907 77.965284 116.283089 77.612567 116.635807 
C 77.25985 116.988524 77.061667 117.466978 77.061667 117.965796 
C 77.061667 118.464614 77.25985 118.943068 77.612567 119.295785 
C 77.965284 119.648503 78.443739 119.846685 78.942556 119.846685 
z
" clip-path="url(#p289f6e0936)" style="stroke: #000000"/>
    <path d="M 79.853136 111.208273 
C 80.135291 111.208273 80.405927 111.096172 80.605441 110.896659 
C 80.804954 110.697145 80.917055 110.426509 80.917055 110.144355 
C 80.917055 109.8622 80.804954 109.591564 80.605441 109.392051 
C 80.405927 109.192537 80.135291 109.080436 79.853136 109.080436 
C 79.570982 109.080436 79.300346 109.192537 79.100832 109.392051 
C 78.901319 109.591564 78.789218 109.8622 78.789218 110.144355 
C 78.789218 110.426509 78.901319 110.697145 79.100832 110.896659 
C 79.300346 111.096172 79.570982 111.208273 79.853136 111.208273 
z
" clip-path="url(#p289f6e0936)" style="stroke: #000000"/>
    <path d="M 79.560678 103.675483 
C 80.059495 103.675483 80.53795 103.477301 80.890667 103.124583 
C 81.243384 102.771866 81.441566 102.293412 81.441566 101.794594 
C 81.441566 101.295777 81.243384 100.817322 80.890667 100.464605 
C 80.53795 100.111888 80.059495 99.913705 79.560678 99.913705 
C 79.06186 99.913705 78.583406 100.111888 78.230688 100.464605 
C 77.877971 100.817322 77.679789 101.295777 77.679789 101.794594 
C 77.679789 102.293412 77.877971 102.771866 78.230688 103.124583 
C 78.583406 103.477301 79.06186 103.675483 79.560678 103.675483 
z
" clip-path="url(#p289f6e0936)" style="stroke: #000000"/>
    <path d="M 73.708815 93.69746 
C 74.207633 93.69746 74.686087 93.499277 75.038805 93.14656 
C 75.391522 92.793843 75.589704 92.315388 75.589704 91.816571 
C 75.589704 91.317753 75.391522 90.839299 75.038805 90.486581 
C 74.686087 90.133864 74.207633 89.935682 73.708815 89.935682 
C 73.209998 89.935682 72.731543 90.133864 72.378826 90.486581 
C 72.026109 90.839299 71.827927 91.317753 71.827927 91.816571 
C 71.827927 92.315388 72.026109 92.793843 72.378826 93.14656 
C 72.731543 93.499277 73.209998 93.69746 73.708815 93.69746 
z
" clip-path="url(#p289f6e0936)" style="stroke: #000000"/>
    <path d="M 69.620295 83.0538 
C 70.118957 83.0538 70.597262 82.855679 70.949869 82.503072 
C 71.302476 82.150465 71.500596 81.67216 71.500596 81.173498 
C 71.500596 80.674837 71.302476 80.196532 70.949869 79.843924 
C 70.597262 79.491317 70.118957 79.293197 69.620295 79.293197 
C 69.121633 79.293197 68.643328 79.491317 68.290721 79.843924 
C 67.938114 80.196532 67.739993 80.674837 67.739993 81.173498 
C 67.739993 81.67216 67.938114 82.150465 68.290721 82.503072 
C 68.643328 82.855679 69.121633 83.0538 69.620295 83.0538 
z
" clip-path="url(#p289f6e0936)" style="stroke: #000000"/>
    <path d="M 61.768575 64.684035 
C 61.768575 64.684035 61.768575 64.684035 61.768575 64.684035 
C 61.768575 64.684035 61.768575 64.684035 61.768575 64.684035 
C 61.768575 64.684035 61.768575 64.684035 61.768575 64.684035 
C 61.768575 64.684035 61.768575 64.684035 61.768575 64.684035 
C 61.768575 64.684035 61.768575 64.684035 61.768575 64.684035 
C 61.768575 64.684035 61.768575 64.684035 61.768575 64.684035 
C 61.768575 64.684035 61.768575 64.684035 61.768575 64.684035 
C 61.768575 64.684035 61.768575 64.684035 61.768575 64.684035 
z
" clip-path="url(#p289f6e0936)" style="stroke: #000000"/>
    <path d="M 60.893082 62.695541 
C 61.374162 62.695541 61.835603 62.504406 62.175777 62.164231 
C 62.515952 61.824057 62.707087 61.362616 62.707087 60.881537 
C 62.707087 60.400457 62.515952 59.939017 62.175777 59.598842 
C 61.835603 59.258667 61.374162 59.067532 60.893082 59.067532 
C 60.412003 59.067532 59.950562 59.258667 59.610388 59.598842 
C 59.270213 59.939017 59.079078 60.400457 59.079078 60.881537 
C 59.079078 61.362616 59.270213 61.824057 59.610388 62.164231 
C 59.950562 62.504406 60.412003 62.695541 60.893082 62.695541 
z
" clip-path="url(#p289f6e0936)" style="stroke: #000000"/>
    <path d="M 57.42381 48.727237 
C 57.42381 48.727237 57.42381 48.727237 57.42381 48.727237 
C 57.42381 48.727237 57.42381 48.727237 57.42381 48.727237 
C 57.42381 48.727237 57.42381 48.727237 57.42381 48.727237 
C 57.42381 48.727237 57.42381 48.727237 57.42381 48.727237 
C 57.42381 48.727237 57.42381 48.727237 57.42381 48.727237 
C 57.42381 48.727237 57.42381 48.727237 57.42381 48.727237 
C 57.42381 48.727237 57.42381 48.727237 57.42381 48.727237 
C 57.42381 48.727237 57.42381 48.727237 57.42381 48.727237 
z
" clip-path="url(#p289f6e0936)" style="stroke: #000000"/>
    <path d="M 52.729473 39.219826 
C 52.729473 39.219826 52.729473 39.219826 52.729473 39.219826 
C 52.729473 39.219826 52.729473 39.219826 52.729473 39.219826 
C 52.729473 39.219826 52.729473 39.219826 52.729473 39.219826 
C 52.729473 39.219826 52.729473 39.219826 52.729473 39.219826 
C 52.729473 39.219826 52.729473 39.219826 52.729473 39.219826 
C 52.729473 39.219826 52.729473 39.219826 52.729473 39.219826 
C 52.729473 39.219826 52.729473 39.219826 52.729473 39.219826 
C 52.729473 39.219826 52.729473 39.219826 52.729473 39.219826 
z
" clip-path="url(#p289f6e0936)" style="stroke: #000000"/>
    <path d="M 85.228531 174.218993 
C 85.647854 174.218993 86.050059 174.052395 86.346565 173.755888 
C 86.643071 173.459382 86.80967 173.057177 86.80967 172.637854 
C 86.80967 172.218532 86.643071 171.816327 86.346565 171.51982 
C 86.050059 171.223314 85.647854 171.056716 85.228531 171.056716 
C 84.809208 171.056716 84.407003 171.223314 84.110497 171.51982 
C 83.813991 171.816327 83.647392 172.218532 83.647392 172.637854 
C 83.647392 173.057177 83.813991 173.459382 84.110497 173.755888 
C 84.407003 174.052395 84.809208 174.218993 85.228531 174.218993 
z
" clip-path="url(#p289f6e0936)" style="stroke: #000000"/>
    <path d="M 87.803068 164.505857 
C 88.271885 164.505857 88.721564 164.319594 89.053068 163.98809 
C 89.384572 163.656586 89.570835 163.206907 89.570835 162.73809 
C 89.570835 162.269273 89.384572 161.819594 89.053068 161.48809 
C 88.721564 161.156586 88.271885 160.970323 87.803068 160.970323 
C 87.334251 160.970323 86.884572 161.156586 86.553068 161.48809 
C 86.221564 161.819594 86.035301 162.269273 86.035301 162.73809 
C 86.035301 163.206907 86.221564 163.656586 86.553068 163.98809 
C 86.884572 164.319594 87.334251 164.505857 87.803068 164.505857 
z
" clip-path="url(#p289f6e0936)" style="stroke: #000000"/>
    <path d="M 79.358483 156.96723 
C 79.857145 156.96723 80.33545 156.769109 80.688057 156.416502 
C 81.040664 156.063895 81.238785 155.58559 81.238785 155.086928 
C 81.238785 154.588266 81.040664 154.109961 80.688057 153.757354 
C 80.33545 153.404747 79.857145 153.206627 79.358483 153.206627 
C 78.859821 153.206627 78.381516 153.404747 78.028909 153.757354 
C 77.676302 154.109961 77.478182 154.588266 77.478182 155.086928 
C 77.478182 155.58559 77.676302 156.063895 78.028909 156.416502 
C 78.381516 156.769109 78.859821 156.96723 79.358483 156.96723 
z
" clip-path="url(#p289f6e0936)" style="stroke: #000000"/>
    <path d="M 82.031841 144.361514 
C 82.530658 144.361514 83.009113 144.163332 83.36183 143.810614 
C 83.714547 143.457897 83.91273 142.979443 83.91273 142.480625 
C 83.91273 141.981808 83.714547 141.503353 83.36183 141.150636 
C 83.009113 140.797919 82.530658 140.599736 82.031841 140.599736 
C 81.533023 140.599736 81.054569 140.797919 80.701851 141.150636 
C 80.349134 141.503353 80.150952 141.981808 80.150952 142.480625 
C 80.150952 142.979443 80.349134 143.457897 80.701851 143.810614 
C 81.054569 144.163332 81.533023 144.361514 82.031841 144.361514 
z
" clip-path="url(#p289f6e0936)" style="stroke: #000000"/>
    <path d="M 71.772427 136.412778 
C 72.271244 136.412778 72.749699 136.214596 73.102416 135.861879 
C 73.455133 135.509161 73.653316 135.030707 73.653316 134.531889 
C 73.653316 134.033072 73.455133 133.554617 73.102416 133.2019 
C 72.749699 132.849183 72.271244 132.651001 71.772427 132.651001 
C 71.273609 132.651001 70.795155 132.849183 70.442438 133.2019 
C 70.08972 133.554617 69.891538 134.033072 69.891538 134.531889 
C 69.891538 135.030707 70.08972 135.509161 70.442438 135.861879 
C 70.795155 136.214596 71.273609 136.412778 71.772427 136.412778 
z
" clip-path="url(#p289f6e0936)" style="stroke: #000000"/>
    <path d="M 71.196904 126.072884 
C 71.695721 126.072884 72.174176 125.874701 72.526893 125.521984 
C 72.87961 125.169267 73.077793 124.690812 73.077793 124.191995 
C 73.077793 123.693177 72.87961 123.214723 72.526893 122.862006 
C 72.174176 122.509288 71.695721 122.311106 71.196904 122.311106 
C 70.698086 122.311106 70.219632 122.509288 69.866914 122.862006 
C 69.514197 123.214723 69.316015 123.693177 69.316015 124.191995 
C 69.316015 124.690812 69.514197 125.169267 69.866914 125.521984 
C 70.219632 125.874701 70.698086 126.072884 71.196904 126.072884 
z
" clip-path="url(#p289f6e0936)" style="stroke: #000000"/>
    <path d="M 71.465082 111.929837 
C 71.465082 111.929837 71.465082 111.929837 71.465082 111.929837 
C 71.465082 111.929837 71.465082 111.929837 71.465082 111.929837 
C 71.465082 111.929837 71.465082 111.929837 71.465082 111.929837 
C 71.465082 111.929837 71.465082 111.929837 71.465082 111.929837 
C 71.465082 111.929837 71.465082 111.929837 71.465082 111.929837 
C 71.465082 111.929837 71.465082 111.929837 71.465082 111.929837 
C 71.465082 111.929837 71.465082 111.929837 71.465082 111.929837 
C 71.465082 111.929837 71.465082 111.929837 71.465082 111.929837 
z
" clip-path="url(#p289f6e0936)" style="stroke: #000000"/>
    <path d="M 64.342485 101.391891 
C 64.436249 101.391891 64.526184 101.354638 64.592485 101.288338 
C 64.658786 101.222037 64.696039 101.132101 64.696039 101.038338 
C 64.696039 100.944574 64.658786 100.854638 64.592485 100.788338 
C 64.526184 100.722037 64.436249 100.684784 64.342485 100.684784 
C 64.248722 100.684784 64.158786 100.722037 64.092485 100.788338 
C 64.026184 100.854638 63.988932 100.944574 63.988932 101.038338 
C 63.988932 101.132101 64.026184 101.222037 64.092485 101.288338 
C 64.158786 101.354638 64.248722 101.391891 64.342485 101.391891 
z
" clip-path="url(#p289f6e0936)" style="stroke: #000000"/>
    <path d="M 63.547351 99.088432 
C 64.046168 99.088432 64.524623 98.890249 64.87734 98.537532 
C 65.230057 98.184815 65.42824 97.70636 65.42824 97.207543 
C 65.42824 96.708725 65.230057 96.230271 64.87734 95.877553 
C 64.524623 95.524836 64.046168 95.326654 63.547351 95.326654 
C 63.048533 95.326654 62.570079 95.524836 62.217362 95.877553 
C 61.864644 96.230271 61.666462 96.708725 61.666462 97.207543 
C 61.666462 97.70636 61.864644 98.184815 62.217362 98.537532 
C 62.570079 98.890249 63.048533 99.088432 63.547351 99.088432 
z
" clip-path="url(#p289f6e0936)" style="stroke: #000000"/>
    <path d="M 59.229133 80.979477 
C 59.229133 80.979477 59.229133 80.979477 59.229133 80.979477 
C 59.229133 80.979477 59.229133 80.979477 59.229133 80.979477 
C 59.229133 80.979477 59.229133 80.979477 59.229133 80.979477 
C 59.229133 80.979477 59.229133 80.979477 59.229133 80.979477 
C 59.229133 80.979477 59.229133 80.979477 59.229133 80.979477 
C 59.229133 80.979477 59.229133 80.979477 59.229133 80.979477 
C 59.229133 80.979477 59.229133 80.979477 59.229133 80.979477 
C 59.229133 80.979477 59.229133 80.979477 59.229133 80.979477 
z
" clip-path="url(#p289f6e0936)" style="stroke: #000000"/>
    <path d="M 54.453277 71.512541 
C 54.453277 71.512541 54.453277 71.512541 54.453277 71.512541 
C 54.453277 71.512541 54.453277 71.512541 54.453277 71.512541 
C 54.453277 71.512541 54.453277 71.512541 54.453277 71.512541 
C 54.453277 71.512541 54.453277 71.512541 54.453277 71.512541 
C 54.453277 71.512541 54.453277 71.512541 54.453277 71.512541 
C 54.453277 71.512541 54.453277 71.512541 54.453277 71.512541 
C 54.453277 71.512541 54.453277 71.512541 54.453277 71.512541 
C 54.453277 71.512541 54.453277 71.512541 54.453277 71.512541 
z
" clip-path="url(#p289f6e0936)" style="stroke: #000000"/>
    <path d="M 51.428692 63.184324 
C 51.877513 63.184324 52.308012 63.006006 52.625377 62.688641 
C 52.942741 62.371277 53.12106 61.940778 53.12106 61.491956 
C 53.12106 61.043135 52.942741 60.612636 52.625377 60.295271 
C 52.308012 59.977907 51.877513 59.799588 51.428692 59.799588 
C 50.979871 59.799588 50.549372 59.977907 50.232007 60.295271 
C 49.914642 60.612636 49.736324 61.043135 49.736324 61.491956 
C 49.736324 61.940778 49.914642 62.371277 50.232007 62.688641 
C 50.549372 63.006006 50.979871 63.184324 51.428692 63.184324 
z
" clip-path="url(#p289f6e0936)" style="stroke: #000000"/>
    <path d="M 44.866513 59.787104 
C 45.285836 59.787104 45.688041 59.620505 45.984547 59.323999 
C 46.281053 59.027493 46.447652 58.625288 46.447652 58.205965 
C 46.447652 57.786642 46.281053 57.384437 45.984547 57.087931 
C 45.688041 56.791425 45.285836 56.624826 44.866513 56.624826 
C 44.44719 56.624826 44.044985 56.791425 43.748479 57.087931 
C 43.451973 57.384437 43.285374 57.786642 43.285374 58.205965 
C 43.285374 58.625288 43.451973 59.027493 43.748479 59.323999 
C 44.044985 59.620505 44.44719 59.787104 44.866513 59.787104 
z
" clip-path="url(#p289f6e0936)" style="stroke: #000000"/>
    <path d="M 82.830832 177.844155 
C 83.250155 177.844155 83.65236 177.677556 83.948866 177.38105 
C 84.245372 177.084544 84.411971 176.682339 84.411971 176.263016 
C 84.411971 175.843693 84.245372 175.441488 83.948866 175.144982 
C 83.65236 174.848476 83.250155 174.681877 82.830832 174.681877 
C 82.411509 174.681877 82.009304 174.848476 81.712798 175.144982 
C 81.416292 175.441488 81.249693 175.843693 81.249693 176.263016 
C 81.249693 176.682339 81.416292 177.084544 81.712798 177.38105 
C 82.009304 177.677556 82.411509 177.844155 82.830832 177.844155 
z
" clip-path="url(#p289f6e0936)" style="stroke: #000000"/>
    <path d="M 70.404091 170.263545 
C 70.404091 170.263545 70.404091 170.263545 70.404091 170.263545 
C 70.404091 170.263545 70.404091 170.263545 70.404091 170.263545 
C 70.404091 170.263545 70.404091 170.263545 70.404091 170.263545 
C 70.404091 170.263545 70.404091 170.263545 70.404091 170.263545 
C 70.404091 170.263545 70.404091 170.263545 70.404091 170.263545 
C 70.404091 170.263545 70.404091 170.263545 70.404091 170.263545 
C 70.404091 170.263545 70.404091 170.263545 70.404091 170.263545 
C 70.404091 170.263545 70.404091 170.263545 70.404091 170.263545 
z
" clip-path="url(#p289f6e0936)" style="stroke: #000000"/>
    <path d="M 69.867627 162.344337 
C 70.085214 162.344337 70.293919 162.257888 70.447776 162.104031 
C 70.601634 161.950174 70.688082 161.741469 70.688082 161.523882 
C 70.688082 161.306295 70.601634 161.097591 70.447776 160.943733 
C 70.293919 160.789876 70.085214 160.703428 69.867627 160.703428 
C 69.65004 160.703428 69.441336 160.789876 69.287478 160.943733 
C 69.133621 161.097591 69.047173 161.306295 69.047173 161.523882 
C 69.047173 161.741469 69.133621 161.950174 69.287478 162.104031 
C 69.441336 162.257888 69.65004 162.344337 69.867627 162.344337 
z
" clip-path="url(#p289f6e0936)" style="stroke: #000000"/>
    <path d="M 65.381691 148.133917 
C 65.762122 148.133917 66.127023 147.98277 66.396028 147.713764 
C 66.665034 147.444759 66.816181 147.079858 66.816181 146.699427 
C 66.816181 146.318996 66.665034 145.954095 66.396028 145.68509 
C 66.127023 145.416085 65.762122 145.264938 65.381691 145.264938 
C 65.00126 145.264938 64.63636 145.416085 64.367354 145.68509 
C 64.098349 145.954095 63.947202 146.318996 63.947202 146.699427 
C 63.947202 147.079858 64.098349 147.444759 64.367354 147.713764 
C 64.63636 147.98277 65.00126 148.133917 65.381691 148.133917 
z
" clip-path="url(#p289f6e0936)" style="stroke: #000000"/>
    <path d="M 63.157929 138.665415 
C 63.555118 138.665415 63.936093 138.50761 64.216948 138.226755 
C 64.497804 137.945899 64.655608 137.564924 64.655608 137.167735 
C 64.655608 136.770546 64.497804 136.389571 64.216948 136.108715 
C 63.936093 135.82786 63.555118 135.670055 63.157929 135.670055 
C 62.760739 135.670055 62.379764 135.82786 62.098909 136.108715 
C 61.818054 136.389571 61.660249 136.770546 61.660249 137.167735 
C 61.660249 137.564924 61.818054 137.945899 62.098909 138.226755 
C 62.379764 138.50761 62.760739 138.665415 63.157929 138.665415 
z
" clip-path="url(#p289f6e0936)" style="stroke: #000000"/>
    <path d="M 66.39457 126.230582 
C 66.506074 126.230582 66.613026 126.186281 66.691872 126.107435 
C 66.770717 126.02859 66.815018 125.921638 66.815018 125.810134 
C 66.815018 125.698629 66.770717 125.591677 66.691872 125.512832 
C 66.613026 125.433986 66.506074 125.389685 66.39457 125.389685 
C 66.283066 125.389685 66.176113 125.433986 66.097268 125.512832 
C 66.018423 125.591677 65.974122 125.698629 65.974122 125.810134 
C 65.974122 125.921638 66.018423 126.02859 66.097268 126.107435 
C 66.176113 126.186281 66.283066 126.230582 66.39457 126.230582 
z
" clip-path="url(#p289f6e0936)" style="stroke: #000000"/>
    <path d="M 59.135027 113.616689 
C 59.135027 113.616689 59.135027 113.616689 59.135027 113.616689 
C 59.135027 113.616689 59.135027 113.616689 59.135027 113.616689 
C 59.135027 113.616689 59.135027 113.616689 59.135027 113.616689 
C 59.135027 113.616689 59.135027 113.616689 59.135027 113.616689 
C 59.135027 113.616689 59.135027 113.616689 59.135027 113.616689 
C 59.135027 113.616689 59.135027 113.616689 59.135027 113.616689 
C 59.135027 113.616689 59.135027 113.616689 59.135027 113.616689 
C 59.135027 113.616689 59.135027 113.616689 59.135027 113.616689 
z
" clip-path="url(#p289f6e0936)" style="stroke: #000000"/>
    <path d="M 52.441474 111.736579 
C 52.940291 111.736579 53.418746 111.538396 53.771463 111.185679 
C 54.12418 110.832962 54.322363 110.354508 54.322363 109.85569 
C 54.322363 109.356872 54.12418 108.878418 53.771463 108.525701 
C 53.418746 108.172983 52.940291 107.974801 52.441474 107.974801 
C 51.942656 107.974801 51.464202 108.172983 51.111485 108.525701 
C 50.758767 108.878418 50.560585 109.356872 50.560585 109.85569 
C 50.560585 110.354508 50.758767 110.832962 51.111485 111.185679 
C 51.464202 111.538396 51.942656 111.736579 52.441474 111.736579 
z
" clip-path="url(#p289f6e0936)" style="stroke: #000000"/>
    <path d="M 54.678248 99.367146 
C 55.176909 99.367146 55.655214 99.169026 56.007822 98.816419 
C 56.360429 98.463812 56.558549 97.985507 56.558549 97.486845 
C 56.558549 96.988183 56.360429 96.509878 56.007822 96.157271 
C 55.655214 95.804664 55.176909 95.606543 54.678248 95.606543 
C 54.179586 95.606543 53.701281 95.804664 53.348674 96.157271 
C 52.996066 96.509878 52.797946 96.988183 52.797946 97.486845 
C 52.797946 97.985507 52.996066 98.463812 53.348674 98.816419 
C 53.701281 99.169026 54.179586 99.367146 54.678248 99.367146 
z
" clip-path="url(#p289f6e0936)" style="stroke: #000000"/>
    <path d="M 48.749248 86.8602 
C 48.749248 86.8602 48.749248 86.8602 48.749248 86.8602 
C 48.749248 86.8602 48.749248 86.8602 48.749248 86.8602 
C 48.749248 86.8602 48.749248 86.8602 48.749248 86.8602 
C 48.749248 86.8602 48.749248 86.8602 48.749248 86.8602 
C 48.749248 86.8602 48.749248 86.8602 48.749248 86.8602 
C 48.749248 86.8602 48.749248 86.8602 48.749248 86.8602 
C 48.749248 86.8602 48.749248 86.8602 48.749248 86.8602 
C 48.749248 86.8602 48.749248 86.8602 48.749248 86.8602 
z
" clip-path="url(#p289f6e0936)" style="stroke: #000000"/>
    <path d="M 43.44335 77.457015 
C 43.942168 77.457015 44.420622 77.258832 44.77334 76.906115 
C 45.126057 76.553398 45.324239 76.074943 45.324239 75.576126 
C 45.324239 75.077308 45.126057 74.598854 44.77334 74.246136 
C 44.420622 73.893419 43.942168 73.695237 43.44335 73.695237 
C 42.944533 73.695237 42.466078 73.893419 42.113361 74.246136 
C 41.760644 74.598854 41.562461 75.077308 41.562461 75.576126 
C 41.562461 76.074943 41.760644 76.553398 42.113361 76.906115 
C 42.466078 77.258832 42.944533 77.457015 43.44335 77.457015 
z
" clip-path="url(#p289f6e0936)" style="stroke: #000000"/>
    <path d="M 37.30652 63.853669 
C 37.30652 63.853669 37.30652 63.853669 37.30652 63.853669 
C 37.30652 63.853669 37.30652 63.853669 37.30652 63.853669 
C 37.30652 63.853669 37.30652 63.853669 37.30652 63.853669 
C 37.30652 63.853669 37.30652 63.853669 37.30652 63.853669 
C 37.30652 63.853669 37.30652 63.853669 37.30652 63.853669 
C 37.30652 63.853669 37.30652 63.853669 37.30652 63.853669 
C 37.30652 63.853669 37.30652 63.853669 37.30652 63.853669 
C 37.30652 63.853669 37.30652 63.853669 37.30652 63.853669 
z
" clip-path="url(#p289f6e0936)" style="stroke: #000000"/>
    <path d="M 62.423022 170.038566 
C 62.423022 170.038566 62.423022 170.038566 62.423022 170.038566 
C 62.423022 170.038566 62.423022 170.038566 62.423022 170.038566 
C 62.423022 170.038566 62.423022 170.038566 62.423022 170.038566 
C 62.423022 170.038566 62.423022 170.038566 62.423022 170.038566 
C 62.423022 170.038566 62.423022 170.038566 62.423022 170.038566 
C 62.423022 170.038566 62.423022 170.038566 62.423022 170.038566 
C 62.423022 170.038566 62.423022 170.038566 62.423022 170.038566 
C 62.423022 170.038566 62.423022 170.038566 62.423022 170.038566 
z
" clip-path="url(#p289f6e0936)" style="stroke: #000000"/>
    <path d="M 56.741394 161.465346 
C 57.240056 161.465346 57.718361 161.267226 58.070968 160.914619 
C 58.423575 160.562011 58.621695 160.083706 58.621695 159.585045 
C 58.621695 159.086383 58.423575 158.608078 58.070968 158.255471 
C 57.718361 157.902864 57.240056 157.704743 56.741394 157.704743 
C 56.242732 157.704743 55.764427 157.902864 55.41182 158.255471 
C 55.059213 158.608078 54.861092 159.086383 54.861092 159.585045 
C 54.861092 160.083706 55.059213 160.562011 55.41182 160.914619 
C 55.764427 161.267226 56.242732 161.465346 56.741394 161.465346 
z
" clip-path="url(#p289f6e0936)" style="stroke: #000000"/>
    <path d="M 56.962213 153.647155 
C 57.270589 153.647155 57.566376 153.524636 57.78443 153.306581 
C 58.002485 153.088527 58.125004 152.79274 58.125004 152.484364 
C 58.125004 152.175989 58.002485 151.880202 57.78443 151.662147 
C 57.566376 151.444093 57.270589 151.321574 56.962213 151.321574 
C 56.653838 151.321574 56.358051 151.444093 56.139996 151.662147 
C 55.921942 151.880202 55.799423 152.175989 55.799423 152.484364 
C 55.799423 152.79274 55.921942 153.088527 56.139996 153.306581 
C 56.358051 153.524636 56.653838 153.647155 56.962213 153.647155 
z
" clip-path="url(#p289f6e0936)" style="stroke: #000000"/>
    <path d="M 51.852854 141.215561 
C 52.351671 141.215561 52.830126 141.017379 53.182843 140.664662 
C 53.53556 140.311944 53.733743 139.83349 53.733743 139.334672 
C 53.733743 138.835855 53.53556 138.357401 53.182843 138.004683 
C 52.830126 137.651966 52.351671 137.453784 51.852854 137.453784 
C 51.354036 137.453784 50.875582 137.651966 50.522864 138.004683 
C 50.170147 138.357401 49.971965 138.835855 49.971965 139.334672 
C 49.971965 139.83349 50.170147 140.311944 50.522864 140.664662 
C 50.875582 141.017379 51.354036 141.215561 51.852854 141.215561 
z
" clip-path="url(#p289f6e0936)" style="stroke: #000000"/>
    <path d="M 53.527783 133.807021 
C 54.026601 133.807021 54.505055 133.608839 54.857773 133.256122 
C 55.21049 132.903404 55.408672 132.42495 55.408672 131.926132 
C 55.408672 131.427315 55.21049 130.94886 54.857773 130.596143 
C 54.505055 130.243426 54.026601 130.045243 53.527783 130.045243 
C 53.028966 130.045243 52.550511 130.243426 52.197794 130.596143 
C 51.845077 130.94886 51.646895 131.427315 51.646895 131.926132 
C 51.646895 132.42495 51.845077 132.903404 52.197794 133.256122 
C 52.550511 133.608839 53.028966 133.807021 53.527783 133.807021 
z
" clip-path="url(#p289f6e0936)" style="stroke: #000000"/>
    <path d="M 47.144317 119.689798 
C 47.642979 119.689798 48.121284 119.491678 48.473891 119.139071 
C 48.826498 118.786464 49.024618 118.308159 49.024618 117.809497 
C 49.024618 117.310835 48.826498 116.83253 48.473891 116.479923 
C 48.121284 116.127316 47.642979 115.929195 47.144317 115.929195 
C 46.645655 115.929195 46.16735 116.127316 45.814743 116.479923 
C 45.462136 116.83253 45.264015 117.310835 45.264015 117.809497 
C 45.264015 118.308159 45.462136 118.786464 45.814743 119.139071 
C 46.16735 119.491678 46.645655 119.689798 47.144317 119.689798 
z
" clip-path="url(#p289f6e0936)" style="stroke: #000000"/>
    <path d="M 41.834144 110.633038 
C 41.834144 110.633038 41.834144 110.633038 41.834144 110.633038 
C 41.834144 110.633038 41.834144 110.633038 41.834144 110.633038 
C 41.834144 110.633038 41.834144 110.633038 41.834144 110.633038 
C 41.834144 110.633038 41.834144 110.633038 41.834144 110.633038 
C 41.834144 110.633038 41.834144 110.633038 41.834144 110.633038 
C 41.834144 110.633038 41.834144 110.633038 41.834144 110.633038 
C 41.834144 110.633038 41.834144 110.633038 41.834144 110.633038 
C 41.834144 110.633038 41.834144 110.633038 41.834144 110.633038 
z
" clip-path="url(#p289f6e0936)" style="stroke: #000000"/>
    <path d="M 39.921535 101.34782 
C 40.298407 101.34782 40.659894 101.198087 40.926382 100.931599 
C 41.192871 100.66511 41.342604 100.303623 41.342604 99.926751 
C 41.342604 99.549879 41.192871 99.188392 40.926382 98.921904 
C 40.659894 98.655415 40.298407 98.505682 39.921535 98.505682 
C 39.544663 98.505682 39.183176 98.655415 38.916687 98.921904 
C 38.650199 99.188392 38.500466 99.549879 38.500466 99.926751 
C 38.500466 100.303623 38.650199 100.66511 38.916687 100.931599 
C 39.183176 101.198087 39.544663 101.34782 39.921535 101.34782 
z
" clip-path="url(#p289f6e0936)" style="stroke: #000000"/>
    <path d="M 38.207048 91.840093 
C 38.550489 91.840093 38.879909 91.703642 39.122758 91.460793 
C 39.365607 91.217944 39.502058 90.888524 39.502058 90.545083 
C 39.502058 90.201642 39.365607 89.872222 39.122758 89.629372 
C 38.879909 89.386523 38.550489 89.250073 38.207048 89.250073 
C 37.863607 89.250073 37.534187 89.386523 37.291337 89.629372 
C 37.048488 89.872222 36.912038 90.201642 36.912038 90.545083 
C 36.912038 90.888524 37.048488 91.217944 37.291337 91.460793 
C 37.534187 91.703642 37.863607 91.840093 38.207048 91.840093 
z
" clip-path="url(#p289f6e0936)" style="stroke: #000000"/>
    <path d="M 36.252946 82.011855 
C 36.751608 82.011855 37.229913 81.813735 37.58252 81.461128 
C 37.935127 81.10852 38.133248 80.630215 38.133248 80.131554 
C 38.133248 79.632892 37.935127 79.154587 37.58252 78.80198 
C 37.229913 78.449372 36.751608 78.251252 36.252946 78.251252 
C 35.754284 78.251252 35.275979 78.449372 34.923372 78.80198 
C 34.570765 79.154587 34.372645 79.632892 34.372645 80.131554 
C 34.372645 80.630215 34.570765 81.10852 34.923372 81.461128 
C 35.275979 81.813735 35.754284 82.011855 36.252946 82.011855 
z
" clip-path="url(#p289f6e0936)" style="stroke: #000000"/>
    <path d="M 52.459522 175.353154 
C 52.459522 175.353154 52.459522 175.353154 52.459522 175.353154 
C 52.459522 175.353154 52.459522 175.353154 52.459522 175.353154 
C 52.459522 175.353154 52.459522 175.353154 52.459522 175.353154 
C 52.459522 175.353154 52.459522 175.353154 52.459522 175.353154 
C 52.459522 175.353154 52.459522 175.353154 52.459522 175.353154 
C 52.459522 175.353154 52.459522 175.353154 52.459522 175.353154 
C 52.459522 175.353154 52.459522 175.353154 52.459522 175.353154 
C 52.459522 175.353154 52.459522 175.353154 52.459522 175.353154 
z
" clip-path="url(#p289f6e0936)" style="stroke: #000000"/>
    <path d="M 53.072599 168.02338 
C 53.072599 168.02338 53.072599 168.02338 53.072599 168.02338 
C 53.072599 168.02338 53.072599 168.02338 53.072599 168.02338 
C 53.072599 168.02338 53.072599 168.02338 53.072599 168.02338 
C 53.072599 168.02338 53.072599 168.02338 53.072599 168.02338 
C 53.072599 168.02338 53.072599 168.02338 53.072599 168.02338 
C 53.072599 168.02338 53.072599 168.02338 53.072599 168.02338 
C 53.072599 168.02338 53.072599 168.02338 53.072599 168.02338 
C 53.072599 168.02338 53.072599 168.02338 53.072599 168.02338 
z
" clip-path="url(#p289f6e0936)" style="stroke: #000000"/>
    <path d="M 48.067874 158.60175 
C 48.516481 158.60175 48.946775 158.423517 49.263989 158.106304 
C 49.581202 157.78909 49.759436 157.358796 49.759436 156.910189 
C 49.759436 156.461581 49.581202 156.031287 49.263989 155.714074 
C 48.946775 155.396861 48.516481 155.218627 48.067874 155.218627 
C 47.619267 155.218627 47.188973 155.396861 46.871759 155.714074 
C 46.554546 156.031287 46.376312 156.461581 46.376312 156.910189 
C 46.376312 157.358796 46.554546 157.78909 46.871759 158.106304 
C 47.188973 158.423517 47.619267 158.60175 48.067874 158.60175 
z
" clip-path="url(#p289f6e0936)" style="stroke: #000000"/>
    <path d="M 44.215822 145.420764 
C 44.714639 145.420764 45.193094 145.222581 45.545811 144.869864 
C 45.898528 144.517147 46.096711 144.038692 46.096711 143.539875 
C 46.096711 143.041057 45.898528 142.562603 45.545811 142.209886 
C 45.193094 141.857168 44.714639 141.658986 44.215822 141.658986 
C 43.717004 141.658986 43.23855 141.857168 42.885832 142.209886 
C 42.533115 142.562603 42.334933 143.041057 42.334933 143.539875 
C 42.334933 144.038692 42.533115 144.517147 42.885832 144.869864 
C 43.23855 145.222581 43.717004 145.420764 44.215822 145.420764 
z
" clip-path="url(#p289f6e0936)" style="stroke: #000000"/>
    <path d="M 37.511531 136.682485 
C 38.010193 136.682485 38.488498 136.484364 38.841105 136.131757 
C 39.193713 135.77915 39.391833 135.300845 39.391833 134.802183 
C 39.391833 134.303521 39.193713 133.825216 38.841105 133.472609 
C 38.488498 133.120002 38.010193 132.921882 37.511531 132.921882 
C 37.01287 132.921882 36.534565 133.120002 36.181957 133.472609 
C 35.82935 133.825216 35.63123 134.303521 35.63123 134.802183 
C 35.63123 135.300845 35.82935 135.77915 36.181957 136.131757 
C 36.534565 136.484364 37.01287 136.682485 37.511531 136.682485 
z
" clip-path="url(#p289f6e0936)" style="stroke: #000000"/>
    <path d="M 40.401706 121.411509 
C 40.401706 121.411509 40.401706 121.411509 40.401706 121.411509 
C 40.401706 121.411509 40.401706 121.411509 40.401706 121.411509 
C 40.401706 121.411509 40.401706 121.411509 40.401706 121.411509 
C 40.401706 121.411509 40.401706 121.411509 40.401706 121.411509 
C 40.401706 121.411509 40.401706 121.411509 40.401706 121.411509 
C 40.401706 121.411509 40.401706 121.411509 40.401706 121.411509 
C 40.401706 121.411509 40.401706 121.411509 40.401706 121.411509 
C 40.401706 121.411509 40.401706 121.411509 40.401706 121.411509 
z
" clip-path="url(#p289f6e0936)" style="stroke: #000000"/>
    <path d="M 33.962267 111.882971 
C 33.962267 111.882971 33.962267 111.882971 33.962267 111.882971 
C 33.962267 111.882971 33.962267 111.882971 33.962267 111.882971 
C 33.962267 111.882971 33.962267 111.882971 33.962267 111.882971 
C 33.962267 111.882971 33.962267 111.882971 33.962267 111.882971 
C 33.962267 111.882971 33.962267 111.882971 33.962267 111.882971 
C 33.962267 111.882971 33.962267 111.882971 33.962267 111.882971 
C 33.962267 111.882971 33.962267 111.882971 33.962267 111.882971 
C 33.962267 111.882971 33.962267 111.882971 33.962267 111.882971 
z
" clip-path="url(#p289f6e0936)" style="stroke: #000000"/>
    <path d="M 40.198076 170.438426 
C 40.198076 170.438426 40.198076 170.438426 40.198076 170.438426 
C 40.198076 170.438426 40.198076 170.438426 40.198076 170.438426 
C 40.198076 170.438426 40.198076 170.438426 40.198076 170.438426 
C 40.198076 170.438426 40.198076 170.438426 40.198076 170.438426 
C 40.198076 170.438426 40.198076 170.438426 40.198076 170.438426 
C 40.198076 170.438426 40.198076 170.438426 40.198076 170.438426 
C 40.198076 170.438426 40.198076 170.438426 40.198076 170.438426 
C 40.198076 170.438426 40.198076 170.438426 40.198076 170.438426 
z
" clip-path="url(#p289f6e0936)" style="stroke: #000000"/>
    <path d="M 36.764213 157.976314 
C 37.183798 157.976314 37.586254 157.809611 37.882945 157.51292 
C 38.179637 157.216229 38.346339 156.813772 38.346339 156.394188 
C 38.346339 155.974603 38.179637 155.572147 37.882945 155.275456 
C 37.586254 154.978764 37.183798 154.812062 36.764213 154.812062 
C 36.344628 154.812062 35.942172 154.978764 35.645481 155.275456 
C 35.34879 155.572147 35.182087 155.974603 35.182087 156.394188 
C 35.182087 156.813772 35.34879 157.216229 35.645481 157.51292 
C 35.942172 157.809611 36.344628 157.976314 36.764213 157.976314 
z
" clip-path="url(#p289f6e0936)" style="stroke: #000000"/>
    <path d="M 30.728944 147.267574 
C 31.14879 147.267574 31.551497 147.100767 31.848373 146.803891 
C 32.145249 146.507015 32.312056 146.104309 32.312056 145.684462 
C 32.312056 145.264616 32.145249 144.86191 31.848373 144.565034 
C 31.551497 144.268157 31.14879 144.101351 30.728944 144.101351 
C 30.309098 144.101351 29.906391 144.268157 29.609515 144.565034 
C 29.312639 144.86191 29.145832 145.264616 29.145832 145.684462 
C 29.145832 146.104309 29.312639 146.507015 29.609515 146.803891 
C 29.906391 147.100767 30.309098 147.267574 30.728944 147.267574 
z
" clip-path="url(#p289f6e0936)" style="stroke: #000000"/>
    <path d="M 29.097607 138.7815 
C 29.562243 138.7815 30.007911 138.596898 30.336458 138.26835 
C 30.665006 137.939803 30.849608 137.494135 30.849608 137.029499 
C 30.849608 136.564863 30.665006 136.119194 30.336458 135.790647 
C 30.007911 135.4621 29.562243 135.277498 29.097607 135.277498 
C 28.632971 135.277498 28.187302 135.4621 27.858755 135.790647 
C 27.530208 136.119194 27.345606 136.564863 27.345606 137.029499 
C 27.345606 137.494135 27.530208 137.939803 27.858755 138.26835 
C 28.187302 138.596898 28.632971 138.7815 29.097607 138.7815 
z
" clip-path="url(#p289f6e0936)" style="stroke: #000000"/>
    <path d="M 28.27427 127.771265 
C 28.46466 127.771265 28.647279 127.695622 28.781906 127.560996 
C 28.916532 127.426369 28.992175 127.243751 28.992175 127.05336 
C 28.992175 126.862969 28.916532 126.680351 28.781906 126.545724 
C 28.647279 126.411097 28.46466 126.335454 28.27427 126.335454 
C 28.083879 126.335454 27.90126 126.411097 27.766634 126.545724 
C 27.632007 126.680351 27.556364 126.862969 27.556364 127.05336 
C 27.556364 127.243751 27.632007 127.426369 27.766634 127.560996 
C 27.90126 127.695622 28.083879 127.771265 28.27427 127.771265 
z
" clip-path="url(#p289f6e0936)" style="stroke: #000000"/>
   </g>
   <g id="matplotlib.axis_1">
    <g id="xtick_1">
     <g id="line2d_1">
      <defs>
       <path id="m0194db7e76" d="M 0 0 
L 0 3.5 
" style="stroke: #000000; stroke-width: 0.8"/>
      </defs>
      <g>
       <use xlink:href="#m0194db7e76" x="18" y="189" style="stroke: #000000; stroke-width: 0.8"/>
      </g>
     </g>
     <g id="text_1">
      <!-- 10 -->
      <g transform="translate(7.447656 203.598437)scale(0.1 -0.1)">
       <defs>
        <path id="DejaVuSans-2212" d="M 678 2272 
L 4684 2272 
L 4684 1741 
L 678 1741 
L 678 2272 
z
" transform="scale(0.015625)"/>
        <path id="DejaVuSans-31" d="M 794 531 
L 1825 531 
L 1825 4091 
L 703 3866 
L 703 4441 
L 1819 4666 
L 2450 4666 
L 2450 531 
L 3481 531 
L 3481 0 
L 794 0 
L 794 531 
z
" transform="scale(0.015625)"/>
        <path id="DejaVuSans-30" d="M 2034 4250 
Q 1547 4250 1301 3770 
Q 1056 3291 1056 2328 
Q 1056 1369 1301 889 
Q 1547 409 2034 409 
Q 2525 409 2770 889 
Q 3016 1369 3016 2328 
Q 3016 3291 2770 3770 
Q 2525 4250 2034 4250 
z
M 2034 4750 
Q 2819 4750 3233 4129 
Q 3647 3509 3647 2328 
Q 3647 1150 3233 529 
Q 2819 -91 2034 -91 
Q 1250 -91 836 529 
Q 422 1150 422 2328 
Q 422 3509 836 4129 
Q 1250 4750 2034 4750 
z
" transform="scale(0.015625)"/>
       </defs>
       <use xlink:href="#DejaVuSans-2212"/>
       <use xlink:href="#DejaVuSans-31" x="83.789062"/>
       <use xlink:href="#DejaVuSans-30" x="147.412109"/>
      </g>
     </g>
    </g>
    <g id="xtick_2">
     <g id="line2d_2">
      <g>
       <use xlink:href="#m0194db7e76" x="73.8" y="189" style="stroke: #000000; stroke-width: 0.8"/>
      </g>
     </g>
     <g id="text_2">
      <!-- 0 -->
      <g transform="translate(70.61875 203.598437)scale(0.1 -0.1)">
       <use xlink:href="#DejaVuSans-30"/>
      </g>
     </g>
    </g>
    <g id="xtick_3">
     <g id="line2d_3">
      <g>
       <use xlink:href="#m0194db7e76" x="129.6" y="189" style="stroke: #000000; stroke-width: 0.8"/>
      </g>
     </g>
     <g id="text_3">
      <!-- 10 -->
      <g transform="translate(123.2375 203.598437)scale(0.1 -0.1)">
       <use xlink:href="#DejaVuSans-31"/>
       <use xlink:href="#DejaVuSans-30" x="63.623047"/>
      </g>
     </g>
    </g>
   </g>
   <g id="matplotlib.axis_2">
    <g id="ytick_1">
     <g id="line2d_4">
      <defs>
       <path id="m6bd448328c" d="M 0 0 
L -3.5 0 
" style="stroke: #000000; stroke-width: 0.8"/>
      </defs>
      <g>
       <use xlink:href="#m6bd448328c" x="18" y="189" style="stroke: #000000; stroke-width: 0.8"/>
      </g>
     </g>
     <g id="text_4">
      <!-- 15 -->
      <g transform="translate(-10.104688 192.799219)scale(0.1 -0.1)">
       <defs>
        <path id="DejaVuSans-35" d="M 691 4666 
L 3169 4666 
L 3169 4134 
L 1269 4134 
L 1269 2991 
Q 1406 3038 1543 3061 
Q 1681 3084 1819 3084 
Q 2600 3084 3056 2656 
Q 3513 2228 3513 1497 
Q 3513 744 3044 326 
Q 2575 -91 1722 -91 
Q 1428 -91 1123 -41 
Q 819 9 494 109 
L 494 744 
Q 775 591 1075 516 
Q 1375 441 1709 441 
Q 2250 441 2565 725 
Q 2881 1009 2881 1497 
Q 2881 1984 2565 2268 
Q 2250 2553 1709 2553 
Q 1456 2553 1204 2497 
Q 953 2441 691 2322 
L 691 4666 
z
" transform="scale(0.015625)"/>
       </defs>
       <use xlink:href="#DejaVuSans-2212"/>
       <use xlink:href="#DejaVuSans-31" x="83.789062"/>
       <use xlink:href="#DejaVuSans-35" x="147.412109"/>
      </g>
     </g>
    </g>
    <g id="ytick_2">
     <g id="line2d_5">
      <g>
       <use xlink:href="#m6bd448328c" x="18" y="161.82" style="stroke: #000000; stroke-width: 0.8"/>
      </g>
     </g>
     <g id="text_5">
      <!-- 10 -->
      <g transform="translate(-10.104688 165.619219)scale(0.1 -0.1)">
       <use xlink:href="#DejaVuSans-2212"/>
       <use xlink:href="#DejaVuSans-31" x="83.789062"/>
       <use xlink:href="#DejaVuSans-30" x="147.412109"/>
      </g>
     </g>
    </g>
    <g id="ytick_3">
     <g id="line2d_6">
      <g>
       <use xlink:href="#m6bd448328c" x="18" y="134.64" style="stroke: #000000; stroke-width: 0.8"/>
      </g>
     </g>
     <g id="text_6">
      <!-- 5 -->
      <g transform="translate(-3.742188 138.439219)scale(0.1 -0.1)">
       <use xlink:href="#DejaVuSans-2212"/>
       <use xlink:href="#DejaVuSans-35" x="83.789062"/>
      </g>
     </g>
    </g>
    <g id="ytick_4">
     <g id="line2d_7">
      <g>
       <use xlink:href="#m6bd448328c" x="18" y="107.46" style="stroke: #000000; stroke-width: 0.8"/>
      </g>
     </g>
     <g id="text_7">
      <!-- 0 -->
      <g transform="translate(4.6375 111.259219)scale(0.1 -0.1)">
       <use xlink:href="#DejaVuSans-30"/>
      </g>
     </g>
    </g>
    <g id="ytick_5">
     <g id="line2d_8">
      <g>
       <use xlink:href="#m6bd448328c" x="18" y="80.28" style="stroke: #000000; stroke-width: 0.8"/>
      </g>
     </g>
     <g id="text_8">
      <!-- 5 -->
      <g transform="translate(4.6375 84.079219)scale(0.1 -0.1)">
       <use xlink:href="#DejaVuSans-35"/>
      </g>
     </g>
    </g>
    <g id="ytick_6">
     <g id="line2d_9">
      <g>
       <use xlink:href="#m6bd448328c" x="18" y="53.1" style="stroke: #000000; stroke-width: 0.8"/>
      </g>
     </g>
     <g id="text_9">
      <!-- 10 -->
      <g transform="translate(-1.725 56.899219)scale(0.1 -0.1)">
       <use xlink:href="#DejaVuSans-31"/>
       <use xlink:href="#DejaVuSans-30" x="63.623047"/>
      </g>
     </g>
    </g>
    <g id="ytick_7">
     <g id="line2d_10">
      <g>
       <use xlink:href="#m6bd448328c" x="18" y="25.92" style="stroke: #000000; stroke-width: 0.8"/>
      </g>
     </g>
     <g id="text_10">
      <!-- 15 -->
      <g transform="translate(-1.725 29.719219)scale(0.1 -0.1)">
       <use xlink:href="#DejaVuSans-31"/>
       <use xlink:href="#DejaVuSans-35" x="63.623047"/>
      </g>
     </g>
    </g>
   </g>
   <g id="patch_3">
    <path d="M 18 189 
L 18 25.92 
" style="fill: none; stroke: #000000; stroke-width: 0.8; stroke-linejoin: miter; stroke-linecap: square"/>
   </g>
   <g id="patch_4">
    <path d="M 129.6 189 
L 129.6 25.92 
" style="fill: none; stroke: #000000; stroke-width: 0.8; stroke-linejoin: miter; stroke-linecap: square"/>
   </g>
   <g id="patch_5">
    <path d="M 18 189 
L 129.6 189 
" style="fill: none; stroke: #000000; stroke-width: 0.8; stroke-linejoin: miter; stroke-linecap: square"/>
   </g>
   <g id="patch_6">
    <path d="M 18 25.92 
L 129.6 25.92 
" style="fill: none; stroke: #000000; stroke-width: 0.8; stroke-linejoin: miter; stroke-linecap: square"/>
   </g>
  </g>
 </g>
 <defs>
  <clipPath id="p289f6e0936">
   <rect x="18" y="25.92" width="111.6" height="163.08"/>
  </clipPath>
 </defs>
</svg>
