<?xml version="1.0" encoding="utf-8" standalone="no"?>
<!DOCTYPE svg PUBLIC "-//W3C//DTD SVG 1.1//EN"
  "http://www.w3.org/Graphics/SVG/1.1/DTD/svg11.dtd">
<svg xmlns:xlink="http://www.w3.org/1999/xlink" width="144pt" height="216pt" viewBox="0 0 144 216" xmlns="http://www.w3.org/2000/svg" version="1.1">
 <metadata>
  <rdf:RDF xmlns:dc="http://purl.org/dc/elements/1.1/" xmlns:cc="http://creativecommons.org/ns#" xmlns:rdf="http://www.w3.org/1999/02/22-rdf-syntax-ns#">
   <cc:Work>
    <dc:type rdf:resource="http://purl.org/dc/dcmitype/StillImage"/>
    <dc:date>2022-06-22T17:53:15.227739</dc:date>
    <dc:format>image/svg+xml</dc:format>
    <dc:creator>
     <cc:Agent>
      <dc:title>Matplotlib v3.5.1, https://matplotlib.org/</dc:title>
     </cc:Agent>
    </dc:creator>
   </cc:Work>
  </rdf:RDF>
 </metadata>
 <defs>
  <style type="text/css">*{stroke-linejoin: round; stroke-linecap: butt}</style>
 </defs>
 <g id="figure_1">
  <g id="patch_1">
   <path d="M 0 216 
L 144 216 
L 144 0 
L 0 0 
L 0 216 
z
" style="fill: none"/>
  </g>
  <g id="axes_1">
   <g id="patch_2">
    <path d="M 18 189 
L 129.6 189 
L 129.6 25.92 
L 18 25.92 
z
" style="fill: #ffffff"/>
   </g>
   <g id="PathCollection_1">
    <defs>
     <path id="m2eb1c418b5" d="M 0 2.738613 
C 0.726289 2.738613 1.422928 2.450055 1.936492 1.936492 
C 2.450055 1.422928 2.738613 0.726289 2.738613 0 
C 2.738613 -0.726289 2.450055 -1.422928 1.936492 -1.936492 
C 1.422928 -2.450055 0.726289 -2.738613 0 -2.738613 
C -0.726289 -2.738613 -1.422928 -2.450055 -1.936492 -1.936492 
C -2.450055 -1.422928 -2.738613 -0.726289 -2.738613 0 
C -2.738613 0.726289 -2.450055 1.422928 -1.936492 1.936492 
C -1.422928 2.450055 -0.726289 2.738613 0 2.738613 
z
" style="stroke: #ff0000; stroke-width: 1.75"/>
    </defs>
    <g clip-path="url(#p5586e9b31d)">
     <use xlink:href="#m2eb1c418b5" x="80.775" y="83.92143" style="fill: #ff0000; stroke: #ff0000; stroke-width: 1.75"/>
     <use xlink:href="#m2eb1c418b5" x="59.85" y="95.690715" style="fill: #ff0000; stroke: #ff0000; stroke-width: 1.75"/>
     <use xlink:href="#m2eb1c418b5" x="66.825" y="107.46" style="fill: #ff0000; stroke: #ff0000; stroke-width: 1.75"/>
     <use xlink:href="#m2eb1c418b5" x="80.775" y="107.46" style="fill: #ff0000; stroke: #ff0000; stroke-width: 1.75"/>
     <use xlink:href="#m2eb1c418b5" x="94.725" y="107.46" style="fill: #ff0000; stroke: #ff0000; stroke-width: 1.75"/>
     <use xlink:href="#m2eb1c418b5" x="59.85" y="119.229285" style="fill: #ff0000; stroke: #ff0000; stroke-width: 1.75"/>
     <use xlink:href="#m2eb1c418b5" x="80.775" y="130.99857" style="fill: #ff0000; stroke: #ff0000; stroke-width: 1.75"/>
    </g>
   </g>
   <g id="PathCollection_2">
    <defs>
     <path id="C0_0_9ad065fc2c" d="M 0 2.738613 
C 0.726289 2.738613 1.422928 2.450055 1.936492 1.936492 
C 2.450055 1.422928 2.738613 0.726289 2.738613 -0 
C 2.738613 -0.726289 2.450055 -1.422928 1.936492 -1.936492 
C 1.422928 -2.450055 0.726289 -2.738613 0 -2.738613 
C -0.726289 -2.738613 -1.422928 -2.450055 -1.936492 -1.936492 
C -2.450055 -1.422928 -2.738613 -0.726289 -2.738613 0 
C -2.738613 0.726289 -2.450055 1.422928 -1.936492 1.936492 
C -1.422928 2.450055 -0.726289 2.738613 0 2.738613 
z
"/>
    </defs>
    <g clip-path="url(#p5586e9b31d)">
     <use xlink:href="#C0_0_9ad065fc2c" x="66.825" y="83.92143" style="fill: none; stroke: #ff0000; stroke-width: 1.75"/>
    </g>
    <g clip-path="url(#p5586e9b31d)">
     <use xlink:href="#C0_0_9ad065fc2c" x="73.8" y="95.690715" style="fill: none; stroke: #ff0000; stroke-width: 1.75"/>
    </g>
    <g clip-path="url(#p5586e9b31d)">
     <use xlink:href="#C0_0_9ad065fc2c" x="87.75" y="95.690715" style="fill: none; stroke: #ff0000; stroke-width: 1.75"/>
    </g>
    <g clip-path="url(#p5586e9b31d)">
     <use xlink:href="#C0_0_9ad065fc2c" x="52.875" y="107.46" style="fill: none; stroke: #ff0000; stroke-width: 1.75"/>
    </g>
    <g clip-path="url(#p5586e9b31d)">
     <use xlink:href="#C0_0_9ad065fc2c" x="73.8" y="119.229285" style="fill: none; stroke: #ff0000; stroke-width: 1.75"/>
    </g>
    <g clip-path="url(#p5586e9b31d)">
     <use xlink:href="#C0_0_9ad065fc2c" x="87.75" y="119.229285" style="fill: none; stroke: #ff0000; stroke-width: 1.75"/>
    </g>
    <g clip-path="url(#p5586e9b31d)">
     <use xlink:href="#C0_0_9ad065fc2c" x="66.825" y="130.99857" style="fill: none; stroke: #ff0000; stroke-width: 1.75"/>
    </g>
   </g>
   <g id="PathCollection_3">
    <path d="M 110.132371 108.89245 
C 110.132371 108.89245 110.132371 108.89245 110.132371 108.89245 
C 110.132371 108.89245 110.132371 108.89245 110.132371 108.89245 
C 110.132371 108.89245 110.132371 108.89245 110.132371 108.89245 
C 110.132371 108.89245 110.132371 108.89245 110.132371 108.89245 
C 110.132371 108.89245 110.132371 108.89245 110.132371 108.89245 
C 110.132371 108.89245 110.132371 108.89245 110.132371 108.89245 
C 110.132371 108.89245 110.132371 108.89245 110.132371 108.89245 
C 110.132371 108.89245 110.132371 108.89245 110.132371 108.89245 
z
" clip-path="url(#p5586e9b31d)" style="stroke: #000000"/>
    <path d="M 112.609696 96.74445 
C 112.609696 96.74445 112.609696 96.74445 112.609696 96.74445 
C 112.609696 96.74445 112.609696 96.74445 112.609696 96.74445 
C 112.609696 96.74445 112.609696 96.74445 112.609696 96.74445 
C 112.609696 96.74445 112.609696 96.74445 112.609696 96.74445 
C 112.609696 96.74445 112.609696 96.74445 112.609696 96.74445 
C 112.609696 96.74445 112.609696 96.74445 112.609696 96.74445 
C 112.609696 96.74445 112.609696 96.74445 112.609696 96.74445 
C 112.609696 96.74445 112.609696 96.74445 112.609696 96.74445 
z
" clip-path="url(#p5586e9b31d)" style="stroke: #000000"/>
    <path d="M 104.723843 90.954887 
C 104.817606 90.954887 104.907542 90.917634 104.973843 90.851333 
C 105.040144 90.785033 105.077396 90.695097 105.077396 90.601333 
C 105.077396 90.50757 105.040144 90.417634 104.973843 90.351333 
C 104.907542 90.285033 104.817606 90.24778 104.723843 90.24778 
C 104.630079 90.24778 104.540144 90.285033 104.473843 90.351333 
C 104.407542 90.417634 104.370289 90.50757 104.370289 90.601333 
C 104.370289 90.695097 104.407542 90.785033 104.473843 90.851333 
C 104.540144 90.917634 104.630079 90.954887 104.723843 90.954887 
z
" clip-path="url(#p5586e9b31d)" style="stroke: #000000"/>
    <path d="M 103.202496 77.973307 
C 103.202496 77.973307 103.202496 77.973307 103.202496 77.973307 
C 103.202496 77.973307 103.202496 77.973307 103.202496 77.973307 
C 103.202496 77.973307 103.202496 77.973307 103.202496 77.973307 
C 103.202496 77.973307 103.202496 77.973307 103.202496 77.973307 
C 103.202496 77.973307 103.202496 77.973307 103.202496 77.973307 
C 103.202496 77.973307 103.202496 77.973307 103.202496 77.973307 
C 103.202496 77.973307 103.202496 77.973307 103.202496 77.973307 
C 103.202496 77.973307 103.202496 77.973307 103.202496 77.973307 
z
" clip-path="url(#p5586e9b31d)" style="stroke: #000000"/>
    <path d="M 103.775144 64.976945 
C 103.775144 64.976945 103.775144 64.976945 103.775144 64.976945 
C 103.775144 64.976945 103.775144 64.976945 103.775144 64.976945 
C 103.775144 64.976945 103.775144 64.976945 103.775144 64.976945 
C 103.775144 64.976945 103.775144 64.976945 103.775144 64.976945 
C 103.775144 64.976945 103.775144 64.976945 103.775144 64.976945 
C 103.775144 64.976945 103.775144 64.976945 103.775144 64.976945 
C 103.775144 64.976945 103.775144 64.976945 103.775144 64.976945 
C 103.775144 64.976945 103.775144 64.976945 103.775144 64.976945 
z
" clip-path="url(#p5586e9b31d)" style="stroke: #000000"/>
    <path d="M 96.450599 57.629395 
C 96.450599 57.629395 96.450599 57.629395 96.450599 57.629395 
C 96.450599 57.629395 96.450599 57.629395 96.450599 57.629395 
C 96.450599 57.629395 96.450599 57.629395 96.450599 57.629395 
C 96.450599 57.629395 96.450599 57.629395 96.450599 57.629395 
C 96.450599 57.629395 96.450599 57.629395 96.450599 57.629395 
C 96.450599 57.629395 96.450599 57.629395 96.450599 57.629395 
C 96.450599 57.629395 96.450599 57.629395 96.450599 57.629395 
C 96.450599 57.629395 96.450599 57.629395 96.450599 57.629395 
z
" clip-path="url(#p5586e9b31d)" style="stroke: #000000"/>
    <path d="M 93.720952 46.203574 
C 93.814716 46.203574 93.904652 46.166321 93.970952 46.10002 
C 94.037253 46.03372 94.074506 45.943784 94.074506 45.85002 
C 94.074506 45.756257 94.037253 45.666321 93.970952 45.60002 
C 93.904652 45.53372 93.814716 45.496467 93.720952 45.496467 
C 93.627189 45.496467 93.537253 45.53372 93.470952 45.60002 
C 93.404652 45.666321 93.367399 45.756257 93.367399 45.85002 
C 93.367399 45.943784 93.404652 46.03372 93.470952 46.10002 
C 93.537253 46.166321 93.627189 46.203574 93.720952 46.203574 
z
" clip-path="url(#p5586e9b31d)" style="stroke: #000000"/>
    <path d="M 90.139031 36.829693 
C 90.139031 36.829693 90.139031 36.829693 90.139031 36.829693 
C 90.139031 36.829693 90.139031 36.829693 90.139031 36.829693 
C 90.139031 36.829693 90.139031 36.829693 90.139031 36.829693 
C 90.139031 36.829693 90.139031 36.829693 90.139031 36.829693 
C 90.139031 36.829693 90.139031 36.829693 90.139031 36.829693 
C 90.139031 36.829693 90.139031 36.829693 90.139031 36.829693 
C 90.139031 36.829693 90.139031 36.829693 90.139031 36.829693 
C 90.139031 36.829693 90.139031 36.829693 90.139031 36.829693 
z
" clip-path="url(#p5586e9b31d)" style="stroke: #000000"/>
    <path d="M 82.710056 27.782975 
C 82.710056 27.782975 82.710056 27.782975 82.710056 27.782975 
C 82.710056 27.782975 82.710056 27.782975 82.710056 27.782975 
C 82.710056 27.782975 82.710056 27.782975 82.710056 27.782975 
C 82.710056 27.782975 82.710056 27.782975 82.710056 27.782975 
C 82.710056 27.782975 82.710056 27.782975 82.710056 27.782975 
C 82.710056 27.782975 82.710056 27.782975 82.710056 27.782975 
C 82.710056 27.782975 82.710056 27.782975 82.710056 27.782975 
C 82.710056 27.782975 82.710056 27.782975 82.710056 27.782975 
z
" clip-path="url(#p5586e9b31d)" style="stroke: #000000"/>
    <path d="M 121.247808 162.081068 
C 121.247808 162.081068 121.247808 162.081068 121.247808 162.081068 
C 121.247808 162.081068 121.247808 162.081068 121.247808 162.081068 
C 121.247808 162.081068 121.247808 162.081068 121.247808 162.081068 
C 121.247808 162.081068 121.247808 162.081068 121.247808 162.081068 
C 121.247808 162.081068 121.247808 162.081068 121.247808 162.081068 
C 121.247808 162.081068 121.247808 162.081068 121.247808 162.081068 
C 121.247808 162.081068 121.247808 162.081068 121.247808 162.081068 
C 121.247808 162.081068 121.247808 162.081068 121.247808 162.081068 
z
" clip-path="url(#p5586e9b31d)" style="stroke: #000000"/>
    <path d="M 115.970125 151.409358 
C 116.063888 151.409358 116.153824 151.372106 116.220125 151.305805 
C 116.286426 151.239504 116.323678 151.149568 116.323678 151.055805 
C 116.323678 150.962042 116.286426 150.872106 116.220125 150.805805 
C 116.153824 150.739504 116.063888 150.702252 115.970125 150.702252 
C 115.876361 150.702252 115.786426 150.739504 115.720125 150.805805 
C 115.653824 150.872106 115.616571 150.962042 115.616571 151.055805 
C 115.616571 151.149568 115.653824 151.239504 115.720125 151.305805 
C 115.786426 151.372106 115.876361 151.409358 115.970125 151.409358 
z
" clip-path="url(#p5586e9b31d)" style="stroke: #000000"/>
    <path d="M 112.818463 146.103458 
C 112.985201 146.103458 113.145132 146.037213 113.263033 145.919311 
C 113.380934 145.80141 113.44718 145.641479 113.44718 145.474742 
C 113.44718 145.308004 113.380934 145.148073 113.263033 145.030172 
C 113.145132 144.91227 112.985201 144.846025 112.818463 144.846025 
C 112.651726 144.846025 112.491795 144.91227 112.373893 145.030172 
C 112.255992 145.148073 112.189747 145.308004 112.189747 145.474742 
C 112.189747 145.641479 112.255992 145.80141 112.373893 145.919311 
C 112.491795 146.037213 112.651726 146.103458 112.818463 146.103458 
z
" clip-path="url(#p5586e9b31d)" style="stroke: #000000"/>
    <path d="M 111.604231 135.794989 
C 111.604231 135.794989 111.604231 135.794989 111.604231 135.794989 
C 111.604231 135.794989 111.604231 135.794989 111.604231 135.794989 
C 111.604231 135.794989 111.604231 135.794989 111.604231 135.794989 
C 111.604231 135.794989 111.604231 135.794989 111.604231 135.794989 
C 111.604231 135.794989 111.604231 135.794989 111.604231 135.794989 
C 111.604231 135.794989 111.604231 135.794989 111.604231 135.794989 
C 111.604231 135.794989 111.604231 135.794989 111.604231 135.794989 
C 111.604231 135.794989 111.604231 135.794989 111.604231 135.794989 
z
" clip-path="url(#p5586e9b31d)" style="stroke: #000000"/>
    <path d="M 108.193512 122.70031 
C 108.193512 122.70031 108.193512 122.70031 108.193512 122.70031 
C 108.193512 122.70031 108.193512 122.70031 108.193512 122.70031 
C 108.193512 122.70031 108.193512 122.70031 108.193512 122.70031 
C 108.193512 122.70031 108.193512 122.70031 108.193512 122.70031 
C 108.193512 122.70031 108.193512 122.70031 108.193512 122.70031 
C 108.193512 122.70031 108.193512 122.70031 108.193512 122.70031 
C 108.193512 122.70031 108.193512 122.70031 108.193512 122.70031 
C 108.193512 122.70031 108.193512 122.70031 108.193512 122.70031 
z
" clip-path="url(#p5586e9b31d)" style="stroke: #000000"/>
    <path d="M 100.915532 113.560953 
C 101.291316 113.560953 101.65176 113.411653 101.917479 113.145933 
C 102.183199 112.880213 102.332499 112.51977 102.332499 112.143986 
C 102.332499 111.768201 102.183199 111.407758 101.917479 111.142038 
C 101.65176 110.876319 101.291316 110.727018 100.915532 110.727018 
C 100.539747 110.727018 100.179304 110.876319 99.913584 111.142038 
C 99.647865 111.407758 99.498564 111.768201 99.498564 112.143986 
C 99.498564 112.51977 99.647865 112.880213 99.913584 113.145933 
C 100.179304 113.411653 100.539747 113.560953 100.915532 113.560953 
z
" clip-path="url(#p5586e9b31d)" style="stroke: #000000"/>
    <path d="M 99.909854 102.700182 
C 99.909854 102.700182 99.909854 102.700182 99.909854 102.700182 
C 99.909854 102.700182 99.909854 102.700182 99.909854 102.700182 
C 99.909854 102.700182 99.909854 102.700182 99.909854 102.700182 
C 99.909854 102.700182 99.909854 102.700182 99.909854 102.700182 
C 99.909854 102.700182 99.909854 102.700182 99.909854 102.700182 
C 99.909854 102.700182 99.909854 102.700182 99.909854 102.700182 
C 99.909854 102.700182 99.909854 102.700182 99.909854 102.700182 
C 99.909854 102.700182 99.909854 102.700182 99.909854 102.700182 
z
" clip-path="url(#p5586e9b31d)" style="stroke: #000000"/>
    <path d="M 94.901491 97.152282 
C 95.321076 97.152282 95.723532 96.98558 96.020224 96.688888 
C 96.316915 96.392197 96.483618 95.989741 96.483618 95.570156 
C 96.483618 95.150571 96.316915 94.748115 96.020224 94.451424 
C 95.723532 94.154733 95.321076 93.98803 94.901491 93.98803 
C 94.481907 93.98803 94.079451 94.154733 93.782759 94.451424 
C 93.486068 94.748115 93.319365 95.150571 93.319365 95.570156 
C 93.319365 95.989741 93.486068 96.392197 93.782759 96.688888 
C 94.079451 96.98558 94.481907 97.152282 94.901491 97.152282 
z
" clip-path="url(#p5586e9b31d)" style="stroke: #000000"/>
    <path d="M 91.989966 78.520677 
C 92.345189 78.520677 92.68591 78.379545 92.93709 78.128365 
C 93.18827 77.877185 93.329402 77.536464 93.329402 77.181241 
C 93.329402 76.826019 93.18827 76.485297 92.93709 76.234117 
C 92.68591 75.982937 92.345189 75.841806 91.989966 75.841806 
C 91.634744 75.841806 91.294022 75.982937 91.042842 76.234117 
C 90.791662 76.485297 90.650531 76.826019 90.650531 77.181241 
C 90.650531 77.536464 90.791662 77.877185 91.042842 78.128365 
C 91.294022 78.379545 91.634744 78.520677 91.989966 78.520677 
z
" clip-path="url(#p5586e9b31d)" style="stroke: #000000"/>
    <path d="M 89.924246 74.202431 
C 90.343569 74.202431 90.745774 74.035832 91.04228 73.739326 
C 91.338786 73.44282 91.505385 73.040615 91.505385 72.621292 
C 91.505385 72.201969 91.338786 71.799765 91.04228 71.503258 
C 90.745774 71.206752 90.343569 71.040154 89.924246 71.040154 
C 89.504923 71.040154 89.102718 71.206752 88.806212 71.503258 
C 88.509706 71.799765 88.343107 72.201969 88.343107 72.621292 
C 88.343107 73.040615 88.509706 73.44282 88.806212 73.739326 
C 89.102718 74.035832 89.504923 74.202431 89.924246 74.202431 
z
" clip-path="url(#p5586e9b31d)" style="stroke: #000000"/>
    <path d="M 85.889425 63.167167 
C 86.239357 63.167167 86.575005 63.028138 86.822444 62.780698 
C 87.069884 62.533259 87.208913 62.197612 87.208913 61.847679 
C 87.208913 61.497747 87.069884 61.1621 86.822444 60.91466 
C 86.575005 60.667221 86.239357 60.528191 85.889425 60.528191 
C 85.539493 60.528191 85.203846 60.667221 84.956406 60.91466 
C 84.708967 61.1621 84.569937 61.497747 84.569937 61.847679 
C 84.569937 62.197612 84.708967 62.533259 84.956406 62.780698 
C 85.203846 63.028138 85.539493 63.167167 85.889425 63.167167 
z
" clip-path="url(#p5586e9b31d)" style="stroke: #000000"/>
    <path d="M 82.368932 49.384041 
C 82.368932 49.384041 82.368932 49.384041 82.368932 49.384041 
C 82.368932 49.384041 82.368932 49.384041 82.368932 49.384041 
C 82.368932 49.384041 82.368932 49.384041 82.368932 49.384041 
C 82.368932 49.384041 82.368932 49.384041 82.368932 49.384041 
C 82.368932 49.384041 82.368932 49.384041 82.368932 49.384041 
C 82.368932 49.384041 82.368932 49.384041 82.368932 49.384041 
C 82.368932 49.384041 82.368932 49.384041 82.368932 49.384041 
C 82.368932 49.384041 82.368932 49.384041 82.368932 49.384041 
z
" clip-path="url(#p5586e9b31d)" style="stroke: #000000"/>
    <path d="M 77.312945 43.67069 
C 77.406709 43.67069 77.496644 43.633438 77.562945 43.567137 
C 77.629246 43.500836 77.666499 43.4109 77.666499 43.317137 
C 77.666499 43.223373 77.629246 43.133438 77.562945 43.067137 
C 77.496644 43.000836 77.406709 42.963584 77.312945 42.963584 
C 77.219182 42.963584 77.129246 43.000836 77.062945 43.067137 
C 76.996644 43.133438 76.959392 43.223373 76.959392 43.317137 
C 76.959392 43.4109 76.996644 43.500836 77.062945 43.567137 
C 77.129246 43.633438 77.219182 43.67069 77.312945 43.67069 
z
" clip-path="url(#p5586e9b31d)" style="stroke: #000000"/>
    <path d="M 73.338791 29.749513 
C 73.338791 29.749513 73.338791 29.749513 73.338791 29.749513 
C 73.338791 29.749513 73.338791 29.749513 73.338791 29.749513 
C 73.338791 29.749513 73.338791 29.749513 73.338791 29.749513 
C 73.338791 29.749513 73.338791 29.749513 73.338791 29.749513 
C 73.338791 29.749513 73.338791 29.749513 73.338791 29.749513 
C 73.338791 29.749513 73.338791 29.749513 73.338791 29.749513 
C 73.338791 29.749513 73.338791 29.749513 73.338791 29.749513 
C 73.338791 29.749513 73.338791 29.749513 73.338791 29.749513 
z
" clip-path="url(#p5586e9b31d)" style="stroke: #000000"/>
    <path d="M 71.130986 23.260619 
C 71.130986 23.260619 71.130986 23.260619 71.130986 23.260619 
C 71.130986 23.260619 71.130986 23.260619 71.130986 23.260619 
C 71.130986 23.260619 71.130986 23.260619 71.130986 23.260619 
C 71.130986 23.260619 71.130986 23.260619 71.130986 23.260619 
C 71.130986 23.260619 71.130986 23.260619 71.130986 23.260619 
C 71.130986 23.260619 71.130986 23.260619 71.130986 23.260619 
C 71.130986 23.260619 71.130986 23.260619 71.130986 23.260619 
C 71.130986 23.260619 71.130986 23.260619 71.130986 23.260619 
z
" clip-path="url(#p5586e9b31d)" style="stroke: #000000"/>
    <path d="M 112.3764 172.075694 
C 112.3764 172.075694 112.3764 172.075694 112.3764 172.075694 
C 112.3764 172.075694 112.3764 172.075694 112.3764 172.075694 
C 112.3764 172.075694 112.3764 172.075694 112.3764 172.075694 
C 112.3764 172.075694 112.3764 172.075694 112.3764 172.075694 
C 112.3764 172.075694 112.3764 172.075694 112.3764 172.075694 
C 112.3764 172.075694 112.3764 172.075694 112.3764 172.075694 
C 112.3764 172.075694 112.3764 172.075694 112.3764 172.075694 
C 112.3764 172.075694 112.3764 172.075694 112.3764 172.075694 
z
" clip-path="url(#p5586e9b31d)" style="stroke: #000000"/>
    <path d="M 105.344191 161.86072 
C 105.344191 161.86072 105.344191 161.86072 105.344191 161.86072 
C 105.344191 161.86072 105.344191 161.86072 105.344191 161.86072 
C 105.344191 161.86072 105.344191 161.86072 105.344191 161.86072 
C 105.344191 161.86072 105.344191 161.86072 105.344191 161.86072 
C 105.344191 161.86072 105.344191 161.86072 105.344191 161.86072 
C 105.344191 161.86072 105.344191 161.86072 105.344191 161.86072 
C 105.344191 161.86072 105.344191 161.86072 105.344191 161.86072 
C 105.344191 161.86072 105.344191 161.86072 105.344191 161.86072 
z
" clip-path="url(#p5586e9b31d)" style="stroke: #000000"/>
    <path d="M 105.930321 150.231085 
C 105.930321 150.231085 105.930321 150.231085 105.930321 150.231085 
C 105.930321 150.231085 105.930321 150.231085 105.930321 150.231085 
C 105.930321 150.231085 105.930321 150.231085 105.930321 150.231085 
C 105.930321 150.231085 105.930321 150.231085 105.930321 150.231085 
C 105.930321 150.231085 105.930321 150.231085 105.930321 150.231085 
C 105.930321 150.231085 105.930321 150.231085 105.930321 150.231085 
C 105.930321 150.231085 105.930321 150.231085 105.930321 150.231085 
C 105.930321 150.231085 105.930321 150.231085 105.930321 150.231085 
z
" clip-path="url(#p5586e9b31d)" style="stroke: #000000"/>
    <path d="M 100.386164 138.479694 
C 100.739211 138.479694 101.077846 138.339427 101.327488 138.089785 
C 101.57713 137.840143 101.717397 137.501509 101.717397 137.148462 
C 101.717397 136.795415 101.57713 136.45678 101.327488 136.207138 
C 101.077846 135.957496 100.739211 135.817229 100.386164 135.817229 
C 100.033117 135.817229 99.694482 135.957496 99.44484 136.207138 
C 99.195198 136.45678 99.054931 136.795415 99.054931 137.148462 
C 99.054931 137.501509 99.195198 137.840143 99.44484 138.089785 
C 99.694482 138.339427 100.033117 138.479694 100.386164 138.479694 
z
" clip-path="url(#p5586e9b31d)" style="stroke: #000000"/>
    <path d="M 102.567705 129.653618 
C 102.661468 129.653618 102.751404 129.616365 102.817705 129.550065 
C 102.884005 129.483764 102.921258 129.393828 102.921258 129.300065 
C 102.921258 129.206301 102.884005 129.116365 102.817705 129.050065 
C 102.751404 128.983764 102.661468 128.946511 102.567705 128.946511 
C 102.473941 128.946511 102.384005 128.983764 102.317705 129.050065 
C 102.251404 129.116365 102.214151 129.206301 102.214151 129.300065 
C 102.214151 129.393828 102.251404 129.483764 102.317705 129.550065 
C 102.384005 129.616365 102.473941 129.653618 102.567705 129.653618 
z
" clip-path="url(#p5586e9b31d)" style="stroke: #000000"/>
    <path d="M 93.180726 115.14757 
C 93.180726 115.14757 93.180726 115.14757 93.180726 115.14757 
C 93.180726 115.14757 93.180726 115.14757 93.180726 115.14757 
C 93.180726 115.14757 93.180726 115.14757 93.180726 115.14757 
C 93.180726 115.14757 93.180726 115.14757 93.180726 115.14757 
C 93.180726 115.14757 93.180726 115.14757 93.180726 115.14757 
C 93.180726 115.14757 93.180726 115.14757 93.180726 115.14757 
C 93.180726 115.14757 93.180726 115.14757 93.180726 115.14757 
C 93.180726 115.14757 93.180726 115.14757 93.180726 115.14757 
z
" clip-path="url(#p5586e9b31d)" style="stroke: #000000"/>
    <path d="M 87.193832 108.523893 
C 87.573206 108.523893 87.937092 108.373167 88.20535 108.104909 
C 88.473608 107.836651 88.624335 107.472764 88.624335 107.093391 
C 88.624335 106.714017 88.473608 106.35013 88.20535 106.081872 
C 87.937092 105.813615 87.573206 105.662888 87.193832 105.662888 
C 86.814458 105.662888 86.450572 105.813615 86.182314 106.081872 
C 85.914056 106.35013 85.763329 106.714017 85.763329 107.093391 
C 85.763329 107.472764 85.914056 107.836651 86.182314 108.104909 
C 86.450572 108.373167 86.814458 108.523893 87.193832 108.523893 
z
" clip-path="url(#p5586e9b31d)" style="stroke: #000000"/>
    <path d="M 81.192802 96.694503 
C 81.192802 96.694503 81.192802 96.694503 81.192802 96.694503 
C 81.192802 96.694503 81.192802 96.694503 81.192802 96.694503 
C 81.192802 96.694503 81.192802 96.694503 81.192802 96.694503 
C 81.192802 96.694503 81.192802 96.694503 81.192802 96.694503 
C 81.192802 96.694503 81.192802 96.694503 81.192802 96.694503 
C 81.192802 96.694503 81.192802 96.694503 81.192802 96.694503 
C 81.192802 96.694503 81.192802 96.694503 81.192802 96.694503 
C 81.192802 96.694503 81.192802 96.694503 81.192802 96.694503 
z
" clip-path="url(#p5586e9b31d)" style="stroke: #000000"/>
    <path d="M 84.144443 85.930959 
C 84.587602 85.930959 85.012669 85.75489 85.326029 85.44153 
C 85.639389 85.12817 85.815458 84.703103 85.815458 84.259945 
C 85.815458 83.816787 85.639389 83.39172 85.326029 83.078359 
C 85.012669 82.764999 84.587602 82.588931 84.144443 82.588931 
C 83.701285 82.588931 83.276218 82.764999 82.962858 83.078359 
C 82.649498 83.39172 82.473429 83.816787 82.473429 84.259945 
C 82.473429 84.703103 82.649498 85.12817 82.962858 85.44153 
C 83.276218 85.75489 83.701285 85.930959 84.144443 85.930959 
z
" clip-path="url(#p5586e9b31d)" style="stroke: #000000"/>
    <path d="M 76.95913 78.275076 
C 77.378715 78.275076 77.781171 78.108373 78.077862 77.811682 
C 78.374553 77.51499 78.541256 77.112534 78.541256 76.69295 
C 78.541256 76.273365 78.374553 75.870909 78.077862 75.574217 
C 77.781171 75.277526 77.378715 75.110823 76.95913 75.110823 
C 76.539545 75.110823 76.137089 75.277526 75.840398 75.574217 
C 75.543706 75.870909 75.377004 76.273365 75.377004 76.69295 
C 75.377004 77.112534 75.543706 77.51499 75.840398 77.811682 
C 76.137089 78.108373 76.539545 78.275076 76.95913 78.275076 
z
" clip-path="url(#p5586e9b31d)" style="stroke: #000000"/>
    <path d="M 73.237222 64.272033 
C 73.237222 64.272033 73.237222 64.272033 73.237222 64.272033 
C 73.237222 64.272033 73.237222 64.272033 73.237222 64.272033 
C 73.237222 64.272033 73.237222 64.272033 73.237222 64.272033 
C 73.237222 64.272033 73.237222 64.272033 73.237222 64.272033 
C 73.237222 64.272033 73.237222 64.272033 73.237222 64.272033 
C 73.237222 64.272033 73.237222 64.272033 73.237222 64.272033 
C 73.237222 64.272033 73.237222 64.272033 73.237222 64.272033 
C 73.237222 64.272033 73.237222 64.272033 73.237222 64.272033 
z
" clip-path="url(#p5586e9b31d)" style="stroke: #000000"/>
    <path d="M 68.184945 57.127318 
C 68.184945 57.127318 68.184945 57.127318 68.184945 57.127318 
C 68.184945 57.127318 68.184945 57.127318 68.184945 57.127318 
C 68.184945 57.127318 68.184945 57.127318 68.184945 57.127318 
C 68.184945 57.127318 68.184945 57.127318 68.184945 57.127318 
C 68.184945 57.127318 68.184945 57.127318 68.184945 57.127318 
C 68.184945 57.127318 68.184945 57.127318 68.184945 57.127318 
C 68.184945 57.127318 68.184945 57.127318 68.184945 57.127318 
C 68.184945 57.127318 68.184945 57.127318 68.184945 57.127318 
z
" clip-path="url(#p5586e9b31d)" style="stroke: #000000"/>
    <path d="M 69.545219 43.498577 
C 69.545219 43.498577 69.545219 43.498577 69.545219 43.498577 
C 69.545219 43.498577 69.545219 43.498577 69.545219 43.498577 
C 69.545219 43.498577 69.545219 43.498577 69.545219 43.498577 
C 69.545219 43.498577 69.545219 43.498577 69.545219 43.498577 
C 69.545219 43.498577 69.545219 43.498577 69.545219 43.498577 
C 69.545219 43.498577 69.545219 43.498577 69.545219 43.498577 
C 69.545219 43.498577 69.545219 43.498577 69.545219 43.498577 
C 69.545219 43.498577 69.545219 43.498577 69.545219 43.498577 
z
" clip-path="url(#p5586e9b31d)" style="stroke: #000000"/>
    <path d="M 64.382393 32.681065 
C 64.382393 32.681065 64.382393 32.681065 64.382393 32.681065 
C 64.382393 32.681065 64.382393 32.681065 64.382393 32.681065 
C 64.382393 32.681065 64.382393 32.681065 64.382393 32.681065 
C 64.382393 32.681065 64.382393 32.681065 64.382393 32.681065 
C 64.382393 32.681065 64.382393 32.681065 64.382393 32.681065 
C 64.382393 32.681065 64.382393 32.681065 64.382393 32.681065 
C 64.382393 32.681065 64.382393 32.681065 64.382393 32.681065 
C 64.382393 32.681065 64.382393 32.681065 64.382393 32.681065 
z
" clip-path="url(#p5586e9b31d)" style="stroke: #000000"/>
    <path d="M 101.732228 181.457944 
C 101.825991 181.457944 101.915927 181.420692 101.982228 181.354391 
C 102.048529 181.28809 102.085781 181.198154 102.085781 181.104391 
C 102.085781 181.010627 102.048529 180.920692 101.982228 180.854391 
C 101.915927 180.78809 101.825991 180.750837 101.732228 180.750837 
C 101.638464 180.750837 101.548529 180.78809 101.482228 180.854391 
C 101.415927 180.920692 101.378674 181.010627 101.378674 181.104391 
C 101.378674 181.198154 101.415927 181.28809 101.482228 181.354391 
C 101.548529 181.420692 101.638464 181.457944 101.732228 181.457944 
z
" clip-path="url(#p5586e9b31d)" style="stroke: #000000"/>
    <path d="M 98.244319 169.854517 
C 98.244319 169.854517 98.244319 169.854517 98.244319 169.854517 
C 98.244319 169.854517 98.244319 169.854517 98.244319 169.854517 
C 98.244319 169.854517 98.244319 169.854517 98.244319 169.854517 
C 98.244319 169.854517 98.244319 169.854517 98.244319 169.854517 
C 98.244319 169.854517 98.244319 169.854517 98.244319 169.854517 
C 98.244319 169.854517 98.244319 169.854517 98.244319 169.854517 
C 98.244319 169.854517 98.244319 169.854517 98.244319 169.854517 
C 98.244319 169.854517 98.244319 169.854517 98.244319 169.854517 
z
" clip-path="url(#p5586e9b31d)" style="stroke: #000000"/>
    <path d="M 95.323252 162.745325 
C 95.323252 162.745325 95.323252 162.745325 95.323252 162.745325 
C 95.323252 162.745325 95.323252 162.745325 95.323252 162.745325 
C 95.323252 162.745325 95.323252 162.745325 95.323252 162.745325 
C 95.323252 162.745325 95.323252 162.745325 95.323252 162.745325 
C 95.323252 162.745325 95.323252 162.745325 95.323252 162.745325 
C 95.323252 162.745325 95.323252 162.745325 95.323252 162.745325 
C 95.323252 162.745325 95.323252 162.745325 95.323252 162.745325 
C 95.323252 162.745325 95.323252 162.745325 95.323252 162.745325 
z
" clip-path="url(#p5586e9b31d)" style="stroke: #000000"/>
    <path d="M 92.127527 150.304202 
C 92.127527 150.304202 92.127527 150.304202 92.127527 150.304202 
C 92.127527 150.304202 92.127527 150.304202 92.127527 150.304202 
C 92.127527 150.304202 92.127527 150.304202 92.127527 150.304202 
C 92.127527 150.304202 92.127527 150.304202 92.127527 150.304202 
C 92.127527 150.304202 92.127527 150.304202 92.127527 150.304202 
C 92.127527 150.304202 92.127527 150.304202 92.127527 150.304202 
C 92.127527 150.304202 92.127527 150.304202 92.127527 150.304202 
C 92.127527 150.304202 92.127527 150.304202 92.127527 150.304202 
z
" clip-path="url(#p5586e9b31d)" style="stroke: #000000"/>
    <path d="M 91.455548 142.093539 
C 91.688347 142.093539 91.911641 142.001047 92.076254 141.836434 
C 92.240867 141.671821 92.333359 141.448527 92.333359 141.215728 
C 92.333359 140.98293 92.240867 140.759636 92.076254 140.595022 
C 91.911641 140.430409 91.688347 140.337918 91.455548 140.337918 
C 91.22275 140.337918 90.999456 140.430409 90.834842 140.595022 
C 90.670229 140.759636 90.577738 140.98293 90.577738 141.215728 
C 90.577738 141.448527 90.670229 141.671821 90.834842 141.836434 
C 90.999456 142.001047 91.22275 142.093539 91.455548 142.093539 
z
" clip-path="url(#p5586e9b31d)" style="stroke: #000000"/>
    <path d="M 83.670308 134.074718 
C 84.16897 134.074718 84.647275 133.876598 84.999882 133.523991 
C 85.352489 133.171384 85.55061 132.693079 85.55061 132.194417 
C 85.55061 131.695755 85.352489 131.21745 84.999882 130.864843 
C 84.647275 130.512236 84.16897 130.314115 83.670308 130.314115 
C 83.171646 130.314115 82.693341 130.512236 82.340734 130.864843 
C 81.988127 131.21745 81.790007 131.695755 81.790007 132.194417 
C 81.790007 132.693079 81.988127 133.171384 82.340734 133.523991 
C 82.693341 133.876598 83.171646 134.074718 83.670308 134.074718 
z
" clip-path="url(#p5586e9b31d)" style="stroke: #000000"/>
    <path d="M 84.402384 122.882308 
C 84.402384 122.882308 84.402384 122.882308 84.402384 122.882308 
C 84.402384 122.882308 84.402384 122.882308 84.402384 122.882308 
C 84.402384 122.882308 84.402384 122.882308 84.402384 122.882308 
C 84.402384 122.882308 84.402384 122.882308 84.402384 122.882308 
C 84.402384 122.882308 84.402384 122.882308 84.402384 122.882308 
C 84.402384 122.882308 84.402384 122.882308 84.402384 122.882308 
C 84.402384 122.882308 84.402384 122.882308 84.402384 122.882308 
C 84.402384 122.882308 84.402384 122.882308 84.402384 122.882308 
z
" clip-path="url(#p5586e9b31d)" style="stroke: #000000"/>
    <path d="M 78.320354 109.217571 
C 78.739939 109.217571 79.142395 109.050868 79.439086 108.754177 
C 79.735777 108.457486 79.90248 108.05503 79.90248 107.635445 
C 79.90248 107.21586 79.735777 106.813404 79.439086 106.516713 
C 79.142395 106.220021 78.739939 106.053319 78.320354 106.053319 
C 77.900769 106.053319 77.498313 106.220021 77.201622 106.516713 
C 76.904931 106.813404 76.738228 107.21586 76.738228 107.635445 
C 76.738228 108.05503 76.904931 108.457486 77.201622 108.754177 
C 77.498313 109.050868 77.900769 109.217571 78.320354 109.217571 
z
" clip-path="url(#p5586e9b31d)" style="stroke: #000000"/>
    <path d="M 76.933917 97.566866 
C 77.35324 97.566866 77.755445 97.400267 78.051951 97.103761 
C 78.348457 96.807255 78.515056 96.40505 78.515056 95.985727 
C 78.515056 95.566404 78.348457 95.164199 78.051951 94.867693 
C 77.755445 94.571187 77.35324 94.404588 76.933917 94.404588 
C 76.514594 94.404588 76.112389 94.571187 75.815883 94.867693 
C 75.519377 95.164199 75.352778 95.566404 75.352778 95.985727 
C 75.352778 96.40505 75.519377 96.807255 75.815883 97.103761 
C 76.112389 97.400267 76.514594 97.566866 76.933917 97.566866 
z
" clip-path="url(#p5586e9b31d)" style="stroke: #000000"/>
    <path d="M 70.816171 94.714305 
C 71.190858 94.714305 71.550249 94.565441 71.815193 94.300497 
C 72.080136 94.035553 72.229001 93.676162 72.229001 93.301475 
C 72.229001 92.926788 72.080136 92.567397 71.815193 92.302453 
C 71.550249 92.037509 71.190858 91.888644 70.816171 91.888644 
C 70.441484 91.888644 70.082092 92.037509 69.817149 92.302453 
C 69.552205 92.567397 69.40334 92.926788 69.40334 93.301475 
C 69.40334 93.676162 69.552205 94.035553 69.817149 94.300497 
C 70.082092 94.565441 70.441484 94.714305 70.816171 94.714305 
z
" clip-path="url(#p5586e9b31d)" style="stroke: #000000"/>
    <path d="M 66.524925 77.993262 
C 66.94451 77.993262 67.346966 77.826559 67.643657 77.529868 
C 67.940348 77.233177 68.107051 76.83072 68.107051 76.411136 
C 68.107051 75.991551 67.940348 75.589095 67.643657 75.292404 
C 67.346966 74.995712 66.94451 74.82901 66.524925 74.82901 
C 66.10534 74.82901 65.702884 74.995712 65.406193 75.292404 
C 65.109501 75.589095 64.942799 75.991551 64.942799 76.411136 
C 64.942799 76.83072 65.109501 77.233177 65.406193 77.529868 
C 65.702884 77.826559 66.10534 77.993262 66.524925 77.993262 
z
" clip-path="url(#p5586e9b31d)" style="stroke: #000000"/>
    <path d="M 62.196687 70.167341 
C 62.549734 70.167341 62.888368 70.027074 63.13801 69.777432 
C 63.387652 69.52779 63.527919 69.189155 63.527919 68.836108 
C 63.527919 68.483061 63.387652 68.144426 63.13801 67.894784 
C 62.888368 67.645142 62.549734 67.504875 62.196687 67.504875 
C 61.84364 67.504875 61.505005 67.645142 61.255363 67.894784 
C 61.005721 68.144426 60.865454 68.483061 60.865454 68.836108 
C 60.865454 69.189155 61.005721 69.52779 61.255363 69.777432 
C 61.505005 70.027074 61.84364 70.167341 62.196687 70.167341 
z
" clip-path="url(#p5586e9b31d)" style="stroke: #000000"/>
    <path d="M 65.498176 58.320793 
C 65.498176 58.320793 65.498176 58.320793 65.498176 58.320793 
C 65.498176 58.320793 65.498176 58.320793 65.498176 58.320793 
C 65.498176 58.320793 65.498176 58.320793 65.498176 58.320793 
C 65.498176 58.320793 65.498176 58.320793 65.498176 58.320793 
C 65.498176 58.320793 65.498176 58.320793 65.498176 58.320793 
C 65.498176 58.320793 65.498176 58.320793 65.498176 58.320793 
C 65.498176 58.320793 65.498176 58.320793 65.498176 58.320793 
C 65.498176 58.320793 65.498176 58.320793 65.498176 58.320793 
z
" clip-path="url(#p5586e9b31d)" style="stroke: #000000"/>
    <path d="M 51.294871 43.834604 
C 51.294871 43.834604 51.294871 43.834604 51.294871 43.834604 
C 51.294871 43.834604 51.294871 43.834604 51.294871 43.834604 
C 51.294871 43.834604 51.294871 43.834604 51.294871 43.834604 
C 51.294871 43.834604 51.294871 43.834604 51.294871 43.834604 
C 51.294871 43.834604 51.294871 43.834604 51.294871 43.834604 
C 51.294871 43.834604 51.294871 43.834604 51.294871 43.834604 
C 51.294871 43.834604 51.294871 43.834604 51.294871 43.834604 
C 51.294871 43.834604 51.294871 43.834604 51.294871 43.834604 
z
" clip-path="url(#p5586e9b31d)" style="stroke: #000000"/>
    <path d="M 51.677185 38.785051 
C 51.770948 38.785051 51.860884 38.747799 51.927185 38.681498 
C 51.993485 38.615197 52.030738 38.525262 52.030738 38.431498 
C 52.030738 38.337735 51.993485 38.247799 51.927185 38.181498 
C 51.860884 38.115197 51.770948 38.077945 51.677185 38.077945 
C 51.583421 38.077945 51.493485 38.115197 51.427185 38.181498 
C 51.360884 38.247799 51.323631 38.337735 51.323631 38.431498 
C 51.323631 38.525262 51.360884 38.615197 51.427185 38.681498 
C 51.493485 38.747799 51.583421 38.785051 51.677185 38.785051 
z
" clip-path="url(#p5586e9b31d)" style="stroke: #000000"/>
    <path d="M 91.901114 173.574018 
C 91.901114 173.574018 91.901114 173.574018 91.901114 173.574018 
C 91.901114 173.574018 91.901114 173.574018 91.901114 173.574018 
C 91.901114 173.574018 91.901114 173.574018 91.901114 173.574018 
C 91.901114 173.574018 91.901114 173.574018 91.901114 173.574018 
C 91.901114 173.574018 91.901114 173.574018 91.901114 173.574018 
C 91.901114 173.574018 91.901114 173.574018 91.901114 173.574018 
C 91.901114 173.574018 91.901114 173.574018 91.901114 173.574018 
C 91.901114 173.574018 91.901114 173.574018 91.901114 173.574018 
z
" clip-path="url(#p5586e9b31d)" style="stroke: #000000"/>
    <path d="M 91.261824 165.657623 
C 91.261824 165.657623 91.261824 165.657623 91.261824 165.657623 
C 91.261824 165.657623 91.261824 165.657623 91.261824 165.657623 
C 91.261824 165.657623 91.261824 165.657623 91.261824 165.657623 
C 91.261824 165.657623 91.261824 165.657623 91.261824 165.657623 
C 91.261824 165.657623 91.261824 165.657623 91.261824 165.657623 
C 91.261824 165.657623 91.261824 165.657623 91.261824 165.657623 
C 91.261824 165.657623 91.261824 165.657623 91.261824 165.657623 
C 91.261824 165.657623 91.261824 165.657623 91.261824 165.657623 
z
" clip-path="url(#p5586e9b31d)" style="stroke: #000000"/>
    <path d="M 82.586229 156.653854 
C 82.586229 156.653854 82.586229 156.653854 82.586229 156.653854 
C 82.586229 156.653854 82.586229 156.653854 82.586229 156.653854 
C 82.586229 156.653854 82.586229 156.653854 82.586229 156.653854 
C 82.586229 156.653854 82.586229 156.653854 82.586229 156.653854 
C 82.586229 156.653854 82.586229 156.653854 82.586229 156.653854 
C 82.586229 156.653854 82.586229 156.653854 82.586229 156.653854 
C 82.586229 156.653854 82.586229 156.653854 82.586229 156.653854 
C 82.586229 156.653854 82.586229 156.653854 82.586229 156.653854 
z
" clip-path="url(#p5586e9b31d)" style="stroke: #000000"/>
    <path d="M 80.342353 145.925882 
C 80.342353 145.925882 80.342353 145.925882 80.342353 145.925882 
C 80.342353 145.925882 80.342353 145.925882 80.342353 145.925882 
C 80.342353 145.925882 80.342353 145.925882 80.342353 145.925882 
C 80.342353 145.925882 80.342353 145.925882 80.342353 145.925882 
C 80.342353 145.925882 80.342353 145.925882 80.342353 145.925882 
C 80.342353 145.925882 80.342353 145.925882 80.342353 145.925882 
C 80.342353 145.925882 80.342353 145.925882 80.342353 145.925882 
C 80.342353 145.925882 80.342353 145.925882 80.342353 145.925882 
z
" clip-path="url(#p5586e9b31d)" style="stroke: #000000"/>
    <path d="M 80.046135 136.330522 
C 80.465457 136.330522 80.867662 136.163923 81.164168 135.867417 
C 81.460675 135.570911 81.627273 135.168706 81.627273 134.749383 
C 81.627273 134.33006 81.460675 133.927855 81.164168 133.631349 
C 80.867662 133.334843 80.465457 133.168245 80.046135 133.168245 
C 79.626812 133.168245 79.224607 133.334843 78.928101 133.631349 
C 78.631594 133.927855 78.464996 134.33006 78.464996 134.749383 
C 78.464996 135.168706 78.631594 135.570911 78.928101 135.867417 
C 79.224607 136.163923 79.626812 136.330522 80.046135 136.330522 
z
" clip-path="url(#p5586e9b31d)" style="stroke: #000000"/>
    <path d="M 71.256857 127.384495 
C 71.256857 127.384495 71.256857 127.384495 71.256857 127.384495 
C 71.256857 127.384495 71.256857 127.384495 71.256857 127.384495 
C 71.256857 127.384495 71.256857 127.384495 71.256857 127.384495 
C 71.256857 127.384495 71.256857 127.384495 71.256857 127.384495 
C 71.256857 127.384495 71.256857 127.384495 71.256857 127.384495 
C 71.256857 127.384495 71.256857 127.384495 71.256857 127.384495 
C 71.256857 127.384495 71.256857 127.384495 71.256857 127.384495 
C 71.256857 127.384495 71.256857 127.384495 71.256857 127.384495 
z
" clip-path="url(#p5586e9b31d)" style="stroke: #000000"/>
    <path d="M 68.076532 114.592076 
C 68.076532 114.592076 68.076532 114.592076 68.076532 114.592076 
C 68.076532 114.592076 68.076532 114.592076 68.076532 114.592076 
C 68.076532 114.592076 68.076532 114.592076 68.076532 114.592076 
C 68.076532 114.592076 68.076532 114.592076 68.076532 114.592076 
C 68.076532 114.592076 68.076532 114.592076 68.076532 114.592076 
C 68.076532 114.592076 68.076532 114.592076 68.076532 114.592076 
C 68.076532 114.592076 68.076532 114.592076 68.076532 114.592076 
C 68.076532 114.592076 68.076532 114.592076 68.076532 114.592076 
z
" clip-path="url(#p5586e9b31d)" style="stroke: #000000"/>
    <path d="M 66.218746 102.185464 
C 66.638069 102.185464 67.040274 102.018865 67.33678 101.722359 
C 67.633286 101.425853 67.799885 101.023648 67.799885 100.604325 
C 67.799885 100.185002 67.633286 99.782797 67.33678 99.486291 
C 67.040274 99.189785 66.638069 99.023186 66.218746 99.023186 
C 65.799423 99.023186 65.397218 99.189785 65.100712 99.486291 
C 64.804206 99.782797 64.637607 100.185002 64.637607 100.604325 
C 64.637607 101.023648 64.804206 101.425853 65.100712 101.722359 
C 65.397218 102.018865 65.799423 102.185464 66.218746 102.185464 
z
" clip-path="url(#p5586e9b31d)" style="stroke: #000000"/>
    <path d="M 58.065134 88.363056 
C 58.065134 88.363056 58.065134 88.363056 58.065134 88.363056 
C 58.065134 88.363056 58.065134 88.363056 58.065134 88.363056 
C 58.065134 88.363056 58.065134 88.363056 58.065134 88.363056 
C 58.065134 88.363056 58.065134 88.363056 58.065134 88.363056 
C 58.065134 88.363056 58.065134 88.363056 58.065134 88.363056 
C 58.065134 88.363056 58.065134 88.363056 58.065134 88.363056 
C 58.065134 88.363056 58.065134 88.363056 58.065134 88.363056 
C 58.065134 88.363056 58.065134 88.363056 58.065134 88.363056 
z
" clip-path="url(#p5586e9b31d)" style="stroke: #000000"/>
    <path d="M 54.945931 82.871743 
C 55.298978 82.871743 55.637613 82.731475 55.887255 82.481833 
C 56.136897 82.232192 56.277164 81.893557 56.277164 81.54051 
C 56.277164 81.187463 56.136897 80.848828 55.887255 80.599186 
C 55.637613 80.349544 55.298978 80.209277 54.945931 80.209277 
C 54.592884 80.209277 54.25425 80.349544 54.004608 80.599186 
C 53.754966 80.848828 53.614699 81.187463 53.614699 81.54051 
C 53.614699 81.893557 53.754966 82.232192 54.004608 82.481833 
C 54.25425 82.731475 54.592884 82.871743 54.945931 82.871743 
z
" clip-path="url(#p5586e9b31d)" style="stroke: #000000"/>
    <path d="M 53.161825 73.730308 
C 53.255588 73.730308 53.345524 73.693056 53.411825 73.626755 
C 53.478126 73.560454 53.515378 73.470518 53.515378 73.376755 
C 53.515378 73.282992 53.478126 73.193056 53.411825 73.126755 
C 53.345524 73.060454 53.255588 73.023202 53.161825 73.023202 
C 53.068062 73.023202 52.978126 73.060454 52.911825 73.126755 
C 52.845524 73.193056 52.808272 73.282992 52.808272 73.376755 
C 52.808272 73.470518 52.845524 73.560454 52.911825 73.626755 
C 52.978126 73.693056 53.068062 73.730308 53.161825 73.730308 
z
" clip-path="url(#p5586e9b31d)" style="stroke: #000000"/>
    <path d="M 46.181573 61.751889 
C 46.181573 61.751889 46.181573 61.751889 46.181573 61.751889 
C 46.181573 61.751889 46.181573 61.751889 46.181573 61.751889 
C 46.181573 61.751889 46.181573 61.751889 46.181573 61.751889 
C 46.181573 61.751889 46.181573 61.751889 46.181573 61.751889 
C 46.181573 61.751889 46.181573 61.751889 46.181573 61.751889 
C 46.181573 61.751889 46.181573 61.751889 46.181573 61.751889 
C 46.181573 61.751889 46.181573 61.751889 46.181573 61.751889 
C 46.181573 61.751889 46.181573 61.751889 46.181573 61.751889 
z
" clip-path="url(#p5586e9b31d)" style="stroke: #000000"/>
    <path d="M 48.221483 52.903671 
C 48.315247 52.903671 48.405183 52.866418 48.471483 52.800117 
C 48.537784 52.733816 48.575037 52.643881 48.575037 52.550117 
C 48.575037 52.456354 48.537784 52.366418 48.471483 52.300117 
C 48.405183 52.233816 48.315247 52.196564 48.221483 52.196564 
C 48.12772 52.196564 48.037784 52.233816 47.971483 52.300117 
C 47.905183 52.366418 47.86793 52.456354 47.86793 52.550117 
C 47.86793 52.643881 47.905183 52.733816 47.971483 52.800117 
C 48.037784 52.866418 48.12772 52.903671 48.221483 52.903671 
z
" clip-path="url(#p5586e9b31d)" style="stroke: #000000"/>
    <path d="M 75.928732 177.740256 
C 75.928732 177.740256 75.928732 177.740256 75.928732 177.740256 
C 75.928732 177.740256 75.928732 177.740256 75.928732 177.740256 
C 75.928732 177.740256 75.928732 177.740256 75.928732 177.740256 
C 75.928732 177.740256 75.928732 177.740256 75.928732 177.740256 
C 75.928732 177.740256 75.928732 177.740256 75.928732 177.740256 
C 75.928732 177.740256 75.928732 177.740256 75.928732 177.740256 
C 75.928732 177.740256 75.928732 177.740256 75.928732 177.740256 
C 75.928732 177.740256 75.928732 177.740256 75.928732 177.740256 
z
" clip-path="url(#p5586e9b31d)" style="stroke: #000000"/>
    <path d="M 78.162123 169.133873 
C 78.162123 169.133873 78.162123 169.133873 78.162123 169.133873 
C 78.162123 169.133873 78.162123 169.133873 78.162123 169.133873 
C 78.162123 169.133873 78.162123 169.133873 78.162123 169.133873 
C 78.162123 169.133873 78.162123 169.133873 78.162123 169.133873 
C 78.162123 169.133873 78.162123 169.133873 78.162123 169.133873 
C 78.162123 169.133873 78.162123 169.133873 78.162123 169.133873 
C 78.162123 169.133873 78.162123 169.133873 78.162123 169.133873 
C 78.162123 169.133873 78.162123 169.133873 78.162123 169.133873 
z
" clip-path="url(#p5586e9b31d)" style="stroke: #000000"/>
    <path d="M 73.452 158.507339 
C 73.452 158.507339 73.452 158.507339 73.452 158.507339 
C 73.452 158.507339 73.452 158.507339 73.452 158.507339 
C 73.452 158.507339 73.452 158.507339 73.452 158.507339 
C 73.452 158.507339 73.452 158.507339 73.452 158.507339 
C 73.452 158.507339 73.452 158.507339 73.452 158.507339 
C 73.452 158.507339 73.452 158.507339 73.452 158.507339 
C 73.452 158.507339 73.452 158.507339 73.452 158.507339 
C 73.452 158.507339 73.452 158.507339 73.452 158.507339 
z
" clip-path="url(#p5586e9b31d)" style="stroke: #000000"/>
    <path d="M 73.646743 148.376251 
C 73.646743 148.376251 73.646743 148.376251 73.646743 148.376251 
C 73.646743 148.376251 73.646743 148.376251 73.646743 148.376251 
C 73.646743 148.376251 73.646743 148.376251 73.646743 148.376251 
C 73.646743 148.376251 73.646743 148.376251 73.646743 148.376251 
C 73.646743 148.376251 73.646743 148.376251 73.646743 148.376251 
C 73.646743 148.376251 73.646743 148.376251 73.646743 148.376251 
C 73.646743 148.376251 73.646743 148.376251 73.646743 148.376251 
C 73.646743 148.376251 73.646743 148.376251 73.646743 148.376251 
z
" clip-path="url(#p5586e9b31d)" style="stroke: #000000"/>
    <path d="M 61.224971 139.430057 
C 61.630236 139.430057 62.018958 139.269043 62.305524 138.982477 
C 62.59209 138.695911 62.753104 138.307189 62.753104 137.901923 
C 62.753104 137.496657 62.59209 137.107936 62.305524 136.821369 
C 62.018958 136.534803 61.630236 136.373789 61.224971 136.373789 
C 60.819705 136.373789 60.430983 136.534803 60.144417 136.821369 
C 59.857851 137.107936 59.696837 137.496657 59.696837 137.901923 
C 59.696837 138.307189 59.857851 138.695911 60.144417 138.982477 
C 60.430983 139.269043 60.819705 139.430057 61.224971 139.430057 
z
" clip-path="url(#p5586e9b31d)" style="stroke: #000000"/>
    <path d="M 62.71109 130.742562 
C 63.057358 130.742562 63.38949 130.604989 63.634338 130.360141 
C 63.879186 130.115293 64.01676 129.783161 64.01676 129.436893 
C 64.01676 129.090625 63.879186 128.758493 63.634338 128.513645 
C 63.38949 128.268797 63.057358 128.131224 62.71109 128.131224 
C 62.364823 128.131224 62.032691 128.268797 61.787843 128.513645 
C 61.542994 128.758493 61.405421 129.090625 61.405421 129.436893 
C 61.405421 129.783161 61.542994 130.115293 61.787843 130.360141 
C 62.032691 130.604989 62.364823 130.742562 62.71109 130.742562 
z
" clip-path="url(#p5586e9b31d)" style="stroke: #000000"/>
    <path d="M 58.980695 121.879606 
C 59.466225 121.879606 59.931934 121.686703 60.275256 121.343382 
C 60.618577 121.000061 60.81148 120.534352 60.81148 120.048822 
C 60.81148 119.563292 60.618577 119.097583 60.275256 118.754262 
C 59.931934 118.41094 59.466225 118.218037 58.980695 118.218037 
C 58.495166 118.218037 58.029457 118.41094 57.686135 118.754262 
C 57.342814 119.097583 57.149911 119.563292 57.149911 120.048822 
C 57.149911 120.534352 57.342814 121.000061 57.686135 121.343382 
C 58.029457 121.686703 58.495166 121.879606 58.980695 121.879606 
z
" clip-path="url(#p5586e9b31d)" style="stroke: #000000"/>
    <path d="M 53.201251 107.704248 
C 53.624706 107.704248 54.030874 107.536007 54.330301 107.23658 
C 54.629729 106.937152 54.797969 106.530984 54.797969 106.107529 
C 54.797969 105.684075 54.629729 105.277907 54.330301 104.978479 
C 54.030874 104.679051 53.624706 104.510811 53.201251 104.510811 
C 52.777796 104.510811 52.371628 104.679051 52.072201 104.978479 
C 51.772773 105.277907 51.604533 105.684075 51.604533 106.107529 
C 51.604533 106.530984 51.772773 106.937152 52.072201 107.23658 
C 52.371628 107.536007 52.777796 107.704248 53.201251 107.704248 
z
" clip-path="url(#p5586e9b31d)" style="stroke: #000000"/>
    <path d="M 50.923506 98.578709 
C 50.923506 98.578709 50.923506 98.578709 50.923506 98.578709 
C 50.923506 98.578709 50.923506 98.578709 50.923506 98.578709 
C 50.923506 98.578709 50.923506 98.578709 50.923506 98.578709 
C 50.923506 98.578709 50.923506 98.578709 50.923506 98.578709 
C 50.923506 98.578709 50.923506 98.578709 50.923506 98.578709 
C 50.923506 98.578709 50.923506 98.578709 50.923506 98.578709 
C 50.923506 98.578709 50.923506 98.578709 50.923506 98.578709 
C 50.923506 98.578709 50.923506 98.578709 50.923506 98.578709 
z
" clip-path="url(#p5586e9b31d)" style="stroke: #000000"/>
    <path d="M 47.496055 86.481002 
C 47.589819 86.481002 47.679754 86.443749 47.746055 86.377448 
C 47.812356 86.311148 47.849609 86.221212 47.849609 86.127448 
C 47.849609 86.033685 47.812356 85.943749 47.746055 85.877448 
C 47.679754 85.811148 47.589819 85.773895 47.496055 85.773895 
C 47.402292 85.773895 47.312356 85.811148 47.246055 85.877448 
C 47.179754 85.943749 47.142502 86.033685 47.142502 86.127448 
C 47.142502 86.221212 47.179754 86.311148 47.246055 86.377448 
C 47.312356 86.443749 47.402292 86.481002 47.496055 86.481002 
z
" clip-path="url(#p5586e9b31d)" style="stroke: #000000"/>
    <path d="M 44.737114 74.603321 
C 44.737114 74.603321 44.737114 74.603321 44.737114 74.603321 
C 44.737114 74.603321 44.737114 74.603321 44.737114 74.603321 
C 44.737114 74.603321 44.737114 74.603321 44.737114 74.603321 
C 44.737114 74.603321 44.737114 74.603321 44.737114 74.603321 
C 44.737114 74.603321 44.737114 74.603321 44.737114 74.603321 
C 44.737114 74.603321 44.737114 74.603321 44.737114 74.603321 
C 44.737114 74.603321 44.737114 74.603321 44.737114 74.603321 
C 44.737114 74.603321 44.737114 74.603321 44.737114 74.603321 
z
" clip-path="url(#p5586e9b31d)" style="stroke: #000000"/>
    <path d="M 39.356453 64.003094 
C 39.356453 64.003094 39.356453 64.003094 39.356453 64.003094 
C 39.356453 64.003094 39.356453 64.003094 39.356453 64.003094 
C 39.356453 64.003094 39.356453 64.003094 39.356453 64.003094 
C 39.356453 64.003094 39.356453 64.003094 39.356453 64.003094 
C 39.356453 64.003094 39.356453 64.003094 39.356453 64.003094 
C 39.356453 64.003094 39.356453 64.003094 39.356453 64.003094 
C 39.356453 64.003094 39.356453 64.003094 39.356453 64.003094 
C 39.356453 64.003094 39.356453 64.003094 39.356453 64.003094 
z
" clip-path="url(#p5586e9b31d)" style="stroke: #000000"/>
    <path d="M 65.109905 170.143498 
C 65.109905 170.143498 65.109905 170.143498 65.109905 170.143498 
C 65.109905 170.143498 65.109905 170.143498 65.109905 170.143498 
C 65.109905 170.143498 65.109905 170.143498 65.109905 170.143498 
C 65.109905 170.143498 65.109905 170.143498 65.109905 170.143498 
C 65.109905 170.143498 65.109905 170.143498 65.109905 170.143498 
C 65.109905 170.143498 65.109905 170.143498 65.109905 170.143498 
C 65.109905 170.143498 65.109905 170.143498 65.109905 170.143498 
C 65.109905 170.143498 65.109905 170.143498 65.109905 170.143498 
z
" clip-path="url(#p5586e9b31d)" style="stroke: #000000"/>
    <path d="M 62.749858 158.930911 
C 62.749858 158.930911 62.749858 158.930911 62.749858 158.930911 
C 62.749858 158.930911 62.749858 158.930911 62.749858 158.930911 
C 62.749858 158.930911 62.749858 158.930911 62.749858 158.930911 
C 62.749858 158.930911 62.749858 158.930911 62.749858 158.930911 
C 62.749858 158.930911 62.749858 158.930911 62.749858 158.930911 
C 62.749858 158.930911 62.749858 158.930911 62.749858 158.930911 
C 62.749858 158.930911 62.749858 158.930911 62.749858 158.930911 
C 62.749858 158.930911 62.749858 158.930911 62.749858 158.930911 
z
" clip-path="url(#p5586e9b31d)" style="stroke: #000000"/>
    <path d="M 58.551967 149.982442 
C 58.904132 149.982442 59.241921 149.842525 59.49094 149.593506 
C 59.739959 149.344488 59.879876 149.006699 59.879876 148.654533 
C 59.879876 148.302367 59.739959 147.964578 59.49094 147.71556 
C 59.241921 147.466541 58.904132 147.326624 58.551967 147.326624 
C 58.199801 147.326624 57.862012 147.466541 57.612993 147.71556 
C 57.363975 147.964578 57.224058 148.302367 57.224058 148.654533 
C 57.224058 149.006699 57.363975 149.344488 57.612993 149.593506 
C 57.862012 149.842525 58.199801 149.982442 58.551967 149.982442 
z
" clip-path="url(#p5586e9b31d)" style="stroke: #000000"/>
    <path d="M 54.518032 142.182666 
C 54.611796 142.182666 54.701732 142.145413 54.768032 142.079112 
C 54.834333 142.012812 54.871586 141.922876 54.871586 141.829112 
C 54.871586 141.735349 54.834333 141.645413 54.768032 141.579112 
C 54.701732 141.512812 54.611796 141.475559 54.518032 141.475559 
C 54.424269 141.475559 54.334333 141.512812 54.268032 141.579112 
C 54.201732 141.645413 54.164479 141.735349 54.164479 141.829112 
C 54.164479 141.922876 54.201732 142.012812 54.268032 142.079112 
C 54.334333 142.145413 54.424269 142.182666 54.518032 142.182666 
z
" clip-path="url(#p5586e9b31d)" style="stroke: #000000"/>
    <path d="M 50.143612 132.133018 
C 50.143612 132.133018 50.143612 132.133018 50.143612 132.133018 
C 50.143612 132.133018 50.143612 132.133018 50.143612 132.133018 
C 50.143612 132.133018 50.143612 132.133018 50.143612 132.133018 
C 50.143612 132.133018 50.143612 132.133018 50.143612 132.133018 
C 50.143612 132.133018 50.143612 132.133018 50.143612 132.133018 
C 50.143612 132.133018 50.143612 132.133018 50.143612 132.133018 
C 50.143612 132.133018 50.143612 132.133018 50.143612 132.133018 
C 50.143612 132.133018 50.143612 132.133018 50.143612 132.133018 
z
" clip-path="url(#p5586e9b31d)" style="stroke: #000000"/>
    <path d="M 50.204717 119.28416 
C 50.204717 119.28416 50.204717 119.28416 50.204717 119.28416 
C 50.204717 119.28416 50.204717 119.28416 50.204717 119.28416 
C 50.204717 119.28416 50.204717 119.28416 50.204717 119.28416 
C 50.204717 119.28416 50.204717 119.28416 50.204717 119.28416 
C 50.204717 119.28416 50.204717 119.28416 50.204717 119.28416 
C 50.204717 119.28416 50.204717 119.28416 50.204717 119.28416 
C 50.204717 119.28416 50.204717 119.28416 50.204717 119.28416 
C 50.204717 119.28416 50.204717 119.28416 50.204717 119.28416 
z
" clip-path="url(#p5586e9b31d)" style="stroke: #000000"/>
    <path d="M 42.130897 109.286334 
C 42.224661 109.286334 42.314596 109.249082 42.380897 109.182781 
C 42.447198 109.11648 42.484451 109.026544 42.484451 108.932781 
C 42.484451 108.839017 42.447198 108.749082 42.380897 108.682781 
C 42.314596 108.61648 42.224661 108.579227 42.130897 108.579227 
C 42.037134 108.579227 41.947198 108.61648 41.880897 108.682781 
C 41.814596 108.749082 41.777344 108.839017 41.777344 108.932781 
C 41.777344 109.026544 41.814596 109.11648 41.880897 109.182781 
C 41.947198 109.249082 42.037134 109.286334 42.130897 109.286334 
z
" clip-path="url(#p5586e9b31d)" style="stroke: #000000"/>
    <path d="M 41.662369 95.468715 
C 41.662369 95.468715 41.662369 95.468715 41.662369 95.468715 
C 41.662369 95.468715 41.662369 95.468715 41.662369 95.468715 
C 41.662369 95.468715 41.662369 95.468715 41.662369 95.468715 
C 41.662369 95.468715 41.662369 95.468715 41.662369 95.468715 
C 41.662369 95.468715 41.662369 95.468715 41.662369 95.468715 
C 41.662369 95.468715 41.662369 95.468715 41.662369 95.468715 
C 41.662369 95.468715 41.662369 95.468715 41.662369 95.468715 
C 41.662369 95.468715 41.662369 95.468715 41.662369 95.468715 
z
" clip-path="url(#p5586e9b31d)" style="stroke: #000000"/>
    <path d="M 36.981488 92.94287 
C 36.981488 92.94287 36.981488 92.94287 36.981488 92.94287 
C 36.981488 92.94287 36.981488 92.94287 36.981488 92.94287 
C 36.981488 92.94287 36.981488 92.94287 36.981488 92.94287 
C 36.981488 92.94287 36.981488 92.94287 36.981488 92.94287 
C 36.981488 92.94287 36.981488 92.94287 36.981488 92.94287 
C 36.981488 92.94287 36.981488 92.94287 36.981488 92.94287 
C 36.981488 92.94287 36.981488 92.94287 36.981488 92.94287 
C 36.981488 92.94287 36.981488 92.94287 36.981488 92.94287 
z
" clip-path="url(#p5586e9b31d)" style="stroke: #000000"/>
    <path d="M 52.568999 176.129688 
C 52.568999 176.129688 52.568999 176.129688 52.568999 176.129688 
C 52.568999 176.129688 52.568999 176.129688 52.568999 176.129688 
C 52.568999 176.129688 52.568999 176.129688 52.568999 176.129688 
C 52.568999 176.129688 52.568999 176.129688 52.568999 176.129688 
C 52.568999 176.129688 52.568999 176.129688 52.568999 176.129688 
C 52.568999 176.129688 52.568999 176.129688 52.568999 176.129688 
C 52.568999 176.129688 52.568999 176.129688 52.568999 176.129688 
C 52.568999 176.129688 52.568999 176.129688 52.568999 176.129688 
z
" clip-path="url(#p5586e9b31d)" style="stroke: #000000"/>
    <path d="M 51.0402 166.199798 
C 51.0402 166.199798 51.0402 166.199798 51.0402 166.199798 
C 51.0402 166.199798 51.0402 166.199798 51.0402 166.199798 
C 51.0402 166.199798 51.0402 166.199798 51.0402 166.199798 
C 51.0402 166.199798 51.0402 166.199798 51.0402 166.199798 
C 51.0402 166.199798 51.0402 166.199798 51.0402 166.199798 
C 51.0402 166.199798 51.0402 166.199798 51.0402 166.199798 
C 51.0402 166.199798 51.0402 166.199798 51.0402 166.199798 
C 51.0402 166.199798 51.0402 166.199798 51.0402 166.199798 
z
" clip-path="url(#p5586e9b31d)" style="stroke: #000000"/>
    <path d="M 48.247697 154.381866 
C 48.247697 154.381866 48.247697 154.381866 48.247697 154.381866 
C 48.247697 154.381866 48.247697 154.381866 48.247697 154.381866 
C 48.247697 154.381866 48.247697 154.381866 48.247697 154.381866 
C 48.247697 154.381866 48.247697 154.381866 48.247697 154.381866 
C 48.247697 154.381866 48.247697 154.381866 48.247697 154.381866 
C 48.247697 154.381866 48.247697 154.381866 48.247697 154.381866 
C 48.247697 154.381866 48.247697 154.381866 48.247697 154.381866 
C 48.247697 154.381866 48.247697 154.381866 48.247697 154.381866 
z
" clip-path="url(#p5586e9b31d)" style="stroke: #000000"/>
    <path d="M 41.65488 143.033534 
C 41.65488 143.033534 41.65488 143.033534 41.65488 143.033534 
C 41.65488 143.033534 41.65488 143.033534 41.65488 143.033534 
C 41.65488 143.033534 41.65488 143.033534 41.65488 143.033534 
C 41.65488 143.033534 41.65488 143.033534 41.65488 143.033534 
C 41.65488 143.033534 41.65488 143.033534 41.65488 143.033534 
C 41.65488 143.033534 41.65488 143.033534 41.65488 143.033534 
C 41.65488 143.033534 41.65488 143.033534 41.65488 143.033534 
C 41.65488 143.033534 41.65488 143.033534 41.65488 143.033534 
z
" clip-path="url(#p5586e9b31d)" style="stroke: #000000"/>
    <path d="M 40.168835 131.956575 
C 40.262598 131.956575 40.352534 131.919323 40.418835 131.853022 
C 40.485135 131.786721 40.522388 131.696785 40.522388 131.603022 
C 40.522388 131.509258 40.485135 131.419323 40.418835 131.353022 
C 40.352534 131.286721 40.262598 131.249469 40.168835 131.249469 
C 40.075071 131.249469 39.985135 131.286721 39.918835 131.353022 
C 39.852534 131.419323 39.815281 131.509258 39.815281 131.603022 
C 39.815281 131.696785 39.852534 131.786721 39.918835 131.853022 
C 39.985135 131.919323 40.075071 131.956575 40.168835 131.956575 
z
" clip-path="url(#p5586e9b31d)" style="stroke: #000000"/>
    <path d="M 40.353046 124.199876 
C 40.353046 124.199876 40.353046 124.199876 40.353046 124.199876 
C 40.353046 124.199876 40.353046 124.199876 40.353046 124.199876 
C 40.353046 124.199876 40.353046 124.199876 40.353046 124.199876 
C 40.353046 124.199876 40.353046 124.199876 40.353046 124.199876 
C 40.353046 124.199876 40.353046 124.199876 40.353046 124.199876 
C 40.353046 124.199876 40.353046 124.199876 40.353046 124.199876 
C 40.353046 124.199876 40.353046 124.199876 40.353046 124.199876 
C 40.353046 124.199876 40.353046 124.199876 40.353046 124.199876 
z
" clip-path="url(#p5586e9b31d)" style="stroke: #000000"/>
    <path d="M 34.579466 116.322491 
C 34.932513 116.322491 35.271147 116.182224 35.520789 115.932582 
C 35.770431 115.68294 35.910698 115.344305 35.910698 114.991258 
C 35.910698 114.638211 35.770431 114.299576 35.520789 114.049934 
C 35.271147 113.800292 34.932513 113.660025 34.579466 113.660025 
C 34.226418 113.660025 33.887784 113.800292 33.638142 114.049934 
C 33.3885 114.299576 33.248233 114.638211 33.248233 114.991258 
C 33.248233 115.344305 33.3885 115.68294 33.638142 115.932582 
C 33.887784 116.182224 34.226418 116.322491 34.579466 116.322491 
z
" clip-path="url(#p5586e9b31d)" style="stroke: #000000"/>
    <path d="M 33.384348 103.449311 
C 33.384348 103.449311 33.384348 103.449311 33.384348 103.449311 
C 33.384348 103.449311 33.384348 103.449311 33.384348 103.449311 
C 33.384348 103.449311 33.384348 103.449311 33.384348 103.449311 
C 33.384348 103.449311 33.384348 103.449311 33.384348 103.449311 
C 33.384348 103.449311 33.384348 103.449311 33.384348 103.449311 
C 33.384348 103.449311 33.384348 103.449311 33.384348 103.449311 
C 33.384348 103.449311 33.384348 103.449311 33.384348 103.449311 
C 33.384348 103.449311 33.384348 103.449311 33.384348 103.449311 
z
" clip-path="url(#p5586e9b31d)" style="stroke: #000000"/>
    <path d="M 39.36031 173.879698 
C 39.36031 173.879698 39.36031 173.879698 39.36031 173.879698 
C 39.36031 173.879698 39.36031 173.879698 39.36031 173.879698 
C 39.36031 173.879698 39.36031 173.879698 39.36031 173.879698 
C 39.36031 173.879698 39.36031 173.879698 39.36031 173.879698 
C 39.36031 173.879698 39.36031 173.879698 39.36031 173.879698 
C 39.36031 173.879698 39.36031 173.879698 39.36031 173.879698 
C 39.36031 173.879698 39.36031 173.879698 39.36031 173.879698 
C 39.36031 173.879698 39.36031 173.879698 39.36031 173.879698 
z
" clip-path="url(#p5586e9b31d)" style="stroke: #000000"/>
    <path d="M 41.789999 158.938317 
C 41.789999 158.938317 41.789999 158.938317 41.789999 158.938317 
C 41.789999 158.938317 41.789999 158.938317 41.789999 158.938317 
C 41.789999 158.938317 41.789999 158.938317 41.789999 158.938317 
C 41.789999 158.938317 41.789999 158.938317 41.789999 158.938317 
C 41.789999 158.938317 41.789999 158.938317 41.789999 158.938317 
C 41.789999 158.938317 41.789999 158.938317 41.789999 158.938317 
C 41.789999 158.938317 41.789999 158.938317 41.789999 158.938317 
C 41.789999 158.938317 41.789999 158.938317 41.789999 158.938317 
z
" clip-path="url(#p5586e9b31d)" style="stroke: #000000"/>
    <path d="M 37.107682 146.663728 
C 37.107682 146.663728 37.107682 146.663728 37.107682 146.663728 
C 37.107682 146.663728 37.107682 146.663728 37.107682 146.663728 
C 37.107682 146.663728 37.107682 146.663728 37.107682 146.663728 
C 37.107682 146.663728 37.107682 146.663728 37.107682 146.663728 
C 37.107682 146.663728 37.107682 146.663728 37.107682 146.663728 
C 37.107682 146.663728 37.107682 146.663728 37.107682 146.663728 
C 37.107682 146.663728 37.107682 146.663728 37.107682 146.663728 
C 37.107682 146.663728 37.107682 146.663728 37.107682 146.663728 
z
" clip-path="url(#p5586e9b31d)" style="stroke: #000000"/>
   </g>
   <g id="matplotlib.axis_1">
    <g id="xtick_1">
     <g id="line2d_1">
      <defs>
       <path id="mf0d606ac56" d="M 0 0 
L 0 3.5 
" style="stroke: #000000; stroke-width: 0.8"/>
      </defs>
      <g>
       <use xlink:href="#mf0d606ac56" x="18" y="189" style="stroke: #000000; stroke-width: 0.8"/>
      </g>
     </g>
     <g id="text_1">
      <!-- 10 -->
      <g transform="translate(7.447656 203.598437)scale(0.1 -0.1)">
       <defs>
        <path id="DejaVuSans-2212" d="M 678 2272 
L 4684 2272 
L 4684 1741 
L 678 1741 
L 678 2272 
z
" transform="scale(0.015625)"/>
        <path id="DejaVuSans-31" d="M 794 531 
L 1825 531 
L 1825 4091 
L 703 3866 
L 703 4441 
L 1819 4666 
L 2450 4666 
L 2450 531 
L 3481 531 
L 3481 0 
L 794 0 
L 794 531 
z
" transform="scale(0.015625)"/>
        <path id="DejaVuSans-30" d="M 2034 4250 
Q 1547 4250 1301 3770 
Q 1056 3291 1056 2328 
Q 1056 1369 1301 889 
Q 1547 409 2034 409 
Q 2525 409 2770 889 
Q 3016 1369 3016 2328 
Q 3016 3291 2770 3770 
Q 2525 4250 2034 4250 
z
M 2034 4750 
Q 2819 4750 3233 4129 
Q 3647 3509 3647 2328 
Q 3647 1150 3233 529 
Q 2819 -91 2034 -91 
Q 1250 -91 836 529 
Q 422 1150 422 2328 
Q 422 3509 836 4129 
Q 1250 4750 2034 4750 
z
" transform="scale(0.015625)"/>
       </defs>
       <use xlink:href="#DejaVuSans-2212"/>
       <use xlink:href="#DejaVuSans-31" x="83.789062"/>
       <use xlink:href="#DejaVuSans-30" x="147.412109"/>
      </g>
     </g>
    </g>
    <g id="xtick_2">
     <g id="line2d_2">
      <g>
       <use xlink:href="#mf0d606ac56" x="73.8" y="189" style="stroke: #000000; stroke-width: 0.8"/>
      </g>
     </g>
     <g id="text_2">
      <!-- 0 -->
      <g transform="translate(70.61875 203.598437)scale(0.1 -0.1)">
       <use xlink:href="#DejaVuSans-30"/>
      </g>
     </g>
    </g>
    <g id="xtick_3">
     <g id="line2d_3">
      <g>
       <use xlink:href="#mf0d606ac56" x="129.6" y="189" style="stroke: #000000; stroke-width: 0.8"/>
      </g>
     </g>
     <g id="text_3">
      <!-- 10 -->
      <g transform="translate(123.2375 203.598437)scale(0.1 -0.1)">
       <use xlink:href="#DejaVuSans-31"/>
       <use xlink:href="#DejaVuSans-30" x="63.623047"/>
      </g>
     </g>
    </g>
   </g>
   <g id="matplotlib.axis_2">
    <g id="ytick_1">
     <g id="line2d_4">
      <defs>
       <path id="md312707060" d="M 0 0 
L -3.5 0 
" style="stroke: #000000; stroke-width: 0.8"/>
      </defs>
      <g>
       <use xlink:href="#md312707060" x="18" y="189" style="stroke: #000000; stroke-width: 0.8"/>
      </g>
     </g>
     <g id="text_4">
      <!-- 15 -->
      <g transform="translate(-10.104688 192.799219)scale(0.1 -0.1)">
       <defs>
        <path id="DejaVuSans-35" d="M 691 4666 
L 3169 4666 
L 3169 4134 
L 1269 4134 
L 1269 2991 
Q 1406 3038 1543 3061 
Q 1681 3084 1819 3084 
Q 2600 3084 3056 2656 
Q 3513 2228 3513 1497 
Q 3513 744 3044 326 
Q 2575 -91 1722 -91 
Q 1428 -91 1123 -41 
Q 819 9 494 109 
L 494 744 
Q 775 591 1075 516 
Q 1375 441 1709 441 
Q 2250 441 2565 725 
Q 2881 1009 2881 1497 
Q 2881 1984 2565 2268 
Q 2250 2553 1709 2553 
Q 1456 2553 1204 2497 
Q 953 2441 691 2322 
L 691 4666 
z
" transform="scale(0.015625)"/>
       </defs>
       <use xlink:href="#DejaVuSans-2212"/>
       <use xlink:href="#DejaVuSans-31" x="83.789062"/>
       <use xlink:href="#DejaVuSans-35" x="147.412109"/>
      </g>
     </g>
    </g>
    <g id="ytick_2">
     <g id="line2d_5">
      <g>
       <use xlink:href="#md312707060" x="18" y="161.82" style="stroke: #000000; stroke-width: 0.8"/>
      </g>
     </g>
     <g id="text_5">
      <!-- 10 -->
      <g transform="translate(-10.104688 165.619219)scale(0.1 -0.1)">
       <use xlink:href="#DejaVuSans-2212"/>
       <use xlink:href="#DejaVuSans-31" x="83.789062"/>
       <use xlink:href="#DejaVuSans-30" x="147.412109"/>
      </g>
     </g>
    </g>
    <g id="ytick_3">
     <g id="line2d_6">
      <g>
       <use xlink:href="#md312707060" x="18" y="134.64" style="stroke: #000000; stroke-width: 0.8"/>
      </g>
     </g>
     <g id="text_6">
      <!-- 5 -->
      <g transform="translate(-3.742188 138.439219)scale(0.1 -0.1)">
       <use xlink:href="#DejaVuSans-2212"/>
       <use xlink:href="#DejaVuSans-35" x="83.789062"/>
      </g>
     </g>
    </g>
    <g id="ytick_4">
     <g id="line2d_7">
      <g>
       <use xlink:href="#md312707060" x="18" y="107.46" style="stroke: #000000; stroke-width: 0.8"/>
      </g>
     </g>
     <g id="text_7">
      <!-- 0 -->
      <g transform="translate(4.6375 111.259219)scale(0.1 -0.1)">
       <use xlink:href="#DejaVuSans-30"/>
      </g>
     </g>
    </g>
    <g id="ytick_5">
     <g id="line2d_8">
      <g>
       <use xlink:href="#md312707060" x="18" y="80.28" style="stroke: #000000; stroke-width: 0.8"/>
      </g>
     </g>
     <g id="text_8">
      <!-- 5 -->
      <g transform="translate(4.6375 84.079219)scale(0.1 -0.1)">
       <use xlink:href="#DejaVuSans-35"/>
      </g>
     </g>
    </g>
    <g id="ytick_6">
     <g id="line2d_9">
      <g>
       <use xlink:href="#md312707060" x="18" y="53.1" style="stroke: #000000; stroke-width: 0.8"/>
      </g>
     </g>
     <g id="text_9">
      <!-- 10 -->
      <g transform="translate(-1.725 56.899219)scale(0.1 -0.1)">
       <use xlink:href="#DejaVuSans-31"/>
       <use xlink:href="#DejaVuSans-30" x="63.623047"/>
      </g>
     </g>
    </g>
    <g id="ytick_7">
     <g id="line2d_10">
      <g>
       <use xlink:href="#md312707060" x="18" y="25.92" style="stroke: #000000; stroke-width: 0.8"/>
      </g>
     </g>
     <g id="text_10">
      <!-- 15 -->
      <g transform="translate(-1.725 29.719219)scale(0.1 -0.1)">
       <use xlink:href="#DejaVuSans-31"/>
       <use xlink:href="#DejaVuSans-35" x="63.623047"/>
      </g>
     </g>
    </g>
   </g>
   <g id="patch_3">
    <path d="M 18 189 
L 18 25.92 
" style="fill: none; stroke: #000000; stroke-width: 0.8; stroke-linejoin: miter; stroke-linecap: square"/>
   </g>
   <g id="patch_4">
    <path d="M 129.6 189 
L 129.6 25.92 
" style="fill: none; stroke: #000000; stroke-width: 0.8; stroke-linejoin: miter; stroke-linecap: square"/>
   </g>
   <g id="patch_5">
    <path d="M 18 189 
L 129.6 189 
" style="fill: none; stroke: #000000; stroke-width: 0.8; stroke-linejoin: miter; stroke-linecap: square"/>
   </g>
   <g id="patch_6">
    <path d="M 18 25.92 
L 129.6 25.92 
" style="fill: none; stroke: #000000; stroke-width: 0.8; stroke-linejoin: miter; stroke-linecap: square"/>
   </g>
  </g>
 </g>
 <defs>
  <clipPath id="p5586e9b31d">
   <rect x="18" y="25.92" width="111.6" height="163.08"/>
  </clipPath>
 </defs>
</svg>
