<?xml version="1.0" encoding="utf-8" standalone="no"?>
<!DOCTYPE svg PUBLIC "-//W3C//DTD SVG 1.1//EN"
  "http://www.w3.org/Graphics/SVG/1.1/DTD/svg11.dtd">
<svg xmlns:xlink="http://www.w3.org/1999/xlink" width="144pt" height="216pt" viewBox="0 0 144 216" xmlns="http://www.w3.org/2000/svg" version="1.1">
 <metadata>
  <rdf:RDF xmlns:dc="http://purl.org/dc/elements/1.1/" xmlns:cc="http://creativecommons.org/ns#" xmlns:rdf="http://www.w3.org/1999/02/22-rdf-syntax-ns#">
   <cc:Work>
    <dc:type rdf:resource="http://purl.org/dc/dcmitype/StillImage"/>
    <dc:date>2022-06-22T17:53:03.960886</dc:date>
    <dc:format>image/svg+xml</dc:format>
    <dc:creator>
     <cc:Agent>
      <dc:title>Matplotlib v3.5.1, https://matplotlib.org/</dc:title>
     </cc:Agent>
    </dc:creator>
   </cc:Work>
  </rdf:RDF>
 </metadata>
 <defs>
  <style type="text/css">*{stroke-linejoin: round; stroke-linecap: butt}</style>
 </defs>
 <g id="figure_1">
  <g id="patch_1">
   <path d="M 0 216 
L 144 216 
L 144 0 
L 0 0 
L 0 216 
z
" style="fill: none"/>
  </g>
  <g id="axes_1">
   <g id="patch_2">
    <path d="M 18 189 
L 129.6 189 
L 129.6 25.92 
L 18 25.92 
z
" style="fill: #ffffff"/>
   </g>
   <g id="PathCollection_1">
    <defs>
     <path id="maff3076de0" d="M 0 2.738613 
C 0.726289 2.738613 1.422928 2.450055 1.936492 1.936492 
C 2.450055 1.422928 2.738613 0.726289 2.738613 0 
C 2.738613 -0.726289 2.450055 -1.422928 1.936492 -1.936492 
C 1.422928 -2.450055 0.726289 -2.738613 0 -2.738613 
C -0.726289 -2.738613 -1.422928 -2.450055 -1.936492 -1.936492 
C -2.450055 -1.422928 -2.738613 -0.726289 -2.738613 0 
C -2.738613 0.726289 -2.450055 1.422928 -1.936492 1.936492 
C -1.422928 2.450055 -0.726289 2.738613 0 2.738613 
z
" style="stroke: #ff0000; stroke-width: 1.75"/>
    </defs>
    <g clip-path="url(#p157872baba)">
     <use xlink:href="#maff3076de0" x="80.775" y="83.92143" style="fill: #ff0000; stroke: #ff0000; stroke-width: 1.75"/>
     <use xlink:href="#maff3076de0" x="59.85" y="95.690715" style="fill: #ff0000; stroke: #ff0000; stroke-width: 1.75"/>
     <use xlink:href="#maff3076de0" x="66.825" y="107.46" style="fill: #ff0000; stroke: #ff0000; stroke-width: 1.75"/>
     <use xlink:href="#maff3076de0" x="80.775" y="107.46" style="fill: #ff0000; stroke: #ff0000; stroke-width: 1.75"/>
     <use xlink:href="#maff3076de0" x="94.725" y="107.46" style="fill: #ff0000; stroke: #ff0000; stroke-width: 1.75"/>
     <use xlink:href="#maff3076de0" x="59.85" y="119.229285" style="fill: #ff0000; stroke: #ff0000; stroke-width: 1.75"/>
     <use xlink:href="#maff3076de0" x="80.775" y="130.99857" style="fill: #ff0000; stroke: #ff0000; stroke-width: 1.75"/>
    </g>
   </g>
   <g id="PathCollection_2">
    <defs>
     <path id="C0_0_222ee397ee" d="M 0 2.738613 
C 0.726289 2.738613 1.422928 2.450055 1.936492 1.936492 
C 2.450055 1.422928 2.738613 0.726289 2.738613 -0 
C 2.738613 -0.726289 2.450055 -1.422928 1.936492 -1.936492 
C 1.422928 -2.450055 0.726289 -2.738613 0 -2.738613 
C -0.726289 -2.738613 -1.422928 -2.450055 -1.936492 -1.936492 
C -2.450055 -1.422928 -2.738613 -0.726289 -2.738613 0 
C -2.738613 0.726289 -2.450055 1.422928 -1.936492 1.936492 
C -1.422928 2.450055 -0.726289 2.738613 0 2.738613 
z
"/>
    </defs>
    <g clip-path="url(#p157872baba)">
     <use xlink:href="#C0_0_222ee397ee" x="66.825" y="83.92143" style="fill: none; stroke: #ff0000; stroke-width: 1.75"/>
    </g>
    <g clip-path="url(#p157872baba)">
     <use xlink:href="#C0_0_222ee397ee" x="73.8" y="95.690715" style="fill: none; stroke: #ff0000; stroke-width: 1.75"/>
    </g>
    <g clip-path="url(#p157872baba)">
     <use xlink:href="#C0_0_222ee397ee" x="87.75" y="95.690715" style="fill: none; stroke: #ff0000; stroke-width: 1.75"/>
    </g>
    <g clip-path="url(#p157872baba)">
     <use xlink:href="#C0_0_222ee397ee" x="52.875" y="107.46" style="fill: none; stroke: #ff0000; stroke-width: 1.75"/>
    </g>
    <g clip-path="url(#p157872baba)">
     <use xlink:href="#C0_0_222ee397ee" x="73.8" y="119.229285" style="fill: none; stroke: #ff0000; stroke-width: 1.75"/>
    </g>
    <g clip-path="url(#p157872baba)">
     <use xlink:href="#C0_0_222ee397ee" x="87.75" y="119.229285" style="fill: none; stroke: #ff0000; stroke-width: 1.75"/>
    </g>
    <g clip-path="url(#p157872baba)">
     <use xlink:href="#C0_0_222ee397ee" x="66.825" y="130.99857" style="fill: none; stroke: #ff0000; stroke-width: 1.75"/>
    </g>
   </g>
   <g id="PathCollection_3">
    <path d="M 105.748551 67.854843 
C 106.167873 67.854843 106.570078 67.688244 106.866585 67.391738 
C 107.163091 67.095232 107.329689 66.693027 107.329689 66.273704 
C 107.329689 65.854381 107.163091 65.452176 106.866585 65.15567 
C 106.570078 64.859164 106.167873 64.692565 105.748551 64.692565 
C 105.329228 64.692565 104.927023 64.859164 104.630517 65.15567 
C 104.33401 65.452176 104.167412 65.854381 104.167412 66.273704 
C 104.167412 66.693027 104.33401 67.095232 104.630517 67.391738 
C 104.927023 67.688244 105.329228 67.854843 105.748551 67.854843 
z
" clip-path="url(#p157872baba)" style="stroke: #000000"/>
    <path d="M 115.225887 122.334877 
C 115.645472 122.334877 116.047928 122.168174 116.34462 121.871483 
C 116.641311 121.574792 116.808014 121.172336 116.808014 120.752751 
C 116.808014 120.333166 116.641311 119.93071 116.34462 119.634019 
C 116.047928 119.337328 115.645472 119.170625 115.225887 119.170625 
C 114.806303 119.170625 114.403847 119.337328 114.107155 119.634019 
C 113.810464 119.93071 113.643761 120.333166 113.643761 120.752751 
C 113.643761 121.172336 113.810464 121.574792 114.107155 121.871483 
C 114.403847 122.168174 114.806303 122.334877 115.225887 122.334877 
z
" clip-path="url(#p157872baba)" style="stroke: #000000"/>
    <path d="M 112.948008 107.147887 
C 112.948008 107.147887 112.948008 107.147887 112.948008 107.147887 
C 112.948008 107.147887 112.948008 107.147887 112.948008 107.147887 
C 112.948008 107.147887 112.948008 107.147887 112.948008 107.147887 
C 112.948008 107.147887 112.948008 107.147887 112.948008 107.147887 
C 112.948008 107.147887 112.948008 107.147887 112.948008 107.147887 
C 112.948008 107.147887 112.948008 107.147887 112.948008 107.147887 
C 112.948008 107.147887 112.948008 107.147887 112.948008 107.147887 
C 112.948008 107.147887 112.948008 107.147887 112.948008 107.147887 
z
" clip-path="url(#p157872baba)" style="stroke: #000000"/>
    <path d="M 109.917547 103.250681 
C 110.296566 103.250681 110.660113 103.100095 110.92812 102.832088 
C 111.196127 102.564081 111.346713 102.200534 111.346713 101.821514 
C 111.346713 101.442495 111.196127 101.078948 110.92812 100.810941 
C 110.660113 100.542934 110.296566 100.392348 109.917547 100.392348 
C 109.538527 100.392348 109.174981 100.542934 108.906973 100.810941 
C 108.638966 101.078948 108.48838 101.442495 108.48838 101.821514 
C 108.48838 102.200534 108.638966 102.564081 108.906973 102.832088 
C 109.174981 103.100095 109.538527 103.250681 109.917547 103.250681 
z
" clip-path="url(#p157872baba)" style="stroke: #000000"/>
    <path d="M 104.144147 90.332407 
C 104.563731 90.332407 104.966188 90.165704 105.262879 89.869013 
C 105.55957 89.572322 105.726273 89.169866 105.726273 88.750281 
C 105.726273 88.330696 105.55957 87.92824 105.262879 87.631549 
C 104.966188 87.334858 104.563731 87.168155 104.144147 87.168155 
C 103.724562 87.168155 103.322106 87.334858 103.025415 87.631549 
C 102.728723 87.92824 102.562021 88.330696 102.562021 88.750281 
C 102.562021 89.169866 102.728723 89.572322 103.025415 89.869013 
C 103.322106 90.165704 103.724562 90.332407 104.144147 90.332407 
z
" clip-path="url(#p157872baba)" style="stroke: #000000"/>
    <path d="M 106.694954 81.182604 
C 107.073618 81.182604 107.436823 81.032159 107.704579 80.764403 
C 107.972335 80.496647 108.12278 80.133442 108.12278 79.754778 
C 108.12278 79.376114 107.972335 79.012908 107.704579 78.745152 
C 107.436823 78.477396 107.073618 78.326951 106.694954 78.326951 
C 106.31629 78.326951 105.953084 78.477396 105.685328 78.745152 
C 105.417572 79.012908 105.267127 79.376114 105.267127 79.754778 
C 105.267127 80.133442 105.417572 80.496647 105.685328 80.764403 
C 105.953084 81.032159 106.31629 81.182604 106.694954 81.182604 
z
" clip-path="url(#p157872baba)" style="stroke: #000000"/>
    <path d="M 98.500953 68.216682 
C 98.500953 68.216682 98.500953 68.216682 98.500953 68.216682 
C 98.500953 68.216682 98.500953 68.216682 98.500953 68.216682 
C 98.500953 68.216682 98.500953 68.216682 98.500953 68.216682 
C 98.500953 68.216682 98.500953 68.216682 98.500953 68.216682 
C 98.500953 68.216682 98.500953 68.216682 98.500953 68.216682 
C 98.500953 68.216682 98.500953 68.216682 98.500953 68.216682 
C 98.500953 68.216682 98.500953 68.216682 98.500953 68.216682 
C 98.500953 68.216682 98.500953 68.216682 98.500953 68.216682 
z
" clip-path="url(#p157872baba)" style="stroke: #000000"/>
    <path d="M 100.605241 62.449915 
C 101.024826 62.449915 101.427282 62.283212 101.723973 61.986521 
C 102.020665 61.68983 102.187367 61.287374 102.187367 60.867789 
C 102.187367 60.448204 102.020665 60.045748 101.723973 59.749057 
C 101.427282 59.452366 101.024826 59.285663 100.605241 59.285663 
C 100.185657 59.285663 99.7832 59.452366 99.486509 59.749057 
C 99.189818 60.045748 99.023115 60.448204 99.023115 60.867789 
C 99.023115 61.287374 99.189818 61.68983 99.486509 61.986521 
C 99.7832 62.283212 100.185657 62.449915 100.605241 62.449915 
z
" clip-path="url(#p157872baba)" style="stroke: #000000"/>
    <path d="M 91.612162 48.151412 
C 92.031485 48.151412 92.43369 47.984813 92.730196 47.688307 
C 93.026702 47.391801 93.193301 46.989596 93.193301 46.570273 
C 93.193301 46.15095 93.026702 45.748745 92.730196 45.452239 
C 92.43369 45.155733 92.031485 44.989134 91.612162 44.989134 
C 91.192839 44.989134 90.790634 45.155733 90.494128 45.452239 
C 90.197622 45.748745 90.031023 46.15095 90.031023 46.570273 
C 90.031023 46.989596 90.197622 47.391801 90.494128 47.688307 
C 90.790634 47.984813 91.192839 48.151412 91.612162 48.151412 
z
" clip-path="url(#p157872baba)" style="stroke: #000000"/>
    <path d="M 87.057869 41.283056 
C 87.477191 41.283056 87.879396 41.116457 88.175903 40.819951 
C 88.472409 40.523445 88.639007 40.12124 88.639007 39.701917 
C 88.639007 39.282594 88.472409 38.880389 88.175903 38.583883 
C 87.879396 38.287377 87.477191 38.120779 87.057869 38.120779 
C 86.638546 38.120779 86.236341 38.287377 85.939835 38.583883 
C 85.643328 38.880389 85.47673 39.282594 85.47673 39.701917 
C 85.47673 40.12124 85.643328 40.523445 85.939835 40.819951 
C 86.236341 41.116457 86.638546 41.283056 87.057869 41.283056 
z
" clip-path="url(#p157872baba)" style="stroke: #000000"/>
    <path d="M 122.77169 162.876291 
C 123.191275 162.876291 123.593731 162.709588 123.890422 162.412897 
C 124.187113 162.116206 124.353816 161.71375 124.353816 161.294165 
C 124.353816 160.87458 124.187113 160.472124 123.890422 160.175433 
C 123.593731 159.878741 123.191275 159.712039 122.77169 159.712039 
C 122.352105 159.712039 121.949649 159.878741 121.652958 160.175433 
C 121.356267 160.472124 121.189564 160.87458 121.189564 161.294165 
C 121.189564 161.71375 121.356267 162.116206 121.652958 162.412897 
C 121.949649 162.709588 122.352105 162.876291 122.77169 162.876291 
z
" clip-path="url(#p157872baba)" style="stroke: #000000"/>
    <path d="M 116.118154 156.123795 
C 116.537477 156.123795 116.939682 155.957196 117.236188 155.66069 
C 117.532694 155.364184 117.699293 154.961979 117.699293 154.542656 
C 117.699293 154.123333 117.532694 153.721128 117.236188 153.424622 
C 116.939682 153.128116 116.537477 152.961518 116.118154 152.961518 
C 115.698831 152.961518 115.296626 153.128116 115.00012 153.424622 
C 114.703614 153.721128 114.537015 154.123333 114.537015 154.542656 
C 114.537015 154.961979 114.703614 155.364184 115.00012 155.66069 
C 115.296626 155.957196 115.698831 156.123795 116.118154 156.123795 
z
" clip-path="url(#p157872baba)" style="stroke: #000000"/>
    <path d="M 113.691732 147.009325 
C 114.111055 147.009325 114.51326 146.842726 114.809766 146.54622 
C 115.106272 146.249714 115.272871 145.847509 115.272871 145.428186 
C 115.272871 145.008863 115.106272 144.606658 114.809766 144.310152 
C 114.51326 144.013646 114.111055 143.847047 113.691732 143.847047 
C 113.272409 143.847047 112.870204 144.013646 112.573698 144.310152 
C 112.277192 144.606658 112.110593 145.008863 112.110593 145.428186 
C 112.110593 145.847509 112.277192 146.249714 112.573698 146.54622 
C 112.870204 146.842726 113.272409 147.009325 113.691732 147.009325 
z
" clip-path="url(#p157872baba)" style="stroke: #000000"/>
    <path d="M 107.551187 132.964164 
C 107.970772 132.964164 108.373228 132.797462 108.669919 132.50077 
C 108.966611 132.204079 109.133314 131.801623 109.133314 131.382038 
C 109.133314 130.962453 108.966611 130.559997 108.669919 130.263306 
C 108.373228 129.966615 107.970772 129.799912 107.551187 129.799912 
C 107.131603 129.799912 106.729147 129.966615 106.432455 130.263306 
C 106.135764 130.559997 105.969061 130.962453 105.969061 131.382038 
C 105.969061 131.801623 106.135764 132.204079 106.432455 132.50077 
C 106.729147 132.797462 107.131603 132.964164 107.551187 132.964164 
z
" clip-path="url(#p157872baba)" style="stroke: #000000"/>
    <path d="M 109.30403 123.647775 
C 109.723615 123.647775 110.126071 123.481072 110.422762 123.184381 
C 110.719453 122.88769 110.886156 122.485234 110.886156 122.065649 
C 110.886156 121.646064 110.719453 121.243608 110.422762 120.946917 
C 110.126071 120.650226 109.723615 120.483523 109.30403 120.483523 
C 108.884445 120.483523 108.481989 120.650226 108.185298 120.946917 
C 107.888607 121.243608 107.721904 121.646064 107.721904 122.065649 
C 107.721904 122.485234 107.888607 122.88769 108.185298 123.184381 
C 108.481989 123.481072 108.884445 123.647775 109.30403 123.647775 
z
" clip-path="url(#p157872baba)" style="stroke: #000000"/>
    <path d="M 100.132172 113.318426 
C 100.551756 113.318426 100.954212 113.151723 101.250904 112.855032 
C 101.547595 112.558341 101.714298 112.155884 101.714298 111.7363 
C 101.714298 111.316715 101.547595 110.914259 101.250904 110.617568 
C 100.954212 110.320876 100.551756 110.154174 100.132172 110.154174 
C 99.712587 110.154174 99.310131 110.320876 99.013439 110.617568 
C 98.716748 110.914259 98.550045 111.316715 98.550045 111.7363 
C 98.550045 112.155884 98.716748 112.558341 99.013439 112.855032 
C 99.310131 113.151723 99.712587 113.318426 100.132172 113.318426 
z
" clip-path="url(#p157872baba)" style="stroke: #000000"/>
    <path d="M 100.992728 107.895433 
C 101.412313 107.895433 101.814769 107.72873 102.11146 107.432039 
C 102.408152 107.135348 102.574854 106.732891 102.574854 106.313307 
C 102.574854 105.893722 102.408152 105.491266 102.11146 105.194575 
C 101.814769 104.897883 101.412313 104.731181 100.992728 104.731181 
C 100.573144 104.731181 100.170687 104.897883 99.873996 105.194575 
C 99.577305 105.491266 99.410602 105.893722 99.410602 106.313307 
C 99.410602 106.732891 99.577305 107.135348 99.873996 107.432039 
C 100.170687 107.72873 100.573144 107.895433 100.992728 107.895433 
z
" clip-path="url(#p157872baba)" style="stroke: #000000"/>
    <path d="M 92.010063 90.766423 
C 92.292218 90.766423 92.562854 90.654322 92.762368 90.454808 
C 92.961881 90.255295 93.073982 89.984659 93.073982 89.702504 
C 93.073982 89.42035 92.961881 89.149713 92.762368 88.9502 
C 92.562854 88.750687 92.292218 88.638585 92.010063 88.638585 
C 91.727909 88.638585 91.457273 88.750687 91.257759 88.9502 
C 91.058246 89.149713 90.946145 89.42035 90.946145 89.702504 
C 90.946145 89.984659 91.058246 90.255295 91.257759 90.454808 
C 91.457273 90.654322 91.727909 90.766423 92.010063 90.766423 
z
" clip-path="url(#p157872baba)" style="stroke: #000000"/>
    <path d="M 89.97291 86.187793 
C 90.199324 86.187793 90.416495 86.097838 90.576594 85.937739 
C 90.736693 85.77764 90.826648 85.560469 90.826648 85.334055 
C 90.826648 85.107641 90.736693 84.890469 90.576594 84.730371 
C 90.416495 84.570272 90.199324 84.480316 89.97291 84.480316 
C 89.746496 84.480316 89.529325 84.570272 89.369226 84.730371 
C 89.209127 84.890469 89.119172 85.107641 89.119172 85.334055 
C 89.119172 85.560469 89.209127 85.77764 89.369226 85.937739 
C 89.529325 86.097838 89.746496 86.187793 89.97291 86.187793 
z
" clip-path="url(#p157872baba)" style="stroke: #000000"/>
    <path d="M 87.49593 77.000801 
C 87.877757 77.000801 88.243997 76.849099 88.513989 76.579107 
C 88.783982 76.309114 88.935683 75.942874 88.935683 75.561047 
C 88.935683 75.17922 88.783982 74.81298 88.513989 74.542987 
C 88.243997 74.272995 87.877757 74.121293 87.49593 74.121293 
C 87.114102 74.121293 86.747863 74.272995 86.47787 74.542987 
C 86.207877 74.81298 86.056176 75.17922 86.056176 75.561047 
C 86.056176 75.942874 86.207877 76.309114 86.47787 76.579107 
C 86.747863 76.849099 87.114102 77.000801 87.49593 77.000801 
z
" clip-path="url(#p157872baba)" style="stroke: #000000"/>
    <path d="M 86.605909 64.111319 
C 86.605909 64.111319 86.605909 64.111319 86.605909 64.111319 
C 86.605909 64.111319 86.605909 64.111319 86.605909 64.111319 
C 86.605909 64.111319 86.605909 64.111319 86.605909 64.111319 
C 86.605909 64.111319 86.605909 64.111319 86.605909 64.111319 
C 86.605909 64.111319 86.605909 64.111319 86.605909 64.111319 
C 86.605909 64.111319 86.605909 64.111319 86.605909 64.111319 
C 86.605909 64.111319 86.605909 64.111319 86.605909 64.111319 
C 86.605909 64.111319 86.605909 64.111319 86.605909 64.111319 
z
" clip-path="url(#p157872baba)" style="stroke: #000000"/>
    <path d="M 82.940782 52.448074 
C 83.360366 52.448074 83.762822 52.281371 84.059514 51.98468 
C 84.356205 51.687989 84.522908 51.285533 84.522908 50.865948 
C 84.522908 50.446363 84.356205 50.043907 84.059514 49.747216 
C 83.762822 49.450525 83.360366 49.283822 82.940782 49.283822 
C 82.521197 49.283822 82.118741 49.450525 81.822049 49.747216 
C 81.525358 50.043907 81.358655 50.446363 81.358655 50.865948 
C 81.358655 51.285533 81.525358 51.687989 81.822049 51.98468 
C 82.118741 52.281371 82.521197 52.448074 82.940782 52.448074 
z
" clip-path="url(#p157872baba)" style="stroke: #000000"/>
    <path d="M 79.030844 41.947759 
C 79.030844 41.947759 79.030844 41.947759 79.030844 41.947759 
C 79.030844 41.947759 79.030844 41.947759 79.030844 41.947759 
C 79.030844 41.947759 79.030844 41.947759 79.030844 41.947759 
C 79.030844 41.947759 79.030844 41.947759 79.030844 41.947759 
C 79.030844 41.947759 79.030844 41.947759 79.030844 41.947759 
C 79.030844 41.947759 79.030844 41.947759 79.030844 41.947759 
C 79.030844 41.947759 79.030844 41.947759 79.030844 41.947759 
C 79.030844 41.947759 79.030844 41.947759 79.030844 41.947759 
z
" clip-path="url(#p157872baba)" style="stroke: #000000"/>
    <path d="M 78.531524 32.373404 
C 78.531524 32.373404 78.531524 32.373404 78.531524 32.373404 
C 78.531524 32.373404 78.531524 32.373404 78.531524 32.373404 
C 78.531524 32.373404 78.531524 32.373404 78.531524 32.373404 
C 78.531524 32.373404 78.531524 32.373404 78.531524 32.373404 
C 78.531524 32.373404 78.531524 32.373404 78.531524 32.373404 
C 78.531524 32.373404 78.531524 32.373404 78.531524 32.373404 
C 78.531524 32.373404 78.531524 32.373404 78.531524 32.373404 
C 78.531524 32.373404 78.531524 32.373404 78.531524 32.373404 
z
" clip-path="url(#p157872baba)" style="stroke: #000000"/>
    <path d="M 116.269402 178.10832 
C 116.688987 178.10832 117.091443 177.941617 117.388134 177.644926 
C 117.684825 177.348234 117.851528 176.945778 117.851528 176.526194 
C 117.851528 176.106609 117.684825 175.704153 117.388134 175.407461 
C 117.091443 175.11077 116.688987 174.944067 116.269402 174.944067 
C 115.849817 174.944067 115.447361 175.11077 115.15067 175.407461 
C 114.853979 175.704153 114.687276 176.106609 114.687276 176.526194 
C 114.687276 176.945778 114.853979 177.348234 115.15067 177.644926 
C 115.447361 177.941617 115.849817 178.10832 116.269402 178.10832 
z
" clip-path="url(#p157872baba)" style="stroke: #000000"/>
    <path d="M 106.705302 166.087108 
C 106.705302 166.087108 106.705302 166.087108 106.705302 166.087108 
C 106.705302 166.087108 106.705302 166.087108 106.705302 166.087108 
C 106.705302 166.087108 106.705302 166.087108 106.705302 166.087108 
C 106.705302 166.087108 106.705302 166.087108 106.705302 166.087108 
C 106.705302 166.087108 106.705302 166.087108 106.705302 166.087108 
C 106.705302 166.087108 106.705302 166.087108 106.705302 166.087108 
C 106.705302 166.087108 106.705302 166.087108 106.705302 166.087108 
C 106.705302 166.087108 106.705302 166.087108 106.705302 166.087108 
z
" clip-path="url(#p157872baba)" style="stroke: #000000"/>
    <path d="M 105.802374 158.551366 
C 105.983744 158.551366 106.15771 158.479306 106.285958 158.351058 
C 106.414206 158.22281 106.486265 158.048844 106.486265 157.867474 
C 106.486265 157.686104 106.414206 157.512138 106.285958 157.38389 
C 106.15771 157.255642 105.983744 157.183583 105.802374 157.183583 
C 105.621004 157.183583 105.447038 157.255642 105.31879 157.38389 
C 105.190542 157.512138 105.118483 157.686104 105.118483 157.867474 
C 105.118483 158.048844 105.190542 158.22281 105.31879 158.351058 
C 105.447038 158.479306 105.621004 158.551366 105.802374 158.551366 
z
" clip-path="url(#p157872baba)" style="stroke: #000000"/>
    <path d="M 100.253541 144.680678 
C 100.253541 144.680678 100.253541 144.680678 100.253541 144.680678 
C 100.253541 144.680678 100.253541 144.680678 100.253541 144.680678 
C 100.253541 144.680678 100.253541 144.680678 100.253541 144.680678 
C 100.253541 144.680678 100.253541 144.680678 100.253541 144.680678 
C 100.253541 144.680678 100.253541 144.680678 100.253541 144.680678 
C 100.253541 144.680678 100.253541 144.680678 100.253541 144.680678 
C 100.253541 144.680678 100.253541 144.680678 100.253541 144.680678 
C 100.253541 144.680678 100.253541 144.680678 100.253541 144.680678 
z
" clip-path="url(#p157872baba)" style="stroke: #000000"/>
    <path d="M 96.899166 136.712123 
C 97.278185 136.712123 97.641732 136.561537 97.909739 136.29353 
C 98.177746 136.025522 98.328332 135.661976 98.328332 135.282956 
C 98.328332 134.903937 98.177746 134.54039 97.909739 134.272383 
C 97.641732 134.004376 97.278185 133.85379 96.899166 133.85379 
C 96.520147 133.85379 96.1566 134.004376 95.888593 134.272383 
C 95.620586 134.54039 95.47 134.903937 95.47 135.282956 
C 95.47 135.661976 95.620586 136.025522 95.888593 136.29353 
C 96.1566 136.561537 96.520147 136.712123 96.899166 136.712123 
z
" clip-path="url(#p157872baba)" style="stroke: #000000"/>
    <path d="M 92.237653 131.250759 
C 92.657238 131.250759 93.059694 131.084056 93.356385 130.787365 
C 93.653077 130.490674 93.819779 130.088218 93.819779 129.668633 
C 93.819779 129.249048 93.653077 128.846592 93.356385 128.549901 
C 93.059694 128.253209 92.657238 128.086507 92.237653 128.086507 
C 91.818069 128.086507 91.415612 128.253209 91.118921 128.549901 
C 90.82223 128.846592 90.655527 129.249048 90.655527 129.668633 
C 90.655527 130.088218 90.82223 130.490674 91.118921 130.787365 
C 91.415612 131.084056 91.818069 131.250759 92.237653 131.250759 
z
" clip-path="url(#p157872baba)" style="stroke: #000000"/>
    <path d="M 93.180303 115.204207 
C 93.599888 115.204207 94.002344 115.037504 94.299035 114.740813 
C 94.595726 114.444122 94.762429 114.041666 94.762429 113.622081 
C 94.762429 113.202496 94.595726 112.80004 94.299035 112.503349 
C 94.002344 112.206658 93.599888 112.039955 93.180303 112.039955 
C 92.760718 112.039955 92.358262 112.206658 92.061571 112.503349 
C 91.76488 112.80004 91.598177 113.202496 91.598177 113.622081 
C 91.598177 114.041666 91.76488 114.444122 92.061571 114.740813 
C 92.358262 115.037504 92.760718 115.204207 93.180303 115.204207 
z
" clip-path="url(#p157872baba)" style="stroke: #000000"/>
    <path d="M 90.710241 106.318553 
C 91.129564 106.318553 91.531769 106.151955 91.828275 105.855448 
C 92.124781 105.558942 92.29138 105.156737 92.29138 104.737414 
C 92.29138 104.318092 92.124781 103.915887 91.828275 103.61938 
C 91.531769 103.322874 91.129564 103.156276 90.710241 103.156276 
C 90.290918 103.156276 89.888713 103.322874 89.592207 103.61938 
C 89.295701 103.915887 89.129102 104.318092 89.129102 104.737414 
C 89.129102 105.156737 89.295701 105.558942 89.592207 105.855448 
C 89.888713 106.151955 90.290918 106.318553 90.710241 106.318553 
z
" clip-path="url(#p157872baba)" style="stroke: #000000"/>
    <path d="M 83.103835 93.592343 
C 83.467783 93.592343 83.816875 93.447744 84.074225 93.190394 
C 84.331576 92.933043 84.476174 92.583952 84.476174 92.220003 
C 84.476174 91.856055 84.331576 91.506964 84.074225 91.249613 
C 83.816875 90.992262 83.467783 90.847664 83.103835 90.847664 
C 82.739886 90.847664 82.390795 90.992262 82.133445 91.249613 
C 81.876094 91.506964 81.731496 91.856055 81.731496 92.220003 
C 81.731496 92.583952 81.876094 92.933043 82.133445 93.190394 
C 82.390795 93.447744 82.739886 93.592343 83.103835 93.592343 
z
" clip-path="url(#p157872baba)" style="stroke: #000000"/>
    <path d="M 84.359973 86.876027 
C 84.779558 86.876027 85.182014 86.709325 85.478705 86.412633 
C 85.775396 86.115942 85.942099 85.713486 85.942099 85.293901 
C 85.942099 84.874316 85.775396 84.47186 85.478705 84.175169 
C 85.182014 83.878478 84.779558 83.711775 84.359973 83.711775 
C 83.940388 83.711775 83.537932 83.878478 83.241241 84.175169 
C 82.94455 84.47186 82.777847 84.874316 82.777847 85.293901 
C 82.777847 85.713486 82.94455 86.115942 83.241241 86.412633 
C 83.537932 86.709325 83.940388 86.876027 84.359973 86.876027 
z
" clip-path="url(#p157872baba)" style="stroke: #000000"/>
    <path d="M 81.901316 76.332188 
C 82.298813 76.332188 82.680084 76.174261 82.961157 75.893188 
C 83.24223 75.612115 83.400157 75.230844 83.400157 74.833347 
C 83.400157 74.43585 83.24223 74.054579 82.961157 73.773506 
C 82.680084 73.492433 82.298813 73.334506 81.901316 73.334506 
C 81.503819 73.334506 81.122548 73.492433 80.841475 73.773506 
C 80.560402 74.054579 80.402475 74.43585 80.402475 74.833347 
C 80.402475 75.230844 80.560402 75.612115 80.841475 75.893188 
C 81.122548 76.174261 81.503819 76.332188 81.901316 76.332188 
z
" clip-path="url(#p157872baba)" style="stroke: #000000"/>
    <path d="M 73.459399 65.074002 
C 73.459399 65.074002 73.459399 65.074002 73.459399 65.074002 
C 73.459399 65.074002 73.459399 65.074002 73.459399 65.074002 
C 73.459399 65.074002 73.459399 65.074002 73.459399 65.074002 
C 73.459399 65.074002 73.459399 65.074002 73.459399 65.074002 
C 73.459399 65.074002 73.459399 65.074002 73.459399 65.074002 
C 73.459399 65.074002 73.459399 65.074002 73.459399 65.074002 
C 73.459399 65.074002 73.459399 65.074002 73.459399 65.074002 
C 73.459399 65.074002 73.459399 65.074002 73.459399 65.074002 
z
" clip-path="url(#p157872baba)" style="stroke: #000000"/>
    <path d="M 72.068999 55.665843 
C 72.068999 55.665843 72.068999 55.665843 72.068999 55.665843 
C 72.068999 55.665843 72.068999 55.665843 72.068999 55.665843 
C 72.068999 55.665843 72.068999 55.665843 72.068999 55.665843 
C 72.068999 55.665843 72.068999 55.665843 72.068999 55.665843 
C 72.068999 55.665843 72.068999 55.665843 72.068999 55.665843 
C 72.068999 55.665843 72.068999 55.665843 72.068999 55.665843 
C 72.068999 55.665843 72.068999 55.665843 72.068999 55.665843 
C 72.068999 55.665843 72.068999 55.665843 72.068999 55.665843 
z
" clip-path="url(#p157872baba)" style="stroke: #000000"/>
    <path d="M 69.175841 48.350782 
C 69.595164 48.350782 69.997369 48.184183 70.293875 47.887677 
C 70.590381 47.591171 70.75698 47.188966 70.75698 46.769643 
C 70.75698 46.35032 70.590381 45.948115 70.293875 45.651609 
C 69.997369 45.355103 69.595164 45.188504 69.175841 45.188504 
C 68.756518 45.188504 68.354313 45.355103 68.057807 45.651609 
C 67.761301 45.948115 67.594702 46.35032 67.594702 46.769643 
C 67.594702 47.188966 67.761301 47.591171 68.057807 47.887677 
C 68.354313 48.184183 68.756518 48.350782 69.175841 48.350782 
z
" clip-path="url(#p157872baba)" style="stroke: #000000"/>
    <path d="M 62.497724 36.293674 
C 62.917047 36.293674 63.319251 36.127075 63.615758 35.830569 
C 63.912264 35.534063 64.078862 35.131858 64.078862 34.712535 
C 64.078862 34.293212 63.912264 33.891007 63.615758 33.594501 
C 63.319251 33.297995 62.917047 33.131396 62.497724 33.131396 
C 62.078401 33.131396 61.676196 33.297995 61.37969 33.594501 
C 61.083184 33.891007 60.916585 34.293212 60.916585 34.712535 
C 60.916585 35.131858 61.083184 35.534063 61.37969 35.830569 
C 61.676196 36.127075 62.078401 36.293674 62.497724 36.293674 
z
" clip-path="url(#p157872baba)" style="stroke: #000000"/>
    <path d="M 105.424733 181.423762 
C 105.844056 181.423762 106.246261 181.257163 106.542767 180.960657 
C 106.839273 180.664151 107.005872 180.261946 107.005872 179.842623 
C 107.005872 179.4233 106.839273 179.021095 106.542767 178.724589 
C 106.246261 178.428083 105.844056 178.261484 105.424733 178.261484 
C 105.00541 178.261484 104.603205 178.428083 104.306699 178.724589 
C 104.010193 179.021095 103.843594 179.4233 103.843594 179.842623 
C 103.843594 180.261946 104.010193 180.664151 104.306699 180.960657 
C 104.603205 181.257163 105.00541 181.423762 105.424733 181.423762 
z
" clip-path="url(#p157872baba)" style="stroke: #000000"/>
    <path d="M 103.768397 174.114652 
C 104.187982 174.114652 104.590438 173.947949 104.887129 173.651258 
C 105.18382 173.354566 105.350523 172.95211 105.350523 172.532525 
C 105.350523 172.112941 105.18382 171.710485 104.887129 171.413793 
C 104.590438 171.117102 104.187982 170.950399 103.768397 170.950399 
C 103.348812 170.950399 102.946356 171.117102 102.649665 171.413793 
C 102.352974 171.710485 102.186271 172.112941 102.186271 172.532525 
C 102.186271 172.95211 102.352974 173.354566 102.649665 173.651258 
C 102.946356 173.947949 103.348812 174.114652 103.768397 174.114652 
z
" clip-path="url(#p157872baba)" style="stroke: #000000"/>
    <path d="M 95.611645 160.98405 
C 95.827331 160.98405 96.034213 160.898357 96.186726 160.745844 
C 96.33924 160.59333 96.424933 160.386449 96.424933 160.170762 
C 96.424933 159.955076 96.33924 159.748194 96.186726 159.595681 
C 96.034213 159.443167 95.827331 159.357474 95.611645 159.357474 
C 95.395958 159.357474 95.189076 159.443167 95.036563 159.595681 
C 94.884049 159.748194 94.798356 159.955076 94.798356 160.170762 
C 94.798356 160.386449 94.884049 160.59333 95.036563 160.745844 
C 95.189076 160.898357 95.395958 160.98405 95.611645 160.98405 
z
" clip-path="url(#p157872baba)" style="stroke: #000000"/>
    <path d="M 93.248545 148.14735 
C 93.248545 148.14735 93.248545 148.14735 93.248545 148.14735 
C 93.248545 148.14735 93.248545 148.14735 93.248545 148.14735 
C 93.248545 148.14735 93.248545 148.14735 93.248545 148.14735 
C 93.248545 148.14735 93.248545 148.14735 93.248545 148.14735 
C 93.248545 148.14735 93.248545 148.14735 93.248545 148.14735 
C 93.248545 148.14735 93.248545 148.14735 93.248545 148.14735 
C 93.248545 148.14735 93.248545 148.14735 93.248545 148.14735 
C 93.248545 148.14735 93.248545 148.14735 93.248545 148.14735 
z
" clip-path="url(#p157872baba)" style="stroke: #000000"/>
    <path d="M 86.893684 146.174278 
C 87.313269 146.174278 87.715725 146.007575 88.012416 145.710884 
C 88.309108 145.414193 88.47581 145.011736 88.47581 144.592152 
C 88.47581 144.172567 88.309108 143.770111 88.012416 143.47342 
C 87.715725 143.176728 87.313269 143.010026 86.893684 143.010026 
C 86.4741 143.010026 86.071643 143.176728 85.774952 143.47342 
C 85.478261 143.770111 85.311558 144.172567 85.311558 144.592152 
C 85.311558 145.011736 85.478261 145.414193 85.774952 145.710884 
C 86.071643 146.007575 86.4741 146.174278 86.893684 146.174278 
z
" clip-path="url(#p157872baba)" style="stroke: #000000"/>
    <path d="M 87.17293 128.729449 
C 87.525096 128.729449 87.862885 128.589532 88.111903 128.340514 
C 88.360922 128.091495 88.500839 127.753706 88.500839 127.40154 
C 88.500839 127.049375 88.360922 126.711586 88.111903 126.462567 
C 87.862885 126.213548 87.525096 126.073631 87.17293 126.073631 
C 86.820764 126.073631 86.482975 126.213548 86.233957 126.462567 
C 85.984938 126.711586 85.845021 127.049375 85.845021 127.40154 
C 85.845021 127.753706 85.984938 128.091495 86.233957 128.340514 
C 86.482975 128.589532 86.820764 128.729449 87.17293 128.729449 
z
" clip-path="url(#p157872baba)" style="stroke: #000000"/>
    <path d="M 82.243139 118.340457 
C 82.662723 118.340457 83.06518 118.173754 83.361871 117.877063 
C 83.658562 117.580371 83.825265 117.177915 83.825265 116.758331 
C 83.825265 116.338746 83.658562 115.93629 83.361871 115.639598 
C 83.06518 115.342907 82.662723 115.176204 82.243139 115.176204 
C 81.823554 115.176204 81.421098 115.342907 81.124407 115.639598 
C 80.827715 115.93629 80.661013 116.338746 80.661013 116.758331 
C 80.661013 117.177915 80.827715 117.580371 81.124407 117.877063 
C 81.421098 118.173754 81.823554 118.340457 82.243139 118.340457 
z
" clip-path="url(#p157872baba)" style="stroke: #000000"/>
    <path d="M 79.829227 112.165433 
C 80.24855 112.165433 80.650755 111.998834 80.947261 111.702328 
C 81.243768 111.405822 81.410366 111.003617 81.410366 110.584294 
C 81.410366 110.164971 81.243768 109.762766 80.947261 109.46626 
C 80.650755 109.169754 80.24855 109.003155 79.829227 109.003155 
C 79.409905 109.003155 79.0077 109.169754 78.711193 109.46626 
C 78.414687 109.762766 78.248089 110.164971 78.248089 110.584294 
C 78.248089 111.003617 78.414687 111.405822 78.711193 111.702328 
C 79.0077 111.998834 79.409905 112.165433 79.829227 112.165433 
z
" clip-path="url(#p157872baba)" style="stroke: #000000"/>
    <path d="M 75.498873 103.922869 
C 75.918196 103.922869 76.320401 103.75627 76.616907 103.459764 
C 76.913413 103.163258 77.080012 102.761053 77.080012 102.34173 
C 77.080012 101.922407 76.913413 101.520202 76.616907 101.223696 
C 76.320401 100.92719 75.918196 100.760591 75.498873 100.760591 
C 75.07955 100.760591 74.677345 100.92719 74.380839 101.223696 
C 74.084333 101.520202 73.917734 101.922407 73.917734 102.34173 
C 73.917734 102.761053 74.084333 103.163258 74.380839 103.459764 
C 74.677345 103.75627 75.07955 103.922869 75.498873 103.922869 
z
" clip-path="url(#p157872baba)" style="stroke: #000000"/>
    <path d="M 75.768054 88.704744 
C 76.187638 88.704744 76.590094 88.538041 76.886786 88.24135 
C 77.183477 87.944658 77.35018 87.542202 77.35018 87.122617 
C 77.35018 86.703033 77.183477 86.300577 76.886786 86.003885 
C 76.590094 85.707194 76.187638 85.540491 75.768054 85.540491 
C 75.348469 85.540491 74.946013 85.707194 74.649321 86.003885 
C 74.35263 86.300577 74.185927 86.703033 74.185927 87.122617 
C 74.185927 87.542202 74.35263 87.944658 74.649321 88.24135 
C 74.946013 88.538041 75.348469 88.704744 75.768054 88.704744 
z
" clip-path="url(#p157872baba)" style="stroke: #000000"/>
    <path d="M 72.016993 79.339549 
C 72.436578 79.339549 72.839034 79.172847 73.135725 78.876155 
C 73.432416 78.579464 73.599119 78.177008 73.599119 77.757423 
C 73.599119 77.337838 73.432416 76.935382 73.135725 76.638691 
C 72.839034 76.342 72.436578 76.175297 72.016993 76.175297 
C 71.597408 76.175297 71.194952 76.342 70.898261 76.638691 
C 70.60157 76.935382 70.434867 77.337838 70.434867 77.757423 
C 70.434867 78.177008 70.60157 78.579464 70.898261 78.876155 
C 71.194952 79.172847 71.597408 79.339549 72.016993 79.339549 
z
" clip-path="url(#p157872baba)" style="stroke: #000000"/>
    <path d="M 64.320804 71.63174 
C 64.740127 71.63174 65.142332 71.465141 65.438838 71.168635 
C 65.735344 70.872129 65.901943 70.469924 65.901943 70.050601 
C 65.901943 69.631278 65.735344 69.229073 65.438838 68.932567 
C 65.142332 68.636061 64.740127 68.469462 64.320804 68.469462 
C 63.901481 68.469462 63.499276 68.636061 63.20277 68.932567 
C 62.906264 69.229073 62.739665 69.631278 62.739665 70.050601 
C 62.739665 70.469924 62.906264 70.872129 63.20277 71.168635 
C 63.499276 71.465141 63.901481 71.63174 64.320804 71.63174 
z
" clip-path="url(#p157872baba)" style="stroke: #000000"/>
    <path d="M 56.277484 53.815373 
C 56.388988 53.815373 56.49594 53.771072 56.574785 53.692226 
C 56.653631 53.613381 56.697932 53.506429 56.697932 53.394925 
C 56.697932 53.28342 56.653631 53.176468 56.574785 53.097623 
C 56.49594 53.018777 56.388988 52.974476 56.277484 52.974476 
C 56.165979 52.974476 56.059027 53.018777 55.980182 53.097623 
C 55.901336 53.176468 55.857035 53.28342 55.857035 53.394925 
C 55.857035 53.506429 55.901336 53.613381 55.980182 53.692226 
C 56.059027 53.771072 56.165979 53.815373 56.277484 53.815373 
z
" clip-path="url(#p157872baba)" style="stroke: #000000"/>
    <path d="M 57.860072 42.799602 
C 57.860072 42.799602 57.860072 42.799602 57.860072 42.799602 
C 57.860072 42.799602 57.860072 42.799602 57.860072 42.799602 
C 57.860072 42.799602 57.860072 42.799602 57.860072 42.799602 
C 57.860072 42.799602 57.860072 42.799602 57.860072 42.799602 
C 57.860072 42.799602 57.860072 42.799602 57.860072 42.799602 
C 57.860072 42.799602 57.860072 42.799602 57.860072 42.799602 
C 57.860072 42.799602 57.860072 42.799602 57.860072 42.799602 
C 57.860072 42.799602 57.860072 42.799602 57.860072 42.799602 
z
" clip-path="url(#p157872baba)" style="stroke: #000000"/>
    <path d="M 55.004842 35.553592 
C 55.004842 35.553592 55.004842 35.553592 55.004842 35.553592 
C 55.004842 35.553592 55.004842 35.553592 55.004842 35.553592 
C 55.004842 35.553592 55.004842 35.553592 55.004842 35.553592 
C 55.004842 35.553592 55.004842 35.553592 55.004842 35.553592 
C 55.004842 35.553592 55.004842 35.553592 55.004842 35.553592 
C 55.004842 35.553592 55.004842 35.553592 55.004842 35.553592 
C 55.004842 35.553592 55.004842 35.553592 55.004842 35.553592 
C 55.004842 35.553592 55.004842 35.553592 55.004842 35.553592 
z
" clip-path="url(#p157872baba)" style="stroke: #000000"/>
    <path d="M 90.953729 176.809115 
C 90.953729 176.809115 90.953729 176.809115 90.953729 176.809115 
C 90.953729 176.809115 90.953729 176.809115 90.953729 176.809115 
C 90.953729 176.809115 90.953729 176.809115 90.953729 176.809115 
C 90.953729 176.809115 90.953729 176.809115 90.953729 176.809115 
C 90.953729 176.809115 90.953729 176.809115 90.953729 176.809115 
C 90.953729 176.809115 90.953729 176.809115 90.953729 176.809115 
C 90.953729 176.809115 90.953729 176.809115 90.953729 176.809115 
C 90.953729 176.809115 90.953729 176.809115 90.953729 176.809115 
z
" clip-path="url(#p157872baba)" style="stroke: #000000"/>
    <path d="M 85.969683 161.038194 
C 86.250101 161.038194 86.519072 160.926783 86.717357 160.728497 
C 86.915643 160.530212 87.027054 160.261241 87.027054 159.980823 
C 87.027054 159.700405 86.915643 159.431434 86.717357 159.233149 
C 86.519072 159.034863 86.250101 158.923452 85.969683 158.923452 
C 85.689265 158.923452 85.420294 159.034863 85.222008 159.233149 
C 85.023723 159.431434 84.912312 159.700405 84.912312 159.980823 
C 84.912312 160.261241 85.023723 160.530212 85.222008 160.728497 
C 85.420294 160.926783 85.689265 161.038194 85.969683 161.038194 
z
" clip-path="url(#p157872baba)" style="stroke: #000000"/>
    <path d="M 84.483392 154.361731 
C 84.902715 154.361731 85.30492 154.195132 85.601426 153.898626 
C 85.897932 153.60212 86.064531 153.199915 86.064531 152.780592 
C 86.064531 152.36127 85.897932 151.959065 85.601426 151.662558 
C 85.30492 151.366052 84.902715 151.199454 84.483392 151.199454 
C 84.064069 151.199454 83.661864 151.366052 83.365358 151.662558 
C 83.068852 151.959065 82.902253 152.36127 82.902253 152.780592 
C 82.902253 153.199915 83.068852 153.60212 83.365358 153.898626 
C 83.661864 154.195132 84.064069 154.361731 84.483392 154.361731 
z
" clip-path="url(#p157872baba)" style="stroke: #000000"/>
    <path d="M 78.737836 145.556752 
C 79.15742 145.556752 79.559876 145.390049 79.856568 145.093358 
C 80.153259 144.796667 80.319962 144.394211 80.319962 143.974626 
C 80.319962 143.555041 80.153259 143.152585 79.856568 142.855894 
C 79.559876 142.559203 79.15742 142.3925 78.737836 142.3925 
C 78.318251 142.3925 77.915795 142.559203 77.619103 142.855894 
C 77.322412 143.152585 77.155709 143.555041 77.155709 143.974626 
C 77.155709 144.394211 77.322412 144.796667 77.619103 145.093358 
C 77.915795 145.390049 78.318251 145.556752 78.737836 145.556752 
z
" clip-path="url(#p157872baba)" style="stroke: #000000"/>
    <path d="M 74.757869 133.818335 
C 75.177454 133.818335 75.57991 133.651633 75.876601 133.354941 
C 76.173292 133.05825 76.339995 132.655794 76.339995 132.236209 
C 76.339995 131.816625 76.173292 131.414168 75.876601 131.117477 
C 75.57991 130.820786 75.177454 130.654083 74.757869 130.654083 
C 74.338284 130.654083 73.935828 130.820786 73.639137 131.117477 
C 73.342446 131.414168 73.175743 131.816625 73.175743 132.236209 
C 73.175743 132.655794 73.342446 133.05825 73.639137 133.354941 
C 73.935828 133.651633 74.338284 133.818335 74.757869 133.818335 
z
" clip-path="url(#p157872baba)" style="stroke: #000000"/>
    <path d="M 70.093424 127.994128 
C 70.513009 127.994128 70.915465 127.827425 71.212156 127.530734 
C 71.508847 127.234043 71.67555 126.831586 71.67555 126.412002 
C 71.67555 125.992417 71.508847 125.589961 71.212156 125.29327 
C 70.915465 124.996578 70.513009 124.829876 70.093424 124.829876 
C 69.673839 124.829876 69.271383 124.996578 68.974692 125.29327 
C 68.678001 125.589961 68.511298 125.992417 68.511298 126.412002 
C 68.511298 126.831586 68.678001 127.234043 68.974692 127.530734 
C 69.271383 127.827425 69.673839 127.994128 70.093424 127.994128 
z
" clip-path="url(#p157872baba)" style="stroke: #000000"/>
    <path d="M 69.591929 117.418768 
C 69.987567 117.418768 70.367054 117.261579 70.646813 116.981821 
C 70.926572 116.702062 71.08376 116.322575 71.08376 115.926936 
C 71.08376 115.531298 70.926572 115.151811 70.646813 114.872052 
C 70.367054 114.592293 69.987567 114.435105 69.591929 114.435105 
C 69.19629 114.435105 68.816803 114.592293 68.537044 114.872052 
C 68.257286 115.151811 68.100097 115.531298 68.100097 115.926936 
C 68.100097 116.322575 68.257286 116.702062 68.537044 116.981821 
C 68.816803 117.261579 69.19629 117.418768 69.591929 117.418768 
z
" clip-path="url(#p157872baba)" style="stroke: #000000"/>
    <path d="M 60.594602 103.284553 
C 60.967811 103.284553 61.325785 103.136276 61.589683 102.872377 
C 61.853582 102.608478 62.001859 102.250505 62.001859 101.877296 
C 62.001859 101.504087 61.853582 101.146114 61.589683 100.882215 
C 61.325785 100.618316 60.967811 100.470039 60.594602 100.470039 
C 60.221393 100.470039 59.86342 100.618316 59.599521 100.882215 
C 59.335623 101.146114 59.187345 101.504087 59.187345 101.877296 
C 59.187345 102.250505 59.335623 102.608478 59.599521 102.872377 
C 59.86342 103.136276 60.221393 103.284553 60.594602 103.284553 
z
" clip-path="url(#p157872baba)" style="stroke: #000000"/>
    <path d="M 60.26704 91.227161 
C 60.686363 91.227161 61.088568 91.060562 61.385074 90.764056 
C 61.681581 90.46755 61.848179 90.065345 61.848179 89.646022 
C 61.848179 89.226699 61.681581 88.824494 61.385074 88.527988 
C 61.088568 88.231482 60.686363 88.064883 60.26704 88.064883 
C 59.847718 88.064883 59.445513 88.231482 59.149007 88.527988 
C 58.8525 88.824494 58.685902 89.226699 58.685902 89.646022 
C 58.685902 90.065345 58.8525 90.46755 59.149007 90.764056 
C 59.445513 91.060562 59.847718 91.227161 60.26704 91.227161 
z
" clip-path="url(#p157872baba)" style="stroke: #000000"/>
    <path d="M 56.355065 86.047982 
C 56.774388 86.047982 57.176593 85.881383 57.473099 85.584877 
C 57.769605 85.288371 57.936204 84.886166 57.936204 84.466843 
C 57.936204 84.04752 57.769605 83.645315 57.473099 83.348809 
C 57.176593 83.052303 56.774388 82.885705 56.355065 82.885705 
C 55.935742 82.885705 55.533537 83.052303 55.237031 83.348809 
C 54.940525 83.645315 54.773926 84.04752 54.773926 84.466843 
C 54.773926 84.886166 54.940525 85.288371 55.237031 85.584877 
C 55.533537 85.881383 55.935742 86.047982 56.355065 86.047982 
z
" clip-path="url(#p157872baba)" style="stroke: #000000"/>
    <path d="M 53.211905 69.762835 
C 53.211905 69.762835 53.211905 69.762835 53.211905 69.762835 
C 53.211905 69.762835 53.211905 69.762835 53.211905 69.762835 
C 53.211905 69.762835 53.211905 69.762835 53.211905 69.762835 
C 53.211905 69.762835 53.211905 69.762835 53.211905 69.762835 
C 53.211905 69.762835 53.211905 69.762835 53.211905 69.762835 
C 53.211905 69.762835 53.211905 69.762835 53.211905 69.762835 
C 53.211905 69.762835 53.211905 69.762835 53.211905 69.762835 
C 53.211905 69.762835 53.211905 69.762835 53.211905 69.762835 
z
" clip-path="url(#p157872baba)" style="stroke: #000000"/>
    <path d="M 50.341768 64.38452 
C 50.683284 64.38452 51.010859 64.248834 51.252348 64.007345 
C 51.493836 63.765857 51.629522 63.438282 51.629522 63.096765 
C 51.629522 62.755249 51.493836 62.427674 51.252348 62.186185 
C 51.010859 61.944696 50.683284 61.80901 50.341768 61.80901 
C 50.000251 61.80901 49.672676 61.944696 49.431188 62.186185 
C 49.189699 62.427674 49.054013 62.755249 49.054013 63.096765 
C 49.054013 63.438282 49.189699 63.765857 49.431188 64.007345 
C 49.672676 64.248834 50.000251 64.38452 50.341768 64.38452 
z
" clip-path="url(#p157872baba)" style="stroke: #000000"/>
    <path d="M 45.203219 54.085196 
C 45.622542 54.085196 46.024747 53.918597 46.321253 53.622091 
C 46.617759 53.325585 46.784358 52.92338 46.784358 52.504057 
C 46.784358 52.084734 46.617759 51.682529 46.321253 51.386023 
C 46.024747 51.089517 45.622542 50.922918 45.203219 50.922918 
C 44.783896 50.922918 44.381691 51.089517 44.085185 51.386023 
C 43.788679 51.682529 43.62208 52.084734 43.62208 52.504057 
C 43.62208 52.92338 43.788679 53.325585 44.085185 53.622091 
C 44.381691 53.918597 44.783896 54.085196 45.203219 54.085196 
z
" clip-path="url(#p157872baba)" style="stroke: #000000"/>
    <path d="M 74.980047 161.430621 
C 74.980047 161.430621 74.980047 161.430621 74.980047 161.430621 
C 74.980047 161.430621 74.980047 161.430621 74.980047 161.430621 
C 74.980047 161.430621 74.980047 161.430621 74.980047 161.430621 
C 74.980047 161.430621 74.980047 161.430621 74.980047 161.430621 
C 74.980047 161.430621 74.980047 161.430621 74.980047 161.430621 
C 74.980047 161.430621 74.980047 161.430621 74.980047 161.430621 
C 74.980047 161.430621 74.980047 161.430621 74.980047 161.430621 
C 74.980047 161.430621 74.980047 161.430621 74.980047 161.430621 
z
" clip-path="url(#p157872baba)" style="stroke: #000000"/>
    <path d="M 68.004864 162.365132 
C 68.424187 162.365132 68.826392 162.198533 69.122898 161.902027 
C 69.419404 161.605521 69.586003 161.203316 69.586003 160.783993 
C 69.586003 160.36467 69.419404 159.962465 69.122898 159.665959 
C 68.826392 159.369453 68.424187 159.202854 68.004864 159.202854 
C 67.585541 159.202854 67.183336 159.369453 66.88683 159.665959 
C 66.590324 159.962465 66.423725 160.36467 66.423725 160.783993 
C 66.423725 161.203316 66.590324 161.605521 66.88683 161.902027 
C 67.183336 162.198533 67.585541 162.365132 68.004864 162.365132 
z
" clip-path="url(#p157872baba)" style="stroke: #000000"/>
    <path d="M 67.581774 145.202931 
C 68.001359 145.202931 68.403815 145.036228 68.700507 144.739537 
C 68.997198 144.442845 69.163901 144.040389 69.163901 143.620805 
C 69.163901 143.20122 68.997198 142.798764 68.700507 142.502072 
C 68.403815 142.205381 68.001359 142.038678 67.581774 142.038678 
C 67.16219 142.038678 66.759734 142.205381 66.463042 142.502072 
C 66.166351 142.798764 65.999648 143.20122 65.999648 143.620805 
C 65.999648 144.040389 66.166351 144.442845 66.463042 144.739537 
C 66.759734 145.036228 67.16219 145.202931 67.581774 145.202931 
z
" clip-path="url(#p157872baba)" style="stroke: #000000"/>
    <path d="M 67.663086 140.018177 
C 67.663086 140.018177 67.663086 140.018177 67.663086 140.018177 
C 67.663086 140.018177 67.663086 140.018177 67.663086 140.018177 
C 67.663086 140.018177 67.663086 140.018177 67.663086 140.018177 
C 67.663086 140.018177 67.663086 140.018177 67.663086 140.018177 
C 67.663086 140.018177 67.663086 140.018177 67.663086 140.018177 
C 67.663086 140.018177 67.663086 140.018177 67.663086 140.018177 
C 67.663086 140.018177 67.663086 140.018177 67.663086 140.018177 
C 67.663086 140.018177 67.663086 140.018177 67.663086 140.018177 
z
" clip-path="url(#p157872baba)" style="stroke: #000000"/>
    <path d="M 60.529433 126.313661 
C 60.949018 126.313661 61.351474 126.146959 61.648165 125.850267 
C 61.944856 125.553576 62.111559 125.15112 62.111559 124.731535 
C 62.111559 124.31195 61.944856 123.909494 61.648165 123.612803 
C 61.351474 123.316112 60.949018 123.149409 60.529433 123.149409 
C 60.109848 123.149409 59.707392 123.316112 59.410701 123.612803 
C 59.11401 123.909494 58.947307 124.31195 58.947307 124.731535 
C 58.947307 125.15112 59.11401 125.553576 59.410701 125.850267 
C 59.707392 126.146959 60.109848 126.313661 60.529433 126.313661 
z
" clip-path="url(#p157872baba)" style="stroke: #000000"/>
    <path d="M 58.827091 117.407574 
C 59.246676 117.407574 59.649132 117.240871 59.945823 116.94418 
C 60.242515 116.647488 60.409217 116.245032 60.409217 115.825447 
C 60.409217 115.405863 60.242515 115.003407 59.945823 114.706715 
C 59.649132 114.410024 59.246676 114.243321 58.827091 114.243321 
C 58.407506 114.243321 58.00505 114.410024 57.708359 114.706715 
C 57.411668 115.003407 57.244965 115.405863 57.244965 115.825447 
C 57.244965 116.245032 57.411668 116.647488 57.708359 116.94418 
C 58.00505 117.240871 58.407506 117.407574 58.827091 117.407574 
z
" clip-path="url(#p157872baba)" style="stroke: #000000"/>
    <path d="M 55.815939 107.534162 
C 56.235524 107.534162 56.63798 107.367459 56.934671 107.070768 
C 57.231362 106.774077 57.398065 106.371621 57.398065 105.952036 
C 57.398065 105.532451 57.231362 105.129995 56.934671 104.833304 
C 56.63798 104.536613 56.235524 104.36991 55.815939 104.36991 
C 55.396354 104.36991 54.993898 104.536613 54.697207 104.833304 
C 54.400516 105.129995 54.233813 105.532451 54.233813 105.952036 
C 54.233813 106.371621 54.400516 106.774077 54.697207 107.070768 
C 54.993898 107.367459 55.396354 107.534162 55.815939 107.534162 
z
" clip-path="url(#p157872baba)" style="stroke: #000000"/>
    <path d="M 46.535153 96.312117 
C 46.914172 96.312117 47.277719 96.161531 47.545726 95.893524 
C 47.813733 95.625517 47.964319 95.26197 47.964319 94.882951 
C 47.964319 94.503932 47.813733 94.140385 47.545726 93.872378 
C 47.277719 93.60437 46.914172 93.453784 46.535153 93.453784 
C 46.156134 93.453784 45.792587 93.60437 45.52458 93.872378 
C 45.256573 94.140385 45.105987 94.503932 45.105987 94.882951 
C 45.105987 95.26197 45.256573 95.625517 45.52458 95.893524 
C 45.792587 96.161531 46.156134 96.312117 46.535153 96.312117 
z
" clip-path="url(#p157872baba)" style="stroke: #000000"/>
    <path d="M 48.32129 88.152762 
C 48.740875 88.152762 49.143331 87.986059 49.440023 87.689368 
C 49.736714 87.392677 49.903417 86.990221 49.903417 86.570636 
C 49.903417 86.151051 49.736714 85.748595 49.440023 85.451904 
C 49.143331 85.155213 48.740875 84.98851 48.32129 84.98851 
C 47.901706 84.98851 47.49925 85.155213 47.202558 85.451904 
C 46.905867 85.748595 46.739164 86.151051 46.739164 86.570636 
C 46.739164 86.990221 46.905867 87.392677 47.202558 87.689368 
C 47.49925 87.986059 47.901706 88.152762 48.32129 88.152762 
z
" clip-path="url(#p157872baba)" style="stroke: #000000"/>
    <path d="M 43.675529 77.718142 
C 44.094852 77.718142 44.497057 77.551543 44.793563 77.255037 
C 45.090069 76.958531 45.256668 76.556326 45.256668 76.137003 
C 45.256668 75.71768 45.090069 75.315475 44.793563 75.018969 
C 44.497057 74.722463 44.094852 74.555864 43.675529 74.555864 
C 43.256206 74.555864 42.854001 74.722463 42.557495 75.018969 
C 42.260989 75.315475 42.09439 75.71768 42.09439 76.137003 
C 42.09439 76.556326 42.260989 76.958531 42.557495 77.255037 
C 42.854001 77.551543 43.256206 77.718142 43.675529 77.718142 
z
" clip-path="url(#p157872baba)" style="stroke: #000000"/>
    <path d="M 40.610503 67.415276 
C 40.610503 67.415276 40.610503 67.415276 40.610503 67.415276 
C 40.610503 67.415276 40.610503 67.415276 40.610503 67.415276 
C 40.610503 67.415276 40.610503 67.415276 40.610503 67.415276 
C 40.610503 67.415276 40.610503 67.415276 40.610503 67.415276 
C 40.610503 67.415276 40.610503 67.415276 40.610503 67.415276 
C 40.610503 67.415276 40.610503 67.415276 40.610503 67.415276 
C 40.610503 67.415276 40.610503 67.415276 40.610503 67.415276 
C 40.610503 67.415276 40.610503 67.415276 40.610503 67.415276 
z
" clip-path="url(#p157872baba)" style="stroke: #000000"/>
    <path d="M 63.317582 170.385425 
C 63.736905 170.385425 64.13911 170.218827 64.435616 169.92232 
C 64.732122 169.625814 64.898721 169.223609 64.898721 168.804287 
C 64.898721 168.384964 64.732122 167.982759 64.435616 167.686253 
C 64.13911 167.389746 63.736905 167.223148 63.317582 167.223148 
C 62.898259 167.223148 62.496054 167.389746 62.199548 167.686253 
C 61.903042 167.982759 61.736443 168.384964 61.736443 168.804287 
C 61.736443 169.223609 61.903042 169.625814 62.199548 169.92232 
C 62.496054 170.218827 62.898259 170.385425 63.317582 170.385425 
z
" clip-path="url(#p157872baba)" style="stroke: #000000"/>
    <path d="M 65.130498 162.855811 
C 65.549821 162.855811 65.952026 162.689212 66.248532 162.392706 
C 66.545038 162.0962 66.711636 161.693995 66.711636 161.274672 
C 66.711636 160.855349 66.545038 160.453144 66.248532 160.156638 
C 65.952026 159.860132 65.549821 159.693533 65.130498 159.693533 
C 64.711175 159.693533 64.30897 159.860132 64.012464 160.156638 
C 63.715958 160.453144 63.549359 160.855349 63.549359 161.274672 
C 63.549359 161.693995 63.715958 162.0962 64.012464 162.392706 
C 64.30897 162.689212 64.711175 162.855811 65.130498 162.855811 
z
" clip-path="url(#p157872baba)" style="stroke: #000000"/>
    <path d="M 57.004853 154.35303 
C 57.004853 154.35303 57.004853 154.35303 57.004853 154.35303 
C 57.004853 154.35303 57.004853 154.35303 57.004853 154.35303 
C 57.004853 154.35303 57.004853 154.35303 57.004853 154.35303 
C 57.004853 154.35303 57.004853 154.35303 57.004853 154.35303 
C 57.004853 154.35303 57.004853 154.35303 57.004853 154.35303 
C 57.004853 154.35303 57.004853 154.35303 57.004853 154.35303 
C 57.004853 154.35303 57.004853 154.35303 57.004853 154.35303 
C 57.004853 154.35303 57.004853 154.35303 57.004853 154.35303 
z
" clip-path="url(#p157872baba)" style="stroke: #000000"/>
    <path d="M 51.377914 145.872748 
C 51.797499 145.872748 52.199955 145.706045 52.496646 145.409354 
C 52.793337 145.112663 52.96004 144.710207 52.96004 144.290622 
C 52.96004 143.871037 52.793337 143.468581 52.496646 143.17189 
C 52.199955 142.875199 51.797499 142.708496 51.377914 142.708496 
C 50.958329 142.708496 50.555873 142.875199 50.259182 143.17189 
C 49.96249 143.468581 49.795788 143.871037 49.795788 144.290622 
C 49.795788 144.710207 49.96249 145.112663 50.259182 145.409354 
C 50.555873 145.706045 50.958329 145.872748 51.377914 145.872748 
z
" clip-path="url(#p157872baba)" style="stroke: #000000"/>
    <path d="M 53.636752 129.685615 
C 53.748256 129.685615 53.855208 129.641314 53.934054 129.562469 
C 54.012899 129.483624 54.0572 129.376671 54.0572 129.265167 
C 54.0572 129.153663 54.012899 129.046711 53.934054 128.967865 
C 53.855208 128.88902 53.748256 128.844719 53.636752 128.844719 
C 53.525248 128.844719 53.418296 128.88902 53.33945 128.967865 
C 53.260605 129.046711 53.216304 129.153663 53.216304 129.265167 
C 53.216304 129.376671 53.260605 129.483624 53.33945 129.562469 
C 53.418296 129.641314 53.525248 129.685615 53.636752 129.685615 
z
" clip-path="url(#p157872baba)" style="stroke: #000000"/>
    <path d="M 44.927971 121.690264 
C 45.347555 121.690264 45.750011 121.523561 46.046703 121.22687 
C 46.343394 120.930179 46.510097 120.527723 46.510097 120.108138 
C 46.510097 119.688553 46.343394 119.286097 46.046703 118.989406 
C 45.750011 118.692715 45.347555 118.526012 44.927971 118.526012 
C 44.508386 118.526012 44.10593 118.692715 43.809238 118.989406 
C 43.512547 119.286097 43.345844 119.688553 43.345844 120.108138 
C 43.345844 120.527723 43.512547 120.930179 43.809238 121.22687 
C 44.10593 121.523561 44.508386 121.690264 44.927971 121.690264 
z
" clip-path="url(#p157872baba)" style="stroke: #000000"/>
    <path d="M 47.49382 113.440301 
C 47.913143 113.440301 48.315348 113.273702 48.611854 112.977196 
C 48.90836 112.68069 49.074959 112.278485 49.074959 111.859162 
C 49.074959 111.439839 48.90836 111.037634 48.611854 110.741128 
C 48.315348 110.444622 47.913143 110.278023 47.49382 110.278023 
C 47.074497 110.278023 46.672292 110.444622 46.375786 110.741128 
C 46.07928 111.037634 45.912681 111.439839 45.912681 111.859162 
C 45.912681 112.278485 46.07928 112.68069 46.375786 112.977196 
C 46.672292 113.273702 47.074497 113.440301 47.49382 113.440301 
z
" clip-path="url(#p157872baba)" style="stroke: #000000"/>
    <path d="M 39.589437 100.968147 
C 40.00876 100.968147 40.410965 100.801548 40.707471 100.505042 
C 41.003977 100.208536 41.170576 99.806331 41.170576 99.387008 
C 41.170576 98.967685 41.003977 98.56548 40.707471 98.268974 
C 40.410965 97.972468 40.00876 97.805869 39.589437 97.805869 
C 39.170114 97.805869 38.767909 97.972468 38.471403 98.268974 
C 38.174897 98.56548 38.008298 98.967685 38.008298 99.387008 
C 38.008298 99.806331 38.174897 100.208536 38.471403 100.505042 
C 38.767909 100.801548 39.170114 100.968147 39.589437 100.968147 
z
" clip-path="url(#p157872baba)" style="stroke: #000000"/>
    <path d="M 41.527247 87.921339 
C 41.527247 87.921339 41.527247 87.921339 41.527247 87.921339 
C 41.527247 87.921339 41.527247 87.921339 41.527247 87.921339 
C 41.527247 87.921339 41.527247 87.921339 41.527247 87.921339 
C 41.527247 87.921339 41.527247 87.921339 41.527247 87.921339 
C 41.527247 87.921339 41.527247 87.921339 41.527247 87.921339 
C 41.527247 87.921339 41.527247 87.921339 41.527247 87.921339 
C 41.527247 87.921339 41.527247 87.921339 41.527247 87.921339 
C 41.527247 87.921339 41.527247 87.921339 41.527247 87.921339 
z
" clip-path="url(#p157872baba)" style="stroke: #000000"/>
    <path d="M 35.586313 80.634175 
C 36.005636 80.634175 36.407841 80.467576 36.704347 80.17107 
C 37.000853 79.874564 37.167452 79.472359 37.167452 79.053036 
C 37.167452 78.633713 37.000853 78.231508 36.704347 77.935002 
C 36.407841 77.638496 36.005636 77.471897 35.586313 77.471897 
C 35.16699 77.471897 34.764785 77.638496 34.468279 77.935002 
C 34.171773 78.231508 34.005174 78.633713 34.005174 79.053036 
C 34.005174 79.472359 34.171773 79.874564 34.468279 80.17107 
C 34.764785 80.467576 35.16699 80.634175 35.586313 80.634175 
z
" clip-path="url(#p157872baba)" style="stroke: #000000"/>
    <path d="M 56.58092 177.616821 
C 57.000505 177.616821 57.402961 177.450118 57.699652 177.153427 
C 57.996343 176.856736 58.163046 176.45428 58.163046 176.034695 
C 58.163046 175.61511 57.996343 175.212654 57.699652 174.915963 
C 57.402961 174.619272 57.000505 174.452569 56.58092 174.452569 
C 56.161335 174.452569 55.758879 174.619272 55.462188 174.915963 
C 55.165497 175.212654 54.998794 175.61511 54.998794 176.034695 
C 54.998794 176.45428 55.165497 176.856736 55.462188 177.153427 
C 55.758879 177.450118 56.161335 177.616821 56.58092 177.616821 
z
" clip-path="url(#p157872baba)" style="stroke: #000000"/>
    <path d="M 52.659515 167.126307 
C 53.078838 167.126307 53.481043 166.959709 53.777549 166.663203 
C 54.074055 166.366696 54.240654 165.964491 54.240654 165.545169 
C 54.240654 165.125846 54.074055 164.723641 53.777549 164.427135 
C 53.481043 164.130628 53.078838 163.96403 52.659515 163.96403 
C 52.240192 163.96403 51.837987 164.130628 51.541481 164.427135 
C 51.244975 164.723641 51.078376 165.125846 51.078376 165.545169 
C 51.078376 165.964491 51.244975 166.366696 51.541481 166.663203 
C 51.837987 166.959709 52.240192 167.126307 52.659515 167.126307 
z
" clip-path="url(#p157872baba)" style="stroke: #000000"/>
    <path d="M 46.391427 156.215757 
C 46.610866 156.215757 46.821347 156.128573 46.976514 155.973407 
C 47.131681 155.81824 47.218865 155.607759 47.218865 155.38832 
C 47.218865 155.168881 47.131681 154.9584 46.976514 154.803233 
C 46.821347 154.648066 46.610866 154.560882 46.391427 154.560882 
C 46.171988 154.560882 45.961507 154.648066 45.80634 154.803233 
C 45.651173 154.9584 45.563989 155.168881 45.563989 155.38832 
C 45.563989 155.607759 45.651173 155.81824 45.80634 155.973407 
C 45.961507 156.128573 46.171988 156.215757 46.391427 156.215757 
z
" clip-path="url(#p157872baba)" style="stroke: #000000"/>
    <path d="M 42.049214 148.45922 
C 42.468537 148.45922 42.870742 148.292621 43.167248 147.996115 
C 43.463754 147.699609 43.630353 147.297404 43.630353 146.878081 
C 43.630353 146.458758 43.463754 146.056553 43.167248 145.760047 
C 42.870742 145.463541 42.468537 145.296942 42.049214 145.296942 
C 41.629891 145.296942 41.227686 145.463541 40.93118 145.760047 
C 40.634674 146.056553 40.468075 146.458758 40.468075 146.878081 
C 40.468075 147.297404 40.634674 147.699609 40.93118 147.996115 
C 41.227686 148.292621 41.629891 148.45922 42.049214 148.45922 
z
" clip-path="url(#p157872baba)" style="stroke: #000000"/>
    <path d="M 40.7811 136.5369 
C 41.200423 136.5369 41.602628 136.370302 41.899134 136.073795 
C 42.19564 135.777289 42.362239 135.375084 42.362239 134.955761 
C 42.362239 134.536439 42.19564 134.134234 41.899134 133.837727 
C 41.602628 133.541221 41.200423 133.374623 40.7811 133.374623 
C 40.361777 133.374623 39.959572 133.541221 39.663066 133.837727 
C 39.36656 134.134234 39.199961 134.536439 39.199961 134.955761 
C 39.199961 135.375084 39.36656 135.777289 39.663066 136.073795 
C 39.959572 136.370302 40.361777 136.5369 40.7811 136.5369 
z
" clip-path="url(#p157872baba)" style="stroke: #000000"/>
    <path d="M 37.180509 123.41434 
C 37.600094 123.41434 38.00255 123.247638 38.299241 122.950946 
C 38.595932 122.654255 38.762635 122.251799 38.762635 121.832214 
C 38.762635 121.412629 38.595932 121.010173 38.299241 120.713482 
C 38.00255 120.416791 37.600094 120.250088 37.180509 120.250088 
C 36.760924 120.250088 36.358468 120.416791 36.061777 120.713482 
C 35.765086 121.010173 35.598383 121.412629 35.598383 121.832214 
C 35.598383 122.251799 35.765086 122.654255 36.061777 122.950946 
C 36.358468 123.247638 36.760924 123.41434 37.180509 123.41434 
z
" clip-path="url(#p157872baba)" style="stroke: #000000"/>
    <path d="M 32.125029 112.141594 
C 32.544614 112.141594 32.94707 111.974891 33.243761 111.6782 
C 33.540453 111.381508 33.707155 110.979052 33.707155 110.559467 
C 33.707155 110.139883 33.540453 109.737427 33.243761 109.440735 
C 32.94707 109.144044 32.544614 108.977341 32.125029 108.977341 
C 31.705444 108.977341 31.302988 109.144044 31.006297 109.440735 
C 30.709606 109.737427 30.542903 110.139883 30.542903 110.559467 
C 30.542903 110.979052 30.709606 111.381508 31.006297 111.6782 
C 31.302988 111.974891 31.705444 112.141594 32.125029 112.141594 
z
" clip-path="url(#p157872baba)" style="stroke: #000000"/>
    <path d="M 45.234113 179.433607 
C 45.653697 179.433607 46.056154 179.266904 46.352845 178.970213 
C 46.649536 178.673522 46.816239 178.271066 46.816239 177.851481 
C 46.816239 177.431896 46.649536 177.02944 46.352845 176.732749 
C 46.056154 176.436057 45.653697 176.269355 45.234113 176.269355 
C 44.814528 176.269355 44.412072 176.436057 44.115381 176.732749 
C 43.818689 177.02944 43.651987 177.431896 43.651987 177.851481 
C 43.651987 178.271066 43.818689 178.673522 44.115381 178.970213 
C 44.412072 179.266904 44.814528 179.433607 45.234113 179.433607 
z
" clip-path="url(#p157872baba)" style="stroke: #000000"/>
    <path d="M 36.649577 170.034563 
C 36.743341 170.034563 36.833276 169.99731 36.899577 169.931009 
C 36.965878 169.864709 37.003131 169.774773 37.003131 169.681009 
C 37.003131 169.587246 36.965878 169.49731 36.899577 169.431009 
C 36.833276 169.364709 36.743341 169.327456 36.649577 169.327456 
C 36.555814 169.327456 36.465878 169.364709 36.399577 169.431009 
C 36.333276 169.49731 36.296024 169.587246 36.296024 169.681009 
C 36.296024 169.774773 36.333276 169.864709 36.399577 169.931009 
C 36.465878 169.99731 36.555814 170.034563 36.649577 170.034563 
z
" clip-path="url(#p157872baba)" style="stroke: #000000"/>
    <path d="M 34.222497 158.293976 
C 34.642082 158.293976 35.044538 158.127274 35.341229 157.830582 
C 35.63792 157.533891 35.804623 157.131435 35.804623 156.71185 
C 35.804623 156.292266 35.63792 155.889809 35.341229 155.593118 
C 35.044538 155.296427 34.642082 155.129724 34.222497 155.129724 
C 33.802912 155.129724 33.400456 155.296427 33.103765 155.593118 
C 32.807074 155.889809 32.640371 156.292266 32.640371 156.71185 
C 32.640371 157.131435 32.807074 157.533891 33.103765 157.830582 
C 33.400456 158.127274 33.802912 158.293976 34.222497 158.293976 
z
" clip-path="url(#p157872baba)" style="stroke: #000000"/>
    <path d="M 33.717207 149.817121 
C 33.87961 149.817121 34.035383 149.752598 34.150219 149.637761 
C 34.265056 149.522925 34.329579 149.367152 34.329579 149.204749 
C 34.329579 149.042346 34.265056 148.886572 34.150219 148.771736 
C 34.035383 148.6569 33.87961 148.592376 33.717207 148.592376 
C 33.554804 148.592376 33.39903 148.6569 33.284194 148.771736 
C 33.169358 148.886572 33.104834 149.042346 33.104834 149.204749 
C 33.104834 149.367152 33.169358 149.522925 33.284194 149.637761 
C 33.39903 149.752598 33.554804 149.817121 33.717207 149.817121 
z
" clip-path="url(#p157872baba)" style="stroke: #000000"/>
    <path d="M 29.650337 139.84799 
C 29.913443 139.84799 30.165809 139.743457 30.351853 139.557412 
C 30.537897 139.371368 30.642431 139.119002 30.642431 138.855896 
C 30.642431 138.592789 30.537897 138.340424 30.351853 138.154379 
C 30.165809 137.968335 29.913443 137.863802 29.650337 137.863802 
C 29.38723 137.863802 29.134864 137.968335 28.94882 138.154379 
C 28.762776 138.340424 28.658242 138.592789 28.658242 138.855896 
C 28.658242 139.119002 28.762776 139.371368 28.94882 139.557412 
C 29.134864 139.743457 29.38723 139.84799 29.650337 139.84799 
z
" clip-path="url(#p157872baba)" style="stroke: #000000"/>
   </g>
   <g id="matplotlib.axis_1">
    <g id="xtick_1">
     <g id="line2d_1">
      <defs>
       <path id="m26e4505d0a" d="M 0 0 
L 0 3.5 
" style="stroke: #000000; stroke-width: 0.8"/>
      </defs>
      <g>
       <use xlink:href="#m26e4505d0a" x="18" y="189" style="stroke: #000000; stroke-width: 0.8"/>
      </g>
     </g>
     <g id="text_1">
      <!-- 10 -->
      <g transform="translate(7.447656 203.598437)scale(0.1 -0.1)">
       <defs>
        <path id="DejaVuSans-2212" d="M 678 2272 
L 4684 2272 
L 4684 1741 
L 678 1741 
L 678 2272 
z
" transform="scale(0.015625)"/>
        <path id="DejaVuSans-31" d="M 794 531 
L 1825 531 
L 1825 4091 
L 703 3866 
L 703 4441 
L 1819 4666 
L 2450 4666 
L 2450 531 
L 3481 531 
L 3481 0 
L 794 0 
L 794 531 
z
" transform="scale(0.015625)"/>
        <path id="DejaVuSans-30" d="M 2034 4250 
Q 1547 4250 1301 3770 
Q 1056 3291 1056 2328 
Q 1056 1369 1301 889 
Q 1547 409 2034 409 
Q 2525 409 2770 889 
Q 3016 1369 3016 2328 
Q 3016 3291 2770 3770 
Q 2525 4250 2034 4250 
z
M 2034 4750 
Q 2819 4750 3233 4129 
Q 3647 3509 3647 2328 
Q 3647 1150 3233 529 
Q 2819 -91 2034 -91 
Q 1250 -91 836 529 
Q 422 1150 422 2328 
Q 422 3509 836 4129 
Q 1250 4750 2034 4750 
z
" transform="scale(0.015625)"/>
       </defs>
       <use xlink:href="#DejaVuSans-2212"/>
       <use xlink:href="#DejaVuSans-31" x="83.789062"/>
       <use xlink:href="#DejaVuSans-30" x="147.412109"/>
      </g>
     </g>
    </g>
    <g id="xtick_2">
     <g id="line2d_2">
      <g>
       <use xlink:href="#m26e4505d0a" x="73.8" y="189" style="stroke: #000000; stroke-width: 0.8"/>
      </g>
     </g>
     <g id="text_2">
      <!-- 0 -->
      <g transform="translate(70.61875 203.598437)scale(0.1 -0.1)">
       <use xlink:href="#DejaVuSans-30"/>
      </g>
     </g>
    </g>
    <g id="xtick_3">
     <g id="line2d_3">
      <g>
       <use xlink:href="#m26e4505d0a" x="129.6" y="189" style="stroke: #000000; stroke-width: 0.8"/>
      </g>
     </g>
     <g id="text_3">
      <!-- 10 -->
      <g transform="translate(123.2375 203.598437)scale(0.1 -0.1)">
       <use xlink:href="#DejaVuSans-31"/>
       <use xlink:href="#DejaVuSans-30" x="63.623047"/>
      </g>
     </g>
    </g>
   </g>
   <g id="matplotlib.axis_2">
    <g id="ytick_1">
     <g id="line2d_4">
      <defs>
       <path id="m07baf8007d" d="M 0 0 
L -3.5 0 
" style="stroke: #000000; stroke-width: 0.8"/>
      </defs>
      <g>
       <use xlink:href="#m07baf8007d" x="18" y="189" style="stroke: #000000; stroke-width: 0.8"/>
      </g>
     </g>
     <g id="text_4">
      <!-- 15 -->
      <g transform="translate(-10.104688 192.799219)scale(0.1 -0.1)">
       <defs>
        <path id="DejaVuSans-35" d="M 691 4666 
L 3169 4666 
L 3169 4134 
L 1269 4134 
L 1269 2991 
Q 1406 3038 1543 3061 
Q 1681 3084 1819 3084 
Q 2600 3084 3056 2656 
Q 3513 2228 3513 1497 
Q 3513 744 3044 326 
Q 2575 -91 1722 -91 
Q 1428 -91 1123 -41 
Q 819 9 494 109 
L 494 744 
Q 775 591 1075 516 
Q 1375 441 1709 441 
Q 2250 441 2565 725 
Q 2881 1009 2881 1497 
Q 2881 1984 2565 2268 
Q 2250 2553 1709 2553 
Q 1456 2553 1204 2497 
Q 953 2441 691 2322 
L 691 4666 
z
" transform="scale(0.015625)"/>
       </defs>
       <use xlink:href="#DejaVuSans-2212"/>
       <use xlink:href="#DejaVuSans-31" x="83.789062"/>
       <use xlink:href="#DejaVuSans-35" x="147.412109"/>
      </g>
     </g>
    </g>
    <g id="ytick_2">
     <g id="line2d_5">
      <g>
       <use xlink:href="#m07baf8007d" x="18" y="161.82" style="stroke: #000000; stroke-width: 0.8"/>
      </g>
     </g>
     <g id="text_5">
      <!-- 10 -->
      <g transform="translate(-10.104688 165.619219)scale(0.1 -0.1)">
       <use xlink:href="#DejaVuSans-2212"/>
       <use xlink:href="#DejaVuSans-31" x="83.789062"/>
       <use xlink:href="#DejaVuSans-30" x="147.412109"/>
      </g>
     </g>
    </g>
    <g id="ytick_3">
     <g id="line2d_6">
      <g>
       <use xlink:href="#m07baf8007d" x="18" y="134.64" style="stroke: #000000; stroke-width: 0.8"/>
      </g>
     </g>
     <g id="text_6">
      <!-- 5 -->
      <g transform="translate(-3.742188 138.439219)scale(0.1 -0.1)">
       <use xlink:href="#DejaVuSans-2212"/>
       <use xlink:href="#DejaVuSans-35" x="83.789062"/>
      </g>
     </g>
    </g>
    <g id="ytick_4">
     <g id="line2d_7">
      <g>
       <use xlink:href="#m07baf8007d" x="18" y="107.46" style="stroke: #000000; stroke-width: 0.8"/>
      </g>
     </g>
     <g id="text_7">
      <!-- 0 -->
      <g transform="translate(4.6375 111.259219)scale(0.1 -0.1)">
       <use xlink:href="#DejaVuSans-30"/>
      </g>
     </g>
    </g>
    <g id="ytick_5">
     <g id="line2d_8">
      <g>
       <use xlink:href="#m07baf8007d" x="18" y="80.28" style="stroke: #000000; stroke-width: 0.8"/>
      </g>
     </g>
     <g id="text_8">
      <!-- 5 -->
      <g transform="translate(4.6375 84.079219)scale(0.1 -0.1)">
       <use xlink:href="#DejaVuSans-35"/>
      </g>
     </g>
    </g>
    <g id="ytick_6">
     <g id="line2d_9">
      <g>
       <use xlink:href="#m07baf8007d" x="18" y="53.1" style="stroke: #000000; stroke-width: 0.8"/>
      </g>
     </g>
     <g id="text_9">
      <!-- 10 -->
      <g transform="translate(-1.725 56.899219)scale(0.1 -0.1)">
       <use xlink:href="#DejaVuSans-31"/>
       <use xlink:href="#DejaVuSans-30" x="63.623047"/>
      </g>
     </g>
    </g>
    <g id="ytick_7">
     <g id="line2d_10">
      <g>
       <use xlink:href="#m07baf8007d" x="18" y="25.92" style="stroke: #000000; stroke-width: 0.8"/>
      </g>
     </g>
     <g id="text_10">
      <!-- 15 -->
      <g transform="translate(-1.725 29.719219)scale(0.1 -0.1)">
       <use xlink:href="#DejaVuSans-31"/>
       <use xlink:href="#DejaVuSans-35" x="63.623047"/>
      </g>
     </g>
    </g>
   </g>
   <g id="patch_3">
    <path d="M 18 189 
L 18 25.92 
" style="fill: none; stroke: #000000; stroke-width: 0.8; stroke-linejoin: miter; stroke-linecap: square"/>
   </g>
   <g id="patch_4">
    <path d="M 129.6 189 
L 129.6 25.92 
" style="fill: none; stroke: #000000; stroke-width: 0.8; stroke-linejoin: miter; stroke-linecap: square"/>
   </g>
   <g id="patch_5">
    <path d="M 18 189 
L 129.6 189 
" style="fill: none; stroke: #000000; stroke-width: 0.8; stroke-linejoin: miter; stroke-linecap: square"/>
   </g>
   <g id="patch_6">
    <path d="M 18 25.92 
L 129.6 25.92 
" style="fill: none; stroke: #000000; stroke-width: 0.8; stroke-linejoin: miter; stroke-linecap: square"/>
   </g>
  </g>
 </g>
 <defs>
  <clipPath id="p157872baba">
   <rect x="18" y="25.92" width="111.6" height="163.08"/>
  </clipPath>
 </defs>
</svg>
