<?xml version="1.0" encoding="utf-8" standalone="no"?>
<!DOCTYPE svg PUBLIC "-//W3C//DTD SVG 1.1//EN"
  "http://www.w3.org/Graphics/SVG/1.1/DTD/svg11.dtd">
<svg xmlns:xlink="http://www.w3.org/1999/xlink" width="144pt" height="216pt" viewBox="0 0 144 216" xmlns="http://www.w3.org/2000/svg" version="1.1">
 <metadata>
  <rdf:RDF xmlns:dc="http://purl.org/dc/elements/1.1/" xmlns:cc="http://creativecommons.org/ns#" xmlns:rdf="http://www.w3.org/1999/02/22-rdf-syntax-ns#">
   <cc:Work>
    <dc:type rdf:resource="http://purl.org/dc/dcmitype/StillImage"/>
    <dc:date>2022-06-23T14:46:23.730872</dc:date>
    <dc:format>image/svg+xml</dc:format>
    <dc:creator>
     <cc:Agent>
      <dc:title>Matplotlib v3.5.1, https://matplotlib.org/</dc:title>
     </cc:Agent>
    </dc:creator>
   </cc:Work>
  </rdf:RDF>
 </metadata>
 <defs>
  <style type="text/css">*{stroke-linejoin: round; stroke-linecap: butt}</style>
 </defs>
 <g id="figure_1">
  <g id="patch_1">
   <path d="M 0 216 
L 144 216 
L 144 0 
L 0 0 
L 0 216 
z
" style="fill: none"/>
  </g>
  <g id="axes_1">
   <g id="patch_2">
    <path d="M 18 189 
L 129.6 189 
L 129.6 25.92 
L 18 25.92 
z
" style="fill: #ffffff"/>
   </g>
   <g id="PathCollection_1">
    <defs>
     <path id="m25a013f91e" d="M 0 2.738613 
C 0.726289 2.738613 1.422928 2.450055 1.936492 1.936492 
C 2.450055 1.422928 2.738613 0.726289 2.738613 0 
C 2.738613 -0.726289 2.450055 -1.422928 1.936492 -1.936492 
C 1.422928 -2.450055 0.726289 -2.738613 0 -2.738613 
C -0.726289 -2.738613 -1.422928 -2.450055 -1.936492 -1.936492 
C -2.450055 -1.422928 -2.738613 -0.726289 -2.738613 0 
C -2.738613 0.726289 -2.450055 1.422928 -1.936492 1.936492 
C -1.422928 2.450055 -0.726289 2.738613 0 2.738613 
z
" style="stroke: #ff0000; stroke-width: 1.75"/>
    </defs>
    <g clip-path="url(#p6e82319058)">
     <use xlink:href="#m25a013f91e" x="66.825" y="83.92143" style="fill: #ff0000; stroke: #ff0000; stroke-width: 1.75"/>
     <use xlink:href="#m25a013f91e" x="87.75" y="95.690715" style="fill: #ff0000; stroke: #ff0000; stroke-width: 1.75"/>
     <use xlink:href="#m25a013f91e" x="66.825" y="107.46" style="fill: #ff0000; stroke: #ff0000; stroke-width: 1.75"/>
     <use xlink:href="#m25a013f91e" x="73.8" y="119.229285" style="fill: #ff0000; stroke: #ff0000; stroke-width: 1.75"/>
     <use xlink:href="#m25a013f91e" x="87.75" y="119.229285" style="fill: #ff0000; stroke: #ff0000; stroke-width: 1.75"/>
     <use xlink:href="#m25a013f91e" x="66.825" y="130.99857" style="fill: #ff0000; stroke: #ff0000; stroke-width: 1.75"/>
     <use xlink:href="#m25a013f91e" x="80.775" y="130.99857" style="fill: #ff0000; stroke: #ff0000; stroke-width: 1.75"/>
    </g>
   </g>
   <g id="PathCollection_2">
    <defs>
     <path id="C0_0_2fdff52257" d="M 0 2.738613 
C 0.726289 2.738613 1.422928 2.450055 1.936492 1.936492 
C 2.450055 1.422928 2.738613 0.726289 2.738613 -0 
C 2.738613 -0.726289 2.450055 -1.422928 1.936492 -1.936492 
C 1.422928 -2.450055 0.726289 -2.738613 0 -2.738613 
C -0.726289 -2.738613 -1.422928 -2.450055 -1.936492 -1.936492 
C -2.450055 -1.422928 -2.738613 -0.726289 -2.738613 0 
C -2.738613 0.726289 -2.450055 1.422928 -1.936492 1.936492 
C -1.422928 2.450055 -0.726289 2.738613 0 2.738613 
z
"/>
    </defs>
    <g clip-path="url(#p6e82319058)">
     <use xlink:href="#C0_0_2fdff52257" x="80.775" y="83.92143" style="fill: none; stroke: #ff0000; stroke-width: 1.75"/>
    </g>
    <g clip-path="url(#p6e82319058)">
     <use xlink:href="#C0_0_2fdff52257" x="59.85" y="95.690715" style="fill: none; stroke: #ff0000; stroke-width: 1.75"/>
    </g>
    <g clip-path="url(#p6e82319058)">
     <use xlink:href="#C0_0_2fdff52257" x="73.8" y="95.690715" style="fill: none; stroke: #ff0000; stroke-width: 1.75"/>
    </g>
    <g clip-path="url(#p6e82319058)">
     <use xlink:href="#C0_0_2fdff52257" x="52.875" y="107.46" style="fill: none; stroke: #ff0000; stroke-width: 1.75"/>
    </g>
    <g clip-path="url(#p6e82319058)">
     <use xlink:href="#C0_0_2fdff52257" x="80.775" y="107.46" style="fill: none; stroke: #ff0000; stroke-width: 1.75"/>
    </g>
    <g clip-path="url(#p6e82319058)">
     <use xlink:href="#C0_0_2fdff52257" x="94.725" y="107.46" style="fill: none; stroke: #ff0000; stroke-width: 1.75"/>
    </g>
    <g clip-path="url(#p6e82319058)">
     <use xlink:href="#C0_0_2fdff52257" x="59.85" y="119.229285" style="fill: none; stroke: #ff0000; stroke-width: 1.75"/>
    </g>
   </g>
   <g id="PathCollection_3">
    <path d="M 103.13092 107.882695 
C 103.263521 107.882695 103.39071 107.830012 103.484473 107.736248 
C 103.578237 107.642485 103.63092 107.515296 103.63092 107.382695 
C 103.63092 107.250093 103.578237 107.122905 103.484473 107.029141 
C 103.39071 106.935378 103.263521 106.882695 103.13092 106.882695 
C 102.998318 106.882695 102.87113 106.935378 102.777366 107.029141 
C 102.683603 107.122905 102.63092 107.250093 102.63092 107.382695 
C 102.63092 107.515296 102.683603 107.642485 102.777366 107.736248 
C 102.87113 107.830012 102.998318 107.882695 103.13092 107.882695 
z
" clip-path="url(#p6e82319058)" style="stroke: #000000"/>
    <path d="M 99.210923 95.299175 
C 99.343524 95.299175 99.470713 95.246492 99.564476 95.152728 
C 99.65824 95.058965 99.710923 94.931777 99.710923 94.799175 
C 99.710923 94.666573 99.65824 94.539385 99.564476 94.445622 
C 99.470713 94.351858 99.343524 94.299175 99.210923 94.299175 
C 99.078321 94.299175 98.951133 94.351858 98.85737 94.445622 
C 98.763606 94.539385 98.710923 94.666573 98.710923 94.799175 
C 98.710923 94.931777 98.763606 95.058965 98.85737 95.152728 
C 98.951133 95.246492 99.078321 95.299175 99.210923 95.299175 
z
" clip-path="url(#p6e82319058)" style="stroke: #000000"/>
    <path d="M 96.365876 89.238954 
C 96.498477 89.238954 96.625666 89.18627 96.719429 89.092507 
C 96.813193 88.998744 96.865876 88.871555 96.865876 88.738954 
C 96.865876 88.606352 96.813193 88.479164 96.719429 88.3854 
C 96.625666 88.291637 96.498477 88.238954 96.365876 88.238954 
C 96.233274 88.238954 96.106086 88.291637 96.012322 88.3854 
C 95.918559 88.479164 95.865876 88.606352 95.865876 88.738954 
C 95.865876 88.871555 95.918559 88.998744 96.012322 89.092507 
C 96.106086 89.18627 96.233274 89.238954 96.365876 89.238954 
z
" clip-path="url(#p6e82319058)" style="stroke: #000000"/>
    <path d="M 87.241994 56.532426 
C 87.374596 56.532426 87.501784 56.479742 87.595548 56.385979 
C 87.689311 56.292216 87.741994 56.165027 87.741994 56.032426 
C 87.741994 55.899824 87.689311 55.772636 87.595548 55.678872 
C 87.501784 55.585109 87.374596 55.532426 87.241994 55.532426 
C 87.109393 55.532426 86.982204 55.585109 86.888441 55.678872 
C 86.794677 55.772636 86.741994 55.899824 86.741994 56.032426 
C 86.741994 56.165027 86.794677 56.292216 86.888441 56.385979 
C 86.982204 56.479742 87.109393 56.532426 87.241994 56.532426 
z
" clip-path="url(#p6e82319058)" style="stroke: #000000"/>
    <path d="M 93.648121 102.664291 
C 93.822634 102.664291 93.990023 102.594956 94.113423 102.471556 
C 94.236823 102.348156 94.306158 102.180767 94.306158 102.006254 
C 94.306158 101.83174 94.236823 101.664351 94.113423 101.540951 
C 93.990023 101.417551 93.822634 101.348217 93.648121 101.348217 
C 93.473607 101.348217 93.306218 101.417551 93.182818 101.540951 
C 93.059418 101.664351 92.990084 101.83174 92.990084 102.006254 
C 92.990084 102.180767 93.059418 102.348156 93.182818 102.471556 
C 93.306218 102.594956 93.473607 102.664291 93.648121 102.664291 
z
" clip-path="url(#p6e82319058)" style="stroke: #000000"/>
    <path d="M 94.247548 98.866431 
C 94.470556 98.866431 94.684461 98.777829 94.842151 98.620138 
C 94.999842 98.462447 95.088444 98.248543 95.088444 98.025535 
C 95.088444 97.802526 94.999842 97.588622 94.842151 97.430931 
C 94.684461 97.27324 94.470556 97.184638 94.247548 97.184638 
C 94.02454 97.184638 93.810635 97.27324 93.652944 97.430931 
C 93.495254 97.588622 93.406651 97.802526 93.406651 98.025535 
C 93.406651 98.248543 93.495254 98.462447 93.652944 98.620138 
C 93.810635 98.777829 94.02454 98.866431 94.247548 98.866431 
z
" clip-path="url(#p6e82319058)" style="stroke: #000000"/>
    <path d="M 90.380371 93.445374 
C 90.685398 93.445374 90.977973 93.324186 91.193659 93.108499 
C 91.409346 92.892813 91.530534 92.600238 91.530534 92.295211 
C 91.530534 91.990184 91.409346 91.697609 91.193659 91.481923 
C 90.977973 91.266236 90.685398 91.145048 90.380371 91.145048 
C 90.075344 91.145048 89.782769 91.266236 89.567083 91.481923 
C 89.351396 91.697609 89.230208 91.990184 89.230208 92.295211 
C 89.230208 92.600238 89.351396 92.892813 89.567083 93.108499 
C 89.782769 93.324186 90.075344 93.445374 90.380371 93.445374 
z
" clip-path="url(#p6e82319058)" style="stroke: #000000"/>
    <path d="M 88.84217 83.610439 
C 89.016684 83.610439 89.184073 83.541104 89.307473 83.417704 
C 89.430872 83.294304 89.500207 83.126915 89.500207 82.952402 
C 89.500207 82.777888 89.430872 82.610499 89.307473 82.487099 
C 89.184073 82.3637 89.016684 82.294365 88.84217 82.294365 
C 88.667657 82.294365 88.500268 82.3637 88.376868 82.487099 
C 88.253468 82.610499 88.184133 82.777888 88.184133 82.952402 
C 88.184133 83.126915 88.253468 83.294304 88.376868 83.417704 
C 88.500268 83.541104 88.667657 83.610439 88.84217 83.610439 
z
" clip-path="url(#p6e82319058)" style="stroke: #000000"/>
    <path d="M 83.59123 74.932489 
C 83.723832 74.932489 83.85102 74.879806 83.944784 74.786043 
C 84.038547 74.692279 84.09123 74.565091 84.09123 74.432489 
C 84.09123 74.299888 84.038547 74.172699 83.944784 74.078936 
C 83.85102 73.985173 83.723832 73.932489 83.59123 73.932489 
C 83.458629 73.932489 83.33144 73.985173 83.237677 74.078936 
C 83.143913 74.172699 83.09123 74.299888 83.09123 74.432489 
C 83.09123 74.565091 83.143913 74.692279 83.237677 74.786043 
C 83.33144 74.879806 83.458629 74.932489 83.59123 74.932489 
z
" clip-path="url(#p6e82319058)" style="stroke: #000000"/>
    <path d="M 91.485729 114.024031 
C 91.779224 114.024031 92.060738 113.907424 92.268271 113.699892 
C 92.475804 113.492359 92.592411 113.210845 92.592411 112.917349 
C 92.592411 112.623854 92.475804 112.34234 92.268271 112.134807 
C 92.060738 111.927274 91.779224 111.810667 91.485729 111.810667 
C 91.192233 111.810667 90.910719 111.927274 90.703186 112.134807 
C 90.495654 112.34234 90.379047 112.623854 90.379047 112.917349 
C 90.379047 113.210845 90.495654 113.492359 90.703186 113.699892 
C 90.910719 113.907424 91.192233 114.024031 91.485729 114.024031 
z
" clip-path="url(#p6e82319058)" style="stroke: #000000"/>
    <path d="M 91.564918 104.050995 
C 91.787926 104.050995 92.001831 103.962392 92.159522 103.804702 
C 92.317212 103.647011 92.405814 103.433107 92.405814 103.210098 
C 92.405814 102.98709 92.317212 102.773185 92.159522 102.615495 
C 92.001831 102.457804 91.787926 102.369202 91.564918 102.369202 
C 91.34191 102.369202 91.128005 102.457804 90.970315 102.615495 
C 90.812624 102.773185 90.724022 102.98709 90.724022 103.210098 
C 90.724022 103.433107 90.812624 103.647011 90.970315 103.804702 
C 91.128005 103.962392 91.34191 104.050995 91.564918 104.050995 
z
" clip-path="url(#p6e82319058)" style="stroke: #000000"/>
    <path d="M 86.398645 99.919244 
C 86.821078 99.919244 87.226266 99.75141 87.524971 99.452705 
C 87.823676 99.153999 87.991511 98.748811 87.991511 98.326378 
C 87.991511 97.903945 87.823676 97.498757 87.524971 97.200052 
C 87.226266 96.901346 86.821078 96.733512 86.398645 96.733512 
C 85.976211 96.733512 85.571023 96.901346 85.272318 97.200052 
C 84.973613 97.498757 84.805778 97.903945 84.805778 98.326378 
C 84.805778 98.748811 84.973613 99.153999 85.272318 99.452705 
C 85.571023 99.75141 85.976211 99.919244 86.398645 99.919244 
z
" clip-path="url(#p6e82319058)" style="stroke: #000000"/>
    <path d="M 80.936873 88.380982 
C 81.308962 88.380982 81.665861 88.23315 81.928968 87.970043 
C 82.192074 87.706937 82.339906 87.350038 82.339906 86.977949 
C 82.339906 86.60586 82.192074 86.248961 81.928968 85.985855 
C 81.665861 85.722748 81.308962 85.574916 80.936873 85.574916 
C 80.564785 85.574916 80.207885 85.722748 79.944779 85.985855 
C 79.681673 86.248961 79.53384 86.60586 79.53384 86.977949 
C 79.53384 87.350038 79.681673 87.706937 79.944779 87.970043 
C 80.207885 88.23315 80.564785 88.380982 80.936873 88.380982 
z
" clip-path="url(#p6e82319058)" style="stroke: #000000"/>
    <path d="M 85.915692 119.576446 
C 86.1387 119.576446 86.352604 119.487843 86.510295 119.330153 
C 86.667986 119.172462 86.756588 118.958558 86.756588 118.735549 
C 86.756588 118.512541 86.667986 118.298636 86.510295 118.140946 
C 86.352604 117.983255 86.1387 117.894653 85.915692 117.894653 
C 85.692683 117.894653 85.478779 117.983255 85.321088 118.140946 
C 85.163397 118.298636 85.074795 118.512541 85.074795 118.735549 
C 85.074795 118.958558 85.163397 119.172462 85.321088 119.330153 
C 85.478779 119.487843 85.692683 119.576446 85.915692 119.576446 
z
" clip-path="url(#p6e82319058)" style="stroke: #000000"/>
    <path d="M 83.105417 110.61197 
C 83.544295 110.61197 83.965257 110.437602 84.275591 110.127269 
C 84.585924 109.816935 84.760292 109.395973 84.760292 108.957095 
C 84.760292 108.518217 84.585924 108.097255 84.275591 107.786921 
C 83.965257 107.476588 83.544295 107.302219 83.105417 107.302219 
C 82.666539 107.302219 82.245577 107.476588 81.935243 107.786921 
C 81.62491 108.097255 81.450542 108.518217 81.450542 108.957095 
C 81.450542 109.395973 81.62491 109.816935 81.935243 110.127269 
C 82.245577 110.437602 82.666539 110.61197 83.105417 110.61197 
z
" clip-path="url(#p6e82319058)" style="stroke: #000000"/>
    <path d="M 79.557251 100.909716 
C 79.822454 100.909716 80.076831 100.80435 80.264358 100.616823 
C 80.451885 100.429296 80.557251 100.174919 80.557251 99.909716 
C 80.557251 99.644513 80.451885 99.390136 80.264358 99.202609 
C 80.076831 99.015082 79.822454 98.909716 79.557251 98.909716 
C 79.292048 98.909716 79.037671 99.015082 78.850145 99.202609 
C 78.662618 99.390136 78.557251 99.644513 78.557251 99.909716 
C 78.557251 100.174919 78.662618 100.429296 78.850145 100.616823 
C 79.037671 100.80435 79.292048 100.909716 79.557251 100.909716 
z
" clip-path="url(#p6e82319058)" style="stroke: #000000"/>
    <path d="M 77.377059 94.778332 
C 77.564586 94.778332 77.744458 94.703827 77.877059 94.571225 
C 78.009661 94.438624 78.084166 94.258752 78.084166 94.071225 
C 78.084166 93.883698 78.009661 93.703827 77.877059 93.571225 
C 77.744458 93.438624 77.564586 93.364118 77.377059 93.364118 
C 77.189532 93.364118 77.009661 93.438624 76.877059 93.571225 
C 76.744458 93.703827 76.669952 93.883698 76.669952 94.071225 
C 76.669952 94.258752 76.744458 94.438624 76.877059 94.571225 
C 77.009661 94.703827 77.189532 94.778332 77.377059 94.778332 
z
" clip-path="url(#p6e82319058)" style="stroke: #000000"/>
    <path d="M 75.726811 91.425615 
C 76.037145 91.425615 76.33481 91.302318 76.554249 91.082879 
C 76.773688 90.86344 76.896985 90.565775 76.896985 90.255442 
C 76.896985 89.945108 76.773688 89.647443 76.554249 89.428004 
C 76.33481 89.208565 76.037145 89.085268 75.726811 89.085268 
C 75.416477 89.085268 75.118812 89.208565 74.899373 89.428004 
C 74.679934 89.647443 74.556637 89.945108 74.556637 90.255442 
C 74.556637 90.565775 74.679934 90.86344 74.899373 91.082879 
C 75.118812 91.302318 75.416477 91.425615 75.726811 91.425615 
z
" clip-path="url(#p6e82319058)" style="stroke: #000000"/>
    <path d="M 83.378084 132.625912 
C 83.688418 132.625912 83.986083 132.502615 84.205522 132.283176 
C 84.424961 132.063737 84.548258 131.766072 84.548258 131.455738 
C 84.548258 131.145405 84.424961 130.84774 84.205522 130.6283 
C 83.986083 130.408861 83.688418 130.285565 83.378084 130.285565 
C 83.067751 130.285565 82.770086 130.408861 82.550647 130.6283 
C 82.331208 130.84774 82.207911 131.145405 82.207911 131.455738 
C 82.207911 131.766072 82.331208 132.063737 82.550647 132.283176 
C 82.770086 132.502615 83.067751 132.625912 83.378084 132.625912 
z
" clip-path="url(#p6e82319058)" style="stroke: #000000"/>
    <path d="M 78.599213 113.65518 
C 78.756904 113.65518 78.908157 113.592529 79.019661 113.481025 
C 79.131165 113.369521 79.193816 113.218267 79.193816 113.060576 
C 79.193816 112.902886 79.131165 112.751632 79.019661 112.640128 
C 78.908157 112.528624 78.756904 112.465973 78.599213 112.465973 
C 78.441522 112.465973 78.290269 112.528624 78.178765 112.640128 
C 78.06726 112.751632 78.004609 112.902886 78.004609 113.060576 
C 78.004609 113.218267 78.06726 113.369521 78.178765 113.481025 
C 78.290269 113.592529 78.441522 113.65518 78.599213 113.65518 
z
" clip-path="url(#p6e82319058)" style="stroke: #000000"/>
    <path d="M 73.085965 109.848014 
C 73.293498 109.848014 73.492558 109.76556 73.639306 109.618812 
C 73.786054 109.472065 73.868507 109.273004 73.868507 109.065472 
C 73.868507 108.857939 73.786054 108.658878 73.639306 108.512131 
C 73.492558 108.365383 73.293498 108.282929 73.085965 108.282929 
C 72.878432 108.282929 72.679372 108.365383 72.532624 108.512131 
C 72.385876 108.658878 72.303423 108.857939 72.303423 109.065472 
C 72.303423 109.273004 72.385876 109.472065 72.532624 109.618812 
C 72.679372 109.76556 72.878432 109.848014 73.085965 109.848014 
z
" clip-path="url(#p6e82319058)" style="stroke: #000000"/>
    <path d="M 70.799017 95.729927 
C 71.059976 95.729927 71.310281 95.626247 71.494807 95.441721 
C 71.679332 95.257196 71.783012 95.00689 71.783012 94.745932 
C 71.783012 94.484973 71.679332 94.234668 71.494807 94.050143 
C 71.310281 93.865617 71.059976 93.761937 70.799017 93.761937 
C 70.538059 93.761937 70.287753 93.865617 70.103228 94.050143 
C 69.918702 94.234668 69.815022 94.484973 69.815022 94.745932 
C 69.815022 95.00689 69.918702 95.257196 70.103228 95.441721 
C 70.287753 95.626247 70.538059 95.729927 70.799017 95.729927 
z
" clip-path="url(#p6e82319058)" style="stroke: #000000"/>
    <path d="M 67.021344 85.099562 
C 67.488464 85.099562 67.936515 84.913973 68.266819 84.583669 
C 68.597123 84.253365 68.782712 83.805314 68.782712 83.338194 
C 68.782712 82.871073 68.597123 82.423022 68.266819 82.092718 
C 67.936515 81.762414 67.488464 81.576825 67.021344 81.576825 
C 66.554223 81.576825 66.106172 81.762414 65.775868 82.092718 
C 65.445564 82.423022 65.259975 82.871073 65.259975 83.338194 
C 65.259975 83.805314 65.445564 84.253365 65.775868 84.583669 
C 66.106172 84.913973 66.554223 85.099562 67.021344 85.099562 
z
" clip-path="url(#p6e82319058)" style="stroke: #000000"/>
    <path d="M 75.760369 121.676968 
C 75.892971 121.676968 76.020159 121.624285 76.113923 121.530522 
C 76.207686 121.436758 76.260369 121.30957 76.260369 121.176968 
C 76.260369 121.044367 76.207686 120.917178 76.113923 120.823415 
C 76.020159 120.729651 75.892971 120.676968 75.760369 120.676968 
C 75.627768 120.676968 75.500579 120.729651 75.406816 120.823415 
C 75.313053 120.917178 75.260369 121.044367 75.260369 121.176968 
C 75.260369 121.30957 75.313053 121.436758 75.406816 121.530522 
C 75.500579 121.624285 75.627768 121.676968 75.760369 121.676968 
z
" clip-path="url(#p6e82319058)" style="stroke: #000000"/>
    <path d="M 71.688623 120.272592 
C 72.103688 120.272592 72.501809 120.107685 72.795305 119.81419 
C 73.0888 119.520694 73.253708 119.122573 73.253708 118.707508 
C 73.253708 118.292442 73.0888 117.894321 72.795305 117.600826 
C 72.501809 117.30733 72.103688 117.142423 71.688623 117.142423 
C 71.273558 117.142423 70.875436 117.30733 70.581941 117.600826 
C 70.288446 117.894321 70.123538 118.292442 70.123538 118.707508 
C 70.123538 119.122573 70.288446 119.520694 70.581941 119.81419 
C 70.875436 120.107685 71.273558 120.272592 71.688623 120.272592 
z
" clip-path="url(#p6e82319058)" style="stroke: #000000"/>
    <path d="M 69.06778 109.418587 
C 69.479564 109.418587 69.874537 109.254984 70.165712 108.963809 
C 70.456888 108.672633 70.620491 108.27766 70.620491 107.865876 
C 70.620491 107.454092 70.456888 107.059118 70.165712 106.767943 
C 69.874537 106.476768 69.479564 106.313164 69.06778 106.313164 
C 68.655996 106.313164 68.261022 106.476768 67.969847 106.767943 
C 67.678672 107.059118 67.515068 107.454092 67.515068 107.865876 
C 67.515068 108.27766 67.678672 108.672633 67.969847 108.963809 
C 68.261022 109.254984 68.655996 109.418587 69.06778 109.418587 
z
" clip-path="url(#p6e82319058)" style="stroke: #000000"/>
    <path d="M 67.185273 105.200119 
C 67.54473 105.200119 67.889513 105.057305 68.143688 104.803131 
C 68.397863 104.548956 68.540676 104.204173 68.540676 103.844716 
C 68.540676 103.485259 68.397863 103.140476 68.143688 102.886302 
C 67.889513 102.632127 67.54473 102.489313 67.185273 102.489313 
C 66.825816 102.489313 66.481033 102.632127 66.226859 102.886302 
C 65.972684 103.140476 65.82987 103.485259 65.82987 103.844716 
C 65.82987 104.204173 65.972684 104.548956 66.226859 104.803131 
C 66.481033 105.057305 66.825816 105.200119 67.185273 105.200119 
z
" clip-path="url(#p6e82319058)" style="stroke: #000000"/>
    <path d="M 69.022935 100.196489 
C 69.155536 100.196489 69.282725 100.143806 69.376488 100.050042 
C 69.470252 99.956279 69.522935 99.82909 69.522935 99.696489 
C 69.522935 99.563887 69.470252 99.436699 69.376488 99.342935 
C 69.282725 99.249172 69.155536 99.196489 69.022935 99.196489 
C 68.890333 99.196489 68.763145 99.249172 68.669381 99.342935 
C 68.575618 99.436699 68.522935 99.563887 68.522935 99.696489 
C 68.522935 99.82909 68.575618 99.956279 68.669381 100.050042 
C 68.763145 100.143806 68.890333 100.196489 69.022935 100.196489 
z
" clip-path="url(#p6e82319058)" style="stroke: #000000"/>
    <path d="M 69.476704 131.83218 
C 69.803742 131.83218 70.11743 131.702246 70.348681 131.470995 
C 70.579933 131.239744 70.709867 130.926056 70.709867 130.599017 
C 70.709867 130.271978 70.579933 129.95829 70.348681 129.727039 
C 70.11743 129.495788 69.803742 129.365854 69.476704 129.365854 
C 69.149665 129.365854 68.835977 129.495788 68.604726 129.727039 
C 68.373475 129.95829 68.243541 130.271978 68.243541 130.599017 
C 68.243541 130.926056 68.373475 131.239744 68.604726 131.470995 
C 68.835977 131.702246 69.149665 131.83218 69.476704 131.83218 
z
" clip-path="url(#p6e82319058)" style="stroke: #000000"/>
    <path d="M 64.329109 122.742219 
C 64.612969 122.742219 64.88524 122.62944 65.085959 122.428721 
C 65.286678 122.228002 65.399457 121.955731 65.399457 121.671871 
C 65.399457 121.388012 65.286678 121.11574 65.085959 120.915021 
C 64.88524 120.714302 64.612969 120.601523 64.329109 120.601523 
C 64.04525 120.601523 63.772978 120.714302 63.572259 120.915021 
C 63.37154 121.11574 63.258762 121.388012 63.258762 121.671871 
C 63.258762 121.955731 63.37154 122.228002 63.572259 122.428721 
C 63.772978 122.62944 64.04525 122.742219 64.329109 122.742219 
z
" clip-path="url(#p6e82319058)" style="stroke: #000000"/>
    <path d="M 63.153899 114.288282 
C 63.395388 114.288282 63.627018 114.192337 63.797777 114.021579 
C 63.968535 113.850821 64.06448 113.61919 64.06448 113.377701 
C 64.06448 113.136213 63.968535 112.904582 63.797777 112.733824 
C 63.627018 112.563066 63.395388 112.467121 63.153899 112.467121 
C 62.912411 112.467121 62.68078 112.563066 62.510022 112.733824 
C 62.339264 112.904582 62.243319 113.136213 62.243319 113.377701 
C 62.243319 113.61919 62.339264 113.850821 62.510022 114.021579 
C 62.68078 114.192337 62.912411 114.288282 63.153899 114.288282 
z
" clip-path="url(#p6e82319058)" style="stroke: #000000"/>
    <path d="M 63.808288 107.744795 
C 64.201088 107.744795 64.577853 107.588734 64.855604 107.310982 
C 65.133355 107.033231 65.289416 106.656466 65.289416 106.263666 
C 65.289416 105.870867 65.133355 105.494102 64.855604 105.21635 
C 64.577853 104.938599 64.201088 104.782538 63.808288 104.782538 
C 63.415488 104.782538 63.038724 104.938599 62.760972 105.21635 
C 62.483221 105.494102 62.32716 105.870867 62.32716 106.263666 
C 62.32716 106.656466 62.483221 107.033231 62.760972 107.310982 
C 63.038724 107.588734 63.415488 107.744795 63.808288 107.744795 
z
" clip-path="url(#p6e82319058)" style="stroke: #000000"/>
    <path d="M 59.282985 102.659558 
C 59.566845 102.659558 59.839116 102.546779 60.039835 102.34606 
C 60.240554 102.145341 60.353333 101.87307 60.353333 101.58921 
C 60.353333 101.305351 60.240554 101.033079 60.039835 100.83236 
C 59.839116 100.631641 59.566845 100.518863 59.282985 100.518863 
C 58.999126 100.518863 58.726854 100.631641 58.526135 100.83236 
C 58.325416 101.033079 58.212638 101.305351 58.212638 101.58921 
C 58.212638 101.87307 58.325416 102.145341 58.526135 102.34606 
C 58.726854 102.546779 58.999126 102.659558 59.282985 102.659558 
z
" clip-path="url(#p6e82319058)" style="stroke: #000000"/>
    <path d="M 56.097587 96.029227 
C 56.435155 96.029227 56.758942 95.89511 56.997639 95.656414 
C 57.236335 95.417717 57.370452 95.09393 57.370452 94.756362 
C 57.370452 94.418795 57.236335 94.095007 56.997639 93.856311 
C 56.758942 93.617614 56.435155 93.483497 56.097587 93.483497 
C 55.76002 93.483497 55.436232 93.617614 55.197536 93.856311 
C 54.95884 94.095007 54.824723 94.418795 54.824723 94.756362 
C 54.824723 95.09393 54.95884 95.417717 55.197536 95.656414 
C 55.436232 95.89511 55.76002 96.029227 56.097587 96.029227 
z
" clip-path="url(#p6e82319058)" style="stroke: #000000"/>
    <path d="M 62.848649 135.76021 
C 63.036175 135.76021 63.216047 135.685705 63.348649 135.553103 
C 63.48125 135.420502 63.555755 135.24063 63.555755 135.053103 
C 63.555755 134.865576 63.48125 134.685705 63.348649 134.553103 
C 63.216047 134.420502 63.036175 134.345996 62.848649 134.345996 
C 62.661122 134.345996 62.48125 134.420502 62.348649 134.553103 
C 62.216047 134.685705 62.141542 134.865576 62.141542 135.053103 
C 62.141542 135.24063 62.216047 135.420502 62.348649 135.553103 
C 62.48125 135.685705 62.661122 135.76021 62.848649 135.76021 
z
" clip-path="url(#p6e82319058)" style="stroke: #000000"/>
    <path d="M 62.293915 126.77794 
C 62.492201 126.77794 62.682392 126.69916 62.822601 126.558951 
C 62.96281 126.418742 63.04159 126.228551 63.04159 126.030266 
C 63.04159 125.83198 62.96281 125.641789 62.822601 125.50158 
C 62.682392 125.361371 62.492201 125.282591 62.293915 125.282591 
C 62.09563 125.282591 61.905439 125.361371 61.76523 125.50158 
C 61.625021 125.641789 61.546241 125.83198 61.546241 126.030266 
C 61.546241 126.228551 61.625021 126.418742 61.76523 126.558951 
C 61.905439 126.69916 62.09563 126.77794 62.293915 126.77794 
z
" clip-path="url(#p6e82319058)" style="stroke: #000000"/>
    <path d="M 59.293419 119.721117 
C 59.755921 119.721117 60.199543 119.537363 60.526582 119.210325 
C 60.85362 118.883286 61.037375 118.439664 61.037375 117.977162 
C 61.037375 117.514659 60.85362 117.071037 60.526582 116.743999 
C 60.199543 116.41696 59.755921 116.233206 59.293419 116.233206 
C 58.830917 116.233206 58.387295 116.41696 58.060256 116.743999 
C 57.733217 117.071037 57.549463 117.514659 57.549463 117.977162 
C 57.549463 118.439664 57.733217 118.883286 58.060256 119.210325 
C 58.387295 119.537363 58.830917 119.721117 59.293419 119.721117 
z
" clip-path="url(#p6e82319058)" style="stroke: #000000"/>
    <path d="M 59.485677 117.552081 
C 59.841758 117.552081 60.183304 117.410609 60.435091 117.158821 
C 60.686879 116.907033 60.828352 116.565488 60.828352 116.209407 
C 60.828352 115.853325 60.686879 115.51178 60.435091 115.259992 
C 60.183304 115.008204 59.841758 114.866732 59.485677 114.866732 
C 59.129595 114.866732 58.78805 115.008204 58.536262 115.259992 
C 58.284475 115.51178 58.143002 115.853325 58.143002 116.209407 
C 58.143002 116.565488 58.284475 116.907033 58.536262 117.158821 
C 58.78805 117.410609 59.129595 117.552081 59.485677 117.552081 
z
" clip-path="url(#p6e82319058)" style="stroke: #000000"/>
    <path d="M 55.597356 108.282931 
C 55.729958 108.282931 55.857146 108.230248 55.95091 108.136484 
C 56.044673 108.042721 56.097356 107.915533 56.097356 107.782931 
C 56.097356 107.65033 56.044673 107.523141 55.95091 107.429378 
C 55.857146 107.335614 55.729958 107.282931 55.597356 107.282931 
C 55.464755 107.282931 55.337566 107.335614 55.243803 107.429378 
C 55.150039 107.523141 55.097356 107.65033 55.097356 107.782931 
C 55.097356 107.915533 55.150039 108.042721 55.243803 108.136484 
C 55.337566 108.230248 55.464755 108.282931 55.597356 108.282931 
z
" clip-path="url(#p6e82319058)" style="stroke: #000000"/>
    <path d="M 50.771547 104.182927 
C 51.048392 104.182927 51.313936 104.072936 51.509695 103.877177 
C 51.705454 103.681417 51.815446 103.415874 51.815446 103.139029 
C 51.815446 102.862183 51.705454 102.59664 51.509695 102.400881 
C 51.313936 102.205122 51.048392 102.09513 50.771547 102.09513 
C 50.494702 102.09513 50.229158 102.205122 50.033399 102.400881 
C 49.83764 102.59664 49.727648 102.862183 49.727648 103.139029 
C 49.727648 103.415874 49.83764 103.681417 50.033399 103.877177 
C 50.229158 104.072936 50.494702 104.182927 50.771547 104.182927 
z
" clip-path="url(#p6e82319058)" style="stroke: #000000"/>
    <path d="M 52.516807 96.983763 
C 52.724339 96.983763 52.9234 96.90131 53.070148 96.754562 
C 53.216895 96.607814 53.299349 96.408754 53.299349 96.201221 
C 53.299349 95.993689 53.216895 95.794628 53.070148 95.64788 
C 52.9234 95.501132 52.724339 95.418679 52.516807 95.418679 
C 52.309274 95.418679 52.110213 95.501132 51.963466 95.64788 
C 51.816718 95.794628 51.734264 95.993689 51.734264 96.201221 
C 51.734264 96.408754 51.816718 96.607814 51.963466 96.754562 
C 52.110213 96.90131 52.309274 96.983763 52.516807 96.983763 
z
" clip-path="url(#p6e82319058)" style="stroke: #000000"/>
    <path d="M 37.637677 60.281955 
C 37.770279 60.281955 37.897467 60.229272 37.991231 60.135508 
C 38.084994 60.041745 38.137677 59.914557 38.137677 59.781955 
C 38.137677 59.649354 38.084994 59.522165 37.991231 59.428402 
C 37.897467 59.334638 37.770279 59.281955 37.637677 59.281955 
C 37.505076 59.281955 37.377887 59.334638 37.284124 59.428402 
C 37.19036 59.522165 37.137677 59.649354 37.137677 59.781955 
C 37.137677 59.914557 37.19036 60.041745 37.284124 60.135508 
C 37.377887 60.229272 37.505076 60.281955 37.637677 60.281955 
z
" clip-path="url(#p6e82319058)" style="stroke: #000000"/>
    <path d="M 52.448223 123.707643 
C 52.63575 123.707643 52.815622 123.633138 52.948223 123.500536 
C 53.080825 123.367935 53.15533 123.188063 53.15533 123.000536 
C 53.15533 122.81301 53.080825 122.633138 52.948223 122.500536 
C 52.815622 122.367935 52.63575 122.29343 52.448223 122.29343 
C 52.260697 122.29343 52.080825 122.367935 51.948223 122.500536 
C 51.815622 122.633138 51.741117 122.81301 51.741117 123.000536 
C 51.741117 123.188063 51.815622 123.367935 51.948223 123.500536 
C 52.080825 123.633138 52.260697 123.707643 52.448223 123.707643 
z
" clip-path="url(#p6e82319058)" style="stroke: #000000"/>
    <path d="M 52.320804 118.010033 
C 52.556607 118.010033 52.782783 117.916348 52.949521 117.74961 
C 53.116259 117.582873 53.209944 117.356696 53.209944 117.120893 
C 53.209944 116.885091 53.116259 116.658914 52.949521 116.492177 
C 52.782783 116.325439 52.556607 116.231754 52.320804 116.231754 
C 52.085002 116.231754 51.858825 116.325439 51.692088 116.492177 
C 51.52535 116.658914 51.431665 116.885091 51.431665 117.120893 
C 51.431665 117.356696 51.52535 117.582873 51.692088 117.74961 
C 51.858825 117.916348 52.085002 118.010033 52.320804 118.010033 
z
" clip-path="url(#p6e82319058)" style="stroke: #000000"/>
    <path d="M 49.080296 111.6573 
C 49.212898 111.6573 49.340086 111.604617 49.43385 111.510853 
C 49.527613 111.41709 49.580296 111.289901 49.580296 111.1573 
C 49.580296 111.024698 49.527613 110.89751 49.43385 110.803746 
C 49.340086 110.709983 49.212898 110.6573 49.080296 110.6573 
C 48.947695 110.6573 48.820506 110.709983 48.726743 110.803746 
C 48.63298 110.89751 48.580296 111.024698 48.580296 111.1573 
C 48.580296 111.289901 48.63298 111.41709 48.726743 111.510853 
C 48.820506 111.604617 48.947695 111.6573 49.080296 111.6573 
z
" clip-path="url(#p6e82319058)" style="stroke: #000000"/>
    <path d="M 41.804735 106.906609 
C 41.937336 106.906609 42.064524 106.853926 42.158288 106.760162 
C 42.252051 106.666399 42.304735 106.539211 42.304735 106.406609 
C 42.304735 106.274007 42.252051 106.146819 42.158288 106.053056 
C 42.064524 105.959292 41.937336 105.906609 41.804735 105.906609 
C 41.672133 105.906609 41.544945 105.959292 41.451181 106.053056 
C 41.357418 106.146819 41.304735 106.274007 41.304735 106.406609 
C 41.304735 106.539211 41.357418 106.666399 41.451181 106.760162 
C 41.544945 106.853926 41.672133 106.906609 41.804735 106.906609 
z
" clip-path="url(#p6e82319058)" style="stroke: #000000"/>
   </g>
   <g id="matplotlib.axis_1">
    <g id="xtick_1">
     <g id="line2d_1">
      <defs>
       <path id="m66dbd538a1" d="M 0 0 
L 0 3.5 
" style="stroke: #000000; stroke-width: 0.8"/>
      </defs>
      <g>
       <use xlink:href="#m66dbd538a1" x="18" y="189" style="stroke: #000000; stroke-width: 0.8"/>
      </g>
     </g>
     <g id="text_1">
      <!-- −10 -->
      <g transform="translate(7.447656 203.598437)scale(0.1 -0.1)">
       <defs>
        <path id="DejaVuSans-2212" d="M 678 2272 
L 4684 2272 
L 4684 1741 
L 678 1741 
L 678 2272 
z
" transform="scale(0.015625)"/>
        <path id="DejaVuSans-31" d="M 794 531 
L 1825 531 
L 1825 4091 
L 703 3866 
L 703 4441 
L 1819 4666 
L 2450 4666 
L 2450 531 
L 3481 531 
L 3481 0 
L 794 0 
L 794 531 
z
" transform="scale(0.015625)"/>
        <path id="DejaVuSans-30" d="M 2034 4250 
Q 1547 4250 1301 3770 
Q 1056 3291 1056 2328 
Q 1056 1369 1301 889 
Q 1547 409 2034 409 
Q 2525 409 2770 889 
Q 3016 1369 3016 2328 
Q 3016 3291 2770 3770 
Q 2525 4250 2034 4250 
z
M 2034 4750 
Q 2819 4750 3233 4129 
Q 3647 3509 3647 2328 
Q 3647 1150 3233 529 
Q 2819 -91 2034 -91 
Q 1250 -91 836 529 
Q 422 1150 422 2328 
Q 422 3509 836 4129 
Q 1250 4750 2034 4750 
z
" transform="scale(0.015625)"/>
       </defs>
       <use xlink:href="#DejaVuSans-2212"/>
       <use xlink:href="#DejaVuSans-31" x="83.789062"/>
       <use xlink:href="#DejaVuSans-30" x="147.412109"/>
      </g>
     </g>
    </g>
    <g id="xtick_2">
     <g id="line2d_2">
      <g>
       <use xlink:href="#m66dbd538a1" x="73.8" y="189" style="stroke: #000000; stroke-width: 0.8"/>
      </g>
     </g>
     <g id="text_2">
      <!-- 0 -->
      <g transform="translate(70.61875 203.598437)scale(0.1 -0.1)">
       <use xlink:href="#DejaVuSans-30"/>
      </g>
     </g>
    </g>
    <g id="xtick_3">
     <g id="line2d_3">
      <g>
       <use xlink:href="#m66dbd538a1" x="129.6" y="189" style="stroke: #000000; stroke-width: 0.8"/>
      </g>
     </g>
     <g id="text_3">
      <!-- 10 -->
      <g transform="translate(123.2375 203.598437)scale(0.1 -0.1)">
       <use xlink:href="#DejaVuSans-31"/>
       <use xlink:href="#DejaVuSans-30" x="63.623047"/>
      </g>
     </g>
    </g>
   </g>
   <g id="matplotlib.axis_2">
    <g id="ytick_1">
     <g id="line2d_4">
      <defs>
       <path id="md153d7b455" d="M 0 0 
L -3.5 0 
" style="stroke: #000000; stroke-width: 0.8"/>
      </defs>
      <g>
       <use xlink:href="#md153d7b455" x="18" y="189" style="stroke: #000000; stroke-width: 0.8"/>
      </g>
     </g>
     <g id="text_4">
      <!-- −15 -->
      <g transform="translate(-10.104688 192.799219)scale(0.1 -0.1)">
       <defs>
        <path id="DejaVuSans-35" d="M 691 4666 
L 3169 4666 
L 3169 4134 
L 1269 4134 
L 1269 2991 
Q 1406 3038 1543 3061 
Q 1681 3084 1819 3084 
Q 2600 3084 3056 2656 
Q 3513 2228 3513 1497 
Q 3513 744 3044 326 
Q 2575 -91 1722 -91 
Q 1428 -91 1123 -41 
Q 819 9 494 109 
L 494 744 
Q 775 591 1075 516 
Q 1375 441 1709 441 
Q 2250 441 2565 725 
Q 2881 1009 2881 1497 
Q 2881 1984 2565 2268 
Q 2250 2553 1709 2553 
Q 1456 2553 1204 2497 
Q 953 2441 691 2322 
L 691 4666 
z
" transform="scale(0.015625)"/>
       </defs>
       <use xlink:href="#DejaVuSans-2212"/>
       <use xlink:href="#DejaVuSans-31" x="83.789062"/>
       <use xlink:href="#DejaVuSans-35" x="147.412109"/>
      </g>
     </g>
    </g>
    <g id="ytick_2">
     <g id="line2d_5">
      <g>
       <use xlink:href="#md153d7b455" x="18" y="161.82" style="stroke: #000000; stroke-width: 0.8"/>
      </g>
     </g>
     <g id="text_5">
      <!-- −10 -->
      <g transform="translate(-10.104688 165.619219)scale(0.1 -0.1)">
       <use xlink:href="#DejaVuSans-2212"/>
       <use xlink:href="#DejaVuSans-31" x="83.789062"/>
       <use xlink:href="#DejaVuSans-30" x="147.412109"/>
      </g>
     </g>
    </g>
    <g id="ytick_3">
     <g id="line2d_6">
      <g>
       <use xlink:href="#md153d7b455" x="18" y="134.64" style="stroke: #000000; stroke-width: 0.8"/>
      </g>
     </g>
     <g id="text_6">
      <!-- −5 -->
      <g transform="translate(-3.742188 138.439219)scale(0.1 -0.1)">
       <use xlink:href="#DejaVuSans-2212"/>
       <use xlink:href="#DejaVuSans-35" x="83.789062"/>
      </g>
     </g>
    </g>
    <g id="ytick_4">
     <g id="line2d_7">
      <g>
       <use xlink:href="#md153d7b455" x="18" y="107.46" style="stroke: #000000; stroke-width: 0.8"/>
      </g>
     </g>
     <g id="text_7">
      <!-- 0 -->
      <g transform="translate(4.6375 111.259219)scale(0.1 -0.1)">
       <use xlink:href="#DejaVuSans-30"/>
      </g>
     </g>
    </g>
    <g id="ytick_5">
     <g id="line2d_8">
      <g>
       <use xlink:href="#md153d7b455" x="18" y="80.28" style="stroke: #000000; stroke-width: 0.8"/>
      </g>
     </g>
     <g id="text_8">
      <!-- 5 -->
      <g transform="translate(4.6375 84.079219)scale(0.1 -0.1)">
       <use xlink:href="#DejaVuSans-35"/>
      </g>
     </g>
    </g>
    <g id="ytick_6">
     <g id="line2d_9">
      <g>
       <use xlink:href="#md153d7b455" x="18" y="53.1" style="stroke: #000000; stroke-width: 0.8"/>
      </g>
     </g>
     <g id="text_9">
      <!-- 10 -->
      <g transform="translate(-1.725 56.899219)scale(0.1 -0.1)">
       <use xlink:href="#DejaVuSans-31"/>
       <use xlink:href="#DejaVuSans-30" x="63.623047"/>
      </g>
     </g>
    </g>
    <g id="ytick_7">
     <g id="line2d_10">
      <g>
       <use xlink:href="#md153d7b455" x="18" y="25.92" style="stroke: #000000; stroke-width: 0.8"/>
      </g>
     </g>
     <g id="text_10">
      <!-- 15 -->
      <g transform="translate(-1.725 29.719219)scale(0.1 -0.1)">
       <use xlink:href="#DejaVuSans-31"/>
       <use xlink:href="#DejaVuSans-35" x="63.623047"/>
      </g>
     </g>
    </g>
   </g>
   <g id="patch_3">
    <path d="M 18 189 
L 18 25.92 
" style="fill: none; stroke: #000000; stroke-width: 0.8; stroke-linejoin: miter; stroke-linecap: square"/>
   </g>
   <g id="patch_4">
    <path d="M 129.6 189 
L 129.6 25.92 
" style="fill: none; stroke: #000000; stroke-width: 0.8; stroke-linejoin: miter; stroke-linecap: square"/>
   </g>
   <g id="patch_5">
    <path d="M 18 189 
L 129.6 189 
" style="fill: none; stroke: #000000; stroke-width: 0.8; stroke-linejoin: miter; stroke-linecap: square"/>
   </g>
   <g id="patch_6">
    <path d="M 18 25.92 
L 129.6 25.92 
" style="fill: none; stroke: #000000; stroke-width: 0.8; stroke-linejoin: miter; stroke-linecap: square"/>
   </g>
  </g>
 </g>
 <defs>
  <clipPath id="p6e82319058">
   <rect x="18" y="25.92" width="111.6" height="163.08"/>
  </clipPath>
 </defs>
</svg>
