<?xml version="1.0" encoding="utf-8" standalone="no"?>
<!DOCTYPE svg PUBLIC "-//W3C//DTD SVG 1.1//EN"
  "http://www.w3.org/Graphics/SVG/1.1/DTD/svg11.dtd">
<svg xmlns:xlink="http://www.w3.org/1999/xlink" width="144pt" height="216pt" viewBox="0 0 144 216" xmlns="http://www.w3.org/2000/svg" version="1.1">
 <metadata>
  <rdf:RDF xmlns:dc="http://purl.org/dc/elements/1.1/" xmlns:cc="http://creativecommons.org/ns#" xmlns:rdf="http://www.w3.org/1999/02/22-rdf-syntax-ns#">
   <cc:Work>
    <dc:type rdf:resource="http://purl.org/dc/dcmitype/StillImage"/>
    <dc:date>2022-06-28T09:25:26.430698</dc:date>
    <dc:format>image/svg+xml</dc:format>
    <dc:creator>
     <cc:Agent>
      <dc:title>Matplotlib v3.5.1, https://matplotlib.org/</dc:title>
     </cc:Agent>
    </dc:creator>
   </cc:Work>
  </rdf:RDF>
 </metadata>
 <defs>
  <style type="text/css">*{stroke-linejoin: round; stroke-linecap: butt}</style>
 </defs>
 <g id="figure_1">
  <g id="patch_1">
   <path d="M 0 216 
L 144 216 
L 144 0 
L 0 0 
L 0 216 
z
" style="fill: none"/>
  </g>
  <g id="axes_1">
   <g id="patch_2">
    <path d="M 18 189 
L 129.6 189 
L 129.6 25.92 
L 18 25.92 
z
" style="fill: #ffffff"/>
   </g>
   <g id="PathCollection_1">
    <defs>
     <path id="mf09e788b26" d="M 0 2.738613 
C 0.726289 2.738613 1.422928 2.450055 1.936492 1.936492 
C 2.450055 1.422928 2.738613 0.726289 2.738613 0 
C 2.738613 -0.726289 2.450055 -1.422928 1.936492 -1.936492 
C 1.422928 -2.450055 0.726289 -2.738613 0 -2.738613 
C -0.726289 -2.738613 -1.422928 -2.450055 -1.936492 -1.936492 
C -2.450055 -1.422928 -2.738613 -0.726289 -2.738613 0 
C -2.738613 0.726289 -2.450055 1.422928 -1.936492 1.936492 
C -1.422928 2.450055 -0.726289 2.738613 0 2.738613 
z
" style="stroke: #ff0000; stroke-width: 1.75"/>
    </defs>
    <g clip-path="url(#pc6aceacfbd)">
     <use xlink:href="#mf09e788b26" x="80.775" y="107.46" style="fill: #ff0000; stroke: #ff0000; stroke-width: 1.75"/>
     <use xlink:href="#mf09e788b26" x="94.725" y="107.46" style="fill: #ff0000; stroke: #ff0000; stroke-width: 1.75"/>
     <use xlink:href="#mf09e788b26" x="59.85" y="119.229285" style="fill: #ff0000; stroke: #ff0000; stroke-width: 1.75"/>
     <use xlink:href="#mf09e788b26" x="73.8" y="119.229285" style="fill: #ff0000; stroke: #ff0000; stroke-width: 1.75"/>
     <use xlink:href="#mf09e788b26" x="87.75" y="119.229285" style="fill: #ff0000; stroke: #ff0000; stroke-width: 1.75"/>
     <use xlink:href="#mf09e788b26" x="66.825" y="130.99857" style="fill: #ff0000; stroke: #ff0000; stroke-width: 1.75"/>
     <use xlink:href="#mf09e788b26" x="80.775" y="130.99857" style="fill: #ff0000; stroke: #ff0000; stroke-width: 1.75"/>
    </g>
   </g>
   <g id="PathCollection_2">
    <defs>
     <path id="C0_0_c8fc971d62" d="M 0 2.738613 
C 0.726289 2.738613 1.422928 2.450055 1.936492 1.936492 
C 2.450055 1.422928 2.738613 0.726289 2.738613 -0 
C 2.738613 -0.726289 2.450055 -1.422928 1.936492 -1.936492 
C 1.422928 -2.450055 0.726289 -2.738613 0 -2.738613 
C -0.726289 -2.738613 -1.422928 -2.450055 -1.936492 -1.936492 
C -2.450055 -1.422928 -2.738613 -0.726289 -2.738613 0 
C -2.738613 0.726289 -2.450055 1.422928 -1.936492 1.936492 
C -1.422928 2.450055 -0.726289 2.738613 0 2.738613 
z
"/>
    </defs>
    <g clip-path="url(#pc6aceacfbd)">
     <use xlink:href="#C0_0_c8fc971d62" x="66.825" y="83.92143" style="fill: none; stroke: #ff0000; stroke-width: 1.75"/>
    </g>
    <g clip-path="url(#pc6aceacfbd)">
     <use xlink:href="#C0_0_c8fc971d62" x="80.775" y="83.92143" style="fill: none; stroke: #ff0000; stroke-width: 1.75"/>
    </g>
    <g clip-path="url(#pc6aceacfbd)">
     <use xlink:href="#C0_0_c8fc971d62" x="59.85" y="95.690715" style="fill: none; stroke: #ff0000; stroke-width: 1.75"/>
    </g>
    <g clip-path="url(#pc6aceacfbd)">
     <use xlink:href="#C0_0_c8fc971d62" x="73.8" y="95.690715" style="fill: none; stroke: #ff0000; stroke-width: 1.75"/>
    </g>
    <g clip-path="url(#pc6aceacfbd)">
     <use xlink:href="#C0_0_c8fc971d62" x="87.75" y="95.690715" style="fill: none; stroke: #ff0000; stroke-width: 1.75"/>
    </g>
    <g clip-path="url(#pc6aceacfbd)">
     <use xlink:href="#C0_0_c8fc971d62" x="52.875" y="107.46" style="fill: none; stroke: #ff0000; stroke-width: 1.75"/>
    </g>
    <g clip-path="url(#pc6aceacfbd)">
     <use xlink:href="#C0_0_c8fc971d62" x="66.825" y="107.46" style="fill: none; stroke: #ff0000; stroke-width: 1.75"/>
    </g>
   </g>
   <g id="PathCollection_3">
    <path d="M 95.898739 109.59634 
C 96.402918 109.59634 96.886516 109.396027 97.243024 109.039519 
C 97.599533 108.68301 97.799846 108.199412 97.799846 107.695233 
C 97.799846 107.191054 97.599533 106.707456 97.243024 106.350947 
C 96.886516 105.994439 96.402918 105.794126 95.898739 105.794126 
C 95.394559 105.794126 94.910962 105.994439 94.554453 106.350947 
C 94.197944 106.707456 93.997632 107.191054 93.997632 107.695233 
C 93.997632 108.199412 94.197944 108.68301 94.554453 109.039519 
C 94.910962 109.396027 95.394559 109.59634 95.898739 109.59634 
z
" clip-path="url(#pc6aceacfbd)" style="stroke: #000000"/>
    <path d="M 90.950318 96.706847 
C 91.402311 96.706847 91.835853 96.527268 92.155461 96.207661 
C 92.475068 95.888053 92.654647 95.454511 92.654647 95.002518 
C 92.654647 94.550525 92.475068 94.116983 92.155461 93.797375 
C 91.835853 93.477768 91.402311 93.298189 90.950318 93.298189 
C 90.498325 93.298189 90.064783 93.477768 89.745175 93.797375 
C 89.425568 94.116983 89.245989 94.550525 89.245989 95.002518 
C 89.245989 95.454511 89.425568 95.888053 89.745175 96.207661 
C 90.064783 96.527268 90.498325 96.706847 90.950318 96.706847 
z
" clip-path="url(#pc6aceacfbd)" style="stroke: #000000"/>
    <path d="M 83.806265 88.130284 
C 84.096654 88.130284 84.375189 88.014911 84.580525 87.809575 
C 84.785861 87.604239 84.901234 87.325704 84.901234 87.035315 
C 84.901234 86.744926 84.785861 86.466391 84.580525 86.261055 
C 84.375189 86.055718 84.096654 85.940346 83.806265 85.940346 
C 83.515876 85.940346 83.237341 86.055718 83.032005 86.261055 
C 82.826669 86.466391 82.711296 86.744926 82.711296 87.035315 
C 82.711296 87.325704 82.826669 87.604239 83.032005 87.809575 
C 83.237341 88.014911 83.515876 88.130284 83.806265 88.130284 
z
" clip-path="url(#pc6aceacfbd)" style="stroke: #000000"/>
    <path d="M 82.027689 83.108665 
C 82.16029 83.108665 82.287478 83.055982 82.381242 82.962218 
C 82.475005 82.868455 82.527689 82.741266 82.527689 82.608665 
C 82.527689 82.476063 82.475005 82.348875 82.381242 82.255111 
C 82.287478 82.161348 82.16029 82.108665 82.027689 82.108665 
C 81.895087 82.108665 81.767899 82.161348 81.674135 82.255111 
C 81.580372 82.348875 81.527689 82.476063 81.527689 82.608665 
C 81.527689 82.741266 81.580372 82.868455 81.674135 82.962218 
C 81.767899 83.055982 81.895087 83.108665 82.027689 83.108665 
z
" clip-path="url(#pc6aceacfbd)" style="stroke: #000000"/>
    <path d="M 85.082684 106.281777 
C 85.240375 106.281777 85.391628 106.219126 85.503132 106.107622 
C 85.614636 105.996117 85.677287 105.844864 85.677287 105.687173 
C 85.677287 105.529483 85.614636 105.378229 85.503132 105.266725 
C 85.391628 105.155221 85.240375 105.09257 85.082684 105.09257 
C 84.924993 105.09257 84.77374 105.155221 84.662236 105.266725 
C 84.550731 105.378229 84.48808 105.529483 84.48808 105.687173 
C 84.48808 105.844864 84.550731 105.996117 84.662236 106.107622 
C 84.77374 106.219126 84.924993 106.281777 85.082684 106.281777 
z
" clip-path="url(#pc6aceacfbd)" style="stroke: #000000"/>
    <path d="M 90.10029 148.550701 
C 90.232892 148.550701 90.36008 148.498018 90.453844 148.404254 
C 90.547607 148.310491 90.60029 148.183302 90.60029 148.050701 
C 90.60029 147.918099 90.547607 147.790911 90.453844 147.697147 
C 90.36008 147.603384 90.232892 147.550701 90.10029 147.550701 
C 89.967689 147.550701 89.8405 147.603384 89.746737 147.697147 
C 89.652973 147.790911 89.60029 147.918099 89.60029 148.050701 
C 89.60029 148.183302 89.652973 148.310491 89.746737 148.404254 
C 89.8405 148.498018 89.967689 148.550701 90.10029 148.550701 
z
" clip-path="url(#pc6aceacfbd)" style="stroke: #000000"/>
    <path d="M 66.490518 84.352876 
C 66.918973 84.352876 67.329937 84.182649 67.632901 83.879686 
C 67.935864 83.576723 68.106091 83.165758 68.106091 82.737303 
C 68.106091 82.308848 67.935864 81.897884 67.632901 81.594921 
C 67.329937 81.291957 66.918973 81.12173 66.490518 81.12173 
C 66.062063 81.12173 65.651099 81.291957 65.348135 81.594921 
C 65.045172 81.897884 64.874945 82.308848 64.874945 82.737303 
C 64.874945 83.165758 65.045172 83.576723 65.348135 83.879686 
C 65.651099 84.182649 66.062063 84.352876 66.490518 84.352876 
z
" clip-path="url(#pc6aceacfbd)" style="stroke: #000000"/>
    <path d="M 79.467518 133.262065 
C 79.871324 133.262065 80.258646 133.101631 80.54418 132.816096 
C 80.829715 132.530562 80.990149 132.14324 80.990149 131.739434 
C 80.990149 131.335627 80.829715 130.948306 80.54418 130.662771 
C 80.258646 130.377237 79.871324 130.216803 79.467518 130.216803 
C 79.063711 130.216803 78.67639 130.377237 78.390855 130.662771 
C 78.105321 130.948306 77.944887 131.335627 77.944887 131.739434 
C 77.944887 132.14324 78.105321 132.530562 78.390855 132.816096 
C 78.67639 133.101631 79.063711 133.262065 79.467518 133.262065 
z
" clip-path="url(#pc6aceacfbd)" style="stroke: #000000"/>
    <path d="M 62.046783 86.151834 
C 62.435699 86.151834 62.808739 85.997316 63.083745 85.72231 
C 63.358751 85.447305 63.513269 85.074265 63.513269 84.685348 
C 63.513269 84.296431 63.358751 83.923391 63.083745 83.648386 
C 62.808739 83.37338 62.435699 83.218862 62.046783 83.218862 
C 61.657866 83.218862 61.284826 83.37338 61.009821 83.648386 
C 60.734815 83.923391 60.580297 84.296431 60.580297 84.685348 
C 60.580297 85.074265 60.734815 85.447305 61.009821 85.72231 
C 61.284826 85.997316 61.657866 86.151834 62.046783 86.151834 
z
" clip-path="url(#pc6aceacfbd)" style="stroke: #000000"/>
    <path d="M 70.499911 120.645302 
C 70.908333 120.645302 71.300082 120.483034 71.58888 120.194236 
C 71.877678 119.905438 72.039946 119.513689 72.039946 119.105267 
C 72.039946 118.696845 71.877678 118.305095 71.58888 118.016297 
C 71.300082 117.727499 70.908333 117.565232 70.499911 117.565232 
C 70.091489 117.565232 69.699739 117.727499 69.410941 118.016297 
C 69.122143 118.305095 68.959875 118.696845 68.959875 119.105267 
C 68.959875 119.513689 69.122143 119.905438 69.410941 120.194236 
C 69.699739 120.483034 70.091489 120.645302 70.499911 120.645302 
z
" clip-path="url(#pc6aceacfbd)" style="stroke: #000000"/>
    <path d="M 67.905735 111.548169 
C 68.113268 111.548169 68.312328 111.465715 68.459076 111.318967 
C 68.605824 111.17222 68.688277 110.973159 68.688277 110.765626 
C 68.688277 110.558094 68.605824 110.359033 68.459076 110.212285 
C 68.312328 110.065538 68.113268 109.983084 67.905735 109.983084 
C 67.698202 109.983084 67.499142 110.065538 67.352394 110.212285 
C 67.205646 110.359033 67.123193 110.558094 67.123193 110.765626 
C 67.123193 110.973159 67.205646 111.17222 67.352394 111.318967 
C 67.499142 111.465715 67.698202 111.548169 67.905735 111.548169 
z
" clip-path="url(#pc6aceacfbd)" style="stroke: #000000"/>
    <path d="M 65.186161 107.542645 
C 65.409169 107.542645 65.623074 107.454043 65.780765 107.296352 
C 65.938455 107.138661 66.027058 106.924757 66.027058 106.701749 
C 66.027058 106.47874 65.938455 106.264836 65.780765 106.107145 
C 65.623074 105.949454 65.409169 105.860852 65.186161 105.860852 
C 64.963153 105.860852 64.749248 105.949454 64.591558 106.107145 
C 64.433867 106.264836 64.345265 106.47874 64.345265 106.701749 
C 64.345265 106.924757 64.433867 107.138661 64.591558 107.296352 
C 64.749248 107.454043 64.963153 107.542645 65.186161 107.542645 
z
" clip-path="url(#pc6aceacfbd)" style="stroke: #000000"/>
    <path d="M 62.742106 96.885487 
C 63.137432 96.885487 63.51662 96.728422 63.796157 96.448884 
C 64.075695 96.169347 64.23276 95.790159 64.23276 95.394833 
C 64.23276 94.999507 64.075695 94.620319 63.796157 94.340782 
C 63.51662 94.061244 63.137432 93.904179 62.742106 93.904179 
C 62.34678 93.904179 61.967592 94.061244 61.688055 94.340782 
C 61.408517 94.620319 61.251452 94.999507 61.251452 95.394833 
C 61.251452 95.790159 61.408517 96.169347 61.688055 96.448884 
C 61.967592 96.728422 62.34678 96.885487 62.742106 96.885487 
z
" clip-path="url(#pc6aceacfbd)" style="stroke: #000000"/>
    <path d="M 69.23935 131.622013 
C 69.426877 131.622013 69.606749 131.547508 69.73935 131.414907 
C 69.871952 131.282305 69.946457 131.102434 69.946457 130.914907 
C 69.946457 130.72738 69.871952 130.547508 69.73935 130.414907 
C 69.606749 130.282305 69.426877 130.2078 69.23935 130.2078 
C 69.051823 130.2078 68.871952 130.282305 68.73935 130.414907 
C 68.606749 130.547508 68.532244 130.72738 68.532244 130.914907 
C 68.532244 131.102434 68.606749 131.282305 68.73935 131.414907 
C 68.871952 131.547508 69.051823 131.622013 69.23935 131.622013 
z
" clip-path="url(#pc6aceacfbd)" style="stroke: #000000"/>
    <path d="M 56.935216 97.558123 
C 57.182015 97.558123 57.418739 97.460068 57.593253 97.285555 
C 57.767766 97.111041 57.865821 96.874317 57.865821 96.627518 
C 57.865821 96.380719 57.767766 96.143994 57.593253 95.969481 
C 57.418739 95.794967 57.182015 95.696913 56.935216 95.696913 
C 56.688416 95.696913 56.451692 95.794967 56.277179 95.969481 
C 56.102665 96.143994 56.004611 96.380719 56.004611 96.627518 
C 56.004611 96.874317 56.102665 97.111041 56.277179 97.285555 
C 56.451692 97.460068 56.688416 97.558123 56.935216 97.558123 
z
" clip-path="url(#pc6aceacfbd)" style="stroke: #000000"/>
    <path d="M 62.503196 133.244903 
C 62.920406 133.244903 63.320585 133.079143 63.615597 132.784131 
C 63.91061 132.489119 64.076369 132.08894 64.076369 131.67173 
C 64.076369 131.254519 63.91061 130.854341 63.615597 130.559328 
C 63.320585 130.264316 62.920406 130.098557 62.503196 130.098557 
C 62.085986 130.098557 61.685807 130.264316 61.390795 130.559328 
C 61.095782 130.854341 60.930023 131.254519 60.930023 131.67173 
C 60.930023 132.08894 61.095782 132.489119 61.390795 132.784131 
C 61.685807 133.079143 62.085986 133.244903 62.503196 133.244903 
z
" clip-path="url(#pc6aceacfbd)" style="stroke: #000000"/>
    <path d="M 59.683574 125.820377 
C 60.158821 125.820377 60.614667 125.63156 60.950718 125.295509 
C 61.286768 124.959458 61.475586 124.503612 61.475586 124.028365 
C 61.475586 123.553118 61.286768 123.097271 60.950718 122.761221 
C 60.614667 122.42517 60.158821 122.236353 59.683574 122.236353 
C 59.208326 122.236353 58.75248 122.42517 58.41643 122.761221 
C 58.080379 123.097271 57.891561 123.553118 57.891561 124.028365 
C 57.891561 124.503612 58.080379 124.959458 58.41643 125.295509 
C 58.75248 125.63156 59.208326 125.820377 59.683574 125.820377 
z
" clip-path="url(#pc6aceacfbd)" style="stroke: #000000"/>
    <path d="M 58.955668 120.973823 
C 59.113359 120.973823 59.264612 120.911172 59.376116 120.799667 
C 59.48762 120.688163 59.550272 120.53691 59.550272 120.379219 
C 59.550272 120.221529 59.48762 120.070275 59.376116 119.958771 
C 59.264612 119.847267 59.113359 119.784616 58.955668 119.784616 
C 58.797977 119.784616 58.646724 119.847267 58.53522 119.958771 
C 58.423716 120.070275 58.361064 120.221529 58.361064 120.379219 
C 58.361064 120.53691 58.423716 120.688163 58.53522 120.799667 
C 58.646724 120.911172 58.797977 120.973823 58.955668 120.973823 
z
" clip-path="url(#pc6aceacfbd)" style="stroke: #000000"/>
    <path d="M 51.061648 109.06753 
C 51.601633 109.06753 52.119574 108.852992 52.501401 108.471164 
C 52.883228 108.089337 53.097767 107.571396 53.097767 107.031411 
C 53.097767 106.491426 52.883228 105.973484 52.501401 105.591657 
C 52.119574 105.20983 51.601633 104.995292 51.061648 104.995292 
C 50.521663 104.995292 50.003721 105.20983 49.621894 105.591657 
C 49.240067 105.973484 49.025529 106.491426 49.025529 107.031411 
C 49.025529 107.571396 49.240067 108.089337 49.621894 108.471164 
C 50.003721 108.852992 50.521663 109.06753 51.061648 109.06753 
z
" clip-path="url(#pc6aceacfbd)" style="stroke: #000000"/>
   </g>
   <g id="matplotlib.axis_1">
    <g id="xtick_1">
     <g id="line2d_1">
      <defs>
       <path id="m8de091b35a" d="M 0 0 
L 0 3.5 
" style="stroke: #000000; stroke-width: 0.8"/>
      </defs>
      <g>
       <use xlink:href="#m8de091b35a" x="18" y="189" style="stroke: #000000; stroke-width: 0.8"/>
      </g>
     </g>
     <g id="text_1">
      <!-- −10 -->
      <g transform="translate(7.447656 203.598437)scale(0.1 -0.1)">
       <defs>
        <path id="DejaVuSans-2212" d="M 678 2272 
L 4684 2272 
L 4684 1741 
L 678 1741 
L 678 2272 
z
" transform="scale(0.015625)"/>
        <path id="DejaVuSans-31" d="M 794 531 
L 1825 531 
L 1825 4091 
L 703 3866 
L 703 4441 
L 1819 4666 
L 2450 4666 
L 2450 531 
L 3481 531 
L 3481 0 
L 794 0 
L 794 531 
z
" transform="scale(0.015625)"/>
        <path id="DejaVuSans-30" d="M 2034 4250 
Q 1547 4250 1301 3770 
Q 1056 3291 1056 2328 
Q 1056 1369 1301 889 
Q 1547 409 2034 409 
Q 2525 409 2770 889 
Q 3016 1369 3016 2328 
Q 3016 3291 2770 3770 
Q 2525 4250 2034 4250 
z
M 2034 4750 
Q 2819 4750 3233 4129 
Q 3647 3509 3647 2328 
Q 3647 1150 3233 529 
Q 2819 -91 2034 -91 
Q 1250 -91 836 529 
Q 422 1150 422 2328 
Q 422 3509 836 4129 
Q 1250 4750 2034 4750 
z
" transform="scale(0.015625)"/>
       </defs>
       <use xlink:href="#DejaVuSans-2212"/>
       <use xlink:href="#DejaVuSans-31" x="83.789062"/>
       <use xlink:href="#DejaVuSans-30" x="147.412109"/>
      </g>
     </g>
    </g>
    <g id="xtick_2">
     <g id="line2d_2">
      <g>
       <use xlink:href="#m8de091b35a" x="73.8" y="189" style="stroke: #000000; stroke-width: 0.8"/>
      </g>
     </g>
     <g id="text_2">
      <!-- 0 -->
      <g transform="translate(70.61875 203.598437)scale(0.1 -0.1)">
       <use xlink:href="#DejaVuSans-30"/>
      </g>
     </g>
    </g>
    <g id="xtick_3">
     <g id="line2d_3">
      <g>
       <use xlink:href="#m8de091b35a" x="129.6" y="189" style="stroke: #000000; stroke-width: 0.8"/>
      </g>
     </g>
     <g id="text_3">
      <!-- 10 -->
      <g transform="translate(123.2375 203.598437)scale(0.1 -0.1)">
       <use xlink:href="#DejaVuSans-31"/>
       <use xlink:href="#DejaVuSans-30" x="63.623047"/>
      </g>
     </g>
    </g>
   </g>
   <g id="matplotlib.axis_2">
    <g id="ytick_1">
     <g id="line2d_4">
      <defs>
       <path id="m8c403eeaf0" d="M 0 0 
L -3.5 0 
" style="stroke: #000000; stroke-width: 0.8"/>
      </defs>
      <g>
       <use xlink:href="#m8c403eeaf0" x="18" y="189" style="stroke: #000000; stroke-width: 0.8"/>
      </g>
     </g>
     <g id="text_4">
      <!-- −15 -->
      <g transform="translate(-10.104688 192.799219)scale(0.1 -0.1)">
       <defs>
        <path id="DejaVuSans-35" d="M 691 4666 
L 3169 4666 
L 3169 4134 
L 1269 4134 
L 1269 2991 
Q 1406 3038 1543 3061 
Q 1681 3084 1819 3084 
Q 2600 3084 3056 2656 
Q 3513 2228 3513 1497 
Q 3513 744 3044 326 
Q 2575 -91 1722 -91 
Q 1428 -91 1123 -41 
Q 819 9 494 109 
L 494 744 
Q 775 591 1075 516 
Q 1375 441 1709 441 
Q 2250 441 2565 725 
Q 2881 1009 2881 1497 
Q 2881 1984 2565 2268 
Q 2250 2553 1709 2553 
Q 1456 2553 1204 2497 
Q 953 2441 691 2322 
L 691 4666 
z
" transform="scale(0.015625)"/>
       </defs>
       <use xlink:href="#DejaVuSans-2212"/>
       <use xlink:href="#DejaVuSans-31" x="83.789062"/>
       <use xlink:href="#DejaVuSans-35" x="147.412109"/>
      </g>
     </g>
    </g>
    <g id="ytick_2">
     <g id="line2d_5">
      <g>
       <use xlink:href="#m8c403eeaf0" x="18" y="161.82" style="stroke: #000000; stroke-width: 0.8"/>
      </g>
     </g>
     <g id="text_5">
      <!-- −10 -->
      <g transform="translate(-10.104688 165.619219)scale(0.1 -0.1)">
       <use xlink:href="#DejaVuSans-2212"/>
       <use xlink:href="#DejaVuSans-31" x="83.789062"/>
       <use xlink:href="#DejaVuSans-30" x="147.412109"/>
      </g>
     </g>
    </g>
    <g id="ytick_3">
     <g id="line2d_6">
      <g>
       <use xlink:href="#m8c403eeaf0" x="18" y="134.64" style="stroke: #000000; stroke-width: 0.8"/>
      </g>
     </g>
     <g id="text_6">
      <!-- −5 -->
      <g transform="translate(-3.742188 138.439219)scale(0.1 -0.1)">
       <use xlink:href="#DejaVuSans-2212"/>
       <use xlink:href="#DejaVuSans-35" x="83.789062"/>
      </g>
     </g>
    </g>
    <g id="ytick_4">
     <g id="line2d_7">
      <g>
       <use xlink:href="#m8c403eeaf0" x="18" y="107.46" style="stroke: #000000; stroke-width: 0.8"/>
      </g>
     </g>
     <g id="text_7">
      <!-- 0 -->
      <g transform="translate(4.6375 111.259219)scale(0.1 -0.1)">
       <use xlink:href="#DejaVuSans-30"/>
      </g>
     </g>
    </g>
    <g id="ytick_5">
     <g id="line2d_8">
      <g>
       <use xlink:href="#m8c403eeaf0" x="18" y="80.28" style="stroke: #000000; stroke-width: 0.8"/>
      </g>
     </g>
     <g id="text_8">
      <!-- 5 -->
      <g transform="translate(4.6375 84.079219)scale(0.1 -0.1)">
       <use xlink:href="#DejaVuSans-35"/>
      </g>
     </g>
    </g>
    <g id="ytick_6">
     <g id="line2d_9">
      <g>
       <use xlink:href="#m8c403eeaf0" x="18" y="53.1" style="stroke: #000000; stroke-width: 0.8"/>
      </g>
     </g>
     <g id="text_9">
      <!-- 10 -->
      <g transform="translate(-1.725 56.899219)scale(0.1 -0.1)">
       <use xlink:href="#DejaVuSans-31"/>
       <use xlink:href="#DejaVuSans-30" x="63.623047"/>
      </g>
     </g>
    </g>
    <g id="ytick_7">
     <g id="line2d_10">
      <g>
       <use xlink:href="#m8c403eeaf0" x="18" y="25.92" style="stroke: #000000; stroke-width: 0.8"/>
      </g>
     </g>
     <g id="text_10">
      <!-- 15 -->
      <g transform="translate(-1.725 29.719219)scale(0.1 -0.1)">
       <use xlink:href="#DejaVuSans-31"/>
       <use xlink:href="#DejaVuSans-35" x="63.623047"/>
      </g>
     </g>
    </g>
   </g>
   <g id="patch_3">
    <path d="M 18 189 
L 18 25.92 
" style="fill: none; stroke: #000000; stroke-width: 0.8; stroke-linejoin: miter; stroke-linecap: square"/>
   </g>
   <g id="patch_4">
    <path d="M 129.6 189 
L 129.6 25.92 
" style="fill: none; stroke: #000000; stroke-width: 0.8; stroke-linejoin: miter; stroke-linecap: square"/>
   </g>
   <g id="patch_5">
    <path d="M 18 189 
L 129.6 189 
" style="fill: none; stroke: #000000; stroke-width: 0.8; stroke-linejoin: miter; stroke-linecap: square"/>
   </g>
   <g id="patch_6">
    <path d="M 18 25.92 
L 129.6 25.92 
" style="fill: none; stroke: #000000; stroke-width: 0.8; stroke-linejoin: miter; stroke-linecap: square"/>
   </g>
  </g>
 </g>
 <defs>
  <clipPath id="pc6aceacfbd">
   <rect x="18" y="25.92" width="111.6" height="163.08"/>
  </clipPath>
 </defs>
</svg>
