<?xml version="1.0" encoding="utf-8" standalone="no"?>
<!DOCTYPE svg PUBLIC "-//W3C//DTD SVG 1.1//EN"
  "http://www.w3.org/Graphics/SVG/1.1/DTD/svg11.dtd">
<svg xmlns:xlink="http://www.w3.org/1999/xlink" width="144pt" height="216pt" viewBox="0 0 144 216" xmlns="http://www.w3.org/2000/svg" version="1.1">
 <metadata>
  <rdf:RDF xmlns:dc="http://purl.org/dc/elements/1.1/" xmlns:cc="http://creativecommons.org/ns#" xmlns:rdf="http://www.w3.org/1999/02/22-rdf-syntax-ns#">
   <cc:Work>
    <dc:type rdf:resource="http://purl.org/dc/dcmitype/StillImage"/>
    <dc:date>2022-06-28T09:18:34.430400</dc:date>
    <dc:format>image/svg+xml</dc:format>
    <dc:creator>
     <cc:Agent>
      <dc:title>Matplotlib v3.5.1, https://matplotlib.org/</dc:title>
     </cc:Agent>
    </dc:creator>
   </cc:Work>
  </rdf:RDF>
 </metadata>
 <defs>
  <style type="text/css">*{stroke-linejoin: round; stroke-linecap: butt}</style>
 </defs>
 <g id="figure_1">
  <g id="patch_1">
   <path d="M 0 216 
L 144 216 
L 144 0 
L 0 0 
L 0 216 
z
" style="fill: none"/>
  </g>
  <g id="axes_1">
   <g id="patch_2">
    <path d="M 18 189 
L 129.6 189 
L 129.6 25.92 
L 18 25.92 
z
" style="fill: #ffffff"/>
   </g>
   <g id="PathCollection_1">
    <defs>
     <path id="mbfc3c2006a" d="M 0 2.738613 
C 0.726289 2.738613 1.422928 2.450055 1.936492 1.936492 
C 2.450055 1.422928 2.738613 0.726289 2.738613 0 
C 2.738613 -0.726289 2.450055 -1.422928 1.936492 -1.936492 
C 1.422928 -2.450055 0.726289 -2.738613 0 -2.738613 
C -0.726289 -2.738613 -1.422928 -2.450055 -1.936492 -1.936492 
C -2.450055 -1.422928 -2.738613 -0.726289 -2.738613 0 
C -2.738613 0.726289 -2.450055 1.422928 -1.936492 1.936492 
C -1.422928 2.450055 -0.726289 2.738613 0 2.738613 
z
" style="stroke: #ff0000; stroke-width: 1.75"/>
    </defs>
    <g clip-path="url(#pc8b049e851)">
     <use xlink:href="#mbfc3c2006a" x="80.775" y="83.92143" style="fill: #ff0000; stroke: #ff0000; stroke-width: 1.75"/>
     <use xlink:href="#mbfc3c2006a" x="59.85" y="95.690715" style="fill: #ff0000; stroke: #ff0000; stroke-width: 1.75"/>
     <use xlink:href="#mbfc3c2006a" x="66.825" y="107.46" style="fill: #ff0000; stroke: #ff0000; stroke-width: 1.75"/>
     <use xlink:href="#mbfc3c2006a" x="80.775" y="107.46" style="fill: #ff0000; stroke: #ff0000; stroke-width: 1.75"/>
     <use xlink:href="#mbfc3c2006a" x="94.725" y="107.46" style="fill: #ff0000; stroke: #ff0000; stroke-width: 1.75"/>
     <use xlink:href="#mbfc3c2006a" x="59.85" y="119.229285" style="fill: #ff0000; stroke: #ff0000; stroke-width: 1.75"/>
     <use xlink:href="#mbfc3c2006a" x="80.775" y="130.99857" style="fill: #ff0000; stroke: #ff0000; stroke-width: 1.75"/>
    </g>
   </g>
   <g id="PathCollection_2">
    <defs>
     <path id="C0_0_bf76583817" d="M 0 2.738613 
C 0.726289 2.738613 1.422928 2.450055 1.936492 1.936492 
C 2.450055 1.422928 2.738613 0.726289 2.738613 -0 
C 2.738613 -0.726289 2.450055 -1.422928 1.936492 -1.936492 
C 1.422928 -2.450055 0.726289 -2.738613 0 -2.738613 
C -0.726289 -2.738613 -1.422928 -2.450055 -1.936492 -1.936492 
C -2.450055 -1.422928 -2.738613 -0.726289 -2.738613 0 
C -2.738613 0.726289 -2.450055 1.422928 -1.936492 1.936492 
C -1.422928 2.450055 -0.726289 2.738613 0 2.738613 
z
"/>
    </defs>
    <g clip-path="url(#pc8b049e851)">
     <use xlink:href="#C0_0_bf76583817" x="66.825" y="83.92143" style="fill: none; stroke: #ff0000; stroke-width: 1.75"/>
    </g>
    <g clip-path="url(#pc8b049e851)">
     <use xlink:href="#C0_0_bf76583817" x="73.8" y="95.690715" style="fill: none; stroke: #ff0000; stroke-width: 1.75"/>
    </g>
    <g clip-path="url(#pc8b049e851)">
     <use xlink:href="#C0_0_bf76583817" x="87.75" y="95.690715" style="fill: none; stroke: #ff0000; stroke-width: 1.75"/>
    </g>
    <g clip-path="url(#pc8b049e851)">
     <use xlink:href="#C0_0_bf76583817" x="52.875" y="107.46" style="fill: none; stroke: #ff0000; stroke-width: 1.75"/>
    </g>
    <g clip-path="url(#pc8b049e851)">
     <use xlink:href="#C0_0_bf76583817" x="73.8" y="119.229285" style="fill: none; stroke: #ff0000; stroke-width: 1.75"/>
    </g>
    <g clip-path="url(#pc8b049e851)">
     <use xlink:href="#C0_0_bf76583817" x="87.75" y="119.229285" style="fill: none; stroke: #ff0000; stroke-width: 1.75"/>
    </g>
    <g clip-path="url(#pc8b049e851)">
     <use xlink:href="#C0_0_bf76583817" x="66.825" y="130.99857" style="fill: none; stroke: #ff0000; stroke-width: 1.75"/>
    </g>
   </g>
   <g id="PathCollection_3">
    <path d="M 121.947298 140.913149 
C 122.54031 140.913149 123.109114 140.677542 123.528437 140.25822 
C 123.94776 139.838897 124.183366 139.270093 124.183366 138.677081 
C 124.183366 138.084069 123.94776 137.515265 123.528437 137.095942 
C 123.109114 136.676619 122.54031 136.441013 121.947298 136.441013 
C 121.354286 136.441013 120.785482 136.676619 120.366159 137.095942 
C 119.946836 137.515265 119.71123 138.084069 119.71123 138.677081 
C 119.71123 139.270093 119.946836 139.838897 120.366159 140.25822 
C 120.785482 140.677542 121.354286 140.913149 121.947298 140.913149 
z
" clip-path="url(#pc8b049e851)" style="stroke: #000000"/>
    <path d="M 118.723259 132.389778 
C 119.397639 132.389778 120.04449 132.121844 120.521349 131.644985 
C 120.998208 131.168126 121.266143 130.521275 121.266143 129.846895 
C 121.266143 129.172514 120.998208 128.525663 120.521349 128.048804 
C 120.04449 127.571945 119.397639 127.304011 118.723259 127.304011 
C 118.048878 127.304011 117.402027 127.571945 116.925168 128.048804 
C 116.448309 128.525663 116.180375 129.172514 116.180375 129.846895 
C 116.180375 130.521275 116.448309 131.168126 116.925168 131.644985 
C 117.402027 132.121844 118.048878 132.389778 118.723259 132.389778 
z
" clip-path="url(#pc8b049e851)" style="stroke: #000000"/>
    <path d="M 115.84993 122.795195 
C 116.555364 122.795195 117.232001 122.514923 117.730818 122.016106 
C 118.229636 121.517288 118.509908 120.840651 118.509908 120.135217 
C 118.509908 119.429782 118.229636 118.753146 117.730818 118.254328 
C 117.232001 117.75551 116.555364 117.475238 115.84993 117.475238 
C 115.144495 117.475238 114.467858 117.75551 113.969041 118.254328 
C 113.470223 118.753146 113.189951 119.429782 113.189951 120.135217 
C 113.189951 120.840651 113.470223 121.517288 113.969041 122.016106 
C 114.467858 122.514923 115.144495 122.795195 115.84993 122.795195 
z
" clip-path="url(#pc8b049e851)" style="stroke: #000000"/>
    <path d="M 107.952073 102.790135 
C 108.657508 102.790135 109.334145 102.509863 109.832962 102.011046 
C 110.33178 101.512228 110.612052 100.835591 110.612052 100.130157 
C 110.612052 99.424722 110.33178 98.748085 109.832962 98.249268 
C 109.334145 97.75045 108.657508 97.470178 107.952073 97.470178 
C 107.246639 97.470178 106.570002 97.75045 106.071185 98.249268 
C 105.572367 98.748085 105.292095 99.424722 105.292095 100.130157 
C 105.292095 100.835591 105.572367 101.512228 106.071185 102.011046 
C 106.570002 102.509863 107.246639 102.790135 107.952073 102.790135 
z
" clip-path="url(#pc8b049e851)" style="stroke: #000000"/>
    <path d="M 107.126588 87.580464 
C 107.620187 87.580464 108.093635 87.384355 108.442662 87.035328 
C 108.791689 86.686301 108.987798 86.212853 108.987798 85.719254 
C 108.987798 85.225656 108.791689 84.752207 108.442662 84.40318 
C 108.093635 84.054153 107.620187 83.858045 107.126588 83.858045 
C 106.63299 83.858045 106.159541 84.054153 105.810514 84.40318 
C 105.461487 84.752207 105.265379 85.225656 105.265379 85.719254 
C 105.265379 86.212853 105.461487 86.686301 105.810514 87.035328 
C 106.159541 87.384355 106.63299 87.580464 107.126588 87.580464 
z
" clip-path="url(#pc8b049e851)" style="stroke: #000000"/>
    <path d="M 103.573128 80.728738 
C 104.066083 80.728738 104.538914 80.532885 104.887485 80.184314 
C 105.236057 79.835742 105.43191 79.362912 105.43191 78.869957 
C 105.43191 78.377002 105.236057 77.904171 104.887485 77.5556 
C 104.538914 77.207028 104.066083 77.011175 103.573128 77.011175 
C 103.080173 77.011175 102.607343 77.207028 102.258771 77.5556 
C 101.9102 77.904171 101.714347 78.377002 101.714347 78.869957 
C 101.714347 79.362912 101.9102 79.835742 102.258771 80.184314 
C 102.607343 80.532885 103.080173 80.728738 103.573128 80.728738 
z
" clip-path="url(#pc8b049e851)" style="stroke: #000000"/>
    <path d="M 97.25114 68.417237 
C 97.956574 68.417237 98.633211 68.136965 99.132029 67.638148 
C 99.630846 67.13933 99.911118 66.462693 99.911118 65.757259 
C 99.911118 65.051824 99.630846 64.375187 99.132029 63.87637 
C 98.633211 63.377552 97.956574 63.09728 97.25114 63.09728 
C 96.545705 63.09728 95.869069 63.377552 95.370251 63.87637 
C 94.871433 64.375187 94.591161 65.051824 94.591161 65.757259 
C 94.591161 66.462693 94.871433 67.13933 95.370251 67.638148 
C 95.869069 68.136965 96.545705 68.417237 97.25114 68.417237 
z
" clip-path="url(#pc8b049e851)" style="stroke: #000000"/>
    <path d="M 112.495478 148.478889 
C 113.08886 148.478889 113.658019 148.243136 114.077604 147.823551 
C 114.497188 147.403966 114.732942 146.834807 114.732942 146.241425 
C 114.732942 145.648042 114.497188 145.078883 114.077604 144.659299 
C 113.658019 144.239714 113.08886 144.003961 112.495478 144.003961 
C 111.902095 144.003961 111.332936 144.239714 110.913351 144.659299 
C 110.493767 145.078883 110.258013 145.648042 110.258013 146.241425 
C 110.258013 146.834807 110.493767 147.403966 110.913351 147.823551 
C 111.332936 148.243136 111.902095 148.478889 112.495478 148.478889 
z
" clip-path="url(#pc8b049e851)" style="stroke: #000000"/>
    <path d="M 109.184666 137.198315 
C 109.8901 137.198315 110.566737 136.918043 111.065555 136.419225 
C 111.564372 135.920408 111.844644 135.243771 111.844644 134.538336 
C 111.844644 133.832902 111.564372 133.156265 111.065555 132.657447 
C 110.566737 132.15863 109.8901 131.878358 109.184666 131.878358 
C 108.479231 131.878358 107.802594 132.15863 107.303777 132.657447 
C 106.804959 133.156265 106.524687 133.832902 106.524687 134.538336 
C 106.524687 135.243771 106.804959 135.920408 107.303777 136.419225 
C 107.802594 136.918043 108.479231 137.198315 109.184666 137.198315 
z
" clip-path="url(#pc8b049e851)" style="stroke: #000000"/>
    <path d="M 102.090386 126.248866 
C 102.795821 126.248866 103.472458 125.968594 103.971275 125.469777 
C 104.470093 124.970959 104.750365 124.294322 104.750365 123.588888 
C 104.750365 122.883453 104.470093 122.206816 103.971275 121.707999 
C 103.472458 121.209181 102.795821 120.928909 102.090386 120.928909 
C 101.384952 120.928909 100.708315 121.209181 100.209497 121.707999 
C 99.71068 122.206816 99.430408 122.883453 99.430408 123.588888 
C 99.430408 124.294322 99.71068 124.970959 100.209497 125.469777 
C 100.708315 125.968594 101.384952 126.248866 102.090386 126.248866 
z
" clip-path="url(#pc8b049e851)" style="stroke: #000000"/>
    <path d="M 103.722771 115.445701 
C 104.428206 115.445701 105.104843 115.165429 105.60366 114.666611 
C 106.102478 114.167794 106.38275 113.491157 106.38275 112.785722 
C 106.38275 112.080288 106.102478 111.403651 105.60366 110.904834 
C 105.104843 110.406016 104.428206 110.125744 103.722771 110.125744 
C 103.017337 110.125744 102.3407 110.406016 101.841882 110.904834 
C 101.343065 111.403651 101.062793 112.080288 101.062793 112.785722 
C 101.062793 113.491157 101.343065 114.167794 101.841882 114.666611 
C 102.3407 115.165429 103.017337 115.445701 103.722771 115.445701 
z
" clip-path="url(#pc8b049e851)" style="stroke: #000000"/>
    <path d="M 99.527136 104.773412 
C 100.232351 104.773412 100.908776 104.493227 101.407438 103.994565 
C 101.9061 103.495903 102.186284 102.819478 102.186284 102.114264 
C 102.186284 101.409049 101.9061 100.732624 101.407438 100.233962 
C 100.908776 99.7353 100.232351 99.455116 99.527136 99.455116 
C 98.821922 99.455116 98.145496 99.7353 97.646835 100.233962 
C 97.148173 100.732624 96.867988 101.409049 96.867988 102.114264 
C 96.867988 102.819478 97.148173 103.495903 97.646835 103.994565 
C 98.145496 104.493227 98.821922 104.773412 99.527136 104.773412 
z
" clip-path="url(#pc8b049e851)" style="stroke: #000000"/>
    <path d="M 96.292599 92.938813 
C 96.997813 92.938813 97.674239 92.658628 98.1729 92.159966 
C 98.671562 91.661305 98.951747 90.984879 98.951747 90.279665 
C 98.951747 89.574451 98.671562 88.898025 98.1729 88.399363 
C 97.674239 87.900702 96.997813 87.620517 96.292599 87.620517 
C 95.587385 87.620517 94.910959 87.900702 94.412297 88.399363 
C 93.913636 88.898025 93.633451 89.574451 93.633451 90.279665 
C 93.633451 90.984879 93.913636 91.661305 94.412297 92.159966 
C 94.910959 92.658628 95.587385 92.938813 96.292599 92.938813 
z
" clip-path="url(#pc8b049e851)" style="stroke: #000000"/>
    <path d="M 94.431541 86.496339 
C 95.136756 86.496339 95.813181 86.216155 96.311843 85.717493 
C 96.810505 85.218831 97.090689 84.542406 97.090689 83.837192 
C 97.090689 83.131977 96.810505 82.455552 96.311843 81.95689 
C 95.813181 81.458228 95.136756 81.178044 94.431541 81.178044 
C 93.726327 81.178044 93.049902 81.458228 92.55124 81.95689 
C 92.052578 82.455552 91.772394 83.131977 91.772394 83.837192 
C 91.772394 84.542406 92.052578 85.218831 92.55124 85.717493 
C 93.049902 86.216155 93.726327 86.496339 94.431541 86.496339 
z
" clip-path="url(#pc8b049e851)" style="stroke: #000000"/>
    <path d="M 89.337784 76.268894 
C 90.042998 76.268894 90.719424 75.988709 91.218086 75.490048 
C 91.716748 74.991386 91.996932 74.31496 91.996932 73.609746 
C 91.996932 72.904532 91.716748 72.228106 91.218086 71.729445 
C 90.719424 71.230783 90.042998 70.950598 89.337784 70.950598 
C 88.63257 70.950598 87.956144 71.230783 87.457483 71.729445 
C 86.958821 72.228106 86.678636 72.904532 86.678636 73.609746 
C 86.678636 74.31496 86.958821 74.991386 87.457483 75.490048 
C 87.956144 75.988709 88.63257 76.268894 89.337784 76.268894 
z
" clip-path="url(#pc8b049e851)" style="stroke: #000000"/>
    <path d="M 82.997033 64.275783 
C 83.702247 64.275783 84.378673 63.995599 84.877335 63.496937 
C 85.375997 62.998275 85.656181 62.321849 85.656181 61.616635 
C 85.656181 60.911421 85.375997 60.234995 84.877335 59.736334 
C 84.378673 59.237672 83.702247 58.957487 82.997033 58.957487 
C 82.291819 58.957487 81.615393 59.237672 81.116732 59.736334 
C 80.61807 60.234995 80.337885 60.911421 80.337885 61.616635 
C 80.337885 62.321849 80.61807 62.998275 81.116732 63.496937 
C 81.615393 63.995599 82.291819 64.275783 82.997033 64.275783 
z
" clip-path="url(#pc8b049e851)" style="stroke: #000000"/>
    <path d="M 85.433059 55.768065 
C 86.029015 55.768065 86.600641 55.53129 87.022045 55.109886 
C 87.443449 54.688482 87.680225 54.116855 87.680225 53.5209 
C 87.680225 52.924945 87.443449 52.353318 87.022045 51.931914 
C 86.600641 51.51051 86.029015 51.273735 85.433059 51.273735 
C 84.837104 51.273735 84.265477 51.51051 83.844073 51.931914 
C 83.42267 52.353318 83.185894 52.924945 83.185894 53.5209 
C 83.185894 54.116855 83.42267 54.688482 83.844073 55.109886 
C 84.265477 55.53129 84.837104 55.768065 85.433059 55.768065 
z
" clip-path="url(#pc8b049e851)" style="stroke: #000000"/>
    <path d="M 110.129156 160.358201 
C 110.722168 160.358201 111.290971 160.122595 111.710294 159.703272 
C 112.129617 159.283949 112.365224 158.715146 112.365224 158.122133 
C 112.365224 157.529121 112.129617 156.960318 111.710294 156.540995 
C 111.290971 156.121672 110.722168 155.886066 110.129156 155.886066 
C 109.536143 155.886066 108.96734 156.121672 108.548017 156.540995 
C 108.128694 156.960318 107.893088 157.529121 107.893088 158.122133 
C 107.893088 158.715146 108.128694 159.283949 108.548017 159.703272 
C 108.96734 160.122595 109.536143 160.358201 110.129156 160.358201 
z
" clip-path="url(#pc8b049e851)" style="stroke: #000000"/>
    <path d="M 93.918982 127.871694 
C 94.624197 127.871694 95.300622 127.59151 95.799284 127.092848 
C 96.297946 126.594186 96.57813 125.91776 96.57813 125.212546 
C 96.57813 124.507332 96.297946 123.830906 95.799284 123.332245 
C 95.300622 122.833583 94.624197 122.553398 93.918982 122.553398 
C 93.213768 122.553398 92.537343 122.833583 92.038681 123.332245 
C 91.540019 123.830906 91.259834 124.507332 91.259834 125.212546 
C 91.259834 125.91776 91.540019 126.594186 92.038681 127.092848 
C 92.537343 127.59151 93.213768 127.871694 93.918982 127.871694 
z
" clip-path="url(#pc8b049e851)" style="stroke: #000000"/>
    <path d="M 92.004333 117.027849 
C 92.709767 117.027849 93.386404 116.747577 93.885222 116.248759 
C 94.384039 115.749941 94.664311 115.073305 94.664311 114.36787 
C 94.664311 113.662436 94.384039 112.985799 93.885222 112.486981 
C 93.386404 111.988164 92.709767 111.707892 92.004333 111.707892 
C 91.298898 111.707892 90.622261 111.988164 90.123444 112.486981 
C 89.624626 112.985799 89.344354 113.662436 89.344354 114.36787 
C 89.344354 115.073305 89.624626 115.749941 90.123444 116.248759 
C 90.622261 116.747577 91.298898 117.027849 92.004333 117.027849 
z
" clip-path="url(#pc8b049e851)" style="stroke: #000000"/>
    <path d="M 89.02526 109.318761 
C 89.730694 109.318761 90.407331 109.038489 90.906149 108.539671 
C 91.404966 108.040854 91.685238 107.364217 91.685238 106.658782 
C 91.685238 105.953348 91.404966 105.276711 90.906149 104.777893 
C 90.407331 104.279076 89.730694 103.998804 89.02526 103.998804 
C 88.319825 103.998804 87.643189 104.279076 87.144371 104.777893 
C 86.645553 105.276711 86.365281 105.953348 86.365281 106.658782 
C 86.365281 107.364217 86.645553 108.040854 87.144371 108.539671 
C 87.643189 109.038489 88.319825 109.318761 89.02526 109.318761 
z
" clip-path="url(#pc8b049e851)" style="stroke: #000000"/>
    <path d="M 84.193357 92.355958 
C 84.786369 92.355958 85.355173 92.120352 85.774495 91.701029 
C 86.193818 91.281706 86.429425 90.712902 86.429425 90.11989 
C 86.429425 89.526878 86.193818 88.958074 85.774495 88.538751 
C 85.355173 88.119428 84.786369 87.883822 84.193357 87.883822 
C 83.600344 87.883822 83.031541 88.119428 82.612218 88.538751 
C 82.192895 88.958074 81.957289 89.526878 81.957289 90.11989 
C 81.957289 90.712902 82.192895 91.281706 82.612218 91.701029 
C 83.031541 92.120352 83.600344 92.355958 84.193357 92.355958 
z
" clip-path="url(#pc8b049e851)" style="stroke: #000000"/>
    <path d="M 84.127473 88.447758 
C 84.720855 88.447758 85.290014 88.212004 85.709599 87.79242 
C 86.129184 87.372835 86.364937 86.803676 86.364937 86.210293 
C 86.364937 85.616911 86.129184 85.047752 85.709599 84.628167 
C 85.290014 84.208583 84.720855 83.972829 84.127473 83.972829 
C 83.53409 83.972829 82.964931 84.208583 82.545347 84.628167 
C 82.125762 85.047752 81.890009 85.616911 81.890009 86.210293 
C 81.890009 86.803676 82.125762 87.372835 82.545347 87.79242 
C 82.964931 88.212004 83.53409 88.447758 84.127473 88.447758 
z
" clip-path="url(#pc8b049e851)" style="stroke: #000000"/>
    <path d="M 80.51767 80.589435 
C 81.223105 80.589435 81.899741 80.309162 82.398559 79.810345 
C 82.897377 79.311527 83.177649 78.634891 83.177649 77.929456 
C 83.177649 77.224021 82.897377 76.547385 82.398559 76.048567 
C 81.899741 75.54975 81.223105 75.269477 80.51767 75.269477 
C 79.812236 75.269477 79.135599 75.54975 78.636781 76.048567 
C 78.137964 76.547385 77.857692 77.224021 77.857692 77.929456 
C 77.857692 78.634891 78.137964 79.311527 78.636781 79.810345 
C 79.135599 80.309162 79.812236 80.589435 80.51767 80.589435 
z
" clip-path="url(#pc8b049e851)" style="stroke: #000000"/>
    <path d="M 64.99492 35.251901 
C 65.586071 35.251901 66.153088 35.017034 66.571095 34.599028 
C 66.989101 34.181021 67.223968 33.614004 67.223968 33.022853 
C 67.223968 32.431703 66.989101 31.864685 66.571095 31.446679 
C 66.153088 31.028672 65.586071 30.793806 64.99492 30.793806 
C 64.40377 30.793806 63.836752 31.028672 63.418746 31.446679 
C 63.00074 31.864685 62.765873 32.431703 62.765873 33.022853 
C 62.765873 33.614004 63.00074 34.181021 63.418746 34.599028 
C 63.836752 35.017034 64.40377 35.251901 64.99492 35.251901 
z
" clip-path="url(#pc8b049e851)" style="stroke: #000000"/>
    <path d="M 92.22125 154.687619 
C 92.926464 154.687619 93.60289 154.407434 94.101551 153.908773 
C 94.600213 153.410111 94.880398 152.733685 94.880398 152.028471 
C 94.880398 151.323257 94.600213 150.646831 94.101551 150.14817 
C 93.60289 149.649508 92.926464 149.369323 92.22125 149.369323 
C 91.516036 149.369323 90.83961 149.649508 90.340948 150.14817 
C 89.842287 150.646831 89.562102 151.323257 89.562102 152.028471 
C 89.562102 152.733685 89.842287 153.410111 90.340948 153.908773 
C 90.83961 154.407434 91.516036 154.687619 92.22125 154.687619 
z
" clip-path="url(#pc8b049e851)" style="stroke: #000000"/>
    <path d="M 86.862521 142.419474 
C 87.567956 142.419474 88.244592 142.139202 88.74341 141.640385 
C 89.242228 141.141567 89.5225 140.46493 89.5225 139.759496 
C 89.5225 139.054061 89.242228 138.377425 88.74341 137.878607 
C 88.244592 137.379789 87.567956 137.099517 86.862521 137.099517 
C 86.157087 137.099517 85.48045 137.379789 84.981632 137.878607 
C 84.482815 138.377425 84.202543 139.054061 84.202543 139.759496 
C 84.202543 140.46493 84.482815 141.141567 84.981632 141.640385 
C 85.48045 142.139202 86.157087 142.419474 86.862521 142.419474 
z
" clip-path="url(#pc8b049e851)" style="stroke: #000000"/>
    <path d="M 88.386931 131.097847 
C 88.950809 131.097847 89.491668 130.873816 89.890391 130.475094 
C 90.289113 130.076371 90.513144 129.535512 90.513144 128.971633 
C 90.513144 128.407755 90.289113 127.866895 89.890391 127.468173 
C 89.491668 127.069451 88.950809 126.845419 88.386931 126.845419 
C 87.823052 126.845419 87.282193 127.069451 86.88347 127.468173 
C 86.484748 127.866895 86.260717 128.407755 86.260717 128.971633 
C 86.260717 129.535512 86.484748 130.076371 86.88347 130.475094 
C 87.282193 130.873816 87.823052 131.097847 88.386931 131.097847 
z
" clip-path="url(#pc8b049e851)" style="stroke: #000000"/>
    <path d="M 82.414929 116.154984 
C 83.007941 116.154984 83.576745 115.919378 83.996068 115.500055 
C 84.415391 115.080732 84.650997 114.511928 84.650997 113.918916 
C 84.650997 113.325904 84.415391 112.7571 83.996068 112.337777 
C 83.576745 111.918454 83.007941 111.682848 82.414929 111.682848 
C 81.821917 111.682848 81.253113 111.918454 80.83379 112.337777 
C 80.414467 112.7571 80.178861 113.325904 80.178861 113.918916 
C 80.178861 114.511928 80.414467 115.080732 80.83379 115.500055 
C 81.253113 115.919378 81.821917 116.154984 82.414929 116.154984 
z
" clip-path="url(#pc8b049e851)" style="stroke: #000000"/>
    <path d="M 84.167353 110.883706 
C 84.760365 110.883706 85.329169 110.6481 85.748491 110.228777 
C 86.167814 109.809454 86.403421 109.24065 86.403421 108.647638 
C 86.403421 108.054626 86.167814 107.485822 85.748491 107.066499 
C 85.329169 106.647176 84.760365 106.41157 84.167353 106.41157 
C 83.57434 106.41157 83.005537 106.647176 82.586214 107.066499 
C 82.166891 107.485822 81.931285 108.054626 81.931285 108.647638 
C 81.931285 109.24065 82.166891 109.809454 82.586214 110.228777 
C 83.005537 110.6481 83.57434 110.883706 84.167353 110.883706 
z
" clip-path="url(#pc8b049e851)" style="stroke: #000000"/>
    <path d="M 75.362265 97.742973 
C 76.0677 97.742973 76.744336 97.462701 77.243154 96.963884 
C 77.741972 96.465066 78.022244 95.788429 78.022244 95.082995 
C 78.022244 94.37756 77.741972 93.700923 77.243154 93.202106 
C 76.744336 92.703288 76.0677 92.423016 75.362265 92.423016 
C 74.656831 92.423016 73.980194 92.703288 73.481376 93.202106 
C 72.982559 93.700923 72.702287 94.37756 72.702287 95.082995 
C 72.702287 95.788429 72.982559 96.465066 73.481376 96.963884 
C 73.980194 97.462701 74.656831 97.742973 75.362265 97.742973 
z
" clip-path="url(#pc8b049e851)" style="stroke: #000000"/>
    <path d="M 69.815831 97.655278 
C 70.408843 97.655278 70.977647 97.419672 71.39697 97.000349 
C 71.816293 96.581026 72.051899 96.012222 72.051899 95.41921 
C 72.051899 94.826198 71.816293 94.257394 71.39697 93.838071 
C 70.977647 93.418748 70.408843 93.183142 69.815831 93.183142 
C 69.222819 93.183142 68.654015 93.418748 68.234692 93.838071 
C 67.815369 94.257394 67.579763 94.826198 67.579763 95.41921 
C 67.579763 96.012222 67.815369 96.581026 68.234692 97.000349 
C 68.654015 97.419672 69.222819 97.655278 69.815831 97.655278 
z
" clip-path="url(#pc8b049e851)" style="stroke: #000000"/>
    <path d="M 66.49815 80.810948 
C 67.203364 80.810948 67.87979 80.530763 68.378451 80.032101 
C 68.877113 79.533439 69.157298 78.857014 69.157298 78.1518 
C 69.157298 77.446585 68.877113 76.77016 68.378451 76.271498 
C 67.87979 75.772836 67.203364 75.492652 66.49815 75.492652 
C 65.792936 75.492652 65.11651 75.772836 64.617848 76.271498 
C 64.119187 76.77016 63.839002 77.446585 63.839002 78.1518 
C 63.839002 78.857014 64.119187 79.533439 64.617848 80.032101 
C 65.11651 80.530763 65.792936 80.810948 66.49815 80.810948 
z
" clip-path="url(#pc8b049e851)" style="stroke: #000000"/>
    <path d="M 62.181963 59.188858 
C 62.810248 59.188858 63.412884 58.939238 63.857148 58.494974 
C 64.301412 58.05071 64.551032 57.448074 64.551032 56.81979 
C 64.551032 56.191505 64.301412 55.588869 63.857148 55.144605 
C 63.412884 54.700341 62.810248 54.450721 62.181963 54.450721 
C 61.553679 54.450721 60.951043 54.700341 60.506779 55.144605 
C 60.062515 55.588869 59.812895 56.191505 59.812895 56.81979 
C 59.812895 57.448074 60.062515 58.05071 60.506779 58.494974 
C 60.951043 58.939238 61.553679 59.188858 62.181963 59.188858 
z
" clip-path="url(#pc8b049e851)" style="stroke: #000000"/>
    <path d="M 87.733506 177.966267 
C 88.326518 177.966267 88.895322 177.730661 89.314645 177.311338 
C 89.733968 176.892015 89.969574 176.323211 89.969574 175.730199 
C 89.969574 175.137187 89.733968 174.568383 89.314645 174.14906 
C 88.895322 173.729738 88.326518 173.494131 87.733506 173.494131 
C 87.140494 173.494131 86.57169 173.729738 86.152367 174.14906 
C 85.733044 174.568383 85.497438 175.137187 85.497438 175.730199 
C 85.497438 176.323211 85.733044 176.892015 86.152367 177.311338 
C 86.57169 177.730661 87.140494 177.966267 87.733506 177.966267 
z
" clip-path="url(#pc8b049e851)" style="stroke: #000000"/>
    <path d="M 89.408198 166.585392 
C 90.00121 166.585392 90.570014 166.349786 90.989337 165.930463 
C 91.40866 165.51114 91.644266 164.942337 91.644266 164.349324 
C 91.644266 163.756312 91.40866 163.187509 90.989337 162.768186 
C 90.570014 162.348863 90.00121 162.113256 89.408198 162.113256 
C 88.815186 162.113256 88.246382 162.348863 87.827059 162.768186 
C 87.407736 163.187509 87.17213 163.756312 87.17213 164.349324 
C 87.17213 164.942337 87.407736 165.51114 87.827059 165.930463 
C 88.246382 166.349786 88.815186 166.585392 89.408198 166.585392 
z
" clip-path="url(#pc8b049e851)" style="stroke: #000000"/>
    <path d="M 83.437388 157.093059 
C 83.644921 157.093059 83.843981 157.010605 83.990729 156.863857 
C 84.137477 156.71711 84.219931 156.518049 84.219931 156.310516 
C 84.219931 156.102984 84.137477 155.903923 83.990729 155.757175 
C 83.843981 155.610428 83.644921 155.527974 83.437388 155.527974 
C 83.229856 155.527974 83.030795 155.610428 82.884047 155.757175 
C 82.7373 155.903923 82.654846 156.102984 82.654846 156.310516 
C 82.654846 156.518049 82.7373 156.71711 82.884047 156.863857 
C 83.030795 157.010605 83.229856 157.093059 83.437388 157.093059 
z
" clip-path="url(#pc8b049e851)" style="stroke: #000000"/>
    <path d="M 72.776108 123.78552 
C 73.38099 123.78552 73.961179 123.545198 74.388895 123.117482 
C 74.816611 122.689766 75.056933 122.109577 75.056933 121.504695 
C 75.056933 120.899813 74.816611 120.319624 74.388895 119.891908 
C 73.961179 119.464192 73.38099 119.22387 72.776108 119.22387 
C 72.171226 119.22387 71.591037 119.464192 71.163321 119.891908 
C 70.735605 120.319624 70.495283 120.899813 70.495283 121.504695 
C 70.495283 122.109577 70.735605 122.689766 71.163321 123.117482 
C 71.591037 123.545198 72.171226 123.78552 72.776108 123.78552 
z
" clip-path="url(#pc8b049e851)" style="stroke: #000000"/>
    <path d="M 66.527884 116.643727 
C 67.233318 116.643727 67.909955 116.363455 68.408773 115.864638 
C 68.90759 115.36582 69.187862 114.689183 69.187862 113.983749 
C 69.187862 113.278314 68.90759 112.601678 68.408773 112.10286 
C 67.909955 111.604042 67.233318 111.32377 66.527884 111.32377 
C 65.822449 111.32377 65.145812 111.604042 64.646995 112.10286 
C 64.148177 112.601678 63.867905 113.278314 63.867905 113.983749 
C 63.867905 114.689183 64.148177 115.36582 64.646995 115.864638 
C 65.145812 116.363455 65.822449 116.643727 66.527884 116.643727 
z
" clip-path="url(#pc8b049e851)" style="stroke: #000000"/>
    <path d="M 62.318491 97.255532 
C 63.023925 97.255532 63.700562 96.97526 64.19938 96.476443 
C 64.698197 95.977625 64.978469 95.300988 64.978469 94.595554 
C 64.978469 93.890119 64.698197 93.213482 64.19938 92.714665 
C 63.700562 92.215847 63.023925 91.935575 62.318491 91.935575 
C 61.613056 91.935575 60.93642 92.215847 60.437602 92.714665 
C 59.938784 93.213482 59.658512 93.890119 59.658512 94.595554 
C 59.658512 95.300988 59.938784 95.977625 60.437602 96.476443 
C 60.93642 96.97526 61.613056 97.255532 62.318491 97.255532 
z
" clip-path="url(#pc8b049e851)" style="stroke: #000000"/>
    <path d="M 49.576329 60.366367 
C 50.173377 60.366367 50.746052 60.129158 51.168228 59.706981 
C 51.590405 59.284805 51.827614 58.71213 51.827614 58.115083 
C 51.827614 57.518035 51.590405 56.94536 51.168228 56.523184 
C 50.746052 56.101007 50.173377 55.863798 49.576329 55.863798 
C 48.979282 55.863798 48.406607 56.101007 47.984431 56.523184 
C 47.562254 56.94536 47.325045 57.518035 47.325045 58.115083 
C 47.325045 58.71213 47.562254 59.284805 47.984431 59.706981 
C 48.406607 60.129158 48.979282 60.366367 49.576329 60.366367 
z
" clip-path="url(#pc8b049e851)" style="stroke: #000000"/>
    <path d="M 46.009707 57.2456 
C 46.602719 57.2456 47.171523 57.009994 47.590846 56.590671 
C 48.010169 56.171348 48.245775 55.602544 48.245775 55.009532 
C 48.245775 54.41652 48.010169 53.847716 47.590846 53.428393 
C 47.171523 53.00907 46.602719 52.773464 46.009707 52.773464 
C 45.416695 52.773464 44.847891 53.00907 44.428568 53.428393 
C 44.009245 53.847716 43.773639 54.41652 43.773639 55.009532 
C 43.773639 55.602544 44.009245 56.171348 44.428568 56.590671 
C 44.847891 57.009994 45.416695 57.2456 46.009707 57.2456 
z
" clip-path="url(#pc8b049e851)" style="stroke: #000000"/>
    <path d="M 66.676712 159.829621 
C 67.382147 159.829621 68.058783 159.549349 68.557601 159.050531 
C 69.056418 158.551714 69.33669 157.875077 69.33669 157.169643 
C 69.33669 156.464208 69.056418 155.787571 68.557601 155.288754 
C 68.058783 154.789936 67.382147 154.509664 66.676712 154.509664 
C 65.971277 154.509664 65.294641 154.789936 64.795823 155.288754 
C 64.297006 155.787571 64.016733 156.464208 64.016733 157.169643 
C 64.016733 157.875077 64.297006 158.551714 64.795823 159.050531 
C 65.294641 159.549349 65.971277 159.829621 66.676712 159.829621 
z
" clip-path="url(#pc8b049e851)" style="stroke: #000000"/>
    <path d="M 64.084373 141.176122 
C 64.645209 141.176122 65.18315 140.953299 65.579721 140.556728 
C 65.976292 140.160157 66.199115 139.622216 66.199115 139.061379 
C 66.199115 138.500543 65.976292 137.962602 65.579721 137.566031 
C 65.18315 137.16946 64.645209 136.946637 64.084373 136.946637 
C 63.523536 136.946637 62.985595 137.16946 62.589024 137.566031 
C 62.192453 137.962602 61.96963 138.500543 61.96963 139.061379 
C 61.96963 139.622216 62.192453 140.160157 62.589024 140.556728 
C 62.985595 140.953299 63.523536 141.176122 64.084373 141.176122 
z
" clip-path="url(#pc8b049e851)" style="stroke: #000000"/>
    <path d="M 63.635252 129.512535 
C 64.340686 129.512535 65.017323 129.232262 65.51614 128.733445 
C 66.014958 128.234627 66.29523 127.557991 66.29523 126.852556 
C 66.29523 126.147121 66.014958 125.470485 65.51614 124.971667 
C 65.017323 124.47285 64.340686 124.192577 63.635252 124.192577 
C 62.929817 124.192577 62.25318 124.47285 61.754363 124.971667 
C 61.255545 125.470485 60.975273 126.147121 60.975273 126.852556 
C 60.975273 127.557991 61.255545 128.234627 61.754363 128.733445 
C 62.25318 129.232262 62.929817 129.512535 63.635252 129.512535 
z
" clip-path="url(#pc8b049e851)" style="stroke: #000000"/>
    <path d="M 58.623635 120.171707 
C 59.32907 120.171707 60.005707 119.891435 60.504524 119.392618 
C 61.003342 118.8938 61.283614 118.217164 61.283614 117.511729 
C 61.283614 116.806294 61.003342 116.129658 60.504524 115.63084 
C 60.005707 115.132023 59.32907 114.85175 58.623635 114.85175 
C 57.918201 114.85175 57.241564 115.132023 56.742747 115.63084 
C 56.243929 116.129658 55.963657 116.806294 55.963657 117.511729 
C 55.963657 118.217164 56.243929 118.8938 56.742747 119.392618 
C 57.241564 119.891435 57.918201 120.171707 58.623635 120.171707 
z
" clip-path="url(#pc8b049e851)" style="stroke: #000000"/>
    <path d="M 55.171988 106.158191 
C 55.877203 106.158191 56.553628 105.878007 57.05229 105.379345 
C 57.550952 104.880683 57.831136 104.204257 57.831136 103.499043 
C 57.831136 102.793829 57.550952 102.117403 57.05229 101.618742 
C 56.553628 101.12008 55.877203 100.839895 55.171988 100.839895 
C 54.466774 100.839895 53.790348 101.12008 53.291687 101.618742 
C 52.793025 102.117403 52.51284 102.793829 52.51284 103.499043 
C 52.51284 104.204257 52.793025 104.880683 53.291687 105.379345 
C 53.790348 105.878007 54.466774 106.158191 55.171988 106.158191 
z
" clip-path="url(#pc8b049e851)" style="stroke: #000000"/>
    <path d="M 50.080964 93.882018 
C 50.786178 93.882018 51.462604 93.601833 51.961265 93.103172 
C 52.459927 92.60451 52.740112 91.928084 52.740112 91.22287 
C 52.740112 90.517656 52.459927 89.84123 51.961265 89.342568 
C 51.462604 88.843907 50.786178 88.563722 50.080964 88.563722 
C 49.37575 88.563722 48.699324 88.843907 48.200662 89.342568 
C 47.702001 89.84123 47.421816 90.517656 47.421816 91.22287 
C 47.421816 91.928084 47.702001 92.60451 48.200662 93.103172 
C 48.699324 93.601833 49.37575 93.882018 50.080964 93.882018 
z
" clip-path="url(#pc8b049e851)" style="stroke: #000000"/>
    <path d="M 48.135196 88.715548 
C 48.840411 88.715548 49.516836 88.435363 50.015498 87.936701 
C 50.51416 87.43804 50.794344 86.761614 50.794344 86.0564 
C 50.794344 85.351186 50.51416 84.67476 50.015498 84.176098 
C 49.516836 83.677437 48.840411 83.397252 48.135196 83.397252 
C 47.429982 83.397252 46.753557 83.677437 46.254895 84.176098 
C 45.756233 84.67476 45.476048 85.351186 45.476048 86.0564 
C 45.476048 86.761614 45.756233 87.43804 46.254895 87.936701 
C 46.753557 88.435363 47.429982 88.715548 48.135196 88.715548 
z
" clip-path="url(#pc8b049e851)" style="stroke: #000000"/>
    <path d="M 63.563569 170.930943 
C 64.156581 170.930943 64.725385 170.695336 65.144708 170.276014 
C 65.564031 169.856691 65.799637 169.287887 65.799637 168.694875 
C 65.799637 168.101863 65.564031 167.533059 65.144708 167.113736 
C 64.725385 166.694413 64.156581 166.458807 63.563569 166.458807 
C 62.970557 166.458807 62.401753 166.694413 61.98243 167.113736 
C 61.563107 167.533059 61.327501 168.101863 61.327501 168.694875 
C 61.327501 169.287887 61.563107 169.856691 61.98243 170.276014 
C 62.401753 170.695336 62.970557 170.930943 63.563569 170.930943 
z
" clip-path="url(#pc8b049e851)" style="stroke: #000000"/>
    <path d="M 58.792873 151.690203 
C 59.496539 151.690203 60.17148 151.410633 60.669048 150.913066 
C 61.166615 150.415498 61.446185 149.740557 61.446185 149.036891 
C 61.446185 148.333224 61.166615 147.658283 60.669048 147.160716 
C 60.17148 146.663149 59.496539 146.383579 58.792873 146.383579 
C 58.089206 146.383579 57.414265 146.663149 56.916698 147.160716 
C 56.419131 147.658283 56.139561 148.333224 56.139561 149.036891 
C 56.139561 149.740557 56.419131 150.415498 56.916698 150.913066 
C 57.414265 151.410633 58.089206 151.690203 58.792873 151.690203 
z
" clip-path="url(#pc8b049e851)" style="stroke: #000000"/>
    <path d="M 50.889073 144.606674 
C 51.594288 144.606674 52.270713 144.32649 52.769375 143.827828 
C 53.268037 143.329166 53.548221 142.652741 53.548221 141.947526 
C 53.548221 141.242312 53.268037 140.565886 52.769375 140.067225 
C 52.270713 139.568563 51.594288 139.288378 50.889073 139.288378 
C 50.183859 139.288378 49.507434 139.568563 49.008772 140.067225 
C 48.51011 140.565886 48.229925 141.242312 48.229925 141.947526 
C 48.229925 142.652741 48.51011 143.329166 49.008772 143.827828 
C 49.507434 144.32649 50.183859 144.606674 50.889073 144.606674 
z
" clip-path="url(#pc8b049e851)" style="stroke: #000000"/>
    <path d="M 47.313452 130.874759 
C 47.851958 130.874759 48.368481 130.660808 48.749263 130.280026 
C 49.130044 129.899245 49.343995 129.382722 49.343995 128.844216 
C 49.343995 128.305709 49.130044 127.789186 48.749263 127.408405 
C 48.368481 127.027623 47.851958 126.813672 47.313452 126.813672 
C 46.774945 126.813672 46.258422 127.027623 45.877641 127.408405 
C 45.496859 127.789186 45.282909 128.305709 45.282909 128.844216 
C 45.282909 129.382722 45.496859 129.899245 45.877641 130.280026 
C 46.258422 130.660808 46.774945 130.874759 47.313452 130.874759 
z
" clip-path="url(#pc8b049e851)" style="stroke: #000000"/>
    <path d="M 42.044926 113.26858 
C 42.750361 113.26858 43.426998 112.988307 43.925815 112.48949 
C 44.424633 111.990672 44.704905 111.314036 44.704905 110.608601 
C 44.704905 109.903166 44.424633 109.22653 43.925815 108.727712 
C 43.426998 108.228895 42.750361 107.948622 42.044926 107.948622 
C 41.339492 107.948622 40.662855 108.228895 40.164038 108.727712 
C 39.66522 109.22653 39.384948 109.903166 39.384948 110.608601 
C 39.384948 111.314036 39.66522 111.990672 40.164038 112.48949 
C 40.662855 112.988307 41.339492 113.26858 42.044926 113.26858 
z
" clip-path="url(#pc8b049e851)" style="stroke: #000000"/>
    <path d="M 39.865104 101.499955 
C 40.570319 101.499955 41.246744 101.21977 41.745406 100.721109 
C 42.244068 100.222447 42.524252 99.546021 42.524252 98.840807 
C 42.524252 98.135593 42.244068 97.459167 41.745406 96.960506 
C 41.246744 96.461844 40.570319 96.181659 39.865104 96.181659 
C 39.15989 96.181659 38.483465 96.461844 37.984803 96.960506 
C 37.486141 97.459167 37.205956 98.135593 37.205956 98.840807 
C 37.205956 99.546021 37.486141 100.222447 37.984803 100.721109 
C 38.483465 101.21977 39.15989 101.499955 39.865104 101.499955 
z
" clip-path="url(#pc8b049e851)" style="stroke: #000000"/>
    <path d="M 38.054526 93.913222 
C 38.585965 93.913222 39.095709 93.702079 39.471493 93.326294 
C 39.847278 92.95051 40.058421 92.440766 40.058421 91.909327 
C 40.058421 91.377888 39.847278 90.868143 39.471493 90.492359 
C 39.095709 90.116575 38.585965 89.905432 38.054526 89.905432 
C 37.523087 89.905432 37.013342 90.116575 36.637558 90.492359 
C 36.261774 90.868143 36.050631 91.377888 36.050631 91.909327 
C 36.050631 92.440766 36.261774 92.95051 36.637558 93.326294 
C 37.013342 93.702079 37.523087 93.913222 38.054526 93.913222 
z
" clip-path="url(#pc8b049e851)" style="stroke: #000000"/>
    <path d="M 50.935541 152.716835 
C 51.222721 152.716835 51.498178 152.602737 51.701245 152.39967 
C 51.904312 152.196603 52.018409 151.921147 52.018409 151.633967 
C 52.018409 151.346787 51.904312 151.07133 51.701245 150.868263 
C 51.498178 150.665196 51.222721 150.551098 50.935541 150.551098 
C 50.648361 150.551098 50.372904 150.665196 50.169837 150.868263 
C 49.96677 151.07133 49.852673 151.346787 49.852673 151.633967 
C 49.852673 151.921147 49.96677 152.196603 50.169837 152.39967 
C 50.372904 152.602737 50.648361 152.716835 50.935541 152.716835 
z
" clip-path="url(#pc8b049e851)" style="stroke: #000000"/>
    <path d="M 37.898601 126.389974 
C 38.604035 126.389974 39.280672 126.109702 39.779489 125.610885 
C 40.278307 125.112067 40.558579 124.43543 40.558579 123.729996 
C 40.558579 123.024561 40.278307 122.347924 39.779489 121.849107 
C 39.280672 121.350289 38.604035 121.070017 37.898601 121.070017 
C 37.193166 121.070017 36.516529 121.350289 36.017712 121.849107 
C 35.518894 122.347924 35.238622 123.024561 35.238622 123.729996 
C 35.238622 124.43543 35.518894 125.112067 36.017712 125.610885 
C 36.516529 126.109702 37.193166 126.389974 37.898601 126.389974 
z
" clip-path="url(#pc8b049e851)" style="stroke: #000000"/>
    <path d="M 32.944619 113.759293 
C 33.650053 113.759293 34.32669 113.479021 34.825508 112.980204 
C 35.324325 112.481386 35.604597 111.804749 35.604597 111.099315 
C 35.604597 110.39388 35.324325 109.717243 34.825508 109.218426 
C 34.32669 108.719608 33.650053 108.439336 32.944619 108.439336 
C 32.239184 108.439336 31.562548 108.719608 31.06373 109.218426 
C 30.564912 109.717243 30.28464 110.39388 30.28464 111.099315 
C 30.28464 111.804749 30.564912 112.481386 31.06373 112.980204 
C 31.562548 113.479021 32.239184 113.759293 32.944619 113.759293 
z
" clip-path="url(#pc8b049e851)" style="stroke: #000000"/>
    <path d="M 40.40762 170.270535 
C 41.000632 170.270535 41.569436 170.034929 41.988759 169.615606 
C 42.408082 169.196283 42.643688 168.627479 42.643688 168.034467 
C 42.643688 167.441455 42.408082 166.872651 41.988759 166.453328 
C 41.569436 166.034005 41.000632 165.798399 40.40762 165.798399 
C 39.814608 165.798399 39.245804 166.034005 38.826481 166.453328 
C 38.407158 166.872651 38.171552 167.441455 38.171552 168.034467 
C 38.171552 168.627479 38.407158 169.196283 38.826481 169.615606 
C 39.245804 170.034929 39.814608 170.270535 40.40762 170.270535 
z
" clip-path="url(#pc8b049e851)" style="stroke: #000000"/>
    <path d="M 28.883332 141.667278 
C 29.476344 141.667278 30.045148 141.431671 30.464471 141.012349 
C 30.883794 140.593026 31.1194 140.024222 31.1194 139.43121 
C 31.1194 138.838198 30.883794 138.269394 30.464471 137.850071 
C 30.045148 137.430748 29.476344 137.195142 28.883332 137.195142 
C 28.29032 137.195142 27.721516 137.430748 27.302193 137.850071 
C 26.88287 138.269394 26.647264 138.838198 26.647264 139.43121 
C 26.647264 140.024222 26.88287 140.593026 27.302193 141.012349 
C 27.721516 141.431671 28.29032 141.667278 28.883332 141.667278 
z
" clip-path="url(#pc8b049e851)" style="stroke: #000000"/>
    <path d="M 27.575633 130.416736 
C 28.208846 130.416736 28.816209 130.165158 29.263958 129.717409 
C 29.711706 129.26966 29.963284 128.662297 29.963284 128.029085 
C 29.963284 127.395872 29.711706 126.788509 29.263958 126.340761 
C 28.816209 125.893012 28.208846 125.641434 27.575633 125.641434 
C 26.942421 125.641434 26.335058 125.893012 25.887309 126.340761 
C 25.43956 126.788509 25.187982 127.395872 25.187982 128.029085 
C 25.187982 128.662297 25.43956 129.26966 25.887309 129.717409 
C 26.335058 130.165158 26.942421 130.416736 27.575633 130.416736 
z
" clip-path="url(#pc8b049e851)" style="stroke: #000000"/>
   </g>
   <g id="matplotlib.axis_1">
    <g id="xtick_1">
     <g id="line2d_1">
      <defs>
       <path id="m7be3814b72" d="M 0 0 
L 0 3.5 
" style="stroke: #000000; stroke-width: 0.8"/>
      </defs>
      <g>
       <use xlink:href="#m7be3814b72" x="18" y="189" style="stroke: #000000; stroke-width: 0.8"/>
      </g>
     </g>
     <g id="text_1">
      <!-- −10 -->
      <g transform="translate(7.447656 203.598437)scale(0.1 -0.1)">
       <defs>
        <path id="DejaVuSans-2212" d="M 678 2272 
L 4684 2272 
L 4684 1741 
L 678 1741 
L 678 2272 
z
" transform="scale(0.015625)"/>
        <path id="DejaVuSans-31" d="M 794 531 
L 1825 531 
L 1825 4091 
L 703 3866 
L 703 4441 
L 1819 4666 
L 2450 4666 
L 2450 531 
L 3481 531 
L 3481 0 
L 794 0 
L 794 531 
z
" transform="scale(0.015625)"/>
        <path id="DejaVuSans-30" d="M 2034 4250 
Q 1547 4250 1301 3770 
Q 1056 3291 1056 2328 
Q 1056 1369 1301 889 
Q 1547 409 2034 409 
Q 2525 409 2770 889 
Q 3016 1369 3016 2328 
Q 3016 3291 2770 3770 
Q 2525 4250 2034 4250 
z
M 2034 4750 
Q 2819 4750 3233 4129 
Q 3647 3509 3647 2328 
Q 3647 1150 3233 529 
Q 2819 -91 2034 -91 
Q 1250 -91 836 529 
Q 422 1150 422 2328 
Q 422 3509 836 4129 
Q 1250 4750 2034 4750 
z
" transform="scale(0.015625)"/>
       </defs>
       <use xlink:href="#DejaVuSans-2212"/>
       <use xlink:href="#DejaVuSans-31" x="83.789062"/>
       <use xlink:href="#DejaVuSans-30" x="147.412109"/>
      </g>
     </g>
    </g>
    <g id="xtick_2">
     <g id="line2d_2">
      <g>
       <use xlink:href="#m7be3814b72" x="73.8" y="189" style="stroke: #000000; stroke-width: 0.8"/>
      </g>
     </g>
     <g id="text_2">
      <!-- 0 -->
      <g transform="translate(70.61875 203.598437)scale(0.1 -0.1)">
       <use xlink:href="#DejaVuSans-30"/>
      </g>
     </g>
    </g>
    <g id="xtick_3">
     <g id="line2d_3">
      <g>
       <use xlink:href="#m7be3814b72" x="129.6" y="189" style="stroke: #000000; stroke-width: 0.8"/>
      </g>
     </g>
     <g id="text_3">
      <!-- 10 -->
      <g transform="translate(123.2375 203.598437)scale(0.1 -0.1)">
       <use xlink:href="#DejaVuSans-31"/>
       <use xlink:href="#DejaVuSans-30" x="63.623047"/>
      </g>
     </g>
    </g>
   </g>
   <g id="matplotlib.axis_2">
    <g id="ytick_1">
     <g id="line2d_4">
      <defs>
       <path id="ma8f412e913" d="M 0 0 
L -3.5 0 
" style="stroke: #000000; stroke-width: 0.8"/>
      </defs>
      <g>
       <use xlink:href="#ma8f412e913" x="18" y="189" style="stroke: #000000; stroke-width: 0.8"/>
      </g>
     </g>
     <g id="text_4">
      <!-- −15 -->
      <g transform="translate(-10.104688 192.799219)scale(0.1 -0.1)">
       <defs>
        <path id="DejaVuSans-35" d="M 691 4666 
L 3169 4666 
L 3169 4134 
L 1269 4134 
L 1269 2991 
Q 1406 3038 1543 3061 
Q 1681 3084 1819 3084 
Q 2600 3084 3056 2656 
Q 3513 2228 3513 1497 
Q 3513 744 3044 326 
Q 2575 -91 1722 -91 
Q 1428 -91 1123 -41 
Q 819 9 494 109 
L 494 744 
Q 775 591 1075 516 
Q 1375 441 1709 441 
Q 2250 441 2565 725 
Q 2881 1009 2881 1497 
Q 2881 1984 2565 2268 
Q 2250 2553 1709 2553 
Q 1456 2553 1204 2497 
Q 953 2441 691 2322 
L 691 4666 
z
" transform="scale(0.015625)"/>
       </defs>
       <use xlink:href="#DejaVuSans-2212"/>
       <use xlink:href="#DejaVuSans-31" x="83.789062"/>
       <use xlink:href="#DejaVuSans-35" x="147.412109"/>
      </g>
     </g>
    </g>
    <g id="ytick_2">
     <g id="line2d_5">
      <g>
       <use xlink:href="#ma8f412e913" x="18" y="161.82" style="stroke: #000000; stroke-width: 0.8"/>
      </g>
     </g>
     <g id="text_5">
      <!-- −10 -->
      <g transform="translate(-10.104688 165.619219)scale(0.1 -0.1)">
       <use xlink:href="#DejaVuSans-2212"/>
       <use xlink:href="#DejaVuSans-31" x="83.789062"/>
       <use xlink:href="#DejaVuSans-30" x="147.412109"/>
      </g>
     </g>
    </g>
    <g id="ytick_3">
     <g id="line2d_6">
      <g>
       <use xlink:href="#ma8f412e913" x="18" y="134.64" style="stroke: #000000; stroke-width: 0.8"/>
      </g>
     </g>
     <g id="text_6">
      <!-- −5 -->
      <g transform="translate(-3.742188 138.439219)scale(0.1 -0.1)">
       <use xlink:href="#DejaVuSans-2212"/>
       <use xlink:href="#DejaVuSans-35" x="83.789062"/>
      </g>
     </g>
    </g>
    <g id="ytick_4">
     <g id="line2d_7">
      <g>
       <use xlink:href="#ma8f412e913" x="18" y="107.46" style="stroke: #000000; stroke-width: 0.8"/>
      </g>
     </g>
     <g id="text_7">
      <!-- 0 -->
      <g transform="translate(4.6375 111.259219)scale(0.1 -0.1)">
       <use xlink:href="#DejaVuSans-30"/>
      </g>
     </g>
    </g>
    <g id="ytick_5">
     <g id="line2d_8">
      <g>
       <use xlink:href="#ma8f412e913" x="18" y="80.28" style="stroke: #000000; stroke-width: 0.8"/>
      </g>
     </g>
     <g id="text_8">
      <!-- 5 -->
      <g transform="translate(4.6375 84.079219)scale(0.1 -0.1)">
       <use xlink:href="#DejaVuSans-35"/>
      </g>
     </g>
    </g>
    <g id="ytick_6">
     <g id="line2d_9">
      <g>
       <use xlink:href="#ma8f412e913" x="18" y="53.1" style="stroke: #000000; stroke-width: 0.8"/>
      </g>
     </g>
     <g id="text_9">
      <!-- 10 -->
      <g transform="translate(-1.725 56.899219)scale(0.1 -0.1)">
       <use xlink:href="#DejaVuSans-31"/>
       <use xlink:href="#DejaVuSans-30" x="63.623047"/>
      </g>
     </g>
    </g>
    <g id="ytick_7">
     <g id="line2d_10">
      <g>
       <use xlink:href="#ma8f412e913" x="18" y="25.92" style="stroke: #000000; stroke-width: 0.8"/>
      </g>
     </g>
     <g id="text_10">
      <!-- 15 -->
      <g transform="translate(-1.725 29.719219)scale(0.1 -0.1)">
       <use xlink:href="#DejaVuSans-31"/>
       <use xlink:href="#DejaVuSans-35" x="63.623047"/>
      </g>
     </g>
    </g>
   </g>
   <g id="patch_3">
    <path d="M 18 189 
L 18 25.92 
" style="fill: none; stroke: #000000; stroke-width: 0.8; stroke-linejoin: miter; stroke-linecap: square"/>
   </g>
   <g id="patch_4">
    <path d="M 129.6 189 
L 129.6 25.92 
" style="fill: none; stroke: #000000; stroke-width: 0.8; stroke-linejoin: miter; stroke-linecap: square"/>
   </g>
   <g id="patch_5">
    <path d="M 18 189 
L 129.6 189 
" style="fill: none; stroke: #000000; stroke-width: 0.8; stroke-linejoin: miter; stroke-linecap: square"/>
   </g>
   <g id="patch_6">
    <path d="M 18 25.92 
L 129.6 25.92 
" style="fill: none; stroke: #000000; stroke-width: 0.8; stroke-linejoin: miter; stroke-linecap: square"/>
   </g>
  </g>
 </g>
 <defs>
  <clipPath id="pc8b049e851">
   <rect x="18" y="25.92" width="111.6" height="163.08"/>
  </clipPath>
 </defs>
</svg>
