<?xml version="1.0" encoding="utf-8" standalone="no"?>
<!DOCTYPE svg PUBLIC "-//W3C//DTD SVG 1.1//EN"
  "http://www.w3.org/Graphics/SVG/1.1/DTD/svg11.dtd">
<svg xmlns:xlink="http://www.w3.org/1999/xlink" width="144pt" height="216pt" viewBox="0 0 144 216" xmlns="http://www.w3.org/2000/svg" version="1.1">
 <metadata>
  <rdf:RDF xmlns:dc="http://purl.org/dc/elements/1.1/" xmlns:cc="http://creativecommons.org/ns#" xmlns:rdf="http://www.w3.org/1999/02/22-rdf-syntax-ns#">
   <cc:Work>
    <dc:type rdf:resource="http://purl.org/dc/dcmitype/StillImage"/>
    <dc:date>2022-06-23T14:53:16.114504</dc:date>
    <dc:format>image/svg+xml</dc:format>
    <dc:creator>
     <cc:Agent>
      <dc:title>Matplotlib v3.5.1, https://matplotlib.org/</dc:title>
     </cc:Agent>
    </dc:creator>
   </cc:Work>
  </rdf:RDF>
 </metadata>
 <defs>
  <style type="text/css">*{stroke-linejoin: round; stroke-linecap: butt}</style>
 </defs>
 <g id="figure_1">
  <g id="patch_1">
   <path d="M 0 216 
L 144 216 
L 144 0 
L 0 0 
L 0 216 
z
" style="fill: none"/>
  </g>
  <g id="axes_1">
   <g id="patch_2">
    <path d="M 18 189 
L 129.6 189 
L 129.6 25.92 
L 18 25.92 
z
" style="fill: #ffffff"/>
   </g>
   <g id="PathCollection_1">
    <defs>
     <path id="m476c968e10" d="M 0 2.738613 
C 0.726289 2.738613 1.422928 2.450055 1.936492 1.936492 
C 2.450055 1.422928 2.738613 0.726289 2.738613 0 
C 2.738613 -0.726289 2.450055 -1.422928 1.936492 -1.936492 
C 1.422928 -2.450055 0.726289 -2.738613 0 -2.738613 
C -0.726289 -2.738613 -1.422928 -2.450055 -1.936492 -1.936492 
C -2.450055 -1.422928 -2.738613 -0.726289 -2.738613 0 
C -2.738613 0.726289 -2.450055 1.422928 -1.936492 1.936492 
C -1.422928 2.450055 -0.726289 2.738613 0 2.738613 
z
" style="stroke: #ff0000; stroke-width: 1.75"/>
    </defs>
    <g clip-path="url(#pac94f7f1cd)">
     <use xlink:href="#m476c968e10" x="80.775" y="83.92143" style="fill: #ff0000; stroke: #ff0000; stroke-width: 1.75"/>
     <use xlink:href="#m476c968e10" x="59.85" y="95.690715" style="fill: #ff0000; stroke: #ff0000; stroke-width: 1.75"/>
     <use xlink:href="#m476c968e10" x="66.825" y="107.46" style="fill: #ff0000; stroke: #ff0000; stroke-width: 1.75"/>
     <use xlink:href="#m476c968e10" x="80.775" y="107.46" style="fill: #ff0000; stroke: #ff0000; stroke-width: 1.75"/>
     <use xlink:href="#m476c968e10" x="94.725" y="107.46" style="fill: #ff0000; stroke: #ff0000; stroke-width: 1.75"/>
     <use xlink:href="#m476c968e10" x="59.85" y="119.229285" style="fill: #ff0000; stroke: #ff0000; stroke-width: 1.75"/>
     <use xlink:href="#m476c968e10" x="80.775" y="130.99857" style="fill: #ff0000; stroke: #ff0000; stroke-width: 1.75"/>
    </g>
   </g>
   <g id="PathCollection_2">
    <defs>
     <path id="C0_0_a215b6c406" d="M 0 2.738613 
C 0.726289 2.738613 1.422928 2.450055 1.936492 1.936492 
C 2.450055 1.422928 2.738613 0.726289 2.738613 -0 
C 2.738613 -0.726289 2.450055 -1.422928 1.936492 -1.936492 
C 1.422928 -2.450055 0.726289 -2.738613 0 -2.738613 
C -0.726289 -2.738613 -1.422928 -2.450055 -1.936492 -1.936492 
C -2.450055 -1.422928 -2.738613 -0.726289 -2.738613 0 
C -2.738613 0.726289 -2.450055 1.422928 -1.936492 1.936492 
C -1.422928 2.450055 -0.726289 2.738613 0 2.738613 
z
"/>
    </defs>
    <g clip-path="url(#pac94f7f1cd)">
     <use xlink:href="#C0_0_a215b6c406" x="66.825" y="83.92143" style="fill: none; stroke: #ff0000; stroke-width: 1.75"/>
    </g>
    <g clip-path="url(#pac94f7f1cd)">
     <use xlink:href="#C0_0_a215b6c406" x="73.8" y="95.690715" style="fill: none; stroke: #ff0000; stroke-width: 1.75"/>
    </g>
    <g clip-path="url(#pac94f7f1cd)">
     <use xlink:href="#C0_0_a215b6c406" x="87.75" y="95.690715" style="fill: none; stroke: #ff0000; stroke-width: 1.75"/>
    </g>
    <g clip-path="url(#pac94f7f1cd)">
     <use xlink:href="#C0_0_a215b6c406" x="52.875" y="107.46" style="fill: none; stroke: #ff0000; stroke-width: 1.75"/>
    </g>
    <g clip-path="url(#pac94f7f1cd)">
     <use xlink:href="#C0_0_a215b6c406" x="73.8" y="119.229285" style="fill: none; stroke: #ff0000; stroke-width: 1.75"/>
    </g>
    <g clip-path="url(#pac94f7f1cd)">
     <use xlink:href="#C0_0_a215b6c406" x="87.75" y="119.229285" style="fill: none; stroke: #ff0000; stroke-width: 1.75"/>
    </g>
    <g clip-path="url(#pac94f7f1cd)">
     <use xlink:href="#C0_0_a215b6c406" x="66.825" y="130.99857" style="fill: none; stroke: #ff0000; stroke-width: 1.75"/>
    </g>
   </g>
   <g id="PathCollection_3">
    <path d="M 114.616673 102.214651 
C 114.749275 102.214651 114.876463 102.161968 114.970226 102.068204 
C 115.06399 101.974441 115.116673 101.847252 115.116673 101.714651 
C 115.116673 101.582049 115.06399 101.454861 114.970226 101.361097 
C 114.876463 101.267334 114.749275 101.214651 114.616673 101.214651 
C 114.484072 101.214651 114.356883 101.267334 114.26312 101.361097 
C 114.169356 101.454861 114.116673 101.582049 114.116673 101.714651 
C 114.116673 101.847252 114.169356 101.974441 114.26312 102.068204 
C 114.356883 102.161968 114.484072 102.214651 114.616673 102.214651 
z
" clip-path="url(#pac94f7f1cd)" style="stroke: #000000"/>
    <path d="M 102.062037 107.104762 
C 102.219728 107.104762 102.370981 107.042111 102.482485 106.930606 
C 102.593989 106.819102 102.656641 106.667849 102.656641 106.510158 
C 102.656641 106.352467 102.593989 106.201214 102.482485 106.08971 
C 102.370981 105.978206 102.219728 105.915555 102.062037 105.915555 
C 101.904346 105.915555 101.753093 105.978206 101.641589 106.08971 
C 101.530085 106.201214 101.467433 106.352467 101.467433 106.510158 
C 101.467433 106.667849 101.530085 106.819102 101.641589 106.930606 
C 101.753093 107.042111 101.904346 107.104762 102.062037 107.104762 
z
" clip-path="url(#pac94f7f1cd)" style="stroke: #000000"/>
    <path d="M 97.335819 88.441969 
C 97.523346 88.441969 97.703218 88.367464 97.835819 88.234862 
C 97.968421 88.102261 98.042926 87.922389 98.042926 87.734862 
C 98.042926 87.547335 97.968421 87.367464 97.835819 87.234862 
C 97.703218 87.102261 97.523346 87.027756 97.335819 87.027756 
C 97.148292 87.027756 96.968421 87.102261 96.835819 87.234862 
C 96.703218 87.367464 96.628712 87.547335 96.628712 87.734862 
C 96.628712 87.922389 96.703218 88.102261 96.835819 88.234862 
C 96.968421 88.367464 97.148292 88.441969 97.335819 88.441969 
z
" clip-path="url(#pac94f7f1cd)" style="stroke: #000000"/>
    <path d="M 109.179039 135.099209 
C 109.31164 135.099209 109.438829 135.046526 109.532592 134.952763 
C 109.626356 134.858999 109.679039 134.731811 109.679039 134.599209 
C 109.679039 134.466608 109.626356 134.339419 109.532592 134.245656 
C 109.438829 134.151893 109.31164 134.099209 109.179039 134.099209 
C 109.046437 134.099209 108.919249 134.151893 108.825485 134.245656 
C 108.731722 134.339419 108.679039 134.466608 108.679039 134.599209 
C 108.679039 134.731811 108.731722 134.858999 108.825485 134.952763 
C 108.919249 135.046526 109.046437 135.099209 109.179039 135.099209 
z
" clip-path="url(#pac94f7f1cd)" style="stroke: #000000"/>
    <path d="M 104.999959 126.583478 
C 105.132561 126.583478 105.259749 126.530795 105.353512 126.437032 
C 105.447276 126.343268 105.499959 126.21608 105.499959 126.083478 
C 105.499959 125.950877 105.447276 125.823688 105.353512 125.729925 
C 105.259749 125.636161 105.132561 125.583478 104.999959 125.583478 
C 104.867357 125.583478 104.740169 125.636161 104.646406 125.729925 
C 104.552642 125.823688 104.499959 125.950877 104.499959 126.083478 
C 104.499959 126.21608 104.552642 126.343268 104.646406 126.437032 
C 104.740169 126.530795 104.867357 126.583478 104.999959 126.583478 
z
" clip-path="url(#pac94f7f1cd)" style="stroke: #000000"/>
    <path d="M 98.789024 113.680064 
C 99.045521 113.680064 99.291546 113.578157 99.472916 113.396787 
C 99.654286 113.215417 99.756193 112.969392 99.756193 112.712896 
C 99.756193 112.4564 99.654286 112.210375 99.472916 112.029005 
C 99.291546 111.847635 99.045521 111.745728 98.789024 111.745728 
C 98.532528 111.745728 98.286503 111.847635 98.105133 112.029005 
C 97.923763 112.210375 97.821856 112.4564 97.821856 112.712896 
C 97.821856 112.969392 97.923763 113.215417 98.105133 113.396787 
C 98.286503 113.578157 98.532528 113.680064 98.789024 113.680064 
z
" clip-path="url(#pac94f7f1cd)" style="stroke: #000000"/>
    <path d="M 94.502199 110.145551 
C 95.151529 110.145551 95.774352 109.88757 96.233498 109.428424 
C 96.692644 108.969278 96.950625 108.346456 96.950625 107.697126 
C 96.950625 107.047795 96.692644 106.424973 96.233498 105.965827 
C 95.774352 105.506681 95.151529 105.2487 94.502199 105.2487 
C 93.852869 105.2487 93.230047 105.506681 92.770901 105.965827 
C 92.311755 106.424973 92.053773 107.047795 92.053773 107.697126 
C 92.053773 108.346456 92.311755 108.969278 92.770901 109.428424 
C 93.230047 109.88757 93.852869 110.145551 94.502199 110.145551 
z
" clip-path="url(#pac94f7f1cd)" style="stroke: #000000"/>
    <path d="M 92.916212 106.242012 
C 93.417348 106.242012 93.898027 106.042908 94.252384 105.688551 
C 94.606741 105.334194 94.805845 104.853515 94.805845 104.352379 
C 94.805845 103.851242 94.606741 103.370563 94.252384 103.016206 
C 93.898027 102.661849 93.417348 102.462745 92.916212 102.462745 
C 92.415075 102.462745 91.934396 102.661849 91.580039 103.016206 
C 91.225682 103.370563 91.026578 103.851242 91.026578 104.352379 
C 91.026578 104.853515 91.225682 105.334194 91.580039 105.688551 
C 91.934396 106.042908 92.415075 106.242012 92.916212 106.242012 
z
" clip-path="url(#pac94f7f1cd)" style="stroke: #000000"/>
    <path d="M 96.551204 95.473119 
C 96.683805 95.473119 96.810994 95.420436 96.904757 95.326673 
C 96.998521 95.232909 97.051204 95.105721 97.051204 94.973119 
C 97.051204 94.840518 96.998521 94.713329 96.904757 94.619566 
C 96.810994 94.525802 96.683805 94.473119 96.551204 94.473119 
C 96.418602 94.473119 96.291414 94.525802 96.19765 94.619566 
C 96.103887 94.713329 96.051204 94.840518 96.051204 94.973119 
C 96.051204 95.105721 96.103887 95.232909 96.19765 95.326673 
C 96.291414 95.420436 96.418602 95.473119 96.551204 95.473119 
z
" clip-path="url(#pac94f7f1cd)" style="stroke: #000000"/>
    <path d="M 88.19712 84.32084 
C 88.519646 84.32084 88.829007 84.192699 89.057067 83.964638 
C 89.285128 83.736577 89.413269 83.427217 89.413269 83.10469 
C 89.413269 82.782164 89.285128 82.472804 89.057067 82.244743 
C 88.829007 82.016682 88.519646 81.888541 88.19712 81.888541 
C 87.874593 81.888541 87.565233 82.016682 87.337172 82.244743 
C 87.109111 82.472804 86.98097 82.782164 86.98097 83.10469 
C 86.98097 83.427217 87.109111 83.736577 87.337172 83.964638 
C 87.565233 84.192699 87.874593 84.32084 88.19712 84.32084 
z
" clip-path="url(#pac94f7f1cd)" style="stroke: #000000"/>
    <path d="M 84.167287 79.927178 
C 84.436541 79.927178 84.694802 79.820203 84.885193 79.629812 
C 85.075584 79.439421 85.182559 79.18116 85.182559 78.911907 
C 85.182559 78.642654 85.075584 78.384392 84.885193 78.194001 
C 84.694802 78.003611 84.436541 77.896635 84.167287 77.896635 
C 83.898034 77.896635 83.639773 78.003611 83.449382 78.194001 
C 83.258991 78.384392 83.152016 78.642654 83.152016 78.911907 
C 83.152016 79.18116 83.258991 79.439421 83.449382 79.629812 
C 83.639773 79.820203 83.898034 79.927178 84.167287 79.927178 
z
" clip-path="url(#pac94f7f1cd)" style="stroke: #000000"/>
    <path d="M 98.146711 129.036504 
C 98.279313 129.036504 98.406501 128.983821 98.500264 128.890058 
C 98.594028 128.796294 98.646711 128.669106 98.646711 128.536504 
C 98.646711 128.403903 98.594028 128.276714 98.500264 128.182951 
C 98.406501 128.089187 98.279313 128.036504 98.146711 128.036504 
C 98.014109 128.036504 97.886921 128.089187 97.793158 128.182951 
C 97.699394 128.276714 97.646711 128.403903 97.646711 128.536504 
C 97.646711 128.669106 97.699394 128.796294 97.793158 128.890058 
C 97.886921 128.983821 98.014109 129.036504 98.146711 129.036504 
z
" clip-path="url(#pac94f7f1cd)" style="stroke: #000000"/>
    <path d="M 91.579617 119.397205 
C 92.009051 119.397205 92.420955 119.226589 92.724611 118.922933 
C 93.028266 118.619277 93.198883 118.207374 93.198883 117.777939 
C 93.198883 117.348505 93.028266 116.936601 92.724611 116.632945 
C 92.420955 116.329289 92.009051 116.158673 91.579617 116.158673 
C 91.150182 116.158673 90.738279 116.329289 90.434623 116.632945 
C 90.130967 116.936601 89.960351 117.348505 89.960351 117.777939 
C 89.960351 118.207374 90.130967 118.619277 90.434623 118.922933 
C 90.738279 119.226589 91.150182 119.397205 91.579617 119.397205 
z
" clip-path="url(#pac94f7f1cd)" style="stroke: #000000"/>
    <path d="M 90.651267 110.693391 
C 90.866954 110.693391 91.073835 110.607698 91.226349 110.455185 
C 91.378862 110.302671 91.464555 110.09579 91.464555 109.880103 
C 91.464555 109.664417 91.378862 109.457535 91.226349 109.305022 
C 91.073835 109.152508 90.866954 109.066815 90.651267 109.066815 
C 90.43558 109.066815 90.228699 109.152508 90.076185 109.305022 
C 89.923672 109.457535 89.837979 109.664417 89.837979 109.880103 
C 89.837979 110.09579 89.923672 110.302671 90.076185 110.455185 
C 90.228699 110.607698 90.43558 110.693391 90.651267 110.693391 
z
" clip-path="url(#pac94f7f1cd)" style="stroke: #000000"/>
    <path d="M 83.224922 96.879661 
C 83.460724 96.879661 83.686901 96.785975 83.853638 96.619238 
C 84.020376 96.4525 84.114061 96.226323 84.114061 95.990521 
C 84.114061 95.754718 84.020376 95.528542 83.853638 95.361804 
C 83.686901 95.195066 83.460724 95.101381 83.224922 95.101381 
C 82.989119 95.101381 82.762942 95.195066 82.596205 95.361804 
C 82.429467 95.528542 82.335782 95.754718 82.335782 95.990521 
C 82.335782 96.226323 82.429467 96.4525 82.596205 96.619238 
C 82.762942 96.785975 82.989119 96.879661 83.224922 96.879661 
z
" clip-path="url(#pac94f7f1cd)" style="stroke: #000000"/>
    <path d="M 85.127702 95.890041 
C 85.677713 95.890041 86.205271 95.67152 86.594188 95.282603 
C 86.983105 94.893686 87.201626 94.366128 87.201626 93.816117 
C 87.201626 93.266106 86.983105 92.738548 86.594188 92.349631 
C 86.205271 91.960714 85.677713 91.742193 85.127702 91.742193 
C 84.577691 91.742193 84.050133 91.960714 83.661216 92.349631 
C 83.272299 92.738548 83.053777 93.266106 83.053777 93.816117 
C 83.053777 94.366128 83.272299 94.893686 83.661216 95.282603 
C 84.050133 95.67152 84.577691 95.890041 85.127702 95.890041 
z
" clip-path="url(#pac94f7f1cd)" style="stroke: #000000"/>
    <path d="M 79.734091 88.684413 
C 80.350512 88.684413 80.94177 88.439506 81.377646 88.00363 
C 81.813522 87.567754 82.058429 86.976496 82.058429 86.360075 
C 82.058429 85.743653 81.813522 85.152396 81.377646 84.71652 
C 80.94177 84.280644 80.350512 84.035737 79.734091 84.035737 
C 79.117669 84.035737 78.526412 84.280644 78.090536 84.71652 
C 77.65466 85.152396 77.409753 85.743653 77.409753 86.360075 
C 77.409753 86.976496 77.65466 87.567754 78.090536 88.00363 
C 78.526412 88.439506 79.117669 88.684413 79.734091 88.684413 
z
" clip-path="url(#pac94f7f1cd)" style="stroke: #000000"/>
    <path d="M 78.805993 78.760502 
C 78.938595 78.760502 79.065783 78.707819 79.159547 78.614055 
C 79.25331 78.520292 79.305993 78.393103 79.305993 78.260502 
C 79.305993 78.1279 79.25331 78.000712 79.159547 77.906948 
C 79.065783 77.813185 78.938595 77.760502 78.805993 77.760502 
C 78.673392 77.760502 78.546203 77.813185 78.45244 77.906948 
C 78.358676 78.000712 78.305993 78.1279 78.305993 78.260502 
C 78.305993 78.393103 78.358676 78.520292 78.45244 78.614055 
C 78.546203 78.707819 78.673392 78.760502 78.805993 78.760502 
z
" clip-path="url(#pac94f7f1cd)" style="stroke: #000000"/>
    <path d="M 103.878284 167.521844 
C 104.010886 167.521844 104.138074 167.46916 104.231838 167.375397 
C 104.325601 167.281634 104.378284 167.154445 104.378284 167.021844 
C 104.378284 166.889242 104.325601 166.762054 104.231838 166.66829 
C 104.138074 166.574527 104.010886 166.521844 103.878284 166.521844 
C 103.745683 166.521844 103.618495 166.574527 103.524731 166.66829 
C 103.430968 166.762054 103.378284 166.889242 103.378284 167.021844 
C 103.378284 167.154445 103.430968 167.281634 103.524731 167.375397 
C 103.618495 167.46916 103.745683 167.521844 103.878284 167.521844 
z
" clip-path="url(#pac94f7f1cd)" style="stroke: #000000"/>
    <path d="M 91.08786 124.21067 
C 91.467233 124.21067 91.83112 124.059943 92.099378 123.791686 
C 92.367636 123.523428 92.518362 123.159541 92.518362 122.780167 
C 92.518362 122.400794 92.367636 122.036907 92.099378 121.768649 
C 91.83112 121.500391 91.467233 121.349665 91.08786 121.349665 
C 90.708486 121.349665 90.344599 121.500391 90.076341 121.768649 
C 89.808084 122.036907 89.657357 122.400794 89.657357 122.780167 
C 89.657357 123.159541 89.808084 123.523428 90.076341 123.791686 
C 90.344599 124.059943 90.708486 124.21067 91.08786 124.21067 
z
" clip-path="url(#pac94f7f1cd)" style="stroke: #000000"/>
    <path d="M 85.532232 119.181521 
C 86.046365 119.181521 86.53951 118.977253 86.903057 118.613706 
C 87.266604 118.250159 87.470871 117.757014 87.470871 117.242881 
C 87.470871 116.728748 87.266604 116.235603 86.903057 115.872056 
C 86.53951 115.508509 86.046365 115.304241 85.532232 115.304241 
C 85.018098 115.304241 84.524953 115.508509 84.161406 115.872056 
C 83.797859 116.235603 83.593592 116.728748 83.593592 117.242881 
C 83.593592 117.757014 83.797859 118.250159 84.161406 118.613706 
C 84.524953 118.977253 85.018098 119.181521 85.532232 119.181521 
z
" clip-path="url(#pac94f7f1cd)" style="stroke: #000000"/>
    <path d="M 84.588058 113.445559 
C 84.935252 113.445559 85.268274 113.307617 85.513777 113.062113 
C 85.759281 112.816609 85.897223 112.483588 85.897223 112.136393 
C 85.897223 111.789199 85.759281 111.456177 85.513777 111.210674 
C 85.268274 110.96517 84.935252 110.827228 84.588058 110.827228 
C 84.240863 110.827228 83.907842 110.96517 83.662338 111.210674 
C 83.416834 111.456177 83.278892 111.789199 83.278892 112.136393 
C 83.278892 112.483588 83.416834 112.816609 83.662338 113.062113 
C 83.907842 113.307617 84.240863 113.445559 84.588058 113.445559 
z
" clip-path="url(#pac94f7f1cd)" style="stroke: #000000"/>
    <path d="M 82.682966 108.918567 
C 83.233903 108.918567 83.762351 108.699677 84.151923 108.310105 
C 84.541494 107.920533 84.760384 107.392086 84.760384 106.841148 
C 84.760384 106.29021 84.541494 105.761763 84.151923 105.372191 
C 83.762351 104.982619 83.233903 104.763729 82.682966 104.763729 
C 82.132028 104.763729 81.603581 104.982619 81.214009 105.372191 
C 80.824437 105.761763 80.605547 106.29021 80.605547 106.841148 
C 80.605547 107.392086 80.824437 107.920533 81.214009 108.310105 
C 81.603581 108.699677 82.132028 108.918567 82.682966 108.918567 
z
" clip-path="url(#pac94f7f1cd)" style="stroke: #000000"/>
    <path d="M 82.354228 100.61572 
C 82.48683 100.61572 82.614018 100.563037 82.707781 100.469274 
C 82.801545 100.37551 82.854228 100.248322 82.854228 100.11572 
C 82.854228 99.983119 82.801545 99.85593 82.707781 99.762167 
C 82.614018 99.668403 82.48683 99.61572 82.354228 99.61572 
C 82.221627 99.61572 82.094438 99.668403 82.000675 99.762167 
C 81.906911 99.85593 81.854228 99.983119 81.854228 100.11572 
C 81.854228 100.248322 81.906911 100.37551 82.000675 100.469274 
C 82.094438 100.563037 82.221627 100.61572 82.354228 100.61572 
z
" clip-path="url(#pac94f7f1cd)" style="stroke: #000000"/>
    <path d="M 78.399909 94.864832 
C 78.765846 94.864832 79.116844 94.719444 79.3756 94.460688 
C 79.634356 94.201932 79.779744 93.850934 79.779744 93.484997 
C 79.779744 93.119061 79.634356 92.768063 79.3756 92.509307 
C 79.116844 92.250551 78.765846 92.105163 78.399909 92.105163 
C 78.033973 92.105163 77.682975 92.250551 77.424219 92.509307 
C 77.165463 92.768063 77.020075 93.119061 77.020075 93.484997 
C 77.020075 93.850934 77.165463 94.201932 77.424219 94.460688 
C 77.682975 94.719444 78.033973 94.864832 78.399909 94.864832 
z
" clip-path="url(#pac94f7f1cd)" style="stroke: #000000"/>
    <path d="M 78.671917 89.239117 
C 79.073355 89.239117 79.458405 89.079624 79.742264 88.795765 
C 80.026124 88.511905 80.185617 88.126855 80.185617 87.725417 
C 80.185617 87.323979 80.026124 86.938929 79.742264 86.65507 
C 79.458405 86.37121 79.073355 86.211717 78.671917 86.211717 
C 78.270479 86.211717 77.885429 86.37121 77.601569 86.65507 
C 77.31771 86.938929 77.158217 87.323979 77.158217 87.725417 
C 77.158217 88.126855 77.31771 88.511905 77.601569 88.795765 
C 77.885429 89.079624 78.270479 89.239117 78.671917 89.239117 
z
" clip-path="url(#pac94f7f1cd)" style="stroke: #000000"/>
    <path d="M 83.263385 134.790168 
C 83.800898 134.790168 84.316469 134.576611 84.696549 134.196532 
C 85.076628 133.816452 85.290185 133.300881 85.290185 132.763368 
C 85.290185 132.225854 85.076628 131.710283 84.696549 131.330203 
C 84.316469 130.950124 83.800898 130.736567 83.263385 130.736567 
C 82.725871 130.736567 82.2103 130.950124 81.83022 131.330203 
C 81.450141 131.710283 81.236584 132.225854 81.236584 132.763368 
C 81.236584 133.300881 81.450141 133.816452 81.83022 134.196532 
C 82.2103 134.576611 82.725871 134.790168 83.263385 134.790168 
z
" clip-path="url(#pac94f7f1cd)" style="stroke: #000000"/>
    <path d="M 81.000921 125.913924 
C 81.288101 125.913924 81.563558 125.799826 81.766625 125.596759 
C 81.969692 125.393692 82.08379 125.118235 82.08379 124.831055 
C 82.08379 124.543875 81.969692 124.268419 81.766625 124.065352 
C 81.563558 123.862285 81.288101 123.748187 81.000921 123.748187 
C 80.713741 123.748187 80.438285 123.862285 80.235218 124.065352 
C 80.032151 124.268419 79.918053 124.543875 79.918053 124.831055 
C 79.918053 125.118235 80.032151 125.393692 80.235218 125.596759 
C 80.438285 125.799826 80.713741 125.913924 81.000921 125.913924 
z
" clip-path="url(#pac94f7f1cd)" style="stroke: #000000"/>
    <path d="M 76.694809 124.052544 
C 76.869322 124.052544 77.036712 123.983209 77.160111 123.859809 
C 77.283511 123.73641 77.352846 123.56902 77.352846 123.394507 
C 77.352846 123.219993 77.283511 123.052604 77.160111 122.929204 
C 77.036712 122.805805 76.869322 122.73647 76.694809 122.73647 
C 76.520295 122.73647 76.352906 122.805805 76.229506 122.929204 
C 76.106107 123.052604 76.036772 123.219993 76.036772 123.394507 
C 76.036772 123.56902 76.106107 123.73641 76.229506 123.859809 
C 76.352906 123.983209 76.520295 124.052544 76.694809 124.052544 
z
" clip-path="url(#pac94f7f1cd)" style="stroke: #000000"/>
    <path d="M 76.918908 110.994105 
C 77.316712 110.994105 77.698278 110.836056 77.979568 110.554765 
C 78.260858 110.273475 78.418908 109.89191 78.418908 109.494105 
C 78.418908 109.096301 78.260858 108.714735 77.979568 108.433445 
C 77.698278 108.152155 77.316712 107.994105 76.918908 107.994105 
C 76.521103 107.994105 76.139538 108.152155 75.858248 108.433445 
C 75.576957 108.714735 75.418908 109.096301 75.418908 109.494105 
C 75.418908 109.89191 75.576957 110.273475 75.858248 110.554765 
C 76.139538 110.836056 76.521103 110.994105 76.918908 110.994105 
z
" clip-path="url(#pac94f7f1cd)" style="stroke: #000000"/>
    <path d="M 73.553873 104.278907 
C 73.7414 104.278907 73.921271 104.204402 74.053873 104.0718 
C 74.186474 103.939199 74.26098 103.759327 74.26098 103.5718 
C 74.26098 103.384273 74.186474 103.204402 74.053873 103.0718 
C 73.921271 102.939199 73.7414 102.864694 73.553873 102.864694 
C 73.366346 102.864694 73.186474 102.939199 73.053873 103.0718 
C 72.921271 103.204402 72.846766 103.384273 72.846766 103.5718 
C 72.846766 103.759327 72.921271 103.939199 73.053873 104.0718 
C 73.186474 104.204402 73.366346 104.278907 73.553873 104.278907 
z
" clip-path="url(#pac94f7f1cd)" style="stroke: #000000"/>
    <path d="M 75.434302 97.371989 
C 76.062275 97.371989 76.664611 97.122493 77.108655 96.678449 
C 77.552699 96.234406 77.802195 95.632069 77.802195 95.004097 
C 77.802195 94.376124 77.552699 93.773787 77.108655 93.329744 
C 76.664611 92.8857 76.062275 92.636204 75.434302 92.636204 
C 74.80633 92.636204 74.203993 92.8857 73.759949 93.329744 
C 73.315906 93.773787 73.06641 94.376124 73.06641 95.004097 
C 73.06641 95.632069 73.315906 96.234406 73.759949 96.678449 
C 74.203993 97.122493 74.80633 97.371989 75.434302 97.371989 
z
" clip-path="url(#pac94f7f1cd)" style="stroke: #000000"/>
    <path d="M 70.712485 93.465869 
C 71.161092 93.465869 71.591386 93.287635 71.9086 92.970422 
C 72.225813 92.653209 72.404047 92.222915 72.404047 91.774307 
C 72.404047 91.3257 72.225813 90.895406 71.9086 90.578192 
C 71.591386 90.260979 71.161092 90.082746 70.712485 90.082746 
C 70.263878 90.082746 69.833584 90.260979 69.51637 90.578192 
C 69.199157 90.895406 69.020923 91.3257 69.020923 91.774307 
C 69.020923 92.222915 69.199157 92.653209 69.51637 92.970422 
C 69.833584 93.287635 70.263878 93.465869 70.712485 93.465869 
z
" clip-path="url(#pac94f7f1cd)" style="stroke: #000000"/>
    <path d="M 66.947754 86.010567 
C 67.53321 86.010567 68.094766 85.777963 68.508747 85.363983 
C 68.922727 84.950003 69.155331 84.388447 69.155331 83.80299 
C 69.155331 83.217534 68.922727 82.655978 68.508747 82.241997 
C 68.094766 81.828017 67.53321 81.595413 66.947754 81.595413 
C 66.362297 81.595413 65.800741 81.828017 65.386761 82.241997 
C 64.972781 82.655978 64.740176 83.217534 64.740176 83.80299 
C 64.740176 84.388447 64.972781 84.950003 65.386761 85.363983 
C 65.800741 85.777963 66.362297 86.010567 66.947754 86.010567 
z
" clip-path="url(#pac94f7f1cd)" style="stroke: #000000"/>
    <path d="M 88.989226 173.705874 
C 89.121828 173.705874 89.249016 173.653191 89.342779 173.559428 
C 89.436543 173.465664 89.489226 173.338476 89.489226 173.205874 
C 89.489226 173.073273 89.436543 172.946084 89.342779 172.852321 
C 89.249016 172.758557 89.121828 172.705874 88.989226 172.705874 
C 88.856624 172.705874 88.729436 172.758557 88.635673 172.852321 
C 88.541909 172.946084 88.489226 173.073273 88.489226 173.205874 
C 88.489226 173.338476 88.541909 173.465664 88.635673 173.559428 
C 88.729436 173.653191 88.856624 173.705874 88.989226 173.705874 
z
" clip-path="url(#pac94f7f1cd)" style="stroke: #000000"/>
    <path d="M 78.007494 135.145497 
C 78.537381 135.145497 79.045637 134.934971 79.420324 134.560284 
C 79.795012 134.185597 80.005538 133.677341 80.005538 133.147453 
C 80.005538 132.617566 79.795012 132.10931 79.420324 131.734623 
C 79.045637 131.359936 78.537381 131.149409 78.007494 131.149409 
C 77.477607 131.149409 76.969351 131.359936 76.594664 131.734623 
C 76.219977 132.10931 76.00945 132.617566 76.00945 133.147453 
C 76.00945 133.677341 76.219977 134.185597 76.594664 134.560284 
C 76.969351 134.934971 77.477607 135.145497 78.007494 135.145497 
z
" clip-path="url(#pac94f7f1cd)" style="stroke: #000000"/>
    <path d="M 77.344779 132.112048 
C 77.790796 132.112048 78.218605 131.934844 78.533986 131.619462 
C 78.849367 131.304081 79.026572 130.876272 79.026572 130.430255 
C 79.026572 129.984238 78.849367 129.556429 78.533986 129.241048 
C 78.218605 128.925667 77.790796 128.748462 77.344779 128.748462 
C 76.898762 128.748462 76.470953 128.925667 76.155572 129.241048 
C 75.84019 129.556429 75.662986 129.984238 75.662986 130.430255 
C 75.662986 130.876272 75.84019 131.304081 76.155572 131.619462 
C 76.470953 131.934844 76.898762 132.112048 77.344779 132.112048 
z
" clip-path="url(#pac94f7f1cd)" style="stroke: #000000"/>
    <path d="M 74.634208 124.144144 
C 74.996948 124.144144 75.34488 124.000026 75.601376 123.74353 
C 75.857872 123.487034 76.00199 123.139102 76.00199 122.776362 
C 76.00199 122.413621 75.857872 122.065689 75.601376 121.809193 
C 75.34488 121.552697 74.996948 121.408579 74.634208 121.408579 
C 74.271467 121.408579 73.923535 121.552697 73.667039 121.809193 
C 73.410543 122.065689 73.266425 122.413621 73.266425 122.776362 
C 73.266425 123.139102 73.410543 123.487034 73.667039 123.74353 
C 73.923535 124.000026 74.271467 124.144144 74.634208 124.144144 
z
" clip-path="url(#pac94f7f1cd)" style="stroke: #000000"/>
    <path d="M 72.485386 118.799209 
C 73.028292 118.799209 73.549036 118.58351 73.932929 118.199617 
C 74.316822 117.815724 74.532521 117.294981 74.532521 116.752074 
C 74.532521 116.209167 74.316822 115.688424 73.932929 115.304531 
C 73.549036 114.920638 73.028292 114.704939 72.485386 114.704939 
C 71.942479 114.704939 71.421735 114.920638 71.037842 115.304531 
C 70.653949 115.688424 70.43825 116.209167 70.43825 116.752074 
C 70.43825 117.294981 70.653949 117.815724 71.037842 118.199617 
C 71.421735 118.58351 71.942479 118.799209 72.485386 118.799209 
z
" clip-path="url(#pac94f7f1cd)" style="stroke: #000000"/>
    <path d="M 69.372522 112.198295 
C 69.791845 112.198295 70.19405 112.031696 70.490556 111.73519 
C 70.787062 111.438684 70.95366 111.036479 70.95366 110.617156 
C 70.95366 110.197833 70.787062 109.795628 70.490556 109.499122 
C 70.19405 109.202616 69.791845 109.036018 69.372522 109.036018 
C 68.953199 109.036018 68.550994 109.202616 68.254488 109.499122 
C 67.957982 109.795628 67.791383 110.197833 67.791383 110.617156 
C 67.791383 111.036479 67.957982 111.438684 68.254488 111.73519 
C 68.550994 112.031696 68.953199 112.198295 69.372522 112.198295 
z
" clip-path="url(#pac94f7f1cd)" style="stroke: #000000"/>
    <path d="M 66.260288 106.895065 
C 66.770393 106.895065 67.259675 106.692398 67.620373 106.331699 
C 67.981072 105.971 68.183739 105.481719 68.183739 104.971614 
C 68.183739 104.461509 67.981072 103.972228 67.620373 103.611529 
C 67.259675 103.25083 66.770393 103.048163 66.260288 103.048163 
C 65.750183 103.048163 65.260902 103.25083 64.900203 103.611529 
C 64.539505 103.972228 64.336838 104.461509 64.336838 104.971614 
C 64.336838 105.481719 64.539505 105.971 64.900203 106.331699 
C 65.260902 106.692398 65.750183 106.895065 66.260288 106.895065 
z
" clip-path="url(#pac94f7f1cd)" style="stroke: #000000"/>
    <path d="M 65.871134 98.042886 
C 66.028825 98.042886 66.180078 97.980234 66.291582 97.86873 
C 66.403086 97.757226 66.465738 97.605973 66.465738 97.448282 
C 66.465738 97.290591 66.403086 97.139338 66.291582 97.027834 
C 66.180078 96.91633 66.028825 96.853678 65.871134 96.853678 
C 65.713443 96.853678 65.56219 96.91633 65.450686 97.027834 
C 65.339182 97.139338 65.27653 97.290591 65.27653 97.448282 
C 65.27653 97.605973 65.339182 97.757226 65.450686 97.86873 
C 65.56219 97.980234 65.713443 98.042886 65.871134 98.042886 
z
" clip-path="url(#pac94f7f1cd)" style="stroke: #000000"/>
    <path d="M 64.477869 94.665226 
C 64.63556 94.665226 64.786813 94.602575 64.898318 94.491071 
C 65.009822 94.379566 65.072473 94.228313 65.072473 94.070622 
C 65.072473 93.912932 65.009822 93.761678 64.898318 93.650174 
C 64.786813 93.53867 64.63556 93.476019 64.477869 93.476019 
C 64.320179 93.476019 64.168925 93.53867 64.057421 93.650174 
C 63.945917 93.761678 63.883266 93.912932 63.883266 94.070622 
C 63.883266 94.228313 63.945917 94.379566 64.057421 94.491071 
C 64.168925 94.602575 64.320179 94.665226 64.477869 94.665226 
z
" clip-path="url(#pac94f7f1cd)" style="stroke: #000000"/>
    <path d="M 62.480097 87.078774 
C 62.637788 87.078774 62.789041 87.016123 62.900545 86.904619 
C 63.01205 86.793115 63.074701 86.641861 63.074701 86.484171 
C 63.074701 86.32648 63.01205 86.175227 62.900545 86.063722 
C 62.789041 85.952218 62.637788 85.889567 62.480097 85.889567 
C 62.322407 85.889567 62.171153 85.952218 62.059649 86.063722 
C 61.948145 86.175227 61.885494 86.32648 61.885494 86.484171 
C 61.885494 86.641861 61.948145 86.793115 62.059649 86.904619 
C 62.171153 87.016123 62.322407 87.078774 62.480097 87.078774 
z
" clip-path="url(#pac94f7f1cd)" style="stroke: #000000"/>
    <path d="M 59.420825 81.66284 
C 59.643834 81.66284 59.857738 81.574237 60.015429 81.416547 
C 60.17312 81.258856 60.261722 81.044951 60.261722 80.821943 
C 60.261722 80.598935 60.17312 80.38503 60.015429 80.22734 
C 59.857738 80.069649 59.643834 79.981047 59.420825 79.981047 
C 59.197817 79.981047 58.983912 80.069649 58.826222 80.22734 
C 58.668531 80.38503 58.579929 80.598935 58.579929 80.821943 
C 58.579929 81.044951 58.668531 81.258856 58.826222 81.416547 
C 58.983912 81.574237 59.197817 81.66284 59.420825 81.66284 
z
" clip-path="url(#pac94f7f1cd)" style="stroke: #000000"/>
    <path d="M 54.291191 63.280867 
C 54.423792 63.280867 54.55098 63.228184 54.644744 63.13442 
C 54.738507 63.040657 54.791191 62.913469 54.791191 62.780867 
C 54.791191 62.648265 54.738507 62.521077 54.644744 62.427314 
C 54.55098 62.33355 54.423792 62.280867 54.291191 62.280867 
C 54.158589 62.280867 54.031401 62.33355 53.937637 62.427314 
C 53.843874 62.521077 53.791191 62.648265 53.791191 62.780867 
C 53.791191 62.913469 53.843874 63.040657 53.937637 63.13442 
C 54.031401 63.228184 54.158589 63.280867 54.291191 63.280867 
z
" clip-path="url(#pac94f7f1cd)" style="stroke: #000000"/>
    <path d="M 71.688176 136.337372 
C 71.875703 136.337372 72.055574 136.262867 72.188176 136.130265 
C 72.320778 135.997664 72.395283 135.817792 72.395283 135.630265 
C 72.395283 135.442739 72.320778 135.262867 72.188176 135.130265 
C 72.055574 134.997664 71.875703 134.923159 71.688176 134.923159 
C 71.500649 134.923159 71.320778 134.997664 71.188176 135.130265 
C 71.055574 135.262867 70.981069 135.442739 70.981069 135.630265 
C 70.981069 135.817792 71.055574 135.997664 71.188176 136.130265 
C 71.320778 136.262867 71.500649 136.337372 71.688176 136.337372 
z
" clip-path="url(#pac94f7f1cd)" style="stroke: #000000"/>
    <path d="M 69.586454 132.820032 
C 70.15375 132.820032 70.697888 132.594643 71.099026 132.193504 
C 71.500165 131.792365 71.725554 131.248227 71.725554 130.680931 
C 71.725554 130.113635 71.500165 129.569498 71.099026 129.168359 
C 70.697888 128.76722 70.15375 128.541831 69.586454 128.541831 
C 69.019158 128.541831 68.47502 128.76722 68.073881 129.168359 
C 67.672742 129.569498 67.447353 130.113635 67.447353 130.680931 
C 67.447353 131.248227 67.672742 131.792365 68.073881 132.193504 
C 68.47502 132.594643 69.019158 132.820032 69.586454 132.820032 
z
" clip-path="url(#pac94f7f1cd)" style="stroke: #000000"/>
    <path d="M 68.840551 129.738302 
C 69.258822 129.738302 69.660017 129.572121 69.955779 129.276359 
C 70.251541 128.980597 70.417722 128.579401 70.417722 128.161131 
C 70.417722 127.74286 70.251541 127.341664 69.955779 127.045902 
C 69.660017 126.75014 69.258822 126.58396 68.840551 126.58396 
C 68.42228 126.58396 68.021085 126.75014 67.725323 127.045902 
C 67.429561 127.341664 67.26338 127.74286 67.26338 128.161131 
C 67.26338 128.579401 67.429561 128.980597 67.725323 129.276359 
C 68.021085 129.572121 68.42228 129.738302 68.840551 129.738302 
z
" clip-path="url(#pac94f7f1cd)" style="stroke: #000000"/>
    <path d="M 68.196208 119.233443 
C 68.461412 119.233443 68.715788 119.128077 68.903315 118.94055 
C 69.090842 118.753023 69.196208 118.498646 69.196208 118.233443 
C 69.196208 117.96824 69.090842 117.713863 68.903315 117.526336 
C 68.715788 117.33881 68.461412 117.233443 68.196208 117.233443 
C 67.931005 117.233443 67.676629 117.33881 67.489102 117.526336 
C 67.301575 117.713863 67.196208 117.96824 67.196208 118.233443 
C 67.196208 118.498646 67.301575 118.753023 67.489102 118.94055 
C 67.676629 119.128077 67.931005 119.233443 68.196208 119.233443 
z
" clip-path="url(#pac94f7f1cd)" style="stroke: #000000"/>
    <path d="M 63.031259 113.711269 
C 63.315119 113.711269 63.58739 113.598491 63.788109 113.397772 
C 63.988828 113.197053 64.101607 112.924781 64.101607 112.640922 
C 64.101607 112.357062 63.988828 112.084791 63.788109 111.884072 
C 63.58739 111.683353 63.315119 111.570574 63.031259 111.570574 
C 62.7474 111.570574 62.475128 111.683353 62.274409 111.884072 
C 62.07369 112.084791 61.960912 112.357062 61.960912 112.640922 
C 61.960912 112.924781 62.07369 113.197053 62.274409 113.397772 
C 62.475128 113.598491 62.7474 113.711269 63.031259 113.711269 
z
" clip-path="url(#pac94f7f1cd)" style="stroke: #000000"/>
    <path d="M 60.587575 109.661286 
C 60.93477 109.661286 61.267791 109.523344 61.513294 109.27784 
C 61.758798 109.032336 61.89674 108.699315 61.89674 108.352121 
C 61.89674 108.004926 61.758798 107.671905 61.513294 107.426401 
C 61.267791 107.180897 60.93477 107.042955 60.587575 107.042955 
C 60.24038 107.042955 59.907359 107.180897 59.661855 107.426401 
C 59.416352 107.671905 59.27841 108.004926 59.27841 108.352121 
C 59.27841 108.699315 59.416352 109.032336 59.661855 109.27784 
C 59.907359 109.523344 60.24038 109.661286 60.587575 109.661286 
z
" clip-path="url(#pac94f7f1cd)" style="stroke: #000000"/>
    <path d="M 56.983817 96.664633 
C 57.550689 96.664633 58.09442 96.439413 58.49526 96.038573 
C 58.896099 95.637734 59.12132 95.094003 59.12132 94.527131 
C 59.12132 93.960259 58.896099 93.416528 58.49526 93.015688 
C 58.09442 92.614849 57.550689 92.389628 56.983817 92.389628 
C 56.416945 92.389628 55.873214 92.614849 55.472375 93.015688 
C 55.071535 93.416528 54.846315 93.960259 54.846315 94.527131 
C 54.846315 95.094003 55.071535 95.637734 55.472375 96.038573 
C 55.873214 96.439413 56.416945 96.664633 56.983817 96.664633 
z
" clip-path="url(#pac94f7f1cd)" style="stroke: #000000"/>
    <path d="M 63.541309 137.071417 
C 63.67391 137.071417 63.801099 137.018734 63.894862 136.924971 
C 63.988625 136.831207 64.041309 136.704019 64.041309 136.571417 
C 64.041309 136.438816 63.988625 136.311627 63.894862 136.217864 
C 63.801099 136.124101 63.67391 136.071417 63.541309 136.071417 
C 63.408707 136.071417 63.281519 136.124101 63.187755 136.217864 
C 63.093992 136.311627 63.041309 136.438816 63.041309 136.571417 
C 63.041309 136.704019 63.093992 136.831207 63.187755 136.924971 
C 63.281519 137.018734 63.408707 137.071417 63.541309 137.071417 
z
" clip-path="url(#pac94f7f1cd)" style="stroke: #000000"/>
    <path d="M 60.868576 127.043395 
C 61.183958 127.043395 61.486464 126.918092 61.709473 126.695084 
C 61.932481 126.472076 62.057783 126.169569 62.057783 125.854188 
C 62.057783 125.538806 61.932481 125.236299 61.709473 125.013291 
C 61.486464 124.790283 61.183958 124.66498 60.868576 124.66498 
C 60.553195 124.66498 60.250688 124.790283 60.02768 125.013291 
C 59.804672 125.236299 59.679369 125.538806 59.679369 125.854188 
C 59.679369 126.169569 59.804672 126.472076 60.02768 126.695084 
C 60.250688 126.918092 60.553195 127.043395 60.868576 127.043395 
z
" clip-path="url(#pac94f7f1cd)" style="stroke: #000000"/>
    <path d="M 57.174877 122.141966 
C 57.719706 122.141966 58.242293 121.925504 58.627545 121.540252 
C 59.012797 121.155 59.229259 120.632413 59.229259 120.087584 
C 59.229259 119.542756 59.012797 119.020169 58.627545 118.634917 
C 58.242293 118.249665 57.719706 118.033202 57.174877 118.033202 
C 56.630049 118.033202 56.107462 118.249665 55.72221 118.634917 
C 55.336958 119.020169 55.120495 119.542756 55.120495 120.087584 
C 55.120495 120.632413 55.336958 121.155 55.72221 121.540252 
C 56.107462 121.925504 56.630049 122.141966 57.174877 122.141966 
z
" clip-path="url(#pac94f7f1cd)" style="stroke: #000000"/>
    <path d="M 54.09081 110.243225 
C 54.630304 110.243225 55.147774 110.028882 55.529253 109.647402 
C 55.910733 109.265923 56.125076 108.748453 56.125076 108.208959 
C 56.125076 107.669466 55.910733 107.151996 55.529253 106.770516 
C 55.147774 106.389037 54.630304 106.174694 54.09081 106.174694 
C 53.551317 106.174694 53.033847 106.389037 52.652367 106.770516 
C 52.270888 107.151996 52.056545 107.669466 52.056545 108.208959 
C 52.056545 108.748453 52.270888 109.265923 52.652367 109.647402 
C 53.033847 110.028882 53.551317 110.243225 54.09081 110.243225 
z
" clip-path="url(#pac94f7f1cd)" style="stroke: #000000"/>
    <path d="M 56.584821 131.412145 
C 56.759335 131.412145 56.926724 131.34281 57.050123 131.219411 
C 57.173523 131.096011 57.242858 130.928622 57.242858 130.754108 
C 57.242858 130.579595 57.173523 130.412205 57.050123 130.288806 
C 56.926724 130.165406 56.759335 130.096071 56.584821 130.096071 
C 56.410308 130.096071 56.242918 130.165406 56.119519 130.288806 
C 55.996119 130.412205 55.926784 130.579595 55.926784 130.754108 
C 55.926784 130.928622 55.996119 131.096011 56.119519 131.219411 
C 56.242918 131.34281 56.410308 131.412145 56.584821 131.412145 
z
" clip-path="url(#pac94f7f1cd)" style="stroke: #000000"/>
    <path d="M 49.747189 112.351464 
C 50.171658 112.351464 50.578799 112.182821 50.878944 111.882676 
C 51.179089 111.582531 51.347732 111.17539 51.347732 110.750921 
C 51.347732 110.326453 51.179089 109.919312 50.878944 109.619167 
C 50.578799 109.319022 50.171658 109.150379 49.747189 109.150379 
C 49.32272 109.150379 48.915579 109.319022 48.615435 109.619167 
C 48.31529 109.919312 48.146646 110.326453 48.146646 110.750921 
C 48.146646 111.17539 48.31529 111.582531 48.615435 111.882676 
C 48.915579 112.182821 49.32272 112.351464 49.747189 112.351464 
z
" clip-path="url(#pac94f7f1cd)" style="stroke: #000000"/>
    <path d="M 47.379607 105.670099 
C 47.602615 105.670099 47.81652 105.581497 47.974211 105.423806 
C 48.131901 105.266116 48.220503 105.052211 48.220503 104.829203 
C 48.220503 104.606195 48.131901 104.39229 47.974211 104.234599 
C 47.81652 104.076909 47.602615 103.988307 47.379607 103.988307 
C 47.156599 103.988307 46.942694 104.076909 46.785003 104.234599 
C 46.627313 104.39229 46.538711 104.606195 46.538711 104.829203 
C 46.538711 105.052211 46.627313 105.266116 46.785003 105.423806 
C 46.942694 105.581497 47.156599 105.670099 47.379607 105.670099 
z
" clip-path="url(#pac94f7f1cd)" style="stroke: #000000"/>
    <path d="M 45.065113 117.113938 
C 45.197714 117.113938 45.324903 117.061254 45.418666 116.967491 
C 45.51243 116.873728 45.565113 116.746539 45.565113 116.613938 
C 45.565113 116.481336 45.51243 116.354148 45.418666 116.260384 
C 45.324903 116.166621 45.197714 116.113938 45.065113 116.113938 
C 44.932511 116.113938 44.805323 116.166621 44.711559 116.260384 
C 44.617796 116.354148 44.565113 116.481336 44.565113 116.613938 
C 44.565113 116.746539 44.617796 116.873728 44.711559 116.967491 
C 44.805323 117.061254 44.932511 117.113938 45.065113 117.113938 
z
" clip-path="url(#pac94f7f1cd)" style="stroke: #000000"/>
    <path d="M 41.407406 109.899718 
C 41.594933 109.899718 41.774805 109.825213 41.907406 109.692611 
C 42.040008 109.560009 42.114513 109.380138 42.114513 109.192611 
C 42.114513 109.005084 42.040008 108.825213 41.907406 108.692611 
C 41.774805 108.560009 41.594933 108.485504 41.407406 108.485504 
C 41.219879 108.485504 41.040008 108.560009 40.907406 108.692611 
C 40.774805 108.825213 40.700299 109.005084 40.700299 109.192611 
C 40.700299 109.380138 40.774805 109.560009 40.907406 109.692611 
C 41.040008 109.825213 41.219879 109.899718 41.407406 109.899718 
z
" clip-path="url(#pac94f7f1cd)" style="stroke: #000000"/>
   </g>
   <g id="matplotlib.axis_1">
    <g id="xtick_1">
     <g id="line2d_1">
      <defs>
       <path id="mebdbc628b7" d="M 0 0 
L 0 3.5 
" style="stroke: #000000; stroke-width: 0.8"/>
      </defs>
      <g>
       <use xlink:href="#mebdbc628b7" x="18" y="189" style="stroke: #000000; stroke-width: 0.8"/>
      </g>
     </g>
     <g id="text_1">
      <!-- −10 -->
      <g transform="translate(7.447656 203.598437)scale(0.1 -0.1)">
       <defs>
        <path id="DejaVuSans-2212" d="M 678 2272 
L 4684 2272 
L 4684 1741 
L 678 1741 
L 678 2272 
z
" transform="scale(0.015625)"/>
        <path id="DejaVuSans-31" d="M 794 531 
L 1825 531 
L 1825 4091 
L 703 3866 
L 703 4441 
L 1819 4666 
L 2450 4666 
L 2450 531 
L 3481 531 
L 3481 0 
L 794 0 
L 794 531 
z
" transform="scale(0.015625)"/>
        <path id="DejaVuSans-30" d="M 2034 4250 
Q 1547 4250 1301 3770 
Q 1056 3291 1056 2328 
Q 1056 1369 1301 889 
Q 1547 409 2034 409 
Q 2525 409 2770 889 
Q 3016 1369 3016 2328 
Q 3016 3291 2770 3770 
Q 2525 4250 2034 4250 
z
M 2034 4750 
Q 2819 4750 3233 4129 
Q 3647 3509 3647 2328 
Q 3647 1150 3233 529 
Q 2819 -91 2034 -91 
Q 1250 -91 836 529 
Q 422 1150 422 2328 
Q 422 3509 836 4129 
Q 1250 4750 2034 4750 
z
" transform="scale(0.015625)"/>
       </defs>
       <use xlink:href="#DejaVuSans-2212"/>
       <use xlink:href="#DejaVuSans-31" x="83.789062"/>
       <use xlink:href="#DejaVuSans-30" x="147.412109"/>
      </g>
     </g>
    </g>
    <g id="xtick_2">
     <g id="line2d_2">
      <g>
       <use xlink:href="#mebdbc628b7" x="73.8" y="189" style="stroke: #000000; stroke-width: 0.8"/>
      </g>
     </g>
     <g id="text_2">
      <!-- 0 -->
      <g transform="translate(70.61875 203.598437)scale(0.1 -0.1)">
       <use xlink:href="#DejaVuSans-30"/>
      </g>
     </g>
    </g>
    <g id="xtick_3">
     <g id="line2d_3">
      <g>
       <use xlink:href="#mebdbc628b7" x="129.6" y="189" style="stroke: #000000; stroke-width: 0.8"/>
      </g>
     </g>
     <g id="text_3">
      <!-- 10 -->
      <g transform="translate(123.2375 203.598437)scale(0.1 -0.1)">
       <use xlink:href="#DejaVuSans-31"/>
       <use xlink:href="#DejaVuSans-30" x="63.623047"/>
      </g>
     </g>
    </g>
   </g>
   <g id="matplotlib.axis_2">
    <g id="ytick_1">
     <g id="line2d_4">
      <defs>
       <path id="m83f9ecb9c8" d="M 0 0 
L -3.5 0 
" style="stroke: #000000; stroke-width: 0.8"/>
      </defs>
      <g>
       <use xlink:href="#m83f9ecb9c8" x="18" y="189" style="stroke: #000000; stroke-width: 0.8"/>
      </g>
     </g>
     <g id="text_4">
      <!-- −15 -->
      <g transform="translate(-10.104688 192.799219)scale(0.1 -0.1)">
       <defs>
        <path id="DejaVuSans-35" d="M 691 4666 
L 3169 4666 
L 3169 4134 
L 1269 4134 
L 1269 2991 
Q 1406 3038 1543 3061 
Q 1681 3084 1819 3084 
Q 2600 3084 3056 2656 
Q 3513 2228 3513 1497 
Q 3513 744 3044 326 
Q 2575 -91 1722 -91 
Q 1428 -91 1123 -41 
Q 819 9 494 109 
L 494 744 
Q 775 591 1075 516 
Q 1375 441 1709 441 
Q 2250 441 2565 725 
Q 2881 1009 2881 1497 
Q 2881 1984 2565 2268 
Q 2250 2553 1709 2553 
Q 1456 2553 1204 2497 
Q 953 2441 691 2322 
L 691 4666 
z
" transform="scale(0.015625)"/>
       </defs>
       <use xlink:href="#DejaVuSans-2212"/>
       <use xlink:href="#DejaVuSans-31" x="83.789062"/>
       <use xlink:href="#DejaVuSans-35" x="147.412109"/>
      </g>
     </g>
    </g>
    <g id="ytick_2">
     <g id="line2d_5">
      <g>
       <use xlink:href="#m83f9ecb9c8" x="18" y="161.82" style="stroke: #000000; stroke-width: 0.8"/>
      </g>
     </g>
     <g id="text_5">
      <!-- −10 -->
      <g transform="translate(-10.104688 165.619219)scale(0.1 -0.1)">
       <use xlink:href="#DejaVuSans-2212"/>
       <use xlink:href="#DejaVuSans-31" x="83.789062"/>
       <use xlink:href="#DejaVuSans-30" x="147.412109"/>
      </g>
     </g>
    </g>
    <g id="ytick_3">
     <g id="line2d_6">
      <g>
       <use xlink:href="#m83f9ecb9c8" x="18" y="134.64" style="stroke: #000000; stroke-width: 0.8"/>
      </g>
     </g>
     <g id="text_6">
      <!-- −5 -->
      <g transform="translate(-3.742188 138.439219)scale(0.1 -0.1)">
       <use xlink:href="#DejaVuSans-2212"/>
       <use xlink:href="#DejaVuSans-35" x="83.789062"/>
      </g>
     </g>
    </g>
    <g id="ytick_4">
     <g id="line2d_7">
      <g>
       <use xlink:href="#m83f9ecb9c8" x="18" y="107.46" style="stroke: #000000; stroke-width: 0.8"/>
      </g>
     </g>
     <g id="text_7">
      <!-- 0 -->
      <g transform="translate(4.6375 111.259219)scale(0.1 -0.1)">
       <use xlink:href="#DejaVuSans-30"/>
      </g>
     </g>
    </g>
    <g id="ytick_5">
     <g id="line2d_8">
      <g>
       <use xlink:href="#m83f9ecb9c8" x="18" y="80.28" style="stroke: #000000; stroke-width: 0.8"/>
      </g>
     </g>
     <g id="text_8">
      <!-- 5 -->
      <g transform="translate(4.6375 84.079219)scale(0.1 -0.1)">
       <use xlink:href="#DejaVuSans-35"/>
      </g>
     </g>
    </g>
    <g id="ytick_6">
     <g id="line2d_9">
      <g>
       <use xlink:href="#m83f9ecb9c8" x="18" y="53.1" style="stroke: #000000; stroke-width: 0.8"/>
      </g>
     </g>
     <g id="text_9">
      <!-- 10 -->
      <g transform="translate(-1.725 56.899219)scale(0.1 -0.1)">
       <use xlink:href="#DejaVuSans-31"/>
       <use xlink:href="#DejaVuSans-30" x="63.623047"/>
      </g>
     </g>
    </g>
    <g id="ytick_7">
     <g id="line2d_10">
      <g>
       <use xlink:href="#m83f9ecb9c8" x="18" y="25.92" style="stroke: #000000; stroke-width: 0.8"/>
      </g>
     </g>
     <g id="text_10">
      <!-- 15 -->
      <g transform="translate(-1.725 29.719219)scale(0.1 -0.1)">
       <use xlink:href="#DejaVuSans-31"/>
       <use xlink:href="#DejaVuSans-35" x="63.623047"/>
      </g>
     </g>
    </g>
   </g>
   <g id="patch_3">
    <path d="M 18 189 
L 18 25.92 
" style="fill: none; stroke: #000000; stroke-width: 0.8; stroke-linejoin: miter; stroke-linecap: square"/>
   </g>
   <g id="patch_4">
    <path d="M 129.6 189 
L 129.6 25.92 
" style="fill: none; stroke: #000000; stroke-width: 0.8; stroke-linejoin: miter; stroke-linecap: square"/>
   </g>
   <g id="patch_5">
    <path d="M 18 189 
L 129.6 189 
" style="fill: none; stroke: #000000; stroke-width: 0.8; stroke-linejoin: miter; stroke-linecap: square"/>
   </g>
   <g id="patch_6">
    <path d="M 18 25.92 
L 129.6 25.92 
" style="fill: none; stroke: #000000; stroke-width: 0.8; stroke-linejoin: miter; stroke-linecap: square"/>
   </g>
  </g>
 </g>
 <defs>
  <clipPath id="pac94f7f1cd">
   <rect x="18" y="25.92" width="111.6" height="163.08"/>
  </clipPath>
 </defs>
</svg>
