<?xml version="1.0" encoding="utf-8" standalone="no"?>
<!DOCTYPE svg PUBLIC "-//W3C//DTD SVG 1.1//EN"
  "http://www.w3.org/Graphics/SVG/1.1/DTD/svg11.dtd">
<svg xmlns:xlink="http://www.w3.org/1999/xlink" width="144pt" height="216pt" viewBox="0 0 144 216" xmlns="http://www.w3.org/2000/svg" version="1.1">
 <metadata>
  <rdf:RDF xmlns:dc="http://purl.org/dc/elements/1.1/" xmlns:cc="http://creativecommons.org/ns#" xmlns:rdf="http://www.w3.org/1999/02/22-rdf-syntax-ns#">
   <cc:Work>
    <dc:type rdf:resource="http://purl.org/dc/dcmitype/StillImage"/>
    <dc:date>2022-06-23T14:49:04.309585</dc:date>
    <dc:format>image/svg+xml</dc:format>
    <dc:creator>
     <cc:Agent>
      <dc:title>Matplotlib v3.5.1, https://matplotlib.org/</dc:title>
     </cc:Agent>
    </dc:creator>
   </cc:Work>
  </rdf:RDF>
 </metadata>
 <defs>
  <style type="text/css">*{stroke-linejoin: round; stroke-linecap: butt}</style>
 </defs>
 <g id="figure_1">
  <g id="patch_1">
   <path d="M 0 216 
L 144 216 
L 144 0 
L 0 0 
L 0 216 
z
" style="fill: none"/>
  </g>
  <g id="axes_1">
   <g id="patch_2">
    <path d="M 18 189 
L 129.6 189 
L 129.6 25.92 
L 18 25.92 
z
" style="fill: #ffffff"/>
   </g>
   <g id="PathCollection_1">
    <defs>
     <path id="m5e189e14c4" d="M 0 2.738613 
C 0.726289 2.738613 1.422928 2.450055 1.936492 1.936492 
C 2.450055 1.422928 2.738613 0.726289 2.738613 0 
C 2.738613 -0.726289 2.450055 -1.422928 1.936492 -1.936492 
C 1.422928 -2.450055 0.726289 -2.738613 0 -2.738613 
C -0.726289 -2.738613 -1.422928 -2.450055 -1.936492 -1.936492 
C -2.450055 -1.422928 -2.738613 -0.726289 -2.738613 0 
C -2.738613 0.726289 -2.450055 1.422928 -1.936492 1.936492 
C -1.422928 2.450055 -0.726289 2.738613 0 2.738613 
z
" style="stroke: #ff0000; stroke-width: 1.75"/>
    </defs>
    <g clip-path="url(#p98397b6932)">
     <use xlink:href="#m5e189e14c4" x="66.825" y="83.92143" style="fill: #ff0000; stroke: #ff0000; stroke-width: 1.75"/>
     <use xlink:href="#m5e189e14c4" x="87.75" y="95.690715" style="fill: #ff0000; stroke: #ff0000; stroke-width: 1.75"/>
     <use xlink:href="#m5e189e14c4" x="66.825" y="107.46" style="fill: #ff0000; stroke: #ff0000; stroke-width: 1.75"/>
     <use xlink:href="#m5e189e14c4" x="73.8" y="119.229285" style="fill: #ff0000; stroke: #ff0000; stroke-width: 1.75"/>
     <use xlink:href="#m5e189e14c4" x="87.75" y="119.229285" style="fill: #ff0000; stroke: #ff0000; stroke-width: 1.75"/>
     <use xlink:href="#m5e189e14c4" x="66.825" y="130.99857" style="fill: #ff0000; stroke: #ff0000; stroke-width: 1.75"/>
     <use xlink:href="#m5e189e14c4" x="80.775" y="130.99857" style="fill: #ff0000; stroke: #ff0000; stroke-width: 1.75"/>
    </g>
   </g>
   <g id="PathCollection_2">
    <defs>
     <path id="C0_0_4bdfa95b9d" d="M 0 2.738613 
C 0.726289 2.738613 1.422928 2.450055 1.936492 1.936492 
C 2.450055 1.422928 2.738613 0.726289 2.738613 -0 
C 2.738613 -0.726289 2.450055 -1.422928 1.936492 -1.936492 
C 1.422928 -2.450055 0.726289 -2.738613 0 -2.738613 
C -0.726289 -2.738613 -1.422928 -2.450055 -1.936492 -1.936492 
C -2.450055 -1.422928 -2.738613 -0.726289 -2.738613 0 
C -2.738613 0.726289 -2.450055 1.422928 -1.936492 1.936492 
C -1.422928 2.450055 -0.726289 2.738613 0 2.738613 
z
"/>
    </defs>
    <g clip-path="url(#p98397b6932)">
     <use xlink:href="#C0_0_4bdfa95b9d" x="80.775" y="83.92143" style="fill: none; stroke: #ff0000; stroke-width: 1.75"/>
    </g>
    <g clip-path="url(#p98397b6932)">
     <use xlink:href="#C0_0_4bdfa95b9d" x="59.85" y="95.690715" style="fill: none; stroke: #ff0000; stroke-width: 1.75"/>
    </g>
    <g clip-path="url(#p98397b6932)">
     <use xlink:href="#C0_0_4bdfa95b9d" x="73.8" y="95.690715" style="fill: none; stroke: #ff0000; stroke-width: 1.75"/>
    </g>
    <g clip-path="url(#p98397b6932)">
     <use xlink:href="#C0_0_4bdfa95b9d" x="52.875" y="107.46" style="fill: none; stroke: #ff0000; stroke-width: 1.75"/>
    </g>
    <g clip-path="url(#p98397b6932)">
     <use xlink:href="#C0_0_4bdfa95b9d" x="80.775" y="107.46" style="fill: none; stroke: #ff0000; stroke-width: 1.75"/>
    </g>
    <g clip-path="url(#p98397b6932)">
     <use xlink:href="#C0_0_4bdfa95b9d" x="94.725" y="107.46" style="fill: none; stroke: #ff0000; stroke-width: 1.75"/>
    </g>
    <g clip-path="url(#p98397b6932)">
     <use xlink:href="#C0_0_4bdfa95b9d" x="59.85" y="119.229285" style="fill: none; stroke: #ff0000; stroke-width: 1.75"/>
    </g>
   </g>
   <g id="PathCollection_3">
    <path d="M 109.286626 90.290477 
C 109.82264 90.290477 110.336773 90.077516 110.715793 89.698497 
C 111.094812 89.319478 111.307773 88.805345 111.307773 88.269331 
C 111.307773 87.733316 111.094812 87.219183 110.715793 86.840164 
C 110.336773 86.461145 109.82264 86.248184 109.286626 86.248184 
C 108.750612 86.248184 108.236479 86.461145 107.85746 86.840164 
C 107.47844 87.219183 107.265479 87.733316 107.265479 88.269331 
C 107.265479 88.805345 107.47844 89.319478 107.85746 89.698497 
C 108.236479 90.077516 108.750612 90.290477 109.286626 90.290477 
z
" clip-path="url(#p98397b6932)" style="stroke: #000000"/>
    <path d="M 120.867269 153.865079 
C 121.065554 153.865079 121.255745 153.7863 121.395954 153.646091 
C 121.536164 153.505882 121.614943 153.315691 121.614943 153.117405 
C 121.614943 152.919119 121.536164 152.728928 121.395954 152.588719 
C 121.255745 152.44851 121.065554 152.369731 120.867269 152.369731 
C 120.668983 152.369731 120.478792 152.44851 120.338583 152.588719 
C 120.198374 152.728928 120.119594 152.919119 120.119594 153.117405 
C 120.119594 153.315691 120.198374 153.505882 120.338583 153.646091 
C 120.478792 153.7863 120.668983 153.865079 120.867269 153.865079 
z
" clip-path="url(#p98397b6932)" style="stroke: #000000"/>
    <path d="M 109.541955 132.094118 
C 110.077969 132.094118 110.592102 131.881158 110.971121 131.502138 
C 111.35014 131.123119 111.563101 130.608986 111.563101 130.072972 
C 111.563101 129.536957 111.35014 129.022825 110.971121 128.643805 
C 110.592102 128.264786 110.077969 128.051825 109.541955 128.051825 
C 109.00594 128.051825 108.491808 128.264786 108.112788 128.643805 
C 107.733769 129.022825 107.520808 129.536957 107.520808 130.072972 
C 107.520808 130.608986 107.733769 131.123119 108.112788 131.502138 
C 108.491808 131.881158 109.00594 132.094118 109.541955 132.094118 
z
" clip-path="url(#p98397b6932)" style="stroke: #000000"/>
    <path d="M 100.059073 102.173063 
C 100.652455 102.173063 101.221614 101.937309 101.641199 101.517724 
C 102.060784 101.09814 102.296537 100.528981 102.296537 99.935598 
C 102.296537 99.342216 102.060784 98.773057 101.641199 98.353472 
C 101.221614 97.933887 100.652455 97.698134 100.059073 97.698134 
C 99.46569 97.698134 98.896531 97.933887 98.476947 98.353472 
C 98.057362 98.773057 97.821608 99.342216 97.821608 99.935598 
C 97.821608 100.528981 98.057362 101.09814 98.476947 101.517724 
C 98.896531 101.937309 99.46569 102.173063 100.059073 102.173063 
z
" clip-path="url(#p98397b6932)" style="stroke: #000000"/>
    <path d="M 95.010949 95.365995 
C 95.603961 95.365995 96.172765 95.130389 96.592087 94.711066 
C 97.01141 94.291743 97.247017 93.722939 97.247017 93.129927 
C 97.247017 92.536915 97.01141 91.968111 96.592087 91.548788 
C 96.172765 91.129465 95.603961 90.893859 95.010949 90.893859 
C 94.417936 90.893859 93.849133 91.129465 93.42981 91.548788 
C 93.010487 91.968111 92.774881 92.536915 92.774881 93.129927 
C 92.774881 93.722939 93.010487 94.291743 93.42981 94.711066 
C 93.849133 95.130389 94.417936 95.365995 95.010949 95.365995 
z
" clip-path="url(#p98397b6932)" style="stroke: #000000"/>
    <path d="M 78.647527 52.328805 
C 79.183541 52.328805 79.697674 52.115844 80.076693 51.736825 
C 80.455712 51.357805 80.668673 50.843673 80.668673 50.307658 
C 80.668673 49.771644 80.455712 49.257511 80.076693 48.878492 
C 79.697674 48.499472 79.183541 48.286512 78.647527 48.286512 
C 78.111512 48.286512 77.597379 48.499472 77.21836 48.878492 
C 76.839341 49.257511 76.62638 49.771644 76.62638 50.307658 
C 76.62638 50.843673 76.839341 51.357805 77.21836 51.736825 
C 77.597379 52.115844 78.111512 52.328805 78.647527 52.328805 
z
" clip-path="url(#p98397b6932)" style="stroke: #000000"/>
    <path d="M 73.207817 31.166314 
C 73.650308 31.166314 74.074734 30.990511 74.387623 30.677623 
C 74.700511 30.364735 74.876314 29.940308 74.876314 29.497817 
C 74.876314 29.055327 74.700511 28.6309 74.387623 28.318012 
C 74.074734 28.005123 73.650308 27.82932 73.207817 27.82932 
C 72.765326 27.82932 72.3409 28.005123 72.028012 28.318012 
C 71.715123 28.6309 71.53932 29.055327 71.53932 29.497817 
C 71.53932 29.940308 71.715123 30.364735 72.028012 30.677623 
C 72.3409 30.990511 72.765326 31.166314 73.207817 31.166314 
z
" clip-path="url(#p98397b6932)" style="stroke: #000000"/>
    <path d="M 107.945253 156.806738 
C 108.479248 156.806738 108.991444 156.59458 109.369036 156.216988 
C 109.746628 155.839396 109.958787 155.3272 109.958787 154.793204 
C 109.958787 154.259209 109.746628 153.747013 109.369036 153.369421 
C 108.991444 152.991829 108.479248 152.77967 107.945253 152.77967 
C 107.411257 152.77967 106.899061 152.991829 106.521469 153.369421 
C 106.143878 153.747013 105.931719 154.259209 105.931719 154.793204 
C 105.931719 155.3272 106.143878 155.839396 106.521469 156.216988 
C 106.899061 156.59458 107.411257 156.806738 107.945253 156.806738 
z
" clip-path="url(#p98397b6932)" style="stroke: #000000"/>
    <path d="M 93.808342 127.445315 
C 94.077596 127.445315 94.335857 127.338339 94.526248 127.147949 
C 94.716639 126.957558 94.823614 126.699296 94.823614 126.430043 
C 94.823614 126.16079 94.716639 125.902528 94.526248 125.712138 
C 94.335857 125.521747 94.077596 125.414772 93.808342 125.414772 
C 93.539089 125.414772 93.280828 125.521747 93.090437 125.712138 
C 92.900046 125.902528 92.793071 126.16079 92.793071 126.430043 
C 92.793071 126.699296 92.900046 126.957558 93.090437 127.147949 
C 93.280828 127.338339 93.539089 127.445315 93.808342 127.445315 
z
" clip-path="url(#p98397b6932)" style="stroke: #000000"/>
    <path d="M 89.325892 120.297108 
C 89.935946 120.297108 90.521095 120.054731 90.952468 119.623358 
C 91.383842 119.191985 91.626218 118.606836 91.626218 117.996782 
C 91.626218 117.386728 91.383842 116.801578 90.952468 116.370205 
C 90.521095 115.938832 89.935946 115.696455 89.325892 115.696455 
C 88.715838 115.696455 88.130688 115.938832 87.699315 116.370205 
C 87.267942 116.801578 87.025565 117.386728 87.025565 117.996782 
C 87.025565 118.606836 87.267942 119.191985 87.699315 119.623358 
C 88.130688 120.054731 88.715838 120.297108 89.325892 120.297108 
z
" clip-path="url(#p98397b6932)" style="stroke: #000000"/>
    <path d="M 87.849475 108.602451 
C 87.982077 108.602451 88.109265 108.549768 88.203028 108.456005 
C 88.296792 108.362241 88.349475 108.235053 88.349475 108.102451 
C 88.349475 107.96985 88.296792 107.842661 88.203028 107.748898 
C 88.109265 107.655134 87.982077 107.602451 87.849475 107.602451 
C 87.716873 107.602451 87.589685 107.655134 87.495922 107.748898 
C 87.402158 107.842661 87.349475 107.96985 87.349475 108.102451 
C 87.349475 108.235053 87.402158 108.362241 87.495922 108.456005 
C 87.589685 108.549768 87.716873 108.602451 87.849475 108.602451 
z
" clip-path="url(#p98397b6932)" style="stroke: #000000"/>
    <path d="M 88.687915 97.827048 
C 89.393349 97.827048 90.069986 97.546776 90.568803 97.047958 
C 91.067621 96.54914 91.347893 95.872504 91.347893 95.167069 
C 91.347893 94.461635 91.067621 93.784998 90.568803 93.28618 
C 90.069986 92.787363 89.393349 92.507091 88.687915 92.507091 
C 87.98248 92.507091 87.305843 92.787363 86.807026 93.28618 
C 86.308208 93.784998 86.027936 94.461635 86.027936 95.167069 
C 86.027936 95.872504 86.308208 96.54914 86.807026 97.047958 
C 87.305843 97.546776 87.98248 97.827048 88.687915 97.827048 
z
" clip-path="url(#p98397b6932)" style="stroke: #000000"/>
    <path d="M 68.777351 48.042027 
C 69.313365 48.042027 69.827498 47.829066 70.206517 47.450046 
C 70.585536 47.071027 70.798497 46.556894 70.798497 46.02088 
C 70.798497 45.484866 70.585536 44.970733 70.206517 44.591713 
C 69.827498 44.212694 69.313365 43.999733 68.777351 43.999733 
C 68.241336 43.999733 67.727203 44.212694 67.348184 44.591713 
C 66.969165 44.970733 66.756204 45.484866 66.756204 46.02088 
C 66.756204 46.556894 66.969165 47.071027 67.348184 47.450046 
C 67.727203 47.829066 68.241336 48.042027 68.777351 48.042027 
z
" clip-path="url(#p98397b6932)" style="stroke: #000000"/>
    <path d="M 89.382831 155.224349 
C 89.892353 155.224349 90.381074 155.021914 90.741361 154.661628 
C 91.101647 154.301342 91.304082 153.81262 91.304082 153.303098 
C 91.304082 152.793577 91.101647 152.304855 90.741361 151.944569 
C 90.381074 151.584282 89.892353 151.381847 89.382831 151.381847 
C 88.873309 151.381847 88.384588 151.584282 88.024301 151.944569 
C 87.664015 152.304855 87.46158 152.793577 87.46158 153.303098 
C 87.46158 153.81262 87.664015 154.301342 88.024301 154.661628 
C 88.384588 155.021914 88.873309 155.224349 89.382831 155.224349 
z
" clip-path="url(#p98397b6932)" style="stroke: #000000"/>
    <path d="M 76.464276 109.442268 
C 76.596878 109.442268 76.724066 109.389585 76.81783 109.295821 
C 76.911593 109.202058 76.964276 109.074869 76.964276 108.942268 
C 76.964276 108.809666 76.911593 108.682478 76.81783 108.588715 
C 76.724066 108.494951 76.596878 108.442268 76.464276 108.442268 
C 76.331675 108.442268 76.204486 108.494951 76.110723 108.588715 
C 76.016959 108.682478 75.964276 108.809666 75.964276 108.942268 
C 75.964276 109.074869 76.016959 109.202058 76.110723 109.295821 
C 76.204486 109.389585 76.331675 109.442268 76.464276 109.442268 
z
" clip-path="url(#p98397b6932)" style="stroke: #000000"/>
    <path d="M 76.488574 103.260705 
C 76.621176 103.260705 76.748364 103.208022 76.842128 103.114258 
C 76.935891 103.020495 76.988574 102.893306 76.988574 102.760705 
C 76.988574 102.628103 76.935891 102.500915 76.842128 102.407151 
C 76.748364 102.313388 76.621176 102.260705 76.488574 102.260705 
C 76.355973 102.260705 76.228784 102.313388 76.135021 102.407151 
C 76.041257 102.500915 75.988574 102.628103 75.988574 102.760705 
C 75.988574 102.893306 76.041257 103.020495 76.135021 103.114258 
C 76.228784 103.208022 76.355973 103.260705 76.488574 103.260705 
z
" clip-path="url(#p98397b6932)" style="stroke: #000000"/>
    <path d="M 71.933478 90.031261 
C 72.638912 90.031261 73.315549 89.750989 73.814367 89.252172 
C 74.313184 88.753354 74.593456 88.076717 74.593456 87.371283 
C 74.593456 86.665848 74.313184 85.989211 73.814367 85.490394 
C 73.315549 84.991576 72.638912 84.711304 71.933478 84.711304 
C 71.228043 84.711304 70.551407 84.991576 70.052589 85.490394 
C 69.553771 85.989211 69.273499 86.665848 69.273499 87.371283 
C 69.273499 88.076717 69.553771 88.753354 70.052589 89.252172 
C 70.551407 89.750989 71.228043 90.031261 71.933478 90.031261 
z
" clip-path="url(#p98397b6932)" style="stroke: #000000"/>
    <path d="M 64.228764 81.638104 
C 64.7896 81.638104 65.327541 81.415282 65.724112 81.01871 
C 66.120684 80.622139 66.343506 80.084198 66.343506 79.523362 
C 66.343506 78.962525 66.120684 78.424584 65.724112 78.028013 
C 65.327541 77.631442 64.7896 77.408619 64.228764 77.408619 
C 63.667927 77.408619 63.129986 77.631442 62.733415 78.028013 
C 62.336844 78.424584 62.114021 78.962525 62.114021 79.523362 
C 62.114021 80.084198 62.336844 80.622139 62.733415 81.01871 
C 63.129986 81.415282 63.667927 81.638104 64.228764 81.638104 
z
" clip-path="url(#p98397b6932)" style="stroke: #000000"/>
    <path d="M 67.07251 105.731961 
C 67.633784 105.731961 68.172145 105.508964 68.569025 105.112084 
C 68.965906 104.715203 69.188902 104.176842 69.188902 103.615568 
C 69.188902 103.054294 68.965906 102.515933 68.569025 102.119053 
C 68.172145 101.722172 67.633784 101.499175 67.07251 101.499175 
C 66.511236 101.499175 65.972875 101.722172 65.575994 102.119053 
C 65.179113 102.515933 64.956117 103.054294 64.956117 103.615568 
C 64.956117 104.176842 65.179113 104.715203 65.575994 105.112084 
C 65.972875 105.508964 66.511236 105.731961 67.07251 105.731961 
z
" clip-path="url(#p98397b6932)" style="stroke: #000000"/>
    <path d="M 57.287197 88.48899 
C 57.992411 88.48899 58.668837 88.208805 59.167499 87.710143 
C 59.66616 87.211482 59.946345 86.535056 59.946345 85.829842 
C 59.946345 85.124628 59.66616 84.448202 59.167499 83.94954 
C 58.668837 83.450879 57.992411 83.170694 57.287197 83.170694 
C 56.581983 83.170694 55.905557 83.450879 55.406895 83.94954 
C 54.908234 84.448202 54.628049 85.124628 54.628049 85.829842 
C 54.628049 86.535056 54.908234 87.211482 55.406895 87.710143 
C 55.905557 88.208805 56.581983 88.48899 57.287197 88.48899 
z
" clip-path="url(#p98397b6932)" style="stroke: #000000"/>
    <path d="M 49.836179 56.268689 
C 50.372193 56.268689 50.886326 56.055728 51.265345 55.676709 
C 51.644365 55.29769 51.857326 54.783557 51.857326 54.247543 
C 51.857326 53.711528 51.644365 53.197396 51.265345 52.818376 
C 50.886326 52.439357 50.372193 52.226396 49.836179 52.226396 
C 49.300165 52.226396 48.786032 52.439357 48.407012 52.818376 
C 48.027993 53.197396 47.815032 53.711528 47.815032 54.247543 
C 47.815032 54.783557 48.027993 55.29769 48.407012 55.676709 
C 48.786032 56.055728 49.300165 56.268689 49.836179 56.268689 
z
" clip-path="url(#p98397b6932)" style="stroke: #000000"/>
    <path d="M 68.02785 162.319461 
C 68.462083 162.319461 68.878589 162.146939 69.185639 161.83989 
C 69.492688 161.53284 69.665211 161.116334 69.665211 160.6821 
C 69.665211 160.247867 69.492688 159.831361 69.185639 159.524311 
C 68.878589 159.217262 68.462083 159.044739 68.02785 159.044739 
C 67.593616 159.044739 67.17711 159.217262 66.87006 159.524311 
C 66.563011 159.831361 66.390489 160.247867 66.390489 160.6821 
C 66.390489 161.116334 66.563011 161.53284 66.87006 161.83989 
C 67.17711 162.146939 67.593616 162.319461 68.02785 162.319461 
z
" clip-path="url(#p98397b6932)" style="stroke: #000000"/>
    <path d="M 67.370581 150.287735 
C 67.503183 150.287735 67.630371 150.235052 67.724135 150.141288 
C 67.817898 150.047525 67.870581 149.920336 67.870581 149.787735 
C 67.870581 149.655133 67.817898 149.527945 67.724135 149.434181 
C 67.630371 149.340418 67.503183 149.287735 67.370581 149.287735 
C 67.23798 149.287735 67.110791 149.340418 67.017028 149.434181 
C 66.923264 149.527945 66.870581 149.655133 66.870581 149.787735 
C 66.870581 149.920336 66.923264 150.047525 67.017028 150.141288 
C 67.110791 150.235052 67.23798 150.287735 67.370581 150.287735 
z
" clip-path="url(#p98397b6932)" style="stroke: #000000"/>
    <path d="M 64.656978 136.439417 
C 64.872664 136.439417 65.079546 136.353724 65.232059 136.20121 
C 65.384573 136.048697 65.470266 135.841815 65.470266 135.626129 
C 65.470266 135.410442 65.384573 135.203561 65.232059 135.051047 
C 65.079546 134.898534 64.872664 134.81284 64.656978 134.81284 
C 64.441291 134.81284 64.23441 134.898534 64.081896 135.051047 
C 63.929383 135.203561 63.843689 135.410442 63.843689 135.626129 
C 63.843689 135.841815 63.929383 136.048697 64.081896 136.20121 
C 64.23441 136.353724 64.441291 136.439417 64.656978 136.439417 
z
" clip-path="url(#p98397b6932)" style="stroke: #000000"/>
    <path d="M 57.681088 132.505557 
C 58.274471 132.505557 58.84363 132.269803 59.263214 131.850218 
C 59.682799 131.430634 59.918552 130.861475 59.918552 130.268092 
C 59.918552 129.67471 59.682799 129.105551 59.263214 128.685966 
C 58.84363 128.266381 58.274471 128.030628 57.681088 128.030628 
C 57.087706 128.030628 56.518547 128.266381 56.098962 128.685966 
C 55.679377 129.105551 55.443624 129.67471 55.443624 130.268092 
C 55.443624 130.861475 55.679377 131.430634 56.098962 131.850218 
C 56.518547 132.269803 57.087706 132.505557 57.681088 132.505557 
z
" clip-path="url(#p98397b6932)" style="stroke: #000000"/>
    <path d="M 59.792903 121.833023 
C 60.498338 121.833023 61.174974 121.552751 61.673792 121.053933 
C 62.172609 120.555116 62.452882 119.878479 62.452882 119.173044 
C 62.452882 118.46761 62.172609 117.790973 61.673792 117.292156 
C 61.174974 116.793338 60.498338 116.513066 59.792903 116.513066 
C 59.087468 116.513066 58.410832 116.793338 57.912014 117.292156 
C 57.413197 117.790973 57.132924 118.46761 57.132924 119.173044 
C 57.132924 119.878479 57.413197 120.555116 57.912014 121.053933 
C 58.410832 121.552751 59.087468 121.833023 59.792903 121.833023 
z
" clip-path="url(#p98397b6932)" style="stroke: #000000"/>
    <path d="M 53.433592 111.33769 
C 54.139026 111.33769 54.815663 111.057417 55.314481 110.5586 
C 55.813298 110.059782 56.09357 109.383146 56.09357 108.677711 
C 56.09357 107.972276 55.813298 107.29564 55.314481 106.796822 
C 54.815663 106.298005 54.139026 106.017732 53.433592 106.017732 
C 52.728157 106.017732 52.05152 106.298005 51.552703 106.796822 
C 51.053885 107.29564 50.773613 107.972276 50.773613 108.677711 
C 50.773613 109.383146 51.053885 110.059782 51.552703 110.5586 
C 52.05152 111.057417 52.728157 111.33769 53.433592 111.33769 
z
" clip-path="url(#p98397b6932)" style="stroke: #000000"/>
    <path d="M 47.645284 90.516079 
C 48.238296 90.516079 48.8071 90.280473 49.226423 89.86115 
C 49.645746 89.441827 49.881352 88.873024 49.881352 88.280011 
C 49.881352 87.686999 49.645746 87.118195 49.226423 86.698873 
C 48.8071 86.27955 48.238296 86.043943 47.645284 86.043943 
C 47.052272 86.043943 46.483468 86.27955 46.064145 86.698873 
C 45.644822 87.118195 45.409216 87.686999 45.409216 88.280011 
C 45.409216 88.873024 45.644822 89.441827 46.064145 89.86115 
C 46.483468 90.280473 47.052272 90.516079 47.645284 90.516079 
z
" clip-path="url(#p98397b6932)" style="stroke: #000000"/>
    <path d="M 62.366131 165.806284 
C 62.898598 165.806284 63.409327 165.594733 63.785837 165.218222 
C 64.162348 164.841712 64.373899 164.330983 64.373899 163.798517 
C 64.373899 163.266051 64.162348 162.755321 63.785837 162.378811 
C 63.409327 162.002301 62.898598 161.790749 62.366131 161.790749 
C 61.833665 161.790749 61.322936 162.002301 60.946426 162.378811 
C 60.569915 162.755321 60.358364 163.266051 60.358364 163.798517 
C 60.358364 164.330983 60.569915 164.841712 60.946426 165.218222 
C 61.322936 165.594733 61.833665 165.806284 62.366131 165.806284 
z
" clip-path="url(#p98397b6932)" style="stroke: #000000"/>
    <path d="M 56.017739 142.900382 
C 56.553753 142.900382 57.067886 142.687421 57.446906 142.308402 
C 57.825925 141.929382 58.038886 141.41525 58.038886 140.879235 
C 58.038886 140.343221 57.825925 139.829088 57.446906 139.450069 
C 57.067886 139.071049 56.553753 138.858089 56.017739 138.858089 
C 55.481725 138.858089 54.967592 139.071049 54.588573 139.450069 
C 54.209553 139.829088 53.996592 140.343221 53.996592 140.879235 
C 53.996592 141.41525 54.209553 141.929382 54.588573 142.308402 
C 54.967592 142.687421 55.481725 142.900382 56.017739 142.900382 
z
" clip-path="url(#p98397b6932)" style="stroke: #000000"/>
    <path d="M 50.831674 129.229007 
C 51.367689 129.229007 51.881822 129.016046 52.260841 128.637027 
C 52.63986 128.258007 52.852821 127.743875 52.852821 127.20786 
C 52.852821 126.671846 52.63986 126.157713 52.260841 125.778694 
C 51.881822 125.399674 51.367689 125.186714 50.831674 125.186714 
C 50.29566 125.186714 49.781527 125.399674 49.402508 125.778694 
C 49.023489 126.157713 48.810528 126.671846 48.810528 127.20786 
C 48.810528 127.743875 49.023489 128.258007 49.402508 128.637027 
C 49.781527 129.016046 50.29566 129.229007 50.831674 129.229007 
z
" clip-path="url(#p98397b6932)" style="stroke: #000000"/>
    <path d="M 51.638802 124.330119 
C 52.121779 124.330119 52.58504 124.13823 52.926557 123.796713 
C 53.268073 123.455197 53.459962 122.991936 53.459962 122.508958 
C 53.459962 122.025981 53.268073 121.56272 52.926557 121.221204 
C 52.58504 120.879687 52.121779 120.687798 51.638802 120.687798 
C 51.155825 120.687798 50.692564 120.879687 50.351047 121.221204 
C 50.009531 121.56272 49.817642 122.025981 49.817642 122.508958 
C 49.817642 122.991936 50.009531 123.455197 50.351047 123.796713 
C 50.692564 124.13823 51.155825 124.330119 51.638802 124.330119 
z
" clip-path="url(#p98397b6932)" style="stroke: #000000"/>
    <path d="M 41.107961 112.215156 
C 41.701343 112.215156 42.270502 111.979402 42.690087 111.559818 
C 43.109671 111.140233 43.345425 110.571074 43.345425 109.977691 
C 43.345425 109.384309 43.109671 108.81515 42.690087 108.395565 
C 42.270502 107.975981 41.701343 107.740227 41.107961 107.740227 
C 40.514578 107.740227 39.945419 107.975981 39.525834 108.395565 
C 39.10625 108.81515 38.870496 109.384309 38.870496 109.977691 
C 38.870496 110.571074 39.10625 111.140233 39.525834 111.559818 
C 39.945419 111.979402 40.514578 112.215156 41.107961 112.215156 
z
" clip-path="url(#p98397b6932)" style="stroke: #000000"/>
    <path d="M 38.313824 125.716862 
C 38.666431 125.716862 39.004644 125.57677 39.253975 125.327439 
C 39.503306 125.078108 39.643398 124.739896 39.643398 124.387288 
C 39.643398 124.034681 39.503306 123.696469 39.253975 123.447138 
C 39.004644 123.197807 38.666431 123.057714 38.313824 123.057714 
C 37.961217 123.057714 37.623004 123.197807 37.373674 123.447138 
C 37.124343 123.696469 36.98425 124.034681 36.98425 124.387288 
C 36.98425 124.739896 37.124343 125.078108 37.373674 125.327439 
C 37.623004 125.57677 37.961217 125.716862 38.313824 125.716862 
z
" clip-path="url(#p98397b6932)" style="stroke: #000000"/>
    <path d="M 32.853914 147.340434 
C 32.986516 147.340434 33.113704 147.287751 33.207468 147.193987 
C 33.301231 147.100224 33.353914 146.973036 33.353914 146.840434 
C 33.353914 146.707833 33.301231 146.580644 33.207468 146.486881 
C 33.113704 146.393117 32.986516 146.340434 32.853914 146.340434 
C 32.721313 146.340434 32.594124 146.393117 32.500361 146.486881 
C 32.406597 146.580644 32.353914 146.707833 32.353914 146.840434 
C 32.353914 146.973036 32.406597 147.100224 32.500361 147.193987 
C 32.594124 147.287751 32.721313 147.340434 32.853914 147.340434 
z
" clip-path="url(#p98397b6932)" style="stroke: #000000"/>
   </g>
   <g id="matplotlib.axis_1">
    <g id="xtick_1">
     <g id="line2d_1">
      <defs>
       <path id="mfdffd898b9" d="M 0 0 
L 0 3.5 
" style="stroke: #000000; stroke-width: 0.8"/>
      </defs>
      <g>
       <use xlink:href="#mfdffd898b9" x="18" y="189" style="stroke: #000000; stroke-width: 0.8"/>
      </g>
     </g>
     <g id="text_1">
      <!-- −10 -->
      <g transform="translate(7.447656 203.598437)scale(0.1 -0.1)">
       <defs>
        <path id="DejaVuSans-2212" d="M 678 2272 
L 4684 2272 
L 4684 1741 
L 678 1741 
L 678 2272 
z
" transform="scale(0.015625)"/>
        <path id="DejaVuSans-31" d="M 794 531 
L 1825 531 
L 1825 4091 
L 703 3866 
L 703 4441 
L 1819 4666 
L 2450 4666 
L 2450 531 
L 3481 531 
L 3481 0 
L 794 0 
L 794 531 
z
" transform="scale(0.015625)"/>
        <path id="DejaVuSans-30" d="M 2034 4250 
Q 1547 4250 1301 3770 
Q 1056 3291 1056 2328 
Q 1056 1369 1301 889 
Q 1547 409 2034 409 
Q 2525 409 2770 889 
Q 3016 1369 3016 2328 
Q 3016 3291 2770 3770 
Q 2525 4250 2034 4250 
z
M 2034 4750 
Q 2819 4750 3233 4129 
Q 3647 3509 3647 2328 
Q 3647 1150 3233 529 
Q 2819 -91 2034 -91 
Q 1250 -91 836 529 
Q 422 1150 422 2328 
Q 422 3509 836 4129 
Q 1250 4750 2034 4750 
z
" transform="scale(0.015625)"/>
       </defs>
       <use xlink:href="#DejaVuSans-2212"/>
       <use xlink:href="#DejaVuSans-31" x="83.789062"/>
       <use xlink:href="#DejaVuSans-30" x="147.412109"/>
      </g>
     </g>
    </g>
    <g id="xtick_2">
     <g id="line2d_2">
      <g>
       <use xlink:href="#mfdffd898b9" x="73.8" y="189" style="stroke: #000000; stroke-width: 0.8"/>
      </g>
     </g>
     <g id="text_2">
      <!-- 0 -->
      <g transform="translate(70.61875 203.598437)scale(0.1 -0.1)">
       <use xlink:href="#DejaVuSans-30"/>
      </g>
     </g>
    </g>
    <g id="xtick_3">
     <g id="line2d_3">
      <g>
       <use xlink:href="#mfdffd898b9" x="129.6" y="189" style="stroke: #000000; stroke-width: 0.8"/>
      </g>
     </g>
     <g id="text_3">
      <!-- 10 -->
      <g transform="translate(123.2375 203.598437)scale(0.1 -0.1)">
       <use xlink:href="#DejaVuSans-31"/>
       <use xlink:href="#DejaVuSans-30" x="63.623047"/>
      </g>
     </g>
    </g>
   </g>
   <g id="matplotlib.axis_2">
    <g id="ytick_1">
     <g id="line2d_4">
      <defs>
       <path id="m8b77f8b240" d="M 0 0 
L -3.5 0 
" style="stroke: #000000; stroke-width: 0.8"/>
      </defs>
      <g>
       <use xlink:href="#m8b77f8b240" x="18" y="189" style="stroke: #000000; stroke-width: 0.8"/>
      </g>
     </g>
     <g id="text_4">
      <!-- −15 -->
      <g transform="translate(-10.104688 192.799219)scale(0.1 -0.1)">
       <defs>
        <path id="DejaVuSans-35" d="M 691 4666 
L 3169 4666 
L 3169 4134 
L 1269 4134 
L 1269 2991 
Q 1406 3038 1543 3061 
Q 1681 3084 1819 3084 
Q 2600 3084 3056 2656 
Q 3513 2228 3513 1497 
Q 3513 744 3044 326 
Q 2575 -91 1722 -91 
Q 1428 -91 1123 -41 
Q 819 9 494 109 
L 494 744 
Q 775 591 1075 516 
Q 1375 441 1709 441 
Q 2250 441 2565 725 
Q 2881 1009 2881 1497 
Q 2881 1984 2565 2268 
Q 2250 2553 1709 2553 
Q 1456 2553 1204 2497 
Q 953 2441 691 2322 
L 691 4666 
z
" transform="scale(0.015625)"/>
       </defs>
       <use xlink:href="#DejaVuSans-2212"/>
       <use xlink:href="#DejaVuSans-31" x="83.789062"/>
       <use xlink:href="#DejaVuSans-35" x="147.412109"/>
      </g>
     </g>
    </g>
    <g id="ytick_2">
     <g id="line2d_5">
      <g>
       <use xlink:href="#m8b77f8b240" x="18" y="161.82" style="stroke: #000000; stroke-width: 0.8"/>
      </g>
     </g>
     <g id="text_5">
      <!-- −10 -->
      <g transform="translate(-10.104688 165.619219)scale(0.1 -0.1)">
       <use xlink:href="#DejaVuSans-2212"/>
       <use xlink:href="#DejaVuSans-31" x="83.789062"/>
       <use xlink:href="#DejaVuSans-30" x="147.412109"/>
      </g>
     </g>
    </g>
    <g id="ytick_3">
     <g id="line2d_6">
      <g>
       <use xlink:href="#m8b77f8b240" x="18" y="134.64" style="stroke: #000000; stroke-width: 0.8"/>
      </g>
     </g>
     <g id="text_6">
      <!-- −5 -->
      <g transform="translate(-3.742188 138.439219)scale(0.1 -0.1)">
       <use xlink:href="#DejaVuSans-2212"/>
       <use xlink:href="#DejaVuSans-35" x="83.789062"/>
      </g>
     </g>
    </g>
    <g id="ytick_4">
     <g id="line2d_7">
      <g>
       <use xlink:href="#m8b77f8b240" x="18" y="107.46" style="stroke: #000000; stroke-width: 0.8"/>
      </g>
     </g>
     <g id="text_7">
      <!-- 0 -->
      <g transform="translate(4.6375 111.259219)scale(0.1 -0.1)">
       <use xlink:href="#DejaVuSans-30"/>
      </g>
     </g>
    </g>
    <g id="ytick_5">
     <g id="line2d_8">
      <g>
       <use xlink:href="#m8b77f8b240" x="18" y="80.28" style="stroke: #000000; stroke-width: 0.8"/>
      </g>
     </g>
     <g id="text_8">
      <!-- 5 -->
      <g transform="translate(4.6375 84.079219)scale(0.1 -0.1)">
       <use xlink:href="#DejaVuSans-35"/>
      </g>
     </g>
    </g>
    <g id="ytick_6">
     <g id="line2d_9">
      <g>
       <use xlink:href="#m8b77f8b240" x="18" y="53.1" style="stroke: #000000; stroke-width: 0.8"/>
      </g>
     </g>
     <g id="text_9">
      <!-- 10 -->
      <g transform="translate(-1.725 56.899219)scale(0.1 -0.1)">
       <use xlink:href="#DejaVuSans-31"/>
       <use xlink:href="#DejaVuSans-30" x="63.623047"/>
      </g>
     </g>
    </g>
    <g id="ytick_7">
     <g id="line2d_10">
      <g>
       <use xlink:href="#m8b77f8b240" x="18" y="25.92" style="stroke: #000000; stroke-width: 0.8"/>
      </g>
     </g>
     <g id="text_10">
      <!-- 15 -->
      <g transform="translate(-1.725 29.719219)scale(0.1 -0.1)">
       <use xlink:href="#DejaVuSans-31"/>
       <use xlink:href="#DejaVuSans-35" x="63.623047"/>
      </g>
     </g>
    </g>
   </g>
   <g id="patch_3">
    <path d="M 18 189 
L 18 25.92 
" style="fill: none; stroke: #000000; stroke-width: 0.8; stroke-linejoin: miter; stroke-linecap: square"/>
   </g>
   <g id="patch_4">
    <path d="M 129.6 189 
L 129.6 25.92 
" style="fill: none; stroke: #000000; stroke-width: 0.8; stroke-linejoin: miter; stroke-linecap: square"/>
   </g>
   <g id="patch_5">
    <path d="M 18 189 
L 129.6 189 
" style="fill: none; stroke: #000000; stroke-width: 0.8; stroke-linejoin: miter; stroke-linecap: square"/>
   </g>
   <g id="patch_6">
    <path d="M 18 25.92 
L 129.6 25.92 
" style="fill: none; stroke: #000000; stroke-width: 0.8; stroke-linejoin: miter; stroke-linecap: square"/>
   </g>
  </g>
 </g>
 <defs>
  <clipPath id="p98397b6932">
   <rect x="18" y="25.92" width="111.6" height="163.08"/>
  </clipPath>
 </defs>
</svg>
