<?xml version="1.0" encoding="utf-8" standalone="no"?>
<!DOCTYPE svg PUBLIC "-//W3C//DTD SVG 1.1//EN"
  "http://www.w3.org/Graphics/SVG/1.1/DTD/svg11.dtd">
<svg xmlns:xlink="http://www.w3.org/1999/xlink" width="144pt" height="216pt" viewBox="0 0 144 216" xmlns="http://www.w3.org/2000/svg" version="1.1">
 <metadata>
  <rdf:RDF xmlns:dc="http://purl.org/dc/elements/1.1/" xmlns:cc="http://creativecommons.org/ns#" xmlns:rdf="http://www.w3.org/1999/02/22-rdf-syntax-ns#">
   <cc:Work>
    <dc:type rdf:resource="http://purl.org/dc/dcmitype/StillImage"/>
    <dc:date>2022-06-28T09:16:32.674918</dc:date>
    <dc:format>image/svg+xml</dc:format>
    <dc:creator>
     <cc:Agent>
      <dc:title>Matplotlib v3.5.1, https://matplotlib.org/</dc:title>
     </cc:Agent>
    </dc:creator>
   </cc:Work>
  </rdf:RDF>
 </metadata>
 <defs>
  <style type="text/css">*{stroke-linejoin: round; stroke-linecap: butt}</style>
 </defs>
 <g id="figure_1">
  <g id="patch_1">
   <path d="M 0 216 
L 144 216 
L 144 0 
L 0 0 
L 0 216 
z
" style="fill: none"/>
  </g>
  <g id="axes_1">
   <g id="patch_2">
    <path d="M 18 189 
L 129.6 189 
L 129.6 25.92 
L 18 25.92 
z
" style="fill: #ffffff"/>
   </g>
   <g id="PathCollection_1">
    <defs>
     <path id="ma8b1564019" d="M 0 2.738613 
C 0.726289 2.738613 1.422928 2.450055 1.936492 1.936492 
C 2.450055 1.422928 2.738613 0.726289 2.738613 0 
C 2.738613 -0.726289 2.450055 -1.422928 1.936492 -1.936492 
C 1.422928 -2.450055 0.726289 -2.738613 0 -2.738613 
C -0.726289 -2.738613 -1.422928 -2.450055 -1.936492 -1.936492 
C -2.450055 -1.422928 -2.738613 -0.726289 -2.738613 0 
C -2.738613 0.726289 -2.450055 1.422928 -1.936492 1.936492 
C -1.422928 2.450055 -0.726289 2.738613 0 2.738613 
z
" style="stroke: #ff0000; stroke-width: 1.75"/>
    </defs>
    <g clip-path="url(#paf7e0f0c5e)">
     <use xlink:href="#ma8b1564019" x="66.825" y="83.92143" style="fill: #ff0000; stroke: #ff0000; stroke-width: 1.75"/>
     <use xlink:href="#ma8b1564019" x="87.75" y="95.690715" style="fill: #ff0000; stroke: #ff0000; stroke-width: 1.75"/>
     <use xlink:href="#ma8b1564019" x="66.825" y="107.46" style="fill: #ff0000; stroke: #ff0000; stroke-width: 1.75"/>
     <use xlink:href="#ma8b1564019" x="73.8" y="119.229285" style="fill: #ff0000; stroke: #ff0000; stroke-width: 1.75"/>
     <use xlink:href="#ma8b1564019" x="87.75" y="119.229285" style="fill: #ff0000; stroke: #ff0000; stroke-width: 1.75"/>
     <use xlink:href="#ma8b1564019" x="66.825" y="130.99857" style="fill: #ff0000; stroke: #ff0000; stroke-width: 1.75"/>
     <use xlink:href="#ma8b1564019" x="80.775" y="130.99857" style="fill: #ff0000; stroke: #ff0000; stroke-width: 1.75"/>
    </g>
   </g>
   <g id="PathCollection_2">
    <defs>
     <path id="C0_0_1e5b32ace1" d="M 0 2.738613 
C 0.726289 2.738613 1.422928 2.450055 1.936492 1.936492 
C 2.450055 1.422928 2.738613 0.726289 2.738613 -0 
C 2.738613 -0.726289 2.450055 -1.422928 1.936492 -1.936492 
C 1.422928 -2.450055 0.726289 -2.738613 0 -2.738613 
C -0.726289 -2.738613 -1.422928 -2.450055 -1.936492 -1.936492 
C -2.450055 -1.422928 -2.738613 -0.726289 -2.738613 0 
C -2.738613 0.726289 -2.450055 1.422928 -1.936492 1.936492 
C -1.422928 2.450055 -0.726289 2.738613 0 2.738613 
z
"/>
    </defs>
    <g clip-path="url(#paf7e0f0c5e)">
     <use xlink:href="#C0_0_1e5b32ace1" x="80.775" y="83.92143" style="fill: none; stroke: #ff0000; stroke-width: 1.75"/>
    </g>
    <g clip-path="url(#paf7e0f0c5e)">
     <use xlink:href="#C0_0_1e5b32ace1" x="59.85" y="95.690715" style="fill: none; stroke: #ff0000; stroke-width: 1.75"/>
    </g>
    <g clip-path="url(#paf7e0f0c5e)">
     <use xlink:href="#C0_0_1e5b32ace1" x="73.8" y="95.690715" style="fill: none; stroke: #ff0000; stroke-width: 1.75"/>
    </g>
    <g clip-path="url(#paf7e0f0c5e)">
     <use xlink:href="#C0_0_1e5b32ace1" x="52.875" y="107.46" style="fill: none; stroke: #ff0000; stroke-width: 1.75"/>
    </g>
    <g clip-path="url(#paf7e0f0c5e)">
     <use xlink:href="#C0_0_1e5b32ace1" x="80.775" y="107.46" style="fill: none; stroke: #ff0000; stroke-width: 1.75"/>
    </g>
    <g clip-path="url(#paf7e0f0c5e)">
     <use xlink:href="#C0_0_1e5b32ace1" x="94.725" y="107.46" style="fill: none; stroke: #ff0000; stroke-width: 1.75"/>
    </g>
    <g clip-path="url(#paf7e0f0c5e)">
     <use xlink:href="#C0_0_1e5b32ace1" x="59.85" y="119.229285" style="fill: none; stroke: #ff0000; stroke-width: 1.75"/>
    </g>
   </g>
   <g id="PathCollection_3">
    <path d="M 91.633331 95.715559 
C 91.929837 95.715559 92.214239 95.597756 92.4239 95.388095 
C 92.633561 95.178433 92.751365 94.894032 92.751365 94.597525 
C 92.751365 94.301019 92.633561 94.016618 92.4239 93.806956 
C 92.214239 93.597295 91.929837 93.479491 91.633331 93.479491 
C 91.336824 93.479491 91.052423 93.597295 90.842761 93.806956 
C 90.6331 94.016618 90.515297 94.301019 90.515297 94.597525 
C 90.515297 94.894032 90.6331 95.178433 90.842761 95.388095 
C 91.052423 95.597756 91.336824 95.715559 91.633331 95.715559 
z
" clip-path="url(#paf7e0f0c5e)" style="stroke: #000000"/>
    <path d="M 89.693969 94.363228 
C 89.977828 94.363228 90.2501 94.25045 90.450819 94.049731 
C 90.651538 93.849012 90.764316 93.57674 90.764316 93.292881 
C 90.764316 93.009021 90.651538 92.73675 90.450819 92.536031 
C 90.2501 92.335312 89.977828 92.222533 89.693969 92.222533 
C 89.410109 92.222533 89.137837 92.335312 88.937118 92.536031 
C 88.7364 92.73675 88.623621 93.009021 88.623621 93.292881 
C 88.623621 93.57674 88.7364 93.849012 88.937118 94.049731 
C 89.137837 94.25045 89.410109 94.363228 89.693969 94.363228 
z
" clip-path="url(#paf7e0f0c5e)" style="stroke: #000000"/>
    <path d="M 92.208641 119.101162 
C 92.502136 119.101162 92.78365 118.984555 92.991183 118.777022 
C 93.198716 118.56949 93.315323 118.287976 93.315323 117.99448 
C 93.315323 117.700985 93.198716 117.41947 92.991183 117.211938 
C 92.78365 117.004405 92.502136 116.887798 92.208641 116.887798 
C 91.915145 116.887798 91.633631 117.004405 91.426099 117.211938 
C 91.218566 117.41947 91.101959 117.700985 91.101959 117.99448 
C 91.101959 118.287976 91.218566 118.56949 91.426099 118.777022 
C 91.633631 118.984555 91.915145 119.101162 92.208641 119.101162 
z
" clip-path="url(#paf7e0f0c5e)" style="stroke: #000000"/>
    <path d="M 82.501217 87.647552 
C 82.716904 87.647552 82.923786 87.561859 83.076299 87.409345 
C 83.228812 87.256832 83.314506 87.04995 83.314506 86.834263 
C 83.314506 86.618577 83.228812 86.411695 83.076299 86.259182 
C 82.923786 86.106668 82.716904 86.020975 82.501217 86.020975 
C 82.285531 86.020975 82.078649 86.106668 81.926136 86.259182 
C 81.773622 86.411695 81.687929 86.618577 81.687929 86.834263 
C 81.687929 87.04995 81.773622 87.256832 81.926136 87.409345 
C 82.078649 87.561859 82.285531 87.647552 82.501217 87.647552 
z
" clip-path="url(#paf7e0f0c5e)" style="stroke: #000000"/>
    <path d="M 86.187604 119.573317 
C 86.320205 119.573317 86.447394 119.520634 86.541157 119.42687 
C 86.634921 119.333107 86.687604 119.205918 86.687604 119.073317 
C 86.687604 118.940715 86.634921 118.813527 86.541157 118.719763 
C 86.447394 118.626 86.320205 118.573317 86.187604 118.573317 
C 86.055002 118.573317 85.927814 118.626 85.83405 118.719763 
C 85.740287 118.813527 85.687604 118.940715 85.687604 119.073317 
C 85.687604 119.205918 85.740287 119.333107 85.83405 119.42687 
C 85.927814 119.520634 86.055002 119.573317 86.187604 119.573317 
z
" clip-path="url(#paf7e0f0c5e)" style="stroke: #000000"/>
    <path d="M 67.910537 84.600823 
C 68.225919 84.600823 68.528425 84.475521 68.751434 84.252512 
C 68.974442 84.029504 69.099744 83.726997 69.099744 83.411616 
C 69.099744 83.096234 68.974442 82.793728 68.751434 82.570719 
C 68.528425 82.347711 68.225919 82.222409 67.910537 82.222409 
C 67.595156 82.222409 67.292649 82.347711 67.069641 82.570719 
C 66.846633 82.793728 66.72133 83.096234 66.72133 83.411616 
C 66.72133 83.726997 66.846633 84.029504 67.069641 84.252512 
C 67.292649 84.475521 67.595156 84.600823 67.910537 84.600823 
z
" clip-path="url(#paf7e0f0c5e)" style="stroke: #000000"/>
    <path d="M 77.437965 129.867428 
C 77.570566 129.867428 77.697755 129.814745 77.791518 129.720982 
C 77.885282 129.627218 77.937965 129.50003 77.937965 129.367428 
C 77.937965 129.234827 77.885282 129.107638 77.791518 129.013875 
C 77.697755 128.920111 77.570566 128.867428 77.437965 128.867428 
C 77.305363 128.867428 77.178175 128.920111 77.084411 129.013875 
C 76.990648 129.107638 76.937965 129.234827 76.937965 129.367428 
C 76.937965 129.50003 76.990648 129.627218 77.084411 129.720982 
C 77.178175 129.814745 77.305363 129.867428 77.437965 129.867428 
z
" clip-path="url(#paf7e0f0c5e)" style="stroke: #000000"/>
    <path d="M 71.908513 116.336347 
C 72.181641 116.336347 72.44362 116.227832 72.63675 116.034701 
C 72.829881 115.84157 72.938396 115.579592 72.938396 115.306463 
C 72.938396 115.033335 72.829881 114.771356 72.63675 114.578226 
C 72.44362 114.385095 72.181641 114.27658 71.908513 114.27658 
C 71.635385 114.27658 71.373406 114.385095 71.180275 114.578226 
C 70.987144 114.771356 70.878629 115.033335 70.878629 115.306463 
C 70.878629 115.579592 70.987144 115.84157 71.180275 116.034701 
C 71.373406 116.227832 71.635385 116.336347 71.908513 116.336347 
z
" clip-path="url(#paf7e0f0c5e)" style="stroke: #000000"/>
    <path d="M 65.655204 135.587768 
C 65.968092 135.587768 66.268207 135.463457 66.489452 135.242211 
C 66.710698 135.020966 66.835009 134.720851 66.835009 134.407963 
C 66.835009 134.095075 66.710698 133.79496 66.489452 133.573714 
C 66.268207 133.352469 65.968092 133.228157 65.655204 133.228157 
C 65.342316 133.228157 65.042201 133.352469 64.820955 133.573714 
C 64.59971 133.79496 64.475398 134.095075 64.475398 134.407963 
C 64.475398 134.720851 64.59971 135.020966 64.820955 135.242211 
C 65.042201 135.463457 65.342316 135.587768 65.655204 135.587768 
z
" clip-path="url(#paf7e0f0c5e)" style="stroke: #000000"/>
    <path d="M 59.907971 120.997665 
C 60.181099 120.997665 60.443078 120.88915 60.636209 120.696019 
C 60.82934 120.502888 60.937855 120.240909 60.937855 119.967781 
C 60.937855 119.694653 60.82934 119.432674 60.636209 119.239543 
C 60.443078 119.046412 60.181099 118.937897 59.907971 118.937897 
C 59.634843 118.937897 59.372864 119.046412 59.179733 119.239543 
C 58.986603 119.432674 58.878087 119.694653 58.878087 119.967781 
C 58.878087 120.240909 58.986603 120.502888 59.179733 120.696019 
C 59.372864 120.88915 59.634843 120.997665 59.907971 120.997665 
z
" clip-path="url(#paf7e0f0c5e)" style="stroke: #000000"/>
   </g>
   <g id="matplotlib.axis_1">
    <g id="xtick_1">
     <g id="line2d_1">
      <defs>
       <path id="me4e46d743a" d="M 0 0 
L 0 3.5 
" style="stroke: #000000; stroke-width: 0.8"/>
      </defs>
      <g>
       <use xlink:href="#me4e46d743a" x="18" y="189" style="stroke: #000000; stroke-width: 0.8"/>
      </g>
     </g>
     <g id="text_1">
      <!-- −10 -->
      <g transform="translate(7.447656 203.598437)scale(0.1 -0.1)">
       <defs>
        <path id="DejaVuSans-2212" d="M 678 2272 
L 4684 2272 
L 4684 1741 
L 678 1741 
L 678 2272 
z
" transform="scale(0.015625)"/>
        <path id="DejaVuSans-31" d="M 794 531 
L 1825 531 
L 1825 4091 
L 703 3866 
L 703 4441 
L 1819 4666 
L 2450 4666 
L 2450 531 
L 3481 531 
L 3481 0 
L 794 0 
L 794 531 
z
" transform="scale(0.015625)"/>
        <path id="DejaVuSans-30" d="M 2034 4250 
Q 1547 4250 1301 3770 
Q 1056 3291 1056 2328 
Q 1056 1369 1301 889 
Q 1547 409 2034 409 
Q 2525 409 2770 889 
Q 3016 1369 3016 2328 
Q 3016 3291 2770 3770 
Q 2525 4250 2034 4250 
z
M 2034 4750 
Q 2819 4750 3233 4129 
Q 3647 3509 3647 2328 
Q 3647 1150 3233 529 
Q 2819 -91 2034 -91 
Q 1250 -91 836 529 
Q 422 1150 422 2328 
Q 422 3509 836 4129 
Q 1250 4750 2034 4750 
z
" transform="scale(0.015625)"/>
       </defs>
       <use xlink:href="#DejaVuSans-2212"/>
       <use xlink:href="#DejaVuSans-31" x="83.789062"/>
       <use xlink:href="#DejaVuSans-30" x="147.412109"/>
      </g>
     </g>
    </g>
    <g id="xtick_2">
     <g id="line2d_2">
      <g>
       <use xlink:href="#me4e46d743a" x="73.8" y="189" style="stroke: #000000; stroke-width: 0.8"/>
      </g>
     </g>
     <g id="text_2">
      <!-- 0 -->
      <g transform="translate(70.61875 203.598437)scale(0.1 -0.1)">
       <use xlink:href="#DejaVuSans-30"/>
      </g>
     </g>
    </g>
    <g id="xtick_3">
     <g id="line2d_3">
      <g>
       <use xlink:href="#me4e46d743a" x="129.6" y="189" style="stroke: #000000; stroke-width: 0.8"/>
      </g>
     </g>
     <g id="text_3">
      <!-- 10 -->
      <g transform="translate(123.2375 203.598437)scale(0.1 -0.1)">
       <use xlink:href="#DejaVuSans-31"/>
       <use xlink:href="#DejaVuSans-30" x="63.623047"/>
      </g>
     </g>
    </g>
   </g>
   <g id="matplotlib.axis_2">
    <g id="ytick_1">
     <g id="line2d_4">
      <defs>
       <path id="mda995be898" d="M 0 0 
L -3.5 0 
" style="stroke: #000000; stroke-width: 0.8"/>
      </defs>
      <g>
       <use xlink:href="#mda995be898" x="18" y="189" style="stroke: #000000; stroke-width: 0.8"/>
      </g>
     </g>
     <g id="text_4">
      <!-- −15 -->
      <g transform="translate(-10.104688 192.799219)scale(0.1 -0.1)">
       <defs>
        <path id="DejaVuSans-35" d="M 691 4666 
L 3169 4666 
L 3169 4134 
L 1269 4134 
L 1269 2991 
Q 1406 3038 1543 3061 
Q 1681 3084 1819 3084 
Q 2600 3084 3056 2656 
Q 3513 2228 3513 1497 
Q 3513 744 3044 326 
Q 2575 -91 1722 -91 
Q 1428 -91 1123 -41 
Q 819 9 494 109 
L 494 744 
Q 775 591 1075 516 
Q 1375 441 1709 441 
Q 2250 441 2565 725 
Q 2881 1009 2881 1497 
Q 2881 1984 2565 2268 
Q 2250 2553 1709 2553 
Q 1456 2553 1204 2497 
Q 953 2441 691 2322 
L 691 4666 
z
" transform="scale(0.015625)"/>
       </defs>
       <use xlink:href="#DejaVuSans-2212"/>
       <use xlink:href="#DejaVuSans-31" x="83.789062"/>
       <use xlink:href="#DejaVuSans-35" x="147.412109"/>
      </g>
     </g>
    </g>
    <g id="ytick_2">
     <g id="line2d_5">
      <g>
       <use xlink:href="#mda995be898" x="18" y="161.82" style="stroke: #000000; stroke-width: 0.8"/>
      </g>
     </g>
     <g id="text_5">
      <!-- −10 -->
      <g transform="translate(-10.104688 165.619219)scale(0.1 -0.1)">
       <use xlink:href="#DejaVuSans-2212"/>
       <use xlink:href="#DejaVuSans-31" x="83.789062"/>
       <use xlink:href="#DejaVuSans-30" x="147.412109"/>
      </g>
     </g>
    </g>
    <g id="ytick_3">
     <g id="line2d_6">
      <g>
       <use xlink:href="#mda995be898" x="18" y="134.64" style="stroke: #000000; stroke-width: 0.8"/>
      </g>
     </g>
     <g id="text_6">
      <!-- −5 -->
      <g transform="translate(-3.742188 138.439219)scale(0.1 -0.1)">
       <use xlink:href="#DejaVuSans-2212"/>
       <use xlink:href="#DejaVuSans-35" x="83.789062"/>
      </g>
     </g>
    </g>
    <g id="ytick_4">
     <g id="line2d_7">
      <g>
       <use xlink:href="#mda995be898" x="18" y="107.46" style="stroke: #000000; stroke-width: 0.8"/>
      </g>
     </g>
     <g id="text_7">
      <!-- 0 -->
      <g transform="translate(4.6375 111.259219)scale(0.1 -0.1)">
       <use xlink:href="#DejaVuSans-30"/>
      </g>
     </g>
    </g>
    <g id="ytick_5">
     <g id="line2d_8">
      <g>
       <use xlink:href="#mda995be898" x="18" y="80.28" style="stroke: #000000; stroke-width: 0.8"/>
      </g>
     </g>
     <g id="text_8">
      <!-- 5 -->
      <g transform="translate(4.6375 84.079219)scale(0.1 -0.1)">
       <use xlink:href="#DejaVuSans-35"/>
      </g>
     </g>
    </g>
    <g id="ytick_6">
     <g id="line2d_9">
      <g>
       <use xlink:href="#mda995be898" x="18" y="53.1" style="stroke: #000000; stroke-width: 0.8"/>
      </g>
     </g>
     <g id="text_9">
      <!-- 10 -->
      <g transform="translate(-1.725 56.899219)scale(0.1 -0.1)">
       <use xlink:href="#DejaVuSans-31"/>
       <use xlink:href="#DejaVuSans-30" x="63.623047"/>
      </g>
     </g>
    </g>
    <g id="ytick_7">
     <g id="line2d_10">
      <g>
       <use xlink:href="#mda995be898" x="18" y="25.92" style="stroke: #000000; stroke-width: 0.8"/>
      </g>
     </g>
     <g id="text_10">
      <!-- 15 -->
      <g transform="translate(-1.725 29.719219)scale(0.1 -0.1)">
       <use xlink:href="#DejaVuSans-31"/>
       <use xlink:href="#DejaVuSans-35" x="63.623047"/>
      </g>
     </g>
    </g>
   </g>
   <g id="patch_3">
    <path d="M 18 189 
L 18 25.92 
" style="fill: none; stroke: #000000; stroke-width: 0.8; stroke-linejoin: miter; stroke-linecap: square"/>
   </g>
   <g id="patch_4">
    <path d="M 129.6 189 
L 129.6 25.92 
" style="fill: none; stroke: #000000; stroke-width: 0.8; stroke-linejoin: miter; stroke-linecap: square"/>
   </g>
   <g id="patch_5">
    <path d="M 18 189 
L 129.6 189 
" style="fill: none; stroke: #000000; stroke-width: 0.8; stroke-linejoin: miter; stroke-linecap: square"/>
   </g>
   <g id="patch_6">
    <path d="M 18 25.92 
L 129.6 25.92 
" style="fill: none; stroke: #000000; stroke-width: 0.8; stroke-linejoin: miter; stroke-linecap: square"/>
   </g>
  </g>
 </g>
 <defs>
  <clipPath id="paf7e0f0c5e">
   <rect x="18" y="25.92" width="111.6" height="163.08"/>
  </clipPath>
 </defs>
</svg>
