<?xml version="1.0" encoding="utf-8" standalone="no"?>
<!DOCTYPE svg PUBLIC "-//W3C//DTD SVG 1.1//EN"
  "http://www.w3.org/Graphics/SVG/1.1/DTD/svg11.dtd">
<svg xmlns:xlink="http://www.w3.org/1999/xlink" width="144pt" height="216pt" viewBox="0 0 144 216" xmlns="http://www.w3.org/2000/svg" version="1.1">
 <metadata>
  <rdf:RDF xmlns:dc="http://purl.org/dc/elements/1.1/" xmlns:cc="http://creativecommons.org/ns#" xmlns:rdf="http://www.w3.org/1999/02/22-rdf-syntax-ns#">
   <cc:Work>
    <dc:type rdf:resource="http://purl.org/dc/dcmitype/StillImage"/>
    <dc:date>2022-06-23T14:51:46.848427</dc:date>
    <dc:format>image/svg+xml</dc:format>
    <dc:creator>
     <cc:Agent>
      <dc:title>Matplotlib v3.5.1, https://matplotlib.org/</dc:title>
     </cc:Agent>
    </dc:creator>
   </cc:Work>
  </rdf:RDF>
 </metadata>
 <defs>
  <style type="text/css">*{stroke-linejoin: round; stroke-linecap: butt}</style>
 </defs>
 <g id="figure_1">
  <g id="patch_1">
   <path d="M 0 216 
L 144 216 
L 144 0 
L 0 0 
L 0 216 
z
" style="fill: none"/>
  </g>
  <g id="axes_1">
   <g id="patch_2">
    <path d="M 18 189 
L 129.6 189 
L 129.6 25.92 
L 18 25.92 
z
" style="fill: #ffffff"/>
   </g>
   <g id="PathCollection_1">
    <defs>
     <path id="m35c19b161f" d="M 0 2.738613 
C 0.726289 2.738613 1.422928 2.450055 1.936492 1.936492 
C 2.450055 1.422928 2.738613 0.726289 2.738613 0 
C 2.738613 -0.726289 2.450055 -1.422928 1.936492 -1.936492 
C 1.422928 -2.450055 0.726289 -2.738613 0 -2.738613 
C -0.726289 -2.738613 -1.422928 -2.450055 -1.936492 -1.936492 
C -2.450055 -1.422928 -2.738613 -0.726289 -2.738613 0 
C -2.738613 0.726289 -2.450055 1.422928 -1.936492 1.936492 
C -1.422928 2.450055 -0.726289 2.738613 0 2.738613 
z
" style="stroke: #ff0000; stroke-width: 1.75"/>
    </defs>
    <g clip-path="url(#p7cb093aa8a)">
     <use xlink:href="#m35c19b161f" x="80.775" y="83.92143" style="fill: #ff0000; stroke: #ff0000; stroke-width: 1.75"/>
     <use xlink:href="#m35c19b161f" x="59.85" y="95.690715" style="fill: #ff0000; stroke: #ff0000; stroke-width: 1.75"/>
     <use xlink:href="#m35c19b161f" x="66.825" y="107.46" style="fill: #ff0000; stroke: #ff0000; stroke-width: 1.75"/>
     <use xlink:href="#m35c19b161f" x="80.775" y="107.46" style="fill: #ff0000; stroke: #ff0000; stroke-width: 1.75"/>
     <use xlink:href="#m35c19b161f" x="94.725" y="107.46" style="fill: #ff0000; stroke: #ff0000; stroke-width: 1.75"/>
     <use xlink:href="#m35c19b161f" x="59.85" y="119.229285" style="fill: #ff0000; stroke: #ff0000; stroke-width: 1.75"/>
     <use xlink:href="#m35c19b161f" x="80.775" y="130.99857" style="fill: #ff0000; stroke: #ff0000; stroke-width: 1.75"/>
    </g>
   </g>
   <g id="PathCollection_2">
    <defs>
     <path id="C0_0_a3e5c4c766" d="M 0 2.738613 
C 0.726289 2.738613 1.422928 2.450055 1.936492 1.936492 
C 2.450055 1.422928 2.738613 0.726289 2.738613 -0 
C 2.738613 -0.726289 2.450055 -1.422928 1.936492 -1.936492 
C 1.422928 -2.450055 0.726289 -2.738613 0 -2.738613 
C -0.726289 -2.738613 -1.422928 -2.450055 -1.936492 -1.936492 
C -2.450055 -1.422928 -2.738613 -0.726289 -2.738613 0 
C -2.738613 0.726289 -2.450055 1.422928 -1.936492 1.936492 
C -1.422928 2.450055 -0.726289 2.738613 0 2.738613 
z
"/>
    </defs>
    <g clip-path="url(#p7cb093aa8a)">
     <use xlink:href="#C0_0_a3e5c4c766" x="66.825" y="83.92143" style="fill: none; stroke: #ff0000; stroke-width: 1.75"/>
    </g>
    <g clip-path="url(#p7cb093aa8a)">
     <use xlink:href="#C0_0_a3e5c4c766" x="73.8" y="95.690715" style="fill: none; stroke: #ff0000; stroke-width: 1.75"/>
    </g>
    <g clip-path="url(#p7cb093aa8a)">
     <use xlink:href="#C0_0_a3e5c4c766" x="87.75" y="95.690715" style="fill: none; stroke: #ff0000; stroke-width: 1.75"/>
    </g>
    <g clip-path="url(#p7cb093aa8a)">
     <use xlink:href="#C0_0_a3e5c4c766" x="52.875" y="107.46" style="fill: none; stroke: #ff0000; stroke-width: 1.75"/>
    </g>
    <g clip-path="url(#p7cb093aa8a)">
     <use xlink:href="#C0_0_a3e5c4c766" x="73.8" y="119.229285" style="fill: none; stroke: #ff0000; stroke-width: 1.75"/>
    </g>
    <g clip-path="url(#p7cb093aa8a)">
     <use xlink:href="#C0_0_a3e5c4c766" x="87.75" y="119.229285" style="fill: none; stroke: #ff0000; stroke-width: 1.75"/>
    </g>
    <g clip-path="url(#p7cb093aa8a)">
     <use xlink:href="#C0_0_a3e5c4c766" x="66.825" y="130.99857" style="fill: none; stroke: #ff0000; stroke-width: 1.75"/>
    </g>
   </g>
   <g id="PathCollection_3">
    <path d="M 111.813064 86.238936 
C 111.945666 86.238936 112.072854 86.186253 112.166617 86.09249 
C 112.260381 85.998726 112.313064 85.871538 112.313064 85.738936 
C 112.313064 85.606335 112.260381 85.479146 112.166617 85.385383 
C 112.072854 85.29162 111.945666 85.238936 111.813064 85.238936 
C 111.680462 85.238936 111.553274 85.29162 111.459511 85.385383 
C 111.365747 85.479146 111.313064 85.606335 111.313064 85.738936 
C 111.313064 85.871538 111.365747 85.998726 111.459511 86.09249 
C 111.553274 86.186253 111.680462 86.238936 111.813064 86.238936 
z
" clip-path="url(#p7cb093aa8a)" style="stroke: #000000"/>
    <path d="M 103.779794 76.363881 
C 103.912395 76.363881 104.039584 76.311198 104.133347 76.217434 
C 104.227111 76.123671 104.279794 75.996482 104.279794 75.863881 
C 104.279794 75.731279 104.227111 75.604091 104.133347 75.510327 
C 104.039584 75.416564 103.912395 75.363881 103.779794 75.363881 
C 103.647192 75.363881 103.520004 75.416564 103.42624 75.510327 
C 103.332477 75.604091 103.279794 75.731279 103.279794 75.863881 
C 103.279794 75.996482 103.332477 76.123671 103.42624 76.217434 
C 103.520004 76.311198 103.647192 76.363881 103.779794 76.363881 
z
" clip-path="url(#p7cb093aa8a)" style="stroke: #000000"/>
    <path d="M 85.414451 33.670663 
C 85.547053 33.670663 85.674241 33.61798 85.768005 33.524217 
C 85.861768 33.430453 85.914451 33.303265 85.914451 33.170663 
C 85.914451 33.038062 85.861768 32.910873 85.768005 32.81711 
C 85.674241 32.723347 85.547053 32.670663 85.414451 32.670663 
C 85.28185 32.670663 85.154661 32.723347 85.060898 32.81711 
C 84.967134 32.910873 84.914451 33.038062 84.914451 33.170663 
C 84.914451 33.303265 84.967134 33.430453 85.060898 33.524217 
C 85.154661 33.61798 85.28185 33.670663 85.414451 33.670663 
z
" clip-path="url(#p7cb093aa8a)" style="stroke: #000000"/>
    <path d="M 96.767834 88.258086 
C 96.900436 88.258086 97.027624 88.205402 97.121388 88.111639 
C 97.215151 88.017876 97.267834 87.890687 97.267834 87.758086 
C 97.267834 87.625484 97.215151 87.498296 97.121388 87.404532 
C 97.027624 87.310769 96.900436 87.258086 96.767834 87.258086 
C 96.635233 87.258086 96.508044 87.310769 96.414281 87.404532 
C 96.320517 87.498296 96.267834 87.625484 96.267834 87.758086 
C 96.267834 87.890687 96.320517 88.017876 96.414281 88.111639 
C 96.508044 88.205402 96.635233 88.258086 96.767834 88.258086 
z
" clip-path="url(#p7cb093aa8a)" style="stroke: #000000"/>
    <path d="M 99.687814 111.891386 
C 100.225825 111.891386 100.741872 111.677632 101.122303 111.297201 
C 101.502734 110.91677 101.716488 110.400723 101.716488 109.862712 
C 101.716488 109.324701 101.502734 108.808653 101.122303 108.428222 
C 100.741872 108.047791 100.225825 107.834038 99.687814 107.834038 
C 99.149803 107.834038 98.633756 108.047791 98.253325 108.428222 
C 97.872894 108.808653 97.65914 109.324701 97.65914 109.862712 
C 97.65914 110.400723 97.872894 110.91677 98.253325 111.297201 
C 98.633756 111.677632 99.149803 111.891386 99.687814 111.891386 
z
" clip-path="url(#p7cb093aa8a)" style="stroke: #000000"/>
    <path d="M 93.1811 94.802023 
C 93.71911 94.802023 94.235158 94.588269 94.615589 94.207838 
C 94.99602 93.827407 95.209774 93.31136 95.209774 92.773349 
C 95.209774 92.235338 94.99602 91.719291 94.615589 91.33886 
C 94.235158 90.958428 93.71911 90.744675 93.1811 90.744675 
C 92.643089 90.744675 92.127041 90.958428 91.74661 91.33886 
C 91.366179 91.719291 91.152425 92.235338 91.152425 92.773349 
C 91.152425 93.31136 91.366179 93.827407 91.74661 94.207838 
C 92.127041 94.588269 92.643089 94.802023 93.1811 94.802023 
z
" clip-path="url(#p7cb093aa8a)" style="stroke: #000000"/>
    <path d="M 97.256611 113.211032 
C 97.803813 113.211032 98.328678 112.993626 98.715608 112.606695 
C 99.102539 112.219764 99.319945 111.6949 99.319945 111.147698 
C 99.319945 110.600495 99.102539 110.075631 98.715608 109.6887 
C 98.328678 109.30177 97.803813 109.084364 97.256611 109.084364 
C 96.709408 109.084364 96.184544 109.30177 95.797614 109.6887 
C 95.410683 110.075631 95.193277 110.600495 95.193277 111.147698 
C 95.193277 111.6949 95.410683 112.219764 95.797614 112.606695 
C 96.184544 112.993626 96.709408 113.211032 97.256611 113.211032 
z
" clip-path="url(#p7cb093aa8a)" style="stroke: #000000"/>
    <path d="M 97.191318 108.603475 
C 97.728334 108.603475 98.243426 108.390116 98.623154 108.010389 
C 99.002881 107.630662 99.216239 107.115569 99.216239 106.578554 
C 99.216239 106.041539 99.002881 105.526446 98.623154 105.146719 
C 98.243426 104.766991 97.728334 104.553633 97.191318 104.553633 
C 96.654303 104.553633 96.13921 104.766991 95.759483 105.146719 
C 95.379756 105.526446 95.166397 106.041539 95.166397 106.578554 
C 95.166397 107.115569 95.379756 107.630662 95.759483 108.010389 
C 96.13921 108.390116 96.654303 108.603475 97.191318 108.603475 
z
" clip-path="url(#p7cb093aa8a)" style="stroke: #000000"/>
    <path d="M 84.589393 83.415527 
C 85.182406 83.415527 85.751209 83.17992 86.170532 82.760598 
C 86.589855 82.341275 86.825461 81.772471 86.825461 81.179459 
C 86.825461 80.586447 86.589855 80.017643 86.170532 79.59832 
C 85.751209 79.178997 85.182406 78.943391 84.589393 78.943391 
C 83.996381 78.943391 83.427578 79.178997 83.008255 79.59832 
C 82.588932 80.017643 82.353325 80.586447 82.353325 81.179459 
C 82.353325 81.772471 82.588932 82.341275 83.008255 82.760598 
C 83.427578 83.17992 83.996381 83.415527 84.589393 83.415527 
z
" clip-path="url(#p7cb093aa8a)" style="stroke: #000000"/>
    <path d="M 80.865072 73.401964 
C 80.997674 73.401964 81.124862 73.349281 81.218626 73.255517 
C 81.312389 73.161754 81.365072 73.034566 81.365072 72.901964 
C 81.365072 72.769363 81.312389 72.642174 81.218626 72.548411 
C 81.124862 72.454647 80.997674 72.401964 80.865072 72.401964 
C 80.732471 72.401964 80.605282 72.454647 80.511519 72.548411 
C 80.417755 72.642174 80.365072 72.769363 80.365072 72.901964 
C 80.365072 73.034566 80.417755 73.161754 80.511519 73.255517 
C 80.605282 73.349281 80.732471 73.401964 80.865072 73.401964 
z
" clip-path="url(#p7cb093aa8a)" style="stroke: #000000"/>
    <path d="M 100.66079 138.076771 
C 100.793392 138.076771 100.92058 138.024088 101.014344 137.930325 
C 101.108107 137.836561 101.16079 137.709373 101.16079 137.576771 
C 101.16079 137.44417 101.108107 137.316982 101.014344 137.223218 
C 100.92058 137.129455 100.793392 137.076771 100.66079 137.076771 
C 100.528189 137.076771 100.401 137.129455 100.307237 137.223218 
C 100.213473 137.316982 100.16079 137.44417 100.16079 137.576771 
C 100.16079 137.709373 100.213473 137.836561 100.307237 137.930325 
C 100.401 138.024088 100.528189 138.076771 100.66079 138.076771 
z
" clip-path="url(#p7cb093aa8a)" style="stroke: #000000"/>
    <path d="M 94.778805 118.203603 
C 94.953319 118.203603 95.120708 118.134268 95.244108 118.010869 
C 95.367508 117.887469 95.436843 117.72008 95.436843 117.545566 
C 95.436843 117.371053 95.367508 117.203663 95.244108 117.080264 
C 95.120708 116.956864 94.953319 116.887529 94.778805 116.887529 
C 94.604292 116.887529 94.436903 116.956864 94.313503 117.080264 
C 94.190103 117.203663 94.120768 117.371053 94.120768 117.545566 
C 94.120768 117.72008 94.190103 117.887469 94.313503 118.010869 
C 94.436903 118.134268 94.604292 118.203603 94.778805 118.203603 
z
" clip-path="url(#p7cb093aa8a)" style="stroke: #000000"/>
    <path d="M 87.905811 103.919369 
C 88.218699 103.919369 88.518815 103.795058 88.74006 103.573812 
C 88.961305 103.352567 89.085617 103.052452 89.085617 102.739564 
C 89.085617 102.426676 88.961305 102.126561 88.74006 101.905315 
C 88.518815 101.68407 88.218699 101.559758 87.905811 101.559758 
C 87.592923 101.559758 87.292808 101.68407 87.071563 101.905315 
C 86.850318 102.126561 86.726006 102.426676 86.726006 102.739564 
C 86.726006 103.052452 86.850318 103.352567 87.071563 103.573812 
C 87.292808 103.795058 87.592923 103.919369 87.905811 103.919369 
z
" clip-path="url(#p7cb093aa8a)" style="stroke: #000000"/>
    <path d="M 87.233738 99.234833 
C 87.608792 99.234833 87.968535 99.085823 88.233738 98.82062 
C 88.498941 98.555417 88.647952 98.195674 88.647952 97.82062 
C 88.647952 97.445566 88.498941 97.085823 88.233738 96.82062 
C 87.968535 96.555417 87.608792 96.406406 87.233738 96.406406 
C 86.858684 96.406406 86.498941 96.555417 86.233738 96.82062 
C 85.968535 97.085823 85.819525 97.445566 85.819525 97.82062 
C 85.819525 98.195674 85.968535 98.555417 86.233738 98.82062 
C 86.498941 99.085823 86.858684 99.234833 87.233738 99.234833 
z
" clip-path="url(#p7cb093aa8a)" style="stroke: #000000"/>
    <path d="M 86.626904 99.335929 
C 87.332119 99.335929 88.008544 99.055745 88.507206 98.557083 
C 89.005868 98.058421 89.286052 97.381996 89.286052 96.676781 
C 89.286052 95.971567 89.005868 95.295142 88.507206 94.79648 
C 88.008544 94.297818 87.332119 94.017633 86.626904 94.017633 
C 85.92169 94.017633 85.245264 94.297818 84.746603 94.79648 
C 84.247941 95.295142 83.967756 95.971567 83.967756 96.676781 
C 83.967756 97.381996 84.247941 98.058421 84.746603 98.557083 
C 85.245264 99.055745 85.92169 99.335929 86.626904 99.335929 
z
" clip-path="url(#p7cb093aa8a)" style="stroke: #000000"/>
    <path d="M 85.642234 93.254535 
C 85.989429 93.254535 86.32245 93.116593 86.567954 92.871089 
C 86.813457 92.625585 86.951399 92.292564 86.951399 91.945369 
C 86.951399 91.598175 86.813457 91.265154 86.567954 91.01965 
C 86.32245 90.774146 85.989429 90.636204 85.642234 90.636204 
C 85.295039 90.636204 84.962018 90.774146 84.716514 91.01965 
C 84.471011 91.265154 84.333069 91.598175 84.333069 91.945369 
C 84.333069 92.292564 84.471011 92.625585 84.716514 92.871089 
C 84.962018 93.116593 85.295039 93.254535 85.642234 93.254535 
z
" clip-path="url(#p7cb093aa8a)" style="stroke: #000000"/>
    <path d="M 84.055606 88.864121 
C 84.648989 88.864121 85.218148 88.628367 85.637732 88.208782 
C 86.057317 87.789198 86.29307 87.220039 86.29307 86.626656 
C 86.29307 86.033274 86.057317 85.464115 85.637732 85.04453 
C 85.218148 84.624945 84.648989 84.389192 84.055606 84.389192 
C 83.462224 84.389192 82.893065 84.624945 82.47348 85.04453 
C 82.053895 85.464115 81.818142 86.033274 81.818142 86.626656 
C 81.818142 87.220039 82.053895 87.789198 82.47348 88.208782 
C 82.893065 88.628367 83.462224 88.864121 84.055606 88.864121 
z
" clip-path="url(#p7cb093aa8a)" style="stroke: #000000"/>
    <path d="M 79.900419 84.280213 
C 80.437434 84.280213 80.952527 84.066855 81.332254 83.687127 
C 81.711982 83.3074 81.92534 82.792307 81.92534 82.255292 
C 81.92534 81.718277 81.711982 81.203184 81.332254 80.823457 
C 80.952527 80.44373 80.437434 80.230371 79.900419 80.230371 
C 79.363404 80.230371 78.848311 80.44373 78.468584 80.823457 
C 78.088857 81.203184 77.875498 81.718277 77.875498 82.255292 
C 77.875498 82.792307 78.088857 83.3074 78.468584 83.687127 
C 78.848311 84.066855 79.363404 84.280213 79.900419 84.280213 
z
" clip-path="url(#p7cb093aa8a)" style="stroke: #000000"/>
    <path d="M 90.696373 123.090694 
C 91.227297 123.090694 91.736547 122.879756 92.111966 122.504336 
C 92.487386 122.128917 92.698324 121.619667 92.698324 121.088744 
C 92.698324 120.55782 92.487386 120.048571 92.111966 119.673151 
C 91.736547 119.297732 91.227297 119.086794 90.696373 119.086794 
C 90.16545 119.086794 89.6562 119.297732 89.280781 119.673151 
C 88.905361 120.048571 88.694423 120.55782 88.694423 121.088744 
C 88.694423 121.619667 88.905361 122.128917 89.280781 122.504336 
C 89.6562 122.879756 90.16545 123.090694 90.696373 123.090694 
z
" clip-path="url(#p7cb093aa8a)" style="stroke: #000000"/>
    <path d="M 89.118696 121.943716 
C 89.706069 121.943716 90.269463 121.71035 90.684799 121.295015 
C 91.100134 120.87968 91.3335 120.316285 91.3335 119.728913 
C 91.3335 119.14154 91.100134 118.578145 90.684799 118.16281 
C 90.269463 117.747475 89.706069 117.514109 89.118696 117.514109 
C 88.531323 117.514109 87.967929 117.747475 87.552594 118.16281 
C 87.137258 118.578145 86.903893 119.14154 86.903893 119.728913 
C 86.903893 120.316285 87.137258 120.87968 87.552594 121.295015 
C 87.967929 121.71035 88.531323 121.943716 89.118696 121.943716 
z
" clip-path="url(#p7cb093aa8a)" style="stroke: #000000"/>
    <path d="M 83.556733 108.953255 
C 84.106279 108.953255 84.633391 108.734918 85.021979 108.34633 
C 85.410566 107.957742 85.628903 107.43063 85.628903 106.881084 
C 85.628903 106.331538 85.410566 105.804426 85.021979 105.415838 
C 84.633391 105.027251 84.106279 104.808914 83.556733 104.808914 
C 83.007187 104.808914 82.480075 105.027251 82.091487 105.415838 
C 81.702899 105.804426 81.484562 106.331538 81.484562 106.881084 
C 81.484562 107.43063 81.702899 107.957742 82.091487 108.34633 
C 82.480075 108.734918 83.007187 108.953255 83.556733 108.953255 
z
" clip-path="url(#p7cb093aa8a)" style="stroke: #000000"/>
    <path d="M 85.529713 107.24848 
C 85.976599 107.24848 86.405241 107.070931 86.721236 106.754935 
C 87.037232 106.43894 87.214781 106.010297 87.214781 105.563412 
C 87.214781 105.116527 87.037232 104.687885 86.721236 104.371889 
C 86.405241 104.055894 85.976599 103.878344 85.529713 103.878344 
C 85.082828 103.878344 84.654186 104.055894 84.33819 104.371889 
C 84.022195 104.687885 83.844645 105.116527 83.844645 105.563412 
C 83.844645 106.010297 84.022195 106.43894 84.33819 106.754935 
C 84.654186 107.070931 85.082828 107.24848 85.529713 107.24848 
z
" clip-path="url(#p7cb093aa8a)" style="stroke: #000000"/>
    <path d="M 84.029454 100.648686 
C 84.162055 100.648686 84.289244 100.596002 84.383007 100.502239 
C 84.476771 100.408476 84.529454 100.281287 84.529454 100.148686 
C 84.529454 100.016084 84.476771 99.888896 84.383007 99.795132 
C 84.289244 99.701369 84.162055 99.648686 84.029454 99.648686 
C 83.896852 99.648686 83.769664 99.701369 83.675901 99.795132 
C 83.582137 99.888896 83.529454 100.016084 83.529454 100.148686 
C 83.529454 100.281287 83.582137 100.408476 83.675901 100.502239 
C 83.769664 100.596002 83.896852 100.648686 84.029454 100.648686 
z
" clip-path="url(#p7cb093aa8a)" style="stroke: #000000"/>
    <path d="M 79.542558 92.305987 
C 79.811811 92.305987 80.070072 92.199012 80.260463 92.008621 
C 80.450854 91.818231 80.557829 91.559969 80.557829 91.290716 
C 80.557829 91.021463 80.450854 90.763201 80.260463 90.57281 
C 80.070072 90.38242 79.811811 90.275444 79.542558 90.275444 
C 79.273305 90.275444 79.015043 90.38242 78.824652 90.57281 
C 78.634262 90.763201 78.527286 91.021463 78.527286 91.290716 
C 78.527286 91.559969 78.634262 91.818231 78.824652 92.008621 
C 79.015043 92.199012 79.273305 92.305987 79.542558 92.305987 
z
" clip-path="url(#p7cb093aa8a)" style="stroke: #000000"/>
    <path d="M 78.307913 91.383568 
C 78.69683 91.383568 79.06987 91.229049 79.344876 90.954044 
C 79.619881 90.679038 79.774399 90.305998 79.774399 89.917081 
C 79.774399 89.528165 79.619881 89.155125 79.344876 88.880119 
C 79.06987 88.605114 78.69683 88.450595 78.307913 88.450595 
C 77.918997 88.450595 77.545957 88.605114 77.270951 88.880119 
C 76.995945 89.155125 76.841427 89.528165 76.841427 89.917081 
C 76.841427 90.305998 76.995945 90.679038 77.270951 90.954044 
C 77.545957 91.229049 77.918997 91.383568 78.307913 91.383568 
z
" clip-path="url(#p7cb093aa8a)" style="stroke: #000000"/>
    <path d="M 77.465517 86.402719 
C 78.032813 86.402719 78.576951 86.17733 78.97809 85.776191 
C 79.379229 85.375052 79.604618 84.830915 79.604618 84.263619 
C 79.604618 83.696323 79.379229 83.152185 78.97809 82.751046 
C 78.576951 82.349907 78.032813 82.124518 77.465517 82.124518 
C 76.898221 82.124518 76.354084 82.349907 75.952945 82.751046 
C 75.551806 83.152185 75.326417 83.696323 75.326417 84.263619 
C 75.326417 84.830915 75.551806 85.375052 75.952945 85.776191 
C 76.354084 86.17733 76.898221 86.402719 77.465517 86.402719 
z
" clip-path="url(#p7cb093aa8a)" style="stroke: #000000"/>
    <path d="M 87.413411 130.659557 
C 87.958239 130.659557 88.480827 130.443095 88.866078 130.057843 
C 89.25133 129.672591 89.467793 129.150004 89.467793 128.605175 
C 89.467793 128.060347 89.25133 127.53776 88.866078 127.152508 
C 88.480827 126.767256 87.958239 126.550793 87.413411 126.550793 
C 86.868582 126.550793 86.345995 126.767256 85.960743 127.152508 
C 85.575492 127.53776 85.359029 128.060347 85.359029 128.605175 
C 85.359029 129.150004 85.575492 129.672591 85.960743 130.057843 
C 86.345995 130.443095 86.868582 130.659557 87.413411 130.659557 
z
" clip-path="url(#p7cb093aa8a)" style="stroke: #000000"/>
    <path d="M 83.447488 116.387028 
C 83.903609 116.387028 84.341111 116.205809 84.663637 115.883283 
C 84.986164 115.560756 85.167383 115.123255 85.167383 114.667133 
C 85.167383 114.211011 84.986164 113.77351 84.663637 113.450983 
C 84.341111 113.128457 83.903609 112.947238 83.447488 112.947238 
C 82.991366 112.947238 82.553865 113.128457 82.231338 113.450983 
C 81.908811 113.77351 81.727592 114.211011 81.727592 114.667133 
C 81.727592 115.123255 81.908811 115.560756 82.231338 115.883283 
C 82.553865 116.205809 82.991366 116.387028 83.447488 116.387028 
z
" clip-path="url(#p7cb093aa8a)" style="stroke: #000000"/>
    <path d="M 82.296976 113.065306 
C 82.429577 113.065306 82.556766 113.012623 82.650529 112.918859 
C 82.744293 112.825096 82.796976 112.697907 82.796976 112.565306 
C 82.796976 112.432704 82.744293 112.305516 82.650529 112.211752 
C 82.556766 112.117989 82.429577 112.065306 82.296976 112.065306 
C 82.164374 112.065306 82.037186 112.117989 81.943423 112.211752 
C 81.849659 112.305516 81.796976 112.432704 81.796976 112.565306 
C 81.796976 112.697907 81.849659 112.825096 81.943423 112.918859 
C 82.037186 113.012623 82.164374 113.065306 82.296976 113.065306 
z
" clip-path="url(#p7cb093aa8a)" style="stroke: #000000"/>
    <path d="M 81.046078 109.856561 
C 81.593281 109.856561 82.118145 109.639155 82.505075 109.252224 
C 82.892006 108.865293 83.109412 108.340429 83.109412 107.793227 
C 83.109412 107.246024 82.892006 106.72116 82.505075 106.334229 
C 82.118145 105.947299 81.593281 105.729893 81.046078 105.729893 
C 80.498875 105.729893 79.974011 105.947299 79.587081 106.334229 
C 79.20015 106.72116 78.982744 107.246024 78.982744 107.793227 
C 78.982744 108.340429 79.20015 108.865293 79.587081 109.252224 
C 79.974011 109.639155 80.498875 109.856561 81.046078 109.856561 
z
" clip-path="url(#p7cb093aa8a)" style="stroke: #000000"/>
    <path d="M 79.141103 105.526994 
C 79.621312 105.526994 80.081918 105.336205 80.421478 104.996646 
C 80.761037 104.657087 80.951826 104.196481 80.951826 103.716271 
C 80.951826 103.236062 80.761037 102.775456 80.421478 102.435896 
C 80.081918 102.096337 79.621312 101.905548 79.141103 101.905548 
C 78.660894 101.905548 78.200288 102.096337 77.860728 102.435896 
C 77.521169 102.775456 77.33038 103.236062 77.33038 103.716271 
C 77.33038 104.196481 77.521169 104.657087 77.860728 104.996646 
C 78.200288 105.336205 78.660894 105.526994 79.141103 105.526994 
z
" clip-path="url(#p7cb093aa8a)" style="stroke: #000000"/>
    <path d="M 78.447103 97.575239 
C 78.654635 97.575239 78.853696 97.492785 79.000444 97.346037 
C 79.147191 97.19929 79.229645 97.000229 79.229645 96.792696 
C 79.229645 96.585164 79.147191 96.386103 79.000444 96.239355 
C 78.853696 96.092608 78.654635 96.010154 78.447103 96.010154 
C 78.23957 96.010154 78.040509 96.092608 77.893762 96.239355 
C 77.747014 96.386103 77.66456 96.585164 77.66456 96.792696 
C 77.66456 97.000229 77.747014 97.19929 77.893762 97.346037 
C 78.040509 97.492785 78.23957 97.575239 78.447103 97.575239 
z
" clip-path="url(#p7cb093aa8a)" style="stroke: #000000"/>
    <path d="M 75.732323 95.201457 
C 76.437537 95.201457 77.113963 94.921273 77.612625 94.422611 
C 78.111287 93.923949 78.391471 93.247524 78.391471 92.542309 
C 78.391471 91.837095 78.111287 91.16067 77.612625 90.662008 
C 77.113963 90.163346 76.437537 89.883161 75.732323 89.883161 
C 75.027109 89.883161 74.350683 90.163346 73.852022 90.662008 
C 73.35336 91.16067 73.073175 91.837095 73.073175 92.542309 
C 73.073175 93.247524 73.35336 93.923949 73.852022 94.422611 
C 74.350683 94.921273 75.027109 95.201457 75.732323 95.201457 
z
" clip-path="url(#p7cb093aa8a)" style="stroke: #000000"/>
    <path d="M 74.021466 91.139497 
C 74.562431 91.139497 75.081311 90.92457 75.463831 90.54205 
C 75.84635 90.159531 76.061277 89.64065 76.061277 89.099686 
C 76.061277 88.558722 75.84635 88.039841 75.463831 87.657322 
C 75.081311 87.274802 74.562431 87.059875 74.021466 87.059875 
C 73.480502 87.059875 72.961622 87.274802 72.579102 87.657322 
C 72.196583 88.039841 71.981655 88.558722 71.981655 89.099686 
C 71.981655 89.64065 72.196583 90.159531 72.579102 90.54205 
C 72.961622 90.92457 73.480502 91.139497 74.021466 91.139497 
z
" clip-path="url(#p7cb093aa8a)" style="stroke: #000000"/>
    <path d="M 70.032717 73.270447 
C 70.165318 73.270447 70.292507 73.217764 70.38627 73.124 
C 70.480034 73.030237 70.532717 72.903048 70.532717 72.770447 
C 70.532717 72.637845 70.480034 72.510657 70.38627 72.416893 
C 70.292507 72.32313 70.165318 72.270447 70.032717 72.270447 
C 69.900115 72.270447 69.772927 72.32313 69.679163 72.416893 
C 69.5854 72.510657 69.532717 72.637845 69.532717 72.770447 
C 69.532717 72.903048 69.5854 73.030237 69.679163 73.124 
C 69.772927 73.217764 69.900115 73.270447 70.032717 73.270447 
z
" clip-path="url(#p7cb093aa8a)" style="stroke: #000000"/>
    <path d="M 83.690673 135.859238 
C 84.028241 135.859238 84.352028 135.725121 84.590724 135.486425 
C 84.829421 135.247728 84.963538 134.923941 84.963538 134.586373 
C 84.963538 134.248805 84.829421 133.925018 84.590724 133.686322 
C 84.352028 133.447625 84.028241 133.313508 83.690673 133.313508 
C 83.353105 133.313508 83.029318 133.447625 82.790621 133.686322 
C 82.551925 133.925018 82.417808 134.248805 82.417808 134.586373 
C 82.417808 134.923941 82.551925 135.247728 82.790621 135.486425 
C 83.029318 135.725121 83.353105 135.859238 83.690673 135.859238 
z
" clip-path="url(#p7cb093aa8a)" style="stroke: #000000"/>
    <path d="M 83.035356 133.969454 
C 83.74057 133.969454 84.416996 133.689269 84.915657 133.190607 
C 85.414319 132.691945 85.694504 132.01552 85.694504 131.310306 
C 85.694504 130.605091 85.414319 129.928666 84.915657 129.430004 
C 84.416996 128.931342 83.74057 128.651158 83.035356 128.651158 
C 82.330142 128.651158 81.653716 128.931342 81.155054 129.430004 
C 80.656393 129.928666 80.376208 130.605091 80.376208 131.310306 
C 80.376208 132.01552 80.656393 132.691945 81.155054 133.190607 
C 81.653716 133.689269 82.330142 133.969454 83.035356 133.969454 
z
" clip-path="url(#p7cb093aa8a)" style="stroke: #000000"/>
    <path d="M 72.355469 98.539936 
C 72.942077 98.539936 73.504738 98.306874 73.919533 97.892079 
C 74.334328 97.477284 74.56739 96.914623 74.56739 96.328014 
C 74.56739 95.741406 74.334328 95.178744 73.919533 94.763949 
C 73.504738 94.349155 72.942077 94.116093 72.355469 94.116093 
C 71.76886 94.116093 71.206199 94.349155 70.791404 94.763949 
C 70.376609 95.178744 70.143547 95.741406 70.143547 96.328014 
C 70.143547 96.914623 70.376609 97.477284 70.791404 97.892079 
C 71.206199 98.306874 71.76886 98.539936 72.355469 98.539936 
z
" clip-path="url(#p7cb093aa8a)" style="stroke: #000000"/>
    <path d="M 67.195076 88.979891 
C 67.740382 88.979891 68.263427 88.763239 68.649016 88.37765 
C 69.034605 87.99206 69.251258 87.469015 69.251258 86.92371 
C 69.251258 86.378404 69.034605 85.855359 68.649016 85.469769 
C 68.263427 85.08418 67.740382 84.867528 67.195076 84.867528 
C 66.64977 84.867528 66.126725 85.08418 65.741136 85.469769 
C 65.355546 85.855359 65.138894 86.378404 65.138894 86.92371 
C 65.138894 87.469015 65.355546 87.99206 65.741136 88.37765 
C 66.126725 88.763239 66.64977 88.979891 67.195076 88.979891 
z
" clip-path="url(#p7cb093aa8a)" style="stroke: #000000"/>
    <path d="M 67.181723 82.568816 
C 67.492056 82.568816 67.789721 82.445519 68.00916 82.22608 
C 68.228599 82.006641 68.351896 81.708976 68.351896 81.398643 
C 68.351896 81.088309 68.228599 80.790644 68.00916 80.571205 
C 67.789721 80.351766 67.492056 80.228469 67.181723 80.228469 
C 66.871389 80.228469 66.573724 80.351766 66.354285 80.571205 
C 66.134846 80.790644 66.011549 81.088309 66.011549 81.398643 
C 66.011549 81.708976 66.134846 82.006641 66.354285 82.22608 
C 66.573724 82.445519 66.871389 82.568816 67.181723 82.568816 
z
" clip-path="url(#p7cb093aa8a)" style="stroke: #000000"/>
    <path d="M 77.81169 136.939244 
C 77.944291 136.939244 78.07148 136.886561 78.165243 136.792797 
C 78.259007 136.699034 78.31169 136.571846 78.31169 136.439244 
C 78.31169 136.306642 78.259007 136.179454 78.165243 136.085691 
C 78.07148 135.991927 77.944291 135.939244 77.81169 135.939244 
C 77.679088 135.939244 77.5519 135.991927 77.458136 136.085691 
C 77.364373 136.179454 77.31169 136.306642 77.31169 136.439244 
C 77.31169 136.571846 77.364373 136.699034 77.458136 136.792797 
C 77.5519 136.886561 77.679088 136.939244 77.81169 136.939244 
z
" clip-path="url(#p7cb093aa8a)" style="stroke: #000000"/>
    <path d="M 78.822555 132.088989 
C 79.178636 132.088989 79.520182 131.947516 79.771969 131.695728 
C 80.023757 131.443941 80.16523 131.102395 80.16523 130.746314 
C 80.16523 130.390232 80.023757 130.048687 79.771969 129.796899 
C 79.520182 129.545112 79.178636 129.403639 78.822555 129.403639 
C 78.466473 129.403639 78.124928 129.545112 77.87314 129.796899 
C 77.621353 130.048687 77.47988 130.390232 77.47988 130.746314 
C 77.47988 131.102395 77.621353 131.443941 77.87314 131.695728 
C 78.124928 131.947516 78.466473 132.088989 78.822555 132.088989 
z
" clip-path="url(#p7cb093aa8a)" style="stroke: #000000"/>
    <path d="M 75.479588 124.183924 
C 75.968625 124.183924 76.437698 123.989627 76.783499 123.643826 
C 77.129301 123.298025 77.323597 122.828952 77.323597 122.339915 
C 77.323597 121.850878 77.129301 121.381805 76.783499 121.036004 
C 76.437698 120.690203 75.968625 120.495907 75.479588 120.495907 
C 74.990552 120.495907 74.521479 120.690203 74.175677 121.036004 
C 73.829876 121.381805 73.63558 121.850878 73.63558 122.339915 
C 73.63558 122.828952 73.829876 123.298025 74.175677 123.643826 
C 74.521479 123.989627 74.990552 124.183924 75.479588 124.183924 
z
" clip-path="url(#p7cb093aa8a)" style="stroke: #000000"/>
    <path d="M 73.568673 121.719971 
C 74.161685 121.719971 74.730489 121.484364 75.149812 121.065041 
C 75.569135 120.645719 75.804741 120.076915 75.804741 119.483903 
C 75.804741 118.89089 75.569135 118.322087 75.149812 117.902764 
C 74.730489 117.483441 74.161685 117.247835 73.568673 117.247835 
C 72.975661 117.247835 72.406857 117.483441 71.987534 117.902764 
C 71.568212 118.322087 71.332605 118.89089 71.332605 119.483903 
C 71.332605 120.076915 71.568212 120.645719 71.987534 121.065041 
C 72.406857 121.484364 72.975661 121.719971 73.568673 121.719971 
z
" clip-path="url(#p7cb093aa8a)" style="stroke: #000000"/>
    <path d="M 71.907802 112.084387 
C 72.279891 112.084387 72.63679 111.936555 72.899896 111.673448 
C 73.163003 111.410342 73.310835 111.053443 73.310835 110.681354 
C 73.310835 110.309265 73.163003 109.952366 72.899896 109.68926 
C 72.63679 109.426153 72.279891 109.278321 71.907802 109.278321 
C 71.535713 109.278321 71.178814 109.426153 70.915708 109.68926 
C 70.652601 109.952366 70.504769 110.309265 70.504769 110.681354 
C 70.504769 111.053443 70.652601 111.410342 70.915708 111.673448 
C 71.178814 111.936555 71.535713 112.084387 71.907802 112.084387 
z
" clip-path="url(#p7cb093aa8a)" style="stroke: #000000"/>
    <path d="M 69.692613 105.534891 
C 69.934102 105.534891 70.165732 105.438946 70.33649 105.268188 
C 70.507249 105.09743 70.603193 104.865799 70.603193 104.624311 
C 70.603193 104.382822 70.507249 104.151192 70.33649 103.980433 
C 70.165732 103.809675 69.934102 103.71373 69.692613 103.71373 
C 69.451124 103.71373 69.219494 103.809675 69.048736 103.980433 
C 68.877977 104.151192 68.782033 104.382822 68.782033 104.624311 
C 68.782033 104.865799 68.877977 105.09743 69.048736 105.268188 
C 69.219494 105.438946 69.451124 105.534891 69.692613 105.534891 
z
" clip-path="url(#p7cb093aa8a)" style="stroke: #000000"/>
    <path d="M 65.304605 94.517572 
C 65.591785 94.517572 65.867242 94.403474 66.070309 94.200407 
C 66.273376 93.99734 66.387474 93.721884 66.387474 93.434704 
C 66.387474 93.147524 66.273376 92.872067 66.070309 92.669 
C 65.867242 92.465933 65.591785 92.351835 65.304605 92.351835 
C 65.017425 92.351835 64.741969 92.465933 64.538902 92.669 
C 64.335835 92.872067 64.221737 93.147524 64.221737 93.434704 
C 64.221737 93.721884 64.335835 93.99734 64.538902 94.200407 
C 64.741969 94.403474 65.017425 94.517572 65.304605 94.517572 
z
" clip-path="url(#p7cb093aa8a)" style="stroke: #000000"/>
    <path d="M 64.183691 89.544414 
C 64.708305 89.544414 65.211503 89.335983 65.582461 88.965024 
C 65.95342 88.594066 66.161851 88.090868 66.161851 87.566254 
C 66.161851 87.041639 65.95342 86.538441 65.582461 86.167483 
C 65.211503 85.796525 64.708305 85.588093 64.183691 85.588093 
C 63.659076 85.588093 63.155878 85.796525 62.78492 86.167483 
C 62.413962 86.538441 62.20553 87.041639 62.20553 87.566254 
C 62.20553 88.090868 62.413962 88.594066 62.78492 88.965024 
C 63.155878 89.335983 63.659076 89.544414 64.183691 89.544414 
z
" clip-path="url(#p7cb093aa8a)" style="stroke: #000000"/>
    <path d="M 61.490159 84.509429 
C 61.725961 84.509429 61.952138 84.415743 62.118876 84.249006 
C 62.285613 84.082268 62.379299 83.856092 62.379299 83.620289 
C 62.379299 83.384487 62.285613 83.15831 62.118876 82.991572 
C 61.952138 82.824835 61.725961 82.731149 61.490159 82.731149 
C 61.254356 82.731149 61.02818 82.824835 60.861442 82.991572 
C 60.694704 83.15831 60.601019 83.384487 60.601019 83.620289 
C 60.601019 83.856092 60.694704 84.082268 60.861442 84.249006 
C 61.02818 84.415743 61.254356 84.509429 61.490159 84.509429 
z
" clip-path="url(#p7cb093aa8a)" style="stroke: #000000"/>
    <path d="M 77.981863 139.413612 
C 78.197549 139.413612 78.404431 139.327919 78.556944 139.175406 
C 78.709458 139.022892 78.795151 138.81601 78.795151 138.600324 
C 78.795151 138.384637 78.709458 138.177756 78.556944 138.025242 
C 78.404431 137.872729 78.197549 137.787036 77.981863 137.787036 
C 77.766176 137.787036 77.559295 137.872729 77.406781 138.025242 
C 77.254268 138.177756 77.168575 138.384637 77.168575 138.600324 
C 77.168575 138.81601 77.254268 139.022892 77.406781 139.175406 
C 77.559295 139.327919 77.766176 139.413612 77.981863 139.413612 
z
" clip-path="url(#p7cb093aa8a)" style="stroke: #000000"/>
    <path d="M 70.898899 123.269631 
C 71.491911 123.269631 72.060715 123.034024 72.480038 122.614701 
C 72.899361 122.195378 73.134967 121.626575 73.134967 121.033563 
C 73.134967 120.44055 72.899361 119.871747 72.480038 119.452424 
C 72.060715 119.033101 71.491911 118.797495 70.898899 118.797495 
C 70.305887 118.797495 69.737083 119.033101 69.31776 119.452424 
C 68.898437 119.871747 68.662831 120.44055 68.662831 121.033563 
C 68.662831 121.626575 68.898437 122.195378 69.31776 122.614701 
C 69.737083 123.034024 70.305887 123.269631 70.898899 123.269631 
z
" clip-path="url(#p7cb093aa8a)" style="stroke: #000000"/>
    <path d="M 68.656966 119.032481 
C 69.155004 119.032481 69.63271 118.834609 69.984875 118.482443 
C 70.337041 118.130278 70.534913 117.652572 70.534913 117.154534 
C 70.534913 116.656497 70.337041 116.178791 69.984875 115.826625 
C 69.63271 115.47446 69.155004 115.276588 68.656966 115.276588 
C 68.158929 115.276588 67.681223 115.47446 67.329057 115.826625 
C 66.976892 116.178791 66.77902 116.656497 66.77902 117.154534 
C 66.77902 117.652572 66.976892 118.130278 67.329057 118.482443 
C 67.681223 118.834609 68.158929 119.032481 68.656966 119.032481 
z
" clip-path="url(#p7cb093aa8a)" style="stroke: #000000"/>
    <path d="M 66.752274 113.90441 
C 67.032692 113.90441 67.301662 113.792998 67.499948 113.594713 
C 67.698234 113.396427 67.809645 113.127457 67.809645 112.847038 
C 67.809645 112.56662 67.698234 112.29765 67.499948 112.099364 
C 67.301662 111.901078 67.032692 111.789667 66.752274 111.789667 
C 66.471855 111.789667 66.202885 111.901078 66.004599 112.099364 
C 65.806314 112.29765 65.694902 112.56662 65.694902 112.847038 
C 65.694902 113.127457 65.806314 113.396427 66.004599 113.594713 
C 66.202885 113.792998 66.471855 113.90441 66.752274 113.90441 
z
" clip-path="url(#p7cb093aa8a)" style="stroke: #000000"/>
    <path d="M 65.708227 111.522786 
C 66.413441 111.522786 67.089867 111.242602 67.588529 110.74394 
C 68.08719 110.245278 68.367375 109.568853 68.367375 108.863639 
C 68.367375 108.158424 68.08719 107.481999 67.588529 106.983337 
C 67.089867 106.484675 66.413441 106.204491 65.708227 106.204491 
C 65.003013 106.204491 64.326587 106.484675 63.827925 106.983337 
C 63.329264 107.481999 63.049079 108.158424 63.049079 108.863639 
C 63.049079 109.568853 63.329264 110.245278 63.827925 110.74394 
C 64.326587 111.242602 65.003013 111.522786 65.708227 111.522786 
z
" clip-path="url(#p7cb093aa8a)" style="stroke: #000000"/>
    <path d="M 62.209717 98.743868 
C 62.581806 98.743868 62.938705 98.596036 63.201811 98.332929 
C 63.464918 98.069823 63.61275 97.712924 63.61275 97.340835 
C 63.61275 96.968746 63.464918 96.611847 63.201811 96.348741 
C 62.938705 96.085634 62.581806 95.937802 62.209717 95.937802 
C 61.837628 95.937802 61.480729 96.085634 61.217623 96.348741 
C 60.954516 96.611847 60.806684 96.968746 60.806684 97.340835 
C 60.806684 97.712924 60.954516 98.069823 61.217623 98.332929 
C 61.480729 98.596036 61.837628 98.743868 62.209717 98.743868 
z
" clip-path="url(#p7cb093aa8a)" style="stroke: #000000"/>
    <path d="M 60.863287 93.718804 
C 61.07082 93.718804 61.26988 93.63635 61.416628 93.489602 
C 61.563376 93.342855 61.645829 93.143794 61.645829 92.936261 
C 61.645829 92.728729 61.563376 92.529668 61.416628 92.38292 
C 61.26988 92.236173 61.07082 92.153719 60.863287 92.153719 
C 60.655755 92.153719 60.456694 92.236173 60.309946 92.38292 
C 60.163198 92.529668 60.080745 92.728729 60.080745 92.936261 
C 60.080745 93.143794 60.163198 93.342855 60.309946 93.489602 
C 60.456694 93.63635 60.655755 93.718804 60.863287 93.718804 
z
" clip-path="url(#p7cb093aa8a)" style="stroke: #000000"/>
    <path d="M 69.966288 136.761692 
C 70.352549 136.761692 70.723043 136.608229 70.996171 136.335101 
C 71.2693 136.061972 71.422763 135.691479 71.422763 135.305217 
C 71.422763 134.918955 71.2693 134.548462 70.996171 134.275334 
C 70.723043 134.002205 70.352549 133.848742 69.966288 133.848742 
C 69.580026 133.848742 69.209532 134.002205 68.936404 134.275334 
C 68.663276 134.548462 68.509812 134.918955 68.509812 135.305217 
C 68.509812 135.691479 68.663276 136.061972 68.936404 136.335101 
C 69.209532 136.608229 69.580026 136.761692 69.966288 136.761692 
z
" clip-path="url(#p7cb093aa8a)" style="stroke: #000000"/>
    <path d="M 68.337026 132.575685 
C 68.881376 132.575685 69.403504 132.359412 69.788418 131.974498 
C 70.173331 131.589585 70.389604 131.067457 70.389604 130.523107 
C 70.389604 129.978757 70.173331 129.456629 69.788418 129.071715 
C 69.403504 128.686802 68.881376 128.470529 68.337026 128.470529 
C 67.792676 128.470529 67.270548 128.686802 66.885635 129.071715 
C 66.500721 129.456629 66.284449 129.978757 66.284449 130.523107 
C 66.284449 131.067457 66.500721 131.589585 66.885635 131.974498 
C 67.270548 132.359412 67.792676 132.575685 68.337026 132.575685 
z
" clip-path="url(#p7cb093aa8a)" style="stroke: #000000"/>
    <path d="M 67.291084 127.916623 
C 67.423686 127.916623 67.550874 127.863939 67.644638 127.770176 
C 67.738401 127.676412 67.791084 127.549224 67.791084 127.416623 
C 67.791084 127.284021 67.738401 127.156833 67.644638 127.063069 
C 67.550874 126.969306 67.423686 126.916623 67.291084 126.916623 
C 67.158483 126.916623 67.031294 126.969306 66.937531 127.063069 
C 66.843768 127.156833 66.791084 127.284021 66.791084 127.416623 
C 66.791084 127.549224 66.843768 127.676412 66.937531 127.770176 
C 67.031294 127.863939 67.158483 127.916623 67.291084 127.916623 
z
" clip-path="url(#p7cb093aa8a)" style="stroke: #000000"/>
    <path d="M 66.061208 123.47887 
C 66.493541 123.47887 66.908225 123.307103 67.21393 123.001397 
C 67.519636 122.695692 67.691403 122.281008 67.691403 121.848675 
C 67.691403 121.416342 67.519636 121.001659 67.21393 120.695953 
C 66.908225 120.390248 66.493541 120.21848 66.061208 120.21848 
C 65.628875 120.21848 65.214192 120.390248 64.908486 120.695953 
C 64.602781 121.001659 64.431013 121.416342 64.431013 121.848675 
C 64.431013 122.281008 64.602781 122.695692 64.908486 123.001397 
C 65.214192 123.307103 65.628875 123.47887 66.061208 123.47887 
z
" clip-path="url(#p7cb093aa8a)" style="stroke: #000000"/>
    <path d="M 56.819441 100.678419 
C 57.356955 100.678419 57.872526 100.464863 58.252605 100.084783 
C 58.632685 99.704704 58.846241 99.189133 58.846241 98.651619 
C 58.846241 98.114105 58.632685 97.598535 58.252605 97.218455 
C 57.872526 96.838375 57.356955 96.624819 56.819441 96.624819 
C 56.281928 96.624819 55.766357 96.838375 55.386277 97.218455 
C 55.006197 97.598535 54.792641 98.114105 54.792641 98.651619 
C 54.792641 99.189133 55.006197 99.704704 55.386277 100.084783 
C 55.766357 100.464863 56.281928 100.678419 56.819441 100.678419 
z
" clip-path="url(#p7cb093aa8a)" style="stroke: #000000"/>
    <path d="M 54.878053 96.460532 
C 55.076339 96.460532 55.26653 96.381753 55.406739 96.241544 
C 55.546948 96.101335 55.625728 95.911144 55.625728 95.712858 
C 55.625728 95.514573 55.546948 95.324382 55.406739 95.184172 
C 55.26653 95.043963 55.076339 94.965184 54.878053 94.965184 
C 54.679768 94.965184 54.489577 95.043963 54.349368 95.184172 
C 54.209158 95.324382 54.130379 95.514573 54.130379 95.712858 
C 54.130379 95.911144 54.209158 96.101335 54.349368 96.241544 
C 54.489577 96.381753 54.679768 96.460532 54.878053 96.460532 
z
" clip-path="url(#p7cb093aa8a)" style="stroke: #000000"/>
    <path d="M 64.885574 136.231834 
C 65.018175 136.231834 65.145364 136.179151 65.239127 136.085387 
C 65.33289 135.991624 65.385574 135.864435 65.385574 135.731834 
C 65.385574 135.599232 65.33289 135.472044 65.239127 135.37828 
C 65.145364 135.284517 65.018175 135.231834 64.885574 135.231834 
C 64.752972 135.231834 64.625784 135.284517 64.53202 135.37828 
C 64.438257 135.472044 64.385574 135.599232 64.385574 135.731834 
C 64.385574 135.864435 64.438257 135.991624 64.53202 136.085387 
C 64.625784 136.179151 64.752972 136.231834 64.885574 136.231834 
z
" clip-path="url(#p7cb093aa8a)" style="stroke: #000000"/>
    <path d="M 63.458647 134.127142 
C 64.049048 134.127142 64.615346 133.892574 65.032823 133.475097 
C 65.450299 133.057621 65.684867 132.491322 65.684867 131.900922 
C 65.684867 131.310521 65.450299 130.744223 65.032823 130.326746 
C 64.615346 129.90927 64.049048 129.674702 63.458647 129.674702 
C 62.868246 129.674702 62.301948 129.90927 61.884472 130.326746 
C 61.466995 130.744223 61.232427 131.310521 61.232427 131.900922 
C 61.232427 132.491322 61.466995 133.057621 61.884472 133.475097 
C 62.301948 133.892574 62.868246 134.127142 63.458647 134.127142 
z
" clip-path="url(#p7cb093aa8a)" style="stroke: #000000"/>
    <path d="M 59.009161 122.180155 
C 59.599936 122.180155 60.166595 121.945437 60.584337 121.527696 
C 61.002078 121.109954 61.236796 120.543296 61.236796 119.95252 
C 61.236796 119.361744 61.002078 118.795085 60.584337 118.377344 
C 60.166595 117.959602 59.599936 117.724885 59.009161 117.724885 
C 58.418385 117.724885 57.851726 117.959602 57.433985 118.377344 
C 57.016243 118.795085 56.781526 119.361744 56.781526 119.95252 
C 56.781526 120.543296 57.016243 121.109954 57.433985 121.527696 
C 57.851726 121.945437 58.418385 122.180155 59.009161 122.180155 
z
" clip-path="url(#p7cb093aa8a)" style="stroke: #000000"/>
    <path d="M 55.160214 112.408214 
C 55.655729 112.408214 56.131017 112.211344 56.481399 111.860962 
C 56.831781 111.510579 57.028652 111.035292 57.028652 110.539777 
C 57.028652 110.044261 56.831781 109.568974 56.481399 109.218592 
C 56.131017 108.868209 55.655729 108.671339 55.160214 108.671339 
C 54.664698 108.671339 54.189411 108.868209 53.839029 109.218592 
C 53.488646 109.568974 53.291776 110.044261 53.291776 110.539777 
C 53.291776 111.035292 53.488646 111.510579 53.839029 111.860962 
C 54.189411 112.211344 54.664698 112.408214 55.160214 112.408214 
z
" clip-path="url(#p7cb093aa8a)" style="stroke: #000000"/>
    <path d="M 53.962756 105.063482 
C 54.150283 105.063482 54.330155 104.988976 54.462756 104.856375 
C 54.595358 104.723773 54.669863 104.543902 54.669863 104.356375 
C 54.669863 104.168848 54.595358 103.988976 54.462756 103.856375 
C 54.330155 103.723773 54.150283 103.649268 53.962756 103.649268 
C 53.775229 103.649268 53.595358 103.723773 53.462756 103.856375 
C 53.330155 103.988976 53.255649 104.168848 53.255649 104.356375 
C 53.255649 104.543902 53.330155 104.723773 53.462756 104.856375 
C 53.595358 104.988976 53.775229 105.063482 53.962756 105.063482 
z
" clip-path="url(#p7cb093aa8a)" style="stroke: #000000"/>
    <path d="M 50.597712 93.409992 
C 50.730314 93.409992 50.857502 93.357309 50.951266 93.263545 
C 51.045029 93.169782 51.097712 93.042593 51.097712 92.909992 
C 51.097712 92.77739 51.045029 92.650202 50.951266 92.556438 
C 50.857502 92.462675 50.730314 92.409992 50.597712 92.409992 
C 50.465111 92.409992 50.337922 92.462675 50.244159 92.556438 
C 50.150395 92.650202 50.097712 92.77739 50.097712 92.909992 
C 50.097712 93.042593 50.150395 93.169782 50.244159 93.263545 
C 50.337922 93.357309 50.465111 93.409992 50.597712 93.409992 
z
" clip-path="url(#p7cb093aa8a)" style="stroke: #000000"/>
    <path d="M 73.395743 178.267191 
C 73.528344 178.267191 73.655533 178.214508 73.749296 178.120744 
C 73.84306 178.026981 73.895743 177.899793 73.895743 177.767191 
C 73.895743 177.63459 73.84306 177.507401 73.749296 177.413638 
C 73.655533 177.319874 73.528344 177.267191 73.395743 177.267191 
C 73.263141 177.267191 73.135953 177.319874 73.042189 177.413638 
C 72.948426 177.507401 72.895743 177.63459 72.895743 177.767191 
C 72.895743 177.899793 72.948426 178.026981 73.042189 178.120744 
C 73.135953 178.214508 73.263141 178.267191 73.395743 178.267191 
z
" clip-path="url(#p7cb093aa8a)" style="stroke: #000000"/>
    <path d="M 56.79715 125.392169 
C 57.043949 125.392169 57.280673 125.294115 57.455187 125.119601 
C 57.6297 124.945088 57.727754 124.708364 57.727754 124.461564 
C 57.727754 124.214765 57.6297 123.978041 57.455187 123.803527 
C 57.280673 123.629014 57.043949 123.530959 56.79715 123.530959 
C 56.55035 123.530959 56.313626 123.629014 56.139113 123.803527 
C 55.964599 123.978041 55.866545 124.214765 55.866545 124.461564 
C 55.866545 124.708364 55.964599 124.945088 56.139113 125.119601 
C 56.313626 125.294115 56.55035 125.392169 56.79715 125.392169 
z
" clip-path="url(#p7cb093aa8a)" style="stroke: #000000"/>
    <path d="M 55.300454 120.720936 
C 55.831893 120.720936 56.341637 120.509792 56.717421 120.134008 
C 57.093205 119.758224 57.304348 119.24848 57.304348 118.717041 
C 57.304348 118.185602 57.093205 117.675857 56.717421 117.300073 
C 56.341637 116.924289 55.831893 116.713146 55.300454 116.713146 
C 54.769014 116.713146 54.25927 116.924289 53.883486 117.300073 
C 53.507702 117.675857 53.296559 118.185602 53.296559 118.717041 
C 53.296559 119.24848 53.507702 119.758224 53.883486 120.134008 
C 54.25927 120.509792 54.769014 120.720936 55.300454 120.720936 
z
" clip-path="url(#p7cb093aa8a)" style="stroke: #000000"/>
    <path d="M 49.513311 109.021949 
C 50.104835 109.021949 50.672212 108.786934 51.090482 108.368663 
C 51.508753 107.950393 51.743768 107.383016 51.743768 106.791492 
C 51.743768 106.199968 51.508753 105.632592 51.090482 105.214321 
C 50.672212 104.79605 50.104835 104.561035 49.513311 104.561035 
C 48.921787 104.561035 48.354411 104.79605 47.93614 105.214321 
C 47.51787 105.632592 47.282855 106.199968 47.282855 106.791492 
C 47.282855 107.383016 47.51787 107.950393 47.93614 108.368663 
C 48.354411 108.786934 48.921787 109.021949 49.513311 109.021949 
z
" clip-path="url(#p7cb093aa8a)" style="stroke: #000000"/>
    <path d="M 48.152154 110.268574 
C 48.309845 110.268574 48.461098 110.205923 48.572602 110.094418 
C 48.684106 109.982914 48.746758 109.831661 48.746758 109.67397 
C 48.746758 109.516279 48.684106 109.365026 48.572602 109.253522 
C 48.461098 109.142018 48.309845 109.079367 48.152154 109.079367 
C 47.994463 109.079367 47.84321 109.142018 47.731706 109.253522 
C 47.620202 109.365026 47.55755 109.516279 47.55755 109.67397 
C 47.55755 109.831661 47.620202 109.982914 47.731706 110.094418 
C 47.84321 110.205923 47.994463 110.268574 48.152154 110.268574 
z
" clip-path="url(#p7cb093aa8a)" style="stroke: #000000"/>
    <path d="M 41.230308 110.589454 
C 41.362909 110.589454 41.490098 110.536771 41.583861 110.443008 
C 41.677625 110.349244 41.730308 110.222056 41.730308 110.089454 
C 41.730308 109.956853 41.677625 109.829664 41.583861 109.735901 
C 41.490098 109.642137 41.362909 109.589454 41.230308 109.589454 
C 41.097706 109.589454 40.970518 109.642137 40.876754 109.735901 
C 40.782991 109.829664 40.730308 109.956853 40.730308 110.089454 
C 40.730308 110.222056 40.782991 110.349244 40.876754 110.443008 
C 40.970518 110.536771 41.097706 110.589454 41.230308 110.589454 
z
" clip-path="url(#p7cb093aa8a)" style="stroke: #000000"/>
   </g>
   <g id="matplotlib.axis_1">
    <g id="xtick_1">
     <g id="line2d_1">
      <defs>
       <path id="mfbace0b8d9" d="M 0 0 
L 0 3.5 
" style="stroke: #000000; stroke-width: 0.8"/>
      </defs>
      <g>
       <use xlink:href="#mfbace0b8d9" x="18" y="189" style="stroke: #000000; stroke-width: 0.8"/>
      </g>
     </g>
     <g id="text_1">
      <!-- 10 -->
      <g transform="translate(7.447656 203.598437)scale(0.1 -0.1)">
       <defs>
        <path id="DejaVuSans-2212" d="M 678 2272 
L 4684 2272 
L 4684 1741 
L 678 1741 
L 678 2272 
z
" transform="scale(0.015625)"/>
        <path id="DejaVuSans-31" d="M 794 531 
L 1825 531 
L 1825 4091 
L 703 3866 
L 703 4441 
L 1819 4666 
L 2450 4666 
L 2450 531 
L 3481 531 
L 3481 0 
L 794 0 
L 794 531 
z
" transform="scale(0.015625)"/>
        <path id="DejaVuSans-30" d="M 2034 4250 
Q 1547 4250 1301 3770 
Q 1056 3291 1056 2328 
Q 1056 1369 1301 889 
Q 1547 409 2034 409 
Q 2525 409 2770 889 
Q 3016 1369 3016 2328 
Q 3016 3291 2770 3770 
Q 2525 4250 2034 4250 
z
M 2034 4750 
Q 2819 4750 3233 4129 
Q 3647 3509 3647 2328 
Q 3647 1150 3233 529 
Q 2819 -91 2034 -91 
Q 1250 -91 836 529 
Q 422 1150 422 2328 
Q 422 3509 836 4129 
Q 1250 4750 2034 4750 
z
" transform="scale(0.015625)"/>
       </defs>
       <use xlink:href="#DejaVuSans-2212"/>
       <use xlink:href="#DejaVuSans-31" x="83.789062"/>
       <use xlink:href="#DejaVuSans-30" x="147.412109"/>
      </g>
     </g>
    </g>
    <g id="xtick_2">
     <g id="line2d_2">
      <g>
       <use xlink:href="#mfbace0b8d9" x="73.8" y="189" style="stroke: #000000; stroke-width: 0.8"/>
      </g>
     </g>
     <g id="text_2">
      <!-- 0 -->
      <g transform="translate(70.61875 203.598437)scale(0.1 -0.1)">
       <use xlink:href="#DejaVuSans-30"/>
      </g>
     </g>
    </g>
    <g id="xtick_3">
     <g id="line2d_3">
      <g>
       <use xlink:href="#mfbace0b8d9" x="129.6" y="189" style="stroke: #000000; stroke-width: 0.8"/>
      </g>
     </g>
     <g id="text_3">
      <!-- 10 -->
      <g transform="translate(123.2375 203.598437)scale(0.1 -0.1)">
       <use xlink:href="#DejaVuSans-31"/>
       <use xlink:href="#DejaVuSans-30" x="63.623047"/>
      </g>
     </g>
    </g>
   </g>
   <g id="matplotlib.axis_2">
    <g id="ytick_1">
     <g id="line2d_4">
      <defs>
       <path id="md46296457c" d="M 0 0 
L -3.5 0 
" style="stroke: #000000; stroke-width: 0.8"/>
      </defs>
      <g>
       <use xlink:href="#md46296457c" x="18" y="189" style="stroke: #000000; stroke-width: 0.8"/>
      </g>
     </g>
     <g id="text_4">
      <!-- 15 -->
      <g transform="translate(-10.104688 192.799219)scale(0.1 -0.1)">
       <defs>
        <path id="DejaVuSans-35" d="M 691 4666 
L 3169 4666 
L 3169 4134 
L 1269 4134 
L 1269 2991 
Q 1406 3038 1543 3061 
Q 1681 3084 1819 3084 
Q 2600 3084 3056 2656 
Q 3513 2228 3513 1497 
Q 3513 744 3044 326 
Q 2575 -91 1722 -91 
Q 1428 -91 1123 -41 
Q 819 9 494 109 
L 494 744 
Q 775 591 1075 516 
Q 1375 441 1709 441 
Q 2250 441 2565 725 
Q 2881 1009 2881 1497 
Q 2881 1984 2565 2268 
Q 2250 2553 1709 2553 
Q 1456 2553 1204 2497 
Q 953 2441 691 2322 
L 691 4666 
z
" transform="scale(0.015625)"/>
       </defs>
       <use xlink:href="#DejaVuSans-2212"/>
       <use xlink:href="#DejaVuSans-31" x="83.789062"/>
       <use xlink:href="#DejaVuSans-35" x="147.412109"/>
      </g>
     </g>
    </g>
    <g id="ytick_2">
     <g id="line2d_5">
      <g>
       <use xlink:href="#md46296457c" x="18" y="161.82" style="stroke: #000000; stroke-width: 0.8"/>
      </g>
     </g>
     <g id="text_5">
      <!-- 10 -->
      <g transform="translate(-10.104688 165.619219)scale(0.1 -0.1)">
       <use xlink:href="#DejaVuSans-2212"/>
       <use xlink:href="#DejaVuSans-31" x="83.789062"/>
       <use xlink:href="#DejaVuSans-30" x="147.412109"/>
      </g>
     </g>
    </g>
    <g id="ytick_3">
     <g id="line2d_6">
      <g>
       <use xlink:href="#md46296457c" x="18" y="134.64" style="stroke: #000000; stroke-width: 0.8"/>
      </g>
     </g>
     <g id="text_6">
      <!-- 5 -->
      <g transform="translate(-3.742188 138.439219)scale(0.1 -0.1)">
       <use xlink:href="#DejaVuSans-2212"/>
       <use xlink:href="#DejaVuSans-35" x="83.789062"/>
      </g>
     </g>
    </g>
    <g id="ytick_4">
     <g id="line2d_7">
      <g>
       <use xlink:href="#md46296457c" x="18" y="107.46" style="stroke: #000000; stroke-width: 0.8"/>
      </g>
     </g>
     <g id="text_7">
      <!-- 0 -->
      <g transform="translate(4.6375 111.259219)scale(0.1 -0.1)">
       <use xlink:href="#DejaVuSans-30"/>
      </g>
     </g>
    </g>
    <g id="ytick_5">
     <g id="line2d_8">
      <g>
       <use xlink:href="#md46296457c" x="18" y="80.28" style="stroke: #000000; stroke-width: 0.8"/>
      </g>
     </g>
     <g id="text_8">
      <!-- 5 -->
      <g transform="translate(4.6375 84.079219)scale(0.1 -0.1)">
       <use xlink:href="#DejaVuSans-35"/>
      </g>
     </g>
    </g>
    <g id="ytick_6">
     <g id="line2d_9">
      <g>
       <use xlink:href="#md46296457c" x="18" y="53.1" style="stroke: #000000; stroke-width: 0.8"/>
      </g>
     </g>
     <g id="text_9">
      <!-- 10 -->
      <g transform="translate(-1.725 56.899219)scale(0.1 -0.1)">
       <use xlink:href="#DejaVuSans-31"/>
       <use xlink:href="#DejaVuSans-30" x="63.623047"/>
      </g>
     </g>
    </g>
    <g id="ytick_7">
     <g id="line2d_10">
      <g>
       <use xlink:href="#md46296457c" x="18" y="25.92" style="stroke: #000000; stroke-width: 0.8"/>
      </g>
     </g>
     <g id="text_10">
      <!-- 15 -->
      <g transform="translate(-1.725 29.719219)scale(0.1 -0.1)">
       <use xlink:href="#DejaVuSans-31"/>
       <use xlink:href="#DejaVuSans-35" x="63.623047"/>
      </g>
     </g>
    </g>
   </g>
   <g id="patch_3">
    <path d="M 18 189 
L 18 25.92 
" style="fill: none; stroke: #000000; stroke-width: 0.8; stroke-linejoin: miter; stroke-linecap: square"/>
   </g>
   <g id="patch_4">
    <path d="M 129.6 189 
L 129.6 25.92 
" style="fill: none; stroke: #000000; stroke-width: 0.8; stroke-linejoin: miter; stroke-linecap: square"/>
   </g>
   <g id="patch_5">
    <path d="M 18 189 
L 129.6 189 
" style="fill: none; stroke: #000000; stroke-width: 0.8; stroke-linejoin: miter; stroke-linecap: square"/>
   </g>
   <g id="patch_6">
    <path d="M 18 25.92 
L 129.6 25.92 
" style="fill: none; stroke: #000000; stroke-width: 0.8; stroke-linejoin: miter; stroke-linecap: square"/>
   </g>
  </g>
 </g>
 <defs>
  <clipPath id="p7cb093aa8a">
   <rect x="18" y="25.92" width="111.6" height="163.08"/>
  </clipPath>
 </defs>
</svg>
