<?xml version="1.0" encoding="utf-8" standalone="no"?>
<!DOCTYPE svg PUBLIC "-//W3C//DTD SVG 1.1//EN"
  "http://www.w3.org/Graphics/SVG/1.1/DTD/svg11.dtd">
<svg xmlns:xlink="http://www.w3.org/1999/xlink" width="144pt" height="216pt" viewBox="0 0 144 216" xmlns="http://www.w3.org/2000/svg" version="1.1">
 <metadata>
  <rdf:RDF xmlns:dc="http://purl.org/dc/elements/1.1/" xmlns:cc="http://creativecommons.org/ns#" xmlns:rdf="http://www.w3.org/1999/02/22-rdf-syntax-ns#">
   <cc:Work>
    <dc:type rdf:resource="http://purl.org/dc/dcmitype/StillImage"/>
    <dc:date>2022-06-28T09:18:11.729495</dc:date>
    <dc:format>image/svg+xml</dc:format>
    <dc:creator>
     <cc:Agent>
      <dc:title>Matplotlib v3.5.1, https://matplotlib.org/</dc:title>
     </cc:Agent>
    </dc:creator>
   </cc:Work>
  </rdf:RDF>
 </metadata>
 <defs>
  <style type="text/css">*{stroke-linejoin: round; stroke-linecap: butt}</style>
 </defs>
 <g id="figure_1">
  <g id="patch_1">
   <path d="M 0 216 
L 144 216 
L 144 0 
L 0 0 
L 0 216 
z
" style="fill: none"/>
  </g>
  <g id="axes_1">
   <g id="patch_2">
    <path d="M 18 189 
L 129.6 189 
L 129.6 25.92 
L 18 25.92 
z
" style="fill: #ffffff"/>
   </g>
   <g id="PathCollection_1">
    <defs>
     <path id="me01bbc82d7" d="M 0 2.738613 
C 0.726289 2.738613 1.422928 2.450055 1.936492 1.936492 
C 2.450055 1.422928 2.738613 0.726289 2.738613 0 
C 2.738613 -0.726289 2.450055 -1.422928 1.936492 -1.936492 
C 1.422928 -2.450055 0.726289 -2.738613 0 -2.738613 
C -0.726289 -2.738613 -1.422928 -2.450055 -1.936492 -1.936492 
C -2.450055 -1.422928 -2.738613 -0.726289 -2.738613 0 
C -2.738613 0.726289 -2.450055 1.422928 -1.936492 1.936492 
C -1.422928 2.450055 -0.726289 2.738613 0 2.738613 
z
" style="stroke: #ff0000; stroke-width: 1.75"/>
    </defs>
    <g clip-path="url(#pb32ee25f6e)">
     <use xlink:href="#me01bbc82d7" x="80.775" y="107.46" style="fill: #ff0000; stroke: #ff0000; stroke-width: 1.75"/>
     <use xlink:href="#me01bbc82d7" x="94.725" y="107.46" style="fill: #ff0000; stroke: #ff0000; stroke-width: 1.75"/>
     <use xlink:href="#me01bbc82d7" x="59.85" y="119.229285" style="fill: #ff0000; stroke: #ff0000; stroke-width: 1.75"/>
     <use xlink:href="#me01bbc82d7" x="73.8" y="119.229285" style="fill: #ff0000; stroke: #ff0000; stroke-width: 1.75"/>
     <use xlink:href="#me01bbc82d7" x="87.75" y="119.229285" style="fill: #ff0000; stroke: #ff0000; stroke-width: 1.75"/>
     <use xlink:href="#me01bbc82d7" x="66.825" y="130.99857" style="fill: #ff0000; stroke: #ff0000; stroke-width: 1.75"/>
     <use xlink:href="#me01bbc82d7" x="80.775" y="130.99857" style="fill: #ff0000; stroke: #ff0000; stroke-width: 1.75"/>
    </g>
   </g>
   <g id="PathCollection_2">
    <defs>
     <path id="C0_0_bb2ce0f3a8" d="M 0 2.738613 
C 0.726289 2.738613 1.422928 2.450055 1.936492 1.936492 
C 2.450055 1.422928 2.738613 0.726289 2.738613 -0 
C 2.738613 -0.726289 2.450055 -1.422928 1.936492 -1.936492 
C 1.422928 -2.450055 0.726289 -2.738613 0 -2.738613 
C -0.726289 -2.738613 -1.422928 -2.450055 -1.936492 -1.936492 
C -2.450055 -1.422928 -2.738613 -0.726289 -2.738613 0 
C -2.738613 0.726289 -2.450055 1.422928 -1.936492 1.936492 
C -1.422928 2.450055 -0.726289 2.738613 0 2.738613 
z
"/>
    </defs>
    <g clip-path="url(#pb32ee25f6e)">
     <use xlink:href="#C0_0_bb2ce0f3a8" x="66.825" y="83.92143" style="fill: none; stroke: #ff0000; stroke-width: 1.75"/>
    </g>
    <g clip-path="url(#pb32ee25f6e)">
     <use xlink:href="#C0_0_bb2ce0f3a8" x="80.775" y="83.92143" style="fill: none; stroke: #ff0000; stroke-width: 1.75"/>
    </g>
    <g clip-path="url(#pb32ee25f6e)">
     <use xlink:href="#C0_0_bb2ce0f3a8" x="59.85" y="95.690715" style="fill: none; stroke: #ff0000; stroke-width: 1.75"/>
    </g>
    <g clip-path="url(#pb32ee25f6e)">
     <use xlink:href="#C0_0_bb2ce0f3a8" x="73.8" y="95.690715" style="fill: none; stroke: #ff0000; stroke-width: 1.75"/>
    </g>
    <g clip-path="url(#pb32ee25f6e)">
     <use xlink:href="#C0_0_bb2ce0f3a8" x="87.75" y="95.690715" style="fill: none; stroke: #ff0000; stroke-width: 1.75"/>
    </g>
    <g clip-path="url(#pb32ee25f6e)">
     <use xlink:href="#C0_0_bb2ce0f3a8" x="52.875" y="107.46" style="fill: none; stroke: #ff0000; stroke-width: 1.75"/>
    </g>
    <g clip-path="url(#pb32ee25f6e)">
     <use xlink:href="#C0_0_bb2ce0f3a8" x="66.825" y="107.46" style="fill: none; stroke: #ff0000; stroke-width: 1.75"/>
    </g>
   </g>
   <g id="PathCollection_3">
    <path d="M 121.947298 140.426898 
C 122.411355 140.426898 122.856468 140.242527 123.184606 139.914389 
C 123.512744 139.586251 123.697116 139.141138 123.697116 138.677081 
C 123.697116 138.213024 123.512744 137.767911 123.184606 137.439773 
C 122.856468 137.111635 122.411355 136.927263 121.947298 136.927263 
C 121.483241 136.927263 121.038128 137.111635 120.70999 137.439773 
C 120.381852 137.767911 120.19748 138.213024 120.19748 138.677081 
C 120.19748 139.141138 120.381852 139.586251 120.70999 139.914389 
C 121.038128 140.242527 121.483241 140.426898 121.947298 140.426898 
z
" clip-path="url(#pb32ee25f6e)" style="stroke: #000000"/>
    <path d="M 118.723259 131.763724 
C 119.231608 131.763724 119.719205 131.561755 120.078662 131.202298 
C 120.438119 130.84284 120.640088 130.355244 120.640088 129.846895 
C 120.640088 129.338545 120.438119 128.850949 120.078662 128.491492 
C 119.719205 128.132034 119.231608 127.930065 118.723259 127.930065 
C 118.21491 127.930065 117.727313 128.132034 117.367856 128.491492 
C 117.008399 128.850949 116.806429 129.338545 116.806429 129.846895 
C 116.806429 130.355244 117.008399 130.84284 117.367856 131.202298 
C 117.727313 131.561755 118.21491 131.763724 118.723259 131.763724 
z
" clip-path="url(#pb32ee25f6e)" style="stroke: #000000"/>
    <path d="M 115.84993 122.371285 
C 116.442942 122.371285 117.011745 122.135679 117.431068 121.716356 
C 117.850391 121.297033 118.085998 120.728229 118.085998 120.135217 
C 118.085998 119.542205 117.850391 118.973401 117.431068 118.554078 
C 117.011745 118.134755 116.442942 117.899149 115.84993 117.899149 
C 115.256917 117.899149 114.688114 118.134755 114.268791 118.554078 
C 113.849468 118.973401 113.613862 119.542205 113.613862 120.135217 
C 113.613862 120.728229 113.849468 121.297033 114.268791 121.716356 
C 114.688114 122.135679 115.256917 122.371285 115.84993 122.371285 
z
" clip-path="url(#pb32ee25f6e)" style="stroke: #000000"/>
    <path d="M 107.952073 102.367621 
C 108.545456 102.367621 109.114615 102.131868 109.5342 101.712283 
C 109.953784 101.292698 110.189538 100.723539 110.189538 100.130157 
C 110.189538 99.536774 109.953784 98.967615 109.5342 98.548031 
C 109.114615 98.128446 108.545456 97.892693 107.952073 97.892693 
C 107.358691 97.892693 106.789532 98.128446 106.369947 98.548031 
C 105.950363 98.967615 105.714609 99.536774 105.714609 100.130157 
C 105.714609 100.723539 105.950363 101.292698 106.369947 101.712283 
C 106.789532 102.131868 107.358691 102.367621 107.952073 102.367621 
z
" clip-path="url(#pb32ee25f6e)" style="stroke: #000000"/>
    <path d="M 97.25114 67.993327 
C 97.844152 67.993327 98.412956 67.75772 98.832279 67.338398 
C 99.251602 66.919075 99.487208 66.350271 99.487208 65.757259 
C 99.487208 65.164247 99.251602 64.595443 98.832279 64.17612 
C 98.412956 63.756797 97.844152 63.521191 97.25114 63.521191 
C 96.658128 63.521191 96.089324 63.756797 95.670001 64.17612 
C 95.250678 64.595443 95.015072 65.164247 95.015072 65.757259 
C 95.015072 66.350271 95.250678 66.919075 95.670001 67.338398 
C 96.089324 67.75772 96.658128 67.993327 97.25114 67.993327 
z
" clip-path="url(#pb32ee25f6e)" style="stroke: #000000"/>
    <path d="M 112.495478 148.477493 
C 113.08849 148.477493 113.657293 148.241887 114.076616 147.822564 
C 114.495939 147.403241 114.731546 146.834437 114.731546 146.241425 
C 114.731546 145.648413 114.495939 145.079609 114.076616 144.660286 
C 113.657293 144.240963 113.08849 144.005357 112.495478 144.005357 
C 111.902465 144.005357 111.333662 144.240963 110.914339 144.660286 
C 110.495016 145.079609 110.25941 145.648413 110.25941 146.241425 
C 110.25941 146.834437 110.495016 147.403241 110.914339 147.822564 
C 111.333662 148.241887 111.902465 148.477493 112.495478 148.477493 
z
" clip-path="url(#pb32ee25f6e)" style="stroke: #000000"/>
    <path d="M 109.184666 136.774404 
C 109.777678 136.774404 110.346482 136.538798 110.765805 136.119475 
C 111.185128 135.700152 111.420734 135.131348 111.420734 134.538336 
C 111.420734 133.945324 111.185128 133.37652 110.765805 132.957197 
C 110.346482 132.537874 109.777678 132.302268 109.184666 132.302268 
C 108.591654 132.302268 108.02285 132.537874 107.603527 132.957197 
C 107.184204 133.37652 106.948598 133.945324 106.948598 134.538336 
C 106.948598 135.131348 107.184204 135.700152 107.603527 136.119475 
C 108.02285 136.538798 108.591654 136.774404 109.184666 136.774404 
z
" clip-path="url(#pb32ee25f6e)" style="stroke: #000000"/>
    <path d="M 102.090386 125.826352 
C 102.683769 125.826352 103.252928 125.590599 103.672512 125.171014 
C 104.092097 124.751429 104.32785 124.18227 104.32785 123.588888 
C 104.32785 122.995505 104.092097 122.426346 103.672512 122.006762 
C 103.252928 121.587177 102.683769 121.351424 102.090386 121.351424 
C 101.497004 121.351424 100.927845 121.587177 100.50826 122.006762 
C 100.088675 122.426346 99.852922 122.995505 99.852922 123.588888 
C 99.852922 124.18227 100.088675 124.751429 100.50826 125.171014 
C 100.927845 125.590599 101.497004 125.826352 102.090386 125.826352 
z
" clip-path="url(#pb32ee25f6e)" style="stroke: #000000"/>
    <path d="M 103.722771 115.023187 
C 104.316154 115.023187 104.885313 114.787433 105.304897 114.367848 
C 105.724482 113.948264 105.960236 113.379105 105.960236 112.785722 
C 105.960236 112.19234 105.724482 111.623181 105.304897 111.203596 
C 104.885313 110.784012 104.316154 110.548258 103.722771 110.548258 
C 103.129389 110.548258 102.56023 110.784012 102.140645 111.203596 
C 101.72106 111.623181 101.485307 112.19234 101.485307 112.785722 
C 101.485307 113.379105 101.72106 113.948264 102.140645 114.367848 
C 102.56023 114.787433 103.129389 115.023187 103.722771 115.023187 
z
" clip-path="url(#pb32ee25f6e)" style="stroke: #000000"/>
    <path d="M 99.527136 104.351728 
C 100.120519 104.351728 100.689678 104.115975 101.109262 103.69639 
C 101.528847 103.276805 101.7646 102.707646 101.7646 102.114264 
C 101.7646 101.520881 101.528847 100.951722 101.109262 100.532138 
C 100.689678 100.112553 100.120519 99.876799 99.527136 99.876799 
C 98.933754 99.876799 98.364595 100.112553 97.94501 100.532138 
C 97.525425 100.951722 97.289672 101.520881 97.289672 102.114264 
C 97.289672 102.707646 97.525425 103.276805 97.94501 103.69639 
C 98.364595 104.115975 98.933754 104.351728 99.527136 104.351728 
z
" clip-path="url(#pb32ee25f6e)" style="stroke: #000000"/>
    <path d="M 96.292599 92.515733 
C 96.885611 92.515733 97.454415 92.280127 97.873738 91.860804 
C 98.293061 91.441481 98.528667 90.872677 98.528667 90.279665 
C 98.528667 89.686653 98.293061 89.117849 97.873738 88.698526 
C 97.454415 88.279203 96.885611 88.043597 96.292599 88.043597 
C 95.699587 88.043597 95.130783 88.279203 94.71146 88.698526 
C 94.292137 89.117849 94.056531 89.686653 94.056531 90.279665 
C 94.056531 90.872677 94.292137 91.441481 94.71146 91.860804 
C 95.130783 92.280127 95.699587 92.515733 96.292599 92.515733 
z
" clip-path="url(#pb32ee25f6e)" style="stroke: #000000"/>
    <path d="M 94.431541 86.073259 
C 95.024554 86.073259 95.593357 85.837653 96.01268 85.41833 
C 96.432003 84.999007 96.667609 84.430204 96.667609 83.837192 
C 96.667609 83.244179 96.432003 82.675376 96.01268 82.256053 
C 95.593357 81.83673 95.024554 81.601124 94.431541 81.601124 
C 93.838529 81.601124 93.269726 81.83673 92.850403 82.256053 
C 92.43108 82.675376 92.195473 83.244179 92.195473 83.837192 
C 92.195473 84.430204 92.43108 84.999007 92.850403 85.41833 
C 93.269726 85.837653 93.838529 86.073259 94.431541 86.073259 
z
" clip-path="url(#pb32ee25f6e)" style="stroke: #000000"/>
    <path d="M 89.337784 75.845814 
C 89.930796 75.845814 90.4996 75.610208 90.918923 75.190885 
C 91.338246 74.771562 91.573852 74.202758 91.573852 73.609746 
C 91.573852 73.016734 91.338246 72.44793 90.918923 72.028607 
C 90.4996 71.609284 89.930796 71.373678 89.337784 71.373678 
C 88.744772 71.373678 88.175968 71.609284 87.756645 72.028607 
C 87.337322 72.44793 87.101716 73.016734 87.101716 73.609746 
C 87.101716 74.202758 87.337322 74.771562 87.756645 75.190885 
C 88.175968 75.610208 88.744772 75.845814 89.337784 75.845814 
z
" clip-path="url(#pb32ee25f6e)" style="stroke: #000000"/>
    <path d="M 82.997033 63.676402 
C 83.54329 63.676402 84.067247 63.459372 84.453508 63.073111 
C 84.83977 62.686849 85.0568 62.162892 85.0568 61.616635 
C 85.0568 61.070379 84.83977 60.546422 84.453508 60.16016 
C 84.067247 59.773898 83.54329 59.556868 82.997033 59.556868 
C 82.450777 59.556868 81.92682 59.773898 81.540558 60.16016 
C 81.154296 60.546422 80.937266 61.070379 80.937266 61.616635 
C 80.937266 62.162892 81.154296 62.686849 81.540558 63.073111 
C 81.92682 63.459372 82.450777 63.676402 82.997033 63.676402 
z
" clip-path="url(#pb32ee25f6e)" style="stroke: #000000"/>
    <path d="M 85.433059 55.172317 
C 85.87102 55.172317 86.291102 54.998313 86.600788 54.688628 
C 86.910473 54.378943 87.084476 53.958861 87.084476 53.5209 
C 87.084476 53.082939 86.910473 52.662857 86.600788 52.353172 
C 86.291102 52.043487 85.87102 51.869483 85.433059 51.869483 
C 84.995099 51.869483 84.575016 52.043487 84.265331 52.353172 
C 83.955646 52.662857 83.781642 53.082939 83.781642 53.5209 
C 83.781642 53.958861 83.955646 54.378943 84.265331 54.688628 
C 84.575016 54.998313 84.995099 55.172317 85.433059 55.172317 
z
" clip-path="url(#pb32ee25f6e)" style="stroke: #000000"/>
    <path d="M 110.129156 159.644764 
C 110.532962 159.644764 110.920284 159.48433 111.205818 159.198796 
C 111.491352 158.913262 111.651786 158.52594 111.651786 158.122133 
C 111.651786 157.718327 111.491352 157.331005 111.205818 157.045471 
C 110.920284 156.759937 110.532962 156.599503 110.129156 156.599503 
C 109.725349 156.599503 109.338027 156.759937 109.052493 157.045471 
C 108.766959 157.331005 108.606525 157.718327 108.606525 158.122133 
C 108.606525 158.52594 108.766959 158.913262 109.052493 159.198796 
C 109.338027 159.48433 109.725349 159.644764 110.129156 159.644764 
z
" clip-path="url(#pb32ee25f6e)" style="stroke: #000000"/>
    <path d="M 93.918982 127.45001 
C 94.512365 127.45001 95.081524 127.214257 95.501108 126.794672 
C 95.920693 126.375088 96.156446 125.805929 96.156446 125.212546 
C 96.156446 124.619164 95.920693 124.050005 95.501108 123.63042 
C 95.081524 123.210835 94.512365 122.975082 93.918982 122.975082 
C 93.3256 122.975082 92.756441 123.210835 92.336856 123.63042 
C 91.917271 124.050005 91.681518 124.619164 91.681518 125.212546 
C 91.681518 125.805929 91.917271 126.375088 92.336856 126.794672 
C 92.756441 127.214257 93.3256 127.45001 93.918982 127.45001 
z
" clip-path="url(#pb32ee25f6e)" style="stroke: #000000"/>
    <path d="M 92.004333 116.605334 
C 92.597715 116.605334 93.166874 116.369581 93.586459 115.949996 
C 94.006044 115.530411 94.241797 114.961253 94.241797 114.36787 
C 94.241797 113.774488 94.006044 113.205329 93.586459 112.785744 
C 93.166874 112.366159 92.597715 112.130406 92.004333 112.130406 
C 91.41095 112.130406 90.841791 112.366159 90.422207 112.785744 
C 90.002622 113.205329 89.766869 113.774488 89.766869 114.36787 
C 89.766869 114.961253 90.002622 115.530411 90.422207 115.949996 
C 90.841791 116.369581 91.41095 116.605334 92.004333 116.605334 
z
" clip-path="url(#pb32ee25f6e)" style="stroke: #000000"/>
    <path d="M 89.02526 108.896247 
C 89.618642 108.896247 90.187801 108.660493 90.607386 108.240908 
C 91.026971 107.821324 91.262724 107.252165 91.262724 106.658782 
C 91.262724 106.0654 91.026971 105.496241 90.607386 105.076656 
C 90.187801 104.657071 89.618642 104.421318 89.02526 104.421318 
C 88.431877 104.421318 87.862719 104.657071 87.443134 105.076656 
C 87.023549 105.496241 86.787796 106.0654 86.787796 106.658782 
C 86.787796 107.252165 87.023549 107.821324 87.443134 108.240908 
C 87.862719 108.660493 88.431877 108.896247 89.02526 108.896247 
z
" clip-path="url(#pb32ee25f6e)" style="stroke: #000000"/>
    <path d="M 84.193357 92.141036 
C 84.729371 92.141036 85.243504 91.928076 85.622523 91.549056 
C 86.001542 91.170037 86.214503 90.655904 86.214503 90.11989 
C 86.214503 89.583875 86.001542 89.069743 85.622523 88.690723 
C 85.243504 88.311704 84.729371 88.098743 84.193357 88.098743 
C 83.657342 88.098743 83.14321 88.311704 82.76419 88.690723 
C 82.385171 89.069743 82.17221 89.583875 82.17221 90.11989 
C 82.17221 90.655904 82.385171 91.170037 82.76419 91.549056 
C 83.14321 91.928076 83.657342 92.141036 84.193357 92.141036 
z
" clip-path="url(#pb32ee25f6e)" style="stroke: #000000"/>
    <path d="M 84.127473 88.23144 
C 84.663487 88.23144 85.17762 88.018479 85.556639 87.63946 
C 85.935659 87.260441 86.148619 86.746308 86.148619 86.210293 
C 86.148619 85.674279 85.935659 85.160146 85.556639 84.781127 
C 85.17762 84.402108 84.663487 84.189147 84.127473 84.189147 
C 83.591459 84.189147 83.077326 84.402108 82.698306 84.781127 
C 82.319287 85.160146 82.106326 85.674279 82.106326 86.210293 
C 82.106326 86.746308 82.319287 87.260441 82.698306 87.63946 
C 83.077326 88.018479 83.591459 88.23144 84.127473 88.23144 
z
" clip-path="url(#pb32ee25f6e)" style="stroke: #000000"/>
    <path d="M 80.51767 80.165524 
C 81.110682 80.165524 81.679486 79.929918 82.098809 79.510595 
C 82.518132 79.091272 82.753738 78.522468 82.753738 77.929456 
C 82.753738 77.336444 82.518132 76.76764 82.098809 76.348317 
C 81.679486 75.928994 81.110682 75.693388 80.51767 75.693388 
C 79.924658 75.693388 79.355854 75.928994 78.936531 76.348317 
C 78.517208 76.76764 78.281602 77.336444 78.281602 77.929456 
C 78.281602 78.522468 78.517208 79.091272 78.936531 79.510595 
C 79.355854 79.929918 79.924658 80.165524 80.51767 80.165524 
z
" clip-path="url(#pb32ee25f6e)" style="stroke: #000000"/>
    <path d="M 92.22125 154.13824 
C 92.780767 154.13824 93.317443 153.915941 93.713082 153.520303 
C 94.10872 153.124664 94.331018 152.587988 94.331018 152.028471 
C 94.331018 151.468954 94.10872 150.932278 93.713082 150.536639 
C 93.317443 150.141001 92.780767 149.918703 92.22125 149.918703 
C 91.661733 149.918703 91.125057 150.141001 90.729418 150.536639 
C 90.33378 150.932278 90.111481 151.468954 90.111481 152.028471 
C 90.111481 152.587988 90.33378 153.124664 90.729418 153.520303 
C 91.125057 153.915941 91.661733 154.13824 92.22125 154.13824 
z
" clip-path="url(#pb32ee25f6e)" style="stroke: #000000"/>
    <path d="M 86.862521 141.99696 
C 87.455904 141.99696 88.025063 141.761207 88.444647 141.341622 
C 88.864232 140.922037 89.099985 140.352878 89.099985 139.759496 
C 89.099985 139.166113 88.864232 138.596954 88.444647 138.17737 
C 88.025063 137.757785 87.455904 137.522032 86.862521 137.522032 
C 86.269139 137.522032 85.69998 137.757785 85.280395 138.17737 
C 84.86081 138.596954 84.625057 139.166113 84.625057 139.759496 
C 84.625057 140.352878 84.86081 140.922037 85.280395 141.341622 
C 85.69998 141.761207 86.269139 141.99696 86.862521 141.99696 
z
" clip-path="url(#pb32ee25f6e)" style="stroke: #000000"/>
    <path d="M 88.386931 130.90597 
C 88.899923 130.90597 89.391973 130.702156 89.754713 130.339416 
C 90.117453 129.976676 90.321267 129.484625 90.321267 128.971633 
C 90.321267 128.458641 90.117453 127.966591 89.754713 127.603851 
C 89.391973 127.241111 88.899923 127.037297 88.386931 127.037297 
C 87.873939 127.037297 87.381888 127.241111 87.019148 127.603851 
C 86.656408 127.966591 86.452594 128.458641 86.452594 128.971633 
C 86.452594 129.484625 86.656408 129.976676 87.019148 130.339416 
C 87.381888 130.702156 87.873939 130.90597 88.386931 130.90597 
z
" clip-path="url(#pb32ee25f6e)" style="stroke: #000000"/>
    <path d="M 82.414929 115.940063 
C 82.950943 115.940063 83.465076 115.727102 83.844096 115.348082 
C 84.223115 114.969063 84.436076 114.45493 84.436076 113.918916 
C 84.436076 113.382902 84.223115 112.868769 83.844096 112.489749 
C 83.465076 112.11073 82.950943 111.897769 82.414929 111.897769 
C 81.878915 111.897769 81.364782 112.11073 80.985763 112.489749 
C 80.606743 112.868769 80.393783 113.382902 80.393783 113.918916 
C 80.393783 114.45493 80.606743 114.969063 80.985763 115.348082 
C 81.364782 115.727102 81.878915 115.940063 82.414929 115.940063 
z
" clip-path="url(#pb32ee25f6e)" style="stroke: #000000"/>
    <path d="M 84.167353 110.668785 
C 84.703367 110.668785 85.2175 110.455824 85.596519 110.076804 
C 85.975539 109.697785 86.188499 109.183652 86.188499 108.647638 
C 86.188499 108.111624 85.975539 107.597491 85.596519 107.218472 
C 85.2175 106.839452 84.703367 106.626491 84.167353 106.626491 
C 83.631338 106.626491 83.117206 106.839452 82.738186 107.218472 
C 82.359167 107.597491 82.146206 108.111624 82.146206 108.647638 
C 82.146206 109.183652 82.359167 109.697785 82.738186 110.076804 
C 83.117206 110.455824 83.631338 110.668785 84.167353 110.668785 
z
" clip-path="url(#pb32ee25f6e)" style="stroke: #000000"/>
    <path d="M 75.362265 97.320459 
C 75.955648 97.320459 76.524806 97.084706 76.944391 96.665121 
C 77.363976 96.245536 77.599729 95.676377 77.599729 95.082995 
C 77.599729 94.489612 77.363976 93.920453 76.944391 93.500869 
C 76.524806 93.081284 75.955648 92.845531 75.362265 92.845531 
C 74.768883 92.845531 74.199724 93.081284 73.780139 93.500869 
C 73.360554 93.920453 73.124801 94.489612 73.124801 95.082995 
C 73.124801 95.676377 73.360554 96.245536 73.780139 96.665121 
C 74.199724 97.084706 74.768883 97.320459 75.362265 97.320459 
z
" clip-path="url(#pb32ee25f6e)" style="stroke: #000000"/>
    <path d="M 69.815831 97.440356 
C 70.351845 97.440356 70.865978 97.227396 71.244997 96.848376 
C 71.624017 96.469357 71.836977 95.955224 71.836977 95.41921 
C 71.836977 94.883196 71.624017 94.369063 71.244997 93.990043 
C 70.865978 93.611024 70.351845 93.398063 69.815831 93.398063 
C 69.279816 93.398063 68.765684 93.611024 68.386664 93.990043 
C 68.007645 94.369063 67.794684 94.883196 67.794684 95.41921 
C 67.794684 95.955224 68.007645 96.469357 68.386664 96.848376 
C 68.765684 97.227396 69.279816 97.440356 69.815831 97.440356 
z
" clip-path="url(#pb32ee25f6e)" style="stroke: #000000"/>
    <path d="M 66.49815 80.387868 
C 67.091162 80.387868 67.659966 80.152261 68.079289 79.732939 
C 68.498612 79.313616 68.734218 78.744812 68.734218 78.1518 
C 68.734218 77.558788 68.498612 76.989984 68.079289 76.570661 
C 67.659966 76.151338 67.091162 75.915732 66.49815 75.915732 
C 65.905138 75.915732 65.336334 76.151338 64.917011 76.570661 
C 64.497688 76.989984 64.262082 77.558788 64.262082 78.1518 
C 64.262082 78.744812 64.497688 79.313616 64.917011 79.732939 
C 65.336334 80.152261 65.905138 80.387868 66.49815 80.387868 
z
" clip-path="url(#pb32ee25f6e)" style="stroke: #000000"/>
    <path d="M 62.181963 58.625226 
C 62.660771 58.625226 63.120032 58.434994 63.4586 58.096426 
C 63.797168 57.757858 63.9874 57.298597 63.9874 56.81979 
C 63.9874 56.340982 63.797168 55.881721 63.4586 55.543153 
C 63.120032 55.204585 62.660771 55.014353 62.181963 55.014353 
C 61.703156 55.014353 61.243895 55.204585 60.905327 55.543153 
C 60.566759 55.881721 60.376527 56.340982 60.376527 56.81979 
C 60.376527 57.298597 60.566759 57.757858 60.905327 58.096426 
C 61.243895 58.434994 61.703156 58.625226 62.181963 58.625226 
z
" clip-path="url(#pb32ee25f6e)" style="stroke: #000000"/>
    <path d="M 87.733506 176.388236 
C 87.908019 176.388236 88.075409 176.318901 88.198808 176.195502 
C 88.322208 176.072102 88.391543 175.904713 88.391543 175.730199 
C 88.391543 175.555686 88.322208 175.388297 88.198808 175.264897 
C 88.075409 175.141497 87.908019 175.072162 87.733506 175.072162 
C 87.558993 175.072162 87.391603 175.141497 87.268204 175.264897 
C 87.144804 175.388297 87.075469 175.555686 87.075469 175.730199 
C 87.075469 175.904713 87.144804 176.072102 87.268204 176.195502 
C 87.391603 176.318901 87.558993 176.388236 87.733506 176.388236 
z
" clip-path="url(#pb32ee25f6e)" style="stroke: #000000"/>
    <path d="M 89.408198 166.06614 
C 89.863503 166.06614 90.300221 165.885246 90.62217 165.563297 
C 90.944119 165.241347 91.125014 164.804629 91.125014 164.349324 
C 91.125014 163.89402 90.944119 163.457302 90.62217 163.135352 
C 90.300221 162.813403 89.863503 162.632509 89.408198 162.632509 
C 88.952893 162.632509 88.516175 162.813403 88.194226 163.135352 
C 87.872277 163.457302 87.691382 163.89402 87.691382 164.349324 
C 87.691382 164.804629 87.872277 165.241347 88.194226 165.563297 
C 88.516175 165.885246 88.952893 166.06614 89.408198 166.06614 
z
" clip-path="url(#pb32ee25f6e)" style="stroke: #000000"/>
    <path d="M 72.776108 123.617784 
C 73.336506 123.617784 73.874026 123.395135 74.270287 122.998874 
C 74.666548 122.602613 74.889197 122.065093 74.889197 121.504695 
C 74.889197 120.944298 74.666548 120.406777 74.270287 120.010516 
C 73.874026 119.614255 73.336506 119.391607 72.776108 119.391607 
C 72.215711 119.391607 71.67819 119.614255 71.281929 120.010516 
C 70.885668 120.406777 70.66302 120.944298 70.66302 121.504695 
C 70.66302 122.065093 70.885668 122.602613 71.281929 122.998874 
C 71.67819 123.395135 72.215711 123.617784 72.776108 123.617784 
z
" clip-path="url(#pb32ee25f6e)" style="stroke: #000000"/>
    <path d="M 66.527884 116.221213 
C 67.121266 116.221213 67.690425 115.98546 68.11001 115.565875 
C 68.529595 115.14629 68.765348 114.577131 68.765348 113.983749 
C 68.765348 113.390366 68.529595 112.821207 68.11001 112.401623 
C 67.690425 111.982038 67.121266 111.746285 66.527884 111.746285 
C 65.934501 111.746285 65.365342 111.982038 64.945758 112.401623 
C 64.526173 112.821207 64.290419 113.390366 64.290419 113.983749 
C 64.290419 114.577131 64.526173 115.14629 64.945758 115.565875 
C 65.365342 115.98546 65.934501 116.221213 66.527884 116.221213 
z
" clip-path="url(#pb32ee25f6e)" style="stroke: #000000"/>
    <path d="M 62.318491 96.833018 
C 62.911873 96.833018 63.481032 96.597265 63.900617 96.17768 
C 64.320202 95.758095 64.555955 95.188936 64.555955 94.595554 
C 64.555955 94.002171 64.320202 93.433012 63.900617 93.013428 
C 63.481032 92.593843 62.911873 92.358089 62.318491 92.358089 
C 61.725108 92.358089 61.15595 92.593843 60.736365 93.013428 
C 60.31678 93.433012 60.081027 94.002171 60.081027 94.595554 
C 60.081027 95.188936 60.31678 95.758095 60.736365 96.17768 
C 61.15595 96.597265 61.725108 96.833018 62.318491 96.833018 
z
" clip-path="url(#pb32ee25f6e)" style="stroke: #000000"/>
    <path d="M 49.576329 59.786933 
C 50.019709 59.786933 50.444989 59.610777 50.758506 59.29726 
C 51.072023 58.983743 51.24818 58.558463 51.24818 58.115083 
C 51.24818 57.671703 51.072023 57.246423 50.758506 56.932906 
C 50.444989 56.619389 50.019709 56.443232 49.576329 56.443232 
C 49.132949 56.443232 48.707669 56.619389 48.394152 56.932906 
C 48.080635 57.246423 47.904479 57.671703 47.904479 58.115083 
C 47.904479 58.558463 48.080635 58.983743 48.394152 59.29726 
C 48.707669 59.610777 49.132949 59.786933 49.576329 59.786933 
z
" clip-path="url(#pb32ee25f6e)" style="stroke: #000000"/>
    <path d="M 46.009707 55.875558 
C 46.23938 55.875558 46.459676 55.784308 46.622079 55.621905 
C 46.784482 55.459502 46.875732 55.239205 46.875732 55.009532 
C 46.875732 54.77986 46.784482 54.559563 46.622079 54.39716 
C 46.459676 54.234757 46.23938 54.143507 46.009707 54.143507 
C 45.780034 54.143507 45.559738 54.234757 45.397334 54.39716 
C 45.234931 54.559563 45.143682 54.77986 45.143682 55.009532 
C 45.143682 55.239205 45.234931 55.459502 45.397334 55.621905 
C 45.559738 55.784308 45.780034 55.875558 46.009707 55.875558 
z
" clip-path="url(#pb32ee25f6e)" style="stroke: #000000"/>
    <path d="M 66.676712 159.40571 
C 67.269724 159.40571 67.838528 159.170104 68.257851 158.750781 
C 68.677174 158.331458 68.91278 157.762655 68.91278 157.169643 
C 68.91278 156.57663 68.677174 156.007827 68.257851 155.588504 
C 67.838528 155.169181 67.269724 154.933575 66.676712 154.933575 
C 66.0837 154.933575 65.514896 155.169181 65.095573 155.588504 
C 64.67625 156.007827 64.440644 156.57663 64.440644 157.169643 
C 64.440644 157.762655 64.67625 158.331458 65.095573 158.750781 
C 65.514896 159.170104 66.0837 159.40571 66.676712 159.40571 
z
" clip-path="url(#pb32ee25f6e)" style="stroke: #000000"/>
    <path d="M 64.084373 139.768486 
C 64.271899 139.768486 64.451771 139.693981 64.584373 139.561379 
C 64.716974 139.428778 64.791479 139.248906 64.791479 139.061379 
C 64.791479 138.873853 64.716974 138.693981 64.584373 138.561379 
C 64.451771 138.428778 64.271899 138.354273 64.084373 138.354273 
C 63.896846 138.354273 63.716974 138.428778 63.584373 138.561379 
C 63.451771 138.693981 63.377266 138.873853 63.377266 139.061379 
C 63.377266 139.248906 63.451771 139.428778 63.584373 139.561379 
C 63.716974 139.693981 63.896846 139.768486 64.084373 139.768486 
z
" clip-path="url(#pb32ee25f6e)" style="stroke: #000000"/>
    <path d="M 63.635252 129.09002 
C 64.228634 129.09002 64.797793 128.854267 65.217378 128.434682 
C 65.636962 128.015097 65.872716 127.445938 65.872716 126.852556 
C 65.872716 126.259174 65.636962 125.690015 65.217378 125.27043 
C 64.797793 124.850845 64.228634 124.615092 63.635252 124.615092 
C 63.041869 124.615092 62.47271 124.850845 62.053125 125.27043 
C 61.633541 125.690015 61.397787 126.259174 61.397787 126.852556 
C 61.397787 127.445938 61.633541 128.015097 62.053125 128.434682 
C 62.47271 128.854267 63.041869 129.09002 63.635252 129.09002 
z
" clip-path="url(#pb32ee25f6e)" style="stroke: #000000"/>
    <path d="M 58.623635 119.749193 
C 59.217018 119.749193 59.786177 119.51344 60.205762 119.093855 
C 60.625346 118.67427 60.8611 118.105111 60.8611 117.511729 
C 60.8611 116.918347 60.625346 116.349188 60.205762 115.929603 
C 59.786177 115.510018 59.217018 115.274265 58.623635 115.274265 
C 58.030253 115.274265 57.461094 115.510018 57.041509 115.929603 
C 56.621925 116.349188 56.386171 116.918347 56.386171 117.511729 
C 56.386171 118.105111 56.621925 118.67427 57.041509 119.093855 
C 57.461094 119.51344 58.030253 119.749193 58.623635 119.749193 
z
" clip-path="url(#pb32ee25f6e)" style="stroke: #000000"/>
    <path d="M 55.171988 105.735111 
C 55.765 105.735111 56.333804 105.499505 56.753127 105.080182 
C 57.17245 104.660859 57.408056 104.092055 57.408056 103.499043 
C 57.408056 102.906031 57.17245 102.337227 56.753127 101.917904 
C 56.333804 101.498581 55.765 101.262975 55.171988 101.262975 
C 54.578976 101.262975 54.010172 101.498581 53.590849 101.917904 
C 53.171526 102.337227 52.93592 102.906031 52.93592 103.499043 
C 52.93592 104.092055 53.171526 104.660859 53.590849 105.080182 
C 54.010172 105.499505 54.578976 105.735111 55.171988 105.735111 
z
" clip-path="url(#pb32ee25f6e)" style="stroke: #000000"/>
    <path d="M 50.080964 93.458938 
C 50.673976 93.458938 51.24278 93.223332 51.662103 92.804009 
C 52.081426 92.384686 52.317032 91.815882 52.317032 91.22287 
C 52.317032 90.629858 52.081426 90.061054 51.662103 89.641731 
C 51.24278 89.222408 50.673976 88.986802 50.080964 88.986802 
C 49.487952 88.986802 48.919148 89.222408 48.499825 89.641731 
C 48.080502 90.061054 47.844896 90.629858 47.844896 91.22287 
C 47.844896 91.815882 48.080502 92.384686 48.499825 92.804009 
C 48.919148 93.223332 49.487952 93.458938 50.080964 93.458938 
z
" clip-path="url(#pb32ee25f6e)" style="stroke: #000000"/>
    <path d="M 48.135196 88.292468 
C 48.728208 88.292468 49.297012 88.056862 49.716335 87.637539 
C 50.135658 87.218216 50.371264 86.649412 50.371264 86.0564 
C 50.371264 85.463388 50.135658 84.894584 49.716335 84.475261 
C 49.297012 84.055938 48.728208 83.820332 48.135196 83.820332 
C 47.542184 83.820332 46.97338 84.055938 46.554057 84.475261 
C 46.134735 84.894584 45.899128 85.463388 45.899128 86.0564 
C 45.899128 86.649412 46.134735 87.218216 46.554057 87.637539 
C 46.97338 88.056862 47.542184 88.292468 48.135196 88.292468 
z
" clip-path="url(#pb32ee25f6e)" style="stroke: #000000"/>
    <path d="M 63.563569 170.146266 
C 63.948483 170.146266 64.317683 169.993339 64.589858 169.721164 
C 64.862033 169.448989 65.014961 169.079788 65.014961 168.694875 
C 65.014961 168.309961 64.862033 167.940761 64.589858 167.668586 
C 64.317683 167.396411 63.948483 167.243483 63.563569 167.243483 
C 63.178656 167.243483 62.809455 167.396411 62.53728 167.668586 
C 62.265105 167.940761 62.112178 168.309961 62.112178 168.694875 
C 62.112178 169.079788 62.265105 169.448989 62.53728 169.721164 
C 62.809455 169.993339 63.178656 170.146266 63.563569 170.146266 
z
" clip-path="url(#pb32ee25f6e)" style="stroke: #000000"/>
    <path d="M 58.792873 151.25885 
C 59.382143 151.25885 59.947358 151.024731 60.364035 150.608053 
C 60.780713 150.191376 61.014832 149.626161 61.014832 149.036891 
C 61.014832 148.44762 60.780713 147.882405 60.364035 147.465728 
C 59.947358 147.049051 59.382143 146.814931 58.792873 146.814931 
C 58.203602 146.814931 57.638387 147.049051 57.22171 147.465728 
C 56.805033 147.882405 56.570913 148.44762 56.570913 149.036891 
C 56.570913 149.626161 56.805033 150.191376 57.22171 150.608053 
C 57.638387 151.024731 58.203602 151.25885 58.792873 151.25885 
z
" clip-path="url(#pb32ee25f6e)" style="stroke: #000000"/>
    <path d="M 50.889073 144.183594 
C 51.482086 144.183594 52.050889 143.947988 52.470212 143.528665 
C 52.889535 143.109342 53.125141 142.540538 53.125141 141.947526 
C 53.125141 141.354514 52.889535 140.78571 52.470212 140.366387 
C 52.050889 139.947064 51.482086 139.711458 50.889073 139.711458 
C 50.296061 139.711458 49.727257 139.947064 49.307935 140.366387 
C 48.888612 140.78571 48.653005 141.354514 48.653005 141.947526 
C 48.653005 142.540538 48.888612 143.109342 49.307935 143.528665 
C 49.727257 143.947988 50.296061 144.183594 50.889073 144.183594 
z
" clip-path="url(#pb32ee25f6e)" style="stroke: #000000"/>
    <path d="M 42.044926 112.846065 
C 42.638309 112.846065 43.207468 112.610312 43.627053 112.190727 
C 44.046637 111.771142 44.282391 111.201983 44.282391 110.608601 
C 44.282391 110.015219 44.046637 109.44606 43.627053 109.026475 
C 43.207468 108.60689 42.638309 108.371137 42.044926 108.371137 
C 41.451544 108.371137 40.882385 108.60689 40.4628 109.026475 
C 40.043216 109.44606 39.807462 110.015219 39.807462 110.608601 
C 39.807462 111.201983 40.043216 111.771142 40.4628 112.190727 
C 40.882385 112.610312 41.451544 112.846065 42.044926 112.846065 
z
" clip-path="url(#pb32ee25f6e)" style="stroke: #000000"/>
    <path d="M 39.865104 101.076875 
C 40.458116 101.076875 41.02692 100.841269 41.446243 100.421946 
C 41.865566 100.002623 42.101172 99.433819 42.101172 98.840807 
C 42.101172 98.247795 41.865566 97.678991 41.446243 97.259668 
C 41.02692 96.840345 40.458116 96.604739 39.865104 96.604739 
C 39.272092 96.604739 38.703288 96.840345 38.283965 97.259668 
C 37.864643 97.678991 37.629036 98.247795 37.629036 98.840807 
C 37.629036 99.433819 37.864643 100.002623 38.283965 100.421946 
C 38.703288 100.841269 39.272092 101.076875 39.865104 101.076875 
z
" clip-path="url(#pb32ee25f6e)" style="stroke: #000000"/>
    <path d="M 37.898601 125.96746 
C 38.491983 125.96746 39.061142 125.731707 39.480727 125.312122 
C 39.900311 124.892537 40.136065 124.323378 40.136065 123.729996 
C 40.136065 123.136613 39.900311 122.567454 39.480727 122.14787 
C 39.061142 121.728285 38.491983 121.492531 37.898601 121.492531 
C 37.305218 121.492531 36.736059 121.728285 36.316474 122.14787 
C 35.89689 122.567454 35.661136 123.136613 35.661136 123.729996 
C 35.661136 124.323378 35.89689 124.892537 36.316474 125.312122 
C 36.736059 125.731707 37.305218 125.96746 37.898601 125.96746 
z
" clip-path="url(#pb32ee25f6e)" style="stroke: #000000"/>
    <path d="M 32.944619 113.335383 
C 33.537631 113.335383 34.106435 113.099776 34.525758 112.680454 
C 34.945081 112.261131 35.180687 111.692327 35.180687 111.099315 
C 35.180687 110.506303 34.945081 109.937499 34.525758 109.518176 
C 34.106435 109.098853 33.537631 108.863247 32.944619 108.863247 
C 32.351607 108.863247 31.782803 109.098853 31.36348 109.518176 
C 30.944157 109.937499 30.708551 110.506303 30.708551 111.099315 
C 30.708551 111.692327 30.944157 112.261131 31.36348 112.680454 
C 31.782803 113.099776 32.351607 113.335383 32.944619 113.335383 
z
" clip-path="url(#pb32ee25f6e)" style="stroke: #000000"/>
    <path d="M 40.40762 168.782141 
C 40.605905 168.782141 40.796096 168.703362 40.936305 168.563152 
C 41.076515 168.422943 41.155294 168.232752 41.155294 168.034467 
C 41.155294 167.836181 41.076515 167.64599 40.936305 167.505781 
C 40.796096 167.365572 40.605905 167.286792 40.40762 167.286792 
C 40.209334 167.286792 40.019143 167.365572 39.878934 167.505781 
C 39.738725 167.64599 39.659945 167.836181 39.659945 168.034467 
C 39.659945 168.232752 39.738725 168.422943 39.878934 168.563152 
C 40.019143 168.703362 40.209334 168.782141 40.40762 168.782141 
z
" clip-path="url(#pb32ee25f6e)" style="stroke: #000000"/>
    <path d="M 28.883332 141.209489 
C 29.354937 141.209489 29.80729 141.022118 30.140765 140.688643 
C 30.474241 140.355168 30.661611 139.902815 30.661611 139.43121 
C 30.661611 138.959604 30.474241 138.507251 30.140765 138.173776 
C 29.80729 137.840301 29.354937 137.65293 28.883332 137.65293 
C 28.411727 137.65293 27.959374 137.840301 27.625898 138.173776 
C 27.292423 138.507251 27.105052 138.959604 27.105052 139.43121 
C 27.105052 139.902815 27.292423 140.355168 27.625898 140.688643 
C 27.959374 141.022118 28.411727 141.209489 28.883332 141.209489 
z
" clip-path="url(#pb32ee25f6e)" style="stroke: #000000"/>
    <path d="M 27.575633 130.265153 
C 28.168646 130.265153 28.737449 130.029546 29.156772 129.610224 
C 29.576095 129.190901 29.811701 128.622097 29.811701 128.029085 
C 29.811701 127.436073 29.576095 126.867269 29.156772 126.447946 
C 28.737449 126.028623 28.168646 125.793017 27.575633 125.793017 
C 26.982621 125.793017 26.413817 126.028623 25.994495 126.447946 
C 25.575172 126.867269 25.339565 127.436073 25.339565 128.029085 
C 25.339565 128.622097 25.575172 129.190901 25.994495 129.610224 
C 26.413817 130.029546 26.982621 130.265153 27.575633 130.265153 
z
" clip-path="url(#pb32ee25f6e)" style="stroke: #000000"/>
   </g>
   <g id="matplotlib.axis_1">
    <g id="xtick_1">
     <g id="line2d_1">
      <defs>
       <path id="m8975858261" d="M 0 0 
L 0 3.5 
" style="stroke: #000000; stroke-width: 0.8"/>
      </defs>
      <g>
       <use xlink:href="#m8975858261" x="18" y="189" style="stroke: #000000; stroke-width: 0.8"/>
      </g>
     </g>
     <g id="text_1">
      <!-- −10 -->
      <g transform="translate(7.447656 203.598437)scale(0.1 -0.1)">
       <defs>
        <path id="DejaVuSans-2212" d="M 678 2272 
L 4684 2272 
L 4684 1741 
L 678 1741 
L 678 2272 
z
" transform="scale(0.015625)"/>
        <path id="DejaVuSans-31" d="M 794 531 
L 1825 531 
L 1825 4091 
L 703 3866 
L 703 4441 
L 1819 4666 
L 2450 4666 
L 2450 531 
L 3481 531 
L 3481 0 
L 794 0 
L 794 531 
z
" transform="scale(0.015625)"/>
        <path id="DejaVuSans-30" d="M 2034 4250 
Q 1547 4250 1301 3770 
Q 1056 3291 1056 2328 
Q 1056 1369 1301 889 
Q 1547 409 2034 409 
Q 2525 409 2770 889 
Q 3016 1369 3016 2328 
Q 3016 3291 2770 3770 
Q 2525 4250 2034 4250 
z
M 2034 4750 
Q 2819 4750 3233 4129 
Q 3647 3509 3647 2328 
Q 3647 1150 3233 529 
Q 2819 -91 2034 -91 
Q 1250 -91 836 529 
Q 422 1150 422 2328 
Q 422 3509 836 4129 
Q 1250 4750 2034 4750 
z
" transform="scale(0.015625)"/>
       </defs>
       <use xlink:href="#DejaVuSans-2212"/>
       <use xlink:href="#DejaVuSans-31" x="83.789062"/>
       <use xlink:href="#DejaVuSans-30" x="147.412109"/>
      </g>
     </g>
    </g>
    <g id="xtick_2">
     <g id="line2d_2">
      <g>
       <use xlink:href="#m8975858261" x="73.8" y="189" style="stroke: #000000; stroke-width: 0.8"/>
      </g>
     </g>
     <g id="text_2">
      <!-- 0 -->
      <g transform="translate(70.61875 203.598437)scale(0.1 -0.1)">
       <use xlink:href="#DejaVuSans-30"/>
      </g>
     </g>
    </g>
    <g id="xtick_3">
     <g id="line2d_3">
      <g>
       <use xlink:href="#m8975858261" x="129.6" y="189" style="stroke: #000000; stroke-width: 0.8"/>
      </g>
     </g>
     <g id="text_3">
      <!-- 10 -->
      <g transform="translate(123.2375 203.598437)scale(0.1 -0.1)">
       <use xlink:href="#DejaVuSans-31"/>
       <use xlink:href="#DejaVuSans-30" x="63.623047"/>
      </g>
     </g>
    </g>
   </g>
   <g id="matplotlib.axis_2">
    <g id="ytick_1">
     <g id="line2d_4">
      <defs>
       <path id="mfcbb296519" d="M 0 0 
L -3.5 0 
" style="stroke: #000000; stroke-width: 0.8"/>
      </defs>
      <g>
       <use xlink:href="#mfcbb296519" x="18" y="189" style="stroke: #000000; stroke-width: 0.8"/>
      </g>
     </g>
     <g id="text_4">
      <!-- −15 -->
      <g transform="translate(-10.104688 192.799219)scale(0.1 -0.1)">
       <defs>
        <path id="DejaVuSans-35" d="M 691 4666 
L 3169 4666 
L 3169 4134 
L 1269 4134 
L 1269 2991 
Q 1406 3038 1543 3061 
Q 1681 3084 1819 3084 
Q 2600 3084 3056 2656 
Q 3513 2228 3513 1497 
Q 3513 744 3044 326 
Q 2575 -91 1722 -91 
Q 1428 -91 1123 -41 
Q 819 9 494 109 
L 494 744 
Q 775 591 1075 516 
Q 1375 441 1709 441 
Q 2250 441 2565 725 
Q 2881 1009 2881 1497 
Q 2881 1984 2565 2268 
Q 2250 2553 1709 2553 
Q 1456 2553 1204 2497 
Q 953 2441 691 2322 
L 691 4666 
z
" transform="scale(0.015625)"/>
       </defs>
       <use xlink:href="#DejaVuSans-2212"/>
       <use xlink:href="#DejaVuSans-31" x="83.789062"/>
       <use xlink:href="#DejaVuSans-35" x="147.412109"/>
      </g>
     </g>
    </g>
    <g id="ytick_2">
     <g id="line2d_5">
      <g>
       <use xlink:href="#mfcbb296519" x="18" y="161.82" style="stroke: #000000; stroke-width: 0.8"/>
      </g>
     </g>
     <g id="text_5">
      <!-- −10 -->
      <g transform="translate(-10.104688 165.619219)scale(0.1 -0.1)">
       <use xlink:href="#DejaVuSans-2212"/>
       <use xlink:href="#DejaVuSans-31" x="83.789062"/>
       <use xlink:href="#DejaVuSans-30" x="147.412109"/>
      </g>
     </g>
    </g>
    <g id="ytick_3">
     <g id="line2d_6">
      <g>
       <use xlink:href="#mfcbb296519" x="18" y="134.64" style="stroke: #000000; stroke-width: 0.8"/>
      </g>
     </g>
     <g id="text_6">
      <!-- −5 -->
      <g transform="translate(-3.742188 138.439219)scale(0.1 -0.1)">
       <use xlink:href="#DejaVuSans-2212"/>
       <use xlink:href="#DejaVuSans-35" x="83.789062"/>
      </g>
     </g>
    </g>
    <g id="ytick_4">
     <g id="line2d_7">
      <g>
       <use xlink:href="#mfcbb296519" x="18" y="107.46" style="stroke: #000000; stroke-width: 0.8"/>
      </g>
     </g>
     <g id="text_7">
      <!-- 0 -->
      <g transform="translate(4.6375 111.259219)scale(0.1 -0.1)">
       <use xlink:href="#DejaVuSans-30"/>
      </g>
     </g>
    </g>
    <g id="ytick_5">
     <g id="line2d_8">
      <g>
       <use xlink:href="#mfcbb296519" x="18" y="80.28" style="stroke: #000000; stroke-width: 0.8"/>
      </g>
     </g>
     <g id="text_8">
      <!-- 5 -->
      <g transform="translate(4.6375 84.079219)scale(0.1 -0.1)">
       <use xlink:href="#DejaVuSans-35"/>
      </g>
     </g>
    </g>
    <g id="ytick_6">
     <g id="line2d_9">
      <g>
       <use xlink:href="#mfcbb296519" x="18" y="53.1" style="stroke: #000000; stroke-width: 0.8"/>
      </g>
     </g>
     <g id="text_9">
      <!-- 10 -->
      <g transform="translate(-1.725 56.899219)scale(0.1 -0.1)">
       <use xlink:href="#DejaVuSans-31"/>
       <use xlink:href="#DejaVuSans-30" x="63.623047"/>
      </g>
     </g>
    </g>
    <g id="ytick_7">
     <g id="line2d_10">
      <g>
       <use xlink:href="#mfcbb296519" x="18" y="25.92" style="stroke: #000000; stroke-width: 0.8"/>
      </g>
     </g>
     <g id="text_10">
      <!-- 15 -->
      <g transform="translate(-1.725 29.719219)scale(0.1 -0.1)">
       <use xlink:href="#DejaVuSans-31"/>
       <use xlink:href="#DejaVuSans-35" x="63.623047"/>
      </g>
     </g>
    </g>
   </g>
   <g id="patch_3">
    <path d="M 18 189 
L 18 25.92 
" style="fill: none; stroke: #000000; stroke-width: 0.8; stroke-linejoin: miter; stroke-linecap: square"/>
   </g>
   <g id="patch_4">
    <path d="M 129.6 189 
L 129.6 25.92 
" style="fill: none; stroke: #000000; stroke-width: 0.8; stroke-linejoin: miter; stroke-linecap: square"/>
   </g>
   <g id="patch_5">
    <path d="M 18 189 
L 129.6 189 
" style="fill: none; stroke: #000000; stroke-width: 0.8; stroke-linejoin: miter; stroke-linecap: square"/>
   </g>
   <g id="patch_6">
    <path d="M 18 25.92 
L 129.6 25.92 
" style="fill: none; stroke: #000000; stroke-width: 0.8; stroke-linejoin: miter; stroke-linecap: square"/>
   </g>
  </g>
 </g>
 <defs>
  <clipPath id="pb32ee25f6e">
   <rect x="18" y="25.92" width="111.6" height="163.08"/>
  </clipPath>
 </defs>
</svg>
