<?xml version="1.0" encoding="utf-8" standalone="no"?>
<!DOCTYPE svg PUBLIC "-//W3C//DTD SVG 1.1//EN"
  "http://www.w3.org/Graphics/SVG/1.1/DTD/svg11.dtd">
<svg xmlns:xlink="http://www.w3.org/1999/xlink" width="144pt" height="216pt" viewBox="0 0 144 216" xmlns="http://www.w3.org/2000/svg" version="1.1">
 <metadata>
  <rdf:RDF xmlns:dc="http://purl.org/dc/elements/1.1/" xmlns:cc="http://creativecommons.org/ns#" xmlns:rdf="http://www.w3.org/1999/02/22-rdf-syntax-ns#">
   <cc:Work>
    <dc:type rdf:resource="http://purl.org/dc/dcmitype/StillImage"/>
    <dc:date>2022-06-23T14:45:59.749020</dc:date>
    <dc:format>image/svg+xml</dc:format>
    <dc:creator>
     <cc:Agent>
      <dc:title>Matplotlib v3.5.1, https://matplotlib.org/</dc:title>
     </cc:Agent>
    </dc:creator>
   </cc:Work>
  </rdf:RDF>
 </metadata>
 <defs>
  <style type="text/css">*{stroke-linejoin: round; stroke-linecap: butt}</style>
 </defs>
 <g id="figure_1">
  <g id="patch_1">
   <path d="M 0 216 
L 144 216 
L 144 0 
L 0 0 
L 0 216 
z
" style="fill: none"/>
  </g>
  <g id="axes_1">
   <g id="patch_2">
    <path d="M 18 189 
L 129.6 189 
L 129.6 25.92 
L 18 25.92 
z
" style="fill: #ffffff"/>
   </g>
   <g id="PathCollection_1">
    <defs>
     <path id="m3760d260ee" d="M 0 2.738613 
C 0.726289 2.738613 1.422928 2.450055 1.936492 1.936492 
C 2.450055 1.422928 2.738613 0.726289 2.738613 0 
C 2.738613 -0.726289 2.450055 -1.422928 1.936492 -1.936492 
C 1.422928 -2.450055 0.726289 -2.738613 0 -2.738613 
C -0.726289 -2.738613 -1.422928 -2.450055 -1.936492 -1.936492 
C -2.450055 -1.422928 -2.738613 -0.726289 -2.738613 0 
C -2.738613 0.726289 -2.450055 1.422928 -1.936492 1.936492 
C -1.422928 2.450055 -0.726289 2.738613 0 2.738613 
z
" style="stroke: #ff0000; stroke-width: 1.75"/>
    </defs>
    <g clip-path="url(#pb4a39f2ad7)">
     <use xlink:href="#m3760d260ee" x="66.825" y="83.92143" style="fill: #ff0000; stroke: #ff0000; stroke-width: 1.75"/>
     <use xlink:href="#m3760d260ee" x="87.75" y="95.690715" style="fill: #ff0000; stroke: #ff0000; stroke-width: 1.75"/>
     <use xlink:href="#m3760d260ee" x="66.825" y="107.46" style="fill: #ff0000; stroke: #ff0000; stroke-width: 1.75"/>
     <use xlink:href="#m3760d260ee" x="73.8" y="119.229285" style="fill: #ff0000; stroke: #ff0000; stroke-width: 1.75"/>
     <use xlink:href="#m3760d260ee" x="87.75" y="119.229285" style="fill: #ff0000; stroke: #ff0000; stroke-width: 1.75"/>
     <use xlink:href="#m3760d260ee" x="66.825" y="130.99857" style="fill: #ff0000; stroke: #ff0000; stroke-width: 1.75"/>
     <use xlink:href="#m3760d260ee" x="80.775" y="130.99857" style="fill: #ff0000; stroke: #ff0000; stroke-width: 1.75"/>
    </g>
   </g>
   <g id="PathCollection_2">
    <defs>
     <path id="C0_0_d3de049f32" d="M 0 2.738613 
C 0.726289 2.738613 1.422928 2.450055 1.936492 1.936492 
C 2.450055 1.422928 2.738613 0.726289 2.738613 -0 
C 2.738613 -0.726289 2.450055 -1.422928 1.936492 -1.936492 
C 1.422928 -2.450055 0.726289 -2.738613 0 -2.738613 
C -0.726289 -2.738613 -1.422928 -2.450055 -1.936492 -1.936492 
C -2.450055 -1.422928 -2.738613 -0.726289 -2.738613 0 
C -2.738613 0.726289 -2.450055 1.422928 -1.936492 1.936492 
C -1.422928 2.450055 -0.726289 2.738613 0 2.738613 
z
"/>
    </defs>
    <g clip-path="url(#pb4a39f2ad7)">
     <use xlink:href="#C0_0_d3de049f32" x="80.775" y="83.92143" style="fill: none; stroke: #ff0000; stroke-width: 1.75"/>
    </g>
    <g clip-path="url(#pb4a39f2ad7)">
     <use xlink:href="#C0_0_d3de049f32" x="59.85" y="95.690715" style="fill: none; stroke: #ff0000; stroke-width: 1.75"/>
    </g>
    <g clip-path="url(#pb4a39f2ad7)">
     <use xlink:href="#C0_0_d3de049f32" x="73.8" y="95.690715" style="fill: none; stroke: #ff0000; stroke-width: 1.75"/>
    </g>
    <g clip-path="url(#pb4a39f2ad7)">
     <use xlink:href="#C0_0_d3de049f32" x="52.875" y="107.46" style="fill: none; stroke: #ff0000; stroke-width: 1.75"/>
    </g>
    <g clip-path="url(#pb4a39f2ad7)">
     <use xlink:href="#C0_0_d3de049f32" x="80.775" y="107.46" style="fill: none; stroke: #ff0000; stroke-width: 1.75"/>
    </g>
    <g clip-path="url(#pb4a39f2ad7)">
     <use xlink:href="#C0_0_d3de049f32" x="94.725" y="107.46" style="fill: none; stroke: #ff0000; stroke-width: 1.75"/>
    </g>
    <g clip-path="url(#pb4a39f2ad7)">
     <use xlink:href="#C0_0_d3de049f32" x="59.85" y="119.229285" style="fill: none; stroke: #ff0000; stroke-width: 1.75"/>
    </g>
   </g>
   <g id="PathCollection_3">
    <path d="M 113.538817 101.567705 
C 114.131086 101.567705 114.699178 101.332394 115.117975 100.913596 
C 115.536773 100.494799 115.772084 99.926707 115.772084 99.334438 
C 115.772084 98.742168 115.536773 98.174077 115.117975 97.755279 
C 114.699178 97.336481 114.131086 97.10117 113.538817 97.10117 
C 112.946547 97.10117 112.378456 97.336481 111.959658 97.755279 
C 111.54086 98.174077 111.305549 98.742168 111.305549 99.334438 
C 111.305549 99.926707 111.54086 100.494799 111.959658 100.913596 
C 112.378456 101.332394 112.946547 101.567705 113.538817 101.567705 
z
" clip-path="url(#pb4a39f2ad7)" style="stroke: #000000"/>
    <path d="M 109.849647 92.073819 
C 110.443029 92.073819 111.012188 91.838066 111.431773 91.418481 
C 111.851358 90.998896 112.087111 90.429737 112.087111 89.836355 
C 112.087111 89.242972 111.851358 88.673813 111.431773 88.254229 
C 111.012188 87.834644 110.443029 87.598891 109.849647 87.598891 
C 109.256265 87.598891 108.687106 87.834644 108.267521 88.254229 
C 107.847936 88.673813 107.612183 89.242972 107.612183 89.836355 
C 107.612183 90.429737 107.847936 90.998896 108.267521 91.418481 
C 108.687106 91.838066 109.256265 92.073819 109.849647 92.073819 
z
" clip-path="url(#pb4a39f2ad7)" style="stroke: #000000"/>
    <path d="M 100.135534 73.134115 
C 100.676009 73.134115 101.194421 72.919382 101.576595 72.537208 
C 101.958769 72.155034 102.173502 71.636622 102.173502 71.096147 
C 102.173502 70.555672 101.958769 70.03726 101.576595 69.655086 
C 101.194421 69.272913 100.676009 69.058179 100.135534 69.058179 
C 99.595059 69.058179 99.076647 69.272913 98.694473 69.655086 
C 98.3123 70.03726 98.097566 70.555672 98.097566 71.096147 
C 98.097566 71.636622 98.3123 72.155034 98.694473 72.537208 
C 99.076647 72.919382 99.595059 73.134115 100.135534 73.134115 
z
" clip-path="url(#pb4a39f2ad7)" style="stroke: #000000"/>
    <path d="M 94.700942 61.388052 
C 95.293954 61.388052 95.862757 61.152445 96.28208 60.733122 
C 96.701403 60.3138 96.93701 59.744996 96.93701 59.151984 
C 96.93701 58.558971 96.701403 57.990168 96.28208 57.570845 
C 95.862757 57.151522 95.293954 56.915916 94.700942 56.915916 
C 94.107929 56.915916 93.539126 57.151522 93.119803 57.570845 
C 92.70048 57.990168 92.464874 58.558971 92.464874 59.151984 
C 92.464874 59.744996 92.70048 60.3138 93.119803 60.733122 
C 93.539126 61.152445 94.107929 61.388052 94.700942 61.388052 
z
" clip-path="url(#pb4a39f2ad7)" style="stroke: #000000"/>
    <path d="M 90.288723 45.434583 
C 90.824737 45.434583 91.33887 45.221622 91.717889 44.842602 
C 92.096909 44.463583 92.30987 43.94945 92.30987 43.413436 
C 92.30987 42.877422 92.096909 42.363289 91.717889 41.98427 
C 91.33887 41.60525 90.824737 41.392289 90.288723 41.392289 
C 89.752709 41.392289 89.238576 41.60525 88.859556 41.98427 
C 88.480537 42.363289 88.267576 42.877422 88.267576 43.413436 
C 88.267576 43.94945 88.480537 44.463583 88.859556 44.842602 
C 89.238576 45.221622 89.752709 45.434583 90.288723 45.434583 
z
" clip-path="url(#pb4a39f2ad7)" style="stroke: #000000"/>
    <path d="M 104.552852 116.695304 
C 105.258287 116.695304 105.934923 116.415032 106.433741 115.916214 
C 106.932558 115.417397 107.212831 114.74076 107.212831 114.035325 
C 107.212831 113.329891 106.932558 112.653254 106.433741 112.154437 
C 105.934923 111.655619 105.258287 111.375347 104.552852 111.375347 
C 103.847417 111.375347 103.170781 111.655619 102.671963 112.154437 
C 102.173146 112.653254 101.892873 113.329891 101.892873 114.035325 
C 101.892873 114.74076 102.173146 115.417397 102.671963 115.916214 
C 103.170781 116.415032 103.847417 116.695304 104.552852 116.695304 
z
" clip-path="url(#pb4a39f2ad7)" style="stroke: #000000"/>
    <path d="M 100.165759 102.915898 
C 100.701773 102.915898 101.215906 102.702938 101.594925 102.323918 
C 101.973945 101.944899 102.186905 101.430766 102.186905 100.894752 
C 102.186905 100.358738 101.973945 99.844605 101.594925 99.465585 
C 101.215906 99.086566 100.701773 98.873605 100.165759 98.873605 
C 99.629744 98.873605 99.115612 99.086566 98.736592 99.465585 
C 98.357573 99.844605 98.144612 100.358738 98.144612 100.894752 
C 98.144612 101.430766 98.357573 101.944899 98.736592 102.323918 
C 99.115612 102.702938 99.629744 102.915898 100.165759 102.915898 
z
" clip-path="url(#pb4a39f2ad7)" style="stroke: #000000"/>
    <path d="M 95.980206 85.821581 
C 96.573219 85.821581 97.142022 85.585975 97.561345 85.166652 
C 97.980668 84.747329 98.216274 84.178525 98.216274 83.585513 
C 98.216274 82.992501 97.980668 82.423697 97.561345 82.004374 
C 97.142022 81.585051 96.573219 81.349445 95.980206 81.349445 
C 95.387194 81.349445 94.818391 81.585051 94.399068 82.004374 
C 93.979745 82.423697 93.744138 82.992501 93.744138 83.585513 
C 93.744138 84.178525 93.979745 84.747329 94.399068 85.166652 
C 94.818391 85.585975 95.387194 85.821581 95.980206 85.821581 
z
" clip-path="url(#pb4a39f2ad7)" style="stroke: #000000"/>
    <path d="M 84.585762 62.591803 
C 84.743452 62.591803 84.894706 62.529152 85.00621 62.417648 
C 85.117714 62.306144 85.180365 62.154891 85.180365 61.9972 
C 85.180365 61.839509 85.117714 61.688256 85.00621 61.576752 
C 84.894706 61.465247 84.743452 61.402596 84.585762 61.402596 
C 84.428071 61.402596 84.276818 61.465247 84.165314 61.576752 
C 84.053809 61.688256 83.991158 61.839509 83.991158 61.9972 
C 83.991158 62.154891 84.053809 62.306144 84.165314 62.417648 
C 84.276818 62.529152 84.428071 62.591803 84.585762 62.591803 
z
" clip-path="url(#pb4a39f2ad7)" style="stroke: #000000"/>
    <path d="M 78.786689 52.327325 
C 79.374823 52.327325 79.938948 52.093657 80.354822 51.677783 
C 80.770695 51.26191 81.004364 50.697785 81.004364 50.109651 
C 81.004364 49.521517 80.770695 48.957392 80.354822 48.541518 
C 79.938948 48.125645 79.374823 47.891977 78.786689 47.891977 
C 78.198555 47.891977 77.63443 48.125645 77.218557 48.541518 
C 76.802683 48.957392 76.569015 49.521517 76.569015 50.109651 
C 76.569015 50.697785 76.802683 51.26191 77.218557 51.677783 
C 77.63443 52.093657 78.198555 52.327325 78.786689 52.327325 
z
" clip-path="url(#pb4a39f2ad7)" style="stroke: #000000"/>
    <path d="M 75.381983 36.575958 
C 75.917997 36.575958 76.43213 36.362997 76.811149 35.983978 
C 77.190169 35.604959 77.403129 35.090826 77.403129 34.554812 
C 77.403129 34.018797 77.190169 33.504664 76.811149 33.125645 
C 76.43213 32.746626 75.917997 32.533665 75.381983 32.533665 
C 74.845968 32.533665 74.331836 32.746626 73.952816 33.125645 
C 73.573797 33.504664 73.360836 34.018797 73.360836 34.554812 
C 73.360836 35.090826 73.573797 35.604959 73.952816 35.983978 
C 74.331836 36.362997 74.845968 36.575958 75.381983 36.575958 
z
" clip-path="url(#pb4a39f2ad7)" style="stroke: #000000"/>
    <path d="M 114.467865 170.766203 
C 115.056378 170.766203 115.620867 170.532384 116.037009 170.116242 
C 116.453151 169.7001 116.68697 169.135611 116.68697 168.547097 
C 116.68697 167.958584 116.453151 167.394095 116.037009 166.977953 
C 115.620867 166.561811 115.056378 166.327992 114.467865 166.327992 
C 113.879351 166.327992 113.314862 166.561811 112.89872 166.977953 
C 112.482578 167.394095 112.248759 167.958584 112.248759 168.547097 
C 112.248759 169.135611 112.482578 169.7001 112.89872 170.116242 
C 113.314862 170.532384 113.879351 170.766203 114.467865 170.766203 
z
" clip-path="url(#pb4a39f2ad7)" style="stroke: #000000"/>
    <path d="M 105.660472 157.253099 
C 106.16764 157.253099 106.654104 157.051599 107.012726 156.692977 
C 107.371348 156.334354 107.572848 155.84789 107.572848 155.340722 
C 107.572848 154.833554 107.371348 154.34709 107.012726 153.988467 
C 106.654104 153.629845 106.16764 153.428345 105.660472 153.428345 
C 105.153303 153.428345 104.666839 153.629845 104.308217 153.988467 
C 103.949595 154.34709 103.748095 154.833554 103.748095 155.340722 
C 103.748095 155.84789 103.949595 156.334354 104.308217 156.692977 
C 104.666839 157.051599 105.153303 157.253099 105.660472 157.253099 
z
" clip-path="url(#pb4a39f2ad7)" style="stroke: #000000"/>
    <path d="M 102.022431 149.154313 
C 102.615814 149.154313 103.184973 148.918559 103.604557 148.498975 
C 104.024142 148.07939 104.259896 147.510231 104.259896 146.916848 
C 104.259896 146.323466 104.024142 145.754307 103.604557 145.334722 
C 103.184973 144.915138 102.615814 144.679384 102.022431 144.679384 
C 101.429049 144.679384 100.85989 144.915138 100.440305 145.334722 
C 100.020721 145.754307 99.784967 146.323466 99.784967 146.916848 
C 99.784967 147.510231 100.020721 148.07939 100.440305 148.498975 
C 100.85989 148.918559 101.429049 149.154313 102.022431 149.154313 
z
" clip-path="url(#pb4a39f2ad7)" style="stroke: #000000"/>
    <path d="M 98.350769 137.480195 
C 98.943782 137.480195 99.512585 137.244588 99.931908 136.825265 
C 100.351231 136.405942 100.586837 135.837139 100.586837 135.244127 
C 100.586837 134.651114 100.351231 134.082311 99.931908 133.662988 
C 99.512585 133.243665 98.943782 133.008059 98.350769 133.008059 
C 97.757757 133.008059 97.188954 133.243665 96.769631 133.662988 
C 96.350308 134.082311 96.114702 134.651114 96.114702 135.244127 
C 96.114702 135.837139 96.350308 136.405942 96.769631 136.825265 
C 97.188954 137.244588 97.757757 137.480195 98.350769 137.480195 
z
" clip-path="url(#pb4a39f2ad7)" style="stroke: #000000"/>
    <path d="M 98.624231 127.419615 
C 98.756832 127.419615 98.884021 127.366932 98.977784 127.273168 
C 99.071548 127.179405 99.124231 127.052216 99.124231 126.919615 
C 99.124231 126.787013 99.071548 126.659825 98.977784 126.566061 
C 98.884021 126.472298 98.756832 126.419615 98.624231 126.419615 
C 98.491629 126.419615 98.364441 126.472298 98.270677 126.566061 
C 98.176914 126.659825 98.124231 126.787013 98.124231 126.919615 
C 98.124231 127.052216 98.176914 127.179405 98.270677 127.273168 
C 98.364441 127.366932 98.491629 127.419615 98.624231 127.419615 
z
" clip-path="url(#pb4a39f2ad7)" style="stroke: #000000"/>
    <path d="M 94.214171 118.539789 
C 94.776751 118.539789 95.316366 118.316273 95.714171 117.918468 
C 96.111975 117.520664 96.335491 116.981049 96.335491 116.418468 
C 96.335491 115.855887 96.111975 115.316273 95.714171 114.918468 
C 95.316366 114.520664 94.776751 114.297148 94.214171 114.297148 
C 93.65159 114.297148 93.111975 114.520664 92.714171 114.918468 
C 92.316366 115.316273 92.09285 115.855887 92.09285 116.418468 
C 92.09285 116.981049 92.316366 117.520664 92.714171 117.918468 
C 93.111975 118.316273 93.65159 118.539789 94.214171 118.539789 
z
" clip-path="url(#pb4a39f2ad7)" style="stroke: #000000"/>
    <path d="M 81.207001 87.195376 
C 81.730541 87.195376 82.232709 86.987371 82.602908 86.617172 
C 82.973107 86.246973 83.181112 85.744805 83.181112 85.221265 
C 83.181112 84.697725 82.973107 84.195557 82.602908 83.825358 
C 82.232709 83.455159 81.730541 83.247154 81.207001 83.247154 
C 80.68346 83.247154 80.181292 83.455159 79.811094 83.825358 
C 79.440895 84.195557 79.23289 84.697725 79.23289 85.221265 
C 79.23289 85.744805 79.440895 86.246973 79.811094 86.617172 
C 80.181292 86.987371 80.68346 87.195376 81.207001 87.195376 
z
" clip-path="url(#pb4a39f2ad7)" style="stroke: #000000"/>
    <path d="M 77.311818 64.537005 
C 77.90483 64.537005 78.473634 64.301399 78.892957 63.882076 
C 79.31228 63.462753 79.547886 62.893949 79.547886 62.300937 
C 79.547886 61.707925 79.31228 61.139121 78.892957 60.719798 
C 78.473634 60.300475 77.90483 60.064869 77.311818 60.064869 
C 76.718806 60.064869 76.150002 60.300475 75.730679 60.719798 
C 75.311356 61.139121 75.07575 61.707925 75.07575 62.300937 
C 75.07575 62.893949 75.311356 63.462753 75.730679 63.882076 
C 76.150002 64.301399 76.718806 64.537005 77.311818 64.537005 
z
" clip-path="url(#pb4a39f2ad7)" style="stroke: #000000"/>
    <path d="M 61.452651 32.380086 
C 61.875084 32.380086 62.280272 32.212251 62.578977 31.913546 
C 62.877683 31.614841 63.045517 31.209653 63.045517 30.78722 
C 63.045517 30.364787 62.877683 29.959598 62.578977 29.660893 
C 62.280272 29.362188 61.875084 29.194353 61.452651 29.194353 
C 61.030218 29.194353 60.62503 29.362188 60.326324 29.660893 
C 60.027619 29.959598 59.859785 30.364787 59.859785 30.78722 
C 59.859785 31.209653 60.027619 31.614841 60.326324 31.913546 
C 60.62503 32.212251 61.030218 32.380086 61.452651 32.380086 
z
" clip-path="url(#pb4a39f2ad7)" style="stroke: #000000"/>
    <path d="M 102.321707 175.003278 
C 102.914719 175.003278 103.483522 174.767672 103.902845 174.348349 
C 104.322168 173.929026 104.557775 173.360223 104.557775 172.76721 
C 104.557775 172.174198 104.322168 171.605395 103.902845 171.186072 
C 103.483522 170.766749 102.914719 170.531143 102.321707 170.531143 
C 101.728694 170.531143 101.159891 170.766749 100.740568 171.186072 
C 100.321245 171.605395 100.085639 172.174198 100.085639 172.76721 
C 100.085639 173.360223 100.321245 173.929026 100.740568 174.348349 
C 101.159891 174.767672 101.728694 175.003278 102.321707 175.003278 
z
" clip-path="url(#pb4a39f2ad7)" style="stroke: #000000"/>
    <path d="M 95.943327 161.541692 
C 96.195114 161.541692 96.436623 161.441656 96.614664 161.263615 
C 96.792705 161.085574 96.892741 160.844065 96.892741 160.592278 
C 96.892741 160.34049 96.792705 160.098981 96.614664 159.92094 
C 96.436623 159.7429 96.195114 159.642863 95.943327 159.642863 
C 95.691539 159.642863 95.45003 159.7429 95.271989 159.92094 
C 95.093948 160.098981 94.993912 160.34049 94.993912 160.592278 
C 94.993912 160.844065 95.093948 161.085574 95.271989 161.263615 
C 95.45003 161.441656 95.691539 161.541692 95.943327 161.541692 
z
" clip-path="url(#pb4a39f2ad7)" style="stroke: #000000"/>
    <path d="M 94.928142 151.83923 
C 95.521525 151.83923 96.090684 151.603477 96.510268 151.183892 
C 96.929853 150.764307 97.165606 150.195148 97.165606 149.601766 
C 97.165606 149.008383 96.929853 148.439225 96.510268 148.01964 
C 96.090684 147.600055 95.521525 147.364302 94.928142 147.364302 
C 94.33476 147.364302 93.765601 147.600055 93.346016 148.01964 
C 92.926431 148.439225 92.690678 149.008383 92.690678 149.601766 
C 92.690678 150.195148 92.926431 150.764307 93.346016 151.183892 
C 93.765601 151.603477 94.33476 151.83923 94.928142 151.83923 
z
" clip-path="url(#pb4a39f2ad7)" style="stroke: #000000"/>
    <path d="M 82.496118 135.702865 
C 83.031126 135.702865 83.544293 135.490304 83.9226 135.111997 
C 84.300908 134.733689 84.513469 134.220522 84.513469 133.685514 
C 84.513469 133.150506 84.300908 132.637339 83.9226 132.259031 
C 83.544293 131.880724 83.031126 131.668163 82.496118 131.668163 
C 81.96111 131.668163 81.447943 131.880724 81.069635 132.259031 
C 80.691328 132.637339 80.478767 133.150506 80.478767 133.685514 
C 80.478767 134.220522 80.691328 134.733689 81.069635 135.111997 
C 81.447943 135.490304 81.96111 135.702865 82.496118 135.702865 
z
" clip-path="url(#pb4a39f2ad7)" style="stroke: #000000"/>
    <path d="M 86.103442 122.553925 
C 86.808876 122.553925 87.485513 122.273653 87.98433 121.774835 
C 88.483148 121.276018 88.76342 120.599381 88.76342 119.893946 
C 88.76342 119.188512 88.483148 118.511875 87.98433 118.013058 
C 87.485513 117.51424 86.808876 117.233968 86.103442 117.233968 
C 85.398007 117.233968 84.72137 117.51424 84.222553 118.013058 
C 83.723735 118.511875 83.443463 119.188512 83.443463 119.893946 
C 83.443463 120.599381 83.723735 121.276018 84.222553 121.774835 
C 84.72137 122.273653 85.398007 122.553925 86.103442 122.553925 
z
" clip-path="url(#pb4a39f2ad7)" style="stroke: #000000"/>
    <path d="M 77.13128 110.03284 
C 77.836715 110.03284 78.513351 109.752568 79.012169 109.253751 
C 79.510986 108.754933 79.791259 108.078296 79.791259 107.372862 
C 79.791259 106.667427 79.510986 105.99079 79.012169 105.491973 
C 78.513351 104.993155 77.836715 104.712883 77.13128 104.712883 
C 76.425845 104.712883 75.749209 104.993155 75.250391 105.491973 
C 74.751574 105.99079 74.471301 106.667427 74.471301 107.372862 
C 74.471301 108.078296 74.751574 108.754933 75.250391 109.253751 
C 75.749209 109.752568 76.425845 110.03284 77.13128 110.03284 
z
" clip-path="url(#pb4a39f2ad7)" style="stroke: #000000"/>
    <path d="M 77.96754 101.501671 
C 78.672974 101.501671 79.349611 101.221398 79.848429 100.722581 
C 80.347246 100.223763 80.627518 99.547127 80.627518 98.841692 
C 80.627518 98.136257 80.347246 97.459621 79.848429 96.960803 
C 79.349611 96.461986 78.672974 96.181713 77.96754 96.181713 
C 77.262105 96.181713 76.585469 96.461986 76.086651 96.960803 
C 75.587833 97.459621 75.307561 98.136257 75.307561 98.841692 
C 75.307561 99.547127 75.587833 100.223763 76.086651 100.722581 
C 76.585469 101.221398 77.262105 101.501671 77.96754 101.501671 
z
" clip-path="url(#pb4a39f2ad7)" style="stroke: #000000"/>
    <path d="M 72.619707 94.213321 
C 73.246113 94.213321 73.846947 93.964447 74.289883 93.521511 
C 74.732819 93.078575 74.981693 92.477741 74.981693 91.851335 
C 74.981693 91.224929 74.732819 90.624094 74.289883 90.181158 
C 73.846947 89.738222 73.246113 89.489349 72.619707 89.489349 
C 71.993301 89.489349 71.392466 89.738222 70.94953 90.181158 
C 70.506594 90.624094 70.257721 91.224929 70.257721 91.851335 
C 70.257721 92.477741 70.506594 93.078575 70.94953 93.521511 
C 71.392466 93.964447 71.993301 94.213321 72.619707 94.213321 
z
" clip-path="url(#pb4a39f2ad7)" style="stroke: #000000"/>
    <path d="M 73.260253 84.945711 
C 73.965687 84.945711 74.642324 84.665439 75.141142 84.166621 
C 75.639959 83.667804 75.920231 82.991167 75.920231 82.285733 
C 75.920231 81.580298 75.639959 80.903661 75.141142 80.404844 
C 74.642324 79.906026 73.965687 79.625754 73.260253 79.625754 
C 72.554818 79.625754 71.878181 79.906026 71.379364 80.404844 
C 70.880546 80.903661 70.600274 81.580298 70.600274 82.285733 
C 70.600274 82.991167 70.880546 83.667804 71.379364 84.166621 
C 71.878181 84.665439 72.554818 84.945711 73.260253 84.945711 
z
" clip-path="url(#pb4a39f2ad7)" style="stroke: #000000"/>
    <path d="M 63.982717 59.154316 
C 64.57573 59.154316 65.144533 58.91871 65.563856 58.499387 
C 65.983179 58.080064 66.218785 57.51126 66.218785 56.918248 
C 66.218785 56.325236 65.983179 55.756432 65.563856 55.337109 
C 65.144533 54.917786 64.57573 54.68218 63.982717 54.68218 
C 63.389705 54.68218 62.820902 54.917786 62.401579 55.337109 
C 61.982256 55.756432 61.746649 56.325236 61.746649 56.918248 
C 61.746649 57.51126 61.982256 58.080064 62.401579 58.499387 
C 62.820902 58.91871 63.389705 59.154316 63.982717 59.154316 
z
" clip-path="url(#pb4a39f2ad7)" style="stroke: #000000"/>
    <path d="M 75.851835 133.909123 
C 76.364827 133.909123 76.856877 133.705309 77.219617 133.342569 
C 77.582357 132.979829 77.786171 132.487779 77.786171 131.974787 
C 77.786171 131.461795 77.582357 130.969745 77.219617 130.607004 
C 76.856877 130.244264 76.364827 130.04045 75.851835 130.04045 
C 75.338843 130.04045 74.846792 130.244264 74.484052 130.607004 
C 74.121312 130.969745 73.917498 131.461795 73.917498 131.974787 
C 73.917498 132.487779 74.121312 132.979829 74.484052 133.342569 
C 74.846792 133.705309 75.338843 133.909123 75.851835 133.909123 
z
" clip-path="url(#pb4a39f2ad7)" style="stroke: #000000"/>
    <path d="M 61.245077 97.412032 
C 61.842125 97.412032 62.4148 97.174822 62.836976 96.752646 
C 63.259153 96.330469 63.496362 95.757795 63.496362 95.160747 
C 63.496362 94.563699 63.259153 93.991025 62.836976 93.568848 
C 62.4148 93.146672 61.842125 92.909462 61.245077 92.909462 
C 60.64803 92.909462 60.075355 93.146672 59.653178 93.568848 
C 59.231002 93.991025 58.993792 94.563699 58.993792 95.160747 
C 58.993792 95.757795 59.231002 96.330469 59.653178 96.752646 
C 60.075355 97.174822 60.64803 97.412032 61.245077 97.412032 
z
" clip-path="url(#pb4a39f2ad7)" style="stroke: #000000"/>
    <path d="M 60.161563 87.590823 
C 60.866998 87.590823 61.543635 87.310551 62.042452 86.811734 
C 62.54127 86.312916 62.821542 85.636279 62.821542 84.930845 
C 62.821542 84.22541 62.54127 83.548774 62.042452 83.049956 
C 61.543635 82.551138 60.866998 82.270866 60.161563 82.270866 
C 59.456129 82.270866 58.779492 82.551138 58.280675 83.049956 
C 57.781857 83.548774 57.501585 84.22541 57.501585 84.930845 
C 57.501585 85.636279 57.781857 86.312916 58.280675 86.811734 
C 58.779492 87.310551 59.456129 87.590823 60.161563 87.590823 
z
" clip-path="url(#pb4a39f2ad7)" style="stroke: #000000"/>
    <path d="M 67.213407 139.658179 
C 67.918621 139.658179 68.595047 139.377995 69.093709 138.879333 
C 69.59237 138.380671 69.872555 137.704246 69.872555 136.999031 
C 69.872555 136.293817 69.59237 135.617392 69.093709 135.11873 
C 68.595047 134.620068 67.918621 134.339883 67.213407 134.339883 
C 66.508193 134.339883 65.831767 134.620068 65.333105 135.11873 
C 64.834444 135.617392 64.554259 136.293817 64.554259 136.999031 
C 64.554259 137.704246 64.834444 138.380671 65.333105 138.879333 
C 65.831767 139.377995 66.508193 139.658179 67.213407 139.658179 
z
" clip-path="url(#pb4a39f2ad7)" style="stroke: #000000"/>
    <path d="M 60.087019 132.280157 
C 60.792233 132.280157 61.468659 131.999972 61.967321 131.50131 
C 62.465982 131.002649 62.746167 130.326223 62.746167 129.621009 
C 62.746167 128.915794 62.465982 128.239369 61.967321 127.740707 
C 61.468659 127.242045 60.792233 126.961861 60.087019 126.961861 
C 59.381805 126.961861 58.705379 127.242045 58.206717 127.740707 
C 57.708056 128.239369 57.427871 128.915794 57.427871 129.621009 
C 57.427871 130.326223 57.708056 131.002649 58.206717 131.50131 
C 58.705379 131.999972 59.381805 132.280157 60.087019 132.280157 
z
" clip-path="url(#pb4a39f2ad7)" style="stroke: #000000"/>
    <path d="M 58.993056 116.408026 
C 59.515516 116.408026 60.016648 116.200451 60.386082 115.831016 
C 60.755517 115.461581 60.963093 114.96045 60.963093 114.43799 
C 60.963093 113.91553 60.755517 113.414399 60.386082 113.044964 
C 60.016648 112.675529 59.515516 112.467953 58.993056 112.467953 
C 58.470597 112.467953 57.969465 112.675529 57.60003 113.044964 
C 57.230595 113.414399 57.02302 113.91553 57.02302 114.43799 
C 57.02302 114.96045 57.230595 115.461581 57.60003 115.831016 
C 57.969465 116.200451 58.470597 116.408026 58.993056 116.408026 
z
" clip-path="url(#pb4a39f2ad7)" style="stroke: #000000"/>
    <path d="M 48.64347 95.38221 
C 49.26446 95.38221 49.8601 95.135488 50.299207 94.696381 
C 50.738313 94.257275 50.985035 93.661635 50.985035 93.040645 
C 50.985035 92.419654 50.738313 91.824014 50.299207 91.384908 
C 49.8601 90.945801 49.26446 90.699079 48.64347 90.699079 
C 48.02248 90.699079 47.42684 90.945801 46.987733 91.384908 
C 46.548627 91.824014 46.301905 92.419654 46.301905 93.040645 
C 46.301905 93.661635 46.548627 94.257275 46.987733 94.696381 
C 47.42684 95.135488 48.02248 95.38221 48.64347 95.38221 
z
" clip-path="url(#pb4a39f2ad7)" style="stroke: #000000"/>
    <path d="M 47.004396 88.330073 
C 47.597778 88.330073 48.166937 88.09432 48.586522 87.674735 
C 49.006106 87.25515 49.24186 86.685992 49.24186 86.092609 
C 49.24186 85.499227 49.006106 84.930068 48.586522 84.510483 
C 48.166937 84.090898 47.597778 83.855145 47.004396 83.855145 
C 46.411013 83.855145 45.841854 84.090898 45.422269 84.510483 
C 45.002685 84.930068 44.766931 85.499227 44.766931 86.092609 
C 44.766931 86.685992 45.002685 87.25515 45.422269 87.674735 
C 45.841854 88.09432 46.411013 88.330073 47.004396 88.330073 
z
" clip-path="url(#pb4a39f2ad7)" style="stroke: #000000"/>
    <path d="M 39.078823 78.026163 
C 39.571131 78.026163 40.043342 77.830567 40.391457 77.482453 
C 40.739571 77.134338 40.935167 76.662128 40.935167 76.169819 
C 40.935167 75.677511 40.739571 75.205301 40.391457 74.857186 
C 40.043342 74.509072 39.571131 74.313476 39.078823 74.313476 
C 38.586515 74.313476 38.114304 74.509072 37.76619 74.857186 
C 37.418076 75.205301 37.22248 75.677511 37.22248 76.169819 
C 37.22248 76.662128 37.418076 77.134338 37.76619 77.482453 
C 38.114304 77.830567 38.586515 78.026163 39.078823 78.026163 
z
" clip-path="url(#pb4a39f2ad7)" style="stroke: #000000"/>
    <path d="M 67.306816 171.655537 
C 67.48133 171.655537 67.648719 171.586202 67.772119 171.462802 
C 67.895518 171.339403 67.964853 171.172013 67.964853 170.9975 
C 67.964853 170.822986 67.895518 170.655597 67.772119 170.532197 
C 67.648719 170.408798 67.48133 170.339463 67.306816 170.339463 
C 67.132303 170.339463 66.964913 170.408798 66.841514 170.532197 
C 66.718114 170.655597 66.648779 170.822986 66.648779 170.9975 
C 66.648779 171.172013 66.718114 171.339403 66.841514 171.462802 
C 66.964913 171.586202 67.132303 171.655537 67.306816 171.655537 
z
" clip-path="url(#pb4a39f2ad7)" style="stroke: #000000"/>
    <path d="M 56.795638 154.477988 
C 57.38828 154.477988 57.956728 154.242529 58.375788 153.823469 
C 58.794849 153.404408 59.030308 152.83596 59.030308 152.243319 
C 59.030308 151.650678 58.794849 151.08223 58.375788 150.663169 
C 57.956728 150.244109 57.38828 150.00865 56.795638 150.00865 
C 56.202997 150.00865 55.634549 150.244109 55.215489 150.663169 
C 54.796428 151.08223 54.560969 151.650678 54.560969 152.243319 
C 54.560969 152.83596 54.796428 153.404408 55.215489 153.823469 
C 55.634549 154.242529 56.202997 154.477988 56.795638 154.477988 
z
" clip-path="url(#pb4a39f2ad7)" style="stroke: #000000"/>
    <path d="M 49.486676 140.183098 
C 50.013947 140.183098 50.519693 139.973611 50.892529 139.600774 
C 51.265366 139.227938 51.474853 138.722192 51.474853 138.194921 
C 51.474853 137.66765 51.265366 137.161904 50.892529 136.789068 
C 50.519693 136.416231 50.013947 136.206744 49.486676 136.206744 
C 48.959405 136.206744 48.453659 136.416231 48.080823 136.789068 
C 47.707986 137.161904 47.498499 137.66765 47.498499 138.194921 
C 47.498499 138.722192 47.707986 139.227938 48.080823 139.600774 
C 48.453659 139.973611 48.959405 140.183098 49.486676 140.183098 
z
" clip-path="url(#pb4a39f2ad7)" style="stroke: #000000"/>
    <path d="M 44.970759 120.753299 
C 45.564141 120.753299 46.1333 120.517546 46.552885 120.097961 
C 46.97247 119.678376 47.208223 119.109217 47.208223 118.515835 
C 47.208223 117.922452 46.97247 117.353293 46.552885 116.933709 
C 46.1333 116.514124 45.564141 116.27837 44.970759 116.27837 
C 44.377376 116.27837 43.808217 116.514124 43.388633 116.933709 
C 42.969048 117.353293 42.733294 117.922452 42.733294 118.515835 
C 42.733294 119.109217 42.969048 119.678376 43.388633 120.097961 
C 43.808217 120.517546 44.377376 120.753299 44.970759 120.753299 
z
" clip-path="url(#pb4a39f2ad7)" style="stroke: #000000"/>
    <path d="M 34.800361 92.015691 
C 35.393373 92.015691 35.962177 91.780084 36.3815 91.360762 
C 36.800823 90.941439 37.036429 90.372635 37.036429 89.779623 
C 37.036429 89.186611 36.800823 88.617807 36.3815 88.198484 
C 35.962177 87.779161 35.393373 87.543555 34.800361 87.543555 
C 34.207349 87.543555 33.638545 87.779161 33.219222 88.198484 
C 32.799899 88.617807 32.564293 89.186611 32.564293 89.779623 
C 32.564293 90.372635 32.799899 90.941439 33.219222 91.360762 
C 33.638545 91.780084 34.207349 92.015691 34.800361 92.015691 
z
" clip-path="url(#pb4a39f2ad7)" style="stroke: #000000"/>
    <path d="M 34.033423 81.435065 
C 34.428749 81.435065 34.807937 81.278 35.087475 80.998463 
C 35.367012 80.718925 35.524077 80.339737 35.524077 79.944411 
C 35.524077 79.549085 35.367012 79.169898 35.087475 78.89036 
C 34.807937 78.610822 34.428749 78.453758 34.033423 78.453758 
C 33.638097 78.453758 33.25891 78.610822 32.979372 78.89036 
C 32.699834 79.169898 32.54277 79.549085 32.54277 79.944411 
C 32.54277 80.339737 32.699834 80.718925 32.979372 80.998463 
C 33.25891 81.278 33.638097 81.435065 34.033423 81.435065 
z
" clip-path="url(#pb4a39f2ad7)" style="stroke: #000000"/>
    <path d="M 50.700238 164.666808 
C 51.29325 164.666808 51.862054 164.431201 52.281377 164.011879 
C 52.7007 163.592556 52.936306 163.023752 52.936306 162.43074 
C 52.936306 161.837728 52.7007 161.268924 52.281377 160.849601 
C 51.862054 160.430278 51.29325 160.194672 50.700238 160.194672 
C 50.107226 160.194672 49.538422 160.430278 49.1191 160.849601 
C 48.699777 161.268924 48.46417 161.837728 48.46417 162.43074 
C 48.46417 163.023752 48.699777 163.592556 49.1191 164.011879 
C 49.538422 164.431201 50.107226 164.666808 50.700238 164.666808 
z
" clip-path="url(#pb4a39f2ad7)" style="stroke: #000000"/>
    <path d="M 42.214328 137.638694 
C 42.664638 137.638694 43.096565 137.459784 43.414983 137.141367 
C 43.7334 136.82295 43.91231 136.391023 43.91231 135.940713 
C 43.91231 135.490403 43.7334 135.058476 43.414983 134.740059 
C 43.096565 134.421641 42.664638 134.242731 42.214328 134.242731 
C 41.764019 134.242731 41.332092 134.421641 41.013674 134.740059 
C 40.695257 135.058476 40.516347 135.490403 40.516347 135.940713 
C 40.516347 136.391023 40.695257 136.82295 41.013674 137.141367 
C 41.332092 137.459784 41.764019 137.638694 42.214328 137.638694 
z
" clip-path="url(#pb4a39f2ad7)" style="stroke: #000000"/>
    <path d="M 34.200141 149.367773 
C 34.415827 149.367773 34.622709 149.28208 34.775222 149.129567 
C 34.927736 148.977053 35.013429 148.770172 35.013429 148.554485 
C 35.013429 148.338798 34.927736 148.131917 34.775222 147.979403 
C 34.622709 147.82689 34.415827 147.741197 34.200141 147.741197 
C 33.984454 147.741197 33.777572 147.82689 33.625059 147.979403 
C 33.472546 148.131917 33.386852 148.338798 33.386852 148.554485 
C 33.386852 148.770172 33.472546 148.977053 33.625059 149.129567 
C 33.777572 149.28208 33.984454 149.367773 34.200141 149.367773 
z
" clip-path="url(#pb4a39f2ad7)" style="stroke: #000000"/>
   </g>
   <g id="matplotlib.axis_1">
    <g id="xtick_1">
     <g id="line2d_1">
      <defs>
       <path id="mfc751b1fe6" d="M 0 0 
L 0 3.5 
" style="stroke: #000000; stroke-width: 0.8"/>
      </defs>
      <g>
       <use xlink:href="#mfc751b1fe6" x="18" y="189" style="stroke: #000000; stroke-width: 0.8"/>
      </g>
     </g>
     <g id="text_1">
      <!-- −10 -->
      <g transform="translate(7.447656 203.598437)scale(0.1 -0.1)">
       <defs>
        <path id="DejaVuSans-2212" d="M 678 2272 
L 4684 2272 
L 4684 1741 
L 678 1741 
L 678 2272 
z
" transform="scale(0.015625)"/>
        <path id="DejaVuSans-31" d="M 794 531 
L 1825 531 
L 1825 4091 
L 703 3866 
L 703 4441 
L 1819 4666 
L 2450 4666 
L 2450 531 
L 3481 531 
L 3481 0 
L 794 0 
L 794 531 
z
" transform="scale(0.015625)"/>
        <path id="DejaVuSans-30" d="M 2034 4250 
Q 1547 4250 1301 3770 
Q 1056 3291 1056 2328 
Q 1056 1369 1301 889 
Q 1547 409 2034 409 
Q 2525 409 2770 889 
Q 3016 1369 3016 2328 
Q 3016 3291 2770 3770 
Q 2525 4250 2034 4250 
z
M 2034 4750 
Q 2819 4750 3233 4129 
Q 3647 3509 3647 2328 
Q 3647 1150 3233 529 
Q 2819 -91 2034 -91 
Q 1250 -91 836 529 
Q 422 1150 422 2328 
Q 422 3509 836 4129 
Q 1250 4750 2034 4750 
z
" transform="scale(0.015625)"/>
       </defs>
       <use xlink:href="#DejaVuSans-2212"/>
       <use xlink:href="#DejaVuSans-31" x="83.789062"/>
       <use xlink:href="#DejaVuSans-30" x="147.412109"/>
      </g>
     </g>
    </g>
    <g id="xtick_2">
     <g id="line2d_2">
      <g>
       <use xlink:href="#mfc751b1fe6" x="73.8" y="189" style="stroke: #000000; stroke-width: 0.8"/>
      </g>
     </g>
     <g id="text_2">
      <!-- 0 -->
      <g transform="translate(70.61875 203.598437)scale(0.1 -0.1)">
       <use xlink:href="#DejaVuSans-30"/>
      </g>
     </g>
    </g>
    <g id="xtick_3">
     <g id="line2d_3">
      <g>
       <use xlink:href="#mfc751b1fe6" x="129.6" y="189" style="stroke: #000000; stroke-width: 0.8"/>
      </g>
     </g>
     <g id="text_3">
      <!-- 10 -->
      <g transform="translate(123.2375 203.598437)scale(0.1 -0.1)">
       <use xlink:href="#DejaVuSans-31"/>
       <use xlink:href="#DejaVuSans-30" x="63.623047"/>
      </g>
     </g>
    </g>
   </g>
   <g id="matplotlib.axis_2">
    <g id="ytick_1">
     <g id="line2d_4">
      <defs>
       <path id="m9c9cda4afd" d="M 0 0 
L -3.5 0 
" style="stroke: #000000; stroke-width: 0.8"/>
      </defs>
      <g>
       <use xlink:href="#m9c9cda4afd" x="18" y="189" style="stroke: #000000; stroke-width: 0.8"/>
      </g>
     </g>
     <g id="text_4">
      <!-- −15 -->
      <g transform="translate(-10.104688 192.799219)scale(0.1 -0.1)">
       <defs>
        <path id="DejaVuSans-35" d="M 691 4666 
L 3169 4666 
L 3169 4134 
L 1269 4134 
L 1269 2991 
Q 1406 3038 1543 3061 
Q 1681 3084 1819 3084 
Q 2600 3084 3056 2656 
Q 3513 2228 3513 1497 
Q 3513 744 3044 326 
Q 2575 -91 1722 -91 
Q 1428 -91 1123 -41 
Q 819 9 494 109 
L 494 744 
Q 775 591 1075 516 
Q 1375 441 1709 441 
Q 2250 441 2565 725 
Q 2881 1009 2881 1497 
Q 2881 1984 2565 2268 
Q 2250 2553 1709 2553 
Q 1456 2553 1204 2497 
Q 953 2441 691 2322 
L 691 4666 
z
" transform="scale(0.015625)"/>
       </defs>
       <use xlink:href="#DejaVuSans-2212"/>
       <use xlink:href="#DejaVuSans-31" x="83.789062"/>
       <use xlink:href="#DejaVuSans-35" x="147.412109"/>
      </g>
     </g>
    </g>
    <g id="ytick_2">
     <g id="line2d_5">
      <g>
       <use xlink:href="#m9c9cda4afd" x="18" y="161.82" style="stroke: #000000; stroke-width: 0.8"/>
      </g>
     </g>
     <g id="text_5">
      <!-- −10 -->
      <g transform="translate(-10.104688 165.619219)scale(0.1 -0.1)">
       <use xlink:href="#DejaVuSans-2212"/>
       <use xlink:href="#DejaVuSans-31" x="83.789062"/>
       <use xlink:href="#DejaVuSans-30" x="147.412109"/>
      </g>
     </g>
    </g>
    <g id="ytick_3">
     <g id="line2d_6">
      <g>
       <use xlink:href="#m9c9cda4afd" x="18" y="134.64" style="stroke: #000000; stroke-width: 0.8"/>
      </g>
     </g>
     <g id="text_6">
      <!-- −5 -->
      <g transform="translate(-3.742188 138.439219)scale(0.1 -0.1)">
       <use xlink:href="#DejaVuSans-2212"/>
       <use xlink:href="#DejaVuSans-35" x="83.789062"/>
      </g>
     </g>
    </g>
    <g id="ytick_4">
     <g id="line2d_7">
      <g>
       <use xlink:href="#m9c9cda4afd" x="18" y="107.46" style="stroke: #000000; stroke-width: 0.8"/>
      </g>
     </g>
     <g id="text_7">
      <!-- 0 -->
      <g transform="translate(4.6375 111.259219)scale(0.1 -0.1)">
       <use xlink:href="#DejaVuSans-30"/>
      </g>
     </g>
    </g>
    <g id="ytick_5">
     <g id="line2d_8">
      <g>
       <use xlink:href="#m9c9cda4afd" x="18" y="80.28" style="stroke: #000000; stroke-width: 0.8"/>
      </g>
     </g>
     <g id="text_8">
      <!-- 5 -->
      <g transform="translate(4.6375 84.079219)scale(0.1 -0.1)">
       <use xlink:href="#DejaVuSans-35"/>
      </g>
     </g>
    </g>
    <g id="ytick_6">
     <g id="line2d_9">
      <g>
       <use xlink:href="#m9c9cda4afd" x="18" y="53.1" style="stroke: #000000; stroke-width: 0.8"/>
      </g>
     </g>
     <g id="text_9">
      <!-- 10 -->
      <g transform="translate(-1.725 56.899219)scale(0.1 -0.1)">
       <use xlink:href="#DejaVuSans-31"/>
       <use xlink:href="#DejaVuSans-30" x="63.623047"/>
      </g>
     </g>
    </g>
    <g id="ytick_7">
     <g id="line2d_10">
      <g>
       <use xlink:href="#m9c9cda4afd" x="18" y="25.92" style="stroke: #000000; stroke-width: 0.8"/>
      </g>
     </g>
     <g id="text_10">
      <!-- 15 -->
      <g transform="translate(-1.725 29.719219)scale(0.1 -0.1)">
       <use xlink:href="#DejaVuSans-31"/>
       <use xlink:href="#DejaVuSans-35" x="63.623047"/>
      </g>
     </g>
    </g>
   </g>
   <g id="patch_3">
    <path d="M 18 189 
L 18 25.92 
" style="fill: none; stroke: #000000; stroke-width: 0.8; stroke-linejoin: miter; stroke-linecap: square"/>
   </g>
   <g id="patch_4">
    <path d="M 129.6 189 
L 129.6 25.92 
" style="fill: none; stroke: #000000; stroke-width: 0.8; stroke-linejoin: miter; stroke-linecap: square"/>
   </g>
   <g id="patch_5">
    <path d="M 18 189 
L 129.6 189 
" style="fill: none; stroke: #000000; stroke-width: 0.8; stroke-linejoin: miter; stroke-linecap: square"/>
   </g>
   <g id="patch_6">
    <path d="M 18 25.92 
L 129.6 25.92 
" style="fill: none; stroke: #000000; stroke-width: 0.8; stroke-linejoin: miter; stroke-linecap: square"/>
   </g>
  </g>
 </g>
 <defs>
  <clipPath id="pb4a39f2ad7">
   <rect x="18" y="25.92" width="111.6" height="163.08"/>
  </clipPath>
 </defs>
</svg>
