<?xml version="1.0" encoding="utf-8" standalone="no"?>
<!DOCTYPE svg PUBLIC "-//W3C//DTD SVG 1.1//EN"
  "http://www.w3.org/Graphics/SVG/1.1/DTD/svg11.dtd">
<svg xmlns:xlink="http://www.w3.org/1999/xlink" width="144pt" height="216pt" viewBox="0 0 144 216" xmlns="http://www.w3.org/2000/svg" version="1.1">
 <metadata>
  <rdf:RDF xmlns:dc="http://purl.org/dc/elements/1.1/" xmlns:cc="http://creativecommons.org/ns#" xmlns:rdf="http://www.w3.org/1999/02/22-rdf-syntax-ns#">
   <cc:Work>
    <dc:type rdf:resource="http://purl.org/dc/dcmitype/StillImage"/>
    <dc:date>2022-06-28T09:26:00.355111</dc:date>
    <dc:format>image/svg+xml</dc:format>
    <dc:creator>
     <cc:Agent>
      <dc:title>Matplotlib v3.5.1, https://matplotlib.org/</dc:title>
     </cc:Agent>
    </dc:creator>
   </cc:Work>
  </rdf:RDF>
 </metadata>
 <defs>
  <style type="text/css">*{stroke-linejoin: round; stroke-linecap: butt}</style>
 </defs>
 <g id="figure_1">
  <g id="patch_1">
   <path d="M 0 216 
L 144 216 
L 144 0 
L 0 0 
L 0 216 
z
" style="fill: none"/>
  </g>
  <g id="axes_1">
   <g id="patch_2">
    <path d="M 18 189 
L 129.6 189 
L 129.6 25.92 
L 18 25.92 
z
" style="fill: #ffffff"/>
   </g>
   <g id="PathCollection_1">
    <defs>
     <path id="m2f676094f8" d="M 0 2.738613 
C 0.726289 2.738613 1.422928 2.450055 1.936492 1.936492 
C 2.450055 1.422928 2.738613 0.726289 2.738613 0 
C 2.738613 -0.726289 2.450055 -1.422928 1.936492 -1.936492 
C 1.422928 -2.450055 0.726289 -2.738613 0 -2.738613 
C -0.726289 -2.738613 -1.422928 -2.450055 -1.936492 -1.936492 
C -2.450055 -1.422928 -2.738613 -0.726289 -2.738613 0 
C -2.738613 0.726289 -2.450055 1.422928 -1.936492 1.936492 
C -1.422928 2.450055 -0.726289 2.738613 0 2.738613 
z
" style="stroke: #ff0000; stroke-width: 1.75"/>
    </defs>
    <g clip-path="url(#p22f129776e)">
     <use xlink:href="#m2f676094f8" x="80.775" y="83.92143" style="fill: #ff0000; stroke: #ff0000; stroke-width: 1.75"/>
     <use xlink:href="#m2f676094f8" x="59.85" y="95.690715" style="fill: #ff0000; stroke: #ff0000; stroke-width: 1.75"/>
     <use xlink:href="#m2f676094f8" x="66.825" y="107.46" style="fill: #ff0000; stroke: #ff0000; stroke-width: 1.75"/>
     <use xlink:href="#m2f676094f8" x="80.775" y="107.46" style="fill: #ff0000; stroke: #ff0000; stroke-width: 1.75"/>
     <use xlink:href="#m2f676094f8" x="94.725" y="107.46" style="fill: #ff0000; stroke: #ff0000; stroke-width: 1.75"/>
     <use xlink:href="#m2f676094f8" x="59.85" y="119.229285" style="fill: #ff0000; stroke: #ff0000; stroke-width: 1.75"/>
     <use xlink:href="#m2f676094f8" x="80.775" y="130.99857" style="fill: #ff0000; stroke: #ff0000; stroke-width: 1.75"/>
    </g>
   </g>
   <g id="PathCollection_2">
    <defs>
     <path id="C0_0_5dde4eeabf" d="M 0 2.738613 
C 0.726289 2.738613 1.422928 2.450055 1.936492 1.936492 
C 2.450055 1.422928 2.738613 0.726289 2.738613 -0 
C 2.738613 -0.726289 2.450055 -1.422928 1.936492 -1.936492 
C 1.422928 -2.450055 0.726289 -2.738613 0 -2.738613 
C -0.726289 -2.738613 -1.422928 -2.450055 -1.936492 -1.936492 
C -2.450055 -1.422928 -2.738613 -0.726289 -2.738613 0 
C -2.738613 0.726289 -2.450055 1.422928 -1.936492 1.936492 
C -1.422928 2.450055 -0.726289 2.738613 0 2.738613 
z
"/>
    </defs>
    <g clip-path="url(#p22f129776e)">
     <use xlink:href="#C0_0_5dde4eeabf" x="66.825" y="83.92143" style="fill: none; stroke: #ff0000; stroke-width: 1.75"/>
    </g>
    <g clip-path="url(#p22f129776e)">
     <use xlink:href="#C0_0_5dde4eeabf" x="73.8" y="95.690715" style="fill: none; stroke: #ff0000; stroke-width: 1.75"/>
    </g>
    <g clip-path="url(#p22f129776e)">
     <use xlink:href="#C0_0_5dde4eeabf" x="87.75" y="95.690715" style="fill: none; stroke: #ff0000; stroke-width: 1.75"/>
    </g>
    <g clip-path="url(#p22f129776e)">
     <use xlink:href="#C0_0_5dde4eeabf" x="52.875" y="107.46" style="fill: none; stroke: #ff0000; stroke-width: 1.75"/>
    </g>
    <g clip-path="url(#p22f129776e)">
     <use xlink:href="#C0_0_5dde4eeabf" x="73.8" y="119.229285" style="fill: none; stroke: #ff0000; stroke-width: 1.75"/>
    </g>
    <g clip-path="url(#p22f129776e)">
     <use xlink:href="#C0_0_5dde4eeabf" x="87.75" y="119.229285" style="fill: none; stroke: #ff0000; stroke-width: 1.75"/>
    </g>
    <g clip-path="url(#p22f129776e)">
     <use xlink:href="#C0_0_5dde4eeabf" x="66.825" y="130.99857" style="fill: none; stroke: #ff0000; stroke-width: 1.75"/>
    </g>
   </g>
   <g id="PathCollection_3">
    <path d="M 113.955675 130.958262 
C 114.088277 130.958262 114.215465 130.905579 114.309229 130.811816 
C 114.402992 130.718052 114.455675 130.590864 114.455675 130.458262 
C 114.455675 130.325661 114.402992 130.198472 114.309229 130.104709 
C 114.215465 130.010945 114.088277 129.958262 113.955675 129.958262 
C 113.823074 129.958262 113.695885 130.010945 113.602122 130.104709 
C 113.508359 130.198472 113.455675 130.325661 113.455675 130.458262 
C 113.455675 130.590864 113.508359 130.718052 113.602122 130.811816 
C 113.695885 130.905579 113.823074 130.958262 113.955675 130.958262 
z
" clip-path="url(#p22f129776e)" style="stroke: #000000"/>
    <path d="M 95.898739 109.931301 
C 96.491751 109.931301 97.060555 109.695695 97.479878 109.276372 
C 97.8992 108.857049 98.134807 108.288245 98.134807 107.695233 
C 98.134807 107.102221 97.8992 106.533417 97.479878 106.114094 
C 97.060555 105.694771 96.491751 105.459165 95.898739 105.459165 
C 95.305727 105.459165 94.736923 105.694771 94.3176 106.114094 
C 93.898277 106.533417 93.662671 107.102221 93.662671 107.695233 
C 93.662671 108.288245 93.898277 108.857049 94.3176 109.276372 
C 94.736923 109.695695 95.305727 109.931301 95.898739 109.931301 
z
" clip-path="url(#p22f129776e)" style="stroke: #000000"/>
    <path d="M 90.950318 96.880465 
C 91.448355 96.880465 91.926061 96.682593 92.278227 96.330427 
C 92.630393 95.978261 92.828265 95.500555 92.828265 95.002518 
C 92.828265 94.504481 92.630393 94.026775 92.278227 93.674609 
C 91.926061 93.322444 91.448355 93.124571 90.950318 93.124571 
C 90.452281 93.124571 89.974575 93.322444 89.622409 93.674609 
C 89.270244 94.026775 89.072371 94.504481 89.072371 95.002518 
C 89.072371 95.500555 89.270244 95.978261 89.622409 96.330427 
C 89.974575 96.682593 90.452281 96.880465 90.950318 96.880465 
z
" clip-path="url(#p22f129776e)" style="stroke: #000000"/>
    <path d="M 83.806265 88.832733 
C 84.282946 88.832733 84.740167 88.643346 85.077232 88.306281 
C 85.414296 87.969217 85.603683 87.511996 85.603683 87.035315 
C 85.603683 86.558634 85.414296 86.101413 85.077232 85.764348 
C 84.740167 85.427284 84.282946 85.237897 83.806265 85.237897 
C 83.329584 85.237897 82.872363 85.427284 82.535298 85.764348 
C 82.198234 86.101413 82.008847 86.558634 82.008847 87.035315 
C 82.008847 87.511996 82.198234 87.969217 82.535298 88.306281 
C 82.872363 88.643346 83.329584 88.832733 83.806265 88.832733 
z
" clip-path="url(#p22f129776e)" style="stroke: #000000"/>
    <path d="M 82.027689 83.903675 
C 82.371129 83.903675 82.70055 83.767224 82.943399 83.524375 
C 83.186248 83.281526 83.322699 82.952105 83.322699 82.608665 
C 83.322699 82.265224 83.186248 81.935804 82.943399 81.692954 
C 82.70055 81.450105 82.371129 81.313655 82.027689 81.313655 
C 81.684248 81.313655 81.354827 81.450105 81.111978 81.692954 
C 80.869129 81.935804 80.732678 82.265224 80.732678 82.608665 
C 80.732678 82.952105 80.869129 83.281526 81.111978 83.524375 
C 81.354827 83.767224 81.684248 83.903675 82.027689 83.903675 
z
" clip-path="url(#p22f129776e)" style="stroke: #000000"/>
    <path d="M 87.829291 120.833661 
C 88.212842 120.833661 88.580736 120.681275 88.851947 120.410063 
C 89.123159 120.138852 89.275545 119.770958 89.275545 119.387407 
C 89.275545 119.003856 89.123159 118.635963 88.851947 118.364752 
C 88.580736 118.09354 88.212842 117.941154 87.829291 117.941154 
C 87.44574 117.941154 87.077847 118.09354 86.806635 118.364752 
C 86.535424 118.635963 86.383037 119.003856 86.383037 119.387407 
C 86.383037 119.770958 86.535424 120.138852 86.806635 120.410063 
C 87.077847 120.681275 87.44574 120.833661 87.829291 120.833661 
z
" clip-path="url(#p22f129776e)" style="stroke: #000000"/>
    <path d="M 85.082684 106.770042 
C 85.369864 106.770042 85.64532 106.655944 85.848387 106.452877 
C 86.051454 106.24981 86.165552 105.974353 86.165552 105.687173 
C 86.165552 105.399993 86.051454 105.124537 85.848387 104.92147 
C 85.64532 104.718403 85.369864 104.604305 85.082684 104.604305 
C 84.795504 104.604305 84.520047 104.718403 84.31698 104.92147 
C 84.113913 105.124537 83.999815 105.399993 83.999815 105.687173 
C 83.999815 105.974353 84.113913 106.24981 84.31698 106.452877 
C 84.520047 106.655944 84.795504 106.770042 85.082684 106.770042 
z
" clip-path="url(#p22f129776e)" style="stroke: #000000"/>
    <path d="M 79.813118 108.319023 
C 80.04279 108.319023 80.263087 108.227773 80.42549 108.06537 
C 80.587893 107.902967 80.679143 107.68267 80.679143 107.452998 
C 80.679143 107.223325 80.587893 107.003028 80.42549 106.840625 
C 80.263087 106.678222 80.04279 106.586972 79.813118 106.586972 
C 79.583445 106.586972 79.363148 106.678222 79.200745 106.840625 
C 79.038342 107.003028 78.947092 107.223325 78.947092 107.452998 
C 78.947092 107.68267 79.038342 107.902967 79.200745 108.06537 
C 79.363148 108.227773 79.583445 108.319023 79.813118 108.319023 
z
" clip-path="url(#p22f129776e)" style="stroke: #000000"/>
    <path d="M 75.354814 95.477223 
C 75.729868 95.477223 76.089611 95.328212 76.354814 95.063009 
C 76.620017 94.797806 76.769028 94.438063 76.769028 94.063009 
C 76.769028 93.687955 76.620017 93.328212 76.354814 93.063009 
C 76.089611 92.797806 75.729868 92.648796 75.354814 92.648796 
C 74.97976 92.648796 74.620017 92.797806 74.354814 93.063009 
C 74.089611 93.328212 73.940601 93.687955 73.940601 94.063009 
C 73.940601 94.438063 74.089611 94.797806 74.354814 95.063009 
C 74.620017 95.328212 74.97976 95.477223 75.354814 95.477223 
z
" clip-path="url(#p22f129776e)" style="stroke: #000000"/>
    <path d="M 83.141379 134.514089 
C 83.431768 134.514089 83.710303 134.398717 83.915639 134.19338 
C 84.120975 133.988044 84.236348 133.709509 84.236348 133.41912 
C 84.236348 133.128731 84.120975 132.850196 83.915639 132.64486 
C 83.710303 132.439524 83.431768 132.324151 83.141379 132.324151 
C 82.85099 132.324151 82.572455 132.439524 82.367119 132.64486 
C 82.161783 132.850196 82.04641 133.128731 82.04641 133.41912 
C 82.04641 133.709509 82.161783 133.988044 82.367119 134.19338 
C 82.572455 134.398717 82.85099 134.514089 83.141379 134.514089 
z
" clip-path="url(#p22f129776e)" style="stroke: #000000"/>
    <path d="M 71.666284 97.616743 
C 72.080264 97.616743 72.477345 97.452267 72.770073 97.159539 
C 73.062801 96.866811 73.227277 96.469731 73.227277 96.055751 
C 73.227277 95.64177 73.062801 95.24469 72.770073 94.951962 
C 72.477345 94.659234 72.080264 94.494758 71.666284 94.494758 
C 71.252304 94.494758 70.855224 94.659234 70.562495 94.951962 
C 70.269767 95.24469 70.105291 95.64177 70.105291 96.055751 
C 70.105291 96.469731 70.269767 96.866811 70.562495 97.159539 
C 70.855224 97.452267 71.252304 97.616743 71.666284 97.616743 
z
" clip-path="url(#p22f129776e)" style="stroke: #000000"/>
    <path d="M 66.490518 84.971972 
C 67.083159 84.971972 67.651607 84.736514 68.070668 84.317453 
C 68.489728 83.898392 68.725187 83.329944 68.725187 82.737303 
C 68.725187 82.144662 68.489728 81.576214 68.070668 81.157154 
C 67.651607 80.738093 67.083159 80.502634 66.490518 80.502634 
C 65.897877 80.502634 65.329429 80.738093 64.910368 81.157154 
C 64.491308 81.576214 64.255849 82.144662 64.255849 82.737303 
C 64.255849 83.329944 64.491308 83.898392 64.910368 84.317453 
C 65.329429 84.736514 65.897877 84.971972 66.490518 84.971972 
z
" clip-path="url(#p22f129776e)" style="stroke: #000000"/>
    <path d="M 79.467518 133.610263 
C 79.963667 133.610263 80.439563 133.41314 80.790394 133.06231 
C 81.141224 132.711479 81.338347 132.235583 81.338347 131.739434 
C 81.338347 131.243284 81.141224 130.767389 80.790394 130.416558 
C 80.439563 130.065728 79.963667 129.868605 79.467518 129.868605 
C 78.971368 129.868605 78.495473 130.065728 78.144642 130.416558 
C 77.793811 130.767389 77.596689 131.243284 77.596689 131.739434 
C 77.596689 132.235583 77.793811 132.711479 78.144642 133.06231 
C 78.495473 133.41314 78.971368 133.610263 79.467518 133.610263 
z
" clip-path="url(#p22f129776e)" style="stroke: #000000"/>
    <path d="M 62.046783 86.577293 
C 62.548532 86.577293 63.029799 86.377946 63.38459 86.023155 
C 63.73938 85.668365 63.938728 85.187098 63.938728 84.685348 
C 63.938728 84.183598 63.73938 83.702332 63.38459 83.347541 
C 63.029799 82.99275 62.548532 82.793403 62.046783 82.793403 
C 61.545033 82.793403 61.063766 82.99275 60.708976 83.347541 
C 60.354185 83.702332 60.154838 84.183598 60.154838 84.685348 
C 60.154838 85.187098 60.354185 85.668365 60.708976 86.023155 
C 61.063766 86.377946 61.545033 86.577293 62.046783 86.577293 
z
" clip-path="url(#p22f129776e)" style="stroke: #000000"/>
    <path d="M 70.499911 120.990251 
C 70.999814 120.990251 71.479311 120.791638 71.832796 120.438152 
C 72.186282 120.084667 72.384895 119.60517 72.384895 119.105267 
C 72.384895 118.605363 72.186282 118.125867 71.832796 117.772381 
C 71.479311 117.418896 70.999814 117.220282 70.499911 117.220282 
C 70.000007 117.220282 69.52051 117.418896 69.167025 117.772381 
C 68.81354 118.125867 68.614926 118.605363 68.614926 119.105267 
C 68.614926 119.60517 68.81354 120.084667 69.167025 120.438152 
C 69.52051 120.791638 70.000007 120.990251 70.499911 120.990251 
z
" clip-path="url(#p22f129776e)" style="stroke: #000000"/>
    <path d="M 67.905735 112.25628 
C 68.301061 112.25628 68.680249 112.099216 68.959786 111.819678 
C 69.239324 111.54014 69.396389 111.160952 69.396389 110.765626 
C 69.396389 110.3703 69.239324 109.991113 68.959786 109.711575 
C 68.680249 109.432037 68.301061 109.274973 67.905735 109.274973 
C 67.510409 109.274973 67.131221 109.432037 66.851684 109.711575 
C 66.572146 109.991113 66.415081 110.3703 66.415081 110.765626 
C 66.415081 111.160952 66.572146 111.54014 66.851684 111.819678 
C 67.131221 112.099216 67.510409 112.25628 67.905735 112.25628 
z
" clip-path="url(#p22f129776e)" style="stroke: #000000"/>
    <path d="M 65.186161 108.228786 
C 65.591136 108.228786 65.979579 108.067888 66.26594 107.781527 
C 66.552301 107.495167 66.713199 107.106724 66.713199 106.701749 
C 66.713199 106.296773 66.552301 105.90833 66.26594 105.62197 
C 65.979579 105.335609 65.591136 105.174711 65.186161 105.174711 
C 64.781186 105.174711 64.392743 105.335609 64.106382 105.62197 
C 63.820022 105.90833 63.659123 106.296773 63.659123 106.701749 
C 63.659123 107.106724 63.820022 107.495167 64.106382 107.781527 
C 64.392743 108.067888 64.781186 108.228786 65.186161 108.228786 
z
" clip-path="url(#p22f129776e)" style="stroke: #000000"/>
    <path d="M 62.742106 97.630901 
C 63.335118 97.630901 63.903922 97.395295 64.323245 96.975972 
C 64.742568 96.556649 64.978174 95.987845 64.978174 95.394833 
C 64.978174 94.801821 64.742568 94.233017 64.323245 93.813694 
C 63.903922 93.394371 63.335118 93.158765 62.742106 93.158765 
C 62.149094 93.158765 61.58029 93.394371 61.160967 93.813694 
C 60.741644 94.233017 60.506038 94.801821 60.506038 95.394833 
C 60.506038 95.987845 60.741644 96.556649 61.160967 96.975972 
C 61.58029 97.395295 62.149094 97.630901 62.742106 97.630901 
z
" clip-path="url(#p22f129776e)" style="stroke: #000000"/>
    <path d="M 69.23935 132.664724 
C 69.703407 132.664724 70.14852 132.480353 70.476658 132.152215 
C 70.804796 131.824077 70.989168 131.378964 70.989168 130.914907 
C 70.989168 130.45085 70.804796 130.005737 70.476658 129.677599 
C 70.14852 129.349461 69.703407 129.165089 69.23935 129.165089 
C 68.775293 129.165089 68.33018 129.349461 68.002042 129.677599 
C 67.673904 130.005737 67.489533 130.45085 67.489533 130.914907 
C 67.489533 131.378964 67.673904 131.824077 68.002042 132.152215 
C 68.33018 132.480353 68.775293 132.664724 69.23935 132.664724 
z
" clip-path="url(#p22f129776e)" style="stroke: #000000"/>
    <path d="M 56.935216 98.478957 
C 57.426223 98.478957 57.897186 98.283878 58.244381 97.936683 
C 58.591576 97.589488 58.786655 97.118525 58.786655 96.627518 
C 58.786655 96.13651 58.591576 95.665547 58.244381 95.318353 
C 57.897186 94.971158 57.426223 94.776079 56.935216 94.776079 
C 56.444208 94.776079 55.973245 94.971158 55.626051 95.318353 
C 55.278856 95.665547 55.083777 96.13651 55.083777 96.627518 
C 55.083777 97.118525 55.278856 97.589488 55.626051 97.936683 
C 55.973245 98.283878 56.444208 98.478957 56.935216 98.478957 
z
" clip-path="url(#p22f129776e)" style="stroke: #000000"/>
    <path d="M 62.503196 133.565978 
C 63.005556 133.565978 63.487409 133.366388 63.842631 133.011165 
C 64.197854 132.655943 64.397444 132.17409 64.397444 131.67173 
C 64.397444 131.169369 64.197854 130.687517 63.842631 130.332294 
C 63.487409 129.977072 63.005556 129.777482 62.503196 129.777482 
C 62.000836 129.777482 61.518983 129.977072 61.16376 130.332294 
C 60.808538 130.687517 60.608948 131.169369 60.608948 131.67173 
C 60.608948 132.17409 60.808538 132.655943 61.16376 133.011165 
C 61.518983 133.366388 62.000836 133.565978 62.503196 133.565978 
z
" clip-path="url(#p22f129776e)" style="stroke: #000000"/>
    <path d="M 59.683574 125.924908 
C 60.186543 125.924908 60.668979 125.725076 61.024632 125.369423 
C 61.380284 125.01377 61.580116 124.531334 61.580116 124.028365 
C 61.580116 123.525396 61.380284 123.04296 61.024632 122.687307 
C 60.668979 122.331654 60.186543 122.131822 59.683574 122.131822 
C 59.180605 122.131822 58.698168 122.331654 58.342515 122.687307 
C 57.986863 123.04296 57.787031 123.525396 57.787031 124.028365 
C 57.787031 124.531334 57.986863 125.01377 58.342515 125.369423 
C 58.698168 125.725076 59.180605 125.924908 59.683574 125.924908 
z
" clip-path="url(#p22f129776e)" style="stroke: #000000"/>
    <path d="M 58.955668 121.81503 
C 59.33645 121.81503 59.701686 121.663744 59.97094 121.394491 
C 60.240193 121.125238 60.391479 120.760001 60.391479 120.379219 
C 60.391479 119.998438 60.240193 119.633201 59.97094 119.363948 
C 59.701686 119.094695 59.33645 118.943408 58.955668 118.943408 
C 58.574887 118.943408 58.20965 119.094695 57.940396 119.363948 
C 57.671143 119.633201 57.519857 119.998438 57.519857 120.379219 
C 57.519857 120.760001 57.671143 121.125238 57.940396 121.394491 
C 58.20965 121.663744 58.574887 121.81503 58.955668 121.81503 
z
" clip-path="url(#p22f129776e)" style="stroke: #000000"/>
    <path d="M 51.061648 109.267479 
C 51.65466 109.267479 52.223464 109.031873 52.642786 108.61255 
C 53.062109 108.193227 53.297716 107.624423 53.297716 107.031411 
C 53.297716 106.438399 53.062109 105.869595 52.642786 105.450272 
C 52.223464 105.030949 51.65466 104.795343 51.061648 104.795343 
C 50.468635 104.795343 49.899832 105.030949 49.480509 105.450272 
C 49.061186 105.869595 48.82558 106.438399 48.82558 107.031411 
C 48.82558 107.624423 49.061186 108.193227 49.480509 108.61255 
C 49.899832 109.031873 50.468635 109.267479 51.061648 109.267479 
z
" clip-path="url(#p22f129776e)" style="stroke: #000000"/>
   </g>
   <g id="matplotlib.axis_1">
    <g id="xtick_1">
     <g id="line2d_1">
      <defs>
       <path id="m97b572e2be" d="M 0 0 
L 0 3.5 
" style="stroke: #000000; stroke-width: 0.8"/>
      </defs>
      <g>
       <use xlink:href="#m97b572e2be" x="18" y="189" style="stroke: #000000; stroke-width: 0.8"/>
      </g>
     </g>
     <g id="text_1">
      <!-- −10 -->
      <g transform="translate(7.447656 203.598437)scale(0.1 -0.1)">
       <defs>
        <path id="DejaVuSans-2212" d="M 678 2272 
L 4684 2272 
L 4684 1741 
L 678 1741 
L 678 2272 
z
" transform="scale(0.015625)"/>
        <path id="DejaVuSans-31" d="M 794 531 
L 1825 531 
L 1825 4091 
L 703 3866 
L 703 4441 
L 1819 4666 
L 2450 4666 
L 2450 531 
L 3481 531 
L 3481 0 
L 794 0 
L 794 531 
z
" transform="scale(0.015625)"/>
        <path id="DejaVuSans-30" d="M 2034 4250 
Q 1547 4250 1301 3770 
Q 1056 3291 1056 2328 
Q 1056 1369 1301 889 
Q 1547 409 2034 409 
Q 2525 409 2770 889 
Q 3016 1369 3016 2328 
Q 3016 3291 2770 3770 
Q 2525 4250 2034 4250 
z
M 2034 4750 
Q 2819 4750 3233 4129 
Q 3647 3509 3647 2328 
Q 3647 1150 3233 529 
Q 2819 -91 2034 -91 
Q 1250 -91 836 529 
Q 422 1150 422 2328 
Q 422 3509 836 4129 
Q 1250 4750 2034 4750 
z
" transform="scale(0.015625)"/>
       </defs>
       <use xlink:href="#DejaVuSans-2212"/>
       <use xlink:href="#DejaVuSans-31" x="83.789062"/>
       <use xlink:href="#DejaVuSans-30" x="147.412109"/>
      </g>
     </g>
    </g>
    <g id="xtick_2">
     <g id="line2d_2">
      <g>
       <use xlink:href="#m97b572e2be" x="73.8" y="189" style="stroke: #000000; stroke-width: 0.8"/>
      </g>
     </g>
     <g id="text_2">
      <!-- 0 -->
      <g transform="translate(70.61875 203.598437)scale(0.1 -0.1)">
       <use xlink:href="#DejaVuSans-30"/>
      </g>
     </g>
    </g>
    <g id="xtick_3">
     <g id="line2d_3">
      <g>
       <use xlink:href="#m97b572e2be" x="129.6" y="189" style="stroke: #000000; stroke-width: 0.8"/>
      </g>
     </g>
     <g id="text_3">
      <!-- 10 -->
      <g transform="translate(123.2375 203.598437)scale(0.1 -0.1)">
       <use xlink:href="#DejaVuSans-31"/>
       <use xlink:href="#DejaVuSans-30" x="63.623047"/>
      </g>
     </g>
    </g>
   </g>
   <g id="matplotlib.axis_2">
    <g id="ytick_1">
     <g id="line2d_4">
      <defs>
       <path id="mb0de3c39e6" d="M 0 0 
L -3.5 0 
" style="stroke: #000000; stroke-width: 0.8"/>
      </defs>
      <g>
       <use xlink:href="#mb0de3c39e6" x="18" y="189" style="stroke: #000000; stroke-width: 0.8"/>
      </g>
     </g>
     <g id="text_4">
      <!-- −15 -->
      <g transform="translate(-10.104688 192.799219)scale(0.1 -0.1)">
       <defs>
        <path id="DejaVuSans-35" d="M 691 4666 
L 3169 4666 
L 3169 4134 
L 1269 4134 
L 1269 2991 
Q 1406 3038 1543 3061 
Q 1681 3084 1819 3084 
Q 2600 3084 3056 2656 
Q 3513 2228 3513 1497 
Q 3513 744 3044 326 
Q 2575 -91 1722 -91 
Q 1428 -91 1123 -41 
Q 819 9 494 109 
L 494 744 
Q 775 591 1075 516 
Q 1375 441 1709 441 
Q 2250 441 2565 725 
Q 2881 1009 2881 1497 
Q 2881 1984 2565 2268 
Q 2250 2553 1709 2553 
Q 1456 2553 1204 2497 
Q 953 2441 691 2322 
L 691 4666 
z
" transform="scale(0.015625)"/>
       </defs>
       <use xlink:href="#DejaVuSans-2212"/>
       <use xlink:href="#DejaVuSans-31" x="83.789062"/>
       <use xlink:href="#DejaVuSans-35" x="147.412109"/>
      </g>
     </g>
    </g>
    <g id="ytick_2">
     <g id="line2d_5">
      <g>
       <use xlink:href="#mb0de3c39e6" x="18" y="161.82" style="stroke: #000000; stroke-width: 0.8"/>
      </g>
     </g>
     <g id="text_5">
      <!-- −10 -->
      <g transform="translate(-10.104688 165.619219)scale(0.1 -0.1)">
       <use xlink:href="#DejaVuSans-2212"/>
       <use xlink:href="#DejaVuSans-31" x="83.789062"/>
       <use xlink:href="#DejaVuSans-30" x="147.412109"/>
      </g>
     </g>
    </g>
    <g id="ytick_3">
     <g id="line2d_6">
      <g>
       <use xlink:href="#mb0de3c39e6" x="18" y="134.64" style="stroke: #000000; stroke-width: 0.8"/>
      </g>
     </g>
     <g id="text_6">
      <!-- −5 -->
      <g transform="translate(-3.742188 138.439219)scale(0.1 -0.1)">
       <use xlink:href="#DejaVuSans-2212"/>
       <use xlink:href="#DejaVuSans-35" x="83.789062"/>
      </g>
     </g>
    </g>
    <g id="ytick_4">
     <g id="line2d_7">
      <g>
       <use xlink:href="#mb0de3c39e6" x="18" y="107.46" style="stroke: #000000; stroke-width: 0.8"/>
      </g>
     </g>
     <g id="text_7">
      <!-- 0 -->
      <g transform="translate(4.6375 111.259219)scale(0.1 -0.1)">
       <use xlink:href="#DejaVuSans-30"/>
      </g>
     </g>
    </g>
    <g id="ytick_5">
     <g id="line2d_8">
      <g>
       <use xlink:href="#mb0de3c39e6" x="18" y="80.28" style="stroke: #000000; stroke-width: 0.8"/>
      </g>
     </g>
     <g id="text_8">
      <!-- 5 -->
      <g transform="translate(4.6375 84.079219)scale(0.1 -0.1)">
       <use xlink:href="#DejaVuSans-35"/>
      </g>
     </g>
    </g>
    <g id="ytick_6">
     <g id="line2d_9">
      <g>
       <use xlink:href="#mb0de3c39e6" x="18" y="53.1" style="stroke: #000000; stroke-width: 0.8"/>
      </g>
     </g>
     <g id="text_9">
      <!-- 10 -->
      <g transform="translate(-1.725 56.899219)scale(0.1 -0.1)">
       <use xlink:href="#DejaVuSans-31"/>
       <use xlink:href="#DejaVuSans-30" x="63.623047"/>
      </g>
     </g>
    </g>
    <g id="ytick_7">
     <g id="line2d_10">
      <g>
       <use xlink:href="#mb0de3c39e6" x="18" y="25.92" style="stroke: #000000; stroke-width: 0.8"/>
      </g>
     </g>
     <g id="text_10">
      <!-- 15 -->
      <g transform="translate(-1.725 29.719219)scale(0.1 -0.1)">
       <use xlink:href="#DejaVuSans-31"/>
       <use xlink:href="#DejaVuSans-35" x="63.623047"/>
      </g>
     </g>
    </g>
   </g>
   <g id="patch_3">
    <path d="M 18 189 
L 18 25.92 
" style="fill: none; stroke: #000000; stroke-width: 0.8; stroke-linejoin: miter; stroke-linecap: square"/>
   </g>
   <g id="patch_4">
    <path d="M 129.6 189 
L 129.6 25.92 
" style="fill: none; stroke: #000000; stroke-width: 0.8; stroke-linejoin: miter; stroke-linecap: square"/>
   </g>
   <g id="patch_5">
    <path d="M 18 189 
L 129.6 189 
" style="fill: none; stroke: #000000; stroke-width: 0.8; stroke-linejoin: miter; stroke-linecap: square"/>
   </g>
   <g id="patch_6">
    <path d="M 18 25.92 
L 129.6 25.92 
" style="fill: none; stroke: #000000; stroke-width: 0.8; stroke-linejoin: miter; stroke-linecap: square"/>
   </g>
  </g>
 </g>
 <defs>
  <clipPath id="p22f129776e">
   <rect x="18" y="25.92" width="111.6" height="163.08"/>
  </clipPath>
 </defs>
</svg>
