<?xml version="1.0" encoding="UTF-8" standalone="no"?>
<svg
   xmlns:dc="http://purl.org/dc/elements/1.1/"
   xmlns:cc="http://creativecommons.org/ns#"
   xmlns:rdf="http://www.w3.org/1999/02/22-rdf-syntax-ns#"
   xmlns:svg="http://www.w3.org/2000/svg"
   xmlns="http://www.w3.org/2000/svg"
   xmlns:xlink="http://www.w3.org/1999/xlink"
   xmlns:sodipodi="http://sodipodi.sourceforge.net/DTD/sodipodi-0.dtd"
   xmlns:inkscape="http://www.inkscape.org/namespaces/inkscape"
   width="144pt"
   height="216pt"
   viewBox="0 0 144 216"
   version="1.1"
   id="svg278"
   sodipodi:docname="180.svg"
   inkscape:version="0.92.1 r15371">
  <sodipodi:namedview
     pagecolor="#ffffff"
     bordercolor="#666666"
     borderopacity="1"
     objecttolerance="10"
     gridtolerance="10"
     guidetolerance="10"
     inkscape:pageopacity="0"
     inkscape:pageshadow="2"
     inkscape:window-width="7740"
     inkscape:window-height="3122"
     id="namedview280"
     showgrid="false"
     inkscape:zoom="4.6354778"
     inkscape:cx="153.37825"
     inkscape:cy="145.76977"
     inkscape:window-x="443"
     inkscape:window-y="-14"
     inkscape:window-maximized="1"
     inkscape:current-layer="axes_1" />
  <metadata
     id="metadata2">
    <rdf:RDF>
      <cc:Work>
        <dc:type
           rdf:resource="http://purl.org/dc/dcmitype/StillImage" />
        <dc:date>2022-06-28T09:26:04.105140</dc:date>
        <dc:format>image/svg+xml</dc:format>
        <dc:creator>
          <cc:Agent>
            <dc:title>Matplotlib v3.5.1, https://matplotlib.org/</dc:title>
          </cc:Agent>
        </dc:creator>
      </cc:Work>
    </rdf:RDF>
  </metadata>
  <defs
     id="defs6">
    <style
       type="text/css"
       id="style4">*{stroke-linejoin: round; stroke-linecap: butt}</style>
    <defs
       id="defs35">
      <path
         d="M 0 2.738613  C 0.726289 2.738613 1.422928 2.450055 1.936492 1.936492  C 2.450055 1.422928 2.738613 0.726289 2.738613 -0  C 2.738613 -0.726289 2.450055 -1.422928 1.936492 -1.936492  C 1.422928 -2.450055 0.726289 -2.738613 0 -2.738613  C -0.726289 -2.738613 -1.422928 -2.450055 -1.936492 -1.936492  C -2.450055 -1.422928 -2.738613 -0.726289 -2.738613 0  C -2.738613 0.726289 -2.450055 1.422928 -1.936492 1.936492  C -1.422928 2.450055 -0.726289 2.738613 0 2.738613  z "
         id="C0_0_d1040c787a" />
    </defs>
    <defs
       id="defs15">
      <path
         style="stroke: #ff0000; stroke-width: 1.75"
         d="M 0 2.738613  C 0.726289 2.738613 1.422928 2.450055 1.936492 1.936492  C 2.450055 1.422928 2.738613 0.726289 2.738613 0  C 2.738613 -0.726289 2.450055 -1.422928 1.936492 -1.936492  C 1.422928 -2.450055 0.726289 -2.738613 0 -2.738613  C -0.726289 -2.738613 -1.422928 -2.450055 -1.936492 -1.936492  C -2.450055 -1.422928 -2.738613 -0.726289 -2.738613 0  C -2.738613 0.726289 -2.450055 1.422928 -1.936492 1.936492  C -1.422928 2.450055 -0.726289 2.738613 0 2.738613  z "
         id="meecf0a8a30" />
    </defs>
  </defs>
  <g
     id="figure_1">
    <g
       id="patch_1">
      <path
         d="M 0 216  L 144 216  L 144 0  L 0 0  L 0 216  z "
         style="fill: none"
         id="path8" />
    </g>
    <g
       id="axes_1">
      <g
         id="patch_2" />
      <g
         style="stroke-linecap:butt;stroke-linejoin:round"
         id="g31"
         clip-path="url(#pfa2367b7f0)">
        <use
           height="100%"
           width="100%"
           id="use17"
           style="fill:#ff0000;stroke:#ff0000;stroke-width:1.75;stroke-linecap:butt;stroke-linejoin:round"
           y="83.921432"
           x="80.775002"
           xlink:href="#meecf0a8a30" />
        <use
           height="100%"
           width="100%"
           id="use19"
           style="fill:#ff0000;stroke:#ff0000;stroke-width:1.75;stroke-linecap:butt;stroke-linejoin:round"
           y="95.690712"
           x="59.849998"
           xlink:href="#meecf0a8a30" />
        <use
           height="100%"
           width="100%"
           id="use21"
           style="fill:#ff0000;stroke:#ff0000;stroke-width:1.75;stroke-linecap:butt;stroke-linejoin:round"
           y="107.46"
           x="66.824997"
           xlink:href="#meecf0a8a30" />
        <use
           height="100%"
           width="100%"
           id="use23"
           style="fill:#ff0000;stroke:#ff0000;stroke-width:1.75;stroke-linecap:butt;stroke-linejoin:round"
           y="107.46"
           x="80.775002"
           xlink:href="#meecf0a8a30" />
        <use
           height="100%"
           width="100%"
           id="use25"
           style="fill:#ff0000;stroke:#ff0000;stroke-width:1.75;stroke-linecap:butt;stroke-linejoin:round"
           y="107.46"
           x="94.724998"
           xlink:href="#meecf0a8a30" />
        <use
           height="100%"
           width="100%"
           id="use27"
           style="fill:#ff0000;stroke:#ff0000;stroke-width:1.75;stroke-linecap:butt;stroke-linejoin:round"
           y="119.22929"
           x="59.849998"
           xlink:href="#meecf0a8a30" />
        <use
           height="100%"
           width="100%"
           id="use29"
           style="fill:#ff0000;stroke:#ff0000;stroke-width:1.75;stroke-linecap:butt;stroke-linejoin:round"
           y="130.99857"
           x="80.775002"
           xlink:href="#meecf0a8a30" />
      </g>
      <g
         style="stroke-linecap:butt;stroke-linejoin:round"
         id="g39"
         clip-path="url(#pfa2367b7f0)">
        <use
           height="100%"
           width="100%"
           id="use37"
           style="fill:none;stroke:#ff0000;stroke-width:1.75;stroke-linecap:butt;stroke-linejoin:round"
           y="83.921432"
           x="66.824997"
           xlink:href="#C0_0_d1040c787a" />
      </g>
      <g
         style="stroke-linecap:butt;stroke-linejoin:round"
         id="g43"
         clip-path="url(#pfa2367b7f0)">
        <use
           height="100%"
           width="100%"
           id="use41"
           style="fill:none;stroke:#ff0000;stroke-width:1.75;stroke-linecap:butt;stroke-linejoin:round"
           y="95.690712"
           x="73.800003"
           xlink:href="#C0_0_d1040c787a" />
      </g>
      <g
         style="stroke-linecap:butt;stroke-linejoin:round"
         id="g47"
         clip-path="url(#pfa2367b7f0)">
        <use
           height="100%"
           width="100%"
           id="use45"
           style="fill:none;stroke:#ff0000;stroke-width:1.75;stroke-linecap:butt;stroke-linejoin:round"
           y="95.690712"
           x="87.75"
           xlink:href="#C0_0_d1040c787a" />
      </g>
      <g
         style="stroke-linecap:butt;stroke-linejoin:round"
         id="g51"
         clip-path="url(#pfa2367b7f0)">
        <use
           height="100%"
           width="100%"
           id="use49"
           style="fill:none;stroke:#ff0000;stroke-width:1.75;stroke-linecap:butt;stroke-linejoin:round"
           y="107.46"
           x="52.875"
           xlink:href="#C0_0_d1040c787a" />
      </g>
      <g
         style="stroke-linecap:butt;stroke-linejoin:round"
         id="g55"
         clip-path="url(#pfa2367b7f0)">
        <use
           height="100%"
           width="100%"
           id="use53"
           style="fill:none;stroke:#ff0000;stroke-width:1.75;stroke-linecap:butt;stroke-linejoin:round"
           y="119.22929"
           x="73.800003"
           xlink:href="#C0_0_d1040c787a" />
      </g>
      <g
         style="stroke-linecap:butt;stroke-linejoin:round"
         id="g59"
         clip-path="url(#pfa2367b7f0)">
        <use
           height="100%"
           width="100%"
           id="use57"
           style="fill:none;stroke:#ff0000;stroke-width:1.75;stroke-linecap:butt;stroke-linejoin:round"
           y="119.22929"
           x="87.75"
           xlink:href="#C0_0_d1040c787a" />
      </g>
      <g
         style="stroke-linecap:butt;stroke-linejoin:round"
         id="g63"
         clip-path="url(#pfa2367b7f0)">
        <use
           height="100%"
           width="100%"
           id="use61"
           style="fill:none;stroke:#ff0000;stroke-width:1.75;stroke-linecap:butt;stroke-linejoin:round"
           y="130.99857"
           x="66.824997"
           xlink:href="#C0_0_d1040c787a" />
      </g>
      <path
         inkscape:connector-curvature="0"
         id="path66"
         style="stroke:#000000;stroke-linecap:butt;stroke-linejoin:round"
         clip-path="url(#pfa2367b7f0)"
         d="m 95.898739,109.9313 c 0.593012,0 1.161816,-0.2356 1.581139,-0.65493 0.419322,-0.41932 0.654929,-0.98812 0.654929,-1.58114 0,-0.59301 -0.235607,-1.16181 -0.654929,-1.58114 -0.419323,-0.41932 -0.988127,-0.65492 -1.581139,-0.65492 -0.593012,0 -1.161816,0.2356 -1.581139,0.65492 -0.419323,0.41933 -0.654929,0.98813 -0.654929,1.58114 0,0.59302 0.235606,1.16182 0.654929,1.58114 0.419323,0.41933 0.988127,0.65493 1.581139,0.65493 z" />
      <path
         inkscape:connector-curvature="0"
         id="path68"
         style="stroke:#000000;stroke-linecap:butt;stroke-linejoin:round"
         clip-path="url(#pfa2367b7f0)"
         d="m 90.950318,96.910411 c 0.505979,0 0.991303,-0.201028 1.349084,-0.558809 0.357781,-0.357781 0.558809,-0.843105 0.558809,-1.349084 0,-0.505979 -0.201028,-0.991303 -0.558809,-1.349084 -0.357781,-0.357781 -0.843105,-0.558809 -1.349084,-0.558809 -0.505979,0 -0.991303,0.201028 -1.349084,0.558809 -0.357781,0.357781 -0.558809,0.843105 -0.558809,1.349084 0,0.505979 0.201028,0.991303 0.558809,1.349084 0.357781,0.357781 0.843105,0.558809 1.349084,0.558809 z" />
      <path
         inkscape:connector-curvature="0"
         id="path70"
         style="stroke:#000000;stroke-linecap:butt;stroke-linejoin:round"
         clip-path="url(#pfa2367b7f0)"
         d="m 83.806265,88.896525 c 0.493599,0 0.967047,-0.196109 1.316074,-0.545136 0.349027,-0.349027 0.545136,-0.822476 0.545136,-1.316074 0,-0.493599 -0.196109,-0.967047 -0.545136,-1.316074 -0.349027,-0.349027 -0.822475,-0.545136 -1.316074,-0.545136 -0.493599,0 -0.967047,0.196109 -1.316074,0.545136 -0.349027,0.349027 -0.545136,0.822475 -0.545136,1.316074 0,0.493598 0.196109,0.967047 0.545136,1.316074 0.349027,0.349027 0.822475,0.545136 1.316074,0.545136 z" />
      <path
         inkscape:connector-curvature="0"
         id="path72"
         style="stroke:#000000;stroke-linecap:butt;stroke-linejoin:round"
         clip-path="url(#pfa2367b7f0)"
         d="m 82.027689,84.017321 c 0.37358,0 0.731909,-0.148425 0.99607,-0.412586 0.264161,-0.264161 0.412586,-0.62249 0.412586,-0.99607 0,-0.37358 -0.148425,-0.73191 -0.412586,-0.996071 -0.264161,-0.264161 -0.62249,-0.412586 -0.99607,-0.412586 -0.373581,0 -0.73191,0.148425 -0.996071,0.412586 -0.264161,0.264161 -0.412586,0.622491 -0.412586,0.996071 0,0.37358 0.148425,0.731909 0.412586,0.99607 0.264161,0.264161 0.62249,0.412586 0.996071,0.412586 z" />
      <path
         inkscape:connector-curvature="0"
         id="path74"
         style="stroke:#000000;stroke-linecap:butt;stroke-linejoin:round"
         clip-path="url(#pfa2367b7f0)"
         d="m 87.829291,120.90111 c 0.401438,0 0.786488,-0.1595 1.070348,-0.44335 0.283859,-0.28386 0.443352,-0.66892 0.443352,-1.07035 0,-0.40144 -0.159493,-0.78649 -0.443352,-1.07035 -0.28386,-0.28386 -0.66891,-0.44335 -1.070348,-0.44335 -0.401438,0 -0.786488,0.15949 -1.070347,0.44335 -0.28386,0.28386 -0.443353,0.66891 -0.443353,1.07035 0,0.40143 0.159493,0.78649 0.443353,1.07035 0.283859,0.28385 0.668909,0.44335 1.070347,0.44335 z" />
      <path
         inkscape:connector-curvature="0"
         id="path76"
         style="stroke:#000000;stroke-linecap:butt;stroke-linejoin:round"
         clip-path="url(#pfa2367b7f0)"
         d="m 85.082684,107.09021 c 0.372089,0 0.728988,-0.14784 0.992094,-0.41094 0.263107,-0.26311 0.410939,-0.62001 0.410939,-0.9921 0,-0.37209 -0.147832,-0.72898 -0.410939,-0.99209 -0.263106,-0.26311 -0.620005,-0.41094 -0.992094,-0.41094 -0.372089,0 -0.728988,0.14783 -0.992094,0.41094 -0.263107,0.26311 -0.410939,0.62 -0.410939,0.99209 0,0.37209 0.147832,0.72899 0.410939,0.9921 0.263106,0.2631 0.620005,0.41094 0.992094,0.41094 z" />
      <path
         inkscape:connector-curvature="0"
         id="path78"
         style="stroke:#000000;stroke-linecap:butt;stroke-linejoin:round"
         clip-path="url(#pfa2367b7f0)"
         d="m 79.813118,108.58205 c 0.299427,0 0.586632,-0.11897 0.798359,-0.33069 0.211727,-0.21173 0.330691,-0.49893 0.330691,-0.79836 0,-0.29943 -0.118964,-0.58663 -0.330691,-0.79836 -0.211727,-0.21173 -0.498932,-0.33069 -0.798359,-0.33069 -0.299428,0 -0.586632,0.11896 -0.79836,0.33069 -0.211727,0.21173 -0.330691,0.49893 -0.330691,0.79836 0,0.29943 0.118964,0.58663 0.330691,0.79836 0.211728,0.21172 0.498932,0.33069 0.79836,0.33069 z" />
      <path
         inkscape:connector-curvature="0"
         id="path80"
         style="stroke:#000000;stroke-linecap:butt;stroke-linejoin:round"
         clip-path="url(#pfa2367b7f0)"
         d="m 75.354814,95.581194 c 0.402628,0 0.788819,-0.159965 1.073519,-0.444666 0.284701,-0.2847 0.444666,-0.670891 0.444666,-1.073519 0,-0.402627 -0.159965,-0.788818 -0.444666,-1.073519 -0.2847,-0.2847 -0.670891,-0.444666 -1.073519,-0.444666 -0.402627,0 -0.788818,0.159966 -1.073519,0.444666 -0.2847,0.284701 -0.444666,0.670892 -0.444666,1.073519 0,0.402628 0.159966,0.788819 0.444666,1.073519 0.284701,0.284701 0.670892,0.444666 1.073519,0.444666 z" />
      <path
         inkscape:connector-curvature="0"
         id="path82"
         style="stroke:#000000;stroke-linecap:butt;stroke-linejoin:round"
         clip-path="url(#pfa2367b7f0)"
         d="m 83.141379,134.60833 c 0.315381,0 0.617888,-0.12531 0.840896,-0.34831 0.223009,-0.22301 0.348311,-0.52552 0.348311,-0.8409 0,-0.31538 -0.125302,-0.61789 -0.348311,-0.8409 -0.223008,-0.22301 -0.525515,-0.34831 -0.840896,-0.34831 -0.315381,0 -0.617888,0.1253 -0.840896,0.34831 -0.223009,0.22301 -0.348311,0.52552 -0.348311,0.8409 0,0.31538 0.125302,0.61789 0.348311,0.8409 0.223008,0.223 0.525515,0.34831 0.840896,0.34831 z" />
      <path
         inkscape:connector-curvature="0"
         id="path84"
         style="stroke:#000000;stroke-linecap:butt;stroke-linejoin:round"
         clip-path="url(#pfa2367b7f0)"
         d="m 71.666284,97.740819 c 0.446885,0 0.875528,-0.17755 1.191523,-0.493545 0.315996,-0.315996 0.493545,-0.744638 0.493545,-1.191523 0,-0.446886 -0.177549,-0.875528 -0.493545,-1.191523 -0.315995,-0.315996 -0.744638,-0.493545 -1.191523,-0.493545 -0.446885,0 -0.875527,0.177549 -1.191523,0.493545 -0.315996,0.315995 -0.493545,0.744637 -0.493545,1.191523 0,0.446885 0.177549,0.875527 0.493545,1.191523 0.315996,0.315995 0.744638,0.493545 1.191523,0.493545 z" />
      <path
         inkscape:connector-curvature="0"
         id="path86"
         style="stroke:#000000;stroke-linecap:butt;stroke-linejoin:round"
         clip-path="url(#pfa2367b7f0)"
         d="m 66.490518,84.973371 c 0.593012,0 1.161816,-0.235606 1.581139,-0.654929 0.419323,-0.419323 0.654929,-0.988127 0.654929,-1.581139 0,-0.593012 -0.235606,-1.161816 -0.654929,-1.581139 -0.419323,-0.419322 -0.988127,-0.654929 -1.581139,-0.654929 -0.593012,0 -1.161816,0.235607 -1.581139,0.654929 -0.419323,0.419323 -0.654929,0.988127 -0.654929,1.581139 0,0.593012 0.235606,1.161816 0.654929,1.581139 0.419323,0.419323 0.988127,0.654929 1.581139,0.654929 z" />
      <path
         inkscape:connector-curvature="0"
         id="path88"
         style="stroke:#000000;stroke-linecap:butt;stroke-linejoin:round"
         clip-path="url(#pfa2367b7f0)"
         d="m 79.467518,133.62675 c 0.500521,0 0.98061,-0.19886 1.334532,-0.55278 0.353922,-0.35393 0.552781,-0.83402 0.552781,-1.33454 0,-0.50052 -0.198859,-0.98061 -0.552781,-1.33453 -0.353922,-0.35392 -0.834011,-0.55278 -1.334532,-0.55278 -0.500522,0 -0.98061,0.19886 -1.334532,0.55278 -0.353922,0.35392 -0.552782,0.83401 -0.552782,1.33453 0,0.50052 0.19886,0.98061 0.552782,1.33454 0.353922,0.35392 0.83401,0.55278 1.334532,0.55278 z" />
      <path
         inkscape:connector-curvature="0"
         id="path90"
         style="stroke:#000000;stroke-linecap:butt;stroke-linejoin:round"
         clip-path="url(#pfa2367b7f0)"
         d="m 62.046783,86.617522 c 0.512418,0 1.003919,-0.203586 1.366253,-0.565921 0.362335,-0.362334 0.565921,-0.853834 0.565921,-1.366253 0,-0.512418 -0.203586,-1.003919 -0.565921,-1.366253 -0.362334,-0.362335 -0.853835,-0.565921 -1.366253,-0.565921 -0.512419,0 -1.003919,0.203586 -1.366253,0.565921 -0.362335,0.362334 -0.565921,0.853835 -0.565921,1.366253 0,0.512419 0.203586,1.003919 0.565921,1.366253 0.362334,0.362335 0.853834,0.565921 1.366253,0.565921 z" />
      <path
         inkscape:connector-curvature="0"
         id="path92"
         style="stroke:#000000;stroke-linecap:butt;stroke-linejoin:round"
         clip-path="url(#pfa2367b7f0)"
         d="m 70.499911,121.00864 c 0.504781,0 0.988956,-0.20055 1.34589,-0.55748 0.356935,-0.35694 0.557487,-0.84111 0.557487,-1.34589 0,-0.50478 -0.200552,-0.98896 -0.557487,-1.34589 -0.356934,-0.35694 -0.841109,-0.55749 -1.34589,-0.55749 -0.504782,0 -0.988957,0.20055 -1.345891,0.55749 -0.356935,0.35693 -0.557486,0.84111 -0.557486,1.34589 0,0.50478 0.200551,0.98895 0.557486,1.34589 0.356934,0.35693 0.841109,0.55748 1.345891,0.55748 z" />
      <path
         inkscape:connector-curvature="0"
         id="path94"
         style="stroke:#000000;stroke-linecap:butt;stroke-linejoin:round"
         clip-path="url(#pfa2367b7f0)"
         d="m 67.905735,112.44413 c 0.445143,0 0.872114,-0.17686 1.186878,-0.49163 0.314763,-0.31476 0.49162,-0.74173 0.49162,-1.18687 0,-0.44515 -0.176857,-0.87212 -0.49162,-1.18688 -0.314764,-0.31476 -0.741735,-0.49162 -1.186878,-0.49162 -0.445143,0 -0.872114,0.17686 -1.186878,0.49162 -0.314763,0.31476 -0.49162,0.74173 -0.49162,1.18688 0,0.44514 0.176857,0.87211 0.49162,1.18687 0.314764,0.31477 0.741735,0.49163 1.186878,0.49163 z" />
      <path
         inkscape:connector-curvature="0"
         id="path96"
         style="stroke:#000000;stroke-linecap:butt;stroke-linejoin:round"
         clip-path="url(#pfa2367b7f0)"
         d="m 65.186161,108.37025 c 0.442491,0 0.866918,-0.17581 1.179806,-0.4887 0.312888,-0.31288 0.488691,-0.73731 0.488691,-1.1798 0,-0.44249 -0.175803,-0.86692 -0.488691,-1.17981 -0.312888,-0.31288 -0.737315,-0.48869 -1.179806,-0.48869 -0.44249,0 -0.866917,0.17581 -1.179805,0.48869 -0.312889,0.31289 -0.488692,0.73732 -0.488692,1.17981 0,0.44249 0.175803,0.86692 0.488692,1.1798 0.312888,0.31289 0.737315,0.4887 1.179805,0.4887 z" />
      <path
         inkscape:connector-curvature="0"
         id="path98"
         style="stroke:#000000;stroke-linecap:butt;stroke-linejoin:round"
         clip-path="url(#pfa2367b7f0)"
         d="m 62.742106,97.630901 c 0.593012,0 1.161816,-0.235606 1.581139,-0.654929 0.419323,-0.419323 0.654929,-0.988127 0.654929,-1.581139 0,-0.593012 -0.235606,-1.161816 -0.654929,-1.581139 -0.419323,-0.419323 -0.988127,-0.654929 -1.581139,-0.654929 -0.593012,0 -1.161816,0.235606 -1.581139,0.654929 -0.419323,0.419323 -0.654929,0.988127 -0.654929,1.581139 0,0.593012 0.235606,1.161816 0.654929,1.581139 0.419323,0.419323 0.988127,0.654929 1.581139,0.654929 z" />
      <path
         inkscape:connector-curvature="0"
         id="path100"
         style="stroke:#000000;stroke-linecap:butt;stroke-linejoin:round"
         clip-path="url(#pfa2367b7f0)"
         d="m 69.23935,132.72826 c 0.480906,0 0.94218,-0.19107 1.282232,-0.53112 0.340052,-0.34005 0.531118,-0.80133 0.531118,-1.28223 0,-0.48091 -0.191066,-0.94218 -0.531118,-1.28224 -0.340052,-0.34005 -0.801326,-0.53111 -1.282232,-0.53111 -0.480906,0 -0.94218,0.19106 -1.282231,0.53111 -0.340052,0.34006 -0.531118,0.80133 -0.531118,1.28224 0,0.4809 0.191066,0.94218 0.531118,1.28223 0.340051,0.34005 0.801325,0.53112 1.282231,0.53112 z" />
      <path
         inkscape:connector-curvature="0"
         id="path102"
         style="stroke:#000000;stroke-linecap:butt;stroke-linejoin:round"
         clip-path="url(#pfa2367b7f0)"
         d="m 56.935216,98.521766 c 0.50236,0 0.984213,-0.19959 1.339435,-0.554813 0.355223,-0.355222 0.554813,-0.837075 0.554813,-1.339435 0,-0.502361 -0.19959,-0.984213 -0.554813,-1.339436 -0.355222,-0.355222 -0.837075,-0.554812 -1.339435,-0.554812 -0.502361,0 -0.984213,0.19959 -1.339436,0.554812 -0.355222,0.355223 -0.554812,0.837075 -0.554812,1.339436 0,0.50236 0.19959,0.984213 0.554812,1.339435 0.355223,0.355223 0.837075,0.554813 1.339436,0.554813 z" />
      <path
         inkscape:connector-curvature="0"
         id="path104"
         style="stroke:#000000;stroke-linecap:butt;stroke-linejoin:round"
         clip-path="url(#pfa2367b7f0)"
         d="m 62.503196,133.58634 c 0.50776,0 0.994791,-0.20174 1.353831,-0.56078 0.359041,-0.35904 0.560776,-0.84607 0.560776,-1.35383 0,-0.50776 -0.201735,-0.99479 -0.560776,-1.35383 -0.35904,-0.35904 -0.846071,-0.56078 -1.353831,-0.56078 -0.50776,0 -0.994791,0.20174 -1.353832,0.56078 -0.35904,0.35904 -0.560775,0.84607 -0.560775,1.35383 0,0.50776 0.201735,0.99479 0.560775,1.35383 0.359041,0.35904 0.846072,0.56078 1.353832,0.56078 z" />
      <path
         inkscape:connector-curvature="0"
         id="path106"
         style="stroke:#000000;stroke-linecap:butt;stroke-linejoin:round"
         clip-path="url(#pfa2367b7f0)"
         d="m 59.683574,125.9385 c 0.506574,0 0.992469,-0.20126 1.350672,-0.55946 0.358202,-0.3582 0.559466,-0.8441 0.559466,-1.35068 0,-0.50657 -0.201264,-0.99247 -0.559466,-1.35067 -0.358203,-0.3582 -0.844098,-0.55946 -1.350672,-0.55946 -0.506575,0 -0.99247,0.20126 -1.350672,0.55946 -0.358203,0.3582 -0.559467,0.8441 -0.559467,1.35067 0,0.50658 0.201264,0.99248 0.559467,1.35068 0.358202,0.3582 0.844097,0.55946 1.350672,0.55946 z" />
      <path
         inkscape:connector-curvature="0"
         id="path108"
         style="stroke:#000000;stroke-linecap:butt;stroke-linejoin:round"
         clip-path="url(#pfa2367b7f0)"
         d="m 58.955668,121.94836 c 0.416142,0 0.815296,-0.16533 1.109553,-0.45959 0.294257,-0.29426 0.459592,-0.69341 0.459592,-1.10955 0,-0.41614 -0.165335,-0.8153 -0.459592,-1.10955 -0.294257,-0.29426 -0.693411,-0.4596 -1.109553,-0.4596 -0.416142,0 -0.815296,0.16534 -1.109553,0.4596 -0.294257,0.29425 -0.459591,0.69341 -0.459591,1.10955 0,0.41614 0.165334,0.81529 0.459591,1.10955 0.294257,0.29426 0.693411,0.45959 1.109553,0.45959 z" />
      <path
         inkscape:connector-curvature="0"
         id="path110"
         style="stroke:#000000;stroke-linecap:butt;stroke-linejoin:round"
         clip-path="url(#pfa2367b7f0)"
         d="m 51.061648,109.26748 c 0.593012,0 1.161816,-0.23561 1.581138,-0.65493 0.419323,-0.41932 0.65493,-0.98813 0.65493,-1.58114 0,-0.59301 -0.235607,-1.16181 -0.65493,-1.58114 -0.419322,-0.41932 -0.988126,-0.65493 -1.581138,-0.65493 -0.593013,0 -1.161816,0.23561 -1.581139,0.65493 -0.419323,0.41933 -0.654929,0.98813 -0.654929,1.58114 0,0.59301 0.235606,1.16182 0.654929,1.58114 0.419323,0.41932 0.988126,0.65493 1.581139,0.65493 z" />
      <path
         inkscape:connector-curvature="0"
         id="path259"
         style="fill:none;stroke:#000000;stroke-width:0.08503937;stroke-linecap:square;stroke-linejoin:miter;stroke-miterlimit:4;stroke-dasharray:none"
         d="M 18,189 V 25.92" />
      <path
         inkscape:connector-curvature="0"
         id="path262"
         style="fill:none;stroke:#000000;stroke-width:0.08503937;stroke-linecap:square;stroke-linejoin:miter;stroke-miterlimit:4;stroke-dasharray:none"
         d="M 129.6,189 V 25.92" />
      <path
         inkscape:connector-curvature="0"
         id="path265"
         style="fill:none;stroke:#000000;stroke-width:0.08503937;stroke-linecap:square;stroke-linejoin:miter;stroke-miterlimit:4;stroke-dasharray:none"
         d="M 18,189 H 129.6" />
      <path
         inkscape:connector-curvature="0"
         id="path268"
         style="fill:none;stroke:#000000;stroke-width:0.08503937;stroke-linecap:square;stroke-linejoin:miter;stroke-miterlimit:4;stroke-dasharray:none"
         d="M 18,25.92 H 129.6" />
    </g>
  </g>
  <defs
     id="defs276">
    <clipPath
       id="pfa2367b7f0">
      <rect
         x="18"
         y="25.92"
         width="111.6"
         height="163.08"
         id="rect273" />
    </clipPath>
  </defs>
</svg>
