<?xml version="1.0" encoding="utf-8" standalone="no"?>
<!DOCTYPE svg PUBLIC "-//W3C//DTD SVG 1.1//EN"
  "http://www.w3.org/Graphics/SVG/1.1/DTD/svg11.dtd">
<svg xmlns:xlink="http://www.w3.org/1999/xlink" width="144pt" height="216pt" viewBox="0 0 144 216" xmlns="http://www.w3.org/2000/svg" version="1.1">
 <metadata>
  <rdf:RDF xmlns:dc="http://purl.org/dc/elements/1.1/" xmlns:cc="http://creativecommons.org/ns#" xmlns:rdf="http://www.w3.org/1999/02/22-rdf-syntax-ns#">
   <cc:Work>
    <dc:type rdf:resource="http://purl.org/dc/dcmitype/StillImage"/>
    <dc:date>2022-06-23T14:48:15.563900</dc:date>
    <dc:format>image/svg+xml</dc:format>
    <dc:creator>
     <cc:Agent>
      <dc:title>Matplotlib v3.5.1, https://matplotlib.org/</dc:title>
     </cc:Agent>
    </dc:creator>
   </cc:Work>
  </rdf:RDF>
 </metadata>
 <defs>
  <style type="text/css">*{stroke-linejoin: round; stroke-linecap: butt}</style>
 </defs>
 <g id="figure_1">
  <g id="patch_1">
   <path d="M 0 216 
L 144 216 
L 144 0 
L 0 0 
L 0 216 
z
" style="fill: none"/>
  </g>
  <g id="axes_1">
   <g id="patch_2">
    <path d="M 18 189 
L 129.6 189 
L 129.6 25.92 
L 18 25.92 
z
" style="fill: #ffffff"/>
   </g>
   <g id="PathCollection_1">
    <defs>
     <path id="m3691b0ad04" d="M 0 2.738613 
C 0.726289 2.738613 1.422928 2.450055 1.936492 1.936492 
C 2.450055 1.422928 2.738613 0.726289 2.738613 0 
C 2.738613 -0.726289 2.450055 -1.422928 1.936492 -1.936492 
C 1.422928 -2.450055 0.726289 -2.738613 0 -2.738613 
C -0.726289 -2.738613 -1.422928 -2.450055 -1.936492 -1.936492 
C -2.450055 -1.422928 -2.738613 -0.726289 -2.738613 0 
C -2.738613 0.726289 -2.450055 1.422928 -1.936492 1.936492 
C -1.422928 2.450055 -0.726289 2.738613 0 2.738613 
z
" style="stroke: #ff0000; stroke-width: 1.75"/>
    </defs>
    <g clip-path="url(#p9fe6821ec0)">
     <use xlink:href="#m3691b0ad04" x="66.825" y="83.92143" style="fill: #ff0000; stroke: #ff0000; stroke-width: 1.75"/>
     <use xlink:href="#m3691b0ad04" x="87.75" y="95.690715" style="fill: #ff0000; stroke: #ff0000; stroke-width: 1.75"/>
     <use xlink:href="#m3691b0ad04" x="66.825" y="107.46" style="fill: #ff0000; stroke: #ff0000; stroke-width: 1.75"/>
     <use xlink:href="#m3691b0ad04" x="73.8" y="119.229285" style="fill: #ff0000; stroke: #ff0000; stroke-width: 1.75"/>
     <use xlink:href="#m3691b0ad04" x="87.75" y="119.229285" style="fill: #ff0000; stroke: #ff0000; stroke-width: 1.75"/>
     <use xlink:href="#m3691b0ad04" x="66.825" y="130.99857" style="fill: #ff0000; stroke: #ff0000; stroke-width: 1.75"/>
     <use xlink:href="#m3691b0ad04" x="80.775" y="130.99857" style="fill: #ff0000; stroke: #ff0000; stroke-width: 1.75"/>
    </g>
   </g>
   <g id="PathCollection_2">
    <defs>
     <path id="C0_0_b81b8b248f" d="M 0 2.738613 
C 0.726289 2.738613 1.422928 2.450055 1.936492 1.936492 
C 2.450055 1.422928 2.738613 0.726289 2.738613 -0 
C 2.738613 -0.726289 2.450055 -1.422928 1.936492 -1.936492 
C 1.422928 -2.450055 0.726289 -2.738613 0 -2.738613 
C -0.726289 -2.738613 -1.422928 -2.450055 -1.936492 -1.936492 
C -2.450055 -1.422928 -2.738613 -0.726289 -2.738613 0 
C -2.738613 0.726289 -2.450055 1.422928 -1.936492 1.936492 
C -1.422928 2.450055 -0.726289 2.738613 0 2.738613 
z
"/>
    </defs>
    <g clip-path="url(#p9fe6821ec0)">
     <use xlink:href="#C0_0_b81b8b248f" x="80.775" y="83.92143" style="fill: none; stroke: #ff0000; stroke-width: 1.75"/>
    </g>
    <g clip-path="url(#p9fe6821ec0)">
     <use xlink:href="#C0_0_b81b8b248f" x="59.85" y="95.690715" style="fill: none; stroke: #ff0000; stroke-width: 1.75"/>
    </g>
    <g clip-path="url(#p9fe6821ec0)">
     <use xlink:href="#C0_0_b81b8b248f" x="73.8" y="95.690715" style="fill: none; stroke: #ff0000; stroke-width: 1.75"/>
    </g>
    <g clip-path="url(#p9fe6821ec0)">
     <use xlink:href="#C0_0_b81b8b248f" x="52.875" y="107.46" style="fill: none; stroke: #ff0000; stroke-width: 1.75"/>
    </g>
    <g clip-path="url(#p9fe6821ec0)">
     <use xlink:href="#C0_0_b81b8b248f" x="80.775" y="107.46" style="fill: none; stroke: #ff0000; stroke-width: 1.75"/>
    </g>
    <g clip-path="url(#p9fe6821ec0)">
     <use xlink:href="#C0_0_b81b8b248f" x="94.725" y="107.46" style="fill: none; stroke: #ff0000; stroke-width: 1.75"/>
    </g>
    <g clip-path="url(#p9fe6821ec0)">
     <use xlink:href="#C0_0_b81b8b248f" x="59.85" y="119.229285" style="fill: none; stroke: #ff0000; stroke-width: 1.75"/>
    </g>
   </g>
   <g id="PathCollection_3">
    <path d="M 112.044794 87.031965 
C 112.177395 87.031965 112.304584 86.979282 112.398347 86.885519 
C 112.492111 86.791755 112.544794 86.664567 112.544794 86.531965 
C 112.544794 86.399364 112.492111 86.272175 112.398347 86.178412 
C 112.304584 86.084648 112.177395 86.031965 112.044794 86.031965 
C 111.912192 86.031965 111.785004 86.084648 111.691241 86.178412 
C 111.597477 86.272175 111.544794 86.399364 111.544794 86.531965 
C 111.544794 86.664567 111.597477 86.791755 111.691241 86.885519 
C 111.785004 86.979282 111.912192 87.031965 112.044794 87.031965 
z
" clip-path="url(#p9fe6821ec0)" style="stroke: #000000"/>
    <path d="M 112.211648 103.224818 
C 112.34425 103.224818 112.471438 103.172135 112.565201 103.078371 
C 112.658965 102.984608 112.711648 102.857419 112.711648 102.724818 
C 112.711648 102.592216 112.658965 102.465028 112.565201 102.371264 
C 112.471438 102.277501 112.34425 102.224818 112.211648 102.224818 
C 112.079047 102.224818 111.951858 102.277501 111.858095 102.371264 
C 111.764331 102.465028 111.711648 102.592216 111.711648 102.724818 
C 111.711648 102.857419 111.764331 102.984608 111.858095 103.078371 
C 111.951858 103.172135 112.079047 103.224818 112.211648 103.224818 
z
" clip-path="url(#p9fe6821ec0)" style="stroke: #000000"/>
    <path d="M 92.771256 39.218875 
C 92.903857 39.218875 93.031046 39.166192 93.124809 39.072429 
C 93.218573 38.978665 93.271256 38.851477 93.271256 38.718875 
C 93.271256 38.586274 93.218573 38.459085 93.124809 38.365322 
C 93.031046 38.271558 92.903857 38.218875 92.771256 38.218875 
C 92.638654 38.218875 92.511466 38.271558 92.417702 38.365322 
C 92.323939 38.459085 92.271256 38.586274 92.271256 38.718875 
C 92.271256 38.851477 92.323939 38.978665 92.417702 39.072429 
C 92.511466 39.166192 92.638654 39.218875 92.771256 39.218875 
z
" clip-path="url(#p9fe6821ec0)" style="stroke: #000000"/>
    <path d="M 107.642164 98.691037 
C 107.799854 98.691037 107.951108 98.628385 108.062612 98.516881 
C 108.174116 98.405377 108.236767 98.254124 108.236767 98.096433 
C 108.236767 97.938742 108.174116 97.787489 108.062612 97.675985 
C 107.951108 97.564481 107.799854 97.501829 107.642164 97.501829 
C 107.484473 97.501829 107.33322 97.564481 107.221715 97.675985 
C 107.110211 97.787489 107.04756 97.938742 107.04756 98.096433 
C 107.04756 98.254124 107.110211 98.405377 107.221715 98.516881 
C 107.33322 98.628385 107.484473 98.691037 107.642164 98.691037 
z
" clip-path="url(#p9fe6821ec0)" style="stroke: #000000"/>
    <path d="M 103.801233 86.676102 
C 103.958923 86.676102 104.110177 86.613451 104.221681 86.501947 
C 104.333185 86.390442 104.395836 86.239189 104.395836 86.081498 
C 104.395836 85.923808 104.333185 85.772554 104.221681 85.66105 
C 104.110177 85.549546 103.958923 85.486895 103.801233 85.486895 
C 103.643542 85.486895 103.492289 85.549546 103.380785 85.66105 
C 103.26928 85.772554 103.206629 85.923808 103.206629 86.081498 
C 103.206629 86.239189 103.26928 86.390442 103.380785 86.501947 
C 103.492289 86.613451 103.643542 86.676102 103.801233 86.676102 
z
" clip-path="url(#p9fe6821ec0)" style="stroke: #000000"/>
    <path d="M 115.695704 135.912834 
C 115.828305 135.912834 115.955494 135.860151 116.049257 135.766387 
C 116.143021 135.672624 116.195704 135.545435 116.195704 135.412834 
C 116.195704 135.280232 116.143021 135.153044 116.049257 135.05928 
C 115.955494 134.965517 115.828305 134.912834 115.695704 134.912834 
C 115.563102 134.912834 115.435914 134.965517 115.34215 135.05928 
C 115.248387 135.153044 115.195704 135.280232 115.195704 135.412834 
C 115.195704 135.545435 115.248387 135.672624 115.34215 135.766387 
C 115.435914 135.860151 115.563102 135.912834 115.695704 135.912834 
z
" clip-path="url(#p9fe6821ec0)" style="stroke: #000000"/>
    <path d="M 111.796652 129.829266 
C 111.971166 129.829266 112.138555 129.759931 112.261955 129.636531 
C 112.385354 129.513131 112.454689 129.345742 112.454689 129.171229 
C 112.454689 128.996715 112.385354 128.829326 112.261955 128.705926 
C 112.138555 128.582526 111.971166 128.513192 111.796652 128.513192 
C 111.622139 128.513192 111.454749 128.582526 111.33135 128.705926 
C 111.20795 128.829326 111.138615 128.996715 111.138615 129.171229 
C 111.138615 129.345742 111.20795 129.513131 111.33135 129.636531 
C 111.454749 129.759931 111.622139 129.829266 111.796652 129.829266 
z
" clip-path="url(#p9fe6821ec0)" style="stroke: #000000"/>
    <path d="M 107.15869 114.89709 
C 107.316381 114.89709 107.467634 114.834439 107.579139 114.722935 
C 107.690643 114.611431 107.753294 114.460177 107.753294 114.302487 
C 107.753294 114.144796 107.690643 113.993543 107.579139 113.882039 
C 107.467634 113.770534 107.316381 113.707883 107.15869 113.707883 
C 107.001 113.707883 106.849746 113.770534 106.738242 113.882039 
C 106.626738 113.993543 106.564087 114.144796 106.564087 114.302487 
C 106.564087 114.460177 106.626738 114.611431 106.738242 114.722935 
C 106.849746 114.834439 107.001 114.89709 107.15869 114.89709 
z
" clip-path="url(#p9fe6821ec0)" style="stroke: #000000"/>
    <path d="M 98.88651 92.492783 
C 99.191536 92.492783 99.484111 92.371594 99.699798 92.155908 
C 99.915484 91.940221 100.036673 91.647646 100.036673 91.34262 
C 100.036673 91.037593 99.915484 90.745018 99.699798 90.529331 
C 99.484111 90.313645 99.191536 90.192456 98.88651 90.192456 
C 98.581483 90.192456 98.288908 90.313645 98.073221 90.529331 
C 97.857535 90.745018 97.736346 91.037593 97.736346 91.34262 
C 97.736346 91.647646 97.857535 91.940221 98.073221 92.155908 
C 98.288908 92.371594 98.581483 92.492783 98.88651 92.492783 
z
" clip-path="url(#p9fe6821ec0)" style="stroke: #000000"/>
    <path d="M 109.680442 137.198422 
C 109.813043 137.198422 109.940232 137.145739 110.033995 137.051976 
C 110.127758 136.958212 110.180442 136.831024 110.180442 136.698422 
C 110.180442 136.565821 110.127758 136.438632 110.033995 136.344869 
C 109.940232 136.251105 109.813043 136.198422 109.680442 136.198422 
C 109.54784 136.198422 109.420652 136.251105 109.326888 136.344869 
C 109.233125 136.438632 109.180442 136.565821 109.180442 136.698422 
C 109.180442 136.831024 109.233125 136.958212 109.326888 137.051976 
C 109.420652 137.145739 109.54784 137.198422 109.680442 137.198422 
z
" clip-path="url(#p9fe6821ec0)" style="stroke: #000000"/>
    <path d="M 102.079089 116.425622 
C 102.418649 116.425622 102.744346 116.290714 102.984451 116.050609 
C 103.224556 115.810505 103.359464 115.484807 103.359464 115.145248 
C 103.359464 114.805688 103.224556 114.479991 102.984451 114.239886 
C 102.744346 113.999781 102.418649 113.864873 102.079089 113.864873 
C 101.73953 113.864873 101.413832 113.999781 101.173727 114.239886 
C 100.933623 114.479991 100.798714 114.805688 100.798714 115.145248 
C 100.798714 115.484807 100.933623 115.810505 101.173727 116.050609 
C 101.413832 116.290714 101.73953 116.425622 102.079089 116.425622 
z
" clip-path="url(#p9fe6821ec0)" style="stroke: #000000"/>
    <path d="M 97.04953 101.936539 
C 97.322658 101.936539 97.584637 101.828024 97.777768 101.634893 
C 97.970899 101.441762 98.079414 101.179784 98.079414 100.906655 
C 98.079414 100.633527 97.970899 100.371548 97.777768 100.178418 
C 97.584637 99.985287 97.322658 99.876772 97.04953 99.876772 
C 96.776402 99.876772 96.514423 99.985287 96.321292 100.178418 
C 96.128162 100.371548 96.019647 100.633527 96.019647 100.906655 
C 96.019647 101.179784 96.128162 101.441762 96.321292 101.634893 
C 96.514423 101.828024 96.776402 101.936539 97.04953 101.936539 
z
" clip-path="url(#p9fe6821ec0)" style="stroke: #000000"/>
    <path d="M 95.840419 93.440498 
C 95.97302 93.440498 96.100209 93.387814 96.193972 93.294051 
C 96.287735 93.200287 96.340419 93.073099 96.340419 92.940498 
C 96.340419 92.807896 96.287735 92.680708 96.193972 92.586944 
C 96.100209 92.493181 95.97302 92.440498 95.840419 92.440498 
C 95.707817 92.440498 95.580629 92.493181 95.486865 92.586944 
C 95.393102 92.680708 95.340419 92.807896 95.340419 92.940498 
C 95.340419 93.073099 95.393102 93.200287 95.486865 93.294051 
C 95.580629 93.387814 95.707817 93.440498 95.840419 93.440498 
z
" clip-path="url(#p9fe6821ec0)" style="stroke: #000000"/>
    <path d="M 89.38064 76.705247 
C 89.568167 76.705247 89.748038 76.630742 89.88064 76.498141 
C 90.013241 76.365539 90.087747 76.185668 90.087747 75.998141 
C 90.087747 75.810614 90.013241 75.630742 89.88064 75.498141 
C 89.748038 75.365539 89.568167 75.291034 89.38064 75.291034 
C 89.193113 75.291034 89.013241 75.365539 88.88064 75.498141 
C 88.748038 75.630742 88.673533 75.810614 88.673533 75.998141 
C 88.673533 76.185668 88.748038 76.365539 88.88064 76.498141 
C 89.013241 76.630742 89.193113 76.705247 89.38064 76.705247 
z
" clip-path="url(#p9fe6821ec0)" style="stroke: #000000"/>
    <path d="M 103.643714 130.563693 
C 103.776315 130.563693 103.903504 130.51101 103.997267 130.417246 
C 104.091031 130.323483 104.143714 130.196294 104.143714 130.063693 
C 104.143714 129.931091 104.091031 129.803903 103.997267 129.710139 
C 103.903504 129.616376 103.776315 129.563693 103.643714 129.563693 
C 103.511112 129.563693 103.383924 129.616376 103.29016 129.710139 
C 103.196397 129.803903 103.143714 129.931091 103.143714 130.063693 
C 103.143714 130.196294 103.196397 130.323483 103.29016 130.417246 
C 103.383924 130.51101 103.511112 130.563693 103.643714 130.563693 
z
" clip-path="url(#p9fe6821ec0)" style="stroke: #000000"/>
    <path d="M 97.951923 117.222209 
C 98.390801 117.222209 98.811763 117.047841 99.122096 116.737507 
C 99.43243 116.427173 99.606798 116.006212 99.606798 115.567333 
C 99.606798 115.128455 99.43243 114.707494 99.122096 114.39716 
C 98.811763 114.086826 98.390801 113.912458 97.951923 113.912458 
C 97.513045 113.912458 97.092083 114.086826 96.781749 114.39716 
C 96.471415 114.707494 96.297047 115.128455 96.297047 115.567333 
C 96.297047 116.006212 96.471415 116.427173 96.781749 116.737507 
C 97.092083 117.047841 97.513045 117.222209 97.951923 117.222209 
z
" clip-path="url(#p9fe6821ec0)" style="stroke: #000000"/>
    <path d="M 96.931097 114.472908 
C 97.268665 114.472908 97.592452 114.338791 97.831149 114.100094 
C 98.069845 113.861398 98.203962 113.537611 98.203962 113.200043 
C 98.203962 112.862475 98.069845 112.538688 97.831149 112.299991 
C 97.592452 112.061295 97.268665 111.927178 96.931097 111.927178 
C 96.59353 111.927178 96.269742 112.061295 96.031046 112.299991 
C 95.79235 112.538688 95.658232 112.862475 95.658232 113.200043 
C 95.658232 113.537611 95.79235 113.861398 96.031046 114.100094 
C 96.269742 114.338791 96.59353 114.472908 96.931097 114.472908 
z
" clip-path="url(#p9fe6821ec0)" style="stroke: #000000"/>
    <path d="M 94.437509 108.4496 
C 94.829027 108.4496 95.204563 108.294048 95.481408 108.017203 
C 95.758253 107.740357 95.913805 107.364822 95.913805 106.973304 
C 95.913805 106.581786 95.758253 106.20625 95.481408 105.929405 
C 95.204563 105.65256 94.829027 105.497008 94.437509 105.497008 
C 94.045991 105.497008 93.670456 105.65256 93.39361 105.929405 
C 93.116765 106.20625 92.961213 106.581786 92.961213 106.973304 
C 92.961213 107.364822 93.116765 107.740357 93.39361 108.017203 
C 93.670456 108.294048 94.045991 108.4496 94.437509 108.4496 
z
" clip-path="url(#p9fe6821ec0)" style="stroke: #000000"/>
    <path d="M 89.65851 95.691834 
C 90.222389 95.691834 90.763248 95.467802 91.16197 95.06908 
C 91.560693 94.670358 91.784724 94.129498 91.784724 93.56562 
C 91.784724 93.001741 91.560693 92.460882 91.16197 92.06216 
C 90.763248 91.663437 90.222389 91.439406 89.65851 91.439406 
C 89.094632 91.439406 88.553772 91.663437 88.15505 92.06216 
C 87.756328 92.460882 87.532296 93.001741 87.532296 93.56562 
C 87.532296 94.129498 87.756328 94.670358 88.15505 95.06908 
C 88.553772 95.467802 89.094632 95.691834 89.65851 95.691834 
z
" clip-path="url(#p9fe6821ec0)" style="stroke: #000000"/>
    <path d="M 85.458433 86.409179 
C 85.591035 86.409179 85.718223 86.356496 85.811987 86.262732 
C 85.90575 86.168969 85.958433 86.04178 85.958433 85.909179 
C 85.958433 85.776577 85.90575 85.649389 85.811987 85.555625 
C 85.718223 85.461862 85.591035 85.409179 85.458433 85.409179 
C 85.325832 85.409179 85.198643 85.461862 85.10488 85.555625 
C 85.011116 85.649389 84.958433 85.776577 84.958433 85.909179 
C 84.958433 86.04178 85.011116 86.168969 85.10488 86.262732 
C 85.198643 86.356496 85.325832 86.409179 85.458433 86.409179 
z
" clip-path="url(#p9fe6821ec0)" style="stroke: #000000"/>
    <path d="M 84.108279 82.662944 
C 84.418613 82.662944 84.716278 82.539647 84.935717 82.320208 
C 85.155156 82.100769 85.278453 81.803104 85.278453 81.492771 
C 85.278453 81.182437 85.155156 80.884772 84.935717 80.665333 
C 84.716278 80.445894 84.418613 80.322597 84.108279 80.322597 
C 83.797946 80.322597 83.500281 80.445894 83.280842 80.665333 
C 83.061403 80.884772 82.938106 81.182437 82.938106 81.492771 
C 82.938106 81.803104 83.061403 82.100769 83.280842 82.320208 
C 83.500281 82.539647 83.797946 82.662944 84.108279 82.662944 
z
" clip-path="url(#p9fe6821ec0)" style="stroke: #000000"/>
    <path d="M 110.838514 166.235514 
C 110.971116 166.235514 111.098304 166.182831 111.192068 166.089067 
C 111.285831 165.995304 111.338514 165.868115 111.338514 165.735514 
C 111.338514 165.602912 111.285831 165.475724 111.192068 165.38196 
C 111.098304 165.288197 110.971116 165.235514 110.838514 165.235514 
C 110.705913 165.235514 110.578724 165.288197 110.484961 165.38196 
C 110.391198 165.475724 110.338514 165.602912 110.338514 165.735514 
C 110.338514 165.868115 110.391198 165.995304 110.484961 166.089067 
C 110.578724 166.182831 110.705913 166.235514 110.838514 166.235514 
z
" clip-path="url(#p9fe6821ec0)" style="stroke: #000000"/>
    <path d="M 91.454581 116.019098 
C 91.971535 116.019098 92.467385 115.81371 92.832926 115.448169 
C 93.198468 115.082628 93.403856 114.586777 93.403856 114.069824 
C 93.403856 113.55287 93.198468 113.05702 92.832926 112.691479 
C 92.467385 112.325937 91.971535 112.120549 91.454581 112.120549 
C 90.937628 112.120549 90.441777 112.325937 90.076236 112.691479 
C 89.710695 113.05702 89.505307 113.55287 89.505307 114.069824 
C 89.505307 114.586777 89.710695 115.082628 90.076236 115.448169 
C 90.441777 115.81371 90.937628 116.019098 91.454581 116.019098 
z
" clip-path="url(#p9fe6821ec0)" style="stroke: #000000"/>
    <path d="M 90.649646 108.967847 
C 90.837173 108.967847 91.017044 108.893342 91.149646 108.760741 
C 91.282247 108.628139 91.356752 108.448268 91.356752 108.260741 
C 91.356752 108.073214 91.282247 107.893342 91.149646 107.760741 
C 91.017044 107.628139 90.837173 107.553634 90.649646 107.553634 
C 90.462119 107.553634 90.282247 107.628139 90.149646 107.760741 
C 90.017044 107.893342 89.942539 108.073214 89.942539 108.260741 
C 89.942539 108.448268 90.017044 108.628139 90.149646 108.760741 
C 90.282247 108.893342 90.462119 108.967847 90.649646 108.967847 
z
" clip-path="url(#p9fe6821ec0)" style="stroke: #000000"/>
    <path d="M 87.955932 101.961167 
C 88.303126 101.961167 88.636147 101.823225 88.881651 101.577721 
C 89.127155 101.332217 89.265097 100.999196 89.265097 100.652002 
C 89.265097 100.304807 89.127155 99.971786 88.881651 99.726282 
C 88.636147 99.480778 88.303126 99.342836 87.955932 99.342836 
C 87.608737 99.342836 87.275716 99.480778 87.030212 99.726282 
C 86.784708 99.971786 86.646766 100.304807 86.646766 100.652002 
C 86.646766 100.999196 86.784708 101.332217 87.030212 101.577721 
C 87.275716 101.823225 87.608737 101.961167 87.955932 101.961167 
z
" clip-path="url(#p9fe6821ec0)" style="stroke: #000000"/>
    <path d="M 87.138921 97.260998 
C 87.511009 97.260998 87.867908 97.113165 88.131015 96.850059 
C 88.394121 96.586952 88.541954 96.230053 88.541954 95.857965 
C 88.541954 95.485876 88.394121 95.128977 88.131015 94.86587 
C 87.867908 94.602764 87.511009 94.454932 87.138921 94.454932 
C 86.766832 94.454932 86.409933 94.602764 86.146826 94.86587 
C 85.88372 95.128977 85.735887 95.485876 85.735887 95.857965 
C 85.735887 96.230053 85.88372 96.586952 86.146826 96.850059 
C 86.409933 97.113165 86.766832 97.260998 87.138921 97.260998 
z
" clip-path="url(#p9fe6821ec0)" style="stroke: #000000"/>
    <path d="M 83.09894 88.8917 
C 83.419137 88.8917 83.726264 88.764484 83.952678 88.53807 
C 84.179092 88.311656 84.306308 88.004529 84.306308 87.684332 
C 84.306308 87.364134 84.179092 87.057007 83.952678 86.830593 
C 83.726264 86.604179 83.419137 86.476963 83.09894 86.476963 
C 82.778742 86.476963 82.471615 86.604179 82.245201 86.830593 
C 82.018787 87.057007 81.891571 87.364134 81.891571 87.684332 
C 81.891571 88.004529 82.018787 88.311656 82.245201 88.53807 
C 82.471615 88.764484 82.778742 88.8917 83.09894 88.8917 
z
" clip-path="url(#p9fe6821ec0)" style="stroke: #000000"/>
    <path d="M 82.076926 84.09227 
C 82.209527 84.09227 82.336716 84.039587 82.430479 83.945823 
C 82.524243 83.85206 82.576926 83.724871 82.576926 83.59227 
C 82.576926 83.459668 82.524243 83.33248 82.430479 83.238716 
C 82.336716 83.144953 82.209527 83.09227 82.076926 83.09227 
C 81.944324 83.09227 81.817136 83.144953 81.723373 83.238716 
C 81.629609 83.33248 81.576926 83.459668 81.576926 83.59227 
C 81.576926 83.724871 81.629609 83.85206 81.723373 83.945823 
C 81.817136 84.039587 81.944324 84.09227 82.076926 84.09227 
z
" clip-path="url(#p9fe6821ec0)" style="stroke: #000000"/>
    <path d="M 79.454085 75.963816 
C 79.628599 75.963816 79.795988 75.894481 79.919388 75.771082 
C 80.042787 75.647682 80.112122 75.480293 80.112122 75.305779 
C 80.112122 75.131266 80.042787 74.963877 79.919388 74.840477 
C 79.795988 74.717077 79.628599 74.647742 79.454085 74.647742 
C 79.279572 74.647742 79.112182 74.717077 78.988783 74.840477 
C 78.865383 74.963877 78.796048 75.131266 78.796048 75.305779 
C 78.796048 75.480293 78.865383 75.647682 78.988783 75.771082 
C 79.112182 75.894481 79.279572 75.963816 79.454085 75.963816 
z
" clip-path="url(#p9fe6821ec0)" style="stroke: #000000"/>
    <path d="M 93.021669 126.809971 
C 93.39072 126.809971 93.744706 126.663345 94.005664 126.402387 
C 94.266623 126.141428 94.413248 125.787443 94.413248 125.418392 
C 94.413248 125.049341 94.266623 124.695355 94.005664 124.434397 
C 93.744706 124.173438 93.39072 124.026813 93.021669 124.026813 
C 92.652618 124.026813 92.298633 124.173438 92.037675 124.434397 
C 91.776716 124.695355 91.630091 125.049341 91.630091 125.418392 
C 91.630091 125.787443 91.776716 126.141428 92.037675 126.402387 
C 92.298633 126.663345 92.652618 126.809971 93.021669 126.809971 
z
" clip-path="url(#p9fe6821ec0)" style="stroke: #000000"/>
    <path d="M 90.725149 123.28422 
C 90.85775 123.28422 90.984939 123.231537 91.078702 123.137774 
C 91.172466 123.04401 91.225149 122.916822 91.225149 122.78422 
C 91.225149 122.651619 91.172466 122.52443 91.078702 122.430667 
C 90.984939 122.336903 90.85775 122.28422 90.725149 122.28422 
C 90.592547 122.28422 90.465359 122.336903 90.371595 122.430667 
C 90.277832 122.52443 90.225149 122.651619 90.225149 122.78422 
C 90.225149 122.916822 90.277832 123.04401 90.371595 123.137774 
C 90.465359 123.231537 90.592547 123.28422 90.725149 123.28422 
z
" clip-path="url(#p9fe6821ec0)" style="stroke: #000000"/>
    <path d="M 88.661441 120.909627 
C 89.140248 120.909627 89.599509 120.719395 89.938077 120.380827 
C 90.276645 120.042259 90.466878 119.582998 90.466878 119.10419 
C 90.466878 118.625383 90.276645 118.166122 89.938077 117.827554 
C 89.599509 117.488986 89.140248 117.298754 88.661441 117.298754 
C 88.182634 117.298754 87.723372 117.488986 87.384805 117.827554 
C 87.046237 118.166122 86.856004 118.625383 86.856004 119.10419 
C 86.856004 119.582998 87.046237 120.042259 87.384805 120.380827 
C 87.723372 120.719395 88.182634 120.909627 88.661441 120.909627 
z
" clip-path="url(#p9fe6821ec0)" style="stroke: #000000"/>
    <path d="M 86.368171 115.223153 
C 86.76224 115.223153 87.140222 115.066588 87.418871 114.787939 
C 87.697519 114.50929 87.854085 114.131308 87.854085 113.737239 
C 87.854085 113.34317 87.697519 112.965188 87.418871 112.686539 
C 87.140222 112.40789 86.76224 112.251325 86.368171 112.251325 
C 85.974102 112.251325 85.59612 112.40789 85.317471 112.686539 
C 85.038822 112.965188 84.882257 113.34317 84.882257 113.737239 
C 84.882257 114.131308 85.038822 114.50929 85.317471 114.787939 
C 85.59612 115.066588 85.974102 115.223153 86.368171 115.223153 
z
" clip-path="url(#p9fe6821ec0)" style="stroke: #000000"/>
    <path d="M 84.309559 107.37726 
C 84.788366 107.37726 85.247628 107.187028 85.586195 106.84846 
C 85.924763 106.509892 86.114996 106.050631 86.114996 105.571823 
C 86.114996 105.093016 85.924763 104.633755 85.586195 104.295187 
C 85.247628 103.956619 84.788366 103.766387 84.309559 103.766387 
C 83.830752 103.766387 83.371491 103.956619 83.032923 104.295187 
C 82.694355 104.633755 82.504122 105.093016 82.504122 105.571823 
C 82.504122 106.050631 82.694355 106.509892 83.032923 106.84846 
C 83.371491 107.187028 83.830752 107.37726 84.309559 107.37726 
z
" clip-path="url(#p9fe6821ec0)" style="stroke: #000000"/>
    <path d="M 82.536184 98.698583 
C 83.058644 98.698583 83.559776 98.491008 83.92921 98.121573 
C 84.298645 97.752138 84.506221 97.251007 84.506221 96.728547 
C 84.506221 96.206087 84.298645 95.704956 83.92921 95.335521 
C 83.559776 94.966086 83.058644 94.758511 82.536184 94.758511 
C 82.013724 94.758511 81.512593 94.966086 81.143158 95.335521 
C 80.773723 95.704956 80.566148 96.206087 80.566148 96.728547 
C 80.566148 97.251007 80.773723 97.752138 81.143158 98.121573 
C 81.512593 98.491008 82.013724 98.698583 82.536184 98.698583 
z
" clip-path="url(#p9fe6821ec0)" style="stroke: #000000"/>
    <path d="M 78.476514 87.958934 
C 78.651028 87.958934 78.818417 87.889599 78.941817 87.766199 
C 79.065216 87.642799 79.134551 87.47541 79.134551 87.300897 
C 79.134551 87.126383 79.065216 86.958994 78.941817 86.835594 
C 78.818417 86.712195 78.651028 86.64286 78.476514 86.64286 
C 78.302001 86.64286 78.134611 86.712195 78.011212 86.835594 
C 77.887812 86.958994 77.818477 87.126383 77.818477 87.300897 
C 77.818477 87.47541 77.887812 87.642799 78.011212 87.766199 
C 78.134611 87.889599 78.302001 87.958934 78.476514 87.958934 
z
" clip-path="url(#p9fe6821ec0)" style="stroke: #000000"/>
    <path d="M 78.505777 86.279737 
C 78.852971 86.279737 79.185993 86.141795 79.431496 85.896292 
C 79.677 85.650788 79.814942 85.317767 79.814942 84.970572 
C 79.814942 84.623377 79.677 84.290356 79.431496 84.044853 
C 79.185993 83.799349 78.852971 83.661407 78.505777 83.661407 
C 78.158582 83.661407 77.825561 83.799349 77.580057 84.044853 
C 77.334553 84.290356 77.196611 84.623377 77.196611 84.970572 
C 77.196611 85.317767 77.334553 85.650788 77.580057 85.896292 
C 77.825561 86.141795 78.158582 86.279737 78.505777 86.279737 
z
" clip-path="url(#p9fe6821ec0)" style="stroke: #000000"/>
    <path d="M 95.373014 151.550219 
C 95.505616 151.550219 95.632804 151.497536 95.726568 151.403772 
C 95.820331 151.310009 95.873014 151.18282 95.873014 151.050219 
C 95.873014 150.917617 95.820331 150.790429 95.726568 150.696665 
C 95.632804 150.602902 95.505616 150.550219 95.373014 150.550219 
C 95.240413 150.550219 95.113224 150.602902 95.019461 150.696665 
C 94.925697 150.790429 94.873014 150.917617 94.873014 151.050219 
C 94.873014 151.18282 94.925697 151.310009 95.019461 151.403772 
C 95.113224 151.497536 95.240413 151.550219 95.373014 151.550219 
z
" clip-path="url(#p9fe6821ec0)" style="stroke: #000000"/>
    <path d="M 84.964843 121.786208 
C 85.36747 121.786208 85.753661 121.626243 86.038362 121.341542 
C 86.323062 121.056842 86.483028 120.670651 86.483028 120.268023 
C 86.483028 119.865396 86.323062 119.479205 86.038362 119.194504 
C 85.753661 118.909804 85.36747 118.749838 84.964843 118.749838 
C 84.562215 118.749838 84.176024 118.909804 83.891324 119.194504 
C 83.606623 119.479205 83.446658 119.865396 83.446658 120.268023 
C 83.446658 120.670651 83.606623 121.056842 83.891324 121.341542 
C 84.176024 121.626243 84.562215 121.786208 84.964843 121.786208 
z
" clip-path="url(#p9fe6821ec0)" style="stroke: #000000"/>
    <path d="M 83.373067 115.797877 
C 83.571352 115.797877 83.761543 115.719098 83.901752 115.578889 
C 84.041962 115.438679 84.120741 115.248488 84.120741 115.050203 
C 84.120741 114.851917 84.041962 114.661726 83.901752 114.521517 
C 83.761543 114.381308 83.571352 114.302529 83.373067 114.302529 
C 83.174781 114.302529 82.98459 114.381308 82.844381 114.521517 
C 82.704172 114.661726 82.625392 114.851917 82.625392 115.050203 
C 82.625392 115.248488 82.704172 115.438679 82.844381 115.578889 
C 82.98459 115.719098 83.174781 115.797877 83.373067 115.797877 
z
" clip-path="url(#p9fe6821ec0)" style="stroke: #000000"/>
    <path d="M 80.141978 103.971131 
C 80.274579 103.971131 80.401768 103.918448 80.495531 103.824684 
C 80.589295 103.730921 80.641978 103.603732 80.641978 103.471131 
C 80.641978 103.338529 80.589295 103.211341 80.495531 103.117577 
C 80.401768 103.023814 80.274579 102.971131 80.141978 102.971131 
C 80.009376 102.971131 79.882188 103.023814 79.788424 103.117577 
C 79.694661 103.211341 79.641978 103.338529 79.641978 103.471131 
C 79.641978 103.603732 79.694661 103.730921 79.788424 103.824684 
C 79.882188 103.918448 80.009376 103.971131 80.141978 103.971131 
z
" clip-path="url(#p9fe6821ec0)" style="stroke: #000000"/>
    <path d="M 73.598205 92.859544 
C 74.047666 92.859544 74.478779 92.680972 74.796596 92.363155 
C 75.114413 92.045338 75.292986 91.614225 75.292986 91.164764 
C 75.292986 90.715303 75.114413 90.28419 74.796596 89.966373 
C 74.478779 89.648556 74.047666 89.469983 73.598205 89.469983 
C 73.148744 89.469983 72.717631 89.648556 72.399814 89.966373 
C 72.081997 90.28419 71.903424 90.715303 71.903424 91.164764 
C 71.903424 91.614225 72.081997 92.045338 72.399814 92.363155 
C 72.717631 92.680972 73.148744 92.859544 73.598205 92.859544 
z
" clip-path="url(#p9fe6821ec0)" style="stroke: #000000"/>
    <path d="M 72.763004 85.548697 
C 72.998807 85.548697 73.224983 85.455012 73.391721 85.288274 
C 73.558458 85.121537 73.652144 84.89536 73.652144 84.659557 
C 73.652144 84.423755 73.558458 84.197578 73.391721 84.030841 
C 73.224983 83.864103 72.998807 83.770418 72.763004 83.770418 
C 72.527201 83.770418 72.301025 83.864103 72.134287 84.030841 
C 71.96755 84.197578 71.873864 84.423755 71.873864 84.659557 
C 71.873864 84.89536 71.96755 85.121537 72.134287 85.288274 
C 72.301025 85.455012 72.527201 85.548697 72.763004 85.548697 
z
" clip-path="url(#p9fe6821ec0)" style="stroke: #000000"/>
    <path d="M 83.103528 136.494581 
C 83.658579 136.494581 84.190972 136.274057 84.583453 135.881576 
C 84.975933 135.489096 85.196457 134.956703 85.196457 134.401652 
C 85.196457 133.8466 84.975933 133.314208 84.583453 132.921727 
C 84.190972 132.529246 83.658579 132.308722 83.103528 132.308722 
C 82.548477 132.308722 82.016084 132.529246 81.623603 132.921727 
C 81.231123 133.314208 81.010599 133.8466 81.010599 134.401652 
C 81.010599 134.956703 81.231123 135.489096 81.623603 135.881576 
C 82.016084 136.274057 82.548477 136.494581 83.103528 136.494581 
z
" clip-path="url(#p9fe6821ec0)" style="stroke: #000000"/>
    <path d="M 84.351494 132.666199 
C 84.910569 132.666199 85.446822 132.444076 85.842148 132.04875 
C 86.237474 131.653424 86.459597 131.117172 86.459597 130.558096 
C 86.459597 129.999021 86.237474 129.462769 85.842148 129.067443 
C 85.446822 128.672117 84.910569 128.449994 84.351494 128.449994 
C 83.792419 128.449994 83.256166 128.672117 82.86084 129.067443 
C 82.465514 129.462769 82.243391 129.999021 82.243391 130.558096 
C 82.243391 131.117172 82.465514 131.653424 82.86084 132.04875 
C 83.256166 132.444076 83.792419 132.666199 84.351494 132.666199 
z
" clip-path="url(#p9fe6821ec0)" style="stroke: #000000"/>
    <path d="M 82.69702 127.05248 
C 82.829621 127.05248 82.95681 126.999797 83.050573 126.906033 
C 83.144337 126.81227 83.19702 126.685082 83.19702 126.55248 
C 83.19702 126.419879 83.144337 126.29269 83.050573 126.198927 
C 82.95681 126.105163 82.829621 126.05248 82.69702 126.05248 
C 82.564418 126.05248 82.43723 126.105163 82.343466 126.198927 
C 82.249703 126.29269 82.19702 126.419879 82.19702 126.55248 
C 82.19702 126.685082 82.249703 126.81227 82.343466 126.906033 
C 82.43723 126.999797 82.564418 127.05248 82.69702 127.05248 
z
" clip-path="url(#p9fe6821ec0)" style="stroke: #000000"/>
    <path d="M 79.741529 122.503552 
C 79.899219 122.503552 80.050473 122.440901 80.161977 122.329396 
C 80.273481 122.217892 80.336132 122.066639 80.336132 121.908948 
C 80.336132 121.751258 80.273481 121.600004 80.161977 121.4885 
C 80.050473 121.376996 79.899219 121.314345 79.741529 121.314345 
C 79.583838 121.314345 79.432585 121.376996 79.321081 121.4885 
C 79.209576 121.600004 79.146925 121.751258 79.146925 121.908948 
C 79.146925 122.066639 79.209576 122.217892 79.321081 122.329396 
C 79.432585 122.440901 79.583838 122.503552 79.741529 122.503552 
z
" clip-path="url(#p9fe6821ec0)" style="stroke: #000000"/>
    <path d="M 79.284066 117.356913 
C 79.471593 117.356913 79.651464 117.282407 79.784066 117.149806 
C 79.916667 117.017204 79.991173 116.837333 79.991173 116.649806 
C 79.991173 116.462279 79.916667 116.282407 79.784066 116.149806 
C 79.651464 116.017204 79.471593 115.942699 79.284066 115.942699 
C 79.096539 115.942699 78.916667 116.017204 78.784066 116.149806 
C 78.651464 116.282407 78.576959 116.462279 78.576959 116.649806 
C 78.576959 116.837333 78.651464 117.017204 78.784066 117.149806 
C 78.916667 117.282407 79.096539 117.356913 79.284066 117.356913 
z
" clip-path="url(#p9fe6821ec0)" style="stroke: #000000"/>
    <path d="M 74.853904 110.415603 
C 75.011595 110.415603 75.162848 110.352952 75.274353 110.241448 
C 75.385857 110.129943 75.448508 109.97869 75.448508 109.820999 
C 75.448508 109.663309 75.385857 109.512055 75.274353 109.400551 
C 75.162848 109.289047 75.011595 109.226396 74.853904 109.226396 
C 74.696214 109.226396 74.54496 109.289047 74.433456 109.400551 
C 74.321952 109.512055 74.259301 109.663309 74.259301 109.820999 
C 74.259301 109.97869 74.321952 110.129943 74.433456 110.241448 
C 74.54496 110.352952 74.696214 110.415603 74.853904 110.415603 
z
" clip-path="url(#p9fe6821ec0)" style="stroke: #000000"/>
    <path d="M 73.123293 101.146332 
C 73.479374 101.146332 73.820919 101.00486 74.072707 100.753072 
C 74.324495 100.501284 74.465967 100.159739 74.465967 99.803657 
C 74.465967 99.447576 74.324495 99.106031 74.072707 98.854243 
C 73.820919 98.602455 73.479374 98.460983 73.123293 98.460983 
C 72.767211 98.460983 72.425666 98.602455 72.173878 98.854243 
C 71.922091 99.106031 71.780618 99.447576 71.780618 99.803657 
C 71.780618 100.159739 71.922091 100.501284 72.173878 100.753072 
C 72.425666 101.00486 72.767211 101.146332 73.123293 101.146332 
z
" clip-path="url(#p9fe6821ec0)" style="stroke: #000000"/>
    <path d="M 68.060019 86.697633 
C 68.192621 86.697633 68.319809 86.64495 68.413573 86.551187 
C 68.507336 86.457423 68.560019 86.330235 68.560019 86.197633 
C 68.560019 86.065032 68.507336 85.937843 68.413573 85.84408 
C 68.319809 85.750316 68.192621 85.697633 68.060019 85.697633 
C 67.927418 85.697633 67.800229 85.750316 67.706466 85.84408 
C 67.612702 85.937843 67.560019 86.065032 67.560019 86.197633 
C 67.560019 86.330235 67.612702 86.457423 67.706466 86.551187 
C 67.800229 86.64495 67.927418 86.697633 68.060019 86.697633 
z
" clip-path="url(#p9fe6821ec0)" style="stroke: #000000"/>
    <path d="M 79.84446 136.428228 
C 79.977062 136.428228 80.10425 136.375545 80.198014 136.281781 
C 80.291777 136.188018 80.34446 136.060829 80.34446 135.928228 
C 80.34446 135.795626 80.291777 135.668438 80.198014 135.574674 
C 80.10425 135.480911 79.977062 135.428228 79.84446 135.428228 
C 79.711859 135.428228 79.584671 135.480911 79.490907 135.574674 
C 79.397144 135.668438 79.34446 135.795626 79.34446 135.928228 
C 79.34446 136.060829 79.397144 136.188018 79.490907 136.281781 
C 79.584671 136.375545 79.711859 136.428228 79.84446 136.428228 
z
" clip-path="url(#p9fe6821ec0)" style="stroke: #000000"/>
    <path d="M 73.578082 119.60172 
C 73.951662 119.60172 74.309991 119.453295 74.574152 119.189134 
C 74.838313 118.924973 74.986738 118.566643 74.986738 118.193063 
C 74.986738 117.819483 74.838313 117.461153 74.574152 117.196992 
C 74.309991 116.932831 73.951662 116.784406 73.578082 116.784406 
C 73.204502 116.784406 72.846172 116.932831 72.582011 117.196992 
C 72.31785 117.461153 72.169425 117.819483 72.169425 118.193063 
C 72.169425 118.566643 72.31785 118.924973 72.582011 119.189134 
C 72.846172 119.453295 73.204502 119.60172 73.578082 119.60172 
z
" clip-path="url(#p9fe6821ec0)" style="stroke: #000000"/>
    <path d="M 70.679899 115.277917 
C 70.83759 115.277917 70.988843 115.215266 71.100347 115.103762 
C 71.211851 114.992258 71.274502 114.841005 71.274502 114.683314 
C 71.274502 114.525623 71.211851 114.37437 71.100347 114.262866 
C 70.988843 114.151362 70.83759 114.08871 70.679899 114.08871 
C 70.522208 114.08871 70.370955 114.151362 70.259451 114.262866 
C 70.147946 114.37437 70.085295 114.525623 70.085295 114.683314 
C 70.085295 114.841005 70.147946 114.992258 70.259451 115.103762 
C 70.370955 115.215266 70.522208 115.277917 70.679899 115.277917 
z
" clip-path="url(#p9fe6821ec0)" style="stroke: #000000"/>
    <path d="M 66.182768 94.093148 
C 66.315369 94.093148 66.442558 94.040465 66.536321 93.946701 
C 66.630085 93.852938 66.682768 93.725749 66.682768 93.593148 
C 66.682768 93.460546 66.630085 93.333358 66.536321 93.239595 
C 66.442558 93.145831 66.315369 93.093148 66.182768 93.093148 
C 66.050166 93.093148 65.922978 93.145831 65.829214 93.239595 
C 65.735451 93.333358 65.682768 93.460546 65.682768 93.593148 
C 65.682768 93.725749 65.735451 93.852938 65.829214 93.946701 
C 65.922978 94.040465 66.050166 94.093148 66.182768 94.093148 
z
" clip-path="url(#p9fe6821ec0)" style="stroke: #000000"/>
    <path d="M 62.20189 90.043766 
C 62.504156 90.043766 62.794083 89.923674 63.007817 89.70994 
C 63.221552 89.496205 63.341643 89.206278 63.341643 88.904012 
C 63.341643 88.601746 63.221552 88.311819 63.007817 88.098085 
C 62.794083 87.88435 62.504156 87.764259 62.20189 87.764259 
C 61.899624 87.764259 61.609697 87.88435 61.395962 88.098085 
C 61.182228 88.311819 61.062136 88.601746 61.062136 88.904012 
C 61.062136 89.206278 61.182228 89.496205 61.395962 89.70994 
C 61.609697 89.923674 61.899624 90.043766 62.20189 90.043766 
z
" clip-path="url(#p9fe6821ec0)" style="stroke: #000000"/>
    <path d="M 61.847915 84.458024 
C 62.172721 84.458024 62.484268 84.328977 62.71394 84.099304 
C 62.943613 83.869632 63.07266 83.558085 63.07266 83.233279 
C 63.07266 82.908473 62.943613 82.596926 62.71394 82.367253 
C 62.484268 82.137581 62.172721 82.008534 61.847915 82.008534 
C 61.523109 82.008534 61.211562 82.137581 60.981889 82.367253 
C 60.752217 82.596926 60.62317 82.908473 60.62317 83.233279 
C 60.62317 83.558085 60.752217 83.869632 60.981889 84.099304 
C 61.211562 84.328977 61.523109 84.458024 61.847915 84.458024 
z
" clip-path="url(#p9fe6821ec0)" style="stroke: #000000"/>
    <path d="M 60.228984 74.823515 
C 60.361585 74.823515 60.488774 74.770832 60.582537 74.677069 
C 60.676301 74.583305 60.728984 74.456117 60.728984 74.323515 
C 60.728984 74.190914 60.676301 74.063725 60.582537 73.969962 
C 60.488774 73.876199 60.361585 73.823515 60.228984 73.823515 
C 60.096382 73.823515 59.969194 73.876199 59.875431 73.969962 
C 59.781667 74.063725 59.728984 74.190914 59.728984 74.323515 
C 59.728984 74.456117 59.781667 74.583305 59.875431 74.677069 
C 59.969194 74.770832 60.096382 74.823515 60.228984 74.823515 
z
" clip-path="url(#p9fe6821ec0)" style="stroke: #000000"/>
    <path d="M 90.406696 175.152779 
C 90.539298 175.152779 90.666486 175.100096 90.76025 175.006333 
C 90.854013 174.912569 90.906696 174.785381 90.906696 174.652779 
C 90.906696 174.520178 90.854013 174.39299 90.76025 174.299226 
C 90.666486 174.205463 90.539298 174.152779 90.406696 174.152779 
C 90.274095 174.152779 90.146906 174.205463 90.053143 174.299226 
C 89.959379 174.39299 89.906696 174.520178 89.906696 174.652779 
C 89.906696 174.785381 89.959379 174.912569 90.053143 175.006333 
C 90.146906 175.100096 90.274095 175.152779 90.406696 175.152779 
z
" clip-path="url(#p9fe6821ec0)" style="stroke: #000000"/>
    <path d="M 72.859283 130.579394 
C 73.34226 130.579394 73.805521 130.387505 74.147038 130.045989 
C 74.488554 129.704472 74.680443 129.241211 74.680443 128.758234 
C 74.680443 128.275256 74.488554 127.811996 74.147038 127.470479 
C 73.805521 127.128962 73.34226 126.937074 72.859283 126.937074 
C 72.376305 126.937074 71.913045 127.128962 71.571528 127.470479 
C 71.230011 127.811996 71.038122 128.275256 71.038122 128.758234 
C 71.038122 129.241211 71.230011 129.704472 71.571528 130.045989 
C 71.913045 130.387505 72.376305 130.579394 72.859283 130.579394 
z
" clip-path="url(#p9fe6821ec0)" style="stroke: #000000"/>
    <path d="M 71.206158 124.746418 
C 71.338759 124.746418 71.465948 124.693735 71.559711 124.599971 
C 71.653475 124.506208 71.706158 124.379019 71.706158 124.246418 
C 71.706158 124.113816 71.653475 123.986628 71.559711 123.892864 
C 71.465948 123.799101 71.338759 123.746418 71.206158 123.746418 
C 71.073556 123.746418 70.946368 123.799101 70.852604 123.892864 
C 70.758841 123.986628 70.706158 124.113816 70.706158 124.246418 
C 70.706158 124.379019 70.758841 124.506208 70.852604 124.599971 
C 70.946368 124.693735 71.073556 124.746418 71.206158 124.746418 
z
" clip-path="url(#p9fe6821ec0)" style="stroke: #000000"/>
    <path d="M 70.35661 122.260482 
C 70.928507 122.260482 71.477057 122.033265 71.881449 121.628873 
C 72.285841 121.224481 72.513058 120.67593 72.513058 120.104034 
C 72.513058 119.532137 72.285841 118.983586 71.881449 118.579194 
C 71.477057 118.174802 70.928507 117.947585 70.35661 117.947585 
C 69.784713 117.947585 69.236163 118.174802 68.831771 118.579194 
C 68.427379 118.983586 68.200162 119.532137 68.200162 120.104034 
C 68.200162 120.67593 68.427379 121.224481 68.831771 121.628873 
C 69.236163 122.033265 69.784713 122.260482 70.35661 122.260482 
z
" clip-path="url(#p9fe6821ec0)" style="stroke: #000000"/>
    <path d="M 66.352217 117.655556 
C 66.509908 117.655556 66.661161 117.592904 66.772665 117.4814 
C 66.88417 117.369896 66.946821 117.218643 66.946821 117.060952 
C 66.946821 116.903261 66.88417 116.752008 66.772665 116.640504 
C 66.661161 116.529 66.509908 116.466349 66.352217 116.466349 
C 66.194527 116.466349 66.043273 116.529 65.931769 116.640504 
C 65.820265 116.752008 65.757614 116.903261 65.757614 117.060952 
C 65.757614 117.218643 65.820265 117.369896 65.931769 117.4814 
C 66.043273 117.592904 66.194527 117.655556 66.352217 117.655556 
z
" clip-path="url(#p9fe6821ec0)" style="stroke: #000000"/>
    <path d="M 65.952059 113.52825 
C 66.351086 113.52825 66.733823 113.369715 67.015978 113.087561 
C 67.298132 112.805406 67.456668 112.422669 67.456668 112.023642 
C 67.456668 111.624615 67.298132 111.241878 67.015978 110.959723 
C 66.733823 110.677569 66.351086 110.519034 65.952059 110.519034 
C 65.553032 110.519034 65.170295 110.677569 64.88814 110.959723 
C 64.605986 111.241878 64.447451 111.624615 64.447451 112.023642 
C 64.447451 112.422669 64.605986 112.805406 64.88814 113.087561 
C 65.170295 113.369715 65.553032 113.52825 65.952059 113.52825 
z
" clip-path="url(#p9fe6821ec0)" style="stroke: #000000"/>
    <path d="M 64.939799 109.718612 
C 65.507095 109.718612 66.051232 109.493223 66.452371 109.092084 
C 66.85351 108.690946 67.078899 108.146808 67.078899 107.579512 
C 67.078899 107.012216 66.85351 106.468078 66.452371 106.066939 
C 66.051232 105.6658 65.507095 105.440411 64.939799 105.440411 
C 64.372502 105.440411 63.828365 105.6658 63.427226 106.066939 
C 63.026087 106.468078 62.800698 107.012216 62.800698 107.579512 
C 62.800698 108.146808 63.026087 108.690946 63.427226 109.092084 
C 63.828365 109.493223 64.372502 109.718612 64.939799 109.718612 
z
" clip-path="url(#p9fe6821ec0)" style="stroke: #000000"/>
    <path d="M 61.637348 99.43891 
C 61.835634 99.43891 62.025825 99.360131 62.166034 99.219921 
C 62.306243 99.079712 62.385023 98.889521 62.385023 98.691236 
C 62.385023 98.49295 62.306243 98.302759 62.166034 98.16255 
C 62.025825 98.022341 61.835634 97.943561 61.637348 97.943561 
C 61.439063 97.943561 61.248872 98.022341 61.108663 98.16255 
C 60.968453 98.302759 60.889674 98.49295 60.889674 98.691236 
C 60.889674 98.889521 60.968453 99.079712 61.108663 99.219921 
C 61.248872 99.360131 61.439063 99.43891 61.637348 99.43891 
z
" clip-path="url(#p9fe6821ec0)" style="stroke: #000000"/>
    <path d="M 61.281389 95.093296 
C 61.479674 95.093296 61.669865 95.014516 61.810074 94.874307 
C 61.950283 94.734098 62.029063 94.543907 62.029063 94.345622 
C 62.029063 94.147336 61.950283 93.957145 61.810074 93.816936 
C 61.669865 93.676727 61.479674 93.597947 61.281389 93.597947 
C 61.083103 93.597947 60.892912 93.676727 60.752703 93.816936 
C 60.612494 93.957145 60.533714 94.147336 60.533714 94.345622 
C 60.533714 94.543907 60.612494 94.734098 60.752703 94.874307 
C 60.892912 95.014516 61.083103 95.093296 61.281389 95.093296 
z
" clip-path="url(#p9fe6821ec0)" style="stroke: #000000"/>
    <path d="M 61.407374 92.054428 
C 61.727572 92.054428 62.034698 91.927212 62.261112 91.700798 
C 62.487526 91.474384 62.614742 91.167258 62.614742 90.84706 
C 62.614742 90.526862 62.487526 90.219736 62.261112 89.993322 
C 62.034698 89.766908 61.727572 89.639692 61.407374 89.639692 
C 61.087176 89.639692 60.78005 89.766908 60.553636 89.993322 
C 60.327222 90.219736 60.200006 90.526862 60.200006 90.84706 
C 60.200006 91.167258 60.327222 91.474384 60.553636 91.700798 
C 60.78005 91.927212 61.087176 92.054428 61.407374 92.054428 
z
" clip-path="url(#p9fe6821ec0)" style="stroke: #000000"/>
    <path d="M 68.92457 135.526542 
C 69.299624 135.526542 69.659367 135.377532 69.92457 135.112329 
C 70.189774 134.847125 70.338784 134.487382 70.338784 134.112329 
C 70.338784 133.737275 70.189774 133.377532 69.92457 133.112329 
C 69.659367 132.847125 69.299624 132.698115 68.92457 132.698115 
C 68.549517 132.698115 68.189774 132.847125 67.92457 133.112329 
C 67.659367 133.377532 67.510357 133.737275 67.510357 134.112329 
C 67.510357 134.487382 67.659367 134.847125 67.92457 135.112329 
C 68.189774 135.377532 68.549517 135.526542 68.92457 135.526542 
z
" clip-path="url(#p9fe6821ec0)" style="stroke: #000000"/>
    <path d="M 67.176911 131.705113 
C 67.659889 131.705113 68.12315 131.513224 68.464666 131.171708 
C 68.806183 130.830191 68.998072 130.36693 68.998072 129.883953 
C 68.998072 129.400976 68.806183 128.937715 68.464666 128.596198 
C 68.12315 128.254682 67.659889 128.062793 67.176911 128.062793 
C 66.693934 128.062793 66.230673 128.254682 65.889157 128.596198 
C 65.54764 128.937715 65.355751 129.400976 65.355751 129.883953 
C 65.355751 130.36693 65.54764 130.830191 65.889157 131.171708 
C 66.230673 131.513224 66.693934 131.705113 67.176911 131.705113 
z
" clip-path="url(#p9fe6821ec0)" style="stroke: #000000"/>
    <path d="M 67.374482 127.044829 
C 67.507084 127.044829 67.634272 126.992146 67.728035 126.898382 
C 67.821799 126.804619 67.874482 126.67743 67.874482 126.544829 
C 67.874482 126.412227 67.821799 126.285039 67.728035 126.191275 
C 67.634272 126.097512 67.507084 126.044829 67.374482 126.044829 
C 67.241881 126.044829 67.114692 126.097512 67.020929 126.191275 
C 66.927165 126.285039 66.874482 126.412227 66.874482 126.544829 
C 66.874482 126.67743 66.927165 126.804619 67.020929 126.898382 
C 67.114692 126.992146 67.241881 127.044829 67.374482 127.044829 
z
" clip-path="url(#p9fe6821ec0)" style="stroke: #000000"/>
    <path d="M 65.178727 122.490856 
C 65.336418 122.490856 65.487671 122.428205 65.599175 122.3167 
C 65.710679 122.205196 65.77333 122.053943 65.77333 121.896252 
C 65.77333 121.738562 65.710679 121.587308 65.599175 121.475804 
C 65.487671 121.3643 65.336418 121.301649 65.178727 121.301649 
C 65.021036 121.301649 64.869783 121.3643 64.758279 121.475804 
C 64.646774 121.587308 64.584123 121.738562 64.584123 121.896252 
C 64.584123 122.053943 64.646774 122.205196 64.758279 122.3167 
C 64.869783 122.428205 65.021036 122.490856 65.178727 122.490856 
z
" clip-path="url(#p9fe6821ec0)" style="stroke: #000000"/>
    <path d="M 64.461831 117.227079 
C 64.636345 117.227079 64.803734 117.157744 64.927134 117.034344 
C 65.050533 116.910944 65.119868 116.743555 65.119868 116.569042 
C 65.119868 116.394528 65.050533 116.227139 64.927134 116.103739 
C 64.803734 115.98034 64.636345 115.911005 64.461831 115.911005 
C 64.287318 115.911005 64.119929 115.98034 63.996529 116.103739 
C 63.873129 116.227139 63.803794 116.394528 63.803794 116.569042 
C 63.803794 116.743555 63.873129 116.910944 63.996529 117.034344 
C 64.119929 117.157744 64.287318 117.227079 64.461831 117.227079 
z
" clip-path="url(#p9fe6821ec0)" style="stroke: #000000"/>
    <path d="M 58.524185 107.667004 
C 59.03076 107.667004 59.516655 107.46574 59.874857 107.107538 
C 60.233059 106.749335 60.434324 106.26344 60.434324 105.756865 
C 60.434324 105.250291 60.233059 104.764396 59.874857 104.406193 
C 59.516655 104.047991 59.03076 103.846727 58.524185 103.846727 
C 58.01761 103.846727 57.531715 104.047991 57.173513 104.406193 
C 56.815311 104.764396 56.614046 105.250291 56.614046 105.756865 
C 56.614046 106.26344 56.815311 106.749335 57.173513 107.107538 
C 57.531715 107.46574 58.01761 107.667004 58.524185 107.667004 
z
" clip-path="url(#p9fe6821ec0)" style="stroke: #000000"/>
    <path d="M 57.78089 101.192636 
C 58.142 101.192636 58.488368 101.049166 58.743711 100.793822 
C 58.999054 100.538479 59.142525 100.192111 59.142525 99.831001 
C 59.142525 99.469891 58.999054 99.123523 58.743711 98.86818 
C 58.488368 98.612837 58.142 98.469366 57.78089 98.469366 
C 57.41978 98.469366 57.073412 98.612837 56.818068 98.86818 
C 56.562725 99.123523 56.419255 99.469891 56.419255 99.831001 
C 56.419255 100.192111 56.562725 100.538479 56.818068 100.793822 
C 57.073412 101.049166 57.41978 101.192636 57.78089 101.192636 
z
" clip-path="url(#p9fe6821ec0)" style="stroke: #000000"/>
    <path d="M 46.364008 73.819753 
C 46.49661 73.819753 46.623798 73.76707 46.717562 73.673306 
C 46.811325 73.579543 46.864008 73.452354 46.864008 73.319753 
C 46.864008 73.187151 46.811325 73.059963 46.717562 72.966199 
C 46.623798 72.872436 46.49661 72.819753 46.364008 72.819753 
C 46.231407 72.819753 46.104218 72.872436 46.010455 72.966199 
C 45.916691 73.059963 45.864008 73.187151 45.864008 73.319753 
C 45.864008 73.452354 45.916691 73.579543 46.010455 73.673306 
C 46.104218 73.76707 46.231407 73.819753 46.364008 73.819753 
z
" clip-path="url(#p9fe6821ec0)" style="stroke: #000000"/>
    <path d="M 65.642821 139.967318 
C 65.841106 139.967318 66.031297 139.888538 66.171506 139.748329 
C 66.311715 139.60812 66.390495 139.417929 66.390495 139.219644 
C 66.390495 139.021358 66.311715 138.831167 66.171506 138.690958 
C 66.031297 138.550749 65.841106 138.471969 65.642821 138.471969 
C 65.444535 138.471969 65.254344 138.550749 65.114135 138.690958 
C 64.973926 138.831167 64.895146 139.021358 64.895146 139.219644 
C 64.895146 139.417929 64.973926 139.60812 65.114135 139.748329 
C 65.254344 139.888538 65.444535 139.967318 65.642821 139.967318 
z
" clip-path="url(#p9fe6821ec0)" style="stroke: #000000"/>
    <path d="M 59.618018 119.429287 
C 59.750619 119.429287 59.877808 119.376604 59.971571 119.28284 
C 60.065335 119.189077 60.118018 119.061888 60.118018 118.929287 
C 60.118018 118.796685 60.065335 118.669497 59.971571 118.575733 
C 59.877808 118.48197 59.750619 118.429287 59.618018 118.429287 
C 59.485416 118.429287 59.358228 118.48197 59.264465 118.575733 
C 59.170701 118.669497 59.118018 118.796685 59.118018 118.929287 
C 59.118018 119.061888 59.170701 119.189077 59.264465 119.28284 
C 59.358228 119.376604 59.485416 119.429287 59.618018 119.429287 
z
" clip-path="url(#p9fe6821ec0)" style="stroke: #000000"/>
    <path d="M 49.329457 87.881419 
C 49.487148 87.881419 49.638401 87.818768 49.749906 87.707264 
C 49.86141 87.595759 49.924061 87.444506 49.924061 87.286815 
C 49.924061 87.129125 49.86141 86.977871 49.749906 86.866367 
C 49.638401 86.754863 49.487148 86.692212 49.329457 86.692212 
C 49.171767 86.692212 49.020513 86.754863 48.909009 86.866367 
C 48.797505 86.977871 48.734854 87.129125 48.734854 87.286815 
C 48.734854 87.444506 48.797505 87.595759 48.909009 87.707264 
C 49.020513 87.818768 49.171767 87.881419 49.329457 87.881419 
z
" clip-path="url(#p9fe6821ec0)" style="stroke: #000000"/>
    <path d="M 45.429646 79.55268 
C 45.562247 79.55268 45.689436 79.499997 45.783199 79.406233 
C 45.876963 79.31247 45.929646 79.185281 45.929646 79.05268 
C 45.929646 78.920078 45.876963 78.79289 45.783199 78.699126 
C 45.689436 78.605363 45.562247 78.55268 45.429646 78.55268 
C 45.297044 78.55268 45.169856 78.605363 45.076092 78.699126 
C 44.982329 78.79289 44.929646 78.920078 44.929646 79.05268 
C 44.929646 79.185281 44.982329 79.31247 45.076092 79.406233 
C 45.169856 79.499997 45.297044 79.55268 45.429646 79.55268 
z
" clip-path="url(#p9fe6821ec0)" style="stroke: #000000"/>
    <path d="M 44.603239 75.47801 
C 44.76093 75.47801 44.912183 75.415359 45.023688 75.303855 
C 45.135192 75.192351 45.197843 75.041098 45.197843 74.883407 
C 45.197843 74.725716 45.135192 74.574463 45.023688 74.462959 
C 44.912183 74.351455 44.76093 74.288803 44.603239 74.288803 
C 44.445549 74.288803 44.294295 74.351455 44.182791 74.462959 
C 44.071287 74.574463 44.008636 74.725716 44.008636 74.883407 
C 44.008636 75.041098 44.071287 75.192351 44.182791 75.303855 
C 44.294295 75.415359 44.445549 75.47801 44.603239 75.47801 
z
" clip-path="url(#p9fe6821ec0)" style="stroke: #000000"/>
    <path d="M 71.432649 168.097196 
C 71.56525 168.097196 71.692439 168.044513 71.786202 167.950749 
C 71.879966 167.856986 71.932649 167.729797 71.932649 167.597196 
C 71.932649 167.464594 71.879966 167.337406 71.786202 167.243642 
C 71.692439 167.149879 71.56525 167.097196 71.432649 167.097196 
C 71.300047 167.097196 71.172859 167.149879 71.079095 167.243642 
C 70.985332 167.337406 70.932649 167.464594 70.932649 167.597196 
C 70.932649 167.729797 70.985332 167.856986 71.079095 167.950749 
C 71.172859 168.044513 71.300047 168.097196 71.432649 168.097196 
z
" clip-path="url(#p9fe6821ec0)" style="stroke: #000000"/>
    <path d="M 60.218311 138.028544 
C 60.425844 138.028544 60.624904 137.946091 60.771652 137.799343 
C 60.9184 137.652595 61.000853 137.453534 61.000853 137.246002 
C 61.000853 137.038469 60.9184 136.839409 60.771652 136.692661 
C 60.624904 136.545913 60.425844 136.46346 60.218311 136.46346 
C 60.010778 136.46346 59.811718 136.545913 59.66497 136.692661 
C 59.518222 136.839409 59.435769 137.038469 59.435769 137.246002 
C 59.435769 137.453534 59.518222 137.652595 59.66497 137.799343 
C 59.811718 137.946091 60.010778 138.028544 60.218311 138.028544 
z
" clip-path="url(#p9fe6821ec0)" style="stroke: #000000"/>
    <path d="M 56.545023 124.765595 
C 56.924397 124.765595 57.288284 124.614868 57.556542 124.34661 
C 57.824799 124.078353 57.975526 123.714466 57.975526 123.335092 
C 57.975526 122.955718 57.824799 122.591832 57.556542 122.323574 
C 57.288284 122.055316 56.924397 121.904589 56.545023 121.904589 
C 56.16565 121.904589 55.801763 122.055316 55.533505 122.323574 
C 55.265247 122.591832 55.114521 122.955718 55.114521 123.335092 
C 55.114521 123.714466 55.265247 124.078353 55.533505 124.34661 
C 55.801763 124.614868 56.16565 124.765595 56.545023 124.765595 
z
" clip-path="url(#p9fe6821ec0)" style="stroke: #000000"/>
    <path d="M 53.226369 120.814752 
C 53.695747 120.814752 54.145965 120.628266 54.477866 120.296365 
C 54.809767 119.964464 54.996253 119.514246 54.996253 119.044868 
C 54.996253 118.575489 54.809767 118.125271 54.477866 117.79337 
C 54.145965 117.461469 53.695747 117.274983 53.226369 117.274983 
C 52.75699 117.274983 52.306772 117.461469 51.974871 117.79337 
C 51.64297 118.125271 51.456484 118.575489 51.456484 119.044868 
C 51.456484 119.514246 51.64297 119.964464 51.974871 120.296365 
C 52.306772 120.628266 52.75699 120.814752 53.226369 120.814752 
z
" clip-path="url(#p9fe6821ec0)" style="stroke: #000000"/>
    <path d="M 53.833285 117.263899 
C 54.328801 117.263899 54.804088 117.067029 55.15447 116.716647 
C 55.504853 116.366264 55.701723 115.890977 55.701723 115.395462 
C 55.701723 114.899946 55.504853 114.424659 55.15447 114.074276 
C 54.804088 113.723894 54.328801 113.527024 53.833285 113.527024 
C 53.33777 113.527024 52.862483 113.723894 52.5121 114.074276 
C 52.161718 114.424659 51.964848 114.899946 51.964848 115.395462 
C 51.964848 115.890977 52.161718 116.366264 52.5121 116.716647 
C 52.862483 117.067029 53.33777 117.263899 53.833285 117.263899 
z
" clip-path="url(#p9fe6821ec0)" style="stroke: #000000"/>
    <path d="M 53.242891 115.395736 
C 53.735199 115.395736 54.20741 115.200139 54.555524 114.852025 
C 54.903639 114.503911 55.099235 114.0317 55.099235 113.539392 
C 55.099235 113.047084 54.903639 112.574873 54.555524 112.226758 
C 54.20741 111.878644 53.735199 111.683048 53.242891 111.683048 
C 52.750583 111.683048 52.278372 111.878644 51.930258 112.226758 
C 51.582143 112.574873 51.386547 113.047084 51.386547 113.539392 
C 51.386547 114.0317 51.582143 114.503911 51.930258 114.852025 
C 52.278372 115.200139 52.750583 115.395736 53.242891 115.395736 
z
" clip-path="url(#p9fe6821ec0)" style="stroke: #000000"/>
    <path d="M 49.186702 110.10193 
C 49.384988 110.10193 49.575179 110.023151 49.715388 109.882942 
C 49.855597 109.742733 49.934377 109.552542 49.934377 109.354256 
C 49.934377 109.15597 49.855597 108.965779 49.715388 108.82557 
C 49.575179 108.685361 49.384988 108.606582 49.186702 108.606582 
C 48.988417 108.606582 48.798226 108.685361 48.658017 108.82557 
C 48.517808 108.965779 48.439028 109.15597 48.439028 109.354256 
C 48.439028 109.552542 48.517808 109.742733 48.658017 109.882942 
C 48.798226 110.023151 48.988417 110.10193 49.186702 110.10193 
z
" clip-path="url(#p9fe6821ec0)" style="stroke: #000000"/>
    <path d="M 47.609311 99.399108 
C 47.816844 99.399108 48.015904 99.316654 48.162652 99.169907 
C 48.3094 99.023159 48.391853 98.824098 48.391853 98.616566 
C 48.391853 98.409033 48.3094 98.209972 48.162652 98.063225 
C 48.015904 97.916477 47.816844 97.834023 47.609311 97.834023 
C 47.401778 97.834023 47.202718 97.916477 47.05597 98.063225 
C 46.909222 98.209972 46.826769 98.409033 46.826769 98.616566 
C 46.826769 98.824098 46.909222 99.023159 47.05597 99.169907 
C 47.202718 99.316654 47.401778 99.399108 47.609311 99.399108 
z
" clip-path="url(#p9fe6821ec0)" style="stroke: #000000"/>
    <path d="M 43.179892 85.928059 
C 43.354405 85.928059 43.521794 85.858724 43.645194 85.735324 
C 43.768594 85.611925 43.837929 85.444535 43.837929 85.270022 
C 43.837929 85.095508 43.768594 84.928119 43.645194 84.804719 
C 43.521794 84.68132 43.354405 84.611985 43.179892 84.611985 
C 43.005378 84.611985 42.837989 84.68132 42.714589 84.804719 
C 42.591189 84.928119 42.521855 85.095508 42.521855 85.270022 
C 42.521855 85.444535 42.591189 85.611925 42.714589 85.735324 
C 42.837989 85.858724 43.005378 85.928059 43.179892 85.928059 
z
" clip-path="url(#p9fe6821ec0)" style="stroke: #000000"/>
    <path d="M 60.833472 148.371138 
C 60.966074 148.371138 61.093262 148.318455 61.187025 148.224691 
C 61.280789 148.130928 61.333472 148.00374 61.333472 147.871138 
C 61.333472 147.738536 61.280789 147.611348 61.187025 147.517585 
C 61.093262 147.423821 60.966074 147.371138 60.833472 147.371138 
C 60.70087 147.371138 60.573682 147.423821 60.479919 147.517585 
C 60.386155 147.611348 60.333472 147.738536 60.333472 147.871138 
C 60.333472 148.00374 60.386155 148.130928 60.479919 148.224691 
C 60.573682 148.318455 60.70087 148.371138 60.833472 148.371138 
z
" clip-path="url(#p9fe6821ec0)" style="stroke: #000000"/>
    <path d="M 44.680374 109.651969 
C 44.916176 109.651969 45.142353 109.558284 45.30909 109.391546 
C 45.475828 109.224808 45.569513 108.998632 45.569513 108.762829 
C 45.569513 108.527027 45.475828 108.30085 45.30909 108.134112 
C 45.142353 107.967375 44.916176 107.873689 44.680374 107.873689 
C 44.444571 107.873689 44.218394 107.967375 44.051657 108.134112 
C 43.884919 108.30085 43.791234 108.527027 43.791234 108.762829 
C 43.791234 108.998632 43.884919 109.224808 44.051657 109.391546 
C 44.218394 109.558284 44.444571 109.651969 44.680374 109.651969 
z
" clip-path="url(#p9fe6821ec0)" style="stroke: #000000"/>
    <path d="M 52.271871 139.576604 
C 52.404472 139.576604 52.53166 139.523921 52.625424 139.430158 
C 52.719187 139.336394 52.771871 139.209206 52.771871 139.076604 
C 52.771871 138.944003 52.719187 138.816814 52.625424 138.723051 
C 52.53166 138.629287 52.404472 138.576604 52.271871 138.576604 
C 52.139269 138.576604 52.012081 138.629287 51.918317 138.723051 
C 51.824554 138.816814 51.771871 138.944003 51.771871 139.076604 
C 51.771871 139.209206 51.824554 139.336394 51.918317 139.430158 
C 52.012081 139.523921 52.139269 139.576604 52.271871 139.576604 
z
" clip-path="url(#p9fe6821ec0)" style="stroke: #000000"/>
    <path d="M 49.809835 132.192838 
C 49.997362 132.192838 50.177233 132.118333 50.309835 131.985732 
C 50.442436 131.85313 50.516941 131.673258 50.516941 131.485732 
C 50.516941 131.298205 50.442436 131.118333 50.309835 130.985732 
C 50.177233 130.85313 49.997362 130.778625 49.809835 130.778625 
C 49.622308 130.778625 49.442436 130.85313 49.309835 130.985732 
C 49.177233 131.118333 49.102728 131.298205 49.102728 131.485732 
C 49.102728 131.673258 49.177233 131.85313 49.309835 131.985732 
C 49.442436 132.118333 49.622308 132.192838 49.809835 132.192838 
z
" clip-path="url(#p9fe6821ec0)" style="stroke: #000000"/>
    <path d="M 46.199576 126.902215 
C 46.374089 126.902215 46.541478 126.83288 46.664878 126.70948 
C 46.788278 126.586081 46.857613 126.418691 46.857613 126.244178 
C 46.857613 126.069664 46.788278 125.902275 46.664878 125.778875 
C 46.541478 125.655476 46.374089 125.586141 46.199576 125.586141 
C 46.025062 125.586141 45.857673 125.655476 45.734273 125.778875 
C 45.610874 125.902275 45.541539 126.069664 45.541539 126.244178 
C 45.541539 126.418691 45.610874 126.586081 45.734273 126.70948 
C 45.857673 126.83288 46.025062 126.902215 46.199576 126.902215 
z
" clip-path="url(#p9fe6821ec0)" style="stroke: #000000"/>
    <path d="M 42.798666 115.393541 
C 43.021675 115.393541 43.235579 115.304939 43.39327 115.147249 
C 43.55096 114.989558 43.639563 114.775653 43.639563 114.552645 
C 43.639563 114.329637 43.55096 114.115732 43.39327 113.958042 
C 43.235579 113.800351 43.021675 113.711749 42.798666 113.711749 
C 42.575658 113.711749 42.361753 113.800351 42.204063 113.958042 
C 42.046372 114.115732 41.95777 114.329637 41.95777 114.552645 
C 41.95777 114.775653 42.046372 114.989558 42.204063 115.147249 
C 42.361753 115.304939 42.575658 115.393541 42.798666 115.393541 
z
" clip-path="url(#p9fe6821ec0)" style="stroke: #000000"/>
    <path d="M 41.814303 110.745242 
C 42.037312 110.745242 42.251216 110.65664 42.408907 110.498949 
C 42.566597 110.341258 42.6552 110.127354 42.6552 109.904345 
C 42.6552 109.681337 42.566597 109.467432 42.408907 109.309742 
C 42.251216 109.152051 42.037312 109.063449 41.814303 109.063449 
C 41.591295 109.063449 41.37739 109.152051 41.2197 109.309742 
C 41.062009 109.467432 40.973407 109.681337 40.973407 109.904345 
C 40.973407 110.127354 41.062009 110.341258 41.2197 110.498949 
C 41.37739 110.65664 41.591295 110.745242 41.814303 110.745242 
z
" clip-path="url(#p9fe6821ec0)" style="stroke: #000000"/>
    <path d="M 37.56218 102.855761 
C 37.694782 102.855761 37.82197 102.803078 37.915733 102.709314 
C 38.009497 102.615551 38.06218 102.488362 38.06218 102.355761 
C 38.06218 102.223159 38.009497 102.095971 37.915733 102.002208 
C 37.82197 101.908444 37.694782 101.855761 37.56218 101.855761 
C 37.429578 101.855761 37.30239 101.908444 37.208627 102.002208 
C 37.114863 102.095971 37.06218 102.223159 37.06218 102.355761 
C 37.06218 102.488362 37.114863 102.615551 37.208627 102.709314 
C 37.30239 102.803078 37.429578 102.855761 37.56218 102.855761 
z
" clip-path="url(#p9fe6821ec0)" style="stroke: #000000"/>
    <path d="M 34.106379 89.645966 
C 34.23898 89.645966 34.366169 89.593283 34.459932 89.49952 
C 34.553696 89.405756 34.606379 89.278568 34.606379 89.145966 
C 34.606379 89.013365 34.553696 88.886176 34.459932 88.792413 
C 34.366169 88.69865 34.23898 88.645966 34.106379 88.645966 
C 33.973777 88.645966 33.846589 88.69865 33.752826 88.792413 
C 33.659062 88.886176 33.606379 89.013365 33.606379 89.145966 
C 33.606379 89.278568 33.659062 89.405756 33.752826 89.49952 
C 33.846589 89.593283 33.973777 89.645966 34.106379 89.645966 
z
" clip-path="url(#p9fe6821ec0)" style="stroke: #000000"/>
    <path d="M 45.88183 137.708902 
C 46.014432 137.708902 46.14162 137.656219 46.235383 137.562455 
C 46.329147 137.468692 46.38183 137.341503 46.38183 137.208902 
C 46.38183 137.0763 46.329147 136.949112 46.235383 136.855348 
C 46.14162 136.761585 46.014432 136.708902 45.88183 136.708902 
C 45.749229 136.708902 45.62204 136.761585 45.528277 136.855348 
C 45.434513 136.949112 45.38183 137.0763 45.38183 137.208902 
C 45.38183 137.341503 45.434513 137.468692 45.528277 137.562455 
C 45.62204 137.656219 45.749229 137.708902 45.88183 137.708902 
z
" clip-path="url(#p9fe6821ec0)" style="stroke: #000000"/>
    <path d="M 32.30702 118.669582 
C 32.439622 118.669582 32.56681 118.616899 32.660574 118.523136 
C 32.754337 118.429372 32.80702 118.302184 32.80702 118.169582 
C 32.80702 118.036981 32.754337 117.909792 32.660574 117.816029 
C 32.56681 117.722265 32.439622 117.669582 32.30702 117.669582 
C 32.174419 117.669582 32.04723 117.722265 31.953467 117.816029 
C 31.859703 117.909792 31.80702 118.036981 31.80702 118.169582 
C 31.80702 118.302184 31.859703 118.429372 31.953467 118.523136 
C 32.04723 118.616899 32.174419 118.669582 32.30702 118.669582 
z
" clip-path="url(#p9fe6821ec0)" style="stroke: #000000"/>
    <path d="M 30.397281 110.073267 
C 30.554972 110.073267 30.706225 110.010616 30.817729 109.899111 
C 30.929233 109.787607 30.991885 109.636354 30.991885 109.478663 
C 30.991885 109.320973 30.929233 109.169719 30.817729 109.058215 
C 30.706225 108.946711 30.554972 108.88406 30.397281 108.88406 
C 30.23959 108.88406 30.088337 108.946711 29.976833 109.058215 
C 29.865329 109.169719 29.802678 109.320973 29.802678 109.478663 
C 29.802678 109.636354 29.865329 109.787607 29.976833 109.899111 
C 30.088337 110.010616 30.23959 110.073267 30.397281 110.073267 
z
" clip-path="url(#p9fe6821ec0)" style="stroke: #000000"/>
    <path d="M 41.117239 152.221938 
C 41.24984 152.221938 41.377029 152.169254 41.470792 152.075491 
C 41.564556 151.981728 41.617239 151.854539 41.617239 151.721938 
C 41.617239 151.589336 41.564556 151.462148 41.470792 151.368384 
C 41.377029 151.274621 41.24984 151.221938 41.117239 151.221938 
C 40.984637 151.221938 40.857449 151.274621 40.763686 151.368384 
C 40.669922 151.462148 40.617239 151.589336 40.617239 151.721938 
C 40.617239 151.854539 40.669922 151.981728 40.763686 152.075491 
C 40.857449 152.169254 40.984637 152.221938 41.117239 152.221938 
z
" clip-path="url(#p9fe6821ec0)" style="stroke: #000000"/>
    <path d="M 31.64382 128.08101 
C 31.776422 128.08101 31.90361 128.028327 31.997374 127.934563 
C 32.091137 127.8408 32.14382 127.713611 32.14382 127.58101 
C 32.14382 127.448408 32.091137 127.32122 31.997374 127.227456 
C 31.90361 127.133693 31.776422 127.08101 31.64382 127.08101 
C 31.511219 127.08101 31.384031 127.133693 31.290267 127.227456 
C 31.196504 127.32122 31.14382 127.448408 31.14382 127.58101 
C 31.14382 127.713611 31.196504 127.8408 31.290267 127.934563 
C 31.384031 128.028327 31.511219 128.08101 31.64382 128.08101 
z
" clip-path="url(#p9fe6821ec0)" style="stroke: #000000"/>
    <path d="M 28.491277 118.698508 
C 28.623878 118.698508 28.751067 118.645825 28.84483 118.552062 
C 28.938594 118.458298 28.991277 118.33111 28.991277 118.198508 
C 28.991277 118.065907 28.938594 117.938718 28.84483 117.844955 
C 28.751067 117.751191 28.623878 117.698508 28.491277 117.698508 
C 28.358675 117.698508 28.231487 117.751191 28.137724 117.844955 
C 28.04396 117.938718 27.991277 118.065907 27.991277 118.198508 
C 27.991277 118.33111 28.04396 118.458298 28.137724 118.552062 
C 28.231487 118.645825 28.358675 118.698508 28.491277 118.698508 
z
" clip-path="url(#p9fe6821ec0)" style="stroke: #000000"/>
   </g>
   <g id="matplotlib.axis_1">
    <g id="xtick_1">
     <g id="line2d_1">
      <defs>
       <path id="m7344c8dc0d" d="M 0 0 
L 0 3.5 
" style="stroke: #000000; stroke-width: 0.8"/>
      </defs>
      <g>
       <use xlink:href="#m7344c8dc0d" x="18" y="189" style="stroke: #000000; stroke-width: 0.8"/>
      </g>
     </g>
     <g id="text_1">
      <!-- 10 -->
      <g transform="translate(7.447656 203.598437)scale(0.1 -0.1)">
       <defs>
        <path id="DejaVuSans-2212" d="M 678 2272 
L 4684 2272 
L 4684 1741 
L 678 1741 
L 678 2272 
z
" transform="scale(0.015625)"/>
        <path id="DejaVuSans-31" d="M 794 531 
L 1825 531 
L 1825 4091 
L 703 3866 
L 703 4441 
L 1819 4666 
L 2450 4666 
L 2450 531 
L 3481 531 
L 3481 0 
L 794 0 
L 794 531 
z
" transform="scale(0.015625)"/>
        <path id="DejaVuSans-30" d="M 2034 4250 
Q 1547 4250 1301 3770 
Q 1056 3291 1056 2328 
Q 1056 1369 1301 889 
Q 1547 409 2034 409 
Q 2525 409 2770 889 
Q 3016 1369 3016 2328 
Q 3016 3291 2770 3770 
Q 2525 4250 2034 4250 
z
M 2034 4750 
Q 2819 4750 3233 4129 
Q 3647 3509 3647 2328 
Q 3647 1150 3233 529 
Q 2819 -91 2034 -91 
Q 1250 -91 836 529 
Q 422 1150 422 2328 
Q 422 3509 836 4129 
Q 1250 4750 2034 4750 
z
" transform="scale(0.015625)"/>
       </defs>
       <use xlink:href="#DejaVuSans-2212"/>
       <use xlink:href="#DejaVuSans-31" x="83.789062"/>
       <use xlink:href="#DejaVuSans-30" x="147.412109"/>
      </g>
     </g>
    </g>
    <g id="xtick_2">
     <g id="line2d_2">
      <g>
       <use xlink:href="#m7344c8dc0d" x="73.8" y="189" style="stroke: #000000; stroke-width: 0.8"/>
      </g>
     </g>
     <g id="text_2">
      <!-- 0 -->
      <g transform="translate(70.61875 203.598437)scale(0.1 -0.1)">
       <use xlink:href="#DejaVuSans-30"/>
      </g>
     </g>
    </g>
    <g id="xtick_3">
     <g id="line2d_3">
      <g>
       <use xlink:href="#m7344c8dc0d" x="129.6" y="189" style="stroke: #000000; stroke-width: 0.8"/>
      </g>
     </g>
     <g id="text_3">
      <!-- 10 -->
      <g transform="translate(123.2375 203.598437)scale(0.1 -0.1)">
       <use xlink:href="#DejaVuSans-31"/>
       <use xlink:href="#DejaVuSans-30" x="63.623047"/>
      </g>
     </g>
    </g>
   </g>
   <g id="matplotlib.axis_2">
    <g id="ytick_1">
     <g id="line2d_4">
      <defs>
       <path id="mddb9b705b4" d="M 0 0 
L -3.5 0 
" style="stroke: #000000; stroke-width: 0.8"/>
      </defs>
      <g>
       <use xlink:href="#mddb9b705b4" x="18" y="189" style="stroke: #000000; stroke-width: 0.8"/>
      </g>
     </g>
     <g id="text_4">
      <!-- 15 -->
      <g transform="translate(-10.104688 192.799219)scale(0.1 -0.1)">
       <defs>
        <path id="DejaVuSans-35" d="M 691 4666 
L 3169 4666 
L 3169 4134 
L 1269 4134 
L 1269 2991 
Q 1406 3038 1543 3061 
Q 1681 3084 1819 3084 
Q 2600 3084 3056 2656 
Q 3513 2228 3513 1497 
Q 3513 744 3044 326 
Q 2575 -91 1722 -91 
Q 1428 -91 1123 -41 
Q 819 9 494 109 
L 494 744 
Q 775 591 1075 516 
Q 1375 441 1709 441 
Q 2250 441 2565 725 
Q 2881 1009 2881 1497 
Q 2881 1984 2565 2268 
Q 2250 2553 1709 2553 
Q 1456 2553 1204 2497 
Q 953 2441 691 2322 
L 691 4666 
z
" transform="scale(0.015625)"/>
       </defs>
       <use xlink:href="#DejaVuSans-2212"/>
       <use xlink:href="#DejaVuSans-31" x="83.789062"/>
       <use xlink:href="#DejaVuSans-35" x="147.412109"/>
      </g>
     </g>
    </g>
    <g id="ytick_2">
     <g id="line2d_5">
      <g>
       <use xlink:href="#mddb9b705b4" x="18" y="161.82" style="stroke: #000000; stroke-width: 0.8"/>
      </g>
     </g>
     <g id="text_5">
      <!-- 10 -->
      <g transform="translate(-10.104688 165.619219)scale(0.1 -0.1)">
       <use xlink:href="#DejaVuSans-2212"/>
       <use xlink:href="#DejaVuSans-31" x="83.789062"/>
       <use xlink:href="#DejaVuSans-30" x="147.412109"/>
      </g>
     </g>
    </g>
    <g id="ytick_3">
     <g id="line2d_6">
      <g>
       <use xlink:href="#mddb9b705b4" x="18" y="134.64" style="stroke: #000000; stroke-width: 0.8"/>
      </g>
     </g>
     <g id="text_6">
      <!-- 5 -->
      <g transform="translate(-3.742188 138.439219)scale(0.1 -0.1)">
       <use xlink:href="#DejaVuSans-2212"/>
       <use xlink:href="#DejaVuSans-35" x="83.789062"/>
      </g>
     </g>
    </g>
    <g id="ytick_4">
     <g id="line2d_7">
      <g>
       <use xlink:href="#mddb9b705b4" x="18" y="107.46" style="stroke: #000000; stroke-width: 0.8"/>
      </g>
     </g>
     <g id="text_7">
      <!-- 0 -->
      <g transform="translate(4.6375 111.259219)scale(0.1 -0.1)">
       <use xlink:href="#DejaVuSans-30"/>
      </g>
     </g>
    </g>
    <g id="ytick_5">
     <g id="line2d_8">
      <g>
       <use xlink:href="#mddb9b705b4" x="18" y="80.28" style="stroke: #000000; stroke-width: 0.8"/>
      </g>
     </g>
     <g id="text_8">
      <!-- 5 -->
      <g transform="translate(4.6375 84.079219)scale(0.1 -0.1)">
       <use xlink:href="#DejaVuSans-35"/>
      </g>
     </g>
    </g>
    <g id="ytick_6">
     <g id="line2d_9">
      <g>
       <use xlink:href="#mddb9b705b4" x="18" y="53.1" style="stroke: #000000; stroke-width: 0.8"/>
      </g>
     </g>
     <g id="text_9">
      <!-- 10 -->
      <g transform="translate(-1.725 56.899219)scale(0.1 -0.1)">
       <use xlink:href="#DejaVuSans-31"/>
       <use xlink:href="#DejaVuSans-30" x="63.623047"/>
      </g>
     </g>
    </g>
    <g id="ytick_7">
     <g id="line2d_10">
      <g>
       <use xlink:href="#mddb9b705b4" x="18" y="25.92" style="stroke: #000000; stroke-width: 0.8"/>
      </g>
     </g>
     <g id="text_10">
      <!-- 15 -->
      <g transform="translate(-1.725 29.719219)scale(0.1 -0.1)">
       <use xlink:href="#DejaVuSans-31"/>
       <use xlink:href="#DejaVuSans-35" x="63.623047"/>
      </g>
     </g>
    </g>
   </g>
   <g id="patch_3">
    <path d="M 18 189 
L 18 25.92 
" style="fill: none; stroke: #000000; stroke-width: 0.8; stroke-linejoin: miter; stroke-linecap: square"/>
   </g>
   <g id="patch_4">
    <path d="M 129.6 189 
L 129.6 25.92 
" style="fill: none; stroke: #000000; stroke-width: 0.8; stroke-linejoin: miter; stroke-linecap: square"/>
   </g>
   <g id="patch_5">
    <path d="M 18 189 
L 129.6 189 
" style="fill: none; stroke: #000000; stroke-width: 0.8; stroke-linejoin: miter; stroke-linecap: square"/>
   </g>
   <g id="patch_6">
    <path d="M 18 25.92 
L 129.6 25.92 
" style="fill: none; stroke: #000000; stroke-width: 0.8; stroke-linejoin: miter; stroke-linecap: square"/>
   </g>
  </g>
 </g>
 <defs>
  <clipPath id="p9fe6821ec0">
   <rect x="18" y="25.92" width="111.6" height="163.08"/>
  </clipPath>
 </defs>
</svg>
