<?xml version="1.0" encoding="utf-8" standalone="no"?>
<!DOCTYPE svg PUBLIC "-//W3C//DTD SVG 1.1//EN"
  "http://www.w3.org/Graphics/SVG/1.1/DTD/svg11.dtd">
<svg xmlns:xlink="http://www.w3.org/1999/xlink" width="144pt" height="216pt" viewBox="0 0 144 216" xmlns="http://www.w3.org/2000/svg" version="1.1">
 <metadata>
  <rdf:RDF xmlns:dc="http://purl.org/dc/elements/1.1/" xmlns:cc="http://creativecommons.org/ns#" xmlns:rdf="http://www.w3.org/1999/02/22-rdf-syntax-ns#">
   <cc:Work>
    <dc:type rdf:resource="http://purl.org/dc/dcmitype/StillImage"/>
    <dc:date>2022-06-23T14:43:35.433792</dc:date>
    <dc:format>image/svg+xml</dc:format>
    <dc:creator>
     <cc:Agent>
      <dc:title>Matplotlib v3.5.1, https://matplotlib.org/</dc:title>
     </cc:Agent>
    </dc:creator>
   </cc:Work>
  </rdf:RDF>
 </metadata>
 <defs>
  <style type="text/css">*{stroke-linejoin: round; stroke-linecap: butt}</style>
 </defs>
 <g id="figure_1">
  <g id="patch_1">
   <path d="M 0 216 
L 144 216 
L 144 0 
L 0 0 
L 0 216 
z
" style="fill: none"/>
  </g>
  <g id="axes_1">
   <g id="patch_2">
    <path d="M 18 189 
L 129.6 189 
L 129.6 25.92 
L 18 25.92 
z
" style="fill: #ffffff"/>
   </g>
   <g id="PathCollection_1">
    <defs>
     <path id="m2243781793" d="M 0 2.738613 
C 0.726289 2.738613 1.422928 2.450055 1.936492 1.936492 
C 2.450055 1.422928 2.738613 0.726289 2.738613 0 
C 2.738613 -0.726289 2.450055 -1.422928 1.936492 -1.936492 
C 1.422928 -2.450055 0.726289 -2.738613 0 -2.738613 
C -0.726289 -2.738613 -1.422928 -2.450055 -1.936492 -1.936492 
C -2.450055 -1.422928 -2.738613 -0.726289 -2.738613 0 
C -2.738613 0.726289 -2.450055 1.422928 -1.936492 1.936492 
C -1.422928 2.450055 -0.726289 2.738613 0 2.738613 
z
" style="stroke: #ff0000; stroke-width: 1.75"/>
    </defs>
    <g clip-path="url(#p1a8d23c3f3)">
     <use xlink:href="#m2243781793" x="80.775" y="83.92143" style="fill: #ff0000; stroke: #ff0000; stroke-width: 1.75"/>
     <use xlink:href="#m2243781793" x="59.85" y="95.690715" style="fill: #ff0000; stroke: #ff0000; stroke-width: 1.75"/>
     <use xlink:href="#m2243781793" x="66.825" y="107.46" style="fill: #ff0000; stroke: #ff0000; stroke-width: 1.75"/>
     <use xlink:href="#m2243781793" x="80.775" y="107.46" style="fill: #ff0000; stroke: #ff0000; stroke-width: 1.75"/>
     <use xlink:href="#m2243781793" x="94.725" y="107.46" style="fill: #ff0000; stroke: #ff0000; stroke-width: 1.75"/>
     <use xlink:href="#m2243781793" x="59.85" y="119.229285" style="fill: #ff0000; stroke: #ff0000; stroke-width: 1.75"/>
     <use xlink:href="#m2243781793" x="80.775" y="130.99857" style="fill: #ff0000; stroke: #ff0000; stroke-width: 1.75"/>
    </g>
   </g>
   <g id="PathCollection_2">
    <defs>
     <path id="C0_0_6a94389796" d="M 0 2.738613 
C 0.726289 2.738613 1.422928 2.450055 1.936492 1.936492 
C 2.450055 1.422928 2.738613 0.726289 2.738613 -0 
C 2.738613 -0.726289 2.450055 -1.422928 1.936492 -1.936492 
C 1.422928 -2.450055 0.726289 -2.738613 0 -2.738613 
C -0.726289 -2.738613 -1.422928 -2.450055 -1.936492 -1.936492 
C -2.450055 -1.422928 -2.738613 -0.726289 -2.738613 0 
C -2.738613 0.726289 -2.450055 1.422928 -1.936492 1.936492 
C -1.422928 2.450055 -0.726289 2.738613 0 2.738613 
z
"/>
    </defs>
    <g clip-path="url(#p1a8d23c3f3)">
     <use xlink:href="#C0_0_6a94389796" x="66.825" y="83.92143" style="fill: none; stroke: #ff0000; stroke-width: 1.75"/>
    </g>
    <g clip-path="url(#p1a8d23c3f3)">
     <use xlink:href="#C0_0_6a94389796" x="73.8" y="95.690715" style="fill: none; stroke: #ff0000; stroke-width: 1.75"/>
    </g>
    <g clip-path="url(#p1a8d23c3f3)">
     <use xlink:href="#C0_0_6a94389796" x="87.75" y="95.690715" style="fill: none; stroke: #ff0000; stroke-width: 1.75"/>
    </g>
    <g clip-path="url(#p1a8d23c3f3)">
     <use xlink:href="#C0_0_6a94389796" x="52.875" y="107.46" style="fill: none; stroke: #ff0000; stroke-width: 1.75"/>
    </g>
    <g clip-path="url(#p1a8d23c3f3)">
     <use xlink:href="#C0_0_6a94389796" x="73.8" y="119.229285" style="fill: none; stroke: #ff0000; stroke-width: 1.75"/>
    </g>
    <g clip-path="url(#p1a8d23c3f3)">
     <use xlink:href="#C0_0_6a94389796" x="87.75" y="119.229285" style="fill: none; stroke: #ff0000; stroke-width: 1.75"/>
    </g>
    <g clip-path="url(#p1a8d23c3f3)">
     <use xlink:href="#C0_0_6a94389796" x="66.825" y="130.99857" style="fill: none; stroke: #ff0000; stroke-width: 1.75"/>
    </g>
   </g>
   <g id="PathCollection_3">
    <path d="M 98.008779 109.451302 
C 98.563831 109.451302 99.096223 109.230778 99.488704 108.838297 
C 99.881184 108.445817 100.101709 107.913424 100.101709 107.358373 
C 100.101709 106.803321 99.881184 106.270928 99.488704 105.878448 
C 99.096223 105.485967 98.563831 105.265443 98.008779 105.265443 
C 97.453728 105.265443 96.921335 105.485967 96.528855 105.878448 
C 96.136374 106.270928 95.91585 106.803321 95.91585 107.358373 
C 95.91585 107.913424 96.136374 108.445817 96.528855 108.838297 
C 96.921335 109.230778 97.453728 109.451302 98.008779 109.451302 
z
" clip-path="url(#p1a8d23c3f3)" style="stroke: #000000"/>
    <path d="M 71.761907 41.614554 
C 71.894509 41.614554 72.021697 41.561871 72.115461 41.468107 
C 72.209224 41.374344 72.261907 41.247156 72.261907 41.114554 
C 72.261907 40.981952 72.209224 40.854764 72.115461 40.761001 
C 72.021697 40.667237 71.894509 40.614554 71.761907 40.614554 
C 71.629306 40.614554 71.502117 40.667237 71.408354 40.761001 
C 71.314591 40.854764 71.261907 40.981952 71.261907 41.114554 
C 71.261907 41.247156 71.314591 41.374344 71.408354 41.468107 
C 71.502117 41.561871 71.629306 41.614554 71.761907 41.614554 
z
" clip-path="url(#p1a8d23c3f3)" style="stroke: #000000"/>
    <path d="M 91.201616 111.417412 
C 91.470869 111.417412 91.729131 111.310436 91.919521 111.120046 
C 92.109912 110.929655 92.216887 110.671393 92.216887 110.40214 
C 92.216887 110.132887 92.109912 109.874626 91.919521 109.684235 
C 91.729131 109.493844 91.470869 109.386869 91.201616 109.386869 
C 90.932363 109.386869 90.674101 109.493844 90.48371 109.684235 
C 90.29332 109.874626 90.186344 110.132887 90.186344 110.40214 
C 90.186344 110.671393 90.29332 110.929655 90.48371 111.120046 
C 90.674101 111.310436 90.932363 111.417412 91.201616 111.417412 
z
" clip-path="url(#p1a8d23c3f3)" style="stroke: #000000"/>
    <path d="M 84.753346 98.776027 
C 85.282713 98.776027 85.79047 98.565707 86.164789 98.191388 
C 86.539108 97.817069 86.749428 97.309312 86.749428 96.779945 
C 86.749428 96.250578 86.539108 95.742821 86.164789 95.368501 
C 85.79047 94.994182 85.282713 94.783863 84.753346 94.783863 
C 84.223979 94.783863 83.716222 94.994182 83.341903 95.368501 
C 82.967584 95.742821 82.757264 96.250578 82.757264 96.779945 
C 82.757264 97.309312 82.967584 97.817069 83.341903 98.191388 
C 83.716222 98.565707 84.223979 98.776027 84.753346 98.776027 
z
" clip-path="url(#p1a8d23c3f3)" style="stroke: #000000"/>
    <path d="M 81.552985 86.84676 
C 82.085962 86.84676 82.597182 86.635006 82.974054 86.258134 
C 83.350925 85.881262 83.56268 85.370042 83.56268 84.837065 
C 83.56268 84.304087 83.350925 83.792868 82.974054 83.415996 
C 82.597182 83.039124 82.085962 82.82737 81.552985 82.82737 
C 81.020007 82.82737 80.508788 83.039124 80.131916 83.415996 
C 79.755044 83.792868 79.54329 84.304087 79.54329 84.837065 
C 79.54329 85.370042 79.755044 85.881262 80.131916 86.258134 
C 80.508788 86.635006 81.020007 86.84676 81.552985 86.84676 
z
" clip-path="url(#p1a8d23c3f3)" style="stroke: #000000"/>
    <path d="M 83.488968 83.343617 
C 83.868342 83.343617 84.232228 83.19289 84.500486 82.924633 
C 84.768744 82.656375 84.919471 82.292488 84.919471 81.913114 
C 84.919471 81.533741 84.768744 81.169854 84.500486 80.901596 
C 84.232228 80.633338 83.868342 80.482612 83.488968 80.482612 
C 83.109594 80.482612 82.745707 80.633338 82.47745 80.901596 
C 82.209192 81.169854 82.058465 81.533741 82.058465 81.913114 
C 82.058465 82.292488 82.209192 82.656375 82.47745 82.924633 
C 82.745707 83.19289 83.109594 83.343617 83.488968 83.343617 
z
" clip-path="url(#p1a8d23c3f3)" style="stroke: #000000"/>
    <path d="M 88.92534 124.723627 
C 89.057941 124.723627 89.18513 124.670944 89.278893 124.577181 
C 89.372657 124.483417 89.42534 124.356229 89.42534 124.223627 
C 89.42534 124.091026 89.372657 123.963837 89.278893 123.870074 
C 89.18513 123.776311 89.057941 123.723627 88.92534 123.723627 
C 88.792738 123.723627 88.66555 123.776311 88.571786 123.870074 
C 88.478023 123.963837 88.42534 124.091026 88.42534 124.223627 
C 88.42534 124.356229 88.478023 124.483417 88.571786 124.577181 
C 88.66555 124.670944 88.792738 124.723627 88.92534 124.723627 
z
" clip-path="url(#p1a8d23c3f3)" style="stroke: #000000"/>
    <path d="M 87.156478 120.818888 
C 87.768901 120.818888 88.356324 120.57557 88.789372 120.142522 
C 89.22242 119.709473 89.465739 119.122051 89.465739 118.509628 
C 89.465739 117.897205 89.22242 117.309783 88.789372 116.876735 
C 88.356324 116.443686 87.768901 116.200368 87.156478 116.200368 
C 86.544056 116.200368 85.956633 116.443686 85.523585 116.876735 
C 85.090537 117.309783 84.847218 117.897205 84.847218 118.509628 
C 84.847218 119.122051 85.090537 119.709473 85.523585 120.142522 
C 85.956633 120.57557 86.544056 120.818888 87.156478 120.818888 
z
" clip-path="url(#p1a8d23c3f3)" style="stroke: #000000"/>
    <path d="M 82.87718 106.862723 
C 83.313289 106.862723 83.731595 106.689455 84.03997 106.381079 
C 84.348346 106.072703 84.521614 105.654397 84.521614 105.218288 
C 84.521614 104.782179 84.348346 104.363874 84.03997 104.055498 
C 83.731595 103.747122 83.313289 103.573854 82.87718 103.573854 
C 82.441071 103.573854 82.022765 103.747122 81.714389 104.055498 
C 81.406014 104.363874 81.232746 104.782179 81.232746 105.218288 
C 81.232746 105.654397 81.406014 106.072703 81.714389 106.381079 
C 82.022765 106.689455 82.441071 106.862723 82.87718 106.862723 
z
" clip-path="url(#p1a8d23c3f3)" style="stroke: #000000"/>
    <path d="M 75.300486 95.515401 
C 75.770611 95.515401 76.221543 95.328619 76.553972 94.99619 
C 76.8864 94.663762 77.073182 94.212829 77.073182 93.742705 
C 77.073182 93.27258 76.8864 92.821648 76.553972 92.48922 
C 76.221543 92.156791 75.770611 91.970009 75.300486 91.970009 
C 74.830362 91.970009 74.379429 92.156791 74.047001 92.48922 
C 73.714573 92.821648 73.52779 93.27258 73.52779 93.742705 
C 73.52779 94.212829 73.714573 94.663762 74.047001 94.99619 
C 74.379429 95.328619 74.830362 95.515401 75.300486 95.515401 
z
" clip-path="url(#p1a8d23c3f3)" style="stroke: #000000"/>
    <path d="M 76.444142 86.624555 
C 76.759523 86.624555 77.06203 86.499253 77.285038 86.276244 
C 77.508046 86.053236 77.633349 85.750729 77.633349 85.435348 
C 77.633349 85.119967 77.508046 84.81746 77.285038 84.594452 
C 77.06203 84.371443 76.759523 84.246141 76.444142 84.246141 
C 76.12876 84.246141 75.826254 84.371443 75.603245 84.594452 
C 75.380237 84.81746 75.254935 85.119967 75.254935 85.435348 
C 75.254935 85.750729 75.380237 86.053236 75.603245 86.276244 
C 75.826254 86.499253 76.12876 86.624555 76.444142 86.624555 
z
" clip-path="url(#p1a8d23c3f3)" style="stroke: #000000"/>
    <path d="M 93.806706 158.679388 
C 93.939307 158.679388 94.066496 158.626704 94.160259 158.532941 
C 94.254023 158.439177 94.306706 158.311989 94.306706 158.179388 
C 94.306706 158.046786 94.254023 157.919598 94.160259 157.825834 
C 94.066496 157.732071 93.939307 157.679388 93.806706 157.679388 
C 93.674104 157.679388 93.546916 157.732071 93.453152 157.825834 
C 93.359389 157.919598 93.306706 158.046786 93.306706 158.179388 
C 93.306706 158.311989 93.359389 158.439177 93.453152 158.532941 
C 93.546916 158.626704 93.674104 158.679388 93.806706 158.679388 
z
" clip-path="url(#p1a8d23c3f3)" style="stroke: #000000"/>
    <path d="M 84.274408 134.604455 
C 84.432099 134.604455 84.583352 134.541804 84.694856 134.4303 
C 84.806361 134.318796 84.869012 134.167542 84.869012 134.009852 
C 84.869012 133.852161 84.806361 133.700908 84.694856 133.589403 
C 84.583352 133.477899 84.432099 133.415248 84.274408 133.415248 
C 84.116718 133.415248 83.965464 133.477899 83.85396 133.589403 
C 83.742456 133.700908 83.679805 133.852161 83.679805 134.009852 
C 83.679805 134.167542 83.742456 134.318796 83.85396 134.4303 
C 83.965464 134.541804 84.116718 134.604455 84.274408 134.604455 
z
" clip-path="url(#p1a8d23c3f3)" style="stroke: #000000"/>
    <path d="M 83.85413 127.339596 
C 84.028644 127.339596 84.196033 127.270261 84.319433 127.146861 
C 84.442832 127.023461 84.512167 126.856072 84.512167 126.681559 
C 84.512167 126.507045 84.442832 126.339656 84.319433 126.216256 
C 84.196033 126.092857 84.028644 126.023522 83.85413 126.023522 
C 83.679617 126.023522 83.512228 126.092857 83.388828 126.216256 
C 83.265428 126.339656 83.196093 126.507045 83.196093 126.681559 
C 83.196093 126.856072 83.265428 127.023461 83.388828 127.146861 
C 83.512228 127.270261 83.679617 127.339596 83.85413 127.339596 
z
" clip-path="url(#p1a8d23c3f3)" style="stroke: #000000"/>
    <path d="M 74.191025 98.046094 
C 74.707419 98.046094 75.202731 97.840929 75.567877 97.475784 
C 75.933022 97.110639 76.138187 96.615326 76.138187 96.098933 
C 76.138187 95.58254 75.933022 95.087227 75.567877 94.722082 
C 75.202731 94.356937 74.707419 94.151772 74.191025 94.151772 
C 73.674632 94.151772 73.17932 94.356937 72.814174 94.722082 
C 72.449029 95.087227 72.243864 95.58254 72.243864 96.098933 
C 72.243864 96.615326 72.449029 97.110639 72.814174 97.475784 
C 73.17932 97.840929 73.674632 98.046094 74.191025 98.046094 
z
" clip-path="url(#p1a8d23c3f3)" style="stroke: #000000"/>
    <path d="M 67.726982 87.814912 
C 68.289128 87.814912 68.828326 87.591569 69.225823 87.194072 
C 69.62332 86.796574 69.846663 86.257376 69.846663 85.69523 
C 69.846663 85.133084 69.62332 84.593886 69.225823 84.196389 
C 68.828326 83.798892 68.289128 83.575549 67.726982 83.575549 
C 67.164836 83.575549 66.625638 83.798892 66.22814 84.196389 
C 65.830643 84.593886 65.6073 85.133084 65.6073 85.69523 
C 65.6073 86.257376 65.830643 86.796574 66.22814 87.194072 
C 66.625638 87.591569 67.164836 87.814912 67.726982 87.814912 
z
" clip-path="url(#p1a8d23c3f3)" style="stroke: #000000"/>
    <path d="M 76.969601 130.701177 
C 77.378023 130.701177 77.769772 130.538909 78.05857 130.250111 
C 78.347368 129.961313 78.509636 129.569564 78.509636 129.161142 
C 78.509636 128.75272 78.347368 128.360971 78.05857 128.072173 
C 77.769772 127.783375 77.378023 127.621107 76.969601 127.621107 
C 76.561179 127.621107 76.16943 127.783375 75.880632 128.072173 
C 75.591834 128.360971 75.429566 128.75272 75.429566 129.161142 
C 75.429566 129.569564 75.591834 129.961313 75.880632 130.250111 
C 76.16943 130.538909 76.561179 130.701177 76.969601 130.701177 
z
" clip-path="url(#p1a8d23c3f3)" style="stroke: #000000"/>
    <path d="M 74.348924 124.388738 
C 74.706705 124.388738 75.04988 124.24659 75.30287 123.9936 
C 75.55586 123.740611 75.698008 123.397435 75.698008 123.039654 
C 75.698008 122.681872 75.55586 122.338697 75.30287 122.085707 
C 75.04988 121.832718 74.706705 121.69057 74.348924 121.69057 
C 73.991142 121.69057 73.647967 121.832718 73.394977 122.085707 
C 73.141988 122.338697 72.99984 122.681872 72.99984 123.039654 
C 72.99984 123.397435 73.141988 123.740611 73.394977 123.9936 
C 73.647967 124.24659 73.991142 124.388738 74.348924 124.388738 
z
" clip-path="url(#p1a8d23c3f3)" style="stroke: #000000"/>
    <path d="M 73.674052 117.30219 
C 74.01162 117.30219 74.335407 117.168073 74.574104 116.929377 
C 74.8128 116.69068 74.946917 116.366893 74.946917 116.029325 
C 74.946917 115.691757 74.8128 115.36797 74.574104 115.129274 
C 74.335407 114.890577 74.01162 114.75646 73.674052 114.75646 
C 73.336484 114.75646 73.012697 114.890577 72.774001 115.129274 
C 72.535304 115.36797 72.401187 115.691757 72.401187 116.029325 
C 72.401187 116.366893 72.535304 116.69068 72.774001 116.929377 
C 73.012697 117.168073 73.336484 117.30219 73.674052 117.30219 
z
" clip-path="url(#p1a8d23c3f3)" style="stroke: #000000"/>
    <path d="M 67.99351 102.522036 
C 68.126112 102.522036 68.2533 102.469353 68.347064 102.375589 
C 68.440827 102.281826 68.49351 102.154637 68.49351 102.022036 
C 68.49351 101.889434 68.440827 101.762246 68.347064 101.668483 
C 68.2533 101.574719 68.126112 101.522036 67.99351 101.522036 
C 67.860909 101.522036 67.73372 101.574719 67.639957 101.668483 
C 67.546193 101.762246 67.49351 101.889434 67.49351 102.022036 
C 67.49351 102.154637 67.546193 102.281826 67.639957 102.375589 
C 67.73372 102.469353 67.860909 102.522036 67.99351 102.522036 
z
" clip-path="url(#p1a8d23c3f3)" style="stroke: #000000"/>
    <path d="M 62.343992 87.265002 
C 62.518506 87.265002 62.685895 87.195667 62.809295 87.072268 
C 62.932694 86.948868 63.002029 86.781479 63.002029 86.606965 
C 63.002029 86.432452 62.932694 86.265063 62.809295 86.141663 
C 62.685895 86.018263 62.518506 85.948928 62.343992 85.948928 
C 62.169479 85.948928 62.00209 86.018263 61.87869 86.141663 
C 61.75529 86.265063 61.685955 86.432452 61.685955 86.606965 
C 61.685955 86.781479 61.75529 86.948868 61.87869 87.072268 
C 62.00209 87.195667 62.169479 87.265002 62.343992 87.265002 
z
" clip-path="url(#p1a8d23c3f3)" style="stroke: #000000"/>
    <path d="M 71.797972 129.992732 
C 71.930574 129.992732 72.057762 129.940049 72.151526 129.846285 
C 72.245289 129.752522 72.297972 129.625333 72.297972 129.492732 
C 72.297972 129.36013 72.245289 129.232942 72.151526 129.139178 
C 72.057762 129.045415 71.930574 128.992732 71.797972 128.992732 
C 71.665371 128.992732 71.538182 129.045415 71.444419 129.139178 
C 71.350655 129.232942 71.297972 129.36013 71.297972 129.492732 
C 71.297972 129.625333 71.350655 129.752522 71.444419 129.846285 
C 71.538182 129.940049 71.665371 129.992732 71.797972 129.992732 
z
" clip-path="url(#p1a8d23c3f3)" style="stroke: #000000"/>
    <path d="M 59.779231 106.461571 
C 59.911832 106.461571 60.039021 106.408887 60.132784 106.315124 
C 60.226547 106.221361 60.279231 106.094172 60.279231 105.961571 
C 60.279231 105.828969 60.226547 105.701781 60.132784 105.608017 
C 60.039021 105.514254 59.911832 105.461571 59.779231 105.461571 
C 59.646629 105.461571 59.519441 105.514254 59.425677 105.608017 
C 59.331914 105.701781 59.279231 105.828969 59.279231 105.961571 
C 59.279231 106.094172 59.331914 106.221361 59.425677 106.315124 
C 59.519441 106.408887 59.646629 106.461571 59.779231 106.461571 
z
" clip-path="url(#p1a8d23c3f3)" style="stroke: #000000"/>
    <path d="M 58.760401 101.529487 
C 59.089628 101.529487 59.405414 101.398684 59.638212 101.165886 
C 59.87101 100.933088 60.001813 100.617301 60.001813 100.288075 
C 60.001813 99.958849 59.87101 99.643062 59.638212 99.410264 
C 59.405414 99.177466 59.089628 99.046663 58.760401 99.046663 
C 58.431175 99.046663 58.115389 99.177466 57.882591 99.410264 
C 57.649792 99.643062 57.51899 99.958849 57.51899 100.288075 
C 57.51899 100.617301 57.649792 100.933088 57.882591 101.165886 
C 58.115389 101.398684 58.431175 101.529487 58.760401 101.529487 
z
" clip-path="url(#p1a8d23c3f3)" style="stroke: #000000"/>
    <path d="M 55.790045 95.880477 
C 56.070463 95.880477 56.339434 95.769066 56.53772 95.57078 
C 56.736005 95.372495 56.847417 95.103524 56.847417 94.823106 
C 56.847417 94.542688 56.736005 94.273717 56.53772 94.075431 
C 56.339434 93.877146 56.070463 93.765735 55.790045 93.765735 
C 55.509627 93.765735 55.240656 93.877146 55.042371 94.075431 
C 54.844085 94.273717 54.732674 94.542688 54.732674 94.823106 
C 54.732674 95.103524 54.844085 95.372495 55.042371 95.57078 
C 55.240656 95.769066 55.509627 95.880477 55.790045 95.880477 
z
" clip-path="url(#p1a8d23c3f3)" style="stroke: #000000"/>
    <path d="M 64.24106 133.901665 
C 64.780061 133.901665 65.297058 133.687517 65.678189 133.306386 
C 66.05932 132.925255 66.273467 132.408258 66.273467 131.869258 
C 66.273467 131.330257 66.05932 130.81326 65.678189 130.432129 
C 65.297058 130.050998 64.780061 129.836851 64.24106 129.836851 
C 63.702059 129.836851 63.185062 130.050998 62.803931 130.432129 
C 62.4228 130.81326 62.208653 131.330257 62.208653 131.869258 
C 62.208653 132.408258 62.4228 132.925255 62.803931 133.306386 
C 63.185062 133.687517 63.702059 133.901665 64.24106 133.901665 
z
" clip-path="url(#p1a8d23c3f3)" style="stroke: #000000"/>
    <path d="M 59.068395 123.407727 
C 59.615125 123.407727 60.139537 123.190508 60.526133 122.803912 
C 60.91273 122.417315 61.129948 121.892904 61.129948 121.346174 
C 61.129948 120.799444 60.91273 120.275032 60.526133 119.888436 
C 60.139537 119.501839 59.615125 119.284621 59.068395 119.284621 
C 58.521665 119.284621 57.997254 119.501839 57.610657 119.888436 
C 57.224061 120.275032 57.006842 120.799444 57.006842 121.346174 
C 57.006842 121.892904 57.224061 122.417315 57.610657 122.803912 
C 57.997254 123.190508 58.521665 123.407727 59.068395 123.407727 
z
" clip-path="url(#p1a8d23c3f3)" style="stroke: #000000"/>
    <path d="M 59.717937 118.705861 
C 60.230356 118.705861 60.721856 118.502275 61.084191 118.139941 
C 61.446525 117.777606 61.650111 117.286106 61.650111 116.773687 
C 61.650111 116.261269 61.446525 115.769769 61.084191 115.407434 
C 60.721856 115.045099 60.230356 114.841513 59.717937 114.841513 
C 59.205519 114.841513 58.714019 115.045099 58.351684 115.407434 
C 57.989349 115.769769 57.785763 116.261269 57.785763 116.773687 
C 57.785763 117.286106 57.989349 117.777606 58.351684 118.139941 
C 58.714019 118.502275 59.205519 118.705861 59.717937 118.705861 
z
" clip-path="url(#p1a8d23c3f3)" style="stroke: #000000"/>
    <path d="M 54.696897 112.069748 
C 55.032437 112.069748 55.354279 111.936436 55.591542 111.699174 
C 55.828805 111.461911 55.962117 111.140068 55.962117 110.804528 
C 55.962117 110.468988 55.828805 110.147145 55.591542 109.909883 
C 55.354279 109.67262 55.032437 109.539308 54.696897 109.539308 
C 54.361357 109.539308 54.039514 109.67262 53.802251 109.909883 
C 53.564989 110.147145 53.431677 110.468988 53.431677 110.804528 
C 53.431677 111.140068 53.564989 111.461911 53.802251 111.699174 
C 54.039514 111.936436 54.361357 112.069748 54.696897 112.069748 
z
" clip-path="url(#p1a8d23c3f3)" style="stroke: #000000"/>
    <path d="M 51.49129 103.239918 
C 51.665803 103.239918 51.833193 103.170583 51.956592 103.047184 
C 52.079992 102.923784 52.149327 102.756395 52.149327 102.581881 
C 52.149327 102.407368 52.079992 102.239978 51.956592 102.116579 
C 51.833193 101.993179 51.665803 101.923844 51.49129 101.923844 
C 51.316776 101.923844 51.149387 101.993179 51.025987 102.116579 
C 50.902588 102.239978 50.833253 102.407368 50.833253 102.581881 
C 50.833253 102.756395 50.902588 102.923784 51.025987 103.047184 
C 51.149387 103.170583 51.316776 103.239918 51.49129 103.239918 
z
" clip-path="url(#p1a8d23c3f3)" style="stroke: #000000"/>
    <path d="M 47.400257 105.992591 
C 47.587784 105.992591 47.767656 105.918086 47.900257 105.785484 
C 48.032859 105.652882 48.107364 105.473011 48.107364 105.285484 
C 48.107364 105.097957 48.032859 104.918086 47.900257 104.785484 
C 47.767656 104.652882 47.587784 104.578377 47.400257 104.578377 
C 47.21273 104.578377 47.032859 104.652882 46.900257 104.785484 
C 46.767656 104.918086 46.69315 105.097957 46.69315 105.285484 
C 46.69315 105.473011 46.767656 105.652882 46.900257 105.785484 
C 47.032859 105.918086 47.21273 105.992591 47.400257 105.992591 
z
" clip-path="url(#p1a8d23c3f3)" style="stroke: #000000"/>
   </g>
   <g id="matplotlib.axis_1">
    <g id="xtick_1">
     <g id="line2d_1">
      <defs>
       <path id="m7d312895e2" d="M 0 0 
L 0 3.5 
" style="stroke: #000000; stroke-width: 0.8"/>
      </defs>
      <g>
       <use xlink:href="#m7d312895e2" x="18" y="189" style="stroke: #000000; stroke-width: 0.8"/>
      </g>
     </g>
     <g id="text_1">
      <!-- −10 -->
      <g transform="translate(7.447656 203.598437)scale(0.1 -0.1)">
       <defs>
        <path id="DejaVuSans-2212" d="M 678 2272 
L 4684 2272 
L 4684 1741 
L 678 1741 
L 678 2272 
z
" transform="scale(0.015625)"/>
        <path id="DejaVuSans-31" d="M 794 531 
L 1825 531 
L 1825 4091 
L 703 3866 
L 703 4441 
L 1819 4666 
L 2450 4666 
L 2450 531 
L 3481 531 
L 3481 0 
L 794 0 
L 794 531 
z
" transform="scale(0.015625)"/>
        <path id="DejaVuSans-30" d="M 2034 4250 
Q 1547 4250 1301 3770 
Q 1056 3291 1056 2328 
Q 1056 1369 1301 889 
Q 1547 409 2034 409 
Q 2525 409 2770 889 
Q 3016 1369 3016 2328 
Q 3016 3291 2770 3770 
Q 2525 4250 2034 4250 
z
M 2034 4750 
Q 2819 4750 3233 4129 
Q 3647 3509 3647 2328 
Q 3647 1150 3233 529 
Q 2819 -91 2034 -91 
Q 1250 -91 836 529 
Q 422 1150 422 2328 
Q 422 3509 836 4129 
Q 1250 4750 2034 4750 
z
" transform="scale(0.015625)"/>
       </defs>
       <use xlink:href="#DejaVuSans-2212"/>
       <use xlink:href="#DejaVuSans-31" x="83.789062"/>
       <use xlink:href="#DejaVuSans-30" x="147.412109"/>
      </g>
     </g>
    </g>
    <g id="xtick_2">
     <g id="line2d_2">
      <g>
       <use xlink:href="#m7d312895e2" x="73.8" y="189" style="stroke: #000000; stroke-width: 0.8"/>
      </g>
     </g>
     <g id="text_2">
      <!-- 0 -->
      <g transform="translate(70.61875 203.598437)scale(0.1 -0.1)">
       <use xlink:href="#DejaVuSans-30"/>
      </g>
     </g>
    </g>
    <g id="xtick_3">
     <g id="line2d_3">
      <g>
       <use xlink:href="#m7d312895e2" x="129.6" y="189" style="stroke: #000000; stroke-width: 0.8"/>
      </g>
     </g>
     <g id="text_3">
      <!-- 10 -->
      <g transform="translate(123.2375 203.598437)scale(0.1 -0.1)">
       <use xlink:href="#DejaVuSans-31"/>
       <use xlink:href="#DejaVuSans-30" x="63.623047"/>
      </g>
     </g>
    </g>
   </g>
   <g id="matplotlib.axis_2">
    <g id="ytick_1">
     <g id="line2d_4">
      <defs>
       <path id="m9763e99f8f" d="M 0 0 
L -3.5 0 
" style="stroke: #000000; stroke-width: 0.8"/>
      </defs>
      <g>
       <use xlink:href="#m9763e99f8f" x="18" y="189" style="stroke: #000000; stroke-width: 0.8"/>
      </g>
     </g>
     <g id="text_4">
      <!-- −15 -->
      <g transform="translate(-10.104688 192.799219)scale(0.1 -0.1)">
       <defs>
        <path id="DejaVuSans-35" d="M 691 4666 
L 3169 4666 
L 3169 4134 
L 1269 4134 
L 1269 2991 
Q 1406 3038 1543 3061 
Q 1681 3084 1819 3084 
Q 2600 3084 3056 2656 
Q 3513 2228 3513 1497 
Q 3513 744 3044 326 
Q 2575 -91 1722 -91 
Q 1428 -91 1123 -41 
Q 819 9 494 109 
L 494 744 
Q 775 591 1075 516 
Q 1375 441 1709 441 
Q 2250 441 2565 725 
Q 2881 1009 2881 1497 
Q 2881 1984 2565 2268 
Q 2250 2553 1709 2553 
Q 1456 2553 1204 2497 
Q 953 2441 691 2322 
L 691 4666 
z
" transform="scale(0.015625)"/>
       </defs>
       <use xlink:href="#DejaVuSans-2212"/>
       <use xlink:href="#DejaVuSans-31" x="83.789062"/>
       <use xlink:href="#DejaVuSans-35" x="147.412109"/>
      </g>
     </g>
    </g>
    <g id="ytick_2">
     <g id="line2d_5">
      <g>
       <use xlink:href="#m9763e99f8f" x="18" y="161.82" style="stroke: #000000; stroke-width: 0.8"/>
      </g>
     </g>
     <g id="text_5">
      <!-- −10 -->
      <g transform="translate(-10.104688 165.619219)scale(0.1 -0.1)">
       <use xlink:href="#DejaVuSans-2212"/>
       <use xlink:href="#DejaVuSans-31" x="83.789062"/>
       <use xlink:href="#DejaVuSans-30" x="147.412109"/>
      </g>
     </g>
    </g>
    <g id="ytick_3">
     <g id="line2d_6">
      <g>
       <use xlink:href="#m9763e99f8f" x="18" y="134.64" style="stroke: #000000; stroke-width: 0.8"/>
      </g>
     </g>
     <g id="text_6">
      <!-- −5 -->
      <g transform="translate(-3.742188 138.439219)scale(0.1 -0.1)">
       <use xlink:href="#DejaVuSans-2212"/>
       <use xlink:href="#DejaVuSans-35" x="83.789062"/>
      </g>
     </g>
    </g>
    <g id="ytick_4">
     <g id="line2d_7">
      <g>
       <use xlink:href="#m9763e99f8f" x="18" y="107.46" style="stroke: #000000; stroke-width: 0.8"/>
      </g>
     </g>
     <g id="text_7">
      <!-- 0 -->
      <g transform="translate(4.6375 111.259219)scale(0.1 -0.1)">
       <use xlink:href="#DejaVuSans-30"/>
      </g>
     </g>
    </g>
    <g id="ytick_5">
     <g id="line2d_8">
      <g>
       <use xlink:href="#m9763e99f8f" x="18" y="80.28" style="stroke: #000000; stroke-width: 0.8"/>
      </g>
     </g>
     <g id="text_8">
      <!-- 5 -->
      <g transform="translate(4.6375 84.079219)scale(0.1 -0.1)">
       <use xlink:href="#DejaVuSans-35"/>
      </g>
     </g>
    </g>
    <g id="ytick_6">
     <g id="line2d_9">
      <g>
       <use xlink:href="#m9763e99f8f" x="18" y="53.1" style="stroke: #000000; stroke-width: 0.8"/>
      </g>
     </g>
     <g id="text_9">
      <!-- 10 -->
      <g transform="translate(-1.725 56.899219)scale(0.1 -0.1)">
       <use xlink:href="#DejaVuSans-31"/>
       <use xlink:href="#DejaVuSans-30" x="63.623047"/>
      </g>
     </g>
    </g>
    <g id="ytick_7">
     <g id="line2d_10">
      <g>
       <use xlink:href="#m9763e99f8f" x="18" y="25.92" style="stroke: #000000; stroke-width: 0.8"/>
      </g>
     </g>
     <g id="text_10">
      <!-- 15 -->
      <g transform="translate(-1.725 29.719219)scale(0.1 -0.1)">
       <use xlink:href="#DejaVuSans-31"/>
       <use xlink:href="#DejaVuSans-35" x="63.623047"/>
      </g>
     </g>
    </g>
   </g>
   <g id="patch_3">
    <path d="M 18 189 
L 18 25.92 
" style="fill: none; stroke: #000000; stroke-width: 0.8; stroke-linejoin: miter; stroke-linecap: square"/>
   </g>
   <g id="patch_4">
    <path d="M 129.6 189 
L 129.6 25.92 
" style="fill: none; stroke: #000000; stroke-width: 0.8; stroke-linejoin: miter; stroke-linecap: square"/>
   </g>
   <g id="patch_5">
    <path d="M 18 189 
L 129.6 189 
" style="fill: none; stroke: #000000; stroke-width: 0.8; stroke-linejoin: miter; stroke-linecap: square"/>
   </g>
   <g id="patch_6">
    <path d="M 18 25.92 
L 129.6 25.92 
" style="fill: none; stroke: #000000; stroke-width: 0.8; stroke-linejoin: miter; stroke-linecap: square"/>
   </g>
  </g>
 </g>
 <defs>
  <clipPath id="p1a8d23c3f3">
   <rect x="18" y="25.92" width="111.6" height="163.08"/>
  </clipPath>
 </defs>
</svg>
