<?xml version="1.0" encoding="utf-8" standalone="no"?>
<!DOCTYPE svg PUBLIC "-//W3C//DTD SVG 1.1//EN"
  "http://www.w3.org/Graphics/SVG/1.1/DTD/svg11.dtd">
<svg xmlns:xlink="http://www.w3.org/1999/xlink" width="144pt" height="216pt" viewBox="0 0 144 216" xmlns="http://www.w3.org/2000/svg" version="1.1">
 <metadata>
  <rdf:RDF xmlns:dc="http://purl.org/dc/elements/1.1/" xmlns:cc="http://creativecommons.org/ns#" xmlns:rdf="http://www.w3.org/1999/02/22-rdf-syntax-ns#">
   <cc:Work>
    <dc:type rdf:resource="http://purl.org/dc/dcmitype/StillImage"/>
    <dc:date>2022-06-23T14:45:58.610029</dc:date>
    <dc:format>image/svg+xml</dc:format>
    <dc:creator>
     <cc:Agent>
      <dc:title>Matplotlib v3.5.1, https://matplotlib.org/</dc:title>
     </cc:Agent>
    </dc:creator>
   </cc:Work>
  </rdf:RDF>
 </metadata>
 <defs>
  <style type="text/css">*{stroke-linejoin: round; stroke-linecap: butt}</style>
 </defs>
 <g id="figure_1">
  <g id="patch_1">
   <path d="M 0 216 
L 144 216 
L 144 0 
L 0 0 
L 0 216 
z
" style="fill: none"/>
  </g>
  <g id="axes_1">
   <g id="patch_2">
    <path d="M 18 189 
L 129.6 189 
L 129.6 25.92 
L 18 25.92 
z
" style="fill: #ffffff"/>
   </g>
   <g id="PathCollection_1">
    <defs>
     <path id="mcaf5c07165" d="M 0 2.738613 
C 0.726289 2.738613 1.422928 2.450055 1.936492 1.936492 
C 2.450055 1.422928 2.738613 0.726289 2.738613 0 
C 2.738613 -0.726289 2.450055 -1.422928 1.936492 -1.936492 
C 1.422928 -2.450055 0.726289 -2.738613 0 -2.738613 
C -0.726289 -2.738613 -1.422928 -2.450055 -1.936492 -1.936492 
C -2.450055 -1.422928 -2.738613 -0.726289 -2.738613 0 
C -2.738613 0.726289 -2.450055 1.422928 -1.936492 1.936492 
C -1.422928 2.450055 -0.726289 2.738613 0 2.738613 
z
" style="stroke: #ff0000; stroke-width: 1.75"/>
    </defs>
    <g clip-path="url(#p0388a0842a)">
     <use xlink:href="#mcaf5c07165" x="66.825" y="83.92143" style="fill: #ff0000; stroke: #ff0000; stroke-width: 1.75"/>
     <use xlink:href="#mcaf5c07165" x="87.75" y="95.690715" style="fill: #ff0000; stroke: #ff0000; stroke-width: 1.75"/>
     <use xlink:href="#mcaf5c07165" x="66.825" y="107.46" style="fill: #ff0000; stroke: #ff0000; stroke-width: 1.75"/>
     <use xlink:href="#mcaf5c07165" x="73.8" y="119.229285" style="fill: #ff0000; stroke: #ff0000; stroke-width: 1.75"/>
     <use xlink:href="#mcaf5c07165" x="87.75" y="119.229285" style="fill: #ff0000; stroke: #ff0000; stroke-width: 1.75"/>
     <use xlink:href="#mcaf5c07165" x="66.825" y="130.99857" style="fill: #ff0000; stroke: #ff0000; stroke-width: 1.75"/>
     <use xlink:href="#mcaf5c07165" x="80.775" y="130.99857" style="fill: #ff0000; stroke: #ff0000; stroke-width: 1.75"/>
    </g>
   </g>
   <g id="PathCollection_2">
    <defs>
     <path id="C0_0_3386c90043" d="M 0 2.738613 
C 0.726289 2.738613 1.422928 2.450055 1.936492 1.936492 
C 2.450055 1.422928 2.738613 0.726289 2.738613 -0 
C 2.738613 -0.726289 2.450055 -1.422928 1.936492 -1.936492 
C 1.422928 -2.450055 0.726289 -2.738613 0 -2.738613 
C -0.726289 -2.738613 -1.422928 -2.450055 -1.936492 -1.936492 
C -2.450055 -1.422928 -2.738613 -0.726289 -2.738613 0 
C -2.738613 0.726289 -2.450055 1.422928 -1.936492 1.936492 
C -1.422928 2.450055 -0.726289 2.738613 0 2.738613 
z
"/>
    </defs>
    <g clip-path="url(#p0388a0842a)">
     <use xlink:href="#C0_0_3386c90043" x="80.775" y="83.92143" style="fill: none; stroke: #ff0000; stroke-width: 1.75"/>
    </g>
    <g clip-path="url(#p0388a0842a)">
     <use xlink:href="#C0_0_3386c90043" x="59.85" y="95.690715" style="fill: none; stroke: #ff0000; stroke-width: 1.75"/>
    </g>
    <g clip-path="url(#p0388a0842a)">
     <use xlink:href="#C0_0_3386c90043" x="73.8" y="95.690715" style="fill: none; stroke: #ff0000; stroke-width: 1.75"/>
    </g>
    <g clip-path="url(#p0388a0842a)">
     <use xlink:href="#C0_0_3386c90043" x="52.875" y="107.46" style="fill: none; stroke: #ff0000; stroke-width: 1.75"/>
    </g>
    <g clip-path="url(#p0388a0842a)">
     <use xlink:href="#C0_0_3386c90043" x="80.775" y="107.46" style="fill: none; stroke: #ff0000; stroke-width: 1.75"/>
    </g>
    <g clip-path="url(#p0388a0842a)">
     <use xlink:href="#C0_0_3386c90043" x="94.725" y="107.46" style="fill: none; stroke: #ff0000; stroke-width: 1.75"/>
    </g>
    <g clip-path="url(#p0388a0842a)">
     <use xlink:href="#C0_0_3386c90043" x="59.85" y="119.229285" style="fill: none; stroke: #ff0000; stroke-width: 1.75"/>
    </g>
   </g>
   <g id="PathCollection_3">
    <path d="M 114.583694 109.501159 
C 114.989828 109.501159 115.379382 109.339801 115.666562 109.052621 
C 115.953742 108.765441 116.115101 108.375886 116.115101 107.969752 
C 116.115101 107.563618 115.953742 107.174064 115.666562 106.886884 
C 115.379382 106.599704 114.989828 106.438345 114.583694 106.438345 
C 114.17756 106.438345 113.788005 106.599704 113.500825 106.886884 
C 113.213645 107.174064 113.052286 107.563618 113.052286 107.969752 
C 113.052286 108.375886 113.213645 108.765441 113.500825 109.052621 
C 113.788005 109.339801 114.17756 109.501159 114.583694 109.501159 
z
" clip-path="url(#p0388a0842a)" style="stroke: #000000"/>
    <path d="M 113.538817 101.989421 
C 114.242927 101.989421 114.918293 101.709675 115.416173 101.211794 
C 115.914054 100.713914 116.1938 100.038548 116.1938 99.334438 
C 116.1938 98.630328 115.914054 97.954962 115.416173 97.457081 
C 114.918293 96.9592 114.242927 96.679455 113.538817 96.679455 
C 112.834707 96.679455 112.159341 96.9592 111.66146 97.457081 
C 111.163579 97.954962 110.883833 98.630328 110.883833 99.334438 
C 110.883833 100.038548 111.163579 100.713914 111.66146 101.211794 
C 112.159341 101.709675 112.834707 101.989421 113.538817 101.989421 
z
" clip-path="url(#p0388a0842a)" style="stroke: #000000"/>
    <path d="M 109.849647 92.496333 
C 110.555082 92.496333 111.231718 92.216061 111.730536 91.717244 
C 112.229353 91.218426 112.509626 90.541789 112.509626 89.836355 
C 112.509626 89.13092 112.229353 88.454283 111.730536 87.955466 
C 111.231718 87.456648 110.555082 87.176376 109.849647 87.176376 
C 109.144212 87.176376 108.467576 87.456648 107.968758 87.955466 
C 107.469941 88.454283 107.189669 89.13092 107.189669 89.836355 
C 107.189669 90.541789 107.469941 91.218426 107.968758 91.717244 
C 108.467576 92.216061 109.144212 92.496333 109.849647 92.496333 
z
" clip-path="url(#p0388a0842a)" style="stroke: #000000"/>
    <path d="M 104.703081 78.659673 
C 105.296093 78.659673 105.864897 78.424067 106.28422 78.004744 
C 106.703543 77.585421 106.939149 77.016617 106.939149 76.423605 
C 106.939149 75.830593 106.703543 75.261789 106.28422 74.842466 
C 105.864897 74.423144 105.296093 74.187537 104.703081 74.187537 
C 104.110069 74.187537 103.541265 74.423144 103.121942 74.842466 
C 102.702619 75.261789 102.467013 75.830593 102.467013 76.423605 
C 102.467013 77.016617 102.702619 77.585421 103.121942 78.004744 
C 103.541265 78.424067 104.110069 78.659673 104.703081 78.659673 
z
" clip-path="url(#p0388a0842a)" style="stroke: #000000"/>
    <path d="M 100.135534 73.333611 
C 100.728916 73.333611 101.298075 73.097858 101.71766 72.678273 
C 102.137245 72.258688 102.372998 71.68953 102.372998 71.096147 
C 102.372998 70.502765 102.137245 69.933606 101.71766 69.514021 
C 101.298075 69.094436 100.728916 68.858683 100.135534 68.858683 
C 99.542152 68.858683 98.972993 69.094436 98.553408 69.514021 
C 98.133823 69.933606 97.89807 70.502765 97.89807 71.096147 
C 97.89807 71.68953 98.133823 72.258688 98.553408 72.678273 
C 98.972993 73.097858 99.542152 73.333611 100.135534 73.333611 
z
" clip-path="url(#p0388a0842a)" style="stroke: #000000"/>
    <path d="M 94.700942 61.389448 
C 95.294324 61.389448 95.863483 61.153694 96.283068 60.73411 
C 96.702652 60.314525 96.938406 59.745366 96.938406 59.151984 
C 96.938406 58.558601 96.702652 57.989442 96.283068 57.569857 
C 95.863483 57.150273 95.294324 56.914519 94.700942 56.914519 
C 94.107559 56.914519 93.5384 57.150273 93.118815 57.569857 
C 92.699231 57.989442 92.463477 58.558601 92.463477 59.151984 
C 92.463477 59.745366 92.699231 60.314525 93.118815 60.73411 
C 93.5384 61.153694 94.107559 61.389448 94.700942 61.389448 
z
" clip-path="url(#p0388a0842a)" style="stroke: #000000"/>
    <path d="M 90.288723 45.649504 
C 90.881735 45.649504 91.450539 45.413898 91.869862 44.994575 
C 92.289185 44.575252 92.524791 44.006448 92.524791 43.413436 
C 92.524791 42.820424 92.289185 42.25162 91.869862 41.832297 
C 91.450539 41.412974 90.881735 41.177368 90.288723 41.177368 
C 89.695711 41.177368 89.126907 41.412974 88.707584 41.832297 
C 88.288261 42.25162 88.052655 42.820424 88.052655 43.413436 
C 88.052655 44.006448 88.288261 44.575252 88.707584 44.994575 
C 89.126907 45.413898 89.695711 45.649504 90.288723 45.649504 
z
" clip-path="url(#p0388a0842a)" style="stroke: #000000"/>
    <path d="M 104.552852 116.695304 
C 105.258287 116.695304 105.934923 116.415032 106.433741 115.916214 
C 106.932558 115.417397 107.212831 114.74076 107.212831 114.035325 
C 107.212831 113.329891 106.932558 112.653254 106.433741 112.154437 
C 105.934923 111.655619 105.258287 111.375347 104.552852 111.375347 
C 103.847417 111.375347 103.170781 111.655619 102.671963 112.154437 
C 102.173146 112.653254 101.892873 113.329891 101.892873 114.035325 
C 101.892873 114.74076 102.173146 115.417397 102.671963 115.916214 
C 103.170781 116.415032 103.847417 116.695304 104.552852 116.695304 
z
" clip-path="url(#p0388a0842a)" style="stroke: #000000"/>
    <path d="M 100.165759 103.009494 
C 100.726595 103.009494 101.264536 102.786672 101.661107 102.390101 
C 102.057679 101.99353 102.280501 101.455588 102.280501 100.894752 
C 102.280501 100.333916 102.057679 99.795974 101.661107 99.399403 
C 101.264536 99.002832 100.726595 98.780009 100.165759 98.780009 
C 99.604922 98.780009 99.066981 99.002832 98.67041 99.399403 
C 98.273839 99.795974 98.051016 100.333916 98.051016 100.894752 
C 98.051016 101.455588 98.273839 101.99353 98.67041 102.390101 
C 99.066981 102.786672 99.604922 103.009494 100.165759 103.009494 
z
" clip-path="url(#p0388a0842a)" style="stroke: #000000"/>
    <path d="M 95.980206 86.245492 
C 96.685641 86.245492 97.362278 85.96522 97.861095 85.466402 
C 98.359913 84.967584 98.640185 84.290948 98.640185 83.585513 
C 98.640185 82.880079 98.359913 82.203442 97.861095 81.704624 
C 97.362278 81.205807 96.685641 80.925535 95.980206 80.925535 
C 95.274772 80.925535 94.598135 81.205807 94.099318 81.704624 
C 93.6005 82.203442 93.320228 82.880079 93.320228 83.585513 
C 93.320228 84.290948 93.6005 84.967584 94.099318 85.466402 
C 94.598135 85.96522 95.274772 86.245492 95.980206 86.245492 
z
" clip-path="url(#p0388a0842a)" style="stroke: #000000"/>
    <path d="M 84.585762 64.233268 
C 85.178774 64.233268 85.747578 63.997662 86.166901 63.578339 
C 86.586224 63.159016 86.82183 62.590212 86.82183 61.9972 
C 86.82183 61.404188 86.586224 60.835384 86.166901 60.416061 
C 85.747578 59.996738 85.178774 59.761132 84.585762 59.761132 
C 83.99275 59.761132 83.423946 59.996738 83.004623 60.416061 
C 82.5853 60.835384 82.349694 61.404188 82.349694 61.9972 
C 82.349694 62.590212 82.5853 63.159016 83.004623 63.578339 
C 83.423946 63.997662 83.99275 64.233268 84.585762 64.233268 
z
" clip-path="url(#p0388a0842a)" style="stroke: #000000"/>
    <path d="M 78.786689 52.347115 
C 79.380072 52.347115 79.949231 52.111362 80.368815 51.691777 
C 80.7884 51.272192 81.024154 50.703033 81.024154 50.109651 
C 81.024154 49.516268 80.7884 48.947109 80.368815 48.527525 
C 79.949231 48.10794 79.380072 47.872187 78.786689 47.872187 
C 78.193307 47.872187 77.624148 48.10794 77.204563 48.527525 
C 76.784978 48.947109 76.549225 49.516268 76.549225 50.109651 
C 76.549225 50.703033 76.784978 51.272192 77.204563 51.691777 
C 77.624148 52.111362 78.193307 52.347115 78.786689 52.347115 
z
" clip-path="url(#p0388a0842a)" style="stroke: #000000"/>
    <path d="M 75.381983 36.790879 
C 75.974995 36.790879 76.543799 36.555273 76.963122 36.13595 
C 77.382444 35.716627 77.618051 35.147824 77.618051 34.554812 
C 77.618051 33.961799 77.382444 33.392996 76.963122 32.973673 
C 76.543799 32.55435 75.974995 32.318744 75.381983 32.318744 
C 74.788971 32.318744 74.220167 32.55435 73.800844 32.973673 
C 73.381521 33.392996 73.145915 33.961799 73.145915 34.554812 
C 73.145915 35.147824 73.381521 35.716627 73.800844 36.13595 
C 74.220167 36.555273 74.788971 36.790879 75.381983 36.790879 
z
" clip-path="url(#p0388a0842a)" style="stroke: #000000"/>
    <path d="M 114.467865 170.784561 
C 115.061247 170.784561 115.630406 170.548808 116.049991 170.129223 
C 116.469576 169.709639 116.705329 169.14048 116.705329 168.547097 
C 116.705329 167.953715 116.469576 167.384556 116.049991 166.964971 
C 115.630406 166.545386 115.061247 166.309633 114.467865 166.309633 
C 113.874482 166.309633 113.305323 166.545386 112.885739 166.964971 
C 112.466154 167.384556 112.230401 167.953715 112.230401 168.547097 
C 112.230401 169.14048 112.466154 169.709639 112.885739 170.129223 
C 113.305323 170.548808 113.874482 170.784561 114.467865 170.784561 
z
" clip-path="url(#p0388a0842a)" style="stroke: #000000"/>
    <path d="M 105.660472 157.57679 
C 106.253484 157.57679 106.822288 157.341184 107.24161 156.921861 
C 107.660933 156.502538 107.89654 155.933734 107.89654 155.340722 
C 107.89654 154.74771 107.660933 154.178906 107.24161 153.759583 
C 106.822288 153.34026 106.253484 153.104654 105.660472 153.104654 
C 105.067459 153.104654 104.498656 153.34026 104.079333 153.759583 
C 103.66001 154.178906 103.424404 154.74771 103.424404 155.340722 
C 103.424404 155.933734 103.66001 156.502538 104.079333 156.921861 
C 104.498656 157.341184 105.067459 157.57679 105.660472 157.57679 
z
" clip-path="url(#p0388a0842a)" style="stroke: #000000"/>
    <path d="M 102.022431 149.183048 
C 102.623434 149.183048 103.199903 148.944267 103.624876 148.519293 
C 104.04985 148.09432 104.288631 147.517852 104.288631 146.916848 
C 104.288631 146.315845 104.04985 145.739377 103.624876 145.314403 
C 103.199903 144.88943 102.623434 144.650649 102.022431 144.650649 
C 101.421428 144.650649 100.84496 144.88943 100.419986 145.314403 
C 99.995013 145.739377 99.756232 146.315845 99.756232 146.916848 
C 99.756232 147.517852 99.995013 148.09432 100.419986 148.519293 
C 100.84496 148.944267 101.421428 149.183048 102.022431 149.183048 
z
" clip-path="url(#p0388a0842a)" style="stroke: #000000"/>
    <path d="M 98.350769 137.659972 
C 98.991459 137.659972 99.605994 137.405423 100.05903 136.952387 
C 100.512066 136.499351 100.766615 135.884816 100.766615 135.244127 
C 100.766615 134.603437 100.512066 133.988902 100.05903 133.535866 
C 99.605994 133.08283 98.991459 132.828281 98.350769 132.828281 
C 97.71008 132.828281 97.095545 133.08283 96.642509 133.535866 
C 96.189473 133.988902 95.934924 134.603437 95.934924 135.244127 
C 95.934924 135.884816 96.189473 136.499351 96.642509 136.952387 
C 97.095545 137.405423 97.71008 137.659972 98.350769 137.659972 
z
" clip-path="url(#p0388a0842a)" style="stroke: #000000"/>
    <path d="M 98.624231 128.940761 
C 99.160245 128.940761 99.674378 128.727801 100.053397 128.348781 
C 100.432417 127.969762 100.645377 127.455629 100.645377 126.919615 
C 100.645377 126.3836 100.432417 125.869468 100.053397 125.490448 
C 99.674378 125.111429 99.160245 124.898468 98.624231 124.898468 
C 98.088216 124.898468 97.574084 125.111429 97.195064 125.490448 
C 96.816045 125.869468 96.603084 126.3836 96.603084 126.919615 
C 96.603084 127.455629 96.816045 127.969762 97.195064 128.348781 
C 97.574084 128.727801 98.088216 128.940761 98.624231 128.940761 
z
" clip-path="url(#p0388a0842a)" style="stroke: #000000"/>
    <path d="M 94.214171 118.651736 
C 94.80644 118.651736 95.374532 118.416425 95.793329 117.997627 
C 96.212127 117.578829 96.447438 117.010738 96.447438 116.418468 
C 96.447438 115.826199 96.212127 115.258107 95.793329 114.83931 
C 95.374532 114.420512 94.80644 114.185201 94.214171 114.185201 
C 93.621901 114.185201 93.05381 114.420512 92.635012 114.83931 
C 92.216214 115.258107 91.980903 115.826199 91.980903 116.418468 
C 91.980903 117.010738 92.216214 117.578829 92.635012 117.997627 
C 93.05381 118.416425 93.621901 118.651736 94.214171 118.651736 
z
" clip-path="url(#p0388a0842a)" style="stroke: #000000"/>
    <path d="M 81.207001 87.115513 
C 81.709361 87.115513 82.191214 86.915923 82.546436 86.5607 
C 82.901659 86.205478 83.101249 85.723625 83.101249 85.221265 
C 83.101249 84.718905 82.901659 84.237052 82.546436 83.881829 
C 82.191214 83.526607 81.709361 83.327017 81.207001 83.327017 
C 80.70464 83.327017 80.222788 83.526607 79.867565 83.881829 
C 79.512343 84.237052 79.312753 84.718905 79.312753 85.221265 
C 79.312753 85.723625 79.512343 86.205478 79.867565 86.5607 
C 80.222788 86.915923 80.70464 87.115513 81.207001 87.115513 
z
" clip-path="url(#p0388a0842a)" style="stroke: #000000"/>
    <path d="M 77.311818 64.537005 
C 77.90483 64.537005 78.473634 64.301399 78.892957 63.882076 
C 79.31228 63.462753 79.547886 62.893949 79.547886 62.300937 
C 79.547886 61.707925 79.31228 61.139121 78.892957 60.719798 
C 78.473634 60.300475 77.90483 60.064869 77.311818 60.064869 
C 76.718806 60.064869 76.150002 60.300475 75.730679 60.719798 
C 75.311356 61.139121 75.07575 61.707925 75.07575 62.300937 
C 75.07575 62.893949 75.311356 63.462753 75.730679 63.882076 
C 76.150002 64.301399 76.718806 64.537005 77.311818 64.537005 
z
" clip-path="url(#p0388a0842a)" style="stroke: #000000"/>
    <path d="M 63.733553 47.469199 
C 64.259235 47.469199 64.763457 47.260343 65.13517 46.88863 
C 65.506883 46.516917 65.715738 46.012695 65.715738 45.487013 
C 65.715738 44.961332 65.506883 44.45711 65.13517 44.085397 
C 64.763457 43.713684 64.259235 43.504828 63.733553 43.504828 
C 63.207871 43.504828 62.703649 43.713684 62.331936 44.085397 
C 61.960223 44.45711 61.751368 44.961332 61.751368 45.487013 
C 61.751368 46.012695 61.960223 46.516917 62.331936 46.88863 
C 62.703649 47.260343 63.207871 47.469199 63.733553 47.469199 
z
" clip-path="url(#p0388a0842a)" style="stroke: #000000"/>
    <path d="M 61.452651 33.009179 
C 62.041921 33.009179 62.607136 32.77506 63.023813 32.358382 
C 63.440491 31.941705 63.67461 31.37649 63.67461 30.78722 
C 63.67461 30.197949 63.440491 29.632734 63.023813 29.216057 
C 62.607136 28.79938 62.041921 28.56526 61.452651 28.56526 
C 60.86338 28.56526 60.298165 28.79938 59.881488 29.216057 
C 59.464811 29.632734 59.230691 30.197949 59.230691 30.78722 
C 59.230691 31.37649 59.464811 31.941705 59.881488 32.358382 
C 60.298165 32.77506 60.86338 33.009179 61.452651 33.009179 
z
" clip-path="url(#p0388a0842a)" style="stroke: #000000"/>
    <path d="M 102.321707 175.004675 
C 102.915089 175.004675 103.484248 174.768921 103.903833 174.349337 
C 104.323417 173.929752 104.559171 173.360593 104.559171 172.76721 
C 104.559171 172.173828 104.323417 171.604669 103.903833 171.185084 
C 103.484248 170.7655 102.915089 170.529746 102.321707 170.529746 
C 101.728324 170.529746 101.159165 170.7655 100.73958 171.185084 
C 100.319996 171.604669 100.084242 172.173828 100.084242 172.76721 
C 100.084242 173.360593 100.319996 173.929752 100.73958 174.349337 
C 101.159165 174.768921 101.728324 175.004675 102.321707 175.004675 
z
" clip-path="url(#p0388a0842a)" style="stroke: #000000"/>
    <path d="M 95.943327 162.828346 
C 96.536339 162.828346 97.105142 162.59274 97.524465 162.173417 
C 97.943788 161.754094 98.179395 161.18529 98.179395 160.592278 
C 98.179395 159.999266 97.943788 159.430462 97.524465 159.011139 
C 97.105142 158.591816 96.536339 158.35621 95.943327 158.35621 
C 95.350314 158.35621 94.781511 158.591816 94.362188 159.011139 
C 93.942865 159.430462 93.707259 159.999266 93.707259 160.592278 
C 93.707259 161.18529 93.942865 161.754094 94.362188 162.173417 
C 94.781511 162.59274 95.350314 162.828346 95.943327 162.828346 
z
" clip-path="url(#p0388a0842a)" style="stroke: #000000"/>
    <path d="M 94.928142 151.931065 
C 95.54588 151.931065 96.138399 151.685635 96.575205 151.248829 
C 97.012012 150.812023 97.257441 150.219503 97.257441 149.601766 
C 97.257441 148.984029 97.012012 148.391509 96.575205 147.954703 
C 96.138399 147.517897 95.54588 147.272467 94.928142 147.272467 
C 94.310405 147.272467 93.717885 147.517897 93.281079 147.954703 
C 92.844273 148.391509 92.598843 148.984029 92.598843 149.601766 
C 92.598843 150.219503 92.844273 150.812023 93.281079 151.248829 
C 93.717885 151.685635 94.310405 151.931065 94.928142 151.931065 
z
" clip-path="url(#p0388a0842a)" style="stroke: #000000"/>
    <path d="M 91.02337 144.110195 
C 91.616382 144.110195 92.185186 143.874588 92.604508 143.455266 
C 93.023831 143.035943 93.259438 142.467139 93.259438 141.874127 
C 93.259438 141.281115 93.023831 140.712311 92.604508 140.292988 
C 92.185186 139.873665 91.616382 139.638059 91.02337 139.638059 
C 90.430357 139.638059 89.861554 139.873665 89.442231 140.292988 
C 89.022908 140.712311 88.787302 141.281115 88.787302 141.874127 
C 88.787302 142.467139 89.022908 143.035943 89.442231 143.455266 
C 89.861554 143.874588 90.430357 144.110195 91.02337 144.110195 
z
" clip-path="url(#p0388a0842a)" style="stroke: #000000"/>
    <path d="M 82.496118 135.679629 
C 83.024963 135.679629 83.53222 135.469516 83.90617 135.095566 
C 84.28012 134.721616 84.490232 134.214359 84.490232 133.685514 
C 84.490232 133.156669 84.28012 132.649412 83.90617 132.275462 
C 83.53222 131.901512 83.024963 131.691399 82.496118 131.691399 
C 81.967272 131.691399 81.460016 131.901512 81.086066 132.275462 
C 80.712116 132.649412 80.502003 133.156669 80.502003 133.685514 
C 80.502003 134.214359 80.712116 134.721616 81.086066 135.095566 
C 81.460016 135.469516 81.967272 135.679629 82.496118 135.679629 
z
" clip-path="url(#p0388a0842a)" style="stroke: #000000"/>
    <path d="M 86.103442 122.553925 
C 86.808876 122.553925 87.485513 122.273653 87.98433 121.774835 
C 88.483148 121.276018 88.76342 120.599381 88.76342 119.893946 
C 88.76342 119.188512 88.483148 118.511875 87.98433 118.013058 
C 87.485513 117.51424 86.808876 117.233968 86.103442 117.233968 
C 85.398007 117.233968 84.72137 117.51424 84.222553 118.013058 
C 83.723735 118.511875 83.443463 119.188512 83.443463 119.893946 
C 83.443463 120.599381 83.723735 121.276018 84.222553 121.774835 
C 84.72137 122.273653 85.398007 122.553925 86.103442 122.553925 
z
" clip-path="url(#p0388a0842a)" style="stroke: #000000"/>
    <path d="M 77.13128 110.03284 
C 77.836715 110.03284 78.513351 109.752568 79.012169 109.253751 
C 79.510986 108.754933 79.791259 108.078296 79.791259 107.372862 
C 79.791259 106.667427 79.510986 105.99079 79.012169 105.491973 
C 78.513351 104.993155 77.836715 104.712883 77.13128 104.712883 
C 76.425845 104.712883 75.749209 104.993155 75.250391 105.491973 
C 74.751574 105.99079 74.471301 106.667427 74.471301 107.372862 
C 74.471301 108.078296 74.751574 108.754933 75.250391 109.253751 
C 75.749209 109.752568 76.425845 110.03284 77.13128 110.03284 
z
" clip-path="url(#p0388a0842a)" style="stroke: #000000"/>
    <path d="M 77.96754 101.50084 
C 78.672754 101.50084 79.34918 101.220655 79.847841 100.721994 
C 80.346503 100.223332 80.626688 99.546906 80.626688 98.841692 
C 80.626688 98.136478 80.346503 97.460052 79.847841 96.96139 
C 79.34918 96.462729 78.672754 96.182544 77.96754 96.182544 
C 77.262326 96.182544 76.5859 96.462729 76.087238 96.96139 
C 75.588577 97.460052 75.308392 98.136478 75.308392 98.841692 
C 75.308392 99.546906 75.588577 100.223332 76.087238 100.721994 
C 76.5859 101.220655 77.262326 101.50084 77.96754 101.50084 
z
" clip-path="url(#p0388a0842a)" style="stroke: #000000"/>
    <path d="M 72.619707 94.088799 
C 73.213089 94.088799 73.782248 93.853046 74.201833 93.433461 
C 74.621418 93.013876 74.857171 92.444717 74.857171 91.851335 
C 74.857171 91.257952 74.621418 90.688793 74.201833 90.269209 
C 73.782248 89.849624 73.213089 89.61387 72.619707 89.61387 
C 72.026324 89.61387 71.457165 89.849624 71.037581 90.269209 
C 70.617996 90.688793 70.382242 91.257952 70.382242 91.851335 
C 70.382242 92.444717 70.617996 93.013876 71.037581 93.433461 
C 71.457165 93.853046 72.026324 94.088799 72.619707 94.088799 
z
" clip-path="url(#p0388a0842a)" style="stroke: #000000"/>
    <path d="M 73.260253 84.945711 
C 73.965687 84.945711 74.642324 84.665439 75.141142 84.166621 
C 75.639959 83.667804 75.920231 82.991167 75.920231 82.285733 
C 75.920231 81.580298 75.639959 80.903661 75.141142 80.404844 
C 74.642324 79.906026 73.965687 79.625754 73.260253 79.625754 
C 72.554818 79.625754 71.878181 79.906026 71.379364 80.404844 
C 70.880546 80.903661 70.600274 81.580298 70.600274 82.285733 
C 70.600274 82.991167 70.880546 83.667804 71.379364 84.166621 
C 71.878181 84.665439 72.554818 84.945711 73.260253 84.945711 
z
" clip-path="url(#p0388a0842a)" style="stroke: #000000"/>
    <path d="M 63.982717 59.155712 
C 64.5761 59.155712 65.145259 58.919959 65.564844 58.500374 
C 65.984428 58.080789 66.220182 57.511631 66.220182 56.918248 
C 66.220182 56.324866 65.984428 55.755707 65.564844 55.336122 
C 65.145259 54.916537 64.5761 54.680784 63.982717 54.680784 
C 63.389335 54.680784 62.820176 54.916537 62.400591 55.336122 
C 61.981007 55.755707 61.745253 56.324866 61.745253 56.918248 
C 61.745253 57.511631 61.981007 58.080789 62.400591 58.500374 
C 62.820176 58.919959 63.389335 59.155712 63.982717 59.155712 
z
" clip-path="url(#p0388a0842a)" style="stroke: #000000"/>
    <path d="M 75.851835 134.089529 
C 76.412671 134.089529 76.950612 133.866707 77.347183 133.470136 
C 77.743754 133.073564 77.966577 132.535623 77.966577 131.974787 
C 77.966577 131.413951 77.743754 130.876009 77.347183 130.479438 
C 76.950612 130.082867 76.412671 129.860044 75.851835 129.860044 
C 75.290998 129.860044 74.753057 130.082867 74.356486 130.479438 
C 73.959915 130.876009 73.737092 131.413951 73.737092 131.974787 
C 73.737092 132.535623 73.959915 133.073564 74.356486 133.470136 
C 74.753057 133.866707 75.290998 134.089529 75.851835 134.089529 
z
" clip-path="url(#p0388a0842a)" style="stroke: #000000"/>
    <path d="M 66.500682 104.33231 
C 66.633284 104.33231 66.760472 104.279626 66.854235 104.185863 
C 66.947999 104.0921 67.000682 103.964911 67.000682 103.83231 
C 67.000682 103.699708 66.947999 103.57252 66.854235 103.478756 
C 66.760472 103.384993 66.633284 103.33231 66.500682 103.33231 
C 66.36808 103.33231 66.240892 103.384993 66.147129 103.478756 
C 66.053365 103.57252 66.000682 103.699708 66.000682 103.83231 
C 66.000682 103.964911 66.053365 104.0921 66.147129 104.185863 
C 66.240892 104.279626 66.36808 104.33231 66.500682 104.33231 
z
" clip-path="url(#p0388a0842a)" style="stroke: #000000"/>
    <path d="M 61.245077 97.398211 
C 61.83846 97.398211 62.407619 97.162458 62.827203 96.742873 
C 63.246788 96.323288 63.482542 95.754129 63.482542 95.160747 
C 63.482542 94.567365 63.246788 93.998206 62.827203 93.578621 
C 62.407619 93.159036 61.83846 92.923283 61.245077 92.923283 
C 60.651695 92.923283 60.082536 93.159036 59.662951 93.578621 
C 59.243366 93.998206 59.007613 94.567365 59.007613 95.160747 
C 59.007613 95.754129 59.243366 96.323288 59.662951 96.742873 
C 60.082536 97.162458 60.651695 97.398211 61.245077 97.398211 
z
" clip-path="url(#p0388a0842a)" style="stroke: #000000"/>
    <path d="M 60.161563 87.590823 
C 60.866998 87.590823 61.543635 87.310551 62.042452 86.811734 
C 62.54127 86.312916 62.821542 85.636279 62.821542 84.930845 
C 62.821542 84.22541 62.54127 83.548774 62.042452 83.049956 
C 61.543635 82.551138 60.866998 82.270866 60.161563 82.270866 
C 59.456129 82.270866 58.779492 82.551138 58.280675 83.049956 
C 57.781857 83.548774 57.501585 84.22541 57.501585 84.930845 
C 57.501585 85.636279 57.781857 86.312916 58.280675 86.811734 
C 58.779492 87.310551 59.456129 87.590823 60.161563 87.590823 
z
" clip-path="url(#p0388a0842a)" style="stroke: #000000"/>
    <path d="M 67.213407 139.658179 
C 67.918621 139.658179 68.595047 139.377995 69.093709 138.879333 
C 69.59237 138.380671 69.872555 137.704246 69.872555 136.999031 
C 69.872555 136.293817 69.59237 135.617392 69.093709 135.11873 
C 68.595047 134.620068 67.918621 134.339883 67.213407 134.339883 
C 66.508193 134.339883 65.831767 134.620068 65.333105 135.11873 
C 64.834444 135.617392 64.554259 136.293817 64.554259 136.999031 
C 64.554259 137.704246 64.834444 138.380671 65.333105 138.879333 
C 65.831767 139.377995 66.508193 139.658179 67.213407 139.658179 
z
" clip-path="url(#p0388a0842a)" style="stroke: #000000"/>
    <path d="M 60.087019 132.280157 
C 60.792233 132.280157 61.468659 131.999972 61.967321 131.50131 
C 62.465982 131.002649 62.746167 130.326223 62.746167 129.621009 
C 62.746167 128.915794 62.465982 128.239369 61.967321 127.740707 
C 61.468659 127.242045 60.792233 126.961861 60.087019 126.961861 
C 59.381805 126.961861 58.705379 127.242045 58.206717 127.740707 
C 57.708056 128.239369 57.427871 128.915794 57.427871 129.621009 
C 57.427871 130.326223 57.708056 131.002649 58.206717 131.50131 
C 58.705379 131.999972 59.381805 132.280157 60.087019 132.280157 
z
" clip-path="url(#p0388a0842a)" style="stroke: #000000"/>
    <path d="M 58.993056 116.556029 
C 59.554767 116.556029 60.093547 116.332859 60.490736 115.93567 
C 60.887925 115.53848 61.111095 114.9997 61.111095 114.43799 
C 61.111095 113.876279 60.887925 113.337499 60.490736 112.94031 
C 60.093547 112.543121 59.554767 112.319951 58.993056 112.319951 
C 58.431346 112.319951 57.892566 112.543121 57.495377 112.94031 
C 57.098187 113.337499 56.875017 113.876279 56.875017 114.43799 
C 56.875017 114.9997 57.098187 115.53848 57.495377 115.93567 
C 57.892566 116.332859 58.431346 116.556029 58.993056 116.556029 
z
" clip-path="url(#p0388a0842a)" style="stroke: #000000"/>
    <path d="M 48.64347 95.698961 
C 49.348464 95.698961 50.024678 95.418864 50.523184 94.920358 
C 51.02169 94.421852 51.301787 93.745638 51.301787 93.040645 
C 51.301787 92.335651 51.02169 91.659437 50.523184 91.160931 
C 50.024678 90.662425 49.348464 90.382328 48.64347 90.382328 
C 47.938476 90.382328 47.262262 90.662425 46.763756 91.160931 
C 46.26525 91.659437 45.985153 92.335651 45.985153 93.040645 
C 45.985153 93.745638 46.26525 94.421852 46.763756 94.920358 
C 47.262262 95.418864 47.938476 95.698961 48.64347 95.698961 
z
" clip-path="url(#p0388a0842a)" style="stroke: #000000"/>
    <path d="M 47.004396 88.751757 
C 47.70961 88.751757 48.386035 88.471572 48.884697 87.972911 
C 49.383359 87.474249 49.663544 86.797823 49.663544 86.092609 
C 49.663544 85.387395 49.383359 84.710969 48.884697 84.212308 
C 48.386035 83.713646 47.70961 83.433461 47.004396 83.433461 
C 46.299181 83.433461 45.622756 83.713646 45.124094 84.212308 
C 44.625432 84.710969 44.345248 85.387395 44.345248 86.092609 
C 44.345248 86.797823 44.625432 87.474249 45.124094 87.972911 
C 45.622756 88.471572 46.299181 88.751757 47.004396 88.751757 
z
" clip-path="url(#p0388a0842a)" style="stroke: #000000"/>
    <path d="M 39.078823 78.405887 
C 39.671835 78.405887 40.240639 78.170281 40.659962 77.750958 
C 41.079285 77.331635 41.314891 76.762832 41.314891 76.169819 
C 41.314891 75.576807 41.079285 75.008004 40.659962 74.588681 
C 40.240639 74.169358 39.671835 73.933752 39.078823 73.933752 
C 38.485811 73.933752 37.917007 74.169358 37.497684 74.588681 
C 37.078362 75.008004 36.842755 75.576807 36.842755 76.169819 
C 36.842755 76.762832 37.078362 77.331635 37.497684 77.750958 
C 37.917007 78.170281 38.485811 78.405887 39.078823 78.405887 
z
" clip-path="url(#p0388a0842a)" style="stroke: #000000"/>
    <path d="M 67.306816 173.19484 
C 67.889557 173.19484 68.44851 172.963314 68.86057 172.551254 
C 69.27263 172.139193 69.504156 171.580241 69.504156 170.9975 
C 69.504156 170.414759 69.27263 169.855806 68.86057 169.443746 
C 68.44851 169.031686 67.889557 168.80016 67.306816 168.80016 
C 66.724075 168.80016 66.165123 169.031686 65.753062 169.443746 
C 65.341002 169.855806 65.109476 170.414759 65.109476 170.9975 
C 65.109476 171.580241 65.341002 172.139193 65.753062 172.551254 
C 66.165123 172.963314 66.724075 173.19484 67.306816 173.19484 
z
" clip-path="url(#p0388a0842a)" style="stroke: #000000"/>
    <path d="M 56.795638 154.770861 
C 57.46595 154.770861 58.108898 154.504543 58.58288 154.030561 
C 59.056862 153.556579 59.32318 152.913631 59.32318 152.243319 
C 59.32318 151.573007 59.056862 150.930059 58.58288 150.456077 
C 58.108898 149.982095 57.46595 149.715778 56.795638 149.715778 
C 56.125327 149.715778 55.482379 149.982095 55.008397 150.456077 
C 54.534415 150.930059 54.268097 151.573007 54.268097 152.243319 
C 54.268097 152.913631 54.534415 153.556579 55.008397 154.030561 
C 55.482379 154.504543 56.125327 154.770861 56.795638 154.770861 
z
" clip-path="url(#p0388a0842a)" style="stroke: #000000"/>
    <path d="M 49.486676 140.662288 
C 50.141029 140.662288 50.76867 140.40231 51.231368 139.939613 
C 51.694065 139.476915 51.954043 138.849274 51.954043 138.194921 
C 51.954043 137.540568 51.694065 136.912927 51.231368 136.450229 
C 50.76867 135.987532 50.141029 135.727554 49.486676 135.727554 
C 48.832323 135.727554 48.204682 135.987532 47.741984 136.450229 
C 47.279287 136.912927 47.019309 137.540568 47.019309 138.194921 
C 47.019309 138.849274 47.279287 139.476915 47.741984 139.939613 
C 48.204682 140.40231 48.832323 140.662288 49.486676 140.662288 
z
" clip-path="url(#p0388a0842a)" style="stroke: #000000"/>
    <path d="M 44.970759 121.175813 
C 45.676193 121.175813 46.35283 120.895541 46.851648 120.396723 
C 47.350465 119.897906 47.630737 119.221269 47.630737 118.515835 
C 47.630737 117.8104 47.350465 117.133763 46.851648 116.634946 
C 46.35283 116.136128 45.676193 115.855856 44.970759 115.855856 
C 44.265324 115.855856 43.588687 116.136128 43.08987 116.634946 
C 42.591052 117.133763 42.31078 117.8104 42.31078 118.515835 
C 42.31078 119.221269 42.591052 119.897906 43.08987 120.396723 
C 43.588687 120.895541 44.265324 121.175813 44.970759 121.175813 
z
" clip-path="url(#p0388a0842a)" style="stroke: #000000"/>
    <path d="M 34.800361 92.036365 
C 35.398856 92.036365 35.972919 91.798581 36.396119 91.375381 
C 36.819319 90.952181 37.057104 90.378118 37.057104 89.779623 
C 37.057104 89.181128 36.819319 88.607065 36.396119 88.183865 
C 35.972919 87.760665 35.398856 87.52288 34.800361 87.52288 
C 34.201866 87.52288 33.627803 87.760665 33.204603 88.183865 
C 32.781403 88.607065 32.543619 89.181128 32.543619 89.779623 
C 32.543619 90.378118 32.781403 90.952181 33.204603 91.375381 
C 33.627803 91.798581 34.201866 92.036365 34.800361 92.036365 
z
" clip-path="url(#p0388a0842a)" style="stroke: #000000"/>
    <path d="M 34.033423 82.180479 
C 34.626436 82.180479 35.195239 81.944873 35.614562 81.52555 
C 36.033885 81.106227 36.269491 80.537423 36.269491 79.944411 
C 36.269491 79.351399 36.033885 78.782595 35.614562 78.363272 
C 35.195239 77.94395 34.626436 77.708343 34.033423 77.708343 
C 33.440411 77.708343 32.871608 77.94395 32.452285 78.363272 
C 32.032962 78.782595 31.797355 79.351399 31.797355 79.944411 
C 31.797355 80.537423 32.032962 81.106227 32.452285 81.52555 
C 32.871608 81.944873 33.440411 82.180479 34.033423 82.180479 
z
" clip-path="url(#p0388a0842a)" style="stroke: #000000"/>
    <path d="M 50.700238 164.668204 
C 51.293621 164.668204 51.86278 164.432451 52.282364 164.012866 
C 52.701949 163.593281 52.937703 163.024122 52.937703 162.43074 
C 52.937703 161.837357 52.701949 161.268198 52.282364 160.848614 
C 51.86278 160.429029 51.293621 160.193276 50.700238 160.193276 
C 50.106856 160.193276 49.537697 160.429029 49.118112 160.848614 
C 48.698527 161.268198 48.462774 161.837357 48.462774 162.43074 
C 48.462774 163.024122 48.698527 163.593281 49.118112 164.012866 
C 49.537697 164.432451 50.106856 164.668204 50.700238 164.668204 
z
" clip-path="url(#p0388a0842a)" style="stroke: #000000"/>
    <path d="M 42.214328 138.187878 
C 42.810284 138.187878 43.38191 137.951103 43.803314 137.529699 
C 44.224718 137.108295 44.461494 136.536668 44.461494 135.940713 
C 44.461494 135.344758 44.224718 134.773131 43.803314 134.351727 
C 43.38191 133.930323 42.810284 133.693547 42.214328 133.693547 
C 41.618373 133.693547 41.046747 133.930323 40.625343 134.351727 
C 40.203939 134.773131 39.967163 135.344758 39.967163 135.940713 
C 39.967163 136.536668 40.203939 137.108295 40.625343 137.529699 
C 41.046747 137.951103 41.618373 138.187878 42.214328 138.187878 
z
" clip-path="url(#p0388a0842a)" style="stroke: #000000"/>
    <path d="M 34.200141 150.787753 
C 34.79241 150.787753 35.360502 150.552441 35.779299 150.133644 
C 36.198097 149.714846 36.433408 149.146754 36.433408 148.554485 
C 36.433408 147.962215 36.198097 147.394124 35.779299 146.975326 
C 35.360502 146.556528 34.79241 146.321217 34.200141 146.321217 
C 33.607871 146.321217 33.03978 146.556528 32.620982 146.975326 
C 32.202184 147.394124 31.966873 147.962215 31.966873 148.554485 
C 31.966873 149.146754 32.202184 149.714846 32.620982 150.133644 
C 33.03978 150.552441 33.607871 150.787753 34.200141 150.787753 
z
" clip-path="url(#p0388a0842a)" style="stroke: #000000"/>
   </g>
   <g id="matplotlib.axis_1">
    <g id="xtick_1">
     <g id="line2d_1">
      <defs>
       <path id="m64ac269084" d="M 0 0 
L 0 3.5 
" style="stroke: #000000; stroke-width: 0.8"/>
      </defs>
      <g>
       <use xlink:href="#m64ac269084" x="18" y="189" style="stroke: #000000; stroke-width: 0.8"/>
      </g>
     </g>
     <g id="text_1">
      <!-- −10 -->
      <g transform="translate(7.447656 203.598437)scale(0.1 -0.1)">
       <defs>
        <path id="DejaVuSans-2212" d="M 678 2272 
L 4684 2272 
L 4684 1741 
L 678 1741 
L 678 2272 
z
" transform="scale(0.015625)"/>
        <path id="DejaVuSans-31" d="M 794 531 
L 1825 531 
L 1825 4091 
L 703 3866 
L 703 4441 
L 1819 4666 
L 2450 4666 
L 2450 531 
L 3481 531 
L 3481 0 
L 794 0 
L 794 531 
z
" transform="scale(0.015625)"/>
        <path id="DejaVuSans-30" d="M 2034 4250 
Q 1547 4250 1301 3770 
Q 1056 3291 1056 2328 
Q 1056 1369 1301 889 
Q 1547 409 2034 409 
Q 2525 409 2770 889 
Q 3016 1369 3016 2328 
Q 3016 3291 2770 3770 
Q 2525 4250 2034 4250 
z
M 2034 4750 
Q 2819 4750 3233 4129 
Q 3647 3509 3647 2328 
Q 3647 1150 3233 529 
Q 2819 -91 2034 -91 
Q 1250 -91 836 529 
Q 422 1150 422 2328 
Q 422 3509 836 4129 
Q 1250 4750 2034 4750 
z
" transform="scale(0.015625)"/>
       </defs>
       <use xlink:href="#DejaVuSans-2212"/>
       <use xlink:href="#DejaVuSans-31" x="83.789062"/>
       <use xlink:href="#DejaVuSans-30" x="147.412109"/>
      </g>
     </g>
    </g>
    <g id="xtick_2">
     <g id="line2d_2">
      <g>
       <use xlink:href="#m64ac269084" x="73.8" y="189" style="stroke: #000000; stroke-width: 0.8"/>
      </g>
     </g>
     <g id="text_2">
      <!-- 0 -->
      <g transform="translate(70.61875 203.598437)scale(0.1 -0.1)">
       <use xlink:href="#DejaVuSans-30"/>
      </g>
     </g>
    </g>
    <g id="xtick_3">
     <g id="line2d_3">
      <g>
       <use xlink:href="#m64ac269084" x="129.6" y="189" style="stroke: #000000; stroke-width: 0.8"/>
      </g>
     </g>
     <g id="text_3">
      <!-- 10 -->
      <g transform="translate(123.2375 203.598437)scale(0.1 -0.1)">
       <use xlink:href="#DejaVuSans-31"/>
       <use xlink:href="#DejaVuSans-30" x="63.623047"/>
      </g>
     </g>
    </g>
   </g>
   <g id="matplotlib.axis_2">
    <g id="ytick_1">
     <g id="line2d_4">
      <defs>
       <path id="m1b9a47044f" d="M 0 0 
L -3.5 0 
" style="stroke: #000000; stroke-width: 0.8"/>
      </defs>
      <g>
       <use xlink:href="#m1b9a47044f" x="18" y="189" style="stroke: #000000; stroke-width: 0.8"/>
      </g>
     </g>
     <g id="text_4">
      <!-- −15 -->
      <g transform="translate(-10.104688 192.799219)scale(0.1 -0.1)">
       <defs>
        <path id="DejaVuSans-35" d="M 691 4666 
L 3169 4666 
L 3169 4134 
L 1269 4134 
L 1269 2991 
Q 1406 3038 1543 3061 
Q 1681 3084 1819 3084 
Q 2600 3084 3056 2656 
Q 3513 2228 3513 1497 
Q 3513 744 3044 326 
Q 2575 -91 1722 -91 
Q 1428 -91 1123 -41 
Q 819 9 494 109 
L 494 744 
Q 775 591 1075 516 
Q 1375 441 1709 441 
Q 2250 441 2565 725 
Q 2881 1009 2881 1497 
Q 2881 1984 2565 2268 
Q 2250 2553 1709 2553 
Q 1456 2553 1204 2497 
Q 953 2441 691 2322 
L 691 4666 
z
" transform="scale(0.015625)"/>
       </defs>
       <use xlink:href="#DejaVuSans-2212"/>
       <use xlink:href="#DejaVuSans-31" x="83.789062"/>
       <use xlink:href="#DejaVuSans-35" x="147.412109"/>
      </g>
     </g>
    </g>
    <g id="ytick_2">
     <g id="line2d_5">
      <g>
       <use xlink:href="#m1b9a47044f" x="18" y="161.82" style="stroke: #000000; stroke-width: 0.8"/>
      </g>
     </g>
     <g id="text_5">
      <!-- −10 -->
      <g transform="translate(-10.104688 165.619219)scale(0.1 -0.1)">
       <use xlink:href="#DejaVuSans-2212"/>
       <use xlink:href="#DejaVuSans-31" x="83.789062"/>
       <use xlink:href="#DejaVuSans-30" x="147.412109"/>
      </g>
     </g>
    </g>
    <g id="ytick_3">
     <g id="line2d_6">
      <g>
       <use xlink:href="#m1b9a47044f" x="18" y="134.64" style="stroke: #000000; stroke-width: 0.8"/>
      </g>
     </g>
     <g id="text_6">
      <!-- −5 -->
      <g transform="translate(-3.742188 138.439219)scale(0.1 -0.1)">
       <use xlink:href="#DejaVuSans-2212"/>
       <use xlink:href="#DejaVuSans-35" x="83.789062"/>
      </g>
     </g>
    </g>
    <g id="ytick_4">
     <g id="line2d_7">
      <g>
       <use xlink:href="#m1b9a47044f" x="18" y="107.46" style="stroke: #000000; stroke-width: 0.8"/>
      </g>
     </g>
     <g id="text_7">
      <!-- 0 -->
      <g transform="translate(4.6375 111.259219)scale(0.1 -0.1)">
       <use xlink:href="#DejaVuSans-30"/>
      </g>
     </g>
    </g>
    <g id="ytick_5">
     <g id="line2d_8">
      <g>
       <use xlink:href="#m1b9a47044f" x="18" y="80.28" style="stroke: #000000; stroke-width: 0.8"/>
      </g>
     </g>
     <g id="text_8">
      <!-- 5 -->
      <g transform="translate(4.6375 84.079219)scale(0.1 -0.1)">
       <use xlink:href="#DejaVuSans-35"/>
      </g>
     </g>
    </g>
    <g id="ytick_6">
     <g id="line2d_9">
      <g>
       <use xlink:href="#m1b9a47044f" x="18" y="53.1" style="stroke: #000000; stroke-width: 0.8"/>
      </g>
     </g>
     <g id="text_9">
      <!-- 10 -->
      <g transform="translate(-1.725 56.899219)scale(0.1 -0.1)">
       <use xlink:href="#DejaVuSans-31"/>
       <use xlink:href="#DejaVuSans-30" x="63.623047"/>
      </g>
     </g>
    </g>
    <g id="ytick_7">
     <g id="line2d_10">
      <g>
       <use xlink:href="#m1b9a47044f" x="18" y="25.92" style="stroke: #000000; stroke-width: 0.8"/>
      </g>
     </g>
     <g id="text_10">
      <!-- 15 -->
      <g transform="translate(-1.725 29.719219)scale(0.1 -0.1)">
       <use xlink:href="#DejaVuSans-31"/>
       <use xlink:href="#DejaVuSans-35" x="63.623047"/>
      </g>
     </g>
    </g>
   </g>
   <g id="patch_3">
    <path d="M 18 189 
L 18 25.92 
" style="fill: none; stroke: #000000; stroke-width: 0.8; stroke-linejoin: miter; stroke-linecap: square"/>
   </g>
   <g id="patch_4">
    <path d="M 129.6 189 
L 129.6 25.92 
" style="fill: none; stroke: #000000; stroke-width: 0.8; stroke-linejoin: miter; stroke-linecap: square"/>
   </g>
   <g id="patch_5">
    <path d="M 18 189 
L 129.6 189 
" style="fill: none; stroke: #000000; stroke-width: 0.8; stroke-linejoin: miter; stroke-linecap: square"/>
   </g>
   <g id="patch_6">
    <path d="M 18 25.92 
L 129.6 25.92 
" style="fill: none; stroke: #000000; stroke-width: 0.8; stroke-linejoin: miter; stroke-linecap: square"/>
   </g>
  </g>
 </g>
 <defs>
  <clipPath id="p0388a0842a">
   <rect x="18" y="25.92" width="111.6" height="163.08"/>
  </clipPath>
 </defs>
</svg>
