<?xml version="1.0" encoding="utf-8" standalone="no"?>
<!DOCTYPE svg PUBLIC "-//W3C//DTD SVG 1.1//EN"
  "http://www.w3.org/Graphics/SVG/1.1/DTD/svg11.dtd">
<svg xmlns:xlink="http://www.w3.org/1999/xlink" width="144pt" height="216pt" viewBox="0 0 144 216" xmlns="http://www.w3.org/2000/svg" version="1.1">
 <metadata>
  <rdf:RDF xmlns:dc="http://purl.org/dc/elements/1.1/" xmlns:cc="http://creativecommons.org/ns#" xmlns:rdf="http://www.w3.org/1999/02/22-rdf-syntax-ns#">
   <cc:Work>
    <dc:type rdf:resource="http://purl.org/dc/dcmitype/StillImage"/>
    <dc:date>2022-06-18T00:14:07.606591</dc:date>
    <dc:format>image/svg+xml</dc:format>
    <dc:creator>
     <cc:Agent>
      <dc:title>Matplotlib v3.5.1, https://matplotlib.org/</dc:title>
     </cc:Agent>
    </dc:creator>
   </cc:Work>
  </rdf:RDF>
 </metadata>
 <defs>
  <style type="text/css">*{stroke-linejoin: round; stroke-linecap: butt}</style>
 </defs>
 <g id="figure_1">
  <g id="patch_1">
   <path d="M 0 216 
L 144 216 
L 144 0 
L 0 0 
L 0 216 
z
" style="fill: none"/>
  </g>
  <g id="axes_1">
   <g id="patch_2">
    <path d="M 18 189 
L 129.6 189 
L 129.6 25.92 
L 18 25.92 
z
" style="fill: #ffffff"/>
   </g>
   <g id="PathCollection_1">
    <defs>
     <path id="mf39f2acc54" d="M 0 2.738613 
C 0.726289 2.738613 1.422928 2.450055 1.936492 1.936492 
C 2.450055 1.422928 2.738613 0.726289 2.738613 0 
C 2.738613 -0.726289 2.450055 -1.422928 1.936492 -1.936492 
C 1.422928 -2.450055 0.726289 -2.738613 0 -2.738613 
C -0.726289 -2.738613 -1.422928 -2.450055 -1.936492 -1.936492 
C -2.450055 -1.422928 -2.738613 -0.726289 -2.738613 0 
C -2.738613 0.726289 -2.450055 1.422928 -1.936492 1.936492 
C -1.422928 2.450055 -0.726289 2.738613 0 2.738613 
z
" style="stroke: #ff0000; stroke-width: 1.75"/>
    </defs>
    <g clip-path="url(#pc5506fde03)">
     <use xlink:href="#mf39f2acc54" x="66.825" y="83.92143" style="fill: #ff0000; stroke: #ff0000; stroke-width: 1.75"/>
     <use xlink:href="#mf39f2acc54" x="87.75" y="95.690715" style="fill: #ff0000; stroke: #ff0000; stroke-width: 1.75"/>
     <use xlink:href="#mf39f2acc54" x="66.825" y="107.46" style="fill: #ff0000; stroke: #ff0000; stroke-width: 1.75"/>
     <use xlink:href="#mf39f2acc54" x="73.8" y="119.229285" style="fill: #ff0000; stroke: #ff0000; stroke-width: 1.75"/>
     <use xlink:href="#mf39f2acc54" x="87.75" y="119.229285" style="fill: #ff0000; stroke: #ff0000; stroke-width: 1.75"/>
     <use xlink:href="#mf39f2acc54" x="66.825" y="130.99857" style="fill: #ff0000; stroke: #ff0000; stroke-width: 1.75"/>
     <use xlink:href="#mf39f2acc54" x="80.775" y="130.99857" style="fill: #ff0000; stroke: #ff0000; stroke-width: 1.75"/>
    </g>
   </g>
   <g id="PathCollection_2">
    <defs>
     <path id="C0_0_b12adeefc8" d="M 0 2.738613 
C 0.726289 2.738613 1.422928 2.450055 1.936492 1.936492 
C 2.450055 1.422928 2.738613 0.726289 2.738613 -0 
C 2.738613 -0.726289 2.450055 -1.422928 1.936492 -1.936492 
C 1.422928 -2.450055 0.726289 -2.738613 0 -2.738613 
C -0.726289 -2.738613 -1.422928 -2.450055 -1.936492 -1.936492 
C -2.450055 -1.422928 -2.738613 -0.726289 -2.738613 0 
C -2.738613 0.726289 -2.450055 1.422928 -1.936492 1.936492 
C -1.422928 2.450055 -0.726289 2.738613 0 2.738613 
z
"/>
    </defs>
    <g clip-path="url(#pc5506fde03)">
     <use xlink:href="#C0_0_b12adeefc8" x="80.775" y="83.92143" style="fill: none; stroke: #ff0000; stroke-width: 1.75"/>
    </g>
    <g clip-path="url(#pc5506fde03)">
     <use xlink:href="#C0_0_b12adeefc8" x="59.85" y="95.690715" style="fill: none; stroke: #ff0000; stroke-width: 1.75"/>
    </g>
    <g clip-path="url(#pc5506fde03)">
     <use xlink:href="#C0_0_b12adeefc8" x="73.8" y="95.690715" style="fill: none; stroke: #ff0000; stroke-width: 1.75"/>
    </g>
    <g clip-path="url(#pc5506fde03)">
     <use xlink:href="#C0_0_b12adeefc8" x="52.875" y="107.46" style="fill: none; stroke: #ff0000; stroke-width: 1.75"/>
    </g>
    <g clip-path="url(#pc5506fde03)">
     <use xlink:href="#C0_0_b12adeefc8" x="80.775" y="107.46" style="fill: none; stroke: #ff0000; stroke-width: 1.75"/>
    </g>
    <g clip-path="url(#pc5506fde03)">
     <use xlink:href="#C0_0_b12adeefc8" x="94.725" y="107.46" style="fill: none; stroke: #ff0000; stroke-width: 1.75"/>
    </g>
    <g clip-path="url(#pc5506fde03)">
     <use xlink:href="#C0_0_b12adeefc8" x="59.85" y="119.229285" style="fill: none; stroke: #ff0000; stroke-width: 1.75"/>
    </g>
   </g>
   <g id="PathCollection_3">
    <path d="M 116.949145 122.650594 
C 117.186408 122.650594 117.413985 122.556329 117.581755 122.388559 
C 117.749525 122.220789 117.843791 121.993212 117.843791 121.755949 
C 117.843791 121.518686 117.749525 121.291109 117.581755 121.123339 
C 117.413985 120.955569 117.186408 120.861303 116.949145 120.861303 
C 116.711883 120.861303 116.484306 120.955569 116.316536 121.123339 
C 116.148765 121.291109 116.0545 121.518686 116.0545 121.755949 
C 116.0545 121.993212 116.148765 122.220789 116.316536 122.388559 
C 116.484306 122.556329 116.711883 122.650594 116.949145 122.650594 
z
" clip-path="url(#pc5506fde03)" style="stroke: #000000"/>
    <path d="M 112.672122 109.356072 
C 112.887808 109.356072 113.09469 109.270379 113.247203 109.117865 
C 113.399717 108.965352 113.48541 108.75847 113.48541 108.542784 
C 113.48541 108.327097 113.399717 108.120216 113.247203 107.967702 
C 113.09469 107.815189 112.887808 107.729496 112.672122 107.729496 
C 112.456435 107.729496 112.249553 107.815189 112.09704 107.967702 
C 111.944526 108.120216 111.858833 108.327097 111.858833 108.542784 
C 111.858833 108.75847 111.944526 108.965352 112.09704 109.117865 
C 112.249553 109.270379 112.456435 109.356072 112.672122 109.356072 
z
" clip-path="url(#pc5506fde03)" style="stroke: #000000"/>
    <path d="M 109.248142 95.887704 
C 109.461877 95.887704 109.666886 95.802786 109.818019 95.651653 
C 109.969152 95.50052 110.05407 95.295511 110.05407 95.081776 
C 110.05407 94.868042 109.969152 94.663032 109.818019 94.511899 
C 109.666886 94.360766 109.461877 94.275849 109.248142 94.275849 
C 109.034408 94.275849 108.829399 94.360766 108.678266 94.511899 
C 108.527132 94.663032 108.442215 94.868042 108.442215 95.081776 
C 108.442215 95.295511 108.527132 95.50052 108.678266 95.651653 
C 108.829399 95.802786 109.034408 95.887704 109.248142 95.887704 
z
" clip-path="url(#pc5506fde03)" style="stroke: #000000"/>
    <path d="M 105.019081 91.118353 
C 105.256344 91.118353 105.483921 91.024087 105.651691 90.856317 
C 105.819461 90.688547 105.913726 90.46097 105.913726 90.223707 
C 105.913726 89.986445 105.819461 89.758868 105.651691 89.591098 
C 105.483921 89.423328 105.256344 89.329062 105.019081 89.329062 
C 104.781818 89.329062 104.554241 89.423328 104.386471 89.591098 
C 104.218701 89.758868 104.124436 89.986445 104.124436 90.223707 
C 104.124436 90.46097 104.218701 90.688547 104.386471 90.856317 
C 104.554241 91.024087 104.781818 91.118353 105.019081 91.118353 
z
" clip-path="url(#pc5506fde03)" style="stroke: #000000"/>
    <path d="M 101.273174 80.158742 
C 101.510437 80.158742 101.738014 80.064476 101.905784 79.896706 
C 102.073554 79.728936 102.16782 79.501359 102.16782 79.264096 
C 102.16782 79.026834 102.073554 78.799257 101.905784 78.631486 
C 101.738014 78.463716 101.510437 78.369451 101.273174 78.369451 
C 101.035911 78.369451 100.808334 78.463716 100.640564 78.631486 
C 100.472794 78.799257 100.378529 79.026834 100.378529 79.264096 
C 100.378529 79.501359 100.472794 79.728936 100.640564 79.896706 
C 100.808334 80.064476 101.035911 80.158742 101.273174 80.158742 
z
" clip-path="url(#pc5506fde03)" style="stroke: #000000"/>
    <path d="M 95.566206 74.062679 
C 95.803469 74.062679 96.031046 73.968413 96.198816 73.800643 
C 96.366586 73.632873 96.460851 73.405296 96.460851 73.168033 
C 96.460851 72.93077 96.366586 72.703193 96.198816 72.535423 
C 96.031046 72.367653 95.803469 72.273388 95.566206 72.273388 
C 95.328943 72.273388 95.101366 72.367653 94.933596 72.535423 
C 94.765826 72.703193 94.67156 72.93077 94.67156 73.168033 
C 94.67156 73.405296 94.765826 73.632873 94.933596 73.800643 
C 95.101366 73.968413 95.328943 74.062679 95.566206 74.062679 
z
" clip-path="url(#pc5506fde03)" style="stroke: #000000"/>
    <path d="M 94.170358 61.889491 
C 94.170358 61.889491 94.170358 61.889491 94.170358 61.889491 
C 94.170358 61.889491 94.170358 61.889491 94.170358 61.889491 
C 94.170358 61.889491 94.170358 61.889491 94.170358 61.889491 
C 94.170358 61.889491 94.170358 61.889491 94.170358 61.889491 
C 94.170358 61.889491 94.170358 61.889491 94.170358 61.889491 
C 94.170358 61.889491 94.170358 61.889491 94.170358 61.889491 
C 94.170358 61.889491 94.170358 61.889491 94.170358 61.889491 
C 94.170358 61.889491 94.170358 61.889491 94.170358 61.889491 
z
" clip-path="url(#pc5506fde03)" style="stroke: #000000"/>
    <path d="M 92.062376 49.391847 
C 92.299639 49.391847 92.527216 49.297582 92.694986 49.129811 
C 92.862756 48.962041 92.957022 48.734464 92.957022 48.497202 
C 92.957022 48.259939 92.862756 48.032362 92.694986 47.864592 
C 92.527216 47.696822 92.299639 47.602556 92.062376 47.602556 
C 91.825113 47.602556 91.597536 47.696822 91.429766 47.864592 
C 91.261996 48.032362 91.167731 48.259939 91.167731 48.497202 
C 91.167731 48.734464 91.261996 48.962041 91.429766 49.129811 
C 91.597536 49.297582 91.825113 49.391847 92.062376 49.391847 
z
" clip-path="url(#pc5506fde03)" style="stroke: #000000"/>
    <path d="M 86.33211 34.37455 
C 86.443614 34.37455 86.550566 34.330249 86.629412 34.251404 
C 86.708257 34.172558 86.752558 34.065606 86.752558 33.954102 
C 86.752558 33.842598 86.708257 33.735645 86.629412 33.6568 
C 86.550566 33.577955 86.443614 33.533654 86.33211 33.533654 
C 86.220606 33.533654 86.113654 33.577955 86.034808 33.6568 
C 85.955963 33.735645 85.911662 33.842598 85.911662 33.954102 
C 85.911662 34.065606 85.955963 34.172558 86.034808 34.251404 
C 86.113654 34.330249 86.220606 34.37455 86.33211 34.37455 
z
" clip-path="url(#pc5506fde03)" style="stroke: #000000"/>
    <path d="M 85.52777 31.412968 
C 85.765032 31.412968 85.992609 31.318702 86.160379 31.150932 
C 86.32815 30.983162 86.422415 30.755585 86.422415 30.518322 
C 86.422415 30.281059 86.32815 30.053482 86.160379 29.885712 
C 85.992609 29.717942 85.765032 29.623677 85.52777 29.623677 
C 85.290507 29.623677 85.06293 29.717942 84.89516 29.885712 
C 84.72739 30.053482 84.633124 30.281059 84.633124 30.518322 
C 84.633124 30.755585 84.72739 30.983162 84.89516 31.150932 
C 85.06293 31.318702 85.290507 31.412968 85.52777 31.412968 
z
" clip-path="url(#pc5506fde03)" style="stroke: #000000"/>
    <path d="M 114.579364 167.087476 
C 114.816626 167.087476 115.044203 166.99321 115.211973 166.82544 
C 115.379743 166.65767 115.474009 166.430093 115.474009 166.19283 
C 115.474009 165.955568 115.379743 165.727991 115.211973 165.56022 
C 115.044203 165.39245 114.816626 165.298185 114.579364 165.298185 
C 114.342101 165.298185 114.114524 165.39245 113.946754 165.56022 
C 113.778984 165.727991 113.684718 165.955568 113.684718 166.19283 
C 113.684718 166.430093 113.778984 166.65767 113.946754 166.82544 
C 114.114524 166.99321 114.342101 167.087476 114.579364 167.087476 
z
" clip-path="url(#pc5506fde03)" style="stroke: #000000"/>
    <path d="M 121.473988 153.033078 
C 121.473988 153.033078 121.473988 153.033078 121.473988 153.033078 
C 121.473988 153.033078 121.473988 153.033078 121.473988 153.033078 
C 121.473988 153.033078 121.473988 153.033078 121.473988 153.033078 
C 121.473988 153.033078 121.473988 153.033078 121.473988 153.033078 
C 121.473988 153.033078 121.473988 153.033078 121.473988 153.033078 
C 121.473988 153.033078 121.473988 153.033078 121.473988 153.033078 
C 121.473988 153.033078 121.473988 153.033078 121.473988 153.033078 
C 121.473988 153.033078 121.473988 153.033078 121.473988 153.033078 
z
" clip-path="url(#pc5506fde03)" style="stroke: #000000"/>
    <path d="M 110.121227 143.495292 
C 110.358489 143.495292 110.586066 143.401026 110.753836 143.233256 
C 110.921607 143.065486 111.015872 142.837909 111.015872 142.600646 
C 111.015872 142.363383 110.921607 142.135806 110.753836 141.968036 
C 110.586066 141.800266 110.358489 141.706001 110.121227 141.706001 
C 109.883964 141.706001 109.656387 141.800266 109.488617 141.968036 
C 109.320847 142.135806 109.226581 142.363383 109.226581 142.600646 
C 109.226581 142.837909 109.320847 143.065486 109.488617 143.233256 
C 109.656387 143.401026 109.883964 143.495292 110.121227 143.495292 
z
" clip-path="url(#pc5506fde03)" style="stroke: #000000"/>
    <path d="M 111.873174 137.285556 
C 112.110437 137.285556 112.338014 137.191291 112.505784 137.023521 
C 112.673554 136.855751 112.76782 136.628174 112.76782 136.390911 
C 112.76782 136.153648 112.673554 135.926071 112.505784 135.758301 
C 112.338014 135.590531 112.110437 135.496265 111.873174 135.496265 
C 111.635911 135.496265 111.408334 135.590531 111.240564 135.758301 
C 111.072794 135.926071 110.978529 136.153648 110.978529 136.390911 
C 110.978529 136.628174 111.072794 136.855751 111.240564 137.023521 
C 111.408334 137.191291 111.635911 137.285556 111.873174 137.285556 
z
" clip-path="url(#pc5506fde03)" style="stroke: #000000"/>
    <path d="M 109.361428 122.479542 
C 109.579015 122.479542 109.787719 122.393093 109.941577 122.239236 
C 110.095434 122.085379 110.181882 121.876674 110.181882 121.659087 
C 110.181882 121.4415 110.095434 121.232795 109.941577 121.078938 
C 109.787719 120.925081 109.579015 120.838633 109.361428 120.838633 
C 109.143841 120.838633 108.935136 120.925081 108.781279 121.078938 
C 108.627422 121.232795 108.540973 121.4415 108.540973 121.659087 
C 108.540973 121.876674 108.627422 122.085379 108.781279 122.239236 
C 108.935136 122.393093 109.143841 122.479542 109.361428 122.479542 
z
" clip-path="url(#pc5506fde03)" style="stroke: #000000"/>
    <path d="M 102.68729 114.446563 
C 102.924553 114.446563 103.15213 114.352297 103.3199 114.184527 
C 103.48767 114.016757 103.581935 113.78918 103.581935 113.551917 
C 103.581935 113.314654 103.48767 113.087077 103.3199 112.919307 
C 103.15213 112.751537 102.924553 112.657272 102.68729 112.657272 
C 102.450027 112.657272 102.22245 112.751537 102.05468 112.919307 
C 101.88691 113.087077 101.792644 113.314654 101.792644 113.551917 
C 101.792644 113.78918 101.88691 114.016757 102.05468 114.184527 
C 102.22245 114.352297 102.450027 114.446563 102.68729 114.446563 
z
" clip-path="url(#pc5506fde03)" style="stroke: #000000"/>
    <path d="M 99.045092 101.917591 
C 99.282354 101.917591 99.509931 101.823326 99.677701 101.655555 
C 99.845472 101.487785 99.939737 101.260208 99.939737 101.022946 
C 99.939737 100.785683 99.845472 100.558106 99.677701 100.390336 
C 99.509931 100.222566 99.282354 100.1283 99.045092 100.1283 
C 98.807829 100.1283 98.580252 100.222566 98.412482 100.390336 
C 98.244712 100.558106 98.150446 100.785683 98.150446 101.022946 
C 98.150446 101.260208 98.244712 101.487785 98.412482 101.655555 
C 98.580252 101.823326 98.807829 101.917591 99.045092 101.917591 
z
" clip-path="url(#pc5506fde03)" style="stroke: #000000"/>
    <path d="M 99.456391 92.082517 
C 99.693654 92.082517 99.921231 91.988251 100.089001 91.820481 
C 100.256771 91.652711 100.351037 91.425134 100.351037 91.187871 
C 100.351037 90.950608 100.256771 90.723031 100.089001 90.555261 
C 99.921231 90.387491 99.693654 90.293226 99.456391 90.293226 
C 99.219129 90.293226 98.991552 90.387491 98.823782 90.555261 
C 98.656011 90.723031 98.561746 90.950608 98.561746 91.187871 
C 98.561746 91.425134 98.656011 91.652711 98.823782 91.820481 
C 98.991552 91.988251 99.219129 92.082517 99.456391 92.082517 
z
" clip-path="url(#pc5506fde03)" style="stroke: #000000"/>
    <path d="M 93.612993 84.422924 
C 93.770684 84.422924 93.921937 84.360273 94.033441 84.248768 
C 94.144946 84.137264 94.207597 83.986011 94.207597 83.82832 
C 94.207597 83.67063 94.144946 83.519376 94.033441 83.407872 
C 93.921937 83.296368 93.770684 83.233717 93.612993 83.233717 
C 93.455303 83.233717 93.304049 83.296368 93.192545 83.407872 
C 93.081041 83.519376 93.01839 83.67063 93.01839 83.82832 
C 93.01839 83.986011 93.081041 84.137264 93.192545 84.248768 
C 93.304049 84.360273 93.455303 84.422924 93.612993 84.422924 
z
" clip-path="url(#pc5506fde03)" style="stroke: #000000"/>
    <path d="M 93.851175 71.819489 
C 94.088438 71.819489 94.316015 71.725224 94.483785 71.557454 
C 94.651555 71.389683 94.745821 71.162106 94.745821 70.924844 
C 94.745821 70.687581 94.651555 70.460004 94.483785 70.292234 
C 94.316015 70.124464 94.088438 70.030198 93.851175 70.030198 
C 93.613912 70.030198 93.386335 70.124464 93.218565 70.292234 
C 93.050795 70.460004 92.95653 70.687581 92.95653 70.924844 
C 92.95653 71.162106 93.050795 71.389683 93.218565 71.557454 
C 93.386335 71.725224 93.613912 71.819489 93.851175 71.819489 
z
" clip-path="url(#pc5506fde03)" style="stroke: #000000"/>
    <path d="M 86.394772 63.019774 
C 86.608507 63.019774 86.813516 62.934856 86.964649 62.783723 
C 87.115782 62.63259 87.2007 62.427581 87.2007 62.213846 
C 87.2007 62.000112 87.115782 61.795102 86.964649 61.643969 
C 86.813516 61.492836 86.608507 61.407919 86.394772 61.407919 
C 86.181038 61.407919 85.976029 61.492836 85.824896 61.643969 
C 85.673762 61.795102 85.588845 62.000112 85.588845 62.213846 
C 85.588845 62.427581 85.673762 62.63259 85.824896 62.783723 
C 85.976029 62.934856 86.181038 63.019774 86.394772 63.019774 
z
" clip-path="url(#pc5506fde03)" style="stroke: #000000"/>
    <path d="M 84.477677 52.47665 
C 84.689405 52.47665 84.892489 52.39253 85.042203 52.242816 
C 85.191916 52.093102 85.276037 51.890018 85.276037 51.678291 
C 85.276037 51.466564 85.191916 51.26348 85.042203 51.113766 
C 84.892489 50.964052 84.689405 50.879932 84.477677 50.879932 
C 84.26595 50.879932 84.062866 50.964052 83.913152 51.113766 
C 83.763438 51.26348 83.679318 51.466564 83.679318 51.678291 
C 83.679318 51.890018 83.763438 52.093102 83.913152 52.242816 
C 84.062866 52.39253 84.26595 52.47665 84.477677 52.47665 
z
" clip-path="url(#pc5506fde03)" style="stroke: #000000"/>
    <path d="M 77.266693 41.522286 
C 77.419207 41.522286 77.565494 41.461692 77.673338 41.353849 
C 77.781181 41.246006 77.841775 41.099718 77.841775 40.947205 
C 77.841775 40.794691 77.781181 40.648404 77.673338 40.540561 
C 77.565494 40.432717 77.419207 40.372123 77.266693 40.372123 
C 77.11418 40.372123 76.967893 40.432717 76.860049 40.540561 
C 76.752206 40.648404 76.691612 40.794691 76.691612 40.947205 
C 76.691612 41.099718 76.752206 41.246006 76.860049 41.353849 
C 76.967893 41.461692 77.11418 41.522286 77.266693 41.522286 
z
" clip-path="url(#pc5506fde03)" style="stroke: #000000"/>
    <path d="M 74.577244 28.223472 
C 74.577244 28.223472 74.577244 28.223472 74.577244 28.223472 
C 74.577244 28.223472 74.577244 28.223472 74.577244 28.223472 
C 74.577244 28.223472 74.577244 28.223472 74.577244 28.223472 
C 74.577244 28.223472 74.577244 28.223472 74.577244 28.223472 
C 74.577244 28.223472 74.577244 28.223472 74.577244 28.223472 
C 74.577244 28.223472 74.577244 28.223472 74.577244 28.223472 
C 74.577244 28.223472 74.577244 28.223472 74.577244 28.223472 
C 74.577244 28.223472 74.577244 28.223472 74.577244 28.223472 
z
" clip-path="url(#pc5506fde03)" style="stroke: #000000"/>
    <path d="M 71.486741 23.496781 
C 71.580505 23.496781 71.67044 23.459528 71.736741 23.393228 
C 71.803042 23.326927 71.840295 23.236991 71.840295 23.143228 
C 71.840295 23.049464 71.803042 22.959528 71.736741 22.893228 
C 71.67044 22.826927 71.580505 22.789674 71.486741 22.789674 
C 71.392978 22.789674 71.303042 22.826927 71.236741 22.893228 
C 71.17044 22.959528 71.133188 23.049464 71.133188 23.143228 
C 71.133188 23.236991 71.17044 23.326927 71.236741 23.393228 
C 71.303042 23.459528 71.392978 23.496781 71.486741 23.496781 
z
" clip-path="url(#pc5506fde03)" style="stroke: #000000"/>
    <path d="M 114.595986 175.509632 
C 114.833249 175.509632 115.060826 175.415366 115.228596 175.247596 
C 115.396366 175.079826 115.490631 174.852249 115.490631 174.614986 
C 115.490631 174.377723 115.396366 174.150146 115.228596 173.982376 
C 115.060826 173.814606 114.833249 173.720341 114.595986 173.720341 
C 114.358723 173.720341 114.131146 173.814606 113.963376 173.982376 
C 113.795606 174.150146 113.701341 174.377723 113.701341 174.614986 
C 113.701341 174.852249 113.795606 175.079826 113.963376 175.247596 
C 114.131146 175.415366 114.358723 175.509632 114.595986 175.509632 
z
" clip-path="url(#pc5506fde03)" style="stroke: #000000"/>
    <path d="M 113.223812 169.352979 
C 113.461075 169.352979 113.688652 169.258714 113.856422 169.090943 
C 114.024192 168.923173 114.118457 168.695596 114.118457 168.458334 
C 114.118457 168.221071 114.024192 167.993494 113.856422 167.825724 
C 113.688652 167.657954 113.461075 167.563688 113.223812 167.563688 
C 112.986549 167.563688 112.758972 167.657954 112.591202 167.825724 
C 112.423432 167.993494 112.329166 168.221071 112.329166 168.458334 
C 112.329166 168.695596 112.423432 168.923173 112.591202 169.090943 
C 112.758972 169.258714 112.986549 169.352979 113.223812 169.352979 
z
" clip-path="url(#pc5506fde03)" style="stroke: #000000"/>
    <path d="M 104.876326 159.345481 
C 105.088053 159.345481 105.291137 159.261361 105.440851 159.111647 
C 105.590565 158.961933 105.674685 158.758849 105.674685 158.547122 
C 105.674685 158.335394 105.590565 158.13231 105.440851 157.982596 
C 105.291137 157.832883 105.088053 157.748762 104.876326 157.748762 
C 104.664598 157.748762 104.461514 157.832883 104.3118 157.982596 
C 104.162087 158.13231 104.077966 158.335394 104.077966 158.547122 
C 104.077966 158.758849 104.162087 158.961933 104.3118 159.111647 
C 104.461514 159.261361 104.664598 159.345481 104.876326 159.345481 
z
" clip-path="url(#pc5506fde03)" style="stroke: #000000"/>
    <path d="M 100.791705 150.188437 
C 101.028968 150.188437 101.256545 150.094171 101.424315 149.926401 
C 101.592085 149.758631 101.68635 149.531054 101.68635 149.293791 
C 101.68635 149.056529 101.592085 148.828952 101.424315 148.661181 
C 101.256545 148.493411 101.028968 148.399146 100.791705 148.399146 
C 100.554442 148.399146 100.326865 148.493411 100.159095 148.661181 
C 99.991325 148.828952 99.897059 149.056529 99.897059 149.293791 
C 99.897059 149.531054 99.991325 149.758631 100.159095 149.926401 
C 100.326865 150.094171 100.554442 150.188437 100.791705 150.188437 
z
" clip-path="url(#pc5506fde03)" style="stroke: #000000"/>
    <path d="M 102.691952 134.884513 
C 102.691952 134.884513 102.691952 134.884513 102.691952 134.884513 
C 102.691952 134.884513 102.691952 134.884513 102.691952 134.884513 
C 102.691952 134.884513 102.691952 134.884513 102.691952 134.884513 
C 102.691952 134.884513 102.691952 134.884513 102.691952 134.884513 
C 102.691952 134.884513 102.691952 134.884513 102.691952 134.884513 
C 102.691952 134.884513 102.691952 134.884513 102.691952 134.884513 
C 102.691952 134.884513 102.691952 134.884513 102.691952 134.884513 
C 102.691952 134.884513 102.691952 134.884513 102.691952 134.884513 
z
" clip-path="url(#pc5506fde03)" style="stroke: #000000"/>
    <path d="M 95.40854 128.751298 
C 95.548749 128.751298 95.683234 128.695592 95.782377 128.596449 
C 95.88152 128.497306 95.937226 128.362821 95.937226 128.222612 
C 95.937226 128.082403 95.88152 127.947917 95.782377 127.848775 
C 95.683234 127.749632 95.548749 127.693926 95.40854 127.693926 
C 95.268331 127.693926 95.133846 127.749632 95.034703 127.848775 
C 94.93556 127.947917 94.879854 128.082403 94.879854 128.222612 
C 94.879854 128.362821 94.93556 128.497306 95.034703 128.596449 
C 95.133846 128.695592 95.268331 128.751298 95.40854 128.751298 
z
" clip-path="url(#pc5506fde03)" style="stroke: #000000"/>
    <path d="M 95.513072 115.058114 
C 95.750334 115.058114 95.977911 114.963849 96.145682 114.796078 
C 96.313452 114.628308 96.407717 114.400731 96.407717 114.163469 
C 96.407717 113.926206 96.313452 113.698629 96.145682 113.530859 
C 95.977911 113.363089 95.750334 113.268823 95.513072 113.268823 
C 95.275809 113.268823 95.048232 113.363089 94.880462 113.530859 
C 94.712692 113.698629 94.618426 113.926206 94.618426 114.163469 
C 94.618426 114.400731 94.712692 114.628308 94.880462 114.796078 
C 95.048232 114.963849 95.275809 115.058114 95.513072 115.058114 
z
" clip-path="url(#pc5506fde03)" style="stroke: #000000"/>
    <path d="M 89.268132 108.105204 
C 89.505395 108.105204 89.732972 108.010939 89.900742 107.843169 
C 90.068512 107.675398 90.162777 107.447821 90.162777 107.210559 
C 90.162777 106.973296 90.068512 106.745719 89.900742 106.577949 
C 89.732972 106.410179 89.505395 106.315913 89.268132 106.315913 
C 89.030869 106.315913 88.803292 106.410179 88.635522 106.577949 
C 88.467752 106.745719 88.373486 106.973296 88.373486 107.210559 
C 88.373486 107.447821 88.467752 107.675398 88.635522 107.843169 
C 88.803292 108.010939 89.030869 108.105204 89.268132 108.105204 
z
" clip-path="url(#pc5506fde03)" style="stroke: #000000"/>
    <path d="M 85.082611 94.054167 
C 85.319874 94.054167 85.547451 93.959901 85.715221 93.792131 
C 85.882991 93.624361 85.977257 93.396784 85.977257 93.159521 
C 85.977257 92.922259 85.882991 92.694682 85.715221 92.526912 
C 85.547451 92.359141 85.319874 92.264876 85.082611 92.264876 
C 84.845349 92.264876 84.617772 92.359141 84.450002 92.526912 
C 84.282232 92.694682 84.187966 92.922259 84.187966 93.159521 
C 84.187966 93.396784 84.282232 93.624361 84.450002 93.792131 
C 84.617772 93.959901 84.845349 94.054167 85.082611 94.054167 
z
" clip-path="url(#pc5506fde03)" style="stroke: #000000"/>
    <path d="M 84.449312 88.234973 
C 84.686574 88.234973 84.914151 88.140707 85.081922 87.972937 
C 85.249692 87.805167 85.343957 87.57759 85.343957 87.340327 
C 85.343957 87.103064 85.249692 86.875487 85.081922 86.707717 
C 84.914151 86.539947 84.686574 86.445682 84.449312 86.445682 
C 84.212049 86.445682 83.984472 86.539947 83.816702 86.707717 
C 83.648932 86.875487 83.554666 87.103064 83.554666 87.340327 
C 83.554666 87.57759 83.648932 87.805167 83.816702 87.972937 
C 83.984472 88.140707 84.212049 88.234973 84.449312 88.234973 
z
" clip-path="url(#pc5506fde03)" style="stroke: #000000"/>
    <path d="M 76.164306 73.873608 
C 76.390721 73.873608 76.607892 73.783653 76.767991 73.623554 
C 76.928089 73.463455 77.018045 73.246284 77.018045 73.01987 
C 77.018045 72.793456 76.928089 72.576285 76.767991 72.416186 
C 76.607892 72.256087 76.390721 72.166132 76.164306 72.166132 
C 75.937892 72.166132 75.720721 72.256087 75.560622 72.416186 
C 75.400523 72.576285 75.310568 72.793456 75.310568 73.01987 
C 75.310568 73.246284 75.400523 73.463455 75.560622 73.623554 
C 75.720721 73.783653 75.937892 73.873608 76.164306 73.873608 
z
" clip-path="url(#pc5506fde03)" style="stroke: #000000"/>
    <path d="M 75.224779 66.984565 
C 75.438513 66.984565 75.643523 66.899647 75.794656 66.748514 
C 75.945789 66.597381 76.030706 66.392372 76.030706 66.178637 
C 76.030706 65.964903 75.945789 65.759893 75.794656 65.60876 
C 75.643523 65.457627 75.438513 65.37271 75.224779 65.37271 
C 75.011045 65.37271 74.806035 65.457627 74.654902 65.60876 
C 74.503769 65.759893 74.418852 65.964903 74.418852 66.178637 
C 74.418852 66.392372 74.503769 66.597381 74.654902 66.748514 
C 74.806035 66.899647 75.011045 66.984565 75.224779 66.984565 
z
" clip-path="url(#pc5506fde03)" style="stroke: #000000"/>
    <path d="M 73.814448 58.641389 
C 74.028182 58.641389 74.233192 58.556471 74.384325 58.405338 
C 74.535458 58.254205 74.620375 58.049196 74.620375 57.835461 
C 74.620375 57.621727 74.535458 57.416717 74.384325 57.265584 
C 74.233192 57.114451 74.028182 57.029534 73.814448 57.029534 
C 73.600713 57.029534 73.395704 57.114451 73.244571 57.265584 
C 73.093438 57.416717 73.00852 57.621727 73.00852 57.835461 
C 73.00852 58.049196 73.093438 58.254205 73.244571 58.405338 
C 73.395704 58.556471 73.600713 58.641389 73.814448 58.641389 
z
" clip-path="url(#pc5506fde03)" style="stroke: #000000"/>
    <path d="M 67.599128 46.20541 
C 67.836391 46.20541 68.063968 46.111144 68.231738 45.943374 
C 68.399508 45.775604 68.493773 45.548027 68.493773 45.310764 
C 68.493773 45.073501 68.399508 44.845924 68.231738 44.678154 
C 68.063968 44.510384 67.836391 44.416119 67.599128 44.416119 
C 67.361865 44.416119 67.134288 44.510384 66.966518 44.678154 
C 66.798748 44.845924 66.704482 45.073501 66.704482 45.310764 
C 66.704482 45.548027 66.798748 45.775604 66.966518 45.943374 
C 67.134288 46.111144 67.361865 46.20541 67.599128 46.20541 
z
" clip-path="url(#pc5506fde03)" style="stroke: #000000"/>
    <path d="M 62.962915 31.54285 
C 63.056678 31.54285 63.146614 31.505598 63.212915 31.439297 
C 63.279216 31.372996 63.316468 31.283061 63.316468 31.189297 
C 63.316468 31.095534 63.279216 31.005598 63.212915 30.939297 
C 63.146614 30.872996 63.056678 30.835744 62.962915 30.835744 
C 62.869151 30.835744 62.779216 30.872996 62.712915 30.939297 
C 62.646614 31.005598 62.609361 31.095534 62.609361 31.189297 
C 62.609361 31.283061 62.646614 31.372996 62.712915 31.439297 
C 62.779216 31.505598 62.869151 31.54285 62.962915 31.54285 
z
" clip-path="url(#pc5506fde03)" style="stroke: #000000"/>
    <path d="M 104.198892 180.081699 
C 104.436155 180.081699 104.663732 179.987434 104.831502 179.819664 
C 104.999272 179.651893 105.093538 179.424316 105.093538 179.187054 
C 105.093538 178.949791 104.999272 178.722214 104.831502 178.554444 
C 104.663732 178.386674 104.436155 178.292408 104.198892 178.292408 
C 103.96163 178.292408 103.734053 178.386674 103.566283 178.554444 
C 103.398512 178.722214 103.304247 178.949791 103.304247 179.187054 
C 103.304247 179.424316 103.398512 179.651893 103.566283 179.819664 
C 103.734053 179.987434 103.96163 180.081699 104.198892 180.081699 
z
" clip-path="url(#pc5506fde03)" style="stroke: #000000"/>
    <path d="M 101.009584 169.709909 
C 101.009584 169.709909 101.009584 169.709909 101.009584 169.709909 
C 101.009584 169.709909 101.009584 169.709909 101.009584 169.709909 
C 101.009584 169.709909 101.009584 169.709909 101.009584 169.709909 
C 101.009584 169.709909 101.009584 169.709909 101.009584 169.709909 
C 101.009584 169.709909 101.009584 169.709909 101.009584 169.709909 
C 101.009584 169.709909 101.009584 169.709909 101.009584 169.709909 
C 101.009584 169.709909 101.009584 169.709909 101.009584 169.709909 
C 101.009584 169.709909 101.009584 169.709909 101.009584 169.709909 
z
" clip-path="url(#pc5506fde03)" style="stroke: #000000"/>
    <path d="M 101.629839 160.000849 
C 101.867102 160.000849 102.094679 159.906583 102.262449 159.738813 
C 102.430219 159.571043 102.524485 159.343466 102.524485 159.106203 
C 102.524485 158.868941 102.430219 158.641364 102.262449 158.473593 
C 102.094679 158.305823 101.867102 158.211558 101.629839 158.211558 
C 101.392577 158.211558 101.164999 158.305823 100.997229 158.473593 
C 100.829459 158.641364 100.735194 158.868941 100.735194 159.106203 
C 100.735194 159.343466 100.829459 159.571043 100.997229 159.738813 
C 101.164999 159.906583 101.392577 160.000849 101.629839 160.000849 
z
" clip-path="url(#pc5506fde03)" style="stroke: #000000"/>
    <path d="M 94.997993 153.005301 
C 95.235255 153.005301 95.462832 152.911035 95.630603 152.743265 
C 95.798373 152.575495 95.892638 152.347918 95.892638 152.110655 
C 95.892638 151.873392 95.798373 151.645815 95.630603 151.478045 
C 95.462832 151.310275 95.235255 151.21601 94.997993 151.21601 
C 94.76073 151.21601 94.533153 151.310275 94.365383 151.478045 
C 94.197613 151.645815 94.103347 151.873392 94.103347 152.110655 
C 94.103347 152.347918 94.197613 152.575495 94.365383 152.743265 
C 94.533153 152.911035 94.76073 153.005301 94.997993 153.005301 
z
" clip-path="url(#pc5506fde03)" style="stroke: #000000"/>
    <path d="M 90.018405 143.977999 
C 90.23214 143.977999 90.437149 143.893081 90.588282 143.741948 
C 90.739415 143.590815 90.824333 143.385806 90.824333 143.172072 
C 90.824333 142.958337 90.739415 142.753328 90.588282 142.602195 
C 90.437149 142.451062 90.23214 142.366144 90.018405 142.366144 
C 89.804671 142.366144 89.599662 142.451062 89.448528 142.602195 
C 89.297395 142.753328 89.212478 142.958337 89.212478 143.172072 
C 89.212478 143.385806 89.297395 143.590815 89.448528 143.741948 
C 89.599662 143.893081 89.804671 143.977999 90.018405 143.977999 
z
" clip-path="url(#pc5506fde03)" style="stroke: #000000"/>
    <path d="M 85.777079 129.664936 
C 86.014341 129.664936 86.241919 129.570671 86.409689 129.402901 
C 86.577459 129.235131 86.671724 129.007554 86.671724 128.770291 
C 86.671724 128.533028 86.577459 128.305451 86.409689 128.137681 
C 86.241919 127.969911 86.014341 127.875645 85.777079 127.875645 
C 85.539816 127.875645 85.312239 127.969911 85.144469 128.137681 
C 84.976699 128.305451 84.882433 128.533028 84.882433 128.770291 
C 84.882433 129.007554 84.976699 129.235131 85.144469 129.402901 
C 85.312239 129.570671 85.539816 129.664936 85.777079 129.664936 
z
" clip-path="url(#pc5506fde03)" style="stroke: #000000"/>
    <path d="M 83.400138 122.620404 
C 83.637401 122.620404 83.864978 122.526138 84.032748 122.358368 
C 84.200518 122.190598 84.294784 121.963021 84.294784 121.725758 
C 84.294784 121.488495 84.200518 121.260918 84.032748 121.093148 
C 83.864978 120.925378 83.637401 120.831113 83.400138 120.831113 
C 83.162876 120.831113 82.935299 120.925378 82.767529 121.093148 
C 82.599758 121.260918 82.505493 121.488495 82.505493 121.725758 
C 82.505493 121.963021 82.599758 122.190598 82.767529 122.358368 
C 82.935299 122.526138 83.162876 122.620404 83.400138 122.620404 
z
" clip-path="url(#pc5506fde03)" style="stroke: #000000"/>
    <path d="M 77.870265 114.82027 
C 78.107528 114.82027 78.335105 114.726004 78.502875 114.558234 
C 78.670645 114.390464 78.764911 114.162887 78.764911 113.925624 
C 78.764911 113.688361 78.670645 113.460784 78.502875 113.293014 
C 78.335105 113.125244 78.107528 113.030979 77.870265 113.030979 
C 77.633002 113.030979 77.405425 113.125244 77.237655 113.293014 
C 77.069885 113.460784 76.97562 113.688361 76.97562 113.925624 
C 76.97562 114.162887 77.069885 114.390464 77.237655 114.558234 
C 77.405425 114.726004 77.633002 114.82027 77.870265 114.82027 
z
" clip-path="url(#pc5506fde03)" style="stroke: #000000"/>
    <path d="M 78.253041 98.758209 
C 78.490303 98.758209 78.71788 98.663943 78.885651 98.496173 
C 79.053421 98.328403 79.147686 98.100826 79.147686 97.863563 
C 79.147686 97.6263 79.053421 97.398723 78.885651 97.230953 
C 78.71788 97.063183 78.490303 96.968918 78.253041 96.968918 
C 78.015778 96.968918 77.788201 97.063183 77.620431 97.230953 
C 77.452661 97.398723 77.358395 97.6263 77.358395 97.863563 
C 77.358395 98.100826 77.452661 98.328403 77.620431 98.496173 
C 77.788201 98.663943 78.015778 98.758209 78.253041 98.758209 
z
" clip-path="url(#pc5506fde03)" style="stroke: #000000"/>
    <path d="M 73.247029 87.467397 
C 73.484292 87.467397 73.711869 87.373131 73.879639 87.205361 
C 74.047409 87.037591 74.141675 86.810014 74.141675 86.572751 
C 74.141675 86.335489 74.047409 86.107912 73.879639 85.940142 
C 73.711869 85.772371 73.484292 85.678106 73.247029 85.678106 
C 73.009767 85.678106 72.78219 85.772371 72.614419 85.940142 
C 72.446649 86.107912 72.352384 86.335489 72.352384 86.572751 
C 72.352384 86.810014 72.446649 87.037591 72.614419 87.205361 
C 72.78219 87.373131 73.009767 87.467397 73.247029 87.467397 
z
" clip-path="url(#pc5506fde03)" style="stroke: #000000"/>
    <path d="M 69.424257 78.375441 
C 69.66152 78.375441 69.889097 78.281175 70.056867 78.113405 
C 70.224637 77.945635 70.318903 77.718058 70.318903 77.480795 
C 70.318903 77.243532 70.224637 77.015955 70.056867 76.848185 
C 69.889097 76.680415 69.66152 76.58615 69.424257 76.58615 
C 69.186995 76.58615 68.959418 76.680415 68.791648 76.848185 
C 68.623877 77.015955 68.529612 77.243532 68.529612 77.480795 
C 68.529612 77.718058 68.623877 77.945635 68.791648 78.113405 
C 68.959418 78.281175 69.186995 78.375441 69.424257 78.375441 
z
" clip-path="url(#pc5506fde03)" style="stroke: #000000"/>
    <path d="M 65.989789 71.022289 
C 65.989789 71.022289 65.989789 71.022289 65.989789 71.022289 
C 65.989789 71.022289 65.989789 71.022289 65.989789 71.022289 
C 65.989789 71.022289 65.989789 71.022289 65.989789 71.022289 
C 65.989789 71.022289 65.989789 71.022289 65.989789 71.022289 
C 65.989789 71.022289 65.989789 71.022289 65.989789 71.022289 
C 65.989789 71.022289 65.989789 71.022289 65.989789 71.022289 
C 65.989789 71.022289 65.989789 71.022289 65.989789 71.022289 
C 65.989789 71.022289 65.989789 71.022289 65.989789 71.022289 
z
" clip-path="url(#pc5506fde03)" style="stroke: #000000"/>
    <path d="M 60.560665 57.646814 
C 60.774399 57.646814 60.979408 57.561896 61.130541 57.410763 
C 61.281674 57.25963 61.366592 57.054621 61.366592 56.840886 
C 61.366592 56.627152 61.281674 56.422143 61.130541 56.27101 
C 60.979408 56.119877 60.774399 56.034959 60.560665 56.034959 
C 60.34693 56.034959 60.141921 56.119877 59.990788 56.27101 
C 59.839655 56.422143 59.754737 56.627152 59.754737 56.840886 
C 59.754737 57.054621 59.839655 57.25963 59.990788 57.410763 
C 60.141921 57.561896 60.34693 57.646814 60.560665 57.646814 
z
" clip-path="url(#pc5506fde03)" style="stroke: #000000"/>
    <path d="M 59.95458 50.699497 
C 60.191843 50.699497 60.41942 50.605231 60.58719 50.437461 
C 60.75496 50.269691 60.849226 50.042114 60.849226 49.804851 
C 60.849226 49.567588 60.75496 49.340011 60.58719 49.172241 
C 60.41942 49.004471 60.191843 48.910206 59.95458 48.910206 
C 59.717318 48.910206 59.489741 49.004471 59.32197 49.172241 
C 59.1542 49.340011 59.059935 49.567588 59.059935 49.804851 
C 59.059935 50.042114 59.1542 50.269691 59.32197 50.437461 
C 59.489741 50.605231 59.717318 50.699497 59.95458 50.699497 
z
" clip-path="url(#pc5506fde03)" style="stroke: #000000"/>
    <path d="M 54.996627 36.844885 
C 55.23389 36.844885 55.461467 36.75062 55.629237 36.58285 
C 55.797007 36.41508 55.891273 36.187502 55.891273 35.95024 
C 55.891273 35.712977 55.797007 35.4854 55.629237 35.31763 
C 55.461467 35.14986 55.23389 35.055594 54.996627 35.055594 
C 54.759364 35.055594 54.531787 35.14986 54.364017 35.31763 
C 54.196247 35.4854 54.101982 35.712977 54.101982 35.95024 
C 54.101982 36.187502 54.196247 36.41508 54.364017 36.58285 
C 54.531787 36.75062 54.759364 36.844885 54.996627 36.844885 
z
" clip-path="url(#pc5506fde03)" style="stroke: #000000"/>
    <path d="M 89.035691 179.045092 
C 89.188205 179.045092 89.334492 178.984498 89.442335 178.876655 
C 89.550179 178.768812 89.610773 178.622524 89.610773 178.470011 
C 89.610773 178.317497 89.550179 178.17121 89.442335 178.063367 
C 89.334492 177.955523 89.188205 177.894929 89.035691 177.894929 
C 88.883178 177.894929 88.73689 177.955523 88.629047 178.063367 
C 88.521204 178.17121 88.46061 178.317497 88.46061 178.470011 
C 88.46061 178.622524 88.521204 178.768812 88.629047 178.876655 
C 88.73689 178.984498 88.883178 179.045092 89.035691 179.045092 
z
" clip-path="url(#pc5506fde03)" style="stroke: #000000"/>
    <path d="M 82.808848 165.874052 
C 83.046111 165.874052 83.273688 165.779787 83.441458 165.612017 
C 83.609228 165.444247 83.703494 165.21667 83.703494 164.979407 
C 83.703494 164.742144 83.609228 164.514567 83.441458 164.346797 
C 83.273688 164.179027 83.046111 164.084762 82.808848 164.084762 
C 82.571585 164.084762 82.344008 164.179027 82.176238 164.346797 
C 82.008468 164.514567 81.914203 164.742144 81.914203 164.979407 
C 81.914203 165.21667 82.008468 165.444247 82.176238 165.612017 
C 82.344008 165.779787 82.571585 165.874052 82.808848 165.874052 
z
" clip-path="url(#pc5506fde03)" style="stroke: #000000"/>
    <path d="M 85.116392 157.928528 
C 85.353654 157.928528 85.581231 157.834262 85.749001 157.666492 
C 85.916772 157.498722 86.011037 157.271145 86.011037 157.033882 
C 86.011037 156.796619 85.916772 156.569042 85.749001 156.401272 
C 85.581231 156.233502 85.353654 156.139237 85.116392 156.139237 
C 84.879129 156.139237 84.651552 156.233502 84.483782 156.401272 
C 84.316012 156.569042 84.221746 156.796619 84.221746 157.033882 
C 84.221746 157.271145 84.316012 157.498722 84.483782 157.666492 
C 84.651552 157.834262 84.879129 157.928528 85.116392 157.928528 
z
" clip-path="url(#pc5506fde03)" style="stroke: #000000"/>
    <path d="M 77.063755 144.333597 
C 77.063755 144.333597 77.063755 144.333597 77.063755 144.333597 
C 77.063755 144.333597 77.063755 144.333597 77.063755 144.333597 
C 77.063755 144.333597 77.063755 144.333597 77.063755 144.333597 
C 77.063755 144.333597 77.063755 144.333597 77.063755 144.333597 
C 77.063755 144.333597 77.063755 144.333597 77.063755 144.333597 
C 77.063755 144.333597 77.063755 144.333597 77.063755 144.333597 
C 77.063755 144.333597 77.063755 144.333597 77.063755 144.333597 
C 77.063755 144.333597 77.063755 144.333597 77.063755 144.333597 
z
" clip-path="url(#pc5506fde03)" style="stroke: #000000"/>
    <path d="M 78.420491 135.656226 
C 78.657754 135.656226 78.885331 135.561961 79.053101 135.394191 
C 79.220871 135.22642 79.315136 134.998843 79.315136 134.761581 
C 79.315136 134.524318 79.220871 134.296741 79.053101 134.128971 
C 78.885331 133.961201 78.657754 133.866935 78.420491 133.866935 
C 78.183228 133.866935 77.955651 133.961201 77.787881 134.128971 
C 77.620111 134.296741 77.525845 134.524318 77.525845 134.761581 
C 77.525845 134.998843 77.620111 135.22642 77.787881 135.394191 
C 77.955651 135.561961 78.183228 135.656226 78.420491 135.656226 
z
" clip-path="url(#pc5506fde03)" style="stroke: #000000"/>
    <path d="M 70.419294 120.497516 
C 70.655096 120.497516 70.881273 120.403831 71.04801 120.237093 
C 71.214748 120.070356 71.308433 119.844179 71.308433 119.608377 
C 71.308433 119.372574 71.214748 119.146398 71.04801 118.97966 
C 70.881273 118.812922 70.655096 118.719237 70.419294 118.719237 
C 70.183491 118.719237 69.957315 118.812922 69.790577 118.97966 
C 69.623839 119.146398 69.530154 119.372574 69.530154 119.608377 
C 69.530154 119.844179 69.623839 120.070356 69.790577 120.237093 
C 69.957315 120.403831 70.183491 120.497516 70.419294 120.497516 
z
" clip-path="url(#pc5506fde03)" style="stroke: #000000"/>
    <path d="M 71.866328 116.899521 
C 72.102131 116.899521 72.328307 116.805835 72.495045 116.639098 
C 72.661782 116.47236 72.755468 116.246183 72.755468 116.010381 
C 72.755468 115.774578 72.661782 115.548402 72.495045 115.381664 
C 72.328307 115.214926 72.102131 115.121241 71.866328 115.121241 
C 71.630525 115.121241 71.404349 115.214926 71.237611 115.381664 
C 71.070874 115.548402 70.977188 115.774578 70.977188 116.010381 
C 70.977188 116.246183 71.070874 116.47236 71.237611 116.639098 
C 71.404349 116.805835 71.630525 116.899521 71.866328 116.899521 
z
" clip-path="url(#pc5506fde03)" style="stroke: #000000"/>
    <path d="M 66.322101 104.51958 
C 66.559364 104.51958 66.786941 104.425315 66.954711 104.257545 
C 67.122481 104.089775 67.216747 103.862198 67.216747 103.624935 
C 67.216747 103.387672 67.122481 103.160095 66.954711 102.992325 
C 66.786941 102.824555 66.559364 102.730289 66.322101 102.730289 
C 66.084839 102.730289 65.857262 102.824555 65.689492 102.992325 
C 65.521721 103.160095 65.427456 103.387672 65.427456 103.624935 
C 65.427456 103.862198 65.521721 104.089775 65.689492 104.257545 
C 65.857262 104.425315 66.084839 104.51958 66.322101 104.51958 
z
" clip-path="url(#pc5506fde03)" style="stroke: #000000"/>
    <path d="M 55.536437 94.112532 
C 55.746099 94.112532 55.947201 94.029233 56.095454 93.88098 
C 56.243707 93.732727 56.327007 93.531624 56.327007 93.321963 
C 56.327007 93.112301 56.243707 92.911199 56.095454 92.762946 
C 55.947201 92.614693 55.746099 92.531393 55.536437 92.531393 
C 55.326776 92.531393 55.125673 92.614693 54.97742 92.762946 
C 54.829167 92.911199 54.745868 93.112301 54.745868 93.321963 
C 54.745868 93.531624 54.829167 93.732727 54.97742 93.88098 
C 55.125673 94.029233 55.326776 94.112532 55.536437 94.112532 
z
" clip-path="url(#pc5506fde03)" style="stroke: #000000"/>
    <path d="M 56.081709 86.554296 
C 56.318971 86.554296 56.546548 86.460031 56.714319 86.292261 
C 56.882089 86.124491 56.976354 85.896914 56.976354 85.659651 
C 56.976354 85.422388 56.882089 85.194811 56.714319 85.027041 
C 56.546548 84.859271 56.318971 84.765005 56.081709 84.765005 
C 55.844446 84.765005 55.616869 84.859271 55.449099 85.027041 
C 55.281329 85.194811 55.187063 85.422388 55.187063 85.659651 
C 55.187063 85.896914 55.281329 86.124491 55.449099 86.292261 
C 55.616869 86.460031 55.844446 86.554296 56.081709 86.554296 
z
" clip-path="url(#pc5506fde03)" style="stroke: #000000"/>
    <path d="M 53.777024 68.977586 
C 53.777024 68.977586 53.777024 68.977586 53.777024 68.977586 
C 53.777024 68.977586 53.777024 68.977586 53.777024 68.977586 
C 53.777024 68.977586 53.777024 68.977586 53.777024 68.977586 
C 53.777024 68.977586 53.777024 68.977586 53.777024 68.977586 
C 53.777024 68.977586 53.777024 68.977586 53.777024 68.977586 
C 53.777024 68.977586 53.777024 68.977586 53.777024 68.977586 
C 53.777024 68.977586 53.777024 68.977586 53.777024 68.977586 
C 53.777024 68.977586 53.777024 68.977586 53.777024 68.977586 
z
" clip-path="url(#pc5506fde03)" style="stroke: #000000"/>
    <path d="M 50.511828 62.714523 
C 50.749091 62.714523 50.976668 62.620258 51.144438 62.452488 
C 51.312208 62.284718 51.406474 62.057141 51.406474 61.819878 
C 51.406474 61.582615 51.312208 61.355038 51.144438 61.187268 
C 50.976668 61.019498 50.749091 60.925232 50.511828 60.925232 
C 50.274565 60.925232 50.046988 61.019498 49.879218 61.187268 
C 49.711448 61.355038 49.617183 61.582615 49.617183 61.819878 
C 49.617183 62.057141 49.711448 62.284718 49.879218 62.452488 
C 50.046988 62.620258 50.274565 62.714523 50.511828 62.714523 
z
" clip-path="url(#pc5506fde03)" style="stroke: #000000"/>
    <path d="M 43.81861 54.756705 
C 44.019329 54.756705 44.211854 54.676959 44.353784 54.535029 
C 44.495714 54.393099 44.57546 54.200574 44.57546 53.999855 
C 44.57546 53.799136 44.495714 53.606611 44.353784 53.464681 
C 44.211854 53.322752 44.019329 53.243005 43.81861 53.243005 
C 43.617891 53.243005 43.425366 53.322752 43.283437 53.464681 
C 43.141507 53.606611 43.06176 53.799136 43.06176 53.999855 
C 43.06176 54.200574 43.141507 54.393099 43.283437 54.535029 
C 43.425366 54.676959 43.617891 54.756705 43.81861 54.756705 
z
" clip-path="url(#pc5506fde03)" style="stroke: #000000"/>
    <path d="M 46.592359 40.056613 
C 46.829622 40.056613 47.057199 39.962348 47.224969 39.794578 
C 47.392739 39.626808 47.487005 39.399231 47.487005 39.161968 
C 47.487005 38.924705 47.392739 38.697128 47.224969 38.529358 
C 47.057199 38.361588 46.829622 38.267322 46.592359 38.267322 
C 46.355097 38.267322 46.12752 38.361588 45.959749 38.529358 
C 45.791979 38.697128 45.697714 38.924705 45.697714 39.161968 
C 45.697714 39.399231 45.791979 39.626808 45.959749 39.794578 
C 46.12752 39.962348 46.355097 40.056613 46.592359 40.056613 
z
" clip-path="url(#pc5506fde03)" style="stroke: #000000"/>
    <path d="M 77.58163 178.689751 
C 77.817433 178.689751 78.043609 178.596066 78.210347 178.429328 
C 78.377085 178.26259 78.47077 178.036414 78.47077 177.800611 
C 78.47077 177.564809 78.377085 177.338632 78.210347 177.171895 
C 78.043609 177.005157 77.817433 176.911472 77.58163 176.911472 
C 77.345828 176.911472 77.119651 177.005157 76.952914 177.171895 
C 76.786176 177.338632 76.692491 177.564809 76.692491 177.800611 
C 76.692491 178.036414 76.786176 178.26259 76.952914 178.429328 
C 77.119651 178.596066 77.345828 178.689751 77.58163 178.689751 
z
" clip-path="url(#pc5506fde03)" style="stroke: #000000"/>
    <path d="M 73.126297 166.128533 
C 73.363559 166.128533 73.591137 166.034267 73.758907 165.866497 
C 73.926677 165.698727 74.020942 165.47115 74.020942 165.233887 
C 74.020942 164.996624 73.926677 164.769047 73.758907 164.601277 
C 73.591137 164.433507 73.363559 164.339242 73.126297 164.339242 
C 72.889034 164.339242 72.661457 164.433507 72.493687 164.601277 
C 72.325917 164.769047 72.231651 164.996624 72.231651 165.233887 
C 72.231651 165.47115 72.325917 165.698727 72.493687 165.866497 
C 72.661457 166.034267 72.889034 166.128533 73.126297 166.128533 
z
" clip-path="url(#pc5506fde03)" style="stroke: #000000"/>
    <path d="M 75.343425 160.014832 
C 75.580688 160.014832 75.808265 159.920566 75.976035 159.752796 
C 76.143805 159.585026 76.238071 159.357449 76.238071 159.120186 
C 76.238071 158.882923 76.143805 158.655346 75.976035 158.487576 
C 75.808265 158.319806 75.580688 158.225541 75.343425 158.225541 
C 75.106162 158.225541 74.878585 158.319806 74.710815 158.487576 
C 74.543045 158.655346 74.44878 158.882923 74.44878 159.120186 
C 74.44878 159.357449 74.543045 159.585026 74.710815 159.752796 
C 74.878585 159.920566 75.106162 160.014832 75.343425 160.014832 
z
" clip-path="url(#pc5506fde03)" style="stroke: #000000"/>
    <path d="M 68.32851 146.707436 
C 68.32851 146.707436 68.32851 146.707436 68.32851 146.707436 
C 68.32851 146.707436 68.32851 146.707436 68.32851 146.707436 
C 68.32851 146.707436 68.32851 146.707436 68.32851 146.707436 
C 68.32851 146.707436 68.32851 146.707436 68.32851 146.707436 
C 68.32851 146.707436 68.32851 146.707436 68.32851 146.707436 
C 68.32851 146.707436 68.32851 146.707436 68.32851 146.707436 
C 68.32851 146.707436 68.32851 146.707436 68.32851 146.707436 
C 68.32851 146.707436 68.32851 146.707436 68.32851 146.707436 
z
" clip-path="url(#pc5506fde03)" style="stroke: #000000"/>
    <path d="M 65.856443 139.386729 
C 66.027202 139.386729 66.190989 139.318886 66.311734 139.198142 
C 66.432478 139.077397 66.500321 138.91361 66.500321 138.742852 
C 66.500321 138.572093 66.432478 138.408306 66.311734 138.287562 
C 66.190989 138.166817 66.027202 138.098974 65.856443 138.098974 
C 65.685685 138.098974 65.521898 138.166817 65.401153 138.287562 
C 65.280409 138.408306 65.212566 138.572093 65.212566 138.742852 
C 65.212566 138.91361 65.280409 139.077397 65.401153 139.198142 
C 65.521898 139.318886 65.685685 139.386729 65.856443 139.386729 
z
" clip-path="url(#pc5506fde03)" style="stroke: #000000"/>
    <path d="M 64.425851 125.880971 
C 64.663114 125.880971 64.890691 125.786706 65.058461 125.618936 
C 65.226231 125.451165 65.320496 125.223588 65.320496 124.986326 
C 65.320496 124.749063 65.226231 124.521486 65.058461 124.353716 
C 64.890691 124.185946 64.663114 124.09168 64.425851 124.09168 
C 64.188588 124.09168 63.961011 124.185946 63.793241 124.353716 
C 63.625471 124.521486 63.531205 124.749063 63.531205 124.986326 
C 63.531205 125.223588 63.625471 125.451165 63.793241 125.618936 
C 63.961011 125.786706 64.188588 125.880971 64.425851 125.880971 
z
" clip-path="url(#pc5506fde03)" style="stroke: #000000"/>
    <path d="M 57.529914 115.416312 
C 57.765717 115.416312 57.991894 115.322627 58.158631 115.155889 
C 58.325369 114.989151 58.419054 114.762975 58.419054 114.527172 
C 58.419054 114.29137 58.325369 114.065193 58.158631 113.898456 
C 57.991894 113.731718 57.765717 113.638033 57.529914 113.638033 
C 57.294112 113.638033 57.067935 113.731718 56.901198 113.898456 
C 56.73446 114.065193 56.640775 114.29137 56.640775 114.527172 
C 56.640775 114.762975 56.73446 114.989151 56.901198 115.155889 
C 57.067935 115.322627 57.294112 115.416312 57.529914 115.416312 
z
" clip-path="url(#pc5506fde03)" style="stroke: #000000"/>
    <path d="M 54.276873 105.235153 
C 54.511188 105.235153 54.735937 105.142059 54.901623 104.976373 
C 55.067309 104.810688 55.160403 104.585938 55.160403 104.351623 
C 55.160403 104.117309 55.067309 103.892559 54.901623 103.726874 
C 54.735937 103.561188 54.511188 103.468094 54.276873 103.468094 
C 54.042558 103.468094 53.817809 103.561188 53.652123 103.726874 
C 53.486438 103.892559 53.393343 104.117309 53.393343 104.351623 
C 53.393343 104.585938 53.486438 104.810688 53.652123 104.976373 
C 53.817809 105.142059 54.042558 105.235153 54.276873 105.235153 
z
" clip-path="url(#pc5506fde03)" style="stroke: #000000"/>
    <path d="M 50.978081 92.596175 
C 51.215344 92.596175 51.442921 92.501909 51.610691 92.334139 
C 51.778461 92.166369 51.872727 91.938792 51.872727 91.701529 
C 51.872727 91.464266 51.778461 91.236689 51.610691 91.068919 
C 51.442921 90.901149 51.215344 90.806884 50.978081 90.806884 
C 50.740818 90.806884 50.513241 90.901149 50.345471 91.068919 
C 50.177701 91.236689 50.083436 91.464266 50.083436 91.701529 
C 50.083436 91.938792 50.177701 92.166369 50.345471 92.334139 
C 50.513241 92.501909 50.740818 92.596175 50.978081 92.596175 
z
" clip-path="url(#pc5506fde03)" style="stroke: #000000"/>
    <path d="M 45.104228 88.24787 
C 45.197992 88.24787 45.287927 88.210618 45.354228 88.144317 
C 45.420529 88.078016 45.457782 87.988081 45.457782 87.894317 
C 45.457782 87.800554 45.420529 87.710618 45.354228 87.644317 
C 45.287927 87.578016 45.197992 87.540764 45.104228 87.540764 
C 45.010465 87.540764 44.920529 87.578016 44.854228 87.644317 
C 44.787927 87.710618 44.750675 87.800554 44.750675 87.894317 
C 44.750675 87.988081 44.787927 88.078016 44.854228 88.144317 
C 44.920529 88.210618 45.010465 88.24787 45.104228 88.24787 
z
" clip-path="url(#pc5506fde03)" style="stroke: #000000"/>
    <path d="M 42.822745 74.129187 
C 43.036479 74.129187 43.241488 74.044269 43.392622 73.893136 
C 43.543755 73.742003 43.628672 73.536994 43.628672 73.323259 
C 43.628672 73.109525 43.543755 72.904516 43.392622 72.753382 
C 43.241488 72.602249 43.036479 72.517332 42.822745 72.517332 
C 42.60901 72.517332 42.404001 72.602249 42.252868 72.753382 
C 42.101735 72.904516 42.016817 73.109525 42.016817 73.323259 
C 42.016817 73.536994 42.101735 73.742003 42.252868 73.893136 
C 42.404001 74.044269 42.60901 74.129187 42.822745 74.129187 
z
" clip-path="url(#pc5506fde03)" style="stroke: #000000"/>
    <path d="M 39.317103 66.122149 
C 39.317103 66.122149 39.317103 66.122149 39.317103 66.122149 
C 39.317103 66.122149 39.317103 66.122149 39.317103 66.122149 
C 39.317103 66.122149 39.317103 66.122149 39.317103 66.122149 
C 39.317103 66.122149 39.317103 66.122149 39.317103 66.122149 
C 39.317103 66.122149 39.317103 66.122149 39.317103 66.122149 
C 39.317103 66.122149 39.317103 66.122149 39.317103 66.122149 
C 39.317103 66.122149 39.317103 66.122149 39.317103 66.122149 
C 39.317103 66.122149 39.317103 66.122149 39.317103 66.122149 
z
" clip-path="url(#pc5506fde03)" style="stroke: #000000"/>
    <path d="M 37.228469 58.420322 
C 37.426754 58.420322 37.616945 58.341543 37.757154 58.201334 
C 37.897363 58.061125 37.976143 57.870934 37.976143 57.672648 
C 37.976143 57.474362 37.897363 57.284171 37.757154 57.143962 
C 37.616945 57.003753 37.426754 56.924974 37.228469 56.924974 
C 37.030183 56.924974 36.839992 57.003753 36.699783 57.143962 
C 36.559574 57.284171 36.480794 57.474362 36.480794 57.672648 
C 36.480794 57.870934 36.559574 58.061125 36.699783 58.201334 
C 36.839992 58.341543 37.030183 58.420322 37.228469 58.420322 
z
" clip-path="url(#pc5506fde03)" style="stroke: #000000"/>
    <path d="M 65.952728 171.602917 
C 66.153447 171.602917 66.345972 171.523171 66.487902 171.381241 
C 66.629832 171.239311 66.709578 171.046786 66.709578 170.846067 
C 66.709578 170.645348 66.629832 170.452823 66.487902 170.310894 
C 66.345972 170.168964 66.153447 170.089217 65.952728 170.089217 
C 65.752009 170.089217 65.559484 170.168964 65.417554 170.310894 
C 65.275625 170.452823 65.195878 170.645348 65.195878 170.846067 
C 65.195878 171.046786 65.275625 171.239311 65.417554 171.381241 
C 65.559484 171.523171 65.752009 171.602917 65.952728 171.602917 
z
" clip-path="url(#pc5506fde03)" style="stroke: #000000"/>
    <path d="M 64.932066 161.768794 
C 65.169329 161.768794 65.396906 161.674529 65.564676 161.506759 
C 65.732446 161.338989 65.826712 161.111412 65.826712 160.874149 
C 65.826712 160.636886 65.732446 160.409309 65.564676 160.241539 
C 65.396906 160.073769 65.169329 159.979504 64.932066 159.979504 
C 64.694804 159.979504 64.467227 160.073769 64.299456 160.241539 
C 64.131686 160.409309 64.037421 160.636886 64.037421 160.874149 
C 64.037421 161.111412 64.131686 161.338989 64.299456 161.506759 
C 64.467227 161.674529 64.694804 161.768794 64.932066 161.768794 
z
" clip-path="url(#pc5506fde03)" style="stroke: #000000"/>
    <path d="M 59.692335 149.915203 
C 59.929598 149.915203 60.157175 149.820937 60.324945 149.653167 
C 60.492715 149.485397 60.586981 149.25782 60.586981 149.020557 
C 60.586981 148.783295 60.492715 148.555718 60.324945 148.387948 
C 60.157175 148.220177 59.929598 148.125912 59.692335 148.125912 
C 59.455073 148.125912 59.227495 148.220177 59.059725 148.387948 
C 58.891955 148.555718 58.79769 148.783295 58.79769 149.020557 
C 58.79769 149.25782 58.891955 149.485397 59.059725 149.653167 
C 59.227495 149.820937 59.455073 149.915203 59.692335 149.915203 
z
" clip-path="url(#pc5506fde03)" style="stroke: #000000"/>
    <path d="M 50.370651 139.885902 
C 50.584385 139.885902 50.789394 139.800984 50.940527 139.649851 
C 51.09166 139.498718 51.176578 139.293709 51.176578 139.079974 
C 51.176578 138.86624 51.09166 138.661231 50.940527 138.510098 
C 50.789394 138.358965 50.584385 138.274047 50.370651 138.274047 
C 50.156916 138.274047 49.951907 138.358965 49.800774 138.510098 
C 49.649641 138.661231 49.564723 138.86624 49.564723 139.079974 
C 49.564723 139.293709 49.649641 139.498718 49.800774 139.649851 
C 49.951907 139.800984 50.156916 139.885902 50.370651 139.885902 
z
" clip-path="url(#pc5506fde03)" style="stroke: #000000"/>
    <path d="M 51.441187 131.345585 
C 51.678449 131.345585 51.906026 131.251319 52.073796 131.083549 
C 52.241567 130.915779 52.335832 130.688202 52.335832 130.450939 
C 52.335832 130.213677 52.241567 129.9861 52.073796 129.81833 
C 51.906026 129.650559 51.678449 129.556294 51.441187 129.556294 
C 51.203924 129.556294 50.976347 129.650559 50.808577 129.81833 
C 50.640807 129.9861 50.546541 130.213677 50.546541 130.450939 
C 50.546541 130.688202 50.640807 130.915779 50.808577 131.083549 
C 50.976347 131.251319 51.203924 131.345585 51.441187 131.345585 
z
" clip-path="url(#pc5506fde03)" style="stroke: #000000"/>
    <path d="M 46.511501 120.498185 
C 46.748764 120.498185 46.976341 120.40392 47.144111 120.236149 
C 47.311881 120.068379 47.406147 119.840802 47.406147 119.60354 
C 47.406147 119.366277 47.311881 119.1387 47.144111 118.97093 
C 46.976341 118.80316 46.748764 118.708894 46.511501 118.708894 
C 46.274238 118.708894 46.046661 118.80316 45.878891 118.97093 
C 45.711121 119.1387 45.616856 119.366277 45.616856 119.60354 
C 45.616856 119.840802 45.711121 120.068379 45.878891 120.236149 
C 46.046661 120.40392 46.274238 120.498185 46.511501 120.498185 
z
" clip-path="url(#pc5506fde03)" style="stroke: #000000"/>
    <path d="M 43.490778 109.509848 
C 43.72804 109.509848 43.955617 109.415582 44.123388 109.247812 
C 44.291158 109.080042 44.385423 108.852465 44.385423 108.615202 
C 44.385423 108.37794 44.291158 108.150362 44.123388 107.982592 
C 43.955617 107.814822 43.72804 107.720557 43.490778 107.720557 
C 43.253515 107.720557 43.025938 107.814822 42.858168 107.982592 
C 42.690398 108.150362 42.596132 108.37794 42.596132 108.615202 
C 42.596132 108.852465 42.690398 109.080042 42.858168 109.247812 
C 43.025938 109.415582 43.253515 109.509848 43.490778 109.509848 
z
" clip-path="url(#pc5506fde03)" style="stroke: #000000"/>
    <path d="M 41.314918 100.655946 
C 41.547716 100.655946 41.771011 100.563454 41.935624 100.398841 
C 42.100237 100.234228 42.192728 100.010933 42.192728 99.778135 
C 42.192728 99.545337 42.100237 99.322042 41.935624 99.157429 
C 41.771011 98.992816 41.547716 98.900324 41.314918 98.900324 
C 41.08212 98.900324 40.858825 98.992816 40.694212 99.157429 
C 40.529599 99.322042 40.437107 99.545337 40.437107 99.778135 
C 40.437107 100.010933 40.529599 100.234228 40.694212 100.398841 
C 40.858825 100.563454 41.08212 100.655946 41.314918 100.655946 
z
" clip-path="url(#pc5506fde03)" style="stroke: #000000"/>
    <path d="M 37.310922 90.826197 
C 37.548185 90.826197 37.775762 90.731932 37.943532 90.564162 
C 38.111302 90.396391 38.205568 90.168814 38.205568 89.931552 
C 38.205568 89.694289 38.111302 89.466712 37.943532 89.298942 
C 37.775762 89.131172 37.548185 89.036906 37.310922 89.036906 
C 37.073659 89.036906 36.846082 89.131172 36.678312 89.298942 
C 36.510542 89.466712 36.416277 89.694289 36.416277 89.931552 
C 36.416277 90.168814 36.510542 90.396391 36.678312 90.564162 
C 36.846082 90.731932 37.073659 90.826197 37.310922 90.826197 
z
" clip-path="url(#pc5506fde03)" style="stroke: #000000"/>
    <path d="M 35.671193 80.638719 
C 35.884927 80.638719 36.089936 80.553802 36.241069 80.402669 
C 36.392202 80.251536 36.47712 80.046526 36.47712 79.832792 
C 36.47712 79.619057 36.392202 79.414048 36.241069 79.262915 
C 36.089936 79.111782 35.884927 79.026864 35.671193 79.026864 
C 35.457458 79.026864 35.252449 79.111782 35.101316 79.262915 
C 34.950183 79.414048 34.865265 79.619057 34.865265 79.832792 
C 34.865265 80.046526 34.950183 80.251536 35.101316 80.402669 
C 35.252449 80.553802 35.457458 80.638719 35.671193 80.638719 
z
" clip-path="url(#pc5506fde03)" style="stroke: #000000"/>
    <path d="M 59.32968 176.344302 
C 59.566943 176.344302 59.79452 176.250036 59.96229 176.082266 
C 60.13006 175.914496 60.224326 175.686919 60.224326 175.449656 
C 60.224326 175.212394 60.13006 174.984817 59.96229 174.817046 
C 59.79452 174.649276 59.566943 174.555011 59.32968 174.555011 
C 59.092417 174.555011 58.86484 174.649276 58.69707 174.817046 
C 58.5293 174.984817 58.435035 175.212394 58.435035 175.449656 
C 58.435035 175.686919 58.5293 175.914496 58.69707 176.082266 
C 58.86484 176.250036 59.092417 176.344302 59.32968 176.344302 
z
" clip-path="url(#pc5506fde03)" style="stroke: #000000"/>
    <path d="M 49.422006 167.524277 
C 49.659269 167.524277 49.886846 167.430011 50.054616 167.262241 
C 50.222386 167.094471 50.316652 166.866894 50.316652 166.629631 
C 50.316652 166.392368 50.222386 166.164791 50.054616 165.997021 
C 49.886846 165.829251 49.659269 165.734986 49.422006 165.734986 
C 49.184744 165.734986 48.957167 165.829251 48.789397 165.997021 
C 48.621626 166.164791 48.527361 166.392368 48.527361 166.629631 
C 48.527361 166.866894 48.621626 167.094471 48.789397 167.262241 
C 48.957167 167.430011 49.184744 167.524277 49.422006 167.524277 
z
" clip-path="url(#pc5506fde03)" style="stroke: #000000"/>
    <path d="M 40.597044 155.43234 
C 40.834307 155.43234 41.061884 155.338074 41.229654 155.170304 
C 41.397424 155.002534 41.49169 154.774957 41.49169 154.537694 
C 41.49169 154.300431 41.397424 154.072854 41.229654 153.905084 
C 41.061884 153.737314 40.834307 153.643049 40.597044 153.643049 
C 40.359782 153.643049 40.132205 153.737314 39.964435 153.905084 
C 39.796664 154.072854 39.702399 154.300431 39.702399 154.537694 
C 39.702399 154.774957 39.796664 155.002534 39.964435 155.170304 
C 40.132205 155.338074 40.359782 155.43234 40.597044 155.43234 
z
" clip-path="url(#pc5506fde03)" style="stroke: #000000"/>
    <path d="M 42.101581 146.112722 
C 42.338843 146.112722 42.56642 146.018456 42.73419 145.850686 
C 42.901961 145.682916 42.996226 145.455339 42.996226 145.218076 
C 42.996226 144.980813 42.901961 144.753236 42.73419 144.585466 
C 42.56642 144.417696 42.338843 144.323431 42.101581 144.323431 
C 41.864318 144.323431 41.636741 144.417696 41.468971 144.585466 
C 41.301201 144.753236 41.206935 144.980813 41.206935 145.218076 
C 41.206935 145.455339 41.301201 145.682916 41.468971 145.850686 
C 41.636741 146.018456 41.864318 146.112722 42.101581 146.112722 
z
" clip-path="url(#pc5506fde03)" style="stroke: #000000"/>
    <path d="M 41.237228 134.166174 
C 41.237228 134.166174 41.237228 134.166174 41.237228 134.166174 
C 41.237228 134.166174 41.237228 134.166174 41.237228 134.166174 
C 41.237228 134.166174 41.237228 134.166174 41.237228 134.166174 
C 41.237228 134.166174 41.237228 134.166174 41.237228 134.166174 
C 41.237228 134.166174 41.237228 134.166174 41.237228 134.166174 
C 41.237228 134.166174 41.237228 134.166174 41.237228 134.166174 
C 41.237228 134.166174 41.237228 134.166174 41.237228 134.166174 
C 41.237228 134.166174 41.237228 134.166174 41.237228 134.166174 
z
" clip-path="url(#pc5506fde03)" style="stroke: #000000"/>
    <path d="M 35.875398 121.265464 
C 35.875398 121.265464 35.875398 121.265464 35.875398 121.265464 
C 35.875398 121.265464 35.875398 121.265464 35.875398 121.265464 
C 35.875398 121.265464 35.875398 121.265464 35.875398 121.265464 
C 35.875398 121.265464 35.875398 121.265464 35.875398 121.265464 
C 35.875398 121.265464 35.875398 121.265464 35.875398 121.265464 
C 35.875398 121.265464 35.875398 121.265464 35.875398 121.265464 
C 35.875398 121.265464 35.875398 121.265464 35.875398 121.265464 
C 35.875398 121.265464 35.875398 121.265464 35.875398 121.265464 
z
" clip-path="url(#pc5506fde03)" style="stroke: #000000"/>
    <path d="M 33.954495 114.54733 
C 34.191758 114.54733 34.419335 114.453065 34.587105 114.285295 
C 34.754875 114.117524 34.849141 113.889947 34.849141 113.652685 
C 34.849141 113.415422 34.754875 113.187845 34.587105 113.020075 
C 34.419335 112.852305 34.191758 112.758039 33.954495 112.758039 
C 33.717232 112.758039 33.489655 112.852305 33.321885 113.020075 
C 33.154115 113.187845 33.05985 113.415422 33.05985 113.652685 
C 33.05985 113.889947 33.154115 114.117524 33.321885 114.285295 
C 33.489655 114.453065 33.717232 114.54733 33.954495 114.54733 
z
" clip-path="url(#pc5506fde03)" style="stroke: #000000"/>
    <path d="M 38.853912 167.833434 
C 39.031953 167.833434 39.202725 167.762698 39.328619 167.636804 
C 39.454513 167.51091 39.525249 167.340138 39.525249 167.162097 
C 39.525249 166.984056 39.454513 166.813283 39.328619 166.68739 
C 39.202725 166.561496 39.031953 166.490759 38.853912 166.490759 
C 38.675871 166.490759 38.505098 166.561496 38.379205 166.68739 
C 38.253311 166.813283 38.182574 166.984056 38.182574 167.162097 
C 38.182574 167.340138 38.253311 167.51091 38.379205 167.636804 
C 38.505098 167.762698 38.675871 167.833434 38.853912 167.833434 
z
" clip-path="url(#pc5506fde03)" style="stroke: #000000"/>
    <path d="M 36.240473 162.772019 
C 36.433604 162.772019 36.618851 162.695287 36.755415 162.558723 
C 36.891979 162.422159 36.968711 162.236912 36.968711 162.043781 
C 36.968711 161.85065 36.891979 161.665404 36.755415 161.52884 
C 36.618851 161.392275 36.433604 161.315544 36.240473 161.315544 
C 36.047343 161.315544 35.862096 161.392275 35.725532 161.52884 
C 35.588968 161.665404 35.512236 161.85065 35.512236 162.043781 
C 35.512236 162.236912 35.588968 162.422159 35.725532 162.558723 
C 35.862096 162.695287 36.047343 162.772019 36.240473 162.772019 
z
" clip-path="url(#pc5506fde03)" style="stroke: #000000"/>
    <path d="M 30.189754 149.912221 
C 30.427017 149.912221 30.654594 149.817956 30.822364 149.650186 
C 30.990134 149.482416 31.0844 149.254838 31.0844 149.017576 
C 31.0844 148.780313 30.990134 148.552736 30.822364 148.384966 
C 30.654594 148.217196 30.427017 148.12293 30.189754 148.12293 
C 29.952492 148.12293 29.724915 148.217196 29.557144 148.384966 
C 29.389374 148.552736 29.295109 148.780313 29.295109 149.017576 
C 29.295109 149.254838 29.389374 149.482416 29.557144 149.650186 
C 29.724915 149.817956 29.952492 149.912221 30.189754 149.912221 
z
" clip-path="url(#pc5506fde03)" style="stroke: #000000"/>
    <path d="M 26.875784 135.30768 
C 27.113047 135.30768 27.340624 135.213414 27.508394 135.045644 
C 27.676164 134.877874 27.77043 134.650297 27.77043 134.413034 
C 27.77043 134.175771 27.676164 133.948194 27.508394 133.780424 
C 27.340624 133.612654 27.113047 133.518389 26.875784 133.518389 
C 26.638521 133.518389 26.410944 133.612654 26.243174 133.780424 
C 26.075404 133.948194 25.981139 134.175771 25.981139 134.413034 
C 25.981139 134.650297 26.075404 134.877874 26.243174 135.045644 
C 26.410944 135.213414 26.638521 135.30768 26.875784 135.30768 
z
" clip-path="url(#pc5506fde03)" style="stroke: #000000"/>
   </g>
   <g id="matplotlib.axis_1">
    <g id="xtick_1">
     <g id="line2d_1">
      <defs>
       <path id="m1f0c22e466" d="M 0 0 
L 0 3.5 
" style="stroke: #000000; stroke-width: 0.8"/>
      </defs>
      <g>
       <use xlink:href="#m1f0c22e466" x="18" y="189" style="stroke: #000000; stroke-width: 0.8"/>
      </g>
     </g>
     <g id="text_1">
      <!-- 10 -->
      <g transform="translate(7.447656 203.598437)scale(0.1 -0.1)">
       <defs>
        <path id="DejaVuSans-2212" d="M 678 2272 
L 4684 2272 
L 4684 1741 
L 678 1741 
L 678 2272 
z
" transform="scale(0.015625)"/>
        <path id="DejaVuSans-31" d="M 794 531 
L 1825 531 
L 1825 4091 
L 703 3866 
L 703 4441 
L 1819 4666 
L 2450 4666 
L 2450 531 
L 3481 531 
L 3481 0 
L 794 0 
L 794 531 
z
" transform="scale(0.015625)"/>
        <path id="DejaVuSans-30" d="M 2034 4250 
Q 1547 4250 1301 3770 
Q 1056 3291 1056 2328 
Q 1056 1369 1301 889 
Q 1547 409 2034 409 
Q 2525 409 2770 889 
Q 3016 1369 3016 2328 
Q 3016 3291 2770 3770 
Q 2525 4250 2034 4250 
z
M 2034 4750 
Q 2819 4750 3233 4129 
Q 3647 3509 3647 2328 
Q 3647 1150 3233 529 
Q 2819 -91 2034 -91 
Q 1250 -91 836 529 
Q 422 1150 422 2328 
Q 422 3509 836 4129 
Q 1250 4750 2034 4750 
z
" transform="scale(0.015625)"/>
       </defs>
       <use xlink:href="#DejaVuSans-2212"/>
       <use xlink:href="#DejaVuSans-31" x="83.789062"/>
       <use xlink:href="#DejaVuSans-30" x="147.412109"/>
      </g>
     </g>
    </g>
    <g id="xtick_2">
     <g id="line2d_2">
      <g>
       <use xlink:href="#m1f0c22e466" x="73.8" y="189" style="stroke: #000000; stroke-width: 0.8"/>
      </g>
     </g>
     <g id="text_2">
      <!-- 0 -->
      <g transform="translate(70.61875 203.598437)scale(0.1 -0.1)">
       <use xlink:href="#DejaVuSans-30"/>
      </g>
     </g>
    </g>
    <g id="xtick_3">
     <g id="line2d_3">
      <g>
       <use xlink:href="#m1f0c22e466" x="129.6" y="189" style="stroke: #000000; stroke-width: 0.8"/>
      </g>
     </g>
     <g id="text_3">
      <!-- 10 -->
      <g transform="translate(123.2375 203.598437)scale(0.1 -0.1)">
       <use xlink:href="#DejaVuSans-31"/>
       <use xlink:href="#DejaVuSans-30" x="63.623047"/>
      </g>
     </g>
    </g>
   </g>
   <g id="matplotlib.axis_2">
    <g id="ytick_1">
     <g id="line2d_4">
      <defs>
       <path id="m28b680c41f" d="M 0 0 
L -3.5 0 
" style="stroke: #000000; stroke-width: 0.8"/>
      </defs>
      <g>
       <use xlink:href="#m28b680c41f" x="18" y="189" style="stroke: #000000; stroke-width: 0.8"/>
      </g>
     </g>
     <g id="text_4">
      <!-- 15 -->
      <g transform="translate(-10.104688 192.799219)scale(0.1 -0.1)">
       <defs>
        <path id="DejaVuSans-35" d="M 691 4666 
L 3169 4666 
L 3169 4134 
L 1269 4134 
L 1269 2991 
Q 1406 3038 1543 3061 
Q 1681 3084 1819 3084 
Q 2600 3084 3056 2656 
Q 3513 2228 3513 1497 
Q 3513 744 3044 326 
Q 2575 -91 1722 -91 
Q 1428 -91 1123 -41 
Q 819 9 494 109 
L 494 744 
Q 775 591 1075 516 
Q 1375 441 1709 441 
Q 2250 441 2565 725 
Q 2881 1009 2881 1497 
Q 2881 1984 2565 2268 
Q 2250 2553 1709 2553 
Q 1456 2553 1204 2497 
Q 953 2441 691 2322 
L 691 4666 
z
" transform="scale(0.015625)"/>
       </defs>
       <use xlink:href="#DejaVuSans-2212"/>
       <use xlink:href="#DejaVuSans-31" x="83.789062"/>
       <use xlink:href="#DejaVuSans-35" x="147.412109"/>
      </g>
     </g>
    </g>
    <g id="ytick_2">
     <g id="line2d_5">
      <g>
       <use xlink:href="#m28b680c41f" x="18" y="161.82" style="stroke: #000000; stroke-width: 0.8"/>
      </g>
     </g>
     <g id="text_5">
      <!-- 10 -->
      <g transform="translate(-10.104688 165.619219)scale(0.1 -0.1)">
       <use xlink:href="#DejaVuSans-2212"/>
       <use xlink:href="#DejaVuSans-31" x="83.789062"/>
       <use xlink:href="#DejaVuSans-30" x="147.412109"/>
      </g>
     </g>
    </g>
    <g id="ytick_3">
     <g id="line2d_6">
      <g>
       <use xlink:href="#m28b680c41f" x="18" y="134.64" style="stroke: #000000; stroke-width: 0.8"/>
      </g>
     </g>
     <g id="text_6">
      <!-- 5 -->
      <g transform="translate(-3.742188 138.439219)scale(0.1 -0.1)">
       <use xlink:href="#DejaVuSans-2212"/>
       <use xlink:href="#DejaVuSans-35" x="83.789062"/>
      </g>
     </g>
    </g>
    <g id="ytick_4">
     <g id="line2d_7">
      <g>
       <use xlink:href="#m28b680c41f" x="18" y="107.46" style="stroke: #000000; stroke-width: 0.8"/>
      </g>
     </g>
     <g id="text_7">
      <!-- 0 -->
      <g transform="translate(4.6375 111.259219)scale(0.1 -0.1)">
       <use xlink:href="#DejaVuSans-30"/>
      </g>
     </g>
    </g>
    <g id="ytick_5">
     <g id="line2d_8">
      <g>
       <use xlink:href="#m28b680c41f" x="18" y="80.28" style="stroke: #000000; stroke-width: 0.8"/>
      </g>
     </g>
     <g id="text_8">
      <!-- 5 -->
      <g transform="translate(4.6375 84.079219)scale(0.1 -0.1)">
       <use xlink:href="#DejaVuSans-35"/>
      </g>
     </g>
    </g>
    <g id="ytick_6">
     <g id="line2d_9">
      <g>
       <use xlink:href="#m28b680c41f" x="18" y="53.1" style="stroke: #000000; stroke-width: 0.8"/>
      </g>
     </g>
     <g id="text_9">
      <!-- 10 -->
      <g transform="translate(-1.725 56.899219)scale(0.1 -0.1)">
       <use xlink:href="#DejaVuSans-31"/>
       <use xlink:href="#DejaVuSans-30" x="63.623047"/>
      </g>
     </g>
    </g>
    <g id="ytick_7">
     <g id="line2d_10">
      <g>
       <use xlink:href="#m28b680c41f" x="18" y="25.92" style="stroke: #000000; stroke-width: 0.8"/>
      </g>
     </g>
     <g id="text_10">
      <!-- 15 -->
      <g transform="translate(-1.725 29.719219)scale(0.1 -0.1)">
       <use xlink:href="#DejaVuSans-31"/>
       <use xlink:href="#DejaVuSans-35" x="63.623047"/>
      </g>
     </g>
    </g>
   </g>
   <g id="patch_3">
    <path d="M 18 189 
L 18 25.92 
" style="fill: none; stroke: #000000; stroke-width: 0.8; stroke-linejoin: miter; stroke-linecap: square"/>
   </g>
   <g id="patch_4">
    <path d="M 129.6 189 
L 129.6 25.92 
" style="fill: none; stroke: #000000; stroke-width: 0.8; stroke-linejoin: miter; stroke-linecap: square"/>
   </g>
   <g id="patch_5">
    <path d="M 18 189 
L 129.6 189 
" style="fill: none; stroke: #000000; stroke-width: 0.8; stroke-linejoin: miter; stroke-linecap: square"/>
   </g>
   <g id="patch_6">
    <path d="M 18 25.92 
L 129.6 25.92 
" style="fill: none; stroke: #000000; stroke-width: 0.8; stroke-linejoin: miter; stroke-linecap: square"/>
   </g>
  </g>
 </g>
 <defs>
  <clipPath id="pc5506fde03">
   <rect x="18" y="25.92" width="111.6" height="163.08"/>
  </clipPath>
 </defs>
</svg>
