<?xml version="1.0" encoding="utf-8" standalone="no"?>
<!DOCTYPE svg PUBLIC "-//W3C//DTD SVG 1.1//EN"
  "http://www.w3.org/Graphics/SVG/1.1/DTD/svg11.dtd">
<svg xmlns:xlink="http://www.w3.org/1999/xlink" width="144pt" height="216pt" viewBox="0 0 144 216" xmlns="http://www.w3.org/2000/svg" version="1.1">
 <metadata>
  <rdf:RDF xmlns:dc="http://purl.org/dc/elements/1.1/" xmlns:cc="http://creativecommons.org/ns#" xmlns:rdf="http://www.w3.org/1999/02/22-rdf-syntax-ns#">
   <cc:Work>
    <dc:type rdf:resource="http://purl.org/dc/dcmitype/StillImage"/>
    <dc:date>2022-06-23T14:43:42.388201</dc:date>
    <dc:format>image/svg+xml</dc:format>
    <dc:creator>
     <cc:Agent>
      <dc:title>Matplotlib v3.5.1, https://matplotlib.org/</dc:title>
     </cc:Agent>
    </dc:creator>
   </cc:Work>
  </rdf:RDF>
 </metadata>
 <defs>
  <style type="text/css">*{stroke-linejoin: round; stroke-linecap: butt}</style>
 </defs>
 <g id="figure_1">
  <g id="patch_1">
   <path d="M 0 216 
L 144 216 
L 144 0 
L 0 0 
L 0 216 
z
" style="fill: none"/>
  </g>
  <g id="axes_1">
   <g id="patch_2">
    <path d="M 18 189 
L 129.6 189 
L 129.6 25.92 
L 18 25.92 
z
" style="fill: #ffffff"/>
   </g>
   <g id="PathCollection_1">
    <defs>
     <path id="m71934d9bff" d="M 0 2.738613 
C 0.726289 2.738613 1.422928 2.450055 1.936492 1.936492 
C 2.450055 1.422928 2.738613 0.726289 2.738613 0 
C 2.738613 -0.726289 2.450055 -1.422928 1.936492 -1.936492 
C 1.422928 -2.450055 0.726289 -2.738613 0 -2.738613 
C -0.726289 -2.738613 -1.422928 -2.450055 -1.936492 -1.936492 
C -2.450055 -1.422928 -2.738613 -0.726289 -2.738613 0 
C -2.738613 0.726289 -2.450055 1.422928 -1.936492 1.936492 
C -1.422928 2.450055 -0.726289 2.738613 0 2.738613 
z
" style="stroke: #ff0000; stroke-width: 1.75"/>
    </defs>
    <g clip-path="url(#p6e8d7cadd3)">
     <use xlink:href="#m71934d9bff" x="80.775" y="107.46" style="fill: #ff0000; stroke: #ff0000; stroke-width: 1.75"/>
     <use xlink:href="#m71934d9bff" x="94.725" y="107.46" style="fill: #ff0000; stroke: #ff0000; stroke-width: 1.75"/>
     <use xlink:href="#m71934d9bff" x="59.85" y="119.229285" style="fill: #ff0000; stroke: #ff0000; stroke-width: 1.75"/>
     <use xlink:href="#m71934d9bff" x="73.8" y="119.229285" style="fill: #ff0000; stroke: #ff0000; stroke-width: 1.75"/>
     <use xlink:href="#m71934d9bff" x="87.75" y="119.229285" style="fill: #ff0000; stroke: #ff0000; stroke-width: 1.75"/>
     <use xlink:href="#m71934d9bff" x="66.825" y="130.99857" style="fill: #ff0000; stroke: #ff0000; stroke-width: 1.75"/>
     <use xlink:href="#m71934d9bff" x="80.775" y="130.99857" style="fill: #ff0000; stroke: #ff0000; stroke-width: 1.75"/>
    </g>
   </g>
   <g id="PathCollection_2">
    <defs>
     <path id="C0_0_627cad3dd0" d="M 0 2.738613 
C 0.726289 2.738613 1.422928 2.450055 1.936492 1.936492 
C 2.450055 1.422928 2.738613 0.726289 2.738613 -0 
C 2.738613 -0.726289 2.450055 -1.422928 1.936492 -1.936492 
C 1.422928 -2.450055 0.726289 -2.738613 0 -2.738613 
C -0.726289 -2.738613 -1.422928 -2.450055 -1.936492 -1.936492 
C -2.450055 -1.422928 -2.738613 -0.726289 -2.738613 0 
C -2.738613 0.726289 -2.450055 1.422928 -1.936492 1.936492 
C -1.422928 2.450055 -0.726289 2.738613 0 2.738613 
z
"/>
    </defs>
    <g clip-path="url(#p6e8d7cadd3)">
     <use xlink:href="#C0_0_627cad3dd0" x="66.825" y="83.92143" style="fill: none; stroke: #ff0000; stroke-width: 1.75"/>
    </g>
    <g clip-path="url(#p6e8d7cadd3)">
     <use xlink:href="#C0_0_627cad3dd0" x="80.775" y="83.92143" style="fill: none; stroke: #ff0000; stroke-width: 1.75"/>
    </g>
    <g clip-path="url(#p6e8d7cadd3)">
     <use xlink:href="#C0_0_627cad3dd0" x="59.85" y="95.690715" style="fill: none; stroke: #ff0000; stroke-width: 1.75"/>
    </g>
    <g clip-path="url(#p6e8d7cadd3)">
     <use xlink:href="#C0_0_627cad3dd0" x="73.8" y="95.690715" style="fill: none; stroke: #ff0000; stroke-width: 1.75"/>
    </g>
    <g clip-path="url(#p6e8d7cadd3)">
     <use xlink:href="#C0_0_627cad3dd0" x="87.75" y="95.690715" style="fill: none; stroke: #ff0000; stroke-width: 1.75"/>
    </g>
    <g clip-path="url(#p6e8d7cadd3)">
     <use xlink:href="#C0_0_627cad3dd0" x="52.875" y="107.46" style="fill: none; stroke: #ff0000; stroke-width: 1.75"/>
    </g>
    <g clip-path="url(#p6e8d7cadd3)">
     <use xlink:href="#C0_0_627cad3dd0" x="66.825" y="107.46" style="fill: none; stroke: #ff0000; stroke-width: 1.75"/>
    </g>
   </g>
   <g id="PathCollection_3">
    <path d="M 110.88776 101.930992 
C 111.020361 101.930992 111.14755 101.878309 111.241313 101.784546 
C 111.335077 101.690782 111.38776 101.563594 111.38776 101.430992 
C 111.38776 101.298391 111.335077 101.171202 111.241313 101.077439 
C 111.14755 100.983676 111.020361 100.930992 110.88776 100.930992 
C 110.755158 100.930992 110.62797 100.983676 110.534206 101.077439 
C 110.440443 101.171202 110.38776 101.298391 110.38776 101.430992 
C 110.38776 101.563594 110.440443 101.690782 110.534206 101.784546 
C 110.62797 101.878309 110.755158 101.930992 110.88776 101.930992 
z
" clip-path="url(#p6e8d7cadd3)" style="stroke: #000000"/>
    <path d="M 98.065737 115.275289 
C 98.198339 115.275289 98.325527 115.222606 98.41929 115.128842 
C 98.513054 115.035079 98.565737 114.90789 98.565737 114.775289 
C 98.565737 114.642687 98.513054 114.515499 98.41929 114.421735 
C 98.325527 114.327972 98.198339 114.275289 98.065737 114.275289 
C 97.933135 114.275289 97.805947 114.327972 97.712184 114.421735 
C 97.61842 114.515499 97.565737 114.642687 97.565737 114.775289 
C 97.565737 114.90789 97.61842 115.035079 97.712184 115.128842 
C 97.805947 115.222606 97.933135 115.275289 98.065737 115.275289 
z
" clip-path="url(#p6e8d7cadd3)" style="stroke: #000000"/>
    <path d="M 98.008779 109.423483 
C 98.556453 109.423483 99.081769 109.20589 99.469033 108.818626 
C 99.856296 108.431362 100.073889 107.906046 100.073889 107.358373 
C 100.073889 106.810699 99.856296 106.285383 99.469033 105.898119 
C 99.081769 105.510855 98.556453 105.293262 98.008779 105.293262 
C 97.461106 105.293262 96.935789 105.510855 96.548526 105.898119 
C 96.161262 106.285383 95.943669 106.810699 95.943669 107.358373 
C 95.943669 107.906046 96.161262 108.431362 96.548526 108.818626 
C 96.935789 109.20589 97.461106 109.423483 98.008779 109.423483 
z
" clip-path="url(#p6e8d7cadd3)" style="stroke: #000000"/>
    <path d="M 92.926597 116.916315 
C 93.084288 116.916315 93.235541 116.853664 93.347045 116.74216 
C 93.458549 116.630656 93.5212 116.479402 93.5212 116.321712 
C 93.5212 116.164021 93.458549 116.012768 93.347045 115.901263 
C 93.235541 115.789759 93.084288 115.727108 92.926597 115.727108 
C 92.768906 115.727108 92.617653 115.789759 92.506149 115.901263 
C 92.394645 116.012768 92.331993 116.164021 92.331993 116.321712 
C 92.331993 116.479402 92.394645 116.630656 92.506149 116.74216 
C 92.617653 116.853664 92.768906 116.916315 92.926597 116.916315 
z
" clip-path="url(#p6e8d7cadd3)" style="stroke: #000000"/>
    <path d="M 91.201616 111.689895 
C 91.543132 111.689895 91.870707 111.554209 92.112196 111.31272 
C 92.353685 111.071232 92.489371 110.743657 92.489371 110.40214 
C 92.489371 110.060624 92.353685 109.733049 92.112196 109.49156 
C 91.870707 109.250071 91.543132 109.114386 91.201616 109.114386 
C 90.860099 109.114386 90.532524 109.250071 90.291036 109.49156 
C 90.049547 109.733049 89.913861 110.060624 89.913861 110.40214 
C 89.913861 110.743657 90.049547 111.071232 90.291036 111.31272 
C 90.532524 111.554209 90.860099 111.689895 91.201616 111.689895 
z
" clip-path="url(#p6e8d7cadd3)" style="stroke: #000000"/>
    <path d="M 84.753346 98.785779 
C 85.285299 98.785779 85.795537 98.574431 86.171685 98.198283 
C 86.547832 97.822136 86.75918 97.311898 86.75918 96.779945 
C 86.75918 96.247991 86.547832 95.737754 86.171685 95.361606 
C 85.795537 94.985458 85.285299 94.774111 84.753346 94.774111 
C 84.221393 94.774111 83.711155 94.985458 83.335007 95.361606 
C 82.958859 95.737754 82.747512 96.247991 82.747512 96.779945 
C 82.747512 97.311898 82.958859 97.822136 83.335007 98.198283 
C 83.711155 98.574431 84.221393 98.785779 84.753346 98.785779 
z
" clip-path="url(#p6e8d7cadd3)" style="stroke: #000000"/>
    <path d="M 81.552985 86.827227 
C 82.080782 86.827227 82.587033 86.617531 82.960242 86.244322 
C 83.333451 85.871113 83.543147 85.364862 83.543147 84.837065 
C 83.543147 84.309268 83.333451 83.803017 82.960242 83.429808 
C 82.587033 83.056599 82.080782 82.846903 81.552985 82.846903 
C 81.025188 82.846903 80.518937 83.056599 80.145728 83.429808 
C 79.772519 83.803017 79.562823 84.309268 79.562823 84.837065 
C 79.562823 85.364862 79.772519 85.871113 80.145728 86.244322 
C 80.518937 86.617531 81.025188 86.827227 81.552985 86.827227 
z
" clip-path="url(#p6e8d7cadd3)" style="stroke: #000000"/>
    <path d="M 83.488968 83.304693 
C 83.858019 83.304693 84.212004 83.158068 84.472963 82.897109 
C 84.733921 82.636151 84.880547 82.282165 84.880547 81.913114 
C 84.880547 81.544063 84.733921 81.190078 84.472963 80.92912 
C 84.212004 80.668161 83.858019 80.521536 83.488968 80.521536 
C 83.119917 80.521536 82.765931 80.668161 82.504973 80.92912 
C 82.244014 81.190078 82.097389 81.544063 82.097389 81.913114 
C 82.097389 82.282165 82.244014 82.636151 82.504973 82.897109 
C 82.765931 83.158068 83.119917 83.304693 83.488968 83.304693 
z
" clip-path="url(#p6e8d7cadd3)" style="stroke: #000000"/>
    <path d="M 88.92534 125.190796 
C 89.181836 125.190796 89.427861 125.088889 89.609231 124.907519 
C 89.790601 124.726149 89.892508 124.480123 89.892508 124.223627 
C 89.892508 123.967131 89.790601 123.721106 89.609231 123.539736 
C 89.427861 123.358366 89.181836 123.256459 88.92534 123.256459 
C 88.668844 123.256459 88.422819 123.358366 88.241449 123.539736 
C 88.060078 123.721106 87.958172 123.967131 87.958172 124.223627 
C 87.958172 124.480123 88.060078 124.726149 88.241449 124.907519 
C 88.422819 125.088889 88.668844 125.190796 88.92534 125.190796 
z
" clip-path="url(#p6e8d7cadd3)" style="stroke: #000000"/>
    <path d="M 87.156478 120.807383 
C 87.76585 120.807383 88.350346 120.565277 88.781237 120.134386 
C 89.212128 119.703495 89.454233 119.119 89.454233 118.509628 
C 89.454233 117.900256 89.212128 117.315761 88.781237 116.88487 
C 88.350346 116.453979 87.76585 116.211873 87.156478 116.211873 
C 86.547107 116.211873 85.962611 116.453979 85.53172 116.88487 
C 85.100829 117.315761 84.858723 117.900256 84.858723 118.509628 
C 84.858723 119.119 85.100829 119.703495 85.53172 120.134386 
C 85.962611 120.565277 86.547107 120.807383 87.156478 120.807383 
z
" clip-path="url(#p6e8d7cadd3)" style="stroke: #000000"/>
    <path d="M 82.87718 106.848484 
C 83.309513 106.848484 83.724196 106.676716 84.029902 106.371011 
C 84.335607 106.065305 84.507375 105.650621 84.507375 105.218288 
C 84.507375 104.785956 84.335607 104.371272 84.029902 104.065566 
C 83.724196 103.759861 83.309513 103.588093 82.87718 103.588093 
C 82.444847 103.588093 82.030163 103.759861 81.724458 104.065566 
C 81.418752 104.371272 81.246985 104.785956 81.246985 105.218288 
C 81.246985 105.650621 81.418752 106.065305 81.724458 106.371011 
C 82.030163 106.676716 82.444847 106.848484 82.87718 106.848484 
z
" clip-path="url(#p6e8d7cadd3)" style="stroke: #000000"/>
    <path d="M 75.300486 95.483707 
C 75.762205 95.483707 76.205076 95.300264 76.531561 94.973779 
C 76.858046 94.647295 77.041488 94.204424 77.041488 93.742705 
C 77.041488 93.280986 76.858046 92.838115 76.531561 92.51163 
C 76.205076 92.185146 75.762205 92.001703 75.300486 92.001703 
C 74.838767 92.001703 74.395896 92.185146 74.069412 92.51163 
C 73.742927 92.838115 73.559484 93.280986 73.559484 93.742705 
C 73.559484 94.204424 73.742927 94.647295 74.069412 94.973779 
C 74.395896 95.300264 74.838767 95.483707 75.300486 95.483707 
z
" clip-path="url(#p6e8d7cadd3)" style="stroke: #000000"/>
    <path d="M 76.444142 86.624555 
C 76.759523 86.624555 77.06203 86.499253 77.285038 86.276244 
C 77.508046 86.053236 77.633349 85.750729 77.633349 85.435348 
C 77.633349 85.119967 77.508046 84.81746 77.285038 84.594452 
C 77.06203 84.371443 76.759523 84.246141 76.444142 84.246141 
C 76.12876 84.246141 75.826254 84.371443 75.603245 84.594452 
C 75.380237 84.81746 75.254935 85.119967 75.254935 85.435348 
C 75.254935 85.750729 75.380237 86.053236 75.603245 86.276244 
C 75.826254 86.499253 76.12876 86.624555 76.444142 86.624555 
z
" clip-path="url(#p6e8d7cadd3)" style="stroke: #000000"/>
    <path d="M 83.85413 127.276162 
C 84.011821 127.276162 84.163074 127.213511 84.274579 127.102007 
C 84.386083 126.990503 84.448734 126.839249 84.448734 126.681559 
C 84.448734 126.523868 84.386083 126.372615 84.274579 126.26111 
C 84.163074 126.149606 84.011821 126.086955 83.85413 126.086955 
C 83.69644 126.086955 83.545186 126.149606 83.433682 126.26111 
C 83.322178 126.372615 83.259527 126.523868 83.259527 126.681559 
C 83.259527 126.839249 83.322178 126.990503 83.433682 127.102007 
C 83.545186 127.213511 83.69644 127.276162 83.85413 127.276162 
z
" clip-path="url(#p6e8d7cadd3)" style="stroke: #000000"/>
    <path d="M 79.883286 120.693261 
C 80.057799 120.693261 80.225188 120.623926 80.348588 120.500526 
C 80.471988 120.377127 80.541323 120.209737 80.541323 120.035224 
C 80.541323 119.86071 80.471988 119.693321 80.348588 119.569921 
C 80.225188 119.446522 80.057799 119.377187 79.883286 119.377187 
C 79.708772 119.377187 79.541383 119.446522 79.417983 119.569921 
C 79.294583 119.693321 79.225249 119.86071 79.225249 120.035224 
C 79.225249 120.209737 79.294583 120.377127 79.417983 120.500526 
C 79.541383 120.623926 79.708772 120.693261 79.883286 120.693261 
z
" clip-path="url(#p6e8d7cadd3)" style="stroke: #000000"/>
    <path d="M 77.005233 109.620125 
C 77.137834 109.620125 77.265023 109.567441 77.358786 109.473678 
C 77.45255 109.379915 77.505233 109.252726 77.505233 109.120125 
C 77.505233 108.987523 77.45255 108.860335 77.358786 108.766571 
C 77.265023 108.672808 77.137834 108.620125 77.005233 108.620125 
C 76.872631 108.620125 76.745443 108.672808 76.651679 108.766571 
C 76.557916 108.860335 76.505233 108.987523 76.505233 109.120125 
C 76.505233 109.252726 76.557916 109.379915 76.651679 109.473678 
C 76.745443 109.567441 76.872631 109.620125 77.005233 109.620125 
z
" clip-path="url(#p6e8d7cadd3)" style="stroke: #000000"/>
    <path d="M 74.191025 98.015762 
C 74.699375 98.015762 75.186971 97.813793 75.546428 97.454336 
C 75.905886 97.094879 76.107855 96.607282 76.107855 96.098933 
C 76.107855 95.590584 75.905886 95.102987 75.546428 94.74353 
C 75.186971 94.384073 74.699375 94.182104 74.191025 94.182104 
C 73.682676 94.182104 73.19508 94.384073 72.835622 94.74353 
C 72.476165 95.102987 72.274196 95.590584 72.274196 96.098933 
C 72.274196 96.607282 72.476165 97.094879 72.835622 97.454336 
C 73.19508 97.813793 73.682676 98.015762 74.191025 98.015762 
z
" clip-path="url(#p6e8d7cadd3)" style="stroke: #000000"/>
    <path d="M 68.00015 90.936293 
C 68.132752 90.936293 68.25994 90.88361 68.353704 90.789846 
C 68.447467 90.696083 68.50015 90.568895 68.50015 90.436293 
C 68.50015 90.303691 68.447467 90.176503 68.353704 90.08274 
C 68.25994 89.988976 68.132752 89.936293 68.00015 89.936293 
C 67.867549 89.936293 67.74036 89.988976 67.646597 90.08274 
C 67.552833 90.176503 67.50015 90.303691 67.50015 90.436293 
C 67.50015 90.568895 67.552833 90.696083 67.646597 90.789846 
C 67.74036 90.88361 67.867549 90.936293 68.00015 90.936293 
z
" clip-path="url(#p6e8d7cadd3)" style="stroke: #000000"/>
    <path d="M 67.726982 87.814912 
C 68.289128 87.814912 68.828326 87.591569 69.225823 87.194072 
C 69.62332 86.796574 69.846663 86.257376 69.846663 85.69523 
C 69.846663 85.133084 69.62332 84.593886 69.225823 84.196389 
C 68.828326 83.798892 68.289128 83.575549 67.726982 83.575549 
C 67.164836 83.575549 66.625638 83.798892 66.22814 84.196389 
C 65.830643 84.593886 65.6073 85.133084 65.6073 85.69523 
C 65.6073 86.257376 65.830643 86.796574 66.22814 87.194072 
C 66.625638 87.591569 67.164836 87.814912 67.726982 87.814912 
z
" clip-path="url(#p6e8d7cadd3)" style="stroke: #000000"/>
    <path d="M 62.747239 78.193542 
C 62.879841 78.193542 63.007029 78.140859 63.100792 78.047096 
C 63.194556 77.953332 63.247239 77.826144 63.247239 77.693542 
C 63.247239 77.560941 63.194556 77.433753 63.100792 77.339989 
C 63.007029 77.246226 62.879841 77.193542 62.747239 77.193542 
C 62.614638 77.193542 62.487449 77.246226 62.393686 77.339989 
C 62.299922 77.433753 62.247239 77.560941 62.247239 77.693542 
C 62.247239 77.826144 62.299922 77.953332 62.393686 78.047096 
C 62.487449 78.140859 62.614638 78.193542 62.747239 78.193542 
z
" clip-path="url(#p6e8d7cadd3)" style="stroke: #000000"/>
    <path d="M 81.060228 140.144179 
C 81.217919 140.144179 81.369172 140.081528 81.480677 139.970024 
C 81.592181 139.858519 81.654832 139.707266 81.654832 139.549575 
C 81.654832 139.391885 81.592181 139.240631 81.480677 139.129127 
C 81.369172 139.017623 81.217919 138.954972 81.060228 138.954972 
C 80.902538 138.954972 80.751284 139.017623 80.63978 139.129127 
C 80.528276 139.240631 80.465625 139.391885 80.465625 139.549575 
C 80.465625 139.707266 80.528276 139.858519 80.63978 139.970024 
C 80.751284 140.081528 80.902538 140.144179 81.060228 140.144179 
z
" clip-path="url(#p6e8d7cadd3)" style="stroke: #000000"/>
    <path d="M 76.969601 130.772997 
C 77.39707 130.772997 77.807088 130.603162 78.109355 130.300896 
C 78.411621 129.998629 78.581456 129.588611 78.581456 129.161142 
C 78.581456 128.733673 78.411621 128.323655 78.109355 128.021389 
C 77.807088 127.719122 77.39707 127.549287 76.969601 127.549287 
C 76.542132 127.549287 76.132114 127.719122 75.829848 128.021389 
C 75.527581 128.323655 75.357746 128.733673 75.357746 129.161142 
C 75.357746 129.588611 75.527581 129.998629 75.829848 130.300896 
C 76.132114 130.603162 76.542132 130.772997 76.969601 130.772997 
z
" clip-path="url(#p6e8d7cadd3)" style="stroke: #000000"/>
    <path d="M 74.348924 124.485907 
C 74.732475 124.485907 75.100368 124.333521 75.371579 124.06231 
C 75.642791 123.791098 75.795177 123.423205 75.795177 123.039654 
C 75.795177 122.656103 75.642791 122.288209 75.371579 122.016998 
C 75.100368 121.745786 74.732475 121.5934 74.348924 121.5934 
C 73.965373 121.5934 73.597479 121.745786 73.326268 122.016998 
C 73.055056 122.288209 72.90267 122.656103 72.90267 123.039654 
C 72.90267 123.423205 73.055056 123.791098 73.326268 124.06231 
C 73.597479 124.333521 73.965373 124.485907 74.348924 124.485907 
z
" clip-path="url(#p6e8d7cadd3)" style="stroke: #000000"/>
    <path d="M 73.674052 117.33849 
C 74.021247 117.33849 74.354268 117.200548 74.599772 116.955045 
C 74.845276 116.709541 74.983217 116.37652 74.983217 116.029325 
C 74.983217 115.68213 74.845276 115.349109 74.599772 115.103605 
C 74.354268 114.858102 74.021247 114.72016 73.674052 114.72016 
C 73.326858 114.72016 72.993836 114.858102 72.748333 115.103605 
C 72.502829 115.349109 72.364887 115.68213 72.364887 116.029325 
C 72.364887 116.37652 72.502829 116.709541 72.748333 116.955045 
C 72.993836 117.200548 73.326858 117.33849 73.674052 117.33849 
z
" clip-path="url(#p6e8d7cadd3)" style="stroke: #000000"/>
    <path d="M 62.343992 87.106965 
C 62.476594 87.106965 62.603782 87.054282 62.697546 86.960519 
C 62.791309 86.866755 62.843992 86.739567 62.843992 86.606965 
C 62.843992 86.474364 62.791309 86.347175 62.697546 86.253412 
C 62.603782 86.159648 62.476594 86.106965 62.343992 86.106965 
C 62.211391 86.106965 62.084202 86.159648 61.990439 86.253412 
C 61.896675 86.347175 61.843992 86.474364 61.843992 86.606965 
C 61.843992 86.739567 61.896675 86.866755 61.990439 86.960519 
C 62.084202 87.054282 62.211391 87.106965 62.343992 87.106965 
z
" clip-path="url(#p6e8d7cadd3)" style="stroke: #000000"/>
    <path d="M 71.797972 130.087335 
C 71.955663 130.087335 72.106916 130.024684 72.218421 129.91318 
C 72.329925 129.801676 72.392576 129.650423 72.392576 129.492732 
C 72.392576 129.335041 72.329925 129.183788 72.218421 129.072284 
C 72.106916 128.960779 71.955663 128.898128 71.797972 128.898128 
C 71.640282 128.898128 71.489028 128.960779 71.377524 129.072284 
C 71.26602 129.183788 71.203369 129.335041 71.203369 129.492732 
C 71.203369 129.650423 71.26602 129.801676 71.377524 129.91318 
C 71.489028 130.024684 71.640282 130.087335 71.797972 130.087335 
z
" clip-path="url(#p6e8d7cadd3)" style="stroke: #000000"/>
    <path d="M 67.310872 124.739593 
C 67.443474 124.739593 67.570662 124.68691 67.664426 124.593146 
C 67.758189 124.499383 67.810872 124.372194 67.810872 124.239593 
C 67.810872 124.106991 67.758189 123.979803 67.664426 123.886039 
C 67.570662 123.792276 67.443474 123.739593 67.310872 123.739593 
C 67.178271 123.739593 67.051082 123.792276 66.957319 123.886039 
C 66.863555 123.979803 66.810872 124.106991 66.810872 124.239593 
C 66.810872 124.372194 66.863555 124.499383 66.957319 124.593146 
C 67.051082 124.68691 67.178271 124.739593 67.310872 124.739593 
z
" clip-path="url(#p6e8d7cadd3)" style="stroke: #000000"/>
    <path d="M 58.760401 101.521238 
C 59.08744 101.521238 59.401128 101.391304 59.632379 101.160053 
C 59.86363 100.928802 59.993564 100.615114 59.993564 100.288075 
C 59.993564 99.961036 59.86363 99.647348 59.632379 99.416097 
C 59.401128 99.184846 59.08744 99.054912 58.760401 99.054912 
C 58.433363 99.054912 58.119675 99.184846 57.888424 99.416097 
C 57.657172 99.647348 57.527239 99.961036 57.527239 100.288075 
C 57.527239 100.615114 57.657172 100.928802 57.888424 101.160053 
C 58.119675 101.391304 58.433363 101.521238 58.760401 101.521238 
z
" clip-path="url(#p6e8d7cadd3)" style="stroke: #000000"/>
    <path d="M 55.790045 95.867005 
C 56.066891 95.867005 56.332434 95.757013 56.528193 95.561254 
C 56.723952 95.365495 56.833944 95.099951 56.833944 94.823106 
C 56.833944 94.546261 56.723952 94.280717 56.528193 94.084958 
C 56.332434 93.889199 56.066891 93.779207 55.790045 93.779207 
C 55.5132 93.779207 55.247656 93.889199 55.051897 94.084958 
C 54.856138 94.280717 54.746146 94.546261 54.746146 94.823106 
C 54.746146 95.099951 54.856138 95.365495 55.051897 95.561254 
C 55.247656 95.757013 55.5132 95.867005 55.790045 95.867005 
z
" clip-path="url(#p6e8d7cadd3)" style="stroke: #000000"/>
    <path d="M 64.24106 133.890404 
C 64.777074 133.890404 65.291207 133.677444 65.670226 133.298424 
C 66.049246 132.919405 66.262207 132.405272 66.262207 131.869258 
C 66.262207 131.333243 66.049246 130.819111 65.670226 130.440091 
C 65.291207 130.061072 64.777074 129.848111 64.24106 129.848111 
C 63.705046 129.848111 63.190913 130.061072 62.811894 130.440091 
C 62.432874 130.819111 62.219913 131.333243 62.219913 131.869258 
C 62.219913 132.405272 62.432874 132.919405 62.811894 133.298424 
C 63.190913 133.677444 63.705046 133.890404 64.24106 133.890404 
z
" clip-path="url(#p6e8d7cadd3)" style="stroke: #000000"/>
    <path d="M 59.068395 123.391485 
C 59.610818 123.391485 60.131098 123.175979 60.514649 122.792428 
C 60.8982 122.408877 61.113707 121.888597 61.113707 121.346174 
C 61.113707 120.803751 60.8982 120.283471 60.514649 119.89992 
C 60.131098 119.516369 59.610818 119.300862 59.068395 119.300862 
C 58.525972 119.300862 58.005692 119.516369 57.622141 119.89992 
C 57.23859 120.283471 57.023083 120.803751 57.023083 121.346174 
C 57.023083 121.888597 57.23859 122.408877 57.622141 122.792428 
C 58.005692 123.175979 58.525972 123.391485 59.068395 123.391485 
z
" clip-path="url(#p6e8d7cadd3)" style="stroke: #000000"/>
    <path d="M 59.717937 118.714468 
C 60.232638 118.714468 60.726328 118.509975 61.090276 118.146026 
C 61.454225 117.782078 61.658718 117.288388 61.658718 116.773687 
C 61.658718 116.258986 61.454225 115.765297 61.090276 115.401348 
C 60.726328 115.037399 60.232638 114.832907 59.717937 114.832907 
C 59.203236 114.832907 58.709547 115.037399 58.345598 115.401348 
C 57.981649 115.765297 57.777157 116.258986 57.777157 116.773687 
C 57.777157 117.288388 57.981649 117.782078 58.345598 118.146026 
C 58.709547 118.509975 59.203236 118.714468 59.717937 118.714468 
z
" clip-path="url(#p6e8d7cadd3)" style="stroke: #000000"/>
    <path d="M 54.696897 112.04594 
C 55.026123 112.04594 55.341909 111.915137 55.574708 111.682339 
C 55.807506 111.449541 55.938309 111.133754 55.938309 110.804528 
C 55.938309 110.475302 55.807506 110.159516 55.574708 109.926717 
C 55.341909 109.693919 55.026123 109.563116 54.696897 109.563116 
C 54.36767 109.563116 54.051884 109.693919 53.819086 109.926717 
C 53.586288 110.159516 53.455485 110.475302 53.455485 110.804528 
C 53.455485 111.133754 53.586288 111.449541 53.819086 111.682339 
C 54.051884 111.915137 54.36767 112.04594 54.696897 112.04594 
z
" clip-path="url(#p6e8d7cadd3)" style="stroke: #000000"/>
    <path d="M 51.49129 103.081881 
C 51.623891 103.081881 51.75108 103.029198 51.844843 102.935435 
C 51.938607 102.841671 51.99129 102.714483 51.99129 102.581881 
C 51.99129 102.44928 51.938607 102.322091 51.844843 102.228328 
C 51.75108 102.134564 51.623891 102.081881 51.49129 102.081881 
C 51.358688 102.081881 51.2315 102.134564 51.137737 102.228328 
C 51.043973 102.322091 50.99129 102.44928 50.99129 102.581881 
C 50.99129 102.714483 51.043973 102.841671 51.137737 102.935435 
C 51.2315 103.029198 51.358688 103.081881 51.49129 103.081881 
z
" clip-path="url(#p6e8d7cadd3)" style="stroke: #000000"/>
    <path d="M 47.948603 83.439165 
C 48.081204 83.439165 48.208393 83.386482 48.302156 83.292719 
C 48.395919 83.198955 48.448603 83.071767 48.448603 82.939165 
C 48.448603 82.806564 48.395919 82.679376 48.302156 82.585612 
C 48.208393 82.491849 48.081204 82.439165 47.948603 82.439165 
C 47.816001 82.439165 47.688813 82.491849 47.595049 82.585612 
C 47.501286 82.679376 47.448603 82.806564 47.448603 82.939165 
C 47.448603 83.071767 47.501286 83.198955 47.595049 83.292719 
C 47.688813 83.386482 47.816001 83.439165 47.948603 83.439165 
z
" clip-path="url(#p6e8d7cadd3)" style="stroke: #000000"/>
   </g>
   <g id="matplotlib.axis_1">
    <g id="xtick_1">
     <g id="line2d_1">
      <defs>
       <path id="m2619f174e9" d="M 0 0 
L 0 3.5 
" style="stroke: #000000; stroke-width: 0.8"/>
      </defs>
      <g>
       <use xlink:href="#m2619f174e9" x="18" y="189" style="stroke: #000000; stroke-width: 0.8"/>
      </g>
     </g>
     <g id="text_1">
      <!-- −10 -->
      <g transform="translate(7.447656 203.598437)scale(0.1 -0.1)">
       <defs>
        <path id="DejaVuSans-2212" d="M 678 2272 
L 4684 2272 
L 4684 1741 
L 678 1741 
L 678 2272 
z
" transform="scale(0.015625)"/>
        <path id="DejaVuSans-31" d="M 794 531 
L 1825 531 
L 1825 4091 
L 703 3866 
L 703 4441 
L 1819 4666 
L 2450 4666 
L 2450 531 
L 3481 531 
L 3481 0 
L 794 0 
L 794 531 
z
" transform="scale(0.015625)"/>
        <path id="DejaVuSans-30" d="M 2034 4250 
Q 1547 4250 1301 3770 
Q 1056 3291 1056 2328 
Q 1056 1369 1301 889 
Q 1547 409 2034 409 
Q 2525 409 2770 889 
Q 3016 1369 3016 2328 
Q 3016 3291 2770 3770 
Q 2525 4250 2034 4250 
z
M 2034 4750 
Q 2819 4750 3233 4129 
Q 3647 3509 3647 2328 
Q 3647 1150 3233 529 
Q 2819 -91 2034 -91 
Q 1250 -91 836 529 
Q 422 1150 422 2328 
Q 422 3509 836 4129 
Q 1250 4750 2034 4750 
z
" transform="scale(0.015625)"/>
       </defs>
       <use xlink:href="#DejaVuSans-2212"/>
       <use xlink:href="#DejaVuSans-31" x="83.789062"/>
       <use xlink:href="#DejaVuSans-30" x="147.412109"/>
      </g>
     </g>
    </g>
    <g id="xtick_2">
     <g id="line2d_2">
      <g>
       <use xlink:href="#m2619f174e9" x="73.8" y="189" style="stroke: #000000; stroke-width: 0.8"/>
      </g>
     </g>
     <g id="text_2">
      <!-- 0 -->
      <g transform="translate(70.61875 203.598437)scale(0.1 -0.1)">
       <use xlink:href="#DejaVuSans-30"/>
      </g>
     </g>
    </g>
    <g id="xtick_3">
     <g id="line2d_3">
      <g>
       <use xlink:href="#m2619f174e9" x="129.6" y="189" style="stroke: #000000; stroke-width: 0.8"/>
      </g>
     </g>
     <g id="text_3">
      <!-- 10 -->
      <g transform="translate(123.2375 203.598437)scale(0.1 -0.1)">
       <use xlink:href="#DejaVuSans-31"/>
       <use xlink:href="#DejaVuSans-30" x="63.623047"/>
      </g>
     </g>
    </g>
   </g>
   <g id="matplotlib.axis_2">
    <g id="ytick_1">
     <g id="line2d_4">
      <defs>
       <path id="m16a0069d3e" d="M 0 0 
L -3.5 0 
" style="stroke: #000000; stroke-width: 0.8"/>
      </defs>
      <g>
       <use xlink:href="#m16a0069d3e" x="18" y="189" style="stroke: #000000; stroke-width: 0.8"/>
      </g>
     </g>
     <g id="text_4">
      <!-- −15 -->
      <g transform="translate(-10.104688 192.799219)scale(0.1 -0.1)">
       <defs>
        <path id="DejaVuSans-35" d="M 691 4666 
L 3169 4666 
L 3169 4134 
L 1269 4134 
L 1269 2991 
Q 1406 3038 1543 3061 
Q 1681 3084 1819 3084 
Q 2600 3084 3056 2656 
Q 3513 2228 3513 1497 
Q 3513 744 3044 326 
Q 2575 -91 1722 -91 
Q 1428 -91 1123 -41 
Q 819 9 494 109 
L 494 744 
Q 775 591 1075 516 
Q 1375 441 1709 441 
Q 2250 441 2565 725 
Q 2881 1009 2881 1497 
Q 2881 1984 2565 2268 
Q 2250 2553 1709 2553 
Q 1456 2553 1204 2497 
Q 953 2441 691 2322 
L 691 4666 
z
" transform="scale(0.015625)"/>
       </defs>
       <use xlink:href="#DejaVuSans-2212"/>
       <use xlink:href="#DejaVuSans-31" x="83.789062"/>
       <use xlink:href="#DejaVuSans-35" x="147.412109"/>
      </g>
     </g>
    </g>
    <g id="ytick_2">
     <g id="line2d_5">
      <g>
       <use xlink:href="#m16a0069d3e" x="18" y="161.82" style="stroke: #000000; stroke-width: 0.8"/>
      </g>
     </g>
     <g id="text_5">
      <!-- −10 -->
      <g transform="translate(-10.104688 165.619219)scale(0.1 -0.1)">
       <use xlink:href="#DejaVuSans-2212"/>
       <use xlink:href="#DejaVuSans-31" x="83.789062"/>
       <use xlink:href="#DejaVuSans-30" x="147.412109"/>
      </g>
     </g>
    </g>
    <g id="ytick_3">
     <g id="line2d_6">
      <g>
       <use xlink:href="#m16a0069d3e" x="18" y="134.64" style="stroke: #000000; stroke-width: 0.8"/>
      </g>
     </g>
     <g id="text_6">
      <!-- −5 -->
      <g transform="translate(-3.742188 138.439219)scale(0.1 -0.1)">
       <use xlink:href="#DejaVuSans-2212"/>
       <use xlink:href="#DejaVuSans-35" x="83.789062"/>
      </g>
     </g>
    </g>
    <g id="ytick_4">
     <g id="line2d_7">
      <g>
       <use xlink:href="#m16a0069d3e" x="18" y="107.46" style="stroke: #000000; stroke-width: 0.8"/>
      </g>
     </g>
     <g id="text_7">
      <!-- 0 -->
      <g transform="translate(4.6375 111.259219)scale(0.1 -0.1)">
       <use xlink:href="#DejaVuSans-30"/>
      </g>
     </g>
    </g>
    <g id="ytick_5">
     <g id="line2d_8">
      <g>
       <use xlink:href="#m16a0069d3e" x="18" y="80.28" style="stroke: #000000; stroke-width: 0.8"/>
      </g>
     </g>
     <g id="text_8">
      <!-- 5 -->
      <g transform="translate(4.6375 84.079219)scale(0.1 -0.1)">
       <use xlink:href="#DejaVuSans-35"/>
      </g>
     </g>
    </g>
    <g id="ytick_6">
     <g id="line2d_9">
      <g>
       <use xlink:href="#m16a0069d3e" x="18" y="53.1" style="stroke: #000000; stroke-width: 0.8"/>
      </g>
     </g>
     <g id="text_9">
      <!-- 10 -->
      <g transform="translate(-1.725 56.899219)scale(0.1 -0.1)">
       <use xlink:href="#DejaVuSans-31"/>
       <use xlink:href="#DejaVuSans-30" x="63.623047"/>
      </g>
     </g>
    </g>
    <g id="ytick_7">
     <g id="line2d_10">
      <g>
       <use xlink:href="#m16a0069d3e" x="18" y="25.92" style="stroke: #000000; stroke-width: 0.8"/>
      </g>
     </g>
     <g id="text_10">
      <!-- 15 -->
      <g transform="translate(-1.725 29.719219)scale(0.1 -0.1)">
       <use xlink:href="#DejaVuSans-31"/>
       <use xlink:href="#DejaVuSans-35" x="63.623047"/>
      </g>
     </g>
    </g>
   </g>
   <g id="patch_3">
    <path d="M 18 189 
L 18 25.92 
" style="fill: none; stroke: #000000; stroke-width: 0.8; stroke-linejoin: miter; stroke-linecap: square"/>
   </g>
   <g id="patch_4">
    <path d="M 129.6 189 
L 129.6 25.92 
" style="fill: none; stroke: #000000; stroke-width: 0.8; stroke-linejoin: miter; stroke-linecap: square"/>
   </g>
   <g id="patch_5">
    <path d="M 18 189 
L 129.6 189 
" style="fill: none; stroke: #000000; stroke-width: 0.8; stroke-linejoin: miter; stroke-linecap: square"/>
   </g>
   <g id="patch_6">
    <path d="M 18 25.92 
L 129.6 25.92 
" style="fill: none; stroke: #000000; stroke-width: 0.8; stroke-linejoin: miter; stroke-linecap: square"/>
   </g>
  </g>
 </g>
 <defs>
  <clipPath id="p6e8d7cadd3">
   <rect x="18" y="25.92" width="111.6" height="163.08"/>
  </clipPath>
 </defs>
</svg>
