<?xml version="1.0" encoding="utf-8" standalone="no"?>
<!DOCTYPE svg PUBLIC "-//W3C//DTD SVG 1.1//EN"
  "http://www.w3.org/Graphics/SVG/1.1/DTD/svg11.dtd">
<svg xmlns:xlink="http://www.w3.org/1999/xlink" width="144pt" height="216pt" viewBox="0 0 144 216" xmlns="http://www.w3.org/2000/svg" version="1.1">
 <metadata>
  <rdf:RDF xmlns:dc="http://purl.org/dc/elements/1.1/" xmlns:cc="http://creativecommons.org/ns#" xmlns:rdf="http://www.w3.org/1999/02/22-rdf-syntax-ns#">
   <cc:Work>
    <dc:type rdf:resource="http://purl.org/dc/dcmitype/StillImage"/>
    <dc:date>2022-06-23T14:48:53.249153</dc:date>
    <dc:format>image/svg+xml</dc:format>
    <dc:creator>
     <cc:Agent>
      <dc:title>Matplotlib v3.5.1, https://matplotlib.org/</dc:title>
     </cc:Agent>
    </dc:creator>
   </cc:Work>
  </rdf:RDF>
 </metadata>
 <defs>
  <style type="text/css">*{stroke-linejoin: round; stroke-linecap: butt}</style>
 </defs>
 <g id="figure_1">
  <g id="patch_1">
   <path d="M 0 216 
L 144 216 
L 144 0 
L 0 0 
L 0 216 
z
" style="fill: none"/>
  </g>
  <g id="axes_1">
   <g id="patch_2">
    <path d="M 18 189 
L 129.6 189 
L 129.6 25.92 
L 18 25.92 
z
" style="fill: #ffffff"/>
   </g>
   <g id="PathCollection_1">
    <defs>
     <path id="m2ed1f89188" d="M 0 2.738613 
C 0.726289 2.738613 1.422928 2.450055 1.936492 1.936492 
C 2.450055 1.422928 2.738613 0.726289 2.738613 0 
C 2.738613 -0.726289 2.450055 -1.422928 1.936492 -1.936492 
C 1.422928 -2.450055 0.726289 -2.738613 0 -2.738613 
C -0.726289 -2.738613 -1.422928 -2.450055 -1.936492 -1.936492 
C -2.450055 -1.422928 -2.738613 -0.726289 -2.738613 0 
C -2.738613 0.726289 -2.450055 1.422928 -1.936492 1.936492 
C -1.422928 2.450055 -0.726289 2.738613 0 2.738613 
z
" style="stroke: #ff0000; stroke-width: 1.75"/>
    </defs>
    <g clip-path="url(#p90cefd24fa)">
     <use xlink:href="#m2ed1f89188" x="80.775" y="83.92143" style="fill: #ff0000; stroke: #ff0000; stroke-width: 1.75"/>
     <use xlink:href="#m2ed1f89188" x="59.85" y="95.690715" style="fill: #ff0000; stroke: #ff0000; stroke-width: 1.75"/>
     <use xlink:href="#m2ed1f89188" x="66.825" y="107.46" style="fill: #ff0000; stroke: #ff0000; stroke-width: 1.75"/>
     <use xlink:href="#m2ed1f89188" x="80.775" y="107.46" style="fill: #ff0000; stroke: #ff0000; stroke-width: 1.75"/>
     <use xlink:href="#m2ed1f89188" x="94.725" y="107.46" style="fill: #ff0000; stroke: #ff0000; stroke-width: 1.75"/>
     <use xlink:href="#m2ed1f89188" x="59.85" y="119.229285" style="fill: #ff0000; stroke: #ff0000; stroke-width: 1.75"/>
     <use xlink:href="#m2ed1f89188" x="80.775" y="130.99857" style="fill: #ff0000; stroke: #ff0000; stroke-width: 1.75"/>
    </g>
   </g>
   <g id="PathCollection_2">
    <defs>
     <path id="C0_0_29b283c9b1" d="M 0 2.738613 
C 0.726289 2.738613 1.422928 2.450055 1.936492 1.936492 
C 2.450055 1.422928 2.738613 0.726289 2.738613 -0 
C 2.738613 -0.726289 2.450055 -1.422928 1.936492 -1.936492 
C 1.422928 -2.450055 0.726289 -2.738613 0 -2.738613 
C -0.726289 -2.738613 -1.422928 -2.450055 -1.936492 -1.936492 
C -2.450055 -1.422928 -2.738613 -0.726289 -2.738613 0 
C -2.738613 0.726289 -2.450055 1.422928 -1.936492 1.936492 
C -1.422928 2.450055 -0.726289 2.738613 0 2.738613 
z
"/>
    </defs>
    <g clip-path="url(#p90cefd24fa)">
     <use xlink:href="#C0_0_29b283c9b1" x="66.825" y="83.92143" style="fill: none; stroke: #ff0000; stroke-width: 1.75"/>
    </g>
    <g clip-path="url(#p90cefd24fa)">
     <use xlink:href="#C0_0_29b283c9b1" x="73.8" y="95.690715" style="fill: none; stroke: #ff0000; stroke-width: 1.75"/>
    </g>
    <g clip-path="url(#p90cefd24fa)">
     <use xlink:href="#C0_0_29b283c9b1" x="87.75" y="95.690715" style="fill: none; stroke: #ff0000; stroke-width: 1.75"/>
    </g>
    <g clip-path="url(#p90cefd24fa)">
     <use xlink:href="#C0_0_29b283c9b1" x="52.875" y="107.46" style="fill: none; stroke: #ff0000; stroke-width: 1.75"/>
    </g>
    <g clip-path="url(#p90cefd24fa)">
     <use xlink:href="#C0_0_29b283c9b1" x="73.8" y="119.229285" style="fill: none; stroke: #ff0000; stroke-width: 1.75"/>
    </g>
    <g clip-path="url(#p90cefd24fa)">
     <use xlink:href="#C0_0_29b283c9b1" x="87.75" y="119.229285" style="fill: none; stroke: #ff0000; stroke-width: 1.75"/>
    </g>
    <g clip-path="url(#p90cefd24fa)">
     <use xlink:href="#C0_0_29b283c9b1" x="66.825" y="130.99857" style="fill: none; stroke: #ff0000; stroke-width: 1.75"/>
    </g>
   </g>
   <g id="PathCollection_3">
    <path d="M 109.286626 90.505399 
C 109.879638 90.505399 110.448442 90.269792 110.867765 89.850469 
C 111.287088 89.431146 111.522694 88.862343 111.522694 88.269331 
C 111.522694 87.676318 111.287088 87.107515 110.867765 86.688192 
C 110.448442 86.268869 109.879638 86.033263 109.286626 86.033263 
C 108.693614 86.033263 108.12481 86.268869 107.705487 86.688192 
C 107.286164 87.107515 107.050558 87.676318 107.050558 88.269331 
C 107.050558 88.862343 107.286164 89.431146 107.705487 89.850469 
C 108.12481 90.269792 108.693614 90.505399 109.286626 90.505399 
z
" clip-path="url(#p90cefd24fa)" style="stroke: #000000"/>
    <path d="M 103.200178 84.240759 
C 103.793191 84.240759 104.361994 84.005153 104.781317 83.58583 
C 105.20064 83.166507 105.436246 82.597703 105.436246 82.004691 
C 105.436246 81.411679 105.20064 80.842875 104.781317 80.423552 
C 104.361994 80.004229 103.793191 79.768623 103.200178 79.768623 
C 102.607166 79.768623 102.038362 80.004229 101.61904 80.423552 
C 101.199717 80.842875 100.96411 81.411679 100.96411 82.004691 
C 100.96411 82.597703 101.199717 83.166507 101.61904 83.58583 
C 102.038362 84.005153 102.607166 84.240759 103.200178 84.240759 
z
" clip-path="url(#p90cefd24fa)" style="stroke: #000000"/>
    <path d="M 101.770475 70.085135 
C 102.145529 70.085135 102.505272 69.936125 102.770475 69.670922 
C 103.035678 69.405719 103.184688 69.045976 103.184688 68.670922 
C 103.184688 68.295868 103.035678 67.936125 102.770475 67.670922 
C 102.505272 67.405719 102.145529 67.256708 101.770475 67.256708 
C 101.395421 67.256708 101.035678 67.405719 100.770475 67.670922 
C 100.505272 67.936125 100.356261 68.295868 100.356261 68.670922 
C 100.356261 69.045976 100.505272 69.405719 100.770475 69.670922 
C 101.035678 69.936125 101.395421 70.085135 101.770475 70.085135 
z
" clip-path="url(#p90cefd24fa)" style="stroke: #000000"/>
    <path d="M 120.867269 155.000053 
C 121.366553 155.000053 121.845455 154.801685 122.198502 154.448638 
C 122.551549 154.095591 122.749916 153.616689 122.749916 153.117405 
C 122.749916 152.618121 122.551549 152.139219 122.198502 151.786172 
C 121.845455 151.433125 121.366553 151.234757 120.867269 151.234757 
C 120.367985 151.234757 119.889083 151.433125 119.536036 151.786172 
C 119.182989 152.139219 118.984621 152.618121 118.984621 153.117405 
C 118.984621 153.616689 119.182989 154.095591 119.536036 154.448638 
C 119.889083 154.801685 120.367985 155.000053 120.867269 155.000053 
z
" clip-path="url(#p90cefd24fa)" style="stroke: #000000"/>
    <path d="M 109.541955 132.30904 
C 110.134967 132.30904 110.703771 132.073433 111.123093 131.65411 
C 111.542416 131.234788 111.778023 130.665984 111.778023 130.072972 
C 111.778023 129.479959 111.542416 128.911156 111.123093 128.491833 
C 110.703771 128.07251 110.134967 127.836904 109.541955 127.836904 
C 108.948942 127.836904 108.380139 128.07251 107.960816 128.491833 
C 107.541493 128.911156 107.305887 129.479959 107.305887 130.072972 
C 107.305887 130.665984 107.541493 131.234788 107.960816 131.65411 
C 108.380139 132.073433 108.948942 132.30904 109.541955 132.30904 
z
" clip-path="url(#p90cefd24fa)" style="stroke: #000000"/>
    <path d="M 100.059073 102.171666 
C 100.652085 102.171666 101.220889 101.93606 101.640212 101.516737 
C 102.059534 101.097414 102.295141 100.528611 102.295141 99.935598 
C 102.295141 99.342586 102.059534 98.773782 101.640212 98.35446 
C 101.220889 97.935137 100.652085 97.69953 100.059073 97.69953 
C 99.466061 97.69953 98.897257 97.935137 98.477934 98.35446 
C 98.058611 98.773782 97.823005 99.342586 97.823005 99.935598 
C 97.823005 100.528611 98.058611 101.097414 98.477934 101.516737 
C 98.897257 101.93606 99.466061 102.171666 100.059073 102.171666 
z
" clip-path="url(#p90cefd24fa)" style="stroke: #000000"/>
    <path d="M 95.010949 95.365995 
C 95.603961 95.365995 96.172765 95.130389 96.592087 94.711066 
C 97.01141 94.291743 97.247017 93.722939 97.247017 93.129927 
C 97.247017 92.536915 97.01141 91.968111 96.592087 91.548788 
C 96.172765 91.129465 95.603961 90.893859 95.010949 90.893859 
C 94.417936 90.893859 93.849133 91.129465 93.42981 91.548788 
C 93.010487 91.968111 92.774881 92.536915 92.774881 93.129927 
C 92.774881 93.722939 93.010487 94.291743 93.42981 94.711066 
C 93.849133 95.130389 94.417936 95.365995 95.010949 95.365995 
z
" clip-path="url(#p90cefd24fa)" style="stroke: #000000"/>
    <path d="M 78.647527 52.190306 
C 79.14681 52.190306 79.625712 51.991938 79.978759 51.638891 
C 80.331806 51.285844 80.530174 50.806942 80.530174 50.307658 
C 80.530174 49.808374 80.331806 49.329473 79.978759 48.976425 
C 79.625712 48.623378 79.14681 48.425011 78.647527 48.425011 
C 78.148243 48.425011 77.669341 48.623378 77.316294 48.976425 
C 76.963247 49.329473 76.764879 49.808374 76.764879 50.307658 
C 76.764879 50.806942 76.963247 51.285844 77.316294 51.638891 
C 77.669341 51.991938 78.148243 52.190306 78.647527 52.190306 
z
" clip-path="url(#p90cefd24fa)" style="stroke: #000000"/>
    <path d="M 73.207817 31.380465 
C 73.707101 31.380465 74.186003 31.182097 74.53905 30.82905 
C 74.892097 30.476003 75.090465 29.997101 75.090465 29.497817 
C 75.090465 28.998533 74.892097 28.519631 74.53905 28.166584 
C 74.186003 27.813537 73.707101 27.61517 73.207817 27.61517 
C 72.708533 27.61517 72.229631 27.813537 71.876584 28.166584 
C 71.523537 28.519631 71.32517 28.998533 71.32517 29.497817 
C 71.32517 29.997101 71.523537 30.476003 71.876584 30.82905 
C 72.229631 31.182097 72.708533 31.380465 73.207817 31.380465 
z
" clip-path="url(#p90cefd24fa)" style="stroke: #000000"/>
    <path d="M 107.945253 156.675852 
C 108.444537 156.675852 108.923439 156.477484 109.276486 156.124437 
C 109.629533 155.77139 109.8279 155.292488 109.8279 154.793204 
C 109.8279 154.29392 109.629533 153.815019 109.276486 153.461971 
C 108.923439 153.108924 108.444537 152.910557 107.945253 152.910557 
C 107.445969 152.910557 106.967067 153.108924 106.61402 153.461971 
C 106.260973 153.815019 106.062605 154.29392 106.062605 154.793204 
C 106.062605 155.292488 106.260973 155.77139 106.61402 156.124437 
C 106.967067 156.477484 107.445969 156.675852 107.945253 156.675852 
z
" clip-path="url(#p90cefd24fa)" style="stroke: #000000"/>
    <path d="M 93.808342 128.666111 
C 94.401355 128.666111 94.970158 128.430505 95.389481 128.011182 
C 95.808804 127.591859 96.04441 127.023055 96.04441 126.430043 
C 96.04441 125.837031 95.808804 125.268227 95.389481 124.848904 
C 94.970158 124.429581 94.401355 124.193975 93.808342 124.193975 
C 93.21533 124.193975 92.646527 124.429581 92.227204 124.848904 
C 91.807881 125.268227 91.572274 125.837031 91.572274 126.430043 
C 91.572274 127.023055 91.807881 127.591859 92.227204 128.011182 
C 92.646527 128.430505 93.21533 128.666111 93.808342 128.666111 
z
" clip-path="url(#p90cefd24fa)" style="stroke: #000000"/>
    <path d="M 89.325892 120.094806 
C 89.882294 120.094806 90.415983 119.873745 90.809419 119.480309 
C 91.202855 119.086873 91.423916 118.553184 91.423916 117.996782 
C 91.423916 117.440379 91.202855 116.906691 90.809419 116.513255 
C 90.415983 116.119819 89.882294 115.898758 89.325892 115.898758 
C 88.769489 115.898758 88.235801 116.119819 87.842365 116.513255 
C 87.448929 116.906691 87.227868 117.440379 87.227868 117.996782 
C 87.227868 118.553184 87.448929 119.086873 87.842365 119.480309 
C 88.235801 119.873745 88.769489 120.094806 89.325892 120.094806 
z
" clip-path="url(#p90cefd24fa)" style="stroke: #000000"/>
    <path d="M 87.849475 109.563958 
C 88.237071 109.563958 88.608844 109.409964 88.882916 109.135892 
C 89.156988 108.86182 89.310981 108.490047 89.310981 108.102451 
C 89.310981 107.714855 89.156988 107.343082 88.882916 107.06901 
C 88.608844 106.794938 88.237071 106.640945 87.849475 106.640945 
C 87.461879 106.640945 87.090106 106.794938 86.816034 107.06901 
C 86.541962 107.343082 86.387969 107.714855 86.387969 108.102451 
C 86.387969 108.490047 86.541962 108.86182 86.816034 109.135892 
C 87.090106 109.409964 87.461879 109.563958 87.849475 109.563958 
z
" clip-path="url(#p90cefd24fa)" style="stroke: #000000"/>
    <path d="M 88.687915 97.404533 
C 89.281297 97.404533 89.850456 97.16878 90.270041 96.749195 
C 90.689625 96.32961 90.925379 95.760452 90.925379 95.167069 
C 90.925379 94.573687 90.689625 94.004528 90.270041 93.584943 
C 89.850456 93.165358 89.281297 92.929605 88.687915 92.929605 
C 88.094532 92.929605 87.525373 93.165358 87.105789 93.584943 
C 86.686204 94.004528 86.45045 94.573687 86.45045 95.167069 
C 86.45045 95.760452 86.686204 96.32961 87.105789 96.749195 
C 87.525373 97.16878 88.094532 97.404533 88.687915 97.404533 
z
" clip-path="url(#p90cefd24fa)" style="stroke: #000000"/>
    <path d="M 68.777351 47.903527 
C 69.276635 47.903527 69.755536 47.70516 70.108583 47.352113 
C 70.46163 46.999066 70.659998 46.520164 70.659998 46.02088 
C 70.659998 45.521596 70.46163 45.042694 70.108583 44.689647 
C 69.755536 44.3366 69.276635 44.138232 68.777351 44.138232 
C 68.278067 44.138232 67.799165 44.3366 67.446118 44.689647 
C 67.093071 45.042694 66.894703 45.521596 66.894703 46.02088 
C 66.894703 46.520164 67.093071 46.999066 67.446118 47.352113 
C 67.799165 47.70516 68.278067 47.903527 68.777351 47.903527 
z
" clip-path="url(#p90cefd24fa)" style="stroke: #000000"/>
    <path d="M 89.382831 155.539166 
C 89.975843 155.539166 90.544647 155.30356 90.96397 154.884237 
C 91.383293 154.464914 91.618899 153.89611 91.618899 153.303098 
C 91.618899 152.710086 91.383293 152.141282 90.96397 151.721959 
C 90.544647 151.302637 89.975843 151.06703 89.382831 151.06703 
C 88.789819 151.06703 88.221015 151.302637 87.801692 151.721959 
C 87.382369 152.141282 87.146763 152.710086 87.146763 153.303098 
C 87.146763 153.89611 87.382369 154.464914 87.801692 154.884237 
C 88.221015 155.30356 88.789819 155.539166 89.382831 155.539166 
z
" clip-path="url(#p90cefd24fa)" style="stroke: #000000"/>
    <path d="M 87.937242 131.942905 
C 88.135528 131.942905 88.325719 131.864125 88.465928 131.723916 
C 88.606137 131.583707 88.684916 131.393516 88.684916 131.195231 
C 88.684916 130.996945 88.606137 130.806754 88.465928 130.666545 
C 88.325719 130.526336 88.135528 130.447556 87.937242 130.447556 
C 87.738956 130.447556 87.548765 130.526336 87.408556 130.666545 
C 87.268347 130.806754 87.189568 130.996945 87.189568 131.195231 
C 87.189568 131.393516 87.268347 131.583707 87.408556 131.723916 
C 87.548765 131.864125 87.738956 131.942905 87.937242 131.942905 
z
" clip-path="url(#p90cefd24fa)" style="stroke: #000000"/>
    <path d="M 78.618985 122.349297 
C 79.058775 122.349297 79.480611 122.174566 79.791589 121.863588 
C 80.102568 121.55261 80.277298 121.130774 80.277298 120.690984 
C 80.277298 120.251195 80.102568 119.829358 79.791589 119.51838 
C 79.480611 119.207402 79.058775 119.032672 78.618985 119.032672 
C 78.179196 119.032672 77.75736 119.207402 77.446381 119.51838 
C 77.135403 119.829358 76.960673 120.251195 76.960673 120.690984 
C 76.960673 121.130774 77.135403 121.55261 77.446381 121.863588 
C 77.75736 122.174566 78.179196 122.349297 78.618985 122.349297 
z
" clip-path="url(#p90cefd24fa)" style="stroke: #000000"/>
    <path d="M 76.464276 110.930445 
C 76.991547 110.930445 77.497293 110.720958 77.870129 110.348121 
C 78.242966 109.975285 78.452453 109.469539 78.452453 108.942268 
C 78.452453 108.414997 78.242966 107.909251 77.870129 107.536415 
C 77.497293 107.163578 76.991547 106.954091 76.464276 106.954091 
C 75.937005 106.954091 75.431259 107.163578 75.058423 107.536415 
C 74.685586 107.909251 74.476099 108.414997 74.476099 108.942268 
C 74.476099 109.469539 74.685586 109.975285 75.058423 110.348121 
C 75.431259 110.720958 75.937005 110.930445 76.464276 110.930445 
z
" clip-path="url(#p90cefd24fa)" style="stroke: #000000"/>
    <path d="M 76.488574 104.422433 
C 76.92927 104.422433 77.351975 104.247343 77.663594 103.935724 
C 77.975212 103.624105 78.150302 103.2014 78.150302 102.760705 
C 78.150302 102.320009 77.975212 101.897304 77.663594 101.585686 
C 77.351975 101.274067 76.92927 101.098977 76.488574 101.098977 
C 76.047879 101.098977 75.625174 101.274067 75.313555 101.585686 
C 75.001936 101.897304 74.826846 102.320009 74.826846 102.760705 
C 74.826846 103.2014 75.001936 103.624105 75.313555 103.935724 
C 75.625174 104.247343 76.047879 104.422433 76.488574 104.422433 
z
" clip-path="url(#p90cefd24fa)" style="stroke: #000000"/>
    <path d="M 71.933478 89.607351 
C 72.52649 89.607351 73.095294 89.371744 73.514617 88.952421 
C 73.93394 88.533099 74.169546 87.964295 74.169546 87.371283 
C 74.169546 86.778271 73.93394 86.209467 73.514617 85.790144 
C 73.095294 85.370821 72.52649 85.135215 71.933478 85.135215 
C 71.340466 85.135215 70.771662 85.370821 70.352339 85.790144 
C 69.933016 86.209467 69.69741 86.778271 69.69741 87.371283 
C 69.69741 87.964295 69.933016 88.533099 70.352339 88.952421 
C 70.771662 89.371744 71.340466 89.607351 71.933478 89.607351 
z
" clip-path="url(#p90cefd24fa)" style="stroke: #000000"/>
    <path d="M 64.228764 80.756525 
C 64.555802 80.756525 64.86949 80.626591 65.100741 80.39534 
C 65.331993 80.164088 65.461926 79.8504 65.461926 79.523362 
C 65.461926 79.196323 65.331993 78.882635 65.100741 78.651384 
C 64.86949 78.420133 64.555802 78.290199 64.228764 78.290199 
C 63.901725 78.290199 63.588037 78.420133 63.356786 78.651384 
C 63.125535 78.882635 62.995601 79.196323 62.995601 79.523362 
C 62.995601 79.8504 63.125535 80.164088 63.356786 80.39534 
C 63.588037 80.626591 63.901725 80.756525 64.228764 80.756525 
z
" clip-path="url(#p90cefd24fa)" style="stroke: #000000"/>
    <path d="M 89.612146 177.124885 
C 90.11143 177.124885 90.590332 176.926517 90.943379 176.57347 
C 91.296426 176.220423 91.494794 175.741522 91.494794 175.242238 
C 91.494794 174.742954 91.296426 174.264052 90.943379 173.911005 
C 90.590332 173.557958 90.11143 173.35959 89.612146 173.35959 
C 89.112862 173.35959 88.63396 173.557958 88.280913 173.911005 
C 87.927866 174.264052 87.729499 174.742954 87.729499 175.242238 
C 87.729499 175.741522 87.927866 176.220423 88.280913 176.57347 
C 88.63396 176.926517 89.112862 177.124885 89.612146 177.124885 
z
" clip-path="url(#p90cefd24fa)" style="stroke: #000000"/>
    <path d="M 72.616074 134.124528 
C 72.748676 134.124528 72.875864 134.071845 72.969628 133.978082 
C 73.063391 133.884318 73.116074 133.75713 73.116074 133.624528 
C 73.116074 133.491927 73.063391 133.364738 72.969628 133.270975 
C 72.875864 133.177212 72.748676 133.124528 72.616074 133.124528 
C 72.483473 133.124528 72.356284 133.177212 72.262521 133.270975 
C 72.168758 133.364738 72.116074 133.491927 72.116074 133.624528 
C 72.116074 133.75713 72.168758 133.884318 72.262521 133.978082 
C 72.356284 134.071845 72.483473 134.124528 72.616074 134.124528 
z
" clip-path="url(#p90cefd24fa)" style="stroke: #000000"/>
    <path d="M 67.07251 105.636715 
C 67.608524 105.636715 68.122657 105.423754 68.501676 105.044735 
C 68.880696 104.665715 69.093656 104.151583 69.093656 103.615568 
C 69.093656 103.079554 68.880696 102.565421 68.501676 102.186402 
C 68.122657 101.807382 67.608524 101.594422 67.07251 101.594422 
C 66.536495 101.594422 66.022363 101.807382 65.643343 102.186402 
C 65.264324 102.565421 65.051363 103.079554 65.051363 103.615568 
C 65.051363 104.151583 65.264324 104.665715 65.643343 105.044735 
C 66.022363 105.423754 66.536495 105.636715 67.07251 105.636715 
z
" clip-path="url(#p90cefd24fa)" style="stroke: #000000"/>
    <path d="M 57.287197 88.067306 
C 57.880579 88.067306 58.449738 87.831553 58.869323 87.411968 
C 59.288908 86.992383 59.524661 86.423224 59.524661 85.829842 
C 59.524661 85.236459 59.288908 84.667301 58.869323 84.247716 
C 58.449738 83.828131 57.880579 83.592378 57.287197 83.592378 
C 56.693815 83.592378 56.124656 83.828131 55.705071 84.247716 
C 55.285486 84.667301 55.049733 85.236459 55.049733 85.829842 
C 55.049733 86.423224 55.285486 86.992383 55.705071 87.411968 
C 56.124656 87.831553 56.693815 88.067306 57.287197 88.067306 
z
" clip-path="url(#p90cefd24fa)" style="stroke: #000000"/>
    <path d="M 49.836179 56.13019 
C 50.335463 56.13019 50.814365 55.931823 51.167412 55.578775 
C 51.520459 55.225728 51.718826 54.746827 51.718826 54.247543 
C 51.718826 53.748259 51.520459 53.269357 51.167412 52.91631 
C 50.814365 52.563263 50.335463 52.364895 49.836179 52.364895 
C 49.336895 52.364895 48.857993 52.563263 48.504946 52.91631 
C 48.151899 53.269357 47.953531 53.748259 47.953531 54.247543 
C 47.953531 54.746827 48.151899 55.225728 48.504946 55.578775 
C 48.857993 55.931823 49.336895 56.13019 49.836179 56.13019 
z
" clip-path="url(#p90cefd24fa)" style="stroke: #000000"/>
    <path d="M 68.02785 162.752513 
C 68.576929 162.752513 69.103594 162.534361 69.491852 162.146103 
C 69.88011 161.757845 70.098262 161.23118 70.098262 160.6821 
C 70.098262 160.133021 69.88011 159.606356 69.491852 159.218098 
C 69.103594 158.82984 68.576929 158.611688 68.02785 158.611688 
C 67.47877 158.611688 66.952105 158.82984 66.563847 159.218098 
C 66.175589 159.606356 65.957437 160.133021 65.957437 160.6821 
C 65.957437 161.23118 66.175589 161.757845 66.563847 162.146103 
C 66.952105 162.534361 67.47877 162.752513 68.02785 162.752513 
z
" clip-path="url(#p90cefd24fa)" style="stroke: #000000"/>
    <path d="M 67.370581 151.364906 
C 67.788852 151.364906 68.190048 151.198725 68.48581 150.902963 
C 68.781572 150.607201 68.947752 150.206005 68.947752 149.787735 
C 68.947752 149.369464 68.781572 148.968268 68.48581 148.672506 
C 68.190048 148.376744 67.788852 148.210564 67.370581 148.210564 
C 66.952311 148.210564 66.551115 148.376744 66.255353 148.672506 
C 65.959591 148.968268 65.79341 149.369464 65.79341 149.787735 
C 65.79341 150.206005 65.959591 150.607201 66.255353 150.902963 
C 66.551115 151.198725 66.952311 151.364906 67.370581 151.364906 
z
" clip-path="url(#p90cefd24fa)" style="stroke: #000000"/>
    <path d="M 57.681088 132.505557 
C 58.274471 132.505557 58.84363 132.269803 59.263214 131.850218 
C 59.682799 131.430634 59.918552 130.861475 59.918552 130.268092 
C 59.918552 129.67471 59.682799 129.105551 59.263214 128.685966 
C 58.84363 128.266381 58.274471 128.030628 57.681088 128.030628 
C 57.087706 128.030628 56.518547 128.266381 56.098962 128.685966 
C 55.679377 129.105551 55.443624 129.67471 55.443624 130.268092 
C 55.443624 130.861475 55.679377 131.430634 56.098962 131.850218 
C 56.518547 132.269803 57.087706 132.505557 57.681088 132.505557 
z
" clip-path="url(#p90cefd24fa)" style="stroke: #000000"/>
    <path d="M 59.792903 121.410509 
C 60.386285 121.410509 60.955444 121.174755 61.375029 120.75517 
C 61.794614 120.335586 62.030367 119.766427 62.030367 119.173044 
C 62.030367 118.579662 61.794614 118.010503 61.375029 117.590918 
C 60.955444 117.171334 60.386285 116.93558 59.792903 116.93558 
C 59.199521 116.93558 58.630362 117.171334 58.210777 117.590918 
C 57.791192 118.010503 57.555439 118.579662 57.555439 119.173044 
C 57.555439 119.766427 57.791192 120.335586 58.210777 120.75517 
C 58.630362 121.174755 59.199521 121.410509 59.792903 121.410509 
z
" clip-path="url(#p90cefd24fa)" style="stroke: #000000"/>
    <path d="M 53.433592 110.913779 
C 54.026604 110.913779 54.595408 110.678173 55.014731 110.25885 
C 55.434053 109.839527 55.66966 109.270723 55.66966 108.677711 
C 55.66966 108.084699 55.434053 107.515895 55.014731 107.096572 
C 54.595408 106.677249 54.026604 106.441643 53.433592 106.441643 
C 52.84058 106.441643 52.271776 106.677249 51.852453 107.096572 
C 51.43313 107.515895 51.197524 108.084699 51.197524 108.677711 
C 51.197524 109.270723 51.43313 109.839527 51.852453 110.25885 
C 52.271776 110.678173 52.84058 110.913779 53.433592 110.913779 
z
" clip-path="url(#p90cefd24fa)" style="stroke: #000000"/>
    <path d="M 47.645284 90.516079 
C 48.238296 90.516079 48.8071 90.280473 49.226423 89.86115 
C 49.645746 89.441827 49.881352 88.873024 49.881352 88.280011 
C 49.881352 87.686999 49.645746 87.118195 49.226423 86.698873 
C 48.8071 86.27955 48.238296 86.043943 47.645284 86.043943 
C 47.052272 86.043943 46.483468 86.27955 46.064145 86.698873 
C 45.644822 87.118195 45.409216 87.686999 45.409216 88.280011 
C 45.409216 88.873024 45.644822 89.441827 46.064145 89.86115 
C 46.483468 90.280473 47.052272 90.516079 47.645284 90.516079 
z
" clip-path="url(#p90cefd24fa)" style="stroke: #000000"/>
    <path d="M 38.70288 77.293095 
C 39.085053 77.293095 39.451626 77.141256 39.721864 76.871018 
C 39.992101 76.60078 40.14394 76.234208 40.14394 75.852034 
C 40.14394 75.46986 39.992101 75.103288 39.721864 74.83305 
C 39.451626 74.562813 39.085053 74.410973 38.70288 74.410973 
C 38.320706 74.410973 37.954134 74.562813 37.683896 74.83305 
C 37.413658 75.103288 37.261819 75.46986 37.261819 75.852034 
C 37.261819 76.234208 37.413658 76.60078 37.683896 76.871018 
C 37.954134 77.141256 38.320706 77.293095 38.70288 77.293095 
z
" clip-path="url(#p90cefd24fa)" style="stroke: #000000"/>
    <path d="M 62.366131 165.681164 
C 62.865415 165.681164 63.344317 165.482797 63.697364 165.129749 
C 64.050411 164.776702 64.248779 164.297801 64.248779 163.798517 
C 64.248779 163.299233 64.050411 162.820331 63.697364 162.467284 
C 63.344317 162.114237 62.865415 161.915869 62.366131 161.915869 
C 61.866847 161.915869 61.387946 162.114237 61.034899 162.467284 
C 60.681852 162.820331 60.483484 163.299233 60.483484 163.798517 
C 60.483484 164.297801 60.681852 164.776702 61.034899 165.129749 
C 61.387946 165.482797 61.866847 165.681164 62.366131 165.681164 
z
" clip-path="url(#p90cefd24fa)" style="stroke: #000000"/>
    <path d="M 56.017739 143.115303 
C 56.610751 143.115303 57.179555 142.879697 57.598878 142.460374 
C 58.018201 142.041051 58.253807 141.472247 58.253807 140.879235 
C 58.253807 140.286223 58.018201 139.717419 57.598878 139.298096 
C 57.179555 138.878774 56.610751 138.643167 56.017739 138.643167 
C 55.424727 138.643167 54.855923 138.878774 54.4366 139.298096 
C 54.017277 139.717419 53.781671 140.286223 53.781671 140.879235 
C 53.781671 141.472247 54.017277 142.041051 54.4366 142.460374 
C 54.855923 142.879697 55.424727 143.115303 56.017739 143.115303 
z
" clip-path="url(#p90cefd24fa)" style="stroke: #000000"/>
    <path d="M 50.831674 129.443928 
C 51.424687 129.443928 51.99349 129.208322 52.412813 128.788999 
C 52.832136 128.369676 53.067742 127.800872 53.067742 127.20786 
C 53.067742 126.614848 52.832136 126.046044 52.412813 125.626721 
C 51.99349 125.207398 51.424687 124.971792 50.831674 124.971792 
C 50.238662 124.971792 49.669859 125.207398 49.250536 125.626721 
C 48.831213 126.046044 48.595606 126.614848 48.595606 127.20786 
C 48.595606 127.800872 48.831213 128.369676 49.250536 128.788999 
C 49.669859 129.208322 50.238662 129.443928 50.831674 129.443928 
z
" clip-path="url(#p90cefd24fa)" style="stroke: #000000"/>
    <path d="M 51.638802 124.745026 
C 52.231814 124.745026 52.800618 124.50942 53.219941 124.090097 
C 53.639264 123.670774 53.87487 123.10197 53.87487 122.508958 
C 53.87487 121.915946 53.639264 121.347142 53.219941 120.927819 
C 52.800618 120.508497 52.231814 120.27289 51.638802 120.27289 
C 51.04579 120.27289 50.476986 120.508497 50.057663 120.927819 
C 49.63834 121.347142 49.402734 121.915946 49.402734 122.508958 
C 49.402734 123.10197 49.63834 123.670774 50.057663 124.090097 
C 50.476986 124.50942 51.04579 124.745026 51.638802 124.745026 
z
" clip-path="url(#p90cefd24fa)" style="stroke: #000000"/>
    <path d="M 41.107961 112.213759 
C 41.700973 112.213759 42.269776 111.978153 42.689099 111.55883 
C 43.108422 111.139507 43.344028 110.570704 43.344028 109.977691 
C 43.344028 109.384679 43.108422 108.815875 42.689099 108.396553 
C 42.269776 107.97723 41.700973 107.741623 41.107961 107.741623 
C 40.514948 107.741623 39.946145 107.97723 39.526822 108.396553 
C 39.107499 108.815875 38.871893 109.384679 38.871893 109.977691 
C 38.871893 110.570704 39.107499 111.139507 39.526822 111.55883 
C 39.946145 111.978153 40.514948 112.213759 41.107961 112.213759 
z
" clip-path="url(#p90cefd24fa)" style="stroke: #000000"/>
    <path d="M 39.048288 90.130982 
C 39.577656 90.130982 40.085413 89.920662 40.459732 89.546343 
C 40.834051 89.172024 41.044371 88.664267 41.044371 88.134899 
C 41.044371 87.605532 40.834051 87.097775 40.459732 86.723456 
C 40.085413 86.349137 39.577656 86.138817 39.048288 86.138817 
C 38.518921 86.138817 38.011164 86.349137 37.636845 86.723456 
C 37.262526 87.097775 37.052206 87.605532 37.052206 88.134899 
C 37.052206 88.664267 37.262526 89.172024 37.636845 89.546343 
C 38.011164 89.920662 38.518921 90.130982 39.048288 90.130982 
z
" clip-path="url(#p90cefd24fa)" style="stroke: #000000"/>
    <path d="M 34.885801 136.511286 
C 35.21284 136.511286 35.526528 136.381353 35.757779 136.150101 
C 35.98903 135.91885 36.118964 135.605162 36.118964 135.278124 
C 36.118964 134.951085 35.98903 134.637397 35.757779 134.406146 
C 35.526528 134.174895 35.21284 134.044961 34.885801 134.044961 
C 34.558763 134.044961 34.245075 134.174895 34.013823 134.406146 
C 33.782572 134.637397 33.652638 134.951085 33.652638 135.278124 
C 33.652638 135.605162 33.782572 135.91885 34.013823 136.150101 
C 34.245075 136.381353 34.558763 136.511286 34.885801 136.511286 
z
" clip-path="url(#p90cefd24fa)" style="stroke: #000000"/>
    <path d="M 38.313824 126.623356 
C 38.906836 126.623356 39.47564 126.38775 39.894963 125.968427 
C 40.314286 125.549104 40.549892 124.980301 40.549892 124.387288 
C 40.549892 123.794276 40.314286 123.225473 39.894963 122.80615 
C 39.47564 122.386827 38.906836 122.15122 38.313824 122.15122 
C 37.720812 122.15122 37.152008 122.386827 36.732685 122.80615 
C 36.313363 123.225473 36.077756 123.794276 36.077756 124.387288 
C 36.077756 124.980301 36.313363 125.549104 36.732685 125.968427 
C 37.152008 126.38775 37.720812 126.623356 38.313824 126.623356 
z
" clip-path="url(#p90cefd24fa)" style="stroke: #000000"/>
    <path d="M 32.853914 148.727747 
C 33.354436 148.727747 33.834524 148.528888 34.188446 148.174966 
C 34.542368 147.821044 34.741228 147.340955 34.741228 146.840434 
C 34.741228 146.339913 34.542368 145.859824 34.188446 145.505902 
C 33.834524 145.15198 33.354436 144.953121 32.853914 144.953121 
C 32.353393 144.953121 31.873304 145.15198 31.519382 145.505902 
C 31.16546 145.859824 30.966601 146.339913 30.966601 146.840434 
C 30.966601 147.340955 31.16546 147.821044 31.519382 148.174966 
C 31.873304 148.528888 32.353393 148.727747 32.853914 148.727747 
z
" clip-path="url(#p90cefd24fa)" style="stroke: #000000"/>
   </g>
   <g id="matplotlib.axis_1">
    <g id="xtick_1">
     <g id="line2d_1">
      <defs>
       <path id="m75b3432c46" d="M 0 0 
L 0 3.5 
" style="stroke: #000000; stroke-width: 0.8"/>
      </defs>
      <g>
       <use xlink:href="#m75b3432c46" x="18" y="189" style="stroke: #000000; stroke-width: 0.8"/>
      </g>
     </g>
     <g id="text_1">
      <!-- −10 -->
      <g transform="translate(7.447656 203.598437)scale(0.1 -0.1)">
       <defs>
        <path id="DejaVuSans-2212" d="M 678 2272 
L 4684 2272 
L 4684 1741 
L 678 1741 
L 678 2272 
z
" transform="scale(0.015625)"/>
        <path id="DejaVuSans-31" d="M 794 531 
L 1825 531 
L 1825 4091 
L 703 3866 
L 703 4441 
L 1819 4666 
L 2450 4666 
L 2450 531 
L 3481 531 
L 3481 0 
L 794 0 
L 794 531 
z
" transform="scale(0.015625)"/>
        <path id="DejaVuSans-30" d="M 2034 4250 
Q 1547 4250 1301 3770 
Q 1056 3291 1056 2328 
Q 1056 1369 1301 889 
Q 1547 409 2034 409 
Q 2525 409 2770 889 
Q 3016 1369 3016 2328 
Q 3016 3291 2770 3770 
Q 2525 4250 2034 4250 
z
M 2034 4750 
Q 2819 4750 3233 4129 
Q 3647 3509 3647 2328 
Q 3647 1150 3233 529 
Q 2819 -91 2034 -91 
Q 1250 -91 836 529 
Q 422 1150 422 2328 
Q 422 3509 836 4129 
Q 1250 4750 2034 4750 
z
" transform="scale(0.015625)"/>
       </defs>
       <use xlink:href="#DejaVuSans-2212"/>
       <use xlink:href="#DejaVuSans-31" x="83.789062"/>
       <use xlink:href="#DejaVuSans-30" x="147.412109"/>
      </g>
     </g>
    </g>
    <g id="xtick_2">
     <g id="line2d_2">
      <g>
       <use xlink:href="#m75b3432c46" x="73.8" y="189" style="stroke: #000000; stroke-width: 0.8"/>
      </g>
     </g>
     <g id="text_2">
      <!-- 0 -->
      <g transform="translate(70.61875 203.598437)scale(0.1 -0.1)">
       <use xlink:href="#DejaVuSans-30"/>
      </g>
     </g>
    </g>
    <g id="xtick_3">
     <g id="line2d_3">
      <g>
       <use xlink:href="#m75b3432c46" x="129.6" y="189" style="stroke: #000000; stroke-width: 0.8"/>
      </g>
     </g>
     <g id="text_3">
      <!-- 10 -->
      <g transform="translate(123.2375 203.598437)scale(0.1 -0.1)">
       <use xlink:href="#DejaVuSans-31"/>
       <use xlink:href="#DejaVuSans-30" x="63.623047"/>
      </g>
     </g>
    </g>
   </g>
   <g id="matplotlib.axis_2">
    <g id="ytick_1">
     <g id="line2d_4">
      <defs>
       <path id="md7b5c80e3b" d="M 0 0 
L -3.5 0 
" style="stroke: #000000; stroke-width: 0.8"/>
      </defs>
      <g>
       <use xlink:href="#md7b5c80e3b" x="18" y="189" style="stroke: #000000; stroke-width: 0.8"/>
      </g>
     </g>
     <g id="text_4">
      <!-- −15 -->
      <g transform="translate(-10.104688 192.799219)scale(0.1 -0.1)">
       <defs>
        <path id="DejaVuSans-35" d="M 691 4666 
L 3169 4666 
L 3169 4134 
L 1269 4134 
L 1269 2991 
Q 1406 3038 1543 3061 
Q 1681 3084 1819 3084 
Q 2600 3084 3056 2656 
Q 3513 2228 3513 1497 
Q 3513 744 3044 326 
Q 2575 -91 1722 -91 
Q 1428 -91 1123 -41 
Q 819 9 494 109 
L 494 744 
Q 775 591 1075 516 
Q 1375 441 1709 441 
Q 2250 441 2565 725 
Q 2881 1009 2881 1497 
Q 2881 1984 2565 2268 
Q 2250 2553 1709 2553 
Q 1456 2553 1204 2497 
Q 953 2441 691 2322 
L 691 4666 
z
" transform="scale(0.015625)"/>
       </defs>
       <use xlink:href="#DejaVuSans-2212"/>
       <use xlink:href="#DejaVuSans-31" x="83.789062"/>
       <use xlink:href="#DejaVuSans-35" x="147.412109"/>
      </g>
     </g>
    </g>
    <g id="ytick_2">
     <g id="line2d_5">
      <g>
       <use xlink:href="#md7b5c80e3b" x="18" y="161.82" style="stroke: #000000; stroke-width: 0.8"/>
      </g>
     </g>
     <g id="text_5">
      <!-- −10 -->
      <g transform="translate(-10.104688 165.619219)scale(0.1 -0.1)">
       <use xlink:href="#DejaVuSans-2212"/>
       <use xlink:href="#DejaVuSans-31" x="83.789062"/>
       <use xlink:href="#DejaVuSans-30" x="147.412109"/>
      </g>
     </g>
    </g>
    <g id="ytick_3">
     <g id="line2d_6">
      <g>
       <use xlink:href="#md7b5c80e3b" x="18" y="134.64" style="stroke: #000000; stroke-width: 0.8"/>
      </g>
     </g>
     <g id="text_6">
      <!-- −5 -->
      <g transform="translate(-3.742188 138.439219)scale(0.1 -0.1)">
       <use xlink:href="#DejaVuSans-2212"/>
       <use xlink:href="#DejaVuSans-35" x="83.789062"/>
      </g>
     </g>
    </g>
    <g id="ytick_4">
     <g id="line2d_7">
      <g>
       <use xlink:href="#md7b5c80e3b" x="18" y="107.46" style="stroke: #000000; stroke-width: 0.8"/>
      </g>
     </g>
     <g id="text_7">
      <!-- 0 -->
      <g transform="translate(4.6375 111.259219)scale(0.1 -0.1)">
       <use xlink:href="#DejaVuSans-30"/>
      </g>
     </g>
    </g>
    <g id="ytick_5">
     <g id="line2d_8">
      <g>
       <use xlink:href="#md7b5c80e3b" x="18" y="80.28" style="stroke: #000000; stroke-width: 0.8"/>
      </g>
     </g>
     <g id="text_8">
      <!-- 5 -->
      <g transform="translate(4.6375 84.079219)scale(0.1 -0.1)">
       <use xlink:href="#DejaVuSans-35"/>
      </g>
     </g>
    </g>
    <g id="ytick_6">
     <g id="line2d_9">
      <g>
       <use xlink:href="#md7b5c80e3b" x="18" y="53.1" style="stroke: #000000; stroke-width: 0.8"/>
      </g>
     </g>
     <g id="text_9">
      <!-- 10 -->
      <g transform="translate(-1.725 56.899219)scale(0.1 -0.1)">
       <use xlink:href="#DejaVuSans-31"/>
       <use xlink:href="#DejaVuSans-30" x="63.623047"/>
      </g>
     </g>
    </g>
    <g id="ytick_7">
     <g id="line2d_10">
      <g>
       <use xlink:href="#md7b5c80e3b" x="18" y="25.92" style="stroke: #000000; stroke-width: 0.8"/>
      </g>
     </g>
     <g id="text_10">
      <!-- 15 -->
      <g transform="translate(-1.725 29.719219)scale(0.1 -0.1)">
       <use xlink:href="#DejaVuSans-31"/>
       <use xlink:href="#DejaVuSans-35" x="63.623047"/>
      </g>
     </g>
    </g>
   </g>
   <g id="patch_3">
    <path d="M 18 189 
L 18 25.92 
" style="fill: none; stroke: #000000; stroke-width: 0.8; stroke-linejoin: miter; stroke-linecap: square"/>
   </g>
   <g id="patch_4">
    <path d="M 129.6 189 
L 129.6 25.92 
" style="fill: none; stroke: #000000; stroke-width: 0.8; stroke-linejoin: miter; stroke-linecap: square"/>
   </g>
   <g id="patch_5">
    <path d="M 18 189 
L 129.6 189 
" style="fill: none; stroke: #000000; stroke-width: 0.8; stroke-linejoin: miter; stroke-linecap: square"/>
   </g>
   <g id="patch_6">
    <path d="M 18 25.92 
L 129.6 25.92 
" style="fill: none; stroke: #000000; stroke-width: 0.8; stroke-linejoin: miter; stroke-linecap: square"/>
   </g>
  </g>
 </g>
 <defs>
  <clipPath id="p90cefd24fa">
   <rect x="18" y="25.92" width="111.6" height="163.08"/>
  </clipPath>
 </defs>
</svg>
