<?xml version="1.0" encoding="utf-8" standalone="no"?>
<!DOCTYPE svg PUBLIC "-//W3C//DTD SVG 1.1//EN"
  "http://www.w3.org/Graphics/SVG/1.1/DTD/svg11.dtd">
<svg xmlns:xlink="http://www.w3.org/1999/xlink" width="144pt" height="216pt" viewBox="0 0 144 216" xmlns="http://www.w3.org/2000/svg" version="1.1">
 <metadata>
  <rdf:RDF xmlns:dc="http://purl.org/dc/elements/1.1/" xmlns:cc="http://creativecommons.org/ns#" xmlns:rdf="http://www.w3.org/1999/02/22-rdf-syntax-ns#">
   <cc:Work>
    <dc:type rdf:resource="http://purl.org/dc/dcmitype/StillImage"/>
    <dc:date>2022-06-23T14:52:28.155610</dc:date>
    <dc:format>image/svg+xml</dc:format>
    <dc:creator>
     <cc:Agent>
      <dc:title>Matplotlib v3.5.1, https://matplotlib.org/</dc:title>
     </cc:Agent>
    </dc:creator>
   </cc:Work>
  </rdf:RDF>
 </metadata>
 <defs>
  <style type="text/css">*{stroke-linejoin: round; stroke-linecap: butt}</style>
 </defs>
 <g id="figure_1">
  <g id="patch_1">
   <path d="M 0 216 
L 144 216 
L 144 0 
L 0 0 
L 0 216 
z
" style="fill: none"/>
  </g>
  <g id="axes_1">
   <g id="patch_2">
    <path d="M 18 189 
L 129.6 189 
L 129.6 25.92 
L 18 25.92 
z
" style="fill: #ffffff"/>
   </g>
   <g id="PathCollection_1">
    <defs>
     <path id="me05581a5a6" d="M 0 2.738613 
C 0.726289 2.738613 1.422928 2.450055 1.936492 1.936492 
C 2.450055 1.422928 2.738613 0.726289 2.738613 0 
C 2.738613 -0.726289 2.450055 -1.422928 1.936492 -1.936492 
C 1.422928 -2.450055 0.726289 -2.738613 0 -2.738613 
C -0.726289 -2.738613 -1.422928 -2.450055 -1.936492 -1.936492 
C -2.450055 -1.422928 -2.738613 -0.726289 -2.738613 0 
C -2.738613 0.726289 -2.450055 1.422928 -1.936492 1.936492 
C -1.422928 2.450055 -0.726289 2.738613 0 2.738613 
z
" style="stroke: #ff0000; stroke-width: 1.75"/>
    </defs>
    <g clip-path="url(#p55ae2d0f2b)">
     <use xlink:href="#me05581a5a6" x="80.775" y="107.46" style="fill: #ff0000; stroke: #ff0000; stroke-width: 1.75"/>
     <use xlink:href="#me05581a5a6" x="94.725" y="107.46" style="fill: #ff0000; stroke: #ff0000; stroke-width: 1.75"/>
     <use xlink:href="#me05581a5a6" x="59.85" y="119.229285" style="fill: #ff0000; stroke: #ff0000; stroke-width: 1.75"/>
     <use xlink:href="#me05581a5a6" x="73.8" y="119.229285" style="fill: #ff0000; stroke: #ff0000; stroke-width: 1.75"/>
     <use xlink:href="#me05581a5a6" x="87.75" y="119.229285" style="fill: #ff0000; stroke: #ff0000; stroke-width: 1.75"/>
     <use xlink:href="#me05581a5a6" x="66.825" y="130.99857" style="fill: #ff0000; stroke: #ff0000; stroke-width: 1.75"/>
     <use xlink:href="#me05581a5a6" x="80.775" y="130.99857" style="fill: #ff0000; stroke: #ff0000; stroke-width: 1.75"/>
    </g>
   </g>
   <g id="PathCollection_2">
    <defs>
     <path id="C0_0_01d7d39f8f" d="M 0 2.738613 
C 0.726289 2.738613 1.422928 2.450055 1.936492 1.936492 
C 2.450055 1.422928 2.738613 0.726289 2.738613 -0 
C 2.738613 -0.726289 2.450055 -1.422928 1.936492 -1.936492 
C 1.422928 -2.450055 0.726289 -2.738613 0 -2.738613 
C -0.726289 -2.738613 -1.422928 -2.450055 -1.936492 -1.936492 
C -2.450055 -1.422928 -2.738613 -0.726289 -2.738613 0 
C -2.738613 0.726289 -2.450055 1.422928 -1.936492 1.936492 
C -1.422928 2.450055 -0.726289 2.738613 0 2.738613 
z
"/>
    </defs>
    <g clip-path="url(#p55ae2d0f2b)">
     <use xlink:href="#C0_0_01d7d39f8f" x="66.825" y="83.92143" style="fill: none; stroke: #ff0000; stroke-width: 1.75"/>
    </g>
    <g clip-path="url(#p55ae2d0f2b)">
     <use xlink:href="#C0_0_01d7d39f8f" x="80.775" y="83.92143" style="fill: none; stroke: #ff0000; stroke-width: 1.75"/>
    </g>
    <g clip-path="url(#p55ae2d0f2b)">
     <use xlink:href="#C0_0_01d7d39f8f" x="59.85" y="95.690715" style="fill: none; stroke: #ff0000; stroke-width: 1.75"/>
    </g>
    <g clip-path="url(#p55ae2d0f2b)">
     <use xlink:href="#C0_0_01d7d39f8f" x="73.8" y="95.690715" style="fill: none; stroke: #ff0000; stroke-width: 1.75"/>
    </g>
    <g clip-path="url(#p55ae2d0f2b)">
     <use xlink:href="#C0_0_01d7d39f8f" x="87.75" y="95.690715" style="fill: none; stroke: #ff0000; stroke-width: 1.75"/>
    </g>
    <g clip-path="url(#p55ae2d0f2b)">
     <use xlink:href="#C0_0_01d7d39f8f" x="52.875" y="107.46" style="fill: none; stroke: #ff0000; stroke-width: 1.75"/>
    </g>
    <g clip-path="url(#p55ae2d0f2b)">
     <use xlink:href="#C0_0_01d7d39f8f" x="66.825" y="107.46" style="fill: none; stroke: #ff0000; stroke-width: 1.75"/>
    </g>
   </g>
   <g id="PathCollection_3">
    <path d="M 114.616673 102.214651 
C 114.749275 102.214651 114.876463 102.161968 114.970226 102.068204 
C 115.06399 101.974441 115.116673 101.847252 115.116673 101.714651 
C 115.116673 101.582049 115.06399 101.454861 114.970226 101.361097 
C 114.876463 101.267334 114.749275 101.214651 114.616673 101.214651 
C 114.484072 101.214651 114.356883 101.267334 114.26312 101.361097 
C 114.169356 101.454861 114.116673 101.582049 114.116673 101.714651 
C 114.116673 101.847252 114.169356 101.974441 114.26312 102.068204 
C 114.356883 102.161968 114.484072 102.214651 114.616673 102.214651 
z
" clip-path="url(#p55ae2d0f2b)" style="stroke: #000000"/>
    <path d="M 111.685126 110.706066 
C 111.892658 110.706066 112.091719 110.623613 112.238467 110.476865 
C 112.385214 110.330117 112.467668 110.131057 112.467668 109.923524 
C 112.467668 109.715991 112.385214 109.516931 112.238467 109.370183 
C 112.091719 109.223435 111.892658 109.140982 111.685126 109.140982 
C 111.477593 109.140982 111.278533 109.223435 111.131785 109.370183 
C 110.985037 109.516931 110.902583 109.715991 110.902583 109.923524 
C 110.902583 110.131057 110.985037 110.330117 111.131785 110.476865 
C 111.278533 110.623613 111.477593 110.706066 111.685126 110.706066 
z
" clip-path="url(#p55ae2d0f2b)" style="stroke: #000000"/>
    <path d="M 113.146068 137.908548 
C 113.27867 137.908548 113.405858 137.855865 113.499622 137.762102 
C 113.593385 137.668338 113.646068 137.54115 113.646068 137.408548 
C 113.646068 137.275947 113.593385 137.148758 113.499622 137.054995 
C 113.405858 136.961232 113.27867 136.908548 113.146068 136.908548 
C 113.013467 136.908548 112.886278 136.961232 112.792515 137.054995 
C 112.698751 137.148758 112.646068 137.275947 112.646068 137.408548 
C 112.646068 137.54115 112.698751 137.668338 112.792515 137.762102 
C 112.886278 137.855865 113.013467 137.908548 113.146068 137.908548 
z
" clip-path="url(#p55ae2d0f2b)" style="stroke: #000000"/>
    <path d="M 107.930561 124.599392 
C 108.063162 124.599392 108.190351 124.546709 108.284114 124.452945 
C 108.377877 124.359182 108.430561 124.231993 108.430561 124.099392 
C 108.430561 123.96679 108.377877 123.839602 108.284114 123.745838 
C 108.190351 123.652075 108.063162 123.599392 107.930561 123.599392 
C 107.797959 123.599392 107.670771 123.652075 107.577007 123.745838 
C 107.483244 123.839602 107.430561 123.96679 107.430561 124.099392 
C 107.430561 124.231993 107.483244 124.359182 107.577007 124.452945 
C 107.670771 124.546709 107.797959 124.599392 107.930561 124.599392 
z
" clip-path="url(#p55ae2d0f2b)" style="stroke: #000000"/>
    <path d="M 106.07917 112.253825 
C 106.363029 112.253825 106.635301 112.141046 106.83602 111.940327 
C 107.036739 111.739608 107.149517 111.467336 107.149517 111.183477 
C 107.149517 110.899617 107.036739 110.627346 106.83602 110.426627 
C 106.635301 110.225908 106.363029 110.113129 106.07917 110.113129 
C 105.79531 110.113129 105.523039 110.225908 105.32232 110.426627 
C 105.121601 110.627346 105.008822 110.899617 105.008822 111.183477 
C 105.008822 111.467336 105.121601 111.739608 105.32232 111.940327 
C 105.523039 112.141046 105.79531 112.253825 106.07917 112.253825 
z
" clip-path="url(#p55ae2d0f2b)" style="stroke: #000000"/>
    <path d="M 102.062037 107.865561 
C 102.421494 107.865561 102.766277 107.722747 103.020452 107.468573 
C 103.274626 107.214398 103.41744 106.869615 103.41744 106.510158 
C 103.41744 106.150701 103.274626 105.805918 103.020452 105.551744 
C 102.766277 105.297569 102.421494 105.154755 102.062037 105.154755 
C 101.70258 105.154755 101.357797 105.297569 101.103622 105.551744 
C 100.849448 105.805918 100.706634 106.150701 100.706634 106.510158 
C 100.706634 106.869615 100.849448 107.214398 101.103622 107.468573 
C 101.357797 107.722747 101.70258 107.865561 102.062037 107.865561 
z
" clip-path="url(#p55ae2d0f2b)" style="stroke: #000000"/>
    <path d="M 97.475411 95.958865 
C 97.633101 95.958865 97.784355 95.896214 97.895859 95.78471 
C 98.007363 95.673206 98.070014 95.521952 98.070014 95.364262 
C 98.070014 95.206571 98.007363 95.055318 97.895859 94.943813 
C 97.784355 94.832309 97.633101 94.769658 97.475411 94.769658 
C 97.31772 94.769658 97.166467 94.832309 97.054963 94.943813 
C 96.943458 95.055318 96.880807 95.206571 96.880807 95.364262 
C 96.880807 95.521952 96.943458 95.673206 97.054963 95.78471 
C 97.166467 95.896214 97.31772 95.958865 97.475411 95.958865 
z
" clip-path="url(#p55ae2d0f2b)" style="stroke: #000000"/>
    <path d="M 97.335819 88.645442 
C 97.577308 88.645442 97.808938 88.549498 97.979697 88.37874 
C 98.150455 88.207981 98.246399 87.976351 98.246399 87.734862 
C 98.246399 87.493374 98.150455 87.261743 97.979697 87.090985 
C 97.808938 86.920227 97.577308 86.824282 97.335819 86.824282 
C 97.09433 86.824282 96.8627 86.920227 96.691942 87.090985 
C 96.521183 87.261743 96.425239 87.493374 96.425239 87.734862 
C 96.425239 87.976351 96.521183 88.207981 96.691942 88.37874 
C 96.8627 88.549498 97.09433 88.645442 97.335819 88.645442 
z
" clip-path="url(#p55ae2d0f2b)" style="stroke: #000000"/>
    <path d="M 93.946042 82.012264 
C 94.078644 82.012264 94.205832 81.959581 94.299596 81.865817 
C 94.393359 81.772054 94.446042 81.644865 94.446042 81.512264 
C 94.446042 81.379662 94.393359 81.252474 94.299596 81.15871 
C 94.205832 81.064947 94.078644 81.012264 93.946042 81.012264 
C 93.813441 81.012264 93.686253 81.064947 93.592489 81.15871 
C 93.498726 81.252474 93.446042 81.379662 93.446042 81.512264 
C 93.446042 81.644865 93.498726 81.772054 93.592489 81.865817 
C 93.686253 81.959581 93.813441 82.012264 93.946042 82.012264 
z
" clip-path="url(#p55ae2d0f2b)" style="stroke: #000000"/>
    <path d="M 109.951955 148.907349 
C 110.084556 148.907349 110.211745 148.854666 110.305508 148.760902 
C 110.399272 148.667139 110.451955 148.539951 110.451955 148.407349 
C 110.451955 148.274748 110.399272 148.147559 110.305508 148.053796 
C 110.211745 147.960032 110.084556 147.907349 109.951955 147.907349 
C 109.819353 147.907349 109.692165 147.960032 109.598401 148.053796 
C 109.504638 148.147559 109.451955 148.274748 109.451955 148.407349 
C 109.451955 148.539951 109.504638 148.667139 109.598401 148.760902 
C 109.692165 148.854666 109.819353 148.907349 109.951955 148.907349 
z
" clip-path="url(#p55ae2d0f2b)" style="stroke: #000000"/>
    <path d="M 104.999959 126.583478 
C 105.132561 126.583478 105.259749 126.530795 105.353512 126.437032 
C 105.447276 126.343268 105.499959 126.21608 105.499959 126.083478 
C 105.499959 125.950877 105.447276 125.823688 105.353512 125.729925 
C 105.259749 125.636161 105.132561 125.583478 104.999959 125.583478 
C 104.867357 125.583478 104.740169 125.636161 104.646406 125.729925 
C 104.552642 125.823688 104.499959 125.950877 104.499959 126.083478 
C 104.499959 126.21608 104.552642 126.343268 104.646406 126.437032 
C 104.740169 126.530795 104.867357 126.583478 104.999959 126.583478 
z
" clip-path="url(#p55ae2d0f2b)" style="stroke: #000000"/>
    <path d="M 102.659629 123.430136 
C 102.792231 123.430136 102.919419 123.377453 103.013183 123.28369 
C 103.106946 123.189926 103.159629 123.062738 103.159629 122.930136 
C 103.159629 122.797535 103.106946 122.670347 103.013183 122.576583 
C 102.919419 122.48282 102.792231 122.430136 102.659629 122.430136 
C 102.527028 122.430136 102.399839 122.48282 102.306076 122.576583 
C 102.212312 122.670347 102.159629 122.797535 102.159629 122.930136 
C 102.159629 123.062738 102.212312 123.189926 102.306076 123.28369 
C 102.399839 123.377453 102.527028 123.430136 102.659629 123.430136 
z
" clip-path="url(#p55ae2d0f2b)" style="stroke: #000000"/>
    <path d="M 98.789024 114.257191 
C 99.198576 114.257191 99.591409 114.094475 99.881006 113.804878 
C 100.170603 113.515281 100.33332 113.122448 100.33332 112.712896 
C 100.33332 112.303344 100.170603 111.910511 99.881006 111.620914 
C 99.591409 111.331317 99.198576 111.168601 98.789024 111.168601 
C 98.379473 111.168601 97.98664 111.331317 97.697043 111.620914 
C 97.407446 111.910511 97.244729 112.303344 97.244729 112.712896 
C 97.244729 113.122448 97.407446 113.515281 97.697043 113.804878 
C 97.98664 114.094475 98.379473 114.257191 98.789024 114.257191 
z
" clip-path="url(#p55ae2d0f2b)" style="stroke: #000000"/>
    <path d="M 94.502199 110.203104 
C 95.166793 110.203104 95.804255 109.939058 96.274194 109.46912 
C 96.744132 108.999182 97.008178 108.361719 97.008178 107.697126 
C 97.008178 107.032532 96.744132 106.39507 96.274194 105.925131 
C 95.804255 105.455193 95.166793 105.191147 94.502199 105.191147 
C 93.837606 105.191147 93.200143 105.455193 92.730205 105.925131 
C 92.260267 106.39507 91.996221 107.032532 91.996221 107.697126 
C 91.996221 108.361719 92.260267 108.999182 92.730205 109.46912 
C 93.200143 109.939058 93.837606 110.203104 94.502199 110.203104 
z
" clip-path="url(#p55ae2d0f2b)" style="stroke: #000000"/>
    <path d="M 92.916212 106.332555 
C 93.44136 106.332555 93.945071 106.123911 94.316407 105.752575 
C 94.687744 105.381238 94.896388 104.877528 94.896388 104.352379 
C 94.896388 103.82723 94.687744 103.323519 94.316407 102.952183 
C 93.945071 102.580847 93.44136 102.372203 92.916212 102.372203 
C 92.391063 102.372203 91.887352 102.580847 91.516016 102.952183 
C 91.14468 103.323519 90.936036 103.82723 90.936036 104.352379 
C 90.936036 104.877528 91.14468 105.381238 91.516016 105.752575 
C 91.887352 106.123911 92.391063 106.332555 92.916212 106.332555 
z
" clip-path="url(#p55ae2d0f2b)" style="stroke: #000000"/>
    <path d="M 96.551204 95.567723 
C 96.708894 95.567723 96.860148 95.505072 96.971652 95.393568 
C 97.083156 95.282063 97.145807 95.13081 97.145807 94.973119 
C 97.145807 94.815429 97.083156 94.664175 96.971652 94.552671 
C 96.860148 94.441167 96.708894 94.378516 96.551204 94.378516 
C 96.393513 94.378516 96.24226 94.441167 96.130755 94.552671 
C 96.019251 94.664175 95.9566 94.815429 95.9566 94.973119 
C 95.9566 95.13081 96.019251 95.282063 96.130755 95.393568 
C 96.24226 95.505072 96.393513 95.567723 96.551204 95.567723 
z
" clip-path="url(#p55ae2d0f2b)" style="stroke: #000000"/>
    <path d="M 88.19712 84.701409 
C 88.620574 84.701409 89.026743 84.533169 89.32617 84.233741 
C 89.625598 83.934313 89.793838 83.528145 89.793838 83.10469 
C 89.793838 82.681236 89.625598 82.275068 89.32617 81.97564 
C 89.026743 81.676212 88.620574 81.507972 88.19712 81.507972 
C 87.773665 81.507972 87.367497 81.676212 87.068069 81.97564 
C 86.768642 82.275068 86.600401 82.681236 86.600401 83.10469 
C 86.600401 83.528145 86.768642 83.934313 87.068069 84.233741 
C 87.367497 84.533169 87.773665 84.701409 88.19712 84.701409 
z
" clip-path="url(#p55ae2d0f2b)" style="stroke: #000000"/>
    <path d="M 84.167287 80.331612 
C 84.543798 80.331612 84.904938 80.182023 85.171171 79.91579 
C 85.437404 79.649557 85.586993 79.288417 85.586993 78.911907 
C 85.586993 78.535396 85.437404 78.174256 85.171171 77.908023 
C 84.904938 77.64179 84.543798 77.492201 84.167287 77.492201 
C 83.790777 77.492201 83.429637 77.64179 83.163404 77.908023 
C 82.897171 78.174256 82.747582 78.535396 82.747582 78.911907 
C 82.747582 79.288417 82.897171 79.649557 83.163404 79.91579 
C 83.429637 80.182023 83.790777 80.331612 84.167287 80.331612 
z
" clip-path="url(#p55ae2d0f2b)" style="stroke: #000000"/>
    <path d="M 81.482684 67.471756 
C 81.690217 67.471756 81.889277 67.389303 82.036025 67.242555 
C 82.182773 67.095807 82.265226 66.896747 82.265226 66.689214 
C 82.265226 66.481681 82.182773 66.282621 82.036025 66.135873 
C 81.889277 65.989125 81.690217 65.906672 81.482684 65.906672 
C 81.275151 65.906672 81.076091 65.989125 80.929343 66.135873 
C 80.782595 66.282621 80.700142 66.481681 80.700142 66.689214 
C 80.700142 66.896747 80.782595 67.095807 80.929343 67.242555 
C 81.076091 67.389303 81.275151 67.471756 81.482684 67.471756 
z
" clip-path="url(#p55ae2d0f2b)" style="stroke: #000000"/>
    <path d="M 78.760487 60.376836 
C 78.918177 60.376836 79.069431 60.314184 79.180935 60.20268 
C 79.292439 60.091176 79.35509 59.939923 79.35509 59.782232 
C 79.35509 59.624541 79.292439 59.473288 79.180935 59.361784 
C 79.069431 59.25028 78.918177 59.187628 78.760487 59.187628 
C 78.602796 59.187628 78.451543 59.25028 78.340038 59.361784 
C 78.228534 59.473288 78.165883 59.624541 78.165883 59.782232 
C 78.165883 59.939923 78.228534 60.091176 78.340038 60.20268 
C 78.451543 60.314184 78.602796 60.376836 78.760487 60.376836 
z
" clip-path="url(#p55ae2d0f2b)" style="stroke: #000000"/>
    <path d="M 104.547204 146.664675 
C 104.704895 146.664675 104.856148 146.602023 104.967652 146.490519 
C 105.079156 146.379015 105.141807 146.227762 105.141807 146.070071 
C 105.141807 145.91238 105.079156 145.761127 104.967652 145.649623 
C 104.856148 145.538119 104.704895 145.475467 104.547204 145.475467 
C 104.389513 145.475467 104.23826 145.538119 104.126756 145.649623 
C 104.015251 145.761127 103.9526 145.91238 103.9526 146.070071 
C 103.9526 146.227762 104.015251 146.379015 104.126756 146.490519 
C 104.23826 146.602023 104.389513 146.664675 104.547204 146.664675 
z
" clip-path="url(#p55ae2d0f2b)" style="stroke: #000000"/>
    <path d="M 91.579617 119.553433 
C 92.050483 119.553433 92.502128 119.366356 92.835081 119.033403 
C 93.168034 118.70045 93.355111 118.248806 93.355111 117.777939 
C 93.355111 117.307073 93.168034 116.855428 92.835081 116.522475 
C 92.502128 116.189522 92.050483 116.002445 91.579617 116.002445 
C 91.10875 116.002445 90.657106 116.189522 90.324153 116.522475 
C 89.9912 116.855428 89.804122 117.307073 89.804122 117.777939 
C 89.804122 118.248806 89.9912 118.70045 90.324153 119.033403 
C 90.657106 119.366356 91.10875 119.553433 91.579617 119.553433 
z
" clip-path="url(#p55ae2d0f2b)" style="stroke: #000000"/>
    <path d="M 90.651267 111.235506 
C 91.010724 111.235506 91.355507 111.092692 91.609682 110.838518 
C 91.863856 110.584343 92.00667 110.23956 92.00667 109.880103 
C 92.00667 109.520646 91.863856 109.175863 91.609682 108.921689 
C 91.355507 108.667514 91.010724 108.5247 90.651267 108.5247 
C 90.29181 108.5247 89.947027 108.667514 89.692852 108.921689 
C 89.438678 109.175863 89.295864 109.520646 89.295864 109.880103 
C 89.295864 110.23956 89.438678 110.584343 89.692852 110.838518 
C 89.947027 111.092692 90.29181 111.235506 90.651267 111.235506 
z
" clip-path="url(#p55ae2d0f2b)" style="stroke: #000000"/>
    <path d="M 89.201141 105.133841 
C 89.333743 105.133841 89.460931 105.081158 89.554694 104.987394 
C 89.648458 104.893631 89.701141 104.766442 89.701141 104.633841 
C 89.701141 104.501239 89.648458 104.374051 89.554694 104.280288 
C 89.460931 104.186524 89.333743 104.133841 89.201141 104.133841 
C 89.068539 104.133841 88.941351 104.186524 88.847588 104.280288 
C 88.753824 104.374051 88.701141 104.501239 88.701141 104.633841 
C 88.701141 104.766442 88.753824 104.893631 88.847588 104.987394 
C 88.941351 105.081158 89.068539 105.133841 89.201141 105.133841 
z
" clip-path="url(#p55ae2d0f2b)" style="stroke: #000000"/>
    <path d="M 83.224922 97.263386 
C 83.562489 97.263386 83.886277 97.129269 84.124973 96.890572 
C 84.363669 96.651876 84.497786 96.328089 84.497786 95.990521 
C 84.497786 95.652953 84.363669 95.329166 84.124973 95.090469 
C 83.886277 94.851773 83.562489 94.717656 83.224922 94.717656 
C 82.887354 94.717656 82.563567 94.851773 82.32487 95.090469 
C 82.086174 95.329166 81.952057 95.652953 81.952057 95.990521 
C 81.952057 96.328089 82.086174 96.651876 82.32487 96.890572 
C 82.563567 97.129269 82.887354 97.263386 83.224922 97.263386 
z
" clip-path="url(#p55ae2d0f2b)" style="stroke: #000000"/>
    <path d="M 85.127702 96.016396 
C 85.711223 96.016396 86.270923 95.784561 86.683534 95.371949 
C 87.096146 94.959338 87.327981 94.399638 87.327981 93.816117 
C 87.327981 93.232596 87.096146 92.672896 86.683534 92.260285 
C 86.270923 91.847673 85.711223 91.615838 85.127702 91.615838 
C 84.544181 91.615838 83.984481 91.847673 83.57187 92.260285 
C 83.159258 92.672896 82.927423 93.232596 82.927423 93.816117 
C 82.927423 94.399638 83.159258 94.959338 83.57187 95.371949 
C 83.984481 95.784561 84.544181 96.016396 85.127702 96.016396 
z
" clip-path="url(#p55ae2d0f2b)" style="stroke: #000000"/>
    <path d="M 79.734091 88.730318 
C 80.362687 88.730318 80.965621 88.480574 81.410106 88.03609 
C 81.85459 87.591605 82.104334 86.988671 82.104334 86.360075 
C 82.104334 85.731479 81.85459 85.128544 81.410106 84.68406 
C 80.965621 84.239576 80.362687 83.989832 79.734091 83.989832 
C 79.105495 83.989832 78.50256 84.239576 78.058076 84.68406 
C 77.613592 85.128544 77.363848 85.731479 77.363848 86.360075 
C 77.363848 86.988671 77.613592 87.591605 78.058076 88.03609 
C 78.50256 88.480574 79.105495 88.730318 79.734091 88.730318 
z
" clip-path="url(#p55ae2d0f2b)" style="stroke: #000000"/>
    <path d="M 78.805993 79.07379 
C 79.02168 79.07379 79.228561 78.988097 79.381075 78.835584 
C 79.533588 78.68307 79.619282 78.476188 79.619282 78.260502 
C 79.619282 78.044815 79.533588 77.837934 79.381075 77.68542 
C 79.228561 77.532907 79.02168 77.447214 78.805993 77.447214 
C 78.590307 77.447214 78.383425 77.532907 78.230912 77.68542 
C 78.078398 77.837934 77.992705 78.044815 77.992705 78.260502 
C 77.992705 78.476188 78.078398 78.68307 78.230912 78.835584 
C 78.383425 78.988097 78.590307 79.07379 78.805993 79.07379 
z
" clip-path="url(#p55ae2d0f2b)" style="stroke: #000000"/>
    <path d="M 75.902377 74.636703 
C 76.212711 74.636703 76.510376 74.513406 76.729815 74.293967 
C 76.949254 74.074528 77.072551 73.776863 77.072551 73.466529 
C 77.072551 73.156195 76.949254 72.85853 76.729815 72.639091 
C 76.510376 72.419652 76.212711 72.296355 75.902377 72.296355 
C 75.592044 72.296355 75.294379 72.419652 75.07494 72.639091 
C 74.855501 72.85853 74.732204 73.156195 74.732204 73.466529 
C 74.732204 73.776863 74.855501 74.074528 75.07494 74.293967 
C 75.294379 74.513406 75.592044 74.636703 75.902377 74.636703 
z
" clip-path="url(#p55ae2d0f2b)" style="stroke: #000000"/>
    <path d="M 72.857782 54.817626 
C 72.990383 54.817626 73.117572 54.764943 73.211335 54.671179 
C 73.305099 54.577416 73.357782 54.450228 73.357782 54.317626 
C 73.357782 54.185024 73.305099 54.057836 73.211335 53.964073 
C 73.117572 53.870309 72.990383 53.817626 72.857782 53.817626 
C 72.72518 53.817626 72.597992 53.870309 72.504228 53.964073 
C 72.410465 54.057836 72.357782 54.185024 72.357782 54.317626 
C 72.357782 54.450228 72.410465 54.577416 72.504228 54.671179 
C 72.597992 54.764943 72.72518 54.817626 72.857782 54.817626 
z
" clip-path="url(#p55ae2d0f2b)" style="stroke: #000000"/>
    <path d="M 90.366567 132.866297 
C 90.554094 132.866297 90.733966 132.791792 90.866567 132.65919 
C 90.999169 132.526589 91.073674 132.346717 91.073674 132.15919 
C 91.073674 131.971663 90.999169 131.791792 90.866567 131.65919 
C 90.733966 131.526589 90.554094 131.452084 90.366567 131.452084 
C 90.17904 131.452084 89.999169 131.526589 89.866567 131.65919 
C 89.733966 131.791792 89.65946 131.971663 89.65946 132.15919 
C 89.65946 132.346717 89.733966 132.526589 89.866567 132.65919 
C 89.999169 132.791792 90.17904 132.866297 90.366567 132.866297 
z
" clip-path="url(#p55ae2d0f2b)" style="stroke: #000000"/>
    <path d="M 91.08786 124.590891 
C 91.568069 124.590891 92.028675 124.400102 92.368234 124.060542 
C 92.707794 123.720983 92.898583 123.260377 92.898583 122.780167 
C 92.898583 122.299958 92.707794 121.839352 92.368234 121.499793 
C 92.028675 121.160233 91.568069 120.969444 91.08786 120.969444 
C 90.60765 120.969444 90.147044 121.160233 89.807485 121.499793 
C 89.467925 121.839352 89.277136 122.299958 89.277136 122.780167 
C 89.277136 123.260377 89.467925 123.720983 89.807485 124.060542 
C 90.147044 124.400102 90.60765 124.590891 91.08786 124.590891 
z
" clip-path="url(#p55ae2d0f2b)" style="stroke: #000000"/>
    <path d="M 85.532232 119.297263 
C 86.07706 119.297263 86.599647 119.0808 86.984899 118.695549 
C 87.370151 118.310297 87.586614 117.78771 87.586614 117.242881 
C 87.586614 116.698053 87.370151 116.175465 86.984899 115.790214 
C 86.599647 115.404962 86.07706 115.188499 85.532232 115.188499 
C 84.987403 115.188499 84.464816 115.404962 84.079564 115.790214 
C 83.694312 116.175465 83.477849 116.698053 83.477849 117.242881 
C 83.477849 117.78771 83.694312 118.310297 84.079564 118.695549 
C 84.464816 119.0808 84.987403 119.297263 85.532232 119.297263 
z
" clip-path="url(#p55ae2d0f2b)" style="stroke: #000000"/>
    <path d="M 84.588058 113.837557 
C 85.039212 113.837557 85.471948 113.658312 85.790962 113.339298 
C 86.109976 113.020284 86.289222 112.587547 86.289222 112.136393 
C 86.289222 111.685239 86.109976 111.252503 85.790962 110.933489 
C 85.471948 110.614475 85.039212 110.435229 84.588058 110.435229 
C 84.136904 110.435229 83.704167 110.614475 83.385153 110.933489 
C 83.066139 111.252503 82.886894 111.685239 82.886894 112.136393 
C 82.886894 112.587547 83.066139 113.020284 83.385153 113.339298 
C 83.704167 113.658312 84.136904 113.837557 84.588058 113.837557 
z
" clip-path="url(#p55ae2d0f2b)" style="stroke: #000000"/>
    <path d="M 82.682966 108.989763 
C 83.252785 108.989763 83.799343 108.763371 84.202266 108.360448 
C 84.605189 107.957525 84.831581 107.410967 84.831581 106.841148 
C 84.831581 106.271328 84.605189 105.724771 84.202266 105.321848 
C 83.799343 104.918924 83.252785 104.692533 82.682966 104.692533 
C 82.113146 104.692533 81.566588 104.918924 81.163665 105.321848 
C 80.760742 105.724771 80.534351 106.271328 80.534351 106.841148 
C 80.534351 107.410967 80.760742 107.957525 81.163665 108.360448 
C 81.566588 108.763371 82.113146 108.989763 82.682966 108.989763 
z
" clip-path="url(#p55ae2d0f2b)" style="stroke: #000000"/>
    <path d="M 82.354228 100.773757 
C 82.528742 100.773757 82.696131 100.704422 82.819531 100.581023 
C 82.94293 100.457623 83.012265 100.290234 83.012265 100.11572 
C 83.012265 99.941207 82.94293 99.773817 82.819531 99.650418 
C 82.696131 99.527018 82.528742 99.457683 82.354228 99.457683 
C 82.179715 99.457683 82.012325 99.527018 81.888926 99.650418 
C 81.765526 99.773817 81.696191 99.941207 81.696191 100.11572 
C 81.696191 100.290234 81.765526 100.457623 81.888926 100.581023 
C 82.012325 100.704422 82.179715 100.773757 82.354228 100.773757 
z
" clip-path="url(#p55ae2d0f2b)" style="stroke: #000000"/>
    <path d="M 78.399909 95.153494 
C 78.8424 95.153494 79.266827 94.977691 79.579715 94.664803 
C 79.892603 94.351915 80.068406 93.927488 80.068406 93.484997 
C 80.068406 93.042507 79.892603 92.61808 79.579715 92.305192 
C 79.266827 91.992304 78.8424 91.8165 78.399909 91.8165 
C 77.957419 91.8165 77.532992 91.992304 77.220104 92.305192 
C 76.907216 92.61808 76.731412 93.042507 76.731412 93.484997 
C 76.731412 93.927488 76.907216 94.351915 77.220104 94.664803 
C 77.532992 94.977691 77.957419 95.153494 78.399909 95.153494 
z
" clip-path="url(#p55ae2d0f2b)" style="stroke: #000000"/>
    <path d="M 78.671917 89.463451 
C 79.132849 89.463451 79.574964 89.280321 79.900892 88.954393 
C 80.22682 88.628465 80.409951 88.186349 80.409951 87.725417 
C 80.409951 87.264485 80.22682 86.82237 79.900892 86.496442 
C 79.574964 86.170514 79.132849 85.987383 78.671917 85.987383 
C 78.210985 85.987383 77.768869 86.170514 77.442941 86.496442 
C 77.117013 86.82237 76.933883 87.264485 76.933883 87.725417 
C 76.933883 88.186349 77.117013 88.628465 77.442941 88.954393 
C 77.768869 89.280321 78.210985 89.463451 78.671917 89.463451 
z
" clip-path="url(#p55ae2d0f2b)" style="stroke: #000000"/>
    <path d="M 72.310239 83.08145 
C 72.442841 83.08145 72.570029 83.028767 72.663793 82.935004 
C 72.757556 82.84124 72.810239 82.714052 72.810239 82.58145 
C 72.810239 82.448849 72.757556 82.32166 72.663793 82.227897 
C 72.570029 82.134133 72.442841 82.08145 72.310239 82.08145 
C 72.177638 82.08145 72.050449 82.134133 71.956686 82.227897 
C 71.862922 82.32166 71.810239 82.448849 71.810239 82.58145 
C 71.810239 82.714052 71.862922 82.84124 71.956686 82.935004 
C 72.050449 83.028767 72.177638 83.08145 72.310239 83.08145 
z
" clip-path="url(#p55ae2d0f2b)" style="stroke: #000000"/>
    <path d="M 75.366756 78.992606 
C 75.74613 78.992606 76.110017 78.84188 76.378275 78.573622 
C 76.646532 78.305364 76.797259 77.941477 76.797259 77.562104 
C 76.797259 77.18273 76.646532 76.818843 76.378275 76.550585 
C 76.110017 76.282328 75.74613 76.131601 75.366756 76.131601 
C 74.987383 76.131601 74.623496 76.282328 74.355238 76.550585 
C 74.08698 76.818843 73.936254 77.18273 73.936254 77.562104 
C 73.936254 77.941477 74.08698 78.305364 74.355238 78.573622 
C 74.623496 78.84188 74.987383 78.992606 75.366756 78.992606 
z
" clip-path="url(#p55ae2d0f2b)" style="stroke: #000000"/>
    <path d="M 68.771838 70.443286 
C 69.037041 70.443286 69.291418 70.337919 69.478945 70.150393 
C 69.666472 69.962866 69.771838 69.708489 69.771838 69.443286 
C 69.771838 69.178083 69.666472 68.923706 69.478945 68.736179 
C 69.291418 68.548652 69.037041 68.443286 68.771838 68.443286 
C 68.506635 68.443286 68.252258 68.548652 68.064731 68.736179 
C 67.877205 68.923706 67.771838 69.178083 67.771838 69.443286 
C 67.771838 69.708489 67.877205 69.962866 68.064731 70.150393 
C 68.252258 70.337919 68.506635 70.443286 68.771838 70.443286 
z
" clip-path="url(#p55ae2d0f2b)" style="stroke: #000000"/>
    <path d="M 94.592675 166.662882 
C 94.725277 166.662882 94.852465 166.610199 94.946229 166.516436 
C 95.039992 166.422672 95.092675 166.295484 95.092675 166.162882 
C 95.092675 166.030281 95.039992 165.903093 94.946229 165.809329 
C 94.852465 165.715566 94.725277 165.662882 94.592675 165.662882 
C 94.460074 165.662882 94.332885 165.715566 94.239122 165.809329 
C 94.145359 165.903093 94.092675 166.030281 94.092675 166.162882 
C 94.092675 166.295484 94.145359 166.422672 94.239122 166.516436 
C 94.332885 166.610199 94.460074 166.662882 94.592675 166.662882 
z
" clip-path="url(#p55ae2d0f2b)" style="stroke: #000000"/>
    <path d="M 94.220894 160.549811 
C 94.378585 160.549811 94.529838 160.48716 94.641343 160.375655 
C 94.752847 160.264151 94.815498 160.112898 94.815498 159.955207 
C 94.815498 159.797516 94.752847 159.646263 94.641343 159.534759 
C 94.529838 159.423255 94.378585 159.360604 94.220894 159.360604 
C 94.063204 159.360604 93.91195 159.423255 93.800446 159.534759 
C 93.688942 159.646263 93.626291 159.797516 93.626291 159.955207 
C 93.626291 160.112898 93.688942 160.264151 93.800446 160.375655 
C 93.91195 160.48716 94.063204 160.549811 94.220894 160.549811 
z
" clip-path="url(#p55ae2d0f2b)" style="stroke: #000000"/>
    <path d="M 90.4014 146.832394 
C 90.534001 146.832394 90.66119 146.779711 90.754953 146.685948 
C 90.848717 146.592184 90.9014 146.464996 90.9014 146.332394 
C 90.9014 146.199793 90.848717 146.072604 90.754953 145.978841 
C 90.66119 145.885077 90.534001 145.832394 90.4014 145.832394 
C 90.268798 145.832394 90.14161 145.885077 90.047846 145.978841 
C 89.954083 146.072604 89.9014 146.199793 89.9014 146.332394 
C 89.9014 146.464996 89.954083 146.592184 90.047846 146.685948 
C 90.14161 146.779711 90.268798 146.832394 90.4014 146.832394 
z
" clip-path="url(#p55ae2d0f2b)" style="stroke: #000000"/>
    <path d="M 84.734694 139.617817 
C 84.909208 139.617817 85.076597 139.548482 85.199997 139.425082 
C 85.323396 139.301683 85.392731 139.134293 85.392731 138.95978 
C 85.392731 138.785266 85.323396 138.617877 85.199997 138.494477 
C 85.076597 138.371078 84.909208 138.301743 84.734694 138.301743 
C 84.560181 138.301743 84.392791 138.371078 84.269392 138.494477 
C 84.145992 138.617877 84.076657 138.785266 84.076657 138.95978 
C 84.076657 139.134293 84.145992 139.301683 84.269392 139.425082 
C 84.392791 139.548482 84.560181 139.617817 84.734694 139.617817 
z
" clip-path="url(#p55ae2d0f2b)" style="stroke: #000000"/>
    <path d="M 83.263385 134.83378 
C 83.812464 134.83378 84.339129 134.615628 84.727387 134.22737 
C 85.115645 133.839112 85.333797 133.312447 85.333797 132.763368 
C 85.333797 132.214288 85.115645 131.687623 84.727387 131.299365 
C 84.339129 130.911107 83.812464 130.692955 83.263385 130.692955 
C 82.714305 130.692955 82.18764 130.911107 81.799382 131.299365 
C 81.411124 131.687623 81.192972 132.214288 81.192972 132.763368 
C 81.192972 133.312447 81.411124 133.839112 81.799382 134.22737 
C 82.18764 134.615628 82.714305 134.83378 83.263385 134.83378 
z
" clip-path="url(#p55ae2d0f2b)" style="stroke: #000000"/>
    <path d="M 81.000921 126.575011 
C 81.463424 126.575011 81.907046 126.391257 82.234084 126.064218 
C 82.561123 125.737179 82.744877 125.293558 82.744877 124.831055 
C 82.744877 124.368553 82.561123 123.924931 82.234084 123.597892 
C 81.907046 123.270854 81.463424 123.0871 81.000921 123.0871 
C 80.538419 123.0871 80.094797 123.270854 79.767759 123.597892 
C 79.44072 123.924931 79.256966 124.368553 79.256966 124.831055 
C 79.256966 125.293558 79.44072 125.737179 79.767759 126.064218 
C 80.094797 126.391257 80.538419 126.575011 81.000921 126.575011 
z
" clip-path="url(#p55ae2d0f2b)" style="stroke: #000000"/>
    <path d="M 76.694809 124.667372 
C 77.032377 124.667372 77.356164 124.533255 77.59486 124.294558 
C 77.833557 124.055862 77.967674 123.732075 77.967674 123.394507 
C 77.967674 123.056939 77.833557 122.733152 77.59486 122.494455 
C 77.356164 122.255759 77.032377 122.121642 76.694809 122.121642 
C 76.357241 122.121642 76.033454 122.255759 75.794757 122.494455 
C 75.556061 122.733152 75.421944 123.056939 75.421944 123.394507 
C 75.421944 123.732075 75.556061 124.055862 75.794757 124.294558 
C 76.033454 124.533255 76.357241 124.667372 76.694809 124.667372 
z
" clip-path="url(#p55ae2d0f2b)" style="stroke: #000000"/>
    <path d="M 80.943755 116.71775 
C 81.142041 116.71775 81.332232 116.63897 81.472441 116.498761 
C 81.61265 116.358552 81.691429 116.168361 81.691429 115.970076 
C 81.691429 115.77179 81.61265 115.581599 81.472441 115.44139 
C 81.332232 115.301181 81.142041 115.222401 80.943755 115.222401 
C 80.74547 115.222401 80.555279 115.301181 80.415069 115.44139 
C 80.27486 115.581599 80.196081 115.77179 80.196081 115.970076 
C 80.196081 116.168361 80.27486 116.358552 80.415069 116.498761 
C 80.555279 116.63897 80.74547 116.71775 80.943755 116.71775 
z
" clip-path="url(#p55ae2d0f2b)" style="stroke: #000000"/>
    <path d="M 76.918908 111.148981 
C 77.357786 111.148981 77.778748 110.974613 78.089081 110.664279 
C 78.399415 110.353945 78.573783 109.932983 78.573783 109.494105 
C 78.573783 109.055227 78.399415 108.634265 78.089081 108.323932 
C 77.778748 108.013598 77.357786 107.83923 76.918908 107.83923 
C 76.48003 107.83923 76.059068 108.013598 75.748734 108.323932 
C 75.4384 108.634265 75.264032 109.055227 75.264032 109.494105 
C 75.264032 109.932983 75.4384 110.353945 75.748734 110.664279 
C 76.059068 110.974613 76.48003 111.148981 76.918908 111.148981 
z
" clip-path="url(#p55ae2d0f2b)" style="stroke: #000000"/>
    <path d="M 73.553873 104.945648 
C 73.918222 104.945648 74.267697 104.800891 74.52533 104.543258 
C 74.782964 104.285624 74.927721 103.936149 74.927721 103.5718 
C 74.927721 103.207452 74.782964 102.857977 74.52533 102.600343 
C 74.267697 102.34271 73.918222 102.197952 73.553873 102.197952 
C 73.189524 102.197952 72.840049 102.34271 72.582416 102.600343 
C 72.324782 102.857977 72.180025 103.207452 72.180025 103.5718 
C 72.180025 103.936149 72.324782 104.285624 72.582416 104.543258 
C 72.840049 104.800891 73.189524 104.945648 73.553873 104.945648 
z
" clip-path="url(#p55ae2d0f2b)" style="stroke: #000000"/>
    <path d="M 75.434302 97.404276 
C 76.070837 97.404276 76.681387 97.151378 77.131485 96.701279 
C 77.581583 96.251181 77.834481 95.640631 77.834481 95.004097 
C 77.834481 94.367562 77.581583 93.757012 77.131485 93.306914 
C 76.681387 92.856815 76.070837 92.603917 75.434302 92.603917 
C 74.797767 92.603917 74.187217 92.856815 73.737119 93.306914 
C 73.287021 93.757012 73.034123 94.367562 73.034123 95.004097 
C 73.034123 95.640631 73.287021 96.251181 73.737119 96.701279 
C 74.187217 97.151378 74.797767 97.404276 75.434302 97.404276 
z
" clip-path="url(#p55ae2d0f2b)" style="stroke: #000000"/>
    <path d="M 70.712485 93.64989 
C 71.209895 93.64989 71.687 93.452267 72.038722 93.100545 
C 72.390445 92.748822 72.588068 92.271718 72.588068 91.774307 
C 72.588068 91.276897 72.390445 90.799792 72.038722 90.44807 
C 71.687 90.096347 71.209895 89.898724 70.712485 89.898724 
C 70.215074 89.898724 69.73797 90.096347 69.386247 90.44807 
C 69.034525 90.799792 68.836902 91.276897 68.836902 91.774307 
C 68.836902 92.271718 69.034525 92.748822 69.386247 93.100545 
C 69.73797 93.452267 70.215074 93.64989 70.712485 93.64989 
z
" clip-path="url(#p55ae2d0f2b)" style="stroke: #000000"/>
    <path d="M 66.947754 86.039058 
C 67.540766 86.039058 68.10957 85.803452 68.528893 85.384129 
C 68.948215 84.964806 69.183822 84.396002 69.183822 83.80299 
C 69.183822 83.209978 68.948215 82.641174 68.528893 82.221851 
C 68.10957 81.802528 67.540766 81.566922 66.947754 81.566922 
C 66.354742 81.566922 65.785938 81.802528 65.366615 82.221851 
C 64.947292 82.641174 64.711686 83.209978 64.711686 83.80299 
C 64.711686 84.396002 64.947292 84.964806 65.366615 85.384129 
C 65.785938 85.803452 66.354742 86.039058 66.947754 86.039058 
z
" clip-path="url(#p55ae2d0f2b)" style="stroke: #000000"/>
    <path d="M 60.31684 65.929031 
C 60.504367 65.929031 60.684239 65.854526 60.81684 65.721924 
C 60.949442 65.589323 61.023947 65.409451 61.023947 65.221924 
C 61.023947 65.034397 60.949442 64.854526 60.81684 64.721924 
C 60.684239 64.589323 60.504367 64.514817 60.31684 64.514817 
C 60.129313 64.514817 59.949442 64.589323 59.81684 64.721924 
C 59.684239 64.854526 59.609733 65.034397 59.609733 65.221924 
C 59.609733 65.409451 59.684239 65.589323 59.81684 65.721924 
C 59.949442 65.854526 60.129313 65.929031 60.31684 65.929031 
z
" clip-path="url(#p55ae2d0f2b)" style="stroke: #000000"/>
    <path d="M 87.399353 166.605555 
C 87.531954 166.605555 87.659143 166.552872 87.752906 166.459108 
C 87.84667 166.365345 87.899353 166.238157 87.899353 166.105555 
C 87.899353 165.972953 87.84667 165.845765 87.752906 165.752002 
C 87.659143 165.658238 87.531954 165.605555 87.399353 165.605555 
C 87.266751 165.605555 87.139563 165.658238 87.045799 165.752002 
C 86.952036 165.845765 86.899353 165.972953 86.899353 166.105555 
C 86.899353 166.238157 86.952036 166.365345 87.045799 166.459108 
C 87.139563 166.552872 87.266751 166.605555 87.399353 166.605555 
z
" clip-path="url(#p55ae2d0f2b)" style="stroke: #000000"/>
    <path d="M 82.521578 155.185146 
C 82.709105 155.185146 82.888976 155.11064 83.021578 154.978039 
C 83.154179 154.845437 83.228685 154.665566 83.228685 154.478039 
C 83.228685 154.290512 83.154179 154.11064 83.021578 153.978039 
C 82.888976 153.845437 82.709105 153.770932 82.521578 153.770932 
C 82.334051 153.770932 82.154179 153.845437 82.021578 153.978039 
C 81.888976 154.11064 81.814471 154.290512 81.814471 154.478039 
C 81.814471 154.665566 81.888976 154.845437 82.021578 154.978039 
C 82.154179 155.11064 82.334051 155.185146 82.521578 155.185146 
z
" clip-path="url(#p55ae2d0f2b)" style="stroke: #000000"/>
    <path d="M 82.772102 148.506986 
C 83.028598 148.506986 83.274623 148.405079 83.455993 148.223709 
C 83.637363 148.042339 83.73927 147.796314 83.73927 147.539817 
C 83.73927 147.283321 83.637363 147.037296 83.455993 146.855926 
C 83.274623 146.674556 83.028598 146.572649 82.772102 146.572649 
C 82.515606 146.572649 82.269581 146.674556 82.088211 146.855926 
C 81.906841 147.037296 81.804934 147.283321 81.804934 147.539817 
C 81.804934 147.796314 81.906841 148.042339 82.088211 148.223709 
C 82.269581 148.405079 82.515606 148.506986 82.772102 148.506986 
z
" clip-path="url(#p55ae2d0f2b)" style="stroke: #000000"/>
    <path d="M 78.007494 135.240383 
C 78.562545 135.240383 79.094938 135.019859 79.487419 134.627378 
C 79.879899 134.234898 80.100424 133.702505 80.100424 133.147453 
C 80.100424 132.592402 79.879899 132.060009 79.487419 131.667529 
C 79.094938 131.275048 78.562545 131.054524 78.007494 131.054524 
C 77.452443 131.054524 76.92005 131.275048 76.527569 131.667529 
C 76.135089 132.060009 75.914565 132.592402 75.914565 133.147453 
C 75.914565 133.702505 76.135089 134.234898 76.527569 134.627378 
C 76.92005 135.019859 77.452443 135.240383 78.007494 135.240383 
z
" clip-path="url(#p55ae2d0f2b)" style="stroke: #000000"/>
    <path d="M 77.344779 132.222267 
C 77.820026 132.222267 78.275872 132.03345 78.611923 131.697399 
C 78.947973 131.361349 79.136791 130.905502 79.136791 130.430255 
C 79.136791 129.955008 78.947973 129.499162 78.611923 129.163111 
C 78.275872 128.827061 77.820026 128.638243 77.344779 128.638243 
C 76.869532 128.638243 76.413685 128.827061 76.077635 129.163111 
C 75.741584 129.499162 75.552767 129.955008 75.552767 130.430255 
C 75.552767 130.905502 75.741584 131.361349 76.077635 131.697399 
C 76.413685 132.03345 76.869532 132.222267 77.344779 132.222267 
z
" clip-path="url(#p55ae2d0f2b)" style="stroke: #000000"/>
    <path d="M 74.634208 124.388216 
C 75.061677 124.388216 75.471695 124.218381 75.773961 123.916115 
C 76.076227 123.613849 76.246063 123.20383 76.246063 122.776362 
C 76.246063 122.348893 76.076227 121.938874 75.773961 121.636608 
C 75.471695 121.334342 75.061677 121.164507 74.634208 121.164507 
C 74.206739 121.164507 73.79672 121.334342 73.494454 121.636608 
C 73.192188 121.938874 73.022353 122.348893 73.022353 122.776362 
C 73.022353 123.20383 73.192188 123.613849 73.494454 123.916115 
C 73.79672 124.218381 74.206739 124.388216 74.634208 124.388216 
z
" clip-path="url(#p55ae2d0f2b)" style="stroke: #000000"/>
    <path d="M 72.485386 118.860177 
C 73.044461 118.860177 73.580713 118.638054 73.976039 118.242728 
C 74.371365 117.847402 74.593488 117.311149 74.593488 116.752074 
C 74.593488 116.192999 74.371365 115.656746 73.976039 115.26142 
C 73.580713 114.866094 73.044461 114.643971 72.485386 114.643971 
C 71.92631 114.643971 71.390058 114.866094 70.994732 115.26142 
C 70.599406 115.656746 70.377283 116.192999 70.377283 116.752074 
C 70.377283 117.311149 70.599406 117.847402 70.994732 118.242728 
C 71.390058 118.638054 71.92631 118.860177 72.485386 118.860177 
z
" clip-path="url(#p55ae2d0f2b)" style="stroke: #000000"/>
    <path d="M 69.372522 112.311937 
C 69.821983 112.311937 70.253095 112.133364 70.570912 111.815547 
C 70.888729 111.49773 71.067302 111.066617 71.067302 110.617156 
C 71.067302 110.167695 70.888729 109.736582 70.570912 109.418765 
C 70.253095 109.100949 69.821983 108.922376 69.372522 108.922376 
C 68.923061 108.922376 68.491948 109.100949 68.174131 109.418765 
C 67.856314 109.736582 67.677741 110.167695 67.677741 110.617156 
C 67.677741 111.066617 67.856314 111.49773 68.174131 111.815547 
C 68.491948 112.133364 68.923061 112.311937 69.372522 112.311937 
z
" clip-path="url(#p55ae2d0f2b)" style="stroke: #000000"/>
    <path d="M 66.260288 106.990866 
C 66.7958 106.990866 67.309451 106.778104 67.688115 106.39944 
C 68.066779 106.020776 68.27954 105.507126 68.27954 104.971614 
C 68.27954 104.436102 68.066779 103.922452 67.688115 103.543788 
C 67.309451 103.165124 66.7958 102.952363 66.260288 102.952363 
C 65.724777 102.952363 65.211126 103.165124 64.832462 103.543788 
C 64.453798 103.922452 64.241037 104.436102 64.241037 104.971614 
C 64.241037 105.507126 64.453798 106.020776 64.832462 106.39944 
C 65.211126 106.778104 65.724777 106.990866 66.260288 106.990866 
z
" clip-path="url(#p55ae2d0f2b)" style="stroke: #000000"/>
    <path d="M 65.871134 98.51863 
C 66.154994 98.51863 66.427265 98.405851 66.627984 98.205132 
C 66.828703 98.004413 66.941482 97.732141 66.941482 97.448282 
C 66.941482 97.164422 66.828703 96.892151 66.627984 96.691432 
C 66.427265 96.490713 66.154994 96.377934 65.871134 96.377934 
C 65.587275 96.377934 65.315003 96.490713 65.114284 96.691432 
C 64.913565 96.892151 64.800786 97.164422 64.800786 97.448282 
C 64.800786 97.732141 64.913565 98.004413 65.114284 98.205132 
C 65.315003 98.405851 65.587275 98.51863 65.871134 98.51863 
z
" clip-path="url(#p55ae2d0f2b)" style="stroke: #000000"/>
    <path d="M 64.477869 94.911519 
C 64.700878 94.911519 64.914782 94.822917 65.072473 94.665226 
C 65.230164 94.507535 65.318766 94.293631 65.318766 94.070622 
C 65.318766 93.847614 65.230164 93.633709 65.072473 93.476019 
C 64.914782 93.318328 64.700878 93.229726 64.477869 93.229726 
C 64.254861 93.229726 64.040957 93.318328 63.883266 93.476019 
C 63.725575 93.633709 63.636973 93.847614 63.636973 94.070622 
C 63.636973 94.293631 63.725575 94.507535 63.883266 94.665226 
C 64.040957 94.822917 64.254861 94.911519 64.477869 94.911519 
z
" clip-path="url(#p55ae2d0f2b)" style="stroke: #000000"/>
    <path d="M 62.480097 87.682562 
C 62.797914 87.682562 63.102757 87.556291 63.327488 87.331561 
C 63.552218 87.10683 63.678488 86.801988 63.678488 86.484171 
C 63.678488 86.166354 63.552218 85.861511 63.327488 85.63678 
C 63.102757 85.41205 62.797914 85.28578 62.480097 85.28578 
C 62.16228 85.28578 61.857438 85.41205 61.632707 85.63678 
C 61.407976 85.861511 61.281706 86.166354 61.281706 86.484171 
C 61.281706 86.801988 61.407976 87.10683 61.632707 87.331561 
C 61.857438 87.556291 62.16228 87.682562 62.480097 87.682562 
z
" clip-path="url(#p55ae2d0f2b)" style="stroke: #000000"/>
    <path d="M 59.420825 82.241649 
C 59.797336 82.241649 60.158476 82.09206 60.424709 81.825827 
C 60.690942 81.559594 60.840531 81.198453 60.840531 80.821943 
C 60.840531 80.445433 60.690942 80.084293 60.424709 79.81806 
C 60.158476 79.551827 59.797336 79.402237 59.420825 79.402237 
C 59.044315 79.402237 58.683175 79.551827 58.416942 79.81806 
C 58.150709 80.084293 58.00112 80.445433 58.00112 80.821943 
C 58.00112 81.198453 58.150709 81.559594 58.416942 81.825827 
C 58.683175 82.09206 59.044315 82.241649 59.420825 82.241649 
z
" clip-path="url(#p55ae2d0f2b)" style="stroke: #000000"/>
    <path d="M 59.284746 73.599713 
C 59.500433 73.599713 59.707315 73.51402 59.859828 73.361506 
C 60.012341 73.208993 60.098035 73.002111 60.098035 72.786425 
C 60.098035 72.570738 60.012341 72.363856 59.859828 72.211343 
C 59.707315 72.058829 59.500433 71.973136 59.284746 71.973136 
C 59.06906 71.973136 58.862178 72.058829 58.709665 72.211343 
C 58.557151 72.363856 58.471458 72.570738 58.471458 72.786425 
C 58.471458 73.002111 58.557151 73.208993 58.709665 73.361506 
C 58.862178 73.51402 59.06906 73.599713 59.284746 73.599713 
z
" clip-path="url(#p55ae2d0f2b)" style="stroke: #000000"/>
    <path d="M 57.43866 70.886461 
C 57.571262 70.886461 57.69845 70.833777 57.792214 70.740014 
C 57.885977 70.646251 57.93866 70.519062 57.93866 70.386461 
C 57.93866 70.253859 57.885977 70.126671 57.792214 70.032907 
C 57.69845 69.939144 57.571262 69.886461 57.43866 69.886461 
C 57.306059 69.886461 57.178871 69.939144 57.085107 70.032907 
C 56.991344 70.126671 56.93866 70.253859 56.93866 70.386461 
C 56.93866 70.519062 56.991344 70.646251 57.085107 70.740014 
C 57.178871 70.833777 57.306059 70.886461 57.43866 70.886461 
z
" clip-path="url(#p55ae2d0f2b)" style="stroke: #000000"/>
    <path d="M 79.914647 163.410325 
C 80.047249 163.410325 80.174437 163.357642 80.2682 163.263879 
C 80.361964 163.170115 80.414647 163.042927 80.414647 162.910325 
C 80.414647 162.777724 80.361964 162.650535 80.2682 162.556772 
C 80.174437 162.463009 80.047249 162.410325 79.914647 162.410325 
C 79.782046 162.410325 79.654857 162.463009 79.561094 162.556772 
C 79.46733 162.650535 79.414647 162.777724 79.414647 162.910325 
C 79.414647 163.042927 79.46733 163.170115 79.561094 163.263879 
C 79.654857 163.357642 79.782046 163.410325 79.914647 163.410325 
z
" clip-path="url(#p55ae2d0f2b)" style="stroke: #000000"/>
    <path d="M 71.688176 137.30545 
C 72.13244 137.30545 72.558568 137.128942 72.87271 136.8148 
C 73.186852 136.500658 73.36336 136.07453 73.36336 135.630265 
C 73.36336 135.186001 73.186852 134.759873 72.87271 134.445731 
C 72.558568 134.131589 72.13244 133.955081 71.688176 133.955081 
C 71.243912 133.955081 70.817784 134.131589 70.503642 134.445731 
C 70.1895 134.759873 70.012992 135.186001 70.012992 135.630265 
C 70.012992 136.07453 70.1895 136.500658 70.503642 136.8148 
C 70.817784 137.128942 71.243912 137.30545 71.688176 137.30545 
z
" clip-path="url(#p55ae2d0f2b)" style="stroke: #000000"/>
    <path d="M 69.586454 132.916999 
C 70.179466 132.916999 70.74827 132.681393 71.167593 132.26207 
C 71.586916 131.842747 71.822522 131.273943 71.822522 130.680931 
C 71.822522 130.087919 71.586916 129.519115 71.167593 129.099792 
C 70.74827 128.680469 70.179466 128.444863 69.586454 128.444863 
C 68.993442 128.444863 68.424638 128.680469 68.005315 129.099792 
C 67.585992 129.519115 67.350386 130.087919 67.350386 130.680931 
C 67.350386 131.273943 67.585992 131.842747 68.005315 132.26207 
C 68.424638 132.681393 68.993442 132.916999 69.586454 132.916999 
z
" clip-path="url(#p55ae2d0f2b)" style="stroke: #000000"/>
    <path d="M 68.840551 129.93941 
C 69.312156 129.93941 69.764509 129.752039 70.097984 129.418564 
C 70.43146 129.085089 70.61883 128.632736 70.61883 128.161131 
C 70.61883 127.689525 70.43146 127.237172 70.097984 126.903697 
C 69.764509 126.570222 69.312156 126.382851 68.840551 126.382851 
C 68.368946 126.382851 67.916593 126.570222 67.583117 126.903697 
C 67.249642 127.237172 67.062271 127.689525 67.062271 128.161131 
C 67.062271 128.632736 67.249642 129.085089 67.583117 129.418564 
C 67.916593 129.752039 68.368946 129.93941 68.840551 129.93941 
z
" clip-path="url(#p55ae2d0f2b)" style="stroke: #000000"/>
    <path d="M 68.196208 119.482943 
C 68.52758 119.482943 68.845423 119.351288 69.079738 119.116973 
C 69.314053 118.882658 69.445708 118.564814 69.445708 118.233443 
C 69.445708 117.902072 69.314053 117.584228 69.079738 117.349914 
C 68.845423 117.115599 68.52758 116.983944 68.196208 116.983944 
C 67.864837 116.983944 67.546994 117.115599 67.312679 117.349914 
C 67.078364 117.584228 66.946709 117.902072 66.946709 118.233443 
C 66.946709 118.564814 67.078364 118.882658 67.312679 119.116973 
C 67.546994 119.351288 67.864837 119.482943 68.196208 119.482943 
z
" clip-path="url(#p55ae2d0f2b)" style="stroke: #000000"/>
    <path d="M 63.031259 113.950087 
C 63.378454 113.950087 63.711475 113.812145 63.956979 113.566641 
C 64.202483 113.321138 64.340425 112.988116 64.340425 112.640922 
C 64.340425 112.293727 64.202483 111.960706 63.956979 111.715202 
C 63.711475 111.469698 63.378454 111.331756 63.031259 111.331756 
C 62.684065 111.331756 62.351043 111.469698 62.10554 111.715202 
C 61.860036 111.960706 61.722094 112.293727 61.722094 112.640922 
C 61.722094 112.988116 61.860036 113.321138 62.10554 113.566641 
C 62.351043 113.812145 62.684065 113.950087 63.031259 113.950087 
z
" clip-path="url(#p55ae2d0f2b)" style="stroke: #000000"/>
    <path d="M 60.587575 109.908989 
C 61.000461 109.908989 61.396492 109.744948 61.688447 109.452993 
C 61.980402 109.161038 62.144443 108.765007 62.144443 108.352121 
C 62.144443 107.939234 61.980402 107.543203 61.688447 107.251248 
C 61.396492 106.959293 61.000461 106.795252 60.587575 106.795252 
C 60.174688 106.795252 59.778657 106.959293 59.486702 107.251248 
C 59.194748 107.543203 59.030706 107.939234 59.030706 108.352121 
C 59.030706 108.765007 59.194748 109.161038 59.486702 109.452993 
C 59.778657 109.744948 60.174688 109.908989 60.587575 109.908989 
z
" clip-path="url(#p55ae2d0f2b)" style="stroke: #000000"/>
    <path d="M 60.684162 102.793409 
C 60.891694 102.793409 61.090755 102.710955 61.237503 102.564207 
C 61.38425 102.41746 61.466704 102.218399 61.466704 102.010867 
C 61.466704 101.803334 61.38425 101.604273 61.237503 101.457526 
C 61.090755 101.310778 60.891694 101.228324 60.684162 101.228324 
C 60.476629 101.228324 60.277568 101.310778 60.130821 101.457526 
C 59.984073 101.604273 59.901619 101.803334 59.901619 102.010867 
C 59.901619 102.218399 59.984073 102.41746 60.130821 102.564207 
C 60.277568 102.710955 60.476629 102.793409 60.684162 102.793409 
z
" clip-path="url(#p55ae2d0f2b)" style="stroke: #000000"/>
    <path d="M 56.983817 96.754766 
C 57.574593 96.754766 58.141252 96.520048 58.558993 96.102307 
C 58.976735 95.684565 59.211452 95.117907 59.211452 94.527131 
C 59.211452 93.936355 58.976735 93.369697 58.558993 92.951955 
C 58.141252 92.534213 57.574593 92.299496 56.983817 92.299496 
C 56.393041 92.299496 55.826383 92.534213 55.408641 92.951955 
C 54.9909 93.369697 54.756182 93.936355 54.756182 94.527131 
C 54.756182 95.117907 54.9909 95.684565 55.408641 96.102307 
C 55.826383 96.520048 56.393041 96.754766 56.983817 96.754766 
z
" clip-path="url(#p55ae2d0f2b)" style="stroke: #000000"/>
    <path d="M 56.231842 89.13682 
C 56.614016 89.13682 56.980589 88.984981 57.250826 88.714743 
C 57.521064 88.444505 57.672903 88.077933 57.672903 87.695759 
C 57.672903 87.313585 57.521064 86.947013 57.250826 86.676775 
C 56.980589 86.406538 56.614016 86.254699 56.231842 86.254699 
C 55.849669 86.254699 55.483096 86.406538 55.212859 86.676775 
C 54.942621 86.947013 54.790782 87.313585 54.790782 87.695759 
C 54.790782 88.077933 54.942621 88.444505 55.212859 88.714743 
C 55.483096 88.984981 55.849669 89.13682 56.231842 89.13682 
z
" clip-path="url(#p55ae2d0f2b)" style="stroke: #000000"/>
    <path d="M 51.771541 80.982392 
C 51.904142 80.982392 52.031331 80.929709 52.125094 80.835945 
C 52.218858 80.742182 52.271541 80.614993 52.271541 80.482392 
C 52.271541 80.34979 52.218858 80.222602 52.125094 80.128838 
C 52.031331 80.035075 51.904142 79.982392 51.771541 79.982392 
C 51.638939 79.982392 51.511751 80.035075 51.417987 80.128838 
C 51.324224 80.222602 51.271541 80.34979 51.271541 80.482392 
C 51.271541 80.614993 51.324224 80.742182 51.417987 80.835945 
C 51.511751 80.929709 51.638939 80.982392 51.771541 80.982392 
z
" clip-path="url(#p55ae2d0f2b)" style="stroke: #000000"/>
    <path d="M 46.690718 71.505046 
C 46.848409 71.505046 46.999662 71.442395 47.111166 71.33089 
C 47.222671 71.219386 47.285322 71.068133 47.285322 70.910442 
C 47.285322 70.752752 47.222671 70.601498 47.111166 70.489994 
C 46.999662 70.37849 46.848409 70.315839 46.690718 70.315839 
C 46.533027 70.315839 46.381774 70.37849 46.27027 70.489994 
C 46.158766 70.601498 46.096115 70.752752 46.096115 70.910442 
C 46.096115 71.068133 46.158766 71.219386 46.27027 71.33089 
C 46.381774 71.442395 46.533027 71.505046 46.690718 71.505046 
z
" clip-path="url(#p55ae2d0f2b)" style="stroke: #000000"/>
    <path d="M 70.60193 153.026462 
C 70.734531 153.026462 70.86172 152.973779 70.955483 152.880016 
C 71.049247 152.786252 71.10193 152.659064 71.10193 152.526462 
C 71.10193 152.393861 71.049247 152.266672 70.955483 152.172909 
C 70.86172 152.079145 70.734531 152.026462 70.60193 152.026462 
C 70.469328 152.026462 70.34214 152.079145 70.248376 152.172909 
C 70.154613 152.266672 70.10193 152.393861 70.10193 152.526462 
C 70.10193 152.659064 70.154613 152.786252 70.248376 152.880016 
C 70.34214 152.973779 70.469328 153.026462 70.60193 153.026462 
z
" clip-path="url(#p55ae2d0f2b)" style="stroke: #000000"/>
    <path d="M 66.960293 143.957674 
C 67.275675 143.957674 67.578181 143.832372 67.80119 143.609363 
C 68.024198 143.386355 68.1495 143.083848 68.1495 142.768467 
C 68.1495 142.453085 68.024198 142.150579 67.80119 141.92757 
C 67.578181 141.704562 67.275675 141.57926 66.960293 141.57926 
C 66.644912 141.57926 66.342405 141.704562 66.119397 141.92757 
C 65.896389 142.150579 65.771086 142.453085 65.771086 142.768467 
C 65.771086 143.083848 65.896389 143.386355 66.119397 143.609363 
C 66.342405 143.832372 66.644912 143.957674 66.960293 143.957674 
z
" clip-path="url(#p55ae2d0f2b)" style="stroke: #000000"/>
    <path d="M 66.588897 141.576976 
C 66.721499 141.576976 66.848687 141.524293 66.942451 141.43053 
C 67.036214 141.336766 67.088897 141.209578 67.088897 141.076976 
C 67.088897 140.944375 67.036214 140.817186 66.942451 140.723423 
C 66.848687 140.629659 66.721499 140.576976 66.588897 140.576976 
C 66.456296 140.576976 66.329107 140.629659 66.235344 140.723423 
C 66.14158 140.817186 66.088897 140.944375 66.088897 141.076976 
C 66.088897 141.209578 66.14158 141.336766 66.235344 141.43053 
C 66.329107 141.524293 66.456296 141.576976 66.588897 141.576976 
z
" clip-path="url(#p55ae2d0f2b)" style="stroke: #000000"/>
    <path d="M 63.541309 137.481998 
C 63.782797 137.481998 64.014428 137.386053 64.185186 137.215295 
C 64.355944 137.044537 64.451889 136.812906 64.451889 136.571417 
C 64.451889 136.329929 64.355944 136.098298 64.185186 135.92754 
C 64.014428 135.756782 63.782797 135.660837 63.541309 135.660837 
C 63.29982 135.660837 63.06819 135.756782 62.897431 135.92754 
C 62.726673 136.098298 62.630728 136.329929 62.630728 136.571417 
C 62.630728 136.812906 62.726673 137.044537 62.897431 137.215295 
C 63.06819 137.386053 63.29982 137.481998 63.541309 137.481998 
z
" clip-path="url(#p55ae2d0f2b)" style="stroke: #000000"/>
    <path d="M 60.868576 127.589238 
C 61.328717 127.589238 61.770073 127.406422 62.095442 127.081053 
C 62.420811 126.755685 62.603626 126.314328 62.603626 125.854188 
C 62.603626 125.394047 62.420811 124.95269 62.095442 124.627322 
C 61.770073 124.301953 61.328717 124.119137 60.868576 124.119137 
C 60.408436 124.119137 59.967079 124.301953 59.641711 124.627322 
C 59.316342 124.95269 59.133526 125.394047 59.133526 125.854188 
C 59.133526 126.314328 59.316342 126.755685 59.641711 127.081053 
C 59.967079 127.406422 60.408436 127.589238 60.868576 127.589238 
z
" clip-path="url(#p55ae2d0f2b)" style="stroke: #000000"/>
    <path d="M 57.174877 122.213798 
C 57.738756 122.213798 58.279615 121.989767 58.678337 121.591044 
C 59.07706 121.192322 59.301091 120.651463 59.301091 120.087584 
C 59.301091 119.523706 59.07706 118.982846 58.678337 118.584124 
C 58.279615 118.185402 57.738756 117.96137 57.174877 117.96137 
C 56.610999 117.96137 56.070139 118.185402 55.671417 118.584124 
C 55.272695 118.982846 55.048663 119.523706 55.048663 120.087584 
C 55.048663 120.651463 55.272695 121.192322 55.671417 121.591044 
C 56.070139 121.989767 56.610999 122.213798 57.174877 122.213798 
z
" clip-path="url(#p55ae2d0f2b)" style="stroke: #000000"/>
    <path d="M 53.38868 115.606424 
C 53.661808 115.606424 53.923786 115.497909 54.116917 115.304778 
C 54.310048 115.111647 54.418563 114.849668 54.418563 114.57654 
C 54.418563 114.303412 54.310048 114.041433 54.116917 113.848302 
C 53.923786 113.655171 53.661808 113.546656 53.38868 113.546656 
C 53.115551 113.546656 52.853573 113.655171 52.660442 113.848302 
C 52.467311 114.041433 52.358796 114.303412 52.358796 114.57654 
C 52.358796 114.849668 52.467311 115.111647 52.660442 115.304778 
C 52.853573 115.497909 53.115551 115.606424 53.38868 115.606424 
z
" clip-path="url(#p55ae2d0f2b)" style="stroke: #000000"/>
    <path d="M 54.09081 110.277609 
C 54.639422 110.277609 55.165639 110.059643 55.553566 109.671715 
C 55.941494 109.283788 56.15946 108.757572 56.15946 108.208959 
C 56.15946 107.660347 55.941494 107.134131 55.553566 106.746203 
C 55.165639 106.358276 54.639422 106.14031 54.09081 106.14031 
C 53.542198 106.14031 53.015982 106.358276 52.628054 106.746203 
C 52.240127 107.134131 52.022161 107.660347 52.022161 108.208959 
C 52.022161 108.757572 52.240127 109.283788 52.628054 109.671715 
C 53.015982 110.059643 53.542198 110.277609 54.09081 110.277609 
z
" clip-path="url(#p55ae2d0f2b)" style="stroke: #000000"/>
    <path d="M 51.81179 101.352597 
C 51.944392 101.352597 52.07158 101.299914 52.165344 101.206151 
C 52.259107 101.112387 52.31179 100.985199 52.31179 100.852597 
C 52.31179 100.719996 52.259107 100.592807 52.165344 100.499044 
C 52.07158 100.40528 51.944392 100.352597 51.81179 100.352597 
C 51.679189 100.352597 51.552001 100.40528 51.458237 100.499044 
C 51.364474 100.592807 51.31179 100.719996 51.31179 100.852597 
C 51.31179 100.985199 51.364474 101.112387 51.458237 101.206151 
C 51.552001 101.299914 51.679189 101.352597 51.81179 101.352597 
z
" clip-path="url(#p55ae2d0f2b)" style="stroke: #000000"/>
    <path d="M 48.821744 100.385634 
C 49.029277 100.385634 49.228337 100.30318 49.375085 100.156432 
C 49.521833 100.009684 49.604286 99.810624 49.604286 99.603091 
C 49.604286 99.395559 49.521833 99.196498 49.375085 99.04975 
C 49.228337 98.903003 49.029277 98.820549 48.821744 98.820549 
C 48.614211 98.820549 48.415151 98.903003 48.268403 99.04975 
C 48.121655 99.196498 48.039202 99.395559 48.039202 99.603091 
C 48.039202 99.810624 48.121655 100.009684 48.268403 100.156432 
C 48.415151 100.30318 48.614211 100.385634 48.821744 100.385634 
z
" clip-path="url(#p55ae2d0f2b)" style="stroke: #000000"/>
    <path d="M 45.209493 84.268418 
C 45.450981 84.268418 45.682612 84.172473 45.85337 84.001715 
C 46.024128 83.830957 46.120073 83.599326 46.120073 83.357837 
C 46.120073 83.116349 46.024128 82.884718 45.85337 82.71396 
C 45.682612 82.543202 45.450981 82.447257 45.209493 82.447257 
C 44.968004 82.447257 44.736373 82.543202 44.565615 82.71396 
C 44.394857 82.884718 44.298912 83.116349 44.298912 83.357837 
C 44.298912 83.599326 44.394857 83.830957 44.565615 84.001715 
C 44.736373 84.172473 44.968004 84.268418 45.209493 84.268418 
z
" clip-path="url(#p55ae2d0f2b)" style="stroke: #000000"/>
    <path d="M 67.074755 164.297785 
C 67.207356 164.297785 67.334545 164.245102 67.428308 164.151338 
C 67.522071 164.057575 67.574755 163.930387 67.574755 163.797785 
C 67.574755 163.665183 67.522071 163.537995 67.428308 163.444232 
C 67.334545 163.350468 67.207356 163.297785 67.074755 163.297785 
C 66.942153 163.297785 66.814965 163.350468 66.721201 163.444232 
C 66.627438 163.537995 66.574755 163.665183 66.574755 163.797785 
C 66.574755 163.930387 66.627438 164.057575 66.721201 164.151338 
C 66.814965 164.245102 66.942153 164.297785 67.074755 164.297785 
z
" clip-path="url(#p55ae2d0f2b)" style="stroke: #000000"/>
    <path d="M 58.098537 143.425649 
C 58.340025 143.425649 58.571656 143.329704 58.742414 143.158946 
C 58.913172 142.988188 59.009117 142.756557 59.009117 142.515068 
C 59.009117 142.27358 58.913172 142.041949 58.742414 141.871191 
C 58.571656 141.700433 58.340025 141.604488 58.098537 141.604488 
C 57.857048 141.604488 57.625417 141.700433 57.454659 141.871191 
C 57.283901 142.041949 57.187956 142.27358 57.187956 142.515068 
C 57.187956 142.756557 57.283901 142.988188 57.454659 143.158946 
C 57.625417 143.329704 57.857048 143.425649 58.098537 143.425649 
z
" clip-path="url(#p55ae2d0f2b)" style="stroke: #000000"/>
    <path d="M 56.584821 132.195169 
C 56.966995 132.195169 57.333567 132.04333 57.603805 131.773092 
C 57.874043 131.502854 58.025882 131.136282 58.025882 130.754108 
C 58.025882 130.371934 57.874043 130.005362 57.603805 129.735124 
C 57.333567 129.464887 56.966995 129.313047 56.584821 129.313047 
C 56.202647 129.313047 55.836075 129.464887 55.565837 129.735124 
C 55.2956 130.005362 55.14376 130.371934 55.14376 130.754108 
C 55.14376 131.136282 55.2956 131.502854 55.565837 131.773092 
C 55.836075 132.04333 56.202647 132.195169 56.584821 132.195169 
z
" clip-path="url(#p55ae2d0f2b)" style="stroke: #000000"/>
    <path d="M 49.747189 112.470817 
C 50.203311 112.470817 50.640812 112.289598 50.963339 111.967071 
C 51.285866 111.644544 51.467085 111.207043 51.467085 110.750921 
C 51.467085 110.2948 51.285866 109.857298 50.963339 109.534772 
C 50.640812 109.212245 50.203311 109.031026 49.747189 109.031026 
C 49.291068 109.031026 48.853566 109.212245 48.53104 109.534772 
C 48.208513 109.857298 48.027294 110.2948 48.027294 110.750921 
C 48.027294 111.207043 48.208513 111.644544 48.53104 111.967071 
C 48.853566 112.289598 49.291068 112.470817 49.747189 112.470817 
z
" clip-path="url(#p55ae2d0f2b)" style="stroke: #000000"/>
    <path d="M 47.379607 106.053948 
C 47.704413 106.053948 48.01596 105.924901 48.245632 105.695228 
C 48.475305 105.465556 48.604352 105.154009 48.604352 104.829203 
C 48.604352 104.504397 48.475305 104.19285 48.245632 103.963178 
C 48.01596 103.733505 47.704413 103.604458 47.379607 103.604458 
C 47.054801 103.604458 46.743254 103.733505 46.513582 103.963178 
C 46.283909 104.19285 46.154862 104.504397 46.154862 104.829203 
C 46.154862 105.154009 46.283909 105.465556 46.513582 105.695228 
C 46.743254 105.924901 47.054801 106.053948 47.379607 106.053948 
z
" clip-path="url(#p55ae2d0f2b)" style="stroke: #000000"/>
    <path d="M 43.195088 99.4394 
C 43.482268 99.4394 43.757724 99.325302 43.960791 99.122235 
C 44.163858 98.919168 44.277956 98.643712 44.277956 98.356532 
C 44.277956 98.069352 44.163858 97.793895 43.960791 97.590828 
C 43.757724 97.387761 43.482268 97.273663 43.195088 97.273663 
C 42.907908 97.273663 42.632451 97.387761 42.429384 97.590828 
C 42.226317 97.793895 42.112219 98.069352 42.112219 98.356532 
C 42.112219 98.643712 42.226317 98.919168 42.429384 99.122235 
C 42.632451 99.325302 42.907908 99.4394 43.195088 99.4394 
z
" clip-path="url(#p55ae2d0f2b)" style="stroke: #000000"/>
    <path d="M 55.798873 145.99941 
C 55.931475 145.99941 56.058663 145.946727 56.152427 145.852963 
C 56.24619 145.7592 56.298873 145.632012 56.298873 145.49941 
C 56.298873 145.366809 56.24619 145.23962 56.152427 145.145857 
C 56.058663 145.052093 55.931475 144.99941 55.798873 144.99941 
C 55.666272 144.99941 55.539083 145.052093 55.44532 145.145857 
C 55.351557 145.23962 55.298873 145.366809 55.298873 145.49941 
C 55.298873 145.632012 55.351557 145.7592 55.44532 145.852963 
C 55.539083 145.946727 55.666272 145.99941 55.798873 145.99941 
z
" clip-path="url(#p55ae2d0f2b)" style="stroke: #000000"/>
    <path d="M 48.668009 132.110059 
C 48.928968 132.110059 49.179273 132.006379 49.363799 131.821854 
C 49.548324 131.637328 49.652004 131.387023 49.652004 131.126064 
C 49.652004 130.865106 49.548324 130.6148 49.363799 130.430275 
C 49.179273 130.245749 48.928968 130.142069 48.668009 130.142069 
C 48.407051 130.142069 48.156745 130.245749 47.97222 130.430275 
C 47.787694 130.6148 47.684015 130.865106 47.684015 131.126064 
C 47.684015 131.387023 47.787694 131.637328 47.97222 131.821854 
C 48.156745 132.006379 48.407051 132.110059 48.668009 132.110059 
z
" clip-path="url(#p55ae2d0f2b)" style="stroke: #000000"/>
    <path d="M 46.73477 125.519938 
C 47.018629 125.519938 47.290901 125.40716 47.49162 125.206441 
C 47.692339 125.005722 47.805117 124.73345 47.805117 124.449591 
C 47.805117 124.165731 47.692339 123.89346 47.49162 123.692741 
C 47.290901 123.492022 47.018629 123.379243 46.73477 123.379243 
C 46.45091 123.379243 46.178639 123.492022 45.97792 123.692741 
C 45.777201 123.89346 45.664422 124.165731 45.664422 124.449591 
C 45.664422 124.73345 45.777201 125.005722 45.97792 125.206441 
C 46.178639 125.40716 46.45091 125.519938 46.73477 125.519938 
z
" clip-path="url(#p55ae2d0f2b)" style="stroke: #000000"/>
    <path d="M 45.065113 117.271975 
C 45.239626 117.271975 45.407016 117.20264 45.530415 117.07924 
C 45.653815 116.95584 45.72315 116.788451 45.72315 116.613938 
C 45.72315 116.439424 45.653815 116.272035 45.530415 116.148635 
C 45.407016 116.025235 45.239626 115.955901 45.065113 115.955901 
C 44.890599 115.955901 44.72321 116.025235 44.59981 116.148635 
C 44.476411 116.272035 44.407076 116.439424 44.407076 116.613938 
C 44.407076 116.788451 44.476411 116.95584 44.59981 117.07924 
C 44.72321 117.20264 44.890599 117.271975 45.065113 117.271975 
z
" clip-path="url(#p55ae2d0f2b)" style="stroke: #000000"/>
    <path d="M 41.407406 110.103191 
C 41.648895 110.103191 41.880525 110.007247 42.051284 109.836488 
C 42.222042 109.66573 42.317986 109.4341 42.317986 109.192611 
C 42.317986 108.951122 42.222042 108.719492 42.051284 108.548734 
C 41.880525 108.377975 41.648895 108.282031 41.407406 108.282031 
C 41.165918 108.282031 40.934287 108.377975 40.763529 108.548734 
C 40.592771 108.719492 40.496826 108.951122 40.496826 109.192611 
C 40.496826 109.4341 40.592771 109.66573 40.763529 109.836488 
C 40.934287 110.007247 41.165918 110.103191 41.407406 110.103191 
z
" clip-path="url(#p55ae2d0f2b)" style="stroke: #000000"/>
    <path d="M 39.376413 103.11258 
C 39.599421 103.11258 39.813326 103.023978 39.971016 102.866288 
C 40.128707 102.708597 40.217309 102.494692 40.217309 102.271684 
C 40.217309 102.048676 40.128707 101.834771 39.971016 101.677081 
C 39.813326 101.51939 39.599421 101.430788 39.376413 101.430788 
C 39.153404 101.430788 38.9395 101.51939 38.781809 101.677081 
C 38.624118 101.834771 38.535516 102.048676 38.535516 102.271684 
C 38.535516 102.494692 38.624118 102.708597 38.781809 102.866288 
C 38.9395 103.023978 39.153404 103.11258 39.376413 103.11258 
z
" clip-path="url(#p55ae2d0f2b)" style="stroke: #000000"/>
    <path d="M 35.072255 94.844236 
C 35.259782 94.844236 35.439654 94.76973 35.572255 94.637129 
C 35.704857 94.504527 35.779362 94.324656 35.779362 94.137129 
C 35.779362 93.949602 35.704857 93.76973 35.572255 93.637129 
C 35.439654 93.504527 35.259782 93.430022 35.072255 93.430022 
C 34.884728 93.430022 34.704857 93.504527 34.572255 93.637129 
C 34.439654 93.76973 34.365149 93.949602 34.365149 94.137129 
C 34.365149 94.324656 34.439654 94.504527 34.572255 94.637129 
C 34.704857 94.76973 34.884728 94.844236 35.072255 94.844236 
z
" clip-path="url(#p55ae2d0f2b)" style="stroke: #000000"/>
    <path d="M 35.306883 109.601787 
C 35.464574 109.601787 35.615827 109.539136 35.727331 109.427632 
C 35.838835 109.316128 35.901487 109.164875 35.901487 109.007184 
C 35.901487 108.849493 35.838835 108.69824 35.727331 108.586736 
C 35.615827 108.475232 35.464574 108.41258 35.306883 108.41258 
C 35.149192 108.41258 34.997939 108.475232 34.886435 108.586736 
C 34.774931 108.69824 34.712279 108.849493 34.712279 109.007184 
C 34.712279 109.164875 34.774931 109.316128 34.886435 109.427632 
C 34.997939 109.539136 35.149192 109.601787 35.306883 109.601787 
z
" clip-path="url(#p55ae2d0f2b)" style="stroke: #000000"/>
    <path d="M 38.591201 138.371945 
C 38.723802 138.371945 38.850991 138.319261 38.944754 138.225498 
C 39.038518 138.131735 39.091201 138.004546 39.091201 137.871945 
C 39.091201 137.739343 39.038518 137.612155 38.944754 137.518391 
C 38.850991 137.424628 38.723802 137.371945 38.591201 137.371945 
C 38.458599 137.371945 38.331411 137.424628 38.237647 137.518391 
C 38.143884 137.612155 38.091201 137.739343 38.091201 137.871945 
C 38.091201 138.004546 38.143884 138.131735 38.237647 138.225498 
C 38.331411 138.319261 38.458599 138.371945 38.591201 138.371945 
z
" clip-path="url(#p55ae2d0f2b)" style="stroke: #000000"/>
   </g>
   <g id="matplotlib.axis_1">
    <g id="xtick_1">
     <g id="line2d_1">
      <defs>
       <path id="m4ae8e080fb" d="M 0 0 
L 0 3.5 
" style="stroke: #000000; stroke-width: 0.8"/>
      </defs>
      <g>
       <use xlink:href="#m4ae8e080fb" x="18" y="189" style="stroke: #000000; stroke-width: 0.8"/>
      </g>
     </g>
     <g id="text_1">
      <!-- 10 -->
      <g transform="translate(7.447656 203.598437)scale(0.1 -0.1)">
       <defs>
        <path id="DejaVuSans-2212" d="M 678 2272 
L 4684 2272 
L 4684 1741 
L 678 1741 
L 678 2272 
z
" transform="scale(0.015625)"/>
        <path id="DejaVuSans-31" d="M 794 531 
L 1825 531 
L 1825 4091 
L 703 3866 
L 703 4441 
L 1819 4666 
L 2450 4666 
L 2450 531 
L 3481 531 
L 3481 0 
L 794 0 
L 794 531 
z
" transform="scale(0.015625)"/>
        <path id="DejaVuSans-30" d="M 2034 4250 
Q 1547 4250 1301 3770 
Q 1056 3291 1056 2328 
Q 1056 1369 1301 889 
Q 1547 409 2034 409 
Q 2525 409 2770 889 
Q 3016 1369 3016 2328 
Q 3016 3291 2770 3770 
Q 2525 4250 2034 4250 
z
M 2034 4750 
Q 2819 4750 3233 4129 
Q 3647 3509 3647 2328 
Q 3647 1150 3233 529 
Q 2819 -91 2034 -91 
Q 1250 -91 836 529 
Q 422 1150 422 2328 
Q 422 3509 836 4129 
Q 1250 4750 2034 4750 
z
" transform="scale(0.015625)"/>
       </defs>
       <use xlink:href="#DejaVuSans-2212"/>
       <use xlink:href="#DejaVuSans-31" x="83.789062"/>
       <use xlink:href="#DejaVuSans-30" x="147.412109"/>
      </g>
     </g>
    </g>
    <g id="xtick_2">
     <g id="line2d_2">
      <g>
       <use xlink:href="#m4ae8e080fb" x="73.8" y="189" style="stroke: #000000; stroke-width: 0.8"/>
      </g>
     </g>
     <g id="text_2">
      <!-- 0 -->
      <g transform="translate(70.61875 203.598437)scale(0.1 -0.1)">
       <use xlink:href="#DejaVuSans-30"/>
      </g>
     </g>
    </g>
    <g id="xtick_3">
     <g id="line2d_3">
      <g>
       <use xlink:href="#m4ae8e080fb" x="129.6" y="189" style="stroke: #000000; stroke-width: 0.8"/>
      </g>
     </g>
     <g id="text_3">
      <!-- 10 -->
      <g transform="translate(123.2375 203.598437)scale(0.1 -0.1)">
       <use xlink:href="#DejaVuSans-31"/>
       <use xlink:href="#DejaVuSans-30" x="63.623047"/>
      </g>
     </g>
    </g>
   </g>
   <g id="matplotlib.axis_2">
    <g id="ytick_1">
     <g id="line2d_4">
      <defs>
       <path id="m561772539a" d="M 0 0 
L -3.5 0 
" style="stroke: #000000; stroke-width: 0.8"/>
      </defs>
      <g>
       <use xlink:href="#m561772539a" x="18" y="189" style="stroke: #000000; stroke-width: 0.8"/>
      </g>
     </g>
     <g id="text_4">
      <!-- 15 -->
      <g transform="translate(-10.104688 192.799219)scale(0.1 -0.1)">
       <defs>
        <path id="DejaVuSans-35" d="M 691 4666 
L 3169 4666 
L 3169 4134 
L 1269 4134 
L 1269 2991 
Q 1406 3038 1543 3061 
Q 1681 3084 1819 3084 
Q 2600 3084 3056 2656 
Q 3513 2228 3513 1497 
Q 3513 744 3044 326 
Q 2575 -91 1722 -91 
Q 1428 -91 1123 -41 
Q 819 9 494 109 
L 494 744 
Q 775 591 1075 516 
Q 1375 441 1709 441 
Q 2250 441 2565 725 
Q 2881 1009 2881 1497 
Q 2881 1984 2565 2268 
Q 2250 2553 1709 2553 
Q 1456 2553 1204 2497 
Q 953 2441 691 2322 
L 691 4666 
z
" transform="scale(0.015625)"/>
       </defs>
       <use xlink:href="#DejaVuSans-2212"/>
       <use xlink:href="#DejaVuSans-31" x="83.789062"/>
       <use xlink:href="#DejaVuSans-35" x="147.412109"/>
      </g>
     </g>
    </g>
    <g id="ytick_2">
     <g id="line2d_5">
      <g>
       <use xlink:href="#m561772539a" x="18" y="161.82" style="stroke: #000000; stroke-width: 0.8"/>
      </g>
     </g>
     <g id="text_5">
      <!-- 10 -->
      <g transform="translate(-10.104688 165.619219)scale(0.1 -0.1)">
       <use xlink:href="#DejaVuSans-2212"/>
       <use xlink:href="#DejaVuSans-31" x="83.789062"/>
       <use xlink:href="#DejaVuSans-30" x="147.412109"/>
      </g>
     </g>
    </g>
    <g id="ytick_3">
     <g id="line2d_6">
      <g>
       <use xlink:href="#m561772539a" x="18" y="134.64" style="stroke: #000000; stroke-width: 0.8"/>
      </g>
     </g>
     <g id="text_6">
      <!-- 5 -->
      <g transform="translate(-3.742188 138.439219)scale(0.1 -0.1)">
       <use xlink:href="#DejaVuSans-2212"/>
       <use xlink:href="#DejaVuSans-35" x="83.789062"/>
      </g>
     </g>
    </g>
    <g id="ytick_4">
     <g id="line2d_7">
      <g>
       <use xlink:href="#m561772539a" x="18" y="107.46" style="stroke: #000000; stroke-width: 0.8"/>
      </g>
     </g>
     <g id="text_7">
      <!-- 0 -->
      <g transform="translate(4.6375 111.259219)scale(0.1 -0.1)">
       <use xlink:href="#DejaVuSans-30"/>
      </g>
     </g>
    </g>
    <g id="ytick_5">
     <g id="line2d_8">
      <g>
       <use xlink:href="#m561772539a" x="18" y="80.28" style="stroke: #000000; stroke-width: 0.8"/>
      </g>
     </g>
     <g id="text_8">
      <!-- 5 -->
      <g transform="translate(4.6375 84.079219)scale(0.1 -0.1)">
       <use xlink:href="#DejaVuSans-35"/>
      </g>
     </g>
    </g>
    <g id="ytick_6">
     <g id="line2d_9">
      <g>
       <use xlink:href="#m561772539a" x="18" y="53.1" style="stroke: #000000; stroke-width: 0.8"/>
      </g>
     </g>
     <g id="text_9">
      <!-- 10 -->
      <g transform="translate(-1.725 56.899219)scale(0.1 -0.1)">
       <use xlink:href="#DejaVuSans-31"/>
       <use xlink:href="#DejaVuSans-30" x="63.623047"/>
      </g>
     </g>
    </g>
    <g id="ytick_7">
     <g id="line2d_10">
      <g>
       <use xlink:href="#m561772539a" x="18" y="25.92" style="stroke: #000000; stroke-width: 0.8"/>
      </g>
     </g>
     <g id="text_10">
      <!-- 15 -->
      <g transform="translate(-1.725 29.719219)scale(0.1 -0.1)">
       <use xlink:href="#DejaVuSans-31"/>
       <use xlink:href="#DejaVuSans-35" x="63.623047"/>
      </g>
     </g>
    </g>
   </g>
   <g id="patch_3">
    <path d="M 18 189 
L 18 25.92 
" style="fill: none; stroke: #000000; stroke-width: 0.8; stroke-linejoin: miter; stroke-linecap: square"/>
   </g>
   <g id="patch_4">
    <path d="M 129.6 189 
L 129.6 25.92 
" style="fill: none; stroke: #000000; stroke-width: 0.8; stroke-linejoin: miter; stroke-linecap: square"/>
   </g>
   <g id="patch_5">
    <path d="M 18 189 
L 129.6 189 
" style="fill: none; stroke: #000000; stroke-width: 0.8; stroke-linejoin: miter; stroke-linecap: square"/>
   </g>
   <g id="patch_6">
    <path d="M 18 25.92 
L 129.6 25.92 
" style="fill: none; stroke: #000000; stroke-width: 0.8; stroke-linejoin: miter; stroke-linecap: square"/>
   </g>
  </g>
 </g>
 <defs>
  <clipPath id="p55ae2d0f2b">
   <rect x="18" y="25.92" width="111.6" height="163.08"/>
  </clipPath>
 </defs>
</svg>
