<?xml version="1.0" encoding="utf-8" standalone="no"?>
<!DOCTYPE svg PUBLIC "-//W3C//DTD SVG 1.1//EN"
  "http://www.w3.org/Graphics/SVG/1.1/DTD/svg11.dtd">
<svg xmlns:xlink="http://www.w3.org/1999/xlink" width="144pt" height="216pt" viewBox="0 0 144 216" xmlns="http://www.w3.org/2000/svg" version="1.1">
 <metadata>
  <rdf:RDF xmlns:dc="http://purl.org/dc/elements/1.1/" xmlns:cc="http://creativecommons.org/ns#" xmlns:rdf="http://www.w3.org/1999/02/22-rdf-syntax-ns#">
   <cc:Work>
    <dc:type rdf:resource="http://purl.org/dc/dcmitype/StillImage"/>
    <dc:date>2022-06-28T09:26:34.807657</dc:date>
    <dc:format>image/svg+xml</dc:format>
    <dc:creator>
     <cc:Agent>
      <dc:title>Matplotlib v3.5.1, https://matplotlib.org/</dc:title>
     </cc:Agent>
    </dc:creator>
   </cc:Work>
  </rdf:RDF>
 </metadata>
 <defs>
  <style type="text/css">*{stroke-linejoin: round; stroke-linecap: butt}</style>
 </defs>
 <g id="figure_1">
  <g id="patch_1">
   <path d="M 0 216 
L 144 216 
L 144 0 
L 0 0 
L 0 216 
z
" style="fill: none"/>
  </g>
  <g id="axes_1">
   <g id="patch_2">
    <path d="M 18 189 
L 129.6 189 
L 129.6 25.92 
L 18 25.92 
z
" style="fill: #ffffff"/>
   </g>
   <g id="PathCollection_1">
    <defs>
     <path id="m7ee64d6043" d="M 0 2.738613 
C 0.726289 2.738613 1.422928 2.450055 1.936492 1.936492 
C 2.450055 1.422928 2.738613 0.726289 2.738613 0 
C 2.738613 -0.726289 2.450055 -1.422928 1.936492 -1.936492 
C 1.422928 -2.450055 0.726289 -2.738613 0 -2.738613 
C -0.726289 -2.738613 -1.422928 -2.450055 -1.936492 -1.936492 
C -2.450055 -1.422928 -2.738613 -0.726289 -2.738613 0 
C -2.738613 0.726289 -2.450055 1.422928 -1.936492 1.936492 
C -1.422928 2.450055 -0.726289 2.738613 0 2.738613 
z
" style="stroke: #ff0000; stroke-width: 1.75"/>
    </defs>
    <g clip-path="url(#pcb500db90c)">
     <use xlink:href="#m7ee64d6043" x="66.825" y="83.92143" style="fill: #ff0000; stroke: #ff0000; stroke-width: 1.75"/>
     <use xlink:href="#m7ee64d6043" x="87.75" y="95.690715" style="fill: #ff0000; stroke: #ff0000; stroke-width: 1.75"/>
     <use xlink:href="#m7ee64d6043" x="66.825" y="107.46" style="fill: #ff0000; stroke: #ff0000; stroke-width: 1.75"/>
     <use xlink:href="#m7ee64d6043" x="73.8" y="119.229285" style="fill: #ff0000; stroke: #ff0000; stroke-width: 1.75"/>
     <use xlink:href="#m7ee64d6043" x="87.75" y="119.229285" style="fill: #ff0000; stroke: #ff0000; stroke-width: 1.75"/>
     <use xlink:href="#m7ee64d6043" x="66.825" y="130.99857" style="fill: #ff0000; stroke: #ff0000; stroke-width: 1.75"/>
     <use xlink:href="#m7ee64d6043" x="80.775" y="130.99857" style="fill: #ff0000; stroke: #ff0000; stroke-width: 1.75"/>
    </g>
   </g>
   <g id="PathCollection_2">
    <defs>
     <path id="C0_0_228b788381" d="M 0 2.738613 
C 0.726289 2.738613 1.422928 2.450055 1.936492 1.936492 
C 2.450055 1.422928 2.738613 0.726289 2.738613 -0 
C 2.738613 -0.726289 2.450055 -1.422928 1.936492 -1.936492 
C 1.422928 -2.450055 0.726289 -2.738613 0 -2.738613 
C -0.726289 -2.738613 -1.422928 -2.450055 -1.936492 -1.936492 
C -2.450055 -1.422928 -2.738613 -0.726289 -2.738613 0 
C -2.738613 0.726289 -2.450055 1.422928 -1.936492 1.936492 
C -1.422928 2.450055 -0.726289 2.738613 0 2.738613 
z
"/>
    </defs>
    <g clip-path="url(#pcb500db90c)">
     <use xlink:href="#C0_0_228b788381" x="80.775" y="83.92143" style="fill: none; stroke: #ff0000; stroke-width: 1.75"/>
    </g>
    <g clip-path="url(#pcb500db90c)">
     <use xlink:href="#C0_0_228b788381" x="59.85" y="95.690715" style="fill: none; stroke: #ff0000; stroke-width: 1.75"/>
    </g>
    <g clip-path="url(#pcb500db90c)">
     <use xlink:href="#C0_0_228b788381" x="73.8" y="95.690715" style="fill: none; stroke: #ff0000; stroke-width: 1.75"/>
    </g>
    <g clip-path="url(#pcb500db90c)">
     <use xlink:href="#C0_0_228b788381" x="52.875" y="107.46" style="fill: none; stroke: #ff0000; stroke-width: 1.75"/>
    </g>
    <g clip-path="url(#pcb500db90c)">
     <use xlink:href="#C0_0_228b788381" x="80.775" y="107.46" style="fill: none; stroke: #ff0000; stroke-width: 1.75"/>
    </g>
    <g clip-path="url(#pcb500db90c)">
     <use xlink:href="#C0_0_228b788381" x="94.725" y="107.46" style="fill: none; stroke: #ff0000; stroke-width: 1.75"/>
    </g>
    <g clip-path="url(#pcb500db90c)">
     <use xlink:href="#C0_0_228b788381" x="59.85" y="119.229285" style="fill: none; stroke: #ff0000; stroke-width: 1.75"/>
    </g>
   </g>
   <g id="PathCollection_3">
    <path d="M 95.898739 109.584866 
C 96.399875 109.584866 96.880554 109.385763 97.234911 109.031406 
C 97.589268 108.677048 97.788372 108.19637 97.788372 107.695233 
C 97.788372 107.194096 97.589268 106.713418 97.234911 106.35906 
C 96.880554 106.004703 96.399875 105.8056 95.898739 105.8056 
C 95.397602 105.8056 94.916923 106.004703 94.562566 106.35906 
C 94.208209 106.713418 94.009105 107.194096 94.009105 107.695233 
C 94.009105 108.19637 94.208209 108.677048 94.562566 109.031406 
C 94.916923 109.385763 95.397602 109.584866 95.898739 109.584866 
z
" clip-path="url(#pcb500db90c)" style="stroke: #000000"/>
    <path d="M 90.950318 96.932522 
C 91.462161 96.932522 91.953109 96.729165 92.315037 96.367237 
C 92.676965 96.005309 92.880322 95.514361 92.880322 95.002518 
C 92.880322 94.490675 92.676965 93.999727 92.315037 93.637799 
C 91.953109 93.275871 91.462161 93.072514 90.950318 93.072514 
C 90.438475 93.072514 89.947527 93.275871 89.585599 93.637799 
C 89.223671 93.999727 89.020314 94.490675 89.020314 95.002518 
C 89.020314 95.514361 89.223671 96.005309 89.585599 96.367237 
C 89.947527 96.729165 90.438475 96.932522 90.950318 96.932522 
z
" clip-path="url(#pcb500db90c)" style="stroke: #000000"/>
    <path d="M 83.806265 88.32307 
C 84.147782 88.32307 84.475356 88.187384 84.716845 87.945895 
C 84.958334 87.704406 85.09402 87.376831 85.09402 87.035315 
C 85.09402 86.693798 84.958334 86.366223 84.716845 86.124735 
C 84.475356 85.883246 84.147782 85.74756 83.806265 85.74756 
C 83.464748 85.74756 83.137174 85.883246 82.895685 86.124735 
C 82.654196 86.366223 82.51851 86.693798 82.51851 87.035315 
C 82.51851 87.376831 82.654196 87.704406 82.895685 87.945895 
C 83.137174 88.187384 83.464748 88.32307 83.806265 88.32307 
z
" clip-path="url(#pcb500db90c)" style="stroke: #000000"/>
    <path d="M 87.829291 119.887407 
C 87.961893 119.887407 88.089081 119.834724 88.182845 119.740961 
C 88.276608 119.647197 88.329291 119.520009 88.329291 119.387407 
C 88.329291 119.254806 88.276608 119.127617 88.182845 119.033854 
C 88.089081 118.940091 87.961893 118.887407 87.829291 118.887407 
C 87.69669 118.887407 87.569501 118.940091 87.475738 119.033854 
C 87.381974 119.127617 87.329291 119.254806 87.329291 119.387407 
C 87.329291 119.520009 87.381974 119.647197 87.475738 119.740961 
C 87.569501 119.834724 87.69669 119.887407 87.829291 119.887407 
z
" clip-path="url(#pcb500db90c)" style="stroke: #000000"/>
    <path d="M 85.082684 106.654342 
C 85.33918 106.654342 85.585205 106.552435 85.766575 106.371065 
C 85.947945 106.189695 86.049852 105.943669 86.049852 105.687173 
C 86.049852 105.430677 85.947945 105.184652 85.766575 105.003282 
C 85.585205 104.821912 85.33918 104.720005 85.082684 104.720005 
C 84.826188 104.720005 84.580163 104.821912 84.398793 105.003282 
C 84.217423 105.184652 84.115516 105.430677 84.115516 105.687173 
C 84.115516 105.943669 84.217423 106.189695 84.398793 106.371065 
C 84.580163 106.552435 84.826188 106.654342 85.082684 106.654342 
z
" clip-path="url(#pcb500db90c)" style="stroke: #000000"/>
    <path d="M 79.813118 107.952998 
C 79.945719 107.952998 80.072908 107.900315 80.166671 107.806551 
C 80.260435 107.712788 80.313118 107.585599 80.313118 107.452998 
C 80.313118 107.320396 80.260435 107.193208 80.166671 107.099444 
C 80.072908 107.005681 79.945719 106.952998 79.813118 106.952998 
C 79.680516 106.952998 79.553328 107.005681 79.459564 107.099444 
C 79.365801 107.193208 79.313118 107.320396 79.313118 107.452998 
C 79.313118 107.585599 79.365801 107.712788 79.459564 107.806551 
C 79.553328 107.900315 79.680516 107.952998 79.813118 107.952998 
z
" clip-path="url(#pcb500db90c)" style="stroke: #000000"/>
    <path d="M 66.490518 84.306448 
C 66.90666 84.306448 67.305814 84.141113 67.600071 83.846856 
C 67.894328 83.552599 68.059663 83.153445 68.059663 82.737303 
C 68.059663 82.321161 67.894328 81.922007 67.600071 81.627751 
C 67.305814 81.333494 66.90666 81.168159 66.490518 81.168159 
C 66.074376 81.168159 65.675222 81.333494 65.380965 81.627751 
C 65.086709 81.922007 64.921374 82.321161 64.921374 82.737303 
C 64.921374 83.153445 65.086709 83.552599 65.380965 83.846856 
C 65.675222 84.141113 66.074376 84.306448 66.490518 84.306448 
z
" clip-path="url(#pcb500db90c)" style="stroke: #000000"/>
    <path d="M 79.467518 133.711511 
C 79.990519 133.711511 80.492169 133.50372 80.861987 133.133903 
C 81.231804 132.764085 81.439595 132.262435 81.439595 131.739434 
C 81.439595 131.216433 81.231804 130.714782 80.861987 130.344965 
C 80.492169 129.975147 79.990519 129.767357 79.467518 129.767357 
C 78.944517 129.767357 78.442866 129.975147 78.073049 130.344965 
C 77.703231 130.714782 77.495441 131.216433 77.495441 131.739434 
C 77.495441 132.262435 77.703231 132.764085 78.073049 133.133903 
C 78.442866 133.50372 78.944517 133.711511 79.467518 133.711511 
z
" clip-path="url(#pcb500db90c)" style="stroke: #000000"/>
    <path d="M 62.046783 86.370416 
C 62.493668 86.370416 62.92231 86.192867 63.238306 85.876871 
C 63.554301 85.560875 63.731851 85.132233 63.731851 84.685348 
C 63.731851 84.238463 63.554301 83.809821 63.238306 83.493825 
C 62.92231 83.177829 62.493668 83.00028 62.046783 83.00028 
C 61.599898 83.00028 61.171255 83.177829 60.85526 83.493825 
C 60.539264 83.809821 60.361715 84.238463 60.361715 84.685348 
C 60.361715 85.132233 60.539264 85.560875 60.85526 85.876871 
C 61.171255 86.192867 61.599898 86.370416 62.046783 86.370416 
z
" clip-path="url(#pcb500db90c)" style="stroke: #000000"/>
    <path d="M 70.499911 120.674411 
C 70.916053 120.674411 71.315207 120.509076 71.609463 120.214819 
C 71.90372 119.920563 72.069055 119.521409 72.069055 119.105267 
C 72.069055 118.689125 71.90372 118.289971 71.609463 117.995714 
C 71.315207 117.701457 70.916053 117.536122 70.499911 117.536122 
C 70.083769 117.536122 69.684615 117.701457 69.390358 117.995714 
C 69.096101 118.289971 68.930766 118.689125 68.930766 119.105267 
C 68.930766 119.521409 69.096101 119.920563 69.390358 120.214819 
C 69.684615 120.509076 70.083769 120.674411 70.499911 120.674411 
z
" clip-path="url(#pcb500db90c)" style="stroke: #000000"/>
    <path d="M 67.905735 111.36023 
C 68.063426 111.36023 68.214679 111.297579 68.326183 111.186075 
C 68.437687 111.07457 68.500339 110.923317 68.500339 110.765626 
C 68.500339 110.607936 68.437687 110.456682 68.326183 110.345178 
C 68.214679 110.233674 68.063426 110.171023 67.905735 110.171023 
C 67.748044 110.171023 67.596791 110.233674 67.485287 110.345178 
C 67.373783 110.456682 67.311131 110.607936 67.311131 110.765626 
C 67.311131 110.923317 67.373783 111.07457 67.485287 111.186075 
C 67.596791 111.297579 67.748044 111.36023 67.905735 111.36023 
z
" clip-path="url(#pcb500db90c)" style="stroke: #000000"/>
    <path d="M 65.186161 107.359786 
C 65.360675 107.359786 65.528064 107.290451 65.651464 107.167051 
C 65.774863 107.043651 65.844198 106.876262 65.844198 106.701749 
C 65.844198 106.527235 65.774863 106.359846 65.651464 106.236446 
C 65.528064 106.113046 65.360675 106.043712 65.186161 106.043712 
C 65.011648 106.043712 64.844258 106.113046 64.720859 106.236446 
C 64.597459 106.359846 64.528124 106.527235 64.528124 106.701749 
C 64.528124 106.876262 64.597459 107.043651 64.720859 107.167051 
C 64.844258 107.290451 65.011648 107.359786 65.186161 107.359786 
z
" clip-path="url(#pcb500db90c)" style="stroke: #000000"/>
    <path d="M 62.742106 97.337748 
C 63.257373 97.337748 63.751605 97.13303 64.115954 96.768681 
C 64.480303 96.404332 64.685021 95.9101 64.685021 95.394833 
C 64.685021 94.879566 64.480303 94.385334 64.115954 94.020985 
C 63.751605 93.656636 63.257373 93.451918 62.742106 93.451918 
C 62.226839 93.451918 61.732607 93.656636 61.368258 94.020985 
C 61.003909 94.385334 60.799191 94.879566 60.799191 95.394833 
C 60.799191 95.9101 61.003909 96.404332 61.368258 96.768681 
C 61.732607 97.13303 62.226839 97.337748 62.742106 97.337748 
z
" clip-path="url(#pcb500db90c)" style="stroke: #000000"/>
    <path d="M 69.23935 131.930178 
C 69.508603 131.930178 69.766865 131.823203 69.957256 131.632812 
C 70.147646 131.442421 70.254622 131.18416 70.254622 130.914907 
C 70.254622 130.645654 70.147646 130.387392 69.957256 130.197001 
C 69.766865 130.006611 69.508603 129.899635 69.23935 129.899635 
C 68.970097 129.899635 68.711836 130.006611 68.521445 130.197001 
C 68.331054 130.387392 68.224079 130.645654 68.224079 130.914907 
C 68.224079 131.18416 68.331054 131.442421 68.521445 131.632812 
C 68.711836 131.823203 68.970097 131.930178 69.23935 131.930178 
z
" clip-path="url(#pcb500db90c)" style="stroke: #000000"/>
    <path d="M 56.935216 97.982921 
C 57.294673 97.982921 57.639456 97.840107 57.89363 97.585933 
C 58.147805 97.331758 58.290619 96.986975 58.290619 96.627518 
C 58.290619 96.268061 58.147805 95.923278 57.89363 95.669103 
C 57.639456 95.414929 57.294673 95.272115 56.935216 95.272115 
C 56.575759 95.272115 56.230976 95.414929 55.976801 95.669103 
C 55.722627 95.923278 55.579813 96.268061 55.579813 96.627518 
C 55.579813 96.986975 55.722627 97.331758 55.976801 97.585933 
C 56.230976 97.840107 56.575759 97.982921 56.935216 97.982921 
z
" clip-path="url(#pcb500db90c)" style="stroke: #000000"/>
    <path d="M 62.503196 133.563675 
C 63.004946 133.563675 63.486212 133.364327 63.841003 133.009537 
C 64.195794 132.654746 64.395141 132.173479 64.395141 131.67173 
C 64.395141 131.16998 64.195794 130.688713 63.841003 130.333923 
C 63.486212 129.979132 63.004946 129.779785 62.503196 129.779785 
C 62.001446 129.779785 61.520179 129.979132 61.165389 130.333923 
C 60.810598 130.688713 60.611251 131.16998 60.611251 131.67173 
C 60.611251 132.173479 60.810598 132.654746 61.165389 133.009537 
C 61.520179 133.364327 62.001446 133.563675 62.503196 133.563675 
z
" clip-path="url(#pcb500db90c)" style="stroke: #000000"/>
    <path d="M 59.683574 125.859786 
C 60.169272 125.859786 60.635143 125.666816 60.978584 125.323375 
C 61.322024 124.979934 61.514994 124.514063 61.514994 124.028365 
C 61.514994 123.542667 61.322024 123.076796 60.978584 122.733355 
C 60.635143 122.389914 60.169272 122.196944 59.683574 122.196944 
C 59.197875 122.196944 58.732004 122.389914 58.388564 122.733355 
C 58.045123 123.076796 57.852153 123.542667 57.852153 124.028365 
C 57.852153 124.514063 58.045123 124.979934 58.388564 125.323375 
C 58.732004 125.666816 59.197875 125.859786 59.683574 125.859786 
z
" clip-path="url(#pcb500db90c)" style="stroke: #000000"/>
    <path d="M 58.955668 121.192508 
C 59.171355 121.192508 59.378236 121.106814 59.53075 120.954301 
C 59.683263 120.801788 59.768956 120.594906 59.768956 120.379219 
C 59.768956 120.163533 59.683263 119.956651 59.53075 119.804138 
C 59.378236 119.651624 59.171355 119.565931 58.955668 119.565931 
C 58.739981 119.565931 58.5331 119.651624 58.380586 119.804138 
C 58.228073 119.956651 58.14238 120.163533 58.14238 120.379219 
C 58.14238 120.594906 58.228073 120.801788 58.380586 120.954301 
C 58.5331 121.106814 58.739981 121.192508 58.955668 121.192508 
z
" clip-path="url(#pcb500db90c)" style="stroke: #000000"/>
    <path d="M 61.395455 137.852642 
C 61.528057 137.852642 61.655245 137.799959 61.749008 137.706195 
C 61.842772 137.612432 61.895455 137.485244 61.895455 137.352642 
C 61.895455 137.220041 61.842772 137.092852 61.749008 136.999089 
C 61.655245 136.905325 61.528057 136.852642 61.395455 136.852642 
C 61.262853 136.852642 61.135665 136.905325 61.041902 136.999089 
C 60.948138 137.092852 60.895455 137.220041 60.895455 137.352642 
C 60.895455 137.485244 60.948138 137.612432 61.041902 137.706195 
C 61.135665 137.799959 61.262853 137.852642 61.395455 137.852642 
z
" clip-path="url(#pcb500db90c)" style="stroke: #000000"/>
    <path d="M 51.061648 109.267479 
C 51.65466 109.267479 52.223464 109.031873 52.642786 108.61255 
C 53.062109 108.193227 53.297716 107.624423 53.297716 107.031411 
C 53.297716 106.438399 53.062109 105.869595 52.642786 105.450272 
C 52.223464 105.030949 51.65466 104.795343 51.061648 104.795343 
C 50.468635 104.795343 49.899832 105.030949 49.480509 105.450272 
C 49.061186 105.869595 48.82558 106.438399 48.82558 107.031411 
C 48.82558 107.624423 49.061186 108.193227 49.480509 108.61255 
C 49.899832 109.031873 50.468635 109.267479 51.061648 109.267479 
z
" clip-path="url(#pcb500db90c)" style="stroke: #000000"/>
   </g>
   <g id="matplotlib.axis_1">
    <g id="xtick_1">
     <g id="line2d_1">
      <defs>
       <path id="mef07a684cf" d="M 0 0 
L 0 3.5 
" style="stroke: #000000; stroke-width: 0.8"/>
      </defs>
      <g>
       <use xlink:href="#mef07a684cf" x="18" y="189" style="stroke: #000000; stroke-width: 0.8"/>
      </g>
     </g>
     <g id="text_1">
      <!-- −10 -->
      <g transform="translate(7.447656 203.598437)scale(0.1 -0.1)">
       <defs>
        <path id="DejaVuSans-2212" d="M 678 2272 
L 4684 2272 
L 4684 1741 
L 678 1741 
L 678 2272 
z
" transform="scale(0.015625)"/>
        <path id="DejaVuSans-31" d="M 794 531 
L 1825 531 
L 1825 4091 
L 703 3866 
L 703 4441 
L 1819 4666 
L 2450 4666 
L 2450 531 
L 3481 531 
L 3481 0 
L 794 0 
L 794 531 
z
" transform="scale(0.015625)"/>
        <path id="DejaVuSans-30" d="M 2034 4250 
Q 1547 4250 1301 3770 
Q 1056 3291 1056 2328 
Q 1056 1369 1301 889 
Q 1547 409 2034 409 
Q 2525 409 2770 889 
Q 3016 1369 3016 2328 
Q 3016 3291 2770 3770 
Q 2525 4250 2034 4250 
z
M 2034 4750 
Q 2819 4750 3233 4129 
Q 3647 3509 3647 2328 
Q 3647 1150 3233 529 
Q 2819 -91 2034 -91 
Q 1250 -91 836 529 
Q 422 1150 422 2328 
Q 422 3509 836 4129 
Q 1250 4750 2034 4750 
z
" transform="scale(0.015625)"/>
       </defs>
       <use xlink:href="#DejaVuSans-2212"/>
       <use xlink:href="#DejaVuSans-31" x="83.789062"/>
       <use xlink:href="#DejaVuSans-30" x="147.412109"/>
      </g>
     </g>
    </g>
    <g id="xtick_2">
     <g id="line2d_2">
      <g>
       <use xlink:href="#mef07a684cf" x="73.8" y="189" style="stroke: #000000; stroke-width: 0.8"/>
      </g>
     </g>
     <g id="text_2">
      <!-- 0 -->
      <g transform="translate(70.61875 203.598437)scale(0.1 -0.1)">
       <use xlink:href="#DejaVuSans-30"/>
      </g>
     </g>
    </g>
    <g id="xtick_3">
     <g id="line2d_3">
      <g>
       <use xlink:href="#mef07a684cf" x="129.6" y="189" style="stroke: #000000; stroke-width: 0.8"/>
      </g>
     </g>
     <g id="text_3">
      <!-- 10 -->
      <g transform="translate(123.2375 203.598437)scale(0.1 -0.1)">
       <use xlink:href="#DejaVuSans-31"/>
       <use xlink:href="#DejaVuSans-30" x="63.623047"/>
      </g>
     </g>
    </g>
   </g>
   <g id="matplotlib.axis_2">
    <g id="ytick_1">
     <g id="line2d_4">
      <defs>
       <path id="m9e60b53e8b" d="M 0 0 
L -3.5 0 
" style="stroke: #000000; stroke-width: 0.8"/>
      </defs>
      <g>
       <use xlink:href="#m9e60b53e8b" x="18" y="189" style="stroke: #000000; stroke-width: 0.8"/>
      </g>
     </g>
     <g id="text_4">
      <!-- −15 -->
      <g transform="translate(-10.104688 192.799219)scale(0.1 -0.1)">
       <defs>
        <path id="DejaVuSans-35" d="M 691 4666 
L 3169 4666 
L 3169 4134 
L 1269 4134 
L 1269 2991 
Q 1406 3038 1543 3061 
Q 1681 3084 1819 3084 
Q 2600 3084 3056 2656 
Q 3513 2228 3513 1497 
Q 3513 744 3044 326 
Q 2575 -91 1722 -91 
Q 1428 -91 1123 -41 
Q 819 9 494 109 
L 494 744 
Q 775 591 1075 516 
Q 1375 441 1709 441 
Q 2250 441 2565 725 
Q 2881 1009 2881 1497 
Q 2881 1984 2565 2268 
Q 2250 2553 1709 2553 
Q 1456 2553 1204 2497 
Q 953 2441 691 2322 
L 691 4666 
z
" transform="scale(0.015625)"/>
       </defs>
       <use xlink:href="#DejaVuSans-2212"/>
       <use xlink:href="#DejaVuSans-31" x="83.789062"/>
       <use xlink:href="#DejaVuSans-35" x="147.412109"/>
      </g>
     </g>
    </g>
    <g id="ytick_2">
     <g id="line2d_5">
      <g>
       <use xlink:href="#m9e60b53e8b" x="18" y="161.82" style="stroke: #000000; stroke-width: 0.8"/>
      </g>
     </g>
     <g id="text_5">
      <!-- −10 -->
      <g transform="translate(-10.104688 165.619219)scale(0.1 -0.1)">
       <use xlink:href="#DejaVuSans-2212"/>
       <use xlink:href="#DejaVuSans-31" x="83.789062"/>
       <use xlink:href="#DejaVuSans-30" x="147.412109"/>
      </g>
     </g>
    </g>
    <g id="ytick_3">
     <g id="line2d_6">
      <g>
       <use xlink:href="#m9e60b53e8b" x="18" y="134.64" style="stroke: #000000; stroke-width: 0.8"/>
      </g>
     </g>
     <g id="text_6">
      <!-- −5 -->
      <g transform="translate(-3.742188 138.439219)scale(0.1 -0.1)">
       <use xlink:href="#DejaVuSans-2212"/>
       <use xlink:href="#DejaVuSans-35" x="83.789062"/>
      </g>
     </g>
    </g>
    <g id="ytick_4">
     <g id="line2d_7">
      <g>
       <use xlink:href="#m9e60b53e8b" x="18" y="107.46" style="stroke: #000000; stroke-width: 0.8"/>
      </g>
     </g>
     <g id="text_7">
      <!-- 0 -->
      <g transform="translate(4.6375 111.259219)scale(0.1 -0.1)">
       <use xlink:href="#DejaVuSans-30"/>
      </g>
     </g>
    </g>
    <g id="ytick_5">
     <g id="line2d_8">
      <g>
       <use xlink:href="#m9e60b53e8b" x="18" y="80.28" style="stroke: #000000; stroke-width: 0.8"/>
      </g>
     </g>
     <g id="text_8">
      <!-- 5 -->
      <g transform="translate(4.6375 84.079219)scale(0.1 -0.1)">
       <use xlink:href="#DejaVuSans-35"/>
      </g>
     </g>
    </g>
    <g id="ytick_6">
     <g id="line2d_9">
      <g>
       <use xlink:href="#m9e60b53e8b" x="18" y="53.1" style="stroke: #000000; stroke-width: 0.8"/>
      </g>
     </g>
     <g id="text_9">
      <!-- 10 -->
      <g transform="translate(-1.725 56.899219)scale(0.1 -0.1)">
       <use xlink:href="#DejaVuSans-31"/>
       <use xlink:href="#DejaVuSans-30" x="63.623047"/>
      </g>
     </g>
    </g>
    <g id="ytick_7">
     <g id="line2d_10">
      <g>
       <use xlink:href="#m9e60b53e8b" x="18" y="25.92" style="stroke: #000000; stroke-width: 0.8"/>
      </g>
     </g>
     <g id="text_10">
      <!-- 15 -->
      <g transform="translate(-1.725 29.719219)scale(0.1 -0.1)">
       <use xlink:href="#DejaVuSans-31"/>
       <use xlink:href="#DejaVuSans-35" x="63.623047"/>
      </g>
     </g>
    </g>
   </g>
   <g id="patch_3">
    <path d="M 18 189 
L 18 25.92 
" style="fill: none; stroke: #000000; stroke-width: 0.8; stroke-linejoin: miter; stroke-linecap: square"/>
   </g>
   <g id="patch_4">
    <path d="M 129.6 189 
L 129.6 25.92 
" style="fill: none; stroke: #000000; stroke-width: 0.8; stroke-linejoin: miter; stroke-linecap: square"/>
   </g>
   <g id="patch_5">
    <path d="M 18 189 
L 129.6 189 
" style="fill: none; stroke: #000000; stroke-width: 0.8; stroke-linejoin: miter; stroke-linecap: square"/>
   </g>
   <g id="patch_6">
    <path d="M 18 25.92 
L 129.6 25.92 
" style="fill: none; stroke: #000000; stroke-width: 0.8; stroke-linejoin: miter; stroke-linecap: square"/>
   </g>
  </g>
 </g>
 <defs>
  <clipPath id="pcb500db90c">
   <rect x="18" y="25.92" width="111.6" height="163.08"/>
  </clipPath>
 </defs>
</svg>
