<?xml version="1.0" encoding="utf-8" standalone="no"?>
<!DOCTYPE svg PUBLIC "-//W3C//DTD SVG 1.1//EN"
  "http://www.w3.org/Graphics/SVG/1.1/DTD/svg11.dtd">
<svg xmlns:xlink="http://www.w3.org/1999/xlink" width="144pt" height="216pt" viewBox="0 0 144 216" xmlns="http://www.w3.org/2000/svg" version="1.1">
 <metadata>
  <rdf:RDF xmlns:dc="http://purl.org/dc/elements/1.1/" xmlns:cc="http://creativecommons.org/ns#" xmlns:rdf="http://www.w3.org/1999/02/22-rdf-syntax-ns#">
   <cc:Work>
    <dc:type rdf:resource="http://purl.org/dc/dcmitype/StillImage"/>
    <dc:date>2022-06-23T12:17:05.417148</dc:date>
    <dc:format>image/svg+xml</dc:format>
    <dc:creator>
     <cc:Agent>
      <dc:title>Matplotlib v3.5.1, https://matplotlib.org/</dc:title>
     </cc:Agent>
    </dc:creator>
   </cc:Work>
  </rdf:RDF>
 </metadata>
 <defs>
  <style type="text/css">*{stroke-linejoin: round; stroke-linecap: butt}</style>
 </defs>
 <g id="figure_1">
  <g id="patch_1">
   <path d="M 0 216 
L 144 216 
L 144 0 
L 0 0 
L 0 216 
z
" style="fill: none"/>
  </g>
  <g id="axes_1">
   <g id="patch_2">
    <path d="M 18 189 
L 129.6 189 
L 129.6 25.92 
L 18 25.92 
z
" style="fill: #ffffff"/>
   </g>
   <g id="PathCollection_1">
    <defs>
     <path id="mda12bd6ebc" d="M 0 2.738613 
C 0.726289 2.738613 1.422928 2.450055 1.936492 1.936492 
C 2.450055 1.422928 2.738613 0.726289 2.738613 0 
C 2.738613 -0.726289 2.450055 -1.422928 1.936492 -1.936492 
C 1.422928 -2.450055 0.726289 -2.738613 0 -2.738613 
C -0.726289 -2.738613 -1.422928 -2.450055 -1.936492 -1.936492 
C -2.450055 -1.422928 -2.738613 -0.726289 -2.738613 0 
C -2.738613 0.726289 -2.450055 1.422928 -1.936492 1.936492 
C -1.422928 2.450055 -0.726289 2.738613 0 2.738613 
z
" style="stroke: #ff0000; stroke-width: 1.75"/>
    </defs>
    <g clip-path="url(#pd52c93412d)">
     <use xlink:href="#mda12bd6ebc" x="80.775" y="83.92143" style="fill: #ff0000; stroke: #ff0000; stroke-width: 1.75"/>
     <use xlink:href="#mda12bd6ebc" x="59.85" y="95.690715" style="fill: #ff0000; stroke: #ff0000; stroke-width: 1.75"/>
     <use xlink:href="#mda12bd6ebc" x="66.825" y="107.46" style="fill: #ff0000; stroke: #ff0000; stroke-width: 1.75"/>
     <use xlink:href="#mda12bd6ebc" x="80.775" y="107.46" style="fill: #ff0000; stroke: #ff0000; stroke-width: 1.75"/>
     <use xlink:href="#mda12bd6ebc" x="94.725" y="107.46" style="fill: #ff0000; stroke: #ff0000; stroke-width: 1.75"/>
     <use xlink:href="#mda12bd6ebc" x="59.85" y="119.229285" style="fill: #ff0000; stroke: #ff0000; stroke-width: 1.75"/>
     <use xlink:href="#mda12bd6ebc" x="80.775" y="130.99857" style="fill: #ff0000; stroke: #ff0000; stroke-width: 1.75"/>
    </g>
   </g>
   <g id="PathCollection_2">
    <defs>
     <path id="C0_0_217ee1be9f" d="M 0 2.738613 
C 0.726289 2.738613 1.422928 2.450055 1.936492 1.936492 
C 2.450055 1.422928 2.738613 0.726289 2.738613 -0 
C 2.738613 -0.726289 2.450055 -1.422928 1.936492 -1.936492 
C 1.422928 -2.450055 0.726289 -2.738613 0 -2.738613 
C -0.726289 -2.738613 -1.422928 -2.450055 -1.936492 -1.936492 
C -2.450055 -1.422928 -2.738613 -0.726289 -2.738613 0 
C -2.738613 0.726289 -2.450055 1.422928 -1.936492 1.936492 
C -1.422928 2.450055 -0.726289 2.738613 0 2.738613 
z
"/>
    </defs>
    <g clip-path="url(#pd52c93412d)">
     <use xlink:href="#C0_0_217ee1be9f" x="66.825" y="83.92143" style="fill: none; stroke: #ff0000; stroke-width: 1.75"/>
    </g>
    <g clip-path="url(#pd52c93412d)">
     <use xlink:href="#C0_0_217ee1be9f" x="73.8" y="95.690715" style="fill: none; stroke: #ff0000; stroke-width: 1.75"/>
    </g>
    <g clip-path="url(#pd52c93412d)">
     <use xlink:href="#C0_0_217ee1be9f" x="87.75" y="95.690715" style="fill: none; stroke: #ff0000; stroke-width: 1.75"/>
    </g>
    <g clip-path="url(#pd52c93412d)">
     <use xlink:href="#C0_0_217ee1be9f" x="52.875" y="107.46" style="fill: none; stroke: #ff0000; stroke-width: 1.75"/>
    </g>
    <g clip-path="url(#pd52c93412d)">
     <use xlink:href="#C0_0_217ee1be9f" x="73.8" y="119.229285" style="fill: none; stroke: #ff0000; stroke-width: 1.75"/>
    </g>
    <g clip-path="url(#pd52c93412d)">
     <use xlink:href="#C0_0_217ee1be9f" x="87.75" y="119.229285" style="fill: none; stroke: #ff0000; stroke-width: 1.75"/>
    </g>
    <g clip-path="url(#pd52c93412d)">
     <use xlink:href="#C0_0_217ee1be9f" x="66.825" y="130.99857" style="fill: none; stroke: #ff0000; stroke-width: 1.75"/>
    </g>
   </g>
   <g id="PathCollection_3">
    <path d="M 105.720289 59.463945 
C 106.219573 59.463945 106.698474 59.265577 107.051522 58.91253 
C 107.404569 58.559483 107.602936 58.080581 107.602936 57.581297 
C 107.602936 57.082013 107.404569 56.603111 107.051522 56.250064 
C 106.698474 55.897017 106.219573 55.69865 105.720289 55.69865 
C 105.221005 55.69865 104.742103 55.897017 104.389056 56.250064 
C 104.036009 56.603111 103.837641 57.082013 103.837641 57.581297 
C 103.837641 58.080581 104.036009 58.559483 104.389056 58.91253 
C 104.742103 59.265577 105.221005 59.463945 105.720289 59.463945 
z
" clip-path="url(#pd52c93412d)" style="stroke: #000000"/>
    <path d="M 116.306218 125.905301 
C 116.726585 125.905301 117.129792 125.738287 117.427037 125.441042 
C 117.724281 125.143798 117.891295 124.740591 117.891295 124.320224 
C 117.891295 123.899856 117.724281 123.49665 117.427037 123.199405 
C 117.129792 122.902161 116.726585 122.735147 116.306218 122.735147 
C 115.885851 122.735147 115.482644 122.902161 115.185399 123.199405 
C 114.888155 123.49665 114.721141 123.899856 114.721141 124.320224 
C 114.721141 124.740591 114.888155 125.143798 115.185399 125.441042 
C 115.482644 125.738287 115.885851 125.905301 116.306218 125.905301 
z
" clip-path="url(#pd52c93412d)" style="stroke: #000000"/>
    <path d="M 113.318008 107.746314 
C 113.850474 107.746314 114.361203 107.534763 114.737713 107.158253 
C 115.114224 106.781743 115.325775 106.271013 115.325775 105.738547 
C 115.325775 105.206081 115.114224 104.695352 114.737713 104.318841 
C 114.361203 103.942331 113.850474 103.73078 113.318008 103.73078 
C 112.785541 103.73078 112.274812 103.942331 111.898302 104.318841 
C 111.521791 104.695352 111.31024 105.206081 111.31024 105.738547 
C 111.31024 106.271013 111.521791 106.781743 111.898302 107.158253 
C 112.274812 107.534763 112.785541 107.746314 113.318008 107.746314 
z
" clip-path="url(#pd52c93412d)" style="stroke: #000000"/>
    <path d="M 111.136447 101.432774 
C 111.136447 101.432774 111.136447 101.432774 111.136447 101.432774 
C 111.136447 101.432774 111.136447 101.432774 111.136447 101.432774 
C 111.136447 101.432774 111.136447 101.432774 111.136447 101.432774 
C 111.136447 101.432774 111.136447 101.432774 111.136447 101.432774 
C 111.136447 101.432774 111.136447 101.432774 111.136447 101.432774 
C 111.136447 101.432774 111.136447 101.432774 111.136447 101.432774 
C 111.136447 101.432774 111.136447 101.432774 111.136447 101.432774 
C 111.136447 101.432774 111.136447 101.432774 111.136447 101.432774 
z
" clip-path="url(#pd52c93412d)" style="stroke: #000000"/>
    <path d="M 108.505215 86.720562 
C 108.505215 86.720562 108.505215 86.720562 108.505215 86.720562 
C 108.505215 86.720562 108.505215 86.720562 108.505215 86.720562 
C 108.505215 86.720562 108.505215 86.720562 108.505215 86.720562 
C 108.505215 86.720562 108.505215 86.720562 108.505215 86.720562 
C 108.505215 86.720562 108.505215 86.720562 108.505215 86.720562 
C 108.505215 86.720562 108.505215 86.720562 108.505215 86.720562 
C 108.505215 86.720562 108.505215 86.720562 108.505215 86.720562 
C 108.505215 86.720562 108.505215 86.720562 108.505215 86.720562 
z
" clip-path="url(#pd52c93412d)" style="stroke: #000000"/>
    <path d="M 105.850867 82.358913 
C 105.850867 82.358913 105.850867 82.358913 105.850867 82.358913 
C 105.850867 82.358913 105.850867 82.358913 105.850867 82.358913 
C 105.850867 82.358913 105.850867 82.358913 105.850867 82.358913 
C 105.850867 82.358913 105.850867 82.358913 105.850867 82.358913 
C 105.850867 82.358913 105.850867 82.358913 105.850867 82.358913 
C 105.850867 82.358913 105.850867 82.358913 105.850867 82.358913 
C 105.850867 82.358913 105.850867 82.358913 105.850867 82.358913 
C 105.850867 82.358913 105.850867 82.358913 105.850867 82.358913 
z
" clip-path="url(#pd52c93412d)" style="stroke: #000000"/>
    <path d="M 97.637708 72.604971 
C 98.136992 72.604971 98.615894 72.406603 98.968941 72.053556 
C 99.321988 71.700509 99.520356 71.221607 99.520356 70.722323 
C 99.520356 70.22304 99.321988 69.744138 98.968941 69.391091 
C 98.615894 69.038044 98.136992 68.839676 97.637708 68.839676 
C 97.138424 68.839676 96.659522 69.038044 96.306475 69.391091 
C 95.953428 69.744138 95.755061 70.22304 95.755061 70.722323 
C 95.755061 71.221607 95.953428 71.700509 96.306475 72.053556 
C 96.659522 72.406603 97.138424 72.604971 97.637708 72.604971 
z
" clip-path="url(#pd52c93412d)" style="stroke: #000000"/>
    <path d="M 95.635892 60.277126 
C 95.635892 60.277126 95.635892 60.277126 95.635892 60.277126 
C 95.635892 60.277126 95.635892 60.277126 95.635892 60.277126 
C 95.635892 60.277126 95.635892 60.277126 95.635892 60.277126 
C 95.635892 60.277126 95.635892 60.277126 95.635892 60.277126 
C 95.635892 60.277126 95.635892 60.277126 95.635892 60.277126 
C 95.635892 60.277126 95.635892 60.277126 95.635892 60.277126 
C 95.635892 60.277126 95.635892 60.277126 95.635892 60.277126 
C 95.635892 60.277126 95.635892 60.277126 95.635892 60.277126 
z
" clip-path="url(#pd52c93412d)" style="stroke: #000000"/>
    <path d="M 91.801901 46.514623 
C 91.801901 46.514623 91.801901 46.514623 91.801901 46.514623 
C 91.801901 46.514623 91.801901 46.514623 91.801901 46.514623 
C 91.801901 46.514623 91.801901 46.514623 91.801901 46.514623 
C 91.801901 46.514623 91.801901 46.514623 91.801901 46.514623 
C 91.801901 46.514623 91.801901 46.514623 91.801901 46.514623 
C 91.801901 46.514623 91.801901 46.514623 91.801901 46.514623 
C 91.801901 46.514623 91.801901 46.514623 91.801901 46.514623 
C 91.801901 46.514623 91.801901 46.514623 91.801901 46.514623 
z
" clip-path="url(#pd52c93412d)" style="stroke: #000000"/>
    <path d="M 119.107596 163.112864 
C 119.107596 163.112864 119.107596 163.112864 119.107596 163.112864 
C 119.107596 163.112864 119.107596 163.112864 119.107596 163.112864 
C 119.107596 163.112864 119.107596 163.112864 119.107596 163.112864 
C 119.107596 163.112864 119.107596 163.112864 119.107596 163.112864 
C 119.107596 163.112864 119.107596 163.112864 119.107596 163.112864 
C 119.107596 163.112864 119.107596 163.112864 119.107596 163.112864 
C 119.107596 163.112864 119.107596 163.112864 119.107596 163.112864 
C 119.107596 163.112864 119.107596 163.112864 119.107596 163.112864 
z
" clip-path="url(#pd52c93412d)" style="stroke: #000000"/>
    <path d="M 112.928961 155.807802 
C 113.428245 155.807802 113.907147 155.609434 114.260194 155.256387 
C 114.613241 154.90334 114.811609 154.424438 114.811609 153.925154 
C 114.811609 153.42587 114.613241 152.946968 114.260194 152.593921 
C 113.907147 152.240874 113.428245 152.042507 112.928961 152.042507 
C 112.429677 152.042507 111.950775 152.240874 111.597728 152.593921 
C 111.244681 152.946968 111.046314 153.42587 111.046314 153.925154 
C 111.046314 154.424438 111.244681 154.90334 111.597728 155.256387 
C 111.950775 155.609434 112.429677 155.807802 112.928961 155.807802 
z
" clip-path="url(#pd52c93412d)" style="stroke: #000000"/>
    <path d="M 115.379334 146.575724 
C 115.881694 146.575724 116.363547 146.376134 116.718769 146.020912 
C 117.073992 145.665689 117.273582 145.183836 117.273582 144.681476 
C 117.273582 144.179116 117.073992 143.697263 116.718769 143.34204 
C 116.363547 142.986818 115.881694 142.787228 115.379334 142.787228 
C 114.876973 142.787228 114.395121 142.986818 114.039898 143.34204 
C 113.684676 143.697263 113.485086 144.179116 113.485086 144.681476 
C 113.485086 145.183836 113.684676 145.665689 114.039898 146.020912 
C 114.395121 146.376134 114.876973 146.575724 115.379334 146.575724 
z
" clip-path="url(#pd52c93412d)" style="stroke: #000000"/>
    <path d="M 111.119797 132.803654 
C 111.712809 132.803654 112.281613 132.568048 112.700936 132.148725 
C 113.120259 131.729402 113.355865 131.160599 113.355865 130.567586 
C 113.355865 129.974574 113.120259 129.405771 112.700936 128.986448 
C 112.281613 128.567125 111.712809 128.331518 111.119797 128.331518 
C 110.526785 128.331518 109.957981 128.567125 109.538658 128.986448 
C 109.119335 129.405771 108.883729 129.974574 108.883729 130.567586 
C 108.883729 131.160599 109.119335 131.729402 109.538658 132.148725 
C 109.957981 132.568048 110.526785 132.803654 111.119797 132.803654 
z
" clip-path="url(#pd52c93412d)" style="stroke: #000000"/>
    <path d="M 109.051857 127.565629 
C 109.644869 127.565629 110.213673 127.330023 110.632996 126.9107 
C 111.052319 126.491377 111.287925 125.922573 111.287925 125.329561 
C 111.287925 124.736549 111.052319 124.167745 110.632996 123.748422 
C 110.213673 123.329099 109.644869 123.093493 109.051857 123.093493 
C 108.458845 123.093493 107.890041 123.329099 107.470718 123.748422 
C 107.051395 124.167745 106.815789 124.736549 106.815789 125.329561 
C 106.815789 125.922573 107.051395 126.491377 107.470718 126.9107 
C 107.890041 127.330023 108.458845 127.565629 109.051857 127.565629 
z
" clip-path="url(#pd52c93412d)" style="stroke: #000000"/>
    <path d="M 103.757187 111.010718 
C 104.350199 111.010718 104.919003 110.775112 105.338326 110.355789 
C 105.757649 109.936466 105.993255 109.367662 105.993255 108.77465 
C 105.993255 108.181638 105.757649 107.612834 105.338326 107.193511 
C 104.919003 106.774188 104.350199 106.538582 103.757187 106.538582 
C 103.164175 106.538582 102.595371 106.774188 102.176048 107.193511 
C 101.756725 107.612834 101.521119 108.181638 101.521119 108.77465 
C 101.521119 109.367662 101.756725 109.936466 102.176048 110.355789 
C 102.595371 110.775112 103.164175 111.010718 103.757187 111.010718 
z
" clip-path="url(#pd52c93412d)" style="stroke: #000000"/>
    <path d="M 100.481304 102.351294 
C 101.074316 102.351294 101.64312 102.115687 102.062443 101.696365 
C 102.481766 101.277042 102.717372 100.708238 102.717372 100.115226 
C 102.717372 99.522214 102.481766 98.95341 102.062443 98.534087 
C 101.64312 98.114764 101.074316 97.879158 100.481304 97.879158 
C 99.888292 97.879158 99.319488 98.114764 98.900165 98.534087 
C 98.480842 98.95341 98.245236 99.522214 98.245236 100.115226 
C 98.245236 100.708238 98.480842 101.277042 98.900165 101.696365 
C 99.319488 102.115687 99.888292 102.351294 100.481304 102.351294 
z
" clip-path="url(#pd52c93412d)" style="stroke: #000000"/>
    <path d="M 96.090063 94.576853 
C 96.683445 94.576853 97.252604 94.3411 97.672189 93.921515 
C 98.091773 93.501931 98.327527 92.932772 98.327527 92.339389 
C 98.327527 91.746007 98.091773 91.176848 97.672189 90.757263 
C 97.252604 90.337678 96.683445 90.101925 96.090063 90.101925 
C 95.49668 90.101925 94.927521 90.337678 94.507936 90.757263 
C 94.088352 91.176848 93.852598 91.746007 93.852598 92.339389 
C 93.852598 92.932772 94.088352 93.501931 94.507936 93.921515 
C 94.927521 94.3411 95.49668 94.576853 96.090063 94.576853 
z
" clip-path="url(#pd52c93412d)" style="stroke: #000000"/>
    <path d="M 92.903645 85.224343 
C 93.497027 85.224343 94.066186 84.98859 94.485771 84.569005 
C 94.905355 84.14942 95.141109 83.580261 95.141109 82.986879 
C 95.141109 82.393497 94.905355 81.824338 94.485771 81.404753 
C 94.066186 80.985168 93.497027 80.749415 92.903645 80.749415 
C 92.310262 80.749415 91.741103 80.985168 91.321518 81.404753 
C 90.901934 81.824338 90.66618 82.393497 90.66618 82.986879 
C 90.66618 83.580261 90.901934 84.14942 91.321518 84.569005 
C 91.741103 84.98859 92.310262 85.224343 92.903645 85.224343 
z
" clip-path="url(#pd52c93412d)" style="stroke: #000000"/>
    <path d="M 85.515222 75.173624 
C 86.108235 75.173624 86.677038 74.938017 87.096361 74.518694 
C 87.515684 74.099371 87.75129 73.530568 87.75129 72.937556 
C 87.75129 72.344543 87.515684 71.77574 87.096361 71.356417 
C 86.677038 70.937094 86.108235 70.701488 85.515222 70.701488 
C 84.92221 70.701488 84.353406 70.937094 83.934084 71.356417 
C 83.514761 71.77574 83.279154 72.344543 83.279154 72.937556 
C 83.279154 73.530568 83.514761 74.099371 83.934084 74.518694 
C 84.353406 74.938017 84.92221 75.173624 85.515222 75.173624 
z
" clip-path="url(#pd52c93412d)" style="stroke: #000000"/>
    <path d="M 90.07014 60.483195 
C 90.603627 60.483195 91.115336 60.271238 91.492568 59.894005 
C 91.869801 59.516773 92.081757 59.005064 92.081757 58.471577 
C 92.081757 57.93809 91.869801 57.426382 91.492568 57.049149 
C 91.115336 56.671917 90.603627 56.45996 90.07014 56.45996 
C 89.536653 56.45996 89.024945 56.671917 88.647712 57.049149 
C 88.27048 57.426382 88.058523 57.93809 88.058523 58.471577 
C 88.058523 59.005064 88.27048 59.516773 88.647712 59.894005 
C 89.024945 60.271238 89.536653 60.483195 90.07014 60.483195 
z
" clip-path="url(#pd52c93412d)" style="stroke: #000000"/>
    <path d="M 79.826109 54.259822 
C 80.333869 54.259822 80.8209 54.058087 81.179941 53.699047 
C 81.538981 53.340007 81.740716 52.852975 81.740716 52.345215 
C 81.740716 51.837456 81.538981 51.350424 81.179941 50.991384 
C 80.8209 50.632344 80.333869 50.430608 79.826109 50.430608 
C 79.318349 50.430608 78.831318 50.632344 78.472278 50.991384 
C 78.113237 51.350424 77.911502 51.837456 77.911502 52.345215 
C 77.911502 52.852975 78.113237 53.340007 78.472278 53.699047 
C 78.831318 54.058087 79.318349 54.259822 79.826109 54.259822 
z
" clip-path="url(#pd52c93412d)" style="stroke: #000000"/>
    <path d="M 79.098925 43.508193 
C 79.098925 43.508193 79.098925 43.508193 79.098925 43.508193 
C 79.098925 43.508193 79.098925 43.508193 79.098925 43.508193 
C 79.098925 43.508193 79.098925 43.508193 79.098925 43.508193 
C 79.098925 43.508193 79.098925 43.508193 79.098925 43.508193 
C 79.098925 43.508193 79.098925 43.508193 79.098925 43.508193 
C 79.098925 43.508193 79.098925 43.508193 79.098925 43.508193 
C 79.098925 43.508193 79.098925 43.508193 79.098925 43.508193 
C 79.098925 43.508193 79.098925 43.508193 79.098925 43.508193 
z
" clip-path="url(#pd52c93412d)" style="stroke: #000000"/>
    <path d="M 71.477619 27.757403 
C 71.976903 27.757403 72.455805 27.559035 72.808852 27.205988 
C 73.161899 26.852941 73.360266 26.374039 73.360266 25.874755 
C 73.360266 25.375471 73.161899 24.896569 72.808852 24.543522 
C 72.455805 24.190475 71.976903 23.992108 71.477619 23.992108 
C 70.978335 23.992108 70.499433 24.190475 70.146386 24.543522 
C 69.793339 24.896569 69.594971 25.375471 69.594971 25.874755 
C 69.594971 26.374039 69.793339 26.852941 70.146386 27.205988 
C 70.499433 27.559035 70.978335 27.757403 71.477619 27.757403 
z
" clip-path="url(#pd52c93412d)" style="stroke: #000000"/>
    <path d="M 115.974616 176.367299 
C 115.974616 176.367299 115.974616 176.367299 115.974616 176.367299 
C 115.974616 176.367299 115.974616 176.367299 115.974616 176.367299 
C 115.974616 176.367299 115.974616 176.367299 115.974616 176.367299 
C 115.974616 176.367299 115.974616 176.367299 115.974616 176.367299 
C 115.974616 176.367299 115.974616 176.367299 115.974616 176.367299 
C 115.974616 176.367299 115.974616 176.367299 115.974616 176.367299 
C 115.974616 176.367299 115.974616 176.367299 115.974616 176.367299 
C 115.974616 176.367299 115.974616 176.367299 115.974616 176.367299 
z
" clip-path="url(#pd52c93412d)" style="stroke: #000000"/>
    <path d="M 113.009955 168.207943 
C 113.509239 168.207943 113.988141 168.009575 114.341188 167.656528 
C 114.694235 167.303481 114.892603 166.82458 114.892603 166.325296 
C 114.892603 165.826012 114.694235 165.34711 114.341188 164.994063 
C 113.988141 164.641016 113.509239 164.442648 113.009955 164.442648 
C 112.510671 164.442648 112.031769 164.641016 111.678722 164.994063 
C 111.325675 165.34711 111.127308 165.826012 111.127308 166.325296 
C 111.127308 166.82458 111.325675 167.303481 111.678722 167.656528 
C 112.031769 168.009575 112.510671 168.207943 113.009955 168.207943 
z
" clip-path="url(#pd52c93412d)" style="stroke: #000000"/>
    <path d="M 109.448494 157.268886 
C 109.448494 157.268886 109.448494 157.268886 109.448494 157.268886 
C 109.448494 157.268886 109.448494 157.268886 109.448494 157.268886 
C 109.448494 157.268886 109.448494 157.268886 109.448494 157.268886 
C 109.448494 157.268886 109.448494 157.268886 109.448494 157.268886 
C 109.448494 157.268886 109.448494 157.268886 109.448494 157.268886 
C 109.448494 157.268886 109.448494 157.268886 109.448494 157.268886 
C 109.448494 157.268886 109.448494 157.268886 109.448494 157.268886 
C 109.448494 157.268886 109.448494 157.268886 109.448494 157.268886 
z
" clip-path="url(#pd52c93412d)" style="stroke: #000000"/>
    <path d="M 101.130752 151.601629 
C 101.714273 151.601629 102.273973 151.369794 102.686585 150.957182 
C 103.099196 150.544571 103.331031 149.984871 103.331031 149.40135 
C 103.331031 148.817829 103.099196 148.258129 102.686585 147.845517 
C 102.273973 147.432906 101.714273 147.20107 101.130752 147.20107 
C 100.547231 147.20107 99.987531 147.432906 99.57492 147.845517 
C 99.162308 148.258129 98.930473 148.817829 98.930473 149.40135 
C 98.930473 149.984871 99.162308 150.544571 99.57492 150.957182 
C 99.987531 151.369794 100.547231 151.601629 101.130752 151.601629 
z
" clip-path="url(#pd52c93412d)" style="stroke: #000000"/>
    <path d="M 99.22774 140.650979 
C 99.820752 140.650979 100.389556 140.415373 100.808878 139.99605 
C 101.228201 139.576727 101.463808 139.007923 101.463808 138.414911 
C 101.463808 137.821899 101.228201 137.253095 100.808878 136.833772 
C 100.389556 136.414449 99.820752 136.178843 99.22774 136.178843 
C 98.634727 136.178843 98.065924 136.414449 97.646601 136.833772 
C 97.227278 137.253095 96.991672 137.821899 96.991672 138.414911 
C 96.991672 139.007923 97.227278 139.576727 97.646601 139.99605 
C 98.065924 140.415373 98.634727 140.650979 99.22774 140.650979 
z
" clip-path="url(#pd52c93412d)" style="stroke: #000000"/>
    <path d="M 100.277804 127.23032 
C 100.277804 127.23032 100.277804 127.23032 100.277804 127.23032 
C 100.277804 127.23032 100.277804 127.23032 100.277804 127.23032 
C 100.277804 127.23032 100.277804 127.23032 100.277804 127.23032 
C 100.277804 127.23032 100.277804 127.23032 100.277804 127.23032 
C 100.277804 127.23032 100.277804 127.23032 100.277804 127.23032 
C 100.277804 127.23032 100.277804 127.23032 100.277804 127.23032 
C 100.277804 127.23032 100.277804 127.23032 100.277804 127.23032 
C 100.277804 127.23032 100.277804 127.23032 100.277804 127.23032 
z
" clip-path="url(#pd52c93412d)" style="stroke: #000000"/>
    <path d="M 91.226147 120.588355 
C 91.81953 120.588355 92.388689 120.352601 92.808273 119.933017 
C 93.227858 119.513432 93.463611 118.944273 93.463611 118.35089 
C 93.463611 117.757508 93.227858 117.188349 92.808273 116.768764 
C 92.388689 116.34918 91.81953 116.113426 91.226147 116.113426 
C 90.632765 116.113426 90.063606 116.34918 89.644021 116.768764 
C 89.224436 117.188349 88.988683 117.757508 88.988683 118.35089 
C 88.988683 118.944273 89.224436 119.513432 89.644021 119.933017 
C 90.063606 120.352601 90.632765 120.588355 91.226147 120.588355 
z
" clip-path="url(#pd52c93412d)" style="stroke: #000000"/>
    <path d="M 90.322307 106.254294 
C 90.91532 106.254294 91.484123 106.018688 91.903446 105.599365 
C 92.322769 105.180042 92.558375 104.611239 92.558375 104.018226 
C 92.558375 103.425214 92.322769 102.85641 91.903446 102.437088 
C 91.484123 102.017765 90.91532 101.782158 90.322307 101.782158 
C 89.729295 101.782158 89.160492 102.017765 88.741169 102.437088 
C 88.321846 102.85641 88.08624 103.425214 88.08624 104.018226 
C 88.08624 104.611239 88.321846 105.180042 88.741169 105.599365 
C 89.160492 106.018688 89.729295 106.254294 90.322307 106.254294 
z
" clip-path="url(#pd52c93412d)" style="stroke: #000000"/>
    <path d="M 86.263886 97.31904 
C 86.396488 97.31904 86.523676 97.266357 86.61744 97.172593 
C 86.711203 97.07883 86.763886 96.951642 86.763886 96.81904 
C 86.763886 96.686438 86.711203 96.55925 86.61744 96.465487 
C 86.523676 96.371723 86.396488 96.31904 86.263886 96.31904 
C 86.131285 96.31904 86.004096 96.371723 85.910333 96.465487 
C 85.816569 96.55925 85.763886 96.686438 85.763886 96.81904 
C 85.763886 96.951642 85.816569 97.07883 85.910333 97.172593 
C 86.004096 97.266357 86.131285 97.31904 86.263886 97.31904 
z
" clip-path="url(#pd52c93412d)" style="stroke: #000000"/>
    <path d="M 82.390562 85.922398 
C 82.578089 85.922398 82.75796 85.847893 82.890562 85.715291 
C 83.023163 85.58269 83.097669 85.402818 83.097669 85.215291 
C 83.097669 85.027764 83.023163 84.847893 82.890562 84.715291 
C 82.75796 84.58269 82.578089 84.508185 82.390562 84.508185 
C 82.203035 84.508185 82.023163 84.58269 81.890562 84.715291 
C 81.75796 84.847893 81.683455 85.027764 81.683455 85.215291 
C 81.683455 85.402818 81.75796 85.58269 81.890562 85.715291 
C 82.023163 85.847893 82.203035 85.922398 82.390562 85.922398 
z
" clip-path="url(#pd52c93412d)" style="stroke: #000000"/>
    <path d="M 78.748842 78.202529 
C 78.748842 78.202529 78.748842 78.202529 78.748842 78.202529 
C 78.748842 78.202529 78.748842 78.202529 78.748842 78.202529 
C 78.748842 78.202529 78.748842 78.202529 78.748842 78.202529 
C 78.748842 78.202529 78.748842 78.202529 78.748842 78.202529 
C 78.748842 78.202529 78.748842 78.202529 78.748842 78.202529 
C 78.748842 78.202529 78.748842 78.202529 78.748842 78.202529 
C 78.748842 78.202529 78.748842 78.202529 78.748842 78.202529 
C 78.748842 78.202529 78.748842 78.202529 78.748842 78.202529 
z
" clip-path="url(#pd52c93412d)" style="stroke: #000000"/>
    <path d="M 75.287939 62.462552 
C 75.287939 62.462552 75.287939 62.462552 75.287939 62.462552 
C 75.287939 62.462552 75.287939 62.462552 75.287939 62.462552 
C 75.287939 62.462552 75.287939 62.462552 75.287939 62.462552 
C 75.287939 62.462552 75.287939 62.462552 75.287939 62.462552 
C 75.287939 62.462552 75.287939 62.462552 75.287939 62.462552 
C 75.287939 62.462552 75.287939 62.462552 75.287939 62.462552 
C 75.287939 62.462552 75.287939 62.462552 75.287939 62.462552 
C 75.287939 62.462552 75.287939 62.462552 75.287939 62.462552 
z
" clip-path="url(#pd52c93412d)" style="stroke: #000000"/>
    <path d="M 72.17439 51.279465 
C 72.17439 51.279465 72.17439 51.279465 72.17439 51.279465 
C 72.17439 51.279465 72.17439 51.279465 72.17439 51.279465 
C 72.17439 51.279465 72.17439 51.279465 72.17439 51.279465 
C 72.17439 51.279465 72.17439 51.279465 72.17439 51.279465 
C 72.17439 51.279465 72.17439 51.279465 72.17439 51.279465 
C 72.17439 51.279465 72.17439 51.279465 72.17439 51.279465 
C 72.17439 51.279465 72.17439 51.279465 72.17439 51.279465 
C 72.17439 51.279465 72.17439 51.279465 72.17439 51.279465 
z
" clip-path="url(#pd52c93412d)" style="stroke: #000000"/>
    <path d="M 65.936606 41.948098 
C 65.936606 41.948098 65.936606 41.948098 65.936606 41.948098 
C 65.936606 41.948098 65.936606 41.948098 65.936606 41.948098 
C 65.936606 41.948098 65.936606 41.948098 65.936606 41.948098 
C 65.936606 41.948098 65.936606 41.948098 65.936606 41.948098 
C 65.936606 41.948098 65.936606 41.948098 65.936606 41.948098 
C 65.936606 41.948098 65.936606 41.948098 65.936606 41.948098 
C 65.936606 41.948098 65.936606 41.948098 65.936606 41.948098 
C 65.936606 41.948098 65.936606 41.948098 65.936606 41.948098 
z
" clip-path="url(#pd52c93412d)" style="stroke: #000000"/>
    <path d="M 65.524276 33.146254 
C 65.524276 33.146254 65.524276 33.146254 65.524276 33.146254 
C 65.524276 33.146254 65.524276 33.146254 65.524276 33.146254 
C 65.524276 33.146254 65.524276 33.146254 65.524276 33.146254 
C 65.524276 33.146254 65.524276 33.146254 65.524276 33.146254 
C 65.524276 33.146254 65.524276 33.146254 65.524276 33.146254 
C 65.524276 33.146254 65.524276 33.146254 65.524276 33.146254 
C 65.524276 33.146254 65.524276 33.146254 65.524276 33.146254 
C 65.524276 33.146254 65.524276 33.146254 65.524276 33.146254 
z
" clip-path="url(#pd52c93412d)" style="stroke: #000000"/>
    <path d="M 62.545257 25.595664 
C 62.545257 25.595664 62.545257 25.595664 62.545257 25.595664 
C 62.545257 25.595664 62.545257 25.595664 62.545257 25.595664 
C 62.545257 25.595664 62.545257 25.595664 62.545257 25.595664 
C 62.545257 25.595664 62.545257 25.595664 62.545257 25.595664 
C 62.545257 25.595664 62.545257 25.595664 62.545257 25.595664 
C 62.545257 25.595664 62.545257 25.595664 62.545257 25.595664 
C 62.545257 25.595664 62.545257 25.595664 62.545257 25.595664 
C 62.545257 25.595664 62.545257 25.595664 62.545257 25.595664 
z
" clip-path="url(#pd52c93412d)" style="stroke: #000000"/>
    <path d="M 102.982342 179.099374 
C 102.982342 179.099374 102.982342 179.099374 102.982342 179.099374 
C 102.982342 179.099374 102.982342 179.099374 102.982342 179.099374 
C 102.982342 179.099374 102.982342 179.099374 102.982342 179.099374 
C 102.982342 179.099374 102.982342 179.099374 102.982342 179.099374 
C 102.982342 179.099374 102.982342 179.099374 102.982342 179.099374 
C 102.982342 179.099374 102.982342 179.099374 102.982342 179.099374 
C 102.982342 179.099374 102.982342 179.099374 102.982342 179.099374 
C 102.982342 179.099374 102.982342 179.099374 102.982342 179.099374 
z
" clip-path="url(#pd52c93412d)" style="stroke: #000000"/>
    <path d="M 104.712765 172.397915 
C 104.712765 172.397915 104.712765 172.397915 104.712765 172.397915 
C 104.712765 172.397915 104.712765 172.397915 104.712765 172.397915 
C 104.712765 172.397915 104.712765 172.397915 104.712765 172.397915 
C 104.712765 172.397915 104.712765 172.397915 104.712765 172.397915 
C 104.712765 172.397915 104.712765 172.397915 104.712765 172.397915 
C 104.712765 172.397915 104.712765 172.397915 104.712765 172.397915 
C 104.712765 172.397915 104.712765 172.397915 104.712765 172.397915 
C 104.712765 172.397915 104.712765 172.397915 104.712765 172.397915 
z
" clip-path="url(#pd52c93412d)" style="stroke: #000000"/>
    <path d="M 100.395918 164.202071 
C 100.896439 164.202071 101.376528 164.003212 101.73045 163.64929 
C 102.084372 163.295368 102.283231 162.815279 102.283231 162.314758 
C 102.283231 161.814237 102.084372 161.334148 101.73045 160.980226 
C 101.376528 160.626304 100.896439 160.427445 100.395918 160.427445 
C 99.895396 160.427445 99.415308 160.626304 99.061386 160.980226 
C 98.707463 161.334148 98.508604 161.814237 98.508604 162.314758 
C 98.508604 162.815279 98.707463 163.295368 99.061386 163.64929 
C 99.415308 164.003212 99.895396 164.202071 100.395918 164.202071 
z
" clip-path="url(#pd52c93412d)" style="stroke: #000000"/>
    <path d="M 92.170591 149.11375 
C 92.170591 149.11375 92.170591 149.11375 92.170591 149.11375 
C 92.170591 149.11375 92.170591 149.11375 92.170591 149.11375 
C 92.170591 149.11375 92.170591 149.11375 92.170591 149.11375 
C 92.170591 149.11375 92.170591 149.11375 92.170591 149.11375 
C 92.170591 149.11375 92.170591 149.11375 92.170591 149.11375 
C 92.170591 149.11375 92.170591 149.11375 92.170591 149.11375 
C 92.170591 149.11375 92.170591 149.11375 92.170591 149.11375 
C 92.170591 149.11375 92.170591 149.11375 92.170591 149.11375 
z
" clip-path="url(#pd52c93412d)" style="stroke: #000000"/>
    <path d="M 90.595342 145.767456 
C 91.188354 145.767456 91.757158 145.53185 92.176481 145.112527 
C 92.595804 144.693204 92.83141 144.1244 92.83141 143.531388 
C 92.83141 142.938376 92.595804 142.369572 92.176481 141.950249 
C 91.757158 141.530926 91.188354 141.29532 90.595342 141.29532 
C 90.00233 141.29532 89.433526 141.530926 89.014203 141.950249 
C 88.59488 142.369572 88.359274 142.938376 88.359274 143.531388 
C 88.359274 144.1244 88.59488 144.693204 89.014203 145.112527 
C 89.433526 145.53185 90.00233 145.767456 90.595342 145.767456 
z
" clip-path="url(#pd52c93412d)" style="stroke: #000000"/>
    <path d="M 83.637784 133.831341 
C 84.208021 133.831341 84.754979 133.604783 85.158197 133.201565 
C 85.561415 132.798347 85.787972 132.251389 85.787972 131.681152 
C 85.787972 131.110916 85.561415 130.563958 85.158197 130.160739 
C 84.754979 129.757521 84.208021 129.530964 83.637784 129.530964 
C 83.067547 129.530964 82.520589 129.757521 82.117371 130.160739 
C 81.714153 130.563958 81.487595 131.110916 81.487595 131.681152 
C 81.487595 132.251389 81.714153 132.798347 82.117371 133.201565 
C 82.520589 133.604783 83.067547 133.831341 83.637784 133.831341 
z
" clip-path="url(#pd52c93412d)" style="stroke: #000000"/>
    <path d="M 82.280087 128.56901 
C 82.873099 128.56901 83.441903 128.333404 83.861226 127.914081 
C 84.280549 127.494758 84.516155 126.925955 84.516155 126.332942 
C 84.516155 125.73993 84.280549 125.171127 83.861226 124.751804 
C 83.441903 124.332481 82.873099 124.096875 82.280087 124.096875 
C 81.687075 124.096875 81.118271 124.332481 80.698948 124.751804 
C 80.279626 125.171127 80.044019 125.73993 80.044019 126.332942 
C 80.044019 126.925955 80.279626 127.494758 80.698948 127.914081 
C 81.118271 128.333404 81.687075 128.56901 82.280087 128.56901 
z
" clip-path="url(#pd52c93412d)" style="stroke: #000000"/>
    <path d="M 77.122765 109.168806 
C 77.122765 109.168806 77.122765 109.168806 77.122765 109.168806 
C 77.122765 109.168806 77.122765 109.168806 77.122765 109.168806 
C 77.122765 109.168806 77.122765 109.168806 77.122765 109.168806 
C 77.122765 109.168806 77.122765 109.168806 77.122765 109.168806 
C 77.122765 109.168806 77.122765 109.168806 77.122765 109.168806 
C 77.122765 109.168806 77.122765 109.168806 77.122765 109.168806 
C 77.122765 109.168806 77.122765 109.168806 77.122765 109.168806 
C 77.122765 109.168806 77.122765 109.168806 77.122765 109.168806 
z
" clip-path="url(#pd52c93412d)" style="stroke: #000000"/>
    <path d="M 75.170796 101.940061 
C 75.648189 101.940061 76.106093 101.750391 76.443661 101.412823 
C 76.781228 101.075256 76.970899 100.617351 76.970899 100.139958 
C 76.970899 99.662566 76.781228 99.204661 76.443661 98.867093 
C 76.106093 98.529526 75.648189 98.339856 75.170796 98.339856 
C 74.693403 98.339856 74.235498 98.529526 73.897931 98.867093 
C 73.560363 99.204661 73.370693 99.662566 73.370693 100.139958 
C 73.370693 100.617351 73.560363 101.075256 73.897931 101.412823 
C 74.235498 101.750391 74.693403 101.940061 75.170796 101.940061 
z
" clip-path="url(#pd52c93412d)" style="stroke: #000000"/>
    <path d="M 71.432322 88.814449 
C 71.432322 88.814449 71.432322 88.814449 71.432322 88.814449 
C 71.432322 88.814449 71.432322 88.814449 71.432322 88.814449 
C 71.432322 88.814449 71.432322 88.814449 71.432322 88.814449 
C 71.432322 88.814449 71.432322 88.814449 71.432322 88.814449 
C 71.432322 88.814449 71.432322 88.814449 71.432322 88.814449 
C 71.432322 88.814449 71.432322 88.814449 71.432322 88.814449 
C 71.432322 88.814449 71.432322 88.814449 71.432322 88.814449 
C 71.432322 88.814449 71.432322 88.814449 71.432322 88.814449 
z
" clip-path="url(#pd52c93412d)" style="stroke: #000000"/>
    <path d="M 68.84628 76.314369 
C 68.84628 76.314369 68.84628 76.314369 68.84628 76.314369 
C 68.84628 76.314369 68.84628 76.314369 68.84628 76.314369 
C 68.84628 76.314369 68.84628 76.314369 68.84628 76.314369 
C 68.84628 76.314369 68.84628 76.314369 68.84628 76.314369 
C 68.84628 76.314369 68.84628 76.314369 68.84628 76.314369 
C 68.84628 76.314369 68.84628 76.314369 68.84628 76.314369 
C 68.84628 76.314369 68.84628 76.314369 68.84628 76.314369 
C 68.84628 76.314369 68.84628 76.314369 68.84628 76.314369 
z
" clip-path="url(#pd52c93412d)" style="stroke: #000000"/>
    <path d="M 62.624455 67.213966 
C 62.624455 67.213966 62.624455 67.213966 62.624455 67.213966 
C 62.624455 67.213966 62.624455 67.213966 62.624455 67.213966 
C 62.624455 67.213966 62.624455 67.213966 62.624455 67.213966 
C 62.624455 67.213966 62.624455 67.213966 62.624455 67.213966 
C 62.624455 67.213966 62.624455 67.213966 62.624455 67.213966 
C 62.624455 67.213966 62.624455 67.213966 62.624455 67.213966 
C 62.624455 67.213966 62.624455 67.213966 62.624455 67.213966 
C 62.624455 67.213966 62.624455 67.213966 62.624455 67.213966 
z
" clip-path="url(#pd52c93412d)" style="stroke: #000000"/>
    <path d="M 61.908869 58.627036 
C 61.908869 58.627036 61.908869 58.627036 61.908869 58.627036 
C 61.908869 58.627036 61.908869 58.627036 61.908869 58.627036 
C 61.908869 58.627036 61.908869 58.627036 61.908869 58.627036 
C 61.908869 58.627036 61.908869 58.627036 61.908869 58.627036 
C 61.908869 58.627036 61.908869 58.627036 61.908869 58.627036 
C 61.908869 58.627036 61.908869 58.627036 61.908869 58.627036 
C 61.908869 58.627036 61.908869 58.627036 61.908869 58.627036 
C 61.908869 58.627036 61.908869 58.627036 61.908869 58.627036 
z
" clip-path="url(#pd52c93412d)" style="stroke: #000000"/>
    <path d="M 62.04298 52.219833 
C 62.542264 52.219833 63.021166 52.021465 63.374213 51.668418 
C 63.72726 51.315371 63.925628 50.836469 63.925628 50.337185 
C 63.925628 49.837901 63.72726 49.359 63.374213 49.005953 
C 63.021166 48.652906 62.542264 48.454538 62.04298 48.454538 
C 61.543696 48.454538 61.064795 48.652906 60.711747 49.005953 
C 60.3587 49.359 60.160333 49.837901 60.160333 50.337185 
C 60.160333 50.836469 60.3587 51.315371 60.711747 51.668418 
C 61.064795 52.021465 61.543696 52.219833 62.04298 52.219833 
z
" clip-path="url(#pd52c93412d)" style="stroke: #000000"/>
    <path d="M 48.781984 36.504549 
C 48.781984 36.504549 48.781984 36.504549 48.781984 36.504549 
C 48.781984 36.504549 48.781984 36.504549 48.781984 36.504549 
C 48.781984 36.504549 48.781984 36.504549 48.781984 36.504549 
C 48.781984 36.504549 48.781984 36.504549 48.781984 36.504549 
C 48.781984 36.504549 48.781984 36.504549 48.781984 36.504549 
C 48.781984 36.504549 48.781984 36.504549 48.781984 36.504549 
C 48.781984 36.504549 48.781984 36.504549 48.781984 36.504549 
C 48.781984 36.504549 48.781984 36.504549 48.781984 36.504549 
z
" clip-path="url(#pd52c93412d)" style="stroke: #000000"/>
    <path d="M 90.906534 174.690761 
C 90.906534 174.690761 90.906534 174.690761 90.906534 174.690761 
C 90.906534 174.690761 90.906534 174.690761 90.906534 174.690761 
C 90.906534 174.690761 90.906534 174.690761 90.906534 174.690761 
C 90.906534 174.690761 90.906534 174.690761 90.906534 174.690761 
C 90.906534 174.690761 90.906534 174.690761 90.906534 174.690761 
C 90.906534 174.690761 90.906534 174.690761 90.906534 174.690761 
C 90.906534 174.690761 90.906534 174.690761 90.906534 174.690761 
C 90.906534 174.690761 90.906534 174.690761 90.906534 174.690761 
z
" clip-path="url(#pd52c93412d)" style="stroke: #000000"/>
    <path d="M 89.967445 160.996387 
C 89.967445 160.996387 89.967445 160.996387 89.967445 160.996387 
C 89.967445 160.996387 89.967445 160.996387 89.967445 160.996387 
C 89.967445 160.996387 89.967445 160.996387 89.967445 160.996387 
C 89.967445 160.996387 89.967445 160.996387 89.967445 160.996387 
C 89.967445 160.996387 89.967445 160.996387 89.967445 160.996387 
C 89.967445 160.996387 89.967445 160.996387 89.967445 160.996387 
C 89.967445 160.996387 89.967445 160.996387 89.967445 160.996387 
C 89.967445 160.996387 89.967445 160.996387 89.967445 160.996387 
z
" clip-path="url(#pd52c93412d)" style="stroke: #000000"/>
    <path d="M 78.48115 153.67284 
C 78.48115 153.67284 78.48115 153.67284 78.48115 153.67284 
C 78.48115 153.67284 78.48115 153.67284 78.48115 153.67284 
C 78.48115 153.67284 78.48115 153.67284 78.48115 153.67284 
C 78.48115 153.67284 78.48115 153.67284 78.48115 153.67284 
C 78.48115 153.67284 78.48115 153.67284 78.48115 153.67284 
C 78.48115 153.67284 78.48115 153.67284 78.48115 153.67284 
C 78.48115 153.67284 78.48115 153.67284 78.48115 153.67284 
C 78.48115 153.67284 78.48115 153.67284 78.48115 153.67284 
z
" clip-path="url(#pd52c93412d)" style="stroke: #000000"/>
    <path d="M 80.958875 147.065764 
C 80.958875 147.065764 80.958875 147.065764 80.958875 147.065764 
C 80.958875 147.065764 80.958875 147.065764 80.958875 147.065764 
C 80.958875 147.065764 80.958875 147.065764 80.958875 147.065764 
C 80.958875 147.065764 80.958875 147.065764 80.958875 147.065764 
C 80.958875 147.065764 80.958875 147.065764 80.958875 147.065764 
C 80.958875 147.065764 80.958875 147.065764 80.958875 147.065764 
C 80.958875 147.065764 80.958875 147.065764 80.958875 147.065764 
C 80.958875 147.065764 80.958875 147.065764 80.958875 147.065764 
z
" clip-path="url(#pd52c93412d)" style="stroke: #000000"/>
    <path d="M 75.564297 137.090807 
C 76.157679 137.090807 76.726838 136.855053 77.146423 136.435468 
C 77.566008 136.015884 77.801761 135.446725 77.801761 134.853342 
C 77.801761 134.25996 77.566008 133.690801 77.146423 133.271216 
C 76.726838 132.851631 76.157679 132.615878 75.564297 132.615878 
C 74.970914 132.615878 74.401755 132.851631 73.982171 133.271216 
C 73.562586 133.690801 73.326833 134.25996 73.326833 134.853342 
C 73.326833 135.446725 73.562586 136.015884 73.982171 136.435468 
C 74.401755 136.855053 74.970914 137.090807 75.564297 137.090807 
z
" clip-path="url(#pd52c93412d)" style="stroke: #000000"/>
    <path d="M 71.169918 123.769391 
C 71.169918 123.769391 71.169918 123.769391 71.169918 123.769391 
C 71.169918 123.769391 71.169918 123.769391 71.169918 123.769391 
C 71.169918 123.769391 71.169918 123.769391 71.169918 123.769391 
C 71.169918 123.769391 71.169918 123.769391 71.169918 123.769391 
C 71.169918 123.769391 71.169918 123.769391 71.169918 123.769391 
C 71.169918 123.769391 71.169918 123.769391 71.169918 123.769391 
C 71.169918 123.769391 71.169918 123.769391 71.169918 123.769391 
C 71.169918 123.769391 71.169918 123.769391 71.169918 123.769391 
z
" clip-path="url(#pd52c93412d)" style="stroke: #000000"/>
    <path d="M 65.784115 116.626797 
C 66.377127 116.626797 66.945931 116.39119 67.365254 115.971867 
C 67.784576 115.552545 68.020183 114.983741 68.020183 114.390729 
C 68.020183 113.797717 67.784576 113.228913 67.365254 112.80959 
C 66.945931 112.390267 66.377127 112.154661 65.784115 112.154661 
C 65.191103 112.154661 64.622299 112.390267 64.202976 112.80959 
C 63.783653 113.228913 63.548047 113.797717 63.548047 114.390729 
C 63.548047 114.983741 63.783653 115.552545 64.202976 115.971867 
C 64.622299 116.39119 65.191103 116.626797 65.784115 116.626797 
z
" clip-path="url(#pd52c93412d)" style="stroke: #000000"/>
    <path d="M 65.858028 104.792494 
C 66.45141 104.792494 67.020569 104.556741 67.440154 104.137156 
C 67.859738 103.717571 68.095492 103.148412 68.095492 102.55503 
C 68.095492 101.961647 67.859738 101.392489 67.440154 100.972904 
C 67.020569 100.553319 66.45141 100.317566 65.858028 100.317566 
C 65.264645 100.317566 64.695486 100.553319 64.275901 100.972904 
C 63.856317 101.392489 63.620563 101.961647 63.620563 102.55503 
C 63.620563 103.148412 63.856317 103.717571 64.275901 104.137156 
C 64.695486 104.556741 65.264645 104.792494 65.858028 104.792494 
z
" clip-path="url(#pd52c93412d)" style="stroke: #000000"/>
    <path d="M 60.337978 99.613473 
C 60.93136 99.613473 61.500519 99.37772 61.920104 98.958135 
C 62.339689 98.53855 62.575442 97.969391 62.575442 97.376009 
C 62.575442 96.782626 62.339689 96.213468 61.920104 95.793883 
C 61.500519 95.374298 60.93136 95.138545 60.337978 95.138545 
C 59.744596 95.138545 59.175437 95.374298 58.755852 95.793883 
C 58.336267 96.213468 58.100514 96.782626 58.100514 97.376009 
C 58.100514 97.969391 58.336267 98.53855 58.755852 98.958135 
C 59.175437 99.37772 59.744596 99.613473 60.337978 99.613473 
z
" clip-path="url(#pd52c93412d)" style="stroke: #000000"/>
    <path d="M 53.477774 83.92748 
C 53.477774 83.92748 53.477774 83.92748 53.477774 83.92748 
C 53.477774 83.92748 53.477774 83.92748 53.477774 83.92748 
C 53.477774 83.92748 53.477774 83.92748 53.477774 83.92748 
C 53.477774 83.92748 53.477774 83.92748 53.477774 83.92748 
C 53.477774 83.92748 53.477774 83.92748 53.477774 83.92748 
C 53.477774 83.92748 53.477774 83.92748 53.477774 83.92748 
C 53.477774 83.92748 53.477774 83.92748 53.477774 83.92748 
C 53.477774 83.92748 53.477774 83.92748 53.477774 83.92748 
z
" clip-path="url(#pd52c93412d)" style="stroke: #000000"/>
    <path d="M 53.613907 69.357622 
C 53.613907 69.357622 53.613907 69.357622 53.613907 69.357622 
C 53.613907 69.357622 53.613907 69.357622 53.613907 69.357622 
C 53.613907 69.357622 53.613907 69.357622 53.613907 69.357622 
C 53.613907 69.357622 53.613907 69.357622 53.613907 69.357622 
C 53.613907 69.357622 53.613907 69.357622 53.613907 69.357622 
C 53.613907 69.357622 53.613907 69.357622 53.613907 69.357622 
C 53.613907 69.357622 53.613907 69.357622 53.613907 69.357622 
C 53.613907 69.357622 53.613907 69.357622 53.613907 69.357622 
z
" clip-path="url(#pd52c93412d)" style="stroke: #000000"/>
    <path d="M 50.191537 61.977691 
C 50.724003 61.977691 51.234732 61.76614 51.611243 61.38963 
C 51.987753 61.013119 52.199304 60.50239 52.199304 59.969924 
C 52.199304 59.437458 51.987753 58.926729 51.611243 58.550218 
C 51.234732 58.173708 50.724003 57.962157 50.191537 57.962157 
C 49.659071 57.962157 49.148342 58.173708 48.771831 58.550218 
C 48.395321 58.926729 48.18377 59.437458 48.18377 59.969924 
C 48.18377 60.50239 48.395321 61.013119 48.771831 61.38963 
C 49.148342 61.76614 49.659071 61.977691 50.191537 61.977691 
z
" clip-path="url(#pd52c93412d)" style="stroke: #000000"/>
    <path d="M 46.102448 49.03365 
C 46.601732 49.03365 47.080634 48.835283 47.433681 48.482235 
C 47.786728 48.129188 47.985096 47.650287 47.985096 47.151003 
C 47.985096 46.651719 47.786728 46.172817 47.433681 45.81977 
C 47.080634 45.466723 46.601732 45.268355 46.102448 45.268355 
C 45.603164 45.268355 45.124262 45.466723 44.771215 45.81977 
C 44.418168 46.172817 44.219801 46.651719 44.219801 47.151003 
C 44.219801 47.650287 44.418168 48.129188 44.771215 48.482235 
C 45.124262 48.835283 45.603164 49.03365 46.102448 49.03365 
z
" clip-path="url(#pd52c93412d)" style="stroke: #000000"/>
    <path d="M 77.580449 177.858166 
C 77.580449 177.858166 77.580449 177.858166 77.580449 177.858166 
C 77.580449 177.858166 77.580449 177.858166 77.580449 177.858166 
C 77.580449 177.858166 77.580449 177.858166 77.580449 177.858166 
C 77.580449 177.858166 77.580449 177.858166 77.580449 177.858166 
C 77.580449 177.858166 77.580449 177.858166 77.580449 177.858166 
C 77.580449 177.858166 77.580449 177.858166 77.580449 177.858166 
C 77.580449 177.858166 77.580449 177.858166 77.580449 177.858166 
C 77.580449 177.858166 77.580449 177.858166 77.580449 177.858166 
z
" clip-path="url(#pd52c93412d)" style="stroke: #000000"/>
    <path d="M 74.845082 167.031149 
C 74.845082 167.031149 74.845082 167.031149 74.845082 167.031149 
C 74.845082 167.031149 74.845082 167.031149 74.845082 167.031149 
C 74.845082 167.031149 74.845082 167.031149 74.845082 167.031149 
C 74.845082 167.031149 74.845082 167.031149 74.845082 167.031149 
C 74.845082 167.031149 74.845082 167.031149 74.845082 167.031149 
C 74.845082 167.031149 74.845082 167.031149 74.845082 167.031149 
C 74.845082 167.031149 74.845082 167.031149 74.845082 167.031149 
C 74.845082 167.031149 74.845082 167.031149 74.845082 167.031149 
z
" clip-path="url(#pd52c93412d)" style="stroke: #000000"/>
    <path d="M 73.750866 157.411638 
C 74.343878 157.411638 74.912682 157.176032 75.332005 156.756709 
C 75.751328 156.337386 75.986934 155.768582 75.986934 155.17557 
C 75.986934 154.582558 75.751328 154.013754 75.332005 153.594431 
C 74.912682 153.175109 74.343878 152.939502 73.750866 152.939502 
C 73.157854 152.939502 72.58905 153.175109 72.169727 153.594431 
C 71.750404 154.013754 71.514798 154.582558 71.514798 155.17557 
C 71.514798 155.768582 71.750404 156.337386 72.169727 156.756709 
C 72.58905 157.176032 73.157854 157.411638 73.750866 157.411638 
z
" clip-path="url(#pd52c93412d)" style="stroke: #000000"/>
    <path d="M 68.826476 149.513624 
C 69.314185 149.513624 69.781985 149.319855 70.126848 148.974992 
C 70.471711 148.63013 70.66548 148.16233 70.66548 147.67462 
C 70.66548 147.18691 70.471711 146.71911 70.126848 146.374247 
C 69.781985 146.029385 69.314185 145.835616 68.826476 145.835616 
C 68.338766 145.835616 67.870966 146.029385 67.526103 146.374247 
C 67.18124 146.71911 66.987471 147.18691 66.987471 147.67462 
C 66.987471 148.16233 67.18124 148.63013 67.526103 148.974992 
C 67.870966 149.319855 68.338766 149.513624 68.826476 149.513624 
z
" clip-path="url(#pd52c93412d)" style="stroke: #000000"/>
    <path d="M 66.289416 138.214275 
C 66.289416 138.214275 66.289416 138.214275 66.289416 138.214275 
C 66.289416 138.214275 66.289416 138.214275 66.289416 138.214275 
C 66.289416 138.214275 66.289416 138.214275 66.289416 138.214275 
C 66.289416 138.214275 66.289416 138.214275 66.289416 138.214275 
C 66.289416 138.214275 66.289416 138.214275 66.289416 138.214275 
C 66.289416 138.214275 66.289416 138.214275 66.289416 138.214275 
C 66.289416 138.214275 66.289416 138.214275 66.289416 138.214275 
C 66.289416 138.214275 66.289416 138.214275 66.289416 138.214275 
z
" clip-path="url(#pd52c93412d)" style="stroke: #000000"/>
    <path d="M 62.821868 130.529043 
C 62.821868 130.529043 62.821868 130.529043 62.821868 130.529043 
C 62.821868 130.529043 62.821868 130.529043 62.821868 130.529043 
C 62.821868 130.529043 62.821868 130.529043 62.821868 130.529043 
C 62.821868 130.529043 62.821868 130.529043 62.821868 130.529043 
C 62.821868 130.529043 62.821868 130.529043 62.821868 130.529043 
C 62.821868 130.529043 62.821868 130.529043 62.821868 130.529043 
C 62.821868 130.529043 62.821868 130.529043 62.821868 130.529043 
C 62.821868 130.529043 62.821868 130.529043 62.821868 130.529043 
z
" clip-path="url(#pd52c93412d)" style="stroke: #000000"/>
    <path d="M 60.74702 117.966142 
C 60.74702 117.966142 60.74702 117.966142 60.74702 117.966142 
C 60.74702 117.966142 60.74702 117.966142 60.74702 117.966142 
C 60.74702 117.966142 60.74702 117.966142 60.74702 117.966142 
C 60.74702 117.966142 60.74702 117.966142 60.74702 117.966142 
C 60.74702 117.966142 60.74702 117.966142 60.74702 117.966142 
C 60.74702 117.966142 60.74702 117.966142 60.74702 117.966142 
C 60.74702 117.966142 60.74702 117.966142 60.74702 117.966142 
C 60.74702 117.966142 60.74702 117.966142 60.74702 117.966142 
z
" clip-path="url(#pd52c93412d)" style="stroke: #000000"/>
    <path d="M 53.261968 102.612663 
C 53.261968 102.612663 53.261968 102.612663 53.261968 102.612663 
C 53.261968 102.612663 53.261968 102.612663 53.261968 102.612663 
C 53.261968 102.612663 53.261968 102.612663 53.261968 102.612663 
C 53.261968 102.612663 53.261968 102.612663 53.261968 102.612663 
C 53.261968 102.612663 53.261968 102.612663 53.261968 102.612663 
C 53.261968 102.612663 53.261968 102.612663 53.261968 102.612663 
C 53.261968 102.612663 53.261968 102.612663 53.261968 102.612663 
C 53.261968 102.612663 53.261968 102.612663 53.261968 102.612663 
z
" clip-path="url(#pd52c93412d)" style="stroke: #000000"/>
    <path d="M 47.056352 95.226822 
C 47.056352 95.226822 47.056352 95.226822 47.056352 95.226822 
C 47.056352 95.226822 47.056352 95.226822 47.056352 95.226822 
C 47.056352 95.226822 47.056352 95.226822 47.056352 95.226822 
C 47.056352 95.226822 47.056352 95.226822 47.056352 95.226822 
C 47.056352 95.226822 47.056352 95.226822 47.056352 95.226822 
C 47.056352 95.226822 47.056352 95.226822 47.056352 95.226822 
C 47.056352 95.226822 47.056352 95.226822 47.056352 95.226822 
C 47.056352 95.226822 47.056352 95.226822 47.056352 95.226822 
z
" clip-path="url(#pd52c93412d)" style="stroke: #000000"/>
    <path d="M 46.558794 88.219058 
C 46.558794 88.219058 46.558794 88.219058 46.558794 88.219058 
C 46.558794 88.219058 46.558794 88.219058 46.558794 88.219058 
C 46.558794 88.219058 46.558794 88.219058 46.558794 88.219058 
C 46.558794 88.219058 46.558794 88.219058 46.558794 88.219058 
C 46.558794 88.219058 46.558794 88.219058 46.558794 88.219058 
C 46.558794 88.219058 46.558794 88.219058 46.558794 88.219058 
C 46.558794 88.219058 46.558794 88.219058 46.558794 88.219058 
C 46.558794 88.219058 46.558794 88.219058 46.558794 88.219058 
z
" clip-path="url(#pd52c93412d)" style="stroke: #000000"/>
    <path d="M 44.015618 75.135 
C 44.608631 75.135 45.177434 74.899393 45.596757 74.48007 
C 46.01608 74.060748 46.251686 73.491944 46.251686 72.898932 
C 46.251686 72.305919 46.01608 71.737116 45.596757 71.317793 
C 45.177434 70.89847 44.608631 70.662864 44.015618 70.662864 
C 43.422606 70.662864 42.853803 70.89847 42.43448 71.317793 
C 42.015157 71.737116 41.77955 72.305919 41.77955 72.898932 
C 41.77955 73.491944 42.015157 74.060748 42.43448 74.48007 
C 42.853803 74.899393 43.422606 75.135 44.015618 75.135 
z
" clip-path="url(#pd52c93412d)" style="stroke: #000000"/>
    <path d="M 40.870513 66.024728 
C 41.068799 66.024728 41.25899 65.945949 41.399199 65.80574 
C 41.539408 65.665531 41.618188 65.47534 41.618188 65.277054 
C 41.618188 65.078768 41.539408 64.888577 41.399199 64.748368 
C 41.25899 64.608159 41.068799 64.52938 40.870513 64.52938 
C 40.672228 64.52938 40.482037 64.608159 40.341828 64.748368 
C 40.201619 64.888577 40.122839 65.078768 40.122839 65.277054 
C 40.122839 65.47534 40.201619 65.665531 40.341828 65.80574 
C 40.482037 65.945949 40.672228 66.024728 40.870513 66.024728 
z
" clip-path="url(#pd52c93412d)" style="stroke: #000000"/>
    <path d="M 64.003455 170.080353 
C 64.003455 170.080353 64.003455 170.080353 64.003455 170.080353 
C 64.003455 170.080353 64.003455 170.080353 64.003455 170.080353 
C 64.003455 170.080353 64.003455 170.080353 64.003455 170.080353 
C 64.003455 170.080353 64.003455 170.080353 64.003455 170.080353 
C 64.003455 170.080353 64.003455 170.080353 64.003455 170.080353 
C 64.003455 170.080353 64.003455 170.080353 64.003455 170.080353 
C 64.003455 170.080353 64.003455 170.080353 64.003455 170.080353 
C 64.003455 170.080353 64.003455 170.080353 64.003455 170.080353 
z
" clip-path="url(#pd52c93412d)" style="stroke: #000000"/>
    <path d="M 60.869355 169.681056 
C 61.368639 169.681056 61.847541 169.482689 62.200588 169.129641 
C 62.553635 168.776594 62.752003 168.297693 62.752003 167.798409 
C 62.752003 167.299125 62.553635 166.820223 62.200588 166.467176 
C 61.847541 166.114129 61.368639 165.915761 60.869355 165.915761 
C 60.370071 165.915761 59.89117 166.114129 59.538123 166.467176 
C 59.185076 166.820223 58.986708 167.299125 58.986708 167.798409 
C 58.986708 168.297693 59.185076 168.776594 59.538123 169.129641 
C 59.89117 169.482689 60.370071 169.681056 60.869355 169.681056 
z
" clip-path="url(#pd52c93412d)" style="stroke: #000000"/>
    <path d="M 59.800054 153.322525 
C 60.051841 153.322525 60.29335 153.222488 60.471391 153.044447 
C 60.649432 152.866407 60.749468 152.624898 60.749468 152.37311 
C 60.749468 152.121322 60.649432 151.879813 60.471391 151.701773 
C 60.29335 151.523732 60.051841 151.423696 59.800054 151.423696 
C 59.548266 151.423696 59.306757 151.523732 59.128716 151.701773 
C 58.950675 151.879813 58.850639 152.121322 58.850639 152.37311 
C 58.850639 152.624898 58.950675 152.866407 59.128716 153.044447 
C 59.306757 153.222488 59.548266 153.322525 59.800054 153.322525 
z
" clip-path="url(#pd52c93412d)" style="stroke: #000000"/>
    <path d="M 52.573229 141.504457 
C 52.573229 141.504457 52.573229 141.504457 52.573229 141.504457 
C 52.573229 141.504457 52.573229 141.504457 52.573229 141.504457 
C 52.573229 141.504457 52.573229 141.504457 52.573229 141.504457 
C 52.573229 141.504457 52.573229 141.504457 52.573229 141.504457 
C 52.573229 141.504457 52.573229 141.504457 52.573229 141.504457 
C 52.573229 141.504457 52.573229 141.504457 52.573229 141.504457 
C 52.573229 141.504457 52.573229 141.504457 52.573229 141.504457 
C 52.573229 141.504457 52.573229 141.504457 52.573229 141.504457 
z
" clip-path="url(#pd52c93412d)" style="stroke: #000000"/>
    <path d="M 50.233638 131.253826 
C 50.82665 131.253826 51.395453 131.01822 51.814776 130.598897 
C 52.234099 130.179574 52.469706 129.61077 52.469706 129.017758 
C 52.469706 128.424746 52.234099 127.855942 51.814776 127.436619 
C 51.395453 127.017296 50.82665 126.78169 50.233638 126.78169 
C 49.640625 126.78169 49.071822 127.017296 48.652499 127.436619 
C 48.233176 127.855942 47.99757 128.424746 47.99757 129.017758 
C 47.99757 129.61077 48.233176 130.179574 48.652499 130.598897 
C 49.071822 131.01822 49.640625 131.253826 50.233638 131.253826 
z
" clip-path="url(#pd52c93412d)" style="stroke: #000000"/>
    <path d="M 46.01441 120.818759 
C 46.01441 120.818759 46.01441 120.818759 46.01441 120.818759 
C 46.01441 120.818759 46.01441 120.818759 46.01441 120.818759 
C 46.01441 120.818759 46.01441 120.818759 46.01441 120.818759 
C 46.01441 120.818759 46.01441 120.818759 46.01441 120.818759 
C 46.01441 120.818759 46.01441 120.818759 46.01441 120.818759 
C 46.01441 120.818759 46.01441 120.818759 46.01441 120.818759 
C 46.01441 120.818759 46.01441 120.818759 46.01441 120.818759 
C 46.01441 120.818759 46.01441 120.818759 46.01441 120.818759 
z
" clip-path="url(#pd52c93412d)" style="stroke: #000000"/>
    <path d="M 45.419074 110.163237 
C 46.012086 110.163237 46.58089 109.92763 47.000213 109.508307 
C 47.419536 109.088985 47.655142 108.520181 47.655142 107.927169 
C 47.655142 107.334156 47.419536 106.765353 47.000213 106.34603 
C 46.58089 105.926707 46.012086 105.691101 45.419074 105.691101 
C 44.826062 105.691101 44.257258 105.926707 43.837935 106.34603 
C 43.418612 106.765353 43.183006 107.334156 43.183006 107.927169 
C 43.183006 108.520181 43.418612 109.088985 43.837935 109.508307 
C 44.257258 109.92763 44.826062 110.163237 45.419074 110.163237 
z
" clip-path="url(#pd52c93412d)" style="stroke: #000000"/>
    <path d="M 39.276536 97.056581 
C 39.276536 97.056581 39.276536 97.056581 39.276536 97.056581 
C 39.276536 97.056581 39.276536 97.056581 39.276536 97.056581 
C 39.276536 97.056581 39.276536 97.056581 39.276536 97.056581 
C 39.276536 97.056581 39.276536 97.056581 39.276536 97.056581 
C 39.276536 97.056581 39.276536 97.056581 39.276536 97.056581 
C 39.276536 97.056581 39.276536 97.056581 39.276536 97.056581 
C 39.276536 97.056581 39.276536 97.056581 39.276536 97.056581 
C 39.276536 97.056581 39.276536 97.056581 39.276536 97.056581 
z
" clip-path="url(#pd52c93412d)" style="stroke: #000000"/>
    <path d="M 34.480663 90.859185 
C 34.480663 90.859185 34.480663 90.859185 34.480663 90.859185 
C 34.480663 90.859185 34.480663 90.859185 34.480663 90.859185 
C 34.480663 90.859185 34.480663 90.859185 34.480663 90.859185 
C 34.480663 90.859185 34.480663 90.859185 34.480663 90.859185 
C 34.480663 90.859185 34.480663 90.859185 34.480663 90.859185 
C 34.480663 90.859185 34.480663 90.859185 34.480663 90.859185 
C 34.480663 90.859185 34.480663 90.859185 34.480663 90.859185 
C 34.480663 90.859185 34.480663 90.859185 34.480663 90.859185 
z
" clip-path="url(#pd52c93412d)" style="stroke: #000000"/>
    <path d="M 56.449255 176.185321 
C 56.449255 176.185321 56.449255 176.185321 56.449255 176.185321 
C 56.449255 176.185321 56.449255 176.185321 56.449255 176.185321 
C 56.449255 176.185321 56.449255 176.185321 56.449255 176.185321 
C 56.449255 176.185321 56.449255 176.185321 56.449255 176.185321 
C 56.449255 176.185321 56.449255 176.185321 56.449255 176.185321 
C 56.449255 176.185321 56.449255 176.185321 56.449255 176.185321 
C 56.449255 176.185321 56.449255 176.185321 56.449255 176.185321 
C 56.449255 176.185321 56.449255 176.185321 56.449255 176.185321 
z
" clip-path="url(#pd52c93412d)" style="stroke: #000000"/>
    <path d="M 48.81329 164.333341 
C 48.81329 164.333341 48.81329 164.333341 48.81329 164.333341 
C 48.81329 164.333341 48.81329 164.333341 48.81329 164.333341 
C 48.81329 164.333341 48.81329 164.333341 48.81329 164.333341 
C 48.81329 164.333341 48.81329 164.333341 48.81329 164.333341 
C 48.81329 164.333341 48.81329 164.333341 48.81329 164.333341 
C 48.81329 164.333341 48.81329 164.333341 48.81329 164.333341 
C 48.81329 164.333341 48.81329 164.333341 48.81329 164.333341 
C 48.81329 164.333341 48.81329 164.333341 48.81329 164.333341 
z
" clip-path="url(#pd52c93412d)" style="stroke: #000000"/>
    <path d="M 47.772452 158.471324 
C 48.278431 158.471324 48.763755 158.270297 49.121536 157.912516 
C 49.479317 157.554734 49.680345 157.069411 49.680345 156.563432 
C 49.680345 156.057453 49.479317 155.572129 49.121536 155.214348 
C 48.763755 154.856566 48.278431 154.655539 47.772452 154.655539 
C 47.266473 154.655539 46.78115 154.856566 46.423368 155.214348 
C 46.065587 155.572129 45.864559 156.057453 45.864559 156.563432 
C 45.864559 157.069411 46.065587 157.554734 46.423368 157.912516 
C 46.78115 158.270297 47.266473 158.471324 47.772452 158.471324 
z
" clip-path="url(#pd52c93412d)" style="stroke: #000000"/>
    <path d="M 45.553512 147.703823 
C 45.553512 147.703823 45.553512 147.703823 45.553512 147.703823 
C 45.553512 147.703823 45.553512 147.703823 45.553512 147.703823 
C 45.553512 147.703823 45.553512 147.703823 45.553512 147.703823 
C 45.553512 147.703823 45.553512 147.703823 45.553512 147.703823 
C 45.553512 147.703823 45.553512 147.703823 45.553512 147.703823 
C 45.553512 147.703823 45.553512 147.703823 45.553512 147.703823 
C 45.553512 147.703823 45.553512 147.703823 45.553512 147.703823 
C 45.553512 147.703823 45.553512 147.703823 45.553512 147.703823 
z
" clip-path="url(#pd52c93412d)" style="stroke: #000000"/>
    <path d="M 40.704527 135.120996 
C 40.704527 135.120996 40.704527 135.120996 40.704527 135.120996 
C 40.704527 135.120996 40.704527 135.120996 40.704527 135.120996 
C 40.704527 135.120996 40.704527 135.120996 40.704527 135.120996 
C 40.704527 135.120996 40.704527 135.120996 40.704527 135.120996 
C 40.704527 135.120996 40.704527 135.120996 40.704527 135.120996 
C 40.704527 135.120996 40.704527 135.120996 40.704527 135.120996 
C 40.704527 135.120996 40.704527 135.120996 40.704527 135.120996 
C 40.704527 135.120996 40.704527 135.120996 40.704527 135.120996 
z
" clip-path="url(#pd52c93412d)" style="stroke: #000000"/>
    <path d="M 33.380051 122.539821 
C 33.973063 122.539821 34.541866 122.304215 34.961189 121.884892 
C 35.380512 121.465569 35.616119 120.896765 35.616119 120.303753 
C 35.616119 119.710741 35.380512 119.141937 34.961189 118.722614 
C 34.541866 118.303291 33.973063 118.067685 33.380051 118.067685 
C 32.787038 118.067685 32.218235 118.303291 31.798912 118.722614 
C 31.379589 119.141937 31.143983 119.710741 31.143983 120.303753 
C 31.143983 120.896765 31.379589 121.465569 31.798912 121.884892 
C 32.218235 122.304215 32.787038 122.539821 33.380051 122.539821 
z
" clip-path="url(#pd52c93412d)" style="stroke: #000000"/>
    <path d="M 33.695407 112.874824 
C 33.695407 112.874824 33.695407 112.874824 33.695407 112.874824 
C 33.695407 112.874824 33.695407 112.874824 33.695407 112.874824 
C 33.695407 112.874824 33.695407 112.874824 33.695407 112.874824 
C 33.695407 112.874824 33.695407 112.874824 33.695407 112.874824 
C 33.695407 112.874824 33.695407 112.874824 33.695407 112.874824 
C 33.695407 112.874824 33.695407 112.874824 33.695407 112.874824 
C 33.695407 112.874824 33.695407 112.874824 33.695407 112.874824 
C 33.695407 112.874824 33.695407 112.874824 33.695407 112.874824 
z
" clip-path="url(#pd52c93412d)" style="stroke: #000000"/>
    <path d="M 32.278831 103.143475 
C 32.278831 103.143475 32.278831 103.143475 32.278831 103.143475 
C 32.278831 103.143475 32.278831 103.143475 32.278831 103.143475 
C 32.278831 103.143475 32.278831 103.143475 32.278831 103.143475 
C 32.278831 103.143475 32.278831 103.143475 32.278831 103.143475 
C 32.278831 103.143475 32.278831 103.143475 32.278831 103.143475 
C 32.278831 103.143475 32.278831 103.143475 32.278831 103.143475 
C 32.278831 103.143475 32.278831 103.143475 32.278831 103.143475 
C 32.278831 103.143475 32.278831 103.143475 32.278831 103.143475 
z
" clip-path="url(#pd52c93412d)" style="stroke: #000000"/>
    <path d="M 40.591985 172.258959 
C 40.591985 172.258959 40.591985 172.258959 40.591985 172.258959 
C 40.591985 172.258959 40.591985 172.258959 40.591985 172.258959 
C 40.591985 172.258959 40.591985 172.258959 40.591985 172.258959 
C 40.591985 172.258959 40.591985 172.258959 40.591985 172.258959 
C 40.591985 172.258959 40.591985 172.258959 40.591985 172.258959 
C 40.591985 172.258959 40.591985 172.258959 40.591985 172.258959 
C 40.591985 172.258959 40.591985 172.258959 40.591985 172.258959 
C 40.591985 172.258959 40.591985 172.258959 40.591985 172.258959 
z
" clip-path="url(#pd52c93412d)" style="stroke: #000000"/>
    <path d="M 36.142548 156.968036 
C 36.142548 156.968036 36.142548 156.968036 36.142548 156.968036 
C 36.142548 156.968036 36.142548 156.968036 36.142548 156.968036 
C 36.142548 156.968036 36.142548 156.968036 36.142548 156.968036 
C 36.142548 156.968036 36.142548 156.968036 36.142548 156.968036 
C 36.142548 156.968036 36.142548 156.968036 36.142548 156.968036 
C 36.142548 156.968036 36.142548 156.968036 36.142548 156.968036 
C 36.142548 156.968036 36.142548 156.968036 36.142548 156.968036 
C 36.142548 156.968036 36.142548 156.968036 36.142548 156.968036 
z
" clip-path="url(#pd52c93412d)" style="stroke: #000000"/>
    <path d="M 36.417645 147.163899 
C 36.417645 147.163899 36.417645 147.163899 36.417645 147.163899 
C 36.417645 147.163899 36.417645 147.163899 36.417645 147.163899 
C 36.417645 147.163899 36.417645 147.163899 36.417645 147.163899 
C 36.417645 147.163899 36.417645 147.163899 36.417645 147.163899 
C 36.417645 147.163899 36.417645 147.163899 36.417645 147.163899 
C 36.417645 147.163899 36.417645 147.163899 36.417645 147.163899 
C 36.417645 147.163899 36.417645 147.163899 36.417645 147.163899 
C 36.417645 147.163899 36.417645 147.163899 36.417645 147.163899 
z
" clip-path="url(#pd52c93412d)" style="stroke: #000000"/>
    <path d="M 29.515264 137.590629 
C 29.515264 137.590629 29.515264 137.590629 29.515264 137.590629 
C 29.515264 137.590629 29.515264 137.590629 29.515264 137.590629 
C 29.515264 137.590629 29.515264 137.590629 29.515264 137.590629 
C 29.515264 137.590629 29.515264 137.590629 29.515264 137.590629 
C 29.515264 137.590629 29.515264 137.590629 29.515264 137.590629 
C 29.515264 137.590629 29.515264 137.590629 29.515264 137.590629 
C 29.515264 137.590629 29.515264 137.590629 29.515264 137.590629 
C 29.515264 137.590629 29.515264 137.590629 29.515264 137.590629 
z
" clip-path="url(#pd52c93412d)" style="stroke: #000000"/>
    <path d="M 28.073785 127.784605 
C 28.073785 127.784605 28.073785 127.784605 28.073785 127.784605 
C 28.073785 127.784605 28.073785 127.784605 28.073785 127.784605 
C 28.073785 127.784605 28.073785 127.784605 28.073785 127.784605 
C 28.073785 127.784605 28.073785 127.784605 28.073785 127.784605 
C 28.073785 127.784605 28.073785 127.784605 28.073785 127.784605 
C 28.073785 127.784605 28.073785 127.784605 28.073785 127.784605 
C 28.073785 127.784605 28.073785 127.784605 28.073785 127.784605 
C 28.073785 127.784605 28.073785 127.784605 28.073785 127.784605 
z
" clip-path="url(#pd52c93412d)" style="stroke: #000000"/>
   </g>
   <g id="matplotlib.axis_1">
    <g id="xtick_1">
     <g id="line2d_1">
      <defs>
       <path id="m57f1c1f72d" d="M 0 0 
L 0 3.5 
" style="stroke: #000000; stroke-width: 0.8"/>
      </defs>
      <g>
       <use xlink:href="#m57f1c1f72d" x="18" y="189" style="stroke: #000000; stroke-width: 0.8"/>
      </g>
     </g>
     <g id="text_1">
      <!-- 10 -->
      <g transform="translate(7.447656 203.598437)scale(0.1 -0.1)">
       <defs>
        <path id="DejaVuSans-2212" d="M 678 2272 
L 4684 2272 
L 4684 1741 
L 678 1741 
L 678 2272 
z
" transform="scale(0.015625)"/>
        <path id="DejaVuSans-31" d="M 794 531 
L 1825 531 
L 1825 4091 
L 703 3866 
L 703 4441 
L 1819 4666 
L 2450 4666 
L 2450 531 
L 3481 531 
L 3481 0 
L 794 0 
L 794 531 
z
" transform="scale(0.015625)"/>
        <path id="DejaVuSans-30" d="M 2034 4250 
Q 1547 4250 1301 3770 
Q 1056 3291 1056 2328 
Q 1056 1369 1301 889 
Q 1547 409 2034 409 
Q 2525 409 2770 889 
Q 3016 1369 3016 2328 
Q 3016 3291 2770 3770 
Q 2525 4250 2034 4250 
z
M 2034 4750 
Q 2819 4750 3233 4129 
Q 3647 3509 3647 2328 
Q 3647 1150 3233 529 
Q 2819 -91 2034 -91 
Q 1250 -91 836 529 
Q 422 1150 422 2328 
Q 422 3509 836 4129 
Q 1250 4750 2034 4750 
z
" transform="scale(0.015625)"/>
       </defs>
       <use xlink:href="#DejaVuSans-2212"/>
       <use xlink:href="#DejaVuSans-31" x="83.789062"/>
       <use xlink:href="#DejaVuSans-30" x="147.412109"/>
      </g>
     </g>
    </g>
    <g id="xtick_2">
     <g id="line2d_2">
      <g>
       <use xlink:href="#m57f1c1f72d" x="73.8" y="189" style="stroke: #000000; stroke-width: 0.8"/>
      </g>
     </g>
     <g id="text_2">
      <!-- 0 -->
      <g transform="translate(70.61875 203.598437)scale(0.1 -0.1)">
       <use xlink:href="#DejaVuSans-30"/>
      </g>
     </g>
    </g>
    <g id="xtick_3">
     <g id="line2d_3">
      <g>
       <use xlink:href="#m57f1c1f72d" x="129.6" y="189" style="stroke: #000000; stroke-width: 0.8"/>
      </g>
     </g>
     <g id="text_3">
      <!-- 10 -->
      <g transform="translate(123.2375 203.598437)scale(0.1 -0.1)">
       <use xlink:href="#DejaVuSans-31"/>
       <use xlink:href="#DejaVuSans-30" x="63.623047"/>
      </g>
     </g>
    </g>
   </g>
   <g id="matplotlib.axis_2">
    <g id="ytick_1">
     <g id="line2d_4">
      <defs>
       <path id="m74e75083d8" d="M 0 0 
L -3.5 0 
" style="stroke: #000000; stroke-width: 0.8"/>
      </defs>
      <g>
       <use xlink:href="#m74e75083d8" x="18" y="189" style="stroke: #000000; stroke-width: 0.8"/>
      </g>
     </g>
     <g id="text_4">
      <!-- 15 -->
      <g transform="translate(-10.104688 192.799219)scale(0.1 -0.1)">
       <defs>
        <path id="DejaVuSans-35" d="M 691 4666 
L 3169 4666 
L 3169 4134 
L 1269 4134 
L 1269 2991 
Q 1406 3038 1543 3061 
Q 1681 3084 1819 3084 
Q 2600 3084 3056 2656 
Q 3513 2228 3513 1497 
Q 3513 744 3044 326 
Q 2575 -91 1722 -91 
Q 1428 -91 1123 -41 
Q 819 9 494 109 
L 494 744 
Q 775 591 1075 516 
Q 1375 441 1709 441 
Q 2250 441 2565 725 
Q 2881 1009 2881 1497 
Q 2881 1984 2565 2268 
Q 2250 2553 1709 2553 
Q 1456 2553 1204 2497 
Q 953 2441 691 2322 
L 691 4666 
z
" transform="scale(0.015625)"/>
       </defs>
       <use xlink:href="#DejaVuSans-2212"/>
       <use xlink:href="#DejaVuSans-31" x="83.789062"/>
       <use xlink:href="#DejaVuSans-35" x="147.412109"/>
      </g>
     </g>
    </g>
    <g id="ytick_2">
     <g id="line2d_5">
      <g>
       <use xlink:href="#m74e75083d8" x="18" y="161.82" style="stroke: #000000; stroke-width: 0.8"/>
      </g>
     </g>
     <g id="text_5">
      <!-- 10 -->
      <g transform="translate(-10.104688 165.619219)scale(0.1 -0.1)">
       <use xlink:href="#DejaVuSans-2212"/>
       <use xlink:href="#DejaVuSans-31" x="83.789062"/>
       <use xlink:href="#DejaVuSans-30" x="147.412109"/>
      </g>
     </g>
    </g>
    <g id="ytick_3">
     <g id="line2d_6">
      <g>
       <use xlink:href="#m74e75083d8" x="18" y="134.64" style="stroke: #000000; stroke-width: 0.8"/>
      </g>
     </g>
     <g id="text_6">
      <!-- 5 -->
      <g transform="translate(-3.742188 138.439219)scale(0.1 -0.1)">
       <use xlink:href="#DejaVuSans-2212"/>
       <use xlink:href="#DejaVuSans-35" x="83.789062"/>
      </g>
     </g>
    </g>
    <g id="ytick_4">
     <g id="line2d_7">
      <g>
       <use xlink:href="#m74e75083d8" x="18" y="107.46" style="stroke: #000000; stroke-width: 0.8"/>
      </g>
     </g>
     <g id="text_7">
      <!-- 0 -->
      <g transform="translate(4.6375 111.259219)scale(0.1 -0.1)">
       <use xlink:href="#DejaVuSans-30"/>
      </g>
     </g>
    </g>
    <g id="ytick_5">
     <g id="line2d_8">
      <g>
       <use xlink:href="#m74e75083d8" x="18" y="80.28" style="stroke: #000000; stroke-width: 0.8"/>
      </g>
     </g>
     <g id="text_8">
      <!-- 5 -->
      <g transform="translate(4.6375 84.079219)scale(0.1 -0.1)">
       <use xlink:href="#DejaVuSans-35"/>
      </g>
     </g>
    </g>
    <g id="ytick_6">
     <g id="line2d_9">
      <g>
       <use xlink:href="#m74e75083d8" x="18" y="53.1" style="stroke: #000000; stroke-width: 0.8"/>
      </g>
     </g>
     <g id="text_9">
      <!-- 10 -->
      <g transform="translate(-1.725 56.899219)scale(0.1 -0.1)">
       <use xlink:href="#DejaVuSans-31"/>
       <use xlink:href="#DejaVuSans-30" x="63.623047"/>
      </g>
     </g>
    </g>
    <g id="ytick_7">
     <g id="line2d_10">
      <g>
       <use xlink:href="#m74e75083d8" x="18" y="25.92" style="stroke: #000000; stroke-width: 0.8"/>
      </g>
     </g>
     <g id="text_10">
      <!-- 15 -->
      <g transform="translate(-1.725 29.719219)scale(0.1 -0.1)">
       <use xlink:href="#DejaVuSans-31"/>
       <use xlink:href="#DejaVuSans-35" x="63.623047"/>
      </g>
     </g>
    </g>
   </g>
   <g id="patch_3">
    <path d="M 18 189 
L 18 25.92 
" style="fill: none; stroke: #000000; stroke-width: 0.8; stroke-linejoin: miter; stroke-linecap: square"/>
   </g>
   <g id="patch_4">
    <path d="M 129.6 189 
L 129.6 25.92 
" style="fill: none; stroke: #000000; stroke-width: 0.8; stroke-linejoin: miter; stroke-linecap: square"/>
   </g>
   <g id="patch_5">
    <path d="M 18 189 
L 129.6 189 
" style="fill: none; stroke: #000000; stroke-width: 0.8; stroke-linejoin: miter; stroke-linecap: square"/>
   </g>
   <g id="patch_6">
    <path d="M 18 25.92 
L 129.6 25.92 
" style="fill: none; stroke: #000000; stroke-width: 0.8; stroke-linejoin: miter; stroke-linecap: square"/>
   </g>
  </g>
 </g>
 <defs>
  <clipPath id="pd52c93412d">
   <rect x="18" y="25.92" width="111.6" height="163.08"/>
  </clipPath>
 </defs>
</svg>
