<?xml version="1.0" encoding="utf-8" standalone="no"?>
<!DOCTYPE svg PUBLIC "-//W3C//DTD SVG 1.1//EN"
  "http://www.w3.org/Graphics/SVG/1.1/DTD/svg11.dtd">
<svg xmlns:xlink="http://www.w3.org/1999/xlink" width="144pt" height="216pt" viewBox="0 0 144 216" xmlns="http://www.w3.org/2000/svg" version="1.1">
 <metadata>
  <rdf:RDF xmlns:dc="http://purl.org/dc/elements/1.1/" xmlns:cc="http://creativecommons.org/ns#" xmlns:rdf="http://www.w3.org/1999/02/22-rdf-syntax-ns#">
   <cc:Work>
    <dc:type rdf:resource="http://purl.org/dc/dcmitype/StillImage"/>
    <dc:date>2022-06-22T17:24:35.940846</dc:date>
    <dc:format>image/svg+xml</dc:format>
    <dc:creator>
     <cc:Agent>
      <dc:title>Matplotlib v3.5.1, https://matplotlib.org/</dc:title>
     </cc:Agent>
    </dc:creator>
   </cc:Work>
  </rdf:RDF>
 </metadata>
 <defs>
  <style type="text/css">*{stroke-linejoin: round; stroke-linecap: butt}</style>
 </defs>
 <g id="figure_1">
  <g id="patch_1">
   <path d="M 0 216 
L 144 216 
L 144 0 
L 0 0 
L 0 216 
z
" style="fill: none"/>
  </g>
  <g id="axes_1">
   <g id="patch_2">
    <path d="M 18 189 
L 129.6 189 
L 129.6 25.92 
L 18 25.92 
z
" style="fill: #ffffff"/>
   </g>
   <g id="PathCollection_1">
    <defs>
     <path id="m01f7bcc09d" d="M 0 2.738613 
C 0.726289 2.738613 1.422928 2.450055 1.936492 1.936492 
C 2.450055 1.422928 2.738613 0.726289 2.738613 0 
C 2.738613 -0.726289 2.450055 -1.422928 1.936492 -1.936492 
C 1.422928 -2.450055 0.726289 -2.738613 0 -2.738613 
C -0.726289 -2.738613 -1.422928 -2.450055 -1.936492 -1.936492 
C -2.450055 -1.422928 -2.738613 -0.726289 -2.738613 0 
C -2.738613 0.726289 -2.450055 1.422928 -1.936492 1.936492 
C -1.422928 2.450055 -0.726289 2.738613 0 2.738613 
z
" style="stroke: #ff0000; stroke-width: 1.75"/>
    </defs>
    <g clip-path="url(#p5302528e9d)">
     <use xlink:href="#m01f7bcc09d" x="80.775" y="83.92143" style="fill: #ff0000; stroke: #ff0000; stroke-width: 1.75"/>
     <use xlink:href="#m01f7bcc09d" x="59.85" y="95.690715" style="fill: #ff0000; stroke: #ff0000; stroke-width: 1.75"/>
     <use xlink:href="#m01f7bcc09d" x="66.825" y="107.46" style="fill: #ff0000; stroke: #ff0000; stroke-width: 1.75"/>
     <use xlink:href="#m01f7bcc09d" x="80.775" y="107.46" style="fill: #ff0000; stroke: #ff0000; stroke-width: 1.75"/>
     <use xlink:href="#m01f7bcc09d" x="94.725" y="107.46" style="fill: #ff0000; stroke: #ff0000; stroke-width: 1.75"/>
     <use xlink:href="#m01f7bcc09d" x="59.85" y="119.229285" style="fill: #ff0000; stroke: #ff0000; stroke-width: 1.75"/>
     <use xlink:href="#m01f7bcc09d" x="80.775" y="130.99857" style="fill: #ff0000; stroke: #ff0000; stroke-width: 1.75"/>
    </g>
   </g>
   <g id="PathCollection_2">
    <defs>
     <path id="C0_0_c6bd9af8ce" d="M 0 2.738613 
C 0.726289 2.738613 1.422928 2.450055 1.936492 1.936492 
C 2.450055 1.422928 2.738613 0.726289 2.738613 -0 
C 2.738613 -0.726289 2.450055 -1.422928 1.936492 -1.936492 
C 1.422928 -2.450055 0.726289 -2.738613 0 -2.738613 
C -0.726289 -2.738613 -1.422928 -2.450055 -1.936492 -1.936492 
C -2.450055 -1.422928 -2.738613 -0.726289 -2.738613 0 
C -2.738613 0.726289 -2.450055 1.422928 -1.936492 1.936492 
C -1.422928 2.450055 -0.726289 2.738613 0 2.738613 
z
"/>
    </defs>
    <g clip-path="url(#p5302528e9d)">
     <use xlink:href="#C0_0_c6bd9af8ce" x="66.825" y="83.92143" style="fill: none; stroke: #ff0000; stroke-width: 1.75"/>
    </g>
    <g clip-path="url(#p5302528e9d)">
     <use xlink:href="#C0_0_c6bd9af8ce" x="73.8" y="95.690715" style="fill: none; stroke: #ff0000; stroke-width: 1.75"/>
    </g>
    <g clip-path="url(#p5302528e9d)">
     <use xlink:href="#C0_0_c6bd9af8ce" x="87.75" y="95.690715" style="fill: none; stroke: #ff0000; stroke-width: 1.75"/>
    </g>
    <g clip-path="url(#p5302528e9d)">
     <use xlink:href="#C0_0_c6bd9af8ce" x="52.875" y="107.46" style="fill: none; stroke: #ff0000; stroke-width: 1.75"/>
    </g>
    <g clip-path="url(#p5302528e9d)">
     <use xlink:href="#C0_0_c6bd9af8ce" x="73.8" y="119.229285" style="fill: none; stroke: #ff0000; stroke-width: 1.75"/>
    </g>
    <g clip-path="url(#p5302528e9d)">
     <use xlink:href="#C0_0_c6bd9af8ce" x="87.75" y="119.229285" style="fill: none; stroke: #ff0000; stroke-width: 1.75"/>
    </g>
    <g clip-path="url(#p5302528e9d)">
     <use xlink:href="#C0_0_c6bd9af8ce" x="66.825" y="130.99857" style="fill: none; stroke: #ff0000; stroke-width: 1.75"/>
    </g>
   </g>
   <g id="PathCollection_3">
    <path d="M 108.652979 66.582504 
C 108.652979 66.582504 108.652979 66.582504 108.652979 66.582504 
C 108.652979 66.582504 108.652979 66.582504 108.652979 66.582504 
C 108.652979 66.582504 108.652979 66.582504 108.652979 66.582504 
C 108.652979 66.582504 108.652979 66.582504 108.652979 66.582504 
C 108.652979 66.582504 108.652979 66.582504 108.652979 66.582504 
C 108.652979 66.582504 108.652979 66.582504 108.652979 66.582504 
C 108.652979 66.582504 108.652979 66.582504 108.652979 66.582504 
C 108.652979 66.582504 108.652979 66.582504 108.652979 66.582504 
z
" clip-path="url(#p5302528e9d)" style="stroke: #000000"/>
    <path d="M 104.852912 54.620928 
C 104.852912 54.620928 104.852912 54.620928 104.852912 54.620928 
C 104.852912 54.620928 104.852912 54.620928 104.852912 54.620928 
C 104.852912 54.620928 104.852912 54.620928 104.852912 54.620928 
C 104.852912 54.620928 104.852912 54.620928 104.852912 54.620928 
C 104.852912 54.620928 104.852912 54.620928 104.852912 54.620928 
C 104.852912 54.620928 104.852912 54.620928 104.852912 54.620928 
C 104.852912 54.620928 104.852912 54.620928 104.852912 54.620928 
C 104.852912 54.620928 104.852912 54.620928 104.852912 54.620928 
z
" clip-path="url(#p5302528e9d)" style="stroke: #000000"/>
    <path d="M 116.456217 131.306549 
C 116.87554 131.306549 117.277745 131.13995 117.574251 130.843444 
C 117.870758 130.546938 118.037356 130.144733 118.037356 129.72541 
C 118.037356 129.306087 117.870758 128.903882 117.574251 128.607376 
C 117.277745 128.31087 116.87554 128.144271 116.456217 128.144271 
C 116.036895 128.144271 115.63469 128.31087 115.338184 128.607376 
C 115.041677 128.903882 114.875079 129.306087 114.875079 129.72541 
C 114.875079 130.144733 115.041677 130.546938 115.338184 130.843444 
C 115.63469 131.13995 116.036895 131.306549 116.456217 131.306549 
z
" clip-path="url(#p5302528e9d)" style="stroke: #000000"/>
    <path d="M 117.487813 127.085338 
C 117.790777 127.085338 118.081372 126.96497 118.2956 126.750742 
C 118.509827 126.536515 118.630196 126.245919 118.630196 125.942955 
C 118.630196 125.639992 118.509827 125.349396 118.2956 125.135169 
C 118.081372 124.920941 117.790777 124.800573 117.487813 124.800573 
C 117.18485 124.800573 116.894254 124.920941 116.680027 125.135169 
C 116.465799 125.349396 116.345431 125.639992 116.345431 125.942955 
C 116.345431 126.245919 116.465799 126.536515 116.680027 126.750742 
C 116.894254 126.96497 117.18485 127.085338 117.487813 127.085338 
z
" clip-path="url(#p5302528e9d)" style="stroke: #000000"/>
    <path d="M 110.089984 112.085015 
C 110.509307 112.085015 110.911512 111.918416 111.208018 111.62191 
C 111.504524 111.325404 111.671123 110.923199 111.671123 110.503876 
C 111.671123 110.084553 111.504524 109.682348 111.208018 109.385842 
C 110.911512 109.089336 110.509307 108.922737 110.089984 108.922737 
C 109.670661 108.922737 109.268456 109.089336 108.97195 109.385842 
C 108.675444 109.682348 108.508845 110.084553 108.508845 110.503876 
C 108.508845 110.923199 108.675444 111.325404 108.97195 111.62191 
C 109.268456 111.918416 109.670661 112.085015 110.089984 112.085015 
z
" clip-path="url(#p5302528e9d)" style="stroke: #000000"/>
    <path d="M 107.017918 95.345198 
C 107.017918 95.345198 107.017918 95.345198 107.017918 95.345198 
C 107.017918 95.345198 107.017918 95.345198 107.017918 95.345198 
C 107.017918 95.345198 107.017918 95.345198 107.017918 95.345198 
C 107.017918 95.345198 107.017918 95.345198 107.017918 95.345198 
C 107.017918 95.345198 107.017918 95.345198 107.017918 95.345198 
C 107.017918 95.345198 107.017918 95.345198 107.017918 95.345198 
C 107.017918 95.345198 107.017918 95.345198 107.017918 95.345198 
C 107.017918 95.345198 107.017918 95.345198 107.017918 95.345198 
z
" clip-path="url(#p5302528e9d)" style="stroke: #000000"/>
    <path d="M 106.385681 90.17647 
C 106.805004 90.17647 107.207209 90.009871 107.503715 89.713365 
C 107.800221 89.416859 107.96682 89.014654 107.96682 88.595331 
C 107.96682 88.176008 107.800221 87.773803 107.503715 87.477297 
C 107.207209 87.180791 106.805004 87.014192 106.385681 87.014192 
C 105.966358 87.014192 105.564153 87.180791 105.267647 87.477297 
C 104.971141 87.773803 104.804542 88.176008 104.804542 88.595331 
C 104.804542 89.014654 104.971141 89.416859 105.267647 89.713365 
C 105.564153 90.009871 105.966358 90.17647 106.385681 90.17647 
z
" clip-path="url(#p5302528e9d)" style="stroke: #000000"/>
    <path d="M 101.075796 81.462579 
C 101.075796 81.462579 101.075796 81.462579 101.075796 81.462579 
C 101.075796 81.462579 101.075796 81.462579 101.075796 81.462579 
C 101.075796 81.462579 101.075796 81.462579 101.075796 81.462579 
C 101.075796 81.462579 101.075796 81.462579 101.075796 81.462579 
C 101.075796 81.462579 101.075796 81.462579 101.075796 81.462579 
C 101.075796 81.462579 101.075796 81.462579 101.075796 81.462579 
C 101.075796 81.462579 101.075796 81.462579 101.075796 81.462579 
C 101.075796 81.462579 101.075796 81.462579 101.075796 81.462579 
z
" clip-path="url(#p5302528e9d)" style="stroke: #000000"/>
    <path d="M 98.273786 67.316544 
C 98.273786 67.316544 98.273786 67.316544 98.273786 67.316544 
C 98.273786 67.316544 98.273786 67.316544 98.273786 67.316544 
C 98.273786 67.316544 98.273786 67.316544 98.273786 67.316544 
C 98.273786 67.316544 98.273786 67.316544 98.273786 67.316544 
C 98.273786 67.316544 98.273786 67.316544 98.273786 67.316544 
C 98.273786 67.316544 98.273786 67.316544 98.273786 67.316544 
C 98.273786 67.316544 98.273786 67.316544 98.273786 67.316544 
C 98.273786 67.316544 98.273786 67.316544 98.273786 67.316544 
z
" clip-path="url(#p5302528e9d)" style="stroke: #000000"/>
    <path d="M 98.286604 54.503443 
C 98.286604 54.503443 98.286604 54.503443 98.286604 54.503443 
C 98.286604 54.503443 98.286604 54.503443 98.286604 54.503443 
C 98.286604 54.503443 98.286604 54.503443 98.286604 54.503443 
C 98.286604 54.503443 98.286604 54.503443 98.286604 54.503443 
C 98.286604 54.503443 98.286604 54.503443 98.286604 54.503443 
C 98.286604 54.503443 98.286604 54.503443 98.286604 54.503443 
C 98.286604 54.503443 98.286604 54.503443 98.286604 54.503443 
C 98.286604 54.503443 98.286604 54.503443 98.286604 54.503443 
z
" clip-path="url(#p5302528e9d)" style="stroke: #000000"/>
    <path d="M 94.535591 48.513421 
C 94.888638 48.513421 95.227273 48.373154 95.476915 48.123512 
C 95.726557 47.87387 95.866824 47.535235 95.866824 47.182188 
C 95.866824 46.829141 95.726557 46.490506 95.476915 46.240864 
C 95.227273 45.991222 94.888638 45.850955 94.535591 45.850955 
C 94.182544 45.850955 93.843909 45.991222 93.594267 46.240864 
C 93.344625 46.490506 93.204358 46.829141 93.204358 47.182188 
C 93.204358 47.535235 93.344625 47.87387 93.594267 48.123512 
C 93.843909 48.373154 94.182544 48.513421 94.535591 48.513421 
z
" clip-path="url(#p5302528e9d)" style="stroke: #000000"/>
    <path d="M 90.169179 36.536911 
C 90.169179 36.536911 90.169179 36.536911 90.169179 36.536911 
C 90.169179 36.536911 90.169179 36.536911 90.169179 36.536911 
C 90.169179 36.536911 90.169179 36.536911 90.169179 36.536911 
C 90.169179 36.536911 90.169179 36.536911 90.169179 36.536911 
C 90.169179 36.536911 90.169179 36.536911 90.169179 36.536911 
C 90.169179 36.536911 90.169179 36.536911 90.169179 36.536911 
C 90.169179 36.536911 90.169179 36.536911 90.169179 36.536911 
C 90.169179 36.536911 90.169179 36.536911 90.169179 36.536911 
z
" clip-path="url(#p5302528e9d)" style="stroke: #000000"/>
    <path d="M 120.825039 173.744373 
C 120.825039 173.744373 120.825039 173.744373 120.825039 173.744373 
C 120.825039 173.744373 120.825039 173.744373 120.825039 173.744373 
C 120.825039 173.744373 120.825039 173.744373 120.825039 173.744373 
C 120.825039 173.744373 120.825039 173.744373 120.825039 173.744373 
C 120.825039 173.744373 120.825039 173.744373 120.825039 173.744373 
C 120.825039 173.744373 120.825039 173.744373 120.825039 173.744373 
C 120.825039 173.744373 120.825039 173.744373 120.825039 173.744373 
C 120.825039 173.744373 120.825039 173.744373 120.825039 173.744373 
z
" clip-path="url(#p5302528e9d)" style="stroke: #000000"/>
    <path d="M 120.943917 163.132633 
C 120.943917 163.132633 120.943917 163.132633 120.943917 163.132633 
C 120.943917 163.132633 120.943917 163.132633 120.943917 163.132633 
C 120.943917 163.132633 120.943917 163.132633 120.943917 163.132633 
C 120.943917 163.132633 120.943917 163.132633 120.943917 163.132633 
C 120.943917 163.132633 120.943917 163.132633 120.943917 163.132633 
C 120.943917 163.132633 120.943917 163.132633 120.943917 163.132633 
C 120.943917 163.132633 120.943917 163.132633 120.943917 163.132633 
C 120.943917 163.132633 120.943917 163.132633 120.943917 163.132633 
z
" clip-path="url(#p5302528e9d)" style="stroke: #000000"/>
    <path d="M 121.430403 154.581908 
C 121.430403 154.581908 121.430403 154.581908 121.430403 154.581908 
C 121.430403 154.581908 121.430403 154.581908 121.430403 154.581908 
C 121.430403 154.581908 121.430403 154.581908 121.430403 154.581908 
C 121.430403 154.581908 121.430403 154.581908 121.430403 154.581908 
C 121.430403 154.581908 121.430403 154.581908 121.430403 154.581908 
C 121.430403 154.581908 121.430403 154.581908 121.430403 154.581908 
C 121.430403 154.581908 121.430403 154.581908 121.430403 154.581908 
C 121.430403 154.581908 121.430403 154.581908 121.430403 154.581908 
z
" clip-path="url(#p5302528e9d)" style="stroke: #000000"/>
    <path d="M 116.034697 143.835754 
C 116.034697 143.835754 116.034697 143.835754 116.034697 143.835754 
C 116.034697 143.835754 116.034697 143.835754 116.034697 143.835754 
C 116.034697 143.835754 116.034697 143.835754 116.034697 143.835754 
C 116.034697 143.835754 116.034697 143.835754 116.034697 143.835754 
C 116.034697 143.835754 116.034697 143.835754 116.034697 143.835754 
C 116.034697 143.835754 116.034697 143.835754 116.034697 143.835754 
C 116.034697 143.835754 116.034697 143.835754 116.034697 143.835754 
C 116.034697 143.835754 116.034697 143.835754 116.034697 143.835754 
z
" clip-path="url(#p5302528e9d)" style="stroke: #000000"/>
    <path d="M 105.181149 128.053907 
C 105.181149 128.053907 105.181149 128.053907 105.181149 128.053907 
C 105.181149 128.053907 105.181149 128.053907 105.181149 128.053907 
C 105.181149 128.053907 105.181149 128.053907 105.181149 128.053907 
C 105.181149 128.053907 105.181149 128.053907 105.181149 128.053907 
C 105.181149 128.053907 105.181149 128.053907 105.181149 128.053907 
C 105.181149 128.053907 105.181149 128.053907 105.181149 128.053907 
C 105.181149 128.053907 105.181149 128.053907 105.181149 128.053907 
C 105.181149 128.053907 105.181149 128.053907 105.181149 128.053907 
z
" clip-path="url(#p5302528e9d)" style="stroke: #000000"/>
    <path d="M 108.377314 124.075821 
C 108.377314 124.075821 108.377314 124.075821 108.377314 124.075821 
C 108.377314 124.075821 108.377314 124.075821 108.377314 124.075821 
C 108.377314 124.075821 108.377314 124.075821 108.377314 124.075821 
C 108.377314 124.075821 108.377314 124.075821 108.377314 124.075821 
C 108.377314 124.075821 108.377314 124.075821 108.377314 124.075821 
C 108.377314 124.075821 108.377314 124.075821 108.377314 124.075821 
C 108.377314 124.075821 108.377314 124.075821 108.377314 124.075821 
C 108.377314 124.075821 108.377314 124.075821 108.377314 124.075821 
z
" clip-path="url(#p5302528e9d)" style="stroke: #000000"/>
    <path d="M 103.444094 111.886912 
C 103.444094 111.886912 103.444094 111.886912 103.444094 111.886912 
C 103.444094 111.886912 103.444094 111.886912 103.444094 111.886912 
C 103.444094 111.886912 103.444094 111.886912 103.444094 111.886912 
C 103.444094 111.886912 103.444094 111.886912 103.444094 111.886912 
C 103.444094 111.886912 103.444094 111.886912 103.444094 111.886912 
C 103.444094 111.886912 103.444094 111.886912 103.444094 111.886912 
C 103.444094 111.886912 103.444094 111.886912 103.444094 111.886912 
C 103.444094 111.886912 103.444094 111.886912 103.444094 111.886912 
z
" clip-path="url(#p5302528e9d)" style="stroke: #000000"/>
    <path d="M 103.529562 98.855896 
C 103.529562 98.855896 103.529562 98.855896 103.529562 98.855896 
C 103.529562 98.855896 103.529562 98.855896 103.529562 98.855896 
C 103.529562 98.855896 103.529562 98.855896 103.529562 98.855896 
C 103.529562 98.855896 103.529562 98.855896 103.529562 98.855896 
C 103.529562 98.855896 103.529562 98.855896 103.529562 98.855896 
C 103.529562 98.855896 103.529562 98.855896 103.529562 98.855896 
C 103.529562 98.855896 103.529562 98.855896 103.529562 98.855896 
C 103.529562 98.855896 103.529562 98.855896 103.529562 98.855896 
z
" clip-path="url(#p5302528e9d)" style="stroke: #000000"/>
    <path d="M 90.537771 94.931912 
C 90.957094 94.931912 91.359299 94.765313 91.655805 94.468807 
C 91.952311 94.172301 92.11891 93.770096 92.11891 93.350773 
C 92.11891 92.93145 91.952311 92.529245 91.655805 92.232739 
C 91.359299 91.936233 90.957094 91.769634 90.537771 91.769634 
C 90.118448 91.769634 89.716243 91.936233 89.419737 92.232739 
C 89.123231 92.529245 88.956632 92.93145 88.956632 93.350773 
C 88.956632 93.770096 89.123231 94.172301 89.419737 94.468807 
C 89.716243 94.765313 90.118448 94.931912 90.537771 94.931912 
z
" clip-path="url(#p5302528e9d)" style="stroke: #000000"/>
    <path d="M 90.272501 82.512799 
C 90.692086 82.512799 91.094542 82.346096 91.391233 82.049405 
C 91.687925 81.752714 91.854627 81.350258 91.854627 80.930673 
C 91.854627 80.511088 91.687925 80.108632 91.391233 79.811941 
C 91.094542 79.51525 90.692086 79.348547 90.272501 79.348547 
C 89.852917 79.348547 89.45046 79.51525 89.153769 79.811941 
C 88.857078 80.108632 88.690375 80.511088 88.690375 80.930673 
C 88.690375 81.350258 88.857078 81.752714 89.153769 82.049405 
C 89.45046 82.346096 89.852917 82.512799 90.272501 82.512799 
z
" clip-path="url(#p5302528e9d)" style="stroke: #000000"/>
    <path d="M 89.375435 69.845558 
C 89.375435 69.845558 89.375435 69.845558 89.375435 69.845558 
C 89.375435 69.845558 89.375435 69.845558 89.375435 69.845558 
C 89.375435 69.845558 89.375435 69.845558 89.375435 69.845558 
C 89.375435 69.845558 89.375435 69.845558 89.375435 69.845558 
C 89.375435 69.845558 89.375435 69.845558 89.375435 69.845558 
C 89.375435 69.845558 89.375435 69.845558 89.375435 69.845558 
C 89.375435 69.845558 89.375435 69.845558 89.375435 69.845558 
C 89.375435 69.845558 89.375435 69.845558 89.375435 69.845558 
z
" clip-path="url(#p5302528e9d)" style="stroke: #000000"/>
    <path d="M 85.259046 61.548007 
C 85.259046 61.548007 85.259046 61.548007 85.259046 61.548007 
C 85.259046 61.548007 85.259046 61.548007 85.259046 61.548007 
C 85.259046 61.548007 85.259046 61.548007 85.259046 61.548007 
C 85.259046 61.548007 85.259046 61.548007 85.259046 61.548007 
C 85.259046 61.548007 85.259046 61.548007 85.259046 61.548007 
C 85.259046 61.548007 85.259046 61.548007 85.259046 61.548007 
C 85.259046 61.548007 85.259046 61.548007 85.259046 61.548007 
C 85.259046 61.548007 85.259046 61.548007 85.259046 61.548007 
z
" clip-path="url(#p5302528e9d)" style="stroke: #000000"/>
    <path d="M 84.688497 52.955579 
C 84.688497 52.955579 84.688497 52.955579 84.688497 52.955579 
C 84.688497 52.955579 84.688497 52.955579 84.688497 52.955579 
C 84.688497 52.955579 84.688497 52.955579 84.688497 52.955579 
C 84.688497 52.955579 84.688497 52.955579 84.688497 52.955579 
C 84.688497 52.955579 84.688497 52.955579 84.688497 52.955579 
C 84.688497 52.955579 84.688497 52.955579 84.688497 52.955579 
C 84.688497 52.955579 84.688497 52.955579 84.688497 52.955579 
C 84.688497 52.955579 84.688497 52.955579 84.688497 52.955579 
z
" clip-path="url(#p5302528e9d)" style="stroke: #000000"/>
    <path d="M 74.643824 43.081721 
C 74.996872 43.081721 75.335506 42.941453 75.585148 42.691811 
C 75.83479 42.442169 75.975057 42.103535 75.975057 41.750488 
C 75.975057 41.397441 75.83479 41.058806 75.585148 40.809164 
C 75.335506 40.559522 74.996872 40.419255 74.643824 40.419255 
C 74.290777 40.419255 73.952143 40.559522 73.702501 40.809164 
C 73.452859 41.058806 73.312592 41.397441 73.312592 41.750488 
C 73.312592 42.103535 73.452859 42.442169 73.702501 42.691811 
C 73.952143 42.941453 74.290777 43.081721 74.643824 43.081721 
z
" clip-path="url(#p5302528e9d)" style="stroke: #000000"/>
    <path d="M 74.933338 32.14801 
C 74.933338 32.14801 74.933338 32.14801 74.933338 32.14801 
C 74.933338 32.14801 74.933338 32.14801 74.933338 32.14801 
C 74.933338 32.14801 74.933338 32.14801 74.933338 32.14801 
C 74.933338 32.14801 74.933338 32.14801 74.933338 32.14801 
C 74.933338 32.14801 74.933338 32.14801 74.933338 32.14801 
C 74.933338 32.14801 74.933338 32.14801 74.933338 32.14801 
C 74.933338 32.14801 74.933338 32.14801 74.933338 32.14801 
C 74.933338 32.14801 74.933338 32.14801 74.933338 32.14801 
z
" clip-path="url(#p5302528e9d)" style="stroke: #000000"/>
    <path d="M 116.177844 178.967683 
C 116.530891 178.967683 116.869525 178.827416 117.119167 178.577774 
C 117.368809 178.328132 117.509077 177.989497 117.509077 177.63645 
C 117.509077 177.283403 117.368809 176.944769 117.119167 176.695127 
C 116.869525 176.445485 116.530891 176.305218 116.177844 176.305218 
C 115.824797 176.305218 115.486162 176.445485 115.23652 176.695127 
C 114.986878 176.944769 114.846611 177.283403 114.846611 177.63645 
C 114.846611 177.989497 114.986878 178.328132 115.23652 178.577774 
C 115.486162 178.827416 115.824797 178.967683 116.177844 178.967683 
z
" clip-path="url(#p5302528e9d)" style="stroke: #000000"/>
    <path d="M 110.078793 165.793515 
C 110.078793 165.793515 110.078793 165.793515 110.078793 165.793515 
C 110.078793 165.793515 110.078793 165.793515 110.078793 165.793515 
C 110.078793 165.793515 110.078793 165.793515 110.078793 165.793515 
C 110.078793 165.793515 110.078793 165.793515 110.078793 165.793515 
C 110.078793 165.793515 110.078793 165.793515 110.078793 165.793515 
C 110.078793 165.793515 110.078793 165.793515 110.078793 165.793515 
C 110.078793 165.793515 110.078793 165.793515 110.078793 165.793515 
C 110.078793 165.793515 110.078793 165.793515 110.078793 165.793515 
z
" clip-path="url(#p5302528e9d)" style="stroke: #000000"/>
    <path d="M 109.929018 159.855341 
C 110.282065 159.855341 110.6207 159.715074 110.870342 159.465432 
C 111.119984 159.21579 111.260251 158.877155 111.260251 158.524108 
C 111.260251 158.171061 111.119984 157.832426 110.870342 157.582784 
C 110.6207 157.333142 110.282065 157.192875 109.929018 157.192875 
C 109.575971 157.192875 109.237336 157.333142 108.987694 157.582784 
C 108.738052 157.832426 108.597785 158.171061 108.597785 158.524108 
C 108.597785 158.877155 108.738052 159.21579 108.987694 159.465432 
C 109.237336 159.715074 109.575971 159.855341 109.929018 159.855341 
z
" clip-path="url(#p5302528e9d)" style="stroke: #000000"/>
    <path d="M 95.891024 150.882494 
C 95.891024 150.882494 95.891024 150.882494 95.891024 150.882494 
C 95.891024 150.882494 95.891024 150.882494 95.891024 150.882494 
C 95.891024 150.882494 95.891024 150.882494 95.891024 150.882494 
C 95.891024 150.882494 95.891024 150.882494 95.891024 150.882494 
C 95.891024 150.882494 95.891024 150.882494 95.891024 150.882494 
C 95.891024 150.882494 95.891024 150.882494 95.891024 150.882494 
C 95.891024 150.882494 95.891024 150.882494 95.891024 150.882494 
C 95.891024 150.882494 95.891024 150.882494 95.891024 150.882494 
z
" clip-path="url(#p5302528e9d)" style="stroke: #000000"/>
    <path d="M 99.741588 135.929669 
C 100.103516 135.929669 100.450668 135.785874 100.70659 135.529952 
C 100.962512 135.274031 101.106307 134.926878 101.106307 134.56495 
C 101.106307 134.203023 100.962512 133.85587 100.70659 133.599948 
C 100.450668 133.344027 100.103516 133.200231 99.741588 133.200231 
C 99.37966 133.200231 99.032507 133.344027 98.776586 133.599948 
C 98.520664 133.85587 98.376869 134.203023 98.376869 134.56495 
C 98.376869 134.926878 98.520664 135.274031 98.776586 135.529952 
C 99.032507 135.785874 99.37966 135.929669 99.741588 135.929669 
z
" clip-path="url(#p5302528e9d)" style="stroke: #000000"/>
    <path d="M 92.923918 127.553575 
C 92.923918 127.553575 92.923918 127.553575 92.923918 127.553575 
C 92.923918 127.553575 92.923918 127.553575 92.923918 127.553575 
C 92.923918 127.553575 92.923918 127.553575 92.923918 127.553575 
C 92.923918 127.553575 92.923918 127.553575 92.923918 127.553575 
C 92.923918 127.553575 92.923918 127.553575 92.923918 127.553575 
C 92.923918 127.553575 92.923918 127.553575 92.923918 127.553575 
C 92.923918 127.553575 92.923918 127.553575 92.923918 127.553575 
C 92.923918 127.553575 92.923918 127.553575 92.923918 127.553575 
z
" clip-path="url(#p5302528e9d)" style="stroke: #000000"/>
    <path d="M 92.356617 119.058605 
C 92.617575 119.058605 92.867881 118.954925 93.052406 118.770399 
C 93.236932 118.585874 93.340612 118.335568 93.340612 118.07461 
C 93.340612 117.813651 93.236932 117.563346 93.052406 117.378821 
C 92.867881 117.194295 92.617575 117.090615 92.356617 117.090615 
C 92.095659 117.090615 91.845353 117.194295 91.660828 117.378821 
C 91.476302 117.563346 91.372622 117.813651 91.372622 118.07461 
C 91.372622 118.335568 91.476302 118.585874 91.660828 118.770399 
C 91.845353 118.954925 92.095659 119.058605 92.356617 119.058605 
z
" clip-path="url(#p5302528e9d)" style="stroke: #000000"/>
    <path d="M 93.342472 106.641993 
C 93.342472 106.641993 93.342472 106.641993 93.342472 106.641993 
C 93.342472 106.641993 93.342472 106.641993 93.342472 106.641993 
C 93.342472 106.641993 93.342472 106.641993 93.342472 106.641993 
C 93.342472 106.641993 93.342472 106.641993 93.342472 106.641993 
C 93.342472 106.641993 93.342472 106.641993 93.342472 106.641993 
C 93.342472 106.641993 93.342472 106.641993 93.342472 106.641993 
C 93.342472 106.641993 93.342472 106.641993 93.342472 106.641993 
C 93.342472 106.641993 93.342472 106.641993 93.342472 106.641993 
z
" clip-path="url(#p5302528e9d)" style="stroke: #000000"/>
    <path d="M 84.443781 98.072199 
C 84.863366 98.072199 85.265822 97.905496 85.562514 97.608805 
C 85.859205 97.312114 86.025908 96.909658 86.025908 96.490073 
C 86.025908 96.070488 85.859205 95.668032 85.562514 95.371341 
C 85.265822 95.074649 84.863366 94.907947 84.443781 94.907947 
C 84.024197 94.907947 83.621741 95.074649 83.325049 95.371341 
C 83.028358 95.668032 82.861655 96.070488 82.861655 96.490073 
C 82.861655 96.909658 83.028358 97.312114 83.325049 97.608805 
C 83.621741 97.905496 84.024197 98.072199 84.443781 98.072199 
z
" clip-path="url(#p5302528e9d)" style="stroke: #000000"/>
    <path d="M 84.889205 83.23877 
C 84.889205 83.23877 84.889205 83.23877 84.889205 83.23877 
C 84.889205 83.23877 84.889205 83.23877 84.889205 83.23877 
C 84.889205 83.23877 84.889205 83.23877 84.889205 83.23877 
C 84.889205 83.23877 84.889205 83.23877 84.889205 83.23877 
C 84.889205 83.23877 84.889205 83.23877 84.889205 83.23877 
C 84.889205 83.23877 84.889205 83.23877 84.889205 83.23877 
C 84.889205 83.23877 84.889205 83.23877 84.889205 83.23877 
C 84.889205 83.23877 84.889205 83.23877 84.889205 83.23877 
z
" clip-path="url(#p5302528e9d)" style="stroke: #000000"/>
    <path d="M 80.234025 75.428244 
C 80.234025 75.428244 80.234025 75.428244 80.234025 75.428244 
C 80.234025 75.428244 80.234025 75.428244 80.234025 75.428244 
C 80.234025 75.428244 80.234025 75.428244 80.234025 75.428244 
C 80.234025 75.428244 80.234025 75.428244 80.234025 75.428244 
C 80.234025 75.428244 80.234025 75.428244 80.234025 75.428244 
C 80.234025 75.428244 80.234025 75.428244 80.234025 75.428244 
C 80.234025 75.428244 80.234025 75.428244 80.234025 75.428244 
C 80.234025 75.428244 80.234025 75.428244 80.234025 75.428244 
z
" clip-path="url(#p5302528e9d)" style="stroke: #000000"/>
    <path d="M 76.958825 65.499418 
C 76.958825 65.499418 76.958825 65.499418 76.958825 65.499418 
C 76.958825 65.499418 76.958825 65.499418 76.958825 65.499418 
C 76.958825 65.499418 76.958825 65.499418 76.958825 65.499418 
C 76.958825 65.499418 76.958825 65.499418 76.958825 65.499418 
C 76.958825 65.499418 76.958825 65.499418 76.958825 65.499418 
C 76.958825 65.499418 76.958825 65.499418 76.958825 65.499418 
C 76.958825 65.499418 76.958825 65.499418 76.958825 65.499418 
C 76.958825 65.499418 76.958825 65.499418 76.958825 65.499418 
z
" clip-path="url(#p5302528e9d)" style="stroke: #000000"/>
    <path d="M 70.606147 51.731229 
C 70.606147 51.731229 70.606147 51.731229 70.606147 51.731229 
C 70.606147 51.731229 70.606147 51.731229 70.606147 51.731229 
C 70.606147 51.731229 70.606147 51.731229 70.606147 51.731229 
C 70.606147 51.731229 70.606147 51.731229 70.606147 51.731229 
C 70.606147 51.731229 70.606147 51.731229 70.606147 51.731229 
C 70.606147 51.731229 70.606147 51.731229 70.606147 51.731229 
C 70.606147 51.731229 70.606147 51.731229 70.606147 51.731229 
C 70.606147 51.731229 70.606147 51.731229 70.606147 51.731229 
z
" clip-path="url(#p5302528e9d)" style="stroke: #000000"/>
    <path d="M 66.768693 41.402352 
C 66.768693 41.402352 66.768693 41.402352 66.768693 41.402352 
C 66.768693 41.402352 66.768693 41.402352 66.768693 41.402352 
C 66.768693 41.402352 66.768693 41.402352 66.768693 41.402352 
C 66.768693 41.402352 66.768693 41.402352 66.768693 41.402352 
C 66.768693 41.402352 66.768693 41.402352 66.768693 41.402352 
C 66.768693 41.402352 66.768693 41.402352 66.768693 41.402352 
C 66.768693 41.402352 66.768693 41.402352 66.768693 41.402352 
C 66.768693 41.402352 66.768693 41.402352 66.768693 41.402352 
z
" clip-path="url(#p5302528e9d)" style="stroke: #000000"/>
    <path d="M 64.476642 33.230985 
C 64.476642 33.230985 64.476642 33.230985 64.476642 33.230985 
C 64.476642 33.230985 64.476642 33.230985 64.476642 33.230985 
C 64.476642 33.230985 64.476642 33.230985 64.476642 33.230985 
C 64.476642 33.230985 64.476642 33.230985 64.476642 33.230985 
C 64.476642 33.230985 64.476642 33.230985 64.476642 33.230985 
C 64.476642 33.230985 64.476642 33.230985 64.476642 33.230985 
C 64.476642 33.230985 64.476642 33.230985 64.476642 33.230985 
C 64.476642 33.230985 64.476642 33.230985 64.476642 33.230985 
z
" clip-path="url(#p5302528e9d)" style="stroke: #000000"/>
    <path d="M 107.37883 180.84605 
C 107.731877 180.84605 108.070512 180.705783 108.320154 180.456141 
C 108.569796 180.206499 108.710063 179.867864 108.710063 179.514817 
C 108.710063 179.16177 108.569796 178.823135 108.320154 178.573493 
C 108.070512 178.323852 107.731877 178.183584 107.37883 178.183584 
C 107.025783 178.183584 106.687148 178.323852 106.437506 178.573493 
C 106.187864 178.823135 106.047597 179.16177 106.047597 179.514817 
C 106.047597 179.867864 106.187864 180.206499 106.437506 180.456141 
C 106.687148 180.705783 107.025783 180.84605 107.37883 180.84605 
z
" clip-path="url(#p5302528e9d)" style="stroke: #000000"/>
    <path d="M 100.376373 175.914194 
C 100.72942 175.914194 101.068054 175.773927 101.317696 175.524285 
C 101.567338 175.274643 101.707605 174.936009 101.707605 174.582962 
C 101.707605 174.229915 101.567338 173.89128 101.317696 173.641638 
C 101.068054 173.391996 100.72942 173.251729 100.376373 173.251729 
C 100.023326 173.251729 99.684691 173.391996 99.435049 173.641638 
C 99.185407 173.89128 99.04514 174.229915 99.04514 174.582962 
C 99.04514 174.936009 99.185407 175.274643 99.435049 175.524285 
C 99.684691 175.773927 100.023326 175.914194 100.376373 175.914194 
z
" clip-path="url(#p5302528e9d)" style="stroke: #000000"/>
    <path d="M 93.406605 158.137527 
C 93.406605 158.137527 93.406605 158.137527 93.406605 158.137527 
C 93.406605 158.137527 93.406605 158.137527 93.406605 158.137527 
C 93.406605 158.137527 93.406605 158.137527 93.406605 158.137527 
C 93.406605 158.137527 93.406605 158.137527 93.406605 158.137527 
C 93.406605 158.137527 93.406605 158.137527 93.406605 158.137527 
C 93.406605 158.137527 93.406605 158.137527 93.406605 158.137527 
C 93.406605 158.137527 93.406605 158.137527 93.406605 158.137527 
C 93.406605 158.137527 93.406605 158.137527 93.406605 158.137527 
z
" clip-path="url(#p5302528e9d)" style="stroke: #000000"/>
    <path d="M 89.205271 148.805549 
C 89.205271 148.805549 89.205271 148.805549 89.205271 148.805549 
C 89.205271 148.805549 89.205271 148.805549 89.205271 148.805549 
C 89.205271 148.805549 89.205271 148.805549 89.205271 148.805549 
C 89.205271 148.805549 89.205271 148.805549 89.205271 148.805549 
C 89.205271 148.805549 89.205271 148.805549 89.205271 148.805549 
C 89.205271 148.805549 89.205271 148.805549 89.205271 148.805549 
C 89.205271 148.805549 89.205271 148.805549 89.205271 148.805549 
C 89.205271 148.805549 89.205271 148.805549 89.205271 148.805549 
z
" clip-path="url(#p5302528e9d)" style="stroke: #000000"/>
    <path d="M 91.023788 145.118533 
C 91.443111 145.118533 91.845316 144.951935 92.141822 144.655429 
C 92.438328 144.358922 92.604927 143.956718 92.604927 143.537395 
C 92.604927 143.118072 92.438328 142.715867 92.141822 142.419361 
C 91.845316 142.122855 91.443111 141.956256 91.023788 141.956256 
C 90.604465 141.956256 90.20226 142.122855 89.905754 142.419361 
C 89.609248 142.715867 89.442649 143.118072 89.442649 143.537395 
C 89.442649 143.956718 89.609248 144.358922 89.905754 144.655429 
C 90.20226 144.951935 90.604465 145.118533 91.023788 145.118533 
z
" clip-path="url(#p5302528e9d)" style="stroke: #000000"/>
    <path d="M 84.516405 130.484387 
C 84.610168 130.484387 84.700104 130.447134 84.766405 130.380833 
C 84.832706 130.314533 84.869958 130.224597 84.869958 130.130833 
C 84.869958 130.03707 84.832706 129.947134 84.766405 129.880833 
C 84.700104 129.814533 84.610168 129.77728 84.516405 129.77728 
C 84.422641 129.77728 84.332706 129.814533 84.266405 129.880833 
C 84.200104 129.947134 84.162851 130.03707 84.162851 130.130833 
C 84.162851 130.224597 84.200104 130.314533 84.266405 130.380833 
C 84.332706 130.447134 84.422641 130.484387 84.516405 130.484387 
z
" clip-path="url(#p5302528e9d)" style="stroke: #000000"/>
    <path d="M 81.70149 124.001492 
C 82.120813 124.001492 82.523018 123.834893 82.819524 123.538387 
C 83.11603 123.241881 83.282629 122.839676 83.282629 122.420353 
C 83.282629 122.00103 83.11603 121.598825 82.819524 121.302319 
C 82.523018 121.005813 82.120813 120.839215 81.70149 120.839215 
C 81.282167 120.839215 80.879962 121.005813 80.583456 121.302319 
C 80.28695 121.598825 80.120351 122.00103 80.120351 122.420353 
C 80.120351 122.839676 80.28695 123.241881 80.583456 123.538387 
C 80.879962 123.834893 81.282167 124.001492 81.70149 124.001492 
z
" clip-path="url(#p5302528e9d)" style="stroke: #000000"/>
    <path d="M 77.817751 109.149352 
C 78.237074 109.149352 78.639279 108.982754 78.935785 108.686247 
C 79.232291 108.389741 79.39889 107.987536 79.39889 107.568213 
C 79.39889 107.148891 79.232291 106.746686 78.935785 106.450179 
C 78.639279 106.153673 78.237074 105.987075 77.817751 105.987075 
C 77.398428 105.987075 76.996223 106.153673 76.699717 106.450179 
C 76.403211 106.746686 76.236612 107.148891 76.236612 107.568213 
C 76.236612 107.987536 76.403211 108.389741 76.699717 108.686247 
C 76.996223 108.982754 77.398428 109.149352 77.817751 109.149352 
z
" clip-path="url(#p5302528e9d)" style="stroke: #000000"/>
    <path d="M 72.778911 96.130925 
C 72.911512 96.130925 73.038701 96.078241 73.132464 95.984478 
C 73.226228 95.890714 73.278911 95.763526 73.278911 95.630925 
C 73.278911 95.498323 73.226228 95.371135 73.132464 95.277371 
C 73.038701 95.183608 72.911512 95.130925 72.778911 95.130925 
C 72.646309 95.130925 72.519121 95.183608 72.425357 95.277371 
C 72.331594 95.371135 72.278911 95.498323 72.278911 95.630925 
C 72.278911 95.763526 72.331594 95.890714 72.425357 95.984478 
C 72.519121 96.078241 72.646309 96.130925 72.778911 96.130925 
z
" clip-path="url(#p5302528e9d)" style="stroke: #000000"/>
    <path d="M 71.751968 94.386483 
C 72.171552 94.386483 72.574009 94.21978 72.8707 93.923089 
C 73.167391 93.626398 73.334094 93.223942 73.334094 92.804357 
C 73.334094 92.384772 73.167391 91.982316 72.8707 91.685625 
C 72.574009 91.388933 72.171552 91.222231 71.751968 91.222231 
C 71.332383 91.222231 70.929927 91.388933 70.633236 91.685625 
C 70.336544 91.982316 70.169842 92.384772 70.169842 92.804357 
C 70.169842 93.223942 70.336544 93.626398 70.633236 93.923089 
C 70.929927 94.21978 71.332383 94.386483 71.751968 94.386483 
z
" clip-path="url(#p5302528e9d)" style="stroke: #000000"/>
    <path d="M 70.627557 82.152313 
C 71.047141 82.152313 71.449598 81.985611 71.746289 81.688919 
C 72.04298 81.392228 72.209683 80.989772 72.209683 80.570187 
C 72.209683 80.150603 72.04298 79.748146 71.746289 79.451455 
C 71.449598 79.154764 71.047141 78.988061 70.627557 78.988061 
C 70.207972 78.988061 69.805516 79.154764 69.508825 79.451455 
C 69.212133 79.748146 69.045431 80.150603 69.045431 80.570187 
C 69.045431 80.989772 69.212133 81.392228 69.508825 81.688919 
C 69.805516 81.985611 70.207972 82.152313 70.627557 82.152313 
z
" clip-path="url(#p5302528e9d)" style="stroke: #000000"/>
    <path d="M 60.466653 69.530428 
C 60.778908 69.530428 61.078416 69.406368 61.299214 69.18557 
C 61.520012 68.964772 61.644072 68.665264 61.644072 68.353009 
C 61.644072 68.040753 61.520012 67.741245 61.299214 67.520447 
C 61.078416 67.299649 60.778908 67.175589 60.466653 67.175589 
C 60.154397 67.175589 59.854889 67.299649 59.634091 67.520447 
C 59.413293 67.741245 59.289233 68.040753 59.289233 68.353009 
C 59.289233 68.665264 59.413293 68.964772 59.634091 69.18557 
C 59.854889 69.406368 60.154397 69.530428 60.466653 69.530428 
z
" clip-path="url(#p5302528e9d)" style="stroke: #000000"/>
    <path d="M 56.266753 58.495846 
C 56.649961 58.495846 57.017526 58.343596 57.288495 58.072627 
C 57.559464 57.801658 57.711714 57.434093 57.711714 57.050885 
C 57.711714 56.667677 57.559464 56.300113 57.288495 56.029144 
C 57.017526 55.758175 56.649961 55.605924 56.266753 55.605924 
C 55.883545 55.605924 55.515981 55.758175 55.245012 56.029144 
C 54.974043 56.300113 54.821792 56.667677 54.821792 57.050885 
C 54.821792 57.434093 54.974043 57.801658 55.245012 58.072627 
C 55.515981 58.343596 55.883545 58.495846 56.266753 58.495846 
z
" clip-path="url(#p5302528e9d)" style="stroke: #000000"/>
    <path d="M 57.502572 49.678718 
C 57.502572 49.678718 57.502572 49.678718 57.502572 49.678718 
C 57.502572 49.678718 57.502572 49.678718 57.502572 49.678718 
C 57.502572 49.678718 57.502572 49.678718 57.502572 49.678718 
C 57.502572 49.678718 57.502572 49.678718 57.502572 49.678718 
C 57.502572 49.678718 57.502572 49.678718 57.502572 49.678718 
C 57.502572 49.678718 57.502572 49.678718 57.502572 49.678718 
C 57.502572 49.678718 57.502572 49.678718 57.502572 49.678718 
C 57.502572 49.678718 57.502572 49.678718 57.502572 49.678718 
z
" clip-path="url(#p5302528e9d)" style="stroke: #000000"/>
    <path d="M 55.294946 39.089373 
C 55.294946 39.089373 55.294946 39.089373 55.294946 39.089373 
C 55.294946 39.089373 55.294946 39.089373 55.294946 39.089373 
C 55.294946 39.089373 55.294946 39.089373 55.294946 39.089373 
C 55.294946 39.089373 55.294946 39.089373 55.294946 39.089373 
C 55.294946 39.089373 55.294946 39.089373 55.294946 39.089373 
C 55.294946 39.089373 55.294946 39.089373 55.294946 39.089373 
C 55.294946 39.089373 55.294946 39.089373 55.294946 39.089373 
C 55.294946 39.089373 55.294946 39.089373 55.294946 39.089373 
z
" clip-path="url(#p5302528e9d)" style="stroke: #000000"/>
    <path d="M 90.423849 174.119836 
C 90.423849 174.119836 90.423849 174.119836 90.423849 174.119836 
C 90.423849 174.119836 90.423849 174.119836 90.423849 174.119836 
C 90.423849 174.119836 90.423849 174.119836 90.423849 174.119836 
C 90.423849 174.119836 90.423849 174.119836 90.423849 174.119836 
C 90.423849 174.119836 90.423849 174.119836 90.423849 174.119836 
C 90.423849 174.119836 90.423849 174.119836 90.423849 174.119836 
C 90.423849 174.119836 90.423849 174.119836 90.423849 174.119836 
C 90.423849 174.119836 90.423849 174.119836 90.423849 174.119836 
z
" clip-path="url(#p5302528e9d)" style="stroke: #000000"/>
    <path d="M 88.758692 165.724706 
C 89.113915 165.724706 89.454636 165.583575 89.705816 165.332394 
C 89.956996 165.081214 90.098128 164.740493 90.098128 164.38527 
C 90.098128 164.030048 89.956996 163.689327 89.705816 163.438146 
C 89.454636 163.186966 89.113915 163.045835 88.758692 163.045835 
C 88.40347 163.045835 88.062748 163.186966 87.811568 163.438146 
C 87.560388 163.689327 87.419257 164.030048 87.419257 164.38527 
C 87.419257 164.740493 87.560388 165.081214 87.811568 165.332394 
C 88.062748 165.583575 88.40347 165.724706 88.758692 165.724706 
z
" clip-path="url(#p5302528e9d)" style="stroke: #000000"/>
    <path d="M 79.500081 155.929728 
C 79.919404 155.929728 80.321609 155.76313 80.618115 155.466624 
C 80.914621 155.170118 81.08122 154.767913 81.08122 154.34859 
C 81.08122 153.929267 80.914621 153.527062 80.618115 153.230556 
C 80.321609 152.93405 79.919404 152.767451 79.500081 152.767451 
C 79.080758 152.767451 78.678553 152.93405 78.382047 153.230556 
C 78.085541 153.527062 77.918943 153.929267 77.918943 154.34859 
C 77.918943 154.767913 78.085541 155.170118 78.382047 155.466624 
C 78.678553 155.76313 79.080758 155.929728 79.500081 155.929728 
z
" clip-path="url(#p5302528e9d)" style="stroke: #000000"/>
    <path d="M 78.127833 147.62436 
C 78.547155 147.62436 78.94936 147.457761 79.245867 147.161255 
C 79.542373 146.864749 79.708971 146.462544 79.708971 146.043221 
C 79.708971 145.623898 79.542373 145.221693 79.245867 144.925187 
C 78.94936 144.628681 78.547155 144.462082 78.127833 144.462082 
C 77.70851 144.462082 77.306305 144.628681 77.009799 144.925187 
C 76.713293 145.221693 76.546694 145.623898 76.546694 146.043221 
C 76.546694 146.462544 76.713293 146.864749 77.009799 147.161255 
C 77.306305 147.457761 77.70851 147.62436 78.127833 147.62436 
z
" clip-path="url(#p5302528e9d)" style="stroke: #000000"/>
    <path d="M 74.056593 131.063259 
C 74.475916 131.063259 74.878121 130.89666 75.174627 130.600154 
C 75.471133 130.303648 75.637732 129.901443 75.637732 129.48212 
C 75.637732 129.062797 75.471133 128.660592 75.174627 128.364086 
C 74.878121 128.06758 74.475916 127.900981 74.056593 127.900981 
C 73.63727 127.900981 73.235065 128.06758 72.938559 128.364086 
C 72.642053 128.660592 72.475454 129.062797 72.475454 129.48212 
C 72.475454 129.901443 72.642053 130.303648 72.938559 130.600154 
C 73.235065 130.89666 73.63727 131.063259 74.056593 131.063259 
z
" clip-path="url(#p5302528e9d)" style="stroke: #000000"/>
    <path d="M 75.548054 125.301301 
C 75.862817 125.301301 76.164731 125.176244 76.387303 124.953673 
C 76.609874 124.731101 76.734931 124.429187 76.734931 124.114424 
C 76.734931 123.79966 76.609874 123.497746 76.387303 123.275175 
C 76.164731 123.052603 75.862817 122.927546 75.548054 122.927546 
C 75.23329 122.927546 74.931376 123.052603 74.708805 123.275175 
C 74.486233 123.497746 74.361176 123.79966 74.361176 124.114424 
C 74.361176 124.429187 74.486233 124.731101 74.708805 124.953673 
C 74.931376 125.176244 75.23329 125.301301 75.548054 125.301301 
z
" clip-path="url(#p5302528e9d)" style="stroke: #000000"/>
    <path d="M 70.78483 116.575358 
C 71.204415 116.575358 71.606871 116.408655 71.903562 116.111964 
C 72.200253 115.815272 72.366956 115.412816 72.366956 114.993232 
C 72.366956 114.573647 72.200253 114.171191 71.903562 113.874499 
C 71.606871 113.577808 71.204415 113.411105 70.78483 113.411105 
C 70.365245 113.411105 69.962789 113.577808 69.666098 113.874499 
C 69.369407 114.171191 69.202704 114.573647 69.202704 114.993232 
C 69.202704 115.412816 69.369407 115.815272 69.666098 116.111964 
C 69.962789 116.408655 70.365245 116.575358 70.78483 116.575358 
z
" clip-path="url(#p5302528e9d)" style="stroke: #000000"/>
    <path d="M 66.830852 105.694383 
C 67.250175 105.694383 67.65238 105.527784 67.948886 105.231278 
C 68.245392 104.934772 68.411991 104.532567 68.411991 104.113244 
C 68.411991 103.693921 68.245392 103.291716 67.948886 102.99521 
C 67.65238 102.698704 67.250175 102.532105 66.830852 102.532105 
C 66.411529 102.532105 66.009324 102.698704 65.712818 102.99521 
C 65.416312 103.291716 65.249713 103.693921 65.249713 104.113244 
C 65.249713 104.532567 65.416312 104.934772 65.712818 105.231278 
C 66.009324 105.527784 66.411529 105.694383 66.830852 105.694383 
z
" clip-path="url(#p5302528e9d)" style="stroke: #000000"/>
    <path d="M 63.18123 96.475889 
C 63.600814 96.475889 64.003271 96.309187 64.299962 96.012495 
C 64.596653 95.715804 64.763356 95.313348 64.763356 94.893763 
C 64.763356 94.474179 64.596653 94.071722 64.299962 93.775031 
C 64.003271 93.47834 63.600814 93.311637 63.18123 93.311637 
C 62.761645 93.311637 62.359189 93.47834 62.062498 93.775031 
C 61.765806 94.071722 61.599104 94.474179 61.599104 94.893763 
C 61.599104 95.313348 61.765806 95.715804 62.062498 96.012495 
C 62.359189 96.309187 62.761645 96.475889 63.18123 96.475889 
z
" clip-path="url(#p5302528e9d)" style="stroke: #000000"/>
    <path d="M 60.460277 82.035303 
C 60.8796 82.035303 61.281805 81.868704 61.578311 81.572198 
C 61.874817 81.275692 62.041415 80.873487 62.041415 80.454164 
C 62.041415 80.034841 61.874817 79.632636 61.578311 79.33613 
C 61.281805 79.039624 60.8796 78.873025 60.460277 78.873025 
C 60.040954 78.873025 59.638749 79.039624 59.342243 79.33613 
C 59.045737 79.632636 58.879138 80.034841 58.879138 80.454164 
C 58.879138 80.873487 59.045737 81.275692 59.342243 81.572198 
C 59.638749 81.868704 60.040954 82.035303 60.460277 82.035303 
z
" clip-path="url(#p5302528e9d)" style="stroke: #000000"/>
    <path d="M 56.923978 73.656302 
C 56.923978 73.656302 56.923978 73.656302 56.923978 73.656302 
C 56.923978 73.656302 56.923978 73.656302 56.923978 73.656302 
C 56.923978 73.656302 56.923978 73.656302 56.923978 73.656302 
C 56.923978 73.656302 56.923978 73.656302 56.923978 73.656302 
C 56.923978 73.656302 56.923978 73.656302 56.923978 73.656302 
C 56.923978 73.656302 56.923978 73.656302 56.923978 73.656302 
C 56.923978 73.656302 56.923978 73.656302 56.923978 73.656302 
C 56.923978 73.656302 56.923978 73.656302 56.923978 73.656302 
z
" clip-path="url(#p5302528e9d)" style="stroke: #000000"/>
    <path d="M 51.05114 67.522693 
C 51.326146 67.522693 51.589925 67.413433 51.784383 67.218974 
C 51.978841 67.024516 52.088102 66.760737 52.088102 66.485731 
C 52.088102 66.210726 51.978841 65.946946 51.784383 65.752488 
C 51.589925 65.55803 51.326146 65.448769 51.05114 65.448769 
C 50.776134 65.448769 50.512355 65.55803 50.317897 65.752488 
C 50.123439 65.946946 50.014178 66.210726 50.014178 66.485731 
C 50.014178 66.760737 50.123439 67.024516 50.317897 67.218974 
C 50.512355 67.413433 50.776134 67.522693 51.05114 67.522693 
z
" clip-path="url(#p5302528e9d)" style="stroke: #000000"/>
    <path d="M 46.670852 49.167491 
C 46.670852 49.167491 46.670852 49.167491 46.670852 49.167491 
C 46.670852 49.167491 46.670852 49.167491 46.670852 49.167491 
C 46.670852 49.167491 46.670852 49.167491 46.670852 49.167491 
C 46.670852 49.167491 46.670852 49.167491 46.670852 49.167491 
C 46.670852 49.167491 46.670852 49.167491 46.670852 49.167491 
C 46.670852 49.167491 46.670852 49.167491 46.670852 49.167491 
C 46.670852 49.167491 46.670852 49.167491 46.670852 49.167491 
C 46.670852 49.167491 46.670852 49.167491 46.670852 49.167491 
z
" clip-path="url(#p5302528e9d)" style="stroke: #000000"/>
    <path d="M 80.031521 171.352013 
C 80.031521 171.352013 80.031521 171.352013 80.031521 171.352013 
C 80.031521 171.352013 80.031521 171.352013 80.031521 171.352013 
C 80.031521 171.352013 80.031521 171.352013 80.031521 171.352013 
C 80.031521 171.352013 80.031521 171.352013 80.031521 171.352013 
C 80.031521 171.352013 80.031521 171.352013 80.031521 171.352013 
C 80.031521 171.352013 80.031521 171.352013 80.031521 171.352013 
C 80.031521 171.352013 80.031521 171.352013 80.031521 171.352013 
C 80.031521 171.352013 80.031521 171.352013 80.031521 171.352013 
z
" clip-path="url(#p5302528e9d)" style="stroke: #000000"/>
    <path d="M 71.508217 162.299158 
C 71.508217 162.299158 71.508217 162.299158 71.508217 162.299158 
C 71.508217 162.299158 71.508217 162.299158 71.508217 162.299158 
C 71.508217 162.299158 71.508217 162.299158 71.508217 162.299158 
C 71.508217 162.299158 71.508217 162.299158 71.508217 162.299158 
C 71.508217 162.299158 71.508217 162.299158 71.508217 162.299158 
C 71.508217 162.299158 71.508217 162.299158 71.508217 162.299158 
C 71.508217 162.299158 71.508217 162.299158 71.508217 162.299158 
C 71.508217 162.299158 71.508217 162.299158 71.508217 162.299158 
z
" clip-path="url(#p5302528e9d)" style="stroke: #000000"/>
    <path d="M 69.722846 149.273115 
C 69.722846 149.273115 69.722846 149.273115 69.722846 149.273115 
C 69.722846 149.273115 69.722846 149.273115 69.722846 149.273115 
C 69.722846 149.273115 69.722846 149.273115 69.722846 149.273115 
C 69.722846 149.273115 69.722846 149.273115 69.722846 149.273115 
C 69.722846 149.273115 69.722846 149.273115 69.722846 149.273115 
C 69.722846 149.273115 69.722846 149.273115 69.722846 149.273115 
C 69.722846 149.273115 69.722846 149.273115 69.722846 149.273115 
C 69.722846 149.273115 69.722846 149.273115 69.722846 149.273115 
z
" clip-path="url(#p5302528e9d)" style="stroke: #000000"/>
    <path d="M 60.213932 138.652534 
C 60.633255 138.652534 61.03546 138.485936 61.331966 138.18943 
C 61.628472 137.892923 61.795071 137.490718 61.795071 137.071396 
C 61.795071 136.652073 61.628472 136.249868 61.331966 135.953362 
C 61.03546 135.656856 60.633255 135.490257 60.213932 135.490257 
C 59.794609 135.490257 59.392404 135.656856 59.095898 135.953362 
C 58.799392 136.249868 58.632793 136.652073 58.632793 137.071396 
C 58.632793 137.490718 58.799392 137.892923 59.095898 138.18943 
C 59.392404 138.485936 59.794609 138.652534 60.213932 138.652534 
z
" clip-path="url(#p5302528e9d)" style="stroke: #000000"/>
    <path d="M 62.04945 128.696224 
C 62.04945 128.696224 62.04945 128.696224 62.04945 128.696224 
C 62.04945 128.696224 62.04945 128.696224 62.04945 128.696224 
C 62.04945 128.696224 62.04945 128.696224 62.04945 128.696224 
C 62.04945 128.696224 62.04945 128.696224 62.04945 128.696224 
C 62.04945 128.696224 62.04945 128.696224 62.04945 128.696224 
C 62.04945 128.696224 62.04945 128.696224 62.04945 128.696224 
C 62.04945 128.696224 62.04945 128.696224 62.04945 128.696224 
C 62.04945 128.696224 62.04945 128.696224 62.04945 128.696224 
z
" clip-path="url(#p5302528e9d)" style="stroke: #000000"/>
    <path d="M 55.792926 116.827049 
C 56.212249 116.827049 56.614454 116.66045 56.91096 116.363944 
C 57.207466 116.067438 57.374065 115.665233 57.374065 115.24591 
C 57.374065 114.826587 57.207466 114.424382 56.91096 114.127876 
C 56.614454 113.83137 56.212249 113.664771 55.792926 113.664771 
C 55.373603 113.664771 54.971398 113.83137 54.674892 114.127876 
C 54.378386 114.424382 54.211787 114.826587 54.211787 115.24591 
C 54.211787 115.665233 54.378386 116.067438 54.674892 116.363944 
C 54.971398 116.66045 55.373603 116.827049 55.792926 116.827049 
z
" clip-path="url(#p5302528e9d)" style="stroke: #000000"/>
    <path d="M 51.400343 106.454892 
C 51.788601 106.454892 52.161009 106.300636 52.435549 106.026096 
C 52.710089 105.751556 52.864345 105.379148 52.864345 104.99089 
C 52.864345 104.602632 52.710089 104.230223 52.435549 103.955684 
C 52.161009 103.681144 51.788601 103.526887 51.400343 103.526887 
C 51.012085 103.526887 50.639677 103.681144 50.365137 103.955684 
C 50.090597 104.230223 49.93634 104.602632 49.93634 104.99089 
C 49.93634 105.379148 50.090597 105.751556 50.365137 106.026096 
C 50.639677 106.300636 51.012085 106.454892 51.400343 106.454892 
z
" clip-path="url(#p5302528e9d)" style="stroke: #000000"/>
    <path d="M 46.331838 96.242398 
C 46.749844 96.242398 47.150786 96.076322 47.446362 95.780747 
C 47.741937 95.485172 47.908012 95.08423 47.908012 94.666223 
C 47.908012 94.248217 47.741937 93.847275 47.446362 93.5517 
C 47.150786 93.256125 46.749844 93.090049 46.331838 93.090049 
C 45.913832 93.090049 45.512889 93.256125 45.217314 93.5517 
C 44.921739 93.847275 44.755663 94.248217 44.755663 94.666223 
C 44.755663 95.08423 44.921739 95.485172 45.217314 95.780747 
C 45.512889 96.076322 45.913832 96.242398 46.331838 96.242398 
z
" clip-path="url(#p5302528e9d)" style="stroke: #000000"/>
    <path d="M 47.471054 85.895577 
C 47.471054 85.895577 47.471054 85.895577 47.471054 85.895577 
C 47.471054 85.895577 47.471054 85.895577 47.471054 85.895577 
C 47.471054 85.895577 47.471054 85.895577 47.471054 85.895577 
C 47.471054 85.895577 47.471054 85.895577 47.471054 85.895577 
C 47.471054 85.895577 47.471054 85.895577 47.471054 85.895577 
C 47.471054 85.895577 47.471054 85.895577 47.471054 85.895577 
C 47.471054 85.895577 47.471054 85.895577 47.471054 85.895577 
C 47.471054 85.895577 47.471054 85.895577 47.471054 85.895577 
z
" clip-path="url(#p5302528e9d)" style="stroke: #000000"/>
    <path d="M 44.406465 76.200516 
C 44.406465 76.200516 44.406465 76.200516 44.406465 76.200516 
C 44.406465 76.200516 44.406465 76.200516 44.406465 76.200516 
C 44.406465 76.200516 44.406465 76.200516 44.406465 76.200516 
C 44.406465 76.200516 44.406465 76.200516 44.406465 76.200516 
C 44.406465 76.200516 44.406465 76.200516 44.406465 76.200516 
C 44.406465 76.200516 44.406465 76.200516 44.406465 76.200516 
C 44.406465 76.200516 44.406465 76.200516 44.406465 76.200516 
C 44.406465 76.200516 44.406465 76.200516 44.406465 76.200516 
z
" clip-path="url(#p5302528e9d)" style="stroke: #000000"/>
    <path d="M 35.9023 63.473827 
C 35.9023 63.473827 35.9023 63.473827 35.9023 63.473827 
C 35.9023 63.473827 35.9023 63.473827 35.9023 63.473827 
C 35.9023 63.473827 35.9023 63.473827 35.9023 63.473827 
C 35.9023 63.473827 35.9023 63.473827 35.9023 63.473827 
C 35.9023 63.473827 35.9023 63.473827 35.9023 63.473827 
C 35.9023 63.473827 35.9023 63.473827 35.9023 63.473827 
C 35.9023 63.473827 35.9023 63.473827 35.9023 63.473827 
C 35.9023 63.473827 35.9023 63.473827 35.9023 63.473827 
z
" clip-path="url(#p5302528e9d)" style="stroke: #000000"/>
    <path d="M 38.231676 55.103855 
C 38.231676 55.103855 38.231676 55.103855 38.231676 55.103855 
C 38.231676 55.103855 38.231676 55.103855 38.231676 55.103855 
C 38.231676 55.103855 38.231676 55.103855 38.231676 55.103855 
C 38.231676 55.103855 38.231676 55.103855 38.231676 55.103855 
C 38.231676 55.103855 38.231676 55.103855 38.231676 55.103855 
C 38.231676 55.103855 38.231676 55.103855 38.231676 55.103855 
C 38.231676 55.103855 38.231676 55.103855 38.231676 55.103855 
C 38.231676 55.103855 38.231676 55.103855 38.231676 55.103855 
z
" clip-path="url(#p5302528e9d)" style="stroke: #000000"/>
    <path d="M 62.752268 169.747928 
C 63.105315 169.747928 63.44395 169.607661 63.693592 169.358019 
C 63.943234 169.108377 64.083501 168.769742 64.083501 168.416695 
C 64.083501 168.063648 63.943234 167.725013 63.693592 167.475371 
C 63.44395 167.225729 63.105315 167.085462 62.752268 167.085462 
C 62.399221 167.085462 62.060586 167.225729 61.810944 167.475371 
C 61.561302 167.725013 61.421035 168.063648 61.421035 168.416695 
C 61.421035 168.769742 61.561302 169.108377 61.810944 169.358019 
C 62.060586 169.607661 62.399221 169.747928 62.752268 169.747928 
z
" clip-path="url(#p5302528e9d)" style="stroke: #000000"/>
    <path d="M 58.693181 162.150149 
C 58.693181 162.150149 58.693181 162.150149 58.693181 162.150149 
C 58.693181 162.150149 58.693181 162.150149 58.693181 162.150149 
C 58.693181 162.150149 58.693181 162.150149 58.693181 162.150149 
C 58.693181 162.150149 58.693181 162.150149 58.693181 162.150149 
C 58.693181 162.150149 58.693181 162.150149 58.693181 162.150149 
C 58.693181 162.150149 58.693181 162.150149 58.693181 162.150149 
C 58.693181 162.150149 58.693181 162.150149 58.693181 162.150149 
C 58.693181 162.150149 58.693181 162.150149 58.693181 162.150149 
z
" clip-path="url(#p5302528e9d)" style="stroke: #000000"/>
    <path d="M 57.495802 153.587685 
C 57.878321 153.587685 58.245225 153.435708 58.515708 153.165226 
C 58.78619 152.894744 58.938166 152.52784 58.938166 152.145321 
C 58.938166 151.762801 58.78619 151.395897 58.515708 151.125415 
C 58.245225 150.854933 57.878321 150.702956 57.495802 150.702956 
C 57.113283 150.702956 56.746379 150.854933 56.475896 151.125415 
C 56.205414 151.395897 56.053438 151.762801 56.053438 152.145321 
C 56.053438 152.52784 56.205414 152.894744 56.475896 153.165226 
C 56.746379 153.435708 57.113283 153.587685 57.495802 153.587685 
z
" clip-path="url(#p5302528e9d)" style="stroke: #000000"/>
    <path d="M 50.577994 138.404384 
C 50.577994 138.404384 50.577994 138.404384 50.577994 138.404384 
C 50.577994 138.404384 50.577994 138.404384 50.577994 138.404384 
C 50.577994 138.404384 50.577994 138.404384 50.577994 138.404384 
C 50.577994 138.404384 50.577994 138.404384 50.577994 138.404384 
C 50.577994 138.404384 50.577994 138.404384 50.577994 138.404384 
C 50.577994 138.404384 50.577994 138.404384 50.577994 138.404384 
C 50.577994 138.404384 50.577994 138.404384 50.577994 138.404384 
C 50.577994 138.404384 50.577994 138.404384 50.577994 138.404384 
z
" clip-path="url(#p5302528e9d)" style="stroke: #000000"/>
    <path d="M 53.481815 133.914599 
C 53.901138 133.914599 54.303343 133.748001 54.599849 133.451495 
C 54.896355 133.154989 55.062954 132.752784 55.062954 132.333461 
C 55.062954 131.914138 54.896355 131.511933 54.599849 131.215427 
C 54.303343 130.918921 53.901138 130.752322 53.481815 130.752322 
C 53.062492 130.752322 52.660287 130.918921 52.363781 131.215427 
C 52.067275 131.511933 51.900676 131.914138 51.900676 132.333461 
C 51.900676 132.752784 52.067275 133.154989 52.363781 133.451495 
C 52.660287 133.748001 53.062492 133.914599 53.481815 133.914599 
z
" clip-path="url(#p5302528e9d)" style="stroke: #000000"/>
    <path d="M 44.526535 122.833372 
C 44.920604 122.833372 45.298586 122.676807 45.577235 122.398158 
C 45.855884 122.119509 46.012449 121.741527 46.012449 121.347458 
C 46.012449 120.953389 45.855884 120.575407 45.577235 120.296758 
C 45.298586 120.01811 44.920604 119.861544 44.526535 119.861544 
C 44.132466 119.861544 43.754484 120.01811 43.475835 120.296758 
C 43.197187 120.575407 43.040621 120.953389 43.040621 121.347458 
C 43.040621 121.741527 43.197187 122.119509 43.475835 122.398158 
C 43.754484 122.676807 44.132466 122.833372 44.526535 122.833372 
z
" clip-path="url(#p5302528e9d)" style="stroke: #000000"/>
    <path d="M 41.030213 109.020684 
C 41.449536 109.020684 41.851741 108.854085 42.148247 108.557579 
C 42.444753 108.261073 42.611352 107.858868 42.611352 107.439545 
C 42.611352 107.020222 42.444753 106.618017 42.148247 106.321511 
C 41.851741 106.025005 41.449536 105.858406 41.030213 105.858406 
C 40.61089 105.858406 40.208685 106.025005 39.912179 106.321511 
C 39.615673 106.618017 39.449074 107.020222 39.449074 107.439545 
C 39.449074 107.858868 39.615673 108.261073 39.912179 108.557579 
C 40.208685 108.854085 40.61089 109.020684 41.030213 109.020684 
z
" clip-path="url(#p5302528e9d)" style="stroke: #000000"/>
    <path d="M 41.934577 102.767571 
C 42.3539 102.767571 42.756105 102.600973 43.052611 102.304467 
C 43.349117 102.007961 43.515716 101.605756 43.515716 101.186433 
C 43.515716 100.76711 43.349117 100.364905 43.052611 100.068399 
C 42.756105 99.771893 42.3539 99.605294 41.934577 99.605294 
C 41.515254 99.605294 41.113049 99.771893 40.816543 100.068399 
C 40.520037 100.364905 40.353438 100.76711 40.353438 101.186433 
C 40.353438 101.605756 40.520037 102.007961 40.816543 102.304467 
C 41.113049 102.600973 41.515254 102.767571 41.934577 102.767571 
z
" clip-path="url(#p5302528e9d)" style="stroke: #000000"/>
    <path d="M 37.163745 87.900899 
C 37.468089 87.900899 37.760009 87.779982 37.975212 87.564779 
C 38.190416 87.349575 38.311333 87.057656 38.311333 86.753312 
C 38.311333 86.448968 38.190416 86.157049 37.975212 85.941845 
C 37.760009 85.726642 37.468089 85.605725 37.163745 85.605725 
C 36.859402 85.605725 36.567482 85.726642 36.352279 85.941845 
C 36.137075 86.157049 36.016158 86.448968 36.016158 86.753312 
C 36.016158 87.057656 36.137075 87.349575 36.352279 87.564779 
C 36.567482 87.779982 36.859402 87.900899 37.163745 87.900899 
z
" clip-path="url(#p5302528e9d)" style="stroke: #000000"/>
    <path d="M 53.516209 162.94608 
C 53.516209 162.94608 53.516209 162.94608 53.516209 162.94608 
C 53.516209 162.94608 53.516209 162.94608 53.516209 162.94608 
C 53.516209 162.94608 53.516209 162.94608 53.516209 162.94608 
C 53.516209 162.94608 53.516209 162.94608 53.516209 162.94608 
C 53.516209 162.94608 53.516209 162.94608 53.516209 162.94608 
C 53.516209 162.94608 53.516209 162.94608 53.516209 162.94608 
C 53.516209 162.94608 53.516209 162.94608 53.516209 162.94608 
C 53.516209 162.94608 53.516209 162.94608 53.516209 162.94608 
z
" clip-path="url(#p5302528e9d)" style="stroke: #000000"/>
    <path d="M 45.712528 152.221103 
C 45.712528 152.221103 45.712528 152.221103 45.712528 152.221103 
C 45.712528 152.221103 45.712528 152.221103 45.712528 152.221103 
C 45.712528 152.221103 45.712528 152.221103 45.712528 152.221103 
C 45.712528 152.221103 45.712528 152.221103 45.712528 152.221103 
C 45.712528 152.221103 45.712528 152.221103 45.712528 152.221103 
C 45.712528 152.221103 45.712528 152.221103 45.712528 152.221103 
C 45.712528 152.221103 45.712528 152.221103 45.712528 152.221103 
C 45.712528 152.221103 45.712528 152.221103 45.712528 152.221103 
z
" clip-path="url(#p5302528e9d)" style="stroke: #000000"/>
    <path d="M 40.956792 142.284117 
C 41.376115 142.284117 41.77832 142.117518 42.074826 141.821012 
C 42.371332 141.524506 42.537931 141.122301 42.537931 140.702978 
C 42.537931 140.283655 42.371332 139.881451 42.074826 139.584944 
C 41.77832 139.288438 41.376115 139.12184 40.956792 139.12184 
C 40.537469 139.12184 40.135264 139.288438 39.838758 139.584944 
C 39.542252 139.881451 39.375653 140.283655 39.375653 140.702978 
C 39.375653 141.122301 39.542252 141.524506 39.838758 141.821012 
C 40.135264 142.117518 40.537469 142.284117 40.956792 142.284117 
z
" clip-path="url(#p5302528e9d)" style="stroke: #000000"/>
    <path d="M 39.884866 135.05977 
C 39.884866 135.05977 39.884866 135.05977 39.884866 135.05977 
C 39.884866 135.05977 39.884866 135.05977 39.884866 135.05977 
C 39.884866 135.05977 39.884866 135.05977 39.884866 135.05977 
C 39.884866 135.05977 39.884866 135.05977 39.884866 135.05977 
C 39.884866 135.05977 39.884866 135.05977 39.884866 135.05977 
C 39.884866 135.05977 39.884866 135.05977 39.884866 135.05977 
C 39.884866 135.05977 39.884866 135.05977 39.884866 135.05977 
C 39.884866 135.05977 39.884866 135.05977 39.884866 135.05977 
z
" clip-path="url(#p5302528e9d)" style="stroke: #000000"/>
    <path d="M 37.357624 125.357103 
C 37.357624 125.357103 37.357624 125.357103 37.357624 125.357103 
C 37.357624 125.357103 37.357624 125.357103 37.357624 125.357103 
C 37.357624 125.357103 37.357624 125.357103 37.357624 125.357103 
C 37.357624 125.357103 37.357624 125.357103 37.357624 125.357103 
C 37.357624 125.357103 37.357624 125.357103 37.357624 125.357103 
C 37.357624 125.357103 37.357624 125.357103 37.357624 125.357103 
C 37.357624 125.357103 37.357624 125.357103 37.357624 125.357103 
C 37.357624 125.357103 37.357624 125.357103 37.357624 125.357103 
z
" clip-path="url(#p5302528e9d)" style="stroke: #000000"/>
    <path d="M 33.561599 115.978119 
C 33.561599 115.978119 33.561599 115.978119 33.561599 115.978119 
C 33.561599 115.978119 33.561599 115.978119 33.561599 115.978119 
C 33.561599 115.978119 33.561599 115.978119 33.561599 115.978119 
C 33.561599 115.978119 33.561599 115.978119 33.561599 115.978119 
C 33.561599 115.978119 33.561599 115.978119 33.561599 115.978119 
C 33.561599 115.978119 33.561599 115.978119 33.561599 115.978119 
C 33.561599 115.978119 33.561599 115.978119 33.561599 115.978119 
C 33.561599 115.978119 33.561599 115.978119 33.561599 115.978119 
z
" clip-path="url(#p5302528e9d)" style="stroke: #000000"/>
    <path d="M 42.566546 176.290707 
C 42.566546 176.290707 42.566546 176.290707 42.566546 176.290707 
C 42.566546 176.290707 42.566546 176.290707 42.566546 176.290707 
C 42.566546 176.290707 42.566546 176.290707 42.566546 176.290707 
C 42.566546 176.290707 42.566546 176.290707 42.566546 176.290707 
C 42.566546 176.290707 42.566546 176.290707 42.566546 176.290707 
C 42.566546 176.290707 42.566546 176.290707 42.566546 176.290707 
C 42.566546 176.290707 42.566546 176.290707 42.566546 176.290707 
C 42.566546 176.290707 42.566546 176.290707 42.566546 176.290707 
z
" clip-path="url(#p5302528e9d)" style="stroke: #000000"/>
    <path d="M 39.583453 170.275509 
C 39.583453 170.275509 39.583453 170.275509 39.583453 170.275509 
C 39.583453 170.275509 39.583453 170.275509 39.583453 170.275509 
C 39.583453 170.275509 39.583453 170.275509 39.583453 170.275509 
C 39.583453 170.275509 39.583453 170.275509 39.583453 170.275509 
C 39.583453 170.275509 39.583453 170.275509 39.583453 170.275509 
C 39.583453 170.275509 39.583453 170.275509 39.583453 170.275509 
C 39.583453 170.275509 39.583453 170.275509 39.583453 170.275509 
C 39.583453 170.275509 39.583453 170.275509 39.583453 170.275509 
z
" clip-path="url(#p5302528e9d)" style="stroke: #000000"/>
    <path d="M 37.616107 156.023294 
C 37.616107 156.023294 37.616107 156.023294 37.616107 156.023294 
C 37.616107 156.023294 37.616107 156.023294 37.616107 156.023294 
C 37.616107 156.023294 37.616107 156.023294 37.616107 156.023294 
C 37.616107 156.023294 37.616107 156.023294 37.616107 156.023294 
C 37.616107 156.023294 37.616107 156.023294 37.616107 156.023294 
C 37.616107 156.023294 37.616107 156.023294 37.616107 156.023294 
C 37.616107 156.023294 37.616107 156.023294 37.616107 156.023294 
C 37.616107 156.023294 37.616107 156.023294 37.616107 156.023294 
z
" clip-path="url(#p5302528e9d)" style="stroke: #000000"/>
   </g>
   <g id="matplotlib.axis_1">
    <g id="xtick_1">
     <g id="line2d_1">
      <defs>
       <path id="m76e7185907" d="M 0 0 
L 0 3.5 
" style="stroke: #000000; stroke-width: 0.8"/>
      </defs>
      <g>
       <use xlink:href="#m76e7185907" x="18" y="189" style="stroke: #000000; stroke-width: 0.8"/>
      </g>
     </g>
     <g id="text_1">
      <!-- 10 -->
      <g transform="translate(7.447656 203.598437)scale(0.1 -0.1)">
       <defs>
        <path id="DejaVuSans-2212" d="M 678 2272 
L 4684 2272 
L 4684 1741 
L 678 1741 
L 678 2272 
z
" transform="scale(0.015625)"/>
        <path id="DejaVuSans-31" d="M 794 531 
L 1825 531 
L 1825 4091 
L 703 3866 
L 703 4441 
L 1819 4666 
L 2450 4666 
L 2450 531 
L 3481 531 
L 3481 0 
L 794 0 
L 794 531 
z
" transform="scale(0.015625)"/>
        <path id="DejaVuSans-30" d="M 2034 4250 
Q 1547 4250 1301 3770 
Q 1056 3291 1056 2328 
Q 1056 1369 1301 889 
Q 1547 409 2034 409 
Q 2525 409 2770 889 
Q 3016 1369 3016 2328 
Q 3016 3291 2770 3770 
Q 2525 4250 2034 4250 
z
M 2034 4750 
Q 2819 4750 3233 4129 
Q 3647 3509 3647 2328 
Q 3647 1150 3233 529 
Q 2819 -91 2034 -91 
Q 1250 -91 836 529 
Q 422 1150 422 2328 
Q 422 3509 836 4129 
Q 1250 4750 2034 4750 
z
" transform="scale(0.015625)"/>
       </defs>
       <use xlink:href="#DejaVuSans-2212"/>
       <use xlink:href="#DejaVuSans-31" x="83.789062"/>
       <use xlink:href="#DejaVuSans-30" x="147.412109"/>
      </g>
     </g>
    </g>
    <g id="xtick_2">
     <g id="line2d_2">
      <g>
       <use xlink:href="#m76e7185907" x="73.8" y="189" style="stroke: #000000; stroke-width: 0.8"/>
      </g>
     </g>
     <g id="text_2">
      <!-- 0 -->
      <g transform="translate(70.61875 203.598437)scale(0.1 -0.1)">
       <use xlink:href="#DejaVuSans-30"/>
      </g>
     </g>
    </g>
    <g id="xtick_3">
     <g id="line2d_3">
      <g>
       <use xlink:href="#m76e7185907" x="129.6" y="189" style="stroke: #000000; stroke-width: 0.8"/>
      </g>
     </g>
     <g id="text_3">
      <!-- 10 -->
      <g transform="translate(123.2375 203.598437)scale(0.1 -0.1)">
       <use xlink:href="#DejaVuSans-31"/>
       <use xlink:href="#DejaVuSans-30" x="63.623047"/>
      </g>
     </g>
    </g>
   </g>
   <g id="matplotlib.axis_2">
    <g id="ytick_1">
     <g id="line2d_4">
      <defs>
       <path id="m40eaccf6cd" d="M 0 0 
L -3.5 0 
" style="stroke: #000000; stroke-width: 0.8"/>
      </defs>
      <g>
       <use xlink:href="#m40eaccf6cd" x="18" y="189" style="stroke: #000000; stroke-width: 0.8"/>
      </g>
     </g>
     <g id="text_4">
      <!-- 15 -->
      <g transform="translate(-10.104688 192.799219)scale(0.1 -0.1)">
       <defs>
        <path id="DejaVuSans-35" d="M 691 4666 
L 3169 4666 
L 3169 4134 
L 1269 4134 
L 1269 2991 
Q 1406 3038 1543 3061 
Q 1681 3084 1819 3084 
Q 2600 3084 3056 2656 
Q 3513 2228 3513 1497 
Q 3513 744 3044 326 
Q 2575 -91 1722 -91 
Q 1428 -91 1123 -41 
Q 819 9 494 109 
L 494 744 
Q 775 591 1075 516 
Q 1375 441 1709 441 
Q 2250 441 2565 725 
Q 2881 1009 2881 1497 
Q 2881 1984 2565 2268 
Q 2250 2553 1709 2553 
Q 1456 2553 1204 2497 
Q 953 2441 691 2322 
L 691 4666 
z
" transform="scale(0.015625)"/>
       </defs>
       <use xlink:href="#DejaVuSans-2212"/>
       <use xlink:href="#DejaVuSans-31" x="83.789062"/>
       <use xlink:href="#DejaVuSans-35" x="147.412109"/>
      </g>
     </g>
    </g>
    <g id="ytick_2">
     <g id="line2d_5">
      <g>
       <use xlink:href="#m40eaccf6cd" x="18" y="161.82" style="stroke: #000000; stroke-width: 0.8"/>
      </g>
     </g>
     <g id="text_5">
      <!-- 10 -->
      <g transform="translate(-10.104688 165.619219)scale(0.1 -0.1)">
       <use xlink:href="#DejaVuSans-2212"/>
       <use xlink:href="#DejaVuSans-31" x="83.789062"/>
       <use xlink:href="#DejaVuSans-30" x="147.412109"/>
      </g>
     </g>
    </g>
    <g id="ytick_3">
     <g id="line2d_6">
      <g>
       <use xlink:href="#m40eaccf6cd" x="18" y="134.64" style="stroke: #000000; stroke-width: 0.8"/>
      </g>
     </g>
     <g id="text_6">
      <!-- 5 -->
      <g transform="translate(-3.742188 138.439219)scale(0.1 -0.1)">
       <use xlink:href="#DejaVuSans-2212"/>
       <use xlink:href="#DejaVuSans-35" x="83.789062"/>
      </g>
     </g>
    </g>
    <g id="ytick_4">
     <g id="line2d_7">
      <g>
       <use xlink:href="#m40eaccf6cd" x="18" y="107.46" style="stroke: #000000; stroke-width: 0.8"/>
      </g>
     </g>
     <g id="text_7">
      <!-- 0 -->
      <g transform="translate(4.6375 111.259219)scale(0.1 -0.1)">
       <use xlink:href="#DejaVuSans-30"/>
      </g>
     </g>
    </g>
    <g id="ytick_5">
     <g id="line2d_8">
      <g>
       <use xlink:href="#m40eaccf6cd" x="18" y="80.28" style="stroke: #000000; stroke-width: 0.8"/>
      </g>
     </g>
     <g id="text_8">
      <!-- 5 -->
      <g transform="translate(4.6375 84.079219)scale(0.1 -0.1)">
       <use xlink:href="#DejaVuSans-35"/>
      </g>
     </g>
    </g>
    <g id="ytick_6">
     <g id="line2d_9">
      <g>
       <use xlink:href="#m40eaccf6cd" x="18" y="53.1" style="stroke: #000000; stroke-width: 0.8"/>
      </g>
     </g>
     <g id="text_9">
      <!-- 10 -->
      <g transform="translate(-1.725 56.899219)scale(0.1 -0.1)">
       <use xlink:href="#DejaVuSans-31"/>
       <use xlink:href="#DejaVuSans-30" x="63.623047"/>
      </g>
     </g>
    </g>
    <g id="ytick_7">
     <g id="line2d_10">
      <g>
       <use xlink:href="#m40eaccf6cd" x="18" y="25.92" style="stroke: #000000; stroke-width: 0.8"/>
      </g>
     </g>
     <g id="text_10">
      <!-- 15 -->
      <g transform="translate(-1.725 29.719219)scale(0.1 -0.1)">
       <use xlink:href="#DejaVuSans-31"/>
       <use xlink:href="#DejaVuSans-35" x="63.623047"/>
      </g>
     </g>
    </g>
   </g>
   <g id="patch_3">
    <path d="M 18 189 
L 18 25.92 
" style="fill: none; stroke: #000000; stroke-width: 0.8; stroke-linejoin: miter; stroke-linecap: square"/>
   </g>
   <g id="patch_4">
    <path d="M 129.6 189 
L 129.6 25.92 
" style="fill: none; stroke: #000000; stroke-width: 0.8; stroke-linejoin: miter; stroke-linecap: square"/>
   </g>
   <g id="patch_5">
    <path d="M 18 189 
L 129.6 189 
" style="fill: none; stroke: #000000; stroke-width: 0.8; stroke-linejoin: miter; stroke-linecap: square"/>
   </g>
   <g id="patch_6">
    <path d="M 18 25.92 
L 129.6 25.92 
" style="fill: none; stroke: #000000; stroke-width: 0.8; stroke-linejoin: miter; stroke-linecap: square"/>
   </g>
  </g>
 </g>
 <defs>
  <clipPath id="p5302528e9d">
   <rect x="18" y="25.92" width="111.6" height="163.08"/>
  </clipPath>
 </defs>
</svg>
