<?xml version="1.0" encoding="utf-8" standalone="no"?>
<!DOCTYPE svg PUBLIC "-//W3C//DTD SVG 1.1//EN"
  "http://www.w3.org/Graphics/SVG/1.1/DTD/svg11.dtd">
<svg xmlns:xlink="http://www.w3.org/1999/xlink" width="144pt" height="216pt" viewBox="0 0 144 216" xmlns="http://www.w3.org/2000/svg" version="1.1">
 <metadata>
  <rdf:RDF xmlns:dc="http://purl.org/dc/elements/1.1/" xmlns:cc="http://creativecommons.org/ns#" xmlns:rdf="http://www.w3.org/1999/02/22-rdf-syntax-ns#">
   <cc:Work>
    <dc:type rdf:resource="http://purl.org/dc/dcmitype/StillImage"/>
    <dc:date>2022-06-23T14:52:56.934786</dc:date>
    <dc:format>image/svg+xml</dc:format>
    <dc:creator>
     <cc:Agent>
      <dc:title>Matplotlib v3.5.1, https://matplotlib.org/</dc:title>
     </cc:Agent>
    </dc:creator>
   </cc:Work>
  </rdf:RDF>
 </metadata>
 <defs>
  <style type="text/css">*{stroke-linejoin: round; stroke-linecap: butt}</style>
 </defs>
 <g id="figure_1">
  <g id="patch_1">
   <path d="M 0 216 
L 144 216 
L 144 0 
L 0 0 
L 0 216 
z
" style="fill: none"/>
  </g>
  <g id="axes_1">
   <g id="patch_2">
    <path d="M 18 189 
L 129.6 189 
L 129.6 25.92 
L 18 25.92 
z
" style="fill: #ffffff"/>
   </g>
   <g id="PathCollection_1">
    <defs>
     <path id="m9db74f8d53" d="M 0 2.738613 
C 0.726289 2.738613 1.422928 2.450055 1.936492 1.936492 
C 2.450055 1.422928 2.738613 0.726289 2.738613 0 
C 2.738613 -0.726289 2.450055 -1.422928 1.936492 -1.936492 
C 1.422928 -2.450055 0.726289 -2.738613 0 -2.738613 
C -0.726289 -2.738613 -1.422928 -2.450055 -1.936492 -1.936492 
C -2.450055 -1.422928 -2.738613 -0.726289 -2.738613 0 
C -2.738613 0.726289 -2.450055 1.422928 -1.936492 1.936492 
C -1.422928 2.450055 -0.726289 2.738613 0 2.738613 
z
" style="stroke: #ff0000; stroke-width: 1.75"/>
    </defs>
    <g clip-path="url(#p2397203246)">
     <use xlink:href="#m9db74f8d53" x="80.775" y="107.46" style="fill: #ff0000; stroke: #ff0000; stroke-width: 1.75"/>
     <use xlink:href="#m9db74f8d53" x="94.725" y="107.46" style="fill: #ff0000; stroke: #ff0000; stroke-width: 1.75"/>
     <use xlink:href="#m9db74f8d53" x="59.85" y="119.229285" style="fill: #ff0000; stroke: #ff0000; stroke-width: 1.75"/>
     <use xlink:href="#m9db74f8d53" x="73.8" y="119.229285" style="fill: #ff0000; stroke: #ff0000; stroke-width: 1.75"/>
     <use xlink:href="#m9db74f8d53" x="87.75" y="119.229285" style="fill: #ff0000; stroke: #ff0000; stroke-width: 1.75"/>
     <use xlink:href="#m9db74f8d53" x="66.825" y="130.99857" style="fill: #ff0000; stroke: #ff0000; stroke-width: 1.75"/>
     <use xlink:href="#m9db74f8d53" x="80.775" y="130.99857" style="fill: #ff0000; stroke: #ff0000; stroke-width: 1.75"/>
    </g>
   </g>
   <g id="PathCollection_2">
    <defs>
     <path id="C0_0_91e5e19736" d="M 0 2.738613 
C 0.726289 2.738613 1.422928 2.450055 1.936492 1.936492 
C 2.450055 1.422928 2.738613 0.726289 2.738613 -0 
C 2.738613 -0.726289 2.450055 -1.422928 1.936492 -1.936492 
C 1.422928 -2.450055 0.726289 -2.738613 0 -2.738613 
C -0.726289 -2.738613 -1.422928 -2.450055 -1.936492 -1.936492 
C -2.450055 -1.422928 -2.738613 -0.726289 -2.738613 0 
C -2.738613 0.726289 -2.450055 1.422928 -1.936492 1.936492 
C -1.422928 2.450055 -0.726289 2.738613 0 2.738613 
z
"/>
    </defs>
    <g clip-path="url(#p2397203246)">
     <use xlink:href="#C0_0_91e5e19736" x="66.825" y="83.92143" style="fill: none; stroke: #ff0000; stroke-width: 1.75"/>
    </g>
    <g clip-path="url(#p2397203246)">
     <use xlink:href="#C0_0_91e5e19736" x="80.775" y="83.92143" style="fill: none; stroke: #ff0000; stroke-width: 1.75"/>
    </g>
    <g clip-path="url(#p2397203246)">
     <use xlink:href="#C0_0_91e5e19736" x="59.85" y="95.690715" style="fill: none; stroke: #ff0000; stroke-width: 1.75"/>
    </g>
    <g clip-path="url(#p2397203246)">
     <use xlink:href="#C0_0_91e5e19736" x="73.8" y="95.690715" style="fill: none; stroke: #ff0000; stroke-width: 1.75"/>
    </g>
    <g clip-path="url(#p2397203246)">
     <use xlink:href="#C0_0_91e5e19736" x="87.75" y="95.690715" style="fill: none; stroke: #ff0000; stroke-width: 1.75"/>
    </g>
    <g clip-path="url(#p2397203246)">
     <use xlink:href="#C0_0_91e5e19736" x="52.875" y="107.46" style="fill: none; stroke: #ff0000; stroke-width: 1.75"/>
    </g>
    <g clip-path="url(#p2397203246)">
     <use xlink:href="#C0_0_91e5e19736" x="66.825" y="107.46" style="fill: none; stroke: #ff0000; stroke-width: 1.75"/>
    </g>
   </g>
   <g id="PathCollection_3">
    <path d="M 114.616673 102.214651 
C 114.749275 102.214651 114.876463 102.161968 114.970226 102.068204 
C 115.06399 101.974441 115.116673 101.847252 115.116673 101.714651 
C 115.116673 101.582049 115.06399 101.454861 114.970226 101.361097 
C 114.876463 101.267334 114.749275 101.214651 114.616673 101.214651 
C 114.484072 101.214651 114.356883 101.267334 114.26312 101.361097 
C 114.169356 101.454861 114.116673 101.582049 114.116673 101.714651 
C 114.116673 101.847252 114.169356 101.974441 114.26312 102.068204 
C 114.356883 102.161968 114.484072 102.214651 114.616673 102.214651 
z
" clip-path="url(#p2397203246)" style="stroke: #000000"/>
    <path d="M 111.685126 110.423524 
C 111.817727 110.423524 111.944916 110.370841 112.038679 110.277077 
C 112.132443 110.183314 112.185126 110.056126 112.185126 109.923524 
C 112.185126 109.790922 112.132443 109.663734 112.038679 109.569971 
C 111.944916 109.476207 111.817727 109.423524 111.685126 109.423524 
C 111.552524 109.423524 111.425336 109.476207 111.331572 109.569971 
C 111.237809 109.663734 111.185126 109.790922 111.185126 109.923524 
C 111.185126 110.056126 111.237809 110.183314 111.331572 110.277077 
C 111.425336 110.370841 111.552524 110.423524 111.685126 110.423524 
z
" clip-path="url(#p2397203246)" style="stroke: #000000"/>
    <path d="M 118.096411 150.859615 
C 118.229012 150.859615 118.3562 150.806932 118.449964 150.713169 
C 118.543727 150.619405 118.596411 150.492217 118.596411 150.359615 
C 118.596411 150.227014 118.543727 150.099825 118.449964 150.006062 
C 118.3562 149.912298 118.229012 149.859615 118.096411 149.859615 
C 117.963809 149.859615 117.836621 149.912298 117.742857 150.006062 
C 117.649094 150.099825 117.596411 150.227014 117.596411 150.359615 
C 117.596411 150.492217 117.649094 150.619405 117.742857 150.713169 
C 117.836621 150.806932 117.963809 150.859615 118.096411 150.859615 
z
" clip-path="url(#p2397203246)" style="stroke: #000000"/>
    <path d="M 117.636562 145.46807 
C 117.769164 145.46807 117.896352 145.415387 117.990116 145.321623 
C 118.083879 145.22786 118.136562 145.100672 118.136562 144.96807 
C 118.136562 144.835468 118.083879 144.70828 117.990116 144.614517 
C 117.896352 144.520753 117.769164 144.46807 117.636562 144.46807 
C 117.503961 144.46807 117.376772 144.520753 117.283009 144.614517 
C 117.189245 144.70828 117.136562 144.835468 117.136562 144.96807 
C 117.136562 145.100672 117.189245 145.22786 117.283009 145.321623 
C 117.376772 145.415387 117.503961 145.46807 117.636562 145.46807 
z
" clip-path="url(#p2397203246)" style="stroke: #000000"/>
    <path d="M 106.07917 112.024373 
C 106.302178 112.024373 106.516083 111.935771 106.673773 111.778081 
C 106.831464 111.62039 106.920066 111.406485 106.920066 111.183477 
C 106.920066 110.960469 106.831464 110.746564 106.673773 110.588873 
C 106.516083 110.431183 106.302178 110.342581 106.07917 110.342581 
C 105.856162 110.342581 105.642257 110.431183 105.484566 110.588873 
C 105.326876 110.746564 105.238273 110.960469 105.238273 111.183477 
C 105.238273 111.406485 105.326876 111.62039 105.484566 111.778081 
C 105.642257 111.935771 105.856162 112.024373 106.07917 112.024373 
z
" clip-path="url(#p2397203246)" style="stroke: #000000"/>
    <path d="M 102.062037 107.680332 
C 102.372371 107.680332 102.670036 107.557035 102.889475 107.337596 
C 103.108914 107.118157 103.232211 106.820492 103.232211 106.510158 
C 103.232211 106.199825 103.108914 105.90216 102.889475 105.68272 
C 102.670036 105.463281 102.372371 105.339985 102.062037 105.339985 
C 101.751703 105.339985 101.454038 105.463281 101.234599 105.68272 
C 101.01516 105.90216 100.891863 106.199825 100.891863 106.510158 
C 100.891863 106.820492 101.01516 107.118157 101.234599 107.337596 
C 101.454038 107.557035 101.751703 107.680332 102.062037 107.680332 
z
" clip-path="url(#p2397203246)" style="stroke: #000000"/>
    <path d="M 97.335819 88.234862 
C 97.468421 88.234862 97.595609 88.182179 97.689373 88.088416 
C 97.783136 87.994652 97.835819 87.867464 97.835819 87.734862 
C 97.835819 87.602261 97.783136 87.475072 97.689373 87.381309 
C 97.595609 87.287545 97.468421 87.234862 97.335819 87.234862 
C 97.203218 87.234862 97.076029 87.287545 96.982266 87.381309 
C 96.888502 87.475072 96.835819 87.602261 96.835819 87.734862 
C 96.835819 87.867464 96.888502 87.994652 96.982266 88.088416 
C 97.076029 88.182179 97.203218 88.234862 97.335819 88.234862 
z
" clip-path="url(#p2397203246)" style="stroke: #000000"/>
    <path d="M 104.999959 126.583478 
C 105.132561 126.583478 105.259749 126.530795 105.353512 126.437032 
C 105.447276 126.343268 105.499959 126.21608 105.499959 126.083478 
C 105.499959 125.950877 105.447276 125.823688 105.353512 125.729925 
C 105.259749 125.636161 105.132561 125.583478 104.999959 125.583478 
C 104.867357 125.583478 104.740169 125.636161 104.646406 125.729925 
C 104.552642 125.823688 104.499959 125.950877 104.499959 126.083478 
C 104.499959 126.21608 104.552642 126.343268 104.646406 126.437032 
C 104.740169 126.530795 104.867357 126.583478 104.999959 126.583478 
z
" clip-path="url(#p2397203246)" style="stroke: #000000"/>
    <path d="M 102.659629 123.430136 
C 102.792231 123.430136 102.919419 123.377453 103.013183 123.28369 
C 103.106946 123.189926 103.159629 123.062738 103.159629 122.930136 
C 103.159629 122.797535 103.106946 122.670347 103.013183 122.576583 
C 102.919419 122.48282 102.792231 122.430136 102.659629 122.430136 
C 102.527028 122.430136 102.399839 122.48282 102.306076 122.576583 
C 102.212312 122.670347 102.159629 122.797535 102.159629 122.930136 
C 102.159629 123.062738 102.212312 123.189926 102.306076 123.28369 
C 102.399839 123.377453 102.527028 123.430136 102.659629 123.430136 
z
" clip-path="url(#p2397203246)" style="stroke: #000000"/>
    <path d="M 98.789024 114.115929 
C 99.161113 114.115929 99.518012 113.968097 99.781119 113.70499 
C 100.044225 113.441884 100.192058 113.084985 100.192058 112.712896 
C 100.192058 112.340807 100.044225 111.983908 99.781119 111.720802 
C 99.518012 111.457695 99.161113 111.309863 98.789024 111.309863 
C 98.416936 111.309863 98.060037 111.457695 97.79693 111.720802 
C 97.533824 111.983908 97.385991 112.340807 97.385991 112.712896 
C 97.385991 113.084985 97.533824 113.441884 97.79693 113.70499 
C 98.060037 113.968097 98.416936 114.115929 98.789024 114.115929 
z
" clip-path="url(#p2397203246)" style="stroke: #000000"/>
    <path d="M 94.502199 110.158227 
C 95.154891 110.158227 95.780938 109.89891 96.242461 109.437387 
C 96.703984 108.975864 96.963301 108.349817 96.963301 107.697126 
C 96.963301 107.044434 96.703984 106.418387 96.242461 105.956864 
C 95.780938 105.495341 95.154891 105.236024 94.502199 105.236024 
C 93.849508 105.236024 93.223461 105.495341 92.761938 105.956864 
C 92.300415 106.418387 92.041098 107.044434 92.041098 107.697126 
C 92.041098 108.349817 92.300415 108.975864 92.761938 109.437387 
C 93.223461 109.89891 93.849508 110.158227 94.502199 110.158227 
z
" clip-path="url(#p2397203246)" style="stroke: #000000"/>
    <path d="M 92.916212 106.29742 
C 93.432043 106.29742 93.926816 106.092478 94.291564 105.727731 
C 94.656311 105.362983 94.861253 104.86821 94.861253 104.352379 
C 94.861253 103.836548 94.656311 103.341774 94.291564 102.977027 
C 93.926816 102.612279 93.432043 102.407337 92.916212 102.407337 
C 92.400381 102.407337 91.905607 102.612279 91.54086 102.977027 
C 91.176112 103.341774 90.97117 103.836548 90.97117 104.352379 
C 90.97117 104.86821 91.176112 105.362983 91.54086 105.727731 
C 91.905607 106.092478 92.400381 106.29742 92.916212 106.29742 
z
" clip-path="url(#p2397203246)" style="stroke: #000000"/>
    <path d="M 88.19712 84.406836 
C 88.542453 84.406836 88.873688 84.269634 89.117876 84.025446 
C 89.362063 83.781259 89.499265 83.450023 89.499265 83.10469 
C 89.499265 82.759357 89.362063 82.428122 89.117876 82.183935 
C 88.873688 81.939747 88.542453 81.802545 88.19712 81.802545 
C 87.851787 81.802545 87.520551 81.939747 87.276364 82.183935 
C 87.032177 82.428122 86.894974 82.759357 86.894974 83.10469 
C 86.894974 83.450023 87.032177 83.781259 87.276364 84.025446 
C 87.520551 84.269634 87.851787 84.406836 88.19712 84.406836 
z
" clip-path="url(#p2397203246)" style="stroke: #000000"/>
    <path d="M 84.167287 80.05166 
C 84.469554 80.05166 84.75948 79.931569 84.973215 79.717834 
C 85.186949 79.5041 85.307041 79.214173 85.307041 78.911907 
C 85.307041 78.609641 85.186949 78.319714 84.973215 78.105979 
C 84.75948 77.892245 84.469554 77.772153 84.167287 77.772153 
C 83.865021 77.772153 83.575094 77.892245 83.36136 78.105979 
C 83.147625 78.319714 83.027534 78.609641 83.027534 78.911907 
C 83.027534 79.214173 83.147625 79.5041 83.36136 79.717834 
C 83.575094 79.931569 83.865021 80.05166 84.167287 80.05166 
z
" clip-path="url(#p2397203246)" style="stroke: #000000"/>
    <path d="M 104.547204 146.570071 
C 104.679805 146.570071 104.806994 146.517388 104.900757 146.423624 
C 104.994521 146.329861 105.047204 146.202673 105.047204 146.070071 
C 105.047204 145.937469 104.994521 145.810281 104.900757 145.716518 
C 104.806994 145.622754 104.679805 145.570071 104.547204 145.570071 
C 104.414602 145.570071 104.287414 145.622754 104.19365 145.716518 
C 104.099887 145.810281 104.047204 145.937469 104.047204 146.070071 
C 104.047204 146.202673 104.099887 146.329861 104.19365 146.423624 
C 104.287414 146.517388 104.414602 146.570071 104.547204 146.570071 
z
" clip-path="url(#p2397203246)" style="stroke: #000000"/>
    <path d="M 98.146711 129.036504 
C 98.279313 129.036504 98.406501 128.983821 98.500264 128.890058 
C 98.594028 128.796294 98.646711 128.669106 98.646711 128.536504 
C 98.646711 128.403903 98.594028 128.276714 98.500264 128.182951 
C 98.406501 128.089187 98.279313 128.036504 98.146711 128.036504 
C 98.014109 128.036504 97.886921 128.089187 97.793158 128.182951 
C 97.699394 128.276714 97.646711 128.403903 97.646711 128.536504 
C 97.646711 128.669106 97.699394 128.796294 97.793158 128.890058 
C 97.886921 128.983821 98.014109 129.036504 98.146711 129.036504 
z
" clip-path="url(#p2397203246)" style="stroke: #000000"/>
    <path d="M 91.579617 119.429356 
C 92.017578 119.429356 92.43766 119.255352 92.747345 118.945667 
C 93.05703 118.635982 93.231034 118.2159 93.231034 117.777939 
C 93.231034 117.339978 93.05703 116.919896 92.747345 116.610211 
C 92.43766 116.300526 92.017578 116.126522 91.579617 116.126522 
C 91.141656 116.126522 90.721574 116.300526 90.411888 116.610211 
C 90.102203 116.919896 89.9282 117.339978 89.9282 117.777939 
C 89.9282 118.2159 90.102203 118.635982 90.411888 118.945667 
C 90.721574 119.255352 91.141656 119.429356 91.579617 119.429356 
z
" clip-path="url(#p2397203246)" style="stroke: #000000"/>
    <path d="M 90.651267 111.096253 
C 90.973794 111.096253 91.283154 110.968112 91.511215 110.740051 
C 91.739275 110.51199 91.867417 110.20263 91.867417 109.880103 
C 91.867417 109.557577 91.739275 109.248216 91.511215 109.020156 
C 91.283154 108.792095 90.973794 108.663954 90.651267 108.663954 
C 90.32874 108.663954 90.01938 108.792095 89.791319 109.020156 
C 89.563259 109.248216 89.435117 109.557577 89.435117 109.880103 
C 89.435117 110.20263 89.563259 110.51199 89.791319 110.740051 
C 90.01938 110.968112 90.32874 111.096253 90.651267 111.096253 
z
" clip-path="url(#p2397203246)" style="stroke: #000000"/>
    <path d="M 83.224922 97.108555 
C 83.521428 97.108555 83.805829 96.990752 84.015491 96.78109 
C 84.225152 96.571429 84.342956 96.287027 84.342956 95.990521 
C 84.342956 95.694015 84.225152 95.409613 84.015491 95.199951 
C 83.805829 94.99029 83.521428 94.872487 83.224922 94.872487 
C 82.928415 94.872487 82.644014 94.99029 82.434352 95.199951 
C 82.224691 95.409613 82.106888 95.694015 82.106888 95.990521 
C 82.106888 96.287027 82.224691 96.571429 82.434352 96.78109 
C 82.644014 96.990752 82.928415 97.108555 83.224922 97.108555 
z
" clip-path="url(#p2397203246)" style="stroke: #000000"/>
    <path d="M 85.127702 95.943955 
C 85.692011 95.943955 86.233284 95.719752 86.63231 95.320725 
C 87.031337 94.921699 87.255539 94.380426 87.255539 93.816117 
C 87.255539 93.251808 87.031337 92.710535 86.63231 92.311509 
C 86.233284 91.912482 85.692011 91.68828 85.127702 91.68828 
C 84.563393 91.68828 84.02212 91.912482 83.623094 92.311509 
C 83.224067 92.710535 82.999864 93.251808 82.999864 93.816117 
C 82.999864 94.380426 83.224067 94.921699 83.623094 95.320725 
C 84.02212 95.719752 84.563393 95.943955 85.127702 95.943955 
z
" clip-path="url(#p2397203246)" style="stroke: #000000"/>
    <path d="M 79.734091 88.689374 
C 80.351828 88.689374 80.944348 88.443944 81.381154 88.007138 
C 81.81796 87.570332 82.06339 86.977812 82.06339 86.360075 
C 82.06339 85.742338 81.81796 85.149818 81.381154 84.713012 
C 80.944348 84.276206 80.351828 84.030776 79.734091 84.030776 
C 79.116354 84.030776 78.523834 84.276206 78.087028 84.713012 
C 77.650222 85.149818 77.404792 85.742338 77.404792 86.360075 
C 77.404792 86.977812 77.650222 87.570332 78.087028 88.007138 
C 78.523834 88.443944 79.116354 88.689374 79.734091 88.689374 
z
" clip-path="url(#p2397203246)" style="stroke: #000000"/>
    <path d="M 78.805993 78.760502 
C 78.938595 78.760502 79.065783 78.707819 79.159547 78.614055 
C 79.25331 78.520292 79.305993 78.393103 79.305993 78.260502 
C 79.305993 78.1279 79.25331 78.000712 79.159547 77.906948 
C 79.065783 77.813185 78.938595 77.760502 78.805993 77.760502 
C 78.673392 77.760502 78.546203 77.813185 78.45244 77.906948 
C 78.358676 78.000712 78.305993 78.1279 78.305993 78.260502 
C 78.305993 78.393103 78.358676 78.520292 78.45244 78.614055 
C 78.546203 78.707819 78.673392 78.760502 78.805993 78.760502 
z
" clip-path="url(#p2397203246)" style="stroke: #000000"/>
    <path d="M 75.902377 74.173636 
C 76.089904 74.173636 76.269776 74.09913 76.402377 73.966529 
C 76.534979 73.833927 76.609484 73.654056 76.609484 73.466529 
C 76.609484 73.279002 76.534979 73.09913 76.402377 72.966529 
C 76.269776 72.833927 76.089904 72.759422 75.902377 72.759422 
C 75.71485 72.759422 75.534979 72.833927 75.402377 72.966529 
C 75.269776 73.09913 75.195271 73.279002 75.195271 73.466529 
C 75.195271 73.654056 75.269776 73.833927 75.402377 73.966529 
C 75.534979 74.09913 75.71485 74.173636 75.902377 74.173636 
z
" clip-path="url(#p2397203246)" style="stroke: #000000"/>
    <path d="M 90.366567 132.753794 
C 90.524258 132.753794 90.675511 132.691143 90.787015 132.579639 
C 90.89852 132.468134 90.961171 132.316881 90.961171 132.15919 
C 90.961171 132.0015 90.89852 131.850246 90.787015 131.738742 
C 90.675511 131.627238 90.524258 131.564587 90.366567 131.564587 
C 90.208877 131.564587 90.057623 131.627238 89.946119 131.738742 
C 89.834615 131.850246 89.771964 132.0015 89.771964 132.15919 
C 89.771964 132.316881 89.834615 132.468134 89.946119 132.579639 
C 90.057623 132.691143 90.208877 132.753794 90.366567 132.753794 
z
" clip-path="url(#p2397203246)" style="stroke: #000000"/>
    <path d="M 91.08786 124.506173 
C 91.545601 124.506173 91.984657 124.32431 92.30833 124.000637 
C 92.632002 123.676965 92.813865 123.237909 92.813865 122.780167 
C 92.813865 122.322426 92.632002 121.88337 92.30833 121.559697 
C 91.984657 121.236025 91.545601 121.054162 91.08786 121.054162 
C 90.630118 121.054162 90.191062 121.236025 89.86739 121.559697 
C 89.543717 121.88337 89.361854 122.322426 89.361854 122.780167 
C 89.361854 123.237909 89.543717 123.676965 89.86739 124.000637 
C 90.191062 124.32431 90.630118 124.506173 91.08786 124.506173 
z
" clip-path="url(#p2397203246)" style="stroke: #000000"/>
    <path d="M 85.532232 119.254498 
C 86.065719 119.254498 86.577427 119.042541 86.95466 118.665309 
C 87.331892 118.288077 87.543849 117.776368 87.543849 117.242881 
C 87.543849 116.709394 87.331892 116.197685 86.95466 115.820453 
C 86.577427 115.443221 86.065719 115.231264 85.532232 115.231264 
C 84.998744 115.231264 84.487036 115.443221 84.109803 115.820453 
C 83.732571 116.197685 83.520614 116.709394 83.520614 117.242881 
C 83.520614 117.776368 83.732571 118.288077 84.109803 118.665309 
C 84.487036 119.042541 84.998744 119.254498 85.532232 119.254498 
z
" clip-path="url(#p2397203246)" style="stroke: #000000"/>
    <path d="M 84.588058 113.733112 
C 85.011512 113.733112 85.41768 113.564871 85.717108 113.265444 
C 86.016536 112.966016 86.184776 112.559848 86.184776 112.136393 
C 86.184776 111.712939 86.016536 111.306771 85.717108 111.007343 
C 85.41768 110.707915 85.011512 110.539675 84.588058 110.539675 
C 84.164603 110.539675 83.758435 110.707915 83.459007 111.007343 
C 83.159579 111.306771 82.991339 111.712939 82.991339 112.136393 
C 82.991339 112.559848 83.159579 112.966016 83.459007 113.265444 
C 83.758435 113.564871 84.164603 113.733112 84.588058 113.733112 
z
" clip-path="url(#p2397203246)" style="stroke: #000000"/>
    <path d="M 82.682966 108.939172 
C 83.239368 108.939172 83.773057 108.718111 84.166492 108.324675 
C 84.559928 107.931239 84.780989 107.39755 84.780989 106.841148 
C 84.780989 106.284745 84.559928 105.751057 84.166492 105.357621 
C 83.773057 104.964185 83.239368 104.743124 82.682966 104.743124 
C 82.126563 104.743124 81.592875 104.964185 81.199439 105.357621 
C 80.806003 105.751057 80.584942 106.284745 80.584942 106.841148 
C 80.584942 107.39755 80.806003 107.931239 81.199439 108.324675 
C 81.592875 108.718111 82.126563 108.939172 82.682966 108.939172 
z
" clip-path="url(#p2397203246)" style="stroke: #000000"/>
    <path d="M 82.354228 100.61572 
C 82.48683 100.61572 82.614018 100.563037 82.707781 100.469274 
C 82.801545 100.37551 82.854228 100.248322 82.854228 100.11572 
C 82.854228 99.983119 82.801545 99.85593 82.707781 99.762167 
C 82.614018 99.668403 82.48683 99.61572 82.354228 99.61572 
C 82.221627 99.61572 82.094438 99.668403 82.000675 99.762167 
C 81.906911 99.85593 81.854228 99.983119 81.854228 100.11572 
C 81.854228 100.248322 81.906911 100.37551 82.000675 100.469274 
C 82.094438 100.563037 82.221627 100.61572 82.354228 100.61572 
z
" clip-path="url(#p2397203246)" style="stroke: #000000"/>
    <path d="M 78.399909 95.003183 
C 78.802537 95.003183 79.188728 94.843217 79.473428 94.558516 
C 79.758129 94.273816 79.918094 93.887625 79.918094 93.484997 
C 79.918094 93.08237 79.758129 92.696179 79.473428 92.411478 
C 79.188728 92.126778 78.802537 91.966812 78.399909 91.966812 
C 77.997282 91.966812 77.611091 92.126778 77.32639 92.411478 
C 77.04169 92.696179 76.881724 93.08237 76.881724 93.484997 
C 76.881724 93.887625 77.04169 94.273816 77.32639 94.558516 
C 77.611091 94.843217 77.997282 95.003183 78.399909 95.003183 
z
" clip-path="url(#p2397203246)" style="stroke: #000000"/>
    <path d="M 78.671917 89.359207 
C 79.105203 89.359207 79.520801 89.187061 79.827181 88.880681 
C 80.13356 88.574302 80.305707 88.158703 80.305707 87.725417 
C 80.305707 87.292131 80.13356 86.876533 79.827181 86.570153 
C 79.520801 86.263774 79.105203 86.091627 78.671917 86.091627 
C 78.238631 86.091627 77.823032 86.263774 77.516653 86.570153 
C 77.210273 86.876533 77.038127 87.292131 77.038127 87.725417 
C 77.038127 88.158703 77.210273 88.574302 77.516653 88.880681 
C 77.823032 89.187061 78.238631 89.359207 78.671917 89.359207 
z
" clip-path="url(#p2397203246)" style="stroke: #000000"/>
    <path d="M 72.310239 83.08145 
C 72.442841 83.08145 72.570029 83.028767 72.663793 82.935004 
C 72.757556 82.84124 72.810239 82.714052 72.810239 82.58145 
C 72.810239 82.448849 72.757556 82.32166 72.663793 82.227897 
C 72.570029 82.134133 72.442841 82.08145 72.310239 82.08145 
C 72.177638 82.08145 72.050449 82.134133 71.956686 82.227897 
C 71.862922 82.32166 71.810239 82.448849 71.810239 82.58145 
C 71.810239 82.714052 71.862922 82.84124 71.956686 82.935004 
C 72.050449 83.028767 72.177638 83.08145 72.310239 83.08145 
z
" clip-path="url(#p2397203246)" style="stroke: #000000"/>
    <path d="M 75.366756 78.546098 
C 75.627715 78.546098 75.87802 78.442419 76.062546 78.257893 
C 76.247071 78.073368 76.350751 77.823062 76.350751 77.562104 
C 76.350751 77.301145 76.247071 77.05084 76.062546 76.866314 
C 75.87802 76.681789 75.627715 76.578109 75.366756 76.578109 
C 75.105798 76.578109 74.855493 76.681789 74.670967 76.866314 
C 74.486442 77.05084 74.382762 77.301145 74.382762 77.562104 
C 74.382762 77.823062 74.486442 78.073368 74.670967 78.257893 
C 74.855493 78.442419 75.105798 78.546098 75.366756 78.546098 
z
" clip-path="url(#p2397203246)" style="stroke: #000000"/>
    <path d="M 94.220894 160.613244 
C 94.395408 160.613244 94.562797 160.543909 94.686197 160.42051 
C 94.809596 160.29711 94.878931 160.129721 94.878931 159.955207 
C 94.878931 159.780694 94.809596 159.613304 94.686197 159.489905 
C 94.562797 159.366505 94.395408 159.29717 94.220894 159.29717 
C 94.046381 159.29717 93.878992 159.366505 93.755592 159.489905 
C 93.632192 159.613304 93.562857 159.780694 93.562857 159.955207 
C 93.562857 160.129721 93.632192 160.29711 93.755592 160.42051 
C 93.878992 160.543909 94.046381 160.613244 94.220894 160.613244 
z
" clip-path="url(#p2397203246)" style="stroke: #000000"/>
    <path d="M 84.734694 139.617817 
C 84.909208 139.617817 85.076597 139.548482 85.199997 139.425082 
C 85.323396 139.301683 85.392731 139.134293 85.392731 138.95978 
C 85.392731 138.785266 85.323396 138.617877 85.199997 138.494477 
C 85.076597 138.371078 84.909208 138.301743 84.734694 138.301743 
C 84.560181 138.301743 84.392791 138.371078 84.269392 138.494477 
C 84.145992 138.617877 84.076657 138.785266 84.076657 138.95978 
C 84.076657 139.134293 84.145992 139.301683 84.269392 139.425082 
C 84.392791 139.548482 84.560181 139.617817 84.734694 139.617817 
z
" clip-path="url(#p2397203246)" style="stroke: #000000"/>
    <path d="M 83.263385 134.792042 
C 83.801395 134.792042 84.317443 134.578288 84.697874 134.197857 
C 85.078305 133.817426 85.292059 133.301378 85.292059 132.763368 
C 85.292059 132.225357 85.078305 131.709309 84.697874 131.328878 
C 84.317443 130.948447 83.801395 130.734693 83.263385 130.734693 
C 82.725374 130.734693 82.209326 130.948447 81.828895 131.328878 
C 81.448464 131.709309 81.23471 132.225357 81.23471 132.763368 
C 81.23471 133.301378 81.448464 133.817426 81.828895 134.197857 
C 82.209326 134.578288 82.725374 134.792042 83.263385 134.792042 
z
" clip-path="url(#p2397203246)" style="stroke: #000000"/>
    <path d="M 81.000921 126.496178 
C 81.442517 126.496178 81.866086 126.32073 82.178341 126.008475 
C 82.490596 125.696219 82.666044 125.272651 82.666044 124.831055 
C 82.666044 124.389459 82.490596 123.965891 82.178341 123.653635 
C 81.866086 123.34138 81.442517 123.165932 81.000921 123.165932 
C 80.559326 123.165932 80.135757 123.34138 79.823502 123.653635 
C 79.511246 123.965891 79.335799 124.389459 79.335799 124.831055 
C 79.335799 125.272651 79.511246 125.696219 79.823502 126.008475 
C 80.135757 126.32073 80.559326 126.496178 81.000921 126.496178 
z
" clip-path="url(#p2397203246)" style="stroke: #000000"/>
    <path d="M 76.694809 124.464854 
C 76.978668 124.464854 77.25094 124.352076 77.451659 124.151357 
C 77.652378 123.950638 77.765156 123.678366 77.765156 123.394507 
C 77.765156 123.110647 77.652378 122.838376 77.451659 122.637657 
C 77.25094 122.436938 76.978668 122.324159 76.694809 122.324159 
C 76.410949 122.324159 76.138678 122.436938 75.937959 122.637657 
C 75.73724 122.838376 75.624461 123.110647 75.624461 123.394507 
C 75.624461 123.678366 75.73724 123.950638 75.937959 124.151357 
C 76.138678 124.352076 76.410949 124.464854 76.694809 124.464854 
z
" clip-path="url(#p2397203246)" style="stroke: #000000"/>
    <path d="M 80.943755 116.470076 
C 81.076357 116.470076 81.203545 116.417392 81.297308 116.323629 
C 81.391072 116.229866 81.443755 116.102677 81.443755 115.970076 
C 81.443755 115.837474 81.391072 115.710286 81.297308 115.616522 
C 81.203545 115.522759 81.076357 115.470076 80.943755 115.470076 
C 80.811154 115.470076 80.683965 115.522759 80.590202 115.616522 
C 80.496438 115.710286 80.443755 115.837474 80.443755 115.970076 
C 80.443755 116.102677 80.496438 116.229866 80.590202 116.323629 
C 80.683965 116.417392 80.811154 116.470076 80.943755 116.470076 
z
" clip-path="url(#p2397203246)" style="stroke: #000000"/>
    <path d="M 76.918908 111.050974 
C 77.331794 111.050974 77.727825 110.886932 78.01978 110.594978 
C 78.311735 110.303023 78.475776 109.906992 78.475776 109.494105 
C 78.475776 109.081219 78.311735 108.685188 78.01978 108.393233 
C 77.727825 108.101278 77.331794 107.937237 76.918908 107.937237 
C 76.506021 107.937237 76.10999 108.101278 75.818035 108.393233 
C 75.526081 108.685188 75.362039 109.081219 75.362039 109.494105 
C 75.362039 109.906992 75.526081 110.303023 75.818035 110.594978 
C 76.10999 110.886932 76.506021 111.050974 76.918908 111.050974 
z
" clip-path="url(#p2397203246)" style="stroke: #000000"/>
    <path d="M 73.553873 104.654669 
C 73.841053 104.654669 74.116509 104.540571 74.319576 104.337504 
C 74.522643 104.134437 74.636741 103.85898 74.636741 103.5718 
C 74.636741 103.28462 74.522643 103.009164 74.319576 102.806097 
C 74.116509 102.60303 73.841053 102.488932 73.553873 102.488932 
C 73.266693 102.488932 72.991236 102.60303 72.788169 102.806097 
C 72.585102 103.009164 72.471004 103.28462 72.471004 103.5718 
C 72.471004 103.85898 72.585102 104.134437 72.788169 104.337504 
C 72.991236 104.540571 73.266693 104.654669 73.553873 104.654669 
z
" clip-path="url(#p2397203246)" style="stroke: #000000"/>
    <path d="M 75.434302 97.351723 
C 76.0569 97.351723 76.654082 97.104363 77.094325 96.664119 
C 77.534568 96.223876 77.781929 95.626694 77.781929 95.004097 
C 77.781929 94.381499 77.534568 93.784317 77.094325 93.344074 
C 76.654082 92.90383 76.0569 92.65647 75.434302 92.65647 
C 74.811704 92.65647 74.214522 92.90383 73.774279 93.344074 
C 73.334036 93.784317 73.086675 94.381499 73.086675 95.004097 
C 73.086675 95.626694 73.334036 96.223876 73.774279 96.664119 
C 74.214522 97.104363 74.811704 97.351723 75.434302 97.351723 
z
" clip-path="url(#p2397203246)" style="stroke: #000000"/>
    <path d="M 70.712485 93.521201 
C 71.175767 93.521201 71.620136 93.337137 71.947726 93.009548 
C 72.275315 92.681958 72.459379 92.237589 72.459379 91.774307 
C 72.459379 91.311025 72.275315 90.866656 71.947726 90.539067 
C 71.620136 90.211477 71.175767 90.027413 70.712485 90.027413 
C 70.249203 90.027413 69.804834 90.211477 69.477244 90.539067 
C 69.149655 90.866656 68.965591 91.311025 68.965591 91.774307 
C 68.965591 92.237589 69.149655 92.681958 69.477244 93.009548 
C 69.804834 93.337137 70.249203 93.521201 70.712485 93.521201 
z
" clip-path="url(#p2397203246)" style="stroke: #000000"/>
    <path d="M 66.947754 86.00033 
C 67.530495 86.00033 68.089447 85.768804 68.501508 85.356744 
C 68.913568 84.944684 69.145093 84.385732 69.145093 83.80299 
C 69.145093 83.220249 68.913568 82.661297 68.501508 82.249236 
C 68.089447 81.837176 67.530495 81.60565 66.947754 81.60565 
C 66.365012 81.60565 65.80606 81.837176 65.394 82.249236 
C 64.98194 82.661297 64.750414 83.220249 64.750414 83.80299 
C 64.750414 84.385732 64.98194 84.944684 65.394 85.356744 
C 65.80606 85.768804 66.365012 86.00033 66.947754 86.00033 
z
" clip-path="url(#p2397203246)" style="stroke: #000000"/>
    <path d="M 91.885683 180.459287 
C 92.018284 180.459287 92.145473 180.406604 92.239236 180.31284 
C 92.333 180.219077 92.385683 180.091888 92.385683 179.959287 
C 92.385683 179.826685 92.333 179.699497 92.239236 179.605733 
C 92.145473 179.51197 92.018284 179.459287 91.885683 179.459287 
C 91.753081 179.459287 91.625893 179.51197 91.532129 179.605733 
C 91.438366 179.699497 91.385683 179.826685 91.385683 179.959287 
C 91.385683 180.091888 91.438366 180.219077 91.532129 180.31284 
C 91.625893 180.406604 91.753081 180.459287 91.885683 180.459287 
z
" clip-path="url(#p2397203246)" style="stroke: #000000"/>
    <path d="M 84.868736 160.36504 
C 85.001337 160.36504 85.128526 160.312357 85.222289 160.218593 
C 85.316053 160.12483 85.368736 159.997641 85.368736 159.86504 
C 85.368736 159.732438 85.316053 159.60525 85.222289 159.511486 
C 85.128526 159.417723 85.001337 159.36504 84.868736 159.36504 
C 84.736134 159.36504 84.608946 159.417723 84.515182 159.511486 
C 84.421419 159.60525 84.368736 159.732438 84.368736 159.86504 
C 84.368736 159.997641 84.421419 160.12483 84.515182 160.218593 
C 84.608946 160.312357 84.736134 160.36504 84.868736 160.36504 
z
" clip-path="url(#p2397203246)" style="stroke: #000000"/>
    <path d="M 82.521578 154.978039 
C 82.654179 154.978039 82.781368 154.925356 82.875131 154.831592 
C 82.968895 154.737829 83.021578 154.61064 83.021578 154.478039 
C 83.021578 154.345437 82.968895 154.218249 82.875131 154.124486 
C 82.781368 154.030722 82.654179 153.978039 82.521578 153.978039 
C 82.388976 153.978039 82.261788 154.030722 82.168025 154.124486 
C 82.074261 154.218249 82.021578 154.345437 82.021578 154.478039 
C 82.021578 154.61064 82.074261 154.737829 82.168025 154.831592 
C 82.261788 154.925356 82.388976 154.978039 82.521578 154.978039 
z
" clip-path="url(#p2397203246)" style="stroke: #000000"/>
    <path d="M 82.772102 148.32236 
C 82.979635 148.32236 83.178695 148.239906 83.325443 148.093158 
C 83.472191 147.946411 83.554644 147.74735 83.554644 147.539817 
C 83.554644 147.332285 83.472191 147.133224 83.325443 146.986477 
C 83.178695 146.839729 82.979635 146.757275 82.772102 146.757275 
C 82.564569 146.757275 82.365509 146.839729 82.218761 146.986477 
C 82.072013 147.133224 81.98956 147.332285 81.98956 147.539817 
C 81.98956 147.74735 82.072013 147.946411 82.218761 148.093158 
C 82.365509 148.239906 82.564569 148.32236 82.772102 148.32236 
z
" clip-path="url(#p2397203246)" style="stroke: #000000"/>
    <path d="M 78.007494 135.196408 
C 78.550883 135.196408 79.072089 134.980517 79.456324 134.596283 
C 79.840558 134.212049 80.056448 133.690843 80.056448 133.147453 
C 80.056448 132.604064 79.840558 132.082858 79.456324 131.698624 
C 79.072089 131.31439 78.550883 131.098499 78.007494 131.098499 
C 77.464105 131.098499 76.942899 131.31439 76.558665 131.698624 
C 76.17443 132.082858 75.95854 132.604064 75.95854 133.147453 
C 75.95854 133.690843 76.17443 134.212049 76.558665 134.596283 
C 76.942899 134.980517 77.464105 135.196408 78.007494 135.196408 
z
" clip-path="url(#p2397203246)" style="stroke: #000000"/>
    <path d="M 77.344779 132.188757 
C 77.811139 132.188757 78.258461 132.00347 78.588228 131.673704 
C 78.917994 131.343937 79.103281 130.896615 79.103281 130.430255 
C 79.103281 129.963895 78.917994 129.516573 78.588228 129.186806 
C 78.258461 128.85704 77.811139 128.671753 77.344779 128.671753 
C 76.878419 128.671753 76.431097 128.85704 76.10133 129.186806 
C 75.771564 129.516573 75.586277 129.963895 75.586277 130.430255 
C 75.586277 130.896615 75.771564 131.343937 76.10133 131.673704 
C 76.431097 132.00347 76.878419 132.188757 77.344779 132.188757 
z
" clip-path="url(#p2397203246)" style="stroke: #000000"/>
    <path d="M 74.634208 124.312101 
C 75.04149 124.312101 75.432147 124.150286 75.720139 123.862293 
C 76.008132 123.574301 76.169947 123.183644 76.169947 122.776362 
C 76.169947 122.369079 76.008132 121.978422 75.720139 121.69043 
C 75.432147 121.402437 75.04149 121.240622 74.634208 121.240622 
C 74.226925 121.240622 73.836268 121.402437 73.548276 121.69043 
C 73.260283 121.978422 73.098468 122.369079 73.098468 122.776362 
C 73.098468 123.183644 73.260283 123.574301 73.548276 123.862293 
C 73.836268 124.150286 74.226925 124.312101 74.634208 124.312101 
z
" clip-path="url(#p2397203246)" style="stroke: #000000"/>
    <path d="M 72.485386 118.784481 
C 73.024386 118.784481 73.541383 118.570334 73.922514 118.189203 
C 74.303645 117.808072 74.517793 117.291075 74.517793 116.752074 
C 74.517793 116.213073 74.303645 115.696076 73.922514 115.314945 
C 73.541383 114.933814 73.024386 114.719667 72.485386 114.719667 
C 71.946385 114.719667 71.429388 114.933814 71.048257 115.314945 
C 70.667126 115.696076 70.452979 116.213073 70.452979 116.752074 
C 70.452979 117.291075 70.667126 117.808072 71.048257 118.189203 
C 71.429388 118.570334 71.946385 118.784481 72.485386 118.784481 
z
" clip-path="url(#p2397203246)" style="stroke: #000000"/>
    <path d="M 69.372522 112.236422 
C 69.801956 112.236422 70.21386 112.065806 70.517516 111.76215 
C 70.821171 111.458494 70.991788 111.046591 70.991788 110.617156 
C 70.991788 110.187722 70.821171 109.775818 70.517516 109.472162 
C 70.21386 109.168507 69.801956 108.99789 69.372522 108.99789 
C 68.943087 108.99789 68.531184 109.168507 68.227528 109.472162 
C 67.923872 109.775818 67.753256 110.187722 67.753256 110.617156 
C 67.753256 111.046591 67.923872 111.458494 68.227528 111.76215 
C 68.531184 112.065806 68.943087 112.236422 69.372522 112.236422 
z
" clip-path="url(#p2397203246)" style="stroke: #000000"/>
    <path d="M 66.260288 106.939604 
C 66.782205 106.939604 67.282816 106.732244 67.651867 106.363193 
C 68.020918 105.994142 68.228278 105.493531 68.228278 104.971614 
C 68.228278 104.449697 68.020918 103.949086 67.651867 103.580035 
C 67.282816 103.210984 66.782205 103.003624 66.260288 103.003624 
C 65.738371 103.003624 65.237761 103.210984 64.86871 103.580035 
C 64.499659 103.949086 64.292299 104.449697 64.292299 104.971614 
C 64.292299 105.493531 64.499659 105.994142 64.86871 106.363193 
C 65.237761 106.732244 65.738371 106.939604 66.260288 106.939604 
z
" clip-path="url(#p2397203246)" style="stroke: #000000"/>
    <path d="M 65.871134 98.042886 
C 66.028825 98.042886 66.180078 97.980234 66.291582 97.86873 
C 66.403086 97.757226 66.465738 97.605973 66.465738 97.448282 
C 66.465738 97.290591 66.403086 97.139338 66.291582 97.027834 
C 66.180078 96.91633 66.028825 96.853678 65.871134 96.853678 
C 65.713443 96.853678 65.56219 96.91633 65.450686 97.027834 
C 65.339182 97.139338 65.27653 97.290591 65.27653 97.448282 
C 65.27653 97.605973 65.339182 97.757226 65.450686 97.86873 
C 65.56219 97.980234 65.713443 98.042886 65.871134 98.042886 
z
" clip-path="url(#p2397203246)" style="stroke: #000000"/>
    <path d="M 64.477869 94.570622 
C 64.610471 94.570622 64.737659 94.517939 64.831423 94.424176 
C 64.925186 94.330412 64.977869 94.203224 64.977869 94.070622 
C 64.977869 93.938021 64.925186 93.810832 64.831423 93.717069 
C 64.737659 93.623306 64.610471 93.570622 64.477869 93.570622 
C 64.345268 93.570622 64.218079 93.623306 64.124316 93.717069 
C 64.030553 93.810832 63.977869 93.938021 63.977869 94.070622 
C 63.977869 94.203224 64.030553 94.330412 64.124316 94.424176 
C 64.218079 94.517939 64.345268 94.570622 64.477869 94.570622 
z
" clip-path="url(#p2397203246)" style="stroke: #000000"/>
    <path d="M 62.480097 87.350196 
C 62.70977 87.350196 62.930067 87.258946 63.09247 87.096543 
C 63.254873 86.93414 63.346123 86.713843 63.346123 86.484171 
C 63.346123 86.254498 63.254873 86.034201 63.09247 85.871798 
C 62.930067 85.709395 62.70977 85.618145 62.480097 85.618145 
C 62.250425 85.618145 62.030128 85.709395 61.867725 85.871798 
C 61.705322 86.034201 61.614072 86.254498 61.614072 86.484171 
C 61.614072 86.713843 61.705322 86.93414 61.867725 87.096543 
C 62.030128 87.258946 62.250425 87.350196 62.480097 87.350196 
z
" clip-path="url(#p2397203246)" style="stroke: #000000"/>
    <path d="M 59.420825 81.950994 
C 59.720253 81.950994 60.007457 81.83203 60.219185 81.620302 
C 60.430912 81.408575 60.549876 81.121371 60.549876 80.821943 
C 60.549876 80.522515 60.430912 80.235311 60.219185 80.023584 
C 60.007457 79.811857 59.720253 79.692893 59.420825 79.692893 
C 59.121398 79.692893 58.834193 79.811857 58.622466 80.023584 
C 58.410739 80.235311 58.291775 80.522515 58.291775 80.821943 
C 58.291775 81.121371 58.410739 81.408575 58.622466 81.620302 
C 58.834193 81.83203 59.121398 81.950994 59.420825 81.950994 
z
" clip-path="url(#p2397203246)" style="stroke: #000000"/>
    <path d="M 79.914647 163.504929 
C 80.072338 163.504929 80.223591 163.442278 80.335095 163.330774 
C 80.446599 163.219269 80.509251 163.068016 80.509251 162.910325 
C 80.509251 162.752635 80.446599 162.601381 80.335095 162.489877 
C 80.223591 162.378373 80.072338 162.315722 79.914647 162.315722 
C 79.756956 162.315722 79.605703 162.378373 79.494199 162.489877 
C 79.382695 162.601381 79.320044 162.752635 79.320044 162.910325 
C 79.320044 163.068016 79.382695 163.219269 79.494199 163.330774 
C 79.605703 163.442278 79.756956 163.504929 79.914647 163.504929 
z
" clip-path="url(#p2397203246)" style="stroke: #000000"/>
    <path d="M 71.688176 137.187134 
C 72.101062 137.187134 72.497094 137.023093 72.789048 136.731138 
C 73.081003 136.439183 73.245045 136.043152 73.245045 135.630265 
C 73.245045 135.217379 73.081003 134.821348 72.789048 134.529393 
C 72.497094 134.237438 72.101062 134.073397 71.688176 134.073397 
C 71.27529 134.073397 70.879258 134.237438 70.587304 134.529393 
C 70.295349 134.821348 70.131307 135.217379 70.131307 135.630265 
C 70.131307 136.043152 70.295349 136.439183 70.587304 136.731138 
C 70.879258 137.023093 71.27529 137.187134 71.688176 137.187134 
z
" clip-path="url(#p2397203246)" style="stroke: #000000"/>
    <path d="M 69.586454 132.845128 
C 70.160406 132.845128 70.710927 132.617095 71.116772 132.211249 
C 71.522617 131.805404 71.750651 131.254883 71.750651 130.680931 
C 71.750651 130.106979 71.522617 129.556458 71.116772 129.150613 
C 70.710927 128.744768 70.160406 128.516734 69.586454 128.516734 
C 69.012502 128.516734 68.461981 128.744768 68.056136 129.150613 
C 67.65029 129.556458 67.422257 130.106979 67.422257 130.680931 
C 67.422257 131.254883 67.65029 131.805404 68.056136 132.211249 
C 68.461981 132.617095 69.012502 132.845128 69.586454 132.845128 
z
" clip-path="url(#p2397203246)" style="stroke: #000000"/>
    <path d="M 68.840551 129.884089 
C 69.297485 129.884089 69.735765 129.702547 70.058866 129.379446 
C 70.381967 129.056345 70.563509 128.618065 70.563509 128.161131 
C 70.563509 127.704197 70.381967 127.265916 70.058866 126.942815 
C 69.735765 126.619714 69.297485 126.438172 68.840551 126.438172 
C 68.383617 126.438172 67.945336 126.619714 67.622235 126.942815 
C 67.299134 127.265916 67.117593 127.704197 67.117593 128.161131 
C 67.117593 128.618065 67.299134 129.056345 67.622235 129.379446 
C 67.945336 129.702547 68.383617 129.884089 68.840551 129.884089 
z
" clip-path="url(#p2397203246)" style="stroke: #000000"/>
    <path d="M 68.196208 119.248715 
C 68.465462 119.248715 68.723723 119.141739 68.914114 118.951349 
C 69.104505 118.760958 69.21148 118.502696 69.21148 118.233443 
C 69.21148 117.96419 69.104505 117.705929 68.914114 117.515538 
C 68.723723 117.325147 68.465462 117.218172 68.196208 117.218172 
C 67.926955 117.218172 67.668694 117.325147 67.478303 117.515538 
C 67.287912 117.705929 67.180937 117.96419 67.180937 118.233443 
C 67.180937 118.502696 67.287912 118.760958 67.478303 118.951349 
C 67.668694 119.141739 67.926955 119.248715 68.196208 119.248715 
z
" clip-path="url(#p2397203246)" style="stroke: #000000"/>
    <path d="M 63.031259 113.747604 
C 63.324755 113.747604 63.606269 113.630997 63.813802 113.423464 
C 64.021334 113.215931 64.137941 112.934417 64.137941 112.640922 
C 64.137941 112.347426 64.021334 112.065912 63.813802 111.858379 
C 63.606269 111.650847 63.324755 111.53424 63.031259 111.53424 
C 62.737764 111.53424 62.45625 111.650847 62.248717 111.858379 
C 62.041184 112.065912 61.924577 112.347426 61.924577 112.640922 
C 61.924577 112.934417 62.041184 113.215931 62.248717 113.423464 
C 62.45625 113.630997 62.737764 113.747604 63.031259 113.747604 
z
" clip-path="url(#p2397203246)" style="stroke: #000000"/>
    <path d="M 60.587575 109.755154 
C 60.959664 109.755154 61.316563 109.607321 61.579669 109.344215 
C 61.842776 109.081108 61.990608 108.724209 61.990608 108.352121 
C 61.990608 107.980032 61.842776 107.623133 61.579669 107.360026 
C 61.316563 107.09692 60.959664 106.949087 60.587575 106.949087 
C 60.215486 106.949087 59.858587 107.09692 59.595481 107.360026 
C 59.332374 107.623133 59.184542 107.980032 59.184542 108.352121 
C 59.184542 108.724209 59.332374 109.081108 59.595481 109.344215 
C 59.858587 109.607321 60.215486 109.755154 60.587575 109.755154 
z
" clip-path="url(#p2397203246)" style="stroke: #000000"/>
    <path d="M 56.983817 96.682019 
C 57.5553 96.682019 58.103454 96.454967 58.507553 96.050867 
C 58.911653 95.646768 59.138706 95.098614 59.138706 94.527131 
C 59.138706 93.955648 58.911653 93.407494 58.507553 93.003395 
C 58.103454 92.599295 57.5553 92.372243 56.983817 92.372243 
C 56.412334 92.372243 55.864181 92.599295 55.460081 93.003395 
C 55.055981 93.407494 54.828929 93.955648 54.828929 94.527131 
C 54.828929 95.098614 55.055981 95.646768 55.460081 96.050867 
C 55.864181 96.454967 56.412334 96.682019 56.983817 96.682019 
z
" clip-path="url(#p2397203246)" style="stroke: #000000"/>
    <path d="M 56.231842 88.626364 
C 56.478642 88.626364 56.715366 88.52831 56.889879 88.353796 
C 57.064393 88.179283 57.162447 87.942559 57.162447 87.695759 
C 57.162447 87.44896 57.064393 87.212236 56.889879 87.037722 
C 56.715366 86.863209 56.478642 86.765154 56.231842 86.765154 
C 55.985043 86.765154 55.748319 86.863209 55.573805 87.037722 
C 55.399292 87.212236 55.301238 87.44896 55.301238 87.695759 
C 55.301238 87.942559 55.399292 88.179283 55.573805 88.353796 
C 55.748319 88.52831 55.985043 88.626364 56.231842 88.626364 
z
" clip-path="url(#p2397203246)" style="stroke: #000000"/>
    <path d="M 66.960293 143.516141 
C 67.158579 143.516141 67.34877 143.437361 67.488979 143.297152 
C 67.629188 143.156943 67.707968 142.966752 67.707968 142.768467 
C 67.707968 142.570181 67.629188 142.37999 67.488979 142.239781 
C 67.34877 142.099572 67.158579 142.020792 66.960293 142.020792 
C 66.762008 142.020792 66.571817 142.099572 66.431608 142.239781 
C 66.291399 142.37999 66.212619 142.570181 66.212619 142.768467 
C 66.212619 142.966752 66.291399 143.156943 66.431608 143.297152 
C 66.571817 143.437361 66.762008 143.516141 66.960293 143.516141 
z
" clip-path="url(#p2397203246)" style="stroke: #000000"/>
    <path d="M 63.541309 137.229454 
C 63.715822 137.229454 63.883211 137.16012 64.006611 137.03672 
C 64.130011 136.91332 64.199346 136.745931 64.199346 136.571417 
C 64.199346 136.396904 64.130011 136.229515 64.006611 136.106115 
C 63.883211 135.982715 63.715822 135.91338 63.541309 135.91338 
C 63.366795 135.91338 63.199406 135.982715 63.076006 136.106115 
C 62.952607 136.229515 62.883272 136.396904 62.883272 136.571417 
C 62.883272 136.745931 62.952607 136.91332 63.076006 137.03672 
C 63.199406 137.16012 63.366795 137.229454 63.541309 137.229454 
z
" clip-path="url(#p2397203246)" style="stroke: #000000"/>
    <path d="M 60.868576 127.480764 
C 61.299949 127.480764 61.713713 127.309378 62.01874 127.004351 
C 62.323767 126.699324 62.495153 126.285561 62.495153 125.854188 
C 62.495153 125.422814 62.323767 125.009051 62.01874 124.704024 
C 61.713713 124.398997 61.299949 124.227611 60.868576 124.227611 
C 60.437203 124.227611 60.02344 124.398997 59.718413 124.704024 
C 59.413386 125.009051 59.242 125.422814 59.242 125.854188 
C 59.242 126.285561 59.413386 126.699324 59.718413 127.004351 
C 60.02344 127.309378 60.437203 127.480764 60.868576 127.480764 
z
" clip-path="url(#p2397203246)" style="stroke: #000000"/>
    <path d="M 57.174877 122.143766 
C 57.720183 122.143766 58.243228 121.927114 58.628817 121.541524 
C 59.014407 121.155935 59.231059 120.63289 59.231059 120.087584 
C 59.231059 119.542278 59.014407 119.019234 58.628817 118.633644 
C 58.243228 118.248055 57.720183 118.031402 57.174877 118.031402 
C 56.629571 118.031402 56.106527 118.248055 55.720937 118.633644 
C 55.335348 119.019234 55.118695 119.542278 55.118695 120.087584 
C 55.118695 120.63289 55.335348 121.155935 55.720937 121.541524 
C 56.106527 121.927114 56.629571 122.143766 57.174877 122.143766 
z
" clip-path="url(#p2397203246)" style="stroke: #000000"/>
    <path d="M 53.38868 115.171144 
C 53.54637 115.171144 53.697624 115.108492 53.809128 114.996988 
C 53.920632 114.885484 53.983283 114.734231 53.983283 114.57654 
C 53.983283 114.418849 53.920632 114.267596 53.809128 114.156092 
C 53.697624 114.044588 53.54637 113.981936 53.38868 113.981936 
C 53.230989 113.981936 53.079736 114.044588 52.968231 114.156092 
C 52.856727 114.267596 52.794076 114.418849 52.794076 114.57654 
C 52.794076 114.734231 52.856727 114.885484 52.968231 114.996988 
C 53.079736 115.108492 53.230989 115.171144 53.38868 115.171144 
z
" clip-path="url(#p2397203246)" style="stroke: #000000"/>
    <path d="M 54.09081 110.246927 
C 54.631285 110.246927 55.149697 110.032194 55.531871 109.65002 
C 55.914045 109.267846 56.128778 108.749435 56.128778 108.208959 
C 56.128778 107.668484 55.914045 107.150072 55.531871 106.767899 
C 55.149697 106.385725 54.631285 106.170992 54.09081 106.170992 
C 53.550335 106.170992 53.031923 106.385725 52.649749 106.767899 
C 52.267576 107.150072 52.052843 107.668484 52.052843 108.208959 
C 52.052843 108.749435 52.267576 109.267846 52.649749 109.65002 
C 53.031923 110.032194 53.550335 110.246927 54.09081 110.246927 
z
" clip-path="url(#p2397203246)" style="stroke: #000000"/>
    <path d="M 48.821744 100.261128 
C 48.996258 100.261128 49.163647 100.191793 49.287046 100.068394 
C 49.410446 99.944994 49.479781 99.777605 49.479781 99.603091 
C 49.479781 99.428578 49.410446 99.261188 49.287046 99.137789 
C 49.163647 99.014389 48.996258 98.945054 48.821744 98.945054 
C 48.647231 98.945054 48.479841 99.014389 48.356442 99.137789 
C 48.233042 99.261188 48.163707 99.428578 48.163707 99.603091 
C 48.163707 99.777605 48.233042 99.944994 48.356442 100.068394 
C 48.479841 100.191793 48.647231 100.261128 48.821744 100.261128 
z
" clip-path="url(#p2397203246)" style="stroke: #000000"/>
    <path d="M 58.098537 143.015068 
C 58.231138 143.015068 58.358326 142.962385 58.45209 142.868622 
C 58.545853 142.774858 58.598537 142.64767 58.598537 142.515068 
C 58.598537 142.382467 58.545853 142.255279 58.45209 142.161515 
C 58.358326 142.067752 58.231138 142.015068 58.098537 142.015068 
C 57.965935 142.015068 57.838747 142.067752 57.744983 142.161515 
C 57.65122 142.255279 57.598537 142.382467 57.598537 142.515068 
C 57.598537 142.64767 57.65122 142.774858 57.744983 142.868622 
C 57.838747 142.962385 57.965935 143.015068 58.098537 143.015068 
z
" clip-path="url(#p2397203246)" style="stroke: #000000"/>
    <path d="M 56.584821 132.041863 
C 56.926338 132.041863 57.253913 131.906177 57.495401 131.664688 
C 57.73689 131.4232 57.872576 131.095625 57.872576 130.754108 
C 57.872576 130.412592 57.73689 130.085017 57.495401 129.843528 
C 57.253913 129.602039 56.926338 129.466353 56.584821 129.466353 
C 56.243305 129.466353 55.91573 129.602039 55.674241 129.843528 
C 55.432752 130.085017 55.297066 130.412592 55.297066 130.754108 
C 55.297066 131.095625 55.432752 131.4232 55.674241 131.664688 
C 55.91573 131.906177 56.243305 132.041863 56.584821 132.041863 
z
" clip-path="url(#p2397203246)" style="stroke: #000000"/>
    <path d="M 49.747189 112.34764 
C 50.170644 112.34764 50.576812 112.1794 50.87624 111.879972 
C 51.175667 111.580544 51.343908 111.174376 51.343908 110.750921 
C 51.343908 110.327467 51.175667 109.921299 50.87624 109.621871 
C 50.576812 109.322443 50.170644 109.154203 49.747189 109.154203 
C 49.323735 109.154203 48.917567 109.322443 48.618139 109.621871 
C 48.318711 109.921299 48.150471 110.327467 48.150471 110.750921 
C 48.150471 111.174376 48.318711 111.580544 48.618139 111.879972 
C 48.917567 112.1794 49.323735 112.34764 49.747189 112.34764 
z
" clip-path="url(#p2397203246)" style="stroke: #000000"/>
    <path d="M 47.379607 105.739783 
C 47.621096 105.739783 47.852726 105.643839 48.023484 105.47308 
C 48.194243 105.302322 48.290187 105.070692 48.290187 104.829203 
C 48.290187 104.587714 48.194243 104.356084 48.023484 104.185326 
C 47.852726 104.014567 47.621096 103.918623 47.379607 103.918623 
C 47.138118 103.918623 46.906488 104.014567 46.73573 104.185326 
C 46.564971 104.356084 46.469027 104.587714 46.469027 104.829203 
C 46.469027 105.070692 46.564971 105.302322 46.73573 105.47308 
C 46.906488 105.643839 47.138118 105.739783 47.379607 105.739783 
z
" clip-path="url(#p2397203246)" style="stroke: #000000"/>
    <path d="M 43.195088 98.951135 
C 43.352778 98.951135 43.504032 98.888484 43.615536 98.77698 
C 43.72704 98.665476 43.789691 98.514222 43.789691 98.356532 
C 43.789691 98.198841 43.72704 98.047588 43.615536 97.936083 
C 43.504032 97.824579 43.352778 97.761928 43.195088 97.761928 
C 43.037397 97.761928 42.886144 97.824579 42.774639 97.936083 
C 42.663135 98.047588 42.600484 98.198841 42.600484 98.356532 
C 42.600484 98.514222 42.663135 98.665476 42.774639 98.77698 
C 42.886144 98.888484 43.037397 98.951135 43.195088 98.951135 
z
" clip-path="url(#p2397203246)" style="stroke: #000000"/>
    <path d="M 48.668009 131.939352 
C 48.883696 131.939352 49.090578 131.853659 49.243091 131.701146 
C 49.395604 131.548632 49.481298 131.341751 49.481298 131.126064 
C 49.481298 130.910378 49.395604 130.703496 49.243091 130.550982 
C 49.090578 130.398469 48.883696 130.312776 48.668009 130.312776 
C 48.452323 130.312776 48.245441 130.398469 48.092928 130.550982 
C 47.940414 130.703496 47.854721 130.910378 47.854721 131.126064 
C 47.854721 131.341751 47.940414 131.548632 48.092928 131.701146 
C 48.245441 131.853659 48.452323 131.939352 48.668009 131.939352 
z
" clip-path="url(#p2397203246)" style="stroke: #000000"/>
    <path d="M 46.73477 125.232133 
C 46.942303 125.232133 47.141363 125.14968 47.288111 125.002932 
C 47.434859 124.856184 47.517312 124.657124 47.517312 124.449591 
C 47.517312 124.242058 47.434859 124.042998 47.288111 123.89625 
C 47.141363 123.749502 46.942303 123.667049 46.73477 123.667049 
C 46.527237 123.667049 46.328177 123.749502 46.181429 123.89625 
C 46.034681 124.042998 45.952228 124.242058 45.952228 124.449591 
C 45.952228 124.657124 46.034681 124.856184 46.181429 125.002932 
C 46.328177 125.14968 46.527237 125.232133 46.73477 125.232133 
z
" clip-path="url(#p2397203246)" style="stroke: #000000"/>
    <path d="M 38.591201 138.371945 
C 38.723802 138.371945 38.850991 138.319261 38.944754 138.225498 
C 39.038518 138.131735 39.091201 138.004546 39.091201 137.871945 
C 39.091201 137.739343 39.038518 137.612155 38.944754 137.518391 
C 38.850991 137.424628 38.723802 137.371945 38.591201 137.371945 
C 38.458599 137.371945 38.331411 137.424628 38.237647 137.518391 
C 38.143884 137.612155 38.091201 137.739343 38.091201 137.871945 
C 38.091201 138.004546 38.143884 138.131735 38.237647 138.225498 
C 38.331411 138.319261 38.458599 138.371945 38.591201 138.371945 
z
" clip-path="url(#p2397203246)" style="stroke: #000000"/>
   </g>
   <g id="matplotlib.axis_1">
    <g id="xtick_1">
     <g id="line2d_1">
      <defs>
       <path id="ma5f2ee7b38" d="M 0 0 
L 0 3.5 
" style="stroke: #000000; stroke-width: 0.8"/>
      </defs>
      <g>
       <use xlink:href="#ma5f2ee7b38" x="18" y="189" style="stroke: #000000; stroke-width: 0.8"/>
      </g>
     </g>
     <g id="text_1">
      <!-- 10 -->
      <g transform="translate(7.447656 203.598437)scale(0.1 -0.1)">
       <defs>
        <path id="DejaVuSans-2212" d="M 678 2272 
L 4684 2272 
L 4684 1741 
L 678 1741 
L 678 2272 
z
" transform="scale(0.015625)"/>
        <path id="DejaVuSans-31" d="M 794 531 
L 1825 531 
L 1825 4091 
L 703 3866 
L 703 4441 
L 1819 4666 
L 2450 4666 
L 2450 531 
L 3481 531 
L 3481 0 
L 794 0 
L 794 531 
z
" transform="scale(0.015625)"/>
        <path id="DejaVuSans-30" d="M 2034 4250 
Q 1547 4250 1301 3770 
Q 1056 3291 1056 2328 
Q 1056 1369 1301 889 
Q 1547 409 2034 409 
Q 2525 409 2770 889 
Q 3016 1369 3016 2328 
Q 3016 3291 2770 3770 
Q 2525 4250 2034 4250 
z
M 2034 4750 
Q 2819 4750 3233 4129 
Q 3647 3509 3647 2328 
Q 3647 1150 3233 529 
Q 2819 -91 2034 -91 
Q 1250 -91 836 529 
Q 422 1150 422 2328 
Q 422 3509 836 4129 
Q 1250 4750 2034 4750 
z
" transform="scale(0.015625)"/>
       </defs>
       <use xlink:href="#DejaVuSans-2212"/>
       <use xlink:href="#DejaVuSans-31" x="83.789062"/>
       <use xlink:href="#DejaVuSans-30" x="147.412109"/>
      </g>
     </g>
    </g>
    <g id="xtick_2">
     <g id="line2d_2">
      <g>
       <use xlink:href="#ma5f2ee7b38" x="73.8" y="189" style="stroke: #000000; stroke-width: 0.8"/>
      </g>
     </g>
     <g id="text_2">
      <!-- 0 -->
      <g transform="translate(70.61875 203.598437)scale(0.1 -0.1)">
       <use xlink:href="#DejaVuSans-30"/>
      </g>
     </g>
    </g>
    <g id="xtick_3">
     <g id="line2d_3">
      <g>
       <use xlink:href="#ma5f2ee7b38" x="129.6" y="189" style="stroke: #000000; stroke-width: 0.8"/>
      </g>
     </g>
     <g id="text_3">
      <!-- 10 -->
      <g transform="translate(123.2375 203.598437)scale(0.1 -0.1)">
       <use xlink:href="#DejaVuSans-31"/>
       <use xlink:href="#DejaVuSans-30" x="63.623047"/>
      </g>
     </g>
    </g>
   </g>
   <g id="matplotlib.axis_2">
    <g id="ytick_1">
     <g id="line2d_4">
      <defs>
       <path id="ma11cab98bc" d="M 0 0 
L -3.5 0 
" style="stroke: #000000; stroke-width: 0.8"/>
      </defs>
      <g>
       <use xlink:href="#ma11cab98bc" x="18" y="189" style="stroke: #000000; stroke-width: 0.8"/>
      </g>
     </g>
     <g id="text_4">
      <!-- 15 -->
      <g transform="translate(-10.104688 192.799219)scale(0.1 -0.1)">
       <defs>
        <path id="DejaVuSans-35" d="M 691 4666 
L 3169 4666 
L 3169 4134 
L 1269 4134 
L 1269 2991 
Q 1406 3038 1543 3061 
Q 1681 3084 1819 3084 
Q 2600 3084 3056 2656 
Q 3513 2228 3513 1497 
Q 3513 744 3044 326 
Q 2575 -91 1722 -91 
Q 1428 -91 1123 -41 
Q 819 9 494 109 
L 494 744 
Q 775 591 1075 516 
Q 1375 441 1709 441 
Q 2250 441 2565 725 
Q 2881 1009 2881 1497 
Q 2881 1984 2565 2268 
Q 2250 2553 1709 2553 
Q 1456 2553 1204 2497 
Q 953 2441 691 2322 
L 691 4666 
z
" transform="scale(0.015625)"/>
       </defs>
       <use xlink:href="#DejaVuSans-2212"/>
       <use xlink:href="#DejaVuSans-31" x="83.789062"/>
       <use xlink:href="#DejaVuSans-35" x="147.412109"/>
      </g>
     </g>
    </g>
    <g id="ytick_2">
     <g id="line2d_5">
      <g>
       <use xlink:href="#ma11cab98bc" x="18" y="161.82" style="stroke: #000000; stroke-width: 0.8"/>
      </g>
     </g>
     <g id="text_5">
      <!-- 10 -->
      <g transform="translate(-10.104688 165.619219)scale(0.1 -0.1)">
       <use xlink:href="#DejaVuSans-2212"/>
       <use xlink:href="#DejaVuSans-31" x="83.789062"/>
       <use xlink:href="#DejaVuSans-30" x="147.412109"/>
      </g>
     </g>
    </g>
    <g id="ytick_3">
     <g id="line2d_6">
      <g>
       <use xlink:href="#ma11cab98bc" x="18" y="134.64" style="stroke: #000000; stroke-width: 0.8"/>
      </g>
     </g>
     <g id="text_6">
      <!-- 5 -->
      <g transform="translate(-3.742188 138.439219)scale(0.1 -0.1)">
       <use xlink:href="#DejaVuSans-2212"/>
       <use xlink:href="#DejaVuSans-35" x="83.789062"/>
      </g>
     </g>
    </g>
    <g id="ytick_4">
     <g id="line2d_7">
      <g>
       <use xlink:href="#ma11cab98bc" x="18" y="107.46" style="stroke: #000000; stroke-width: 0.8"/>
      </g>
     </g>
     <g id="text_7">
      <!-- 0 -->
      <g transform="translate(4.6375 111.259219)scale(0.1 -0.1)">
       <use xlink:href="#DejaVuSans-30"/>
      </g>
     </g>
    </g>
    <g id="ytick_5">
     <g id="line2d_8">
      <g>
       <use xlink:href="#ma11cab98bc" x="18" y="80.28" style="stroke: #000000; stroke-width: 0.8"/>
      </g>
     </g>
     <g id="text_8">
      <!-- 5 -->
      <g transform="translate(4.6375 84.079219)scale(0.1 -0.1)">
       <use xlink:href="#DejaVuSans-35"/>
      </g>
     </g>
    </g>
    <g id="ytick_6">
     <g id="line2d_9">
      <g>
       <use xlink:href="#ma11cab98bc" x="18" y="53.1" style="stroke: #000000; stroke-width: 0.8"/>
      </g>
     </g>
     <g id="text_9">
      <!-- 10 -->
      <g transform="translate(-1.725 56.899219)scale(0.1 -0.1)">
       <use xlink:href="#DejaVuSans-31"/>
       <use xlink:href="#DejaVuSans-30" x="63.623047"/>
      </g>
     </g>
    </g>
    <g id="ytick_7">
     <g id="line2d_10">
      <g>
       <use xlink:href="#ma11cab98bc" x="18" y="25.92" style="stroke: #000000; stroke-width: 0.8"/>
      </g>
     </g>
     <g id="text_10">
      <!-- 15 -->
      <g transform="translate(-1.725 29.719219)scale(0.1 -0.1)">
       <use xlink:href="#DejaVuSans-31"/>
       <use xlink:href="#DejaVuSans-35" x="63.623047"/>
      </g>
     </g>
    </g>
   </g>
   <g id="patch_3">
    <path d="M 18 189 
L 18 25.92 
" style="fill: none; stroke: #000000; stroke-width: 0.8; stroke-linejoin: miter; stroke-linecap: square"/>
   </g>
   <g id="patch_4">
    <path d="M 129.6 189 
L 129.6 25.92 
" style="fill: none; stroke: #000000; stroke-width: 0.8; stroke-linejoin: miter; stroke-linecap: square"/>
   </g>
   <g id="patch_5">
    <path d="M 18 189 
L 129.6 189 
" style="fill: none; stroke: #000000; stroke-width: 0.8; stroke-linejoin: miter; stroke-linecap: square"/>
   </g>
   <g id="patch_6">
    <path d="M 18 25.92 
L 129.6 25.92 
" style="fill: none; stroke: #000000; stroke-width: 0.8; stroke-linejoin: miter; stroke-linecap: square"/>
   </g>
  </g>
 </g>
 <defs>
  <clipPath id="p2397203246">
   <rect x="18" y="25.92" width="111.6" height="163.08"/>
  </clipPath>
 </defs>
</svg>
