<?xml version="1.0" encoding="utf-8" standalone="no"?>
<!DOCTYPE svg PUBLIC "-//W3C//DTD SVG 1.1//EN"
  "http://www.w3.org/Graphics/SVG/1.1/DTD/svg11.dtd">
<svg xmlns:xlink="http://www.w3.org/1999/xlink" width="144pt" height="216pt" viewBox="0 0 144 216" xmlns="http://www.w3.org/2000/svg" version="1.1">
 <metadata>
  <rdf:RDF xmlns:dc="http://purl.org/dc/elements/1.1/" xmlns:cc="http://creativecommons.org/ns#" xmlns:rdf="http://www.w3.org/1999/02/22-rdf-syntax-ns#">
   <cc:Work>
    <dc:type rdf:resource="http://purl.org/dc/dcmitype/StillImage"/>
    <dc:date>2022-06-23T14:52:52.170517</dc:date>
    <dc:format>image/svg+xml</dc:format>
    <dc:creator>
     <cc:Agent>
      <dc:title>Matplotlib v3.5.1, https://matplotlib.org/</dc:title>
     </cc:Agent>
    </dc:creator>
   </cc:Work>
  </rdf:RDF>
 </metadata>
 <defs>
  <style type="text/css">*{stroke-linejoin: round; stroke-linecap: butt}</style>
 </defs>
 <g id="figure_1">
  <g id="patch_1">
   <path d="M 0 216 
L 144 216 
L 144 0 
L 0 0 
L 0 216 
z
" style="fill: none"/>
  </g>
  <g id="axes_1">
   <g id="patch_2">
    <path d="M 18 189 
L 129.6 189 
L 129.6 25.92 
L 18 25.92 
z
" style="fill: #ffffff"/>
   </g>
   <g id="PathCollection_1">
    <defs>
     <path id="m4d6006e0a7" d="M 0 2.738613 
C 0.726289 2.738613 1.422928 2.450055 1.936492 1.936492 
C 2.450055 1.422928 2.738613 0.726289 2.738613 0 
C 2.738613 -0.726289 2.450055 -1.422928 1.936492 -1.936492 
C 1.422928 -2.450055 0.726289 -2.738613 0 -2.738613 
C -0.726289 -2.738613 -1.422928 -2.450055 -1.936492 -1.936492 
C -2.450055 -1.422928 -2.738613 -0.726289 -2.738613 0 
C -2.738613 0.726289 -2.450055 1.422928 -1.936492 1.936492 
C -1.422928 2.450055 -0.726289 2.738613 0 2.738613 
z
" style="stroke: #ff0000; stroke-width: 1.75"/>
    </defs>
    <g clip-path="url(#p23d394cc4d)">
     <use xlink:href="#m4d6006e0a7" x="80.775" y="107.46" style="fill: #ff0000; stroke: #ff0000; stroke-width: 1.75"/>
     <use xlink:href="#m4d6006e0a7" x="94.725" y="107.46" style="fill: #ff0000; stroke: #ff0000; stroke-width: 1.75"/>
     <use xlink:href="#m4d6006e0a7" x="59.85" y="119.229285" style="fill: #ff0000; stroke: #ff0000; stroke-width: 1.75"/>
     <use xlink:href="#m4d6006e0a7" x="73.8" y="119.229285" style="fill: #ff0000; stroke: #ff0000; stroke-width: 1.75"/>
     <use xlink:href="#m4d6006e0a7" x="87.75" y="119.229285" style="fill: #ff0000; stroke: #ff0000; stroke-width: 1.75"/>
     <use xlink:href="#m4d6006e0a7" x="66.825" y="130.99857" style="fill: #ff0000; stroke: #ff0000; stroke-width: 1.75"/>
     <use xlink:href="#m4d6006e0a7" x="80.775" y="130.99857" style="fill: #ff0000; stroke: #ff0000; stroke-width: 1.75"/>
    </g>
   </g>
   <g id="PathCollection_2">
    <defs>
     <path id="C0_0_35a9727b81" d="M 0 2.738613 
C 0.726289 2.738613 1.422928 2.450055 1.936492 1.936492 
C 2.450055 1.422928 2.738613 0.726289 2.738613 -0 
C 2.738613 -0.726289 2.450055 -1.422928 1.936492 -1.936492 
C 1.422928 -2.450055 0.726289 -2.738613 0 -2.738613 
C -0.726289 -2.738613 -1.422928 -2.450055 -1.936492 -1.936492 
C -2.450055 -1.422928 -2.738613 -0.726289 -2.738613 0 
C -2.738613 0.726289 -2.450055 1.422928 -1.936492 1.936492 
C -1.422928 2.450055 -0.726289 2.738613 0 2.738613 
z
"/>
    </defs>
    <g clip-path="url(#p23d394cc4d)">
     <use xlink:href="#C0_0_35a9727b81" x="66.825" y="83.92143" style="fill: none; stroke: #ff0000; stroke-width: 1.75"/>
    </g>
    <g clip-path="url(#p23d394cc4d)">
     <use xlink:href="#C0_0_35a9727b81" x="80.775" y="83.92143" style="fill: none; stroke: #ff0000; stroke-width: 1.75"/>
    </g>
    <g clip-path="url(#p23d394cc4d)">
     <use xlink:href="#C0_0_35a9727b81" x="59.85" y="95.690715" style="fill: none; stroke: #ff0000; stroke-width: 1.75"/>
    </g>
    <g clip-path="url(#p23d394cc4d)">
     <use xlink:href="#C0_0_35a9727b81" x="73.8" y="95.690715" style="fill: none; stroke: #ff0000; stroke-width: 1.75"/>
    </g>
    <g clip-path="url(#p23d394cc4d)">
     <use xlink:href="#C0_0_35a9727b81" x="87.75" y="95.690715" style="fill: none; stroke: #ff0000; stroke-width: 1.75"/>
    </g>
    <g clip-path="url(#p23d394cc4d)">
     <use xlink:href="#C0_0_35a9727b81" x="52.875" y="107.46" style="fill: none; stroke: #ff0000; stroke-width: 1.75"/>
    </g>
    <g clip-path="url(#p23d394cc4d)">
     <use xlink:href="#C0_0_35a9727b81" x="66.825" y="107.46" style="fill: none; stroke: #ff0000; stroke-width: 1.75"/>
    </g>
   </g>
   <g id="PathCollection_3">
    <path d="M 114.616673 102.645256 
C 114.863472 102.645256 115.100197 102.547201 115.27471 102.372688 
C 115.449224 102.198174 115.547278 101.96145 115.547278 101.714651 
C 115.547278 101.467851 115.449224 101.231127 115.27471 101.056614 
C 115.100197 100.8821 114.863472 100.784046 114.616673 100.784046 
C 114.369874 100.784046 114.13315 100.8821 113.958636 101.056614 
C 113.784123 101.231127 113.686068 101.467851 113.686068 101.714651 
C 113.686068 101.96145 113.784123 102.198174 113.958636 102.372688 
C 114.13315 102.547201 114.369874 102.645256 114.616673 102.645256 
z
" clip-path="url(#p23d394cc4d)" style="stroke: #000000"/>
    <path d="M 112.040889 95.237417 
C 112.19858 95.237417 112.349833 95.174766 112.461337 95.063262 
C 112.572841 94.951757 112.635492 94.800504 112.635492 94.642813 
C 112.635492 94.485123 112.572841 94.333869 112.461337 94.222365 
C 112.349833 94.110861 112.19858 94.04821 112.040889 94.04821 
C 111.883198 94.04821 111.731945 94.110861 111.620441 94.222365 
C 111.508937 94.333869 111.446285 94.485123 111.446285 94.642813 
C 111.446285 94.800504 111.508937 94.951757 111.620441 95.063262 
C 111.731945 95.174766 111.883198 95.237417 112.040889 95.237417 
z
" clip-path="url(#p23d394cc4d)" style="stroke: #000000"/>
    <path d="M 111.685126 111.063278 
C 111.987392 111.063278 112.277319 110.943186 112.491053 110.729451 
C 112.704788 110.515717 112.824879 110.22579 112.824879 109.923524 
C 112.824879 109.621258 112.704788 109.331331 112.491053 109.117597 
C 112.277319 108.903862 111.987392 108.783771 111.685126 108.783771 
C 111.38286 108.783771 111.092933 108.903862 110.879198 109.117597 
C 110.665464 109.331331 110.545372 109.621258 110.545372 109.923524 
C 110.545372 110.22579 110.665464 110.515717 110.879198 110.729451 
C 111.092933 110.943186 111.38286 111.063278 111.685126 111.063278 
z
" clip-path="url(#p23d394cc4d)" style="stroke: #000000"/>
    <path d="M 109.453868 103.451122 
C 109.695357 103.451122 109.926988 103.355178 110.097746 103.184419 
C 110.268504 103.013661 110.364449 102.782031 110.364449 102.540542 
C 110.364449 102.299053 110.268504 102.067423 110.097746 101.896664 
C 109.926988 101.725906 109.695357 101.629962 109.453868 101.629962 
C 109.21238 101.629962 108.980749 101.725906 108.809991 101.896664 
C 108.639233 102.067423 108.543288 102.299053 108.543288 102.540542 
C 108.543288 102.782031 108.639233 103.013661 108.809991 103.184419 
C 108.980749 103.355178 109.21238 103.451122 109.453868 103.451122 
z
" clip-path="url(#p23d394cc4d)" style="stroke: #000000"/>
    <path d="M 107.177373 101.611783 
C 107.309974 101.611783 107.437163 101.5591 107.530926 101.465336 
C 107.62469 101.371573 107.677373 101.244384 107.677373 101.111783 
C 107.677373 100.979181 107.62469 100.851993 107.530926 100.758229 
C 107.437163 100.664466 107.309974 100.611783 107.177373 100.611783 
C 107.044771 100.611783 106.917583 100.664466 106.823819 100.758229 
C 106.730056 100.851993 106.677373 100.979181 106.677373 101.111783 
C 106.677373 101.244384 106.730056 101.371573 106.823819 101.465336 
C 106.917583 101.5591 107.044771 101.611783 107.177373 101.611783 
z
" clip-path="url(#p23d394cc4d)" style="stroke: #000000"/>
    <path d="M 101.046946 86.880633 
C 101.245232 86.880633 101.435423 86.801853 101.575632 86.661644 
C 101.715841 86.521435 101.794621 86.331244 101.794621 86.132958 
C 101.794621 85.934673 101.715841 85.744482 101.575632 85.604272 
C 101.435423 85.464063 101.245232 85.385284 101.046946 85.385284 
C 100.848661 85.385284 100.65847 85.464063 100.518261 85.604272 
C 100.378052 85.744482 100.299272 85.934673 100.299272 86.132958 
C 100.299272 86.331244 100.378052 86.521435 100.518261 86.661644 
C 100.65847 86.801853 100.848661 86.880633 101.046946 86.880633 
z
" clip-path="url(#p23d394cc4d)" style="stroke: #000000"/>
    <path d="M 118.096411 150.954219 
C 118.254101 150.954219 118.405355 150.891568 118.516859 150.780064 
C 118.628363 150.668559 118.691014 150.517306 118.691014 150.359615 
C 118.691014 150.201925 118.628363 150.050671 118.516859 149.939167 
C 118.405355 149.827663 118.254101 149.765012 118.096411 149.765012 
C 117.93872 149.765012 117.787467 149.827663 117.675962 149.939167 
C 117.564458 150.050671 117.501807 150.201925 117.501807 150.359615 
C 117.501807 150.517306 117.564458 150.668559 117.675962 150.780064 
C 117.787467 150.891568 117.93872 150.954219 118.096411 150.954219 
z
" clip-path="url(#p23d394cc4d)" style="stroke: #000000"/>
    <path d="M 117.636562 145.750612 
C 117.844095 145.750612 118.043156 145.668159 118.189903 145.521411 
C 118.336651 145.374663 118.419105 145.175603 118.419105 144.96807 
C 118.419105 144.760537 118.336651 144.561477 118.189903 144.414729 
C 118.043156 144.267981 117.844095 144.185528 117.636562 144.185528 
C 117.42903 144.185528 117.229969 144.267981 117.083221 144.414729 
C 116.936474 144.561477 116.85402 144.760537 116.85402 144.96807 
C 116.85402 145.175603 116.936474 145.374663 117.083221 145.521411 
C 117.229969 145.668159 117.42903 145.750612 117.636562 145.750612 
z
" clip-path="url(#p23d394cc4d)" style="stroke: #000000"/>
    <path d="M 113.146068 138.156223 
C 113.344354 138.156223 113.534545 138.077443 113.674754 137.937234 
C 113.814963 137.797025 113.893743 137.606834 113.893743 137.408548 
C 113.893743 137.210263 113.814963 137.020072 113.674754 136.879863 
C 113.534545 136.739654 113.344354 136.660874 113.146068 136.660874 
C 112.947783 136.660874 112.757592 136.739654 112.617383 136.879863 
C 112.477173 137.020072 112.398394 137.210263 112.398394 137.408548 
C 112.398394 137.606834 112.477173 137.797025 112.617383 137.937234 
C 112.757592 138.077443 112.947783 138.156223 113.146068 138.156223 
z
" clip-path="url(#p23d394cc4d)" style="stroke: #000000"/>
    <path d="M 107.930561 124.599392 
C 108.063162 124.599392 108.190351 124.546709 108.284114 124.452945 
C 108.377877 124.359182 108.430561 124.231993 108.430561 124.099392 
C 108.430561 123.96679 108.377877 123.839602 108.284114 123.745838 
C 108.190351 123.652075 108.063162 123.599392 107.930561 123.599392 
C 107.797959 123.599392 107.670771 123.652075 107.577007 123.745838 
C 107.483244 123.839602 107.430561 123.96679 107.430561 124.099392 
C 107.430561 124.231993 107.483244 124.359182 107.577007 124.452945 
C 107.670771 124.546709 107.797959 124.599392 107.930561 124.599392 
z
" clip-path="url(#p23d394cc4d)" style="stroke: #000000"/>
    <path d="M 106.07917 112.463852 
C 106.418729 112.463852 106.744427 112.328943 106.984532 112.088839 
C 107.224636 111.848734 107.359545 111.523036 107.359545 111.183477 
C 107.359545 110.843918 107.224636 110.51822 106.984532 110.278115 
C 106.744427 110.038011 106.418729 109.903102 106.07917 109.903102 
C 105.73961 109.903102 105.413913 110.038011 105.173808 110.278115 
C 104.933703 110.51822 104.798795 110.843918 104.798795 111.183477 
C 104.798795 111.523036 104.933703 111.848734 105.173808 112.088839 
C 105.413913 112.328943 105.73961 112.463852 106.07917 112.463852 
z
" clip-path="url(#p23d394cc4d)" style="stroke: #000000"/>
    <path d="M 102.062037 107.924372 
C 102.437091 107.924372 102.796834 107.775361 103.062037 107.510158 
C 103.32724 107.244955 103.476251 106.885212 103.476251 106.510158 
C 103.476251 106.135104 103.32724 105.775361 103.062037 105.510158 
C 102.796834 105.244955 102.437091 105.095945 102.062037 105.095945 
C 101.686983 105.095945 101.32724 105.244955 101.062037 105.510158 
C 100.796834 105.775361 100.647823 106.135104 100.647823 106.510158 
C 100.647823 106.885212 100.796834 107.244955 101.062037 107.510158 
C 101.32724 107.775361 101.686983 107.924372 102.062037 107.924372 
z
" clip-path="url(#p23d394cc4d)" style="stroke: #000000"/>
    <path d="M 100.334264 101.460228 
C 100.521791 101.460228 100.701663 101.385723 100.834264 101.253121 
C 100.966866 101.12052 101.041371 100.940648 101.041371 100.753121 
C 101.041371 100.565594 100.966866 100.385723 100.834264 100.253121 
C 100.701663 100.12052 100.521791 100.046014 100.334264 100.046014 
C 100.146737 100.046014 99.966866 100.12052 99.834264 100.253121 
C 99.701663 100.385723 99.627157 100.565594 99.627157 100.753121 
C 99.627157 100.940648 99.701663 101.12052 99.834264 101.253121 
C 99.966866 101.385723 100.146737 101.460228 100.334264 101.460228 
z
" clip-path="url(#p23d394cc4d)" style="stroke: #000000"/>
    <path d="M 97.475411 96.732044 
C 97.838151 96.732044 98.186083 96.587926 98.442579 96.33143 
C 98.699075 96.074934 98.843193 95.727002 98.843193 95.364262 
C 98.843193 95.001522 98.699075 94.653589 98.442579 94.397093 
C 98.186083 94.140597 97.838151 93.996479 97.475411 93.996479 
C 97.112671 93.996479 96.764739 94.140597 96.508243 94.397093 
C 96.251747 94.653589 96.107628 95.001522 96.107628 95.364262 
C 96.107628 95.727002 96.251747 96.074934 96.508243 96.33143 
C 96.764739 96.587926 97.112671 96.732044 97.475411 96.732044 
z
" clip-path="url(#p23d394cc4d)" style="stroke: #000000"/>
    <path d="M 97.335819 88.959607 
C 97.660625 88.959607 97.972172 88.83056 98.201845 88.600888 
C 98.431517 88.371215 98.560564 88.059668 98.560564 87.734862 
C 98.560564 87.410056 98.431517 87.09851 98.201845 86.868837 
C 97.972172 86.639164 97.660625 86.510117 97.335819 86.510117 
C 97.011013 86.510117 96.699466 86.639164 96.469794 86.868837 
C 96.240121 87.09851 96.111074 87.410056 96.111074 87.734862 
C 96.111074 88.059668 96.240121 88.371215 96.469794 88.600888 
C 96.699466 88.83056 97.011013 88.959607 97.335819 88.959607 
z
" clip-path="url(#p23d394cc4d)" style="stroke: #000000"/>
    <path d="M 93.946042 82.512264 
C 94.211246 82.512264 94.465622 82.406897 94.653149 82.219371 
C 94.840676 82.031844 94.946042 81.777467 94.946042 81.512264 
C 94.946042 81.247061 94.840676 80.992684 94.653149 80.805157 
C 94.465622 80.61763 94.211246 80.512264 93.946042 80.512264 
C 93.680839 80.512264 93.426463 80.61763 93.238936 80.805157 
C 93.051409 80.992684 92.946042 81.247061 92.946042 81.512264 
C 92.946042 81.777467 93.051409 82.031844 93.238936 82.219371 
C 93.426463 82.406897 93.680839 82.512264 93.946042 82.512264 
z
" clip-path="url(#p23d394cc4d)" style="stroke: #000000"/>
    <path d="M 82.713052 47.202717 
C 82.870743 47.202717 83.021996 47.140066 83.1335 47.028562 
C 83.245005 46.917058 83.307656 46.765804 83.307656 46.608114 
C 83.307656 46.450423 83.245005 46.29917 83.1335 46.187665 
C 83.021996 46.076161 82.870743 46.01351 82.713052 46.01351 
C 82.555361 46.01351 82.404108 46.076161 82.292604 46.187665 
C 82.1811 46.29917 82.118449 46.450423 82.118449 46.608114 
C 82.118449 46.765804 82.1811 46.917058 82.292604 47.028562 
C 82.404108 47.140066 82.555361 47.202717 82.713052 47.202717 
z
" clip-path="url(#p23d394cc4d)" style="stroke: #000000"/>
    <path d="M 109.951955 149.248245 
C 110.174963 149.248245 110.388868 149.159643 110.546558 149.001953 
C 110.704249 148.844262 110.792851 148.630357 110.792851 148.407349 
C 110.792851 148.184341 110.704249 147.970436 110.546558 147.812746 
C 110.388868 147.655055 110.174963 147.566453 109.951955 147.566453 
C 109.728946 147.566453 109.515042 147.655055 109.357351 147.812746 
C 109.19966 147.970436 109.111058 148.184341 109.111058 148.407349 
C 109.111058 148.630357 109.19966 148.844262 109.357351 149.001953 
C 109.515042 149.159643 109.728946 149.248245 109.951955 149.248245 
z
" clip-path="url(#p23d394cc4d)" style="stroke: #000000"/>
    <path d="M 109.179039 135.099209 
C 109.31164 135.099209 109.438829 135.046526 109.532592 134.952763 
C 109.626356 134.858999 109.679039 134.731811 109.679039 134.599209 
C 109.679039 134.466608 109.626356 134.339419 109.532592 134.245656 
C 109.438829 134.151893 109.31164 134.099209 109.179039 134.099209 
C 109.046437 134.099209 108.919249 134.151893 108.825485 134.245656 
C 108.731722 134.339419 108.679039 134.466608 108.679039 134.599209 
C 108.679039 134.731811 108.731722 134.858999 108.825485 134.952763 
C 108.919249 135.046526 109.046437 135.099209 109.179039 135.099209 
z
" clip-path="url(#p23d394cc4d)" style="stroke: #000000"/>
    <path d="M 104.999959 126.583478 
C 105.132561 126.583478 105.259749 126.530795 105.353512 126.437032 
C 105.447276 126.343268 105.499959 126.21608 105.499959 126.083478 
C 105.499959 125.950877 105.447276 125.823688 105.353512 125.729925 
C 105.259749 125.636161 105.132561 125.583478 104.999959 125.583478 
C 104.867357 125.583478 104.740169 125.636161 104.646406 125.729925 
C 104.552642 125.823688 104.499959 125.950877 104.499959 126.083478 
C 104.499959 126.21608 104.552642 126.343268 104.646406 126.437032 
C 104.740169 126.530795 104.867357 126.583478 104.999959 126.583478 
z
" clip-path="url(#p23d394cc4d)" style="stroke: #000000"/>
    <path d="M 102.659629 123.430136 
C 102.792231 123.430136 102.919419 123.377453 103.013183 123.28369 
C 103.106946 123.189926 103.159629 123.062738 103.159629 122.930136 
C 103.159629 122.797535 103.106946 122.670347 103.013183 122.576583 
C 102.919419 122.48282 102.792231 122.430136 102.659629 122.430136 
C 102.527028 122.430136 102.399839 122.48282 102.306076 122.576583 
C 102.212312 122.670347 102.159629 122.797535 102.159629 122.930136 
C 102.159629 123.062738 102.212312 123.189926 102.306076 123.28369 
C 102.399839 123.377453 102.527028 123.430136 102.659629 123.430136 
z
" clip-path="url(#p23d394cc4d)" style="stroke: #000000"/>
    <path d="M 98.789024 114.231081 
C 99.191652 114.231081 99.577843 114.071116 99.862543 113.786415 
C 100.147244 113.501714 100.30721 113.115523 100.30721 112.712896 
C 100.30721 112.310269 100.147244 111.924078 99.862543 111.639377 
C 99.577843 111.354676 99.191652 111.194711 98.789024 111.194711 
C 98.386397 111.194711 98.000206 111.354676 97.715505 111.639377 
C 97.430805 111.924078 97.270839 112.310269 97.270839 112.712896 
C 97.270839 113.115523 97.430805 113.501714 97.715505 113.786415 
C 98.000206 114.071116 98.386397 114.231081 98.789024 114.231081 
z
" clip-path="url(#p23d394cc4d)" style="stroke: #000000"/>
    <path d="M 94.502199 110.146615 
C 95.151812 110.146615 95.774905 109.888522 96.23425 109.429176 
C 96.693595 108.969831 96.951689 108.346738 96.951689 107.697126 
C 96.951689 107.047513 96.693595 106.42442 96.23425 105.965075 
C 95.774905 105.50573 95.151812 105.247636 94.502199 105.247636 
C 93.852587 105.247636 93.229494 105.50573 92.770149 105.965075 
C 92.310803 106.42442 92.05271 107.047513 92.05271 107.697126 
C 92.05271 108.346738 92.310803 108.969831 92.770149 109.429176 
C 93.229494 109.888522 93.852587 110.146615 94.502199 110.146615 
z
" clip-path="url(#p23d394cc4d)" style="stroke: #000000"/>
    <path d="M 92.916212 106.37163 
C 93.451723 106.37163 93.965374 106.158869 94.344038 105.780205 
C 94.722702 105.401541 94.935463 104.88789 94.935463 104.352379 
C 94.935463 103.816867 94.722702 103.303216 94.344038 102.924552 
C 93.965374 102.545888 93.451723 102.333127 92.916212 102.333127 
C 92.3807 102.333127 91.867049 102.545888 91.488385 102.924552 
C 91.109721 103.303216 90.89696 103.816867 90.89696 104.352379 
C 90.89696 104.88789 91.109721 105.401541 91.488385 105.780205 
C 91.867049 106.158869 92.3807 106.37163 92.916212 106.37163 
z
" clip-path="url(#p23d394cc4d)" style="stroke: #000000"/>
    <path d="M 96.551204 96.352954 
C 96.91714 96.352954 97.268138 96.207566 97.526894 95.94881 
C 97.78565 95.690054 97.931038 95.339056 97.931038 94.973119 
C 97.931038 94.607183 97.78565 94.256185 97.526894 93.997429 
C 97.268138 93.738673 96.91714 93.593285 96.551204 93.593285 
C 96.185267 93.593285 95.834269 93.738673 95.575513 93.997429 
C 95.316757 94.256185 95.171369 94.607183 95.171369 94.973119 
C 95.171369 95.339056 95.316757 95.690054 95.575513 95.94881 
C 95.834269 96.207566 96.185267 96.352954 96.551204 96.352954 
z
" clip-path="url(#p23d394cc4d)" style="stroke: #000000"/>
    <path d="M 89.22956 89.268013 
C 89.362162 89.268013 89.48935 89.21533 89.583114 89.121567 
C 89.676877 89.027803 89.72956 88.900615 89.72956 88.768013 
C 89.72956 88.635412 89.676877 88.508224 89.583114 88.41446 
C 89.48935 88.320697 89.362162 88.268013 89.22956 88.268013 
C 89.096959 88.268013 88.96977 88.320697 88.876007 88.41446 
C 88.782244 88.508224 88.72956 88.635412 88.72956 88.768013 
C 88.72956 88.900615 88.782244 89.027803 88.876007 89.121567 
C 88.96977 89.21533 89.096959 89.268013 89.22956 89.268013 
z
" clip-path="url(#p23d394cc4d)" style="stroke: #000000"/>
    <path d="M 88.19712 84.600039 
C 88.593691 84.600039 88.974073 84.44248 89.254491 84.162062 
C 89.534909 83.881644 89.692469 83.501262 89.692469 83.10469 
C 89.692469 82.708119 89.534909 82.327737 89.254491 82.047319 
C 88.974073 81.766901 88.593691 81.609342 88.19712 81.609342 
C 87.800549 81.609342 87.420167 81.766901 87.139748 82.047319 
C 86.85933 82.327737 86.701771 82.708119 86.701771 83.10469 
C 86.701771 83.501262 86.85933 83.881644 87.139748 84.162062 
C 87.420167 84.44248 87.800549 84.600039 88.19712 84.600039 
z
" clip-path="url(#p23d394cc4d)" style="stroke: #000000"/>
    <path d="M 84.167287 80.248079 
C 84.521644 80.248079 84.861536 80.107292 85.112104 79.856723 
C 85.362672 79.606155 85.50346 79.266264 85.50346 78.911907 
C 85.50346 78.55755 85.362672 78.217658 85.112104 77.96709 
C 84.861536 77.716522 84.521644 77.575734 84.167287 77.575734 
C 83.81293 77.575734 83.473039 77.716522 83.222471 77.96709 
C 82.971902 78.217658 82.831115 78.55755 82.831115 78.911907 
C 82.831115 79.266264 82.971902 79.606155 83.222471 79.856723 
C 83.473039 80.107292 83.81293 80.248079 84.167287 80.248079 
z
" clip-path="url(#p23d394cc4d)" style="stroke: #000000"/>
    <path d="M 81.482684 67.619819 
C 81.729483 67.619819 81.966208 67.521764 82.140721 67.347251 
C 82.315234 67.172738 82.413289 66.936013 82.413289 66.689214 
C 82.413289 66.442415 82.315234 66.20569 82.140721 66.031177 
C 81.966208 65.856664 81.729483 65.758609 81.482684 65.758609 
C 81.235885 65.758609 80.99916 65.856664 80.824647 66.031177 
C 80.650134 66.20569 80.552079 66.442415 80.552079 66.689214 
C 80.552079 66.936013 80.650134 67.172738 80.824647 67.347251 
C 80.99916 67.521764 81.235885 67.619819 81.482684 67.619819 
z
" clip-path="url(#p23d394cc4d)" style="stroke: #000000"/>
    <path d="M 78.760487 60.59552 
C 78.976173 60.59552 79.183055 60.509827 79.335568 60.357314 
C 79.488082 60.2048 79.573775 59.997919 79.573775 59.782232 
C 79.573775 59.566545 79.488082 59.359664 79.335568 59.20715 
C 79.183055 59.054637 78.976173 58.968944 78.760487 58.968944 
C 78.5448 58.968944 78.337918 59.054637 78.185405 59.20715 
C 78.032892 59.359664 77.947198 59.566545 77.947198 59.782232 
C 77.947198 59.997919 78.032892 60.2048 78.185405 60.357314 
C 78.337918 60.509827 78.5448 60.59552 78.760487 60.59552 
z
" clip-path="url(#p23d394cc4d)" style="stroke: #000000"/>
    <path d="M 111.916207 170.69027 
C 112.048808 170.69027 112.175997 170.637586 112.26976 170.543823 
C 112.363524 170.45006 112.416207 170.322871 112.416207 170.19027 
C 112.416207 170.057668 112.363524 169.93048 112.26976 169.836716 
C 112.175997 169.742953 112.048808 169.69027 111.916207 169.69027 
C 111.783605 169.69027 111.656417 169.742953 111.562653 169.836716 
C 111.46889 169.93048 111.416207 170.057668 111.416207 170.19027 
C 111.416207 170.322871 111.46889 170.45006 111.562653 170.543823 
C 111.656417 170.637586 111.783605 170.69027 111.916207 170.69027 
z
" clip-path="url(#p23d394cc4d)" style="stroke: #000000"/>
    <path d="M 113.127831 168.822812 
C 113.260433 168.822812 113.387621 168.770128 113.481385 168.676365 
C 113.575148 168.582601 113.627831 168.455413 113.627831 168.322812 
C 113.627831 168.19021 113.575148 168.063022 113.481385 167.969258 
C 113.387621 167.875495 113.260433 167.822812 113.127831 167.822812 
C 112.99523 167.822812 112.868041 167.875495 112.774278 167.969258 
C 112.680514 168.063022 112.627831 168.19021 112.627831 168.322812 
C 112.627831 168.455413 112.680514 168.582601 112.774278 168.676365 
C 112.868041 168.770128 112.99523 168.822812 113.127831 168.822812 
z
" clip-path="url(#p23d394cc4d)" style="stroke: #000000"/>
    <path d="M 104.547204 146.910967 
C 104.770212 146.910967 104.984117 146.822365 105.141807 146.664675 
C 105.299498 146.506984 105.3881 146.293079 105.3881 146.070071 
C 105.3881 145.847063 105.299498 145.633158 105.141807 145.475467 
C 104.984117 145.317777 104.770212 145.229175 104.547204 145.229175 
C 104.324195 145.229175 104.110291 145.317777 103.9526 145.475467 
C 103.79491 145.633158 103.706307 145.847063 103.706307 146.070071 
C 103.706307 146.293079 103.79491 146.506984 103.9526 146.664675 
C 104.110291 146.822365 104.324195 146.910967 104.547204 146.910967 
z
" clip-path="url(#p23d394cc4d)" style="stroke: #000000"/>
    <path d="M 102.14875 143.808941 
C 102.281351 143.808941 102.40854 143.756257 102.502303 143.662494 
C 102.596066 143.56873 102.64875 143.441542 102.64875 143.308941 
C 102.64875 143.176339 102.596066 143.049151 102.502303 142.955387 
C 102.40854 142.861624 102.281351 142.808941 102.14875 142.808941 
C 102.016148 142.808941 101.88896 142.861624 101.795196 142.955387 
C 101.701433 143.049151 101.64875 143.176339 101.64875 143.308941 
C 101.64875 143.441542 101.701433 143.56873 101.795196 143.662494 
C 101.88896 143.756257 102.016148 143.808941 102.14875 143.808941 
z
" clip-path="url(#p23d394cc4d)" style="stroke: #000000"/>
    <path d="M 98.146711 129.036504 
C 98.279313 129.036504 98.406501 128.983821 98.500264 128.890058 
C 98.594028 128.796294 98.646711 128.669106 98.646711 128.536504 
C 98.646711 128.403903 98.594028 128.276714 98.500264 128.182951 
C 98.406501 128.089187 98.279313 128.036504 98.146711 128.036504 
C 98.014109 128.036504 97.886921 128.089187 97.793158 128.182951 
C 97.699394 128.276714 97.646711 128.403903 97.646711 128.536504 
C 97.646711 128.669106 97.699394 128.796294 97.793158 128.890058 
C 97.886921 128.983821 98.014109 129.036504 98.146711 129.036504 
z
" clip-path="url(#p23d394cc4d)" style="stroke: #000000"/>
    <path d="M 94.657202 122.558542 
C 94.814892 122.558542 94.966146 122.49589 95.07765 122.384386 
C 95.189154 122.272882 95.251805 122.121629 95.251805 121.963938 
C 95.251805 121.806247 95.189154 121.654994 95.07765 121.54349 
C 94.966146 121.431986 94.814892 121.369334 94.657202 121.369334 
C 94.499511 121.369334 94.348257 121.431986 94.236753 121.54349 
C 94.125249 121.654994 94.062598 121.806247 94.062598 121.963938 
C 94.062598 122.121629 94.125249 122.272882 94.236753 122.384386 
C 94.348257 122.49589 94.499511 122.558542 94.657202 122.558542 
z
" clip-path="url(#p23d394cc4d)" style="stroke: #000000"/>
    <path d="M 91.579617 119.397205 
C 92.009051 119.397205 92.420955 119.226589 92.724611 118.922933 
C 93.028266 118.619277 93.198883 118.207374 93.198883 117.777939 
C 93.198883 117.348505 93.028266 116.936601 92.724611 116.632945 
C 92.420955 116.329289 92.009051 116.158673 91.579617 116.158673 
C 91.150182 116.158673 90.738279 116.329289 90.434623 116.632945 
C 90.130967 116.936601 89.960351 117.348505 89.960351 117.777939 
C 89.960351 118.207374 90.130967 118.619277 90.434623 118.922933 
C 90.738279 119.226589 91.150182 119.397205 91.579617 119.397205 
z
" clip-path="url(#p23d394cc4d)" style="stroke: #000000"/>
    <path d="M 90.651267 111.175113 
C 90.994708 111.175113 91.324128 111.038663 91.566977 110.795814 
C 91.809827 110.552964 91.946277 110.223544 91.946277 109.880103 
C 91.946277 109.536662 91.809827 109.207242 91.566977 108.964393 
C 91.324128 108.721544 90.994708 108.585093 90.651267 108.585093 
C 90.307826 108.585093 89.978406 108.721544 89.735557 108.964393 
C 89.492707 109.207242 89.356257 109.536662 89.356257 109.880103 
C 89.356257 110.223544 89.492707 110.552964 89.735557 110.795814 
C 89.978406 111.038663 90.307826 111.175113 90.651267 111.175113 
z
" clip-path="url(#p23d394cc4d)" style="stroke: #000000"/>
    <path d="M 89.201141 105.381515 
C 89.399427 105.381515 89.589618 105.302736 89.729827 105.162527 
C 89.870036 105.022317 89.948815 104.832126 89.948815 104.633841 
C 89.948815 104.435555 89.870036 104.245364 89.729827 104.105155 
C 89.589618 103.964946 89.399427 103.886167 89.201141 103.886167 
C 89.002855 103.886167 88.812664 103.964946 88.672455 104.105155 
C 88.532246 104.245364 88.453467 104.435555 88.453467 104.633841 
C 88.453467 104.832126 88.532246 105.022317 88.672455 105.162527 
C 88.812664 105.302736 89.002855 105.381515 89.201141 105.381515 
z
" clip-path="url(#p23d394cc4d)" style="stroke: #000000"/>
    <path d="M 83.224922 97.255741 
C 83.560462 97.255741 83.882304 97.122429 84.119567 96.885166 
C 84.35683 96.647904 84.490141 96.326061 84.490141 95.990521 
C 84.490141 95.654981 84.35683 95.333138 84.119567 95.095875 
C 83.882304 94.858613 83.560462 94.725301 83.224922 94.725301 
C 82.889381 94.725301 82.567539 94.858613 82.330276 95.095875 
C 82.093013 95.333138 81.959702 95.654981 81.959702 95.990521 
C 81.959702 96.326061 82.093013 96.647904 82.330276 96.885166 
C 82.567539 97.122429 82.889381 97.255741 83.224922 97.255741 
z
" clip-path="url(#p23d394cc4d)" style="stroke: #000000"/>
    <path d="M 85.127702 95.963155 
C 85.697103 95.963155 86.24326 95.73693 86.645887 95.334302 
C 87.048514 94.931675 87.27474 94.385518 87.27474 93.816117 
C 87.27474 93.246716 87.048514 92.700559 86.645887 92.297932 
C 86.24326 91.895305 85.697103 91.669079 85.127702 91.669079 
C 84.558301 91.669079 84.012144 91.895305 83.609517 92.297932 
C 83.206889 92.700559 82.980664 93.246716 82.980664 93.816117 
C 82.980664 94.385518 83.206889 94.931675 83.609517 95.334302 
C 84.012144 95.73693 84.558301 95.963155 85.127702 95.963155 
z
" clip-path="url(#p23d394cc4d)" style="stroke: #000000"/>
    <path d="M 79.734091 88.699202 
C 80.354435 88.699202 80.949454 88.452737 81.388104 88.014088 
C 81.826753 87.575438 82.073218 86.980419 82.073218 86.360075 
C 82.073218 85.739731 81.826753 85.144711 81.388104 84.706062 
C 80.949454 84.267413 80.354435 84.020947 79.734091 84.020947 
C 79.113747 84.020947 78.518727 84.267413 78.080078 84.706062 
C 77.641429 85.144711 77.394963 85.739731 77.394963 86.360075 
C 77.394963 86.980419 77.641429 87.575438 78.080078 88.014088 
C 78.518727 88.452737 79.113747 88.699202 79.734091 88.699202 
z
" clip-path="url(#p23d394cc4d)" style="stroke: #000000"/>
    <path d="M 78.805993 78.918539 
C 78.980507 78.918539 79.147896 78.849204 79.271296 78.725804 
C 79.394695 78.602405 79.46403 78.435015 79.46403 78.260502 
C 79.46403 78.085988 79.394695 77.918599 79.271296 77.795199 
C 79.147896 77.6718 78.980507 77.602465 78.805993 77.602465 
C 78.63148 77.602465 78.46409 77.6718 78.340691 77.795199 
C 78.217291 77.918599 78.147956 78.085988 78.147956 78.260502 
C 78.147956 78.435015 78.217291 78.602405 78.340691 78.725804 
C 78.46409 78.849204 78.63148 78.918539 78.805993 78.918539 
z
" clip-path="url(#p23d394cc4d)" style="stroke: #000000"/>
    <path d="M 75.902377 74.655736 
C 76.217759 74.655736 76.520265 74.530434 76.743274 74.307425 
C 76.966282 74.084417 77.091584 73.78191 77.091584 73.466529 
C 77.091584 73.151148 76.966282 72.848641 76.743274 72.625633 
C 76.520265 72.402624 76.217759 72.277322 75.902377 72.277322 
C 75.586996 72.277322 75.284489 72.402624 75.061481 72.625633 
C 74.838473 72.848641 74.71317 73.151148 74.71317 73.466529 
C 74.71317 73.78191 74.838473 74.084417 75.061481 74.307425 
C 75.284489 74.530434 75.586996 74.655736 75.902377 74.655736 
z
" clip-path="url(#p23d394cc4d)" style="stroke: #000000"/>
    <path d="M 77.562894 62.454624 
C 77.770426 62.454624 77.969487 62.372171 78.116235 62.225423 
C 78.262982 62.078675 78.345436 61.879614 78.345436 61.672082 
C 78.345436 61.464549 78.262982 61.265489 78.116235 61.118741 
C 77.969487 60.971993 77.770426 60.88954 77.562894 60.88954 
C 77.355361 60.88954 77.156301 60.971993 77.009553 61.118741 
C 76.862805 61.265489 76.780351 61.464549 76.780351 61.672082 
C 76.780351 61.879614 76.862805 62.078675 77.009553 62.225423 
C 77.156301 62.372171 77.355361 62.454624 77.562894 62.454624 
z
" clip-path="url(#p23d394cc4d)" style="stroke: #000000"/>
    <path d="M 72.857782 55.024733 
C 73.045309 55.024733 73.22518 54.950228 73.357782 54.817626 
C 73.490383 54.685024 73.564889 54.505153 73.564889 54.317626 
C 73.564889 54.130099 73.490383 53.950228 73.357782 53.817626 
C 73.22518 53.685024 73.045309 53.610519 72.857782 53.610519 
C 72.670255 53.610519 72.490383 53.685024 72.357782 53.817626 
C 72.22518 53.950228 72.150675 54.130099 72.150675 54.317626 
C 72.150675 54.505153 72.22518 54.685024 72.357782 54.817626 
C 72.490383 54.950228 72.670255 55.024733 72.857782 55.024733 
z
" clip-path="url(#p23d394cc4d)" style="stroke: #000000"/>
    <path d="M 102.723918 162.759877 
C 102.939605 162.759877 103.146486 162.674183 103.299 162.52167 
C 103.451513 162.369157 103.537207 162.162275 103.537207 161.946588 
C 103.537207 161.730902 103.451513 161.52402 103.299 161.371507 
C 103.146486 161.218993 102.939605 161.1333 102.723918 161.1333 
C 102.508232 161.1333 102.30135 161.218993 102.148837 161.371507 
C 101.996323 161.52402 101.91063 161.730902 101.91063 161.946588 
C 101.91063 162.162275 101.996323 162.369157 102.148837 162.52167 
C 102.30135 162.674183 102.508232 162.759877 102.723918 162.759877 
z
" clip-path="url(#p23d394cc4d)" style="stroke: #000000"/>
    <path d="M 101.138151 157.389758 
C 101.312665 157.389758 101.480054 157.320423 101.603454 157.197024 
C 101.726853 157.073624 101.796188 156.906235 101.796188 156.731721 
C 101.796188 156.557208 101.726853 156.389819 101.603454 156.266419 
C 101.480054 156.143019 101.312665 156.073684 101.138151 156.073684 
C 100.963638 156.073684 100.796248 156.143019 100.672849 156.266419 
C 100.549449 156.389819 100.480114 156.557208 100.480114 156.731721 
C 100.480114 156.906235 100.549449 157.073624 100.672849 157.197024 
C 100.796248 157.320423 100.963638 157.389758 101.138151 157.389758 
z
" clip-path="url(#p23d394cc4d)" style="stroke: #000000"/>
    <path d="M 90.366567 132.753794 
C 90.524258 132.753794 90.675511 132.691143 90.787015 132.579639 
C 90.89852 132.468134 90.961171 132.316881 90.961171 132.15919 
C 90.961171 132.0015 90.89852 131.850246 90.787015 131.738742 
C 90.675511 131.627238 90.524258 131.564587 90.366567 131.564587 
C 90.208877 131.564587 90.057623 131.627238 89.946119 131.738742 
C 89.834615 131.850246 89.771964 132.0015 89.771964 132.15919 
C 89.771964 132.316881 89.834615 132.468134 89.946119 132.579639 
C 90.057623 132.691143 90.208877 132.753794 90.366567 132.753794 
z
" clip-path="url(#p23d394cc4d)" style="stroke: #000000"/>
    <path d="M 91.08786 124.532894 
C 91.552688 124.532894 91.998541 124.348216 92.327225 124.019532 
C 92.655908 123.690849 92.840586 123.244996 92.840586 122.780167 
C 92.840586 122.315339 92.655908 121.869486 92.327225 121.540802 
C 91.998541 121.212119 91.552688 121.027441 91.08786 121.027441 
C 90.623031 121.027441 90.177178 121.212119 89.848495 121.540802 
C 89.519811 121.869486 89.335133 122.315339 89.335133 122.780167 
C 89.335133 123.244996 89.519811 123.690849 89.848495 124.019532 
C 90.177178 124.348216 90.623031 124.532894 91.08786 124.532894 
z
" clip-path="url(#p23d394cc4d)" style="stroke: #000000"/>
    <path d="M 85.532232 119.262133 
C 86.067743 119.262133 86.581394 119.049371 86.960058 118.670707 
C 87.338722 118.292043 87.551483 117.778393 87.551483 117.242881 
C 87.551483 116.707369 87.338722 116.193719 86.960058 115.815055 
C 86.581394 115.436391 86.067743 115.22363 85.532232 115.22363 
C 84.99672 115.22363 84.483069 115.436391 84.104405 115.815055 
C 83.725741 116.193719 83.51298 116.707369 83.51298 117.242881 
C 83.51298 117.778393 83.725741 118.292043 84.104405 118.670707 
C 84.483069 119.049371 84.99672 119.262133 85.532232 119.262133 
z
" clip-path="url(#p23d394cc4d)" style="stroke: #000000"/>
    <path d="M 84.588058 113.798121 
C 85.028753 113.798121 85.451458 113.623031 85.763077 113.311412 
C 86.074696 112.999794 86.249786 112.577089 86.249786 112.136393 
C 86.249786 111.695698 86.074696 111.272993 85.763077 110.961374 
C 85.451458 110.649755 85.028753 110.474665 84.588058 110.474665 
C 84.147362 110.474665 83.724657 110.649755 83.413038 110.961374 
C 83.10142 111.272993 82.92633 111.695698 82.92633 112.136393 
C 82.92633 112.577089 83.10142 112.999794 83.413038 113.311412 
C 83.724657 113.623031 84.147362 113.798121 84.588058 113.798121 
z
" clip-path="url(#p23d394cc4d)" style="stroke: #000000"/>
    <path d="M 82.682966 108.927226 
C 83.2362 108.927226 83.76685 108.707424 84.158046 108.316228 
C 84.549242 107.925032 84.769044 107.394382 84.769044 106.841148 
C 84.769044 106.287913 84.549242 105.757263 84.158046 105.366068 
C 83.76685 104.974872 83.2362 104.755069 82.682966 104.755069 
C 82.129731 104.755069 81.599081 104.974872 81.207885 105.366068 
C 80.816689 105.757263 80.596887 106.287913 80.596887 106.841148 
C 80.596887 107.394382 80.816689 107.925032 81.207885 108.316228 
C 81.599081 108.707424 82.129731 108.927226 82.682966 108.927226 
z
" clip-path="url(#p23d394cc4d)" style="stroke: #000000"/>
    <path d="M 82.354228 101.046325 
C 82.601027 101.046325 82.837752 100.948271 83.012265 100.773757 
C 83.186779 100.599244 83.284833 100.362519 83.284833 100.11572 
C 83.284833 99.868921 83.186779 99.632197 83.012265 99.457683 
C 82.837752 99.28317 82.601027 99.185115 82.354228 99.185115 
C 82.107429 99.185115 81.870705 99.28317 81.696191 99.457683 
C 81.521678 99.632197 81.423623 99.868921 81.423623 100.11572 
C 81.423623 100.362519 81.521678 100.599244 81.696191 100.773757 
C 81.870705 100.948271 82.107429 101.046325 82.354228 101.046325 
z
" clip-path="url(#p23d394cc4d)" style="stroke: #000000"/>
    <path d="M 78.399909 95.096852 
C 78.827378 95.096852 79.237397 94.927017 79.539663 94.624751 
C 79.841929 94.322485 80.011764 93.912466 80.011764 93.484997 
C 80.011764 93.057529 79.841929 92.64751 79.539663 92.345244 
C 79.237397 92.042978 78.827378 91.873143 78.399909 91.873143 
C 77.97244 91.873143 77.562422 92.042978 77.260156 92.345244 
C 76.95789 92.64751 76.788054 93.057529 76.788054 93.484997 
C 76.788054 93.912466 76.95789 94.322485 77.260156 94.624751 
C 77.562422 94.927017 77.97244 95.096852 78.399909 95.096852 
z
" clip-path="url(#p23d394cc4d)" style="stroke: #000000"/>
    <path d="M 78.671917 89.403916 
C 79.11706 89.403916 79.544031 89.227058 79.858794 88.912295 
C 80.173558 88.597531 80.350415 88.17056 80.350415 87.725417 
C 80.350415 87.280274 80.173558 86.853303 79.858794 86.53854 
C 79.544031 86.223776 79.11706 86.046919 78.671917 86.046919 
C 78.226774 86.046919 77.799803 86.223776 77.485039 86.53854 
C 77.170276 86.853303 76.993418 87.280274 76.993418 87.725417 
C 76.993418 88.17056 77.170276 88.597531 77.485039 88.912295 
C 77.799803 89.227058 78.226774 89.403916 78.671917 89.403916 
z
" clip-path="url(#p23d394cc4d)" style="stroke: #000000"/>
    <path d="M 75.366756 78.891678 
C 75.719364 78.891678 76.057576 78.751585 76.306907 78.502254 
C 76.556238 78.252923 76.69633 77.914711 76.69633 77.562104 
C 76.69633 77.209496 76.556238 76.871284 76.306907 76.621953 
C 76.057576 76.372622 75.719364 76.23253 75.366756 76.23253 
C 75.014149 76.23253 74.675937 76.372622 74.426606 76.621953 
C 74.177275 76.871284 74.037182 77.209496 74.037182 77.562104 
C 74.037182 77.914711 74.177275 78.252923 74.426606 78.502254 
C 74.675937 78.751585 75.014149 78.891678 75.366756 78.891678 
z
" clip-path="url(#p23d394cc4d)" style="stroke: #000000"/>
    <path d="M 68.771838 70.538255 
C 69.062228 70.538255 69.340762 70.422882 69.546099 70.217546 
C 69.751435 70.01221 69.866808 69.733675 69.866808 69.443286 
C 69.866808 69.152897 69.751435 68.874362 69.546099 68.669026 
C 69.340762 68.463689 69.062228 68.348316 68.771838 68.348316 
C 68.481449 68.348316 68.202914 68.463689 67.997578 68.669026 
C 67.792242 68.874362 67.676869 69.152897 67.676869 69.443286 
C 67.676869 69.733675 67.792242 70.01221 67.997578 70.217546 
C 68.202914 70.422882 68.481449 70.538255 68.771838 70.538255 
z
" clip-path="url(#p23d394cc4d)" style="stroke: #000000"/>
    <path d="M 61.988357 47.349189 
C 62.120958 47.349189 62.248146 47.296505 62.34191 47.202742 
C 62.435673 47.108978 62.488357 46.98179 62.488357 46.849189 
C 62.488357 46.716587 62.435673 46.589399 62.34191 46.495635 
C 62.248146 46.401872 62.120958 46.349189 61.988357 46.349189 
C 61.855755 46.349189 61.728567 46.401872 61.634803 46.495635 
C 61.54104 46.589399 61.488357 46.716587 61.488357 46.849189 
C 61.488357 46.98179 61.54104 47.108978 61.634803 47.202742 
C 61.728567 47.296505 61.855755 47.349189 61.988357 47.349189 
z
" clip-path="url(#p23d394cc4d)" style="stroke: #000000"/>
    <path d="M 94.592675 166.662882 
C 94.725277 166.662882 94.852465 166.610199 94.946229 166.516436 
C 95.039992 166.422672 95.092675 166.295484 95.092675 166.162882 
C 95.092675 166.030281 95.039992 165.903093 94.946229 165.809329 
C 94.852465 165.715566 94.725277 165.662882 94.592675 165.662882 
C 94.460074 165.662882 94.332885 165.715566 94.239122 165.809329 
C 94.145359 165.903093 94.092675 166.030281 94.092675 166.162882 
C 94.092675 166.295484 94.145359 166.422672 94.239122 166.516436 
C 94.332885 166.610199 94.460074 166.662882 94.592675 166.662882 
z
" clip-path="url(#p23d394cc4d)" style="stroke: #000000"/>
    <path d="M 94.220894 160.702882 
C 94.41918 160.702882 94.609371 160.624102 94.74958 160.483893 
C 94.889789 160.343684 94.968569 160.153493 94.968569 159.955207 
C 94.968569 159.756922 94.889789 159.566731 94.74958 159.426522 
C 94.609371 159.286312 94.41918 159.207533 94.220894 159.207533 
C 94.022609 159.207533 93.832418 159.286312 93.692209 159.426522 
C 93.552 159.566731 93.47322 159.756922 93.47322 159.955207 
C 93.47322 160.153493 93.552 160.343684 93.692209 160.483893 
C 93.832418 160.624102 94.022609 160.702882 94.220894 160.702882 
z
" clip-path="url(#p23d394cc4d)" style="stroke: #000000"/>
    <path d="M 90.4014 147.114936 
C 90.608932 147.114936 90.807993 147.032483 90.954741 146.885735 
C 91.101489 146.738987 91.183942 146.539927 91.183942 146.332394 
C 91.183942 146.124861 91.101489 145.925801 90.954741 145.779053 
C 90.807993 145.632305 90.608932 145.549852 90.4014 145.549852 
C 90.193867 145.549852 89.994807 145.632305 89.848059 145.779053 
C 89.701311 145.925801 89.618858 146.124861 89.618858 146.332394 
C 89.618858 146.539927 89.701311 146.738987 89.848059 146.885735 
C 89.994807 147.032483 90.193867 147.114936 90.4014 147.114936 
z
" clip-path="url(#p23d394cc4d)" style="stroke: #000000"/>
    <path d="M 84.734694 139.554383 
C 84.892385 139.554383 85.043638 139.491732 85.155142 139.380228 
C 85.266647 139.268724 85.329298 139.11747 85.329298 138.95978 
C 85.329298 138.802089 85.266647 138.650836 85.155142 138.539332 
C 85.043638 138.427827 84.892385 138.365176 84.734694 138.365176 
C 84.577004 138.365176 84.42575 138.427827 84.314246 138.539332 
C 84.202742 138.650836 84.140091 138.802089 84.140091 138.95978 
C 84.140091 139.11747 84.202742 139.268724 84.314246 139.380228 
C 84.42575 139.491732 84.577004 139.554383 84.734694 139.554383 
z
" clip-path="url(#p23d394cc4d)" style="stroke: #000000"/>
    <path d="M 83.263385 134.773062 
C 83.796362 134.773062 84.307582 134.561308 84.684454 134.184436 
C 85.061325 133.807565 85.27308 133.296345 85.27308 132.763368 
C 85.27308 132.23039 85.061325 131.719171 84.684454 131.342299 
C 84.307582 130.965427 83.796362 130.753673 83.263385 130.753673 
C 82.730407 130.753673 82.219188 130.965427 81.842316 131.342299 
C 81.465444 131.719171 81.25369 132.23039 81.25369 132.763368 
C 81.25369 133.296345 81.465444 133.807565 81.842316 134.184436 
C 82.219188 134.561308 82.730407 134.773062 83.263385 134.773062 
z
" clip-path="url(#p23d394cc4d)" style="stroke: #000000"/>
    <path d="M 81.000921 126.541662 
C 81.45458 126.541662 81.889718 126.361421 82.210503 126.040637 
C 82.531288 125.719852 82.711528 125.284713 82.711528 124.831055 
C 82.711528 124.377397 82.531288 123.942258 82.210503 123.621474 
C 81.889718 123.300689 81.45458 123.120449 81.000921 123.120449 
C 80.547263 123.120449 80.112125 123.300689 79.79134 123.621474 
C 79.470555 123.942258 79.290315 124.377397 79.290315 124.831055 
C 79.290315 125.284713 79.470555 125.719852 79.79134 126.040637 
C 80.112125 126.361421 80.547263 126.541662 81.000921 126.541662 
z
" clip-path="url(#p23d394cc4d)" style="stroke: #000000"/>
    <path d="M 76.694809 124.610656 
C 77.017335 124.610656 77.326696 124.482515 77.554756 124.254454 
C 77.782817 124.026394 77.910958 123.717033 77.910958 123.394507 
C 77.910958 123.07198 77.782817 122.76262 77.554756 122.534559 
C 77.326696 122.306498 77.017335 122.178357 76.694809 122.178357 
C 76.372282 122.178357 76.062922 122.306498 75.834861 122.534559 
C 75.6068 122.76262 75.478659 123.07198 75.478659 123.394507 
C 75.478659 123.717033 75.6068 124.026394 75.834861 124.254454 
C 76.062922 124.482515 76.372282 124.610656 76.694809 124.610656 
z
" clip-path="url(#p23d394cc4d)" style="stroke: #000000"/>
    <path d="M 76.918908 111.195269 
C 77.370062 111.195269 77.802798 111.016024 78.121812 110.69701 
C 78.440827 110.377996 78.620072 109.945259 78.620072 109.494105 
C 78.620072 109.042951 78.440827 108.610215 78.121812 108.291201 
C 77.802798 107.972187 77.370062 107.792941 76.918908 107.792941 
C 76.467754 107.792941 76.035017 107.972187 75.716003 108.291201 
C 75.396989 108.610215 75.217744 109.042951 75.217744 109.494105 
C 75.217744 109.945259 75.396989 110.377996 75.716003 110.69701 
C 76.035017 111.016024 76.467754 111.195269 76.918908 111.195269 
z
" clip-path="url(#p23d394cc4d)" style="stroke: #000000"/>
    <path d="M 73.553873 105.132793 
C 73.967853 105.132793 74.364933 104.968317 74.657661 104.675589 
C 74.95039 104.382861 75.114866 103.985781 75.114866 103.5718 
C 75.114866 103.15782 74.95039 102.76074 74.657661 102.468012 
C 74.364933 102.175284 73.967853 102.010808 73.553873 102.010808 
C 73.139893 102.010808 72.742812 102.175284 72.450084 102.468012 
C 72.157356 102.76074 71.99288 103.15782 71.99288 103.5718 
C 71.99288 103.985781 72.157356 104.382861 72.450084 104.675589 
C 72.742812 104.968317 73.139893 105.132793 73.553873 105.132793 
z
" clip-path="url(#p23d394cc4d)" style="stroke: #000000"/>
    <path d="M 75.434302 97.338325 
C 76.053347 97.338325 76.64712 97.092376 77.084851 96.654645 
C 77.522582 96.216915 77.768531 95.623141 77.768531 95.004097 
C 77.768531 94.385052 77.522582 93.791278 77.084851 93.353548 
C 76.64712 92.915817 76.053347 92.669868 75.434302 92.669868 
C 74.815257 92.669868 74.221484 92.915817 73.783753 93.353548 
C 73.346022 93.791278 73.100073 94.385052 73.100073 95.004097 
C 73.100073 95.623141 73.346022 96.216915 73.783753 96.654645 
C 74.221484 97.092376 74.815257 97.338325 75.434302 97.338325 
z
" clip-path="url(#p23d394cc4d)" style="stroke: #000000"/>
    <path d="M 70.712485 93.527034 
C 71.177314 93.527034 71.623167 93.342356 71.95185 93.013672 
C 72.280533 92.684989 72.465212 92.239136 72.465212 91.774307 
C 72.465212 91.309479 72.280533 90.863626 71.95185 90.534942 
C 71.623167 90.206259 71.177314 90.02158 70.712485 90.02158 
C 70.247656 90.02158 69.801803 90.206259 69.47312 90.534942 
C 69.144436 90.863626 68.959758 91.309479 68.959758 91.774307 
C 68.959758 92.239136 69.144436 92.684989 69.47312 93.013672 
C 69.801803 93.342356 70.247656 93.527034 70.712485 93.527034 
z
" clip-path="url(#p23d394cc4d)" style="stroke: #000000"/>
    <path d="M 66.947754 85.988452 
C 67.527345 85.988452 68.083276 85.758178 68.493109 85.348345 
C 68.902941 84.938512 69.133216 84.382581 69.133216 83.80299 
C 69.133216 83.223399 68.902941 82.667468 68.493109 82.257635 
C 68.083276 81.847802 67.527345 81.617528 66.947754 81.617528 
C 66.368162 81.617528 65.812232 81.847802 65.402399 82.257635 
C 64.992566 82.667468 64.762292 83.223399 64.762292 83.80299 
C 64.762292 84.382581 64.992566 84.938512 65.402399 85.348345 
C 65.812232 85.758178 66.368162 85.988452 66.947754 85.988452 
z
" clip-path="url(#p23d394cc4d)" style="stroke: #000000"/>
    <path d="M 60.31684 66.004466 
C 60.524373 66.004466 60.723433 65.922013 60.870181 65.775265 
C 61.016929 65.628517 61.099383 65.429457 61.099383 65.221924 
C 61.099383 65.014391 61.016929 64.815331 60.870181 64.668583 
C 60.723433 64.521835 60.524373 64.439382 60.31684 64.439382 
C 60.109308 64.439382 59.910247 64.521835 59.763499 64.668583 
C 59.616752 64.815331 59.534298 65.014391 59.534298 65.221924 
C 59.534298 65.429457 59.616752 65.628517 59.763499 65.775265 
C 59.910247 65.922013 60.109308 66.004466 60.31684 66.004466 
z
" clip-path="url(#p23d394cc4d)" style="stroke: #000000"/>
    <path d="M 88.989226 173.705874 
C 89.121828 173.705874 89.249016 173.653191 89.342779 173.559428 
C 89.436543 173.465664 89.489226 173.338476 89.489226 173.205874 
C 89.489226 173.073273 89.436543 172.946084 89.342779 172.852321 
C 89.249016 172.758557 89.121828 172.705874 88.989226 172.705874 
C 88.856624 172.705874 88.729436 172.758557 88.635673 172.852321 
C 88.541909 172.946084 88.489226 173.073273 88.489226 173.205874 
C 88.489226 173.338476 88.541909 173.465664 88.635673 173.559428 
C 88.729436 173.653191 88.856624 173.705874 88.989226 173.705874 
z
" clip-path="url(#p23d394cc4d)" style="stroke: #000000"/>
    <path d="M 87.399353 166.700159 
C 87.557043 166.700159 87.708297 166.637507 87.819801 166.526003 
C 87.931305 166.414499 87.993956 166.263246 87.993956 166.105555 
C 87.993956 165.947864 87.931305 165.796611 87.819801 165.685107 
C 87.708297 165.573603 87.557043 165.510951 87.399353 165.510951 
C 87.241662 165.510951 87.090409 165.573603 86.978904 165.685107 
C 86.8674 165.796611 86.804749 165.947864 86.804749 166.105555 
C 86.804749 166.263246 86.8674 166.414499 86.978904 166.526003 
C 87.090409 166.637507 87.241662 166.700159 87.399353 166.700159 
z
" clip-path="url(#p23d394cc4d)" style="stroke: #000000"/>
    <path d="M 84.868736 160.459643 
C 85.026426 160.459643 85.17768 160.396992 85.289184 160.285488 
C 85.400688 160.173984 85.463339 160.02273 85.463339 159.86504 
C 85.463339 159.707349 85.400688 159.556096 85.289184 159.444591 
C 85.17768 159.333087 85.026426 159.270436 84.868736 159.270436 
C 84.711045 159.270436 84.559792 159.333087 84.448288 159.444591 
C 84.336783 159.556096 84.274132 159.707349 84.274132 159.86504 
C 84.274132 160.02273 84.336783 160.173984 84.448288 160.285488 
C 84.559792 160.396992 84.711045 160.459643 84.868736 160.459643 
z
" clip-path="url(#p23d394cc4d)" style="stroke: #000000"/>
    <path d="M 82.521578 155.291327 
C 82.737265 155.291327 82.944146 155.205634 83.09666 155.053121 
C 83.249173 154.900607 83.334866 154.693725 83.334866 154.478039 
C 83.334866 154.262352 83.249173 154.055471 83.09666 153.902957 
C 82.944146 153.750444 82.737265 153.664751 82.521578 153.664751 
C 82.305891 153.664751 82.09901 153.750444 81.946496 153.902957 
C 81.793983 154.055471 81.70829 154.262352 81.70829 154.478039 
C 81.70829 154.693725 81.793983 154.900607 81.946496 155.053121 
C 82.09901 155.205634 82.305891 155.291327 82.521578 155.291327 
z
" clip-path="url(#p23d394cc4d)" style="stroke: #000000"/>
    <path d="M 82.772102 148.610165 
C 83.055962 148.610165 83.328233 148.497386 83.528952 148.296668 
C 83.729671 148.095949 83.84245 147.823677 83.84245 147.539817 
C 83.84245 147.255958 83.729671 146.983686 83.528952 146.782967 
C 83.328233 146.582248 83.055962 146.46947 82.772102 146.46947 
C 82.488243 146.46947 82.215971 146.582248 82.015252 146.782967 
C 81.814533 146.983686 81.701754 147.255958 81.701754 147.539817 
C 81.701754 147.823677 81.814533 148.095949 82.015252 148.296668 
C 82.215971 148.497386 82.488243 148.610165 82.772102 148.610165 
z
" clip-path="url(#p23d394cc4d)" style="stroke: #000000"/>
    <path d="M 78.007494 135.217866 
C 78.556574 135.217866 79.083239 134.999714 79.471497 134.611456 
C 79.859755 134.223198 80.077906 133.696533 80.077906 133.147453 
C 80.077906 132.598374 79.859755 132.071709 79.471497 131.683451 
C 79.083239 131.295193 78.556574 131.077041 78.007494 131.077041 
C 77.458414 131.077041 76.931749 131.295193 76.543491 131.683451 
C 76.155233 132.071709 75.937082 132.598374 75.937082 133.147453 
C 75.937082 133.696533 76.155233 134.223198 76.543491 134.611456 
C 76.931749 134.999714 77.458414 135.217866 78.007494 135.217866 
z
" clip-path="url(#p23d394cc4d)" style="stroke: #000000"/>
    <path d="M 77.344779 132.182982 
C 77.809607 132.182982 78.25546 131.998304 78.584144 131.66962 
C 78.912827 131.340937 79.097506 130.895084 79.097506 130.430255 
C 79.097506 129.965427 78.912827 129.519574 78.584144 129.19089 
C 78.25546 128.862207 77.809607 128.677528 77.344779 128.677528 
C 76.87995 128.677528 76.434097 128.862207 76.105414 129.19089 
C 75.77673 129.519574 75.592052 129.965427 75.592052 130.430255 
C 75.592052 130.895084 75.77673 131.340937 76.105414 131.66962 
C 76.434097 131.998304 76.87995 132.182982 77.344779 132.182982 
z
" clip-path="url(#p23d394cc4d)" style="stroke: #000000"/>
    <path d="M 74.634208 124.361438 
C 75.054575 124.361438 75.457782 124.194425 75.755026 123.89718 
C 76.052271 123.599936 76.219285 123.196729 76.219285 122.776362 
C 76.219285 122.355994 76.052271 121.952787 75.755026 121.655543 
C 75.457782 121.358298 75.054575 121.191285 74.634208 121.191285 
C 74.21384 121.191285 73.810634 121.358298 73.513389 121.655543 
C 73.216144 121.952787 73.049131 122.355994 73.049131 122.776362 
C 73.049131 123.196729 73.216144 123.599936 73.513389 123.89718 
C 73.810634 124.194425 74.21384 124.361438 74.634208 124.361438 
z
" clip-path="url(#p23d394cc4d)" style="stroke: #000000"/>
    <path d="M 72.485386 118.802842 
C 73.029256 118.802842 73.550924 118.58676 73.935498 118.202186 
C 74.320072 117.817612 74.536154 117.295944 74.536154 116.752074 
C 74.536154 116.208204 74.320072 115.686536 73.935498 115.301962 
C 73.550924 114.917387 73.029256 114.701306 72.485386 114.701306 
C 71.941515 114.701306 71.419848 114.917387 71.035273 115.301962 
C 70.650699 115.686536 70.434617 116.208204 70.434617 116.752074 
C 70.434617 117.295944 70.650699 117.817612 71.035273 118.202186 
C 71.419848 118.58676 71.941515 118.802842 72.485386 118.802842 
z
" clip-path="url(#p23d394cc4d)" style="stroke: #000000"/>
    <path d="M 69.372522 112.471053 
C 69.864181 112.471053 70.335769 112.275715 70.683424 111.928059 
C 71.03108 111.580404 71.226418 111.108815 71.226418 110.617156 
C 71.226418 110.125497 71.03108 109.653909 70.683424 109.306254 
C 70.335769 108.958598 69.864181 108.76326 69.372522 108.76326 
C 68.880863 108.76326 68.409274 108.958598 68.061619 109.306254 
C 67.713963 109.653909 67.518625 110.125497 67.518625 110.617156 
C 67.518625 111.108815 67.713963 111.580404 68.061619 111.928059 
C 68.409274 112.275715 68.880863 112.471053 69.372522 112.471053 
z
" clip-path="url(#p23d394cc4d)" style="stroke: #000000"/>
    <path d="M 66.260288 106.975509 
C 66.791728 106.975509 67.301472 106.764366 67.677256 106.388582 
C 68.05304 106.012797 68.264183 105.503053 68.264183 104.971614 
C 68.264183 104.440175 68.05304 103.930431 67.677256 103.554646 
C 67.301472 103.178862 66.791728 102.967719 66.260288 102.967719 
C 65.728849 102.967719 65.219105 103.178862 64.843321 103.554646 
C 64.467537 103.930431 64.256394 104.440175 64.256394 104.971614 
C 64.256394 105.503053 64.467537 106.012797 64.843321 106.388582 
C 65.219105 106.764366 65.728849 106.975509 66.260288 106.975509 
z
" clip-path="url(#p23d394cc4d)" style="stroke: #000000"/>
    <path d="M 65.871134 98.41545 
C 66.12763 98.41545 66.373655 98.313543 66.555025 98.132173 
C 66.736395 97.950803 66.838302 97.704778 66.838302 97.448282 
C 66.838302 97.191786 66.736395 96.945761 66.555025 96.764391 
C 66.373655 96.583021 66.12763 96.481114 65.871134 96.481114 
C 65.614638 96.481114 65.368613 96.583021 65.187243 96.764391 
C 65.005873 96.945761 64.903966 97.191786 64.903966 97.448282 
C 64.903966 97.704778 65.005873 97.950803 65.187243 98.132173 
C 65.368613 98.313543 65.614638 98.41545 65.871134 98.41545 
z
" clip-path="url(#p23d394cc4d)" style="stroke: #000000"/>
    <path d="M 64.477869 94.883911 
C 64.693556 94.883911 64.900438 94.798217 65.052951 94.645704 
C 65.205464 94.493191 65.291158 94.286309 65.291158 94.070622 
C 65.291158 93.854936 65.205464 93.648054 65.052951 93.495541 
C 64.900438 93.343027 64.693556 93.257334 64.477869 93.257334 
C 64.262183 93.257334 64.055301 93.343027 63.902788 93.495541 
C 63.750274 93.648054 63.664581 93.854936 63.664581 94.070622 
C 63.664581 94.286309 63.750274 94.493191 63.902788 94.645704 
C 64.055301 94.798217 64.262183 94.883911 64.477869 94.883911 
z
" clip-path="url(#p23d394cc4d)" style="stroke: #000000"/>
    <path d="M 62.480097 87.325067 
C 62.703106 87.325067 62.91701 87.236465 63.074701 87.078774 
C 63.232392 86.921083 63.320994 86.707179 63.320994 86.484171 
C 63.320994 86.261162 63.232392 86.047258 63.074701 85.889567 
C 62.91701 85.731876 62.703106 85.643274 62.480097 85.643274 
C 62.257089 85.643274 62.043184 85.731876 61.885494 85.889567 
C 61.727803 86.047258 61.639201 86.261162 61.639201 86.484171 
C 61.639201 86.707179 61.727803 86.921083 61.885494 87.078774 
C 62.043184 87.236465 62.257089 87.325067 62.480097 87.325067 
z
" clip-path="url(#p23d394cc4d)" style="stroke: #000000"/>
    <path d="M 59.420825 82.171027 
C 59.778607 82.171027 60.121782 82.028879 60.374772 81.77589 
C 60.627761 81.5229 60.769909 81.179724 60.769909 80.821943 
C 60.769909 80.464162 60.627761 80.120986 60.374772 79.867997 
C 60.121782 79.615007 59.778607 79.472859 59.420825 79.472859 
C 59.063044 79.472859 58.719868 79.615007 58.466879 79.867997 
C 58.213889 80.120986 58.071741 80.464162 58.071741 80.821943 
C 58.071741 81.179724 58.213889 81.5229 58.466879 81.77589 
C 58.719868 82.028879 59.063044 82.171027 59.420825 82.171027 
z
" clip-path="url(#p23d394cc4d)" style="stroke: #000000"/>
    <path d="M 59.284746 73.599713 
C 59.500433 73.599713 59.707315 73.51402 59.859828 73.361506 
C 60.012341 73.208993 60.098035 73.002111 60.098035 72.786425 
C 60.098035 72.570738 60.012341 72.363856 59.859828 72.211343 
C 59.707315 72.058829 59.500433 71.973136 59.284746 71.973136 
C 59.06906 71.973136 58.862178 72.058829 58.709665 72.211343 
C 58.557151 72.363856 58.471458 72.570738 58.471458 72.786425 
C 58.471458 73.002111 58.557151 73.208993 58.709665 73.361506 
C 58.862178 73.51402 59.06906 73.599713 59.284746 73.599713 
z
" clip-path="url(#p23d394cc4d)" style="stroke: #000000"/>
    <path d="M 57.43866 70.886461 
C 57.571262 70.886461 57.69845 70.833777 57.792214 70.740014 
C 57.885977 70.646251 57.93866 70.519062 57.93866 70.386461 
C 57.93866 70.253859 57.885977 70.126671 57.792214 70.032907 
C 57.69845 69.939144 57.571262 69.886461 57.43866 69.886461 
C 57.306059 69.886461 57.178871 69.939144 57.085107 70.032907 
C 56.991344 70.126671 56.93866 70.253859 56.93866 70.386461 
C 56.93866 70.519062 56.991344 70.646251 57.085107 70.740014 
C 57.178871 70.833777 57.306059 70.886461 57.43866 70.886461 
z
" clip-path="url(#p23d394cc4d)" style="stroke: #000000"/>
    <path d="M 81.689005 167.247643 
C 81.863518 167.247643 82.030907 167.178309 82.154307 167.054909 
C 82.277707 166.931509 82.347042 166.76412 82.347042 166.589606 
C 82.347042 166.415093 82.277707 166.247704 82.154307 166.124304 
C 82.030907 166.000904 81.863518 165.931569 81.689005 165.931569 
C 81.514491 165.931569 81.347102 166.000904 81.223702 166.124304 
C 81.100302 166.247704 81.030968 166.415093 81.030968 166.589606 
C 81.030968 166.76412 81.100302 166.931509 81.223702 167.054909 
C 81.347102 167.178309 81.514491 167.247643 81.689005 167.247643 
z
" clip-path="url(#p23d394cc4d)" style="stroke: #000000"/>
    <path d="M 79.914647 163.658 
C 80.112933 163.658 80.303124 163.57922 80.443333 163.439011 
C 80.583542 163.298802 80.662321 163.108611 80.662321 162.910325 
C 80.662321 162.71204 80.583542 162.521849 80.443333 162.38164 
C 80.303124 162.241431 80.112933 162.162651 79.914647 162.162651 
C 79.716362 162.162651 79.526171 162.241431 79.385961 162.38164 
C 79.245752 162.521849 79.166973 162.71204 79.166973 162.910325 
C 79.166973 163.108611 79.245752 163.298802 79.385961 163.439011 
C 79.526171 163.57922 79.716362 163.658 79.914647 163.658 
z
" clip-path="url(#p23d394cc4d)" style="stroke: #000000"/>
    <path d="M 71.688176 137.24212 
C 72.115645 137.24212 72.525663 137.072285 72.82793 136.770019 
C 73.130196 136.467753 73.300031 136.057734 73.300031 135.630265 
C 73.300031 135.202797 73.130196 134.792778 72.82793 134.490512 
C 72.525663 134.188246 72.115645 134.018411 71.688176 134.018411 
C 71.260707 134.018411 70.850689 134.188246 70.548422 134.490512 
C 70.246156 134.792778 70.076321 135.202797 70.076321 135.630265 
C 70.076321 136.057734 70.246156 136.467753 70.548422 136.770019 
C 70.850689 137.072285 71.260707 137.24212 71.688176 137.24212 
z
" clip-path="url(#p23d394cc4d)" style="stroke: #000000"/>
    <path d="M 69.586454 132.837379 
C 70.158351 132.837379 70.706901 132.610162 71.111293 132.20577 
C 71.515685 131.801378 71.742902 131.252828 71.742902 130.680931 
C 71.742902 130.109034 71.515685 129.560484 71.111293 129.156092 
C 70.706901 128.7517 70.158351 128.524483 69.586454 128.524483 
C 69.014557 128.524483 68.466007 128.7517 68.061615 129.156092 
C 67.657223 129.560484 67.430006 130.109034 67.430006 130.680931 
C 67.430006 131.252828 67.657223 131.801378 68.061615 132.20577 
C 68.466007 132.610162 69.014557 132.837379 69.586454 132.837379 
z
" clip-path="url(#p23d394cc4d)" style="stroke: #000000"/>
    <path d="M 68.840551 129.899164 
C 69.301483 129.899164 69.743598 129.716034 70.069526 129.390106 
C 70.395454 129.064178 70.578585 128.622063 70.578585 128.161131 
C 70.578585 127.700199 70.395454 127.258083 70.069526 126.932155 
C 69.743598 126.606227 69.301483 126.423097 68.840551 126.423097 
C 68.379619 126.423097 67.937504 126.606227 67.611575 126.932155 
C 67.285647 127.258083 67.102517 127.700199 67.102517 128.161131 
C 67.102517 128.622063 67.285647 129.064178 67.611575 129.390106 
C 67.937504 129.716034 68.379619 129.899164 68.840551 129.899164 
z
" clip-path="url(#p23d394cc4d)" style="stroke: #000000"/>
    <path d="M 68.196208 119.440811 
C 68.516406 119.440811 68.823533 119.313596 69.049947 119.087182 
C 69.276361 118.860767 69.403577 118.553641 69.403577 118.233443 
C 69.403577 117.913245 69.276361 117.606119 69.049947 117.379705 
C 68.823533 117.153291 68.516406 117.026075 68.196208 117.026075 
C 67.876011 117.026075 67.568884 117.153291 67.34247 117.379705 
C 67.116056 117.606119 66.98884 117.913245 66.98884 118.233443 
C 66.98884 118.553641 67.116056 118.860767 67.34247 119.087182 
C 67.568884 119.313596 67.876011 119.440811 68.196208 119.440811 
z
" clip-path="url(#p23d394cc4d)" style="stroke: #000000"/>
    <path d="M 63.031259 114.229908 
C 63.452663 114.229908 63.856864 114.062482 64.154842 113.764504 
C 64.45282 113.466527 64.620245 113.062326 64.620245 112.640922 
C 64.620245 112.219518 64.45282 111.815317 64.154842 111.517339 
C 63.856864 111.219361 63.452663 111.051936 63.031259 111.051936 
C 62.609855 111.051936 62.205654 111.219361 61.907677 111.517339 
C 61.609699 111.815317 61.442273 112.219518 61.442273 112.640922 
C 61.442273 113.062326 61.609699 113.466527 61.907677 113.764504 
C 62.205654 114.062482 62.609855 114.229908 63.031259 114.229908 
z
" clip-path="url(#p23d394cc4d)" style="stroke: #000000"/>
    <path d="M 60.587575 109.937197 
C 61.007942 109.937197 61.411149 109.770184 61.708393 109.472939 
C 62.005638 109.175695 62.172652 108.772488 62.172652 108.352121 
C 62.172652 107.931753 62.005638 107.528546 61.708393 107.231302 
C 61.411149 106.934057 61.007942 106.767044 60.587575 106.767044 
C 60.167208 106.767044 59.764001 106.934057 59.466756 107.231302 
C 59.169512 107.528546 59.002498 107.931753 59.002498 108.352121 
C 59.002498 108.772488 59.169512 109.175695 59.466756 109.472939 
C 59.764001 109.770184 60.167208 109.937197 60.587575 109.937197 
z
" clip-path="url(#p23d394cc4d)" style="stroke: #000000"/>
    <path d="M 56.983817 96.691328 
C 57.557769 96.691328 58.10829 96.463294 58.514136 96.057449 
C 58.919981 95.651604 59.148014 95.101083 59.148014 94.527131 
C 59.148014 93.953179 58.919981 93.402658 58.514136 92.996813 
C 58.10829 92.590967 57.557769 92.362934 56.983817 92.362934 
C 56.409865 92.362934 55.859344 92.590967 55.453499 92.996813 
C 55.047654 93.402658 54.81962 93.953179 54.81962 94.527131 
C 54.81962 95.101083 55.047654 95.651604 55.453499 96.057449 
C 55.859344 96.463294 56.409865 96.691328 56.983817 96.691328 
z
" clip-path="url(#p23d394cc4d)" style="stroke: #000000"/>
    <path d="M 56.231842 89.025333 
C 56.58445 89.025333 56.922662 88.885241 57.171993 88.63591 
C 57.421324 88.386579 57.561416 88.048366 57.561416 87.695759 
C 57.561416 87.343152 57.421324 87.004939 57.171993 86.755608 
C 56.922662 86.506278 56.58445 86.366185 56.231842 86.366185 
C 55.879235 86.366185 55.541023 86.506278 55.291692 86.755608 
C 55.042361 87.004939 54.902268 87.343152 54.902268 87.695759 
C 54.902268 88.048366 55.042361 88.386579 55.291692 88.63591 
C 55.541023 88.885241 55.879235 89.025333 56.231842 89.025333 
z
" clip-path="url(#p23d394cc4d)" style="stroke: #000000"/>
    <path d="M 51.771541 80.982392 
C 51.904142 80.982392 52.031331 80.929709 52.125094 80.835945 
C 52.218858 80.742182 52.271541 80.614993 52.271541 80.482392 
C 52.271541 80.34979 52.218858 80.222602 52.125094 80.128838 
C 52.031331 80.035075 51.904142 79.982392 51.771541 79.982392 
C 51.638939 79.982392 51.511751 80.035075 51.417987 80.128838 
C 51.324224 80.222602 51.271541 80.34979 51.271541 80.482392 
C 51.271541 80.614993 51.324224 80.742182 51.417987 80.835945 
C 51.511751 80.929709 51.638939 80.982392 51.771541 80.982392 
z
" clip-path="url(#p23d394cc4d)" style="stroke: #000000"/>
    <path d="M 46.690718 71.658117 
C 46.889004 71.658117 47.079195 71.579337 47.219404 71.439128 
C 47.359613 71.298919 47.438393 71.108728 47.438393 70.910442 
C 47.438393 70.712157 47.359613 70.521966 47.219404 70.381757 
C 47.079195 70.241548 46.889004 70.162768 46.690718 70.162768 
C 46.492433 70.162768 46.302242 70.241548 46.162033 70.381757 
C 46.021823 70.521966 45.943044 70.712157 45.943044 70.910442 
C 45.943044 71.108728 46.021823 71.298919 46.162033 71.439128 
C 46.302242 71.579337 46.492433 71.658117 46.690718 71.658117 
z
" clip-path="url(#p23d394cc4d)" style="stroke: #000000"/>
    <path d="M 71.722254 158.240319 
C 71.854855 158.240319 71.982044 158.187636 72.075807 158.093873 
C 72.169571 158.000109 72.222254 157.872921 72.222254 157.740319 
C 72.222254 157.607718 72.169571 157.480529 72.075807 157.386766 
C 71.982044 157.293002 71.854855 157.240319 71.722254 157.240319 
C 71.589652 157.240319 71.462464 157.293002 71.368701 157.386766 
C 71.274937 157.480529 71.222254 157.607718 71.222254 157.740319 
C 71.222254 157.872921 71.274937 158.000109 71.368701 158.093873 
C 71.462464 158.187636 71.589652 158.240319 71.722254 158.240319 
z
" clip-path="url(#p23d394cc4d)" style="stroke: #000000"/>
    <path d="M 70.60193 153.184499 
C 70.776443 153.184499 70.943833 153.115164 71.067232 152.991765 
C 71.190632 152.868365 71.259967 152.700976 71.259967 152.526462 
C 71.259967 152.351949 71.190632 152.184559 71.067232 152.06116 
C 70.943833 151.93776 70.776443 151.868425 70.60193 151.868425 
C 70.427416 151.868425 70.260027 151.93776 70.136627 152.06116 
C 70.013228 152.184559 69.943893 152.351949 69.943893 152.526462 
C 69.943893 152.700976 70.013228 152.868365 70.136627 152.991765 
C 70.260027 153.115164 70.427416 153.184499 70.60193 153.184499 
z
" clip-path="url(#p23d394cc4d)" style="stroke: #000000"/>
    <path d="M 66.960293 143.993212 
C 67.285099 143.993212 67.596646 143.864165 67.826319 143.634492 
C 68.055991 143.40482 68.185038 143.093273 68.185038 142.768467 
C 68.185038 142.443661 68.055991 142.132114 67.826319 141.902441 
C 67.596646 141.672769 67.285099 141.543722 66.960293 141.543722 
C 66.635487 141.543722 66.323941 141.672769 66.094268 141.902441 
C 65.864595 142.132114 65.735548 142.443661 65.735548 142.768467 
C 65.735548 143.093273 65.864595 143.40482 66.094268 143.634492 
C 66.323941 143.864165 66.635487 143.993212 66.960293 143.993212 
z
" clip-path="url(#p23d394cc4d)" style="stroke: #000000"/>
    <path d="M 66.588897 141.576976 
C 66.721499 141.576976 66.848687 141.524293 66.942451 141.43053 
C 67.036214 141.336766 67.088897 141.209578 67.088897 141.076976 
C 67.088897 140.944375 67.036214 140.817186 66.942451 140.723423 
C 66.848687 140.629659 66.721499 140.576976 66.588897 140.576976 
C 66.456296 140.576976 66.329107 140.629659 66.235344 140.723423 
C 66.14158 140.817186 66.088897 140.944375 66.088897 141.076976 
C 66.088897 141.209578 66.14158 141.336766 66.235344 141.43053 
C 66.329107 141.524293 66.456296 141.576976 66.588897 141.576976 
z
" clip-path="url(#p23d394cc4d)" style="stroke: #000000"/>
    <path d="M 63.541309 137.278524 
C 63.728836 137.278524 63.908707 137.204019 64.041309 137.071417 
C 64.17391 136.938816 64.248415 136.758944 64.248415 136.571417 
C 64.248415 136.383891 64.17391 136.204019 64.041309 136.071417 
C 63.908707 135.938816 63.728836 135.864311 63.541309 135.864311 
C 63.353782 135.864311 63.17391 135.938816 63.041309 136.071417 
C 62.908707 136.204019 62.834202 136.383891 62.834202 136.571417 
C 62.834202 136.758944 62.908707 136.938816 63.041309 137.071417 
C 63.17391 137.204019 63.353782 137.278524 63.541309 137.278524 
z
" clip-path="url(#p23d394cc4d)" style="stroke: #000000"/>
    <path d="M 60.868576 127.548968 
C 61.318037 127.548968 61.74915 127.370395 62.066967 127.052578 
C 62.384784 126.734761 62.563357 126.303649 62.563357 125.854188 
C 62.563357 125.404726 62.384784 124.973614 62.066967 124.655797 
C 61.74915 124.33798 61.318037 124.159407 60.868576 124.159407 
C 60.419115 124.159407 59.988002 124.33798 59.670185 124.655797 
C 59.352368 124.973614 59.173796 125.404726 59.173796 125.854188 
C 59.173796 126.303649 59.352368 126.734761 59.670185 127.052578 
C 59.988002 127.370395 60.419115 127.548968 60.868576 127.548968 
z
" clip-path="url(#p23d394cc4d)" style="stroke: #000000"/>
    <path d="M 57.174877 122.138353 
C 57.718747 122.138353 58.240415 121.922271 58.624989 121.537696 
C 59.009564 121.153122 59.225646 120.631454 59.225646 120.087584 
C 59.225646 119.543714 59.009564 119.022046 58.624989 118.637472 
C 58.240415 118.252898 57.718747 118.036816 57.174877 118.036816 
C 56.631007 118.036816 56.109339 118.252898 55.724765 118.637472 
C 55.340191 119.022046 55.124109 119.543714 55.124109 120.087584 
C 55.124109 120.631454 55.340191 121.153122 55.724765 121.537696 
C 56.109339 121.922271 56.631007 122.138353 57.174877 122.138353 
z
" clip-path="url(#p23d394cc4d)" style="stroke: #000000"/>
    <path d="M 53.38868 116.153711 
C 53.80695 116.153711 54.208146 115.98753 54.503908 115.691768 
C 54.79967 115.396006 54.965851 114.994811 54.965851 114.57654 
C 54.965851 114.158269 54.79967 113.757074 54.503908 113.461312 
C 54.208146 113.16555 53.80695 112.999369 53.38868 112.999369 
C 52.970409 112.999369 52.569213 113.16555 52.273451 113.461312 
C 51.977689 113.757074 51.811509 114.158269 51.811509 114.57654 
C 51.811509 114.994811 51.977689 115.396006 52.273451 115.691768 
C 52.569213 115.98753 52.970409 116.153711 53.38868 116.153711 
z
" clip-path="url(#p23d394cc4d)" style="stroke: #000000"/>
    <path d="M 54.09081 110.270512 
C 54.63754 110.270512 55.161952 110.053294 55.548548 109.666697 
C 55.935145 109.280101 56.152363 108.755689 56.152363 108.208959 
C 56.152363 107.662229 55.935145 107.137818 55.548548 106.751221 
C 55.161952 106.364625 54.63754 106.147406 54.09081 106.147406 
C 53.54408 106.147406 53.019669 106.364625 52.633072 106.751221 
C 52.246476 107.137818 52.029257 107.662229 52.029257 108.208959 
C 52.029257 108.755689 52.246476 109.280101 52.633072 109.666697 
C 53.019669 110.053294 53.54408 110.270512 54.09081 110.270512 
z
" clip-path="url(#p23d394cc4d)" style="stroke: #000000"/>
    <path d="M 51.81179 101.447201 
C 51.969481 101.447201 52.120735 101.38455 52.232239 101.273045 
C 52.343743 101.161541 52.406394 101.010288 52.406394 100.852597 
C 52.406394 100.694906 52.343743 100.543653 52.232239 100.432149 
C 52.120735 100.320645 51.969481 100.257994 51.81179 100.257994 
C 51.6541 100.257994 51.502846 100.320645 51.391342 100.432149 
C 51.279838 100.543653 51.217187 100.694906 51.217187 100.852597 
C 51.217187 101.010288 51.279838 101.161541 51.391342 101.273045 
C 51.502846 101.38455 51.6541 101.447201 51.81179 101.447201 
z
" clip-path="url(#p23d394cc4d)" style="stroke: #000000"/>
    <path d="M 48.821744 100.261128 
C 48.996258 100.261128 49.163647 100.191793 49.287046 100.068394 
C 49.410446 99.944994 49.479781 99.777605 49.479781 99.603091 
C 49.479781 99.428578 49.410446 99.261188 49.287046 99.137789 
C 49.163647 99.014389 48.996258 98.945054 48.821744 98.945054 
C 48.647231 98.945054 48.479841 99.014389 48.356442 99.137789 
C 48.233042 99.261188 48.163707 99.428578 48.163707 99.603091 
C 48.163707 99.777605 48.233042 99.944994 48.356442 100.068394 
C 48.479841 100.191793 48.647231 100.261128 48.821744 100.261128 
z
" clip-path="url(#p23d394cc4d)" style="stroke: #000000"/>
    <path d="M 48.774871 91.825538 
C 48.949384 91.825538 49.116774 91.756203 49.240173 91.632803 
C 49.363573 91.509404 49.432908 91.342014 49.432908 91.167501 
C 49.432908 90.992987 49.363573 90.825598 49.240173 90.702198 
C 49.116774 90.578799 48.949384 90.509464 48.774871 90.509464 
C 48.600358 90.509464 48.432968 90.578799 48.309569 90.702198 
C 48.186169 90.825598 48.116834 90.992987 48.116834 91.167501 
C 48.116834 91.342014 48.186169 91.509404 48.309569 91.632803 
C 48.432968 91.756203 48.600358 91.825538 48.774871 91.825538 
z
" clip-path="url(#p23d394cc4d)" style="stroke: #000000"/>
    <path d="M 45.209493 84.428185 
C 45.493352 84.428185 45.765624 84.315406 45.966343 84.114687 
C 46.167062 83.913968 46.27984 83.641697 46.27984 83.357837 
C 46.27984 83.073978 46.167062 82.801706 45.966343 82.600987 
C 45.765624 82.400268 45.493352 82.28749 45.209493 82.28749 
C 44.925633 82.28749 44.653362 82.400268 44.452643 82.600987 
C 44.251924 82.801706 44.139145 83.073978 44.139145 83.357837 
C 44.139145 83.641697 44.251924 83.913968 44.452643 84.114687 
C 44.653362 84.315406 44.925633 84.428185 45.209493 84.428185 
z
" clip-path="url(#p23d394cc4d)" style="stroke: #000000"/>
    <path d="M 67.074755 164.392389 
C 67.232445 164.392389 67.383699 164.329737 67.495203 164.218233 
C 67.606707 164.106729 67.669358 163.955476 67.669358 163.797785 
C 67.669358 163.640094 67.606707 163.488841 67.495203 163.377337 
C 67.383699 163.265833 67.232445 163.203181 67.074755 163.203181 
C 66.917064 163.203181 66.765811 163.265833 66.654306 163.377337 
C 66.542802 163.488841 66.480151 163.640094 66.480151 163.797785 
C 66.480151 163.955476 66.542802 164.106729 66.654306 164.218233 
C 66.765811 164.329737 66.917064 164.392389 67.074755 164.392389 
z
" clip-path="url(#p23d394cc4d)" style="stroke: #000000"/>
    <path d="M 58.098537 143.53034 
C 58.36779 143.53034 58.626051 143.423365 58.816442 143.232974 
C 59.006833 143.042583 59.113808 142.784322 59.113808 142.515068 
C 59.113808 142.245815 59.006833 141.987554 58.816442 141.797163 
C 58.626051 141.606772 58.36779 141.499797 58.098537 141.499797 
C 57.829283 141.499797 57.571022 141.606772 57.380631 141.797163 
C 57.19024 141.987554 57.083265 142.245815 57.083265 142.515068 
C 57.083265 142.784322 57.19024 143.042583 57.380631 143.232974 
C 57.571022 143.423365 57.829283 143.53034 58.098537 143.53034 
z
" clip-path="url(#p23d394cc4d)" style="stroke: #000000"/>
    <path d="M 56.584821 132.225524 
C 56.975045 132.225524 57.349339 132.070486 57.625269 131.794556 
C 57.901199 131.518626 58.056237 131.144332 58.056237 130.754108 
C 58.056237 130.363884 57.901199 129.98959 57.625269 129.71366 
C 57.349339 129.43773 56.975045 129.282693 56.584821 129.282693 
C 56.194597 129.282693 55.820303 129.43773 55.544373 129.71366 
C 55.268443 129.98959 55.113406 130.363884 55.113406 130.754108 
C 55.113406 131.144332 55.268443 131.518626 55.544373 131.794556 
C 55.820303 132.070486 56.194597 132.225524 56.584821 132.225524 
z
" clip-path="url(#p23d394cc4d)" style="stroke: #000000"/>
    <path d="M 50.101452 122.182483 
C 50.234054 122.182483 50.361242 122.1298 50.455006 122.036037 
C 50.548769 121.942273 50.601452 121.815085 50.601452 121.682483 
C 50.601452 121.549882 50.548769 121.422693 50.455006 121.32893 
C 50.361242 121.235166 50.234054 121.182483 50.101452 121.182483 
C 49.968851 121.182483 49.841662 121.235166 49.747899 121.32893 
C 49.654135 121.422693 49.601452 121.549882 49.601452 121.682483 
C 49.601452 121.815085 49.654135 121.942273 49.747899 122.036037 
C 49.841662 122.1298 49.968851 122.182483 50.101452 122.182483 
z
" clip-path="url(#p23d394cc4d)" style="stroke: #000000"/>
    <path d="M 52.107055 117.355873 
C 52.239657 117.355873 52.366845 117.30319 52.460609 117.209426 
C 52.554372 117.115663 52.607055 116.988474 52.607055 116.855873 
C 52.607055 116.723271 52.554372 116.596083 52.460609 116.502319 
C 52.366845 116.408556 52.239657 116.355873 52.107055 116.355873 
C 51.974454 116.355873 51.847265 116.408556 51.753502 116.502319 
C 51.659738 116.596083 51.607055 116.723271 51.607055 116.855873 
C 51.607055 116.988474 51.659738 117.115663 51.753502 117.209426 
C 51.847265 117.30319 51.974454 117.355873 52.107055 117.355873 
z
" clip-path="url(#p23d394cc4d)" style="stroke: #000000"/>
    <path d="M 49.747189 112.422772 
C 50.190569 112.422772 50.615849 112.246615 50.929366 111.933098 
C 51.242883 111.619581 51.41904 111.194301 51.41904 110.750921 
C 51.41904 110.307541 51.242883 109.882261 50.929366 109.568744 
C 50.615849 109.255227 50.190569 109.079071 49.747189 109.079071 
C 49.303809 109.079071 48.878529 109.255227 48.565012 109.568744 
C 48.251495 109.882261 48.075339 110.307541 48.075339 110.750921 
C 48.075339 111.194301 48.251495 111.619581 48.565012 111.933098 
C 48.878529 112.246615 49.303809 112.422772 49.747189 112.422772 
z
" clip-path="url(#p23d394cc4d)" style="stroke: #000000"/>
    <path d="M 47.379607 105.739783 
C 47.621096 105.739783 47.852726 105.643839 48.023484 105.47308 
C 48.194243 105.302322 48.290187 105.070692 48.290187 104.829203 
C 48.290187 104.587714 48.194243 104.356084 48.023484 104.185326 
C 47.852726 104.014567 47.621096 103.918623 47.379607 103.918623 
C 47.138118 103.918623 46.906488 104.014567 46.73573 104.185326 
C 46.564971 104.356084 46.469027 104.587714 46.469027 104.829203 
C 46.469027 105.070692 46.564971 105.302322 46.73573 105.47308 
C 46.906488 105.643839 47.138118 105.739783 47.379607 105.739783 
z
" clip-path="url(#p23d394cc4d)" style="stroke: #000000"/>
    <path d="M 43.195088 99.51683 
C 43.502802 99.51683 43.797955 99.394573 44.015542 99.176986 
C 44.233129 98.959399 44.355385 98.664246 44.355385 98.356532 
C 44.355385 98.048817 44.233129 97.753664 44.015542 97.536077 
C 43.797955 97.31849 43.502802 97.196234 43.195088 97.196234 
C 42.887373 97.196234 42.59222 97.31849 42.374633 97.536077 
C 42.157046 97.753664 42.03479 98.048817 42.03479 98.356532 
C 42.03479 98.664246 42.157046 98.959399 42.374633 99.176986 
C 42.59222 99.394573 42.887373 99.51683 43.195088 99.51683 
z
" clip-path="url(#p23d394cc4d)" style="stroke: #000000"/>
    <path d="M 39.601059 86.452642 
C 39.836862 86.452642 40.063038 86.358956 40.229776 86.192219 
C 40.396514 86.025481 40.490199 85.799305 40.490199 85.563502 
C 40.490199 85.327699 40.396514 85.101523 40.229776 84.934785 
C 40.063038 84.768048 39.836862 84.674362 39.601059 84.674362 
C 39.365257 84.674362 39.13908 84.768048 38.972343 84.934785 
C 38.805605 85.101523 38.71192 85.327699 38.71192 85.563502 
C 38.71192 85.799305 38.805605 86.025481 38.972343 86.192219 
C 39.13908 86.358956 39.365257 86.452642 39.601059 86.452642 
z
" clip-path="url(#p23d394cc4d)" style="stroke: #000000"/>
    <path d="M 48.668009 132.383498 
C 49.001485 132.383498 49.321346 132.251006 49.557149 132.015204 
C 49.792952 131.779401 49.925443 131.459539 49.925443 131.126064 
C 49.925443 130.792589 49.792952 130.472727 49.557149 130.236924 
C 49.321346 130.001122 49.001485 129.868631 48.668009 129.868631 
C 48.334534 129.868631 48.014672 130.001122 47.77887 130.236924 
C 47.543067 130.472727 47.410576 130.792589 47.410576 131.126064 
C 47.410576 131.459539 47.543067 131.779401 47.77887 132.015204 
C 48.014672 132.251006 48.334534 132.383498 48.668009 132.383498 
z
" clip-path="url(#p23d394cc4d)" style="stroke: #000000"/>
    <path d="M 46.73477 125.751736 
C 47.080103 125.751736 47.411338 125.614534 47.655526 125.370347 
C 47.899713 125.126159 48.036915 124.794924 48.036915 124.449591 
C 48.036915 124.104258 47.899713 123.773022 47.655526 123.528835 
C 47.411338 123.284648 47.080103 123.147446 46.73477 123.147446 
C 46.389437 123.147446 46.058201 123.284648 45.814014 123.528835 
C 45.569827 123.773022 45.432625 124.104258 45.432625 124.449591 
C 45.432625 124.794924 45.569827 125.126159 45.814014 125.370347 
C 46.058201 125.614534 46.389437 125.751736 46.73477 125.751736 
z
" clip-path="url(#p23d394cc4d)" style="stroke: #000000"/>
    <path d="M 45.065113 117.855349 
C 45.394339 117.855349 45.710125 117.724546 45.942924 117.491748 
C 46.175722 117.25895 46.306525 116.943164 46.306525 116.613938 
C 46.306525 116.284711 46.175722 115.968925 45.942924 115.736127 
C 45.710125 115.503329 45.394339 115.372526 45.065113 115.372526 
C 44.735887 115.372526 44.4201 115.503329 44.187302 115.736127 
C 43.954504 115.968925 43.823701 116.284711 43.823701 116.613938 
C 43.823701 116.943164 43.954504 117.25895 44.187302 117.491748 
C 44.4201 117.724546 44.735887 117.855349 45.065113 117.855349 
z
" clip-path="url(#p23d394cc4d)" style="stroke: #000000"/>
    <path d="M 40.712858 114.689613 
C 40.985986 114.689613 41.247965 114.581098 41.441096 114.387967 
C 41.634227 114.194836 41.742742 113.932857 41.742742 113.659729 
C 41.742742 113.386601 41.634227 113.124622 41.441096 112.931491 
C 41.247965 112.738361 40.985986 112.629846 40.712858 112.629846 
C 40.43973 112.629846 40.177751 112.738361 39.98462 112.931491 
C 39.791489 113.124622 39.682974 113.386601 39.682974 113.659729 
C 39.682974 113.932857 39.791489 114.194836 39.98462 114.387967 
C 40.177751 114.581098 40.43973 114.689613 40.712858 114.689613 
z
" clip-path="url(#p23d394cc4d)" style="stroke: #000000"/>
    <path d="M 41.407406 110.442111 
C 41.738777 110.442111 42.056621 110.310456 42.290936 110.076141 
C 42.525251 109.841826 42.656906 109.523982 42.656906 109.192611 
C 42.656906 108.86124 42.525251 108.543396 42.290936 108.309081 
C 42.056621 108.074766 41.738777 107.943111 41.407406 107.943111 
C 41.076035 107.943111 40.758191 108.074766 40.523877 108.309081 
C 40.289562 108.543396 40.157907 108.86124 40.157907 109.192611 
C 40.157907 109.523982 40.289562 109.841826 40.523877 110.076141 
C 40.758191 110.310456 41.076035 110.442111 41.407406 110.442111 
z
" clip-path="url(#p23d394cc4d)" style="stroke: #000000"/>
    <path d="M 39.376413 103.366653 
C 39.666802 103.366653 39.945337 103.251281 40.150673 103.045944 
C 40.356009 102.840608 40.471382 102.562073 40.471382 102.271684 
C 40.471382 101.981295 40.356009 101.70276 40.150673 101.497424 
C 39.945337 101.292088 39.666802 101.176715 39.376413 101.176715 
C 39.086023 101.176715 38.807489 101.292088 38.602152 101.497424 
C 38.396816 101.70276 38.281443 101.981295 38.281443 102.271684 
C 38.281443 102.562073 38.396816 102.840608 38.602152 103.045944 
C 38.807489 103.251281 39.086023 103.366653 39.376413 103.366653 
z
" clip-path="url(#p23d394cc4d)" style="stroke: #000000"/>
    <path d="M 35.072255 95.047709 
C 35.313744 95.047709 35.545374 94.951764 35.716133 94.781006 
C 35.886891 94.610248 35.982835 94.378617 35.982835 94.137129 
C 35.982835 93.89564 35.886891 93.66401 35.716133 93.493251 
C 35.545374 93.322493 35.313744 93.226549 35.072255 93.226549 
C 34.830767 93.226549 34.599136 93.322493 34.428378 93.493251 
C 34.25762 93.66401 34.161675 93.89564 34.161675 94.137129 
C 34.161675 94.378617 34.25762 94.610248 34.428378 94.781006 
C 34.599136 94.951764 34.830767 95.047709 35.072255 95.047709 
z
" clip-path="url(#p23d394cc4d)" style="stroke: #000000"/>
    <path d="M 30.650566 84.037294 
C 30.783168 84.037294 30.910356 83.984611 31.004119 83.890847 
C 31.097883 83.797084 31.150566 83.669895 31.150566 83.537294 
C 31.150566 83.404692 31.097883 83.277504 31.004119 83.18374 
C 30.910356 83.089977 30.783168 83.037294 30.650566 83.037294 
C 30.517965 83.037294 30.390776 83.089977 30.297013 83.18374 
C 30.203249 83.277504 30.150566 83.404692 30.150566 83.537294 
C 30.150566 83.669895 30.203249 83.797084 30.297013 83.890847 
C 30.390776 83.984611 30.517965 84.037294 30.650566 84.037294 
z
" clip-path="url(#p23d394cc4d)" style="stroke: #000000"/>
    <path d="M 41.188072 134.810684 
C 41.320673 134.810684 41.447862 134.758001 41.541625 134.664237 
C 41.635389 134.570474 41.688072 134.443285 41.688072 134.310684 
C 41.688072 134.178082 41.635389 134.050894 41.541625 133.95713 
C 41.447862 133.863367 41.320673 133.810684 41.188072 133.810684 
C 41.05547 133.810684 40.928282 133.863367 40.834518 133.95713 
C 40.740755 134.050894 40.688072 134.178082 40.688072 134.310684 
C 40.688072 134.443285 40.740755 134.570474 40.834518 134.664237 
C 40.928282 134.758001 41.05547 134.810684 41.188072 134.810684 
z
" clip-path="url(#p23d394cc4d)" style="stroke: #000000"/>
    <path d="M 39.097226 121.094352 
C 39.333029 121.094352 39.559205 121.000667 39.725943 120.833929 
C 39.892681 120.667192 39.986366 120.441015 39.986366 120.205213 
C 39.986366 119.96941 39.892681 119.743234 39.725943 119.576496 
C 39.559205 119.409758 39.333029 119.316073 39.097226 119.316073 
C 38.861424 119.316073 38.635247 119.409758 38.468509 119.576496 
C 38.301772 119.743234 38.208086 119.96941 38.208086 120.205213 
C 38.208086 120.441015 38.301772 120.667192 38.468509 120.833929 
C 38.635247 121.000667 38.861424 121.094352 39.097226 121.094352 
z
" clip-path="url(#p23d394cc4d)" style="stroke: #000000"/>
    <path d="M 35.306883 110.051083 
C 35.583728 110.051083 35.849272 109.941091 36.045031 109.745332 
C 36.24079 109.549573 36.350782 109.284029 36.350782 109.007184 
C 36.350782 108.730339 36.24079 108.464795 36.045031 108.269036 
C 35.849272 108.073277 35.583728 107.963285 35.306883 107.963285 
C 35.030038 107.963285 34.764494 108.073277 34.568735 108.269036 
C 34.372976 108.464795 34.262984 108.730339 34.262984 109.007184 
C 34.262984 109.284029 34.372976 109.549573 34.568735 109.745332 
C 34.764494 109.941091 35.030038 110.051083 35.306883 110.051083 
z
" clip-path="url(#p23d394cc4d)" style="stroke: #000000"/>
    <path d="M 47.402664 173.420132 
C 47.535266 173.420132 47.662454 173.367449 47.756218 173.273685 
C 47.849981 173.179922 47.902664 173.052733 47.902664 172.920132 
C 47.902664 172.78753 47.849981 172.660342 47.756218 172.566578 
C 47.662454 172.472815 47.535266 172.420132 47.402664 172.420132 
C 47.270063 172.420132 47.142874 172.472815 47.049111 172.566578 
C 46.955347 172.660342 46.902664 172.78753 46.902664 172.920132 
C 46.902664 173.052733 46.955347 173.179922 47.049111 173.273685 
C 47.142874 173.367449 47.270063 173.420132 47.402664 173.420132 
z
" clip-path="url(#p23d394cc4d)" style="stroke: #000000"/>
    <path d="M 38.591201 138.782525 
C 38.832689 138.782525 39.06432 138.68658 39.235078 138.515822 
C 39.405836 138.345064 39.501781 138.113433 39.501781 137.871945 
C 39.501781 137.630456 39.405836 137.398826 39.235078 137.228067 
C 39.06432 137.057309 38.832689 136.961364 38.591201 136.961364 
C 38.349712 136.961364 38.118082 137.057309 37.947323 137.228067 
C 37.776565 137.398826 37.680621 137.630456 37.680621 137.871945 
C 37.680621 138.113433 37.776565 138.345064 37.947323 138.515822 
C 38.118082 138.68658 38.349712 138.782525 38.591201 138.782525 
z
" clip-path="url(#p23d394cc4d)" style="stroke: #000000"/>
    <path d="M 31.833668 135.559655 
C 31.966269 135.559655 32.093458 135.506972 32.187221 135.413208 
C 32.280985 135.319445 32.333668 135.192256 32.333668 135.059655 
C 32.333668 134.927053 32.280985 134.799865 32.187221 134.706101 
C 32.093458 134.612338 31.966269 134.559655 31.833668 134.559655 
C 31.701066 134.559655 31.573878 134.612338 31.480114 134.706101 
C 31.386351 134.799865 31.333668 134.927053 31.333668 135.059655 
C 31.333668 135.192256 31.386351 135.319445 31.480114 135.413208 
C 31.573878 135.506972 31.701066 135.559655 31.833668 135.559655 
z
" clip-path="url(#p23d394cc4d)" style="stroke: #000000"/>
    <path d="M 36.276064 130.38072 
C 36.433755 130.38072 36.585008 130.318068 36.696513 130.206564 
C 36.808017 130.09506 36.870668 129.943807 36.870668 129.786116 
C 36.870668 129.628425 36.808017 129.477172 36.696513 129.365668 
C 36.585008 129.254164 36.433755 129.191512 36.276064 129.191512 
C 36.118374 129.191512 35.96712 129.254164 35.855616 129.365668 
C 35.744112 129.477172 35.681461 129.628425 35.681461 129.786116 
C 35.681461 129.943807 35.744112 130.09506 35.855616 130.206564 
C 35.96712 130.318068 36.118374 130.38072 36.276064 130.38072 
z
" clip-path="url(#p23d394cc4d)" style="stroke: #000000"/>
    <path d="M 30.534581 117.220573 
C 30.770383 117.220573 30.99656 117.126887 31.163297 116.96015 
C 31.330035 116.793412 31.42372 116.567236 31.42372 116.331433 
C 31.42372 116.09563 31.330035 115.869454 31.163297 115.702716 
C 30.99656 115.535979 30.770383 115.442293 30.534581 115.442293 
C 30.298778 115.442293 30.072601 115.535979 29.905864 115.702716 
C 29.739126 115.869454 29.645441 116.09563 29.645441 116.331433 
C 29.645441 116.567236 29.739126 116.793412 29.905864 116.96015 
C 30.072601 117.126887 30.298778 117.220573 30.534581 117.220573 
z
" clip-path="url(#p23d394cc4d)" style="stroke: #000000"/>
   </g>
   <g id="matplotlib.axis_1">
    <g id="xtick_1">
     <g id="line2d_1">
      <defs>
       <path id="maad7c6da19" d="M 0 0 
L 0 3.5 
" style="stroke: #000000; stroke-width: 0.8"/>
      </defs>
      <g>
       <use xlink:href="#maad7c6da19" x="18" y="189" style="stroke: #000000; stroke-width: 0.8"/>
      </g>
     </g>
     <g id="text_1">
      <!-- 10 -->
      <g transform="translate(7.447656 203.598437)scale(0.1 -0.1)">
       <defs>
        <path id="DejaVuSans-2212" d="M 678 2272 
L 4684 2272 
L 4684 1741 
L 678 1741 
L 678 2272 
z
" transform="scale(0.015625)"/>
        <path id="DejaVuSans-31" d="M 794 531 
L 1825 531 
L 1825 4091 
L 703 3866 
L 703 4441 
L 1819 4666 
L 2450 4666 
L 2450 531 
L 3481 531 
L 3481 0 
L 794 0 
L 794 531 
z
" transform="scale(0.015625)"/>
        <path id="DejaVuSans-30" d="M 2034 4250 
Q 1547 4250 1301 3770 
Q 1056 3291 1056 2328 
Q 1056 1369 1301 889 
Q 1547 409 2034 409 
Q 2525 409 2770 889 
Q 3016 1369 3016 2328 
Q 3016 3291 2770 3770 
Q 2525 4250 2034 4250 
z
M 2034 4750 
Q 2819 4750 3233 4129 
Q 3647 3509 3647 2328 
Q 3647 1150 3233 529 
Q 2819 -91 2034 -91 
Q 1250 -91 836 529 
Q 422 1150 422 2328 
Q 422 3509 836 4129 
Q 1250 4750 2034 4750 
z
" transform="scale(0.015625)"/>
       </defs>
       <use xlink:href="#DejaVuSans-2212"/>
       <use xlink:href="#DejaVuSans-31" x="83.789062"/>
       <use xlink:href="#DejaVuSans-30" x="147.412109"/>
      </g>
     </g>
    </g>
    <g id="xtick_2">
     <g id="line2d_2">
      <g>
       <use xlink:href="#maad7c6da19" x="73.8" y="189" style="stroke: #000000; stroke-width: 0.8"/>
      </g>
     </g>
     <g id="text_2">
      <!-- 0 -->
      <g transform="translate(70.61875 203.598437)scale(0.1 -0.1)">
       <use xlink:href="#DejaVuSans-30"/>
      </g>
     </g>
    </g>
    <g id="xtick_3">
     <g id="line2d_3">
      <g>
       <use xlink:href="#maad7c6da19" x="129.6" y="189" style="stroke: #000000; stroke-width: 0.8"/>
      </g>
     </g>
     <g id="text_3">
      <!-- 10 -->
      <g transform="translate(123.2375 203.598437)scale(0.1 -0.1)">
       <use xlink:href="#DejaVuSans-31"/>
       <use xlink:href="#DejaVuSans-30" x="63.623047"/>
      </g>
     </g>
    </g>
   </g>
   <g id="matplotlib.axis_2">
    <g id="ytick_1">
     <g id="line2d_4">
      <defs>
       <path id="m50310b8cbc" d="M 0 0 
L -3.5 0 
" style="stroke: #000000; stroke-width: 0.8"/>
      </defs>
      <g>
       <use xlink:href="#m50310b8cbc" x="18" y="189" style="stroke: #000000; stroke-width: 0.8"/>
      </g>
     </g>
     <g id="text_4">
      <!-- 15 -->
      <g transform="translate(-10.104688 192.799219)scale(0.1 -0.1)">
       <defs>
        <path id="DejaVuSans-35" d="M 691 4666 
L 3169 4666 
L 3169 4134 
L 1269 4134 
L 1269 2991 
Q 1406 3038 1543 3061 
Q 1681 3084 1819 3084 
Q 2600 3084 3056 2656 
Q 3513 2228 3513 1497 
Q 3513 744 3044 326 
Q 2575 -91 1722 -91 
Q 1428 -91 1123 -41 
Q 819 9 494 109 
L 494 744 
Q 775 591 1075 516 
Q 1375 441 1709 441 
Q 2250 441 2565 725 
Q 2881 1009 2881 1497 
Q 2881 1984 2565 2268 
Q 2250 2553 1709 2553 
Q 1456 2553 1204 2497 
Q 953 2441 691 2322 
L 691 4666 
z
" transform="scale(0.015625)"/>
       </defs>
       <use xlink:href="#DejaVuSans-2212"/>
       <use xlink:href="#DejaVuSans-31" x="83.789062"/>
       <use xlink:href="#DejaVuSans-35" x="147.412109"/>
      </g>
     </g>
    </g>
    <g id="ytick_2">
     <g id="line2d_5">
      <g>
       <use xlink:href="#m50310b8cbc" x="18" y="161.82" style="stroke: #000000; stroke-width: 0.8"/>
      </g>
     </g>
     <g id="text_5">
      <!-- 10 -->
      <g transform="translate(-10.104688 165.619219)scale(0.1 -0.1)">
       <use xlink:href="#DejaVuSans-2212"/>
       <use xlink:href="#DejaVuSans-31" x="83.789062"/>
       <use xlink:href="#DejaVuSans-30" x="147.412109"/>
      </g>
     </g>
    </g>
    <g id="ytick_3">
     <g id="line2d_6">
      <g>
       <use xlink:href="#m50310b8cbc" x="18" y="134.64" style="stroke: #000000; stroke-width: 0.8"/>
      </g>
     </g>
     <g id="text_6">
      <!-- 5 -->
      <g transform="translate(-3.742188 138.439219)scale(0.1 -0.1)">
       <use xlink:href="#DejaVuSans-2212"/>
       <use xlink:href="#DejaVuSans-35" x="83.789062"/>
      </g>
     </g>
    </g>
    <g id="ytick_4">
     <g id="line2d_7">
      <g>
       <use xlink:href="#m50310b8cbc" x="18" y="107.46" style="stroke: #000000; stroke-width: 0.8"/>
      </g>
     </g>
     <g id="text_7">
      <!-- 0 -->
      <g transform="translate(4.6375 111.259219)scale(0.1 -0.1)">
       <use xlink:href="#DejaVuSans-30"/>
      </g>
     </g>
    </g>
    <g id="ytick_5">
     <g id="line2d_8">
      <g>
       <use xlink:href="#m50310b8cbc" x="18" y="80.28" style="stroke: #000000; stroke-width: 0.8"/>
      </g>
     </g>
     <g id="text_8">
      <!-- 5 -->
      <g transform="translate(4.6375 84.079219)scale(0.1 -0.1)">
       <use xlink:href="#DejaVuSans-35"/>
      </g>
     </g>
    </g>
    <g id="ytick_6">
     <g id="line2d_9">
      <g>
       <use xlink:href="#m50310b8cbc" x="18" y="53.1" style="stroke: #000000; stroke-width: 0.8"/>
      </g>
     </g>
     <g id="text_9">
      <!-- 10 -->
      <g transform="translate(-1.725 56.899219)scale(0.1 -0.1)">
       <use xlink:href="#DejaVuSans-31"/>
       <use xlink:href="#DejaVuSans-30" x="63.623047"/>
      </g>
     </g>
    </g>
    <g id="ytick_7">
     <g id="line2d_10">
      <g>
       <use xlink:href="#m50310b8cbc" x="18" y="25.92" style="stroke: #000000; stroke-width: 0.8"/>
      </g>
     </g>
     <g id="text_10">
      <!-- 15 -->
      <g transform="translate(-1.725 29.719219)scale(0.1 -0.1)">
       <use xlink:href="#DejaVuSans-31"/>
       <use xlink:href="#DejaVuSans-35" x="63.623047"/>
      </g>
     </g>
    </g>
   </g>
   <g id="patch_3">
    <path d="M 18 189 
L 18 25.92 
" style="fill: none; stroke: #000000; stroke-width: 0.8; stroke-linejoin: miter; stroke-linecap: square"/>
   </g>
   <g id="patch_4">
    <path d="M 129.6 189 
L 129.6 25.92 
" style="fill: none; stroke: #000000; stroke-width: 0.8; stroke-linejoin: miter; stroke-linecap: square"/>
   </g>
   <g id="patch_5">
    <path d="M 18 189 
L 129.6 189 
" style="fill: none; stroke: #000000; stroke-width: 0.8; stroke-linejoin: miter; stroke-linecap: square"/>
   </g>
   <g id="patch_6">
    <path d="M 18 25.92 
L 129.6 25.92 
" style="fill: none; stroke: #000000; stroke-width: 0.8; stroke-linejoin: miter; stroke-linecap: square"/>
   </g>
  </g>
 </g>
 <defs>
  <clipPath id="p23d394cc4d">
   <rect x="18" y="25.92" width="111.6" height="163.08"/>
  </clipPath>
 </defs>
</svg>
