<?xml version="1.0" encoding="utf-8" standalone="no"?>
<!DOCTYPE svg PUBLIC "-//W3C//DTD SVG 1.1//EN"
  "http://www.w3.org/Graphics/SVG/1.1/DTD/svg11.dtd">
<svg xmlns:xlink="http://www.w3.org/1999/xlink" width="144pt" height="216pt" viewBox="0 0 144 216" xmlns="http://www.w3.org/2000/svg" version="1.1">
 <metadata>
  <rdf:RDF xmlns:dc="http://purl.org/dc/elements/1.1/" xmlns:cc="http://creativecommons.org/ns#" xmlns:rdf="http://www.w3.org/1999/02/22-rdf-syntax-ns#">
   <cc:Work>
    <dc:type rdf:resource="http://purl.org/dc/dcmitype/StillImage"/>
    <dc:date>2022-06-23T14:45:42.705548</dc:date>
    <dc:format>image/svg+xml</dc:format>
    <dc:creator>
     <cc:Agent>
      <dc:title>Matplotlib v3.5.1, https://matplotlib.org/</dc:title>
     </cc:Agent>
    </dc:creator>
   </cc:Work>
  </rdf:RDF>
 </metadata>
 <defs>
  <style type="text/css">*{stroke-linejoin: round; stroke-linecap: butt}</style>
 </defs>
 <g id="figure_1">
  <g id="patch_1">
   <path d="M 0 216 
L 144 216 
L 144 0 
L 0 0 
L 0 216 
z
" style="fill: none"/>
  </g>
  <g id="axes_1">
   <g id="patch_2">
    <path d="M 18 189 
L 129.6 189 
L 129.6 25.92 
L 18 25.92 
z
" style="fill: #ffffff"/>
   </g>
   <g id="PathCollection_1">
    <defs>
     <path id="m26a8a29066" d="M 0 2.738613 
C 0.726289 2.738613 1.422928 2.450055 1.936492 1.936492 
C 2.450055 1.422928 2.738613 0.726289 2.738613 0 
C 2.738613 -0.726289 2.450055 -1.422928 1.936492 -1.936492 
C 1.422928 -2.450055 0.726289 -2.738613 0 -2.738613 
C -0.726289 -2.738613 -1.422928 -2.450055 -1.936492 -1.936492 
C -2.450055 -1.422928 -2.738613 -0.726289 -2.738613 0 
C -2.738613 0.726289 -2.450055 1.422928 -1.936492 1.936492 
C -1.422928 2.450055 -0.726289 2.738613 0 2.738613 
z
" style="stroke: #ff0000; stroke-width: 1.75"/>
    </defs>
    <g clip-path="url(#p66c1bdf0b4)">
     <use xlink:href="#m26a8a29066" x="80.775" y="107.46" style="fill: #ff0000; stroke: #ff0000; stroke-width: 1.75"/>
     <use xlink:href="#m26a8a29066" x="94.725" y="107.46" style="fill: #ff0000; stroke: #ff0000; stroke-width: 1.75"/>
     <use xlink:href="#m26a8a29066" x="59.85" y="119.229285" style="fill: #ff0000; stroke: #ff0000; stroke-width: 1.75"/>
     <use xlink:href="#m26a8a29066" x="73.8" y="119.229285" style="fill: #ff0000; stroke: #ff0000; stroke-width: 1.75"/>
     <use xlink:href="#m26a8a29066" x="87.75" y="119.229285" style="fill: #ff0000; stroke: #ff0000; stroke-width: 1.75"/>
     <use xlink:href="#m26a8a29066" x="66.825" y="130.99857" style="fill: #ff0000; stroke: #ff0000; stroke-width: 1.75"/>
     <use xlink:href="#m26a8a29066" x="80.775" y="130.99857" style="fill: #ff0000; stroke: #ff0000; stroke-width: 1.75"/>
    </g>
   </g>
   <g id="PathCollection_2">
    <defs>
     <path id="C0_0_75665c0fd9" d="M 0 2.738613 
C 0.726289 2.738613 1.422928 2.450055 1.936492 1.936492 
C 2.450055 1.422928 2.738613 0.726289 2.738613 -0 
C 2.738613 -0.726289 2.450055 -1.422928 1.936492 -1.936492 
C 1.422928 -2.450055 0.726289 -2.738613 0 -2.738613 
C -0.726289 -2.738613 -1.422928 -2.450055 -1.936492 -1.936492 
C -2.450055 -1.422928 -2.738613 -0.726289 -2.738613 0 
C -2.738613 0.726289 -2.450055 1.422928 -1.936492 1.936492 
C -1.422928 2.450055 -0.726289 2.738613 0 2.738613 
z
"/>
    </defs>
    <g clip-path="url(#p66c1bdf0b4)">
     <use xlink:href="#C0_0_75665c0fd9" x="66.825" y="83.92143" style="fill: none; stroke: #ff0000; stroke-width: 1.75"/>
    </g>
    <g clip-path="url(#p66c1bdf0b4)">
     <use xlink:href="#C0_0_75665c0fd9" x="80.775" y="83.92143" style="fill: none; stroke: #ff0000; stroke-width: 1.75"/>
    </g>
    <g clip-path="url(#p66c1bdf0b4)">
     <use xlink:href="#C0_0_75665c0fd9" x="59.85" y="95.690715" style="fill: none; stroke: #ff0000; stroke-width: 1.75"/>
    </g>
    <g clip-path="url(#p66c1bdf0b4)">
     <use xlink:href="#C0_0_75665c0fd9" x="73.8" y="95.690715" style="fill: none; stroke: #ff0000; stroke-width: 1.75"/>
    </g>
    <g clip-path="url(#p66c1bdf0b4)">
     <use xlink:href="#C0_0_75665c0fd9" x="87.75" y="95.690715" style="fill: none; stroke: #ff0000; stroke-width: 1.75"/>
    </g>
    <g clip-path="url(#p66c1bdf0b4)">
     <use xlink:href="#C0_0_75665c0fd9" x="52.875" y="107.46" style="fill: none; stroke: #ff0000; stroke-width: 1.75"/>
    </g>
    <g clip-path="url(#p66c1bdf0b4)">
     <use xlink:href="#C0_0_75665c0fd9" x="66.825" y="107.46" style="fill: none; stroke: #ff0000; stroke-width: 1.75"/>
    </g>
   </g>
   <g id="PathCollection_3">
    <path d="M 100.135534 72.976449 
C 100.634196 72.976449 101.112501 72.778328 101.465108 72.425721 
C 101.817715 72.073114 102.015836 71.594809 102.015836 71.096147 
C 102.015836 70.597485 101.817715 70.11918 101.465108 69.766573 
C 101.112501 69.413966 100.634196 69.215846 100.135534 69.215846 
C 99.636872 69.215846 99.158567 69.413966 98.80596 69.766573 
C 98.453353 70.11918 98.255232 70.597485 98.255232 71.096147 
C 98.255232 71.594809 98.453353 72.073114 98.80596 72.425721 
C 99.158567 72.778328 99.636872 72.976449 100.135534 72.976449 
z
" clip-path="url(#p66c1bdf0b4)" style="stroke: #000000"/>
    <path d="M 94.700942 60.975725 
C 95.184604 60.975725 95.648521 60.783564 95.990522 60.441564 
C 96.332522 60.099563 96.524683 59.635646 96.524683 59.151984 
C 96.524683 58.668322 96.332522 58.204404 95.990522 57.862403 
C 95.648521 57.520403 95.184604 57.328242 94.700942 57.328242 
C 94.21728 57.328242 93.753362 57.520403 93.411361 57.862403 
C 93.069361 58.204404 92.8772 58.668322 92.8772 59.151984 
C 92.8772 59.635646 93.069361 60.099563 93.411361 60.441564 
C 93.753362 60.783564 94.21728 60.975725 94.700942 60.975725 
z
" clip-path="url(#p66c1bdf0b4)" style="stroke: #000000"/>
    <path d="M 90.288723 44.620804 
C 90.608921 44.620804 90.916047 44.493588 91.142461 44.267174 
C 91.368875 44.04076 91.496091 43.733634 91.496091 43.413436 
C 91.496091 43.093238 91.368875 42.786112 91.142461 42.559698 
C 90.916047 42.333284 90.608921 42.206068 90.288723 42.206068 
C 89.968525 42.206068 89.661399 42.333284 89.434985 42.559698 
C 89.208571 42.786112 89.081355 43.093238 89.081355 43.413436 
C 89.081355 43.733634 89.208571 44.04076 89.434985 44.267174 
C 89.661399 44.493588 89.968525 44.620804 90.288723 44.620804 
z
" clip-path="url(#p66c1bdf0b4)" style="stroke: #000000"/>
    <path d="M 104.552852 116.271393 
C 105.145864 116.271393 105.714668 116.035787 106.133991 115.616464 
C 106.553314 115.197141 106.78892 114.628338 106.78892 114.035325 
C 106.78892 113.442313 106.553314 112.87351 106.133991 112.454187 
C 105.714668 112.034864 105.145864 111.799257 104.552852 111.799257 
C 103.95984 111.799257 103.391036 112.034864 102.971713 112.454187 
C 102.55239 112.87351 102.316784 113.442313 102.316784 114.035325 
C 102.316784 114.628338 102.55239 115.197141 102.971713 115.616464 
C 103.391036 116.035787 103.95984 116.271393 104.552852 116.271393 
z
" clip-path="url(#p66c1bdf0b4)" style="stroke: #000000"/>
    <path d="M 95.980206 85.791637 
C 96.565277 85.791637 97.126464 85.559186 97.540171 85.145478 
C 97.953879 84.73177 98.18633 84.170584 98.18633 83.585513 
C 98.18633 83.000442 97.953879 82.439256 97.540171 82.025548 
C 97.126464 81.611841 96.565277 81.37939 95.980206 81.37939 
C 95.395136 81.37939 94.833949 81.611841 94.420242 82.025548 
C 94.006534 82.439256 93.774083 83.000442 93.774083 83.585513 
C 93.774083 84.170584 94.006534 84.73177 94.420242 85.145478 
C 94.833949 85.559186 95.395136 85.791637 95.980206 85.791637 
z
" clip-path="url(#p66c1bdf0b4)" style="stroke: #000000"/>
    <path d="M 78.786689 51.970861 
C 79.280288 51.970861 79.753736 51.774752 80.102763 51.425725 
C 80.45179 51.076698 80.647899 50.603249 80.647899 50.109651 
C 80.647899 49.616052 80.45179 49.142604 80.102763 48.793577 
C 79.753736 48.44455 79.280288 48.248441 78.786689 48.248441 
C 78.293091 48.248441 77.819642 48.44455 77.470615 48.793577 
C 77.121588 49.142604 76.92548 49.616052 76.92548 50.109651 
C 76.92548 50.603249 77.121588 51.076698 77.470615 51.425725 
C 77.819642 51.774752 78.293091 51.970861 78.786689 51.970861 
z
" clip-path="url(#p66c1bdf0b4)" style="stroke: #000000"/>
    <path d="M 75.381983 35.054812 
C 75.514584 35.054812 75.641773 35.002128 75.735536 34.908365 
C 75.8293 34.814601 75.881983 34.687413 75.881983 34.554812 
C 75.881983 34.42221 75.8293 34.295022 75.735536 34.201258 
C 75.641773 34.107495 75.514584 34.054812 75.381983 34.054812 
C 75.249381 34.054812 75.122193 34.107495 75.028429 34.201258 
C 74.934666 34.295022 74.881983 34.42221 74.881983 34.554812 
C 74.881983 34.687413 74.934666 34.814601 75.028429 34.908365 
C 75.122193 35.002128 75.249381 35.054812 75.381983 35.054812 
z
" clip-path="url(#p66c1bdf0b4)" style="stroke: #000000"/>
    <path d="M 114.467865 169.047097 
C 114.600466 169.047097 114.727655 168.994414 114.821418 168.900651 
C 114.915182 168.806887 114.967865 168.679699 114.967865 168.547097 
C 114.967865 168.414496 114.915182 168.287307 114.821418 168.193544 
C 114.727655 168.09978 114.600466 168.047097 114.467865 168.047097 
C 114.335263 168.047097 114.208075 168.09978 114.114311 168.193544 
C 114.020548 168.287307 113.967865 168.414496 113.967865 168.547097 
C 113.967865 168.679699 114.020548 168.806887 114.114311 168.900651 
C 114.208075 168.994414 114.335263 169.047097 114.467865 169.047097 
z
" clip-path="url(#p66c1bdf0b4)" style="stroke: #000000"/>
    <path d="M 102.022431 148.799496 
C 102.521715 148.799496 103.000617 148.601128 103.353664 148.248081 
C 103.706711 147.895034 103.905079 147.416132 103.905079 146.916848 
C 103.905079 146.417564 103.706711 145.938663 103.353664 145.585616 
C 103.000617 145.232569 102.521715 145.034201 102.022431 145.034201 
C 101.523147 145.034201 101.044246 145.232569 100.691199 145.585616 
C 100.338151 145.938663 100.139784 146.417564 100.139784 146.916848 
C 100.139784 147.416132 100.338151 147.895034 100.691199 148.248081 
C 101.044246 148.601128 101.523147 148.799496 102.022431 148.799496 
z
" clip-path="url(#p66c1bdf0b4)" style="stroke: #000000"/>
    <path d="M 98.350769 137.201785 
C 98.869947 137.201785 99.36793 136.995514 99.735043 136.6284 
C 100.102157 136.261287 100.308428 135.763304 100.308428 135.244127 
C 100.308428 134.724949 100.102157 134.226967 99.735043 133.859853 
C 99.36793 133.492739 98.869947 133.286468 98.350769 133.286468 
C 97.831592 133.286468 97.333609 133.492739 96.966496 133.859853 
C 96.599382 134.226967 96.393111 134.724949 96.393111 135.244127 
C 96.393111 135.763304 96.599382 136.261287 96.966496 136.6284 
C 97.333609 136.995514 97.831592 137.201785 98.350769 137.201785 
z
" clip-path="url(#p66c1bdf0b4)" style="stroke: #000000"/>
    <path d="M 98.624231 127.419615 
C 98.756832 127.419615 98.884021 127.366932 98.977784 127.273168 
C 99.071548 127.179405 99.124231 127.052216 99.124231 126.919615 
C 99.124231 126.787013 99.071548 126.659825 98.977784 126.566061 
C 98.884021 126.472298 98.756832 126.419615 98.624231 126.419615 
C 98.491629 126.419615 98.364441 126.472298 98.270677 126.566061 
C 98.176914 126.659825 98.124231 126.787013 98.124231 126.919615 
C 98.124231 127.052216 98.176914 127.179405 98.270677 127.273168 
C 98.364441 127.366932 98.491629 127.419615 98.624231 127.419615 
z
" clip-path="url(#p66c1bdf0b4)" style="stroke: #000000"/>
    <path d="M 94.214171 118.21319 
C 94.690136 118.21319 95.146672 118.024086 95.48323 117.687528 
C 95.819789 117.350969 96.008892 116.894434 96.008892 116.418468 
C 96.008892 115.942503 95.819789 115.485967 95.48323 115.149409 
C 95.146672 114.81285 94.690136 114.623747 94.214171 114.623747 
C 93.738205 114.623747 93.28167 114.81285 92.945111 115.149409 
C 92.608553 115.485967 92.419449 115.942503 92.419449 116.418468 
C 92.419449 116.894434 92.608553 117.350969 92.945111 117.687528 
C 93.28167 118.024086 93.738205 118.21319 94.214171 118.21319 
z
" clip-path="url(#p66c1bdf0b4)" style="stroke: #000000"/>
    <path d="M 81.207001 85.815869 
C 81.364691 85.815869 81.515945 85.753217 81.627449 85.641713 
C 81.738953 85.530209 81.801604 85.378956 81.801604 85.221265 
C 81.801604 85.063574 81.738953 84.912321 81.627449 84.800817 
C 81.515945 84.689313 81.364691 84.626661 81.207001 84.626661 
C 81.04931 84.626661 80.898057 84.689313 80.786553 84.800817 
C 80.675048 84.912321 80.612397 85.063574 80.612397 85.221265 
C 80.612397 85.378956 80.675048 85.530209 80.786553 85.641713 
C 80.898057 85.753217 81.04931 85.815869 81.207001 85.815869 
z
" clip-path="url(#p66c1bdf0b4)" style="stroke: #000000"/>
    <path d="M 77.311818 64.183584 
C 77.811102 64.183584 78.290004 63.985217 78.643051 63.63217 
C 78.996098 63.279123 79.194466 62.800221 79.194466 62.300937 
C 79.194466 61.801653 78.996098 61.322751 78.643051 60.969704 
C 78.290004 60.616657 77.811102 60.418289 77.311818 60.418289 
C 76.812534 60.418289 76.333632 60.616657 75.980585 60.969704 
C 75.627538 61.322751 75.429171 61.801653 75.429171 62.300937 
C 75.429171 62.800221 75.627538 63.279123 75.980585 63.63217 
C 76.333632 63.985217 76.812534 64.183584 77.311818 64.183584 
z
" clip-path="url(#p66c1bdf0b4)" style="stroke: #000000"/>
    <path d="M 63.733553 45.987013 
C 63.866154 45.987013 63.993343 45.93433 64.087106 45.840567 
C 64.18087 45.746803 64.233553 45.619615 64.233553 45.487013 
C 64.233553 45.354412 64.18087 45.227223 64.087106 45.13346 
C 63.993343 45.039696 63.866154 44.987013 63.733553 44.987013 
C 63.600951 44.987013 63.473763 45.039696 63.38 45.13346 
C 63.286236 45.227223 63.233553 45.354412 63.233553 45.487013 
C 63.233553 45.619615 63.286236 45.746803 63.38 45.840567 
C 63.473763 45.93433 63.600951 45.987013 63.733553 45.987013 
z
" clip-path="url(#p66c1bdf0b4)" style="stroke: #000000"/>
    <path d="M 102.321707 173.425248 
C 102.49622 173.425248 102.663609 173.355913 102.787009 173.232513 
C 102.910409 173.109113 102.979744 172.941724 102.979744 172.76721 
C 102.979744 172.592697 102.910409 172.425308 102.787009 172.301908 
C 102.663609 172.178508 102.49622 172.109173 102.321707 172.109173 
C 102.147193 172.109173 101.979804 172.178508 101.856404 172.301908 
C 101.733005 172.425308 101.66367 172.592697 101.66367 172.76721 
C 101.66367 172.941724 101.733005 173.109113 101.856404 173.232513 
C 101.979804 173.355913 102.147193 173.425248 102.321707 173.425248 
z
" clip-path="url(#p66c1bdf0b4)" style="stroke: #000000"/>
    <path d="M 94.928142 151.484413 
C 95.427426 151.484413 95.906328 151.286046 96.259375 150.932999 
C 96.612422 150.579952 96.81079 150.10105 96.81079 149.601766 
C 96.81079 149.102482 96.612422 148.62358 96.259375 148.270533 
C 95.906328 147.917486 95.427426 147.719118 94.928142 147.719118 
C 94.428858 147.719118 93.949956 147.917486 93.596909 148.270533 
C 93.243862 148.62358 93.045495 149.102482 93.045495 149.601766 
C 93.045495 150.10105 93.243862 150.579952 93.596909 150.932999 
C 93.949956 151.286046 94.428858 151.484413 94.928142 151.484413 
z
" clip-path="url(#p66c1bdf0b4)" style="stroke: #000000"/>
    <path d="M 91.02337 143.345542 
C 91.413594 143.345542 91.787888 143.190505 92.063818 142.914575 
C 92.339747 142.638645 92.494785 142.264351 92.494785 141.874127 
C 92.494785 141.483903 92.339747 141.109609 92.063818 140.833679 
C 91.787888 140.557749 91.413594 140.402711 91.02337 140.402711 
C 90.633146 140.402711 90.258852 140.557749 89.982922 140.833679 
C 89.706992 141.109609 89.551954 141.483903 89.551954 141.874127 
C 89.551954 142.264351 89.706992 142.638645 89.982922 142.914575 
C 90.258852 143.190505 90.633146 143.345542 91.02337 143.345542 
z
" clip-path="url(#p66c1bdf0b4)" style="stroke: #000000"/>
    <path d="M 82.496118 134.280118 
C 82.653808 134.280118 82.805062 134.217466 82.916566 134.105962 
C 83.02807 133.994458 83.090721 133.843205 83.090721 133.685514 
C 83.090721 133.527823 83.02807 133.37657 82.916566 133.265066 
C 82.805062 133.153562 82.653808 133.09091 82.496118 133.09091 
C 82.338427 133.09091 82.187174 133.153562 82.07567 133.265066 
C 81.964165 133.37657 81.901514 133.527823 81.901514 133.685514 
C 81.901514 133.843205 81.964165 133.994458 82.07567 134.105962 
C 82.187174 134.217466 82.338427 134.280118 82.496118 134.280118 
z
" clip-path="url(#p66c1bdf0b4)" style="stroke: #000000"/>
    <path d="M 86.103442 122.131411 
C 86.696824 122.131411 87.265983 121.895657 87.685568 121.476073 
C 88.105152 121.056488 88.340906 120.487329 88.340906 119.893946 
C 88.340906 119.300564 88.105152 118.731405 87.685568 118.31182 
C 87.265983 117.892236 86.696824 117.656482 86.103442 117.656482 
C 85.510059 117.656482 84.9409 117.892236 84.521315 118.31182 
C 84.101731 118.731405 83.865977 119.300564 83.865977 119.893946 
C 83.865977 120.487329 84.101731 121.056488 84.521315 121.476073 
C 84.9409 121.895657 85.510059 122.131411 86.103442 122.131411 
z
" clip-path="url(#p66c1bdf0b4)" style="stroke: #000000"/>
    <path d="M 77.13128 109.359047 
C 77.658023 109.359047 78.163262 109.14977 78.535725 108.777307 
C 78.908189 108.404844 79.117466 107.899604 79.117466 107.372862 
C 79.117466 106.846119 78.908189 106.34088 78.535725 105.968416 
C 78.163262 105.595953 77.658023 105.386676 77.13128 105.386676 
C 76.604537 105.386676 76.099298 105.595953 75.726835 105.968416 
C 75.354371 106.34088 75.145094 106.846119 75.145094 107.372862 
C 75.145094 107.899604 75.354371 108.404844 75.726835 108.777307 
C 76.099298 109.14977 76.604537 109.359047 77.13128 109.359047 
z
" clip-path="url(#p66c1bdf0b4)" style="stroke: #000000"/>
    <path d="M 77.96754 101.07776 
C 78.560552 101.07776 79.129356 100.842154 79.548679 100.422831 
C 79.968002 100.003508 80.203608 99.434704 80.203608 98.841692 
C 80.203608 98.24868 79.968002 97.679876 79.548679 97.260553 
C 79.129356 96.84123 78.560552 96.605624 77.96754 96.605624 
C 77.374528 96.605624 76.805724 96.84123 76.386401 97.260553 
C 75.967078 97.679876 75.731472 98.24868 75.731472 98.841692 
C 75.731472 99.434704 75.967078 100.003508 76.386401 100.422831 
C 76.805724 100.842154 77.374528 101.07776 77.96754 101.07776 
z
" clip-path="url(#p66c1bdf0b4)" style="stroke: #000000"/>
    <path d="M 72.619707 94.069009 
C 73.207841 94.069009 73.771966 93.835341 74.187839 93.419467 
C 74.603713 93.003594 74.837381 92.439469 74.837381 91.851335 
C 74.837381 91.263201 74.603713 90.699076 74.187839 90.283202 
C 73.771966 89.867329 73.207841 89.633661 72.619707 89.633661 
C 72.031573 89.633661 71.467448 89.867329 71.051574 90.283202 
C 70.635701 90.699076 70.402032 91.263201 70.402032 91.851335 
C 70.402032 92.439469 70.635701 93.003594 71.051574 93.419467 
C 71.467448 93.835341 72.031573 94.069009 72.619707 94.069009 
z
" clip-path="url(#p66c1bdf0b4)" style="stroke: #000000"/>
    <path d="M 73.260253 84.521801 
C 73.853265 84.521801 74.422069 84.286194 74.841392 83.866871 
C 75.260714 83.447548 75.496321 82.878745 75.496321 82.285733 
C 75.496321 81.69272 75.260714 81.123917 74.841392 80.704594 
C 74.422069 80.285271 73.853265 80.049665 73.260253 80.049665 
C 72.667241 80.049665 72.098437 80.285271 71.679114 80.704594 
C 71.259791 81.123917 71.024185 81.69272 71.024185 82.285733 
C 71.024185 82.878745 71.259791 83.447548 71.679114 83.866871 
C 72.098437 84.286194 72.667241 84.521801 73.260253 84.521801 
z
" clip-path="url(#p66c1bdf0b4)" style="stroke: #000000"/>
    <path d="M 63.982717 58.800896 
C 64.482001 58.800896 64.960903 58.602528 65.31395 58.249481 
C 65.666997 57.896434 65.865365 57.417532 65.865365 56.918248 
C 65.865365 56.418964 65.666997 55.940062 65.31395 55.587015 
C 64.960903 55.233968 64.482001 55.035601 63.982717 55.035601 
C 63.483433 55.035601 63.004532 55.233968 62.651485 55.587015 
C 62.298438 55.940062 62.10007 56.418964 62.10007 56.918248 
C 62.10007 57.417532 62.298438 57.896434 62.651485 58.249481 
C 63.004532 58.602528 63.483433 58.800896 63.982717 58.800896 
z
" clip-path="url(#p66c1bdf0b4)" style="stroke: #000000"/>
    <path d="M 75.851835 133.821282 
C 76.341531 133.821282 76.811236 133.626724 77.157504 133.280456 
C 77.503772 132.934189 77.69833 132.464483 77.69833 131.974787 
C 77.69833 131.48509 77.503772 131.015385 77.157504 130.669117 
C 76.811236 130.32285 76.341531 130.128291 75.851835 130.128291 
C 75.362138 130.128291 74.892433 130.32285 74.546165 130.669117 
C 74.199897 131.015385 74.005339 131.48509 74.005339 131.974787 
C 74.005339 132.464483 74.199897 132.934189 74.546165 133.280456 
C 74.892433 133.626724 75.362138 133.821282 75.851835 133.821282 
z
" clip-path="url(#p66c1bdf0b4)" style="stroke: #000000"/>
    <path d="M 66.500682 104.33231 
C 66.633284 104.33231 66.760472 104.279626 66.854235 104.185863 
C 66.947999 104.0921 67.000682 103.964911 67.000682 103.83231 
C 67.000682 103.699708 66.947999 103.57252 66.854235 103.478756 
C 66.760472 103.384993 66.633284 103.33231 66.500682 103.33231 
C 66.36808 103.33231 66.240892 103.384993 66.147129 103.478756 
C 66.053365 103.57252 66.000682 103.699708 66.000682 103.83231 
C 66.000682 103.964911 66.053365 104.0921 66.147129 104.185863 
C 66.240892 104.279626 66.36808 104.33231 66.500682 104.33231 
z
" clip-path="url(#p66c1bdf0b4)" style="stroke: #000000"/>
    <path d="M 61.245077 97.318752 
C 61.817387 97.318752 62.366333 97.091371 62.771017 96.686687 
C 63.175701 96.282003 63.403082 95.733057 63.403082 95.160747 
C 63.403082 94.588438 63.175701 94.039491 62.771017 93.634807 
C 62.366333 93.230123 61.817387 93.002742 61.245077 93.002742 
C 60.672768 93.002742 60.123822 93.230123 59.719138 93.634807 
C 59.314454 94.039491 59.087073 94.588438 59.087073 95.160747 
C 59.087073 95.733057 59.314454 96.282003 59.719138 96.686687 
C 60.123822 97.091371 60.672768 97.318752 61.245077 97.318752 
z
" clip-path="url(#p66c1bdf0b4)" style="stroke: #000000"/>
    <path d="M 60.161563 87.168309 
C 60.754946 87.168309 61.324105 86.932556 61.74369 86.512971 
C 62.163274 86.093386 62.399028 85.524227 62.399028 84.930845 
C 62.399028 84.337462 62.163274 83.768304 61.74369 83.348719 
C 61.324105 82.929134 60.754946 82.693381 60.161563 82.693381 
C 59.568181 82.693381 58.999022 82.929134 58.579437 83.348719 
C 58.159853 83.768304 57.924099 84.337462 57.924099 84.930845 
C 57.924099 85.524227 58.159853 86.093386 58.579437 86.512971 
C 58.999022 86.932556 59.568181 87.168309 60.161563 87.168309 
z
" clip-path="url(#p66c1bdf0b4)" style="stroke: #000000"/>
    <path d="M 45.448647 54.249049 
C 45.581249 54.249049 45.708437 54.196366 45.802201 54.102603 
C 45.895964 54.008839 45.948647 53.881651 45.948647 53.749049 
C 45.948647 53.616448 45.895964 53.489259 45.802201 53.395496 
C 45.708437 53.301732 45.581249 53.249049 45.448647 53.249049 
C 45.316046 53.249049 45.188857 53.301732 45.095094 53.395496 
C 45.00133 53.489259 44.948647 53.616448 44.948647 53.749049 
C 44.948647 53.881651 45.00133 54.008839 45.095094 54.102603 
C 45.188857 54.196366 45.316046 54.249049 45.448647 54.249049 
z
" clip-path="url(#p66c1bdf0b4)" style="stroke: #000000"/>
    <path d="M 67.213407 139.236496 
C 67.806789 139.236496 68.375948 139.000742 68.795533 138.581158 
C 69.215118 138.161573 69.450871 137.592414 69.450871 136.999031 
C 69.450871 136.405649 69.215118 135.83649 68.795533 135.416905 
C 68.375948 134.997321 67.806789 134.761567 67.213407 134.761567 
C 66.620025 134.761567 66.050866 134.997321 65.631281 135.416905 
C 65.211696 135.83649 64.975943 136.405649 64.975943 136.999031 
C 64.975943 137.592414 65.211696 138.161573 65.631281 138.581158 
C 66.050866 139.000742 66.620025 139.236496 67.213407 139.236496 
z
" clip-path="url(#p66c1bdf0b4)" style="stroke: #000000"/>
    <path d="M 60.087019 131.858473 
C 60.680401 131.858473 61.24956 131.62272 61.669145 131.203135 
C 62.08873 130.78355 62.324483 130.214391 62.324483 129.621009 
C 62.324483 129.027626 62.08873 128.458467 61.669145 128.038883 
C 61.24956 127.619298 60.680401 127.383545 60.087019 127.383545 
C 59.493637 127.383545 58.924478 127.619298 58.504893 128.038883 
C 58.085308 128.458467 57.849555 129.027626 57.849555 129.621009 
C 57.849555 130.214391 58.085308 130.78355 58.504893 131.203135 
C 58.924478 131.62272 59.493637 131.858473 60.087019 131.858473 
z
" clip-path="url(#p66c1bdf0b4)" style="stroke: #000000"/>
    <path d="M 48.64347 95.255448 
C 49.230843 95.255448 49.794237 95.022082 50.209573 94.606747 
C 50.624908 94.191412 50.858273 93.628017 50.858273 93.040645 
C 50.858273 92.453272 50.624908 91.889877 50.209573 91.474542 
C 49.794237 91.059207 49.230843 90.825841 48.64347 90.825841 
C 48.056097 90.825841 47.492703 91.059207 47.077367 91.474542 
C 46.662032 91.889877 46.428667 92.453272 46.428667 93.040645 
C 46.428667 93.628017 46.662032 94.191412 47.077367 94.606747 
C 47.492703 95.022082 48.056097 95.255448 48.64347 95.255448 
z
" clip-path="url(#p66c1bdf0b4)" style="stroke: #000000"/>
    <path d="M 47.004396 88.305973 
C 47.591387 88.305973 48.154415 88.072759 48.56948 87.657694 
C 48.984545 87.242628 49.217759 86.6796 49.217759 86.092609 
C 49.217759 85.505618 48.984545 84.94259 48.56948 84.527524 
C 48.154415 84.112459 47.591387 83.879245 47.004396 83.879245 
C 46.417405 83.879245 45.854376 84.112459 45.439311 84.527524 
C 45.024246 84.94259 44.791032 85.505618 44.791032 86.092609 
C 44.791032 86.6796 45.024246 87.242628 45.439311 87.657694 
C 45.854376 88.072759 46.417405 88.305973 47.004396 88.305973 
z
" clip-path="url(#p66c1bdf0b4)" style="stroke: #000000"/>
    <path d="M 44.970759 119.015835 
C 45.10336 119.015835 45.230549 118.963151 45.324312 118.869388 
C 45.418076 118.775625 45.470759 118.648436 45.470759 118.515835 
C 45.470759 118.383233 45.418076 118.256045 45.324312 118.162281 
C 45.230549 118.068518 45.10336 118.015835 44.970759 118.015835 
C 44.838157 118.015835 44.710969 118.068518 44.617205 118.162281 
C 44.523442 118.256045 44.470759 118.383233 44.470759 118.515835 
C 44.470759 118.648436 44.523442 118.775625 44.617205 118.869388 
C 44.710969 118.963151 44.838157 119.015835 44.970759 119.015835 
z
" clip-path="url(#p66c1bdf0b4)" style="stroke: #000000"/>
    <path d="M 34.800361 91.66227 
C 35.299645 91.66227 35.778547 91.463903 36.131594 91.110856 
C 36.484641 90.757808 36.683009 90.278907 36.683009 89.779623 
C 36.683009 89.280339 36.484641 88.801437 36.131594 88.44839 
C 35.778547 88.095343 35.299645 87.896975 34.800361 87.896975 
C 34.301077 87.896975 33.822175 88.095343 33.469128 88.44839 
C 33.116081 88.801437 32.917714 89.280339 32.917714 89.779623 
C 32.917714 90.278907 33.116081 90.757808 33.469128 91.110856 
C 33.822175 91.463903 34.301077 91.66227 34.800361 91.66227 
z
" clip-path="url(#p66c1bdf0b4)" style="stroke: #000000"/>
    <path d="M 34.033423 80.444411 
C 34.166025 80.444411 34.293213 80.391728 34.386977 80.297965 
C 34.48074 80.204201 34.533423 80.077013 34.533423 79.944411 
C 34.533423 79.81181 34.48074 79.684621 34.386977 79.590858 
C 34.293213 79.497094 34.166025 79.444411 34.033423 79.444411 
C 33.900822 79.444411 33.773633 79.497094 33.67987 79.590858 
C 33.586107 79.684621 33.533423 79.81181 33.533423 79.944411 
C 33.533423 80.077013 33.586107 80.204201 33.67987 80.297965 
C 33.773633 80.391728 33.900822 80.444411 34.033423 80.444411 
z
" clip-path="url(#p66c1bdf0b4)" style="stroke: #000000"/>
    <path d="M 50.700238 163.688173 
C 51.033714 163.688173 51.353575 163.555682 51.589378 163.319879 
C 51.825181 163.084077 51.957672 162.764215 51.957672 162.43074 
C 51.957672 162.097264 51.825181 161.777403 51.589378 161.5416 
C 51.353575 161.305797 51.033714 161.173306 50.700238 161.173306 
C 50.366763 161.173306 50.046901 161.305797 49.811099 161.5416 
C 49.575296 161.777403 49.442805 162.097264 49.442805 162.43074 
C 49.442805 162.764215 49.575296 163.084077 49.811099 163.319879 
C 50.046901 163.555682 50.366763 163.688173 50.700238 163.688173 
z
" clip-path="url(#p66c1bdf0b4)" style="stroke: #000000"/>
   </g>
   <g id="matplotlib.axis_1">
    <g id="xtick_1">
     <g id="line2d_1">
      <defs>
       <path id="md5b849d696" d="M 0 0 
L 0 3.5 
" style="stroke: #000000; stroke-width: 0.8"/>
      </defs>
      <g>
       <use xlink:href="#md5b849d696" x="18" y="189" style="stroke: #000000; stroke-width: 0.8"/>
      </g>
     </g>
     <g id="text_1">
      <!-- −10 -->
      <g transform="translate(7.447656 203.598437)scale(0.1 -0.1)">
       <defs>
        <path id="DejaVuSans-2212" d="M 678 2272 
L 4684 2272 
L 4684 1741 
L 678 1741 
L 678 2272 
z
" transform="scale(0.015625)"/>
        <path id="DejaVuSans-31" d="M 794 531 
L 1825 531 
L 1825 4091 
L 703 3866 
L 703 4441 
L 1819 4666 
L 2450 4666 
L 2450 531 
L 3481 531 
L 3481 0 
L 794 0 
L 794 531 
z
" transform="scale(0.015625)"/>
        <path id="DejaVuSans-30" d="M 2034 4250 
Q 1547 4250 1301 3770 
Q 1056 3291 1056 2328 
Q 1056 1369 1301 889 
Q 1547 409 2034 409 
Q 2525 409 2770 889 
Q 3016 1369 3016 2328 
Q 3016 3291 2770 3770 
Q 2525 4250 2034 4250 
z
M 2034 4750 
Q 2819 4750 3233 4129 
Q 3647 3509 3647 2328 
Q 3647 1150 3233 529 
Q 2819 -91 2034 -91 
Q 1250 -91 836 529 
Q 422 1150 422 2328 
Q 422 3509 836 4129 
Q 1250 4750 2034 4750 
z
" transform="scale(0.015625)"/>
       </defs>
       <use xlink:href="#DejaVuSans-2212"/>
       <use xlink:href="#DejaVuSans-31" x="83.789062"/>
       <use xlink:href="#DejaVuSans-30" x="147.412109"/>
      </g>
     </g>
    </g>
    <g id="xtick_2">
     <g id="line2d_2">
      <g>
       <use xlink:href="#md5b849d696" x="73.8" y="189" style="stroke: #000000; stroke-width: 0.8"/>
      </g>
     </g>
     <g id="text_2">
      <!-- 0 -->
      <g transform="translate(70.61875 203.598437)scale(0.1 -0.1)">
       <use xlink:href="#DejaVuSans-30"/>
      </g>
     </g>
    </g>
    <g id="xtick_3">
     <g id="line2d_3">
      <g>
       <use xlink:href="#md5b849d696" x="129.6" y="189" style="stroke: #000000; stroke-width: 0.8"/>
      </g>
     </g>
     <g id="text_3">
      <!-- 10 -->
      <g transform="translate(123.2375 203.598437)scale(0.1 -0.1)">
       <use xlink:href="#DejaVuSans-31"/>
       <use xlink:href="#DejaVuSans-30" x="63.623047"/>
      </g>
     </g>
    </g>
   </g>
   <g id="matplotlib.axis_2">
    <g id="ytick_1">
     <g id="line2d_4">
      <defs>
       <path id="m70dc1a6b8a" d="M 0 0 
L -3.5 0 
" style="stroke: #000000; stroke-width: 0.8"/>
      </defs>
      <g>
       <use xlink:href="#m70dc1a6b8a" x="18" y="189" style="stroke: #000000; stroke-width: 0.8"/>
      </g>
     </g>
     <g id="text_4">
      <!-- −15 -->
      <g transform="translate(-10.104688 192.799219)scale(0.1 -0.1)">
       <defs>
        <path id="DejaVuSans-35" d="M 691 4666 
L 3169 4666 
L 3169 4134 
L 1269 4134 
L 1269 2991 
Q 1406 3038 1543 3061 
Q 1681 3084 1819 3084 
Q 2600 3084 3056 2656 
Q 3513 2228 3513 1497 
Q 3513 744 3044 326 
Q 2575 -91 1722 -91 
Q 1428 -91 1123 -41 
Q 819 9 494 109 
L 494 744 
Q 775 591 1075 516 
Q 1375 441 1709 441 
Q 2250 441 2565 725 
Q 2881 1009 2881 1497 
Q 2881 1984 2565 2268 
Q 2250 2553 1709 2553 
Q 1456 2553 1204 2497 
Q 953 2441 691 2322 
L 691 4666 
z
" transform="scale(0.015625)"/>
       </defs>
       <use xlink:href="#DejaVuSans-2212"/>
       <use xlink:href="#DejaVuSans-31" x="83.789062"/>
       <use xlink:href="#DejaVuSans-35" x="147.412109"/>
      </g>
     </g>
    </g>
    <g id="ytick_2">
     <g id="line2d_5">
      <g>
       <use xlink:href="#m70dc1a6b8a" x="18" y="161.82" style="stroke: #000000; stroke-width: 0.8"/>
      </g>
     </g>
     <g id="text_5">
      <!-- −10 -->
      <g transform="translate(-10.104688 165.619219)scale(0.1 -0.1)">
       <use xlink:href="#DejaVuSans-2212"/>
       <use xlink:href="#DejaVuSans-31" x="83.789062"/>
       <use xlink:href="#DejaVuSans-30" x="147.412109"/>
      </g>
     </g>
    </g>
    <g id="ytick_3">
     <g id="line2d_6">
      <g>
       <use xlink:href="#m70dc1a6b8a" x="18" y="134.64" style="stroke: #000000; stroke-width: 0.8"/>
      </g>
     </g>
     <g id="text_6">
      <!-- −5 -->
      <g transform="translate(-3.742188 138.439219)scale(0.1 -0.1)">
       <use xlink:href="#DejaVuSans-2212"/>
       <use xlink:href="#DejaVuSans-35" x="83.789062"/>
      </g>
     </g>
    </g>
    <g id="ytick_4">
     <g id="line2d_7">
      <g>
       <use xlink:href="#m70dc1a6b8a" x="18" y="107.46" style="stroke: #000000; stroke-width: 0.8"/>
      </g>
     </g>
     <g id="text_7">
      <!-- 0 -->
      <g transform="translate(4.6375 111.259219)scale(0.1 -0.1)">
       <use xlink:href="#DejaVuSans-30"/>
      </g>
     </g>
    </g>
    <g id="ytick_5">
     <g id="line2d_8">
      <g>
       <use xlink:href="#m70dc1a6b8a" x="18" y="80.28" style="stroke: #000000; stroke-width: 0.8"/>
      </g>
     </g>
     <g id="text_8">
      <!-- 5 -->
      <g transform="translate(4.6375 84.079219)scale(0.1 -0.1)">
       <use xlink:href="#DejaVuSans-35"/>
      </g>
     </g>
    </g>
    <g id="ytick_6">
     <g id="line2d_9">
      <g>
       <use xlink:href="#m70dc1a6b8a" x="18" y="53.1" style="stroke: #000000; stroke-width: 0.8"/>
      </g>
     </g>
     <g id="text_9">
      <!-- 10 -->
      <g transform="translate(-1.725 56.899219)scale(0.1 -0.1)">
       <use xlink:href="#DejaVuSans-31"/>
       <use xlink:href="#DejaVuSans-30" x="63.623047"/>
      </g>
     </g>
    </g>
    <g id="ytick_7">
     <g id="line2d_10">
      <g>
       <use xlink:href="#m70dc1a6b8a" x="18" y="25.92" style="stroke: #000000; stroke-width: 0.8"/>
      </g>
     </g>
     <g id="text_10">
      <!-- 15 -->
      <g transform="translate(-1.725 29.719219)scale(0.1 -0.1)">
       <use xlink:href="#DejaVuSans-31"/>
       <use xlink:href="#DejaVuSans-35" x="63.623047"/>
      </g>
     </g>
    </g>
   </g>
   <g id="patch_3">
    <path d="M 18 189 
L 18 25.92 
" style="fill: none; stroke: #000000; stroke-width: 0.8; stroke-linejoin: miter; stroke-linecap: square"/>
   </g>
   <g id="patch_4">
    <path d="M 129.6 189 
L 129.6 25.92 
" style="fill: none; stroke: #000000; stroke-width: 0.8; stroke-linejoin: miter; stroke-linecap: square"/>
   </g>
   <g id="patch_5">
    <path d="M 18 189 
L 129.6 189 
" style="fill: none; stroke: #000000; stroke-width: 0.8; stroke-linejoin: miter; stroke-linecap: square"/>
   </g>
   <g id="patch_6">
    <path d="M 18 25.92 
L 129.6 25.92 
" style="fill: none; stroke: #000000; stroke-width: 0.8; stroke-linejoin: miter; stroke-linecap: square"/>
   </g>
  </g>
 </g>
 <defs>
  <clipPath id="p66c1bdf0b4">
   <rect x="18" y="25.92" width="111.6" height="163.08"/>
  </clipPath>
 </defs>
</svg>
