<?xml version="1.0" encoding="utf-8" standalone="no"?>
<!DOCTYPE svg PUBLIC "-//W3C//DTD SVG 1.1//EN"
  "http://www.w3.org/Graphics/SVG/1.1/DTD/svg11.dtd">
<svg xmlns:xlink="http://www.w3.org/1999/xlink" width="144pt" height="216pt" viewBox="0 0 144 216" xmlns="http://www.w3.org/2000/svg" version="1.1">
 <metadata>
  <rdf:RDF xmlns:dc="http://purl.org/dc/elements/1.1/" xmlns:cc="http://creativecommons.org/ns#" xmlns:rdf="http://www.w3.org/1999/02/22-rdf-syntax-ns#">
   <cc:Work>
    <dc:type rdf:resource="http://purl.org/dc/dcmitype/StillImage"/>
    <dc:date>2022-06-22T17:52:35.512980</dc:date>
    <dc:format>image/svg+xml</dc:format>
    <dc:creator>
     <cc:Agent>
      <dc:title>Matplotlib v3.5.1, https://matplotlib.org/</dc:title>
     </cc:Agent>
    </dc:creator>
   </cc:Work>
  </rdf:RDF>
 </metadata>
 <defs>
  <style type="text/css">*{stroke-linejoin: round; stroke-linecap: butt}</style>
 </defs>
 <g id="figure_1">
  <g id="patch_1">
   <path d="M 0 216 
L 144 216 
L 144 0 
L 0 0 
L 0 216 
z
" style="fill: none"/>
  </g>
  <g id="axes_1">
   <g id="patch_2">
    <path d="M 18 189 
L 129.6 189 
L 129.6 25.92 
L 18 25.92 
z
" style="fill: #ffffff"/>
   </g>
   <g id="PathCollection_1">
    <defs>
     <path id="m6ba949dbe9" d="M 0 2.738613 
C 0.726289 2.738613 1.422928 2.450055 1.936492 1.936492 
C 2.450055 1.422928 2.738613 0.726289 2.738613 0 
C 2.738613 -0.726289 2.450055 -1.422928 1.936492 -1.936492 
C 1.422928 -2.450055 0.726289 -2.738613 0 -2.738613 
C -0.726289 -2.738613 -1.422928 -2.450055 -1.936492 -1.936492 
C -2.450055 -1.422928 -2.738613 -0.726289 -2.738613 0 
C -2.738613 0.726289 -2.450055 1.422928 -1.936492 1.936492 
C -1.422928 2.450055 -0.726289 2.738613 0 2.738613 
z
" style="stroke: #ff0000; stroke-width: 1.75"/>
    </defs>
    <g clip-path="url(#pe0ab9980b9)">
     <use xlink:href="#m6ba949dbe9" x="66.825" y="83.92143" style="fill: #ff0000; stroke: #ff0000; stroke-width: 1.75"/>
     <use xlink:href="#m6ba949dbe9" x="87.75" y="95.690715" style="fill: #ff0000; stroke: #ff0000; stroke-width: 1.75"/>
     <use xlink:href="#m6ba949dbe9" x="66.825" y="107.46" style="fill: #ff0000; stroke: #ff0000; stroke-width: 1.75"/>
     <use xlink:href="#m6ba949dbe9" x="73.8" y="119.229285" style="fill: #ff0000; stroke: #ff0000; stroke-width: 1.75"/>
     <use xlink:href="#m6ba949dbe9" x="87.75" y="119.229285" style="fill: #ff0000; stroke: #ff0000; stroke-width: 1.75"/>
     <use xlink:href="#m6ba949dbe9" x="66.825" y="130.99857" style="fill: #ff0000; stroke: #ff0000; stroke-width: 1.75"/>
     <use xlink:href="#m6ba949dbe9" x="80.775" y="130.99857" style="fill: #ff0000; stroke: #ff0000; stroke-width: 1.75"/>
    </g>
   </g>
   <g id="PathCollection_2">
    <defs>
     <path id="C0_0_76e03de2f7" d="M 0 2.738613 
C 0.726289 2.738613 1.422928 2.450055 1.936492 1.936492 
C 2.450055 1.422928 2.738613 0.726289 2.738613 -0 
C 2.738613 -0.726289 2.450055 -1.422928 1.936492 -1.936492 
C 1.422928 -2.450055 0.726289 -2.738613 0 -2.738613 
C -0.726289 -2.738613 -1.422928 -2.450055 -1.936492 -1.936492 
C -2.450055 -1.422928 -2.738613 -0.726289 -2.738613 0 
C -2.738613 0.726289 -2.450055 1.422928 -1.936492 1.936492 
C -1.422928 2.450055 -0.726289 2.738613 0 2.738613 
z
"/>
    </defs>
    <g clip-path="url(#pe0ab9980b9)">
     <use xlink:href="#C0_0_76e03de2f7" x="80.775" y="83.92143" style="fill: none; stroke: #ff0000; stroke-width: 1.75"/>
    </g>
    <g clip-path="url(#pe0ab9980b9)">
     <use xlink:href="#C0_0_76e03de2f7" x="59.85" y="95.690715" style="fill: none; stroke: #ff0000; stroke-width: 1.75"/>
    </g>
    <g clip-path="url(#pe0ab9980b9)">
     <use xlink:href="#C0_0_76e03de2f7" x="73.8" y="95.690715" style="fill: none; stroke: #ff0000; stroke-width: 1.75"/>
    </g>
    <g clip-path="url(#pe0ab9980b9)">
     <use xlink:href="#C0_0_76e03de2f7" x="52.875" y="107.46" style="fill: none; stroke: #ff0000; stroke-width: 1.75"/>
    </g>
    <g clip-path="url(#pe0ab9980b9)">
     <use xlink:href="#C0_0_76e03de2f7" x="80.775" y="107.46" style="fill: none; stroke: #ff0000; stroke-width: 1.75"/>
    </g>
    <g clip-path="url(#pe0ab9980b9)">
     <use xlink:href="#C0_0_76e03de2f7" x="94.725" y="107.46" style="fill: none; stroke: #ff0000; stroke-width: 1.75"/>
    </g>
    <g clip-path="url(#pe0ab9980b9)">
     <use xlink:href="#C0_0_76e03de2f7" x="59.85" y="119.229285" style="fill: none; stroke: #ff0000; stroke-width: 1.75"/>
    </g>
   </g>
   <g id="PathCollection_3">
    <path d="M 118.141194 129.219676 
C 118.560779 129.219676 118.963235 129.052974 119.259926 128.756282 
C 119.556617 128.459591 119.72332 128.057135 119.72332 127.63755 
C 119.72332 127.217966 119.556617 126.815509 119.259926 126.518818 
C 118.963235 126.222127 118.560779 126.055424 118.141194 126.055424 
C 117.721609 126.055424 117.319153 126.222127 117.022462 126.518818 
C 116.725771 126.815509 116.559068 127.217966 116.559068 127.63755 
C 116.559068 128.057135 116.725771 128.459591 117.022462 128.756282 
C 117.319153 129.052974 117.721609 129.219676 118.141194 129.219676 
z
" clip-path="url(#pe0ab9980b9)" style="stroke: #000000"/>
    <path d="M 112.08659 108.002293 
C 112.506175 108.002293 112.908631 107.83559 113.205322 107.538899 
C 113.502013 107.242208 113.668716 106.839752 113.668716 106.420167 
C 113.668716 106.000582 113.502013 105.598126 113.205322 105.301435 
C 112.908631 105.004744 112.506175 104.838041 112.08659 104.838041 
C 111.667005 104.838041 111.264549 105.004744 110.967858 105.301435 
C 110.671166 105.598126 110.504464 106.000582 110.504464 106.420167 
C 110.504464 106.839752 110.671166 107.242208 110.967858 107.538899 
C 111.264549 107.83559 111.667005 108.002293 112.08659 108.002293 
z
" clip-path="url(#pe0ab9980b9)" style="stroke: #000000"/>
    <path d="M 109.558732 101.398498 
C 109.953745 101.398498 110.332632 101.241558 110.611949 100.962242 
C 110.891265 100.682925 111.048205 100.304038 111.048205 99.909025 
C 111.048205 99.514012 110.891265 99.135125 110.611949 98.855809 
C 110.332632 98.576492 109.953745 98.419552 109.558732 98.419552 
C 109.163719 98.419552 108.784832 98.576492 108.505516 98.855809 
C 108.226199 99.135125 108.069259 99.514012 108.069259 99.909025 
C 108.069259 100.304038 108.226199 100.682925 108.505516 100.962242 
C 108.784832 101.241558 109.163719 101.398498 109.558732 101.398498 
z
" clip-path="url(#pe0ab9980b9)" style="stroke: #000000"/>
    <path d="M 105.975498 90.023563 
C 106.372995 90.023563 106.754265 89.865636 107.035339 89.584563 
C 107.316412 89.30349 107.474339 88.922219 107.474339 88.524722 
C 107.474339 88.127225 107.316412 87.745954 107.035339 87.464881 
C 106.754265 87.183808 106.372995 87.025881 105.975498 87.025881 
C 105.578 87.025881 105.19673 87.183808 104.915657 87.464881 
C 104.634584 87.745954 104.476656 88.127225 104.476656 88.524722 
C 104.476656 88.922219 104.634584 89.30349 104.915657 89.584563 
C 105.19673 89.865636 105.578 90.023563 105.975498 90.023563 
z
" clip-path="url(#pe0ab9980b9)" style="stroke: #000000"/>
    <path d="M 103.829528 82.196853 
C 104.249113 82.196853 104.651569 82.030151 104.94826 81.733459 
C 105.244951 81.436768 105.411654 81.034312 105.411654 80.614727 
C 105.411654 80.195143 105.244951 79.792686 104.94826 79.495995 
C 104.651569 79.199304 104.249113 79.032601 103.829528 79.032601 
C 103.409943 79.032601 103.007487 79.199304 102.710796 79.495995 
C 102.414104 79.792686 102.247402 80.195143 102.247402 80.614727 
C 102.247402 81.034312 102.414104 81.436768 102.710796 81.733459 
C 103.007487 82.030151 103.409943 82.196853 103.829528 82.196853 
z
" clip-path="url(#pe0ab9980b9)" style="stroke: #000000"/>
    <path d="M 100.142248 69.502639 
C 100.561833 69.502639 100.964289 69.335936 101.26098 69.039245 
C 101.557671 68.742554 101.724374 68.340098 101.724374 67.920513 
C 101.724374 67.500928 101.557671 67.098472 101.26098 66.801781 
C 100.964289 66.50509 100.561833 66.338387 100.142248 66.338387 
C 99.722663 66.338387 99.320207 66.50509 99.023516 66.801781 
C 98.726825 67.098472 98.560122 67.500928 98.560122 67.920513 
C 98.560122 68.340098 98.726825 68.742554 99.023516 69.039245 
C 99.320207 69.335936 99.722663 69.502639 100.142248 69.502639 
z
" clip-path="url(#pe0ab9980b9)" style="stroke: #000000"/>
    <path d="M 94.533631 60.777678 
C 94.953216 60.777678 95.355672 60.610975 95.652363 60.314284 
C 95.949055 60.017593 96.115758 59.615137 96.115758 59.195552 
C 96.115758 58.775967 95.949055 58.373511 95.652363 58.07682 
C 95.355672 57.780129 94.953216 57.613426 94.533631 57.613426 
C 94.114047 57.613426 93.711591 57.780129 93.414899 58.07682 
C 93.118208 58.373511 92.951505 58.775967 92.951505 59.195552 
C 92.951505 59.615137 93.118208 60.017593 93.414899 60.314284 
C 93.711591 60.610975 94.114047 60.777678 94.533631 60.777678 
z
" clip-path="url(#pe0ab9980b9)" style="stroke: #000000"/>
    <path d="M 94.459826 50.036428 
C 94.806558 50.036428 95.139136 49.898669 95.384312 49.653493 
C 95.629489 49.408316 95.767247 49.075739 95.767247 48.729007 
C 95.767247 48.382275 95.629489 48.049697 95.384312 47.804521 
C 95.139136 47.559344 94.806558 47.421586 94.459826 47.421586 
C 94.113094 47.421586 93.780517 47.559344 93.53534 47.804521 
C 93.290163 48.049697 93.152405 48.382275 93.152405 48.729007 
C 93.152405 49.075739 93.290163 49.408316 93.53534 49.653493 
C 93.780517 49.898669 94.113094 50.036428 94.459826 50.036428 
z
" clip-path="url(#pe0ab9980b9)" style="stroke: #000000"/>
    <path d="M 88.036645 41.791093 
C 88.45623 41.791093 88.858686 41.62439 89.155378 41.327699 
C 89.452069 41.031008 89.618772 40.628551 89.618772 40.208967 
C 89.618772 39.789382 89.452069 39.386926 89.155378 39.090235 
C 88.858686 38.793543 88.45623 38.626841 88.036645 38.626841 
C 87.617061 38.626841 87.214605 38.793543 86.917913 39.090235 
C 86.621222 39.386926 86.454519 39.789382 86.454519 40.208967 
C 86.454519 40.628551 86.621222 41.031008 86.917913 41.327699 
C 87.214605 41.62439 87.617061 41.791093 88.036645 41.791093 
z
" clip-path="url(#pe0ab9980b9)" style="stroke: #000000"/>
    <path d="M 116.869058 161.288837 
C 117.288642 161.288837 117.691099 161.122135 117.98779 160.825443 
C 118.284481 160.528752 118.451184 160.126296 118.451184 159.706711 
C 118.451184 159.287126 118.284481 158.88467 117.98779 158.587979 
C 117.691099 158.291288 117.288642 158.124585 116.869058 158.124585 
C 116.449473 158.124585 116.047017 158.291288 115.750326 158.587979 
C 115.453634 158.88467 115.286932 159.287126 115.286932 159.706711 
C 115.286932 160.126296 115.453634 160.528752 115.750326 160.825443 
C 116.047017 161.122135 116.449473 161.288837 116.869058 161.288837 
z
" clip-path="url(#pe0ab9980b9)" style="stroke: #000000"/>
    <path d="M 115.219344 144.256372 
C 115.219344 144.256372 115.219344 144.256372 115.219344 144.256372 
C 115.219344 144.256372 115.219344 144.256372 115.219344 144.256372 
C 115.219344 144.256372 115.219344 144.256372 115.219344 144.256372 
C 115.219344 144.256372 115.219344 144.256372 115.219344 144.256372 
C 115.219344 144.256372 115.219344 144.256372 115.219344 144.256372 
C 115.219344 144.256372 115.219344 144.256372 115.219344 144.256372 
C 115.219344 144.256372 115.219344 144.256372 115.219344 144.256372 
C 115.219344 144.256372 115.219344 144.256372 115.219344 144.256372 
z
" clip-path="url(#pe0ab9980b9)" style="stroke: #000000"/>
    <path d="M 112.195438 132.698109 
C 112.195438 132.698109 112.195438 132.698109 112.195438 132.698109 
C 112.195438 132.698109 112.195438 132.698109 112.195438 132.698109 
C 112.195438 132.698109 112.195438 132.698109 112.195438 132.698109 
C 112.195438 132.698109 112.195438 132.698109 112.195438 132.698109 
C 112.195438 132.698109 112.195438 132.698109 112.195438 132.698109 
C 112.195438 132.698109 112.195438 132.698109 112.195438 132.698109 
C 112.195438 132.698109 112.195438 132.698109 112.195438 132.698109 
C 112.195438 132.698109 112.195438 132.698109 112.195438 132.698109 
z
" clip-path="url(#pe0ab9980b9)" style="stroke: #000000"/>
    <path d="M 107.110231 123.091531 
C 107.529816 123.091531 107.932272 122.924828 108.228963 122.628137 
C 108.525655 122.331445 108.692357 121.928989 108.692357 121.509404 
C 108.692357 121.08982 108.525655 120.687364 108.228963 120.390672 
C 107.932272 120.093981 107.529816 119.927278 107.110231 119.927278 
C 106.690647 119.927278 106.28819 120.093981 105.991499 120.390672 
C 105.694808 120.687364 105.528105 121.08982 105.528105 121.509404 
C 105.528105 121.928989 105.694808 122.331445 105.991499 122.628137 
C 106.28819 122.924828 106.690647 123.091531 107.110231 123.091531 
z
" clip-path="url(#pe0ab9980b9)" style="stroke: #000000"/>
    <path d="M 105.269326 117.368871 
C 105.688911 117.368871 106.091367 117.202168 106.388058 116.905477 
C 106.68475 116.608786 106.851452 116.20633 106.851452 115.786745 
C 106.851452 115.36716 106.68475 114.964704 106.388058 114.668013 
C 106.091367 114.371322 105.688911 114.204619 105.269326 114.204619 
C 104.849741 114.204619 104.447285 114.371322 104.150594 114.668013 
C 103.853903 114.964704 103.6872 115.36716 103.6872 115.786745 
C 103.6872 116.20633 103.853903 116.608786 104.150594 116.905477 
C 104.447285 117.202168 104.849741 117.368871 105.269326 117.368871 
z
" clip-path="url(#pe0ab9980b9)" style="stroke: #000000"/>
    <path d="M 96.243958 103.309065 
C 96.66328 103.309065 97.065485 103.142466 97.361992 102.84596 
C 97.658498 102.549454 97.825096 102.147249 97.825096 101.727926 
C 97.825096 101.308603 97.658498 100.906398 97.361992 100.609892 
C 97.065485 100.313386 96.66328 100.146787 96.243958 100.146787 
C 95.824635 100.146787 95.42243 100.313386 95.125924 100.609892 
C 94.829417 100.906398 94.662819 101.308603 94.662819 101.727926 
C 94.662819 102.147249 94.829417 102.549454 95.125924 102.84596 
C 95.42243 103.142466 95.824635 103.309065 96.243958 103.309065 
z
" clip-path="url(#pe0ab9980b9)" style="stroke: #000000"/>
    <path d="M 100.077434 95.659921 
C 100.397042 95.659921 100.703602 95.53294 100.929599 95.306943 
C 101.155595 95.080947 101.282577 94.774386 101.282577 94.454779 
C 101.282577 94.135171 101.155595 93.828611 100.929599 93.602614 
C 100.703602 93.376618 100.397042 93.249636 100.077434 93.249636 
C 99.757827 93.249636 99.451266 93.376618 99.22527 93.602614 
C 98.999273 93.828611 98.872292 94.135171 98.872292 94.454779 
C 98.872292 94.774386 98.999273 95.080947 99.22527 95.306943 
C 99.451266 95.53294 99.757827 95.659921 100.077434 95.659921 
z
" clip-path="url(#pe0ab9980b9)" style="stroke: #000000"/>
    <path d="M 93.750649 81.56937 
C 94.16892 81.56937 94.570115 81.403189 94.865877 81.107427 
C 95.161639 80.811665 95.32782 80.410469 95.32782 79.992199 
C 95.32782 79.573928 95.161639 79.172732 94.865877 78.87697 
C 94.570115 78.581208 94.16892 78.415027 93.750649 78.415027 
C 93.332378 78.415027 92.931183 78.581208 92.63542 78.87697 
C 92.339658 79.172732 92.173478 79.573928 92.173478 79.992199 
C 92.173478 80.410469 92.339658 80.811665 92.63542 81.107427 
C 92.931183 81.403189 93.332378 81.56937 93.750649 81.56937 
z
" clip-path="url(#pe0ab9980b9)" style="stroke: #000000"/>
    <path d="M 89.894715 70.183889 
C 89.894715 70.183889 89.894715 70.183889 89.894715 70.183889 
C 89.894715 70.183889 89.894715 70.183889 89.894715 70.183889 
C 89.894715 70.183889 89.894715 70.183889 89.894715 70.183889 
C 89.894715 70.183889 89.894715 70.183889 89.894715 70.183889 
C 89.894715 70.183889 89.894715 70.183889 89.894715 70.183889 
C 89.894715 70.183889 89.894715 70.183889 89.894715 70.183889 
C 89.894715 70.183889 89.894715 70.183889 89.894715 70.183889 
C 89.894715 70.183889 89.894715 70.183889 89.894715 70.183889 
z
" clip-path="url(#pe0ab9980b9)" style="stroke: #000000"/>
    <path d="M 85.968721 63.866245 
C 86.388305 63.866245 86.790762 63.699542 87.087453 63.402851 
C 87.384144 63.10616 87.550847 62.703704 87.550847 62.284119 
C 87.550847 61.864534 87.384144 61.462078 87.087453 61.165387 
C 86.790762 60.868696 86.388305 60.701993 85.968721 60.701993 
C 85.549136 60.701993 85.14668 60.868696 84.849989 61.165387 
C 84.553297 61.462078 84.386595 61.864534 84.386595 62.284119 
C 84.386595 62.703704 84.553297 63.10616 84.849989 63.402851 
C 85.14668 63.699542 85.549136 63.866245 85.968721 63.866245 
z
" clip-path="url(#pe0ab9980b9)" style="stroke: #000000"/>
    <path d="M 86.0015 51.767455 
C 86.377284 51.767455 86.737727 51.618154 87.003447 51.352435 
C 87.269167 51.086715 87.418467 50.726271 87.418467 50.350487 
C 87.418467 49.974703 87.269167 49.614259 87.003447 49.34854 
C 86.737727 49.08282 86.377284 48.93352 86.0015 48.93352 
C 85.625715 48.93352 85.265272 49.08282 84.999552 49.34854 
C 84.733833 49.614259 84.584532 49.974703 84.584532 50.350487 
C 84.584532 50.726271 84.733833 51.086715 84.999552 51.352435 
C 85.265272 51.618154 85.625715 51.767455 86.0015 51.767455 
z
" clip-path="url(#pe0ab9980b9)" style="stroke: #000000"/>
    <path d="M 82.082109 43.975332 
C 82.501694 43.975332 82.90415 43.808629 83.200841 43.511938 
C 83.497532 43.215247 83.664235 42.812791 83.664235 42.393206 
C 83.664235 41.973621 83.497532 41.571165 83.200841 41.274474 
C 82.90415 40.977783 82.501694 40.81108 82.082109 40.81108 
C 81.662524 40.81108 81.260068 40.977783 80.963377 41.274474 
C 80.666686 41.571165 80.499983 41.973621 80.499983 42.393206 
C 80.499983 42.812791 80.666686 43.215247 80.963377 43.511938 
C 81.260068 43.808629 81.662524 43.975332 82.082109 43.975332 
z
" clip-path="url(#pe0ab9980b9)" style="stroke: #000000"/>
    <path d="M 76.284035 31.53649 
C 76.70362 31.53649 77.106076 31.369787 77.402768 31.073096 
C 77.699459 30.776405 77.866162 30.373949 77.866162 29.954364 
C 77.866162 29.534779 77.699459 29.132323 77.402768 28.835632 
C 77.106076 28.538941 76.70362 28.372238 76.284035 28.372238 
C 75.864451 28.372238 75.461995 28.538941 75.165303 28.835632 
C 74.868612 29.132323 74.701909 29.534779 74.701909 29.954364 
C 74.701909 30.373949 74.868612 30.776405 75.165303 31.073096 
C 75.461995 31.369787 75.864451 31.53649 76.284035 31.53649 
z
" clip-path="url(#pe0ab9980b9)" style="stroke: #000000"/>
    <path d="M 73.651029 25.451889 
C 74.070352 25.451889 74.472557 25.285291 74.769063 24.988785 
C 75.065569 24.692278 75.232167 24.290073 75.232167 23.870751 
C 75.232167 23.451428 75.065569 23.049223 74.769063 22.752717 
C 74.472557 22.45621 74.070352 22.289612 73.651029 22.289612 
C 73.231706 22.289612 72.829501 22.45621 72.532995 22.752717 
C 72.236489 23.049223 72.06989 23.451428 72.06989 23.870751 
C 72.06989 24.290073 72.236489 24.692278 72.532995 24.988785 
C 72.829501 25.285291 73.231706 25.451889 73.651029 25.451889 
z
" clip-path="url(#pe0ab9980b9)" style="stroke: #000000"/>
    <path d="M 107.08122 170.465347 
C 107.383486 170.465347 107.673413 170.345255 107.887147 170.131521 
C 108.100882 169.917786 108.220973 169.62786 108.220973 169.325593 
C 108.220973 169.023327 108.100882 168.7334 107.887147 168.519666 
C 107.673413 168.305931 107.383486 168.18584 107.08122 168.18584 
C 106.778954 168.18584 106.489027 168.305931 106.275292 168.519666 
C 106.061558 168.7334 105.941466 169.023327 105.941466 169.325593 
C 105.941466 169.62786 106.061558 169.917786 106.275292 170.131521 
C 106.489027 170.345255 106.778954 170.465347 107.08122 170.465347 
z
" clip-path="url(#pe0ab9980b9)" style="stroke: #000000"/>
    <path d="M 111.070763 159.035198 
C 111.431461 159.035198 111.777435 158.891891 112.032488 158.636838 
C 112.28754 158.381786 112.430848 158.035812 112.430848 157.675113 
C 112.430848 157.314414 112.28754 156.96844 112.032488 156.713388 
C 111.777435 156.458335 111.431461 156.315028 111.070763 156.315028 
C 110.710064 156.315028 110.36409 156.458335 110.109037 156.713388 
C 109.853985 156.96844 109.710678 157.314414 109.710678 157.675113 
C 109.710678 158.035812 109.853985 158.381786 110.109037 158.636838 
C 110.36409 158.891891 110.710064 159.035198 111.070763 159.035198 
z
" clip-path="url(#pe0ab9980b9)" style="stroke: #000000"/>
    <path d="M 104.715692 147.910244 
C 105.135277 147.910244 105.537733 147.743541 105.834424 147.44685 
C 106.131115 147.150158 106.297818 146.747702 106.297818 146.328118 
C 106.297818 145.908533 106.131115 145.506077 105.834424 145.209386 
C 105.537733 144.912694 105.135277 144.745991 104.715692 144.745991 
C 104.296107 144.745991 103.893651 144.912694 103.59696 145.209386 
C 103.300268 145.506077 103.133566 145.908533 103.133566 146.328118 
C 103.133566 146.747702 103.300268 147.150158 103.59696 147.44685 
C 103.893651 147.743541 104.296107 147.910244 104.715692 147.910244 
z
" clip-path="url(#pe0ab9980b9)" style="stroke: #000000"/>
    <path d="M 98.459812 138.124497 
C 98.839892 138.124497 99.204455 137.973489 99.473212 137.704733 
C 99.741969 137.435976 99.892976 137.071412 99.892976 136.691333 
C 99.892976 136.311253 99.741969 135.946689 99.473212 135.677932 
C 99.204455 135.409176 98.839892 135.258168 98.459812 135.258168 
C 98.079733 135.258168 97.715169 135.409176 97.446412 135.677932 
C 97.177655 135.946689 97.026648 136.311253 97.026648 136.691333 
C 97.026648 137.071412 97.177655 137.435976 97.446412 137.704733 
C 97.715169 137.973489 98.079733 138.124497 98.459812 138.124497 
z
" clip-path="url(#pe0ab9980b9)" style="stroke: #000000"/>
    <path d="M 101.927737 130.159517 
C 101.927737 130.159517 101.927737 130.159517 101.927737 130.159517 
C 101.927737 130.159517 101.927737 130.159517 101.927737 130.159517 
C 101.927737 130.159517 101.927737 130.159517 101.927737 130.159517 
C 101.927737 130.159517 101.927737 130.159517 101.927737 130.159517 
C 101.927737 130.159517 101.927737 130.159517 101.927737 130.159517 
C 101.927737 130.159517 101.927737 130.159517 101.927737 130.159517 
C 101.927737 130.159517 101.927737 130.159517 101.927737 130.159517 
C 101.927737 130.159517 101.927737 130.159517 101.927737 130.159517 
z
" clip-path="url(#pe0ab9980b9)" style="stroke: #000000"/>
    <path d="M 90.181741 116.385356 
C 90.601325 116.385356 91.003781 116.218653 91.300473 115.921962 
C 91.597164 115.62527 91.763867 115.222814 91.763867 114.80323 
C 91.763867 114.383645 91.597164 113.981189 91.300473 113.684497 
C 91.003781 113.387806 90.601325 113.221103 90.181741 113.221103 
C 89.762156 113.221103 89.3597 113.387806 89.063008 113.684497 
C 88.766317 113.981189 88.599614 114.383645 88.599614 114.80323 
C 88.599614 115.222814 88.766317 115.62527 89.063008 115.921962 
C 89.3597 116.218653 89.762156 116.385356 90.181741 116.385356 
z
" clip-path="url(#pe0ab9980b9)" style="stroke: #000000"/>
    <path d="M 87.322253 105.76379 
C 87.741838 105.76379 88.144294 105.597087 88.440985 105.300396 
C 88.737677 105.003705 88.904379 104.601248 88.904379 104.181664 
C 88.904379 103.762079 88.737677 103.359623 88.440985 103.062932 
C 88.144294 102.76624 87.741838 102.599538 87.322253 102.599538 
C 86.902668 102.599538 86.500212 102.76624 86.203521 103.062932 
C 85.90683 103.359623 85.740127 103.762079 85.740127 104.181664 
C 85.740127 104.601248 85.90683 105.003705 86.203521 105.300396 
C 86.500212 105.597087 86.902668 105.76379 87.322253 105.76379 
z
" clip-path="url(#pe0ab9980b9)" style="stroke: #000000"/>
    <path d="M 85.913105 97.061137 
C 86.332428 97.061137 86.734633 96.894538 87.031139 96.598032 
C 87.327645 96.301526 87.494243 95.899321 87.494243 95.479998 
C 87.494243 95.060675 87.327645 94.65847 87.031139 94.361964 
C 86.734633 94.065458 86.332428 93.898859 85.913105 93.898859 
C 85.493782 93.898859 85.091577 94.065458 84.795071 94.361964 
C 84.498565 94.65847 84.331966 95.060675 84.331966 95.479998 
C 84.331966 95.899321 84.498565 96.301526 84.795071 96.598032 
C 85.091577 96.894538 85.493782 97.061137 85.913105 97.061137 
z
" clip-path="url(#pe0ab9980b9)" style="stroke: #000000"/>
    <path d="M 83.518876 84.664264 
C 83.938461 84.664264 84.340917 84.497561 84.637609 84.20087 
C 84.9343 83.904179 85.101003 83.501723 85.101003 83.082138 
C 85.101003 82.662553 84.9343 82.260097 84.637609 81.963406 
C 84.340917 81.666715 83.938461 81.500012 83.518876 81.500012 
C 83.099292 81.500012 82.696836 81.666715 82.400144 81.963406 
C 82.103453 82.260097 81.93675 82.662553 81.93675 83.082138 
C 81.93675 83.501723 82.103453 83.904179 82.400144 84.20087 
C 82.696836 84.497561 83.099292 84.664264 83.518876 84.664264 
z
" clip-path="url(#pe0ab9980b9)" style="stroke: #000000"/>
    <path d="M 81.37168 74.889195 
C 81.789156 74.889195 82.18959 74.72333 82.48479 74.42813 
C 82.779991 74.132929 82.945856 73.732496 82.945856 73.31502 
C 82.945856 72.897543 82.779991 72.49711 82.48479 72.201909 
C 82.18959 71.906709 81.789156 71.740844 81.37168 71.740844 
C 80.954204 71.740844 80.55377 71.906709 80.25857 72.201909 
C 79.96337 72.49711 79.797505 72.897543 79.797505 73.31502 
C 79.797505 73.732496 79.96337 74.132929 80.25857 74.42813 
C 80.55377 74.72333 80.954204 74.889195 81.37168 74.889195 
z
" clip-path="url(#pe0ab9980b9)" style="stroke: #000000"/>
    <path d="M 74.325459 64.066832 
C 74.704478 64.066832 75.068025 63.916246 75.336032 63.648238 
C 75.604039 63.380231 75.754625 63.016684 75.754625 62.637665 
C 75.754625 62.258646 75.604039 61.895099 75.336032 61.627092 
C 75.068025 61.359085 74.704478 61.208499 74.325459 61.208499 
C 73.946439 61.208499 73.582893 61.359085 73.314885 61.627092 
C 73.046878 61.895099 72.896292 62.258646 72.896292 62.637665 
C 72.896292 63.016684 73.046878 63.380231 73.314885 63.648238 
C 73.582893 63.916246 73.946439 64.066832 74.325459 64.066832 
z
" clip-path="url(#pe0ab9980b9)" style="stroke: #000000"/>
    <path d="M 71.45832 54.862027 
C 71.877905 54.862027 72.280361 54.695324 72.577052 54.398633 
C 72.873743 54.101942 73.040446 53.699485 73.040446 53.279901 
C 73.040446 52.860316 72.873743 52.45786 72.577052 52.161169 
C 72.280361 51.864477 71.877905 51.697775 71.45832 51.697775 
C 71.038735 51.697775 70.636279 51.864477 70.339588 52.161169 
C 70.042897 52.45786 69.876194 52.860316 69.876194 53.279901 
C 69.876194 53.699485 70.042897 54.101942 70.339588 54.398633 
C 70.636279 54.695324 71.038735 54.862027 71.45832 54.862027 
z
" clip-path="url(#pe0ab9980b9)" style="stroke: #000000"/>
    <path d="M 66.379596 43.103267 
C 66.379596 43.103267 66.379596 43.103267 66.379596 43.103267 
C 66.379596 43.103267 66.379596 43.103267 66.379596 43.103267 
C 66.379596 43.103267 66.379596 43.103267 66.379596 43.103267 
C 66.379596 43.103267 66.379596 43.103267 66.379596 43.103267 
C 66.379596 43.103267 66.379596 43.103267 66.379596 43.103267 
C 66.379596 43.103267 66.379596 43.103267 66.379596 43.103267 
C 66.379596 43.103267 66.379596 43.103267 66.379596 43.103267 
C 66.379596 43.103267 66.379596 43.103267 66.379596 43.103267 
z
" clip-path="url(#pe0ab9980b9)" style="stroke: #000000"/>
    <path d="M 61.716179 34.086758 
C 61.839579 34.086758 61.957941 34.037731 62.045198 33.950474 
C 62.132455 33.863218 62.181482 33.744855 62.181482 33.621456 
C 62.181482 33.498056 62.132455 33.379694 62.045198 33.292437 
C 61.957941 33.205181 61.839579 33.156153 61.716179 33.156153 
C 61.59278 33.156153 61.474418 33.205181 61.387161 33.292437 
C 61.299904 33.379694 61.250877 33.498056 61.250877 33.621456 
C 61.250877 33.744855 61.299904 33.863218 61.387161 33.950474 
C 61.474418 34.037731 61.59278 34.086758 61.716179 34.086758 
z
" clip-path="url(#pe0ab9980b9)" style="stroke: #000000"/>
    <path d="M 99.985454 171.181243 
C 100.306823 171.181243 100.615072 171.053562 100.842314 170.82632 
C 101.069556 170.599078 101.197237 170.290828 101.197237 169.96946 
C 101.197237 169.648091 101.069556 169.339842 100.842314 169.1126 
C 100.615072 168.885358 100.306823 168.757677 99.985454 168.757677 
C 99.664086 168.757677 99.355836 168.885358 99.128594 169.1126 
C 98.901353 169.339842 98.773671 169.648091 98.773671 169.96946 
C 98.773671 170.290828 98.901353 170.599078 99.128594 170.82632 
C 99.355836 171.053562 99.664086 171.181243 99.985454 171.181243 
z
" clip-path="url(#pe0ab9980b9)" style="stroke: #000000"/>
    <path d="M 102.207795 162.988805 
C 102.62738 162.988805 103.029836 162.822103 103.326527 162.525411 
C 103.623219 162.22872 103.789921 161.826264 103.789921 161.406679 
C 103.789921 160.987095 103.623219 160.584638 103.326527 160.287947 
C 103.029836 159.991256 102.62738 159.824553 102.207795 159.824553 
C 101.78821 159.824553 101.385754 159.991256 101.089063 160.287947 
C 100.792372 160.584638 100.625669 160.987095 100.625669 161.406679 
C 100.625669 161.826264 100.792372 162.22872 101.089063 162.525411 
C 101.385754 162.822103 101.78821 162.988805 102.207795 162.988805 
z
" clip-path="url(#pe0ab9980b9)" style="stroke: #000000"/>
    <path d="M 95.88633 154.438886 
C 96.305914 154.438886 96.708371 154.272184 97.005062 153.975492 
C 97.301753 153.678801 97.468456 153.276345 97.468456 152.85676 
C 97.468456 152.437175 97.301753 152.034719 97.005062 151.738028 
C 96.708371 151.441337 96.305914 151.274634 95.88633 151.274634 
C 95.466745 151.274634 95.064289 151.441337 94.767598 151.738028 
C 94.470906 152.034719 94.304204 152.437175 94.304204 152.85676 
C 94.304204 153.276345 94.470906 153.678801 94.767598 153.975492 
C 95.064289 154.272184 95.466745 154.438886 95.88633 154.438886 
z
" clip-path="url(#pe0ab9980b9)" style="stroke: #000000"/>
    <path d="M 91.200706 141.89972 
C 91.200706 141.89972 91.200706 141.89972 91.200706 141.89972 
C 91.200706 141.89972 91.200706 141.89972 91.200706 141.89972 
C 91.200706 141.89972 91.200706 141.89972 91.200706 141.89972 
C 91.200706 141.89972 91.200706 141.89972 91.200706 141.89972 
C 91.200706 141.89972 91.200706 141.89972 91.200706 141.89972 
C 91.200706 141.89972 91.200706 141.89972 91.200706 141.89972 
C 91.200706 141.89972 91.200706 141.89972 91.200706 141.89972 
C 91.200706 141.89972 91.200706 141.89972 91.200706 141.89972 
z
" clip-path="url(#pe0ab9980b9)" style="stroke: #000000"/>
    <path d="M 80.361895 132.726093 
C 80.781479 132.726093 81.183936 132.559391 81.480627 132.262699 
C 81.777318 131.966008 81.944021 131.563552 81.944021 131.143967 
C 81.944021 130.724383 81.777318 130.321926 81.480627 130.025235 
C 81.183936 129.728544 80.781479 129.561841 80.361895 129.561841 
C 79.94231 129.561841 79.539854 129.728544 79.243163 130.025235 
C 78.946471 130.321926 78.779769 130.724383 78.779769 131.143967 
C 78.779769 131.563552 78.946471 131.966008 79.243163 132.262699 
C 79.539854 132.559391 79.94231 132.726093 80.361895 132.726093 
z
" clip-path="url(#pe0ab9980b9)" style="stroke: #000000"/>
    <path d="M 78.90446 120.987838 
C 79.324045 120.987838 79.726501 120.821135 80.023192 120.524444 
C 80.319884 120.227752 80.486586 119.825296 80.486586 119.405712 
C 80.486586 118.986127 80.319884 118.583671 80.023192 118.286979 
C 79.726501 117.990288 79.324045 117.823585 78.90446 117.823585 
C 78.484875 117.823585 78.082419 117.990288 77.785728 118.286979 
C 77.489037 118.583671 77.322334 118.986127 77.322334 119.405712 
C 77.322334 119.825296 77.489037 120.227752 77.785728 120.524444 
C 78.082419 120.821135 78.484875 120.987838 78.90446 120.987838 
z
" clip-path="url(#pe0ab9980b9)" style="stroke: #000000"/>
    <path d="M 76.963246 114.356785 
C 77.382831 114.356785 77.785287 114.190082 78.081978 113.893391 
C 78.378669 113.5967 78.545372 113.194244 78.545372 112.774659 
C 78.545372 112.355074 78.378669 111.952618 78.081978 111.655927 
C 77.785287 111.359235 77.382831 111.192533 76.963246 111.192533 
C 76.543661 111.192533 76.141205 111.359235 75.844514 111.655927 
C 75.547823 111.952618 75.38112 112.355074 75.38112 112.774659 
C 75.38112 113.194244 75.547823 113.5967 75.844514 113.893391 
C 76.141205 114.190082 76.543661 114.356785 76.963246 114.356785 
z
" clip-path="url(#pe0ab9980b9)" style="stroke: #000000"/>
    <path d="M 76.113077 100.181133 
C 76.5324 100.181133 76.934605 100.014534 77.231111 99.718028 
C 77.527617 99.421522 77.694216 99.019317 77.694216 98.599994 
C 77.694216 98.180671 77.527617 97.778466 77.231111 97.48196 
C 76.934605 97.185454 76.5324 97.018855 76.113077 97.018855 
C 75.693754 97.018855 75.291549 97.185454 74.995043 97.48196 
C 74.698537 97.778466 74.531939 98.180671 74.531939 98.599994 
C 74.531939 99.019317 74.698537 99.421522 74.995043 99.718028 
C 75.291549 100.014534 75.693754 100.181133 76.113077 100.181133 
z
" clip-path="url(#pe0ab9980b9)" style="stroke: #000000"/>
    <path d="M 70.512534 92.091452 
C 70.896768 92.091452 71.265317 91.938794 71.537011 91.6671 
C 71.808706 91.395405 71.961364 91.026857 71.961364 90.642623 
C 71.961364 90.258388 71.808706 89.88984 71.537011 89.618145 
C 71.265317 89.346451 70.896768 89.193793 70.512534 89.193793 
C 70.1283 89.193793 69.759752 89.346451 69.488057 89.618145 
C 69.216363 89.88984 69.063705 90.258388 69.063705 90.642623 
C 69.063705 91.026857 69.216363 91.395405 69.488057 91.6671 
C 69.759752 91.938794 70.1283 92.091452 70.512534 92.091452 
z
" clip-path="url(#pe0ab9980b9)" style="stroke: #000000"/>
    <path d="M 66.885892 78.903226 
C 67.305476 78.903226 67.707933 78.736524 68.004624 78.439832 
C 68.301315 78.143141 68.468018 77.740685 68.468018 77.3211 
C 68.468018 76.901515 68.301315 76.499059 68.004624 76.202368 
C 67.707933 75.905677 67.305476 75.738974 66.885892 75.738974 
C 66.466307 75.738974 66.063851 75.905677 65.76716 76.202368 
C 65.470468 76.499059 65.303766 76.901515 65.303766 77.3211 
C 65.303766 77.740685 65.470468 78.143141 65.76716 78.439832 
C 66.063851 78.736524 66.466307 78.903226 66.885892 78.903226 
z
" clip-path="url(#pe0ab9980b9)" style="stroke: #000000"/>
    <path d="M 63.389146 70.936766 
C 63.808731 70.936766 64.211187 70.770063 64.507879 70.473372 
C 64.80457 70.17668 64.971273 69.774224 64.971273 69.35464 
C 64.971273 68.935055 64.80457 68.532599 64.507879 68.235908 
C 64.211187 67.939216 63.808731 67.772513 63.389146 67.772513 
C 62.969562 67.772513 62.567106 67.939216 62.270414 68.235908 
C 61.973723 68.532599 61.80702 68.935055 61.80702 69.35464 
C 61.80702 69.774224 61.973723 70.17668 62.270414 70.473372 
C 62.567106 70.770063 62.969562 70.936766 63.389146 70.936766 
z
" clip-path="url(#pe0ab9980b9)" style="stroke: #000000"/>
    <path d="M 58.447884 58.724995 
C 58.447884 58.724995 58.447884 58.724995 58.447884 58.724995 
C 58.447884 58.724995 58.447884 58.724995 58.447884 58.724995 
C 58.447884 58.724995 58.447884 58.724995 58.447884 58.724995 
C 58.447884 58.724995 58.447884 58.724995 58.447884 58.724995 
C 58.447884 58.724995 58.447884 58.724995 58.447884 58.724995 
C 58.447884 58.724995 58.447884 58.724995 58.447884 58.724995 
C 58.447884 58.724995 58.447884 58.724995 58.447884 58.724995 
C 58.447884 58.724995 58.447884 58.724995 58.447884 58.724995 
z
" clip-path="url(#pe0ab9980b9)" style="stroke: #000000"/>
    <path d="M 54.056911 50.889356 
C 54.411268 50.889356 54.751159 50.748568 55.001728 50.498 
C 55.252296 50.247432 55.393083 49.90754 55.393083 49.553183 
C 55.393083 49.198826 55.252296 48.858935 55.001728 48.608367 
C 54.751159 48.357798 54.411268 48.217011 54.056911 48.217011 
C 53.702554 48.217011 53.362663 48.357798 53.112094 48.608367 
C 52.861526 48.858935 52.720738 49.198826 52.720738 49.553183 
C 52.720738 49.90754 52.861526 50.247432 53.112094 50.498 
C 53.362663 50.748568 53.702554 50.889356 54.056911 50.889356 
z
" clip-path="url(#pe0ab9980b9)" style="stroke: #000000"/>
    <path d="M 56.061165 38.665535 
C 56.218856 38.665535 56.370109 38.602883 56.481613 38.491379 
C 56.593118 38.379875 56.655769 38.228622 56.655769 38.070931 
C 56.655769 37.91324 56.593118 37.761987 56.481613 37.650483 
C 56.370109 37.538979 56.218856 37.476328 56.061165 37.476328 
C 55.903475 37.476328 55.752221 37.538979 55.640717 37.650483 
C 55.529213 37.761987 55.466562 37.91324 55.466562 38.070931 
C 55.466562 38.228622 55.529213 38.379875 55.640717 38.491379 
C 55.752221 38.602883 55.903475 38.665535 56.061165 38.665535 
z
" clip-path="url(#pe0ab9980b9)" style="stroke: #000000"/>
    <path d="M 86.413441 176.200697 
C 86.833026 176.200697 87.235482 176.033994 87.532173 175.737303 
C 87.828864 175.440612 87.995567 175.038156 87.995567 174.618571 
C 87.995567 174.198986 87.828864 173.79653 87.532173 173.499839 
C 87.235482 173.203148 86.833026 173.036445 86.413441 173.036445 
C 85.993856 173.036445 85.5914 173.203148 85.294709 173.499839 
C 84.998018 173.79653 84.831315 174.198986 84.831315 174.618571 
C 84.831315 175.038156 84.998018 175.440612 85.294709 175.737303 
C 85.5914 176.033994 85.993856 176.200697 86.413441 176.200697 
z
" clip-path="url(#pe0ab9980b9)" style="stroke: #000000"/>
    <path d="M 89.14432 161.123285 
C 89.14432 161.123285 89.14432 161.123285 89.14432 161.123285 
C 89.14432 161.123285 89.14432 161.123285 89.14432 161.123285 
C 89.14432 161.123285 89.14432 161.123285 89.14432 161.123285 
C 89.14432 161.123285 89.14432 161.123285 89.14432 161.123285 
C 89.14432 161.123285 89.14432 161.123285 89.14432 161.123285 
C 89.14432 161.123285 89.14432 161.123285 89.14432 161.123285 
C 89.14432 161.123285 89.14432 161.123285 89.14432 161.123285 
C 89.14432 161.123285 89.14432 161.123285 89.14432 161.123285 
z
" clip-path="url(#pe0ab9980b9)" style="stroke: #000000"/>
    <path d="M 83.733946 155.708345 
C 84.112966 155.708345 84.476512 155.557759 84.74452 155.289752 
C 85.012527 155.021745 85.163113 154.658198 85.163113 154.279179 
C 85.163113 153.90016 85.012527 153.536613 84.74452 153.268606 
C 84.476512 153.000598 84.112966 152.850012 83.733946 152.850012 
C 83.354927 152.850012 82.99138 153.000598 82.723373 153.268606 
C 82.455366 153.536613 82.30478 153.90016 82.30478 154.279179 
C 82.30478 154.658198 82.455366 155.021745 82.723373 155.289752 
C 82.99138 155.557759 83.354927 155.708345 83.733946 155.708345 
z
" clip-path="url(#pe0ab9980b9)" style="stroke: #000000"/>
    <path d="M 79.814595 141.491987 
C 80.234179 141.491987 80.636636 141.325284 80.933327 141.028593 
C 81.230018 140.731902 81.396721 140.329446 81.396721 139.909861 
C 81.396721 139.490276 81.230018 139.08782 80.933327 138.791129 
C 80.636636 138.494438 80.234179 138.327735 79.814595 138.327735 
C 79.39501 138.327735 78.992554 138.494438 78.695863 138.791129 
C 78.399171 139.08782 78.232469 139.490276 78.232469 139.909861 
C 78.232469 140.329446 78.399171 140.731902 78.695863 141.028593 
C 78.992554 141.325284 79.39501 141.491987 79.814595 141.491987 
z
" clip-path="url(#pe0ab9980b9)" style="stroke: #000000"/>
    <path d="M 75.941677 133.121997 
C 76.361262 133.121997 76.763718 132.955294 77.060409 132.658603 
C 77.357101 132.361912 77.523803 131.959456 77.523803 131.539871 
C 77.523803 131.120286 77.357101 130.71783 77.060409 130.421139 
C 76.763718 130.124448 76.361262 129.957745 75.941677 129.957745 
C 75.522093 129.957745 75.119636 130.124448 74.822945 130.421139 
C 74.526254 130.71783 74.359551 131.120286 74.359551 131.539871 
C 74.359551 131.959456 74.526254 132.361912 74.822945 132.658603 
C 75.119636 132.955294 75.522093 133.121997 75.941677 133.121997 
z
" clip-path="url(#pe0ab9980b9)" style="stroke: #000000"/>
    <path d="M 69.871102 124.86411 
C 70.260346 124.86411 70.633701 124.709461 70.908939 124.434224 
C 71.184176 124.158986 71.338825 123.785631 71.338825 123.396387 
C 71.338825 123.007142 71.184176 122.633787 70.908939 122.35855 
C 70.633701 122.083312 70.260346 121.928664 69.871102 121.928664 
C 69.481857 121.928664 69.108502 122.083312 68.833265 122.35855 
C 68.558027 122.633787 68.403379 123.007142 68.403379 123.396387 
C 68.403379 123.785631 68.558027 124.158986 68.833265 124.434224 
C 69.108502 124.709461 69.481857 124.86411 69.871102 124.86411 
z
" clip-path="url(#pe0ab9980b9)" style="stroke: #000000"/>
    <path d="M 69.331056 112.985249 
C 69.730386 112.985249 70.113415 112.826593 70.395784 112.544224 
C 70.678154 112.261854 70.836809 111.878826 70.836809 111.479495 
C 70.836809 111.080164 70.678154 110.697136 70.395784 110.414766 
C 70.113415 110.132397 69.730386 109.973741 69.331056 109.973741 
C 68.931725 109.973741 68.548696 110.132397 68.266327 110.414766 
C 67.983957 110.697136 67.825302 111.080164 67.825302 111.479495 
C 67.825302 111.878826 67.983957 112.261854 68.266327 112.544224 
C 68.548696 112.826593 68.931725 112.985249 69.331056 112.985249 
z
" clip-path="url(#pe0ab9980b9)" style="stroke: #000000"/>
    <path d="M 59.846917 105.986764 
C 60.266502 105.986764 60.668958 105.820061 60.965649 105.52337 
C 61.26234 105.226679 61.429043 104.824223 61.429043 104.404638 
C 61.429043 103.985053 61.26234 103.582597 60.965649 103.285906 
C 60.668958 102.989215 60.266502 102.822512 59.846917 102.822512 
C 59.427332 102.822512 59.024876 102.989215 58.728185 103.285906 
C 58.431493 103.582597 58.264791 103.985053 58.264791 104.404638 
C 58.264791 104.824223 58.431493 105.226679 58.728185 105.52337 
C 59.024876 105.820061 59.427332 105.986764 59.846917 105.986764 
z
" clip-path="url(#pe0ab9980b9)" style="stroke: #000000"/>
    <path d="M 62.475962 92.37763 
C 62.895546 92.37763 63.298002 92.210927 63.594694 91.914236 
C 63.891385 91.617545 64.058088 91.215089 64.058088 90.795504 
C 64.058088 90.375919 63.891385 89.973463 63.594694 89.676772 
C 63.298002 89.380081 62.895546 89.213378 62.475962 89.213378 
C 62.056377 89.213378 61.653921 89.380081 61.357229 89.676772 
C 61.060538 89.973463 60.893835 90.375919 60.893835 90.795504 
C 60.893835 91.215089 61.060538 91.617545 61.357229 91.914236 
C 61.653921 92.210927 62.056377 92.37763 62.475962 92.37763 
z
" clip-path="url(#pe0ab9980b9)" style="stroke: #000000"/>
    <path d="M 54.770801 87.496958 
C 55.190385 87.496958 55.592841 87.330255 55.889533 87.033564 
C 56.186224 86.736873 56.352927 86.334417 56.352927 85.914832 
C 56.352927 85.495247 56.186224 85.092791 55.889533 84.7961 
C 55.592841 84.499409 55.190385 84.332706 54.770801 84.332706 
C 54.351216 84.332706 53.94876 84.499409 53.652068 84.7961 
C 53.355377 85.092791 53.188674 85.495247 53.188674 85.914832 
C 53.188674 86.334417 53.355377 86.736873 53.652068 87.033564 
C 53.94876 87.330255 54.351216 87.496958 54.770801 87.496958 
z
" clip-path="url(#pe0ab9980b9)" style="stroke: #000000"/>
    <path d="M 53.235115 70.927823 
C 53.6547 70.927823 54.057156 70.761121 54.353847 70.464429 
C 54.650539 70.167738 54.817241 69.765282 54.817241 69.345697 
C 54.817241 68.926113 54.650539 68.523656 54.353847 68.226965 
C 54.057156 67.930274 53.6547 67.763571 53.235115 67.763571 
C 52.81553 67.763571 52.413074 67.930274 52.116383 68.226965 
C 51.819692 68.523656 51.652989 68.926113 51.652989 69.345697 
C 51.652989 69.765282 51.819692 70.167738 52.116383 70.464429 
C 52.413074 70.761121 52.81553 70.927823 53.235115 70.927823 
z
" clip-path="url(#pe0ab9980b9)" style="stroke: #000000"/>
    <path d="M 51.598557 62.157012 
C 52.018142 62.157012 52.420598 61.990309 52.717289 61.693618 
C 53.013981 61.396926 53.180683 60.99447 53.180683 60.574885 
C 53.180683 60.155301 53.013981 59.752845 52.717289 59.456153 
C 52.420598 59.159462 52.018142 58.992759 51.598557 58.992759 
C 51.178973 58.992759 50.776516 59.159462 50.479825 59.456153 
C 50.183134 59.752845 50.016431 60.155301 50.016431 60.574885 
C 50.016431 60.99447 50.183134 61.396926 50.479825 61.693618 
C 50.776516 61.990309 51.178973 62.157012 51.598557 62.157012 
z
" clip-path="url(#pe0ab9980b9)" style="stroke: #000000"/>
    <path d="M 52.035117 53.765742 
C 52.454702 53.765742 52.857158 53.599039 53.153849 53.302348 
C 53.45054 53.005656 53.617243 52.6032 53.617243 52.183616 
C 53.617243 51.764031 53.45054 51.361575 53.153849 51.064883 
C 52.857158 50.768192 52.454702 50.601489 52.035117 50.601489 
C 51.615532 50.601489 51.213076 50.768192 50.916385 51.064883 
C 50.619694 51.361575 50.452991 51.764031 50.452991 52.183616 
C 50.452991 52.6032 50.619694 53.005656 50.916385 53.302348 
C 51.213076 53.599039 51.615532 53.765742 52.035117 53.765742 
z
" clip-path="url(#pe0ab9980b9)" style="stroke: #000000"/>
    <path d="M 47.099941 42.957809 
C 47.293072 42.957809 47.478319 42.881078 47.614883 42.744514 
C 47.751447 42.607949 47.828179 42.422703 47.828179 42.229572 
C 47.828179 42.036441 47.751447 41.851194 47.614883 41.71463 
C 47.478319 41.578066 47.293072 41.501334 47.099941 41.501334 
C 46.90681 41.501334 46.721564 41.578066 46.585 41.71463 
C 46.448435 41.851194 46.371704 42.036441 46.371704 42.229572 
C 46.371704 42.422703 46.448435 42.607949 46.585 42.744514 
C 46.721564 42.881078 46.90681 42.957809 47.099941 42.957809 
z
" clip-path="url(#pe0ab9980b9)" style="stroke: #000000"/>
    <path d="M 75.760404 178.118573 
C 76.179989 178.118573 76.582445 177.95187 76.879136 177.655179 
C 77.175828 177.358487 77.34253 176.956031 77.34253 176.536447 
C 77.34253 176.116862 77.175828 175.714406 76.879136 175.417714 
C 76.582445 175.121023 76.179989 174.95432 75.760404 174.95432 
C 75.340819 174.95432 74.938363 175.121023 74.641672 175.417714 
C 74.344981 175.714406 74.178278 176.116862 74.178278 176.536447 
C 74.178278 176.956031 74.344981 177.358487 74.641672 177.655179 
C 74.938363 177.95187 75.340819 178.118573 75.760404 178.118573 
z
" clip-path="url(#pe0ab9980b9)" style="stroke: #000000"/>
    <path d="M 74.806566 167.72423 
C 75.184874 167.72423 75.547738 167.573927 75.815242 167.306423 
C 76.082746 167.038919 76.233049 166.676055 76.233049 166.297748 
C 76.233049 165.91944 76.082746 165.556576 75.815242 165.289072 
C 75.547738 165.021568 75.184874 164.871265 74.806566 164.871265 
C 74.428259 164.871265 74.065395 165.021568 73.797891 165.289072 
C 73.530387 165.556576 73.380084 165.91944 73.380084 166.297748 
C 73.380084 166.676055 73.530387 167.038919 73.797891 167.306423 
C 74.065395 167.573927 74.428259 167.72423 74.806566 167.72423 
z
" clip-path="url(#pe0ab9980b9)" style="stroke: #000000"/>
    <path d="M 71.656691 159.751429 
C 71.656691 159.751429 71.656691 159.751429 71.656691 159.751429 
C 71.656691 159.751429 71.656691 159.751429 71.656691 159.751429 
C 71.656691 159.751429 71.656691 159.751429 71.656691 159.751429 
C 71.656691 159.751429 71.656691 159.751429 71.656691 159.751429 
C 71.656691 159.751429 71.656691 159.751429 71.656691 159.751429 
C 71.656691 159.751429 71.656691 159.751429 71.656691 159.751429 
C 71.656691 159.751429 71.656691 159.751429 71.656691 159.751429 
C 71.656691 159.751429 71.656691 159.751429 71.656691 159.751429 
z
" clip-path="url(#pe0ab9980b9)" style="stroke: #000000"/>
    <path d="M 68.685614 151.867759 
C 68.685614 151.867759 68.685614 151.867759 68.685614 151.867759 
C 68.685614 151.867759 68.685614 151.867759 68.685614 151.867759 
C 68.685614 151.867759 68.685614 151.867759 68.685614 151.867759 
C 68.685614 151.867759 68.685614 151.867759 68.685614 151.867759 
C 68.685614 151.867759 68.685614 151.867759 68.685614 151.867759 
C 68.685614 151.867759 68.685614 151.867759 68.685614 151.867759 
C 68.685614 151.867759 68.685614 151.867759 68.685614 151.867759 
C 68.685614 151.867759 68.685614 151.867759 68.685614 151.867759 
z
" clip-path="url(#pe0ab9980b9)" style="stroke: #000000"/>
    <path d="M 63.076936 135.668811 
C 63.496521 135.668811 63.898977 135.502108 64.195668 135.205417 
C 64.492359 134.908726 64.659062 134.50627 64.659062 134.086685 
C 64.659062 133.6671 64.492359 133.264644 64.195668 132.967953 
C 63.898977 132.671262 63.496521 132.504559 63.076936 132.504559 
C 62.657351 132.504559 62.254895 132.671262 61.958204 132.967953 
C 61.661513 133.264644 61.49481 133.6671 61.49481 134.086685 
C 61.49481 134.50627 61.661513 134.908726 61.958204 135.205417 
C 62.254895 135.502108 62.657351 135.668811 63.076936 135.668811 
z
" clip-path="url(#pe0ab9980b9)" style="stroke: #000000"/>
    <path d="M 59.828084 133.412124 
C 60.205317 133.412124 60.567149 133.262248 60.833893 132.995504 
C 61.100636 132.728761 61.250512 132.366928 61.250512 131.989696 
C 61.250512 131.612463 61.100636 131.250631 60.833893 130.983887 
C 60.567149 130.717143 60.205317 130.567267 59.828084 130.567267 
C 59.450852 130.567267 59.089019 130.717143 58.822276 130.983887 
C 58.555532 131.250631 58.405656 131.612463 58.405656 131.989696 
C 58.405656 132.366928 58.555532 132.728761 58.822276 132.995504 
C 59.089019 133.262248 59.450852 133.412124 59.828084 133.412124 
z
" clip-path="url(#pe0ab9980b9)" style="stroke: #000000"/>
    <path d="M 55.328381 116.56756 
C 55.747965 116.56756 56.150422 116.400857 56.447113 116.104166 
C 56.743804 115.807475 56.910507 115.405019 56.910507 114.985434 
C 56.910507 114.565849 56.743804 114.163393 56.447113 113.866702 
C 56.150422 113.570011 55.747965 113.403308 55.328381 113.403308 
C 54.908796 113.403308 54.50634 113.570011 54.209649 113.866702 
C 53.912957 114.163393 53.746255 114.565849 53.746255 114.985434 
C 53.746255 115.405019 53.912957 115.807475 54.209649 116.104166 
C 54.50634 116.400857 54.908796 116.56756 55.328381 116.56756 
z
" clip-path="url(#pe0ab9980b9)" style="stroke: #000000"/>
    <path d="M 54.266518 106.738414 
C 54.686103 106.738414 55.088559 106.571711 55.38525 106.27502 
C 55.681942 105.978328 55.848644 105.575872 55.848644 105.156288 
C 55.848644 104.736703 55.681942 104.334247 55.38525 104.037556 
C 55.088559 103.740864 54.686103 103.574161 54.266518 103.574161 
C 53.846933 103.574161 53.444477 103.740864 53.147786 104.037556 
C 52.851095 104.334247 52.684392 104.736703 52.684392 105.156288 
C 52.684392 105.575872 52.851095 105.978328 53.147786 106.27502 
C 53.444477 106.571711 53.846933 106.738414 54.266518 106.738414 
z
" clip-path="url(#pe0ab9980b9)" style="stroke: #000000"/>
    <path d="M 50.684871 98.516885 
C 51.045569 98.516885 51.391543 98.373578 51.646596 98.118526 
C 51.901648 97.863473 52.044956 97.517499 52.044956 97.1568 
C 52.044956 96.796102 51.901648 96.450128 51.646596 96.195075 
C 51.391543 95.940022 51.045569 95.796715 50.684871 95.796715 
C 50.324172 95.796715 49.978198 95.940022 49.723145 96.195075 
C 49.468093 96.450128 49.324786 96.796102 49.324786 97.1568 
C 49.324786 97.517499 49.468093 97.863473 49.723145 98.118526 
C 49.978198 98.373578 50.324172 98.516885 50.684871 98.516885 
z
" clip-path="url(#pe0ab9980b9)" style="stroke: #000000"/>
    <path d="M 49.306447 89.316968 
C 49.726032 89.316968 50.128488 89.150266 50.425179 88.853574 
C 50.721871 88.556883 50.888573 88.154427 50.888573 87.734842 
C 50.888573 87.315258 50.721871 86.912801 50.425179 86.61611 
C 50.128488 86.319419 49.726032 86.152716 49.306447 86.152716 
C 48.886862 86.152716 48.484406 86.319419 48.187715 86.61611 
C 47.891024 86.912801 47.724321 87.315258 47.724321 87.734842 
C 47.724321 88.154427 47.891024 88.556883 48.187715 88.853574 
C 48.484406 89.150266 48.886862 89.316968 49.306447 89.316968 
z
" clip-path="url(#pe0ab9980b9)" style="stroke: #000000"/>
    <path d="M 42.710811 77.830171 
C 43.089831 77.830171 43.453378 77.679585 43.721385 77.411578 
C 43.989392 77.143571 44.139978 76.780024 44.139978 76.401005 
C 44.139978 76.021985 43.989392 75.658438 43.721385 75.390431 
C 43.453378 75.122424 43.089831 74.971838 42.710811 74.971838 
C 42.331792 74.971838 41.968245 75.122424 41.700238 75.390431 
C 41.432231 75.658438 41.281645 76.021985 41.281645 76.401005 
C 41.281645 76.780024 41.432231 77.143571 41.700238 77.411578 
C 41.968245 77.679585 42.331792 77.830171 42.710811 77.830171 
z
" clip-path="url(#pe0ab9980b9)" style="stroke: #000000"/>
    <path d="M 39.54571 66.41775 
C 39.965294 66.41775 40.367751 66.251047 40.664442 65.954356 
C 40.961133 65.657665 41.127836 65.255208 41.127836 64.835624 
C 41.127836 64.416039 40.961133 64.013583 40.664442 63.716892 
C 40.367751 63.4202 39.965294 63.253498 39.54571 63.253498 
C 39.126125 63.253498 38.723669 63.4202 38.426978 63.716892 
C 38.130286 64.013583 37.963584 64.416039 37.963584 64.835624 
C 37.963584 65.255208 38.130286 65.657665 38.426978 65.954356 
C 38.723669 66.251047 39.126125 66.41775 39.54571 66.41775 
z
" clip-path="url(#pe0ab9980b9)" style="stroke: #000000"/>
    <path d="M 67.034848 171.018517 
C 67.454432 171.018517 67.856888 170.851815 68.15358 170.555123 
C 68.450271 170.258432 68.616974 169.855976 68.616974 169.436391 
C 68.616974 169.016807 68.450271 168.61435 68.15358 168.317659 
C 67.856888 168.020968 67.454432 167.854265 67.034848 167.854265 
C 66.615263 167.854265 66.212807 168.020968 65.916115 168.317659 
C 65.619424 168.61435 65.452721 169.016807 65.452721 169.436391 
C 65.452721 169.855976 65.619424 170.258432 65.916115 170.555123 
C 66.212807 170.851815 66.615263 171.018517 67.034848 171.018517 
z
" clip-path="url(#pe0ab9980b9)" style="stroke: #000000"/>
    <path d="M 59.890709 163.193172 
C 60.310294 163.193172 60.71275 163.026469 61.009441 162.729778 
C 61.306133 162.433086 61.472835 162.03063 61.472835 161.611046 
C 61.472835 161.191461 61.306133 160.789005 61.009441 160.492313 
C 60.71275 160.195622 60.310294 160.028919 59.890709 160.028919 
C 59.471125 160.028919 59.068668 160.195622 58.771977 160.492313 
C 58.475286 160.789005 58.308583 161.191461 58.308583 161.611046 
C 58.308583 162.03063 58.475286 162.433086 58.771977 162.729778 
C 59.068668 163.026469 59.471125 163.193172 59.890709 163.193172 
z
" clip-path="url(#pe0ab9980b9)" style="stroke: #000000"/>
    <path d="M 55.385418 152.747806 
C 55.764438 152.747806 56.127984 152.59722 56.395992 152.329213 
C 56.663999 152.061205 56.814585 151.697659 56.814585 151.318639 
C 56.814585 150.93962 56.663999 150.576073 56.395992 150.308066 
C 56.127984 150.040059 55.764438 149.889473 55.385418 149.889473 
C 55.006399 149.889473 54.642852 150.040059 54.374845 150.308066 
C 54.106838 150.576073 53.956252 150.93962 53.956252 151.318639 
C 53.956252 151.697659 54.106838 152.061205 54.374845 152.329213 
C 54.642852 152.59722 55.006399 152.747806 55.385418 152.747806 
z
" clip-path="url(#pe0ab9980b9)" style="stroke: #000000"/>
    <path d="M 53.610276 140.793026 
C 54.029861 140.793026 54.432317 140.626323 54.729009 140.329632 
C 55.0257 140.03294 55.192403 139.630484 55.192403 139.210899 
C 55.192403 138.791315 55.0257 138.388859 54.729009 138.092167 
C 54.432317 137.795476 54.029861 137.628773 53.610276 137.628773 
C 53.190692 137.628773 52.788236 137.795476 52.491544 138.092167 
C 52.194853 138.388859 52.02815 138.791315 52.02815 139.210899 
C 52.02815 139.630484 52.194853 140.03294 52.491544 140.329632 
C 52.788236 140.626323 53.190692 140.793026 53.610276 140.793026 
z
" clip-path="url(#pe0ab9980b9)" style="stroke: #000000"/>
    <path d="M 46.601078 130.5986 
C 46.987339 130.5986 47.357833 130.445136 47.630961 130.172008 
C 47.90409 129.89888 48.057553 129.528386 48.057553 129.142124 
C 48.057553 128.755863 47.90409 128.385369 47.630961 128.112241 
C 47.357833 127.839112 46.987339 127.685649 46.601078 127.685649 
C 46.214816 127.685649 45.844322 127.839112 45.571194 128.112241 
C 45.298066 128.385369 45.144602 128.755863 45.144602 129.142124 
C 45.144602 129.528386 45.298066 129.89888 45.571194 130.172008 
C 45.844322 130.445136 46.214816 130.5986 46.601078 130.5986 
z
" clip-path="url(#pe0ab9980b9)" style="stroke: #000000"/>
    <path d="M 45.700278 123.183205 
C 46.119601 123.183205 46.521806 123.016606 46.818312 122.7201 
C 47.114818 122.423594 47.281417 122.021389 47.281417 121.602066 
C 47.281417 121.182743 47.114818 120.780538 46.818312 120.484032 
C 46.521806 120.187526 46.119601 120.020927 45.700278 120.020927 
C 45.280955 120.020927 44.87875 120.187526 44.582244 120.484032 
C 44.285738 120.780538 44.119139 121.182743 44.119139 121.602066 
C 44.119139 122.021389 44.285738 122.423594 44.582244 122.7201 
C 44.87875 123.016606 45.280955 123.183205 45.700278 123.183205 
z
" clip-path="url(#pe0ab9980b9)" style="stroke: #000000"/>
    <path d="M 44.053253 108.278656 
C 44.37286 108.278656 44.67942 108.151674 44.905417 107.925678 
C 45.131414 107.699681 45.258395 107.393121 45.258395 107.073513 
C 45.258395 106.753906 45.131414 106.447345 44.905417 106.221349 
C 44.67942 105.995352 44.37286 105.868371 44.053253 105.868371 
C 43.733645 105.868371 43.427085 105.995352 43.201088 106.221349 
C 42.975091 106.447345 42.84811 106.753906 42.84811 107.073513 
C 42.84811 107.393121 42.975091 107.699681 43.201088 107.925678 
C 43.427085 108.151674 43.733645 108.278656 44.053253 108.278656 
z
" clip-path="url(#pe0ab9980b9)" style="stroke: #000000"/>
    <path d="M 40.028089 102.679452 
C 40.447674 102.679452 40.85013 102.51275 41.146821 102.216058 
C 41.443512 101.919367 41.610215 101.516911 41.610215 101.097326 
C 41.610215 100.677741 41.443512 100.275285 41.146821 99.978594 
C 40.85013 99.681903 40.447674 99.5152 40.028089 99.5152 
C 39.608504 99.5152 39.206048 99.681903 38.909357 99.978594 
C 38.612666 100.275285 38.445963 100.677741 38.445963 101.097326 
C 38.445963 101.516911 38.612666 101.919367 38.909357 102.216058 
C 39.206048 102.51275 39.608504 102.679452 40.028089 102.679452 
z
" clip-path="url(#pe0ab9980b9)" style="stroke: #000000"/>
    <path d="M 41.391289 90.985533 
C 41.771369 90.985533 42.135933 90.834526 42.40469 90.565769 
C 42.673446 90.297012 42.824454 89.932449 42.824454 89.552369 
C 42.824454 89.17229 42.673446 88.807726 42.40469 88.538969 
C 42.135933 88.270212 41.771369 88.119205 41.391289 88.119205 
C 41.01121 88.119205 40.646646 88.270212 40.377889 88.538969 
C 40.109132 88.807726 39.958125 89.17229 39.958125 89.552369 
C 39.958125 89.932449 40.109132 90.297012 40.377889 90.565769 
C 40.646646 90.834526 41.01121 90.985533 41.391289 90.985533 
z
" clip-path="url(#pe0ab9980b9)" style="stroke: #000000"/>
    <path d="M 38.822987 80.105685 
C 39.242572 80.105685 39.645028 79.938982 39.941719 79.642291 
C 40.23841 79.3456 40.405113 78.943144 40.405113 78.523559 
C 40.405113 78.103974 40.23841 77.701518 39.941719 77.404827 
C 39.645028 77.108136 39.242572 76.941433 38.822987 76.941433 
C 38.403402 76.941433 38.000946 77.108136 37.704255 77.404827 
C 37.407564 77.701518 37.240861 78.103974 37.240861 78.523559 
C 37.240861 78.943144 37.407564 79.3456 37.704255 79.642291 
C 38.000946 79.938982 38.403402 80.105685 38.822987 80.105685 
z
" clip-path="url(#pe0ab9980b9)" style="stroke: #000000"/>
    <path d="M 57.014246 176.383106 
C 57.43383 176.383106 57.836286 176.216404 58.132978 175.919712 
C 58.429669 175.623021 58.596372 175.220565 58.596372 174.80098 
C 58.596372 174.381396 58.429669 173.978939 58.132978 173.682248 
C 57.836286 173.385557 57.43383 173.218854 57.014246 173.218854 
C 56.594661 173.218854 56.192205 173.385557 55.895513 173.682248 
C 55.598822 173.978939 55.432119 174.381396 55.432119 174.80098 
C 55.432119 175.220565 55.598822 175.623021 55.895513 175.919712 
C 56.192205 176.216404 56.594661 176.383106 57.014246 176.383106 
z
" clip-path="url(#pe0ab9980b9)" style="stroke: #000000"/>
    <path d="M 51.494084 170.608006 
C 51.913669 170.608006 52.316125 170.441303 52.612816 170.144612 
C 52.909507 169.84792 53.07621 169.445464 53.07621 169.025879 
C 53.07621 168.606295 52.909507 168.203839 52.612816 167.907147 
C 52.316125 167.610456 51.913669 167.443753 51.494084 167.443753 
C 51.074499 167.443753 50.672043 167.610456 50.375352 167.907147 
C 50.078661 168.203839 49.911958 168.606295 49.911958 169.025879 
C 49.911958 169.445464 50.078661 169.84792 50.375352 170.144612 
C 50.672043 170.441303 51.074499 170.608006 51.494084 170.608006 
z
" clip-path="url(#pe0ab9980b9)" style="stroke: #000000"/>
    <path d="M 50.513743 154.824126 
C 50.513743 154.824126 50.513743 154.824126 50.513743 154.824126 
C 50.513743 154.824126 50.513743 154.824126 50.513743 154.824126 
C 50.513743 154.824126 50.513743 154.824126 50.513743 154.824126 
C 50.513743 154.824126 50.513743 154.824126 50.513743 154.824126 
C 50.513743 154.824126 50.513743 154.824126 50.513743 154.824126 
C 50.513743 154.824126 50.513743 154.824126 50.513743 154.824126 
C 50.513743 154.824126 50.513743 154.824126 50.513743 154.824126 
C 50.513743 154.824126 50.513743 154.824126 50.513743 154.824126 
z
" clip-path="url(#pe0ab9980b9)" style="stroke: #000000"/>
    <path d="M 44.099955 148.188694 
C 44.51954 148.188694 44.921996 148.021991 45.218687 147.7253 
C 45.515379 147.428609 45.682081 147.026152 45.682081 146.606568 
C 45.682081 146.186983 45.515379 145.784527 45.218687 145.487836 
C 44.921996 145.191144 44.51954 145.024442 44.099955 145.024442 
C 43.680371 145.024442 43.277914 145.191144 42.981223 145.487836 
C 42.684532 145.784527 42.517829 146.186983 42.517829 146.606568 
C 42.517829 147.026152 42.684532 147.428609 42.981223 147.7253 
C 43.277914 148.021991 43.680371 148.188694 44.099955 148.188694 
z
" clip-path="url(#pe0ab9980b9)" style="stroke: #000000"/>
    <path d="M 41.021383 136.537898 
C 41.440968 136.537898 41.843424 136.371195 42.140115 136.074504 
C 42.436807 135.777813 42.603509 135.375357 42.603509 134.955772 
C 42.603509 134.536187 42.436807 134.133731 42.140115 133.83704 
C 41.843424 133.540348 41.440968 133.373646 41.021383 133.373646 
C 40.601799 133.373646 40.199342 133.540348 39.902651 133.83704 
C 39.60596 134.133731 39.439257 134.536187 39.439257 134.955772 
C 39.439257 135.375357 39.60596 135.777813 39.902651 136.074504 
C 40.199342 136.371195 40.601799 136.537898 41.021383 136.537898 
z
" clip-path="url(#pe0ab9980b9)" style="stroke: #000000"/>
    <path d="M 34.870417 124.957455 
C 35.290002 124.957455 35.692458 124.790752 35.989149 124.494061 
C 36.28584 124.19737 36.452543 123.794914 36.452543 123.375329 
C 36.452543 122.955744 36.28584 122.553288 35.989149 122.256597 
C 35.692458 121.959906 35.290002 121.793203 34.870417 121.793203 
C 34.450832 121.793203 34.048376 121.959906 33.751685 122.256597 
C 33.454994 122.553288 33.288291 122.955744 33.288291 123.375329 
C 33.288291 123.794914 33.454994 124.19737 33.751685 124.494061 
C 34.048376 124.790752 34.450832 124.957455 34.870417 124.957455 
z
" clip-path="url(#pe0ab9980b9)" style="stroke: #000000"/>
    <path d="M 34.406483 111.5795 
C 34.785857 111.5795 35.149743 111.428773 35.418001 111.160516 
C 35.686259 110.892258 35.836986 110.528371 35.836986 110.148997 
C 35.836986 109.769624 35.686259 109.405737 35.418001 109.137479 
C 35.149743 108.869221 34.785857 108.718495 34.406483 108.718495 
C 34.027109 108.718495 33.663222 108.869221 33.394965 109.137479 
C 33.126707 109.405737 32.97598 109.769624 32.97598 110.148997 
C 32.97598 110.528371 33.126707 110.892258 33.394965 111.160516 
C 33.663222 111.428773 34.027109 111.5795 34.406483 111.5795 
z
" clip-path="url(#pe0ab9980b9)" style="stroke: #000000"/>
    <path d="M 32.927932 104.04207 
C 33.347517 104.04207 33.749973 103.875367 34.046665 103.578676 
C 34.343356 103.281984 34.510059 102.879528 34.510059 102.459943 
C 34.510059 102.040359 34.343356 101.637903 34.046665 101.341211 
C 33.749973 101.04452 33.347517 100.877817 32.927932 100.877817 
C 32.508348 100.877817 32.105892 101.04452 31.8092 101.341211 
C 31.512509 101.637903 31.345806 102.040359 31.345806 102.459943 
C 31.345806 102.879528 31.512509 103.281984 31.8092 103.578676 
C 32.105892 103.875367 32.508348 104.04207 32.927932 104.04207 
z
" clip-path="url(#pe0ab9980b9)" style="stroke: #000000"/>
    <path d="M 40.050237 172.656349 
C 40.469822 172.656349 40.872278 172.489646 41.168969 172.192955 
C 41.46566 171.896263 41.632363 171.493807 41.632363 171.074223 
C 41.632363 170.654638 41.46566 170.252182 41.168969 169.95549 
C 40.872278 169.658799 40.469822 169.492096 40.050237 169.492096 
C 39.630652 169.492096 39.228196 169.658799 38.931505 169.95549 
C 38.634813 170.252182 38.468111 170.654638 38.468111 171.074223 
C 38.468111 171.493807 38.634813 171.896263 38.931505 172.192955 
C 39.228196 172.489646 39.630652 172.656349 40.050237 172.656349 
z
" clip-path="url(#pe0ab9980b9)" style="stroke: #000000"/>
    <path d="M 35.509437 159.119734 
C 35.929022 159.119734 36.331478 158.953031 36.628169 158.65634 
C 36.92486 158.359649 37.091563 157.957193 37.091563 157.537608 
C 37.091563 157.118023 36.92486 156.715567 36.628169 156.418876 
C 36.331478 156.122185 35.929022 155.955482 35.509437 155.955482 
C 35.089852 155.955482 34.687396 156.122185 34.390705 156.418876 
C 34.094014 156.715567 33.927311 157.118023 33.927311 157.537608 
C 33.927311 157.957193 34.094014 158.359649 34.390705 158.65634 
C 34.687396 158.953031 35.089852 159.119734 35.509437 159.119734 
z
" clip-path="url(#pe0ab9980b9)" style="stroke: #000000"/>
    <path d="M 30.455411 151.291359 
C 30.818958 151.291359 31.167665 151.14692 31.424731 150.889854 
C 31.681798 150.632787 31.826237 150.284081 31.826237 149.920534 
C 31.826237 149.556987 31.681798 149.208281 31.424731 148.951214 
C 31.167665 148.694147 30.818958 148.549709 30.455411 148.549709 
C 30.091864 148.549709 29.743158 148.694147 29.486091 148.951214 
C 29.229025 149.208281 29.084586 149.556987 29.084586 149.920534 
C 29.084586 150.284081 29.229025 150.632787 29.486091 150.889854 
C 29.743158 151.14692 30.091864 151.291359 30.455411 151.291359 
z
" clip-path="url(#pe0ab9980b9)" style="stroke: #000000"/>
    <path d="M 29.198211 138.791727 
C 29.617796 138.791727 30.020252 138.625024 30.316943 138.328333 
C 30.613634 138.031642 30.780337 137.629186 30.780337 137.209601 
C 30.780337 136.790016 30.613634 136.38756 30.316943 136.090869 
C 30.020252 135.794177 29.617796 135.627475 29.198211 135.627475 
C 28.778626 135.627475 28.37617 135.794177 28.079479 136.090869 
C 27.782788 136.38756 27.616085 136.790016 27.616085 137.209601 
C 27.616085 137.629186 27.782788 138.031642 28.079479 138.328333 
C 28.37617 138.625024 28.778626 138.791727 29.198211 138.791727 
z
" clip-path="url(#pe0ab9980b9)" style="stroke: #000000"/>
    <path d="M 28.040319 128.115393 
C 28.459904 128.115393 28.86236 127.94869 29.159052 127.651999 
C 29.455743 127.355308 29.622446 126.952852 29.622446 126.533267 
C 29.622446 126.113682 29.455743 125.711226 29.159052 125.414535 
C 28.86236 125.117843 28.459904 124.951141 28.040319 124.951141 
C 27.620735 124.951141 27.218279 125.117843 26.921587 125.414535 
C 26.624896 125.711226 26.458193 126.113682 26.458193 126.533267 
C 26.458193 126.952852 26.624896 127.355308 26.921587 127.651999 
C 27.218279 127.94869 27.620735 128.115393 28.040319 128.115393 
z
" clip-path="url(#pe0ab9980b9)" style="stroke: #000000"/>
   </g>
   <g id="matplotlib.axis_1">
    <g id="xtick_1">
     <g id="line2d_1">
      <defs>
       <path id="mdfd679b6b8" d="M 0 0 
L 0 3.5 
" style="stroke: #000000; stroke-width: 0.8"/>
      </defs>
      <g>
       <use xlink:href="#mdfd679b6b8" x="18" y="189" style="stroke: #000000; stroke-width: 0.8"/>
      </g>
     </g>
     <g id="text_1">
      <!-- 10 -->
      <g transform="translate(7.447656 203.598437)scale(0.1 -0.1)">
       <defs>
        <path id="DejaVuSans-2212" d="M 678 2272 
L 4684 2272 
L 4684 1741 
L 678 1741 
L 678 2272 
z
" transform="scale(0.015625)"/>
        <path id="DejaVuSans-31" d="M 794 531 
L 1825 531 
L 1825 4091 
L 703 3866 
L 703 4441 
L 1819 4666 
L 2450 4666 
L 2450 531 
L 3481 531 
L 3481 0 
L 794 0 
L 794 531 
z
" transform="scale(0.015625)"/>
        <path id="DejaVuSans-30" d="M 2034 4250 
Q 1547 4250 1301 3770 
Q 1056 3291 1056 2328 
Q 1056 1369 1301 889 
Q 1547 409 2034 409 
Q 2525 409 2770 889 
Q 3016 1369 3016 2328 
Q 3016 3291 2770 3770 
Q 2525 4250 2034 4250 
z
M 2034 4750 
Q 2819 4750 3233 4129 
Q 3647 3509 3647 2328 
Q 3647 1150 3233 529 
Q 2819 -91 2034 -91 
Q 1250 -91 836 529 
Q 422 1150 422 2328 
Q 422 3509 836 4129 
Q 1250 4750 2034 4750 
z
" transform="scale(0.015625)"/>
       </defs>
       <use xlink:href="#DejaVuSans-2212"/>
       <use xlink:href="#DejaVuSans-31" x="83.789062"/>
       <use xlink:href="#DejaVuSans-30" x="147.412109"/>
      </g>
     </g>
    </g>
    <g id="xtick_2">
     <g id="line2d_2">
      <g>
       <use xlink:href="#mdfd679b6b8" x="73.8" y="189" style="stroke: #000000; stroke-width: 0.8"/>
      </g>
     </g>
     <g id="text_2">
      <!-- 0 -->
      <g transform="translate(70.61875 203.598437)scale(0.1 -0.1)">
       <use xlink:href="#DejaVuSans-30"/>
      </g>
     </g>
    </g>
    <g id="xtick_3">
     <g id="line2d_3">
      <g>
       <use xlink:href="#mdfd679b6b8" x="129.6" y="189" style="stroke: #000000; stroke-width: 0.8"/>
      </g>
     </g>
     <g id="text_3">
      <!-- 10 -->
      <g transform="translate(123.2375 203.598437)scale(0.1 -0.1)">
       <use xlink:href="#DejaVuSans-31"/>
       <use xlink:href="#DejaVuSans-30" x="63.623047"/>
      </g>
     </g>
    </g>
   </g>
   <g id="matplotlib.axis_2">
    <g id="ytick_1">
     <g id="line2d_4">
      <defs>
       <path id="me1f8b6c1d7" d="M 0 0 
L -3.5 0 
" style="stroke: #000000; stroke-width: 0.8"/>
      </defs>
      <g>
       <use xlink:href="#me1f8b6c1d7" x="18" y="189" style="stroke: #000000; stroke-width: 0.8"/>
      </g>
     </g>
     <g id="text_4">
      <!-- 15 -->
      <g transform="translate(-10.104688 192.799219)scale(0.1 -0.1)">
       <defs>
        <path id="DejaVuSans-35" d="M 691 4666 
L 3169 4666 
L 3169 4134 
L 1269 4134 
L 1269 2991 
Q 1406 3038 1543 3061 
Q 1681 3084 1819 3084 
Q 2600 3084 3056 2656 
Q 3513 2228 3513 1497 
Q 3513 744 3044 326 
Q 2575 -91 1722 -91 
Q 1428 -91 1123 -41 
Q 819 9 494 109 
L 494 744 
Q 775 591 1075 516 
Q 1375 441 1709 441 
Q 2250 441 2565 725 
Q 2881 1009 2881 1497 
Q 2881 1984 2565 2268 
Q 2250 2553 1709 2553 
Q 1456 2553 1204 2497 
Q 953 2441 691 2322 
L 691 4666 
z
" transform="scale(0.015625)"/>
       </defs>
       <use xlink:href="#DejaVuSans-2212"/>
       <use xlink:href="#DejaVuSans-31" x="83.789062"/>
       <use xlink:href="#DejaVuSans-35" x="147.412109"/>
      </g>
     </g>
    </g>
    <g id="ytick_2">
     <g id="line2d_5">
      <g>
       <use xlink:href="#me1f8b6c1d7" x="18" y="161.82" style="stroke: #000000; stroke-width: 0.8"/>
      </g>
     </g>
     <g id="text_5">
      <!-- 10 -->
      <g transform="translate(-10.104688 165.619219)scale(0.1 -0.1)">
       <use xlink:href="#DejaVuSans-2212"/>
       <use xlink:href="#DejaVuSans-31" x="83.789062"/>
       <use xlink:href="#DejaVuSans-30" x="147.412109"/>
      </g>
     </g>
    </g>
    <g id="ytick_3">
     <g id="line2d_6">
      <g>
       <use xlink:href="#me1f8b6c1d7" x="18" y="134.64" style="stroke: #000000; stroke-width: 0.8"/>
      </g>
     </g>
     <g id="text_6">
      <!-- 5 -->
      <g transform="translate(-3.742188 138.439219)scale(0.1 -0.1)">
       <use xlink:href="#DejaVuSans-2212"/>
       <use xlink:href="#DejaVuSans-35" x="83.789062"/>
      </g>
     </g>
    </g>
    <g id="ytick_4">
     <g id="line2d_7">
      <g>
       <use xlink:href="#me1f8b6c1d7" x="18" y="107.46" style="stroke: #000000; stroke-width: 0.8"/>
      </g>
     </g>
     <g id="text_7">
      <!-- 0 -->
      <g transform="translate(4.6375 111.259219)scale(0.1 -0.1)">
       <use xlink:href="#DejaVuSans-30"/>
      </g>
     </g>
    </g>
    <g id="ytick_5">
     <g id="line2d_8">
      <g>
       <use xlink:href="#me1f8b6c1d7" x="18" y="80.28" style="stroke: #000000; stroke-width: 0.8"/>
      </g>
     </g>
     <g id="text_8">
      <!-- 5 -->
      <g transform="translate(4.6375 84.079219)scale(0.1 -0.1)">
       <use xlink:href="#DejaVuSans-35"/>
      </g>
     </g>
    </g>
    <g id="ytick_6">
     <g id="line2d_9">
      <g>
       <use xlink:href="#me1f8b6c1d7" x="18" y="53.1" style="stroke: #000000; stroke-width: 0.8"/>
      </g>
     </g>
     <g id="text_9">
      <!-- 10 -->
      <g transform="translate(-1.725 56.899219)scale(0.1 -0.1)">
       <use xlink:href="#DejaVuSans-31"/>
       <use xlink:href="#DejaVuSans-30" x="63.623047"/>
      </g>
     </g>
    </g>
    <g id="ytick_7">
     <g id="line2d_10">
      <g>
       <use xlink:href="#me1f8b6c1d7" x="18" y="25.92" style="stroke: #000000; stroke-width: 0.8"/>
      </g>
     </g>
     <g id="text_10">
      <!-- 15 -->
      <g transform="translate(-1.725 29.719219)scale(0.1 -0.1)">
       <use xlink:href="#DejaVuSans-31"/>
       <use xlink:href="#DejaVuSans-35" x="63.623047"/>
      </g>
     </g>
    </g>
   </g>
   <g id="patch_3">
    <path d="M 18 189 
L 18 25.92 
" style="fill: none; stroke: #000000; stroke-width: 0.8; stroke-linejoin: miter; stroke-linecap: square"/>
   </g>
   <g id="patch_4">
    <path d="M 129.6 189 
L 129.6 25.92 
" style="fill: none; stroke: #000000; stroke-width: 0.8; stroke-linejoin: miter; stroke-linecap: square"/>
   </g>
   <g id="patch_5">
    <path d="M 18 189 
L 129.6 189 
" style="fill: none; stroke: #000000; stroke-width: 0.8; stroke-linejoin: miter; stroke-linecap: square"/>
   </g>
   <g id="patch_6">
    <path d="M 18 25.92 
L 129.6 25.92 
" style="fill: none; stroke: #000000; stroke-width: 0.8; stroke-linejoin: miter; stroke-linecap: square"/>
   </g>
  </g>
 </g>
 <defs>
  <clipPath id="pe0ab9980b9">
   <rect x="18" y="25.92" width="111.6" height="163.08"/>
  </clipPath>
 </defs>
</svg>
