<?xml version="1.0" encoding="utf-8" standalone="no"?>
<!DOCTYPE svg PUBLIC "-//W3C//DTD SVG 1.1//EN"
  "http://www.w3.org/Graphics/SVG/1.1/DTD/svg11.dtd">
<svg xmlns:xlink="http://www.w3.org/1999/xlink" width="144pt" height="216pt" viewBox="0 0 144 216" xmlns="http://www.w3.org/2000/svg" version="1.1">
 <metadata>
  <rdf:RDF xmlns:dc="http://purl.org/dc/elements/1.1/" xmlns:cc="http://creativecommons.org/ns#" xmlns:rdf="http://www.w3.org/1999/02/22-rdf-syntax-ns#">
   <cc:Work>
    <dc:type rdf:resource="http://purl.org/dc/dcmitype/StillImage"/>
    <dc:date>2022-06-23T14:44:59.917935</dc:date>
    <dc:format>image/svg+xml</dc:format>
    <dc:creator>
     <cc:Agent>
      <dc:title>Matplotlib v3.5.1, https://matplotlib.org/</dc:title>
     </cc:Agent>
    </dc:creator>
   </cc:Work>
  </rdf:RDF>
 </metadata>
 <defs>
  <style type="text/css">*{stroke-linejoin: round; stroke-linecap: butt}</style>
 </defs>
 <g id="figure_1">
  <g id="patch_1">
   <path d="M 0 216 
L 144 216 
L 144 0 
L 0 0 
L 0 216 
z
" style="fill: none"/>
  </g>
  <g id="axes_1">
   <g id="patch_2">
    <path d="M 18 189 
L 129.6 189 
L 129.6 25.92 
L 18 25.92 
z
" style="fill: #ffffff"/>
   </g>
   <g id="PathCollection_1">
    <defs>
     <path id="m6f72c99361" d="M 0 2.738613 
C 0.726289 2.738613 1.422928 2.450055 1.936492 1.936492 
C 2.450055 1.422928 2.738613 0.726289 2.738613 0 
C 2.738613 -0.726289 2.450055 -1.422928 1.936492 -1.936492 
C 1.422928 -2.450055 0.726289 -2.738613 0 -2.738613 
C -0.726289 -2.738613 -1.422928 -2.450055 -1.936492 -1.936492 
C -2.450055 -1.422928 -2.738613 -0.726289 -2.738613 0 
C -2.738613 0.726289 -2.450055 1.422928 -1.936492 1.936492 
C -1.422928 2.450055 -0.726289 2.738613 0 2.738613 
z
" style="stroke: #ff0000; stroke-width: 1.75"/>
    </defs>
    <g clip-path="url(#pb8e156dd79)">
     <use xlink:href="#m6f72c99361" x="80.775" y="107.46" style="fill: #ff0000; stroke: #ff0000; stroke-width: 1.75"/>
     <use xlink:href="#m6f72c99361" x="94.725" y="107.46" style="fill: #ff0000; stroke: #ff0000; stroke-width: 1.75"/>
     <use xlink:href="#m6f72c99361" x="59.85" y="119.229285" style="fill: #ff0000; stroke: #ff0000; stroke-width: 1.75"/>
     <use xlink:href="#m6f72c99361" x="73.8" y="119.229285" style="fill: #ff0000; stroke: #ff0000; stroke-width: 1.75"/>
     <use xlink:href="#m6f72c99361" x="87.75" y="119.229285" style="fill: #ff0000; stroke: #ff0000; stroke-width: 1.75"/>
     <use xlink:href="#m6f72c99361" x="66.825" y="130.99857" style="fill: #ff0000; stroke: #ff0000; stroke-width: 1.75"/>
     <use xlink:href="#m6f72c99361" x="80.775" y="130.99857" style="fill: #ff0000; stroke: #ff0000; stroke-width: 1.75"/>
    </g>
   </g>
   <g id="PathCollection_2">
    <defs>
     <path id="C0_0_e706fe4766" d="M 0 2.738613 
C 0.726289 2.738613 1.422928 2.450055 1.936492 1.936492 
C 2.450055 1.422928 2.738613 0.726289 2.738613 -0 
C 2.738613 -0.726289 2.450055 -1.422928 1.936492 -1.936492 
C 1.422928 -2.450055 0.726289 -2.738613 0 -2.738613 
C -0.726289 -2.738613 -1.422928 -2.450055 -1.936492 -1.936492 
C -2.450055 -1.422928 -2.738613 -0.726289 -2.738613 0 
C -2.738613 0.726289 -2.450055 1.422928 -1.936492 1.936492 
C -1.422928 2.450055 -0.726289 2.738613 0 2.738613 
z
"/>
    </defs>
    <g clip-path="url(#pb8e156dd79)">
     <use xlink:href="#C0_0_e706fe4766" x="66.825" y="83.92143" style="fill: none; stroke: #ff0000; stroke-width: 1.75"/>
    </g>
    <g clip-path="url(#pb8e156dd79)">
     <use xlink:href="#C0_0_e706fe4766" x="80.775" y="83.92143" style="fill: none; stroke: #ff0000; stroke-width: 1.75"/>
    </g>
    <g clip-path="url(#pb8e156dd79)">
     <use xlink:href="#C0_0_e706fe4766" x="59.85" y="95.690715" style="fill: none; stroke: #ff0000; stroke-width: 1.75"/>
    </g>
    <g clip-path="url(#pb8e156dd79)">
     <use xlink:href="#C0_0_e706fe4766" x="73.8" y="95.690715" style="fill: none; stroke: #ff0000; stroke-width: 1.75"/>
    </g>
    <g clip-path="url(#pb8e156dd79)">
     <use xlink:href="#C0_0_e706fe4766" x="87.75" y="95.690715" style="fill: none; stroke: #ff0000; stroke-width: 1.75"/>
    </g>
    <g clip-path="url(#pb8e156dd79)">
     <use xlink:href="#C0_0_e706fe4766" x="52.875" y="107.46" style="fill: none; stroke: #ff0000; stroke-width: 1.75"/>
    </g>
    <g clip-path="url(#pb8e156dd79)">
     <use xlink:href="#C0_0_e706fe4766" x="66.825" y="107.46" style="fill: none; stroke: #ff0000; stroke-width: 1.75"/>
    </g>
   </g>
   <g id="PathCollection_3">
    <path d="M 122.217174 146.728067 
C 122.349776 146.728067 122.476964 146.675384 122.570727 146.581621 
C 122.664491 146.487857 122.717174 146.360669 122.717174 146.228067 
C 122.717174 146.095466 122.664491 145.968278 122.570727 145.874514 
C 122.476964 145.780751 122.349776 145.728067 122.217174 145.728067 
C 122.084572 145.728067 121.957384 145.780751 121.863621 145.874514 
C 121.769857 145.968278 121.717174 146.095466 121.717174 146.228067 
C 121.717174 146.360669 121.769857 146.487857 121.863621 146.581621 
C 121.957384 146.675384 122.084572 146.728067 122.217174 146.728067 
z
" clip-path="url(#pb8e156dd79)" style="stroke: #000000"/>
    <path d="M 112.855241 116.366561 
C 113.012932 116.366561 113.164185 116.30391 113.275689 116.192406 
C 113.387194 116.080901 113.449845 115.929648 113.449845 115.771957 
C 113.449845 115.614267 113.387194 115.463013 113.275689 115.351509 
C 113.164185 115.240005 113.012932 115.177354 112.855241 115.177354 
C 112.69755 115.177354 112.546297 115.240005 112.434793 115.351509 
C 112.323289 115.463013 112.260638 115.614267 112.260638 115.771957 
C 112.260638 115.929648 112.323289 116.080901 112.434793 116.192406 
C 112.546297 116.30391 112.69755 116.366561 112.855241 116.366561 
z
" clip-path="url(#pb8e156dd79)" style="stroke: #000000"/>
    <path d="M 105.822985 95.724602 
C 105.980676 95.724602 106.131929 95.661951 106.243434 95.550447 
C 106.354938 95.438943 106.417589 95.287689 106.417589 95.129999 
C 106.417589 94.972308 106.354938 94.821055 106.243434 94.70955 
C 106.131929 94.598046 105.980676 94.535395 105.822985 94.535395 
C 105.665295 94.535395 105.514041 94.598046 105.402537 94.70955 
C 105.291033 94.821055 105.228382 94.972308 105.228382 95.129999 
C 105.228382 95.287689 105.291033 95.438943 105.402537 95.550447 
C 105.514041 95.661951 105.665295 95.724602 105.822985 95.724602 
z
" clip-path="url(#pb8e156dd79)" style="stroke: #000000"/>
    <path d="M 120.709299 157.034038 
C 120.841901 157.034038 120.969089 156.981355 121.062853 156.887592 
C 121.156616 156.793828 121.209299 156.66664 121.209299 156.534038 
C 121.209299 156.401437 121.156616 156.274248 121.062853 156.180485 
C 120.969089 156.086722 120.841901 156.034038 120.709299 156.034038 
C 120.576698 156.034038 120.449509 156.086722 120.355746 156.180485 
C 120.261982 156.274248 120.209299 156.401437 120.209299 156.534038 
C 120.209299 156.66664 120.261982 156.793828 120.355746 156.887592 
C 120.449509 156.981355 120.576698 157.034038 120.709299 157.034038 
z
" clip-path="url(#pb8e156dd79)" style="stroke: #000000"/>
    <path d="M 105.286534 107.573126 
C 105.444224 107.573126 105.595478 107.510474 105.706982 107.39897 
C 105.818486 107.287466 105.881137 107.136213 105.881137 106.978522 
C 105.881137 106.820831 105.818486 106.669578 105.706982 106.558074 
C 105.595478 106.44657 105.444224 106.383918 105.286534 106.383918 
C 105.128843 106.383918 104.977589 106.44657 104.866085 106.558074 
C 104.754581 106.669578 104.69193 106.820831 104.69193 106.978522 
C 104.69193 107.136213 104.754581 107.287466 104.866085 107.39897 
C 104.977589 107.510474 105.128843 107.573126 105.286534 107.573126 
z
" clip-path="url(#pb8e156dd79)" style="stroke: #000000"/>
    <path d="M 97.571851 100.850562 
C 97.729542 100.850562 97.880795 100.787911 97.9923 100.676407 
C 98.103804 100.564902 98.166455 100.413649 98.166455 100.255958 
C 98.166455 100.098268 98.103804 99.947014 97.9923 99.83551 
C 97.880795 99.724006 97.729542 99.661355 97.571851 99.661355 
C 97.414161 99.661355 97.262907 99.724006 97.151403 99.83551 
C 97.039899 99.947014 96.977248 100.098268 96.977248 100.255958 
C 96.977248 100.413649 97.039899 100.564902 97.151403 100.676407 
C 97.262907 100.787911 97.414161 100.850562 97.571851 100.850562 
z
" clip-path="url(#pb8e156dd79)" style="stroke: #000000"/>
    <path d="M 106.213086 139.129329 
C 106.345687 139.129329 106.472876 139.076646 106.566639 138.982882 
C 106.660403 138.889119 106.713086 138.761931 106.713086 138.629329 
C 106.713086 138.496727 106.660403 138.369539 106.566639 138.275776 
C 106.472876 138.182012 106.345687 138.129329 106.213086 138.129329 
C 106.080484 138.129329 105.953296 138.182012 105.859532 138.275776 
C 105.765769 138.369539 105.713086 138.496727 105.713086 138.629329 
C 105.713086 138.761931 105.765769 138.889119 105.859532 138.982882 
C 105.953296 139.076646 106.080484 139.129329 106.213086 139.129329 
z
" clip-path="url(#pb8e156dd79)" style="stroke: #000000"/>
    <path d="M 103.749299 129.056782 
C 103.90699 129.056782 104.058243 128.994131 104.169747 128.882627 
C 104.281251 128.771123 104.343903 128.619869 104.343903 128.462179 
C 104.343903 128.304488 104.281251 128.153235 104.169747 128.041731 
C 104.058243 127.930226 103.90699 127.867575 103.749299 127.867575 
C 103.591608 127.867575 103.440355 127.930226 103.328851 128.041731 
C 103.217347 128.153235 103.154696 128.304488 103.154696 128.462179 
C 103.154696 128.619869 103.217347 128.771123 103.328851 128.882627 
C 103.440355 128.994131 103.591608 129.056782 103.749299 129.056782 
z
" clip-path="url(#pb8e156dd79)" style="stroke: #000000"/>
    <path d="M 97.161736 111.869501 
C 97.747192 111.869501 98.308748 111.636896 98.722728 111.222916 
C 99.136709 110.808936 99.369313 110.24738 99.369313 109.661923 
C 99.369313 109.076467 99.136709 108.514911 98.722728 108.100931 
C 98.308748 107.686951 97.747192 107.454346 97.161736 107.454346 
C 96.576279 107.454346 96.014723 107.686951 95.600743 108.100931 
C 95.186763 108.514911 94.954158 109.076467 94.954158 109.661923 
C 94.954158 110.24738 95.186763 110.808936 95.600743 111.222916 
C 96.014723 111.636896 96.576279 111.869501 97.161736 111.869501 
z
" clip-path="url(#pb8e156dd79)" style="stroke: #000000"/>
    <path d="M 94.105186 109.798184 
C 94.504213 109.798184 94.88695 109.639649 95.169105 109.357494 
C 95.451259 109.075339 95.609794 108.692602 95.609794 108.293575 
C 95.609794 107.894548 95.451259 107.511811 95.169105 107.229656 
C 94.88695 106.947502 94.504213 106.788967 94.105186 106.788967 
C 93.706159 106.788967 93.323422 106.947502 93.041267 107.229656 
C 92.759113 107.511811 92.600578 107.894548 92.600578 108.293575 
C 92.600578 108.692602 92.759113 109.075339 93.041267 109.357494 
C 93.323422 109.639649 93.706159 109.798184 94.105186 109.798184 
z
" clip-path="url(#pb8e156dd79)" style="stroke: #000000"/>
    <path d="M 90.081174 98.402638 
C 90.432005 98.402638 90.768514 98.263251 91.016589 98.015176 
C 91.264663 97.767102 91.40405 97.430593 91.40405 97.079762 
C 91.40405 96.728931 91.264663 96.392423 91.016589 96.144348 
C 90.768514 95.896273 90.432005 95.756886 90.081174 95.756886 
C 89.730344 95.756886 89.393835 95.896273 89.14576 96.144348 
C 88.897685 96.392423 88.758299 96.728931 88.758299 97.079762 
C 88.758299 97.430593 88.897685 97.767102 89.14576 98.015176 
C 89.393835 98.263251 89.730344 98.402638 90.081174 98.402638 
z
" clip-path="url(#pb8e156dd79)" style="stroke: #000000"/>
    <path d="M 85.660089 86.89576 
C 86.001605 86.89576 86.32918 86.760074 86.570669 86.518585 
C 86.812157 86.277096 86.947843 85.949521 86.947843 85.608005 
C 86.947843 85.266488 86.812157 84.938913 86.570669 84.697425 
C 86.32918 84.455936 86.001605 84.32025 85.660089 84.32025 
C 85.318572 84.32025 84.990997 84.455936 84.749508 84.697425 
C 84.50802 84.938913 84.372334 85.266488 84.372334 85.608005 
C 84.372334 85.949521 84.50802 86.277096 84.749508 86.518585 
C 84.990997 86.760074 85.318572 86.89576 85.660089 86.89576 
z
" clip-path="url(#pb8e156dd79)" style="stroke: #000000"/>
    <path d="M 83.319392 68.149735 
C 83.451993 68.149735 83.579182 68.097051 83.672945 68.003288 
C 83.766708 67.909525 83.819392 67.782336 83.819392 67.649735 
C 83.819392 67.517133 83.766708 67.389945 83.672945 67.296181 
C 83.579182 67.202418 83.451993 67.149735 83.319392 67.149735 
C 83.18679 67.149735 83.059602 67.202418 82.965838 67.296181 
C 82.872075 67.389945 82.819392 67.517133 82.819392 67.649735 
C 82.819392 67.782336 82.872075 67.909525 82.965838 68.003288 
C 83.059602 68.097051 83.18679 68.149735 83.319392 68.149735 
z
" clip-path="url(#pb8e156dd79)" style="stroke: #000000"/>
    <path d="M 92.390253 120.476759 
C 92.802037 120.476759 93.197011 120.313155 93.488186 120.02198 
C 93.779361 119.730805 93.942964 119.335831 93.942964 118.924047 
C 93.942964 118.512263 93.779361 118.11729 93.488186 117.826115 
C 93.197011 117.534939 92.802037 117.371336 92.390253 117.371336 
C 91.978469 117.371336 91.583495 117.534939 91.29232 117.826115 
C 91.001145 118.11729 90.837542 118.512263 90.837542 118.924047 
C 90.837542 119.335831 91.001145 119.730805 91.29232 120.02198 
C 91.583495 120.313155 91.978469 120.476759 92.390253 120.476759 
z
" clip-path="url(#pb8e156dd79)" style="stroke: #000000"/>
    <path d="M 93.592643 114.976995 
C 94.103909 114.976995 94.594303 114.773867 94.955823 114.412347 
C 95.317342 114.050828 95.52047 113.560433 95.52047 113.049168 
C 95.52047 112.537902 95.317342 112.047507 94.955823 111.685988 
C 94.594303 111.324469 94.103909 111.121341 93.592643 111.121341 
C 93.081377 111.121341 92.590983 111.324469 92.229463 111.685988 
C 91.867944 112.047507 91.664816 112.537902 91.664816 113.049168 
C 91.664816 113.560433 91.867944 114.050828 92.229463 114.412347 
C 92.590983 114.773867 93.081377 114.976995 93.592643 114.976995 
z
" clip-path="url(#pb8e156dd79)" style="stroke: #000000"/>
    <path d="M 88.559372 102.743728 
C 88.775059 102.743728 88.98194 102.658034 89.134454 102.505521 
C 89.286967 102.353008 89.37266 102.146126 89.37266 101.930439 
C 89.37266 101.714753 89.286967 101.507871 89.134454 101.355358 
C 88.98194 101.202844 88.775059 101.117151 88.559372 101.117151 
C 88.343685 101.117151 88.136804 101.202844 87.98429 101.355358 
C 87.831777 101.507871 87.746084 101.714753 87.746084 101.930439 
C 87.746084 102.146126 87.831777 102.353008 87.98429 102.505521 
C 88.136804 102.658034 88.343685 102.743728 88.559372 102.743728 
z
" clip-path="url(#pb8e156dd79)" style="stroke: #000000"/>
    <path d="M 83.9099 88.763461 
C 84.371619 88.763461 84.814489 88.580018 85.140974 88.253533 
C 85.467459 87.927048 85.650902 87.484178 85.650902 87.022459 
C 85.650902 86.560739 85.467459 86.117869 85.140974 85.791384 
C 84.814489 85.464899 84.371619 85.281456 83.9099 85.281456 
C 83.448181 85.281456 83.00531 85.464899 82.678825 85.791384 
C 82.35234 86.117869 82.168897 86.560739 82.168897 87.022459 
C 82.168897 87.484178 82.35234 87.927048 82.678825 88.253533 
C 83.00531 88.580018 83.448181 88.763461 83.9099 88.763461 
z
" clip-path="url(#pb8e156dd79)" style="stroke: #000000"/>
    <path d="M 80.249141 83.862899 
C 80.381743 83.862899 80.508931 83.810216 80.602695 83.716452 
C 80.696458 83.622689 80.749141 83.495501 80.749141 83.362899 
C 80.749141 83.230297 80.696458 83.103109 80.602695 83.009346 
C 80.508931 82.915582 80.381743 82.862899 80.249141 82.862899 
C 80.11654 82.862899 79.989352 82.915582 79.895588 83.009346 
C 79.801825 83.103109 79.749141 83.230297 79.749141 83.362899 
C 79.749141 83.495501 79.801825 83.622689 79.895588 83.716452 
C 79.989352 83.810216 80.11654 83.862899 80.249141 83.862899 
z
" clip-path="url(#pb8e156dd79)" style="stroke: #000000"/>
    <path d="M 92.669493 130.154995 
C 93.113757 130.154995 93.539885 129.978487 93.854027 129.664344 
C 94.16817 129.350202 94.344678 128.924074 94.344678 128.47981 
C 94.344678 128.035546 94.16817 127.609418 93.854027 127.295276 
C 93.539885 126.981134 93.113757 126.804626 92.669493 126.804626 
C 92.225229 126.804626 91.799101 126.981134 91.484959 127.295276 
C 91.170817 127.609418 90.994309 128.035546 90.994309 128.47981 
C 90.994309 128.924074 91.170817 129.350202 91.484959 129.664344 
C 91.799101 129.978487 92.225229 130.154995 92.669493 130.154995 
z
" clip-path="url(#pb8e156dd79)" style="stroke: #000000"/>
    <path d="M 88.539853 119.781254 
C 88.672454 119.781254 88.799643 119.728571 88.893406 119.634808 
C 88.98717 119.541044 89.039853 119.413856 89.039853 119.281254 
C 89.039853 119.148653 88.98717 119.021464 88.893406 118.927701 
C 88.799643 118.833937 88.672454 118.781254 88.539853 118.781254 
C 88.407251 118.781254 88.280063 118.833937 88.186299 118.927701 
C 88.092536 119.021464 88.039853 119.148653 88.039853 119.281254 
C 88.039853 119.413856 88.092536 119.541044 88.186299 119.634808 
C 88.280063 119.728571 88.407251 119.781254 88.539853 119.781254 
z
" clip-path="url(#pb8e156dd79)" style="stroke: #000000"/>
    <path d="M 88.272579 116.760415 
C 88.644668 116.760415 89.001567 116.612582 89.264674 116.349476 
C 89.52778 116.086369 89.675613 115.72947 89.675613 115.357382 
C 89.675613 114.985293 89.52778 114.628394 89.264674 114.365287 
C 89.001567 114.102181 88.644668 113.954348 88.272579 113.954348 
C 87.900491 113.954348 87.543592 114.102181 87.280485 114.365287 
C 87.017379 114.628394 86.869546 114.985293 86.869546 115.357382 
C 86.869546 115.72947 87.017379 116.086369 87.280485 116.349476 
C 87.543592 116.612582 87.900491 116.760415 88.272579 116.760415 
z
" clip-path="url(#pb8e156dd79)" style="stroke: #000000"/>
    <path d="M 83.880597 107.93263 
C 84.462556 107.93263 85.020757 107.701416 85.432264 107.289909 
C 85.843771 106.878402 86.074986 106.320201 86.074986 105.738242 
C 86.074986 105.156283 85.843771 104.598082 85.432264 104.186575 
C 85.020757 103.775068 84.462556 103.543854 83.880597 103.543854 
C 83.298639 103.543854 82.740437 103.775068 82.32893 104.186575 
C 81.917424 104.598082 81.686209 105.156283 81.686209 105.738242 
C 81.686209 106.320201 81.917424 106.878402 82.32893 107.289909 
C 82.740437 107.701416 83.298639 107.93263 83.880597 107.93263 
z
" clip-path="url(#pb8e156dd79)" style="stroke: #000000"/>
    <path d="M 79.383954 92.525616 
C 79.667813 92.525616 79.940085 92.412837 80.140804 92.212118 
C 80.341523 92.011399 80.454301 91.739127 80.454301 91.455268 
C 80.454301 91.171409 80.341523 90.899137 80.140804 90.698418 
C 79.940085 90.497699 79.667813 90.38492 79.383954 90.38492 
C 79.100094 90.38492 78.827823 90.497699 78.627104 90.698418 
C 78.426385 90.899137 78.313606 91.171409 78.313606 91.455268 
C 78.313606 91.739127 78.426385 92.011399 78.627104 92.212118 
C 78.827823 92.412837 79.100094 92.525616 79.383954 92.525616 
z
" clip-path="url(#pb8e156dd79)" style="stroke: #000000"/>
    <path d="M 76.074791 78.952088 
C 76.262318 78.952088 76.44219 78.877583 76.574791 78.744981 
C 76.707393 78.61238 76.781898 78.432508 76.781898 78.244981 
C 76.781898 78.057454 76.707393 77.877583 76.574791 77.744981 
C 76.44219 77.61238 76.262318 77.537874 76.074791 77.537874 
C 75.887265 77.537874 75.707393 77.61238 75.574791 77.744981 
C 75.44219 77.877583 75.367685 78.057454 75.367685 78.244981 
C 75.367685 78.432508 75.44219 78.61238 75.574791 78.744981 
C 75.707393 78.877583 75.887265 78.952088 76.074791 78.952088 
z
" clip-path="url(#pb8e156dd79)" style="stroke: #000000"/>
    <path d="M 90.34043 138.799267 
C 90.498121 138.799267 90.649374 138.736616 90.760878 138.625112 
C 90.872382 138.513608 90.935033 138.362354 90.935033 138.204664 
C 90.935033 138.046973 90.872382 137.89572 90.760878 137.784216 
C 90.649374 137.672711 90.498121 137.61006 90.34043 137.61006 
C 90.182739 137.61006 90.031486 137.672711 89.919982 137.784216 
C 89.808477 137.89572 89.745826 138.046973 89.745826 138.204664 
C 89.745826 138.362354 89.808477 138.513608 89.919982 138.625112 
C 90.031486 138.736616 90.182739 138.799267 90.34043 138.799267 
z
" clip-path="url(#pb8e156dd79)" style="stroke: #000000"/>
    <path d="M 86.16314 125.017704 
C 86.370673 125.017704 86.569734 124.93525 86.716481 124.788503 
C 86.863229 124.641755 86.945683 124.442694 86.945683 124.235162 
C 86.945683 124.027629 86.863229 123.828569 86.716481 123.681821 
C 86.569734 123.535073 86.370673 123.452619 86.16314 123.452619 
C 85.955608 123.452619 85.756547 123.535073 85.609799 123.681821 
C 85.463052 123.828569 85.380598 124.027629 85.380598 124.235162 
C 85.380598 124.442694 85.463052 124.641755 85.609799 124.788503 
C 85.756547 124.93525 85.955608 125.017704 86.16314 125.017704 
z
" clip-path="url(#pb8e156dd79)" style="stroke: #000000"/>
    <path d="M 85.970947 119.745361 
C 86.347457 119.745361 86.708597 119.595772 86.97483 119.329539 
C 87.241063 119.063306 87.390653 118.702166 87.390653 118.325655 
C 87.390653 117.949145 87.241063 117.588005 86.97483 117.321772 
C 86.708597 117.055539 86.347457 116.90595 85.970947 116.90595 
C 85.594436 116.90595 85.233296 117.055539 84.967063 117.321772 
C 84.70083 117.588005 84.551241 117.949145 84.551241 118.325655 
C 84.551241 118.702166 84.70083 119.063306 84.967063 119.329539 
C 85.233296 119.595772 85.594436 119.745361 85.970947 119.745361 
z
" clip-path="url(#pb8e156dd79)" style="stroke: #000000"/>
    <path d="M 83.676369 116.631745 
C 84.03911 116.631745 84.387042 116.487627 84.643538 116.231131 
C 84.900034 115.974635 85.044152 115.626703 85.044152 115.263963 
C 85.044152 114.901223 84.900034 114.553291 84.643538 114.296795 
C 84.387042 114.040299 84.03911 113.896181 83.676369 113.896181 
C 83.313629 113.896181 82.965697 114.040299 82.709201 114.296795 
C 82.452705 114.553291 82.308587 114.901223 82.308587 115.263963 
C 82.308587 115.626703 82.452705 115.974635 82.709201 116.231131 
C 82.965697 116.487627 83.313629 116.631745 83.676369 116.631745 
z
" clip-path="url(#pb8e156dd79)" style="stroke: #000000"/>
    <path d="M 82.058978 114.005444 
C 82.216669 114.005444 82.367922 113.942793 82.479427 113.831288 
C 82.590931 113.719784 82.653582 113.568531 82.653582 113.41084 
C 82.653582 113.25315 82.590931 113.101896 82.479427 112.990392 
C 82.367922 112.878888 82.216669 112.816237 82.058978 112.816237 
C 81.901288 112.816237 81.750034 112.878888 81.63853 112.990392 
C 81.527026 113.101896 81.464375 113.25315 81.464375 113.41084 
C 81.464375 113.568531 81.527026 113.719784 81.63853 113.831288 
C 81.750034 113.942793 81.901288 114.005444 82.058978 114.005444 
z
" clip-path="url(#pb8e156dd79)" style="stroke: #000000"/>
    <path d="M 80.210445 109.153313 
C 80.694107 109.153313 81.158024 108.961152 81.500025 108.619151 
C 81.842026 108.27715 82.034186 107.813233 82.034186 107.329571 
C 82.034186 106.845909 81.842026 106.381991 81.500025 106.039991 
C 81.158024 105.69799 80.694107 105.505829 80.210445 105.505829 
C 79.726783 105.505829 79.262865 105.69799 78.920865 106.039991 
C 78.578864 106.381991 78.386703 106.845909 78.386703 107.329571 
C 78.386703 107.813233 78.578864 108.27715 78.920865 108.619151 
C 79.262865 108.961152 79.726783 109.153313 80.210445 109.153313 
z
" clip-path="url(#pb8e156dd79)" style="stroke: #000000"/>
    <path d="M 75.139463 95.789083 
C 75.689938 95.789083 76.217941 95.570377 76.607186 95.181132 
C 76.99643 94.791887 77.215137 94.263884 77.215137 93.713409 
C 77.215137 93.162934 76.99643 92.634931 76.607186 92.245686 
C 76.217941 91.856441 75.689938 91.637735 75.139463 91.637735 
C 74.588988 91.637735 74.060984 91.856441 73.67174 92.245686 
C 73.282495 92.634931 73.063789 93.162934 73.063789 93.713409 
C 73.063789 94.263884 73.282495 94.791887 73.67174 95.181132 
C 74.060984 95.570377 74.588988 95.789083 75.139463 95.789083 
z
" clip-path="url(#pb8e156dd79)" style="stroke: #000000"/>
    <path d="M 72.723927 87.51762 
C 73.180861 87.51762 73.619141 87.336078 73.942242 87.012977 
C 74.265343 86.689876 74.446885 86.251595 74.446885 85.794662 
C 74.446885 85.337728 74.265343 84.899447 73.942242 84.576346 
C 73.619141 84.253245 73.180861 84.071703 72.723927 84.071703 
C 72.266993 84.071703 71.828712 84.253245 71.505611 84.576346 
C 71.18251 84.899447 71.000968 85.337728 71.000968 85.794662 
C 71.000968 86.251595 71.18251 86.689876 71.505611 87.012977 
C 71.828712 87.336078 72.266993 87.51762 72.723927 87.51762 
z
" clip-path="url(#pb8e156dd79)" style="stroke: #000000"/>
    <path d="M 100.08529 173.574519 
C 100.217891 173.574519 100.34508 173.521835 100.438843 173.428072 
C 100.532606 173.334309 100.58529 173.20712 100.58529 173.074519 
C 100.58529 172.941917 100.532606 172.814729 100.438843 172.720965 
C 100.34508 172.627202 100.217891 172.574519 100.08529 172.574519 
C 99.952688 172.574519 99.8255 172.627202 99.731736 172.720965 
C 99.637973 172.814729 99.58529 172.941917 99.58529 173.074519 
C 99.58529 173.20712 99.637973 173.334309 99.731736 173.428072 
C 99.8255 173.521835 99.952688 173.574519 100.08529 173.574519 
z
" clip-path="url(#pb8e156dd79)" style="stroke: #000000"/>
    <path d="M 84.045461 134.575239 
C 84.252994 134.575239 84.452054 134.492785 84.598802 134.346038 
C 84.74555 134.19929 84.828004 134.000229 84.828004 133.792697 
C 84.828004 133.585164 84.74555 133.386103 84.598802 133.239356 
C 84.452054 133.092608 84.252994 133.010154 84.045461 133.010154 
C 83.837929 133.010154 83.638868 133.092608 83.49212 133.239356 
C 83.345373 133.386103 83.262919 133.585164 83.262919 133.792697 
C 83.262919 134.000229 83.345373 134.19929 83.49212 134.346038 
C 83.638868 134.492785 83.837929 134.575239 84.045461 134.575239 
z
" clip-path="url(#pb8e156dd79)" style="stroke: #000000"/>
    <path d="M 83.563194 131.950342 
C 83.95079 131.950342 84.322564 131.796349 84.596636 131.522277 
C 84.870707 131.248205 85.024701 130.876432 85.024701 130.488836 
C 85.024701 130.10124 84.870707 129.729467 84.596636 129.455395 
C 84.322564 129.181323 83.95079 129.02733 83.563194 129.02733 
C 83.175598 129.02733 82.803825 129.181323 82.529753 129.455395 
C 82.255682 129.729467 82.101688 130.10124 82.101688 130.488836 
C 82.101688 130.876432 82.255682 131.248205 82.529753 131.522277 
C 82.803825 131.796349 83.175598 131.950342 83.563194 131.950342 
z
" clip-path="url(#pb8e156dd79)" style="stroke: #000000"/>
    <path d="M 79.517801 124.79025 
C 79.875582 124.79025 80.218758 124.648102 80.471747 124.395112 
C 80.724737 124.142123 80.866885 123.798947 80.866885 123.441166 
C 80.866885 123.083385 80.724737 122.740209 80.471747 122.48722 
C 80.218758 122.23423 79.875582 122.092082 79.517801 122.092082 
C 79.16002 122.092082 78.816844 122.23423 78.563854 122.48722 
C 78.310865 122.740209 78.168717 123.083385 78.168717 123.441166 
C 78.168717 123.798947 78.310865 124.142123 78.563854 124.395112 
C 78.816844 124.648102 79.16002 124.79025 79.517801 124.79025 
z
" clip-path="url(#pb8e156dd79)" style="stroke: #000000"/>
    <path d="M 76.202801 113.786618 
C 76.360491 113.786618 76.511745 113.723967 76.623249 113.612462 
C 76.734753 113.500958 76.797404 113.349705 76.797404 113.192014 
C 76.797404 113.034323 76.734753 112.88307 76.623249 112.771566 
C 76.511745 112.660062 76.360491 112.597411 76.202801 112.597411 
C 76.04511 112.597411 75.893857 112.660062 75.782352 112.771566 
C 75.670848 112.88307 75.608197 113.034323 75.608197 113.192014 
C 75.608197 113.349705 75.670848 113.500958 75.782352 113.612462 
C 75.893857 113.723967 76.04511 113.786618 76.202801 113.786618 
z
" clip-path="url(#pb8e156dd79)" style="stroke: #000000"/>
    <path d="M 75.045653 109.314723 
C 75.456325 109.314723 75.850233 109.151561 76.140622 108.861171 
C 76.431011 108.570782 76.594173 108.176875 76.594173 107.766202 
C 76.594173 107.35553 76.431011 106.961622 76.140622 106.671233 
C 75.850233 106.380844 75.456325 106.217682 75.045653 106.217682 
C 74.63498 106.217682 74.241072 106.380844 73.950683 106.671233 
C 73.660294 106.961622 73.497132 107.35553 73.497132 107.766202 
C 73.497132 108.176875 73.660294 108.570782 73.950683 108.861171 
C 74.241072 109.151561 74.63498 109.314723 75.045653 109.314723 
z
" clip-path="url(#pb8e156dd79)" style="stroke: #000000"/>
    <path d="M 74.634413 99.878036 
C 75.03465 99.878036 75.418549 99.71902 75.70156 99.436009 
C 75.984571 99.152998 76.143587 98.769099 76.143587 98.368861 
C 76.143587 97.968623 75.984571 97.584724 75.70156 97.301713 
C 75.418549 97.018702 75.03465 96.859686 74.634413 96.859686 
C 74.234175 96.859686 73.850276 97.018702 73.567265 97.301713 
C 73.284254 97.584724 73.125238 97.968623 73.125238 98.368861 
C 73.125238 98.769099 73.284254 99.152998 73.567265 99.436009 
C 73.850276 99.71902 74.234175 99.878036 74.634413 99.878036 
z
" clip-path="url(#pb8e156dd79)" style="stroke: #000000"/>
    <path d="M 72.099254 95.361477 
C 72.617323 95.361477 73.114243 95.155646 73.480573 94.789316 
C 73.846903 94.422986 74.052734 93.926066 74.052734 93.407997 
C 74.052734 92.889928 73.846903 92.393008 73.480573 92.026678 
C 73.114243 91.660348 72.617323 91.454517 72.099254 91.454517 
C 71.581185 91.454517 71.084265 91.660348 70.717935 92.026678 
C 70.351605 92.393008 70.145774 92.889928 70.145774 93.407997 
C 70.145774 93.926066 70.351605 94.422986 70.717935 94.789316 
C 71.084265 95.155646 71.581185 95.361477 72.099254 95.361477 
z
" clip-path="url(#pb8e156dd79)" style="stroke: #000000"/>
    <path d="M 67.590059 88.913174 
C 68.042887 88.913174 68.477229 88.733263 68.797427 88.413066 
C 69.117625 88.092868 69.297535 87.658525 69.297535 87.205697 
C 69.297535 86.752869 69.117625 86.318527 68.797427 85.998329 
C 68.477229 85.678131 68.042887 85.498221 67.590059 85.498221 
C 67.137231 85.498221 66.702888 85.678131 66.38269 85.998329 
C 66.062493 86.318527 65.882582 86.752869 65.882582 87.205697 
C 65.882582 87.658525 66.062493 88.092868 66.38269 88.413066 
C 66.702888 88.733263 67.137231 88.913174 67.590059 88.913174 
z
" clip-path="url(#pb8e156dd79)" style="stroke: #000000"/>
    <path d="M 65.948755 86.633622 
C 66.401583 86.633622 66.835925 86.453712 67.156123 86.133514 
C 67.476321 85.813316 67.656231 85.378974 67.656231 84.926146 
C 67.656231 84.473317 67.476321 84.038975 67.156123 83.718777 
C 66.835925 83.39858 66.401583 83.218669 65.948755 83.218669 
C 65.495927 83.218669 65.061584 83.39858 64.741386 83.718777 
C 64.421189 84.038975 64.241278 84.473317 64.241278 84.926146 
C 64.241278 85.378974 64.421189 85.813316 64.741386 86.133514 
C 65.061584 86.453712 65.495927 86.633622 65.948755 86.633622 
z
" clip-path="url(#pb8e156dd79)" style="stroke: #000000"/>
    <path d="M 63.066737 73.244229 
C 63.224427 73.244229 63.375681 73.181578 63.487185 73.070074 
C 63.598689 72.958569 63.66134 72.807316 63.66134 72.649625 
C 63.66134 72.491935 63.598689 72.340681 63.487185 72.229177 
C 63.375681 72.117673 63.224427 72.055022 63.066737 72.055022 
C 62.909046 72.055022 62.757793 72.117673 62.646288 72.229177 
C 62.534784 72.340681 62.472133 72.491935 62.472133 72.649625 
C 62.472133 72.807316 62.534784 72.958569 62.646288 73.070074 
C 62.757793 73.181578 62.909046 73.244229 63.066737 73.244229 
z
" clip-path="url(#pb8e156dd79)" style="stroke: #000000"/>
    <path d="M 80.700023 136.673495 
C 81.084937 136.673495 81.454137 136.520567 81.726312 136.248392 
C 81.998487 135.976217 82.151415 135.607017 82.151415 135.222103 
C 82.151415 134.83719 81.998487 134.467989 81.726312 134.195815 
C 81.454137 133.92364 81.084937 133.770712 80.700023 133.770712 
C 80.31511 133.770712 79.945909 133.92364 79.673734 134.195815 
C 79.401559 134.467989 79.248632 134.83719 79.248632 135.222103 
C 79.248632 135.607017 79.401559 135.976217 79.673734 136.248392 
C 79.945909 136.520567 80.31511 136.673495 80.700023 136.673495 
z
" clip-path="url(#pb8e156dd79)" style="stroke: #000000"/>
    <path d="M 80.414054 132.165887 
C 80.9429 132.165887 81.450156 131.955774 81.824106 131.581824 
C 82.198057 131.207874 82.408169 130.700617 82.408169 130.171772 
C 82.408169 129.642927 82.198057 129.13567 81.824106 128.76172 
C 81.450156 128.38777 80.9429 128.177657 80.414054 128.177657 
C 79.885209 128.177657 79.377953 128.38777 79.004002 128.76172 
C 78.630052 129.13567 78.41994 129.642927 78.41994 130.171772 
C 78.41994 130.700617 78.630052 131.207874 79.004002 131.581824 
C 79.377953 131.955774 79.885209 132.165887 80.414054 132.165887 
z
" clip-path="url(#pb8e156dd79)" style="stroke: #000000"/>
    <path d="M 77.202028 128.089682 
C 77.389555 128.089682 77.569426 128.015176 77.702028 127.882575 
C 77.834629 127.749973 77.909135 127.570102 77.909135 127.382575 
C 77.909135 127.195048 77.834629 127.015176 77.702028 126.882575 
C 77.569426 126.749973 77.389555 126.675468 77.202028 126.675468 
C 77.014501 126.675468 76.834629 126.749973 76.702028 126.882575 
C 76.569426 127.015176 76.494921 127.195048 76.494921 127.382575 
C 76.494921 127.570102 76.569426 127.749973 76.702028 127.882575 
C 76.834629 128.015176 77.014501 128.089682 77.202028 128.089682 
z
" clip-path="url(#pb8e156dd79)" style="stroke: #000000"/>
    <path d="M 76.501318 125.821368 
C 76.859099 125.821368 77.202275 125.67922 77.455264 125.42623 
C 77.708254 125.173241 77.850402 124.830065 77.850402 124.472284 
C 77.850402 124.114502 77.708254 123.771327 77.455264 123.518337 
C 77.202275 123.265348 76.859099 123.1232 76.501318 123.1232 
C 76.143537 123.1232 75.800361 123.265348 75.547371 123.518337 
C 75.294382 123.771327 75.152234 124.114502 75.152234 124.472284 
C 75.152234 124.830065 75.294382 125.173241 75.547371 125.42623 
C 75.800361 125.67922 76.143537 125.821368 76.501318 125.821368 
z
" clip-path="url(#pb8e156dd79)" style="stroke: #000000"/>
    <path d="M 72.392261 116.419585 
C 72.894622 116.419585 73.376474 116.219995 73.731697 115.864772 
C 74.086919 115.50955 74.286509 115.027697 74.286509 114.525337 
C 74.286509 114.022976 74.086919 113.541124 73.731697 113.185901 
C 73.376474 112.830679 72.894622 112.631089 72.392261 112.631089 
C 71.889901 112.631089 71.408048 112.830679 71.052826 113.185901 
C 70.697603 113.541124 70.498013 114.022976 70.498013 114.525337 
C 70.498013 115.027697 70.697603 115.50955 71.052826 115.864772 
C 71.408048 116.219995 71.889901 116.419585 72.392261 116.419585 
z
" clip-path="url(#pb8e156dd79)" style="stroke: #000000"/>
    <path d="M 68.575789 107.076702 
C 69.09162 107.076702 69.586394 106.87176 69.951141 106.507013 
C 70.315889 106.142265 70.520831 105.647492 70.520831 105.131661 
C 70.520831 104.61583 70.315889 104.121056 69.951141 103.756309 
C 69.586394 103.391561 69.09162 103.186619 68.575789 103.186619 
C 68.059958 103.186619 67.565185 103.391561 67.200437 103.756309 
C 66.83569 104.121056 66.630748 104.61583 66.630748 105.131661 
C 66.630748 105.647492 66.83569 106.142265 67.200437 106.507013 
C 67.565185 106.87176 68.059958 107.076702 68.575789 107.076702 
z
" clip-path="url(#pb8e156dd79)" style="stroke: #000000"/>
    <path d="M 82.683274 154.456063 
C 82.815876 154.456063 82.943064 154.40338 83.036828 154.309616 
C 83.130591 154.215853 83.183274 154.088665 83.183274 153.956063 
C 83.183274 153.823462 83.130591 153.696273 83.036828 153.60251 
C 82.943064 153.508746 82.815876 153.456063 82.683274 153.456063 
C 82.550673 153.456063 82.423485 153.508746 82.329721 153.60251 
C 82.235958 153.696273 82.183274 153.823462 82.183274 153.956063 
C 82.183274 154.088665 82.235958 154.215853 82.329721 154.309616 
C 82.423485 154.40338 82.550673 154.456063 82.683274 154.456063 
z
" clip-path="url(#pb8e156dd79)" style="stroke: #000000"/>
    <path d="M 74.031601 131.031571 
C 74.373118 131.031571 74.700693 130.895885 74.942181 130.654397 
C 75.18367 130.412908 75.319356 130.085333 75.319356 129.743816 
C 75.319356 129.4023 75.18367 129.074725 74.942181 128.833236 
C 74.700693 128.591748 74.373118 128.456062 74.031601 128.456062 
C 73.690084 128.456062 73.36251 128.591748 73.121021 128.833236 
C 72.879532 129.074725 72.743846 129.4023 72.743846 129.743816 
C 72.743846 130.085333 72.879532 130.412908 73.121021 130.654397 
C 73.36251 130.895885 73.690084 131.031571 74.031601 131.031571 
z
" clip-path="url(#pb8e156dd79)" style="stroke: #000000"/>
    <path d="M 71.476046 125.633486 
C 71.833827 125.633486 72.177003 125.491338 72.429992 125.238349 
C 72.682982 124.985359 72.82513 124.642184 72.82513 124.284402 
C 72.82513 123.926621 72.682982 123.583446 72.429992 123.330456 
C 72.177003 123.077466 71.833827 122.935318 71.476046 122.935318 
C 71.118264 122.935318 70.775089 123.077466 70.522099 123.330456 
C 70.26911 123.583446 70.126962 123.926621 70.126962 124.284402 
C 70.126962 124.642184 70.26911 124.985359 70.522099 125.238349 
C 70.775089 125.491338 71.118264 125.633486 71.476046 125.633486 
z
" clip-path="url(#pb8e156dd79)" style="stroke: #000000"/>
    <path d="M 66.401929 111.803319 
C 66.704195 111.803319 66.994122 111.683228 67.207856 111.469493 
C 67.421591 111.255759 67.541683 110.965832 67.541683 110.663566 
C 67.541683 110.3613 67.421591 110.071373 67.207856 109.857638 
C 66.994122 109.643904 66.704195 109.523812 66.401929 109.523812 
C 66.099663 109.523812 65.809736 109.643904 65.596002 109.857638 
C 65.382267 110.071373 65.262175 110.3613 65.262175 110.663566 
C 65.262175 110.965832 65.382267 111.255759 65.596002 111.469493 
C 65.809736 111.683228 66.099663 111.803319 66.401929 111.803319 
z
" clip-path="url(#pb8e156dd79)" style="stroke: #000000"/>
    <path d="M 64.90069 108.49314 
C 65.177535 108.49314 65.443078 108.383148 65.638838 108.187389 
C 65.834597 107.99163 65.944588 107.726086 65.944588 107.449241 
C 65.944588 107.172396 65.834597 106.906852 65.638838 106.711093 
C 65.443078 106.515334 65.177535 106.405342 64.90069 106.405342 
C 64.623844 106.405342 64.358301 106.515334 64.162542 106.711093 
C 63.966783 106.906852 63.856791 107.172396 63.856791 107.449241 
C 63.856791 107.726086 63.966783 107.99163 64.162542 108.187389 
C 64.358301 108.383148 64.623844 108.49314 64.90069 108.49314 
z
" clip-path="url(#pb8e156dd79)" style="stroke: #000000"/>
    <path d="M 63.333423 104.244863 
C 63.824431 104.244863 64.295394 104.049783 64.642588 103.702589 
C 64.989783 103.355394 65.184862 102.884431 65.184862 102.393424 
C 65.184862 101.902416 64.989783 101.431453 64.642588 101.084258 
C 64.295394 100.737064 63.824431 100.541984 63.333423 100.541984 
C 62.842416 100.541984 62.371453 100.737064 62.024258 101.084258 
C 61.677063 101.431453 61.481984 101.902416 61.481984 102.393424 
C 61.481984 102.884431 61.677063 103.355394 62.024258 103.702589 
C 62.371453 104.049783 62.842416 104.244863 63.333423 104.244863 
z
" clip-path="url(#pb8e156dd79)" style="stroke: #000000"/>
    <path d="M 62.330576 99.919521 
C 62.566379 99.919521 62.792556 99.825836 62.959293 99.659098 
C 63.126031 99.49236 63.219716 99.266184 63.219716 99.030381 
C 63.219716 98.794579 63.126031 98.568402 62.959293 98.401665 
C 62.792556 98.234927 62.566379 98.141242 62.330576 98.141242 
C 62.094774 98.141242 61.868597 98.234927 61.70186 98.401665 
C 61.535122 98.568402 61.441437 98.794579 61.441437 99.030381 
C 61.441437 99.266184 61.535122 99.49236 61.70186 99.659098 
C 61.868597 99.825836 62.094774 99.919521 62.330576 99.919521 
z
" clip-path="url(#pb8e156dd79)" style="stroke: #000000"/>
    <path d="M 58.488419 85.440876 
C 58.695952 85.440876 58.895012 85.358423 59.04176 85.211675 
C 59.188508 85.064927 59.270961 84.865867 59.270961 84.658334 
C 59.270961 84.450801 59.188508 84.251741 59.04176 84.104993 
C 58.895012 83.958245 58.695952 83.875792 58.488419 83.875792 
C 58.280886 83.875792 58.081826 83.958245 57.935078 84.104993 
C 57.78833 84.251741 57.705877 84.450801 57.705877 84.658334 
C 57.705877 84.865867 57.78833 85.064927 57.935078 85.211675 
C 58.081826 85.358423 58.280886 85.440876 58.488419 85.440876 
z
" clip-path="url(#pb8e156dd79)" style="stroke: #000000"/>
    <path d="M 69.539105 139.226023 
C 69.762113 139.226023 69.976017 139.137421 70.133708 138.97973 
C 70.291399 138.822039 70.380001 138.608135 70.380001 138.385126 
C 70.380001 138.162118 70.291399 137.948214 70.133708 137.790523 
C 69.976017 137.632832 69.762113 137.54423 69.539105 137.54423 
C 69.316096 137.54423 69.102192 137.632832 68.944501 137.790523 
C 68.78681 137.948214 68.698208 138.162118 68.698208 138.385126 
C 68.698208 138.608135 68.78681 138.822039 68.944501 138.97973 
C 69.102192 139.137421 69.316096 139.226023 69.539105 139.226023 
z
" clip-path="url(#pb8e156dd79)" style="stroke: #000000"/>
    <path d="M 67.749584 132.042995 
C 68.010543 132.042995 68.260848 131.939315 68.445374 131.75479 
C 68.629899 131.570264 68.733579 131.319959 68.733579 131.059 
C 68.733579 130.798042 68.629899 130.547736 68.445374 130.363211 
C 68.260848 130.178685 68.010543 130.075005 67.749584 130.075005 
C 67.488626 130.075005 67.23832 130.178685 67.053795 130.363211 
C 66.869269 130.547736 66.765589 130.798042 66.765589 131.059 
C 66.765589 131.319959 66.869269 131.570264 67.053795 131.75479 
C 67.23832 131.939315 67.488626 132.042995 67.749584 132.042995 
z
" clip-path="url(#pb8e156dd79)" style="stroke: #000000"/>
    <path d="M 67.515141 127.784504 
C 67.890194 127.784504 68.249938 127.635494 68.515141 127.370291 
C 68.780344 127.105088 68.929354 126.745345 68.929354 126.370291 
C 68.929354 125.995237 68.780344 125.635494 68.515141 125.370291 
C 68.249938 125.105088 67.890194 124.956077 67.515141 124.956077 
C 67.140087 124.956077 66.780344 125.105088 66.515141 125.370291 
C 66.249938 125.635494 66.100927 125.995237 66.100927 126.370291 
C 66.100927 126.745345 66.249938 127.105088 66.515141 127.370291 
C 66.780344 127.635494 67.140087 127.784504 67.515141 127.784504 
z
" clip-path="url(#pb8e156dd79)" style="stroke: #000000"/>
    <path d="M 61.286663 109.539222 
C 61.419265 109.539222 61.546453 109.486538 61.640217 109.392775 
C 61.73398 109.299012 61.786663 109.171823 61.786663 109.039222 
C 61.786663 108.90662 61.73398 108.779432 61.640217 108.685668 
C 61.546453 108.591905 61.419265 108.539222 61.286663 108.539222 
C 61.154062 108.539222 61.026873 108.591905 60.93311 108.685668 
C 60.839346 108.779432 60.786663 108.90662 60.786663 109.039222 
C 60.786663 109.171823 60.839346 109.299012 60.93311 109.392775 
C 61.026873 109.486538 61.154062 109.539222 61.286663 109.539222 
z
" clip-path="url(#pb8e156dd79)" style="stroke: #000000"/>
    <path d="M 61.000198 105.56235 
C 61.477591 105.56235 61.935495 105.37268 62.273063 105.035112 
C 62.61063 104.697544 62.800301 104.23964 62.800301 103.762247 
C 62.800301 103.284854 62.61063 102.82695 62.273063 102.489382 
C 61.935495 102.151814 61.477591 101.962144 61.000198 101.962144 
C 60.522805 101.962144 60.064901 102.151814 59.727333 102.489382 
C 59.389765 102.82695 59.200095 103.284854 59.200095 103.762247 
C 59.200095 104.23964 59.389765 104.697544 59.727333 105.035112 
C 60.064901 105.37268 60.522805 105.56235 61.000198 105.56235 
z
" clip-path="url(#pb8e156dd79)" style="stroke: #000000"/>
    <path d="M 55.150225 96.369895 
C 55.282827 96.369895 55.410015 96.317212 55.503779 96.223448 
C 55.597542 96.129685 55.650225 96.002496 55.650225 95.869895 
C 55.650225 95.737293 55.597542 95.610105 55.503779 95.516341 
C 55.410015 95.422578 55.282827 95.369895 55.150225 95.369895 
C 55.017624 95.369895 54.890435 95.422578 54.796672 95.516341 
C 54.702908 95.610105 54.650225 95.737293 54.650225 95.869895 
C 54.650225 96.002496 54.702908 96.129685 54.796672 96.223448 
C 54.890435 96.317212 55.017624 96.369895 55.150225 96.369895 
z
" clip-path="url(#pb8e156dd79)" style="stroke: #000000"/>
    <path d="M 69.081747 150.183286 
C 69.214349 150.183286 69.341537 150.130603 69.435301 150.036839 
C 69.529064 149.943076 69.581747 149.815888 69.581747 149.683286 
C 69.581747 149.550684 69.529064 149.423496 69.435301 149.329733 
C 69.341537 149.235969 69.214349 149.183286 69.081747 149.183286 
C 68.949146 149.183286 68.821957 149.235969 68.728194 149.329733 
C 68.63443 149.423496 68.581747 149.550684 68.581747 149.683286 
C 68.581747 149.815888 68.63443 149.943076 68.728194 150.036839 
C 68.821957 150.130603 68.949146 150.183286 69.081747 150.183286 
z
" clip-path="url(#pb8e156dd79)" style="stroke: #000000"/>
    <path d="M 62.60315 130.955477 
C 63.136637 130.955477 63.648345 130.74352 64.025578 130.366288 
C 64.40281 129.989056 64.614767 129.477347 64.614767 128.94386 
C 64.614767 128.410373 64.40281 127.898664 64.025578 127.521432 
C 63.648345 127.144199 63.136637 126.932243 62.60315 126.932243 
C 62.069663 126.932243 61.557954 127.144199 61.180722 127.521432 
C 60.803489 127.898664 60.591532 128.410373 60.591532 128.94386 
C 60.591532 129.477347 60.803489 129.989056 61.180722 130.366288 
C 61.557954 130.74352 62.069663 130.955477 62.60315 130.955477 
z
" clip-path="url(#pb8e156dd79)" style="stroke: #000000"/>
    <path d="M 59.564859 125.102201 
C 60.151084 125.102201 60.713377 124.869291 61.127901 124.454768 
C 61.542425 124.040244 61.775335 123.47795 61.775335 122.891725 
C 61.775335 122.3055 61.542425 121.743206 61.127901 121.328682 
C 60.713377 120.914158 60.151084 120.681249 59.564859 120.681249 
C 58.978633 120.681249 58.41634 120.914158 58.001816 121.328682 
C 57.587292 121.743206 57.354382 122.3055 57.354382 122.891725 
C 57.354382 123.47795 57.587292 124.040244 58.001816 124.454768 
C 58.41634 124.869291 58.978633 125.102201 59.564859 125.102201 
z
" clip-path="url(#pb8e156dd79)" style="stroke: #000000"/>
    <path d="M 58.528714 120.383855 
C 58.910888 120.383855 59.27746 120.232016 59.547698 119.961778 
C 59.817935 119.691541 59.969774 119.324968 59.969774 118.942795 
C 59.969774 118.560621 59.817935 118.194048 59.547698 117.923811 
C 59.27746 117.653573 58.910888 117.501734 58.528714 117.501734 
C 58.14654 117.501734 57.779968 117.653573 57.50973 117.923811 
C 57.239492 118.194048 57.087653 118.560621 57.087653 118.942795 
C 57.087653 119.324968 57.239492 119.691541 57.50973 119.961778 
C 57.779968 120.232016 58.14654 120.383855 58.528714 120.383855 
z
" clip-path="url(#pb8e156dd79)" style="stroke: #000000"/>
    <path d="M 52.92418 107.480146 
C 53.413217 107.480146 53.88229 107.28585 54.228091 106.940049 
C 54.573893 106.594248 54.768189 106.125175 54.768189 105.636138 
C 54.768189 105.147101 54.573893 104.678028 54.228091 104.332227 
C 53.88229 103.986426 53.413217 103.792129 52.92418 103.792129 
C 52.435144 103.792129 51.966071 103.986426 51.620269 104.332227 
C 51.274468 104.678028 51.080172 105.147101 51.080172 105.636138 
C 51.080172 106.125175 51.274468 106.594248 51.620269 106.940049 
C 51.966071 107.28585 52.435144 107.480146 52.92418 107.480146 
z
" clip-path="url(#pb8e156dd79)" style="stroke: #000000"/>
    <path d="M 71.738399 173.060582 
C 71.871 173.060582 71.998189 173.007899 72.091952 172.914135 
C 72.185716 172.820372 72.238399 172.693183 72.238399 172.560582 
C 72.238399 172.42798 72.185716 172.300792 72.091952 172.207028 
C 71.998189 172.113265 71.871 172.060582 71.738399 172.060582 
C 71.605797 172.060582 71.478609 172.113265 71.384845 172.207028 
C 71.291082 172.300792 71.238399 172.42798 71.238399 172.560582 
C 71.238399 172.693183 71.291082 172.820372 71.384845 172.914135 
C 71.478609 173.007899 71.605797 173.060582 71.738399 173.060582 
z
" clip-path="url(#pb8e156dd79)" style="stroke: #000000"/>
    <path d="M 58.547719 135.911447 
C 58.927093 135.911447 59.29098 135.76072 59.559238 135.492463 
C 59.827495 135.224205 59.978222 134.860318 59.978222 134.480944 
C 59.978222 134.101571 59.827495 133.737684 59.559238 133.469426 
C 59.29098 133.201168 58.927093 133.050442 58.547719 133.050442 
C 58.168346 133.050442 57.804459 133.201168 57.536201 133.469426 
C 57.267943 133.737684 57.117217 134.101571 57.117217 134.480944 
C 57.117217 134.860318 57.267943 135.224205 57.536201 135.492463 
C 57.804459 135.76072 58.168346 135.911447 58.547719 135.911447 
z
" clip-path="url(#pb8e156dd79)" style="stroke: #000000"/>
    <path d="M 56.274566 120.09838 
C 56.432257 120.09838 56.58351 120.035729 56.695014 119.924225 
C 56.806518 119.81272 56.86917 119.661467 56.86917 119.503776 
C 56.86917 119.346086 56.806518 119.194832 56.695014 119.083328 
C 56.58351 118.971824 56.432257 118.909173 56.274566 118.909173 
C 56.116875 118.909173 55.965622 118.971824 55.854118 119.083328 
C 55.742614 119.194832 55.679963 119.346086 55.679963 119.503776 
C 55.679963 119.661467 55.742614 119.81272 55.854118 119.924225 
C 55.965622 120.035729 56.116875 120.09838 56.274566 120.09838 
z
" clip-path="url(#pb8e156dd79)" style="stroke: #000000"/>
    <path d="M 50.988768 110.194365 
C 51.299102 110.194365 51.596767 110.071068 51.816206 109.851629 
C 52.035645 109.63219 52.158942 109.334525 52.158942 109.024191 
C 52.158942 108.713857 52.035645 108.416192 51.816206 108.196753 
C 51.596767 107.977314 51.299102 107.854017 50.988768 107.854017 
C 50.678434 107.854017 50.380769 107.977314 50.16133 108.196753 
C 49.941891 108.416192 49.818594 108.713857 49.818594 109.024191 
C 49.818594 109.334525 49.941891 109.63219 50.16133 109.851629 
C 50.380769 110.071068 50.678434 110.194365 50.988768 110.194365 
z
" clip-path="url(#pb8e156dd79)" style="stroke: #000000"/>
    <path d="M 47.507663 102.819676 
C 47.665353 102.819676 47.816607 102.757024 47.928111 102.64552 
C 48.039615 102.534016 48.102266 102.382763 48.102266 102.225072 
C 48.102266 102.067381 48.039615 101.916128 47.928111 101.804624 
C 47.816607 101.69312 47.665353 101.630468 47.507663 101.630468 
C 47.349972 101.630468 47.198718 101.69312 47.087214 101.804624 
C 46.97571 101.916128 46.913059 102.067381 46.913059 102.225072 
C 46.913059 102.382763 46.97571 102.534016 47.087214 102.64552 
C 47.198718 102.757024 47.349972 102.819676 47.507663 102.819676 
z
" clip-path="url(#pb8e156dd79)" style="stroke: #000000"/>
    <path d="M 54.369587 130.579538 
C 54.567872 130.579538 54.758063 130.500759 54.898272 130.36055 
C 55.038481 130.220341 55.117261 130.03015 55.117261 129.831864 
C 55.117261 129.633579 55.038481 129.443388 54.898272 129.303178 
C 54.758063 129.162969 54.567872 129.08419 54.369587 129.08419 
C 54.171301 129.08419 53.98111 129.162969 53.840901 129.303178 
C 53.700692 129.443388 53.621912 129.633579 53.621912 129.831864 
C 53.621912 130.03015 53.700692 130.220341 53.840901 130.36055 
C 53.98111 130.500759 54.171301 130.579538 54.369587 130.579538 
z
" clip-path="url(#pb8e156dd79)" style="stroke: #000000"/>
    <path d="M 48.47409 133.034629 
C 48.631781 133.034629 48.783034 132.971978 48.894538 132.860474 
C 49.006042 132.74897 49.068694 132.597717 49.068694 132.440026 
C 49.068694 132.282335 49.006042 132.131082 48.894538 132.019578 
C 48.783034 131.908073 48.631781 131.845422 48.47409 131.845422 
C 48.316399 131.845422 48.165146 131.908073 48.053642 132.019578 
C 47.942138 132.131082 47.879487 132.282335 47.879487 132.440026 
C 47.879487 132.597717 47.942138 132.74897 48.053642 132.860474 
C 48.165146 132.971978 48.316399 133.034629 48.47409 133.034629 
z
" clip-path="url(#pb8e156dd79)" style="stroke: #000000"/>
    <path d="M 45.376035 138.398366 
C 45.508637 138.398366 45.635825 138.345682 45.729589 138.251919 
C 45.823352 138.158155 45.876035 138.030967 45.876035 137.898366 
C 45.876035 137.765764 45.823352 137.638576 45.729589 137.544812 
C 45.635825 137.451049 45.508637 137.398366 45.376035 137.398366 
C 45.243434 137.398366 45.116245 137.451049 45.022482 137.544812 
C 44.928719 137.638576 44.876035 137.765764 44.876035 137.898366 
C 44.876035 138.030967 44.928719 138.158155 45.022482 138.251919 
C 45.116245 138.345682 45.243434 138.398366 45.376035 138.398366 
z
" clip-path="url(#pb8e156dd79)" style="stroke: #000000"/>
    <path d="M 31.954519 134.325678 
C 32.087121 134.325678 32.214309 134.272995 32.308072 134.179231 
C 32.401836 134.085468 32.454519 133.958279 32.454519 133.825678 
C 32.454519 133.693076 32.401836 133.565888 32.308072 133.472124 
C 32.214309 133.378361 32.087121 133.325678 31.954519 133.325678 
C 31.821917 133.325678 31.694729 133.378361 31.600966 133.472124 
C 31.507202 133.565888 31.454519 133.693076 31.454519 133.825678 
C 31.454519 133.958279 31.507202 134.085468 31.600966 134.179231 
C 31.694729 134.272995 31.821917 134.325678 31.954519 134.325678 
z
" clip-path="url(#pb8e156dd79)" style="stroke: #000000"/>
    <path d="M 30.259097 147.219038 
C 30.391699 147.219038 30.518887 147.166355 30.61265 147.072591 
C 30.706414 146.978828 30.759097 146.851639 30.759097 146.719038 
C 30.759097 146.586436 30.706414 146.459248 30.61265 146.365484 
C 30.518887 146.271721 30.391699 146.219038 30.259097 146.219038 
C 30.126495 146.219038 29.999307 146.271721 29.905544 146.365484 
C 29.81178 146.459248 29.759097 146.586436 29.759097 146.719038 
C 29.759097 146.851639 29.81178 146.978828 29.905544 147.072591 
C 29.999307 147.166355 30.126495 147.219038 30.259097 147.219038 
z
" clip-path="url(#pb8e156dd79)" style="stroke: #000000"/>
   </g>
   <g id="matplotlib.axis_1">
    <g id="xtick_1">
     <g id="line2d_1">
      <defs>
       <path id="mca2bb19f29" d="M 0 0 
L 0 3.5 
" style="stroke: #000000; stroke-width: 0.8"/>
      </defs>
      <g>
       <use xlink:href="#mca2bb19f29" x="18" y="189" style="stroke: #000000; stroke-width: 0.8"/>
      </g>
     </g>
     <g id="text_1">
      <!-- 10 -->
      <g transform="translate(7.447656 203.598437)scale(0.1 -0.1)">
       <defs>
        <path id="DejaVuSans-2212" d="M 678 2272 
L 4684 2272 
L 4684 1741 
L 678 1741 
L 678 2272 
z
" transform="scale(0.015625)"/>
        <path id="DejaVuSans-31" d="M 794 531 
L 1825 531 
L 1825 4091 
L 703 3866 
L 703 4441 
L 1819 4666 
L 2450 4666 
L 2450 531 
L 3481 531 
L 3481 0 
L 794 0 
L 794 531 
z
" transform="scale(0.015625)"/>
        <path id="DejaVuSans-30" d="M 2034 4250 
Q 1547 4250 1301 3770 
Q 1056 3291 1056 2328 
Q 1056 1369 1301 889 
Q 1547 409 2034 409 
Q 2525 409 2770 889 
Q 3016 1369 3016 2328 
Q 3016 3291 2770 3770 
Q 2525 4250 2034 4250 
z
M 2034 4750 
Q 2819 4750 3233 4129 
Q 3647 3509 3647 2328 
Q 3647 1150 3233 529 
Q 2819 -91 2034 -91 
Q 1250 -91 836 529 
Q 422 1150 422 2328 
Q 422 3509 836 4129 
Q 1250 4750 2034 4750 
z
" transform="scale(0.015625)"/>
       </defs>
       <use xlink:href="#DejaVuSans-2212"/>
       <use xlink:href="#DejaVuSans-31" x="83.789062"/>
       <use xlink:href="#DejaVuSans-30" x="147.412109"/>
      </g>
     </g>
    </g>
    <g id="xtick_2">
     <g id="line2d_2">
      <g>
       <use xlink:href="#mca2bb19f29" x="73.8" y="189" style="stroke: #000000; stroke-width: 0.8"/>
      </g>
     </g>
     <g id="text_2">
      <!-- 0 -->
      <g transform="translate(70.61875 203.598437)scale(0.1 -0.1)">
       <use xlink:href="#DejaVuSans-30"/>
      </g>
     </g>
    </g>
    <g id="xtick_3">
     <g id="line2d_3">
      <g>
       <use xlink:href="#mca2bb19f29" x="129.6" y="189" style="stroke: #000000; stroke-width: 0.8"/>
      </g>
     </g>
     <g id="text_3">
      <!-- 10 -->
      <g transform="translate(123.2375 203.598437)scale(0.1 -0.1)">
       <use xlink:href="#DejaVuSans-31"/>
       <use xlink:href="#DejaVuSans-30" x="63.623047"/>
      </g>
     </g>
    </g>
   </g>
   <g id="matplotlib.axis_2">
    <g id="ytick_1">
     <g id="line2d_4">
      <defs>
       <path id="m5ee535d253" d="M 0 0 
L -3.5 0 
" style="stroke: #000000; stroke-width: 0.8"/>
      </defs>
      <g>
       <use xlink:href="#m5ee535d253" x="18" y="189" style="stroke: #000000; stroke-width: 0.8"/>
      </g>
     </g>
     <g id="text_4">
      <!-- 15 -->
      <g transform="translate(-10.104688 192.799219)scale(0.1 -0.1)">
       <defs>
        <path id="DejaVuSans-35" d="M 691 4666 
L 3169 4666 
L 3169 4134 
L 1269 4134 
L 1269 2991 
Q 1406 3038 1543 3061 
Q 1681 3084 1819 3084 
Q 2600 3084 3056 2656 
Q 3513 2228 3513 1497 
Q 3513 744 3044 326 
Q 2575 -91 1722 -91 
Q 1428 -91 1123 -41 
Q 819 9 494 109 
L 494 744 
Q 775 591 1075 516 
Q 1375 441 1709 441 
Q 2250 441 2565 725 
Q 2881 1009 2881 1497 
Q 2881 1984 2565 2268 
Q 2250 2553 1709 2553 
Q 1456 2553 1204 2497 
Q 953 2441 691 2322 
L 691 4666 
z
" transform="scale(0.015625)"/>
       </defs>
       <use xlink:href="#DejaVuSans-2212"/>
       <use xlink:href="#DejaVuSans-31" x="83.789062"/>
       <use xlink:href="#DejaVuSans-35" x="147.412109"/>
      </g>
     </g>
    </g>
    <g id="ytick_2">
     <g id="line2d_5">
      <g>
       <use xlink:href="#m5ee535d253" x="18" y="161.82" style="stroke: #000000; stroke-width: 0.8"/>
      </g>
     </g>
     <g id="text_5">
      <!-- 10 -->
      <g transform="translate(-10.104688 165.619219)scale(0.1 -0.1)">
       <use xlink:href="#DejaVuSans-2212"/>
       <use xlink:href="#DejaVuSans-31" x="83.789062"/>
       <use xlink:href="#DejaVuSans-30" x="147.412109"/>
      </g>
     </g>
    </g>
    <g id="ytick_3">
     <g id="line2d_6">
      <g>
       <use xlink:href="#m5ee535d253" x="18" y="134.64" style="stroke: #000000; stroke-width: 0.8"/>
      </g>
     </g>
     <g id="text_6">
      <!-- 5 -->
      <g transform="translate(-3.742188 138.439219)scale(0.1 -0.1)">
       <use xlink:href="#DejaVuSans-2212"/>
       <use xlink:href="#DejaVuSans-35" x="83.789062"/>
      </g>
     </g>
    </g>
    <g id="ytick_4">
     <g id="line2d_7">
      <g>
       <use xlink:href="#m5ee535d253" x="18" y="107.46" style="stroke: #000000; stroke-width: 0.8"/>
      </g>
     </g>
     <g id="text_7">
      <!-- 0 -->
      <g transform="translate(4.6375 111.259219)scale(0.1 -0.1)">
       <use xlink:href="#DejaVuSans-30"/>
      </g>
     </g>
    </g>
    <g id="ytick_5">
     <g id="line2d_8">
      <g>
       <use xlink:href="#m5ee535d253" x="18" y="80.28" style="stroke: #000000; stroke-width: 0.8"/>
      </g>
     </g>
     <g id="text_8">
      <!-- 5 -->
      <g transform="translate(4.6375 84.079219)scale(0.1 -0.1)">
       <use xlink:href="#DejaVuSans-35"/>
      </g>
     </g>
    </g>
    <g id="ytick_6">
     <g id="line2d_9">
      <g>
       <use xlink:href="#m5ee535d253" x="18" y="53.1" style="stroke: #000000; stroke-width: 0.8"/>
      </g>
     </g>
     <g id="text_9">
      <!-- 10 -->
      <g transform="translate(-1.725 56.899219)scale(0.1 -0.1)">
       <use xlink:href="#DejaVuSans-31"/>
       <use xlink:href="#DejaVuSans-30" x="63.623047"/>
      </g>
     </g>
    </g>
    <g id="ytick_7">
     <g id="line2d_10">
      <g>
       <use xlink:href="#m5ee535d253" x="18" y="25.92" style="stroke: #000000; stroke-width: 0.8"/>
      </g>
     </g>
     <g id="text_10">
      <!-- 15 -->
      <g transform="translate(-1.725 29.719219)scale(0.1 -0.1)">
       <use xlink:href="#DejaVuSans-31"/>
       <use xlink:href="#DejaVuSans-35" x="63.623047"/>
      </g>
     </g>
    </g>
   </g>
   <g id="patch_3">
    <path d="M 18 189 
L 18 25.92 
" style="fill: none; stroke: #000000; stroke-width: 0.8; stroke-linejoin: miter; stroke-linecap: square"/>
   </g>
   <g id="patch_4">
    <path d="M 129.6 189 
L 129.6 25.92 
" style="fill: none; stroke: #000000; stroke-width: 0.8; stroke-linejoin: miter; stroke-linecap: square"/>
   </g>
   <g id="patch_5">
    <path d="M 18 189 
L 129.6 189 
" style="fill: none; stroke: #000000; stroke-width: 0.8; stroke-linejoin: miter; stroke-linecap: square"/>
   </g>
   <g id="patch_6">
    <path d="M 18 25.92 
L 129.6 25.92 
" style="fill: none; stroke: #000000; stroke-width: 0.8; stroke-linejoin: miter; stroke-linecap: square"/>
   </g>
  </g>
 </g>
 <defs>
  <clipPath id="pb8e156dd79">
   <rect x="18" y="25.92" width="111.6" height="163.08"/>
  </clipPath>
 </defs>
</svg>
