<?xml version="1.0" encoding="utf-8" standalone="no"?>
<!DOCTYPE svg PUBLIC "-//W3C//DTD SVG 1.1//EN"
  "http://www.w3.org/Graphics/SVG/1.1/DTD/svg11.dtd">
<svg xmlns:xlink="http://www.w3.org/1999/xlink" width="144pt" height="216pt" viewBox="0 0 144 216" xmlns="http://www.w3.org/2000/svg" version="1.1">
 <metadata>
  <rdf:RDF xmlns:dc="http://purl.org/dc/elements/1.1/" xmlns:cc="http://creativecommons.org/ns#" xmlns:rdf="http://www.w3.org/1999/02/22-rdf-syntax-ns#">
   <cc:Work>
    <dc:type rdf:resource="http://purl.org/dc/dcmitype/StillImage"/>
    <dc:date>2022-06-28T09:18:25.320397</dc:date>
    <dc:format>image/svg+xml</dc:format>
    <dc:creator>
     <cc:Agent>
      <dc:title>Matplotlib v3.5.1, https://matplotlib.org/</dc:title>
     </cc:Agent>
    </dc:creator>
   </cc:Work>
  </rdf:RDF>
 </metadata>
 <defs>
  <style type="text/css">*{stroke-linejoin: round; stroke-linecap: butt}</style>
 </defs>
 <g id="figure_1">
  <g id="patch_1">
   <path d="M 0 216 
L 144 216 
L 144 0 
L 0 0 
L 0 216 
z
" style="fill: none"/>
  </g>
  <g id="axes_1">
   <g id="patch_2">
    <path d="M 18 189 
L 129.6 189 
L 129.6 25.92 
L 18 25.92 
z
" style="fill: #ffffff"/>
   </g>
   <g id="PathCollection_1">
    <defs>
     <path id="m6faf940380" d="M 0 2.738613 
C 0.726289 2.738613 1.422928 2.450055 1.936492 1.936492 
C 2.450055 1.422928 2.738613 0.726289 2.738613 0 
C 2.738613 -0.726289 2.450055 -1.422928 1.936492 -1.936492 
C 1.422928 -2.450055 0.726289 -2.738613 0 -2.738613 
C -0.726289 -2.738613 -1.422928 -2.450055 -1.936492 -1.936492 
C -2.450055 -1.422928 -2.738613 -0.726289 -2.738613 0 
C -2.738613 0.726289 -2.450055 1.422928 -1.936492 1.936492 
C -1.422928 2.450055 -0.726289 2.738613 0 2.738613 
z
" style="stroke: #ff0000; stroke-width: 1.75"/>
    </defs>
    <g clip-path="url(#p9a3af72ff4)">
     <use xlink:href="#m6faf940380" x="80.775" y="107.46" style="fill: #ff0000; stroke: #ff0000; stroke-width: 1.75"/>
     <use xlink:href="#m6faf940380" x="94.725" y="107.46" style="fill: #ff0000; stroke: #ff0000; stroke-width: 1.75"/>
     <use xlink:href="#m6faf940380" x="59.85" y="119.229285" style="fill: #ff0000; stroke: #ff0000; stroke-width: 1.75"/>
     <use xlink:href="#m6faf940380" x="73.8" y="119.229285" style="fill: #ff0000; stroke: #ff0000; stroke-width: 1.75"/>
     <use xlink:href="#m6faf940380" x="87.75" y="119.229285" style="fill: #ff0000; stroke: #ff0000; stroke-width: 1.75"/>
     <use xlink:href="#m6faf940380" x="66.825" y="130.99857" style="fill: #ff0000; stroke: #ff0000; stroke-width: 1.75"/>
     <use xlink:href="#m6faf940380" x="80.775" y="130.99857" style="fill: #ff0000; stroke: #ff0000; stroke-width: 1.75"/>
    </g>
   </g>
   <g id="PathCollection_2">
    <defs>
     <path id="C0_0_0affa9732e" d="M 0 2.738613 
C 0.726289 2.738613 1.422928 2.450055 1.936492 1.936492 
C 2.450055 1.422928 2.738613 0.726289 2.738613 -0 
C 2.738613 -0.726289 2.450055 -1.422928 1.936492 -1.936492 
C 1.422928 -2.450055 0.726289 -2.738613 0 -2.738613 
C -0.726289 -2.738613 -1.422928 -2.450055 -1.936492 -1.936492 
C -2.450055 -1.422928 -2.738613 -0.726289 -2.738613 0 
C -2.738613 0.726289 -2.450055 1.422928 -1.936492 1.936492 
C -1.422928 2.450055 -0.726289 2.738613 0 2.738613 
z
"/>
    </defs>
    <g clip-path="url(#p9a3af72ff4)">
     <use xlink:href="#C0_0_0affa9732e" x="66.825" y="83.92143" style="fill: none; stroke: #ff0000; stroke-width: 1.75"/>
    </g>
    <g clip-path="url(#p9a3af72ff4)">
     <use xlink:href="#C0_0_0affa9732e" x="80.775" y="83.92143" style="fill: none; stroke: #ff0000; stroke-width: 1.75"/>
    </g>
    <g clip-path="url(#p9a3af72ff4)">
     <use xlink:href="#C0_0_0affa9732e" x="59.85" y="95.690715" style="fill: none; stroke: #ff0000; stroke-width: 1.75"/>
    </g>
    <g clip-path="url(#p9a3af72ff4)">
     <use xlink:href="#C0_0_0affa9732e" x="73.8" y="95.690715" style="fill: none; stroke: #ff0000; stroke-width: 1.75"/>
    </g>
    <g clip-path="url(#p9a3af72ff4)">
     <use xlink:href="#C0_0_0affa9732e" x="87.75" y="95.690715" style="fill: none; stroke: #ff0000; stroke-width: 1.75"/>
    </g>
    <g clip-path="url(#p9a3af72ff4)">
     <use xlink:href="#C0_0_0affa9732e" x="52.875" y="107.46" style="fill: none; stroke: #ff0000; stroke-width: 1.75"/>
    </g>
    <g clip-path="url(#p9a3af72ff4)">
     <use xlink:href="#C0_0_0affa9732e" x="66.825" y="107.46" style="fill: none; stroke: #ff0000; stroke-width: 1.75"/>
    </g>
   </g>
   <g id="PathCollection_3">
    <path d="M 121.947298 141.003903 
C 122.564379 141.003903 123.156268 140.758734 123.59261 140.322393 
C 124.028952 139.886051 124.27412 139.294161 124.27412 138.677081 
C 124.27412 138.06 124.028952 137.468111 123.59261 137.031769 
C 123.156268 136.595427 122.564379 136.350258 121.947298 136.350258 
C 121.330218 136.350258 120.738328 136.595427 120.301986 137.031769 
C 119.865644 137.468111 119.620476 138.06 119.620476 138.677081 
C 119.620476 139.294161 119.865644 139.886051 120.301986 140.322393 
C 120.738328 140.758734 121.330218 141.003903 121.947298 141.003903 
z
" clip-path="url(#p9a3af72ff4)" style="stroke: #000000"/>
    <path d="M 118.723259 132.49937 
C 119.426703 132.49937 120.101431 132.219888 120.598842 131.722478 
C 121.096252 131.225067 121.375734 130.550339 121.375734 129.846895 
C 121.375734 129.14345 121.096252 128.468722 120.598842 127.971311 
C 120.101431 127.473901 119.426703 127.19442 118.723259 127.19442 
C 118.019814 127.19442 117.345086 127.473901 116.847676 127.971311 
C 116.350265 128.468722 116.070784 129.14345 116.070784 129.846895 
C 116.070784 130.550339 116.350265 131.225067 116.847676 131.722478 
C 117.345086 132.219888 118.019814 132.49937 118.723259 132.49937 
z
" clip-path="url(#p9a3af72ff4)" style="stroke: #000000"/>
    <path d="M 115.84993 122.795195 
C 116.555364 122.795195 117.232001 122.514923 117.730818 122.016106 
C 118.229636 121.517288 118.509908 120.840651 118.509908 120.135217 
C 118.509908 119.429782 118.229636 118.753146 117.730818 118.254328 
C 117.232001 117.75551 116.555364 117.475238 115.84993 117.475238 
C 115.144495 117.475238 114.467858 117.75551 113.969041 118.254328 
C 113.470223 118.753146 113.189951 119.429782 113.189951 120.135217 
C 113.189951 120.840651 113.470223 121.517288 113.969041 122.016106 
C 114.467858 122.514923 115.144495 122.795195 115.84993 122.795195 
z
" clip-path="url(#p9a3af72ff4)" style="stroke: #000000"/>
    <path d="M 107.952073 102.790135 
C 108.657508 102.790135 109.334145 102.509863 109.832962 102.011046 
C 110.33178 101.512228 110.612052 100.835591 110.612052 100.130157 
C 110.612052 99.424722 110.33178 98.748085 109.832962 98.249268 
C 109.334145 97.75045 108.657508 97.470178 107.952073 97.470178 
C 107.246639 97.470178 106.570002 97.75045 106.071185 98.249268 
C 105.572367 98.748085 105.292095 99.424722 105.292095 100.130157 
C 105.292095 100.835591 105.572367 101.512228 106.071185 102.011046 
C 106.570002 102.509863 107.246639 102.790135 107.952073 102.790135 
z
" clip-path="url(#p9a3af72ff4)" style="stroke: #000000"/>
    <path d="M 107.126588 87.613502 
C 107.628949 87.613502 108.110801 87.413912 108.466024 87.05869 
C 108.821246 86.703467 109.020836 86.221615 109.020836 85.719254 
C 109.020836 85.216894 108.821246 84.735041 108.466024 84.379819 
C 108.110801 84.024596 107.628949 83.825006 107.126588 83.825006 
C 106.624228 83.825006 106.142375 84.024596 105.787153 84.379819 
C 105.43193 84.735041 105.23234 85.216894 105.23234 85.719254 
C 105.23234 86.221615 105.43193 86.703467 105.787153 87.05869 
C 106.142375 87.413912 106.624228 87.613502 107.126588 87.613502 
z
" clip-path="url(#p9a3af72ff4)" style="stroke: #000000"/>
    <path d="M 103.573128 80.336443 
C 103.962045 80.336443 104.335085 80.181925 104.61009 79.906919 
C 104.885096 79.631914 105.039614 79.258874 105.039614 78.869957 
C 105.039614 78.48104 104.885096 78.108 104.61009 77.832995 
C 104.335085 77.557989 103.962045 77.403471 103.573128 77.403471 
C 103.184211 77.403471 102.811171 77.557989 102.536166 77.832995 
C 102.26116 78.108 102.106642 78.48104 102.106642 78.869957 
C 102.106642 79.258874 102.26116 79.631914 102.536166 79.906919 
C 102.811171 80.181925 103.184211 80.336443 103.573128 80.336443 
z
" clip-path="url(#p9a3af72ff4)" style="stroke: #000000"/>
    <path d="M 97.25114 68.416407 
C 97.956354 68.416407 98.63278 68.136222 99.131441 67.63756 
C 99.630103 67.138898 99.910288 66.462473 99.910288 65.757259 
C 99.910288 65.052044 99.630103 64.375619 99.131441 63.876957 
C 98.63278 63.378295 97.956354 63.098111 97.25114 63.098111 
C 96.545926 63.098111 95.8695 63.378295 95.370838 63.876957 
C 94.872177 64.375619 94.591992 65.052044 94.591992 65.757259 
C 94.591992 66.462473 94.872177 67.138898 95.370838 67.63756 
C 95.8695 68.136222 96.545926 68.416407 97.25114 68.416407 
z
" clip-path="url(#p9a3af72ff4)" style="stroke: #000000"/>
    <path d="M 112.495478 148.900573 
C 113.200692 148.900573 113.877117 148.620388 114.375779 148.121726 
C 114.874441 147.623065 115.154625 146.946639 115.154625 146.241425 
C 115.154625 145.53621 114.874441 144.859785 114.375779 144.361123 
C 113.877117 143.862461 113.200692 143.582277 112.495478 143.582277 
C 111.790263 143.582277 111.113838 143.862461 110.615176 144.361123 
C 110.116514 144.859785 109.83633 145.53621 109.83633 146.241425 
C 109.83633 146.946639 110.116514 147.623065 110.615176 148.121726 
C 111.113838 148.620388 111.790263 148.900573 112.495478 148.900573 
z
" clip-path="url(#p9a3af72ff4)" style="stroke: #000000"/>
    <path d="M 109.184666 137.198315 
C 109.8901 137.198315 110.566737 136.918043 111.065555 136.419225 
C 111.564372 135.920408 111.844644 135.243771 111.844644 134.538336 
C 111.844644 133.832902 111.564372 133.156265 111.065555 132.657447 
C 110.566737 132.15863 109.8901 131.878358 109.184666 131.878358 
C 108.479231 131.878358 107.802594 132.15863 107.303777 132.657447 
C 106.804959 133.156265 106.524687 133.832902 106.524687 134.538336 
C 106.524687 135.243771 106.804959 135.920408 107.303777 136.419225 
C 107.802594 136.918043 108.479231 137.198315 109.184666 137.198315 
z
" clip-path="url(#p9a3af72ff4)" style="stroke: #000000"/>
    <path d="M 102.090386 126.248866 
C 102.795821 126.248866 103.472458 125.968594 103.971275 125.469777 
C 104.470093 124.970959 104.750365 124.294322 104.750365 123.588888 
C 104.750365 122.883453 104.470093 122.206816 103.971275 121.707999 
C 103.472458 121.209181 102.795821 120.928909 102.090386 120.928909 
C 101.384952 120.928909 100.708315 121.209181 100.209497 121.707999 
C 99.71068 122.206816 99.430408 122.883453 99.430408 123.588888 
C 99.430408 124.294322 99.71068 124.970959 100.209497 125.469777 
C 100.708315 125.968594 101.384952 126.248866 102.090386 126.248866 
z
" clip-path="url(#p9a3af72ff4)" style="stroke: #000000"/>
    <path d="M 103.722771 115.445701 
C 104.428206 115.445701 105.104843 115.165429 105.60366 114.666611 
C 106.102478 114.167794 106.38275 113.491157 106.38275 112.785722 
C 106.38275 112.080288 106.102478 111.403651 105.60366 110.904834 
C 105.104843 110.406016 104.428206 110.125744 103.722771 110.125744 
C 103.017337 110.125744 102.3407 110.406016 101.841882 110.904834 
C 101.343065 111.403651 101.062793 112.080288 101.062793 112.785722 
C 101.062793 113.491157 101.343065 114.167794 101.841882 114.666611 
C 102.3407 115.165429 103.017337 115.445701 103.722771 115.445701 
z
" clip-path="url(#p9a3af72ff4)" style="stroke: #000000"/>
    <path d="M 99.527136 104.774242 
C 100.232571 104.774242 100.909208 104.49397 101.408025 103.995153 
C 101.906843 103.496335 102.187115 102.819698 102.187115 102.114264 
C 102.187115 101.408829 101.906843 100.732192 101.408025 100.233375 
C 100.909208 99.734557 100.232571 99.454285 99.527136 99.454285 
C 98.821702 99.454285 98.145065 99.734557 97.646247 100.233375 
C 97.14743 100.732192 96.867158 101.408829 96.867158 102.114264 
C 96.867158 102.819698 97.14743 103.496335 97.646247 103.995153 
C 98.145065 104.49397 98.821702 104.774242 99.527136 104.774242 
z
" clip-path="url(#p9a3af72ff4)" style="stroke: #000000"/>
    <path d="M 96.292599 92.938813 
C 96.997813 92.938813 97.674239 92.658628 98.1729 92.159966 
C 98.671562 91.661305 98.951747 90.984879 98.951747 90.279665 
C 98.951747 89.574451 98.671562 88.898025 98.1729 88.399363 
C 97.674239 87.900702 96.997813 87.620517 96.292599 87.620517 
C 95.587385 87.620517 94.910959 87.900702 94.412297 88.399363 
C 93.913636 88.898025 93.633451 89.574451 93.633451 90.279665 
C 93.633451 90.984879 93.913636 91.661305 94.412297 92.159966 
C 94.910959 92.658628 95.587385 92.938813 96.292599 92.938813 
z
" clip-path="url(#p9a3af72ff4)" style="stroke: #000000"/>
    <path d="M 94.431541 86.496339 
C 95.136756 86.496339 95.813181 86.216155 96.311843 85.717493 
C 96.810505 85.218831 97.090689 84.542406 97.090689 83.837192 
C 97.090689 83.131977 96.810505 82.455552 96.311843 81.95689 
C 95.813181 81.458228 95.136756 81.178044 94.431541 81.178044 
C 93.726327 81.178044 93.049902 81.458228 92.55124 81.95689 
C 92.052578 82.455552 91.772394 83.131977 91.772394 83.837192 
C 91.772394 84.542406 92.052578 85.218831 92.55124 85.717493 
C 93.049902 86.216155 93.726327 86.496339 94.431541 86.496339 
z
" clip-path="url(#p9a3af72ff4)" style="stroke: #000000"/>
    <path d="M 89.337784 76.268894 
C 90.042998 76.268894 90.719424 75.988709 91.218086 75.490048 
C 91.716748 74.991386 91.996932 74.31496 91.996932 73.609746 
C 91.996932 72.904532 91.716748 72.228106 91.218086 71.729445 
C 90.719424 71.230783 90.042998 70.950598 89.337784 70.950598 
C 88.63257 70.950598 87.956144 71.230783 87.457483 71.729445 
C 86.958821 72.228106 86.678636 72.904532 86.678636 73.609746 
C 86.678636 74.31496 86.958821 74.991386 87.457483 75.490048 
C 87.956144 75.988709 88.63257 76.268894 89.337784 76.268894 
z
" clip-path="url(#p9a3af72ff4)" style="stroke: #000000"/>
    <path d="M 82.997033 64.271618 
C 83.701143 64.271618 84.376509 63.991873 84.87439 63.493992 
C 85.372271 62.996111 85.652016 62.320745 85.652016 61.616635 
C 85.652016 60.912525 85.372271 60.237159 84.87439 59.739279 
C 84.376509 59.241398 83.701143 58.961652 82.997033 58.961652 
C 82.292923 58.961652 81.617557 59.241398 81.119677 59.739279 
C 80.621796 60.237159 80.34205 60.912525 80.34205 61.616635 
C 80.34205 62.320745 80.621796 62.996111 81.119677 63.493992 
C 81.617557 63.991873 82.292923 64.271618 82.997033 64.271618 
z
" clip-path="url(#p9a3af72ff4)" style="stroke: #000000"/>
    <path d="M 85.433059 55.756968 
C 86.026072 55.756968 86.594875 55.521362 87.014198 55.102039 
C 87.433521 54.682716 87.669127 54.113912 87.669127 53.5209 
C 87.669127 52.927888 87.433521 52.359084 87.014198 51.939761 
C 86.594875 51.520438 86.026072 51.284832 85.433059 51.284832 
C 84.840047 51.284832 84.271244 51.520438 83.851921 51.939761 
C 83.432598 52.359084 83.196991 52.927888 83.196991 53.5209 
C 83.196991 54.113912 83.432598 54.682716 83.851921 55.102039 
C 84.271244 55.521362 84.840047 55.756968 85.433059 55.756968 
z
" clip-path="url(#p9a3af72ff4)" style="stroke: #000000"/>
    <path d="M 110.129156 160.377515 
C 110.72729 160.377515 111.301007 160.139874 111.723951 159.716929 
C 112.146896 159.293985 112.384537 158.720268 112.384537 158.122133 
C 112.384537 157.523999 112.146896 156.950282 111.723951 156.527338 
C 111.301007 156.104393 110.72729 155.866752 110.129156 155.866752 
C 109.531021 155.866752 108.957305 156.104393 108.53436 156.527338 
C 108.111415 156.950282 107.873774 157.523999 107.873774 158.122133 
C 107.873774 158.720268 108.111415 159.293985 108.53436 159.716929 
C 108.957305 160.139874 109.531021 160.377515 110.129156 160.377515 
z
" clip-path="url(#p9a3af72ff4)" style="stroke: #000000"/>
    <path d="M 93.918982 127.872525 
C 94.624417 127.872525 95.301054 127.592253 95.799871 127.093435 
C 96.298689 126.594617 96.578961 125.917981 96.578961 125.212546 
C 96.578961 124.507112 96.298689 123.830475 95.799871 123.331657 
C 95.301054 122.83284 94.624417 122.552568 93.918982 122.552568 
C 93.213548 122.552568 92.536911 122.83284 92.038093 123.331657 
C 91.539276 123.830475 91.259004 124.507112 91.259004 125.212546 
C 91.259004 125.917981 91.539276 126.594617 92.038093 127.093435 
C 92.536911 127.592253 93.213548 127.872525 93.918982 127.872525 
z
" clip-path="url(#p9a3af72ff4)" style="stroke: #000000"/>
    <path d="M 92.004333 117.027849 
C 92.709767 117.027849 93.386404 116.747577 93.885222 116.248759 
C 94.384039 115.749941 94.664311 115.073305 94.664311 114.36787 
C 94.664311 113.662436 94.384039 112.985799 93.885222 112.486981 
C 93.386404 111.988164 92.709767 111.707892 92.004333 111.707892 
C 91.298898 111.707892 90.622261 111.988164 90.123444 112.486981 
C 89.624626 112.985799 89.344354 113.662436 89.344354 114.36787 
C 89.344354 115.073305 89.624626 115.749941 90.123444 116.248759 
C 90.622261 116.747577 91.298898 117.027849 92.004333 117.027849 
z
" clip-path="url(#p9a3af72ff4)" style="stroke: #000000"/>
    <path d="M 89.02526 109.318761 
C 89.730694 109.318761 90.407331 109.038489 90.906149 108.539671 
C 91.404966 108.040854 91.685238 107.364217 91.685238 106.658782 
C 91.685238 105.953348 91.404966 105.276711 90.906149 104.777893 
C 90.407331 104.279076 89.730694 103.998804 89.02526 103.998804 
C 88.319825 103.998804 87.643189 104.279076 87.144371 104.777893 
C 86.645553 105.276711 86.365281 105.953348 86.365281 106.658782 
C 86.365281 107.364217 86.645553 108.040854 87.144371 108.539671 
C 87.643189 109.038489 88.319825 109.318761 89.02526 109.318761 
z
" clip-path="url(#p9a3af72ff4)" style="stroke: #000000"/>
    <path d="M 84.193357 92.355958 
C 84.786369 92.355958 85.355173 92.120352 85.774495 91.701029 
C 86.193818 91.281706 86.429425 90.712902 86.429425 90.11989 
C 86.429425 89.526878 86.193818 88.958074 85.774495 88.538751 
C 85.355173 88.119428 84.786369 87.883822 84.193357 87.883822 
C 83.600344 87.883822 83.031541 88.119428 82.612218 88.538751 
C 82.192895 88.958074 81.957289 89.526878 81.957289 90.11989 
C 81.957289 90.712902 82.192895 91.281706 82.612218 91.701029 
C 83.031541 92.120352 83.600344 92.355958 84.193357 92.355958 
z
" clip-path="url(#p9a3af72ff4)" style="stroke: #000000"/>
    <path d="M 84.127473 88.446361 
C 84.720485 88.446361 85.289289 88.210755 85.708612 87.791432 
C 86.127935 87.372109 86.363541 86.803306 86.363541 86.210293 
C 86.363541 85.617281 86.127935 85.048478 85.708612 84.629155 
C 85.289289 84.209832 84.720485 83.974226 84.127473 83.974226 
C 83.534461 83.974226 82.965657 84.209832 82.546334 84.629155 
C 82.127011 85.048478 81.891405 85.617281 81.891405 86.210293 
C 81.891405 86.803306 82.127011 87.372109 82.546334 87.791432 
C 82.965657 88.210755 83.534461 88.446361 84.127473 88.446361 
z
" clip-path="url(#p9a3af72ff4)" style="stroke: #000000"/>
    <path d="M 80.51767 80.588604 
C 81.222884 80.588604 81.89931 80.308419 82.397972 79.809758 
C 82.896634 79.311096 83.176818 78.63467 83.176818 77.929456 
C 83.176818 77.224242 82.896634 76.547816 82.397972 76.049154 
C 81.89931 75.550493 81.222884 75.270308 80.51767 75.270308 
C 79.812456 75.270308 79.13603 75.550493 78.637369 76.049154 
C 78.138707 76.547816 77.858522 77.224242 77.858522 77.929456 
C 77.858522 78.63467 78.138707 79.311096 78.637369 79.809758 
C 79.13603 80.308419 79.812456 80.588604 80.51767 80.588604 
z
" clip-path="url(#p9a3af72ff4)" style="stroke: #000000"/>
    <path d="M 64.99492 35.075431 
C 65.53927 35.075431 66.061398 34.859158 66.446312 34.474245 
C 66.831225 34.089331 67.047498 33.567203 67.047498 33.022853 
C 67.047498 32.478503 66.831225 31.956375 66.446312 31.571462 
C 66.061398 31.186548 65.53927 30.970276 64.99492 30.970276 
C 64.45057 30.970276 63.928442 31.186548 63.543529 31.571462 
C 63.158615 31.956375 62.942343 32.478503 62.942343 33.022853 
C 62.942343 33.567203 63.158615 34.089331 63.543529 34.474245 
C 63.928442 34.859158 64.45057 35.075431 64.99492 35.075431 
z
" clip-path="url(#p9a3af72ff4)" style="stroke: #000000"/>
    <path d="M 92.22125 154.687619 
C 92.926464 154.687619 93.60289 154.407434 94.101551 153.908773 
C 94.600213 153.410111 94.880398 152.733685 94.880398 152.028471 
C 94.880398 151.323257 94.600213 150.646831 94.101551 150.14817 
C 93.60289 149.649508 92.926464 149.369323 92.22125 149.369323 
C 91.516036 149.369323 90.83961 149.649508 90.340948 150.14817 
C 89.842287 150.646831 89.562102 151.323257 89.562102 152.028471 
C 89.562102 152.733685 89.842287 153.410111 90.340948 153.908773 
C 90.83961 154.407434 91.516036 154.687619 92.22125 154.687619 
z
" clip-path="url(#p9a3af72ff4)" style="stroke: #000000"/>
    <path d="M 86.862521 142.419474 
C 87.567956 142.419474 88.244592 142.139202 88.74341 141.640385 
C 89.242228 141.141567 89.5225 140.46493 89.5225 139.759496 
C 89.5225 139.054061 89.242228 138.377425 88.74341 137.878607 
C 88.244592 137.379789 87.567956 137.099517 86.862521 137.099517 
C 86.157087 137.099517 85.48045 137.379789 84.981632 137.878607 
C 84.482815 138.377425 84.202543 139.054061 84.202543 139.759496 
C 84.202543 140.46493 84.482815 141.141567 84.981632 141.640385 
C 85.48045 142.139202 86.157087 142.419474 86.862521 142.419474 
z
" clip-path="url(#p9a3af72ff4)" style="stroke: #000000"/>
    <path d="M 88.386931 131.168973 
C 88.969672 131.168973 89.528624 130.937447 89.940684 130.525387 
C 90.352745 130.113327 90.58427 129.554375 90.58427 128.971633 
C 90.58427 128.388892 90.352745 127.82994 89.940684 127.417879 
C 89.528624 127.005819 88.969672 126.774294 88.386931 126.774294 
C 87.804189 126.774294 87.245237 127.005819 86.833177 127.417879 
C 86.421116 127.82994 86.189591 128.388892 86.189591 128.971633 
C 86.189591 129.554375 86.421116 130.113327 86.833177 130.525387 
C 87.245237 130.937447 87.804189 131.168973 88.386931 131.168973 
z
" clip-path="url(#p9a3af72ff4)" style="stroke: #000000"/>
    <path d="M 82.414929 116.15638 
C 83.008312 116.15638 83.57747 115.920627 83.997055 115.501042 
C 84.41664 115.081457 84.652393 114.512298 84.652393 113.918916 
C 84.652393 113.325533 84.41664 112.756375 83.997055 112.33679 
C 83.57747 111.917205 83.008312 111.681452 82.414929 111.681452 
C 81.821547 111.681452 81.252388 111.917205 80.832803 112.33679 
C 80.413218 112.756375 80.177465 113.325533 80.177465 113.918916 
C 80.177465 114.512298 80.413218 115.081457 80.832803 115.501042 
C 81.252388 115.920627 81.821547 116.15638 82.414929 116.15638 
z
" clip-path="url(#p9a3af72ff4)" style="stroke: #000000"/>
    <path d="M 84.167353 110.885102 
C 84.760735 110.885102 85.329894 110.649349 85.749479 110.229764 
C 86.169064 109.810179 86.404817 109.24102 86.404817 108.647638 
C 86.404817 108.054256 86.169064 107.485097 85.749479 107.065512 
C 85.329894 106.645927 84.760735 106.410174 84.167353 106.410174 
C 83.57397 106.410174 83.004811 106.645927 82.585227 107.065512 
C 82.165642 107.485097 81.929888 108.054256 81.929888 108.647638 
C 81.929888 109.24102 82.165642 109.810179 82.585227 110.229764 
C 83.004811 110.649349 83.57397 110.885102 84.167353 110.885102 
z
" clip-path="url(#p9a3af72ff4)" style="stroke: #000000"/>
    <path d="M 75.362265 97.742143 
C 76.067479 97.742143 76.743905 97.461958 77.242567 96.963296 
C 77.741228 96.464635 78.021413 95.788209 78.021413 95.082995 
C 78.021413 94.377781 77.741228 93.701355 77.242567 93.202693 
C 76.743905 92.704031 76.067479 92.423847 75.362265 92.423847 
C 74.657051 92.423847 73.980625 92.704031 73.481964 93.202693 
C 72.983302 93.701355 72.703117 94.377781 72.703117 95.082995 
C 72.703117 95.788209 72.983302 96.464635 73.481964 96.963296 
C 73.980625 97.461958 74.657051 97.742143 75.362265 97.742143 
z
" clip-path="url(#p9a3af72ff4)" style="stroke: #000000"/>
    <path d="M 69.815831 97.655278 
C 70.408843 97.655278 70.977647 97.419672 71.39697 97.000349 
C 71.816293 96.581026 72.051899 96.012222 72.051899 95.41921 
C 72.051899 94.826198 71.816293 94.257394 71.39697 93.838071 
C 70.977647 93.418748 70.408843 93.183142 69.815831 93.183142 
C 69.222819 93.183142 68.654015 93.418748 68.234692 93.838071 
C 67.815369 94.257394 67.579763 94.826198 67.579763 95.41921 
C 67.579763 96.012222 67.815369 96.581026 68.234692 97.000349 
C 68.654015 97.419672 69.222819 97.655278 69.815831 97.655278 
z
" clip-path="url(#p9a3af72ff4)" style="stroke: #000000"/>
    <path d="M 66.49815 80.810948 
C 67.203364 80.810948 67.87979 80.530763 68.378451 80.032101 
C 68.877113 79.533439 69.157298 78.857014 69.157298 78.1518 
C 69.157298 77.446585 68.877113 76.77016 68.378451 76.271498 
C 67.87979 75.772836 67.203364 75.492652 66.49815 75.492652 
C 65.792936 75.492652 65.11651 75.772836 64.617848 76.271498 
C 64.119187 76.77016 63.839002 77.446585 63.839002 78.1518 
C 63.839002 78.857014 64.119187 79.533439 64.617848 80.032101 
C 65.11651 80.530763 65.792936 80.810948 66.49815 80.810948 
z
" clip-path="url(#p9a3af72ff4)" style="stroke: #000000"/>
    <path d="M 62.181963 59.062813 
C 62.77682 59.062813 63.347393 58.826474 63.76802 58.405847 
C 64.188647 57.985219 64.424986 57.414646 64.424986 56.81979 
C 64.424986 56.224933 64.188647 55.65436 63.76802 55.233733 
C 63.347393 54.813106 62.77682 54.576767 62.181963 54.576767 
C 61.587106 54.576767 61.016533 54.813106 60.595906 55.233733 
C 60.175279 55.65436 59.93894 56.224933 59.93894 56.81979 
C 59.93894 57.414646 60.175279 57.985219 60.595906 58.405847 
C 61.016533 58.826474 61.587106 59.062813 62.181963 59.062813 
z
" clip-path="url(#p9a3af72ff4)" style="stroke: #000000"/>
    <path d="M 87.733506 177.966267 
C 88.326518 177.966267 88.895322 177.730661 89.314645 177.311338 
C 89.733968 176.892015 89.969574 176.323211 89.969574 175.730199 
C 89.969574 175.137187 89.733968 174.568383 89.314645 174.14906 
C 88.895322 173.729738 88.326518 173.494131 87.733506 173.494131 
C 87.140494 173.494131 86.57169 173.729738 86.152367 174.14906 
C 85.733044 174.568383 85.497438 175.137187 85.497438 175.730199 
C 85.497438 176.323211 85.733044 176.892015 86.152367 177.311338 
C 86.57169 177.730661 87.140494 177.966267 87.733506 177.966267 
z
" clip-path="url(#p9a3af72ff4)" style="stroke: #000000"/>
    <path d="M 89.408198 166.686006 
C 90.027893 166.686006 90.622291 166.439799 91.060481 166.001608 
C 91.498672 165.563417 91.74488 164.96902 91.74488 164.349324 
C 91.74488 163.729629 91.498672 163.135232 91.060481 162.697041 
C 90.622291 162.25885 90.027893 162.012643 89.408198 162.012643 
C 88.788502 162.012643 88.194105 162.25885 87.755914 162.697041 
C 87.317723 163.135232 87.071516 163.729629 87.071516 164.349324 
C 87.071516 164.96902 87.317723 165.563417 87.755914 166.001608 
C 88.194105 166.439799 88.788502 166.686006 89.408198 166.686006 
z
" clip-path="url(#p9a3af72ff4)" style="stroke: #000000"/>
    <path d="M 83.437388 157.48069 
C 83.747722 157.48069 84.045387 157.357393 84.264826 157.137954 
C 84.484265 156.918515 84.607562 156.62085 84.607562 156.310516 
C 84.607562 156.000183 84.484265 155.702518 84.264826 155.483079 
C 84.045387 155.26364 83.747722 155.140343 83.437388 155.140343 
C 83.127055 155.140343 82.82939 155.26364 82.609951 155.483079 
C 82.390511 155.702518 82.267215 156.000183 82.267215 156.310516 
C 82.267215 156.62085 82.390511 156.918515 82.609951 157.137954 
C 82.82939 157.357393 83.127055 157.48069 83.437388 157.48069 
z
" clip-path="url(#p9a3af72ff4)" style="stroke: #000000"/>
    <path d="M 79.874992 135.801061 
C 80.032683 135.801061 80.183937 135.73841 80.295441 135.626906 
C 80.406945 135.515402 80.469596 135.364148 80.469596 135.206458 
C 80.469596 135.048767 80.406945 134.897514 80.295441 134.78601 
C 80.183937 134.674505 80.032683 134.611854 79.874992 134.611854 
C 79.717302 134.611854 79.566048 134.674505 79.454544 134.78601 
C 79.34304 134.897514 79.280389 135.048767 79.280389 135.206458 
C 79.280389 135.364148 79.34304 135.515402 79.454544 135.626906 
C 79.566048 135.73841 79.717302 135.801061 79.874992 135.801061 
z
" clip-path="url(#p9a3af72ff4)" style="stroke: #000000"/>
    <path d="M 72.776108 123.861924 
C 73.401253 123.861924 74.000877 123.613552 74.442921 123.171508 
C 74.884965 122.729464 75.133337 122.12984 75.133337 121.504695 
C 75.133337 120.879551 74.884965 120.279927 74.442921 119.837883 
C 74.000877 119.395839 73.401253 119.147466 72.776108 119.147466 
C 72.150964 119.147466 71.55134 119.395839 71.109296 119.837883 
C 70.667252 120.279927 70.418879 120.879551 70.418879 121.504695 
C 70.418879 122.12984 70.667252 122.729464 71.109296 123.171508 
C 71.55134 123.613552 72.150964 123.861924 72.776108 123.861924 
z
" clip-path="url(#p9a3af72ff4)" style="stroke: #000000"/>
    <path d="M 66.527884 116.643727 
C 67.233318 116.643727 67.909955 116.363455 68.408773 115.864638 
C 68.90759 115.36582 69.187862 114.689183 69.187862 113.983749 
C 69.187862 113.278314 68.90759 112.601678 68.408773 112.10286 
C 67.909955 111.604042 67.233318 111.32377 66.527884 111.32377 
C 65.822449 111.32377 65.145812 111.604042 64.646995 112.10286 
C 64.148177 112.601678 63.867905 113.278314 63.867905 113.983749 
C 63.867905 114.689183 64.148177 115.36582 64.646995 115.864638 
C 65.145812 116.363455 65.822449 116.643727 66.527884 116.643727 
z
" clip-path="url(#p9a3af72ff4)" style="stroke: #000000"/>
    <path d="M 62.318491 97.254702 
C 63.023705 97.254702 63.700131 96.974517 64.198792 96.475855 
C 64.697454 95.977193 64.977639 95.300768 64.977639 94.595554 
C 64.977639 93.890339 64.697454 93.213914 64.198792 92.715252 
C 63.700131 92.21659 63.023705 91.936406 62.318491 91.936406 
C 61.613277 91.936406 60.936851 92.21659 60.438189 92.715252 
C 59.939528 93.213914 59.659343 93.890339 59.659343 94.595554 
C 59.659343 95.300768 59.939528 95.977193 60.438189 96.475855 
C 60.936851 96.974517 61.613277 97.254702 62.318491 97.254702 
z
" clip-path="url(#p9a3af72ff4)" style="stroke: #000000"/>
    <path d="M 49.576329 60.352547 
C 50.169712 60.352547 50.738871 60.116793 51.158456 59.697209 
C 51.57804 59.277624 51.813794 58.708465 51.813794 58.115083 
C 51.813794 57.5217 51.57804 56.952541 51.158456 56.532956 
C 50.738871 56.113372 50.169712 55.877618 49.576329 55.877618 
C 48.982947 55.877618 48.413788 56.113372 47.994203 56.532956 
C 47.574619 56.952541 47.338865 57.5217 47.338865 58.115083 
C 47.338865 58.708465 47.574619 59.277624 47.994203 59.697209 
C 48.413788 60.116793 48.982947 60.352547 49.576329 60.352547 
z
" clip-path="url(#p9a3af72ff4)" style="stroke: #000000"/>
    <path d="M 46.009707 57.235752 
C 46.600107 57.235752 47.166406 57.001184 47.583882 56.583708 
C 48.001359 56.166231 48.235927 55.599933 48.235927 55.009532 
C 48.235927 54.419132 48.001359 53.852833 47.583882 53.435357 
C 47.166406 53.01788 46.600107 52.783312 46.009707 52.783312 
C 45.419306 52.783312 44.853008 53.01788 44.435531 53.435357 
C 44.018055 53.852833 43.783487 54.419132 43.783487 55.009532 
C 43.783487 55.599933 44.018055 56.166231 44.435531 56.583708 
C 44.853008 57.001184 45.419306 57.235752 46.009707 57.235752 
z
" clip-path="url(#p9a3af72ff4)" style="stroke: #000000"/>
    <path d="M 66.676712 159.829621 
C 67.382147 159.829621 68.058783 159.549349 68.557601 159.050531 
C 69.056418 158.551714 69.33669 157.875077 69.33669 157.169643 
C 69.33669 156.464208 69.056418 155.787571 68.557601 155.288754 
C 68.058783 154.789936 67.382147 154.509664 66.676712 154.509664 
C 65.971277 154.509664 65.294641 154.789936 64.795823 155.288754 
C 64.297006 155.787571 64.016733 156.464208 64.016733 157.169643 
C 64.016733 157.875077 64.297006 158.551714 64.795823 159.050531 
C 65.294641 159.549349 65.971277 159.829621 66.676712 159.829621 
z
" clip-path="url(#p9a3af72ff4)" style="stroke: #000000"/>
    <path d="M 64.084373 141.177772 
C 64.645646 141.177772 65.184008 140.954776 65.580888 140.557895 
C 65.977769 140.161015 66.200765 139.622653 66.200765 139.061379 
C 66.200765 138.500106 65.977769 137.961744 65.580888 137.564864 
C 65.184008 137.167983 64.645646 136.944987 64.084373 136.944987 
C 63.523099 136.944987 62.984738 137.167983 62.587857 137.564864 
C 62.190976 137.961744 61.96798 138.500106 61.96798 139.061379 
C 61.96798 139.622653 62.190976 140.161015 62.587857 140.557895 
C 62.984738 140.954776 63.523099 141.177772 64.084373 141.177772 
z
" clip-path="url(#p9a3af72ff4)" style="stroke: #000000"/>
    <path d="M 63.635252 129.512535 
C 64.340686 129.512535 65.017323 129.232262 65.51614 128.733445 
C 66.014958 128.234627 66.29523 127.557991 66.29523 126.852556 
C 66.29523 126.147121 66.014958 125.470485 65.51614 124.971667 
C 65.017323 124.47285 64.340686 124.192577 63.635252 124.192577 
C 62.929817 124.192577 62.25318 124.47285 61.754363 124.971667 
C 61.255545 125.470485 60.975273 126.147121 60.975273 126.852556 
C 60.975273 127.557991 61.255545 128.234627 61.754363 128.733445 
C 62.25318 129.232262 62.929817 129.512535 63.635252 129.512535 
z
" clip-path="url(#p9a3af72ff4)" style="stroke: #000000"/>
    <path d="M 58.623635 120.171707 
C 59.32907 120.171707 60.005707 119.891435 60.504524 119.392618 
C 61.003342 118.8938 61.283614 118.217164 61.283614 117.511729 
C 61.283614 116.806294 61.003342 116.129658 60.504524 115.63084 
C 60.005707 115.132023 59.32907 114.85175 58.623635 114.85175 
C 57.918201 114.85175 57.241564 115.132023 56.742747 115.63084 
C 56.243929 116.129658 55.963657 116.806294 55.963657 117.511729 
C 55.963657 118.217164 56.243929 118.8938 56.742747 119.392618 
C 57.241564 119.891435 57.918201 120.171707 58.623635 120.171707 
z
" clip-path="url(#p9a3af72ff4)" style="stroke: #000000"/>
    <path d="M 55.171988 106.158191 
C 55.877203 106.158191 56.553628 105.878007 57.05229 105.379345 
C 57.550952 104.880683 57.831136 104.204257 57.831136 103.499043 
C 57.831136 102.793829 57.550952 102.117403 57.05229 101.618742 
C 56.553628 101.12008 55.877203 100.839895 55.171988 100.839895 
C 54.466774 100.839895 53.790348 101.12008 53.291687 101.618742 
C 52.793025 102.117403 52.51284 102.793829 52.51284 103.499043 
C 52.51284 104.204257 52.793025 104.880683 53.291687 105.379345 
C 53.790348 105.878007 54.466774 106.158191 55.171988 106.158191 
z
" clip-path="url(#p9a3af72ff4)" style="stroke: #000000"/>
    <path d="M 50.080964 93.882018 
C 50.786178 93.882018 51.462604 93.601833 51.961265 93.103172 
C 52.459927 92.60451 52.740112 91.928084 52.740112 91.22287 
C 52.740112 90.517656 52.459927 89.84123 51.961265 89.342568 
C 51.462604 88.843907 50.786178 88.563722 50.080964 88.563722 
C 49.37575 88.563722 48.699324 88.843907 48.200662 89.342568 
C 47.702001 89.84123 47.421816 90.517656 47.421816 91.22287 
C 47.421816 91.928084 47.702001 92.60451 48.200662 93.103172 
C 48.699324 93.601833 49.37575 93.882018 50.080964 93.882018 
z
" clip-path="url(#p9a3af72ff4)" style="stroke: #000000"/>
    <path d="M 48.135196 88.715548 
C 48.840411 88.715548 49.516836 88.435363 50.015498 87.936701 
C 50.51416 87.43804 50.794344 86.761614 50.794344 86.0564 
C 50.794344 85.351186 50.51416 84.67476 50.015498 84.176098 
C 49.516836 83.677437 48.840411 83.397252 48.135196 83.397252 
C 47.429982 83.397252 46.753557 83.677437 46.254895 84.176098 
C 45.756233 84.67476 45.476048 85.351186 45.476048 86.0564 
C 45.476048 86.761614 45.756233 87.43804 46.254895 87.936701 
C 46.753557 88.435363 47.429982 88.715548 48.135196 88.715548 
z
" clip-path="url(#p9a3af72ff4)" style="stroke: #000000"/>
    <path d="M 63.563569 170.935124 
C 64.15769 170.935124 64.727557 170.699077 65.147664 170.27897 
C 65.567771 169.858863 65.803818 169.288996 65.803818 168.694875 
C 65.803818 168.100754 65.567771 167.530887 65.147664 167.11078 
C 64.727557 166.690673 64.15769 166.454626 63.563569 166.454626 
C 62.969448 166.454626 62.399581 166.690673 61.979474 167.11078 
C 61.559367 167.530887 61.32332 168.100754 61.32332 168.694875 
C 61.32332 169.288996 61.559367 169.858863 61.979474 170.27897 
C 62.399581 170.699077 62.969448 170.935124 63.563569 170.935124 
z
" clip-path="url(#p9a3af72ff4)" style="stroke: #000000"/>
    <path d="M 60.555583 163.803615 
C 60.74311 163.803615 60.922981 163.72911 61.055583 163.596508 
C 61.188184 163.463907 61.262689 163.284035 61.262689 163.096508 
C 61.262689 162.908982 61.188184 162.72911 61.055583 162.596508 
C 60.922981 162.463907 60.74311 162.389402 60.555583 162.389402 
C 60.368056 162.389402 60.188184 162.463907 60.055583 162.596508 
C 59.922981 162.72911 59.848476 162.908982 59.848476 163.096508 
C 59.848476 163.284035 59.922981 163.463907 60.055583 163.596508 
C 60.188184 163.72911 60.368056 163.803615 60.555583 163.803615 
z
" clip-path="url(#p9a3af72ff4)" style="stroke: #000000"/>
    <path d="M 58.792873 151.696039 
C 59.498087 151.696039 60.174513 151.415854 60.673174 150.917192 
C 61.171836 150.418531 61.452021 149.742105 61.452021 149.036891 
C 61.452021 148.331677 61.171836 147.655251 60.673174 147.156589 
C 60.174513 146.657927 59.498087 146.377743 58.792873 146.377743 
C 58.087658 146.377743 57.411233 146.657927 56.912571 147.156589 
C 56.413909 147.655251 56.133725 148.331677 56.133725 149.036891 
C 56.133725 149.742105 56.413909 150.418531 56.912571 150.917192 
C 57.411233 151.415854 58.087658 151.696039 58.792873 151.696039 
z
" clip-path="url(#p9a3af72ff4)" style="stroke: #000000"/>
    <path d="M 50.889073 144.606674 
C 51.594288 144.606674 52.270713 144.32649 52.769375 143.827828 
C 53.268037 143.329166 53.548221 142.652741 53.548221 141.947526 
C 53.548221 141.242312 53.268037 140.565886 52.769375 140.067225 
C 52.270713 139.568563 51.594288 139.288378 50.889073 139.288378 
C 50.183859 139.288378 49.507434 139.568563 49.008772 140.067225 
C 48.51011 140.565886 48.229925 141.242312 48.229925 141.947526 
C 48.229925 142.652741 48.51011 143.329166 49.008772 143.827828 
C 49.507434 144.32649 50.183859 144.606674 50.889073 144.606674 
z
" clip-path="url(#p9a3af72ff4)" style="stroke: #000000"/>
    <path d="M 47.313452 130.912865 
C 47.862064 130.912865 48.38828 130.694899 48.776208 130.306972 
C 49.164135 129.919044 49.382101 129.392828 49.382101 128.844216 
C 49.382101 128.295603 49.164135 127.769387 48.776208 127.381459 
C 48.38828 126.993532 47.862064 126.775566 47.313452 126.775566 
C 46.76484 126.775566 46.238623 126.993532 45.850696 127.381459 
C 45.462768 127.769387 45.244802 128.295603 45.244802 128.844216 
C 45.244802 129.392828 45.462768 129.919044 45.850696 130.306972 
C 46.238623 130.694899 46.76484 130.912865 47.313452 130.912865 
z
" clip-path="url(#p9a3af72ff4)" style="stroke: #000000"/>
    <path d="M 42.044926 113.26858 
C 42.750361 113.26858 43.426998 112.988307 43.925815 112.48949 
C 44.424633 111.990672 44.704905 111.314036 44.704905 110.608601 
C 44.704905 109.903166 44.424633 109.22653 43.925815 108.727712 
C 43.426998 108.228895 42.750361 107.948622 42.044926 107.948622 
C 41.339492 107.948622 40.662855 108.228895 40.164038 108.727712 
C 39.66522 109.22653 39.384948 109.903166 39.384948 110.608601 
C 39.384948 111.314036 39.66522 111.990672 40.164038 112.48949 
C 40.662855 112.988307 41.339492 113.26858 42.044926 113.26858 
z
" clip-path="url(#p9a3af72ff4)" style="stroke: #000000"/>
    <path d="M 39.865104 101.499955 
C 40.570319 101.499955 41.246744 101.21977 41.745406 100.721109 
C 42.244068 100.222447 42.524252 99.546021 42.524252 98.840807 
C 42.524252 98.135593 42.244068 97.459167 41.745406 96.960506 
C 41.246744 96.461844 40.570319 96.181659 39.865104 96.181659 
C 39.15989 96.181659 38.483465 96.461844 37.984803 96.960506 
C 37.486141 97.459167 37.205956 98.135593 37.205956 98.840807 
C 37.205956 99.546021 37.486141 100.222447 37.984803 100.721109 
C 38.483465 101.21977 39.15989 101.499955 39.865104 101.499955 
z
" clip-path="url(#p9a3af72ff4)" style="stroke: #000000"/>
    <path d="M 38.054526 93.850107 
C 38.569227 93.850107 39.062916 93.645615 39.426865 93.281666 
C 39.790814 92.917717 39.995306 92.424028 39.995306 91.909327 
C 39.995306 91.394626 39.790814 90.900936 39.426865 90.536988 
C 39.062916 90.173039 38.569227 89.968546 38.054526 89.968546 
C 37.539825 89.968546 37.046135 90.173039 36.682187 90.536988 
C 36.318238 90.900936 36.113745 91.394626 36.113745 91.909327 
C 36.113745 92.424028 36.318238 92.917717 36.682187 93.281666 
C 37.046135 93.645615 37.539825 93.850107 38.054526 93.850107 
z
" clip-path="url(#p9a3af72ff4)" style="stroke: #000000"/>
    <path d="M 50.935541 152.976641 
C 51.291623 152.976641 51.633168 152.835169 51.884955 152.583381 
C 52.136743 152.331593 52.278216 151.990048 52.278216 151.633967 
C 52.278216 151.277885 52.136743 150.93634 51.884955 150.684552 
C 51.633168 150.432764 51.291623 150.291292 50.935541 150.291292 
C 50.579459 150.291292 50.237914 150.432764 49.986127 150.684552 
C 49.734339 150.93634 49.592866 151.277885 49.592866 151.633967 
C 49.592866 151.990048 49.734339 152.331593 49.986127 152.583381 
C 50.237914 152.835169 50.579459 152.976641 50.935541 152.976641 
z
" clip-path="url(#p9a3af72ff4)" style="stroke: #000000"/>
    <path d="M 37.898601 126.389974 
C 38.604035 126.389974 39.280672 126.109702 39.779489 125.610885 
C 40.278307 125.112067 40.558579 124.43543 40.558579 123.729996 
C 40.558579 123.024561 40.278307 122.347924 39.779489 121.849107 
C 39.280672 121.350289 38.604035 121.070017 37.898601 121.070017 
C 37.193166 121.070017 36.516529 121.350289 36.017712 121.849107 
C 35.518894 122.347924 35.238622 123.024561 35.238622 123.729996 
C 35.238622 124.43543 35.518894 125.112067 36.017712 125.610885 
C 36.516529 126.109702 37.193166 126.389974 37.898601 126.389974 
z
" clip-path="url(#p9a3af72ff4)" style="stroke: #000000"/>
    <path d="M 32.944619 113.759293 
C 33.650053 113.759293 34.32669 113.479021 34.825508 112.980204 
C 35.324325 112.481386 35.604597 111.804749 35.604597 111.099315 
C 35.604597 110.39388 35.324325 109.717243 34.825508 109.218426 
C 34.32669 108.719608 33.650053 108.439336 32.944619 108.439336 
C 32.239184 108.439336 31.562548 108.719608 31.06373 109.218426 
C 30.564912 109.717243 30.28464 110.39388 30.28464 111.099315 
C 30.28464 111.804749 30.564912 112.481386 31.06373 112.980204 
C 31.562548 113.479021 32.239184 113.759293 32.944619 113.759293 
z
" clip-path="url(#p9a3af72ff4)" style="stroke: #000000"/>
    <path d="M 40.40762 170.270535 
C 41.000632 170.270535 41.569436 170.034929 41.988759 169.615606 
C 42.408082 169.196283 42.643688 168.627479 42.643688 168.034467 
C 42.643688 167.441455 42.408082 166.872651 41.988759 166.453328 
C 41.569436 166.034005 41.000632 165.798399 40.40762 165.798399 
C 39.814608 165.798399 39.245804 166.034005 38.826481 166.453328 
C 38.407158 166.872651 38.171552 167.441455 38.171552 168.034467 
C 38.171552 168.627479 38.407158 169.196283 38.826481 169.615606 
C 39.245804 170.034929 39.814608 170.270535 40.40762 170.270535 
z
" clip-path="url(#p9a3af72ff4)" style="stroke: #000000"/>
    <path d="M 28.883332 141.786049 
C 29.507843 141.786049 30.106859 141.537928 30.548455 141.096333 
C 30.99005 140.654737 31.238171 140.05572 31.238171 139.43121 
C 31.238171 138.806699 30.99005 138.207683 30.548455 137.766087 
C 30.106859 137.324491 29.507843 137.07637 28.883332 137.07637 
C 28.258821 137.07637 27.659805 137.324491 27.218209 137.766087 
C 26.776613 138.207683 26.528493 138.806699 26.528493 139.43121 
C 26.528493 140.05572 26.776613 140.654737 27.218209 141.096333 
C 27.659805 141.537928 28.258821 141.786049 28.883332 141.786049 
z
" clip-path="url(#p9a3af72ff4)" style="stroke: #000000"/>
    <path d="M 27.575633 130.645673 
C 28.269561 130.645673 28.93516 130.369972 29.42584 129.879292 
C 29.916521 129.388611 30.192221 128.723012 30.192221 128.029085 
C 30.192221 127.335158 29.916521 126.669558 29.42584 126.178878 
C 28.93516 125.688197 28.269561 125.412497 27.575633 125.412497 
C 26.881706 125.412497 26.216107 125.688197 25.725426 126.178878 
C 25.234746 126.669558 24.959046 127.335158 24.959046 128.029085 
C 24.959046 128.723012 25.234746 129.388611 25.725426 129.879292 
C 26.216107 130.369972 26.881706 130.645673 27.575633 130.645673 
z
" clip-path="url(#p9a3af72ff4)" style="stroke: #000000"/>
   </g>
   <g id="matplotlib.axis_1">
    <g id="xtick_1">
     <g id="line2d_1">
      <defs>
       <path id="m63820abe5e" d="M 0 0 
L 0 3.5 
" style="stroke: #000000; stroke-width: 0.8"/>
      </defs>
      <g>
       <use xlink:href="#m63820abe5e" x="18" y="189" style="stroke: #000000; stroke-width: 0.8"/>
      </g>
     </g>
     <g id="text_1">
      <!-- −10 -->
      <g transform="translate(7.447656 203.598437)scale(0.1 -0.1)">
       <defs>
        <path id="DejaVuSans-2212" d="M 678 2272 
L 4684 2272 
L 4684 1741 
L 678 1741 
L 678 2272 
z
" transform="scale(0.015625)"/>
        <path id="DejaVuSans-31" d="M 794 531 
L 1825 531 
L 1825 4091 
L 703 3866 
L 703 4441 
L 1819 4666 
L 2450 4666 
L 2450 531 
L 3481 531 
L 3481 0 
L 794 0 
L 794 531 
z
" transform="scale(0.015625)"/>
        <path id="DejaVuSans-30" d="M 2034 4250 
Q 1547 4250 1301 3770 
Q 1056 3291 1056 2328 
Q 1056 1369 1301 889 
Q 1547 409 2034 409 
Q 2525 409 2770 889 
Q 3016 1369 3016 2328 
Q 3016 3291 2770 3770 
Q 2525 4250 2034 4250 
z
M 2034 4750 
Q 2819 4750 3233 4129 
Q 3647 3509 3647 2328 
Q 3647 1150 3233 529 
Q 2819 -91 2034 -91 
Q 1250 -91 836 529 
Q 422 1150 422 2328 
Q 422 3509 836 4129 
Q 1250 4750 2034 4750 
z
" transform="scale(0.015625)"/>
       </defs>
       <use xlink:href="#DejaVuSans-2212"/>
       <use xlink:href="#DejaVuSans-31" x="83.789062"/>
       <use xlink:href="#DejaVuSans-30" x="147.412109"/>
      </g>
     </g>
    </g>
    <g id="xtick_2">
     <g id="line2d_2">
      <g>
       <use xlink:href="#m63820abe5e" x="73.8" y="189" style="stroke: #000000; stroke-width: 0.8"/>
      </g>
     </g>
     <g id="text_2">
      <!-- 0 -->
      <g transform="translate(70.61875 203.598437)scale(0.1 -0.1)">
       <use xlink:href="#DejaVuSans-30"/>
      </g>
     </g>
    </g>
    <g id="xtick_3">
     <g id="line2d_3">
      <g>
       <use xlink:href="#m63820abe5e" x="129.6" y="189" style="stroke: #000000; stroke-width: 0.8"/>
      </g>
     </g>
     <g id="text_3">
      <!-- 10 -->
      <g transform="translate(123.2375 203.598437)scale(0.1 -0.1)">
       <use xlink:href="#DejaVuSans-31"/>
       <use xlink:href="#DejaVuSans-30" x="63.623047"/>
      </g>
     </g>
    </g>
   </g>
   <g id="matplotlib.axis_2">
    <g id="ytick_1">
     <g id="line2d_4">
      <defs>
       <path id="m84444c943e" d="M 0 0 
L -3.5 0 
" style="stroke: #000000; stroke-width: 0.8"/>
      </defs>
      <g>
       <use xlink:href="#m84444c943e" x="18" y="189" style="stroke: #000000; stroke-width: 0.8"/>
      </g>
     </g>
     <g id="text_4">
      <!-- −15 -->
      <g transform="translate(-10.104688 192.799219)scale(0.1 -0.1)">
       <defs>
        <path id="DejaVuSans-35" d="M 691 4666 
L 3169 4666 
L 3169 4134 
L 1269 4134 
L 1269 2991 
Q 1406 3038 1543 3061 
Q 1681 3084 1819 3084 
Q 2600 3084 3056 2656 
Q 3513 2228 3513 1497 
Q 3513 744 3044 326 
Q 2575 -91 1722 -91 
Q 1428 -91 1123 -41 
Q 819 9 494 109 
L 494 744 
Q 775 591 1075 516 
Q 1375 441 1709 441 
Q 2250 441 2565 725 
Q 2881 1009 2881 1497 
Q 2881 1984 2565 2268 
Q 2250 2553 1709 2553 
Q 1456 2553 1204 2497 
Q 953 2441 691 2322 
L 691 4666 
z
" transform="scale(0.015625)"/>
       </defs>
       <use xlink:href="#DejaVuSans-2212"/>
       <use xlink:href="#DejaVuSans-31" x="83.789062"/>
       <use xlink:href="#DejaVuSans-35" x="147.412109"/>
      </g>
     </g>
    </g>
    <g id="ytick_2">
     <g id="line2d_5">
      <g>
       <use xlink:href="#m84444c943e" x="18" y="161.82" style="stroke: #000000; stroke-width: 0.8"/>
      </g>
     </g>
     <g id="text_5">
      <!-- −10 -->
      <g transform="translate(-10.104688 165.619219)scale(0.1 -0.1)">
       <use xlink:href="#DejaVuSans-2212"/>
       <use xlink:href="#DejaVuSans-31" x="83.789062"/>
       <use xlink:href="#DejaVuSans-30" x="147.412109"/>
      </g>
     </g>
    </g>
    <g id="ytick_3">
     <g id="line2d_6">
      <g>
       <use xlink:href="#m84444c943e" x="18" y="134.64" style="stroke: #000000; stroke-width: 0.8"/>
      </g>
     </g>
     <g id="text_6">
      <!-- −5 -->
      <g transform="translate(-3.742188 138.439219)scale(0.1 -0.1)">
       <use xlink:href="#DejaVuSans-2212"/>
       <use xlink:href="#DejaVuSans-35" x="83.789062"/>
      </g>
     </g>
    </g>
    <g id="ytick_4">
     <g id="line2d_7">
      <g>
       <use xlink:href="#m84444c943e" x="18" y="107.46" style="stroke: #000000; stroke-width: 0.8"/>
      </g>
     </g>
     <g id="text_7">
      <!-- 0 -->
      <g transform="translate(4.6375 111.259219)scale(0.1 -0.1)">
       <use xlink:href="#DejaVuSans-30"/>
      </g>
     </g>
    </g>
    <g id="ytick_5">
     <g id="line2d_8">
      <g>
       <use xlink:href="#m84444c943e" x="18" y="80.28" style="stroke: #000000; stroke-width: 0.8"/>
      </g>
     </g>
     <g id="text_8">
      <!-- 5 -->
      <g transform="translate(4.6375 84.079219)scale(0.1 -0.1)">
       <use xlink:href="#DejaVuSans-35"/>
      </g>
     </g>
    </g>
    <g id="ytick_6">
     <g id="line2d_9">
      <g>
       <use xlink:href="#m84444c943e" x="18" y="53.1" style="stroke: #000000; stroke-width: 0.8"/>
      </g>
     </g>
     <g id="text_9">
      <!-- 10 -->
      <g transform="translate(-1.725 56.899219)scale(0.1 -0.1)">
       <use xlink:href="#DejaVuSans-31"/>
       <use xlink:href="#DejaVuSans-30" x="63.623047"/>
      </g>
     </g>
    </g>
    <g id="ytick_7">
     <g id="line2d_10">
      <g>
       <use xlink:href="#m84444c943e" x="18" y="25.92" style="stroke: #000000; stroke-width: 0.8"/>
      </g>
     </g>
     <g id="text_10">
      <!-- 15 -->
      <g transform="translate(-1.725 29.719219)scale(0.1 -0.1)">
       <use xlink:href="#DejaVuSans-31"/>
       <use xlink:href="#DejaVuSans-35" x="63.623047"/>
      </g>
     </g>
    </g>
   </g>
   <g id="patch_3">
    <path d="M 18 189 
L 18 25.92 
" style="fill: none; stroke: #000000; stroke-width: 0.8; stroke-linejoin: miter; stroke-linecap: square"/>
   </g>
   <g id="patch_4">
    <path d="M 129.6 189 
L 129.6 25.92 
" style="fill: none; stroke: #000000; stroke-width: 0.8; stroke-linejoin: miter; stroke-linecap: square"/>
   </g>
   <g id="patch_5">
    <path d="M 18 189 
L 129.6 189 
" style="fill: none; stroke: #000000; stroke-width: 0.8; stroke-linejoin: miter; stroke-linecap: square"/>
   </g>
   <g id="patch_6">
    <path d="M 18 25.92 
L 129.6 25.92 
" style="fill: none; stroke: #000000; stroke-width: 0.8; stroke-linejoin: miter; stroke-linecap: square"/>
   </g>
  </g>
 </g>
 <defs>
  <clipPath id="p9a3af72ff4">
   <rect x="18" y="25.92" width="111.6" height="163.08"/>
  </clipPath>
 </defs>
</svg>
