<?xml version="1.0" encoding="utf-8" standalone="no"?>
<!DOCTYPE svg PUBLIC "-//W3C//DTD SVG 1.1//EN"
  "http://www.w3.org/Graphics/SVG/1.1/DTD/svg11.dtd">
<svg xmlns:xlink="http://www.w3.org/1999/xlink" width="144pt" height="216pt" viewBox="0 0 144 216" xmlns="http://www.w3.org/2000/svg" version="1.1">
 <metadata>
  <rdf:RDF xmlns:dc="http://purl.org/dc/elements/1.1/" xmlns:cc="http://creativecommons.org/ns#" xmlns:rdf="http://www.w3.org/1999/02/22-rdf-syntax-ns#">
   <cc:Work>
    <dc:type rdf:resource="http://purl.org/dc/dcmitype/StillImage"/>
    <dc:date>2022-06-23T14:45:54.015313</dc:date>
    <dc:format>image/svg+xml</dc:format>
    <dc:creator>
     <cc:Agent>
      <dc:title>Matplotlib v3.5.1, https://matplotlib.org/</dc:title>
     </cc:Agent>
    </dc:creator>
   </cc:Work>
  </rdf:RDF>
 </metadata>
 <defs>
  <style type="text/css">*{stroke-linejoin: round; stroke-linecap: butt}</style>
 </defs>
 <g id="figure_1">
  <g id="patch_1">
   <path d="M 0 216 
L 144 216 
L 144 0 
L 0 0 
L 0 216 
z
" style="fill: none"/>
  </g>
  <g id="axes_1">
   <g id="patch_2">
    <path d="M 18 189 
L 129.6 189 
L 129.6 25.92 
L 18 25.92 
z
" style="fill: #ffffff"/>
   </g>
   <g id="PathCollection_1">
    <defs>
     <path id="m50b55e9f62" d="M 0 2.738613 
C 0.726289 2.738613 1.422928 2.450055 1.936492 1.936492 
C 2.450055 1.422928 2.738613 0.726289 2.738613 0 
C 2.738613 -0.726289 2.450055 -1.422928 1.936492 -1.936492 
C 1.422928 -2.450055 0.726289 -2.738613 0 -2.738613 
C -0.726289 -2.738613 -1.422928 -2.450055 -1.936492 -1.936492 
C -2.450055 -1.422928 -2.738613 -0.726289 -2.738613 0 
C -2.738613 0.726289 -2.450055 1.422928 -1.936492 1.936492 
C -1.422928 2.450055 -0.726289 2.738613 0 2.738613 
z
" style="stroke: #ff0000; stroke-width: 1.75"/>
    </defs>
    <g clip-path="url(#pcd9e4beae0)">
     <use xlink:href="#m50b55e9f62" x="80.775" y="107.46" style="fill: #ff0000; stroke: #ff0000; stroke-width: 1.75"/>
     <use xlink:href="#m50b55e9f62" x="94.725" y="107.46" style="fill: #ff0000; stroke: #ff0000; stroke-width: 1.75"/>
     <use xlink:href="#m50b55e9f62" x="59.85" y="119.229285" style="fill: #ff0000; stroke: #ff0000; stroke-width: 1.75"/>
     <use xlink:href="#m50b55e9f62" x="73.8" y="119.229285" style="fill: #ff0000; stroke: #ff0000; stroke-width: 1.75"/>
     <use xlink:href="#m50b55e9f62" x="87.75" y="119.229285" style="fill: #ff0000; stroke: #ff0000; stroke-width: 1.75"/>
     <use xlink:href="#m50b55e9f62" x="66.825" y="130.99857" style="fill: #ff0000; stroke: #ff0000; stroke-width: 1.75"/>
     <use xlink:href="#m50b55e9f62" x="80.775" y="130.99857" style="fill: #ff0000; stroke: #ff0000; stroke-width: 1.75"/>
    </g>
   </g>
   <g id="PathCollection_2">
    <defs>
     <path id="C0_0_969e2e8b95" d="M 0 2.738613 
C 0.726289 2.738613 1.422928 2.450055 1.936492 1.936492 
C 2.450055 1.422928 2.738613 0.726289 2.738613 -0 
C 2.738613 -0.726289 2.450055 -1.422928 1.936492 -1.936492 
C 1.422928 -2.450055 0.726289 -2.738613 0 -2.738613 
C -0.726289 -2.738613 -1.422928 -2.450055 -1.936492 -1.936492 
C -2.450055 -1.422928 -2.738613 -0.726289 -2.738613 0 
C -2.738613 0.726289 -2.450055 1.422928 -1.936492 1.936492 
C -1.422928 2.450055 -0.726289 2.738613 0 2.738613 
z
"/>
    </defs>
    <g clip-path="url(#pcd9e4beae0)">
     <use xlink:href="#C0_0_969e2e8b95" x="66.825" y="83.92143" style="fill: none; stroke: #ff0000; stroke-width: 1.75"/>
    </g>
    <g clip-path="url(#pcd9e4beae0)">
     <use xlink:href="#C0_0_969e2e8b95" x="80.775" y="83.92143" style="fill: none; stroke: #ff0000; stroke-width: 1.75"/>
    </g>
    <g clip-path="url(#pcd9e4beae0)">
     <use xlink:href="#C0_0_969e2e8b95" x="59.85" y="95.690715" style="fill: none; stroke: #ff0000; stroke-width: 1.75"/>
    </g>
    <g clip-path="url(#pcd9e4beae0)">
     <use xlink:href="#C0_0_969e2e8b95" x="73.8" y="95.690715" style="fill: none; stroke: #ff0000; stroke-width: 1.75"/>
    </g>
    <g clip-path="url(#pcd9e4beae0)">
     <use xlink:href="#C0_0_969e2e8b95" x="87.75" y="95.690715" style="fill: none; stroke: #ff0000; stroke-width: 1.75"/>
    </g>
    <g clip-path="url(#pcd9e4beae0)">
     <use xlink:href="#C0_0_969e2e8b95" x="52.875" y="107.46" style="fill: none; stroke: #ff0000; stroke-width: 1.75"/>
    </g>
    <g clip-path="url(#pcd9e4beae0)">
     <use xlink:href="#C0_0_969e2e8b95" x="66.825" y="107.46" style="fill: none; stroke: #ff0000; stroke-width: 1.75"/>
    </g>
   </g>
   <g id="PathCollection_3">
    <path d="M 114.583694 109.446048 
C 114.975212 109.446048 115.350747 109.290496 115.627592 109.013651 
C 115.904438 108.736806 116.05999 108.361271 116.05999 107.969752 
C 116.05999 107.578234 115.904438 107.202699 115.627592 106.925854 
C 115.350747 106.649008 114.975212 106.493456 114.583694 106.493456 
C 114.192175 106.493456 113.81664 106.649008 113.539795 106.925854 
C 113.26295 107.202699 113.107398 107.578234 113.107398 107.969752 
C 113.107398 108.361271 113.26295 108.736806 113.539795 109.013651 
C 113.81664 109.290496 114.192175 109.446048 114.583694 109.446048 
z
" clip-path="url(#pcd9e4beae0)" style="stroke: #000000"/>
    <path d="M 113.538817 101.988586 
C 114.242705 101.988586 114.917859 101.708928 115.415583 101.211204 
C 115.913307 100.71348 116.192965 100.038326 116.192965 99.334438 
C 116.192965 98.63055 115.913307 97.955396 115.415583 97.457672 
C 114.917859 96.959948 114.242705 96.68029 113.538817 96.68029 
C 112.834928 96.68029 112.159775 96.959948 111.662051 97.457672 
C 111.164327 97.955396 110.884669 98.63055 110.884669 99.334438 
C 110.884669 100.038326 111.164327 100.71348 111.662051 101.211204 
C 112.159775 101.708928 112.834928 101.988586 113.538817 101.988586 
z
" clip-path="url(#pcd9e4beae0)" style="stroke: #000000"/>
    <path d="M 109.849647 92.073819 
C 110.443029 92.073819 111.012188 91.838066 111.431773 91.418481 
C 111.851358 90.998896 112.087111 90.429737 112.087111 89.836355 
C 112.087111 89.242972 111.851358 88.673813 111.431773 88.254229 
C 111.012188 87.834644 110.443029 87.598891 109.849647 87.598891 
C 109.256265 87.598891 108.687106 87.834644 108.267521 88.254229 
C 107.847936 88.673813 107.612183 89.242972 107.612183 89.836355 
C 107.612183 90.429737 107.847936 90.998896 108.267521 91.418481 
C 108.687106 91.838066 109.256265 92.073819 109.849647 92.073819 
z
" clip-path="url(#pcd9e4beae0)" style="stroke: #000000"/>
    <path d="M 104.703081 78.659673 
C 105.296093 78.659673 105.864897 78.424067 106.28422 78.004744 
C 106.703543 77.585421 106.939149 77.016617 106.939149 76.423605 
C 106.939149 75.830593 106.703543 75.261789 106.28422 74.842466 
C 105.864897 74.423144 105.296093 74.187537 104.703081 74.187537 
C 104.110069 74.187537 103.541265 74.423144 103.121942 74.842466 
C 102.702619 75.261789 102.467013 75.830593 102.467013 76.423605 
C 102.467013 77.016617 102.702619 77.585421 103.121942 78.004744 
C 103.541265 78.424067 104.110069 78.659673 104.703081 78.659673 
z
" clip-path="url(#pcd9e4beae0)" style="stroke: #000000"/>
    <path d="M 100.135534 73.332215 
C 100.728546 73.332215 101.29735 73.096609 101.716673 72.677286 
C 102.135996 72.257963 102.371602 71.689159 102.371602 71.096147 
C 102.371602 70.503135 102.135996 69.934331 101.716673 69.515008 
C 101.29735 69.095685 100.728546 68.860079 100.135534 68.860079 
C 99.542522 68.860079 98.973718 69.095685 98.554395 69.515008 
C 98.135072 69.934331 97.899466 70.503135 97.899466 71.096147 
C 97.899466 71.689159 98.135072 72.257963 98.554395 72.677286 
C 98.973718 73.096609 99.542522 73.332215 100.135534 73.332215 
z
" clip-path="url(#pcd9e4beae0)" style="stroke: #000000"/>
    <path d="M 94.700942 61.388052 
C 95.293954 61.388052 95.862757 61.152445 96.28208 60.733122 
C 96.701403 60.3138 96.93701 59.744996 96.93701 59.151984 
C 96.93701 58.558971 96.701403 57.990168 96.28208 57.570845 
C 95.862757 57.151522 95.293954 56.915916 94.700942 56.915916 
C 94.107929 56.915916 93.539126 57.151522 93.119803 57.570845 
C 92.70048 57.990168 92.464874 58.558971 92.464874 59.151984 
C 92.464874 59.744996 92.70048 60.3138 93.119803 60.733122 
C 93.539126 61.152445 94.107929 61.388052 94.700942 61.388052 
z
" clip-path="url(#pcd9e4beae0)" style="stroke: #000000"/>
    <path d="M 90.288723 45.649504 
C 90.881735 45.649504 91.450539 45.413898 91.869862 44.994575 
C 92.289185 44.575252 92.524791 44.006448 92.524791 43.413436 
C 92.524791 42.820424 92.289185 42.25162 91.869862 41.832297 
C 91.450539 41.412974 90.881735 41.177368 90.288723 41.177368 
C 89.695711 41.177368 89.126907 41.412974 88.707584 41.832297 
C 88.288261 42.25162 88.052655 42.820424 88.052655 43.413436 
C 88.052655 44.006448 88.288261 44.575252 88.707584 44.994575 
C 89.126907 45.413898 89.695711 45.649504 90.288723 45.649504 
z
" clip-path="url(#pcd9e4beae0)" style="stroke: #000000"/>
    <path d="M 104.552852 116.695304 
C 105.258287 116.695304 105.934923 116.415032 106.433741 115.916214 
C 106.932558 115.417397 107.212831 114.74076 107.212831 114.035325 
C 107.212831 113.329891 106.932558 112.653254 106.433741 112.154437 
C 105.934923 111.655619 105.258287 111.375347 104.552852 111.375347 
C 103.847417 111.375347 103.170781 111.655619 102.671963 112.154437 
C 102.173146 112.653254 101.892873 113.329891 101.892873 114.035325 
C 101.892873 114.74076 102.173146 115.417397 102.671963 115.916214 
C 103.170781 116.415032 103.847417 116.695304 104.552852 116.695304 
z
" clip-path="url(#pcd9e4beae0)" style="stroke: #000000"/>
    <path d="M 100.165759 103.006182 
C 100.725717 103.006182 101.262815 102.783709 101.658766 102.387759 
C 102.054716 101.991809 102.277189 101.45471 102.277189 100.894752 
C 102.277189 100.334794 102.054716 99.797695 101.658766 99.401745 
C 101.262815 99.005795 100.725717 98.783321 100.165759 98.783321 
C 99.605801 98.783321 99.068702 99.005795 98.672752 99.401745 
C 98.276802 99.797695 98.054328 100.334794 98.054328 100.894752 
C 98.054328 101.45471 98.276802 101.991809 98.672752 102.387759 
C 99.068702 102.783709 99.605801 103.006182 100.165759 103.006182 
z
" clip-path="url(#pcd9e4beae0)" style="stroke: #000000"/>
    <path d="M 95.980206 86.244661 
C 96.685421 86.244661 97.361846 85.964477 97.860508 85.465815 
C 98.35917 84.967153 98.639354 84.290727 98.639354 83.585513 
C 98.639354 82.880299 98.35917 82.203873 97.860508 81.705212 
C 97.361846 81.20655 96.685421 80.926365 95.980206 80.926365 
C 95.274992 80.926365 94.598567 81.20655 94.099905 81.705212 
C 93.601243 82.203873 93.321059 82.880299 93.321059 83.585513 
C 93.321059 84.290727 93.601243 84.967153 94.099905 85.465815 
C 94.598567 85.964477 95.274992 86.244661 95.980206 86.244661 
z
" clip-path="url(#pcd9e4beae0)" style="stroke: #000000"/>
    <path d="M 88.722136 73.512871 
C 89.076493 73.512871 89.416384 73.372084 89.666952 73.121516 
C 89.917521 72.870947 90.058308 72.531056 90.058308 72.176699 
C 90.058308 71.822342 89.917521 71.482451 89.666952 71.231882 
C 89.416384 70.981314 89.076493 70.840526 88.722136 70.840526 
C 88.367779 70.840526 88.027887 70.981314 87.777319 71.231882 
C 87.526751 71.482451 87.385963 71.822342 87.385963 72.176699 
C 87.385963 72.531056 87.526751 72.870947 87.777319 73.121516 
C 88.027887 73.372084 88.367779 73.512871 88.722136 73.512871 
z
" clip-path="url(#pcd9e4beae0)" style="stroke: #000000"/>
    <path d="M 84.585762 64.233268 
C 85.178774 64.233268 85.747578 63.997662 86.166901 63.578339 
C 86.586224 63.159016 86.82183 62.590212 86.82183 61.9972 
C 86.82183 61.404188 86.586224 60.835384 86.166901 60.416061 
C 85.747578 59.996738 85.178774 59.761132 84.585762 59.761132 
C 83.99275 59.761132 83.423946 59.996738 83.004623 60.416061 
C 82.5853 60.835384 82.349694 61.404188 82.349694 61.9972 
C 82.349694 62.590212 82.5853 63.159016 83.004623 63.578339 
C 83.423946 63.997662 83.99275 64.233268 84.585762 64.233268 
z
" clip-path="url(#pcd9e4beae0)" style="stroke: #000000"/>
    <path d="M 78.786689 52.345719 
C 79.379702 52.345719 79.948505 52.110113 80.367828 51.69079 
C 80.787151 51.271467 81.022757 50.702663 81.022757 50.109651 
C 81.022757 49.516639 80.787151 48.947835 80.367828 48.528512 
C 79.948505 48.109189 79.379702 47.873583 78.786689 47.873583 
C 78.193677 47.873583 77.624873 48.109189 77.205551 48.528512 
C 76.786228 48.947835 76.550621 49.516639 76.550621 50.109651 
C 76.550621 50.702663 76.786228 51.271467 77.205551 51.69079 
C 77.624873 52.110113 78.193677 52.345719 78.786689 52.345719 
z
" clip-path="url(#pcd9e4beae0)" style="stroke: #000000"/>
    <path d="M 75.381983 36.790879 
C 75.974995 36.790879 76.543799 36.555273 76.963122 36.13595 
C 77.382444 35.716627 77.618051 35.147824 77.618051 34.554812 
C 77.618051 33.961799 77.382444 33.392996 76.963122 32.973673 
C 76.543799 32.55435 75.974995 32.318744 75.381983 32.318744 
C 74.788971 32.318744 74.220167 32.55435 73.800844 32.973673 
C 73.381521 33.392996 73.145915 33.961799 73.145915 34.554812 
C 73.145915 35.147824 73.381521 35.716627 73.800844 36.13595 
C 74.220167 36.555273 74.788971 36.790879 75.381983 36.790879 
z
" clip-path="url(#pcd9e4beae0)" style="stroke: #000000"/>
    <path d="M 114.467865 170.784561 
C 115.061247 170.784561 115.630406 170.548808 116.049991 170.129223 
C 116.469576 169.709639 116.705329 169.14048 116.705329 168.547097 
C 116.705329 167.953715 116.469576 167.384556 116.049991 166.964971 
C 115.630406 166.545386 115.061247 166.309633 114.467865 166.309633 
C 113.874482 166.309633 113.305323 166.545386 112.885739 166.964971 
C 112.466154 167.384556 112.230401 167.953715 112.230401 168.547097 
C 112.230401 169.14048 112.466154 169.709639 112.885739 170.129223 
C 113.305323 170.548808 113.874482 170.784561 114.467865 170.784561 
z
" clip-path="url(#pcd9e4beae0)" style="stroke: #000000"/>
    <path d="M 105.660472 157.583745 
C 106.255328 157.583745 106.825901 157.347406 107.246528 156.926779 
C 107.667156 156.506152 107.903495 155.935579 107.903495 155.340722 
C 107.903495 154.745865 107.667156 154.175292 107.246528 153.754665 
C 106.825901 153.334038 106.255328 153.097699 105.660472 153.097699 
C 105.065615 153.097699 104.495042 153.334038 104.074415 153.754665 
C 103.653787 154.175292 103.417448 154.745865 103.417448 155.340722 
C 103.417448 155.935579 103.653787 156.506152 104.074415 156.926779 
C 104.495042 157.347406 105.065615 157.583745 105.660472 157.583745 
z
" clip-path="url(#pcd9e4beae0)" style="stroke: #000000"/>
    <path d="M 102.022431 149.547281 
C 102.72003 149.547281 103.389151 149.270122 103.882428 148.776845 
C 104.375705 148.283568 104.652864 147.614447 104.652864 146.916848 
C 104.652864 146.21925 104.375705 145.550129 103.882428 145.056852 
C 103.389151 144.563575 102.72003 144.286416 102.022431 144.286416 
C 101.324832 144.286416 100.655711 144.563575 100.162435 145.056852 
C 99.669158 145.550129 99.391999 146.21925 99.391999 146.916848 
C 99.391999 147.614447 99.669158 148.283568 100.162435 148.776845 
C 100.655711 149.270122 101.324832 149.547281 102.022431 149.547281 
z
" clip-path="url(#pcd9e4beae0)" style="stroke: #000000"/>
    <path d="M 98.350769 137.904105 
C 99.056204 137.904105 99.732841 137.623833 100.231658 137.125015 
C 100.730476 136.626198 101.010748 135.949561 101.010748 135.244127 
C 101.010748 134.538692 100.730476 133.862055 100.231658 133.363238 
C 99.732841 132.86442 99.056204 132.584148 98.350769 132.584148 
C 97.645335 132.584148 96.968698 132.86442 96.469881 133.363238 
C 95.971063 133.862055 95.690791 134.538692 95.690791 135.244127 
C 95.690791 135.949561 95.971063 136.626198 96.469881 137.125015 
C 96.968698 137.623833 97.645335 137.904105 98.350769 137.904105 
z
" clip-path="url(#pcd9e4beae0)" style="stroke: #000000"/>
    <path d="M 98.624231 129.026048 
C 99.182863 129.026048 99.718691 128.804101 100.113704 128.409088 
C 100.508717 128.014075 100.730664 127.478247 100.730664 126.919615 
C 100.730664 126.360982 100.508717 125.825154 100.113704 125.430142 
C 99.718691 125.035129 99.182863 124.813182 98.624231 124.813182 
C 98.065598 124.813182 97.52977 125.035129 97.134758 125.430142 
C 96.739745 125.825154 96.517798 126.360982 96.517798 126.919615 
C 96.517798 127.478247 96.739745 128.014075 97.134758 128.409088 
C 97.52977 128.804101 98.065598 129.026048 98.624231 129.026048 
z
" clip-path="url(#pcd9e4beae0)" style="stroke: #000000"/>
    <path d="M 94.214171 118.654536 
C 94.807183 118.654536 95.375987 118.41893 95.79531 117.999607 
C 96.214632 117.580284 96.450239 117.01148 96.450239 116.418468 
C 96.450239 115.825456 96.214632 115.256652 95.79531 114.837329 
C 95.375987 114.418006 94.807183 114.1824 94.214171 114.1824 
C 93.621159 114.1824 93.052355 114.418006 92.633032 114.837329 
C 92.213709 115.256652 91.978103 115.825456 91.978103 116.418468 
C 91.978103 117.01148 92.213709 117.580284 92.633032 117.999607 
C 93.052355 118.41893 93.621159 118.654536 94.214171 118.654536 
z
" clip-path="url(#pcd9e4beae0)" style="stroke: #000000"/>
    <path d="M 85.928364 110.198741 
C 86.277391 110.198741 86.612169 110.060071 86.858969 109.813272 
C 87.105768 109.566472 87.244438 109.231694 87.244438 108.882667 
C 87.244438 108.53364 87.105768 108.198861 86.858969 107.952062 
C 86.612169 107.705263 86.277391 107.566593 85.928364 107.566593 
C 85.579337 107.566593 85.244558 107.705263 84.997759 107.952062 
C 84.75096 108.198861 84.61229 108.53364 84.61229 108.882667 
C 84.61229 109.231694 84.75096 109.566472 84.997759 109.813272 
C 85.244558 110.060071 85.579337 110.198741 85.928364 110.198741 
z
" clip-path="url(#pcd9e4beae0)" style="stroke: #000000"/>
    <path d="M 81.207001 87.099212 
C 81.705038 87.099212 82.182744 86.901339 82.53491 86.549174 
C 82.887075 86.197008 83.084948 85.719302 83.084948 85.221265 
C 83.084948 84.723228 82.887075 84.245522 82.53491 83.893356 
C 82.182744 83.541191 81.705038 83.343318 81.207001 83.343318 
C 80.708963 83.343318 80.231257 83.541191 79.879092 83.893356 
C 79.526926 84.245522 79.329054 84.723228 79.329054 85.221265 
C 79.329054 85.719302 79.526926 86.197008 79.879092 86.549174 
C 80.231257 86.901339 80.708963 87.099212 81.207001 87.099212 
z
" clip-path="url(#pcd9e4beae0)" style="stroke: #000000"/>
    <path d="M 77.311818 64.537005 
C 77.90483 64.537005 78.473634 64.301399 78.892957 63.882076 
C 79.31228 63.462753 79.547886 62.893949 79.547886 62.300937 
C 79.547886 61.707925 79.31228 61.139121 78.892957 60.719798 
C 78.473634 60.300475 77.90483 60.064869 77.311818 60.064869 
C 76.718806 60.064869 76.150002 60.300475 75.730679 60.719798 
C 75.311356 61.139121 75.07575 61.707925 75.07575 62.300937 
C 75.07575 62.893949 75.311356 63.462753 75.730679 63.882076 
C 76.150002 64.301399 76.718806 64.537005 77.311818 64.537005 
z
" clip-path="url(#pcd9e4beae0)" style="stroke: #000000"/>
    <path d="M 63.733553 46.803087 
C 64.08258 46.803087 64.417359 46.664417 64.664158 46.417618 
C 64.910957 46.170819 65.049627 45.83604 65.049627 45.487013 
C 65.049627 45.137986 64.910957 44.803208 64.664158 44.556408 
C 64.417359 44.309609 64.08258 44.170939 63.733553 44.170939 
C 63.384526 44.170939 63.049747 44.309609 62.802948 44.556408 
C 62.556149 44.803208 62.417479 45.137986 62.417479 45.487013 
C 62.417479 45.83604 62.556149 46.170819 62.802948 46.417618 
C 63.049747 46.664417 63.384526 46.803087 63.733553 46.803087 
z
" clip-path="url(#pcd9e4beae0)" style="stroke: #000000"/>
    <path d="M 61.452651 33.023288 
C 62.045663 33.023288 62.614467 32.787681 63.03379 32.368359 
C 63.453113 31.949036 63.688719 31.380232 63.688719 30.78722 
C 63.688719 30.194208 63.453113 29.625404 63.03379 29.206081 
C 62.614467 28.786758 62.045663 28.551152 61.452651 28.551152 
C 60.859639 28.551152 60.290835 28.786758 59.871512 29.206081 
C 59.452189 29.625404 59.216583 30.194208 59.216583 30.78722 
C 59.216583 31.380232 59.452189 31.949036 59.871512 32.368359 
C 60.290835 32.787681 60.859639 33.023288 61.452651 33.023288 
z
" clip-path="url(#pcd9e4beae0)" style="stroke: #000000"/>
    <path d="M 102.321707 175.004675 
C 102.915089 175.004675 103.484248 174.768921 103.903833 174.349337 
C 104.323417 173.929752 104.559171 173.360593 104.559171 172.76721 
C 104.559171 172.173828 104.323417 171.604669 103.903833 171.185084 
C 103.484248 170.7655 102.915089 170.529746 102.321707 170.529746 
C 101.728324 170.529746 101.159165 170.7655 100.73958 171.185084 
C 100.319996 171.604669 100.084242 172.173828 100.084242 172.76721 
C 100.084242 173.360593 100.319996 173.929752 100.73958 174.349337 
C 101.159165 174.768921 101.728324 175.004675 102.321707 175.004675 
z
" clip-path="url(#pcd9e4beae0)" style="stroke: #000000"/>
    <path d="M 95.943327 162.887453 
C 96.552014 162.887453 97.135853 162.645618 97.56626 162.215211 
C 97.996667 161.784804 98.238501 161.200965 98.238501 160.592278 
C 98.238501 159.98359 97.996667 159.399751 97.56626 158.969344 
C 97.135853 158.538937 96.552014 158.297103 95.943327 158.297103 
C 95.334639 158.297103 94.7508 158.538937 94.320393 158.969344 
C 93.889986 159.399751 93.648152 159.98359 93.648152 160.592278 
C 93.648152 161.200965 93.889986 161.784804 94.320393 162.215211 
C 94.7508 162.645618 95.334639 162.887453 95.943327 162.887453 
z
" clip-path="url(#pcd9e4beae0)" style="stroke: #000000"/>
    <path d="M 94.928142 152.25925 
C 95.632915 152.25925 96.308918 151.979241 96.807267 151.480891 
C 97.305617 150.982541 97.585627 150.306539 97.585627 149.601766 
C 97.585627 148.896993 97.305617 148.22099 96.807267 147.722641 
C 96.308918 147.224291 95.632915 146.944281 94.928142 146.944281 
C 94.223369 146.944281 93.547367 147.224291 93.049017 147.722641 
C 92.550667 148.22099 92.270658 148.896993 92.270658 149.601766 
C 92.270658 150.306539 92.550667 150.982541 93.049017 151.480891 
C 93.547367 151.979241 94.223369 152.25925 94.928142 152.25925 
z
" clip-path="url(#pcd9e4beae0)" style="stroke: #000000"/>
    <path d="M 91.02337 144.533275 
C 91.728584 144.533275 92.405009 144.25309 92.903671 143.754428 
C 93.402333 143.255766 93.682518 142.579341 93.682518 141.874127 
C 93.682518 141.168912 93.402333 140.492487 92.903671 139.993825 
C 92.405009 139.495163 91.728584 139.214979 91.02337 139.214979 
C 90.318155 139.214979 89.64173 139.495163 89.143068 139.993825 
C 88.644406 140.492487 88.364222 141.168912 88.364222 141.874127 
C 88.364222 142.579341 88.644406 143.255766 89.143068 143.754428 
C 89.64173 144.25309 90.318155 144.533275 91.02337 144.533275 
z
" clip-path="url(#pcd9e4beae0)" style="stroke: #000000"/>
    <path d="M 82.496118 135.699048 
C 83.030113 135.699048 83.542309 135.486889 83.919901 135.109297 
C 84.297493 134.731706 84.509652 134.219509 84.509652 133.685514 
C 84.509652 133.151519 84.297493 132.639322 83.919901 132.261731 
C 83.542309 131.884139 83.030113 131.67198 82.496118 131.67198 
C 81.962122 131.67198 81.449926 131.884139 81.072334 132.261731 
C 80.694743 132.639322 80.482584 133.151519 80.482584 133.685514 
C 80.482584 134.219509 80.694743 134.731706 81.072334 135.109297 
C 81.449926 135.486889 81.962122 135.699048 82.496118 135.699048 
z
" clip-path="url(#pcd9e4beae0)" style="stroke: #000000"/>
    <path d="M 86.103442 122.553925 
C 86.808876 122.553925 87.485513 122.273653 87.98433 121.774835 
C 88.483148 121.276018 88.76342 120.599381 88.76342 119.893946 
C 88.76342 119.188512 88.483148 118.511875 87.98433 118.013058 
C 87.485513 117.51424 86.808876 117.233968 86.103442 117.233968 
C 85.398007 117.233968 84.72137 117.51424 84.222553 118.013058 
C 83.723735 118.511875 83.443463 119.188512 83.443463 119.893946 
C 83.443463 120.599381 83.723735 121.276018 84.222553 121.774835 
C 84.72137 122.273653 85.398007 122.553925 86.103442 122.553925 
z
" clip-path="url(#pcd9e4beae0)" style="stroke: #000000"/>
    <path d="M 77.13128 110.03284 
C 77.836715 110.03284 78.513351 109.752568 79.012169 109.253751 
C 79.510986 108.754933 79.791259 108.078296 79.791259 107.372862 
C 79.791259 106.667427 79.510986 105.99079 79.012169 105.491973 
C 78.513351 104.993155 77.836715 104.712883 77.13128 104.712883 
C 76.425845 104.712883 75.749209 104.993155 75.250391 105.491973 
C 74.751574 105.99079 74.471301 106.667427 74.471301 107.372862 
C 74.471301 108.078296 74.751574 108.754933 75.250391 109.253751 
C 75.749209 109.752568 76.425845 110.03284 77.13128 110.03284 
z
" clip-path="url(#pcd9e4beae0)" style="stroke: #000000"/>
    <path d="M 77.96754 101.501671 
C 78.672974 101.501671 79.349611 101.221398 79.848429 100.722581 
C 80.347246 100.223763 80.627518 99.547127 80.627518 98.841692 
C 80.627518 98.136257 80.347246 97.459621 79.848429 96.960803 
C 79.349611 96.461986 78.672974 96.181713 77.96754 96.181713 
C 77.262105 96.181713 76.585469 96.461986 76.086651 96.960803 
C 75.587833 97.459621 75.307561 98.136257 75.307561 98.841692 
C 75.307561 99.547127 75.587833 100.223763 76.086651 100.722581 
C 76.585469 101.221398 77.262105 101.501671 77.96754 101.501671 
z
" clip-path="url(#pcd9e4beae0)" style="stroke: #000000"/>
    <path d="M 72.619707 94.088799 
C 73.213089 94.088799 73.782248 93.853046 74.201833 93.433461 
C 74.621418 93.013876 74.857171 92.444717 74.857171 91.851335 
C 74.857171 91.257952 74.621418 90.688793 74.201833 90.269209 
C 73.782248 89.849624 73.213089 89.61387 72.619707 89.61387 
C 72.026324 89.61387 71.457165 89.849624 71.037581 90.269209 
C 70.617996 90.688793 70.382242 91.257952 70.382242 91.851335 
C 70.382242 92.444717 70.617996 93.013876 71.037581 93.433461 
C 71.457165 93.853046 72.026324 94.088799 72.619707 94.088799 
z
" clip-path="url(#pcd9e4beae0)" style="stroke: #000000"/>
    <path d="M 73.260253 84.945711 
C 73.965687 84.945711 74.642324 84.665439 75.141142 84.166621 
C 75.639959 83.667804 75.920231 82.991167 75.920231 82.285733 
C 75.920231 81.580298 75.639959 80.903661 75.141142 80.404844 
C 74.642324 79.906026 73.965687 79.625754 73.260253 79.625754 
C 72.554818 79.625754 71.878181 79.906026 71.379364 80.404844 
C 70.880546 80.903661 70.600274 81.580298 70.600274 82.285733 
C 70.600274 82.991167 70.880546 83.667804 71.379364 84.166621 
C 71.878181 84.665439 72.554818 84.945711 73.260253 84.945711 
z
" clip-path="url(#pcd9e4beae0)" style="stroke: #000000"/>
    <path d="M 63.982717 59.154316 
C 64.57573 59.154316 65.144533 58.91871 65.563856 58.499387 
C 65.983179 58.080064 66.218785 57.51126 66.218785 56.918248 
C 66.218785 56.325236 65.983179 55.756432 65.563856 55.337109 
C 65.144533 54.917786 64.57573 54.68218 63.982717 54.68218 
C 63.389705 54.68218 62.820902 54.917786 62.401579 55.337109 
C 61.982256 55.756432 61.746649 56.325236 61.746649 56.918248 
C 61.746649 57.51126 61.982256 58.080064 62.401579 58.499387 
C 62.820902 58.91871 63.389705 59.154316 63.982717 59.154316 
z
" clip-path="url(#pcd9e4beae0)" style="stroke: #000000"/>
    <path d="M 53.557649 39.846061 
C 53.799137 39.846061 54.030768 39.750116 54.201526 39.579358 
C 54.372284 39.4086 54.468229 39.176969 54.468229 38.935481 
C 54.468229 38.693992 54.372284 38.462361 54.201526 38.291603 
C 54.030768 38.120845 53.799137 38.0249 53.557649 38.0249 
C 53.31616 38.0249 53.08453 38.120845 52.913771 38.291603 
C 52.743013 38.462361 52.647069 38.693992 52.647069 38.935481 
C 52.647069 39.176969 52.743013 39.4086 52.913771 39.579358 
C 53.08453 39.750116 53.31616 39.846061 53.557649 39.846061 
z
" clip-path="url(#pcd9e4beae0)" style="stroke: #000000"/>
    <path d="M 75.851835 134.210855 
C 76.444847 134.210855 77.01365 133.975249 77.432973 133.555926 
C 77.852296 133.136603 78.087903 132.567799 78.087903 131.974787 
C 78.087903 131.381775 77.852296 130.812971 77.432973 130.393648 
C 77.01365 129.974325 76.444847 129.738719 75.851835 129.738719 
C 75.258822 129.738719 74.690019 129.974325 74.270696 130.393648 
C 73.851373 130.812971 73.615767 131.381775 73.615767 131.974787 
C 73.615767 132.567799 73.851373 133.136603 74.270696 133.555926 
C 74.690019 133.975249 75.258822 134.210855 75.851835 134.210855 
z
" clip-path="url(#pcd9e4beae0)" style="stroke: #000000"/>
    <path d="M 73.344146 123.849776 
C 73.531672 123.849776 73.711544 123.775271 73.844146 123.642669 
C 73.976747 123.510067 74.051252 123.330196 74.051252 123.142669 
C 74.051252 122.955142 73.976747 122.775271 73.844146 122.642669 
C 73.711544 122.510067 73.531672 122.435562 73.344146 122.435562 
C 73.156619 122.435562 72.976747 122.510067 72.844146 122.642669 
C 72.711544 122.775271 72.637039 122.955142 72.637039 123.142669 
C 72.637039 123.330196 72.711544 123.510067 72.844146 123.642669 
C 72.976747 123.775271 73.156619 123.849776 73.344146 123.849776 
z
" clip-path="url(#pcd9e4beae0)" style="stroke: #000000"/>
    <path d="M 61.245077 97.398211 
C 61.83846 97.398211 62.407619 97.162458 62.827203 96.742873 
C 63.246788 96.323288 63.482542 95.754129 63.482542 95.160747 
C 63.482542 94.567365 63.246788 93.998206 62.827203 93.578621 
C 62.407619 93.159036 61.83846 92.923283 61.245077 92.923283 
C 60.651695 92.923283 60.082536 93.159036 59.662951 93.578621 
C 59.243366 93.998206 59.007613 94.567365 59.007613 95.160747 
C 59.007613 95.754129 59.243366 96.323288 59.662951 96.742873 
C 60.082536 97.162458 60.651695 97.398211 61.245077 97.398211 
z
" clip-path="url(#pcd9e4beae0)" style="stroke: #000000"/>
    <path d="M 60.161563 87.590823 
C 60.866998 87.590823 61.543635 87.310551 62.042452 86.811734 
C 62.54127 86.312916 62.821542 85.636279 62.821542 84.930845 
C 62.821542 84.22541 62.54127 83.548774 62.042452 83.049956 
C 61.543635 82.551138 60.866998 82.270866 60.161563 82.270866 
C 59.456129 82.270866 58.779492 82.551138 58.280675 83.049956 
C 57.781857 83.548774 57.501585 84.22541 57.501585 84.930845 
C 57.501585 85.636279 57.781857 86.312916 58.280675 86.811734 
C 58.779492 87.310551 59.456129 87.590823 60.161563 87.590823 
z
" clip-path="url(#pcd9e4beae0)" style="stroke: #000000"/>
    <path d="M 69.163467 159.533833 
C 69.296069 159.533833 69.423257 159.48115 69.517021 159.387386 
C 69.610784 159.293623 69.663467 159.166434 69.663467 159.033833 
C 69.663467 158.901231 69.610784 158.774043 69.517021 158.680279 
C 69.423257 158.586516 69.296069 158.533833 69.163467 158.533833 
C 69.030866 158.533833 68.903677 158.586516 68.809914 158.680279 
C 68.716151 158.774043 68.663467 158.901231 68.663467 159.033833 
C 68.663467 159.166434 68.716151 159.293623 68.809914 159.387386 
C 68.903677 159.48115 69.030866 159.533833 69.163467 159.533833 
z
" clip-path="url(#pcd9e4beae0)" style="stroke: #000000"/>
    <path d="M 67.213407 139.65901 
C 67.918842 139.65901 68.595478 139.378738 69.094296 138.87992 
C 69.593113 138.381103 69.873386 137.704466 69.873386 136.999031 
C 69.873386 136.293597 69.593113 135.61696 69.094296 135.118143 
C 68.595478 134.619325 67.918842 134.339053 67.213407 134.339053 
C 66.507972 134.339053 65.831336 134.619325 65.332518 135.118143 
C 64.833701 135.61696 64.553428 136.293597 64.553428 136.999031 
C 64.553428 137.704466 64.833701 138.381103 65.332518 138.87992 
C 65.831336 139.378738 66.507972 139.65901 67.213407 139.65901 
z
" clip-path="url(#pcd9e4beae0)" style="stroke: #000000"/>
    <path d="M 60.087019 132.280987 
C 60.792454 132.280987 61.46909 132.000715 61.967908 131.501898 
C 62.466725 131.00308 62.746998 130.326443 62.746998 129.621009 
C 62.746998 128.915574 62.466725 128.238937 61.967908 127.74012 
C 61.46909 127.241302 60.792454 126.96103 60.087019 126.96103 
C 59.381584 126.96103 58.704948 127.241302 58.20613 127.74012 
C 57.707313 128.238937 57.42704 128.915574 57.42704 129.621009 
C 57.42704 130.326443 57.707313 131.00308 58.20613 131.501898 
C 58.704948 132.000715 59.381584 132.280987 60.087019 132.280987 
z
" clip-path="url(#pcd9e4beae0)" style="stroke: #000000"/>
    <path d="M 58.993056 116.567447 
C 59.557795 116.567447 60.09948 116.343074 60.49881 115.943744 
C 60.898141 115.544413 61.122514 115.002729 61.122514 114.43799 
C 61.122514 113.873251 60.898141 113.331567 60.49881 112.932236 
C 60.09948 112.532905 59.557795 112.308532 58.993056 112.308532 
C 58.428318 112.308532 57.886633 112.532905 57.487302 112.932236 
C 57.087972 113.331567 56.863599 113.873251 56.863599 114.43799 
C 56.863599 115.002729 57.087972 115.544413 57.487302 115.943744 
C 57.886633 116.343074 58.428318 116.567447 58.993056 116.567447 
z
" clip-path="url(#pcd9e4beae0)" style="stroke: #000000"/>
    <path d="M 48.64347 95.699792 
C 49.348684 95.699792 50.02511 95.419608 50.523772 94.920946 
C 51.022433 94.422284 51.302618 93.745859 51.302618 93.040645 
C 51.302618 92.33543 51.022433 91.659005 50.523772 91.160343 
C 50.02511 90.661681 49.348684 90.381497 48.64347 90.381497 
C 47.938256 90.381497 47.26183 90.661681 46.763168 91.160343 
C 46.264507 91.659005 45.984322 92.33543 45.984322 93.040645 
C 45.984322 93.745859 46.264507 94.422284 46.763168 94.920946 
C 47.26183 95.419608 47.938256 95.699792 48.64347 95.699792 
z
" clip-path="url(#pcd9e4beae0)" style="stroke: #000000"/>
    <path d="M 47.004396 88.751757 
C 47.70961 88.751757 48.386035 88.471572 48.884697 87.972911 
C 49.383359 87.474249 49.663544 86.797823 49.663544 86.092609 
C 49.663544 85.387395 49.383359 84.710969 48.884697 84.212308 
C 48.386035 83.713646 47.70961 83.433461 47.004396 83.433461 
C 46.299181 83.433461 45.622756 83.713646 45.124094 84.212308 
C 44.625432 84.710969 44.345248 85.387395 44.345248 86.092609 
C 44.345248 86.797823 44.625432 87.474249 45.124094 87.972911 
C 45.622756 88.471572 46.299181 88.751757 47.004396 88.751757 
z
" clip-path="url(#pcd9e4beae0)" style="stroke: #000000"/>
    <path d="M 39.078823 78.405887 
C 39.671835 78.405887 40.240639 78.170281 40.659962 77.750958 
C 41.079285 77.331635 41.314891 76.762832 41.314891 76.169819 
C 41.314891 75.576807 41.079285 75.008004 40.659962 74.588681 
C 40.240639 74.169358 39.671835 73.933752 39.078823 73.933752 
C 38.485811 73.933752 37.917007 74.169358 37.497684 74.588681 
C 37.078362 75.008004 36.842755 75.576807 36.842755 76.169819 
C 36.842755 76.762832 37.078362 77.331635 37.497684 77.750958 
C 37.917007 78.170281 38.485811 78.405887 39.078823 78.405887 
z
" clip-path="url(#pcd9e4beae0)" style="stroke: #000000"/>
    <path d="M 67.306816 173.233568 
C 67.899828 173.233568 68.468632 172.997962 68.887955 172.578639 
C 69.307278 172.159316 69.542884 171.590512 69.542884 170.9975 
C 69.542884 170.404488 69.307278 169.835684 68.887955 169.416361 
C 68.468632 168.997038 67.899828 168.761432 67.306816 168.761432 
C 66.713804 168.761432 66.145 168.997038 65.725677 169.416361 
C 65.306354 169.835684 65.070748 170.404488 65.070748 170.9975 
C 65.070748 171.590512 65.306354 172.159316 65.725677 172.578639 
C 66.145 172.997962 66.713804 173.233568 67.306816 173.233568 
z
" clip-path="url(#pcd9e4beae0)" style="stroke: #000000"/>
    <path d="M 56.795638 154.744319 
C 57.458911 154.744319 58.095107 154.480798 58.564112 154.011793 
C 59.033117 153.542788 59.296638 152.906592 59.296638 152.243319 
C 59.296638 151.580046 59.033117 150.94385 58.564112 150.474846 
C 58.095107 150.005841 57.458911 149.74232 56.795638 149.74232 
C 56.132366 149.74232 55.49617 150.005841 55.027165 150.474846 
C 54.55816 150.94385 54.294639 151.580046 54.294639 152.243319 
C 54.294639 152.906592 54.55816 153.542788 55.027165 154.011793 
C 55.49617 154.480798 56.132366 154.744319 56.795638 154.744319 
z
" clip-path="url(#pcd9e4beae0)" style="stroke: #000000"/>
    <path d="M 49.486676 140.854069 
C 50.19189 140.854069 50.868316 140.573884 51.366978 140.075223 
C 51.865639 139.576561 52.145824 138.900135 52.145824 138.194921 
C 52.145824 137.489707 51.865639 136.813281 51.366978 136.314619 
C 50.868316 135.815958 50.19189 135.535773 49.486676 135.535773 
C 48.781462 135.535773 48.105036 135.815958 47.606374 136.314619 
C 47.107713 136.813281 46.827528 137.489707 46.827528 138.194921 
C 46.827528 138.900135 47.107713 139.576561 47.606374 140.075223 
C 48.105036 140.573884 48.781462 140.854069 49.486676 140.854069 
z
" clip-path="url(#pcd9e4beae0)" style="stroke: #000000"/>
    <path d="M 44.970759 121.175813 
C 45.676193 121.175813 46.35283 120.895541 46.851648 120.396723 
C 47.350465 119.897906 47.630737 119.221269 47.630737 118.515835 
C 47.630737 117.8104 47.350465 117.133763 46.851648 116.634946 
C 46.35283 116.136128 45.676193 115.855856 44.970759 115.855856 
C 44.265324 115.855856 43.588687 116.136128 43.08987 116.634946 
C 42.591052 117.133763 42.31078 117.8104 42.31078 118.515835 
C 42.31078 119.221269 42.591052 119.897906 43.08987 120.396723 
C 43.588687 120.895541 44.265324 121.175813 44.970759 121.175813 
z
" clip-path="url(#pcd9e4beae0)" style="stroke: #000000"/>
    <path d="M 34.800361 92.264486 
C 35.459355 92.264486 36.091446 92.002665 36.557425 91.536686 
C 37.023403 91.070708 37.285224 90.438616 37.285224 89.779623 
C 37.285224 89.120629 37.023403 88.488538 36.557425 88.022559 
C 36.091446 87.55658 35.459355 87.29476 34.800361 87.29476 
C 34.141368 87.29476 33.509276 87.55658 33.043298 88.022559 
C 32.577319 88.488538 32.315498 89.120629 32.315498 89.779623 
C 32.315498 90.438616 32.577319 91.070708 33.043298 91.536686 
C 33.509276 92.002665 34.141368 92.264486 34.800361 92.264486 
z
" clip-path="url(#pcd9e4beae0)" style="stroke: #000000"/>
    <path d="M 34.033423 82.180479 
C 34.626436 82.180479 35.195239 81.944873 35.614562 81.52555 
C 36.033885 81.106227 36.269491 80.537423 36.269491 79.944411 
C 36.269491 79.351399 36.033885 78.782595 35.614562 78.363272 
C 35.195239 77.94395 34.626436 77.708343 34.033423 77.708343 
C 33.440411 77.708343 32.871608 77.94395 32.452285 78.363272 
C 32.032962 78.782595 31.797355 79.351399 31.797355 79.944411 
C 31.797355 80.537423 32.032962 81.106227 32.452285 81.52555 
C 32.871608 81.944873 33.440411 82.180479 34.033423 82.180479 
z
" clip-path="url(#pcd9e4beae0)" style="stroke: #000000"/>
    <path d="M 50.700238 164.668204 
C 51.293621 164.668204 51.86278 164.432451 52.282364 164.012866 
C 52.701949 163.593281 52.937703 163.024122 52.937703 162.43074 
C 52.937703 161.837357 52.701949 161.268198 52.282364 160.848614 
C 51.86278 160.429029 51.293621 160.193276 50.700238 160.193276 
C 50.106856 160.193276 49.537697 160.429029 49.118112 160.848614 
C 48.698527 161.268198 48.462774 161.837357 48.462774 162.43074 
C 48.462774 163.024122 48.698527 163.593281 49.118112 164.012866 
C 49.537697 164.432451 50.106856 164.668204 50.700238 164.668204 
z
" clip-path="url(#pcd9e4beae0)" style="stroke: #000000"/>
    <path d="M 42.214328 138.599861 
C 42.919543 138.599861 43.595968 138.319676 44.09463 137.821014 
C 44.593292 137.322353 44.873476 136.645927 44.873476 135.940713 
C 44.873476 135.235499 44.593292 134.559073 44.09463 134.060411 
C 43.595968 133.561749 42.919543 133.281565 42.214328 133.281565 
C 41.509114 133.281565 40.832689 133.561749 40.334027 134.060411 
C 39.835365 134.559073 39.555181 135.235499 39.555181 135.940713 
C 39.555181 136.645927 39.835365 137.322353 40.334027 137.821014 
C 40.832689 138.319676 41.509114 138.599861 42.214328 138.599861 
z
" clip-path="url(#pcd9e4beae0)" style="stroke: #000000"/>
    <path d="M 34.200141 150.790553 
C 34.793153 150.790553 35.361957 150.554947 35.781279 150.135624 
C 36.200602 149.716301 36.436209 149.147497 36.436209 148.554485 
C 36.436209 147.961473 36.200602 147.392669 35.781279 146.973346 
C 35.361957 146.554023 34.793153 146.318417 34.200141 146.318417 
C 33.607128 146.318417 33.038325 146.554023 32.619002 146.973346 
C 32.199679 147.392669 31.964073 147.961473 31.964073 148.554485 
C 31.964073 149.147497 32.199679 149.716301 32.619002 150.135624 
C 33.038325 150.554947 33.607128 150.790553 34.200141 150.790553 
z
" clip-path="url(#pcd9e4beae0)" style="stroke: #000000"/>
   </g>
   <g id="matplotlib.axis_1">
    <g id="xtick_1">
     <g id="line2d_1">
      <defs>
       <path id="m8886e7dbaa" d="M 0 0 
L 0 3.5 
" style="stroke: #000000; stroke-width: 0.8"/>
      </defs>
      <g>
       <use xlink:href="#m8886e7dbaa" x="18" y="189" style="stroke: #000000; stroke-width: 0.8"/>
      </g>
     </g>
     <g id="text_1">
      <!-- −10 -->
      <g transform="translate(7.447656 203.598437)scale(0.1 -0.1)">
       <defs>
        <path id="DejaVuSans-2212" d="M 678 2272 
L 4684 2272 
L 4684 1741 
L 678 1741 
L 678 2272 
z
" transform="scale(0.015625)"/>
        <path id="DejaVuSans-31" d="M 794 531 
L 1825 531 
L 1825 4091 
L 703 3866 
L 703 4441 
L 1819 4666 
L 2450 4666 
L 2450 531 
L 3481 531 
L 3481 0 
L 794 0 
L 794 531 
z
" transform="scale(0.015625)"/>
        <path id="DejaVuSans-30" d="M 2034 4250 
Q 1547 4250 1301 3770 
Q 1056 3291 1056 2328 
Q 1056 1369 1301 889 
Q 1547 409 2034 409 
Q 2525 409 2770 889 
Q 3016 1369 3016 2328 
Q 3016 3291 2770 3770 
Q 2525 4250 2034 4250 
z
M 2034 4750 
Q 2819 4750 3233 4129 
Q 3647 3509 3647 2328 
Q 3647 1150 3233 529 
Q 2819 -91 2034 -91 
Q 1250 -91 836 529 
Q 422 1150 422 2328 
Q 422 3509 836 4129 
Q 1250 4750 2034 4750 
z
" transform="scale(0.015625)"/>
       </defs>
       <use xlink:href="#DejaVuSans-2212"/>
       <use xlink:href="#DejaVuSans-31" x="83.789062"/>
       <use xlink:href="#DejaVuSans-30" x="147.412109"/>
      </g>
     </g>
    </g>
    <g id="xtick_2">
     <g id="line2d_2">
      <g>
       <use xlink:href="#m8886e7dbaa" x="73.8" y="189" style="stroke: #000000; stroke-width: 0.8"/>
      </g>
     </g>
     <g id="text_2">
      <!-- 0 -->
      <g transform="translate(70.61875 203.598437)scale(0.1 -0.1)">
       <use xlink:href="#DejaVuSans-30"/>
      </g>
     </g>
    </g>
    <g id="xtick_3">
     <g id="line2d_3">
      <g>
       <use xlink:href="#m8886e7dbaa" x="129.6" y="189" style="stroke: #000000; stroke-width: 0.8"/>
      </g>
     </g>
     <g id="text_3">
      <!-- 10 -->
      <g transform="translate(123.2375 203.598437)scale(0.1 -0.1)">
       <use xlink:href="#DejaVuSans-31"/>
       <use xlink:href="#DejaVuSans-30" x="63.623047"/>
      </g>
     </g>
    </g>
   </g>
   <g id="matplotlib.axis_2">
    <g id="ytick_1">
     <g id="line2d_4">
      <defs>
       <path id="m1f41b5b6b4" d="M 0 0 
L -3.5 0 
" style="stroke: #000000; stroke-width: 0.8"/>
      </defs>
      <g>
       <use xlink:href="#m1f41b5b6b4" x="18" y="189" style="stroke: #000000; stroke-width: 0.8"/>
      </g>
     </g>
     <g id="text_4">
      <!-- −15 -->
      <g transform="translate(-10.104688 192.799219)scale(0.1 -0.1)">
       <defs>
        <path id="DejaVuSans-35" d="M 691 4666 
L 3169 4666 
L 3169 4134 
L 1269 4134 
L 1269 2991 
Q 1406 3038 1543 3061 
Q 1681 3084 1819 3084 
Q 2600 3084 3056 2656 
Q 3513 2228 3513 1497 
Q 3513 744 3044 326 
Q 2575 -91 1722 -91 
Q 1428 -91 1123 -41 
Q 819 9 494 109 
L 494 744 
Q 775 591 1075 516 
Q 1375 441 1709 441 
Q 2250 441 2565 725 
Q 2881 1009 2881 1497 
Q 2881 1984 2565 2268 
Q 2250 2553 1709 2553 
Q 1456 2553 1204 2497 
Q 953 2441 691 2322 
L 691 4666 
z
" transform="scale(0.015625)"/>
       </defs>
       <use xlink:href="#DejaVuSans-2212"/>
       <use xlink:href="#DejaVuSans-31" x="83.789062"/>
       <use xlink:href="#DejaVuSans-35" x="147.412109"/>
      </g>
     </g>
    </g>
    <g id="ytick_2">
     <g id="line2d_5">
      <g>
       <use xlink:href="#m1f41b5b6b4" x="18" y="161.82" style="stroke: #000000; stroke-width: 0.8"/>
      </g>
     </g>
     <g id="text_5">
      <!-- −10 -->
      <g transform="translate(-10.104688 165.619219)scale(0.1 -0.1)">
       <use xlink:href="#DejaVuSans-2212"/>
       <use xlink:href="#DejaVuSans-31" x="83.789062"/>
       <use xlink:href="#DejaVuSans-30" x="147.412109"/>
      </g>
     </g>
    </g>
    <g id="ytick_3">
     <g id="line2d_6">
      <g>
       <use xlink:href="#m1f41b5b6b4" x="18" y="134.64" style="stroke: #000000; stroke-width: 0.8"/>
      </g>
     </g>
     <g id="text_6">
      <!-- −5 -->
      <g transform="translate(-3.742188 138.439219)scale(0.1 -0.1)">
       <use xlink:href="#DejaVuSans-2212"/>
       <use xlink:href="#DejaVuSans-35" x="83.789062"/>
      </g>
     </g>
    </g>
    <g id="ytick_4">
     <g id="line2d_7">
      <g>
       <use xlink:href="#m1f41b5b6b4" x="18" y="107.46" style="stroke: #000000; stroke-width: 0.8"/>
      </g>
     </g>
     <g id="text_7">
      <!-- 0 -->
      <g transform="translate(4.6375 111.259219)scale(0.1 -0.1)">
       <use xlink:href="#DejaVuSans-30"/>
      </g>
     </g>
    </g>
    <g id="ytick_5">
     <g id="line2d_8">
      <g>
       <use xlink:href="#m1f41b5b6b4" x="18" y="80.28" style="stroke: #000000; stroke-width: 0.8"/>
      </g>
     </g>
     <g id="text_8">
      <!-- 5 -->
      <g transform="translate(4.6375 84.079219)scale(0.1 -0.1)">
       <use xlink:href="#DejaVuSans-35"/>
      </g>
     </g>
    </g>
    <g id="ytick_6">
     <g id="line2d_9">
      <g>
       <use xlink:href="#m1f41b5b6b4" x="18" y="53.1" style="stroke: #000000; stroke-width: 0.8"/>
      </g>
     </g>
     <g id="text_9">
      <!-- 10 -->
      <g transform="translate(-1.725 56.899219)scale(0.1 -0.1)">
       <use xlink:href="#DejaVuSans-31"/>
       <use xlink:href="#DejaVuSans-30" x="63.623047"/>
      </g>
     </g>
    </g>
    <g id="ytick_7">
     <g id="line2d_10">
      <g>
       <use xlink:href="#m1f41b5b6b4" x="18" y="25.92" style="stroke: #000000; stroke-width: 0.8"/>
      </g>
     </g>
     <g id="text_10">
      <!-- 15 -->
      <g transform="translate(-1.725 29.719219)scale(0.1 -0.1)">
       <use xlink:href="#DejaVuSans-31"/>
       <use xlink:href="#DejaVuSans-35" x="63.623047"/>
      </g>
     </g>
    </g>
   </g>
   <g id="patch_3">
    <path d="M 18 189 
L 18 25.92 
" style="fill: none; stroke: #000000; stroke-width: 0.8; stroke-linejoin: miter; stroke-linecap: square"/>
   </g>
   <g id="patch_4">
    <path d="M 129.6 189 
L 129.6 25.92 
" style="fill: none; stroke: #000000; stroke-width: 0.8; stroke-linejoin: miter; stroke-linecap: square"/>
   </g>
   <g id="patch_5">
    <path d="M 18 189 
L 129.6 189 
" style="fill: none; stroke: #000000; stroke-width: 0.8; stroke-linejoin: miter; stroke-linecap: square"/>
   </g>
   <g id="patch_6">
    <path d="M 18 25.92 
L 129.6 25.92 
" style="fill: none; stroke: #000000; stroke-width: 0.8; stroke-linejoin: miter; stroke-linecap: square"/>
   </g>
  </g>
 </g>
 <defs>
  <clipPath id="pcd9e4beae0">
   <rect x="18" y="25.92" width="111.6" height="163.08"/>
  </clipPath>
 </defs>
</svg>
