<?xml version="1.0" encoding="utf-8" standalone="no"?>
<!DOCTYPE svg PUBLIC "-//W3C//DTD SVG 1.1//EN"
  "http://www.w3.org/Graphics/SVG/1.1/DTD/svg11.dtd">
<svg xmlns:xlink="http://www.w3.org/1999/xlink" width="144pt" height="216pt" viewBox="0 0 144 216" xmlns="http://www.w3.org/2000/svg" version="1.1">
 <metadata>
  <rdf:RDF xmlns:dc="http://purl.org/dc/elements/1.1/" xmlns:cc="http://creativecommons.org/ns#" xmlns:rdf="http://www.w3.org/1999/02/22-rdf-syntax-ns#">
   <cc:Work>
    <dc:type rdf:resource="http://purl.org/dc/dcmitype/StillImage"/>
    <dc:date>2022-06-23T14:48:44.280132</dc:date>
    <dc:format>image/svg+xml</dc:format>
    <dc:creator>
     <cc:Agent>
      <dc:title>Matplotlib v3.5.1, https://matplotlib.org/</dc:title>
     </cc:Agent>
    </dc:creator>
   </cc:Work>
  </rdf:RDF>
 </metadata>
 <defs>
  <style type="text/css">*{stroke-linejoin: round; stroke-linecap: butt}</style>
 </defs>
 <g id="figure_1">
  <g id="patch_1">
   <path d="M 0 216 
L 144 216 
L 144 0 
L 0 0 
L 0 216 
z
" style="fill: none"/>
  </g>
  <g id="axes_1">
   <g id="patch_2">
    <path d="M 18 189 
L 129.6 189 
L 129.6 25.92 
L 18 25.92 
z
" style="fill: #ffffff"/>
   </g>
   <g id="PathCollection_1">
    <defs>
     <path id="m774b600972" d="M 0 2.738613 
C 0.726289 2.738613 1.422928 2.450055 1.936492 1.936492 
C 2.450055 1.422928 2.738613 0.726289 2.738613 0 
C 2.738613 -0.726289 2.450055 -1.422928 1.936492 -1.936492 
C 1.422928 -2.450055 0.726289 -2.738613 0 -2.738613 
C -0.726289 -2.738613 -1.422928 -2.450055 -1.936492 -1.936492 
C -2.450055 -1.422928 -2.738613 -0.726289 -2.738613 0 
C -2.738613 0.726289 -2.450055 1.422928 -1.936492 1.936492 
C -1.422928 2.450055 -0.726289 2.738613 0 2.738613 
z
" style="stroke: #ff0000; stroke-width: 1.75"/>
    </defs>
    <g clip-path="url(#p9a672c467a)">
     <use xlink:href="#m774b600972" x="80.775" y="107.46" style="fill: #ff0000; stroke: #ff0000; stroke-width: 1.75"/>
     <use xlink:href="#m774b600972" x="94.725" y="107.46" style="fill: #ff0000; stroke: #ff0000; stroke-width: 1.75"/>
     <use xlink:href="#m774b600972" x="59.85" y="119.229285" style="fill: #ff0000; stroke: #ff0000; stroke-width: 1.75"/>
     <use xlink:href="#m774b600972" x="73.8" y="119.229285" style="fill: #ff0000; stroke: #ff0000; stroke-width: 1.75"/>
     <use xlink:href="#m774b600972" x="87.75" y="119.229285" style="fill: #ff0000; stroke: #ff0000; stroke-width: 1.75"/>
     <use xlink:href="#m774b600972" x="66.825" y="130.99857" style="fill: #ff0000; stroke: #ff0000; stroke-width: 1.75"/>
     <use xlink:href="#m774b600972" x="80.775" y="130.99857" style="fill: #ff0000; stroke: #ff0000; stroke-width: 1.75"/>
    </g>
   </g>
   <g id="PathCollection_2">
    <defs>
     <path id="C0_0_cebdc18a0c" d="M 0 2.738613 
C 0.726289 2.738613 1.422928 2.450055 1.936492 1.936492 
C 2.450055 1.422928 2.738613 0.726289 2.738613 -0 
C 2.738613 -0.726289 2.450055 -1.422928 1.936492 -1.936492 
C 1.422928 -2.450055 0.726289 -2.738613 0 -2.738613 
C -0.726289 -2.738613 -1.422928 -2.450055 -1.936492 -1.936492 
C -2.450055 -1.422928 -2.738613 -0.726289 -2.738613 0 
C -2.738613 0.726289 -2.450055 1.422928 -1.936492 1.936492 
C -1.422928 2.450055 -0.726289 2.738613 0 2.738613 
z
"/>
    </defs>
    <g clip-path="url(#p9a672c467a)">
     <use xlink:href="#C0_0_cebdc18a0c" x="66.825" y="83.92143" style="fill: none; stroke: #ff0000; stroke-width: 1.75"/>
    </g>
    <g clip-path="url(#p9a672c467a)">
     <use xlink:href="#C0_0_cebdc18a0c" x="80.775" y="83.92143" style="fill: none; stroke: #ff0000; stroke-width: 1.75"/>
    </g>
    <g clip-path="url(#p9a672c467a)">
     <use xlink:href="#C0_0_cebdc18a0c" x="59.85" y="95.690715" style="fill: none; stroke: #ff0000; stroke-width: 1.75"/>
    </g>
    <g clip-path="url(#p9a672c467a)">
     <use xlink:href="#C0_0_cebdc18a0c" x="73.8" y="95.690715" style="fill: none; stroke: #ff0000; stroke-width: 1.75"/>
    </g>
    <g clip-path="url(#p9a672c467a)">
     <use xlink:href="#C0_0_cebdc18a0c" x="87.75" y="95.690715" style="fill: none; stroke: #ff0000; stroke-width: 1.75"/>
    </g>
    <g clip-path="url(#p9a672c467a)">
     <use xlink:href="#C0_0_cebdc18a0c" x="52.875" y="107.46" style="fill: none; stroke: #ff0000; stroke-width: 1.75"/>
    </g>
    <g clip-path="url(#p9a672c467a)">
     <use xlink:href="#C0_0_cebdc18a0c" x="66.825" y="107.46" style="fill: none; stroke: #ff0000; stroke-width: 1.75"/>
    </g>
   </g>
   <g id="PathCollection_3">
    <path d="M 109.286626 90.505399 
C 109.879638 90.505399 110.448442 90.269792 110.867765 89.850469 
C 111.287088 89.431146 111.522694 88.862343 111.522694 88.269331 
C 111.522694 87.676318 111.287088 87.107515 110.867765 86.688192 
C 110.448442 86.268869 109.879638 86.033263 109.286626 86.033263 
C 108.693614 86.033263 108.12481 86.268869 107.705487 86.688192 
C 107.286164 87.107515 107.050558 87.676318 107.050558 88.269331 
C 107.050558 88.862343 107.286164 89.431146 107.705487 89.850469 
C 108.12481 90.269792 108.693614 90.505399 109.286626 90.505399 
z
" clip-path="url(#p9a672c467a)" style="stroke: #000000"/>
    <path d="M 103.200178 84.240759 
C 103.793191 84.240759 104.361994 84.005153 104.781317 83.58583 
C 105.20064 83.166507 105.436246 82.597703 105.436246 82.004691 
C 105.436246 81.411679 105.20064 80.842875 104.781317 80.423552 
C 104.361994 80.004229 103.793191 79.768623 103.200178 79.768623 
C 102.607166 79.768623 102.038362 80.004229 101.61904 80.423552 
C 101.199717 80.842875 100.96411 81.411679 100.96411 82.004691 
C 100.96411 82.597703 101.199717 83.166507 101.61904 83.58583 
C 102.038362 84.005153 102.607166 84.240759 103.200178 84.240759 
z
" clip-path="url(#p9a672c467a)" style="stroke: #000000"/>
    <path d="M 101.770475 70.101424 
C 102.149849 70.101424 102.513735 69.950698 102.781993 69.68244 
C 103.050251 69.414182 103.200978 69.050295 103.200978 68.670922 
C 103.200978 68.291548 103.050251 67.927661 102.781993 67.659403 
C 102.513735 67.391146 102.149849 67.240419 101.770475 67.240419 
C 101.391101 67.240419 101.027214 67.391146 100.758957 67.659403 
C 100.490699 67.927661 100.339972 68.291548 100.339972 68.670922 
C 100.339972 69.050295 100.490699 69.414182 100.758957 69.68244 
C 101.027214 69.950698 101.391101 70.101424 101.770475 70.101424 
z
" clip-path="url(#p9a672c467a)" style="stroke: #000000"/>
    <path d="M 120.867269 155.06032 
C 121.382536 155.06032 121.876768 154.855602 122.241117 154.491253 
C 122.605466 154.126904 122.810183 153.632672 122.810183 153.117405 
C 122.810183 152.602138 122.605466 152.107906 122.241117 151.743557 
C 121.876768 151.379208 121.382536 151.17449 120.867269 151.17449 
C 120.352002 151.17449 119.85777 151.379208 119.493421 151.743557 
C 119.129072 152.107906 118.924354 152.602138 118.924354 153.117405 
C 118.924354 153.632672 119.129072 154.126904 119.493421 154.491253 
C 119.85777 154.855602 120.352002 155.06032 120.867269 155.06032 
z
" clip-path="url(#p9a672c467a)" style="stroke: #000000"/>
    <path d="M 109.541955 132.30904 
C 110.134967 132.30904 110.703771 132.073433 111.123093 131.65411 
C 111.542416 131.234788 111.778023 130.665984 111.778023 130.072972 
C 111.778023 129.479959 111.542416 128.911156 111.123093 128.491833 
C 110.703771 128.07251 110.134967 127.836904 109.541955 127.836904 
C 108.948942 127.836904 108.380139 128.07251 107.960816 128.491833 
C 107.541493 128.911156 107.305887 129.479959 107.305887 130.072972 
C 107.305887 130.665984 107.541493 131.234788 107.960816 131.65411 
C 108.380139 132.073433 108.948942 132.30904 109.541955 132.30904 
z
" clip-path="url(#p9a672c467a)" style="stroke: #000000"/>
    <path d="M 104.962524 109.945423 
C 105.095125 109.945423 105.222314 109.89274 105.316077 109.798977 
C 105.409841 109.705213 105.462524 109.578025 105.462524 109.445423 
C 105.462524 109.312822 105.409841 109.185633 105.316077 109.09187 
C 105.222314 108.998107 105.095125 108.945423 104.962524 108.945423 
C 104.829922 108.945423 104.702734 108.998107 104.60897 109.09187 
C 104.515207 109.185633 104.462524 109.312822 104.462524 109.445423 
C 104.462524 109.578025 104.515207 109.705213 104.60897 109.798977 
C 104.702734 109.89274 104.829922 109.945423 104.962524 109.945423 
z
" clip-path="url(#p9a672c467a)" style="stroke: #000000"/>
    <path d="M 100.059073 102.173063 
C 100.652455 102.173063 101.221614 101.937309 101.641199 101.517724 
C 102.060784 101.09814 102.296537 100.528981 102.296537 99.935598 
C 102.296537 99.342216 102.060784 98.773057 101.641199 98.353472 
C 101.221614 97.933887 100.652455 97.698134 100.059073 97.698134 
C 99.46569 97.698134 98.896531 97.933887 98.476947 98.353472 
C 98.057362 98.773057 97.821608 99.342216 97.821608 99.935598 
C 97.821608 100.528981 98.057362 101.09814 98.476947 101.517724 
C 98.896531 101.937309 99.46569 102.173063 100.059073 102.173063 
z
" clip-path="url(#p9a672c467a)" style="stroke: #000000"/>
    <path d="M 95.010949 95.365995 
C 95.603961 95.365995 96.172765 95.130389 96.592087 94.711066 
C 97.01141 94.291743 97.247017 93.722939 97.247017 93.129927 
C 97.247017 92.536915 97.01141 91.968111 96.592087 91.548788 
C 96.172765 91.129465 95.603961 90.893859 95.010949 90.893859 
C 94.417936 90.893859 93.849133 91.129465 93.42981 91.548788 
C 93.010487 91.968111 92.774881 92.536915 92.774881 93.129927 
C 92.774881 93.722939 93.010487 94.291743 93.42981 94.711066 
C 93.849133 95.130389 94.417936 95.365995 95.010949 95.365995 
z
" clip-path="url(#p9a672c467a)" style="stroke: #000000"/>
    <path d="M 93.267149 82.5704 
C 93.399751 82.5704 93.526939 82.517716 93.620703 82.423953 
C 93.714466 82.33019 93.767149 82.203001 93.767149 82.0704 
C 93.767149 81.937798 93.714466 81.81061 93.620703 81.716846 
C 93.526939 81.623083 93.399751 81.5704 93.267149 81.5704 
C 93.134548 81.5704 93.007359 81.623083 92.913596 81.716846 
C 92.819832 81.81061 92.767149 81.937798 92.767149 82.0704 
C 92.767149 82.203001 92.819832 82.33019 92.913596 82.423953 
C 93.007359 82.517716 93.134548 82.5704 93.267149 82.5704 
z
" clip-path="url(#p9a672c467a)" style="stroke: #000000"/>
    <path d="M 78.647527 52.190306 
C 79.14681 52.190306 79.625712 51.991938 79.978759 51.638891 
C 80.331806 51.285844 80.530174 50.806942 80.530174 50.307658 
C 80.530174 49.808374 80.331806 49.329473 79.978759 48.976425 
C 79.625712 48.623378 79.14681 48.425011 78.647527 48.425011 
C 78.148243 48.425011 77.669341 48.623378 77.316294 48.976425 
C 76.963247 49.329473 76.764879 49.808374 76.764879 50.307658 
C 76.764879 50.806942 76.963247 51.285844 77.316294 51.638891 
C 77.669341 51.991938 78.148243 52.190306 78.647527 52.190306 
z
" clip-path="url(#p9a672c467a)" style="stroke: #000000"/>
    <path d="M 73.207817 31.380465 
C 73.707101 31.380465 74.186003 31.182097 74.53905 30.82905 
C 74.892097 30.476003 75.090465 29.997101 75.090465 29.497817 
C 75.090465 28.998533 74.892097 28.519631 74.53905 28.166584 
C 74.186003 27.813537 73.707101 27.61517 73.207817 27.61517 
C 72.708533 27.61517 72.229631 27.813537 71.876584 28.166584 
C 71.523537 28.519631 71.32517 28.998533 71.32517 29.497817 
C 71.32517 29.997101 71.523537 30.476003 71.876584 30.82905 
C 72.229631 31.182097 72.708533 31.380465 73.207817 31.380465 
z
" clip-path="url(#p9a672c467a)" style="stroke: #000000"/>
    <path d="M 107.945253 156.960478 
C 108.52002 156.960478 109.071324 156.73212 109.477746 156.325698 
C 109.884168 155.919276 110.112526 155.367972 110.112526 154.793204 
C 110.112526 154.218437 109.884168 153.667133 109.477746 153.260711 
C 109.071324 152.854289 108.52002 152.625931 107.945253 152.625931 
C 107.370485 152.625931 106.819181 152.854289 106.412759 153.260711 
C 106.006337 153.667133 105.777979 154.218437 105.777979 154.793204 
C 105.777979 155.367972 106.006337 155.919276 106.412759 156.325698 
C 106.819181 156.73212 107.370485 156.960478 107.945253 156.960478 
z
" clip-path="url(#p9a672c467a)" style="stroke: #000000"/>
    <path d="M 93.808342 128.667507 
C 94.401725 128.667507 94.970884 128.431754 95.390469 128.012169 
C 95.810053 127.592585 96.045807 127.023426 96.045807 126.430043 
C 96.045807 125.836661 95.810053 125.267502 95.390469 124.847917 
C 94.970884 124.428332 94.401725 124.192579 93.808342 124.192579 
C 93.21496 124.192579 92.645801 124.428332 92.226216 124.847917 
C 91.806632 125.267502 91.570878 125.836661 91.570878 126.430043 
C 91.570878 127.023426 91.806632 127.592585 92.226216 128.012169 
C 92.645801 128.431754 93.21496 128.667507 93.808342 128.667507 
z
" clip-path="url(#p9a672c467a)" style="stroke: #000000"/>
    <path d="M 89.325892 120.199989 
C 89.910189 120.199989 90.470634 119.967845 90.883795 119.554685 
C 91.296955 119.141524 91.529099 118.581079 91.529099 117.996782 
C 91.529099 117.412484 91.296955 116.85204 90.883795 116.438879 
C 90.470634 116.025718 89.910189 115.793575 89.325892 115.793575 
C 88.741594 115.793575 88.18115 116.025718 87.767989 116.438879 
C 87.354828 116.85204 87.122685 117.412484 87.122685 117.996782 
C 87.122685 118.581079 87.354828 119.141524 87.767989 119.554685 
C 88.18115 119.967845 88.741594 120.199989 89.325892 120.199989 
z
" clip-path="url(#p9a672c467a)" style="stroke: #000000"/>
    <path d="M 87.849475 110.117896 
C 88.383977 110.117896 88.89666 109.905536 89.27461 109.527586 
C 89.65256 109.149636 89.86492 108.636953 89.86492 108.102451 
C 89.86492 107.567949 89.65256 107.055266 89.27461 106.677316 
C 88.89666 106.299366 88.383977 106.087006 87.849475 106.087006 
C 87.314973 106.087006 86.80229 106.299366 86.42434 106.677316 
C 86.04639 107.055266 85.83403 107.567949 85.83403 108.102451 
C 85.83403 108.636953 86.04639 109.149636 86.42434 109.527586 
C 86.80229 109.905536 87.314973 110.117896 87.849475 110.117896 
z
" clip-path="url(#p9a672c467a)" style="stroke: #000000"/>
    <path d="M 88.687915 97.404533 
C 89.281297 97.404533 89.850456 97.16878 90.270041 96.749195 
C 90.689625 96.32961 90.925379 95.760452 90.925379 95.167069 
C 90.925379 94.573687 90.689625 94.004528 90.270041 93.584943 
C 89.850456 93.165358 89.281297 92.929605 88.687915 92.929605 
C 88.094532 92.929605 87.525373 93.165358 87.105789 93.584943 
C 86.686204 94.004528 86.45045 94.573687 86.45045 95.167069 
C 86.45045 95.760452 86.686204 96.32961 87.105789 96.749195 
C 87.525373 97.16878 88.094532 97.404533 88.687915 97.404533 
z
" clip-path="url(#p9a672c467a)" style="stroke: #000000"/>
    <path d="M 68.777351 47.903527 
C 69.276635 47.903527 69.755536 47.70516 70.108583 47.352113 
C 70.46163 46.999066 70.659998 46.520164 70.659998 46.02088 
C 70.659998 45.521596 70.46163 45.042694 70.108583 44.689647 
C 69.755536 44.3366 69.276635 44.138232 68.777351 44.138232 
C 68.278067 44.138232 67.799165 44.3366 67.446118 44.689647 
C 67.093071 45.042694 66.894703 45.521596 66.894703 46.02088 
C 66.894703 46.520164 67.093071 46.999066 67.446118 47.352113 
C 67.799165 47.70516 68.278067 47.903527 68.777351 47.903527 
z
" clip-path="url(#p9a672c467a)" style="stroke: #000000"/>
    <path d="M 89.382831 155.539166 
C 89.975843 155.539166 90.544647 155.30356 90.96397 154.884237 
C 91.383293 154.464914 91.618899 153.89611 91.618899 153.303098 
C 91.618899 152.710086 91.383293 152.141282 90.96397 151.721959 
C 90.544647 151.302637 89.975843 151.06703 89.382831 151.06703 
C 88.789819 151.06703 88.221015 151.302637 87.801692 151.721959 
C 87.382369 152.141282 87.146763 152.710086 87.146763 153.303098 
C 87.146763 153.89611 87.382369 154.464914 87.801692 154.884237 
C 88.221015 155.30356 88.789819 155.539166 89.382831 155.539166 
z
" clip-path="url(#p9a672c467a)" style="stroke: #000000"/>
    <path d="M 87.937242 132.97351 
C 88.408847 132.97351 88.8612 132.786139 89.194675 132.452664 
C 89.528151 132.119189 89.715521 131.666836 89.715521 131.195231 
C 89.715521 130.723625 89.528151 130.271272 89.194675 129.937797 
C 88.8612 129.604322 88.408847 129.416951 87.937242 129.416951 
C 87.465637 129.416951 87.013284 129.604322 86.679809 129.937797 
C 86.346333 130.271272 86.158963 130.723625 86.158963 131.195231 
C 86.158963 131.666836 86.346333 132.119189 86.679809 132.452664 
C 87.013284 132.786139 87.465637 132.97351 87.937242 132.97351 
z
" clip-path="url(#p9a672c467a)" style="stroke: #000000"/>
    <path d="M 78.618985 122.712131 
C 79.155 122.712131 79.669132 122.49917 80.048152 122.120151 
C 80.427171 121.741131 80.640132 121.226998 80.640132 120.690984 
C 80.640132 120.15497 80.427171 119.640837 80.048152 119.261818 
C 79.669132 118.882798 79.155 118.669837 78.618985 118.669837 
C 78.082971 118.669837 77.568838 118.882798 77.189819 119.261818 
C 76.8108 119.640837 76.597839 120.15497 76.597839 120.690984 
C 76.597839 121.226998 76.8108 121.741131 77.189819 122.120151 
C 77.568838 122.49917 78.082971 122.712131 78.618985 122.712131 
z
" clip-path="url(#p9a672c467a)" style="stroke: #000000"/>
    <path d="M 76.464276 110.959619 
C 76.999284 110.959619 77.512451 110.747058 77.890759 110.36875 
C 78.269066 109.990443 78.481627 109.477276 78.481627 108.942268 
C 78.481627 108.40726 78.269066 107.894093 77.890759 107.515785 
C 77.512451 107.137478 76.999284 106.924917 76.464276 106.924917 
C 75.929268 106.924917 75.416101 107.137478 75.037794 107.515785 
C 74.659486 107.894093 74.446925 108.40726 74.446925 108.942268 
C 74.446925 109.477276 74.659486 109.990443 75.037794 110.36875 
C 75.416101 110.747058 75.929268 110.959619 76.464276 110.959619 
z
" clip-path="url(#p9a672c467a)" style="stroke: #000000"/>
    <path d="M 76.488574 104.357423 
C 76.912029 104.357423 77.318197 104.189183 77.617625 103.889755 
C 77.917052 103.590327 78.085293 103.184159 78.085293 102.760705 
C 78.085293 102.33725 77.917052 101.931082 77.617625 101.631654 
C 77.318197 101.332227 76.912029 101.163986 76.488574 101.163986 
C 76.06512 101.163986 75.658952 101.332227 75.359524 101.631654 
C 75.060096 101.931082 74.891856 102.33725 74.891856 102.760705 
C 74.891856 103.184159 75.060096 103.590327 75.359524 103.889755 
C 75.658952 104.189183 76.06512 104.357423 76.488574 104.357423 
z
" clip-path="url(#p9a672c467a)" style="stroke: #000000"/>
    <path d="M 71.933478 89.607351 
C 72.52649 89.607351 73.095294 89.371744 73.514617 88.952421 
C 73.93394 88.533099 74.169546 87.964295 74.169546 87.371283 
C 74.169546 86.778271 73.93394 86.209467 73.514617 85.790144 
C 73.095294 85.370821 72.52649 85.135215 71.933478 85.135215 
C 71.340466 85.135215 70.771662 85.370821 70.352339 85.790144 
C 69.933016 86.209467 69.69741 86.778271 69.69741 87.371283 
C 69.69741 87.964295 69.933016 88.533099 70.352339 88.952421 
C 70.771662 89.371744 71.340466 89.607351 71.933478 89.607351 
z
" clip-path="url(#p9a672c467a)" style="stroke: #000000"/>
    <path d="M 64.228764 80.909106 
C 64.596267 80.909106 64.948768 80.763095 65.208633 80.503231 
C 65.468497 80.243366 65.614508 79.890865 65.614508 79.523362 
C 65.614508 79.155858 65.468497 78.803357 65.208633 78.543493 
C 64.948768 78.283628 64.596267 78.137618 64.228764 78.137618 
C 63.86126 78.137618 63.508759 78.283628 63.248895 78.543493 
C 62.98903 78.803357 62.84302 79.155858 62.84302 79.523362 
C 62.84302 79.890865 62.98903 80.243366 63.248895 80.503231 
C 63.508759 80.763095 63.86126 80.909106 64.228764 80.909106 
z
" clip-path="url(#p9a672c467a)" style="stroke: #000000"/>
    <path d="M 89.612146 177.124885 
C 90.11143 177.124885 90.590332 176.926517 90.943379 176.57347 
C 91.296426 176.220423 91.494794 175.741522 91.494794 175.242238 
C 91.494794 174.742954 91.296426 174.264052 90.943379 173.911005 
C 90.590332 173.557958 90.11143 173.35959 89.612146 173.35959 
C 89.112862 173.35959 88.63396 173.557958 88.280913 173.911005 
C 87.927866 174.264052 87.729499 174.742954 87.729499 175.242238 
C 87.729499 175.741522 87.927866 176.220423 88.280913 176.57347 
C 88.63396 176.926517 89.112862 177.124885 89.612146 177.124885 
z
" clip-path="url(#p9a672c467a)" style="stroke: #000000"/>
    <path d="M 84.722553 165.462635 
C 85.051779 165.462635 85.367566 165.331832 85.600364 165.099034 
C 85.833162 164.866236 85.963965 164.55045 85.963965 164.221223 
C 85.963965 163.891997 85.833162 163.576211 85.600364 163.343413 
C 85.367566 163.110614 85.051779 162.979811 84.722553 162.979811 
C 84.393327 162.979811 84.07754 163.110614 83.844742 163.343413 
C 83.611944 163.576211 83.481141 163.891997 83.481141 164.221223 
C 83.481141 164.55045 83.611944 164.866236 83.844742 165.099034 
C 84.07754 165.331832 84.393327 165.462635 84.722553 165.462635 
z
" clip-path="url(#p9a672c467a)" style="stroke: #000000"/>
    <path d="M 72.616074 135.556702 
C 73.128493 135.556702 73.619993 135.353116 73.982328 134.990782 
C 74.344662 134.628447 74.548248 134.136947 74.548248 133.624528 
C 74.548248 133.11211 74.344662 132.62061 73.982328 132.258275 
C 73.619993 131.895941 73.128493 131.692354 72.616074 131.692354 
C 72.103656 131.692354 71.612156 131.895941 71.249821 132.258275 
C 70.887487 132.62061 70.6839 133.11211 70.6839 133.624528 
C 70.6839 134.136947 70.887487 134.628447 71.249821 134.990782 
C 71.612156 135.353116 72.103656 135.556702 72.616074 135.556702 
z
" clip-path="url(#p9a672c467a)" style="stroke: #000000"/>
    <path d="M 67.07251 105.636715 
C 67.608524 105.636715 68.122657 105.423754 68.501676 105.044735 
C 68.880696 104.665715 69.093656 104.151583 69.093656 103.615568 
C 69.093656 103.079554 68.880696 102.565421 68.501676 102.186402 
C 68.122657 101.807382 67.608524 101.594422 67.07251 101.594422 
C 66.536495 101.594422 66.022363 101.807382 65.643343 102.186402 
C 65.264324 102.565421 65.051363 103.079554 65.051363 103.615568 
C 65.051363 104.151583 65.264324 104.665715 65.643343 105.044735 
C 66.022363 105.423754 66.536495 105.636715 67.07251 105.636715 
z
" clip-path="url(#p9a672c467a)" style="stroke: #000000"/>
    <path d="M 57.287197 88.067306 
C 57.880579 88.067306 58.449738 87.831553 58.869323 87.411968 
C 59.288908 86.992383 59.524661 86.423224 59.524661 85.829842 
C 59.524661 85.236459 59.288908 84.667301 58.869323 84.247716 
C 58.449738 83.828131 57.880579 83.592378 57.287197 83.592378 
C 56.693815 83.592378 56.124656 83.828131 55.705071 84.247716 
C 55.285486 84.667301 55.049733 85.236459 55.049733 85.829842 
C 55.049733 86.423224 55.285486 86.992383 55.705071 87.411968 
C 56.124656 87.831553 56.693815 88.067306 57.287197 88.067306 
z
" clip-path="url(#p9a672c467a)" style="stroke: #000000"/>
    <path d="M 49.836179 56.13019 
C 50.335463 56.13019 50.814365 55.931823 51.167412 55.578775 
C 51.520459 55.225728 51.718826 54.746827 51.718826 54.247543 
C 51.718826 53.748259 51.520459 53.269357 51.167412 52.91631 
C 50.814365 52.563263 50.335463 52.364895 49.836179 52.364895 
C 49.336895 52.364895 48.857993 52.563263 48.504946 52.91631 
C 48.151899 53.269357 47.953531 53.748259 47.953531 54.247543 
C 47.953531 54.746827 48.151899 55.225728 48.504946 55.578775 
C 48.857993 55.931823 49.336895 56.13019 49.836179 56.13019 
z
" clip-path="url(#p9a672c467a)" style="stroke: #000000"/>
    <path d="M 68.02785 162.918168 
C 68.620862 162.918168 69.189666 162.682562 69.608988 162.263239 
C 70.028311 161.843916 70.263918 161.275113 70.263918 160.6821 
C 70.263918 160.089088 70.028311 159.520284 69.608988 159.100962 
C 69.189666 158.681639 68.620862 158.446032 68.02785 158.446032 
C 67.434837 158.446032 66.866034 158.681639 66.446711 159.100962 
C 66.027388 159.520284 65.791782 160.089088 65.791782 160.6821 
C 65.791782 161.275113 66.027388 161.843916 66.446711 162.263239 
C 66.866034 162.682562 67.434837 162.918168 68.02785 162.918168 
z
" clip-path="url(#p9a672c467a)" style="stroke: #000000"/>
    <path d="M 67.370581 151.885759 
C 67.926984 151.885759 68.460672 151.664698 68.854108 151.271262 
C 69.247544 150.877826 69.468605 150.344137 69.468605 149.787735 
C 69.468605 149.231332 69.247544 148.697644 68.854108 148.304208 
C 68.460672 147.910772 67.926984 147.689711 67.370581 147.689711 
C 66.814179 147.689711 66.28049 147.910772 65.887054 148.304208 
C 65.493618 148.697644 65.272557 149.231332 65.272557 149.787735 
C 65.272557 150.344137 65.493618 150.877826 65.887054 151.271262 
C 66.28049 151.664698 66.814179 151.885759 67.370581 151.885759 
z
" clip-path="url(#p9a672c467a)" style="stroke: #000000"/>
    <path d="M 64.656978 137.304627 
C 65.102121 137.304627 65.529092 137.12777 65.843855 136.813006 
C 66.158619 136.498243 66.335476 136.071272 66.335476 135.626129 
C 66.335476 135.180986 66.158619 134.754015 65.843855 134.439251 
C 65.529092 134.124488 65.102121 133.94763 64.656978 133.94763 
C 64.211835 133.94763 63.784864 134.124488 63.4701 134.439251 
C 63.155336 134.754015 62.978479 135.180986 62.978479 135.626129 
C 62.978479 136.071272 63.155336 136.498243 63.4701 136.813006 
C 63.784864 137.12777 64.211835 137.304627 64.656978 137.304627 
z
" clip-path="url(#p9a672c467a)" style="stroke: #000000"/>
    <path d="M 57.681088 132.505557 
C 58.274471 132.505557 58.84363 132.269803 59.263214 131.850218 
C 59.682799 131.430634 59.918552 130.861475 59.918552 130.268092 
C 59.918552 129.67471 59.682799 129.105551 59.263214 128.685966 
C 58.84363 128.266381 58.274471 128.030628 57.681088 128.030628 
C 57.087706 128.030628 56.518547 128.266381 56.098962 128.685966 
C 55.679377 129.105551 55.443624 129.67471 55.443624 130.268092 
C 55.443624 130.861475 55.679377 131.430634 56.098962 131.850218 
C 56.518547 132.269803 57.087706 132.505557 57.681088 132.505557 
z
" clip-path="url(#p9a672c467a)" style="stroke: #000000"/>
    <path d="M 59.792903 121.410509 
C 60.386285 121.410509 60.955444 121.174755 61.375029 120.75517 
C 61.794614 120.335586 62.030367 119.766427 62.030367 119.173044 
C 62.030367 118.579662 61.794614 118.010503 61.375029 117.590918 
C 60.955444 117.171334 60.386285 116.93558 59.792903 116.93558 
C 59.199521 116.93558 58.630362 117.171334 58.210777 117.590918 
C 57.791192 118.010503 57.555439 118.579662 57.555439 119.173044 
C 57.555439 119.766427 57.791192 120.335586 58.210777 120.75517 
C 58.630362 121.174755 59.199521 121.410509 59.792903 121.410509 
z
" clip-path="url(#p9a672c467a)" style="stroke: #000000"/>
    <path d="M 53.433592 110.913779 
C 54.026604 110.913779 54.595408 110.678173 55.014731 110.25885 
C 55.434053 109.839527 55.66966 109.270723 55.66966 108.677711 
C 55.66966 108.084699 55.434053 107.515895 55.014731 107.096572 
C 54.595408 106.677249 54.026604 106.441643 53.433592 106.441643 
C 52.84058 106.441643 52.271776 106.677249 51.852453 107.096572 
C 51.43313 107.515895 51.197524 108.084699 51.197524 108.677711 
C 51.197524 109.270723 51.43313 109.839527 51.852453 110.25885 
C 52.271776 110.678173 52.84058 110.913779 53.433592 110.913779 
z
" clip-path="url(#p9a672c467a)" style="stroke: #000000"/>
    <path d="M 47.645284 90.516079 
C 48.238296 90.516079 48.8071 90.280473 49.226423 89.86115 
C 49.645746 89.441827 49.881352 88.873024 49.881352 88.280011 
C 49.881352 87.686999 49.645746 87.118195 49.226423 86.698873 
C 48.8071 86.27955 48.238296 86.043943 47.645284 86.043943 
C 47.052272 86.043943 46.483468 86.27955 46.064145 86.698873 
C 45.644822 87.118195 45.409216 87.686999 45.409216 88.280011 
C 45.409216 88.873024 45.644822 89.441827 46.064145 89.86115 
C 46.483468 90.280473 47.052272 90.516079 47.645284 90.516079 
z
" clip-path="url(#p9a672c467a)" style="stroke: #000000"/>
    <path d="M 38.70288 77.437111 
C 39.123247 77.437111 39.526454 77.270097 39.823698 76.972853 
C 40.120943 76.675608 40.287957 76.272401 40.287957 75.852034 
C 40.287957 75.431667 40.120943 75.02846 39.823698 74.731216 
C 39.526454 74.433971 39.123247 74.266957 38.70288 74.266957 
C 38.282512 74.266957 37.879306 74.433971 37.582061 74.731216 
C 37.284816 75.02846 37.117803 75.431667 37.117803 75.852034 
C 37.117803 76.272401 37.284816 76.675608 37.582061 76.972853 
C 37.879306 77.270097 38.282512 77.437111 38.70288 77.437111 
z
" clip-path="url(#p9a672c467a)" style="stroke: #000000"/>
    <path d="M 62.366131 166.014757 
C 62.953885 166.014757 63.517645 165.78124 63.93325 165.365635 
C 64.348855 164.95003 64.582372 164.38627 64.582372 163.798517 
C 64.582372 163.210763 64.348855 162.647003 63.93325 162.231398 
C 63.517645 161.815793 62.953885 161.582276 62.366131 161.582276 
C 61.778378 161.582276 61.214618 161.815793 60.799013 162.231398 
C 60.383408 162.647003 60.149891 163.210763 60.149891 163.798517 
C 60.149891 164.38627 60.383408 164.95003 60.799013 165.365635 
C 61.214618 165.78124 61.778378 166.014757 62.366131 166.014757 
z
" clip-path="url(#p9a672c467a)" style="stroke: #000000"/>
    <path d="M 56.017739 143.116699 
C 56.611122 143.116699 57.18028 142.880946 57.599865 142.461361 
C 58.01945 142.041777 58.255203 141.472618 58.255203 140.879235 
C 58.255203 140.285853 58.01945 139.716694 57.599865 139.297109 
C 57.18028 138.877524 56.611122 138.641771 56.017739 138.641771 
C 55.424357 138.641771 54.855198 138.877524 54.435613 139.297109 
C 54.016028 139.716694 53.780275 140.285853 53.780275 140.879235 
C 53.780275 141.472618 54.016028 142.041777 54.435613 142.461361 
C 54.855198 142.880946 55.424357 143.116699 56.017739 143.116699 
z
" clip-path="url(#p9a672c467a)" style="stroke: #000000"/>
    <path d="M 50.831674 129.445324 
C 51.425057 129.445324 51.994216 129.209571 52.413801 128.789986 
C 52.833385 128.370402 53.069139 127.801243 53.069139 127.20786 
C 53.069139 126.614478 52.833385 126.045319 52.413801 125.625734 
C 51.994216 125.206149 51.425057 124.970396 50.831674 124.970396 
C 50.238292 124.970396 49.669133 125.206149 49.249548 125.625734 
C 48.829964 126.045319 48.59421 126.614478 48.59421 127.20786 
C 48.59421 127.801243 48.829964 128.370402 49.249548 128.789986 
C 49.669133 129.209571 50.238292 129.445324 50.831674 129.445324 
z
" clip-path="url(#p9a672c467a)" style="stroke: #000000"/>
    <path d="M 51.638802 124.745026 
C 52.231814 124.745026 52.800618 124.50942 53.219941 124.090097 
C 53.639264 123.670774 53.87487 123.10197 53.87487 122.508958 
C 53.87487 121.915946 53.639264 121.347142 53.219941 120.927819 
C 52.800618 120.508497 52.231814 120.27289 51.638802 120.27289 
C 51.04579 120.27289 50.476986 120.508497 50.057663 120.927819 
C 49.63834 121.347142 49.402734 121.915946 49.402734 122.508958 
C 49.402734 123.10197 49.63834 123.670774 50.057663 124.090097 
C 50.476986 124.50942 51.04579 124.745026 51.638802 124.745026 
z
" clip-path="url(#p9a672c467a)" style="stroke: #000000"/>
    <path d="M 41.107961 112.213759 
C 41.700973 112.213759 42.269776 111.978153 42.689099 111.55883 
C 43.108422 111.139507 43.344028 110.570704 43.344028 109.977691 
C 43.344028 109.384679 43.108422 108.815875 42.689099 108.396553 
C 42.269776 107.97723 41.700973 107.741623 41.107961 107.741623 
C 40.514948 107.741623 39.946145 107.97723 39.526822 108.396553 
C 39.107499 108.815875 38.871893 109.384679 38.871893 109.977691 
C 38.871893 110.570704 39.107499 111.139507 39.526822 111.55883 
C 39.946145 111.978153 40.514948 112.213759 41.107961 112.213759 
z
" clip-path="url(#p9a672c467a)" style="stroke: #000000"/>
    <path d="M 39.048288 90.069236 
C 39.56128 90.069236 40.053331 89.865422 40.416071 89.502682 
C 40.778811 89.139942 40.982625 88.647891 40.982625 88.134899 
C 40.982625 87.621907 40.778811 87.129857 40.416071 86.767117 
C 40.053331 86.404377 39.56128 86.200563 39.048288 86.200563 
C 38.535296 86.200563 38.043246 86.404377 37.680506 86.767117 
C 37.317766 87.129857 37.113952 87.621907 37.113952 88.134899 
C 37.113952 88.647891 37.317766 89.139942 37.680506 89.502682 
C 38.043246 89.865422 38.535296 90.069236 39.048288 90.069236 
z
" clip-path="url(#p9a672c467a)" style="stroke: #000000"/>
    <path d="M 47.106434 156.701311 
C 47.383279 156.701311 47.648823 156.591319 47.844582 156.39556 
C 48.040341 156.199801 48.150333 155.934257 48.150333 155.657412 
C 48.150333 155.380567 48.040341 155.115023 47.844582 154.919264 
C 47.648823 154.723505 47.383279 154.613513 47.106434 154.613513 
C 46.829589 154.613513 46.564045 154.723505 46.368286 154.919264 
C 46.172527 155.115023 46.062535 155.380567 46.062535 155.657412 
C 46.062535 155.934257 46.172527 156.199801 46.368286 156.39556 
C 46.564045 156.591319 46.829589 156.701311 47.106434 156.701311 
z
" clip-path="url(#p9a672c467a)" style="stroke: #000000"/>
    <path d="M 34.885801 136.778124 
C 35.283606 136.778124 35.665171 136.620074 35.946461 136.338784 
C 36.227752 136.057493 36.385801 135.675928 36.385801 135.278124 
C 36.385801 134.880319 36.227752 134.498754 35.946461 134.217463 
C 35.665171 133.936173 35.283606 133.778124 34.885801 133.778124 
C 34.487997 133.778124 34.106431 133.936173 33.825141 134.217463 
C 33.543851 134.498754 33.385801 134.880319 33.385801 135.278124 
C 33.385801 135.675928 33.543851 136.057493 33.825141 136.338784 
C 34.106431 136.620074 34.487997 136.778124 34.885801 136.778124 
z
" clip-path="url(#p9a672c467a)" style="stroke: #000000"/>
    <path d="M 38.313824 126.623356 
C 38.906836 126.623356 39.47564 126.38775 39.894963 125.968427 
C 40.314286 125.549104 40.549892 124.980301 40.549892 124.387288 
C 40.549892 123.794276 40.314286 123.225473 39.894963 122.80615 
C 39.47564 122.386827 38.906836 122.15122 38.313824 122.15122 
C 37.720812 122.15122 37.152008 122.386827 36.732685 122.80615 
C 36.313363 123.225473 36.077756 123.794276 36.077756 124.387288 
C 36.077756 124.980301 36.313363 125.549104 36.732685 125.968427 
C 37.152008 126.38775 37.720812 126.623356 38.313824 126.623356 
z
" clip-path="url(#p9a672c467a)" style="stroke: #000000"/>
    <path d="M 32.853914 148.870977 
C 33.392421 148.870977 33.908944 148.657026 34.289725 148.276245 
C 34.670507 147.895463 34.884457 147.37894 34.884457 146.840434 
C 34.884457 146.301928 34.670507 145.785405 34.289725 145.404623 
C 33.908944 145.023842 33.392421 144.809891 32.853914 144.809891 
C 32.315408 144.809891 31.798885 145.023842 31.418103 145.404623 
C 31.037322 145.785405 30.823371 146.301928 30.823371 146.840434 
C 30.823371 147.37894 31.037322 147.895463 31.418103 148.276245 
C 31.798885 148.657026 32.315408 148.870977 32.853914 148.870977 
z
" clip-path="url(#p9a672c467a)" style="stroke: #000000"/>
   </g>
   <g id="matplotlib.axis_1">
    <g id="xtick_1">
     <g id="line2d_1">
      <defs>
       <path id="mda78d4105f" d="M 0 0 
L 0 3.5 
" style="stroke: #000000; stroke-width: 0.8"/>
      </defs>
      <g>
       <use xlink:href="#mda78d4105f" x="18" y="189" style="stroke: #000000; stroke-width: 0.8"/>
      </g>
     </g>
     <g id="text_1">
      <!-- −10 -->
      <g transform="translate(7.447656 203.598437)scale(0.1 -0.1)">
       <defs>
        <path id="DejaVuSans-2212" d="M 678 2272 
L 4684 2272 
L 4684 1741 
L 678 1741 
L 678 2272 
z
" transform="scale(0.015625)"/>
        <path id="DejaVuSans-31" d="M 794 531 
L 1825 531 
L 1825 4091 
L 703 3866 
L 703 4441 
L 1819 4666 
L 2450 4666 
L 2450 531 
L 3481 531 
L 3481 0 
L 794 0 
L 794 531 
z
" transform="scale(0.015625)"/>
        <path id="DejaVuSans-30" d="M 2034 4250 
Q 1547 4250 1301 3770 
Q 1056 3291 1056 2328 
Q 1056 1369 1301 889 
Q 1547 409 2034 409 
Q 2525 409 2770 889 
Q 3016 1369 3016 2328 
Q 3016 3291 2770 3770 
Q 2525 4250 2034 4250 
z
M 2034 4750 
Q 2819 4750 3233 4129 
Q 3647 3509 3647 2328 
Q 3647 1150 3233 529 
Q 2819 -91 2034 -91 
Q 1250 -91 836 529 
Q 422 1150 422 2328 
Q 422 3509 836 4129 
Q 1250 4750 2034 4750 
z
" transform="scale(0.015625)"/>
       </defs>
       <use xlink:href="#DejaVuSans-2212"/>
       <use xlink:href="#DejaVuSans-31" x="83.789062"/>
       <use xlink:href="#DejaVuSans-30" x="147.412109"/>
      </g>
     </g>
    </g>
    <g id="xtick_2">
     <g id="line2d_2">
      <g>
       <use xlink:href="#mda78d4105f" x="73.8" y="189" style="stroke: #000000; stroke-width: 0.8"/>
      </g>
     </g>
     <g id="text_2">
      <!-- 0 -->
      <g transform="translate(70.61875 203.598437)scale(0.1 -0.1)">
       <use xlink:href="#DejaVuSans-30"/>
      </g>
     </g>
    </g>
    <g id="xtick_3">
     <g id="line2d_3">
      <g>
       <use xlink:href="#mda78d4105f" x="129.6" y="189" style="stroke: #000000; stroke-width: 0.8"/>
      </g>
     </g>
     <g id="text_3">
      <!-- 10 -->
      <g transform="translate(123.2375 203.598437)scale(0.1 -0.1)">
       <use xlink:href="#DejaVuSans-31"/>
       <use xlink:href="#DejaVuSans-30" x="63.623047"/>
      </g>
     </g>
    </g>
   </g>
   <g id="matplotlib.axis_2">
    <g id="ytick_1">
     <g id="line2d_4">
      <defs>
       <path id="m3c99f7f1f3" d="M 0 0 
L -3.5 0 
" style="stroke: #000000; stroke-width: 0.8"/>
      </defs>
      <g>
       <use xlink:href="#m3c99f7f1f3" x="18" y="189" style="stroke: #000000; stroke-width: 0.8"/>
      </g>
     </g>
     <g id="text_4">
      <!-- −15 -->
      <g transform="translate(-10.104688 192.799219)scale(0.1 -0.1)">
       <defs>
        <path id="DejaVuSans-35" d="M 691 4666 
L 3169 4666 
L 3169 4134 
L 1269 4134 
L 1269 2991 
Q 1406 3038 1543 3061 
Q 1681 3084 1819 3084 
Q 2600 3084 3056 2656 
Q 3513 2228 3513 1497 
Q 3513 744 3044 326 
Q 2575 -91 1722 -91 
Q 1428 -91 1123 -41 
Q 819 9 494 109 
L 494 744 
Q 775 591 1075 516 
Q 1375 441 1709 441 
Q 2250 441 2565 725 
Q 2881 1009 2881 1497 
Q 2881 1984 2565 2268 
Q 2250 2553 1709 2553 
Q 1456 2553 1204 2497 
Q 953 2441 691 2322 
L 691 4666 
z
" transform="scale(0.015625)"/>
       </defs>
       <use xlink:href="#DejaVuSans-2212"/>
       <use xlink:href="#DejaVuSans-31" x="83.789062"/>
       <use xlink:href="#DejaVuSans-35" x="147.412109"/>
      </g>
     </g>
    </g>
    <g id="ytick_2">
     <g id="line2d_5">
      <g>
       <use xlink:href="#m3c99f7f1f3" x="18" y="161.82" style="stroke: #000000; stroke-width: 0.8"/>
      </g>
     </g>
     <g id="text_5">
      <!-- −10 -->
      <g transform="translate(-10.104688 165.619219)scale(0.1 -0.1)">
       <use xlink:href="#DejaVuSans-2212"/>
       <use xlink:href="#DejaVuSans-31" x="83.789062"/>
       <use xlink:href="#DejaVuSans-30" x="147.412109"/>
      </g>
     </g>
    </g>
    <g id="ytick_3">
     <g id="line2d_6">
      <g>
       <use xlink:href="#m3c99f7f1f3" x="18" y="134.64" style="stroke: #000000; stroke-width: 0.8"/>
      </g>
     </g>
     <g id="text_6">
      <!-- −5 -->
      <g transform="translate(-3.742188 138.439219)scale(0.1 -0.1)">
       <use xlink:href="#DejaVuSans-2212"/>
       <use xlink:href="#DejaVuSans-35" x="83.789062"/>
      </g>
     </g>
    </g>
    <g id="ytick_4">
     <g id="line2d_7">
      <g>
       <use xlink:href="#m3c99f7f1f3" x="18" y="107.46" style="stroke: #000000; stroke-width: 0.8"/>
      </g>
     </g>
     <g id="text_7">
      <!-- 0 -->
      <g transform="translate(4.6375 111.259219)scale(0.1 -0.1)">
       <use xlink:href="#DejaVuSans-30"/>
      </g>
     </g>
    </g>
    <g id="ytick_5">
     <g id="line2d_8">
      <g>
       <use xlink:href="#m3c99f7f1f3" x="18" y="80.28" style="stroke: #000000; stroke-width: 0.8"/>
      </g>
     </g>
     <g id="text_8">
      <!-- 5 -->
      <g transform="translate(4.6375 84.079219)scale(0.1 -0.1)">
       <use xlink:href="#DejaVuSans-35"/>
      </g>
     </g>
    </g>
    <g id="ytick_6">
     <g id="line2d_9">
      <g>
       <use xlink:href="#m3c99f7f1f3" x="18" y="53.1" style="stroke: #000000; stroke-width: 0.8"/>
      </g>
     </g>
     <g id="text_9">
      <!-- 10 -->
      <g transform="translate(-1.725 56.899219)scale(0.1 -0.1)">
       <use xlink:href="#DejaVuSans-31"/>
       <use xlink:href="#DejaVuSans-30" x="63.623047"/>
      </g>
     </g>
    </g>
    <g id="ytick_7">
     <g id="line2d_10">
      <g>
       <use xlink:href="#m3c99f7f1f3" x="18" y="25.92" style="stroke: #000000; stroke-width: 0.8"/>
      </g>
     </g>
     <g id="text_10">
      <!-- 15 -->
      <g transform="translate(-1.725 29.719219)scale(0.1 -0.1)">
       <use xlink:href="#DejaVuSans-31"/>
       <use xlink:href="#DejaVuSans-35" x="63.623047"/>
      </g>
     </g>
    </g>
   </g>
   <g id="patch_3">
    <path d="M 18 189 
L 18 25.92 
" style="fill: none; stroke: #000000; stroke-width: 0.8; stroke-linejoin: miter; stroke-linecap: square"/>
   </g>
   <g id="patch_4">
    <path d="M 129.6 189 
L 129.6 25.92 
" style="fill: none; stroke: #000000; stroke-width: 0.8; stroke-linejoin: miter; stroke-linecap: square"/>
   </g>
   <g id="patch_5">
    <path d="M 18 189 
L 129.6 189 
" style="fill: none; stroke: #000000; stroke-width: 0.8; stroke-linejoin: miter; stroke-linecap: square"/>
   </g>
   <g id="patch_6">
    <path d="M 18 25.92 
L 129.6 25.92 
" style="fill: none; stroke: #000000; stroke-width: 0.8; stroke-linejoin: miter; stroke-linecap: square"/>
   </g>
  </g>
 </g>
 <defs>
  <clipPath id="p9a672c467a">
   <rect x="18" y="25.92" width="111.6" height="163.08"/>
  </clipPath>
 </defs>
</svg>
