<?xml version="1.0" encoding="utf-8" standalone="no"?>
<!DOCTYPE svg PUBLIC "-//W3C//DTD SVG 1.1//EN"
  "http://www.w3.org/Graphics/SVG/1.1/DTD/svg11.dtd">
<svg xmlns:xlink="http://www.w3.org/1999/xlink" width="144pt" height="216pt" viewBox="0 0 144 216" xmlns="http://www.w3.org/2000/svg" version="1.1">
 <metadata>
  <rdf:RDF xmlns:dc="http://purl.org/dc/elements/1.1/" xmlns:cc="http://creativecommons.org/ns#" xmlns:rdf="http://www.w3.org/1999/02/22-rdf-syntax-ns#">
   <cc:Work>
    <dc:type rdf:resource="http://purl.org/dc/dcmitype/StillImage"/>
    <dc:date>2022-06-23T10:50:35.280699</dc:date>
    <dc:format>image/svg+xml</dc:format>
    <dc:creator>
     <cc:Agent>
      <dc:title>Matplotlib v3.5.1, https://matplotlib.org/</dc:title>
     </cc:Agent>
    </dc:creator>
   </cc:Work>
  </rdf:RDF>
 </metadata>
 <defs>
  <style type="text/css">*{stroke-linejoin: round; stroke-linecap: butt}</style>
 </defs>
 <g id="figure_1">
  <g id="patch_1">
   <path d="M 0 216 
L 144 216 
L 144 0 
L 0 0 
L 0 216 
z
" style="fill: none"/>
  </g>
  <g id="axes_1">
   <g id="patch_2">
    <path d="M 18 189 
L 129.6 189 
L 129.6 25.92 
L 18 25.92 
z
" style="fill: #ffffff"/>
   </g>
   <g id="PathCollection_1">
    <defs>
     <path id="m12d6bc0864" d="M 0 2.738613 
C 0.726289 2.738613 1.422928 2.450055 1.936492 1.936492 
C 2.450055 1.422928 2.738613 0.726289 2.738613 0 
C 2.738613 -0.726289 2.450055 -1.422928 1.936492 -1.936492 
C 1.422928 -2.450055 0.726289 -2.738613 0 -2.738613 
C -0.726289 -2.738613 -1.422928 -2.450055 -1.936492 -1.936492 
C -2.450055 -1.422928 -2.738613 -0.726289 -2.738613 0 
C -2.738613 0.726289 -2.450055 1.422928 -1.936492 1.936492 
C -1.422928 2.450055 -0.726289 2.738613 0 2.738613 
z
" style="stroke: #ff0000; stroke-width: 1.75"/>
    </defs>
    <g clip-path="url(#pcbcaee7d65)">
     <use xlink:href="#m12d6bc0864" x="80.775" y="107.46" style="fill: #ff0000; stroke: #ff0000; stroke-width: 1.75"/>
     <use xlink:href="#m12d6bc0864" x="94.725" y="107.46" style="fill: #ff0000; stroke: #ff0000; stroke-width: 1.75"/>
     <use xlink:href="#m12d6bc0864" x="59.85" y="119.229285" style="fill: #ff0000; stroke: #ff0000; stroke-width: 1.75"/>
     <use xlink:href="#m12d6bc0864" x="73.8" y="119.229285" style="fill: #ff0000; stroke: #ff0000; stroke-width: 1.75"/>
     <use xlink:href="#m12d6bc0864" x="87.75" y="119.229285" style="fill: #ff0000; stroke: #ff0000; stroke-width: 1.75"/>
     <use xlink:href="#m12d6bc0864" x="66.825" y="130.99857" style="fill: #ff0000; stroke: #ff0000; stroke-width: 1.75"/>
     <use xlink:href="#m12d6bc0864" x="80.775" y="130.99857" style="fill: #ff0000; stroke: #ff0000; stroke-width: 1.75"/>
    </g>
   </g>
   <g id="PathCollection_2">
    <defs>
     <path id="C0_0_2181e18652" d="M 0 2.738613 
C 0.726289 2.738613 1.422928 2.450055 1.936492 1.936492 
C 2.450055 1.422928 2.738613 0.726289 2.738613 -0 
C 2.738613 -0.726289 2.450055 -1.422928 1.936492 -1.936492 
C 1.422928 -2.450055 0.726289 -2.738613 0 -2.738613 
C -0.726289 -2.738613 -1.422928 -2.450055 -1.936492 -1.936492 
C -2.450055 -1.422928 -2.738613 -0.726289 -2.738613 0 
C -2.738613 0.726289 -2.450055 1.422928 -1.936492 1.936492 
C -1.422928 2.450055 -0.726289 2.738613 0 2.738613 
z
"/>
    </defs>
    <g clip-path="url(#pcbcaee7d65)">
     <use xlink:href="#C0_0_2181e18652" x="66.825" y="83.92143" style="fill: none; stroke: #ff0000; stroke-width: 1.75"/>
    </g>
    <g clip-path="url(#pcbcaee7d65)">
     <use xlink:href="#C0_0_2181e18652" x="80.775" y="83.92143" style="fill: none; stroke: #ff0000; stroke-width: 1.75"/>
    </g>
    <g clip-path="url(#pcbcaee7d65)">
     <use xlink:href="#C0_0_2181e18652" x="59.85" y="95.690715" style="fill: none; stroke: #ff0000; stroke-width: 1.75"/>
    </g>
    <g clip-path="url(#pcbcaee7d65)">
     <use xlink:href="#C0_0_2181e18652" x="73.8" y="95.690715" style="fill: none; stroke: #ff0000; stroke-width: 1.75"/>
    </g>
    <g clip-path="url(#pcbcaee7d65)">
     <use xlink:href="#C0_0_2181e18652" x="87.75" y="95.690715" style="fill: none; stroke: #ff0000; stroke-width: 1.75"/>
    </g>
    <g clip-path="url(#pcbcaee7d65)">
     <use xlink:href="#C0_0_2181e18652" x="52.875" y="107.46" style="fill: none; stroke: #ff0000; stroke-width: 1.75"/>
    </g>
    <g clip-path="url(#pcbcaee7d65)">
     <use xlink:href="#C0_0_2181e18652" x="66.825" y="107.46" style="fill: none; stroke: #ff0000; stroke-width: 1.75"/>
    </g>
   </g>
   <g id="PathCollection_3">
    <path d="M 101.720251 52.871872 
C 101.720251 52.871872 101.720251 52.871872 101.720251 52.871872 
C 101.720251 52.871872 101.720251 52.871872 101.720251 52.871872 
C 101.720251 52.871872 101.720251 52.871872 101.720251 52.871872 
C 101.720251 52.871872 101.720251 52.871872 101.720251 52.871872 
C 101.720251 52.871872 101.720251 52.871872 101.720251 52.871872 
C 101.720251 52.871872 101.720251 52.871872 101.720251 52.871872 
C 101.720251 52.871872 101.720251 52.871872 101.720251 52.871872 
C 101.720251 52.871872 101.720251 52.871872 101.720251 52.871872 
z
" clip-path="url(#pcbcaee7d65)" style="stroke: #000000"/>
    <path d="M 121.808497 141.555152 
C 121.808497 141.555152 121.808497 141.555152 121.808497 141.555152 
C 121.808497 141.555152 121.808497 141.555152 121.808497 141.555152 
C 121.808497 141.555152 121.808497 141.555152 121.808497 141.555152 
C 121.808497 141.555152 121.808497 141.555152 121.808497 141.555152 
C 121.808497 141.555152 121.808497 141.555152 121.808497 141.555152 
C 121.808497 141.555152 121.808497 141.555152 121.808497 141.555152 
C 121.808497 141.555152 121.808497 141.555152 121.808497 141.555152 
C 121.808497 141.555152 121.808497 141.555152 121.808497 141.555152 
z
" clip-path="url(#pcbcaee7d65)" style="stroke: #000000"/>
    <path d="M 117.869094 125.082607 
C 118.222141 125.082607 118.560775 124.94234 118.810417 124.692698 
C 119.060059 124.443056 119.200326 124.104422 119.200326 123.751374 
C 119.200326 123.398327 119.060059 123.059693 118.810417 122.810051 
C 118.560775 122.560409 118.222141 122.420142 117.869094 122.420142 
C 117.516047 122.420142 117.177412 122.560409 116.92777 122.810051 
C 116.678128 123.059693 116.537861 123.398327 116.537861 123.751374 
C 116.537861 124.104422 116.678128 124.443056 116.92777 124.692698 
C 117.177412 124.94234 117.516047 125.082607 117.869094 125.082607 
z
" clip-path="url(#pcbcaee7d65)" style="stroke: #000000"/>
    <path d="M 115.469775 110.450552 
C 115.469775 110.450552 115.469775 110.450552 115.469775 110.450552 
C 115.469775 110.450552 115.469775 110.450552 115.469775 110.450552 
C 115.469775 110.450552 115.469775 110.450552 115.469775 110.450552 
C 115.469775 110.450552 115.469775 110.450552 115.469775 110.450552 
C 115.469775 110.450552 115.469775 110.450552 115.469775 110.450552 
C 115.469775 110.450552 115.469775 110.450552 115.469775 110.450552 
C 115.469775 110.450552 115.469775 110.450552 115.469775 110.450552 
C 115.469775 110.450552 115.469775 110.450552 115.469775 110.450552 
z
" clip-path="url(#pcbcaee7d65)" style="stroke: #000000"/>
    <path d="M 109.117067 96.665698 
C 109.117067 96.665698 109.117067 96.665698 109.117067 96.665698 
C 109.117067 96.665698 109.117067 96.665698 109.117067 96.665698 
C 109.117067 96.665698 109.117067 96.665698 109.117067 96.665698 
C 109.117067 96.665698 109.117067 96.665698 109.117067 96.665698 
C 109.117067 96.665698 109.117067 96.665698 109.117067 96.665698 
C 109.117067 96.665698 109.117067 96.665698 109.117067 96.665698 
C 109.117067 96.665698 109.117067 96.665698 109.117067 96.665698 
C 109.117067 96.665698 109.117067 96.665698 109.117067 96.665698 
z
" clip-path="url(#pcbcaee7d65)" style="stroke: #000000"/>
    <path d="M 106.069541 89.881858 
C 106.069541 89.881858 106.069541 89.881858 106.069541 89.881858 
C 106.069541 89.881858 106.069541 89.881858 106.069541 89.881858 
C 106.069541 89.881858 106.069541 89.881858 106.069541 89.881858 
C 106.069541 89.881858 106.069541 89.881858 106.069541 89.881858 
C 106.069541 89.881858 106.069541 89.881858 106.069541 89.881858 
C 106.069541 89.881858 106.069541 89.881858 106.069541 89.881858 
C 106.069541 89.881858 106.069541 89.881858 106.069541 89.881858 
C 106.069541 89.881858 106.069541 89.881858 106.069541 89.881858 
z
" clip-path="url(#pcbcaee7d65)" style="stroke: #000000"/>
    <path d="M 95.081398 76.277256 
C 95.081398 76.277256 95.081398 76.277256 95.081398 76.277256 
C 95.081398 76.277256 95.081398 76.277256 95.081398 76.277256 
C 95.081398 76.277256 95.081398 76.277256 95.081398 76.277256 
C 95.081398 76.277256 95.081398 76.277256 95.081398 76.277256 
C 95.081398 76.277256 95.081398 76.277256 95.081398 76.277256 
C 95.081398 76.277256 95.081398 76.277256 95.081398 76.277256 
C 95.081398 76.277256 95.081398 76.277256 95.081398 76.277256 
C 95.081398 76.277256 95.081398 76.277256 95.081398 76.277256 
z
" clip-path="url(#pcbcaee7d65)" style="stroke: #000000"/>
    <path d="M 98.686074 68.786605 
C 98.686074 68.786605 98.686074 68.786605 98.686074 68.786605 
C 98.686074 68.786605 98.686074 68.786605 98.686074 68.786605 
C 98.686074 68.786605 98.686074 68.786605 98.686074 68.786605 
C 98.686074 68.786605 98.686074 68.786605 98.686074 68.786605 
C 98.686074 68.786605 98.686074 68.786605 98.686074 68.786605 
C 98.686074 68.786605 98.686074 68.786605 98.686074 68.786605 
C 98.686074 68.786605 98.686074 68.786605 98.686074 68.786605 
C 98.686074 68.786605 98.686074 68.786605 98.686074 68.786605 
z
" clip-path="url(#pcbcaee7d65)" style="stroke: #000000"/>
    <path d="M 98.205316 58.25969 
C 98.555248 58.25969 98.890895 58.12066 99.138335 57.873221 
C 99.385774 57.625781 99.524804 57.290134 99.524804 56.940202 
C 99.524804 56.59027 99.385774 56.254623 99.138335 56.007183 
C 98.890895 55.759744 98.555248 55.620714 98.205316 55.620714 
C 97.855384 55.620714 97.519737 55.759744 97.272297 56.007183 
C 97.024858 56.254623 96.885828 56.59027 96.885828 56.940202 
C 96.885828 57.290134 97.024858 57.625781 97.272297 57.873221 
C 97.519737 58.12066 97.855384 58.25969 98.205316 58.25969 
z
" clip-path="url(#pcbcaee7d65)" style="stroke: #000000"/>
    <path d="M 91.459494 49.811417 
C 91.459494 49.811417 91.459494 49.811417 91.459494 49.811417 
C 91.459494 49.811417 91.459494 49.811417 91.459494 49.811417 
C 91.459494 49.811417 91.459494 49.811417 91.459494 49.811417 
C 91.459494 49.811417 91.459494 49.811417 91.459494 49.811417 
C 91.459494 49.811417 91.459494 49.811417 91.459494 49.811417 
C 91.459494 49.811417 91.459494 49.811417 91.459494 49.811417 
C 91.459494 49.811417 91.459494 49.811417 91.459494 49.811417 
C 91.459494 49.811417 91.459494 49.811417 91.459494 49.811417 
z
" clip-path="url(#pcbcaee7d65)" style="stroke: #000000"/>
    <path d="M 88.145167 36.006128 
C 88.145167 36.006128 88.145167 36.006128 88.145167 36.006128 
C 88.145167 36.006128 88.145167 36.006128 88.145167 36.006128 
C 88.145167 36.006128 88.145167 36.006128 88.145167 36.006128 
C 88.145167 36.006128 88.145167 36.006128 88.145167 36.006128 
C 88.145167 36.006128 88.145167 36.006128 88.145167 36.006128 
C 88.145167 36.006128 88.145167 36.006128 88.145167 36.006128 
C 88.145167 36.006128 88.145167 36.006128 88.145167 36.006128 
C 88.145167 36.006128 88.145167 36.006128 88.145167 36.006128 
z
" clip-path="url(#pcbcaee7d65)" style="stroke: #000000"/>
    <path d="M 122.420251 164.475248 
C 122.420251 164.475248 122.420251 164.475248 122.420251 164.475248 
C 122.420251 164.475248 122.420251 164.475248 122.420251 164.475248 
C 122.420251 164.475248 122.420251 164.475248 122.420251 164.475248 
C 122.420251 164.475248 122.420251 164.475248 122.420251 164.475248 
C 122.420251 164.475248 122.420251 164.475248 122.420251 164.475248 
C 122.420251 164.475248 122.420251 164.475248 122.420251 164.475248 
C 122.420251 164.475248 122.420251 164.475248 122.420251 164.475248 
C 122.420251 164.475248 122.420251 164.475248 122.420251 164.475248 
z
" clip-path="url(#pcbcaee7d65)" style="stroke: #000000"/>
    <path d="M 116.898399 152.221719 
C 117.251446 152.221719 117.590081 152.081452 117.839723 151.83181 
C 118.089365 151.582168 118.229632 151.243533 118.229632 150.890486 
C 118.229632 150.537439 118.089365 150.198805 117.839723 149.949163 
C 117.590081 149.699521 117.251446 149.559253 116.898399 149.559253 
C 116.545352 149.559253 116.206717 149.699521 115.957075 149.949163 
C 115.707433 150.198805 115.567166 150.537439 115.567166 150.890486 
C 115.567166 151.243533 115.707433 151.582168 115.957075 151.83181 
C 116.206717 152.081452 116.545352 152.221719 116.898399 152.221719 
z
" clip-path="url(#pcbcaee7d65)" style="stroke: #000000"/>
    <path d="M 111.167432 144.181974 
C 111.520479 144.181974 111.859113 144.041707 112.108755 143.792065 
C 112.358397 143.542423 112.498665 143.203789 112.498665 142.850742 
C 112.498665 142.497695 112.358397 142.15906 112.108755 141.909418 
C 111.859113 141.659776 111.520479 141.519509 111.167432 141.519509 
C 110.814385 141.519509 110.47575 141.659776 110.226108 141.909418 
C 109.976466 142.15906 109.836199 142.497695 109.836199 142.850742 
C 109.836199 143.203789 109.976466 143.542423 110.226108 143.792065 
C 110.47575 144.041707 110.814385 144.181974 111.167432 144.181974 
z
" clip-path="url(#pcbcaee7d65)" style="stroke: #000000"/>
    <path d="M 111.145226 131.970752 
C 111.145226 131.970752 111.145226 131.970752 111.145226 131.970752 
C 111.145226 131.970752 111.145226 131.970752 111.145226 131.970752 
C 111.145226 131.970752 111.145226 131.970752 111.145226 131.970752 
C 111.145226 131.970752 111.145226 131.970752 111.145226 131.970752 
C 111.145226 131.970752 111.145226 131.970752 111.145226 131.970752 
C 111.145226 131.970752 111.145226 131.970752 111.145226 131.970752 
C 111.145226 131.970752 111.145226 131.970752 111.145226 131.970752 
C 111.145226 131.970752 111.145226 131.970752 111.145226 131.970752 
z
" clip-path="url(#pcbcaee7d65)" style="stroke: #000000"/>
    <path d="M 109.149817 125.557507 
C 109.149817 125.557507 109.149817 125.557507 109.149817 125.557507 
C 109.149817 125.557507 109.149817 125.557507 109.149817 125.557507 
C 109.149817 125.557507 109.149817 125.557507 109.149817 125.557507 
C 109.149817 125.557507 109.149817 125.557507 109.149817 125.557507 
C 109.149817 125.557507 109.149817 125.557507 109.149817 125.557507 
C 109.149817 125.557507 109.149817 125.557507 109.149817 125.557507 
C 109.149817 125.557507 109.149817 125.557507 109.149817 125.557507 
C 109.149817 125.557507 109.149817 125.557507 109.149817 125.557507 
z
" clip-path="url(#pcbcaee7d65)" style="stroke: #000000"/>
    <path d="M 101.184427 113.994579 
C 101.604011 113.994579 102.006467 113.827876 102.303159 113.531185 
C 102.59985 113.234494 102.766553 112.832038 102.766553 112.412453 
C 102.766553 111.992868 102.59985 111.590412 102.303159 111.293721 
C 102.006467 110.99703 101.604011 110.830327 101.184427 110.830327 
C 100.764842 110.830327 100.362386 110.99703 100.065694 111.293721 
C 99.769003 111.590412 99.6023 111.992868 99.6023 112.412453 
C 99.6023 112.832038 99.769003 113.234494 100.065694 113.531185 
C 100.362386 113.827876 100.764842 113.994579 101.184427 113.994579 
z
" clip-path="url(#pcbcaee7d65)" style="stroke: #000000"/>
    <path d="M 99.990219 102.747383 
C 99.990219 102.747383 99.990219 102.747383 99.990219 102.747383 
C 99.990219 102.747383 99.990219 102.747383 99.990219 102.747383 
C 99.990219 102.747383 99.990219 102.747383 99.990219 102.747383 
C 99.990219 102.747383 99.990219 102.747383 99.990219 102.747383 
C 99.990219 102.747383 99.990219 102.747383 99.990219 102.747383 
C 99.990219 102.747383 99.990219 102.747383 99.990219 102.747383 
C 99.990219 102.747383 99.990219 102.747383 99.990219 102.747383 
C 99.990219 102.747383 99.990219 102.747383 99.990219 102.747383 
z
" clip-path="url(#pcbcaee7d65)" style="stroke: #000000"/>
    <path d="M 95.492307 93.057606 
C 95.91163 93.057606 96.313835 92.891007 96.610341 92.594501 
C 96.906847 92.297995 97.073446 91.89579 97.073446 91.476467 
C 97.073446 91.057144 96.906847 90.654939 96.610341 90.358433 
C 96.313835 90.061927 95.91163 89.895328 95.492307 89.895328 
C 95.072984 89.895328 94.670779 90.061927 94.374273 90.358433 
C 94.077767 90.654939 93.911168 91.057144 93.911168 91.476467 
C 93.911168 91.89579 94.077767 92.297995 94.374273 92.594501 
C 94.670779 92.891007 95.072984 93.057606 95.492307 93.057606 
z
" clip-path="url(#pcbcaee7d65)" style="stroke: #000000"/>
    <path d="M 91.692574 80.491736 
C 92.038375 80.491736 92.37006 80.354347 92.614578 80.109829 
C 92.859097 79.865311 92.996485 79.533626 92.996485 79.187825 
C 92.996485 78.842023 92.859097 78.510339 92.614578 78.26582 
C 92.37006 78.021302 92.038375 77.883914 91.692574 77.883914 
C 91.346773 77.883914 91.015088 78.021302 90.77057 78.26582 
C 90.526051 78.510339 90.388663 78.842023 90.388663 79.187825 
C 90.388663 79.533626 90.526051 79.865311 90.77057 80.109829 
C 91.015088 80.354347 91.346773 80.491736 91.692574 80.491736 
z
" clip-path="url(#pcbcaee7d65)" style="stroke: #000000"/>
    <path d="M 84.947161 72.165809 
C 84.947161 72.165809 84.947161 72.165809 84.947161 72.165809 
C 84.947161 72.165809 84.947161 72.165809 84.947161 72.165809 
C 84.947161 72.165809 84.947161 72.165809 84.947161 72.165809 
C 84.947161 72.165809 84.947161 72.165809 84.947161 72.165809 
C 84.947161 72.165809 84.947161 72.165809 84.947161 72.165809 
C 84.947161 72.165809 84.947161 72.165809 84.947161 72.165809 
C 84.947161 72.165809 84.947161 72.165809 84.947161 72.165809 
C 84.947161 72.165809 84.947161 72.165809 84.947161 72.165809 
z
" clip-path="url(#pcbcaee7d65)" style="stroke: #000000"/>
    <path d="M 85.476723 59.901979 
C 85.476723 59.901979 85.476723 59.901979 85.476723 59.901979 
C 85.476723 59.901979 85.476723 59.901979 85.476723 59.901979 
C 85.476723 59.901979 85.476723 59.901979 85.476723 59.901979 
C 85.476723 59.901979 85.476723 59.901979 85.476723 59.901979 
C 85.476723 59.901979 85.476723 59.901979 85.476723 59.901979 
C 85.476723 59.901979 85.476723 59.901979 85.476723 59.901979 
C 85.476723 59.901979 85.476723 59.901979 85.476723 59.901979 
C 85.476723 59.901979 85.476723 59.901979 85.476723 59.901979 
z
" clip-path="url(#pcbcaee7d65)" style="stroke: #000000"/>
    <path d="M 83.072726 48.690006 
C 83.072726 48.690006 83.072726 48.690006 83.072726 48.690006 
C 83.072726 48.690006 83.072726 48.690006 83.072726 48.690006 
C 83.072726 48.690006 83.072726 48.690006 83.072726 48.690006 
C 83.072726 48.690006 83.072726 48.690006 83.072726 48.690006 
C 83.072726 48.690006 83.072726 48.690006 83.072726 48.690006 
C 83.072726 48.690006 83.072726 48.690006 83.072726 48.690006 
C 83.072726 48.690006 83.072726 48.690006 83.072726 48.690006 
C 83.072726 48.690006 83.072726 48.690006 83.072726 48.690006 
z
" clip-path="url(#pcbcaee7d65)" style="stroke: #000000"/>
    <path d="M 80.702905 43.74224 
C 80.702905 43.74224 80.702905 43.74224 80.702905 43.74224 
C 80.702905 43.74224 80.702905 43.74224 80.702905 43.74224 
C 80.702905 43.74224 80.702905 43.74224 80.702905 43.74224 
C 80.702905 43.74224 80.702905 43.74224 80.702905 43.74224 
C 80.702905 43.74224 80.702905 43.74224 80.702905 43.74224 
C 80.702905 43.74224 80.702905 43.74224 80.702905 43.74224 
C 80.702905 43.74224 80.702905 43.74224 80.702905 43.74224 
C 80.702905 43.74224 80.702905 43.74224 80.702905 43.74224 
z
" clip-path="url(#pcbcaee7d65)" style="stroke: #000000"/>
    <path d="M 74.632871 29.574804 
C 74.632871 29.574804 74.632871 29.574804 74.632871 29.574804 
C 74.632871 29.574804 74.632871 29.574804 74.632871 29.574804 
C 74.632871 29.574804 74.632871 29.574804 74.632871 29.574804 
C 74.632871 29.574804 74.632871 29.574804 74.632871 29.574804 
C 74.632871 29.574804 74.632871 29.574804 74.632871 29.574804 
C 74.632871 29.574804 74.632871 29.574804 74.632871 29.574804 
C 74.632871 29.574804 74.632871 29.574804 74.632871 29.574804 
C 74.632871 29.574804 74.632871 29.574804 74.632871 29.574804 
z
" clip-path="url(#pcbcaee7d65)" style="stroke: #000000"/>
    <path d="M 111.877742 177.21578 
C 111.877742 177.21578 111.877742 177.21578 111.877742 177.21578 
C 111.877742 177.21578 111.877742 177.21578 111.877742 177.21578 
C 111.877742 177.21578 111.877742 177.21578 111.877742 177.21578 
C 111.877742 177.21578 111.877742 177.21578 111.877742 177.21578 
C 111.877742 177.21578 111.877742 177.21578 111.877742 177.21578 
C 111.877742 177.21578 111.877742 177.21578 111.877742 177.21578 
C 111.877742 177.21578 111.877742 177.21578 111.877742 177.21578 
C 111.877742 177.21578 111.877742 177.21578 111.877742 177.21578 
z
" clip-path="url(#pcbcaee7d65)" style="stroke: #000000"/>
    <path d="M 113.044749 168.553574 
C 113.044749 168.553574 113.044749 168.553574 113.044749 168.553574 
C 113.044749 168.553574 113.044749 168.553574 113.044749 168.553574 
C 113.044749 168.553574 113.044749 168.553574 113.044749 168.553574 
C 113.044749 168.553574 113.044749 168.553574 113.044749 168.553574 
C 113.044749 168.553574 113.044749 168.553574 113.044749 168.553574 
C 113.044749 168.553574 113.044749 168.553574 113.044749 168.553574 
C 113.044749 168.553574 113.044749 168.553574 113.044749 168.553574 
C 113.044749 168.553574 113.044749 168.553574 113.044749 168.553574 
z
" clip-path="url(#pcbcaee7d65)" style="stroke: #000000"/>
    <path d="M 104.771138 157.986647 
C 104.771138 157.986647 104.771138 157.986647 104.771138 157.986647 
C 104.771138 157.986647 104.771138 157.986647 104.771138 157.986647 
C 104.771138 157.986647 104.771138 157.986647 104.771138 157.986647 
C 104.771138 157.986647 104.771138 157.986647 104.771138 157.986647 
C 104.771138 157.986647 104.771138 157.986647 104.771138 157.986647 
C 104.771138 157.986647 104.771138 157.986647 104.771138 157.986647 
C 104.771138 157.986647 104.771138 157.986647 104.771138 157.986647 
C 104.771138 157.986647 104.771138 157.986647 104.771138 157.986647 
z
" clip-path="url(#pcbcaee7d65)" style="stroke: #000000"/>
    <path d="M 99.905766 153.913317 
C 100.260123 153.913317 100.600014 153.77253 100.850582 153.521962 
C 101.101151 153.271393 101.241938 152.931502 101.241938 152.577145 
C 101.241938 152.222788 101.101151 151.882896 100.850582 151.632328 
C 100.600014 151.38176 100.260123 151.240972 99.905766 151.240972 
C 99.551409 151.240972 99.211517 151.38176 98.960949 151.632328 
C 98.710381 151.882896 98.569593 152.222788 98.569593 152.577145 
C 98.569593 152.931502 98.710381 153.271393 98.960949 153.521962 
C 99.211517 153.77253 99.551409 153.913317 99.905766 153.913317 
z
" clip-path="url(#pcbcaee7d65)" style="stroke: #000000"/>
    <path d="M 98.837334 137.932305 
C 98.837334 137.932305 98.837334 137.932305 98.837334 137.932305 
C 98.837334 137.932305 98.837334 137.932305 98.837334 137.932305 
C 98.837334 137.932305 98.837334 137.932305 98.837334 137.932305 
C 98.837334 137.932305 98.837334 137.932305 98.837334 137.932305 
C 98.837334 137.932305 98.837334 137.932305 98.837334 137.932305 
C 98.837334 137.932305 98.837334 137.932305 98.837334 137.932305 
C 98.837334 137.932305 98.837334 137.932305 98.837334 137.932305 
C 98.837334 137.932305 98.837334 137.932305 98.837334 137.932305 
z
" clip-path="url(#pcbcaee7d65)" style="stroke: #000000"/>
    <path d="M 94.854964 124.426606 
C 94.854964 124.426606 94.854964 124.426606 94.854964 124.426606 
C 94.854964 124.426606 94.854964 124.426606 94.854964 124.426606 
C 94.854964 124.426606 94.854964 124.426606 94.854964 124.426606 
C 94.854964 124.426606 94.854964 124.426606 94.854964 124.426606 
C 94.854964 124.426606 94.854964 124.426606 94.854964 124.426606 
C 94.854964 124.426606 94.854964 124.426606 94.854964 124.426606 
C 94.854964 124.426606 94.854964 124.426606 94.854964 124.426606 
C 94.854964 124.426606 94.854964 124.426606 94.854964 124.426606 
z
" clip-path="url(#pcbcaee7d65)" style="stroke: #000000"/>
    <path d="M 94.964942 121.646053 
C 95.384527 121.646053 95.786983 121.47935 96.083674 121.182659 
C 96.380365 120.885967 96.547068 120.483511 96.547068 120.063927 
C 96.547068 119.644342 96.380365 119.241886 96.083674 118.945195 
C 95.786983 118.648503 95.384527 118.4818 94.964942 118.4818 
C 94.545357 118.4818 94.142901 118.648503 93.84621 118.945195 
C 93.549519 119.241886 93.382816 119.644342 93.382816 120.063927 
C 93.382816 120.483511 93.549519 120.885967 93.84621 121.182659 
C 94.142901 121.47935 94.545357 121.646053 94.964942 121.646053 
z
" clip-path="url(#pcbcaee7d65)" style="stroke: #000000"/>
    <path d="M 88.418493 105.888988 
C 88.838077 105.888988 89.240533 105.722285 89.537225 105.425594 
C 89.833916 105.128903 90.000619 104.726447 90.000619 104.306862 
C 90.000619 103.887277 89.833916 103.484821 89.537225 103.18813 
C 89.240533 102.891439 88.838077 102.724736 88.418493 102.724736 
C 87.998908 102.724736 87.596452 102.891439 87.29976 103.18813 
C 87.003069 103.484821 86.836366 103.887277 86.836366 104.306862 
C 86.836366 104.726447 87.003069 105.128903 87.29976 105.425594 
C 87.596452 105.722285 87.998908 105.888988 88.418493 105.888988 
z
" clip-path="url(#pcbcaee7d65)" style="stroke: #000000"/>
    <path d="M 87.938189 96.388939 
C 88.049693 96.388939 88.156645 96.344637 88.23549 96.265792 
C 88.314336 96.186947 88.358637 96.079994 88.358637 95.96849 
C 88.358637 95.856986 88.314336 95.750034 88.23549 95.671189 
C 88.156645 95.592343 88.049693 95.548042 87.938189 95.548042 
C 87.826684 95.548042 87.719732 95.592343 87.640887 95.671189 
C 87.562041 95.750034 87.51774 95.856986 87.51774 95.96849 
C 87.51774 96.079994 87.562041 96.186947 87.640887 96.265792 
C 87.719732 96.344637 87.826684 96.388939 87.938189 96.388939 
z
" clip-path="url(#pcbcaee7d65)" style="stroke: #000000"/>
    <path d="M 81.29582 82.539486 
C 81.715405 82.539486 82.117861 82.372784 82.414552 82.076092 
C 82.711243 81.779401 82.877946 81.376945 82.877946 80.95736 
C 82.877946 80.537776 82.711243 80.135319 82.414552 79.838628 
C 82.117861 79.541937 81.715405 79.375234 81.29582 79.375234 
C 80.876235 79.375234 80.473779 79.541937 80.177088 79.838628 
C 79.880397 80.135319 79.713694 80.537776 79.713694 80.95736 
C 79.713694 81.376945 79.880397 81.779401 80.177088 82.076092 
C 80.473779 82.372784 80.876235 82.539486 81.29582 82.539486 
z
" clip-path="url(#pcbcaee7d65)" style="stroke: #000000"/>
    <path d="M 74.398815 74.92631 
C 74.777123 74.92631 75.139987 74.776007 75.407491 74.508503 
C 75.674994 74.240999 75.825298 73.878135 75.825298 73.499827 
C 75.825298 73.12152 75.674994 72.758656 75.407491 72.491152 
C 75.139987 72.223648 74.777123 72.073345 74.398815 72.073345 
C 74.020507 72.073345 73.657643 72.223648 73.39014 72.491152 
C 73.122636 72.758656 72.972332 73.12152 72.972332 73.499827 
C 72.972332 73.878135 73.122636 74.240999 73.39014 74.508503 
C 73.657643 74.776007 74.020507 74.92631 74.398815 74.92631 
z
" clip-path="url(#pcbcaee7d65)" style="stroke: #000000"/>
    <path d="M 73.591861 68.020992 
C 73.591861 68.020992 73.591861 68.020992 73.591861 68.020992 
C 73.591861 68.020992 73.591861 68.020992 73.591861 68.020992 
C 73.591861 68.020992 73.591861 68.020992 73.591861 68.020992 
C 73.591861 68.020992 73.591861 68.020992 73.591861 68.020992 
C 73.591861 68.020992 73.591861 68.020992 73.591861 68.020992 
C 73.591861 68.020992 73.591861 68.020992 73.591861 68.020992 
C 73.591861 68.020992 73.591861 68.020992 73.591861 68.020992 
C 73.591861 68.020992 73.591861 68.020992 73.591861 68.020992 
z
" clip-path="url(#pcbcaee7d65)" style="stroke: #000000"/>
    <path d="M 70.568965 54.479188 
C 70.922012 54.479188 71.260647 54.338921 71.510289 54.089279 
C 71.759931 53.839637 71.900198 53.501002 71.900198 53.147955 
C 71.900198 52.794908 71.759931 52.456273 71.510289 52.206631 
C 71.260647 51.956989 70.922012 51.816722 70.568965 51.816722 
C 70.215918 51.816722 69.877283 51.956989 69.627642 52.206631 
C 69.378 52.456273 69.237732 52.794908 69.237732 53.147955 
C 69.237732 53.501002 69.378 53.839637 69.627642 54.089279 
C 69.877283 54.338921 70.215918 54.479188 70.568965 54.479188 
z
" clip-path="url(#pcbcaee7d65)" style="stroke: #000000"/>
    <path d="M 64.874742 47.087274 
C 65.212309 47.087274 65.536097 46.953157 65.774793 46.71446 
C 66.013489 46.475764 66.147607 46.151977 66.147607 45.814409 
C 66.147607 45.476841 66.013489 45.153054 65.774793 44.914357 
C 65.536097 44.675661 65.212309 44.541544 64.874742 44.541544 
C 64.537174 44.541544 64.213387 44.675661 63.97469 44.914357 
C 63.735994 45.153054 63.601877 45.476841 63.601877 45.814409 
C 63.601877 46.151977 63.735994 46.475764 63.97469 46.71446 
C 64.213387 46.953157 64.537174 47.087274 64.874742 47.087274 
z
" clip-path="url(#pcbcaee7d65)" style="stroke: #000000"/>
    <path d="M 62.220592 37.462582 
C 62.220592 37.462582 62.220592 37.462582 62.220592 37.462582 
C 62.220592 37.462582 62.220592 37.462582 62.220592 37.462582 
C 62.220592 37.462582 62.220592 37.462582 62.220592 37.462582 
C 62.220592 37.462582 62.220592 37.462582 62.220592 37.462582 
C 62.220592 37.462582 62.220592 37.462582 62.220592 37.462582 
C 62.220592 37.462582 62.220592 37.462582 62.220592 37.462582 
C 62.220592 37.462582 62.220592 37.462582 62.220592 37.462582 
C 62.220592 37.462582 62.220592 37.462582 62.220592 37.462582 
z
" clip-path="url(#pcbcaee7d65)" style="stroke: #000000"/>
    <path d="M 104.192214 180.016852 
C 104.192214 180.016852 104.192214 180.016852 104.192214 180.016852 
C 104.192214 180.016852 104.192214 180.016852 104.192214 180.016852 
C 104.192214 180.016852 104.192214 180.016852 104.192214 180.016852 
C 104.192214 180.016852 104.192214 180.016852 104.192214 180.016852 
C 104.192214 180.016852 104.192214 180.016852 104.192214 180.016852 
C 104.192214 180.016852 104.192214 180.016852 104.192214 180.016852 
C 104.192214 180.016852 104.192214 180.016852 104.192214 180.016852 
C 104.192214 180.016852 104.192214 180.016852 104.192214 180.016852 
z
" clip-path="url(#pcbcaee7d65)" style="stroke: #000000"/>
    <path d="M 104.408969 170.130814 
C 104.408969 170.130814 104.408969 170.130814 104.408969 170.130814 
C 104.408969 170.130814 104.408969 170.130814 104.408969 170.130814 
C 104.408969 170.130814 104.408969 170.130814 104.408969 170.130814 
C 104.408969 170.130814 104.408969 170.130814 104.408969 170.130814 
C 104.408969 170.130814 104.408969 170.130814 104.408969 170.130814 
C 104.408969 170.130814 104.408969 170.130814 104.408969 170.130814 
C 104.408969 170.130814 104.408969 170.130814 104.408969 170.130814 
C 104.408969 170.130814 104.408969 170.130814 104.408969 170.130814 
z
" clip-path="url(#pcbcaee7d65)" style="stroke: #000000"/>
    <path d="M 99.180903 161.469762 
C 99.53395 161.469762 99.872585 161.329495 100.122227 161.079853 
C 100.371869 160.830211 100.512136 160.491576 100.512136 160.138529 
C 100.512136 159.785482 100.371869 159.446847 100.122227 159.197205 
C 99.872585 158.947563 99.53395 158.807296 99.180903 158.807296 
C 98.827856 158.807296 98.489221 158.947563 98.239579 159.197205 
C 97.989937 159.446847 97.84967 159.785482 97.84967 160.138529 
C 97.84967 160.491576 97.989937 160.830211 98.239579 161.079853 
C 98.489221 161.329495 98.827856 161.469762 99.180903 161.469762 
z
" clip-path="url(#pcbcaee7d65)" style="stroke: #000000"/>
    <path d="M 89.197005 153.36306 
C 89.30851 153.36306 89.415462 153.318759 89.494307 153.239914 
C 89.573152 153.161068 89.617454 153.054116 89.617454 152.942612 
C 89.617454 152.831108 89.573152 152.724155 89.494307 152.64531 
C 89.415462 152.566465 89.30851 152.522164 89.197005 152.522164 
C 89.085501 152.522164 88.978549 152.566465 88.899704 152.64531 
C 88.820858 152.724155 88.776557 152.831108 88.776557 152.942612 
C 88.776557 153.054116 88.820858 153.161068 88.899704 153.239914 
C 88.978549 153.318759 89.085501 153.36306 89.197005 153.36306 
z
" clip-path="url(#pcbcaee7d65)" style="stroke: #000000"/>
    <path d="M 89.887422 141.180426 
C 89.887422 141.180426 89.887422 141.180426 89.887422 141.180426 
C 89.887422 141.180426 89.887422 141.180426 89.887422 141.180426 
C 89.887422 141.180426 89.887422 141.180426 89.887422 141.180426 
C 89.887422 141.180426 89.887422 141.180426 89.887422 141.180426 
C 89.887422 141.180426 89.887422 141.180426 89.887422 141.180426 
C 89.887422 141.180426 89.887422 141.180426 89.887422 141.180426 
C 89.887422 141.180426 89.887422 141.180426 89.887422 141.180426 
C 89.887422 141.180426 89.887422 141.180426 89.887422 141.180426 
z
" clip-path="url(#pcbcaee7d65)" style="stroke: #000000"/>
    <path d="M 86.128609 133.480369 
C 86.507629 133.480369 86.871175 133.329783 87.139182 133.061776 
C 87.40719 132.793769 87.557776 132.430222 87.557776 132.051203 
C 87.557776 131.672183 87.40719 131.308637 87.139182 131.04063 
C 86.871175 130.772622 86.507629 130.622036 86.128609 130.622036 
C 85.74959 130.622036 85.386043 130.772622 85.118036 131.04063 
C 84.850029 131.308637 84.699443 131.672183 84.699443 132.051203 
C 84.699443 132.430222 84.850029 132.793769 85.118036 133.061776 
C 85.386043 133.329783 85.74959 133.480369 86.128609 133.480369 
z
" clip-path="url(#pcbcaee7d65)" style="stroke: #000000"/>
    <path d="M 80.279416 120.021467 
C 80.699001 120.021467 81.101457 119.854765 81.398149 119.558073 
C 81.69484 119.261382 81.861543 118.858926 81.861543 118.439341 
C 81.861543 118.019756 81.69484 117.6173 81.398149 117.320609 
C 81.101457 117.023918 80.699001 116.857215 80.279416 116.857215 
C 79.859832 116.857215 79.457376 117.023918 79.160684 117.320609 
C 78.863993 117.6173 78.69729 118.019756 78.69729 118.439341 
C 78.69729 118.858926 78.863993 119.261382 79.160684 119.558073 
C 79.457376 119.854765 79.859832 120.021467 80.279416 120.021467 
z
" clip-path="url(#pcbcaee7d65)" style="stroke: #000000"/>
    <path d="M 79.678824 110.180836 
C 79.678824 110.180836 79.678824 110.180836 79.678824 110.180836 
C 79.678824 110.180836 79.678824 110.180836 79.678824 110.180836 
C 79.678824 110.180836 79.678824 110.180836 79.678824 110.180836 
C 79.678824 110.180836 79.678824 110.180836 79.678824 110.180836 
C 79.678824 110.180836 79.678824 110.180836 79.678824 110.180836 
C 79.678824 110.180836 79.678824 110.180836 79.678824 110.180836 
C 79.678824 110.180836 79.678824 110.180836 79.678824 110.180836 
C 79.678824 110.180836 79.678824 110.180836 79.678824 110.180836 
z
" clip-path="url(#pcbcaee7d65)" style="stroke: #000000"/>
    <path d="M 71.938678 103.395309 
C 72.358001 103.395309 72.760206 103.228711 73.056712 102.932205 
C 73.353218 102.635699 73.519817 102.233494 73.519817 101.814171 
C 73.519817 101.394848 73.353218 100.992643 73.056712 100.696137 
C 72.760206 100.399631 72.358001 100.233032 71.938678 100.233032 
C 71.519355 100.233032 71.11715 100.399631 70.820644 100.696137 
C 70.524138 100.992643 70.357539 101.394848 70.357539 101.814171 
C 70.357539 102.233494 70.524138 102.635699 70.820644 102.932205 
C 71.11715 103.228711 71.519355 103.395309 71.938678 103.395309 
z
" clip-path="url(#pcbcaee7d65)" style="stroke: #000000"/>
    <path d="M 72.47356 90.388252 
C 72.849708 90.388252 73.2105 90.238806 73.476477 89.97283 
C 73.742454 89.706853 73.891899 89.346061 73.891899 88.969913 
C 73.891899 88.593765 73.742454 88.232973 73.476477 87.966996 
C 73.2105 87.701019 72.849708 87.551574 72.47356 87.551574 
C 72.097412 87.551574 71.73662 87.701019 71.470643 87.966996 
C 71.204666 88.232973 71.055221 88.593765 71.055221 88.969913 
C 71.055221 89.346061 71.204666 89.706853 71.470643 89.97283 
C 71.73662 90.238806 72.097412 90.388252 72.47356 90.388252 
z
" clip-path="url(#pcbcaee7d65)" style="stroke: #000000"/>
    <path d="M 66.370713 81.477094 
C 66.790298 81.477094 67.192754 81.310391 67.489445 81.0137 
C 67.786137 80.717009 67.952839 80.314552 67.952839 79.894968 
C 67.952839 79.475383 67.786137 79.072927 67.489445 78.776236 
C 67.192754 78.479544 66.790298 78.312842 66.370713 78.312842 
C 65.951128 78.312842 65.548672 78.479544 65.251981 78.776236 
C 64.95529 79.072927 64.788587 79.475383 64.788587 79.894968 
C 64.788587 80.314552 64.95529 80.717009 65.251981 81.0137 
C 65.548672 81.310391 65.951128 81.477094 66.370713 81.477094 
z
" clip-path="url(#pcbcaee7d65)" style="stroke: #000000"/>
    <path d="M 67.444916 66.878676 
C 67.444916 66.878676 67.444916 66.878676 67.444916 66.878676 
C 67.444916 66.878676 67.444916 66.878676 67.444916 66.878676 
C 67.444916 66.878676 67.444916 66.878676 67.444916 66.878676 
C 67.444916 66.878676 67.444916 66.878676 67.444916 66.878676 
C 67.444916 66.878676 67.444916 66.878676 67.444916 66.878676 
C 67.444916 66.878676 67.444916 66.878676 67.444916 66.878676 
C 67.444916 66.878676 67.444916 66.878676 67.444916 66.878676 
C 67.444916 66.878676 67.444916 66.878676 67.444916 66.878676 
z
" clip-path="url(#pcbcaee7d65)" style="stroke: #000000"/>
    <path d="M 62.903964 58.267491 
C 62.903964 58.267491 62.903964 58.267491 62.903964 58.267491 
C 62.903964 58.267491 62.903964 58.267491 62.903964 58.267491 
C 62.903964 58.267491 62.903964 58.267491 62.903964 58.267491 
C 62.903964 58.267491 62.903964 58.267491 62.903964 58.267491 
C 62.903964 58.267491 62.903964 58.267491 62.903964 58.267491 
C 62.903964 58.267491 62.903964 58.267491 62.903964 58.267491 
C 62.903964 58.267491 62.903964 58.267491 62.903964 58.267491 
C 62.903964 58.267491 62.903964 58.267491 62.903964 58.267491 
z
" clip-path="url(#pcbcaee7d65)" style="stroke: #000000"/>
    <path d="M 59.77081 49.488863 
C 59.77081 49.488863 59.77081 49.488863 59.77081 49.488863 
C 59.77081 49.488863 59.77081 49.488863 59.77081 49.488863 
C 59.77081 49.488863 59.77081 49.488863 59.77081 49.488863 
C 59.77081 49.488863 59.77081 49.488863 59.77081 49.488863 
C 59.77081 49.488863 59.77081 49.488863 59.77081 49.488863 
C 59.77081 49.488863 59.77081 49.488863 59.77081 49.488863 
C 59.77081 49.488863 59.77081 49.488863 59.77081 49.488863 
C 59.77081 49.488863 59.77081 49.488863 59.77081 49.488863 
z
" clip-path="url(#pcbcaee7d65)" style="stroke: #000000"/>
    <path d="M 55.91986 40.47511 
C 55.91986 40.47511 55.91986 40.47511 55.91986 40.47511 
C 55.91986 40.47511 55.91986 40.47511 55.91986 40.47511 
C 55.91986 40.47511 55.91986 40.47511 55.91986 40.47511 
C 55.91986 40.47511 55.91986 40.47511 55.91986 40.47511 
C 55.91986 40.47511 55.91986 40.47511 55.91986 40.47511 
C 55.91986 40.47511 55.91986 40.47511 55.91986 40.47511 
C 55.91986 40.47511 55.91986 40.47511 55.91986 40.47511 
C 55.91986 40.47511 55.91986 40.47511 55.91986 40.47511 
z
" clip-path="url(#pcbcaee7d65)" style="stroke: #000000"/>
    <path d="M 86.977005 171.909703 
C 87.330053 171.909703 87.668687 171.769436 87.918329 171.519794 
C 88.167971 171.270152 88.308238 170.931517 88.308238 170.57847 
C 88.308238 170.225423 88.167971 169.886788 87.918329 169.637146 
C 87.668687 169.387505 87.330053 169.247237 86.977005 169.247237 
C 86.623958 169.247237 86.285324 169.387505 86.035682 169.637146 
C 85.78604 169.886788 85.645773 170.225423 85.645773 170.57847 
C 85.645773 170.931517 85.78604 171.270152 86.035682 171.519794 
C 86.285324 171.769436 86.623958 171.909703 86.977005 171.909703 
z
" clip-path="url(#pcbcaee7d65)" style="stroke: #000000"/>
    <path d="M 79.434059 154.640658 
C 79.600797 154.640658 79.760728 154.574413 79.878629 154.456512 
C 79.99653 154.33861 80.062776 154.178679 80.062776 154.011942 
C 80.062776 153.845204 79.99653 153.685273 79.878629 153.567372 
C 79.760728 153.449471 79.600797 153.383225 79.434059 153.383225 
C 79.267322 153.383225 79.107391 153.449471 78.989489 153.567372 
C 78.871588 153.685273 78.805343 153.845204 78.805343 154.011942 
C 78.805343 154.178679 78.871588 154.33861 78.989489 154.456512 
C 79.107391 154.574413 79.267322 154.640658 79.434059 154.640658 
z
" clip-path="url(#pcbcaee7d65)" style="stroke: #000000"/>
    <path d="M 83.415052 144.800364 
C 83.415052 144.800364 83.415052 144.800364 83.415052 144.800364 
C 83.415052 144.800364 83.415052 144.800364 83.415052 144.800364 
C 83.415052 144.800364 83.415052 144.800364 83.415052 144.800364 
C 83.415052 144.800364 83.415052 144.800364 83.415052 144.800364 
C 83.415052 144.800364 83.415052 144.800364 83.415052 144.800364 
C 83.415052 144.800364 83.415052 144.800364 83.415052 144.800364 
C 83.415052 144.800364 83.415052 144.800364 83.415052 144.800364 
C 83.415052 144.800364 83.415052 144.800364 83.415052 144.800364 
z
" clip-path="url(#pcbcaee7d65)" style="stroke: #000000"/>
    <path d="M 72.33486 129.948033 
C 72.754445 129.948033 73.156901 129.78133 73.453592 129.484639 
C 73.750284 129.187947 73.916986 128.785491 73.916986 128.365907 
C 73.916986 127.946322 73.750284 127.543866 73.453592 127.247174 
C 73.156901 126.950483 72.754445 126.78378 72.33486 126.78378 
C 71.915276 126.78378 71.512819 126.950483 71.216128 127.247174 
C 70.919437 127.543866 70.752734 127.946322 70.752734 128.365907 
C 70.752734 128.785491 70.919437 129.187947 71.216128 129.484639 
C 71.512819 129.78133 71.915276 129.948033 72.33486 129.948033 
z
" clip-path="url(#pcbcaee7d65)" style="stroke: #000000"/>
    <path d="M 72.360915 124.369147 
C 72.780499 124.369147 73.182955 124.202444 73.479647 123.905753 
C 73.776338 123.609061 73.943041 123.206605 73.943041 122.787021 
C 73.943041 122.367436 73.776338 121.96498 73.479647 121.668288 
C 73.182955 121.371597 72.780499 121.204894 72.360915 121.204894 
C 71.94133 121.204894 71.538874 121.371597 71.242182 121.668288 
C 70.945491 121.96498 70.778788 122.367436 70.778788 122.787021 
C 70.778788 123.206605 70.945491 123.609061 71.242182 123.905753 
C 71.538874 124.202444 71.94133 124.369147 72.360915 124.369147 
z
" clip-path="url(#pcbcaee7d65)" style="stroke: #000000"/>
    <path d="M 66.41721 115.530208 
C 66.833888 115.530208 67.233555 115.364661 67.52819 115.070025 
C 67.822826 114.77539 67.988373 114.375723 67.988373 113.959046 
C 67.988373 113.542368 67.822826 113.142701 67.52819 112.848066 
C 67.233555 112.55343 66.833888 112.387883 66.41721 112.387883 
C 66.000533 112.387883 65.600866 112.55343 65.306231 112.848066 
C 65.011595 113.142701 64.846048 113.542368 64.846048 113.959046 
C 64.846048 114.375723 65.011595 114.77539 65.306231 115.070025 
C 65.600866 115.364661 66.000533 115.530208 66.41721 115.530208 
z
" clip-path="url(#pcbcaee7d65)" style="stroke: #000000"/>
    <path d="M 64.410699 100.384889 
C 64.830284 100.384889 65.23274 100.218186 65.529431 99.921495 
C 65.826122 99.624804 65.992825 99.222348 65.992825 98.802763 
C 65.992825 98.383178 65.826122 97.980722 65.529431 97.684031 
C 65.23274 97.387339 64.830284 97.220637 64.410699 97.220637 
C 63.991114 97.220637 63.588658 97.387339 63.291967 97.684031 
C 62.995276 97.980722 62.828573 98.383178 62.828573 98.802763 
C 62.828573 99.222348 62.995276 99.624804 63.291967 99.921495 
C 63.588658 100.218186 63.991114 100.384889 64.410699 100.384889 
z
" clip-path="url(#pcbcaee7d65)" style="stroke: #000000"/>
    <path d="M 61.062259 92.719622 
C 61.156023 92.719622 61.245959 92.682369 61.312259 92.616068 
C 61.37856 92.549768 61.415813 92.459832 61.415813 92.366068 
C 61.415813 92.272305 61.37856 92.182369 61.312259 92.116068 
C 61.245959 92.049768 61.156023 92.012515 61.062259 92.012515 
C 60.968496 92.012515 60.87856 92.049768 60.812259 92.116068 
C 60.745959 92.182369 60.708706 92.272305 60.708706 92.366068 
C 60.708706 92.459832 60.745959 92.549768 60.812259 92.616068 
C 60.87856 92.682369 60.968496 92.719622 61.062259 92.719622 
z
" clip-path="url(#pcbcaee7d65)" style="stroke: #000000"/>
    <path d="M 55.486592 79.244587 
C 55.580355 79.244587 55.670291 79.207334 55.736592 79.141034 
C 55.802892 79.074733 55.840145 78.984797 55.840145 78.891034 
C 55.840145 78.79727 55.802892 78.707334 55.736592 78.641034 
C 55.670291 78.574733 55.580355 78.53748 55.486592 78.53748 
C 55.392828 78.53748 55.302892 78.574733 55.236592 78.641034 
C 55.170291 78.707334 55.133038 78.79727 55.133038 78.891034 
C 55.133038 78.984797 55.170291 79.074733 55.236592 79.141034 
C 55.302892 79.207334 55.392828 79.244587 55.486592 79.244587 
z
" clip-path="url(#pcbcaee7d65)" style="stroke: #000000"/>
    <path d="M 52.199221 74.850259 
C 52.199221 74.850259 52.199221 74.850259 52.199221 74.850259 
C 52.199221 74.850259 52.199221 74.850259 52.199221 74.850259 
C 52.199221 74.850259 52.199221 74.850259 52.199221 74.850259 
C 52.199221 74.850259 52.199221 74.850259 52.199221 74.850259 
C 52.199221 74.850259 52.199221 74.850259 52.199221 74.850259 
C 52.199221 74.850259 52.199221 74.850259 52.199221 74.850259 
C 52.199221 74.850259 52.199221 74.850259 52.199221 74.850259 
C 52.199221 74.850259 52.199221 74.850259 52.199221 74.850259 
z
" clip-path="url(#pcbcaee7d65)" style="stroke: #000000"/>
    <path d="M 48.993472 62.019664 
C 48.993472 62.019664 48.993472 62.019664 48.993472 62.019664 
C 48.993472 62.019664 48.993472 62.019664 48.993472 62.019664 
C 48.993472 62.019664 48.993472 62.019664 48.993472 62.019664 
C 48.993472 62.019664 48.993472 62.019664 48.993472 62.019664 
C 48.993472 62.019664 48.993472 62.019664 48.993472 62.019664 
C 48.993472 62.019664 48.993472 62.019664 48.993472 62.019664 
C 48.993472 62.019664 48.993472 62.019664 48.993472 62.019664 
C 48.993472 62.019664 48.993472 62.019664 48.993472 62.019664 
z
" clip-path="url(#pcbcaee7d65)" style="stroke: #000000"/>
    <path d="M 48.393954 48.34442 
C 48.487717 48.34442 48.577653 48.307168 48.643954 48.240867 
C 48.710255 48.174566 48.747507 48.08463 48.747507 47.990867 
C 48.747507 47.897104 48.710255 47.807168 48.643954 47.740867 
C 48.577653 47.674566 48.487717 47.637314 48.393954 47.637314 
C 48.30019 47.637314 48.210255 47.674566 48.143954 47.740867 
C 48.077653 47.807168 48.0404 47.897104 48.0404 47.990867 
C 48.0404 48.08463 48.077653 48.174566 48.143954 48.240867 
C 48.210255 48.307168 48.30019 48.34442 48.393954 48.34442 
z
" clip-path="url(#pcbcaee7d65)" style="stroke: #000000"/>
    <path d="M 79.764844 178.825461 
C 79.764844 178.825461 79.764844 178.825461 79.764844 178.825461 
C 79.764844 178.825461 79.764844 178.825461 79.764844 178.825461 
C 79.764844 178.825461 79.764844 178.825461 79.764844 178.825461 
C 79.764844 178.825461 79.764844 178.825461 79.764844 178.825461 
C 79.764844 178.825461 79.764844 178.825461 79.764844 178.825461 
C 79.764844 178.825461 79.764844 178.825461 79.764844 178.825461 
C 79.764844 178.825461 79.764844 178.825461 79.764844 178.825461 
C 79.764844 178.825461 79.764844 178.825461 79.764844 178.825461 
z
" clip-path="url(#pcbcaee7d65)" style="stroke: #000000"/>
    <path d="M 73.317294 167.581197 
C 73.670341 167.581197 74.008976 167.440929 74.258618 167.191287 
C 74.50826 166.941645 74.648527 166.603011 74.648527 166.249964 
C 74.648527 165.896917 74.50826 165.558282 74.258618 165.30864 
C 74.008976 165.058998 73.670341 164.918731 73.317294 164.918731 
C 72.964247 164.918731 72.625612 165.058998 72.375971 165.30864 
C 72.126329 165.558282 71.986061 165.896917 71.986061 166.249964 
C 71.986061 166.603011 72.126329 166.941645 72.375971 167.191287 
C 72.625612 167.440929 72.964247 167.581197 73.317294 167.581197 
z
" clip-path="url(#pcbcaee7d65)" style="stroke: #000000"/>
    <path d="M 71.124533 153.743636 
C 71.124533 153.743636 71.124533 153.743636 71.124533 153.743636 
C 71.124533 153.743636 71.124533 153.743636 71.124533 153.743636 
C 71.124533 153.743636 71.124533 153.743636 71.124533 153.743636 
C 71.124533 153.743636 71.124533 153.743636 71.124533 153.743636 
C 71.124533 153.743636 71.124533 153.743636 71.124533 153.743636 
C 71.124533 153.743636 71.124533 153.743636 71.124533 153.743636 
C 71.124533 153.743636 71.124533 153.743636 71.124533 153.743636 
C 71.124533 153.743636 71.124533 153.743636 71.124533 153.743636 
z
" clip-path="url(#pcbcaee7d65)" style="stroke: #000000"/>
    <path d="M 66.961881 148.542889 
C 67.381204 148.542889 67.783409 148.37629 68.079915 148.079784 
C 68.376421 147.783278 68.54302 147.381073 68.54302 146.96175 
C 68.54302 146.542427 68.376421 146.140222 68.079915 145.843716 
C 67.783409 145.54721 67.381204 145.380611 66.961881 145.380611 
C 66.542558 145.380611 66.140353 145.54721 65.843847 145.843716 
C 65.547341 146.140222 65.380742 146.542427 65.380742 146.96175 
C 65.380742 147.381073 65.547341 147.783278 65.843847 148.079784 
C 66.140353 148.37629 66.542558 148.542889 66.961881 148.542889 
z
" clip-path="url(#pcbcaee7d65)" style="stroke: #000000"/>
    <path d="M 62.996764 137.902858 
C 62.996764 137.902858 62.996764 137.902858 62.996764 137.902858 
C 62.996764 137.902858 62.996764 137.902858 62.996764 137.902858 
C 62.996764 137.902858 62.996764 137.902858 62.996764 137.902858 
C 62.996764 137.902858 62.996764 137.902858 62.996764 137.902858 
C 62.996764 137.902858 62.996764 137.902858 62.996764 137.902858 
C 62.996764 137.902858 62.996764 137.902858 62.996764 137.902858 
C 62.996764 137.902858 62.996764 137.902858 62.996764 137.902858 
C 62.996764 137.902858 62.996764 137.902858 62.996764 137.902858 
z
" clip-path="url(#pcbcaee7d65)" style="stroke: #000000"/>
    <path d="M 56.78845 129.787905 
C 56.78845 129.787905 56.78845 129.787905 56.78845 129.787905 
C 56.78845 129.787905 56.78845 129.787905 56.78845 129.787905 
C 56.78845 129.787905 56.78845 129.787905 56.78845 129.787905 
C 56.78845 129.787905 56.78845 129.787905 56.78845 129.787905 
C 56.78845 129.787905 56.78845 129.787905 56.78845 129.787905 
C 56.78845 129.787905 56.78845 129.787905 56.78845 129.787905 
C 56.78845 129.787905 56.78845 129.787905 56.78845 129.787905 
C 56.78845 129.787905 56.78845 129.787905 56.78845 129.787905 
z
" clip-path="url(#pcbcaee7d65)" style="stroke: #000000"/>
    <path d="M 54.550634 120.521463 
C 54.969957 120.521463 55.372162 120.354864 55.668668 120.058358 
C 55.965174 119.761852 56.131773 119.359647 56.131773 118.940324 
C 56.131773 118.521001 55.965174 118.118796 55.668668 117.82229 
C 55.372162 117.525784 54.969957 117.359185 54.550634 117.359185 
C 54.131311 117.359185 53.729106 117.525784 53.4326 117.82229 
C 53.136094 118.118796 52.969496 118.521001 52.969496 118.940324 
C 52.969496 119.359647 53.136094 119.761852 53.4326 120.058358 
C 53.729106 120.354864 54.131311 120.521463 54.550634 120.521463 
z
" clip-path="url(#pcbcaee7d65)" style="stroke: #000000"/>
    <path d="M 49.28591 110.539855 
C 49.705495 110.539855 50.107951 110.373153 50.404642 110.076461 
C 50.701333 109.77977 50.868036 109.377314 50.868036 108.957729 
C 50.868036 108.538145 50.701333 108.135688 50.404642 107.838997 
C 50.107951 107.542306 49.705495 107.375603 49.28591 107.375603 
C 48.866325 107.375603 48.463869 107.542306 48.167178 107.838997 
C 47.870486 108.135688 47.703784 108.538145 47.703784 108.957729 
C 47.703784 109.377314 47.870486 109.77977 48.167178 110.076461 
C 48.463869 110.373153 48.866325 110.539855 49.28591 110.539855 
z
" clip-path="url(#pcbcaee7d65)" style="stroke: #000000"/>
    <path d="M 52.249613 95.077677 
C 52.343376 95.077677 52.433312 95.040425 52.499613 94.974124 
C 52.565914 94.907823 52.603166 94.817887 52.603166 94.724124 
C 52.603166 94.63036 52.565914 94.540425 52.499613 94.474124 
C 52.433312 94.407823 52.343376 94.37057 52.249613 94.37057 
C 52.155849 94.37057 52.065914 94.407823 51.999613 94.474124 
C 51.933312 94.540425 51.896059 94.63036 51.896059 94.724124 
C 51.896059 94.817887 51.933312 94.907823 51.999613 94.974124 
C 52.065914 95.040425 52.155849 95.077677 52.249613 95.077677 
z
" clip-path="url(#pcbcaee7d65)" style="stroke: #000000"/>
    <path d="M 48.28401 86.262767 
C 48.28401 86.262767 48.28401 86.262767 48.28401 86.262767 
C 48.28401 86.262767 48.28401 86.262767 48.28401 86.262767 
C 48.28401 86.262767 48.28401 86.262767 48.28401 86.262767 
C 48.28401 86.262767 48.28401 86.262767 48.28401 86.262767 
C 48.28401 86.262767 48.28401 86.262767 48.28401 86.262767 
C 48.28401 86.262767 48.28401 86.262767 48.28401 86.262767 
C 48.28401 86.262767 48.28401 86.262767 48.28401 86.262767 
C 48.28401 86.262767 48.28401 86.262767 48.28401 86.262767 
z
" clip-path="url(#pcbcaee7d65)" style="stroke: #000000"/>
    <path d="M 43.284731 76.489108 
C 43.639088 76.489108 43.97898 76.348321 44.229548 76.097752 
C 44.480116 75.847184 44.620904 75.507293 44.620904 75.152936 
C 44.620904 74.798578 44.480116 74.458687 44.229548 74.208119 
C 43.97898 73.957551 43.639088 73.816763 43.284731 73.816763 
C 42.930374 73.816763 42.590483 73.957551 42.339915 74.208119 
C 42.089346 74.458687 41.948559 74.798578 41.948559 75.152936 
C 41.948559 75.507293 42.089346 75.847184 42.339915 76.097752 
C 42.590483 76.348321 42.930374 76.489108 43.284731 76.489108 
z
" clip-path="url(#pcbcaee7d65)" style="stroke: #000000"/>
    <path d="M 40.261741 65.657328 
C 40.261741 65.657328 40.261741 65.657328 40.261741 65.657328 
C 40.261741 65.657328 40.261741 65.657328 40.261741 65.657328 
C 40.261741 65.657328 40.261741 65.657328 40.261741 65.657328 
C 40.261741 65.657328 40.261741 65.657328 40.261741 65.657328 
C 40.261741 65.657328 40.261741 65.657328 40.261741 65.657328 
C 40.261741 65.657328 40.261741 65.657328 40.261741 65.657328 
C 40.261741 65.657328 40.261741 65.657328 40.261741 65.657328 
C 40.261741 65.657328 40.261741 65.657328 40.261741 65.657328 
z
" clip-path="url(#pcbcaee7d65)" style="stroke: #000000"/>
    <path d="M 39.654188 54.040362 
C 39.654188 54.040362 39.654188 54.040362 39.654188 54.040362 
C 39.654188 54.040362 39.654188 54.040362 39.654188 54.040362 
C 39.654188 54.040362 39.654188 54.040362 39.654188 54.040362 
C 39.654188 54.040362 39.654188 54.040362 39.654188 54.040362 
C 39.654188 54.040362 39.654188 54.040362 39.654188 54.040362 
C 39.654188 54.040362 39.654188 54.040362 39.654188 54.040362 
C 39.654188 54.040362 39.654188 54.040362 39.654188 54.040362 
C 39.654188 54.040362 39.654188 54.040362 39.654188 54.040362 
z
" clip-path="url(#pcbcaee7d65)" style="stroke: #000000"/>
    <path d="M 66.941284 169.91138 
C 66.941284 169.91138 66.941284 169.91138 66.941284 169.91138 
C 66.941284 169.91138 66.941284 169.91138 66.941284 169.91138 
C 66.941284 169.91138 66.941284 169.91138 66.941284 169.91138 
C 66.941284 169.91138 66.941284 169.91138 66.941284 169.91138 
C 66.941284 169.91138 66.941284 169.91138 66.941284 169.91138 
C 66.941284 169.91138 66.941284 169.91138 66.941284 169.91138 
C 66.941284 169.91138 66.941284 169.91138 66.941284 169.91138 
C 66.941284 169.91138 66.941284 169.91138 66.941284 169.91138 
z
" clip-path="url(#pcbcaee7d65)" style="stroke: #000000"/>
    <path d="M 62.659256 164.98122 
C 63.012303 164.98122 63.350938 164.840953 63.60058 164.591311 
C 63.850222 164.341669 63.990489 164.003034 63.990489 163.649987 
C 63.990489 163.29694 63.850222 162.958305 63.60058 162.708663 
C 63.350938 162.459021 63.012303 162.318754 62.659256 162.318754 
C 62.306209 162.318754 61.967574 162.459021 61.717932 162.708663 
C 61.46829 162.958305 61.328023 163.29694 61.328023 163.649987 
C 61.328023 164.003034 61.46829 164.341669 61.717932 164.591311 
C 61.967574 164.840953 62.306209 164.98122 62.659256 164.98122 
z
" clip-path="url(#pcbcaee7d65)" style="stroke: #000000"/>
    <path d="M 58.058049 148.341557 
C 58.320089 148.341557 58.57143 148.237448 58.75672 148.052158 
C 58.94201 147.866868 59.046119 147.615526 59.046119 147.353487 
C 59.046119 147.091448 58.94201 146.840106 58.75672 146.654817 
C 58.57143 146.469527 58.320089 146.365418 58.058049 146.365418 
C 57.79601 146.365418 57.544668 146.469527 57.359379 146.654817 
C 57.174089 146.840106 57.06998 147.091448 57.06998 147.353487 
C 57.06998 147.615526 57.174089 147.866868 57.359379 148.052158 
C 57.544668 148.237448 57.79601 148.341557 58.058049 148.341557 
z
" clip-path="url(#pcbcaee7d65)" style="stroke: #000000"/>
    <path d="M 53.512947 143.810236 
C 53.512947 143.810236 53.512947 143.810236 53.512947 143.810236 
C 53.512947 143.810236 53.512947 143.810236 53.512947 143.810236 
C 53.512947 143.810236 53.512947 143.810236 53.512947 143.810236 
C 53.512947 143.810236 53.512947 143.810236 53.512947 143.810236 
C 53.512947 143.810236 53.512947 143.810236 53.512947 143.810236 
C 53.512947 143.810236 53.512947 143.810236 53.512947 143.810236 
C 53.512947 143.810236 53.512947 143.810236 53.512947 143.810236 
C 53.512947 143.810236 53.512947 143.810236 53.512947 143.810236 
z
" clip-path="url(#pcbcaee7d65)" style="stroke: #000000"/>
    <path d="M 50.907268 124.531986 
C 50.907268 124.531986 50.907268 124.531986 50.907268 124.531986 
C 50.907268 124.531986 50.907268 124.531986 50.907268 124.531986 
C 50.907268 124.531986 50.907268 124.531986 50.907268 124.531986 
C 50.907268 124.531986 50.907268 124.531986 50.907268 124.531986 
C 50.907268 124.531986 50.907268 124.531986 50.907268 124.531986 
C 50.907268 124.531986 50.907268 124.531986 50.907268 124.531986 
C 50.907268 124.531986 50.907268 124.531986 50.907268 124.531986 
C 50.907268 124.531986 50.907268 124.531986 50.907268 124.531986 
z
" clip-path="url(#pcbcaee7d65)" style="stroke: #000000"/>
    <path d="M 49.517313 121.484792 
C 49.936636 121.484792 50.338841 121.318194 50.635347 121.021688 
C 50.931853 120.725182 51.098452 120.322977 51.098452 119.903654 
C 51.098452 119.484331 50.931853 119.082126 50.635347 118.78562 
C 50.338841 118.489114 49.936636 118.322515 49.517313 118.322515 
C 49.09799 118.322515 48.695785 118.489114 48.399279 118.78562 
C 48.102773 119.082126 47.936174 119.484331 47.936174 119.903654 
C 47.936174 120.322977 48.102773 120.725182 48.399279 121.021688 
C 48.695785 121.318194 49.09799 121.484792 49.517313 121.484792 
z
" clip-path="url(#pcbcaee7d65)" style="stroke: #000000"/>
    <path d="M 42.093704 111.05921 
C 42.513027 111.05921 42.915232 110.892611 43.211738 110.596105 
C 43.508245 110.299599 43.674843 109.897394 43.674843 109.478071 
C 43.674843 109.058748 43.508245 108.656543 43.211738 108.360037 
C 42.915232 108.063531 42.513027 107.896932 42.093704 107.896932 
C 41.674382 107.896932 41.272177 108.063531 40.97567 108.360037 
C 40.679164 108.656543 40.512566 109.058748 40.512566 109.478071 
C 40.512566 109.897394 40.679164 110.299599 40.97567 110.596105 
C 41.272177 110.892611 41.674382 111.05921 42.093704 111.05921 
z
" clip-path="url(#pcbcaee7d65)" style="stroke: #000000"/>
    <path d="M 38.45506 103.498351 
C 38.660396 103.498351 38.85735 103.41677 39.002545 103.271576 
C 39.147739 103.126381 39.22932 102.929427 39.22932 102.724091 
C 39.22932 102.518755 39.147739 102.321801 39.002545 102.176607 
C 38.85735 102.031412 38.660396 101.949831 38.45506 101.949831 
C 38.249724 101.949831 38.05277 102.031412 37.907576 102.176607 
C 37.762381 102.321801 37.6808 102.518755 37.6808 102.724091 
C 37.6808 102.929427 37.762381 103.126381 37.907576 103.271576 
C 38.05277 103.41677 38.249724 103.498351 38.45506 103.498351 
z
" clip-path="url(#pcbcaee7d65)" style="stroke: #000000"/>
    <path d="M 35.797938 90.597909 
C 35.797938 90.597909 35.797938 90.597909 35.797938 90.597909 
C 35.797938 90.597909 35.797938 90.597909 35.797938 90.597909 
C 35.797938 90.597909 35.797938 90.597909 35.797938 90.597909 
C 35.797938 90.597909 35.797938 90.597909 35.797938 90.597909 
C 35.797938 90.597909 35.797938 90.597909 35.797938 90.597909 
C 35.797938 90.597909 35.797938 90.597909 35.797938 90.597909 
C 35.797938 90.597909 35.797938 90.597909 35.797938 90.597909 
C 35.797938 90.597909 35.797938 90.597909 35.797938 90.597909 
z
" clip-path="url(#pcbcaee7d65)" style="stroke: #000000"/>
    <path d="M 33.306037 76.563642 
C 33.306037 76.563642 33.306037 76.563642 33.306037 76.563642 
C 33.306037 76.563642 33.306037 76.563642 33.306037 76.563642 
C 33.306037 76.563642 33.306037 76.563642 33.306037 76.563642 
C 33.306037 76.563642 33.306037 76.563642 33.306037 76.563642 
C 33.306037 76.563642 33.306037 76.563642 33.306037 76.563642 
C 33.306037 76.563642 33.306037 76.563642 33.306037 76.563642 
C 33.306037 76.563642 33.306037 76.563642 33.306037 76.563642 
C 33.306037 76.563642 33.306037 76.563642 33.306037 76.563642 
z
" clip-path="url(#pcbcaee7d65)" style="stroke: #000000"/>
    <path d="M 50.384364 164.806333 
C 50.737411 164.806333 51.076046 164.666066 51.325688 164.416424 
C 51.57533 164.166782 51.715597 163.828147 51.715597 163.4751 
C 51.715597 163.122053 51.57533 162.783419 51.325688 162.533777 
C 51.076046 162.284135 50.737411 162.143868 50.384364 162.143868 
C 50.031317 162.143868 49.692682 162.284135 49.44304 162.533777 
C 49.193398 162.783419 49.053131 163.122053 49.053131 163.4751 
C 49.053131 163.828147 49.193398 164.166782 49.44304 164.416424 
C 49.692682 164.666066 50.031317 164.806333 50.384364 164.806333 
z
" clip-path="url(#pcbcaee7d65)" style="stroke: #000000"/>
    <path d="M 47.244217 154.596109 
C 47.597264 154.596109 47.935899 154.455842 48.185541 154.2062 
C 48.435183 153.956558 48.57545 153.617923 48.57545 153.264876 
C 48.57545 152.911829 48.435183 152.573195 48.185541 152.323553 
C 47.935899 152.073911 47.597264 151.933643 47.244217 151.933643 
C 46.89117 151.933643 46.552535 152.073911 46.302893 152.323553 
C 46.053251 152.573195 45.912984 152.911829 45.912984 153.264876 
C 45.912984 153.617923 46.053251 153.956558 46.302893 154.2062 
C 46.552535 154.455842 46.89117 154.596109 47.244217 154.596109 
z
" clip-path="url(#pcbcaee7d65)" style="stroke: #000000"/>
    <path d="M 42.591349 144.000466 
C 42.944396 144.000466 43.28303 143.860199 43.532672 143.610557 
C 43.782314 143.360915 43.922582 143.02228 43.922582 142.669233 
C 43.922582 142.316186 43.782314 141.977552 43.532672 141.72791 
C 43.28303 141.478268 42.944396 141.338001 42.591349 141.338001 
C 42.238302 141.338001 41.899667 141.478268 41.650025 141.72791 
C 41.400383 141.977552 41.260116 142.316186 41.260116 142.669233 
C 41.260116 143.02228 41.400383 143.360915 41.650025 143.610557 
C 41.899667 143.860199 42.238302 144.000466 42.591349 144.000466 
z
" clip-path="url(#pcbcaee7d65)" style="stroke: #000000"/>
    <path d="M 35.957801 134.541303 
C 35.957801 134.541303 35.957801 134.541303 35.957801 134.541303 
C 35.957801 134.541303 35.957801 134.541303 35.957801 134.541303 
C 35.957801 134.541303 35.957801 134.541303 35.957801 134.541303 
C 35.957801 134.541303 35.957801 134.541303 35.957801 134.541303 
C 35.957801 134.541303 35.957801 134.541303 35.957801 134.541303 
C 35.957801 134.541303 35.957801 134.541303 35.957801 134.541303 
C 35.957801 134.541303 35.957801 134.541303 35.957801 134.541303 
C 35.957801 134.541303 35.957801 134.541303 35.957801 134.541303 
z
" clip-path="url(#pcbcaee7d65)" style="stroke: #000000"/>
    <path d="M 34.569077 117.47116 
C 34.569077 117.47116 34.569077 117.47116 34.569077 117.47116 
C 34.569077 117.47116 34.569077 117.47116 34.569077 117.47116 
C 34.569077 117.47116 34.569077 117.47116 34.569077 117.47116 
C 34.569077 117.47116 34.569077 117.47116 34.569077 117.47116 
C 34.569077 117.47116 34.569077 117.47116 34.569077 117.47116 
C 34.569077 117.47116 34.569077 117.47116 34.569077 117.47116 
C 34.569077 117.47116 34.569077 117.47116 34.569077 117.47116 
C 34.569077 117.47116 34.569077 117.47116 34.569077 117.47116 
z
" clip-path="url(#pcbcaee7d65)" style="stroke: #000000"/>
    <path d="M 31.698094 116.803812 
C 32.050702 116.803812 32.388914 116.66372 32.638245 116.414389 
C 32.887576 116.165058 33.027668 115.826845 33.027668 115.474238 
C 33.027668 115.121631 32.887576 114.783418 32.638245 114.534088 
C 32.388914 114.284757 32.050702 114.144664 31.698094 114.144664 
C 31.345487 114.144664 31.007275 114.284757 30.757944 114.534088 
C 30.508613 114.783418 30.36852 115.121631 30.36852 115.474238 
C 30.36852 115.826845 30.508613 116.165058 30.757944 116.414389 
C 31.007275 116.66372 31.345487 116.803812 31.698094 116.803812 
z
" clip-path="url(#pcbcaee7d65)" style="stroke: #000000"/>
    <path d="M 29.410839 104.281838 
C 29.410839 104.281838 29.410839 104.281838 29.410839 104.281838 
C 29.410839 104.281838 29.410839 104.281838 29.410839 104.281838 
C 29.410839 104.281838 29.410839 104.281838 29.410839 104.281838 
C 29.410839 104.281838 29.410839 104.281838 29.410839 104.281838 
C 29.410839 104.281838 29.410839 104.281838 29.410839 104.281838 
C 29.410839 104.281838 29.410839 104.281838 29.410839 104.281838 
C 29.410839 104.281838 29.410839 104.281838 29.410839 104.281838 
C 29.410839 104.281838 29.410839 104.281838 29.410839 104.281838 
z
" clip-path="url(#pcbcaee7d65)" style="stroke: #000000"/>
    <path d="M 40.883724 171.089052 
C 41.236331 171.089052 41.574544 170.94896 41.823874 170.699629 
C 42.073205 170.450298 42.213298 170.112085 42.213298 169.759478 
C 42.213298 169.406871 42.073205 169.068658 41.823874 168.819327 
C 41.574544 168.569996 41.236331 168.429904 40.883724 168.429904 
C 40.531117 168.429904 40.192904 168.569996 39.943573 168.819327 
C 39.694242 169.068658 39.55415 169.406871 39.55415 169.759478 
C 39.55415 170.112085 39.694242 170.450298 39.943573 170.699629 
C 40.192904 170.94896 40.531117 171.089052 40.883724 171.089052 
z
" clip-path="url(#pcbcaee7d65)" style="stroke: #000000"/>
    <path d="M 35.183019 161.354288 
C 35.183019 161.354288 35.183019 161.354288 35.183019 161.354288 
C 35.183019 161.354288 35.183019 161.354288 35.183019 161.354288 
C 35.183019 161.354288 35.183019 161.354288 35.183019 161.354288 
C 35.183019 161.354288 35.183019 161.354288 35.183019 161.354288 
C 35.183019 161.354288 35.183019 161.354288 35.183019 161.354288 
C 35.183019 161.354288 35.183019 161.354288 35.183019 161.354288 
C 35.183019 161.354288 35.183019 161.354288 35.183019 161.354288 
C 35.183019 161.354288 35.183019 161.354288 35.183019 161.354288 
z
" clip-path="url(#pcbcaee7d65)" style="stroke: #000000"/>
    <path d="M 31.649672 147.116507 
C 32.00228 147.116507 32.340492 146.976414 32.589823 146.727084 
C 32.839154 146.477753 32.979246 146.13954 32.979246 145.786933 
C 32.979246 145.434326 32.839154 145.096113 32.589823 144.846782 
C 32.340492 144.597451 32.00228 144.457359 31.649672 144.457359 
C 31.297065 144.457359 30.958853 144.597451 30.709522 144.846782 
C 30.460191 145.096113 30.320098 145.434326 30.320098 145.786933 
C 30.320098 146.13954 30.460191 146.477753 30.709522 146.727084 
C 30.958853 146.976414 31.297065 147.116507 31.649672 147.116507 
z
" clip-path="url(#pcbcaee7d65)" style="stroke: #000000"/>
    <path d="M 32.162475 141.485969 
C 32.162475 141.485969 32.162475 141.485969 32.162475 141.485969 
C 32.162475 141.485969 32.162475 141.485969 32.162475 141.485969 
C 32.162475 141.485969 32.162475 141.485969 32.162475 141.485969 
C 32.162475 141.485969 32.162475 141.485969 32.162475 141.485969 
C 32.162475 141.485969 32.162475 141.485969 32.162475 141.485969 
C 32.162475 141.485969 32.162475 141.485969 32.162475 141.485969 
C 32.162475 141.485969 32.162475 141.485969 32.162475 141.485969 
C 32.162475 141.485969 32.162475 141.485969 32.162475 141.485969 
z
" clip-path="url(#pcbcaee7d65)" style="stroke: #000000"/>
   </g>
   <g id="matplotlib.axis_1">
    <g id="xtick_1">
     <g id="line2d_1">
      <defs>
       <path id="mb8c2545a73" d="M 0 0 
L 0 3.5 
" style="stroke: #000000; stroke-width: 0.8"/>
      </defs>
      <g>
       <use xlink:href="#mb8c2545a73" x="18" y="189" style="stroke: #000000; stroke-width: 0.8"/>
      </g>
     </g>
     <g id="text_1">
      <!-- 10 -->
      <g transform="translate(7.447656 203.598437)scale(0.1 -0.1)">
       <defs>
        <path id="DejaVuSans-2212" d="M 678 2272 
L 4684 2272 
L 4684 1741 
L 678 1741 
L 678 2272 
z
" transform="scale(0.015625)"/>
        <path id="DejaVuSans-31" d="M 794 531 
L 1825 531 
L 1825 4091 
L 703 3866 
L 703 4441 
L 1819 4666 
L 2450 4666 
L 2450 531 
L 3481 531 
L 3481 0 
L 794 0 
L 794 531 
z
" transform="scale(0.015625)"/>
        <path id="DejaVuSans-30" d="M 2034 4250 
Q 1547 4250 1301 3770 
Q 1056 3291 1056 2328 
Q 1056 1369 1301 889 
Q 1547 409 2034 409 
Q 2525 409 2770 889 
Q 3016 1369 3016 2328 
Q 3016 3291 2770 3770 
Q 2525 4250 2034 4250 
z
M 2034 4750 
Q 2819 4750 3233 4129 
Q 3647 3509 3647 2328 
Q 3647 1150 3233 529 
Q 2819 -91 2034 -91 
Q 1250 -91 836 529 
Q 422 1150 422 2328 
Q 422 3509 836 4129 
Q 1250 4750 2034 4750 
z
" transform="scale(0.015625)"/>
       </defs>
       <use xlink:href="#DejaVuSans-2212"/>
       <use xlink:href="#DejaVuSans-31" x="83.789062"/>
       <use xlink:href="#DejaVuSans-30" x="147.412109"/>
      </g>
     </g>
    </g>
    <g id="xtick_2">
     <g id="line2d_2">
      <g>
       <use xlink:href="#mb8c2545a73" x="73.8" y="189" style="stroke: #000000; stroke-width: 0.8"/>
      </g>
     </g>
     <g id="text_2">
      <!-- 0 -->
      <g transform="translate(70.61875 203.598437)scale(0.1 -0.1)">
       <use xlink:href="#DejaVuSans-30"/>
      </g>
     </g>
    </g>
    <g id="xtick_3">
     <g id="line2d_3">
      <g>
       <use xlink:href="#mb8c2545a73" x="129.6" y="189" style="stroke: #000000; stroke-width: 0.8"/>
      </g>
     </g>
     <g id="text_3">
      <!-- 10 -->
      <g transform="translate(123.2375 203.598437)scale(0.1 -0.1)">
       <use xlink:href="#DejaVuSans-31"/>
       <use xlink:href="#DejaVuSans-30" x="63.623047"/>
      </g>
     </g>
    </g>
   </g>
   <g id="matplotlib.axis_2">
    <g id="ytick_1">
     <g id="line2d_4">
      <defs>
       <path id="mf8c34664e7" d="M 0 0 
L -3.5 0 
" style="stroke: #000000; stroke-width: 0.8"/>
      </defs>
      <g>
       <use xlink:href="#mf8c34664e7" x="18" y="189" style="stroke: #000000; stroke-width: 0.8"/>
      </g>
     </g>
     <g id="text_4">
      <!-- 15 -->
      <g transform="translate(-10.104688 192.799219)scale(0.1 -0.1)">
       <defs>
        <path id="DejaVuSans-35" d="M 691 4666 
L 3169 4666 
L 3169 4134 
L 1269 4134 
L 1269 2991 
Q 1406 3038 1543 3061 
Q 1681 3084 1819 3084 
Q 2600 3084 3056 2656 
Q 3513 2228 3513 1497 
Q 3513 744 3044 326 
Q 2575 -91 1722 -91 
Q 1428 -91 1123 -41 
Q 819 9 494 109 
L 494 744 
Q 775 591 1075 516 
Q 1375 441 1709 441 
Q 2250 441 2565 725 
Q 2881 1009 2881 1497 
Q 2881 1984 2565 2268 
Q 2250 2553 1709 2553 
Q 1456 2553 1204 2497 
Q 953 2441 691 2322 
L 691 4666 
z
" transform="scale(0.015625)"/>
       </defs>
       <use xlink:href="#DejaVuSans-2212"/>
       <use xlink:href="#DejaVuSans-31" x="83.789062"/>
       <use xlink:href="#DejaVuSans-35" x="147.412109"/>
      </g>
     </g>
    </g>
    <g id="ytick_2">
     <g id="line2d_5">
      <g>
       <use xlink:href="#mf8c34664e7" x="18" y="161.82" style="stroke: #000000; stroke-width: 0.8"/>
      </g>
     </g>
     <g id="text_5">
      <!-- 10 -->
      <g transform="translate(-10.104688 165.619219)scale(0.1 -0.1)">
       <use xlink:href="#DejaVuSans-2212"/>
       <use xlink:href="#DejaVuSans-31" x="83.789062"/>
       <use xlink:href="#DejaVuSans-30" x="147.412109"/>
      </g>
     </g>
    </g>
    <g id="ytick_3">
     <g id="line2d_6">
      <g>
       <use xlink:href="#mf8c34664e7" x="18" y="134.64" style="stroke: #000000; stroke-width: 0.8"/>
      </g>
     </g>
     <g id="text_6">
      <!-- 5 -->
      <g transform="translate(-3.742188 138.439219)scale(0.1 -0.1)">
       <use xlink:href="#DejaVuSans-2212"/>
       <use xlink:href="#DejaVuSans-35" x="83.789062"/>
      </g>
     </g>
    </g>
    <g id="ytick_4">
     <g id="line2d_7">
      <g>
       <use xlink:href="#mf8c34664e7" x="18" y="107.46" style="stroke: #000000; stroke-width: 0.8"/>
      </g>
     </g>
     <g id="text_7">
      <!-- 0 -->
      <g transform="translate(4.6375 111.259219)scale(0.1 -0.1)">
       <use xlink:href="#DejaVuSans-30"/>
      </g>
     </g>
    </g>
    <g id="ytick_5">
     <g id="line2d_8">
      <g>
       <use xlink:href="#mf8c34664e7" x="18" y="80.28" style="stroke: #000000; stroke-width: 0.8"/>
      </g>
     </g>
     <g id="text_8">
      <!-- 5 -->
      <g transform="translate(4.6375 84.079219)scale(0.1 -0.1)">
       <use xlink:href="#DejaVuSans-35"/>
      </g>
     </g>
    </g>
    <g id="ytick_6">
     <g id="line2d_9">
      <g>
       <use xlink:href="#mf8c34664e7" x="18" y="53.1" style="stroke: #000000; stroke-width: 0.8"/>
      </g>
     </g>
     <g id="text_9">
      <!-- 10 -->
      <g transform="translate(-1.725 56.899219)scale(0.1 -0.1)">
       <use xlink:href="#DejaVuSans-31"/>
       <use xlink:href="#DejaVuSans-30" x="63.623047"/>
      </g>
     </g>
    </g>
    <g id="ytick_7">
     <g id="line2d_10">
      <g>
       <use xlink:href="#mf8c34664e7" x="18" y="25.92" style="stroke: #000000; stroke-width: 0.8"/>
      </g>
     </g>
     <g id="text_10">
      <!-- 15 -->
      <g transform="translate(-1.725 29.719219)scale(0.1 -0.1)">
       <use xlink:href="#DejaVuSans-31"/>
       <use xlink:href="#DejaVuSans-35" x="63.623047"/>
      </g>
     </g>
    </g>
   </g>
   <g id="patch_3">
    <path d="M 18 189 
L 18 25.92 
" style="fill: none; stroke: #000000; stroke-width: 0.8; stroke-linejoin: miter; stroke-linecap: square"/>
   </g>
   <g id="patch_4">
    <path d="M 129.6 189 
L 129.6 25.92 
" style="fill: none; stroke: #000000; stroke-width: 0.8; stroke-linejoin: miter; stroke-linecap: square"/>
   </g>
   <g id="patch_5">
    <path d="M 18 189 
L 129.6 189 
" style="fill: none; stroke: #000000; stroke-width: 0.8; stroke-linejoin: miter; stroke-linecap: square"/>
   </g>
   <g id="patch_6">
    <path d="M 18 25.92 
L 129.6 25.92 
" style="fill: none; stroke: #000000; stroke-width: 0.8; stroke-linejoin: miter; stroke-linecap: square"/>
   </g>
  </g>
 </g>
 <defs>
  <clipPath id="pcbcaee7d65">
   <rect x="18" y="25.92" width="111.6" height="163.08"/>
  </clipPath>
 </defs>
</svg>
