<?xml version="1.0" encoding="utf-8" standalone="no"?>
<!DOCTYPE svg PUBLIC "-//W3C//DTD SVG 1.1//EN"
  "http://www.w3.org/Graphics/SVG/1.1/DTD/svg11.dtd">
<svg xmlns:xlink="http://www.w3.org/1999/xlink" width="144pt" height="216pt" viewBox="0 0 144 216" xmlns="http://www.w3.org/2000/svg" version="1.1">
 <metadata>
  <rdf:RDF xmlns:dc="http://purl.org/dc/elements/1.1/" xmlns:cc="http://creativecommons.org/ns#" xmlns:rdf="http://www.w3.org/1999/02/22-rdf-syntax-ns#">
   <cc:Work>
    <dc:type rdf:resource="http://purl.org/dc/dcmitype/StillImage"/>
    <dc:date>2022-06-23T14:45:40.453568</dc:date>
    <dc:format>image/svg+xml</dc:format>
    <dc:creator>
     <cc:Agent>
      <dc:title>Matplotlib v3.5.1, https://matplotlib.org/</dc:title>
     </cc:Agent>
    </dc:creator>
   </cc:Work>
  </rdf:RDF>
 </metadata>
 <defs>
  <style type="text/css">*{stroke-linejoin: round; stroke-linecap: butt}</style>
 </defs>
 <g id="figure_1">
  <g id="patch_1">
   <path d="M 0 216 
L 144 216 
L 144 0 
L 0 0 
L 0 216 
z
" style="fill: none"/>
  </g>
  <g id="axes_1">
   <g id="patch_2">
    <path d="M 18 189 
L 129.6 189 
L 129.6 25.92 
L 18 25.92 
z
" style="fill: #ffffff"/>
   </g>
   <g id="PathCollection_1">
    <defs>
     <path id="md096746ace" d="M 0 2.738613 
C 0.726289 2.738613 1.422928 2.450055 1.936492 1.936492 
C 2.450055 1.422928 2.738613 0.726289 2.738613 0 
C 2.738613 -0.726289 2.450055 -1.422928 1.936492 -1.936492 
C 1.422928 -2.450055 0.726289 -2.738613 0 -2.738613 
C -0.726289 -2.738613 -1.422928 -2.450055 -1.936492 -1.936492 
C -2.450055 -1.422928 -2.738613 -0.726289 -2.738613 0 
C -2.738613 0.726289 -2.450055 1.422928 -1.936492 1.936492 
C -1.422928 2.450055 -0.726289 2.738613 0 2.738613 
z
" style="stroke: #ff0000; stroke-width: 1.75"/>
    </defs>
    <g clip-path="url(#p727749d73c)">
     <use xlink:href="#md096746ace" x="80.775" y="107.46" style="fill: #ff0000; stroke: #ff0000; stroke-width: 1.75"/>
     <use xlink:href="#md096746ace" x="94.725" y="107.46" style="fill: #ff0000; stroke: #ff0000; stroke-width: 1.75"/>
     <use xlink:href="#md096746ace" x="59.85" y="119.229285" style="fill: #ff0000; stroke: #ff0000; stroke-width: 1.75"/>
     <use xlink:href="#md096746ace" x="73.8" y="119.229285" style="fill: #ff0000; stroke: #ff0000; stroke-width: 1.75"/>
     <use xlink:href="#md096746ace" x="87.75" y="119.229285" style="fill: #ff0000; stroke: #ff0000; stroke-width: 1.75"/>
     <use xlink:href="#md096746ace" x="66.825" y="130.99857" style="fill: #ff0000; stroke: #ff0000; stroke-width: 1.75"/>
     <use xlink:href="#md096746ace" x="80.775" y="130.99857" style="fill: #ff0000; stroke: #ff0000; stroke-width: 1.75"/>
    </g>
   </g>
   <g id="PathCollection_2">
    <defs>
     <path id="C0_0_dce6ec8728" d="M 0 2.738613 
C 0.726289 2.738613 1.422928 2.450055 1.936492 1.936492 
C 2.450055 1.422928 2.738613 0.726289 2.738613 -0 
C 2.738613 -0.726289 2.450055 -1.422928 1.936492 -1.936492 
C 1.422928 -2.450055 0.726289 -2.738613 0 -2.738613 
C -0.726289 -2.738613 -1.422928 -2.450055 -1.936492 -1.936492 
C -2.450055 -1.422928 -2.738613 -0.726289 -2.738613 0 
C -2.738613 0.726289 -2.450055 1.422928 -1.936492 1.936492 
C -1.422928 2.450055 -0.726289 2.738613 0 2.738613 
z
"/>
    </defs>
    <g clip-path="url(#p727749d73c)">
     <use xlink:href="#C0_0_dce6ec8728" x="66.825" y="83.92143" style="fill: none; stroke: #ff0000; stroke-width: 1.75"/>
    </g>
    <g clip-path="url(#p727749d73c)">
     <use xlink:href="#C0_0_dce6ec8728" x="80.775" y="83.92143" style="fill: none; stroke: #ff0000; stroke-width: 1.75"/>
    </g>
    <g clip-path="url(#p727749d73c)">
     <use xlink:href="#C0_0_dce6ec8728" x="59.85" y="95.690715" style="fill: none; stroke: #ff0000; stroke-width: 1.75"/>
    </g>
    <g clip-path="url(#p727749d73c)">
     <use xlink:href="#C0_0_dce6ec8728" x="73.8" y="95.690715" style="fill: none; stroke: #ff0000; stroke-width: 1.75"/>
    </g>
    <g clip-path="url(#p727749d73c)">
     <use xlink:href="#C0_0_dce6ec8728" x="87.75" y="95.690715" style="fill: none; stroke: #ff0000; stroke-width: 1.75"/>
    </g>
    <g clip-path="url(#p727749d73c)">
     <use xlink:href="#C0_0_dce6ec8728" x="52.875" y="107.46" style="fill: none; stroke: #ff0000; stroke-width: 1.75"/>
    </g>
    <g clip-path="url(#p727749d73c)">
     <use xlink:href="#C0_0_dce6ec8728" x="66.825" y="107.46" style="fill: none; stroke: #ff0000; stroke-width: 1.75"/>
    </g>
   </g>
   <g id="PathCollection_3">
    <path d="M 113.538817 101.233267 
C 114.042392 101.233267 114.52541 101.033194 114.881492 100.677113 
C 115.237573 100.321031 115.437646 99.838013 115.437646 99.334438 
C 115.437646 98.830862 115.237573 98.347845 114.881492 97.991763 
C 114.52541 97.635681 114.042392 97.435609 113.538817 97.435609 
C 113.035241 97.435609 112.552223 97.635681 112.196142 97.991763 
C 111.84006 98.347845 111.639988 98.830862 111.639988 99.334438 
C 111.639988 99.838013 111.84006 100.321031 112.196142 100.677113 
C 112.552223 101.033194 113.035241 101.233267 113.538817 101.233267 
z
" clip-path="url(#p727749d73c)" style="stroke: #000000"/>
    <path d="M 109.849647 92.072423 
C 110.442659 92.072423 111.011463 91.836817 111.430786 91.417494 
C 111.850109 90.998171 112.085715 90.429367 112.085715 89.836355 
C 112.085715 89.243343 111.850109 88.674539 111.430786 88.255216 
C 111.011463 87.835893 110.442659 87.600287 109.849647 87.600287 
C 109.256635 87.600287 108.687831 87.835893 108.268508 88.255216 
C 107.849185 88.674539 107.613579 89.243343 107.613579 89.836355 
C 107.613579 90.429367 107.849185 90.998171 108.268508 91.417494 
C 108.687831 91.836817 109.256635 92.072423 109.849647 92.072423 
z
" clip-path="url(#p727749d73c)" style="stroke: #000000"/>
    <path d="M 104.703081 78.143501 
C 105.159202 78.143501 105.596704 77.962282 105.919231 77.639755 
C 106.241757 77.317228 106.422976 76.879727 106.422976 76.423605 
C 106.422976 75.967484 106.241757 75.529982 105.919231 75.207456 
C 105.596704 74.884929 105.159202 74.70371 104.703081 74.70371 
C 104.246959 74.70371 103.809458 74.884929 103.486931 75.207456 
C 103.164405 75.529982 102.983186 75.967484 102.983186 76.423605 
C 102.983186 76.879727 103.164405 77.317228 103.486931 77.639755 
C 103.809458 77.962282 104.246959 78.143501 104.703081 78.143501 
z
" clip-path="url(#p727749d73c)" style="stroke: #000000"/>
    <path d="M 100.135534 73.332215 
C 100.728546 73.332215 101.29735 73.096609 101.716673 72.677286 
C 102.135996 72.257963 102.371602 71.689159 102.371602 71.096147 
C 102.371602 70.503135 102.135996 69.934331 101.716673 69.515008 
C 101.29735 69.095685 100.728546 68.860079 100.135534 68.860079 
C 99.542522 68.860079 98.973718 69.095685 98.554395 69.515008 
C 98.135072 69.934331 97.899466 70.503135 97.899466 71.096147 
C 97.899466 71.689159 98.135072 72.257963 98.554395 72.677286 
C 98.973718 73.096609 99.542522 73.332215 100.135534 73.332215 
z
" clip-path="url(#p727749d73c)" style="stroke: #000000"/>
    <path d="M 94.700942 61.184391 
C 95.239942 61.184391 95.756939 60.970243 96.13807 60.589112 
C 96.519201 60.207981 96.733349 59.690984 96.733349 59.151984 
C 96.733349 58.612983 96.519201 58.095986 96.13807 57.714855 
C 95.756939 57.333724 95.239942 57.119577 94.700942 57.119577 
C 94.161941 57.119577 93.644944 57.333724 93.263813 57.714855 
C 92.882682 58.095986 92.668535 58.612983 92.668535 59.151984 
C 92.668535 59.690984 92.882682 60.207981 93.263813 60.589112 
C 93.644944 60.970243 94.161941 61.184391 94.700942 61.184391 
z
" clip-path="url(#p727749d73c)" style="stroke: #000000"/>
    <path d="M 90.288723 45.296084 
C 90.788007 45.296084 91.266909 45.097716 91.619956 44.744669 
C 91.973003 44.391622 92.17137 43.91272 92.17137 43.413436 
C 92.17137 42.914152 91.973003 42.43525 91.619956 42.082203 
C 91.266909 41.729156 90.788007 41.530788 90.288723 41.530788 
C 89.789439 41.530788 89.310537 41.729156 88.95749 42.082203 
C 88.604443 42.43525 88.406075 42.914152 88.406075 43.413436 
C 88.406075 43.91272 88.604443 44.391622 88.95749 44.744669 
C 89.310537 45.097716 89.789439 45.296084 90.288723 45.296084 
z
" clip-path="url(#p727749d73c)" style="stroke: #000000"/>
    <path d="M 104.552852 116.27279 
C 105.146234 116.27279 105.715393 116.037036 106.134978 115.617452 
C 106.554563 115.197867 106.790316 114.628708 106.790316 114.035325 
C 106.790316 113.441943 106.554563 112.872784 106.134978 112.453199 
C 105.715393 112.033615 105.146234 111.797861 104.552852 111.797861 
C 103.95947 111.797861 103.390311 112.033615 102.970726 112.453199 
C 102.551141 112.872784 102.315388 113.441943 102.315388 114.035325 
C 102.315388 114.628708 102.551141 115.197867 102.970726 115.617452 
C 103.390311 116.037036 103.95947 116.27279 104.552852 116.27279 
z
" clip-path="url(#p727749d73c)" style="stroke: #000000"/>
    <path d="M 100.165759 101.394752 
C 100.29836 101.394752 100.425549 101.342069 100.519312 101.248305 
C 100.613076 101.154542 100.665759 101.027353 100.665759 100.894752 
C 100.665759 100.76215 100.613076 100.634962 100.519312 100.541198 
C 100.425549 100.447435 100.29836 100.394752 100.165759 100.394752 
C 100.033157 100.394752 99.905969 100.447435 99.812205 100.541198 
C 99.718442 100.634962 99.665759 100.76215 99.665759 100.894752 
C 99.665759 101.027353 99.718442 101.154542 99.812205 101.248305 
C 99.905969 101.342069 100.033157 101.394752 100.165759 101.394752 
z
" clip-path="url(#p727749d73c)" style="stroke: #000000"/>
    <path d="M 95.980206 85.821581 
C 96.573219 85.821581 97.142022 85.585975 97.561345 85.166652 
C 97.980668 84.747329 98.216274 84.178525 98.216274 83.585513 
C 98.216274 82.992501 97.980668 82.423697 97.561345 82.004374 
C 97.142022 81.585051 96.573219 81.349445 95.980206 81.349445 
C 95.387194 81.349445 94.818391 81.585051 94.399068 82.004374 
C 93.979745 82.423697 93.744138 82.992501 93.744138 83.585513 
C 93.744138 84.178525 93.979745 84.747329 94.399068 85.166652 
C 94.818391 85.585975 95.387194 85.821581 95.980206 85.821581 
z
" clip-path="url(#p727749d73c)" style="stroke: #000000"/>
    <path d="M 84.585762 63.411413 
C 84.960816 63.411413 85.320559 63.262403 85.585762 62.9972 
C 85.850965 62.731997 85.999975 62.372254 85.999975 61.9972 
C 85.999975 61.622146 85.850965 61.262403 85.585762 60.9972 
C 85.320559 60.731997 84.960816 60.582986 84.585762 60.582986 
C 84.210708 60.582986 83.850965 60.731997 83.585762 60.9972 
C 83.320559 61.262403 83.171548 61.622146 83.171548 61.9972 
C 83.171548 62.372254 83.320559 62.731997 83.585762 62.9972 
C 83.850965 63.262403 84.210708 63.411413 84.585762 63.411413 
z
" clip-path="url(#p727749d73c)" style="stroke: #000000"/>
    <path d="M 78.786689 51.994636 
C 79.286593 51.994636 79.766089 51.796022 80.119575 51.442536 
C 80.47306 51.089051 80.671674 50.609555 80.671674 50.109651 
C 80.671674 49.609747 80.47306 49.130251 80.119575 48.776765 
C 79.766089 48.42328 79.286593 48.224666 78.786689 48.224666 
C 78.286786 48.224666 77.807289 48.42328 77.453804 48.776765 
C 77.100318 49.130251 76.901705 49.609747 76.901705 50.109651 
C 76.901705 50.609555 77.100318 51.089051 77.453804 51.442536 
C 77.807289 51.796022 78.286786 51.994636 78.786689 51.994636 
z
" clip-path="url(#p727749d73c)" style="stroke: #000000"/>
    <path d="M 75.381983 36.437459 
C 75.881267 36.437459 76.360168 36.239091 76.713216 35.886044 
C 77.066263 35.532997 77.26463 35.054095 77.26463 34.554812 
C 77.26463 34.055528 77.066263 33.576626 76.713216 33.223579 
C 76.360168 32.870532 75.881267 32.672164 75.381983 32.672164 
C 74.882699 32.672164 74.403797 32.870532 74.05075 33.223579 
C 73.697703 33.576626 73.499335 34.055528 73.499335 34.554812 
C 73.499335 35.054095 73.697703 35.532997 74.05075 35.886044 
C 74.403797 36.239091 74.882699 36.437459 75.381983 36.437459 
z
" clip-path="url(#p727749d73c)" style="stroke: #000000"/>
    <path d="M 114.467865 170.429745 
C 114.967149 170.429745 115.446051 170.231377 115.799098 169.87833 
C 116.152145 169.525283 116.350512 169.046381 116.350512 168.547097 
C 116.350512 168.047813 116.152145 167.568912 115.799098 167.215864 
C 115.446051 166.862817 114.967149 166.66445 114.467865 166.66445 
C 113.968581 166.66445 113.489679 166.862817 113.136632 167.215864 
C 112.783585 167.568912 112.585217 168.047813 112.585217 168.547097 
C 112.585217 169.046381 112.783585 169.525283 113.136632 169.87833 
C 113.489679 170.231377 113.968581 170.429745 114.467865 170.429745 
z
" clip-path="url(#p727749d73c)" style="stroke: #000000"/>
    <path d="M 105.660472 156.447404 
C 105.953967 156.447404 106.235481 156.330797 106.443014 156.123264 
C 106.650547 155.915732 106.767154 155.634217 106.767154 155.340722 
C 106.767154 155.047226 106.650547 154.765712 106.443014 154.55818 
C 106.235481 154.350647 105.953967 154.23404 105.660472 154.23404 
C 105.366976 154.23404 105.085462 154.350647 104.877929 154.55818 
C 104.670397 154.765712 104.55379 155.047226 104.55379 155.340722 
C 104.55379 155.634217 104.670397 155.915732 104.877929 156.123264 
C 105.085462 156.330797 105.366976 156.447404 105.660472 156.447404 
z
" clip-path="url(#p727749d73c)" style="stroke: #000000"/>
    <path d="M 102.022431 149.152916 
C 102.615444 149.152916 103.184247 148.91731 103.60357 148.497987 
C 104.022893 148.078664 104.258499 147.509861 104.258499 146.916848 
C 104.258499 146.323836 104.022893 145.755033 103.60357 145.33571 
C 103.184247 144.916387 102.615444 144.68078 102.022431 144.68078 
C 101.429419 144.68078 100.860615 144.916387 100.441293 145.33571 
C 100.02197 145.755033 99.786363 146.323836 99.786363 146.916848 
C 99.786363 147.509861 100.02197 148.078664 100.441293 148.497987 
C 100.860615 148.91731 101.429419 149.152916 102.022431 149.152916 
z
" clip-path="url(#p727749d73c)" style="stroke: #000000"/>
    <path d="M 98.350769 137.481591 
C 98.944152 137.481591 99.513311 137.245837 99.932896 136.826253 
C 100.35248 136.406668 100.588234 135.837509 100.588234 135.244127 
C 100.588234 134.650744 100.35248 134.081585 99.932896 133.662 
C 99.513311 133.242416 98.944152 133.006662 98.350769 133.006662 
C 97.757387 133.006662 97.188228 133.242416 96.768643 133.662 
C 96.349059 134.081585 96.113305 134.650744 96.113305 135.244127 
C 96.113305 135.837509 96.349059 136.406668 96.768643 136.826253 
C 97.188228 137.245837 97.757387 137.481591 98.350769 137.481591 
z
" clip-path="url(#p727749d73c)" style="stroke: #000000"/>
    <path d="M 98.624231 127.419615 
C 98.756832 127.419615 98.884021 127.366932 98.977784 127.273168 
C 99.071548 127.179405 99.124231 127.052216 99.124231 126.919615 
C 99.124231 126.787013 99.071548 126.659825 98.977784 126.566061 
C 98.884021 126.472298 98.756832 126.419615 98.624231 126.419615 
C 98.491629 126.419615 98.364441 126.472298 98.270677 126.566061 
C 98.176914 126.659825 98.124231 126.787013 98.124231 126.919615 
C 98.124231 127.052216 98.176914 127.179405 98.270677 127.273168 
C 98.364441 127.366932 98.491629 127.419615 98.624231 127.419615 
z
" clip-path="url(#p727749d73c)" style="stroke: #000000"/>
    <path d="M 94.214171 118.43772 
C 94.749682 118.43772 95.263333 118.224959 95.641997 117.846295 
C 96.020661 117.467631 96.233422 116.95398 96.233422 116.418468 
C 96.233422 115.882956 96.020661 115.369306 95.641997 114.990642 
C 95.263333 114.611978 94.749682 114.399217 94.214171 114.399217 
C 93.678659 114.399217 93.165008 114.611978 92.786344 114.990642 
C 92.40768 115.369306 92.194919 115.882956 92.194919 116.418468 
C 92.194919 116.95398 92.40768 117.467631 92.786344 117.846295 
C 93.165008 118.224959 93.678659 118.43772 94.214171 118.43772 
z
" clip-path="url(#p727749d73c)" style="stroke: #000000"/>
    <path d="M 81.207001 85.721265 
C 81.339602 85.721265 81.466791 85.668582 81.560554 85.574818 
C 81.654318 85.481055 81.707001 85.353867 81.707001 85.221265 
C 81.707001 85.088663 81.654318 84.961475 81.560554 84.867712 
C 81.466791 84.773948 81.339602 84.721265 81.207001 84.721265 
C 81.074399 84.721265 80.947211 84.773948 80.853447 84.867712 
C 80.759684 84.961475 80.707001 85.088663 80.707001 85.221265 
C 80.707001 85.353867 80.759684 85.481055 80.853447 85.574818 
C 80.947211 85.668582 81.074399 85.721265 81.207001 85.721265 
z
" clip-path="url(#p727749d73c)" style="stroke: #000000"/>
    <path d="M 77.311818 64.537005 
C 77.90483 64.537005 78.473634 64.301399 78.892957 63.882076 
C 79.31228 63.462753 79.547886 62.893949 79.547886 62.300937 
C 79.547886 61.707925 79.31228 61.139121 78.892957 60.719798 
C 78.473634 60.300475 77.90483 60.064869 77.311818 60.064869 
C 76.718806 60.064869 76.150002 60.300475 75.730679 60.719798 
C 75.311356 61.139121 75.07575 61.707925 75.07575 62.300937 
C 75.07575 62.893949 75.311356 63.462753 75.730679 63.882076 
C 76.150002 64.301399 76.718806 64.537005 77.311818 64.537005 
z
" clip-path="url(#p727749d73c)" style="stroke: #000000"/>
    <path d="M 61.452651 32.669867 
C 61.951935 32.669867 62.430837 32.4715 62.783884 32.118453 
C 63.136931 31.765405 63.335298 31.286504 63.335298 30.78722 
C 63.335298 30.287936 63.136931 29.809034 62.783884 29.455987 
C 62.430837 29.10294 61.951935 28.904572 61.452651 28.904572 
C 60.953367 28.904572 60.474465 29.10294 60.121418 29.455987 
C 59.768371 29.809034 59.570003 30.287936 59.570003 30.78722 
C 59.570003 31.286504 59.768371 31.765405 60.121418 32.118453 
C 60.474465 32.4715 60.953367 32.669867 61.452651 32.669867 
z
" clip-path="url(#p727749d73c)" style="stroke: #000000"/>
    <path d="M 102.321707 174.649858 
C 102.820991 174.649858 103.299892 174.45149 103.652939 174.098443 
C 104.005986 173.745396 104.204354 173.266494 104.204354 172.76721 
C 104.204354 172.267927 104.005986 171.789025 103.652939 171.435978 
C 103.299892 171.082931 102.820991 170.884563 102.321707 170.884563 
C 101.822423 170.884563 101.343521 171.082931 100.990474 171.435978 
C 100.637427 171.789025 100.439059 172.267927 100.439059 172.76721 
C 100.439059 173.266494 100.637427 173.745396 100.990474 174.098443 
C 101.343521 174.45149 101.822423 174.649858 102.321707 174.649858 
z
" clip-path="url(#p727749d73c)" style="stroke: #000000"/>
    <path d="M 95.943327 161.941362 
C 96.301108 161.941362 96.644283 161.799214 96.897273 161.546224 
C 97.150263 161.293235 97.292411 160.950059 97.292411 160.592278 
C 97.292411 160.234497 97.150263 159.891321 96.897273 159.638331 
C 96.644283 159.385342 96.301108 159.243194 95.943327 159.243194 
C 95.585545 159.243194 95.24237 159.385342 94.98938 159.638331 
C 94.736391 159.891321 94.594243 160.234497 94.594243 160.592278 
C 94.594243 160.950059 94.736391 161.293235 94.98938 161.546224 
C 95.24237 161.799214 95.585545 161.941362 95.943327 161.941362 
z
" clip-path="url(#p727749d73c)" style="stroke: #000000"/>
    <path d="M 94.928142 151.837834 
C 95.521154 151.837834 96.089958 151.602228 96.509281 151.182905 
C 96.928604 150.763582 97.16421 150.194778 97.16421 149.601766 
C 97.16421 149.008754 96.928604 148.43995 96.509281 148.020627 
C 96.089958 147.601304 95.521154 147.365698 94.928142 147.365698 
C 94.33513 147.365698 93.766326 147.601304 93.347003 148.020627 
C 92.92768 148.43995 92.692074 149.008754 92.692074 149.601766 
C 92.692074 150.194778 92.92768 150.763582 93.347003 151.182905 
C 93.766326 151.602228 94.33513 151.837834 94.928142 151.837834 
z
" clip-path="url(#p727749d73c)" style="stroke: #000000"/>
    <path d="M 91.02337 144.10599 
C 91.615267 144.10599 92.183001 143.870827 92.601535 143.452293 
C 93.02007 143.033758 93.255233 142.466024 93.255233 141.874127 
C 93.255233 141.28223 93.02007 140.714495 92.601535 140.295961 
C 92.183001 139.877426 91.615267 139.642263 91.02337 139.642263 
C 90.431473 139.642263 89.863738 139.877426 89.445204 140.295961 
C 89.026669 140.714495 88.791506 141.28223 88.791506 141.874127 
C 88.791506 142.466024 89.026669 143.033758 89.445204 143.452293 
C 89.863738 143.870827 90.431473 144.10599 91.02337 144.10599 
z
" clip-path="url(#p727749d73c)" style="stroke: #000000"/>
    <path d="M 86.103442 122.131411 
C 86.696824 122.131411 87.265983 121.895657 87.685568 121.476073 
C 88.105152 121.056488 88.340906 120.487329 88.340906 119.893946 
C 88.340906 119.300564 88.105152 118.731405 87.685568 118.31182 
C 87.265983 117.892236 86.696824 117.656482 86.103442 117.656482 
C 85.510059 117.656482 84.9409 117.892236 84.521315 118.31182 
C 84.101731 118.731405 83.865977 119.300564 83.865977 119.893946 
C 83.865977 120.487329 84.101731 121.056488 84.521315 121.476073 
C 84.9409 121.895657 85.510059 122.131411 86.103442 122.131411 
z
" clip-path="url(#p727749d73c)" style="stroke: #000000"/>
    <path d="M 77.13128 109.610326 
C 77.724662 109.610326 78.293821 109.374573 78.713406 108.954988 
C 79.132991 108.535403 79.368744 107.966244 79.368744 107.372862 
C 79.368744 106.779479 79.132991 106.21032 78.713406 105.790736 
C 78.293821 105.371151 77.724662 105.135398 77.13128 105.135398 
C 76.537898 105.135398 75.968739 105.371151 75.549154 105.790736 
C 75.129569 106.21032 74.893816 106.779479 74.893816 107.372862 
C 74.893816 107.966244 75.129569 108.535403 75.549154 108.954988 
C 75.968739 109.374573 76.537898 109.610326 77.13128 109.610326 
z
" clip-path="url(#p727749d73c)" style="stroke: #000000"/>
    <path d="M 77.96754 101.079156 
C 78.560922 101.079156 79.130081 100.843403 79.549666 100.423818 
C 79.969251 100.004233 80.205004 99.435074 80.205004 98.841692 
C 80.205004 98.24831 79.969251 97.679151 79.549666 97.259566 
C 79.130081 96.839981 78.560922 96.604228 77.96754 96.604228 
C 77.374157 96.604228 76.804998 96.839981 76.385414 97.259566 
C 75.965829 97.679151 75.730076 98.24831 75.730076 98.841692 
C 75.730076 99.435074 75.965829 100.004233 76.385414 100.423818 
C 76.804998 100.843403 77.374157 101.079156 77.96754 101.079156 
z
" clip-path="url(#p727749d73c)" style="stroke: #000000"/>
    <path d="M 72.619707 93.921747 
C 73.168786 93.921747 73.695451 93.703595 74.083709 93.315337 
C 74.471967 92.927079 74.690119 92.400414 74.690119 91.851335 
C 74.690119 91.302255 74.471967 90.77559 74.083709 90.387332 
C 73.695451 89.999074 73.168786 89.780922 72.619707 89.780922 
C 72.070627 89.780922 71.543962 89.999074 71.155704 90.387332 
C 70.767446 90.77559 70.549294 91.302255 70.549294 91.851335 
C 70.549294 92.400414 70.767446 92.927079 71.155704 93.315337 
C 71.543962 93.703595 72.070627 93.921747 72.619707 93.921747 
z
" clip-path="url(#p727749d73c)" style="stroke: #000000"/>
    <path d="M 73.260253 84.523197 
C 73.853635 84.523197 74.422794 84.287443 74.842379 83.867859 
C 75.261964 83.448274 75.497717 82.879115 75.497717 82.285733 
C 75.497717 81.69235 75.261964 81.123191 74.842379 80.703606 
C 74.422794 80.284022 73.853635 80.048268 73.260253 80.048268 
C 72.66687 80.048268 72.097711 80.284022 71.678127 80.703606 
C 71.258542 81.123191 71.022789 81.69235 71.022789 82.285733 
C 71.022789 82.879115 71.258542 83.448274 71.678127 83.867859 
C 72.097711 84.287443 72.66687 84.523197 73.260253 84.523197 
z
" clip-path="url(#p727749d73c)" style="stroke: #000000"/>
    <path d="M 63.982717 58.880059 
C 64.502996 58.880059 65.002035 58.67335 65.369927 58.305458 
C 65.737819 57.937565 65.944528 57.438526 65.944528 56.918248 
C 65.944528 56.39797 65.737819 55.898931 65.369927 55.531038 
C 65.002035 55.163146 64.502996 54.956437 63.982717 54.956437 
C 63.462439 54.956437 62.9634 55.163146 62.595508 55.531038 
C 62.227616 55.898931 62.020907 56.39797 62.020907 56.918248 
C 62.020907 57.438526 62.227616 57.937565 62.595508 58.305458 
C 62.9634 58.67335 63.462439 58.880059 63.982717 58.880059 
z
" clip-path="url(#p727749d73c)" style="stroke: #000000"/>
    <path d="M 75.851835 133.994038 
C 76.387346 133.994038 76.900997 133.781277 77.279661 133.402613 
C 77.658325 133.023949 77.871086 132.510299 77.871086 131.974787 
C 77.871086 131.439275 77.658325 130.925624 77.279661 130.54696 
C 76.900997 130.168296 76.387346 129.955535 75.851835 129.955535 
C 75.316323 129.955535 74.802672 130.168296 74.424008 130.54696 
C 74.045344 130.925624 73.832583 131.439275 73.832583 131.974787 
C 73.832583 132.510299 74.045344 133.023949 74.424008 133.402613 
C 74.802672 133.781277 75.316323 133.994038 75.851835 133.994038 
z
" clip-path="url(#p727749d73c)" style="stroke: #000000"/>
    <path d="M 61.245077 97.225857 
C 61.792751 97.225857 62.318067 97.008264 62.705331 96.621001 
C 63.092595 96.233737 63.310188 95.708421 63.310188 95.160747 
C 63.310188 94.613073 63.092595 94.087757 62.705331 93.700494 
C 62.318067 93.31323 61.792751 93.095637 61.245077 93.095637 
C 60.697404 93.095637 60.172088 93.31323 59.784824 93.700494 
C 59.39756 94.087757 59.179967 94.613073 59.179967 95.160747 
C 59.179967 95.708421 59.39756 96.233737 59.784824 96.621001 
C 60.172088 97.008264 60.697404 97.225857 61.245077 97.225857 
z
" clip-path="url(#p727749d73c)" style="stroke: #000000"/>
    <path d="M 60.161563 87.168309 
C 60.754946 87.168309 61.324105 86.932556 61.74369 86.512971 
C 62.163274 86.093386 62.399028 85.524227 62.399028 84.930845 
C 62.399028 84.337462 62.163274 83.768304 61.74369 83.348719 
C 61.324105 82.929134 60.754946 82.693381 60.161563 82.693381 
C 59.568181 82.693381 58.999022 82.929134 58.579437 83.348719 
C 58.159853 83.768304 57.924099 84.337462 57.924099 84.930845 
C 57.924099 85.524227 58.159853 86.093386 58.579437 86.512971 
C 58.999022 86.932556 59.568181 87.168309 60.161563 87.168309 
z
" clip-path="url(#p727749d73c)" style="stroke: #000000"/>
    <path d="M 67.213407 139.236496 
C 67.806789 139.236496 68.375948 139.000742 68.795533 138.581158 
C 69.215118 138.161573 69.450871 137.592414 69.450871 136.999031 
C 69.450871 136.405649 69.215118 135.83649 68.795533 135.416905 
C 68.375948 134.997321 67.806789 134.761567 67.213407 134.761567 
C 66.620025 134.761567 66.050866 134.997321 65.631281 135.416905 
C 65.211696 135.83649 64.975943 136.405649 64.975943 136.999031 
C 64.975943 137.592414 65.211696 138.161573 65.631281 138.581158 
C 66.050866 139.000742 66.620025 139.236496 67.213407 139.236496 
z
" clip-path="url(#p727749d73c)" style="stroke: #000000"/>
    <path d="M 60.087019 131.858473 
C 60.680401 131.858473 61.24956 131.62272 61.669145 131.203135 
C 62.08873 130.78355 62.324483 130.214391 62.324483 129.621009 
C 62.324483 129.027626 62.08873 128.458467 61.669145 128.038883 
C 61.24956 127.619298 60.680401 127.383545 60.087019 127.383545 
C 59.493637 127.383545 58.924478 127.619298 58.504893 128.038883 
C 58.085308 128.458467 57.849555 129.027626 57.849555 129.621009 
C 57.849555 130.214391 58.085308 130.78355 58.504893 131.203135 
C 58.924478 131.62272 59.493637 131.858473 60.087019 131.858473 
z
" clip-path="url(#p727749d73c)" style="stroke: #000000"/>
    <path d="M 58.993056 116.240766 
C 59.471158 116.240766 59.929742 116.050814 60.267811 115.712745 
C 60.60588 115.374676 60.795832 114.916092 60.795832 114.43799 
C 60.795832 113.959888 60.60588 113.501304 60.267811 113.163235 
C 59.929742 112.825166 59.471158 112.635214 58.993056 112.635214 
C 58.514955 112.635214 58.05637 112.825166 57.718301 113.163235 
C 57.380233 113.501304 57.190281 113.959888 57.190281 114.43799 
C 57.190281 114.916092 57.380233 115.374676 57.718301 115.712745 
C 58.05637 116.050814 58.514955 116.240766 58.993056 116.240766 
z
" clip-path="url(#p727749d73c)" style="stroke: #000000"/>
    <path d="M 48.64347 95.275314 
C 49.236111 95.275314 49.804559 95.039855 50.22362 94.620794 
C 50.64268 94.201734 50.878139 93.633286 50.878139 93.040645 
C 50.878139 92.448003 50.64268 91.879555 50.22362 91.460495 
C 49.804559 91.041434 49.236111 90.805975 48.64347 90.805975 
C 48.050829 90.805975 47.482381 91.041434 47.06332 91.460495 
C 46.64426 91.879555 46.408801 92.448003 46.408801 93.040645 
C 46.408801 93.633286 46.64426 94.201734 47.06332 94.620794 
C 47.482381 95.039855 48.050829 95.275314 48.64347 95.275314 
z
" clip-path="url(#p727749d73c)" style="stroke: #000000"/>
    <path d="M 47.004396 88.328677 
C 47.597408 88.328677 48.166211 88.093071 48.585534 87.673748 
C 49.004857 87.254425 49.240464 86.685621 49.240464 86.092609 
C 49.240464 85.499597 49.004857 84.930793 48.585534 84.51147 
C 48.166211 84.092147 47.597408 83.856541 47.004396 83.856541 
C 46.411383 83.856541 45.84258 84.092147 45.423257 84.51147 
C 45.003934 84.930793 44.768328 85.499597 44.768328 86.092609 
C 44.768328 86.685621 45.003934 87.254425 45.423257 87.673748 
C 45.84258 88.093071 46.411383 88.328677 47.004396 88.328677 
z
" clip-path="url(#p727749d73c)" style="stroke: #000000"/>
    <path d="M 39.078823 77.817756 
C 39.515861 77.817756 39.935058 77.644119 40.24409 77.335087 
C 40.553123 77.026054 40.72676 76.606857 40.72676 76.169819 
C 40.72676 75.732782 40.553123 75.313585 40.24409 75.004552 
C 39.935058 74.69552 39.515861 74.521883 39.078823 74.521883 
C 38.641785 74.521883 38.222589 74.69552 37.913556 75.004552 
C 37.604524 75.313585 37.430887 75.732782 37.430887 76.169819 
C 37.430887 76.606857 37.604524 77.026054 37.913556 77.335087 
C 38.222589 77.644119 38.641785 77.817756 39.078823 77.817756 
z
" clip-path="url(#p727749d73c)" style="stroke: #000000"/>
    <path d="M 56.795638 154.064479 
C 57.278616 154.064479 57.741877 153.872591 58.083393 153.531074 
C 58.42491 153.189557 58.616799 152.726297 58.616799 152.243319 
C 58.616799 151.760342 58.42491 151.297081 58.083393 150.955564 
C 57.741877 150.614048 57.278616 150.422159 56.795638 150.422159 
C 56.312661 150.422159 55.8494 150.614048 55.507884 150.955564 
C 55.166367 151.297081 54.974478 151.760342 54.974478 152.243319 
C 54.974478 152.726297 55.166367 153.189557 55.507884 153.531074 
C 55.8494 153.872591 56.312661 154.064479 56.795638 154.064479 
z
" clip-path="url(#p727749d73c)" style="stroke: #000000"/>
    <path d="M 49.486676 140.37286 
C 50.064272 140.37286 50.618289 140.143378 51.026711 139.734956 
C 51.435133 139.326534 51.664615 138.772517 51.664615 138.194921 
C 51.664615 137.617325 51.435133 137.063308 51.026711 136.654886 
C 50.618289 136.246464 50.064272 136.016982 49.486676 136.016982 
C 48.90908 136.016982 48.355063 136.246464 47.946641 136.654886 
C 47.538219 137.063308 47.308737 137.617325 47.308737 138.194921 
C 47.308737 138.772517 47.538219 139.326534 47.946641 139.734956 
C 48.355063 140.143378 48.90908 140.37286 49.486676 140.37286 
z
" clip-path="url(#p727749d73c)" style="stroke: #000000"/>
    <path d="M 44.970759 120.751903 
C 45.563771 120.751903 46.132575 120.516296 46.551898 120.096973 
C 46.97122 119.677651 47.206827 119.108847 47.206827 118.515835 
C 47.206827 117.922822 46.97122 117.354019 46.551898 116.934696 
C 46.132575 116.515373 45.563771 116.279767 44.970759 116.279767 
C 44.377747 116.279767 43.808943 116.515373 43.38962 116.934696 
C 42.970297 117.354019 42.734691 117.922822 42.734691 118.515835 
C 42.734691 119.108847 42.970297 119.677651 43.38962 120.096973 
C 43.808943 120.516296 44.377747 120.751903 44.970759 120.751903 
z
" clip-path="url(#p727749d73c)" style="stroke: #000000"/>
    <path d="M 34.800361 92.015691 
C 35.393373 92.015691 35.962177 91.780084 36.3815 91.360762 
C 36.800823 90.941439 37.036429 90.372635 37.036429 89.779623 
C 37.036429 89.186611 36.800823 88.617807 36.3815 88.198484 
C 35.962177 87.779161 35.393373 87.543555 34.800361 87.543555 
C 34.207349 87.543555 33.638545 87.779161 33.219222 88.198484 
C 32.799899 88.617807 32.564293 89.186611 32.564293 89.779623 
C 32.564293 90.372635 32.799899 90.941439 33.219222 91.360762 
C 33.638545 91.780084 34.207349 92.015691 34.800361 92.015691 
z
" clip-path="url(#p727749d73c)" style="stroke: #000000"/>
    <path d="M 34.033423 81.160561 
C 34.35595 81.160561 34.66531 81.03242 34.893371 80.804359 
C 35.121432 80.576298 35.249573 80.266938 35.249573 79.944411 
C 35.249573 79.621885 35.121432 79.312524 34.893371 79.084464 
C 34.66531 78.856403 34.35595 78.728262 34.033423 78.728262 
C 33.710897 78.728262 33.401537 78.856403 33.173476 79.084464 
C 32.945415 79.312524 32.817274 79.621885 32.817274 79.944411 
C 32.817274 80.266938 32.945415 80.576298 33.173476 80.804359 
C 33.401537 81.03242 33.710897 81.160561 34.033423 81.160561 
z
" clip-path="url(#p727749d73c)" style="stroke: #000000"/>
    <path d="M 50.700238 164.453776 
C 51.236754 164.453776 51.751367 164.240616 52.130741 163.861242 
C 52.510115 163.481869 52.723275 162.967255 52.723275 162.43074 
C 52.723275 161.894224 52.510115 161.379611 52.130741 161.000237 
C 51.751367 160.620863 51.236754 160.407703 50.700238 160.407703 
C 50.163723 160.407703 49.649109 160.620863 49.269736 161.000237 
C 48.890362 161.379611 48.677202 161.894224 48.677202 162.43074 
C 48.677202 162.967255 48.890362 163.481869 49.269736 163.861242 
C 49.649109 164.240616 50.163723 164.453776 50.700238 164.453776 
z
" clip-path="url(#p727749d73c)" style="stroke: #000000"/>
    <path d="M 42.214328 137.914824 
C 42.737869 137.914824 43.240037 137.706819 43.610236 137.33662 
C 43.980435 136.966421 44.188439 136.464253 44.188439 135.940713 
C 44.188439 135.417172 43.980435 134.915004 43.610236 134.544806 
C 43.240037 134.174607 42.737869 133.966602 42.214328 133.966602 
C 41.690788 133.966602 41.18862 134.174607 40.818421 134.544806 
C 40.448222 134.915004 40.240217 135.417172 40.240217 135.940713 
C 40.240217 136.464253 40.448222 136.966421 40.818421 137.33662 
C 41.18862 137.706819 41.690788 137.914824 42.214328 137.914824 
z
" clip-path="url(#p727749d73c)" style="stroke: #000000"/>
    <path d="M 34.200141 149.054485 
C 34.332742 149.054485 34.459931 149.001802 34.553694 148.908038 
C 34.647457 148.814275 34.700141 148.687087 34.700141 148.554485 
C 34.700141 148.421883 34.647457 148.294695 34.553694 148.200932 
C 34.459931 148.107168 34.332742 148.054485 34.200141 148.054485 
C 34.067539 148.054485 33.940351 148.107168 33.846587 148.200932 
C 33.752824 148.294695 33.700141 148.421883 33.700141 148.554485 
C 33.700141 148.687087 33.752824 148.814275 33.846587 148.908038 
C 33.940351 149.001802 34.067539 149.054485 34.200141 149.054485 
z
" clip-path="url(#p727749d73c)" style="stroke: #000000"/>
   </g>
   <g id="matplotlib.axis_1">
    <g id="xtick_1">
     <g id="line2d_1">
      <defs>
       <path id="m6c90926733" d="M 0 0 
L 0 3.5 
" style="stroke: #000000; stroke-width: 0.8"/>
      </defs>
      <g>
       <use xlink:href="#m6c90926733" x="18" y="189" style="stroke: #000000; stroke-width: 0.8"/>
      </g>
     </g>
     <g id="text_1">
      <!-- −10 -->
      <g transform="translate(7.447656 203.598437)scale(0.1 -0.1)">
       <defs>
        <path id="DejaVuSans-2212" d="M 678 2272 
L 4684 2272 
L 4684 1741 
L 678 1741 
L 678 2272 
z
" transform="scale(0.015625)"/>
        <path id="DejaVuSans-31" d="M 794 531 
L 1825 531 
L 1825 4091 
L 703 3866 
L 703 4441 
L 1819 4666 
L 2450 4666 
L 2450 531 
L 3481 531 
L 3481 0 
L 794 0 
L 794 531 
z
" transform="scale(0.015625)"/>
        <path id="DejaVuSans-30" d="M 2034 4250 
Q 1547 4250 1301 3770 
Q 1056 3291 1056 2328 
Q 1056 1369 1301 889 
Q 1547 409 2034 409 
Q 2525 409 2770 889 
Q 3016 1369 3016 2328 
Q 3016 3291 2770 3770 
Q 2525 4250 2034 4250 
z
M 2034 4750 
Q 2819 4750 3233 4129 
Q 3647 3509 3647 2328 
Q 3647 1150 3233 529 
Q 2819 -91 2034 -91 
Q 1250 -91 836 529 
Q 422 1150 422 2328 
Q 422 3509 836 4129 
Q 1250 4750 2034 4750 
z
" transform="scale(0.015625)"/>
       </defs>
       <use xlink:href="#DejaVuSans-2212"/>
       <use xlink:href="#DejaVuSans-31" x="83.789062"/>
       <use xlink:href="#DejaVuSans-30" x="147.412109"/>
      </g>
     </g>
    </g>
    <g id="xtick_2">
     <g id="line2d_2">
      <g>
       <use xlink:href="#m6c90926733" x="73.8" y="189" style="stroke: #000000; stroke-width: 0.8"/>
      </g>
     </g>
     <g id="text_2">
      <!-- 0 -->
      <g transform="translate(70.61875 203.598437)scale(0.1 -0.1)">
       <use xlink:href="#DejaVuSans-30"/>
      </g>
     </g>
    </g>
    <g id="xtick_3">
     <g id="line2d_3">
      <g>
       <use xlink:href="#m6c90926733" x="129.6" y="189" style="stroke: #000000; stroke-width: 0.8"/>
      </g>
     </g>
     <g id="text_3">
      <!-- 10 -->
      <g transform="translate(123.2375 203.598437)scale(0.1 -0.1)">
       <use xlink:href="#DejaVuSans-31"/>
       <use xlink:href="#DejaVuSans-30" x="63.623047"/>
      </g>
     </g>
    </g>
   </g>
   <g id="matplotlib.axis_2">
    <g id="ytick_1">
     <g id="line2d_4">
      <defs>
       <path id="m538b82e2fa" d="M 0 0 
L -3.5 0 
" style="stroke: #000000; stroke-width: 0.8"/>
      </defs>
      <g>
       <use xlink:href="#m538b82e2fa" x="18" y="189" style="stroke: #000000; stroke-width: 0.8"/>
      </g>
     </g>
     <g id="text_4">
      <!-- −15 -->
      <g transform="translate(-10.104688 192.799219)scale(0.1 -0.1)">
       <defs>
        <path id="DejaVuSans-35" d="M 691 4666 
L 3169 4666 
L 3169 4134 
L 1269 4134 
L 1269 2991 
Q 1406 3038 1543 3061 
Q 1681 3084 1819 3084 
Q 2600 3084 3056 2656 
Q 3513 2228 3513 1497 
Q 3513 744 3044 326 
Q 2575 -91 1722 -91 
Q 1428 -91 1123 -41 
Q 819 9 494 109 
L 494 744 
Q 775 591 1075 516 
Q 1375 441 1709 441 
Q 2250 441 2565 725 
Q 2881 1009 2881 1497 
Q 2881 1984 2565 2268 
Q 2250 2553 1709 2553 
Q 1456 2553 1204 2497 
Q 953 2441 691 2322 
L 691 4666 
z
" transform="scale(0.015625)"/>
       </defs>
       <use xlink:href="#DejaVuSans-2212"/>
       <use xlink:href="#DejaVuSans-31" x="83.789062"/>
       <use xlink:href="#DejaVuSans-35" x="147.412109"/>
      </g>
     </g>
    </g>
    <g id="ytick_2">
     <g id="line2d_5">
      <g>
       <use xlink:href="#m538b82e2fa" x="18" y="161.82" style="stroke: #000000; stroke-width: 0.8"/>
      </g>
     </g>
     <g id="text_5">
      <!-- −10 -->
      <g transform="translate(-10.104688 165.619219)scale(0.1 -0.1)">
       <use xlink:href="#DejaVuSans-2212"/>
       <use xlink:href="#DejaVuSans-31" x="83.789062"/>
       <use xlink:href="#DejaVuSans-30" x="147.412109"/>
      </g>
     </g>
    </g>
    <g id="ytick_3">
     <g id="line2d_6">
      <g>
       <use xlink:href="#m538b82e2fa" x="18" y="134.64" style="stroke: #000000; stroke-width: 0.8"/>
      </g>
     </g>
     <g id="text_6">
      <!-- −5 -->
      <g transform="translate(-3.742188 138.439219)scale(0.1 -0.1)">
       <use xlink:href="#DejaVuSans-2212"/>
       <use xlink:href="#DejaVuSans-35" x="83.789062"/>
      </g>
     </g>
    </g>
    <g id="ytick_4">
     <g id="line2d_7">
      <g>
       <use xlink:href="#m538b82e2fa" x="18" y="107.46" style="stroke: #000000; stroke-width: 0.8"/>
      </g>
     </g>
     <g id="text_7">
      <!-- 0 -->
      <g transform="translate(4.6375 111.259219)scale(0.1 -0.1)">
       <use xlink:href="#DejaVuSans-30"/>
      </g>
     </g>
    </g>
    <g id="ytick_5">
     <g id="line2d_8">
      <g>
       <use xlink:href="#m538b82e2fa" x="18" y="80.28" style="stroke: #000000; stroke-width: 0.8"/>
      </g>
     </g>
     <g id="text_8">
      <!-- 5 -->
      <g transform="translate(4.6375 84.079219)scale(0.1 -0.1)">
       <use xlink:href="#DejaVuSans-35"/>
      </g>
     </g>
    </g>
    <g id="ytick_6">
     <g id="line2d_9">
      <g>
       <use xlink:href="#m538b82e2fa" x="18" y="53.1" style="stroke: #000000; stroke-width: 0.8"/>
      </g>
     </g>
     <g id="text_9">
      <!-- 10 -->
      <g transform="translate(-1.725 56.899219)scale(0.1 -0.1)">
       <use xlink:href="#DejaVuSans-31"/>
       <use xlink:href="#DejaVuSans-30" x="63.623047"/>
      </g>
     </g>
    </g>
    <g id="ytick_7">
     <g id="line2d_10">
      <g>
       <use xlink:href="#m538b82e2fa" x="18" y="25.92" style="stroke: #000000; stroke-width: 0.8"/>
      </g>
     </g>
     <g id="text_10">
      <!-- 15 -->
      <g transform="translate(-1.725 29.719219)scale(0.1 -0.1)">
       <use xlink:href="#DejaVuSans-31"/>
       <use xlink:href="#DejaVuSans-35" x="63.623047"/>
      </g>
     </g>
    </g>
   </g>
   <g id="patch_3">
    <path d="M 18 189 
L 18 25.92 
" style="fill: none; stroke: #000000; stroke-width: 0.8; stroke-linejoin: miter; stroke-linecap: square"/>
   </g>
   <g id="patch_4">
    <path d="M 129.6 189 
L 129.6 25.92 
" style="fill: none; stroke: #000000; stroke-width: 0.8; stroke-linejoin: miter; stroke-linecap: square"/>
   </g>
   <g id="patch_5">
    <path d="M 18 189 
L 129.6 189 
" style="fill: none; stroke: #000000; stroke-width: 0.8; stroke-linejoin: miter; stroke-linecap: square"/>
   </g>
   <g id="patch_6">
    <path d="M 18 25.92 
L 129.6 25.92 
" style="fill: none; stroke: #000000; stroke-width: 0.8; stroke-linejoin: miter; stroke-linecap: square"/>
   </g>
  </g>
 </g>
 <defs>
  <clipPath id="p727749d73c">
   <rect x="18" y="25.92" width="111.6" height="163.08"/>
  </clipPath>
 </defs>
</svg>
