<?xml version="1.0" encoding="utf-8" standalone="no"?>
<!DOCTYPE svg PUBLIC "-//W3C//DTD SVG 1.1//EN"
  "http://www.w3.org/Graphics/SVG/1.1/DTD/svg11.dtd">
<svg xmlns:xlink="http://www.w3.org/1999/xlink" width="144pt" height="216pt" viewBox="0 0 144 216" xmlns="http://www.w3.org/2000/svg" version="1.1">
 <metadata>
  <rdf:RDF xmlns:dc="http://purl.org/dc/elements/1.1/" xmlns:cc="http://creativecommons.org/ns#" xmlns:rdf="http://www.w3.org/1999/02/22-rdf-syntax-ns#">
   <cc:Work>
    <dc:type rdf:resource="http://purl.org/dc/dcmitype/StillImage"/>
    <dc:date>2022-06-23T14:55:03.449333</dc:date>
    <dc:format>image/svg+xml</dc:format>
    <dc:creator>
     <cc:Agent>
      <dc:title>Matplotlib v3.5.1, https://matplotlib.org/</dc:title>
     </cc:Agent>
    </dc:creator>
   </cc:Work>
  </rdf:RDF>
 </metadata>
 <defs>
  <style type="text/css">*{stroke-linejoin: round; stroke-linecap: butt}</style>
 </defs>
 <g id="figure_1">
  <g id="patch_1">
   <path d="M 0 216 
L 144 216 
L 144 0 
L 0 0 
L 0 216 
z
" style="fill: none"/>
  </g>
  <g id="axes_1">
   <g id="patch_2">
    <path d="M 18 189 
L 129.6 189 
L 129.6 25.92 
L 18 25.92 
z
" style="fill: #ffffff"/>
   </g>
   <g id="PathCollection_1">
    <defs>
     <path id="m3963b6d9f6" d="M 0 2.738613 
C 0.726289 2.738613 1.422928 2.450055 1.936492 1.936492 
C 2.450055 1.422928 2.738613 0.726289 2.738613 0 
C 2.738613 -0.726289 2.450055 -1.422928 1.936492 -1.936492 
C 1.422928 -2.450055 0.726289 -2.738613 0 -2.738613 
C -0.726289 -2.738613 -1.422928 -2.450055 -1.936492 -1.936492 
C -2.450055 -1.422928 -2.738613 -0.726289 -2.738613 0 
C -2.738613 0.726289 -2.450055 1.422928 -1.936492 1.936492 
C -1.422928 2.450055 -0.726289 2.738613 0 2.738613 
z
" style="stroke: #ff0000; stroke-width: 1.75"/>
    </defs>
    <g clip-path="url(#p145399dbeb)">
     <use xlink:href="#m3963b6d9f6" x="80.775" y="83.92143" style="fill: #ff0000; stroke: #ff0000; stroke-width: 1.75"/>
     <use xlink:href="#m3963b6d9f6" x="59.85" y="95.690715" style="fill: #ff0000; stroke: #ff0000; stroke-width: 1.75"/>
     <use xlink:href="#m3963b6d9f6" x="66.825" y="107.46" style="fill: #ff0000; stroke: #ff0000; stroke-width: 1.75"/>
     <use xlink:href="#m3963b6d9f6" x="80.775" y="107.46" style="fill: #ff0000; stroke: #ff0000; stroke-width: 1.75"/>
     <use xlink:href="#m3963b6d9f6" x="94.725" y="107.46" style="fill: #ff0000; stroke: #ff0000; stroke-width: 1.75"/>
     <use xlink:href="#m3963b6d9f6" x="59.85" y="119.229285" style="fill: #ff0000; stroke: #ff0000; stroke-width: 1.75"/>
     <use xlink:href="#m3963b6d9f6" x="80.775" y="130.99857" style="fill: #ff0000; stroke: #ff0000; stroke-width: 1.75"/>
    </g>
   </g>
   <g id="PathCollection_2">
    <defs>
     <path id="C0_0_ef3420bca9" d="M 0 2.738613 
C 0.726289 2.738613 1.422928 2.450055 1.936492 1.936492 
C 2.450055 1.422928 2.738613 0.726289 2.738613 -0 
C 2.738613 -0.726289 2.450055 -1.422928 1.936492 -1.936492 
C 1.422928 -2.450055 0.726289 -2.738613 0 -2.738613 
C -0.726289 -2.738613 -1.422928 -2.450055 -1.936492 -1.936492 
C -2.450055 -1.422928 -2.738613 -0.726289 -2.738613 0 
C -2.738613 0.726289 -2.450055 1.422928 -1.936492 1.936492 
C -1.422928 2.450055 -0.726289 2.738613 0 2.738613 
z
"/>
    </defs>
    <g clip-path="url(#p145399dbeb)">
     <use xlink:href="#C0_0_ef3420bca9" x="66.825" y="83.92143" style="fill: none; stroke: #ff0000; stroke-width: 1.75"/>
    </g>
    <g clip-path="url(#p145399dbeb)">
     <use xlink:href="#C0_0_ef3420bca9" x="73.8" y="95.690715" style="fill: none; stroke: #ff0000; stroke-width: 1.75"/>
    </g>
    <g clip-path="url(#p145399dbeb)">
     <use xlink:href="#C0_0_ef3420bca9" x="87.75" y="95.690715" style="fill: none; stroke: #ff0000; stroke-width: 1.75"/>
    </g>
    <g clip-path="url(#p145399dbeb)">
     <use xlink:href="#C0_0_ef3420bca9" x="52.875" y="107.46" style="fill: none; stroke: #ff0000; stroke-width: 1.75"/>
    </g>
    <g clip-path="url(#p145399dbeb)">
     <use xlink:href="#C0_0_ef3420bca9" x="73.8" y="119.229285" style="fill: none; stroke: #ff0000; stroke-width: 1.75"/>
    </g>
    <g clip-path="url(#p145399dbeb)">
     <use xlink:href="#C0_0_ef3420bca9" x="87.75" y="119.229285" style="fill: none; stroke: #ff0000; stroke-width: 1.75"/>
    </g>
    <g clip-path="url(#p145399dbeb)">
     <use xlink:href="#C0_0_ef3420bca9" x="66.825" y="130.99857" style="fill: none; stroke: #ff0000; stroke-width: 1.75"/>
    </g>
   </g>
   <g id="PathCollection_3">
    <path d="M 109.342891 65.642921 
C 109.874331 65.642921 110.384075 65.431778 110.759859 65.055994 
C 111.135643 64.68021 111.346786 64.170466 111.346786 63.639026 
C 111.346786 63.107587 111.135643 62.597843 110.759859 62.222059 
C 110.384075 61.846275 109.874331 61.635132 109.342891 61.635132 
C 108.811452 61.635132 108.301708 61.846275 107.925924 62.222059 
C 107.55014 62.597843 107.338997 63.107587 107.338997 63.639026 
C 107.338997 64.170466 107.55014 64.68021 107.925924 65.055994 
C 108.301708 65.431778 108.811452 65.642921 109.342891 65.642921 
z
" clip-path="url(#p145399dbeb)" style="stroke: #000000"/>
    <path d="M 105.895356 58.834175 
C 106.422627 58.834175 106.928373 58.624688 107.30121 58.251851 
C 107.674046 57.879015 107.883533 57.373269 107.883533 56.845998 
C 107.883533 56.318728 107.674046 55.812982 107.30121 55.440145 
C 106.928373 55.067308 106.422627 54.857821 105.895356 54.857821 
C 105.368086 54.857821 104.86234 55.067308 104.489503 55.440145 
C 104.116667 55.812982 103.90718 56.318728 103.90718 56.845998 
C 103.90718 57.373269 104.116667 57.879015 104.489503 58.251851 
C 104.86234 58.624688 105.368086 58.834175 105.895356 58.834175 
z
" clip-path="url(#p145399dbeb)" style="stroke: #000000"/>
    <path d="M 97.752449 48.267418 
C 98.345832 48.267418 98.914991 48.031665 99.334576 47.61208 
C 99.75416 47.192495 99.989914 46.623336 99.989914 46.029954 
C 99.989914 45.436571 99.75416 44.867412 99.334576 44.447828 
C 98.914991 44.028243 98.345832 43.792489 97.752449 43.792489 
C 97.159067 43.792489 96.589908 44.028243 96.170323 44.447828 
C 95.750739 44.867412 95.514985 45.436571 95.514985 46.029954 
C 95.514985 46.623336 95.750739 47.192495 96.170323 47.61208 
C 96.589908 48.031665 97.159067 48.267418 97.752449 48.267418 
z
" clip-path="url(#p145399dbeb)" style="stroke: #000000"/>
    <path d="M 114.729221 123.540651 
C 115.265236 123.540651 115.779368 123.32769 116.158388 122.948671 
C 116.537407 122.569651 116.750368 122.055519 116.750368 121.519504 
C 116.750368 120.98349 116.537407 120.469357 116.158388 120.090338 
C 115.779368 119.711318 115.265236 119.498358 114.729221 119.498358 
C 114.193207 119.498358 113.679074 119.711318 113.300055 120.090338 
C 112.921035 120.469357 112.708075 120.98349 112.708075 121.519504 
C 112.708075 122.055519 112.921035 122.569651 113.300055 122.948671 
C 113.679074 123.32769 114.193207 123.540651 114.729221 123.540651 
z
" clip-path="url(#p145399dbeb)" style="stroke: #000000"/>
    <path d="M 113.921564 115.826883 
C 114.514946 115.826883 115.084105 115.59113 115.50369 115.171545 
C 115.923274 114.75196 116.159028 114.182802 116.159028 113.589419 
C 116.159028 112.996037 115.923274 112.426878 115.50369 112.007293 
C 115.084105 111.587708 114.514946 111.351955 113.921564 111.351955 
C 113.328181 111.351955 112.759022 111.587708 112.339437 112.007293 
C 111.919853 112.426878 111.684099 112.996037 111.684099 113.589419 
C 111.684099 114.182802 111.919853 114.75196 112.339437 115.171545 
C 112.759022 115.59113 113.328181 115.826883 113.921564 115.826883 
z
" clip-path="url(#p145399dbeb)" style="stroke: #000000"/>
    <path d="M 108.042418 100.421948 
C 108.635801 100.421948 109.204959 100.186195 109.624544 99.76661 
C 110.044129 99.347025 110.279882 98.777866 110.279882 98.184484 
C 110.279882 97.591101 110.044129 97.021942 109.624544 96.602358 
C 109.204959 96.182773 108.635801 95.947019 108.042418 95.947019 
C 107.449036 95.947019 106.879877 96.182773 106.460292 96.602358 
C 106.040707 97.021942 105.804954 97.591101 105.804954 98.184484 
C 105.804954 98.777866 106.040707 99.347025 106.460292 99.76661 
C 106.879877 100.186195 107.449036 100.421948 108.042418 100.421948 
z
" clip-path="url(#p145399dbeb)" style="stroke: #000000"/>
    <path d="M 101.898174 66.404489 
C 102.491557 66.404489 103.060716 66.168736 103.4803 65.749151 
C 103.899885 65.329566 104.135639 64.760407 104.135639 64.167025 
C 104.135639 63.573642 103.899885 63.004484 103.4803 62.584899 
C 103.060716 62.165314 102.491557 61.929561 101.898174 61.929561 
C 101.304792 61.929561 100.735633 62.165314 100.316048 62.584899 
C 99.896463 63.004484 99.66071 63.573642 99.66071 64.167025 
C 99.66071 64.760407 99.896463 65.329566 100.316048 65.749151 
C 100.735633 66.168736 101.304792 66.404489 101.898174 66.404489 
z
" clip-path="url(#p145399dbeb)" style="stroke: #000000"/>
    <path d="M 94.403569 63.482904 
C 94.939583 63.482904 95.453716 63.269943 95.832735 62.890923 
C 96.211755 62.511904 96.424715 61.997771 96.424715 61.461757 
C 96.424715 60.925743 96.211755 60.41161 95.832735 60.03259 
C 95.453716 59.653571 94.939583 59.44061 94.403569 59.44061 
C 93.867554 59.44061 93.353422 59.653571 92.974402 60.03259 
C 92.595383 60.41161 92.382422 60.925743 92.382422 61.461757 
C 92.382422 61.997771 92.595383 62.511904 92.974402 62.890923 
C 93.353422 63.269943 93.867554 63.482904 94.403569 63.482904 
z
" clip-path="url(#p145399dbeb)" style="stroke: #000000"/>
    <path d="M 86.798433 49.058134 
C 87.391816 49.058134 87.960974 48.822381 88.380559 48.402796 
C 88.800144 47.983211 89.035897 47.414053 89.035897 46.82067 
C 89.035897 46.227288 88.800144 45.658129 88.380559 45.238544 
C 87.960974 44.818959 87.391816 44.583206 86.798433 44.583206 
C 86.205051 44.583206 85.635892 44.818959 85.216307 45.238544 
C 84.796722 45.658129 84.560969 46.227288 84.560969 46.82067 
C 84.560969 47.414053 84.796722 47.983211 85.216307 48.402796 
C 85.635892 48.822381 86.205051 49.058134 86.798433 49.058134 
z
" clip-path="url(#p145399dbeb)" style="stroke: #000000"/>
    <path d="M 82.548806 29.945086 
C 83.142188 29.945086 83.711347 29.709332 84.130932 29.289748 
C 84.550517 28.870163 84.78627 28.301004 84.78627 27.707622 
C 84.78627 27.114239 84.550517 26.54508 84.130932 26.125495 
C 83.711347 25.705911 83.142188 25.470157 82.548806 25.470157 
C 81.955423 25.470157 81.386264 25.705911 80.96668 26.125495 
C 80.547095 26.54508 80.311342 27.114239 80.311342 27.707622 
C 80.311342 28.301004 80.547095 28.870163 80.96668 29.289748 
C 81.386264 29.709332 81.955423 29.945086 82.548806 29.945086 
z
" clip-path="url(#p145399dbeb)" style="stroke: #000000"/>
    <path d="M 121.668565 165.964632 
C 122.261947 165.964632 122.831106 165.728879 123.250691 165.309294 
C 123.670276 164.889709 123.906029 164.32055 123.906029 163.727168 
C 123.906029 163.133786 123.670276 162.564627 123.250691 162.145042 
C 122.831106 161.725457 122.261947 161.489704 121.668565 161.489704 
C 121.075182 161.489704 120.506023 161.725457 120.086439 162.145042 
C 119.666854 162.564627 119.431101 163.133786 119.431101 163.727168 
C 119.431101 164.32055 119.666854 164.889709 120.086439 165.309294 
C 120.506023 165.728879 121.075182 165.964632 121.668565 165.964632 
z
" clip-path="url(#p145399dbeb)" style="stroke: #000000"/>
    <path d="M 113.027495 143.726875 
C 113.620877 143.726875 114.190036 143.491121 114.609621 143.071537 
C 115.029206 142.651952 115.264959 142.082793 115.264959 141.48941 
C 115.264959 140.896028 115.029206 140.326869 114.609621 139.907284 
C 114.190036 139.4877 113.620877 139.251946 113.027495 139.251946 
C 112.434112 139.251946 111.864954 139.4877 111.445369 139.907284 
C 111.025784 140.326869 110.790031 140.896028 110.790031 141.48941 
C 110.790031 142.082793 111.025784 142.651952 111.445369 143.071537 
C 111.864954 143.491121 112.434112 143.726875 113.027495 143.726875 
z
" clip-path="url(#p145399dbeb)" style="stroke: #000000"/>
    <path d="M 112.479408 138.694475 
C 113.07279 138.694475 113.641949 138.458721 114.061534 138.039137 
C 114.481119 137.619552 114.716872 137.050393 114.716872 136.45701 
C 114.716872 135.863628 114.481119 135.294469 114.061534 134.874884 
C 113.641949 134.4553 113.07279 134.219546 112.479408 134.219546 
C 111.886025 134.219546 111.316866 134.4553 110.897282 134.874884 
C 110.477697 135.294469 110.241943 135.863628 110.241943 136.45701 
C 110.241943 137.050393 110.477697 137.619552 110.897282 138.039137 
C 111.316866 138.458721 111.886025 138.694475 112.479408 138.694475 
z
" clip-path="url(#p145399dbeb)" style="stroke: #000000"/>
    <path d="M 103.51358 124.64769 
C 104.106962 124.64769 104.676121 124.411936 105.095706 123.992351 
C 105.515291 123.572767 105.751044 123.003608 105.751044 122.410225 
C 105.751044 121.816843 105.515291 121.247684 105.095706 120.828099 
C 104.676121 120.408514 104.106962 120.172761 103.51358 120.172761 
C 102.920197 120.172761 102.351038 120.408514 101.931454 120.828099 
C 101.511869 121.247684 101.276115 121.816843 101.276115 122.410225 
C 101.276115 123.003608 101.511869 123.572767 101.931454 123.992351 
C 102.351038 124.411936 102.920197 124.64769 103.51358 124.64769 
z
" clip-path="url(#p145399dbeb)" style="stroke: #000000"/>
    <path d="M 104.63812 113.22913 
C 105.231132 113.22913 105.799936 112.993523 106.219259 112.574201 
C 106.638582 112.154878 106.874188 111.586074 106.874188 110.993062 
C 106.874188 110.40005 106.638582 109.831246 106.219259 109.411923 
C 105.799936 108.9926 105.231132 108.756994 104.63812 108.756994 
C 104.045108 108.756994 103.476304 108.9926 103.056981 109.411923 
C 102.637658 109.831246 102.402052 110.40005 102.402052 110.993062 
C 102.402052 111.586074 102.637658 112.154878 103.056981 112.574201 
C 103.476304 112.993523 104.045108 113.22913 104.63812 113.22913 
z
" clip-path="url(#p145399dbeb)" style="stroke: #000000"/>
    <path d="M 99.943213 102.51355 
C 100.536595 102.51355 101.105754 102.277797 101.525339 101.858212 
C 101.944924 101.438627 102.180677 100.869468 102.180677 100.276086 
C 102.180677 99.682703 101.944924 99.113544 101.525339 98.69396 
C 101.105754 98.274375 100.536595 98.038622 99.943213 98.038622 
C 99.34983 98.038622 98.780672 98.274375 98.361087 98.69396 
C 97.941502 99.113544 97.705749 99.682703 97.705749 100.276086 
C 97.705749 100.869468 97.941502 101.438627 98.361087 101.858212 
C 98.780672 102.277797 99.34983 102.51355 99.943213 102.51355 
z
" clip-path="url(#p145399dbeb)" style="stroke: #000000"/>
    <path d="M 97.558267 89.428288 
C 97.964401 89.428288 98.353956 89.26693 98.641136 88.97975 
C 98.928316 88.69257 99.089674 88.303015 99.089674 87.896881 
C 99.089674 87.490747 98.928316 87.101193 98.641136 86.814013 
C 98.353956 86.526833 97.964401 86.365474 97.558267 86.365474 
C 97.152133 86.365474 96.762579 86.526833 96.475399 86.814013 
C 96.188219 87.101193 96.02686 87.490747 96.02686 87.896881 
C 96.02686 88.303015 96.188219 88.69257 96.475399 88.97975 
C 96.762579 89.26693 97.152133 89.428288 97.558267 89.428288 
z
" clip-path="url(#p145399dbeb)" style="stroke: #000000"/>
    <path d="M 92.691362 86.138234 
C 93.284374 86.138234 93.853178 85.902628 94.272501 85.483305 
C 94.691824 85.063982 94.92743 84.495179 94.92743 83.902166 
C 94.92743 83.309154 94.691824 82.740351 94.272501 82.321028 
C 93.853178 81.901705 93.284374 81.666098 92.691362 81.666098 
C 92.09835 81.666098 91.529546 81.901705 91.110223 82.321028 
C 90.6909 82.740351 90.455294 83.309154 90.455294 83.902166 
C 90.455294 84.495179 90.6909 85.063982 91.110223 85.483305 
C 91.529546 85.902628 92.09835 86.138234 92.691362 86.138234 
z
" clip-path="url(#p145399dbeb)" style="stroke: #000000"/>
    <path d="M 81.585727 39.910201 
C 82.010196 39.910201 82.417337 39.741558 82.717482 39.441413 
C 83.017626 39.141268 83.18627 38.734127 83.18627 38.309658 
C 83.18627 37.885189 83.017626 37.478048 82.717482 37.177904 
C 82.417337 36.877759 82.010196 36.709115 81.585727 36.709115 
C 81.161258 36.709115 80.754117 36.877759 80.453972 37.177904 
C 80.153827 37.478048 79.985184 37.885189 79.985184 38.309658 
C 79.985184 38.734127 80.153827 39.141268 80.453972 39.441413 
C 80.754117 39.741558 81.161258 39.910201 81.585727 39.910201 
z
" clip-path="url(#p145399dbeb)" style="stroke: #000000"/>
    <path d="M 75.546681 35.421837 
C 76.140063 35.421837 76.709222 35.186083 77.128807 34.766499 
C 77.548391 34.346914 77.784145 33.777755 77.784145 33.184373 
C 77.784145 32.59099 77.548391 32.021831 77.128807 31.602246 
C 76.709222 31.182662 76.140063 30.946908 75.546681 30.946908 
C 74.953298 30.946908 74.384139 31.182662 73.964554 31.602246 
C 73.54497 32.021831 73.309216 32.59099 73.309216 33.184373 
C 73.309216 33.777755 73.54497 34.346914 73.964554 34.766499 
C 74.384139 35.186083 74.953298 35.421837 75.546681 35.421837 
z
" clip-path="url(#p145399dbeb)" style="stroke: #000000"/>
    <path d="M 109.224553 169.628998 
C 109.596641 169.628998 109.953541 169.481166 110.216647 169.218059 
C 110.479753 168.954953 110.627586 168.598054 110.627586 168.225965 
C 110.627586 167.853876 110.479753 167.496977 110.216647 167.233871 
C 109.953541 166.970764 109.596641 166.822932 109.224553 166.822932 
C 108.852464 166.822932 108.495565 166.970764 108.232459 167.233871 
C 107.969352 167.496977 107.82152 167.853876 107.82152 168.225965 
C 107.82152 168.598054 107.969352 168.954953 108.232459 169.218059 
C 108.495565 169.481166 108.852464 169.628998 109.224553 169.628998 
z
" clip-path="url(#p145399dbeb)" style="stroke: #000000"/>
    <path d="M 106.978548 156.410804 
C 107.571931 156.410804 108.14109 156.17505 108.560674 155.755466 
C 108.980259 155.335881 109.216012 154.766722 109.216012 154.173339 
C 109.216012 153.579957 108.980259 153.010798 108.560674 152.591213 
C 108.14109 152.171629 107.571931 151.935875 106.978548 151.935875 
C 106.385166 151.935875 105.816007 152.171629 105.396422 152.591213 
C 104.976837 153.010798 104.741084 153.579957 104.741084 154.173339 
C 104.741084 154.766722 104.976837 155.335881 105.396422 155.755466 
C 105.816007 156.17505 106.385166 156.410804 106.978548 156.410804 
z
" clip-path="url(#p145399dbeb)" style="stroke: #000000"/>
    <path d="M 105.476283 146.637437 
C 106.012298 146.637437 106.52643 146.424476 106.90545 146.045457 
C 107.284469 145.666437 107.49743 145.152305 107.49743 144.61629 
C 107.49743 144.080276 107.284469 143.566143 106.90545 143.187124 
C 106.52643 142.808104 106.012298 142.595144 105.476283 142.595144 
C 104.940269 142.595144 104.426136 142.808104 104.047117 143.187124 
C 103.668097 143.566143 103.455137 144.080276 103.455137 144.61629 
C 103.455137 145.152305 103.668097 145.666437 104.047117 146.045457 
C 104.426136 146.424476 104.940269 146.637437 105.476283 146.637437 
z
" clip-path="url(#p145399dbeb)" style="stroke: #000000"/>
    <path d="M 100.839045 140.622922 
C 101.375561 140.622922 101.890174 140.409762 102.269548 140.030389 
C 102.648922 139.651015 102.862082 139.136401 102.862082 138.599886 
C 102.862082 138.06337 102.648922 137.548757 102.269548 137.169383 
C 101.890174 136.790009 101.375561 136.576849 100.839045 136.576849 
C 100.30253 136.576849 99.787916 136.790009 99.408543 137.169383 
C 99.029169 137.548757 98.816009 138.06337 98.816009 138.599886 
C 98.816009 139.136401 99.029169 139.651015 99.408543 140.030389 
C 99.787916 140.409762 100.30253 140.622922 100.839045 140.622922 
z
" clip-path="url(#p145399dbeb)" style="stroke: #000000"/>
    <path d="M 97.586046 127.429087 
C 98.011522 127.429087 98.419629 127.260043 98.720486 126.959186 
C 99.021343 126.658329 99.190386 126.250222 99.190386 125.824746 
C 99.190386 125.39927 99.021343 124.991164 98.720486 124.690307 
C 98.419629 124.38945 98.011522 124.220406 97.586046 124.220406 
C 97.16057 124.220406 96.752463 124.38945 96.451606 124.690307 
C 96.150749 124.991164 95.981706 125.39927 95.981706 125.824746 
C 95.981706 126.250222 96.150749 126.658329 96.451606 126.959186 
C 96.752463 127.260043 97.16057 127.429087 97.586046 127.429087 
z
" clip-path="url(#p145399dbeb)" style="stroke: #000000"/>
    <path d="M 92.596639 122.400255 
C 93.189651 122.400255 93.758454 122.164649 94.177777 121.745326 
C 94.5971 121.326003 94.832707 120.757199 94.832707 120.164187 
C 94.832707 119.571175 94.5971 119.002371 94.177777 118.583048 
C 93.758454 118.163725 93.189651 117.928119 92.596639 117.928119 
C 92.003626 117.928119 91.434823 118.163725 91.0155 118.583048 
C 90.596177 119.002371 90.360571 119.571175 90.360571 120.164187 
C 90.360571 120.757199 90.596177 121.326003 91.0155 121.745326 
C 91.434823 122.164649 92.003626 122.400255 92.596639 122.400255 
z
" clip-path="url(#p145399dbeb)" style="stroke: #000000"/>
    <path d="M 87.601451 106.393152 
C 88.140944 106.393152 88.658414 106.178809 89.039894 105.797329 
C 89.421373 105.41585 89.635716 104.89838 89.635716 104.358886 
C 89.635716 103.819393 89.421373 103.301923 89.039894 102.920443 
C 88.658414 102.538964 88.140944 102.324621 87.601451 102.324621 
C 87.061957 102.324621 86.544487 102.538964 86.163008 102.920443 
C 85.781528 103.301923 85.567185 103.819393 85.567185 104.358886 
C 85.567185 104.89838 85.781528 105.41585 86.163008 105.797329 
C 86.544487 106.178809 87.061957 106.393152 87.601451 106.393152 
z
" clip-path="url(#p145399dbeb)" style="stroke: #000000"/>
    <path d="M 88.774319 98.828519 
C 89.369909 98.828519 89.941185 98.591889 90.36233 98.170743 
C 90.783476 97.749598 91.020106 97.178322 91.020106 96.582732 
C 91.020106 95.987142 90.783476 95.415866 90.36233 94.99472 
C 89.941185 94.573575 89.369909 94.336945 88.774319 94.336945 
C 88.178729 94.336945 87.607453 94.573575 87.186308 94.99472 
C 86.765162 95.415866 86.528532 95.987142 86.528532 96.582732 
C 86.528532 97.178322 86.765162 97.749598 87.186308 98.170743 
C 87.607453 98.591889 88.178729 98.828519 88.774319 98.828519 
z
" clip-path="url(#p145399dbeb)" style="stroke: #000000"/>
    <path d="M 84.406385 90.106754 
C 84.999768 90.106754 85.568927 89.871 85.988512 89.451415 
C 86.408096 89.031831 86.64385 88.462672 86.64385 87.869289 
C 86.64385 87.275907 86.408096 86.706748 85.988512 86.287163 
C 85.568927 85.867579 84.999768 85.631825 84.406385 85.631825 
C 83.813003 85.631825 83.243844 85.867579 82.824259 86.287163 
C 82.404675 86.706748 82.168921 87.275907 82.168921 87.869289 
C 82.168921 88.462672 82.404675 89.031831 82.824259 89.451415 
C 83.243844 89.871 83.813003 90.106754 84.406385 90.106754 
z
" clip-path="url(#p145399dbeb)" style="stroke: #000000"/>
    <path d="M 78.667654 78.949058 
C 79.261037 78.949058 79.830196 78.713305 80.24978 78.29372 
C 80.669365 77.874135 80.905119 77.304977 80.905119 76.711594 
C 80.905119 76.118212 80.669365 75.549053 80.24978 75.129468 
C 79.830196 74.709883 79.261037 74.47413 78.667654 74.47413 
C 78.074272 74.47413 77.505113 74.709883 77.085528 75.129468 
C 76.665943 75.549053 76.43019 76.118212 76.43019 76.711594 
C 76.43019 77.304977 76.665943 77.874135 77.085528 78.29372 
C 77.505113 78.713305 78.074272 78.949058 78.667654 78.949058 
z
" clip-path="url(#p145399dbeb)" style="stroke: #000000"/>
    <path d="M 76.762915 70.681291 
C 77.356298 70.681291 77.925457 70.445538 78.345041 70.025953 
C 78.764626 69.606369 79.000379 69.03721 79.000379 68.443827 
C 79.000379 67.850445 78.764626 67.281286 78.345041 66.861701 
C 77.925457 66.442116 77.356298 66.206363 76.762915 66.206363 
C 76.169533 66.206363 75.600374 66.442116 75.180789 66.861701 
C 74.761204 67.281286 74.525451 67.850445 74.525451 68.443827 
C 74.525451 69.03721 74.761204 69.606369 75.180789 70.025953 
C 75.600374 70.445538 76.169533 70.681291 76.762915 70.681291 
z
" clip-path="url(#p145399dbeb)" style="stroke: #000000"/>
    <path d="M 70.916434 55.834218 
C 71.509817 55.834218 72.078975 55.598464 72.49856 55.178879 
C 72.918145 54.759295 73.153898 54.190136 73.153898 53.596753 
C 73.153898 53.003371 72.918145 52.434212 72.49856 52.014627 
C 72.078975 51.595042 71.509817 51.359289 70.916434 51.359289 
C 70.323052 51.359289 69.753893 51.595042 69.334308 52.014627 
C 68.914723 52.434212 68.67897 53.003371 68.67897 53.596753 
C 68.67897 54.190136 68.914723 54.759295 69.334308 55.178879 
C 69.753893 55.598464 70.323052 55.834218 70.916434 55.834218 
z
" clip-path="url(#p145399dbeb)" style="stroke: #000000"/>
    <path d="M 68.075415 46.626686 
C 68.668798 46.626686 69.237957 46.390933 69.657542 45.971348 
C 70.077126 45.551764 70.31288 44.982605 70.31288 44.389222 
C 70.31288 43.79584 70.077126 43.226681 69.657542 42.807096 
C 69.237957 42.387511 68.668798 42.151758 68.075415 42.151758 
C 67.482033 42.151758 66.912874 42.387511 66.493289 42.807096 
C 66.073705 43.226681 65.837951 43.79584 65.837951 44.389222 
C 65.837951 44.982605 66.073705 45.551764 66.493289 45.971348 
C 66.912874 46.390933 67.482033 46.626686 68.075415 46.626686 
z
" clip-path="url(#p145399dbeb)" style="stroke: #000000"/>
    <path d="M 60.748139 28.995293 
C 61.341151 28.995293 61.909955 28.759687 62.329278 28.340364 
C 62.748601 27.921041 62.984207 27.352238 62.984207 26.759225 
C 62.984207 26.166213 62.748601 25.597409 62.329278 25.178087 
C 61.909955 24.758764 61.341151 24.523157 60.748139 24.523157 
C 60.155127 24.523157 59.586323 24.758764 59.167 25.178087 
C 58.747677 25.597409 58.512071 26.166213 58.512071 26.759225 
C 58.512071 27.352238 58.747677 27.921041 59.167 28.340364 
C 59.586323 28.759687 60.155127 28.995293 60.748139 28.995293 
z
" clip-path="url(#p145399dbeb)" style="stroke: #000000"/>
    <path d="M 96.76794 176.625488 
C 97.075654 176.625488 97.370807 176.503231 97.588394 176.285644 
C 97.805981 176.068057 97.928238 175.772904 97.928238 175.46519 
C 97.928238 175.157475 97.805981 174.862322 97.588394 174.644735 
C 97.370807 174.427148 97.075654 174.304892 96.76794 174.304892 
C 96.460225 174.304892 96.165072 174.427148 95.947485 174.644735 
C 95.729898 174.862322 95.607642 175.157475 95.607642 175.46519 
C 95.607642 175.772904 95.729898 176.068057 95.947485 176.285644 
C 96.165072 176.503231 96.460225 176.625488 96.76794 176.625488 
z
" clip-path="url(#p145399dbeb)" style="stroke: #000000"/>
    <path d="M 95.180291 147.732776 
C 95.773673 147.732776 96.342832 147.497023 96.762417 147.077438 
C 97.182002 146.657854 97.417755 146.088695 97.417755 145.495312 
C 97.417755 144.90193 97.182002 144.332771 96.762417 143.913186 
C 96.342832 143.493601 95.773673 143.257848 95.180291 143.257848 
C 94.586908 143.257848 94.017749 143.493601 93.598165 143.913186 
C 93.17858 144.332771 92.942827 144.90193 92.942827 145.495312 
C 92.942827 146.088695 93.17858 146.657854 93.598165 147.077438 
C 94.017749 147.497023 94.586908 147.732776 95.180291 147.732776 
z
" clip-path="url(#p145399dbeb)" style="stroke: #000000"/>
    <path d="M 89.978833 139.879165 
C 90.571845 139.879165 91.140649 139.643558 91.559972 139.224235 
C 91.979295 138.804913 92.214901 138.236109 92.214901 137.643097 
C 92.214901 137.050084 91.979295 136.481281 91.559972 136.061958 
C 91.140649 135.642635 90.571845 135.407029 89.978833 135.407029 
C 89.385821 135.407029 88.817017 135.642635 88.397694 136.061958 
C 87.978371 136.481281 87.742765 137.050084 87.742765 137.643097 
C 87.742765 138.236109 87.978371 138.804913 88.397694 139.224235 
C 88.817017 139.643558 89.385821 139.879165 89.978833 139.879165 
z
" clip-path="url(#p145399dbeb)" style="stroke: #000000"/>
    <path d="M 84.96955 135.382781 
C 85.562932 135.382781 86.132091 135.147027 86.551676 134.727443 
C 86.971261 134.307858 87.207014 133.738699 87.207014 133.145316 
C 87.207014 132.551934 86.971261 131.982775 86.551676 131.56319 
C 86.132091 131.143606 85.562932 130.907852 84.96955 130.907852 
C 84.376167 130.907852 83.807008 131.143606 83.387424 131.56319 
C 82.967839 131.982775 82.732086 132.551934 82.732086 133.145316 
C 82.732086 133.738699 82.967839 134.307858 83.387424 134.727443 
C 83.807008 135.147027 84.376167 135.382781 84.96955 135.382781 
z
" clip-path="url(#p145399dbeb)" style="stroke: #000000"/>
    <path d="M 85.389496 119.206713 
C 85.982878 119.206713 86.552037 118.970959 86.971622 118.551375 
C 87.391207 118.13179 87.62696 117.562631 87.62696 116.969248 
C 87.62696 116.375866 87.391207 115.806707 86.971622 115.387122 
C 86.552037 114.967538 85.982878 114.731784 85.389496 114.731784 
C 84.796113 114.731784 84.226955 114.967538 83.80737 115.387122 
C 83.387785 115.806707 83.152032 116.375866 83.152032 116.969248 
C 83.152032 117.562631 83.387785 118.13179 83.80737 118.551375 
C 84.226955 118.970959 84.796113 119.206713 85.389496 119.206713 
z
" clip-path="url(#p145399dbeb)" style="stroke: #000000"/>
    <path d="M 77.772233 105.972817 
C 78.365615 105.972817 78.934774 105.737064 79.354359 105.317479 
C 79.773943 104.897894 80.009697 104.328735 80.009697 103.735353 
C 80.009697 103.141971 79.773943 102.572812 79.354359 102.153227 
C 78.934774 101.733642 78.365615 101.497889 77.772233 101.497889 
C 77.17885 101.497889 76.609691 101.733642 76.190106 102.153227 
C 75.770522 102.572812 75.534768 103.141971 75.534768 103.735353 
C 75.534768 104.328735 75.770522 104.897894 76.190106 105.317479 
C 76.609691 105.737064 77.17885 105.972817 77.772233 105.972817 
z
" clip-path="url(#p145399dbeb)" style="stroke: #000000"/>
    <path d="M 74.739492 100.562895 
C 75.332875 100.562895 75.902034 100.327142 76.321618 99.907557 
C 76.741203 99.487973 76.976956 98.918814 76.976956 98.325431 
C 76.976956 97.732049 76.741203 97.16289 76.321618 96.743305 
C 75.902034 96.32372 75.332875 96.087967 74.739492 96.087967 
C 74.14611 96.087967 73.576951 96.32372 73.157366 96.743305 
C 72.737781 97.16289 72.502028 97.732049 72.502028 98.325431 
C 72.502028 98.918814 72.737781 99.487973 73.157366 99.907557 
C 73.576951 100.327142 74.14611 100.562895 74.739492 100.562895 
z
" clip-path="url(#p145399dbeb)" style="stroke: #000000"/>
    <path d="M 66.839557 91.798474 
C 67.3877 91.798474 67.913467 91.580695 68.301063 91.193098 
C 68.688659 90.805502 68.906439 90.279736 68.906439 89.731592 
C 68.906439 89.183449 68.688659 88.657682 68.301063 88.270086 
C 67.913467 87.88249 67.3877 87.66471 66.839557 87.66471 
C 66.291413 87.66471 65.765646 87.88249 65.37805 88.270086 
C 64.990454 88.657682 64.772675 89.183449 64.772675 89.731592 
C 64.772675 90.279736 64.990454 90.805502 65.37805 91.193098 
C 65.765646 91.580695 66.291413 91.798474 66.839557 91.798474 
z
" clip-path="url(#p145399dbeb)" style="stroke: #000000"/>
    <path d="M 62.771273 85.186236 
C 63.364656 85.186236 63.933815 84.950483 64.353399 84.530898 
C 64.772984 84.111313 65.008737 83.542154 65.008737 82.948772 
C 65.008737 82.355389 64.772984 81.786231 64.353399 81.366646 
C 63.933815 80.947061 63.364656 80.711308 62.771273 80.711308 
C 62.177891 80.711308 61.608732 80.947061 61.189147 81.366646 
C 60.769562 81.786231 60.533809 82.355389 60.533809 82.948772 
C 60.533809 83.542154 60.769562 84.111313 61.189147 84.530898 
C 61.608732 84.950483 62.177891 85.186236 62.771273 85.186236 
z
" clip-path="url(#p145399dbeb)" style="stroke: #000000"/>
    <path d="M 57.223293 59.806771 
C 57.816675 59.806771 58.385834 59.571018 58.805419 59.151433 
C 59.225004 58.731849 59.460757 58.16269 59.460757 57.569307 
C 59.460757 56.975925 59.225004 56.406766 58.805419 55.987181 
C 58.385834 55.567596 57.816675 55.331843 57.223293 55.331843 
C 56.62991 55.331843 56.060751 55.567596 55.641167 55.987181 
C 55.221582 56.406766 54.985829 56.975925 54.985829 57.569307 
C 54.985829 58.16269 55.221582 58.731849 55.641167 59.151433 
C 56.060751 59.571018 56.62991 59.806771 57.223293 59.806771 
z
" clip-path="url(#p145399dbeb)" style="stroke: #000000"/>
    <path d="M 53.626637 41.794436 
C 54.220019 41.794436 54.789178 41.558683 55.208763 41.139098 
C 55.628348 40.719514 55.864101 40.150355 55.864101 39.556972 
C 55.864101 38.96359 55.628348 38.394431 55.208763 37.974846 
C 54.789178 37.555261 54.220019 37.319508 53.626637 37.319508 
C 53.033255 37.319508 52.464096 37.555261 52.044511 37.974846 
C 51.624926 38.394431 51.389173 38.96359 51.389173 39.556972 
C 51.389173 40.150355 51.624926 40.719514 52.044511 41.139098 
C 52.464096 41.558683 53.033255 41.794436 53.626637 41.794436 
z
" clip-path="url(#p145399dbeb)" style="stroke: #000000"/>
    <path d="M 90.401776 177.978602 
C 90.995159 177.978602 91.564318 177.742849 91.983902 177.323264 
C 92.403487 176.90368 92.63924 176.334521 92.63924 175.741138 
C 92.63924 175.147756 92.403487 174.578597 91.983902 174.159012 
C 91.564318 173.739427 90.995159 173.503674 90.401776 173.503674 
C 89.808394 173.503674 89.239235 173.739427 88.81965 174.159012 
C 88.400065 174.578597 88.164312 175.147756 88.164312 175.741138 
C 88.164312 176.334521 88.400065 176.90368 88.81965 177.323264 
C 89.239235 177.742849 89.808394 177.978602 90.401776 177.978602 
z
" clip-path="url(#p145399dbeb)" style="stroke: #000000"/>
    <path d="M 83.661661 170.229199 
C 84.255043 170.229199 84.824202 169.993446 85.243787 169.573861 
C 85.663372 169.154276 85.899125 168.585117 85.899125 167.991735 
C 85.899125 167.398352 85.663372 166.829193 85.243787 166.409609 
C 84.824202 165.990024 84.255043 165.754271 83.661661 165.754271 
C 83.068278 165.754271 82.49912 165.990024 82.079535 166.409609 
C 81.65995 166.829193 81.424197 167.398352 81.424197 167.991735 
C 81.424197 168.585117 81.65995 169.154276 82.079535 169.573861 
C 82.49912 169.993446 83.068278 170.229199 83.661661 170.229199 
z
" clip-path="url(#p145399dbeb)" style="stroke: #000000"/>
    <path d="M 79.882519 144.357239 
C 80.475902 144.357239 81.045061 144.121486 81.464646 143.701901 
C 81.88423 143.282316 82.119984 142.713158 82.119984 142.119775 
C 82.119984 141.526393 81.88423 140.957234 81.464646 140.537649 
C 81.045061 140.118064 80.475902 139.882311 79.882519 139.882311 
C 79.289137 139.882311 78.719978 140.118064 78.300393 140.537649 
C 77.880809 140.957234 77.645055 141.526393 77.645055 142.119775 
C 77.645055 142.713158 77.880809 143.282316 78.300393 143.701901 
C 78.719978 144.121486 79.289137 144.357239 79.882519 144.357239 
z
" clip-path="url(#p145399dbeb)" style="stroke: #000000"/>
    <path d="M 76.595005 136.231666 
C 77.134499 136.231666 77.651969 136.017323 78.033448 135.635844 
C 78.414928 135.254364 78.629271 134.736894 78.629271 134.197401 
C 78.629271 133.657907 78.414928 133.140437 78.033448 132.758958 
C 77.651969 132.377478 77.134499 132.163135 76.595005 132.163135 
C 76.055512 132.163135 75.538042 132.377478 75.156562 132.758958 
C 74.775083 133.140437 74.56074 133.657907 74.56074 134.197401 
C 74.56074 134.736894 74.775083 135.254364 75.156562 135.635844 
C 75.538042 136.017323 76.055512 136.231666 76.595005 136.231666 
z
" clip-path="url(#p145399dbeb)" style="stroke: #000000"/>
    <path d="M 72.181078 120.78282 
C 72.77446 120.78282 73.343619 120.547066 73.763204 120.127482 
C 74.182789 119.707897 74.418542 119.138738 74.418542 118.545356 
C 74.418542 117.951973 74.182789 117.382814 73.763204 116.963229 
C 73.343619 116.543645 72.77446 116.307891 72.181078 116.307891 
C 71.587695 116.307891 71.018536 116.543645 70.598952 116.963229 
C 70.179367 117.382814 69.943614 117.951973 69.943614 118.545356 
C 69.943614 119.138738 70.179367 119.707897 70.598952 120.127482 
C 71.018536 120.547066 71.587695 120.78282 72.181078 120.78282 
z
" clip-path="url(#p145399dbeb)" style="stroke: #000000"/>
    <path d="M 70.839412 114.719148 
C 71.432794 114.719148 72.001953 114.483395 72.421538 114.06381 
C 72.841122 113.644226 73.076876 113.075067 73.076876 112.481684 
C 73.076876 111.888302 72.841122 111.319143 72.421538 110.899558 
C 72.001953 110.479973 71.432794 110.24422 70.839412 110.24422 
C 70.246029 110.24422 69.67687 110.479973 69.257285 110.899558 
C 68.837701 111.319143 68.601947 111.888302 68.601947 112.481684 
C 68.601947 113.075067 68.837701 113.644226 69.257285 114.06381 
C 69.67687 114.483395 70.246029 114.719148 70.839412 114.719148 
z
" clip-path="url(#p145399dbeb)" style="stroke: #000000"/>
    <path d="M 66.459153 104.352791 
C 67.052535 104.352791 67.621694 104.117038 68.041279 103.697453 
C 68.460864 103.277869 68.696617 102.70871 68.696617 102.115327 
C 68.696617 101.521945 68.460864 100.952786 68.041279 100.533201 
C 67.621694 100.113616 67.052535 99.877863 66.459153 99.877863 
C 65.86577 99.877863 65.296611 100.113616 64.877027 100.533201 
C 64.457442 100.952786 64.221688 101.521945 64.221688 102.115327 
C 64.221688 102.70871 64.457442 103.277869 64.877027 103.697453 
C 65.296611 104.117038 65.86577 104.352791 66.459153 104.352791 
z
" clip-path="url(#p145399dbeb)" style="stroke: #000000"/>
    <path d="M 60.034744 98.510057 
C 60.739958 98.510057 61.416384 98.229873 61.915046 97.731211 
C 62.413707 97.232549 62.693892 96.556123 62.693892 95.850909 
C 62.693892 95.145695 62.413707 94.469269 61.915046 93.970608 
C 61.416384 93.471946 60.739958 93.191761 60.034744 93.191761 
C 59.32953 93.191761 58.653104 93.471946 58.154443 93.970608 
C 57.655781 94.469269 57.375596 95.145695 57.375596 95.850909 
C 57.375596 96.556123 57.655781 97.232549 58.154443 97.731211 
C 58.653104 98.229873 59.32953 98.510057 60.034744 98.510057 
z
" clip-path="url(#p145399dbeb)" style="stroke: #000000"/>
    <path d="M 55.184127 87.2912 
C 55.645847 87.2912 56.088717 87.107757 56.415202 86.781272 
C 56.741687 86.454788 56.92513 86.011917 56.92513 85.550198 
C 56.92513 85.088479 56.741687 84.645608 56.415202 84.319123 
C 56.088717 83.992638 55.645847 83.809196 55.184127 83.809196 
C 54.722408 83.809196 54.279538 83.992638 53.953053 84.319123 
C 53.626568 84.645608 53.443125 85.088479 53.443125 85.550198 
C 53.443125 86.011917 53.626568 86.454788 53.953053 86.781272 
C 54.279538 87.107757 54.722408 87.2912 55.184127 87.2912 
z
" clip-path="url(#p145399dbeb)" style="stroke: #000000"/>
    <path d="M 52.601925 72.529185 
C 53.195307 72.529185 53.764466 72.293432 54.184051 71.873847 
C 54.603636 71.454263 54.839389 70.885104 54.839389 70.291721 
C 54.839389 69.698339 54.603636 69.12918 54.184051 68.709595 
C 53.764466 68.29001 53.195307 68.054257 52.601925 68.054257 
C 52.008543 68.054257 51.439384 68.29001 51.019799 68.709595 
C 50.600214 69.12918 50.364461 69.698339 50.364461 70.291721 
C 50.364461 70.885104 50.600214 71.454263 51.019799 71.873847 
C 51.439384 72.293432 52.008543 72.529185 52.601925 72.529185 
z
" clip-path="url(#p145399dbeb)" style="stroke: #000000"/>
    <path d="M 50.522974 63.748956 
C 51.116357 63.748956 51.685516 63.513203 52.1051 63.093618 
C 52.524685 62.674033 52.760439 62.104875 52.760439 61.511492 
C 52.760439 60.91811 52.524685 60.348951 52.1051 59.929366 
C 51.685516 59.509781 51.116357 59.274028 50.522974 59.274028 
C 49.929592 59.274028 49.360433 59.509781 48.940848 59.929366 
C 48.521263 60.348951 48.28551 60.91811 48.28551 61.511492 
C 48.28551 62.104875 48.521263 62.674033 48.940848 63.093618 
C 49.360433 63.513203 49.929592 63.748956 50.522974 63.748956 
z
" clip-path="url(#p145399dbeb)" style="stroke: #000000"/>
    <path d="M 52.48212 54.628034 
C 53.075502 54.628034 53.644661 54.39228 54.064246 53.972696 
C 54.483831 53.553111 54.719584 52.983952 54.719584 52.390569 
C 54.719584 51.797187 54.483831 51.228028 54.064246 50.808443 
C 53.644661 50.388859 53.075502 50.153105 52.48212 50.153105 
C 51.888737 50.153105 51.319578 50.388859 50.899994 50.808443 
C 50.480409 51.228028 50.244656 51.797187 50.244656 52.390569 
C 50.244656 52.983952 50.480409 53.553111 50.899994 53.972696 
C 51.319578 54.39228 51.888737 54.628034 52.48212 54.628034 
z
" clip-path="url(#p145399dbeb)" style="stroke: #000000"/>
    <path d="M 77.804483 169.458077 
C 78.397866 169.458077 78.967025 169.222324 79.386609 168.802739 
C 79.806194 168.383154 80.041947 167.813995 80.041947 167.220613 
C 80.041947 166.62723 79.806194 166.058071 79.386609 165.638487 
C 78.967025 165.218902 78.397866 164.983149 77.804483 164.983149 
C 77.211101 164.983149 76.641942 165.218902 76.222357 165.638487 
C 75.802772 166.058071 75.567019 166.62723 75.567019 167.220613 
C 75.567019 167.813995 75.802772 168.383154 76.222357 168.802739 
C 76.641942 169.222324 77.211101 169.458077 77.804483 169.458077 
z
" clip-path="url(#p145399dbeb)" style="stroke: #000000"/>
    <path d="M 75.304906 157.562578 
C 75.898289 157.562578 76.467447 157.326824 76.887032 156.907239 
C 77.306617 156.487655 77.54237 155.918496 77.54237 155.325113 
C 77.54237 154.731731 77.306617 154.162572 76.887032 153.742987 
C 76.467447 153.323402 75.898289 153.087649 75.304906 153.087649 
C 74.711524 153.087649 74.142365 153.323402 73.72278 153.742987 
C 73.303195 154.162572 73.067442 154.731731 73.067442 155.325113 
C 73.067442 155.918496 73.303195 156.487655 73.72278 156.907239 
C 74.142365 157.326824 74.711524 157.562578 75.304906 157.562578 
z
" clip-path="url(#p145399dbeb)" style="stroke: #000000"/>
    <path d="M 69.843737 149.403128 
C 70.437119 149.403128 71.006278 149.167374 71.425863 148.74779 
C 71.845448 148.328205 72.081201 147.759046 72.081201 147.165663 
C 72.081201 146.572281 71.845448 146.003122 71.425863 145.583537 
C 71.006278 145.163953 70.437119 144.928199 69.843737 144.928199 
C 69.250354 144.928199 68.681196 145.163953 68.261611 145.583537 
C 67.842026 146.003122 67.606273 146.572281 67.606273 147.165663 
C 67.606273 147.759046 67.842026 148.328205 68.261611 148.74779 
C 68.681196 149.167374 69.250354 149.403128 69.843737 149.403128 
z
" clip-path="url(#p145399dbeb)" style="stroke: #000000"/>
    <path d="M 65.513482 141.881312 
C 65.821197 141.881312 66.116349 141.759056 66.333937 141.541468 
C 66.551524 141.323881 66.67378 141.028729 66.67378 140.721014 
C 66.67378 140.413299 66.551524 140.118147 66.333937 139.900559 
C 66.116349 139.682972 65.821197 139.560716 65.513482 139.560716 
C 65.205767 139.560716 64.910615 139.682972 64.693028 139.900559 
C 64.47544 140.118147 64.353184 140.413299 64.353184 140.721014 
C 64.353184 141.028729 64.47544 141.323881 64.693028 141.541468 
C 64.910615 141.759056 65.205767 141.881312 65.513482 141.881312 
z
" clip-path="url(#p145399dbeb)" style="stroke: #000000"/>
    <path d="M 57.786031 128.630018 
C 58.379044 128.630018 58.947847 128.394412 59.36717 127.975089 
C 59.786493 127.555766 60.022099 126.986962 60.022099 126.39395 
C 60.022099 125.800938 59.786493 125.232134 59.36717 124.812811 
C 58.947847 124.393488 58.379044 124.157882 57.786031 124.157882 
C 57.193019 124.157882 56.624215 124.393488 56.204893 124.812811 
C 55.78557 125.232134 55.549963 125.800938 55.549963 126.39395 
C 55.549963 126.986962 55.78557 127.555766 56.204893 127.975089 
C 56.624215 128.394412 57.193019 128.630018 57.786031 128.630018 
z
" clip-path="url(#p145399dbeb)" style="stroke: #000000"/>
    <path d="M 57.367322 116.597963 
C 57.916402 116.597963 58.443067 116.379811 58.831325 115.991553 
C 59.219583 115.603295 59.437734 115.07663 59.437734 114.52755 
C 59.437734 113.97847 59.219583 113.451806 58.831325 113.063548 
C 58.443067 112.67529 57.916402 112.457138 57.367322 112.457138 
C 56.818242 112.457138 56.291578 112.67529 55.90332 113.063548 
C 55.515062 113.451806 55.29691 113.97847 55.29691 114.52755 
C 55.29691 115.07663 55.515062 115.603295 55.90332 115.991553 
C 56.291578 116.379811 56.818242 116.597963 57.367322 116.597963 
z
" clip-path="url(#p145399dbeb)" style="stroke: #000000"/>
    <path d="M 53.730407 107.558446 
C 54.323789 107.558446 54.892948 107.322693 55.312533 106.903108 
C 55.732118 106.483523 55.967871 105.914364 55.967871 105.320982 
C 55.967871 104.727599 55.732118 104.15844 55.312533 103.738856 
C 54.892948 103.319271 54.323789 103.083518 53.730407 103.083518 
C 53.137024 103.083518 52.567865 103.319271 52.148281 103.738856 
C 51.728696 104.15844 51.492943 104.727599 51.492943 105.320982 
C 51.492943 105.914364 51.728696 106.483523 52.148281 106.903108 
C 52.567865 107.322693 53.137024 107.558446 53.730407 107.558446 
z
" clip-path="url(#p145399dbeb)" style="stroke: #000000"/>
    <path d="M 50.585797 96.755019 
C 51.179179 96.755019 51.748338 96.519265 52.167923 96.099681 
C 52.587508 95.680096 52.823261 95.110937 52.823261 94.517555 
C 52.823261 93.924172 52.587508 93.355013 52.167923 92.935428 
C 51.748338 92.515844 51.179179 92.28009 50.585797 92.28009 
C 49.992414 92.28009 49.423256 92.515844 49.003671 92.935428 
C 48.584086 93.355013 48.348333 93.924172 48.348333 94.517555 
C 48.348333 95.110937 48.584086 95.680096 49.003671 96.099681 
C 49.423256 96.519265 49.992414 96.755019 50.585797 96.755019 
z
" clip-path="url(#p145399dbeb)" style="stroke: #000000"/>
    <path d="M 44.593882 87.979705 
C 45.131893 87.979705 45.64794 87.765951 46.028371 87.38552 
C 46.408802 87.005089 46.622556 86.489042 46.622556 85.951031 
C 46.622556 85.41302 46.408802 84.896972 46.028371 84.516541 
C 45.64794 84.13611 45.131893 83.922356 44.593882 83.922356 
C 44.055871 83.922356 43.539824 84.13611 43.159393 84.516541 
C 42.778962 84.896972 42.565208 85.41302 42.565208 85.951031 
C 42.565208 86.489042 42.778962 87.005089 43.159393 87.38552 
C 43.539824 87.765951 44.055871 87.979705 44.593882 87.979705 
z
" clip-path="url(#p145399dbeb)" style="stroke: #000000"/>
    <path d="M 40.859559 75.433536 
C 41.395573 75.433536 41.909706 75.220575 42.288725 74.841555 
C 42.667745 74.462536 42.880705 73.948403 42.880705 73.412389 
C 42.880705 72.876375 42.667745 72.362242 42.288725 71.983222 
C 41.909706 71.604203 41.395573 71.391242 40.859559 71.391242 
C 40.323544 71.391242 39.809412 71.604203 39.430392 71.983222 
C 39.051373 72.362242 38.838412 72.876375 38.838412 73.412389 
C 38.838412 73.948403 39.051373 74.462536 39.430392 74.841555 
C 39.809412 75.220575 40.323544 75.433536 40.859559 75.433536 
z
" clip-path="url(#p145399dbeb)" style="stroke: #000000"/>
    <path d="M 38.967174 68.710578 
C 39.502686 68.710578 40.016337 68.497817 40.395001 68.119153 
C 40.773665 67.740489 40.986426 67.226838 40.986426 66.691327 
C 40.986426 66.155815 40.773665 65.642164 40.395001 65.2635 
C 40.016337 64.884836 39.502686 64.672075 38.967174 64.672075 
C 38.431663 64.672075 37.918012 64.884836 37.539348 65.2635 
C 37.160684 65.642164 36.947923 66.155815 36.947923 66.691327 
C 36.947923 67.226838 37.160684 67.740489 37.539348 68.119153 
C 37.918012 68.497817 38.431663 68.710578 38.967174 68.710578 
z
" clip-path="url(#p145399dbeb)" style="stroke: #000000"/>
    <path d="M 62.620334 156.264824 
C 63.156348 156.264824 63.670481 156.051863 64.049501 155.672844 
C 64.42852 155.293825 64.641481 154.779692 64.641481 154.243677 
C 64.641481 153.707663 64.42852 153.19353 64.049501 152.814511 
C 63.670481 152.435492 63.156348 152.222531 62.620334 152.222531 
C 62.08432 152.222531 61.570187 152.435492 61.191168 152.814511 
C 60.812148 153.19353 60.599188 153.707663 60.599188 154.243677 
C 60.599188 154.779692 60.812148 155.293825 61.191168 155.672844 
C 61.570187 156.051863 62.08432 156.264824 62.620334 156.264824 
z
" clip-path="url(#p145399dbeb)" style="stroke: #000000"/>
    <path d="M 55.477896 149.300813 
C 56.071279 149.300813 56.640438 149.06506 57.060023 148.645475 
C 57.479607 148.22589 57.715361 147.656731 57.715361 147.063349 
C 57.715361 146.469967 57.479607 145.900808 57.060023 145.481223 
C 56.640438 145.061638 56.071279 144.825885 55.477896 144.825885 
C 54.884514 144.825885 54.315355 145.061638 53.89577 145.481223 
C 53.476186 145.900808 53.240432 146.469967 53.240432 147.063349 
C 53.240432 147.656731 53.476186 148.22589 53.89577 148.645475 
C 54.315355 149.06506 54.884514 149.300813 55.477896 149.300813 
z
" clip-path="url(#p145399dbeb)" style="stroke: #000000"/>
    <path d="M 50.604186 134.227411 
C 51.197569 134.227411 51.766728 133.991658 52.186312 133.572073 
C 52.605897 133.152488 52.841651 132.583329 52.841651 131.989947 
C 52.841651 131.396564 52.605897 130.827405 52.186312 130.407821 
C 51.766728 129.988236 51.197569 129.752483 50.604186 129.752483 
C 50.010804 129.752483 49.441645 129.988236 49.02206 130.407821 
C 48.602475 130.827405 48.366722 131.396564 48.366722 131.989947 
C 48.366722 132.583329 48.602475 133.152488 49.02206 133.572073 
C 49.441645 133.991658 50.010804 134.227411 50.604186 134.227411 
z
" clip-path="url(#p145399dbeb)" style="stroke: #000000"/>
    <path d="M 48.89999 122.887099 
C 49.493372 122.887099 50.062531 122.651345 50.482116 122.231761 
C 50.901701 121.812176 51.137454 121.243017 51.137454 120.649635 
C 51.137454 120.056252 50.901701 119.487093 50.482116 119.067508 
C 50.062531 118.647924 49.493372 118.41217 48.89999 118.41217 
C 48.306608 118.41217 47.737449 118.647924 47.317864 119.067508 
C 46.898279 119.487093 46.662526 120.056252 46.662526 120.649635 
C 46.662526 121.243017 46.898279 121.812176 47.317864 122.231761 
C 47.737449 122.651345 48.306608 122.887099 48.89999 122.887099 
z
" clip-path="url(#p145399dbeb)" style="stroke: #000000"/>
    <path d="M 42.849747 109.907772 
C 43.44313 109.907772 44.012289 109.672019 44.431873 109.252434 
C 44.851458 108.832849 45.087211 108.263691 45.087211 107.670308 
C 45.087211 107.076926 44.851458 106.507767 44.431873 106.088182 
C 44.012289 105.668597 43.44313 105.432844 42.849747 105.432844 
C 42.256365 105.432844 41.687206 105.668597 41.267621 106.088182 
C 40.848036 106.507767 40.612283 107.076926 40.612283 107.670308 
C 40.612283 108.263691 40.848036 108.832849 41.267621 109.252434 
C 41.687206 109.672019 42.256365 109.907772 42.849747 109.907772 
z
" clip-path="url(#p145399dbeb)" style="stroke: #000000"/>
    <path d="M 40.461238 99.732965 
C 40.668771 99.732965 40.867831 99.650511 41.014579 99.503764 
C 41.161327 99.357016 41.24378 99.157955 41.24378 98.950423 
C 41.24378 98.74289 41.161327 98.543829 41.014579 98.397082 
C 40.867831 98.250334 40.668771 98.16788 40.461238 98.16788 
C 40.253705 98.16788 40.054645 98.250334 39.907897 98.397082 
C 39.761149 98.543829 39.678696 98.74289 39.678696 98.950423 
C 39.678696 99.157955 39.761149 99.357016 39.907897 99.503764 
C 40.054645 99.650511 40.253705 99.732965 40.461238 99.732965 
z
" clip-path="url(#p145399dbeb)" style="stroke: #000000"/>
    <path d="M 33.272655 82.069422 
C 33.866037 82.069422 34.435196 81.833669 34.854781 81.414084 
C 35.274366 80.994499 35.510119 80.42534 35.510119 79.831958 
C 35.510119 79.238575 35.274366 78.669417 34.854781 78.249832 
C 34.435196 77.830247 33.866037 77.594494 33.272655 77.594494 
C 32.679273 77.594494 32.110114 77.830247 31.690529 78.249832 
C 31.270944 78.669417 31.035191 79.238575 31.035191 79.831958 
C 31.035191 80.42534 31.270944 80.994499 31.690529 81.414084 
C 32.110114 81.833669 32.679273 82.069422 33.272655 82.069422 
z
" clip-path="url(#p145399dbeb)" style="stroke: #000000"/>
    <path d="M 44.545117 168.837225 
C 45.138499 168.837225 45.707658 168.601472 46.127243 168.181887 
C 46.546827 167.762303 46.782581 167.193144 46.782581 166.599761 
C 46.782581 166.006379 46.546827 165.43722 46.127243 165.017635 
C 45.707658 164.59805 45.138499 164.362297 44.545117 164.362297 
C 43.951734 164.362297 43.382575 164.59805 42.96299 165.017635 
C 42.543406 165.43722 42.307652 166.006379 42.307652 166.599761 
C 42.307652 167.193144 42.543406 167.762303 42.96299 168.181887 
C 43.382575 168.601472 43.951734 168.837225 44.545117 168.837225 
z
" clip-path="url(#p145399dbeb)" style="stroke: #000000"/>
    <path d="M 42.817539 154.941885 
C 43.410921 154.941885 43.98008 154.706132 44.399665 154.286547 
C 44.81925 153.866962 45.055003 153.297804 45.055003 152.704421 
C 45.055003 152.111039 44.81925 151.54188 44.399665 151.122295 
C 43.98008 150.70271 43.410921 150.466957 42.817539 150.466957 
C 42.224156 150.466957 41.654997 150.70271 41.235413 151.122295 
C 40.815828 151.54188 40.580075 152.111039 40.580075 152.704421 
C 40.580075 153.297804 40.815828 153.866962 41.235413 154.286547 
C 41.654997 154.706132 42.224156 154.941885 42.817539 154.941885 
z
" clip-path="url(#p145399dbeb)" style="stroke: #000000"/>
    <path d="M 40.527829 148.921794 
C 41.121211 148.921794 41.69037 148.686041 42.109955 148.266456 
C 42.529539 147.846871 42.765293 147.277712 42.765293 146.68433 
C 42.765293 146.090947 42.529539 145.521788 42.109955 145.102204 
C 41.69037 144.682619 41.121211 144.446866 40.527829 144.446866 
C 39.934446 144.446866 39.365287 144.682619 38.945702 145.102204 
C 38.526118 145.521788 38.290364 146.090947 38.290364 146.68433 
C 38.290364 147.277712 38.526118 147.846871 38.945702 148.266456 
C 39.365287 148.686041 39.934446 148.921794 40.527829 148.921794 
z
" clip-path="url(#p145399dbeb)" style="stroke: #000000"/>
    <path d="M 33.712716 115.189366 
C 34.24873 115.189366 34.762863 114.976406 35.141883 114.597386 
C 35.520902 114.218367 35.733863 113.704234 35.733863 113.16822 
C 35.733863 112.632205 35.520902 112.118073 35.141883 111.739053 
C 34.762863 111.360034 34.24873 111.147073 33.712716 111.147073 
C 33.176702 111.147073 32.662569 111.360034 32.28355 111.739053 
C 31.90453 112.118073 31.691569 112.632205 31.691569 113.16822 
C 31.691569 113.704234 31.90453 114.218367 32.28355 114.597386 
C 32.662569 114.976406 33.176702 115.189366 33.712716 115.189366 
z
" clip-path="url(#p145399dbeb)" style="stroke: #000000"/>
    <path d="M 36.989783 169.785841 
C 37.401567 169.785841 37.796541 169.622237 38.087716 169.331062 
C 38.378891 169.039887 38.542494 168.644913 38.542494 168.23313 
C 38.542494 167.821346 38.378891 167.426372 38.087716 167.135197 
C 37.796541 166.844022 37.401567 166.680418 36.989783 166.680418 
C 36.577999 166.680418 36.183026 166.844022 35.89185 167.135197 
C 35.600675 167.426372 35.437072 167.821346 35.437072 168.23313 
C 35.437072 168.644913 35.600675 169.039887 35.89185 169.331062 
C 36.183026 169.622237 36.577999 169.785841 36.989783 169.785841 
z
" clip-path="url(#p145399dbeb)" style="stroke: #000000"/>
    <path d="M 40.04136 160.09005 
C 40.634742 160.09005 41.203901 159.854297 41.623486 159.434712 
C 42.043071 159.015128 42.278824 158.445969 42.278824 157.852586 
C 42.278824 157.259204 42.043071 156.690045 41.623486 156.27046 
C 41.203901 155.850875 40.634742 155.615122 40.04136 155.615122 
C 39.447977 155.615122 38.878818 155.850875 38.459234 156.27046 
C 38.039649 156.690045 37.803896 157.259204 37.803896 157.852586 
C 37.803896 158.445969 38.039649 159.015128 38.459234 159.434712 
C 38.878818 159.854297 39.447977 160.09005 40.04136 160.09005 
z
" clip-path="url(#p145399dbeb)" style="stroke: #000000"/>
   </g>
   <g id="matplotlib.axis_1">
    <g id="xtick_1">
     <g id="line2d_1">
      <defs>
       <path id="md9d6bf58cd" d="M 0 0 
L 0 3.5 
" style="stroke: #000000; stroke-width: 0.8"/>
      </defs>
      <g>
       <use xlink:href="#md9d6bf58cd" x="18" y="189" style="stroke: #000000; stroke-width: 0.8"/>
      </g>
     </g>
     <g id="text_1">
      <!-- 10 -->
      <g transform="translate(7.447656 203.598437)scale(0.1 -0.1)">
       <defs>
        <path id="DejaVuSans-2212" d="M 678 2272 
L 4684 2272 
L 4684 1741 
L 678 1741 
L 678 2272 
z
" transform="scale(0.015625)"/>
        <path id="DejaVuSans-31" d="M 794 531 
L 1825 531 
L 1825 4091 
L 703 3866 
L 703 4441 
L 1819 4666 
L 2450 4666 
L 2450 531 
L 3481 531 
L 3481 0 
L 794 0 
L 794 531 
z
" transform="scale(0.015625)"/>
        <path id="DejaVuSans-30" d="M 2034 4250 
Q 1547 4250 1301 3770 
Q 1056 3291 1056 2328 
Q 1056 1369 1301 889 
Q 1547 409 2034 409 
Q 2525 409 2770 889 
Q 3016 1369 3016 2328 
Q 3016 3291 2770 3770 
Q 2525 4250 2034 4250 
z
M 2034 4750 
Q 2819 4750 3233 4129 
Q 3647 3509 3647 2328 
Q 3647 1150 3233 529 
Q 2819 -91 2034 -91 
Q 1250 -91 836 529 
Q 422 1150 422 2328 
Q 422 3509 836 4129 
Q 1250 4750 2034 4750 
z
" transform="scale(0.015625)"/>
       </defs>
       <use xlink:href="#DejaVuSans-2212"/>
       <use xlink:href="#DejaVuSans-31" x="83.789062"/>
       <use xlink:href="#DejaVuSans-30" x="147.412109"/>
      </g>
     </g>
    </g>
    <g id="xtick_2">
     <g id="line2d_2">
      <g>
       <use xlink:href="#md9d6bf58cd" x="73.8" y="189" style="stroke: #000000; stroke-width: 0.8"/>
      </g>
     </g>
     <g id="text_2">
      <!-- 0 -->
      <g transform="translate(70.61875 203.598437)scale(0.1 -0.1)">
       <use xlink:href="#DejaVuSans-30"/>
      </g>
     </g>
    </g>
    <g id="xtick_3">
     <g id="line2d_3">
      <g>
       <use xlink:href="#md9d6bf58cd" x="129.6" y="189" style="stroke: #000000; stroke-width: 0.8"/>
      </g>
     </g>
     <g id="text_3">
      <!-- 10 -->
      <g transform="translate(123.2375 203.598437)scale(0.1 -0.1)">
       <use xlink:href="#DejaVuSans-31"/>
       <use xlink:href="#DejaVuSans-30" x="63.623047"/>
      </g>
     </g>
    </g>
   </g>
   <g id="matplotlib.axis_2">
    <g id="ytick_1">
     <g id="line2d_4">
      <defs>
       <path id="m190e53fcf3" d="M 0 0 
L -3.5 0 
" style="stroke: #000000; stroke-width: 0.8"/>
      </defs>
      <g>
       <use xlink:href="#m190e53fcf3" x="18" y="189" style="stroke: #000000; stroke-width: 0.8"/>
      </g>
     </g>
     <g id="text_4">
      <!-- 15 -->
      <g transform="translate(-10.104688 192.799219)scale(0.1 -0.1)">
       <defs>
        <path id="DejaVuSans-35" d="M 691 4666 
L 3169 4666 
L 3169 4134 
L 1269 4134 
L 1269 2991 
Q 1406 3038 1543 3061 
Q 1681 3084 1819 3084 
Q 2600 3084 3056 2656 
Q 3513 2228 3513 1497 
Q 3513 744 3044 326 
Q 2575 -91 1722 -91 
Q 1428 -91 1123 -41 
Q 819 9 494 109 
L 494 744 
Q 775 591 1075 516 
Q 1375 441 1709 441 
Q 2250 441 2565 725 
Q 2881 1009 2881 1497 
Q 2881 1984 2565 2268 
Q 2250 2553 1709 2553 
Q 1456 2553 1204 2497 
Q 953 2441 691 2322 
L 691 4666 
z
" transform="scale(0.015625)"/>
       </defs>
       <use xlink:href="#DejaVuSans-2212"/>
       <use xlink:href="#DejaVuSans-31" x="83.789062"/>
       <use xlink:href="#DejaVuSans-35" x="147.412109"/>
      </g>
     </g>
    </g>
    <g id="ytick_2">
     <g id="line2d_5">
      <g>
       <use xlink:href="#m190e53fcf3" x="18" y="161.82" style="stroke: #000000; stroke-width: 0.8"/>
      </g>
     </g>
     <g id="text_5">
      <!-- 10 -->
      <g transform="translate(-10.104688 165.619219)scale(0.1 -0.1)">
       <use xlink:href="#DejaVuSans-2212"/>
       <use xlink:href="#DejaVuSans-31" x="83.789062"/>
       <use xlink:href="#DejaVuSans-30" x="147.412109"/>
      </g>
     </g>
    </g>
    <g id="ytick_3">
     <g id="line2d_6">
      <g>
       <use xlink:href="#m190e53fcf3" x="18" y="134.64" style="stroke: #000000; stroke-width: 0.8"/>
      </g>
     </g>
     <g id="text_6">
      <!-- 5 -->
      <g transform="translate(-3.742188 138.439219)scale(0.1 -0.1)">
       <use xlink:href="#DejaVuSans-2212"/>
       <use xlink:href="#DejaVuSans-35" x="83.789062"/>
      </g>
     </g>
    </g>
    <g id="ytick_4">
     <g id="line2d_7">
      <g>
       <use xlink:href="#m190e53fcf3" x="18" y="107.46" style="stroke: #000000; stroke-width: 0.8"/>
      </g>
     </g>
     <g id="text_7">
      <!-- 0 -->
      <g transform="translate(4.6375 111.259219)scale(0.1 -0.1)">
       <use xlink:href="#DejaVuSans-30"/>
      </g>
     </g>
    </g>
    <g id="ytick_5">
     <g id="line2d_8">
      <g>
       <use xlink:href="#m190e53fcf3" x="18" y="80.28" style="stroke: #000000; stroke-width: 0.8"/>
      </g>
     </g>
     <g id="text_8">
      <!-- 5 -->
      <g transform="translate(4.6375 84.079219)scale(0.1 -0.1)">
       <use xlink:href="#DejaVuSans-35"/>
      </g>
     </g>
    </g>
    <g id="ytick_6">
     <g id="line2d_9">
      <g>
       <use xlink:href="#m190e53fcf3" x="18" y="53.1" style="stroke: #000000; stroke-width: 0.8"/>
      </g>
     </g>
     <g id="text_9">
      <!-- 10 -->
      <g transform="translate(-1.725 56.899219)scale(0.1 -0.1)">
       <use xlink:href="#DejaVuSans-31"/>
       <use xlink:href="#DejaVuSans-30" x="63.623047"/>
      </g>
     </g>
    </g>
    <g id="ytick_7">
     <g id="line2d_10">
      <g>
       <use xlink:href="#m190e53fcf3" x="18" y="25.92" style="stroke: #000000; stroke-width: 0.8"/>
      </g>
     </g>
     <g id="text_10">
      <!-- 15 -->
      <g transform="translate(-1.725 29.719219)scale(0.1 -0.1)">
       <use xlink:href="#DejaVuSans-31"/>
       <use xlink:href="#DejaVuSans-35" x="63.623047"/>
      </g>
     </g>
    </g>
   </g>
   <g id="patch_3">
    <path d="M 18 189 
L 18 25.92 
" style="fill: none; stroke: #000000; stroke-width: 0.8; stroke-linejoin: miter; stroke-linecap: square"/>
   </g>
   <g id="patch_4">
    <path d="M 129.6 189 
L 129.6 25.92 
" style="fill: none; stroke: #000000; stroke-width: 0.8; stroke-linejoin: miter; stroke-linecap: square"/>
   </g>
   <g id="patch_5">
    <path d="M 18 189 
L 129.6 189 
" style="fill: none; stroke: #000000; stroke-width: 0.8; stroke-linejoin: miter; stroke-linecap: square"/>
   </g>
   <g id="patch_6">
    <path d="M 18 25.92 
L 129.6 25.92 
" style="fill: none; stroke: #000000; stroke-width: 0.8; stroke-linejoin: miter; stroke-linecap: square"/>
   </g>
  </g>
 </g>
 <defs>
  <clipPath id="p145399dbeb">
   <rect x="18" y="25.92" width="111.6" height="163.08"/>
  </clipPath>
 </defs>
</svg>
