<?xml version="1.0" encoding="utf-8" standalone="no"?>
<!DOCTYPE svg PUBLIC "-//W3C//DTD SVG 1.1//EN"
  "http://www.w3.org/Graphics/SVG/1.1/DTD/svg11.dtd">
<svg xmlns:xlink="http://www.w3.org/1999/xlink" width="144pt" height="216pt" viewBox="0 0 144 216" xmlns="http://www.w3.org/2000/svg" version="1.1">
 <metadata>
  <rdf:RDF xmlns:dc="http://purl.org/dc/elements/1.1/" xmlns:cc="http://creativecommons.org/ns#" xmlns:rdf="http://www.w3.org/1999/02/22-rdf-syntax-ns#">
   <cc:Work>
    <dc:type rdf:resource="http://purl.org/dc/dcmitype/StillImage"/>
    <dc:date>2022-06-23T14:51:00.428364</dc:date>
    <dc:format>image/svg+xml</dc:format>
    <dc:creator>
     <cc:Agent>
      <dc:title>Matplotlib v3.5.1, https://matplotlib.org/</dc:title>
     </cc:Agent>
    </dc:creator>
   </cc:Work>
  </rdf:RDF>
 </metadata>
 <defs>
  <style type="text/css">*{stroke-linejoin: round; stroke-linecap: butt}</style>
 </defs>
 <g id="figure_1">
  <g id="patch_1">
   <path d="M 0 216 
L 144 216 
L 144 0 
L 0 0 
L 0 216 
z
" style="fill: none"/>
  </g>
  <g id="axes_1">
   <g id="patch_2">
    <path d="M 18 189 
L 129.6 189 
L 129.6 25.92 
L 18 25.92 
z
" style="fill: #ffffff"/>
   </g>
   <g id="PathCollection_1">
    <defs>
     <path id="mbd846206ff" d="M 0 2.738613 
C 0.726289 2.738613 1.422928 2.450055 1.936492 1.936492 
C 2.450055 1.422928 2.738613 0.726289 2.738613 0 
C 2.738613 -0.726289 2.450055 -1.422928 1.936492 -1.936492 
C 1.422928 -2.450055 0.726289 -2.738613 0 -2.738613 
C -0.726289 -2.738613 -1.422928 -2.450055 -1.936492 -1.936492 
C -2.450055 -1.422928 -2.738613 -0.726289 -2.738613 0 
C -2.738613 0.726289 -2.450055 1.422928 -1.936492 1.936492 
C -1.422928 2.450055 -0.726289 2.738613 0 2.738613 
z
" style="stroke: #ff0000; stroke-width: 1.75"/>
    </defs>
    <g clip-path="url(#p8e593576df)">
     <use xlink:href="#mbd846206ff" x="80.775" y="83.92143" style="fill: #ff0000; stroke: #ff0000; stroke-width: 1.75"/>
     <use xlink:href="#mbd846206ff" x="59.85" y="95.690715" style="fill: #ff0000; stroke: #ff0000; stroke-width: 1.75"/>
     <use xlink:href="#mbd846206ff" x="66.825" y="107.46" style="fill: #ff0000; stroke: #ff0000; stroke-width: 1.75"/>
     <use xlink:href="#mbd846206ff" x="80.775" y="107.46" style="fill: #ff0000; stroke: #ff0000; stroke-width: 1.75"/>
     <use xlink:href="#mbd846206ff" x="94.725" y="107.46" style="fill: #ff0000; stroke: #ff0000; stroke-width: 1.75"/>
     <use xlink:href="#mbd846206ff" x="59.85" y="119.229285" style="fill: #ff0000; stroke: #ff0000; stroke-width: 1.75"/>
     <use xlink:href="#mbd846206ff" x="80.775" y="130.99857" style="fill: #ff0000; stroke: #ff0000; stroke-width: 1.75"/>
    </g>
   </g>
   <g id="PathCollection_2">
    <defs>
     <path id="C0_0_bce6ef97f3" d="M 0 2.738613 
C 0.726289 2.738613 1.422928 2.450055 1.936492 1.936492 
C 2.450055 1.422928 2.738613 0.726289 2.738613 -0 
C 2.738613 -0.726289 2.450055 -1.422928 1.936492 -1.936492 
C 1.422928 -2.450055 0.726289 -2.738613 0 -2.738613 
C -0.726289 -2.738613 -1.422928 -2.450055 -1.936492 -1.936492 
C -2.450055 -1.422928 -2.738613 -0.726289 -2.738613 0 
C -2.738613 0.726289 -2.450055 1.422928 -1.936492 1.936492 
C -1.422928 2.450055 -0.726289 2.738613 0 2.738613 
z
"/>
    </defs>
    <g clip-path="url(#p8e593576df)">
     <use xlink:href="#C0_0_bce6ef97f3" x="66.825" y="83.92143" style="fill: none; stroke: #ff0000; stroke-width: 1.75"/>
    </g>
    <g clip-path="url(#p8e593576df)">
     <use xlink:href="#C0_0_bce6ef97f3" x="73.8" y="95.690715" style="fill: none; stroke: #ff0000; stroke-width: 1.75"/>
    </g>
    <g clip-path="url(#p8e593576df)">
     <use xlink:href="#C0_0_bce6ef97f3" x="87.75" y="95.690715" style="fill: none; stroke: #ff0000; stroke-width: 1.75"/>
    </g>
    <g clip-path="url(#p8e593576df)">
     <use xlink:href="#C0_0_bce6ef97f3" x="52.875" y="107.46" style="fill: none; stroke: #ff0000; stroke-width: 1.75"/>
    </g>
    <g clip-path="url(#p8e593576df)">
     <use xlink:href="#C0_0_bce6ef97f3" x="73.8" y="119.229285" style="fill: none; stroke: #ff0000; stroke-width: 1.75"/>
    </g>
    <g clip-path="url(#p8e593576df)">
     <use xlink:href="#C0_0_bce6ef97f3" x="87.75" y="119.229285" style="fill: none; stroke: #ff0000; stroke-width: 1.75"/>
    </g>
    <g clip-path="url(#p8e593576df)">
     <use xlink:href="#C0_0_bce6ef97f3" x="66.825" y="130.99857" style="fill: none; stroke: #ff0000; stroke-width: 1.75"/>
    </g>
   </g>
   <g id="PathCollection_3">
    <path d="M 99.687814 111.889512 
C 100.225328 111.889512 100.740899 111.675956 101.120978 111.295876 
C 101.501058 110.915796 101.714614 110.400226 101.714614 109.862712 
C 101.714614 109.325198 101.501058 108.809627 101.120978 108.429548 
C 100.740899 108.049468 100.225328 107.835912 99.687814 107.835912 
C 99.1503 107.835912 98.634729 108.049468 98.25465 108.429548 
C 97.87457 108.809627 97.661014 109.325198 97.661014 109.862712 
C 97.661014 110.400226 97.87457 110.915796 98.25465 111.295876 
C 98.634729 111.675956 99.1503 111.889512 99.687814 111.889512 
z
" clip-path="url(#p8e593576df)" style="stroke: #000000"/>
    <path d="M 100.398679 107.700044 
C 100.645479 107.700044 100.882203 107.601989 101.056716 107.427476 
C 101.23123 107.252962 101.329284 107.016238 101.329284 106.769439 
C 101.329284 106.522639 101.23123 106.285915 101.056716 106.111402 
C 100.882203 105.936888 100.645479 105.838834 100.398679 105.838834 
C 100.15188 105.838834 99.915156 105.936888 99.740642 106.111402 
C 99.566129 106.285915 99.468075 106.522639 99.468075 106.769439 
C 99.468075 107.016238 99.566129 107.252962 99.740642 107.427476 
C 99.915156 107.601989 100.15188 107.700044 100.398679 107.700044 
z
" clip-path="url(#p8e593576df)" style="stroke: #000000"/>
    <path d="M 93.1811 94.814998 
C 93.722551 94.814998 94.2419 94.599877 94.624764 94.217013 
C 95.007628 93.834149 95.222749 93.314801 95.222749 92.773349 
C 95.222749 92.231897 95.007628 91.712549 94.624764 91.329685 
C 94.2419 90.94682 93.722551 90.731699 93.1811 90.731699 
C 92.639648 90.731699 92.1203 90.94682 91.737435 91.329685 
C 91.354571 91.712549 91.13945 92.231897 91.13945 92.773349 
C 91.13945 93.314801 91.354571 93.834149 91.737435 94.217013 
C 92.1203 94.599877 92.639648 94.814998 93.1811 94.814998 
z
" clip-path="url(#p8e593576df)" style="stroke: #000000"/>
    <path d="M 97.256611 113.383766 
C 97.849623 113.383766 98.418427 113.148159 98.83775 112.728836 
C 99.257073 112.309514 99.492679 111.74071 99.492679 111.147698 
C 99.492679 110.554686 99.257073 109.985882 98.83775 109.566559 
C 98.418427 109.147236 97.849623 108.91163 97.256611 108.91163 
C 96.663599 108.91163 96.094795 109.147236 95.675472 109.566559 
C 95.256149 109.985882 95.020543 110.554686 95.020543 111.147698 
C 95.020543 111.74071 95.256149 112.309514 95.675472 112.728836 
C 96.094795 113.148159 96.663599 113.383766 97.256611 113.383766 
z
" clip-path="url(#p8e593576df)" style="stroke: #000000"/>
    <path d="M 97.191318 108.814622 
C 97.78433 108.814622 98.353134 108.579016 98.772457 108.159693 
C 99.19178 107.74037 99.427386 107.171566 99.427386 106.578554 
C 99.427386 105.985542 99.19178 105.416738 98.772457 104.997415 
C 98.353134 104.578092 97.78433 104.342486 97.191318 104.342486 
C 96.598306 104.342486 96.029502 104.578092 95.610179 104.997415 
C 95.190856 105.416738 94.95525 105.985542 94.95525 106.578554 
C 94.95525 107.171566 95.190856 107.74037 95.610179 108.159693 
C 96.029502 108.579016 96.598306 108.814622 97.191318 108.814622 
z
" clip-path="url(#p8e593576df)" style="stroke: #000000"/>
    <path d="M 93.500403 103.938709 
C 93.68793 103.938709 93.867802 103.864204 94.000403 103.731602 
C 94.133005 103.599001 94.20751 103.419129 94.20751 103.231602 
C 94.20751 103.044075 94.133005 102.864204 94.000403 102.731602 
C 93.867802 102.599001 93.68793 102.524495 93.500403 102.524495 
C 93.312876 102.524495 93.133005 102.599001 93.000403 102.731602 
C 92.867802 102.864204 92.793296 103.044075 92.793296 103.231602 
C 92.793296 103.419129 92.867802 103.599001 93.000403 103.731602 
C 93.133005 103.864204 93.312876 103.938709 93.500403 103.938709 
z
" clip-path="url(#p8e593576df)" style="stroke: #000000"/>
    <path d="M 92.056576 98.860309 
C 92.244103 98.860309 92.423975 98.785804 92.556576 98.653202 
C 92.689178 98.520601 92.763683 98.340729 92.763683 98.153202 
C 92.763683 97.965675 92.689178 97.785804 92.556576 97.653202 
C 92.423975 97.520601 92.244103 97.446096 92.056576 97.446096 
C 91.869049 97.446096 91.689178 97.520601 91.556576 97.653202 
C 91.423975 97.785804 91.349469 97.965675 91.349469 98.153202 
C 91.349469 98.340729 91.423975 98.520601 91.556576 98.653202 
C 91.689178 98.785804 91.869049 98.860309 92.056576 98.860309 
z
" clip-path="url(#p8e593576df)" style="stroke: #000000"/>
    <path d="M 91.86916 93.937397 
C 92.067445 93.937397 92.257636 93.858618 92.397845 93.718408 
C 92.538054 93.578199 92.616834 93.388008 92.616834 93.189723 
C 92.616834 92.991437 92.538054 92.801246 92.397845 92.661037 
C 92.257636 92.520828 92.067445 92.442048 91.86916 92.442048 
C 91.670874 92.442048 91.480683 92.520828 91.340474 92.661037 
C 91.200265 92.801246 91.121485 92.991437 91.121485 93.189723 
C 91.121485 93.388008 91.200265 93.578199 91.340474 93.718408 
C 91.480683 93.858618 91.670874 93.937397 91.86916 93.937397 
z
" clip-path="url(#p8e593576df)" style="stroke: #000000"/>
    <path d="M 84.589393 83.415527 
C 85.182406 83.415527 85.751209 83.17992 86.170532 82.760598 
C 86.589855 82.341275 86.825461 81.772471 86.825461 81.179459 
C 86.825461 80.586447 86.589855 80.017643 86.170532 79.59832 
C 85.751209 79.178997 85.182406 78.943391 84.589393 78.943391 
C 83.996381 78.943391 83.427578 79.178997 83.008255 79.59832 
C 82.588932 80.017643 82.353325 80.586447 82.353325 81.179459 
C 82.353325 81.772471 82.588932 82.341275 83.008255 82.760598 
C 83.427578 83.17992 83.996381 83.415527 84.589393 83.415527 
z
" clip-path="url(#p8e593576df)" style="stroke: #000000"/>
    <path d="M 80.865072 73.496568 
C 81.022763 73.496568 81.174016 73.433916 81.285521 73.322412 
C 81.397025 73.210908 81.459676 73.059655 81.459676 72.901964 
C 81.459676 72.744273 81.397025 72.59302 81.285521 72.481516 
C 81.174016 72.370012 81.022763 72.307361 80.865072 72.307361 
C 80.707382 72.307361 80.556128 72.370012 80.444624 72.481516 
C 80.33312 72.59302 80.270469 72.744273 80.270469 72.901964 
C 80.270469 73.059655 80.33312 73.210908 80.444624 73.322412 
C 80.556128 73.433916 80.707382 73.496568 80.865072 73.496568 
z
" clip-path="url(#p8e593576df)" style="stroke: #000000"/>
    <path d="M 94.778805 118.494981 
C 95.030593 118.494981 95.272102 118.394944 95.450143 118.216904 
C 95.628184 118.038863 95.72822 117.797354 95.72822 117.545566 
C 95.72822 117.293779 95.628184 117.05227 95.450143 116.874229 
C 95.272102 116.696188 95.030593 116.596152 94.778805 116.596152 
C 94.527018 116.596152 94.285509 116.696188 94.107468 116.874229 
C 93.929427 117.05227 93.829391 117.293779 93.829391 117.545566 
C 93.829391 117.797354 93.929427 118.038863 94.107468 118.216904 
C 94.285509 118.394944 94.527018 118.494981 94.778805 118.494981 
z
" clip-path="url(#p8e593576df)" style="stroke: #000000"/>
    <path d="M 87.905811 104.164699 
C 88.283762 104.164699 88.646283 104.014538 88.913534 103.747287 
C 89.180785 103.480035 89.330946 103.117514 89.330946 102.739564 
C 89.330946 102.361614 89.180785 101.999092 88.913534 101.731841 
C 88.646283 101.46459 88.283762 101.314429 87.905811 101.314429 
C 87.527861 101.314429 87.16534 101.46459 86.898089 101.731841 
C 86.630838 101.999092 86.480676 102.361614 86.480676 102.739564 
C 86.480676 103.117514 86.630838 103.480035 86.898089 103.747287 
C 87.16534 104.014538 87.527861 104.164699 87.905811 104.164699 
z
" clip-path="url(#p8e593576df)" style="stroke: #000000"/>
    <path d="M 87.233738 99.669592 
C 87.724091 99.669592 88.194427 99.474773 88.541159 99.128041 
C 88.887891 98.781308 89.08271 98.310973 89.08271 97.82062 
C 89.08271 97.330267 88.887891 96.859931 88.541159 96.513199 
C 88.194427 96.166467 87.724091 95.971647 87.233738 95.971647 
C 86.743385 95.971647 86.273049 96.166467 85.926317 96.513199 
C 85.579585 96.859931 85.384766 97.330267 85.384766 97.82062 
C 85.384766 98.310973 85.579585 98.781308 85.926317 99.128041 
C 86.273049 99.474773 86.743385 99.669592 87.233738 99.669592 
z
" clip-path="url(#p8e593576df)" style="stroke: #000000"/>
    <path d="M 86.626904 99.044674 
C 87.254877 99.044674 87.857214 98.795178 88.301257 98.351134 
C 88.745301 97.907091 88.994797 97.304754 88.994797 96.676781 
C 88.994797 96.048809 88.745301 95.446472 88.301257 95.002428 
C 87.857214 94.558385 87.254877 94.308889 86.626904 94.308889 
C 85.998932 94.308889 85.396595 94.558385 84.952551 95.002428 
C 84.508508 95.446472 84.259012 96.048809 84.259012 96.676781 
C 84.259012 97.304754 84.508508 97.907091 84.952551 98.351134 
C 85.396595 98.795178 85.998932 99.044674 86.626904 99.044674 
z
" clip-path="url(#p8e593576df)" style="stroke: #000000"/>
    <path d="M 85.642234 93.753455 
C 86.121744 93.753455 86.581679 93.562944 86.920744 93.223879 
C 87.259809 92.884814 87.45032 92.424879 87.45032 91.945369 
C 87.45032 91.46586 87.259809 91.005925 86.920744 90.66686 
C 86.581679 90.327795 86.121744 90.137284 85.642234 90.137284 
C 85.162724 90.137284 84.702789 90.327795 84.363724 90.66686 
C 84.02466 91.005925 83.834148 91.46586 83.834148 91.945369 
C 83.834148 92.424879 84.02466 92.884814 84.363724 93.223879 
C 84.702789 93.562944 85.162724 93.753455 85.642234 93.753455 
z
" clip-path="url(#p8e593576df)" style="stroke: #000000"/>
    <path d="M 84.055606 88.862724 
C 84.648618 88.862724 85.217422 88.627118 85.636745 88.207795 
C 86.056068 87.788472 86.291674 87.219668 86.291674 86.626656 
C 86.291674 86.033644 86.056068 85.46484 85.636745 85.045517 
C 85.217422 84.626195 84.648618 84.390588 84.055606 84.390588 
C 83.462594 84.390588 82.89379 84.626195 82.474467 85.045517 
C 82.055144 85.46484 81.819538 86.033644 81.819538 86.626656 
C 81.819538 87.219668 82.055144 87.788472 82.474467 88.207795 
C 82.89379 88.627118 83.462594 88.862724 84.055606 88.862724 
z
" clip-path="url(#p8e593576df)" style="stroke: #000000"/>
    <path d="M 79.900419 84.49136 
C 80.493431 84.49136 81.062235 84.255754 81.481558 83.836431 
C 81.900881 83.417108 82.136487 82.848304 82.136487 82.255292 
C 82.136487 81.66228 81.900881 81.093476 81.481558 80.674153 
C 81.062235 80.25483 80.493431 80.019224 79.900419 80.019224 
C 79.307407 80.019224 78.738603 80.25483 78.31928 80.674153 
C 77.899957 81.093476 77.664351 81.66228 77.664351 82.255292 
C 77.664351 82.848304 77.899957 83.417108 78.31928 83.836431 
C 78.738603 84.255754 79.307407 84.49136 79.900419 84.49136 
z
" clip-path="url(#p8e593576df)" style="stroke: #000000"/>
    <path d="M 81.262371 79.631001 
C 81.436885 79.631001 81.604274 79.561666 81.727674 79.438266 
C 81.851073 79.314867 81.920408 79.147477 81.920408 78.972964 
C 81.920408 78.79845 81.851073 78.631061 81.727674 78.507661 
C 81.604274 78.384262 81.436885 78.314927 81.262371 78.314927 
C 81.087858 78.314927 80.920468 78.384262 80.797069 78.507661 
C 80.673669 78.631061 80.604334 78.79845 80.604334 78.972964 
C 80.604334 79.147477 80.673669 79.314867 80.797069 79.438266 
C 80.920468 79.561666 81.087858 79.631001 81.262371 79.631001 
z
" clip-path="url(#p8e593576df)" style="stroke: #000000"/>
    <path d="M 90.696373 123.082859 
C 91.225219 123.082859 91.732475 122.872746 92.106425 122.498796 
C 92.480376 122.124846 92.690488 121.617589 92.690488 121.088744 
C 92.690488 120.559898 92.480376 120.052642 92.106425 119.678692 
C 91.732475 119.304742 91.225219 119.094629 90.696373 119.094629 
C 90.167528 119.094629 89.660272 119.304742 89.286321 119.678692 
C 88.912371 120.052642 88.702259 120.559898 88.702259 121.088744 
C 88.702259 121.617589 88.912371 122.124846 89.286321 122.498796 
C 89.660272 122.872746 90.167528 123.082859 90.696373 123.082859 
z
" clip-path="url(#p8e593576df)" style="stroke: #000000"/>
    <path d="M 89.118696 121.966377 
C 89.712079 121.966377 90.281238 121.730623 90.700822 121.311039 
C 91.120407 120.891454 91.35616 120.322295 91.35616 119.728913 
C 91.35616 119.13553 91.120407 118.566371 90.700822 118.146786 
C 90.281238 117.727202 89.712079 117.491448 89.118696 117.491448 
C 88.525314 117.491448 87.956155 117.727202 87.53657 118.146786 
C 87.116985 118.566371 86.881232 119.13553 86.881232 119.728913 
C 86.881232 120.322295 87.116985 120.891454 87.53657 121.311039 
C 87.956155 121.730623 88.525314 121.966377 89.118696 121.966377 
z
" clip-path="url(#p8e593576df)" style="stroke: #000000"/>
    <path d="M 87.745651 114.164527 
C 87.903342 114.164527 88.054595 114.101876 88.166099 113.990372 
C 88.277604 113.878868 88.340255 113.727614 88.340255 113.569924 
C 88.340255 113.412233 88.277604 113.26098 88.166099 113.149476 
C 88.054595 113.037971 87.903342 112.97532 87.745651 112.97532 
C 87.58796 112.97532 87.436707 113.037971 87.325203 113.149476 
C 87.213699 113.26098 87.151048 113.412233 87.151048 113.569924 
C 87.151048 113.727614 87.213699 113.878868 87.325203 113.990372 
C 87.436707 114.101876 87.58796 114.164527 87.745651 114.164527 
z
" clip-path="url(#p8e593576df)" style="stroke: #000000"/>
    <path d="M 83.556733 109.118549 
C 84.150115 109.118549 84.719274 108.882795 85.138859 108.46321 
C 85.558444 108.043626 85.794197 107.474467 85.794197 106.881084 
C 85.794197 106.287702 85.558444 105.718543 85.138859 105.298958 
C 84.719274 104.879373 84.150115 104.64362 83.556733 104.64362 
C 82.96335 104.64362 82.394191 104.879373 81.974607 105.298958 
C 81.555022 105.718543 81.319268 106.287702 81.319268 106.881084 
C 81.319268 107.474467 81.555022 108.043626 81.974607 108.46321 
C 82.394191 108.882795 82.96335 109.118549 83.556733 109.118549 
z
" clip-path="url(#p8e593576df)" style="stroke: #000000"/>
    <path d="M 85.529713 107.254974 
C 85.978321 107.254974 86.408615 107.07674 86.725828 106.759527 
C 87.043041 106.442314 87.221275 106.01202 87.221275 105.563412 
C 87.221275 105.114805 87.043041 104.684511 86.725828 104.367298 
C 86.408615 104.050084 85.978321 103.871851 85.529713 103.871851 
C 85.081106 103.871851 84.650812 104.050084 84.333599 104.367298 
C 84.016385 104.684511 83.838152 105.114805 83.838152 105.563412 
C 83.838152 106.01202 84.016385 106.442314 84.333599 106.759527 
C 84.650812 107.07674 85.081106 107.254974 85.529713 107.254974 
z
" clip-path="url(#p8e593576df)" style="stroke: #000000"/>
    <path d="M 84.029454 100.648686 
C 84.162055 100.648686 84.289244 100.596002 84.383007 100.502239 
C 84.476771 100.408476 84.529454 100.281287 84.529454 100.148686 
C 84.529454 100.016084 84.476771 99.888896 84.383007 99.795132 
C 84.289244 99.701369 84.162055 99.648686 84.029454 99.648686 
C 83.896852 99.648686 83.769664 99.701369 83.675901 99.795132 
C 83.582137 99.888896 83.529454 100.016084 83.529454 100.148686 
C 83.529454 100.281287 83.582137 100.408476 83.675901 100.502239 
C 83.769664 100.596002 83.896852 100.648686 84.029454 100.648686 
z
" clip-path="url(#p8e593576df)" style="stroke: #000000"/>
    <path d="M 79.542558 92.995045 
C 79.994551 92.995045 80.428093 92.815466 80.7477 92.495858 
C 81.067308 92.176251 81.246887 91.742709 81.246887 91.290716 
C 81.246887 90.838723 81.067308 90.405181 80.7477 90.085573 
C 80.428093 89.765966 79.994551 89.586387 79.542558 89.586387 
C 79.090564 89.586387 78.657023 89.765966 78.337415 90.085573 
C 78.017808 90.405181 77.838229 90.838723 77.838229 91.290716 
C 77.838229 91.742709 78.017808 92.176251 78.337415 92.495858 
C 78.657023 92.815466 79.090564 92.995045 79.542558 92.995045 
z
" clip-path="url(#p8e593576df)" style="stroke: #000000"/>
    <path d="M 78.307913 91.855721 
C 78.822047 91.855721 79.315192 91.651454 79.678739 91.287907 
C 80.042286 90.92436 80.246553 90.431215 80.246553 89.917081 
C 80.246553 89.402948 80.042286 88.909803 79.678739 88.546256 
C 79.315192 88.182709 78.822047 87.978442 78.307913 87.978442 
C 77.79378 87.978442 77.300635 88.182709 76.937088 88.546256 
C 76.573541 88.909803 76.369274 89.402948 76.369274 89.917081 
C 76.369274 90.431215 76.573541 90.92436 76.937088 91.287907 
C 77.300635 91.651454 77.79378 91.855721 78.307913 91.855721 
z
" clip-path="url(#p8e593576df)" style="stroke: #000000"/>
    <path d="M 77.465517 86.482724 
C 78.054031 86.482724 78.61852 86.248905 79.034662 85.832763 
C 79.450804 85.416621 79.684623 84.852132 79.684623 84.263619 
C 79.684623 83.675105 79.450804 83.110616 79.034662 82.694474 
C 78.61852 82.278332 78.054031 82.044513 77.465517 82.044513 
C 76.877004 82.044513 76.312515 82.278332 75.896373 82.694474 
C 75.480231 83.110616 75.246412 83.675105 75.246412 84.263619 
C 75.246412 84.852132 75.480231 85.416621 75.896373 85.832763 
C 76.312515 86.248905 76.877004 86.482724 77.465517 86.482724 
z
" clip-path="url(#p8e593576df)" style="stroke: #000000"/>
    <path d="M 87.413411 130.691254 
C 87.966645 130.691254 88.497295 130.471452 88.888491 130.080256 
C 89.279687 129.68906 89.49949 129.15841 89.49949 128.605175 
C 89.49949 128.051941 89.279687 127.521291 88.888491 127.130095 
C 88.497295 126.738899 87.966645 126.519097 87.413411 126.519097 
C 86.860176 126.519097 86.329527 126.738899 85.938331 127.130095 
C 85.547135 127.521291 85.327332 128.051941 85.327332 128.605175 
C 85.327332 129.15841 85.547135 129.68906 85.938331 130.080256 
C 86.329527 130.471452 86.860176 130.691254 87.413411 130.691254 
z
" clip-path="url(#p8e593576df)" style="stroke: #000000"/>
    <path d="M 83.814246 121.098818 
C 83.971937 121.098818 84.12319 121.036167 84.234694 120.924662 
C 84.346198 120.813158 84.40885 120.661905 84.40885 120.504214 
C 84.40885 120.346524 84.346198 120.19527 84.234694 120.083766 
C 84.12319 119.972262 83.971937 119.909611 83.814246 119.909611 
C 83.656555 119.909611 83.505302 119.972262 83.393798 120.083766 
C 83.282294 120.19527 83.219643 120.346524 83.219643 120.504214 
C 83.219643 120.661905 83.282294 120.813158 83.393798 120.924662 
C 83.505302 121.036167 83.656555 121.098818 83.814246 121.098818 
z
" clip-path="url(#p8e593576df)" style="stroke: #000000"/>
    <path d="M 83.447488 116.405167 
C 83.90842 116.405167 84.350535 116.222037 84.676463 115.896108 
C 85.002391 115.57018 85.185521 115.128065 85.185521 114.667133 
C 85.185521 114.206201 85.002391 113.764086 84.676463 113.438157 
C 84.350535 113.112229 83.90842 112.929099 83.447488 112.929099 
C 82.986556 112.929099 82.54444 113.112229 82.218512 113.438157 
C 81.892584 113.764086 81.709454 114.206201 81.709454 114.667133 
C 81.709454 115.128065 81.892584 115.57018 82.218512 115.896108 
C 82.54444 116.222037 82.986556 116.405167 83.447488 116.405167 
z
" clip-path="url(#p8e593576df)" style="stroke: #000000"/>
    <path d="M 82.296976 113.495911 
C 82.543775 113.495911 82.780499 113.397856 82.955013 113.223343 
C 83.129526 113.048829 83.227581 112.812105 83.227581 112.565306 
C 83.227581 112.318506 83.129526 112.081782 82.955013 111.907269 
C 82.780499 111.732755 82.543775 111.634701 82.296976 111.634701 
C 82.050177 111.634701 81.813452 111.732755 81.638939 111.907269 
C 81.464425 112.081782 81.366371 112.318506 81.366371 112.565306 
C 81.366371 112.812105 81.464425 113.048829 81.638939 113.223343 
C 81.813452 113.397856 82.050177 113.495911 82.296976 113.495911 
z
" clip-path="url(#p8e593576df)" style="stroke: #000000"/>
    <path d="M 81.046078 110.029295 
C 81.63909 110.029295 82.207894 109.793688 82.627217 109.374366 
C 83.04654 108.955043 83.282146 108.386239 83.282146 107.793227 
C 83.282146 107.200215 83.04654 106.631411 82.627217 106.212088 
C 82.207894 105.792765 81.63909 105.557159 81.046078 105.557159 
C 80.453066 105.557159 79.884262 105.792765 79.464939 106.212088 
C 79.045616 106.631411 78.81001 107.200215 78.81001 107.793227 
C 78.81001 108.386239 79.045616 108.955043 79.464939 109.374366 
C 79.884262 109.793688 80.453066 110.029295 81.046078 110.029295 
z
" clip-path="url(#p8e593576df)" style="stroke: #000000"/>
    <path d="M 79.141103 105.547692 
C 79.626801 105.547692 80.092672 105.354722 80.436113 105.011281 
C 80.779554 104.66784 80.972524 104.20197 80.972524 103.716271 
C 80.972524 103.230573 80.779554 102.764702 80.436113 102.421261 
C 80.092672 102.07782 79.626801 101.88485 79.141103 101.88485 
C 78.655405 101.88485 78.189534 102.07782 77.846093 102.421261 
C 77.502652 102.764702 77.309682 103.230573 77.309682 103.716271 
C 77.309682 104.20197 77.502652 104.66784 77.846093 105.011281 
C 78.189534 105.354722 78.655405 105.547692 79.141103 105.547692 
z
" clip-path="url(#p8e593576df)" style="stroke: #000000"/>
    <path d="M 78.447103 98.629183 
C 78.934145 98.629183 79.401304 98.435679 79.745695 98.091289 
C 80.090086 97.746898 80.28359 97.279738 80.28359 96.792696 
C 80.28359 96.305654 80.090086 95.838495 79.745695 95.494104 
C 79.401304 95.149713 78.934145 94.956209 78.447103 94.956209 
C 77.960061 94.956209 77.492901 95.149713 77.14851 95.494104 
C 76.80412 95.838495 76.610616 96.305654 76.610616 96.792696 
C 76.610616 97.279738 76.80412 97.746898 77.14851 98.091289 
C 77.492901 98.435679 77.960061 98.629183 78.447103 98.629183 
z
" clip-path="url(#p8e593576df)" style="stroke: #000000"/>
    <path d="M 75.732323 94.808509 
C 76.333326 94.808509 76.909795 94.569728 77.334768 94.144754 
C 77.759741 93.719781 77.998523 93.143312 77.998523 92.542309 
C 77.998523 91.941306 77.759741 91.364838 77.334768 90.939864 
C 76.909795 90.514891 76.333326 90.27611 75.732323 90.27611 
C 75.13132 90.27611 74.554852 90.514891 74.129878 90.939864 
C 73.704905 91.364838 73.466124 91.941306 73.466124 92.542309 
C 73.466124 93.143312 73.704905 93.719781 74.129878 94.144754 
C 74.554852 94.569728 75.13132 94.808509 75.732323 94.808509 
z
" clip-path="url(#p8e593576df)" style="stroke: #000000"/>
    <path d="M 74.021466 91.146821 
C 74.564373 91.146821 75.085117 90.931122 75.46901 90.547229 
C 75.852903 90.163336 76.068602 89.642593 76.068602 89.099686 
C 76.068602 88.556779 75.852903 88.036036 75.46901 87.652143 
C 75.085117 87.26825 74.564373 87.052551 74.021466 87.052551 
C 73.47856 87.052551 72.957816 87.26825 72.573923 87.652143 
C 72.19003 88.036036 71.974331 88.556779 71.974331 89.099686 
C 71.974331 89.642593 72.19003 90.163336 72.573923 90.547229 
C 72.957816 90.931122 73.47856 91.146821 74.021466 91.146821 
z
" clip-path="url(#p8e593576df)" style="stroke: #000000"/>
    <path d="M 83.690673 136.450002 
C 84.184913 136.450002 84.658977 136.253638 85.008457 135.904157 
C 85.357938 135.554677 85.554301 135.080613 85.554301 134.586373 
C 85.554301 134.092133 85.357938 133.618069 85.008457 133.268589 
C 84.658977 132.919108 84.184913 132.722745 83.690673 132.722745 
C 83.196433 132.722745 82.722369 132.919108 82.372888 133.268589 
C 82.023408 133.618069 81.827044 134.092133 81.827044 134.586373 
C 81.827044 135.080613 82.023408 135.554677 82.372888 135.904157 
C 82.722369 136.253638 83.196433 136.450002 83.690673 136.450002 
z
" clip-path="url(#p8e593576df)" style="stroke: #000000"/>
    <path d="M 83.035356 133.712742 
C 83.672489 133.712742 84.283613 133.459606 84.734135 133.009084 
C 85.184656 132.558563 85.437792 131.947439 85.437792 131.310306 
C 85.437792 130.673172 85.184656 130.062048 84.734135 129.611527 
C 84.283613 129.161006 83.672489 128.90787 83.035356 128.90787 
C 82.398222 128.90787 81.787099 129.161006 81.336577 129.611527 
C 80.886056 130.062048 80.63292 130.673172 80.63292 131.310306 
C 80.63292 131.947439 80.886056 132.558563 81.336577 133.009084 
C 81.787099 133.459606 82.398222 133.712742 83.035356 133.712742 
z
" clip-path="url(#p8e593576df)" style="stroke: #000000"/>
    <path d="M 73.700327 105.962361 
C 73.832929 105.962361 73.960117 105.909678 74.053881 105.815914 
C 74.147644 105.722151 74.200327 105.594962 74.200327 105.462361 
C 74.200327 105.329759 74.147644 105.202571 74.053881 105.108807 
C 73.960117 105.015044 73.832929 104.962361 73.700327 104.962361 
C 73.567726 104.962361 73.440537 105.015044 73.346774 105.108807 
C 73.25301 105.202571 73.200327 105.329759 73.200327 105.462361 
C 73.200327 105.594962 73.25301 105.722151 73.346774 105.815914 
C 73.440537 105.909678 73.567726 105.962361 73.700327 105.962361 
z
" clip-path="url(#p8e593576df)" style="stroke: #000000"/>
    <path d="M 72.355469 98.564082 
C 72.948481 98.564082 73.517285 98.328476 73.936607 97.909153 
C 74.35593 97.48983 74.591537 96.921026 74.591537 96.328014 
C 74.591537 95.735002 74.35593 95.166198 73.936607 94.746875 
C 73.517285 94.327552 72.948481 94.091946 72.355469 94.091946 
C 71.762456 94.091946 71.193653 94.327552 70.77433 94.746875 
C 70.355007 95.166198 70.119401 95.735002 70.119401 96.328014 
C 70.119401 96.921026 70.355007 97.48983 70.77433 97.909153 
C 71.193653 98.328476 71.762456 98.564082 72.355469 98.564082 
z
" clip-path="url(#p8e593576df)" style="stroke: #000000"/>
    <path d="M 67.195076 89.161174 
C 67.788458 89.161174 68.357617 88.92542 68.777202 88.505836 
C 69.196787 88.086251 69.43254 87.517092 69.43254 86.92371 
C 69.43254 86.330327 69.196787 85.761168 68.777202 85.341583 
C 68.357617 84.921999 67.788458 84.686245 67.195076 84.686245 
C 66.601694 84.686245 66.032535 84.921999 65.61295 85.341583 
C 65.193365 85.761168 64.957612 86.330327 64.957612 86.92371 
C 64.957612 87.517092 65.193365 88.086251 65.61295 88.505836 
C 66.032535 88.92542 66.601694 89.161174 67.195076 89.161174 
z
" clip-path="url(#p8e593576df)" style="stroke: #000000"/>
    <path d="M 67.181723 83.209366 
C 67.661932 83.209366 68.122538 83.018577 68.462097 82.679017 
C 68.801657 82.339458 68.992446 81.878852 68.992446 81.398643 
C 68.992446 80.918433 68.801657 80.457827 68.462097 80.118268 
C 68.122538 79.778708 67.661932 79.587919 67.181723 79.587919 
C 66.701513 79.587919 66.240907 79.778708 65.901348 80.118268 
C 65.561788 80.457827 65.370999 80.918433 65.370999 81.398643 
C 65.370999 81.878852 65.561788 82.339458 65.901348 82.679017 
C 66.240907 83.018577 66.701513 83.209366 67.181723 83.209366 
z
" clip-path="url(#p8e593576df)" style="stroke: #000000"/>
    <path d="M 65.769893 80.252949 
C 66.113334 80.252949 66.442754 80.116498 66.685604 79.873649 
C 66.928453 79.6308 67.064903 79.301379 67.064903 78.957939 
C 67.064903 78.614498 66.928453 78.285077 66.685604 78.042228 
C 66.442754 77.799379 66.113334 77.662929 65.769893 77.662929 
C 65.426453 77.662929 65.097032 77.799379 64.854183 78.042228 
C 64.611334 78.285077 64.474883 78.614498 64.474883 78.957939 
C 64.474883 79.301379 64.611334 79.6308 64.854183 79.873649 
C 65.097032 80.116498 65.426453 80.252949 65.769893 80.252949 
z
" clip-path="url(#p8e593576df)" style="stroke: #000000"/>
    <path d="M 77.81169 137.864379 
C 78.18964 137.864379 78.552161 137.714218 78.819412 137.446967 
C 79.086664 137.179715 79.236825 136.817194 79.236825 136.439244 
C 79.236825 136.061294 79.086664 135.698773 78.819412 135.431521 
C 78.552161 135.16427 78.18964 135.014109 77.81169 135.014109 
C 77.43374 135.014109 77.071218 135.16427 76.803967 135.431521 
C 76.536716 135.698773 76.386555 136.061294 76.386555 136.439244 
C 76.386555 136.817194 76.536716 137.179715 76.803967 137.446967 
C 77.071218 137.714218 77.43374 137.864379 77.81169 137.864379 
z
" clip-path="url(#p8e593576df)" style="stroke: #000000"/>
    <path d="M 78.822555 132.580273 
C 79.308927 132.580273 79.775443 132.387035 80.11936 132.043119 
C 80.463277 131.699202 80.656514 131.232685 80.656514 130.746314 
C 80.656514 130.259942 80.463277 129.793426 80.11936 129.449509 
C 79.775443 129.105592 79.308927 128.912355 78.822555 128.912355 
C 78.336183 128.912355 77.869667 129.105592 77.52575 129.449509 
C 77.181833 129.793426 76.988596 130.259942 76.988596 130.746314 
C 76.988596 131.232685 77.181833 131.699202 77.52575 132.043119 
C 77.869667 132.387035 78.336183 132.580273 78.822555 132.580273 
z
" clip-path="url(#p8e593576df)" style="stroke: #000000"/>
    <path d="M 75.479588 124.201125 
C 75.973187 124.201125 76.446635 124.005016 76.795662 123.655989 
C 77.144689 123.306962 77.340798 122.833514 77.340798 122.339915 
C 77.340798 121.846317 77.144689 121.372868 76.795662 121.023841 
C 76.446635 120.674814 75.973187 120.478705 75.479588 120.478705 
C 74.98599 120.478705 74.512541 120.674814 74.163514 121.023841 
C 73.814487 121.372868 73.618379 121.846317 73.618379 122.339915 
C 73.618379 122.833514 73.814487 123.306962 74.163514 123.655989 
C 74.512541 124.005016 74.98599 124.201125 75.479588 124.201125 
z
" clip-path="url(#p8e593576df)" style="stroke: #000000"/>
    <path d="M 73.568673 121.719971 
C 74.161685 121.719971 74.730489 121.484364 75.149812 121.065041 
C 75.569135 120.645719 75.804741 120.076915 75.804741 119.483903 
C 75.804741 118.89089 75.569135 118.322087 75.149812 117.902764 
C 74.730489 117.483441 74.161685 117.247835 73.568673 117.247835 
C 72.975661 117.247835 72.406857 117.483441 71.987534 117.902764 
C 71.568212 118.322087 71.332605 118.89089 71.332605 119.483903 
C 71.332605 120.076915 71.568212 120.645719 71.987534 121.065041 
C 72.406857 121.484364 72.975661 121.719971 73.568673 121.719971 
z
" clip-path="url(#p8e593576df)" style="stroke: #000000"/>
    <path d="M 71.907802 112.27422 
C 72.330235 112.27422 72.735423 112.106386 73.034129 111.80768 
C 73.332834 111.508975 73.500668 111.103787 73.500668 110.681354 
C 73.500668 110.258921 73.332834 109.853733 73.034129 109.555027 
C 72.735423 109.256322 72.330235 109.088488 71.907802 109.088488 
C 71.485369 109.088488 71.080181 109.256322 70.781476 109.555027 
C 70.48277 109.853733 70.314936 110.258921 70.314936 110.681354 
C 70.314936 111.103787 70.48277 111.508975 70.781476 111.80768 
C 71.080181 112.106386 71.485369 112.27422 71.907802 112.27422 
z
" clip-path="url(#p8e593576df)" style="stroke: #000000"/>
    <path d="M 69.692613 105.554915 
C 69.939412 105.554915 70.176137 105.456861 70.35065 105.282348 
C 70.525163 105.107834 70.623218 104.87111 70.623218 104.624311 
C 70.623218 104.377511 70.525163 104.140787 70.35065 103.966274 
C 70.176137 103.79176 69.939412 103.693706 69.692613 103.693706 
C 69.445814 103.693706 69.209089 103.79176 69.034576 103.966274 
C 68.860063 104.140787 68.762008 104.377511 68.762008 104.624311 
C 68.762008 104.87111 68.860063 105.107834 69.034576 105.282348 
C 69.209089 105.456861 69.445814 105.554915 69.692613 105.554915 
z
" clip-path="url(#p8e593576df)" style="stroke: #000000"/>
    <path d="M 67.292217 102.875642 
C 67.424819 102.875642 67.552007 102.822959 67.645771 102.729196 
C 67.739534 102.635432 67.792217 102.508244 67.792217 102.375642 
C 67.792217 102.243041 67.739534 102.115852 67.645771 102.022089 
C 67.552007 101.928325 67.424819 101.875642 67.292217 101.875642 
C 67.159616 101.875642 67.032427 101.928325 66.938664 102.022089 
C 66.8449 102.115852 66.792217 102.243041 66.792217 102.375642 
C 66.792217 102.508244 66.8449 102.635432 66.938664 102.729196 
C 67.032427 102.822959 67.159616 102.875642 67.292217 102.875642 
z
" clip-path="url(#p8e593576df)" style="stroke: #000000"/>
    <path d="M 65.304605 94.604877 
C 65.614939 94.604877 65.912604 94.48158 66.132043 94.262141 
C 66.351482 94.042702 66.474779 93.745037 66.474779 93.434704 
C 66.474779 93.12437 66.351482 92.826705 66.132043 92.607266 
C 65.912604 92.387827 65.614939 92.26453 65.304605 92.26453 
C 64.994271 92.26453 64.696607 92.387827 64.477167 92.607266 
C 64.257728 92.826705 64.134432 93.12437 64.134432 93.434704 
C 64.134432 93.745037 64.257728 94.042702 64.477167 94.262141 
C 64.696607 94.48158 64.994271 94.604877 65.304605 94.604877 
z
" clip-path="url(#p8e593576df)" style="stroke: #000000"/>
    <path d="M 64.183691 89.515528 
C 64.700644 89.515528 65.196494 89.31014 65.562036 88.944599 
C 65.927577 88.579057 66.132965 88.083207 66.132965 87.566254 
C 66.132965 87.0493 65.927577 86.55345 65.562036 86.187908 
C 65.196494 85.822367 64.700644 85.616979 64.183691 85.616979 
C 63.666737 85.616979 63.170887 85.822367 62.805345 86.187908 
C 62.439804 86.55345 62.234416 87.0493 62.234416 87.566254 
C 62.234416 88.083207 62.439804 88.579057 62.805345 88.944599 
C 63.170887 89.31014 63.666737 89.515528 64.183691 89.515528 
z
" clip-path="url(#p8e593576df)" style="stroke: #000000"/>
    <path d="M 61.490159 85.469261 
C 61.980512 85.469261 62.450848 85.274442 62.79758 84.92771 
C 63.144312 84.580978 63.339131 84.110642 63.339131 83.620289 
C 63.339131 83.129936 63.144312 82.6596 62.79758 82.312868 
C 62.450848 81.966136 61.980512 81.771317 61.490159 81.771317 
C 60.999806 81.771317 60.52947 81.966136 60.182738 82.312868 
C 59.836006 82.6596 59.641187 83.129936 59.641187 83.620289 
C 59.641187 84.110642 59.836006 84.580978 60.182738 84.92771 
C 60.52947 85.274442 60.999806 85.469261 61.490159 85.469261 
z
" clip-path="url(#p8e593576df)" style="stroke: #000000"/>
    <path d="M 77.981863 139.549738 
C 78.23365 139.549738 78.475159 139.449702 78.6532 139.271661 
C 78.831241 139.093621 78.931277 138.852112 78.931277 138.600324 
C 78.931277 138.348536 78.831241 138.107027 78.6532 137.928986 
C 78.475159 137.750946 78.23365 137.650909 77.981863 137.650909 
C 77.730075 137.650909 77.488566 137.750946 77.310525 137.928986 
C 77.132485 138.107027 77.032448 138.348536 77.032448 138.600324 
C 77.032448 138.852112 77.132485 139.093621 77.310525 139.271661 
C 77.488566 139.449702 77.730075 139.549738 77.981863 139.549738 
z
" clip-path="url(#p8e593576df)" style="stroke: #000000"/>
    <path d="M 70.898899 123.269631 
C 71.491911 123.269631 72.060715 123.034024 72.480038 122.614701 
C 72.899361 122.195378 73.134967 121.626575 73.134967 121.033563 
C 73.134967 120.44055 72.899361 119.871747 72.480038 119.452424 
C 72.060715 119.033101 71.491911 118.797495 70.898899 118.797495 
C 70.305887 118.797495 69.737083 119.033101 69.31776 119.452424 
C 68.898437 119.871747 68.662831 120.44055 68.662831 121.033563 
C 68.662831 121.626575 68.898437 122.195378 69.31776 122.614701 
C 69.737083 123.034024 70.305887 123.269631 70.898899 123.269631 
z
" clip-path="url(#p8e593576df)" style="stroke: #000000"/>
    <path d="M 68.656966 119.148649 
C 69.185812 119.148649 69.693068 118.938537 70.067018 118.564586 
C 70.440968 118.190636 70.651081 117.68338 70.651081 117.154534 
C 70.651081 116.625689 70.440968 116.118432 70.067018 115.744482 
C 69.693068 115.370532 69.185812 115.16042 68.656966 115.16042 
C 68.128121 115.16042 67.620864 115.370532 67.246914 115.744482 
C 66.872964 116.118432 66.662852 116.625689 66.662852 117.154534 
C 66.662852 117.68338 66.872964 118.190636 67.246914 118.564586 
C 67.620864 118.938537 68.128121 119.148649 68.656966 119.148649 
z
" clip-path="url(#p8e593576df)" style="stroke: #000000"/>
    <path d="M 66.752274 114.054407 
C 67.072471 114.054407 67.379598 113.927191 67.606012 113.700777 
C 67.832426 113.474363 67.959642 113.167236 67.959642 112.847038 
C 67.959642 112.526841 67.832426 112.219714 67.606012 111.9933 
C 67.379598 111.766886 67.072471 111.63967 66.752274 111.63967 
C 66.432076 111.63967 66.124949 111.766886 65.898535 111.9933 
C 65.672121 112.219714 65.544905 112.526841 65.544905 112.847038 
C 65.544905 113.167236 65.672121 113.474363 65.898535 113.700777 
C 66.124949 113.927191 66.432076 114.054407 66.752274 114.054407 
z
" clip-path="url(#p8e593576df)" style="stroke: #000000"/>
    <path d="M 65.708227 111.101103 
C 66.301609 111.101103 66.870768 110.865349 67.290353 110.445765 
C 67.709938 110.02618 67.945691 109.457021 67.945691 108.863639 
C 67.945691 108.270256 67.709938 107.701097 67.290353 107.281512 
C 66.870768 106.861928 66.301609 106.626174 65.708227 106.626174 
C 65.114845 106.626174 64.545686 106.861928 64.126101 107.281512 
C 63.706516 107.701097 63.470763 108.270256 63.470763 108.863639 
C 63.470763 109.457021 63.706516 110.02618 64.126101 110.445765 
C 64.545686 110.865349 65.114845 111.101103 65.708227 111.101103 
z
" clip-path="url(#p8e593576df)" style="stroke: #000000"/>
    <path d="M 63.879284 103.010667 
C 64.011886 103.010667 64.139074 102.957984 64.232838 102.86422 
C 64.326601 102.770457 64.379284 102.643269 64.379284 102.510667 
C 64.379284 102.378065 64.326601 102.250877 64.232838 102.157114 
C 64.139074 102.06335 64.011886 102.010667 63.879284 102.010667 
C 63.746683 102.010667 63.619494 102.06335 63.525731 102.157114 
C 63.431967 102.250877 63.379284 102.378065 63.379284 102.510667 
C 63.379284 102.643269 63.431967 102.770457 63.525731 102.86422 
C 63.619494 102.957984 63.746683 103.010667 63.879284 103.010667 
z
" clip-path="url(#p8e593576df)" style="stroke: #000000"/>
    <path d="M 62.209717 99.204464 
C 62.703957 99.204464 63.178021 99.0081 63.527501 98.658619 
C 63.876982 98.309139 64.073345 97.835075 64.073345 97.340835 
C 64.073345 96.846595 63.876982 96.372531 63.527501 96.023051 
C 63.178021 95.67357 62.703957 95.477207 62.209717 95.477207 
C 61.715477 95.477207 61.241413 95.67357 60.891933 96.023051 
C 60.542452 96.372531 60.346088 96.846595 60.346088 97.340835 
C 60.346088 97.835075 60.542452 98.309139 60.891933 98.658619 
C 61.241413 99.0081 61.715477 99.204464 62.209717 99.204464 
z
" clip-path="url(#p8e593576df)" style="stroke: #000000"/>
    <path d="M 60.863287 94.765133 
C 61.34831 94.765133 61.813532 94.572432 62.156495 94.229469 
C 62.499458 93.886506 62.692159 93.421284 62.692159 92.936261 
C 62.692159 92.451239 62.499458 91.986016 62.156495 91.643054 
C 61.813532 91.300091 61.34831 91.10739 60.863287 91.10739 
C 60.378265 91.10739 59.913042 91.300091 59.57008 91.643054 
C 59.227117 91.986016 59.034415 92.451239 59.034415 92.936261 
C 59.034415 93.421284 59.227117 93.886506 59.57008 94.229469 
C 59.913042 94.572432 60.378265 94.765133 60.863287 94.765133 
z
" clip-path="url(#p8e593576df)" style="stroke: #000000"/>
    <path d="M 69.966288 136.980402 
C 70.410552 136.980402 70.83668 136.803894 71.150822 136.489751 
C 71.464964 136.175609 71.641472 135.749481 71.641472 135.305217 
C 71.641472 134.860953 71.464964 134.434825 71.150822 134.120683 
C 70.83668 133.806541 70.410552 133.630033 69.966288 133.630033 
C 69.522024 133.630033 69.095896 133.806541 68.781753 134.120683 
C 68.467611 134.434825 68.291103 134.860953 68.291103 135.305217 
C 68.291103 135.749481 68.467611 136.175609 68.781753 136.489751 
C 69.095896 136.803894 69.522024 136.980402 69.966288 136.980402 
z
" clip-path="url(#p8e593576df)" style="stroke: #000000"/>
    <path d="M 68.337026 132.760571 
C 68.930409 132.760571 69.499568 132.524818 69.919152 132.105233 
C 70.338737 131.685648 70.57449 131.116489 70.57449 130.523107 
C 70.57449 129.929724 70.338737 129.360566 69.919152 128.940981 
C 69.499568 128.521396 68.930409 128.285643 68.337026 128.285643 
C 67.743644 128.285643 67.174485 128.521396 66.7549 128.940981 
C 66.335315 129.360566 66.099562 129.929724 66.099562 130.523107 
C 66.099562 131.116489 66.335315 131.685648 66.7549 132.105233 
C 67.174485 132.524818 67.743644 132.760571 68.337026 132.760571 
z
" clip-path="url(#p8e593576df)" style="stroke: #000000"/>
    <path d="M 67.291084 129.175125 
C 67.757445 129.175125 68.204767 128.989838 68.534533 128.660071 
C 68.8643 128.330305 69.049586 127.882983 69.049586 127.416623 
C 69.049586 126.950262 68.8643 126.50294 68.534533 126.173174 
C 68.204767 125.843407 67.757445 125.658121 67.291084 125.658121 
C 66.824724 125.658121 66.377402 125.843407 66.047636 126.173174 
C 65.717869 126.50294 65.532582 126.950262 65.532582 127.416623 
C 65.532582 127.882983 65.717869 128.330305 66.047636 128.660071 
C 66.377402 128.989838 66.824724 129.175125 67.291084 129.175125 
z
" clip-path="url(#p8e593576df)" style="stroke: #000000"/>
    <path d="M 66.061208 123.866026 
C 66.596216 123.866026 67.109383 123.653465 67.487691 123.275158 
C 67.865998 122.89685 68.078559 122.383683 68.078559 121.848675 
C 68.078559 121.313667 67.865998 120.8005 67.487691 120.422193 
C 67.109383 120.043885 66.596216 119.831324 66.061208 119.831324 
C 65.5262 119.831324 65.013033 120.043885 64.634726 120.422193 
C 64.256418 120.8005 64.043857 121.313667 64.043857 121.848675 
C 64.043857 122.383683 64.256418 122.89685 64.634726 123.275158 
C 65.013033 123.653465 65.5262 123.866026 66.061208 123.866026 
z
" clip-path="url(#p8e593576df)" style="stroke: #000000"/>
    <path d="M 63.962078 117.684117 
C 64.09468 117.684117 64.221868 117.631434 64.315632 117.53767 
C 64.409395 117.443907 64.462078 117.316718 64.462078 117.184117 
C 64.462078 117.051515 64.409395 116.924327 64.315632 116.830563 
C 64.221868 116.7368 64.09468 116.684117 63.962078 116.684117 
C 63.829477 116.684117 63.702289 116.7368 63.608525 116.830563 
C 63.514762 116.924327 63.462078 117.051515 63.462078 117.184117 
C 63.462078 117.316718 63.514762 117.443907 63.608525 117.53767 
C 63.702289 117.631434 63.829477 117.684117 63.962078 117.684117 
z
" clip-path="url(#p8e593576df)" style="stroke: #000000"/>
    <path d="M 61.676985 109.972913 
C 61.933481 109.972913 62.179506 109.871006 62.360876 109.689636 
C 62.542246 109.508266 62.644153 109.262241 62.644153 109.005745 
C 62.644153 108.749249 62.542246 108.503224 62.360876 108.321854 
C 62.179506 108.140484 61.933481 108.038577 61.676985 108.038577 
C 61.420489 108.038577 61.174464 108.140484 60.993094 108.321854 
C 60.811724 108.503224 60.709817 108.749249 60.709817 109.005745 
C 60.709817 109.262241 60.811724 109.508266 60.993094 109.689636 
C 61.174464 109.871006 61.420489 109.972913 61.676985 109.972913 
z
" clip-path="url(#p8e593576df)" style="stroke: #000000"/>
    <path d="M 56.819441 100.887687 
C 57.412453 100.887687 57.981257 100.652081 58.40058 100.232758 
C 58.819903 99.813435 59.055509 99.244631 59.055509 98.651619 
C 59.055509 98.058607 58.819903 97.489803 58.40058 97.07048 
C 57.981257 96.651157 57.412453 96.415551 56.819441 96.415551 
C 56.226429 96.415551 55.657625 96.651157 55.238302 97.07048 
C 54.818979 97.489803 54.583373 98.058607 54.583373 98.651619 
C 54.583373 99.244631 54.818979 99.813435 55.238302 100.232758 
C 55.657625 100.652081 56.226429 100.887687 56.819441 100.887687 
z
" clip-path="url(#p8e593576df)" style="stroke: #000000"/>
    <path d="M 54.878053 97.301844 
C 55.299457 97.301844 55.703658 97.134418 56.001636 96.836441 
C 56.299613 96.538463 56.467039 96.134262 56.467039 95.712858 
C 56.467039 95.291454 56.299613 94.887253 56.001636 94.589275 
C 55.703658 94.291298 55.299457 94.123872 54.878053 94.123872 
C 54.456649 94.123872 54.052448 94.291298 53.75447 94.589275 
C 53.456493 94.887253 53.289067 95.291454 53.289067 95.712858 
C 53.289067 96.134262 53.456493 96.538463 53.75447 96.836441 
C 54.052448 97.134418 54.456649 97.301844 54.878053 97.301844 
z
" clip-path="url(#p8e593576df)" style="stroke: #000000"/>
    <path d="M 64.885574 136.389871 
C 65.060087 136.389871 65.227476 136.320536 65.350876 136.197136 
C 65.474276 136.073737 65.543611 135.906347 65.543611 135.731834 
C 65.543611 135.55732 65.474276 135.389931 65.350876 135.266531 
C 65.227476 135.143132 65.060087 135.073797 64.885574 135.073797 
C 64.71106 135.073797 64.543671 135.143132 64.420271 135.266531 
C 64.296872 135.389931 64.227537 135.55732 64.227537 135.731834 
C 64.227537 135.906347 64.296872 136.073737 64.420271 136.197136 
C 64.543671 136.320536 64.71106 136.389871 64.885574 136.389871 
z
" clip-path="url(#p8e593576df)" style="stroke: #000000"/>
    <path d="M 63.458647 134.13978 
C 64.052399 134.13978 64.621912 133.903879 65.041759 133.484033 
C 65.461605 133.064187 65.697505 132.494674 65.697505 131.900922 
C 65.697505 131.30717 65.461605 130.737656 65.041759 130.31781 
C 64.621912 129.897964 64.052399 129.662064 63.458647 129.662064 
C 62.864895 129.662064 62.295382 129.897964 61.875535 130.31781 
C 61.455689 130.737656 61.219789 131.30717 61.219789 131.900922 
C 61.219789 132.494674 61.455689 133.064187 61.875535 133.484033 
C 62.295382 133.903879 62.864895 134.13978 63.458647 134.13978 
z
" clip-path="url(#p8e593576df)" style="stroke: #000000"/>
    <path d="M 60.974124 124.496785 
C 61.106725 124.496785 61.233914 124.444102 61.327677 124.350339 
C 61.421441 124.256575 61.474124 124.129387 61.474124 123.996785 
C 61.474124 123.864184 61.421441 123.736995 61.327677 123.643232 
C 61.233914 123.549468 61.106725 123.496785 60.974124 123.496785 
C 60.841522 123.496785 60.714334 123.549468 60.62057 123.643232 
C 60.526807 123.736995 60.474124 123.864184 60.474124 123.996785 
C 60.474124 124.129387 60.526807 124.256575 60.62057 124.350339 
C 60.714334 124.444102 60.841522 124.496785 60.974124 124.496785 
z
" clip-path="url(#p8e593576df)" style="stroke: #000000"/>
    <path d="M 59.009161 122.191378 
C 59.602913 122.191378 60.172426 121.955477 60.592272 121.535631 
C 61.012118 121.115785 61.248018 120.546272 61.248018 119.95252 
C 61.248018 119.358768 61.012118 118.789254 60.592272 118.369408 
C 60.172426 117.949562 59.602913 117.713662 59.009161 117.713662 
C 58.415409 117.713662 57.845895 117.949562 57.426049 118.369408 
C 57.006203 118.789254 56.770303 119.358768 56.770303 119.95252 
C 56.770303 120.546272 57.006203 121.115785 57.426049 121.535631 
C 57.845895 121.955477 58.415409 122.191378 59.009161 122.191378 
z
" clip-path="url(#p8e593576df)" style="stroke: #000000"/>
    <path d="M 55.160214 112.410605 
C 55.656363 112.410605 56.132259 112.213483 56.48309 111.862652 
C 56.83392 111.511822 57.031043 111.035926 57.031043 110.539777 
C 57.031043 110.043627 56.83392 109.567732 56.48309 109.216901 
C 56.132259 108.86607 55.656363 108.668948 55.160214 108.668948 
C 54.664064 108.668948 54.188169 108.86607 53.837338 109.216901 
C 53.486508 109.567732 53.289385 110.043627 53.289385 110.539777 
C 53.289385 111.035926 53.486508 111.511822 53.837338 111.862652 
C 54.188169 112.213483 54.664064 112.410605 55.160214 112.410605 
z
" clip-path="url(#p8e593576df)" style="stroke: #000000"/>
    <path d="M 53.962756 106.08238 
C 54.420498 106.08238 54.859554 105.900517 55.183226 105.576845 
C 55.506899 105.253172 55.688761 104.814117 55.688761 104.356375 
C 55.688761 103.898633 55.506899 103.459577 55.183226 103.135905 
C 54.859554 102.812232 54.420498 102.63037 53.962756 102.63037 
C 53.505014 102.63037 53.065959 102.812232 52.742286 103.135905 
C 52.418614 103.459577 52.236751 103.898633 52.236751 104.356375 
C 52.236751 104.814117 52.418614 105.253172 52.742286 105.576845 
C 53.065959 105.900517 53.505014 106.08238 53.962756 106.08238 
z
" clip-path="url(#p8e593576df)" style="stroke: #000000"/>
    <path d="M 53.645574 101.786537 
C 53.778176 101.786537 53.905364 101.733854 53.999128 101.640091 
C 54.092891 101.546327 54.145574 101.419139 54.145574 101.286537 
C 54.145574 101.153936 54.092891 101.026747 53.999128 100.932984 
C 53.905364 100.83922 53.778176 100.786537 53.645574 100.786537 
C 53.512973 100.786537 53.385785 100.83922 53.292021 100.932984 
C 53.198258 101.026747 53.145574 101.153936 53.145574 101.286537 
C 53.145574 101.419139 53.198258 101.546327 53.292021 101.640091 
C 53.385785 101.733854 53.512973 101.786537 53.645574 101.786537 
z
" clip-path="url(#p8e593576df)" style="stroke: #000000"/>
    <path d="M 56.79715 126.373941 
C 57.304318 126.373941 57.790782 126.172441 58.149404 125.813819 
C 58.508026 125.455197 58.709526 124.968733 58.709526 124.461564 
C 58.709526 123.954396 58.508026 123.467932 58.149404 123.10931 
C 57.790782 122.750688 57.304318 122.549188 56.79715 122.549188 
C 56.289981 122.549188 55.803517 122.750688 55.444895 123.10931 
C 55.086273 123.467932 54.884773 123.954396 54.884773 124.461564 
C 54.884773 124.968733 55.086273 125.455197 55.444895 125.813819 
C 55.803517 126.172441 56.289981 126.373941 56.79715 126.373941 
z
" clip-path="url(#p8e593576df)" style="stroke: #000000"/>
    <path d="M 55.300454 120.691152 
C 55.823994 120.691152 56.326162 120.483147 56.696361 120.112948 
C 57.06656 119.742749 57.274565 119.240581 57.274565 118.717041 
C 57.274565 118.1935 57.06656 117.691332 56.696361 117.321133 
C 56.326162 116.950934 55.823994 116.74293 55.300454 116.74293 
C 54.776913 116.74293 54.274745 116.950934 53.904546 117.321133 
C 53.534347 117.691332 53.326343 118.1935 53.326343 118.717041 
C 53.326343 119.240581 53.534347 119.742749 53.904546 120.112948 
C 54.274745 120.483147 54.776913 120.691152 55.300454 120.691152 
z
" clip-path="url(#p8e593576df)" style="stroke: #000000"/>
    <path d="M 50.803962 113.472029 
C 51.152989 113.472029 51.487767 113.333359 51.734567 113.08656 
C 51.981366 112.839761 52.120036 112.504982 52.120036 112.155955 
C 52.120036 111.806928 51.981366 111.47215 51.734567 111.22535 
C 51.487767 110.978551 51.152989 110.839881 50.803962 110.839881 
C 50.454935 110.839881 50.120156 110.978551 49.873357 111.22535 
C 49.626558 111.47215 49.487888 111.806928 49.487888 112.155955 
C 49.487888 112.504982 49.626558 112.839761 49.873357 113.08656 
C 50.120156 113.333359 50.454935 113.472029 50.803962 113.472029 
z
" clip-path="url(#p8e593576df)" style="stroke: #000000"/>
    <path d="M 49.513311 109.02756 
C 50.106323 109.02756 50.675127 108.791954 51.09445 108.372631 
C 51.513773 107.953308 51.749379 107.384504 51.749379 106.791492 
C 51.749379 106.19848 51.513773 105.629676 51.09445 105.210353 
C 50.675127 104.79103 50.106323 104.555424 49.513311 104.555424 
C 48.920299 104.555424 48.351495 104.79103 47.932172 105.210353 
C 47.51285 105.629676 47.277243 106.19848 47.277243 106.791492 
C 47.277243 107.384504 47.51285 107.953308 47.932172 108.372631 
C 48.351495 108.791954 48.920299 109.02756 49.513311 109.02756 
z
" clip-path="url(#p8e593576df)" style="stroke: #000000"/>
    <path d="M 48.493032 114.452626 
C 48.708718 114.452626 48.9156 114.366933 49.068113 114.214419 
C 49.220627 114.061906 49.30632 113.855024 49.30632 113.639338 
C 49.30632 113.423651 49.220627 113.21677 49.068113 113.064256 
C 48.9156 112.911743 48.708718 112.826049 48.493032 112.826049 
C 48.277345 112.826049 48.070464 112.911743 47.91795 113.064256 
C 47.765437 113.21677 47.679744 113.423651 47.679744 113.639338 
C 47.679744 113.855024 47.765437 114.061906 47.91795 114.214419 
C 48.070464 114.366933 48.277345 114.452626 48.493032 114.452626 
z
" clip-path="url(#p8e593576df)" style="stroke: #000000"/>
    <path d="M 48.152154 111.230839 
C 48.56504 111.230839 48.961072 111.066797 49.253026 110.774843 
C 49.544981 110.482888 49.709023 110.086857 49.709023 109.67397 
C 49.709023 109.261084 49.544981 108.865053 49.253026 108.573098 
C 48.961072 108.281143 48.56504 108.117102 48.152154 108.117102 
C 47.739268 108.117102 47.343236 108.281143 47.051282 108.573098 
C 46.759327 108.865053 46.595285 109.261084 46.595285 109.67397 
C 46.595285 110.086857 46.759327 110.482888 47.051282 110.774843 
C 47.343236 111.066797 47.739268 111.230839 48.152154 111.230839 
z
" clip-path="url(#p8e593576df)" style="stroke: #000000"/>
   </g>
   <g id="matplotlib.axis_1">
    <g id="xtick_1">
     <g id="line2d_1">
      <defs>
       <path id="m7f525d8492" d="M 0 0 
L 0 3.5 
" style="stroke: #000000; stroke-width: 0.8"/>
      </defs>
      <g>
       <use xlink:href="#m7f525d8492" x="18" y="189" style="stroke: #000000; stroke-width: 0.8"/>
      </g>
     </g>
     <g id="text_1">
      <!-- 10 -->
      <g transform="translate(7.447656 203.598437)scale(0.1 -0.1)">
       <defs>
        <path id="DejaVuSans-2212" d="M 678 2272 
L 4684 2272 
L 4684 1741 
L 678 1741 
L 678 2272 
z
" transform="scale(0.015625)"/>
        <path id="DejaVuSans-31" d="M 794 531 
L 1825 531 
L 1825 4091 
L 703 3866 
L 703 4441 
L 1819 4666 
L 2450 4666 
L 2450 531 
L 3481 531 
L 3481 0 
L 794 0 
L 794 531 
z
" transform="scale(0.015625)"/>
        <path id="DejaVuSans-30" d="M 2034 4250 
Q 1547 4250 1301 3770 
Q 1056 3291 1056 2328 
Q 1056 1369 1301 889 
Q 1547 409 2034 409 
Q 2525 409 2770 889 
Q 3016 1369 3016 2328 
Q 3016 3291 2770 3770 
Q 2525 4250 2034 4250 
z
M 2034 4750 
Q 2819 4750 3233 4129 
Q 3647 3509 3647 2328 
Q 3647 1150 3233 529 
Q 2819 -91 2034 -91 
Q 1250 -91 836 529 
Q 422 1150 422 2328 
Q 422 3509 836 4129 
Q 1250 4750 2034 4750 
z
" transform="scale(0.015625)"/>
       </defs>
       <use xlink:href="#DejaVuSans-2212"/>
       <use xlink:href="#DejaVuSans-31" x="83.789062"/>
       <use xlink:href="#DejaVuSans-30" x="147.412109"/>
      </g>
     </g>
    </g>
    <g id="xtick_2">
     <g id="line2d_2">
      <g>
       <use xlink:href="#m7f525d8492" x="73.8" y="189" style="stroke: #000000; stroke-width: 0.8"/>
      </g>
     </g>
     <g id="text_2">
      <!-- 0 -->
      <g transform="translate(70.61875 203.598437)scale(0.1 -0.1)">
       <use xlink:href="#DejaVuSans-30"/>
      </g>
     </g>
    </g>
    <g id="xtick_3">
     <g id="line2d_3">
      <g>
       <use xlink:href="#m7f525d8492" x="129.6" y="189" style="stroke: #000000; stroke-width: 0.8"/>
      </g>
     </g>
     <g id="text_3">
      <!-- 10 -->
      <g transform="translate(123.2375 203.598437)scale(0.1 -0.1)">
       <use xlink:href="#DejaVuSans-31"/>
       <use xlink:href="#DejaVuSans-30" x="63.623047"/>
      </g>
     </g>
    </g>
   </g>
   <g id="matplotlib.axis_2">
    <g id="ytick_1">
     <g id="line2d_4">
      <defs>
       <path id="mc132bdd3b5" d="M 0 0 
L -3.5 0 
" style="stroke: #000000; stroke-width: 0.8"/>
      </defs>
      <g>
       <use xlink:href="#mc132bdd3b5" x="18" y="189" style="stroke: #000000; stroke-width: 0.8"/>
      </g>
     </g>
     <g id="text_4">
      <!-- 15 -->
      <g transform="translate(-10.104688 192.799219)scale(0.1 -0.1)">
       <defs>
        <path id="DejaVuSans-35" d="M 691 4666 
L 3169 4666 
L 3169 4134 
L 1269 4134 
L 1269 2991 
Q 1406 3038 1543 3061 
Q 1681 3084 1819 3084 
Q 2600 3084 3056 2656 
Q 3513 2228 3513 1497 
Q 3513 744 3044 326 
Q 2575 -91 1722 -91 
Q 1428 -91 1123 -41 
Q 819 9 494 109 
L 494 744 
Q 775 591 1075 516 
Q 1375 441 1709 441 
Q 2250 441 2565 725 
Q 2881 1009 2881 1497 
Q 2881 1984 2565 2268 
Q 2250 2553 1709 2553 
Q 1456 2553 1204 2497 
Q 953 2441 691 2322 
L 691 4666 
z
" transform="scale(0.015625)"/>
       </defs>
       <use xlink:href="#DejaVuSans-2212"/>
       <use xlink:href="#DejaVuSans-31" x="83.789062"/>
       <use xlink:href="#DejaVuSans-35" x="147.412109"/>
      </g>
     </g>
    </g>
    <g id="ytick_2">
     <g id="line2d_5">
      <g>
       <use xlink:href="#mc132bdd3b5" x="18" y="161.82" style="stroke: #000000; stroke-width: 0.8"/>
      </g>
     </g>
     <g id="text_5">
      <!-- 10 -->
      <g transform="translate(-10.104688 165.619219)scale(0.1 -0.1)">
       <use xlink:href="#DejaVuSans-2212"/>
       <use xlink:href="#DejaVuSans-31" x="83.789062"/>
       <use xlink:href="#DejaVuSans-30" x="147.412109"/>
      </g>
     </g>
    </g>
    <g id="ytick_3">
     <g id="line2d_6">
      <g>
       <use xlink:href="#mc132bdd3b5" x="18" y="134.64" style="stroke: #000000; stroke-width: 0.8"/>
      </g>
     </g>
     <g id="text_6">
      <!-- 5 -->
      <g transform="translate(-3.742188 138.439219)scale(0.1 -0.1)">
       <use xlink:href="#DejaVuSans-2212"/>
       <use xlink:href="#DejaVuSans-35" x="83.789062"/>
      </g>
     </g>
    </g>
    <g id="ytick_4">
     <g id="line2d_7">
      <g>
       <use xlink:href="#mc132bdd3b5" x="18" y="107.46" style="stroke: #000000; stroke-width: 0.8"/>
      </g>
     </g>
     <g id="text_7">
      <!-- 0 -->
      <g transform="translate(4.6375 111.259219)scale(0.1 -0.1)">
       <use xlink:href="#DejaVuSans-30"/>
      </g>
     </g>
    </g>
    <g id="ytick_5">
     <g id="line2d_8">
      <g>
       <use xlink:href="#mc132bdd3b5" x="18" y="80.28" style="stroke: #000000; stroke-width: 0.8"/>
      </g>
     </g>
     <g id="text_8">
      <!-- 5 -->
      <g transform="translate(4.6375 84.079219)scale(0.1 -0.1)">
       <use xlink:href="#DejaVuSans-35"/>
      </g>
     </g>
    </g>
    <g id="ytick_6">
     <g id="line2d_9">
      <g>
       <use xlink:href="#mc132bdd3b5" x="18" y="53.1" style="stroke: #000000; stroke-width: 0.8"/>
      </g>
     </g>
     <g id="text_9">
      <!-- 10 -->
      <g transform="translate(-1.725 56.899219)scale(0.1 -0.1)">
       <use xlink:href="#DejaVuSans-31"/>
       <use xlink:href="#DejaVuSans-30" x="63.623047"/>
      </g>
     </g>
    </g>
    <g id="ytick_7">
     <g id="line2d_10">
      <g>
       <use xlink:href="#mc132bdd3b5" x="18" y="25.92" style="stroke: #000000; stroke-width: 0.8"/>
      </g>
     </g>
     <g id="text_10">
      <!-- 15 -->
      <g transform="translate(-1.725 29.719219)scale(0.1 -0.1)">
       <use xlink:href="#DejaVuSans-31"/>
       <use xlink:href="#DejaVuSans-35" x="63.623047"/>
      </g>
     </g>
    </g>
   </g>
   <g id="patch_3">
    <path d="M 18 189 
L 18 25.92 
" style="fill: none; stroke: #000000; stroke-width: 0.8; stroke-linejoin: miter; stroke-linecap: square"/>
   </g>
   <g id="patch_4">
    <path d="M 129.6 189 
L 129.6 25.92 
" style="fill: none; stroke: #000000; stroke-width: 0.8; stroke-linejoin: miter; stroke-linecap: square"/>
   </g>
   <g id="patch_5">
    <path d="M 18 189 
L 129.6 189 
" style="fill: none; stroke: #000000; stroke-width: 0.8; stroke-linejoin: miter; stroke-linecap: square"/>
   </g>
   <g id="patch_6">
    <path d="M 18 25.92 
L 129.6 25.92 
" style="fill: none; stroke: #000000; stroke-width: 0.8; stroke-linejoin: miter; stroke-linecap: square"/>
   </g>
  </g>
 </g>
 <defs>
  <clipPath id="p8e593576df">
   <rect x="18" y="25.92" width="111.6" height="163.08"/>
  </clipPath>
 </defs>
</svg>
