<?xml version="1.0" encoding="utf-8" standalone="no"?>
<!DOCTYPE svg PUBLIC "-//W3C//DTD SVG 1.1//EN"
  "http://www.w3.org/Graphics/SVG/1.1/DTD/svg11.dtd">
<svg xmlns:xlink="http://www.w3.org/1999/xlink" width="144pt" height="216pt" viewBox="0 0 144 216" xmlns="http://www.w3.org/2000/svg" version="1.1">
 <metadata>
  <rdf:RDF xmlns:dc="http://purl.org/dc/elements/1.1/" xmlns:cc="http://creativecommons.org/ns#" xmlns:rdf="http://www.w3.org/1999/02/22-rdf-syntax-ns#">
   <cc:Work>
    <dc:type rdf:resource="http://purl.org/dc/dcmitype/StillImage"/>
    <dc:date>2022-06-23T14:47:26.887032</dc:date>
    <dc:format>image/svg+xml</dc:format>
    <dc:creator>
     <cc:Agent>
      <dc:title>Matplotlib v3.5.1, https://matplotlib.org/</dc:title>
     </cc:Agent>
    </dc:creator>
   </cc:Work>
  </rdf:RDF>
 </metadata>
 <defs>
  <style type="text/css">*{stroke-linejoin: round; stroke-linecap: butt}</style>
 </defs>
 <g id="figure_1">
  <g id="patch_1">
   <path d="M 0 216 
L 144 216 
L 144 0 
L 0 0 
L 0 216 
z
" style="fill: none"/>
  </g>
  <g id="axes_1">
   <g id="patch_2">
    <path d="M 18 189 
L 129.6 189 
L 129.6 25.92 
L 18 25.92 
z
" style="fill: #ffffff"/>
   </g>
   <g id="PathCollection_1">
    <defs>
     <path id="mac4c59fa07" d="M 0 2.738613 
C 0.726289 2.738613 1.422928 2.450055 1.936492 1.936492 
C 2.450055 1.422928 2.738613 0.726289 2.738613 0 
C 2.738613 -0.726289 2.450055 -1.422928 1.936492 -1.936492 
C 1.422928 -2.450055 0.726289 -2.738613 0 -2.738613 
C -0.726289 -2.738613 -1.422928 -2.450055 -1.936492 -1.936492 
C -2.450055 -1.422928 -2.738613 -0.726289 -2.738613 0 
C -2.738613 0.726289 -2.450055 1.422928 -1.936492 1.936492 
C -1.422928 2.450055 -0.726289 2.738613 0 2.738613 
z
" style="stroke: #ff0000; stroke-width: 1.75"/>
    </defs>
    <g clip-path="url(#p8ca5cfc6f4)">
     <use xlink:href="#mac4c59fa07" x="80.775" y="107.46" style="fill: #ff0000; stroke: #ff0000; stroke-width: 1.75"/>
     <use xlink:href="#mac4c59fa07" x="94.725" y="107.46" style="fill: #ff0000; stroke: #ff0000; stroke-width: 1.75"/>
     <use xlink:href="#mac4c59fa07" x="59.85" y="119.229285" style="fill: #ff0000; stroke: #ff0000; stroke-width: 1.75"/>
     <use xlink:href="#mac4c59fa07" x="73.8" y="119.229285" style="fill: #ff0000; stroke: #ff0000; stroke-width: 1.75"/>
     <use xlink:href="#mac4c59fa07" x="87.75" y="119.229285" style="fill: #ff0000; stroke: #ff0000; stroke-width: 1.75"/>
     <use xlink:href="#mac4c59fa07" x="66.825" y="130.99857" style="fill: #ff0000; stroke: #ff0000; stroke-width: 1.75"/>
     <use xlink:href="#mac4c59fa07" x="80.775" y="130.99857" style="fill: #ff0000; stroke: #ff0000; stroke-width: 1.75"/>
    </g>
   </g>
   <g id="PathCollection_2">
    <defs>
     <path id="C0_0_51c1a2c15c" d="M 0 2.738613 
C 0.726289 2.738613 1.422928 2.450055 1.936492 1.936492 
C 2.450055 1.422928 2.738613 0.726289 2.738613 -0 
C 2.738613 -0.726289 2.450055 -1.422928 1.936492 -1.936492 
C 1.422928 -2.450055 0.726289 -2.738613 0 -2.738613 
C -0.726289 -2.738613 -1.422928 -2.450055 -1.936492 -1.936492 
C -2.450055 -1.422928 -2.738613 -0.726289 -2.738613 0 
C -2.738613 0.726289 -2.450055 1.422928 -1.936492 1.936492 
C -1.422928 2.450055 -0.726289 2.738613 0 2.738613 
z
"/>
    </defs>
    <g clip-path="url(#p8ca5cfc6f4)">
     <use xlink:href="#C0_0_51c1a2c15c" x="66.825" y="83.92143" style="fill: none; stroke: #ff0000; stroke-width: 1.75"/>
    </g>
    <g clip-path="url(#p8ca5cfc6f4)">
     <use xlink:href="#C0_0_51c1a2c15c" x="80.775" y="83.92143" style="fill: none; stroke: #ff0000; stroke-width: 1.75"/>
    </g>
    <g clip-path="url(#p8ca5cfc6f4)">
     <use xlink:href="#C0_0_51c1a2c15c" x="59.85" y="95.690715" style="fill: none; stroke: #ff0000; stroke-width: 1.75"/>
    </g>
    <g clip-path="url(#p8ca5cfc6f4)">
     <use xlink:href="#C0_0_51c1a2c15c" x="73.8" y="95.690715" style="fill: none; stroke: #ff0000; stroke-width: 1.75"/>
    </g>
    <g clip-path="url(#p8ca5cfc6f4)">
     <use xlink:href="#C0_0_51c1a2c15c" x="87.75" y="95.690715" style="fill: none; stroke: #ff0000; stroke-width: 1.75"/>
    </g>
    <g clip-path="url(#p8ca5cfc6f4)">
     <use xlink:href="#C0_0_51c1a2c15c" x="52.875" y="107.46" style="fill: none; stroke: #ff0000; stroke-width: 1.75"/>
    </g>
    <g clip-path="url(#p8ca5cfc6f4)">
     <use xlink:href="#C0_0_51c1a2c15c" x="66.825" y="107.46" style="fill: none; stroke: #ff0000; stroke-width: 1.75"/>
    </g>
   </g>
   <g id="PathCollection_3">
    <path d="M 115.341442 152.761162 
C 115.474044 152.761162 115.601232 152.708479 115.694996 152.614715 
C 115.788759 152.520952 115.841442 152.393764 115.841442 152.261162 
C 115.841442 152.12856 115.788759 152.001372 115.694996 151.907609 
C 115.601232 151.813845 115.474044 151.761162 115.341442 151.761162 
C 115.208841 151.761162 115.081652 151.813845 114.987889 151.907609 
C 114.894125 152.001372 114.841442 152.12856 114.841442 152.261162 
C 114.841442 152.393764 114.894125 152.520952 114.987889 152.614715 
C 115.081652 152.708479 115.208841 152.761162 115.341442 152.761162 
z
" clip-path="url(#p8ca5cfc6f4)" style="stroke: #000000"/>
    <path d="M 97.951923 116.674015 
C 98.245418 116.674015 98.526932 116.557408 98.734465 116.349876 
C 98.941998 116.142343 99.058605 115.860829 99.058605 115.567333 
C 99.058605 115.273838 98.941998 114.992324 98.734465 114.784791 
C 98.526932 114.577259 98.245418 114.460652 97.951923 114.460652 
C 97.658427 114.460652 97.376913 114.577259 97.16938 114.784791 
C 96.961848 114.992324 96.845241 115.273838 96.845241 115.567333 
C 96.845241 115.860829 96.961848 116.142343 97.16938 116.349876 
C 97.376913 116.557408 97.658427 116.674015 97.951923 116.674015 
z
" clip-path="url(#p8ca5cfc6f4)" style="stroke: #000000"/>
    <path d="M 96.931097 114.243942 
C 97.207943 114.243942 97.473486 114.13395 97.669245 113.938191 
C 97.865004 113.742432 97.974996 113.476888 97.974996 113.200043 
C 97.974996 112.923198 97.865004 112.657654 97.669245 112.461895 
C 97.473486 112.266136 97.207943 112.156144 96.931097 112.156144 
C 96.654252 112.156144 96.388709 112.266136 96.19295 112.461895 
C 95.99719 112.657654 95.887199 112.923198 95.887199 113.200043 
C 95.887199 113.476888 95.99719 113.742432 96.19295 113.938191 
C 96.388709 114.13395 96.654252 114.243942 96.931097 114.243942 
z
" clip-path="url(#p8ca5cfc6f4)" style="stroke: #000000"/>
    <path d="M 94.437509 108.848887 
C 94.93492 108.848887 95.412024 108.651264 95.763747 108.299541 
C 96.115469 107.947819 96.313092 107.470714 96.313092 106.973304 
C 96.313092 106.475893 96.115469 105.998789 95.763747 105.647066 
C 95.412024 105.295344 94.93492 105.097721 94.437509 105.097721 
C 93.940099 105.097721 93.462994 105.295344 93.111272 105.647066 
C 92.759549 105.998789 92.561926 106.475893 92.561926 106.973304 
C 92.561926 107.470714 92.759549 107.947819 93.111272 108.299541 
C 93.462994 108.651264 93.940099 108.848887 94.437509 108.848887 
z
" clip-path="url(#p8ca5cfc6f4)" style="stroke: #000000"/>
    <path d="M 89.65851 95.798888 
C 90.25078 95.798888 90.818871 95.563576 91.237669 95.144779 
C 91.656467 94.725981 91.891778 94.157889 91.891778 93.56562 
C 91.891778 92.97335 91.656467 92.405259 91.237669 91.986461 
C 90.818871 91.567663 90.25078 91.332352 89.65851 91.332352 
C 89.066241 91.332352 88.498149 91.567663 88.079351 91.986461 
C 87.660554 92.405259 87.425243 92.97335 87.425243 93.56562 
C 87.425243 94.157889 87.660554 94.725981 88.079351 95.144779 
C 88.498149 95.563576 89.066241 95.798888 89.65851 95.798888 
z
" clip-path="url(#p8ca5cfc6f4)" style="stroke: #000000"/>
    <path d="M 85.458433 86.893174 
C 85.719392 86.893174 85.969697 86.789494 86.154223 86.604968 
C 86.338748 86.420443 86.442428 86.170137 86.442428 85.909179 
C 86.442428 85.64822 86.338748 85.397915 86.154223 85.213389 
C 85.969697 85.028864 85.719392 84.925184 85.458433 84.925184 
C 85.197475 84.925184 84.947169 85.028864 84.762644 85.213389 
C 84.578118 85.397915 84.474438 85.64822 84.474438 85.909179 
C 84.474438 86.170137 84.578118 86.420443 84.762644 86.604968 
C 84.947169 86.789494 85.197475 86.893174 85.458433 86.893174 
z
" clip-path="url(#p8ca5cfc6f4)" style="stroke: #000000"/>
    <path d="M 84.108279 82.872605 
C 84.474216 82.872605 84.825214 82.727217 85.08397 82.468461 
C 85.342726 82.209705 85.488114 81.858707 85.488114 81.492771 
C 85.488114 81.126834 85.342726 80.775836 85.08397 80.51708 
C 84.825214 80.258324 84.474216 80.112936 84.108279 80.112936 
C 83.742343 80.112936 83.391345 80.258324 83.132589 80.51708 
C 82.873833 80.775836 82.728445 81.126834 82.728445 81.492771 
C 82.728445 81.858707 82.873833 82.209705 83.132589 82.468461 
C 83.391345 82.727217 83.742343 82.872605 84.108279 82.872605 
z
" clip-path="url(#p8ca5cfc6f4)" style="stroke: #000000"/>
    <path d="M 91.454581 115.853634 
C 91.927653 115.853634 92.381413 115.665681 92.715926 115.331168 
C 93.050438 114.996656 93.238392 114.542896 93.238392 114.069824 
C 93.238392 113.596752 93.050438 113.142992 92.715926 112.808479 
C 92.381413 112.473967 91.927653 112.286013 91.454581 112.286013 
C 90.981509 112.286013 90.527749 112.473967 90.193237 112.808479 
C 89.858724 113.142992 89.670771 113.596752 89.670771 114.069824 
C 89.670771 114.542896 89.858724 114.996656 90.193237 115.331168 
C 90.527749 115.665681 90.981509 115.853634 91.454581 115.853634 
z
" clip-path="url(#p8ca5cfc6f4)" style="stroke: #000000"/>
    <path d="M 87.138921 97.740612 
C 87.638205 97.740612 88.117106 97.542245 88.470153 97.189198 
C 88.8232 96.83615 89.021568 96.357249 89.021568 95.857965 
C 89.021568 95.358681 88.8232 94.879779 88.470153 94.526732 
C 88.117106 94.173685 87.638205 93.975317 87.138921 93.975317 
C 86.639637 93.975317 86.160735 94.173685 85.807688 94.526732 
C 85.454641 94.879779 85.256273 95.358681 85.256273 95.857965 
C 85.256273 96.357249 85.454641 96.83615 85.807688 97.189198 
C 86.160735 97.542245 86.639637 97.740612 87.138921 97.740612 
z
" clip-path="url(#p8ca5cfc6f4)" style="stroke: #000000"/>
    <path d="M 83.09894 88.873539 
C 83.414321 88.873539 83.716828 88.748236 83.939836 88.525228 
C 84.162844 88.30222 84.288147 87.999713 84.288147 87.684332 
C 84.288147 87.36895 84.162844 87.066444 83.939836 86.843435 
C 83.716828 86.620427 83.414321 86.495124 83.09894 86.495124 
C 82.783558 86.495124 82.481051 86.620427 82.258043 86.843435 
C 82.035035 87.066444 81.909732 87.36895 81.909732 87.684332 
C 81.909732 87.999713 82.035035 88.30222 82.258043 88.525228 
C 82.481051 88.748236 82.783558 88.873539 83.09894 88.873539 
z
" clip-path="url(#p8ca5cfc6f4)" style="stroke: #000000"/>
    <path d="M 82.076926 84.662617 
C 82.360785 84.662617 82.633057 84.549839 82.833776 84.34912 
C 83.034495 84.148401 83.147273 83.876129 83.147273 83.59227 
C 83.147273 83.30841 83.034495 83.036139 82.833776 82.83542 
C 82.633057 82.634701 82.360785 82.521922 82.076926 82.521922 
C 81.793066 82.521922 81.520795 82.634701 81.320076 82.83542 
C 81.119357 83.036139 81.006578 83.30841 81.006578 83.59227 
C 81.006578 83.876129 81.119357 84.148401 81.320076 84.34912 
C 81.520795 84.549839 81.793066 84.662617 82.076926 84.662617 
z
" clip-path="url(#p8ca5cfc6f4)" style="stroke: #000000"/>
    <path d="M 79.454085 75.805779 
C 79.586687 75.805779 79.713875 75.753096 79.807638 75.659333 
C 79.901402 75.565569 79.954085 75.438381 79.954085 75.305779 
C 79.954085 75.173178 79.901402 75.045989 79.807638 74.952226 
C 79.713875 74.858463 79.586687 74.805779 79.454085 74.805779 
C 79.321484 74.805779 79.194295 74.858463 79.100532 74.952226 
C 79.006768 75.045989 78.954085 75.173178 78.954085 75.305779 
C 78.954085 75.438381 79.006768 75.565569 79.100532 75.659333 
C 79.194295 75.753096 79.321484 75.805779 79.454085 75.805779 
z
" clip-path="url(#p8ca5cfc6f4)" style="stroke: #000000"/>
    <path d="M 72.839917 61.853144 
C 72.972519 61.853144 73.099707 61.800461 73.193471 61.706697 
C 73.287234 61.612934 73.339917 61.485745 73.339917 61.353144 
C 73.339917 61.220542 73.287234 61.093354 73.193471 60.99959 
C 73.099707 60.905827 72.972519 60.853144 72.839917 60.853144 
C 72.707316 60.853144 72.580127 60.905827 72.486364 60.99959 
C 72.3926 61.093354 72.339917 61.220542 72.339917 61.353144 
C 72.339917 61.485745 72.3926 61.612934 72.486364 61.706697 
C 72.580127 61.800461 72.707316 61.853144 72.839917 61.853144 
z
" clip-path="url(#p8ca5cfc6f4)" style="stroke: #000000"/>
    <path d="M 93.021669 126.328972 
C 93.263158 126.328972 93.494788 126.233027 93.665547 126.062269 
C 93.836305 125.891511 93.93225 125.65988 93.93225 125.418392 
C 93.93225 125.176903 93.836305 124.945273 93.665547 124.774514 
C 93.494788 124.603756 93.263158 124.507812 93.021669 124.507812 
C 92.780181 124.507812 92.54855 124.603756 92.377792 124.774514 
C 92.207034 124.945273 92.111089 125.176903 92.111089 125.418392 
C 92.111089 125.65988 92.207034 125.891511 92.377792 126.062269 
C 92.54855 126.233027 92.780181 126.328972 93.021669 126.328972 
z
" clip-path="url(#p8ca5cfc6f4)" style="stroke: #000000"/>
    <path d="M 90.725149 123.28422 
C 90.85775 123.28422 90.984939 123.231537 91.078702 123.137774 
C 91.172466 123.04401 91.225149 122.916822 91.225149 122.78422 
C 91.225149 122.651619 91.172466 122.52443 91.078702 122.430667 
C 90.984939 122.336903 90.85775 122.28422 90.725149 122.28422 
C 90.592547 122.28422 90.465359 122.336903 90.371595 122.430667 
C 90.277832 122.52443 90.225149 122.651619 90.225149 122.78422 
C 90.225149 122.916822 90.277832 123.04401 90.371595 123.137774 
C 90.465359 123.231537 90.592547 123.28422 90.725149 123.28422 
z
" clip-path="url(#p8ca5cfc6f4)" style="stroke: #000000"/>
    <path d="M 88.661441 120.940677 
C 89.148483 120.940677 89.615643 120.747173 89.960033 120.402783 
C 90.304424 120.058392 90.497928 119.591232 90.497928 119.10419 
C 90.497928 118.617148 90.304424 118.149989 89.960033 117.805598 
C 89.615643 117.461207 89.148483 117.267703 88.661441 117.267703 
C 88.174399 117.267703 87.707239 117.461207 87.362849 117.805598 
C 87.018458 118.149989 86.824954 118.617148 86.824954 119.10419 
C 86.824954 119.591232 87.018458 120.058392 87.362849 120.402783 
C 87.707239 120.747173 88.174399 120.940677 88.661441 120.940677 
z
" clip-path="url(#p8ca5cfc6f4)" style="stroke: #000000"/>
    <path d="M 86.368171 114.994672 
C 86.701646 114.994672 87.021508 114.862181 87.25731 114.626379 
C 87.493113 114.390576 87.625604 114.070714 87.625604 113.737239 
C 87.625604 113.403764 87.493113 113.083902 87.25731 112.848099 
C 87.021508 112.612297 86.701646 112.479805 86.368171 112.479805 
C 86.034696 112.479805 85.714834 112.612297 85.479031 112.848099 
C 85.243228 113.083902 85.110737 113.403764 85.110737 113.737239 
C 85.110737 114.070714 85.243228 114.390576 85.479031 114.626379 
C 85.714834 114.862181 86.034696 114.994672 86.368171 114.994672 
z
" clip-path="url(#p8ca5cfc6f4)" style="stroke: #000000"/>
    <path d="M 84.309559 107.798044 
C 84.89996 107.798044 85.466258 107.563475 85.883735 107.145999 
C 86.301211 106.728523 86.535779 106.162224 86.535779 105.571823 
C 86.535779 104.981423 86.301211 104.415124 85.883735 103.997648 
C 85.466258 103.580172 84.89996 103.345603 84.309559 103.345603 
C 83.719159 103.345603 83.15286 103.580172 82.735384 103.997648 
C 82.317907 104.415124 82.083339 104.981423 82.083339 105.571823 
C 82.083339 106.162224 82.317907 106.728523 82.735384 107.145999 
C 83.15286 107.563475 83.719159 107.798044 84.309559 107.798044 
z
" clip-path="url(#p8ca5cfc6f4)" style="stroke: #000000"/>
    <path d="M 82.536184 98.051423 
C 82.887015 98.051423 83.223524 97.912036 83.471599 97.663961 
C 83.719673 97.415887 83.85906 97.079378 83.85906 96.728547 
C 83.85906 96.377716 83.719673 96.041207 83.471599 95.793133 
C 83.223524 95.545058 82.887015 95.405671 82.536184 95.405671 
C 82.185353 95.405671 81.848845 95.545058 81.60077 95.793133 
C 81.352695 96.041207 81.213309 96.377716 81.213309 96.728547 
C 81.213309 97.079378 81.352695 97.415887 81.60077 97.663961 
C 81.848845 97.912036 82.185353 98.051423 82.536184 98.051423 
z
" clip-path="url(#p8ca5cfc6f4)" style="stroke: #000000"/>
    <path d="M 78.476514 88.418931 
C 78.77302 88.418931 79.057422 88.301127 79.267084 88.091466 
C 79.476745 87.881805 79.594548 87.597403 79.594548 87.300897 
C 79.594548 87.004391 79.476745 86.719989 79.267084 86.510327 
C 79.057422 86.300666 78.77302 86.182863 78.476514 86.182863 
C 78.180008 86.182863 77.895606 86.300666 77.685945 86.510327 
C 77.476283 86.719989 77.35848 87.004391 77.35848 87.300897 
C 77.35848 87.597403 77.476283 87.881805 77.685945 88.091466 
C 77.895606 88.301127 78.180008 88.418931 78.476514 88.418931 
z
" clip-path="url(#p8ca5cfc6f4)" style="stroke: #000000"/>
    <path d="M 78.505777 86.850874 
C 79.004438 86.850874 79.482743 86.652753 79.835351 86.300146 
C 80.187958 85.947539 80.386078 85.469234 80.386078 84.970572 
C 80.386078 84.47191 80.187958 83.993605 79.835351 83.640998 
C 79.482743 83.288391 79.004438 83.090271 78.505777 83.090271 
C 78.007115 83.090271 77.52881 83.288391 77.176203 83.640998 
C 76.823596 83.993605 76.625475 84.47191 76.625475 84.970572 
C 76.625475 85.469234 76.823596 85.947539 77.176203 86.300146 
C 77.52881 86.652753 78.007115 86.850874 78.505777 86.850874 
z
" clip-path="url(#p8ca5cfc6f4)" style="stroke: #000000"/>
    <path d="M 75.624845 81.602014 
C 75.799358 81.602014 75.966748 81.532679 76.090147 81.409279 
C 76.213547 81.28588 76.282882 81.11849 76.282882 80.943977 
C 76.282882 80.769463 76.213547 80.602074 76.090147 80.478674 
C 75.966748 80.355275 75.799358 80.28594 75.624845 80.28594 
C 75.450332 80.28594 75.282942 80.355275 75.159543 80.478674 
C 75.036143 80.602074 74.966808 80.769463 74.966808 80.943977 
C 74.966808 81.11849 75.036143 81.28588 75.159543 81.409279 
C 75.282942 81.532679 75.450332 81.602014 75.624845 81.602014 
z
" clip-path="url(#p8ca5cfc6f4)" style="stroke: #000000"/>
    <path d="M 84.964843 122.14597 
C 85.46288 122.14597 85.940586 121.948098 86.292752 121.595932 
C 86.644917 121.243766 86.84279 120.76606 86.84279 120.268023 
C 86.84279 119.769986 86.644917 119.29228 86.292752 118.940114 
C 85.940586 118.587949 85.46288 118.390076 84.964843 118.390076 
C 84.466806 118.390076 83.989099 118.587949 83.636934 118.940114 
C 83.284768 119.29228 83.086896 119.769986 83.086896 120.268023 
C 83.086896 120.76606 83.284768 121.243766 83.636934 121.595932 
C 83.989099 121.948098 84.466806 122.14597 84.964843 122.14597 
z
" clip-path="url(#p8ca5cfc6f4)" style="stroke: #000000"/>
    <path d="M 83.373067 116.133071 
C 83.660247 116.133071 83.935703 116.018973 84.13877 115.815907 
C 84.341837 115.61284 84.455935 115.337383 84.455935 115.050203 
C 84.455935 114.763023 84.341837 114.487566 84.13877 114.284499 
C 83.935703 114.081432 83.660247 113.967335 83.373067 113.967335 
C 83.085887 113.967335 82.81043 114.081432 82.607363 114.284499 
C 82.404296 114.487566 82.290198 114.763023 82.290198 115.050203 
C 82.290198 115.337383 82.404296 115.61284 82.607363 115.815907 
C 82.81043 116.018973 83.085887 116.133071 83.373067 116.133071 
z
" clip-path="url(#p8ca5cfc6f4)" style="stroke: #000000"/>
    <path d="M 80.136484 108.42319 
C 80.483679 108.42319 80.8167 108.285248 81.062203 108.039745 
C 81.307707 107.794241 81.445649 107.46122 81.445649 107.114025 
C 81.445649 106.76683 81.307707 106.433809 81.062203 106.188305 
C 80.8167 105.942802 80.483679 105.80486 80.136484 105.80486 
C 79.789289 105.80486 79.456268 105.942802 79.210764 106.188305 
C 78.96526 106.433809 78.827319 106.76683 78.827319 107.114025 
C 78.827319 107.46122 78.96526 107.794241 79.210764 108.039745 
C 79.456268 108.285248 79.789289 108.42319 80.136484 108.42319 
z
" clip-path="url(#p8ca5cfc6f4)" style="stroke: #000000"/>
    <path d="M 75.376783 94.284868 
C 75.653628 94.284868 75.919172 94.174876 76.114931 93.979117 
C 76.31069 93.783358 76.420682 93.517814 76.420682 93.240969 
C 76.420682 92.964123 76.31069 92.69858 76.114931 92.502821 
C 75.919172 92.307062 75.653628 92.19707 75.376783 92.19707 
C 75.099938 92.19707 74.834394 92.307062 74.638635 92.502821 
C 74.442876 92.69858 74.332884 92.964123 74.332884 93.240969 
C 74.332884 93.517814 74.442876 93.783358 74.638635 93.979117 
C 74.834394 94.174876 75.099938 94.284868 75.376783 94.284868 
z
" clip-path="url(#p8ca5cfc6f4)" style="stroke: #000000"/>
    <path d="M 73.598205 93.028392 
C 74.092445 93.028392 74.566509 92.832028 74.915989 92.482548 
C 75.26547 92.133068 75.461834 91.659004 75.461834 91.164764 
C 75.461834 90.670524 75.26547 90.19646 74.915989 89.846979 
C 74.566509 89.497499 74.092445 89.301135 73.598205 89.301135 
C 73.103965 89.301135 72.629901 89.497499 72.280421 89.846979 
C 71.93094 90.19646 71.734577 90.670524 71.734577 91.164764 
C 71.734577 91.659004 71.93094 92.133068 72.280421 92.482548 
C 72.629901 92.832028 73.103965 93.028392 73.598205 93.028392 
z
" clip-path="url(#p8ca5cfc6f4)" style="stroke: #000000"/>
    <path d="M 72.763004 85.608972 
C 73.014792 85.608972 73.256301 85.508936 73.434341 85.330895 
C 73.612382 85.152854 73.712418 84.911345 73.712418 84.659557 
C 73.712418 84.40777 73.612382 84.166261 73.434341 83.98822 
C 73.256301 83.810179 73.014792 83.710143 72.763004 83.710143 
C 72.511216 83.710143 72.269707 83.810179 72.091667 83.98822 
C 71.913626 84.166261 71.81359 84.40777 71.81359 84.659557 
C 71.81359 84.911345 71.913626 85.152854 72.091667 85.330895 
C 72.269707 85.508936 72.511216 85.608972 72.763004 85.608972 
z
" clip-path="url(#p8ca5cfc6f4)" style="stroke: #000000"/>
    <path d="M 69.519862 78.306865 
C 69.677553 78.306865 69.828806 78.244214 69.94031 78.13271 
C 70.051815 78.021206 70.114466 77.869952 70.114466 77.712262 
C 70.114466 77.554571 70.051815 77.403318 69.94031 77.291813 
C 69.828806 77.180309 69.677553 77.117658 69.519862 77.117658 
C 69.362171 77.117658 69.210918 77.180309 69.099414 77.291813 
C 68.98791 77.403318 68.925259 77.554571 68.925259 77.712262 
C 68.925259 77.869952 68.98791 78.021206 69.099414 78.13271 
C 69.210918 78.244214 69.362171 78.306865 69.519862 78.306865 
z
" clip-path="url(#p8ca5cfc6f4)" style="stroke: #000000"/>
    <path d="M 83.103528 136.603396 
C 83.687438 136.603396 84.24751 136.371407 84.660397 135.95852 
C 85.073283 135.545634 85.305273 134.985561 85.305273 134.401652 
C 85.305273 133.817742 85.073283 133.257669 84.660397 132.844783 
C 84.24751 132.431897 83.687438 132.199907 83.103528 132.199907 
C 82.519618 132.199907 81.959546 132.431897 81.546659 132.844783 
C 81.133773 133.257669 80.901783 133.817742 80.901783 134.401652 
C 80.901783 134.985561 81.133773 135.545634 81.546659 135.95852 
C 81.959546 136.371407 82.519618 136.603396 83.103528 136.603396 
z
" clip-path="url(#p8ca5cfc6f4)" style="stroke: #000000"/>
    <path d="M 84.351494 132.76422 
C 84.936565 132.76422 85.497751 132.531769 85.911459 132.118061 
C 86.325166 131.704354 86.557617 131.143167 86.557617 130.558096 
C 86.557617 129.973026 86.325166 129.411839 85.911459 128.998132 
C 85.497751 128.584424 84.936565 128.351973 84.351494 128.351973 
C 83.766423 128.351973 83.205237 128.584424 82.791529 128.998132 
C 82.377822 129.411839 82.145371 129.973026 82.145371 130.558096 
C 82.145371 131.143167 82.377822 131.704354 82.791529 132.118061 
C 83.205237 132.531769 83.766423 132.76422 84.351494 132.76422 
z
" clip-path="url(#p8ca5cfc6f4)" style="stroke: #000000"/>
    <path d="M 82.69702 127.365768 
C 82.912706 127.365768 83.119588 127.280075 83.272101 127.127562 
C 83.424615 126.975048 83.510308 126.768167 83.510308 126.55248 
C 83.510308 126.336793 83.424615 126.129912 83.272101 125.977398 
C 83.119588 125.824885 82.912706 125.739192 82.69702 125.739192 
C 82.481333 125.739192 82.274451 125.824885 82.121938 125.977398 
C 81.969425 126.129912 81.883731 126.336793 81.883731 126.55248 
C 81.883731 126.768167 81.969425 126.975048 82.121938 127.127562 
C 82.274451 127.280075 82.481333 127.365768 82.69702 127.365768 
z
" clip-path="url(#p8ca5cfc6f4)" style="stroke: #000000"/>
    <path d="M 79.741529 122.656623 
C 79.939814 122.656623 80.130005 122.577843 80.270214 122.437634 
C 80.410423 122.297425 80.489203 122.107234 80.489203 121.908948 
C 80.489203 121.710663 80.410423 121.520472 80.270214 121.380263 
C 80.130005 121.240054 79.939814 121.161274 79.741529 121.161274 
C 79.543243 121.161274 79.353052 121.240054 79.212843 121.380263 
C 79.072634 121.520472 78.993854 121.710663 78.993854 121.908948 
C 78.993854 122.107234 79.072634 122.297425 79.212843 122.437634 
C 79.353052 122.577843 79.543243 122.656623 79.741529 122.656623 
z
" clip-path="url(#p8ca5cfc6f4)" style="stroke: #000000"/>
    <path d="M 73.123293 100.398261 
C 73.280983 100.398261 73.432237 100.33561 73.543741 100.224106 
C 73.655245 100.112601 73.717896 99.961348 73.717896 99.803657 
C 73.717896 99.645967 73.655245 99.494713 73.543741 99.383209 
C 73.432237 99.271705 73.280983 99.209054 73.123293 99.209054 
C 72.965602 99.209054 72.814349 99.271705 72.702844 99.383209 
C 72.59134 99.494713 72.528689 99.645967 72.528689 99.803657 
C 72.528689 99.961348 72.59134 100.112601 72.702844 100.224106 
C 72.814349 100.33561 72.965602 100.398261 73.123293 100.398261 
z
" clip-path="url(#p8ca5cfc6f4)" style="stroke: #000000"/>
    <path d="M 72.417173 96.694911 
C 72.710669 96.694911 72.992183 96.578304 73.199716 96.370771 
C 73.407248 96.163239 73.523855 95.881725 73.523855 95.588229 
C 73.523855 95.294734 73.407248 95.013219 73.199716 94.805687 
C 72.992183 94.598154 72.710669 94.481547 72.417173 94.481547 
C 72.123678 94.481547 71.842164 94.598154 71.634631 94.805687 
C 71.427098 95.013219 71.310491 95.294734 71.310491 95.588229 
C 71.310491 95.881725 71.427098 96.163239 71.634631 96.370771 
C 71.842164 96.578304 72.123678 96.694911 72.417173 96.694911 
z
" clip-path="url(#p8ca5cfc6f4)" style="stroke: #000000"/>
    <path d="M 68.394619 93.317243 
C 68.685009 93.317243 68.963543 93.20187 69.16888 92.996534 
C 69.374216 92.791198 69.489589 92.512663 69.489589 92.222274 
C 69.489589 91.931885 69.374216 91.65335 69.16888 91.448014 
C 68.963543 91.242677 68.685009 91.127305 68.394619 91.127305 
C 68.10423 91.127305 67.825695 91.242677 67.620359 91.448014 
C 67.415023 91.65335 67.29965 91.931885 67.29965 92.222274 
C 67.29965 92.512663 67.415023 92.791198 67.620359 92.996534 
C 67.825695 93.20187 68.10423 93.317243 68.394619 93.317243 
z
" clip-path="url(#p8ca5cfc6f4)" style="stroke: #000000"/>
    <path d="M 68.060019 87.241532 
C 68.336864 87.241532 68.602408 87.13154 68.798167 86.935781 
C 68.993926 86.740022 69.103918 86.474479 69.103918 86.197633 
C 69.103918 85.920788 68.993926 85.655245 68.798167 85.459485 
C 68.602408 85.263726 68.336864 85.153735 68.060019 85.153735 
C 67.783174 85.153735 67.51763 85.263726 67.321871 85.459485 
C 67.126112 85.655245 67.01612 85.920788 67.01612 86.197633 
C 67.01612 86.474479 67.126112 86.740022 67.321871 86.935781 
C 67.51763 87.13154 67.783174 87.241532 68.060019 87.241532 
z
" clip-path="url(#p8ca5cfc6f4)" style="stroke: #000000"/>
    <path d="M 67.674574 83.447577 
C 67.872859 83.447577 68.06305 83.368798 68.203259 83.228589 
C 68.343468 83.08838 68.422248 82.898189 68.422248 82.699903 
C 68.422248 82.501617 68.343468 82.311426 68.203259 82.171217 
C 68.06305 82.031008 67.872859 81.952229 67.674574 81.952229 
C 67.476288 81.952229 67.286097 82.031008 67.145888 82.171217 
C 67.005679 82.311426 66.926899 82.501617 66.926899 82.699903 
C 66.926899 82.898189 67.005679 83.08838 67.145888 83.228589 
C 67.286097 83.368798 67.476288 83.447577 67.674574 83.447577 
z
" clip-path="url(#p8ca5cfc6f4)" style="stroke: #000000"/>
    <path d="M 77.229172 132.058029 
C 77.436704 132.058029 77.635765 131.975576 77.782513 131.828828 
C 77.929261 131.68208 78.011714 131.48302 78.011714 131.275487 
C 78.011714 131.067955 77.929261 130.868894 77.782513 130.722146 
C 77.635765 130.575399 77.436704 130.492945 77.229172 130.492945 
C 77.021639 130.492945 76.822579 130.575399 76.675831 130.722146 
C 76.529083 130.868894 76.44663 131.067955 76.44663 131.275487 
C 76.44663 131.48302 76.529083 131.68208 76.675831 131.828828 
C 76.822579 131.975576 77.021639 132.058029 77.229172 132.058029 
z
" clip-path="url(#p8ca5cfc6f4)" style="stroke: #000000"/>
    <path d="M 73.578082 120.066273 
C 74.074863 120.066273 74.551364 119.8689 74.902641 119.517623 
C 75.253919 119.166346 75.451292 118.689844 75.451292 118.193063 
C 75.451292 117.696282 75.253919 117.219781 74.902641 116.868503 
C 74.551364 116.517226 74.074863 116.319853 73.578082 116.319853 
C 73.0813 116.319853 72.604799 116.517226 72.253522 116.868503 
C 71.902244 117.219781 71.704871 117.696282 71.704871 118.193063 
C 71.704871 118.689844 71.902244 119.166346 72.253522 119.517623 
C 72.604799 119.8689 73.0813 120.066273 73.578082 120.066273 
z
" clip-path="url(#p8ca5cfc6f4)" style="stroke: #000000"/>
    <path d="M 66.182768 94.300255 
C 66.370295 94.300255 66.550166 94.225749 66.682768 94.093148 
C 66.815369 93.960546 66.889875 93.780675 66.889875 93.593148 
C 66.889875 93.405621 66.815369 93.225749 66.682768 93.093148 
C 66.550166 92.960546 66.370295 92.886041 66.182768 92.886041 
C 65.995241 92.886041 65.815369 92.960546 65.682768 93.093148 
C 65.550166 93.225749 65.475661 93.405621 65.475661 93.593148 
C 65.475661 93.780675 65.550166 93.960546 65.682768 94.093148 
C 65.815369 94.225749 65.995241 94.300255 66.182768 94.300255 
z
" clip-path="url(#p8ca5cfc6f4)" style="stroke: #000000"/>
    <path d="M 62.20189 89.986881 
C 62.48907 89.986881 62.764526 89.872783 62.967593 89.669716 
C 63.17066 89.466649 63.284758 89.191192 63.284758 88.904012 
C 63.284758 88.616832 63.17066 88.341376 62.967593 88.138309 
C 62.764526 87.935242 62.48907 87.821144 62.20189 87.821144 
C 61.91471 87.821144 61.639253 87.935242 61.436186 88.138309 
C 61.233119 88.341376 61.119021 88.616832 61.119021 88.904012 
C 61.119021 89.191192 61.233119 89.466649 61.436186 89.669716 
C 61.639253 89.872783 61.91471 89.986881 62.20189 89.986881 
z
" clip-path="url(#p8ca5cfc6f4)" style="stroke: #000000"/>
    <path d="M 61.847915 84.601061 
C 62.210655 84.601061 62.558587 84.456943 62.815083 84.200447 
C 63.071579 83.943951 63.215697 83.596019 63.215697 83.233279 
C 63.215697 82.870539 63.071579 82.522607 62.815083 82.266111 
C 62.558587 82.009615 62.210655 81.865496 61.847915 81.865496 
C 61.485175 81.865496 61.137243 82.009615 60.880747 82.266111 
C 60.624251 82.522607 60.480132 82.870539 60.480132 83.233279 
C 60.480132 83.596019 60.624251 83.943951 60.880747 84.200447 
C 61.137243 84.456943 61.485175 84.601061 61.847915 84.601061 
z
" clip-path="url(#p8ca5cfc6f4)" style="stroke: #000000"/>
    <path d="M 60.228984 74.823515 
C 60.361585 74.823515 60.488774 74.770832 60.582537 74.677069 
C 60.676301 74.583305 60.728984 74.456117 60.728984 74.323515 
C 60.728984 74.190914 60.676301 74.063725 60.582537 73.969962 
C 60.488774 73.876199 60.361585 73.823515 60.228984 73.823515 
C 60.096382 73.823515 59.969194 73.876199 59.875431 73.969962 
C 59.781667 74.063725 59.728984 74.190914 59.728984 74.323515 
C 59.728984 74.456117 59.781667 74.583305 59.875431 74.677069 
C 59.969194 74.770832 60.096382 74.823515 60.228984 74.823515 
z
" clip-path="url(#p8ca5cfc6f4)" style="stroke: #000000"/>
    <path d="M 72.859283 130.381167 
C 73.28969 130.381167 73.702526 130.210165 74.00687 129.905821 
C 74.311214 129.601477 74.482216 129.188641 74.482216 128.758234 
C 74.482216 128.327827 74.311214 127.91499 74.00687 127.610646 
C 73.702526 127.306303 73.28969 127.1353 72.859283 127.1353 
C 72.428876 127.1353 72.016039 127.306303 71.711695 127.610646 
C 71.407352 127.91499 71.236349 128.327827 71.236349 128.758234 
C 71.236349 129.188641 71.407352 129.601477 71.711695 129.905821 
C 72.016039 130.210165 72.428876 130.381167 72.859283 130.381167 
z
" clip-path="url(#p8ca5cfc6f4)" style="stroke: #000000"/>
    <path d="M 71.206158 124.746418 
C 71.338759 124.746418 71.465948 124.693735 71.559711 124.599971 
C 71.653475 124.506208 71.706158 124.379019 71.706158 124.246418 
C 71.706158 124.113816 71.653475 123.986628 71.559711 123.892864 
C 71.465948 123.799101 71.338759 123.746418 71.206158 123.746418 
C 71.073556 123.746418 70.946368 123.799101 70.852604 123.892864 
C 70.758841 123.986628 70.706158 124.113816 70.706158 124.246418 
C 70.706158 124.379019 70.758841 124.506208 70.852604 124.599971 
C 70.946368 124.693735 71.073556 124.746418 71.206158 124.746418 
z
" clip-path="url(#p8ca5cfc6f4)" style="stroke: #000000"/>
    <path d="M 70.35661 122.301373 
C 70.939351 122.301373 71.498303 122.069848 71.910364 121.657787 
C 72.322424 121.245727 72.55395 120.686775 72.55395 120.104034 
C 72.55395 119.521292 72.322424 118.96234 71.910364 118.55028 
C 71.498303 118.138219 70.939351 117.906694 70.35661 117.906694 
C 69.773869 117.906694 69.214916 118.138219 68.802856 118.55028 
C 68.390796 118.96234 68.15927 119.521292 68.15927 120.104034 
C 68.15927 120.686775 68.390796 121.245727 68.802856 121.657787 
C 69.214916 122.069848 69.773869 122.301373 70.35661 122.301373 
z
" clip-path="url(#p8ca5cfc6f4)" style="stroke: #000000"/>
    <path d="M 64.939799 109.81278 
C 65.532068 109.81278 66.100159 109.577468 66.518957 109.158671 
C 66.937755 108.739873 67.173066 108.171781 67.173066 107.579512 
C 67.173066 106.987242 66.937755 106.419151 66.518957 106.000353 
C 66.100159 105.581555 65.532068 105.346244 64.939799 105.346244 
C 64.347529 105.346244 63.779438 105.581555 63.36064 106.000353 
C 62.941842 106.419151 62.706531 106.987242 62.706531 107.579512 
C 62.706531 108.171781 62.941842 108.739873 63.36064 109.158671 
C 63.779438 109.577468 64.347529 109.81278 64.939799 109.81278 
z
" clip-path="url(#p8ca5cfc6f4)" style="stroke: #000000"/>
    <path d="M 64.98608 105.838966 
C 65.331413 105.838966 65.662649 105.701764 65.906836 105.457576 
C 66.151024 105.213389 66.288226 104.882154 66.288226 104.536821 
C 66.288226 104.191488 66.151024 103.860252 65.906836 103.616065 
C 65.662649 103.371877 65.331413 103.234675 64.98608 103.234675 
C 64.640747 103.234675 64.309512 103.371877 64.065325 103.616065 
C 63.821137 103.860252 63.683935 104.191488 63.683935 104.536821 
C 63.683935 104.882154 63.821137 105.213389 64.065325 105.457576 
C 64.309512 105.701764 64.640747 105.838966 64.98608 105.838966 
z
" clip-path="url(#p8ca5cfc6f4)" style="stroke: #000000"/>
    <path d="M 61.637348 99.601816 
C 61.878837 99.601816 62.110467 99.505871 62.281226 99.335113 
C 62.451984 99.164355 62.547928 98.932724 62.547928 98.691236 
C 62.547928 98.449747 62.451984 98.218117 62.281226 98.047358 
C 62.110467 97.8766 61.878837 97.780656 61.637348 97.780656 
C 61.395859 97.780656 61.164229 97.8766 60.993471 98.047358 
C 60.822712 98.218117 60.726768 98.449747 60.726768 98.691236 
C 60.726768 98.932724 60.822712 99.164355 60.993471 99.335113 
C 61.164229 99.505871 61.395859 99.601816 61.637348 99.601816 
z
" clip-path="url(#p8ca5cfc6f4)" style="stroke: #000000"/>
    <path d="M 61.281389 95.964888 
C 61.710823 95.964888 62.122727 95.794272 62.426383 95.490616 
C 62.730038 95.18696 62.900655 94.775056 62.900655 94.345622 
C 62.900655 93.916187 62.730038 93.504284 62.426383 93.200628 
C 62.122727 92.896972 61.710823 92.726356 61.281389 92.726356 
C 60.851954 92.726356 60.440051 92.896972 60.136395 93.200628 
C 59.832739 93.504284 59.662123 93.916187 59.662123 94.345622 
C 59.662123 94.775056 59.832739 95.18696 60.136395 95.490616 
C 60.440051 95.794272 60.851954 95.964888 61.281389 95.964888 
z
" clip-path="url(#p8ca5cfc6f4)" style="stroke: #000000"/>
    <path d="M 61.407374 92.017234 
C 61.717708 92.017234 62.015373 91.893937 62.234812 91.674498 
C 62.454251 91.455059 62.577548 91.157394 62.577548 90.84706 
C 62.577548 90.536726 62.454251 90.239061 62.234812 90.019622 
C 62.015373 89.800183 61.717708 89.676886 61.407374 89.676886 
C 61.09704 89.676886 60.799375 89.800183 60.579936 90.019622 
C 60.360497 90.239061 60.2372 90.536726 60.2372 90.84706 
C 60.2372 91.157394 60.360497 91.455059 60.579936 91.674498 
C 60.799375 91.893937 61.09704 92.017234 61.407374 92.017234 
z
" clip-path="url(#p8ca5cfc6f4)" style="stroke: #000000"/>
    <path d="M 68.92457 135.56372 
C 69.309484 135.56372 69.678684 135.410792 69.950859 135.138617 
C 70.223034 134.866442 70.375962 134.497242 70.375962 134.112329 
C 70.375962 133.727415 70.223034 133.358215 69.950859 133.08604 
C 69.678684 132.813865 69.309484 132.660937 68.92457 132.660937 
C 68.539657 132.660937 68.170457 132.813865 67.898282 133.08604 
C 67.626107 133.358215 67.473179 133.727415 67.473179 134.112329 
C 67.473179 134.497242 67.626107 134.866442 67.898282 135.138617 
C 68.170457 135.410792 68.539657 135.56372 68.92457 135.56372 
z
" clip-path="url(#p8ca5cfc6f4)" style="stroke: #000000"/>
    <path d="M 67.176911 131.712825 
C 67.661934 131.712825 68.127156 131.520123 68.470119 131.177161 
C 68.813082 130.834198 69.005783 130.368975 69.005783 129.883953 
C 69.005783 129.39893 68.813082 128.933708 68.470119 128.590745 
C 68.127156 128.247783 67.661934 128.055081 67.176911 128.055081 
C 66.691889 128.055081 66.226666 128.247783 65.883704 128.590745 
C 65.540741 128.933708 65.34804 129.39893 65.34804 129.883953 
C 65.34804 130.368975 65.540741 130.834198 65.883704 131.177161 
C 66.226666 131.520123 66.691889 131.712825 67.176911 131.712825 
z
" clip-path="url(#p8ca5cfc6f4)" style="stroke: #000000"/>
    <path d="M 67.374482 127.202866 
C 67.548996 127.202866 67.716385 127.133531 67.839785 127.010131 
C 67.963184 126.886731 68.032519 126.719342 68.032519 126.544829 
C 68.032519 126.370315 67.963184 126.202926 67.839785 126.079526 
C 67.716385 125.956127 67.548996 125.886792 67.374482 125.886792 
C 67.199969 125.886792 67.032579 125.956127 66.90918 126.079526 
C 66.78578 126.202926 66.716445 126.370315 66.716445 126.544829 
C 66.716445 126.719342 66.78578 126.886731 66.90918 127.010131 
C 67.032579 127.133531 67.199969 127.202866 67.374482 127.202866 
z
" clip-path="url(#p8ca5cfc6f4)" style="stroke: #000000"/>
    <path d="M 65.178727 122.554289 
C 65.35324 122.554289 65.52063 122.484954 65.644029 122.361555 
C 65.767429 122.238155 65.836764 122.070766 65.836764 121.896252 
C 65.836764 121.721739 65.767429 121.554349 65.644029 121.43095 
C 65.52063 121.30755 65.35324 121.238215 65.178727 121.238215 
C 65.004213 121.238215 64.836824 121.30755 64.713424 121.43095 
C 64.590025 121.554349 64.52069 121.721739 64.52069 121.896252 
C 64.52069 122.070766 64.590025 122.238155 64.713424 122.361555 
C 64.836824 122.484954 65.004213 122.554289 65.178727 122.554289 
z
" clip-path="url(#p8ca5cfc6f4)" style="stroke: #000000"/>
    <path d="M 58.524185 107.428716 
C 58.967565 107.428716 59.392845 107.25256 59.706362 106.939042 
C 60.019879 106.625525 60.196036 106.200245 60.196036 105.756865 
C 60.196036 105.313485 60.019879 104.888205 59.706362 104.574688 
C 59.392845 104.261171 58.967565 104.085015 58.524185 104.085015 
C 58.080805 104.085015 57.655525 104.261171 57.342008 104.574688 
C 57.028491 104.888205 56.852334 105.313485 56.852334 105.756865 
C 56.852334 106.200245 57.028491 106.625525 57.342008 106.939042 
C 57.655525 107.25256 58.080805 107.428716 58.524185 107.428716 
z
" clip-path="url(#p8ca5cfc6f4)" style="stroke: #000000"/>
    <path d="M 57.78089 101.292507 
C 58.168486 101.292507 58.540259 101.138514 58.814331 100.864442 
C 59.088403 100.59037 59.242396 100.218597 59.242396 99.831001 
C 59.242396 99.443405 59.088403 99.071632 58.814331 98.79756 
C 58.540259 98.523488 58.168486 98.369495 57.78089 98.369495 
C 57.393294 98.369495 57.02152 98.523488 56.747449 98.79756 
C 56.473377 99.071632 56.319383 99.443405 56.319383 99.831001 
C 56.319383 100.218597 56.473377 100.59037 56.747449 100.864442 
C 57.02152 101.138514 57.393294 101.292507 57.78089 101.292507 
z
" clip-path="url(#p8ca5cfc6f4)" style="stroke: #000000"/>
    <path d="M 57.452691 97.527298 
C 57.739871 97.527298 58.015328 97.4132 58.218395 97.210133 
C 58.421462 97.007066 58.535559 96.73161 58.535559 96.44443 
C 58.535559 96.15725 58.421462 95.881793 58.218395 95.678726 
C 58.015328 95.475659 57.739871 95.361561 57.452691 95.361561 
C 57.165511 95.361561 56.890054 95.475659 56.686987 95.678726 
C 56.483921 95.881793 56.369823 96.15725 56.369823 96.44443 
C 56.369823 96.73161 56.483921 97.007066 56.686987 97.210133 
C 56.890054 97.4132 57.165511 97.527298 57.452691 97.527298 
z
" clip-path="url(#p8ca5cfc6f4)" style="stroke: #000000"/>
    <path d="M 65.642821 139.719644 
C 65.775422 139.719644 65.902611 139.66696 65.996374 139.573197 
C 66.090138 139.479434 66.142821 139.352245 66.142821 139.219644 
C 66.142821 139.087042 66.090138 138.959854 65.996374 138.86609 
C 65.902611 138.772327 65.775422 138.719644 65.642821 138.719644 
C 65.510219 138.719644 65.383031 138.772327 65.289267 138.86609 
C 65.195504 138.959854 65.142821 139.087042 65.142821 139.219644 
C 65.142821 139.352245 65.195504 139.479434 65.289267 139.573197 
C 65.383031 139.66696 65.510219 139.719644 65.642821 139.719644 
z
" clip-path="url(#p8ca5cfc6f4)" style="stroke: #000000"/>
    <path d="M 61.457183 122.494992 
C 61.589785 122.494992 61.716973 122.442308 61.810736 122.348545 
C 61.9045 122.254782 61.957183 122.127593 61.957183 121.994992 
C 61.957183 121.86239 61.9045 121.735202 61.810736 121.641438 
C 61.716973 121.547675 61.589785 121.494992 61.457183 121.494992 
C 61.324581 121.494992 61.197393 121.547675 61.10363 121.641438 
C 61.009866 121.735202 60.957183 121.86239 60.957183 121.994992 
C 60.957183 122.127593 61.009866 122.254782 61.10363 122.348545 
C 61.197393 122.442308 61.324581 122.494992 61.457183 122.494992 
z
" clip-path="url(#p8ca5cfc6f4)" style="stroke: #000000"/>
    <path d="M 59.618018 120.41994 
C 60.013344 120.41994 60.392532 120.262876 60.672069 119.983338 
C 60.951607 119.7038 61.108672 119.324613 61.108672 118.929287 
C 61.108672 118.533961 60.951607 118.154773 60.672069 117.875235 
C 60.392532 117.595698 60.013344 117.438633 59.618018 117.438633 
C 59.222692 117.438633 58.843504 117.595698 58.563967 117.875235 
C 58.284429 118.154773 58.127364 118.533961 58.127364 118.929287 
C 58.127364 119.324613 58.284429 119.7038 58.563967 119.983338 
C 58.843504 120.262876 59.222692 120.41994 59.618018 120.41994 
z
" clip-path="url(#p8ca5cfc6f4)" style="stroke: #000000"/>
    <path d="M 60.218311 137.746002 
C 60.350913 137.746002 60.478101 137.693319 60.571864 137.599555 
C 60.665628 137.505792 60.718311 137.378603 60.718311 137.246002 
C 60.718311 137.1134 60.665628 136.986212 60.571864 136.892448 
C 60.478101 136.798685 60.350913 136.746002 60.218311 136.746002 
C 60.085709 136.746002 59.958521 136.798685 59.864758 136.892448 
C 59.770994 136.986212 59.718311 137.1134 59.718311 137.246002 
C 59.718311 137.378603 59.770994 137.505792 59.864758 137.599555 
C 59.958521 137.693319 60.085709 137.746002 60.218311 137.746002 
z
" clip-path="url(#p8ca5cfc6f4)" style="stroke: #000000"/>
    <path d="M 56.545023 124.684176 
C 56.902805 124.684176 57.24598 124.542028 57.49897 124.289039 
C 57.751959 124.036049 57.894107 123.692873 57.894107 123.335092 
C 57.894107 122.977311 57.751959 122.634135 57.49897 122.381146 
C 57.24598 122.128156 56.902805 121.986008 56.545023 121.986008 
C 56.187242 121.986008 55.844067 122.128156 55.591077 122.381146 
C 55.338088 122.634135 55.19594 122.977311 55.19594 123.335092 
C 55.19594 123.692873 55.338088 124.036049 55.591077 124.289039 
C 55.844067 124.542028 56.187242 124.684176 56.545023 124.684176 
z
" clip-path="url(#p8ca5cfc6f4)" style="stroke: #000000"/>
    <path d="M 49.186702 110.061363 
C 49.374229 110.061363 49.554101 109.986858 49.686702 109.854256 
C 49.819304 109.721654 49.893809 109.541783 49.893809 109.354256 
C 49.893809 109.166729 49.819304 108.986858 49.686702 108.854256 
C 49.554101 108.721654 49.374229 108.647149 49.186702 108.647149 
C 48.999175 108.647149 48.819304 108.721654 48.686702 108.854256 
C 48.554101 108.986858 48.479596 109.166729 48.479596 109.354256 
C 48.479596 109.541783 48.554101 109.721654 48.686702 109.854256 
C 48.819304 109.986858 48.999175 110.061363 49.186702 110.061363 
z
" clip-path="url(#p8ca5cfc6f4)" style="stroke: #000000"/>
    <path d="M 61.644406 151.797872 
C 61.802097 151.797872 61.95335 151.735221 62.064854 151.623717 
C 62.176358 151.512213 62.23901 151.360959 62.23901 151.203269 
C 62.23901 151.045578 62.176358 150.894325 62.064854 150.782821 
C 61.95335 150.671316 61.802097 150.608665 61.644406 150.608665 
C 61.486715 150.608665 61.335462 150.671316 61.223958 150.782821 
C 61.112454 150.894325 61.049803 151.045578 61.049803 151.203269 
C 61.049803 151.360959 61.112454 151.512213 61.223958 151.623717 
C 61.335462 151.735221 61.486715 151.797872 61.644406 151.797872 
z
" clip-path="url(#p8ca5cfc6f4)" style="stroke: #000000"/>
    <path d="M 44.680374 109.262829 
C 44.812975 109.262829 44.940164 109.210146 45.033927 109.116383 
C 45.12769 109.022619 45.180374 108.895431 45.180374 108.762829 
C 45.180374 108.630228 45.12769 108.503039 45.033927 108.409276 
C 44.940164 108.315512 44.812975 108.262829 44.680374 108.262829 
C 44.547772 108.262829 44.420584 108.315512 44.32682 108.409276 
C 44.233057 108.503039 44.180374 108.630228 44.180374 108.762829 
C 44.180374 108.895431 44.233057 109.022619 44.32682 109.116383 
C 44.420584 109.210146 44.547772 109.262829 44.680374 109.262829 
z
" clip-path="url(#p8ca5cfc6f4)" style="stroke: #000000"/>
    <path d="M 49.809835 131.985732 
C 49.942436 131.985732 50.069625 131.933048 50.163388 131.839285 
C 50.257152 131.745522 50.309835 131.618333 50.309835 131.485732 
C 50.309835 131.35313 50.257152 131.225942 50.163388 131.132178 
C 50.069625 131.038415 49.942436 130.985732 49.809835 130.985732 
C 49.677233 130.985732 49.550045 131.038415 49.456281 131.132178 
C 49.362518 131.225942 49.309835 131.35313 49.309835 131.485732 
C 49.309835 131.618333 49.362518 131.745522 49.456281 131.839285 
C 49.550045 131.933048 49.677233 131.985732 49.809835 131.985732 
z
" clip-path="url(#p8ca5cfc6f4)" style="stroke: #000000"/>
   </g>
   <g id="matplotlib.axis_1">
    <g id="xtick_1">
     <g id="line2d_1">
      <defs>
       <path id="m1e4a58327f" d="M 0 0 
L 0 3.5 
" style="stroke: #000000; stroke-width: 0.8"/>
      </defs>
      <g>
       <use xlink:href="#m1e4a58327f" x="18" y="189" style="stroke: #000000; stroke-width: 0.8"/>
      </g>
     </g>
     <g id="text_1">
      <!-- −10 -->
      <g transform="translate(7.447656 203.598437)scale(0.1 -0.1)">
       <defs>
        <path id="DejaVuSans-2212" d="M 678 2272 
L 4684 2272 
L 4684 1741 
L 678 1741 
L 678 2272 
z
" transform="scale(0.015625)"/>
        <path id="DejaVuSans-31" d="M 794 531 
L 1825 531 
L 1825 4091 
L 703 3866 
L 703 4441 
L 1819 4666 
L 2450 4666 
L 2450 531 
L 3481 531 
L 3481 0 
L 794 0 
L 794 531 
z
" transform="scale(0.015625)"/>
        <path id="DejaVuSans-30" d="M 2034 4250 
Q 1547 4250 1301 3770 
Q 1056 3291 1056 2328 
Q 1056 1369 1301 889 
Q 1547 409 2034 409 
Q 2525 409 2770 889 
Q 3016 1369 3016 2328 
Q 3016 3291 2770 3770 
Q 2525 4250 2034 4250 
z
M 2034 4750 
Q 2819 4750 3233 4129 
Q 3647 3509 3647 2328 
Q 3647 1150 3233 529 
Q 2819 -91 2034 -91 
Q 1250 -91 836 529 
Q 422 1150 422 2328 
Q 422 3509 836 4129 
Q 1250 4750 2034 4750 
z
" transform="scale(0.015625)"/>
       </defs>
       <use xlink:href="#DejaVuSans-2212"/>
       <use xlink:href="#DejaVuSans-31" x="83.789062"/>
       <use xlink:href="#DejaVuSans-30" x="147.412109"/>
      </g>
     </g>
    </g>
    <g id="xtick_2">
     <g id="line2d_2">
      <g>
       <use xlink:href="#m1e4a58327f" x="73.8" y="189" style="stroke: #000000; stroke-width: 0.8"/>
      </g>
     </g>
     <g id="text_2">
      <!-- 0 -->
      <g transform="translate(70.61875 203.598437)scale(0.1 -0.1)">
       <use xlink:href="#DejaVuSans-30"/>
      </g>
     </g>
    </g>
    <g id="xtick_3">
     <g id="line2d_3">
      <g>
       <use xlink:href="#m1e4a58327f" x="129.6" y="189" style="stroke: #000000; stroke-width: 0.8"/>
      </g>
     </g>
     <g id="text_3">
      <!-- 10 -->
      <g transform="translate(123.2375 203.598437)scale(0.1 -0.1)">
       <use xlink:href="#DejaVuSans-31"/>
       <use xlink:href="#DejaVuSans-30" x="63.623047"/>
      </g>
     </g>
    </g>
   </g>
   <g id="matplotlib.axis_2">
    <g id="ytick_1">
     <g id="line2d_4">
      <defs>
       <path id="mc5a46bc61d" d="M 0 0 
L -3.5 0 
" style="stroke: #000000; stroke-width: 0.8"/>
      </defs>
      <g>
       <use xlink:href="#mc5a46bc61d" x="18" y="189" style="stroke: #000000; stroke-width: 0.8"/>
      </g>
     </g>
     <g id="text_4">
      <!-- −15 -->
      <g transform="translate(-10.104688 192.799219)scale(0.1 -0.1)">
       <defs>
        <path id="DejaVuSans-35" d="M 691 4666 
L 3169 4666 
L 3169 4134 
L 1269 4134 
L 1269 2991 
Q 1406 3038 1543 3061 
Q 1681 3084 1819 3084 
Q 2600 3084 3056 2656 
Q 3513 2228 3513 1497 
Q 3513 744 3044 326 
Q 2575 -91 1722 -91 
Q 1428 -91 1123 -41 
Q 819 9 494 109 
L 494 744 
Q 775 591 1075 516 
Q 1375 441 1709 441 
Q 2250 441 2565 725 
Q 2881 1009 2881 1497 
Q 2881 1984 2565 2268 
Q 2250 2553 1709 2553 
Q 1456 2553 1204 2497 
Q 953 2441 691 2322 
L 691 4666 
z
" transform="scale(0.015625)"/>
       </defs>
       <use xlink:href="#DejaVuSans-2212"/>
       <use xlink:href="#DejaVuSans-31" x="83.789062"/>
       <use xlink:href="#DejaVuSans-35" x="147.412109"/>
      </g>
     </g>
    </g>
    <g id="ytick_2">
     <g id="line2d_5">
      <g>
       <use xlink:href="#mc5a46bc61d" x="18" y="161.82" style="stroke: #000000; stroke-width: 0.8"/>
      </g>
     </g>
     <g id="text_5">
      <!-- −10 -->
      <g transform="translate(-10.104688 165.619219)scale(0.1 -0.1)">
       <use xlink:href="#DejaVuSans-2212"/>
       <use xlink:href="#DejaVuSans-31" x="83.789062"/>
       <use xlink:href="#DejaVuSans-30" x="147.412109"/>
      </g>
     </g>
    </g>
    <g id="ytick_3">
     <g id="line2d_6">
      <g>
       <use xlink:href="#mc5a46bc61d" x="18" y="134.64" style="stroke: #000000; stroke-width: 0.8"/>
      </g>
     </g>
     <g id="text_6">
      <!-- −5 -->
      <g transform="translate(-3.742188 138.439219)scale(0.1 -0.1)">
       <use xlink:href="#DejaVuSans-2212"/>
       <use xlink:href="#DejaVuSans-35" x="83.789062"/>
      </g>
     </g>
    </g>
    <g id="ytick_4">
     <g id="line2d_7">
      <g>
       <use xlink:href="#mc5a46bc61d" x="18" y="107.46" style="stroke: #000000; stroke-width: 0.8"/>
      </g>
     </g>
     <g id="text_7">
      <!-- 0 -->
      <g transform="translate(4.6375 111.259219)scale(0.1 -0.1)">
       <use xlink:href="#DejaVuSans-30"/>
      </g>
     </g>
    </g>
    <g id="ytick_5">
     <g id="line2d_8">
      <g>
       <use xlink:href="#mc5a46bc61d" x="18" y="80.28" style="stroke: #000000; stroke-width: 0.8"/>
      </g>
     </g>
     <g id="text_8">
      <!-- 5 -->
      <g transform="translate(4.6375 84.079219)scale(0.1 -0.1)">
       <use xlink:href="#DejaVuSans-35"/>
      </g>
     </g>
    </g>
    <g id="ytick_6">
     <g id="line2d_9">
      <g>
       <use xlink:href="#mc5a46bc61d" x="18" y="53.1" style="stroke: #000000; stroke-width: 0.8"/>
      </g>
     </g>
     <g id="text_9">
      <!-- 10 -->
      <g transform="translate(-1.725 56.899219)scale(0.1 -0.1)">
       <use xlink:href="#DejaVuSans-31"/>
       <use xlink:href="#DejaVuSans-30" x="63.623047"/>
      </g>
     </g>
    </g>
    <g id="ytick_7">
     <g id="line2d_10">
      <g>
       <use xlink:href="#mc5a46bc61d" x="18" y="25.92" style="stroke: #000000; stroke-width: 0.8"/>
      </g>
     </g>
     <g id="text_10">
      <!-- 15 -->
      <g transform="translate(-1.725 29.719219)scale(0.1 -0.1)">
       <use xlink:href="#DejaVuSans-31"/>
       <use xlink:href="#DejaVuSans-35" x="63.623047"/>
      </g>
     </g>
    </g>
   </g>
   <g id="patch_3">
    <path d="M 18 189 
L 18 25.92 
" style="fill: none; stroke: #000000; stroke-width: 0.8; stroke-linejoin: miter; stroke-linecap: square"/>
   </g>
   <g id="patch_4">
    <path d="M 129.6 189 
L 129.6 25.92 
" style="fill: none; stroke: #000000; stroke-width: 0.8; stroke-linejoin: miter; stroke-linecap: square"/>
   </g>
   <g id="patch_5">
    <path d="M 18 189 
L 129.6 189 
" style="fill: none; stroke: #000000; stroke-width: 0.8; stroke-linejoin: miter; stroke-linecap: square"/>
   </g>
   <g id="patch_6">
    <path d="M 18 25.92 
L 129.6 25.92 
" style="fill: none; stroke: #000000; stroke-width: 0.8; stroke-linejoin: miter; stroke-linecap: square"/>
   </g>
  </g>
 </g>
 <defs>
  <clipPath id="p8ca5cfc6f4">
   <rect x="18" y="25.92" width="111.6" height="163.08"/>
  </clipPath>
 </defs>
</svg>
