<?xml version="1.0" encoding="utf-8" standalone="no"?>
<!DOCTYPE svg PUBLIC "-//W3C//DTD SVG 1.1//EN"
  "http://www.w3.org/Graphics/SVG/1.1/DTD/svg11.dtd">
<svg xmlns:xlink="http://www.w3.org/1999/xlink" width="144pt" height="216pt" viewBox="0 0 144 216" xmlns="http://www.w3.org/2000/svg" version="1.1">
 <metadata>
  <rdf:RDF xmlns:dc="http://purl.org/dc/elements/1.1/" xmlns:cc="http://creativecommons.org/ns#" xmlns:rdf="http://www.w3.org/1999/02/22-rdf-syntax-ns#">
   <cc:Work>
    <dc:type rdf:resource="http://purl.org/dc/dcmitype/StillImage"/>
    <dc:date>2022-06-23T14:46:14.433727</dc:date>
    <dc:format>image/svg+xml</dc:format>
    <dc:creator>
     <cc:Agent>
      <dc:title>Matplotlib v3.5.1, https://matplotlib.org/</dc:title>
     </cc:Agent>
    </dc:creator>
   </cc:Work>
  </rdf:RDF>
 </metadata>
 <defs>
  <style type="text/css">*{stroke-linejoin: round; stroke-linecap: butt}</style>
 </defs>
 <g id="figure_1">
  <g id="patch_1">
   <path d="M 0 216 
L 144 216 
L 144 0 
L 0 0 
L 0 216 
z
" style="fill: none"/>
  </g>
  <g id="axes_1">
   <g id="patch_2">
    <path d="M 18 189 
L 129.6 189 
L 129.6 25.92 
L 18 25.92 
z
" style="fill: #ffffff"/>
   </g>
   <g id="PathCollection_1">
    <defs>
     <path id="mb687c333fa" d="M 0 2.738613 
C 0.726289 2.738613 1.422928 2.450055 1.936492 1.936492 
C 2.450055 1.422928 2.738613 0.726289 2.738613 0 
C 2.738613 -0.726289 2.450055 -1.422928 1.936492 -1.936492 
C 1.422928 -2.450055 0.726289 -2.738613 0 -2.738613 
C -0.726289 -2.738613 -1.422928 -2.450055 -1.936492 -1.936492 
C -2.450055 -1.422928 -2.738613 -0.726289 -2.738613 0 
C -2.738613 0.726289 -2.450055 1.422928 -1.936492 1.936492 
C -1.422928 2.450055 -0.726289 2.738613 0 2.738613 
z
" style="stroke: #ff0000; stroke-width: 1.75"/>
    </defs>
    <g clip-path="url(#pe3385b7f8e)">
     <use xlink:href="#mb687c333fa" x="80.775" y="107.46" style="fill: #ff0000; stroke: #ff0000; stroke-width: 1.75"/>
     <use xlink:href="#mb687c333fa" x="94.725" y="107.46" style="fill: #ff0000; stroke: #ff0000; stroke-width: 1.75"/>
     <use xlink:href="#mb687c333fa" x="59.85" y="119.229285" style="fill: #ff0000; stroke: #ff0000; stroke-width: 1.75"/>
     <use xlink:href="#mb687c333fa" x="73.8" y="119.229285" style="fill: #ff0000; stroke: #ff0000; stroke-width: 1.75"/>
     <use xlink:href="#mb687c333fa" x="87.75" y="119.229285" style="fill: #ff0000; stroke: #ff0000; stroke-width: 1.75"/>
     <use xlink:href="#mb687c333fa" x="66.825" y="130.99857" style="fill: #ff0000; stroke: #ff0000; stroke-width: 1.75"/>
     <use xlink:href="#mb687c333fa" x="80.775" y="130.99857" style="fill: #ff0000; stroke: #ff0000; stroke-width: 1.75"/>
    </g>
   </g>
   <g id="PathCollection_2">
    <defs>
     <path id="C0_0_7db85af18c" d="M 0 2.738613 
C 0.726289 2.738613 1.422928 2.450055 1.936492 1.936492 
C 2.450055 1.422928 2.738613 0.726289 2.738613 -0 
C 2.738613 -0.726289 2.450055 -1.422928 1.936492 -1.936492 
C 1.422928 -2.450055 0.726289 -2.738613 0 -2.738613 
C -0.726289 -2.738613 -1.422928 -2.450055 -1.936492 -1.936492 
C -2.450055 -1.422928 -2.738613 -0.726289 -2.738613 0 
C -2.738613 0.726289 -2.450055 1.422928 -1.936492 1.936492 
C -1.422928 2.450055 -0.726289 2.738613 0 2.738613 
z
"/>
    </defs>
    <g clip-path="url(#pe3385b7f8e)">
     <use xlink:href="#C0_0_7db85af18c" x="66.825" y="83.92143" style="fill: none; stroke: #ff0000; stroke-width: 1.75"/>
    </g>
    <g clip-path="url(#pe3385b7f8e)">
     <use xlink:href="#C0_0_7db85af18c" x="80.775" y="83.92143" style="fill: none; stroke: #ff0000; stroke-width: 1.75"/>
    </g>
    <g clip-path="url(#pe3385b7f8e)">
     <use xlink:href="#C0_0_7db85af18c" x="59.85" y="95.690715" style="fill: none; stroke: #ff0000; stroke-width: 1.75"/>
    </g>
    <g clip-path="url(#pe3385b7f8e)">
     <use xlink:href="#C0_0_7db85af18c" x="73.8" y="95.690715" style="fill: none; stroke: #ff0000; stroke-width: 1.75"/>
    </g>
    <g clip-path="url(#pe3385b7f8e)">
     <use xlink:href="#C0_0_7db85af18c" x="87.75" y="95.690715" style="fill: none; stroke: #ff0000; stroke-width: 1.75"/>
    </g>
    <g clip-path="url(#pe3385b7f8e)">
     <use xlink:href="#C0_0_7db85af18c" x="52.875" y="107.46" style="fill: none; stroke: #ff0000; stroke-width: 1.75"/>
    </g>
    <g clip-path="url(#pe3385b7f8e)">
     <use xlink:href="#C0_0_7db85af18c" x="66.825" y="107.46" style="fill: none; stroke: #ff0000; stroke-width: 1.75"/>
    </g>
   </g>
   <g id="PathCollection_3">
    <path d="M 99.137371 99.634304 
C 99.269973 99.634304 99.397161 99.581621 99.490925 99.487857 
C 99.584688 99.394094 99.637371 99.266906 99.637371 99.134304 
C 99.637371 99.001702 99.584688 98.874514 99.490925 98.780751 
C 99.397161 98.686987 99.269973 98.634304 99.137371 98.634304 
C 99.00477 98.634304 98.877581 98.686987 98.783818 98.780751 
C 98.690054 98.874514 98.637371 99.001702 98.637371 99.134304 
C 98.637371 99.266906 98.690054 99.394094 98.783818 99.487857 
C 98.877581 99.581621 99.00477 99.634304 99.137371 99.634304 
z
" clip-path="url(#pe3385b7f8e)" style="stroke: #000000"/>
    <path d="M 99.210923 95.299175 
C 99.343524 95.299175 99.470713 95.246492 99.564476 95.152728 
C 99.65824 95.058965 99.710923 94.931777 99.710923 94.799175 
C 99.710923 94.666573 99.65824 94.539385 99.564476 94.445622 
C 99.470713 94.351858 99.343524 94.299175 99.210923 94.299175 
C 99.078321 94.299175 98.951133 94.351858 98.85737 94.445622 
C 98.763606 94.539385 98.710923 94.666573 98.710923 94.799175 
C 98.710923 94.931777 98.763606 95.058965 98.85737 95.152728 
C 98.951133 95.246492 99.078321 95.299175 99.210923 95.299175 
z
" clip-path="url(#pe3385b7f8e)" style="stroke: #000000"/>
    <path d="M 96.365876 89.333557 
C 96.523566 89.333557 96.67482 89.270906 96.786324 89.159402 
C 96.897828 89.047898 96.960479 88.896644 96.960479 88.738954 
C 96.960479 88.581263 96.897828 88.43001 96.786324 88.318505 
C 96.67482 88.207001 96.523566 88.14435 96.365876 88.14435 
C 96.208185 88.14435 96.056932 88.207001 95.945428 88.318505 
C 95.833923 88.43001 95.771272 88.581263 95.771272 88.738954 
C 95.771272 88.896644 95.833923 89.047898 95.945428 89.159402 
C 96.056932 89.270906 96.208185 89.333557 96.365876 89.333557 
z
" clip-path="url(#pe3385b7f8e)" style="stroke: #000000"/>
    <path d="M 93.648121 102.71336 
C 93.835647 102.71336 94.015519 102.638855 94.148121 102.506254 
C 94.280722 102.373652 94.355227 102.19378 94.355227 102.006254 
C 94.355227 101.818727 94.280722 101.638855 94.148121 101.506254 
C 94.015519 101.373652 93.835647 101.299147 93.648121 101.299147 
C 93.460594 101.299147 93.280722 101.373652 93.148121 101.506254 
C 93.015519 101.638855 92.941014 101.818727 92.941014 102.006254 
C 92.941014 102.19378 93.015519 102.373652 93.148121 102.506254 
C 93.280722 102.638855 93.460594 102.71336 93.648121 102.71336 
z
" clip-path="url(#pe3385b7f8e)" style="stroke: #000000"/>
    <path d="M 94.247548 98.914674 
C 94.48335 98.914674 94.709527 98.820989 94.876265 98.654251 
C 95.043002 98.487514 95.136688 98.261337 95.136688 98.025535 
C 95.136688 97.789732 95.043002 97.563556 94.876265 97.396818 
C 94.709527 97.23008 94.48335 97.136395 94.247548 97.136395 
C 94.011745 97.136395 93.785569 97.23008 93.618831 97.396818 
C 93.452094 97.563556 93.358408 97.789732 93.358408 98.025535 
C 93.358408 98.261337 93.452094 98.487514 93.618831 98.654251 
C 93.785569 98.820989 94.011745 98.914674 94.247548 98.914674 
z
" clip-path="url(#pe3385b7f8e)" style="stroke: #000000"/>
    <path d="M 90.380371 93.434965 
C 90.682637 93.434965 90.972564 93.314873 91.186298 93.101139 
C 91.400033 92.887404 91.520125 92.597477 91.520125 92.295211 
C 91.520125 91.992945 91.400033 91.703018 91.186298 91.489284 
C 90.972564 91.275549 90.682637 91.155458 90.380371 91.155458 
C 90.078105 91.155458 89.788178 91.275549 89.574444 91.489284 
C 89.360709 91.703018 89.240617 91.992945 89.240617 92.295211 
C 89.240617 92.597477 89.360709 92.887404 89.574444 93.101139 
C 89.788178 93.314873 90.078105 93.434965 90.380371 93.434965 
z
" clip-path="url(#pe3385b7f8e)" style="stroke: #000000"/>
    <path d="M 88.84217 83.76569 
C 89.057857 83.76569 89.264739 83.679997 89.417252 83.527483 
C 89.569765 83.37497 89.655459 83.168088 89.655459 82.952402 
C 89.655459 82.736715 89.569765 82.529833 89.417252 82.37732 
C 89.264739 82.224807 89.057857 82.139113 88.84217 82.139113 
C 88.626484 82.139113 88.419602 82.224807 88.267089 82.37732 
C 88.114575 82.529833 88.028882 82.736715 88.028882 82.952402 
C 88.028882 83.168088 88.114575 83.37497 88.267089 83.527483 
C 88.419602 83.679997 88.626484 83.76569 88.84217 83.76569 
z
" clip-path="url(#pe3385b7f8e)" style="stroke: #000000"/>
    <path d="M 93.36106 122.092134 
C 93.51875 122.092134 93.670004 122.029483 93.781508 121.917979 
C 93.893012 121.806475 93.955663 121.655221 93.955663 121.497531 
C 93.955663 121.33984 93.893012 121.188587 93.781508 121.077083 
C 93.670004 120.965578 93.51875 120.902927 93.36106 120.902927 
C 93.203369 120.902927 93.052116 120.965578 92.940611 121.077083 
C 92.829107 121.188587 92.766456 121.33984 92.766456 121.497531 
C 92.766456 121.655221 92.829107 121.806475 92.940611 121.917979 
C 93.052116 122.029483 93.203369 122.092134 93.36106 122.092134 
z
" clip-path="url(#pe3385b7f8e)" style="stroke: #000000"/>
    <path d="M 91.485729 114.097155 
C 91.798617 114.097155 92.098732 113.972843 92.319977 113.751598 
C 92.541222 113.530353 92.665534 113.230237 92.665534 112.917349 
C 92.665534 112.604461 92.541222 112.304346 92.319977 112.083101 
C 92.098732 111.861856 91.798617 111.737544 91.485729 111.737544 
C 91.172841 111.737544 90.872725 111.861856 90.65148 112.083101 
C 90.430235 112.304346 90.305923 112.604461 90.305923 112.917349 
C 90.305923 113.230237 90.430235 113.530353 90.65148 113.751598 
C 90.872725 113.972843 91.172841 114.097155 91.485729 114.097155 
z
" clip-path="url(#pe3385b7f8e)" style="stroke: #000000"/>
    <path d="M 91.564918 104.023386 
C 91.780605 104.023386 91.987486 103.937693 92.14 103.78518 
C 92.292513 103.632666 92.378206 103.425785 92.378206 103.210098 
C 92.378206 102.994412 92.292513 102.78753 92.14 102.635017 
C 91.987486 102.482503 91.780605 102.39681 91.564918 102.39681 
C 91.349231 102.39681 91.14235 102.482503 90.989836 102.635017 
C 90.837323 102.78753 90.75163 102.994412 90.75163 103.210098 
C 90.75163 103.425785 90.837323 103.632666 90.989836 103.78518 
C 91.14235 103.937693 91.349231 104.023386 91.564918 104.023386 
z
" clip-path="url(#pe3385b7f8e)" style="stroke: #000000"/>
    <path d="M 86.398645 99.895523 
C 86.814787 99.895523 87.21394 99.730188 87.508197 99.435931 
C 87.802454 99.141674 87.967789 98.74252 87.967789 98.326378 
C 87.967789 97.910236 87.802454 97.511082 87.508197 97.216825 
C 87.21394 96.922569 86.814787 96.757234 86.398645 96.757234 
C 85.982503 96.757234 85.583349 96.922569 85.289092 97.216825 
C 84.994835 97.511082 84.8295 97.910236 84.8295 98.326378 
C 84.8295 98.74252 84.994835 99.141674 85.289092 99.435931 
C 85.583349 99.730188 85.982503 99.895523 86.398645 99.895523 
z
" clip-path="url(#pe3385b7f8e)" style="stroke: #000000"/>
    <path d="M 80.936873 88.408452 
C 81.316247 88.408452 81.680134 88.257725 81.948391 87.989467 
C 82.216649 87.721209 82.367376 87.357323 82.367376 86.977949 
C 82.367376 86.598575 82.216649 86.234688 81.948391 85.966431 
C 81.680134 85.698173 81.316247 85.547446 80.936873 85.547446 
C 80.557499 85.547446 80.193613 85.698173 79.925355 85.966431 
C 79.657097 86.234688 79.50637 86.598575 79.50637 86.977949 
C 79.50637 87.357323 79.657097 87.721209 79.925355 87.989467 
C 80.193613 88.257725 80.557499 88.408452 80.936873 88.408452 
z
" clip-path="url(#pe3385b7f8e)" style="stroke: #000000"/>
    <path d="M 85.915692 119.684964 
C 86.167479 119.684964 86.408988 119.584927 86.587029 119.406887 
C 86.76507 119.228846 86.865106 118.987337 86.865106 118.735549 
C 86.865106 118.483762 86.76507 118.242253 86.587029 118.064212 
C 86.408988 117.886171 86.167479 117.786135 85.915692 117.786135 
C 85.663904 117.786135 85.422395 117.886171 85.244354 118.064212 
C 85.066313 118.242253 84.966277 118.483762 84.966277 118.735549 
C 84.966277 118.987337 85.066313 119.228846 85.244354 119.406887 
C 85.422395 119.584927 85.663904 119.684964 85.915692 119.684964 
z
" clip-path="url(#pe3385b7f8e)" style="stroke: #000000"/>
    <path d="M 83.105417 110.632279 
C 83.549681 110.632279 83.975809 110.455771 84.289951 110.141629 
C 84.604094 109.827487 84.780602 109.401359 84.780602 108.957095 
C 84.780602 108.512831 84.604094 108.086703 84.289951 107.772561 
C 83.975809 107.458418 83.549681 107.28191 83.105417 107.28191 
C 82.661153 107.28191 82.235025 107.458418 81.920883 107.772561 
C 81.606741 108.086703 81.430233 108.512831 81.430233 108.957095 
C 81.430233 109.401359 81.606741 109.827487 81.920883 110.141629 
C 82.235025 110.455771 82.661153 110.632279 83.105417 110.632279 
z
" clip-path="url(#pe3385b7f8e)" style="stroke: #000000"/>
    <path d="M 79.557251 100.967087 
C 79.837669 100.967087 80.10664 100.855676 80.304926 100.65739 
C 80.503211 100.459105 80.614623 100.190134 80.614623 99.909716 
C 80.614623 99.629298 80.503211 99.360327 80.304926 99.162042 
C 80.10664 98.963756 79.837669 98.852345 79.557251 98.852345 
C 79.276833 98.852345 79.007863 98.963756 78.809577 99.162042 
C 78.611291 99.360327 78.49988 99.629298 78.49988 99.909716 
C 78.49988 100.190134 78.611291 100.459105 78.809577 100.65739 
C 79.007863 100.855676 79.276833 100.967087 79.557251 100.967087 
z
" clip-path="url(#pe3385b7f8e)" style="stroke: #000000"/>
    <path d="M 77.377059 94.884513 
C 77.592746 94.884513 77.799627 94.79882 77.952141 94.646307 
C 78.104654 94.493793 78.190347 94.286912 78.190347 94.071225 
C 78.190347 93.855538 78.104654 93.648657 77.952141 93.496143 
C 77.799627 93.34363 77.592746 93.257937 77.377059 93.257937 
C 77.161373 93.257937 76.954491 93.34363 76.801978 93.496143 
C 76.649464 93.648657 76.563771 93.855538 76.563771 94.071225 
C 76.563771 94.286912 76.649464 94.493793 76.801978 94.646307 
C 76.954491 94.79882 77.161373 94.884513 77.377059 94.884513 
z
" clip-path="url(#pe3385b7f8e)" style="stroke: #000000"/>
    <path d="M 75.726811 91.444649 
C 76.042192 91.444649 76.344699 91.319346 76.567707 91.096338 
C 76.790716 90.87333 76.916018 90.570823 76.916018 90.255442 
C 76.916018 89.94006 76.790716 89.637553 76.567707 89.414545 
C 76.344699 89.191537 76.042192 89.066234 75.726811 89.066234 
C 75.41143 89.066234 75.108923 89.191537 74.885915 89.414545 
C 74.662906 89.637553 74.537604 89.94006 74.537604 90.255442 
C 74.537604 90.570823 74.662906 90.87333 74.885915 91.096338 
C 75.108923 91.319346 75.41143 91.444649 75.726811 91.444649 
z
" clip-path="url(#pe3385b7f8e)" style="stroke: #000000"/>
    <path d="M 83.378084 132.663106 
C 83.698282 132.663106 84.005409 132.53589 84.231823 132.309476 
C 84.458237 132.083062 84.585453 131.775936 84.585453 131.455738 
C 84.585453 131.13554 84.458237 130.828414 84.231823 130.602 
C 84.005409 130.375586 83.698282 130.24837 83.378084 130.24837 
C 83.057887 130.24837 82.75076 130.375586 82.524346 130.602 
C 82.297932 130.828414 82.170716 131.13554 82.170716 131.455738 
C 82.170716 131.775936 82.297932 132.083062 82.524346 132.309476 
C 82.75076 132.53589 83.057887 132.663106 83.378084 132.663106 
z
" clip-path="url(#pe3385b7f8e)" style="stroke: #000000"/>
    <path d="M 81.180257 122.061042 
C 81.312858 122.061042 81.440047 122.008359 81.53381 121.914596 
C 81.627573 121.820832 81.680257 121.693644 81.680257 121.561042 
C 81.680257 121.428441 81.627573 121.301252 81.53381 121.207489 
C 81.440047 121.113725 81.312858 121.061042 81.180257 121.061042 
C 81.047655 121.061042 80.920467 121.113725 80.826703 121.207489 
C 80.73294 121.301252 80.680257 121.428441 80.680257 121.561042 
C 80.680257 121.693644 80.73294 121.820832 80.826703 121.914596 
C 80.920467 122.008359 81.047655 122.061042 81.180257 122.061042 
z
" clip-path="url(#pe3385b7f8e)" style="stroke: #000000"/>
    <path d="M 78.599213 113.560576 
C 78.731814 113.560576 78.859003 113.507893 78.952766 113.41413 
C 79.04653 113.320366 79.099213 113.193178 79.099213 113.060576 
C 79.099213 112.927975 79.04653 112.800787 78.952766 112.707023 
C 78.859003 112.61326 78.731814 112.560576 78.599213 112.560576 
C 78.466611 112.560576 78.339423 112.61326 78.245659 112.707023 
C 78.151896 112.800787 78.099213 112.927975 78.099213 113.060576 
C 78.099213 113.193178 78.151896 113.320366 78.245659 113.41413 
C 78.339423 113.507893 78.466611 113.560576 78.599213 113.560576 
z
" clip-path="url(#pe3385b7f8e)" style="stroke: #000000"/>
    <path d="M 73.085965 109.813146 
C 73.284251 109.813146 73.474442 109.734366 73.614651 109.594157 
C 73.75486 109.453948 73.833639 109.263757 73.833639 109.065472 
C 73.833639 108.867186 73.75486 108.676995 73.614651 108.536786 
C 73.474442 108.396577 73.284251 108.317797 73.085965 108.317797 
C 72.887679 108.317797 72.697488 108.396577 72.557279 108.536786 
C 72.41707 108.676995 72.338291 108.867186 72.338291 109.065472 
C 72.338291 109.263757 72.41707 109.453948 72.557279 109.594157 
C 72.697488 109.734366 72.887679 109.813146 73.085965 109.813146 
z
" clip-path="url(#pe3385b7f8e)" style="stroke: #000000"/>
    <path d="M 74.138148 100.696576 
C 74.295839 100.696576 74.447092 100.633925 74.558596 100.522421 
C 74.6701 100.410917 74.732751 100.259664 74.732751 100.101973 
C 74.732751 99.944282 74.6701 99.793029 74.558596 99.681525 
C 74.447092 99.57002 74.295839 99.507369 74.138148 99.507369 
C 73.980457 99.507369 73.829204 99.57002 73.7177 99.681525 
C 73.606195 99.793029 73.543544 99.944282 73.543544 100.101973 
C 73.543544 100.259664 73.606195 100.410917 73.7177 100.522421 
C 73.829204 100.633925 73.980457 100.696576 74.138148 100.696576 
z
" clip-path="url(#pe3385b7f8e)" style="stroke: #000000"/>
    <path d="M 70.799017 95.775816 
C 71.072145 95.775816 71.334124 95.6673 71.527255 95.47417 
C 71.720386 95.281039 71.828901 95.01906 71.828901 94.745932 
C 71.828901 94.472804 71.720386 94.210825 71.527255 94.017694 
C 71.334124 93.824563 71.072145 93.716048 70.799017 93.716048 
C 70.525889 93.716048 70.26391 93.824563 70.07078 94.017694 
C 69.877649 94.210825 69.769134 94.472804 69.769134 94.745932 
C 69.769134 95.01906 69.877649 95.281039 70.07078 95.47417 
C 70.26391 95.6673 70.525889 95.775816 70.799017 95.775816 
z
" clip-path="url(#pe3385b7f8e)" style="stroke: #000000"/>
    <path d="M 67.021344 85.099562 
C 67.488464 85.099562 67.936515 84.913973 68.266819 84.583669 
C 68.597123 84.253365 68.782712 83.805314 68.782712 83.338194 
C 68.782712 82.871073 68.597123 82.423022 68.266819 82.092718 
C 67.936515 81.762414 67.488464 81.576825 67.021344 81.576825 
C 66.554223 81.576825 66.106172 81.762414 65.775868 82.092718 
C 65.445564 82.423022 65.259975 82.871073 65.259975 83.338194 
C 65.259975 83.805314 65.445564 84.253365 65.775868 84.583669 
C 66.106172 84.913973 66.554223 85.099562 67.021344 85.099562 
z
" clip-path="url(#pe3385b7f8e)" style="stroke: #000000"/>
    <path d="M 71.688623 120.264376 
C 72.101509 120.264376 72.497541 120.100335 72.789495 119.80838 
C 73.08145 119.516425 73.245492 119.120394 73.245492 118.707508 
C 73.245492 118.294621 73.08145 117.89859 72.789495 117.606635 
C 72.497541 117.314681 72.101509 117.150639 71.688623 117.150639 
C 71.275737 117.150639 70.879705 117.314681 70.587751 117.606635 
C 70.295796 117.89859 70.131754 118.294621 70.131754 118.707508 
C 70.131754 119.120394 70.295796 119.516425 70.587751 119.80838 
C 70.879705 120.100335 71.275737 120.264376 71.688623 120.264376 
z
" clip-path="url(#pe3385b7f8e)" style="stroke: #000000"/>
    <path d="M 69.06778 109.410171 
C 69.477332 109.410171 69.870164 109.247454 70.159761 108.957857 
C 70.449358 108.668261 70.612075 108.275428 70.612075 107.865876 
C 70.612075 107.456324 70.449358 107.063491 70.159761 106.773894 
C 69.870164 106.484297 69.477332 106.32158 69.06778 106.32158 
C 68.658228 106.32158 68.265395 106.484297 67.975798 106.773894 
C 67.686201 107.063491 67.523484 107.456324 67.523484 107.865876 
C 67.523484 108.275428 67.686201 108.668261 67.975798 108.957857 
C 68.265395 109.247454 68.658228 109.410171 69.06778 109.410171 
z
" clip-path="url(#pe3385b7f8e)" style="stroke: #000000"/>
    <path d="M 67.185273 105.187391 
C 67.541355 105.187391 67.8829 105.045918 68.134688 104.794131 
C 68.386475 104.542343 68.527948 104.200798 68.527948 103.844716 
C 68.527948 103.488635 68.386475 103.147089 68.134688 102.895302 
C 67.8829 102.643514 67.541355 102.502041 67.185273 102.502041 
C 66.829192 102.502041 66.487647 102.643514 66.235859 102.895302 
C 65.984071 103.147089 65.842599 103.488635 65.842599 103.844716 
C 65.842599 104.200798 65.984071 104.542343 66.235859 104.794131 
C 66.487647 105.045918 66.829192 105.187391 67.185273 105.187391 
z
" clip-path="url(#pe3385b7f8e)" style="stroke: #000000"/>
    <path d="M 60.216981 87.607506 
C 60.349583 87.607506 60.476771 87.554823 60.570535 87.461059 
C 60.664298 87.367296 60.716981 87.240107 60.716981 87.107506 
C 60.716981 86.974904 60.664298 86.847716 60.570535 86.753952 
C 60.476771 86.660189 60.349583 86.607506 60.216981 86.607506 
C 60.08438 86.607506 59.957191 86.660189 59.863428 86.753952 
C 59.769664 86.847716 59.716981 86.974904 59.716981 87.107506 
C 59.716981 87.240107 59.769664 87.367296 59.863428 87.461059 
C 59.957191 87.554823 60.08438 87.607506 60.216981 87.607506 
z
" clip-path="url(#pe3385b7f8e)" style="stroke: #000000"/>
    <path d="M 62.061402 80.469715 
C 62.194003 80.469715 62.321192 80.417032 62.414955 80.323269 
C 62.508719 80.229505 62.561402 80.102317 62.561402 79.969715 
C 62.561402 79.837114 62.508719 79.709925 62.414955 79.616162 
C 62.321192 79.522398 62.194003 79.469715 62.061402 79.469715 
C 61.9288 79.469715 61.801612 79.522398 61.707848 79.616162 
C 61.614085 79.709925 61.561402 79.837114 61.561402 79.969715 
C 61.561402 80.102317 61.614085 80.229505 61.707848 80.323269 
C 61.801612 80.417032 61.9288 80.469715 62.061402 80.469715 
z
" clip-path="url(#pe3385b7f8e)" style="stroke: #000000"/>
    <path d="M 53.729277 67.423761 
C 53.861879 67.423761 53.989067 67.371078 54.082831 67.277314 
C 54.176594 67.183551 54.229277 67.056362 54.229277 66.923761 
C 54.229277 66.791159 54.176594 66.663971 54.082831 66.570207 
C 53.989067 66.476444 53.861879 66.423761 53.729277 66.423761 
C 53.596676 66.423761 53.469488 66.476444 53.375724 66.570207 
C 53.281961 66.663971 53.229277 66.791159 53.229277 66.923761 
C 53.229277 67.056362 53.281961 67.183551 53.375724 67.277314 
C 53.469488 67.371078 53.596676 67.423761 53.729277 67.423761 
z
" clip-path="url(#pe3385b7f8e)" style="stroke: #000000"/>
    <path d="M 73.235904 143.56538 
C 73.393595 143.56538 73.544848 143.502729 73.656352 143.391225 
C 73.767856 143.279721 73.830507 143.128467 73.830507 142.970776 
C 73.830507 142.813086 73.767856 142.661832 73.656352 142.550328 
C 73.544848 142.438824 73.393595 142.376173 73.235904 142.376173 
C 73.078213 142.376173 72.92696 142.438824 72.815456 142.550328 
C 72.703952 142.661832 72.6413 142.813086 72.6413 142.970776 
C 72.6413 143.128467 72.703952 143.279721 72.815456 143.391225 
C 72.92696 143.502729 73.078213 143.56538 73.235904 143.56538 
z
" clip-path="url(#pe3385b7f8e)" style="stroke: #000000"/>
    <path d="M 69.476704 131.840429 
C 69.80593 131.840429 70.121716 131.709626 70.354514 131.476828 
C 70.587313 131.24403 70.718116 130.928243 70.718116 130.599017 
C 70.718116 130.269791 70.587313 129.954004 70.354514 129.721206 
C 70.121716 129.488408 69.80593 129.357605 69.476704 129.357605 
C 69.147477 129.357605 68.831691 129.488408 68.598893 129.721206 
C 68.366095 129.954004 68.235292 130.269791 68.235292 130.599017 
C 68.235292 130.928243 68.366095 131.24403 68.598893 131.476828 
C 68.831691 131.709626 69.147477 131.840429 69.476704 131.840429 
z
" clip-path="url(#pe3385b7f8e)" style="stroke: #000000"/>
    <path d="M 68.258796 124.665 
C 68.416487 124.665 68.56774 124.602349 68.679244 124.490844 
C 68.790749 124.37934 68.8534 124.228087 68.8534 124.070396 
C 68.8534 123.912706 68.790749 123.761452 68.679244 123.649948 
C 68.56774 123.538444 68.416487 123.475793 68.258796 123.475793 
C 68.101105 123.475793 67.949852 123.538444 67.838348 123.649948 
C 67.726844 123.761452 67.664193 123.912706 67.664193 124.070396 
C 67.664193 124.228087 67.726844 124.37934 67.838348 124.490844 
C 67.949852 124.602349 68.101105 124.665 68.258796 124.665 
z
" clip-path="url(#pe3385b7f8e)" style="stroke: #000000"/>
    <path d="M 64.329109 122.879239 
C 64.649307 122.879239 64.956434 122.752023 65.182848 122.525609 
C 65.409262 122.299195 65.536478 121.992069 65.536478 121.671871 
C 65.536478 121.351673 65.409262 121.044547 65.182848 120.818133 
C 64.956434 120.591719 64.649307 120.464503 64.329109 120.464503 
C 64.008912 120.464503 63.701785 120.591719 63.475371 120.818133 
C 63.248957 121.044547 63.121741 121.351673 63.121741 121.671871 
C 63.121741 121.992069 63.248957 122.299195 63.475371 122.525609 
C 63.701785 122.752023 64.008912 122.879239 64.329109 122.879239 
z
" clip-path="url(#pe3385b7f8e)" style="stroke: #000000"/>
    <path d="M 63.153899 114.125376 
C 63.352185 114.125376 63.542376 114.046596 63.682585 113.906387 
C 63.822794 113.766178 63.901574 113.575987 63.901574 113.377701 
C 63.901574 113.179416 63.822794 112.989225 63.682585 112.849016 
C 63.542376 112.708807 63.352185 112.630027 63.153899 112.630027 
C 62.955614 112.630027 62.765423 112.708807 62.625214 112.849016 
C 62.485005 112.989225 62.406225 113.179416 62.406225 113.377701 
C 62.406225 113.575987 62.485005 113.766178 62.625214 113.906387 
C 62.765423 114.046596 62.955614 114.125376 63.153899 114.125376 
z
" clip-path="url(#pe3385b7f8e)" style="stroke: #000000"/>
    <path d="M 63.808288 107.74958 
C 64.202357 107.74958 64.580339 107.593015 64.858988 107.314366 
C 65.137637 107.035717 65.294202 106.657735 65.294202 106.263666 
C 65.294202 105.869597 65.137637 105.491615 64.858988 105.212967 
C 64.580339 104.934318 64.202357 104.777752 63.808288 104.777752 
C 63.414219 104.777752 63.036237 104.934318 62.757588 105.212967 
C 62.478939 105.491615 62.322374 105.869597 62.322374 106.263666 
C 62.322374 106.657735 62.478939 107.035717 62.757588 107.314366 
C 63.036237 107.593015 63.414219 107.74958 63.808288 107.74958 
z
" clip-path="url(#pe3385b7f8e)" style="stroke: #000000"/>
    <path d="M 59.282985 102.672079 
C 59.570165 102.672079 59.845622 102.557981 60.048689 102.354914 
C 60.251756 102.151847 60.365853 101.87639 60.365853 101.58921 
C 60.365853 101.30203 60.251756 101.026574 60.048689 100.823507 
C 59.845622 100.62044 59.570165 100.506342 59.282985 100.506342 
C 58.995805 100.506342 58.720348 100.62044 58.517282 100.823507 
C 58.314215 101.026574 58.200117 101.30203 58.200117 101.58921 
C 58.200117 101.87639 58.314215 102.151847 58.517282 102.354914 
C 58.720348 102.557981 58.995805 102.672079 59.282985 102.672079 
z
" clip-path="url(#pe3385b7f8e)" style="stroke: #000000"/>
    <path d="M 56.097587 96.013796 
C 56.431063 96.013796 56.750925 95.881305 56.986727 95.645502 
C 57.22253 95.409699 57.355021 95.089838 57.355021 94.756362 
C 57.355021 94.422887 57.22253 94.103025 56.986727 93.867223 
C 56.750925 93.63142 56.431063 93.498929 56.097587 93.498929 
C 55.764112 93.498929 55.44425 93.63142 55.208448 93.867223 
C 54.972645 94.103025 54.840154 94.422887 54.840154 94.756362 
C 54.840154 95.089838 54.972645 95.409699 55.208448 95.645502 
C 55.44425 95.881305 55.764112 96.013796 56.097587 96.013796 
z
" clip-path="url(#pe3385b7f8e)" style="stroke: #000000"/>
    <path d="M 51.812523 81.658234 
C 51.945125 81.658234 52.072313 81.605551 52.166077 81.511787 
C 52.25984 81.418024 52.312523 81.290835 52.312523 81.158234 
C 52.312523 81.025632 52.25984 80.898444 52.166077 80.80468 
C 52.072313 80.710917 51.945125 80.658234 51.812523 80.658234 
C 51.679922 80.658234 51.552733 80.710917 51.45897 80.80468 
C 51.365207 80.898444 51.312523 81.025632 51.312523 81.158234 
C 51.312523 81.290835 51.365207 81.418024 51.45897 81.511787 
C 51.552733 81.605551 51.679922 81.658234 51.812523 81.658234 
z
" clip-path="url(#pe3385b7f8e)" style="stroke: #000000"/>
    <path d="M 67.464859 138.165269 
C 67.59746 138.165269 67.724649 138.112586 67.818412 138.018823 
C 67.912175 137.925059 67.964859 137.797871 67.964859 137.665269 
C 67.964859 137.532668 67.912175 137.405479 67.818412 137.311716 
C 67.724649 137.217952 67.59746 137.165269 67.464859 137.165269 
C 67.332257 137.165269 67.205069 137.217952 67.111305 137.311716 
C 67.017542 137.405479 66.964859 137.532668 66.964859 137.665269 
C 66.964859 137.797871 67.017542 137.925059 67.111305 138.018823 
C 67.205069 138.112586 67.332257 138.165269 67.464859 138.165269 
z
" clip-path="url(#pe3385b7f8e)" style="stroke: #000000"/>
    <path d="M 62.848649 135.963683 
C 63.090137 135.963683 63.321768 135.867739 63.492526 135.69698 
C 63.663284 135.526222 63.759229 135.294592 63.759229 135.053103 
C 63.759229 134.811614 63.663284 134.579984 63.492526 134.409226 
C 63.321768 134.238467 63.090137 134.142523 62.848649 134.142523 
C 62.60716 134.142523 62.375529 134.238467 62.204771 134.409226 
C 62.034013 134.579984 61.938068 134.811614 61.938068 135.053103 
C 61.938068 135.294592 62.034013 135.526222 62.204771 135.69698 
C 62.375529 135.867739 62.60716 135.963683 62.848649 135.963683 
z
" clip-path="url(#pe3385b7f8e)" style="stroke: #000000"/>
    <path d="M 62.293915 126.688303 
C 62.468429 126.688303 62.635818 126.618968 62.759218 126.495568 
C 62.882618 126.372168 62.951952 126.204779 62.951952 126.030266 
C 62.951952 125.855752 62.882618 125.688363 62.759218 125.564963 
C 62.635818 125.441564 62.468429 125.372229 62.293915 125.372229 
C 62.119402 125.372229 61.952013 125.441564 61.828613 125.564963 
C 61.705213 125.688363 61.635878 125.855752 61.635878 126.030266 
C 61.635878 126.204779 61.705213 126.372168 61.828613 126.495568 
C 61.952013 126.618968 62.119402 126.688303 62.293915 126.688303 
z
" clip-path="url(#pe3385b7f8e)" style="stroke: #000000"/>
    <path d="M 59.293419 119.721117 
C 59.755921 119.721117 60.199543 119.537363 60.526582 119.210325 
C 60.85362 118.883286 61.037375 118.439664 61.037375 117.977162 
C 61.037375 117.514659 60.85362 117.071037 60.526582 116.743999 
C 60.199543 116.41696 59.755921 116.233206 59.293419 116.233206 
C 58.830917 116.233206 58.387295 116.41696 58.060256 116.743999 
C 57.733217 117.071037 57.549463 117.514659 57.549463 117.977162 
C 57.549463 118.439664 57.733217 118.883286 58.060256 119.210325 
C 58.387295 119.537363 58.830917 119.721117 59.293419 119.721117 
z
" clip-path="url(#pe3385b7f8e)" style="stroke: #000000"/>
    <path d="M 59.485677 117.56481 
C 59.845134 117.56481 60.189917 117.421996 60.444091 117.167821 
C 60.698266 116.913647 60.84108 116.568864 60.84108 116.209407 
C 60.84108 115.84995 60.698266 115.505166 60.444091 115.250992 
C 60.189917 114.996817 59.845134 114.854004 59.485677 114.854004 
C 59.12622 114.854004 58.781437 114.996817 58.527262 115.250992 
C 58.273088 115.505166 58.130274 115.84995 58.130274 116.209407 
C 58.130274 116.568864 58.273088 116.913647 58.527262 117.167821 
C 58.781437 117.421996 59.12622 117.56481 59.485677 117.56481 
z
" clip-path="url(#pe3385b7f8e)" style="stroke: #000000"/>
    <path d="M 55.597356 108.490038 
C 55.784883 108.490038 55.964755 108.415533 56.097356 108.282931 
C 56.229958 108.15033 56.304463 107.970458 56.304463 107.782931 
C 56.304463 107.595404 56.229958 107.415533 56.097356 107.282931 
C 55.964755 107.15033 55.784883 107.075824 55.597356 107.075824 
C 55.409829 107.075824 55.229958 107.15033 55.097356 107.282931 
C 54.964755 107.415533 54.890249 107.595404 54.890249 107.782931 
C 54.890249 107.970458 54.964755 108.15033 55.097356 108.282931 
C 55.229958 108.415533 55.409829 108.490038 55.597356 108.490038 
z
" clip-path="url(#pe3385b7f8e)" style="stroke: #000000"/>
    <path d="M 50.771547 104.049609 
C 51.013036 104.049609 51.244666 103.953664 51.415425 103.782906 
C 51.586183 103.612148 51.682127 103.380517 51.682127 103.139029 
C 51.682127 102.89754 51.586183 102.66591 51.415425 102.495151 
C 51.244666 102.324393 51.013036 102.228448 50.771547 102.228448 
C 50.530058 102.228448 50.298428 102.324393 50.12767 102.495151 
C 49.956911 102.66591 49.860967 102.89754 49.860967 103.139029 
C 49.860967 103.380517 49.956911 103.612148 50.12767 103.782906 
C 50.298428 103.953664 50.530058 104.049609 50.771547 104.049609 
z
" clip-path="url(#pe3385b7f8e)" style="stroke: #000000"/>
    <path d="M 52.516807 97.014509 
C 52.732493 97.014509 52.939375 96.928816 53.091888 96.776303 
C 53.244402 96.623789 53.330095 96.416908 53.330095 96.201221 
C 53.330095 95.985535 53.244402 95.778653 53.091888 95.62614 
C 52.939375 95.473626 52.732493 95.387933 52.516807 95.387933 
C 52.30112 95.387933 52.094238 95.473626 51.941725 95.62614 
C 51.789212 95.778653 51.703518 95.985535 51.703518 96.201221 
C 51.703518 96.416908 51.789212 96.623789 51.941725 96.776303 
C 52.094238 96.928816 52.30112 97.014509 52.516807 97.014509 
z
" clip-path="url(#pe3385b7f8e)" style="stroke: #000000"/>
    <path d="M 52.448223 123.783079 
C 52.655756 123.783079 52.854817 123.700625 53.001564 123.553877 
C 53.148312 123.40713 53.230766 123.208069 53.230766 123.000536 
C 53.230766 122.793004 53.148312 122.593943 53.001564 122.447195 
C 52.854817 122.300448 52.655756 122.217994 52.448223 122.217994 
C 52.240691 122.217994 52.04163 122.300448 51.894882 122.447195 
C 51.748135 122.593943 51.665681 122.793004 51.665681 123.000536 
C 51.665681 123.208069 51.748135 123.40713 51.894882 123.553877 
C 52.04163 123.700625 52.240691 123.783079 52.448223 123.783079 
z
" clip-path="url(#pe3385b7f8e)" style="stroke: #000000"/>
    <path d="M 52.320804 117.828 
C 52.508331 117.828 52.688203 117.753495 52.820804 117.620893 
C 52.953406 117.488292 53.027911 117.30842 53.027911 117.120893 
C 53.027911 116.933367 52.953406 116.753495 52.820804 116.620893 
C 52.688203 116.488292 52.508331 116.413787 52.320804 116.413787 
C 52.133277 116.413787 51.953406 116.488292 51.820804 116.620893 
C 51.688203 116.753495 51.613698 116.933367 51.613698 117.120893 
C 51.613698 117.30842 51.688203 117.488292 51.820804 117.620893 
C 51.953406 117.753495 52.133277 117.828 52.320804 117.828 
z
" clip-path="url(#pe3385b7f8e)" style="stroke: #000000"/>
    <path d="M 49.080296 111.6573 
C 49.212898 111.6573 49.340086 111.604617 49.43385 111.510853 
C 49.527613 111.41709 49.580296 111.289901 49.580296 111.1573 
C 49.580296 111.024698 49.527613 110.89751 49.43385 110.803746 
C 49.340086 110.709983 49.212898 110.6573 49.080296 110.6573 
C 48.947695 110.6573 48.820506 110.709983 48.726743 110.803746 
C 48.63298 110.89751 48.580296 111.024698 48.580296 111.1573 
C 48.580296 111.289901 48.63298 111.41709 48.726743 111.510853 
C 48.820506 111.604617 48.947695 111.6573 49.080296 111.6573 
z
" clip-path="url(#pe3385b7f8e)" style="stroke: #000000"/>
   </g>
   <g id="matplotlib.axis_1">
    <g id="xtick_1">
     <g id="line2d_1">
      <defs>
       <path id="m1aa230fd21" d="M 0 0 
L 0 3.5 
" style="stroke: #000000; stroke-width: 0.8"/>
      </defs>
      <g>
       <use xlink:href="#m1aa230fd21" x="18" y="189" style="stroke: #000000; stroke-width: 0.8"/>
      </g>
     </g>
     <g id="text_1">
      <!-- −10 -->
      <g transform="translate(7.447656 203.598437)scale(0.1 -0.1)">
       <defs>
        <path id="DejaVuSans-2212" d="M 678 2272 
L 4684 2272 
L 4684 1741 
L 678 1741 
L 678 2272 
z
" transform="scale(0.015625)"/>
        <path id="DejaVuSans-31" d="M 794 531 
L 1825 531 
L 1825 4091 
L 703 3866 
L 703 4441 
L 1819 4666 
L 2450 4666 
L 2450 531 
L 3481 531 
L 3481 0 
L 794 0 
L 794 531 
z
" transform="scale(0.015625)"/>
        <path id="DejaVuSans-30" d="M 2034 4250 
Q 1547 4250 1301 3770 
Q 1056 3291 1056 2328 
Q 1056 1369 1301 889 
Q 1547 409 2034 409 
Q 2525 409 2770 889 
Q 3016 1369 3016 2328 
Q 3016 3291 2770 3770 
Q 2525 4250 2034 4250 
z
M 2034 4750 
Q 2819 4750 3233 4129 
Q 3647 3509 3647 2328 
Q 3647 1150 3233 529 
Q 2819 -91 2034 -91 
Q 1250 -91 836 529 
Q 422 1150 422 2328 
Q 422 3509 836 4129 
Q 1250 4750 2034 4750 
z
" transform="scale(0.015625)"/>
       </defs>
       <use xlink:href="#DejaVuSans-2212"/>
       <use xlink:href="#DejaVuSans-31" x="83.789062"/>
       <use xlink:href="#DejaVuSans-30" x="147.412109"/>
      </g>
     </g>
    </g>
    <g id="xtick_2">
     <g id="line2d_2">
      <g>
       <use xlink:href="#m1aa230fd21" x="73.8" y="189" style="stroke: #000000; stroke-width: 0.8"/>
      </g>
     </g>
     <g id="text_2">
      <!-- 0 -->
      <g transform="translate(70.61875 203.598437)scale(0.1 -0.1)">
       <use xlink:href="#DejaVuSans-30"/>
      </g>
     </g>
    </g>
    <g id="xtick_3">
     <g id="line2d_3">
      <g>
       <use xlink:href="#m1aa230fd21" x="129.6" y="189" style="stroke: #000000; stroke-width: 0.8"/>
      </g>
     </g>
     <g id="text_3">
      <!-- 10 -->
      <g transform="translate(123.2375 203.598437)scale(0.1 -0.1)">
       <use xlink:href="#DejaVuSans-31"/>
       <use xlink:href="#DejaVuSans-30" x="63.623047"/>
      </g>
     </g>
    </g>
   </g>
   <g id="matplotlib.axis_2">
    <g id="ytick_1">
     <g id="line2d_4">
      <defs>
       <path id="mcd05d828da" d="M 0 0 
L -3.5 0 
" style="stroke: #000000; stroke-width: 0.8"/>
      </defs>
      <g>
       <use xlink:href="#mcd05d828da" x="18" y="189" style="stroke: #000000; stroke-width: 0.8"/>
      </g>
     </g>
     <g id="text_4">
      <!-- −15 -->
      <g transform="translate(-10.104688 192.799219)scale(0.1 -0.1)">
       <defs>
        <path id="DejaVuSans-35" d="M 691 4666 
L 3169 4666 
L 3169 4134 
L 1269 4134 
L 1269 2991 
Q 1406 3038 1543 3061 
Q 1681 3084 1819 3084 
Q 2600 3084 3056 2656 
Q 3513 2228 3513 1497 
Q 3513 744 3044 326 
Q 2575 -91 1722 -91 
Q 1428 -91 1123 -41 
Q 819 9 494 109 
L 494 744 
Q 775 591 1075 516 
Q 1375 441 1709 441 
Q 2250 441 2565 725 
Q 2881 1009 2881 1497 
Q 2881 1984 2565 2268 
Q 2250 2553 1709 2553 
Q 1456 2553 1204 2497 
Q 953 2441 691 2322 
L 691 4666 
z
" transform="scale(0.015625)"/>
       </defs>
       <use xlink:href="#DejaVuSans-2212"/>
       <use xlink:href="#DejaVuSans-31" x="83.789062"/>
       <use xlink:href="#DejaVuSans-35" x="147.412109"/>
      </g>
     </g>
    </g>
    <g id="ytick_2">
     <g id="line2d_5">
      <g>
       <use xlink:href="#mcd05d828da" x="18" y="161.82" style="stroke: #000000; stroke-width: 0.8"/>
      </g>
     </g>
     <g id="text_5">
      <!-- −10 -->
      <g transform="translate(-10.104688 165.619219)scale(0.1 -0.1)">
       <use xlink:href="#DejaVuSans-2212"/>
       <use xlink:href="#DejaVuSans-31" x="83.789062"/>
       <use xlink:href="#DejaVuSans-30" x="147.412109"/>
      </g>
     </g>
    </g>
    <g id="ytick_3">
     <g id="line2d_6">
      <g>
       <use xlink:href="#mcd05d828da" x="18" y="134.64" style="stroke: #000000; stroke-width: 0.8"/>
      </g>
     </g>
     <g id="text_6">
      <!-- −5 -->
      <g transform="translate(-3.742188 138.439219)scale(0.1 -0.1)">
       <use xlink:href="#DejaVuSans-2212"/>
       <use xlink:href="#DejaVuSans-35" x="83.789062"/>
      </g>
     </g>
    </g>
    <g id="ytick_4">
     <g id="line2d_7">
      <g>
       <use xlink:href="#mcd05d828da" x="18" y="107.46" style="stroke: #000000; stroke-width: 0.8"/>
      </g>
     </g>
     <g id="text_7">
      <!-- 0 -->
      <g transform="translate(4.6375 111.259219)scale(0.1 -0.1)">
       <use xlink:href="#DejaVuSans-30"/>
      </g>
     </g>
    </g>
    <g id="ytick_5">
     <g id="line2d_8">
      <g>
       <use xlink:href="#mcd05d828da" x="18" y="80.28" style="stroke: #000000; stroke-width: 0.8"/>
      </g>
     </g>
     <g id="text_8">
      <!-- 5 -->
      <g transform="translate(4.6375 84.079219)scale(0.1 -0.1)">
       <use xlink:href="#DejaVuSans-35"/>
      </g>
     </g>
    </g>
    <g id="ytick_6">
     <g id="line2d_9">
      <g>
       <use xlink:href="#mcd05d828da" x="18" y="53.1" style="stroke: #000000; stroke-width: 0.8"/>
      </g>
     </g>
     <g id="text_9">
      <!-- 10 -->
      <g transform="translate(-1.725 56.899219)scale(0.1 -0.1)">
       <use xlink:href="#DejaVuSans-31"/>
       <use xlink:href="#DejaVuSans-30" x="63.623047"/>
      </g>
     </g>
    </g>
    <g id="ytick_7">
     <g id="line2d_10">
      <g>
       <use xlink:href="#mcd05d828da" x="18" y="25.92" style="stroke: #000000; stroke-width: 0.8"/>
      </g>
     </g>
     <g id="text_10">
      <!-- 15 -->
      <g transform="translate(-1.725 29.719219)scale(0.1 -0.1)">
       <use xlink:href="#DejaVuSans-31"/>
       <use xlink:href="#DejaVuSans-35" x="63.623047"/>
      </g>
     </g>
    </g>
   </g>
   <g id="patch_3">
    <path d="M 18 189 
L 18 25.92 
" style="fill: none; stroke: #000000; stroke-width: 0.8; stroke-linejoin: miter; stroke-linecap: square"/>
   </g>
   <g id="patch_4">
    <path d="M 129.6 189 
L 129.6 25.92 
" style="fill: none; stroke: #000000; stroke-width: 0.8; stroke-linejoin: miter; stroke-linecap: square"/>
   </g>
   <g id="patch_5">
    <path d="M 18 189 
L 129.6 189 
" style="fill: none; stroke: #000000; stroke-width: 0.8; stroke-linejoin: miter; stroke-linecap: square"/>
   </g>
   <g id="patch_6">
    <path d="M 18 25.92 
L 129.6 25.92 
" style="fill: none; stroke: #000000; stroke-width: 0.8; stroke-linejoin: miter; stroke-linecap: square"/>
   </g>
  </g>
 </g>
 <defs>
  <clipPath id="pe3385b7f8e">
   <rect x="18" y="25.92" width="111.6" height="163.08"/>
  </clipPath>
 </defs>
</svg>
