<?xml version="1.0" encoding="utf-8" standalone="no"?>
<!DOCTYPE svg PUBLIC "-//W3C//DTD SVG 1.1//EN"
  "http://www.w3.org/Graphics/SVG/1.1/DTD/svg11.dtd">
<svg xmlns:xlink="http://www.w3.org/1999/xlink" width="144pt" height="216pt" viewBox="0 0 144 216" xmlns="http://www.w3.org/2000/svg" version="1.1">
 <metadata>
  <rdf:RDF xmlns:dc="http://purl.org/dc/elements/1.1/" xmlns:cc="http://creativecommons.org/ns#" xmlns:rdf="http://www.w3.org/1999/02/22-rdf-syntax-ns#">
   <cc:Work>
    <dc:type rdf:resource="http://purl.org/dc/dcmitype/StillImage"/>
    <dc:date>2022-06-23T14:44:17.340760</dc:date>
    <dc:format>image/svg+xml</dc:format>
    <dc:creator>
     <cc:Agent>
      <dc:title>Matplotlib v3.5.1, https://matplotlib.org/</dc:title>
     </cc:Agent>
    </dc:creator>
   </cc:Work>
  </rdf:RDF>
 </metadata>
 <defs>
  <style type="text/css">*{stroke-linejoin: round; stroke-linecap: butt}</style>
 </defs>
 <g id="figure_1">
  <g id="patch_1">
   <path d="M 0 216 
L 144 216 
L 144 0 
L 0 0 
L 0 216 
z
" style="fill: none"/>
  </g>
  <g id="axes_1">
   <g id="patch_2">
    <path d="M 18 189 
L 129.6 189 
L 129.6 25.92 
L 18 25.92 
z
" style="fill: #ffffff"/>
   </g>
   <g id="PathCollection_1">
    <defs>
     <path id="mca2cb73563" d="M 0 2.738613 
C 0.726289 2.738613 1.422928 2.450055 1.936492 1.936492 
C 2.450055 1.422928 2.738613 0.726289 2.738613 0 
C 2.738613 -0.726289 2.450055 -1.422928 1.936492 -1.936492 
C 1.422928 -2.450055 0.726289 -2.738613 0 -2.738613 
C -0.726289 -2.738613 -1.422928 -2.450055 -1.936492 -1.936492 
C -2.450055 -1.422928 -2.738613 -0.726289 -2.738613 0 
C -2.738613 0.726289 -2.450055 1.422928 -1.936492 1.936492 
C -1.422928 2.450055 -0.726289 2.738613 0 2.738613 
z
" style="stroke: #ff0000; stroke-width: 1.75"/>
    </defs>
    <g clip-path="url(#pd10499b6e9)">
     <use xlink:href="#mca2cb73563" x="80.775" y="107.46" style="fill: #ff0000; stroke: #ff0000; stroke-width: 1.75"/>
     <use xlink:href="#mca2cb73563" x="94.725" y="107.46" style="fill: #ff0000; stroke: #ff0000; stroke-width: 1.75"/>
     <use xlink:href="#mca2cb73563" x="59.85" y="119.229285" style="fill: #ff0000; stroke: #ff0000; stroke-width: 1.75"/>
     <use xlink:href="#mca2cb73563" x="73.8" y="119.229285" style="fill: #ff0000; stroke: #ff0000; stroke-width: 1.75"/>
     <use xlink:href="#mca2cb73563" x="87.75" y="119.229285" style="fill: #ff0000; stroke: #ff0000; stroke-width: 1.75"/>
     <use xlink:href="#mca2cb73563" x="66.825" y="130.99857" style="fill: #ff0000; stroke: #ff0000; stroke-width: 1.75"/>
     <use xlink:href="#mca2cb73563" x="80.775" y="130.99857" style="fill: #ff0000; stroke: #ff0000; stroke-width: 1.75"/>
    </g>
   </g>
   <g id="PathCollection_2">
    <defs>
     <path id="C0_0_beb6320df0" d="M 0 2.738613 
C 0.726289 2.738613 1.422928 2.450055 1.936492 1.936492 
C 2.450055 1.422928 2.738613 0.726289 2.738613 -0 
C 2.738613 -0.726289 2.450055 -1.422928 1.936492 -1.936492 
C 1.422928 -2.450055 0.726289 -2.738613 0 -2.738613 
C -0.726289 -2.738613 -1.422928 -2.450055 -1.936492 -1.936492 
C -2.450055 -1.422928 -2.738613 -0.726289 -2.738613 0 
C -2.738613 0.726289 -2.450055 1.422928 -1.936492 1.936492 
C -1.422928 2.450055 -0.726289 2.738613 0 2.738613 
z
"/>
    </defs>
    <g clip-path="url(#pd10499b6e9)">
     <use xlink:href="#C0_0_beb6320df0" x="66.825" y="83.92143" style="fill: none; stroke: #ff0000; stroke-width: 1.75"/>
    </g>
    <g clip-path="url(#pd10499b6e9)">
     <use xlink:href="#C0_0_beb6320df0" x="80.775" y="83.92143" style="fill: none; stroke: #ff0000; stroke-width: 1.75"/>
    </g>
    <g clip-path="url(#pd10499b6e9)">
     <use xlink:href="#C0_0_beb6320df0" x="59.85" y="95.690715" style="fill: none; stroke: #ff0000; stroke-width: 1.75"/>
    </g>
    <g clip-path="url(#pd10499b6e9)">
     <use xlink:href="#C0_0_beb6320df0" x="73.8" y="95.690715" style="fill: none; stroke: #ff0000; stroke-width: 1.75"/>
    </g>
    <g clip-path="url(#pd10499b6e9)">
     <use xlink:href="#C0_0_beb6320df0" x="87.75" y="95.690715" style="fill: none; stroke: #ff0000; stroke-width: 1.75"/>
    </g>
    <g clip-path="url(#pd10499b6e9)">
     <use xlink:href="#C0_0_beb6320df0" x="52.875" y="107.46" style="fill: none; stroke: #ff0000; stroke-width: 1.75"/>
    </g>
    <g clip-path="url(#pd10499b6e9)">
     <use xlink:href="#C0_0_beb6320df0" x="66.825" y="107.46" style="fill: none; stroke: #ff0000; stroke-width: 1.75"/>
    </g>
   </g>
   <g id="PathCollection_3">
    <path d="M 112.855241 116.271957 
C 112.987843 116.271957 113.115031 116.219274 113.208795 116.125511 
C 113.302558 116.031747 113.355241 115.904559 113.355241 115.771957 
C 113.355241 115.639356 113.302558 115.512167 113.208795 115.418404 
C 113.115031 115.324641 112.987843 115.271957 112.855241 115.271957 
C 112.72264 115.271957 112.595451 115.324641 112.501688 115.418404 
C 112.407924 115.512167 112.355241 115.639356 112.355241 115.771957 
C 112.355241 115.904559 112.407924 116.031747 112.501688 116.125511 
C 112.595451 116.219274 112.72264 116.271957 112.855241 116.271957 
z
" clip-path="url(#pd10499b6e9)" style="stroke: #000000"/>
    <path d="M 105.822985 95.629999 
C 105.955587 95.629999 106.082775 95.577315 106.176539 95.483552 
C 106.270302 95.389788 106.322985 95.2626 106.322985 95.129999 
C 106.322985 94.997397 106.270302 94.870209 106.176539 94.776445 
C 106.082775 94.682682 105.955587 94.629999 105.822985 94.629999 
C 105.690384 94.629999 105.563195 94.682682 105.469432 94.776445 
C 105.375669 94.870209 105.322985 94.997397 105.322985 95.129999 
C 105.322985 95.2626 105.375669 95.389788 105.469432 95.483552 
C 105.563195 95.577315 105.690384 95.629999 105.822985 95.629999 
z
" clip-path="url(#pd10499b6e9)" style="stroke: #000000"/>
    <path d="M 99.302493 105.750829 
C 99.435094 105.750829 99.562283 105.698146 99.656046 105.604382 
C 99.74981 105.510619 99.802493 105.38343 99.802493 105.250829 
C 99.802493 105.118227 99.74981 104.991039 99.656046 104.897276 
C 99.562283 104.803512 99.435094 104.750829 99.302493 104.750829 
C 99.169891 104.750829 99.042703 104.803512 98.948939 104.897276 
C 98.855176 104.991039 98.802493 105.118227 98.802493 105.250829 
C 98.802493 105.38343 98.855176 105.510619 98.948939 105.604382 
C 99.042703 105.698146 99.169891 105.750829 99.302493 105.750829 
z
" clip-path="url(#pd10499b6e9)" style="stroke: #000000"/>
    <path d="M 97.571851 100.913995 
C 97.746365 100.913995 97.913754 100.84466 98.037154 100.721261 
C 98.160553 100.597861 98.229888 100.430472 98.229888 100.255958 
C 98.229888 100.081445 98.160553 99.914056 98.037154 99.790656 
C 97.913754 99.667256 97.746365 99.597921 97.571851 99.597921 
C 97.397338 99.597921 97.229949 99.667256 97.106549 99.790656 
C 96.983149 99.914056 96.913814 100.081445 96.913814 100.255958 
C 96.913814 100.430472 96.983149 100.597861 97.106549 100.721261 
C 97.229949 100.84466 97.397338 100.913995 97.571851 100.913995 
z
" clip-path="url(#pd10499b6e9)" style="stroke: #000000"/>
    <path d="M 97.161736 111.897991 
C 97.754748 111.897991 98.323552 111.662385 98.742875 111.243062 
C 99.162197 110.823739 99.397804 110.254936 99.397804 109.661923 
C 99.397804 109.068911 99.162197 108.500108 98.742875 108.080785 
C 98.323552 107.661462 97.754748 107.425855 97.161736 107.425855 
C 96.568724 107.425855 95.99992 107.661462 95.580597 108.080785 
C 95.161274 108.500108 94.925668 109.068911 94.925668 109.661923 
C 94.925668 110.254936 95.161274 110.823739 95.580597 111.243062 
C 95.99992 111.662385 96.568724 111.897991 97.161736 111.897991 
z
" clip-path="url(#pd10499b6e9)" style="stroke: #000000"/>
    <path d="M 94.105186 110.104299 
C 94.585395 110.104299 95.046001 109.913509 95.385561 109.57395 
C 95.72512 109.234391 95.915909 108.773785 95.915909 108.293575 
C 95.915909 107.813366 95.72512 107.35276 95.385561 107.0132 
C 95.046001 106.673641 94.585395 106.482852 94.105186 106.482852 
C 93.624977 106.482852 93.164371 106.673641 92.824811 107.0132 
C 92.485252 107.35276 92.294463 107.813366 92.294463 108.293575 
C 92.294463 108.773785 92.485252 109.234391 92.824811 109.57395 
C 93.164371 109.913509 93.624977 110.104299 94.105186 110.104299 
z
" clip-path="url(#pd10499b6e9)" style="stroke: #000000"/>
    <path d="M 90.081174 98.940972 
C 90.574773 98.940972 91.048221 98.744863 91.397248 98.395836 
C 91.746275 98.046809 91.942384 97.573361 91.942384 97.079762 
C 91.942384 96.586164 91.746275 96.112715 91.397248 95.763688 
C 91.048221 95.414661 90.574773 95.218552 90.081174 95.218552 
C 89.587576 95.218552 89.114127 95.414661 88.7651 95.763688 
C 88.416073 96.112715 88.219965 96.586164 88.219965 97.079762 
C 88.219965 97.573361 88.416073 98.046809 88.7651 98.395836 
C 89.114127 98.744863 89.587576 98.940972 90.081174 98.940972 
z
" clip-path="url(#pd10499b6e9)" style="stroke: #000000"/>
    <path d="M 85.660089 87.011038 
C 86.032177 87.011038 86.389076 86.863206 86.652183 86.600099 
C 86.915289 86.336993 87.063122 85.980094 87.063122 85.608005 
C 87.063122 85.235916 86.915289 84.879017 86.652183 84.615911 
C 86.389076 84.352804 86.032177 84.204972 85.660089 84.204972 
C 85.288 84.204972 84.931101 84.352804 84.667994 84.615911 
C 84.404888 84.879017 84.257055 85.235916 84.257055 85.608005 
C 84.257055 85.980094 84.404888 86.336993 84.667994 86.600099 
C 84.931101 86.863206 85.288 87.011038 85.660089 87.011038 
z
" clip-path="url(#pd10499b6e9)" style="stroke: #000000"/>
    <path d="M 92.390253 120.442232 
C 92.79288 120.442232 93.179071 120.282267 93.463772 119.997566 
C 93.748472 119.712866 93.908438 119.326675 93.908438 118.924047 
C 93.908438 118.52142 93.748472 118.135229 93.463772 117.850528 
C 93.179071 117.565828 92.79288 117.405862 92.390253 117.405862 
C 91.987626 117.405862 91.601434 117.565828 91.316734 117.850528 
C 91.032033 118.135229 90.872068 118.52142 90.872068 118.924047 
C 90.872068 119.326675 91.032033 119.712866 91.316734 119.997566 
C 91.601434 120.282267 91.987626 120.442232 92.390253 120.442232 
z
" clip-path="url(#pd10499b6e9)" style="stroke: #000000"/>
    <path d="M 93.592643 114.84118 
C 94.06789 114.84118 94.523737 114.652362 94.859787 114.316312 
C 95.195838 113.980261 95.384655 113.524415 95.384655 113.049168 
C 95.384655 112.57392 95.195838 112.118074 94.859787 111.782024 
C 94.523737 111.445973 94.06789 111.257155 93.592643 111.257155 
C 93.117396 111.257155 92.66155 111.445973 92.325499 111.782024 
C 91.989448 112.118074 91.800631 112.57392 91.800631 113.049168 
C 91.800631 113.524415 91.989448 113.980261 92.325499 114.316312 
C 92.66155 114.652362 93.117396 114.84118 93.592643 114.84118 
z
" clip-path="url(#pd10499b6e9)" style="stroke: #000000"/>
    <path d="M 88.559372 102.430439 
C 88.691974 102.430439 88.819162 102.377756 88.912925 102.283993 
C 89.006689 102.190229 89.059372 102.063041 89.059372 101.930439 
C 89.059372 101.797838 89.006689 101.670649 88.912925 101.576886 
C 88.819162 101.483123 88.691974 101.430439 88.559372 101.430439 
C 88.426771 101.430439 88.299582 101.483123 88.205819 101.576886 
C 88.112055 101.670649 88.059372 101.797838 88.059372 101.930439 
C 88.059372 102.063041 88.112055 102.190229 88.205819 102.283993 
C 88.299582 102.377756 88.426771 102.430439 88.559372 102.430439 
z
" clip-path="url(#pd10499b6e9)" style="stroke: #000000"/>
    <path d="M 84.960939 93.021684 
C 85.168471 93.021684 85.367532 92.93923 85.51428 92.792483 
C 85.661027 92.645735 85.743481 92.446674 85.743481 92.239142 
C 85.743481 92.031609 85.661027 91.832548 85.51428 91.685801 
C 85.367532 91.539053 85.168471 91.456599 84.960939 91.456599 
C 84.753406 91.456599 84.554346 91.539053 84.407598 91.685801 
C 84.26085 91.832548 84.178396 92.031609 84.178396 92.239142 
C 84.178396 92.446674 84.26085 92.645735 84.407598 92.792483 
C 84.554346 92.93923 84.753406 93.021684 84.960939 93.021684 
z
" clip-path="url(#pd10499b6e9)" style="stroke: #000000"/>
    <path d="M 83.9099 88.858946 
C 84.396942 88.858946 84.864101 88.665442 85.208492 88.321051 
C 85.552883 87.97666 85.746387 87.509501 85.746387 87.022459 
C 85.746387 86.535417 85.552883 86.068257 85.208492 85.723866 
C 84.864101 85.379476 84.396942 85.185972 83.9099 85.185972 
C 83.422858 85.185972 82.955698 85.379476 82.611307 85.723866 
C 82.266917 86.068257 82.073413 86.535417 82.073413 87.022459 
C 82.073413 87.509501 82.266917 87.97666 82.611307 88.321051 
C 82.955698 88.665442 83.422858 88.858946 83.9099 88.858946 
z
" clip-path="url(#pd10499b6e9)" style="stroke: #000000"/>
    <path d="M 80.249141 84.665044 
C 80.594474 84.665044 80.92571 84.527842 81.169897 84.283655 
C 81.414085 84.039468 81.551287 83.708232 81.551287 83.362899 
C 81.551287 83.017566 81.414085 82.686331 81.169897 82.442143 
C 80.92571 82.197956 80.594474 82.060754 80.249141 82.060754 
C 79.903809 82.060754 79.572573 82.197956 79.328386 82.442143 
C 79.084198 82.686331 78.946996 83.017566 78.946996 83.362899 
C 78.946996 83.708232 79.084198 84.039468 79.328386 84.283655 
C 79.572573 84.527842 79.903809 84.665044 80.249141 84.665044 
z
" clip-path="url(#pd10499b6e9)" style="stroke: #000000"/>
    <path d="M 92.669493 129.894024 
C 93.044547 129.894024 93.40429 129.745013 93.669493 129.47981 
C 93.934696 129.214607 94.083707 128.854864 94.083707 128.47981 
C 94.083707 128.104756 93.934696 127.745013 93.669493 127.47981 
C 93.40429 127.214607 93.044547 127.065597 92.669493 127.065597 
C 92.294439 127.065597 91.934696 127.214607 91.669493 127.47981 
C 91.40429 127.745013 91.25528 128.104756 91.25528 128.47981 
C 91.25528 128.854864 91.40429 129.214607 91.669493 129.47981 
C 91.934696 129.745013 92.294439 129.894024 92.669493 129.894024 
z
" clip-path="url(#pd10499b6e9)" style="stroke: #000000"/>
    <path d="M 88.539853 120.431417 
C 88.84488 120.431417 89.137454 120.310229 89.353141 120.094542 
C 89.568828 119.878856 89.690016 119.586281 89.690016 119.281254 
C 89.690016 118.976227 89.568828 118.683652 89.353141 118.467966 
C 89.137454 118.252279 88.84488 118.131091 88.539853 118.131091 
C 88.234826 118.131091 87.942251 118.252279 87.726564 118.467966 
C 87.510878 118.683652 87.389689 118.976227 87.389689 119.281254 
C 87.389689 119.586281 87.510878 119.878856 87.726564 120.094542 
C 87.942251 120.310229 88.234826 120.431417 88.539853 120.431417 
z
" clip-path="url(#pd10499b6e9)" style="stroke: #000000"/>
    <path d="M 88.272579 117.077277 
C 88.728701 117.077277 89.166202 116.896058 89.488729 116.573531 
C 89.811256 116.251005 89.992475 115.813503 89.992475 115.357382 
C 89.992475 114.90126 89.811256 114.463759 89.488729 114.141232 
C 89.166202 113.818705 88.728701 113.637486 88.272579 113.637486 
C 87.816458 113.637486 87.378956 113.818705 87.05643 114.141232 
C 86.733903 114.463759 86.552684 114.90126 86.552684 115.357382 
C 86.552684 115.813503 86.733903 116.251005 87.05643 116.573531 
C 87.378956 116.896058 87.816458 117.077277 88.272579 117.077277 
z
" clip-path="url(#pd10499b6e9)" style="stroke: #000000"/>
    <path d="M 83.880597 107.97431 
C 84.473609 107.97431 85.042413 107.738704 85.461736 107.319381 
C 85.881059 106.900058 86.116665 106.331254 86.116665 105.738242 
C 86.116665 105.14523 85.881059 104.576426 85.461736 104.157103 
C 85.042413 103.73778 84.473609 103.502174 83.880597 103.502174 
C 83.287585 103.502174 82.718781 103.73778 82.299458 104.157103 
C 81.880135 104.576426 81.644529 105.14523 81.644529 105.738242 
C 81.644529 106.331254 81.880135 106.900058 82.299458 107.319381 
C 82.718781 107.738704 83.287585 107.97431 83.880597 107.97431 
z
" clip-path="url(#pd10499b6e9)" style="stroke: #000000"/>
    <path d="M 81.801746 96.019502 
C 81.934348 96.019502 82.061536 95.966819 82.1553 95.873055 
C 82.249063 95.779292 82.301746 95.652103 82.301746 95.519502 
C 82.301746 95.3869 82.249063 95.259712 82.1553 95.165948 
C 82.061536 95.072185 81.934348 95.019502 81.801746 95.019502 
C 81.669145 95.019502 81.541956 95.072185 81.448193 95.165948 
C 81.354429 95.259712 81.301746 95.3869 81.301746 95.519502 
C 81.301746 95.652103 81.354429 95.779292 81.448193 95.873055 
C 81.541956 95.966819 81.669145 96.019502 81.801746 96.019502 
z
" clip-path="url(#pd10499b6e9)" style="stroke: #000000"/>
    <path d="M 79.383954 92.635074 
C 79.696842 92.635074 79.996957 92.510762 80.218202 92.289516 
C 80.439448 92.068271 80.563759 91.768156 80.563759 91.455268 
C 80.563759 91.14238 80.439448 90.842265 80.218202 90.62102 
C 79.996957 90.399774 79.696842 90.275462 79.383954 90.275462 
C 79.071066 90.275462 78.770951 90.399774 78.549705 90.62102 
C 78.32846 90.842265 78.204148 91.14238 78.204148 91.455268 
C 78.204148 91.768156 78.32846 92.068271 78.549705 92.289516 
C 78.770951 92.510762 79.071066 92.635074 79.383954 92.635074 
z
" clip-path="url(#pd10499b6e9)" style="stroke: #000000"/>
    <path d="M 76.074791 78.952088 
C 76.262318 78.952088 76.44219 78.877583 76.574791 78.744981 
C 76.707393 78.61238 76.781898 78.432508 76.781898 78.244981 
C 76.781898 78.057454 76.707393 77.877583 76.574791 77.744981 
C 76.44219 77.61238 76.262318 77.537874 76.074791 77.537874 
C 75.887265 77.537874 75.707393 77.61238 75.574791 77.744981 
C 75.44219 77.877583 75.367685 78.057454 75.367685 78.244981 
C 75.367685 78.432508 75.44219 78.61238 75.574791 78.744981 
C 75.707393 78.877583 75.887265 78.952088 76.074791 78.952088 
z
" clip-path="url(#pd10499b6e9)" style="stroke: #000000"/>
    <path d="M 90.34043 138.799267 
C 90.498121 138.799267 90.649374 138.736616 90.760878 138.625112 
C 90.872382 138.513608 90.935033 138.362354 90.935033 138.204664 
C 90.935033 138.046973 90.872382 137.89572 90.760878 137.784216 
C 90.649374 137.672711 90.498121 137.61006 90.34043 137.61006 
C 90.182739 137.61006 90.031486 137.672711 89.919982 137.784216 
C 89.808477 137.89572 89.745826 138.046973 89.745826 138.204664 
C 89.745826 138.362354 89.808477 138.513608 89.919982 138.625112 
C 90.031486 138.736616 90.182739 138.799267 90.34043 138.799267 
z
" clip-path="url(#pd10499b6e9)" style="stroke: #000000"/>
    <path d="M 87.047327 130.303954 
C 87.179929 130.303954 87.307117 130.25127 87.400881 130.157507 
C 87.494644 130.063744 87.547327 129.936555 87.547327 129.803954 
C 87.547327 129.671352 87.494644 129.544164 87.400881 129.4504 
C 87.307117 129.356637 87.179929 129.303954 87.047327 129.303954 
C 86.914726 129.303954 86.787538 129.356637 86.693774 129.4504 
C 86.600011 129.544164 86.547327 129.671352 86.547327 129.803954 
C 86.547327 129.936555 86.600011 130.063744 86.693774 130.157507 
C 86.787538 130.25127 86.914726 130.303954 87.047327 130.303954 
z
" clip-path="url(#pd10499b6e9)" style="stroke: #000000"/>
    <path d="M 86.16314 125.551236 
C 86.512167 125.551236 86.846946 125.412566 87.093745 125.165767 
C 87.340545 124.918967 87.479214 124.584189 87.479214 124.235162 
C 87.479214 123.886135 87.340545 123.551356 87.093745 123.304557 
C 86.846946 123.057758 86.512167 122.919088 86.16314 122.919088 
C 85.814113 122.919088 85.479335 123.057758 85.232535 123.304557 
C 84.985736 123.551356 84.847066 123.886135 84.847066 124.235162 
C 84.847066 124.584189 84.985736 124.918967 85.232535 125.165767 
C 85.479335 125.412566 85.814113 125.551236 86.16314 125.551236 
z
" clip-path="url(#pd10499b6e9)" style="stroke: #000000"/>
    <path d="M 85.970947 120.10115 
C 86.441813 120.10115 86.893458 119.914072 87.226411 119.581119 
C 87.559364 119.248166 87.746441 118.796522 87.746441 118.325655 
C 87.746441 117.854789 87.559364 117.403144 87.226411 117.070191 
C 86.893458 116.737238 86.441813 116.550161 85.970947 116.550161 
C 85.50008 116.550161 85.048436 116.737238 84.715483 117.070191 
C 84.38253 117.403144 84.195453 117.854789 84.195453 118.325655 
C 84.195453 118.796522 84.38253 119.248166 84.715483 119.581119 
C 85.048436 119.914072 85.50008 120.10115 85.970947 120.10115 
z
" clip-path="url(#pd10499b6e9)" style="stroke: #000000"/>
    <path d="M 83.676369 116.529183 
C 84.01191 116.529183 84.333752 116.395871 84.571015 116.158608 
C 84.808278 115.921346 84.941589 115.599503 84.941589 115.263963 
C 84.941589 114.928423 84.808278 114.60658 84.571015 114.369318 
C 84.333752 114.132055 84.01191 113.998743 83.676369 113.998743 
C 83.340829 113.998743 83.018987 114.132055 82.781724 114.369318 
C 82.544461 114.60658 82.41115 114.928423 82.41115 115.263963 
C 82.41115 115.599503 82.544461 115.921346 82.781724 116.158608 
C 83.018987 116.395871 83.340829 116.529183 83.676369 116.529183 
z
" clip-path="url(#pd10499b6e9)" style="stroke: #000000"/>
    <path d="M 82.058978 114.571138 
C 82.366693 114.571138 82.661846 114.448882 82.879433 114.231295 
C 83.09702 114.013708 83.219276 113.718555 83.219276 113.41084 
C 83.219276 113.103126 83.09702 112.807973 82.879433 112.590386 
C 82.661846 112.372799 82.366693 112.250542 82.058978 112.250542 
C 81.751264 112.250542 81.456111 112.372799 81.238524 112.590386 
C 81.020937 112.807973 80.89868 113.103126 80.89868 113.41084 
C 80.89868 113.718555 81.020937 114.013708 81.238524 114.231295 
C 81.456111 114.448882 81.751264 114.571138 82.058978 114.571138 
z
" clip-path="url(#pd10499b6e9)" style="stroke: #000000"/>
    <path d="M 80.210445 109.18101 
C 80.701452 109.18101 81.172415 108.985931 81.51961 108.638736 
C 81.866805 108.291541 82.061884 107.820578 82.061884 107.329571 
C 82.061884 106.838563 81.866805 106.3676 81.51961 106.020406 
C 81.172415 105.673211 80.701452 105.478132 80.210445 105.478132 
C 79.719437 105.478132 79.248474 105.673211 78.90128 106.020406 
C 78.554085 106.3676 78.359006 106.838563 78.359006 107.329571 
C 78.359006 107.820578 78.554085 108.291541 78.90128 108.638736 
C 79.248474 108.985931 79.719437 109.18101 80.210445 109.18101 
z
" clip-path="url(#pd10499b6e9)" style="stroke: #000000"/>
    <path d="M 75.139463 95.91222 
C 75.722594 95.91222 76.281921 95.680539 76.694257 95.268203 
C 77.106593 94.855867 77.338274 94.29654 77.338274 93.713409 
C 77.338274 93.130277 77.106593 92.570951 76.694257 92.158615 
C 76.281921 91.746278 75.722594 91.514598 75.139463 91.514598 
C 74.556331 91.514598 73.997005 91.746278 73.584669 92.158615 
C 73.172332 92.570951 72.940652 93.130277 72.940652 93.713409 
C 72.940652 94.29654 73.172332 94.855867 73.584669 95.268203 
C 73.997005 95.680539 74.556331 95.91222 75.139463 95.91222 
z
" clip-path="url(#pd10499b6e9)" style="stroke: #000000"/>
    <path d="M 72.723927 87.589383 
C 73.199892 87.589383 73.656428 87.40028 73.992986 87.063721 
C 74.329545 86.727163 74.518648 86.270627 74.518648 85.794662 
C 74.518648 85.318696 74.329545 84.86216 73.992986 84.525602 
C 73.656428 84.189043 73.199892 83.99994 72.723927 83.99994 
C 72.247961 83.99994 71.791426 84.189043 71.454867 84.525602 
C 71.118309 84.86216 70.929205 85.318696 70.929205 85.794662 
C 70.929205 86.270627 71.118309 86.727163 71.454867 87.063721 
C 71.791426 87.40028 72.247961 87.589383 72.723927 87.589383 
z
" clip-path="url(#pd10499b6e9)" style="stroke: #000000"/>
    <path d="M 84.045461 135.172531 
C 84.411398 135.172531 84.762396 135.027143 85.021152 134.768387 
C 85.279908 134.509631 85.425296 134.158633 85.425296 133.792697 
C 85.425296 133.42676 85.279908 133.075762 85.021152 132.817006 
C 84.762396 132.55825 84.411398 132.412862 84.045461 132.412862 
C 83.679525 132.412862 83.328527 132.55825 83.069771 132.817006 
C 82.811015 133.075762 82.665627 133.42676 82.665627 133.792697 
C 82.665627 134.158633 82.811015 134.509631 83.069771 134.768387 
C 83.328527 135.027143 83.679525 135.172531 84.045461 135.172531 
z
" clip-path="url(#pd10499b6e9)" style="stroke: #000000"/>
    <path d="M 83.563194 132.362046 
C 84.059976 132.362046 84.536477 132.164673 84.887754 131.813396 
C 85.239032 131.462118 85.436405 130.985617 85.436405 130.488836 
C 85.436405 129.992055 85.239032 129.515554 84.887754 129.164276 
C 84.536477 128.812999 84.059976 128.615626 83.563194 128.615626 
C 83.066413 128.615626 82.589912 128.812999 82.238635 129.164276 
C 81.887357 129.515554 81.689984 129.992055 81.689984 130.488836 
C 81.689984 130.985617 81.887357 131.462118 82.238635 131.813396 
C 82.589912 132.164673 83.066413 132.362046 83.563194 132.362046 
z
" clip-path="url(#pd10499b6e9)" style="stroke: #000000"/>
    <path d="M 79.517801 124.665911 
C 79.842607 124.665911 80.154154 124.536864 80.383826 124.307191 
C 80.613499 124.077519 80.742546 123.765972 80.742546 123.441166 
C 80.742546 123.11636 80.613499 122.804813 80.383826 122.575141 
C 80.154154 122.345468 79.842607 122.216421 79.517801 122.216421 
C 79.192995 122.216421 78.881448 122.345468 78.651775 122.575141 
C 78.422103 122.804813 78.293056 123.11636 78.293056 123.441166 
C 78.293056 123.765972 78.422103 124.077519 78.651775 124.307191 
C 78.881448 124.536864 79.192995 124.665911 79.517801 124.665911 
z
" clip-path="url(#pd10499b6e9)" style="stroke: #000000"/>
    <path d="M 74.634413 99.539035 
C 74.944746 99.539035 75.242411 99.415738 75.46185 99.196299 
C 75.681289 98.97686 75.804586 98.679195 75.804586 98.368861 
C 75.804586 98.058527 75.681289 97.760862 75.46185 97.541423 
C 75.242411 97.321984 74.944746 97.198687 74.634413 97.198687 
C 74.324079 97.198687 74.026414 97.321984 73.806975 97.541423 
C 73.587536 97.760862 73.464239 98.058527 73.464239 98.368861 
C 73.464239 98.679195 73.587536 98.97686 73.806975 99.196299 
C 74.026414 99.415738 74.324079 99.539035 74.634413 99.539035 
z
" clip-path="url(#pd10499b6e9)" style="stroke: #000000"/>
    <path d="M 72.099254 95.344489 
C 72.612817 95.344489 73.105416 95.140448 73.46856 94.777303 
C 73.831704 94.414159 74.035745 93.92156 74.035745 93.407997 
C 74.035745 92.894433 73.831704 92.401835 73.46856 92.03869 
C 73.105416 91.675546 72.612817 91.471505 72.099254 91.471505 
C 71.58569 91.471505 71.093092 91.675546 70.729947 92.03869 
C 70.366803 92.401835 70.162762 92.894433 70.162762 93.407997 
C 70.162762 93.92156 70.366803 94.414159 70.729947 94.777303 
C 71.093092 95.140448 71.58569 95.344489 72.099254 95.344489 
z
" clip-path="url(#pd10499b6e9)" style="stroke: #000000"/>
    <path d="M 67.590059 89.365255 
C 68.16278 89.365255 68.712121 89.137711 69.117096 88.732735 
C 69.522072 88.32776 69.749616 87.778419 69.749616 87.205697 
C 69.749616 86.632976 69.522072 86.083635 69.117096 85.67866 
C 68.712121 85.273684 68.16278 85.04614 67.590059 85.04614 
C 67.017337 85.04614 66.467996 85.273684 66.063021 85.67866 
C 65.658045 86.083635 65.430501 86.632976 65.430501 87.205697 
C 65.430501 87.778419 65.658045 88.32776 66.063021 88.732735 
C 66.467996 89.137711 67.017337 89.365255 67.590059 89.365255 
z
" clip-path="url(#pd10499b6e9)" style="stroke: #000000"/>
    <path d="M 65.948755 86.720867 
C 66.42472 86.720867 66.881256 86.531764 67.217814 86.195205 
C 67.554373 85.858647 67.743476 85.402111 67.743476 84.926146 
C 67.743476 84.45018 67.554373 83.993644 67.217814 83.657086 
C 66.881256 83.320527 66.42472 83.131424 65.948755 83.131424 
C 65.472789 83.131424 65.016254 83.320527 64.679695 83.657086 
C 64.343136 83.993644 64.154033 84.45018 64.154033 84.926146 
C 64.154033 85.402111 64.343136 85.858647 64.679695 86.195205 
C 65.016254 86.531764 65.472789 86.720867 65.948755 86.720867 
z
" clip-path="url(#pd10499b6e9)" style="stroke: #000000"/>
    <path d="M 80.700023 136.693519 
C 81.090247 136.693519 81.464541 136.538481 81.740471 136.262551 
C 82.016401 135.986621 82.171439 135.612327 82.171439 135.222103 
C 82.171439 134.831879 82.016401 134.457585 81.740471 134.181655 
C 81.464541 133.905725 81.090247 133.750688 80.700023 133.750688 
C 80.309799 133.750688 79.935505 133.905725 79.659575 134.181655 
C 79.383645 134.457585 79.228608 134.831879 79.228608 135.222103 
C 79.228608 135.612327 79.383645 135.986621 79.659575 136.262551 
C 79.935505 136.538481 80.309799 136.693519 80.700023 136.693519 
z
" clip-path="url(#pd10499b6e9)" style="stroke: #000000"/>
    <path d="M 80.414054 132.382248 
C 81.00028 132.382248 81.562573 132.149338 81.977097 131.734815 
C 82.391621 131.320291 82.624531 130.757997 82.624531 130.171772 
C 82.624531 129.585547 82.391621 129.023253 81.977097 128.608729 
C 81.562573 128.194205 81.00028 127.961296 80.414054 127.961296 
C 79.827829 127.961296 79.265535 128.194205 78.851012 128.608729 
C 78.436488 129.023253 78.203578 129.585547 78.203578 130.171772 
C 78.203578 130.757997 78.436488 131.320291 78.851012 131.734815 
C 79.265535 132.149338 79.827829 132.382248 80.414054 132.382248 
z
" clip-path="url(#pd10499b6e9)" style="stroke: #000000"/>
    <path d="M 77.202028 128.632074 
C 77.533399 128.632074 77.851243 128.500419 78.085558 128.266104 
C 78.319872 128.03179 78.451528 127.713946 78.451528 127.382575 
C 78.451528 127.051204 78.319872 126.73336 78.085558 126.499045 
C 77.851243 126.26473 77.533399 126.133075 77.202028 126.133075 
C 76.870657 126.133075 76.552813 126.26473 76.318498 126.499045 
C 76.084183 126.73336 75.952528 127.051204 75.952528 127.382575 
C 75.952528 127.713946 76.084183 128.03179 76.318498 128.266104 
C 76.552813 128.500419 76.870657 128.632074 77.202028 128.632074 
z
" clip-path="url(#pd10499b6e9)" style="stroke: #000000"/>
    <path d="M 76.501318 125.612037 
C 76.803584 125.612037 77.093511 125.491946 77.307245 125.278211 
C 77.52098 125.064477 77.641071 124.77455 77.641071 124.472284 
C 77.641071 124.170017 77.52098 123.880091 77.307245 123.666356 
C 77.093511 123.452622 76.803584 123.33253 76.501318 123.33253 
C 76.199052 123.33253 75.909125 123.452622 75.69539 123.666356 
C 75.481656 123.880091 75.361564 124.170017 75.361564 124.472284 
C 75.361564 124.77455 75.481656 125.064477 75.69539 125.278211 
C 75.909125 125.491946 76.199052 125.612037 76.501318 125.612037 
z
" clip-path="url(#pd10499b6e9)" style="stroke: #000000"/>
    <path d="M 74.377908 119.014934 
C 74.607581 119.014934 74.827878 118.923685 74.990281 118.761281 
C 75.152684 118.598878 75.243934 118.378582 75.243934 118.148909 
C 75.243934 117.919236 75.152684 117.69894 74.990281 117.536537 
C 74.827878 117.374134 74.607581 117.282884 74.377908 117.282884 
C 74.148236 117.282884 73.927939 117.374134 73.765536 117.536537 
C 73.603133 117.69894 73.511883 117.919236 73.511883 118.148909 
C 73.511883 118.378582 73.603133 118.598878 73.765536 118.761281 
C 73.927939 118.923685 74.148236 119.014934 74.377908 119.014934 
z
" clip-path="url(#pd10499b6e9)" style="stroke: #000000"/>
    <path d="M 72.392261 115.774836 
C 72.723633 115.774836 73.041476 115.643181 73.275791 115.408866 
C 73.510106 115.174552 73.641761 114.856708 73.641761 114.525337 
C 73.641761 114.193965 73.510106 113.876122 73.275791 113.641807 
C 73.041476 113.407492 72.723633 113.275837 72.392261 113.275837 
C 72.06089 113.275837 71.743046 113.407492 71.508732 113.641807 
C 71.274417 113.876122 71.142762 114.193965 71.142762 114.525337 
C 71.142762 114.856708 71.274417 115.174552 71.508732 115.408866 
C 71.743046 115.643181 72.06089 115.774836 72.392261 115.774836 
z
" clip-path="url(#pd10499b6e9)" style="stroke: #000000"/>
    <path d="M 68.575789 107.018974 
C 69.076311 107.018974 69.556399 106.820115 69.910321 106.466193 
C 70.264244 106.112271 70.463103 105.632182 70.463103 105.131661 
C 70.463103 104.631139 70.264244 104.151051 69.910321 103.797129 
C 69.556399 103.443207 69.076311 103.244347 68.575789 103.244347 
C 68.075268 103.244347 67.595179 103.443207 67.241257 103.797129 
C 66.887335 104.151051 66.688476 104.631139 66.688476 105.131661 
C 66.688476 105.632182 66.887335 106.112271 67.241257 106.466193 
C 67.595179 106.820115 68.075268 107.018974 68.575789 107.018974 
z
" clip-path="url(#pd10499b6e9)" style="stroke: #000000"/>
    <path d="M 63.99081 93.737749 
C 64.256013 93.737749 64.51039 93.632383 64.697917 93.444856 
C 64.885444 93.257329 64.99081 93.002953 64.99081 92.737749 
C 64.99081 92.472546 64.885444 92.21817 64.697917 92.030643 
C 64.51039 91.843116 64.256013 91.737749 63.99081 91.737749 
C 63.725607 91.737749 63.47123 91.843116 63.283703 92.030643 
C 63.096176 92.21817 62.99081 92.472546 62.99081 92.737749 
C 62.99081 93.002953 63.096176 93.257329 63.283703 93.444856 
C 63.47123 93.632383 63.725607 93.737749 63.99081 93.737749 
z
" clip-path="url(#pd10499b6e9)" style="stroke: #000000"/>
    <path d="M 82.683274 154.456063 
C 82.815876 154.456063 82.943064 154.40338 83.036828 154.309616 
C 83.130591 154.215853 83.183274 154.088665 83.183274 153.956063 
C 83.183274 153.823462 83.130591 153.696273 83.036828 153.60251 
C 82.943064 153.508746 82.815876 153.456063 82.683274 153.456063 
C 82.550673 153.456063 82.423485 153.508746 82.329721 153.60251 
C 82.235958 153.696273 82.183274 153.823462 82.183274 153.956063 
C 82.183274 154.088665 82.235958 154.215853 82.329721 154.309616 
C 82.423485 154.40338 82.550673 154.456063 82.683274 154.456063 
z
" clip-path="url(#pd10499b6e9)" style="stroke: #000000"/>
    <path d="M 76.040274 139.158201 
C 76.197965 139.158201 76.349218 139.09555 76.460723 138.984046 
C 76.572227 138.872542 76.634878 138.721289 76.634878 138.563598 
C 76.634878 138.405907 76.572227 138.254654 76.460723 138.14315 
C 76.349218 138.031646 76.197965 137.968994 76.040274 137.968994 
C 75.882584 137.968994 75.73133 138.031646 75.619826 138.14315 
C 75.508322 138.254654 75.445671 138.405907 75.445671 138.563598 
C 75.445671 138.721289 75.508322 138.872542 75.619826 138.984046 
C 75.73133 139.09555 75.882584 139.158201 76.040274 139.158201 
z
" clip-path="url(#pd10499b6e9)" style="stroke: #000000"/>
    <path d="M 74.031601 130.89398 
C 74.336628 130.89398 74.629203 130.772791 74.844889 130.557105 
C 75.060576 130.341418 75.181764 130.048843 75.181764 129.743816 
C 75.181764 129.43879 75.060576 129.146215 74.844889 128.930528 
C 74.629203 128.714842 74.336628 128.593653 74.031601 128.593653 
C 73.726574 128.593653 73.433999 128.714842 73.218313 128.930528 
C 73.002626 129.146215 72.881438 129.43879 72.881438 129.743816 
C 72.881438 130.048843 73.002626 130.341418 73.218313 130.557105 
C 73.433999 130.772791 73.726574 130.89398 74.031601 130.89398 
z
" clip-path="url(#pd10499b6e9)" style="stroke: #000000"/>
    <path d="M 71.476046 125.500552 
C 71.798572 125.500552 72.107933 125.372411 72.335993 125.14435 
C 72.564054 124.916289 72.692195 124.606929 72.692195 124.284402 
C 72.692195 123.961876 72.564054 123.652516 72.335993 123.424455 
C 72.107933 123.196394 71.798572 123.068253 71.476046 123.068253 
C 71.153519 123.068253 70.844159 123.196394 70.616098 123.424455 
C 70.388037 123.652516 70.259896 123.961876 70.259896 124.284402 
C 70.259896 124.606929 70.388037 124.916289 70.616098 125.14435 
C 70.844159 125.372411 71.153519 125.500552 71.476046 125.500552 
z
" clip-path="url(#pd10499b6e9)" style="stroke: #000000"/>
    <path d="M 69.341389 120.706381 
C 69.674864 120.706381 69.994726 120.57389 70.230528 120.338088 
C 70.466331 120.102285 70.598822 119.782423 70.598822 119.448948 
C 70.598822 119.115473 70.466331 118.795611 70.230528 118.559808 
C 69.994726 118.324006 69.674864 118.191515 69.341389 118.191515 
C 69.007913 118.191515 68.688051 118.324006 68.452249 118.559808 
C 68.216446 118.795611 68.083955 119.115473 68.083955 119.448948 
C 68.083955 119.782423 68.216446 120.102285 68.452249 120.338088 
C 68.688051 120.57389 69.007913 120.706381 69.341389 120.706381 
z
" clip-path="url(#pd10499b6e9)" style="stroke: #000000"/>
    <path d="M 66.401929 112.527194 
C 66.896169 112.527194 67.370233 112.33083 67.719713 111.98135 
C 68.069194 111.63187 68.265557 111.157806 68.265557 110.663566 
C 68.265557 110.169326 68.069194 109.695262 67.719713 109.345781 
C 67.370233 108.996301 66.896169 108.799937 66.401929 108.799937 
C 65.907689 108.799937 65.433625 108.996301 65.084145 109.345781 
C 64.734664 109.695262 64.538301 110.169326 64.538301 110.663566 
C 64.538301 111.157806 64.734664 111.63187 65.084145 111.98135 
C 65.433625 112.33083 65.907689 112.527194 66.401929 112.527194 
z
" clip-path="url(#pd10499b6e9)" style="stroke: #000000"/>
    <path d="M 64.90069 109.121092 
C 65.34407 109.121092 65.76935 108.944935 66.082867 108.631418 
C 66.396384 108.317901 66.57254 107.892621 66.57254 107.449241 
C 66.57254 107.005861 66.396384 106.580581 66.082867 106.267064 
C 65.76935 105.953547 65.34407 105.77739 64.90069 105.77739 
C 64.45731 105.77739 64.03203 105.953547 63.718513 106.267064 
C 63.404996 106.580581 63.228839 107.005861 63.228839 107.449241 
C 63.228839 107.892621 63.404996 108.317901 63.718513 108.631418 
C 64.03203 108.944935 64.45731 109.121092 64.90069 109.121092 
z
" clip-path="url(#pd10499b6e9)" style="stroke: #000000"/>
    <path d="M 63.333423 104.222295 
C 63.818446 104.222295 64.283668 104.029594 64.626631 103.686631 
C 64.969593 103.343669 65.162295 102.878446 65.162295 102.393424 
C 65.162295 101.908401 64.969593 101.443179 64.626631 101.100216 
C 64.283668 100.757253 63.818446 100.564552 63.333423 100.564552 
C 62.848401 100.564552 62.383178 100.757253 62.040215 101.100216 
C 61.697253 101.443179 61.504551 101.908401 61.504551 102.393424 
C 61.504551 102.878446 61.697253 103.343669 62.040215 103.686631 
C 62.383178 104.029594 62.848401 104.222295 63.333423 104.222295 
z
" clip-path="url(#pd10499b6e9)" style="stroke: #000000"/>
    <path d="M 62.330576 100.688694 
C 62.770366 100.688694 63.192202 100.513963 63.50318 100.202985 
C 63.814159 99.892007 63.988889 99.470171 63.988889 99.030381 
C 63.988889 98.590592 63.814159 98.168755 63.50318 97.857777 
C 63.192202 97.546799 62.770366 97.372069 62.330576 97.372069 
C 61.890787 97.372069 61.468951 97.546799 61.157973 97.857777 
C 60.846994 98.168755 60.672264 98.590592 60.672264 99.030381 
C 60.672264 99.470171 60.846994 99.892007 61.157973 100.202985 
C 61.468951 100.513963 61.890787 100.688694 62.330576 100.688694 
z
" clip-path="url(#pd10499b6e9)" style="stroke: #000000"/>
    <path d="M 59.618673 91.129565 
C 59.793187 91.129565 59.960576 91.06023 60.083976 90.93683 
C 60.207375 90.81343 60.27671 90.646041 60.27671 90.471528 
C 60.27671 90.297014 60.207375 90.129625 60.083976 90.006225 
C 59.960576 89.882826 59.793187 89.813491 59.618673 89.813491 
C 59.44416 89.813491 59.27677 89.882826 59.153371 90.006225 
C 59.029971 90.129625 58.960636 90.297014 58.960636 90.471528 
C 58.960636 90.646041 59.029971 90.81343 59.153371 90.93683 
C 59.27677 91.06023 59.44416 91.129565 59.618673 91.129565 
z
" clip-path="url(#pd10499b6e9)" style="stroke: #000000"/>
    <path d="M 58.488419 85.547474 
C 58.724222 85.547474 58.950398 85.453788 59.117136 85.287051 
C 59.283873 85.120313 59.377559 84.894137 59.377559 84.658334 
C 59.377559 84.422531 59.283873 84.196355 59.117136 84.029617 
C 58.950398 83.86288 58.724222 83.769194 58.488419 83.769194 
C 58.252616 83.769194 58.02644 83.86288 57.859702 84.029617 
C 57.692965 84.196355 57.599279 84.422531 57.599279 84.658334 
C 57.599279 84.894137 57.692965 85.120313 57.859702 85.287051 
C 58.02644 85.453788 58.252616 85.547474 58.488419 85.547474 
z
" clip-path="url(#pd10499b6e9)" style="stroke: #000000"/>
    <path d="M 69.539105 139.274266 
C 69.774907 139.274266 70.001084 139.180581 70.167821 139.013843 
C 70.334559 138.847105 70.428244 138.620929 70.428244 138.385126 
C 70.428244 138.149324 70.334559 137.923147 70.167821 137.75641 
C 70.001084 137.589672 69.774907 137.495987 69.539105 137.495987 
C 69.303302 137.495987 69.077126 137.589672 68.910388 137.75641 
C 68.74365 137.923147 68.649965 138.149324 68.649965 138.385126 
C 68.649965 138.620929 68.74365 138.847105 68.910388 139.013843 
C 69.077126 139.180581 69.303302 139.274266 69.539105 139.274266 
z
" clip-path="url(#pd10499b6e9)" style="stroke: #000000"/>
    <path d="M 67.749584 132.549654 
C 68.14491 132.549654 68.524098 132.392589 68.803636 132.113052 
C 69.083173 131.833514 69.240238 131.454326 69.240238 131.059 
C 69.240238 130.663674 69.083173 130.284487 68.803636 130.004949 
C 68.524098 129.725411 68.14491 129.568347 67.749584 129.568347 
C 67.354258 129.568347 66.975071 129.725411 66.695533 130.004949 
C 66.415995 130.284487 66.25893 130.663674 66.25893 131.059 
C 66.25893 131.454326 66.415995 131.833514 66.695533 132.113052 
C 66.975071 132.392589 67.354258 132.549654 67.749584 132.549654 
z
" clip-path="url(#pd10499b6e9)" style="stroke: #000000"/>
    <path d="M 67.515141 127.611703 
C 67.844367 127.611703 68.160153 127.4809 68.392951 127.248101 
C 68.62575 127.015303 68.756553 126.699517 68.756553 126.370291 
C 68.756553 126.041064 68.62575 125.725278 68.392951 125.49248 
C 68.160153 125.259682 67.844367 125.128879 67.515141 125.128879 
C 67.185914 125.128879 66.870128 125.259682 66.63733 125.49248 
C 66.404532 125.725278 66.273729 126.041064 66.273729 126.370291 
C 66.273729 126.699517 66.404532 127.015303 66.63733 127.248101 
C 66.870128 127.4809 67.185914 127.611703 67.515141 127.611703 
z
" clip-path="url(#pd10499b6e9)" style="stroke: #000000"/>
    <path d="M 65.885139 123.716659 
C 66.214365 123.716659 66.530151 123.585856 66.762949 123.353057 
C 66.995747 123.120259 67.12655 122.804473 67.12655 122.475247 
C 67.12655 122.14602 66.995747 121.830234 66.762949 121.597436 
C 66.530151 121.364638 66.214365 121.233835 65.885139 121.233835 
C 65.555912 121.233835 65.240126 121.364638 65.007328 121.597436 
C 64.77453 121.830234 64.643727 122.14602 64.643727 122.475247 
C 64.643727 122.804473 64.77453 123.120259 65.007328 123.353057 
C 65.240126 123.585856 65.555912 123.716659 65.885139 123.716659 
z
" clip-path="url(#pd10499b6e9)" style="stroke: #000000"/>
    <path d="M 61.000198 105.543299 
C 61.472538 105.543299 61.925596 105.355636 62.259591 105.021641 
C 62.593586 104.687646 62.781249 104.234588 62.781249 103.762247 
C 62.781249 103.289907 62.593586 102.836849 62.259591 102.502854 
C 61.925596 102.168859 61.472538 101.981196 61.000198 101.981196 
C 60.527857 101.981196 60.074799 102.168859 59.740804 102.502854 
C 59.406809 102.836849 59.219146 103.289907 59.219146 103.762247 
C 59.219146 104.234588 59.406809 104.687646 59.740804 105.021641 
C 60.074799 105.355636 60.527857 105.543299 61.000198 105.543299 
z
" clip-path="url(#pd10499b6e9)" style="stroke: #000000"/>
    <path d="M 57.390452 101.02979 
C 57.564966 101.02979 57.732355 100.960455 57.855755 100.837056 
C 57.979155 100.713656 58.048489 100.546267 58.048489 100.371753 
C 58.048489 100.19724 57.979155 100.02985 57.855755 99.906451 
C 57.732355 99.783051 57.564966 99.713716 57.390452 99.713716 
C 57.215939 99.713716 57.04855 99.783051 56.92515 99.906451 
C 56.80175 100.02985 56.732415 100.19724 56.732415 100.371753 
C 56.732415 100.546267 56.80175 100.713656 56.92515 100.837056 
C 57.04855 100.960455 57.215939 101.02979 57.390452 101.02979 
z
" clip-path="url(#pd10499b6e9)" style="stroke: #000000"/>
    <path d="M 55.150225 97.225298 
C 55.509682 97.225298 55.854465 97.082484 56.10864 96.828309 
C 56.362814 96.574135 56.505628 96.229352 56.505628 95.869895 
C 56.505628 95.510438 56.362814 95.165655 56.10864 94.91148 
C 55.854465 94.657306 55.509682 94.514492 55.150225 94.514492 
C 54.790768 94.514492 54.445985 94.657306 54.191811 94.91148 
C 53.937636 95.165655 53.794822 95.510438 53.794822 95.869895 
C 53.794822 96.229352 53.937636 96.574135 54.191811 96.828309 
C 54.445985 97.082484 54.790768 97.225298 55.150225 97.225298 
z
" clip-path="url(#pd10499b6e9)" style="stroke: #000000"/>
    <path d="M 54.836159 90.869984 
C 54.968761 90.869984 55.095949 90.817301 55.189713 90.723538 
C 55.283476 90.629774 55.336159 90.502586 55.336159 90.369984 
C 55.336159 90.237383 55.283476 90.110194 55.189713 90.016431 
C 55.095949 89.922668 54.968761 89.869984 54.836159 89.869984 
C 54.703558 89.869984 54.576369 89.922668 54.482606 90.016431 
C 54.388842 90.110194 54.336159 90.237383 54.336159 90.369984 
C 54.336159 90.502586 54.388842 90.629774 54.482606 90.723538 
C 54.576369 90.817301 54.703558 90.869984 54.836159 90.869984 
z
" clip-path="url(#pd10499b6e9)" style="stroke: #000000"/>
    <path d="M 61.311199 132.868032 
C 61.443801 132.868032 61.570989 132.815349 61.664753 132.721586 
C 61.758516 132.627822 61.811199 132.500634 61.811199 132.368032 
C 61.811199 132.235431 61.758516 132.108242 61.664753 132.014479 
C 61.570989 131.920715 61.443801 131.868032 61.311199 131.868032 
C 61.178598 131.868032 61.051409 131.920715 60.957646 132.014479 
C 60.863883 132.108242 60.811199 132.235431 60.811199 132.368032 
C 60.811199 132.500634 60.863883 132.627822 60.957646 132.721586 
C 61.051409 132.815349 61.178598 132.868032 61.311199 132.868032 
z
" clip-path="url(#pd10499b6e9)" style="stroke: #000000"/>
    <path d="M 62.60315 130.871687 
C 63.114415 130.871687 63.60481 130.668559 63.966329 130.307039 
C 64.327849 129.94552 64.530977 129.455126 64.530977 128.94386 
C 64.530977 128.432594 64.327849 127.9422 63.966329 127.58068 
C 63.60481 127.219161 63.114415 127.016033 62.60315 127.016033 
C 62.091884 127.016033 61.60149 127.219161 61.23997 127.58068 
C 60.878451 127.9422 60.675323 128.432594 60.675323 128.94386 
C 60.675323 129.455126 60.878451 129.94552 61.23997 130.307039 
C 61.60149 130.668559 62.091884 130.871687 62.60315 130.871687 
z
" clip-path="url(#pd10499b6e9)" style="stroke: #000000"/>
    <path d="M 59.564859 125.127793 
C 60.157871 125.127793 60.726674 124.892187 61.145997 124.472864 
C 61.56532 124.053541 61.800927 123.484737 61.800927 122.891725 
C 61.800927 122.298713 61.56532 121.729909 61.145997 121.310586 
C 60.726674 120.891263 60.157871 120.655657 59.564859 120.655657 
C 58.971846 120.655657 58.403043 120.891263 57.98372 121.310586 
C 57.564397 121.729909 57.328791 122.298713 57.328791 122.891725 
C 57.328791 123.484737 57.564397 124.053541 57.98372 124.472864 
C 58.403043 124.892187 58.971846 125.127793 59.564859 125.127793 
z
" clip-path="url(#pd10499b6e9)" style="stroke: #000000"/>
    <path d="M 58.528714 120.823096 
C 59.027376 120.823096 59.505681 120.624976 59.858288 120.272369 
C 60.210895 119.919761 60.409015 119.441456 60.409015 118.942795 
C 60.409015 118.444133 60.210895 117.965828 59.858288 117.613221 
C 59.505681 117.260613 59.027376 117.062493 58.528714 117.062493 
C 58.030052 117.062493 57.551747 117.260613 57.19914 117.613221 
C 56.846533 117.965828 56.648412 118.444133 56.648412 118.942795 
C 56.648412 119.441456 56.846533 119.919761 57.19914 120.272369 
C 57.551747 120.624976 58.030052 120.823096 58.528714 120.823096 
z
" clip-path="url(#pd10499b6e9)" style="stroke: #000000"/>
    <path d="M 52.92418 107.845166 
C 53.510022 107.845166 54.071947 107.612409 54.486199 107.198157 
C 54.900451 106.783904 55.133209 106.221979 55.133209 105.636138 
C 55.133209 105.050297 54.900451 104.488371 54.486199 104.074119 
C 54.071947 103.659867 53.510022 103.42711 52.92418 103.42711 
C 52.338339 103.42711 51.776414 103.659867 51.362162 104.074119 
C 50.947909 104.488371 50.715152 105.050297 50.715152 105.636138 
C 50.715152 106.221979 50.947909 106.783904 51.362162 107.198157 
C 51.776414 107.612409 52.338339 107.845166 52.92418 107.845166 
z
" clip-path="url(#pd10499b6e9)" style="stroke: #000000"/>
    <path d="M 58.547719 135.510828 
C 58.820848 135.510828 59.082826 135.402313 59.275957 135.209182 
C 59.469088 135.016051 59.577603 134.754073 59.577603 134.480944 
C 59.577603 134.207816 59.469088 133.945838 59.275957 133.752707 
C 59.082826 133.559576 58.820848 133.451061 58.547719 133.451061 
C 58.274591 133.451061 58.012613 133.559576 57.819482 133.752707 
C 57.626351 133.945838 57.517836 134.207816 57.517836 134.480944 
C 57.517836 134.754073 57.626351 135.016051 57.819482 135.209182 
C 58.012613 135.402313 58.274591 135.510828 58.547719 135.510828 
z
" clip-path="url(#pd10499b6e9)" style="stroke: #000000"/>
    <path d="M 56.274566 120.487771 
C 56.535525 120.487771 56.78583 120.384091 56.970355 120.199566 
C 57.154881 120.01504 57.258561 119.764735 57.258561 119.503776 
C 57.258561 119.242818 57.154881 118.992512 56.970355 118.807987 
C 56.78583 118.623461 56.535525 118.519781 56.274566 118.519781 
C 56.013608 118.519781 55.763302 118.623461 55.578777 118.807987 
C 55.394251 118.992512 55.290571 119.242818 55.290571 119.503776 
C 55.290571 119.764735 55.394251 120.01504 55.578777 120.199566 
C 55.763302 120.384091 56.013608 120.487771 56.274566 120.487771 
z
" clip-path="url(#pd10499b6e9)" style="stroke: #000000"/>
    <path d="M 50.988768 110.107059 
C 51.275948 110.107059 51.551405 109.992962 51.754472 109.789895 
C 51.957539 109.586828 52.071636 109.311371 52.071636 109.024191 
C 52.071636 108.737011 51.957539 108.461554 51.754472 108.258487 
C 51.551405 108.05542 51.275948 107.941323 50.988768 107.941323 
C 50.701588 107.941323 50.426131 108.05542 50.223064 108.258487 
C 50.019997 108.461554 49.9059 108.737011 49.9059 109.024191 
C 49.9059 109.311371 50.019997 109.586828 50.223064 109.789895 
C 50.426131 109.992962 50.701588 110.107059 50.988768 110.107059 
z
" clip-path="url(#pd10499b6e9)" style="stroke: #000000"/>
    <path d="M 47.507663 102.819676 
C 47.665353 102.819676 47.816607 102.757024 47.928111 102.64552 
C 48.039615 102.534016 48.102266 102.382763 48.102266 102.225072 
C 48.102266 102.067381 48.039615 101.916128 47.928111 101.804624 
C 47.816607 101.69312 47.665353 101.630468 47.507663 101.630468 
C 47.349972 101.630468 47.198718 101.69312 47.087214 101.804624 
C 46.97571 101.916128 46.913059 102.067381 46.913059 102.225072 
C 46.913059 102.382763 46.97571 102.534016 47.087214 102.64552 
C 47.198718 102.757024 47.349972 102.819676 47.507663 102.819676 
z
" clip-path="url(#pd10499b6e9)" style="stroke: #000000"/>
    <path d="M 54.369587 130.331864 
C 54.502188 130.331864 54.629377 130.279181 54.72314 130.185417 
C 54.816903 130.091654 54.869587 129.964466 54.869587 129.831864 
C 54.869587 129.699263 54.816903 129.572074 54.72314 129.478311 
C 54.629377 129.384547 54.502188 129.331864 54.369587 129.331864 
C 54.236985 129.331864 54.109797 129.384547 54.016033 129.478311 
C 53.92227 129.572074 53.869587 129.699263 53.869587 129.831864 
C 53.869587 129.964466 53.92227 130.091654 54.016033 130.185417 
C 54.109797 130.279181 54.236985 130.331864 54.369587 130.331864 
z
" clip-path="url(#pd10499b6e9)" style="stroke: #000000"/>
    <path d="M 31.627842 80.428384 
C 31.760443 80.428384 31.887632 80.375701 31.981395 80.281937 
C 32.075158 80.188174 32.127842 80.060986 32.127842 79.928384 
C 32.127842 79.795782 32.075158 79.668594 31.981395 79.574831 
C 31.887632 79.481067 31.760443 79.428384 31.627842 79.428384 
C 31.49524 79.428384 31.368052 79.481067 31.274288 79.574831 
C 31.180525 79.668594 31.127842 79.795782 31.127842 79.928384 
C 31.127842 80.060986 31.180525 80.188174 31.274288 80.281937 
C 31.368052 80.375701 31.49524 80.428384 31.627842 80.428384 
z
" clip-path="url(#pd10499b6e9)" style="stroke: #000000"/>
    <path d="M 35.372013 145.241741 
C 35.504615 145.241741 35.631803 145.189058 35.725566 145.095294 
C 35.81933 145.001531 35.872013 144.874343 35.872013 144.741741 
C 35.872013 144.60914 35.81933 144.481951 35.725566 144.388188 
C 35.631803 144.294424 35.504615 144.241741 35.372013 144.241741 
C 35.239412 144.241741 35.112223 144.294424 35.01846 144.388188 
C 34.924696 144.481951 34.872013 144.60914 34.872013 144.741741 
C 34.872013 144.874343 34.924696 145.001531 35.01846 145.095294 
C 35.112223 145.189058 35.239412 145.241741 35.372013 145.241741 
z
" clip-path="url(#pd10499b6e9)" style="stroke: #000000"/>
   </g>
   <g id="matplotlib.axis_1">
    <g id="xtick_1">
     <g id="line2d_1">
      <defs>
       <path id="m839527d293" d="M 0 0 
L 0 3.5 
" style="stroke: #000000; stroke-width: 0.8"/>
      </defs>
      <g>
       <use xlink:href="#m839527d293" x="18" y="189" style="stroke: #000000; stroke-width: 0.8"/>
      </g>
     </g>
     <g id="text_1">
      <!-- 10 -->
      <g transform="translate(7.447656 203.598437)scale(0.1 -0.1)">
       <defs>
        <path id="DejaVuSans-2212" d="M 678 2272 
L 4684 2272 
L 4684 1741 
L 678 1741 
L 678 2272 
z
" transform="scale(0.015625)"/>
        <path id="DejaVuSans-31" d="M 794 531 
L 1825 531 
L 1825 4091 
L 703 3866 
L 703 4441 
L 1819 4666 
L 2450 4666 
L 2450 531 
L 3481 531 
L 3481 0 
L 794 0 
L 794 531 
z
" transform="scale(0.015625)"/>
        <path id="DejaVuSans-30" d="M 2034 4250 
Q 1547 4250 1301 3770 
Q 1056 3291 1056 2328 
Q 1056 1369 1301 889 
Q 1547 409 2034 409 
Q 2525 409 2770 889 
Q 3016 1369 3016 2328 
Q 3016 3291 2770 3770 
Q 2525 4250 2034 4250 
z
M 2034 4750 
Q 2819 4750 3233 4129 
Q 3647 3509 3647 2328 
Q 3647 1150 3233 529 
Q 2819 -91 2034 -91 
Q 1250 -91 836 529 
Q 422 1150 422 2328 
Q 422 3509 836 4129 
Q 1250 4750 2034 4750 
z
" transform="scale(0.015625)"/>
       </defs>
       <use xlink:href="#DejaVuSans-2212"/>
       <use xlink:href="#DejaVuSans-31" x="83.789062"/>
       <use xlink:href="#DejaVuSans-30" x="147.412109"/>
      </g>
     </g>
    </g>
    <g id="xtick_2">
     <g id="line2d_2">
      <g>
       <use xlink:href="#m839527d293" x="73.8" y="189" style="stroke: #000000; stroke-width: 0.8"/>
      </g>
     </g>
     <g id="text_2">
      <!-- 0 -->
      <g transform="translate(70.61875 203.598437)scale(0.1 -0.1)">
       <use xlink:href="#DejaVuSans-30"/>
      </g>
     </g>
    </g>
    <g id="xtick_3">
     <g id="line2d_3">
      <g>
       <use xlink:href="#m839527d293" x="129.6" y="189" style="stroke: #000000; stroke-width: 0.8"/>
      </g>
     </g>
     <g id="text_3">
      <!-- 10 -->
      <g transform="translate(123.2375 203.598437)scale(0.1 -0.1)">
       <use xlink:href="#DejaVuSans-31"/>
       <use xlink:href="#DejaVuSans-30" x="63.623047"/>
      </g>
     </g>
    </g>
   </g>
   <g id="matplotlib.axis_2">
    <g id="ytick_1">
     <g id="line2d_4">
      <defs>
       <path id="mb3ab8cf3db" d="M 0 0 
L -3.5 0 
" style="stroke: #000000; stroke-width: 0.8"/>
      </defs>
      <g>
       <use xlink:href="#mb3ab8cf3db" x="18" y="189" style="stroke: #000000; stroke-width: 0.8"/>
      </g>
     </g>
     <g id="text_4">
      <!-- 15 -->
      <g transform="translate(-10.104688 192.799219)scale(0.1 -0.1)">
       <defs>
        <path id="DejaVuSans-35" d="M 691 4666 
L 3169 4666 
L 3169 4134 
L 1269 4134 
L 1269 2991 
Q 1406 3038 1543 3061 
Q 1681 3084 1819 3084 
Q 2600 3084 3056 2656 
Q 3513 2228 3513 1497 
Q 3513 744 3044 326 
Q 2575 -91 1722 -91 
Q 1428 -91 1123 -41 
Q 819 9 494 109 
L 494 744 
Q 775 591 1075 516 
Q 1375 441 1709 441 
Q 2250 441 2565 725 
Q 2881 1009 2881 1497 
Q 2881 1984 2565 2268 
Q 2250 2553 1709 2553 
Q 1456 2553 1204 2497 
Q 953 2441 691 2322 
L 691 4666 
z
" transform="scale(0.015625)"/>
       </defs>
       <use xlink:href="#DejaVuSans-2212"/>
       <use xlink:href="#DejaVuSans-31" x="83.789062"/>
       <use xlink:href="#DejaVuSans-35" x="147.412109"/>
      </g>
     </g>
    </g>
    <g id="ytick_2">
     <g id="line2d_5">
      <g>
       <use xlink:href="#mb3ab8cf3db" x="18" y="161.82" style="stroke: #000000; stroke-width: 0.8"/>
      </g>
     </g>
     <g id="text_5">
      <!-- 10 -->
      <g transform="translate(-10.104688 165.619219)scale(0.1 -0.1)">
       <use xlink:href="#DejaVuSans-2212"/>
       <use xlink:href="#DejaVuSans-31" x="83.789062"/>
       <use xlink:href="#DejaVuSans-30" x="147.412109"/>
      </g>
     </g>
    </g>
    <g id="ytick_3">
     <g id="line2d_6">
      <g>
       <use xlink:href="#mb3ab8cf3db" x="18" y="134.64" style="stroke: #000000; stroke-width: 0.8"/>
      </g>
     </g>
     <g id="text_6">
      <!-- 5 -->
      <g transform="translate(-3.742188 138.439219)scale(0.1 -0.1)">
       <use xlink:href="#DejaVuSans-2212"/>
       <use xlink:href="#DejaVuSans-35" x="83.789062"/>
      </g>
     </g>
    </g>
    <g id="ytick_4">
     <g id="line2d_7">
      <g>
       <use xlink:href="#mb3ab8cf3db" x="18" y="107.46" style="stroke: #000000; stroke-width: 0.8"/>
      </g>
     </g>
     <g id="text_7">
      <!-- 0 -->
      <g transform="translate(4.6375 111.259219)scale(0.1 -0.1)">
       <use xlink:href="#DejaVuSans-30"/>
      </g>
     </g>
    </g>
    <g id="ytick_5">
     <g id="line2d_8">
      <g>
       <use xlink:href="#mb3ab8cf3db" x="18" y="80.28" style="stroke: #000000; stroke-width: 0.8"/>
      </g>
     </g>
     <g id="text_8">
      <!-- 5 -->
      <g transform="translate(4.6375 84.079219)scale(0.1 -0.1)">
       <use xlink:href="#DejaVuSans-35"/>
      </g>
     </g>
    </g>
    <g id="ytick_6">
     <g id="line2d_9">
      <g>
       <use xlink:href="#mb3ab8cf3db" x="18" y="53.1" style="stroke: #000000; stroke-width: 0.8"/>
      </g>
     </g>
     <g id="text_9">
      <!-- 10 -->
      <g transform="translate(-1.725 56.899219)scale(0.1 -0.1)">
       <use xlink:href="#DejaVuSans-31"/>
       <use xlink:href="#DejaVuSans-30" x="63.623047"/>
      </g>
     </g>
    </g>
    <g id="ytick_7">
     <g id="line2d_10">
      <g>
       <use xlink:href="#mb3ab8cf3db" x="18" y="25.92" style="stroke: #000000; stroke-width: 0.8"/>
      </g>
     </g>
     <g id="text_10">
      <!-- 15 -->
      <g transform="translate(-1.725 29.719219)scale(0.1 -0.1)">
       <use xlink:href="#DejaVuSans-31"/>
       <use xlink:href="#DejaVuSans-35" x="63.623047"/>
      </g>
     </g>
    </g>
   </g>
   <g id="patch_3">
    <path d="M 18 189 
L 18 25.92 
" style="fill: none; stroke: #000000; stroke-width: 0.8; stroke-linejoin: miter; stroke-linecap: square"/>
   </g>
   <g id="patch_4">
    <path d="M 129.6 189 
L 129.6 25.92 
" style="fill: none; stroke: #000000; stroke-width: 0.8; stroke-linejoin: miter; stroke-linecap: square"/>
   </g>
   <g id="patch_5">
    <path d="M 18 189 
L 129.6 189 
" style="fill: none; stroke: #000000; stroke-width: 0.8; stroke-linejoin: miter; stroke-linecap: square"/>
   </g>
   <g id="patch_6">
    <path d="M 18 25.92 
L 129.6 25.92 
" style="fill: none; stroke: #000000; stroke-width: 0.8; stroke-linejoin: miter; stroke-linecap: square"/>
   </g>
  </g>
 </g>
 <defs>
  <clipPath id="pd10499b6e9">
   <rect x="18" y="25.92" width="111.6" height="163.08"/>
  </clipPath>
 </defs>
</svg>
