<?xml version="1.0" encoding="utf-8" standalone="no"?>
<!DOCTYPE svg PUBLIC "-//W3C//DTD SVG 1.1//EN"
  "http://www.w3.org/Graphics/SVG/1.1/DTD/svg11.dtd">
<svg xmlns:xlink="http://www.w3.org/1999/xlink" width="144pt" height="216pt" viewBox="0 0 144 216" xmlns="http://www.w3.org/2000/svg" version="1.1">
 <metadata>
  <rdf:RDF xmlns:dc="http://purl.org/dc/elements/1.1/" xmlns:cc="http://creativecommons.org/ns#" xmlns:rdf="http://www.w3.org/1999/02/22-rdf-syntax-ns#">
   <cc:Work>
    <dc:type rdf:resource="http://purl.org/dc/dcmitype/StillImage"/>
    <dc:date>2022-06-23T14:43:51.734215</dc:date>
    <dc:format>image/svg+xml</dc:format>
    <dc:creator>
     <cc:Agent>
      <dc:title>Matplotlib v3.5.1, https://matplotlib.org/</dc:title>
     </cc:Agent>
    </dc:creator>
   </cc:Work>
  </rdf:RDF>
 </metadata>
 <defs>
  <style type="text/css">*{stroke-linejoin: round; stroke-linecap: butt}</style>
 </defs>
 <g id="figure_1">
  <g id="patch_1">
   <path d="M 0 216 
L 144 216 
L 144 0 
L 0 0 
L 0 216 
z
" style="fill: none"/>
  </g>
  <g id="axes_1">
   <g id="patch_2">
    <path d="M 18 189 
L 129.6 189 
L 129.6 25.92 
L 18 25.92 
z
" style="fill: #ffffff"/>
   </g>
   <g id="PathCollection_1">
    <defs>
     <path id="m33d1243ff8" d="M 0 2.738613 
C 0.726289 2.738613 1.422928 2.450055 1.936492 1.936492 
C 2.450055 1.422928 2.738613 0.726289 2.738613 0 
C 2.738613 -0.726289 2.450055 -1.422928 1.936492 -1.936492 
C 1.422928 -2.450055 0.726289 -2.738613 0 -2.738613 
C -0.726289 -2.738613 -1.422928 -2.450055 -1.936492 -1.936492 
C -2.450055 -1.422928 -2.738613 -0.726289 -2.738613 0 
C -2.738613 0.726289 -2.450055 1.422928 -1.936492 1.936492 
C -1.422928 2.450055 -0.726289 2.738613 0 2.738613 
z
" style="stroke: #ff0000; stroke-width: 1.75"/>
    </defs>
    <g clip-path="url(#p4df01c1484)">
     <use xlink:href="#m33d1243ff8" x="66.825" y="83.92143" style="fill: #ff0000; stroke: #ff0000; stroke-width: 1.75"/>
     <use xlink:href="#m33d1243ff8" x="87.75" y="95.690715" style="fill: #ff0000; stroke: #ff0000; stroke-width: 1.75"/>
     <use xlink:href="#m33d1243ff8" x="66.825" y="107.46" style="fill: #ff0000; stroke: #ff0000; stroke-width: 1.75"/>
     <use xlink:href="#m33d1243ff8" x="73.8" y="119.229285" style="fill: #ff0000; stroke: #ff0000; stroke-width: 1.75"/>
     <use xlink:href="#m33d1243ff8" x="87.75" y="119.229285" style="fill: #ff0000; stroke: #ff0000; stroke-width: 1.75"/>
     <use xlink:href="#m33d1243ff8" x="66.825" y="130.99857" style="fill: #ff0000; stroke: #ff0000; stroke-width: 1.75"/>
     <use xlink:href="#m33d1243ff8" x="80.775" y="130.99857" style="fill: #ff0000; stroke: #ff0000; stroke-width: 1.75"/>
    </g>
   </g>
   <g id="PathCollection_2">
    <defs>
     <path id="C0_0_ac3864db7f" d="M 0 2.738613 
C 0.726289 2.738613 1.422928 2.450055 1.936492 1.936492 
C 2.450055 1.422928 2.738613 0.726289 2.738613 -0 
C 2.738613 -0.726289 2.450055 -1.422928 1.936492 -1.936492 
C 1.422928 -2.450055 0.726289 -2.738613 0 -2.738613 
C -0.726289 -2.738613 -1.422928 -2.450055 -1.936492 -1.936492 
C -2.450055 -1.422928 -2.738613 -0.726289 -2.738613 0 
C -2.738613 0.726289 -2.450055 1.422928 -1.936492 1.936492 
C -1.422928 2.450055 -0.726289 2.738613 0 2.738613 
z
"/>
    </defs>
    <g clip-path="url(#p4df01c1484)">
     <use xlink:href="#C0_0_ac3864db7f" x="80.775" y="83.92143" style="fill: none; stroke: #ff0000; stroke-width: 1.75"/>
    </g>
    <g clip-path="url(#p4df01c1484)">
     <use xlink:href="#C0_0_ac3864db7f" x="59.85" y="95.690715" style="fill: none; stroke: #ff0000; stroke-width: 1.75"/>
    </g>
    <g clip-path="url(#p4df01c1484)">
     <use xlink:href="#C0_0_ac3864db7f" x="73.8" y="95.690715" style="fill: none; stroke: #ff0000; stroke-width: 1.75"/>
    </g>
    <g clip-path="url(#p4df01c1484)">
     <use xlink:href="#C0_0_ac3864db7f" x="52.875" y="107.46" style="fill: none; stroke: #ff0000; stroke-width: 1.75"/>
    </g>
    <g clip-path="url(#p4df01c1484)">
     <use xlink:href="#C0_0_ac3864db7f" x="80.775" y="107.46" style="fill: none; stroke: #ff0000; stroke-width: 1.75"/>
    </g>
    <g clip-path="url(#p4df01c1484)">
     <use xlink:href="#C0_0_ac3864db7f" x="94.725" y="107.46" style="fill: none; stroke: #ff0000; stroke-width: 1.75"/>
    </g>
    <g clip-path="url(#p4df01c1484)">
     <use xlink:href="#C0_0_ac3864db7f" x="59.85" y="119.229285" style="fill: none; stroke: #ff0000; stroke-width: 1.75"/>
    </g>
   </g>
   <g id="PathCollection_3">
    <path d="M 117.05563 150.729323 
C 117.188231 150.729323 117.31542 150.676639 117.409183 150.582876 
C 117.502947 150.489113 117.55563 150.361924 117.55563 150.229323 
C 117.55563 150.096721 117.502947 149.969533 117.409183 149.875769 
C 117.31542 149.782006 117.188231 149.729323 117.05563 149.729323 
C 116.923028 149.729323 116.79584 149.782006 116.702076 149.875769 
C 116.608313 149.969533 116.55563 150.096721 116.55563 150.229323 
C 116.55563 150.361924 116.608313 150.489113 116.702076 150.582876 
C 116.79584 150.676639 116.923028 150.729323 117.05563 150.729323 
z
" clip-path="url(#p4df01c1484)" style="stroke: #000000"/>
    <path d="M 98.008779 109.419925 
C 98.555509 109.419925 99.079921 109.202707 99.466517 108.81611 
C 99.853114 108.429514 100.070332 107.905103 100.070332 107.358373 
C 100.070332 106.811642 99.853114 106.287231 99.466517 105.900635 
C 99.079921 105.514038 98.555509 105.29682 98.008779 105.29682 
C 97.462049 105.29682 96.937638 105.514038 96.551041 105.900635 
C 96.164445 106.287231 95.947226 106.811642 95.947226 107.358373 
C 95.947226 107.905103 96.164445 108.429514 96.551041 108.81611 
C 96.937638 109.202707 97.462049 109.419925 98.008779 109.419925 
z
" clip-path="url(#p4df01c1484)" style="stroke: #000000"/>
    <path d="M 92.926597 116.916315 
C 93.084288 116.916315 93.235541 116.853664 93.347045 116.74216 
C 93.458549 116.630656 93.5212 116.479402 93.5212 116.321712 
C 93.5212 116.164021 93.458549 116.012768 93.347045 115.901263 
C 93.235541 115.789759 93.084288 115.727108 92.926597 115.727108 
C 92.768906 115.727108 92.617653 115.789759 92.506149 115.901263 
C 92.394645 116.012768 92.331993 116.164021 92.331993 116.321712 
C 92.331993 116.479402 92.394645 116.630656 92.506149 116.74216 
C 92.617653 116.853664 92.768906 116.916315 92.926597 116.916315 
z
" clip-path="url(#p4df01c1484)" style="stroke: #000000"/>
    <path d="M 91.201616 111.572314 
C 91.51195 111.572314 91.809615 111.449017 92.029054 111.229578 
C 92.248493 111.010139 92.37179 110.712474 92.37179 110.40214 
C 92.37179 110.091807 92.248493 109.794142 92.029054 109.574703 
C 91.809615 109.355264 91.51195 109.231967 91.201616 109.231967 
C 90.891282 109.231967 90.593617 109.355264 90.374178 109.574703 
C 90.154739 109.794142 90.031442 110.091807 90.031442 110.40214 
C 90.031442 110.712474 90.154739 111.010139 90.374178 111.229578 
C 90.593617 111.449017 90.891282 111.572314 91.201616 111.572314 
z
" clip-path="url(#p4df01c1484)" style="stroke: #000000"/>
    <path d="M 84.753346 98.787712 
C 85.285812 98.787712 85.796541 98.576161 86.173052 98.199651 
C 86.549562 97.82314 86.761113 97.312411 86.761113 96.779945 
C 86.761113 96.247479 86.549562 95.736749 86.173052 95.360239 
C 85.796541 94.983729 85.285812 94.772178 84.753346 94.772178 
C 84.22088 94.772178 83.710151 94.983729 83.33364 95.360239 
C 82.95713 95.736749 82.745579 96.247479 82.745579 96.779945 
C 82.745579 97.312411 82.95713 97.82314 83.33364 98.199651 
C 83.710151 98.576161 84.22088 98.787712 84.753346 98.787712 
z
" clip-path="url(#p4df01c1484)" style="stroke: #000000"/>
    <path d="M 81.552985 86.82325 
C 82.079727 86.82325 82.584967 86.613973 82.95743 86.24151 
C 83.329893 85.869047 83.53917 85.363807 83.53917 84.837065 
C 83.53917 84.310322 83.329893 83.805083 82.95743 83.432619 
C 82.584967 83.060156 82.079727 82.850879 81.552985 82.850879 
C 81.026242 82.850879 80.521003 83.060156 80.148539 83.432619 
C 79.776076 83.805083 79.566799 84.310322 79.566799 84.837065 
C 79.566799 85.363807 79.776076 85.869047 80.148539 86.24151 
C 80.521003 86.613973 81.026242 86.82325 81.552985 86.82325 
z
" clip-path="url(#p4df01c1484)" style="stroke: #000000"/>
    <path d="M 83.488968 83.304693 
C 83.858019 83.304693 84.212004 83.158068 84.472963 82.897109 
C 84.733921 82.636151 84.880547 82.282165 84.880547 81.913114 
C 84.880547 81.544063 84.733921 81.190078 84.472963 80.92912 
C 84.212004 80.668161 83.858019 80.521536 83.488968 80.521536 
C 83.119917 80.521536 82.765931 80.668161 82.504973 80.92912 
C 82.244014 81.190078 82.097389 81.544063 82.097389 81.913114 
C 82.097389 82.282165 82.244014 82.636151 82.504973 82.897109 
C 82.765931 83.158068 83.119917 83.304693 83.488968 83.304693 
z
" clip-path="url(#p4df01c1484)" style="stroke: #000000"/>
    <path d="M 88.92534 125.00617 
C 89.132872 125.00617 89.331933 124.923716 89.478681 124.776968 
C 89.625428 124.630221 89.707882 124.43116 89.707882 124.223627 
C 89.707882 124.016095 89.625428 123.817034 89.478681 123.670286 
C 89.331933 123.523539 89.132872 123.441085 88.92534 123.441085 
C 88.717807 123.441085 88.518747 123.523539 88.371999 123.670286 
C 88.225251 123.817034 88.142797 124.016095 88.142797 124.223627 
C 88.142797 124.43116 88.225251 124.630221 88.371999 124.776968 
C 88.518747 124.923716 88.717807 125.00617 88.92534 125.00617 
z
" clip-path="url(#p4df01c1484)" style="stroke: #000000"/>
    <path d="M 87.156478 120.802214 
C 87.764479 120.802214 88.34766 120.560653 88.777581 120.130731 
C 89.207503 119.70081 89.449064 119.117629 89.449064 118.509628 
C 89.449064 117.901627 89.207503 117.318447 88.777581 116.888525 
C 88.34766 116.458604 87.764479 116.217043 87.156478 116.217043 
C 86.548478 116.217043 85.965297 116.458604 85.535376 116.888525 
C 85.105454 117.318447 84.863893 117.901627 84.863893 118.509628 
C 84.863893 119.117629 85.105454 119.70081 85.535376 120.130731 
C 85.965297 120.560653 86.548478 120.802214 87.156478 120.802214 
z
" clip-path="url(#p4df01c1484)" style="stroke: #000000"/>
    <path d="M 82.87718 106.848484 
C 83.309513 106.848484 83.724196 106.676716 84.029902 106.371011 
C 84.335607 106.065305 84.507375 105.650621 84.507375 105.218288 
C 84.507375 104.785956 84.335607 104.371272 84.029902 104.065566 
C 83.724196 103.759861 83.309513 103.588093 82.87718 103.588093 
C 82.444847 103.588093 82.030163 103.759861 81.724458 104.065566 
C 81.418752 104.371272 81.246985 104.785956 81.246985 105.218288 
C 81.246985 105.650621 81.418752 106.065305 81.724458 106.371011 
C 82.030163 106.676716 82.444847 106.848484 82.87718 106.848484 
z
" clip-path="url(#p4df01c1484)" style="stroke: #000000"/>
    <path d="M 75.300486 95.477755 
C 75.760627 95.477755 76.201983 95.294939 76.527352 94.969571 
C 76.85272 94.644202 77.035536 94.202846 77.035536 93.742705 
C 77.035536 93.282564 76.85272 92.841208 76.527352 92.515839 
C 76.201983 92.190471 75.760627 92.007655 75.300486 92.007655 
C 74.840346 92.007655 74.398989 92.190471 74.073621 92.515839 
C 73.748252 92.841208 73.565436 93.282564 73.565436 93.742705 
C 73.565436 94.202846 73.748252 94.644202 74.073621 94.969571 
C 74.398989 95.294939 74.840346 95.477755 75.300486 95.477755 
z
" clip-path="url(#p4df01c1484)" style="stroke: #000000"/>
    <path d="M 76.444142 86.624555 
C 76.759523 86.624555 77.06203 86.499253 77.285038 86.276244 
C 77.508046 86.053236 77.633349 85.750729 77.633349 85.435348 
C 77.633349 85.119967 77.508046 84.81746 77.285038 84.594452 
C 77.06203 84.371443 76.759523 84.246141 76.444142 84.246141 
C 76.12876 84.246141 75.826254 84.371443 75.603245 84.594452 
C 75.380237 84.81746 75.254935 85.119967 75.254935 85.435348 
C 75.254935 85.750729 75.380237 86.053236 75.603245 86.276244 
C 75.826254 86.499253 76.12876 86.624555 76.444142 86.624555 
z
" clip-path="url(#p4df01c1484)" style="stroke: #000000"/>
    <path d="M 84.274408 134.509852 
C 84.40701 134.509852 84.534198 134.457168 84.627962 134.363405 
C 84.721725 134.269642 84.774408 134.142453 84.774408 134.009852 
C 84.774408 133.87725 84.721725 133.750062 84.627962 133.656298 
C 84.534198 133.562535 84.40701 133.509852 84.274408 133.509852 
C 84.141807 133.509852 84.014618 133.562535 83.920855 133.656298 
C 83.827091 133.750062 83.774408 133.87725 83.774408 134.009852 
C 83.774408 134.142453 83.827091 134.269642 83.920855 134.363405 
C 84.014618 134.457168 84.141807 134.509852 84.274408 134.509852 
z
" clip-path="url(#p4df01c1484)" style="stroke: #000000"/>
    <path d="M 83.85413 127.181559 
C 83.986732 127.181559 84.11392 127.128875 84.207684 127.035112 
C 84.301447 126.941349 84.35413 126.81416 84.35413 126.681559 
C 84.35413 126.548957 84.301447 126.421769 84.207684 126.328005 
C 84.11392 126.234242 83.986732 126.181559 83.85413 126.181559 
C 83.721529 126.181559 83.59434 126.234242 83.500577 126.328005 
C 83.406813 126.421769 83.35413 126.548957 83.35413 126.681559 
C 83.35413 126.81416 83.406813 126.941349 83.500577 127.035112 
C 83.59434 127.128875 83.721529 127.181559 83.85413 127.181559 
z
" clip-path="url(#p4df01c1484)" style="stroke: #000000"/>
    <path d="M 79.883286 120.535224 
C 80.015887 120.535224 80.143075 120.482541 80.236839 120.388777 
C 80.330602 120.295014 80.383286 120.167825 80.383286 120.035224 
C 80.383286 119.902622 80.330602 119.775434 80.236839 119.68167 
C 80.143075 119.587907 80.015887 119.535224 79.883286 119.535224 
C 79.750684 119.535224 79.623496 119.587907 79.529732 119.68167 
C 79.435969 119.775434 79.383286 119.902622 79.383286 120.035224 
C 79.383286 120.167825 79.435969 120.295014 79.529732 120.388777 
C 79.623496 120.482541 79.750684 120.535224 79.883286 120.535224 
z
" clip-path="url(#p4df01c1484)" style="stroke: #000000"/>
    <path d="M 74.191025 98.020184 
C 74.700547 98.020184 75.189269 97.817749 75.549555 97.457463 
C 75.909841 97.097176 76.112277 96.608455 76.112277 96.098933 
C 76.112277 95.589411 75.909841 95.10069 75.549555 94.740403 
C 75.189269 94.380117 74.700547 94.177682 74.191025 94.177682 
C 73.681504 94.177682 73.192782 94.380117 72.832496 94.740403 
C 72.47221 95.10069 72.269774 95.589411 72.269774 96.098933 
C 72.269774 96.608455 72.47221 97.097176 72.832496 97.457463 
C 73.192782 97.817749 73.681504 98.020184 74.191025 98.020184 
z
" clip-path="url(#p4df01c1484)" style="stroke: #000000"/>
    <path d="M 67.726982 87.824688 
C 68.29172 87.824688 68.833405 87.600315 69.232736 87.200984 
C 69.632066 86.801654 69.856439 86.259969 69.856439 85.69523 
C 69.856439 85.130492 69.632066 84.588807 69.232736 84.189476 
C 68.833405 83.790146 68.29172 83.565773 67.726982 83.565773 
C 67.162243 83.565773 66.620558 83.790146 66.221228 84.189476 
C 65.821897 84.588807 65.597524 85.130492 65.597524 85.69523 
C 65.597524 86.259969 65.821897 86.801654 66.221228 87.200984 
C 66.620558 87.600315 67.162243 87.824688 67.726982 87.824688 
z
" clip-path="url(#p4df01c1484)" style="stroke: #000000"/>
    <path d="M 76.969601 130.683773 
C 77.373408 130.683773 77.760729 130.523339 78.046264 130.237805 
C 78.331798 129.95227 78.492232 129.564948 78.492232 129.161142 
C 78.492232 128.757336 78.331798 128.370014 78.046264 128.084479 
C 77.760729 127.798945 77.373408 127.638511 76.969601 127.638511 
C 76.565795 127.638511 76.178473 127.798945 75.892939 128.084479 
C 75.607404 128.370014 75.44697 128.757336 75.44697 129.161142 
C 75.44697 129.564948 75.607404 129.95227 75.892939 130.237805 
C 76.178473 130.523339 76.565795 130.683773 76.969601 130.683773 
z
" clip-path="url(#p4df01c1484)" style="stroke: #000000"/>
    <path d="M 74.348924 124.407436 
C 74.711664 124.407436 75.059596 124.263318 75.316092 124.006822 
C 75.572588 123.750326 75.716706 123.402394 75.716706 123.039654 
C 75.716706 122.676914 75.572588 122.328981 75.316092 122.072485 
C 75.059596 121.815989 74.711664 121.671871 74.348924 121.671871 
C 73.986183 121.671871 73.638251 121.815989 73.381755 122.072485 
C 73.125259 122.328981 72.981141 122.676914 72.981141 123.039654 
C 72.981141 123.402394 73.125259 123.750326 73.381755 124.006822 
C 73.638251 124.263318 73.986183 124.407436 74.348924 124.407436 
z
" clip-path="url(#p4df01c1484)" style="stroke: #000000"/>
    <path d="M 73.674052 117.294545 
C 74.009592 117.294545 74.331435 117.161233 74.568698 116.923971 
C 74.80596 116.686708 74.939272 116.364865 74.939272 116.029325 
C 74.939272 115.693785 74.80596 115.371942 74.568698 115.13468 
C 74.331435 114.897417 74.009592 114.764105 73.674052 114.764105 
C 73.338512 114.764105 73.016669 114.897417 72.779407 115.13468 
C 72.542144 115.371942 72.408832 115.693785 72.408832 116.029325 
C 72.408832 116.364865 72.542144 116.686708 72.779407 116.923971 
C 73.016669 117.161233 73.338512 117.294545 73.674052 117.294545 
z
" clip-path="url(#p4df01c1484)" style="stroke: #000000"/>
    <path d="M 62.343992 87.389508 
C 62.551525 87.389508 62.750586 87.307054 62.897333 87.160306 
C 63.044081 87.013559 63.126535 86.814498 63.126535 86.606965 
C 63.126535 86.399433 63.044081 86.200372 62.897333 86.053624 
C 62.750586 85.906877 62.551525 85.824423 62.343992 85.824423 
C 62.13646 85.824423 61.937399 85.906877 61.790651 86.053624 
C 61.643904 86.200372 61.56145 86.399433 61.56145 86.606965 
C 61.56145 86.814498 61.643904 87.013559 61.790651 87.160306 
C 61.937399 87.307054 62.13646 87.389508 62.343992 87.389508 
z
" clip-path="url(#p4df01c1484)" style="stroke: #000000"/>
    <path d="M 71.797972 129.992732 
C 71.930574 129.992732 72.057762 129.940049 72.151526 129.846285 
C 72.245289 129.752522 72.297972 129.625333 72.297972 129.492732 
C 72.297972 129.36013 72.245289 129.232942 72.151526 129.139178 
C 72.057762 129.045415 71.930574 128.992732 71.797972 128.992732 
C 71.665371 128.992732 71.538182 129.045415 71.444419 129.139178 
C 71.350655 129.232942 71.297972 129.36013 71.297972 129.492732 
C 71.297972 129.625333 71.350655 129.752522 71.444419 129.846285 
C 71.538182 129.940049 71.665371 129.992732 71.797972 129.992732 
z
" clip-path="url(#p4df01c1484)" style="stroke: #000000"/>
    <path d="M 67.310872 124.739593 
C 67.443474 124.739593 67.570662 124.68691 67.664426 124.593146 
C 67.758189 124.499383 67.810872 124.372194 67.810872 124.239593 
C 67.810872 124.106991 67.758189 123.979803 67.664426 123.886039 
C 67.570662 123.792276 67.443474 123.739593 67.310872 123.739593 
C 67.178271 123.739593 67.051082 123.792276 66.957319 123.886039 
C 66.863555 123.979803 66.810872 124.106991 66.810872 124.239593 
C 66.810872 124.372194 66.863555 124.499383 66.957319 124.593146 
C 67.051082 124.68691 67.178271 124.739593 67.310872 124.739593 
z
" clip-path="url(#p4df01c1484)" style="stroke: #000000"/>
    <path d="M 58.760401 101.383044 
C 59.050791 101.383044 59.329325 101.267672 59.534662 101.062335 
C 59.739998 100.856999 59.855371 100.578464 59.855371 100.288075 
C 59.855371 99.997686 59.739998 99.719151 59.534662 99.513815 
C 59.329325 99.308479 59.050791 99.193106 58.760401 99.193106 
C 58.470012 99.193106 58.191477 99.308479 57.986141 99.513815 
C 57.780805 99.719151 57.665432 99.997686 57.665432 100.288075 
C 57.665432 100.578464 57.780805 100.856999 57.986141 101.062335 
C 58.191477 101.267672 58.470012 101.383044 58.760401 101.383044 
z
" clip-path="url(#p4df01c1484)" style="stroke: #000000"/>
    <path d="M 55.790045 95.753711 
C 56.036845 95.753711 56.273569 95.655656 56.448082 95.481143 
C 56.622596 95.306629 56.72065 95.069905 56.72065 94.823106 
C 56.72065 94.576306 56.622596 94.339582 56.448082 94.165069 
C 56.273569 93.990555 56.036845 93.892501 55.790045 93.892501 
C 55.543246 93.892501 55.306522 93.990555 55.132008 94.165069 
C 54.957495 94.339582 54.85944 94.576306 54.85944 94.823106 
C 54.85944 95.069905 54.957495 95.306629 55.132008 95.481143 
C 55.306522 95.655656 55.543246 95.753711 55.790045 95.753711 
z
" clip-path="url(#p4df01c1484)" style="stroke: #000000"/>
    <path d="M 64.24106 133.871208 
C 64.771983 133.871208 65.281233 133.66027 65.656653 133.28485 
C 66.032072 132.909431 66.24301 132.400181 66.24301 131.869258 
C 66.24301 131.338334 66.032072 130.829085 65.656653 130.453665 
C 65.281233 130.078246 64.771983 129.867307 64.24106 129.867307 
C 63.710137 129.867307 63.200887 130.078246 62.825467 130.453665 
C 62.450048 130.829085 62.23911 131.338334 62.23911 131.869258 
C 62.23911 132.400181 62.450048 132.909431 62.825467 133.28485 
C 63.200887 133.66027 63.710137 133.871208 64.24106 133.871208 
z
" clip-path="url(#p4df01c1484)" style="stroke: #000000"/>
    <path d="M 59.068395 123.391485 
C 59.610818 123.391485 60.131098 123.175979 60.514649 122.792428 
C 60.8982 122.408877 61.113707 121.888597 61.113707 121.346174 
C 61.113707 120.803751 60.8982 120.283471 60.514649 119.89992 
C 60.131098 119.516369 59.610818 119.300862 59.068395 119.300862 
C 58.525972 119.300862 58.005692 119.516369 57.622141 119.89992 
C 57.23859 120.283471 57.023083 120.803751 57.023083 121.346174 
C 57.023083 121.888597 57.23859 122.408877 57.622141 122.792428 
C 58.005692 123.175979 58.525972 123.391485 59.068395 123.391485 
z
" clip-path="url(#p4df01c1484)" style="stroke: #000000"/>
    <path d="M 59.717937 118.703691 
C 60.22978 118.703691 60.720729 118.500334 61.082656 118.138406 
C 61.444584 117.776479 61.647941 117.28553 61.647941 116.773687 
C 61.647941 116.261844 61.444584 115.770896 61.082656 115.408968 
C 60.720729 115.04704 60.22978 114.843683 59.717937 114.843683 
C 59.206094 114.843683 58.715146 115.04704 58.353218 115.408968 
C 57.99129 115.770896 57.787933 116.261844 57.787933 116.773687 
C 57.787933 117.28553 57.99129 117.776479 58.353218 118.138406 
C 58.715146 118.500334 59.206094 118.703691 59.717937 118.703691 
z
" clip-path="url(#p4df01c1484)" style="stroke: #000000"/>
    <path d="M 54.696897 112.106673 
C 55.04223 112.106673 55.373465 111.969471 55.617653 111.725284 
C 55.86184 111.481097 55.999042 111.149861 55.999042 110.804528 
C 55.999042 110.459195 55.86184 110.12796 55.617653 109.883772 
C 55.373465 109.639585 55.04223 109.502383 54.696897 109.502383 
C 54.351564 109.502383 54.020328 109.639585 53.776141 109.883772 
C 53.531954 110.12796 53.394751 110.459195 53.394751 110.804528 
C 53.394751 111.149861 53.531954 111.481097 53.776141 111.725284 
C 54.020328 111.969471 54.351564 112.106673 54.696897 112.106673 
z
" clip-path="url(#p4df01c1484)" style="stroke: #000000"/>
    <path d="M 51.49129 103.395169 
C 51.706976 103.395169 51.913858 103.309476 52.066372 103.156963 
C 52.218885 103.004449 52.304578 102.797568 52.304578 102.581881 
C 52.304578 102.366195 52.218885 102.159313 52.066372 102.0068 
C 51.913858 101.854286 51.706976 101.768593 51.49129 101.768593 
C 51.275603 101.768593 51.068722 101.854286 50.916208 102.0068 
C 50.763695 102.159313 50.678002 102.366195 50.678002 102.581881 
C 50.678002 102.797568 50.763695 103.004449 50.916208 103.156963 
C 51.068722 103.309476 51.275603 103.395169 51.49129 103.395169 
z
" clip-path="url(#p4df01c1484)" style="stroke: #000000"/>
    <path d="M 54.242404 119.744674 
C 54.375006 119.744674 54.502194 119.691991 54.595957 119.598228 
C 54.689721 119.504464 54.742404 119.377276 54.742404 119.244674 
C 54.742404 119.112073 54.689721 118.984884 54.595957 118.891121 
C 54.502194 118.797357 54.375006 118.744674 54.242404 118.744674 
C 54.109803 118.744674 53.982614 118.797357 53.888851 118.891121 
C 53.795087 118.984884 53.742404 119.112073 53.742404 119.244674 
C 53.742404 119.377276 53.795087 119.504464 53.888851 119.598228 
C 53.982614 119.691991 54.109803 119.744674 54.242404 119.744674 
z
" clip-path="url(#p4df01c1484)" style="stroke: #000000"/>
   </g>
   <g id="matplotlib.axis_1">
    <g id="xtick_1">
     <g id="line2d_1">
      <defs>
       <path id="m5901cf7848" d="M 0 0 
L 0 3.5 
" style="stroke: #000000; stroke-width: 0.8"/>
      </defs>
      <g>
       <use xlink:href="#m5901cf7848" x="18" y="189" style="stroke: #000000; stroke-width: 0.8"/>
      </g>
     </g>
     <g id="text_1">
      <!-- −10 -->
      <g transform="translate(7.447656 203.598437)scale(0.1 -0.1)">
       <defs>
        <path id="DejaVuSans-2212" d="M 678 2272 
L 4684 2272 
L 4684 1741 
L 678 1741 
L 678 2272 
z
" transform="scale(0.015625)"/>
        <path id="DejaVuSans-31" d="M 794 531 
L 1825 531 
L 1825 4091 
L 703 3866 
L 703 4441 
L 1819 4666 
L 2450 4666 
L 2450 531 
L 3481 531 
L 3481 0 
L 794 0 
L 794 531 
z
" transform="scale(0.015625)"/>
        <path id="DejaVuSans-30" d="M 2034 4250 
Q 1547 4250 1301 3770 
Q 1056 3291 1056 2328 
Q 1056 1369 1301 889 
Q 1547 409 2034 409 
Q 2525 409 2770 889 
Q 3016 1369 3016 2328 
Q 3016 3291 2770 3770 
Q 2525 4250 2034 4250 
z
M 2034 4750 
Q 2819 4750 3233 4129 
Q 3647 3509 3647 2328 
Q 3647 1150 3233 529 
Q 2819 -91 2034 -91 
Q 1250 -91 836 529 
Q 422 1150 422 2328 
Q 422 3509 836 4129 
Q 1250 4750 2034 4750 
z
" transform="scale(0.015625)"/>
       </defs>
       <use xlink:href="#DejaVuSans-2212"/>
       <use xlink:href="#DejaVuSans-31" x="83.789062"/>
       <use xlink:href="#DejaVuSans-30" x="147.412109"/>
      </g>
     </g>
    </g>
    <g id="xtick_2">
     <g id="line2d_2">
      <g>
       <use xlink:href="#m5901cf7848" x="73.8" y="189" style="stroke: #000000; stroke-width: 0.8"/>
      </g>
     </g>
     <g id="text_2">
      <!-- 0 -->
      <g transform="translate(70.61875 203.598437)scale(0.1 -0.1)">
       <use xlink:href="#DejaVuSans-30"/>
      </g>
     </g>
    </g>
    <g id="xtick_3">
     <g id="line2d_3">
      <g>
       <use xlink:href="#m5901cf7848" x="129.6" y="189" style="stroke: #000000; stroke-width: 0.8"/>
      </g>
     </g>
     <g id="text_3">
      <!-- 10 -->
      <g transform="translate(123.2375 203.598437)scale(0.1 -0.1)">
       <use xlink:href="#DejaVuSans-31"/>
       <use xlink:href="#DejaVuSans-30" x="63.623047"/>
      </g>
     </g>
    </g>
   </g>
   <g id="matplotlib.axis_2">
    <g id="ytick_1">
     <g id="line2d_4">
      <defs>
       <path id="m9bd67108eb" d="M 0 0 
L -3.5 0 
" style="stroke: #000000; stroke-width: 0.8"/>
      </defs>
      <g>
       <use xlink:href="#m9bd67108eb" x="18" y="189" style="stroke: #000000; stroke-width: 0.8"/>
      </g>
     </g>
     <g id="text_4">
      <!-- −15 -->
      <g transform="translate(-10.104688 192.799219)scale(0.1 -0.1)">
       <defs>
        <path id="DejaVuSans-35" d="M 691 4666 
L 3169 4666 
L 3169 4134 
L 1269 4134 
L 1269 2991 
Q 1406 3038 1543 3061 
Q 1681 3084 1819 3084 
Q 2600 3084 3056 2656 
Q 3513 2228 3513 1497 
Q 3513 744 3044 326 
Q 2575 -91 1722 -91 
Q 1428 -91 1123 -41 
Q 819 9 494 109 
L 494 744 
Q 775 591 1075 516 
Q 1375 441 1709 441 
Q 2250 441 2565 725 
Q 2881 1009 2881 1497 
Q 2881 1984 2565 2268 
Q 2250 2553 1709 2553 
Q 1456 2553 1204 2497 
Q 953 2441 691 2322 
L 691 4666 
z
" transform="scale(0.015625)"/>
       </defs>
       <use xlink:href="#DejaVuSans-2212"/>
       <use xlink:href="#DejaVuSans-31" x="83.789062"/>
       <use xlink:href="#DejaVuSans-35" x="147.412109"/>
      </g>
     </g>
    </g>
    <g id="ytick_2">
     <g id="line2d_5">
      <g>
       <use xlink:href="#m9bd67108eb" x="18" y="161.82" style="stroke: #000000; stroke-width: 0.8"/>
      </g>
     </g>
     <g id="text_5">
      <!-- −10 -->
      <g transform="translate(-10.104688 165.619219)scale(0.1 -0.1)">
       <use xlink:href="#DejaVuSans-2212"/>
       <use xlink:href="#DejaVuSans-31" x="83.789062"/>
       <use xlink:href="#DejaVuSans-30" x="147.412109"/>
      </g>
     </g>
    </g>
    <g id="ytick_3">
     <g id="line2d_6">
      <g>
       <use xlink:href="#m9bd67108eb" x="18" y="134.64" style="stroke: #000000; stroke-width: 0.8"/>
      </g>
     </g>
     <g id="text_6">
      <!-- −5 -->
      <g transform="translate(-3.742188 138.439219)scale(0.1 -0.1)">
       <use xlink:href="#DejaVuSans-2212"/>
       <use xlink:href="#DejaVuSans-35" x="83.789062"/>
      </g>
     </g>
    </g>
    <g id="ytick_4">
     <g id="line2d_7">
      <g>
       <use xlink:href="#m9bd67108eb" x="18" y="107.46" style="stroke: #000000; stroke-width: 0.8"/>
      </g>
     </g>
     <g id="text_7">
      <!-- 0 -->
      <g transform="translate(4.6375 111.259219)scale(0.1 -0.1)">
       <use xlink:href="#DejaVuSans-30"/>
      </g>
     </g>
    </g>
    <g id="ytick_5">
     <g id="line2d_8">
      <g>
       <use xlink:href="#m9bd67108eb" x="18" y="80.28" style="stroke: #000000; stroke-width: 0.8"/>
      </g>
     </g>
     <g id="text_8">
      <!-- 5 -->
      <g transform="translate(4.6375 84.079219)scale(0.1 -0.1)">
       <use xlink:href="#DejaVuSans-35"/>
      </g>
     </g>
    </g>
    <g id="ytick_6">
     <g id="line2d_9">
      <g>
       <use xlink:href="#m9bd67108eb" x="18" y="53.1" style="stroke: #000000; stroke-width: 0.8"/>
      </g>
     </g>
     <g id="text_9">
      <!-- 10 -->
      <g transform="translate(-1.725 56.899219)scale(0.1 -0.1)">
       <use xlink:href="#DejaVuSans-31"/>
       <use xlink:href="#DejaVuSans-30" x="63.623047"/>
      </g>
     </g>
    </g>
    <g id="ytick_7">
     <g id="line2d_10">
      <g>
       <use xlink:href="#m9bd67108eb" x="18" y="25.92" style="stroke: #000000; stroke-width: 0.8"/>
      </g>
     </g>
     <g id="text_10">
      <!-- 15 -->
      <g transform="translate(-1.725 29.719219)scale(0.1 -0.1)">
       <use xlink:href="#DejaVuSans-31"/>
       <use xlink:href="#DejaVuSans-35" x="63.623047"/>
      </g>
     </g>
    </g>
   </g>
   <g id="patch_3">
    <path d="M 18 189 
L 18 25.92 
" style="fill: none; stroke: #000000; stroke-width: 0.8; stroke-linejoin: miter; stroke-linecap: square"/>
   </g>
   <g id="patch_4">
    <path d="M 129.6 189 
L 129.6 25.92 
" style="fill: none; stroke: #000000; stroke-width: 0.8; stroke-linejoin: miter; stroke-linecap: square"/>
   </g>
   <g id="patch_5">
    <path d="M 18 189 
L 129.6 189 
" style="fill: none; stroke: #000000; stroke-width: 0.8; stroke-linejoin: miter; stroke-linecap: square"/>
   </g>
   <g id="patch_6">
    <path d="M 18 25.92 
L 129.6 25.92 
" style="fill: none; stroke: #000000; stroke-width: 0.8; stroke-linejoin: miter; stroke-linecap: square"/>
   </g>
  </g>
 </g>
 <defs>
  <clipPath id="p4df01c1484">
   <rect x="18" y="25.92" width="111.6" height="163.08"/>
  </clipPath>
 </defs>
</svg>
