<?xml version="1.0" encoding="utf-8" standalone="no"?>
<!DOCTYPE svg PUBLIC "-//W3C//DTD SVG 1.1//EN"
  "http://www.w3.org/Graphics/SVG/1.1/DTD/svg11.dtd">
<svg xmlns:xlink="http://www.w3.org/1999/xlink" width="144pt" height="216pt" viewBox="0 0 144 216" xmlns="http://www.w3.org/2000/svg" version="1.1">
 <metadata>
  <rdf:RDF xmlns:dc="http://purl.org/dc/elements/1.1/" xmlns:cc="http://creativecommons.org/ns#" xmlns:rdf="http://www.w3.org/1999/02/22-rdf-syntax-ns#">
   <cc:Work>
    <dc:type rdf:resource="http://purl.org/dc/dcmitype/StillImage"/>
    <dc:date>2022-06-23T14:45:18.729644</dc:date>
    <dc:format>image/svg+xml</dc:format>
    <dc:creator>
     <cc:Agent>
      <dc:title>Matplotlib v3.5.1, https://matplotlib.org/</dc:title>
     </cc:Agent>
    </dc:creator>
   </cc:Work>
  </rdf:RDF>
 </metadata>
 <defs>
  <style type="text/css">*{stroke-linejoin: round; stroke-linecap: butt}</style>
 </defs>
 <g id="figure_1">
  <g id="patch_1">
   <path d="M 0 216 
L 144 216 
L 144 0 
L 0 0 
L 0 216 
z
" style="fill: none"/>
  </g>
  <g id="axes_1">
   <g id="patch_2">
    <path d="M 18 189 
L 129.6 189 
L 129.6 25.92 
L 18 25.92 
z
" style="fill: #ffffff"/>
   </g>
   <g id="PathCollection_1">
    <defs>
     <path id="mfc9a7f9ae1" d="M 0 2.738613 
C 0.726289 2.738613 1.422928 2.450055 1.936492 1.936492 
C 2.450055 1.422928 2.738613 0.726289 2.738613 0 
C 2.738613 -0.726289 2.450055 -1.422928 1.936492 -1.936492 
C 1.422928 -2.450055 0.726289 -2.738613 0 -2.738613 
C -0.726289 -2.738613 -1.422928 -2.450055 -1.936492 -1.936492 
C -2.450055 -1.422928 -2.738613 -0.726289 -2.738613 0 
C -2.738613 0.726289 -2.450055 1.422928 -1.936492 1.936492 
C -1.422928 2.450055 -0.726289 2.738613 0 2.738613 
z
" style="stroke: #ff0000; stroke-width: 1.75"/>
    </defs>
    <g clip-path="url(#p85de4de88d)">
     <use xlink:href="#mfc9a7f9ae1" x="66.825" y="83.92143" style="fill: #ff0000; stroke: #ff0000; stroke-width: 1.75"/>
     <use xlink:href="#mfc9a7f9ae1" x="87.75" y="95.690715" style="fill: #ff0000; stroke: #ff0000; stroke-width: 1.75"/>
     <use xlink:href="#mfc9a7f9ae1" x="66.825" y="107.46" style="fill: #ff0000; stroke: #ff0000; stroke-width: 1.75"/>
     <use xlink:href="#mfc9a7f9ae1" x="73.8" y="119.229285" style="fill: #ff0000; stroke: #ff0000; stroke-width: 1.75"/>
     <use xlink:href="#mfc9a7f9ae1" x="87.75" y="119.229285" style="fill: #ff0000; stroke: #ff0000; stroke-width: 1.75"/>
     <use xlink:href="#mfc9a7f9ae1" x="66.825" y="130.99857" style="fill: #ff0000; stroke: #ff0000; stroke-width: 1.75"/>
     <use xlink:href="#mfc9a7f9ae1" x="80.775" y="130.99857" style="fill: #ff0000; stroke: #ff0000; stroke-width: 1.75"/>
    </g>
   </g>
   <g id="PathCollection_2">
    <defs>
     <path id="C0_0_e96f640454" d="M 0 2.738613 
C 0.726289 2.738613 1.422928 2.450055 1.936492 1.936492 
C 2.450055 1.422928 2.738613 0.726289 2.738613 -0 
C 2.738613 -0.726289 2.450055 -1.422928 1.936492 -1.936492 
C 1.422928 -2.450055 0.726289 -2.738613 0 -2.738613 
C -0.726289 -2.738613 -1.422928 -2.450055 -1.936492 -1.936492 
C -2.450055 -1.422928 -2.738613 -0.726289 -2.738613 0 
C -2.738613 0.726289 -2.450055 1.422928 -1.936492 1.936492 
C -1.422928 2.450055 -0.726289 2.738613 0 2.738613 
z
"/>
    </defs>
    <g clip-path="url(#p85de4de88d)">
     <use xlink:href="#C0_0_e96f640454" x="80.775" y="83.92143" style="fill: none; stroke: #ff0000; stroke-width: 1.75"/>
    </g>
    <g clip-path="url(#p85de4de88d)">
     <use xlink:href="#C0_0_e96f640454" x="59.85" y="95.690715" style="fill: none; stroke: #ff0000; stroke-width: 1.75"/>
    </g>
    <g clip-path="url(#p85de4de88d)">
     <use xlink:href="#C0_0_e96f640454" x="73.8" y="95.690715" style="fill: none; stroke: #ff0000; stroke-width: 1.75"/>
    </g>
    <g clip-path="url(#p85de4de88d)">
     <use xlink:href="#C0_0_e96f640454" x="52.875" y="107.46" style="fill: none; stroke: #ff0000; stroke-width: 1.75"/>
    </g>
    <g clip-path="url(#p85de4de88d)">
     <use xlink:href="#C0_0_e96f640454" x="80.775" y="107.46" style="fill: none; stroke: #ff0000; stroke-width: 1.75"/>
    </g>
    <g clip-path="url(#p85de4de88d)">
     <use xlink:href="#C0_0_e96f640454" x="94.725" y="107.46" style="fill: none; stroke: #ff0000; stroke-width: 1.75"/>
    </g>
    <g clip-path="url(#p85de4de88d)">
     <use xlink:href="#C0_0_e96f640454" x="59.85" y="119.229285" style="fill: none; stroke: #ff0000; stroke-width: 1.75"/>
    </g>
   </g>
   <g id="PathCollection_3">
    <path d="M 98.317695 75.61948 
C 98.450296 75.61948 98.577485 75.566797 98.671248 75.473033 
C 98.765011 75.37927 98.817695 75.252081 98.817695 75.11948 
C 98.817695 74.986878 98.765011 74.85969 98.671248 74.765926 
C 98.577485 74.672163 98.450296 74.61948 98.317695 74.61948 
C 98.185093 74.61948 98.057905 74.672163 97.964141 74.765926 
C 97.870378 74.85969 97.817695 74.986878 97.817695 75.11948 
C 97.817695 75.252081 97.870378 75.37927 97.964141 75.473033 
C 98.057905 75.566797 98.185093 75.61948 98.317695 75.61948 
z
" clip-path="url(#p85de4de88d)" style="stroke: #000000"/>
    <path d="M 114.802546 145.214381 
C 114.935147 145.214381 115.062336 145.161698 115.156099 145.067934 
C 115.249863 144.974171 115.302546 144.846983 115.302546 144.714381 
C 115.302546 144.58178 115.249863 144.454591 115.156099 144.360828 
C 115.062336 144.267064 114.935147 144.214381 114.802546 144.214381 
C 114.669944 144.214381 114.542756 144.267064 114.448992 144.360828 
C 114.355229 144.454591 114.302546 144.58178 114.302546 144.714381 
C 114.302546 144.846983 114.355229 144.974171 114.448992 145.067934 
C 114.542756 145.161698 114.669944 145.214381 114.802546 145.214381 
z
" clip-path="url(#p85de4de88d)" style="stroke: #000000"/>
    <path d="M 105.286534 107.573126 
C 105.444224 107.573126 105.595478 107.510474 105.706982 107.39897 
C 105.818486 107.287466 105.881137 107.136213 105.881137 106.978522 
C 105.881137 106.820831 105.818486 106.669578 105.706982 106.558074 
C 105.595478 106.44657 105.444224 106.383918 105.286534 106.383918 
C 105.128843 106.383918 104.977589 106.44657 104.866085 106.558074 
C 104.754581 106.669578 104.69193 106.820831 104.69193 106.978522 
C 104.69193 107.136213 104.754581 107.287466 104.866085 107.39897 
C 104.977589 107.510474 105.128843 107.573126 105.286534 107.573126 
z
" clip-path="url(#p85de4de88d)" style="stroke: #000000"/>
    <path d="M 97.571851 100.850562 
C 97.729542 100.850562 97.880795 100.787911 97.9923 100.676407 
C 98.103804 100.564902 98.166455 100.413649 98.166455 100.255958 
C 98.166455 100.098268 98.103804 99.947014 97.9923 99.83551 
C 97.880795 99.724006 97.729542 99.661355 97.571851 99.661355 
C 97.414161 99.661355 97.262907 99.724006 97.151403 99.83551 
C 97.039899 99.947014 96.977248 100.098268 96.977248 100.255958 
C 96.977248 100.413649 97.039899 100.564902 97.151403 100.676407 
C 97.262907 100.787911 97.414161 100.850562 97.571851 100.850562 
z
" clip-path="url(#p85de4de88d)" style="stroke: #000000"/>
    <path d="M 97.161736 111.856312 
C 97.743694 111.856312 98.301896 111.625097 98.713403 111.21359 
C 99.124909 110.802083 99.356124 110.243882 99.356124 109.661923 
C 99.356124 109.079965 99.124909 108.521763 98.713403 108.110257 
C 98.301896 107.69875 97.743694 107.467535 97.161736 107.467535 
C 96.579777 107.467535 96.021576 107.69875 95.610069 108.110257 
C 95.198562 108.521763 94.967347 109.079965 94.967347 109.661923 
C 94.967347 110.243882 95.198562 110.802083 95.610069 111.21359 
C 96.021576 111.625097 96.579777 111.856312 97.161736 111.856312 
z
" clip-path="url(#p85de4de88d)" style="stroke: #000000"/>
    <path d="M 94.105186 109.750051 
C 94.491448 109.750051 94.861941 109.596587 95.13507 109.323459 
C 95.408198 109.05033 95.561661 108.679837 95.561661 108.293575 
C 95.561661 107.907313 95.408198 107.53682 95.13507 107.263692 
C 94.861941 106.990563 94.491448 106.8371 94.105186 106.8371 
C 93.718924 106.8371 93.348431 106.990563 93.075302 107.263692 
C 92.802174 107.53682 92.648711 107.907313 92.648711 108.293575 
C 92.648711 108.679837 92.802174 109.05033 93.075302 109.323459 
C 93.348431 109.596587 93.718924 109.750051 94.105186 109.750051 
z
" clip-path="url(#p85de4de88d)" style="stroke: #000000"/>
    <path d="M 90.081174 98.628283 
C 90.491847 98.628283 90.885754 98.465121 91.176144 98.174731 
C 91.466533 97.884342 91.629695 97.490435 91.629695 97.079762 
C 91.629695 96.66909 91.466533 96.275182 91.176144 95.984793 
C 90.885754 95.694404 90.491847 95.531242 90.081174 95.531242 
C 89.670502 95.531242 89.276594 95.694404 88.986205 95.984793 
C 88.695816 96.275182 88.532654 96.66909 88.532654 97.079762 
C 88.532654 97.490435 88.695816 97.884342 88.986205 98.174731 
C 89.276594 98.465121 89.670502 98.628283 90.081174 98.628283 
z
" clip-path="url(#p85de4de88d)" style="stroke: #000000"/>
    <path d="M 85.660089 86.53861 
C 85.906888 86.53861 86.143612 86.440555 86.318126 86.266042 
C 86.492639 86.091528 86.590693 85.854804 86.590693 85.608005 
C 86.590693 85.361206 86.492639 85.124481 86.318126 84.949968 
C 86.143612 84.775454 85.906888 84.6774 85.660089 84.6774 
C 85.413289 84.6774 85.176565 84.775454 85.002052 84.949968 
C 84.827538 85.124481 84.729484 85.361206 84.729484 85.608005 
C 84.729484 85.854804 84.827538 86.091528 85.002052 86.266042 
C 85.176565 86.440555 85.413289 86.53861 85.660089 86.53861 
z
" clip-path="url(#p85de4de88d)" style="stroke: #000000"/>
    <path d="M 92.390253 120.122438 
C 92.70807 120.122438 93.012913 119.996168 93.237643 119.771438 
C 93.462374 119.546707 93.588644 119.241864 93.588644 118.924047 
C 93.588644 118.60623 93.462374 118.301388 93.237643 118.076657 
C 93.012913 117.851927 92.70807 117.725656 92.390253 117.725656 
C 92.072436 117.725656 91.767593 117.851927 91.542863 118.076657 
C 91.318132 118.301388 91.191862 118.60623 91.191862 118.924047 
C 91.191862 119.241864 91.318132 119.546707 91.542863 119.771438 
C 91.767593 119.996168 92.072436 120.122438 92.390253 120.122438 
z
" clip-path="url(#p85de4de88d)" style="stroke: #000000"/>
    <path d="M 93.592643 114.41695 
C 93.955383 114.41695 94.303315 114.272832 94.559811 114.016336 
C 94.816307 113.75984 94.960425 113.411908 94.960425 113.049168 
C 94.960425 112.686427 94.816307 112.338495 94.559811 112.081999 
C 94.303315 111.825503 93.955383 111.681385 93.592643 111.681385 
C 93.229903 111.681385 92.881971 111.825503 92.625475 112.081999 
C 92.368979 112.338495 92.224861 112.686427 92.224861 113.049168 
C 92.224861 113.411908 92.368979 113.75984 92.625475 114.016336 
C 92.881971 114.272832 93.229903 114.41695 93.592643 114.41695 
z
" clip-path="url(#p85de4de88d)" style="stroke: #000000"/>
    <path d="M 88.559372 102.678114 
C 88.757658 102.678114 88.947849 102.599334 89.088058 102.459125 
C 89.228267 102.318916 89.307046 102.128725 89.307046 101.930439 
C 89.307046 101.732154 89.228267 101.541963 89.088058 101.401754 
C 88.947849 101.261545 88.757658 101.182765 88.559372 101.182765 
C 88.361086 101.182765 88.170895 101.261545 88.030686 101.401754 
C 87.890477 101.541963 87.811698 101.732154 87.811698 101.930439 
C 87.811698 102.128725 87.890477 102.318916 88.030686 102.459125 
C 88.170895 102.599334 88.361086 102.678114 88.559372 102.678114 
z
" clip-path="url(#p85de4de88d)" style="stroke: #000000"/>
    <path d="M 83.9099 88.757509 
C 84.37004 88.757509 84.811397 88.574693 85.136765 88.249324 
C 85.462134 87.923956 85.64495 87.482599 85.64495 87.022459 
C 85.64495 86.562318 85.462134 86.120962 85.136765 85.795593 
C 84.811397 85.470224 84.37004 85.287409 83.9099 85.287409 
C 83.449759 85.287409 83.008403 85.470224 82.683034 85.795593 
C 82.357665 86.120962 82.17485 86.562318 82.17485 87.022459 
C 82.17485 87.482599 82.357665 87.923956 82.683034 88.249324 
C 83.008403 88.574693 83.449759 88.757509 83.9099 88.757509 
z
" clip-path="url(#p85de4de88d)" style="stroke: #000000"/>
    <path d="M 88.539853 119.781254 
C 88.672454 119.781254 88.799643 119.728571 88.893406 119.634808 
C 88.98717 119.541044 89.039853 119.413856 89.039853 119.281254 
C 89.039853 119.148653 88.98717 119.021464 88.893406 118.927701 
C 88.799643 118.833937 88.672454 118.781254 88.539853 118.781254 
C 88.407251 118.781254 88.280063 118.833937 88.186299 118.927701 
C 88.092536 119.021464 88.039853 119.148653 88.039853 119.281254 
C 88.039853 119.413856 88.092536 119.541044 88.186299 119.634808 
C 88.280063 119.728571 88.407251 119.781254 88.539853 119.781254 
z
" clip-path="url(#p85de4de88d)" style="stroke: #000000"/>
    <path d="M 88.272579 116.777087 
C 88.64909 116.777087 89.01023 116.627498 89.276463 116.361265 
C 89.542696 116.095032 89.692285 115.733892 89.692285 115.357382 
C 89.692285 114.980871 89.542696 114.619731 89.276463 114.353498 
C 89.01023 114.087265 88.64909 113.937676 88.272579 113.937676 
C 87.896069 113.937676 87.534929 114.087265 87.268696 114.353498 
C 87.002463 114.619731 86.852874 114.980871 86.852874 115.357382 
C 86.852874 115.733892 87.002463 116.095032 87.268696 116.361265 
C 87.534929 116.627498 87.896069 116.777087 88.272579 116.777087 
z
" clip-path="url(#p85de4de88d)" style="stroke: #000000"/>
    <path d="M 83.880597 107.874143 
C 84.447045 107.874143 84.990368 107.649091 85.390907 107.248552 
C 85.791446 106.848013 86.016498 106.304689 86.016498 105.738242 
C 86.016498 105.171795 85.791446 104.628471 85.390907 104.227932 
C 84.990368 103.827393 84.447045 103.602341 83.880597 103.602341 
C 83.31415 103.602341 82.770826 103.827393 82.370287 104.227932 
C 81.969748 104.628471 81.744697 105.171795 81.744697 105.738242 
C 81.744697 106.304689 81.969748 106.848013 82.370287 107.248552 
C 82.770826 107.649091 83.31415 107.874143 83.880597 107.874143 
z
" clip-path="url(#p85de4de88d)" style="stroke: #000000"/>
    <path d="M 79.383954 92.049872 
C 79.541645 92.049872 79.692898 91.98722 79.804402 91.875716 
C 79.915906 91.764212 79.978557 91.612959 79.978557 91.455268 
C 79.978557 91.297577 79.915906 91.146324 79.804402 91.03482 
C 79.692898 90.923316 79.541645 90.860664 79.383954 90.860664 
C 79.226263 90.860664 79.07501 90.923316 78.963506 91.03482 
C 78.852002 91.146324 78.78935 91.297577 78.78935 91.455268 
C 78.78935 91.612959 78.852002 91.764212 78.963506 91.875716 
C 79.07501 91.98722 79.226263 92.049872 79.383954 92.049872 
z
" clip-path="url(#p85de4de88d)" style="stroke: #000000"/>
    <path d="M 85.970947 119.60603 
C 86.310506 119.60603 86.636204 119.471122 86.876309 119.231017 
C 87.116413 118.990912 87.251322 118.665215 87.251322 118.325655 
C 87.251322 117.986096 87.116413 117.660398 86.876309 117.420294 
C 86.636204 117.180189 86.310506 117.045281 85.970947 117.045281 
C 85.631387 117.045281 85.30569 117.180189 85.065585 117.420294 
C 84.82548 117.660398 84.690572 117.986096 84.690572 118.325655 
C 84.690572 118.665215 84.82548 118.990912 85.065585 119.231017 
C 85.30569 119.471122 85.631387 119.60603 85.970947 119.60603 
z
" clip-path="url(#p85de4de88d)" style="stroke: #000000"/>
    <path d="M 83.676369 115.97107 
C 83.863896 115.97107 84.043768 115.896565 84.176369 115.763963 
C 84.308971 115.631361 84.383476 115.45149 84.383476 115.263963 
C 84.383476 115.076436 84.308971 114.896565 84.176369 114.763963 
C 84.043768 114.631361 83.863896 114.556856 83.676369 114.556856 
C 83.488842 114.556856 83.308971 114.631361 83.176369 114.763963 
C 83.043768 114.896565 82.969263 115.076436 82.969263 115.263963 
C 82.969263 115.45149 83.043768 115.631361 83.176369 115.763963 
C 83.308971 115.896565 83.488842 115.97107 83.676369 115.97107 
z
" clip-path="url(#p85de4de88d)" style="stroke: #000000"/>
    <path d="M 80.210445 109.148139 
C 80.692735 109.148139 81.155336 108.956523 81.496366 108.615493 
C 81.837397 108.274462 82.029013 107.811861 82.029013 107.329571 
C 82.029013 106.847281 81.837397 106.38468 81.496366 106.043649 
C 81.155336 105.702619 80.692735 105.511003 80.210445 105.511003 
C 79.728155 105.511003 79.265554 105.702619 78.924523 106.043649 
C 78.583493 106.38468 78.391877 106.847281 78.391877 107.329571 
C 78.391877 107.811861 78.583493 108.274462 78.924523 108.615493 
C 79.265554 108.956523 79.728155 109.148139 80.210445 109.148139 
z
" clip-path="url(#p85de4de88d)" style="stroke: #000000"/>
    <path d="M 75.139463 95.837995 
C 75.70291 95.837995 76.243355 95.614135 76.641772 95.215718 
C 77.040189 94.817301 77.264049 94.276856 77.264049 93.713409 
C 77.264049 93.149962 77.040189 92.609517 76.641772 92.211099 
C 76.243355 91.812682 75.70291 91.588822 75.139463 91.588822 
C 74.576016 91.588822 74.03557 91.812682 73.637153 92.211099 
C 73.238736 92.609517 73.014876 93.149962 73.014876 93.713409 
C 73.014876 94.276856 73.238736 94.817301 73.637153 95.215718 
C 74.03557 95.614135 74.576016 95.837995 75.139463 95.837995 
z
" clip-path="url(#p85de4de88d)" style="stroke: #000000"/>
    <path d="M 72.723927 87.214367 
C 73.100437 87.214367 73.461577 87.064778 73.72781 86.798545 
C 73.994043 86.532312 74.143633 86.171172 74.143633 85.794662 
C 74.143633 85.418151 73.994043 85.057011 73.72781 84.790778 
C 73.461577 84.524545 73.100437 84.374956 72.723927 84.374956 
C 72.347416 84.374956 71.986276 84.524545 71.720043 84.790778 
C 71.45381 85.057011 71.304221 85.418151 71.304221 85.794662 
C 71.304221 86.171172 71.45381 86.532312 71.720043 86.798545 
C 71.986276 87.064778 72.347416 87.214367 72.723927 87.214367 
z
" clip-path="url(#p85de4de88d)" style="stroke: #000000"/>
    <path d="M 84.045461 134.658722 
C 84.275134 134.658722 84.495431 134.567472 84.657834 134.405069 
C 84.820237 134.242666 84.911487 134.022369 84.911487 133.792697 
C 84.911487 133.563024 84.820237 133.342727 84.657834 133.180324 
C 84.495431 133.017921 84.275134 132.926671 84.045461 132.926671 
C 83.815789 132.926671 83.595492 133.017921 83.433089 133.180324 
C 83.270686 133.342727 83.179436 133.563024 83.179436 133.792697 
C 83.179436 134.022369 83.270686 134.242666 83.433089 134.405069 
C 83.595492 134.567472 83.815789 134.658722 84.045461 134.658722 
z
" clip-path="url(#p85de4de88d)" style="stroke: #000000"/>
    <path d="M 83.563194 131.90305 
C 83.938248 131.90305 84.297991 131.754039 84.563194 131.488836 
C 84.828398 131.223633 84.977408 130.86389 84.977408 130.488836 
C 84.977408 130.113782 84.828398 129.754039 84.563194 129.488836 
C 84.297991 129.223633 83.938248 129.074622 83.563194 129.074622 
C 83.188141 129.074622 82.828398 129.223633 82.563194 129.488836 
C 82.297991 129.754039 82.148981 130.113782 82.148981 130.488836 
C 82.148981 130.86389 82.297991 131.223633 82.563194 131.488836 
C 82.828398 131.754039 83.188141 131.90305 83.563194 131.90305 
z
" clip-path="url(#p85de4de88d)" style="stroke: #000000"/>
    <path d="M 75.045653 108.266202 
C 75.178254 108.266202 75.305442 108.213519 75.399206 108.119756 
C 75.492969 108.025992 75.545653 107.898804 75.545653 107.766202 
C 75.545653 107.633601 75.492969 107.506412 75.399206 107.412649 
C 75.305442 107.318885 75.178254 107.266202 75.045653 107.266202 
C 74.913051 107.266202 74.785863 107.318885 74.692099 107.412649 
C 74.598336 107.506412 74.545653 107.633601 74.545653 107.766202 
C 74.545653 107.898804 74.598336 108.025992 74.692099 108.119756 
C 74.785863 108.213519 74.913051 108.266202 75.045653 108.266202 
z
" clip-path="url(#p85de4de88d)" style="stroke: #000000"/>
    <path d="M 74.634413 98.963465 
C 74.792103 98.963465 74.943357 98.900813 75.054861 98.789309 
C 75.166365 98.677805 75.229016 98.526552 75.229016 98.368861 
C 75.229016 98.21117 75.166365 98.059917 75.054861 97.948413 
C 74.943357 97.836909 74.792103 97.774257 74.634413 97.774257 
C 74.476722 97.774257 74.325469 97.836909 74.213964 97.948413 
C 74.10246 98.059917 74.039809 98.21117 74.039809 98.368861 
C 74.039809 98.526552 74.10246 98.677805 74.213964 98.789309 
C 74.325469 98.900813 74.476722 98.963465 74.634413 98.963465 
z
" clip-path="url(#p85de4de88d)" style="stroke: #000000"/>
    <path d="M 72.099254 95.329248 
C 72.608775 95.329248 73.097497 95.126813 73.457783 94.766527 
C 73.81807 94.40624 74.020505 93.917519 74.020505 93.407997 
C 74.020505 92.898475 73.81807 92.409753 73.457783 92.049467 
C 73.097497 91.689181 72.608775 91.486746 72.099254 91.486746 
C 71.589732 91.486746 71.10101 91.689181 70.740724 92.049467 
C 70.380438 92.409753 70.178003 92.898475 70.178003 93.407997 
C 70.178003 93.917519 70.380438 94.40624 70.740724 94.766527 
C 71.10101 95.126813 71.589732 95.329248 72.099254 95.329248 
z
" clip-path="url(#p85de4de88d)" style="stroke: #000000"/>
    <path d="M 67.590059 89.037118 
C 68.075757 89.037118 68.541628 88.844148 68.885069 88.500707 
C 69.228509 88.157267 69.421479 87.691396 69.421479 87.205697 
C 69.421479 86.719999 69.228509 86.254128 68.885069 85.910687 
C 68.541628 85.567247 68.075757 85.374277 67.590059 85.374277 
C 67.10436 85.374277 66.638489 85.567247 66.295049 85.910687 
C 65.951608 86.254128 65.758638 86.719999 65.758638 87.205697 
C 65.758638 87.691396 65.951608 88.157267 66.295049 88.500707 
C 66.638489 88.844148 67.10436 89.037118 67.590059 89.037118 
z
" clip-path="url(#p85de4de88d)" style="stroke: #000000"/>
    <path d="M 65.948755 86.667148 
C 66.410474 86.667148 66.853344 86.483705 67.179829 86.15722 
C 67.506314 85.830735 67.689757 85.387865 67.689757 84.926146 
C 67.689757 84.464426 67.506314 84.021556 67.179829 83.695071 
C 66.853344 83.368586 66.410474 83.185143 65.948755 83.185143 
C 65.487035 83.185143 65.044165 83.368586 64.71768 83.695071 
C 64.391195 84.021556 64.207752 84.464426 64.207752 84.926146 
C 64.207752 85.387865 64.391195 85.830735 64.71768 86.15722 
C 65.044165 86.483705 65.487035 86.667148 65.948755 86.667148 
z
" clip-path="url(#p85de4de88d)" style="stroke: #000000"/>
    <path d="M 80.700023 136.152708 
C 80.946823 136.152708 81.183547 136.054654 81.35806 135.88014 
C 81.532574 135.705627 81.630628 135.468903 81.630628 135.222103 
C 81.630628 134.975304 81.532574 134.73858 81.35806 134.564066 
C 81.183547 134.389553 80.946823 134.291498 80.700023 134.291498 
C 80.453224 134.291498 80.2165 134.389553 80.041986 134.564066 
C 79.867473 134.73858 79.769418 134.975304 79.769418 135.222103 
C 79.769418 135.468903 79.867473 135.705627 80.041986 135.88014 
C 80.2165 136.054654 80.453224 136.152708 80.700023 136.152708 
z
" clip-path="url(#p85de4de88d)" style="stroke: #000000"/>
    <path d="M 80.414054 132.063717 
C 80.915804 132.063717 81.397071 131.86437 81.751861 131.509579 
C 82.106652 131.154788 82.305999 130.673522 82.305999 130.171772 
C 82.305999 129.670022 82.106652 129.188756 81.751861 128.833965 
C 81.397071 128.479174 80.915804 128.279827 80.414054 128.279827 
C 79.912305 128.279827 79.431038 128.479174 79.076247 128.833965 
C 78.721457 129.188756 78.52211 129.670022 78.52211 130.171772 
C 78.52211 130.673522 78.721457 131.154788 79.076247 131.509579 
C 79.431038 131.86437 79.912305 132.063717 80.414054 132.063717 
z
" clip-path="url(#p85de4de88d)" style="stroke: #000000"/>
    <path d="M 72.392261 115.455942 
C 72.639061 115.455942 72.875785 115.357887 73.050298 115.183374 
C 73.224812 115.00886 73.322866 114.772136 73.322866 114.525337 
C 73.322866 114.278537 73.224812 114.041813 73.050298 113.8673 
C 72.875785 113.692786 72.639061 113.594732 72.392261 113.594732 
C 72.145462 113.594732 71.908738 113.692786 71.734224 113.8673 
C 71.559711 114.041813 71.461656 114.278537 71.461656 114.525337 
C 71.461656 114.772136 71.559711 115.00886 71.734224 115.183374 
C 71.908738 115.357887 72.145462 115.455942 72.392261 115.455942 
z
" clip-path="url(#p85de4de88d)" style="stroke: #000000"/>
    <path d="M 68.575789 106.810159 
C 69.020932 106.810159 69.447903 106.633302 69.762667 106.318538 
C 70.077431 106.003775 70.254288 105.576804 70.254288 105.131661 
C 70.254288 104.686518 70.077431 104.259547 69.762667 103.944783 
C 69.447903 103.630019 69.020932 103.453162 68.575789 103.453162 
C 68.130646 103.453162 67.703675 103.630019 67.388912 103.944783 
C 67.074148 104.259547 66.897291 104.686518 66.897291 105.131661 
C 66.897291 105.576804 67.074148 106.003775 67.388912 106.318538 
C 67.703675 106.633302 68.130646 106.810159 68.575789 106.810159 
z
" clip-path="url(#p85de4de88d)" style="stroke: #000000"/>
    <path d="M 71.476046 124.784402 
C 71.608647 124.784402 71.735836 124.731719 71.829599 124.637956 
C 71.923363 124.544192 71.976046 124.417004 71.976046 124.284402 
C 71.976046 124.151801 71.923363 124.024612 71.829599 123.930849 
C 71.735836 123.837086 71.608647 123.784402 71.476046 123.784402 
C 71.343444 123.784402 71.216256 123.837086 71.122492 123.930849 
C 71.028729 124.024612 70.976046 124.151801 70.976046 124.284402 
C 70.976046 124.417004 71.028729 124.544192 71.122492 124.637956 
C 71.216256 124.731719 71.343444 124.784402 71.476046 124.784402 
z
" clip-path="url(#p85de4de88d)" style="stroke: #000000"/>
    <path d="M 69.341389 119.948948 
C 69.47399 119.948948 69.601178 119.896265 69.694942 119.802501 
C 69.788705 119.708738 69.841389 119.581549 69.841389 119.448948 
C 69.841389 119.316346 69.788705 119.189158 69.694942 119.095395 
C 69.601178 119.001631 69.47399 118.948948 69.341389 118.948948 
C 69.208787 118.948948 69.081599 119.001631 68.987835 119.095395 
C 68.894072 119.189158 68.841389 119.316346 68.841389 119.448948 
C 68.841389 119.581549 68.894072 119.708738 68.987835 119.802501 
C 69.081599 119.896265 69.208787 119.948948 69.341389 119.948948 
z
" clip-path="url(#p85de4de88d)" style="stroke: #000000"/>
    <path d="M 66.401929 112.290142 
C 66.833302 112.290142 67.247065 112.118756 67.552092 111.813729 
C 67.857119 111.508702 68.028506 111.094939 68.028506 110.663566 
C 68.028506 110.232193 67.857119 109.818429 67.552092 109.513402 
C 67.247065 109.208376 66.833302 109.036989 66.401929 109.036989 
C 65.970556 109.036989 65.556793 109.208376 65.251766 109.513402 
C 64.946739 109.818429 64.775352 110.232193 64.775352 110.663566 
C 64.775352 111.094939 64.946739 111.508702 65.251766 111.813729 
C 65.556793 112.118756 65.970556 112.290142 66.401929 112.290142 
z
" clip-path="url(#p85de4de88d)" style="stroke: #000000"/>
    <path d="M 64.90069 108.791916 
C 65.256771 108.791916 65.598316 108.650443 65.850104 108.398655 
C 66.101892 108.146868 66.243364 107.805322 66.243364 107.449241 
C 66.243364 107.093159 66.101892 106.751614 65.850104 106.499826 
C 65.598316 106.248039 65.256771 106.106566 64.90069 106.106566 
C 64.544608 106.106566 64.203063 106.248039 63.951275 106.499826 
C 63.699487 106.751614 63.558015 107.093159 63.558015 107.449241 
C 63.558015 107.805322 63.699487 108.146868 63.951275 108.398655 
C 64.203063 108.650443 64.544608 108.791916 64.90069 108.791916 
z
" clip-path="url(#p85de4de88d)" style="stroke: #000000"/>
    <path d="M 67.749584 131.96958 
C 67.991073 131.96958 68.222703 131.873636 68.393462 131.702878 
C 68.56422 131.532119 68.660164 131.300489 68.660164 131.059 
C 68.660164 130.817512 68.56422 130.585881 68.393462 130.415123 
C 68.222703 130.244365 67.991073 130.14842 67.749584 130.14842 
C 67.508096 130.14842 67.276465 130.244365 67.105707 130.415123 
C 66.934949 130.585881 66.839004 130.817512 66.839004 131.059 
C 66.839004 131.300489 66.934949 131.532119 67.105707 131.702878 
C 67.276465 131.873636 67.508096 131.96958 67.749584 131.96958 
z
" clip-path="url(#p85de4de88d)" style="stroke: #000000"/>
    <path d="M 67.515141 127.183579 
C 67.730827 127.183579 67.937709 127.097886 68.090222 126.945372 
C 68.242736 126.792859 68.328429 126.585977 68.328429 126.370291 
C 68.328429 126.154604 68.242736 125.947722 68.090222 125.795209 
C 67.937709 125.642696 67.730827 125.557002 67.515141 125.557002 
C 67.299454 125.557002 67.092572 125.642696 66.940059 125.795209 
C 66.787546 125.947722 66.701852 126.154604 66.701852 126.370291 
C 66.701852 126.585977 66.787546 126.792859 66.940059 126.945372 
C 67.092572 127.097886 67.299454 127.183579 67.515141 127.183579 
z
" clip-path="url(#p85de4de88d)" style="stroke: #000000"/>
    <path d="M 62.60315 130.738581 
C 63.079115 130.738581 63.535651 130.549478 63.872209 130.212919 
C 64.208768 129.876361 64.397871 129.419826 64.397871 128.94386 
C 64.397871 128.467894 64.208768 128.011359 63.872209 127.6748 
C 63.535651 127.338242 63.079115 127.149139 62.60315 127.149139 
C 62.127184 127.149139 61.670649 127.338242 61.33409 127.6748 
C 60.997531 128.011359 60.808428 128.467894 60.808428 128.94386 
C 60.808428 129.419826 60.997531 129.876361 61.33409 130.212919 
C 61.670649 130.549478 62.127184 130.738581 62.60315 130.738581 
z
" clip-path="url(#p85de4de88d)" style="stroke: #000000"/>
    <path d="M 59.564859 125.022799 
C 60.130026 125.022799 60.672122 124.798255 61.071755 124.398622 
C 61.471389 123.998988 61.695932 123.456892 61.695932 122.891725 
C 61.695932 122.326557 61.471389 121.784462 61.071755 121.384828 
C 60.672122 120.985194 60.130026 120.760651 59.564859 120.760651 
C 58.999691 120.760651 58.457595 120.985194 58.057962 121.384828 
C 57.658328 121.784462 57.433785 122.326557 57.433785 122.891725 
C 57.433785 123.456892 57.658328 123.998988 58.057962 124.398622 
C 58.457595 124.798255 58.999691 125.022799 59.564859 125.022799 
z
" clip-path="url(#p85de4de88d)" style="stroke: #000000"/>
    <path d="M 58.528714 120.36793 
C 58.906664 120.36793 59.269185 120.217768 59.536436 119.950517 
C 59.803687 119.683266 59.953849 119.320745 59.953849 118.942795 
C 59.953849 118.564844 59.803687 118.202323 59.536436 117.935072 
C 59.269185 117.667821 58.906664 117.51766 58.528714 117.51766 
C 58.150764 117.51766 57.788242 117.667821 57.520991 117.935072 
C 57.25374 118.202323 57.103579 118.564844 57.103579 118.942795 
C 57.103579 119.320745 57.25374 119.683266 57.520991 119.950517 
C 57.788242 120.217768 58.150764 120.36793 58.528714 120.36793 
z
" clip-path="url(#p85de4de88d)" style="stroke: #000000"/>
    <path d="M 52.92418 107.610249 
C 53.447721 107.610249 53.949889 107.402244 54.320088 107.032045 
C 54.690287 106.661846 54.898291 106.159678 54.898291 105.636138 
C 54.898291 105.112598 54.690287 104.61043 54.320088 104.240231 
C 53.949889 103.870032 53.447721 103.662027 52.92418 103.662027 
C 52.40064 103.662027 51.898472 103.870032 51.528273 104.240231 
C 51.158074 104.61043 50.950069 105.112598 50.950069 105.636138 
C 50.950069 106.159678 51.158074 106.661846 51.528273 107.032045 
C 51.898472 107.402244 52.40064 107.610249 52.92418 107.610249 
z
" clip-path="url(#p85de4de88d)" style="stroke: #000000"/>
    <path d="M 50.988768 110.281624 
C 51.322243 110.281624 51.642105 110.149133 51.877908 109.913331 
C 52.11371 109.677528 52.246201 109.357666 52.246201 109.024191 
C 52.246201 108.690716 52.11371 108.370854 51.877908 108.135051 
C 51.642105 107.899249 51.322243 107.766758 50.988768 107.766758 
C 50.655293 107.766758 50.335431 107.899249 50.099628 108.135051 
C 49.863826 108.370854 49.731335 108.690716 49.731335 109.024191 
C 49.731335 109.357666 49.863826 109.677528 50.099628 109.913331 
C 50.335431 110.149133 50.655293 110.281624 50.988768 110.281624 
z
" clip-path="url(#p85de4de88d)" style="stroke: #000000"/>
    <path d="M 47.507663 102.725072 
C 47.640264 102.725072 47.767452 102.672389 47.861216 102.578625 
C 47.954979 102.484862 48.007663 102.357674 48.007663 102.225072 
C 48.007663 102.09247 47.954979 101.965282 47.861216 101.871519 
C 47.767452 101.777755 47.640264 101.725072 47.507663 101.725072 
C 47.375061 101.725072 47.247873 101.777755 47.154109 101.871519 
C 47.060346 101.965282 47.007663 102.09247 47.007663 102.225072 
C 47.007663 102.357674 47.060346 102.484862 47.154109 102.578625 
C 47.247873 102.672389 47.375061 102.725072 47.507663 102.725072 
z
" clip-path="url(#p85de4de88d)" style="stroke: #000000"/>
    <path d="M 43.970657 100.227298 
C 44.103258 100.227298 44.230447 100.174615 44.32421 100.080852 
C 44.417974 99.987088 44.470657 99.8599 44.470657 99.727298 
C 44.470657 99.594697 44.417974 99.467508 44.32421 99.373745 
C 44.230447 99.279981 44.103258 99.227298 43.970657 99.227298 
C 43.838055 99.227298 43.710867 99.279981 43.617103 99.373745 
C 43.52334 99.467508 43.470657 99.594697 43.470657 99.727298 
C 43.470657 99.8599 43.52334 99.987088 43.617103 100.080852 
C 43.710867 100.174615 43.838055 100.227298 43.970657 100.227298 
z
" clip-path="url(#p85de4de88d)" style="stroke: #000000"/>
   </g>
   <g id="matplotlib.axis_1">
    <g id="xtick_1">
     <g id="line2d_1">
      <defs>
       <path id="m947df82af4" d="M 0 0 
L 0 3.5 
" style="stroke: #000000; stroke-width: 0.8"/>
      </defs>
      <g>
       <use xlink:href="#m947df82af4" x="18" y="189" style="stroke: #000000; stroke-width: 0.8"/>
      </g>
     </g>
     <g id="text_1">
      <!-- −10 -->
      <g transform="translate(7.447656 203.598437)scale(0.1 -0.1)">
       <defs>
        <path id="DejaVuSans-2212" d="M 678 2272 
L 4684 2272 
L 4684 1741 
L 678 1741 
L 678 2272 
z
" transform="scale(0.015625)"/>
        <path id="DejaVuSans-31" d="M 794 531 
L 1825 531 
L 1825 4091 
L 703 3866 
L 703 4441 
L 1819 4666 
L 2450 4666 
L 2450 531 
L 3481 531 
L 3481 0 
L 794 0 
L 794 531 
z
" transform="scale(0.015625)"/>
        <path id="DejaVuSans-30" d="M 2034 4250 
Q 1547 4250 1301 3770 
Q 1056 3291 1056 2328 
Q 1056 1369 1301 889 
Q 1547 409 2034 409 
Q 2525 409 2770 889 
Q 3016 1369 3016 2328 
Q 3016 3291 2770 3770 
Q 2525 4250 2034 4250 
z
M 2034 4750 
Q 2819 4750 3233 4129 
Q 3647 3509 3647 2328 
Q 3647 1150 3233 529 
Q 2819 -91 2034 -91 
Q 1250 -91 836 529 
Q 422 1150 422 2328 
Q 422 3509 836 4129 
Q 1250 4750 2034 4750 
z
" transform="scale(0.015625)"/>
       </defs>
       <use xlink:href="#DejaVuSans-2212"/>
       <use xlink:href="#DejaVuSans-31" x="83.789062"/>
       <use xlink:href="#DejaVuSans-30" x="147.412109"/>
      </g>
     </g>
    </g>
    <g id="xtick_2">
     <g id="line2d_2">
      <g>
       <use xlink:href="#m947df82af4" x="73.8" y="189" style="stroke: #000000; stroke-width: 0.8"/>
      </g>
     </g>
     <g id="text_2">
      <!-- 0 -->
      <g transform="translate(70.61875 203.598437)scale(0.1 -0.1)">
       <use xlink:href="#DejaVuSans-30"/>
      </g>
     </g>
    </g>
    <g id="xtick_3">
     <g id="line2d_3">
      <g>
       <use xlink:href="#m947df82af4" x="129.6" y="189" style="stroke: #000000; stroke-width: 0.8"/>
      </g>
     </g>
     <g id="text_3">
      <!-- 10 -->
      <g transform="translate(123.2375 203.598437)scale(0.1 -0.1)">
       <use xlink:href="#DejaVuSans-31"/>
       <use xlink:href="#DejaVuSans-30" x="63.623047"/>
      </g>
     </g>
    </g>
   </g>
   <g id="matplotlib.axis_2">
    <g id="ytick_1">
     <g id="line2d_4">
      <defs>
       <path id="mfb1eaeb893" d="M 0 0 
L -3.5 0 
" style="stroke: #000000; stroke-width: 0.8"/>
      </defs>
      <g>
       <use xlink:href="#mfb1eaeb893" x="18" y="189" style="stroke: #000000; stroke-width: 0.8"/>
      </g>
     </g>
     <g id="text_4">
      <!-- −15 -->
      <g transform="translate(-10.104688 192.799219)scale(0.1 -0.1)">
       <defs>
        <path id="DejaVuSans-35" d="M 691 4666 
L 3169 4666 
L 3169 4134 
L 1269 4134 
L 1269 2991 
Q 1406 3038 1543 3061 
Q 1681 3084 1819 3084 
Q 2600 3084 3056 2656 
Q 3513 2228 3513 1497 
Q 3513 744 3044 326 
Q 2575 -91 1722 -91 
Q 1428 -91 1123 -41 
Q 819 9 494 109 
L 494 744 
Q 775 591 1075 516 
Q 1375 441 1709 441 
Q 2250 441 2565 725 
Q 2881 1009 2881 1497 
Q 2881 1984 2565 2268 
Q 2250 2553 1709 2553 
Q 1456 2553 1204 2497 
Q 953 2441 691 2322 
L 691 4666 
z
" transform="scale(0.015625)"/>
       </defs>
       <use xlink:href="#DejaVuSans-2212"/>
       <use xlink:href="#DejaVuSans-31" x="83.789062"/>
       <use xlink:href="#DejaVuSans-35" x="147.412109"/>
      </g>
     </g>
    </g>
    <g id="ytick_2">
     <g id="line2d_5">
      <g>
       <use xlink:href="#mfb1eaeb893" x="18" y="161.82" style="stroke: #000000; stroke-width: 0.8"/>
      </g>
     </g>
     <g id="text_5">
      <!-- −10 -->
      <g transform="translate(-10.104688 165.619219)scale(0.1 -0.1)">
       <use xlink:href="#DejaVuSans-2212"/>
       <use xlink:href="#DejaVuSans-31" x="83.789062"/>
       <use xlink:href="#DejaVuSans-30" x="147.412109"/>
      </g>
     </g>
    </g>
    <g id="ytick_3">
     <g id="line2d_6">
      <g>
       <use xlink:href="#mfb1eaeb893" x="18" y="134.64" style="stroke: #000000; stroke-width: 0.8"/>
      </g>
     </g>
     <g id="text_6">
      <!-- −5 -->
      <g transform="translate(-3.742188 138.439219)scale(0.1 -0.1)">
       <use xlink:href="#DejaVuSans-2212"/>
       <use xlink:href="#DejaVuSans-35" x="83.789062"/>
      </g>
     </g>
    </g>
    <g id="ytick_4">
     <g id="line2d_7">
      <g>
       <use xlink:href="#mfb1eaeb893" x="18" y="107.46" style="stroke: #000000; stroke-width: 0.8"/>
      </g>
     </g>
     <g id="text_7">
      <!-- 0 -->
      <g transform="translate(4.6375 111.259219)scale(0.1 -0.1)">
       <use xlink:href="#DejaVuSans-30"/>
      </g>
     </g>
    </g>
    <g id="ytick_5">
     <g id="line2d_8">
      <g>
       <use xlink:href="#mfb1eaeb893" x="18" y="80.28" style="stroke: #000000; stroke-width: 0.8"/>
      </g>
     </g>
     <g id="text_8">
      <!-- 5 -->
      <g transform="translate(4.6375 84.079219)scale(0.1 -0.1)">
       <use xlink:href="#DejaVuSans-35"/>
      </g>
     </g>
    </g>
    <g id="ytick_6">
     <g id="line2d_9">
      <g>
       <use xlink:href="#mfb1eaeb893" x="18" y="53.1" style="stroke: #000000; stroke-width: 0.8"/>
      </g>
     </g>
     <g id="text_9">
      <!-- 10 -->
      <g transform="translate(-1.725 56.899219)scale(0.1 -0.1)">
       <use xlink:href="#DejaVuSans-31"/>
       <use xlink:href="#DejaVuSans-30" x="63.623047"/>
      </g>
     </g>
    </g>
    <g id="ytick_7">
     <g id="line2d_10">
      <g>
       <use xlink:href="#mfb1eaeb893" x="18" y="25.92" style="stroke: #000000; stroke-width: 0.8"/>
      </g>
     </g>
     <g id="text_10">
      <!-- 15 -->
      <g transform="translate(-1.725 29.719219)scale(0.1 -0.1)">
       <use xlink:href="#DejaVuSans-31"/>
       <use xlink:href="#DejaVuSans-35" x="63.623047"/>
      </g>
     </g>
    </g>
   </g>
   <g id="patch_3">
    <path d="M 18 189 
L 18 25.92 
" style="fill: none; stroke: #000000; stroke-width: 0.8; stroke-linejoin: miter; stroke-linecap: square"/>
   </g>
   <g id="patch_4">
    <path d="M 129.6 189 
L 129.6 25.92 
" style="fill: none; stroke: #000000; stroke-width: 0.8; stroke-linejoin: miter; stroke-linecap: square"/>
   </g>
   <g id="patch_5">
    <path d="M 18 189 
L 129.6 189 
" style="fill: none; stroke: #000000; stroke-width: 0.8; stroke-linejoin: miter; stroke-linecap: square"/>
   </g>
   <g id="patch_6">
    <path d="M 18 25.92 
L 129.6 25.92 
" style="fill: none; stroke: #000000; stroke-width: 0.8; stroke-linejoin: miter; stroke-linecap: square"/>
   </g>
  </g>
 </g>
 <defs>
  <clipPath id="p85de4de88d">
   <rect x="18" y="25.92" width="111.6" height="163.08"/>
  </clipPath>
 </defs>
</svg>
