<?xml version="1.0" encoding="utf-8" standalone="no"?>
<!DOCTYPE svg PUBLIC "-//W3C//DTD SVG 1.1//EN"
  "http://www.w3.org/Graphics/SVG/1.1/DTD/svg11.dtd">
<svg xmlns:xlink="http://www.w3.org/1999/xlink" width="144pt" height="216pt" viewBox="0 0 144 216" xmlns="http://www.w3.org/2000/svg" version="1.1">
 <metadata>
  <rdf:RDF xmlns:dc="http://purl.org/dc/elements/1.1/" xmlns:cc="http://creativecommons.org/ns#" xmlns:rdf="http://www.w3.org/1999/02/22-rdf-syntax-ns#">
   <cc:Work>
    <dc:type rdf:resource="http://purl.org/dc/dcmitype/StillImage"/>
    <dc:date>2022-06-23T14:45:47.226462</dc:date>
    <dc:format>image/svg+xml</dc:format>
    <dc:creator>
     <cc:Agent>
      <dc:title>Matplotlib v3.5.1, https://matplotlib.org/</dc:title>
     </cc:Agent>
    </dc:creator>
   </cc:Work>
  </rdf:RDF>
 </metadata>
 <defs>
  <style type="text/css">*{stroke-linejoin: round; stroke-linecap: butt}</style>
 </defs>
 <g id="figure_1">
  <g id="patch_1">
   <path d="M 0 216 
L 144 216 
L 144 0 
L 0 0 
L 0 216 
z
" style="fill: none"/>
  </g>
  <g id="axes_1">
   <g id="patch_2">
    <path d="M 18 189 
L 129.6 189 
L 129.6 25.92 
L 18 25.92 
z
" style="fill: #ffffff"/>
   </g>
   <g id="PathCollection_1">
    <defs>
     <path id="m3a6b4abf19" d="M 0 2.738613 
C 0.726289 2.738613 1.422928 2.450055 1.936492 1.936492 
C 2.450055 1.422928 2.738613 0.726289 2.738613 0 
C 2.738613 -0.726289 2.450055 -1.422928 1.936492 -1.936492 
C 1.422928 -2.450055 0.726289 -2.738613 0 -2.738613 
C -0.726289 -2.738613 -1.422928 -2.450055 -1.936492 -1.936492 
C -2.450055 -1.422928 -2.738613 -0.726289 -2.738613 0 
C -2.738613 0.726289 -2.450055 1.422928 -1.936492 1.936492 
C -1.422928 2.450055 -0.726289 2.738613 0 2.738613 
z
" style="stroke: #ff0000; stroke-width: 1.75"/>
    </defs>
    <g clip-path="url(#p246444be75)">
     <use xlink:href="#m3a6b4abf19" x="66.825" y="83.92143" style="fill: #ff0000; stroke: #ff0000; stroke-width: 1.75"/>
     <use xlink:href="#m3a6b4abf19" x="87.75" y="95.690715" style="fill: #ff0000; stroke: #ff0000; stroke-width: 1.75"/>
     <use xlink:href="#m3a6b4abf19" x="66.825" y="107.46" style="fill: #ff0000; stroke: #ff0000; stroke-width: 1.75"/>
     <use xlink:href="#m3a6b4abf19" x="73.8" y="119.229285" style="fill: #ff0000; stroke: #ff0000; stroke-width: 1.75"/>
     <use xlink:href="#m3a6b4abf19" x="87.75" y="119.229285" style="fill: #ff0000; stroke: #ff0000; stroke-width: 1.75"/>
     <use xlink:href="#m3a6b4abf19" x="66.825" y="130.99857" style="fill: #ff0000; stroke: #ff0000; stroke-width: 1.75"/>
     <use xlink:href="#m3a6b4abf19" x="80.775" y="130.99857" style="fill: #ff0000; stroke: #ff0000; stroke-width: 1.75"/>
    </g>
   </g>
   <g id="PathCollection_2">
    <defs>
     <path id="C0_0_eccf353eaf" d="M 0 2.738613 
C 0.726289 2.738613 1.422928 2.450055 1.936492 1.936492 
C 2.450055 1.422928 2.738613 0.726289 2.738613 -0 
C 2.738613 -0.726289 2.450055 -1.422928 1.936492 -1.936492 
C 1.422928 -2.450055 0.726289 -2.738613 0 -2.738613 
C -0.726289 -2.738613 -1.422928 -2.450055 -1.936492 -1.936492 
C -2.450055 -1.422928 -2.738613 -0.726289 -2.738613 0 
C -2.738613 0.726289 -2.450055 1.422928 -1.936492 1.936492 
C -1.422928 2.450055 -0.726289 2.738613 0 2.738613 
z
"/>
    </defs>
    <g clip-path="url(#p246444be75)">
     <use xlink:href="#C0_0_eccf353eaf" x="80.775" y="83.92143" style="fill: none; stroke: #ff0000; stroke-width: 1.75"/>
    </g>
    <g clip-path="url(#p246444be75)">
     <use xlink:href="#C0_0_eccf353eaf" x="59.85" y="95.690715" style="fill: none; stroke: #ff0000; stroke-width: 1.75"/>
    </g>
    <g clip-path="url(#p246444be75)">
     <use xlink:href="#C0_0_eccf353eaf" x="73.8" y="95.690715" style="fill: none; stroke: #ff0000; stroke-width: 1.75"/>
    </g>
    <g clip-path="url(#p246444be75)">
     <use xlink:href="#C0_0_eccf353eaf" x="52.875" y="107.46" style="fill: none; stroke: #ff0000; stroke-width: 1.75"/>
    </g>
    <g clip-path="url(#p246444be75)">
     <use xlink:href="#C0_0_eccf353eaf" x="80.775" y="107.46" style="fill: none; stroke: #ff0000; stroke-width: 1.75"/>
    </g>
    <g clip-path="url(#p246444be75)">
     <use xlink:href="#C0_0_eccf353eaf" x="94.725" y="107.46" style="fill: none; stroke: #ff0000; stroke-width: 1.75"/>
    </g>
    <g clip-path="url(#p246444be75)">
     <use xlink:href="#C0_0_eccf353eaf" x="59.85" y="119.229285" style="fill: none; stroke: #ff0000; stroke-width: 1.75"/>
    </g>
   </g>
   <g id="PathCollection_3">
    <path d="M 109.849647 90.336355 
C 109.982249 90.336355 110.109437 90.283672 110.2032 90.189908 
C 110.296964 90.096145 110.349647 89.968956 110.349647 89.836355 
C 110.349647 89.703753 110.296964 89.576565 110.2032 89.482801 
C 110.109437 89.389038 109.982249 89.336355 109.849647 89.336355 
C 109.717045 89.336355 109.589857 89.389038 109.496094 89.482801 
C 109.40233 89.576565 109.349647 89.703753 109.349647 89.836355 
C 109.349647 89.968956 109.40233 90.096145 109.496094 90.189908 
C 109.589857 90.283672 109.717045 90.336355 109.849647 90.336355 
z
" clip-path="url(#p246444be75)" style="stroke: #000000"/>
    <path d="M 100.135534 71.596147 
C 100.268136 71.596147 100.395324 71.543464 100.489087 71.4497 
C 100.582851 71.355937 100.635534 71.228749 100.635534 71.096147 
C 100.635534 70.963546 100.582851 70.836357 100.489087 70.742594 
C 100.395324 70.64883 100.268136 70.596147 100.135534 70.596147 
C 100.002932 70.596147 99.875744 70.64883 99.781981 70.742594 
C 99.688217 70.836357 99.635534 70.963546 99.635534 71.096147 
C 99.635534 71.228749 99.688217 71.355937 99.781981 71.4497 
C 99.875744 71.543464 100.002932 71.596147 100.135534 71.596147 
z
" clip-path="url(#p246444be75)" style="stroke: #000000"/>
    <path d="M 90.288723 43.913436 
C 90.421324 43.913436 90.548513 43.860753 90.642276 43.766989 
C 90.73604 43.673226 90.788723 43.546038 90.788723 43.413436 
C 90.788723 43.280834 90.73604 43.153646 90.642276 43.059883 
C 90.548513 42.966119 90.421324 42.913436 90.288723 42.913436 
C 90.156121 42.913436 90.028933 42.966119 89.935169 43.059883 
C 89.841406 43.153646 89.788723 43.280834 89.788723 43.413436 
C 89.788723 43.546038 89.841406 43.673226 89.935169 43.766989 
C 90.028933 43.860753 90.156121 43.913436 90.288723 43.913436 
z
" clip-path="url(#p246444be75)" style="stroke: #000000"/>
    <path d="M 104.552852 116.172828 
C 105.119724 116.172828 105.663455 115.947607 106.064294 115.546768 
C 106.465134 115.145929 106.690354 114.602198 106.690354 114.035325 
C 106.690354 113.468453 106.465134 112.924722 106.064294 112.523883 
C 105.663455 112.123044 105.119724 111.897823 104.552852 111.897823 
C 103.98598 111.897823 103.442249 112.123044 103.041409 112.523883 
C 102.64057 112.924722 102.41535 113.468453 102.41535 114.035325 
C 102.41535 114.602198 102.64057 115.145929 103.041409 115.546768 
C 103.442249 115.947607 103.98598 116.172828 104.552852 116.172828 
z
" clip-path="url(#p246444be75)" style="stroke: #000000"/>
    <path d="M 100.165759 101.394752 
C 100.29836 101.394752 100.425549 101.342069 100.519312 101.248305 
C 100.613076 101.154542 100.665759 101.027353 100.665759 100.894752 
C 100.665759 100.76215 100.613076 100.634962 100.519312 100.541198 
C 100.425549 100.447435 100.29836 100.394752 100.165759 100.394752 
C 100.033157 100.394752 99.905969 100.447435 99.812205 100.541198 
C 99.718442 100.634962 99.665759 100.76215 99.665759 100.894752 
C 99.665759 101.027353 99.718442 101.154542 99.812205 101.248305 
C 99.905969 101.342069 100.033157 101.394752 100.165759 101.394752 
z
" clip-path="url(#p246444be75)" style="stroke: #000000"/>
    <path d="M 78.786689 50.609651 
C 78.919291 50.609651 79.046479 50.556968 79.140243 50.463204 
C 79.234006 50.369441 79.286689 50.242252 79.286689 50.109651 
C 79.286689 49.977049 79.234006 49.849861 79.140243 49.756097 
C 79.046479 49.662334 78.919291 49.609651 78.786689 49.609651 
C 78.654088 49.609651 78.526899 49.662334 78.433136 49.756097 
C 78.339373 49.849861 78.286689 49.977049 78.286689 50.109651 
C 78.286689 50.242252 78.339373 50.369441 78.433136 50.463204 
C 78.526899 50.556968 78.654088 50.609651 78.786689 50.609651 
z
" clip-path="url(#p246444be75)" style="stroke: #000000"/>
    <path d="M 114.467865 169.047097 
C 114.600466 169.047097 114.727655 168.994414 114.821418 168.900651 
C 114.915182 168.806887 114.967865 168.679699 114.967865 168.547097 
C 114.967865 168.414496 114.915182 168.287307 114.821418 168.193544 
C 114.727655 168.09978 114.600466 168.047097 114.467865 168.047097 
C 114.335263 168.047097 114.208075 168.09978 114.114311 168.193544 
C 114.020548 168.287307 113.967865 168.414496 113.967865 168.547097 
C 113.967865 168.679699 114.020548 168.806887 114.114311 168.900651 
C 114.208075 168.994414 114.335263 169.047097 114.467865 169.047097 
z
" clip-path="url(#p246444be75)" style="stroke: #000000"/>
    <path d="M 102.022431 147.416848 
C 102.155033 147.416848 102.282221 147.364165 102.375985 147.270402 
C 102.469748 147.176638 102.522431 147.04945 102.522431 146.916848 
C 102.522431 146.784247 102.469748 146.657058 102.375985 146.563295 
C 102.282221 146.469532 102.155033 146.416848 102.022431 146.416848 
C 101.88983 146.416848 101.762641 146.469532 101.668878 146.563295 
C 101.575115 146.657058 101.522431 146.784247 101.522431 146.916848 
C 101.522431 147.04945 101.575115 147.176638 101.668878 147.270402 
C 101.762641 147.364165 101.88983 147.416848 102.022431 147.416848 
z
" clip-path="url(#p246444be75)" style="stroke: #000000"/>
    <path d="M 98.350769 135.744127 
C 98.483371 135.744127 98.610559 135.691443 98.704323 135.59768 
C 98.798086 135.503916 98.850769 135.376728 98.850769 135.244127 
C 98.850769 135.111525 98.798086 134.984337 98.704323 134.890573 
C 98.610559 134.79681 98.483371 134.744127 98.350769 134.744127 
C 98.218168 134.744127 98.09098 134.79681 97.997216 134.890573 
C 97.903453 134.984337 97.850769 135.111525 97.850769 135.244127 
C 97.850769 135.376728 97.903453 135.503916 97.997216 135.59768 
C 98.09098 135.691443 98.218168 135.744127 98.350769 135.744127 
z
" clip-path="url(#p246444be75)" style="stroke: #000000"/>
    <path d="M 94.214171 117.166143 
C 94.412456 117.166143 94.602647 117.087363 94.742856 116.947154 
C 94.883065 116.806945 94.961845 116.616754 94.961845 116.418468 
C 94.961845 116.220183 94.883065 116.029992 94.742856 115.889783 
C 94.602647 115.749574 94.412456 115.670794 94.214171 115.670794 
C 94.015885 115.670794 93.825694 115.749574 93.685485 115.889783 
C 93.545276 116.029992 93.466496 116.220183 93.466496 116.418468 
C 93.466496 116.616754 93.545276 116.806945 93.685485 116.947154 
C 93.825694 117.087363 94.015885 117.166143 94.214171 117.166143 
z
" clip-path="url(#p246444be75)" style="stroke: #000000"/>
    <path d="M 81.207001 85.879302 
C 81.381514 85.879302 81.548904 85.809967 81.672303 85.686567 
C 81.795703 85.563168 81.865038 85.395778 81.865038 85.221265 
C 81.865038 85.046752 81.795703 84.879362 81.672303 84.755963 
C 81.548904 84.632563 81.381514 84.563228 81.207001 84.563228 
C 81.032487 84.563228 80.865098 84.632563 80.741698 84.755963 
C 80.618299 84.879362 80.548964 85.046752 80.548964 85.221265 
C 80.548964 85.395778 80.618299 85.563168 80.741698 85.686567 
C 80.865098 85.809967 81.032487 85.879302 81.207001 85.879302 
z
" clip-path="url(#p246444be75)" style="stroke: #000000"/>
    <path d="M 77.311818 64.154833 
C 77.803477 64.154833 78.275065 63.959495 78.622721 63.61184 
C 78.970376 63.264184 79.165715 62.792596 79.165715 62.300937 
C 79.165715 61.809278 78.970376 61.33769 78.622721 60.990034 
C 78.275065 60.642379 77.803477 60.44704 77.311818 60.44704 
C 76.820159 60.44704 76.348571 60.642379 76.000915 60.990034 
C 75.65326 61.33769 75.457922 61.809278 75.457922 62.300937 
C 75.457922 62.792596 75.65326 63.264184 76.000915 63.61184 
C 76.348571 63.959495 76.820159 64.154833 77.311818 64.154833 
z
" clip-path="url(#p246444be75)" style="stroke: #000000"/>
    <path d="M 61.452651 31.28722 
C 61.585252 31.28722 61.712441 31.234537 61.806204 31.140773 
C 61.899968 31.04701 61.952651 30.919821 61.952651 30.78722 
C 61.952651 30.654618 61.899968 30.52743 61.806204 30.433666 
C 61.712441 30.339903 61.585252 30.28722 61.452651 30.28722 
C 61.320049 30.28722 61.192861 30.339903 61.099097 30.433666 
C 61.005334 30.52743 60.952651 30.654618 60.952651 30.78722 
C 60.952651 30.919821 61.005334 31.04701 61.099097 31.140773 
C 61.192861 31.234537 61.320049 31.28722 61.452651 31.28722 
z
" clip-path="url(#p246444be75)" style="stroke: #000000"/>
    <path d="M 102.321707 173.26721 
C 102.454308 173.26721 102.581497 173.214527 102.67526 173.120764 
C 102.769023 173.027 102.821707 172.899812 102.821707 172.76721 
C 102.821707 172.634609 102.769023 172.507421 102.67526 172.413657 
C 102.581497 172.319894 102.454308 172.26721 102.321707 172.26721 
C 102.189105 172.26721 102.061917 172.319894 101.968153 172.413657 
C 101.87439 172.507421 101.821707 172.634609 101.821707 172.76721 
C 101.821707 172.899812 101.87439 173.027 101.968153 173.120764 
C 102.061917 173.214527 102.189105 173.26721 102.321707 173.26721 
z
" clip-path="url(#p246444be75)" style="stroke: #000000"/>
    <path d="M 94.928142 150.101766 
C 95.060744 150.101766 95.187932 150.049083 95.281696 149.955319 
C 95.375459 149.861556 95.428142 149.734367 95.428142 149.601766 
C 95.428142 149.469164 95.375459 149.341976 95.281696 149.248212 
C 95.187932 149.154449 95.060744 149.101766 94.928142 149.101766 
C 94.795541 149.101766 94.668352 149.154449 94.574589 149.248212 
C 94.480825 149.341976 94.428142 149.469164 94.428142 149.601766 
C 94.428142 149.734367 94.480825 149.861556 94.574589 149.955319 
C 94.668352 150.049083 94.795541 150.101766 94.928142 150.101766 
z
" clip-path="url(#p246444be75)" style="stroke: #000000"/>
    <path d="M 82.496118 134.652682 
C 82.752614 134.652682 82.998639 134.550775 83.180009 134.369405 
C 83.361379 134.188035 83.463286 133.94201 83.463286 133.685514 
C 83.463286 133.429018 83.361379 133.182993 83.180009 133.001623 
C 82.998639 132.820253 82.752614 132.718346 82.496118 132.718346 
C 82.239622 132.718346 81.993597 132.820253 81.812227 133.001623 
C 81.630856 133.182993 81.52895 133.429018 81.52895 133.685514 
C 81.52895 133.94201 81.630856 134.188035 81.812227 134.369405 
C 81.993597 134.550775 82.239622 134.652682 82.496118 134.652682 
z
" clip-path="url(#p246444be75)" style="stroke: #000000"/>
    <path d="M 86.103442 122.131411 
C 86.696824 122.131411 87.265983 121.895657 87.685568 121.476073 
C 88.105152 121.056488 88.340906 120.487329 88.340906 119.893946 
C 88.340906 119.300564 88.105152 118.731405 87.685568 118.31182 
C 87.265983 117.892236 86.696824 117.656482 86.103442 117.656482 
C 85.510059 117.656482 84.9409 117.892236 84.521315 118.31182 
C 84.101731 118.731405 83.865977 119.300564 83.865977 119.893946 
C 83.865977 120.487329 84.101731 121.056488 84.521315 121.476073 
C 84.9409 121.895657 85.510059 122.131411 86.103442 122.131411 
z
" clip-path="url(#p246444be75)" style="stroke: #000000"/>
    <path d="M 77.13128 109.255509 
C 77.630564 109.255509 78.109466 109.057142 78.462513 108.704095 
C 78.81556 108.351048 79.013928 107.872146 79.013928 107.372862 
C 79.013928 106.873578 78.81556 106.394676 78.462513 106.041629 
C 78.109466 105.688582 77.630564 105.490214 77.13128 105.490214 
C 76.631996 105.490214 76.153094 105.688582 75.800047 106.041629 
C 75.447 106.394676 75.248633 106.873578 75.248633 107.372862 
C 75.248633 107.872146 75.447 108.351048 75.800047 108.704095 
C 76.153094 109.057142 76.631996 109.255509 77.13128 109.255509 
z
" clip-path="url(#p246444be75)" style="stroke: #000000"/>
    <path d="M 77.96754 101.07776 
C 78.560552 101.07776 79.129356 100.842154 79.548679 100.422831 
C 79.968002 100.003508 80.203608 99.434704 80.203608 98.841692 
C 80.203608 98.24868 79.968002 97.679876 79.548679 97.260553 
C 79.129356 96.84123 78.560552 96.605624 77.96754 96.605624 
C 77.374528 96.605624 76.805724 96.84123 76.386401 97.260553 
C 75.967078 97.679876 75.731472 98.24868 75.731472 98.841692 
C 75.731472 99.434704 75.967078 100.003508 76.386401 100.422831 
C 76.805724 100.842154 77.374528 101.07776 77.96754 101.07776 
z
" clip-path="url(#p246444be75)" style="stroke: #000000"/>
    <path d="M 72.619707 94.083198 
C 73.211604 94.083198 73.779338 93.848035 74.197873 93.429501 
C 74.616407 93.010966 74.85157 92.443232 74.85157 91.851335 
C 74.85157 91.259438 74.616407 90.691703 74.197873 90.273169 
C 73.779338 89.854634 73.211604 89.619471 72.619707 89.619471 
C 72.02781 89.619471 71.460075 89.854634 71.041541 90.273169 
C 70.623006 90.691703 70.387843 91.259438 70.387843 91.851335 
C 70.387843 92.443232 70.623006 93.010966 71.041541 93.429501 
C 71.460075 93.848035 72.02781 94.083198 72.619707 94.083198 
z
" clip-path="url(#p246444be75)" style="stroke: #000000"/>
    <path d="M 73.260253 84.521801 
C 73.853265 84.521801 74.422069 84.286194 74.841392 83.866871 
C 75.260714 83.447548 75.496321 82.878745 75.496321 82.285733 
C 75.496321 81.69272 75.260714 81.123917 74.841392 80.704594 
C 74.422069 80.285271 73.853265 80.049665 73.260253 80.049665 
C 72.667241 80.049665 72.098437 80.285271 71.679114 80.704594 
C 71.259791 81.123917 71.024185 81.69272 71.024185 82.285733 
C 71.024185 82.878745 71.259791 83.447548 71.679114 83.866871 
C 72.098437 84.286194 72.667241 84.521801 73.260253 84.521801 
z
" clip-path="url(#p246444be75)" style="stroke: #000000"/>
    <path d="M 63.982717 58.151411 
C 64.309756 58.151411 64.623444 58.021477 64.854695 57.790226 
C 65.085946 57.558975 65.21588 57.245287 65.21588 56.918248 
C 65.21588 56.591209 65.085946 56.277521 64.854695 56.04627 
C 64.623444 55.815019 64.309756 55.685085 63.982717 55.685085 
C 63.655679 55.685085 63.341991 55.815019 63.11074 56.04627 
C 62.879488 56.277521 62.749555 56.591209 62.749555 56.918248 
C 62.749555 57.245287 62.879488 57.558975 63.11074 57.790226 
C 63.341991 58.021477 63.655679 58.151411 63.982717 58.151411 
z
" clip-path="url(#p246444be75)" style="stroke: #000000"/>
    <path d="M 75.851835 132.474787 
C 75.984436 132.474787 76.111624 132.422104 76.205388 132.32834 
C 76.299151 132.234577 76.351835 132.107388 76.351835 131.974787 
C 76.351835 131.842185 76.299151 131.714997 76.205388 131.621233 
C 76.111624 131.52747 75.984436 131.474787 75.851835 131.474787 
C 75.719233 131.474787 75.592045 131.52747 75.498281 131.621233 
C 75.404518 131.714997 75.351835 131.842185 75.351835 131.974787 
C 75.351835 132.107388 75.404518 132.234577 75.498281 132.32834 
C 75.592045 132.422104 75.719233 132.474787 75.851835 132.474787 
z
" clip-path="url(#p246444be75)" style="stroke: #000000"/>
    <path d="M 61.245077 97.299848 
C 61.812373 97.299848 62.356511 97.074459 62.75765 96.67332 
C 63.158789 96.272181 63.384178 95.728043 63.384178 95.160747 
C 63.384178 94.593451 63.158789 94.049313 62.75765 93.648175 
C 62.356511 93.247036 61.812373 93.021646 61.245077 93.021646 
C 60.677781 93.021646 60.133644 93.247036 59.732505 93.648175 
C 59.331366 94.049313 59.105977 94.593451 59.105977 95.160747 
C 59.105977 95.728043 59.331366 96.272181 59.732505 96.67332 
C 60.133644 97.074459 60.677781 97.299848 61.245077 97.299848 
z
" clip-path="url(#p246444be75)" style="stroke: #000000"/>
    <path d="M 60.161563 87.166913 
C 60.754576 87.166913 61.323379 86.931307 61.742702 86.511984 
C 62.162025 86.092661 62.397631 85.523857 62.397631 84.930845 
C 62.397631 84.337833 62.162025 83.769029 61.742702 83.349706 
C 61.323379 82.930383 60.754576 82.694777 60.161563 82.694777 
C 59.568551 82.694777 58.999748 82.930383 58.580425 83.349706 
C 58.161102 83.769029 57.925496 84.337833 57.925496 84.930845 
C 57.925496 85.523857 58.161102 86.092661 58.580425 86.511984 
C 58.999748 86.931307 59.568551 87.166913 60.161563 87.166913 
z
" clip-path="url(#p246444be75)" style="stroke: #000000"/>
    <path d="M 67.213407 139.235099 
C 67.806419 139.235099 68.375223 138.999493 68.794546 138.58017 
C 69.213869 138.160847 69.449475 137.592044 69.449475 136.999031 
C 69.449475 136.406019 69.213869 135.837216 68.794546 135.417893 
C 68.375223 134.99857 67.806419 134.762963 67.213407 134.762963 
C 66.620395 134.762963 66.051591 134.99857 65.632268 135.417893 
C 65.212945 135.837216 64.977339 136.406019 64.977339 136.999031 
C 64.977339 137.592044 65.212945 138.160847 65.632268 138.58017 
C 66.051591 138.999493 66.620395 139.235099 67.213407 139.235099 
z
" clip-path="url(#p246444be75)" style="stroke: #000000"/>
    <path d="M 60.087019 131.442169 
C 60.569996 131.442169 61.033257 131.25028 61.374774 130.908764 
C 61.71629 130.567247 61.908179 130.103986 61.908179 129.621009 
C 61.908179 129.138031 61.71629 128.674771 61.374774 128.333254 
C 61.033257 127.991737 60.569996 127.799848 60.087019 127.799848 
C 59.604042 127.799848 59.140781 127.991737 58.799264 128.333254 
C 58.457748 128.674771 58.265859 129.138031 58.265859 129.621009 
C 58.265859 130.103986 58.457748 130.567247 58.799264 130.908764 
C 59.140781 131.25028 59.604042 131.442169 60.087019 131.442169 
z
" clip-path="url(#p246444be75)" style="stroke: #000000"/>
    <path d="M 47.004396 87.972911 
C 47.503057 87.972911 47.981362 87.77479 48.33397 87.422183 
C 48.686577 87.069576 48.884697 86.591271 48.884697 86.092609 
C 48.884697 85.593947 48.686577 85.115642 48.33397 84.763035 
C 47.981362 84.410428 47.503057 84.212308 47.004396 84.212308 
C 46.505734 84.212308 46.027429 84.410428 45.674822 84.763035 
C 45.322214 85.115642 45.124094 85.593947 45.124094 86.092609 
C 45.124094 86.591271 45.322214 87.069576 45.674822 87.422183 
C 46.027429 87.77479 46.505734 87.972911 47.004396 87.972911 
z
" clip-path="url(#p246444be75)" style="stroke: #000000"/>
    <path d="M 44.970759 119.015835 
C 45.10336 119.015835 45.230549 118.963151 45.324312 118.869388 
C 45.418076 118.775625 45.470759 118.648436 45.470759 118.515835 
C 45.470759 118.383233 45.418076 118.256045 45.324312 118.162281 
C 45.230549 118.068518 45.10336 118.015835 44.970759 118.015835 
C 44.838157 118.015835 44.710969 118.068518 44.617205 118.162281 
C 44.523442 118.256045 44.470759 118.383233 44.470759 118.515835 
C 44.470759 118.648436 44.523442 118.775625 44.617205 118.869388 
C 44.710969 118.963151 44.838157 119.015835 44.970759 119.015835 
z
" clip-path="url(#p246444be75)" style="stroke: #000000"/>
    <path d="M 50.700238 162.93074 
C 50.83284 162.93074 50.960028 162.878057 51.053792 162.784293 
C 51.147555 162.69053 51.200238 162.563341 51.200238 162.43074 
C 51.200238 162.298138 51.147555 162.17095 51.053792 162.077186 
C 50.960028 161.983423 50.83284 161.93074 50.700238 161.93074 
C 50.567637 161.93074 50.440448 161.983423 50.346685 162.077186 
C 50.252921 162.17095 50.200238 162.298138 50.200238 162.43074 
C 50.200238 162.563341 50.252921 162.69053 50.346685 162.784293 
C 50.440448 162.878057 50.567637 162.93074 50.700238 162.93074 
z
" clip-path="url(#p246444be75)" style="stroke: #000000"/>
   </g>
   <g id="matplotlib.axis_1">
    <g id="xtick_1">
     <g id="line2d_1">
      <defs>
       <path id="m17ad8f3cd9" d="M 0 0 
L 0 3.5 
" style="stroke: #000000; stroke-width: 0.8"/>
      </defs>
      <g>
       <use xlink:href="#m17ad8f3cd9" x="18" y="189" style="stroke: #000000; stroke-width: 0.8"/>
      </g>
     </g>
     <g id="text_1">
      <!-- −10 -->
      <g transform="translate(7.447656 203.598437)scale(0.1 -0.1)">
       <defs>
        <path id="DejaVuSans-2212" d="M 678 2272 
L 4684 2272 
L 4684 1741 
L 678 1741 
L 678 2272 
z
" transform="scale(0.015625)"/>
        <path id="DejaVuSans-31" d="M 794 531 
L 1825 531 
L 1825 4091 
L 703 3866 
L 703 4441 
L 1819 4666 
L 2450 4666 
L 2450 531 
L 3481 531 
L 3481 0 
L 794 0 
L 794 531 
z
" transform="scale(0.015625)"/>
        <path id="DejaVuSans-30" d="M 2034 4250 
Q 1547 4250 1301 3770 
Q 1056 3291 1056 2328 
Q 1056 1369 1301 889 
Q 1547 409 2034 409 
Q 2525 409 2770 889 
Q 3016 1369 3016 2328 
Q 3016 3291 2770 3770 
Q 2525 4250 2034 4250 
z
M 2034 4750 
Q 2819 4750 3233 4129 
Q 3647 3509 3647 2328 
Q 3647 1150 3233 529 
Q 2819 -91 2034 -91 
Q 1250 -91 836 529 
Q 422 1150 422 2328 
Q 422 3509 836 4129 
Q 1250 4750 2034 4750 
z
" transform="scale(0.015625)"/>
       </defs>
       <use xlink:href="#DejaVuSans-2212"/>
       <use xlink:href="#DejaVuSans-31" x="83.789062"/>
       <use xlink:href="#DejaVuSans-30" x="147.412109"/>
      </g>
     </g>
    </g>
    <g id="xtick_2">
     <g id="line2d_2">
      <g>
       <use xlink:href="#m17ad8f3cd9" x="73.8" y="189" style="stroke: #000000; stroke-width: 0.8"/>
      </g>
     </g>
     <g id="text_2">
      <!-- 0 -->
      <g transform="translate(70.61875 203.598437)scale(0.1 -0.1)">
       <use xlink:href="#DejaVuSans-30"/>
      </g>
     </g>
    </g>
    <g id="xtick_3">
     <g id="line2d_3">
      <g>
       <use xlink:href="#m17ad8f3cd9" x="129.6" y="189" style="stroke: #000000; stroke-width: 0.8"/>
      </g>
     </g>
     <g id="text_3">
      <!-- 10 -->
      <g transform="translate(123.2375 203.598437)scale(0.1 -0.1)">
       <use xlink:href="#DejaVuSans-31"/>
       <use xlink:href="#DejaVuSans-30" x="63.623047"/>
      </g>
     </g>
    </g>
   </g>
   <g id="matplotlib.axis_2">
    <g id="ytick_1">
     <g id="line2d_4">
      <defs>
       <path id="m62c7ba632f" d="M 0 0 
L -3.5 0 
" style="stroke: #000000; stroke-width: 0.8"/>
      </defs>
      <g>
       <use xlink:href="#m62c7ba632f" x="18" y="189" style="stroke: #000000; stroke-width: 0.8"/>
      </g>
     </g>
     <g id="text_4">
      <!-- −15 -->
      <g transform="translate(-10.104688 192.799219)scale(0.1 -0.1)">
       <defs>
        <path id="DejaVuSans-35" d="M 691 4666 
L 3169 4666 
L 3169 4134 
L 1269 4134 
L 1269 2991 
Q 1406 3038 1543 3061 
Q 1681 3084 1819 3084 
Q 2600 3084 3056 2656 
Q 3513 2228 3513 1497 
Q 3513 744 3044 326 
Q 2575 -91 1722 -91 
Q 1428 -91 1123 -41 
Q 819 9 494 109 
L 494 744 
Q 775 591 1075 516 
Q 1375 441 1709 441 
Q 2250 441 2565 725 
Q 2881 1009 2881 1497 
Q 2881 1984 2565 2268 
Q 2250 2553 1709 2553 
Q 1456 2553 1204 2497 
Q 953 2441 691 2322 
L 691 4666 
z
" transform="scale(0.015625)"/>
       </defs>
       <use xlink:href="#DejaVuSans-2212"/>
       <use xlink:href="#DejaVuSans-31" x="83.789062"/>
       <use xlink:href="#DejaVuSans-35" x="147.412109"/>
      </g>
     </g>
    </g>
    <g id="ytick_2">
     <g id="line2d_5">
      <g>
       <use xlink:href="#m62c7ba632f" x="18" y="161.82" style="stroke: #000000; stroke-width: 0.8"/>
      </g>
     </g>
     <g id="text_5">
      <!-- −10 -->
      <g transform="translate(-10.104688 165.619219)scale(0.1 -0.1)">
       <use xlink:href="#DejaVuSans-2212"/>
       <use xlink:href="#DejaVuSans-31" x="83.789062"/>
       <use xlink:href="#DejaVuSans-30" x="147.412109"/>
      </g>
     </g>
    </g>
    <g id="ytick_3">
     <g id="line2d_6">
      <g>
       <use xlink:href="#m62c7ba632f" x="18" y="134.64" style="stroke: #000000; stroke-width: 0.8"/>
      </g>
     </g>
     <g id="text_6">
      <!-- −5 -->
      <g transform="translate(-3.742188 138.439219)scale(0.1 -0.1)">
       <use xlink:href="#DejaVuSans-2212"/>
       <use xlink:href="#DejaVuSans-35" x="83.789062"/>
      </g>
     </g>
    </g>
    <g id="ytick_4">
     <g id="line2d_7">
      <g>
       <use xlink:href="#m62c7ba632f" x="18" y="107.46" style="stroke: #000000; stroke-width: 0.8"/>
      </g>
     </g>
     <g id="text_7">
      <!-- 0 -->
      <g transform="translate(4.6375 111.259219)scale(0.1 -0.1)">
       <use xlink:href="#DejaVuSans-30"/>
      </g>
     </g>
    </g>
    <g id="ytick_5">
     <g id="line2d_8">
      <g>
       <use xlink:href="#m62c7ba632f" x="18" y="80.28" style="stroke: #000000; stroke-width: 0.8"/>
      </g>
     </g>
     <g id="text_8">
      <!-- 5 -->
      <g transform="translate(4.6375 84.079219)scale(0.1 -0.1)">
       <use xlink:href="#DejaVuSans-35"/>
      </g>
     </g>
    </g>
    <g id="ytick_6">
     <g id="line2d_9">
      <g>
       <use xlink:href="#m62c7ba632f" x="18" y="53.1" style="stroke: #000000; stroke-width: 0.8"/>
      </g>
     </g>
     <g id="text_9">
      <!-- 10 -->
      <g transform="translate(-1.725 56.899219)scale(0.1 -0.1)">
       <use xlink:href="#DejaVuSans-31"/>
       <use xlink:href="#DejaVuSans-30" x="63.623047"/>
      </g>
     </g>
    </g>
    <g id="ytick_7">
     <g id="line2d_10">
      <g>
       <use xlink:href="#m62c7ba632f" x="18" y="25.92" style="stroke: #000000; stroke-width: 0.8"/>
      </g>
     </g>
     <g id="text_10">
      <!-- 15 -->
      <g transform="translate(-1.725 29.719219)scale(0.1 -0.1)">
       <use xlink:href="#DejaVuSans-31"/>
       <use xlink:href="#DejaVuSans-35" x="63.623047"/>
      </g>
     </g>
    </g>
   </g>
   <g id="patch_3">
    <path d="M 18 189 
L 18 25.92 
" style="fill: none; stroke: #000000; stroke-width: 0.8; stroke-linejoin: miter; stroke-linecap: square"/>
   </g>
   <g id="patch_4">
    <path d="M 129.6 189 
L 129.6 25.92 
" style="fill: none; stroke: #000000; stroke-width: 0.8; stroke-linejoin: miter; stroke-linecap: square"/>
   </g>
   <g id="patch_5">
    <path d="M 18 189 
L 129.6 189 
" style="fill: none; stroke: #000000; stroke-width: 0.8; stroke-linejoin: miter; stroke-linecap: square"/>
   </g>
   <g id="patch_6">
    <path d="M 18 25.92 
L 129.6 25.92 
" style="fill: none; stroke: #000000; stroke-width: 0.8; stroke-linejoin: miter; stroke-linecap: square"/>
   </g>
  </g>
 </g>
 <defs>
  <clipPath id="p246444be75">
   <rect x="18" y="25.92" width="111.6" height="163.08"/>
  </clipPath>
 </defs>
</svg>
